<svg width="24" height="24" viewBox="0 0 24 24" fill="none" xmlns="http://www.w3.org/2000/svg">
<path d="M11.9531 23.9062C18.4922 23.9062 23.9062 18.4805 23.9062 11.9531C23.9062 5.41406 18.4805 0 11.9414 0C5.41406 0 0 5.41406 0 11.9531C0 18.4805 5.42578 23.9062 11.9531 23.9062Z" fill="#FFCC00"/>
<path d="M11.9531 17.707C9.39844 17.707 7.6875 15.3984 7.6875 11.9531C7.6875 8.50781 9.39844 6.19922 11.9531 6.19922C14.5195 6.19922 16.2305 8.50781 16.2305 11.9531C16.2305 15.3984 14.5195 17.707 11.9531 17.707ZM11.9531 16.1484C13.3945 16.1484 14.3672 14.4727 14.3672 11.9531C14.3672 9.43359 13.3945 7.75781 11.9531 7.75781C10.5117 7.75781 9.53906 9.43359 9.53906 11.9531C9.53906 14.4727 10.5117 16.1484 11.9531 16.1484Z" fill="black" fill-opacity="0.85"/>
</svg>
