<svg width="22" height="22" viewBox="0 0 22 22" fill="none" xmlns="http://www.w3.org/2000/svg">
<path d="M3.67969 21.5977H17.8945C20.3555 21.5977 21.5742 20.3789 21.5742 17.9648V3.65625C21.5742 1.24219 20.3555 0.0234375 17.8945 0.0234375H3.67969C1.23047 0.0234375 0 1.23047 0 3.65625V17.9648C0 20.3906 1.23047 21.5977 3.67969 21.5977ZM3.70312 19.7109C2.53125 19.7109 1.88672 19.0898 1.88672 17.8711V3.75C1.88672 2.53125 2.53125 1.91016 3.70312 1.91016H17.8711C19.0312 1.91016 19.6875 2.53125 19.6875 3.75V17.8711C19.6875 19.0898 19.0312 19.7109 17.8711 19.7109H3.70312Z" fill="#007AFF"/>
<path d="M10.793 16.3711C13.2773 16.3711 14.9414 14.1328 14.9414 10.793C14.9414 7.45312 13.2773 5.21484 10.793 5.21484C8.32031 5.21484 6.65625 7.45312 6.65625 10.793C6.65625 14.1328 8.32031 16.3711 10.793 16.3711ZM10.793 14.8711C9.39844 14.8711 8.44922 13.2422 8.44922 10.793C8.44922 8.34375 9.39844 6.71484 10.793 6.71484C12.1992 6.71484 13.1367 8.34375 13.1367 10.793C13.1367 13.2422 12.1992 14.8711 10.793 14.8711Z" fill="black" fill-opacity="0.85"/>
</svg>
