<svg width="24" height="24" viewBox="0 0 24 24" fill="none" xmlns="http://www.w3.org/2000/svg">
<path d="M11.9531 23.9062C18.4922 23.9062 23.9062 18.4805 23.9062 11.9531C23.9062 5.41406 18.4805 0 11.9414 0C5.41406 0 0 5.41406 0 11.9531C0 18.4805 5.42578 23.9062 11.9531 23.9062Z" fill="#FFCC00"/>
<path d="M8.12109 17.0859C5.70703 17.0859 4.98047 14.3906 4.98047 11.9531C4.98047 9.51562 5.70703 6.82031 8.12109 6.82031C10.5234 6.82031 11.25 9.51562 11.25 11.9531C11.25 14.3906 10.5234 17.0859 8.12109 17.0859ZM8.12109 15.6445C9.10547 15.6445 9.48047 14.0508 9.48047 11.9531C9.48047 9.84375 9.10547 8.26172 8.12109 8.26172C7.13672 8.26172 6.76172 9.84375 6.76172 11.9531C6.76172 14.0508 7.13672 15.6445 8.12109 15.6445ZM15.7852 17.0859C13.3828 17.0859 12.6562 14.3906 12.6562 11.9531C12.6562 9.51562 13.3828 6.82031 15.7852 6.82031C18.1992 6.82031 18.9258 9.51562 18.9258 11.9531C18.9258 14.3906 18.1992 17.0859 15.7852 17.0859ZM15.7852 15.6445C16.7695 15.6445 17.1445 14.0508 17.1445 11.9531C17.1445 9.84375 16.7695 8.26172 15.7852 8.26172C14.8008 8.26172 14.4258 9.84375 14.4258 11.9531C14.4258 14.0508 14.8008 15.6445 15.7852 15.6445Z" fill="black" fill-opacity="0.85"/>
</svg>
