<svg width="22" height="22" viewBox="0 0 22 22" fill="none" xmlns="http://www.w3.org/2000/svg">
<path d="M3.67969 21.5977H17.8945C20.3555 21.5977 21.5742 20.3789 21.5742 17.9648V3.65625C21.5742 1.24219 20.3555 0.0234375 17.8945 0.0234375H3.67969C1.23047 0.0234375 0 1.23047 0 3.65625V17.9648C0 20.3906 1.23047 21.5977 3.67969 21.5977ZM3.70312 19.7109C2.53125 19.7109 1.88672 19.0898 1.88672 17.8711V3.75C1.88672 2.53125 2.53125 1.91016 3.70312 1.91016H17.8711C19.0312 1.91016 19.6875 2.53125 19.6875 3.75V17.8711C19.6875 19.0898 19.0312 19.7109 17.8711 19.7109H3.70312Z" fill="#007AFF"/>
<path d="M7.07812 15.7734C9.41016 15.7734 10.1133 13.1484 10.1133 10.793C10.1133 8.4375 9.41016 5.8125 7.07812 5.8125C4.74609 5.8125 4.04297 8.4375 4.04297 10.793C4.04297 13.1484 4.74609 15.7734 7.07812 15.7734ZM7.07812 14.3789C6.11719 14.3789 5.75391 12.8203 5.75391 10.793C5.75391 8.75391 6.11719 7.19531 7.07812 7.19531C8.03906 7.19531 8.40234 8.75391 8.40234 10.793C8.40234 12.8203 8.03906 14.3789 7.07812 14.3789ZM14.5078 15.7734C16.8516 15.7734 17.543 13.1484 17.543 10.793C17.543 8.4375 16.8516 5.8125 14.5078 5.8125C12.1758 5.8125 11.4727 8.4375 11.4727 10.793C11.4727 13.1484 12.1758 15.7734 14.5078 15.7734ZM14.5078 14.3789C13.5469 14.3789 13.1836 12.8203 13.1836 10.793C13.1836 8.75391 13.5469 7.19531 14.5078 7.19531C15.4688 7.19531 15.832 8.75391 15.832 10.793C15.832 12.8203 15.4688 14.3789 14.5078 14.3789Z" fill="black" fill-opacity="0.85"/>
</svg>
