<svg width="22" height="22" viewBox="0 0 22 22" fill="none" xmlns="http://www.w3.org/2000/svg">
<path d="M3.67969 21.5977H17.8945C20.3555 21.5977 21.5742 20.3789 21.5742 17.9648V3.65625C21.5742 1.24219 20.3555 0.0234375 17.8945 0.0234375H3.67969C1.23047 0.0234375 0 1.23047 0 3.65625V17.9648C0 20.3906 1.23047 21.5977 3.67969 21.5977Z" fill="#FFCC00"/>
<path d="M6.96094 15.9258C4.54688 15.9258 3.82031 13.2305 3.82031 10.793C3.82031 8.35547 4.54688 5.66016 6.96094 5.66016C9.36328 5.66016 10.0898 8.35547 10.0898 10.793C10.0898 13.2305 9.36328 15.9258 6.96094 15.9258ZM6.96094 14.4844C7.94531 14.4844 8.32031 12.8906 8.32031 10.793C8.32031 8.68359 7.94531 7.10156 6.96094 7.10156C5.97656 7.10156 5.60156 8.68359 5.60156 10.793C5.60156 12.8906 5.97656 14.4844 6.96094 14.4844ZM14.625 15.9258C12.2227 15.9258 11.4961 13.2305 11.4961 10.793C11.4961 8.35547 12.2227 5.66016 14.625 5.66016C17.0508 5.66016 17.7656 8.35547 17.7656 10.793C17.7656 13.2305 17.0508 15.9258 14.625 15.9258ZM14.625 14.4844C15.6094 14.4844 15.9844 12.8906 15.9844 10.793C15.9844 8.68359 15.6094 7.10156 14.625 7.10156C13.6406 7.10156 13.2656 8.68359 13.2656 10.793C13.2656 12.8906 13.6406 14.4844 14.625 14.4844Z" fill="black" fill-opacity="0.85"/>
</svg>
