<svg width="24" height="24" viewBox="0 0 24 24" fill="none" xmlns="http://www.w3.org/2000/svg">
<path d="M11.9531 23.9062C18.4922 23.9062 23.9062 18.4805 23.9062 11.9531C23.9062 5.41406 18.4805 0 11.9414 0C5.41406 0 0 5.41406 0 11.9531C0 18.4805 5.42578 23.9062 11.9531 23.9062Z" fill="#FFCC00"/>
<path d="M8.98828 17.0859C6.58594 17.0859 5.85938 14.3906 5.85938 11.9531C5.85938 9.51562 6.58594 6.82031 8.98828 6.82031C11.4023 6.82031 12.1289 9.51562 12.1289 11.9531C12.1289 14.3906 11.4023 17.0859 8.98828 17.0859ZM8.98828 15.6445C9.97266 15.6445 10.3477 14.0508 10.3477 11.9531C10.3477 9.84375 9.97266 8.26172 8.98828 8.26172C8.00391 8.26172 7.62891 9.84375 7.62891 11.9531C7.62891 14.0508 8.00391 15.6445 8.98828 15.6445ZM16.2656 16.9688C15.7617 16.9688 15.3633 16.5703 15.3633 16.0781V8.75391L14.25 9.64453C14.1328 9.73828 14.0156 9.79688 13.8281 9.79688C13.4531 9.79688 13.1953 9.52734 13.1953 9.15234C13.1953 8.83594 13.3711 8.60156 13.582 8.4375L14.918 7.40625C15.1875 7.19531 15.6094 6.91406 16.1133 6.91406C16.7461 6.91406 17.1328 7.27734 17.1328 7.89844V16.0781C17.1328 16.5703 16.7344 16.9688 16.2656 16.9688Z" fill="black" fill-opacity="0.85"/>
</svg>
