<svg width="24" height="24" viewBox="0 0 24 24" fill="none" xmlns="http://www.w3.org/2000/svg">
<path d="M11.9531 23.9062C18.4922 23.9062 23.9062 18.4805 23.9062 11.9531C23.9062 5.41406 18.4805 0 11.9414 0C5.41406 0 0 5.41406 0 11.9531C0 18.4805 5.42578 23.9062 11.9531 23.9062ZM11.9531 21.9141C6.42188 21.9141 2.00391 17.4844 2.00391 11.9531C2.00391 6.42188 6.41016 1.99219 11.9414 1.99219C17.4727 1.99219 21.9141 6.42188 21.9141 11.9531C21.9141 17.4844 17.4844 21.9141 11.9531 21.9141Z" fill="#007AFF"/>
<path d="M9.05859 16.9336C11.3906 16.9336 12.0938 14.3086 12.0938 11.9531C12.0938 9.59766 11.3906 6.97266 9.05859 6.97266C6.72656 6.97266 6.02344 9.59766 6.02344 11.9531C6.02344 14.3086 6.72656 16.9336 9.05859 16.9336ZM9.05859 15.5391C8.09766 15.5391 7.73438 13.9805 7.73438 11.9531C7.73438 9.91406 8.09766 8.35547 9.05859 8.35547C10.0195 8.35547 10.3828 9.91406 10.3828 11.9531C10.3828 13.9805 10.0195 15.5391 9.05859 15.5391ZM16.1016 16.8164C16.5586 16.8164 16.9453 16.4297 16.9453 15.9609V8.01562C16.9453 7.41797 16.5703 7.06641 15.9609 7.06641C15.4688 7.06641 15.0703 7.33594 14.8008 7.54688L13.5117 8.54297C13.3008 8.70703 13.1367 8.92969 13.1367 9.23438C13.1367 9.59766 13.3828 9.85547 13.7461 9.85547C13.9219 9.85547 14.0391 9.79688 14.1562 9.71484L15.2344 8.84766V15.9609C15.2344 16.4297 15.6211 16.8164 16.1016 16.8164Z" fill="black" fill-opacity="0.85"/>
</svg>
