<svg width="22" height="22" viewBox="0 0 22 22" fill="none" xmlns="http://www.w3.org/2000/svg">
<path d="M3.67969 21.5977H17.8945C20.3555 21.5977 21.5742 20.3789 21.5742 17.9648V3.65625C21.5742 1.24219 20.3555 0.0234375 17.8945 0.0234375H3.67969C1.23047 0.0234375 0 1.23047 0 3.65625V17.9648C0 20.3906 1.23047 21.5977 3.67969 21.5977Z" fill="#FFCC00"/>
<path d="M7.82812 15.9258C5.42578 15.9258 4.69922 13.2305 4.69922 10.793C4.69922 8.35547 5.42578 5.66016 7.82812 5.66016C10.2422 5.66016 10.9688 8.35547 10.9688 10.793C10.9688 13.2305 10.2422 15.9258 7.82812 15.9258ZM7.82812 14.4844C8.8125 14.4844 9.1875 12.8906 9.1875 10.793C9.1875 8.68359 8.8125 7.10156 7.82812 7.10156C6.84375 7.10156 6.46875 8.68359 6.46875 10.793C6.46875 12.8906 6.84375 14.4844 7.82812 14.4844ZM15.1055 15.8086C14.6016 15.8086 14.2031 15.4102 14.2031 14.918V7.59375L13.0898 8.48438C12.9727 8.57812 12.8555 8.63672 12.668 8.63672C12.293 8.63672 12.0352 8.36719 12.0352 7.99219C12.0352 7.67578 12.2109 7.44141 12.4219 7.27734L13.7578 6.24609C14.0273 6.03516 14.4492 5.75391 14.9531 5.75391C15.5859 5.75391 15.9727 6.11719 15.9727 6.73828V14.918C15.9727 15.4102 15.5742 15.8086 15.1055 15.8086Z" fill="black" fill-opacity="0.85"/>
</svg>
