<svg width="24" height="24" viewBox="0 0 24 24" fill="none" xmlns="http://www.w3.org/2000/svg">
<path d="M11.9531 23.9062C18.4922 23.9062 23.9062 18.4805 23.9062 11.9531C23.9062 5.41406 18.4805 0 11.9414 0C5.41406 0 0 5.41406 0 11.9531C0 18.4805 5.42578 23.9062 11.9531 23.9062Z" fill="#FFCC00"/>
<path d="M8.09766 17.0859C5.67188 17.0859 4.95703 14.3906 4.95703 11.9531C4.95703 9.51562 5.67188 6.82031 8.09766 6.82031C10.5 6.82031 11.2148 9.51562 11.2148 11.9531C11.2148 14.3906 10.5 17.0859 8.09766 17.0859ZM8.09766 15.6445C9.07031 15.6445 9.44531 14.0508 9.44531 11.9531C9.44531 9.84375 9.07031 8.26172 8.09766 8.26172C7.11328 8.26172 6.73828 9.84375 6.73828 11.9531C6.73828 14.0508 7.11328 15.6445 8.09766 15.6445ZM17.0625 16.9922C16.6758 16.9922 16.2305 16.7695 16.2305 16.1367V14.9297H13.5234C12.9375 14.9297 12.5273 14.5312 12.5273 13.9453C12.5273 13.5703 12.6094 13.2539 12.7969 12.7852L14.9531 8.09766C15.293 7.34766 15.6914 6.91406 16.5586 6.91406C17.3438 6.91406 17.8945 7.38281 17.8945 8.22656V13.5234H18.3281C18.8086 13.5234 19.0195 13.8281 19.0195 14.2148C19.0195 14.625 18.7852 14.9297 18.3281 14.9297H17.8945V16.1367C17.8945 16.7109 17.5195 16.9922 17.0625 16.9922ZM16.2656 13.5586V8.4375H16.2188L14.0273 13.4766V13.5586H16.2656Z" fill="black" fill-opacity="0.85"/>
</svg>
