<svg width="24" height="24" viewBox="0 0 24 24" fill="none" xmlns="http://www.w3.org/2000/svg">
<path d="M11.9531 23.9062C18.4922 23.9062 23.9062 18.4805 23.9062 11.9531C23.9062 5.41406 18.4805 0 11.9414 0C5.41406 0 0 5.41406 0 11.9531C0 18.4805 5.42578 23.9062 11.9531 23.9062Z" fill="#FFCC00"/>
<path d="M8.16797 17.0859C5.76562 17.0859 5.03906 14.3906 5.03906 11.9531C5.03906 9.51562 5.76562 6.82031 8.16797 6.82031C10.582 6.82031 11.3086 9.51562 11.3086 11.9531C11.3086 14.3906 10.582 17.0859 8.16797 17.0859ZM8.16797 15.6445C9.15234 15.6445 9.52734 14.0508 9.52734 11.9531C9.52734 9.84375 9.15234 8.26172 8.16797 8.26172C7.18359 8.26172 6.80859 9.84375 6.80859 11.9531C6.80859 14.0508 7.18359 15.6445 8.16797 15.6445ZM15.6445 17.0859C14.5547 17.0859 13.4883 16.4531 13.0547 15.4688C12.9492 15.2344 12.8789 14.9648 12.8789 14.6836C12.8789 14.2383 13.1719 13.957 13.6055 13.957C13.9336 13.957 14.2031 14.1445 14.3438 14.5312C14.5664 15.1875 14.9531 15.668 15.6211 15.668C16.5117 15.668 16.8633 14.6484 16.8633 13.6406C16.8633 12.75 16.5234 11.6836 15.6445 11.6836C15.1523 11.6836 14.8477 11.9648 14.5781 12.3633C14.3203 12.6914 14.1328 12.8203 13.8047 12.8203C13.2422 12.8203 13.0078 12.4102 13.0078 11.9531C13.0078 11.7891 13.0078 11.6016 13.0195 11.4141L13.2305 8.10938C13.2656 7.48828 13.5586 7.06641 14.1797 7.06641H17.5078C17.9062 7.06641 18.1875 7.38281 18.1875 7.78125C18.1875 8.21484 17.918 8.50781 17.5078 8.50781H14.6719L14.4844 11.4375H14.5312C14.8359 10.7344 15.4922 10.4062 16.207 10.4062C17.7656 10.4062 18.5625 11.9297 18.5625 13.5938C18.5625 15.5039 17.5312 17.0859 15.6445 17.0859Z" fill="black" fill-opacity="0.85"/>
</svg>
