<svg width="24" height="24" viewBox="0 0 24 24" fill="none" xmlns="http://www.w3.org/2000/svg">
<path d="M11.9531 23.9062C18.4922 23.9062 23.9062 18.4805 23.9062 11.9531C23.9062 5.41406 18.4805 0 11.9414 0C5.41406 0 0 5.41406 0 11.9531C0 18.4805 5.42578 23.9062 11.9531 23.9062ZM11.9531 21.9141C6.42188 21.9141 2.00391 17.4844 2.00391 11.9531C2.00391 6.42188 6.41016 1.99219 11.9414 1.99219C17.4727 1.99219 21.9141 6.42188 21.9141 11.9531C21.9141 17.4844 17.4844 21.9141 11.9531 21.9141Z" fill="#007AFF"/>
<path d="M8.08594 16.9336C10.418 16.9336 11.1211 14.3086 11.1211 11.9531C11.1211 9.59766 10.418 6.97266 8.08594 6.97266C5.74219 6.97266 5.05078 9.59766 5.05078 11.9531C5.05078 14.3086 5.74219 16.9336 8.08594 16.9336ZM8.08594 15.5391C7.125 15.5391 6.76172 13.9805 6.76172 11.9531C6.76172 9.91406 7.125 8.35547 8.08594 8.35547C9.04688 8.35547 9.41016 9.91406 9.41016 11.9531C9.41016 13.9805 9.04688 15.5391 8.08594 15.5391ZM15.5625 16.9336C17.3555 16.9336 18.3867 15.4336 18.3867 13.5938C18.3867 12.0117 17.6133 10.5117 16.0664 10.5117C15.1172 10.5117 14.3906 11.1445 14.1328 12.1523H14.0859C14.0859 12.1055 14.0859 12.0586 14.0859 12.0234C14.0859 10.7227 14.2383 8.36719 15.5508 8.36719C16.0781 8.36719 16.4297 8.74219 16.6406 9.23438C16.8047 9.59766 17.0273 9.76172 17.4023 9.76172C17.8711 9.76172 18.082 9.44531 18.082 9.05859C18.082 8.92969 18.0586 8.78906 18.0234 8.63672C17.7773 7.62891 16.7578 6.99609 15.5859 6.99609C13.1836 6.99609 12.4805 9.69141 12.4805 12.0703C12.4805 14.2852 13.1953 16.9336 15.5625 16.9336ZM15.5391 15.5625C14.6602 15.5625 14.3086 14.4609 14.3086 13.6172C14.3086 12.7617 14.6953 11.7891 15.5391 11.7891C16.4062 11.7891 16.7695 12.7969 16.7461 13.6641C16.7461 14.5195 16.3594 15.5625 15.5391 15.5625Z" fill="black" fill-opacity="0.85"/>
</svg>
