<svg width="24" height="24" viewBox="0 0 24 24" fill="none" xmlns="http://www.w3.org/2000/svg">
<path d="M11.9531 23.9062C18.4922 23.9062 23.9062 18.4805 23.9062 11.9531C23.9062 5.41406 18.4805 0 11.9414 0C5.41406 0 0 5.41406 0 11.9531C0 18.4805 5.42578 23.9062 11.9531 23.9062Z" fill="#FFCC00"/>
<path d="M7.98047 17.0859C5.56641 17.0859 4.85156 14.3906 4.85156 11.9531C4.85156 9.51562 5.56641 6.82031 7.98047 6.82031C10.3828 6.82031 11.1094 9.51562 11.1094 11.9531C11.1094 14.3906 10.3828 17.0859 7.98047 17.0859ZM7.98047 15.6445C8.96484 15.6445 9.33984 14.0508 9.33984 11.9531C9.33984 9.84375 8.96484 8.26172 7.98047 8.26172C6.99609 8.26172 6.62109 9.84375 6.62109 11.9531C6.62109 14.0508 6.99609 15.6445 7.98047 15.6445ZM15.7031 17.0859C13.2539 17.0859 12.5156 14.3555 12.5156 12.0703C12.5156 9.62109 13.2422 6.84375 15.7266 6.84375C16.9336 6.84375 17.9883 7.48828 18.2344 8.53125C18.2812 8.68359 18.3047 8.83594 18.3047 8.96484C18.3047 9.36328 18.082 9.69141 17.5898 9.69141C17.2031 9.69141 16.9805 9.52734 16.8047 9.15234C16.5938 8.64844 16.2305 8.26172 15.6914 8.26172C14.332 8.26172 14.1797 10.6875 14.1797 12.0234C14.1797 12.0586 14.1797 12.1055 14.1797 12.1523H14.2266C14.4961 11.1211 15.2461 10.4648 16.2188 10.4648C17.8125 10.4648 18.6094 12.0117 18.6094 13.6406C18.6094 15.5391 17.5547 17.0859 15.7031 17.0859ZM15.6797 15.668C16.5117 15.668 16.9102 14.6016 16.9102 13.7227C16.9336 12.832 16.5703 11.7891 15.6797 11.7891C14.8125 11.7891 14.4141 12.7852 14.4141 13.6758C14.4141 14.5312 14.7656 15.668 15.6797 15.668Z" fill="black" fill-opacity="0.85"/>
</svg>
