<svg width="22" height="22" viewBox="0 0 22 22" fill="none" xmlns="http://www.w3.org/2000/svg">
<path d="M3.67969 21.5977H17.8945C20.3555 21.5977 21.5742 20.3789 21.5742 17.9648V3.65625C21.5742 1.24219 20.3555 0.0234375 17.8945 0.0234375H3.67969C1.23047 0.0234375 0 1.23047 0 3.65625V17.9648C0 20.3906 1.23047 21.5977 3.67969 21.5977Z" fill="#FFCC00"/>
<path d="M6.82031 15.9258C4.41797 15.9258 3.69141 13.2305 3.69141 10.793C3.69141 8.35547 4.41797 5.66016 6.82031 5.66016C9.22266 5.66016 9.94922 8.35547 9.94922 10.793C9.94922 13.2305 9.22266 15.9258 6.82031 15.9258ZM6.82031 14.4844C7.80469 14.4844 8.17969 12.8906 8.17969 10.793C8.17969 8.68359 7.80469 7.10156 6.82031 7.10156C5.83594 7.10156 5.46094 8.68359 5.46094 10.793C5.46094 12.8906 5.83594 14.4844 6.82031 14.4844ZM14.5547 15.9258C12.0938 15.9258 11.3555 13.1953 11.3555 10.9102C11.3555 8.46094 12.082 5.68359 14.5664 5.68359C15.7734 5.68359 16.8281 6.32812 17.0742 7.37109C17.1211 7.52344 17.1445 7.67578 17.1445 7.80469C17.1445 8.20312 16.9336 8.53125 16.4297 8.53125C16.043 8.53125 15.8203 8.36719 15.6445 7.99219C15.4453 7.48828 15.0703 7.10156 14.5312 7.10156C13.1836 7.10156 13.0195 9.52734 13.0195 10.8633C13.0195 10.8984 13.0195 10.9453 13.0195 10.9922H13.0664C13.3477 9.96094 14.0859 9.30469 15.0586 9.30469C16.6641 9.30469 17.4492 10.8516 17.4492 12.4805C17.4492 14.3789 16.3945 15.9258 14.5547 15.9258ZM14.5312 14.5078C15.3516 14.5078 15.75 13.4414 15.75 12.5625C15.7734 11.6719 15.4102 10.6289 14.5195 10.6289C13.6523 10.6289 13.2539 11.625 13.2539 12.5156C13.2539 13.3711 13.6055 14.5078 14.5312 14.5078Z" fill="black" fill-opacity="0.85"/>
</svg>
