<svg width="22" height="22" viewBox="0 0 22 22" fill="none" xmlns="http://www.w3.org/2000/svg">
<path d="M3.67969 21.5977H17.8945C20.3555 21.5977 21.5742 20.3789 21.5742 17.9648V3.65625C21.5742 1.24219 20.3555 0.0234375 17.8945 0.0234375H3.67969C1.23047 0.0234375 0 1.23047 0 3.65625V17.9648C0 20.3906 1.23047 21.5977 3.67969 21.5977Z" fill="#FFCC00"/>
<path d="M7.42969 15.9258C5.02734 15.9258 4.30078 13.2305 4.30078 10.793C4.30078 8.35547 5.02734 5.66016 7.42969 5.66016C9.84375 5.66016 10.5703 8.35547 10.5703 10.793C10.5703 13.2305 9.84375 15.9258 7.42969 15.9258ZM7.42969 14.4844C8.41406 14.4844 8.78906 12.8906 8.78906 10.793C8.78906 8.68359 8.41406 7.10156 7.42969 7.10156C6.44531 7.10156 6.07031 8.68359 6.07031 10.793C6.07031 12.8906 6.44531 14.4844 7.42969 14.4844ZM13.3242 15.8438C12.7383 15.8438 12.5273 15.4453 12.5273 15.0938C12.5273 14.8008 12.5625 14.6484 12.668 14.3789L15.3516 7.45312V7.34766H12.2461C11.8242 7.34766 11.543 7.04297 11.543 6.62109C11.543 6.21094 11.8242 5.90625 12.2461 5.90625H16.1484C16.6875 5.90625 17.1094 6.28125 17.1094 6.84375C17.1094 7.19531 17.0273 7.48828 16.8867 7.86328L14.1328 15.2227C13.9688 15.668 13.7695 15.8438 13.3242 15.8438Z" fill="black" fill-opacity="0.85"/>
</svg>
