<svg width="24" height="24" viewBox="0 0 24 24" fill="none" xmlns="http://www.w3.org/2000/svg">
<path d="M11.9531 23.9062C18.4922 23.9062 23.9062 18.4805 23.9062 11.9531C23.9062 5.41406 18.4805 0 11.9414 0C5.41406 0 0 5.41406 0 11.9531C0 18.4805 5.42578 23.9062 11.9531 23.9062Z" fill="#FFCC00"/>
<path d="M8.12109 17.0859C5.70703 17.0859 4.98047 14.3906 4.98047 11.9531C4.98047 9.51562 5.70703 6.82031 8.12109 6.82031C10.5234 6.82031 11.25 9.51562 11.25 11.9531C11.25 14.3906 10.5234 17.0859 8.12109 17.0859ZM8.12109 15.6445C9.10547 15.6445 9.48047 14.0508 9.48047 11.9531C9.48047 9.84375 9.10547 8.26172 8.12109 8.26172C7.13672 8.26172 6.76172 9.84375 6.76172 11.9531C6.76172 14.0508 7.13672 15.6445 8.12109 15.6445ZM15.7617 17.0508C14.0039 17.0508 12.6445 15.9961 12.6445 14.2031C12.6445 12.8906 13.4297 11.9414 14.4727 11.707V11.6719C13.6875 11.4375 12.9141 10.7109 12.9141 9.48047C12.9141 7.78125 14.2734 6.86719 15.7617 6.86719C17.4844 6.86719 18.6445 7.92188 18.6445 9.49219C18.6445 10.6406 17.918 11.4258 17.1094 11.6719V11.707C18.0703 11.9297 18.9141 12.8789 18.9141 14.2031C18.9141 15.8555 17.6836 17.0508 15.7617 17.0508ZM15.7734 11.1211C16.5352 11.1211 16.9336 10.4531 16.9336 9.65625C16.9336 8.88281 16.5586 8.16797 15.7734 8.16797C15.0234 8.16797 14.6133 8.88281 14.6133 9.65625C14.6133 10.3711 15 11.1211 15.7734 11.1211ZM15.7734 15.7383C16.6523 15.7383 17.0859 14.9648 17.0859 14.0625C17.0859 13.1484 16.6289 12.4336 15.7734 12.4336C14.8945 12.4336 14.4609 13.1953 14.4609 14.0625C14.4609 14.9648 14.8945 15.7383 15.7734 15.7383Z" fill="black" fill-opacity="0.85"/>
</svg>
