<svg width="22" height="22" viewBox="0 0 22 22" fill="none" xmlns="http://www.w3.org/2000/svg">
<path d="M3.67969 21.5977H17.8945C20.3555 21.5977 21.5742 20.3789 21.5742 17.9648V3.65625C21.5742 1.24219 20.3555 0.0234375 17.8945 0.0234375H3.67969C1.23047 0.0234375 0 1.23047 0 3.65625V17.9648C0 20.3906 1.23047 21.5977 3.67969 21.5977Z" fill="#FFCC00"/>
<path d="M7.03125 15.9258C4.62891 15.9258 3.90234 13.2305 3.90234 10.793C3.90234 8.35547 4.62891 5.66016 7.03125 5.66016C9.44531 5.66016 10.1719 8.35547 10.1719 10.793C10.1719 13.2305 9.44531 15.9258 7.03125 15.9258ZM7.03125 14.4844C8.01562 14.4844 8.39062 12.8906 8.39062 10.793C8.39062 8.68359 8.01562 7.10156 7.03125 7.10156C6.04688 7.10156 5.67188 8.68359 5.67188 10.793C5.67188 12.8906 6.04688 14.4844 7.03125 14.4844ZM13.8984 12.3047C12.3047 12.3047 11.5195 10.7578 11.5195 9.12891C11.5195 7.23047 12.5859 5.68359 14.4258 5.68359C16.875 5.68359 17.6016 8.41406 17.6016 10.6992C17.6016 13.1719 16.875 15.9141 14.4023 15.9141C13.1953 15.9141 12.1406 15.2812 11.8828 14.2266C11.8477 14.0859 11.8125 13.9336 11.8125 13.793C11.8125 13.3945 12.0234 13.0547 12.5391 13.0547C12.9023 13.0547 13.1367 13.207 13.3125 13.6055C13.5352 14.1211 13.8984 14.4961 14.4375 14.4961C15.7852 14.4961 15.9492 12.082 15.9492 10.7461C15.9492 10.7109 15.9492 10.6641 15.9492 10.6172H15.9023C15.6328 11.6484 14.8945 12.3047 13.8984 12.3047ZM14.4492 10.9688C15.3164 10.9688 15.7148 9.98438 15.7148 9.04688C15.7148 8.14453 15.3516 7.10156 14.4492 7.10156C13.6055 7.10156 13.1953 8.14453 13.1953 9.04688C13.1953 9.94922 13.5586 10.9688 14.4492 10.9688Z" fill="black" fill-opacity="0.85"/>
</svg>
