<svg width="24" height="24" viewBox="0 0 24 24" fill="none" xmlns="http://www.w3.org/2000/svg">
<path d="M11.9531 23.9062C18.4922 23.9062 23.9062 18.4805 23.9062 11.9531C23.9062 5.41406 18.4805 0 11.9414 0C5.41406 0 0 5.41406 0 11.9531C0 18.4805 5.42578 23.9062 11.9531 23.9062Z" fill="#FFCC00"/>
<path d="M12.6094 17.707C12 17.707 11.6484 17.2969 11.6484 16.6172V8.30859H11.5664L10.0078 9.33984C9.72656 9.52734 9.59766 9.55078 9.41016 9.55078C9.02344 9.55078 8.71875 9.19922 8.71875 8.82422C8.71875 8.51953 8.83594 8.34375 9.09375 8.14453L11.2734 6.66797C11.7891 6.31641 12.1055 6.19922 12.5625 6.19922C13.207 6.19922 13.582 6.58594 13.582 7.28906V16.6172C13.582 17.2969 13.2305 17.707 12.6094 17.707Z" fill="black" fill-opacity="0.85"/>
</svg>
