<svg width="24" height="24" viewBox="0 0 24 24" fill="none" xmlns="http://www.w3.org/2000/svg">
<path d="M11.9531 23.9062C18.4922 23.9062 23.9062 18.4805 23.9062 11.9531C23.9062 5.41406 18.4805 0 11.9414 0C5.41406 0 0 5.41406 0 11.9531C0 18.4805 5.42578 23.9062 11.9531 23.9062ZM11.9531 21.9141C6.42188 21.9141 2.00391 17.4844 2.00391 11.9531C2.00391 6.42188 6.41016 1.99219 11.9414 1.99219C17.4727 1.99219 21.9141 6.42188 21.9141 11.9531C21.9141 17.4844 17.4844 21.9141 11.9531 21.9141Z" fill="#007AFF"/>
<path d="M12.5508 17.5312C13.1484 17.5312 13.4883 17.1328 13.4883 16.4766V7.42969C13.4883 6.75 13.125 6.375 12.5039 6.375C12.0703 6.375 11.7656 6.49219 11.2617 6.83203L9.15234 8.26172C8.89453 8.4375 8.78906 8.625 8.78906 8.91797C8.78906 9.28125 9.08203 9.62109 9.45703 9.62109C9.63281 9.62109 9.76172 9.58594 10.0312 9.41016L11.543 8.41406H11.625V16.4766C11.625 17.1328 11.9648 17.5312 12.5508 17.5312Z" fill="black" fill-opacity="0.85"/>
</svg>
