<svg width="22" height="22" viewBox="0 0 22 22" fill="none" xmlns="http://www.w3.org/2000/svg">
<path d="M3.67969 21.5977H17.8945C20.3555 21.5977 21.5742 20.3789 21.5742 17.9648V3.65625C21.5742 1.24219 20.3555 0.0234375 17.8945 0.0234375H3.67969C1.23047 0.0234375 0 1.23047 0 3.65625V17.9648C0 20.3906 1.23047 21.5977 3.67969 21.5977ZM3.70312 19.7109C2.53125 19.7109 1.88672 19.0898 1.88672 17.8711V3.75C1.88672 2.53125 2.53125 1.91016 3.70312 1.91016H17.8711C19.0312 1.91016 19.6875 2.53125 19.6875 3.75V17.8711C19.6875 19.0898 19.0312 19.7109 17.8711 19.7109H3.70312Z" fill="#007AFF"/>
<path d="M11.4023 16.3711C12 16.3711 12.3516 15.9727 12.3516 15.3164V6.26953C12.3516 5.58984 11.9883 5.21484 11.3555 5.21484C10.9219 5.21484 10.6172 5.33203 10.1133 5.67188L8.00391 7.10156C7.74609 7.27734 7.64062 7.46484 7.64062 7.75781C7.64062 8.12109 7.93359 8.46094 8.30859 8.46094C8.48438 8.46094 8.61328 8.42578 8.88281 8.25L10.3945 7.25391H10.4766V15.3164C10.4766 15.9727 10.8164 16.3711 11.4023 16.3711Z" fill="black" fill-opacity="0.85"/>
</svg>
