<svg width="22" height="22" viewBox="0 0 22 22" fill="none" xmlns="http://www.w3.org/2000/svg">
<path d="M3.67969 21.5977H17.8945C20.3555 21.5977 21.5742 20.3789 21.5742 17.9648V3.65625C21.5742 1.24219 20.3555 0.0234375 17.8945 0.0234375H3.67969C1.23047 0.0234375 0 1.23047 0 3.65625V17.9648C0 20.3906 1.23047 21.5977 3.67969 21.5977Z" fill="#FFCC00"/>
<path d="M11.4492 16.5469C10.8398 16.5469 10.4883 16.1367 10.4883 15.457V7.14844H10.4062L8.84766 8.17969C8.56641 8.36719 8.4375 8.39062 8.25 8.39062C7.86328 8.39062 7.55859 8.03906 7.55859 7.66406C7.55859 7.35938 7.67578 7.18359 7.93359 6.98438L10.1133 5.50781C10.6289 5.15625 10.9453 5.03906 11.4023 5.03906C12.0586 5.03906 12.4336 5.42578 12.4336 6.12891V15.457C12.4336 16.1367 12.0703 16.5469 11.4492 16.5469Z" fill="black" fill-opacity="0.85"/>
</svg>
