<svg width="22" height="22" viewBox="0 0 22 22" fill="none" xmlns="http://www.w3.org/2000/svg">
<path d="M3.67969 21.5977H17.8945C20.3555 21.5977 21.5742 20.3789 21.5742 17.9648V3.65625C21.5742 1.24219 20.3555 0.0234375 17.8945 0.0234375H3.67969C1.23047 0.0234375 0 1.23047 0 3.65625V17.9648C0 20.3906 1.23047 21.5977 3.67969 21.5977Z" fill="#FFCC00"/>
<path d="M7.60547 15.8086C7.11328 15.8086 6.71484 15.4102 6.71484 14.918V7.59375L5.61328 8.48438C5.48438 8.57812 5.36719 8.63672 5.16797 8.63672C4.80469 8.63672 4.55859 8.36719 4.55859 7.99219C4.55859 7.67578 4.72266 7.44141 4.93359 7.27734L6.25781 6.24609C6.55078 6.03516 6.96094 5.75391 7.47656 5.75391C8.09766 5.75391 8.49609 6.11719 8.49609 6.73828V14.918C8.49609 15.4102 8.08594 15.8086 7.60547 15.8086ZM13.5352 15.9258C11.1328 15.9258 10.4062 13.2305 10.4062 10.793C10.4062 8.35547 11.1328 5.66016 13.5352 5.66016C15.9375 5.66016 16.6641 8.35547 16.6641 10.793C16.6641 13.2305 15.9375 15.9258 13.5352 15.9258ZM13.5352 14.4844C14.5195 14.4844 14.8945 12.8906 14.8945 10.793C14.8945 8.68359 14.5195 7.10156 13.5352 7.10156C12.5508 7.10156 12.1758 8.68359 12.1758 10.793C12.1758 12.8906 12.5508 14.4844 13.5352 14.4844Z" fill="black" fill-opacity="0.85"/>
</svg>
