<svg width="24" height="24" viewBox="0 0 24 24" fill="none" xmlns="http://www.w3.org/2000/svg">
<path d="M11.9531 23.9062C18.4922 23.9062 23.9062 18.4805 23.9062 11.9531C23.9062 5.41406 18.4805 0 11.9414 0C5.41406 0 0 5.41406 0 11.9531C0 18.4805 5.42578 23.9062 11.9531 23.9062ZM11.9531 21.9141C6.42188 21.9141 2.00391 17.4844 2.00391 11.9531C2.00391 6.42188 6.41016 1.99219 11.9414 1.99219C17.4727 1.99219 21.9141 6.42188 21.9141 11.9531C21.9141 17.4844 17.4844 21.9141 11.9531 21.9141Z" fill="#007AFF"/>
<path d="M8.88281 16.8164C9.35156 16.8164 9.73828 16.4297 9.73828 15.9609V8.01562C9.73828 7.41797 9.36328 7.06641 8.75391 7.06641C8.26172 7.06641 7.86328 7.33594 7.58203 7.54688L6.29297 8.54297C6.09375 8.70703 5.92969 8.92969 5.92969 9.23438C5.92969 9.59766 6.17578 9.85547 6.52734 9.85547C6.71484 9.85547 6.83203 9.79688 6.94922 9.71484L8.02734 8.84766V15.9609C8.02734 16.4297 8.41406 16.8164 8.88281 16.8164ZM12.3047 16.6875H16.3711C16.793 16.6875 17.0391 16.418 17.0391 16.0078C17.0391 15.5625 16.7812 15.3164 16.3711 15.3164H13.5938V15.2227L15.3047 13.0547C16.4766 11.6016 16.8633 10.7344 16.8633 9.70312C16.8633 8.12109 15.7852 6.97266 14.168 6.97266C12.668 6.97266 11.5312 8.21484 11.5312 9.43359C11.5312 9.86719 11.7891 10.1719 12.2344 10.1719C12.6211 10.1719 12.8555 9.99609 12.9844 9.60938C13.1953 8.82422 13.4883 8.33203 14.168 8.33203C14.8711 8.33203 15.2695 8.95312 15.2695 9.78516C15.2695 10.7227 14.6133 11.6719 13.9922 12.4688L11.9531 15.0703C11.7422 15.3516 11.5195 15.6445 11.5195 16.0078C11.5195 16.4062 11.7773 16.6875 12.3047 16.6875Z" fill="black" fill-opacity="0.85"/>
</svg>
