<svg width="24" height="24" viewBox="0 0 24 24" fill="none" xmlns="http://www.w3.org/2000/svg">
<path d="M11.9531 23.9062C18.4922 23.9062 23.9062 18.4805 23.9062 11.9531C23.9062 5.41406 18.4805 0 11.9414 0C5.41406 0 0 5.41406 0 11.9531C0 18.4805 5.42578 23.9062 11.9531 23.9062Z" fill="#FFCC00"/>
<path d="M8.8125 16.9688C8.32031 16.9688 7.92188 16.5703 7.92188 16.0898V8.75391L6.82031 9.65625C6.69141 9.73828 6.57422 9.79688 6.375 9.79688C6.01172 9.79688 5.75391 9.52734 5.75391 9.15234C5.75391 8.83594 5.92969 8.60156 6.14062 8.4375L7.46484 7.41797C7.75781 7.19531 8.16797 6.91406 8.67188 6.91406C9.30469 6.91406 9.69141 7.27734 9.69141 7.89844V16.0898C9.69141 16.5703 9.29297 16.9688 8.8125 16.9688ZM12.3516 16.8398C11.8008 16.8398 11.5312 16.5469 11.5312 16.1367C11.5312 15.7617 11.7656 15.457 11.9883 15.1641L14.0859 12.4922C14.7188 11.6719 15.3984 10.6875 15.3984 9.71484C15.3984 8.85938 14.9883 8.22656 14.2734 8.22656C13.5703 8.22656 13.2656 8.73047 13.0547 9.53906C12.9141 9.9375 12.6797 10.125 12.2695 10.125C11.8125 10.125 11.543 9.80859 11.543 9.35156C11.543 8.09766 12.7148 6.82031 14.2734 6.82031C15.9375 6.82031 17.0508 8.00391 17.0508 9.63281C17.0508 10.6992 16.6523 11.5898 15.4453 13.0898L13.6875 15.3164V15.4219H16.5469C16.9688 15.4219 17.2383 15.668 17.2383 16.1367C17.2383 16.5586 16.9805 16.8398 16.5469 16.8398H12.3516Z" fill="black" fill-opacity="0.85"/>
</svg>
