<svg width="22" height="22" viewBox="0 0 22 22" fill="none" xmlns="http://www.w3.org/2000/svg">
<path d="M3.67969 21.5977H17.8945C20.3555 21.5977 21.5742 20.3789 21.5742 17.9648V3.65625C21.5742 1.24219 20.3555 0.0234375 17.8945 0.0234375H3.67969C1.23047 0.0234375 0 1.23047 0 3.65625V17.9648C0 20.3906 1.23047 21.5977 3.67969 21.5977Z" fill="#FFCC00"/>
<path d="M7.65234 15.8086C7.16016 15.8086 6.76172 15.4102 6.76172 14.9297V7.59375L5.66016 8.49609C5.53125 8.57812 5.41406 8.63672 5.21484 8.63672C4.85156 8.63672 4.59375 8.36719 4.59375 7.99219C4.59375 7.67578 4.76953 7.44141 4.99219 7.27734L6.31641 6.25781C6.59766 6.03516 7.00781 5.75391 7.51172 5.75391C8.14453 5.75391 8.53125 6.11719 8.53125 6.73828V14.9297C8.53125 15.4102 8.13281 15.8086 7.65234 15.8086ZM11.2031 15.6797C10.6406 15.6797 10.3711 15.3867 10.3711 14.9766C10.3711 14.6016 10.6055 14.2969 10.8281 14.0039L12.9258 11.332C13.5586 10.5117 14.2383 9.52734 14.2383 8.55469C14.2383 7.69922 13.8281 7.06641 13.1133 7.06641C12.4102 7.06641 12.1172 7.57031 11.8945 8.37891C11.7656 8.77734 11.5195 8.96484 11.1094 8.96484C10.6523 8.96484 10.3828 8.64844 10.3828 8.19141C10.3828 6.9375 11.5664 5.66016 13.1133 5.66016C14.7773 5.66016 15.8906 6.84375 15.8906 8.47266C15.8906 9.53906 15.4922 10.4297 14.2852 11.9297L12.5273 14.1562V14.2617H15.3984C15.8086 14.2617 16.0781 14.5078 16.0781 14.9766C16.0781 15.3984 15.8203 15.6797 15.3984 15.6797H11.2031Z" fill="black" fill-opacity="0.85"/>
</svg>
