<svg width="28" height="22" viewBox="0 0 28 22" fill="none" xmlns="http://www.w3.org/2000/svg">
<path d="M3.67969 21.5742H23.9531C26.4141 21.5742 27.6328 20.3672 27.6328 17.9531V3.63281C27.6328 1.21875 26.4141 0 23.9531 0H3.67969C1.23047 0 0 1.21875 0 3.63281V17.9531C0 20.3672 1.23047 21.5742 3.67969 21.5742Z" fill="#FFCC00"/>
<path d="M6.69141 15.7266C6.1875 15.7266 5.88281 15.375 5.88281 14.8125V7.53516H5.77734L4.40625 8.4375C4.14844 8.61328 4.03125 8.63672 3.86719 8.63672C3.57422 8.63672 3.30469 8.35547 3.30469 8.02734C3.30469 7.79297 3.38672 7.61719 3.62109 7.46484L5.54297 6.15234C6 5.84766 6.24609 5.74219 6.65625 5.74219C7.20703 5.74219 7.52344 6.07031 7.52344 6.66797V14.8125C7.52344 15.3867 7.21875 15.7266 6.69141 15.7266ZM10.1367 15.5742C9.66797 15.5742 9.36328 15.3047 9.36328 14.8711C9.36328 14.625 9.46875 14.4258 9.64453 14.2383L13.0312 10.6172C13.6406 9.96094 14.2734 9.31641 14.2734 8.56641C14.2734 7.69922 13.6055 7.11328 12.6211 7.11328C11.6133 7.11328 11.0508 7.79297 10.793 8.4375C10.6055 8.74219 10.4062 8.97656 10.0195 8.97656C9.58594 8.97656 9.31641 8.69531 9.31641 8.28516C9.31641 8.13281 9.33984 8.02734 9.38672 7.86328C9.72656 6.64453 11.0625 5.73047 12.5508 5.73047C14.5078 5.73047 15.7969 6.80859 15.7969 8.4375C15.7969 9.59766 15.1289 10.4414 14.1914 11.4492L11.6953 14.1211V14.168H15.5508C15.9727 14.168 16.2656 14.4492 16.2656 14.8594C16.2656 15.2695 15.9727 15.5742 15.5508 15.5742H10.1367ZM20.6016 15.7383C18.8906 15.7383 17.4609 14.8828 17.2031 13.6523C17.1797 13.5117 17.168 13.4414 17.168 13.2891C17.168 12.8672 17.4375 12.5625 17.8945 12.5625C18.2578 12.5625 18.4805 12.7383 18.6328 13.1016C18.9141 13.9219 19.6172 14.3789 20.625 14.3789C21.8438 14.3789 22.6523 13.7461 22.6523 12.8203C22.6523 11.8711 21.8555 11.25 20.6836 11.25H19.9453C19.5703 11.25 19.2891 10.9688 19.2891 10.582C19.2891 10.1836 19.5703 9.92578 19.9453 9.92578H20.6133C21.5977 9.92578 22.3359 9.29297 22.3359 8.4375C22.3359 7.60547 21.6797 7.08984 20.6602 7.08984C19.7344 7.08984 19.043 7.54688 18.8086 8.35547C18.6914 8.73047 18.457 8.90625 18.082 8.90625C17.6484 8.90625 17.3555 8.61328 17.3555 8.21484C17.3555 8.03906 17.3672 7.94531 17.3906 7.79297C17.6836 6.53906 18.9727 5.71875 20.6836 5.71875C22.5586 5.71875 23.8945 6.78516 23.8945 8.26172C23.8945 9.375 23.0859 10.3359 22.043 10.5V10.5234C23.3086 10.6641 24.2344 11.6367 24.2344 12.8789C24.2344 14.6016 22.7695 15.7383 20.6016 15.7383Z" fill="black" fill-opacity="0.85"/>
</svg>
