<svg width="24" height="24" viewBox="0 0 24 24" fill="none" xmlns="http://www.w3.org/2000/svg">
<path d="M11.9531 23.9062C18.4922 23.9062 23.9062 18.4805 23.9062 11.9531C23.9062 5.41406 18.4805 0 11.9414 0C5.41406 0 0 5.41406 0 11.9531C0 18.4805 5.42578 23.9062 11.9531 23.9062Z" fill="#FFCC00"/>
<path d="M8.70703 16.9688C8.21484 16.9688 7.81641 16.5703 7.81641 16.0781V8.75391L6.70312 9.64453C6.58594 9.73828 6.45703 9.79688 6.28125 9.79688C5.90625 9.79688 5.64844 9.52734 5.64844 9.15234C5.64844 8.83594 5.8125 8.60156 6.03516 8.4375L7.35938 7.40625C7.64062 7.19531 8.05078 6.91406 8.56641 6.91406C9.19922 6.91406 9.58594 7.27734 9.58594 7.89844V16.0781C9.58594 16.5703 9.1875 16.9688 8.70703 16.9688ZM14.4727 17.0508C13.1602 17.0508 11.9414 16.4297 11.5898 15.3047C11.5312 15.1055 11.4961 14.8945 11.4961 14.6719C11.4961 14.2031 11.8125 13.9102 12.2812 13.9102C12.6797 13.9102 12.9375 14.1094 13.0547 14.5078C13.207 15.0586 13.5938 15.6445 14.4727 15.6445C15.375 15.6445 15.8086 14.9297 15.8086 14.0977C15.8086 13.0547 15.2461 12.4922 14.2148 12.4922H13.9219C13.5117 12.4922 13.2539 12.2578 13.2539 11.8594C13.2539 11.4609 13.5 11.2031 13.9219 11.2031H14.2031C15.1055 11.2031 15.5977 10.5586 15.5977 9.67969C15.5977 8.88281 15.2227 8.27344 14.4258 8.27344C13.7461 8.27344 13.3594 8.71875 13.1719 9.43359C13.043 9.85547 12.8203 10.0078 12.3984 10.0078C11.918 10.0078 11.6484 9.69141 11.6484 9.29297C11.6484 9.08203 11.6719 8.87109 11.7422 8.63672C12.082 7.57031 13.1719 6.86719 14.4258 6.86719C15.9961 6.86719 17.25 7.81641 17.25 9.49219C17.25 10.5 16.7227 11.4844 15.6211 11.7773V11.8125C16.6406 11.918 17.543 12.6562 17.543 14.1562C17.543 15.9609 16.1953 17.0508 14.4727 17.0508Z" fill="black" fill-opacity="0.85"/>
</svg>
