<svg width="22" height="22" viewBox="0 0 22 22" fill="none" xmlns="http://www.w3.org/2000/svg">
<path d="M3.67969 21.5977H17.8945C20.3555 21.5977 21.5742 20.3789 21.5742 17.9648V3.65625C21.5742 1.24219 20.3555 0.0234375 17.8945 0.0234375H3.67969C1.23047 0.0234375 0 1.23047 0 3.65625V17.9648C0 20.3906 1.23047 21.5977 3.67969 21.5977Z" fill="#FFCC00"/>
<path d="M7.54688 15.8086C7.05469 15.8086 6.65625 15.4102 6.65625 14.918V7.59375L5.54297 8.48438C5.42578 8.57812 5.29688 8.63672 5.12109 8.63672C4.75781 8.63672 4.5 8.36719 4.5 7.99219C4.5 7.67578 4.65234 7.44141 4.875 7.27734L6.19922 6.24609C6.49219 6.03516 6.90234 5.75391 7.40625 5.75391C8.03906 5.75391 8.42578 6.11719 8.42578 6.73828V14.918C8.42578 15.4102 8.02734 15.8086 7.54688 15.8086ZM13.3125 15.8906C12.0117 15.8906 10.7812 15.2695 10.4297 14.1445C10.3711 13.9453 10.3359 13.7344 10.3359 13.5117C10.3359 13.043 10.6523 12.75 11.1328 12.75C11.5195 12.75 11.7773 12.9492 11.8945 13.3477C12.0469 13.8984 12.4453 14.4844 13.3125 14.4844C14.2148 14.4844 14.6484 13.7695 14.6484 12.9375C14.6484 11.8945 14.0859 11.332 13.0547 11.332H12.7617C12.3516 11.332 12.0938 11.0977 12.0938 10.6992C12.0938 10.3008 12.3398 10.043 12.7617 10.043H13.043C13.9453 10.043 14.4375 9.39844 14.4375 8.51953C14.4375 7.72266 14.0625 7.11328 13.2656 7.11328C12.5859 7.11328 12.1992 7.55859 12.0117 8.27344C11.8945 8.69531 11.6602 8.84766 11.2383 8.84766C10.7578 8.84766 10.4883 8.53125 10.4883 8.13281C10.4883 7.92188 10.5117 7.71094 10.582 7.47656C10.9336 6.41016 12.0117 5.70703 13.2656 5.70703C14.8477 5.70703 16.0898 6.65625 16.0898 8.33203C16.0898 9.33984 15.5625 10.3242 14.4609 10.6172V10.6523C15.4922 10.7578 16.3828 11.4961 16.3828 12.9961C16.3828 14.8008 15.0352 15.8906 13.3125 15.8906Z" fill="black" fill-opacity="0.85"/>
</svg>
