<svg width="24" height="24" viewBox="0 0 24 24" fill="none" xmlns="http://www.w3.org/2000/svg">
<path d="M11.9531 23.9062C18.4922 23.9062 23.9062 18.4805 23.9062 11.9531C23.9062 5.41406 18.4805 0 11.9414 0C5.41406 0 0 5.41406 0 11.9531C0 18.4805 5.42578 23.9062 11.9531 23.9062Z" fill="#FFCC00"/>
<path d="M8.42578 16.9688C7.93359 16.9688 7.53516 16.5703 7.53516 16.0781V8.75391L6.43359 9.64453C6.30469 9.73828 6.1875 9.79688 5.98828 9.79688C5.625 9.79688 5.36719 9.52734 5.36719 9.15234C5.36719 8.83594 5.54297 8.60156 5.76562 8.4375L7.07812 7.40625C7.37109 7.19531 7.78125 6.91406 8.28516 6.91406C8.91797 6.91406 9.30469 7.27734 9.30469 7.89844V16.0781C9.30469 16.5703 8.90625 16.9688 8.42578 16.9688ZM15.6445 16.9922C15.2695 16.9922 14.8125 16.7695 14.8125 16.1367V14.9297H12.1055C11.5195 14.9297 11.1094 14.5312 11.1094 13.9453C11.1094 13.5703 11.1797 13.2539 11.3906 12.7852L13.5352 8.09766C13.8867 7.34766 14.2852 6.91406 15.1406 6.91406C15.9258 6.91406 16.4766 7.38281 16.4766 8.22656V13.5234H16.9102C17.3906 13.5234 17.6016 13.8281 17.6016 14.2148C17.6016 14.625 17.3789 14.9297 16.9102 14.9297H16.4766V16.1367C16.4766 16.7109 16.1133 16.9922 15.6445 16.9922ZM14.8477 13.5586V8.4375H14.8008L12.6094 13.4766V13.5586H14.8477Z" fill="black" fill-opacity="0.85"/>
</svg>
