<svg width="22" height="22" viewBox="0 0 22 22" fill="none" xmlns="http://www.w3.org/2000/svg">
<path d="M3.67969 21.5977H17.8945C20.3555 21.5977 21.5742 20.3789 21.5742 17.9648V3.65625C21.5742 1.24219 20.3555 0.0234375 17.8945 0.0234375H3.67969C1.23047 0.0234375 0 1.23047 0 3.65625V17.9648C0 20.3906 1.23047 21.5977 3.67969 21.5977ZM3.70312 19.7109C2.53125 19.7109 1.88672 19.0898 1.88672 17.8711V3.75C1.88672 2.53125 2.53125 1.91016 3.70312 1.91016H17.8711C19.0312 1.91016 19.6875 2.53125 19.6875 3.75V17.8711C19.6875 19.0898 19.0312 19.7109 17.8711 19.7109H3.70312Z" fill="#007AFF"/>
<path d="M7.37109 15.6562C7.82812 15.6562 8.21484 15.2695 8.21484 14.8008V6.85547C8.21484 6.25781 7.83984 5.90625 7.23047 5.90625C6.73828 5.90625 6.33984 6.17578 6.07031 6.38672L4.78125 7.38281C4.57031 7.54688 4.40625 7.76953 4.40625 8.07422C4.40625 8.4375 4.65234 8.69531 5.00391 8.69531C5.19141 8.69531 5.30859 8.63672 5.42578 8.55469L6.50391 7.6875V14.8008C6.50391 15.2695 6.89062 15.6562 7.37109 15.6562ZM14.3672 15.6797C14.8008 15.6797 15.1641 15.4102 15.1641 14.8477V13.6758H15.5742C16.0312 13.6758 16.2422 13.3828 16.2422 12.9844C16.2422 12.6094 16.043 12.3164 15.5742 12.3164H15.1641V7.17188C15.1641 6.36328 14.625 5.90625 13.8633 5.90625C13.043 5.90625 12.6562 6.32812 12.3281 7.05469L10.2305 11.6016C10.0312 12.0586 9.96094 12.3633 9.96094 12.7266C9.96094 13.2891 10.3594 13.6758 10.9219 13.6758H13.5469V14.8477C13.5469 15.4688 13.9922 15.6797 14.3672 15.6797ZM13.582 12.3516H11.4023V12.2695L13.5352 7.38281H13.582V12.3516Z" fill="black" fill-opacity="0.85"/>
</svg>
