<svg width="24" height="24" viewBox="0 0 24 24" fill="none" xmlns="http://www.w3.org/2000/svg">
<path d="M11.9531 23.9062C18.4922 23.9062 23.9062 18.4805 23.9062 11.9531C23.9062 5.41406 18.4805 0 11.9414 0C5.41406 0 0 5.41406 0 11.9531C0 18.4805 5.42578 23.9062 11.9531 23.9062Z" fill="#FFCC00"/>
<path d="M9.24609 16.9688C8.75391 16.9688 8.35547 16.5703 8.35547 16.0781V8.75391L7.24219 9.64453C7.125 9.73828 6.99609 9.79688 6.82031 9.79688C6.45703 9.79688 6.19922 9.52734 6.19922 9.15234C6.19922 8.83594 6.35156 8.60156 6.57422 8.4375L7.89844 7.40625C8.19141 7.19531 8.60156 6.91406 9.10547 6.91406C9.73828 6.91406 10.125 7.27734 10.125 7.89844V16.0781C10.125 16.5703 9.72656 16.9688 9.24609 16.9688ZM13.6289 17.0039C13.0547 17.0039 12.832 16.6055 12.832 16.2539C12.832 15.9609 12.8672 15.8086 12.9727 15.5391L15.6562 8.61328V8.50781H12.5508C12.1289 8.50781 11.8477 8.20312 11.8477 7.78125C11.8477 7.37109 12.1289 7.06641 12.5508 7.06641H16.4531C16.9922 7.06641 17.4258 7.44141 17.4258 8.00391C17.4258 8.35547 17.332 8.64844 17.2031 9.02344L14.4375 16.3828C14.2734 16.8281 14.0742 17.0039 13.6289 17.0039Z" fill="black" fill-opacity="0.85"/>
</svg>
