<svg width="24" height="24" viewBox="0 0 24 24" fill="none" xmlns="http://www.w3.org/2000/svg">
<path d="M11.9531 23.9062C18.4922 23.9062 23.9062 18.4805 23.9062 11.9531C23.9062 5.41406 18.4805 0 11.9414 0C5.41406 0 0 5.41406 0 11.9531C0 18.4805 5.42578 23.9062 11.9531 23.9062ZM11.9531 21.9141C6.42188 21.9141 2.00391 17.4844 2.00391 11.9531C2.00391 6.42188 6.41016 1.99219 11.9414 1.99219C17.4727 1.99219 21.9141 6.42188 21.9141 11.9531C21.9141 17.4844 17.4844 21.9141 11.9531 21.9141Z" fill="#007AFF"/>
<path d="M8.76562 16.8164C9.22266 16.8164 9.60938 16.4297 9.60938 15.9609V8.01562C9.60938 7.41797 9.23438 7.06641 8.625 7.06641C8.14453 7.06641 7.74609 7.33594 7.46484 7.54688L6.17578 8.54297C5.96484 8.70703 5.8125 8.92969 5.8125 9.23438C5.8125 9.59766 6.05859 9.85547 6.41016 9.85547C6.59766 9.85547 6.70312 9.79688 6.82031 9.71484L7.89844 8.84766V15.9609C7.89844 16.4297 8.28516 16.8164 8.76562 16.8164ZM14.4727 16.8984C16.3359 16.8984 17.5195 15.7383 17.5195 14.1328C17.5195 12.8555 16.7109 11.9297 15.7734 11.7188V11.6836C16.5586 11.4375 17.2617 10.6758 17.2617 9.5625C17.2617 8.05078 16.1367 7.01953 14.4727 7.01953C13.0312 7.01953 11.7188 7.91016 11.7188 9.55078C11.7188 10.7461 12.457 11.4492 13.2188 11.6836V11.7188C12.2109 11.9414 11.4492 12.8672 11.4492 14.1328C11.4492 15.8672 12.7617 16.8984 14.4727 16.8984ZM14.4844 11.1445C13.7344 11.1445 13.3477 10.418 13.3477 9.72656C13.3477 8.97656 13.7578 8.27344 14.4844 8.27344C15.2461 8.27344 15.6094 8.97656 15.6094 9.72656C15.6094 10.5 15.2227 11.1445 14.4844 11.1445ZM14.4844 15.6328C13.6289 15.6328 13.207 14.8711 13.207 14.0039C13.207 13.1602 13.6289 12.4102 14.4844 12.4102C15.3164 12.4102 15.7617 13.1133 15.7617 14.0039C15.7617 14.8711 15.3398 15.6328 14.4844 15.6328Z" fill="black" fill-opacity="0.85"/>
</svg>
