<svg width="24" height="24" viewBox="0 0 24 24" fill="none" xmlns="http://www.w3.org/2000/svg">
<path d="M11.9531 23.9062C18.4922 23.9062 23.9062 18.4805 23.9062 11.9531C23.9062 5.41406 18.4805 0 11.9414 0C5.41406 0 0 5.41406 0 11.9531C0 18.4805 5.42578 23.9062 11.9531 23.9062ZM11.9531 21.9141C6.42188 21.9141 2.00391 17.4844 2.00391 11.9531C2.00391 6.42188 6.41016 1.99219 11.9414 1.99219C17.4727 1.99219 21.9141 6.42188 21.9141 11.9531C21.9141 17.4844 17.4844 21.9141 11.9531 21.9141Z" fill="#007AFF"/>
<path d="M8.76562 16.8164C9.23438 16.8164 9.62109 16.4297 9.62109 15.9609V8.01562C9.62109 7.41797 9.24609 7.06641 8.63672 7.06641C8.14453 7.06641 7.74609 7.33594 7.47656 7.54688L6.1875 8.54297C5.97656 8.70703 5.8125 8.92969 5.8125 9.23438C5.8125 9.59766 6.05859 9.85547 6.41016 9.85547C6.59766 9.85547 6.71484 9.79688 6.83203 9.71484L7.91016 8.84766V15.9609C7.91016 16.4297 8.29688 16.8164 8.76562 16.8164ZM13.7344 13.418C14.6836 13.418 15.3984 12.7852 15.668 11.7773H15.7148C15.7148 11.8242 15.7148 11.8711 15.7148 11.9062C15.7148 13.207 15.5508 15.5508 14.2383 15.5508C13.7227 15.5508 13.3594 15.1875 13.1602 14.6836C12.9844 14.2969 12.75 14.1445 12.3984 14.1445C11.918 14.1445 11.707 14.4727 11.707 14.8594C11.707 15 11.7305 15.1406 11.7656 15.2812C12.0234 16.3008 13.043 16.9219 14.2148 16.9219C16.6172 16.9219 17.3086 14.2617 17.3086 11.8594C17.3086 9.64453 16.6055 6.99609 14.2266 6.99609C12.4453 6.99609 11.4141 8.49609 11.4141 10.3359C11.4141 11.918 12.1758 13.418 13.7344 13.418ZM14.25 12.1289C13.3828 12.1289 13.043 11.1328 13.043 10.2656C13.043 9.38672 13.4297 8.35547 14.25 8.35547C15.1406 8.35547 15.4922 9.38672 15.4922 10.2656C15.4922 11.168 15.1055 12.1289 14.25 12.1289Z" fill="black" fill-opacity="0.85"/>
</svg>
