<svg width="24" height="24" viewBox="0 0 24 24" fill="none" xmlns="http://www.w3.org/2000/svg">
<path d="M11.9531 23.9062C18.4922 23.9062 23.9062 18.4805 23.9062 11.9531C23.9062 5.41406 18.4805 0 11.9414 0C5.41406 0 0 5.41406 0 11.9531C0 18.4805 5.42578 23.9062 11.9531 23.9062Z" fill="#FFCC00"/>
<path d="M8.68359 16.9688C8.20312 16.9688 7.80469 16.5703 7.80469 16.0781V8.75391L6.69141 9.64453C6.57422 9.73828 6.44531 9.79688 6.25781 9.79688C5.89453 9.79688 5.63672 9.52734 5.63672 9.15234C5.63672 8.83594 5.80078 8.60156 6.02344 8.4375L7.34766 7.40625C7.62891 7.19531 8.03906 6.91406 8.55469 6.91406C9.1875 6.91406 9.57422 7.27734 9.57422 7.89844V16.0781C9.57422 16.5703 9.17578 16.9688 8.68359 16.9688ZM13.8164 13.4648C12.2109 13.4648 11.4258 11.918 11.4258 10.2891C11.4258 8.39062 12.4922 6.84375 14.332 6.84375C16.7812 6.84375 17.5078 9.57422 17.5078 11.8594C17.5078 14.332 16.793 17.0742 14.3086 17.0742C13.1016 17.0742 12.0469 16.4414 11.7891 15.3867C11.7539 15.2461 11.7305 15.0938 11.7305 14.9531C11.7305 14.5547 11.9297 14.2148 12.4453 14.2148C12.8086 14.2148 13.0547 14.3672 13.2305 14.7656C13.4414 15.2812 13.8047 15.6562 14.3438 15.6562C15.6914 15.6562 15.8555 13.2422 15.8555 11.9062C15.8555 11.8711 15.8555 11.8242 15.8555 11.7773H15.8086C15.5273 12.8086 14.7891 13.4648 13.8164 13.4648ZM14.3555 12.1289C15.2344 12.1289 15.6211 11.1445 15.6211 10.207C15.6211 9.30469 15.2695 8.26172 14.3555 8.26172C13.5117 8.26172 13.1133 9.30469 13.1133 10.207C13.1133 11.0977 13.4648 12.1289 14.3555 12.1289Z" fill="black" fill-opacity="0.85"/>
</svg>
