<svg width="22" height="18" viewBox="0 0 22 18" fill="none" xmlns="http://www.w3.org/2000/svg">
<path d="M0 16.7344C0 17.25 0.421875 17.6836 0.9375 17.6836C1.46484 17.6836 1.88672 17.25 1.88672 16.7344V0.960938C1.88672 0.445312 1.46484 0.0234375 0.9375 0.0234375C0.421875 0.0234375 0 0.445312 0 0.960938V16.7344ZM19.6875 16.7344C19.6875 17.25 20.1211 17.6836 20.6367 17.6836C21.1523 17.6836 21.5742 17.25 21.5742 16.7344V0.960938C21.5742 0.445312 21.1523 0.0234375 20.6367 0.0234375C20.1211 0.0234375 19.6875 0.445312 19.6875 0.960938V16.7344Z" fill="#007AFF"/>
<path d="M8.73047 13.6172H13.0312C13.4414 13.6172 13.6875 13.3711 13.6875 12.9609C13.6875 12.5508 13.4414 12.3047 13.0312 12.3047H10.0195V12.2227L11.7656 10.2773C12.1875 9.80859 12.5156 9.39844 12.7734 9.05859C13.2188 8.4375 13.4766 7.83984 13.4766 7.06641C13.4766 5.46094 12.2812 4.48828 10.7109 4.48828C9.38672 4.48828 8.30859 5.36719 8.03906 6.375C8.00391 6.51562 7.98047 6.66797 7.98047 6.80859C7.98047 7.23047 8.23828 7.51172 8.66016 7.51172C9.02344 7.51172 9.25781 7.3125 9.38672 6.97266C9.57422 6.24609 10.0078 5.77734 10.6992 5.77734C11.4727 5.77734 11.9062 6.375 11.9062 7.13672C11.9062 7.69922 11.7188 8.12109 11.3906 8.57812C11.1914 8.85938 10.9219 9.21094 10.5703 9.62109L8.39062 12.0703C8.15625 12.3164 7.95703 12.5742 7.95703 12.9375C7.95703 13.2656 8.13281 13.6172 8.73047 13.6172Z" fill="black" fill-opacity="0.85"/>
</svg>
