<svg width="22" height="22" viewBox="0 0 22 22" fill="none" xmlns="http://www.w3.org/2000/svg">
<path d="M3.67969 21.5977H17.8945C20.3555 21.5977 21.5742 20.3789 21.5742 17.9648V3.65625C21.5742 1.24219 20.3555 0.0234375 17.8945 0.0234375H3.67969C1.23047 0.0234375 0 1.23047 0 3.65625V17.9648C0 20.3906 1.23047 21.5977 3.67969 21.5977Z" fill="#FFCC00"/>
<path d="M8.05078 16.2773C7.51172 16.2773 7.18359 15.9727 7.18359 15.4805C7.18359 15.2344 7.30078 14.9883 7.51172 14.7539L11.3672 10.6172C12.082 9.86719 12.832 9.12891 12.832 8.25C12.832 7.25391 12.0586 6.58594 10.9102 6.58594C9.75 6.58594 9.10547 7.35938 8.78906 8.08594C8.57812 8.42578 8.36719 8.69531 7.93359 8.69531C7.45312 8.69531 7.13672 8.39062 7.13672 7.92188C7.13672 7.75781 7.14844 7.61719 7.20703 7.42969C7.60547 6.08203 9.11719 5.03906 10.8281 5.03906C13.0664 5.03906 14.543 6.26953 14.543 8.09766C14.543 9.44531 13.793 10.4062 12.7266 11.543L9.86719 14.6016V14.6836H14.2617C14.7422 14.6836 15.082 14.9766 15.082 15.4805C15.082 15.9727 14.7422 16.2773 14.2617 16.2773H8.05078Z" fill="black" fill-opacity="0.85"/>
</svg>
