<svg width="24" height="24" viewBox="0 0 24 24" fill="none" xmlns="http://www.w3.org/2000/svg">
<path d="M11.9531 23.9062C18.4922 23.9062 23.9062 18.4805 23.9062 11.9531C23.9062 5.41406 18.4805 0 11.9414 0C5.41406 0 0 5.41406 0 11.9531C0 18.4805 5.42578 23.9062 11.9531 23.9062Z" fill="#FFCC00"/>
<path d="M6.29297 16.8398C5.74219 16.8398 5.47266 16.5469 5.47266 16.1367C5.47266 15.75 5.69531 15.4453 5.92969 15.1641L8.02734 12.4805C8.66016 11.6719 9.32812 10.6875 9.32812 9.71484C9.32812 8.85938 8.92969 8.22656 8.20312 8.22656C7.51172 8.22656 7.20703 8.73047 6.98438 9.53906C6.85547 9.9375 6.62109 10.1133 6.21094 10.1133C5.75391 10.1133 5.48438 9.80859 5.48438 9.35156C5.48438 8.09766 6.66797 6.82031 8.21484 6.82031C9.87891 6.82031 10.9922 8.00391 10.9922 9.63281C10.9922 10.6992 10.5938 11.5898 9.38672 13.0898L7.62891 15.3164V15.4102H10.4883C10.9102 15.4102 11.1797 15.668 11.1797 16.1367C11.1797 16.5586 10.9219 16.8398 10.4883 16.8398H6.29297ZM15.5625 17.0859C13.1602 17.0859 12.4453 14.3906 12.4453 11.9531C12.4453 9.51562 13.1602 6.82031 15.5625 6.82031C17.9883 6.82031 18.7031 9.51562 18.7031 11.9531C18.7031 14.3906 17.9883 17.0859 15.5625 17.0859ZM15.5625 15.6445C16.5469 15.6445 16.9219 14.0508 16.9219 11.9531C16.9219 9.84375 16.5469 8.26172 15.5625 8.26172C14.5898 8.26172 14.2148 9.84375 14.2148 11.9531C14.2148 14.0508 14.5898 15.6445 15.5625 15.6445Z" fill="black" fill-opacity="0.85"/>
</svg>
