<svg width="22" height="22" viewBox="0 0 22 22" fill="none" xmlns="http://www.w3.org/2000/svg">
<path d="M3.67969 21.5977H17.8945C20.3555 21.5977 21.5742 20.3789 21.5742 17.9648V3.65625C21.5742 1.24219 20.3555 0.0234375 17.8945 0.0234375H3.67969C1.23047 0.0234375 0 1.23047 0 3.65625V17.9648C0 20.3906 1.23047 21.5977 3.67969 21.5977Z" fill="#FFCC00"/>
<path d="M5.13281 15.6797C4.58203 15.6797 4.3125 15.3867 4.3125 14.9766C4.3125 14.5898 4.53516 14.2852 4.76953 14.0039L6.86719 11.3203C7.5 10.5117 8.16797 9.52734 8.16797 8.55469C8.16797 7.69922 7.76953 7.06641 7.04297 7.06641C6.35156 7.06641 6.04688 7.57031 5.83594 8.37891C5.69531 8.77734 5.46094 8.95312 5.05078 8.95312C4.59375 8.95312 4.32422 8.64844 4.32422 8.19141C4.32422 6.9375 5.50781 5.66016 7.05469 5.66016C8.71875 5.66016 9.83203 6.84375 9.83203 8.47266C9.83203 9.53906 9.43359 10.4297 8.22656 11.9297L6.46875 14.1562V14.25H9.32812C9.75 14.25 10.0195 14.5078 10.0195 14.9766C10.0195 15.3984 9.76172 15.6797 9.32812 15.6797H5.13281ZM14.4141 15.9258C12 15.9258 11.2852 13.2305 11.2852 10.793C11.2852 8.35547 12 5.66016 14.4141 5.66016C16.8281 5.66016 17.543 8.35547 17.543 10.793C17.543 13.2305 16.8281 15.9258 14.4141 15.9258ZM14.4141 14.4844C15.3984 14.4844 15.7617 12.8906 15.7617 10.793C15.7617 8.68359 15.3984 7.10156 14.4141 7.10156C13.4297 7.10156 13.0547 8.68359 13.0547 10.793C13.0547 12.8906 13.4297 14.4844 14.4141 14.4844Z" fill="black" fill-opacity="0.85"/>
</svg>
