<svg width="24" height="24" viewBox="0 0 24 24" fill="none" xmlns="http://www.w3.org/2000/svg">
<path d="M11.9531 23.9062C18.4922 23.9062 23.9062 18.4805 23.9062 11.9531C23.9062 5.41406 18.4805 0 11.9414 0C5.41406 0 0 5.41406 0 11.9531C0 18.4805 5.42578 23.9062 11.9531 23.9062ZM11.9531 21.9141C6.42188 21.9141 2.00391 17.4844 2.00391 11.9531C2.00391 6.42188 6.41016 1.99219 11.9414 1.99219C17.4727 1.99219 21.9141 6.42188 21.9141 11.9531C21.9141 17.4844 17.4844 21.9141 11.9531 21.9141Z" fill="#007AFF"/>
<path d="M6.67969 16.6875H10.7461C11.168 16.6875 11.4141 16.418 11.4141 16.0078C11.4141 15.5625 11.1562 15.3164 10.7461 15.3164H7.96875V15.2227L9.67969 13.0547C10.8516 11.6016 11.2383 10.7344 11.2383 9.70312C11.2383 8.12109 10.1602 6.97266 8.54297 6.97266C7.04297 6.97266 5.90625 8.21484 5.90625 9.43359C5.90625 9.86719 6.16406 10.1719 6.60938 10.1719C6.99609 10.1719 7.23047 9.99609 7.35938 9.60938C7.57031 8.82422 7.86328 8.33203 8.54297 8.33203C9.24609 8.33203 9.64453 8.95312 9.64453 9.78516C9.64453 10.7227 8.98828 11.6719 8.36719 12.4688L6.32812 15.0703C6.11719 15.3516 5.89453 15.6445 5.89453 16.0078C5.89453 16.4062 6.15234 16.6875 6.67969 16.6875ZM13.4062 16.6875H17.4727C17.8828 16.6875 18.1289 16.418 18.1289 16.0078C18.1289 15.5625 17.8711 15.3164 17.4727 15.3164H14.6836V15.2227L16.3945 13.0547C17.5664 11.6016 17.9531 10.7344 17.9531 9.70312C17.9531 8.12109 16.875 6.97266 15.2578 6.97266C13.7695 6.97266 12.6328 8.21484 12.6328 9.43359C12.6328 9.86719 12.8789 10.1719 13.3242 10.1719C13.7109 10.1719 13.957 9.99609 14.0742 9.60938C14.2969 8.82422 14.5781 8.33203 15.2578 8.33203C15.9609 8.33203 16.3594 8.95312 16.3594 9.78516C16.3594 10.7227 15.7031 11.6719 15.082 12.4688L13.043 15.0703C12.832 15.3516 12.6094 15.6445 12.6094 16.0078C12.6094 16.4062 12.8672 16.6875 13.4062 16.6875Z" fill="black" fill-opacity="0.85"/>
</svg>
