<svg width="22" height="22" viewBox="0 0 22 22" fill="none" xmlns="http://www.w3.org/2000/svg">
<path d="M3.67969 21.5977H17.8945C20.3555 21.5977 21.5742 20.3789 21.5742 17.9648V3.65625C21.5742 1.24219 20.3555 0.0234375 17.8945 0.0234375H3.67969C1.23047 0.0234375 0 1.23047 0 3.65625V17.9648C0 20.3906 1.23047 21.5977 3.67969 21.5977Z" fill="#FFCC00"/>
<path d="M5.14453 15.6797C4.59375 15.6797 4.33594 15.3867 4.33594 14.9766C4.33594 14.5898 4.55859 14.2969 4.78125 14.0039L6.87891 11.3203C7.52344 10.5117 8.20312 9.52734 8.20312 8.55469C8.20312 7.69922 7.79297 7.06641 7.06641 7.06641C6.36328 7.06641 6.07031 7.57031 5.84766 8.37891C5.71875 8.77734 5.47266 8.96484 5.07422 8.96484C4.60547 8.96484 4.34766 8.64844 4.34766 8.19141C4.34766 6.9375 5.51953 5.66016 7.06641 5.66016C8.73047 5.66016 9.85547 6.84375 9.85547 8.47266C9.85547 9.53906 9.44531 10.4297 8.23828 11.9297L6.48047 14.1562V14.25H9.35156C9.76172 14.25 10.0312 14.5078 10.0312 14.9766C10.0312 15.3984 9.77344 15.6797 9.35156 15.6797H5.14453ZM14.2734 15.8906C12.9844 15.8906 11.7422 15.2695 11.4023 14.1445C11.332 13.9453 11.3086 13.7344 11.3086 13.5117C11.3086 13.043 11.625 12.75 12.1055 12.75C12.4922 12.75 12.75 12.9492 12.8672 13.3477C13.0078 13.8984 13.4062 14.4844 14.2852 14.4844C15.1758 14.4844 15.6211 13.7812 15.6211 12.9492C15.6211 11.8945 15.0586 11.332 14.0273 11.332H13.7344C13.3359 11.332 13.0547 11.0977 13.0547 10.6992C13.0547 10.3008 13.3242 10.043 13.7344 10.043H14.0156C14.9297 10.043 15.4102 9.39844 15.4102 8.51953C15.4102 7.72266 15.0352 7.11328 14.2383 7.11328C13.5469 7.11328 13.1836 7.55859 12.9844 8.27344C12.8672 8.69531 12.6211 8.84766 12.2109 8.84766C11.7305 8.84766 11.4727 8.53125 11.4727 8.13281C11.4727 7.93359 11.4961 7.71094 11.5547 7.47656C11.9062 6.41016 12.9844 5.70703 14.2383 5.70703C15.8086 5.70703 17.0625 6.65625 17.0625 8.33203C17.0625 9.33984 16.5234 10.3242 15.4336 10.6172V10.6523C16.4531 10.7578 17.3438 11.4961 17.3438 12.9961C17.3438 14.8125 16.0195 15.8906 14.2734 15.8906Z" fill="black" fill-opacity="0.85"/>
</svg>
