<svg width="24" height="24" viewBox="0 0 24 24" fill="none" xmlns="http://www.w3.org/2000/svg">
<path d="M11.9531 23.9062C18.4922 23.9062 23.9062 18.4805 23.9062 11.9531C23.9062 5.41406 18.4805 0 11.9414 0C5.41406 0 0 5.41406 0 11.9531C0 18.4805 5.42578 23.9062 11.9531 23.9062Z" fill="#FFCC00"/>
<path d="M6.24609 16.8398C5.70703 16.8398 5.4375 16.5469 5.4375 16.1367C5.4375 15.75 5.64844 15.4453 5.88281 15.1641L7.98047 12.4805C8.625 11.6719 9.29297 10.6875 9.29297 9.71484C9.29297 8.85938 8.89453 8.22656 8.15625 8.22656C7.47656 8.22656 7.17188 8.73047 6.9375 9.53906C6.82031 9.9375 6.57422 10.1133 6.17578 10.1133C5.71875 10.1133 5.44922 9.80859 5.44922 9.35156C5.44922 8.09766 6.62109 6.82031 8.16797 6.82031C9.84375 6.82031 10.957 8.00391 10.957 9.63281C10.957 10.6992 10.5586 11.5898 9.33984 13.0898L7.58203 15.3164V15.4102H10.4414C10.8633 15.4102 11.1328 15.668 11.1328 16.1367C11.1328 16.5586 10.875 16.8398 10.4414 16.8398H6.24609ZM15.3867 17.0859C14.2969 17.0859 13.2305 16.4531 12.8086 15.4688C12.6914 15.2344 12.6211 14.9648 12.6211 14.6836C12.6211 14.2383 12.9141 13.957 13.3477 13.957C13.6758 13.957 13.9453 14.1445 14.0859 14.5312C14.3086 15.1875 14.6953 15.668 15.3633 15.668C16.2539 15.668 16.6055 14.6484 16.6055 13.6406C16.6055 12.75 16.2656 11.6836 15.3867 11.6836C14.8945 11.6836 14.6016 11.9648 14.3203 12.3633C14.0625 12.6914 13.8867 12.8203 13.5469 12.8203C12.9844 12.8203 12.75 12.4102 12.75 11.9531C12.75 11.7891 12.75 11.6016 12.7617 11.4141L12.9727 8.10938C13.0078 7.48828 13.3008 7.06641 13.9336 7.06641H17.25C17.6602 7.06641 17.9297 7.38281 17.9297 7.78125C17.9297 8.21484 17.6719 8.50781 17.25 8.50781H14.4141L14.2266 11.4375H14.2734C14.5898 10.7344 15.2344 10.4062 15.9492 10.4062C17.5078 10.4062 18.3047 11.9297 18.3047 13.5938C18.3047 15.5039 17.2734 17.0859 15.3867 17.0859Z" fill="black" fill-opacity="0.85"/>
</svg>
