<svg width="22" height="22" viewBox="0 0 22 22" fill="none" xmlns="http://www.w3.org/2000/svg">
<path d="M3.67969 21.5977H17.8945C20.3555 21.5977 21.5742 20.3789 21.5742 17.9648V3.65625C21.5742 1.24219 20.3555 0.0234375 17.8945 0.0234375H3.67969C1.23047 0.0234375 0 1.23047 0 3.65625V17.9648C0 20.3906 1.23047 21.5977 3.67969 21.5977ZM3.70312 19.7109C2.53125 19.7109 1.88672 19.0898 1.88672 17.8711V3.75C1.88672 2.53125 2.53125 1.91016 3.70312 1.91016H17.8711C19.0312 1.91016 19.6875 2.53125 19.6875 3.75V17.8711C19.6875 19.0898 19.0312 19.7109 17.8711 19.7109H3.70312Z" fill="#007AFF"/>
<path d="M5.26172 15.5273H9.32812C9.75 15.5273 9.99609 15.2578 9.99609 14.8477C9.99609 14.4023 9.73828 14.1562 9.32812 14.1562H6.55078V14.0625L8.26172 11.8945C9.43359 10.4414 9.82031 9.57422 9.82031 8.54297C9.82031 6.96094 8.74219 5.8125 7.125 5.8125C5.625 5.8125 4.48828 7.05469 4.48828 8.27344C4.48828 8.70703 4.74609 9.01172 5.19141 9.01172C5.57812 9.01172 5.8125 8.83594 5.94141 8.44922C6.15234 7.66406 6.44531 7.17188 7.11328 7.17188C7.82812 7.17188 8.22656 7.79297 8.22656 8.625C8.22656 9.5625 7.57031 10.5117 6.94922 11.3086L4.91016 13.9102C4.69922 14.1914 4.47656 14.4844 4.47656 14.8477C4.47656 15.2461 4.73438 15.5273 5.26172 15.5273ZM14.1211 15.7734C15.9492 15.7734 16.9453 14.2383 16.9453 12.3867C16.9453 10.7695 16.1719 9.29297 14.6602 9.29297C13.9805 9.29297 13.3359 9.60938 13.0312 10.2891H12.9844L13.1719 7.44141H15.9258C16.3359 7.44141 16.582 7.16016 16.582 6.75C16.582 6.36328 16.3125 6.05859 15.9258 6.05859H12.7031C12.0938 6.05859 11.8125 6.45703 11.7773 7.06641L11.5898 10.2773C11.5664 10.4531 11.5664 10.6406 11.5664 10.793C11.5664 11.2383 11.7891 11.6367 12.3398 11.6367C12.6562 11.6367 12.832 11.5078 13.0781 11.1914C13.3477 10.8047 13.6406 10.5234 14.1211 10.5234C14.9766 10.5234 15.3164 11.5664 15.3164 12.4336C15.3164 13.4062 14.9648 14.4023 14.0977 14.4023C13.4414 14.4023 13.0664 13.9336 12.8555 13.2891C12.7148 12.9141 12.457 12.7383 12.1406 12.7383C11.7188 12.7383 11.4492 13.0078 11.4492 13.4414C11.4492 13.7109 11.5078 13.9688 11.6133 14.2031C12.0234 15.1523 13.0547 15.7734 14.1211 15.7734Z" fill="black" fill-opacity="0.85"/>
</svg>
