<svg width="24" height="24" viewBox="0 0 24 24" fill="none" xmlns="http://www.w3.org/2000/svg">
<path d="M11.9531 23.9062C18.4922 23.9062 23.9062 18.4805 23.9062 11.9531C23.9062 5.41406 18.4805 0 11.9414 0C5.41406 0 0 5.41406 0 11.9531C0 18.4805 5.42578 23.9062 11.9531 23.9062ZM11.9531 21.9141C6.42188 21.9141 2.00391 17.4844 2.00391 11.9531C2.00391 6.42188 6.41016 1.99219 11.9414 1.99219C17.4727 1.99219 21.9141 6.42188 21.9141 11.9531C21.9141 17.4844 17.4844 21.9141 11.9531 21.9141Z" fill="#007AFF"/>
<path d="M6.38672 16.6875H10.4531C10.8633 16.6875 11.1094 16.418 11.1094 16.0078C11.1094 15.5625 10.8516 15.3164 10.4531 15.3164H7.66406V15.2227L9.375 13.0547C10.5469 11.6016 10.9336 10.7344 10.9336 9.70312C10.9336 8.12109 9.85547 6.97266 8.23828 6.97266C6.73828 6.97266 5.60156 8.21484 5.60156 9.43359C5.60156 9.86719 5.85938 10.1719 6.30469 10.1719C6.69141 10.1719 6.92578 9.99609 7.05469 9.60938C7.27734 8.82422 7.55859 8.33203 8.23828 8.33203C8.94141 8.33203 9.33984 8.95312 9.33984 9.78516C9.33984 10.7227 8.68359 11.6719 8.0625 12.4688L6.02344 15.0703C5.8125 15.3516 5.58984 15.6445 5.58984 16.0078C5.58984 16.4062 5.84766 16.6875 6.38672 16.6875ZM15.4336 16.9336C17.2266 16.9336 18.2461 15.4336 18.2461 13.5938C18.2461 12.0117 17.4844 10.5117 15.9258 10.5117C14.9766 10.5117 14.2617 11.1445 13.9922 12.1523H13.9453C13.9453 12.1055 13.9453 12.0586 13.9453 12.0234C13.9453 10.7227 14.1094 8.36719 15.4102 8.36719C15.9492 8.36719 16.3008 8.74219 16.5 9.23438C16.6641 9.59766 16.8984 9.76172 17.2734 9.76172C17.7422 9.76172 17.9414 9.44531 17.9414 9.05859C17.9414 8.92969 17.9297 8.78906 17.8945 8.63672C17.6367 7.62891 16.6289 6.99609 15.457 6.99609C13.043 6.99609 12.3516 9.69141 12.3516 12.0703C12.3516 14.2852 13.0547 16.9336 15.4336 16.9336ZM15.4102 15.5625C14.5312 15.5625 14.168 14.4609 14.168 13.6172C14.168 12.7617 14.5664 11.7891 15.4102 11.7891C16.2773 11.7891 16.6406 12.7969 16.6172 13.6641C16.6172 14.5195 16.2305 15.5625 15.4102 15.5625Z" fill="black" fill-opacity="0.85"/>
</svg>
