<svg width="22" height="22" viewBox="0 0 22 22" fill="none" xmlns="http://www.w3.org/2000/svg">
<path d="M3.67969 21.5977H17.8945C20.3555 21.5977 21.5742 20.3789 21.5742 17.9648V3.65625C21.5742 1.24219 20.3555 0.0234375 17.8945 0.0234375H3.67969C1.23047 0.0234375 0 1.23047 0 3.65625V17.9648C0 20.3906 1.23047 21.5977 3.67969 21.5977Z" fill="#FFCC00"/>
<path d="M5.0625 15.6797C4.5 15.6797 4.24219 15.3867 4.24219 14.9766C4.24219 14.5898 4.46484 14.2852 4.69922 14.0039L6.78516 11.3203C7.41797 10.5117 8.09766 9.52734 8.09766 8.55469C8.09766 7.69922 7.6875 7.06641 6.97266 7.06641C6.28125 7.06641 5.98828 7.57031 5.75391 8.37891C5.63672 8.77734 5.37891 8.95312 4.98047 8.95312C4.51172 8.95312 4.26562 8.64844 4.26562 8.19141C4.26562 6.9375 5.4375 5.66016 6.98438 5.66016C8.64844 5.66016 9.75 6.84375 9.75 8.47266C9.75 9.53906 9.36328 10.4297 8.14453 11.9297L6.38672 14.1562V14.25H9.25781C9.66797 14.25 9.94922 14.5078 9.94922 14.9766C9.94922 15.3984 9.67969 15.6797 9.25781 15.6797H5.0625ZM14.4023 15.9258C11.9414 15.9258 11.2148 13.1953 11.2148 10.9102C11.2148 8.46094 11.9414 5.68359 14.4258 5.68359C15.6328 5.68359 16.6758 6.32812 16.9336 7.37109C16.9805 7.52344 16.9922 7.67578 16.9922 7.80469C16.9922 8.20312 16.7812 8.53125 16.3008 8.53125C15.9023 8.53125 15.6797 8.36719 15.4922 7.99219C15.293 7.48828 14.9297 7.10156 14.3789 7.10156C13.0312 7.10156 12.8672 9.52734 12.8672 10.8633C12.8672 10.8984 12.8672 10.9453 12.8672 10.9922H12.9141C13.1953 9.96094 13.9336 9.30469 14.9062 9.30469C16.5117 9.30469 17.2969 10.8516 17.2969 12.4805C17.2969 14.3789 16.2539 15.9258 14.4023 15.9258ZM14.3789 14.5078C15.2227 14.5078 15.6094 13.4414 15.6094 12.5625C15.6328 11.6719 15.2695 10.6289 14.3789 10.6289C13.5117 10.6289 13.1016 11.625 13.1016 12.5156C13.1016 13.3711 13.4648 14.5078 14.3789 14.5078Z" fill="black" fill-opacity="0.85"/>
</svg>
