<svg width="24" height="24" viewBox="0 0 24 24" fill="none" xmlns="http://www.w3.org/2000/svg">
<path d="M11.9531 23.9062C18.4922 23.9062 23.9062 18.4805 23.9062 11.9531C23.9062 5.41406 18.4805 0 11.9414 0C5.41406 0 0 5.41406 0 11.9531C0 18.4805 5.42578 23.9062 11.9531 23.9062Z" fill="#FFCC00"/>
<path d="M6.82031 16.8398C6.26953 16.8398 6.01172 16.5469 6.01172 16.1367C6.01172 15.7617 6.23438 15.457 6.45703 15.1641L8.55469 12.4922C9.1875 11.6719 9.86719 10.6875 9.86719 9.71484C9.86719 8.85938 9.45703 8.22656 8.73047 8.22656C8.03906 8.22656 7.74609 8.73047 7.52344 9.53906C7.39453 9.9375 7.14844 10.125 6.75 10.125C6.28125 10.125 6.02344 9.80859 6.02344 9.35156C6.02344 8.09766 7.19531 6.82031 8.74219 6.82031C10.4062 6.82031 11.5195 8.00391 11.5195 9.63281C11.5195 10.6992 11.1211 11.5898 9.91406 13.0898L8.15625 15.3164V15.4219H11.0156C11.4375 15.4219 11.707 15.668 11.707 16.1367C11.707 16.5586 11.4492 16.8398 11.0156 16.8398H6.82031ZM14.5312 17.0039C13.957 17.0039 13.7227 16.6055 13.7227 16.2539C13.7227 15.9609 13.7695 15.8086 13.8867 15.5391L16.5469 8.61328V8.50781H13.4531C13.0312 8.50781 12.75 8.20312 12.75 7.79297C12.75 7.37109 13.0312 7.06641 13.4531 7.06641H17.3555C17.8945 7.06641 18.3164 7.45312 18.3164 8.00391C18.3164 8.35547 18.2227 8.64844 18.0938 9.02344L15.3398 16.3828C15.1641 16.8281 14.9766 17.0039 14.5312 17.0039Z" fill="black" fill-opacity="0.85"/>
</svg>
