<svg width="22" height="22" viewBox="0 0 22 22" fill="none" xmlns="http://www.w3.org/2000/svg">
<path d="M3.67969 21.5977H17.8945C20.3555 21.5977 21.5742 20.3789 21.5742 17.9648V3.65625C21.5742 1.24219 20.3555 0.0234375 17.8945 0.0234375H3.67969C1.23047 0.0234375 0 1.23047 0 3.65625V17.9648C0 20.3906 1.23047 21.5977 3.67969 21.5977ZM3.70312 19.7109C2.53125 19.7109 1.88672 19.0898 1.88672 17.8711V3.75C1.88672 2.53125 2.53125 1.91016 3.70312 1.91016H17.8711C19.0312 1.91016 19.6875 2.53125 19.6875 3.75V17.8711C19.6875 19.0898 19.0312 19.7109 17.8711 19.7109H3.70312Z" fill="#007AFF"/>
<path d="M5.83594 15.5273H9.90234C10.3125 15.5273 10.5586 15.2578 10.5586 14.8477C10.5586 14.4023 10.3008 14.1562 9.90234 14.1562H7.11328V14.0625L8.82422 11.8945C9.99609 10.4414 10.3828 9.57422 10.3828 8.54297C10.3828 6.96094 9.30469 5.8125 7.6875 5.8125C6.1875 5.8125 5.05078 7.05469 5.05078 8.27344C5.05078 8.70703 5.30859 9.01172 5.75391 9.01172C6.14062 9.01172 6.375 8.83594 6.50391 8.44922C6.72656 7.66406 7.00781 7.17188 7.6875 7.17188C8.39062 7.17188 8.78906 7.79297 8.78906 8.625C8.78906 9.5625 8.13281 10.5117 7.51172 11.3086L5.47266 13.9102C5.26172 14.1914 5.03906 14.4844 5.03906 14.8477C5.03906 15.2461 5.29688 15.5273 5.83594 15.5273ZM13.2891 15.6914C13.7227 15.6914 13.9219 15.5156 14.0742 15.0938L16.7461 7.94531C16.875 7.58203 16.9688 7.30078 16.9688 6.96094C16.9688 6.42188 16.5586 6.05859 16.0312 6.05859H12.2461C11.8477 6.05859 11.5664 6.35156 11.5664 6.75C11.5664 7.14844 11.8477 7.44141 12.2461 7.44141H15.2578V7.54688L12.668 14.2734C12.5625 14.5312 12.5156 14.6836 12.5156 14.9648C12.5156 15.3047 12.7383 15.6914 13.2891 15.6914Z" fill="black" fill-opacity="0.85"/>
</svg>
