<svg width="22" height="22" viewBox="0 0 22 22" fill="none" xmlns="http://www.w3.org/2000/svg">
<path d="M3.67969 21.5977H17.8945C20.3555 21.5977 21.5742 20.3789 21.5742 17.9648V3.65625C21.5742 1.24219 20.3555 0.0234375 17.8945 0.0234375H3.67969C1.23047 0.0234375 0 1.23047 0 3.65625V17.9648C0 20.3906 1.23047 21.5977 3.67969 21.5977Z" fill="#FFCC00"/>
<path d="M5.67188 15.6797C5.10938 15.6797 4.85156 15.3867 4.85156 14.9766C4.85156 14.6016 5.07422 14.2969 5.29688 14.0039L7.39453 11.332C8.02734 10.5117 8.70703 9.52734 8.70703 8.55469C8.70703 7.69922 8.29688 7.06641 7.58203 7.06641C6.87891 7.06641 6.59766 7.57031 6.36328 8.37891C6.23438 8.77734 5.98828 8.96484 5.58984 8.96484C5.12109 8.96484 4.86328 8.64844 4.86328 8.19141C4.86328 6.9375 6.03516 5.66016 7.58203 5.66016C9.24609 5.66016 10.3594 6.84375 10.3594 8.47266C10.3594 9.53906 9.96094 10.4297 8.75391 11.9297L6.99609 14.1562V14.2617H9.86719C10.2773 14.2617 10.5469 14.5078 10.5469 14.9766C10.5469 15.3984 10.2891 15.6797 9.86719 15.6797H5.67188ZM13.3711 15.8438C12.7969 15.8438 12.5625 15.4453 12.5625 15.0938C12.5625 14.8008 12.6094 14.6484 12.7266 14.3789L15.3867 7.45312V7.34766H12.293C11.8711 7.34766 11.5898 7.04297 11.5898 6.63281C11.5898 6.21094 11.8711 5.90625 12.293 5.90625H16.1953C16.7344 5.90625 17.1562 6.29297 17.1562 6.84375C17.1562 7.19531 17.0625 7.48828 16.9336 7.86328L14.1797 15.2227C14.0156 15.668 13.8164 15.8438 13.3711 15.8438Z" fill="black" fill-opacity="0.85"/>
</svg>
