<svg width="24" height="24" viewBox="0 0 24 24" fill="none" xmlns="http://www.w3.org/2000/svg">
<path d="M11.9531 23.9062C18.4922 23.9062 23.9062 18.4805 23.9062 11.9531C23.9062 5.41406 18.4805 0 11.9414 0C5.41406 0 0 5.41406 0 11.9531C0 18.4805 5.42578 23.9062 11.9531 23.9062Z" fill="#FFCC00"/>
<path d="M6.19922 16.8398C5.63672 16.8398 5.36719 16.5469 5.36719 16.1367C5.36719 15.75 5.60156 15.457 5.83594 15.1641L7.92188 12.4805C8.55469 11.6719 9.23438 10.6875 9.23438 9.71484C9.23438 8.85938 8.82422 8.22656 8.10938 8.22656C7.41797 8.22656 7.11328 8.73047 6.89062 9.53906C6.76172 9.9375 6.52734 10.125 6.11719 10.125C5.64844 10.125 5.39062 9.80859 5.39062 9.35156C5.39062 8.09766 6.57422 6.82031 8.12109 6.82031C9.78516 6.82031 10.8867 8.00391 10.8867 9.63281C10.8867 10.6992 10.5 11.5898 9.28125 13.0898L7.53516 15.3164V15.4102H10.3945C10.8047 15.4102 11.0859 15.668 11.0859 16.1367C11.0859 16.5586 10.8164 16.8398 10.3945 16.8398H6.19922ZM15.457 17.0508C13.6992 17.0508 12.3398 15.9961 12.3398 14.2031C12.3398 12.8906 13.125 11.9414 14.1562 11.707V11.6719C13.3828 11.4375 12.6211 10.7109 12.6211 9.48047C12.6211 7.78125 13.957 6.86719 15.457 6.86719C17.168 6.86719 18.3281 7.93359 18.3281 9.49219C18.3281 10.6406 17.6133 11.4258 16.8047 11.6719V11.707C17.7539 11.9297 18.6094 12.8789 18.6094 14.2031C18.6094 15.8555 17.3789 17.0508 15.457 17.0508ZM15.457 11.1211C16.2305 11.1211 16.6289 10.4531 16.6289 9.65625C16.6289 8.88281 16.2422 8.16797 15.457 8.16797C14.707 8.16797 14.3086 8.88281 14.3086 9.65625C14.3086 10.3711 14.6953 11.1211 15.457 11.1211ZM15.457 15.7383C16.3477 15.7383 16.7812 14.9648 16.7812 14.0625C16.7812 13.1484 16.3125 12.4336 15.457 12.4336C14.5898 12.4336 14.1562 13.1953 14.1562 14.0625C14.1562 14.9648 14.5898 15.7383 15.457 15.7383Z" fill="black" fill-opacity="0.85"/>
</svg>
