<svg width="24" height="24" viewBox="0 0 24 24" fill="none" xmlns="http://www.w3.org/2000/svg">
<path d="M11.9531 23.9062C18.4922 23.9062 23.9062 18.4805 23.9062 11.9531C23.9062 5.41406 18.4805 0 11.9414 0C5.41406 0 0 5.41406 0 11.9531C0 18.4805 5.42578 23.9062 11.9531 23.9062ZM11.9531 21.9141C6.42188 21.9141 2.00391 17.4844 2.00391 11.9531C2.00391 6.42188 6.41016 1.99219 11.9414 1.99219C17.4727 1.99219 21.9141 6.42188 21.9141 11.9531C21.9141 17.4844 17.4844 21.9141 11.9531 21.9141Z" fill="#007AFF"/>
<path d="M6.46875 16.6875H10.5352C10.9453 16.6875 11.1914 16.418 11.1914 16.0078C11.1914 15.5625 10.9336 15.3164 10.5352 15.3164H7.74609V15.2227L9.45703 13.0547C10.6406 11.6016 11.0156 10.7344 11.0156 9.70312C11.0156 8.12109 9.94921 6.97266 8.3203 6.97266C6.83202 6.97266 5.69531 8.21484 5.69531 9.43359C5.69531 9.86719 5.94141 10.1719 6.38672 10.1719C6.77344 10.1719 7.01953 9.99609 7.13672 9.60938C7.35938 8.82422 7.64061 8.33203 8.3203 8.33203C9.02343 8.33203 9.42188 8.95312 9.42188 9.78516C9.42188 10.7227 8.76562 11.6719 8.14453 12.4688L6.11719 15.0703C5.89453 15.3516 5.67188 15.6445 5.67188 16.0078C5.67188 16.4062 5.92969 16.6875 6.46875 16.6875ZM14.707 13.418C15.668 13.418 16.3828 12.7852 16.6523 11.7773H16.6992C16.6992 11.8242 16.6992 11.8711 16.6992 11.9062C16.6992 13.207 16.5352 15.5508 15.2227 15.5508C14.6953 15.5508 14.3438 15.1875 14.1328 14.6836C13.9688 14.2969 13.7344 14.1445 13.3828 14.1445C12.8906 14.1445 12.6797 14.4727 12.6797 14.8594C12.6797 15 12.7148 15.1406 12.75 15.2812C12.9961 16.3008 14.0156 16.9219 15.1875 16.9219C17.5898 16.9219 18.293 14.2617 18.293 11.8594C18.293 9.64453 17.5898 6.99609 15.2109 6.99609C13.4297 6.99609 12.3984 8.49609 12.3984 10.3359C12.3984 11.918 13.1602 13.418 14.707 13.418ZM15.2344 12.1289C14.3672 12.1289 14.0156 11.1328 14.0156 10.2656C14.0156 9.38672 14.4141 8.35547 15.2344 8.35547C16.1133 8.35547 16.4766 9.38672 16.4766 10.2656C16.4766 11.168 16.0781 12.1289 15.2344 12.1289Z" fill="black" fill-opacity="0.85"/>
</svg>
