<svg width="24" height="24" viewBox="0 0 24 24" fill="none" xmlns="http://www.w3.org/2000/svg">
<path d="M11.9531 23.9062C18.4922 23.9062 23.9062 18.4805 23.9062 11.9531C23.9062 5.41406 18.4805 0 11.9414 0C5.41406 0 0 5.41406 0 11.9531C0 18.4805 5.42578 23.9062 11.9531 23.9062ZM11.9531 21.9141C6.42188 21.9141 2.00391 17.4844 2.00391 11.9531C2.00391 6.42188 6.41016 1.99219 11.9414 1.99219C17.4727 1.99219 21.9141 6.42188 21.9141 11.9531C21.9141 17.4844 17.4844 21.9141 11.9531 21.9141Z" fill="#007AFF"/>
<path d="M5.92969 16.6875H9.99609C10.418 16.6875 10.6641 16.418 10.6641 16.0078C10.6641 15.5625 10.4062 15.3164 9.99609 15.3164H7.21875V15.2227L8.92969 13.0547C10.1016 11.6016 10.4883 10.7344 10.4883 9.70312C10.4883 8.12109 9.41016 6.97266 7.79297 6.97266C6.29297 6.97266 5.15625 8.21484 5.15625 9.43359C5.15625 9.86719 5.41406 10.1719 5.85938 10.1719C6.24609 10.1719 6.48047 9.99609 6.59766 9.60938C6.82031 8.82422 7.11328 8.33203 7.78125 8.33203C8.49609 8.33203 8.88281 8.95312 8.88281 9.78516C8.88281 10.7227 8.23828 11.6719 7.61719 12.4688L5.57812 15.0703C5.35547 15.3516 5.14453 15.6445 5.14453 16.0078C5.14453 16.4062 5.40234 16.6875 5.92969 16.6875ZM12.9844 16.8398C13.4414 16.8398 13.8398 16.4531 13.8398 15.9727V12.5859H16.7344V15.9727C16.7344 16.4531 17.1211 16.8398 17.5898 16.8398C18.0469 16.8398 18.4336 16.4531 18.4336 15.9727V7.91016C18.4336 7.44141 18.0469 7.05469 17.5898 7.05469C17.1211 7.05469 16.7344 7.44141 16.7344 7.91016V11.1562H13.8398V7.91016C13.8398 7.44141 13.4414 7.05469 12.9844 7.05469C12.5156 7.05469 12.1289 7.44141 12.1289 7.91016V15.9727C12.1289 16.4531 12.5156 16.8398 12.9844 16.8398Z" fill="black" fill-opacity="0.85"/>
</svg>
