<svg width="24" height="24" viewBox="0 0 24 24" fill="none" xmlns="http://www.w3.org/2000/svg">
<path d="M11.9531 23.9062C18.4922 23.9062 23.9062 18.4805 23.9062 11.9531C23.9062 5.41406 18.4805 0 11.9414 0C5.41406 0 0 5.41406 0 11.9531C0 18.4805 5.42578 23.9062 11.9531 23.9062ZM11.9531 21.9141C6.42188 21.9141 2.00391 17.4844 2.00391 11.9531C2.00391 6.42188 6.41016 1.99219 11.9414 1.99219C17.4727 1.99219 21.9141 6.42188 21.9141 11.9531C21.9141 17.4844 17.4844 21.9141 11.9531 21.9141Z" fill="#007AFF"/>
<path d="M11.9766 17.5312C14.4961 17.5312 16.0547 16.207 16.0547 14.3672C16.0547 12.9844 15.0117 11.8828 13.5938 11.7539V11.6602C14.7656 11.4844 15.6797 10.4062 15.6797 9.17578C15.6797 7.54688 14.1797 6.375 12.082 6.375C10.1719 6.375 8.73047 7.26562 8.41406 8.64844C8.37891 8.8125 8.36719 8.94141 8.36719 9.11719C8.36719 9.57422 8.69531 9.89062 9.16406 9.89062C9.58594 9.89062 9.83203 9.69141 9.96094 9.28125C10.2305 8.40234 10.957 7.85156 12.0469 7.85156C13.2188 7.85156 13.9453 8.4375 13.9453 9.38672C13.9453 10.3477 13.125 11.0625 12.0117 11.0625H11.2734C10.8398 11.0625 10.5352 11.3555 10.5352 11.7891C10.5352 12.1992 10.8398 12.5039 11.2734 12.5039H12.0703C13.3945 12.5039 14.2969 13.2305 14.2969 14.2969C14.2969 15.3516 13.3828 16.043 12.0117 16.043C10.7461 16.043 10.0312 15.4219 9.75 14.6133C9.58594 14.2031 9.35156 14.0156 8.94141 14.0156C8.47266 14.0156 8.13281 14.3438 8.13281 14.8125C8.13281 14.9883 8.15625 15.0938 8.19141 15.2578C8.54297 16.6055 10.0664 17.5312 11.9766 17.5312Z" fill="black" fill-opacity="0.85"/>
</svg>
