<svg width="24" height="24" viewBox="0 0 24 24" fill="none" xmlns="http://www.w3.org/2000/svg">
<path d="M11.9531 23.9062C18.4922 23.9062 23.9062 18.4805 23.9062 11.9531C23.9062 5.41406 18.4805 0 11.9414 0C5.41406 0 0 5.41406 0 11.9531C0 18.4805 5.42578 23.9062 11.9531 23.9062Z" fill="#FFCC00"/>
<path d="M11.9883 17.707C10.0078 17.707 8.4375 16.7578 8.07422 15.3633C8.03906 15.1875 8.01562 15.082 8.01562 14.9062C8.01562 14.4141 8.36719 14.0742 8.85938 14.0742C9.28125 14.0742 9.52734 14.2734 9.69141 14.6953C9.98438 15.5273 10.7109 16.1602 12.0234 16.1602C13.4297 16.1602 14.3789 15.457 14.3789 14.3672C14.3789 13.2773 13.4414 12.5273 12.082 12.5273H11.2617C10.8164 12.5273 10.5 12.2109 10.5 11.7891C10.5 11.332 10.8164 11.0273 11.2617 11.0273H12.0234C13.1719 11.0273 14.0156 10.3008 14.0156 9.30469C14.0156 8.33203 13.2656 7.73438 12.0586 7.73438C10.9336 7.73438 10.1836 8.29688 9.91406 9.19922C9.77344 9.62109 9.51562 9.83203 9.08204 9.83203C8.60157 9.83203 8.26172 9.50391 8.26172 9.02344C8.26172 8.84766 8.27344 8.71875 8.30859 8.54297C8.63672 7.11328 10.125 6.19922 12.0938 6.19922C14.2617 6.19922 15.8086 7.40625 15.8086 9.09375C15.8086 10.3594 14.8711 11.4727 13.6523 11.6484V11.7422C15.1172 11.8828 16.1953 13.0195 16.1953 14.4375C16.1953 16.3477 14.5898 17.707 11.9883 17.707Z" fill="black" fill-opacity="0.85"/>
</svg>
