<svg width="22" height="22" viewBox="0 0 22 22" fill="none" xmlns="http://www.w3.org/2000/svg">
<path d="M3.67969 21.5977H17.8945C20.3555 21.5977 21.5742 20.3789 21.5742 17.9648V3.65625C21.5742 1.24219 20.3555 0.0234375 17.8945 0.0234375H3.67969C1.23047 0.0234375 0 1.23047 0 3.65625V17.9648C0 20.3906 1.23047 21.5977 3.67969 21.5977Z" fill="#FFCC00"/>
<path d="M10.8398 16.5469C8.84766 16.5469 7.27734 15.5977 6.91406 14.2031C6.87891 14.0273 6.86719 13.9219 6.86719 13.7461C6.86719 13.2539 7.20703 12.9141 7.69922 12.9141C8.12109 12.9141 8.37891 13.1133 8.53125 13.5352C8.83594 14.3672 9.55078 15 10.875 15C12.2812 15 13.2305 14.2969 13.2305 13.207C13.2305 12.1172 12.2812 11.3672 10.9219 11.3672H10.1016C9.66797 11.3672 9.33984 11.0508 9.33984 10.6289C9.33984 10.1719 9.66797 9.86719 10.1016 9.86719H10.8633C12.0117 9.86719 12.8555 9.14062 12.8555 8.14453C12.8555 7.17188 12.1055 6.57422 10.8984 6.57422C9.78516 6.57422 9.02344 7.13672 8.76562 8.03906C8.61328 8.46094 8.35547 8.67188 7.92188 8.67188C7.44141 8.67188 7.10156 8.34375 7.10156 7.86328C7.10156 7.6875 7.11328 7.55859 7.16016 7.38281C7.47656 5.95312 8.96484 5.03906 10.9336 5.03906C13.1016 5.03906 14.6484 6.24609 14.6484 7.93359C14.6484 9.19922 13.7109 10.3125 12.4922 10.4883V10.582C13.957 10.7227 15.0352 11.8594 15.0352 13.2773C15.0352 15.1875 13.4297 16.5469 10.8398 16.5469Z" fill="black" fill-opacity="0.85"/>
</svg>
