<svg width="22" height="22" viewBox="0 0 22 22" fill="none" xmlns="http://www.w3.org/2000/svg">
<path d="M3.67969 21.5977H17.8945C20.3555 21.5977 21.5742 20.3789 21.5742 17.9648V3.65625C21.5742 1.24219 20.3555 0.0234375 17.8945 0.0234375H3.67969C1.23047 0.0234375 0 1.23047 0 3.65625V17.9648C0 20.3906 1.23047 21.5977 3.67969 21.5977ZM3.70312 19.7109C2.53125 19.7109 1.88672 19.0898 1.88672 17.8711V3.75C1.88672 2.53125 2.53125 1.91016 3.70312 1.91016H17.8711C19.0312 1.91016 19.6875 2.53125 19.6875 3.75V17.8711C19.6875 19.0898 19.0312 19.7109 17.8711 19.7109H3.70312Z" fill="#007AFF"/>
<path d="M10.8398 16.3711C13.3477 16.3711 14.9062 15.0469 14.9062 13.207C14.9062 11.8242 13.8633 10.7227 12.4453 10.5938V10.5C13.6172 10.3242 14.5312 9.24609 14.5312 8.01562C14.5312 6.38672 13.0312 5.21484 10.9336 5.21484C9.02344 5.21484 7.58203 6.10547 7.27734 7.48828C7.23047 7.65234 7.21875 7.78125 7.21875 7.95703C7.21875 8.41406 7.54688 8.73047 8.01562 8.73047C8.4375 8.73047 8.68359 8.53125 8.82422 8.12109C9.08203 7.24219 9.82031 6.69141 10.8984 6.69141C12.0703 6.69141 12.7969 7.27734 12.7969 8.22656C12.7969 9.1875 11.9766 9.90234 10.8633 9.90234H10.125C9.70312 9.90234 9.38672 10.1953 9.38672 10.6289C9.38672 11.0391 9.70312 11.3438 10.125 11.3438H10.9219C12.2461 11.3438 13.1602 12.0703 13.1602 13.1367C13.1602 14.1914 12.2461 14.8828 10.875 14.8828C9.59766 14.8828 8.89453 14.2617 8.60156 13.4531C8.44922 13.043 8.20312 12.8555 7.79297 12.8555C7.32422 12.8555 6.99609 13.1836 6.99609 13.6523C6.99609 13.8281 7.00781 13.9336 7.04297 14.0977C7.39453 15.4453 8.91797 16.3711 10.8398 16.3711Z" fill="black" fill-opacity="0.85"/>
</svg>
