<svg width="24" height="24" viewBox="0 0 24 24" fill="none" xmlns="http://www.w3.org/2000/svg">
<path d="M11.9531 23.9062C18.4922 23.9062 23.9062 18.4805 23.9062 11.9531C23.9062 5.41406 18.4805 0 11.9414 0C5.41406 0 0 5.41406 0 11.9531C0 18.4805 5.42578 23.9062 11.9531 23.9062Z" fill="#FFCC00"/>
<path d="M8.20312 17.0391C6.89062 17.0391 5.67188 16.418 5.32031 15.293C5.26172 15.0938 5.22656 14.8828 5.22656 14.6602C5.22656 14.1797 5.54297 13.8984 6.02344 13.8984C6.41016 13.8984 6.66797 14.0977 6.79688 14.4961C6.9375 15.0352 7.32422 15.6211 8.20312 15.6211C9.10547 15.6211 9.53906 14.918 9.53906 14.0977C9.53906 13.0312 8.97656 12.4805 7.94531 12.4805H7.65234C7.24219 12.4805 6.98438 12.2344 6.98438 11.8359C6.98438 11.4492 7.23047 11.1914 7.65234 11.1914H7.93359C8.83594 11.1914 9.32812 10.5469 9.32812 9.66797C9.32812 8.87109 8.95312 8.26172 8.15625 8.26172C7.47656 8.26172 7.08984 8.70703 6.90234 9.42188C6.78516 9.83203 6.55078 9.99609 6.12891 9.99609C5.64844 9.99609 5.37891 9.66797 5.37891 9.28125C5.37891 9.08203 5.40234 8.85938 5.47266 8.625C5.82422 7.55859 6.90234 6.85547 8.15625 6.85547C9.72656 6.85547 10.9805 7.80469 10.9805 9.48047C10.9805 10.4883 10.4531 11.4609 9.35156 11.7539V11.8008C10.3711 11.9062 11.2734 12.6445 11.2734 14.1445C11.2734 15.9492 9.9375 17.0391 8.20312 17.0391ZM15.668 17.0742C13.2539 17.0742 12.5391 14.3789 12.5391 11.9414C12.5391 9.50391 13.2539 6.80859 15.668 6.80859C18.082 6.80859 18.7969 9.50391 18.7969 11.9414C18.7969 14.3789 18.082 17.0742 15.668 17.0742ZM15.668 15.6328C16.6523 15.6328 17.0273 14.0391 17.0273 11.9414C17.0273 9.83203 16.6523 8.23828 15.668 8.23828C14.6953 8.23828 14.3203 9.83203 14.3203 11.9414C14.3203 14.0391 14.6953 15.6328 15.668 15.6328Z" fill="black" fill-opacity="0.85"/>
</svg>
