<svg width="22" height="22" viewBox="0 0 22 22" fill="none" xmlns="http://www.w3.org/2000/svg">
<path d="M3.67969 21.5977H17.8945C20.3555 21.5977 21.5742 20.3789 21.5742 17.9648V3.65625C21.5742 1.24219 20.3555 0.0234375 17.8945 0.0234375H3.67969C1.23047 0.0234375 0 1.23047 0 3.65625V17.9648C0 20.3906 1.23047 21.5977 3.67969 21.5977Z" fill="#FFCC00"/>
<path d="M7.04297 15.8789C5.74219 15.8789 4.51172 15.2578 4.16016 14.1328C4.10156 13.9336 4.06641 13.7227 4.06641 13.5C4.06641 13.0195 4.38281 12.7383 4.86328 12.7383C5.25 12.7383 5.50781 12.9375 5.63672 13.3359C5.77734 13.875 6.17578 14.4609 7.04297 14.4609C7.94531 14.4609 8.37891 13.7578 8.37891 12.9375C8.37891 11.8711 7.81641 11.3203 6.78516 11.3203H6.49219C6.08203 11.3203 5.82422 11.0742 5.82422 10.6758C5.82422 10.2891 6.07031 10.0312 6.49219 10.0312H6.77344C7.67578 10.0312 8.16797 9.38672 8.16797 8.50781C8.16797 7.71094 7.79297 7.10156 6.99609 7.10156C6.31641 7.10156 5.92969 7.54688 5.74219 8.26172C5.625 8.67188 5.39062 8.83594 4.96875 8.83594C4.48828 8.83594 4.21875 8.50781 4.21875 8.12109C4.21875 7.92188 4.24219 7.69922 4.3125 7.46484C4.66406 6.39844 5.74219 5.69531 6.99609 5.69531C8.57812 5.69531 9.82031 6.64453 9.82031 8.32031C9.82031 9.32812 9.29297 10.3008 8.19141 10.5938V10.6406C9.22266 10.7461 10.1133 11.4844 10.1133 12.9844C10.1133 14.7891 8.78906 15.8789 7.04297 15.8789ZM14.5195 15.9141C12.0938 15.9141 11.3789 13.2188 11.3789 10.7812C11.3789 8.34375 12.0938 5.64844 14.5195 5.64844C16.9219 5.64844 17.6367 8.34375 17.6367 10.7812C17.6367 13.2188 16.9219 15.9141 14.5195 15.9141ZM14.5195 14.4727C15.5039 14.4727 15.8672 12.8789 15.8672 10.7812C15.8672 8.67188 15.5039 7.07812 14.5195 7.07812C13.5352 7.07812 13.1602 8.67188 13.1602 10.7812C13.1602 12.8789 13.5352 14.4727 14.5195 14.4727Z" fill="black" fill-opacity="0.85"/>
</svg>
