<svg width="22" height="22" viewBox="0 0 22 22" fill="none" xmlns="http://www.w3.org/2000/svg">
<path d="M3.67969 21.5977H17.8945C20.3555 21.5977 21.5742 20.3789 21.5742 17.9648V3.65625C21.5742 1.24219 20.3555 0.0234375 17.8945 0.0234375H3.67969C1.23047 0.0234375 0 1.23047 0 3.65625V17.9648C0 20.3906 1.23047 21.5977 3.67969 21.5977ZM3.70312 19.7109C2.53125 19.7109 1.88672 19.0898 1.88672 17.8711V3.75C1.88672 2.53125 2.53125 1.91016 3.70312 1.91016H17.8711C19.0312 1.91016 19.6875 2.53125 19.6875 3.75V17.8711C19.6875 19.0898 19.0312 19.7109 17.8711 19.7109H3.70312Z" fill="#007AFF"/>
<path d="M7.16016 15.7266C8.84766 15.7266 10.1367 14.6719 10.1367 12.9141C10.1367 11.4609 9.26953 10.7461 8.27344 10.6406V10.5938C9.33984 10.3125 9.85547 9.375 9.85547 8.39062C9.85547 6.77344 8.64844 5.84766 7.11328 5.84766C5.90625 5.84766 4.86328 6.52734 4.52344 7.57031C4.45312 7.79297 4.42969 8.00391 4.42969 8.20312C4.42969 8.57812 4.6875 8.89453 5.15625 8.89453C5.55469 8.89453 5.78906 8.73047 5.89453 8.33203C6.08203 7.64062 6.45703 7.19531 7.11328 7.19531C7.88672 7.19531 8.26172 7.80469 8.26172 8.57812C8.26172 9.43359 7.78125 10.0547 6.90234 10.0547H6.62109C6.22266 10.0547 5.97656 10.3008 5.97656 10.6758C5.97656 11.0625 6.23438 11.2969 6.62109 11.2969H6.91406C7.91016 11.2969 8.46094 11.8359 8.46094 12.8672C8.46094 13.6758 8.03906 14.3555 7.16016 14.3555C6.31641 14.3555 5.92969 13.7812 5.78906 13.2539C5.67188 12.8789 5.42578 12.6797 5.05078 12.6797C4.58203 12.6797 4.27734 12.9492 4.27734 13.418C4.27734 13.6289 4.3125 13.8398 4.37109 14.0273C4.71094 15.1172 5.90625 15.7266 7.16016 15.7266ZM14.4023 15.7617C16.7344 15.7617 17.4258 13.1367 17.4258 10.7812C17.4258 8.42578 16.7344 5.80078 14.4023 5.80078C12.0586 5.80078 11.3672 8.42578 11.3672 10.7812C11.3672 13.1367 12.0586 15.7617 14.4023 15.7617ZM14.4023 14.3672C13.4414 14.3672 13.0781 12.8086 13.0781 10.7812C13.0781 8.74219 13.4414 7.18359 14.4023 7.18359C15.3633 7.18359 15.7148 8.74219 15.7148 10.7812C15.7148 12.8086 15.3633 14.3672 14.4023 14.3672Z" fill="black" fill-opacity="0.85"/>
</svg>
