<svg width="24" height="24" viewBox="0 0 24 24" fill="none" xmlns="http://www.w3.org/2000/svg">
<path d="M11.9531 23.9062C18.4922 23.9062 23.9062 18.4805 23.9062 11.9531C23.9062 5.41406 18.4805 0 11.9414 0C5.41406 0 0 5.41406 0 11.9531C0 18.4805 5.42578 23.9062 11.9531 23.9062Z" fill="#FFCC00"/>
<path d="M9.1172 17.0508C7.81642 17.0508 6.58594 16.4297 6.23438 15.3047C6.17578 15.1055 6.14062 14.8945 6.14062 14.6719C6.14062 14.2031 6.45703 13.9102 6.9375 13.9102C7.32422 13.9102 7.58203 14.1094 7.69922 14.5078C7.85156 15.0586 8.23829 15.6445 9.1172 15.6445C10.0078 15.6445 10.4531 14.9297 10.4531 14.0977C10.4531 13.0547 9.89062 12.4922 8.85938 12.4922H8.56641C8.16797 12.4922 7.89844 12.2578 7.89844 11.8594C7.89844 11.4609 8.15625 11.2031 8.56641 11.2031H8.84766C9.76172 11.2031 10.2422 10.5586 10.2422 9.67969C10.2422 8.88281 9.86719 8.27344 9.07031 8.27344C8.39062 8.27344 8.01562 8.71875 7.81641 9.43359C7.69922 9.85547 7.45312 10.0078 7.04297 10.0078C6.5625 10.0078 6.30469 9.69141 6.30469 9.29297C6.30469 9.08203 6.32812 8.87109 6.39844 8.63672C6.73828 7.57031 7.82812 6.86719 9.07031 6.86719C10.6406 6.86719 11.9062 7.81641 11.9062 9.49219C11.9062 10.5 11.3555 11.4844 10.2656 11.7773V11.8125C11.2852 11.918 12.1875 12.6562 12.1875 14.1562C12.1875 15.9609 10.8516 17.0508 9.1172 17.0508ZM16.2539 16.9688C15.7617 16.9688 15.3633 16.5703 15.3633 16.0781V8.75391L14.25 9.64453C14.1328 9.73828 14.0039 9.79688 13.8164 9.79688C13.4531 9.79688 13.1953 9.52734 13.1953 9.15234C13.1953 8.83594 13.3594 8.60156 13.582 8.4375L14.9062 7.40625C15.1875 7.19531 15.5977 6.91406 16.1133 6.91406C16.7461 6.91406 17.1328 7.27734 17.1328 7.89844V16.0781C17.1328 16.5703 16.7344 16.9688 16.2539 16.9688Z" fill="black" fill-opacity="0.85"/>
</svg>
