<svg width="22" height="22" viewBox="0 0 22 22" fill="none" xmlns="http://www.w3.org/2000/svg">
<path d="M3.67969 21.5977H17.8945C20.3555 21.5977 21.5742 20.3789 21.5742 17.9648V3.65625C21.5742 1.24219 20.3555 0.0234375 17.8945 0.0234375H3.67969C1.23047 0.0234375 0 1.23047 0 3.65625V17.9648C0 20.3906 1.23047 21.5977 3.67969 21.5977ZM3.70312 19.7109C2.53125 19.7109 1.88672 19.0898 1.88672 17.8711V3.75C1.88672 2.53125 2.53125 1.91016 3.70312 1.91016H17.8711C19.0312 1.91016 19.6875 2.53125 19.6875 3.75V17.8711C19.6875 19.0898 19.0312 19.7109 17.8711 19.7109H3.70312Z" fill="#007AFF"/>
<path d="M8.03906 15.7383C9.71484 15.7383 11.0156 14.6836 11.0156 12.9258C11.0156 11.4727 10.1367 10.7578 9.15234 10.6523V10.6172C10.2188 10.3359 10.7344 9.38672 10.7344 8.40234C10.7344 6.78516 9.51562 5.85938 7.99219 5.85938C6.78516 5.85938 5.73047 6.53906 5.40234 7.58203C5.33203 7.80469 5.30859 8.01562 5.30859 8.21484C5.30859 8.60156 5.56641 8.90625 6.02344 8.90625C6.43359 8.90625 6.65625 8.75391 6.77344 8.34375C6.96094 7.65234 7.33594 7.21875 7.99219 7.21875C8.76562 7.21875 9.14062 7.81641 9.14062 8.58984C9.14062 9.44531 8.66016 10.0664 7.78125 10.0664H7.5C7.10156 10.0664 6.85547 10.3125 6.85547 10.6992C6.85547 11.0859 7.11328 11.3086 7.5 11.3086H7.79297C8.78906 11.3086 9.33984 11.8594 9.33984 12.8789C9.33984 13.6875 8.90625 14.3789 8.03906 14.3789C7.18359 14.3789 6.80859 13.8047 6.66797 13.2656C6.55078 12.8906 6.30469 12.6914 5.91797 12.6914C5.46094 12.6914 5.15625 12.9727 5.15625 13.4297C5.15625 13.6406 5.19141 13.8516 5.25 14.0391C5.58984 15.1289 6.77344 15.7383 8.03906 15.7383ZM14.9531 15.6562C15.4102 15.6562 15.7969 15.2695 15.7969 14.8008V6.85547C15.7969 6.25781 15.4219 5.90625 14.8125 5.90625C14.3203 5.90625 13.9219 6.17578 13.6523 6.38672L12.3633 7.38281C12.1523 7.54688 11.9883 7.76952 11.9883 8.07421C11.9883 8.43749 12.2344 8.6953 12.5977 8.6953C12.7734 8.6953 12.8906 8.63672 13.0078 8.55469L14.0859 7.6875V14.8008C14.0859 15.2695 14.4727 15.6562 14.9531 15.6562Z" fill="black" fill-opacity="0.85"/>
</svg>
