<svg width="24" height="24" viewBox="0 0 24 24" fill="none" xmlns="http://www.w3.org/2000/svg">
<path d="M11.9531 23.9062C18.4922 23.9062 23.9062 18.4805 23.9062 11.9531C23.9062 5.41406 18.4805 0 11.9414 0C5.41406 0 0 5.41406 0 11.9531C0 18.4805 5.42578 23.9062 11.9531 23.9062ZM11.9531 21.9141C6.42188 21.9141 2.00391 17.4844 2.00391 11.9531C2.00391 6.42188 6.41016 1.99219 11.9414 1.99219C17.4727 1.99219 21.9141 6.42188 21.9141 11.9531C21.9141 17.4844 17.4844 21.9141 11.9531 21.9141Z" fill="#007AFF"/>
<path d="M8.14453 16.8984C9.83203 16.8984 11.1211 15.8438 11.1211 14.0859C11.1211 12.6328 10.2539 11.918 9.25781 11.8125V11.7773C10.3242 11.4961 10.8398 10.5469 10.8398 9.5625C10.8398 7.94531 9.63281 7.01953 8.09766 7.01953C6.89062 7.01953 5.84766 7.69922 5.50781 8.74219C5.44922 8.96484 5.41406 9.17578 5.41406 9.375C5.41406 9.76172 5.67188 10.0664 6.14062 10.0664C6.53906 10.0664 6.77344 9.91406 6.89062 9.50391C7.06641 8.8125 7.44141 8.37891 8.09766 8.37891C8.87109 8.37891 9.24609 8.97656 9.24609 9.75C9.24609 10.6055 8.76562 11.2266 7.88672 11.2266H7.60547C7.20703 11.2266 6.96094 11.4727 6.96094 11.8594C6.96094 12.2461 7.21875 12.4688 7.60547 12.4688H7.91016C8.89453 12.4688 9.44531 13.0195 9.44531 14.0391C9.44531 14.8477 9.02344 15.5391 8.14453 15.5391C7.30078 15.5391 6.91406 14.9648 6.77344 14.4258C6.65625 14.0508 6.41016 13.8516 6.03516 13.8516C5.56641 13.8516 5.26172 14.1328 5.26172 14.5898C5.26172 14.8008 5.29688 15.0117 5.35547 15.1992C5.69531 16.2891 6.89062 16.8984 8.14453 16.8984ZM16.6992 16.8398C17.1328 16.8398 17.4961 16.5703 17.4961 16.0078V14.8359H17.918C18.3633 14.8359 18.5742 14.543 18.5742 14.1445C18.5742 13.7695 18.3867 13.4766 17.918 13.4766H17.4961V8.33203C17.4961 7.52344 16.9688 7.06641 16.1953 7.06641C15.375 7.06641 14.9883 7.48828 14.6602 8.21484L12.5625 12.7617C12.3633 13.2188 12.3047 13.5234 12.3047 13.8867C12.3047 14.4492 12.6914 14.8359 13.2656 14.8359H15.8906V16.0078C15.8906 16.6289 16.3242 16.8398 16.6992 16.8398ZM15.9258 13.5117H13.7461V13.4297L15.8789 8.54297H15.9258V13.5117Z" fill="black" fill-opacity="0.85"/>
</svg>
