<svg width="24" height="24" viewBox="0 0 24 24" fill="none" xmlns="http://www.w3.org/2000/svg">
<path d="M11.9531 23.9062C18.4922 23.9062 23.9062 18.4805 23.9062 11.9531C23.9062 5.41406 18.4805 0 11.9414 0C5.41406 0 0 5.41406 0 11.9531C0 18.4805 5.42578 23.9062 11.9531 23.9062Z" fill="#FFCC00"/>
<path d="M8.03906 17.0508C6.73828 17.0508 5.50781 16.4297 5.15625 15.3047C5.09766 15.1055 5.0625 14.8945 5.0625 14.6719C5.0625 14.2031 5.37891 13.9102 5.85938 13.9102C6.24609 13.9102 6.50391 14.1094 6.62109 14.5078C6.77344 15.0586 7.17188 15.6445 8.03906 15.6445C8.94141 15.6445 9.375 14.9297 9.375 14.0977C9.375 13.0547 8.80078 12.4922 7.79297 12.4922H7.47656C7.07812 12.4922 6.80859 12.2578 6.80859 11.8594C6.80859 11.4609 7.06641 11.2031 7.47656 11.2031H7.76953C8.67188 11.2031 9.16406 10.5586 9.16406 9.67969C9.16406 8.88281 8.77734 8.27344 7.99219 8.27344C7.3125 8.27344 6.92578 8.71875 6.75 9.43359C6.62109 9.85547 6.375 10.0078 5.96484 10.0078C5.48438 10.0078 5.21484 9.69141 5.21484 9.29297C5.21484 9.08203 5.25 8.87109 5.30859 8.63672C5.66016 7.57031 6.73828 6.86719 7.99219 6.86719C9.57422 6.86719 10.8164 7.81641 10.8164 9.49219C10.8164 10.5 10.2891 11.4844 9.1875 11.7773V11.8125C10.207 11.918 11.1094 12.6562 11.1094 14.1562C11.1094 15.9609 9.77344 17.0508 8.03906 17.0508ZM16.8633 16.9922C16.4766 16.9922 16.0312 16.7695 16.0312 16.125V14.9297H13.3242C12.7266 14.9297 12.3281 14.5312 12.3281 13.9453C12.3281 13.5703 12.3867 13.2539 12.5977 12.7852L14.7539 8.09766C15.0938 7.34766 15.4922 6.91406 16.3359 6.91406C17.1445 6.91406 17.6953 7.38281 17.6953 8.22656V13.5234H18.1172C18.6094 13.5234 18.7969 13.8281 18.7969 14.2148C18.7969 14.625 18.5859 14.9297 18.1172 14.9297H17.6953V16.125C17.6953 16.7109 17.3086 16.9922 16.8633 16.9922ZM16.0664 13.5586V8.4375H16.0195L13.8164 13.4766V13.5586H16.0664Z" fill="black" fill-opacity="0.85"/>
</svg>
