<svg width="22" height="22" viewBox="0 0 22 22" fill="none" xmlns="http://www.w3.org/2000/svg">
<path d="M3.67969 21.5977H17.8945C20.3555 21.5977 21.5742 20.3789 21.5742 17.9648V3.65625C21.5742 1.24219 20.3555 0.0234375 17.8945 0.0234375H3.67969C1.23047 0.0234375 0 1.23047 0 3.65625V17.9648C0 20.3906 1.23047 21.5977 3.67969 21.5977Z" fill="#FFCC00"/>
<path d="M6.87891 15.8906C5.57812 15.8906 4.34766 15.2695 3.99609 14.1445C3.9375 13.9453 3.90234 13.7344 3.90234 13.5117C3.90234 13.043 4.23047 12.75 4.69922 12.75C5.08594 12.75 5.34375 12.9492 5.46094 13.3477C5.61328 13.8984 6.01172 14.4844 6.89062 14.4844C7.78125 14.4844 8.21484 13.7695 8.21484 12.9375C8.21484 11.8945 7.65234 11.332 6.63281 11.332H6.31641C5.91797 11.332 5.64844 11.0977 5.64844 10.6992C5.64844 10.3008 5.91797 10.043 6.31641 10.043H6.60938C7.51172 10.043 8.00391 9.39844 8.00391 8.51953C8.00391 7.72266 7.61719 7.11328 6.83203 7.11328C6.15234 7.11328 5.76562 7.55859 5.58984 8.27344C5.46094 8.69531 5.21484 8.84766 4.80469 8.84766C4.32422 8.84766 4.05469 8.53125 4.05469 8.13281C4.05469 7.92188 4.08984 7.71094 4.14844 7.47656C4.5 6.41016 5.57812 5.70703 6.83203 5.70703C8.41406 5.70703 9.65625 6.65625 9.65625 8.33203C9.65625 9.33984 9.12891 10.3242 8.02734 10.6172V10.6523C9.04688 10.7578 9.94922 11.4961 9.94922 12.9961C9.94922 14.8008 8.61328 15.8906 6.87891 15.8906ZM15.7031 15.832C15.3164 15.832 14.8711 15.6094 14.8711 14.9648V13.7695H12.1641C11.5664 13.7695 11.168 13.3711 11.168 12.7852C11.168 12.4102 11.2383 12.0938 11.4375 11.625L13.5938 6.9375C13.9336 6.1875 14.332 5.75391 15.1758 5.75391C15.9844 5.75391 16.5352 6.22266 16.5352 7.06641V12.3633H16.957C17.4492 12.3633 17.6484 12.668 17.6484 13.0547C17.6484 13.4648 17.4258 13.7695 16.957 13.7695H16.5352V14.9648C16.5352 15.5508 16.1484 15.832 15.7031 15.832ZM14.9062 12.3984V7.27734H14.8594L12.6562 12.3164V12.3984H14.9062Z" fill="black" fill-opacity="0.85"/>
</svg>
