<svg width="24" height="24" viewBox="0 0 24 24" fill="none" xmlns="http://www.w3.org/2000/svg">
<path d="M11.9531 23.9062C18.4922 23.9062 23.9062 18.4805 23.9062 11.9531C23.9062 5.41406 18.4805 0 11.9414 0C5.41406 0 0 5.41406 0 11.9531C0 18.4805 5.42578 23.9062 11.9531 23.9062Z" fill="#FFCC00"/>
<path d="M8.27344 17.0508C6.98438 17.0508 5.74219 16.4297 5.40234 15.3047C5.33203 15.1055 5.29688 14.8945 5.29688 14.6719C5.29688 14.2031 5.61328 13.9102 6.10547 13.9102C6.49219 13.9102 6.75 14.1094 6.86719 14.4961C7.00781 15.0586 7.40625 15.6445 8.27344 15.6445C9.17578 15.6445 9.60938 14.9297 9.60938 14.0977C9.60938 13.0547 9.04688 12.4922 8.03905 12.4922H7.72266C7.32422 12.4922 7.05469 12.2578 7.05469 11.8594C7.05469 11.4609 7.3125 11.2031 7.72266 11.2031H8.01562C8.91797 11.2031 9.41016 10.5586 9.41016 9.67969C9.41016 8.88281 9.02343 8.27344 8.22655 8.27344C7.55858 8.27344 7.17188 8.71875 6.98438 9.43359C6.86718 9.85547 6.62109 10.0078 6.21094 10.0078C5.71875 10.0078 5.46094 9.69141 5.46094 9.29297C5.46094 9.08203 5.49609 8.87109 5.55469 8.63672C5.90625 7.57031 6.98437 6.86719 8.22655 6.86719C9.80859 6.86719 11.0625 7.81641 11.0625 9.49219C11.0625 10.5 10.5234 11.4844 9.43359 11.7656V11.8125C10.4531 11.918 11.3555 12.6562 11.3555 14.1562C11.3555 15.9609 10.0195 17.0508 8.27344 17.0508ZM15.6211 17.0859C14.5312 17.0859 13.4531 16.4531 13.0312 15.4688C12.9375 15.2344 12.8555 14.9648 12.8555 14.6836C12.8555 14.2383 13.1367 13.957 13.5938 13.957C13.9102 13.957 14.1797 14.1328 14.3203 14.5312C14.543 15.1875 14.918 15.668 15.5977 15.668C16.4883 15.668 16.8516 14.6484 16.8516 13.6406C16.8516 12.75 16.5117 11.6836 15.6211 11.6836C15.1406 11.6836 14.8359 11.9648 14.5547 12.3633C14.3086 12.6914 14.1094 12.8203 13.7812 12.8203C13.2188 12.8203 12.9844 12.4102 12.9844 11.9531C12.9844 11.7891 12.9961 11.6016 13.0078 11.4141L13.1953 8.10938C13.2422 7.47656 13.5234 7.06641 14.168 7.06641H17.4844C17.8945 7.06641 18.1641 7.38281 18.1641 7.78125C18.1641 8.21484 17.9062 8.50781 17.4844 8.50781H14.6484L14.4492 11.4258H14.5078C14.8125 10.7344 15.4805 10.4062 16.1953 10.4062C17.7422 10.4062 18.5508 11.9297 18.5508 13.5938C18.5508 15.5039 17.5078 17.0859 15.6211 17.0859Z" fill="black" fill-opacity="0.85"/>
</svg>
