<svg width="24" height="24" viewBox="0 0 24 24" fill="none" xmlns="http://www.w3.org/2000/svg">
<path d="M11.9531 23.9062C18.4922 23.9062 23.9062 18.4805 23.9062 11.9531C23.9062 5.41406 18.4805 0 11.9414 0C5.41406 0 0 5.41406 0 11.9531C0 18.4805 5.42578 23.9062 11.9531 23.9062Z" fill="#FFCC00"/>
<path d="M8.69531 17.0508C7.40625 17.0508 6.16406 16.4297 5.8125 15.3047C5.75391 15.1055 5.71875 14.8945 5.71875 14.6719C5.71875 14.2031 6.04688 13.9102 6.51562 13.9102C6.91406 13.9102 7.16016 14.1094 7.28906 14.5078C7.42969 15.0586 7.82812 15.6445 8.70703 15.6445C9.59766 15.6445 10.043 14.9297 10.043 14.0977C10.043 13.0547 9.48047 12.4922 8.44922 12.4922H8.14453C7.74609 12.4922 7.47656 12.2578 7.47656 11.8594C7.47656 11.4609 7.74609 11.2031 8.14453 11.2031H8.42578C9.33984 11.2031 9.83203 10.5586 9.83203 9.67969C9.83203 8.88281 9.45703 8.27344 8.64844 8.27344C7.96875 8.27344 7.60547 8.71875 7.40625 9.43359C7.28906 9.85547 7.04297 10.0078 6.63281 10.0078C6.14062 10.0078 5.88281 9.69141 5.88281 9.29297C5.88281 9.08203 5.91797 8.87109 5.97656 8.63672C6.32812 7.57031 7.40625 6.86719 8.64844 6.86719C10.2305 6.86719 11.4844 7.81641 11.4844 9.49219C11.4844 10.5 10.9453 11.4844 9.84375 11.7773V11.8125C10.875 11.918 11.7656 12.6562 11.7656 14.1562C11.7656 15.9609 10.4414 17.0508 8.69531 17.0508ZM14.6133 17.0039C14.0273 17.0039 13.8164 16.6055 13.8164 16.2539C13.8164 15.9609 13.8516 15.8086 13.957 15.5391L16.6406 8.61328V8.50781H13.5352C13.1133 8.50781 12.832 8.20312 12.832 7.78125C12.832 7.37109 13.1133 7.06641 13.5352 7.06641H17.4375C17.9766 7.06641 18.4102 7.44141 18.4102 8.00391C18.4102 8.35547 18.3164 8.64844 18.1758 9.02344L15.4102 16.3828C15.2578 16.8281 15.0469 17.0039 14.6133 17.0039Z" fill="black" fill-opacity="0.85"/>
</svg>
