<svg width="22" height="22" viewBox="0 0 22 22" fill="none" xmlns="http://www.w3.org/2000/svg">
<path d="M3.67969 21.5977H17.8945C20.3555 21.5977 21.5742 20.3789 21.5742 17.9648V3.65625C21.5742 1.24219 20.3555 0.0234375 17.8945 0.0234375H3.67969C1.23047 0.0234375 0 1.23047 0 3.65625V17.9648C0 20.3906 1.23047 21.5977 3.67969 21.5977Z" fill="#FFCC00"/>
<path d="M7.53516 15.8906C6.24609 15.8906 5.00391 15.2695 4.66406 14.1445C4.59375 13.9453 4.57031 13.7344 4.57031 13.5117C4.57031 13.043 4.88672 12.75 5.35547 12.75C5.75391 12.75 6.01172 12.9492 6.12891 13.3477C6.26953 13.8984 6.66797 14.4844 7.54688 14.4844C8.4375 14.4844 8.88281 13.7695 8.88281 12.9375C8.88281 11.8945 8.32031 11.332 7.28906 11.332H6.99609C6.59766 11.332 6.31641 11.0977 6.31641 10.6992C6.31641 10.3008 6.58594 10.043 6.99609 10.043H7.27734C8.17969 10.043 8.67188 9.39844 8.67188 8.51953C8.67188 7.72266 8.29688 7.11328 7.5 7.11328C6.80859 7.11328 6.44531 7.55859 6.24609 8.27344C6.12891 8.69531 5.88281 8.84766 5.47266 8.84766C4.99219 8.84766 4.72266 8.53125 4.72266 8.13281C4.72266 7.92188 4.75781 7.71094 4.81641 7.47656C5.16797 6.41016 6.24609 5.70703 7.5 5.70703C9.07031 5.70703 10.3242 6.65625 10.3242 8.33203C10.3242 9.33984 9.78516 10.3242 8.69531 10.6172V10.6523C9.71484 10.7578 10.6055 11.4961 10.6055 12.9961C10.6055 14.8008 9.28125 15.8906 7.53516 15.8906ZM13.4531 15.8438C12.8672 15.8438 12.6562 15.4453 12.6562 15.0938C12.6562 14.8008 12.7031 14.6484 12.7969 14.3789L15.4805 7.45312V7.34766H12.375C11.9648 7.34766 11.6719 7.04297 11.6719 6.62109C11.6719 6.21094 11.9648 5.90625 12.375 5.90625H16.2773C16.8164 5.90625 17.25 6.28125 17.25 6.84375C17.25 7.19531 17.1562 7.48828 17.0156 7.86328L14.2617 15.2227C14.0977 15.668 13.8984 15.8438 13.4531 15.8438Z" fill="black" fill-opacity="0.85"/>
</svg>
