<svg width="22" height="22" viewBox="0 0 22 22" fill="none" xmlns="http://www.w3.org/2000/svg">
<path d="M3.67969 21.5977H17.8945C20.3555 21.5977 21.5742 20.3789 21.5742 17.9648V3.65625C21.5742 1.24219 20.3555 0.0234375 17.8945 0.0234375H3.67969C1.23047 0.0234375 0 1.23047 0 3.65625V17.9648C0 20.3906 1.23047 21.5977 3.67969 21.5977Z" fill="#FFCC00"/>
<path d="M6.99609 15.8906C5.69531 15.8906 4.46484 15.2695 4.11328 14.1445C4.05469 13.9453 4.03125 13.7344 4.03125 13.5117C4.03125 13.043 4.34766 12.75 4.81641 12.75C5.20312 12.75 5.47266 12.9492 5.57812 13.3477C5.73047 13.8984 6.12891 14.4844 7.00781 14.4844C7.89844 14.4844 8.34375 13.7695 8.34375 12.9375C8.34375 11.8945 7.78125 11.332 6.75 11.332H6.45703C6.04688 11.332 5.77734 11.0977 5.77734 10.6992C5.77734 10.3008 6.03516 10.043 6.45703 10.043H6.73828C7.62891 10.043 8.12109 9.39844 8.12109 8.51953C8.12109 7.72266 7.75781 7.11328 6.96094 7.11328C6.26953 7.11328 5.89453 7.55859 5.70703 8.27344C5.57812 8.69531 5.34375 8.84766 4.92188 8.84766C4.45312 8.84766 4.18359 8.53125 4.18359 8.13281C4.18359 7.92188 4.20703 7.71094 4.26562 7.47656C4.61719 6.41016 5.69531 5.70703 6.96094 5.70703C8.53125 5.70703 9.77344 6.65625 9.77344 8.33203C9.77344 9.33984 9.24609 10.3242 8.15625 10.6172V10.6523C9.17578 10.7578 10.0664 11.4961 10.0664 12.9961C10.0664 14.8008 8.73047 15.8906 6.99609 15.8906ZM14.4727 15.8906C12.7031 15.8906 11.3438 14.8359 11.3438 13.043C11.3438 11.7305 12.1289 10.7812 13.1602 10.5469V10.5117C12.3867 10.2773 11.625 9.55078 11.625 8.32031C11.625 6.62109 12.9844 5.70703 14.4727 5.70703C16.1719 5.70703 17.332 6.76172 17.332 8.33203C17.332 9.48047 16.6172 10.2656 15.8086 10.5117V10.5469C16.7812 10.7695 17.6133 11.7188 17.6133 13.043C17.6133 14.6953 16.3945 15.8906 14.4727 15.8906ZM14.4844 9.96094C15.2461 9.96094 15.6328 9.29297 15.6328 8.49609C15.6328 7.72266 15.2578 7.00781 14.4844 7.00781C13.7344 7.00781 13.3125 7.72266 13.3125 8.49609C13.3125 9.21094 13.7109 9.96094 14.4844 9.96094ZM14.4844 14.5781C15.3633 14.5781 15.7969 13.793 15.7969 12.9023C15.7969 11.9883 15.3398 11.2617 14.4844 11.2617C13.6055 11.2617 13.1719 12.0352 13.1719 12.9023C13.1719 13.793 13.6055 14.5781 14.4844 14.5781Z" fill="black" fill-opacity="0.85"/>
</svg>
