<svg width="24" height="24" viewBox="0 0 24 24" fill="none" xmlns="http://www.w3.org/2000/svg">
<path d="M11.9531 23.9062C18.4922 23.9062 23.9062 18.4805 23.9062 11.9531C23.9062 5.41406 18.4805 0 11.9414 0C5.41406 0 0 5.41406 0 11.9531C0 18.4805 5.42578 23.9062 11.9531 23.9062Z" fill="#FFCC00"/>
<path d="M8.16797 17.0508C6.86719 17.0508 5.625 16.4297 5.28516 15.3047C5.22656 15.1055 5.19141 14.8945 5.19141 14.6719C5.19141 14.2031 5.50781 13.9102 5.98828 13.9102C6.375 13.9102 6.63281 14.1094 6.75 14.5078C6.89062 15.0586 7.28906 15.6445 8.16797 15.6445C9.05859 15.6445 9.50391 14.9297 9.50391 14.0977C9.50391 13.0547 8.94141 12.4922 7.91016 12.4922H7.61719C7.21875 12.4922 6.94922 12.2578 6.94922 11.8594C6.94922 11.4609 7.20703 11.2031 7.61719 11.2031H7.89844C8.8125 11.2031 9.29297 10.5586 9.29297 9.67969C9.29297 8.88281 8.91797 8.27344 8.12109 8.27344C7.42969 8.27344 7.06641 8.71875 6.86719 9.43359C6.75 9.85547 6.50391 10.0078 6.09375 10.0078C5.61328 10.0078 5.35547 9.69141 5.35547 9.29297C5.35547 9.08203 5.37891 8.87109 5.4375 8.63672C5.78906 7.57031 6.86719 6.86719 8.12109 6.86719C9.69141 6.86719 10.9453 7.81641 10.9453 9.49219C10.9453 10.5 10.4062 11.4844 9.31641 11.7773V11.8125C10.3359 11.918 11.2266 12.6562 11.2266 14.1562C11.2266 15.9609 9.90234 17.0508 8.16797 17.0508ZM14.8711 13.4648C13.2656 13.4648 12.4805 11.918 12.4805 10.2891C12.4805 8.39062 13.5352 6.84375 15.375 6.84375C17.8359 6.84375 18.5625 9.57422 18.5625 11.8594C18.5625 14.332 17.8477 17.0742 15.3633 17.0742C14.1445 17.0742 13.1016 16.4414 12.8438 15.3867C12.7969 15.2461 12.7617 15.0938 12.7617 14.9531C12.7617 14.5547 12.9844 14.2148 13.5 14.2148C13.8633 14.2148 14.0977 14.3672 14.2734 14.7656C14.4844 15.2812 14.8477 15.6562 15.3867 15.6562C16.7461 15.6562 16.9102 13.2422 16.9102 11.9062C16.9102 11.8711 16.9102 11.8242 16.9102 11.7773H16.8633C16.582 12.8086 15.8438 13.4648 14.8711 13.4648ZM15.3984 12.1289C16.2656 12.1289 16.6758 11.1445 16.6758 10.207C16.6758 9.30469 16.3125 8.26172 15.3984 8.26172C14.5664 8.26172 14.1562 9.30469 14.1562 10.207C14.1562 11.0977 14.5078 12.1289 15.3984 12.1289Z" fill="black" fill-opacity="0.85"/>
</svg>
