<svg width="22" height="22" viewBox="0 0 22 22" fill="none" xmlns="http://www.w3.org/2000/svg">
<path d="M3.67969 21.5977H17.8945C20.3555 21.5977 21.5742 20.3789 21.5742 17.9648V3.65625C21.5742 1.24219 20.3555 0.0234375 17.8945 0.0234375H3.67969C1.23047 0.0234375 0 1.23047 0 3.65625V17.9648C0 20.3906 1.23047 21.5977 3.67969 21.5977ZM3.70312 19.7109C2.53125 19.7109 1.88672 19.0898 1.88672 17.8711V3.75C1.88672 2.53125 2.53125 1.91016 3.70312 1.91016H17.8711C19.0312 1.91016 19.6875 2.53125 19.6875 3.75V17.8711C19.6875 19.0898 19.0312 19.7109 17.8711 19.7109H3.70312Z" fill="#007AFF"/>
<path d="M7.125 15.7383C8.80078 15.7383 10.1016 14.6836 10.1016 12.9258C10.1016 11.4727 9.22266 10.7578 8.23828 10.6523V10.6172C9.29297 10.3359 9.82031 9.38672 9.82031 8.40234C9.82031 6.78516 8.60156 5.85938 7.07812 5.85938C5.87109 5.85938 4.81641 6.53906 4.48828 7.58203C4.41797 7.80469 4.39453 8.01562 4.39453 8.21484C4.39453 8.60156 4.65234 8.90625 5.10938 8.90625C5.51953 8.90625 5.74219 8.75391 5.85938 8.34375C6.04688 7.65234 6.42188 7.21875 7.07812 7.21875C7.85156 7.21875 8.21484 7.81641 8.21484 8.58984C8.21484 9.44531 7.74609 10.0664 6.86719 10.0664H6.58594C6.1875 10.0664 5.94141 10.3125 5.94141 10.6992C5.94141 11.0859 6.19922 11.3086 6.58594 11.3086H6.87891C7.875 11.3086 8.42578 11.8594 8.42578 12.8789C8.42578 13.6875 7.99219 14.3789 7.125 14.3789C6.26953 14.3789 5.89453 13.8047 5.74219 13.2656C5.63672 12.8906 5.37891 12.6914 5.00391 12.6914C4.54688 12.6914 4.24219 12.9727 4.24219 13.4297C4.24219 13.6406 4.27734 13.8516 4.33594 14.0391C4.67578 15.1289 5.85938 15.7383 7.125 15.7383ZM13.6172 12.2578C14.5664 12.2578 15.2812 11.625 15.5508 10.6172H15.5977C15.5977 10.6641 15.5977 10.7109 15.5977 10.7461C15.5977 12.0469 15.4336 14.3906 14.1211 14.3906C13.5938 14.3906 13.2422 14.0273 13.043 13.5234C12.8672 13.1367 12.6328 12.9844 12.2812 12.9844C11.7891 12.9844 11.5781 13.3125 11.5781 13.6992C11.5781 13.8398 11.6133 13.9805 11.6484 14.1211C11.9062 15.1406 12.9258 15.7617 14.0977 15.7617C16.5 15.7617 17.1914 13.1016 17.1914 10.6992C17.1914 8.48438 16.4883 5.83594 14.1094 5.83594C12.3281 5.83594 11.2969 7.33594 11.2969 9.17578C11.2969 10.7578 12.0586 12.2578 13.6172 12.2578ZM14.1328 10.9688C13.2656 10.9688 12.9258 9.97266 12.9258 9.10547C12.9258 8.22656 13.3125 7.19531 14.1328 7.19531C15.0234 7.19531 15.375 8.22656 15.375 9.10547C15.375 10.0078 14.9883 10.9688 14.1328 10.9688Z" fill="black" fill-opacity="0.85"/>
</svg>
