<svg width="24" height="24" viewBox="0 0 24 24" fill="none" xmlns="http://www.w3.org/2000/svg">
<path d="M11.9531 23.9062C18.4922 23.9062 23.9062 18.4805 23.9062 11.9531C23.9062 5.41406 18.4805 0 11.9414 0C5.41406 0 0 5.41406 0 11.9531C0 18.4805 5.42578 23.9062 11.9531 23.9062Z" fill="#FFCC00"/>
<path d="M7.34766 14.1914C7.34766 13.9336 7.40625 13.6758 7.54688 13.4297C8.84766 11.1562 10.0195 9.08203 11.2969 6.82031C11.5312 6.42188 11.7891 6.23438 12.1758 6.23438C12.7266 6.23438 13.0195 6.64453 13.0195 7.125C13.0195 7.3125 12.9609 7.5 12.8672 7.69922C11.7422 9.76172 10.6992 11.5664 9.60938 13.5938H12.9609V10.9922C12.9609 10.3477 13.2891 9.97266 13.8281 9.97266C14.4141 9.97266 14.7422 10.3359 14.7422 10.9922V13.5938H15.5508C16.0781 13.5938 16.418 13.8984 16.418 14.3672C16.418 14.8711 16.0781 15.1992 15.5508 15.1992H14.7422V16.4414C14.7422 17.0977 14.4141 17.4609 13.8281 17.4609C13.2891 17.4609 12.9609 17.0859 12.9609 16.4414V15.1992H8.41406C7.74609 15.1992 7.34766 14.8008 7.34766 14.1914Z" fill="black" fill-opacity="0.85"/>
</svg>
