<svg width="22" height="22" viewBox="0 0 22 22" fill="none" xmlns="http://www.w3.org/2000/svg">
<path d="M3.67969 21.5977H17.8945C20.3555 21.5977 21.5742 20.3789 21.5742 17.9648V3.65625C21.5742 1.24219 20.3555 0.0234375 17.8945 0.0234375H3.67969C1.23047 0.0234375 0 1.23047 0 3.65625V17.9648C0 20.3906 1.23047 21.5977 3.67969 21.5977Z" fill="#FFCC00"/>
<path d="M6.1875 13.0312C6.1875 12.7734 6.24609 12.5156 6.38672 12.2695C7.6875 9.99609 8.85938 7.92188 10.1484 5.66016C10.3711 5.26172 10.6289 5.07422 11.0156 5.07422C11.5664 5.07422 11.8711 5.48438 11.8711 5.96484C11.8711 6.15234 11.8008 6.33984 11.707 6.53906C10.582 8.60156 9.53906 10.4062 8.44922 12.4336H11.8008V9.83203C11.8008 9.1875 12.1289 8.8125 12.6797 8.8125C13.2539 8.8125 13.582 9.17578 13.582 9.83203V12.4336H14.3906C14.9297 12.4336 15.2578 12.7383 15.2578 13.207C15.2578 13.7109 14.9297 14.0391 14.3906 14.0391H13.582V15.2812C13.582 15.9375 13.2539 16.3008 12.6797 16.3008C12.1289 16.3008 11.8008 15.9258 11.8008 15.2812V14.0391H7.25391C6.59766 14.0391 6.1875 13.6406 6.1875 13.0312Z" fill="black" fill-opacity="0.85"/>
</svg>
