<svg width="22" height="22" viewBox="0 0 22 22" fill="none" xmlns="http://www.w3.org/2000/svg">
<path d="M3.67969 21.5977H17.8945C20.3555 21.5977 21.5742 20.3789 21.5742 17.9648V3.65625C21.5742 1.24219 20.3555 0.0234375 17.8945 0.0234375H3.67969C1.23047 0.0234375 0 1.23047 0 3.65625V17.9648C0 20.3906 1.23047 21.5977 3.67969 21.5977Z" fill="#FFCC00"/>
<path d="M12.375 16.3008C11.8242 16.3008 11.4844 15.9141 11.4844 15.2812V14.0508H7.14844C6.38672 14.0508 5.89453 13.582 5.89453 12.8672C5.89453 12.5039 5.97656 12.2109 6.22266 11.8008C7.21875 10.1719 8.70703 7.96875 9.97266 6.07031C10.4414 5.34375 10.9805 5.03906 11.8242 5.03906C12.6914 5.03906 13.2891 5.55469 13.2891 6.31641V12.457H14.2031C14.6836 12.457 15 12.7852 15 13.2656C15 13.7344 14.6719 14.0508 14.2031 14.0508H13.2891V15.2812C13.2891 15.9258 12.9492 16.3008 12.375 16.3008ZM11.4844 12.457V6.60938H11.4023C10.1367 8.51953 8.60156 10.8047 7.67578 12.3867V12.457H11.4844Z" fill="black" fill-opacity="0.85"/>
</svg>
