<svg width="22" height="22" viewBox="0 0 22 22" fill="none" xmlns="http://www.w3.org/2000/svg">
<path d="M3.67969 21.5977H17.8945C20.3555 21.5977 21.5742 20.3789 21.5742 17.9648V3.65625C21.5742 1.24219 20.3555 0.0234375 17.8945 0.0234375H3.67969C1.23047 0.0234375 0 1.23047 0 3.65625V17.9648C0 20.3906 1.23047 21.5977 3.67969 21.5977ZM3.70312 19.7109C2.53125 19.7109 1.88672 19.0898 1.88672 17.8711V3.75C1.88672 2.53125 2.53125 1.91016 3.70312 1.91016H17.8711C19.0312 1.91016 19.6875 2.53125 19.6875 3.75V17.8711C19.6875 19.0898 19.0312 19.7109 17.8711 19.7109H3.70312Z" fill="#007AFF"/>
<path d="M12.3281 16.3711C12.8789 16.3711 13.207 16.0078 13.207 15.3867V13.9453H14.0977C14.5547 13.9453 14.8711 13.6406 14.8711 13.1836C14.8711 12.7266 14.5664 12.4102 14.0977 12.4102H13.207V6.44531C13.207 5.70703 12.6328 5.21484 11.8008 5.21484C10.9805 5.21484 10.4648 5.50781 10.0078 6.21094C8.78906 8.03906 7.33594 10.1953 6.36328 11.7773C6.12891 12.1641 6.04688 12.4453 6.04688 12.7969C6.04688 13.4883 6.52734 13.9453 7.26562 13.9453H11.4727V15.3867C11.4727 15.9961 11.8008 16.3711 12.3281 16.3711ZM11.4727 12.4102H7.76953V12.3398C8.66016 10.8047 10.1602 8.57812 11.3906 6.72656H11.4727V12.4102Z" fill="black" fill-opacity="0.85"/>
</svg>
