<svg width="22" height="22" viewBox="0 0 22 22" fill="none" xmlns="http://www.w3.org/2000/svg">
<path d="M3.67969 21.5977H17.8945C20.3555 21.5977 21.5742 20.3789 21.5742 17.9648V3.65625C21.5742 1.24219 20.3555 0.0234375 17.8945 0.0234375H3.67969C1.23047 0.0234375 0 1.23047 0 3.65625V17.9648C0 20.3906 1.23047 21.5977 3.67969 21.5977Z" fill="#FFCC00"/>
<path d="M8.05079 15.832C7.66406 15.832 7.21876 15.6094 7.21876 14.9766V13.7695H4.51173C3.92579 13.7695 3.51562 13.3711 3.51562 12.7852C3.51562 12.4102 3.59767 12.0938 3.79689 11.625L5.94142 6.9375C6.28126 6.1875 6.67969 5.75391 7.54688 5.75391C8.33203 5.75391 8.88281 6.22266 8.88281 7.06641V12.3633H9.31641C9.79689 12.3633 10.0078 12.668 10.0078 13.0547C10.0078 13.4648 9.78516 13.7695 9.31641 13.7695H8.88281V14.9766C8.88281 15.5508 8.51954 15.832 8.05079 15.832ZM7.25392 12.3984V7.27734H7.20703L5.01563 12.3164V12.3984H7.25392ZM14.3672 15.9258C11.9648 15.9258 11.2383 13.2305 11.2383 10.793C11.2383 8.35547 11.9648 5.66016 14.3672 5.66016C16.7812 5.66016 17.5078 8.35547 17.5078 10.793C17.5078 13.2305 16.7812 15.9258 14.3672 15.9258ZM14.3672 14.4844C15.3516 14.4844 15.7266 12.8906 15.7266 10.793C15.7266 8.68359 15.3516 7.10156 14.3672 7.10156C13.3828 7.10156 13.0078 8.68359 13.0078 10.793C13.0078 12.8906 13.3828 14.4844 14.3672 14.4844Z" fill="black" fill-opacity="0.85"/>
</svg>
