<svg width="24" height="24" viewBox="0 0 24 24" fill="none" xmlns="http://www.w3.org/2000/svg">
<path d="M11.9531 23.9062C18.4922 23.9062 23.9062 18.4805 23.9062 11.9531C23.9062 5.41406 18.4805 0 11.9414 0C5.41406 0 0 5.41406 0 11.9531C0 18.4805 5.42578 23.9062 11.9531 23.9062Z" fill="#FFCC00"/>
<path d="M10.125 16.9922C9.73828 16.9922 9.26953 16.7695 9.26953 16.1367V14.9297H6.58594C5.98828 14.9297 5.58984 14.5312 5.58984 13.9453C5.58984 13.5703 5.64844 13.2539 5.85938 12.7852L8.01562 8.09766C8.35547 7.34766 8.75391 6.91406 9.59766 6.91406C10.4062 6.91406 10.9453 7.38281 10.9453 8.22656V13.5234H11.3672C11.8594 13.5234 12.0586 13.8281 12.0586 14.2148C12.0586 14.625 11.8477 14.9297 11.3672 14.9297H10.9453V16.1367C10.9453 16.7109 10.5703 16.9922 10.125 16.9922ZM9.30469 13.5586V8.4375H9.26953L7.07812 13.4766V13.5586H9.30469ZM16.0078 16.9688C15.5039 16.9688 15.1055 16.5703 15.1055 16.0781V8.75391L13.9922 9.64453C13.875 9.73828 13.7578 9.79688 13.5703 9.79688C13.1953 9.79688 12.9375 9.52734 12.9375 9.15234C12.9375 8.83594 13.1133 8.60156 13.3242 8.4375L14.6602 7.40625C14.9297 7.19531 15.3516 6.91406 15.8555 6.91406C16.4883 6.91406 16.875 7.27734 16.875 7.89844V16.0781C16.875 16.5703 16.4766 16.9688 16.0078 16.9688Z" fill="black" fill-opacity="0.85"/>
</svg>
