<svg width="22" height="22" viewBox="0 0 22 22" fill="none" xmlns="http://www.w3.org/2000/svg">
<path d="M3.67969 21.5977H17.8945C20.3555 21.5977 21.5742 20.3789 21.5742 17.9648V3.65625C21.5742 1.24219 20.3555 0.0234375 17.8945 0.0234375H3.67969C1.23047 0.0234375 0 1.23047 0 3.65625V17.9648C0 20.3906 1.23047 21.5977 3.67969 21.5977ZM3.70312 19.7109C2.53125 19.7109 1.88672 19.0898 1.88672 17.8711V3.75C1.88672 2.53125 2.53125 1.91016 3.70312 1.91016H17.8711C19.0312 1.91016 19.6875 2.53125 19.6875 3.75V17.8711C19.6875 19.0898 19.0312 19.7109 17.8711 19.7109H3.70312Z" fill="#007AFF"/>
<path d="M9 15.6797C9.43359 15.6797 9.79688 15.4102 9.79688 14.8477V13.6758H10.2188C10.6641 13.6758 10.875 13.3828 10.875 12.9844C10.875 12.6094 10.6875 12.3164 10.2188 12.3164H9.79688V7.17188C9.79688 6.36328 9.26953 5.90625 8.49609 5.90625C7.67578 5.90625 7.28906 6.32812 6.96094 7.05469L4.86328 11.6016C4.66406 12.0586 4.60547 12.3633 4.60547 12.7266C4.60547 13.2891 4.99219 13.6758 5.56641 13.6758H8.19141V14.8477C8.19141 15.4688 8.625 15.6797 9 15.6797ZM8.22656 12.3516H6.04688V12.2695L8.17969 7.38281H8.22656V12.3516ZM14.6953 15.6562C15.1523 15.6562 15.5391 15.2695 15.5391 14.8008V6.85547C15.5391 6.25781 15.1641 5.90625 14.5547 5.90625C14.0625 5.90625 13.6641 6.17578 13.3945 6.38672L12.1055 7.38281C11.8945 7.54688 11.7305 7.76953 11.7305 8.07422C11.7305 8.4375 11.9766 8.69531 12.3398 8.69531C12.5156 8.69531 12.6328 8.63672 12.75 8.55469L13.8281 7.6875V14.8008C13.8281 15.2695 14.2148 15.6562 14.6953 15.6562Z" fill="black" fill-opacity="0.85"/>
</svg>
