<svg width="22" height="22" viewBox="0 0 22 22" fill="none" xmlns="http://www.w3.org/2000/svg">
<path d="M3.67969 21.5977H17.8945C20.3555 21.5977 21.5742 20.3789 21.5742 17.9648V3.65625C21.5742 1.24219 20.3555 0.0234375 17.8945 0.0234375H3.67969C1.23047 0.0234375 0 1.23047 0 3.65625V17.9648C0 20.3906 1.23047 21.5977 3.67969 21.5977Z" fill="#FFCC00"/>
<path d="M8.96484 15.832C8.57812 15.832 8.12109 15.6094 8.12109 14.9766V13.7695H5.42578C4.82812 13.7695 4.42969 13.3711 4.42969 12.7852C4.42969 12.4102 4.48828 12.0938 4.69922 11.625L6.85547 6.9375C7.19531 6.1875 7.59375 5.75391 8.4375 5.75391C9.24609 5.75391 9.78516 6.22266 9.78516 7.06641V12.3633H10.2188C10.7109 12.3633 10.8984 12.668 10.8984 13.0547C10.8984 13.4648 10.6875 13.7695 10.2188 13.7695H9.78516V14.9766C9.78516 15.5508 9.41016 15.832 8.96484 15.832ZM8.15625 12.3984V7.27734H8.10938L5.91797 12.3164V12.3984H8.15625ZM14.8477 15.8086C14.3438 15.8086 13.9453 15.4102 13.9453 14.918V7.59375L12.832 8.48438C12.7148 8.57812 12.5977 8.63672 12.4102 8.63672C12.0352 8.63672 11.7773 8.36719 11.7773 7.99219C11.7773 7.67578 11.9531 7.44141 12.1641 7.27734L13.5 6.24609C13.7695 6.03516 14.1914 5.75391 14.6953 5.75391C15.3281 5.75391 15.7148 6.11719 15.7148 6.73828V14.918C15.7148 15.4102 15.3164 15.8086 14.8477 15.8086Z" fill="black" fill-opacity="0.85"/>
</svg>
