<svg width="24" height="24" viewBox="0 0 24 24" fill="none" xmlns="http://www.w3.org/2000/svg">
<path d="M11.9531 23.9062C18.4922 23.9062 23.9062 18.4805 23.9062 11.9531C23.9062 5.41406 18.4805 0 11.9414 0C5.41406 0 0 5.41406 0 11.9531C0 18.4805 5.42578 23.9062 11.9531 23.9062Z" fill="#FFCC00"/>
<path d="M9.36329 16.9922C8.97656 16.9922 8.51954 16.7695 8.51954 16.125V14.9297H5.82422C5.22656 14.9297 4.82812 14.5312 4.82812 13.9453C4.82812 13.5703 4.89844 13.2539 5.08594 12.7852L7.24219 8.09766C7.58203 7.34766 7.9922 6.91406 8.83595 6.91406C9.64454 6.91406 10.1836 7.38281 10.1836 8.22656V13.5234H10.6172C11.0977 13.5234 11.2969 13.8281 11.2969 14.2148C11.2969 14.625 11.0742 14.9297 10.6172 14.9297H10.1836V16.125C10.1836 16.7109 9.8086 16.9922 9.36329 16.9922ZM8.5547 13.5586V8.4375H8.50781L6.31641 13.4766V13.5586H8.5547ZM15.5039 17.0508C14.2148 17.0508 12.9727 16.4297 12.6211 15.3047C12.5625 15.1055 12.5273 14.8945 12.5273 14.6719C12.5273 14.2031 12.8555 13.9102 13.3242 13.9102C13.7227 13.9102 13.9688 14.1094 14.0977 14.5078C14.2383 15.0586 14.6367 15.6445 15.5156 15.6445C16.4062 15.6445 16.8516 14.9297 16.8516 14.0977C16.8516 13.0547 16.2891 12.4922 15.2578 12.4922H14.9648C14.5547 12.4922 14.2852 12.2578 14.2852 11.8594C14.2852 11.4609 14.5547 11.2031 14.9648 11.2031H15.2344C16.1484 11.2031 16.6406 10.5586 16.6406 9.67969C16.6406 8.88281 16.2656 8.27344 15.4688 8.27344C14.7773 8.27344 14.4141 8.71875 14.2148 9.43359C14.0977 9.85547 13.8516 10.0078 13.4414 10.0078C12.9492 10.0078 12.6914 9.69141 12.6914 9.29297C12.6914 9.08203 12.7266 8.87109 12.7852 8.63672C13.1367 7.57031 14.2148 6.86719 15.4688 6.86719C17.0391 6.86719 18.293 7.81641 18.293 9.49219C18.293 10.5 17.7539 11.4844 16.6523 11.7773V11.8125C17.6836 11.918 18.5742 12.6562 18.5742 14.1562C18.5742 15.9609 17.25 17.0508 15.5039 17.0508Z" fill="black" fill-opacity="0.85"/>
</svg>
