<svg width="24" height="24" viewBox="0 0 24 24" fill="none" xmlns="http://www.w3.org/2000/svg">
<path d="M11.9531 23.9062C18.4922 23.9062 23.9062 18.4805 23.9062 11.9531C23.9062 5.41406 18.4805 0 11.9414 0C5.41406 0 0 5.41406 0 11.9531C0 18.4805 5.42578 23.9062 11.9531 23.9062ZM11.9531 21.9141C6.42188 21.9141 2.00391 17.4844 2.00391 11.9531C2.00391 6.42188 6.41016 1.99219 11.9414 1.99219C17.4727 1.99219 21.9141 6.42188 21.9141 11.9531C21.9141 17.4844 17.4844 21.9141 11.9531 21.9141Z" fill="#007AFF"/>
<path d="M9.42188 16.8398C9.85547 16.8398 10.2188 16.5703 10.2188 16.0078V14.8359H10.6406C11.0859 14.8359 11.2969 14.543 11.2969 14.1445C11.2969 13.7695 11.1094 13.4766 10.6406 13.4766H10.2188V8.33203C10.2188 7.52344 9.69141 7.06641 8.91797 7.06641C8.09766 7.06641 7.71094 7.48828 7.38281 8.21484L5.28516 12.7617C5.09766 13.2188 5.02734 13.5234 5.02734 13.8867C5.02734 14.4492 5.41406 14.8359 5.98828 14.8359H8.61328V16.0078C8.61328 16.6289 9.04688 16.8398 9.42188 16.8398ZM8.64844 13.5117H6.46875V13.4297L8.60156 8.54297H8.64844V13.5117ZM15.375 16.8984C17.0625 16.8984 18.3516 15.8438 18.3516 14.0859C18.3516 12.6328 17.4844 11.918 16.4883 11.8125V11.7773C17.5547 11.4961 18.0703 10.5469 18.0703 9.5625C18.0703 7.94531 16.8633 7.01953 15.3398 7.01953C14.1211 7.01953 13.0781 7.69922 12.7383 8.74219C12.6797 8.96484 12.6562 9.17578 12.6562 9.375C12.6562 9.76172 12.9023 10.0664 13.3711 10.0664C13.7695 10.0664 14.0039 9.91406 14.1211 9.50391C14.3086 8.8125 14.6719 8.37891 15.3398 8.37891C16.1133 8.37891 16.4766 8.97656 16.4766 9.75C16.4766 10.6055 15.9961 11.2266 15.1172 11.2266H14.8477C14.4492 11.2266 14.1914 11.4727 14.1914 11.8594C14.1914 12.2461 14.4492 12.4688 14.8477 12.4688H15.1406C16.1367 12.4688 16.6875 13.0195 16.6875 14.0391C16.6875 14.8477 16.2539 15.5391 15.3867 15.5391C14.5312 15.5391 14.1445 14.9648 14.0039 14.4258C13.8984 14.0508 13.6406 13.8516 13.2656 13.8516C12.8086 13.8516 12.4922 14.1328 12.4922 14.5898C12.4922 14.8008 12.5273 15.0117 12.5859 15.1992C12.9258 16.2891 14.1211 16.8984 15.375 16.8984Z" fill="black" fill-opacity="0.85"/>
</svg>
