<svg width="24" height="24" viewBox="0 0 24 24" fill="none" xmlns="http://www.w3.org/2000/svg">
<path d="M11.9531 23.9062C18.4922 23.9062 23.9062 18.4805 23.9062 11.9531C23.9062 5.41406 18.4805 0 11.9414 0C5.41406 0 0 5.41406 0 11.9531C0 18.4805 5.42578 23.9062 11.9531 23.9062Z" fill="#FFCC00"/>
<path d="M9.21094 16.9922C8.82422 16.9922 8.36719 16.7695 8.36719 16.125V14.9297H5.67188C5.07422 14.9297 4.67578 14.5312 4.67578 13.9453C4.67578 13.5703 4.73438 13.2539 4.94531 12.7852L7.10156 8.09766C7.44141 7.34766 7.83984 6.91406 8.69531 6.91406C9.49219 6.91406 10.043 7.38281 10.043 8.22656V13.5234H10.4648C10.957 13.5234 11.1562 13.8281 11.1562 14.2148C11.1562 14.625 10.9336 14.9297 10.4648 14.9297H10.043V16.125C10.043 16.7109 9.66797 16.9922 9.21094 16.9922ZM8.40234 13.5586V8.4375H8.36719L6.17578 13.4766V13.5586H8.40234ZM16.8516 16.9922C16.4531 16.9922 16.0078 16.7695 16.0078 16.125V14.9297H13.3008C12.7148 14.9297 12.3047 14.5312 12.3047 13.9453C12.3047 13.5703 12.375 13.2539 12.5742 12.7852L14.7305 8.09766C15.0703 7.34766 15.4688 6.91406 16.3242 6.91406C17.1211 6.91406 17.6719 7.38281 17.6719 8.22656V13.5234H18.1055C18.5859 13.5234 18.7852 13.8281 18.7852 14.2148C18.7852 14.625 18.5625 14.9297 18.1055 14.9297H17.6719V16.125C17.6719 16.7109 17.2969 16.9922 16.8516 16.9922ZM16.0312 13.5586V8.4375H15.9961L13.8047 13.4766V13.5586H16.0312Z" fill="black" fill-opacity="0.85"/>
</svg>
