<svg width="24" height="24" viewBox="0 0 24 24" fill="none" xmlns="http://www.w3.org/2000/svg">
<path d="M11.9531 23.9062C18.4922 23.9062 23.9062 18.4805 23.9062 11.9531C23.9062 5.41406 18.4805 0 11.9414 0C5.41406 0 0 5.41406 0 11.9531C0 18.4805 5.42578 23.9062 11.9531 23.9062Z" fill="#FFCC00"/>
<path d="M9.43359 16.9922C9.05859 16.9922 8.58984 16.7695 8.58984 16.125V14.9297H5.89453C5.30859 14.9297 4.89844 14.5312 4.89844 13.9453C4.89844 13.5703 4.96875 13.2539 5.17969 12.7852L7.33594 8.09766C7.67578 7.34766 8.07422 6.91406 8.91797 6.91406C9.71484 6.91406 10.2656 7.38281 10.2656 8.22656V13.5234H10.6875C11.1797 13.5234 11.3789 13.8281 11.3789 14.2148C11.3789 14.625 11.168 14.9297 10.6875 14.9297H10.2656V16.125C10.2656 16.7109 9.89062 16.9922 9.43359 16.9922ZM8.625 13.5586V8.4375H8.57812L6.38672 13.4766V13.5586H8.625ZM15.5859 17.0859C14.5078 17.0859 13.4297 16.4531 12.9961 15.4688C12.9023 15.2344 12.832 14.9648 12.832 14.6836C12.832 14.2383 13.1133 13.957 13.5586 13.957C13.875 13.957 14.1562 14.1328 14.2852 14.5195C14.5078 15.1875 14.8945 15.668 15.5625 15.668C16.4531 15.668 16.8164 14.6484 16.8164 13.6406C16.8164 12.75 16.4766 11.6836 15.5859 11.6836C15.1055 11.6836 14.8008 11.9648 14.5312 12.3633C14.2734 12.6914 14.0859 12.8203 13.7578 12.8203C13.1953 12.8203 12.9492 12.4102 12.9492 11.9531C12.9492 11.7891 12.9609 11.6016 12.9727 11.4141L13.1719 8.10938C13.2188 7.47656 13.5 7.06641 14.1328 7.06641H17.4492C17.8594 7.06641 18.1289 7.38281 18.1289 7.78125C18.1289 8.21484 17.8711 8.49609 17.4492 8.49609H14.6133L14.4258 11.4258H14.4844C14.7891 10.7344 15.4453 10.4062 16.1484 10.4062C17.707 10.4062 18.5039 11.9297 18.5039 13.5938C18.5039 15.5039 17.4727 17.0859 15.5859 17.0859Z" fill="black" fill-opacity="0.85"/>
</svg>
