<svg width="22" height="22" viewBox="0 0 22 22" fill="none" xmlns="http://www.w3.org/2000/svg">
<path d="M3.67969 21.5977H17.8945C20.3555 21.5977 21.5742 20.3789 21.5742 17.9648V3.65625C21.5742 1.24219 20.3555 0.0234375 17.8945 0.0234375H3.67969C1.23047 0.0234375 0 1.23047 0 3.65625V17.9648C0 20.3906 1.23047 21.5977 3.67969 21.5977ZM3.70312 19.7109C2.53125 19.7109 1.88672 19.0898 1.88672 17.8711V3.75C1.88672 2.53125 2.53125 1.91016 3.70312 1.91016H17.8711C19.0312 1.91016 19.6875 2.53125 19.6875 3.75V17.8711C19.6875 19.0898 19.0312 19.7109 17.8711 19.7109H3.70312Z" fill="#007AFF"/>
<path d="M8.35547 15.6797C8.78906 15.6797 9.15234 15.4102 9.15234 14.8477V13.6758H9.5625C10.0195 13.6758 10.2305 13.3828 10.2305 12.9844C10.2305 12.6094 10.0312 12.3164 9.5625 12.3164H9.15234V7.17188C9.15234 6.36328 8.61328 5.90625 7.85156 5.90625C7.03125 5.90625 6.64453 6.32812 6.31641 7.05469L4.21875 11.6016C4.01953 12.0586 3.94922 12.3633 3.94922 12.7266C3.94922 13.2891 4.34766 13.6758 4.91016 13.6758H7.53516V14.8477C7.53516 15.4688 7.98047 15.6797 8.35547 15.6797ZM7.57031 12.3516H5.40234V12.2695L7.52344 7.38281H7.57031V12.3516ZM14.3086 15.7734C16.1367 15.7734 17.1445 14.2383 17.1445 12.3867C17.1445 10.7695 16.3711 9.29297 14.8594 9.29297C14.168 9.29297 13.5234 9.60938 13.2305 10.2891H13.1719L13.3711 7.44141H16.1133C16.5234 7.44141 16.7695 7.16016 16.7695 6.75C16.7695 6.36328 16.5117 6.05859 16.1133 6.05859H12.9023C12.2812 6.05859 12.0117 6.45703 11.9648 7.06641L11.7773 10.2773C11.7656 10.4531 11.7539 10.6406 11.7539 10.793C11.7539 11.2383 11.9883 11.6367 12.5273 11.6367C12.8438 11.6367 13.0312 11.5078 13.2773 11.1914C13.5469 10.8047 13.8398 10.5234 14.3086 10.5234C15.1758 10.5234 15.5039 11.5664 15.5039 12.4336C15.5039 13.4062 15.1523 14.4023 14.2852 14.4023C13.6289 14.4023 13.2656 13.9336 13.043 13.2891C12.9141 12.9141 12.6445 12.7383 12.3398 12.7383C11.9062 12.7383 11.6367 13.0078 11.6367 13.4414C11.6367 13.7109 11.707 13.9688 11.8008 14.2031C12.2109 15.1523 13.2539 15.7734 14.3086 15.7734Z" fill="black" fill-opacity="0.85"/>
</svg>
