<svg width="24" height="24" viewBox="0 0 24 24" fill="none" xmlns="http://www.w3.org/2000/svg">
<path d="M11.9531 23.9062C18.4922 23.9062 23.9062 18.4805 23.9062 11.9531C23.9062 5.41406 18.4805 0 11.9414 0C5.41406 0 0 5.41406 0 11.9531C0 18.4805 5.42578 23.9062 11.9531 23.9062Z" fill="#FFCC00"/>
<path d="M9.21094 16.9922C8.83594 16.9922 8.36719 16.7695 8.36719 16.125V14.9297H5.66016C5.08594 14.9297 4.67578 14.5312 4.67578 13.9453C4.67578 13.5703 4.74609 13.2539 4.94531 12.7852L7.10156 8.09766C7.44141 7.34766 7.85156 6.91406 8.69531 6.91406C9.49219 6.91406 10.043 7.38281 10.043 8.22656V13.5234H10.4648C10.9453 13.5234 11.1562 13.8281 11.1562 14.2148C11.1562 14.625 10.9336 14.9297 10.4648 14.9297H10.043V16.125C10.043 16.7109 9.66797 16.9922 9.21094 16.9922ZM8.40234 13.5586V8.4375H8.35547L6.16406 13.4766V13.5586H8.40234ZM15.5977 17.0859C13.1367 17.0859 12.4102 14.3555 12.4102 12.0703C12.4102 9.62109 13.125 6.84375 15.6094 6.84375C16.8281 6.84375 17.8711 7.48828 18.1172 8.53125C18.1758 8.68359 18.1875 8.83594 18.1875 8.96484C18.1875 9.36328 17.9766 9.69141 17.4961 9.69141C17.0859 9.69141 16.8633 9.52734 16.6875 9.15234C16.4883 8.64844 16.125 8.26172 15.5742 8.26172C14.2266 8.26172 14.0625 10.6875 14.0625 12.0234C14.0625 12.0586 14.0625 12.1055 14.0625 12.1523H14.1094C14.3906 11.1211 15.1289 10.4648 16.1016 10.4648C17.707 10.4648 18.4922 12.0117 18.4922 13.6406C18.4922 15.5391 17.4375 17.0859 15.5977 17.0859ZM15.5742 15.668C16.418 15.668 16.8047 14.6016 16.8047 13.7227C16.8281 12.832 16.4648 11.7891 15.5742 11.7891C14.707 11.7891 14.2969 12.7852 14.2969 13.6641C14.2969 14.5312 14.6484 15.668 15.5742 15.668Z" fill="black" fill-opacity="0.85"/>
</svg>
