<svg width="24" height="24" viewBox="0 0 24 24" fill="none" xmlns="http://www.w3.org/2000/svg">
<path d="M11.9531 23.9062C18.4922 23.9062 23.9062 18.4805 23.9062 11.9531C23.9062 5.41406 18.4805 0 11.9414 0C5.41406 0 0 5.41406 0 11.9531C0 18.4805 5.42578 23.9062 11.9531 23.9062ZM11.9531 21.9141C6.42188 21.9141 2.00391 17.4844 2.00391 11.9531C2.00391 6.42188 6.41016 1.99219 11.9414 1.99219C17.4727 1.99219 21.9141 6.42188 21.9141 11.9531C21.9141 17.4844 17.4844 21.9141 11.9531 21.9141Z" fill="#007AFF"/>
<path d="M9.86719 16.8398C10.3008 16.8398 10.6641 16.5703 10.6641 16.0078V14.8359H11.0859C11.5312 14.8359 11.7539 14.543 11.7539 14.1445C11.7539 13.7695 11.5547 13.4766 11.0859 13.4766H10.6641V8.33203C10.6641 7.52344 10.1367 7.06641 9.36328 7.06641C8.54297 7.06641 8.15625 7.48828 7.82812 8.21484L5.73047 12.7617C5.54297 13.2188 5.47266 13.5234 5.47266 13.8867C5.47266 14.4492 5.85938 14.8359 6.43359 14.8359H9.05859V16.0078C9.05859 16.6289 9.49219 16.8398 9.86719 16.8398ZM9.09375 13.5117H6.91406V13.4297L9.04688 8.54297H9.09375V13.5117ZM14.3555 16.8516C14.7891 16.8516 14.9766 16.6758 15.1406 16.2539L17.8125 9.10547C17.9414 8.74219 18.0352 8.46094 18.0352 8.12109C18.0352 7.58203 17.6133 7.21875 17.0977 7.21875H13.3125C12.9141 7.21875 12.6328 7.51172 12.6328 7.91016C12.6328 8.30859 12.9141 8.60156 13.3125 8.60156H16.3242V8.70703L13.7227 15.4336C13.6289 15.6914 13.582 15.8438 13.582 16.125C13.582 16.4648 13.793 16.8516 14.3555 16.8516Z" fill="black" fill-opacity="0.85"/>
</svg>
