<svg width="22" height="22" viewBox="0 0 22 22" fill="none" xmlns="http://www.w3.org/2000/svg">
<path d="M3.67969 21.5977H17.8945C20.3555 21.5977 21.5742 20.3789 21.5742 17.9648V3.65625C21.5742 1.24219 20.3555 0.0234375 17.8945 0.0234375H3.67969C1.23047 0.0234375 0 1.23047 0 3.65625V17.9648C0 20.3906 1.23047 21.5977 3.67969 21.5977ZM3.70312 19.7109C2.53125 19.7109 1.88672 19.0898 1.88672 17.8711V3.75C1.88672 2.53125 2.53125 1.91016 3.70312 1.91016H17.8711C19.0312 1.91016 19.6875 2.53125 19.6875 3.75V17.8711C19.6875 19.0898 19.0312 19.7109 17.8711 19.7109H3.70312Z" fill="#007AFF"/>
<path d="M8.71875 15.6797C9.15234 15.6797 9.51562 15.4102 9.51562 14.8477V13.6758H9.9375C10.3828 13.6758 10.6055 13.3828 10.6055 12.9844C10.6055 12.6094 10.4062 12.3164 9.9375 12.3164H9.51562V7.17188C9.51562 6.36328 8.98828 5.90625 8.22656 5.90625C7.39453 5.90625 7.00781 6.32812 6.67969 7.05469L4.58203 11.6016C4.39453 12.0586 4.32422 12.3633 4.32422 12.7266C4.32422 13.2891 4.71094 13.6758 5.28516 13.6758H7.91016V14.8477C7.91016 15.4688 8.34375 15.6797 8.71875 15.6797ZM7.94531 12.3516H5.76562V12.2695L7.89844 7.38281H7.94531V12.3516ZM13.207 15.6914C13.6406 15.6914 13.8281 15.5156 13.9922 15.0938L16.6641 7.94531C16.793 7.58203 16.8867 7.30078 16.8867 6.96094C16.8867 6.42188 16.4766 6.05859 15.9492 6.05859H12.1641C11.7656 6.05859 11.4844 6.35156 11.4844 6.75C11.4844 7.14844 11.7656 7.44141 12.1641 7.44141H15.1758V7.54688L12.5742 14.2734C12.4805 14.5312 12.4336 14.6836 12.4336 14.9648C12.4336 15.3047 12.6562 15.6914 13.207 15.6914Z" fill="black" fill-opacity="0.85"/>
</svg>
