<svg width="22" height="22" viewBox="0 0 22 22" fill="none" xmlns="http://www.w3.org/2000/svg">
<path d="M3.67969 21.5977H17.8945C20.3555 21.5977 21.5742 20.3789 21.5742 17.9648V3.65625C21.5742 1.24219 20.3555 0.0234375 17.8945 0.0234375H3.67969C1.23047 0.0234375 0 1.23047 0 3.65625V17.9648C0 20.3906 1.23047 21.5977 3.67969 21.5977Z" fill="#FFCC00"/>
<path d="M8.05079 15.832C7.66406 15.832 7.21876 15.6094 7.21876 14.9648V13.7695H4.51173C3.92579 13.7695 3.51562 13.3711 3.51562 12.7852C3.51562 12.4102 3.59767 12.0938 3.78517 11.625L5.94142 6.9375C6.28126 6.1875 6.67969 5.75391 7.53516 5.75391C8.33204 5.75391 8.88281 6.22266 8.88281 7.06641V12.3633H9.31641C9.79689 12.3633 9.99609 12.668 9.99609 13.0547C9.99609 13.4648 9.77344 13.7695 9.31641 13.7695H8.88281V14.9648C8.88281 15.5508 8.50781 15.832 8.05079 15.832ZM7.25392 12.3984V7.27734H7.20703L5.01563 12.3164V12.3984H7.25392ZM14.3438 15.8906C12.5742 15.8906 11.2148 14.8359 11.2148 13.043C11.2148 11.7305 12.0117 10.7812 13.043 10.5469V10.5117C12.2695 10.2773 11.4844 9.55078 11.4844 8.32031C11.4844 6.62109 12.8438 5.70703 14.3438 5.70703C16.0547 5.70703 17.2148 6.76172 17.2148 8.33203C17.2148 9.48047 16.4883 10.2656 15.6797 10.5117V10.5469C16.6406 10.7695 17.4844 11.7188 17.4844 13.043C17.4844 14.6953 16.2539 15.8906 14.3438 15.8906ZM14.3438 9.96094C15.1055 9.96094 15.5039 9.29297 15.5039 8.49609C15.5039 7.72266 15.1289 7.00781 14.3438 7.00781C13.5938 7.00781 13.1953 7.72266 13.1953 8.49609C13.1953 9.21094 13.5703 9.96094 14.3438 9.96094ZM14.3438 14.5781C15.2344 14.5781 15.668 13.793 15.668 12.9023C15.668 11.9883 15.1992 11.2617 14.3438 11.2617C13.4766 11.2617 13.0312 12.0352 13.0312 12.9023C13.0312 13.793 13.4648 14.5781 14.3438 14.5781Z" fill="black" fill-opacity="0.85"/>
</svg>
