<svg width="22" height="22" viewBox="0 0 22 22" fill="none" xmlns="http://www.w3.org/2000/svg">
<path d="M3.67969 21.5977H17.8945C20.3555 21.5977 21.5742 20.3789 21.5742 17.9648V3.65625C21.5742 1.24219 20.3555 0.0234375 17.8945 0.0234375H3.67969C1.23047 0.0234375 0 1.23047 0 3.65625V17.9648C0 20.3906 1.23047 21.5977 3.67969 21.5977Z" fill="#FFCC00"/>
<path d="M8.25 15.832C7.86328 15.832 7.39453 15.6094 7.39453 14.9648V13.7695H4.69923C4.11329 13.7695 3.70312 13.3711 3.70312 12.7852C3.70312 12.4102 3.77345 12.0938 3.97267 11.625L6.12892 6.9375C6.46876 6.1875 6.87891 5.75391 7.72266 5.75391C8.51954 5.75391 9.07031 6.22266 9.07031 7.06641V12.3633H9.4922C9.97267 12.3633 10.1836 12.668 10.1836 13.0547C10.1836 13.4648 9.96095 13.7695 9.4922 13.7695H9.07031V14.9648C9.07031 15.5508 8.69531 15.832 8.25 15.832ZM7.42969 12.3984V7.27734H7.38282L5.19142 12.3164V12.3984H7.42969ZM13.7695 12.3047C12.1641 12.3047 11.3789 10.7578 11.3789 9.12891C11.3789 7.23047 12.4453 5.68359 14.2852 5.68359C16.7344 5.68359 17.4609 8.41406 17.4609 10.6992C17.4609 13.1719 16.7461 15.9141 14.2734 15.9141C13.0547 15.9141 12.0117 15.2812 11.7422 14.2266C11.707 14.0859 11.6719 13.9336 11.6719 13.793C11.6719 13.3945 11.8945 13.0547 12.3984 13.0547C12.7617 13.0547 13.0078 13.207 13.1719 13.6055C13.3945 14.1211 13.7578 14.4961 14.2969 14.4961C15.6445 14.4961 15.8086 12.082 15.8086 10.7461C15.8086 10.7109 15.8086 10.6641 15.8086 10.6172H15.7617C15.4922 11.6484 14.7539 12.3047 13.7695 12.3047ZM14.3086 10.9688C15.1758 10.9688 15.5859 9.98438 15.5859 9.04688C15.5859 8.14453 15.2109 7.10156 14.3086 7.10156C13.4648 7.10156 13.0547 8.14453 13.0547 9.04688C13.0547 9.9375 13.418 10.9688 14.3086 10.9688Z" fill="black" fill-opacity="0.85"/>
</svg>
