<svg width="24" height="24" viewBox="0 0 24 24" fill="none" xmlns="http://www.w3.org/2000/svg">
<path d="M11.9531 23.9062C18.4922 23.9062 23.9062 18.4805 23.9062 11.9531C23.9062 5.41406 18.4805 0 11.9414 0C5.41406 0 0 5.41406 0 11.9531C0 18.4805 5.42578 23.9062 11.9531 23.9062ZM11.9531 21.9141C6.42188 21.9141 2.00391 17.4844 2.00391 11.9531C2.00391 6.42188 6.41016 1.99219 11.9414 1.99219C17.4727 1.99219 21.9141 6.42188 21.9141 11.9531C21.9141 17.4844 17.4844 21.9141 11.9531 21.9141Z" fill="#007AFF"/>
<path d="M8.94141 16.8398C9.38672 16.8398 9.75 16.5703 9.75 16.0078V14.8359H10.1602C10.6172 14.8359 10.8281 14.543 10.8281 14.1445C10.8281 13.7695 10.6289 13.4766 10.1602 13.4766H9.75V8.33203C9.75 7.52344 9.21094 7.06641 8.44921 7.06641C7.6289 7.06641 7.24219 7.48828 6.90234 8.21484L4.81641 12.7617C4.61719 13.2188 4.54688 13.5234 4.54688 13.8867C4.54688 14.4492 4.94531 14.8359 5.50781 14.8359H8.1328V16.0078C8.1328 16.6289 8.57812 16.8398 8.94141 16.8398ZM8.16796 13.5117H5.98828V13.4297L8.12109 8.54297H8.16796V13.5117ZM12.6914 16.8516C13.1367 16.8516 13.4414 16.6289 13.5352 16.0781L13.9102 14.4727H16.5469L16.9336 16.0898C17.0508 16.6875 17.4023 16.8516 17.8125 16.8516C18.2695 16.8516 18.5977 16.5 18.5977 16.043C18.5977 15.832 18.5625 15.6914 18.5156 15.5039L16.5469 8.13281C16.3594 7.39453 15.8906 7.07812 15.2227 7.07812C14.5312 7.07812 14.1094 7.44141 13.9336 8.13281L11.9648 15.5156C11.9297 15.6562 11.8828 15.9023 11.8828 16.043C11.8828 16.5234 12.1992 16.8516 12.6914 16.8516ZM14.2148 13.1836L15.1641 9.02344H15.2578L16.2422 13.1836H14.2148Z" fill="black" fill-opacity="0.85"/>
</svg>
