<svg width="24" height="24" viewBox="0 0 24 24" fill="none" xmlns="http://www.w3.org/2000/svg">
<path d="M11.9531 23.9062C18.4922 23.9062 23.9062 18.4805 23.9062 11.9531C23.9062 5.41406 18.4805 0 11.9414 0C5.41406 0 0 5.41406 0 11.9531C0 18.4805 5.42578 23.9062 11.9531 23.9062Z" fill="#FFCC00"/>
<path d="M8.87109 16.9922C8.49609 16.9922 8.02734 16.7695 8.02734 16.125V14.9297H5.33203C4.74609 14.9297 4.33594 14.5312 4.33594 13.9453C4.33594 13.5703 4.40625 13.2539 4.60547 12.7852L6.75 8.09766C7.10156 7.34766 7.51172 6.91406 8.35547 6.91406C9.15234 6.91406 9.70312 7.38281 9.70312 8.22656V13.5234H10.125C10.6172 13.5234 10.8164 13.8281 10.8164 14.2148C10.8164 14.625 10.5938 14.9297 10.125 14.9297H9.70312V16.125C9.70312 16.7109 9.32812 16.9922 8.87109 16.9922ZM8.0625 13.5586V8.4375H8.01562L5.82422 13.4766V13.5586H8.0625ZM12.7383 17.0039C12.2344 17.0039 11.9062 16.6641 11.9062 16.1719C11.9062 16.0195 11.9531 15.7617 11.9883 15.6211L14.0156 8.01562C14.2031 7.30078 14.6367 6.92578 15.3516 6.92578C16.043 6.92578 16.5352 7.25391 16.7227 8.01562L18.75 15.6094C18.7969 15.7969 18.832 15.9492 18.832 16.1719C18.832 16.6406 18.4922 17.0039 18.0234 17.0039C17.6016 17.0039 17.2383 16.8398 17.1094 16.2188L16.7109 14.5547H14.0039L13.6172 16.207C13.5234 16.7695 13.207 17.0039 12.7383 17.0039ZM14.3203 13.2188H16.3945L15.3867 8.94141H15.293L14.3203 13.2188Z" fill="black" fill-opacity="0.85"/>
</svg>
