<svg width="30" height="18" viewBox="0 0 30 18" fill="none" xmlns="http://www.w3.org/2000/svg">
<path d="M9.31641 17.3086C9.89062 17.3086 10.3125 16.8633 10.3125 16.2539V13.4648H11.8594C12.4102 13.4648 12.7852 13.1367 12.7852 12.5859C12.7852 12.0703 12.3984 11.707 11.8594 11.707H10.3125V1.64062C10.3125 0.691406 9.60938 0.0117188 8.625 0.0117188C7.57031 0.0117188 6.96094 0.785156 6.41016 1.65234L0.433594 10.8164C0.152344 11.2617 0 11.7305 0 12.1523C0 12.9023 0.492188 13.4648 1.42969 13.4648H8.32031V16.2539C8.32031 16.9805 8.83594 17.3086 9.31641 17.3086ZM8.33203 11.7305H1.95703V11.625L8.22656 2.09766H8.33203V11.7305ZM16.1719 17.3086C16.793 17.3086 17.0977 17.0742 17.3203 16.418L18.832 12.2812H25.7461L27.2578 16.418C27.4805 17.0742 27.7852 17.3086 28.3945 17.3086C29.0156 17.3086 29.4141 16.9336 29.4141 16.3477C29.4141 16.1484 29.3789 15.9609 29.2852 15.7148L23.7891 1.07812C23.5195 0.363281 23.0391 0 22.2891 0C21.5625 0 21.0703 0.351562 20.8125 1.06641L15.3164 15.7266C15.2227 15.9727 15.1875 16.1602 15.1875 16.3594C15.1875 16.9453 15.5625 17.3086 16.1719 17.3086ZM19.4062 10.5L22.2539 2.61328H22.3125L25.1602 10.5H19.4062Z" fill="black" fill-opacity="0.85"/>
</svg>
