<svg width="24" height="24" viewBox="0 0 24 24" fill="none" xmlns="http://www.w3.org/2000/svg">
<path d="M11.9531 23.9062C18.4922 23.9062 23.9062 18.4805 23.9062 11.9531C23.9062 5.41406 18.4805 0 11.9414 0C5.41406 0 0 5.41406 0 11.9531C0 18.4805 5.42578 23.9062 11.9531 23.9062ZM11.9531 21.9141C6.42188 21.9141 2.00391 17.4844 2.00391 11.9531C2.00391 6.42188 6.41016 1.99219 11.9414 1.99219C17.4727 1.99219 21.9141 6.42188 21.9141 11.9531C21.9141 17.4844 17.4844 21.9141 11.9531 21.9141Z" fill="#007AFF"/>
<path d="M8.78906 16.8398C9.23438 16.8398 9.58594 16.5703 9.58594 16.0078V14.8359H10.0078C10.4648 14.8359 10.6758 14.543 10.6758 14.1445C10.6758 13.7695 10.4766 13.4766 10.0078 13.4766H9.58594V8.33203C9.58594 7.52344 9.05859 7.06641 8.29688 7.06641C7.46484 7.06641 7.07812 7.48828 6.75 8.21484L4.66406 12.7617C4.46484 13.2188 4.39453 13.5234 4.39453 13.8867C4.39453 14.4492 4.78125 14.8359 5.35547 14.8359H7.98047V16.0078C7.98047 16.6289 8.41406 16.8398 8.78906 16.8398ZM8.01562 13.5117H5.83594V13.4297L7.96875 8.54297H8.01562V13.5117ZM12.9727 16.8398C13.4414 16.8398 13.8281 16.4531 13.8281 15.9727V12.5859H16.7227V15.9727C16.7227 16.4531 17.1094 16.8398 17.5781 16.8398C18.0352 16.8398 18.4336 16.4531 18.4336 15.9727V7.91016C18.4336 7.44141 18.0352 7.05469 17.5781 7.05469C17.1094 7.05469 16.7227 7.44141 16.7227 7.91016V11.1562H13.8281V7.91016C13.8281 7.44141 13.4414 7.05469 12.9727 7.05469C12.5039 7.05469 12.1172 7.44141 12.1172 7.91016V15.9727C12.1172 16.4531 12.5039 16.8398 12.9727 16.8398Z" fill="black" fill-opacity="0.85"/>
</svg>
