<svg width="30" height="25" viewBox="0 0 30 25" fill="none" xmlns="http://www.w3.org/2000/svg">
<path d="M3.01172 20.1328H26.2852C28.2891 20.1328 29.2969 19.1602 29.2969 17.1211V3.69141C29.2969 1.65234 28.2891 0.679688 26.2852 0.679688H3.01172C1.01953 0.679688 0 1.65234 0 3.69141V17.1211C0 19.1602 1.01953 20.1328 3.01172 20.1328ZM8.75391 24.1055H20.543C21.0586 24.1055 21.4922 23.6836 21.4922 23.1562C21.4922 22.6289 21.0586 22.207 20.543 22.207H8.75391C8.23828 22.207 7.80469 22.6289 7.80469 23.1562C7.80469 23.6836 8.23828 24.1055 8.75391 24.1055Z" fill="#FFCC00"/>
<path d="M11.4141 15.457C11.0273 15.457 10.5703 15.2227 10.5703 14.5781V13.3828H7.875C7.27734 13.3828 6.87891 12.9844 6.87891 12.3984C6.87891 12.0234 6.94922 11.707 7.14844 11.25L9.30469 6.5625C9.64453 5.8125 10.043 5.37891 10.8984 5.37891C11.6953 5.37891 12.2344 5.83594 12.2344 6.67969V11.9766H12.668C13.1602 11.9766 13.3594 12.2812 13.3594 12.6797C13.3594 13.0781 13.1367 13.3828 12.668 13.3828H12.2344V14.5781C12.2344 15.1641 11.8594 15.457 11.4141 15.457ZM10.6055 12.0117V6.90234H10.5586L8.36719 11.9414V12.0117H10.6055ZM15.7148 15.4688C15.1641 15.4688 14.8359 15.0938 14.8359 14.543V6.31641C14.8359 5.75391 15.1523 5.39062 15.7148 5.39062C16.3008 5.39062 16.6055 5.78906 16.6055 6.31641V10.1016H16.6875L19.418 5.90625C19.5703 5.66016 19.7461 5.41406 20.2031 5.41406C20.7188 5.41406 21.0117 5.8125 21.0117 6.21094C21.0117 6.50391 20.918 6.69141 20.7773 6.87891L18.7031 9.96094L21.0703 13.9102C21.2227 14.1914 21.2695 14.3555 21.2695 14.625C21.2695 15.0938 20.9648 15.4453 20.4844 15.4453C20.0039 15.4453 19.7812 15.2227 19.5352 14.8008L17.4023 11.168L16.6172 12.3867V14.543C16.6172 15.0469 16.3359 15.4688 15.7148 15.4688Z" fill="black" fill-opacity="0.85"/>
</svg>
