<svg width="27" height="18" viewBox="0 0 27 18" fill="none" xmlns="http://www.w3.org/2000/svg">
<path d="M9.31641 17.3086C9.89062 17.3086 10.3125 16.8633 10.3125 16.2539V13.4648H11.8594C12.4102 13.4648 12.7852 13.1367 12.7852 12.5859C12.7852 12.0703 12.3984 11.707 11.8594 11.707H10.3125V1.64062C10.3125 0.691406 9.60938 0.0117188 8.625 0.0117188C7.57031 0.0117188 6.96094 0.785156 6.41016 1.65234L0.433594 10.8164C0.152344 11.2617 0 11.7305 0 12.1523C0 12.9023 0.492188 13.4648 1.42969 13.4648H8.32031V16.2539C8.32031 16.9805 8.83594 17.3086 9.31641 17.3086ZM8.33203 11.7305H1.95703V11.625L8.22656 2.09766H8.33203V11.7305ZM17.332 17.0625H25.7812C26.3555 17.0625 26.7656 16.6758 26.7656 16.1367C26.7656 15.6094 26.3555 15.2461 25.7812 15.2461H18.3867V1.04297C18.3867 0.457031 17.918 0 17.3438 0C16.7695 0 16.3008 0.457031 16.3008 1.04297V15.9727C16.3008 16.7578 16.8047 17.0625 17.332 17.0625Z" fill="black" fill-opacity="0.85"/>
</svg>
