<svg width="22" height="22" viewBox="0 0 22 22" fill="none" xmlns="http://www.w3.org/2000/svg">
<path d="M3.67969 21.5977H17.8945C20.3555 21.5977 21.5742 20.3789 21.5742 17.9648V3.65625C21.5742 1.24219 20.3555 0.0234375 17.8945 0.0234375H3.67969C1.23047 0.0234375 0 1.23047 0 3.65625V17.9648C0 20.3906 1.23047 21.5977 3.67969 21.5977Z" fill="#FFCC00"/>
<path d="M10.7227 16.5469C8.78906 16.5469 7.38281 15.7734 6.91406 14.543C6.82031 14.3555 6.77344 14.168 6.77344 13.957C6.77344 13.4883 7.10156 13.1484 7.59375 13.1484C7.94531 13.1484 8.23828 13.3477 8.44922 13.7344C8.84766 14.5312 9.69141 15.0234 10.6875 15.0234C12.0234 15.0234 13.0195 14.0391 13.0195 12.7148C13.0195 11.3789 12.1641 10.4883 10.8867 10.4883C10.2773 10.4883 9.82031 10.6758 9.24609 11.168C8.76562 11.5312 8.48438 11.625 8.03906 11.625C7.37109 11.625 6.96094 11.168 7.01953 10.4648L7.34766 6.45703C7.39453 5.75391 7.91016 5.30859 8.70703 5.30859H13.7109C14.1328 5.30859 14.4258 5.61328 14.4258 6.05859C14.4258 6.49219 14.1211 6.80859 13.7109 6.80859H8.88281L8.60156 10.0781H8.68359C9.11719 9.48047 10.125 9.04688 11.1211 9.04688C13.3242 9.04688 14.8711 10.5352 14.8711 12.668C14.8711 15.0117 13.1719 16.5469 10.7227 16.5469Z" fill="black" fill-opacity="0.85"/>
</svg>
