<svg width="24" height="24" viewBox="0 0 24 24" fill="none" xmlns="http://www.w3.org/2000/svg">
<path d="M11.9531 23.9062C18.4922 23.9062 23.9062 18.4805 23.9062 11.9531C23.9062 5.41406 18.4805 0 11.9414 0C5.41406 0 0 5.41406 0 11.9531C0 18.4805 5.42578 23.9062 11.9531 23.9062ZM11.9531 21.9141C6.42188 21.9141 2.00391 17.4844 2.00391 11.9531C2.00391 6.42188 6.41016 1.99219 11.9414 1.99219C17.4727 1.99219 21.9141 6.42188 21.9141 11.9531C21.9141 17.4844 17.4844 21.9141 11.9531 21.9141Z" fill="#007AFF"/>
<path d="M8.40234 16.9453C10.2305 16.9453 11.2383 15.4219 11.2383 13.5703C11.2383 11.9531 10.4648 10.4648 8.95312 10.4648C8.26172 10.4648 7.61719 10.7812 7.32422 11.4727H7.26562L7.46484 8.61328H10.207C10.6172 8.61328 10.8633 8.33203 10.8633 7.92188C10.8633 7.53515 10.6055 7.24219 10.207 7.24219H6.99609C6.375 7.24219 6.10547 7.64062 6.05859 8.23828L5.87109 11.4492C5.85938 11.625 5.84766 11.8125 5.84766 11.9648C5.84766 12.4219 6.08203 12.8086 6.62109 12.8086C6.9375 12.8086 7.125 12.6914 7.37109 12.3633C7.64062 11.9766 7.93359 11.6953 8.40234 11.6953C9.26953 11.6953 9.59766 12.7383 9.59766 13.6055C9.59766 14.5781 9.24609 15.5742 8.37891 15.5742C7.72266 15.5742 7.35938 15.1055 7.14844 14.4609C7.00781 14.0859 6.75 13.9102 6.43359 13.9102C6 13.9102 5.73047 14.1797 5.73047 14.6133C5.73047 14.8828 5.80078 15.1406 5.89453 15.375C6.30469 16.3242 7.34766 16.9453 8.40234 16.9453ZM15.5742 16.9453C17.918 16.9453 18.6094 14.3203 18.6094 11.9648C18.6094 9.60938 17.918 6.98438 15.5742 6.98438C13.2422 6.98438 12.5508 9.60938 12.5508 11.9648C12.5508 14.3203 13.2422 16.9453 15.5742 16.9453ZM15.5742 15.5625C14.625 15.5625 14.2617 14.0039 14.2617 11.9648C14.2617 9.9375 14.625 8.37891 15.5742 8.37891C16.5352 8.37891 16.8984 9.9375 16.8984 11.9648C16.8984 14.0039 16.5352 15.5625 15.5742 15.5625Z" fill="black" fill-opacity="0.85"/>
</svg>
