<svg width="22" height="22" viewBox="0 0 22 22" fill="none" xmlns="http://www.w3.org/2000/svg">
<path d="M3.67969 21.5977H17.8945C20.3555 21.5977 21.5742 20.3789 21.5742 17.9648V3.65625C21.5742 1.24219 20.3555 0.0234375 17.8945 0.0234375H3.67969C1.23047 0.0234375 0 1.23047 0 3.65625V17.9648C0 20.3906 1.23047 21.5977 3.67969 21.5977Z" fill="#FFCC00"/>
<path d="M10.8281 16.5469C8.30859 16.5469 6.60938 14.9531 6.60938 12.6328C6.60938 11.3203 7.13672 9.99609 8.37891 8.34375C9.01172 7.51172 9.73828 6.58594 10.5352 5.54297C10.7227 5.30859 10.957 5.05078 11.3438 5.05078C11.9297 5.05078 12.1758 5.42578 12.1758 5.78906C12.1758 6.02344 12.0703 6.21094 11.8945 6.45703C11.2969 7.21875 10.5 8.20312 9.89062 9C9.51562 9.49219 9.35156 9.70312 9.23438 9.91406L9.35155 9.94922C9.76171 9.53906 10.5938 9.22266 11.4141 9.22266C13.5234 9.22266 15.0234 10.7109 15.0234 12.7031C15.0234 14.9531 13.3125 16.5469 10.8281 16.5469ZM10.8281 15.0234C12.2578 15.0234 13.3242 14.0508 13.3242 12.7969C13.3242 11.5195 12.2578 10.5938 10.8164 10.5938C9.38671 10.5938 8.3203 11.5195 8.3203 12.7734C8.3203 14.0508 9.39844 15.0234 10.8281 15.0234Z" fill="black" fill-opacity="0.85"/>
</svg>
