<svg width="22" height="18" viewBox="0 0 22 18" fill="none" xmlns="http://www.w3.org/2000/svg">
<path d="M0 16.7344C0 17.25 0.421875 17.6836 0.9375 17.6836C1.46484 17.6836 1.88672 17.25 1.88672 16.7344V0.960938C1.88672 0.445312 1.46484 0.0234375 0.9375 0.0234375C0.421875 0.0234375 0 0.445312 0 0.960938V16.7344ZM19.6875 16.7344C19.6875 17.25 20.1211 17.6836 20.6367 17.6836C21.1523 17.6836 21.5742 17.25 21.5742 16.7344V0.960938C21.5742 0.445312 21.1523 0.0234375 20.6367 0.0234375C20.1211 0.0234375 19.6875 0.445312 19.6875 0.960938V16.7344Z" fill="#007AFF"/>
<path d="M10.9455 13.7344C12.6682 13.7344 13.8869 12.4336 13.8869 10.5938C13.8869 8.94141 12.9377 7.6875 11.4143 7.6875C10.3596 7.6875 9.62127 8.32031 9.3283 9.22266H9.29315C9.29315 8.41406 9.35174 7.81641 9.46893 7.30078C9.66815 6.48047 10.09 5.70703 10.9338 5.70703C11.508 5.70703 11.9064 6.01172 12.1643 6.52734C12.34 6.82031 12.5627 7.01953 12.9143 7.01953C13.3947 7.01953 13.5822 6.67969 13.5822 6.35156C13.5822 6.14062 13.5354 5.92969 13.4416 5.74219C13.0666 4.93359 12.0822 4.39453 10.9572 4.39453C8.74237 4.39453 7.92206 6.48047 7.81659 8.61328C7.72284 9.57422 7.81659 10.6172 8.08612 11.4375C8.53143 12.7734 9.48065 13.7344 10.9455 13.7344ZM10.9104 12.4219C10.0197 12.4219 9.5158 11.5078 9.5158 10.6055C9.5158 9.67969 10.0666 8.90625 10.9221 8.90625C11.8244 8.90625 12.3049 9.72656 12.3049 10.6523C12.3049 11.5547 11.7893 12.4219 10.9104 12.4219Z" fill="black" fill-opacity="0.85"/>
</svg>
