<svg width="22" height="22" viewBox="0 0 22 22" fill="none" xmlns="http://www.w3.org/2000/svg">
<path d="M3.67969 21.5977H17.8945C20.3555 21.5977 21.5742 20.3789 21.5742 17.9648V3.65625C21.5742 1.24219 20.3555 0.0234375 17.8945 0.0234375H3.67969C1.23047 0.0234375 0 1.23047 0 3.65625V17.9648C0 20.3906 1.23047 21.5977 3.67969 21.5977ZM3.70312 19.7109C2.53125 19.7109 1.88672 19.0898 1.88672 17.8711V3.75C1.88672 2.53125 2.53125 1.91016 3.70312 1.91016H17.8711C19.0312 1.91016 19.6875 2.53125 19.6875 3.75V17.8711C19.6875 19.0898 19.0312 19.7109 17.8711 19.7109H3.70312Z" fill="#007AFF"/>
<path d="M10.8867 16.3711C13.2422 16.3711 14.9062 15 14.9062 12.5977C14.9062 10.3711 13.2188 9.12891 11.3672 9.12891C9.79688 9.12891 8.89453 9.92578 8.50781 10.7695C8.48438 10.7695 8.4375 10.7695 8.41406 10.7695C8.41406 10.7227 8.41406 10.6875 8.41406 10.6523C8.41406 8.25 9.51562 6.70312 11.1211 6.70312C11.9297 6.70312 12.3984 7.06641 12.7383 7.47656C13.1016 7.85156 13.3359 8.05078 13.7344 8.05078C14.1328 8.05078 14.4492 7.76953 14.4492 7.35938C14.4492 7.17188 14.4023 7.00781 14.332 6.84375C13.9688 5.97656 12.7031 5.21484 11.1797 5.21484C8.41406 5.21484 6.69141 7.14844 6.69141 11.0508C6.69141 12.668 6.98438 13.8398 7.47656 14.625C8.22656 15.8672 9.50391 16.3711 10.8867 16.3711ZM10.8164 14.9648C9.50391 14.9648 8.56641 14.0039 8.56641 12.668C8.56641 11.3789 9.49219 10.4648 10.8164 10.4648C12.1523 10.4648 13.0664 11.3672 13.0664 12.6797C13.0664 14.0625 12.1875 14.9648 10.8164 14.9648Z" fill="black" fill-opacity="0.85"/>
</svg>
