<svg width="24" height="24" viewBox="0 0 24 24" fill="none" xmlns="http://www.w3.org/2000/svg">
<path d="M11.9531 23.9062C18.4922 23.9062 23.9062 18.4805 23.9062 11.9531C23.9062 5.41406 18.4805 0 11.9414 0C5.41406 0 0 5.41406 0 11.9531C0 18.4805 5.42578 23.9062 11.9531 23.9062Z" fill="#FFCC00"/>
<path d="M10.3242 17.6953C9.79688 17.6953 9.36328 17.332 9.36328 16.8164C9.36328 16.5703 9.42188 16.4062 9.52734 16.1953L13.9688 8.0625V7.96875H8.83594C8.42578 7.96875 8.12109 7.65234 8.12109 7.21875C8.12109 6.77344 8.41406 6.46875 8.83594 6.46875H14.7539C15.5391 6.46875 16.0781 6.97266 16.0781 7.64062C16.0781 7.89844 16.0195 8.14453 15.7852 8.58984L11.2734 17.0273C11.0391 17.4961 10.7461 17.6953 10.3242 17.6953Z" fill="black" fill-opacity="0.85"/>
</svg>
