<svg width="22" height="18" viewBox="0 0 22 18" fill="none" xmlns="http://www.w3.org/2000/svg">
<path d="M0 16.7344C0 17.25 0.421875 17.6836 0.9375 17.6836C1.46484 17.6836 1.88672 17.25 1.88672 16.7344V0.960938C1.88672 0.445312 1.46484 0.0234375 0.9375 0.0234375C0.421875 0.0234375 0 0.445312 0 0.960938V16.7344ZM19.6875 16.7344C19.6875 17.25 20.1211 17.6836 20.6367 17.6836C21.1523 17.6836 21.5742 17.25 21.5742 16.7344V0.960938C21.5742 0.445312 21.1523 0.0234375 20.6367 0.0234375C20.1211 0.0234375 19.6875 0.445312 19.6875 0.960938V16.7344Z" fill="#007AFF"/>
<path d="M9.72656 13.6523C10.1133 13.6523 10.3125 13.4883 10.4648 13.125L13.3242 6.42188C13.4648 6.11719 13.5703 5.8125 13.5703 5.47266C13.5703 4.91016 13.1484 4.61719 12.6562 4.61719H8.63672C8.25 4.61719 7.98047 4.875 7.98047 5.26172C7.98047 5.64844 8.25 5.91797 8.63672 5.91797H11.9297V6L9.11719 12.375C9.02344 12.5742 8.96484 12.75 8.96484 12.9727C8.96484 13.3828 9.28125 13.6523 9.72656 13.6523Z" fill="black" fill-opacity="0.85"/>
</svg>
