<svg width="24" height="24" viewBox="0 0 24 24" fill="none" xmlns="http://www.w3.org/2000/svg">
<path d="M11.9531 23.9062C18.4922 23.9062 23.9062 18.4805 23.9062 11.9531C23.9062 5.41406 18.4805 0 11.9414 0C5.41406 0 0 5.41406 0 11.9531C0 18.4805 5.42578 23.9062 11.9531 23.9062ZM11.9531 21.9141C6.42188 21.9141 2.00391 17.4844 2.00391 11.9531C2.00391 6.42188 6.41016 1.99219 11.9414 1.99219C17.4727 1.99219 21.9141 6.42188 21.9141 11.9531C21.9141 17.4844 17.4844 21.9141 11.9531 21.9141Z" fill="#007AFF"/>
<path d="M11.918 17.5312C14.4141 17.5312 16.1133 16.2422 16.1133 14.3555C16.1133 13.0547 15.1523 11.9766 13.7578 11.6953V11.625C14.918 11.2852 15.6562 10.3477 15.6562 9.21094C15.6562 7.53516 14.1211 6.375 11.9414 6.375C9.76172 6.375 8.22656 7.53516 8.22656 9.21094C8.22656 10.3477 8.94141 11.2617 10.125 11.625V11.6953C8.71875 11.9766 7.78125 13.0664 7.78125 14.3672C7.78125 16.2656 9.43359 17.5312 11.918 17.5312ZM11.9531 16.2422C10.5703 16.2422 9.5625 15.4219 9.5625 14.2734C9.5625 13.1602 10.582 12.3281 11.9531 12.3281C13.3477 12.3281 14.3438 13.1484 14.3438 14.2734C14.3438 15.4219 13.3242 16.2422 11.9531 16.2422ZM11.9414 11.0977C10.7812 11.0977 9.94922 10.3711 9.94922 9.36328C9.94922 8.37891 10.7695 7.66406 11.9414 7.66406C13.1133 7.66406 13.9336 8.37891 13.9336 9.36328C13.9336 10.3711 13.1016 11.0977 11.9414 11.0977Z" fill="black" fill-opacity="0.85"/>
</svg>
