<svg width="24" height="24" viewBox="0 0 24 24" fill="none" xmlns="http://www.w3.org/2000/svg">
<path d="M11.9531 23.9062C18.4922 23.9062 23.9062 18.4805 23.9062 11.9531C23.9062 5.41406 18.4805 0 11.9414 0C5.41406 0 0 5.41406 0 11.9531C0 18.4805 5.42578 23.9062 11.9531 23.9062Z" fill="#FFCC00"/>
<path d="M11.9297 17.707C9.36328 17.707 7.65234 16.4062 7.65234 14.4492C7.65234 13.1016 8.625 11.9766 10.0781 11.6836V11.6133C8.85938 11.2383 8.12109 10.3008 8.12109 9.14062C8.12109 7.39453 9.70312 6.19922 11.9531 6.19922C14.2031 6.19922 15.7852 7.39453 15.7852 9.14062C15.7852 10.3008 15.0234 11.2617 13.8281 11.6133V11.6836C15.2695 11.9766 16.2656 13.0898 16.2656 14.4375C16.2656 16.3828 14.5078 17.707 11.9297 17.707ZM11.9648 16.3711C13.3711 16.3711 14.4258 15.5273 14.4258 14.3438C14.4258 13.1836 13.4062 12.3398 11.9648 12.3398C10.5586 12.3398 9.50391 13.1953 9.50391 14.3438C9.50391 15.5273 10.5469 16.3711 11.9648 16.3711ZM11.9531 11.0625C13.1484 11.0625 14.0039 10.3242 14.0039 9.28125C14.0039 8.27344 13.1602 7.54688 11.9531 7.54688C10.7461 7.54688 9.90234 8.27344 9.90234 9.28125C9.90234 10.3242 10.7578 11.0625 11.9531 11.0625Z" fill="black" fill-opacity="0.85"/>
</svg>
