<svg width="22" height="22" viewBox="0 0 22 22" fill="none" xmlns="http://www.w3.org/2000/svg">
<path d="M3.67969 21.5977H17.8945C20.3555 21.5977 21.5742 20.3789 21.5742 17.9648V3.65625C21.5742 1.24219 20.3555 0.0234375 17.8945 0.0234375H3.67969C1.23047 0.0234375 0 1.23047 0 3.65625V17.9648C0 20.3906 1.23047 21.5977 3.67969 21.5977Z" fill="#FFCC00"/>
<path d="M10.7695 16.5469C8.20312 16.5469 6.49219 15.2461 6.49219 13.2891C6.49219 11.9414 7.46484 10.8164 8.92969 10.5234V10.4531C7.69922 10.0781 6.96094 9.14062 6.96094 7.98047C6.96094 6.23438 8.54297 5.03906 10.793 5.03906C13.043 5.03906 14.625 6.23438 14.625 7.98047C14.625 9.14062 13.875 10.1016 12.668 10.4531V10.5234C14.1094 10.8164 15.1055 11.9297 15.1055 13.2773C15.1055 15.2227 13.3477 16.5469 10.7695 16.5469ZM10.8047 15.2109C12.2227 15.2109 13.2656 14.3672 13.2656 13.1836C13.2656 12.0234 12.2578 11.1797 10.8047 11.1797C9.39844 11.1797 8.34375 12.0352 8.34375 13.1836C8.34375 14.3672 9.38672 15.2109 10.8047 15.2109ZM10.793 9.90234C12 9.90234 12.8555 9.16406 12.8555 8.12109C12.8555 7.11328 12 6.38672 10.793 6.38672C9.58594 6.38672 8.74219 7.11328 8.74219 8.12109C8.74219 9.16406 9.59766 9.90234 10.793 9.90234Z" fill="black" fill-opacity="0.85"/>
</svg>
