<svg width="22" height="22" viewBox="0 0 22 22" fill="none" xmlns="http://www.w3.org/2000/svg">
<path d="M3.67969 21.5977H17.8945C20.3555 21.5977 21.5742 20.3789 21.5742 17.9648V3.65625C21.5742 1.24219 20.3555 0.0234375 17.8945 0.0234375H3.67969C1.23047 0.0234375 0 1.23047 0 3.65625V17.9648C0 20.3906 1.23047 21.5977 3.67969 21.5977ZM3.70312 19.7109C2.53125 19.7109 1.88672 19.0898 1.88672 17.8711V3.75C1.88672 2.53125 2.53125 1.91016 3.70312 1.91016H17.8711C19.0312 1.91016 19.6875 2.53125 19.6875 3.75V17.8711C19.6875 19.0898 19.0312 19.7109 17.8711 19.7109H3.70312Z" fill="#007AFF"/>
<path d="M6.72656 8.94141C6.72656 10.9102 8.21484 12.3398 10.2539 12.3398C11.0273 12.3398 11.8594 12.0586 12.2578 11.6484H12.3984C12.3047 11.8242 12.1289 12.0703 11.8828 12.3867C11.2266 13.207 10.4531 14.1445 9.76172 15C9.5625 15.2227 9.46875 15.4453 9.46875 15.668C9.46875 16.0195 9.77344 16.3594 10.2422 16.3594C10.6992 16.3594 10.875 16.0898 11.2148 15.668C11.8242 14.9062 12.7148 13.7695 13.3359 12.9375C14.4141 11.4961 14.9297 10.3008 14.9297 9.03516C14.9297 6.76172 13.2539 5.21484 10.8281 5.21484C8.40234 5.21484 6.72656 6.75 6.72656 8.94141ZM8.37891 8.87109C8.37891 7.62891 9.43359 6.70312 10.8281 6.70312C12.2109 6.70312 13.2656 7.64062 13.2656 8.87109C13.2656 10.125 12.2227 11.0273 10.8398 11.0273C9.43359 11.0273 8.37891 10.1133 8.37891 8.87109Z" fill="black" fill-opacity="0.85"/>
</svg>
