<svg width="24" height="24" viewBox="0 0 24 24" fill="none" xmlns="http://www.w3.org/2000/svg">
<path d="M11.9531 23.9062C18.4922 23.9062 23.9062 18.4805 23.9062 11.9531C23.9062 5.41406 18.4805 0 11.9414 0C5.41406 0 0 5.41406 0 11.9531C0 18.4805 5.42578 23.9062 11.9531 23.9062Z" fill="#FFCC00"/>
<path d="M7.75781 10.043C7.75781 7.78125 9.48047 6.19922 11.9883 6.19922C14.4961 6.19922 16.2188 7.79297 16.2188 10.1367C16.2188 11.4492 15.6914 12.6797 14.5781 14.168C13.9219 15.0234 13.0195 16.1953 12.3867 16.9805C12.0469 17.4141 11.8594 17.6953 11.3906 17.6953C10.8984 17.6953 10.582 17.3438 10.582 16.9805C10.582 16.7461 10.6758 16.5234 10.875 16.2891C11.5898 15.4102 12.3867 14.4492 13.0547 13.5938C13.3242 13.2773 13.5117 13.0195 13.6055 12.8438H13.4531C13.043 13.2656 12.1875 13.5469 11.3906 13.5469C9.29297 13.5469 7.75781 12.0703 7.75781 10.043ZM9.46875 9.97266C9.46875 11.25 10.5586 12.1875 12 12.1875C13.418 12.1875 14.4961 11.2617 14.4961 9.97266C14.4961 8.70703 13.4062 7.74609 11.9883 7.74609C10.5586 7.74609 9.46875 8.69531 9.46875 9.97266Z" fill="black" fill-opacity="0.85"/>
</svg>
