<svg width="24" height="24" viewBox="0 0 24 24" fill="none" xmlns="http://www.w3.org/2000/svg">
<path d="M11.9531 23.9062C18.4922 23.9062 23.9062 18.4805 23.9062 11.9531C23.9062 5.41406 18.4805 0 11.9414 0C5.41406 0 0 5.41406 0 11.9531C0 18.4805 5.42578 23.9062 11.9531 23.9062Z" fill="#FFCC00"/>
<path d="M11.6484 17.707C9.62109 17.707 8.48438 16.6992 8.19141 15.8555C8.14453 15.7148 8.12109 15.5742 8.12109 15.4453C8.12109 14.9766 8.44922 14.6602 8.91797 14.6602C9.30469 14.6602 9.53906 14.8594 9.75 15.1406C10.2422 15.8203 10.8047 16.1602 11.6367 16.1602C13.3008 16.1602 14.4258 14.5781 14.4023 11.9297H14.3203C13.9336 12.8203 12.9727 13.6172 11.3672 13.6172C9.48047 13.6172 7.75781 12.3281 7.75781 10.0547C7.75781 7.71094 9.375 6.19922 11.8711 6.19922C14.5898 6.19922 16.1602 8.08594 16.1602 11.5664C16.1602 15.6211 14.5781 17.707 11.6484 17.707ZM11.9414 12.2461C13.2891 12.2461 14.2617 11.2969 14.2617 9.99609C14.2617 8.63672 13.2656 7.64062 11.9531 7.64062C10.5586 7.64062 9.63281 8.56641 9.63281 9.97266C9.63281 11.2969 10.582 12.2461 11.9414 12.2461Z" fill="black" fill-opacity="0.85"/>
</svg>
