<svg width="22" height="22" viewBox="0 0 22 22" fill="none" xmlns="http://www.w3.org/2000/svg">
<path d="M3.67969 21.5977H17.8945C20.3555 21.5977 21.5742 20.3789 21.5742 17.9648V3.65625C21.5742 1.24219 20.3555 0.0234375 17.8945 0.0234375H3.67969C1.23047 0.0234375 0 1.23047 0 3.65625V17.9648C0 20.3906 1.23047 21.5977 3.67969 21.5977ZM3.70312 19.7109C2.53125 19.7109 1.88672 19.0898 1.88672 17.8711V3.75C1.88672 2.53125 2.53125 1.91016 3.70312 1.91016H17.8711C19.0312 1.91016 19.6875 2.53125 19.6875 3.75V17.8711C19.6875 19.0898 19.0312 19.7109 17.8711 19.7109H3.70312Z" fill="#007AFF"/>
<path d="M10.5117 16.3711C13.3359 16.3711 14.8828 14.3438 14.8828 10.418C14.8828 7.04297 13.3477 5.21484 10.7109 5.21484C8.29688 5.21484 6.72656 6.67969 6.72656 8.95312C6.72656 11.1562 8.40234 12.4102 10.2305 12.4102C11.7891 12.4102 12.7148 11.6367 13.0898 10.7695H13.1836C13.207 13.3477 12.1055 14.8828 10.4883 14.8828C9.67969 14.8828 9.14062 14.543 8.64844 13.8867C8.44922 13.6172 8.22656 13.418 7.85156 13.418C7.39453 13.418 7.07812 13.7227 7.07812 14.1797C7.07812 14.3086 7.10156 14.4375 7.14844 14.5781C7.42969 15.3867 8.53125 16.3711 10.5117 16.3711ZM10.7812 11.0859C9.45703 11.0859 8.54297 10.1602 8.54297 8.87109C8.54297 7.51172 9.43359 6.60938 10.793 6.60938C12.0703 6.60938 13.0312 7.57031 13.0312 8.89453C13.0312 10.1602 12.0938 11.0859 10.7812 11.0859Z" fill="black" fill-opacity="0.85"/>
</svg>
