<svg width="24" height="24" viewBox="0 0 24 24" fill="none" xmlns="http://www.w3.org/2000/svg">
<path d="M11.9531 23.9062C18.4922 23.9062 23.9062 18.4805 23.9062 11.9531C23.9062 5.41406 18.4805 0 11.9414 0C5.41406 0 0 5.41406 0 11.9531C0 18.4805 5.42578 23.9062 11.9531 23.9062Z" fill="#FFCC00"/>
<path d="M7.98047 17.6133C7.42969 17.6133 7.07812 17.2734 7.07812 16.7812C7.07812 16.5938 7.10156 16.418 7.20703 16.1484L10.5938 7.03125C10.8398 6.39844 11.2852 6.07031 11.9414 6.07031C12.6094 6.07031 13.0664 6.39844 13.3008 7.03125L16.6992 16.1484C16.793 16.418 16.8281 16.5938 16.8281 16.7812C16.8281 17.2734 16.4648 17.6133 15.9258 17.6133C15.4805 17.6133 15.1758 17.4023 14.9883 16.8398L14.1094 14.2734H9.79688L8.91797 16.8398C8.73047 17.4141 8.41406 17.6133 7.98047 17.6133ZM10.2773 12.8086H13.6172L12.0117 8.14453H11.8828L10.2773 12.8086Z" fill="black" fill-opacity="0.85"/>
</svg>
