<svg width="24" height="24" viewBox="0 0 24 24" fill="none" xmlns="http://www.w3.org/2000/svg">
<path d="M11.9531 23.9062C18.4922 23.9062 23.9062 18.4805 23.9062 11.9531C23.9062 5.41406 18.4805 0 11.9414 0C5.41406 0 0 5.41406 0 11.9531C0 18.4805 5.42578 23.9062 11.9531 23.9062ZM11.9531 21.9141C6.42188 21.9141 2.00391 17.4844 2.00391 11.9531C2.00391 6.42188 6.41016 1.99219 11.9414 1.99219C17.4727 1.99219 21.9141 6.42188 21.9141 11.9531C21.9141 17.4844 17.4844 21.9141 11.9531 21.9141Z" fill="#007AFF"/>
<path d="M8.08594 17.4727C8.50781 17.4727 8.8125 17.2734 8.98828 16.7227L9.84375 14.2266H14.0391L14.8945 16.7227C15.0703 17.2617 15.3633 17.4727 15.7969 17.4727C16.3125 17.4727 16.6641 17.1328 16.6641 16.6641C16.6641 16.4766 16.6172 16.3125 16.5352 16.0547L13.2422 7.20703C13.0195 6.59766 12.5742 6.28125 11.9297 6.28125C11.2969 6.28125 10.8633 6.59766 10.6289 7.20703L7.34766 16.0547C7.25391 16.3125 7.21875 16.4766 7.21875 16.6523C7.21875 17.1445 7.55859 17.4727 8.08594 17.4727ZM10.3125 12.8203L11.8711 8.28516H12L13.5586 12.8203H10.3125Z" fill="black" fill-opacity="0.85"/>
</svg>
