<svg width="46" height="18" viewBox="0 0 46 18" fill="none" xmlns="http://www.w3.org/2000/svg">
<path d="M38.707 17.332C41.6953 17.332 44.0391 16.043 45.1875 13.8047C45.4219 13.3594 45.5625 12.8906 45.5625 12.4688C45.5625 11.8945 45.1523 11.5078 44.5781 11.5078C44.1094 11.5078 43.8516 11.6953 43.582 12.2812C42.7852 14.2734 41.0977 15.375 38.707 15.375C35.2969 15.375 33.1172 12.7969 33.1172 8.625C33.1172 4.52344 35.2969 1.95703 38.707 1.95703C40.957 1.95703 42.7734 3.26953 43.5352 5.29688C43.8047 5.88281 44.1211 6.12891 44.625 6.12891C45.2109 6.12891 45.5977 5.74219 45.5977 5.16797C45.5977 4.86328 45.5391 4.52344 45.3984 4.16016C44.4727 1.58203 41.7891 0 38.707 0C33.9375 0 30.9023 3.31641 30.9023 8.63672C30.9023 14.0039 33.9141 17.332 38.707 17.332Z" fill="black" fill-opacity="0.85"/>
<path d="M17.4023 17.0508H23.0977C26.8125 17.0508 29.0508 15.2227 29.0508 12.4453C29.0508 10.1133 27.3633 8.48438 24.9609 8.21484V8.13281C26.8125 7.82812 28.1719 6.21094 28.1719 4.32422C28.1719 1.96875 26.1211 0.28125 23.0391 0.28125H17.4023C16.7461 0.28125 16.3242 0.703125 16.3242 1.38281V15.9492C16.3242 16.6172 16.7461 17.0508 17.4023 17.0508ZM18.5391 7.53516V2.15625H22.5352C24.6797 2.15625 25.9688 3.15234 25.9688 4.64062C25.9688 6.46875 24.5273 7.53516 22.0547 7.53516H18.5391ZM18.5391 15.1875V9.28125H22.4883C25.2773 9.28125 26.7891 10.3477 26.7891 12.3164C26.7891 14.0977 25.3242 15.1875 22.6875 15.1875H18.5391Z" fill="black" fill-opacity="0.85"/>
<path d="M0.984375 17.3906C1.60547 17.3906 1.91016 17.1211 2.13281 16.4766L3.64453 12.3281H10.5586L12.0703 16.4766C12.293 17.1211 12.5977 17.3906 13.207 17.3906C13.8281 17.3906 14.2266 16.9805 14.2266 16.3945C14.2266 16.1953 14.1914 16.0195 14.0977 15.7617L8.60156 1.13672C8.33203 0.410156 7.85156 0.0117188 7.10156 0.0117188C6.375 0.0117188 5.88281 0.410156 5.625 1.125L0.128906 15.7734C0.0351562 16.0312 0 16.207 0 16.4062C0 16.9922 0.375 17.3906 0.984375 17.3906ZM4.21875 10.5586L7.06641 2.67188H7.125L9.97266 10.5586H4.21875Z" fill="black" fill-opacity="0.85"/>
</svg>
