<svg width="34" height="23" viewBox="0 0 34 23" fill="none" xmlns="http://www.w3.org/2000/svg">
<path d="M0 11.4259C0 15.1407 1.20703 18.5509 3.24609 21.3282C3.60938 21.8321 4.23047 21.879 4.69922 21.504C5.12109 21.1407 5.17969 20.5782 4.83984 20.1095C3.05859 17.6837 2.00391 14.672 2.00391 11.4259C2.00391 8.16805 3.05859 5.16805 4.83984 2.71883C5.17969 2.27352 5.13281 1.6993 4.69922 1.33602C4.23047 0.961017 3.60938 1.01961 3.24609 1.5118C1.20703 4.28914 0 7.71102 0 11.4259ZM33.4453 11.4259C33.4453 7.71102 32.25 4.28914 30.1992 1.5118C29.8359 1.01961 29.2148 0.961017 28.7461 1.33602C28.3125 1.6993 28.2773 2.27352 28.6055 2.71883C30.3984 5.16805 31.4414 8.16805 31.4414 11.4259C31.4414 14.672 30.3984 17.6837 28.6055 20.1095C28.2773 20.5782 28.3242 21.1407 28.7461 21.504C29.2148 21.879 29.8359 21.8321 30.1992 21.3282C32.25 18.5509 33.4453 15.1407 33.4453 11.4259Z" fill="#007AFF"/>
<path d="M16.7227 22.8516C22.9688 22.8516 28.1602 17.6719 28.1602 11.4258C28.1602 5.17969 22.9688 0 16.7109 0C10.4648 0 5.29688 5.16797 5.29688 11.4258C5.29688 17.6719 10.4766 22.8516 16.7227 22.8516ZM16.7227 20.8594C11.4961 20.8594 7.30078 16.6641 7.30078 11.4258C7.30078 6.17578 11.4844 1.98047 16.7109 1.98047C21.9492 1.98047 26.1562 6.17578 26.168 11.4258C26.1797 16.6523 21.9727 20.8594 16.7227 20.8594Z" fill="#007AFF"/>
<path d="M9.76172 15.2461C10.1484 15.2461 10.3594 15.0117 10.418 14.6367L10.6641 13.4531H12.4102L12.6562 14.6484C12.75 15.082 12.9844 15.2461 13.3359 15.2461C13.6875 15.2461 13.957 14.9648 13.957 14.6133C13.957 14.543 13.9219 14.2852 13.8984 14.1797L12.5625 8.44922C12.4336 7.875 12.0938 7.59375 11.5195 7.59375C10.9805 7.59375 10.6523 7.86328 10.5117 8.44922L9.19922 14.1797C9.16406 14.332 9.12891 14.4727 9.12891 14.6133C9.12891 15.0469 9.42188 15.2461 9.76172 15.2461ZM10.8516 12.4336L11.4961 9.17578H11.543L12.2109 12.4336H10.8516ZM15.5977 15.1289H17.3555C18.6094 15.1289 19.2305 14.1797 19.2305 13.0312C19.2305 12.1875 18.7266 11.2852 17.9297 11.2266V11.1797C18.6797 11.0039 19.0195 10.2188 19.0195 9.55078C19.0195 8.44922 18.4102 7.71094 17.3086 7.71094H15.5977C15.2109 7.71094 14.9414 7.92188 14.9414 8.41406V14.4258C14.9414 14.8711 15.1641 15.1289 15.5977 15.1289ZM16.2656 14.1094V11.7656H16.8984C17.5781 11.7656 17.8945 12.2461 17.8945 12.9258C17.8945 13.6055 17.625 14.1094 16.9219 14.1094H16.2656ZM16.2656 10.8516V8.73047H16.9102C17.5312 8.73047 17.7539 9.14062 17.7539 9.75C17.7539 10.4062 17.4727 10.8516 16.8281 10.8516H16.2656ZM22.1367 15.293C23.5078 15.293 24.2461 14.4141 24.2461 13.1133C24.2461 11.918 23.6133 11.3789 22.7578 10.957L22.3359 10.7578C21.7852 10.4766 21.4102 10.1719 21.4102 9.53906C21.4102 9.04688 21.6445 8.63672 22.1133 8.63672C22.6055 8.63672 22.8047 9.03516 22.9219 9.51562C22.9922 9.78516 23.2383 9.94922 23.543 9.94922C23.8828 9.94922 24.0938 9.71484 24.0938 9.39844C24.0938 9.24609 24.0586 9.08203 24 8.91797C23.7305 8.09766 23.0625 7.52344 22.1133 7.52344C21.0117 7.52344 20.1094 8.27344 20.1094 9.65625C20.1094 10.8281 20.7891 11.3906 21.5742 11.8008L21.9844 12C22.5703 12.3047 22.9336 12.5859 22.9336 13.2422C22.9336 13.793 22.6523 14.2031 22.1484 14.2031C21.6445 14.2031 21.4102 13.8281 21.293 13.3242C21.1992 13.0078 21 12.8438 20.6719 12.8438C20.3086 12.8438 20.0977 13.1016 20.0977 13.4531C20.0977 13.5703 20.1211 13.6992 20.1445 13.8164C20.3906 14.7305 21.0938 15.293 22.1367 15.293Z" fill="black" fill-opacity="0.85"/>
</svg>
