<svg width="24" height="24" viewBox="0 0 24 24" fill="none" xmlns="http://www.w3.org/2000/svg">
<path d="M11.9531 23.9062C18.4922 23.9062 23.9062 18.4805 23.9062 11.9531C23.9062 5.41406 18.4805 0 11.9414 0C5.41406 0 0 5.41406 0 11.9531C0 18.4805 5.42578 23.9062 11.9531 23.9062ZM11.9531 21.9141C6.42188 21.9141 2.00391 17.4844 2.00391 11.9531C2.00391 6.42188 6.41016 1.99219 11.9414 1.99219C17.4727 1.99219 21.9141 6.42188 21.9141 11.9531C21.9141 17.4844 17.4844 21.9141 11.9531 21.9141Z" fill="#007AFF"/>
<path d="M4.99219 15.7734C5.37891 15.7734 5.58984 15.5391 5.64844 15.1641L5.89453 13.9805H7.64062L7.88672 15.1758C7.98047 15.6094 8.21484 15.7734 8.56641 15.7734C8.91797 15.7734 9.1875 15.4922 9.1875 15.1406C9.1875 15.0703 9.15234 14.8125 9.12891 14.707L7.79297 8.97656C7.66406 8.40234 7.32422 8.12109 6.75 8.12109C6.21094 8.12109 5.88281 8.39062 5.74219 8.97656L4.42969 14.707C4.39453 14.8594 4.35938 15 4.35938 15.1406C4.35938 15.5742 4.65234 15.7734 4.99219 15.7734ZM6.08203 12.9609L6.72656 9.70312H6.77344L7.44141 12.9609H6.08203ZM10.8281 15.6562H12.5859C13.8398 15.6562 14.4609 14.707 14.4609 13.5586C14.4609 12.7148 13.957 11.8125 13.1602 11.7539V11.707C13.9102 11.5312 14.25 10.7461 14.25 10.0781C14.25 8.97656 13.6406 8.23828 12.5391 8.23828H10.8281C10.4414 8.23828 10.1719 8.44922 10.1719 8.94141V14.9531C10.1719 15.3984 10.3945 15.6562 10.8281 15.6562ZM11.4961 14.6367V12.293H12.1289C12.8086 12.293 13.125 12.7734 13.125 13.4531C13.125 14.1328 12.8438 14.6367 12.1523 14.6367H11.4961ZM11.4961 11.3789V9.25781H12.1406C12.7617 9.25781 12.9844 9.66797 12.9844 10.2773C12.9844 10.9336 12.7031 11.3789 12.0469 11.3789H11.4961ZM17.3672 15.8203C18.7266 15.8203 19.4766 14.9414 19.4766 13.6406C19.4766 12.4453 18.8438 11.9062 17.9883 11.4844L17.5664 11.2852C17.0156 11.0039 16.6406 10.6992 16.6406 10.0664C16.6406 9.57422 16.8633 9.16406 17.3438 9.16406C17.8359 9.16406 18.0352 9.5625 18.1523 10.043C18.2227 10.3125 18.457 10.4766 18.7734 10.4766C19.1133 10.4766 19.3242 10.2422 19.3242 9.92578C19.3242 9.77344 19.2891 9.60938 19.2305 9.44531C18.9609 8.625 18.293 8.05078 17.3438 8.05078C16.2422 8.05078 15.3398 8.80078 15.3398 10.1836C15.3398 11.3555 16.0195 11.918 16.8047 12.3281L17.2148 12.5273C17.8008 12.832 18.1641 13.1133 18.1641 13.7695C18.1641 14.3203 17.8828 14.7305 17.3672 14.7305C16.875 14.7305 16.6406 14.3555 16.5117 13.8516C16.4297 13.5352 16.2305 13.3711 15.8906 13.3711C15.5391 13.3711 15.3281 13.6289 15.3281 13.9805C15.3281 14.0977 15.3516 14.2266 15.375 14.3438C15.6211 15.2578 16.3242 15.8203 17.3672 15.8203Z" fill="black" fill-opacity="0.85"/>
</svg>
