<svg width="23" height="28" viewBox="0 0 23 28" fill="none" xmlns="http://www.w3.org/2000/svg">
<path d="M3.62109 25.4883H14.1914C16.582 25.4883 17.8008 24.2695 17.8008 21.9141V3.5625C17.8008 1.19531 16.5586 0 14.1914 0H3.62109C1.25391 0 0 1.19531 0 3.5625V21.9141C0 24.2695 1.23047 25.4883 3.62109 25.4883ZM1.88672 21.8203V3.66797C1.88672 2.50781 2.54297 1.88672 3.64453 1.88672H14.1562C15.2578 1.88672 15.9141 2.50781 15.9141 3.66797V21.8203C15.9141 22.9688 15.2578 23.6016 14.1562 23.6016H3.64453C2.54297 23.6016 1.88672 22.9688 1.88672 21.8203ZM4.99219 6.79688C5.89453 6.79688 6.64453 6.04688 6.64453 5.13281C6.64453 4.23047 5.89453 3.49219 4.99219 3.49219C4.07812 3.49219 3.33984 4.23047 3.33984 5.13281C3.33984 6.04688 4.07812 6.79688 4.99219 6.79688ZM4.00781 16.0781H7.41797C7.83984 16.0781 8.16797 15.7617 8.16797 15.3398C8.16797 14.9297 7.83984 14.6016 7.41797 14.6016H4.00781C3.59766 14.6016 3.26953 14.9297 3.26953 15.3398C3.26953 15.7617 3.59766 16.0781 4.00781 16.0781ZM4.00781 19.0078H7.41797C7.83984 19.0078 8.16797 18.6914 8.16797 18.2695C8.16797 17.8477 7.83984 17.5312 7.41797 17.5312H4.00781C3.59766 17.5312 3.26953 17.8477 3.26953 18.2695C3.26953 18.6914 3.59766 19.0078 4.00781 19.0078ZM4.00781 21.9375H7.41797C7.83984 21.9375 8.16797 21.6094 8.16797 21.1992C8.16797 20.7773 7.83984 20.4492 7.41797 20.4492H4.00781C3.59766 20.4492 3.26953 20.7773 3.26953 21.1992C3.26953 21.6094 3.59766 21.9375 4.00781 21.9375ZM10.3828 16.0781H13.793C14.2031 16.0781 14.5312 15.7617 14.5312 15.3398C14.5312 14.9297 14.2031 14.6016 13.793 14.6016H10.3828C9.96094 14.6016 9.63281 14.9297 9.63281 15.3398C9.63281 15.7617 9.96094 16.0781 10.3828 16.0781ZM10.3828 19.0078H13.793C14.2031 19.0078 14.5312 18.6914 14.5312 18.2695C14.5312 17.8477 14.2031 17.5312 13.793 17.5312H10.3828C9.96094 17.5312 9.63281 17.8477 9.63281 18.2695C9.63281 18.6914 9.96094 19.0078 10.3828 19.0078ZM10.3828 21.9375H13.793C14.2031 21.9375 14.5312 21.6094 14.5312 21.1992C14.5312 20.7773 14.2031 20.4492 13.793 20.4492H10.3828C9.96094 20.4492 9.63281 20.7773 9.63281 21.1992C9.63281 21.6094 9.96094 21.9375 10.3828 21.9375ZM3.39844 27.5508C3.96094 27.5508 4.33594 27.1641 4.33594 26.6016V24.3047H2.44922V26.6016C2.44922 27.1641 2.83594 27.5508 3.39844 27.5508ZM14.4023 27.5508C14.9766 27.5508 15.3516 27.1641 15.3516 26.6016V24.3047H13.4648V26.6016C13.4648 27.1641 13.8398 27.5508 14.4023 27.5508Z" fill="#007AFF"/>
<path d="M12.4806 6.14062C15.6095 6.14062 17.2384 3.59766 19.9689 3.59766C20.6017 3.59766 21.129 3.72656 21.8087 4.11328C22.2306 4.33594 22.6056 4.17188 22.7931 3.90234C23.0157 3.5625 23.004 3.04688 22.4884 2.75391C21.7032 2.29688 20.8595 2.07422 19.9689 2.07422C16.7931 2.07422 15.1642 4.62891 12.4806 4.62891C11.8478 4.62891 11.3204 4.48828 10.6407 4.11328C10.2423 3.87891 9.84385 4.03125 9.65635 4.33594C9.44541 4.66406 9.46885 5.19141 9.96104 5.46094C10.7345 5.94141 11.5899 6.14062 12.4806 6.14062ZM12.4923 9.38672C15.6095 9.38672 17.2501 6.83203 19.9689 6.83203C20.6134 6.83203 21.1407 6.96094 21.8204 7.34766C22.2306 7.58203 22.6173 7.41797 22.8048 7.13672C23.0157 6.80859 23.0157 6.28125 22.5118 5.98828C21.7149 5.53125 20.8595 5.30859 19.9689 5.30859C16.8048 5.30859 15.1759 7.875 12.4923 7.875C11.8478 7.875 11.3204 7.72266 10.6524 7.34766C10.254 7.11328 9.84385 7.27734 9.65635 7.58203C9.44541 7.91016 9.46885 8.42578 9.97276 8.70703C10.7462 9.17578 11.6017 9.38672 12.4923 9.38672ZM12.4806 12.6211C15.6095 12.6211 17.2384 10.0781 19.9689 10.0781C20.6017 10.0781 21.129 10.207 21.8087 10.582C22.2306 10.8164 22.6056 10.6523 22.7931 10.3828C23.0157 10.043 23.004 9.51562 22.4884 9.23438C21.7032 8.77734 20.8595 8.54297 19.9689 8.54297C16.7931 8.54297 15.1642 11.1094 12.4806 11.1094C11.8478 11.1094 11.3204 10.9688 10.6407 10.582C10.2423 10.3594 9.84385 10.5117 9.65635 10.8164C9.44541 11.1445 9.46885 11.6602 9.96104 11.9414C10.7345 12.4102 11.5899 12.6211 12.4806 12.6211Z" fill="black" fill-opacity="0.85"/>
</svg>
