<svg width="28" height="29" viewBox="0 0 28 29" fill="none" xmlns="http://www.w3.org/2000/svg">
<path d="M2.66016 28.1602H9.92578C11.543 28.1602 12.5859 27.1289 12.5859 25.5469V2.61328C12.5859 1.03125 11.543 0 9.92578 0H2.66016C1.04297 0 0 1.03125 0 2.61328V25.5469C0 27.1289 1.04297 28.1602 2.66016 28.1602ZM9.375 9.14062C9.02344 9.14062 8.76562 8.85938 8.76562 8.51953V3.75C8.76562 3.41016 9.02344 3.12891 9.375 3.12891C9.71484 3.12891 9.98438 3.41016 9.98438 3.75V8.51953C9.98438 8.85938 9.71484 9.14062 9.375 9.14062ZM6.89062 9.14062C6.53906 9.14062 6.25781 8.85938 6.25781 8.51953V3.75C6.25781 3.41016 6.53906 3.12891 6.89062 3.12891C7.21875 3.12891 7.48828 3.41016 7.48828 3.75V8.51953C7.48828 8.85938 7.21875 9.14062 6.89062 9.14062ZM9.375 17.0391C9.02344 17.0391 8.76562 16.7695 8.76562 16.418V11.6484C8.76562 11.3086 9.02344 11.0391 9.375 11.0391C9.71484 11.0391 9.98438 11.3086 9.98438 11.6484V16.418C9.98438 16.7695 9.71484 17.0391 9.375 17.0391ZM6.89062 17.0391C6.53906 17.0391 6.25781 16.7695 6.25781 16.418V11.6484C6.25781 11.3086 6.53906 11.0391 6.89062 11.0391C7.21875 11.0391 7.48828 11.3086 7.48828 11.6484V16.418C7.48828 16.7695 7.21875 17.0391 6.89062 17.0391ZM9.375 24.9609C9.02344 24.9609 8.76562 24.6797 8.76562 24.3516V19.582C8.76562 19.2305 9.02344 18.9492 9.375 18.9492C9.71484 18.9492 9.98438 19.2305 9.98438 19.582V24.3516C9.98438 24.6797 9.71484 24.9609 9.375 24.9609ZM6.89062 24.9609C6.53906 24.9609 6.25781 24.6797 6.25781 24.3516V19.582C6.25781 19.2305 6.53906 18.9492 6.89062 18.9492C7.21875 18.9492 7.48828 19.2305 7.48828 19.582V24.3516C7.48828 24.6797 7.21875 24.9609 6.89062 24.9609Z" fill="#007AFF"/>
<path d="M17.753 9.02344C18.0108 9.02344 18.1983 8.78906 18.1749 8.53125L18.1163 7.55859L18.9249 8.10938C19.1241 8.23828 19.4288 8.19141 19.5694 7.96875C19.7218 7.74609 19.6163 7.44141 19.3585 7.33594L18.4796 6.90234L19.3819 6.45703C19.6046 6.33984 19.71 6.05859 19.5811 5.82422C19.4639 5.61328 19.1358 5.54297 18.9132 5.69531L18.1163 6.24609L18.1866 5.27344C18.21 5.01562 18.0225 4.78125 17.753 4.78125C17.4718 4.78125 17.2843 4.99219 17.3077 5.26172L17.3663 6.25781L16.546 5.69531C16.3233 5.55469 16.0421 5.58984 15.9132 5.82422C15.7725 6.05859 15.8663 6.33984 16.1007 6.45703L16.9796 6.90234L16.1124 7.32422C15.8663 7.42969 15.7608 7.72266 15.9014 7.96875C16.0186 8.19141 16.3233 8.23828 16.546 8.10938L17.3663 7.55859L17.3194 8.53125C17.3077 8.80078 17.4835 9.02344 17.753 9.02344ZM24.1514 23.2852C24.421 23.2852 24.6202 23.0742 24.5968 22.8047L24.5382 21.8203L25.3585 22.3828C25.5694 22.5234 25.8624 22.4766 25.9796 22.2539C26.1202 22.0078 26.0264 21.7266 25.7921 21.6211L24.9132 21.1758L25.7803 20.7305C26.0382 20.6367 26.1319 20.3438 26.003 20.0977C25.8858 19.875 25.5694 19.8164 25.3585 19.957L24.5382 20.5078L24.585 19.5352C24.5968 19.2656 24.4093 19.0547 24.1514 19.0547C23.8936 19.0547 23.7061 19.2773 23.7296 19.5352L23.7882 20.5195L22.9679 19.9688C22.7803 19.8398 22.4757 19.8867 22.335 20.0977C22.1827 20.3203 22.2882 20.6367 22.546 20.7422L23.4132 21.1758L22.5225 21.6211C22.2999 21.7383 22.1944 22.0078 22.3233 22.2539C22.4405 22.4648 22.7686 22.5352 22.9796 22.3828L23.7882 21.832L23.7179 22.793C23.6944 23.0508 23.8819 23.2852 24.1514 23.2852ZM17.2139 12.668C20.3429 12.668 21.96 10.125 24.6905 10.125C25.3233 10.125 25.8624 10.2539 26.5303 10.6289C26.9522 10.8633 27.3272 10.6992 27.5147 10.4297C27.7491 10.0898 27.7257 9.57422 27.21 9.28125C26.4366 8.82422 25.5929 8.60156 24.6905 8.60156C21.5147 8.60156 19.8975 11.1562 17.2139 11.1562C16.5811 11.1562 16.0421 11.0156 15.3624 10.6289C14.9639 10.4062 14.5772 10.5586 14.378 10.8633C14.1671 11.1914 14.1905 11.707 14.6827 11.9883C15.4561 12.4688 16.3116 12.668 17.2139 12.668ZM17.2257 16.1133C20.3429 16.1133 21.9718 13.5703 24.6905 13.5703C25.335 13.5703 25.8741 13.6992 26.5421 14.0742C26.9522 14.3086 27.3389 14.1445 27.5264 13.875C27.7491 13.5352 27.7374 13.0195 27.2335 12.7266C26.4483 12.2695 25.5929 12.0469 24.6905 12.0469C21.5264 12.0469 19.9093 14.6016 17.2257 14.6016C16.5811 14.6016 16.0421 14.4609 15.3741 14.0859C14.9757 13.8516 14.5772 14.0039 14.378 14.3086C14.1671 14.6367 14.1905 15.1523 14.6944 15.4336C15.4679 15.9141 16.3233 16.1133 17.2257 16.1133ZM17.2139 19.5586C20.3429 19.5586 21.96 17.0156 24.6905 17.0156C25.3233 17.0156 25.8624 17.1445 26.5303 17.5312C26.9522 17.7656 27.3272 17.5898 27.5147 17.3203C27.7491 16.9805 27.7257 16.4648 27.21 16.1719C26.4366 15.7148 25.5929 15.4922 24.6905 15.4922C21.5147 15.4922 19.8975 18.0469 17.2139 18.0469C16.5811 18.0469 16.0421 17.9062 15.3624 17.5312C14.9639 17.2969 14.5772 17.4492 14.378 17.7539C14.1671 18.082 14.1905 18.6094 14.6827 18.8906C15.4561 19.3594 16.3116 19.5586 17.2139 19.5586Z" fill="black" fill-opacity="0.85"/>
</svg>
