<svg width="23" height="28" viewBox="0 0 23 28" fill="none" xmlns="http://www.w3.org/2000/svg">
<path d="M3.62109 25.4883H14.1914C16.582 25.4883 17.8008 24.2695 17.8008 21.9141V3.5625C17.8008 1.19531 16.5586 0 14.1914 0H3.62109C1.25391 0 0 1.19531 0 3.5625V21.9141C0 24.2695 1.23047 25.4883 3.62109 25.4883ZM4.74609 6.49219C3.80859 6.49219 3.04688 5.71875 3.04688 4.76953C3.04688 3.84375 3.80859 3.08203 4.74609 3.08203C5.68359 3.08203 6.45703 3.84375 6.45703 4.76953C6.45703 5.71875 5.68359 6.49219 4.74609 6.49219ZM3.73828 16.3008C3.31641 16.3008 2.97656 15.9727 2.97656 15.5391C2.97656 15.1172 3.31641 14.7773 3.73828 14.7773H7.25391C7.6875 14.7773 8.02734 15.1172 8.02734 15.5391C8.02734 15.9727 7.6875 16.3008 7.25391 16.3008H3.73828ZM3.73828 19.3242C3.31641 19.3242 2.97656 18.9961 2.97656 18.5625C2.97656 18.1289 3.31641 17.8008 3.73828 17.8008H7.25391C7.6875 17.8008 8.02734 18.1289 8.02734 18.5625C8.02734 18.9961 7.6875 19.3242 7.25391 19.3242H3.73828ZM3.73828 22.3477C3.31641 22.3477 2.97656 22.0078 2.97656 21.5859C2.97656 21.1523 3.31641 20.8125 3.73828 20.8125H7.25391C7.6875 20.8125 8.02734 21.1523 8.02734 21.5859C8.02734 22.0078 7.6875 22.3477 7.25391 22.3477H3.73828ZM10.5469 16.3008C10.1133 16.3008 9.77344 15.9727 9.77344 15.5391C9.77344 15.1172 10.1133 14.7773 10.5469 14.7773H14.0625C14.4844 14.7773 14.8242 15.1172 14.8242 15.5391C14.8242 15.9727 14.4844 16.3008 14.0625 16.3008H10.5469ZM10.5469 19.3242C10.1133 19.3242 9.77344 18.9961 9.77344 18.5625C9.77344 18.1289 10.1133 17.8008 10.5469 17.8008H14.0625C14.4844 17.8008 14.8242 18.1289 14.8242 18.5625C14.8242 18.9961 14.4844 19.3242 14.0625 19.3242H10.5469ZM10.5469 22.3477C10.1133 22.3477 9.77344 22.0078 9.77344 21.5859C9.77344 21.1523 10.1133 20.8125 10.5469 20.8125H14.0625C14.4844 20.8125 14.8242 21.1523 14.8242 21.5859C14.8242 22.0078 14.4844 22.3477 14.0625 22.3477H10.5469ZM3.39844 27.5508C3.96094 27.5508 4.33594 27.1641 4.33594 26.6016V24.3047H2.44922V26.6016C2.44922 27.1641 2.83594 27.5508 3.39844 27.5508ZM14.4023 27.5508C14.9766 27.5508 15.3516 27.1641 15.3516 26.6016V24.3047H13.4648V26.6016C13.4648 27.1641 13.8398 27.5508 14.4023 27.5508Z" fill="#FFCC00"/>
<path d="M12.4796 6.11719C11.5889 6.11719 10.7335 5.91797 9.96007 5.4375C9.46788 5.15625 9.44444 4.64062 9.65538 4.3125C9.84288 4.00781 10.2413 3.85547 10.6397 4.07812C11.3194 4.46484 11.8468 4.60547 12.4796 4.60547C15.1632 4.60547 16.7921 2.05078 19.9679 2.05078C20.8585 2.05078 21.7022 2.27344 22.4874 2.73047C23.003 3.02344 23.0147 3.53906 22.7921 3.87891C22.6046 4.14844 22.2296 4.3125 21.8077 4.07812C21.128 3.70312 20.6007 3.57422 19.9679 3.57422C17.2374 3.57422 15.6085 6.11719 12.4796 6.11719ZM12.4913 9.38672C11.6007 9.38672 10.7452 9.17578 9.97179 8.70703C9.46788 8.42578 9.44444 7.91016 9.65538 7.58203C9.84288 7.27734 10.253 7.11328 10.6514 7.34766C11.3194 7.72266 11.8468 7.875 12.4913 7.875C15.1749 7.875 16.8038 5.30859 19.9679 5.30859C20.8585 5.30859 21.7139 5.53125 22.5108 5.98828C23.0147 6.28125 23.0147 6.80859 22.8038 7.13672C22.6163 7.41797 22.2296 7.58203 21.8194 7.34766C21.1397 6.96094 20.6124 6.83203 19.9679 6.83203C17.2491 6.83203 15.6085 9.38672 12.4913 9.38672ZM12.4796 12.6445C11.5889 12.6445 10.7335 12.4453 9.96007 11.9648C9.46788 11.6836 9.44444 11.168 9.65538 10.8398C9.84288 10.5352 10.2413 10.3828 10.6397 10.6055C11.3194 10.9922 11.8468 11.1328 12.4796 11.1328C15.1632 11.1328 16.7921 8.57812 19.9679 8.57812C20.8585 8.57812 21.7022 8.80078 22.4874 9.25781C23.003 9.55078 23.0147 10.0664 22.7921 10.4062C22.6046 10.6758 22.2296 10.8398 21.8077 10.6055C21.128 10.2305 20.6007 10.1016 19.9679 10.1016C17.2374 10.1016 15.6085 12.6445 12.4796 12.6445Z" fill="black" fill-opacity="0.85"/>
</svg>
