<svg width="29" height="28" viewBox="0 0 29 28" fill="none" xmlns="http://www.w3.org/2000/svg">
<path d="M15.4922 17.2149C15.4922 20.3439 18.0352 21.9728 18.0352 24.7032C18.0352 25.336 17.9062 25.8634 17.5312 26.5313C17.2969 26.9532 17.4609 27.3282 17.7305 27.5274C18.0703 27.7501 18.5859 27.7384 18.8789 27.211C19.3359 26.4376 19.5586 25.5939 19.5586 24.7032C19.5586 21.5157 17.0039 19.8985 17.0039 17.2149C17.0039 16.5821 17.1445 16.0548 17.5312 15.3634C17.7539 14.9649 17.6016 14.5782 17.2969 14.379C16.9688 14.1798 16.4531 14.1915 16.1719 14.6837C15.6914 15.4571 15.4922 16.3243 15.4922 17.2149ZM12.0469 17.2267C12.0469 20.3439 14.5898 21.9845 14.5898 24.7032C14.5898 25.3478 14.4609 25.8751 14.0742 26.5431C13.8516 26.9532 14.0156 27.3399 14.2852 27.5392C14.625 27.7501 15.1406 27.7501 15.4336 27.2345C15.8906 26.4493 16.1133 25.5939 16.1133 24.7032C16.1133 21.5274 13.5586 19.9103 13.5586 17.2267C13.5586 16.5821 13.6992 16.0548 14.0742 15.3751C14.3086 14.9767 14.1562 14.5782 13.8516 14.379C13.5234 14.1798 12.9961 14.1915 12.7266 14.6954C12.2461 15.4689 12.0469 16.336 12.0469 17.2267ZM8.60156 17.2149C8.60156 20.3439 11.1445 21.9728 11.1445 24.7032C11.1445 25.336 11.0156 25.8634 10.6289 26.5313C10.3945 26.9532 10.5703 27.3282 10.8398 27.5274C11.1797 27.7501 11.6953 27.7384 11.9883 27.211C12.4453 26.4376 12.668 25.5939 12.668 24.7032C12.668 21.5157 10.1133 19.8985 10.1133 17.2149C10.1133 16.5821 10.2539 16.0548 10.6289 15.3634C10.8633 14.9649 10.6992 14.5782 10.4062 14.379C10.0781 14.1798 9.55078 14.1915 9.26953 14.6837C8.80078 15.4571 8.60156 16.3243 8.60156 17.2149ZM19.1367 17.754C19.1367 18.0118 19.3594 18.1993 19.6289 18.1759L20.6016 18.1173L20.0508 18.9259C19.9219 19.1251 19.9688 19.4298 20.1914 19.5704C20.4141 19.7228 20.7188 19.6173 20.8242 19.3595L21.2578 18.4806L21.7031 19.3829C21.8203 19.6056 22.1016 19.711 22.3359 19.5821C22.5469 19.4649 22.6172 19.1368 22.4648 18.9142L21.9141 18.1173L22.8867 18.1876C23.1445 18.211 23.3789 18.0235 23.3789 17.754C23.3789 17.4728 23.168 17.2853 22.8984 17.3087L21.9023 17.3673L22.4648 16.547C22.6055 16.3243 22.5703 16.0431 22.3359 15.9142C22.1016 15.7853 21.8203 15.8673 21.7031 16.1017L21.2578 16.9806L20.8359 16.1134C20.7305 15.8673 20.4375 15.7618 20.1914 15.9024C19.9688 16.0196 19.9102 16.3243 20.0508 16.547L20.6016 17.3673L19.6289 17.3204C19.3477 17.3087 19.1367 17.4845 19.1367 17.754ZM4.875 24.1524C4.875 24.422 5.08594 24.6212 5.35547 24.5978L6.33984 24.5392L5.77734 25.3595C5.63672 25.5704 5.68359 25.8634 5.90625 25.9806C6.15234 26.1212 6.43359 26.0274 6.53906 25.7931L6.98438 24.9142L7.42969 25.7813C7.52344 26.0392 7.81641 26.1329 8.0625 26.004C8.28516 25.8868 8.34375 25.5704 8.20312 25.3595L7.65234 24.5392L8.625 24.586C8.89453 24.5978 9.10547 24.4103 9.10547 24.1524C9.10547 23.8946 8.88281 23.7071 8.625 23.7306L7.64062 23.7892L8.19141 22.9806C8.32031 22.7813 8.27344 22.4767 8.0625 22.336C7.83984 22.1837 7.52344 22.2892 7.41797 22.547L6.98438 23.4142L6.53906 22.5235C6.42188 22.3009 6.15234 22.1954 5.90625 22.3243C5.69531 22.4415 5.625 22.7696 5.77734 22.9923L6.32812 23.7892L5.36719 23.7189C5.10938 23.6954 4.875 23.8829 4.875 24.1524Z" fill="black" fill-opacity="0.85"/>
<path d="M0 2.66016V9.92578C0 11.543 1.03125 12.5859 2.61328 12.5859H25.5469C27.1289 12.5859 28.1602 11.543 28.1602 9.92578V2.66016C28.1602 1.04297 27.1289 0 25.5469 0H2.61328C1.03125 0 0 1.04297 0 2.66016ZM19.0195 9.375C19.0195 9.02344 19.3008 8.76562 19.6406 8.76562H24.4102C24.75 8.76562 25.0312 9.02344 25.0312 9.375C25.0312 9.71484 24.75 9.98438 24.4102 9.98438H19.6406C19.3008 9.98438 19.0195 9.71484 19.0195 9.375ZM19.0195 6.89062C19.0195 6.53906 19.3008 6.25781 19.6406 6.25781H24.4102C24.75 6.25781 25.0312 6.53906 25.0312 6.89062C25.0312 7.21875 24.75 7.48828 24.4102 7.48828H19.6406C19.3008 7.48828 19.0195 7.21875 19.0195 6.89062ZM11.1211 9.375C11.1211 9.02344 11.3906 8.76562 11.7422 8.76562H16.5117C16.8398 8.76562 17.1211 9.02344 17.1211 9.375C17.1211 9.71484 16.8398 9.98438 16.5117 9.98438H11.7422C11.3906 9.98438 11.1211 9.71484 11.1211 9.375ZM11.1211 6.89062C11.1211 6.53906 11.3906 6.25781 11.7422 6.25781H16.5117C16.8398 6.25781 17.1211 6.53906 17.1211 6.89062C17.1211 7.21875 16.8398 7.48828 16.5117 7.48828H11.7422C11.3906 7.48828 11.1211 7.21875 11.1211 6.89062ZM3.19922 9.375C3.19922 9.02344 3.48047 8.76562 3.80859 8.76562H8.57812C8.92969 8.76562 9.19922 9.02344 9.19922 9.375C9.19922 9.71484 8.92969 9.98438 8.57812 9.98438H3.80859C3.48047 9.98438 3.19922 9.71484 3.19922 9.375ZM3.19922 6.89062C3.19922 6.53906 3.48047 6.25781 3.80859 6.25781H8.57812C8.92969 6.25781 9.19922 6.53906 9.19922 6.89062C9.19922 7.21875 8.92969 7.48828 8.57812 7.48828H3.80859C3.48047 7.48828 3.19922 7.21875 3.19922 6.89062Z" fill="#007AFF"/>
</svg>
