<svg width="25" height="21" viewBox="0 0 25 21" fill="none" xmlns="http://www.w3.org/2000/svg">
<path d="M7.10156 20.4375H17.6367C22.418 20.4375 24.7383 18.1406 24.7383 13.3711V7.06641C24.7383 2.29688 22.418 0 17.6367 0H7.10156C2.32031 0 0 2.29688 0 7.06641V13.3711C0 18.1406 2.32031 20.4375 7.10156 20.4375ZM7.10156 18.5508C3.50391 18.5508 1.88672 16.9453 1.88672 13.3711V7.06641C1.88672 3.49219 3.50391 1.88672 7.10156 1.88672H17.6367C21.2344 1.88672 22.8516 3.49219 22.8516 7.06641V13.3711C22.8516 16.9453 21.2344 18.5508 17.6367 18.5508H7.10156ZM0.949219 7.86328H23.7891V6.67969H0.949219V7.86328ZM7.67578 8.67188H17.0625C17.8828 8.67188 18.4688 8.09766 18.4688 7.26562C18.4688 6.44531 17.8828 5.87109 17.0625 5.87109H7.67578C6.87891 5.87109 6.26953 6.44531 6.26953 7.26562C6.26953 8.09766 6.87891 8.67188 7.67578 8.67188ZM12.375 12.668C12.9961 12.6562 13.5 12.1406 13.5 11.5547C13.5 10.9336 12.9961 10.418 12.375 10.418C11.7422 10.418 11.2383 10.9336 11.2383 11.5547C11.2383 12.1641 11.7422 12.6797 12.375 12.668Z" fill="black" fill-opacity="0.85"/>
</svg>
