<svg width="20" height="25" viewBox="0 0 20 25" fill="none" xmlns="http://www.w3.org/2000/svg">
<path d="M3.67969 24.8086H15.6211C18.0703 24.8086 19.3008 23.6016 19.3008 21.1875V3.66797C19.3008 1.25391 18.0703 0.0351562 15.6211 0.0351562H3.67969C1.23047 0.0351562 0 1.25391 0 3.66797V21.1875C0 23.6016 1.23047 24.8086 3.67969 24.8086ZM3.70312 22.9219C2.53125 22.9219 1.88672 22.3008 1.88672 21.082V3.77344C1.88672 2.55469 2.53125 1.92188 3.70312 1.92188H15.5977C16.7578 1.92188 17.4141 2.55469 17.4141 3.77344V21.082C17.4141 22.3008 16.7578 22.9219 15.5977 22.9219H3.70312ZM0.234375 8.64844H4.54688C6.35156 8.64844 7.24219 7.76953 7.24219 6V0.398438H5.82422V5.90625C5.82422 6.75 5.34375 7.23047 4.51172 7.23047H0.234375V8.64844Z" fill="black" fill-opacity="0.85"/>
</svg>
