<svg width="25" height="21" viewBox="0 0 25 21" fill="none" xmlns="http://www.w3.org/2000/svg">
<path d="M7.30078 20.6719H16.8398C21.7969 20.6719 24.1406 18.3164 24.1406 13.3711V8.00391H18.2461C18.0234 8.55469 17.4961 8.89453 16.8398 8.89453H7.30078C6.65625 8.89453 6.11719 8.55469 5.90625 8.00391H0V13.3711C0 18.3164 2.34375 20.6719 7.30078 20.6719ZM12.0703 13.5938C11.4609 13.6055 10.9453 13.0898 10.9453 12.4922C10.9453 11.8711 11.4609 11.3672 12.0703 11.3672C12.6797 11.3672 13.1953 11.8711 13.1953 12.4922C13.1953 13.0547 12.6797 13.582 12.0703 13.5938ZM0 6.80859H5.88281C6.08203 6.24609 6.62109 5.90625 7.26562 5.90625H16.8281C17.4727 5.90625 18.0117 6.24609 18.2227 6.80859H24.0938V6.39844C24.0938 2.07422 21.4688 0 16.793 0H7.30078C2.63672 0 0 2.07422 0 6.39844V6.80859Z" fill="black" fill-opacity="0.85"/>
</svg>
