<svg width="20" height="24" viewBox="0 0 20 24" fill="none" xmlns="http://www.w3.org/2000/svg">
<path d="M9.52734 13.3828C8.94141 13.3945 8.44922 12.8906 8.44922 12.3164C8.44922 11.7305 8.94141 11.2383 9.52734 11.2383C10.1133 11.2383 10.6055 11.7305 10.6055 12.3164C10.6055 12.8672 10.1133 13.3711 9.52734 13.3828ZM5.90625 23.2734H13.1484C17.1328 23.2734 19.0547 21.3516 19.0547 17.3672V7.80469H14.0977C13.8867 8.27344 13.3945 8.60156 12.7734 8.60156H6.28125C5.68359 8.60156 5.17969 8.27344 4.96875 7.80469H0V17.3672C0 21.3516 1.92188 23.2734 5.90625 23.2734ZM0 6.62109H4.96875C5.17969 6.14062 5.68359 5.8125 6.28125 5.8125H12.7734C13.3945 5.8125 13.8867 6.14062 14.0977 6.62109H19.0547V5.90625C19.0547 1.92188 17.1328 0 13.1484 0H5.90625C1.92188 0 0 1.92188 0 5.90625V6.62109Z" fill="black" fill-opacity="0.85"/>
</svg>
