<svg width="25" height="27" viewBox="0 0 25 27" fill="none" xmlns="http://www.w3.org/2000/svg">
<path d="M0.747874 15.0352H1.81428V12.6797H0.747874V15.0352ZM6.29084 26.0742C7.75569 26.0742 8.43537 24.7266 7.6385 23.2969L3.25569 15.5508C2.88069 14.9062 2.31819 14.6133 1.61506 14.6133C0.513499 14.6133 -0.0841569 15.4336 0.00959316 16.5234C0.243968 17.918 1.18147 20.1445 2.31819 21.9727C4.11116 25.0078 5.15412 26.0742 6.29084 26.0742ZM23.3768 15.0352V12.6797H22.3104V15.0352H23.3768ZM17.8338 26.0742C18.9705 26.0742 20.0135 25.0078 21.8065 21.9727C22.9315 20.1445 23.8807 17.918 24.1151 16.5234C24.2088 15.4336 23.6112 14.6133 22.5096 14.6133C21.8065 14.6133 21.244 14.9062 20.869 15.5508L16.4862 23.2969C15.6776 24.7266 16.369 26.0742 17.8338 26.0742ZM0.349437 12.4805C0.349437 13.0312 0.700999 13.3711 1.25178 13.3711C1.80256 13.3711 2.13069 13.0312 2.13069 12.4805C2.18928 6.16406 5.951 2.15625 12.0565 2.15625C18.1737 2.15625 21.9237 6.16406 21.9822 12.4805C21.9822 13.0312 22.3221 13.3711 22.8729 13.3711C23.4237 13.3711 23.7635 13.0312 23.7635 12.4805C23.7635 5.29688 19.3455 0.363281 12.0565 0.363281C4.76741 0.363281 0.349437 5.29688 0.349437 12.4805Z" fill="black" fill-opacity="0.85"/>
<path d="M9.79458 23.7539C10.5445 23.3203 10.7438 22.3477 10.2633 21.5156L6.31411 14.543C5.83364 13.7109 4.89614 13.4062 4.15786 13.8398C3.70083 14.0859 3.59536 14.5195 3.82974 14.9297L8.6813 23.4609C8.92739 23.8828 9.34927 24 9.79458 23.7539ZM14.3297 23.7539C14.775 24 15.1969 23.8828 15.4313 23.4609L20.2828 14.9297C20.5289 14.5195 20.4235 14.0859 19.9664 13.8398C19.2164 13.4062 18.2906 13.7109 17.7985 14.543L13.8492 21.5156C13.3688 22.3477 13.5797 23.3203 14.3297 23.7539ZM5.21255 6.23438C7.13442 5.19141 9.38442 4.67578 12.0563 4.67578C14.7399 4.67578 16.9899 5.19141 18.9 6.23438C17.3649 4.26562 15.1735 3.28125 12.0563 3.28125C8.95083 3.28125 6.75942 4.26562 5.21255 6.23438Z" fill="#007AFF"/>
</svg>
