<svg width="29" height="28" viewBox="0 0 29 28" fill="none" xmlns="http://www.w3.org/2000/svg">
<g clip-path="url(#clip0_2152_15059)">
<path d="M1.36133 24.082H26.6504C27.166 24.082 27.5879 23.6484 27.5879 23.1328C27.5879 22.6172 27.166 22.1953 26.6504 22.1953H1.36133C0.845703 22.1953 0.423828 22.6172 0.423828 23.1328C0.423828 23.6484 0.845703 24.082 1.36133 24.082Z" fill="#007AFF"/>
<path d="M3.07159 11.7421L23.1458 17.1444C25.3958 17.7538 27.681 17.1561 27.9974 15.41C28.2552 13.8046 26.4974 12.3514 24.3997 11.9413L17.0989 10.4882C16.595 10.3944 16.3021 10.1952 15.9505 9.69128L9.75128 0.773309C9.55206 0.492059 9.28253 0.304559 8.95441 0.222528L8.12238 0.0115902C7.82941 -0.0587223 7.60675 0.19909 7.68878 0.562371L9.93878 10.0897L10.6771 9.22253L4.52472 8.0155L6.49347 9.23425L1.75909 3.703C1.52472 3.43347 1.27863 3.35143 0.856751 3.44518L0.411438 3.53893C0.0950319 3.59753 -0.0455931 3.84362 0.0130006 4.12487L1.25519 10.1952C1.41925 10.9686 2.06378 11.4725 3.07159 11.7421Z" fill="black" fill-opacity="0.85"/>
</g>
<defs>
<clipPath id="clip0_2152_15059">
<rect width="28.0226" height="27.199" fill="white"/>
</clipPath>
</defs>
</svg>
