<svg width="11" height="23" viewBox="0 0 11 23" fill="none" xmlns="http://www.w3.org/2000/svg">
<path d="M5.06289 9.50391C7.58242 9.46875 9.16445 7.94531 9.86758 6.85547C10.102 6.48047 10.2191 6.07031 10.2191 5.61328V3.89062C10.2191 3.43359 10.1137 3.02344 9.86758 2.64844C9.14101 1.55859 7.58242 0 5.06289 0C2.3207 0 0.0355448 2.13281 0.000388553 4.73438C-0.0347677 7.37109 2.3207 9.52734 5.06289 9.50391ZM8.08633 6.60938C7.76992 6.60938 7.52383 6.36328 7.52383 6.04688V3.44531C7.52383 3.12891 7.76992 2.88281 8.08633 2.88281C8.40273 2.88281 8.63711 3.12891 8.63711 3.44531V6.04688C8.63711 6.36328 8.40273 6.60938 8.08633 6.60938ZM4.46523 18.9609V10.6055C3.23476 10.5117 2.08633 10.043 1.16054 9.32812V18.9609H4.46523ZM3.31679 22.8281C4.01992 22.8281 4.46523 22.4766 4.46523 21.7852V20.1328H1.16054V21.7852C1.16054 22.4766 1.60586 22.8281 2.3207 22.8281H3.31679Z" fill="black" fill-opacity="0.85"/>
</svg>
