<svg width="18" height="24" viewBox="0 0 18 24" fill="none" xmlns="http://www.w3.org/2000/svg">
<path d="M10.0312 21.9258H10.9453C11.6719 21.9258 12.1406 21.5509 12.1406 20.8243V11.1562L8.8125 12.0587V20.8243C8.8125 21.5509 9.29297 21.9258 10.0312 21.9258Z" fill="black" fill-opacity="0.85"/>
<path d="M11.7308 9.05888e-05C9.37531 -0.0116282 6.77376 1.11337 5.03938 3.52743C4.4886 4.23056 3.39876 6.03525 3.46907 7.67587L5.80109 13.7579C10.0433 13.9454 11.9417 13.3477 13.5472 12.4337C15.7503 11.1798 17.6019 9.02353 17.6019 5.90634C17.6019 2.21493 14.8948 0.0235281 11.7308 9.05888e-05Z" fill="white"/>
<path d="M11.7188 1.19548C9.70312 1.17205 7.47656 2.15642 5.97656 4.24236C5.55469 4.7697 4.6875 6.22283 4.64062 7.42986L7.60547 12.5861C10.3945 12.551 11.7539 12.0939 12.9609 11.4143C14.8828 10.301 16.4062 8.49626 16.4062 5.90642C16.4062 2.91814 14.2969 1.21892 11.7188 1.19548ZM12.1641 6.22283C11.9297 6.42205 11.5781 6.39861 11.3789 6.15251C11.1797 5.90642 11.2031 5.55486 11.4492 5.35564L13.1719 3.90251C13.4062 3.7033 13.7695 3.73845 13.957 3.98455C14.1562 4.21892 14.1445 4.57048 13.8984 4.7697L12.1641 6.22283Z" fill="black" fill-opacity="0.85"/>
<path d="M5.39062 15.0586C7.73438 15.0586 9.94922 13.5 9.94922 10.5234C9.94922 7.89844 7.57031 5.22656 4.42969 5.22656C1.61719 5.22656 0 7.48828 0 9.71484C0 12.9492 2.75391 15.0586 5.39062 15.0586Z" fill="white"/>
<path d="M5.39062 13.9219C7.21875 13.9219 8.82422 12.7969 8.82422 10.5234C8.82422 8.49609 6.91406 6.35156 4.42969 6.35156C2.33203 6.35156 1.125 8.01563 1.125 9.71484C1.125 12.2578 3.29297 13.9219 5.39062 13.9219ZM4.81641 12.1406C4.47656 12.4336 3.92578 12.1406 3.22266 11.3086C2.54297 10.4766 2.36719 9.90234 2.69531 9.62109C3.04688 9.31641 3.58594 9.59766 4.28906 10.4414C4.95703 11.2969 5.14453 11.8594 4.81641 12.1406Z" fill="#007AFF"/>
</svg>
