<svg width="24" height="24" viewBox="0 0 24 24" fill="none" xmlns="http://www.w3.org/2000/svg">
<g clip-path="url(#clip0_2152_15053)">
<path d="M11.9531 23.918C18.4922 23.918 23.9062 18.5039 23.9062 11.9648C23.9062 5.4375 18.4805 0.0117188 11.9414 0.0117188C5.41406 0.0117188 0 5.4375 0 11.9648C0 18.5039 5.42578 23.918 11.9531 23.918Z" fill="#FFCC00"/>
<path d="M19.8047 11.9766C19.8047 12.7852 18.7383 13.3945 17.4258 13.3945H14.8359C14.5195 13.3945 14.4258 13.4414 14.2266 13.6523L9.91406 18.3516C9.76172 18.5156 9.5625 18.6211 9.35156 18.6211H8.60156C8.34375 18.6211 8.20312 18.375 8.30859 18.1172L10.4648 13.3711L7.45312 13.0312L6.32812 15.082C6.22266 15.2812 6.04688 15.375 5.78906 15.375H5.50781C5.27344 15.375 5.12109 15.2109 5.12109 14.9766V8.96484C5.12109 8.73047 5.27344 8.57812 5.50781 8.57812H5.78906C6.04688 8.57812 6.22266 8.67188 6.32812 8.87109L7.45312 10.9219L10.4648 10.582L8.30859 5.83594C8.20312 5.57812 8.34375 5.33203 8.60156 5.33203H9.35156C9.5625 5.33203 9.76172 5.42578 9.91406 5.60156L14.2266 10.3008C14.4258 10.5117 14.5195 10.5586 14.8359 10.5586H17.4258C18.7383 10.5586 19.8047 11.168 19.8047 11.9766Z" fill="black" fill-opacity="0.85"/>
</g>
<defs>
<clipPath id="clip0_2152_15053">
<rect width="23.9062" height="23.918" fill="white"/>
</clipPath>
</defs>
</svg>
