<svg width="27" height="21" viewBox="0 0 27 21" fill="none" xmlns="http://www.w3.org/2000/svg">
<path d="M7.10156 20.4375H19.4297C24.2227 20.4375 26.5312 18.1406 26.5312 13.3711V7.06641C26.5312 2.29688 24.2227 0 19.4297 0H7.10156C2.32031 0 0 2.29688 0 7.06641V13.3711C0 18.1406 2.32031 20.4375 7.10156 20.4375ZM7.10156 18.5508C3.50391 18.5508 1.88672 16.9453 1.88672 13.3711V7.06641C1.88672 3.49219 3.50391 1.88672 7.10156 1.88672H19.4297C23.0391 1.88672 24.6445 3.49219 24.6445 7.06641V13.3711C24.6445 16.9453 23.0391 18.5508 19.4297 18.5508H7.10156ZM0.949219 7.86328H25.582V6.67969H0.949219V7.86328ZM8.57812 8.67188H17.9648C18.7852 8.67188 19.3711 8.09766 19.3711 7.26562C19.3711 6.44531 18.7852 5.87109 17.9648 5.87109H8.57812C7.78125 5.87109 7.16016 6.44531 7.16016 7.26562C7.16016 8.09766 7.78125 8.67188 8.57812 8.67188ZM13.2656 12.668C13.8867 12.6562 14.4023 12.1406 14.4023 11.5547C14.4023 10.9336 13.8867 10.418 13.2656 10.418C12.6445 10.418 12.1406 10.9336 12.1406 11.5547C12.1406 12.1641 12.6445 12.6797 13.2656 12.668Z" fill="black" fill-opacity="0.85"/>
</svg>
