<svg width="35" height="24" viewBox="0 0 35 24" fill="none" xmlns="http://www.w3.org/2000/svg">
<path d="M10.0312 21.9258H10.9453C11.6719 21.9258 12.1523 21.5509 12.1523 20.8243V11.1562L8.82422 12.0587V20.8243C8.82422 21.5509 9.29297 21.9258 10.0312 21.9258ZM24.3984 21.9258C25.1367 21.9258 25.6055 21.5509 25.6055 20.8243V12.0587L22.2773 11.1562V20.8243C22.2773 21.5509 22.7578 21.9258 23.4844 21.9258H24.3984Z" fill="black" fill-opacity="0.85"/>
<path d="M11.7425 9.05888e-05C9.38703 -0.0116282 6.77376 1.11337 5.03938 3.52743C4.4886 4.23056 3.39876 6.03525 3.46907 7.67587L5.81281 13.7579C10.055 13.9454 11.9417 13.3477 13.5472 12.4337C15.7503 11.1798 17.6019 9.02353 17.6019 5.90634C17.6019 2.21493 14.9065 0.0235281 11.7425 9.05888e-05ZM22.6878 9.05888e-05C19.5237 0.0235281 16.8284 2.21493 16.8284 5.90634C16.8284 9.02353 18.68 11.1798 20.8831 12.4337C22.4886 13.3477 24.3753 13.9454 28.6175 13.7579L30.9612 7.67587C31.0315 6.03525 29.9417 4.23056 29.3909 3.52743C27.6565 1.11337 25.0433 -0.0116282 22.6878 9.05888e-05Z" fill="white"/>
<path d="M11.7188 1.19548C9.71484 1.17205 7.47656 2.15642 5.97656 4.24236C5.55469 4.7697 4.69923 6.22283 4.64062 7.42986L7.60547 12.5861C10.3945 12.551 11.7539 12.0939 12.9609 11.4143C14.8828 10.301 16.418 8.49626 16.418 5.90642C16.418 2.91814 14.3086 1.21892 11.7188 1.19548ZM12.1641 6.22283C11.9414 6.42205 11.5781 6.39861 11.3789 6.15251C11.1797 5.90642 11.2031 5.55486 11.4492 5.35564L13.1719 3.90251C13.418 3.7033 13.7695 3.73845 13.957 3.98455C14.168 4.21892 14.1562 4.57048 13.9102 4.7697L12.1641 6.22283ZM22.7109 1.19548C20.1211 1.21892 18.0117 2.91814 18.0117 5.90642C18.0117 8.49626 19.5469 10.301 21.4688 11.4143C22.6758 12.0939 24.0352 12.551 26.8242 12.5861L29.7891 7.42986C29.7305 6.22283 28.875 4.7697 28.4531 4.24236C26.9531 2.15642 24.7148 1.17205 22.7109 1.19548ZM22.2656 6.22283L20.5195 4.7697C20.2734 4.57048 20.2617 4.21892 20.4727 3.98455C20.6602 3.73845 21.0117 3.7033 21.2578 3.90251L22.9805 5.35564C23.2266 5.55486 23.25 5.90642 23.0508 6.15251C22.8516 6.39861 22.4883 6.42205 22.2656 6.22283Z" fill="black" fill-opacity="0.85"/>
<path d="M5.39062 15.0586C7.74609 15.0586 9.96094 13.5 9.96094 10.5234C9.96094 7.89844 7.57031 5.22656 4.44141 5.22656C1.62891 5.22656 0 7.48828 0 9.71484C0 12.9492 2.75391 15.0586 5.39062 15.0586ZM29.0391 15.0586C31.6758 15.0586 34.4297 12.9492 34.4297 9.71484C34.4297 7.48828 32.8008 5.22656 29.9883 5.22656C26.8594 5.22656 24.4688 7.89844 24.4688 10.5234C24.4688 13.5 26.6836 15.0586 29.0391 15.0586Z" fill="white"/>
<path d="M5.39062 13.9219C7.21875 13.9219 8.82422 12.7969 8.82422 10.5234C8.82422 8.49609 6.91406 6.35156 4.44141 6.35156C2.33203 6.35156 1.13672 8.01563 1.13672 9.71484C1.13672 12.2578 3.29297 13.9219 5.39062 13.9219ZM4.81641 12.1406C4.47656 12.4336 3.92578 12.1406 3.22266 11.3086C2.55469 10.4766 2.37891 9.90234 2.69531 9.62109C3.04688 9.31641 3.58594 9.59766 4.28906 10.4414C4.95703 11.2969 5.14453 11.8594 4.81641 12.1406ZM29.0391 13.9219C31.1367 13.9219 33.293 12.2578 33.293 9.71484C33.293 8.01563 32.0977 6.35156 29.9883 6.35156C27.5156 6.35156 25.6055 8.49609 25.6055 10.5234C25.6055 12.7969 27.2109 13.9219 29.0391 13.9219ZM29.6133 12.1406C29.2852 11.8594 29.4727 11.2969 30.1406 10.4414C30.8438 9.59766 31.3828 9.31641 31.7344 9.62109C32.0508 9.90234 31.875 10.4766 31.207 11.3086C30.5039 12.1406 29.9531 12.4336 29.6133 12.1406Z" fill="#007AFF"/>
</svg>
