<svg width="16" height="28" viewBox="0 0 16 28" fill="none" xmlns="http://www.w3.org/2000/svg">
<path d="M11.3555 23.7305C11.9062 23.7305 12.3633 23.2734 12.3633 22.6992C12.3633 22.1484 11.9062 21.6914 11.3555 21.6914C10.7812 21.6914 10.3359 22.1484 10.3359 22.6992C10.3359 23.2734 10.7812 23.7305 11.3555 23.7305ZM0 23.4727C0 25.8984 1.23047 27.1055 3.67969 27.1055H12.0703C14.5078 27.1055 15.7383 25.8984 15.7383 23.4727V5.85938C15.7383 4.94531 15.5391 4.34766 14.9883 3.67969L13.1719 1.46484C12.4219 0.550781 11.6484 0.09375 10.6992 0.09375H5.03906C4.08984 0.09375 3.32812 0.550781 2.56641 1.46484L0.75 3.67969C0.199219 4.34766 0 4.94531 0 5.85938V23.4727ZM1.88672 23.3789V6.84375C2.20312 7.01953 2.54297 7.07812 2.95312 7.07812H12.7852C13.207 7.07812 13.5469 7.01953 13.8516 6.84375V23.3789C13.8516 24.5977 13.207 25.2188 12.0352 25.2188H3.70312C2.53125 25.2188 1.88672 24.5977 1.88672 23.3789ZM2.46094 4.33594L3.9375 2.53125C4.46484 1.91016 4.74609 1.57031 5.53125 1.57031H10.207C11.0039 1.57031 11.2852 1.91016 11.8008 2.53125L13.2773 4.33594C13.5234 4.62891 13.4766 5.19141 12.8438 5.19141H2.89453C2.26172 5.19141 2.22656 4.62891 2.46094 4.33594Z" fill="black" fill-opacity="0.85"/>
</svg>
