<svg width="32" height="21" viewBox="0 0 32 21" fill="none" xmlns="http://www.w3.org/2000/svg">
<path d="M26.8129 18.3633C27.1879 18.7969 27.8442 18.7969 28.2895 18.3047C30.2465 16.1836 31.3363 13.3828 31.3363 10.3477C31.3363 7.31251 30.2465 4.50001 28.2895 2.39063C27.8442 1.89845 27.1879 1.88673 26.8129 2.33204C26.4379 2.75392 26.5551 3.3047 26.977 3.78517C28.5473 5.53126 29.4262 7.82813 29.4262 10.3477C29.4262 12.8672 28.5473 15.1641 26.977 16.9102C26.5551 17.3906 26.4379 17.9414 26.8129 18.3633Z" fill="#007AFF"/>
<path d="M23.5308 15.0233C23.9176 15.4569 24.6207 15.4687 25.0308 14.9413C26.0504 13.6757 26.648 12.0702 26.648 10.3476C26.648 8.62492 26.0504 7.01945 25.0308 5.75383C24.6207 5.22648 23.9176 5.22648 23.5308 5.6718C23.1558 6.09367 23.3082 6.62101 23.6832 7.12492C24.3863 7.99211 24.7379 9.12883 24.7379 10.3476C24.7379 11.5663 24.3863 12.6913 23.6832 13.5702C23.3082 14.0741 23.1558 14.6015 23.5308 15.0233Z" fill="#007AFF"/>
<path d="M10.3477 20.6953C15.9961 20.6953 20.6953 15.9961 20.6953 10.3477C20.6953 4.69922 16.0078 0 10.3594 0C4.71094 0 0 4.69922 0 10.3477C0 15.9961 4.69922 20.6953 10.3477 20.6953ZM10.3594 18.8203C5.66016 18.8203 1.88672 15.0469 1.89844 10.3477C1.89844 5.64844 5.67188 1.88672 10.3711 1.88672C15.0469 1.88672 18.8086 5.64844 18.8086 10.3477C18.8086 15.0469 15.0586 18.8203 10.3594 18.8203ZM10.4414 13.7227C11.1445 13.7227 11.2969 14.0742 11.8945 14.0742C12.4922 14.0742 12.9023 13.5234 13.2773 12.9844C13.7109 12.3633 13.8867 11.7539 13.8867 11.7305C13.8516 11.7188 12.7031 11.25 12.7031 9.9375C12.7031 8.78906 13.6055 8.28516 13.6523 8.23828C13.0664 7.38281 12.1523 7.37109 11.8945 7.37109C11.2266 7.37109 10.6875 7.76953 10.3359 7.76953C9.97266 7.76953 9.49219 7.38281 8.89453 7.38281C7.79297 7.38281 6.67969 8.30859 6.67969 10.0195C6.67969 11.0977 7.08984 12.2344 7.59375 12.9609C8.03906 13.582 8.42578 14.0859 8.98828 14.0859C9.52734 14.0859 9.77344 13.7227 10.4414 13.7227ZM11.5898 6.63281C11.8594 6.30469 12.0586 5.85938 12.0586 5.39062C12.0586 5.33203 12.0586 5.27344 12.0469 5.22656C11.5898 5.23828 11.0625 5.51953 10.7461 5.89453C10.5 6.1875 10.2539 6.63281 10.2539 7.10156C10.2539 7.16016 10.2656 7.23047 10.2656 7.25391C10.3008 7.25391 10.3359 7.26562 10.3828 7.26562C10.793 7.26562 11.2969 6.99609 11.5898 6.63281Z" fill="black" fill-opacity="0.85"/>
</svg>
