<svg width="29" height="29" viewBox="0 0 29 29" fill="none" xmlns="http://www.w3.org/2000/svg">
<path d="M13.3828 3.85547C14.0625 3.85547 14.6016 3.31641 14.6016 2.64844C14.6016 1.96875 14.0625 1.42969 13.3828 1.42969C12.7148 1.42969 12.1758 1.96875 12.1758 2.64844C12.1758 3.31641 12.7148 3.85547 13.3828 3.85547ZM20.0039 2.47266C20.6719 2.47266 21.2227 1.93359 21.2227 1.25391C21.2227 0.574219 20.6719 0.0351562 20.0039 0.0351562C19.3242 0.0351562 18.7852 0.574219 18.7852 1.25391C18.7852 1.93359 19.3242 2.47266 20.0039 2.47266ZM25.9688 6.08203C26.6484 6.08203 27.1875 5.54297 27.1875 4.86328C27.1875 4.19531 26.6484 3.65625 25.9688 3.65625C25.2891 3.65625 24.75 4.19531 24.75 4.86328C24.75 5.54297 25.2891 6.08203 25.9688 6.08203ZM27.3516 12.7266C28.0312 12.7266 28.5703 12.1875 28.5703 11.5195C28.5703 10.8398 28.0312 10.3008 27.3516 10.3008C26.6836 10.3008 26.1328 10.8398 26.1328 11.5195C26.1328 12.1875 26.6836 12.7266 27.3516 12.7266ZM23.7422 18.6211C24.4219 18.6211 24.9609 18.082 24.9609 17.4141C24.9609 16.7344 24.4219 16.1953 23.7422 16.1953C23.0625 16.1953 22.5234 16.7344 22.5234 17.4141C22.5234 18.082 23.0625 18.6211 23.7422 18.6211ZM18 21.6328C18.6797 21.6328 19.2188 21.0938 19.2188 20.4141C19.2188 19.7344 18.6797 19.1953 18 19.1953C17.3203 19.1953 16.7812 19.7344 16.7812 20.4141C16.7812 21.0938 17.3203 21.6328 18 21.6328ZM14.5195 27C15.1992 27 15.7383 26.4609 15.7383 25.7812C15.7383 25.1133 15.1992 24.5742 14.5195 24.5742C13.8516 24.5742 13.3125 25.1133 13.3125 25.7812C13.3125 26.4609 13.8516 27 14.5195 27ZM8.21484 28.7227C8.89453 28.7227 9.43359 28.1836 9.43359 27.5039C9.43359 26.8242 8.89453 26.2852 8.21484 26.2852C7.54688 26.2852 7.00781 26.8242 7.00781 27.5039C7.00781 28.1836 7.54688 28.7227 8.21484 28.7227ZM2.87109 25.3945C3.55078 25.3945 4.08984 24.8555 4.08984 24.1875C4.08984 23.5078 3.55078 22.9688 2.87109 22.9688C2.19141 22.9688 1.65234 23.5078 1.65234 24.1875C1.65234 24.8555 2.19141 25.3945 2.87109 25.3945ZM1.21875 19.0781C1.89844 19.0781 2.4375 18.5391 2.4375 17.8594C2.4375 17.1797 1.89844 16.6406 1.21875 16.6406C0.539062 16.6406 0 17.1797 0 17.8594C0 18.5391 0.539062 19.0781 1.21875 19.0781ZM4.72266 13.4766C5.40234 13.4766 5.94141 12.9375 5.94141 12.2578C5.94141 11.5781 5.40234 11.0391 4.72266 11.0391C4.04297 11.0391 3.50391 11.5781 3.50391 12.2578C3.50391 12.9375 4.04297 13.4766 4.72266 13.4766ZM10.0078 9.82031C10.6875 9.82031 11.2266 9.28125 11.2266 8.60156C11.2266 7.92188 10.6875 7.38281 10.0078 7.38281C9.32812 7.38281 8.78906 7.92188 8.78906 8.60156C8.78906 9.28125 9.32812 9.82031 10.0078 9.82031Z" fill="black" fill-opacity="0.85"/>
<path d="M9.48047 24.2695C12.293 24.2695 14.5664 21.9844 14.5664 19.1602C14.5664 16.3711 12.2812 14.0977 9.48047 14.0977C6.66797 14.0977 4.39453 16.3711 4.39453 19.1602C4.39453 21.9844 6.66797 24.2695 9.48047 24.2695ZM18.5625 15.9141C21.7852 15.9141 24.4219 13.2656 24.4219 10.0312C24.4219 6.82031 21.7852 4.19531 18.5625 4.19531C15.3516 4.19531 12.7031 6.82031 12.7031 10.0312C12.7031 13.2656 15.3516 15.9141 18.5625 15.9141Z" fill="black" fill-opacity="0.85"/>
<path d="M9.48047 22.3125C7.74609 22.3125 6.33984 20.9062 6.33984 19.1602C6.33984 17.4492 7.75781 16.043 9.48047 16.043C11.2031 16.043 12.6211 17.4492 12.6211 19.1602C12.6211 20.9062 11.2148 22.3125 9.48047 22.3125ZM18.5625 13.9688C16.4297 13.9688 14.6484 12.1875 14.6484 10.0312C14.6484 7.89845 16.418 6.14062 18.5625 6.14062C20.7188 6.14062 22.4648 7.89845 22.4648 10.0312C22.4648 12.1875 20.707 13.9688 18.5625 13.9688Z" fill="white"/>
</svg>
