<svg width="24" height="22" viewBox="0 0 24 22" fill="none" xmlns="http://www.w3.org/2000/svg">
<path d="M1.10156 21.4805H6.75C7.75781 21.4805 8.60156 20.9297 9 20.0156L16.6875 2.68359C16.875 2.29688 17.168 2.12109 17.6367 2.12109H22.8281C23.4375 2.12109 23.9297 1.64062 23.9297 1.05469C23.9297 0.46875 23.4375 0 22.8281 0H17.1094C16.0312 0 15.3164 0.457031 14.8828 1.44141L7.16016 18.7852C6.98438 19.1719 6.67969 19.3594 6.25781 19.3594H1.10156C0.480469 19.3594 0 19.8281 0 20.4258C0 21.0234 0.480469 21.4805 1.10156 21.4805ZM15.2461 21.4805H22.8281C23.4492 21.4805 23.918 21.0352 23.918 20.4375C23.918 19.8398 23.4492 19.3828 22.8281 19.3828H15.2461C14.625 19.3828 14.1445 19.8398 14.1445 20.4375C14.1445 21.0352 14.625 21.4805 15.2461 21.4805Z" fill="black" fill-opacity="0.85"/>
</svg>
