<svg width="27" height="20" viewBox="0 0 27 20" fill="none" xmlns="http://www.w3.org/2000/svg">
<path d="M0 18.7852C0 19.3008 0.433594 19.7227 0.9375 19.7227H25.2422C25.7578 19.7227 26.1914 19.3008 26.1914 18.7852C26.1914 18.2695 25.7578 17.8359 25.2422 17.8359H3.22266L19.3711 1.6875C19.7344 1.32422 19.7344 0.714844 19.3711 0.351562C19.0078 -0.0117186 18.4102 -0.0117186 18.0352 0.351562L0.269531 18.1172C0.117188 18.2812 0 18.5273 0 18.7852ZM13.6641 18.75H15.5508C15.5508 14.7422 13.9219 11.1094 11.2969 8.47266L9.94922 9.79688C12.2461 12.0938 13.6641 15.2578 13.6641 18.75Z" fill="black" fill-opacity="0.85"/>
</svg>
