<svg width="20" height="29" viewBox="0 0 20 29" fill="none" xmlns="http://www.w3.org/2000/svg">
<path d="M9.76237 27.9961C13.0788 27.9961 15.9733 24.4336 15.9733 20.6016C15.9733 20.0039 15.8678 19.5 15.6569 19.0898C15.9967 19.1836 16.3366 19.2656 16.6647 19.3594C17.4733 19.582 17.7077 19.8984 17.6022 20.6016L16.7467 26.2148C16.6413 26.8828 17.0514 27.2812 17.6022 27.2812C18.1764 27.2812 18.4342 26.9297 18.528 26.3438L19.4889 20.2617C19.7116 18.8906 19.1491 18.1406 17.6491 17.7891L12.3639 16.5586L12.3522 16.4414C12.8561 16.1953 13.196 15.7148 13.3483 15.1875L16.946 14.6719C18.4108 14.4727 19.0671 13.6523 19.0671 12.2109V8.15625C19.0671 7.58203 18.7389 7.25391 18.1764 7.25391C17.6139 7.25391 17.2858 7.59375 17.2858 8.15625V11.8477C17.2858 12.6797 16.8405 12.9492 16.0788 13.0547L13.3952 13.418C13.2663 13.0547 13.0319 12.7266 12.7155 12.5156V12.3984C14.7194 12.0469 15.8327 10.8281 15.8327 9.04688C15.8327 7.54688 15.2702 6.17578 14.3561 5.12109L14.4616 5.03906C15.5983 4.21875 15.8092 3.01172 15.071 1.71094L14.3796 0.574219C14.1569 0.175781 13.8991 0 13.5358 0C13.0436 0 12.6921 0.351562 12.6921 0.808594C12.6921 1.01953 12.7272 1.13672 12.8561 1.37109L13.4655 2.29688C13.8405 2.90625 13.8405 3.43359 13.36 3.85547C13.2897 3.91406 13.2311 3.96094 13.1608 4.00781C12.1882 3.35156 11.0163 2.96484 9.76237 2.96484C8.5319 2.96484 7.37175 3.35156 6.41081 3.99609C6.3405 3.96094 6.27018 3.90234 6.21159 3.84375C5.74284 3.43359 5.73112 2.90625 6.11784 2.29688L6.72722 1.37109C6.85612 1.13672 6.89128 1.01953 6.89128 0.808594C6.89128 0.351562 6.528 0 6.04753 0C5.68425 0 5.42643 0.175781 5.20378 0.574219L4.51237 1.71094C3.77409 3.01172 3.98503 4.21875 5.12175 5.03906L5.20378 5.09766C4.278 6.15234 3.69206 7.53516 3.69206 9.04688C3.69206 10.8281 4.81706 12.0469 6.82097 12.3984V12.5156C6.49284 12.7266 6.27018 13.0547 6.14128 13.418L3.45768 13.0547C2.68425 12.9492 2.25065 12.6797 2.25065 11.8477V8.15625C2.25065 7.59375 1.92253 7.25391 1.36003 7.25391C0.797528 7.25391 0.469403 7.58203 0.469403 8.15625V12.2109C0.469403 13.6523 1.12565 14.4727 2.5905 14.6719L6.18815 15.1875C6.3405 15.7148 6.66862 16.1953 7.18425 16.4414V16.5586L1.88737 17.7891C0.375653 18.1406 -0.175128 18.8906 0.0475286 20.2617L1.00847 26.3438C1.0905 26.9297 1.36003 27.2812 1.93425 27.2812C2.48503 27.2812 2.89518 26.8828 2.78972 26.2148L1.93425 20.6016C1.81706 19.8984 2.06315 19.582 2.87175 19.3594C3.19987 19.2656 3.53972 19.1836 3.86784 19.0898C3.66862 19.5 3.56315 20.0039 3.56315 20.6016C3.56315 24.4336 6.45768 27.9961 9.76237 27.9961Z" fill="black" fill-opacity="0.85"/>
</svg>
