<svg width="24" height="24" viewBox="0 0 24 24" fill="none" xmlns="http://www.w3.org/2000/svg">
<path d="M11.9531 23.9062C18.4922 23.9062 23.9062 18.4805 23.9062 11.9531C23.9062 5.41406 18.4805 0 11.9414 0C5.41406 0 0 5.41406 0 11.9531C0 18.4805 5.42578 23.9062 11.9531 23.9062ZM11.9531 21.9141C6.42188 21.9141 2.00391 17.4844 2.00391 11.9531C2.00391 6.42188 6.41016 1.99219 11.9414 1.99219C17.4727 1.99219 21.9141 6.42188 21.9141 11.9531C21.9141 17.4844 17.4844 21.9141 11.9531 21.9141Z" fill="#007AFF"/>
<path d="M6.65672 15.0938L7.16063 18.3867C7.21922 18.7266 7.38328 18.9258 7.69969 18.9258C8.01609 18.9258 8.25047 18.6914 8.19188 18.3047L7.73485 15.2695C7.67625 14.9062 7.79344 14.7539 8.21531 14.6367C8.36766 14.5898 8.52 14.5547 8.68406 14.5078C8.60203 14.7305 8.56688 14.9766 8.56688 15.2812C8.56688 17.3555 10.1372 19.3125 11.9536 19.3125C13.77 19.3125 15.3403 17.3555 15.3403 15.2812C15.3403 14.9766 15.3052 14.7305 15.2232 14.5078C15.3755 14.5547 15.5278 14.5898 15.6919 14.6367C16.1138 14.7539 16.2193 14.9062 16.1724 15.2695L15.7036 18.3047C15.645 18.6914 15.8794 18.9258 16.2075 18.9258C16.5239 18.9258 16.688 18.7266 16.7349 18.3867L17.2505 15.0938C17.3794 14.3438 17.063 13.9336 16.2427 13.7227L13.4771 13.0664C13.6763 12.9844 13.9224 12.7148 14.0278 12.3516L15.856 12.0938C16.6528 11.9766 17.0278 11.5312 17.0278 10.7344V8.53125C17.0278 8.21484 16.8403 8.01562 16.5005 8.01562C16.1841 8.01562 15.9966 8.21484 15.9966 8.53125V10.5352C15.9966 10.9688 15.7622 11.0977 15.3638 11.1562L14.0044 11.3555C13.9458 11.1445 13.8169 10.957 13.688 10.8516C14.731 10.6406 15.2583 9.99609 15.2583 9.01172C15.2583 8.21484 14.9771 7.47656 14.4849 6.90234L14.52 6.86719C15.1411 6.42188 15.27 5.74219 14.8482 5.02734L14.4849 4.41797C14.356 4.19531 14.2153 4.08984 13.9927 4.08984C13.7232 4.08984 13.5122 4.28906 13.5122 4.55859C13.5122 4.67578 13.5357 4.75781 13.606 4.875L13.9341 5.36719C14.1099 5.67188 14.1802 5.92969 13.9458 6.11719L13.7935 6.24609C13.2427 5.89453 12.5513 5.68359 11.9536 5.68359C11.3443 5.68359 10.6528 5.89453 10.1021 6.24609L9.94969 6.11719C9.72703 5.92969 9.79735 5.67188 9.97313 5.36719L10.2896 4.875C10.3716 4.75781 10.3833 4.67578 10.3833 4.55859C10.3833 4.28906 10.1841 4.08984 9.90281 4.08984C9.69188 4.08984 9.52781 4.18359 9.41063 4.41797L9.04735 5.02734C8.64891 5.75391 8.75438 6.42188 9.38719 6.86719L9.41063 6.90234C8.91844 7.47656 8.63719 8.21484 8.63719 9.01172C8.63719 9.98438 9.17625 10.6406 10.2193 10.8398C10.0903 10.9453 9.94969 11.1445 9.90281 11.3555L8.53172 11.1562C8.145 11.1094 7.89891 10.9688 7.89891 10.5352V8.53125C7.89891 8.21484 7.72313 8.01562 7.395 8.01562C7.06688 8.01562 6.87938 8.21484 6.87938 8.53125V10.7344C6.87938 11.5312 7.24266 11.9766 8.05125 12.0938L9.87938 12.3516C9.97313 12.7148 10.2193 12.9727 10.4302 13.0664L7.66453 13.7227C6.84422 13.9219 6.52781 14.3438 6.65672 15.0938Z" fill="black" fill-opacity="0.85"/>
</svg>
