<svg width="25" height="22" viewBox="0 0 25 22" fill="none" xmlns="http://www.w3.org/2000/svg">
<path d="M0 8.33384C0 11.369 1.10156 14.1815 3.04688 16.2909C3.49219 16.7831 4.14844 16.7831 4.52344 16.3495C4.89844 15.9276 4.78125 15.3768 4.35938 14.8963C2.78906 13.1503 1.91016 10.8534 1.91016 8.33384C1.91016 5.81431 2.78906 3.51744 4.35938 1.77134C4.78125 1.29088 4.89844 0.740094 4.52344 0.318219C4.14844 -0.115375 3.49219 -0.115375 3.04688 0.376813C1.10156 2.48619 0 5.29869 0 8.33384ZM20.3555 16.3495C20.7305 16.7831 21.3867 16.7831 21.832 16.2909C23.7773 14.1815 24.8789 11.369 24.8789 8.33384C24.8789 5.29869 23.7773 2.48619 21.832 0.376813C21.3867 -0.115375 20.7305 -0.115375 20.3555 0.318219C19.9805 0.740094 20.0977 1.29088 20.5195 1.77134C22.0898 3.51744 22.9688 5.81431 22.9688 8.33384C22.9688 10.8534 22.0898 13.1503 20.5195 14.8963C20.0977 15.3768 19.9805 15.9276 20.3555 16.3495Z" fill="#007AFF"/>
<path d="M4.93359 8.33372C4.93359 10.0564 5.51953 11.6619 6.53906 12.9275C6.94922 13.4666 7.65234 13.4548 8.03906 13.0095C8.41406 12.5877 8.26172 12.0603 7.88672 11.5564C7.18359 10.6892 6.84375 9.55247 6.84375 8.33372C6.84375 7.11497 7.21875 6.01341 7.88672 5.11107C8.25 4.59544 8.41406 4.07982 8.03906 3.65794C7.65234 3.21263 6.94922 3.20091 6.53906 3.73997C5.51953 5.0056 4.93359 6.61107 4.93359 8.33372ZM16.8398 13.0095C17.2266 13.4548 17.9297 13.4666 18.3398 12.9275C19.3594 11.6619 19.9453 10.0564 19.9453 8.33372C19.9453 6.61107 19.3594 5.0056 18.3398 3.73997C17.9297 3.20091 17.2266 3.21263 16.8398 3.65794C16.4648 4.07982 16.6289 4.59544 16.9922 5.11107C17.6602 6.01341 18.0352 7.11497 18.0352 8.33372C18.0352 9.55247 17.6953 10.6892 16.9922 11.5564C16.6172 12.0603 16.4648 12.5877 16.8398 13.0095Z" fill="#007AFF"/>
<path d="M10.3359 8.33374C10.3359 9.17749 10.8164 9.90406 11.543 10.2322V20.7673C11.543 21.365 11.9062 21.7752 12.4453 21.7752C12.9961 21.7752 13.3359 21.3767 13.3359 20.7673V10.2322C14.0508 9.90406 14.543 9.16578 14.543 8.33374C14.543 7.16187 13.6172 6.21265 12.4453 6.21265C11.2617 6.21265 10.3359 7.16187 10.3359 8.33374Z" fill="black" fill-opacity="0.85"/>
</svg>
