<svg width="24" height="24" viewBox="0 0 24 24" fill="none" xmlns="http://www.w3.org/2000/svg">
<path d="M11.9531 23.9062C18.4922 23.9062 23.9062 18.4805 23.9062 11.9531C23.9062 5.41406 18.4805 0 11.9414 0C5.41406 0 0 5.41406 0 11.9531C0 18.4805 5.42578 23.9062 11.9531 23.9062ZM11.9531 21.9141C6.42188 21.9141 2.00391 17.4844 2.00391 11.9531C2.00391 6.42188 6.41016 1.99219 11.9414 1.99219C17.4727 1.99219 21.9141 6.42188 21.9141 11.9531C21.9141 17.4844 17.4844 21.9141 11.9531 21.9141Z" fill="#007AFF"/>
<path d="M4.58203 11.6017C4.58203 13.3829 5.21484 15.047 6.39844 16.3243C6.69141 16.6524 7.16016 16.6759 7.42969 16.3595C7.6875 16.0782 7.65234 15.6915 7.35938 15.3282C6.44531 14.3439 5.95312 13.0313 5.95312 11.6017C5.95312 10.172 6.44531 8.87116 7.35938 7.87507C7.65234 7.52351 7.6875 7.12507 7.44141 6.84382C7.16016 6.52741 6.69141 6.53913 6.39844 6.87898C5.22656 8.15632 4.58203 9.82038 4.58203 11.6017ZM17.9414 11.6017C17.9414 13.0313 17.4492 14.3439 16.5352 15.3282C16.2305 15.6915 16.1953 16.0782 16.4531 16.3595C16.7227 16.6759 17.1914 16.6524 17.4844 16.3243C18.668 15.047 19.3125 13.3829 19.3125 11.6017C19.3125 9.82038 18.6562 8.15632 17.4844 6.87898C17.1914 6.53913 16.7227 6.52741 16.4414 6.84382C16.1953 7.12507 16.2305 7.52351 16.5352 7.87507C17.4492 8.87116 17.9414 10.172 17.9414 11.6017Z" fill="black" fill-opacity="0.85"/>
<path d="M7.44141 11.6015C7.44141 12.6093 7.79297 13.5819 8.41406 14.3554C8.68359 14.7187 9.19922 14.7421 9.48047 14.414C9.72656 14.1444 9.69141 13.7929 9.39844 13.3944C9.01172 12.914 8.8125 12.3046 8.8125 11.6015C8.8125 10.9335 9.02344 10.3124 9.41016 9.79681C9.69141 9.41009 9.71484 9.05852 9.48047 8.78899C9.1875 8.46087 8.68359 8.48431 8.41406 8.84759C7.79297 9.62102 7.44141 10.5937 7.44141 11.6015ZM15.0703 11.6015C15.0703 12.3046 14.8711 12.914 14.4844 13.3944C14.1914 13.7929 14.1562 14.1444 14.4023 14.414C14.6836 14.7421 15.1992 14.7187 15.4688 14.3554C16.0898 13.5819 16.4414 12.6093 16.4414 11.6015C16.4414 10.5937 16.0898 9.62102 15.4688 8.84759C15.1992 8.48431 14.6953 8.46087 14.4023 8.78899C14.168 9.05852 14.2031 9.41009 14.4844 9.79681C14.8594 10.3124 15.0703 10.9335 15.0703 11.6015Z" fill="black" fill-opacity="0.85"/>
<path d="M10.582 11.6016C10.582 12.1172 10.875 12.5508 11.2969 12.7734V18.8672C11.2969 19.2773 11.5664 19.5703 11.9414 19.5703C12.3281 19.5703 12.5977 19.2891 12.5977 18.8672V12.7734C13.0078 12.5508 13.3008 12.1055 13.3008 11.6016C13.3008 10.8398 12.7031 10.2422 11.9414 10.2422C11.1914 10.2422 10.582 10.8398 10.582 11.6016Z" fill="black" fill-opacity="0.85"/>
</svg>
