<svg width="13" height="26" viewBox="0 0 13 26" fill="none" xmlns="http://www.w3.org/2000/svg">
<path d="M3.05859 25.8867H9.12891C10.9922 25.8867 12.1758 24.7383 12.1758 22.9688V2.91797C12.1758 1.14844 10.9922 0 9.12891 0H3.05859C1.18359 0 0 1.14844 0 2.91797V22.9688C0 24.7383 1.18359 25.8867 3.05859 25.8867ZM3.25781 24.1758C2.32031 24.1758 1.73438 23.6133 1.73438 22.7227V3.17578C1.73438 2.27344 2.32031 1.71094 3.25781 1.71094H8.91797C9.85547 1.71094 10.4414 2.27344 10.4414 3.17578V22.7227C10.4414 23.6133 9.85547 24.1758 8.91797 24.1758H3.25781ZM4.19531 10.6289C4.95703 10.6289 5.56641 10.0078 5.56641 9.25781C5.56641 8.50781 4.95703 7.88672 4.19531 7.88672C3.44531 7.88672 2.82422 8.50781 2.82422 9.25781C2.82422 10.0078 3.44531 10.6289 4.19531 10.6289ZM8.00391 10.6289C8.75391 10.6289 9.375 10.0078 9.375 9.25781C9.375 8.50781 8.75391 7.88672 8.00391 7.88672C7.24219 7.88672 6.63281 8.50781 6.63281 9.25781C6.63281 10.0078 7.24219 10.6289 8.00391 10.6289ZM4.19531 14.3438C4.95703 14.3438 5.56641 13.7227 5.56641 12.9727C5.56641 12.2109 4.95703 11.6016 4.19531 11.6016C3.44531 11.6016 2.82422 12.2109 2.82422 12.9727C2.82422 13.7227 3.44531 14.3438 4.19531 14.3438ZM4.19531 18.0469C4.95703 18.0469 5.56641 17.4375 5.56641 16.6758C5.56641 15.9258 4.95703 15.3047 4.19531 15.3047C3.44531 15.3047 2.82422 15.9258 2.82422 16.6758C2.82422 17.4375 3.44531 18.0469 4.19531 18.0469ZM7.99219 18.0469C8.71875 18.0469 9.31641 17.4727 9.31641 16.7344V12.9023C9.31641 12.1758 8.71875 11.6016 7.99219 11.6016C7.27734 11.6016 6.70312 12.1758 6.70312 12.9023V16.7344C6.70312 17.4727 7.27734 18.0469 7.99219 18.0469Z" fill="black" fill-opacity="0.85"/>
</svg>
