<svg width="13" height="25" viewBox="0 0 13 25" fill="none" xmlns="http://www.w3.org/2000/svg">
<path d="M2.21484 18.5508H10.2773C11.0977 18.5508 11.8711 18.8086 12.4922 19.2656V3.04688C12.4922 1.18359 11.2617 0 9.30469 0H3.1875C1.23047 0 0 1.18359 0 3.04688V19.2656C0.621094 18.8086 1.39453 18.5508 2.21484 18.5508ZM6.25781 5.40234C5.47266 5.40234 4.83984 4.76953 4.83984 3.99609C4.83984 3.21094 5.47266 2.57812 6.25781 2.57812C7.03125 2.57812 7.67578 3.21094 7.67578 3.99609C7.67578 4.76953 7.03125 5.40234 6.25781 5.40234ZM2.21484 24.5742H10.2773C11.4961 24.5742 12.4922 23.5781 12.4922 22.3594C12.4922 21.1406 11.4961 20.1445 10.2773 20.1445H2.21484C0.996094 20.1445 0 21.1406 0 22.3594C0 23.5781 0.996094 24.5742 2.21484 24.5742Z" fill="black" fill-opacity="0.85"/>
</svg>
