<svg width="23" height="25" viewBox="0 0 23 25" fill="none" xmlns="http://www.w3.org/2000/svg">
<path d="M11.5898 24.6094C17.7891 24.6094 22.8047 19.1016 22.8047 12.3047C22.8047 5.50781 17.7891 0 11.5898 0C8.26172 0 5.23828 1.59375 3.17578 4.18359C2.96484 4.44141 2.88281 4.6875 2.88281 4.92188C2.88281 5.42578 3.33984 5.77734 3.83203 5.77734C4.11328 5.77734 4.40625 5.66016 4.61719 5.39062C6.32812 3.21094 8.85938 1.88672 11.5898 1.88672C16.7344 1.88672 20.9062 6.55078 20.9062 12.3047C20.9062 18.0586 16.7344 22.7227 11.5898 22.7227C8.85938 22.7227 6.32812 21.3867 4.61719 19.2188C4.40625 18.9492 4.11328 18.832 3.83203 18.832C3.33984 18.832 2.88281 19.1836 2.88281 19.6875C2.88281 19.9102 2.96484 20.168 3.17578 20.4258C5.23828 23.0156 8.26172 24.6094 11.5898 24.6094Z" fill="#007AFF"/>
<path d="M0 18.3047C0 19.793 1.18359 20.9648 2.58984 21.0352C2.21484 20.5664 2.02734 20.1211 2.02734 19.7109C2.02734 18.7383 2.92969 17.9766 3.86719 17.9766C4.60547 17.9766 4.98047 18.3516 5.47266 18.9492C5.51953 18.7383 5.54297 18.5273 5.54297 18.3047V6.29297C5.54297 6.07031 5.51953 5.87109 5.47266 5.66016C5.00391 6.22266 4.62891 6.62109 3.87891 6.62109C2.92969 6.62109 2.02734 5.87109 2.02734 4.89844C2.02734 4.48828 2.21484 4.05469 2.58984 3.57422C1.19531 3.64453 0 4.80469 0 6.29297V18.3047ZM2.78906 12.1523C1.74609 12.1523 0.890625 11.3086 0.890625 10.2773C0.890625 9.23438 1.74609 8.39062 2.78906 8.39062C3.79688 8.39062 4.65234 9.24609 4.65234 10.2773C4.65234 11.3086 3.80859 12.1523 2.78906 12.1523ZM2.78906 11.2266C3.31641 11.2266 3.72656 10.8164 3.72656 10.2773C3.72656 9.73828 3.31641 9.31641 2.78906 9.31641C2.22656 9.31641 1.81641 9.73828 1.81641 10.2773C1.81641 10.8164 2.22656 11.2266 2.78906 11.2266Z" fill="black" fill-opacity="0.85"/>
</svg>
