<svg width="12" height="26" viewBox="0 0 12 26" fill="none" xmlns="http://www.w3.org/2000/svg">
<path d="M0 23.3555C0 24.9023 1.03125 25.8867 2.67188 25.8867H8.95312C10.5938 25.8867 11.625 24.9023 11.625 23.3555V2.53125C11.625 0.996094 10.5938 0 8.95312 0H2.67188C1.03125 0 0 0.996094 0 2.53125V23.3555ZM5.82422 16.125C4.98047 16.125 4.3125 15.457 4.3125 14.6367C4.3125 13.793 4.98047 13.1367 5.82422 13.1367C6.64453 13.1367 7.3125 13.793 7.3125 14.6367C7.3125 15.457 6.64453 16.125 5.82422 16.125ZM5.82422 11.5078C3.63281 11.5078 1.83984 9.71484 1.83984 7.52344C1.83984 5.33203 3.63281 3.53906 5.82422 3.53906C8.01562 3.53906 9.79688 5.33203 9.79688 7.52344C9.79688 9.71484 8.01562 11.5078 5.82422 11.5078ZM5.82422 9.12891C6.71484 9.12891 7.42969 8.41406 7.42969 7.52344C7.42969 6.63281 6.71484 5.90625 5.82422 5.90625C4.93359 5.90625 4.20703 6.63281 4.20703 7.52344C4.20703 8.41406 4.93359 9.12891 5.82422 9.12891Z" fill="black" fill-opacity="0.85"/>
</svg>
