<svg width="12" height="26" viewBox="0 0 12 26" fill="none" xmlns="http://www.w3.org/2000/svg">
<path d="M0 23.3555C0 24.9023 1.03125 25.8867 2.67188 25.8867H8.64844C10.2773 25.8867 11.3203 24.9023 11.3203 23.3555V2.53125C11.3203 0.996094 10.2773 0 8.64844 0H2.67188C1.03125 0 0 0.996094 0 2.53125V23.3555ZM3.53906 14.7305C2.73047 14.7305 2.07422 14.0742 2.07422 13.2773C2.07422 12.4688 2.73047 11.8242 3.53906 11.8242C4.34766 11.8242 4.98047 12.4688 4.98047 13.2773C4.98047 14.0742 4.34766 14.7305 3.53906 14.7305ZM7.80469 14.7305C6.98438 14.7305 6.33984 14.0742 6.33984 13.2773C6.33984 12.4688 6.98438 11.8242 7.80469 11.8242C8.60156 11.8242 9.24609 12.4688 9.24609 13.2773C9.24609 14.0742 8.60156 14.7305 7.80469 14.7305ZM5.66016 10.3242C3.57422 10.3242 1.83984 8.61328 1.83984 6.50391C1.83984 4.39453 3.57422 2.68359 5.66016 2.68359C7.75781 2.68359 9.48047 4.39453 9.48047 6.50391C9.48047 8.61328 7.75781 10.3242 5.66016 10.3242ZM5.67188 8.03906C6.52734 8.03906 7.21875 7.35938 7.21875 6.50391C7.21875 5.64844 6.52734 4.95703 5.67188 4.95703C4.81641 4.95703 4.11328 5.64844 4.11328 6.50391C4.11328 7.35938 4.81641 8.03906 5.67188 8.03906Z" fill="black" fill-opacity="0.85"/>
</svg>
