<svg width="23" height="26" viewBox="0 0 23 26" fill="none" xmlns="http://www.w3.org/2000/svg">
<path d="M3.43652 17.2852C3.43652 19.1016 4.15137 20.4375 5.47559 21.1641C6.12012 21.5039 6.49512 21.9375 6.72949 22.7227L7.10449 23.9766C7.32715 24.7266 7.85449 25.0898 8.63965 25.0898H14.0537C14.8623 25.0898 15.3545 24.7383 15.5771 23.9766L15.9639 22.7227C16.1982 21.9375 16.5732 21.5039 17.2178 21.1641C18.542 20.4375 19.2568 19.1016 19.2568 17.2852V7.80469C19.2568 5.98828 18.542 4.66406 17.2178 3.92578C16.5732 3.58594 16.1982 3.15234 15.9639 2.37891L15.5771 1.11328C15.3779 0.375 14.8506 0 14.0537 0H8.63965C7.85449 0 7.32715 0.363281 7.10449 1.11328L6.72949 2.37891C6.50684 3.14062 6.13184 3.59766 5.47559 3.92578C4.16309 4.62891 3.43652 5.96484 3.43652 7.80469V17.2852ZM5.14746 17.0391V8.0625C5.14746 6.31641 6.16699 5.26172 7.87793 5.26172H14.8154C16.5264 5.26172 17.5459 6.31641 17.5459 8.0625V17.0391C17.5459 18.7734 16.5264 19.8281 14.8154 19.8281H7.87793C6.16699 19.8281 5.14746 18.7734 5.14746 17.0391ZM18.999 11.7188H19.4209C20.0303 11.7188 20.4287 11.3086 20.4287 10.6406V9.05859C20.4287 8.39062 20.0303 7.98047 19.4209 7.98047H18.999V11.7188Z" fill="#007AFF"/>
<path d="M18.8701 23.25C19.7725 24.1406 21.2256 24.1406 22.0928 23.2266C22.96 22.3477 22.96 20.918 22.0811 20.0391L3.88184 1.83985C3.00293 0.960946 1.5498 0.949227 0.65918 1.83985C-0.219727 2.71876 -0.219727 4.1836 0.65918 5.06251L18.8701 23.25Z" fill="white"/>
<path d="M19.8428 22.2773C20.1943 22.6406 20.7686 22.6406 21.1201 22.2773C21.46 21.9258 21.4717 21.3633 21.1201 21L2.9209 2.81252C2.56934 2.46096 1.9834 2.44924 1.63184 2.81252C1.29199 3.15236 1.29199 3.75002 1.63184 4.08986L19.8428 22.2773Z" fill="black" fill-opacity="0.85"/>
</svg>
