<svg width="12" height="26" viewBox="0 0 12 26" fill="none" xmlns="http://www.w3.org/2000/svg">
<path d="M3.05859 25.8867H8.36719C10.2305 25.8867 11.4141 24.7383 11.4141 22.9688V2.91797C11.4141 1.14844 10.2305 0 8.36719 0H3.05859C1.18359 0 0 1.14844 0 2.91797V22.9688C0 24.7383 1.18359 25.8867 3.05859 25.8867ZM3.25781 24.1758C2.32031 24.1758 1.73438 23.6133 1.73438 22.7227V3.17578C1.73438 2.27344 2.32031 1.71094 3.25781 1.71094H8.15625C9.10547 1.71094 9.67969 2.27344 9.67969 3.17578V22.7227C9.67969 23.6133 9.10547 24.1758 8.15625 24.1758H3.25781ZM5.70703 9.86719C7.55859 9.86719 9.05859 8.36719 9.05859 6.52734C9.05859 4.66406 7.55859 3.17578 5.70703 3.17578C3.85547 3.17578 2.36719 4.66406 2.36719 6.52734C2.36719 8.36719 3.85547 9.86719 5.70703 9.86719ZM4.03125 13.2656C4.74609 13.2656 5.32031 12.6797 5.32031 11.9766C5.32031 11.2617 4.74609 10.6875 4.03125 10.6875C3.31641 10.6875 2.74219 11.2617 2.74219 11.9766C2.74219 12.6797 3.31641 13.2656 4.03125 13.2656ZM7.39453 13.2656C8.10938 13.2656 8.67188 12.6797 8.67188 11.9766C8.67188 11.2617 8.10938 10.6875 7.39453 10.6875C6.67969 10.6875 6.10547 11.2617 6.10547 11.9766C6.10547 12.6797 6.67969 13.2656 7.39453 13.2656ZM4.03125 16.5234C4.74609 16.5234 5.32031 15.9375 5.32031 15.2227C5.32031 14.5195 4.74609 13.9336 4.03125 13.9336C3.31641 13.9336 2.74219 14.5195 2.74219 15.2227C2.74219 15.9375 3.31641 16.5234 4.03125 16.5234ZM4.03125 19.7695C4.74609 19.7695 5.32031 19.1836 5.32031 18.4805C5.32031 17.7656 4.74609 17.1797 4.03125 17.1797C3.31641 17.1797 2.74219 17.7656 2.74219 18.4805C2.74219 19.1836 3.31641 19.7695 4.03125 19.7695ZM7.38281 19.7695C8.0625 19.7695 8.61328 19.2305 8.61328 18.5508V15.1523C8.61328 14.4727 8.0625 13.9336 7.38281 13.9336C6.71484 13.9336 6.17578 14.4727 6.17578 15.1523V18.5508C6.17578 19.207 6.71484 19.7695 7.38281 19.7695Z" fill="black" fill-opacity="0.85"/>
</svg>
