<svg width="24" height="24" viewBox="0 0 24 24" fill="none" xmlns="http://www.w3.org/2000/svg">
<path d="M6.24609 23.332H17.1445C19.1484 23.332 20.8359 23.1445 22.0312 21.9492C23.2266 20.7539 23.4023 19.0781 23.4023 17.0742V6.26953C23.4023 4.26562 23.2266 2.60156 22.0312 1.40625C20.8359 0.210938 19.1484 0.0234375 17.1445 0.0234375H6.22266C4.25391 0.0234375 2.56641 0.210938 1.37109 1.40625C0.175781 2.60156 0 4.27734 0 6.24609V17.0742C0 19.0781 0.175781 20.7539 1.37109 21.9492C2.56641 23.1445 4.25391 23.332 6.24609 23.332ZM5.92969 21.4453C4.72266 21.4453 3.45703 21.2812 2.74219 20.5664C2.03906 19.8633 1.88672 18.6094 1.88672 17.4023V5.98828C1.88672 4.74609 2.03906 3.49219 2.74219 2.77734C3.45703 2.07422 4.73438 1.91016 5.96484 1.91016H17.4727C18.6797 1.91016 19.9453 2.07422 20.6484 2.78906C21.3633 3.49219 21.5156 4.74609 21.5156 5.95312V17.4023C21.5156 18.6094 21.3633 19.8633 20.6484 20.5664C19.9453 21.2812 18.6797 21.4453 17.4727 21.4453H5.92969Z" fill="#007AFF"/>
<path d="M6.43359 9.10547C7.38281 9.21094 8.12109 8.16797 8.0625 7.33594C7.11328 7.37109 6.41016 8.21484 6.43359 9.10547ZM9.66797 13.1602C9.22266 12.9609 8.92969 12.668 8.76562 12.2461C8.58984 11.7891 8.61328 11.3203 8.76562 10.9219C8.84766 10.6523 9.02344 10.3242 9.48047 10.0547C9.14062 9.55078 8.60156 9.29297 7.96875 9.29297C7.25391 9.29297 6.84375 9.66797 6.48047 9.66797C6.17578 9.66797 5.83594 9.30469 5.26172 9.30469C4.64062 9.30469 4.13672 9.5625 3.80859 9.98438C3.41016 10.4766 3.24609 11.0742 3.24609 11.6953C3.24609 12.7148 3.69141 13.9102 4.35938 14.6602C4.72266 15.0469 4.99219 15.2461 5.30859 15.2461C5.78906 15.2461 6.04688 14.8945 6.62109 14.8945C6.87891 14.8945 7.08984 15 7.24219 15.0469C7.47656 15.1289 7.64062 15.2344 7.91016 15.2344C8.20312 15.2344 8.4375 15.1172 8.58984 14.9766C9.09375 14.4727 9.50391 13.7578 9.66797 13.1602ZM12.8789 7.91016H11.6602V9.29297H10.8164V10.2305H11.6602V13.6289C11.6602 14.8125 12.1289 15.2344 13.3242 15.2344C13.582 15.2344 13.875 15.1992 13.9805 15.1875V14.1914C13.9219 14.2266 13.7109 14.2266 13.582 14.2266C13.1016 14.2266 12.8789 14.0273 12.8789 13.4883V10.2305H14.0039V9.29297H12.8789V7.91016ZM17.9766 15.1875L20.1094 9.29297H18.7852L17.3555 14.0273L15.832 9.29297H14.543L16.7109 15.1875H17.9766Z" fill="black" fill-opacity="0.85"/>
</svg>
