<svg width="16" height="25" viewBox="0 0 16 25" fill="none" xmlns="http://www.w3.org/2000/svg">
<path d="M3.1875 24.8086H11.8828C13.793 24.8086 15.0703 23.5898 15.0703 21.7617V3.04688C15.0703 1.21875 13.793 0 11.8828 0H3.1875C1.27734 0 0 1.21875 0 3.04688V21.7617C0 23.5898 1.27734 24.8086 3.1875 24.8086ZM3.43359 22.9219C2.4375 22.9219 1.88672 22.3945 1.88672 21.457V3.35156C1.88672 2.41406 2.4375 1.88672 3.43359 1.88672H11.6484C12.6328 1.88672 13.1836 2.41406 13.1836 3.35156V21.457C13.1836 22.3945 12.6328 22.9219 11.6484 22.9219H3.43359Z" fill="#007AFF"/>
<path d="M3.99609 21.3281H5.09766C5.35547 21.3281 5.55469 21.1523 5.55469 20.9062V19.7695C5.55469 19.5234 5.35547 19.3477 5.09766 19.3477H3.99609C3.73828 19.3477 3.5625 19.5234 3.5625 19.7695V20.9062C3.5625 21.1523 3.73828 21.3281 3.99609 21.3281ZM6.96094 21.3281H8.07422C8.33203 21.3281 8.53125 21.1523 8.53125 20.9062V19.7695C8.53125 19.5234 8.33203 19.3477 8.07422 19.3477H6.96094C6.71484 19.3477 6.53906 19.5234 6.53906 19.7695V20.9062C6.53906 21.1523 6.71484 21.3281 6.96094 21.3281ZM9.9375 21.3281H11.0391C11.3086 21.3281 11.4961 21.1523 11.4961 20.9062V19.7695C11.4961 19.5234 11.3086 19.3477 11.0391 19.3477H9.9375C9.69141 19.3477 9.51562 19.5234 9.51562 19.7695V20.9062C9.51562 21.1523 9.69141 21.3281 9.9375 21.3281ZM3.99609 11.9062H5.09766C5.35547 11.9062 5.55469 11.7305 5.55469 11.4727V10.3477C5.55469 10.0898 5.35547 9.91406 5.09766 9.91406H3.99609C3.73828 9.91406 3.5625 10.0898 3.5625 10.3477V11.4727C3.5625 11.7305 3.73828 11.9062 3.99609 11.9062ZM6.96094 11.9062H8.07422C8.33203 11.9062 8.53125 11.7305 8.53125 11.4727V10.3477C8.53125 10.0898 8.33203 9.91406 8.07422 9.91406H6.96094C6.71484 9.91406 6.53906 10.0898 6.53906 10.3477V11.4727C6.53906 11.7305 6.71484 11.9062 6.96094 11.9062ZM3.99609 8.71875H5.09766C5.35547 8.71875 5.55469 8.54297 5.55469 8.29688V7.16016C5.55469 6.90234 5.35547 6.72656 5.09766 6.72656H3.99609C3.73828 6.72656 3.5625 6.90234 3.5625 7.16016V8.29688C3.5625 8.54297 3.73828 8.71875 3.99609 8.71875ZM6.96094 8.71875H8.07422C8.33203 8.71875 8.53125 8.54297 8.53125 8.29688V7.16016C8.53125 6.90234 8.33203 6.72656 8.07422 6.72656H6.96094C6.71484 6.72656 6.53906 6.90234 6.53906 7.16016V8.29688C6.53906 8.54297 6.71484 8.71875 6.96094 8.71875ZM9.9375 8.71875H11.0391C11.3086 8.71875 11.4961 8.54297 11.4961 8.29688V7.16016C11.4961 6.90234 11.3086 6.72656 11.0391 6.72656H9.9375C9.69141 6.72656 9.51562 6.90234 9.51562 7.16016V8.29688C9.51562 8.54297 9.69141 8.71875 9.9375 8.71875ZM3.99609 5.54297H5.09766C5.35547 5.54297 5.55469 5.36719 5.55469 5.10938V3.98438C5.55469 3.72656 5.35547 3.55078 5.09766 3.55078H3.99609C3.73828 3.55078 3.5625 3.72656 3.5625 3.98438V5.10938C3.5625 5.36719 3.73828 5.54297 3.99609 5.54297ZM6.96094 5.54297H8.07422C8.33203 5.54297 8.53125 5.36719 8.53125 5.10938V3.98438C8.53125 3.72656 8.33203 3.55078 8.07422 3.55078H6.96094C6.71484 3.55078 6.53906 3.72656 6.53906 3.98438V5.10938C6.53906 5.36719 6.71484 5.54297 6.96094 5.54297ZM9.9375 5.54297H11.0391C11.3086 5.54297 11.4961 5.36719 11.4961 5.10938V3.98438C11.4961 3.72656 11.3086 3.55078 11.0391 3.55078H9.9375C9.69141 3.55078 9.51562 3.72656 9.51562 3.98438V5.10938C9.51562 5.36719 9.69141 5.54297 9.9375 5.54297Z" fill="black" fill-opacity="0.85"/>
</svg>
