<svg width="25" height="29" viewBox="0 0 25 29" fill="none" xmlns="http://www.w3.org/2000/svg">
<path d="M12.4336 2.48438C13.1367 2.48438 13.6641 1.94531 13.6641 1.24219C13.6641 0.550781 13.125 0 12.4336 0C11.7539 0 11.1914 0.5625 11.1914 1.24219C11.1914 1.93359 11.7422 2.48438 12.4336 2.48438ZM6.83203 5.70703C7.53516 5.70703 8.07422 5.16797 8.07422 4.46484C8.07422 3.77344 7.52344 3.22266 6.83203 3.22266C6.16406 3.22266 5.58984 3.78516 5.58984 4.46484C5.58984 5.15625 6.14062 5.70703 6.83203 5.70703ZM18.0234 5.70703C18.7266 5.70703 19.2656 5.16797 19.2656 4.46484C19.2656 3.77344 18.7148 3.22266 18.0234 3.22266C17.3555 3.22266 16.7812 3.78516 16.7812 4.46484C16.7812 5.15625 17.332 5.70703 18.0234 5.70703ZM1.24219 8.97656C1.94531 8.97656 2.47266 8.4375 2.47266 7.73438C2.47266 7.05469 1.93359 6.50391 1.24219 6.50391C0.5625 6.50391 0 7.06641 0 7.73438C0 8.42578 0.550781 8.97656 1.24219 8.97656ZM23.5781 8.97656C24.2812 8.97656 24.8203 8.4375 24.8203 7.73438C24.8203 7.04297 24.2695 6.50391 23.5781 6.50391C22.8984 6.50391 22.3359 7.06641 22.3359 7.73438C22.3359 8.42578 22.8867 8.97656 23.5781 8.97656ZM1.24219 15.4805C1.93359 15.4805 2.47266 14.9297 2.47266 14.2383C2.47266 13.5469 1.93359 12.9961 1.24219 12.9961C0.5625 12.9961 0 13.5586 0 14.2383C0 14.9297 0.550781 15.4805 1.24219 15.4805ZM23.5781 15.4805C24.2812 15.4805 24.8203 14.9414 24.8203 14.2383C24.8203 13.5469 24.2695 12.9961 23.5781 12.9961C22.8984 12.9961 22.3359 13.5586 22.3359 14.2383C22.3359 14.9297 22.8867 15.4805 23.5781 15.4805ZM1.24219 21.9727C1.94531 21.9727 2.47266 21.4336 2.47266 20.7305C2.47266 20.0508 1.93359 19.5 1.24219 19.5C0.5625 19.5 0 20.0625 0 20.7305C0 21.4219 0.550781 21.9727 1.24219 21.9727ZM23.5781 21.9727C24.2812 21.9727 24.8203 21.4453 24.8203 20.7305C24.8203 20.0508 24.2695 19.5 23.5781 19.5C22.8984 19.5 22.3359 20.0625 22.3359 20.7305C22.3359 21.4219 22.8867 21.9727 23.5781 21.9727ZM6.83203 25.2422C7.53516 25.2422 8.07422 24.7148 8.07422 24.0117C8.07422 23.3203 7.52344 22.7695 6.83203 22.7695C6.16406 22.7695 5.58984 23.332 5.58984 24.0117C5.58984 24.7031 6.14062 25.2422 6.83203 25.2422ZM18.0234 25.2422C18.7266 25.2422 19.2656 24.7148 19.2656 24.0117C19.2656 23.3203 18.7148 22.7695 18.0234 22.7695C17.3555 22.7695 16.7812 23.332 16.7812 24.0117C16.7812 24.7031 17.332 25.2422 18.0234 25.2422ZM12.4336 28.4766C13.1367 28.4766 13.6641 27.9375 13.6641 27.2344C13.6641 26.543 13.125 25.9922 12.4336 25.9922C11.7539 25.9922 11.1914 26.5547 11.1914 27.2344C11.1914 27.9258 11.7422 28.4766 12.4336 28.4766Z" fill="black" fill-opacity="0.85"/>
<path d="M12.4336 9.41016C13.3594 9.41016 14.0977 8.67188 14.0977 7.73438C14.0977 6.82031 13.3477 6.07031 12.4336 6.07031C11.5195 6.07031 10.7578 6.83203 10.7578 7.73438C10.7578 8.66016 11.5078 9.41016 12.4336 9.41016ZM6.83203 12.6562C7.76953 12.6562 8.50781 11.918 8.50781 10.9805C8.50781 10.0547 7.75781 9.30469 6.83203 9.30469C5.92969 9.30469 5.16797 10.0781 5.16797 10.9805C5.16797 11.9062 5.91797 12.6562 6.83203 12.6562ZM18.0234 12.6562C18.9609 12.6562 19.6992 11.918 19.6992 10.9805C19.6992 10.0547 18.9492 9.30469 18.0234 9.30469C17.1211 9.30469 16.3594 10.0781 16.3594 10.9805C16.3594 11.9062 17.1094 12.6562 18.0234 12.6562ZM6.83203 19.1719C7.76953 19.1719 8.50781 18.4336 8.50781 17.4961C8.50781 16.5703 7.75781 15.8203 6.83203 15.8203C5.92969 15.8203 5.16797 16.582 5.16797 17.4961C5.16797 18.4102 5.91797 19.1719 6.83203 19.1719ZM18.0234 19.1719C18.9609 19.1719 19.6992 18.4336 19.6992 17.4961C19.6992 16.5703 18.9492 15.8203 18.0234 15.8203C17.1211 15.8203 16.3594 16.582 16.3594 17.4961C16.3594 18.4102 17.1094 19.1719 18.0234 19.1719ZM12.4336 22.4062C13.3594 22.4062 14.0977 21.668 14.0977 20.7305C14.0977 19.8164 13.3477 19.0664 12.4336 19.0664C11.5312 19.0664 10.7578 19.8281 10.7578 20.7305C10.7578 21.6562 11.5078 22.4062 12.4336 22.4062Z" fill="black" fill-opacity="0.85"/>
<path d="M12.4336 16.1953C13.5234 16.1953 14.3906 15.3281 14.3906 14.2383C14.3906 13.1602 13.5 12.2812 12.4336 12.2812C11.3672 12.2812 10.4766 13.1719 10.4766 14.2383C10.4766 15.3047 11.3555 16.1953 12.4336 16.1953Z" fill="black" fill-opacity="0.85"/>
</svg>
