<svg width="34" height="22" viewBox="0 0 34 22" fill="none" xmlns="http://www.w3.org/2000/svg">
<path d="M4.86 21.082H28.3327C31.778 21.082 33.5709 18.8672 33.1256 15.1875L31.86 4.62891C31.5084 1.64062 29.7858 0 27.0553 0H6.13735C3.40688 0 1.68422 1.64062 1.33266 4.62891L0.0670356 15.1875C-0.378277 18.8672 1.41469 21.082 4.86 21.082ZM8.64516 13.957C8.18813 13.957 7.82485 13.7461 7.82485 13.4414V10.0664C6.5475 9.69141 5.59829 8.51953 5.59829 7.125C5.59829 5.46094 6.95766 4.08984 8.64516 4.08984C10.3092 4.08984 11.6803 5.44922 11.6803 7.125C11.6803 8.50781 10.7311 9.69141 9.46547 10.0312V13.4414C9.46547 13.7461 9.09047 13.957 8.64516 13.957ZM8.64516 16.5234C6.18422 16.5234 4.44985 15.2109 4.44985 13.3477C4.44985 12.0352 5.2936 11.0039 6.65297 10.5V12.082C6.19594 12.3867 5.92641 12.8203 5.92641 13.3477C5.92641 14.4492 7.03969 15.2227 8.64516 15.2227C10.2389 15.2227 11.3405 14.4492 11.3405 13.3477C11.3405 12.832 11.0827 12.3984 10.6373 12.0938V10.5C11.9733 11.0156 12.817 12.0352 12.817 13.3477C12.817 15.2109 11.0944 16.5234 8.64516 16.5234ZM15.6998 9.78516C14.7272 9.78516 13.942 9 13.942 8.02734C13.942 7.04297 14.7272 6.25781 15.6998 6.25781C16.6842 6.25781 17.4694 7.04297 17.4694 8.02734C17.4694 9 16.6842 9.78516 15.6998 9.78516ZM20.8092 9.78516C19.8366 9.78516 19.0514 9 19.0514 8.02734C19.0514 7.04297 19.8366 6.25781 20.8092 6.25781C21.7819 6.25781 22.5788 7.04297 22.5788 8.02734C22.5788 9 21.7819 9.78516 20.8092 9.78516ZM25.9069 9.78516C24.9342 9.78516 24.1373 9 24.1373 8.02734C24.1373 7.04297 24.9342 6.25781 25.9069 6.25781C26.8678 6.25781 27.6647 7.04297 27.6647 8.02734C27.6647 9 26.8678 9.78516 25.9069 9.78516ZM17.4108 14.8711C16.4264 14.8711 15.6413 14.0859 15.6413 13.1133C15.6413 12.1406 16.4264 11.3438 17.4108 11.3438C18.3717 11.3438 19.1569 12.1406 19.1569 13.1133C19.1569 14.0859 18.3717 14.8711 17.4108 14.8711ZM22.5084 14.8711C21.5358 14.8711 20.7506 14.0859 20.7506 13.1133C20.7506 12.1406 21.5358 11.3438 22.5084 11.3438C23.4811 11.3438 24.278 12.1406 24.278 13.1133C24.278 14.0859 23.4811 14.8711 22.5084 14.8711ZM27.6061 14.8711C26.6334 14.8711 25.8483 14.0859 25.8483 13.1133C25.8483 12.1406 26.6334 11.3438 27.6061 11.3438C28.5905 11.3438 29.3756 12.1406 29.3756 13.1133C29.3756 14.0859 28.5905 14.8711 27.6061 14.8711Z" fill="black" fill-opacity="0.85"/>
</svg>
