<svg width="32" height="25" viewBox="0 0 32 25" fill="none" xmlns="http://www.w3.org/2000/svg">
<path d="M15.5625 24.6562C19.3945 24.6562 22.3711 22.1367 22.3711 18.9023C22.3711 15.6562 19.3945 13.1367 15.5625 13.1367C11.707 13.1367 8.73047 15.6562 8.73047 18.9023C8.73047 22.1367 11.707 24.6562 15.5625 24.6562ZM15.5625 22.7695C12.7734 22.7695 10.6172 21.082 10.6172 18.9023C10.6172 16.7109 12.7734 15.0234 15.5625 15.0234C18.3516 15.0234 20.4844 16.7109 20.4844 18.9023C20.4844 21.082 18.3516 22.7695 15.5625 22.7695Z" fill="#007AFF"/>
<path d="M15.5156 21.3984C17.0039 21.3984 18.2227 20.4844 18.2227 19.1836V5.71875H12.8203V19.1836C12.8203 20.4844 14.0508 21.3984 15.5156 21.3984Z" fill="white"/>
<path d="M15.5156 20.0273C16.2539 20.0273 16.8633 19.6758 16.8633 19.1836V7.08984H14.1914V19.1836C14.1914 19.6758 14.7773 20.0273 15.5156 20.0273ZM15.5156 10.0664C18.3047 10.0664 20.5312 7.80469 20.5312 5.01562C20.5312 2.25 18.2812 0 15.5156 0C12.7383 0 10.4766 2.27344 10.4766 5.01562C10.4766 7.82812 12.7383 10.0664 15.5156 10.0664Z" fill="#007AFF"/>
<path d="M9.1875 10.3944C9.1875 9.89056 8.78906 9.49213 8.27344 9.49213H5.01562V7.93353C5.01562 7.1015 4.20703 6.85541 3.58594 7.32416L0.316406 9.79682C-0.105469 10.1132 -0.105469 10.7108 0.316406 11.039L3.58594 13.4999C4.23047 13.9921 5.01562 13.6991 5.01562 12.8905V11.3202H8.27344C8.78906 11.3202 9.1875 10.9101 9.1875 10.3944ZM21.8438 10.3944C21.8438 10.9101 22.2539 11.3202 22.7695 11.3202H26.0156V12.8905C26.0156 13.6991 26.8008 13.9921 27.4453 13.4999L30.7148 11.039C31.1484 10.7108 31.1367 10.1132 30.7148 9.79682L27.4453 7.32416C26.8242 6.85541 26.0156 7.1015 26.0156 7.93353V9.49213H22.7695C22.2539 9.49213 21.8438 9.89056 21.8438 10.3944Z" fill="black" fill-opacity="0.85"/>
</svg>
