<svg width="24" height="22" viewBox="0 0 24 22" fill="none" xmlns="http://www.w3.org/2000/svg">
<path d="M5.28516 21.5977H18.1406C20.4492 21.5977 21.6797 20.4023 21.6797 18.1055V6.89062H1.74609V18.1055C1.74609 20.4141 2.97656 21.5977 5.28516 21.5977ZM7.85156 11.1211C7.35938 11.1211 7.01953 10.7812 7.01953 10.2656V9.90234C7.01953 9.38672 7.35938 9.05859 7.85156 9.05859H15.5859C16.0781 9.05859 16.4297 9.38672 16.4297 9.90234V10.2656C16.4297 10.7812 16.0781 11.1211 15.5859 11.1211H7.85156ZM1.99219 5.28516H21.4336C22.7578 5.28516 23.4258 4.5 23.4258 3.1875V2.12109C23.4258 0.808594 22.7578 0.0234375 21.4336 0.0234375H1.99219C0.738281 0.0234375 0 0.808594 0 2.12109V3.1875C0 4.5 0.667969 5.28516 1.99219 5.28516Z" fill="black" fill-opacity="0.85"/>
</svg>
