<svg width="24" height="24" viewBox="0 0 24 24" fill="none" xmlns="http://www.w3.org/2000/svg">
<path d="M11.9531 23.9062C18.4922 23.9062 23.9062 18.4805 23.9062 11.9531C23.9062 5.41406 18.4805 0 11.9414 0C5.41406 0 0 5.41406 0 11.9531C0 18.4805 5.42578 23.9062 11.9531 23.9062ZM11.9531 21.9141C6.42188 21.9141 2.00391 17.4844 2.00391 11.9531C2.00391 6.42188 6.41016 1.99219 11.9414 1.99219C17.4727 1.99219 21.9141 6.42188 21.9141 11.9531C21.9141 17.4844 17.4844 21.9141 11.9531 21.9141Z" fill="#007AFF"/>
<path d="M8.51953 17.8828H15.3633C16.5938 17.8828 17.25 17.25 17.25 16.0195V10.1367H6.63281V16.0195C6.63281 17.2617 7.28906 17.8828 8.51953 17.8828ZM9.87891 12.3867C9.62109 12.3867 9.43359 12.2109 9.43359 11.9414V11.7422C9.43359 11.4609 9.62109 11.2969 9.87891 11.2969H14.0039C14.2734 11.2969 14.4492 11.4609 14.4492 11.7422V11.9414C14.4492 12.2109 14.2734 12.3867 14.0039 12.3867H9.87891ZM6.76172 9.1875H17.1211C17.8359 9.1875 18.1875 8.77734 18.1875 8.08594V7.51172C18.1875 6.80859 17.8359 6.38672 17.1211 6.38672H6.76172C6.10547 6.38672 5.70703 6.80859 5.70703 7.51172V8.08594C5.70703 8.77734 6.05859 9.1875 6.76172 9.1875Z" fill="black" fill-opacity="0.85"/>
</svg>
