<svg width="22" height="22" viewBox="0 0 22 22" fill="none" xmlns="http://www.w3.org/2000/svg">
<path d="M3.67969 21.5977H17.8945C20.3555 21.5977 21.5742 20.3789 21.5742 17.9648V3.65625C21.5742 1.24219 20.3555 0.0234375 17.8945 0.0234375H3.67969C1.23047 0.0234375 0 1.23047 0 3.65625V17.9648C0 20.3906 1.23047 21.5977 3.67969 21.5977Z" fill="#FFCC00"/>
<path d="M6.99609 13.793C6.46875 13.793 6.11719 13.3828 6.11719 12.8203V7.125C6.11719 6.41016 6.50391 6.12891 7.125 6.12891H12.8438C13.418 6.12891 13.7812 6.48047 13.7812 7.01953C13.7812 7.54688 13.4062 7.89844 12.8203 7.89844H10.6406L8.84766 7.71094L10.7344 9.46875L15.1758 13.8984C15.3516 14.0742 15.4688 14.3203 15.4688 14.5547C15.4688 15.1055 15.1055 15.457 14.5781 15.457C14.2852 15.457 14.0625 15.3516 13.875 15.1758L9.45703 10.7461L7.71094 8.88281L7.88672 10.7695V12.8438C7.88672 13.418 7.53516 13.793 6.99609 13.793Z" fill="black" fill-opacity="0.85"/>
</svg>
