<svg width="48" height="20" viewBox="0 0 48 20" fill="none" xmlns="http://www.w3.org/2000/svg">
<path d="M0 9.70312C0 10.1367 0.1875 10.5586 0.5625 10.9102L8.77734 18.668C9.32812 19.1836 9.76172 19.3945 10.3125 19.3945C11.0977 19.3945 11.6719 18.8086 11.6719 18.0352V14.0742H19.4883C21.1992 14.0742 22.2305 13.0312 22.2305 11.3672V8.05078C22.2305 6.36328 21.2109 5.35547 19.4883 5.35547H11.6719V1.41797C11.6719 0.632812 11.0742 0 10.3008 0C9.78516 0 9.43359 0.1875 8.77734 0.785156L0.5625 8.48438C0.164062 8.85938 0 9.26953 0 9.70312ZM47.3906 9.70312C47.3906 9.28125 47.2266 8.85938 46.8281 8.48438L38.6016 0.785156C37.957 0.199219 37.6172 0.0117188 37.0898 0.0117188C36.3164 0.0117188 35.7188 0.632812 35.7188 1.41797V5.35547H27.9023C26.1797 5.35547 25.1602 6.36328 25.1602 8.05078V11.3672C25.1602 13.0312 26.1914 14.0742 27.9023 14.0742H35.7188V18.0352C35.7188 18.8086 36.293 19.3828 37.0781 19.3828C37.6289 19.3828 38.0508 19.1719 38.6016 18.668L46.8281 10.9102C47.2031 10.5586 47.3906 10.125 47.3906 9.70312Z" fill="black" fill-opacity="0.85"/>
</svg>
