<svg width="43" height="28" viewBox="0 0 43 28" fill="none" xmlns="http://www.w3.org/2000/svg">
<path d="M16.8984 12.8438H25.2188C26.4961 12.8438 27.4922 11.8594 27.4922 10.5703V2.28516C27.4922 0.996094 26.4961 0 25.2188 0H16.8984C15.6211 0 14.6484 0.996094 14.6484 2.28516V10.5703C14.6484 11.8594 15.6211 12.8438 16.8984 12.8438ZM16.8984 11.1914C16.5586 11.1914 16.3008 10.9219 16.3008 10.5703V2.28516C16.3008 1.92188 16.5586 1.65234 16.8984 1.65234H25.2188C25.5703 1.65234 25.8398 1.92188 25.8398 2.28516V10.5703C25.8398 10.9219 25.5703 11.1914 25.2188 11.1914H16.8984ZM2.25 27.4922H10.5703C11.8477 27.4922 12.8438 26.4961 12.8438 25.207V16.9336C12.8438 15.6445 11.8477 14.6367 10.5703 14.6367H2.25C0.972656 14.6367 0 15.6445 0 16.9336V25.207C0 26.4961 0.972656 27.4922 2.25 27.4922ZM2.25 25.8398C1.91016 25.8398 1.65234 25.5703 1.65234 25.207V16.9336C1.65234 16.5586 1.91016 16.2891 2.25 16.2891H10.5703C10.9219 16.2891 11.1914 16.5586 11.1914 16.9336V25.207C11.1914 25.5703 10.9219 25.8398 10.5703 25.8398H2.25ZM16.8984 27.4922H25.2188C26.4961 27.4922 27.4922 26.4961 27.4922 25.207V16.9336C27.4922 15.6445 26.4961 14.6367 25.2188 14.6367H16.8984C15.6211 14.6367 14.6484 15.6445 14.6484 16.9336V25.207C14.6484 26.4961 15.6211 27.4922 16.8984 27.4922ZM16.8984 25.8398C16.5586 25.8398 16.3008 25.5703 16.3008 25.207V16.9336C16.3008 16.5586 16.5586 16.2891 16.8984 16.2891H25.2188C25.5703 16.2891 25.8398 16.5586 25.8398 16.9336V25.207C25.8398 25.5703 25.5703 25.8398 25.2188 25.8398H16.8984ZM31.5586 27.4922H39.8789C41.1562 27.4922 42.1289 26.4961 42.1289 25.207V16.9336C42.1289 15.6445 41.1562 14.6367 39.8789 14.6367H31.5586C30.2812 14.6367 29.2852 15.6445 29.2852 16.9336V25.207C29.2852 26.4961 30.2812 27.4922 31.5586 27.4922ZM31.5586 25.8398C31.207 25.8398 30.9375 25.5703 30.9375 25.207V16.9336C30.9375 16.5586 31.207 16.2891 31.5586 16.2891H39.8789C40.2188 16.2891 40.4766 16.5586 40.4766 16.9336V25.207C40.4766 25.5703 40.2188 25.8398 39.8789 25.8398H31.5586Z" fill="#007AFF"/>
<path d="M18.4337 9.26959H23.7071C24.1876 9.26959 24.4923 8.69537 24.2228 8.22662L21.6329 3.86725C21.3751 3.43365 20.7189 3.44537 20.4728 3.87897L17.9181 8.22662C17.6368 8.69537 17.9415 9.26959 18.4337 9.26959ZM8.95318 23.6954V18.422C8.95318 17.9415 8.37897 17.6368 7.8985 17.9063L3.53912 20.4962C3.10553 20.754 3.11725 21.4103 3.55084 21.6563L7.8985 24.2228C8.37897 24.4923 8.95318 24.1876 8.95318 23.6954ZM20.4728 23.6134C20.7306 24.047 21.3751 24.0587 21.6329 23.6251L24.2228 19.2657C24.504 18.797 24.1876 18.2228 23.7071 18.2228H18.4454C17.9415 18.2228 17.6485 18.7853 17.9181 19.2657L20.4728 23.6134ZM33.1876 23.6954C33.1876 24.1876 33.7618 24.4923 34.2306 24.2228L38.5782 21.6563C39.0118 21.4103 39.0235 20.754 38.5899 20.4962L34.2306 17.9063C33.7501 17.6368 33.1876 17.9415 33.1876 18.422V23.6954Z" fill="black" fill-opacity="0.85"/>
</svg>
