<svg width="24" height="24" viewBox="0 0 24 24" fill="none" xmlns="http://www.w3.org/2000/svg">
<path d="M11.9531 23.9062C18.4922 23.9062 23.9062 18.4805 23.9062 11.9531C23.9062 5.41406 18.4805 0 11.9414 0C5.41406 0 0 5.41406 0 11.9531C0 18.4805 5.42578 23.9062 11.9531 23.9062Z" fill="#FFCC00"/>
<path d="M5.75391 11.9414C5.75391 11.6719 5.84766 11.4844 6.09375 11.2383L10.1719 7.13672C10.3359 6.97266 10.5469 6.89062 10.8047 6.89062C11.3086 6.89062 11.6836 7.26562 11.6836 7.76953C11.6836 8.02734 11.5664 8.25001 11.4141 8.42579L9.91406 9.91406L8.46094 11.1328L11.0156 11.0273H17.2852C17.8125 11.0273 18.1992 11.4023 18.1992 11.9414C18.1992 12.4688 17.8242 12.8438 17.2852 12.8438H11.0156L8.44922 12.75L9.91406 13.9688L11.4141 15.457C11.5781 15.6211 11.6836 15.8438 11.6836 16.1016C11.6836 16.6055 11.3086 16.9922 10.8047 16.9922C10.5469 16.9922 10.3359 16.8984 10.1719 16.7344L6.09375 12.6445C5.87109 12.4219 5.75391 12.2109 5.75391 11.9414Z" fill="black" fill-opacity="0.85"/>
</svg>
