<svg width="19" height="23" viewBox="0 0 19 23" fill="none" xmlns="http://www.w3.org/2000/svg">
<path d="M15.8086 22.1367C16.4883 22.1367 17.0508 22.125 17.4141 22.0547C17.8711 21.9492 18.293 21.6562 18.293 21.0586C18.293 20.4492 17.8477 20.0625 17.25 20.0625C16.8398 20.0625 16.4648 20.0859 15.9141 20.0859C11.7539 20.0859 9.90234 18.668 9.91406 14.4258L9.92578 6.41016L9.83203 3.22266L12.1758 5.80078L16.0195 9.64453C16.207 9.83203 16.4766 9.92578 16.7578 9.92578C17.3438 9.92578 17.7656 9.48047 17.7656 8.90625C17.7656 8.625 17.6719 8.37891 17.4492 8.14453L9.66797 0.351562C9.44531 0.117188 9.17578 0 8.88281 0C8.58984 0 8.32031 0.117188 8.09766 0.351562L0.328125 8.14453C0.105469 8.37891 0 8.625 0 8.90625C0 9.48047 0.421875 9.92578 1.00781 9.92578C1.28906 9.92578 1.57031 9.83203 1.74609 9.64453L5.58984 5.80078L7.92188 3.23438L7.83984 6.41016V14.5312C7.83984 19.9805 10.3945 22.1367 15.8086 22.1367Z" fill="black" fill-opacity="0.85"/>
</svg>
