<svg width="24" height="25" viewBox="0 0 24 25" fill="none" xmlns="http://www.w3.org/2000/svg">
<path d="M11.9531 23.9062C18.4922 23.9062 23.9062 18.4922 23.9062 11.9531C23.9062 5.42578 18.4805 0 11.9414 0C5.41406 0 0 5.42578 0 11.9531C0 18.4922 5.42578 23.9062 11.9531 23.9062Z" fill="#FFCC00"/>
<path d="M13.2188 5.8125C16.0195 5.8125 17.8477 7.72266 17.8477 10.5469V12.1172C17.8477 12.6797 17.4961 13.0664 16.9688 13.0664C16.4531 13.0664 16.1016 12.6914 16.1016 12.1406V10.5469C16.1016 8.77734 14.9531 7.57031 13.2188 7.57031C11.6133 7.57031 10.5469 8.75391 10.5469 10.5352V13.957L10.4883 15.1641L10.8867 14.6133L12.2578 13.1836C12.4219 13.0195 12.6445 12.9141 12.9023 12.9141C13.4062 12.9141 13.8047 13.2891 13.8047 13.7812C13.8047 14.0391 13.7109 14.2617 13.5469 14.4141L10.4062 17.4961C10.1836 17.7188 9.92578 17.8125 9.66797 17.8125C9.39844 17.8125 9.14062 17.707 8.91797 17.4961L5.8125 14.4258C5.63672 14.2617 5.55469 14.0508 5.55469 13.793C5.55469 13.2891 5.95312 12.9141 6.44531 12.9141C6.69141 12.9141 6.92578 13.0195 7.07812 13.1836L8.22656 14.3789L8.85938 15.1758L8.80078 13.957V10.5352C8.80078 7.71094 10.5586 5.8125 13.2188 5.8125Z" fill="black" fill-opacity="0.85"/>
</svg>
