<svg width="24" height="24" viewBox="0 0 24 24" fill="none" xmlns="http://www.w3.org/2000/svg">
<path d="M11.9531 23.9062C18.4922 23.9062 23.9062 18.4805 23.9062 11.9531C23.9062 5.41406 18.4805 0 11.9414 0C5.41406 0 0 5.41406 0 11.9531C0 18.4805 5.42578 23.9062 11.9531 23.9062ZM11.9531 21.9141C6.42188 21.9141 2.00391 17.4844 2.00391 11.9531C2.00391 6.42188 6.41016 1.99219 11.9414 1.99219C17.4727 1.99219 21.9141 6.42188 21.9141 11.9531C21.9141 17.4844 17.4844 21.9141 11.9531 21.9141Z" fill="#007AFF"/>
<path d="M6.4468 7.88672C6.14211 8.19141 6.15383 8.73047 6.4468 9.02344L9.39993 11.9062C9.55227 12.0352 9.76321 12.1289 9.95071 12.1289C10.3843 12.1289 10.7007 11.8242 10.7007 11.3906C10.7007 11.1797 10.6187 10.9922 10.4781 10.8516L9.23587 9.64453L8.74368 9.1875L9.29446 9.22266H16.8999C17.3335 9.22266 17.6617 8.88281 17.6617 8.44922C17.6617 8.01562 17.3453 7.69922 16.8999 7.69922H9.30618L8.7554 7.71094L9.23587 7.27734L10.4781 6.07031C10.6187 5.92969 10.7007 5.73047 10.7007 5.53125C10.7007 5.08594 10.3843 4.78125 9.95071 4.78125C9.76321 4.78125 9.54055 4.875 9.39993 5.02734L6.4468 7.88672ZM17.4273 16.0312C17.7437 15.7148 17.7203 15.2344 17.4273 14.9297L14.4742 12.0469C14.3453 11.9062 14.1226 11.8125 13.9234 11.8125C13.4781 11.8125 13.1734 12.1172 13.1734 12.5508C13.1734 12.7617 13.2554 12.9492 13.396 13.0898L14.6499 14.2969L15.1421 14.7539L14.5796 14.7188H6.97415C6.55227 14.7188 6.22415 15.0352 6.22415 15.4805C6.22415 15.9141 6.54055 16.2422 6.97415 16.2422H14.5679L15.1421 16.2305L14.6499 16.6641L13.4077 17.8711C13.2671 18.0234 13.1734 18.1992 13.1734 18.4102C13.1734 18.8438 13.5015 19.1602 13.9234 19.1602C14.0992 19.1602 14.3218 19.0664 14.4742 18.9258L17.4273 16.0312Z" fill="black" fill-opacity="0.85"/>
</svg>
