<svg width="24" height="24" viewBox="0 0 24 24" fill="none" xmlns="http://www.w3.org/2000/svg">
<path d="M11.9531 23.9062C18.4922 23.9062 23.9062 18.4805 23.9062 11.9531C23.9062 5.41406 18.4805 0 11.9414 0C5.41406 0 0 5.41406 0 11.9531C0 18.4805 5.42578 23.9062 11.9531 23.9062Z" fill="#FFCC00"/>
<path d="M15.7383 8.95312C16.2656 8.95312 16.6289 9.35156 16.6289 9.92578V15.6211C16.6289 16.3359 16.2305 16.6172 15.6094 16.6172H9.89062C9.31642 16.6172 8.95312 16.2656 8.95312 15.7266C8.95312 15.1992 9.32812 14.8477 9.91406 14.8477H12.0938L13.8867 15.0352L12 13.2656L7.55859 8.84766C7.38281 8.67188 7.26562 8.42578 7.26562 8.19141C7.26562 7.64062 7.62891 7.28906 8.15625 7.28906C8.44922 7.28906 8.67188 7.39453 8.85938 7.57031L13.2773 12L15.0234 13.8633L14.8477 11.9766V9.90234C14.8477 9.31641 15.1992 8.95312 15.7383 8.95312Z" fill="black" fill-opacity="0.85"/>
</svg>
