<svg width="26" height="22" viewBox="0 0 26 22" fill="none" xmlns="http://www.w3.org/2000/svg">
<path d="M13.8164 21.4922C14.3906 21.4922 14.8594 21.2578 15.4219 20.7305L24.668 12C25.1133 11.5781 25.2656 11.1328 25.2656 10.7461C25.2656 10.3477 25.125 9.91406 24.668 9.48047L15.4219 0.832031C14.8008 0.246094 14.4141 0 13.8398 0C13.0195 0 12.4336 0.644531 12.4336 1.42969V5.85938H12.0938C3.66797 5.85938 0 11.2617 0 19.9219C0 20.9297 0.574219 21.4922 1.20703 21.4922C1.69922 21.4922 2.23828 21.375 2.64844 20.625C4.6875 16.793 7.55859 15.6445 12.0938 15.6445H12.4336V20.1211C12.4336 20.9062 13.0195 21.4922 13.8164 21.4922Z" fill="black" fill-opacity="0.85"/>
</svg>
