<svg width="22" height="22" viewBox="0 0 22 22" fill="none" xmlns="http://www.w3.org/2000/svg">
<path d="M3.67969 21.5977H17.8945C20.3555 21.5977 21.5742 20.3789 21.5742 17.9648V3.65625C21.5742 1.24219 20.3555 0.0234375 17.8945 0.0234375H3.67969C1.23047 0.0234375 0 1.23047 0 3.65625V17.9648C0 20.3906 1.23047 21.5977 3.67969 21.5977ZM3.70312 19.7109C2.53125 19.7109 1.88672 19.0898 1.88672 17.8711V3.75C1.88672 2.53125 2.53125 1.91016 3.70312 1.91016H17.8711C19.0312 1.91016 19.6875 2.53125 19.6875 3.75V17.8711C19.6875 19.0898 19.0312 19.7109 17.8711 19.7109H3.70312Z" fill="#007AFF"/>
<path d="M10.8164 3.50391C10.5586 3.50391 10.3477 3.62109 10.125 3.84375L6.73828 7.21875C6.58594 7.37109 6.49219 7.58203 6.49219 7.82812C6.49219 8.30859 6.86719 8.67188 7.34766 8.67188C7.60547 8.67188 7.81641 8.57812 7.98047 8.41406L8.84766 7.52344L10.0312 6.10547L9.9375 8.58984V12.9961L10.0312 15.4805L8.84766 14.0625L7.98047 13.1719C7.81641 12.9961 7.60547 12.9141 7.34766 12.9141C6.86719 12.9141 6.49219 13.2773 6.49219 13.7578C6.49219 13.9922 6.58594 14.2148 6.73828 14.3672L10.125 17.7422C10.3477 17.9648 10.5586 18.082 10.8164 18.082C11.0625 18.082 11.2617 17.9648 11.4961 17.7422L14.8945 14.3672C15.0469 14.2148 15.1289 13.9922 15.1289 13.7578C15.1289 13.2773 14.7656 12.9141 14.2852 12.9141C14.0273 12.9141 13.8164 13.0078 13.6641 13.1719L12.7852 14.0625L11.6016 15.4688L11.6953 12.9961V8.58984L11.6016 6.11719L12.7852 7.52344L13.6641 8.41406C13.8164 8.56641 14.0273 8.67188 14.2852 8.67188C14.7656 8.67188 15.1289 8.30859 15.1289 7.82812C15.1289 7.58203 15.0469 7.37109 14.8945 7.21875L11.4961 3.84375C11.2617 3.62109 11.0625 3.50391 10.8164 3.50391Z" fill="black" fill-opacity="0.85"/>
</svg>
