<svg width="18" height="18" viewBox="0 0 18 18" fill="none" xmlns="http://www.w3.org/2000/svg">
<path d="M17.3086 12.9609L17.2969 1.17188C17.2969 0.503906 16.8633 0.0351562 16.1602 0.0351562H4.37109C3.71484 0.0351562 3.26953 0.539062 3.26953 1.10156C3.26953 1.66406 3.77344 2.14453 4.32422 2.14453H8.40234L14.1211 1.95703L11.9414 3.86719L0.328125 15.5039C0.117188 15.7148 0 15.9844 0 16.2422C0 16.8047 0.503906 17.332 1.08984 17.332C1.35938 17.332 1.61719 17.2383 1.82812 17.0156L13.4648 5.39062L15.3984 3.19922L15.1875 8.67188V13.0078C15.1875 13.5586 15.668 14.0742 16.2422 14.0742C16.8047 14.0742 17.3086 13.5938 17.3086 12.9609Z" fill="black" fill-opacity="0.85"/>
</svg>
