<svg width="24" height="24" viewBox="0 0 24 24" fill="none" xmlns="http://www.w3.org/2000/svg">
<path d="M11.9531 23.9062C18.4922 23.9062 23.9062 18.4805 23.9062 11.9531C23.9062 5.41406 18.4805 0 11.9414 0C5.41406 0 0 5.41406 0 11.9531C0 18.4805 5.42578 23.9062 11.9531 23.9062ZM11.9531 21.9141C6.42188 21.9141 2.00391 17.4844 2.00391 11.9531C2.00391 6.42188 6.41016 1.99219 11.9414 1.99219C17.4727 1.99219 21.9141 6.42188 21.9141 11.9531C21.9141 17.4844 17.4844 21.9141 11.9531 21.9141Z" fill="#007AFF"/>
<path d="M18 13.3828C18 10.5703 15.9609 8.85938 13.2305 8.85938H9.72656L8.34375 8.89453L9.26953 8.16797L10.4766 6.99609C10.6406 6.85547 10.7461 6.63281 10.7461 6.38672C10.7461 5.90625 10.3828 5.54297 9.90234 5.54297C9.65625 5.54297 9.46875 5.61328 9.30469 5.78906L6.1875 8.95312C6 9.15234 5.87109 9.39844 5.87109 9.66797C5.87109 9.94922 6 10.1836 6.1875 10.3828L9.31641 13.5703C9.48047 13.7344 9.66797 13.8164 9.91406 13.8164C10.3828 13.8164 10.7461 13.4531 10.7461 12.9609C10.7461 12.75 10.6641 12.5156 10.4883 12.3633L9.02344 10.957L8.34375 10.4414L9.72656 10.5H13.2305C14.9531 10.5 16.2773 11.4844 16.2773 13.2891C16.2773 15.1406 14.9883 16.2773 13.2188 16.2773C13.0781 16.2773 11.6367 16.2773 11.5898 16.2773C11.0859 16.2773 10.6992 16.5703 10.6992 17.1211C10.6992 17.6602 11.0859 17.9531 11.6133 17.9531C11.6719 17.9531 13.0781 17.9531 13.2188 17.9531C15.9492 17.9531 18 16.1953 18 13.3828Z" fill="black" fill-opacity="0.85"/>
</svg>
