<svg width="24" height="24" viewBox="0 0 24 24" fill="none" xmlns="http://www.w3.org/2000/svg">
<path d="M11.9531 23.9062C18.4922 23.9062 23.9062 18.4805 23.9062 11.9531C23.9062 5.41406 18.4805 0 11.9414 0C5.41406 0 0 5.41406 0 11.9531C0 18.4805 5.42578 23.9062 11.9531 23.9062Z" fill="#FFCC00"/>
<path d="M6.87891 17.2852C6.39844 17.2852 6.04688 16.957 6.04688 16.4883V7.40625C6.04688 6.9375 6.39844 6.60938 6.87891 6.60938C7.33594 6.60938 7.67578 6.9375 7.67578 7.40625V16.4883C7.67578 16.957 7.33594 17.2852 6.87891 17.2852ZM19.5586 11.9648C19.5586 12.457 19.207 12.7852 18.7383 12.7852H13.207L10.9805 12.6445L13.4414 14.8242L14.2031 15.5273C14.3789 15.668 14.4492 15.8672 14.4492 16.1133C14.4492 16.582 14.1211 16.8984 13.6523 16.8984C13.4531 16.8984 13.1953 16.793 13.043 16.6289L8.8828 12.5742C8.68358 12.3984 8.60155 12.1875 8.60155 11.9648C8.60155 11.7305 8.70702 11.5312 8.8828 11.3438L13.0547 7.25391C13.2188 7.06641 13.4297 6.99609 13.6406 6.99609C14.0977 6.99609 14.4492 7.3125 14.4492 7.76953C14.4492 7.99219 14.3789 8.21484 14.2031 8.36719L13.4531 9.10546L10.9922 11.2852L13.207 11.1562H18.7383C19.207 11.1562 19.5586 11.4961 19.5586 11.9648Z" fill="black" fill-opacity="0.85"/>
</svg>
