<svg width="22" height="22" viewBox="0 0 22 22" fill="none" xmlns="http://www.w3.org/2000/svg">
<path d="M3.67969 21.5977H17.8945C20.3555 21.5977 21.5742 20.3789 21.5742 17.9648V3.65625C21.5742 1.24219 20.3555 0.0234375 17.8945 0.0234375H3.67969C1.23047 0.0234375 0 1.23047 0 3.65625V17.9648C0 20.3906 1.23047 21.5977 3.67969 21.5977Z" fill="#FFCC00"/>
<path d="M10.8047 16.8398C10.2773 16.8398 9.89062 16.4648 9.89062 15.9258V9.91406L9.99609 7.34766L8.78906 8.80079L7.35938 10.2422C7.19531 10.4062 6.97266 10.5117 6.71484 10.5117C6.21094 10.5117 5.83594 10.125 5.83594 9.63281C5.83594 9.375 5.90625 9.16406 6.07031 9L10.1016 4.98047C10.3477 4.73438 10.5469 4.64062 10.8047 4.64062C11.0859 4.64062 11.2852 4.74609 11.5195 4.98047L15.5391 9C15.7148 9.16406 15.7969 9.375 15.7969 9.63281C15.7969 10.125 15.4102 10.5117 14.9062 10.5117C14.6484 10.5117 14.4258 10.418 14.2617 10.2422L12.8438 8.80079L11.6133 7.33594L11.7188 9.91406V15.9258C11.7188 16.4648 11.3438 16.8398 10.8047 16.8398Z" fill="black" fill-opacity="0.85"/>
</svg>
