<svg width="22" height="22" viewBox="0 0 22 22" fill="none" xmlns="http://www.w3.org/2000/svg">
<path d="M3.67969 21.5977H17.8945C20.3555 21.5977 21.5742 20.3789 21.5742 17.9648V3.65625C21.5742 1.24219 20.3555 0.0234375 17.8945 0.0234375H3.67969C1.23047 0.0234375 0 1.23047 0 3.65625V17.9648C0 20.3906 1.23047 21.5977 3.67969 21.5977Z" fill="#FFCC00"/>
<path d="M18.3047 10.793C18.3047 11.0508 18.1992 11.25 17.9648 11.4961L14.4727 15C14.3203 15.1641 14.0977 15.2461 13.8398 15.2461C13.3477 15.2461 12.9727 14.8711 12.9727 14.3672C12.9727 14.0977 13.0781 13.8867 13.2305 13.7227L14.1445 12.8203L15.6094 11.6016L13.0547 11.707H8.53125L5.97656 11.6016L7.42969 12.8203L8.34375 13.7227C8.49609 13.8867 8.60156 14.0977 8.60156 14.3672C8.60156 14.8711 8.22656 15.2461 7.73438 15.2461C7.47656 15.2461 7.25391 15.1641 7.10156 15L3.60938 11.4961C3.375 11.25 3.26953 11.0508 3.26953 10.793C3.26953 10.5234 3.375 10.3242 3.60938 10.0781L7.10156 6.58594C7.25391 6.42188 7.47656 6.32812 7.73438 6.32812C8.22656 6.32812 8.60156 6.72656 8.60156 7.21875C8.60156 7.48828 8.50781 7.69922 8.34375 7.875L7.42969 8.76562L5.96484 9.98438L8.53125 9.89062H13.0547L15.6211 9.98438L14.1445 8.76562L13.2305 7.875C13.0664 7.69922 12.9727 7.48828 12.9727 7.21875C12.9727 6.72656 13.3477 6.32812 13.8398 6.32812C14.0977 6.32812 14.3203 6.42188 14.4727 6.58594L17.9648 10.0781C18.1992 10.3242 18.3047 10.5234 18.3047 10.793Z" fill="black" fill-opacity="0.85"/>
</svg>
