<svg width="24" height="24" viewBox="0 0 24 24" fill="none" xmlns="http://www.w3.org/2000/svg">
<path d="M11.9531 23.918C18.4922 23.918 23.9062 18.5039 23.9062 11.9648C23.9062 5.4375 18.4805 0.0117188 11.9414 0.0117188C5.41406 0.0117188 0 5.4375 0 11.9648C0 18.5039 5.42578 23.918 11.9531 23.918Z" fill="#FFCC00"/>
<path d="M11.9531 19.0547C11.7422 19.0547 11.4844 18.9727 11.25 18.7266L6.35156 13.5352C6.07031 13.2188 5.92969 12.9609 5.92969 12.6445C5.92969 12.1875 6.24609 11.8711 6.70312 11.8711H9.36328V6.41016C9.36328 5.44922 9.90234 4.89844 10.8281 4.89844H13.0664C13.9922 4.89844 14.543 5.44922 14.543 6.41016V11.8711H17.1797C17.6133 11.8711 17.9766 12.1875 17.9766 12.668C17.9766 12.9727 17.8359 13.1836 17.5078 13.5352L12.668 18.7266C12.4219 18.9727 12.1758 19.0547 11.9531 19.0547Z" fill="black" fill-opacity="0.85"/>
</svg>
