<svg width="23" height="24" viewBox="0 0 23 24" fill="none" xmlns="http://www.w3.org/2000/svg">
<path d="M0 9.35156C0 14.5078 4.19531 18.7031 9.35156 18.7031C11.3906 18.7031 13.2539 18.0469 14.7891 16.9453L20.5547 22.7227C20.8242 22.9922 21.1758 23.1211 21.5508 23.1211C22.3477 23.1211 22.8984 22.5234 22.8984 21.7383C22.8984 21.3633 22.7578 21.0234 22.5117 20.7773L16.7812 15.0117C17.9883 13.4414 18.7031 11.4844 18.7031 9.35156C18.7031 4.19531 14.5078 0 9.35156 0C4.19531 0 0 4.19531 0 9.35156ZM2.00391 9.35156C2.00391 5.29688 5.29688 2.00391 9.35156 2.00391C13.4062 2.00391 16.6992 5.29688 16.6992 9.35156C16.6992 13.4062 13.4062 16.6992 9.35156 16.6992C5.29688 16.6992 2.00391 13.4062 2.00391 9.35156ZM5.22656 8.87109C5.22656 9.50391 5.89453 9.58594 6.23438 9.25781L7.21875 8.28516L10.3711 11.4375L9.35156 12.4336C8.98828 12.7852 9.10547 13.4414 9.73828 13.4414H12.7734C13.1953 13.4414 13.4297 13.1719 13.4297 12.6914V9.80859C13.4297 9.17578 12.7617 9.09375 12.4219 9.42188L11.4492 10.3828L8.29688 7.23047L9.30469 6.24609C9.66797 5.89453 9.55078 5.23828 8.91797 5.23828H5.88281C5.46094 5.23828 5.22656 5.50781 5.22656 5.98828V8.87109Z" fill="black" fill-opacity="0.85"/>
</svg>
