<svg width="28" height="25" viewBox="0 0 28 25" fill="none" xmlns="http://www.w3.org/2000/svg">
<path d="M1.76953 24.5742H11.0859C12.4805 24.5742 13.1133 23.9531 13.1133 22.5586V8.55469C13.1133 7.52344 12.3398 6.97266 11.5078 6.97266C10.9453 6.97266 10.4062 7.23047 10.0195 7.76953L0.363281 21.7852C0.105469 22.1602 0 22.5938 0 22.9922C0 23.8477 0.5625 24.5742 1.76953 24.5742ZM2.50781 22.6641C2.4375 22.6641 2.36719 22.6289 2.36719 22.5469C2.36719 22.5117 2.37891 22.4766 2.40234 22.418L10.9922 9.53906C11.0273 9.49219 11.0625 9.46875 11.0977 9.46875C11.1562 9.46875 11.1914 9.52734 11.1914 9.58594V22.3242C11.1914 22.5938 11.1094 22.6641 10.8398 22.6641H2.50781ZM16.5 24.5742H25.8047C27.0234 24.5742 27.5859 23.8477 27.5859 22.9922C27.5859 22.5938 27.4688 22.1602 27.2109 21.7852L17.5547 7.76953C17.1797 7.23047 16.6289 6.97266 16.0664 6.97266C15.2344 6.97266 14.4727 7.52344 14.4727 8.55469V22.5586C14.4727 23.9531 15.1055 24.5742 16.5 24.5742ZM16.7461 22.6641C16.4648 22.6641 16.3945 22.5938 16.3945 22.3242V9.59766C16.3945 9.52734 16.4297 9.46875 16.4766 9.46875C16.5117 9.46875 16.5586 9.49219 16.5938 9.55078L25.1719 22.418C25.207 22.4766 25.2188 22.5117 25.2188 22.5469C25.2188 22.6289 25.1484 22.6641 25.0664 22.6641H16.7461Z" fill="#007AFF"/>
<path d="M1.81691 4.043L4.95753 6.37503C5.60206 6.86722 6.3755 6.57425 6.3755 5.76566V4.08987H21.1997V5.76566C21.1997 6.57425 21.9849 6.86722 22.6294 6.37503L25.77 4.043C26.2036 3.71487 26.1919 3.11722 25.77 2.80081L22.6294 0.457066C22.0083 -0.011684 21.1997 0.23441 21.1997 1.07815V2.7305H6.3755V1.07815C6.3755 0.257847 5.60206 -0.0351214 4.95753 0.457066L1.81691 2.80081C1.38331 3.11722 1.39503 3.72659 1.81691 4.043Z" fill="black" fill-opacity="0.85"/>
</svg>
