<svg width="29" height="24" viewBox="0 0 29 24" fill="none" xmlns="http://www.w3.org/2000/svg">
<path d="M3.67969 22.3477H25.1016C27.5391 22.3477 28.7812 21.1289 28.7812 18.7148V6.44531C28.7812 4.03125 27.5391 2.82422 25.1016 2.82422H21.75C20.8242 2.82422 20.543 2.63672 20.0156 2.05078L19.0781 0.996094C18.4922 0.351562 17.8945 0 16.6875 0H12.0117C10.8047 0 10.207 0.351562 9.62109 0.996094L8.68359 2.05078C8.15625 2.625 7.86328 2.82422 6.94922 2.82422H3.67969C1.23047 2.82422 0 4.03125 0 6.44531V18.7148C0 21.1289 1.23047 22.3477 3.67969 22.3477ZM3.70312 20.4609C2.55469 20.4609 1.88672 19.8398 1.88672 18.6211V6.55078C1.88672 5.33203 2.55469 4.71094 3.70312 4.71094H7.41797C8.47266 4.71094 9.04688 4.51172 9.63281 3.85547L10.5469 2.82422C11.2148 2.07422 11.5664 1.88672 12.5977 1.88672H16.1016C17.1328 1.88672 17.4844 2.07422 18.1523 2.82422L19.0664 3.85547C19.6523 4.51172 20.2266 4.71094 21.2812 4.71094H25.0664C26.2266 4.71094 26.8945 5.33203 26.8945 6.55078V18.6211C26.8945 19.8398 26.2266 20.4609 25.0664 20.4609H3.70312Z" fill="#007AFF"/>
<path d="M6.5043 12.0117C6.22305 12.4219 6.32851 12.9141 6.85586 12.9141H8.05117C8.61367 16.0664 11.1684 18.2461 14.4145 18.2461C15.8324 18.2461 17.2504 17.7539 18.2465 16.9336C18.7856 16.5117 18.9262 15.9141 18.516 15.4922C18.1176 15.0703 17.6137 15.1406 17.1566 15.4688C16.3363 16.1133 15.516 16.4648 14.4145 16.4648C12.1527 16.4648 10.266 14.9414 9.75039 12.9141H10.9574C11.4848 12.9141 11.6137 12.4219 11.3207 12.0117L9.46914 9.45703C9.17617 9.03516 8.64883 9 8.3207 9.45703L6.5043 12.0117ZM10.2895 8.27344C10.6762 8.69531 11.1918 8.63672 11.6371 8.29688C12.4574 7.64062 13.2895 7.3125 14.391 7.3125C16.6527 7.3125 18.5277 8.83594 19.0434 10.8516H17.766C17.2504 10.8516 17.1215 11.3555 17.4145 11.7539L19.2543 14.3203C19.559 14.7422 20.0863 14.7773 20.4145 14.3203L22.2309 11.7539C22.5121 11.3438 22.4066 10.8516 21.8793 10.8516H20.7426C20.1801 7.69922 17.6254 5.51953 14.391 5.51953C12.9731 5.51953 11.5434 6.02344 10.559 6.84375C10.0199 7.26562 9.8793 7.85156 10.2895 8.27344Z" fill="black" fill-opacity="0.85"/>
</svg>
