<svg width="24" height="24" viewBox="0 0 24 24" fill="none" xmlns="http://www.w3.org/2000/svg">
<path d="M11.9531 23.9062C18.4922 23.9062 23.9062 18.4805 23.9062 11.9531C23.9062 5.41406 18.4805 0 11.9414 0C5.41406 0 0 5.41406 0 11.9531C0 18.4805 5.42578 23.9062 11.9531 23.9062Z" fill="#FFCC00"/>
<path d="M18.1641 11.9414C18.1641 12.2109 18.0586 12.4219 17.8242 12.6445L13.7461 16.7344C13.582 16.8984 13.3711 16.9922 13.1133 16.9922C12.6094 16.9922 12.2344 16.6055 12.2344 16.1016C12.2344 15.8438 12.3398 15.6211 12.5039 15.457L14.0039 13.9688L15.4688 12.75L12.9141 12.8438H6.63281C6.10547 12.8438 5.71875 12.4688 5.71875 11.9414C5.71875 11.4023 6.10547 11.0273 6.63281 11.0273H12.9141L15.4688 11.1328L14.0039 9.91406L12.5039 8.42579C12.3516 8.25001 12.2344 8.02734 12.2344 7.76953C12.2344 7.26562 12.6094 6.89062 13.1133 6.89062C13.3711 6.89062 13.582 6.97266 13.7461 7.13672L17.8242 11.2383C18.0703 11.4844 18.1641 11.6719 18.1641 11.9414Z" fill="black" fill-opacity="0.85"/>
</svg>
