<svg width="22" height="22" viewBox="0 0 22 22" fill="none" xmlns="http://www.w3.org/2000/svg">
<path d="M3.67969 21.5977H17.8945C20.3555 21.5977 21.5742 20.3789 21.5742 17.9648V3.65625C21.5742 1.24219 20.3555 0.0234375 17.8945 0.0234375H3.67969C1.23047 0.0234375 0 1.23047 0 3.65625V17.9648C0 20.3906 1.23047 21.5977 3.67969 21.5977ZM3.70312 19.7109C2.53125 19.7109 1.88672 19.0898 1.88672 17.8711V3.75C1.88672 2.53125 2.53125 1.91016 3.70312 1.91016H17.8711C19.0312 1.91016 19.6875 2.53125 19.6875 3.75V17.8711C19.6875 19.0898 19.0312 19.7109 17.8711 19.7109H3.70312Z" fill="#007AFF"/>
<path d="M4.78125 10.7812C4.78125 11.0391 4.89844 11.25 5.10938 11.4609L9.07031 15.4336C9.22266 15.5859 9.44531 15.6797 9.67969 15.6797C10.1719 15.6797 10.5234 15.3047 10.5234 14.8242C10.5234 14.5664 10.4414 14.3555 10.2656 14.2031L8.80078 12.75L7.38281 11.5664L9.86719 11.6484H15.9727C16.4883 11.6484 16.8516 11.2852 16.8516 10.7812C16.8516 10.2656 16.4766 9.90234 15.9727 9.90234H9.86719L7.39453 9.99609L8.80078 8.8125L10.2656 7.35938C10.4297 7.19531 10.5234 6.98438 10.5234 6.72656C10.5234 6.24609 10.1719 5.88281 9.67969 5.88281C9.44531 5.88281 9.22266 5.96484 9.07031 6.11719L5.10938 10.1016C4.875 10.3359 4.78125 10.5234 4.78125 10.7812Z" fill="black" fill-opacity="0.85"/>
</svg>
