<svg width="24" height="24" viewBox="0 0 24 24" fill="none" xmlns="http://www.w3.org/2000/svg">
<path d="M11.9531 23.9062C18.4922 23.9062 23.9062 18.4805 23.9062 11.9531C23.9062 5.41406 18.4805 0 11.9414 0C5.41406 0 0 5.41406 0 11.9531C0 18.4805 5.42578 23.9062 11.9531 23.9062Z" fill="#FFCC00"/>
<path d="M6.62174 11.8008C6.14127 11.8008 5.75456 11.4141 5.75456 10.9336C5.75456 10.4648 6.14127 10.0898 6.62174 10.0898H7.20768L9.05924 10.207L5.80143 7.08986C5.44987 6.72658 5.42643 6.15236 5.78971 5.8008C6.14127 5.43752 6.71549 5.43752 7.06706 5.81252L10.2195 9.08205L10.1023 7.1719V6.58596C10.1023 6.10549 10.4773 5.73049 10.946 5.73049C11.4265 5.73049 11.8132 6.10549 11.8132 6.58596V10.793C11.8132 11.5195 11.4382 11.8008 10.8054 11.8008H6.62174ZM12.9616 18.1641C12.4812 18.1641 12.0945 17.7891 12.0945 17.3086V13.0898C12.0945 12.375 12.4695 12.0938 13.1023 12.0938H17.2859C17.7663 12.0938 18.153 12.4688 18.153 12.9609C18.153 13.4297 17.7663 13.8047 17.2859 13.8047H16.6999L14.8484 13.6875L18.1061 16.8047C18.4576 17.1562 18.4812 17.7422 18.1179 18.0938C17.7663 18.457 17.192 18.457 16.8405 18.082L13.6882 14.8125L13.8054 16.7227V17.3086C13.8054 17.7891 13.4304 18.1641 12.9616 18.1641Z" fill="black" fill-opacity="0.85"/>
</svg>
