<svg width="18" height="25" viewBox="0 0 18 25" fill="none" xmlns="http://www.w3.org/2000/svg">
<path d="M17.7656 11.0508C17.7656 10.7695 17.6719 10.5234 17.4492 10.2891L9.66797 2.49609C9.44531 2.26172 9.17578 2.14453 8.88281 2.14453C8.58984 2.14453 8.32031 2.26172 8.09766 2.49609L0.328125 10.2891C0.105469 10.5234 0 10.7695 0 11.0508C0 11.625 0.421875 12.0703 1.00781 12.0703C1.28906 12.0703 1.57031 11.9766 1.74609 11.7891L4.41797 9.16406L8.625 4.55859L7.95703 4.32422L7.83984 7.81641V23.2617C7.83984 23.8711 8.27344 24.293 8.88281 24.293C9.49219 24.293 9.92578 23.8711 9.92578 23.2617V7.81641L9.80859 4.32422L9.15234 4.55859L13.3477 9.16406L16.0195 11.7891C16.207 11.9766 16.4766 12.0703 16.7578 12.0703C17.3438 12.0703 17.7656 11.625 17.7656 11.0508ZM17.7656 1.10156C17.7656 0.492188 17.3555 0.046875 16.7578 0.046875H1.03125C0.421875 0.046875 0 0.492188 0 1.10156C0 1.71094 0.421875 2.14453 1.03125 2.14453H16.7578C17.3555 2.14453 17.7656 1.71094 17.7656 1.10156Z" fill="black" fill-opacity="0.85"/>
</svg>
