<svg width="18" height="21" viewBox="0 0 18 21" fill="none" xmlns="http://www.w3.org/2000/svg">
<path d="M8.92969 0C8.30859 0 7.875 0.433594 7.875 1.04297V12.8789L7.96875 15.3984L4.44141 11.5312L1.81641 8.94141C1.61719 8.75391 1.34766 8.64844 1.06641 8.64844C0.46875 8.64844 0.046875 9.09375 0.046875 9.67969C0.046875 9.96094 0.164062 10.2188 0.386719 10.4648L8.14453 18.2227C8.36719 18.457 8.63672 18.5859 8.92969 18.5859C9.21094 18.5859 9.49219 18.457 9.71484 18.2227L17.4609 10.4648C17.6953 10.2188 17.8125 9.96094 17.8125 9.67969C17.8125 9.09375 17.3789 8.64844 16.793 8.64844C16.5117 8.64844 16.2305 8.75391 16.043 8.94141L13.418 11.5312L9.89062 15.3867L9.97266 12.8789V1.04297C9.97266 0.433594 9.53906 0 8.92969 0ZM1.00781 18.5625C0.410156 18.5625 0 18.9961 0 19.6055C0 20.2148 0.410156 20.6602 1.00781 20.6602H16.8164C17.4258 20.6602 17.8477 20.2148 17.8477 19.6055C17.8477 18.9961 17.4258 18.5625 16.8164 18.5625H1.00781Z" fill="black" fill-opacity="0.85"/>
</svg>
