<svg width="28" height="22" viewBox="0 0 28 22" fill="none" xmlns="http://www.w3.org/2000/svg">
<path d="M3.67969 21.5742H23.9531C26.4141 21.5742 27.6328 20.3672 27.6328 17.9531V3.63281C27.6328 1.21875 26.4141 0 23.9531 0H3.67969C1.23047 0 0 1.21875 0 3.63281V17.9531C0 20.3672 1.23047 21.5742 3.67969 21.5742ZM3.70312 19.6875C2.53125 19.6875 1.88672 19.0664 1.88672 17.8477V3.73828C1.88672 2.51953 2.53125 1.88672 3.70312 1.88672H23.9297C25.0898 1.88672 25.7461 2.51953 25.7461 3.73828V17.8477C25.7461 19.0664 25.0898 19.6875 23.9297 19.6875H3.70312Z" fill="#007AFF"/>
<path d="M11.1094 4.6875C10.5938 4.6875 10.2539 5.03906 10.2539 5.60156V7.46484L10.4297 9.29297L8.74219 7.48828L5.20312 3.94922C5.03906 3.78516 4.82812 3.67969 4.54688 3.67969C4.01953 3.67969 3.67969 4.03125 3.67969 4.55859C3.67969 4.79297 3.79688 5.01562 3.96094 5.17969L7.5 8.71875L9.32812 10.4297L7.59375 10.2422H5.625C5.0625 10.2422 4.69922 10.582 4.69922 11.0977C4.69922 11.6133 5.05078 11.9531 5.60156 11.9531H10.9922C11.5898 11.9531 11.9766 11.6836 11.9766 10.9805V5.625C11.9766 5.07422 11.625 4.6875 11.1094 4.6875Z" fill="black" fill-opacity="0.85"/>
</svg>
