<svg width="24" height="24" viewBox="0 0 24 24" fill="none" xmlns="http://www.w3.org/2000/svg">
<path d="M11.9531 23.9062C18.4922 23.9062 23.9062 18.4805 23.9062 11.9531C23.9062 5.41406 18.4805 0 11.9414 0C5.41406 0 0 5.41406 0 11.9531C0 18.4805 5.42578 23.9062 11.9531 23.9062Z" fill="#FFCC00"/>
<path d="M6.62076 11.8008C6.14029 11.8008 5.75358 11.4141 5.75358 10.9336C5.75358 10.4648 6.14029 10.0898 6.62076 10.0898H7.2067L9.05826 10.207L5.80045 7.08986C5.44889 6.72658 5.42545 6.15236 5.78873 5.8008C6.14029 5.43752 6.71451 5.43752 7.06608 5.81252L10.2185 9.08205L10.1013 7.1719V6.58596C10.1013 6.10549 10.4763 5.73049 10.945 5.73049C11.4255 5.73049 11.8122 6.10549 11.8122 6.58596V10.793C11.8122 11.5195 11.4372 11.8008 10.8044 11.8008H6.62076ZM12.9606 18.1641C12.4802 18.1641 12.0935 17.7891 12.0935 17.3086V13.0898C12.0935 12.375 12.4685 12.0938 13.1013 12.0938H17.2849C17.7653 12.0938 18.152 12.4688 18.152 12.9609C18.152 13.4297 17.7653 13.8047 17.2849 13.8047H16.6989L14.8474 13.6875L18.1052 16.8047C18.4567 17.1562 18.4802 17.7422 18.1169 18.0938C17.7653 18.457 17.1911 18.457 16.8395 18.082L13.6872 14.8125L13.8044 16.7227V17.3086C13.8044 17.7891 13.4294 18.1641 12.9606 18.1641Z" fill="black" fill-opacity="0.85"/>
</svg>
