<svg width="22" height="26" viewBox="0 0 22 26" fill="none" xmlns="http://www.w3.org/2000/svg">
<path d="M10.7461 25.2656C11.1445 25.2656 11.5898 25.1133 12.0117 24.668L20.6602 15.4219C21.2461 14.8008 21.5039 14.4141 21.5039 13.8398C21.5039 13.0195 20.8477 12.4336 20.0625 12.4336H15.3633V2.69531C15.3633 0.984375 14.4023 0 12.7266 0H8.75391C7.07812 0 6.11719 0.984375 6.11719 2.69531V12.4336H1.37109C0.585938 12.4336 0 13.0195 0 13.8164C0 14.3906 0.234375 14.8594 0.761719 15.4219L9.49219 24.668C9.91406 25.1133 10.3594 25.2656 10.7461 25.2656Z" fill="black" fill-opacity="0.85"/>
</svg>
