<svg width="18" height="18" viewBox="0 0 18 18" fill="none" xmlns="http://www.w3.org/2000/svg">
<path d="M17.3086 4.41797C17.3086 3.77344 16.8047 3.30469 16.2422 3.30469C15.668 3.30469 15.1875 3.80859 15.1875 4.37109V8.69531L15.3984 14.168L13.4648 11.9883L1.82812 0.351562C1.61719 0.140625 1.35938 0.0351562 1.08984 0.0351562C0.503906 0.0351562 0 0.574219 0 1.13672C0 1.38281 0.117188 1.66406 0.328125 1.875L11.9414 13.5L14.1211 15.4219L8.40234 15.2344H4.32422C3.77344 15.2344 3.26953 15.7148 3.26953 16.2773C3.26953 16.8398 3.71484 17.332 4.37109 17.332H16.1602C16.8633 17.332 17.2969 16.875 17.2969 16.207L17.3086 4.41797Z" fill="black" fill-opacity="0.85"/>
</svg>
