<svg width="26" height="22" viewBox="0 0 26 22" fill="none" xmlns="http://www.w3.org/2000/svg">
<path d="M13.8164 21.4922C14.3906 21.4922 14.8594 21.2578 15.4219 20.7305L24.668 12C25.1133 11.5781 25.2656 11.1328 25.2656 10.7461C25.2656 10.3477 25.125 9.91406 24.668 9.48047L15.4219 0.832031C14.8008 0.246094 14.4141 0 13.8398 0C13.0195 0 12.4336 0.644531 12.4336 1.42969V5.85938H12.0938C3.66797 5.85938 0 11.2617 0 19.9219C0 20.9297 0.574219 21.4922 1.20703 21.4922C1.69922 21.4922 2.23828 21.375 2.64844 20.625C4.6875 16.793 7.55859 15.6445 12.0938 15.6445H12.4336V20.1211C12.4336 20.9062 13.0195 21.4922 13.8164 21.4922ZM14.4844 18.9727C14.3906 18.9727 14.3203 18.9023 14.3203 18.7969V14.2617C14.3203 13.9922 14.2031 13.875 13.9336 13.875H12.3633C6.79688 13.875 3.24609 15.8086 1.86328 18.75C1.82812 18.832 1.80469 18.8672 1.74609 18.8672C1.69922 18.8672 1.66406 18.832 1.66406 18.7383C1.89844 13.207 4.3125 7.62891 12.3633 7.62891H13.9336C14.2031 7.62891 14.3203 7.51172 14.3203 7.24219V2.58984C14.3203 2.49609 14.3906 2.42578 14.4961 2.42578C14.5664 2.42578 14.6367 2.47266 14.6953 2.51953L23.0391 10.5234C23.1211 10.6055 23.1562 10.6758 23.1562 10.7461C23.1562 10.8164 23.1328 10.875 23.0391 10.9688L14.6836 18.8672C14.625 18.9375 14.5547 18.9727 14.4844 18.9727Z" fill="black" fill-opacity="0.85"/>
</svg>
