<svg width="25" height="22" viewBox="0 0 25 22" fill="none" xmlns="http://www.w3.org/2000/svg">
<path d="M21.1523 21.457C23.625 21.457 24.832 20.2852 24.832 17.8359V12.1055C24.832 10.4297 24.3633 9.52734 23.0156 8.50781L13.9102 1.58203C12.3633 0.421875 11.168 0.0117188 9.25781 0.0117188H3.57422C1.20703 0.0117188 0 1.20703 0 3.55078V17.8359C0 20.2852 1.19531 21.457 3.67969 21.457H21.1523ZM21.082 10.6523H3.60938C2.53125 10.6523 1.88672 10.0312 1.88672 8.90625V3.64453C1.88672 2.50781 2.51953 1.89844 3.60938 1.89844H9.25781C10.7578 1.89844 11.625 2.15625 12.6211 2.95312L21.3516 9.63281C21.832 9.98438 21.7031 10.6523 21.082 10.6523Z" fill="#FFCC00"/>
<path d="M5.33289 8.91798H10.5478C11.1806 8.91798 11.4501 8.41407 11.1103 7.86329L8.57898 3.70313C8.25086 3.16407 7.62977 3.17579 7.31336 3.70313L4.75867 7.86329C4.41883 8.41407 4.7118 8.91798 5.33289 8.91798Z" fill="black" fill-opacity="0.85"/>
<path d="M5.33289 12.832H10.5478C11.1806 12.832 11.4501 13.3359 11.1103 13.8867L8.57898 18.0469C8.25086 18.5859 7.62977 18.5742 7.31336 18.0469L4.75867 13.8867C4.41883 13.3359 4.7118 12.832 5.33289 12.832Z" fill="black" fill-opacity="0.85"/>
</svg>
