<svg width="28" height="25" viewBox="0 0 28 25" fill="none" xmlns="http://www.w3.org/2000/svg">
<path d="M0 22.9922C0 23.8477 0.5625 24.5742 1.76953 24.5742H11.0859C12.4805 24.5742 13.1133 23.9531 13.1133 22.5586V8.55469C13.1133 7.52344 12.3398 6.97266 11.5078 6.97266C10.9453 6.97266 10.4062 7.23047 10.0195 7.76953L0.363281 21.7852C0.105469 22.1602 0 22.5938 0 22.9922ZM14.4727 22.5586C14.4727 23.9531 15.1055 24.5742 16.5 24.5742H25.8047C27.0234 24.5742 27.5859 23.8477 27.5859 22.9922C27.5859 22.5938 27.4688 22.1602 27.2109 21.7852L17.5547 7.76953C17.1797 7.23047 16.6289 6.97266 16.0664 6.97266C15.2344 6.97266 14.4727 7.52344 14.4727 8.55469V22.5586Z" fill="#007AFF"/>
<path d="M1.81691 4.10159L4.95753 6.43362C5.60206 6.92581 6.3755 6.63284 6.3755 5.82425V4.14847H21.1997V5.82425C21.1997 6.63284 21.9849 6.92581 22.6294 6.43362L25.77 4.10159C26.2036 3.77347 26.1919 3.17581 25.77 2.85941L22.6294 0.515659C22.0083 0.0469094 21.1997 0.293003 21.1997 1.13675V2.78909H6.3755V1.13675C6.3755 0.31644 5.60206 0.0234719 4.95753 0.515659L1.81691 2.85941C1.38331 3.17581 1.39503 3.78519 1.81691 4.10159Z" fill="black" fill-opacity="0.85"/>
</svg>
