<svg width="24" height="24" viewBox="0 0 24 24" fill="none" xmlns="http://www.w3.org/2000/svg">
<path d="M11.9531 23.9062C18.4922 23.9062 23.9062 18.4805 23.9062 11.9531C23.9062 5.41406 18.4805 0 11.9414 0C5.41406 0 0 5.41406 0 11.9531C0 18.4805 5.42578 23.9062 11.9531 23.9062ZM11.9531 21.9141C6.42188 21.9141 2.00391 17.4844 2.00391 11.9531C2.00391 6.42188 6.41016 1.99219 11.9414 1.99219C17.4727 1.99219 21.9141 6.42188 21.9141 11.9531C21.9141 17.4844 17.4844 21.9141 11.9531 21.9141Z" fill="#007AFF"/>
<path d="M11.9297 18.9609C12.375 18.9609 12.7148 18.6328 12.7148 18.1758V12.7969L12.5859 10.6641L14.6484 12.9961L15.4102 13.7812C15.5742 13.9336 15.7852 14.0039 15.9961 14.0039C16.4297 14.0039 16.7344 13.6641 16.7344 13.2422C16.7344 13.0195 16.6758 12.8203 16.4883 12.6445L12.5156 8.61328C12.3516 8.44922 12.1406 8.34375 11.9297 8.34375C11.7188 8.34375 11.5078 8.4375 11.3438 8.61328L7.38281 12.6562C7.24219 12.8086 7.14844 13.0547 7.14844 13.2422C7.14844 13.6875 7.45312 14.0039 7.89844 14.0039C8.14453 14.0039 8.32031 13.9336 8.47266 13.7812L9.14062 13.043L11.2734 10.6523L11.1445 12.7969V18.1758C11.1445 18.6328 11.4609 18.9609 11.9297 18.9609ZM7.54688 7.44141H16.3477C16.8047 7.44141 17.1211 7.11328 17.1211 6.66797C17.1211 6.21094 16.8047 5.88281 16.3477 5.88281H7.54688C7.08984 5.88281 6.76172 6.21094 6.76172 6.66797C6.76172 7.11328 7.08984 7.44141 7.54688 7.44141Z" fill="black" fill-opacity="0.85"/>
</svg>
