<svg width="24" height="24" viewBox="0 0 24 24" fill="none" xmlns="http://www.w3.org/2000/svg">
<path d="M11.9531 23.9062C18.4922 23.9062 23.9062 18.4805 23.9062 11.9531C23.9062 5.41406 18.4805 0 11.9414 0C5.41406 0 0 5.41406 0 11.9531C0 18.4805 5.42578 23.9062 11.9531 23.9062ZM11.9531 21.9141C6.42188 21.9141 2.00391 17.4844 2.00391 11.9531C2.00391 6.42188 6.41016 1.99219 11.9414 1.99219C17.4727 1.99219 21.9141 6.42188 21.9141 11.9531C21.9141 17.4844 17.4844 21.9141 11.9531 21.9141Z" fill="#007AFF"/>
<path d="M11.9893 18.4922C13.4541 18.4922 14.919 17.9766 15.9385 17.1328C16.501 16.6875 16.6299 16.0781 16.2315 15.6445C15.8213 15.2109 15.2822 15.2812 14.8135 15.6211C13.9698 16.2891 13.126 16.6406 11.9893 16.6406C9.65723 16.6406 7.72364 15.0703 7.20801 12.9961H8.43848C8.97754 12.9961 9.10645 12.4688 8.80176 12.0586L6.90332 9.41016C6.58692 8.97656 6.04786 8.94141 5.71973 9.41016L3.84473 12.0586C3.54004 12.4805 3.65723 12.9961 4.19629 12.9961H5.43848C6.0127 16.2422 8.64942 18.4922 11.9893 18.4922ZM11.9658 5.36719C10.5127 5.36719 9.03614 5.87109 8.02832 6.71484C7.46582 7.16016 7.33692 7.76953 7.73536 8.20312C8.14551 8.63672 8.68457 8.56641 9.1416 8.22656C9.98536 7.57031 10.8291 7.20703 11.9658 7.20703C14.2979 7.20703 16.2315 8.77734 16.7588 10.8516H15.458C14.9072 10.8516 14.7901 11.3789 15.083 11.7891L16.9932 14.4375C17.3096 14.8711 17.8487 14.9062 18.1768 14.4375L20.0518 11.7891C20.3565 11.3789 20.2393 10.8516 19.6885 10.8516H18.5166C17.9541 7.60547 15.3174 5.36719 11.9658 5.36719Z" fill="black" fill-opacity="0.85"/>
</svg>
