<svg width="22" height="22" viewBox="0 0 22 22" fill="none" xmlns="http://www.w3.org/2000/svg">
<path d="M3.67969 21.5977H17.8945C20.3555 21.5977 21.5742 20.3789 21.5742 17.9648V3.65625C21.5742 1.24219 20.3555 0.0234375 17.8945 0.0234375H3.67969C1.23047 0.0234375 0 1.23047 0 3.65625V17.9648C0 20.3906 1.23047 21.5977 3.67969 21.5977Z" fill="#FFCC00"/>
<path d="M14.5781 7.79297C15.1055 7.79297 15.4688 8.19141 15.4688 8.76562V14.4609C15.4688 15.1758 15.0703 15.457 14.4492 15.457H8.73047C8.15625 15.457 7.79297 15.1055 7.79297 14.5664C7.79297 14.0391 8.16797 13.6875 8.75391 13.6875H10.9336L12.7266 13.875L10.8398 12.1055L6.39844 7.6875C6.22266 7.51172 6.11719 7.26562 6.11719 7.03125C6.11719 6.48047 6.46875 6.12891 6.99609 6.12891C7.28906 6.12891 7.52344 6.23438 7.69922 6.41016L12.1172 10.8398L13.8633 12.7031L13.6875 10.8164V8.74219C13.6875 8.15625 14.0391 7.79297 14.5781 7.79297Z" fill="black" fill-opacity="0.85"/>
</svg>
