<svg width="28" height="22" viewBox="0 0 28 22" fill="none" xmlns="http://www.w3.org/2000/svg">
<path d="M3.67969 21.5742H23.9531C26.4141 21.5742 27.6328 20.3672 27.6328 17.9531V3.63281C27.6328 1.21875 26.4141 0 23.9531 0H3.67969C1.23047 0 0 1.21875 0 3.63281V17.9531C0 20.3672 1.23047 21.5742 3.67969 21.5742Z" fill="#FFCC00"/>
<path d="M16.418 17.0039C15.8906 17.0039 15.5391 16.5938 15.5391 16.0312V10.5C15.5391 9.78516 15.9258 9.50391 16.5469 9.50391H22.1133C22.6758 9.50391 23.0391 9.85547 23.0391 10.3828C23.0391 10.9219 22.6641 11.2734 22.0898 11.2734H20.0625L18.2695 11.0859L20.1562 12.8438L23.7891 16.4648C23.9648 16.6406 24.082 16.8867 24.082 17.1211C24.082 17.6719 23.7305 18.0234 23.2031 18.0234C22.8984 18.0234 22.6758 17.918 22.5 17.7422L18.8789 14.1211L17.1328 12.2578L17.3086 14.1328V16.0547C17.3086 16.6289 16.957 17.0039 16.418 17.0039Z" fill="black" fill-opacity="0.85"/>
</svg>
