<svg width="23" height="23" viewBox="0 0 23 23" fill="none" xmlns="http://www.w3.org/2000/svg">
<path d="M0 6.32812C0 7.35938 1.10156 7.61719 1.75781 6.94922L6.94922 1.75781C7.62891 1.08984 7.35938 0 6.32812 0H1.06641C0.410156 0 0 0.445312 0 1.07812V6.32812ZM3.02344 4.5L17.8711 19.3594L19.3594 17.8945L4.51172 3.02344L3.02344 4.5ZM22.3945 16.0664C22.3945 15.0234 21.293 14.7773 20.625 15.4336L15.4336 20.625C14.7656 21.3047 15.0352 22.3945 16.0664 22.3945H21.3281C21.9844 22.3945 22.3945 21.9375 22.3945 21.3164V16.0664ZM22.3945 6.32812V1.07812C22.3945 0.445312 21.9844 0 21.3281 0H16.0664C15.0352 0 14.7656 1.08984 15.4336 1.75781L20.625 6.94922C21.293 7.61719 22.3945 7.35938 22.3945 6.32812ZM4.51172 19.3594L19.3711 4.5L17.8828 3.02344L3.02344 17.8828L4.51172 19.3594ZM0 16.0664V21.3164C0 21.9375 0.410156 22.3945 1.06641 22.3945H6.32812C7.35938 22.3945 7.62891 21.3047 6.94922 20.625L1.75781 15.4336C1.10156 14.7773 0 15.0234 0 16.0664Z" fill="black" fill-opacity="0.85"/>
</svg>
