<svg width="26" height="22" viewBox="0 0 26 22" fill="none" xmlns="http://www.w3.org/2000/svg">
<path d="M0 10.7461C0 11.1328 0.152344 11.5781 0.597656 12L9.84375 20.7305C10.4062 21.2578 10.875 21.4922 11.4492 21.4922C12.2461 21.4922 12.8203 20.9062 12.8203 20.1211V15.375H22.5703C24.2695 15.375 25.2656 14.4141 25.2656 12.7383V8.76562C25.2656 7.08984 24.2695 6.12891 22.5703 6.12891H12.8203V1.42969C12.8203 0.644531 12.2461 0 11.4258 0C10.8516 0 10.4648 0.246094 9.84375 0.832031L0.597656 9.48047C0.140625 9.91406 0 10.3477 0 10.7461Z" fill="black" fill-opacity="0.85"/>
</svg>
