<svg width="25" height="28" viewBox="0 0 25 28" fill="none" xmlns="http://www.w3.org/2000/svg">
<path d="M6.64453 18.3193C7.13672 18.2021 7.41797 17.7334 7.27734 17.2412L6.29297 13.3388C6.1875 12.9521 6.02344 12.6826 5.71875 12.5068C5.41406 12.3193 5.10938 12.3076 4.71094 12.4248L0.855469 13.5146C0.339844 13.6552 0.0820312 14.1357 0.222656 14.6045C0.351562 15.0967 0.832031 15.3896 1.32422 15.2256L4.73438 14.2177L5.55469 17.6748C5.66016 18.1787 6.16406 18.4482 6.64453 18.3193ZM3.23438 24.8701H9.51562C10.0664 24.8701 10.4766 24.4834 10.4766 23.956C10.4766 23.4287 10.0664 23.0302 9.51562 23.0302H3.24609C2.4375 23.0302 1.89844 22.3623 1.89844 21.6357C1.89844 21.4248 1.93359 21.167 2.0625 20.9443L6.12891 13.667L4.53516 12.7295L0.433594 20.042C0.152344 20.5576 0 21.1084 0 21.6357C0 23.4521 1.24219 24.8701 3.23438 24.8701ZM17.6953 12.4482L19.2891 11.5224L15.0352 3.91699C14.4375 2.83887 13.3477 2.28809 12.2578 2.28809C11.1562 2.28809 10.0781 2.85059 9.46875 3.91699L6.23438 9.69434C5.92969 10.2217 6.09375 10.7256 6.55078 10.9951C7.01953 11.2529 7.57031 11.0888 7.83984 10.6201L11.0742 4.81934C11.3438 4.35059 11.8008 4.15137 12.2578 4.15137C12.7148 4.15137 13.1602 4.35059 13.418 4.81934L17.6953 12.4482ZM17.8594 12.7295C18.2578 12.8349 18.5625 12.8349 18.8672 12.6474C19.1719 12.4599 19.3359 12.2138 19.4414 11.8154L20.4141 7.91309C20.5547 7.4209 20.2852 6.95215 19.793 6.83496C19.3125 6.70606 18.8086 6.97559 18.7031 7.47949L17.8828 10.9365L14.4609 9.92871C13.9805 9.77637 13.5 10.0576 13.3594 10.5498C13.2305 11.0185 13.4883 11.499 13.9922 11.6396L17.8594 12.7295ZM12.9727 24.8701H21.2695C23.2617 24.8701 24.5039 23.4521 24.5039 21.6357C24.5039 21.1084 24.3633 20.5693 24.0703 20.042L20.9648 14.499C20.6953 13.9951 20.1445 13.8779 19.6992 14.1474C19.2422 14.417 19.0898 14.9677 19.3477 15.4365L22.4297 20.9443C22.5586 21.167 22.6172 21.4248 22.6172 21.6357C22.6172 22.3623 22.0547 23.0302 21.2461 23.0302H12.9727V24.8701ZM15.5039 27.6592C15.8672 28.0342 16.418 28.0107 16.7578 27.6592C17.1211 27.3193 17.1211 26.7568 16.7461 26.3935L14.168 23.956L16.7461 21.5185C17.1211 21.1552 17.1211 20.5927 16.7578 20.2529C16.418 19.8896 15.8672 19.8779 15.5039 20.2529L12.6211 23.042C12.3281 23.3232 12.1992 23.6045 12.1992 23.956C12.1992 24.3076 12.3281 24.5771 12.6211 24.8584L15.5039 27.6592Z" fill="black" fill-opacity="0.85"/>
</svg>
