<svg width="24" height="24" viewBox="0 0 24 24" fill="none" xmlns="http://www.w3.org/2000/svg">
<path d="M11.9531 23.9062C18.4922 23.9062 23.9062 18.4805 23.9062 11.9531C23.9062 5.41406 18.4805 0 11.9414 0C5.41406 0 0 5.41406 0 11.9531C0 18.4805 5.42578 23.9062 11.9531 23.9062ZM11.9531 21.9141C6.42188 21.9141 2.00391 17.4844 2.00391 11.9531C2.00391 6.42188 6.41016 1.99219 11.9414 1.99219C17.4727 1.99219 21.9141 6.42188 21.9141 11.9531C21.9141 17.4844 17.4844 21.9141 11.9531 21.9141Z" fill="#007AFF"/>
<path d="M7.01953 17.1211C7.46484 17.1211 7.79297 16.8047 7.79297 16.3477V7.54688C7.79297 7.08984 7.46484 6.77344 7.01953 6.77344C6.5625 6.77344 6.22266 7.08984 6.22266 7.54688V16.3477C6.22266 16.8047 6.5625 17.1211 7.01953 17.1211ZM19.3125 11.9648C19.3125 11.5078 18.9727 11.1797 18.5273 11.1797H13.1484L11.0039 11.3086L13.3828 9.19922L14.1211 8.47266C14.2852 8.32031 14.3555 8.10938 14.3555 7.89844C14.3555 7.45312 14.0156 7.14844 13.582 7.14844C13.3711 7.14844 13.1719 7.21875 13.0078 7.39453L8.96484 11.3672C8.78906 11.543 8.69531 11.7422 8.69531 11.9648C8.69531 12.1758 8.77734 12.3867 8.96484 12.5508L12.9961 16.4883C13.1484 16.6406 13.3945 16.7461 13.5938 16.7461C14.0391 16.7461 14.3555 16.4414 14.3555 15.9844C14.3555 15.75 14.2852 15.5625 14.1211 15.4219L13.3711 14.7305L10.9922 12.6211L13.1484 12.75H18.5273C18.9727 12.75 19.3125 12.4336 19.3125 11.9648Z" fill="black" fill-opacity="0.85"/>
</svg>
