<svg width="24" height="30" viewBox="0 0 24 30" fill="none" xmlns="http://www.w3.org/2000/svg">
<path d="M5.68359 3.67969V19.957C5.68359 22.3945 6.89062 23.6367 9.31641 23.6367H20.332C22.7461 23.6367 23.9648 22.3945 23.9648 19.957V3.67969C23.9648 1.23047 22.7461 0 20.332 0H9.31641C6.89062 0 5.68359 1.23047 5.68359 3.67969ZM11.9648 4.01953C11.4492 4.01953 11.2148 3.67969 11.2148 3.32812V3.08203C11.2148 2.71875 11.4492 2.39062 11.9648 2.39062H17.6836C18.1875 2.39062 18.4336 2.71875 18.4336 3.08203V3.32812C18.4336 3.67969 18.1875 4.01953 17.6836 4.01953H11.9648Z" fill="#007AFF"/>
<path d="M0 25.8047C0 28.2539 1.20703 29.4844 3.63281 29.4844H14.6484C17.0742 29.4844 18.2812 28.2422 18.2812 25.8047V9.52734C18.2812 7.07812 17.0742 5.84766 14.6484 5.84766H3.63281C1.20703 5.84766 0 7.06641 0 9.52734V25.8047Z" fill="white"/>
<path d="M0 25.8047C0 28.2539 1.20703 29.4844 3.63281 29.4844H14.6484C17.0742 29.4844 18.2812 28.2422 18.2812 25.8047V9.52734C18.2812 7.07812 17.0742 5.84766 14.6484 5.84766H3.63281C1.20703 5.84766 0 7.06641 0 9.52734V25.8047ZM1.88672 25.7695V9.55078C1.88672 8.39062 2.50781 7.73438 3.71484 7.73438H14.5547C15.7617 7.73438 16.3945 8.39062 16.3945 9.55078V25.7695C16.3945 26.9414 15.7617 27.5977 14.5547 27.5977H3.71484C2.50781 27.5977 1.88672 26.9414 1.88672 25.7695Z" fill="black" fill-opacity="0.85"/>
<path d="M4.01953 17.6484C4.01953 18.082 4.32422 18.3984 4.74609 18.3984H9.82031L11.9297 18.3164L10.6992 19.3594L9.55078 20.4844C9.41016 20.625 9.32812 20.8008 9.32812 21.0117C9.32812 21.4102 9.63281 21.7383 10.043 21.7383C10.2422 21.7383 10.418 21.6562 10.5469 21.5273L13.8281 18.2344C14.0156 18.0469 14.1211 17.8828 14.1211 17.6484C14.1211 17.4492 14.0273 17.2852 13.8281 17.0859L10.5469 13.7812C10.418 13.6523 10.2422 13.582 10.043 13.582C9.63281 13.582 9.32812 13.8984 9.32812 14.2969C9.32812 14.5078 9.42188 14.6836 9.55078 14.8242L10.6992 15.9609L11.918 16.9922L9.82031 16.9219H4.74609C4.32422 16.9219 4.01953 17.2148 4.01953 17.6484Z" fill="black" fill-opacity="0.85"/>
</svg>
