<svg width="22" height="22" viewBox="0 0 22 22" fill="none" xmlns="http://www.w3.org/2000/svg">
<path d="M3.67969 21.5977H17.8945C20.3555 21.5977 21.5742 20.3789 21.5742 17.9648V3.65625C21.5742 1.24219 20.3555 0.0234375 17.8945 0.0234375H3.67969C1.23047 0.0234375 0 1.23047 0 3.65625V17.9648C0 20.3906 1.23047 21.5977 3.67969 21.5977ZM3.70312 19.7109C2.53125 19.7109 1.88672 19.0898 1.88672 17.8711V3.75C1.88672 2.53125 2.53125 1.91016 3.70312 1.91016H17.8711C19.0312 1.91016 19.6875 2.53125 19.6875 3.75V17.8711C19.6875 19.0898 19.0312 19.7109 17.8711 19.7109H3.70312Z" fill="#007AFF"/>
<path d="M16.8516 12.2227C16.8516 9.41016 14.8125 7.69922 12.082 7.69922H8.57812L7.19531 7.73438L8.12109 7.00781L9.32812 5.83594C9.49219 5.69531 9.59766 5.47266 9.59766 5.22656C9.59766 4.74609 9.23438 4.38281 8.75391 4.38281C8.50781 4.38281 8.32031 4.45312 8.15625 4.62891L5.03906 7.79297C4.85156 7.99219 4.73438 8.23828 4.73438 8.50781C4.73438 8.78906 4.85156 9.02344 5.03906 9.22266L8.16796 12.4102C8.33203 12.5742 8.51953 12.6562 8.76562 12.6562C9.23438 12.6562 9.59766 12.293 9.59766 11.8008C9.59766 11.5898 9.51561 11.3555 9.33984 11.2031L7.875 9.79688L7.19531 9.28125L8.57812 9.33984H12.082C13.8047 9.33984 15.1289 10.3242 15.1289 12.1289C15.1289 13.9805 13.8398 15.1172 12.0703 15.1172C11.9297 15.1172 10.4883 15.1172 10.4414 15.1172C9.93749 15.1172 9.55078 15.4102 9.55078 15.9609C9.55078 16.5 9.9375 16.793 10.4648 16.793C10.5234 16.793 11.9297 16.793 12.0703 16.793C14.8008 16.793 16.8516 15.0352 16.8516 12.2227Z" fill="black" fill-opacity="0.85"/>
</svg>
