<svg width="32" height="25" viewBox="0 0 32 25" fill="none" xmlns="http://www.w3.org/2000/svg">
<path d="M19.9219 24.8086H28.6055C30.5156 24.8086 31.793 23.5898 31.793 21.7617V3.04688C31.793 1.21875 30.5156 0 28.6055 0H19.9219C18.0117 0 16.7227 1.21875 16.7227 3.04688V21.7617C16.7227 23.5898 18.0117 24.8086 19.9219 24.8086Z" fill="#007AFF"/>
<path d="M1.04297 22.0195C1.65234 22.0195 2.08594 21.5977 2.08594 20.9883V19.207C2.08594 14.8477 4.74609 13.4414 8.15625 13.4414H8.92969L12.1758 13.3359V12.6797L8.98828 15.5859L7.69922 16.6875C7.42969 16.9102 7.35938 17.2031 7.35938 17.4844C7.35938 18.0586 7.80469 18.4922 8.37891 18.4922C8.66016 18.4922 8.90625 18.3867 9.16406 18.1406L14.1211 13.1953C14.3555 12.9727 14.4844 12.7031 14.4844 12.4102C14.4844 12.1172 14.3555 11.8477 14.1211 11.625L9.14062 6.65625C8.90625 6.42188 8.66016 6.32812 8.37891 6.32812C7.80469 6.32812 7.35938 6.75 7.35938 7.33594C7.35938 7.61719 7.42969 7.91016 7.69922 8.13281L8.98828 9.23438L12.1758 12.1406V11.4844L8.92969 11.3789H8.15625C3.99609 11.3789 0 13.2891 0 19.207V20.9883C0 21.5977 0.433594 22.0195 1.04297 22.0195Z" fill="black" fill-opacity="0.85"/>
</svg>
