<svg width="36" height="23" viewBox="0 0 36 23" fill="none" xmlns="http://www.w3.org/2000/svg">
<path d="M17.8359 22.2773C18.4453 22.2773 18.879 21.8438 18.879 21.2344V1.01953C18.879 0.421875 18.4453 0 17.8359 0C17.2266 0 16.7812 0.421875 16.7812 1.01953V21.2344C16.7812 21.8438 17.2266 22.2773 17.8359 22.2773Z" fill="#007AFF"/>
<path d="M14.7305 11.1328C14.7305 10.5234 14.3086 10.0898 13.6992 10.0898H5.70703L3.375 10.1602L7.24219 6.42188C7.44141 6.23438 7.53516 5.95312 7.53516 5.67188C7.53516 5.08594 7.08984 4.65234 6.50391 4.65234C6.22266 4.65234 5.95312 4.76953 5.71875 5.00391L0.363281 10.3477C0.140625 10.5703 0 10.8398 0 11.1328C0 11.4258 0.140625 11.6953 0.363281 11.918L5.71875 17.2617C5.95312 17.4961 6.22266 17.6133 6.50391 17.6133C7.08984 17.6133 7.53516 17.1797 7.53516 16.5938C7.53516 16.3125 7.44141 16.0312 7.24219 15.8438L3.375 12.1055L5.70703 12.1875H13.6992C14.3086 12.1875 14.7305 11.7422 14.7305 11.1328ZM20.9414 11.1328C20.9414 11.7422 21.3633 12.1875 21.9727 12.1875H29.9531L32.2969 12.1055L28.4297 15.8438C28.2305 16.0312 28.1367 16.3125 28.1367 16.5938C28.1367 17.1797 28.582 17.6133 29.1562 17.6133C29.4492 17.6133 29.7188 17.4961 29.9531 17.2617L35.3086 11.918C35.5312 11.6953 35.6719 11.4258 35.6719 11.1328C35.6719 10.8398 35.5312 10.5703 35.3086 10.3477L29.9531 5.00391C29.7188 4.76953 29.4492 4.65234 29.1562 4.65234C28.582 4.65234 28.1367 5.08594 28.1367 5.67188C28.1367 5.95312 28.2305 6.23438 28.4297 6.42188L32.2969 10.1602L29.9531 10.0898H21.9727C21.3633 10.0898 20.9414 10.5234 20.9414 11.1328Z" fill="black" fill-opacity="0.85"/>
</svg>
