<svg width="22" height="22" viewBox="0 0 22 22" fill="none" xmlns="http://www.w3.org/2000/svg">
<path d="M3.67969 21.5977H17.8945C20.3555 21.5977 21.5742 20.3789 21.5742 17.9648V3.65625C21.5742 1.24219 20.3555 0.0234375 17.8945 0.0234375H3.67969C1.23047 0.0234375 0 1.23047 0 3.65625V17.9648C0 20.3906 1.23047 21.5977 3.67969 21.5977Z" fill="#FFCC00"/>
<path d="M17.7539 11.8242C17.7539 12.2812 17.3672 12.668 16.9336 12.6562L12.6797 12.6094C12.457 12.5977 12.2461 12.5039 12.1172 12.3633C11.7891 12.0469 11.7891 11.6016 12.1055 11.2852C12.2695 11.1211 12.457 11.0508 12.668 11.0508L14.4492 11.0742L15.1289 11.0977L14.6953 10.7109L9.17578 5.17969C8.85938 4.86328 8.84766 4.39453 9.17578 4.06641C9.48047 3.75 9.96094 3.75 10.2891 4.06641L15.8203 9.59766L16.1953 10.0078L16.1602 9.36328L16.1367 7.57031C16.125 7.35938 16.2188 7.16016 16.3711 7.00781C16.6992 6.67969 17.1562 6.67969 17.4727 7.00781C17.6133 7.14844 17.707 7.38281 17.707 7.59375L17.7539 11.8242ZM3.82031 9.77344C3.82031 9.30469 4.18359 8.96484 4.62891 8.96484L8.88281 9C9.07031 9 9.30469 9.10547 9.44531 9.23438C9.77344 9.57422 9.77344 10.0195 9.45703 10.3359C9.29297 10.4883 9.10547 10.5703 8.90625 10.5703L7.10156 10.5352L6.42188 10.5117L6.85547 10.8867L12.3867 16.4297C12.7148 16.7461 12.7148 17.2031 12.3867 17.5312C12.0703 17.8477 11.6016 17.8594 11.2852 17.5312L5.74219 12.0117L5.34375 11.5781L5.39062 12.2461L5.41406 14.0391C5.41406 14.25 5.34375 14.4375 5.19141 14.6016C4.875 14.918 4.40625 14.918 4.08984 14.6016C3.94922 14.4727 3.87891 14.25 3.86719 14.0273L3.82031 9.77344Z" fill="black" fill-opacity="0.85"/>
</svg>
