<svg width="20" height="19" viewBox="0 0 20 19" fill="none" xmlns="http://www.w3.org/2000/svg">
<path d="M1.41797 18.6445C1.88672 18.6445 2.26172 18.4453 2.75391 18.1992L17.8125 10.8984C18.8086 10.4062 19.125 9.94922 19.125 9.32812C19.125 8.70703 18.8086 8.26172 17.8125 7.76953L2.75391 0.457031C2.25 0.210938 1.875 0.0117188 1.40625 0.0117188C0.539062 0.0117188 0 0.667969 0 1.6875L0.0117188 16.9688C0.0117188 17.9883 0.550781 18.6445 1.41797 18.6445ZM2.00391 16.418C1.93359 16.418 1.88672 16.3711 1.88672 16.2773V2.37891C1.88672 2.28516 1.93359 2.23828 2.00391 2.23828C2.05078 2.23828 2.09766 2.26172 2.14453 2.29688L16.5 9.19922C16.5586 9.22266 16.6055 9.26953 16.6055 9.32812C16.6055 9.38672 16.5586 9.43359 16.5 9.45703L2.14453 16.3711C2.09766 16.3945 2.05078 16.418 2.00391 16.418Z" fill="black" fill-opacity="0.85"/>
</svg>
