<svg width="32" height="22" viewBox="0 0 32 22" fill="none" xmlns="http://www.w3.org/2000/svg">
<path d="M10.2891 21.8086C10.8164 21.8086 11.1328 21.5508 11.25 21.082C12.5156 17.168 14.5312 15.7852 17.8594 15.7852L18.2812 15.7969V20.2734C18.2812 21.0586 18.8555 21.6445 19.6523 21.6445C20.2266 21.6445 20.6953 21.4102 21.2578 20.8828L30.5156 12.1523C30.9609 11.7305 31.1016 11.2852 31.1016 10.8984C31.1016 10.5 30.9609 10.0547 30.5156 9.63281L21.2578 0.984375C20.6367 0.398438 20.25 0.140625 19.6758 0.140625C18.8555 0.140625 18.2812 0.796875 18.2812 1.58203V6.01172H17.9414C14.2617 6.01172 11.0625 8.19141 10.3359 12.5742H10.207C9.39844 7.72266 6.07031 6.01172 2.91797 6.01172C2.85938 6.01172 2.67188 6.01172 2.26172 6.01172C0.644531 6.01172 0 6.62109 0 8.36719V13.9688C0 15.293 0.632812 15.8555 2.15625 15.8555C2.50781 15.8555 2.82422 15.8555 3.1875 15.8555C6.38672 15.8555 8.49609 17.9883 9.33984 21.0703C9.44531 21.5508 9.75 21.8086 10.2891 21.8086ZM9.66797 18.4453C8.35547 15.1172 5.97656 14.0391 3.04688 14.0156C2.8125 14.0156 2.56641 14.0156 2.34375 14.0156C2.05078 14.0156 1.88672 13.8398 1.88672 13.5V8.36719C1.88672 8.02734 2.05078 7.83984 2.36719 7.83984C2.60156 7.83984 2.78906 7.83984 3.02344 7.83984C6.5625 7.88672 9.57422 10.3828 9.79688 18.4453H9.66797ZM20.332 19.125C20.2266 19.125 20.168 19.0547 20.168 18.9492V14.4141C20.168 14.1445 20.0391 14.0273 19.7695 14.0273L17.8008 14.0156C14.3789 14.0156 12.1172 15.3867 10.9219 18.4453H10.793C10.9805 11.2734 13.5938 7.78125 18 7.78125H19.7695C20.0391 7.78125 20.168 7.66406 20.168 7.39453V2.74219C20.168 2.64844 20.2383 2.57812 20.332 2.57812C20.4141 2.57812 20.4727 2.625 20.5312 2.67188L28.875 10.6758C28.9688 10.7578 29.0039 10.8281 29.0039 10.8984C29.0039 10.9688 28.9688 11.0273 28.875 11.1211L20.5312 19.0195C20.4609 19.0898 20.3906 19.125 20.332 19.125Z" fill="black" fill-opacity="0.85"/>
</svg>
