<svg width="22" height="22" viewBox="0 0 22 22" fill="none" xmlns="http://www.w3.org/2000/svg">
<path d="M3.67969 21.5977H17.8945C20.3555 21.5977 21.5742 20.3789 21.5742 17.9648V3.65625C21.5742 1.24219 20.3555 0.0234375 17.8945 0.0234375H3.67969C1.23047 0.0234375 0 1.23047 0 3.65625V17.9648C0 20.3906 1.23047 21.5977 3.67969 21.5977ZM3.70312 19.7109C2.53125 19.7109 1.88672 19.0898 1.88672 17.8711V3.75C1.88672 2.53125 2.53125 1.91016 3.70312 1.91016H17.8711C19.0312 1.91016 19.6875 2.53125 19.6875 3.75V17.8711C19.6875 19.0898 19.0312 19.7109 17.8711 19.7109H3.70312Z" fill="#007AFF"/>
<path d="M14.4609 13.6992C14.9766 13.6992 15.3281 13.3008 15.3281 12.7617V7.23047C15.3281 6.53906 14.9414 6.26953 14.3438 6.26953H8.78906C8.23828 6.26953 7.88672 6.60938 7.88672 7.125C7.88672 7.64062 8.25 7.98047 8.8125 7.98047H10.9453L12.6797 7.79297L10.8516 9.49219L6.52734 13.8164C6.36328 13.9805 6.25781 14.2148 6.25781 14.4492C6.25781 14.9766 6.59766 15.3164 7.11328 15.3164C7.39453 15.3164 7.61719 15.2109 7.78125 15.0469L12.0938 10.7344L13.7812 8.92969L13.6055 10.7578V12.7852C13.6055 13.3359 13.9453 13.6992 14.4609 13.6992Z" fill="black" fill-opacity="0.85"/>
</svg>
