<svg width="24" height="24" viewBox="0 0 24 24" fill="none" xmlns="http://www.w3.org/2000/svg">
<path d="M11.9531 23.918C18.4922 23.918 23.9062 18.5039 23.9062 11.9648C23.9062 5.4375 18.4805 0.0117188 11.9414 0.0117188C5.41406 0.0117188 0 5.4375 0 11.9648C0 18.5039 5.42578 23.918 11.9531 23.918Z" fill="#FFCC00"/>
<path d="M5.94141 17.1797C5.60156 17.1797 5.27344 16.8867 5.27344 16.3242C5.27344 11.5078 7.32422 8.53125 11.9766 8.53125H12.1641V6.07031C12.1641 5.63672 12.4805 5.28516 12.9375 5.28516C13.2656 5.28516 13.4648 5.41406 13.8047 5.74219L18.9375 10.5352C19.1953 10.7695 19.2773 11.0039 19.2773 11.2266C19.2773 11.4609 19.1953 11.6953 18.9375 11.9297L13.8047 16.7578C13.5 17.0391 13.2539 17.1797 12.9258 17.1797C12.4805 17.1797 12.1641 16.8516 12.1641 16.4297V13.9336H11.9766C9.45703 13.9336 7.875 14.5781 6.73828 16.6992C6.52734 17.1094 6.22266 17.1797 5.94141 17.1797Z" fill="black" fill-opacity="0.85"/>
</svg>
