<svg width="27" height="27" viewBox="0 0 27 27" fill="none" xmlns="http://www.w3.org/2000/svg">
<path d="M26.2398 15.5054L26.1577 7.05617C26.1577 6.7632 26.0288 6.45851 25.8413 6.27101C25.4077 5.83742 24.7984 5.84914 24.3765 6.27101C24.1655 6.48195 24.0718 6.72804 24.0718 6.99757L24.1304 10.5015L24.3413 13.3843L22.5015 11.3921L11.439 0.329604C11.0054 -0.103989 10.3726 -0.115708 9.9507 0.329604C9.50539 0.751479 9.51711 1.37257 9.9507 1.80617L21.0132 12.8804L23.0054 14.7085L20.1343 14.5093L16.6304 14.4507C16.3491 14.4507 16.103 14.5327 15.8921 14.7554C15.4702 15.1773 15.4585 15.7749 15.8921 16.2202C16.0913 16.396 16.3843 16.5249 16.689 16.5249L25.1265 16.6187C25.7593 16.6421 26.2632 16.1499 26.2398 15.5054Z" fill="#007AFF"/>
<path d="M0.000785678 10.7711L0.0945357 19.2086C0.0945357 19.5133 0.223442 19.8063 0.399223 19.9938C0.844536 20.4391 1.44219 20.4274 1.86407 19.9938C2.075 19.7828 2.16875 19.5485 2.16875 19.2672L2.11016 15.7516L1.91094 12.8805L3.73907 14.8844L14.8133 25.9469C15.2469 26.3805 15.8563 26.3805 16.2898 25.9469C16.7352 25.5133 16.7234 24.8922 16.2898 24.4586L5.22735 13.3961L3.23516 11.568L6.10625 11.7672L9.62188 11.8258C9.89141 11.8258 10.1258 11.732 10.3367 11.5211C10.7703 11.0992 10.782 10.4899 10.3367 10.0563C10.1492 9.86876 9.85625 9.73985 9.56329 9.73985L1.11407 9.65782C0.481254 9.63438 -0.0226518 10.1031 0.000785678 10.7711Z" fill="black" fill-opacity="0.85"/>
</svg>
