<svg width="22" height="22" viewBox="0 0 22 22" fill="none" xmlns="http://www.w3.org/2000/svg">
<path d="M3.67969 21.5742H17.8945C20.3555 21.5742 21.5742 20.3555 21.5742 17.9414V3.63281C21.5742 1.21875 20.3555 0 17.8945 0H3.67969C1.23047 0 0 1.20703 0 3.63281V17.9414C0 20.3672 1.23047 21.5742 3.67969 21.5742ZM3.70312 19.6875C2.53125 19.6875 1.88672 19.0664 1.88672 17.8477V3.72656C1.88672 2.51953 2.53125 1.88672 3.70312 1.88672H17.8711C19.0312 1.88672 19.6875 2.51953 19.6875 3.72656V17.8477C19.6875 19.0664 19.0312 19.6875 17.8711 19.6875H3.70312Z" fill="#007AFF"/>
<path d="M4.73438 12.1992C4.73438 15.0234 6.77344 16.7695 9.50391 16.7695C9.64453 16.7695 11.0508 16.7695 11.1094 16.7695C11.6367 16.7695 12.0234 16.4766 12.0234 15.9375C12.0234 15.3984 11.6367 15.0938 11.1328 15.0938C11.0859 15.0938 9.64453 15.0938 9.50391 15.0938C7.73438 15.0938 6.45703 13.957 6.45703 12.1055C6.45703 10.3008 7.76953 9.31641 9.49219 9.31641H12.9961L14.3789 9.26953L13.6992 9.77344L12.2344 11.1797C12.0586 11.332 11.9766 11.5664 11.9766 11.7891C11.9766 12.2695 12.3398 12.6445 12.8086 12.6445C13.0547 12.6445 13.2422 12.5625 13.4062 12.3984L16.5352 9.19921C16.7344 8.99999 16.8516 8.76561 16.8516 8.49609C16.8516 8.21484 16.7344 7.96874 16.5352 7.76953L13.418 4.61719C13.2539 4.44141 13.0664 4.35938 12.8203 4.35938C12.3398 4.35938 11.9766 4.72266 11.9766 5.21484C11.9766 5.44922 12.082 5.67188 12.2461 5.8125L13.4531 6.98438L14.3789 7.72266L12.9961 7.67578H9.49219C6.76172 7.67578 4.73438 9.38671 4.73438 12.1992Z" fill="black" fill-opacity="0.85"/>
</svg>
