<svg width="27" height="27" viewBox="0 0 27 27" fill="none" xmlns="http://www.w3.org/2000/svg">
<path d="M1.31406 15.8805L10.7008 25.2672C12.4352 27.0016 14.1461 27.0133 15.8687 25.3023L25.3023 15.857C27.0133 14.1461 27.0016 12.4234 25.2672 10.6891L15.8922 1.31406C14.1578 -0.420317 12.4469 -0.443755 10.7242 1.2789L1.2789 10.7125C-0.443755 12.4352 -0.420317 14.1461 1.31406 15.8805ZM2.67343 14.5797C1.8414 13.7359 1.81796 12.857 2.68515 11.9898L11.9898 2.68515C12.857 1.81796 13.7359 1.82968 14.5797 2.67343L23.9078 12.0016C24.7398 12.8336 24.7633 13.7242 23.8961 14.5914L14.5914 23.8961C13.7242 24.7633 12.8219 24.7398 12.0016 23.9195L2.67343 14.5797Z" fill="#007AFF"/>
<path d="M8.21484 16.9821C8.21484 17.6501 8.54297 18.0485 9.15234 18.0368C9.75 18.0251 10.0898 17.6501 10.0898 16.9821V13.7243C10.0898 12.6579 10.5937 12.1657 11.6015 12.1657H14.6601V14.0056C14.6601 14.7673 15.5156 15.1188 16.1601 14.5681L18.9609 12.1423C19.664 11.5329 19.664 10.9118 18.9609 10.3024L16.1601 7.8884C15.5156 7.3259 14.6601 7.68918 14.6601 8.43918V10.279H11.5781C9.29297 10.279 8.21484 11.3688 8.21484 13.6306V16.9821Z" fill="black" fill-opacity="0.85"/>
</svg>
