<svg width="26" height="22" viewBox="0 0 26 22" fill="none" xmlns="http://www.w3.org/2000/svg">
<path d="M25.2656 10.7461C25.2656 10.3477 25.125 9.91406 24.668 9.48047L15.4219 0.832031C14.8008 0.246094 14.4141 0 13.8398 0C13.0195 0 12.4336 0.644531 12.4336 1.42969V5.85938H2.92969C1.07812 5.85938 0 6.91406 0 8.73047V12.7734C0 14.5898 1.07812 15.6445 2.92969 15.6445H12.4336V20.1211C12.4336 20.9062 13.0195 21.4922 13.8164 21.4922C14.3906 21.4922 14.8594 21.2578 15.4219 20.7305L24.668 12C25.1133 11.5781 25.2656 11.1328 25.2656 10.7461ZM23.1562 10.7461C23.1562 10.8164 23.1328 10.875 23.0391 10.9688L14.6836 18.8672C14.625 18.9375 14.5547 18.9727 14.4844 18.9727C14.3906 18.9727 14.3203 18.9023 14.3203 18.7969V14.2617C14.3203 13.9922 14.2031 13.875 13.9336 13.875H2.95312C2.20312 13.875 1.76953 13.4414 1.76953 12.6797V8.82422C1.76953 8.0625 2.20312 7.62891 2.95312 7.62891H13.9336C14.2031 7.62891 14.3203 7.51172 14.3203 7.24219V2.58984C14.3203 2.49609 14.3906 2.42578 14.4961 2.42578C14.5664 2.42578 14.6367 2.47266 14.6953 2.51953L23.0391 10.5234C23.1211 10.6055 23.1562 10.6758 23.1562 10.7461Z" fill="black" fill-opacity="0.85"/>
</svg>
