<svg width="19" height="20" viewBox="0 0 19 20" fill="none" xmlns="http://www.w3.org/2000/svg">
<path d="M18.6445 17.7188C18.6445 17.25 18.4336 16.875 18.1875 16.3828L10.8867 1.33594C10.3945 0.328125 9.9375 0.0117188 9.31641 0.0117188C8.69531 0.0117188 8.25 0.328125 7.75781 1.33594L0.445312 16.3828C0.210938 16.8867 0 17.2617 0 17.7305C0 18.5977 0.65625 19.1367 1.67578 19.1367L16.957 19.125C17.9766 19.125 18.6445 18.5859 18.6445 17.7188ZM16.4062 17.1328C16.4062 17.2031 16.3594 17.25 16.2656 17.25H2.36719C2.27344 17.25 2.23828 17.2031 2.23828 17.1328C2.23828 17.0859 2.26172 17.0391 2.28516 16.9922L9.1875 2.63672C9.22266 2.57812 9.25781 2.53125 9.31641 2.53125C9.38672 2.53125 9.42188 2.57812 9.45703 2.63672L16.3594 16.9922C16.3828 17.0391 16.4062 17.0859 16.4062 17.1328Z" fill="black" fill-opacity="0.85"/>
</svg>
