<svg width="22" height="22" viewBox="0 0 22 22" fill="none" xmlns="http://www.w3.org/2000/svg">
<path d="M3.67969 21.5977H17.8945C20.3555 21.5977 21.5742 20.3789 21.5742 17.9648V3.65625C21.5742 1.24219 20.3555 0.0234375 17.8945 0.0234375H3.67969C1.23047 0.0234375 0 1.23047 0 3.65625V17.9648C0 20.3906 1.23047 21.5977 3.67969 21.5977ZM3.70312 19.7109C2.53125 19.7109 1.88672 19.0898 1.88672 17.8711V3.75C1.88672 2.53125 2.53125 1.91016 3.70312 1.91016H17.8711C19.0312 1.91016 19.6875 2.53125 19.6875 3.75V17.8711C19.6875 19.0898 19.0312 19.7109 17.8711 19.7109H3.70312Z" fill="#007AFF"/>
<path d="M7.11328 7.88672C6.59766 7.88672 6.25781 8.27344 6.25781 8.82422V14.3555C6.25781 15.0469 6.63281 15.3164 7.23047 15.3164H12.7852C13.3359 15.3164 13.6875 14.9766 13.6875 14.4609C13.6875 13.9453 13.3242 13.6055 12.7617 13.6055H10.6289L8.89453 13.793L10.7227 12.082L15.0469 7.76953C15.2109 7.60547 15.3281 7.37109 15.3281 7.13672C15.3281 6.60938 14.9766 6.26953 14.4609 6.26953C14.1797 6.26953 13.9688 6.375 13.793 6.53906L9.48047 10.8516L7.79297 12.6562L7.96875 10.8281V8.80078C7.96875 8.23828 7.62891 7.88672 7.11328 7.88672Z" fill="black" fill-opacity="0.85"/>
</svg>
