<svg width="28" height="22" viewBox="0 0 28 22" fill="none" xmlns="http://www.w3.org/2000/svg">
<path d="M3.67969 21.5742H23.9531C26.4141 21.5742 27.6328 20.3672 27.6328 17.9531V3.63281C27.6328 1.21875 26.4141 0 23.9531 0H3.67969C1.23047 0 0 1.21875 0 3.63281V17.9531C0 20.3672 1.23047 21.5742 3.67969 21.5742ZM3.70312 19.6875C2.53125 19.6875 1.88672 19.0664 1.88672 17.8477V3.73828C1.88672 2.51953 2.53125 1.88672 3.70312 1.88672H23.9297C25.0898 1.88672 25.7461 2.51953 25.7461 3.73828V17.8477C25.7461 19.0664 25.0898 19.6875 23.9297 19.6875H3.70312Z" fill="#007AFF"/>
<path d="M16.5234 16.8984C17.0391 16.8984 17.3789 16.5352 17.3789 15.9844V14.1094L17.2031 12.293L18.8906 14.0977L22.4297 17.625C22.5938 17.7891 22.8047 17.8945 23.0977 17.8945C23.6133 17.8945 23.9531 17.5547 23.9531 17.0273C23.9531 16.793 23.8359 16.5586 23.6719 16.3945L20.1328 12.8555L18.3047 11.1562L20.0391 11.3438H22.0195C22.5703 11.3438 22.9336 11.0039 22.9336 10.4883C22.9336 9.97266 22.582 9.63281 22.043 9.63281H16.6406C16.043 9.63281 15.668 9.90234 15.668 10.5938V15.9609C15.668 16.5 16.0078 16.8984 16.5234 16.8984Z" fill="black" fill-opacity="0.85"/>
</svg>
