<svg width="30" height="26" viewBox="0 0 30 26" fill="none" xmlns="http://www.w3.org/2000/svg">
<path d="M10.2227 21.457C10.2227 23.9062 11.4414 25.125 13.8555 25.125H26.3008C28.7266 25.125 29.9336 23.9062 29.9336 21.457V3.67969C29.9336 1.24219 28.7266 0 26.3008 0H13.8555C11.4414 0 10.2227 1.24219 10.2227 3.67969V21.457ZM12.1094 21.4219V3.71484C12.1094 2.54297 12.7422 1.88672 13.9609 1.88672H26.207C27.4258 1.88672 28.0469 2.54297 28.0469 3.71484V21.4219C28.0469 22.5938 27.4258 23.2383 26.207 23.2383H13.9609C12.7422 23.2383 12.1094 22.5938 12.1094 21.4219Z" fill="#007AFF"/>
<path d="M25.75 18.1523C26.1719 18.1523 26.4883 17.918 26.4883 17.4609V6.75C26.4883 6.28125 26.1719 6.05859 25.75 6.05859C24.4609 6.05859 21.1328 7.99219 21.1328 12.1055C21.1328 16.2188 24.4609 18.1523 25.75 18.1523ZM16.8906 15.1055C18.7656 15.1055 20.1953 13.7695 20.1836 12.1055C20.1719 10.4297 18.7656 9.09375 16.8906 9.09375C15.1328 9.09375 13.6797 10.4297 13.6797 12.1055C13.6797 13.7695 15.1328 15.1055 16.8906 15.1055Z" fill="black" fill-opacity="0.85"/>
<path d="M0.284519 10.582C-0.301418 11.2383 0.0735818 12.1289 0.952488 12.1289H2.94467V17.2617C2.94467 17.7773 3.34311 18.1758 3.87045 18.1758C4.37436 18.1758 4.7728 17.7773 4.7728 17.2617V12.1289H6.74155C7.66733 12.1289 7.98373 11.2031 7.42123 10.582L4.51498 7.30078C4.12827 6.85547 3.57748 6.85547 3.17905 7.30078L0.284519 10.582Z" fill="black" fill-opacity="0.85"/>
</svg>
