<svg width="22" height="22" viewBox="0 0 22 22" fill="none" xmlns="http://www.w3.org/2000/svg">
<path d="M3.67969 21.5742H17.8945C20.3555 21.5742 21.5742 20.3555 21.5742 17.9414V3.63281C21.5742 1.21875 20.3555 0 17.8945 0H3.67969C1.23047 0 0 1.20703 0 3.63281V17.9414C0 20.3672 1.23047 21.5742 3.67969 21.5742ZM3.70312 19.6875C2.53125 19.6875 1.88672 19.0664 1.88672 17.8477V3.72656C1.88672 2.51953 2.53125 1.88672 3.70312 1.88672H17.8711C19.0312 1.88672 19.6875 2.51953 19.6875 3.72656V17.8477C19.6875 19.0664 19.0312 19.6875 17.8711 19.6875H3.70312Z" fill="#007AFF"/>
<path d="M16.8516 12.1992C16.8516 9.38671 14.8125 7.67578 12.082 7.67578H8.57812L7.19531 7.72266L8.12109 6.98438L9.32812 5.8125C9.49219 5.67188 9.59766 5.44922 9.59766 5.21484C9.59766 4.72266 9.23438 4.35938 8.75391 4.35938C8.50781 4.35938 8.32031 4.44141 8.15625 4.61719L5.03906 7.76953C4.85156 7.96874 4.73438 8.21484 4.73438 8.49609C4.73438 8.76561 4.85156 8.99999 5.03906 9.19921L8.16796 12.3984C8.33203 12.5625 8.51953 12.6328 8.76562 12.6328C9.23438 12.6328 9.59766 12.2695 9.59766 11.7891C9.59766 11.5664 9.51561 11.332 9.33984 11.1797L7.875 9.77344L7.19531 9.26953L8.57812 9.31641H12.082C13.8047 9.31641 15.1289 10.3008 15.1289 12.1055C15.1289 13.957 13.8398 15.0938 12.0703 15.0938C11.9297 15.0938 10.4883 15.0938 10.4414 15.0938C9.93749 15.0938 9.55078 15.3984 9.55078 15.9375C9.55078 16.4766 9.9375 16.7695 10.4648 16.7695C10.5234 16.7695 11.9297 16.7695 12.0703 16.7695C14.8008 16.7695 16.8516 15.0234 16.8516 12.1992Z" fill="black" fill-opacity="0.85"/>
</svg>
