<svg width="18" height="21" viewBox="0 0 18 21" fill="none" xmlns="http://www.w3.org/2000/svg">
<path d="M8.92969 20.6602C9.53906 20.6602 9.97266 20.2266 9.97266 19.6172V7.78125L9.89062 5.27344L13.418 9.12891L16.043 11.7188C16.2305 11.9062 16.5117 12.0117 16.793 12.0117C17.3789 12.0117 17.8125 11.5664 17.8125 10.9805C17.8125 10.6992 17.6953 10.4414 17.4609 10.1953L9.71484 2.4375C9.49219 2.20312 9.21094 2.07422 8.92969 2.07422C8.63672 2.07422 8.36719 2.20312 8.14453 2.4375L0.386719 10.1953C0.164062 10.4414 0.046875 10.6992 0.046875 10.9805C0.046875 11.5664 0.46875 12.0117 1.06641 12.0117C1.34766 12.0117 1.61719 11.9062 1.81641 11.7188L4.44141 9.12891L7.96875 5.26172L7.875 7.78125V19.6172C7.875 20.2266 8.30859 20.6602 8.92969 20.6602ZM1.00781 2.09766H16.8164C17.4258 2.09766 17.8477 1.66406 17.8477 1.05469C17.8477 0.445312 17.4258 0 16.8164 0H1.00781C0.410156 0 0 0.445312 0 1.05469C0 1.66406 0.410156 2.09766 1.00781 2.09766Z" fill="black" fill-opacity="0.85"/>
</svg>
