<svg width="24" height="24" viewBox="0 0 24 24" fill="none" xmlns="http://www.w3.org/2000/svg">
<path d="M11.9531 23.9062C18.4922 23.9062 23.9062 18.4805 23.9062 11.9531C23.9062 5.41406 18.4805 0 11.9414 0C5.41406 0 0 5.41406 0 11.9531C0 18.4805 5.42578 23.9062 11.9531 23.9062Z" fill="#FFCC00"/>
<path d="M11.9648 18C11.4375 18 11.0508 17.625 11.0508 17.0859V11.0742L11.1562 8.50781L9.94922 9.96094L8.51953 11.4023C8.35547 11.5664 8.12109 11.6719 7.875 11.6719C7.37109 11.6719 6.99609 11.2852 6.99609 10.793C6.99609 10.5352 7.06641 10.3242 7.23047 10.1602L11.2617 6.14062C11.5078 5.89453 11.707 5.80078 11.9648 5.80078C12.2344 5.80078 12.4453 5.90625 12.6797 6.14062L16.6992 10.1602C16.8633 10.3242 16.957 10.5352 16.957 10.793C16.957 11.2852 16.5703 11.6719 16.0664 11.6719C15.8086 11.6719 15.5859 11.5781 15.4219 11.4023L14.0039 9.96094L12.7734 8.49609L12.8789 11.0742V17.0859C12.8789 17.625 12.5039 18 11.9648 18Z" fill="black" fill-opacity="0.85"/>
</svg>
