<svg width="24" height="24" viewBox="0 0 24 24" fill="none" xmlns="http://www.w3.org/2000/svg">
<path d="M11.9531 23.9062C18.4922 23.9062 23.9062 18.4805 23.9062 11.9531C23.9062 5.41406 18.4805 0 11.9414 0C5.41406 0 0 5.41406 0 11.9531C0 18.4805 5.42578 23.9062 11.9531 23.9062ZM11.9531 21.9141C6.42188 21.9141 2.00391 17.4844 2.00391 11.9531C2.00391 6.42188 6.41016 1.99219 11.9414 1.99219C17.4727 1.99219 21.9141 6.42188 21.9141 11.9531C21.9141 17.4844 17.4844 21.9141 11.9531 21.9141Z" fill="#007AFF"/>
<path d="M5.87109 13.3828C5.87109 16.1953 7.92188 17.9531 10.6523 17.9531C10.793 17.9531 12.1992 17.9531 12.2578 17.9531C12.7852 17.9531 13.1719 17.6602 13.1719 17.1211C13.1719 16.5703 12.7852 16.2773 12.2812 16.2773C12.2344 16.2773 10.793 16.2773 10.6523 16.2773C8.88281 16.2773 7.59375 15.1406 7.59375 13.2891C7.59375 11.4844 8.91797 10.5 10.6406 10.5H14.1445L15.5273 10.4414L14.8477 10.957L13.3828 12.3633C13.207 12.5156 13.125 12.75 13.125 12.9609C13.125 13.4531 13.4883 13.8164 13.957 13.8164C14.2031 13.8164 14.3906 13.7344 14.5547 13.5703L17.6836 10.3828C17.8711 10.1836 18 9.94922 18 9.66797C18 9.39844 17.8711 9.15234 17.6836 8.95312L14.5664 5.78906C14.4023 5.61328 14.2148 5.54297 13.9688 5.54297C13.4883 5.54297 13.125 5.90625 13.125 6.38672C13.125 6.63281 13.2305 6.85547 13.3945 6.99609L14.6016 8.16797L15.5273 8.89453L14.1445 8.85938H10.6406C7.91016 8.85938 5.87109 10.5703 5.87109 13.3828Z" fill="black" fill-opacity="0.85"/>
</svg>
