<svg width="32" height="23" viewBox="0 0 32 23" fill="none" xmlns="http://www.w3.org/2000/svg">
<path d="M0 16.5703C0 16.8281 0.128906 17.1328 0.328125 17.332L5.49609 22.6289C5.71875 22.8633 5.98828 22.9805 6.28125 22.9805C6.5625 22.9805 6.83203 22.8633 7.05469 22.6289L12.2344 17.332C12.4336 17.1328 12.5508 16.8281 12.5508 16.5703C12.5508 15.9492 12.1289 15.5391 11.5195 15.5391C11.2148 15.5391 10.9805 15.6328 10.8047 15.8203L9.10547 17.6133L7.20703 19.793L7.32422 17.0859V5.89453L7.20703 3.1875L9.10547 5.36719L10.8047 7.16016C10.9805 7.34766 11.2148 7.44141 11.5195 7.44141C12.1289 7.44141 12.5508 7.03125 12.5508 6.41016C12.5508 6.15234 12.4336 5.84766 12.2344 5.64844L7.05469 0.351562C6.83203 0.117188 6.5625 0 6.28125 0C5.98828 0 5.71875 0.117188 5.49609 0.351562L0.328125 5.64844C0.128906 5.84766 0 6.15234 0 6.41016C0 7.03125 0.421875 7.44141 1.03125 7.44141C1.33594 7.44141 1.58203 7.33594 1.74609 7.16016L3.45703 5.36719L5.34375 3.1875L5.22656 5.89453V17.0859L5.34375 19.793L3.45703 17.6133L1.74609 15.8203C1.58203 15.6445 1.33594 15.5391 1.03125 15.5391C0.421875 15.5391 0 15.9492 0 16.5703ZM14.8359 8.39062C14.8359 8.73047 15.0938 9 15.457 9.04688C20.9766 9.66797 21.7852 10.4414 22.5234 16.1367C22.582 16.4883 22.8516 16.7227 23.168 16.7227C23.4961 16.7227 23.7656 16.4883 23.8242 16.1367C24.5625 10.4414 25.3594 9.66797 30.8789 9.04688C31.2539 9 31.5 8.73047 31.5 8.39062C31.5 8.05078 31.2539 7.78125 30.8789 7.73438C25.3711 7.11328 24.5625 6.32812 23.8242 0.644531C23.7656 0.304688 23.5078 0.0703125 23.168 0.0703125C22.8398 0.0703125 22.582 0.304688 22.5234 0.644531C21.7383 6.29297 20.9883 6.99609 15.457 7.73438C15.0938 7.78125 14.8359 8.05078 14.8359 8.39062ZM13.7227 18.5977C13.7227 18.832 13.8867 19.0312 14.1445 19.0898C17.1328 19.6523 17.1914 19.6172 17.5312 22.4297C17.5781 22.6992 17.7656 22.8984 18.0234 22.8984C18.293 22.8984 18.4805 22.7109 18.5273 22.4414C18.9023 19.5 19.0312 19.5 21.8906 19.0898C22.1602 19.043 22.3359 18.8438 22.3359 18.5977C22.3359 18.3633 22.1719 18.1523 21.9023 18.1055C18.9961 17.543 18.9141 17.6133 18.5273 14.7422C18.4805 14.4844 18.2812 14.2969 18.0234 14.2969C17.7656 14.2969 17.5781 14.4961 17.5312 14.7656C17.1914 17.5781 17.1211 17.625 14.1914 18.1055C13.8984 18.1523 13.7227 18.3398 13.7227 18.5977Z" fill="black" fill-opacity="0.85"/>
</svg>
