<svg width="24" height="24" viewBox="0 0 24 24" fill="none" xmlns="http://www.w3.org/2000/svg">
<path d="M11.9531 23.9062C18.4922 23.9062 23.9062 18.4805 23.9062 11.9531C23.9062 5.41406 18.4805 0 11.9414 0C5.41406 0 0 5.41406 0 11.9531C0 18.4805 5.42578 23.9062 11.9531 23.9062Z" fill="#FFCC00"/>
<path d="M4.98047 12.9844L5.03906 8.75391C5.03906 8.54297 5.13281 8.30859 5.27344 8.16797C5.58984 7.83984 6.04688 7.83984 6.375 8.16797C6.52734 8.32031 6.60938 8.51953 6.59766 8.73047L6.57422 10.5234L6.55078 11.168L6.92578 10.7578L12.457 5.22656C12.7852 4.91016 13.2539 4.91016 13.5703 5.22656C13.8984 5.55469 13.8867 6.02344 13.5703 6.33984L8.05078 11.8711L7.61719 12.2578L8.29688 12.2344L10.0781 12.2109C10.2891 12.2109 10.4766 12.2812 10.6406 12.4453C10.957 12.7617 10.957 13.207 10.6289 13.5234C10.4883 13.6641 10.2891 13.7578 10.0664 13.7695L5.8125 13.8164C5.37891 13.8281 4.98047 13.4414 4.98047 12.9844ZM18.9258 10.9336L18.8789 15.1875C18.8672 15.4102 18.7969 15.6328 18.6562 15.7617C18.3281 16.0781 17.8711 16.0781 17.5547 15.7617C17.4023 15.5977 17.332 15.4102 17.332 15.1992L17.3555 13.4062L17.4023 12.7383L17.0039 13.1719L11.4609 18.6914C11.1445 19.0195 10.6758 19.0078 10.3594 18.6914C10.0312 18.3633 10.0312 17.9062 10.3477 17.5898L15.8906 12.0469L16.3125 11.6719L15.6445 11.6953L13.8398 11.7305C13.6289 11.7305 13.4531 11.6484 13.2891 11.4961C12.9609 11.1797 12.9609 10.7344 13.3008 10.3945C13.4414 10.2656 13.6758 10.1602 13.8633 10.1602L18.1172 10.125C18.5625 10.125 18.9258 10.4648 18.9258 10.9336Z" fill="black" fill-opacity="0.85"/>
</svg>
