<svg width="18" height="23" viewBox="0 0 18 23" fill="none" xmlns="http://www.w3.org/2000/svg">
<path d="M8.88281 22.1367C9.49219 22.1367 9.92578 21.7148 9.92578 21.1055V5.67188L9.80859 2.17969L9.14062 2.41406L13.3477 7.01953L16.0195 9.64453C16.207 9.83203 16.4766 9.92578 16.7578 9.92578C17.3438 9.92578 17.7656 9.48047 17.7656 8.90625C17.7656 8.625 17.6719 8.37891 17.4492 8.14453L9.66797 0.351562C9.44531 0.117188 9.17578 0 8.88281 0C8.58984 0 8.32031 0.117188 8.09766 0.351562L0.328125 8.14453C0.105469 8.37891 0 8.625 0 8.90625C0 9.48047 0.421875 9.92578 1.00781 9.92578C1.28906 9.92578 1.57031 9.83203 1.74609 9.64453L4.41797 7.01953L8.61328 2.41406L7.95703 2.17969L7.83984 5.67188V21.1055C7.83984 21.7148 8.27344 22.1367 8.88281 22.1367Z" fill="black" fill-opacity="0.85"/>
</svg>
