<svg width="24" height="24" viewBox="0 0 24 24" fill="none" xmlns="http://www.w3.org/2000/svg">
<path d="M11.9531 23.9062C18.4922 23.9062 23.9062 18.4805 23.9062 11.9531C23.9062 5.41406 18.4805 0 11.9414 0C5.41406 0 0 5.41406 0 11.9531C0 18.4805 5.42578 23.9062 11.9531 23.9062Z" fill="#FFCC00"/>
<path d="M8.15625 8.95312C8.69531 8.95312 9.04688 9.31641 9.04688 9.90234V11.9766L8.87109 13.8633L10.6172 12L15.0352 7.57031C15.2109 7.39453 15.4453 7.28906 15.7383 7.28906C16.2656 7.28906 16.6289 7.64062 16.6289 8.19141C16.6289 8.42578 16.5117 8.67188 16.3359 8.84766L11.8945 13.2656L10.0078 15.0352L11.8008 14.8477H13.9805C14.5664 14.8477 14.9414 15.1992 14.9414 15.7266C14.9414 16.2656 14.5781 16.6172 14.0039 16.6172H8.28516C7.66406 16.6172 7.26562 16.3359 7.26562 15.6211V9.92578C7.26562 9.35156 7.62891 8.95312 8.15625 8.95312Z" fill="black" fill-opacity="0.85"/>
</svg>
