<svg width="24" height="24" viewBox="0 0 24 24" fill="none" xmlns="http://www.w3.org/2000/svg">
<path d="M11.9531 23.9062C18.4922 23.9062 23.9062 18.4805 23.9062 11.9531C23.9062 5.41406 18.4805 0 11.9414 0C5.41406 0 0 5.41406 0 11.9531C0 18.4805 5.42578 23.9062 11.9531 23.9062ZM11.9531 21.9141C6.42188 21.9141 2.00391 17.4844 2.00391 11.9531C2.00391 6.42188 6.41016 1.99219 11.9414 1.99219C17.4727 1.99219 21.9141 6.42188 21.9141 11.9531C21.9141 17.4844 17.4844 21.9141 11.9531 21.9141Z" fill="#007AFF"/>
<path d="M9.28125 16.7695C9.70312 16.7695 9.99609 16.5 9.99609 16.2422V15.9375L6.14062 12.3984C5.76562 12.0469 5.56641 11.6133 5.56641 11.1562C5.56641 10.6992 5.75391 10.2773 6.14062 9.92578L9.99609 6.39844V6.10547C9.99609 5.8125 9.70312 5.55469 9.26953 5.55469C8.97656 5.55469 8.77734 5.67188 8.46094 5.97656L3.62109 10.5117C3.38672 10.7344 3.31641 10.9453 3.31641 11.1562C3.31641 11.3672 3.38672 11.5898 3.62109 11.8125L8.46094 16.3594C8.76562 16.6406 8.98828 16.7695 9.28125 16.7695ZM12.375 16.7695C12.7734 16.7695 13.0781 16.4648 13.0781 16.043V13.6992H13.2656C15.6445 13.6992 17.1797 14.3086 18.2109 16.3125C18.4102 16.6875 18.6914 16.7695 18.9609 16.7695C19.3008 16.7695 19.582 16.4766 19.582 15.9609C19.582 11.4141 17.6367 8.63672 13.2656 8.63672H13.0781V6.30469C13.0781 5.89453 12.7734 5.55469 12.3633 5.55469C12.0703 5.55469 11.8711 5.68359 11.5547 5.97656L6.72656 10.5117C6.48047 10.7461 6.39844 10.9453 6.39844 11.1562C6.39844 11.3672 6.48047 11.5781 6.72656 11.8125L11.5547 16.3594C11.8477 16.6406 12.0938 16.7695 12.375 16.7695Z" fill="black" fill-opacity="0.85"/>
</svg>
