<svg width="22" height="22" viewBox="0 0 22 22" fill="none" xmlns="http://www.w3.org/2000/svg">
<path d="M3.67969 21.5977H17.8945C20.3555 21.5977 21.5742 20.3789 21.5742 17.9648V3.65625C21.5742 1.24219 20.3555 0.0234375 17.8945 0.0234375H3.67969C1.23047 0.0234375 0 1.23047 0 3.65625V17.9648C0 20.3906 1.23047 21.5977 3.67969 21.5977ZM3.70312 19.7109C2.53125 19.7109 1.88672 19.0898 1.88672 17.8711V3.75C1.88672 2.53125 2.53125 1.91016 3.70312 1.91016H17.8711C19.0312 1.91016 19.6875 2.53125 19.6875 3.75V17.8711C19.6875 19.0898 19.0312 19.7109 17.8711 19.7109H3.70312Z" fill="#007AFF"/>
<path d="M4.04297 11.8008C4.04297 12.2344 4.41797 12.6094 4.83984 12.5977L8.96484 12.5508C9.17578 12.5391 9.38672 12.457 9.50391 12.3164C9.82031 12.0117 9.82031 11.5781 9.51562 11.2734C9.36328 11.1211 9.17578 11.0508 8.97656 11.0508L7.24219 11.0742L6.57422 11.0977L6.99609 10.7227L12.3633 5.34375C12.668 5.03906 12.6797 4.58203 12.3633 4.26562C12.0703 3.96094 11.6016 3.96094 11.2852 4.26562L5.91797 9.64453L5.54297 10.043L5.57812 9.41016L5.60156 7.66406C5.61328 7.46484 5.51953 7.26562 5.37891 7.125C5.0625 6.80859 4.61719 6.80859 4.3125 7.125C4.18359 7.26562 4.08984 7.48828 4.08984 7.6875L4.04297 11.8008ZM17.5547 9.79688C17.5547 9.35156 17.2031 9.02344 16.7695 9.02344L12.6445 9.05859C12.457 9.05859 12.2344 9.15234 12.1055 9.28125C11.7891 9.60938 11.7891 10.043 12.0938 10.3477C12.2461 10.4883 12.4336 10.5703 12.6211 10.5703L14.3789 10.5352L15.0469 10.5117L14.625 10.875L9.24609 16.2656C8.92969 16.5703 8.92969 17.0156 9.24609 17.332C9.55078 17.6367 10.0078 17.6484 10.3125 17.332L15.6914 11.9648L16.0898 11.543L16.043 12.1992L16.0195 13.9453C16.0195 14.1445 16.0898 14.332 16.2305 14.4844C16.5352 14.7891 16.9922 14.7891 17.3086 14.4844C17.4258 14.3555 17.4961 14.1445 17.5078 13.9336L17.5547 9.79688Z" fill="black" fill-opacity="0.85"/>
</svg>
