<svg width="22" height="26" viewBox="0 0 22 26" fill="none" xmlns="http://www.w3.org/2000/svg">
<path d="M10.7461 25.2773C11.1445 25.2773 11.5898 25.125 12.0117 24.6797L20.6602 15.4336C21.2461 14.8125 21.5039 14.4258 21.5039 13.8516C21.5039 13.0312 20.8477 12.4453 20.0625 12.4453H15.6328V2.94141C15.6328 1.07812 14.5781 0.0117188 12.7617 0.0117188H8.71875C6.90234 0.0117188 5.84766 1.07812 5.84766 2.94141V12.4453H1.37109C0.585938 12.4453 0 13.0312 0 13.8281C0 14.4023 0.234375 14.8711 0.761719 15.4336L9.49219 24.6797C9.91406 25.125 10.3594 25.2773 10.7461 25.2773ZM10.7461 23.168C10.6758 23.168 10.6172 23.1445 10.5234 23.0508L2.625 14.6953C2.55469 14.625 2.51953 14.5664 2.51953 14.4961C2.51953 14.4023 2.58984 14.332 2.69531 14.332H7.23047C7.5 14.332 7.61719 14.2148 7.61719 13.9453V2.96484C7.61719 2.21484 8.05078 1.78125 8.8125 1.78125H12.6797C13.4414 1.78125 13.8633 2.21484 13.8633 2.96484V13.9453C13.8633 14.2148 13.9805 14.332 14.25 14.332H18.9023C19.0078 14.332 19.0664 14.4023 19.0664 14.4961C19.0664 14.5781 19.0312 14.6484 18.9727 14.707L10.9688 23.0508C10.8867 23.1328 10.8164 23.168 10.7461 23.168Z" fill="black" fill-opacity="0.85"/>
</svg>
