<svg width="24" height="24" viewBox="0 0 24 24" fill="none" xmlns="http://www.w3.org/2000/svg">
<path d="M11.9531 23.9062C18.4922 23.9062 23.9062 18.4805 23.9062 11.9531C23.9062 5.41406 18.4805 0 11.9414 0C5.41406 0 0 5.41406 0 11.9531C0 18.4805 5.42578 23.9062 11.9531 23.9062ZM11.9531 21.9141C6.42188 21.9141 2.00391 17.4844 2.00391 11.9531C2.00391 6.42188 6.41016 1.99219 11.9414 1.99219C17.4727 1.99219 21.9141 6.42188 21.9141 11.9531C21.9141 17.4844 17.4844 21.9141 11.9531 21.9141Z" fill="#007AFF"/>
<path d="M6.76082 11.8008H10.8272C11.4366 11.8008 11.7882 11.5312 11.7882 10.8281V6.75002C11.7882 6.29299 11.4249 5.92971 10.9679 5.92971C10.5108 5.92971 10.1358 6.29299 10.1358 6.75002V7.32424L10.2647 9.1758L7.20613 6.00002C6.86629 5.63674 6.30379 5.63674 5.96394 5.9883C5.6241 6.32814 5.63582 6.89064 5.97566 7.23049L9.13972 10.2656L7.34676 10.1484H6.76082C6.30379 10.1484 5.94051 10.5117 5.94051 10.9688C5.94051 11.4258 6.30379 11.8008 6.76082 11.8008ZM12.9132 17.9648C13.3702 17.9648 13.7335 17.6016 13.7335 17.1445V16.5703L13.6163 14.7188L16.6749 17.8945C17.0147 18.2578 17.5772 18.2578 17.9171 17.9062C18.2569 17.5664 18.2452 16.9922 17.9053 16.6641L14.7413 13.6289L16.5343 13.7461H17.1085C17.5655 13.7461 17.9405 13.3828 17.9405 12.9258C17.9405 12.457 17.5655 12.0938 17.1085 12.0938H13.0538C12.4444 12.0938 12.0811 12.3633 12.0811 13.0547V17.1445C12.0811 17.6016 12.4561 17.9648 12.9132 17.9648Z" fill="black" fill-opacity="0.85"/>
</svg>
