<svg width="24" height="24" viewBox="0 0 24 24" fill="none" xmlns="http://www.w3.org/2000/svg">
<path d="M11.9531 23.9062C18.4922 23.9062 23.9062 18.4805 23.9062 11.9531C23.9062 5.41406 18.4805 0 11.9414 0C5.41406 0 0 5.41406 0 11.9531C0 18.4805 5.42578 23.9062 11.9531 23.9062ZM11.9531 21.9141C6.42188 21.9141 2.00391 17.4844 2.00391 11.9531C2.00391 6.42188 6.41016 1.99219 11.9414 1.99219C17.4727 1.99219 21.9141 6.42188 21.9141 11.9531C21.9141 17.4844 17.4844 21.9141 11.9531 21.9141Z" fill="#007AFF"/>
<path d="M10.3008 17.9883C13.125 17.9883 14.8359 15.9609 14.8359 13.2188V9.72656L14.7891 8.33203L15.5156 9.26953L16.6875 10.4766C16.8398 10.6289 17.0508 10.7461 17.2969 10.7461C17.7773 10.7461 18.1523 10.3711 18.1523 9.90234C18.1523 9.65625 18.0703 9.45703 17.8945 9.29297L14.7305 6.1875C14.543 5.98828 14.2852 5.87109 14.0156 5.87109C13.7461 5.87109 13.5 5.98828 13.3125 6.1875L10.1133 9.30469C9.94922 9.46875 9.86719 9.66797 9.86719 9.91406C9.86719 10.3711 10.2422 10.7461 10.7227 10.7461C10.9453 10.7461 11.168 10.6523 11.332 10.4883L12.7383 9.02344L13.2422 8.33203L13.1953 9.72656V13.2188C13.1953 14.9414 12.1992 16.2656 10.3945 16.2656C8.55469 16.2656 7.40625 14.9766 7.40625 13.207C7.40625 13.0781 7.40625 11.625 7.40625 11.5781C7.40625 11.0859 7.11328 10.6992 6.57422 10.6992C6.03516 10.6992 5.73047 11.0859 5.73047 11.6016C5.73047 11.6602 5.73047 13.0781 5.73047 13.207C5.73047 15.9492 7.48828 17.9883 10.3008 17.9883Z" fill="black" fill-opacity="0.85"/>
</svg>
