<svg width="32" height="25" viewBox="0 0 32 25" fill="none" xmlns="http://www.w3.org/2000/svg">
<path d="M15.9141 24.5273C16.3711 24.5273 16.7812 24.1641 16.7812 23.707V0.832031C16.7812 0.375 16.3711 0.0234375 15.9141 0.0234375C15.457 0.0234375 15.0586 0.375 15.0586 0.832031V23.707C15.0586 24.1641 15.457 24.5273 15.9141 24.5273ZM1.67578 18.9961L11.5898 13.2539C12.2695 12.8438 12.2578 11.7656 11.5898 11.3789L1.67578 5.56641C0.9375 5.13281 0 5.60156 0 6.42188V18.1875C0 18.9961 0.925781 19.4297 1.67578 18.9961ZM30.1641 18.9961C30.9141 19.4297 31.8281 18.9961 31.8281 18.1875V6.42188C31.8281 5.60156 30.9023 5.13281 30.1641 5.56641L20.25 11.3789C19.582 11.7656 19.5586 12.8438 20.25 13.2539L30.1641 18.9961Z" fill="black" fill-opacity="0.85"/>
</svg>
