<svg width="28" height="22" viewBox="0 0 28 22" fill="none" xmlns="http://www.w3.org/2000/svg">
<path d="M3.67969 21.5742H23.9531C26.4141 21.5742 27.6328 20.3672 27.6328 17.9531V3.63281C27.6328 1.21875 26.4141 0 23.9531 0H3.67969C1.23047 0 0 1.21875 0 3.63281V17.9531C0 20.3672 1.23047 21.5742 3.67969 21.5742Z" fill="#FFCC00"/>
<path d="M16.5469 12.082C15.9258 12.082 15.5391 11.8008 15.5391 11.0742V5.55469C15.5391 4.98047 15.8906 4.58203 16.418 4.58203C16.957 4.58203 17.3086 4.94531 17.3086 5.53125V7.44141L17.1328 9.32812L18.8789 7.46484L22.5 3.83203C22.6758 3.65625 22.8984 3.55078 23.2031 3.55078C23.7305 3.55078 24.082 3.91406 24.082 4.46484C24.082 4.69922 23.9648 4.93359 23.7891 5.09766L20.1562 8.73047L18.2695 10.5L20.0625 10.3125H22.0898C22.6641 10.3125 23.0391 10.6641 23.0391 11.1914C23.0391 11.7305 22.6758 12.082 22.1133 12.082H16.5469Z" fill="black" fill-opacity="0.85"/>
</svg>
