<svg width="28" height="22" viewBox="0 0 28 22" fill="none" xmlns="http://www.w3.org/2000/svg">
<path d="M3.67969 21.5742H23.9531C26.4141 21.5742 27.6328 20.3672 27.6328 17.9531V3.63281C27.6328 1.21875 26.4141 0 23.9531 0H3.67969C1.23047 0 0 1.21875 0 3.63281V17.9531C0 20.3672 1.23047 21.5742 3.67969 21.5742ZM3.70312 19.6875C2.53125 19.6875 1.88672 19.0664 1.88672 17.8477V3.73828C1.88672 2.51953 2.53125 1.88672 3.70312 1.88672H23.9297C25.0898 1.88672 25.7461 2.51953 25.7461 3.73828V17.8477C25.7461 19.0664 25.0898 19.6875 23.9297 19.6875H3.70312Z" fill="#007AFF"/>
<path d="M11.1094 16.8984C11.625 16.8984 11.9766 16.5 11.9766 15.9609V10.5938C11.9766 9.90234 11.5898 9.63281 10.9922 9.63281H5.60156C5.05078 9.63281 4.69922 9.97266 4.69922 10.4883C4.69922 11.0039 5.0625 11.3438 5.625 11.3438H7.59375L9.32812 11.1562L7.5 12.8555L3.96094 16.3945C3.79688 16.5586 3.67969 16.793 3.67969 17.0273C3.67969 17.5547 4.01953 17.8945 4.54688 17.8945C4.82812 17.8945 5.03906 17.7891 5.20312 17.625L8.74219 14.0977L10.4297 12.293L10.2539 14.1094V15.9844C10.2539 16.5352 10.5938 16.8984 11.1094 16.8984Z" fill="black" fill-opacity="0.85"/>
</svg>
