<svg width="22" height="22" viewBox="0 0 22 22" fill="none" xmlns="http://www.w3.org/2000/svg">
<path d="M3.67969 21.5977H17.8945C20.3555 21.5977 21.5742 20.3789 21.5742 17.9648V3.65625C21.5742 1.24219 20.3555 0.0234375 17.8945 0.0234375H3.67969C1.23047 0.0234375 0 1.23047 0 3.65625V17.9648C0 20.3906 1.23047 21.5977 3.67969 21.5977Z" fill="#FFCC00"/>
<path d="M5.13183 6.59766L8.16699 3.65625C8.31933 3.49219 8.54199 3.39844 8.74121 3.39844C9.18652 3.39844 9.51464 3.71484 9.51464 4.17188C9.51464 4.38281 9.43261 4.58203 9.28027 4.73438L8.01464 5.97656L7.52246 6.41016L8.08496 6.39844H15.9013C16.3584 6.39844 16.6865 6.72656 16.6865 7.18359C16.6865 7.62891 16.3467 7.98047 15.9013 7.98047H8.07324L7.51074 7.94531L8.01464 8.41406L9.28027 9.64453C9.43261 9.79688 9.51464 9.98438 9.51464 10.207C9.51464 10.6523 9.18652 10.9688 8.74121 10.9688C8.54199 10.9688 8.33105 10.875 8.16699 10.7461L5.13183 7.76953C4.81543 7.46484 4.81543 6.91406 5.13183 6.59766ZM16.4287 15L13.4052 17.9766C13.2412 18.1289 13.0185 18.2227 12.831 18.2227C12.3974 18.2227 12.0576 17.8945 12.0576 17.4492C12.0576 17.2266 12.1513 17.0508 12.3037 16.8867L13.5693 15.6445L14.0732 15.2109L13.4873 15.2227H5.6709C5.22558 15.2227 4.89746 14.8828 4.89746 14.4258C4.89746 13.9688 5.2373 13.6406 5.6709 13.6406H13.499L14.0732 13.6758L13.5693 13.207L12.2802 11.9766C12.1396 11.8242 12.0576 11.6367 12.0576 11.4141C12.0576 10.9688 12.374 10.6523 12.831 10.6523C13.042 10.6523 13.2646 10.7461 13.4052 10.8867L16.4287 13.8633C16.7451 14.1797 16.7685 14.6719 16.4287 15Z" fill="black" fill-opacity="0.85"/>
</svg>
