<svg width="22" height="22" viewBox="0 0 22 22" fill="none" xmlns="http://www.w3.org/2000/svg">
<path d="M3.67969 21.5742H17.8945C20.3555 21.5742 21.5742 20.3555 21.5742 17.9414V3.63281C21.5742 1.21875 20.3555 0 17.8945 0H3.67969C1.23047 0 0 1.20703 0 3.63281V17.9414C0 20.3672 1.23047 21.5742 3.67969 21.5742Z" fill="#FFCC00"/>
<path d="M9.5625 16.6172C6.77344 16.6172 4.93359 14.7188 4.93359 11.8828V10.3125C4.93359 9.75 5.28516 9.375 5.8125 9.375C6.32812 9.375 6.67969 9.73828 6.67969 10.2891V11.8828C6.67969 13.6641 7.83984 14.8711 9.5625 14.8711C11.168 14.8711 12.2344 13.6875 12.2344 11.8945V8.47266L12.293 7.27734L11.8945 7.82812L10.5234 9.24609C10.3594 9.42188 10.1367 9.51562 9.87891 9.51562C9.375 9.51562 8.98828 9.14062 8.98828 8.66016C8.98828 8.39062 9.07031 8.17969 9.24609 8.01562L12.375 4.94531C12.5977 4.72266 12.8555 4.62891 13.125 4.62891C13.3828 4.62891 13.6406 4.73438 13.8633 4.94531L16.9688 8.00391C17.1445 8.17969 17.2383 8.37891 17.2383 8.64844C17.2383 9.14062 16.8398 9.51562 16.3359 9.51562C16.0898 9.51562 15.8672 9.42188 15.7031 9.24609L14.5547 8.0625L13.9336 7.26562L13.9805 8.47266V11.8945C13.9805 14.7305 12.2227 16.6172 9.5625 16.6172Z" fill="black" fill-opacity="0.85"/>
</svg>
