<svg width="24" height="24" viewBox="0 0 24 24" fill="none" xmlns="http://www.w3.org/2000/svg">
<path d="M11.9531 23.918C18.4922 23.918 23.9062 18.5039 23.9062 11.9648C23.9062 5.4375 18.4805 0.0117188 11.9414 0.0117188C5.41406 0.0117188 0 5.4375 0 11.9648C0 18.5039 5.42578 23.918 11.9531 23.918Z" fill="#FFCC00"/>
<path d="M11.9531 4.58203C12.1758 4.58203 12.4219 4.66406 12.668 4.92188L17.5078 10.1133C17.8359 10.4648 17.9766 10.6641 17.9766 10.9805C17.9766 11.4492 17.6133 11.7773 17.1797 11.7773H14.543V17.2383C14.543 18.1992 13.9922 18.75 13.0664 18.75H10.8281C9.90234 18.75 9.36328 18.1992 9.36328 17.2383V11.7773H6.70312C6.24609 11.7773 5.92969 11.4492 5.92969 11.0039C5.92969 10.6758 6.07031 10.4297 6.35156 10.1133L11.25 4.92188C11.4844 4.66406 11.7422 4.58203 11.9531 4.58203Z" fill="black" fill-opacity="0.85"/>
</svg>
