<svg width="30" height="23" viewBox="0 0 30 23" fill="none" xmlns="http://www.w3.org/2000/svg">
<path d="M23.1562 20.3672C26.6953 20.3672 29.4609 17.7773 29.4609 14.5547C29.4609 12.0938 28.043 9.96094 25.7578 9C25.7812 3.77344 22.0195 0 17.2266 0C14.0508 0 11.7891 1.69922 10.3828 3.75C7.5 2.90625 4.35938 5.09766 4.30078 8.37891C1.65234 8.80078 0 11.168 0 14.0273C0 17.4727 3.01172 20.3672 7.01953 20.3672H23.1562Z" fill="#FFCC00"/>
<path d="M15.2812 16.5704C12.5859 16.5704 10.418 14.3907 10.418 11.6485C10.418 9.22272 12.2461 7.26568 14.4141 6.92584V5.68365C14.4141 5.15631 14.9766 4.95709 15.3867 5.28522L17.625 7.19537C17.9766 7.50006 18 7.99225 17.625 8.32037L15.3867 10.254C14.9766 10.6056 14.4141 10.3946 14.4141 9.87897V8.44928C12.9844 8.836 11.9297 10.1251 11.9297 11.6837C11.9297 13.5587 13.418 15.0704 15.2812 15.0704C17.1562 15.0704 18.6445 13.5587 18.6445 11.6837C18.6445 11.2853 18.9844 10.9454 19.4062 10.9454C19.8047 10.9454 20.1562 11.2853 20.1562 11.6837C20.1562 14.3907 17.9883 16.5704 15.2812 16.5704Z" fill="black" fill-opacity="0.85"/>
</svg>
