<svg width="22" height="22" viewBox="0 0 22 22" fill="none" xmlns="http://www.w3.org/2000/svg">
<path d="M3.67969 21.5742H17.8945C20.3555 21.5742 21.5742 20.3555 21.5742 17.9414V3.63281C21.5742 1.21875 20.3555 0 17.8945 0H3.67969C1.23047 0 0 1.20703 0 3.63281V17.9414C0 20.3672 1.23047 21.5742 3.67969 21.5742Z" fill="#FFCC00"/>
<path d="M4.78125 12.082C4.78125 9.42188 6.66797 7.66406 9.50391 7.66406H12.9258L14.1328 7.72266L13.3359 7.08984L12.1523 5.94141C11.9766 5.78906 11.8828 5.55469 11.8828 5.32031C11.8828 4.80469 12.2461 4.41797 12.75 4.41797C13.0195 4.41797 13.2188 4.5 13.3945 4.67578L16.4531 7.78125C16.6641 8.00391 16.7695 8.26172 16.7695 8.53125C16.7695 8.78906 16.6758 9.04688 16.4531 9.26953L13.3828 12.4102C13.2188 12.5742 13.0078 12.668 12.7383 12.668C12.2578 12.668 11.8828 12.2695 11.8828 11.7656C11.8828 11.5078 11.9766 11.2969 12.1523 11.1211L13.5703 9.75L14.1211 9.36328L12.9258 9.41016H9.50391C7.71094 9.41016 6.52734 10.4766 6.52734 12.082C6.52734 13.8164 7.73438 14.9648 9.51562 14.9648H11.1094C11.6602 14.9648 12.0234 15.3164 12.0234 15.832C12.0234 16.3594 11.6484 16.7109 11.0859 16.7109H9.51562C6.67969 16.7109 4.78125 14.8828 4.78125 12.082Z" fill="black" fill-opacity="0.85"/>
</svg>
