<svg width="24" height="25" viewBox="0 0 24 25" fill="none" xmlns="http://www.w3.org/2000/svg">
<path d="M11.9531 23.9062C18.4922 23.9062 23.9062 18.4922 23.9062 11.9531C23.9062 5.42578 18.4805 0 11.9414 0C5.41406 0 0 5.42578 0 11.9531C0 18.4922 5.42578 23.9062 11.9531 23.9062Z" fill="#FFCC00"/>
<path d="M5.94141 13.2773C5.94141 10.6172 7.82812 8.85938 10.6523 8.85938H14.0859L15.293 8.90625L14.4961 8.28516L13.3125 7.13672C13.1367 6.97266 13.0312 6.75 13.0312 6.50391C13.0312 6 13.4062 5.60156 13.9102 5.60156C14.1797 5.60156 14.3789 5.69531 14.5547 5.87109L17.6133 8.97656C17.8242 9.1875 17.9297 9.45703 17.9297 9.71484C17.9297 9.98438 17.8359 10.2422 17.6133 10.4531L14.543 13.5938C14.3789 13.7578 14.168 13.8516 13.8984 13.8516C13.418 13.8516 13.0312 13.4531 13.0312 12.9492C13.0312 12.7031 13.1367 12.4805 13.3125 12.3047L14.7305 10.9453L15.2812 10.5469L14.0859 10.6055H10.6523C8.87109 10.6055 7.6875 11.6719 7.6875 13.2773C7.6875 15 8.89453 16.1484 10.6641 16.1484H12.2695C12.8203 16.1484 13.1836 16.5117 13.1836 17.0273C13.1836 17.5547 12.8086 17.8945 12.2461 17.8945H10.6641C7.83984 17.8945 5.94141 16.0664 5.94141 13.2773Z" fill="black" fill-opacity="0.85"/>
</svg>
