<svg width="22" height="22" viewBox="0 0 22 22" fill="none" xmlns="http://www.w3.org/2000/svg">
<path d="M3.67969 21.5742H17.8945C20.3555 21.5742 21.5742 20.3555 21.5742 17.9414V3.63281C21.5742 1.21875 20.3555 0 17.8945 0H3.67969C1.23047 0 0 1.20703 0 3.63281V17.9414C0 20.3672 1.23047 21.5742 3.67969 21.5742Z" fill="#FFCC00"/>
<path d="M12.0586 4.62891C14.8594 4.62891 16.6875 6.52734 16.6875 9.35156V10.9336C16.6875 11.4961 16.3359 11.8711 15.8203 11.8711C15.293 11.8711 14.9414 11.5078 14.9414 10.957V9.35156C14.9414 7.58203 13.793 6.375 12.0586 6.375C10.4531 6.375 9.38672 7.55859 9.38672 9.33984V12.7734L9.33984 13.9688L9.72656 13.418L11.0977 12C11.2617 11.8242 11.4844 11.7188 11.7422 11.7188C12.2461 11.7188 12.6445 12.1055 12.6445 12.5859C12.6445 12.8555 12.5508 13.0664 12.3867 13.2305L9.24609 16.3008C9.02344 16.5234 8.76562 16.6172 8.50781 16.6172C8.23828 16.6172 7.98047 16.5117 7.75781 16.3008L4.65234 13.2422C4.47656 13.0664 4.39453 12.8672 4.39453 12.5977C4.39453 12.1055 4.79297 11.7188 5.29688 11.7188C5.53125 11.7188 5.76562 11.8242 5.91797 12L7.06641 13.1836L7.69922 13.9805L7.64062 12.7734V9.33984C7.64062 6.51562 9.41016 4.62891 12.0586 4.62891Z" fill="black" fill-opacity="0.85"/>
</svg>
