<svg width="28" height="22" viewBox="0 0 28 22" fill="none" xmlns="http://www.w3.org/2000/svg">
<path d="M3.67969 21.5742H23.9531C26.4141 21.5742 27.6328 20.3672 27.6328 17.9531V3.63281C27.6328 1.21875 26.4141 0 23.9531 0H3.67969C1.23047 0 0 1.21875 0 3.63281V17.9531C0 20.3672 1.23047 21.5742 3.67969 21.5742Z" fill="#FFCC00"/>
<path d="M11.2148 17.0039C10.6758 17.0039 10.3242 16.6289 10.3242 16.0547V14.1328L10.5 12.2578L8.75391 14.1211L5.13281 17.7422C4.95703 17.918 4.73438 18.0234 4.44141 18.0234C3.90234 18.0234 3.55078 17.6719 3.55078 17.1211C3.55078 16.8867 3.66797 16.6406 3.84375 16.4648L7.47656 12.8438L9.36328 11.0859L7.57031 11.2734H5.55469C4.96875 11.2734 4.59375 10.9219 4.59375 10.3828C4.59375 9.85547 4.95703 9.50391 5.53125 9.50391H11.0859C11.707 9.50391 12.1055 9.78516 12.1055 10.5V16.0312C12.1055 16.5938 11.7422 17.0039 11.2148 17.0039Z" fill="black" fill-opacity="0.85"/>
</svg>
