<svg width="22" height="22" viewBox="0 0 22 22" fill="none" xmlns="http://www.w3.org/2000/svg">
<path d="M3.67969 21.5977H17.8945C20.3555 21.5977 21.5742 20.3789 21.5742 17.9648V3.65625C21.5742 1.24219 20.3555 0.0234375 17.8945 0.0234375H3.67969C1.23047 0.0234375 0 1.23047 0 3.65625V17.9648C0 20.3906 1.23047 21.5977 3.67969 21.5977Z" fill="#FFCC00"/>
<path d="M17.0156 10.7812C17.0156 11.0508 16.8984 11.2617 16.6641 11.4844L12.5859 15.5742C12.4219 15.7383 12.2109 15.832 11.9531 15.832C11.4492 15.832 11.0742 15.4453 11.0742 14.9414C11.0742 14.6836 11.1797 14.4609 11.3438 14.2969L12.8555 12.8086L14.3086 11.5898L11.7539 11.6836H5.47266C4.94531 11.6836 4.57031 11.3086 4.57031 10.7812C4.57031 10.2422 4.94531 9.86719 5.47266 9.86719H11.7539L14.3086 9.97266L12.8555 8.75391L11.3438 7.26562C11.1914 7.08984 11.0742 6.86719 11.0742 6.60938C11.0742 6.10547 11.4492 5.73047 11.9531 5.73047C12.2109 5.73047 12.4219 5.8125 12.5859 5.97656L16.6641 10.0781C16.9102 10.3242 17.0156 10.5117 17.0156 10.7812Z" fill="black" fill-opacity="0.85"/>
</svg>
