<svg width="24" height="24" viewBox="0 0 24 24" fill="none" xmlns="http://www.w3.org/2000/svg">
<path d="M11.9531 23.9062C18.4922 23.9062 23.9062 18.4805 23.9062 11.9531C23.9062 5.41406 18.4805 0 11.9414 0C5.41406 0 0 5.41406 0 11.9531C0 18.4805 5.42578 23.9062 11.9531 23.9062ZM11.9531 21.9141C6.42188 21.9141 2.00391 17.4844 2.00391 11.9531C2.00391 6.42188 6.41016 1.99219 11.9414 1.99219C17.4727 1.99219 21.9141 6.42188 21.9141 11.9531C21.9141 17.4844 17.4844 21.9141 11.9531 21.9141Z" fill="#007AFF"/>
<path d="M7.21828 12.5859L13.8862 16.5352C14.437 16.8633 15.0581 16.5938 15.0581 16.0312V7.88674C15.0581 7.31252 14.3901 7.07814 13.8862 7.38283L7.21828 11.332C6.72609 11.6133 6.71437 12.3047 7.21828 12.5859Z" fill="black" fill-opacity="0.85"/>
</svg>
