<svg width="13" height="24" viewBox="0 0 13 24" fill="none" xmlns="http://www.w3.org/2000/svg">
<path d="M3.52892 22.6421C4.18517 22.6421 4.54846 22.2554 4.54846 21.5874V12.5288H3.68127C4.65392 15.3413 7.44299 17.6616 11.1695 18.9038C11.8375 19.1499 12.3766 18.8101 12.5641 18.353C12.775 17.896 12.6227 17.3218 11.9547 17.0171C7.60705 15.2359 4.54846 12.4702 4.54846 8.21632V3.84523H2.49767V21.5874C2.49767 22.2554 2.86096 22.6421 3.52892 22.6421ZM0.833612 5.35695H6.21252C7.04455 5.35695 7.25549 4.78273 6.81017 4.1382L4.18517 0.399914C3.81017 -0.127429 3.24767 -0.139148 2.86096 0.399914L0.235956 4.12648C-0.221075 4.78273 -0.0101376 5.35695 0.833612 5.35695Z" fill="black" fill-opacity="0.85"/>
</svg>
