<svg width="23" height="22" viewBox="0 0 23 22" fill="none" xmlns="http://www.w3.org/2000/svg">
<path d="M2.47424 15.6812H4.57189V5.97804C4.57189 3.9507 5.80236 2.67335 7.48986 2.67335C9.18908 2.67335 10.4547 3.92726 10.4547 5.97804V14.0054C10.4547 17.4038 12.5758 19.5601 15.5055 19.5601C18.4235 19.5601 20.5211 17.4038 20.5211 14.0054V4.39601H18.4235V14.1694C18.4235 16.1851 17.193 17.4624 15.5055 17.4624C13.8063 17.4624 12.5406 16.2085 12.5406 14.1694V6.1421C12.5406 2.74366 10.4195 0.587414 7.48986 0.587414C4.57189 0.587414 2.47424 2.74366 2.47424 6.1421V15.6812ZM0.833612 14.7905C-0.0101376 14.7905 -0.221075 15.3648 0.235956 16.0093L2.86096 19.7359C3.24767 20.2866 3.81017 20.2749 4.18517 19.7359L6.81017 15.9976C7.25549 15.3648 7.04455 14.7905 6.21252 14.7905H0.833612ZM16.7945 5.35695H22.1617C22.9938 5.35695 23.2164 4.78273 22.7594 4.1382L20.1461 0.399914C19.7711 -0.127429 19.2086 -0.139148 18.8219 0.399914L16.1969 4.12648C15.7281 4.78273 15.9508 5.35695 16.7945 5.35695Z" fill="black" fill-opacity="0.85"/>
</svg>
