<svg width="24" height="24" viewBox="0 0 24 24" fill="none" xmlns="http://www.w3.org/2000/svg">
<path d="M11.9531 23.9062C18.4922 23.9062 23.9062 18.4805 23.9062 11.9531C23.9062 5.41406 18.4805 0 11.9414 0C5.41406 0 0 5.41406 0 11.9531C0 18.4805 5.42578 23.9062 11.9531 23.9062ZM11.9531 21.9141C6.42188 21.9141 2.00391 17.4844 2.00391 11.9531C2.00391 6.42188 6.41016 1.99219 11.9414 1.99219C17.4727 1.99219 21.9141 6.42188 21.9141 11.9531C21.9141 17.4844 17.4844 21.9141 11.9531 21.9141Z" fill="#007AFF"/>
<path d="M4.78125 11.9531C4.78125 12.1523 4.86328 12.3984 5.10938 12.6328L10.1484 17.3906C10.4531 17.6602 10.6992 17.7891 11.0156 17.7891C11.4375 17.7891 11.7539 17.4844 11.7539 17.0508V14.4609H17.0625C17.9883 14.4609 18.5273 13.9453 18.5273 13.043V10.875C18.5273 9.96094 17.9883 9.44531 17.0625 9.44531H11.7539V6.87891C11.7539 6.45703 11.4375 6.11719 10.9922 6.11719C10.6875 6.11719 10.4883 6.24609 10.1484 6.5625L5.10938 11.2617C4.86328 11.4961 4.78125 11.7422 4.78125 11.9531Z" fill="black" fill-opacity="0.85"/>
</svg>
