<svg width="24" height="24" viewBox="0 0 24 24" fill="none" xmlns="http://www.w3.org/2000/svg">
<path d="M11.9531 23.918C18.4922 23.918 23.9062 18.5039 23.9062 11.9648C23.9062 5.4375 18.4805 0.0117188 11.9414 0.0117188C5.41406 0.0117188 0 5.4375 0 11.9648C0 18.5039 5.42578 23.918 11.9531 23.918Z" fill="#FFCC00"/>
<path d="M9.22266 16.957C8.91797 16.957 8.69531 16.8164 8.37891 16.5352L3.38672 11.8477C3.15234 11.6133 3.08203 11.3906 3.08203 11.1797C3.08203 10.9453 3.15234 10.7344 3.38672 10.5L8.37891 5.83594C8.70703 5.53125 8.90625 5.39062 9.21094 5.39062C9.66797 5.39062 9.96094 5.67188 9.96094 5.96484V6.25781L5.98828 9.90234C5.58984 10.2539 5.39062 10.7109 5.39062 11.1797C5.39062 11.6484 5.60156 12.0938 5.98828 12.4453L9.96094 16.1133V16.4062C9.96094 16.6875 9.66797 16.957 9.22266 16.957ZM12.4102 16.957C12.1289 16.957 11.8711 16.8164 11.5664 16.5352L6.58594 11.8477C6.33984 11.6016 6.26953 11.3906 6.26953 11.1797C6.26953 10.9453 6.33984 10.7461 6.58594 10.5L11.5664 5.83594C11.8945 5.53125 12.1055 5.39062 12.3984 5.39062C12.832 5.39062 13.1484 5.75391 13.1484 6.16406V8.56641H13.3359C17.8477 8.56641 19.8398 11.4375 19.8398 16.1133C19.8398 16.6523 19.5586 16.957 19.207 16.957C18.9258 16.957 18.6328 16.875 18.4219 16.4883C17.3555 14.4258 15.7852 13.8047 13.3359 13.8047H13.1484V16.207C13.1484 16.6523 12.832 16.957 12.4102 16.957Z" fill="black" fill-opacity="0.85"/>
</svg>
