<svg width="24" height="24" viewBox="0 0 24 24" fill="none" xmlns="http://www.w3.org/2000/svg">
<path d="M11.9531 23.9062C18.4922 23.9062 23.9062 18.4805 23.9062 11.9531C23.9062 5.41406 18.4805 0 11.9414 0C5.41406 0 0 5.41406 0 11.9531C0 18.4805 5.42578 23.9062 11.9531 23.9062ZM11.9531 21.9141C6.42188 21.9141 2.00391 17.4844 2.00391 11.9531C2.00391 6.42188 6.41016 1.99219 11.9414 1.99219C17.4727 1.99219 21.9141 6.42188 21.9141 11.9531C21.9141 17.4844 17.4844 21.9141 11.9531 21.9141Z" fill="#007AFF"/>
<path d="M8.26172 14.8594C8.77734 14.8594 9.11719 14.4961 9.11719 13.9453V11.918L8.94141 10.0898L10.6289 11.8945L14.9414 16.207C15.1055 16.3711 15.3281 16.4766 15.6094 16.4766C16.125 16.4766 16.4766 16.1367 16.4766 15.6094C16.4766 15.375 16.3594 15.1406 16.1953 14.9766L11.8711 10.6523L10.043 8.95312L11.7773 9.14062H13.9102C14.4727 9.14062 14.8359 8.80078 14.8359 8.28516C14.8359 7.76953 14.4844 7.42969 13.9336 7.42969H8.37891C7.78125 7.42969 7.39453 7.69922 7.39453 8.39062V13.9219C7.39453 14.4609 7.74609 14.8594 8.26172 14.8594Z" fill="black" fill-opacity="0.85"/>
</svg>
