<svg width="22" height="22" viewBox="0 0 22 22" fill="none" xmlns="http://www.w3.org/2000/svg">
<path d="M3.67969 21.5977H17.8945C20.3555 21.5977 21.5742 20.3789 21.5742 17.9648V3.65625C21.5742 1.24219 20.3555 0.0234375 17.8945 0.0234375H3.67969C1.23047 0.0234375 0 1.23047 0 3.65625V17.9648C0 20.3906 1.23047 21.5977 3.67969 21.5977Z" fill="#FFCC00"/>
<path d="M6.46875 5.15633C6.80859 4.81649 7.3125 4.83992 7.62891 5.15633L10.5938 8.19149C10.7344 8.33211 10.8398 8.55477 10.8398 8.75399C10.8398 9.21102 10.5117 9.53914 10.0664 9.53914C9.85547 9.53914 9.65625 9.45711 9.51562 9.31649L8.27344 8.0157L7.81641 7.52352L7.85156 8.09774V15.9259C7.85156 16.3595 7.51172 16.6876 7.04297 16.6876C6.59766 16.6876 6.26953 16.3595 6.26953 15.9259V8.10946L6.28125 7.52352L5.82422 8.0157L4.58203 9.29305C4.44141 9.44539 4.24219 9.53914 4.04297 9.53914C3.58594 9.53914 3.24609 9.1993 3.24609 8.75399C3.24609 8.5782 3.36328 8.35555 3.49219 8.19149L6.46875 5.15633ZM15.1289 16.4532C14.8125 16.7696 14.2617 16.7696 13.957 16.4532L10.9922 13.4298C10.8398 13.254 10.7578 13.0431 10.7578 12.8556C10.7578 12.3985 11.0625 12.0821 11.5195 12.0821C11.7422 12.0821 11.9297 12.1524 12.082 12.3165L13.3242 13.5821L13.7695 14.086L13.7461 13.5235V5.68367C13.7461 5.23836 14.0859 4.91024 14.543 4.91024C14.9883 4.91024 15.3281 5.23836 15.3281 5.68367V13.5118L15.3047 14.0743L15.7617 13.5821L17.0039 12.3165C17.1445 12.1759 17.3438 12.0821 17.5547 12.0821C18.0234 12.0821 18.3398 12.3985 18.3398 12.8556C18.3398 13.0548 18.2227 13.2657 18.082 13.4298L15.1289 16.4532Z" fill="black" fill-opacity="0.85"/>
</svg>
