<svg width="24" height="24" viewBox="0 0 24 24" fill="none" xmlns="http://www.w3.org/2000/svg">
<path d="M11.9531 23.9062C18.4922 23.9062 23.9062 18.4805 23.9062 11.9531C23.9062 5.41406 18.4805 0 11.9414 0C5.41406 0 0 5.41406 0 11.9531C0 18.4805 5.42578 23.9062 11.9531 23.9062ZM11.9531 21.9141C6.42188 21.9141 2.00391 17.4844 2.00391 11.9531C2.00391 6.42188 6.41016 1.99219 11.9414 1.99219C17.4727 1.99219 21.9141 6.42188 21.9141 11.9531C21.9141 17.4844 17.4844 21.9141 11.9531 21.9141Z" fill="#007AFF"/>
<path d="M5.17969 12.9609C5.17969 13.3945 5.56641 13.7695 5.98828 13.7578L10.1133 13.7109C10.3242 13.6992 10.5234 13.6172 10.6523 13.4766C10.9688 13.1719 10.9688 12.7383 10.6641 12.4336C10.5117 12.2812 10.3242 12.2109 10.125 12.2109L8.39062 12.2344L7.72266 12.2578L8.14453 11.8828L13.5117 6.50391C13.8164 6.19922 13.8281 5.74219 13.5117 5.42578C13.207 5.12109 12.75 5.12109 12.4336 5.42578L7.06641 10.8047L6.69141 11.2031L6.71484 10.5703L6.73828 8.82422C6.75 8.625 6.66797 8.42578 6.52734 8.28516C6.21094 7.96875 5.76562 7.96875 5.46094 8.28516C5.33203 8.42578 5.23828 8.64844 5.23828 8.84766L5.17969 12.9609ZM18.7031 10.957C18.7031 10.5117 18.3516 10.1836 17.918 10.1836L13.793 10.2188C13.6055 10.2188 13.3828 10.3125 13.2539 10.4414C12.9258 10.7695 12.9258 11.2031 13.2422 11.5078C13.3945 11.6484 13.5703 11.7305 13.7695 11.7305L15.5273 11.6953L16.1836 11.6719L15.7734 12.0352L10.3828 17.4258C10.0781 17.7305 10.0781 18.1758 10.3945 18.4922C10.6992 18.7969 11.1562 18.8086 11.4609 18.4922L16.8398 13.125L17.2383 12.7031L17.1914 13.3594L17.168 15.1055C17.168 15.3047 17.2383 15.4922 17.3789 15.6445C17.6836 15.9492 18.1289 15.9492 18.4453 15.6445C18.5742 15.5156 18.6445 15.3047 18.6562 15.0938L18.7031 10.957Z" fill="black" fill-opacity="0.85"/>
</svg>
