<svg width="24" height="24" viewBox="0 0 24 24" fill="none" xmlns="http://www.w3.org/2000/svg">
<path d="M11.9531 23.9062C18.4922 23.9062 23.9062 18.4805 23.9062 11.9531C23.9062 5.41406 18.4805 0 11.9414 0C5.41406 0 0 5.41406 0 11.9531C0 18.4805 5.42578 23.9062 11.9531 23.9062Z" fill="#FFCC00"/>
<path d="M6.292 7.75781L9.32715 4.81641C9.4795 4.65234 9.70215 4.55859 9.88965 4.55859C10.3467 4.55859 10.6748 4.875 10.6748 5.33203C10.6748 5.54297 10.5928 5.74219 10.4287 5.89453L9.16308 7.13672L8.68261 7.57031L9.24511 7.55859H17.0615C17.5185 7.55859 17.8467 7.88672 17.8467 8.34375C17.8467 8.78906 17.5068 9.14062 17.0615 9.14062H9.2334L8.6709 9.10547L9.16308 9.57422L10.4287 10.8047C10.5928 10.957 10.6748 11.1445 10.6748 11.3672C10.6748 11.8125 10.3467 12.1289 9.88965 12.1289C9.70215 12.1289 9.49121 12.0352 9.32715 11.9062L6.292 8.92969C5.97558 8.625 5.97558 8.07422 6.292 7.75781ZM17.5888 16.1602L14.5654 19.1367C14.3896 19.2891 14.1787 19.3828 13.9912 19.3828C13.5459 19.3828 13.2178 19.0547 13.2178 18.6094C13.2178 18.3867 13.3115 18.2109 13.4638 18.0469L14.7295 16.8047L15.2334 16.3711L14.6474 16.3828H6.81933C6.38574 16.3828 6.05761 16.043 6.05761 15.5859C6.05761 15.1289 6.38574 14.8008 6.81933 14.8008H14.6592L15.2334 14.8359L14.7295 14.3672L13.4404 13.1367C13.2881 12.9844 13.2178 12.7969 13.2178 12.5742C13.2178 12.1289 13.5342 11.8125 13.9912 11.8125C14.1904 11.8125 14.4131 11.9062 14.5654 12.0469L17.5888 15.0234C17.9052 15.3398 17.9287 15.832 17.5888 16.1602Z" fill="black" fill-opacity="0.85"/>
</svg>
