<svg width="24" height="24" viewBox="0 0 24 24" fill="none" xmlns="http://www.w3.org/2000/svg">
<path d="M11.9531 23.918C18.4922 23.918 23.9062 18.5039 23.9062 11.9648C23.9062 5.4375 18.4805 0.0117188 11.9414 0.0117188C5.41406 0.0117188 0 5.4375 0 11.9648C0 18.5039 5.42578 23.918 11.9531 23.918Z" fill="#FFCC00"/>
<path d="M4.57031 11.9648C4.57031 11.7422 4.65234 11.5078 4.91016 11.25L10.1016 6.41016C10.4531 6.08203 10.6523 5.94141 10.9688 5.94141C11.4375 5.94141 11.7656 6.31641 11.7656 6.75V9.375H17.2266C18.1875 9.375 18.7383 9.92578 18.7383 10.8516V13.0898C18.7383 14.0156 18.1875 14.5664 17.2266 14.5664H11.7656V17.2266C11.7656 17.6836 11.4375 17.9883 10.9922 17.9883C10.6641 17.9883 10.418 17.8477 10.1016 17.5664L4.91016 12.668C4.65234 12.4336 4.57031 12.1758 4.57031 11.9648Z" fill="black" fill-opacity="0.85"/>
</svg>
