<svg width="20" height="19" viewBox="0 0 20 19" fill="none" xmlns="http://www.w3.org/2000/svg">
<path d="M17.707 0.0117188C17.2383 0.0117188 16.8633 0.210938 16.3711 0.457031L1.3125 7.76953C0.316406 8.26172 0 8.70703 0 9.32812C0 9.94922 0.316406 10.4062 1.3125 10.8984L16.3711 18.1992C16.875 18.4453 17.25 18.6445 17.7188 18.6445C18.5859 18.6445 19.1133 17.9883 19.1133 16.9688V1.6875C19.1133 0.667969 18.5742 0.0117188 17.707 0.0117188ZM17.1094 2.23828C17.1797 2.23828 17.2266 2.29688 17.2266 2.37891L17.2383 16.2773C17.2383 16.3711 17.1914 16.418 17.1211 16.418C17.0742 16.418 17.0273 16.3945 16.9805 16.3711L2.625 9.45703C2.56641 9.43359 2.51953 9.38672 2.51953 9.32812C2.51953 9.26953 2.56641 9.22266 2.625 9.19922L16.9688 2.29688C17.0156 2.26172 17.0625 2.23828 17.1094 2.23828Z" fill="black" fill-opacity="0.85"/>
</svg>
