<svg width="22" height="22" viewBox="0 0 22 22" fill="none" xmlns="http://www.w3.org/2000/svg">
<path d="M20.2383 1.38281C19.043 0.1875 17.3555 0 15.3516 0H6.22266C4.25391 0 2.56641 0.1875 1.37109 1.38281C0.175781 2.57812 0 4.25391 0 6.22266V15.3516C0 17.3555 0.175781 19.0312 1.37109 20.2266C2.56641 21.4219 4.25391 21.6094 6.24609 21.6094H15.3516C17.3555 21.6094 19.043 21.4219 20.2383 20.2266C21.4336 19.0312 21.6094 17.3555 21.6094 15.3516V6.24609C21.6094 4.24219 21.4336 2.57812 20.2383 1.38281ZM19.7227 5.92969V15.6797C19.7227 16.8867 19.5703 18.1406 18.8555 18.8438C18.1523 19.5586 16.8867 19.7227 15.6797 19.7227H5.92969C4.72266 19.7227 3.45703 19.5586 2.74219 18.8438C2.03906 18.1406 1.88672 16.8867 1.88672 15.6797V5.96484C1.88672 4.72266 2.03906 3.46875 2.74219 2.75391C3.45703 2.05078 4.73438 1.88672 5.96484 1.88672H15.6797C16.8867 1.88672 18.1523 2.05078 18.8555 2.76562C19.5703 3.46875 19.7227 4.72266 19.7227 5.92969Z" fill="#007AFF"/>
<path d="M14.4844 13.7109C15 13.7109 15.3398 13.3125 15.3398 12.7734V7.24219C15.3398 6.55078 14.9648 6.28125 14.3672 6.28125H8.80078C8.25 6.28125 7.89844 6.62109 7.89844 7.13672C7.89844 7.65234 8.26172 7.99219 8.82422 7.99219H10.957L12.6914 7.80469L10.8633 9.50391L6.55078 13.8281C6.38672 13.9922 6.26953 14.2266 6.26953 14.4609C6.26953 14.9883 6.60938 15.3281 7.125 15.3281C7.40625 15.3281 7.62891 15.2227 7.79297 15.0586L12.1055 10.7461L13.793 8.94141L13.6172 10.7695V12.7969C13.6172 13.3477 13.957 13.7109 14.4844 13.7109Z" fill="black" fill-opacity="0.85"/>
</svg>
