<svg width="29" height="22" viewBox="0 0 29 22" fill="none" xmlns="http://www.w3.org/2000/svg">
<path d="M17.2383 21.5039C17.8125 21.5039 18.2812 21.2695 18.8438 20.7422L28.0898 12.0117C28.5469 11.5898 28.6875 11.1445 28.6875 10.7578C28.6875 10.3594 28.5469 9.91406 28.0898 9.49219L18.8438 0.84375C18.2227 0.257812 17.8359 0 17.2617 0C16.4414 0 15.8672 0.65625 15.8672 1.44141V5.98828H8.26172C6.23438 5.98828 5.36719 6.83203 5.36719 8.82422V11.2734H2.89453C0.867188 11.2734 0 12.1055 0 14.0977V18.5977C0 20.5898 0.867188 21.4336 2.89453 21.4336H9.96094C11.9883 21.4336 12.8555 20.5898 12.8555 18.5977V15.9258H15.8672V20.1328C15.8672 20.918 16.4414 21.5039 17.2383 21.5039ZM11.5195 18.7031L6.78516 16.7227C5.63672 16.2422 5.21484 15.7383 5.15625 14.8125C5.14453 14.5781 5.39062 14.5312 5.49609 14.7539C5.84766 15.5273 6.64453 15.9258 7.81641 15.9258H11.6719V18.6328C11.6719 18.7031 11.5898 18.7383 11.5195 18.7031Z" fill="black" fill-opacity="0.85"/>
</svg>
