<svg width="21" height="19" viewBox="0 0 21 19" fill="none" xmlns="http://www.w3.org/2000/svg">
<path d="M0 8.92969C0 9.53906 0.421875 9.97266 1.03125 9.97266H12.8789L15.3867 9.89062L11.5312 13.4062L8.94141 16.0312C8.74219 16.2305 8.64844 16.5117 8.64844 16.793C8.64844 17.3789 9.09375 17.8008 9.66797 17.8008C9.96094 17.8008 10.2188 17.6953 10.4531 17.4609L18.2227 9.71484C18.457 9.49219 18.5859 9.21094 18.5859 8.92969C18.5859 8.63672 18.457 8.36719 18.2227 8.13281L10.4531 0.386719C10.2188 0.152344 9.96094 0.0351562 9.66797 0.0351562C9.09375 0.0351562 8.64844 0.46875 8.64844 1.05469C8.64844 1.33594 8.74219 1.61719 8.94141 1.80469L11.5312 4.44141L15.375 7.96875L12.8789 7.875H1.03125C0.421875 7.875 0 8.30859 0 8.92969ZM18.5508 16.8398C18.5508 17.4375 18.9844 17.8477 19.6055 17.8477C20.2148 17.8477 20.6484 17.4375 20.6484 16.8398V1.03125C20.6484 0.421875 20.2148 0 19.6055 0C18.9844 0 18.5508 0.421875 18.5508 1.03125V16.8398Z" fill="black" fill-opacity="0.85"/>
</svg>
