<svg width="24" height="24" viewBox="0 0 24 24" fill="none" xmlns="http://www.w3.org/2000/svg">
<path d="M11.9531 23.9062C18.4922 23.9062 23.9062 18.4805 23.9062 11.9531C23.9062 5.41406 18.4805 0 11.9414 0C5.41406 0 0 5.41406 0 11.9531C0 18.4805 5.42578 23.9062 11.9531 23.9062Z" fill="#FFCC00"/>
<path d="M8.15625 14.9531C7.62891 14.9531 7.26562 14.543 7.26562 13.9805V8.28516C7.26562 7.57031 7.66406 7.28906 8.28516 7.28906H14.0039C14.5781 7.28906 14.9414 7.64062 14.9414 8.17969C14.9414 8.70703 14.5664 9.05859 13.9805 9.05859H11.8008L10.0078 8.87109L11.8945 10.6289L16.3359 15.0586C16.5117 15.2344 16.6289 15.4805 16.6289 15.7148C16.6289 16.2656 16.2656 16.6172 15.7383 16.6172C15.4453 16.6172 15.2109 16.5117 15.0352 16.3359L10.6172 11.9062L8.87109 10.043L9.04688 11.9297V14.0039C9.04688 14.5781 8.69531 14.9531 8.15625 14.9531Z" fill="black" fill-opacity="0.85"/>
</svg>
