<svg width="24" height="24" viewBox="0 0 24 24" fill="none" xmlns="http://www.w3.org/2000/svg">
<path d="M11.9531 23.9062C18.4922 23.9062 23.9062 18.4805 23.9062 11.9531C23.9062 5.41406 18.4805 0 11.9414 0C5.41406 0 0 5.41406 0 11.9531C0 18.4805 5.42578 23.9062 11.9531 23.9062ZM11.9531 21.9141C6.42188 21.9141 2.00391 17.4844 2.00391 11.9531C2.00391 6.42188 6.41016 1.99219 11.9414 1.99219C17.4727 1.99219 21.9141 6.42188 21.9141 11.9531C21.9141 17.4844 17.4844 21.9141 11.9531 21.9141Z" fill="#007AFF"/>
<path d="M11.3219 16.3711C11.6032 16.8633 12.2828 16.8867 12.5875 16.3711L16.5133 9.70312C16.8414 9.15234 16.5954 8.53125 16.0328 8.53125H7.86483C7.30233 8.53125 7.06796 9.19922 7.37264 9.70312L11.3219 16.3711Z" fill="black" fill-opacity="0.85"/>
</svg>
