<svg width="31" height="23" viewBox="0 0 31 23" fill="none" xmlns="http://www.w3.org/2000/svg">
<path d="M3.80689 21.6255L6.15064 18.4849C6.61939 17.8521 6.37329 17.0552 5.54126 17.0552H3.8772V4.87941H5.54126C6.34986 4.87941 6.64282 4.10597 6.15064 3.44972L3.80689 0.320816C3.49048 -0.112778 2.88111 -0.101059 2.57642 0.320816L0.232669 3.44972C-0.2478 4.10597 0.0451684 4.87941 0.842044 4.87941H2.51782V17.0552H0.842044C0.0451684 17.0552 -0.2478 17.8286 0.232669 18.4849L2.57642 21.6255C2.89282 22.0474 3.49048 22.0474 3.80689 21.6255Z" fill="black" fill-opacity="0.85"/>
<path d="M11.1308 2.65283H29.9628C30.455 2.65283 30.8535 2.26611 30.8535 1.7622C30.8535 1.27001 30.455 0.883301 29.9628 0.883301H11.1308C10.6269 0.883301 10.2402 1.27001 10.2402 1.7622C10.2402 2.26611 10.6269 2.65283 11.1308 2.65283ZM11.1308 8.79346H29.9628C30.455 8.79346 30.8535 8.40673 30.8535 7.90283C30.8535 7.41065 30.455 7.02392 29.9628 7.02392H11.1308C10.6269 7.02392 10.2402 7.41065 10.2402 7.90283C10.2402 8.40673 10.6269 8.79346 11.1308 8.79346ZM11.1308 14.9341H29.9628C30.455 14.9341 30.8535 14.5357 30.8535 14.0435C30.8535 13.5513 30.455 13.1646 29.9628 13.1646H11.1308C10.6269 13.1646 10.2402 13.5513 10.2402 14.0435C10.2402 14.5357 10.6269 14.9341 11.1308 14.9341ZM11.1308 21.063H22.4511C22.9433 21.063 23.3417 20.6763 23.3417 20.1841C23.3417 19.6919 22.9433 19.2935 22.4511 19.2935H11.1308C10.6269 19.2935 10.2402 19.6919 10.2402 20.1841C10.2402 20.6763 10.6269 21.063 11.1308 21.063Z" fill="#007AFF"/>
</svg>
