<svg width="24" height="30" viewBox="0 0 24 30" fill="none" xmlns="http://www.w3.org/2000/svg">
<path d="M5.68359 3.67969V19.957C5.68359 22.3945 6.89062 23.6367 9.31641 23.6367H20.332C22.7461 23.6367 23.9648 22.4062 23.9648 19.957V3.67969C23.9648 1.24219 22.7461 0 20.332 0H9.31641C6.89062 0 5.68359 1.23047 5.68359 3.67969ZM11.2148 3.32812V3.08203C11.2148 2.71875 11.4492 2.39062 11.9648 2.39062H17.6836C18.1875 2.39062 18.4336 2.71875 18.4336 3.08203V3.32812C18.4336 3.67969 18.1875 4.01953 17.6836 4.01953H11.9648C11.4492 4.01953 11.2148 3.67969 11.2148 3.32812Z" fill="#007AFF"/>
<path d="M0 25.8047C0 28.2539 1.20703 29.4844 3.63281 29.4844H14.6484C17.0742 29.4844 18.2812 28.2422 18.2812 25.8047V9.52734C18.2812 7.07812 17.0742 5.84766 14.6484 5.84766H3.63281C1.20703 5.84766 0 7.06641 0 9.52734V25.8047Z" fill="white"/>
<path d="M0 25.8047C0 28.2539 1.20703 29.4844 3.63281 29.4844H14.6484C17.0742 29.4844 18.2812 28.2422 18.2812 25.8047V9.52734C18.2812 7.07812 17.0742 5.84766 14.6484 5.84766H3.63281C1.20703 5.84766 0 7.06641 0 9.52734V25.8047ZM1.88672 25.7695V9.55078C1.88672 8.39062 2.50781 7.73438 3.71484 7.73438H14.5547C15.7617 7.73438 16.3945 8.39062 16.3945 9.55078V25.7695C16.3945 26.9414 15.7617 27.5977 14.5547 27.5977H3.71484C2.50781 27.5977 1.88672 26.9414 1.88672 25.7695Z" fill="black" fill-opacity="0.85"/>
<path d="M9.1759 22.7695C10.336 22.7695 11.4845 22.3711 12.2931 21.6914C12.7149 21.3516 12.8087 20.8945 12.504 20.5664C12.1993 20.2266 11.7892 20.2852 11.4376 20.543C10.7579 21.082 10.0782 21.3633 9.1759 21.3633C7.33606 21.3633 5.81262 20.1211 5.40246 18.4688H6.37512C6.78528 18.4688 6.87903 18.0703 6.65637 17.7539L5.17981 15.6797C4.93371 15.3398 4.51184 15.3164 4.25403 15.6797L2.8009 17.7539C2.56653 18.0703 2.66028 18.4688 3.07043 18.4688H4.05481C4.50012 21.0234 6.56262 22.7695 9.1759 22.7695ZM9.16418 12.5039C8.01574 12.5039 6.85559 12.9141 6.047 13.582C5.62512 13.9219 5.53137 14.3906 5.83606 14.7188C6.14074 15.0469 6.5509 15 6.90246 14.7305C7.58215 14.1914 8.26184 13.9102 9.16418 13.9102C11.004 13.9102 12.5392 15.1523 12.9376 16.8164H11.9181C11.4962 16.8164 11.4024 17.2148 11.6368 17.5312L13.1134 19.5938C13.3595 19.9336 13.7696 19.957 14.0274 19.5938L15.4923 17.5312C15.7267 17.2031 15.6329 16.8164 15.211 16.8164H14.2853C13.8399 14.2617 11.7774 12.5039 9.16418 12.5039Z" fill="black" fill-opacity="0.85"/>
</svg>
