<svg width="24" height="24" viewBox="0 0 24 24" fill="none" xmlns="http://www.w3.org/2000/svg">
<path d="M11.9531 23.9062C18.4922 23.9062 23.9062 18.4922 23.9062 11.9531C23.9062 5.42578 18.4805 0 11.9414 0C5.41406 0 0 5.42578 0 11.9531C0 18.4922 5.42578 23.9062 11.9531 23.9062Z" fill="#FFCC00"/>
<path d="M10.7227 17.8125C7.93359 17.8125 6.09375 15.9141 6.09375 13.0781V11.5078C6.09375 10.9453 6.44531 10.5586 6.97266 10.5586C7.48828 10.5586 7.83984 10.9336 7.83984 11.4844V13.0781C7.83984 14.8477 9 16.0547 10.7227 16.0547C12.3281 16.0547 13.3945 14.8711 13.3945 13.0898V9.66797L13.4531 8.46094L13.0547 9.01172L11.6836 10.4414C11.5195 10.6055 11.2969 10.7109 11.0391 10.7109C10.5352 10.7109 10.1484 10.3359 10.1484 9.84375C10.1484 9.58594 10.2305 9.36328 10.3945 9.21094L13.5352 6.12891C13.7578 5.91797 14.0156 5.8125 14.2852 5.8125C14.543 5.8125 14.8008 5.92969 15.0234 6.12891L18.1289 9.19922C18.3047 9.36328 18.3867 9.57422 18.3867 9.83203C18.3867 10.3359 17.9883 10.7109 17.4961 10.7109C17.25 10.7109 17.0156 10.6055 16.8633 10.4414L15.7148 9.24609L15.0938 8.44922L15.1406 9.66797V13.0898C15.1406 15.9258 13.3828 17.8125 10.7227 17.8125Z" fill="black" fill-opacity="0.85"/>
</svg>
