<svg width="24" height="24" viewBox="0 0 24 24" fill="none" xmlns="http://www.w3.org/2000/svg">
<path d="M11.9531 23.9062C18.4922 23.9062 23.9062 18.4805 23.9062 11.9531C23.9062 5.41406 18.4805 0 11.9414 0C5.41406 0 0 5.41406 0 11.9531C0 18.4805 5.42578 23.9062 11.9531 23.9062ZM11.9531 21.9141C6.42188 21.9141 2.00391 17.4844 2.00391 11.9531C2.00391 6.42188 6.41016 1.99219 11.9414 1.99219C17.4727 1.99219 21.9141 6.42188 21.9141 11.9531C21.9141 17.4844 17.4844 21.9141 11.9531 21.9141Z" fill="#007AFF"/>
<path d="M11.9297 15.6914C12.1406 15.6914 12.3516 15.5859 12.5156 15.4219L16.4883 11.3906C16.6758 11.2031 16.7344 11.0039 16.7344 10.793C16.7344 10.3711 16.4297 10.0195 15.9961 10.0195C15.7852 10.0195 15.5742 10.0898 15.4102 10.2539L14.6836 11.0039L12.5859 13.3711L12.7148 11.2266V5.84766C12.7148 5.40234 12.375 5.07422 11.9297 5.07422C11.4609 5.07422 11.1445 5.40234 11.1445 5.84766V11.2266L11.2734 13.3828L9.14062 10.9922L8.47266 10.2539C8.32031 10.0898 8.14453 10.0195 7.89844 10.0195C7.45312 10.0195 7.14844 10.3477 7.14844 10.793C7.14844 10.9805 7.24219 11.2266 7.38281 11.3789L11.3438 15.4219C11.5078 15.5977 11.7188 15.6914 11.9297 15.6914ZM7.54688 18.1523H16.3477C16.8047 18.1523 17.1211 17.8242 17.1211 17.3555C17.1211 16.9102 16.8047 16.582 16.3477 16.582H7.54688C7.08984 16.582 6.76172 16.9102 6.76172 17.3555C6.76172 17.8242 7.08984 18.1523 7.54688 18.1523Z" fill="black" fill-opacity="0.85"/>
</svg>
