<svg width="26" height="22" viewBox="0 0 26 22" fill="none" xmlns="http://www.w3.org/2000/svg">
<path d="M0 10.7461C0 11.1328 0.152344 11.5781 0.597656 12L9.84375 20.7305C10.4062 21.2578 10.875 21.4922 11.4492 21.4922C12.2461 21.4922 12.8203 20.9062 12.8203 20.1211V15.6445H22.3359C24.1875 15.6445 25.2656 14.5898 25.2656 12.7734V8.73047C25.2656 6.91406 24.1875 5.85938 22.3359 5.85938H12.8203V1.42969C12.8203 0.644531 12.2461 0 11.4258 0C10.8516 0 10.4648 0.246094 9.84375 0.832031L0.597656 9.48047C0.140625 9.91406 0 10.3477 0 10.7461ZM2.09766 10.7461C2.09766 10.6758 2.13281 10.6055 2.22656 10.5234L10.5703 2.51953C10.6289 2.47266 10.6992 2.42578 10.7695 2.42578C10.875 2.42578 10.9336 2.49609 10.9336 2.58984V7.24219C10.9336 7.51172 11.0625 7.62891 11.332 7.62891H22.3125C23.0625 7.62891 23.4961 8.0625 23.4961 8.82422V12.6797C23.4961 13.4414 23.0625 13.875 22.3125 13.875H11.332C11.0625 13.875 10.9336 13.9922 10.9336 14.2617V18.7969C10.9336 18.9023 10.875 18.9727 10.7812 18.9727C10.7109 18.9727 10.6406 18.9375 10.582 18.8672L2.22656 10.9688C2.13281 10.875 2.09766 10.8164 2.09766 10.7461Z" fill="black" fill-opacity="0.85"/>
</svg>
