<svg width="32" height="22" viewBox="0 0 32 22" fill="none" xmlns="http://www.w3.org/2000/svg">
<path d="M10.2891 21.8086C10.8164 21.8086 11.1328 21.5508 11.25 21.082C12.5156 17.168 14.5312 15.7852 17.8594 15.7852L18.2812 15.7969V20.2734C18.2812 21.0586 18.8555 21.6445 19.6523 21.6445C20.2266 21.6445 20.6953 21.4102 21.2578 20.8828L30.5156 12.1523C30.9609 11.7305 31.1016 11.2852 31.1016 10.8984C31.1016 10.5 30.9609 10.0547 30.5156 9.63281L21.2578 0.984375C20.6367 0.398438 20.25 0.140625 19.6758 0.140625C18.8555 0.140625 18.2812 0.796875 18.2812 1.58203V6.01172H17.9414C14.2617 6.01172 11.0625 8.19141 10.3359 12.5742H10.207C9.39844 7.72266 6.07031 6.01172 2.91797 6.01172C2.85938 6.01172 2.67188 6.01172 2.26172 6.01172C0.644531 6.01172 0 6.62109 0 8.36719V13.9688C0 15.293 0.632812 15.8555 2.15625 15.8555C2.50781 15.8555 2.82422 15.8555 3.1875 15.8555C6.38672 15.8555 8.49609 17.9883 9.33984 21.0703C9.44531 21.5508 9.75 21.8086 10.2891 21.8086Z" fill="black" fill-opacity="0.85"/>
</svg>
