<svg width="24" height="24" viewBox="0 0 24 24" fill="none" xmlns="http://www.w3.org/2000/svg">
<path d="M11.9531 23.9062C18.4922 23.9062 23.9062 18.4805 23.9062 11.9531C23.9062 5.41406 18.4805 0 11.9414 0C5.41406 0 0 5.41406 0 11.9531C0 18.4805 5.42578 23.9062 11.9531 23.9062ZM11.9531 21.9141C6.42188 21.9141 2.00391 17.4844 2.00391 11.9531C2.00391 6.42188 6.41016 1.99219 11.9414 1.99219C17.4727 1.99219 21.9141 6.42188 21.9141 11.9531C21.9141 17.4844 17.4844 21.9141 11.9531 21.9141Z" fill="#007AFF"/>
<path d="M15.6094 9.04688C15.0938 9.04688 14.7539 9.39844 14.7539 9.96094V11.9883L14.9297 13.8164L13.2422 12.0117L8.92969 7.69922C8.75391 7.53516 8.54297 7.42969 8.26172 7.42969C7.74609 7.42969 7.39453 7.76953 7.39453 8.29688C7.39453 8.53125 7.51172 8.76562 7.67578 8.92969L12 13.2422L13.8281 14.9531L12.0938 14.7656H9.96094C9.39844 14.7656 9.03516 15.1055 9.03516 15.6211C9.03516 16.1367 9.38672 16.4766 9.9375 16.4766H15.4922C16.0898 16.4766 16.4766 16.207 16.4766 15.5156V9.98438C16.4766 9.43359 16.125 9.04688 15.6094 9.04688Z" fill="black" fill-opacity="0.85"/>
</svg>
