<svg width="22" height="22" viewBox="0 0 22 22" fill="none" xmlns="http://www.w3.org/2000/svg">
<path d="M3.67969 21.5742H17.8945C20.3555 21.5742 21.5742 20.3555 21.5742 17.9414V3.63281C21.5742 1.21875 20.3555 0 17.8945 0H3.67969C1.23047 0 0 1.20703 0 3.63281V17.9414C0 20.3672 1.23047 21.5742 3.67969 21.5742ZM3.70312 19.6875C2.53125 19.6875 1.88672 19.0664 1.88672 17.8477V3.72656C1.88672 2.51953 2.53125 1.88672 3.70312 1.88672H17.8711C19.0312 1.88672 19.6875 2.51953 19.6875 3.72656V17.8477C19.6875 19.0664 19.0312 19.6875 17.8711 19.6875H3.70312Z" fill="#007AFF"/>
<path d="M9.16406 16.8047C11.9766 16.8047 13.6875 14.7773 13.6875 12.0469V8.54297L13.6406 7.16016L14.3672 8.08594L15.5508 9.29297C15.6914 9.45703 15.9023 9.5625 16.1484 9.5625C16.6406 9.5625 17.0039 9.19922 17.0039 8.71875C17.0039 8.47266 16.9219 8.28516 16.7461 8.12109L13.582 5.00391C13.3945 4.80469 13.1484 4.6875 12.8672 4.6875C12.5977 4.6875 12.3516 4.80469 12.1641 5.00391L8.96484 8.13281C8.80078 8.29688 8.71875 8.48438 8.71875 8.73047C8.71875 9.19922 9.09375 9.5625 9.57422 9.5625C9.79688 9.5625 10.0195 9.48047 10.1836 9.30469L11.5898 7.83984L12.0938 7.16016L12.0469 8.54297V12.0469C12.0469 13.7695 11.0508 15.082 9.25781 15.082C7.40625 15.082 6.25781 13.8047 6.25781 12.0352C6.25781 11.8945 6.25781 10.4531 6.25781 10.4062C6.25781 9.90234 5.96484 9.51562 5.42578 9.51562C4.88672 9.51562 4.58203 9.90234 4.58203 10.4297C4.58203 10.4883 4.58203 11.8945 4.58203 12.0352C4.58203 14.7656 6.33984 16.8047 9.16406 16.8047Z" fill="black" fill-opacity="0.85"/>
</svg>
