<svg width="24" height="24" viewBox="0 0 24 24" fill="none" xmlns="http://www.w3.org/2000/svg">
<path d="M11.9531 23.9062C18.4922 23.9062 23.9062 18.4805 23.9062 11.9531C23.9062 5.41406 18.4805 0 11.9414 0C5.41406 0 0 5.41406 0 11.9531C0 18.4805 5.42578 23.9062 11.9531 23.9062Z" fill="#FFCC00"/>
<path d="M6.5625 11.9531C6.07031 11.9531 5.68359 11.5664 5.68359 11.0742V6.72656C5.68359 5.97656 6.05859 5.68359 6.71484 5.68359H11.0508C11.543 5.68359 11.9297 6.08203 11.9297 6.57422C11.9297 7.06641 11.543 7.45312 11.0508 7.45312H10.4414L8.54297 7.33594L11.332 9.99609C11.6953 10.3477 11.707 10.9688 11.3438 11.332C10.9805 11.707 10.3711 11.7188 10.0078 11.3203L7.32422 8.50781L7.45312 10.4648V11.0742C7.45312 11.5664 7.05469 11.9531 6.5625 11.9531ZM12.8672 18.2461C12.375 18.2461 11.9766 17.8477 11.9766 17.3555C11.9766 16.8633 12.375 16.4766 12.8672 16.4766H13.4766L15.375 16.5938L12.5742 13.9336C12.2109 13.582 12.1992 12.9609 12.5625 12.5977C12.9375 12.2227 13.5352 12.2109 13.9102 12.6094L16.582 15.4219L16.4648 13.4648V12.8555C16.4648 12.3633 16.8516 11.9766 17.3438 11.9766C17.8359 11.9766 18.2344 12.3633 18.2344 12.8555V17.2031C18.2344 17.9531 17.8477 18.2461 17.1914 18.2461H12.8672Z" fill="black" fill-opacity="0.85"/>
</svg>
