<svg width="24" height="24" viewBox="0 0 24 24" fill="none" xmlns="http://www.w3.org/2000/svg">
<path d="M11.9531 23.9062C18.4922 23.9062 23.9062 18.4805 23.9062 11.9531C23.9062 5.41406 18.4805 0 11.9414 0C5.41406 0 0 5.41406 0 11.9531C0 18.4805 5.42578 23.9062 11.9531 23.9062ZM11.9531 21.9141C6.42188 21.9141 2.00391 17.4844 2.00391 11.9531C2.00391 6.42188 6.41016 1.99219 11.9414 1.99219C17.4727 1.99219 21.9141 6.42188 21.9141 11.9531C21.9141 17.4844 17.4844 21.9141 11.9531 21.9141Z" fill="#007AFF"/>
<path d="M15.6094 14.8594C16.125 14.8594 16.4766 14.4609 16.4766 13.9219V8.39062C16.4766 7.69922 16.0898 7.42969 15.4922 7.42969H9.9375C9.38672 7.42969 9.03516 7.76953 9.03516 8.28516C9.03516 8.80078 9.39844 9.14062 9.96094 9.14062H12.0938L13.8281 8.95312L12 10.6523L7.67578 14.9766C7.51172 15.1406 7.39453 15.375 7.39453 15.6094C7.39453 16.1367 7.74609 16.4766 8.26172 16.4766C8.54297 16.4766 8.75391 16.3711 8.92969 16.207L13.2422 11.8945L14.9297 10.0898L14.7539 11.918V13.9453C14.7539 14.4961 15.0938 14.8594 15.6094 14.8594Z" fill="black" fill-opacity="0.85"/>
</svg>
