<svg width="29" height="22" viewBox="0 0 29 22" fill="none" xmlns="http://www.w3.org/2000/svg">
<path d="M7.89844 21.5977H20.2031C22.5117 21.5977 23.5312 20.5195 23.8828 18.2227L25.7695 5.47266L23.8828 5.58984L22.0078 18.1992C21.832 19.3594 21.2109 19.8281 20.1797 19.8281H7.93359C6.87891 19.8281 6.26953 19.3594 6.10547 18.1992L4.23047 5.58984L2.34375 5.47266L4.23047 18.2227C4.57031 20.5312 5.60156 21.5977 7.89844 21.5977ZM2.22656 6.46875H25.8867C27.3281 6.46875 28.1133 5.56641 28.1133 4.13672V2.35547C28.1133 0.925781 27.3281 0.0234375 25.8867 0.0234375H2.22656C0.855469 0.0234375 0 0.925781 0 2.35547V4.13672C0 5.56641 0.785156 6.46875 2.22656 6.46875ZM2.70703 4.69922C2.12109 4.69922 1.88672 4.45312 1.88672 3.86719V2.625C1.88672 2.03906 2.12109 1.79297 2.70703 1.79297H25.418C26.0039 1.79297 26.2266 2.03906 26.2266 2.625V3.86719C26.2266 4.45312 26.0039 4.69922 25.418 4.69922H2.70703Z" fill="#007AFF"/>
<path d="M14.9883 16.8398V12.6211L14.9062 10.7227L15.9023 11.7422L16.9336 12.7969C17.0977 12.9609 17.3203 13.0547 17.5547 13.0547C18.0234 13.0547 18.3867 12.7266 18.3867 12.2578C18.3867 11.9883 18.2695 11.7891 18.082 11.625L14.7422 8.54297C14.4961 8.32031 14.3203 8.23828 14.0859 8.23828C13.8633 8.23828 13.6758 8.32031 13.4297 8.54297L10.0898 11.625C9.90234 11.7891 9.79688 11.9883 9.79688 12.2578C9.79688 12.7266 10.1484 13.0547 10.6289 13.0547C10.8398 13.0547 11.0859 12.9609 11.25 12.7969L12.2695 11.7422L13.2656 10.7227L13.1953 12.6211V16.8398C13.1953 17.3203 13.6055 17.7188 14.0859 17.7188C14.5664 17.7188 14.9883 17.3203 14.9883 16.8398Z" fill="black" fill-opacity="0.85"/>
</svg>
