<svg width="22" height="26" viewBox="0 0 22 26" fill="none" xmlns="http://www.w3.org/2000/svg">
<path d="M10.7461 0.0117188C10.3594 0.0117188 9.91406 0.164062 9.49219 0.609375L0.761719 9.85547C0.234375 10.418 0 10.8867 0 11.4609C0 12.2578 0.585938 12.832 1.37109 12.832H5.84766V22.3477C5.84766 24.1992 6.90234 25.2773 8.71875 25.2773H12.7617C14.5781 25.2773 15.6328 24.1992 15.6328 22.3477V12.832H20.0625C20.8477 12.832 21.5039 12.2578 21.5039 11.4375C21.5039 10.8633 21.2461 10.4766 20.6602 9.85547L12.0117 0.609375C11.5898 0.152344 11.1445 0.0117188 10.7461 0.0117188ZM10.7461 2.10938C10.8164 2.10938 10.8867 2.14453 10.9688 2.23828L18.9727 10.582C19.0312 10.6406 19.0664 10.7109 19.0664 10.7812C19.0664 10.8867 19.0078 10.9453 18.9023 10.9453H14.25C13.9805 10.9453 13.8633 11.0742 13.8633 11.3438V22.3242C13.8633 23.0742 13.4414 23.5078 12.6797 23.5078H8.8125C8.05078 23.5078 7.61719 23.0742 7.61719 22.3242V11.3438C7.61719 11.0742 7.5 10.9453 7.23047 10.9453H2.69531C2.58984 10.9453 2.51953 10.8867 2.51953 10.793C2.51953 10.7227 2.55469 10.6523 2.625 10.582L10.5234 2.23828C10.6172 2.14453 10.6758 2.10938 10.7461 2.10938Z" fill="black" fill-opacity="0.85"/>
</svg>
