<svg width="48" height="20" viewBox="0 0 48 20" fill="none" xmlns="http://www.w3.org/2000/svg">
<path d="M0 9.69141C0 10.125 0.1875 10.5469 0.5625 10.8984L8.78906 18.6562C9.32812 19.1602 9.77344 19.3711 10.3125 19.3711C11.0859 19.3711 11.6836 18.7969 11.6836 18.0234V14.1797H19.6055C21.3164 14.1797 22.3477 13.1484 22.3477 11.4844V7.89844C22.3477 6.22266 21.3281 5.22656 19.6055 5.22656H11.6836V1.41797C11.6836 0.621094 11.0742 0 10.3008 0C9.78516 0 9.43359 0.1875 8.78906 0.785156L0.5625 8.47266C0.164062 8.84766 0 9.25781 0 9.69141ZM2.37891 9.9375C2.19141 9.75 2.20312 9.62109 2.37891 9.44531L9.62109 2.55469C9.70312 2.48438 9.78516 2.51953 9.78516 2.60156V6.63281C9.78516 6.94922 9.96094 7.10156 10.2656 7.10156H19.5469C20.1211 7.10156 20.4609 7.44141 20.4609 8.03906V11.3789C20.4609 11.9766 20.1211 12.293 19.5469 12.293H10.2656C9.96094 12.293 9.78516 12.4453 9.78516 12.7852V16.6875C9.78516 16.7812 9.70312 16.8164 9.62109 16.7344L2.37891 9.9375ZM47.625 9.69141C47.625 9.25781 47.4609 8.84766 47.0625 8.47266L38.8359 0.785156C38.1914 0.1875 37.8398 0 37.3242 0C36.5508 0 35.9414 0.621094 35.9414 1.41797V5.22656H28.0195C26.2969 5.22656 25.2773 6.22266 25.2773 7.89844V11.4844C25.2773 13.1484 26.3086 14.1797 28.0195 14.1797H35.9414V18.0234C35.9414 18.7969 36.5391 19.3711 37.3125 19.3711C37.8516 19.3711 38.2969 19.1602 38.8359 18.6562L47.0625 10.8984C47.4375 10.5469 47.625 10.125 47.625 9.69141ZM28.0781 12.293C27.5039 12.293 27.1641 11.9766 27.1641 11.3789V8.03906C27.1641 7.44141 27.5039 7.10156 28.0781 7.10156H37.3594C37.6641 7.10156 37.8398 6.94922 37.8398 6.63281V2.60156C37.8398 2.51953 37.9219 2.48438 38.0039 2.55469L45.2461 9.44531C45.4219 9.62109 45.4336 9.75 45.2461 9.9375L38.0039 16.7344C37.9219 16.8164 37.8398 16.7812 37.8398 16.6875V12.7852C37.8398 12.4453 37.6641 12.293 37.3594 12.293H28.0781Z" fill="black" fill-opacity="0.85"/>
</svg>
