<svg width="33" height="25" viewBox="0 0 33 25" fill="none" xmlns="http://www.w3.org/2000/svg">
<path d="M11.4492 23.1094C12.2461 23.1094 12.8203 22.5234 12.8203 21.7383V3.04688C12.8203 2.26172 12.2461 1.61719 11.4258 1.61719C10.8516 1.61719 10.4648 1.86328 9.84375 2.44922L0.585938 11.0977C0.164062 11.4961 0 11.9414 0 12.3633C0 12.7617 0.164062 13.2188 0.585938 13.6172L9.84375 22.3477C10.4062 22.875 10.875 23.1094 11.4492 23.1094Z" fill="black" fill-opacity="0.85"/>
<path d="M17.2148 24.7031C18.8789 24.7031 20.1797 23.4023 20.1797 21.7266V18.8789C23.5781 19.043 25.418 20.0508 26.9648 23.0039C27.6328 24.2109 28.6641 24.7031 29.8125 24.7031C31.3359 24.7031 32.625 23.4141 32.625 21.5273C32.625 12.5977 28.7578 6.45703 20.1797 5.91797V3.03516C20.1797 1.37109 18.8789 0 17.1914 0C16.207 0 15.457 0.363281 14.5078 1.26562L5.25 9.92578C4.5 10.6289 4.16016 11.5078 4.16016 12.3516C4.16016 13.1836 4.5 14.0625 5.26172 14.7656L14.5078 23.4961C15.4688 24.3867 16.3242 24.7031 17.2148 24.7031Z" fill="white"/>
<path d="M17.2148 23.0977C18 23.0977 18.5859 22.5117 18.5859 21.7266V17.25H18.9258C23.4609 17.25 26.332 18.3984 28.3711 22.2305C28.7812 22.9805 29.3203 23.0977 29.8125 23.0977C30.4453 23.0977 31.0195 22.5352 31.0195 21.5273C31.0195 12.8672 27.3516 7.46484 18.9258 7.46484H18.5859V3.03516C18.5859 2.25 18 1.60547 17.1914 1.60547C16.6055 1.60547 16.2188 1.85156 15.5977 2.4375L6.35156 11.0859C5.92969 11.4844 5.75391 11.9297 5.75391 12.3516C5.75391 12.75 5.92969 13.207 6.35156 13.6055L15.5977 22.3359C16.1602 22.8633 16.6289 23.0977 17.2148 23.0977Z" fill="black" fill-opacity="0.85"/>
</svg>
