<svg width="22" height="22" viewBox="0 0 22 22" fill="none" xmlns="http://www.w3.org/2000/svg">
<path d="M3.67969 21.5977H17.8945C20.3555 21.5977 21.5742 20.3789 21.5742 17.9648V3.65625C21.5742 1.24219 20.3555 0.0234375 17.8945 0.0234375H3.67969C1.23047 0.0234375 0 1.23047 0 3.65625V17.9648C0 20.3906 1.23047 21.5977 3.67969 21.5977ZM3.70312 19.7109C2.53125 19.7109 1.88672 19.0898 1.88672 17.8711V3.75C1.88672 2.53125 2.53125 1.91016 3.70312 1.91016H17.8711C19.0312 1.91016 19.6875 2.53125 19.6875 3.75V17.8711C19.6875 19.0898 19.0312 19.7109 17.8711 19.7109H3.70312Z" fill="#007AFF"/>
<path d="M7.11328 13.6992C7.62891 13.6992 7.96875 13.3359 7.96875 12.7852V10.7578L7.79297 8.92969L9.48047 10.7344L13.793 15.0469C13.9688 15.2109 14.1797 15.3164 14.4609 15.3164C14.9766 15.3164 15.3281 14.9766 15.3281 14.4492C15.3281 14.2148 15.2109 13.9805 15.0469 13.8164L10.7227 9.49219L8.89453 7.79297L10.6289 7.98047H12.7617C13.3242 7.98047 13.6875 7.64062 13.6875 7.125C13.6875 6.60938 13.3359 6.26953 12.7852 6.26953H7.23047C6.63281 6.26953 6.25781 6.53906 6.25781 7.23047V12.7617C6.25781 13.3008 6.59766 13.6992 7.11328 13.6992Z" fill="black" fill-opacity="0.85"/>
</svg>
