<svg width="24" height="24" viewBox="0 0 24 24" fill="none" xmlns="http://www.w3.org/2000/svg">
<path d="M11.9531 23.918C18.4922 23.918 23.9062 18.5039 23.9062 11.9648C23.9062 5.4375 18.4805 0.0117188 11.9414 0.0117188C5.41406 0.0117188 0 5.4375 0 11.9648C0 18.5039 5.42578 23.918 11.9531 23.918Z" fill="#FFCC00"/>
<path d="M10.8398 17.1797C10.5234 17.1797 10.2773 17.0391 9.97266 16.7578L4.82812 11.9297C4.58203 11.6953 4.5 11.4609 4.5 11.2266C4.5 11.0039 4.58203 10.7695 4.82812 10.5352L9.97266 5.74219C10.3125 5.41406 10.5117 5.28516 10.8281 5.28516C11.2852 5.28516 11.6133 5.63672 11.6133 6.07031V8.53125H11.8008C16.4531 8.53125 18.5039 11.5078 18.5039 16.3242C18.5039 16.8867 18.1641 17.1797 17.8242 17.1797C17.543 17.1797 17.25 17.1094 17.0273 16.6992C15.9023 14.5781 14.3086 13.9336 11.8008 13.9336H11.6133V16.4297C11.6133 16.8516 11.2852 17.1797 10.8398 17.1797Z" fill="black" fill-opacity="0.85"/>
</svg>
