<svg width="24" height="24" viewBox="0 0 24 24" fill="none" xmlns="http://www.w3.org/2000/svg">
<path d="M11.9531 23.9062C18.4922 23.9062 23.9062 18.4805 23.9062 11.9531C23.9062 5.41406 18.4805 0 11.9414 0C5.41406 0 0 5.41406 0 11.9531C0 18.4805 5.42578 23.9062 11.9531 23.9062ZM11.9531 21.9141C6.42188 21.9141 2.00391 17.4844 2.00391 11.9531C2.00391 6.42188 6.41016 1.99219 11.9414 1.99219C17.4727 1.99219 21.9141 6.42188 21.9141 11.9531C21.9141 17.4844 17.4844 21.9141 11.9531 21.9141Z" fill="#007AFF"/>
<path d="M11.9531 18.8203C12.1641 18.8203 12.4102 18.7383 12.6445 18.5039L17.3438 13.4531C17.6602 13.125 17.7891 12.9141 17.7891 12.6094C17.7891 12.1641 17.4492 11.8477 17.0273 11.8477H14.4609V6.55078C14.4609 5.625 13.9336 5.08594 13.0312 5.08594H10.8633C9.96094 5.08594 9.44531 5.625 9.44531 6.55078V11.8477H6.85547C6.42188 11.8477 6.11719 12.1641 6.11719 12.5859C6.11719 12.9023 6.24609 13.1602 6.51562 13.4531L11.2734 18.5039C11.4961 18.7383 11.7539 18.8203 11.9531 18.8203Z" fill="black" fill-opacity="0.85"/>
</svg>
