<svg width="24" height="24" viewBox="0 0 24 24" fill="none" xmlns="http://www.w3.org/2000/svg">
<path d="M11.9531 23.9062C18.4922 23.9062 23.9062 18.4805 23.9062 11.9531C23.9062 5.41406 18.4805 0 11.9414 0C5.41406 0 0 5.41406 0 11.9531C0 18.4805 5.42578 23.9062 11.9531 23.9062Z" fill="#FFCC00"/>
<path d="M11.9766 4.42969C12.2344 4.42969 12.4336 4.54688 12.6797 4.78125L16.1836 8.26172C16.3477 8.41406 16.4297 8.63672 16.4297 8.89453C16.4297 9.38672 16.0547 9.76172 15.5508 9.76172C15.2812 9.76172 15.0703 9.65625 14.9062 9.50391L14.0039 8.58984L12.7852 7.13672L12.8906 9.69141V14.2148L12.7852 16.7695L14.0039 15.3164L14.9062 14.4023C15.0703 14.2383 15.2812 14.1445 15.5508 14.1445C16.0547 14.1445 16.4297 14.5195 16.4297 15.0117C16.4297 15.2578 16.3477 15.4922 16.1836 15.6445L12.6797 19.125C12.4336 19.3594 12.2344 19.4766 11.9766 19.4766C11.707 19.4766 11.4961 19.3594 11.2617 19.125L7.76953 15.6445C7.60547 15.4922 7.51172 15.2578 7.51172 15.0117C7.51172 14.5195 7.89844 14.1445 8.40234 14.1445C8.67188 14.1445 8.88281 14.2266 9.04688 14.4023L9.9375 15.3164L11.168 16.7812L11.0625 14.2148V9.69141L11.168 7.125L9.9375 8.58984L9.04688 9.50391C8.88281 9.66797 8.67188 9.76172 8.40234 9.76172C7.89844 9.76172 7.51172 9.38672 7.51172 8.89453C7.51172 8.63672 7.60547 8.41406 7.76953 8.26172L11.2617 4.78125C11.4961 4.54688 11.707 4.42969 11.9766 4.42969Z" fill="black" fill-opacity="0.85"/>
</svg>
