<svg width="24" height="24" viewBox="0 0 24 24" fill="none" xmlns="http://www.w3.org/2000/svg">
<path d="M11.9531 23.9062C18.4922 23.9062 23.9062 18.4805 23.9062 11.9531C23.9062 5.41406 18.4805 0 11.9414 0C5.41406 0 0 5.41406 0 11.9531C0 18.4805 5.42578 23.9062 11.9531 23.9062Z" fill="#FFCC00"/>
<path d="M4.35938 11.9648C4.35938 11.4961 4.69922 11.1562 5.16797 11.1562H10.6992L12.9141 11.2852L10.4531 9.10546L9.70312 8.36719C9.52734 8.21484 9.45703 7.99219 9.45703 7.76953C9.45703 7.3125 9.82031 6.99609 10.2656 6.99609C10.4766 6.99609 10.6875 7.06641 10.8633 7.25391L15.0352 11.3438C15.1992 11.5312 15.3047 11.7305 15.3047 11.9648C15.3047 12.1875 15.2227 12.3984 15.0352 12.5742L10.875 16.6289C10.7109 16.793 10.4531 16.8984 10.2656 16.8984C9.79688 16.8984 9.45703 16.582 9.45703 16.1133C9.45703 15.8672 9.52734 15.668 9.70312 15.5273L10.4648 14.8242L12.9258 12.6445L10.6992 12.7852H5.16797C4.69922 12.7852 4.35938 12.457 4.35938 11.9648ZM17.0273 17.2852C16.5703 17.2852 16.2305 16.957 16.2305 16.4883V7.40625C16.2305 6.9375 16.5703 6.60938 17.0273 6.60938C17.5195 6.60938 17.8594 6.9375 17.8594 7.40625V16.4883C17.8594 16.957 17.5195 17.2852 17.0273 17.2852Z" fill="black" fill-opacity="0.85"/>
</svg>
