<svg width="22" height="23" viewBox="0 0 22 23" fill="none" xmlns="http://www.w3.org/2000/svg">
<path d="M10.8017 22.2773C11.4579 22.2773 11.8212 21.8438 11.8212 21.0352V14.3086C11.8212 11.4961 14.9384 7.41801 17.8212 5.57816L18.7587 4.96879C19.0868 4.76957 19.2626 4.40629 19.2626 4.05473C19.2626 3.48051 18.8642 3.08207 18.2665 3.08207C17.9736 3.08207 17.6572 3.18754 17.3759 3.37504L16.7548 3.7852C13.9072 5.68363 11.1767 9.28129 10.8134 11.0977H10.7783C10.415 9.26957 7.69622 5.68363 4.84856 3.7852L4.22747 3.37504C3.9345 3.18754 3.62981 3.08207 3.32513 3.08207C2.72747 3.08207 2.34075 3.51566 2.34075 4.04301C2.34075 4.39457 2.51653 4.76957 2.84466 4.96879L3.78216 5.57816C6.65325 7.41801 9.78216 11.4961 9.78216 14.3086V21.0352C9.78216 21.8438 10.1454 22.2773 10.8017 22.2773ZM2.73919 7.00785L6.02044 2.75395C6.52435 2.0977 6.20794 1.57035 5.42278 1.5352L0.864189 1.33598C0.207939 1.30082 -0.143624 1.73442 0.0555953 2.37895L1.40325 6.7266C1.63763 7.50004 2.22356 7.67582 2.73919 7.00785ZM18.7236 6.99613C19.2158 7.67582 19.8134 7.52348 20.0595 6.76176L21.5361 2.44926C21.747 1.81645 21.4072 1.37113 20.7626 1.38285L16.1923 1.45316C15.4072 1.46488 15.079 1.98051 15.5595 2.64848L18.7236 6.99613Z" fill="black" fill-opacity="0.85"/>
</svg>
