<svg width="24" height="24" viewBox="0 0 24 24" fill="none" xmlns="http://www.w3.org/2000/svg">
<path d="M11.9531 23.9062C18.4922 23.9062 23.9062 18.4805 23.9062 11.9531C23.9062 5.41406 18.4805 0 11.9414 0C5.41406 0 0 5.41406 0 11.9531C0 18.4805 5.42578 23.9062 11.9531 23.9062ZM11.9531 21.9141C6.42188 21.9141 2.00391 17.4844 2.00391 11.9531C2.00391 6.42188 6.41016 1.99219 11.9414 1.99219C17.4727 1.99219 21.9141 6.42188 21.9141 11.9531C21.9141 17.4844 17.4844 21.9141 11.9531 21.9141Z" fill="#007AFF"/>
<path d="M17.9648 11.9414C17.9648 11.6836 17.8711 11.4961 17.6367 11.2617L13.6758 7.27734C13.5234 7.125 13.3125 7.04297 13.0664 7.04297C12.5859 7.04297 12.2227 7.40625 12.2227 7.88672C12.2227 8.14453 12.3281 8.35547 12.4805 8.51953L13.9453 9.97266L15.3633 11.1562L12.8906 11.0625H6.77344C6.26953 11.0625 5.89453 11.4258 5.89453 11.9414C5.89453 12.4453 6.26953 12.8086 6.77344 12.8086H12.8906L15.3633 12.7266L13.9453 13.9102L12.4805 15.3633C12.3164 15.5156 12.2227 15.7266 12.2227 15.9844C12.2227 16.4648 12.5859 16.8398 13.0664 16.8398C13.3125 16.8398 13.5234 16.7461 13.6758 16.5938L17.6367 12.6211C17.8594 12.4102 17.9648 12.1992 17.9648 11.9414Z" fill="black" fill-opacity="0.85"/>
</svg>
