<svg width="22" height="22" viewBox="0 0 22 22" fill="none" xmlns="http://www.w3.org/2000/svg">
<path d="M3.67969 21.5977H17.8945C20.3555 21.5977 21.5742 20.3789 21.5742 17.9648V3.65625C21.5742 1.24219 20.3555 0.0234375 17.8945 0.0234375H3.67969C1.23047 0.0234375 0 1.23047 0 3.65625V17.9648C0 20.3906 1.23047 21.5977 3.67969 21.5977ZM3.70312 19.7109C2.53125 19.7109 1.88672 19.0898 1.88672 17.8711V3.75C1.88672 2.53125 2.53125 1.91016 3.70312 1.91016H17.8711C19.0312 1.91016 19.6875 2.53125 19.6875 3.75V17.8711C19.6875 19.0898 19.0312 19.7109 17.8711 19.7109H3.70312Z" fill="#007AFF"/>
<path d="M10.8047 16.6523C11.3203 16.6523 11.6836 16.2891 11.6836 15.7734V9.91406L11.5898 7.42969L12.7852 8.84766L14.168 10.2539C14.3203 10.418 14.5312 10.5117 14.7891 10.5117C15.2695 10.5117 15.6445 10.1367 15.6445 9.66797C15.6445 9.42188 15.5625 9.21094 15.3984 9.05859L11.4961 5.15625C11.2734 4.93359 11.0742 4.82812 10.8047 4.82812C10.5586 4.82812 10.3594 4.92188 10.125 5.15625L6.21094 9.05859C6.05859 9.21094 5.98828 9.42188 5.98828 9.66797C5.98828 10.1367 6.35156 10.5117 6.83203 10.5117C7.08984 10.5117 7.30078 10.4062 7.45312 10.2539L8.84766 8.84766L10.0195 7.44141L9.92578 9.91406V15.7734C9.92578 16.2891 10.3008 16.6523 10.8047 16.6523Z" fill="black" fill-opacity="0.85"/>
</svg>
