<svg width="43" height="28" viewBox="0 0 43 28" fill="none" xmlns="http://www.w3.org/2000/svg">
<path d="M16.8984 12.8438H25.2188C26.4961 12.8438 27.4922 11.8594 27.4922 10.5703V2.28516C27.4922 0.996094 26.4961 0 25.2188 0H16.8984C15.6211 0 14.6484 0.996094 14.6484 2.28516V10.5703C14.6484 11.8594 15.6211 12.8438 16.8984 12.8438ZM16.8984 11.1914C16.5586 11.1914 16.3008 10.9219 16.3008 10.5703V2.28516C16.3008 1.92188 16.5586 1.65234 16.8984 1.65234H25.2188C25.5703 1.65234 25.8398 1.92188 25.8398 2.28516V10.5703C25.8398 10.9219 25.5703 11.1914 25.2188 11.1914H16.8984ZM2.25 27.4922H10.5703C11.8477 27.4922 12.8438 26.4961 12.8438 25.207V16.9336C12.8438 15.6445 11.8477 14.6367 10.5703 14.6367H2.25C0.972656 14.6367 0 15.6445 0 16.9336V25.207C0 26.4961 0.972656 27.4922 2.25 27.4922ZM2.25 25.8398C1.91016 25.8398 1.65234 25.5703 1.65234 25.207V16.9336C1.65234 16.5586 1.91016 16.2891 2.25 16.2891H10.5703C10.9219 16.2891 11.1914 16.5586 11.1914 16.9336V25.207C11.1914 25.5703 10.9219 25.8398 10.5703 25.8398H2.25ZM16.8984 27.4922H25.2188C26.4961 27.4922 27.4922 26.4961 27.4922 25.207V16.9336C27.4922 15.6445 26.4961 14.6367 25.2188 14.6367H16.8984C15.6211 14.6367 14.6484 15.6445 14.6484 16.9336V25.207C14.6484 26.4961 15.6211 27.4922 16.8984 27.4922ZM16.8984 25.8398C16.5586 25.8398 16.3008 25.5703 16.3008 25.207V16.9336C16.3008 16.5586 16.5586 16.2891 16.8984 16.2891H25.2188C25.5703 16.2891 25.8398 16.5586 25.8398 16.9336V25.207C25.8398 25.5703 25.5703 25.8398 25.2188 25.8398H16.8984Z" fill="#007AFF"/>
<path d="M31.5586 27.4922H39.8789C41.1562 27.4922 42.1289 26.4961 42.1289 25.207V16.9336C42.1289 15.6445 41.1562 14.6367 39.8789 14.6367H31.5586C30.2812 14.6367 29.2852 15.6445 29.2852 16.9336V25.207C29.2852 26.4961 30.2812 27.4922 31.5586 27.4922Z" fill="#FFCC00"/>
<path d="M33.2344 23.7772V18.3397C33.2344 17.8476 33.832 17.5311 34.3242 17.8124L38.8242 20.4726C39.2695 20.7421 39.2578 21.4218 38.8125 21.6796L34.3242 24.3163C33.832 24.5976 33.2344 24.2811 33.2344 23.7772Z" fill="black" fill-opacity="0.85"/>
</svg>
