<svg width="24" height="24" viewBox="0 0 24 24" fill="none" xmlns="http://www.w3.org/2000/svg">
<path d="M11.9531 23.9062C18.4922 23.9062 23.9062 18.4805 23.9062 11.9531C23.9062 5.41406 18.4805 0 11.9414 0C5.41406 0 0 5.41406 0 11.9531C0 18.4805 5.42578 23.9062 11.9531 23.9062ZM11.9531 21.9141C6.42188 21.9141 2.00391 17.4844 2.00391 11.9531C2.00391 6.42188 6.41016 1.99219 11.9414 1.99219C17.4727 1.99219 21.9141 6.42188 21.9141 11.9531C21.9141 17.4844 17.4844 21.9141 11.9531 21.9141Z" fill="#007AFF"/>
<path d="M6.11719 16.9922C6.38672 16.9922 6.67969 16.9219 6.89062 16.5234C7.99219 14.4609 9.52734 13.8398 11.9766 13.8398H12.1641V16.2539C12.1641 16.6758 12.4688 16.9922 12.8906 16.9922C13.207 16.9922 13.4531 16.8516 13.7461 16.582L18.7266 11.8945C18.9727 11.6719 19.0547 11.4258 19.0547 11.2148C19.0547 11.0039 18.9727 10.7578 18.7266 10.5352L13.7461 5.88281C13.418 5.57812 13.2188 5.4375 12.9023 5.4375C12.4688 5.4375 12.1641 5.78906 12.1641 6.21094V8.60156H11.9766C7.46484 8.60156 5.47266 11.4844 5.47266 16.1484C5.47266 16.6992 5.78906 16.9922 6.11719 16.9922Z" fill="black" fill-opacity="0.85"/>
</svg>
