<svg width="20" height="26" viewBox="0 0 20 26" fill="none" xmlns="http://www.w3.org/2000/svg">
<path d="M3.63281 25.125H16.0781C18.5039 25.125 19.7109 23.8945 19.7109 21.457V10.8164H11.2266C9.72656 10.8164 9.01172 10.1016 9.01172 8.60156V0H3.63281C1.21875 0 0 1.24219 0 3.67969V21.457C0 23.9062 1.20703 25.125 3.63281 25.125ZM11.2617 9.21094H19.5703C19.5 8.73047 19.1602 8.26172 18.5977 7.6875L12.1406 1.11328C11.5898 0.550781 11.1094 0.210938 10.6172 0.128906V8.57812C10.6172 9 10.8281 9.21094 11.2617 9.21094Z" fill="#FFCC00"/>
<path d="M9.85547 12.9727C10.3242 12.9727 10.7227 13.3477 10.7227 13.8047V17.9531L10.6406 19.793L11.625 18.7969L12.6445 17.7539C12.8086 17.5898 13.0312 17.4961 13.2539 17.4961C13.7109 17.4961 14.0508 17.8242 14.0508 18.2695C14.0508 18.5273 13.9453 18.7266 13.7695 18.8789L10.4883 21.9023C10.2539 22.1133 10.0664 22.1953 9.85547 22.1953C9.64453 22.1953 9.45703 22.1133 9.22266 21.9023L5.94141 18.8789C5.76562 18.7266 5.66016 18.5273 5.66016 18.2695C5.66016 17.8242 5.98828 17.4961 6.45703 17.4961C6.66797 17.4961 6.90234 17.5898 7.06641 17.7539L8.08594 18.7969L9.07031 19.793L9 17.9531V13.8047C9 13.3477 9.38672 12.9727 9.85547 12.9727Z" fill="black" fill-opacity="0.85"/>
</svg>
