<svg width="26" height="29" viewBox="0 0 26 29" fill="none" xmlns="http://www.w3.org/2000/svg">
<path d="M0.412633 21.3281C2.13529 24.293 8.0767 23.4375 15.4946 19.1602C22.9009 14.8945 26.6275 10.1836 24.9048 7.20699C23.1821 4.24215 17.2407 5.09762 9.84623 9.36324C2.42826 13.6758 -1.27486 18.3633 0.412633 21.3281ZM1.92436 20.4609C0.775914 18.4922 4.24467 14.7539 10.7837 10.9805C17.2642 7.23043 22.2564 6.09371 23.3931 8.0859C24.5532 10.043 21.0728 13.793 14.5806 17.5312C8.05326 21.3047 3.07279 22.4414 1.92436 20.4609Z" fill="black" fill-opacity="0.85"/>
<path d="M24.9039 21.3281C26.6031 18.3633 22.8883 13.6758 15.4703 9.36324C8.07577 5.09762 2.14608 4.24215 0.411707 7.20699C-1.29923 10.1836 2.41561 14.8945 9.82186 19.1602C17.2516 23.4375 23.193 24.293 24.9039 21.3281ZM23.3922 20.4609C22.2555 22.4414 17.275 21.3047 10.7476 17.5312C4.24374 13.793 0.76327 10.043 1.92343 8.0859C3.06014 6.09371 8.06405 7.23043 14.5445 10.9805C21.0719 14.7539 24.5406 18.4922 23.3922 20.4609Z" fill="black" fill-opacity="0.85"/>
<path d="M12.6582 28.2773C16.0918 28.2773 18.3184 22.6875 18.3184 14.1328C18.3184 5.61328 16.0918 0.0234375 12.6582 0.0234375C9.22462 0.0234375 6.99805 5.61328 6.99805 14.1328C6.99805 22.6875 9.22462 28.2773 12.6582 28.2773ZM12.6582 26.5547C10.373 26.5547 8.86134 21.6562 8.86134 14.1328C8.86134 6.62109 10.373 1.74609 12.6582 1.74609C14.9551 1.74609 16.4668 6.62109 16.4668 14.1328C16.4668 21.6562 14.9551 26.5547 12.6582 26.5547Z" fill="black" fill-opacity="0.85"/>
<path d="M12.6699 16.6406C14.041 16.6406 15.1543 15.5273 15.1543 14.1445C15.1543 12.7734 14.041 11.6602 12.6699 11.6602C11.2871 11.6602 10.1738 12.7734 10.1738 14.1445C10.1738 15.5273 11.2871 16.6406 12.6699 16.6406Z" fill="black" fill-opacity="0.85"/>
</svg>
