<svg width="22" height="22" viewBox="0 0 22 22" fill="none" xmlns="http://www.w3.org/2000/svg">
<path d="M3.67969 21.5977H17.8945C20.3555 21.5977 21.5742 20.3789 21.5742 17.9648V3.65625C21.5742 1.24219 20.3555 0.0234375 17.8945 0.0234375H3.67969C1.23047 0.0234375 0 1.23047 0 3.65625V17.9648C0 20.3906 1.23047 21.5977 3.67969 21.5977ZM3.70312 19.7109C2.53125 19.7109 1.88672 19.0898 1.88672 17.8711V3.75C1.88672 2.53125 2.53125 1.91016 3.70312 1.91016H17.8711C19.0312 1.91016 19.6875 2.53125 19.6875 3.75V17.8711C19.6875 19.0898 19.0312 19.7109 17.8711 19.7109H3.70312Z" fill="#007AFF"/>
<path d="M4.99169 16.1484C5.35497 16.1484 5.68309 15.9609 5.77684 15.5273L7.4995 7.47656H7.58153L9.36278 15.5273C9.45653 15.9609 9.77294 16.1484 10.1362 16.1484C10.5815 16.1484 10.9917 15.8203 10.8276 15.1289L8.6245 6.10547C8.49559 5.56641 8.12059 5.25 7.59325 5.25C7.07762 5.25 6.66747 5.57812 6.53856 6.10547L4.26512 15.1289C4.08934 15.8203 4.54638 16.1484 4.99169 16.1484ZM5.68309 13.3125H9.42138V12.1172H5.68309V13.3125ZM14.2026 15.6094C15.8901 15.6094 17.0503 14.6367 17.0503 13.0312C17.0503 11.8945 16.4409 11.0859 15.0464 10.3594L14.0034 9.80859C13.394 9.49219 12.7612 9.09375 12.7612 8.32031C12.7612 7.59375 13.312 7.125 14.1206 7.125C14.9995 7.125 15.4448 7.6875 15.5034 8.48438C15.5386 8.85938 15.8433 9.08203 16.1597 9.08203C16.5581 9.08203 16.9448 8.77734 16.8511 8.13281C16.687 6.85547 15.7261 5.88281 14.1206 5.88281C12.5151 5.88281 11.3315 6.86719 11.3315 8.37891C11.3315 9.65625 12.0581 10.4766 13.2886 11.0859L14.2964 11.5898C14.9643 11.918 15.6206 12.4336 15.6206 13.1367C15.6206 13.875 15.105 14.3672 14.2026 14.3672C13.1831 14.3672 12.7378 13.8516 12.6557 12.9961C12.6089 12.5977 12.3393 12.3984 12.0229 12.3984C11.6128 12.3984 11.2378 12.7383 11.3315 13.3477C11.519 14.6953 12.5503 15.6094 14.2026 15.6094ZM14.1909 16.8633C14.437 16.8633 14.6714 16.6406 14.6714 16.3828V5.14453C14.6714 4.875 14.437 4.65234 14.1909 4.65234C13.9214 4.65234 13.6987 4.875 13.6987 5.14453V16.3828C13.6987 16.6406 13.9214 16.8633 14.1909 16.8633Z" fill="black" fill-opacity="0.85"/>
</svg>
