<svg width="22" height="22" viewBox="0 0 22 22" fill="none" xmlns="http://www.w3.org/2000/svg">
<path d="M3.67969 21.5977H17.8945C20.3555 21.5977 21.5742 20.3789 21.5742 17.9648V3.65625C21.5742 1.24219 20.3555 0.0234375 17.8945 0.0234375H3.67969C1.23047 0.0234375 0 1.23047 0 3.65625V17.9648C0 20.3906 1.23047 21.5977 3.67969 21.5977ZM3.70312 19.7109C2.53125 19.7109 1.88672 19.0898 1.88672 17.8711V3.75C1.88672 2.53125 2.53125 1.91016 3.70312 1.91016H17.8711C19.0312 1.91016 19.6875 2.53125 19.6875 3.75V17.8711C19.6875 19.0898 19.0312 19.7109 17.8711 19.7109H3.70312Z" fill="#007AFF"/>
<path d="M6.02344 13.207C6.02344 13.5352 6.24609 13.7812 6.59766 13.7812H7.23047L6.65625 15.5039C6.59766 15.6797 6.58594 15.7969 6.58594 15.8906C6.58594 16.2891 6.90234 16.582 7.34766 16.582C7.71094 16.582 7.96875 16.4062 8.08594 16.0078L8.78906 13.7812H12.7852L13.4883 16.0195C13.6055 16.418 13.8398 16.582 14.2266 16.582C14.6719 16.582 14.9883 16.2891 14.9883 15.8906C14.9883 15.7969 14.9648 15.6797 14.9062 15.5039L14.332 13.7812H14.9766C15.3281 13.7812 15.5508 13.5352 15.5508 13.207C15.5508 12.8789 15.3281 12.6211 14.9766 12.6211H13.957L13.6289 11.6367H14.9766C15.3281 11.6367 15.5508 11.3789 15.5508 11.0508C15.5508 10.7227 15.3281 10.4766 14.9766 10.4766H13.2422L11.6836 5.78906C11.543 5.36719 11.2617 5.10938 10.7812 5.10938C10.3008 5.10938 10.0078 5.35547 9.86719 5.78906L8.32031 10.4766H6.59766C6.24609 10.4766 6.02344 10.7227 6.02344 11.0508C6.02344 11.3789 6.24609 11.6367 6.59766 11.6367H7.93359L7.60547 12.6211H6.59766C6.24609 12.6211 6.02344 12.8789 6.02344 13.207ZM9.14062 12.6211L9.44531 11.6367H12.1172L12.4336 12.6211H9.14062ZM9.79688 10.4766L10.7812 7.33594L11.7656 10.4766H9.79688Z" fill="black" fill-opacity="0.85"/>
</svg>
