<svg width="24" height="24" viewBox="0 0 24 24" fill="none" xmlns="http://www.w3.org/2000/svg">
<path d="M11.9531 23.9062C18.4922 23.9062 23.9062 18.4805 23.9062 11.9531C23.9062 5.41406 18.4805 0 11.9414 0C5.41406 0 0 5.41406 0 11.9531C0 18.4805 5.42578 23.9062 11.9531 23.9062Z" fill="#FFCC00"/>
<path d="M7.03125 14.4492C7.03125 14.1094 7.25391 13.8398 7.61719 13.8398H8.66016L9 12.8203H7.61719C7.25391 12.8203 7.03125 12.5625 7.03125 12.2227C7.03125 11.8828 7.25391 11.625 7.61719 11.625H9.39844L10.9922 6.78516C11.1445 6.33984 11.4258 6.08203 11.9414 6.08203C12.4336 6.08203 12.7266 6.35156 12.8789 6.78516L14.4844 11.625H16.2773C16.6406 11.625 16.8633 11.8828 16.8633 12.2227C16.8633 12.5625 16.6406 12.8203 16.2773 12.8203H14.8828L15.2227 13.8398H16.2773C16.6406 13.8398 16.8633 14.1094 16.8633 14.4492C16.8633 14.7891 16.6406 15.0352 16.2773 15.0352H15.5977L16.1953 16.8047C16.2539 16.9922 16.2891 17.1094 16.2891 17.2148C16.2891 17.625 15.9609 17.9297 15.4922 17.9297C15.0938 17.9297 14.8477 17.7539 14.7305 17.3438L14.0039 15.0352H9.89062L9.16406 17.332C9.04688 17.7422 8.77734 17.9297 8.39062 17.9297C7.92188 17.9297 7.60547 17.625 7.60547 17.2148C7.60547 17.1094 7.61719 16.9922 7.67578 16.8047L8.27344 15.0352H7.61719C7.25391 15.0352 7.03125 14.7891 7.03125 14.4492ZM10.2422 13.8398H13.6406L13.3125 12.8203H10.5703L10.2422 13.8398ZM10.9336 11.625H12.9492L11.9414 8.39062L10.9336 11.625Z" fill="black" fill-opacity="0.85"/>
</svg>
