<svg width="18" height="22" viewBox="0 0 18 22" fill="none" xmlns="http://www.w3.org/2000/svg">
<path d="M1.99219 21.8555C2.55469 21.8555 2.90625 21.5859 3.08203 21L8.70703 2.97656H8.78906L14.4258 21.0117C14.6016 21.5977 14.9414 21.8555 15.5273 21.8555C16.1719 21.8555 16.6406 21.4336 16.6406 20.8594C16.6406 20.7188 16.6055 20.5078 16.5117 20.2266L10.1836 1.14844C9.96094 0.492188 9.51562 0.0703125 8.76562 0.0703125C7.98047 0.0703125 7.53516 0.480469 7.3125 1.14844L0.984375 20.2383C0.890625 20.5195 0.867188 20.7188 0.867188 20.8594C0.867188 21.4336 1.33594 21.8555 1.99219 21.8555ZM0 11.3789C0 11.8008 0.339844 12.1406 0.761719 12.1406H16.7344C17.1562 12.1406 17.4961 11.8008 17.4961 11.3789C17.4961 10.957 17.1562 10.6172 16.7344 10.6172H0.761719C0.339844 10.6172 0 10.957 0 11.3789ZM0 15.5859C0 16.0078 0.339844 16.3477 0.761719 16.3477H16.7344C17.1562 16.3477 17.4961 16.0078 17.4961 15.5859C17.4961 15.1641 17.1562 14.8242 16.7344 14.8242H0.761719C0.339844 14.8242 0 15.1641 0 15.5859Z" fill="black" fill-opacity="0.85"/>
</svg>
