<svg width="22" height="22" viewBox="0 0 22 22" fill="none" xmlns="http://www.w3.org/2000/svg">
<path d="M3.67969 21.5977H17.8945C20.3555 21.5977 21.5742 20.3789 21.5742 17.9648V3.65625C21.5742 1.24219 20.3555 0.0234375 17.8945 0.0234375H3.67969C1.23047 0.0234375 0 1.23047 0 3.65625V17.9648C0 20.3906 1.23047 21.5977 3.67969 21.5977Z" fill="#FFCC00"/>
<path d="M4.0663 15.2695L6.41005 5.96484C6.55067 5.41406 6.96083 5.07422 7.51161 5.07422C8.03895 5.07422 8.43739 5.40234 8.57801 5.96484L10.8397 15.2695C11.0038 15.9844 10.5819 16.3242 10.1132 16.3242C9.73817 16.3242 9.41005 16.125 9.3163 15.6797L8.81239 13.3945H6.11708L5.62489 15.6797C5.53114 16.125 5.1913 16.3242 4.82801 16.3242C4.37098 16.3242 3.8788 15.9844 4.0663 15.2695ZM6.37489 12.1641H8.55458L7.48817 7.38281H7.39442L6.37489 12.1641ZM14.3085 17.0625C14.0272 17.0625 13.7929 16.8281 13.7929 16.5586V15.7266C12.3866 15.5625 11.5194 14.6719 11.3554 13.4297C11.2499 12.7969 11.6601 12.4453 12.0702 12.4453C12.3983 12.4453 12.6796 12.6562 12.7265 13.0664C12.7851 13.793 13.1249 14.2734 13.7929 14.4141V11.3086L13.371 11.0977C12.1054 10.4531 11.3554 9.62109 11.3554 8.30859C11.3554 6.90234 12.3632 5.91797 13.7929 5.75391V4.96875C13.7929 4.6875 14.0272 4.45312 14.3085 4.45312C14.5663 4.45312 14.8007 4.6875 14.8007 4.96875V5.76562C16.1249 5.97657 16.9101 6.87892 17.0624 8.05079C17.1561 8.71876 16.746 9.03516 16.3358 9.03516C16.0077 9.03516 15.703 8.80078 15.6679 8.41406C15.621 7.78125 15.3397 7.30078 14.8007 7.11328V10.1367L15.1991 10.3477C16.6171 11.1211 17.2499 11.9297 17.2499 13.1016C17.2499 14.6016 16.2772 15.5625 14.8007 15.7383V16.5586C14.8007 16.8281 14.5663 17.0625 14.3085 17.0625ZM12.8437 8.25C12.8437 8.88281 13.2304 9.23438 13.6991 9.52734L13.7929 9.58595V7.07812C13.2069 7.20704 12.8437 7.64062 12.8437 8.25ZM15.7733 13.207C15.7733 12.6445 15.4101 12.2109 14.8827 11.8945L14.8007 11.8477V14.4141C15.4218 14.2734 15.7733 13.8281 15.7733 13.207Z" fill="black" fill-opacity="0.85"/>
</svg>
