<svg width="24" height="24" viewBox="0 0 24 24" fill="none" xmlns="http://www.w3.org/2000/svg">
<path d="M11.9531 23.9062C18.4922 23.9062 23.9062 18.4805 23.9062 11.9531C23.9062 5.41406 18.4805 0 11.9414 0C5.41406 0 0 5.41406 0 11.9531C0 18.4805 5.42578 23.9062 11.9531 23.9062Z" fill="#FFCC00"/>
<path d="M5.22718 16.4297L7.55921 7.125C7.69984 6.57422 8.12171 6.23438 8.6725 6.23438C9.19984 6.23438 9.59828 6.5625 9.72718 7.125L12.0006 16.4297C12.1647 17.1445 11.7428 17.4844 11.274 17.4844C10.899 17.4844 10.5709 17.2852 10.4772 16.8398L9.96156 14.5547H7.27796L6.78578 16.8398C6.69203 17.2852 6.35218 17.4844 5.97718 17.4844C5.52015 17.4844 5.03968 17.1445 5.22718 16.4297ZM7.53578 13.3242H9.71546L8.64906 8.54297H8.55531L7.53578 13.3242ZM15.4694 18.2227C15.1881 18.2227 14.9537 17.9883 14.9537 17.7188V16.8867C13.5475 16.7227 12.6803 15.832 12.5162 14.5898C12.4108 13.957 12.8092 13.6055 13.2311 13.6055C13.5592 13.6055 13.8404 13.8164 13.8873 14.2266C13.9459 14.9531 14.2858 15.4336 14.9537 15.5742V12.4688L14.5318 12.2578C13.2662 11.6133 12.5162 10.7812 12.5162 9.46875C12.5162 8.0625 13.524 7.07812 14.9537 6.91406V6.12891C14.9537 5.84766 15.1881 5.61328 15.4694 5.61328C15.7272 5.61328 15.9615 5.84766 15.9615 6.12891V6.92578C17.2858 7.13672 18.0592 8.03906 18.2115 9.21094C18.3053 9.87891 17.9068 10.1953 17.4967 10.1953C17.1686 10.1953 16.8522 9.96094 16.817 9.57422C16.7701 8.94141 16.4889 8.46094 15.9615 8.27344V11.2969L16.3483 11.5078C17.7779 12.2812 18.4108 13.0898 18.4108 14.2617C18.4108 15.7617 17.4264 16.7227 15.9615 16.8984V17.7188C15.9615 17.9883 15.7272 18.2227 15.4694 18.2227ZM14.0045 9.41016C14.0045 10.043 14.3912 10.3945 14.86 10.6875L14.9537 10.7461V8.23828C14.3678 8.36719 14.0045 8.80078 14.0045 9.41016ZM16.9342 14.3672C16.9342 13.8047 16.5709 13.3711 16.0318 13.0547L15.9615 13.0078V15.5742C16.5826 15.4336 16.9342 14.9883 16.9342 14.3672Z" fill="black" fill-opacity="0.85"/>
</svg>
