<svg width="24" height="24" viewBox="0 0 24 24" fill="none" xmlns="http://www.w3.org/2000/svg">
<path d="M11.9531 23.9062C18.4922 23.9062 23.9062 18.4805 23.9062 11.9531C23.9062 5.41406 18.4805 0 11.9414 0C5.41406 0 0 5.41406 0 11.9531C0 18.4805 5.42578 23.9062 11.9531 23.9062Z" fill="#FFCC00"/>
<path d="M5.22522 16.4297L7.55725 7.125C7.69788 6.57422 8.11975 6.23438 8.67054 6.23438C9.19788 6.23438 9.59632 6.5625 9.72522 7.125L11.9987 16.4297C12.1628 17.1445 11.7409 17.4844 11.2721 17.4844C10.8971 17.4844 10.569 17.2852 10.4753 16.8398L9.9596 14.5547H7.276L6.78382 16.8398C6.69007 17.2852 6.35022 17.4844 5.97522 17.4844C5.51819 17.4844 5.03772 17.1445 5.22522 16.4297ZM7.53382 13.3242H9.7135L8.6471 8.54297H8.55335L7.53382 13.3242ZM15.4675 18.2227C15.1862 18.2227 14.9518 17.9883 14.9518 17.7188V16.8867C13.5456 16.7227 12.6784 15.832 12.5143 14.5898C12.4089 13.957 12.8073 13.6055 13.2292 13.6055C13.5573 13.6055 13.8385 13.8164 13.8854 14.2266C13.944 14.9531 14.2839 15.4336 14.9518 15.5742V12.4688L14.5299 12.2578C13.2643 11.6133 12.5143 10.7812 12.5143 9.46875C12.5143 8.0625 13.5221 7.07812 14.9518 6.91406V6.12891C14.9518 5.84766 15.1862 5.61328 15.4675 5.61328C15.7253 5.61328 15.9596 5.84766 15.9596 6.12891V6.92578C17.2839 7.13672 18.0573 8.03906 18.2096 9.21094C18.3034 9.87891 17.9049 10.1953 17.4948 10.1953C17.1667 10.1953 16.8503 9.96094 16.8151 9.57422C16.7682 8.94141 16.487 8.46094 15.9596 8.27344V11.2969L16.3464 11.5078C17.776 12.2812 18.4089 13.0898 18.4089 14.2617C18.4089 15.7617 17.4245 16.7227 15.9596 16.8984V17.7188C15.9596 17.9883 15.7253 18.2227 15.4675 18.2227ZM14.0026 9.41016C14.0026 10.043 14.3893 10.3945 14.8581 10.6875L14.9518 10.7461V8.23828C14.3659 8.36719 14.0026 8.80078 14.0026 9.41016ZM16.9323 14.3672C16.9323 13.8047 16.569 13.3711 16.0299 13.0547L15.9596 13.0078V15.5742C16.5807 15.4336 16.9323 14.9883 16.9323 14.3672Z" fill="black" fill-opacity="0.85"/>
</svg>
