<svg width="33" height="24" viewBox="0 0 33 24" fill="none" xmlns="http://www.w3.org/2000/svg">
<path d="M12.5859 6.84375V4.94531L0.785156 8.09766C0.292969 8.22656 0 8.58984 0 9.05859C0 9.67969 0.492188 10.0781 1.18359 9.90234L12.5859 6.84375ZM12.5859 11.0156V9.10547L0.785156 12.2695C0.292969 12.4102 0 12.7734 0 13.2422C0 13.8633 0.515625 14.2617 1.18359 14.0859L12.5859 11.0156ZM12.5859 15.2227V13.3008L0.785156 16.4531C0.292969 16.582 0 16.957 0 17.4141C0 18.0469 0.492188 18.4453 1.18359 18.2578L12.5859 15.2227ZM12.5859 19.3945V17.4844L0.785156 20.6367C0.292969 20.7656 0 21.1289 0 21.5977C0 22.2305 0.503906 22.6289 1.18359 22.4414L12.5859 19.3945Z" fill="#FFCC00"/>
<path d="M9.22266 11.8359C9.22266 14.1562 9.41016 16.5234 10.0898 18.9141C11.0625 22.2773 13.2656 23.6484 16.9336 23.6484H17.5898C25.4531 23.6484 32.6133 18.3984 32.6133 11.8359C32.6133 5.28516 25.4766 0 17.5898 0H16.9336C13.2773 0 11.0742 1.39453 10.0898 4.73438C9.41016 7.14844 9.22266 9.51562 9.22266 11.8359Z" fill="white"/>
<path d="M11.3203 11.8359C11.3203 14.0391 11.4727 16.1836 12.0938 18.3398C12.7969 20.7305 14.1211 21.5859 16.9336 21.5859H17.6016C24.457 21.5859 30.5391 17.0977 30.5391 11.8359C30.5391 6.58594 24.457 2.08594 17.6016 2.08594H16.9336C14.1328 2.08594 12.8086 2.94141 12.0938 5.33203C11.4727 7.5 11.3203 9.64453 11.3203 11.8359Z" fill="#FFCC00"/>
<path d="M16.4062 16.3945C15.9023 16.3945 15.5859 16.0898 15.5859 15.6211C15.5859 15.457 15.6211 15.293 15.7148 15.0586L18.75 6.85547C18.9727 6.28125 19.3711 5.98828 19.9688 5.98828C20.5664 5.98828 21 6.28125 21.2109 6.85547L24.2578 15.0586C24.3398 15.293 24.375 15.457 24.375 15.6211C24.375 16.0898 24.0469 16.3945 23.5547 16.3945C23.1562 16.3945 22.875 16.1953 22.7109 15.6914L21.9258 13.3828H18.0469L17.25 15.6914C17.0859 16.1953 16.8047 16.3945 16.4062 16.3945ZM18.4805 12.0586H21.4805L20.0391 7.875H19.9336L18.4805 12.0586Z" fill="black" fill-opacity="0.85"/>
</svg>
