<svg width="33" height="24" viewBox="0 0 33 24" fill="none" xmlns="http://www.w3.org/2000/svg">
<path d="M0 5.29688C0 5.82421 0.433594 6.23438 0.9375 6.23438H12.8203C12.8203 5.3203 12.8203 4.83983 12.8203 4.35938H0.9375C0.433594 4.35938 0 4.79296 0 5.29688ZM0 9.64453C0 10.1602 0.445312 10.582 0.9375 10.582L12.8203 10.5938C12.8203 9.94921 12.8203 9.32812 12.8203 8.70703H0.9375C0.433594 8.70703 0 9.14062 0 9.64453ZM0 14.0156C0 14.5195 0.433594 14.9297 0.9375 14.9297H12.8203C12.8203 14.3203 12.8203 13.6992 12.8203 13.0664H0.9375C0.433594 13.0664 0 13.5 0 14.0156ZM0 18.3633C0 18.8672 0.433594 19.2773 0.9375 19.2773L12.8203 19.2891C12.8203 18.8438 12.8203 17.9648 12.8203 17.4258L0.9375 17.4141C0.433594 17.4141 0 17.8477 0 18.3633Z" fill="#FFCC00"/>
<path d="M9.15234 11.8359C9.15234 14.1562 9.33984 16.5234 10.0195 18.9141C10.9922 22.2773 13.1953 23.6484 16.8633 23.6484H17.5195C25.3828 23.6484 32.543 18.3984 32.543 11.8359C32.543 5.28516 25.4062 0 17.5195 0H16.8633C13.207 0 11.0039 1.39453 10.0195 4.73438C9.33984 7.14844 9.15234 9.51562 9.15234 11.8359Z" fill="white"/>
<path d="M11.25 11.8359C11.25 14.0391 11.4258 16.1719 12.0352 18.3398C12.7266 20.707 14.0625 21.5508 16.8633 21.5508H17.5195C24.3633 21.5508 30.4453 17.0859 30.4453 11.8359C30.4453 6.58594 24.3633 2.09766 17.5195 2.09766H16.8633C14.0742 2.09766 12.7383 2.95312 12.0352 5.32031C11.4258 7.5 11.25 9.63281 11.25 11.8359Z" fill="#FFCC00"/>
<path d="M16.3125 16.3945C15.8086 16.3945 15.4922 16.0898 15.4922 15.6211C15.4922 15.457 15.5273 15.293 15.6211 15.0586L18.6562 6.85547C18.8789 6.28125 19.2773 5.98828 19.875 5.98828C20.4727 5.98828 20.9062 6.28125 21.1172 6.85547L24.1641 15.0586C24.2461 15.293 24.2812 15.457 24.2812 15.6211C24.2812 16.0898 23.9531 16.3945 23.4609 16.3945C23.0625 16.3945 22.7812 16.1953 22.6172 15.6914L21.832 13.3828H17.9531L17.1562 15.6914C16.9922 16.1953 16.7109 16.3945 16.3125 16.3945ZM18.3867 12.0586H21.3867L19.9453 7.875H19.8398L18.3867 12.0586Z" fill="black" fill-opacity="0.85"/>
</svg>
