<svg width="27" height="27" viewBox="0 0 27 27" fill="none" xmlns="http://www.w3.org/2000/svg">
<path d="M1.07031 13.018C1.07031 16.9672 3.09765 20.4594 6.07421 22.686C6.58984 23.0844 7.24609 22.9555 7.52734 22.4751C7.82031 21.9946 7.67968 21.4321 7.19921 21.0805C4.6914 19.2876 3.07421 16.3579 3.06249 13.018C3.03906 7.48681 7.5039 3.05712 13.0235 3.05712C18.5547 3.05712 23.0078 7.48681 22.9844 13.018C22.9727 16.3579 21.3672 19.2876 18.8594 21.0805C18.3789 21.4321 18.2383 21.9946 18.5313 22.4751C18.8125 22.9555 19.4688 23.0844 19.9844 22.686C22.961 20.4594 24.9766 16.9672 24.9766 13.018C24.9766 6.479 19.5625 1.06494 13.0235 1.06494C6.49609 1.06494 1.07031 6.479 1.07031 13.018ZM22.0469 23.4946L18.3438 19.6274C17.7578 19.018 17.1953 19.2758 17.043 20.0376L16.1406 24.4438C16 25.1001 16.3985 25.4985 17.0664 25.4047L21.5664 24.7719C22.375 24.6547 22.6328 24.1157 22.0469 23.4946ZM9.17968 17.8227C9.60156 17.8227 9.89452 17.6118 10.0703 17.0727L10.9375 14.5766H15.1211L15.9766 17.0727C16.1641 17.6118 16.4571 17.8227 16.8789 17.8227C17.3946 17.8227 17.7461 17.4829 17.7461 17.0141C17.7461 16.8266 17.711 16.6626 17.6172 16.4047L14.336 7.55712C14.1016 6.94775 13.6563 6.63134 13.0117 6.63134C12.3906 6.63134 11.9453 6.94775 11.7227 7.55712L8.42968 16.4047C8.34765 16.6626 8.31249 16.8266 8.31249 17.0024C8.31249 17.4946 8.65234 17.8227 9.17968 17.8227ZM11.4063 13.1704L12.9649 8.63525H13.0938L14.6524 13.1704H11.4063Z" fill="#007AFF"/>
<path d="M22.1631 25.393C23.0654 26.2719 24.5186 26.2719 25.3857 25.3579C26.2646 24.4672 26.2529 23.0493 25.374 22.1704L3.88184 0.666511C3.00293 -0.212396 1.56152 -0.224114 0.65918 0.666511C-0.219727 1.5337 -0.219727 3.01026 0.65918 3.87745L22.1631 25.393Z" fill="white"/>
<path d="M23.1347 24.4205C23.4863 24.772 24.0722 24.7603 24.4121 24.4088C24.7636 24.0572 24.7636 23.483 24.4121 23.1314L2.91993 1.63918C2.56837 1.28762 1.98242 1.2759 1.63087 1.63918C1.27929 1.97903 1.27929 2.56497 1.63087 2.91653L23.1347 24.4205Z" fill="black" fill-opacity="0.85"/>
</svg>
