<svg width="33" height="24" viewBox="0 0 33 24" fill="none" xmlns="http://www.w3.org/2000/svg">
<path d="M12.5859 6.84375V4.94531L0.785156 8.09766C0.292969 8.22656 0 8.58984 0 9.05859C0 9.67969 0.492188 10.0781 1.18359 9.90234L12.5859 6.84375ZM12.5859 11.0156V9.10547L0.785156 12.2695C0.292969 12.4102 0 12.7734 0 13.2422C0 13.8633 0.515625 14.2617 1.18359 14.0859L12.5859 11.0156ZM12.5859 15.2227V13.3008L0.785156 16.4531C0.292969 16.582 0 16.957 0 17.4141C0 18.0469 0.492188 18.4453 1.18359 18.2578L12.5859 15.2227ZM12.5859 19.3945V17.4844L0.785156 20.6367C0.292969 20.7656 0 21.1289 0 21.5977C0 22.2305 0.503906 22.6289 1.18359 22.4414L12.5859 19.3945Z" fill="#007AFF"/>
<path d="M9.22266 11.8359C9.22266 14.1562 9.41016 16.5234 10.0898 18.9141C11.0625 22.2773 13.2656 23.6484 16.9336 23.6484H17.5898C25.4531 23.6484 32.6133 18.3984 32.6133 11.8359C32.6133 5.28516 25.4766 0 17.5898 0H16.9336C13.2773 0 11.0742 1.39453 10.0898 4.73438C9.41016 7.14844 9.22266 9.51562 9.22266 11.8359Z" fill="white"/>
<path d="M11.3203 11.8359C11.3203 14.0391 11.4727 16.1836 12.0938 18.3398C12.7969 20.7305 14.1211 21.5859 16.9336 21.5859H17.6016C24.457 21.5859 30.5391 17.0977 30.5391 11.8359C30.5391 6.58594 24.457 2.08594 17.6016 2.08594H16.9336C14.1328 2.08594 12.8086 2.94141 12.0938 5.33203C11.4727 7.5 11.3203 9.64453 11.3203 11.8359ZM13.2305 11.8359C13.2305 9.41016 13.418 7.61719 13.9219 5.85938C14.332 4.5 15.1641 3.99609 16.9336 3.99609H17.6016C23.3438 3.99609 28.6289 7.66406 28.6289 11.8359C28.6289 16.0078 23.3438 19.6758 17.6016 19.6758H16.9336C15.1289 19.6758 14.332 19.1719 13.9219 17.8242C13.418 16.043 13.2305 14.2734 13.2305 11.8359Z" fill="#007AFF"/>
<path d="M16.5117 16.2305C16.8984 16.2305 17.168 16.043 17.332 15.5508L18.1055 13.3125H21.8672L22.6289 15.5508C22.793 16.043 23.0625 16.2305 23.4492 16.2305C23.918 16.2305 24.2344 15.9375 24.2344 15.4922C24.2344 15.3281 24.1992 15.1758 24.1289 14.9414L21.1641 6.98438C20.9648 6.43359 20.543 6.15234 19.9688 6.15234C19.3945 6.15234 19.0078 6.43359 18.7969 6.98438L15.8438 14.9414C15.75 15.1758 15.7266 15.3281 15.7266 15.4922C15.7266 15.9375 16.0312 16.2305 16.5117 16.2305ZM18.5273 12.0352L19.9336 7.96875H20.0391L21.4336 12.0352H18.5273Z" fill="black" fill-opacity="0.85"/>
</svg>
