<svg width="14" height="28" viewBox="0 0 14 28" fill="none" xmlns="http://www.w3.org/2000/svg">
<path d="M3.05859 27.457H10.3242C12.1992 27.457 13.3828 26.3086 13.3828 24.5391V2.90625C13.3828 1.13672 12.1992 0 10.3242 0H3.05859C1.18359 0 0 1.13672 0 2.90625V24.5391C0 26.3086 1.18359 27.457 3.05859 27.457ZM7.42969 4.23047C7.00781 4.23047 6.66797 3.90234 6.66797 3.48047C6.66797 3.05859 7.00781 2.71875 7.42969 2.71875H10.0078C10.4297 2.71875 10.7578 3.05859 10.7578 3.48047C10.7578 3.90234 10.4297 4.23047 10.0078 4.23047H7.42969ZM3.73828 8.73047C3.09375 8.73047 2.56641 8.21484 2.56641 7.54688C2.56641 6.91406 3.09375 6.375 3.73828 6.375C4.39453 6.375 4.92188 6.91406 4.92188 7.54688C4.92188 8.21484 4.39453 8.73047 3.73828 8.73047ZM6.69141 8.73047C6.03516 8.73047 5.51953 8.21484 5.51953 7.54688C5.51953 6.91406 6.03516 6.375 6.69141 6.375C7.34766 6.375 7.86328 6.91406 7.86328 7.54688C7.86328 8.21484 7.34766 8.73047 6.69141 8.73047ZM9.65625 8.73047C9 8.73047 8.48438 8.21484 8.48438 7.54688C8.48438 6.91406 9 6.375 9.65625 6.375C10.3008 6.375 10.8281 6.91406 10.8281 7.54688C10.8281 8.21484 10.3008 8.73047 9.65625 8.73047ZM3.73828 12.1055C3.09375 12.1055 2.56641 11.5898 2.56641 10.9336C2.56641 10.3008 3.09375 9.76172 3.73828 9.76172C4.39453 9.76172 4.92188 10.3008 4.92188 10.9336C4.92188 11.5898 4.39453 12.1055 3.73828 12.1055ZM6.69141 12.1055C6.03516 12.1055 5.51953 11.5898 5.51953 10.9336C5.51953 10.3008 6.03516 9.76172 6.69141 9.76172C7.34766 9.76172 7.86328 10.3008 7.86328 10.9336C7.86328 11.5898 7.34766 12.1055 6.69141 12.1055ZM9.65625 12.1055C9 12.1055 8.48438 11.5898 8.48438 10.9336C8.48438 10.3008 9 9.76172 9.65625 9.76172C10.3008 9.76172 10.8281 10.3008 10.8281 10.9336C10.8281 11.5898 10.3008 12.1055 9.65625 12.1055ZM3.73828 15.4805C3.09375 15.4805 2.56641 14.9766 2.56641 14.3086C2.56641 13.6641 3.09375 13.1367 3.73828 13.1367C4.39453 13.1367 4.92188 13.6641 4.92188 14.3086C4.92188 14.9766 4.39453 15.4805 3.73828 15.4805ZM6.69141 15.4805C6.03516 15.4805 5.51953 14.9531 5.51953 14.3086C5.51953 13.6523 6.03516 13.1367 6.69141 13.1367C7.34766 13.1367 7.86328 13.6523 7.86328 14.3086C7.86328 14.9531 7.34766 15.4805 6.69141 15.4805ZM9.65625 15.4805C9 15.4805 8.48438 14.9531 8.48438 14.3086C8.48438 13.6523 9 13.1367 9.65625 13.1367C10.3008 13.1367 10.8281 13.6523 10.8281 14.3086C10.8281 14.9531 10.3008 15.4805 9.65625 15.4805ZM3.48047 23.5078C2.97656 23.5078 2.56641 23.0977 2.56641 22.5938V18.3164C2.56641 17.8125 2.97656 17.4141 3.48047 17.4141C3.98438 17.4141 4.38281 17.8125 4.38281 18.3164V22.5938C4.38281 23.0977 3.98438 23.5078 3.48047 23.5078ZM6.09375 20.0039C5.70703 20.0039 5.47266 19.7578 5.47266 19.3711V18.5859C5.47266 18.1875 5.70703 17.9414 6.09375 17.9414H7.27734C7.6875 17.9414 7.91016 18.1875 7.91016 18.5859V19.3711C7.91016 19.7578 7.6875 20.0039 7.27734 20.0039H6.09375ZM6.09375 22.957C5.70703 22.957 5.47266 22.7344 5.47266 22.3359V21.5508C5.47266 21.1523 5.70703 20.918 6.09375 20.918H7.27734C7.6875 20.918 7.91016 21.1523 7.91016 21.5508V22.3359C7.91016 22.7344 7.6875 22.957 7.27734 22.957H6.09375ZM9.91406 23.5078C9.41016 23.5078 9.01172 23.0977 9.01172 22.5938V18.3164C9.01172 17.8125 9.41016 17.4141 9.91406 17.4141C10.418 17.4141 10.8281 17.8125 10.8281 18.3164V22.5938C10.8281 23.0977 10.418 23.5078 9.91406 23.5078Z" fill="black" fill-opacity="0.85"/>
</svg>
