<svg width="14" height="28" viewBox="0 0 14 28" fill="none" xmlns="http://www.w3.org/2000/svg">
<path d="M3.05859 27.457H10.3242C12.1992 27.457 13.3828 26.3086 13.3828 24.5391V2.90625C13.3828 1.13672 12.1992 0 10.3242 0H3.05859C1.18359 0 0 1.13672 0 2.90625V24.5391C0 26.3086 1.18359 27.457 3.05859 27.457ZM3.25781 25.7461C2.32031 25.7461 1.73438 25.1836 1.73438 24.293V3.16406C1.73438 2.27344 2.32031 1.71094 3.25781 1.71094H10.125C11.0625 1.71094 11.6484 2.27344 11.6484 3.16406V24.293C11.6484 25.1836 11.0625 25.7461 10.125 25.7461H3.25781ZM7.40625 4.5H9.90234C10.3125 4.5 10.6406 4.18359 10.6406 3.77344C10.6406 3.35156 10.3125 3.03516 9.90234 3.03516H7.40625C6.99609 3.03516 6.66797 3.35156 6.66797 3.77344C6.66797 4.18359 6.99609 4.5 7.40625 4.5ZM3.83203 8.85938C4.46484 8.85938 4.96875 8.36719 4.96875 7.72266C4.96875 7.10156 4.46484 6.58594 3.83203 6.58594C3.19922 6.58594 2.69531 7.10156 2.69531 7.72266C2.69531 8.36719 3.19922 8.85938 3.83203 8.85938ZM6.69141 8.85938C7.32422 8.85938 7.82812 8.36719 7.82812 7.72266C7.82812 7.10156 7.32422 6.58594 6.69141 6.58594C6.05859 6.58594 5.55469 7.10156 5.55469 7.72266C5.55469 8.36719 6.05859 8.85938 6.69141 8.85938ZM9.5625 8.85938C10.1953 8.85938 10.6992 8.36719 10.6992 7.72266C10.6992 7.10156 10.1953 6.58594 9.5625 6.58594C8.92969 6.58594 8.42578 7.10156 8.42578 7.72266C8.42578 8.36719 8.92969 8.85938 9.5625 8.85938ZM3.83203 12.1406C4.46484 12.1406 4.96875 11.6367 4.96875 11.0039C4.96875 10.3828 4.46484 9.86719 3.83203 9.86719C3.19922 9.86719 2.69531 10.3828 2.69531 11.0039C2.69531 11.6367 3.19922 12.1406 3.83203 12.1406ZM6.69141 12.1406C7.32422 12.1406 7.82812 11.6367 7.82812 11.0039C7.82812 10.3828 7.32422 9.86719 6.69141 9.86719C6.05859 9.86719 5.55469 10.3828 5.55469 11.0039C5.55469 11.6367 6.05859 12.1406 6.69141 12.1406ZM9.5625 12.1406C10.1953 12.1406 10.6992 11.6367 10.6992 11.0039C10.6992 10.3828 10.1953 9.86719 9.5625 9.86719C8.92969 9.86719 8.42578 10.3828 8.42578 11.0039C8.42578 11.6367 8.92969 12.1406 9.5625 12.1406ZM3.83203 15.4102C4.46484 15.4102 4.96875 14.918 4.96875 14.2734C4.96875 13.6523 4.46484 13.1367 3.83203 13.1367C3.19922 13.1367 2.69531 13.6523 2.69531 14.2734C2.69531 14.918 3.19922 15.4102 3.83203 15.4102ZM6.69141 15.4102C7.32422 15.4102 7.82812 14.8945 7.82812 14.2734C7.82812 13.6406 7.32422 13.1367 6.69141 13.1367C6.05859 13.1367 5.55469 13.6406 5.55469 14.2734C5.55469 14.8945 6.05859 15.4102 6.69141 15.4102ZM9.5625 15.4102C10.1953 15.4102 10.6992 14.8945 10.6992 14.2734C10.6992 13.6406 10.1953 13.1367 9.5625 13.1367C8.92969 13.1367 8.42578 13.6406 8.42578 14.2734C8.42578 14.8945 8.92969 15.4102 9.5625 15.4102ZM3.57422 23.1914C4.06641 23.1914 4.45312 22.793 4.45312 22.3125V18.1641C4.45312 17.6719 4.06641 17.2852 3.57422 17.2852C3.09375 17.2852 2.69531 17.6719 2.69531 18.1641V22.3125C2.69531 22.793 3.09375 23.1914 3.57422 23.1914ZM6.11719 19.793H7.25391C7.65234 19.793 7.875 19.5586 7.875 19.1836V18.4219C7.875 18.0352 7.65234 17.8008 7.25391 17.8008H6.11719C5.74219 17.8008 5.50781 18.0352 5.50781 18.4219V19.1836C5.50781 19.5586 5.74219 19.793 6.11719 19.793ZM6.11719 22.6641H7.25391C7.65234 22.6641 7.875 22.4414 7.875 22.0547V21.293C7.875 20.9062 7.65234 20.6836 7.25391 20.6836H6.11719C5.74219 20.6836 5.50781 20.9062 5.50781 21.293V22.0547C5.50781 22.4414 5.74219 22.6641 6.11719 22.6641ZM9.82031 23.1914C10.3008 23.1914 10.6992 22.793 10.6992 22.3125V18.1641C10.6992 17.6719 10.3008 17.2852 9.82031 17.2852C9.32812 17.2852 8.94141 17.6719 8.94141 18.1641V22.3125C8.94141 22.793 9.32812 23.1914 9.82031 23.1914Z" fill="black" fill-opacity="0.85"/>
</svg>
