<svg width="22" height="26" viewBox="0 0 22 26" fill="none" xmlns="http://www.w3.org/2000/svg">
<path d="M1.07778 7.80396L1.95669 8.12037C2.87075 8.46021 3.72622 8.03834 4.06606 7.10084L5.7184 2.56568C6.05825 1.62818 5.67153 0.772713 4.75747 0.432869L3.87856 0.116463C2.9645 -0.223381 2.12075 0.198494 1.76919 1.14771L0.128561 5.67115C-0.223001 6.60865 0.163717 7.46412 1.07778 7.80396ZM16.5114 7.80396L17.402 8.12037C18.3161 8.46021 19.1598 8.03834 19.4997 7.10084L21.152 2.56568C21.5036 1.62818 21.1051 0.772713 20.2028 0.432869L19.3122 0.116463C18.3981 -0.223381 17.5661 0.198494 17.2145 1.14771L15.5622 5.67115C15.2223 6.60865 15.609 7.47584 16.5114 7.80396ZM2.44887 25.1829H3.38637C4.35903 25.1829 5.01528 24.5032 5.01528 23.5071V18.6907C5.01528 17.6829 4.35903 17.0032 3.38637 17.0032H2.44887C1.48794 17.0032 0.831686 17.6829 0.831686 18.6907V23.5071C0.831686 24.5032 1.48794 25.1829 2.44887 25.1829ZM17.8825 25.1829H18.82C19.7926 25.1829 20.4489 24.5032 20.4489 23.5071V18.6907C20.4489 17.6829 19.7926 17.0032 18.82 17.0032H17.8825C16.9215 17.0032 16.2653 17.6829 16.2653 18.6907V23.5071C16.2653 24.5032 16.9215 25.1829 17.8825 25.1829ZM4.0895 5.06178H8.63637V3.17506H4.0895V5.06178ZM12.7614 5.06178H17.2028V3.17506H12.7614V5.06178ZM9.69106 21.3391H11.5778V6.18678H9.69106V21.3391ZM4.0895 22.0422H17.2028V20.1555H4.0895V22.0422Z" fill="#007AFF"/>
<path d="M10.6406 7.15942C12.3281 7.15942 13.6641 5.81177 13.6641 4.11255C13.6641 2.41333 12.3281 1.07739 10.6406 1.07739C8.94141 1.07739 7.59375 2.41333 7.59375 4.11255C7.59375 5.81177 8.94141 7.15942 10.6406 7.15942ZM10.6406 5.61255C9.79688 5.61255 9.12891 4.9563 9.12891 4.11255C9.12891 3.28052 9.79688 2.61255 10.6406 2.61255C11.4726 2.61255 12.129 3.28052 12.129 4.11255C12.129 4.9563 11.4726 5.61255 10.6406 5.61255Z" fill="black" fill-opacity="0.85"/>
</svg>
