<svg width="24" height="24" viewBox="0 0 24 24" fill="none" xmlns="http://www.w3.org/2000/svg">
<path d="M11.9531 23.9062C18.4922 23.9062 23.9062 18.4805 23.9062 11.9531C23.9062 5.41406 18.4805 0 11.9414 0C5.41406 0 0 5.41406 0 11.9531C0 18.4805 5.42578 23.9062 11.9531 23.9062ZM11.9531 21.9141C6.42188 21.9141 2.00391 17.4844 2.00391 11.9531C2.00391 6.42188 6.41016 1.99219 11.9414 1.99219C17.4727 1.99219 21.9141 6.42188 21.9141 11.9531C21.9141 17.4844 17.4844 21.9141 11.9531 21.9141Z" fill="#007AFF"/>
<path d="M9.14062 17.2031H12.5625C14.9883 17.2031 16.5469 16.0312 16.5469 14.1914C16.5469 12.7617 15.5859 11.7539 14.0273 11.5664V11.4961C15.1875 11.2148 15.9023 10.3008 15.9023 9.12891C15.9023 7.52344 14.6016 6.48047 12.5859 6.48047H9.14062C8.48438 6.48047 8.09766 6.86719 8.09766 7.53516V16.1602C8.09766 16.8047 8.48438 17.2031 9.14062 17.2031ZM9.91406 11.0391V7.86328H12.2109C13.3945 7.86328 14.1094 8.46094 14.1094 9.42188C14.1094 10.4531 13.2539 11.0391 11.6836 11.0391H9.91406ZM9.91406 15.8203V12.3281H12.4102C13.8398 12.3281 14.6719 12.9844 14.6719 14.1094C14.6719 15.2812 13.7695 15.8203 11.8242 15.8203H9.91406Z" fill="black" fill-opacity="0.85"/>
</svg>
