<svg width="24" height="24" viewBox="0 0 24 24" fill="none" xmlns="http://www.w3.org/2000/svg">
<path d="M11.9531 23.9062C18.4922 23.9062 23.9062 18.4805 23.9062 11.9531C23.9062 5.41406 18.4805 0 11.9414 0C5.41406 0 0 5.41406 0 11.9531C0 18.4805 5.42578 23.9062 11.9531 23.9062ZM11.9531 21.9141C6.42188 21.9141 2.00391 17.4844 2.00391 11.9531C2.00391 6.42188 6.41016 1.99219 11.9414 1.99219C17.4727 1.99219 21.9141 6.42188 21.9141 11.9531C21.9141 17.4844 17.4844 21.9141 11.9531 21.9141Z" fill="#007AFF"/>
<path d="M10.3477 16.2656C10.7695 16.2656 11.1328 15.9375 11.1328 15.3398V8.58984C11.1328 7.99219 10.7695 7.66406 10.3477 7.66406C10.125 7.66406 9.94922 7.73438 9.71484 7.86328L4.125 11.1562C3.75 11.3789 3.58594 11.6602 3.58594 11.9648C3.58594 12.2695 3.75 12.5508 4.125 12.7734L9.71484 16.0664C9.94922 16.1953 10.125 16.2656 10.3477 16.2656ZM17.8711 16.2656C18.293 16.2656 18.6445 15.9375 18.6445 15.3398V8.58984C18.6445 7.99219 18.293 7.66406 17.8711 7.66406C17.6484 7.66406 17.4492 7.73438 17.2383 7.86328L11.6484 11.1562C11.2617 11.3789 11.0977 11.6602 11.0977 11.9648C11.0977 12.2695 11.2617 12.5508 11.6484 12.7734L17.2383 16.0664C17.4492 16.1953 17.6484 16.2656 17.8711 16.2656Z" fill="black" fill-opacity="0.85"/>
</svg>
