<svg width="24" height="24" viewBox="0 0 24 24" fill="none" xmlns="http://www.w3.org/2000/svg">
<path d="M11.9531 23.9062C18.4922 23.9062 23.9062 18.4805 23.9062 11.9531C23.9062 5.41406 18.4805 0 11.9414 0C5.41406 0 0 5.41406 0 11.9531C0 18.4805 5.42578 23.9062 11.9531 23.9062Z" fill="#FFCC00"/>
<path d="M6.69141 15.8086V8.09766C6.69141 7.60547 6.96094 7.34766 7.44141 7.34766H8.74219C9.22266 7.34766 9.49219 7.59375 9.49219 8.09766V11.625C9.57422 11.4375 9.72656 11.2734 9.97266 11.1328L15.7383 7.74609C15.9492 7.61719 16.1602 7.54688 16.3828 7.54688C16.8281 7.54688 17.1914 7.875 17.1914 8.49609V15.4453C17.1914 16.0781 16.8281 16.3945 16.3828 16.3945C16.1602 16.3945 15.9492 16.3242 15.7383 16.1953L9.97266 12.8086C9.72656 12.668 9.57422 12.5039 9.49219 12.3164V15.8086C9.49219 16.3125 9.22266 16.5586 8.74219 16.5586H7.44141C6.96094 16.5586 6.69141 16.3125 6.69141 15.8086Z" fill="black" fill-opacity="0.85"/>
</svg>
