<svg width="22" height="20" viewBox="0 0 22 20" fill="none" xmlns="http://www.w3.org/2000/svg">
<path d="M1.55859 19.0898H4.23047C5.25 19.0898 5.78906 18.5508 5.78906 17.5195V1.55859C5.78906 0.492188 5.25 0 4.23047 0H1.55859C0.539062 0 0 0.539062 0 1.55859V17.5195C0 18.5508 0.539062 19.0898 1.55859 19.0898ZM20.2031 18.7383C21.1289 18.7383 21.8906 18.0469 21.8906 16.7344V2.34375C21.8906 1.03125 21.1289 0.328125 20.2031 0.328125C19.7227 0.328125 19.3359 0.480469 18.8555 0.761719L6.91406 7.79297C6.08203 8.28516 5.73047 8.85938 5.73047 9.53906C5.73047 10.207 6.08203 10.793 6.91406 11.2852L18.8555 18.3047C19.3359 18.5859 19.7227 18.7383 20.2031 18.7383Z" fill="black" fill-opacity="0.85"/>
</svg>
