<svg width="24" height="24" viewBox="0 0 24 24" fill="none" xmlns="http://www.w3.org/2000/svg">
<path d="M11.9531 23.9062C18.4922 23.9062 23.9062 18.4805 23.9062 11.9531C23.9062 5.41406 18.4805 0 11.9414 0C5.41406 0 0 5.41406 0 11.9531C0 18.4805 5.42578 23.9062 11.9531 23.9062ZM11.9531 21.9141C6.42188 21.9141 2.00391 17.4844 2.00391 11.9531C2.00391 6.42188 6.41016 1.99219 11.9414 1.99219C17.4727 1.99219 21.9141 6.42188 21.9141 11.9531C21.9141 17.4844 17.4844 21.9141 11.9531 21.9141Z" fill="#007AFF"/>
<path d="M16.2539 16.2656C16.6758 16.2656 17.0273 15.9492 17.0273 15.3398V8.60156C17.0273 7.99219 16.6758 7.67578 16.2539 7.67578C16.0312 7.67578 15.832 7.74609 15.6211 7.875L10.0312 11.1562C9.64453 11.3789 9.48047 11.6602 9.48047 11.9648C9.48047 12.2812 9.64453 12.5625 10.0312 12.7852L15.6211 16.0664C15.832 16.1953 16.0312 16.2656 16.2539 16.2656ZM7.58203 16.418H8.83594C9.30469 16.418 9.5625 16.1836 9.5625 15.7031V8.21484C9.5625 7.72266 9.30469 7.48828 8.83594 7.48828H7.58203C7.11328 7.48828 6.85547 7.73438 6.85547 8.21484V15.7031C6.85547 16.1836 7.11328 16.418 7.58203 16.418Z" fill="black" fill-opacity="0.85"/>
</svg>
