<svg width="22" height="20" viewBox="0 0 22 20" fill="none" xmlns="http://www.w3.org/2000/svg">
<path d="M14.4727 18.9023C15.3867 18.9023 16.1602 18.1992 16.1602 16.8867V2.49609C16.1602 1.18359 15.3867 0.480469 14.4727 0.480469C13.9922 0.480469 13.6055 0.632812 13.125 0.914062L1.18359 7.94531C0.351562 8.4375 0 9.02344 0 9.69141C0 10.3594 0.351562 10.9453 1.18359 11.4375L13.125 18.4688C13.6055 18.75 13.9922 18.9023 14.4727 18.9023ZM13.957 16.7344C13.8867 16.7344 13.793 16.6992 13.6758 16.6289L2.53125 10.0195C2.36719 9.92578 2.28516 9.84375 2.28516 9.69141C2.28516 9.52734 2.36719 9.45703 2.53125 9.36328L13.6758 2.75391C13.793 2.68359 13.8867 2.64844 13.957 2.64844C14.1328 2.64844 14.2852 2.76562 14.2852 3V16.3828C14.2852 16.6172 14.1328 16.7344 13.957 16.7344ZM20.8477 19.3711C21.3984 19.3711 21.8555 18.9492 21.8555 18.3984V0.996094C21.8555 0.445312 21.3984 0.0117188 20.8477 0.0117188C20.2969 0.0117188 19.8516 0.445312 19.8516 0.996094V18.3984C19.8516 18.9492 20.2969 19.3711 20.8477 19.3711Z" fill="black" fill-opacity="0.85"/>
</svg>
