<svg width="24" height="24" viewBox="0 0 24 24" fill="none" xmlns="http://www.w3.org/2000/svg">
<path d="M11.9531 23.918C18.4922 23.918 23.9062 18.5039 23.9062 11.9648C23.9062 5.4375 18.4805 0.0117188 11.9414 0.0117188C5.41406 0.0117188 0 5.4375 0 11.9648C0 18.5039 5.42578 23.918 11.9531 23.918Z" fill="#FFCC00"/>
<path d="M10.0548 19.3242C7.93369 19.3242 6.87901 18.2461 6.89072 16.0781C6.92588 13.6055 6.9376 11.8125 6.99619 10.4766C7.13682 7.35938 7.85166 5.97656 9.94932 5.54297C10.0782 4.58203 10.8634 3.90234 11.9415 3.90234C13.0196 3.90234 13.8048 4.58203 13.9337 5.54297C16.0313 5.97656 16.7462 7.35938 16.8868 10.4766C16.9454 11.8125 16.9571 13.6055 16.9923 16.0781C17.004 18.2461 15.9493 19.3242 13.8282 19.3242H10.0548ZM10.9337 5.40234C11.2501 5.37891 11.5782 5.36719 11.9415 5.36719C12.3048 5.36719 12.6329 5.37891 12.9493 5.40234C12.7735 5.05078 12.4103 4.81641 11.9415 4.81641C11.4728 4.81641 11.1095 5.05078 10.9337 5.40234ZM9.02354 13.6406H14.8595V12.8555C14.8595 12.3398 14.5313 12 13.9923 12H9.90244C9.36338 12 9.02354 12.3398 9.02354 12.8555V13.6406ZM9.90244 16.8867H13.9923C14.5313 16.8867 14.8595 16.5469 14.8595 16.0195V14.4023H9.02354V16.0195C9.02354 16.5469 9.36338 16.8867 9.90244 16.8867Z" fill="black" fill-opacity="0.85"/>
</svg>
