<svg width="20" height="31" viewBox="0 0 20 31" fill="none" xmlns="http://www.w3.org/2000/svg">
<path d="M6.05905 29.3906H13.2192C17.2973 29.3906 19.313 27.3281 19.2778 23.2031C19.2309 18.4922 19.2075 15.0703 19.0903 12.5039C18.7505 4.95703 16.6294 2.74219 9.64498 2.74219C2.66061 2.74219 0.527796 4.95703 0.187952 12.5039C0.0707645 15.0703 0.047327 18.4922 0.000452 23.2031C-0.0347042 27.3281 1.98092 29.3906 6.05905 29.3906ZM6.05905 27.668C2.95358 27.668 1.69967 26.3906 1.72311 23.2266C1.76998 18.5156 1.80514 15.1172 1.92233 12.5859C2.2153 5.95312 3.62155 4.47656 9.64498 4.47656C15.6567 4.47656 17.063 5.95312 17.3676 12.5859C17.4731 15.1172 17.5083 18.5156 17.5551 23.2266C17.5786 26.3906 16.3247 27.668 13.2192 27.668H6.05905ZM9.64498 0C7.39498 0 5.81295 1.52344 5.81295 3.59766H7.4653C7.4653 2.46094 8.35592 1.65234 9.64498 1.65234C10.9223 1.65234 11.8247 2.46094 11.8247 3.59766H13.477C13.477 1.52344 11.8833 0 9.64498 0ZM5.78951 24.7734H13.5005C14.5551 24.7734 15.2465 24.082 15.2465 23.0391V17.0977C15.2465 16.043 14.5551 15.3516 13.5005 15.3516H5.78951C4.73483 15.3516 4.0317 16.0547 4.0317 17.0977V23.0391C4.0317 24.0703 4.73483 24.7734 5.78951 24.7734ZM6.07076 23.1328C5.83639 23.1328 5.68405 22.9805 5.68405 22.7578V17.3789C5.68405 17.1445 5.83639 16.9922 6.07076 16.9922H13.2075C13.4419 16.9922 13.5942 17.1445 13.5942 17.3789V22.7578C13.5942 22.9805 13.4419 23.1328 13.2075 23.1328H6.07076ZM4.9692 19.9688H14.309V18.4922H4.9692V19.9688Z" fill="black" fill-opacity="0.85"/>
</svg>
