<svg width="38" height="20" viewBox="0 0 38 20" fill="none" xmlns="http://www.w3.org/2000/svg">
<path d="M1.55859 19.0898H4.23047C5.25 19.0898 5.78906 18.5508 5.78906 17.5195V1.55859C5.78906 0.492188 5.25 0 4.23047 0H1.55859C0.539062 0 0 0.539062 0 1.55859V17.5195C0 18.5508 0.539062 19.0898 1.55859 19.0898ZM20.2031 18.7383C21.1289 18.7383 21.8906 18.0469 21.8906 16.7344V2.34375C21.8906 1.03125 21.1289 0.328125 20.2031 0.328125C19.7227 0.328125 19.3359 0.480469 18.8555 0.761719L6.91406 7.79297C6.08203 8.28516 5.73047 8.85938 5.73047 9.53906C5.73047 10.207 6.08203 10.793 6.91406 11.2852L18.8555 18.3047C19.3359 18.5859 19.7227 18.7383 20.2031 18.7383ZM36.3047 18.7383C37.2305 18.7383 37.9922 18.0469 37.9922 16.7344V2.34375C37.9922 1.03125 37.2305 0.328125 36.3047 0.328125C35.8242 0.328125 35.4375 0.480469 34.957 0.761719L23.0156 7.79297C22.1836 8.28516 21.832 8.85938 21.832 9.53906C21.832 10.207 22.1836 10.793 23.0156 11.2852L34.957 18.3047C35.4375 18.5859 35.8242 18.7383 36.3047 18.7383Z" fill="black" fill-opacity="0.85"/>
</svg>
