<svg width="24" height="24" viewBox="0 0 24 24" fill="none" xmlns="http://www.w3.org/2000/svg">
<path d="M11.9531 23.9062C18.4922 23.9062 23.9062 18.4805 23.9062 11.9531C23.9062 5.41406 18.4805 0 11.9414 0C5.41406 0 0 5.41406 0 11.9531C0 18.4805 5.42578 23.9062 11.9531 23.9062ZM11.9531 21.9141C6.42188 21.9141 2.00391 17.4844 2.00391 11.9531C2.00391 6.42188 6.41016 1.99219 11.9414 1.99219C17.4727 1.99219 21.9141 6.42188 21.9141 11.9531C21.9141 17.4844 17.4844 21.9141 11.9531 21.9141Z" fill="#007AFF"/>
<path d="M8.46094 17.6953H15.6328C16.7344 17.6953 17.3672 17.0625 17.3672 15.8203V9.49219C17.3672 8.23828 16.7227 7.61719 15.4453 7.61719H14.4727C14.4492 6.32812 13.3359 5.23828 11.9531 5.23828C10.5703 5.23828 9.45703 6.32812 9.43359 7.61719H8.46094C7.18359 7.61719 6.53906 8.23828 6.53906 9.49219V15.8203C6.53906 17.0742 7.18359 17.6953 8.46094 17.6953ZM10.5586 7.61719C10.5938 6.80859 11.1211 6.30469 11.9531 6.30469C12.7852 6.30469 13.3125 6.80859 13.3477 7.61719H10.5586Z" fill="black" fill-opacity="0.85"/>
</svg>
