<svg width="24" height="24" viewBox="0 0 24 24" fill="none" xmlns="http://www.w3.org/2000/svg">
<path d="M11.9531 23.918C18.4922 23.918 23.9062 18.5039 23.9062 11.9648C23.9062 5.4375 18.4805 0.0117188 11.9414 0.0117188C5.41406 0.0117188 0 5.4375 0 11.9648C0 18.5039 5.42578 23.918 11.9531 23.918Z" fill="#FFCC00"/>
<path d="M8.35547 17.9062C7.03125 17.9062 6.36328 17.2617 6.36328 15.9727V9.44531C6.36328 8.14453 7.03125 7.51172 8.35547 7.51172H9.35156C9.375 6.17578 10.5234 5.05078 11.9531 5.05078C13.3828 5.05078 14.5312 6.17578 14.5547 7.51172H15.5508C16.875 7.51172 17.543 8.15625 17.543 9.44531V15.9727C17.543 17.2617 16.8867 17.9062 15.75 17.9062H8.35547ZM10.5234 7.51172H13.3828C13.3477 6.69141 12.8086 6.16406 11.9531 6.16406C11.0977 6.16406 10.5586 6.69141 10.5234 7.51172Z" fill="black" fill-opacity="0.85"/>
</svg>
