<svg width="15" height="27" viewBox="0 0 15 27" fill="none" xmlns="http://www.w3.org/2000/svg">
<path d="M1.45312 23.6484H7.08984C11.4727 23.6484 14.1094 21.5039 14.1094 17.918C14.1094 15.0938 12.1758 13.1367 9.31641 12.7852V12.6914C11.4492 12.3047 13.043 10.3125 13.043 8.07422C13.043 4.99219 10.6406 2.94141 7.06641 2.94141H1.45312C0.574219 2.94141 0 3.51562 0 4.39453V22.1953C0 23.0742 0.574219 23.6484 1.45312 23.6484ZM2.23828 4.91016H6.55078C9.21094 4.91016 10.8047 6.12891 10.8047 8.30859C10.8047 10.6875 9.01172 11.9883 5.90625 11.9883H2.23828V4.91016ZM2.23828 21.6797V13.9688H6.46875C9.9375 13.9688 11.8359 15.293 11.8359 17.8242C11.8359 20.3438 9.99609 21.6797 6.73828 21.6797H2.23828ZM5.26172 25.5352C5.26172 25.957 5.61328 26.3086 6.03516 26.3086C6.45703 26.3086 6.79688 25.957 6.79688 25.5352V0.855469C6.79688 0.433594 6.45703 0.0820312 6.03516 0.0820312C5.61328 0.0820312 5.26172 0.433594 5.26172 0.855469V25.5352Z" fill="black" fill-opacity="0.85"/>
</svg>
