<svg width="22" height="22" viewBox="0 0 22 22" fill="none" xmlns="http://www.w3.org/2000/svg">
<path d="M3.67969 21.5977H17.8945C20.3555 21.5977 21.5742 20.3789 21.5742 17.9648V3.65625C21.5742 1.24219 20.3555 0.0234375 17.8945 0.0234375H3.67969C1.23047 0.0234375 0 1.23047 0 3.65625V17.9648C0 20.3906 1.23047 21.5977 3.67969 21.5977ZM3.70312 19.7109C2.53125 19.7109 1.88672 19.0898 1.88672 17.8711V3.75C1.88672 2.53125 2.53125 1.91016 3.70312 1.91016H17.8711C19.0312 1.91016 19.6875 2.53125 19.6875 3.75V17.8711C19.6875 19.0898 19.0312 19.7109 17.8711 19.7109H3.70312Z" fill="#007AFF"/>
<path d="M10.9805 17.707C11.3086 17.707 11.5547 17.4727 11.5547 17.1328V16.3477H11.707C13.8867 16.3477 15.2695 15.1523 15.2695 13.2539C15.2695 11.9297 14.4844 10.9453 13.2656 10.582C14.1328 10.1602 14.7422 9.23438 14.7422 8.23828C14.7422 6.62109 13.5117 5.44922 11.707 5.44922H11.5547V4.55859C11.5547 4.23047 11.3086 3.99609 10.9805 3.99609C10.6641 3.99609 10.418 4.23047 10.418 4.55859V5.44922H8.66016C8.12109 5.44922 7.73438 5.82422 7.73438 6.375V15.4336C7.73438 15.9727 8.10938 16.3477 8.66016 16.3477H10.418V17.1328C10.418 17.4727 10.6641 17.707 10.9805 17.707ZM9.24609 14.9766V11.4141H10.418V14.9648L9.24609 14.9766ZM11.5547 14.9531V11.4258C13.0312 11.5078 13.7695 12.1055 13.7695 13.1953C13.7695 14.2969 13.0312 14.8945 11.5547 14.9531ZM9.24609 10.0547V6.80859H10.418V10.0547H9.24609ZM11.5547 9.99609V6.83203C12.6445 6.92578 13.2305 7.45312 13.2305 8.35547C13.2305 9.26953 12.668 9.84375 11.5547 9.99609Z" fill="black" fill-opacity="0.85"/>
</svg>
