<svg width="25" height="25" viewBox="0 0 25 25" fill="none" xmlns="http://www.w3.org/2000/svg">
<path d="M1.81491 22.5159C4.29928 24.9885 7.81491 24.9651 10.5337 22.258L14.1079 18.6604L12.7837 17.3244L9.20944 20.9104C7.32272 22.7854 4.85006 23.0549 3.0571 21.2737C1.25241 19.4924 1.53366 17.008 3.42038 15.1213L7.00631 11.5354L5.67038 10.2229L2.07272 13.7971C-0.63431 16.5159 -0.657748 20.0315 1.81491 22.5159ZM22.5102 1.82054C20.0258 -0.652117 16.5102 -0.640398 13.8032 2.06663L10.2173 5.66429L11.5415 7.01195L15.1274 3.42601C17.0024 1.53929 19.4751 1.28148 21.268 3.05101C23.0727 4.83226 22.7915 7.32835 20.9048 9.20335L17.3188 12.7893L18.6665 14.1135L22.2524 10.5276C24.9712 7.82054 24.9829 4.30491 22.5102 1.82054ZM18.6782 10.0119L14.3071 5.65257C12.936 4.28148 11.6235 4.24632 10.2173 5.66429L5.67038 10.2229C4.24069 11.6291 4.28756 12.9416 5.64694 14.3127L10.018 18.6838C11.3891 20.0432 12.7016 20.0901 14.1079 18.6604L18.6665 14.1135C20.0844 12.6955 20.0493 11.3948 18.6782 10.0119ZM13.229 7.07054L17.2602 11.1018C17.9282 11.7698 17.8579 12.2619 17.1548 12.9534L12.9477 17.1604C12.2563 17.8635 11.7641 17.9338 11.0962 17.2659L7.06491 13.2346C6.39694 12.5666 6.46725 12.0627 7.17038 11.3713L11.3774 7.17601C12.0688 6.47288 12.561 6.40257 13.229 7.07054Z" fill="black" fill-opacity="0.85"/>
<path d="M12.1503 10.8557C12.7246 10.8557 13.1464 10.4104 13.1464 9.87133C13.1699 9.33227 12.7128 8.87524 12.1621 8.87524C11.6113 8.87524 11.1777 9.33227 11.1777 9.89477C11.1777 10.3987 11.6347 10.8557 12.1503 10.8557ZM9.9004 13.1526C10.4394 13.1526 10.873 12.6838 10.873 12.1799C10.873 11.6174 10.4394 11.1721 9.88868 11.1721C9.32618 11.1721 8.89258 11.6174 8.89258 12.1682C8.89258 12.7073 9.32618 13.1526 9.9004 13.1526ZM14.4355 13.1526C14.9863 13.1526 15.4433 12.6955 15.4316 12.1565C15.4316 11.6174 14.998 11.1721 14.4238 11.1721C13.9082 11.1721 13.4511 11.6291 13.4511 12.133C13.4511 12.6955 13.8964 13.1526 14.4355 13.1526ZM12.1621 15.4377C12.7128 15.4377 13.1464 14.9924 13.1464 14.4299C13.1464 13.926 12.7128 13.4573 12.1738 13.4573C11.5996 13.4573 11.166 13.9026 11.166 14.4416C11.166 14.9924 11.5996 15.4377 12.1621 15.4377Z" fill="#007AFF"/>
</svg>
