<svg width="24" height="24" viewBox="0 0 24 24" fill="none" xmlns="http://www.w3.org/2000/svg">
<path d="M11.9531 23.9062C18.4922 23.9062 23.9062 18.4805 23.9062 11.9531C23.9062 5.41406 18.4805 0 11.9414 0C5.41406 0 0 5.41406 0 11.9531C0 18.4805 5.42578 23.9062 11.9531 23.9062ZM11.9531 21.9141C6.42188 21.9141 2.00391 17.4844 2.00391 11.9531C2.00391 6.42188 6.41016 1.99219 11.9414 1.99219C17.4727 1.99219 21.9141 6.42188 21.9141 11.9531C21.9141 17.4844 17.4844 21.9141 11.9531 21.9141Z" fill="#007AFF"/>
<path d="M11.918 14.5547C13.3477 14.5547 14.5195 13.3828 14.5195 11.9531C14.5195 10.5117 13.3477 9.35156 11.918 9.35156C10.4883 9.35156 9.31641 10.5117 9.31641 11.9531C9.31641 13.3828 10.4883 14.5547 11.918 14.5547ZM11.918 13.0781C11.2969 13.0781 10.793 12.5742 10.793 11.9531C10.793 11.3203 11.2969 10.8281 11.918 10.8281C12.5391 10.8281 13.043 11.3203 13.043 11.9531C13.043 12.5742 12.5391 13.0781 11.918 13.0781ZM11.3906 13.8516L10.0547 12.5156L8.33203 14.2383C7.96875 14.6016 7.96875 15.2109 8.33203 15.5742C8.69531 15.9375 9.29297 15.9375 9.66797 15.5742L11.3906 13.8516ZM12.5039 10.0781L13.8398 11.3906L17.9883 7.24219C18.3633 6.87891 18.3633 6.28125 17.9883 5.90625C17.625 5.54297 17.0273 5.54297 16.6641 5.90625L12.5039 10.0781Z" fill="black" fill-opacity="0.85"/>
</svg>
