<svg width="34" height="18" viewBox="0 0 34 18" fill="none" xmlns="http://www.w3.org/2000/svg">
<path d="M0.606445 13.3448L5.99707 17.0948C6.60645 17.5284 7.46191 17.5049 8.1416 17.0479L13.4502 13.3448C14.2588 12.7823 14.2588 11.8799 13.4502 11.3174L8.08301 7.57916C7.4502 7.14557 6.60645 7.13385 5.99707 7.55572L0.606445 11.3174C-0.202148 11.8799 -0.202148 12.7823 0.606445 13.3448ZM10.2627 6.1026L15.665 9.8526C16.2744 10.2862 17.1299 10.2628 17.7979 9.794L23.1182 6.1026C23.9268 5.5401 23.9268 4.63775 23.1182 4.07525L17.7393 0.336973C17.1182 -0.108339 16.2744 -0.108339 15.665 0.313536L10.2627 4.07525C9.46582 4.63775 9.46582 5.5401 10.2627 6.1026ZM19.9424 13.3448L25.2744 17.0596C25.9307 17.5167 26.7861 17.5167 27.4072 17.0831L32.7861 13.3448C33.583 12.7823 33.583 11.8799 32.7861 11.3174L27.4072 7.57916C26.7861 7.14557 25.9424 7.13385 25.333 7.55572L19.9424 11.3174C19.1338 11.8799 19.1338 12.7823 19.9424 13.3448Z" fill="black" fill-opacity="0.85"/>
</svg>
