<svg width="24" height="24" viewBox="0 0 24 24" fill="none" xmlns="http://www.w3.org/2000/svg">
<path d="M11.9531 23.9062C18.4922 23.9062 23.9062 18.4805 23.9062 11.9531C23.9062 5.41406 18.4805 0 11.9414 0C5.41406 0 0 5.41406 0 11.9531C0 18.4805 5.42578 23.9062 11.9531 23.9062Z" fill="#FFCC00"/>
<path d="M5.48438 11.9531C5.48438 11.3438 5.57812 10.7344 5.74219 10.1719C6.19922 10.2773 6.64453 10.418 7.07812 10.6406L6.96094 10.8633C6.83203 11.0859 6.91406 11.3438 7.125 11.4375C7.3125 11.543 7.55859 11.4844 7.67578 11.2734L7.80469 11.0391C8.02734 11.168 8.23828 11.332 8.4375 11.4961L8.30859 11.6133C8.15625 11.7773 8.16796 12.0469 8.3203 12.1992C8.49608 12.3516 8.74219 12.3633 8.90625 12.2109L9.03516 12.082C9.25781 12.3047 9.43359 12.5508 9.62109 12.7969L9.4453 12.9023C9.24608 13.0078 9.17578 13.2773 9.29296 13.4648C9.41015 13.6758 9.65625 13.7344 9.84375 13.6289L10.0195 13.5234C10.1602 13.793 10.2656 14.0625 10.3711 14.3438L10.125 14.4023C9.91406 14.4609 9.78516 14.6953 9.84375 14.9297C9.89062 15.1289 10.1133 15.2812 10.3359 15.2227L10.582 15.1523C10.6172 15.4453 10.6523 15.7148 10.6641 15.9844L10.4297 15.9727C10.1836 15.9727 10.0195 16.1836 10.0078 16.4062C10.0078 16.6172 10.1719 16.8164 10.4062 16.8281L10.6523 16.8398C10.5938 17.3086 10.5117 17.7656 10.3594 18.2227C7.58203 17.4844 5.48438 14.9297 5.48438 11.9531ZM11.9648 18.4453C11.6719 18.4453 11.3906 18.4219 11.0977 18.375C11.2617 17.8828 11.3555 17.3672 11.4258 16.8516L11.7188 16.8633C11.9531 16.8633 12.1289 16.6758 12.1289 16.4531C12.1289 16.2305 11.9648 16.0195 11.7305 16.0078H11.4492C11.4375 15.668 11.4023 15.3047 11.3438 14.9648L11.6133 14.8945C11.8242 14.8359 11.9531 14.6016 11.9062 14.3672C11.8477 14.1562 11.625 14.0156 11.4023 14.0742L11.1445 14.1562C11.0273 13.8047 10.8984 13.4648 10.7344 13.1367L11.0039 12.9844C11.2148 12.8672 11.2734 12.5977 11.1562 12.4102C11.0391 12.2109 10.8047 12.1172 10.5938 12.2461L10.3125 12.3984C10.1016 12.0703 9.85547 11.7891 9.59766 11.5078L9.83203 11.2617C9.99609 11.1094 9.99608 10.8516 9.8203 10.6992C9.6328 10.5352 9.41016 10.5234 9.24609 10.6875L8.98828 10.9219C8.74219 10.7227 8.47266 10.5117 8.17969 10.3477L8.30859 10.125C8.42578 9.92578 8.34375 9.65625 8.14453 9.5625C7.94531 9.45703 7.69921 9.51562 7.58203 9.72656L7.45312 9.94922C6.98438 9.72656 6.50391 9.5625 6 9.44531C6.98438 7.13672 9.30469 5.46094 11.9531 5.46094C12.2227 5.46094 12.5039 5.48438 12.7734 5.51953C12.6211 6.03516 12.5039 6.53906 12.457 7.05469L12.2109 7.04297C11.9648 7.04297 11.7773 7.24219 11.7773 7.45312C11.7773 7.6875 11.9414 7.88672 12.1758 7.89844H12.4453C12.457 8.22656 12.4805 8.56641 12.5508 8.89453L12.2109 8.97656C11.9648 9.03516 11.8594 9.26953 11.918 9.48047C11.9766 9.70312 12.1875 9.84375 12.4102 9.77344L12.7383 9.69141C12.8438 10.0547 12.9961 10.4062 13.1602 10.7578L12.8906 10.9102C12.7031 11.0039 12.6562 11.2617 12.75 11.4727C12.8555 11.6602 13.1016 11.7422 13.3125 11.625L13.5703 11.4727C13.7812 11.7773 14.0039 12.0703 14.2617 12.3516L14.0625 12.5391C13.9102 12.7031 13.9336 12.9609 14.0977 13.1133C14.2617 13.2539 14.5195 13.2773 14.6719 13.125L14.8711 12.9258C15.1406 13.1484 15.4336 13.3711 15.7383 13.5469L15.5977 13.7812C15.4922 13.9805 15.5625 14.2383 15.7617 14.3555C15.9609 14.4727 16.2188 14.3789 16.3242 14.1797L16.4648 13.9336C16.9336 14.1562 17.4258 14.3203 17.9531 14.4258C16.957 16.7695 14.625 18.4453 11.9648 18.4453ZM18.457 11.9531C18.457 12.5625 18.375 13.1484 18.1992 13.6992C17.7305 13.6172 17.2734 13.4766 16.8281 13.2656L16.9453 13.043C17.0625 12.832 16.9922 12.5977 16.7812 12.4805C16.6055 12.3633 16.3359 12.457 16.2305 12.6562L16.1133 12.8672C15.8672 12.7266 15.6445 12.5508 15.4219 12.3633L15.5977 12.1875C15.7734 12.0117 15.7383 11.7422 15.5977 11.6016C15.4102 11.4375 15.1875 11.4141 15 11.6016L14.8242 11.7773C14.625 11.5547 14.4492 11.3203 14.2734 11.0742L14.4492 10.9688C14.6484 10.8633 14.707 10.6406 14.6016 10.418C14.4961 10.2188 14.2383 10.1367 14.0391 10.2539L13.875 10.3477C13.7227 10.0664 13.6172 9.78516 13.5117 9.50391L13.6875 9.44531C13.8984 9.38672 14.0391 9.17578 13.9688 8.95312C13.9102 8.71875 13.6992 8.58984 13.4648 8.64844L13.3125 8.68359C13.2656 8.42578 13.2422 8.16797 13.2188 7.92188L13.4883 7.93359C13.7227 7.93359 13.8984 7.74609 13.8984 7.5C13.9102 7.28906 13.7344 7.08984 13.5117 7.07812L13.2305 7.06641C13.2891 6.59766 13.3828 6.12891 13.5352 5.66016C16.3242 6.39844 18.457 8.96484 18.457 11.9531Z" fill="black" fill-opacity="0.85"/>
</svg>
