<svg width="24" height="24" viewBox="0 0 24 24" fill="none" xmlns="http://www.w3.org/2000/svg">
<path d="M11.9531 23.9062C18.4922 23.9062 23.9062 18.4805 23.9062 11.9531C23.9062 5.41406 18.4805 0 11.9414 0C5.41406 0 0 5.41406 0 11.9531C0 18.4805 5.42578 23.9062 11.9531 23.9062Z" fill="#FFCC00"/>
<path d="M5.48438 11.6602C5.5078 10.582 5.96484 9.24609 6.63281 8.28516C7.10156 8.42578 7.39453 9.24608 7.40625 9.76171C6.67969 10.3242 6.04688 10.9453 5.48438 11.6602ZM8.1328 9.24609C8.0039 8.64844 7.66406 7.88672 7.10156 7.6875C7.59375 7.13672 8.15624 6.67969 8.78905 6.31641C8.64843 6.9375 8.60155 7.81641 8.73046 8.89453C8.51953 9 8.33202 9.12891 8.1328 9.24609ZM9.45703 8.53125C9.32812 7.30078 9.46875 6.42188 9.59766 5.91797C10.2305 5.68359 10.8867 5.51952 11.5898 5.48438C10.8398 6.02343 10.3828 6.83203 10.3828 7.76953C10.3828 7.91016 10.3828 8.03906 10.3945 8.14453C10.0781 8.26172 9.75 8.39062 9.45703 8.53125ZM11.1914 7.93359C11.1562 6.65625 11.8477 6.03516 13.1602 5.57812C14.8359 5.90625 16.3008 6.90233 17.25 8.26171C16.1602 7.82811 14.9297 7.61719 13.6875 7.61719C12.832 7.61719 11.9883 7.71094 11.1914 7.93359ZM5.55469 12.9375C6.08203 12.1289 6.69141 11.4258 7.39453 10.793C7.28906 12.6445 6.82031 14.7891 7.41797 16.5352C6.45703 15.5859 5.77734 14.3203 5.55469 12.9375ZM8.20312 10.1484C8.41406 10.0078 8.625 9.86719 8.84766 9.73828C9.29297 12.2227 10.5 15.3867 12.9141 18.375C12.5977 18.4219 12.2812 18.4336 11.9648 18.4336C11.1211 18.4336 10.3242 18.2344 9.62109 17.8945C6.96094 16.2656 8.21484 13.0195 8.20312 10.1484ZM9.55078 9.35155C9.90234 9.18749 10.2539 9.03515 10.6055 8.91796C11.8008 11.625 17.0273 12.5977 17.2617 15.6445C16.418 16.8516 15.1875 17.7539 13.7578 18.1758C11.1797 15.0703 9.94922 11.7656 9.55078 9.35155ZM11.3906 8.68359C12.1289 8.49609 12.9023 8.40234 13.6875 8.40234C15.2109 8.40234 16.582 8.74219 17.9062 9.42188C18.2461 10.207 18.4453 11.0625 18.4453 11.9531C18.4453 12.9141 18.2227 13.8047 17.8477 14.625C16.7695 11.6953 12.4102 10.7461 11.3906 8.68359Z" fill="black" fill-opacity="0.85"/>
</svg>
