<svg width="28" height="27" viewBox="0 0 28 27" fill="none" xmlns="http://www.w3.org/2000/svg">
<path d="M0 11.5786C0 12.6802 0.679688 13.3716 1.79297 13.3716H25.6406C26.7539 13.3716 27.4453 12.6802 27.4453 11.5786V9.87939C27.4453 8.77783 26.7539 8.07471 25.6406 8.07471H1.79297C0.679688 8.07471 0 8.77783 0 9.87939V11.5786ZM2.25 9.93799H25.1836C25.4414 9.93799 25.5938 10.0903 25.5938 10.3481V11.0981C25.5938 11.356 25.4414 11.52 25.1836 11.52H2.25C1.99219 11.52 1.85156 11.356 1.85156 11.0981V10.3481C1.85156 10.0903 1.99219 9.93799 2.25 9.93799ZM7.45312 25.1138H19.9922C22.6992 25.1138 23.5312 23.5317 23.8828 21.8325L25.7461 12.9028L23.9062 12.5864L22.1602 21.1177C21.8438 22.6177 21.375 23.2388 19.6641 23.2388H7.78125C6.07031 23.2388 5.60156 22.6177 5.28516 21.1177L3.53906 12.5864L1.69922 12.9028L3.5625 21.8325C3.91406 23.5317 4.74609 25.1138 7.45312 25.1138ZM8.73047 21.9614C9.16406 21.8911 9.39844 21.5747 9.33984 21.1997L8.36719 15.0708C8.29688 14.6841 7.96875 14.4731 7.54688 14.5317C7.11328 14.6138 6.86719 14.9185 6.9375 15.2935L7.91016 21.4224C7.98047 21.8091 8.29688 22.0317 8.73047 21.9614ZM12.0938 21.8911C12.5156 21.8677 12.7969 21.5864 12.7734 21.1997L12.3984 15.1294C12.3633 14.731 12.0703 14.4614 11.6367 14.4966C11.2148 14.5317 10.9336 14.813 10.957 15.2114L11.332 21.27C11.3555 21.6685 11.6719 21.9263 12.0938 21.8911ZM15.3633 21.8911C15.7852 21.9263 16.1016 21.6685 16.125 21.27L16.5 15.2114C16.5234 14.813 16.2422 14.5317 15.8203 14.4966C15.3867 14.4614 15.0938 14.731 15.0586 15.1294L14.6836 21.1997C14.6602 21.5864 14.9414 21.8677 15.3633 21.8911ZM18.7148 21.9614C19.1367 22.0317 19.4648 21.8091 19.5352 21.4224L20.5195 15.2935C20.5781 14.9185 20.332 14.6138 19.8984 14.5317C19.4766 14.4731 19.1484 14.6841 19.0781 15.0708L18.1055 21.1997C18.0469 21.5747 18.2812 21.8911 18.7148 21.9614ZM3.78516 8.55517H6.14062L10.2422 1.41846C10.5586 0.855956 10.3008 0.363768 9.86719 0.129393C9.44531 -0.0932631 8.88281 -0.0581069 8.56641 0.469237L3.78516 8.55517ZM21.3047 8.55517H23.6602L18.8789 0.469237C18.5742 -0.0463881 18.0117 -0.0815444 17.5781 0.129393C17.1562 0.363768 16.8867 0.855956 17.2031 1.41846L21.3047 8.55517Z" fill="black" fill-opacity="0.85"/>
</svg>
