<svg width="24" height="24" viewBox="0 0 24 24" fill="none" xmlns="http://www.w3.org/2000/svg">
<path d="M11.9531 23.9062C18.4922 23.9062 23.9062 18.4805 23.9062 11.9531C23.9062 5.41406 18.4805 0 11.9414 0C5.41406 0 0 5.41406 0 11.9531C0 18.4805 5.42578 23.9062 11.9531 23.9062ZM11.9531 21.9141C6.42188 21.9141 2.00391 17.4844 2.00391 11.9531C2.00391 6.42188 6.41016 1.99219 11.9414 1.99219C17.4727 1.99219 21.9141 6.42188 21.9141 11.9531C21.9141 17.4844 17.4844 21.9141 11.9531 21.9141Z" fill="#007AFF"/>
<path d="M5.67188 11.6719C6.21093 10.9805 6.83203 10.3711 7.53516 9.83203C7.52344 9.38672 7.24219 8.53125 6.78516 8.40234C6.12891 9.33984 5.6953 10.6172 5.67188 11.6719ZM8.23828 9.32812C8.42578 9.21094 8.61328 9.09375 8.8125 8.98828C8.69531 7.94531 8.73047 7.08984 8.87109 6.49219C8.26172 6.84375 7.71094 7.28906 7.24219 7.81641C7.78125 8.01562 8.10938 8.75391 8.23828 9.32812ZM9.51562 8.63672C9.80859 8.49609 10.125 8.37891 10.4297 8.26172C10.418 8.15625 10.418 8.02734 10.418 7.89844C10.418 6.98438 10.8633 6.19922 11.5898 5.68359C11.0859 5.69531 10.2773 5.85938 9.65625 6.10547C9.52734 6.59766 9.39844 7.44141 9.51562 8.63672ZM11.2031 8.05078C11.9766 7.83984 12.7969 7.74609 13.6289 7.74609C14.8242 7.74609 16.0195 7.95703 17.0742 8.36719C16.1484 7.05469 14.7305 6.09375 13.1016 5.77734C11.8711 6.19922 11.1211 6.92578 11.2031 8.05078ZM5.74219 12.9023C5.95312 14.25 6.60938 15.4688 7.54688 16.3945C6.94921 14.6953 7.41797 12.6211 7.52344 10.8281C6.84375 11.4375 6.24609 12.1172 5.74219 12.9023ZM8.30859 10.207C8.32031 12.9844 7.10155 16.125 9.66796 17.707C10.3477 18.0352 11.1328 18.2344 11.9531 18.2344C12.2578 18.2344 12.5625 18.2227 12.8672 18.1758C10.5352 15.2812 9.36328 12.2109 8.92969 9.80859C8.71875 9.92578 8.50781 10.0664 8.30859 10.207ZM9.60938 9.43359C9.99609 11.7656 11.1914 14.9766 13.6875 17.9883C15.082 17.5781 16.2773 16.6992 17.0859 15.5273C16.8516 12.5742 11.7891 11.6367 10.6406 9.01172C10.2891 9.11719 9.94921 9.26953 9.60938 9.43359ZM11.3906 8.77734C12.3867 10.7812 16.6055 11.707 17.6602 14.543C18.0234 13.7461 18.2344 12.8789 18.2344 11.9531C18.2344 11.0859 18.0469 10.2539 17.707 9.49219C16.4297 8.83594 15.1055 8.50781 13.6289 8.50781C12.8672 8.50781 12.1172 8.60156 11.3906 8.77734Z" fill="black" fill-opacity="0.85"/>
</svg>
