<svg width="31" height="19" viewBox="0 0 31 19" fill="none" xmlns="http://www.w3.org/2000/svg">
<path d="M0 1.52344C0 2.36719 0.679688 3.04688 1.52344 3.04688H28.4883C29.332 3.04688 30.0234 2.36719 30.0234 1.52344C30.0234 0.679688 29.332 0 28.4883 0H1.52344C0.679688 0 0 0.679688 0 1.52344ZM8.23828 15.6914H21.7734C26.1914 15.6914 28.4766 13.5352 28.4766 9.33984V4.64062H1.54688V9.33984C1.54688 13.5352 3.82031 15.6914 8.23828 15.6914ZM4.96875 18.3047C5.46094 18.4922 6.01172 18.2227 6.1875 17.7422L7.18359 14.9883L5.41406 14.3438L4.41797 17.0977C4.24219 17.5781 4.48828 18.1406 4.96875 18.3047ZM25.043 18.3047C25.5234 18.1406 25.7812 17.5781 25.6055 17.0977L24.6094 14.3438L22.8281 14.9883L23.8242 17.7422C24.0117 18.2227 24.5625 18.4922 25.043 18.3047Z" fill="black" fill-opacity="0.85"/>
</svg>
