<svg width="24" height="24" viewBox="0 0 24 24" fill="none" xmlns="http://www.w3.org/2000/svg">
<path d="M11.9531 23.9062C18.4922 23.9062 23.9062 18.4805 23.9062 11.9531C23.9062 5.41406 18.4805 0 11.9414 0C5.41406 0 0 5.41406 0 11.9531C0 18.4805 5.42578 23.9062 11.9531 23.9062ZM11.9531 21.9141C6.42188 21.9141 2.00391 17.4844 2.00391 11.9531C2.00391 6.42188 6.41016 1.99219 11.9414 1.99219C17.4727 1.99219 21.9141 6.42188 21.9141 11.9531C21.9141 17.4844 17.4844 21.9141 11.9531 21.9141Z" fill="#007AFF"/>
<path d="M7.66406 15.5977H15.5391C16.418 15.5977 17.2266 15.5156 17.7891 14.9531C18.3633 14.3672 18.457 13.5703 18.457 12.7031V11.2031C18.457 10.3359 18.3633 9.52734 17.7891 8.95312C17.2266 8.39062 16.4062 8.29688 15.5391 8.29688H7.66406C6.79688 8.29688 5.97656 8.39062 5.39062 8.95312C4.82812 9.52734 4.74609 10.3359 4.74609 11.2031V12.7031C4.74609 13.5703 4.82812 14.3672 5.39062 14.9531C5.97656 15.5156 6.78516 15.5977 7.66406 15.5977ZM7.51172 14.2969C6.9375 14.2969 6.55078 14.1914 6.35156 13.9922C6.15234 13.8047 6.07031 13.418 6.07031 12.8438V11.0508C6.07031 10.4766 6.15234 10.0898 6.35156 9.90234C6.55078 9.70312 6.94922 9.59766 7.51172 9.59766H15.6914C16.2422 9.59766 16.6523 9.70311 16.8516 9.91405C17.0391 10.1016 17.1562 10.5 17.1562 11.0508V12.8438C17.1562 13.4062 17.0391 13.8047 16.8516 13.9922C16.6523 14.1914 16.2539 14.2969 15.6914 14.2969H7.51172ZM7.57031 13.6055H15.6445C15.9609 13.6055 16.1484 13.5703 16.2773 13.4414C16.4062 13.3125 16.4648 13.1133 16.4648 12.8086V11.0742C16.4648 10.7695 16.4062 10.5703 16.2773 10.4414C16.1484 10.3242 15.9609 10.2773 15.6445 10.2773H7.57031C7.25391 10.2773 7.05469 10.3242 6.92578 10.4414C6.80859 10.5703 6.75 10.7578 6.75 11.0742V12.8086C6.75 13.125 6.80859 13.3242 6.92578 13.4414C7.05469 13.5703 7.25391 13.6055 7.57031 13.6055ZM18.9727 13.3359C19.3828 13.3008 19.957 12.7617 19.957 11.9531C19.957 11.1445 19.3828 10.5938 18.9727 10.5703V13.3359Z" fill="black" fill-opacity="0.85"/>
</svg>
