<svg width="35" height="20" viewBox="0 0 35 20" fill="none" xmlns="http://www.w3.org/2000/svg">
<path d="M6.24609 17.4599H24.668C26.6719 17.4599 28.3594 17.2724 29.5547 16.0771C30.75 14.8818 30.9258 13.2177 30.9258 11.2138V7.85059C30.9258 5.84668 30.75 4.18262 29.5547 2.98731C28.3594 1.79199 26.6719 1.60449 24.668 1.60449H6.22266C4.25391 1.60449 2.56641 1.79199 1.37109 2.98731C0.175781 4.18262 0 5.8584 0 7.81543V11.2138C0 13.2177 0.175781 14.8818 1.37109 16.0771C2.56641 17.2724 4.25391 17.4599 6.24609 17.4599ZM5.92969 15.5732C4.72266 15.5732 3.45703 15.4091 2.74219 14.706C2.03906 13.9912 1.88672 12.7373 1.88672 11.5302V7.55762C1.88672 6.32715 2.03906 5.07324 2.74219 4.3584C3.45703 3.64356 4.73438 3.49121 5.96484 3.49121H24.9961C26.2031 3.49121 27.4688 3.65528 28.1719 4.3584C28.8867 5.07324 29.0391 6.31543 29.0391 7.52246V11.5302C29.0391 12.7373 28.8867 13.9912 28.1719 14.706C27.4688 15.4091 26.2031 15.5732 24.9961 15.5732H5.92969ZM32.5195 12.5615C33.4453 12.5029 34.6875 11.3193 34.6875 9.52637C34.6875 7.74512 33.4453 6.56153 32.5195 6.50293V12.5615Z" fill="#007AFF"/>
<path d="M5.30859 14.2138H25.6172C26.4258 14.2138 26.8945 14.0966 27.2227 13.7685C27.5391 13.4404 27.668 12.9716 27.668 12.163V6.90137C27.668 6.09278 27.5391 5.62403 27.2227 5.2959C26.8945 4.96778 26.4141 4.85059 25.6172 4.85059H5.34375C4.5 4.85059 4.01953 4.96778 3.70312 5.2959C3.375 5.62403 3.25781 6.10449 3.25781 6.92481V12.163C3.25781 12.9716 3.375 13.4404 3.70312 13.7685C4.03125 14.0966 4.51172 14.2138 5.30859 14.2138Z" fill="#FFCC00"/>
<path d="M8.98828 10.4171C8.98828 11.5889 9.94922 12.5264 11.1328 12.5264H12.7969L11.4844 16.0655C10.582 18.503 13.6406 20.1788 15.2461 18.1749L21.6797 10.0889C22.0195 9.66705 22.2188 9.17487 22.2188 8.64752C22.2188 7.47565 21.2578 6.53815 20.0742 6.53815H18.4102L19.7227 2.99909C20.625 0.561587 17.5664 -1.1142 15.9609 0.889712L9.52734 8.97565C9.1875 9.39752 8.98828 9.88971 8.98828 10.4171Z" fill="white"/>
<path d="M10.582 10.4171C10.582 10.71 10.8164 10.921 11.1211 10.921H15.0938L12.9727 16.6163C12.7031 17.3663 13.5 17.7764 13.9805 17.1788L20.4023 9.10457C20.5195 8.95223 20.6016 8.79989 20.6016 8.64754C20.6016 8.35457 20.3672 8.14364 20.0625 8.14364H16.0898L18.2109 2.44832C18.4805 1.69832 17.6836 1.28817 17.2031 1.88582L10.7812 9.94832C10.6523 10.1124 10.582 10.2647 10.582 10.4171Z" fill="black" fill-opacity="0.85"/>
</svg>
