<svg width="29" height="29" viewBox="0 0 29 29" fill="none" xmlns="http://www.w3.org/2000/svg">
<path d="M3.92871 24.8408H24.2021C26.6631 24.8408 27.8818 23.6338 27.8818 21.2198V9.88769C27.8818 7.47363 26.6631 6.2666 24.2021 6.2666H22.585V4.69629C22.585 3.80566 22.0693 3.2666 21.167 3.2666H17.71C16.8076 3.2666 16.3037 3.80566 16.3037 4.69629V6.2666H11.8271V4.69629C11.8271 3.80566 11.3232 3.2666 10.4209 3.2666H6.96387C6.06152 3.2666 5.5459 3.80566 5.5459 4.69629V6.2666H3.92871C1.47949 6.2666 0.249023 7.47363 0.249023 9.88769V21.2198C0.249023 23.6338 1.47949 24.8408 3.92871 24.8408ZM2.13574 21.1143V9.99316C2.13574 8.77441 2.78027 8.15332 3.95215 8.15332H24.1787C25.3389 8.15332 25.9951 8.77441 25.9951 9.99316V21.1143C25.9951 22.333 25.3389 22.9541 24.1787 22.9541H3.95215C2.78027 22.9541 2.13574 22.333 2.13574 21.1143Z" fill="#007AFF"/>
<path d="M24.249 27.4658C25.1396 28.3565 26.5928 28.3565 27.4717 27.4424C28.3389 26.5518 28.3389 25.1338 27.46 24.2549L3.88184 0.688506C3.00293 -0.1904 1.56152 -0.202119 0.65918 0.676787C-0.219727 1.55569 -0.219727 3.03226 0.65918 3.89944L24.249 27.4658Z" fill="white"/>
<path d="M25.21 26.4932C25.5732 26.8448 26.1475 26.8565 26.4873 26.4932C26.8389 26.1416 26.8506 25.5674 26.4873 25.2158L2.9209 1.66115C2.56934 1.30959 1.9834 1.29787 1.63184 1.66115C1.28027 2.001 1.28027 2.58693 1.63184 2.9385L25.21 26.4932Z" fill="black" fill-opacity="0.85"/>
</svg>
