<svg width="24" height="28" viewBox="0 0 24 28" fill="none" xmlns="http://www.w3.org/2000/svg">
<path d="M13.3143 5.99402L15.1776 6.67371L17.076 1.43543C17.287 0.861207 17.0526 0.322145 16.5018 0.111207C15.951 -0.0880117 15.4354 0.169801 15.2245 0.755738L13.3143 5.99402ZM13.5135 2.15026C6.65806 0.74402 1.58384 5.34949 0.0838378 9.52137C-0.162256 10.1776 0.165869 10.7284 0.646338 10.9159C1.03306 11.0565 1.3729 10.8925 1.67759 10.6464C2.76743 9.83776 3.78696 9.49792 4.99399 9.94323C5.80259 10.2362 6.27134 10.787 6.55259 11.3378C6.72837 11.6776 7.06821 11.6893 7.16196 11.3143C8.15806 7.41198 10.5487 4.14246 13.5135 2.15026ZM15.869 1.72839C12.5292 3.99011 9.61118 7.95105 8.60337 12.1229C8.50962 12.5214 8.81431 12.7909 9.28306 12.6151C10.2206 12.2284 11.1229 12.0995 11.9784 12.4159C12.8338 12.7206 13.4432 13.4003 13.9237 14.3026C14.1581 14.7245 14.5448 14.7362 14.744 14.3612C16.6542 10.5292 16.9706 5.59558 15.869 1.72839ZM17.4627 3.57996C18.4471 7.00183 18.1659 11.0331 16.4432 14.701C16.2792 15.0409 16.5252 15.2635 16.8885 15.0995C17.4745 14.8534 18.1776 14.7362 18.9745 15.0292C20.1932 15.4745 20.7557 16.4003 21.0721 17.701C21.1424 18.0878 21.3182 18.4393 21.6815 18.5682C22.1737 18.744 22.7831 18.5331 23.0174 17.8651C24.5409 13.705 23.6268 6.91981 17.4627 3.57996ZM5.86118 26.4784C5.67368 26.994 5.93149 27.5565 6.44712 27.744C6.95103 27.9198 7.53696 27.6385 7.71274 27.1464L13.1268 12.2987L11.2752 11.619L5.86118 26.4784Z" fill="black" fill-opacity="0.85"/>
</svg>
