<svg width="24" height="28" viewBox="0 0 24 28" fill="none" xmlns="http://www.w3.org/2000/svg">
<path d="M0.0788734 9.49901C-0.155501 10.167 0.160905 10.7178 0.653092 10.8935C1.02809 11.0342 1.39137 10.8584 1.69606 10.6123C2.76247 9.82714 3.782 9.47557 5.00075 9.92089C6.2195 10.3545 6.71169 11.2568 6.92262 12.5107C6.98122 12.9209 7.12184 13.249 7.4734 13.3779C7.8484 13.5185 8.16481 13.3545 8.48122 13.0849C9.18434 12.4873 10.1336 12.1826 11.0359 12.2295L5.8445 26.456C5.657 26.9599 5.92653 27.5342 6.44215 27.7217C6.93434 27.8974 7.52028 27.6279 7.70778 27.124L12.8875 12.8974C13.6023 13.4482 14.1179 14.292 14.2703 15.206C14.3523 15.5928 14.4812 15.9326 14.8445 16.0615C15.2078 16.1904 15.5242 16.0146 15.8406 15.7568C16.8132 14.9365 17.7507 14.5615 18.9695 14.9951C20.1882 15.4521 20.7507 16.3662 21.0554 17.6787C21.1492 18.0537 21.3015 18.417 21.6765 18.5459C22.1687 18.7217 22.7898 18.5107 23.0125 17.8428C24.6062 13.4717 23.5164 6.1826 16.4617 3.06542L17.0711 1.41307C17.2703 0.827133 17.0476 0.29979 16.4851 0.088852C15.9461 -0.110367 15.4187 0.159165 15.2078 0.733383L14.6101 2.39745C7.20387 0.241196 1.67262 5.10448 0.0788734 9.49901ZM2.82106 8.13964C4.81325 5.08104 8.56325 3.14745 12.7586 3.86229C10.8718 5.10448 9.05544 7.28417 7.87184 10.0967C7.40309 9.19432 6.64137 8.57323 5.63356 8.22167C4.68434 7.88182 3.75856 7.84667 2.82106 8.13964ZM9.28981 10.6826C10.6257 7.50682 12.8757 5.22167 14.9148 4.40135C15.9695 6.34667 16.2273 9.53417 15.2078 12.8506C14.6453 11.8779 13.6961 11.0928 12.6297 10.6943C11.5632 10.3076 10.3328 10.3076 9.28981 10.6826ZM16.6609 13.2959C17.575 10.3779 17.5867 7.5537 16.9422 5.38573C20.5984 7.54198 22.2273 11.4326 21.782 15.042C21.2547 14.2217 20.5164 13.6474 19.5906 13.2959C18.5828 12.9326 17.5984 12.9092 16.6609 13.2959Z" fill="black" fill-opacity="0.85"/>
</svg>
