<svg width="20" height="21" viewBox="0 0 20 21" fill="none" xmlns="http://www.w3.org/2000/svg">
<path d="M4.29156 15.1172C6.64703 15.1172 8.40484 13.0898 7.97125 10.4766L7.20953 5.87109C7.10406 5.22656 7.33844 4.79297 7.97125 4.5C9.565 3.75 11.065 3.35156 13.0337 3.04688C14.2525 2.87109 14.8736 1.96875 14.8736 0.761719C14.8736 0.269531 14.6275 0 13.8658 0C11.3697 0 8.89703 0.398438 6.36578 1.27734C2.10015 2.75391 -0.548283 5.36719 0.0962478 8.87109L0.717342 12.2344C1.08062 14.2031 2.74469 15.1172 4.29156 15.1172ZM4.29156 13.3242C3.19 13.3242 2.32281 12.4688 2.32281 11.3672C2.32281 10.2656 3.19 9.41016 4.29156 9.41016C5.3814 9.41016 6.23687 10.2773 6.23687 11.3672C6.23687 12.457 5.3814 13.3242 4.29156 13.3242ZM4.29156 12.4922C4.91265 12.4922 5.40484 12 5.40484 11.3672C5.40484 10.7461 4.91265 10.2422 4.29156 10.2422C3.64703 10.2422 3.15484 10.7461 3.15484 11.3672C3.15484 12 3.64703 12.4922 4.29156 12.4922ZM4.29156 16.2539C2.48687 16.2539 0.939998 15.3398 0.131404 13.8984C0.377498 17.8008 3.90484 19.7461 7.90094 19.7461C8.95562 19.7461 9.72906 19.6055 10.4673 19.2305C11.9791 16.5938 13.0455 13.8398 13.7252 10.8633C12.9517 9.23438 11.1353 8.16797 8.6275 7.52344L9.09625 10.2891C9.63531 13.5234 7.42047 16.2539 4.29156 16.2539Z" fill="black" fill-opacity="0.85"/>
<path d="M19.2334 15.7617C19.2334 13.0312 17.0771 11.2148 14.8623 10.9922C14.1474 14.1562 12.999 17.1328 11.3701 19.9102C12.0263 20.3672 13.0927 20.7539 14.2763 20.7539C17.2529 20.7539 19.2334 18.75 19.2334 15.7617Z" fill="#007AFF"/>
<path d="M4.29199 13.3242C3.19043 13.3242 2.32324 12.4688 2.32324 11.3672C2.32324 10.2656 3.19043 9.41016 4.29199 9.41016C5.38183 9.41016 6.2373 10.2773 6.2373 11.3672C6.2373 12.457 5.38183 13.3242 4.29199 13.3242ZM4.29199 12.4922C4.91308 12.4922 5.40527 12 5.40527 11.3672C5.40527 10.7461 4.91308 10.2422 4.29199 10.2422C3.64746 10.2422 3.15527 10.7461 3.15527 11.3672C3.15527 12 3.64746 12.4922 4.29199 12.4922Z" fill="#FFCC00"/>
</svg>
