<svg width="15" height="25" viewBox="0 0 15 25" fill="none" xmlns="http://www.w3.org/2000/svg">
<path d="M9.46875 0C4.27734 0 0 5.96484 0 13.2891C0 16.7344 0.914062 20.543 2.03906 20.543C2.90625 20.543 3.60938 19.3945 3.70312 18.2344C1.99219 17.7305 0.726562 16.1484 0.726562 14.2969C0.726562 13.1719 1.16016 12.1758 1.94531 11.3789C2.33203 6.33984 5.60156 1.89844 9.36328 1.89844C11.6133 1.89844 12.6445 3.58594 12.6445 6.70312L3.66797 11.3906C2.35547 12.0703 1.75781 13.1484 1.75781 14.2969C1.75781 15.9727 3.14062 17.3555 4.81641 17.3555C5.63672 17.3555 6.1875 17.1445 7.34766 16.5234L11.8828 14.0391C13.8516 12.9492 14.5547 11.625 14.5547 8.84766V6.375C14.5547 2.47266 12.832 0 9.46875 0ZM4.74609 16.2188C3.66797 16.2188 2.80078 15.3398 2.80078 14.2852C2.80078 13.2188 3.66797 12.3516 4.74609 12.3516C5.80078 12.3516 6.66797 13.2188 6.66797 14.2852C6.66797 15.3398 5.80078 16.2188 4.74609 16.2188ZM4.74609 15.4688C5.37891 15.4688 5.91797 14.9297 5.91797 14.2852C5.91797 13.6406 5.37891 13.1016 4.74609 13.1016C4.08984 13.1016 3.5625 13.6406 3.5625 14.2852C3.5625 14.9297 4.08984 15.4688 4.74609 15.4688ZM1.55859 24.3984H2.63672V20.0977H1.55859V24.3984Z" fill="black" fill-opacity="0.85"/>
<path d="M4.74609 16.2188C3.66797 16.2188 2.80078 15.3398 2.80078 14.2852C2.80078 13.2188 3.66797 12.3516 4.74609 12.3516C5.80078 12.3516 6.66797 13.2188 6.66797 14.2852C6.66797 15.3398 5.80078 16.2188 4.74609 16.2188ZM4.74609 15.4688C5.37891 15.4688 5.91797 14.9297 5.91797 14.2852C5.91797 13.6406 5.37891 13.1016 4.74609 13.1016C4.08984 13.1016 3.5625 13.6406 3.5625 14.2852C3.5625 14.9297 4.08984 15.4688 4.74609 15.4688Z" fill="#FFCC00"/>
</svg>
