<svg width="38" height="20" viewBox="0 0 38 20" fill="none" xmlns="http://www.w3.org/2000/svg">
<path d="M0 9.9375C0 16.2773 4.52344 19.8633 12.5273 19.8633H24.5156C32.5195 19.8633 37.043 16.2773 37.043 9.9375C37.043 3.58594 32.5195 0 24.5156 0H12.5273C4.52344 0 0 3.58594 0 9.9375ZM1.88672 9.9375C1.88672 4.76953 5.70703 1.88672 12.5273 1.88672H24.5156C31.3242 1.88672 35.1562 4.76953 35.1562 9.9375C35.1562 15.0938 31.3242 17.9766 24.5156 17.9766H12.5273C5.70703 17.9766 1.88672 15.0938 1.88672 9.9375ZM0.960938 9.92578H36.082V8.74219H0.960938V9.92578ZM10.1836 10.7344H26.8477C27.668 10.7344 28.2656 10.1602 28.2656 9.33984C28.2656 8.50781 27.668 7.93359 26.8477 7.93359H10.1836C9.38672 7.93359 8.77734 8.50781 8.77734 9.33984C8.77734 10.1602 9.38672 10.7344 10.1836 10.7344ZM18.5156 14.2383C19.1719 14.2266 19.7109 13.6758 19.7109 13.0664C19.7109 12.3984 19.1719 11.8711 18.5156 11.8711C17.8594 11.8711 17.3203 12.3984 17.3203 13.0664C17.3203 13.7109 17.8594 14.2617 18.5156 14.2383Z" fill="black" fill-opacity="0.85"/>
</svg>
