<svg width="17" height="23" viewBox="0 0 17 23" fill="none" xmlns="http://www.w3.org/2000/svg">
<path d="M5.58984 0C1.89844 0 0 2.71875 0 7.03125V9.76172C0 12.832 0.773438 14.2852 2.95312 15.4805L7.93359 18.2227C9.22266 18.9141 9.82031 19.1484 10.7227 19.1484C12.5859 19.1484 14.1094 17.6133 14.1094 15.7617C14.1094 14.4961 13.4414 13.3242 12 12.5625L2.09766 7.39453C2.09766 3.96094 3.22266 2.10938 5.70703 2.10938C9.86719 2.10938 13.4648 6.99609 13.8867 12.5625C14.7656 13.4297 15.2461 14.5312 15.2461 15.7617C15.2461 17.8125 13.8398 19.5586 11.9648 20.1094C12.0586 21.3867 12.8438 22.6523 13.793 22.6523C15.0234 22.6523 16.043 18.457 16.043 14.6602C16.043 6.58594 11.3203 0 5.58984 0ZM10.8047 17.8828C9.64453 17.8828 8.68359 16.9219 8.68359 15.75C8.68359 14.5781 9.64453 13.6172 10.8047 13.6172C11.9883 13.6172 12.9492 14.5781 12.9492 15.75C12.9492 16.9219 11.9883 17.8828 10.8047 17.8828ZM10.8047 17.0508C11.5312 17.0508 12.1172 16.4648 12.1172 15.75C12.1172 15.0469 11.5312 14.4492 10.8047 14.4492C10.1016 14.4492 9.51562 15.0469 9.51562 15.75C9.51562 16.4648 10.1016 17.0508 10.8047 17.0508Z" fill="black" fill-opacity="0.85"/>
<path d="M10.8047 17.8828C9.64453 17.8828 8.68359 16.9219 8.68359 15.75C8.68359 14.5781 9.64453 13.6172 10.8047 13.6172C11.9883 13.6172 12.9492 14.5781 12.9492 15.75C12.9492 16.9219 11.9883 17.8828 10.8047 17.8828ZM10.8047 17.0508C11.5312 17.0508 12.1172 16.4648 12.1172 15.75C12.1172 15.0469 11.5312 14.4492 10.8047 14.4492C10.1016 14.4492 9.51562 15.0469 9.51562 15.75C9.51562 16.4648 10.1016 17.0508 10.8047 17.0508Z" fill="#FFCC00"/>
</svg>
