<svg width="33" height="22" viewBox="0 0 33 22" fill="none" xmlns="http://www.w3.org/2000/svg">
<path d="M9.94922 0.0117188C4.48828 0.0117188 0 6.26953 0 13.957C0 17.5781 0.972656 21.5742 2.14453 21.5742C3.04688 21.5742 3.78516 20.3555 3.87891 19.1484C2.08594 18.6211 0.761719 16.957 0.761719 15C0.761719 13.8281 1.21875 12.7852 2.05078 11.9648C2.44922 6.65625 5.88281 2.00391 9.83203 2.00391C12.1992 2.00391 13.2773 3.77344 13.2773 7.04297L3.84375 11.9648C2.47266 12.6797 1.83984 13.8047 1.83984 15C1.83984 16.7695 3.29297 18.2227 5.0625 18.2227C5.91797 18.2227 6.49219 18.0117 7.72266 17.3438L12.457 14.7422C14.5312 13.6055 15.2695 12.2227 15.2695 9.29297V6.70312C15.2695 2.58984 13.4648 0.0117188 9.94922 0.0117188ZM4.98047 17.0273C3.85547 17.0273 2.94141 16.1133 2.94141 15C2.94141 13.8867 3.85547 12.9727 4.98047 12.9727C6.09375 12.9727 7.00781 13.8867 7.00781 15C7.00781 16.1133 6.09375 17.0273 4.98047 17.0273ZM4.98047 16.2422C5.66016 16.2422 6.21094 15.6797 6.21094 15C6.21094 14.3203 5.66016 13.7578 4.98047 13.7578C4.28906 13.7578 3.73828 14.3203 3.73828 15C3.73828 15.6797 4.28906 16.2422 4.98047 16.2422ZM22.1016 0.0117188C18.5859 0.0117188 16.7812 2.58984 16.7812 6.70312V9.29297C16.7812 12.2227 17.5195 13.6055 19.582 14.7422L24.3281 17.3438C25.5586 18.0117 26.1328 18.2227 26.9883 18.2227C28.7578 18.2227 30.2109 16.7695 30.2109 15C30.2109 13.8047 29.5781 12.6797 28.1953 11.9648L18.7734 7.04297C18.7734 3.77344 19.8516 2.00391 22.2188 2.00391C26.168 2.00391 29.6016 6.65625 30 11.9648C30.832 12.7852 31.2891 13.8281 31.2891 15C31.2891 16.957 29.9531 18.6211 28.1602 19.1484C28.2539 20.3555 29.0039 21.5742 29.9062 21.5742C31.0781 21.5742 32.0508 17.5781 32.0508 13.957C32.0508 6.26953 27.5625 0.0117188 22.1016 0.0117188ZM27.0703 17.0273C25.957 17.0273 25.043 16.1133 25.043 15C25.043 13.8867 25.957 12.9727 27.0703 12.9727C28.1953 12.9727 29.1094 13.8867 29.1094 15C29.1094 16.1133 28.1953 17.0273 27.0703 17.0273ZM27.0703 16.2422C27.7617 16.2422 28.3125 15.6797 28.3125 15C28.3125 14.3203 27.7617 13.7578 27.0703 13.7578C26.3906 13.7578 25.8281 14.3203 25.8281 15C25.8281 15.6797 26.3906 16.2422 27.0703 16.2422Z" fill="black" fill-opacity="0.85"/>
<path d="M4.98047 17.0273C3.85547 17.0273 2.94141 16.1133 2.94141 15C2.94141 13.8867 3.85547 12.9727 4.98047 12.9727C6.09375 12.9727 7.00781 13.8867 7.00781 15C7.00781 16.1133 6.09375 17.0273 4.98047 17.0273ZM4.98047 16.2422C5.66016 16.2422 6.21094 15.6797 6.21094 15C6.21094 14.3203 5.66016 13.7578 4.98047 13.7578C4.28906 13.7578 3.73828 14.3203 3.73828 15C3.73828 15.6797 4.28906 16.2422 4.98047 16.2422ZM27.0703 17.0273C25.957 17.0273 25.043 16.1133 25.043 15C25.043 13.8867 25.957 12.9727 27.0703 12.9727C28.1953 12.9727 29.1094 13.8867 29.1094 15C29.1094 16.1133 28.1953 17.0273 27.0703 17.0273ZM27.0703 16.2422C27.7617 16.2422 28.3125 15.6797 28.3125 15C28.3125 14.3203 27.7617 13.7578 27.0703 13.7578C26.3906 13.7578 25.8281 14.3203 25.8281 15C25.8281 15.6797 26.3906 16.2422 27.0703 16.2422Z" fill="#FFCC00"/>
</svg>
