<svg width="30" height="22" viewBox="0 0 30 22" fill="none" xmlns="http://www.w3.org/2000/svg">
<path d="M0 10.7812C0 14.7305 1.875 18.3984 5.76562 20.2734C7.61719 21.1758 9.99609 21.5742 13.2891 21.5742H16.7109C20.0039 21.5742 22.3828 21.1758 24.2344 20.2734C28.125 18.3984 30 14.7305 30 10.7812C30 7.25391 28.1016 3.59766 24.2344 1.73438C22.3828 0.832031 20.0039 0.433594 16.7109 0.433594H13.2891C9.99609 0.433594 7.61719 0.832031 5.76562 1.73438C1.88672 3.59766 0 7.25391 0 10.7812ZM1.88672 10.7812C1.88672 6.98438 4.47656 3.72656 8.47266 2.77734C9.75 2.47266 11.3203 2.32031 13.2891 2.32031H16.7109C19.7812 2.32031 21.8555 2.67188 23.4141 3.43359C26.3203 4.83984 28.1133 7.64062 28.1133 10.7812C28.1133 15.6445 24.8672 19.125 19.582 19.5469C18.7266 19.6406 17.7773 19.6875 16.7109 19.6875H13.2891C10.2188 19.6875 8.14453 19.3359 6.58594 18.5742C3.59766 17.1328 1.88672 14.3086 1.88672 10.7812ZM2.16797 6.50391H27.8438V5.32031H2.16797V6.50391ZM15.0117 14.8711C16.3242 14.8711 17.4023 13.8047 17.4023 12.5391C17.4023 11.2031 16.3008 10.1133 15.0117 10.1133C14.5312 10.1133 14.1094 10.2422 13.7109 10.5352V8.63672L12.6328 9.10547V12.5391C12.6328 13.8398 13.6641 14.8711 15.0117 14.8711ZM15.0117 13.8047C14.2969 13.8047 13.7109 13.2188 13.7109 12.5391C13.7109 11.8242 14.3086 11.2266 15.0117 11.2266C15.7148 11.2266 16.3008 11.8359 16.3008 12.5391C16.3008 13.2188 15.7148 13.8047 15.0117 13.8047Z" fill="black" fill-opacity="0.85"/>
</svg>
