<svg width="31" height="25" viewBox="0 0 31 25" fill="none" xmlns="http://www.w3.org/2000/svg">
<path d="M9.46875 0C4.27734 0 0 5.96484 0 13.2891C0 16.7344 0.914062 20.543 2.03906 20.543C2.90625 20.543 3.60938 19.3945 3.70312 18.2344C1.99219 17.7305 0.726562 16.1484 0.726562 14.2969C0.726562 13.1719 1.16016 12.1758 1.94531 11.3789C2.33203 6.33984 5.60156 1.89844 9.36328 1.89844C11.6133 1.89844 12.6445 3.58594 12.6445 6.70312L3.66797 11.3906C2.35547 12.0703 1.75781 13.1484 1.75781 14.2969C1.75781 15.9727 3.14062 17.3555 4.81641 17.3555C5.63672 17.3555 6.1875 17.1445 7.34766 16.5234L11.8828 14.0391C13.8516 12.9492 14.5547 11.625 14.5547 8.84766V6.375C14.5547 2.47266 12.832 0 9.46875 0ZM4.74609 16.2188C3.66797 16.2188 2.80078 15.3398 2.80078 14.2852C2.80078 13.2188 3.66797 12.3516 4.74609 12.3516C5.80078 12.3516 6.66797 13.2188 6.66797 14.2852C6.66797 15.3398 5.80078 16.2188 4.74609 16.2188ZM4.74609 15.4688C5.37891 15.4688 5.91797 14.9297 5.91797 14.2852C5.91797 13.6406 5.37891 13.1016 4.74609 13.1016C4.08984 13.1016 3.5625 13.6406 3.5625 14.2852C3.5625 14.9297 4.08984 15.4688 4.74609 15.4688ZM1.55859 24.3984H2.63672V20.0977H1.55859V24.3984ZM21.0586 0C17.6953 0 15.9727 2.47266 15.9727 6.375V8.84766C15.9727 11.625 16.6758 12.9492 18.6445 14.0391L23.1797 16.5234C24.3398 17.1445 24.8906 17.3555 25.7109 17.3555C27.3867 17.3555 28.7695 15.9727 28.7695 14.2969C28.7695 13.1484 28.1719 12.0703 26.8594 11.3906L17.8828 6.70312C17.8828 3.58594 18.9141 1.89844 21.1641 1.89844C24.9141 1.89844 28.1953 6.33984 28.582 11.3789C29.3672 12.1758 29.8008 13.1719 29.8008 14.2969C29.8008 16.1484 28.5352 17.7305 26.8242 18.2344C26.9062 19.3945 27.6211 20.543 28.4883 20.543C29.6016 20.543 30.5273 16.7344 30.5273 13.2891C30.5273 5.96484 26.25 0 21.0586 0ZM25.7812 16.2188C24.7266 16.2188 23.8477 15.3398 23.8477 14.2852C23.8477 13.2188 24.7266 12.3516 25.7812 12.3516C26.8594 12.3516 27.7266 13.2188 27.7266 14.2852C27.7266 15.3398 26.8594 16.2188 25.7812 16.2188ZM25.7812 15.4688C26.4375 15.4688 26.9648 14.9297 26.9648 14.2852C26.9648 13.6406 26.4375 13.1016 25.7812 13.1016C25.1367 13.1016 24.5977 13.6406 24.5977 14.2852C24.5977 14.9297 25.1367 15.4688 25.7812 15.4688ZM28.9688 24.3984V20.0977H27.8906V24.3984H28.9688Z" fill="black" fill-opacity="0.85"/>
<path d="M4.74609 16.2188C3.66797 16.2188 2.80078 15.3398 2.80078 14.2852C2.80078 13.2188 3.66797 12.3516 4.74609 12.3516C5.80078 12.3516 6.66797 13.2188 6.66797 14.2852C6.66797 15.3398 5.80078 16.2188 4.74609 16.2188ZM4.74609 15.4688C5.37891 15.4688 5.91797 14.9297 5.91797 14.2852C5.91797 13.6406 5.37891 13.1016 4.74609 13.1016C4.08984 13.1016 3.5625 13.6406 3.5625 14.2852C3.5625 14.9297 4.08984 15.4688 4.74609 15.4688ZM25.7812 16.2188C24.7266 16.2188 23.8477 15.3398 23.8477 14.2852C23.8477 13.2188 24.7266 12.3516 25.7812 12.3516C26.8594 12.3516 27.7266 13.2188 27.7266 14.2852C27.7266 15.3398 26.8594 16.2188 25.7812 16.2188ZM25.7812 15.4688C26.4375 15.4688 26.9648 14.9297 26.9648 14.2852C26.9648 13.6406 26.4375 13.1016 25.7812 13.1016C25.1367 13.1016 24.5977 13.6406 24.5977 14.2852C24.5977 14.9297 25.1367 15.4688 25.7812 15.4688Z" fill="#FFCC00"/>
</svg>
