<svg width="21" height="20" viewBox="0 0 21 20" fill="none" xmlns="http://www.w3.org/2000/svg">
<path d="M8.61308 12.0585C10.2537 12.7616 12.1521 11.953 12.867 10.3358L15.2342 4.94519C15.949 3.31629 15.1639 1.39441 13.5232 0.679567C11.8709 -0.0235585 9.97246 0.749879 9.24589 2.41394L6.89042 7.80457C6.16386 9.44519 6.96074 11.3437 8.61308 12.0585ZM9.79668 11.0976C8.67168 11.0976 7.79277 10.2069 7.79277 9.08191C7.79277 7.96863 8.68339 7.06629 9.79668 7.06629C10.9334 7.06629 11.824 7.96863 11.824 9.08191C11.824 10.2069 10.9334 11.0976 9.79668 11.0976ZM9.79668 10.2655C10.4881 10.2655 10.9803 9.73816 10.9803 9.08191C10.9803 8.43738 10.4881 7.89832 9.79668 7.89832C9.12871 7.89832 8.6248 8.43738 8.6248 9.08191C8.6248 9.73816 9.12871 10.2655 9.79668 10.2655ZM19.9334 8.61316C19.324 6.59754 17.824 5.6366 16.5467 4.55847C16.4764 4.85144 16.3943 5.12097 16.2654 5.40222L13.8982 10.7929C12.9256 13.0077 10.3709 14.0272 8.15605 13.1015C5.98808 12.1522 4.94511 9.71472 5.77714 7.55847C4.69902 8.84754 4.45292 10.8163 5.26152 13.0429C6.72636 17.1561 10.4764 17.9296 14.156 16.4882L16.3709 15.6093C19.3826 14.4257 20.8123 11.6366 19.9334 8.61316Z" fill="black" fill-opacity="0.85"/>
<path d="M4.19531 13.4297C3.64453 11.9297 3.51562 10.4531 3.83203 9C1.62891 9.59766 0 11.6133 0 14.0156C0 16.8867 2.32031 19.207 5.16797 19.207C6.46875 19.207 7.66406 18.7383 8.56641 17.9297C6.58594 17.2852 5.02734 15.75 4.19531 13.4297Z" fill="#007AFF"/>
<path d="M9.79688 11.0977C8.67188 11.0977 7.79297 10.207 7.79297 9.08203C7.79297 7.96875 8.68359 7.06641 9.79688 7.06641C10.9336 7.06641 11.8242 7.96875 11.8242 9.08203C11.8242 10.207 10.9336 11.0977 9.79688 11.0977ZM9.79688 10.2656C10.4883 10.2656 10.9805 9.73828 10.9805 9.08203C10.9805 8.4375 10.4883 7.89844 9.79688 7.89844C9.12891 7.89844 8.625 8.4375 8.625 9.08203C8.625 9.73828 9.12891 10.2656 9.79688 10.2656Z" fill="#FFCC00"/>
</svg>
