<svg width="30" height="20" viewBox="0 0 30 20" fill="none" xmlns="http://www.w3.org/2000/svg">
<path d="M0 18.7734C0 19.3828 0.386719 19.7695 0.996094 19.7695H1.69922C2.29688 19.7695 2.69531 19.3828 2.69531 18.7734V17.0391C2.82422 17.0742 3.21094 17.0977 3.49219 17.0977H26.2031C26.4844 17.0977 26.8711 17.0742 27 17.0391V18.7734C27 19.3828 27.3984 19.7695 27.9961 19.7695H28.6992C29.3086 19.7695 29.6953 19.3828 29.6953 18.7734V11.7891C29.6953 9.55078 28.4531 8.32031 26.2148 8.32031H3.48047C1.24219 8.32031 0 9.55078 0 11.7891V18.7734Z" fill="black" fill-opacity="0.85"/>
<path d="M2.8125 6.64453H5.78906V4.95703C5.78906 3.86719 6.39844 3.26953 7.51172 3.26953H11.8828C12.9844 3.26953 13.5938 3.86719 13.5938 4.95703V6.64453H16.2539V4.95703C16.2539 3.86719 16.8633 3.26953 18.0352 3.26953H22.1367C23.3086 3.26953 23.918 3.86719 23.918 4.95703V6.64453H26.9062V3.28125C26.9062 1.11328 25.7344 0 23.625 0H6.08203C3.97266 0 2.8125 1.11328 2.8125 3.28125V6.64453Z" fill="#007AFF"/>
</svg>
