<svg width="24" height="24" viewBox="0 0 24 24" fill="none" xmlns="http://www.w3.org/2000/svg">
<path d="M11.9531 23.9062C18.4922 23.9062 23.9062 18.4805 23.9062 11.9531C23.9062 5.41406 18.4805 0 11.9414 0C5.41406 0 0 5.41406 0 11.9531C0 18.4805 5.42578 23.9062 11.9531 23.9062ZM11.9531 21.9141C6.42188 21.9141 2.00391 17.4844 2.00391 11.9531C2.00391 6.42188 6.41016 1.99219 11.9414 1.99219C17.4727 1.99219 21.9141 6.42188 21.9141 11.9531C21.9141 17.4844 17.4844 21.9141 11.9531 21.9141Z" fill="#007AFF"/>
<path d="M4.875 16.1719C4.875 16.4531 5.07422 16.6406 5.35547 16.6406H5.68359C5.96484 16.6406 6.15234 16.4531 6.15234 16.1719V15.3516C6.22266 15.3633 6.39844 15.3633 6.53906 15.3633H17.3672C17.5078 15.3633 17.6836 15.3633 17.7539 15.3516V16.1719C17.7539 16.4531 17.9414 16.6406 18.2227 16.6406H18.5508C18.8438 16.6406 19.0312 16.4531 19.0312 16.1719V12.8438C19.0312 11.7773 18.4336 11.1914 17.3672 11.1914H6.53906C5.47266 11.1914 4.875 11.7773 4.875 12.8438V16.1719ZM6.22266 10.3945H7.64062V9.60938C7.64062 9.08203 7.92188 8.78906 8.46094 8.78906H10.5469C11.0625 8.78906 11.3555 9.08203 11.3555 9.60938V10.3945H12.6211V9.60938C12.6211 9.08203 12.9141 8.78906 13.4648 8.78906H15.4102C15.9844 8.78906 16.2773 9.08203 16.2773 9.60938V10.3945H17.6953V8.80078C17.6953 7.78125 17.1328 7.25391 16.1367 7.25391H7.76953C6.77344 7.25391 6.22266 7.78125 6.22266 8.80078V10.3945Z" fill="black" fill-opacity="0.85"/>
</svg>
