<svg width="24" height="24" viewBox="0 0 24 24" fill="none" xmlns="http://www.w3.org/2000/svg">
<path d="M11.9531 23.918C18.4922 23.918 23.9062 18.5039 23.9062 11.9648C23.9062 5.4375 18.4805 0.0117188 11.9414 0.0117188C5.41406 0.0117188 0 5.4375 0 11.9648C0 18.5039 5.42578 23.918 11.9531 23.918Z" fill="#FFCC00"/>
<path d="M4.65234 16.3125V12.8906C4.65234 11.8008 5.27344 11.1797 6.375 11.1797H17.5312C18.6328 11.1797 19.2539 11.8008 19.2539 12.8906V16.3125C19.2539 16.6172 19.0547 16.8047 18.75 16.8047H18.4219C18.1289 16.8047 17.9297 16.6172 17.9297 16.3125V15.4688C17.8594 15.4805 17.6719 15.4805 17.5312 15.4805H6.375C6.23438 15.4805 6.04688 15.4805 5.97656 15.4688V16.3125C5.97656 16.6172 5.77734 16.8047 5.48438 16.8047H5.15625C4.86328 16.8047 4.65234 16.6172 4.65234 16.3125ZM6.04688 10.3594V8.71875C6.04688 7.66406 6.60938 7.11328 7.64062 7.11328H16.2656C17.2969 7.11328 17.8711 7.66406 17.8711 8.71875V10.3594H16.4062V9.55078C16.4062 9.01172 16.1133 8.70703 15.5156 8.70703H13.5117C12.9375 8.70703 12.6445 9.01172 12.6445 9.55078V10.3594H11.332V9.55078C11.332 9.01172 11.0391 8.70703 10.5 8.70703H8.35547C7.79297 8.70703 7.51172 9.01172 7.51172 9.55078V10.3594H6.04688Z" fill="black" fill-opacity="0.85"/>
</svg>
