<svg width="42" height="25" viewBox="0 0 42 25" fill="none" xmlns="http://www.w3.org/2000/svg">
<path d="M4.52344 20.3438C4.89844 19.9219 4.78125 19.3711 4.35938 18.8906C2.78906 17.1445 1.91016 14.8477 1.91016 12.3281C1.91016 9.80859 2.78906 7.51172 4.35938 5.76562C4.78125 5.28516 4.89844 4.73438 4.52344 4.3125C4.14844 3.86719 3.49219 3.87891 3.04688 4.37109C1.10156 6.48047 0 9.29297 0 12.3281C0 15.3633 1.10156 18.1641 3.04688 20.2852C3.49219 20.7773 4.14844 20.7773 4.52344 20.3438ZM37.2773 20.3438C37.6523 20.7773 38.3086 20.7773 38.7539 20.2852C40.6992 18.1641 41.8008 15.3633 41.8008 12.3281C41.8008 9.29297 40.6992 6.48047 38.7539 4.37109C38.3086 3.87891 37.6523 3.86719 37.2773 4.3125C36.9023 4.73438 37.0195 5.28516 37.4414 5.76562C39.0117 7.51172 39.8906 9.80859 39.8906 12.3281C39.8906 14.8477 39.0117 17.1445 37.4414 18.8906C37.0195 19.3711 36.9023 19.9219 37.2773 20.3438Z" fill="#007AFF"/>
<path d="M7.80469 17.0038C8.17969 16.5819 8.02734 16.0546 7.65234 15.5507C6.94922 14.6718 6.60938 13.5468 6.60938 12.328C6.60938 11.1093 6.94922 9.97258 7.65234 9.10539C8.02734 8.60148 8.17969 8.07414 7.80469 7.65226C7.41797 7.20695 6.71484 7.20695 6.30469 7.7343C5.28516 8.99992 4.69922 10.6054 4.69922 12.328C4.69922 14.0507 5.28516 15.6561 6.30469 16.9218C6.71484 17.4491 7.41797 17.4374 7.80469 17.0038ZM33.9844 17.0038C34.3828 17.4374 35.0742 17.4491 35.4961 16.9218C36.5156 15.6561 37.1016 14.0507 37.1016 12.328C37.1016 10.6054 36.5156 8.99992 35.4961 7.7343C35.0742 7.20695 34.3828 7.20695 33.9844 7.65226C33.6211 8.07414 33.7734 8.60148 34.1484 9.10539C34.8398 9.97258 35.1914 11.1093 35.1914 12.328C35.1914 13.5468 34.8398 14.6718 34.1484 15.5507C33.7734 16.0546 33.6211 16.5819 33.9844 17.0038Z" fill="#007AFF"/>
<path d="M11.6133 19.9688H30.1875C31.2891 19.9688 31.957 19.4062 31.957 18.5508C31.957 17.3789 30.7617 16.3242 29.7539 15.2812C28.9805 14.4727 28.7695 12.8086 28.6758 11.4609C28.5938 6.96094 27.3984 3.86719 24.2812 2.74219C23.8359 1.20703 22.6289 0 20.8945 0C19.1719 0 17.9531 1.20703 17.5195 2.74219C14.4023 3.86719 13.207 6.96094 13.125 11.4609C13.0312 12.8086 12.8203 14.4727 12.0469 15.2812C11.0273 16.3242 9.84375 17.3789 9.84375 18.5508C9.84375 19.4062 10.5 19.9688 11.6133 19.9688ZM20.8945 24.668C22.8867 24.668 24.3398 23.2148 24.4922 21.5742H17.3086C17.4609 23.2148 18.9141 24.668 20.8945 24.668Z" fill="black" fill-opacity="0.85"/>
</svg>
