<svg width="22" height="22" viewBox="0 0 22 22" fill="none" xmlns="http://www.w3.org/2000/svg">
<path d="M3.67969 21.5977H17.8945C20.3555 21.5977 21.5742 20.3789 21.5742 17.9648V3.65625C21.5742 1.24219 20.3555 0.0234375 17.8945 0.0234375H3.67969C1.23047 0.0234375 0 1.23047 0 3.65625V17.9648C0 20.3906 1.23047 21.5977 3.67969 21.5977ZM3.70312 19.7109C2.53125 19.7109 1.88672 19.0898 1.88672 17.8711V3.75C1.88672 2.53125 2.53125 1.91016 3.70312 1.91016H17.8711C19.0312 1.91016 19.6875 2.53125 19.6875 3.75V17.8711C19.6875 19.0898 19.0312 19.7109 17.8711 19.7109H3.70312Z" fill="#007AFF"/>
<path d="M5.64844 15.0234H15.9727C16.5703 15.0234 16.9219 14.707 16.9219 14.25C16.9219 13.5938 16.2773 13.0195 15.7031 12.4336C15.2578 11.9766 15.1758 11.0508 15.1289 10.3125C15.082 7.81641 14.4023 6.10547 12.6914 5.47266C12.4336 4.64062 11.7539 3.96094 10.8047 3.96094C9.85547 3.96094 9.1875 4.64062 8.91797 5.47266C7.20703 6.10547 6.53906 7.81641 6.49219 10.3125C6.44531 11.0508 6.33984 11.9766 5.90625 12.4336C5.35547 13.0312 4.6875 13.5938 4.6875 14.25C4.6875 14.707 5.03906 15.0234 5.64844 15.0234ZM10.8047 17.7305C11.9062 17.7305 12.7148 16.9453 12.7969 15.9961H8.82422C8.90625 16.9453 9.70312 17.7305 10.8047 17.7305Z" fill="black" fill-opacity="0.85"/>
</svg>
