<svg width="28" height="32" viewBox="0 0 28 32" fill="none" xmlns="http://www.w3.org/2000/svg">
<path d="M19.4858 7.70554C17.728 7.70554 16.4155 8.6782 15.4897 10.9985C12.103 7.54148 6.70066 4.45945 1.31003 4.04929C0.220187 3.97898 0.044406 4.78757 0.0209685 5.46726C-0.354031 11.4321 4.34519 16.5766 10.5561 17.0219C8.85691 21.0532 6.16159 24.1821 3.50144 26.6665C3.07956 27.0532 3.18503 27.5805 3.46628 28.0024C4.82566 30.0884 9.07956 31.3423 11.9624 30.3462C12.5952 30.1118 12.7124 29.8071 12.7124 29.2798V24.8266C15.8647 24.686 20.9624 22.6469 20.1303 16.1548L20.0014 15.229C22.4272 14.6548 24.0444 13.1313 24.0444 11.5727C24.0444 9.70945 21.9936 7.70554 19.4858 7.70554ZM20.7163 11.7719C20.3178 11.7719 19.9897 11.4555 19.9897 11.0571C19.9897 10.6704 20.3178 10.3305 20.7163 10.3305C21.103 10.3305 21.4311 10.6704 21.4311 11.0571C21.4311 11.4555 21.103 11.7719 20.7163 11.7719ZM22.4389 13.2954L26.7163 13.9048C27.5132 14.0219 27.8882 12.8384 27.0796 12.4985L23.2124 10.8579L22.4389 13.2954ZM17.9741 6.31101C16.4624 3.6157 14.5405 1.64695 12.0678 0.228979C11.1655 -0.286646 10.2514 0.100073 10.0053 1.07273C9.6655 2.27976 9.45456 3.49851 9.38425 4.70554C11.4936 5.73679 13.4272 7.02585 15.0678 8.4321C15.8764 7.31882 16.8608 6.62742 17.9741 6.31101Z" fill="black" fill-opacity="0.85"/>
</svg>
