<svg width="24" height="24" viewBox="0 0 24 24" fill="none" xmlns="http://www.w3.org/2000/svg">
<path d="M11.9531 23.918C18.4922 23.918 23.9062 18.5039 23.9062 11.9648C23.9062 5.4375 18.4805 0.0117188 11.9414 0.0117188C5.41406 0.0117188 0 5.4375 0 11.9648C0 18.5039 5.42578 23.918 11.9531 23.918Z" fill="#FFCC00"/>
<path d="M15.3515 8.01565C16.5468 8.01565 17.5194 8.88284 17.6366 9.78519L19.1835 10.4297C19.5937 10.6055 19.3944 11.2031 19.0077 11.1445L17.2616 10.8984C16.9101 11.3086 16.3358 11.6484 15.6093 11.8125L15.6679 12.2812C16.0194 15.5977 13.5233 16.5938 11.9179 16.6758V18.9258C11.9179 19.1836 11.8593 19.3359 11.5429 19.4531C10.0897 19.9688 7.93353 19.3359 7.23041 18.2695C7.1015 18.0703 7.04291 17.8008 7.26556 17.625C8.61322 16.3359 9.98432 14.7539 10.828 12.7031C7.68744 12.4922 5.30853 9.89065 5.50775 6.87894C5.51947 6.53909 5.58978 6.11722 6.164 6.16409C8.89447 6.36331 11.6249 7.93362 13.3124 9.67972C13.7929 8.50784 14.4608 8.01565 15.3515 8.01565ZM10.2304 6.49222C10.2655 5.88284 10.3827 5.26175 10.5585 4.65237C10.6757 4.16019 11.1444 3.96097 11.6015 4.21878C12.8437 4.93362 13.8163 5.95315 14.578 7.31253C14.0272 7.46487 13.5233 7.81644 13.1132 8.39065C12.2811 7.67581 11.3085 7.01956 10.2304 6.49222ZM15.539 9.70315C15.539 9.94925 15.7382 10.125 15.9608 10.125C16.1952 10.125 16.3944 9.94925 16.3944 9.70315C16.3944 9.46878 16.1952 9.28128 15.9608 9.28128C15.7382 9.28128 15.539 9.46878 15.539 9.70315Z" fill="black" fill-opacity="0.85"/>
</svg>
