<svg width="28" height="32" viewBox="0 0 28 32" fill="none" xmlns="http://www.w3.org/2000/svg">
<path d="M19.6036 7.51804C17.8575 7.51804 16.5099 8.47898 15.5606 10.7173C12.1622 7.3071 6.79502 4.27195 1.43955 3.86179C0.244238 3.77976 0.0450189 4.70554 0.0215814 5.39695C-0.353419 11.268 4.20518 16.3774 10.0646 17.0454C8.51768 20.4907 6.43174 23.7719 3.53721 26.5141C3.06846 26.9477 3.19736 27.5571 3.49033 27.9907C4.87314 30.1235 9.19736 31.3891 12.1153 30.3813C12.8185 30.1352 12.9356 29.7485 12.9356 29.2094V24.8618C16.1349 24.686 21.1974 22.5766 20.3653 16.0727L20.2481 15.2524C22.6505 14.643 24.2794 13.0844 24.2794 11.5141C24.2794 9.59226 22.1583 7.51804 19.6036 7.51804ZM19.7091 9.20554C21.3849 9.20554 22.5919 10.4243 22.5919 11.5141C22.5919 12.4048 21.4083 13.436 19.1349 13.7524C18.7833 13.7876 18.5255 14.0454 18.5606 14.3735L18.713 16.1196C19.2169 22.143 14.5528 22.9985 11.8341 23.1274C11.4942 23.1391 11.2364 23.3735 11.2364 23.7251V28.8579C11.2364 28.9751 11.1896 29.0688 11.0606 29.0805C8.78721 29.4907 6.31455 28.6704 5.14268 27.4634C5.06064 27.3813 5.02549 27.2524 5.11924 27.1704C8.2833 24.1352 10.4396 20.4555 12.0567 16.5884C12.2794 16.0493 12.0685 15.6157 11.5177 15.5923C5.93955 15.4516 1.75596 11.3501 1.70908 5.8071C1.70908 5.63132 1.74424 5.58445 1.93174 5.60789C6.87705 6.21726 11.5528 9.01804 14.2364 11.7954C14.7169 12.2759 15.0567 12.5219 15.5255 12.5219C16.2872 12.5219 16.6505 12.1469 17.0372 11.3618C17.7169 9.95554 18.3146 9.20554 19.7091 9.20554ZM17.5177 8.90085L19.0997 8.35007C17.4708 4.57664 15.2325 1.97507 12.1856 0.228979C11.2833 -0.286646 10.3692 0.100073 10.1231 1.07273C9.53721 3.20554 9.30283 5.25632 9.58408 7.38914L11.4239 8.25632C11.0021 6.12351 11.0841 4.26023 11.5763 2.26804C11.6114 2.0571 11.8224 1.98679 11.9981 2.09226C14.3653 3.63914 16.1349 5.77195 17.5177 8.90085ZM20.4825 11.8188C20.8692 11.8188 21.1974 11.5024 21.1974 11.104C21.1974 10.7173 20.8692 10.3774 20.4825 10.3774C20.0724 10.3774 19.756 10.7173 19.756 11.104C19.756 11.5024 20.0724 11.8188 20.4825 11.8188ZM22.4396 13.3423L26.7169 13.9516C27.5138 14.0688 27.8888 12.8852 27.0802 12.5454L23.213 10.9048L22.4396 13.3423Z" fill="black" fill-opacity="0.85"/>
</svg>
