<svg width="24" height="24" viewBox="0 0 24 24" fill="none" xmlns="http://www.w3.org/2000/svg">
<path d="M11.9531 23.9062C18.4922 23.9062 23.9062 18.4805 23.9062 11.9531C23.9062 5.41406 18.4805 0 11.9414 0C5.41406 0 0 5.41406 0 11.9531C0 18.4805 5.42578 23.9062 11.9531 23.9062ZM11.9531 21.9141C6.42188 21.9141 2.00391 17.4844 2.00391 11.9531C2.00391 6.42188 6.41016 1.99219 11.9414 1.99219C17.4727 1.99219 21.9141 6.42188 21.9141 11.9531C21.9141 17.4844 17.4844 21.9141 11.9531 21.9141Z" fill="#007AFF"/>
<path d="M15.2698 8.10931C14.4144 8.10931 13.7581 8.58977 13.3011 9.73821C11.6487 8.03899 9.00026 6.51555 6.35182 6.31634C5.80104 6.28118 5.73073 6.67962 5.71901 7.00774C5.51979 9.92571 7.82838 12.4569 10.887 12.6679C10.0667 14.6366 8.73073 16.1952 7.41823 17.4257C7.20729 17.6015 7.26588 17.871 7.39479 18.0702C8.07448 19.0897 10.1605 19.6991 11.5667 19.2187C11.8714 19.1015 11.93 18.9491 11.93 18.703V16.5233C13.4886 16.4413 15.9144 15.4569 15.5745 12.246L15.5159 11.8007C16.2191 11.6249 16.7815 11.2968 17.1214 10.9101L18.8089 11.1561C19.1839 11.203 19.3831 10.6171 18.9847 10.4647L17.4847 9.83196C17.3675 8.96477 16.43 8.10931 15.2698 8.10931ZM10.3011 6.64446C11.3441 7.16009 12.2933 7.7929 13.1019 8.47259C13.5003 7.93352 13.9808 7.59368 14.5198 7.44134C13.7815 6.11712 12.8323 5.13274 11.6253 4.44134C11.18 4.18352 10.7347 4.38274 10.6175 4.85149C10.4534 5.44915 10.3362 6.04681 10.3011 6.64446ZM15.4456 9.74993C15.4456 9.52727 15.6448 9.33977 15.8558 9.33977C16.0901 9.33977 16.2776 9.52727 16.2776 9.74993C16.2776 9.98431 16.0901 10.1601 15.8558 10.1601C15.6448 10.1601 15.4456 9.98431 15.4456 9.74993Z" fill="black" fill-opacity="0.85"/>
</svg>
