<svg width="27" height="27" viewBox="0 0 27 27" fill="none" xmlns="http://www.w3.org/2000/svg">
<path d="M13.5 4.52343C14.3555 4.52343 15.0352 3.76171 15.0352 2.77733C15.0352 1.76952 14.7188 1.11327 14.1562 0.457017C13.7812 -0.011733 13.2773 -0.0234517 12.8906 0.386705C12.3281 1.0664 11.9648 1.73437 11.9648 2.77733C11.9648 3.76171 12.6562 4.52343 13.5 4.52343ZM12.832 9.92577H14.1328V3.26952H12.832V9.92577ZM5.84766 13.5469H21.1523V12.7266C21.1523 10.4062 19.957 9.22265 17.6016 9.22265H9.39844C7.05469 9.22265 5.84766 10.4062 5.84766 12.7266V13.5469ZM1.85156 25.8164H25.1367V18.6445C25.1367 16.3242 23.9414 15.1406 21.5977 15.1406H5.40234C3.05859 15.1406 1.85156 16.3242 1.85156 18.6445V25.8164ZM13.4883 20.8711C12.3281 20.8711 11.5078 22.2305 9.83203 22.2305C8.21484 22.2305 7.44141 20.8711 6.36328 20.8711C5.26172 20.8711 4.48828 22.2305 2.29688 22.2305H1.85156V20.6836H2.29688C3.96094 20.6836 4.76953 19.3242 6.36328 19.3242C7.92188 19.3242 8.55469 20.6836 9.83203 20.6836C11.332 20.6836 11.8945 19.3242 13.4883 19.3242C15.082 19.3242 15.6445 20.6836 17.1562 20.6836C18.4336 20.6836 19.0547 19.3242 20.625 19.3242C22.1953 19.3242 23.0156 20.6836 24.668 20.6836H25.1367V22.2305H24.668C22.4883 22.2305 21.7031 20.8711 20.625 20.8711C19.5234 20.8711 18.7617 22.2305 17.1562 22.2305C15.4688 22.2305 14.6367 20.8711 13.4883 20.8711ZM0.9375 26.6367H26.0508C26.5664 26.6367 26.9883 26.2031 26.9883 25.6875C26.9883 25.1719 26.5664 24.75 26.0508 24.75H0.9375C0.421875 24.75 0 25.1719 0 25.6875C0 26.2031 0.421875 26.6367 0.9375 26.6367Z" fill="black" fill-opacity="0.85"/>
</svg>
