<svg width="15" height="27" viewBox="0 0 15 27" fill="none" xmlns="http://www.w3.org/2000/svg">
<path d="M1.45312 23.9297H7.08984C11.4727 23.9297 14.1094 21.7852 14.1094 18.1992C14.1094 15.375 12.1758 13.418 9.31641 13.0664V12.9727C11.4492 12.5859 13.043 10.5938 13.043 8.35547C13.043 5.27344 10.6406 3.22266 7.06641 3.22266H1.45312C0.574219 3.22266 0 3.79688 0 4.67578V22.4766C0 23.3555 0.574219 23.9297 1.45312 23.9297ZM2.23828 12.2695V5.19141H6.55078C9.21094 5.19141 10.8047 6.41016 10.8047 8.58984C10.8047 10.9688 9.01172 12.2695 5.90625 12.2695H2.23828ZM2.23828 21.9609V14.25H6.46875C9.9375 14.25 11.8359 15.5742 11.8359 18.1055C11.8359 20.625 9.99609 21.9609 6.73828 21.9609H2.23828ZM4.32422 4.55859V1.13672C4.32422 0.714844 3.98438 0.363281 3.5625 0.363281C3.12891 0.363281 2.78906 0.714844 2.78906 1.13672V4.55859H4.32422ZM8.01562 4.55859V1.13672C8.01562 0.714844 7.67578 0.363281 7.24219 0.363281C6.82031 0.363281 6.48047 0.714844 6.48047 1.13672V4.55859H8.01562ZM4.32422 22.6055H2.78906V26.1094C2.78906 26.5312 3.12891 26.8711 3.5625 26.8711C3.98438 26.8711 4.32422 26.5312 4.32422 26.1094V22.6055ZM8.01562 22.6055H6.48047V26.1094C6.48047 26.5312 6.82031 26.8711 7.24219 26.8711C7.67578 26.8711 8.01562 26.5312 8.01562 26.1094V22.6055Z" fill="black" fill-opacity="0.85"/>
</svg>
