<svg width="22" height="22" viewBox="0 0 22 22" fill="none" xmlns="http://www.w3.org/2000/svg">
<path d="M3.67969 21.5977H17.8945C20.3555 21.5977 21.5742 20.3789 21.5742 17.9648V3.65625C21.5742 1.24219 20.3555 0.0234375 17.8945 0.0234375H3.67969C1.23047 0.0234375 0 1.23047 0 3.65625V17.9648C0 20.3906 1.23047 21.5977 3.67969 21.5977ZM3.70312 19.7109C2.53125 19.7109 1.88672 19.0898 1.88672 17.8711V3.75C1.88672 2.53125 2.53125 1.91016 3.70312 1.91016H17.8711C19.0312 1.91016 19.6875 2.53125 19.6875 3.75V17.8711C19.6875 19.0898 19.0312 19.7109 17.8711 19.7109H3.70312Z" fill="#007AFF"/>
<path d="M7.48828 15.5039C7.48828 16.043 7.86328 16.418 8.41406 16.418H8.90625V17.3438C8.90625 17.6836 9.15234 17.918 9.46875 17.918C9.79688 17.918 10.043 17.6836 10.043 17.3438V16.418H10.793V17.3438C10.793 17.6836 11.0391 17.918 11.3672 17.918C11.6836 17.918 11.9297 17.6836 11.9297 17.3438V16.3828C13.875 16.1719 15.0117 15.0469 15.0117 13.3242C15.0117 12 14.2383 11.0156 13.0195 10.6523C13.8867 10.2305 14.4961 9.30469 14.4961 8.30859C14.4961 6.85547 13.5 5.80078 11.9297 5.56641V4.61719C11.9297 4.27734 11.6836 4.04297 11.3672 4.04297C11.0391 4.04297 10.793 4.27734 10.793 4.61719V5.51953H10.043V4.61719C10.043 4.27734 9.79688 4.04297 9.46875 4.04297C9.15234 4.04297 8.90625 4.27734 8.90625 4.61719V5.51953H8.41406C7.875 5.51953 7.48828 5.89453 7.48828 6.44531V15.5039ZM9 15.0469V11.4844H10.9688C12.6445 11.4844 13.5117 12.082 13.5117 13.2656C13.5117 14.4258 12.6797 15.0234 11.1094 15.0352L9 15.0469ZM9 10.1133V6.87891H11.0039C12.2578 6.87891 12.9844 7.42969 12.9844 8.42578C12.9844 9.52734 12.1641 10.1367 10.6641 10.125L9 10.1133Z" fill="black" fill-opacity="0.85"/>
</svg>
