<svg width="24" height="24" viewBox="0 0 24 24" fill="none" xmlns="http://www.w3.org/2000/svg">
<path d="M11.9531 23.9062C18.4922 23.9062 23.9062 18.4805 23.9062 11.9531C23.9062 5.41406 18.4805 0 11.9414 0C5.41406 0 0 5.41406 0 11.9531C0 18.4805 5.42578 23.9062 11.9531 23.9062Z" fill="#FFCC00"/>
<path d="M8.64844 16.6641V7.60547C8.64844 7.05469 9.03516 6.67969 9.57422 6.67969H10.0664V5.77734C10.0664 5.4375 10.3008 5.20312 10.6289 5.20312C10.957 5.20312 11.1914 5.4375 11.1914 5.77734V6.67969H11.9531V5.77734C11.9531 5.4375 12.1992 5.20312 12.5156 5.20312C12.8438 5.20312 13.0898 5.4375 13.0898 5.77734V6.72656C14.6484 6.96094 15.6445 8.01562 15.6445 9.46875C15.6445 10.4648 15.0469 11.3906 14.1797 11.8125C15.3867 12.1758 16.1719 13.1602 16.1719 14.4844C16.1719 16.207 15.0352 17.332 13.0898 17.543V18.5039C13.0898 18.8438 12.8438 19.0781 12.5156 19.0781C12.1992 19.0781 11.9531 18.8438 11.9531 18.5039V17.5781H11.1914V18.5039C11.1914 18.8438 10.957 19.0781 10.6289 19.0781C10.3008 19.0781 10.0664 18.8438 10.0664 18.5039V17.5781H9.57422C9.02344 17.5781 8.64844 17.2031 8.64844 16.6641ZM10.1484 16.207L12.2578 16.1953C13.8398 16.1836 14.6719 15.5859 14.6719 14.4258C14.6719 13.2422 13.8047 12.6445 12.1289 12.6445H10.1484V16.207ZM10.1484 11.2734L11.8242 11.2852C13.3242 11.2969 14.1445 10.6875 14.1445 9.58595C14.1445 8.58985 13.418 8.03906 12.1523 8.03906H10.1484V11.2734Z" fill="black" fill-opacity="0.85"/>
</svg>
