<svg width="25" height="24" viewBox="0 0 25 24" fill="none" xmlns="http://www.w3.org/2000/svg">
<path d="M3.80859 21.5273C3.80859 22.0898 3.9375 22.4531 4.23047 22.7461L5.22656 23.7656C5.54297 24.082 6.19922 23.9766 6.19922 23.4023V5.36723C6.19922 4.79301 6.07031 4.44145 5.77734 4.13676L4.78125 3.12895C4.46484 2.80082 3.80859 2.90629 3.80859 3.48051V21.5273ZM9.72656 21.5273C9.72656 22.0898 9.84375 22.4531 10.1484 22.7461L11.1445 23.7656C11.4609 24.082 12.1055 23.9766 12.1055 23.4023V5.36723C12.1055 4.79301 11.9883 4.44145 11.6836 4.13676L10.6875 3.12895C10.3711 2.80082 9.72656 2.90629 9.72656 3.48051V21.5273ZM15.6328 21.5273C15.6328 22.0898 15.7617 22.4531 16.0547 22.7461L17.0508 23.7656C17.3672 24.082 18.0234 23.9766 18.0234 23.4023V5.36723C18.0234 4.79301 17.8945 4.44145 17.6016 4.13676L16.6055 3.12895C16.2891 2.80082 15.6328 2.90629 15.6328 3.48051V21.5273ZM21.5508 21.5273C21.5508 22.0898 21.668 22.4531 21.9727 22.7461L22.9688 23.7656C23.2852 24.082 23.9297 23.9766 23.9297 23.4023V5.36723C23.9297 4.79301 23.8125 4.44145 23.5078 4.13676L22.5117 3.12895C22.1953 2.80082 21.5508 2.90629 21.5508 3.48051V21.5273Z" fill="black" fill-opacity="0.85"/>
<path d="M0 0.9375C0 1.45312 0.433594 1.88672 0.949219 1.88672H23.9297C24.4453 1.88672 24.8789 1.45312 24.8789 0.9375C24.8789 0.421875 24.4453 0 23.9297 0H0.949219C0.433594 0 0 0.421875 0 0.9375ZM0.949219 4.60547C1.38281 4.60547 1.74609 4.24219 1.74609 3.80859C1.74609 3.36328 1.38281 3.01172 0.949219 3.01172C0.503906 3.01172 0.140625 3.36328 0.140625 3.80859C0.140625 4.24219 0.503906 4.60547 0.949219 4.60547ZM0.949219 7.32422C1.38281 7.32422 1.74609 6.94922 1.74609 6.51562C1.74609 6.08203 1.38281 5.71875 0.949219 5.71875C0.503906 5.71875 0.140625 6.08203 0.140625 6.51562C0.140625 6.94922 0.503906 7.32422 0.949219 7.32422ZM0.949219 10.0312C1.38281 10.0312 1.74609 9.66797 1.74609 9.23438C1.74609 8.78906 1.38281 8.4375 0.949219 8.4375C0.503906 8.4375 0.140625 8.78906 0.140625 9.23438C0.140625 9.66797 0.503906 10.0312 0.949219 10.0312ZM0.949219 12.75C1.38281 12.75 1.74609 12.375 1.74609 11.9414C1.74609 11.5078 1.38281 11.1445 0.949219 11.1445C0.503906 11.1445 0.140625 11.5078 0.140625 11.9414C0.140625 12.375 0.503906 12.75 0.949219 12.75ZM0.949219 15.457C1.38281 15.457 1.74609 15.0938 1.74609 14.6602C1.74609 14.2148 1.38281 13.8633 0.949219 13.8633C0.503906 13.8633 0.140625 14.2148 0.140625 14.6602C0.140625 15.0938 0.503906 15.457 0.949219 15.457ZM0.949219 18.1758C1.38281 18.1758 1.74609 17.8008 1.74609 17.3672C1.74609 16.9336 1.38281 16.5703 0.949219 16.5703C0.503906 16.5703 0.140625 16.9336 0.140625 17.3672C0.140625 17.8008 0.503906 18.1758 0.949219 18.1758ZM0.949219 23.9297C1.45312 23.9297 1.88672 23.5078 1.88672 22.9922V20.2266C1.88672 19.7109 1.46484 19.2891 0.949219 19.2891C0.433594 19.2891 0 19.7109 0 20.2266V22.9922C0 23.5078 0.433594 23.9297 0.949219 23.9297Z" fill="#007AFF"/>
</svg>
