<svg width="25" height="24" viewBox="0 0 25 24" fill="none" xmlns="http://www.w3.org/2000/svg">
<path d="M3.68047 5.54297H21.493C22.0672 5.54297 22.4188 5.41406 22.7235 5.12109L23.7313 4.125C24.0594 3.80859 23.9539 3.15234 23.3797 3.15234H5.56719C4.99297 3.15234 4.6414 3.28125 4.33672 3.57422L3.3289 4.57031C3.00078 4.88672 3.10625 5.54297 3.68047 5.54297ZM3.68047 11.5898H21.493C22.0672 11.5898 22.4188 11.4727 22.7235 11.1797L23.7313 10.1719C24.0594 9.86719 23.9539 9.21094 23.3797 9.21094H5.56719C4.99297 9.21094 4.6414 9.33984 4.33672 9.63281L3.3289 10.6289C3.00078 10.9453 3.10625 11.5898 3.68047 11.5898ZM3.68047 17.6133H21.493C22.0672 17.6133 22.4188 17.4844 22.7235 17.1797L23.7313 16.1836C24.0594 15.8789 23.9539 15.2344 23.3797 15.2344H5.56719C4.99297 15.2344 4.6414 15.3516 4.33672 15.6562L3.3289 16.6523C3.00078 16.9688 3.10625 17.6133 3.68047 17.6133ZM3.68047 23.6719H21.493C22.0672 23.6719 22.4188 23.5312 22.7235 23.2266L23.7313 22.2305C24.0594 21.9258 23.9539 21.2695 23.3797 21.2695H5.56719C4.99297 21.2695 4.6414 21.3984 4.33672 21.7031L3.3289 22.6992C3.00078 23.0156 3.10625 23.6719 3.68047 23.6719Z" fill="black" fill-opacity="0.85"/>
<path d="M0 0.9375C0 1.45312 0.433594 1.88672 0.949219 1.88672H23.9297C24.4453 1.88672 24.8789 1.45312 24.8789 0.9375C24.8789 0.421875 24.4453 0 23.9297 0H0.949219C0.433594 0 0 0.421875 0 0.9375ZM0.949219 4.60547C1.38281 4.60547 1.74609 4.24219 1.74609 3.80859C1.74609 3.36328 1.38281 3.01172 0.949219 3.01172C0.503906 3.01172 0.140625 3.36328 0.140625 3.80859C0.140625 4.24219 0.503906 4.60547 0.949219 4.60547ZM0.949219 7.32422C1.38281 7.32422 1.74609 6.94922 1.74609 6.51562C1.74609 6.08203 1.38281 5.71875 0.949219 5.71875C0.503906 5.71875 0.140625 6.08203 0.140625 6.51562C0.140625 6.94922 0.503906 7.32422 0.949219 7.32422ZM0.949219 10.0312C1.38281 10.0312 1.74609 9.66797 1.74609 9.23438C1.74609 8.78906 1.38281 8.4375 0.949219 8.4375C0.503906 8.4375 0.140625 8.78906 0.140625 9.23438C0.140625 9.66797 0.503906 10.0312 0.949219 10.0312ZM0.949219 12.75C1.38281 12.75 1.74609 12.375 1.74609 11.9414C1.74609 11.5078 1.38281 11.1445 0.949219 11.1445C0.503906 11.1445 0.140625 11.5078 0.140625 11.9414C0.140625 12.375 0.503906 12.75 0.949219 12.75ZM0.949219 15.457C1.38281 15.457 1.74609 15.0938 1.74609 14.6602C1.74609 14.2148 1.38281 13.8633 0.949219 13.8633C0.503906 13.8633 0.140625 14.2148 0.140625 14.6602C0.140625 15.0938 0.503906 15.457 0.949219 15.457ZM0.949219 18.1758C1.38281 18.1758 1.74609 17.8008 1.74609 17.3672C1.74609 16.9336 1.38281 16.5703 0.949219 16.5703C0.503906 16.5703 0.140625 16.9336 0.140625 17.3672C0.140625 17.8008 0.503906 18.1758 0.949219 18.1758ZM0.949219 23.9297C1.45312 23.9297 1.88672 23.5078 1.88672 22.9922V20.2266C1.88672 19.7109 1.46484 19.2891 0.949219 19.2891C0.433594 19.2891 0 19.7109 0 20.2266V22.9922C0 23.5078 0.433594 23.9297 0.949219 23.9297Z" fill="#007AFF"/>
</svg>
