<svg width="32" height="25" viewBox="0 0 32 25" fill="none" xmlns="http://www.w3.org/2000/svg">
<path d="M18.3984 24.5508H30.6562C31.0312 24.5508 31.3477 24.2578 31.3477 23.8594C31.3477 23.4609 31.0312 23.1562 30.6562 23.1562H18.3984C18.0234 23.1562 17.707 23.4609 17.707 23.8594C17.707 24.2578 18.0234 24.5508 18.3984 24.5508Z" fill="black" fill-opacity="0.85"/>
<path d="M24.5273 20.9531C28.7461 20.9531 31.3477 18.4219 31.3477 14.7422V4.69922C31.3477 4.04297 30.9141 3.62109 30.2578 3.62109C29.6016 3.62109 29.1797 4.04297 29.1797 4.69922V14.5664C29.1797 17.1797 27.457 18.9492 24.5273 18.9492C21.5977 18.9492 19.875 17.1797 19.875 14.5664V4.69922C19.875 4.04297 19.4297 3.62109 18.7734 3.62109C18.1172 3.62109 17.707 4.04297 17.707 4.69922V14.7422C17.707 18.4219 20.3086 20.9531 24.5273 20.9531Z" fill="#007AFF"/>
<path d="M1.98047 20.6484H8.08594C11.6719 20.6484 13.9336 18.7617 13.9336 15.8672C13.9336 13.582 12.2812 11.9297 9.90234 11.8008V11.707C11.8477 11.4375 13.1719 9.97266 13.1719 8.10938C13.1719 5.49609 11.168 3.89062 7.92188 3.89062H1.98047C0.726562 3.89062 0 4.62892 0 5.91798V18.6328C0 19.9102 0.726562 20.6484 1.98047 20.6484ZM3.86719 17.9414V13.2891H6.80859C8.85938 13.2891 10.0078 14.0859 10.0078 15.5859C10.0078 17.1211 8.90625 17.9414 6.89062 17.9414H3.86719ZM3.86719 10.8516V6.64453H6.75C8.39062 6.64453 9.36328 7.39453 9.36328 8.68359C9.36328 10.043 8.28516 10.8516 6.45703 10.8516H3.86719Z" fill="#007AFF"/>
</svg>
