<svg width="24" height="24" viewBox="0 0 24 24" fill="none" xmlns="http://www.w3.org/2000/svg">
<path d="M11.9531 23.918C18.4922 23.918 23.9062 18.5039 23.9062 11.9648C23.9062 5.4375 18.4805 0.0117188 11.9414 0.0117188C5.41406 0.0117188 0 5.4375 0 11.9648C0 18.5039 5.42578 23.918 11.9531 23.918Z" fill="#FFCC00"/>
<path d="M5.32031 15.9727V12.7617C5.32031 11.8242 5.51953 11.2852 6.03516 10.6289L6.51562 10.0078C6.72656 8.98828 7.07812 7.93359 7.27734 7.52344C7.58203 6.89062 8.15625 6.51562 8.89453 6.42188C9.28125 6.375 10.5 6.35156 11.9531 6.35156C13.3945 6.35156 14.625 6.375 15 6.42188C15.75 6.52734 16.3242 6.89062 16.6172 7.52344C16.8164 7.93359 17.168 8.98828 17.3906 10.0078L17.8594 10.6289C18.3867 11.2852 18.5742 11.8242 18.5742 12.7617V15.9727C18.5742 16.3945 18.2461 16.7227 17.8359 16.7227H17.168C16.7461 16.7227 16.418 16.3945 16.418 15.9727V15.0469C15.1758 15.1289 13.3945 15.1758 11.9531 15.1758C10.5117 15.1758 8.71875 15.1289 7.47656 15.0469V15.9727C7.47656 16.3945 7.14844 16.7227 6.73828 16.7227H6.07031C5.64844 16.7227 5.32031 16.3945 5.32031 15.9727ZM9.96094 11.2031C9.96094 11.332 10.0664 11.4375 10.207 11.4375H11.7188L10.9805 13.4531C10.8398 13.8164 11.2266 14.0156 11.4609 13.7227L13.8633 10.6172C13.8984 10.5469 13.9453 10.4648 13.9453 10.3945C13.9453 10.2539 13.8398 10.1484 13.6992 10.1484L12.1875 10.1602L12.9375 8.13281C13.0664 7.76953 12.7031 7.59375 12.4688 7.88672L10.043 10.9922C9.98438 11.0625 9.96094 11.1328 9.96094 11.2031Z" fill="black" fill-opacity="0.85"/>
</svg>
