<svg width="24" height="24" viewBox="0 0 24 24" fill="none" xmlns="http://www.w3.org/2000/svg">
<path d="M11.9531 23.9062C18.4922 23.9062 23.9062 18.4805 23.9062 11.9531C23.9062 5.41406 18.4805 0 11.9414 0C5.41406 0 0 5.41406 0 11.9531C0 18.4805 5.42578 23.9062 11.9531 23.9062ZM11.9531 21.9141C6.42188 21.9141 2.00391 17.4844 2.00391 11.9531C2.00391 6.42188 6.41016 1.99219 11.9414 1.99219C17.4727 1.99219 21.9141 6.42188 21.9141 11.9531C21.9141 17.4844 17.4844 21.9141 11.9531 21.9141Z" fill="#007AFF"/>
<path d="M4.37103 14.1797C3.83197 14.8711 4.5351 15.4922 5.20306 15.1406L9.08197 13.043L14.1796 15.7734C14.4022 15.9023 14.6249 15.9727 14.8124 15.9727C15.0819 15.9727 15.328 15.832 15.5741 15.5391L19.5351 10.418C20.0272 9.77344 19.4061 9.10547 18.703 9.48047L14.8007 11.5781L9.71478 8.83594C9.48041 8.71875 9.26947 8.63672 9.07025 8.63672C8.80072 8.63672 8.55463 8.77734 8.32025 9.08203L4.37103 14.1797Z" fill="black" fill-opacity="0.85"/>
</svg>
