<svg width="22" height="22" viewBox="0 0 22 22" fill="none" xmlns="http://www.w3.org/2000/svg">
<path d="M3.67969 21.5977H17.8945C20.3555 21.5977 21.5742 20.3789 21.5742 17.9648V3.65625C21.5742 1.24219 20.3555 0.0234375 17.8945 0.0234375H3.67969C1.23047 0.0234375 0 1.23047 0 3.65625V17.9648C0 20.3906 1.23047 21.5977 3.67969 21.5977Z" fill="#FFCC00"/>
<path d="M5.50781 11.625C5.50781 11.4727 5.57812 11.2969 5.70703 11.1445L12.3281 2.83592C12.832 2.21482 13.6758 2.6367 13.3711 3.41014L11.1914 9.28123H15.2812C15.5977 9.28123 15.832 9.50389 15.832 9.80857C15.832 9.96092 15.7617 10.1367 15.6445 10.2773L9.01172 18.5859C8.50781 19.2188 7.67578 18.7969 7.96875 18.0234L10.1602 12.1523H6.05859C5.75391 12.1523 5.50781 11.9297 5.50781 11.625Z" fill="black" fill-opacity="0.85"/>
</svg>
