<svg width="28" height="22" viewBox="0 0 28 22" fill="none" xmlns="http://www.w3.org/2000/svg">
<path d="M3.67969 21.5742H23.9531C26.4141 21.5742 27.6328 20.3672 27.6328 17.9531V6.62109C27.6328 4.20703 26.4141 3 23.9531 3H22.3359V1.42969C22.3359 0.539062 21.8203 0 20.918 0H17.4609C16.5703 0 16.0547 0.539062 16.0547 1.42969V3H11.5898V1.42969C11.5898 0.539062 11.0742 0 10.1719 0H6.71484C5.8125 0 5.30859 0.539062 5.30859 1.42969V3H3.67969C1.23047 3 0 4.20703 0 6.62109V17.9531C0 20.3672 1.23047 21.5742 3.67969 21.5742ZM1.88672 17.8477V6.72656C1.88672 5.50781 2.53125 4.88672 3.70312 4.88672H23.9297C25.0898 4.88672 25.7461 5.50781 25.7461 6.72656V17.8477C25.7461 19.0664 25.0898 19.6875 23.9297 19.6875H3.70312C2.53125 19.6875 1.88672 19.0664 1.88672 17.8477Z" fill="#007AFF"/>
<path d="M10.1016 13.0429C10.1016 13.2655 10.2773 13.4179 10.5 13.4179H13.4062L11.8477 17.578C11.6484 18.1288 12.2461 18.4335 12.5977 17.9765L17.2852 12.0937C17.3789 11.9882 17.4375 11.8593 17.4375 11.7538C17.4375 11.5429 17.25 11.3788 17.0273 11.3788H14.1328L15.6797 7.23037C15.8789 6.66787 15.293 6.36318 14.9414 6.82021L10.2422 12.7147C10.1602 12.8319 10.1016 12.9374 10.1016 13.0429Z" fill="black" fill-opacity="0.85"/>
</svg>
