<svg width="24" height="24" viewBox="0 0 24 24" fill="none" xmlns="http://www.w3.org/2000/svg">
<path d="M11.9531 23.918C18.4922 23.918 23.9062 18.5039 23.9062 11.9648C23.9062 5.4375 18.4805 0.0117188 11.9414 0.0117188C5.41406 0.0117188 0 5.4375 0 11.9648C0 18.5039 5.42578 23.918 11.9531 23.918Z" fill="#FFCC00"/>
<path d="M6.66797 12.7969C6.66797 12.6445 6.73828 12.4688 6.86719 12.3281L13.4883 4.00779C13.9922 3.3867 14.8242 3.80857 14.5312 4.58201L12.3398 10.4531H16.4414C16.7578 10.4531 16.9922 10.6758 16.9922 10.9805C16.9922 11.1328 16.9219 11.3086 16.793 11.4609L10.1719 19.7695C9.66797 20.3906 8.83594 19.9688 9.12891 19.1953L11.3203 13.3242H7.21875C6.90234 13.3242 6.66797 13.1016 6.66797 12.7969Z" fill="black" fill-opacity="0.85"/>
</svg>
