<svg width="30" height="23" viewBox="0 0 30 23" fill="none" xmlns="http://www.w3.org/2000/svg">
<path d="M23.1562 20.3672C26.6953 20.3672 29.4609 17.7773 29.4609 14.5547C29.4609 12.0938 28.043 9.96094 25.7578 9C25.7812 3.77344 22.0195 0 17.2266 0C14.0508 0 11.7891 1.69922 10.3828 3.75C7.5 2.90625 4.35938 5.09766 4.30078 8.37891C1.65234 8.80078 0 11.168 0 14.0273C0 17.4727 3.01172 20.3672 7.01953 20.3672H23.1562Z" fill="#FFCC00"/>
<path d="M6.9137 13.418L10.9801 8.15625C11.2379 7.83984 11.4957 7.69922 11.7535 7.69922C11.9762 7.69922 12.1871 7.79297 12.4215 7.91016L17.6832 10.7344L21.7027 8.56641C22.4176 8.17969 23.0621 8.87109 22.5582 9.53906L18.4684 14.8242C18.2223 15.1289 17.9527 15.2695 17.6832 15.2695C17.484 15.2695 17.273 15.1875 17.0269 15.0586L11.7652 12.2461L7.76917 14.4141C7.07776 14.7773 6.36292 14.1328 6.9137 13.418Z" fill="black" fill-opacity="0.85"/>
</svg>
