<svg width="23" height="27" viewBox="0 0 23 27" fill="none" xmlns="http://www.w3.org/2000/svg">
<path d="M8.43554 25.7017L19.0762 12.0025C19.2754 11.7564 19.3809 11.522 19.3809 11.2525C19.3809 10.8071 19.041 10.4673 18.5488 10.4673H11.916L15.4199 1.35011C15.8769 0.14308 14.5996 -0.51317 13.8262 0.494643L3.18554 14.1821C2.97461 14.44 2.86914 14.6743 2.86914 14.9321C2.86914 15.3892 3.2207 15.729 3.71289 15.729H10.3457L6.84179 24.8345C6.37304 26.0415 7.66211 26.6978 8.43554 25.7017ZM9.12695 22.5493L13.041 13.9829H5.79882L13.4512 3.82277L13.123 3.64699L9.20898 12.2134H16.4512L8.79882 22.3735L9.12695 22.5493Z" fill="#007AFF"/>
<path d="M18.3501 23.5454C19.2407 24.436 20.6939 24.436 21.561 23.5454C22.4517 22.6782 22.4517 21.2134 21.561 20.3345L3.87745 2.65088C2.98682 1.76026 1.5337 1.76026 0.654793 2.6626C-0.224114 3.52979 -0.212395 4.98291 0.654793 5.86182L18.3501 23.5454Z" fill="white"/>
<path d="M19.3233 22.5728C19.6748 22.9243 20.2608 22.9243 20.6006 22.5728C20.9522 22.2329 20.9522 21.6587 20.6006 21.2954L2.91699 3.61181C2.56543 3.26025 1.96777 3.26025 1.62793 3.61181C1.28809 3.95165 1.28809 4.54931 1.62793 4.88915L19.3233 22.5728Z" fill="black" fill-opacity="0.85"/>
</svg>
