<svg width="23" height="27" viewBox="0 0 23 27" fill="none" xmlns="http://www.w3.org/2000/svg">
<path d="M2.85742 14.5402C2.85742 14.9972 3.20898 15.3371 3.70117 15.3371H10.334L6.83007 24.8293C6.37304 26.0363 7.62695 26.6808 8.42382 25.6965L19.0644 12.384C19.2637 12.1379 19.3691 11.9035 19.3691 11.634C19.3691 11.1887 19.0293 10.8371 18.5371 10.8371H11.9043L15.4082 1.34491C15.8535 0.137874 14.6113 -0.506657 13.8144 0.489437L3.17382 13.7902C2.97461 14.048 2.85742 14.2824 2.85742 14.5402Z" fill="#007AFF"/>
<path d="M18.3501 23.5403C19.2407 24.4309 20.6939 24.4309 21.561 23.5403C22.4517 22.6731 22.4517 21.2083 21.561 20.3294L3.87745 2.64576C2.98682 1.75513 1.5337 1.75513 0.654793 2.65748C-0.224114 3.52466 -0.212395 4.97779 0.654793 5.85669L18.3501 23.5403Z" fill="white"/>
<path d="M19.3233 22.5677C19.6748 22.9192 20.2608 22.9192 20.6006 22.5677C20.9522 22.2278 20.9522 21.6536 20.6006 21.2903L2.91699 3.60669C2.56543 3.25513 1.96777 3.25513 1.62793 3.60669C1.28809 3.94654 1.28809 4.54419 1.62793 4.88404L19.3233 22.5677Z" fill="black" fill-opacity="0.85"/>
</svg>
