<svg width="24" height="24" viewBox="0 0 24 24" fill="none" xmlns="http://www.w3.org/2000/svg">
<path d="M11.9531 23.9062C18.4922 23.9062 23.9062 18.4805 23.9062 11.9531C23.9062 5.41406 18.4805 0 11.9414 0C5.41406 0 0 5.41406 0 11.9531C0 18.4805 5.42578 23.9062 11.9531 23.9062ZM11.9531 21.9141C6.42188 21.9141 2.00391 17.4844 2.00391 11.9531C2.00391 6.42188 6.41016 1.99219 11.9414 1.99219C17.4727 1.99219 21.9141 6.42188 21.9141 11.9531C21.9141 17.4844 17.4844 21.9141 11.9531 21.9141Z" fill="#007AFF"/>
<path d="M6.80859 12.7618C6.80859 13.0548 7.04297 13.2657 7.34766 13.2657H11.3203L9.19922 18.961C8.91797 19.711 9.71484 20.1212 10.207 19.5118L16.6289 11.4493C16.7578 11.3087 16.8281 11.1446 16.8281 10.9923C16.8281 10.6993 16.5938 10.4884 16.2891 10.4884H12.3164L14.4375 4.79305C14.7188 4.04305 13.9219 3.63289 13.4297 4.23055L7.00781 12.2931C6.87891 12.4454 6.80859 12.6095 6.80859 12.7618Z" fill="black" fill-opacity="0.85"/>
<path d="M16.6523 18.5742C17.1914 19.1016 18.0586 19.1133 18.5742 18.5742C19.125 18.0352 19.1133 17.2031 18.5742 16.6641L7.23047 5.32031C6.69141 4.78125 5.83594 4.78125 5.30859 5.32031C4.76953 5.84766 4.76953 6.71484 5.30859 7.24219L16.6523 18.5742Z" fill="white"/>
<path d="M17.2378 18C17.437 18.1992 17.7886 18.1992 17.9878 18C18.1987 17.7773 18.1987 17.4609 17.9878 17.25L6.6558 5.90625C6.44486 5.69531 6.10502 5.69531 5.89408 5.90625C5.68314 6.10547 5.69486 6.45703 5.89408 6.65625L17.2378 18Z" fill="black" fill-opacity="0.85"/>
</svg>
