<svg width="22" height="22" viewBox="0 0 22 22" fill="none" xmlns="http://www.w3.org/2000/svg">
<path d="M3.67969 21.5977H17.8945C20.3555 21.5977 21.5742 20.3789 21.5742 17.9648V3.65625C21.5742 1.24219 20.3555 0.0234375 17.8945 0.0234375H3.67969C1.23047 0.0234375 0 1.23047 0 3.65625V17.9648C0 20.3906 1.23047 21.5977 3.67969 21.5977ZM3.70312 19.7109C2.53125 19.7109 1.88672 19.0898 1.88672 17.8711V3.75C1.88672 2.53125 2.53125 1.91016 3.70312 1.91016H17.8711C19.0312 1.91016 19.6875 2.53125 19.6875 3.75V17.8711C19.6875 19.0898 19.0312 19.7109 17.8711 19.7109H3.70312Z" fill="#007AFF"/>
<path d="M5.66016 11.6017C5.66016 11.8946 5.90625 12.1056 6.19922 12.1056H10.1719L8.05078 17.8009C7.76953 18.5509 8.56641 18.961 9.05859 18.3517L15.4922 10.2892C15.6094 10.1485 15.6797 9.98446 15.6797 9.83211C15.6797 9.53914 15.4453 9.3282 15.1406 9.3282H11.1797L13.2891 3.63289C13.582 2.88289 12.7734 2.47274 12.2812 3.07039L5.85938 11.1329C5.73047 11.2853 5.66016 11.4493 5.66016 11.6017Z" fill="black" fill-opacity="0.85"/>
</svg>
