<svg width="28" height="22" viewBox="0 0 28 22" fill="none" xmlns="http://www.w3.org/2000/svg">
<path d="M3.67969 21.5742H23.9531C26.4141 21.5742 27.6328 20.3672 27.6328 17.9531V6.62109C27.6328 4.20703 26.4141 3 23.9531 3H22.3359V1.42969C22.3359 0.539062 21.8203 0 20.918 0H17.4609C16.5703 0 16.0547 0.539062 16.0547 1.42969V3H11.5898V1.42969C11.5898 0.539062 11.0742 0 10.1719 0H6.71484C5.8125 0 5.30859 0.539062 5.30859 1.42969V3H3.67969C1.23047 3 0 4.20703 0 6.62109V17.9531C0 20.3672 1.23047 21.5742 3.67969 21.5742Z" fill="#FFCC00"/>
<path d="M9.98438 13.0664C9.98438 12.9492 10.043 12.8438 10.1367 12.7266L14.9766 6.64455C15.3398 6.1758 15.9492 6.49221 15.7383 7.06643L14.1445 11.3438H17.1328C17.3555 11.3438 17.5547 11.5195 17.5547 11.7305C17.5547 11.8477 17.4961 11.9766 17.3906 12.082L12.5625 18.1523C12.1992 18.6211 11.5781 18.3047 11.7891 17.7422L13.3945 13.4531H10.3945C10.1719 13.4531 9.98438 13.2891 9.98438 13.0664Z" fill="black" fill-opacity="0.85"/>
</svg>
