<svg width="28" height="28" viewBox="0 0 28 28" fill="none" xmlns="http://www.w3.org/2000/svg">
<path d="M12.8438 25.1016C16.6172 25.1016 19.2891 22.2773 19.2891 18.3633C19.2891 12.3164 12.1641 2.60156 5.60156 2.60156C1.95703 2.60156 0 4.69922 0 7.74609C0 11.7188 4.82812 15.7852 12.8555 15.7852C21.3516 15.7852 25.7227 11.4258 25.7227 7.34766C25.7227 4.69922 23.7656 2.60156 20.1211 2.60156C13.5586 2.60156 6.39844 12.3164 6.39844 18.3633C6.39844 22.3125 9.05859 25.1016 12.8438 25.1016ZM12.8438 21.8438C10.5117 21.8438 8.89453 19.8984 8.89453 17.2031C8.89453 11.9766 14.0039 5.19141 19.0312 5.19141C21.2461 5.19141 22.4648 6.46875 22.4648 8.19141C22.4648 10.7227 19.5 14.2031 12.8555 14.2031C5.88281 14.2031 3.24609 10.5117 3.24609 8.19141C3.24609 6.46875 4.47656 5.19141 6.69141 5.19141C11.7188 5.19141 16.793 11.9766 16.793 17.2031C16.793 19.8984 15.1758 21.8438 12.8438 21.8438Z" fill="#007AFF"/>
<path d="M5.32032 7.37109C7.3711 7.37109 9.01172 5.73047 9.01172 3.67969C9.01172 1.64062 7.35939 0 5.32032 0C3.28126 0 1.64062 1.64062 1.64062 3.67969C1.64062 5.71875 3.28126 7.37109 5.32032 7.37109ZM24.0352 13.3945C26.0742 13.3945 27.7148 11.7539 27.7148 9.71484C27.7148 7.67578 26.0742 6.02344 24.0352 6.02344C21.9961 6.02344 20.3438 7.67578 20.3438 9.71484C20.3438 11.7539 21.9961 13.3945 24.0352 13.3945ZM9.53906 26.5547C11.5781 26.5547 13.2188 24.9141 13.2188 22.875C13.2188 20.8359 11.5664 19.1953 9.53906 19.1953C7.48828 19.1953 5.84766 20.8359 5.84766 22.875C5.84766 24.9141 7.48828 26.5547 9.53906 26.5547Z" fill="white"/>
<path d="M5.32031 5.97656C6.59766 5.97656 7.61719 4.95703 7.61719 3.67969C7.61719 2.41406 6.59766 1.38281 5.32031 1.38281C4.05469 1.38281 3.02344 2.41406 3.02344 3.67969C3.02344 4.95703 4.05469 5.97656 5.32031 5.97656ZM24.0352 12.0117C25.3125 12.0117 26.332 10.9805 26.332 9.71484C26.332 8.4375 25.3008 7.40625 24.0352 7.40625C22.7578 7.40625 21.7383 8.4375 21.7383 9.71484C21.7383 10.9805 22.7578 12.0117 24.0352 12.0117ZM9.53906 25.1719C10.8047 25.1719 11.8359 24.1523 11.8359 22.875C11.8359 21.5977 10.8047 20.5781 9.53906 20.5781C8.26172 20.5781 7.23047 21.5977 7.23047 22.875C7.23047 24.1523 8.26172 25.1719 9.53906 25.1719Z" fill="black" fill-opacity="0.85"/>
</svg>
