<svg width="26" height="26" viewBox="0 0 26 26" fill="none" xmlns="http://www.w3.org/2000/svg">
<path d="M5.89746 25.1953C6.47168 25.1953 6.81152 24.8672 7.86621 23.8477L12.4482 19.3359C12.5068 19.2773 12.6123 19.2773 12.6709 19.3359L17.2412 23.8477C18.3076 24.8672 18.6357 25.1953 19.21 25.1953C19.9951 25.1953 20.4521 24.6797 20.4521 23.7656V3.42188C20.4521 1.19531 19.3389 0.0585938 17.1357 0.0585938H7.97168C5.78027 0.0585938 4.65527 1.19531 4.65527 3.42188V23.7656C4.65527 24.6797 5.1123 25.1953 5.89746 25.1953Z" fill="#007AFF"/>
<path d="M21.3779 24.6094C22.2803 25.5117 23.7334 25.5 24.6123 24.5859C25.4678 23.707 25.4678 22.2773 24.6006 21.3984L3.88184 0.667969C2.99121 -0.222656 1.53809 -0.222656 0.65918 0.667969C-0.219727 1.54688 -0.219727 3.01172 0.65918 3.87891L21.3779 24.6094Z" fill="white"/>
<path d="M22.3506 23.6484C22.7021 24 23.2881 24 23.6279 23.6484C23.9795 23.2852 23.9795 22.7227 23.6279 22.3711L2.90918 1.64064C2.55762 1.28908 1.9834 1.27736 1.62012 1.64064C1.28027 1.98049 1.28027 2.57814 1.62012 2.91799L22.3506 23.6484Z" fill="black" fill-opacity="0.85"/>
</svg>
