<svg width="24" height="24" viewBox="0 0 24 24" fill="none" xmlns="http://www.w3.org/2000/svg">
<path d="M11.9531 23.918C18.4922 23.918 23.9062 18.5039 23.9062 11.9648C23.9062 5.4375 18.4805 0.0117188 11.9414 0.0117188C5.41406 0.0117188 0 5.4375 0 11.9648C0 18.5039 5.42578 23.918 11.9531 23.918Z" fill="#FFCC00"/>
<path d="M8.37891 18.375C7.98047 18.375 7.72266 18.082 7.72266 17.6016V7.41797C7.72266 6.24609 8.33203 5.625 9.50391 5.625H14.4023C15.5742 5.625 16.1836 6.24609 16.1836 7.41797V17.6016C16.1836 18.082 15.9258 18.375 15.5273 18.375C15.2109 18.375 15.0352 18.1875 14.4844 17.6484L12.0117 15.2227C11.9766 15.1875 11.9297 15.1875 11.8945 15.2227L9.43359 17.6484C8.87109 18.1875 8.69531 18.375 8.37891 18.375Z" fill="black" fill-opacity="0.85"/>
</svg>
