<svg width="22" height="22" viewBox="0 0 22 22" fill="none" xmlns="http://www.w3.org/2000/svg">
<path d="M3.67969 21.5977H17.8945C20.3555 21.5977 21.5742 20.3789 21.5742 17.9648V3.65625C21.5742 1.24219 20.3555 0.0234375 17.8945 0.0234375H3.67969C1.23047 0.0234375 0 1.23047 0 3.65625V17.9648C0 20.3906 1.23047 21.5977 3.67969 21.5977Z" fill="#FFCC00"/>
<path d="M7.21875 17.2031C6.82031 17.2031 6.5625 16.9102 6.5625 16.418V6.24609C6.5625 5.07422 7.17188 4.45312 8.34375 4.45312H13.2422C14.4258 4.45312 15.0352 5.07422 15.0352 6.24609V16.418C15.0352 16.9102 14.7773 17.2031 14.3672 17.2031C14.0508 17.2031 13.875 17.0156 13.3242 16.4648L10.8516 14.0508C10.8164 14.0156 10.7695 14.0156 10.7344 14.0508L8.27344 16.4648C7.71094 17.0156 7.53516 17.2031 7.21875 17.2031Z" fill="black" fill-opacity="0.85"/>
</svg>
