<svg width="29" height="23" viewBox="0 0 29 23" fill="none" xmlns="http://www.w3.org/2000/svg">
<path d="M1.32422 21.2891C1.72266 21.2891 2.07422 21.0547 2.51953 20.7852C3.80859 19.9063 5.39062 19.3672 7.01953 19.3789C8.54297 19.3907 10.043 19.8828 11.2969 20.9141C10.957 20.1407 10.8633 19.2969 11.0625 18.4766C9.9375 17.8789 8.53125 17.4922 7.06641 17.4922C5.02734 17.4922 3.12891 18.0664 1.88672 18.9571V4.32032C2.83594 2.94922 4.89844 2.02344 7.06641 2.02344C9.29297 2.02344 11.2383 2.96094 12.0703 4.39063V16.4961C12.4453 16.0391 13.4648 15.2657 13.957 14.9258V4.39063C14.8008 2.96094 16.7461 2.02344 18.9727 2.02344C20.9648 2.02344 22.8867 2.82032 23.8945 4.01563C24.6094 3.9336 25.3359 3.99219 26.0273 4.20313C26.0273 3.85157 26.0156 3.6875 25.8984 3.48829C24.8438 1.67188 22.207 0.136719 18.9727 0.136719C16.418 0.136719 14.2031 1.15625 13.0195 2.59766C11.8359 1.15625 9.62109 0.136719 7.06641 0.136719C3.83203 0.136719 1.19531 1.67188 0.140625 3.48829C0.0234375 3.6875 0 3.85157 0 4.05079V19.9532C0 20.9141 0.632812 21.2891 1.32422 21.2891ZM24.7148 21.2891C25.4062 21.2891 26.0273 20.9141 26.0273 19.9532V15.4766C25.2539 15.6993 24.5977 15.6524 24.1406 15.7696V18.9571C23.5195 18.4766 22.6406 18.0782 21.6094 17.8789C21.1992 18.418 20.7773 18.9922 20.4023 19.543C21.5625 19.7071 22.6523 20.1524 23.5195 20.7852C23.9648 21.0547 24.3047 21.2891 24.7148 21.2891Z" fill="#007AFF"/>
<path d="M13.3943 21.2069C14.531 22.3436 16.2303 22.3905 17.3436 21.0545C18.1639 20.0701 20.2264 16.7186 21.9959 14.9491C22.9803 13.9647 24.3045 13.8475 25.0428 13.8475C27.8084 13.8475 28.8865 11.6209 28.5467 10.0858L25.0428 11.0116L24.6443 9.58187C24.5037 9.05452 24.7264 8.60921 25.324 8.44515L27.9139 7.75374C27.8201 7.51937 27.5975 7.17952 27.3162 6.88655C25.7225 5.26937 23.0857 5.23421 21.5154 6.73421C19.2303 8.90218 20.9764 11.2225 19.4646 12.7342C17.5662 14.6209 14.9412 16.0037 13.5467 17.2459C12.2342 18.4178 12.2459 20.0584 13.3943 21.2069ZM15.3396 20.1053C14.8709 20.1053 14.4842 19.7186 14.4842 19.2498C14.4842 18.7811 14.8709 18.4061 15.3396 18.4061C15.8201 18.4061 16.1951 18.7811 16.1951 19.2498C16.1951 19.7186 15.8201 20.1053 15.3396 20.1053Z" fill="black" fill-opacity="0.85"/>
</svg>
