<svg width="16" height="26" viewBox="0 0 16 26" fill="none" xmlns="http://www.w3.org/2000/svg">
<path d="M1.24219 25.1367C1.81641 25.1367 2.15625 24.8086 3.21094 23.7891L7.79297 19.2773C7.85156 19.2188 7.95703 19.2188 8.00391 19.2773L12.5859 23.7891C13.6406 24.8086 13.9805 25.1367 14.5547 25.1367C15.3398 25.1367 15.7969 24.6211 15.7969 23.707V3.36328C15.7969 1.13672 14.6836 0 12.4805 0H3.31641C1.11328 0 0 1.13672 0 3.36328V23.707C0 24.6211 0.457031 25.1367 1.24219 25.1367ZM2.20312 21.9727C2.03906 22.1367 1.85156 22.0898 1.85156 21.8555V3.38672C1.85156 2.37891 2.37891 1.85156 3.41016 1.85156H12.3984C13.418 1.85156 13.9453 2.37891 13.9453 3.38672V21.8555C13.9453 22.0898 13.7695 22.1367 13.5938 21.9727L8.51953 17.0508C8.14453 16.6875 7.65234 16.6875 7.27734 17.0508L2.20312 21.9727Z" fill="black" fill-opacity="0.85"/>
</svg>
