<svg width="24" height="24" viewBox="0 0 24 24" fill="none" xmlns="http://www.w3.org/2000/svg">
<path d="M11.9531 23.918C18.4922 23.918 23.9062 18.5039 23.9062 11.9648C23.9062 5.4375 18.4805 0.0117188 11.9414 0.0117188C5.41406 0.0117188 0 5.4375 0 11.9648C0 18.5039 5.42578 23.918 11.9531 23.918Z" fill="#FFCC00"/>
<path d="M5.0625 17.2031V7.75781C5.0625 7.32422 5.32031 7.08984 5.77734 7.08984H6.82031C7.26562 7.08984 7.51172 7.32422 7.51172 7.75781V17.2031C7.51172 17.6367 7.26562 17.8828 6.82031 17.8828H5.77734C5.32031 17.8828 5.0625 17.6367 5.0625 17.2031ZM8.32031 17.2031V9.66797C8.32031 9.24609 8.57812 8.97656 9.01172 8.97656H11.2734C11.7305 8.97656 11.9531 9.24609 11.9531 9.66797V17.2031C11.9531 17.6367 11.7305 17.8828 11.2734 17.8828H9.01172C8.57812 17.8828 8.32031 17.6367 8.32031 17.2031ZM9.1875 16.2422C9.1875 16.4531 9.33984 16.6172 9.53906 16.6172H10.7578C10.9688 16.6172 11.1211 16.4531 11.1211 16.2422C11.1211 16.043 10.9688 15.8789 10.7578 15.8789H9.53906C9.32812 15.8789 9.1875 16.0312 9.1875 16.2422ZM9.1875 10.6406C9.1875 10.8281 9.32812 11.0039 9.53906 11.0039H10.7578C10.9688 11.0039 11.1211 10.8164 11.1211 10.6406C11.1211 10.4297 10.9688 10.2773 10.7578 10.2773H9.53906C9.33984 10.2773 9.1875 10.4297 9.1875 10.6406ZM12.7852 17.2031V6.22266C12.7852 5.77734 13.0078 5.53125 13.4648 5.53125H14.8359C15.2812 5.53125 15.5273 5.77734 15.5273 6.22266V7.41797L16.4531 7.18359C16.8867 7.07812 17.168 7.30078 17.25 7.73438L19.1484 16.8516C19.2188 17.2852 19.0312 17.5781 18.5977 17.6719L17.7188 17.8828C17.2969 17.9883 17.0039 17.7773 16.9219 17.3555L15.5273 10.6055V17.2031C15.5273 17.6367 15.2812 17.8828 14.8359 17.8828H13.4648C13.0078 17.8828 12.7852 17.6367 12.7852 17.2031Z" fill="black" fill-opacity="0.85"/>
</svg>
