<svg width="29" height="27" viewBox="0 0 29 27" fill="none" xmlns="http://www.w3.org/2000/svg">
<path d="M1.44141 25.9336H3.65625C4.58203 25.9336 5.09766 25.4062 5.09766 24.4922V4.69922C5.09766 3.77344 4.58203 3.24609 3.65625 3.24609H1.44141C0.503906 3.24609 0 3.77344 0 4.69922V24.4922C0 25.4062 0.503906 25.9336 1.44141 25.9336ZM7.91016 25.9336H12.6562C13.5938 25.9336 14.0977 25.4062 14.0977 24.4922V8.69531C14.0977 7.78125 13.5938 7.25391 12.6562 7.25391H7.91016C6.97266 7.25391 6.45703 7.78125 6.45703 8.69531V24.4922C6.45703 25.4062 6.97266 25.9336 7.91016 25.9336ZM9.02344 11.4375C8.60156 11.4375 8.28516 11.1211 8.28516 10.7109C8.28516 10.3125 8.60156 9.99609 9.02344 9.99609H11.5664C11.9766 9.99609 12.2812 10.3125 12.2812 10.7109C12.2812 11.1211 11.9766 11.4375 11.5664 11.4375H9.02344ZM9.02344 23.2031C8.60156 23.2031 8.28516 22.8867 8.28516 22.4766C8.28516 22.0781 8.60156 21.7617 9.02344 21.7617H11.5664C11.9766 21.7617 12.2812 22.0781 12.2812 22.4766C12.2812 22.8867 11.9766 23.2031 11.5664 23.2031H9.02344ZM16.9102 25.9336H19.8047C20.7422 25.9336 21.2461 25.4062 21.2461 24.4922V1.45312C21.2461 0.527344 20.7422 0 19.8047 0H16.9102C15.9727 0 15.4688 0.527344 15.4688 1.45312V24.4922C15.4688 25.4062 15.9727 25.9336 16.9102 25.9336ZM24.8789 25.9922L26.7656 25.7227C27.6797 25.6055 28.125 25.043 28.0195 24.1172L25.7812 4.67578C25.6758 3.76172 25.125 3.28125 24.1875 3.41016L22.3125 3.67969C21.3867 3.79688 20.9414 4.35938 21.0469 5.27344L23.2969 24.7148C23.4023 25.6289 23.9531 26.1094 24.8789 25.9922Z" fill="black" fill-opacity="0.85"/>
</svg>
