<svg width="31" height="26" viewBox="0 0 31 26" fill="none" xmlns="http://www.w3.org/2000/svg">
<path d="M6.53906 19.0312C9.38672 19.0312 11.1328 17.1328 11.1328 14.6719C11.1328 13.8984 10.8047 13.0195 10.3477 12.5742C9.82031 12.0703 9.48047 11.9297 9.48047 11.3438C9.48047 10.8633 9.84375 10.5352 10.3945 10.5352C10.793 10.5352 11.0508 10.6523 11.4727 11.0156C11.8359 11.332 12.1523 11.7305 12.375 12.1992C14.1797 11.7773 14.8594 10.6758 14.8594 8.90625C14.8594 8.39062 15.293 7.95703 15.8086 7.95703C16.3242 7.95703 16.7461 8.39062 16.7461 8.90625C16.7578 11.4961 15.5625 13.3008 12.9375 13.9688C12.9609 14.2031 12.9844 14.4492 12.9844 14.707C12.9844 16.8984 12.0352 18.668 10.3828 19.7812C11.5547 20.5078 13.0547 20.918 14.5898 20.918C14.8828 20.918 15.2109 20.8945 15.832 20.8711C15.7031 20.2852 15.6328 19.7344 15.6328 19.207C15.6328 12.2461 25.5 13.0078 25.5 6.38672C25.5 3.63281 22.8281 1.74609 20.2266 1.74609C19.9922 1.74609 19.6641 1.79297 19.3359 1.86328C18.3984 0.703125 16.8984 0 15.4922 0C13.0078 0 11.3555 1.61719 11.2734 3.85547C11.25 4.45312 10.8516 4.79297 10.3359 4.79297C9.79688 4.79297 9.38672 4.38281 9.41016 3.77344C9.44531 2.92969 9.62109 2.15625 9.92578 1.47656C9.375 1.32422 8.82422 1.25391 8.27344 1.25391C5.4375 1.25391 3.31641 3.04688 3.31641 5.23828C3.31641 6.70312 4.40625 7.91016 5.98828 7.91016C6.50391 7.91016 6.92578 8.34375 6.92578 8.84766C6.92578 9.36328 6.50391 9.79688 5.98828 9.79688C3.9375 9.79688 2.4375 8.84766 1.74609 7.35938C0.644531 8.63672 0 10.3242 0 12.0703C0 16.0898 2.58984 19.0312 6.53906 19.0312ZM25.4297 25.9219C28.3594 25.9219 29.7891 22.3594 29.7891 18.8906C29.7891 18.3633 29.7656 17.8711 29.7539 17.4141C28.7227 17.9414 27.4688 18.1758 26.0273 18.082C25.5 18.0469 25.0781 17.6719 25.0781 17.1445C25.0781 16.6289 25.5 16.1602 26.0273 16.207C28.9102 16.4297 30.8438 14.8125 30.8438 12.1758C30.8438 9.83203 29.5781 7.91016 27.5391 6.9375C26.0508 14.6484 17.625 13.6172 17.3672 18.8672C17.2852 20.6367 18.6328 22.0312 20.5547 22.0312C21.2344 22.0312 21.5742 22.0078 21.8789 21.9961C22.1484 23.9883 23.4023 25.9219 25.4297 25.9219Z" fill="black" fill-opacity="0.85"/>
</svg>
