<svg width="24" height="28" viewBox="0 0 24 28" fill="none" xmlns="http://www.w3.org/2000/svg">
<path d="M13.4883 27.9141C17.8125 27.9141 20.4726 26.3789 20.4726 23.7305V18.0117C22.3125 16.4062 23.3789 13.8281 23.3789 11.0039C23.3789 4.40625 19.0664 0 12.6562 0C6.26953 0 1.99219 4.30078 1.99219 10.7578C1.99219 11.1211 2.00391 11.4258 2.03906 11.7305L0.609375 14.3086C0.199219 15.0117 0.0117188 15.7031 0.0117188 16.3359C0.0117188 17.543 0.75 18.5391 2.00391 18.8672V21.1172C2.00391 23.2266 3.50391 24.2812 5.41406 24.0703L7.94531 23.8125L6.60938 22.3711V23.7305C6.60938 26.3672 9.22266 27.9141 13.4883 27.9141ZM13.4883 26.0273C10.3242 26.0273 8.40234 25.0195 8.40234 23.4023V22.0664C8.40234 21.9023 8.32031 21.8438 8.17969 21.8555L5.16797 22.1953C4.34766 22.2773 3.89063 21.9141 3.89063 20.9766V17.4727C3.89063 17.3672 3.82031 17.2969 3.66797 17.2969H3.12891C2.36719 17.2969 1.92188 16.9102 1.92188 16.3125C1.92188 15.9961 2.02734 15.6211 2.23828 15.2461L3.98438 12.1055C3.91406 11.6484 3.87891 11.1914 3.87891 10.7227C3.87891 5.42578 7.38281 1.88672 12.6562 1.88672C17.9531 1.88672 21.4922 5.51953 21.4922 11.0039C21.4922 13.6289 20.3906 15.9258 18.5742 17.0859L18.5859 23.4023C18.5859 25.0195 16.664 26.0273 13.4883 26.0273Z" fill="#007AFF"/>
<path d="M5.60156 8.96484C5.60156 11.0039 7.01953 12.375 9.12891 12.375C11.2031 12.3867 12.5976 11.1445 12.5976 9.31641C12.5976 8.55469 12.3281 7.89844 11.8476 7.5C11.6367 7.32422 11.4844 7.24219 11.2851 7.24219C10.9687 7.24219 10.7461 7.46484 10.7461 7.74609C10.7461 8.07422 10.9453 8.19141 11.1562 8.40234C11.3789 8.61328 11.4961 8.91797 11.4961 9.29297C11.4961 10.4883 10.5703 11.2617 9.14063 11.2617C7.6875 11.2617 6.71484 10.3594 6.71484 8.95312C6.71484 8.10938 7.17188 7.33594 7.89844 6.91406L7.34766 5.92969C6.29297 6.53906 5.60156 7.72266 5.60156 8.96484ZM7.07813 6.12891C7.07813 7.44141 8.00391 8.33203 9.36328 8.33203C9.66797 8.33203 9.92578 8.07422 9.92578 7.76953C9.92578 7.46484 9.66797 7.21875 9.36328 7.21875C8.66016 7.21875 8.19141 6.78516 8.19141 6.12891C8.19141 5.42578 8.76563 4.92188 9.5625 4.92188C9.98438 4.92188 10.4297 5.07422 10.8047 5.36719L11.4492 4.45312C10.9101 4.04297 10.2539 3.80859 9.5625 3.80859C8.14453 3.80859 7.07813 4.79297 7.07813 6.12891ZM9.97266 5.97656C9.96094 6.31641 10.1836 6.57422 10.5117 6.57422C10.8398 6.57422 11.0625 6.33984 11.0742 6.01172C11.1211 5.03906 11.8242 4.33594 12.8086 4.33594C13.3828 4.33594 13.8984 4.64062 14.1094 5.12109C14.1914 5.28516 14.3555 5.28516 14.6133 5.21484C14.7305 5.17969 14.8711 5.17969 15.0351 5.17969C16.0195 5.17969 16.7812 5.94141 16.7812 6.96094C16.7812 9.44531 13.1601 9.01172 13.1601 11.6719C13.1601 12.8672 14.1094 13.7109 15.4805 13.7109C15.5742 13.7109 15.6679 13.7109 15.7851 13.7109C15.9609 14.8008 16.664 15.5273 17.5312 15.5273C18.7969 15.5273 19.6758 14.1094 19.6758 12.1172C19.6758 11.3555 19.6289 10.8398 19.582 10.3477L18.457 10.6758C18.4922 11.1445 18.5625 11.5547 18.5625 12.1055C18.5625 13.3945 18.0937 14.4141 17.5312 14.4141C17.0508 14.4141 16.7109 13.8047 16.7109 12.9258C16.7109 12.7734 16.6055 12.7031 16.4648 12.7031C16.3008 12.7031 16.1015 12.7148 15.9609 12.7148C14.8476 12.7148 14.2734 12.3516 14.2734 11.6602C14.2734 9.73828 17.9062 10.2773 17.9062 6.96094C17.9062 5.30859 16.6992 4.05469 15.1406 4.05469C15.0117 4.05469 14.8828 4.06641 14.7539 4.08984C14.2734 3.55078 13.5703 3.22266 12.8086 3.22266C11.2031 3.22266 10.0312 4.35938 9.97266 5.97656ZM16.3945 11.3086C16.3945 11.6133 16.6172 11.8359 16.9336 11.8711C18.8555 11.9883 20.1797 10.8398 20.1797 9.01172C20.1797 7.45312 19.0312 6.26953 17.3555 6.11719L17.1914 7.25391C18.3047 7.18359 19.0664 7.89844 19.0664 9.01172C19.0664 10.1484 18.2344 10.8516 16.957 10.7578C16.6523 10.7344 16.3945 11.0039 16.3945 11.3086ZM13.7578 11.9062C13.4297 12.0352 13.0078 12.1055 12.6211 12.1055C11.6367 12.1055 10.6992 11.6953 10.4531 11.1211L9.52734 11.8828C10.1367 12.7031 11.2734 13.2188 12.539 13.2188C13.0547 13.2188 13.6172 13.125 14.1211 12.9609L13.7578 11.9062ZM11.7773 8.09766L12.1406 9.16406C13.5703 8.92969 14.3437 8.05078 14.3437 6.62109C14.3437 6.32812 14.0859 6.07031 13.7812 6.07031C13.4765 6.07031 13.2305 6.31641 13.2305 6.62109C13.2305 7.55859 12.7969 7.99219 11.7773 8.09766Z" fill="black" fill-opacity="0.85"/>
</svg>
