<svg width="24" height="28" viewBox="0 0 24 28" fill="none" xmlns="http://www.w3.org/2000/svg">
<path d="M13.4766 27.9141C17.8008 27.9141 20.4609 26.3789 20.4609 23.7305V18.0117C22.3008 16.4062 23.3672 13.8281 23.3672 11.0039C23.3672 4.40625 19.0547 0 12.6445 0C6.25781 0 1.98047 4.30078 1.98047 10.7578C1.98047 11.1211 1.99219 11.4258 2.02734 11.7305L0.597656 14.3086C0.1875 15.0117 0 15.7031 0 16.3359C0 17.543 0.738281 18.5391 1.99219 18.8672V21.1172C1.99219 23.2266 3.49219 24.2812 5.40234 24.0703L7.93359 23.8125L6.59766 22.3711V23.7305C6.59766 26.3672 9.21094 27.9141 13.4766 27.9141ZM13.4766 26.0273C10.3125 26.0273 8.39062 25.0195 8.39062 23.4023V22.0664C8.39062 21.9023 8.30859 21.8438 8.16797 21.8555L5.15625 22.1953C4.33594 22.2773 3.87891 21.9141 3.87891 20.9766V17.4727C3.87891 17.3672 3.80859 17.2969 3.65625 17.2969H3.11719C2.35547 17.2969 1.91016 16.9102 1.91016 16.3125C1.91016 15.9961 2.01562 15.6211 2.22656 15.2461L3.97266 12.1055C3.90234 11.6484 3.86719 11.1914 3.86719 10.7227C3.86719 5.42578 7.37109 1.88672 12.6445 1.88672C17.9414 1.88672 21.4805 5.51953 21.4805 11.0039C21.4805 13.6289 20.3789 15.9258 18.5625 17.0859L18.5742 23.4023C18.5742 25.0195 16.6523 26.0273 13.4766 26.0273Z" fill="#007AFF"/>
<path d="M8.74219 12.3516C10.125 12.3516 11.0977 11.4492 11.0977 10.1719C11.0977 9.72655 10.957 9.36328 10.7227 9.11719C10.5234 8.92969 10.4531 8.74219 10.4531 8.58984C10.4531 8.30859 10.6992 8.08594 11.0039 8.08594C11.1211 8.08594 11.2969 8.10938 11.4141 8.23828C11.4844 8.29688 11.5547 8.42578 11.5781 8.49609C12.4922 8.36719 12.9492 7.82811 12.9492 6.94922C12.9492 6.64453 13.1953 6.39843 13.4883 6.39843C13.7812 6.39843 14.0391 6.65625 14.0391 6.94922C14.0508 8.29688 13.3711 9.14061 12.0938 9.43359C12.1641 9.67969 12.1875 9.9375 12.1875 10.1953C12.1875 11.3438 11.6133 12.2578 10.6758 12.7734C11.2031 13.0664 11.8359 13.207 12.5156 13.207C12.8203 13.207 13.1367 13.1719 13.4531 13.1133C13.3945 12.9492 13.3711 12.7734 13.3711 12.5977C13.3711 9.62109 17.7773 9.09375 17.7773 6.41016C17.7773 5.08594 16.7461 4.05468 15.457 4.05468C14.9883 4.05468 14.8594 4.06641 14.7305 4.10156C14.25 3.55078 13.5469 3.23438 12.9023 3.23438C11.7656 3.23438 10.957 3.9375 10.9453 5.01562C10.9453 5.34375 10.7109 5.56641 10.3945 5.56641C10.0664 5.56641 9.83203 5.30859 9.85547 4.98047C9.85547 4.5 9.99609 4.17187 10.125 3.86718C9.92578 3.83202 9.73828 3.80858 9.55078 3.80858C8.14453 3.80858 7.06641 4.68749 7.06641 5.81249C7.06641 6.53905 7.57031 7.08983 8.23828 7.08983C8.55469 7.08983 8.8125 7.33594 8.8125 7.62891C8.8125 7.93359 8.54297 8.19141 8.23828 8.19141C7.28906 8.19141 6.53906 7.73438 6.19922 7.01952C5.8125 7.59374 5.60156 8.27344 5.60156 8.95312C5.60156 10.875 6.84375 12.3516 8.74219 12.3516ZM17.5078 15.5156C18.75 15.5156 19.6406 14.0859 19.6406 12.1055C19.6406 11.9531 19.6406 11.7773 19.6289 11.6016C19.1719 11.8125 18.6211 11.9062 18 11.8711C17.6953 11.8359 17.4727 11.6016 17.4727 11.3086C17.4727 11.0039 17.7305 10.7461 18.0234 10.7695C19.3008 10.8516 20.1328 10.1484 20.1328 9.01171C20.1328 7.96875 19.6172 7.08983 18.7734 6.60937C18.457 9.84374 14.332 10.2773 14.332 12.5742C14.332 13.2422 14.7891 13.7109 15.5625 13.7109H15.75C15.9492 14.7773 16.6406 15.5156 17.5078 15.5156Z" fill="black" fill-opacity="0.85"/>
</svg>
