<svg width="24" height="28" viewBox="0 0 24 28" fill="none" xmlns="http://www.w3.org/2000/svg">
<path d="M13.4766 27.9141C17.8008 27.9141 20.4609 26.3789 20.4609 23.7305V18.0117C22.3008 16.4062 23.3672 13.8281 23.3672 11.0039C23.3672 4.40625 19.0547 0 12.6445 0C6.25781 0 1.98047 4.30078 1.98047 10.7578C1.98047 11.1211 1.99219 11.4258 2.02734 11.7305L0.597656 14.3086C0.199219 15.0117 0 15.7031 0 16.3359C0 17.543 0.738281 18.5391 1.99219 18.8672V21.1172C1.99219 23.2266 3.49219 24.293 5.40234 24.0703L6.62109 23.9531L6.60938 24.0352C6.78516 26.4961 9.375 27.9141 13.4766 27.9141Z" fill="#FFCC00"/>
<path d="M8.625 12.457C6.65625 12.457 5.37891 10.9336 5.37891 8.94141C5.37891 8.23828 5.60156 7.53516 6 6.94922C6.35156 7.6875 7.11328 8.15625 8.09766 8.15625C8.41406 8.15625 8.69531 7.88671 8.69531 7.58202C8.69531 7.26561 8.42578 7.00781 8.09766 7.00781C7.41797 7.00781 6.89062 6.4453 6.89062 5.70702C6.89062 4.53515 8.00391 3.64453 9.44531 3.64453C9.65625 3.64453 9.84375 3.66797 10.0547 3.69141C9.91406 4.00781 9.77344 4.34765 9.76172 4.83983C9.73828 5.17968 9.98438 5.44922 10.3359 5.44922C10.6641 5.44922 10.8984 5.22655 10.8984 4.87499C10.9102 3.77343 11.7422 3.04688 12.9023 3.04688C13.582 3.04688 14.3086 3.375 14.8008 3.92578C14.9297 3.89062 15.0703 3.87891 15.5508 3.87891C16.8867 3.87891 17.9531 4.95703 17.9531 6.31641C17.9531 9.09375 13.3945 9.62109 13.3945 12.7031C13.3945 12.8906 13.4297 13.0664 13.4883 13.2422C13.1602 13.3008 12.8203 13.3359 12.5156 13.3359C11.8125 13.3359 11.168 13.1836 10.6172 12.8906C11.6016 12.3633 12.1758 11.4141 12.1758 10.2305C12.1758 9.96094 12.1523 9.69141 12.082 9.43359C13.3945 9.14061 14.0977 8.26171 14.0859 6.87891C14.0859 6.57421 13.8281 6.30468 13.5234 6.30468C13.2188 6.30468 12.9609 6.56249 12.9609 6.87891C12.9609 7.78125 12.4922 8.33203 11.543 8.46094C11.5195 8.39062 11.4492 8.27344 11.3789 8.21484C11.25 8.08594 11.0859 8.05078 10.9453 8.05078C10.6406 8.05078 10.3945 8.27344 10.3945 8.56641C10.3945 8.73047 10.4648 8.92969 10.6641 9.11719C10.9102 9.36328 11.0625 9.75 11.0625 10.207C11.0625 11.5195 10.0547 12.457 8.625 12.457ZM17.6602 15.7148C16.7695 15.7148 16.0547 14.9531 15.8555 13.8398H15.6562C14.8594 13.8398 14.3906 13.3594 14.3906 12.6797C14.3906 10.3242 18.6445 9.86718 18.9727 6.52733C19.8398 7.03124 20.3789 7.92188 20.3789 9C20.3789 10.1836 19.5234 10.9102 18.1992 10.8164C17.9062 10.793 17.6367 11.0625 17.6367 11.3789C17.6367 11.6719 17.8594 11.918 18.1758 11.9531C18.8203 11.9883 19.3828 11.8945 19.8633 11.6836C19.875 11.8594 19.875 12.0469 19.875 12.2109C19.875 14.25 18.9492 15.7148 17.6602 15.7148Z" fill="black" fill-opacity="0.85"/>
</svg>
