<svg width="34" height="23" viewBox="0 0 34 23" fill="none" xmlns="http://www.w3.org/2000/svg">
<path d="M0 11.4259C0 15.1407 1.20703 18.5509 3.24609 21.3282C3.60938 21.8321 4.23047 21.879 4.69922 21.504C5.12109 21.1407 5.17969 20.5782 4.83984 20.1095C3.05859 17.6837 2.00391 14.672 2.00391 11.4259C2.00391 8.16805 3.05859 5.16805 4.83984 2.71883C5.17969 2.27352 5.13281 1.6993 4.69922 1.33602C4.23047 0.961017 3.60938 1.01961 3.24609 1.5118C1.20703 4.28914 0 7.71102 0 11.4259ZM33.4453 11.4259C33.4453 7.71102 32.25 4.28914 30.1992 1.5118C29.8359 1.01961 29.2148 0.961017 28.7461 1.33602C28.3125 1.6993 28.2773 2.27352 28.6055 2.71883C30.3984 5.16805 31.4414 8.16805 31.4414 11.4259C31.4414 14.672 30.3984 17.6837 28.6055 20.1095C28.2773 20.5782 28.3242 21.1407 28.7461 21.504C29.2148 21.879 29.8359 21.8321 30.1992 21.3282C32.25 18.5509 33.4453 15.1407 33.4453 11.4259Z" fill="black" fill-opacity="0.85"/>
<path d="M16.7227 22.8516C22.9688 22.8516 28.1602 17.6719 28.1602 11.4258C28.1602 5.17969 22.9688 0 16.7109 0C10.4648 0 5.29688 5.16797 5.29688 11.4258C5.29688 17.6719 10.4766 22.8516 16.7227 22.8516ZM16.7227 20.8594C11.4961 20.8594 7.30078 16.6641 7.30078 11.4258C7.30078 6.17578 11.4844 1.98047 16.7109 1.98047C21.9492 1.98047 26.1562 6.17578 26.168 11.4258C26.1797 16.6523 21.9727 20.8594 16.7227 20.8594Z" fill="black" fill-opacity="0.85"/>
</svg>
