<svg width="28" height="28" viewBox="0 0 28 28" fill="none" xmlns="http://www.w3.org/2000/svg">
<path d="M1.07812 24.4102C1.73438 24.4102 2.15625 23.9766 2.15625 23.2852V15.5273H5.87109C5.94141 15.5273 6.03516 15.5273 6.10547 15.5273L10.6641 23.707C10.957 24.2227 11.2383 24.4219 11.7422 24.4219C12.375 24.4219 12.832 23.9883 12.832 23.4141C12.832 23.168 12.7734 22.9453 12.6094 22.6406L8.34375 15.1875C11.0859 14.4141 12.7266 12.2109 12.7266 9.26953C12.7266 5.54297 10.125 3.16406 6.08203 3.16406H1.11328C0.421875 3.16406 0 3.60938 0 4.32422V23.2852C0 23.9766 0.421875 24.4102 1.07812 24.4102ZM2.15625 13.6055V5.09766H5.80078C8.73047 5.09766 10.4883 6.65625 10.4883 9.33984C10.4883 12.0586 8.80078 13.6055 5.89453 13.6055H2.15625ZM20.9062 23.6484C24.4102 23.6484 27.4102 21.6797 27.4102 18.1055C27.4102 15.3516 25.7695 13.7109 22.0781 12.7617L20.1211 12.2461C17.8594 11.6836 16.8047 10.6641 16.8047 9.09375C16.8047 7.39453 18.3164 5.92969 20.8945 5.92969C22.9922 5.92969 24.4453 6.97266 25.0078 8.92969C25.2305 9.58594 25.5586 9.85547 26.0977 9.85547C26.7188 9.85547 27.1172 9.43359 27.1172 8.73047C27.1172 8.56641 27.0938 8.37891 27.0469 8.15625C26.4141 5.56641 23.9531 3.85547 20.8945 3.85547C17.25 3.85547 14.6602 6.04688 14.6602 9.22266C14.6602 11.8711 16.3008 13.5234 19.793 14.4141L21.75 14.918C24.3047 15.5859 25.2773 16.5 25.2773 18.2578C25.2773 20.3555 23.6719 21.5742 20.9297 21.5742C18.457 21.5742 16.875 20.4727 16.3945 18.457C16.1953 17.8359 15.832 17.5195 15.293 17.5195C14.6836 17.5195 14.2852 17.9766 14.2852 18.6562C14.2852 18.8438 14.3086 19.0195 14.3672 19.2188C15.0234 22.0312 17.7891 23.6484 20.9062 23.6484ZM20.8477 27.0117C21.3398 27.0117 21.7383 26.625 21.7383 26.1328V1.45312C21.7383 0.960938 21.3398 0.5625 20.8477 0.5625C20.3555 0.5625 19.9688 0.960938 19.9688 1.45312V26.1328C19.9688 26.625 20.3555 27.0117 20.8477 27.0117Z" fill="black" fill-opacity="0.85"/>
</svg>
