<svg width="22" height="22" viewBox="0 0 22 22" fill="none" xmlns="http://www.w3.org/2000/svg">
<path d="M3.67969 21.5977H17.8945C20.3555 21.5977 21.5742 20.3789 21.5742 17.9648V3.65625C21.5742 1.24219 20.3555 0.0234375 17.8945 0.0234375H3.67969C1.23047 0.0234375 0 1.23047 0 3.65625V17.9648C0 20.3906 1.23047 21.5977 3.67969 21.5977ZM3.70312 19.7109C2.53125 19.7109 1.88672 19.0898 1.88672 17.8711V3.75C1.88672 2.53125 2.53125 1.91016 3.70312 1.91016H17.8711C19.0312 1.91016 19.6875 2.53125 19.6875 3.75V17.8711C19.6875 19.0898 19.0312 19.7109 17.8711 19.7109H3.70312Z" fill="#007AFF"/>
<path d="M5.63672 16.0898C6.08203 16.0898 6.39844 15.7734 6.39844 15.3164V11.543H7.32422C7.40625 11.543 7.47656 11.543 7.57031 11.543L9.12891 15.5977C9.25781 15.9492 9.53906 16.0898 9.84375 16.0898C10.3359 16.0898 10.8398 15.7031 10.5703 15.0352L9.04688 11.25C10.043 10.8633 10.5586 9.62109 10.5586 8.39062C10.5586 6.51562 9.63281 5.4375 7.65234 5.4375H5.75391C5.17969 5.4375 4.86328 5.87109 4.86328 6.50391V15.3164C4.86328 15.7734 5.17969 16.0898 5.63672 16.0898ZM6.39844 10.3477V6.67969H7.48828C8.51953 6.67969 9 7.34766 9 8.44922C9 9.5625 8.54297 10.3477 7.5 10.3477H6.39844ZM14.4141 15.6094C16.1016 15.6094 17.2617 14.6367 17.2617 13.0312C17.2617 11.8945 16.6523 11.0859 15.2695 10.3594L14.2266 9.80859C13.6172 9.49219 12.9844 9.09375 12.9844 8.32031C12.9844 7.59375 13.5234 7.125 14.332 7.125C15.2227 7.125 15.668 7.6875 15.7266 8.48438C15.7617 8.85938 16.0547 9.08203 16.3711 9.08203C16.7812 9.08203 17.168 8.77734 17.0742 8.13281C16.9102 6.85547 15.9375 5.88281 14.332 5.88281C12.7266 5.88281 11.543 6.86719 11.543 8.37891C11.543 9.65625 12.2695 10.4766 13.5117 11.0859L14.5195 11.5898C15.1875 11.918 15.832 12.4336 15.832 13.1367C15.832 13.875 15.3164 14.3672 14.4141 14.3672C13.3945 14.3672 12.9492 13.8516 12.8672 12.9961C12.8203 12.5977 12.5508 12.3984 12.2344 12.3984C11.8359 12.3984 11.4492 12.7383 11.543 13.3477C11.7305 14.6953 12.7617 15.6094 14.4141 15.6094ZM14.4023 16.8633C14.6602 16.8633 14.8828 16.6406 14.8828 16.3828V5.14453C14.8828 4.875 14.6602 4.65234 14.4023 4.65234C14.1445 4.65234 13.9102 4.875 13.9102 5.14453V16.3828C13.9102 16.6406 14.1445 16.8633 14.4023 16.8633Z" fill="black" fill-opacity="0.85"/>
</svg>
