<svg width="24" height="24" viewBox="0 0 24 24" fill="none" xmlns="http://www.w3.org/2000/svg">
<path d="M11.9531 23.918C18.4922 23.918 23.9062 18.5039 23.9062 11.9648C23.9062 5.4375 18.4805 0.0117188 11.9414 0.0117188C5.41406 0.0117188 0 5.4375 0 11.9648C0 18.5039 5.42578 23.918 11.9531 23.918Z" fill="#FFCC00"/>
<path d="M5.08594 15.4688V11.0156C6.89062 11.6719 8.58984 11.9883 10.3242 12.1055V12.5977C10.3242 13.0312 10.5703 13.2891 10.9922 13.2891H12.9375C13.3594 13.2891 13.6055 13.0312 13.6055 12.5977V12.1055C15.3398 11.9883 17.0391 11.6719 18.8555 11.0156V15.4688C18.8555 16.7461 18.2109 17.3672 16.9453 17.3672H6.98438C5.71875 17.3672 5.08594 16.7461 5.08594 15.4688ZM5.08594 9.9375V9.45703C5.08594 8.19141 5.71875 7.57031 6.98438 7.57031H8.27344V6.96094C8.27344 6 8.90625 5.41406 9.89062 5.41406H14.0391C15.0234 5.41406 15.6562 6 15.6562 6.96094V7.57031H16.9453C18.2109 7.57031 18.8555 8.19141 18.8555 9.45703V9.9375C16.5703 10.8633 14.3672 11.1914 11.9648 11.1914C9.5625 11.1914 7.35938 10.8633 5.08594 9.9375ZM9.43359 7.57031H14.4961V7.01953C14.4961 6.70312 14.2852 6.51562 13.957 6.51562H9.97266C9.63281 6.51562 9.43359 6.70312 9.43359 7.01953V7.57031Z" fill="black" fill-opacity="0.85"/>
</svg>
