<svg width="24" height="24" viewBox="0 0 24 24" fill="none" xmlns="http://www.w3.org/2000/svg">
<path d="M11.9531 23.9062C18.4922 23.9062 23.9062 18.4805 23.9062 11.9531C23.9062 5.41406 18.4805 0 11.9414 0C5.41406 0 0 5.41406 0 11.9531C0 18.4805 5.42578 23.9062 11.9531 23.9062ZM11.9531 21.9141C6.42188 21.9141 2.00391 17.4844 2.00391 11.9531C2.00391 6.42188 6.41016 1.99219 11.9414 1.99219C17.4727 1.99219 21.9141 6.42188 21.9141 11.9531C21.9141 17.4844 17.4844 21.9141 11.9531 21.9141Z" fill="#007AFF"/>
<path d="M7.125 17.1562H16.7812C18.0117 17.1562 18.6328 16.5586 18.6328 15.3398V9.4922C18.6328 8.26173 18.0117 7.66406 16.7812 7.66406H7.125C5.89453 7.66406 5.28516 8.26173 5.28516 9.4922V15.3398C5.28516 16.5586 5.89453 17.1562 7.125 17.1562ZM11.0156 13.207C10.6055 13.207 10.3594 12.9727 10.3594 12.5391V12.0586C8.68359 11.9414 7.03125 11.6367 5.28516 11.0039V9.96095C7.48828 10.875 9.62109 11.1797 11.9531 11.1797C14.2852 11.1797 16.418 10.875 18.6328 9.96095V11.0039C16.875 11.6367 15.2227 11.9414 13.5469 12.0586V12.5391C13.5469 12.9727 13.3008 13.207 12.8906 13.207H11.0156ZM8.37891 8.19141H9.50391V7.125C9.50391 6.82031 9.70312 6.63281 10.0312 6.63281H13.8984C14.2148 6.63281 14.4141 6.82031 14.4141 7.125V8.19141H15.5273V7.06641C15.5273 6.14062 14.918 5.57812 13.957 5.57812H9.94922C8.98828 5.57812 8.37891 6.14062 8.37891 7.06641V8.19141Z" fill="black" fill-opacity="0.85"/>
</svg>
