<svg width="28" height="23" viewBox="0 0 28 23" fill="none" xmlns="http://www.w3.org/2000/svg">
<path d="M1.30078 10.8984C4.99219 12.1992 9.15234 12.832 13.5586 12.832C17.9766 12.832 22.1367 12.1992 25.8281 10.8984L25.8164 8.91797C22.2188 10.3242 18.082 11.0156 13.5586 11.0156C9.04688 11.0156 4.91016 10.3242 1.3125 8.90625L1.30078 10.8984ZM11.7422 14.9531H15.3867C16.207 14.9531 16.6875 14.4961 16.6875 13.6758V11.8711H10.4414V13.6758C10.4414 14.4961 10.9219 14.9531 11.7422 14.9531ZM3.62109 22.7109H23.5078C25.9336 22.7109 27.1289 21.5391 27.1289 19.1367V7.73438C27.1289 5.33203 25.9336 4.16016 23.5078 4.16016H3.62109C1.20703 4.16016 0 5.33203 0 7.73438V19.1367C0 21.5391 1.20703 22.7109 3.62109 22.7109ZM3.64453 20.8359C2.49609 20.8359 1.88672 20.25 1.88672 19.043V7.82812C1.88672 6.63281 2.49609 6.03516 3.64453 6.03516H23.4844C24.6328 6.03516 25.2422 6.63281 25.2422 7.82812V19.043C25.2422 20.25 24.6328 20.8359 23.4844 20.8359H3.64453ZM7.61719 5.17969H9.43359V3.10547C9.43359 2.21484 9.96094 1.71094 10.875 1.71094H16.2539C17.168 1.71094 17.6836 2.21484 17.6836 3.10547V5.15625H19.5V3.23438C19.5 1.03125 18.3398 0 16.2188 0H10.8984C8.89453 0 7.61719 1.03125 7.61719 3.23438V5.17969Z" fill="black" fill-opacity="0.85"/>
</svg>
