<svg width="26" height="26" viewBox="0 0 26 26" fill="none" xmlns="http://www.w3.org/2000/svg">
<path d="M18.6211 25.7461C19.4414 25.7461 19.8984 25.1602 19.8984 24.2578V21.2109H20.4609C23.9531 21.2109 25.8281 19.2891 25.8281 15.8438V6.86719C25.8281 3.42188 23.9531 1.5 20.4609 1.5H5.36719C1.875 1.5 0 3.43359 0 6.86719V15.8438C0 19.2773 1.875 21.2109 5.36719 21.2109H12.8906L16.9336 24.8086C17.6484 25.4414 18.0469 25.7461 18.6211 25.7461ZM18.1406 23.6016L14.3906 19.875C13.9453 19.418 13.6172 19.3242 12.9609 19.3242H5.36719C3.01172 19.3242 1.88672 18.1172 1.88672 15.832V6.86719C1.88672 4.58203 3.01172 3.38672 5.36719 3.38672H20.4609C22.8281 3.38672 23.9414 4.58203 23.9414 6.86719V15.832C23.9414 18.1172 22.8281 19.3242 20.4609 19.3242H19.0195C18.3867 19.3242 18.1406 19.5703 18.1406 20.2031V23.6016Z" fill="black" fill-opacity="0.85"/>
</svg>
