<svg width="25" height="24" viewBox="0 0 25 24" fill="none" xmlns="http://www.w3.org/2000/svg">
<path d="M20.4258 23.9062C20.6719 23.9062 20.8828 23.7188 20.918 23.4609C21.293 20.6484 21.3047 20.6719 24.293 20.0977C24.5508 20.0508 24.7383 19.8516 24.7383 19.6055C24.7383 19.3477 24.5508 19.1602 24.2812 19.1133C21.3398 18.6914 21.2812 18.6445 20.918 15.7617C20.8945 15.4922 20.6836 15.3047 20.4258 15.3047C20.1562 15.3047 19.957 15.5039 19.9336 15.7734C19.582 18.5859 19.5234 18.5508 16.5469 19.1133C16.2891 19.1719 16.1133 19.3711 16.1133 19.6055C16.1133 19.8633 16.3008 20.0508 16.5938 20.0977C19.5234 20.5781 19.582 20.625 19.9336 23.4375C19.957 23.707 20.1562 23.9062 20.4258 23.9062Z" fill="#007AFF"/>
<path d="M7.69922 6.43359C7.89844 6.43359 8.0625 6.30469 8.09766 6.09375C8.49609 3.96094 8.4375 4.03125 10.5703 3.60938C10.7812 3.57422 10.9219 3.41016 10.9219 3.21094C10.9219 3.01172 10.7812 2.85938 10.5703 2.82422C8.4375 2.40234 8.49609 2.47266 8.09766 0.339844C8.0625 0.128906 7.89844 0 7.69922 0C7.5 0 7.33594 0.128906 7.30078 0.339844C6.90234 2.47266 6.96094 2.40234 4.82812 2.82422C4.61719 2.85938 4.47656 3.01172 4.47656 3.21094C4.47656 3.41016 4.61719 3.57422 4.82812 3.60938C6.96094 4.03125 6.90234 3.96094 7.30078 6.09375C7.33594 6.30469 7.5 6.43359 7.69922 6.43359Z" fill="#007AFF"/>
<path d="M7.67578 23.5312C9.49219 23.5312 10.9922 22.0312 10.9922 20.1914C10.9922 18.375 9.49219 16.875 7.67578 16.875C5.83594 16.875 4.33594 18.375 4.33594 20.1914C4.33594 22.0312 5.83594 23.5312 7.67578 23.5312Z" fill="black" fill-opacity="0.85"/>
<path d="M3.10547 12.9258C4.79297 12.9258 6.19922 11.5312 6.19922 9.82031C6.19922 8.13281 4.79297 6.73828 3.10547 6.73828C1.39453 6.73828 0 8.13281 0 9.82031C0 11.5312 1.39453 12.9258 3.10547 12.9258Z" fill="black" fill-opacity="0.85"/>
<path d="M18.7148 12.3984C21.7852 12.3984 24.2695 9.91406 24.2695 6.84375C24.2695 3.78516 21.7852 1.30078 18.7148 1.30078C15.6562 1.30078 13.1719 3.78516 13.1719 6.84375C13.1719 9.91406 15.6562 12.3984 18.7148 12.3984Z" fill="black" fill-opacity="0.85"/>
<path d="M14.0156 17.0977C17.1562 17.0977 19.6992 14.5547 19.6992 11.4023C19.6992 8.26172 17.1562 5.71875 14.0156 5.71875C10.875 5.71875 8.33203 8.26172 8.33203 11.4023C8.33203 14.5547 10.875 17.0977 14.0156 17.0977Z" fill="white"/>
<path d="M14.0156 15.7266C16.4062 15.7266 18.3398 13.8047 18.3398 11.4023C18.3398 9.01172 16.4062 7.07812 14.0156 7.07812C11.625 7.07812 9.69141 9.01172 9.69141 11.4023C9.69141 13.8047 11.625 15.7266 14.0156 15.7266Z" fill="black" fill-opacity="0.85"/>
</svg>
