<svg width="24" height="24" viewBox="0 0 24 24" fill="none" xmlns="http://www.w3.org/2000/svg">
<path d="M11.9531 23.9062C18.4922 23.9062 23.9062 18.4805 23.9062 11.9531C23.9062 5.41406 18.4805 0 11.9414 0C5.41406 0 0 5.41406 0 11.9531C0 18.4805 5.42578 23.9062 11.9531 23.9062ZM11.9531 21.9141C6.42188 21.9141 2.00391 17.4844 2.00391 11.9531C2.00391 6.42188 6.41016 1.99219 11.9414 1.99219C17.4727 1.99219 21.9141 6.42188 21.9141 11.9531C21.9141 17.4844 17.4844 21.9141 11.9531 21.9141Z" fill="#007AFF"/>
<path d="M9.01172 18.7148C9.24609 18.7148 9.39844 18.6094 9.66797 18.3633L11.7656 16.4648H15.6797C17.3789 16.4648 18.3164 15.5156 18.3164 13.8164V9.39844C18.3164 7.72266 17.3789 6.76172 15.6797 6.76172H8.22656C6.52734 6.76172 5.58984 7.71094 5.58984 9.39844V13.8164C5.58984 15.5156 6.52734 16.4648 8.22656 16.4648H8.50781V18.1406C8.50781 18.4922 8.69531 18.7148 9.01172 18.7148Z" fill="black" fill-opacity="0.85"/>
</svg>
