<svg width="30" height="29" viewBox="0 0 30 29" fill="none" xmlns="http://www.w3.org/2000/svg">
<path d="M17.5312 26.5898H27.2461C28.4414 26.5898 29.1797 25.7578 29.1797 24.457V9.50391C29.1797 8.20312 28.4414 7.37109 27.2461 7.37109H17.5312C16.3477 7.37109 15.5977 8.20312 15.5977 9.50391V24.457C15.5977 25.7578 16.3477 26.5898 17.5312 26.5898ZM18.7031 13.7227C18.457 13.7227 18.293 13.5469 18.293 13.3008V11.4258C18.293 11.1797 18.457 11.0156 18.7031 11.0156H20.6484C20.9062 11.0156 21.0586 11.1797 21.0586 11.4258V13.3008C21.0586 13.5469 20.9062 13.7227 20.6484 13.7227H18.7031ZM18.7031 18.3281C18.457 18.3281 18.293 18.1641 18.293 17.918V16.043C18.293 15.7969 18.457 15.6328 18.7031 15.6328H20.6484C20.9062 15.6328 21.0586 15.7969 21.0586 16.043V17.918C21.0586 18.1641 20.9062 18.3281 20.6484 18.3281H18.7031ZM18.7031 22.9453C18.457 22.9453 18.293 22.7812 18.293 22.5352V20.6602C18.293 20.4141 18.457 20.2383 18.7031 20.2383H20.6484C20.9062 20.2383 21.0586 20.4141 21.0586 20.6602V22.5352C21.0586 22.7812 20.9062 22.9453 20.6484 22.9453H18.7031ZM24.1289 13.7227C23.8711 13.7227 23.7188 13.5469 23.7188 13.3008V11.4258C23.7188 11.1797 23.8711 11.0156 24.1289 11.0156H26.0742C26.3203 11.0156 26.4844 11.1797 26.4844 11.4258V13.3008C26.4844 13.5469 26.3203 13.7227 26.0742 13.7227H24.1289ZM24.1289 18.3281C23.8711 18.3281 23.7188 18.1641 23.7188 17.918V16.043C23.7188 15.7969 23.8711 15.6328 24.1289 15.6328H26.0742C26.3203 15.6328 26.4844 15.7969 26.4844 16.043V17.918C26.4844 18.1641 26.3203 18.3281 26.0742 18.3281H24.1289ZM24.1289 22.9453C23.8711 22.9453 23.7188 22.7812 23.7188 22.5352V20.6602C23.7188 20.4141 23.8711 20.2383 24.1289 20.2383H26.0742C26.3203 20.2383 26.4844 20.4141 26.4844 20.6602V22.5352C26.4844 22.7812 26.3203 22.9453 26.0742 22.9453H24.1289Z" fill="#007AFF"/>
<path d="M3.53906 28.1836H17.5195C19.6406 28.1836 21.0586 26.5898 21.0586 24.457V3.73828C21.0586 1.60547 19.6406 0 17.5195 0H3.53906C1.41797 0 0 1.60547 0 3.73828V24.457C0 26.5898 1.41797 28.1836 3.53906 28.1836Z" fill="white"/>
<path d="M1.59375 24.457C1.59375 25.7578 2.34375 26.5898 3.53906 26.5898H17.5195C18.7031 26.5898 19.4531 25.7578 19.4531 24.457V3.73828C19.4531 2.4375 18.7031 1.60547 17.5195 1.60547H3.53906C2.34375 1.60547 1.59375 2.4375 1.59375 3.73828V24.457ZM6.46875 24.7031V20.8945C6.46875 20.3555 6.82031 20.0039 7.37109 20.0039H13.793C14.3438 20.0039 14.6836 20.3555 14.6836 20.8945V24.7031H6.46875ZM6.08203 7.89844V5.625C6.08203 5.33203 6.26953 5.12109 6.57422 5.12109H8.90625C9.21094 5.12109 9.41016 5.33203 9.41016 5.625V7.89844C9.41016 8.20312 9.21094 8.40234 8.90625 8.40234H6.57422C6.26953 8.40234 6.08203 8.20312 6.08203 7.89844ZM11.7422 7.89844V5.625C11.7422 5.33203 11.9297 5.12109 12.2344 5.12109H14.5664C14.8711 5.12109 15.0703 5.33203 15.0703 5.625V7.89844C15.0703 8.20312 14.8711 8.40234 14.5664 8.40234H12.2344C11.9297 8.40234 11.7422 8.20312 11.7422 7.89844ZM6.08203 12.6797V10.4062C6.08203 10.1133 6.26953 9.90234 6.57422 9.90234H8.90625C9.21094 9.90234 9.41016 10.1133 9.41016 10.4062V12.6797C9.41016 12.9844 9.21094 13.1836 8.90625 13.1836H6.57422C6.26953 13.1836 6.08203 12.9844 6.08203 12.6797ZM11.7422 12.6797V10.4062C11.7422 10.1133 11.9297 9.90234 12.2344 9.90234H14.5664C14.8711 9.90234 15.0703 10.1133 15.0703 10.4062V12.6797C15.0703 12.9844 14.8711 13.1836 14.5664 13.1836H12.2344C11.9297 13.1836 11.7422 12.9844 11.7422 12.6797ZM6.08203 17.4609V15.1875C6.08203 14.8828 6.26953 14.6836 6.57422 14.6836H8.90625C9.21094 14.6836 9.41016 14.8828 9.41016 15.1875V17.4609C9.41016 17.7539 9.21094 17.9648 8.90625 17.9648H6.57422C6.26953 17.9648 6.08203 17.7539 6.08203 17.4609ZM11.7422 17.4609V15.1875C11.7422 14.8828 11.9297 14.6836 12.2344 14.6836H14.5664C14.8711 14.6836 15.0703 14.8828 15.0703 15.1875V17.4609C15.0703 17.7539 14.8711 17.9648 14.5664 17.9648H12.2344C11.9297 17.9648 11.7422 17.7539 11.7422 17.4609Z" fill="black" fill-opacity="0.85"/>
</svg>
