<svg width="28" height="21" viewBox="0 0 28 21" fill="none" xmlns="http://www.w3.org/2000/svg">
<path d="M9.83203 20.4375H17.2031C24 20.4375 27.0352 17.3086 27.0352 10.9102V3.55078C27.0352 1.19531 25.8164 0 23.4375 0H3.59766C1.21875 0 0 1.19531 0 3.55078V10.9102C0 17.3086 3.03516 20.4375 9.83203 20.4375ZM9.83203 18.5508C4.30078 18.5508 1.88672 16.1484 1.88672 11.0273V3.65625C1.88672 2.48438 2.49609 1.88672 3.64453 1.88672H23.3906C24.5156 1.88672 25.1484 2.48438 25.1484 3.65625V11.0273C25.1484 16.1484 22.7344 18.5508 17.1914 18.5508H9.83203Z" fill="black" fill-opacity="0.85"/>
</svg>
