<svg width="28" height="22" viewBox="0 0 28 22" fill="none" xmlns="http://www.w3.org/2000/svg">
<path d="M9.23438 21.0352H18.3984C25.1953 21.0352 27.6328 18.5156 27.6328 12.2461V8.80078C27.6328 2.53125 25.1953 0 18.3984 0H9.23438C2.4375 0 0 2.53125 0 8.80078V12.2461C0 18.5156 2.4375 21.0352 9.23438 21.0352ZM9.23438 19.1484C3.70312 19.1484 1.88672 17.3555 1.88672 12.2461V8.80078C1.88672 3.69141 3.70312 1.88672 9.23438 1.88672H18.3984C23.9297 1.88672 25.7461 3.69141 25.7461 8.80078V12.2461C25.7461 17.3555 23.9297 19.1484 18.3984 19.1484H9.23438Z" fill="black" fill-opacity="0.85"/>
</svg>
