<svg width="22" height="22" viewBox="0 0 22 22" fill="none" xmlns="http://www.w3.org/2000/svg">
<path d="M3.67969 21.5977H17.8945C20.3555 21.5977 21.5742 20.3789 21.5742 17.9648V3.65625C21.5742 1.24219 20.3555 0.0234375 17.8945 0.0234375H3.67969C1.23047 0.0234375 0 1.23047 0 3.65625V17.9648C0 20.3906 1.23047 21.5977 3.67969 21.5977ZM3.70312 19.7109C2.53125 19.7109 1.88672 19.0898 1.88672 17.8711V3.75C1.88672 2.53125 2.53125 1.91016 3.70312 1.91016H17.8711C19.0312 1.91016 19.6875 2.53125 19.6875 3.75V17.8711C19.6875 19.0898 19.0312 19.7109 17.8711 19.7109H3.70312Z" fill="#007AFF"/>
<path d="M10.8281 17.4844C14.4844 17.4844 17.5078 14.4492 17.5078 10.8047C17.5078 7.17188 14.4609 4.125 10.8281 4.125C7.18359 4.125 4.16016 7.16016 4.16016 10.8047C4.16016 14.4375 7.20703 17.4844 10.8281 17.4844ZM10.8281 15.832C8.10938 15.832 5.80078 13.5352 5.80078 10.8047C5.80078 8.0625 8.09766 5.77734 10.8281 5.77734C13.5586 5.77734 15.8672 8.07422 15.8672 10.8047C15.8672 13.5469 13.5703 15.832 10.8281 15.832ZM10.8281 14.625C12.9141 14.625 14.6484 12.8789 14.6484 10.8047C14.6484 8.74219 12.9023 6.98438 10.8281 6.98438C8.75391 6.98438 7.01953 8.73047 7.01953 10.8047C7.01953 12.8672 8.76562 14.625 10.8281 14.625Z" fill="black" fill-opacity="0.85"/>
</svg>
