<svg width="22" height="22" viewBox="0 0 22 22" fill="none" xmlns="http://www.w3.org/2000/svg">
<path d="M3.67969 21.5977H17.8945C20.3555 21.5977 21.5742 20.3789 21.5742 17.9648V3.65625C21.5742 1.24219 20.3555 0.0234375 17.8945 0.0234375H3.67969C1.23047 0.0234375 0 1.23047 0 3.65625V17.9648C0 20.3906 1.23047 21.5977 3.67969 21.5977Z" fill="#FFCC00"/>
<path d="M10.8281 17.6953C7.08984 17.6953 3.94922 14.5547 3.94922 10.8047C3.94922 7.04297 7.06641 3.91406 10.8281 3.91406C14.5781 3.91406 17.7188 7.05469 17.7188 10.8047C17.7188 14.5664 14.6016 17.6953 10.8281 17.6953ZM10.8281 15.9844C13.6523 15.9844 16.0195 13.6289 16.0195 10.8047C16.0195 7.99219 13.6406 5.625 10.8281 5.625C8.01562 5.625 5.64844 7.98047 5.64844 10.8047C5.64844 13.6172 8.02734 15.9844 10.8281 15.9844ZM10.8281 14.7422C8.70703 14.7422 6.90234 12.9258 6.90234 10.8047C6.90234 8.67188 8.69531 6.86719 10.8281 6.86719C12.9609 6.86719 14.7656 8.68359 14.7656 10.8047C14.7656 12.9375 12.9727 14.7422 10.8281 14.7422Z" fill="black" fill-opacity="0.85"/>
</svg>
