<svg width="31" height="22" viewBox="0 0 31 22" fill="none" xmlns="http://www.w3.org/2000/svg">
<path d="M30.3281 11.8738V4.52612C30.3281 2.41675 28.9102 0.987061 26.7891 0.987061L3.51562 0.998779C1.41797 0.998779 0 2.44018 0 4.56128V11.8738C0 14.909 1.30078 16.7723 4.42969 17.698L14.5781 20.6512C17.2969 21.448 19.043 21.1316 21.4688 19.8777L28.0547 16.491C29.918 15.5301 30.3281 14.3816 30.3281 11.8738ZM28.4414 11.8738C28.4414 13.6082 28.1133 14.3699 26.8594 15.0027L20.4609 18.2723C18.4453 19.2918 17.0156 19.5027 14.5781 18.7762L4.98047 15.9285C2.77734 15.284 1.88672 14.0066 1.88672 11.8738V4.59643C1.88672 3.56518 2.54297 2.8855 3.55078 2.8855L26.7656 2.87378C27.7734 2.87378 28.4414 3.54175 28.4414 4.56128V11.8738Z" fill="black" fill-opacity="0.85"/>
</svg>
