<svg width="28" height="29" viewBox="0 0 28 29" fill="none" xmlns="http://www.w3.org/2000/svg">
<path d="M4.64062 6.28125V22.3359C4.64062 25.9805 6.85547 28.6055 10.3359 28.6055C13.8164 28.6055 16.0312 25.9805 16.0312 22.3359V6.28125C16.0312 2.625 13.8164 0 10.3359 0C6.85547 0 4.64062 2.625 4.64062 6.28125ZM6.52734 22.3359V6.28125C6.52734 3.78516 8.01562 1.88672 10.3359 1.88672C12.6562 1.88672 14.1445 3.78516 14.1445 6.28125V22.3359C14.1445 24.832 12.6562 26.7188 10.3359 26.7188C8.01562 26.7188 6.52734 24.832 6.52734 22.3359ZM0 6.28125V22.3359C0 26.1562 2.54297 28.6055 6.51562 28.6055H10.3359V26.7188H6.51562C3.70312 26.7188 1.88672 25.0078 1.88672 22.3359V6.28125C1.88672 3.60938 3.70312 1.88672 6.51562 1.88672H10.3359V0H6.51562C2.54297 0 0 2.44922 0 6.28125Z" fill="#007AFF"/>
<path d="M12.6797 16.0665L16.2188 19.2071C17.8008 20.6485 20.25 19.6524 20.25 17.4376V16.7228H25.1836C26.5195 16.7228 27.5859 15.6446 27.5859 14.3204C27.5859 12.9728 26.5195 11.9063 25.1836 11.9063H20.25V11.1681C20.25 9.00006 17.8359 7.93365 16.2305 9.38678L12.6797 12.5392C11.5781 13.5235 11.5781 15.0704 12.6797 16.0665Z" fill="white"/>
<path d="M13.4878 15.1759L17.0386 18.3165C17.8472 19.0431 19.0425 18.5978 19.0425 17.4376V15.504H25.1831C25.8511 15.504 26.3784 14.9767 26.3784 14.3204C26.3784 13.6407 25.8511 13.1134 25.1831 13.1134H19.0425V11.1681C19.0425 10.0431 17.8823 9.55083 17.0386 10.2774L13.4878 13.4298C12.9136 13.922 12.9018 14.672 13.4878 15.1759Z" fill="black" fill-opacity="0.85"/>
</svg>
