<svg width="24" height="24" viewBox="0 0 24 24" fill="none" xmlns="http://www.w3.org/2000/svg">
<path d="M11.9531 23.9062C18.4922 23.9062 23.9062 18.4805 23.9062 11.9531C23.9062 5.41406 18.4805 0 11.9414 0C5.41406 0 0 5.41406 0 11.9531C0 18.4805 5.42578 23.9062 11.9531 23.9062ZM11.9531 21.9141C6.42188 21.9141 2.00391 17.4844 2.00391 11.9531C2.00391 6.42188 6.41016 1.99219 11.9414 1.99219C17.4727 1.99219 21.9141 6.42188 21.9141 11.9531C21.9141 17.4844 17.4844 21.9141 11.9531 21.9141Z" fill="#007AFF"/>
<path d="M11.9531 17.4492C14.0273 17.4492 15.6797 16.4648 16.2422 14.8828C16.3242 14.6719 16.3477 14.5195 16.3477 14.3438C16.3477 13.8516 16.0312 13.5469 15.5391 13.5469C15.1875 13.5469 14.9531 13.7227 14.7656 14.1211C14.2852 15.2695 13.3008 15.9023 11.9766 15.9023C10.1133 15.9023 8.85938 14.2734 8.85938 11.8477C8.85938 9.42188 10.1133 7.78125 11.9766 7.78125C13.3008 7.78125 14.2852 8.41405 14.7656 9.57421C14.9531 9.97265 15.1875 10.1367 15.5391 10.1367C16.0312 10.1367 16.3477 9.83203 16.3477 9.33984C16.3477 9.15234 16.3242 9.01172 16.2422 8.80078C15.668 7.23047 14.0273 6.23438 11.9531 6.23438C8.91797 6.23438 6.97266 8.42578 6.97266 11.8477C6.97266 15.2695 8.90625 17.4492 11.9531 17.4492Z" fill="black" fill-opacity="0.85"/>
</svg>
