<svg width="25" height="26" viewBox="0 0 25 26" fill="none" xmlns="http://www.w3.org/2000/svg">
<path d="M20.918 4.35938H23.9766C24.4102 4.35938 24.6914 4.07812 24.6914 3.66797V3.11719C24.6914 2.69531 24.4102 2.41406 23.9766 2.41406H20.918V4.35938ZM18.4922 6.77344H19.0898C19.5117 6.77344 19.793 6.49219 19.793 6.07031V0.714844C19.793 0.28125 19.5117 0 19.0898 0H18.4922C18.0703 0 17.7891 0.28125 17.7891 0.714844V6.07031C17.7891 6.49219 18.0703 6.77344 18.4922 6.77344ZM12.0703 6.14062H16.6641V0.632812H12.0703C11.1094 0.632812 10.7227 1.03125 10.7227 1.99219V4.79297C10.7227 5.75391 11.1094 6.14062 12.0703 6.14062ZM0 7.98047C0 11.0391 2.49609 13.5234 5.55469 13.5234H19.1367C21.1641 13.5234 22.8047 15.1641 22.8047 17.1914C22.8047 19.207 21.1523 20.8359 19.1367 20.8359H15.1055V22.7227H19.1367C22.1953 22.7227 24.6914 20.25 24.6914 17.1914C24.6914 14.1328 22.1953 11.6367 19.1367 11.6367H5.55469C3.52734 11.6367 1.88672 10.0078 1.88672 7.98047C1.88672 5.96484 3.53906 4.32422 5.55469 4.32422H9.58594V2.4375H5.55469C2.49609 2.4375 0 4.92188 0 7.98047ZM3.77344 22.7461V20.8008H0.714844C0.28125 20.8008 0 21.082 0 21.5039V22.0547C0 22.4648 0.28125 22.7461 0.714844 22.7461H3.77344ZM6.19922 25.1719C6.62109 25.1719 6.90234 24.8906 6.90234 24.457V19.1016C6.90234 18.6797 6.62109 18.3984 6.19922 18.3984H5.60156C5.17969 18.3984 4.89844 18.6797 4.89844 19.1016V24.457C4.89844 24.8906 5.17969 25.1719 5.60156 25.1719H6.19922ZM12.6211 24.5391C13.582 24.5391 13.9688 24.1406 13.9688 23.1797V20.3789C13.9688 19.418 13.582 19.0312 12.6211 19.0312H8.02734V24.5391H12.6211Z" fill="black" fill-opacity="0.85"/>
</svg>
