<svg width="24" height="24" viewBox="0 0 24 24" fill="none" xmlns="http://www.w3.org/2000/svg">
<path d="M11.9531 23.918C18.4922 23.918 23.9062 18.5039 23.9062 11.9648C23.9062 5.4375 18.4805 0.0117188 11.9414 0.0117188C5.41406 0.0117188 0 5.4375 0 11.9648C0 18.5039 5.42578 23.918 11.9531 23.918Z" fill="#FFCC00"/>
<path d="M7.53516 17.9414C6.17578 17.9414 5.49609 17.2734 5.49609 15.9258V8.00391C5.49609 6.66797 6.17578 5.98828 7.53516 5.98828H16.3711C17.7305 5.98828 18.4102 6.66797 18.4102 8.00391V15.9258C18.4102 17.2734 17.7305 17.9414 16.3711 17.9414H7.53516ZM7.44141 16.8281H16.4531C17.0156 16.8281 17.2969 16.5586 17.2969 15.9844V9.86719C17.2969 9.26953 16.9688 8.96484 16.4062 8.96484H7.5C6.92578 8.96484 6.60938 9.26953 6.60938 9.86719V15.9844C6.60938 16.5586 6.90234 16.8281 7.44141 16.8281ZM10.6523 11.3906C10.3711 11.3906 10.2891 11.3086 10.2891 11.0508V10.582C10.2891 10.3125 10.3711 10.2188 10.6523 10.2188H11.0977C11.3789 10.2188 11.4727 10.3125 11.4727 10.582V11.0508C11.4727 11.3086 11.3789 11.3906 11.0977 11.3906H10.6523ZM12.8086 11.3906C12.5273 11.3906 12.4453 11.3086 12.4453 11.0508V10.582C12.4453 10.3125 12.5273 10.2188 12.8086 10.2188H13.2539C13.5352 10.2188 13.6172 10.3125 13.6172 10.582V11.0508C13.6172 11.3086 13.5352 11.3906 13.2539 11.3906H12.8086ZM14.9648 11.3906C14.6719 11.3906 14.5898 11.3086 14.5898 11.0508V10.582C14.5898 10.3125 14.6719 10.2188 14.9648 10.2188H15.3984C15.6797 10.2188 15.7734 10.3125 15.7734 10.582V11.0508C15.7734 11.3086 15.6797 11.3906 15.3984 11.3906H14.9648ZM8.50781 13.5C8.22656 13.5 8.13281 13.4297 8.13281 13.1602V12.7031C8.13281 12.4219 8.22656 12.3398 8.50781 12.3398H8.95312C9.23438 12.3398 9.31641 12.4219 9.31641 12.7031V13.1602C9.31641 13.4297 9.23438 13.5 8.95312 13.5H8.50781ZM10.6523 13.5C10.3711 13.5 10.2891 13.4297 10.2891 13.1602V12.7031C10.2891 12.4219 10.3711 12.3398 10.6523 12.3398H11.0977C11.3789 12.3398 11.4727 12.4219 11.4727 12.7031V13.1602C11.4727 13.4297 11.3789 13.5 11.0977 13.5H10.6523ZM12.8086 13.5C12.5273 13.5 12.4453 13.4297 12.4453 13.1602V12.7031C12.4453 12.4219 12.5273 12.3398 12.8086 12.3398H13.2539C13.5352 12.3398 13.6172 12.4219 13.6172 12.7031V13.1602C13.6172 13.4297 13.5352 13.5 13.2539 13.5H12.8086ZM14.9648 13.5C14.6719 13.5 14.5898 13.4297 14.5898 13.1602V12.7031C14.5898 12.4219 14.6719 12.3398 14.9648 12.3398H15.3984C15.6797 12.3398 15.7734 12.4219 15.7734 12.7031V13.1602C15.7734 13.4297 15.6797 13.5 15.3984 13.5H14.9648ZM8.50781 15.6211C8.22656 15.6211 8.13281 15.5391 8.13281 15.2578V14.8008C8.13281 14.5312 8.22656 14.4609 8.50781 14.4609H8.95312C9.23438 14.4609 9.31641 14.5312 9.31641 14.8008V15.2578C9.31641 15.5391 9.23438 15.6211 8.95312 15.6211H8.50781ZM10.6523 15.6211C10.3711 15.6211 10.2891 15.5391 10.2891 15.2578V14.8008C10.2891 14.5312 10.3711 14.4609 10.6523 14.4609H11.0977C11.3789 14.4609 11.4727 14.5312 11.4727 14.8008V15.2578C11.4727 15.5391 11.3789 15.6211 11.0977 15.6211H10.6523ZM12.8086 15.6211C12.5273 15.6211 12.4453 15.5391 12.4453 15.2578V14.8008C12.4453 14.5312 12.5273 14.4609 12.8086 14.4609H13.2539C13.5352 14.4609 13.6172 14.5312 13.6172 14.8008V15.2578C13.6172 15.5391 13.5352 15.6211 13.2539 15.6211H12.8086Z" fill="black" fill-opacity="0.85"/>
</svg>
