<svg width="24" height="24" viewBox="0 0 24 24" fill="none" xmlns="http://www.w3.org/2000/svg">
<path d="M11.9531 17.8711C15.2227 17.8711 17.8711 15.2227 17.8711 11.9531C17.8711 8.68359 15.2227 6.03516 11.9531 6.03516C8.68359 6.03516 6.03516 8.68359 6.03516 11.9531C6.03516 15.2227 8.68359 17.8711 11.9531 17.8711ZM11.9531 16.2773C9.55078 16.2773 7.62891 14.3438 7.62891 11.9531C7.62891 9.55078 9.55078 7.62891 11.9531 7.62891C14.3555 7.62891 16.2773 9.55078 16.2773 11.9531C16.2773 14.3438 14.3555 16.2773 11.9531 16.2773ZM10.8164 18.1406L11.6133 16.7461L1.05469 10.6641L0.257812 12.0469L10.8164 18.1406ZM16.8047 15.9961L16.0195 14.6133L5.44922 20.707L6.24609 22.1016L16.8047 15.9961ZM17.8711 9.83203L16.2773 9.82031L16.2891 22.0195H17.8711V9.83203ZM13.0898 5.75391L12.293 7.14844L22.8633 13.2422L23.6484 11.8477L13.0898 5.75391ZM7.10156 7.89844L7.89844 9.29297L18.4688 3.19922L17.6602 1.80469L7.10156 7.89844ZM6.03516 14.0625H7.62891V1.88672H6.03516V14.0625ZM11.9531 23.9062C18.4922 23.9062 23.9062 18.4805 23.9062 11.9531C23.9062 5.41406 18.4805 0 11.9414 0C5.41406 0 0 5.41406 0 11.9531C0 18.4805 5.42578 23.9062 11.9531 23.9062ZM11.9531 21.9141C6.42188 21.9141 2.00391 17.4844 2.00391 11.9531C2.00391 6.42188 6.41016 1.99219 11.9414 1.99219C17.4727 1.99219 21.9141 6.42188 21.9141 11.9531C21.9141 17.4844 17.4844 21.9141 11.9531 21.9141Z" fill="black" fill-opacity="0.85"/>
</svg>
