<svg width="29" height="31" viewBox="0 0 29 31" fill="none" xmlns="http://www.w3.org/2000/svg">
<path d="M3.67969 26.0867H25.1016C27.5391 26.0867 28.7812 24.868 28.7812 22.4539V10.1844C28.7812 7.77026 27.5391 6.56323 25.1016 6.56323H21.75C20.8242 6.56323 20.543 6.37573 20.0156 5.78979L19.0781 4.73511C18.4922 4.09058 17.8945 3.73901 16.6875 3.73901H12.0117C10.8047 3.73901 10.207 4.09058 9.62109 4.73511L8.68359 5.78979C8.15625 6.36401 7.86328 6.56323 6.94922 6.56323H3.67969C1.23047 6.56323 0 7.77026 0 10.1844V22.4539C0 24.868 1.23047 26.0867 3.67969 26.0867ZM14.3906 22.6297C10.8398 22.6297 7.99219 19.7937 7.99219 16.2195C7.99219 12.657 10.8398 9.82104 14.3906 9.82104C17.9414 9.82104 20.7773 12.657 20.7773 16.2195C20.7773 19.7937 17.9297 22.6297 14.3906 22.6297ZM14.3906 20.8484C16.9453 20.8484 19.0078 18.7976 19.0078 16.2195C19.0078 13.6531 16.9453 11.5906 14.3906 11.5906C11.8359 11.5906 9.76172 13.6531 9.76172 16.2195C9.76172 18.7976 11.8477 20.8484 14.3906 20.8484ZM21.5625 11.907C21.5625 11.1101 22.2539 10.407 23.0859 10.407C23.8828 10.407 24.5859 11.1101 24.5859 11.907C24.5859 12.7391 23.8828 13.407 23.0859 13.4187C22.2539 13.4187 21.5625 12.7508 21.5625 11.907Z" fill="#007AFF"/>
<path d="M1.57018 1.66473L4.86315 4.48895C5.07409 4.66473 5.29675 4.80536 5.54284 4.80536C5.80065 4.80536 6.02331 4.66473 6.23425 4.48895L9.52721 1.66473C10.4999 0.844422 9.35143 -0.655578 8.27331 0.317079L5.54284 2.81317L2.82409 0.317079C1.73425 -0.655578 0.59753 0.844422 1.57018 1.66473Z" fill="black" fill-opacity="0.85"/>
</svg>
