<svg width="23" height="23" viewBox="0 0 23 23" fill="none" xmlns="http://www.w3.org/2000/svg">
<path d="M0.9375 7.47656C1.55859 7.47656 1.88672 7.125 1.88672 6.51562V3.75C1.88672 2.53125 2.53125 1.91016 3.70312 1.91016H6.53906C7.16016 1.91016 7.5 1.57031 7.5 0.960938C7.5 0.351562 7.16016 0.0234375 6.53906 0.0234375H3.67969C1.23047 0.0234375 0 1.23047 0 3.64453V6.51562C0 7.125 0.339844 7.47656 0.9375 7.47656ZM21.9961 7.47656C22.6172 7.47656 22.9453 7.125 22.9453 6.51562V3.64453C22.9453 1.23047 21.7148 0.0234375 19.2656 0.0234375H16.3945C15.7852 0.0234375 15.4453 0.351562 15.4453 0.960938C15.4453 1.57031 15.7852 1.91016 16.3945 1.91016H19.2305C20.3906 1.91016 21.0586 2.53125 21.0586 3.75V6.51562C21.0586 7.125 21.3984 7.47656 21.9961 7.47656ZM3.67969 22.957H6.53906C7.16016 22.957 7.5 22.6172 7.5 22.0195C7.5 21.4102 7.16016 21.0703 6.53906 21.0703H3.70312C2.53125 21.0703 1.88672 20.4492 1.88672 19.2305V16.4648C1.88672 15.8438 1.54688 15.5039 0.9375 15.5039C0.328125 15.5039 0 15.8438 0 16.4648V19.3242C0 21.75 1.23047 22.957 3.67969 22.957ZM16.3945 22.957H19.2656C21.7148 22.957 22.9453 21.7383 22.9453 19.3242V16.4648C22.9453 15.8438 22.6055 15.5039 21.9961 15.5039C21.3867 15.5039 21.0586 15.8438 21.0586 16.4648V19.2305C21.0586 20.4492 20.3906 21.0703 19.2305 21.0703H16.3945C15.7852 21.0703 15.4453 21.4102 15.4453 22.0195C15.4453 22.6172 15.7852 22.957 16.3945 22.957Z" fill="#007AFF"/>
<path d="M6.24609 16.7812H16.7109C17.9414 16.7812 18.5742 16.1719 18.5742 14.9531V8.76562C18.5742 7.52344 17.9414 6.91406 16.7109 6.91406H15.1875C14.7305 6.91406 14.5898 6.83203 14.3203 6.52734L13.8398 6C13.5469 5.67188 13.2422 5.50781 12.6445 5.50781H10.2773C9.66797 5.50781 9.36328 5.67188 9.07031 6L8.58984 6.52734C8.32031 6.82031 8.17969 6.91406 7.72266 6.91406H6.24609C5.00391 6.91406 4.38281 7.52344 4.38281 8.76562V14.9531C4.38281 16.1719 5.00391 16.7812 6.24609 16.7812ZM11.4961 15.3164C9.53906 15.3164 7.96875 13.7578 7.96875 11.7891C7.96875 9.84375 9.53906 8.28516 11.4961 8.28516C13.4297 8.28516 14.9883 9.84375 14.9883 11.7891C14.9883 13.793 13.4297 15.3164 11.4961 15.3164ZM11.4844 14.2969C12.8555 14.2969 13.9805 13.1953 13.9805 11.7891C13.9805 10.4062 12.8555 9.29297 11.4844 9.29297C10.1016 9.29297 8.97656 10.4062 8.97656 11.7891C8.97656 13.1953 10.1016 14.2969 11.4844 14.2969ZM16.1602 10.1133C15.7266 10.1133 15.375 9.76172 15.375 9.31641C15.375 8.87109 15.7266 8.51953 16.1602 8.51953C16.5938 8.51953 16.957 8.87109 16.957 9.31641C16.957 9.76172 16.5938 10.1133 16.1602 10.1133Z" fill="black" fill-opacity="0.85"/>
</svg>
