<svg width="28" height="22" viewBox="0 0 28 22" fill="none" xmlns="http://www.w3.org/2000/svg">
<path d="M3.67969 21.5742H13.0312V19.6875H3.70312C2.53125 19.6875 1.88672 19.0664 1.88672 17.8477V11.5898H0V17.9531C0 20.3672 1.23047 21.5742 3.67969 21.5742ZM14.6367 21.5742H23.9531C26.4141 21.5742 27.6328 20.3672 27.6328 17.9531V11.5898H25.7461V17.8477C25.7461 19.0664 25.0898 19.6875 23.9297 19.6875H14.6367V21.5742ZM25.7461 9.99609H27.6328V3.63281C27.6328 1.21875 26.4141 0 23.9531 0H14.6367V1.88672H23.9297C25.0898 1.88672 25.7461 2.51953 25.7461 3.73828V9.99609ZM0 9.99609H1.88672V3.73828C1.88672 2.51953 2.53125 1.88672 3.70312 1.88672H13.0312V0H3.67969C1.23047 0 0 1.21875 0 3.63281V9.99609Z" fill="#007AFF"/>
<path d="M13.8633 17.3203C17.4258 17.3203 20.3672 14.3672 20.3672 10.7695C20.3672 7.20703 17.4141 4.27734 13.8633 4.27734C10.2656 4.27734 7.3125 7.20703 7.3125 10.7695C7.3125 14.3789 10.2539 17.3203 13.8633 17.3203ZM13.8633 15.8086C11.0859 15.8086 8.82422 13.5352 8.82422 10.7695C8.82422 8.03906 11.0977 5.78906 13.8633 5.78906C16.5938 5.78906 18.8555 8.03906 18.8555 10.7695C18.8555 13.5352 16.6055 15.8086 13.8633 15.8086Z" fill="black" fill-opacity="0.85"/>
<path d="M13.8516 14.1328C15.668 14.1328 17.1797 12.6328 17.1797 10.7812C17.1797 8.96484 15.668 7.46484 13.8516 7.46484C12.0117 7.46484 10.5 8.96484 10.5 10.7812C10.5 12.6328 12.0117 14.1328 13.8516 14.1328Z" fill="black" fill-opacity="0.85"/>
</svg>
