<svg width="25" height="25" viewBox="0 0 25 25" fill="none" xmlns="http://www.w3.org/2000/svg">
<path d="M8.16797 17.4023H16.4648C17.8125 17.4023 18.4453 16.7695 18.4453 15.4219V12.8203H22.8867C23.8594 12.8203 24.6328 12.2461 24.6328 11.3438C24.6328 10.793 24.3516 10.3594 23.8242 9.90234L13.7695 1.03125C13.2773 0.609375 12.8438 0.328125 12.3164 0.328125C11.7891 0.328125 11.3555 0.609375 10.8633 1.03125L0.808594 9.91406C0.257812 10.3945 0 10.793 0 11.3438C0 12.2461 0.773438 12.8203 1.74609 12.8203H6.1875V15.4219C6.1875 16.7695 6.82031 17.4023 8.16797 17.4023ZM8.05078 24.8555H16.582C17.7539 24.8555 18.4453 24.1641 18.4453 23.0039V21.1992C18.4453 20.0391 17.7539 19.3477 16.582 19.3477H8.05078C6.87891 19.3477 6.1875 20.0391 6.1875 21.1992V23.0039C6.1875 24.1641 6.87891 24.8555 8.05078 24.8555Z" fill="black" fill-opacity="0.85"/>
</svg>
