<svg width="38" height="24" viewBox="0 0 38 24" fill="none" xmlns="http://www.w3.org/2000/svg">
<path d="M0 14.3319C0 14.9647 0.515625 15.2343 1.06641 14.8944L5.22656 12.3632C5.75391 12.0351 5.74219 11.414 5.22656 11.0858L1.05469 8.53113C0.503906 8.19129 0 8.48426 0 9.10535V14.3319ZM37.957 14.3319V9.10535C37.957 8.48426 37.4531 8.203 36.8906 8.53113L32.7305 11.0858C32.2148 11.4257 32.2031 12.0233 32.7305 12.3632L36.8906 14.8944C37.4531 15.2226 37.957 14.9647 37.957 14.3319Z" fill="black" fill-opacity="0.85"/>
<path d="M7.86328 6.25781H8.48438C8.8828 6.25781 9.17578 5.96484 9.17578 5.56641V0.703125C9.17578 0.304688 8.8828 0.0117188 8.48438 0.0117188H7.86328C7.46484 0.0117188 7.17188 0.304688 7.17188 0.703125V5.56641C7.17188 5.96484 7.46484 6.25781 7.86328 6.25781ZM7.86328 14.8477H8.48438C8.8828 14.8477 9.17578 14.5547 9.17578 14.1562V9.30469C9.17578 8.90625 8.8828 8.61328 8.48438 8.61328H7.86328C7.46484 8.61328 7.17188 8.90625 7.17188 9.30469V14.1562C7.17188 14.5547 7.46484 14.8477 7.86328 14.8477ZM7.86328 23.4492H8.48438C8.8828 23.4492 9.17578 23.1562 9.17578 22.7695V17.8945C9.17578 17.4961 8.8828 17.2031 8.48438 17.2031H7.86328C7.46484 17.2031 7.17188 17.4961 7.17188 17.8945V22.7695C7.17188 23.1562 7.46484 23.4492 7.86328 23.4492ZM29.4609 6.25781H30.0938C30.4922 6.25781 30.7852 5.96484 30.7852 5.56641V0.703125C30.7852 0.304688 30.4922 0.0117188 30.0938 0.0117188H29.4609C29.0742 0.0117188 28.7812 0.304688 28.7812 0.703125V5.56641C28.7812 5.96484 29.0742 6.25781 29.4609 6.25781ZM29.4609 14.8477H30.0938C30.4922 14.8477 30.7852 14.5547 30.7852 14.1562V9.30469C30.7852 8.90625 30.4922 8.61328 30.0938 8.61328H29.4609C29.0742 8.61328 28.7812 8.90625 28.7812 9.30469V14.1562C28.7812 14.5547 29.0742 14.8477 29.4609 14.8477ZM29.4609 23.4492H30.0938C30.4922 23.4492 30.7852 23.1562 30.7852 22.7695V17.8945C30.7852 17.4961 30.4922 17.2031 30.0938 17.2031H29.4609C29.0742 17.2031 28.7812 17.4961 28.7812 17.8945V22.7695C28.7812 23.1562 29.0742 23.4492 29.4609 23.4492ZM18.9609 22.3477C23.1094 22.3477 24.9727 21.4102 24.9727 19.0195V9.58594H25.4414C25.9688 9.58594 26.3906 9.17578 26.3789 8.67188L26.3672 8.26172C26.3438 7.74609 25.9688 7.34766 25.4297 7.34766H24.9727V5.00391C24.9727 2.54297 22.7109 1.08984 18.9727 1.10156C15.2578 1.10156 12.9844 2.53125 12.9844 5.00391V7.34766H12.5273C11.9883 7.34766 11.6016 7.74609 11.5898 8.25L11.5781 8.67188C11.5664 9.17578 11.9883 9.58594 12.5156 9.58594H12.9844V19.0195C12.9844 21.4102 14.8359 22.3477 18.9609 22.3477ZM18.9727 20.6953C15.8789 20.6836 14.6719 20.2031 14.6719 18.9727V5.01562C14.6719 3.58594 16.1602 2.77734 18.9609 2.77734C21.7969 2.77734 23.2969 3.58594 23.2969 5.00391V18.9727C23.2969 20.2031 22.0781 20.6836 18.9727 20.6953ZM18.9727 10.0312C19.7109 10.043 20.9531 10.1016 21.3516 10.1133C21.9844 10.1133 22.3008 9.84375 22.3594 9.16406L22.4883 7.64062C22.5938 6.41016 21.7852 5.94141 18.9844 5.92969C16.1836 5.92969 15.3516 6.41016 15.4688 7.65234L15.6094 9.15234C15.668 9.84375 15.9492 10.1133 16.6055 10.1016C17.0156 10.1133 18.1992 10.043 18.9727 10.0312ZM18.9727 18.7383C21.7617 18.7266 22.6523 18.3164 22.4531 17.0391L22.3477 16.3008C22.1953 15.2695 21.3867 14.9531 18.9844 14.9648C16.5703 14.9531 15.7617 15.2812 15.6094 16.3008L15.5039 17.0273C15.293 18.3281 16.1953 18.7266 18.9727 18.7383Z" fill="#007AFF"/>
</svg>
