<svg width="28" height="22" viewBox="0 0 28 22" fill="none" xmlns="http://www.w3.org/2000/svg">
<path d="M0 15.8672C0 17.4023 0.878906 18.4922 2.50781 18.4922H25.2305C26.8477 18.4922 27.7266 17.4023 27.7266 15.8672V12.3633C27.7266 10.3945 27.457 9.21094 26.25 7.88672L25.0664 6.60938L23.8359 3.08203C23.168 1.16016 21.8672 0.351562 20.25 0.164062C19.4648 0.0703125 16.8984 0 13.8633 0C10.8398 0 8.27344 0.0703125 7.48828 0.164062C5.85938 0.351562 4.55859 1.16016 3.89062 3.08203L2.66016 6.60938L1.48828 7.88672C0.269531 9.21094 0 10.3945 0 12.3633V15.8672ZM1.53516 15.3984V12.3633C1.53516 10.7695 1.72266 9.9375 2.70703 8.82422L4.08984 7.25391L5.27344 3.77344C5.75391 2.35547 6.57422 1.86328 7.66406 1.73438C8.41406 1.64062 10.793 1.53516 13.8633 1.53516C16.9453 1.53516 19.3125 1.64062 20.0625 1.73438C21.1523 1.86328 21.9727 2.35547 22.4531 3.77344L23.6367 7.25391L25.0312 8.82422C26.0039 9.9375 26.1914 10.7695 26.1914 12.3633V15.3984C26.1914 16.3242 25.8164 16.957 24.8086 16.957H2.91797C1.92188 16.957 1.53516 16.3242 1.53516 15.3984ZM6.33984 7.05469H21.3867C21.9141 7.05469 22.1016 6.66797 21.9258 6.17578L21.2344 4.125C20.9766 3.36328 20.5781 3.10547 19.8984 3.01172C19.1367 2.90625 17.0156 2.82422 13.8633 2.82422C10.7109 2.82422 8.60156 2.90625 7.82812 3.01172C7.16016 3.10547 6.75 3.36328 6.49219 4.125L5.80078 6.17578C5.63672 6.66797 5.8125 7.05469 6.33984 7.05469ZM4.81641 13.8398C5.48438 13.8398 5.97656 13.3477 5.97656 12.668V10.9453C5.97656 10.2656 5.48438 9.78516 4.81641 9.78516C4.13672 9.78516 3.64453 10.2773 3.64453 10.9453V12.668C3.64453 13.3359 4.13672 13.8398 4.81641 13.8398ZM11.3555 13.3125H16.3359C16.8867 13.3125 17.25 12.9492 17.25 12.375V11.2383C17.25 10.6641 16.8867 10.3242 16.3359 10.3242H11.3555C10.8281 10.3242 10.4648 10.6641 10.4648 11.2383V12.375C10.4648 12.9492 10.8281 13.3125 11.3555 13.3125ZM23.0273 13.8398C23.707 13.8398 24.2109 13.3477 24.2109 12.668V10.9453C24.2109 10.2656 23.707 9.78516 23.0273 9.78516C22.3711 9.78516 21.8672 10.2891 21.8672 10.9453V12.668C21.8672 13.3359 22.3711 13.8398 23.0273 13.8398ZM2.15625 21.7383H3.52734C4.40625 21.7383 5.08594 21.0586 5.08594 20.1914V17.8008L0.597656 17.1562V20.1914C0.597656 21.0586 1.27734 21.7383 2.15625 21.7383ZM24.1992 21.7383H25.582C26.4609 21.7383 27.1289 21.0586 27.1289 20.1914V17.1562L22.6523 17.8008V20.1914C22.6523 21.0586 23.3203 21.7383 24.1992 21.7383Z" fill="black" fill-opacity="0.85"/>
</svg>
