<svg width="23" height="29" viewBox="0 0 23 29" fill="none" xmlns="http://www.w3.org/2000/svg">
<g clip-path="url(#clip0_2152_15100)">
<path d="M11.3788 1.94531C13.9101 1.94531 16.1952 2.82422 17.9413 4.39453C18.4335 4.82812 18.9726 4.93359 19.3944 4.57031C19.8397 4.18359 19.8397 3.53906 19.3358 3.08203C17.2265 1.13672 14.414 0.0351562 11.3788 0.0351562C8.34361 0.0351562 5.54283 1.13672 3.42174 3.08203C2.92955 3.53906 2.92955 4.18359 3.36314 4.57031C3.79674 4.93359 4.3358 4.82812 4.81627 4.39453C6.57408 2.82422 8.85924 1.94531 11.3788 1.94531Z" fill="#007AFF"/>
<path d="M11.4028 6.64453C12.6216 6.64453 13.7583 6.99609 14.6255 7.69922C15.1294 8.0625 15.6567 8.22656 16.0786 7.85156C16.5239 7.46484 16.5357 6.76172 15.9966 6.33984C14.731 5.32031 13.1255 4.73438 11.4028 4.73438C9.68016 4.73438 8.07469 5.32031 6.80906 6.33984C6.27 6.76172 6.28172 7.46484 6.72703 7.85156C7.14891 8.22656 7.66453 8.0625 8.18016 7.69922C9.0825 7.01953 10.1841 6.64453 11.4028 6.64453Z" fill="#007AFF"/>
<path d="M11.4258 25.4414C13.8164 25.4414 16.8398 25.3594 18.9844 25.2305V26.8828C18.9844 27.5859 19.5352 28.1367 20.25 28.1367H21.5742C22.2891 28.1367 22.8516 27.5859 22.8516 26.8828V21.293C22.8516 19.6758 22.5234 18.7617 21.6328 17.6133L20.8242 16.582C20.4727 14.8477 19.8398 13.043 19.5117 12.3398C18.9844 11.25 18 10.5938 16.7227 10.4414C16.0898 10.3594 13.9102 10.3008 11.4258 10.3008C8.94141 10.3008 6.76172 10.3594 6.12891 10.4414C4.85156 10.5938 3.85547 11.25 3.33984 12.3398C3.01172 13.043 2.37891 14.8477 2.02734 16.582L1.21875 17.6133C0.328125 18.7617 0 19.6758 0 21.293V26.8828C0 27.5859 0.5625 28.1367 1.27734 28.1367H2.60156C3.31641 28.1367 3.86719 27.5859 3.86719 26.8828V25.2305C6.01172 25.3594 9.03516 25.4414 11.4258 25.4414ZM4.04297 15.7852C4.26562 14.7305 4.73438 13.3594 5.05078 12.8086C5.30859 12.3516 5.58984 12.1641 6.10547 12.082C6.83203 11.9883 8.46094 11.9297 11.4258 11.9297C14.3906 11.9297 16.0195 11.9648 16.7461 12.082C17.2617 12.1641 17.5312 12.3516 17.8008 12.8086C18.1289 13.3477 18.5508 14.7305 18.8086 15.7852C18.9023 16.1367 18.75 16.2773 18.3867 16.2422C16.793 16.1367 14.8945 16.043 11.4258 16.043C7.95703 16.043 6.05859 16.1367 4.46484 16.2422C4.10156 16.2773 3.96094 16.1367 4.04297 15.7852ZM4.51172 22.8633C3.64453 22.8633 2.96484 22.1836 2.96484 21.3164C2.96484 20.4375 3.64453 19.7812 4.51172 19.7812C5.39062 19.7812 6.04688 20.4375 6.04688 21.3164C6.04688 22.1836 5.39062 22.8633 4.51172 22.8633ZM8.89453 22.4766C8.23828 22.4766 7.78125 22.0195 7.78125 21.3633C7.78125 20.707 8.23828 20.2617 8.89453 20.2617H13.957C14.6133 20.2617 15.0703 20.707 15.0703 21.3633C15.0703 22.0195 14.6133 22.4766 13.957 22.4766H8.89453ZM18.3398 22.8633C17.4609 22.8633 16.8047 22.1836 16.8047 21.3164C16.8047 20.4375 17.4609 19.7812 18.3398 19.7812C19.207 19.7812 19.875 20.4375 19.875 21.3164C19.875 22.1836 19.207 22.8633 18.3398 22.8633Z" fill="black" fill-opacity="0.85"/>
</g>
<defs>
<clipPath id="clip0_2152_15100">
<rect width="22.8516" height="28.1367" fill="white"/>
</clipPath>
</defs>
</svg>
