<svg width="23" height="31" viewBox="0 0 23 31" fill="none" xmlns="http://www.w3.org/2000/svg">
<path d="M19.9688 27.4336C21.7852 25.6406 22.7461 23.3438 22.8984 20.8594C22.9453 20.2148 22.5 19.8867 22.043 19.8867C21.457 19.8867 21.1523 20.1797 21.0938 20.9297C20.9766 22.8633 20.1797 24.7266 18.7266 26.1914C17.2617 27.6445 15.3867 28.4414 13.4648 28.5586C12.7969 28.6055 12.3984 28.9336 12.3984 29.4375C12.3984 29.9883 12.8086 30.375 13.4062 30.375C15.8906 30.375 18.1758 29.2383 19.9688 27.4336Z" fill="#007AFF"/>
<path d="M17.0625 24.5156C18.082 23.4961 18.6914 22.2305 18.8438 20.8008C18.9258 20.168 18.5156 19.7695 18 19.7695C17.4258 19.7695 17.168 20.0391 17.0625 20.6953C16.9336 21.6914 16.5234 22.5586 15.8203 23.2734C15.082 24 14.2383 24.4219 13.3359 24.5156C12.6094 24.6211 12.2812 24.9961 12.2812 25.4648C12.2812 25.9688 12.6562 26.3203 13.207 26.3203C14.2148 26.3203 15.8555 25.7227 17.0625 24.5156Z" fill="#007AFF"/>
<path d="M8.03906 23.0742C12.5508 23.0742 14.5664 22.0547 14.5664 19.4648V4.25391C14.5664 1.58203 12.1055 0 8.03906 0C3.99609 0 1.53516 1.58203 1.53516 4.25391V19.4648C1.53516 22.0547 3.53906 23.0742 8.03906 23.0742ZM8.05078 9.64453C7.18359 9.64453 5.87109 9.71484 5.40234 9.71484C4.6875 9.71484 4.35938 9.41016 4.28906 8.64844L4.13672 6.96094C4.00781 5.56641 4.93359 5.03906 8.05078 5.03906C11.168 5.03906 12.082 5.56641 11.9648 6.96094L11.8242 8.64844C11.7656 9.41016 11.4258 9.71484 10.6992 9.71484C10.2422 9.71484 8.87109 9.64453 8.05078 9.64453ZM8.05078 19.3359C4.93359 19.3359 3.92578 18.8789 4.17188 17.4375L4.30078 16.6172C4.48828 15.4688 5.36719 15.1055 8.05078 15.1055C10.7344 15.1055 11.6367 15.4688 11.8125 16.6172L11.9297 17.4375C12.1523 18.8789 11.168 19.3359 8.05078 19.3359ZM2.53125 9.23438V6.79688H1.03125C0.445312 6.79688 0 7.23047 0 7.79297V8.23828C0 8.78906 0.445312 9.23438 1.03125 9.23438H2.53125ZM13.5703 9.23438H15.0703C15.6562 9.23438 16.1016 8.78906 16.1016 8.23828V7.79297C16.1016 7.23047 15.6562 6.79688 15.0703 6.79688H13.5703V9.23438Z" fill="black" fill-opacity="0.85"/>
</svg>
