<svg width="28" height="31" viewBox="0 0 28 31" fill="none" xmlns="http://www.w3.org/2000/svg">
<path d="M13.5703 30.2578C19.4883 30.2578 22.0078 28.957 22.0078 25.7695V5.42578C22.0078 2.00391 18.9023 0 13.5703 0C8.25 0 5.13281 2.00391 5.13281 5.42578V25.7695C5.13281 28.957 7.66406 30.2578 13.5703 30.2578ZM13.5703 12.4805C12.4219 12.4805 10.6641 12.5625 10.0547 12.5625C9.14062 12.5625 8.75391 12.2109 8.66016 11.2734L8.47266 9C8.30859 7.25391 9.53906 6.55078 13.5703 6.55078C17.6133 6.55078 18.8438 7.25391 18.6797 9L18.4805 11.2734C18.3984 12.2109 18 12.5625 17.0977 12.5625C16.4766 12.5625 14.6602 12.4805 13.5703 12.4805ZM13.5703 25.3828C9.50391 25.3828 8.26172 24.7734 8.51953 22.9922L8.67188 21.8906C8.87109 20.4492 10.0781 19.957 13.5703 19.957C17.0742 19.957 18.2812 20.4492 18.4805 21.8906L18.6328 22.9922C18.8906 24.7734 17.6484 25.3828 13.5703 25.3828ZM6.01172 8.16797L0.28125 13.8633C-0.09375 14.25 -0.09375 14.8711 0.28125 15.2578C0.667969 15.6328 1.28906 15.6445 1.67578 15.2578L6.01172 10.9219V8.16797ZM21.1289 8.16797V10.9219L25.4648 15.2578C25.8633 15.6445 26.4727 15.6328 26.8594 15.2578C27.2344 14.8711 27.2344 14.25 26.8594 13.8633L21.1289 8.16797ZM6.01172 17.0273L0.28125 22.7227C-0.09375 23.0977 -0.09375 23.7305 0.28125 24.1172C0.667969 24.4922 1.28906 24.5039 1.67578 24.1172L6.01172 19.7812V17.0273Z" fill="black" fill-opacity="0.85"/>
</svg>
