<svg width="24" height="26" viewBox="0 0 24 26" fill="none" xmlns="http://www.w3.org/2000/svg">
<path d="M4.20974 13.1602C4.20974 13.7344 4.65505 14.168 5.24099 14.168H6.13161C6.70583 14.168 7.13943 13.7344 7.13943 13.1602V12.0586H19.3738V13.1602C19.3738 13.7344 19.8074 14.168 20.3816 14.168H21.2722C21.8582 14.168 22.2918 13.7344 22.2918 13.1602V8.05078C22.2918 6.77344 22.1394 5.98828 21.3308 5.13281L20.5574 4.30078L19.7605 2.00391C19.3269 0.75 18.4715 0.234375 17.4168 0.105469C16.9011 0.0351562 15.2371 0 13.2566 0C11.2761 0 9.60036 0.0351562 9.09646 0.105469C8.04177 0.234375 7.17458 0.75 6.75271 2.00391L5.95583 4.30078L5.1824 5.13281C4.3738 5.98828 4.20974 6.77344 4.20974 8.05078V13.1602ZM8.05349 4.35938C7.69021 4.35938 7.5613 4.07812 7.67849 3.73828L8.14724 2.30859C8.32302 1.79297 8.60427 1.61719 9.0613 1.54688C9.58865 1.48828 11.0652 1.42969 13.2566 1.42969C15.448 1.42969 16.9129 1.48828 17.4402 1.54688C17.8972 1.61719 18.1785 1.79297 18.3543 2.30859L18.8347 3.73828C18.9519 4.07812 18.823 4.35938 18.4597 4.35938H8.05349ZM6.98708 9.11719C6.50661 9.11719 6.15505 8.77734 6.15505 8.29688V7.10156C6.15505 6.64453 6.50661 6.30469 6.98708 6.30469C7.45583 6.30469 7.79568 6.63281 7.79568 7.10156V8.29688C7.79568 8.77734 7.45583 9.11719 6.98708 9.11719ZM11.5105 8.75391C11.1355 8.75391 10.9011 8.49609 10.9011 8.08594V7.32422C10.9011 6.92578 11.1355 6.67969 11.5105 6.67969H14.9676C15.3426 6.67969 15.6004 6.92578 15.6004 7.32422V8.08594C15.6004 8.49609 15.3426 8.75391 14.9676 8.75391H11.5105ZM19.5965 9.11719C19.1394 9.11719 18.7879 8.77734 18.7879 8.29688V7.10156C18.7879 6.65625 19.1394 6.30469 19.5965 6.30469C20.0769 6.30469 20.4168 6.63281 20.4168 7.10156V8.29688C20.4168 8.77734 20.0769 9.11719 19.5965 9.11719ZM10.2097 16.1953L9.31911 15.5273C8.99099 15.293 8.61599 15.1758 8.21755 15.1758H6.31911C5.85036 15.1758 5.67458 15.7383 6.04958 16.0078L7.84255 17.3203C8.40505 17.7305 8.33474 18.2695 7.67849 18.5625L1.85427 21.082C-0.395729 22.043 -0.606667 23.5195 1.26833 24.9023L2.15896 25.5586C2.48708 25.8047 2.86208 25.9219 3.27224 25.9219H5.15896C5.63943 25.9219 5.80349 25.3594 5.44021 25.0898L3.64724 23.7656C3.08474 23.3672 3.15505 22.8164 3.79958 22.5352L9.63552 20.0039C11.8738 19.043 12.0847 17.5781 10.2097 16.1953ZM22.4793 16.2188L21.5886 15.5508C21.2605 15.3047 20.8855 15.1992 20.4871 15.1992H18.5886C18.1199 15.1992 17.9441 15.75 18.3191 16.0312L20.1121 17.3438C20.6629 17.7422 20.5926 18.293 19.948 18.5742L14.1121 21.1055C11.8738 22.0664 11.6629 23.5312 13.5379 24.9141L14.4285 25.5703C14.7566 25.8164 15.1316 25.9336 15.5301 25.9336H17.4285C17.8972 25.9336 18.073 25.3711 17.698 25.1016L15.9051 23.7891C15.3543 23.3789 15.4246 22.8398 16.0691 22.5469L21.9051 20.0273C24.1433 19.0664 24.3543 17.5898 22.4793 16.2188Z" fill="black" fill-opacity="0.85"/>
</svg>
