<svg width="23" height="31" viewBox="0 0 23 31" fill="none" xmlns="http://www.w3.org/2000/svg">
<path d="M8.4375 30.2578C14.3555 30.2578 16.875 28.957 16.875 25.7695V5.42578C16.875 2.00391 13.7695 0 8.4375 0C3.11719 0 0 2.00391 0 5.42578V25.7695C0 28.957 2.53125 30.2578 8.4375 30.2578ZM8.44922 12.4805C7.30078 12.4805 5.54297 12.5625 4.92188 12.5625C4.01953 12.5625 3.62109 12.2109 3.52734 11.2734L3.33984 9C3.17578 7.25391 4.40625 6.55078 8.44922 6.55078C12.4805 6.55078 13.7109 7.25391 13.5469 9L13.3594 11.2734C13.2656 12.2109 12.8789 12.5625 11.9648 12.5625C11.3555 12.5625 9.52734 12.4805 8.44922 12.4805ZM8.44922 25.3828C4.37109 25.3828 3.12891 24.7734 3.38672 22.9922L3.53906 21.8906C3.73828 20.4492 4.94531 19.957 8.44922 19.957C11.9414 19.957 13.1484 20.4492 13.3477 21.8906L13.5 22.9922C13.7578 24.7734 12.5156 25.3828 8.44922 25.3828ZM15.9961 8.16797V10.9219L20.3438 15.2578C20.7305 15.6445 21.3398 15.6328 21.7266 15.2578C22.1016 14.8711 22.1016 14.25 21.7266 13.8633L15.9961 8.16797Z" fill="black" fill-opacity="0.85"/>
</svg>
