<svg width="39" height="31" viewBox="0 0 39 31" fill="none" xmlns="http://www.w3.org/2000/svg">
<path d="M10.1485 22.3188L11.3906 21.6039C11.2149 21.4047 11.0274 21.1703 10.875 20.9125C9.90237 19.2133 10.4649 17.1039 12.1524 16.1195C13.8633 15.1352 15.9727 15.6977 16.9453 17.4086C17.0977 17.6664 17.2031 17.9242 17.2852 18.2055L27.3516 12.393C27.1641 12.182 26.9883 11.9477 26.836 11.6898C25.8516 9.99061 26.4141 7.89294 28.125 6.89685C29.8125 5.92419 31.9336 6.49841 32.918 8.18591C33.0469 8.45544 33.1641 8.72497 33.2461 8.9945L34.2891 8.38514C35.4375 7.72889 35.707 6.60388 35.0391 5.44372L33.1992 2.2445C32.5781 1.14294 31.6758 0.404664 29.9414 0.791383L28.0313 1.22497C26.2969 0.592164 23.4844 -0.110961 20.2383 1.77575L18.3867 2.84216C15.1289 4.7406 13.9922 5.78357 12.7617 8.12732L10.7344 11.9594L7.48831 14.4086C5.44925 15.9438 4.87503 17.9477 5.97659 19.8344L6.87893 21.4047C7.65237 22.7406 8.8594 23.0805 10.1485 22.3188ZM15.1289 21.2641C16.3242 20.5844 16.6992 19.1078 16.0195 17.9359C15.3399 16.7641 13.8633 16.3656 12.6914 17.0453C11.5195 17.725 11.1211 19.2133 11.8008 20.3852C12.4688 21.557 13.957 21.9438 15.1289 21.2641ZM31.1016 12.0531C32.2617 11.3734 32.6602 9.89686 31.9805 8.72498C31.3008 7.55311 29.8242 7.14294 28.6524 7.82263C27.4922 8.51403 27.082 9.99061 27.75 11.1625C28.4297 12.3344 29.918 12.7211 31.1016 12.0531Z" fill="#007AFF"/>
<path d="M6.9264 29.7601C7.19593 30.2171 7.78187 30.3577 8.21546 30.1233L38.4381 12.6624C38.8717 12.428 39.0475 11.8421 38.778 11.3968C38.5084 10.928 37.9225 10.7874 37.5006 11.0335L7.26624 28.4827C6.83265 28.7288 6.66859 29.3147 6.9264 29.7601ZM5.28577 23.7483L2.82484 19.471C2.40296 18.7562 1.58265 18.9437 1.34827 19.6351L0.0592106 23.2444C-0.116571 23.7483 0.106086 24.1468 0.633429 24.2405L4.39515 24.9319C5.13343 25.0843 5.68421 24.4515 5.28577 23.7483Z" fill="black" fill-opacity="0.85"/>
</svg>
