<svg width="43" height="22" viewBox="0 0 43 22" fill="none" xmlns="http://www.w3.org/2000/svg">
<path d="M3.67969 21.457H21.1523C23.6367 21.457 24.832 20.2852 24.832 17.8359V3.55078C24.832 1.20703 23.625 0.0117188 21.2578 0.0117188H15.5742C13.6641 0.0117188 12.4688 0.421875 10.9219 1.58203L1.81641 8.50781C0.46875 9.52734 0 10.4297 0 12.1055V17.8359C0 20.2852 1.20703 21.457 3.67969 21.457ZM3.75 10.6523C3.12891 10.6523 3 9.98438 3.48047 9.63281L12.2109 2.95312C13.207 2.15625 14.0742 1.89844 15.5742 1.89844H21.2227C22.3125 1.89844 22.9453 2.50781 22.9453 3.64453V8.90625C22.9453 10.0312 22.3008 10.6523 21.2227 10.6523H3.75Z" fill="#007AFF"/>
<path d="M30.0938 17.2383C30.457 17.2383 30.6797 17.1094 31.043 16.7695L35.5899 12.1875L40.125 16.7578C40.4766 17.0977 40.6992 17.2266 41.0625 17.2266C41.5664 17.2266 42.0117 16.793 42.0117 16.3008C42.0117 15.9609 41.8946 15.7383 41.5899 15.4219L36.9845 10.7812L41.5899 6.14062C41.8946 5.82422 42.0117 5.60156 42.0117 5.26172C42.0117 4.76953 41.5781 4.34766 41.0742 4.34766C40.7109 4.34766 40.4883 4.47656 40.125 4.81641L35.5781 9.38672L31.0548 4.81641C30.7032 4.47656 30.4689 4.34766 30.1173 4.34766C29.6017 4.34766 29.168 4.76953 29.168 5.27344C29.168 5.625 29.2852 5.85938 29.5781 6.16406L34.1837 10.7812L29.5781 15.4336C29.2734 15.75 29.1562 15.9727 29.1562 16.3242C29.1562 16.8164 29.5898 17.2383 30.0938 17.2383Z" fill="black" fill-opacity="0.85"/>
</svg>
