<svg width="34" height="28" viewBox="0 0 34 28" fill="none" xmlns="http://www.w3.org/2000/svg">
<path d="M5.97623 10.1235L0.128571 21.6899C-0.176117 22.2876 0.0465394 22.9907 0.948883 22.9907H2.48404C3.18716 22.9907 3.53873 22.6509 3.72623 22.147L8.47232 10.311C8.63638 9.9126 8.44888 9.58447 8.03873 9.58447H6.80826C6.40982 9.58447 6.16373 9.77197 5.97623 10.1235ZM27.7848 10.1235C27.5973 9.77197 27.3512 9.58447 26.9528 9.58447H25.7223C25.3122 9.58447 25.1364 9.9126 25.2887 10.311L30.0348 22.147C30.234 22.6509 30.5739 22.9907 31.277 22.9907H32.8122C33.7262 22.9907 33.9372 22.2876 33.6325 21.6899L27.7848 10.1235Z" fill="#007AFF"/>
<path d="M10.3594 12.2563C10.3594 12.6665 10.6758 12.9829 11.086 12.9829H11.7305C12.1524 12.9829 12.4688 12.6665 12.4688 12.2563V11.4595H21.2813V12.2563C21.2813 12.6665 21.5977 12.9829 22.0079 12.9829H22.6641C23.0743 12.9829 23.3907 12.6665 23.3907 12.2563V8.57666C23.3907 7.65088 23.2618 7.08838 22.6993 6.46729L22.1368 5.86963L21.5626 4.20557C21.2462 3.30322 20.6368 2.92822 19.8751 2.84619C19.5001 2.79932 18.293 2.76416 16.8751 2.76416C15.4454 2.76416 14.2383 2.79932 13.8751 2.84619C13.1133 2.92822 12.504 3.30322 12.1876 4.20557L11.6016 5.86963L11.0508 6.46729C10.4883 7.08838 10.3594 7.65088 10.3594 8.57666V12.2563ZM13.1133 5.90479C12.8555 5.90479 12.7618 5.70557 12.8438 5.45947L13.1837 4.42822C13.3126 4.05322 13.5118 3.92432 13.8516 3.87744C14.2383 3.83057 15.3048 3.78369 16.8751 3.78369C18.4454 3.78369 19.5118 3.83057 19.8868 3.87744C20.2266 3.92432 20.4258 4.05322 20.5548 4.42822L20.9063 5.45947C20.9883 5.70557 20.8946 5.90479 20.6251 5.90479H13.1133ZM12.3516 9.33838C12.0118 9.33838 11.7657 9.09229 11.7657 8.75244V7.89697C11.7657 7.55713 12.0118 7.32275 12.3516 7.32275C12.6915 7.32275 12.9376 7.55713 12.9376 7.89697V8.75244C12.9376 9.104 12.6915 9.33838 12.3516 9.33838ZM15.6212 9.08057C15.3516 9.08057 15.1758 8.89307 15.1758 8.6001V8.04932C15.1758 7.75635 15.3516 7.58057 15.6212 7.58057H18.1055C18.3868 7.58057 18.5626 7.75635 18.5626 8.04932V8.6001C18.5626 8.89307 18.3868 9.08057 18.1055 9.08057H15.6212ZM21.4571 9.33838C21.129 9.33838 20.8712 9.09229 20.8712 8.75244V7.89697C20.8712 7.55713 21.129 7.32275 21.4571 7.32275C21.7969 7.32275 22.043 7.55713 22.043 7.89697V8.75244C22.043 9.104 21.7969 9.33838 21.4571 9.33838Z" fill="black" fill-opacity="0.85"/>
<path d="M18.5033 15.4088L17.9291 17.7994L14.9642 14.7525C14.7298 14.4947 14.39 14.6822 14.5189 15.0338L15.5736 18.1627L14.1908 17.5416C13.8744 17.401 13.64 17.6354 13.8744 17.94L14.6478 18.9479L11.0853 18.4439C10.6751 18.3854 10.5814 18.7955 10.8978 18.983L14.2611 21.0104L12.2337 21.7604C11.8939 21.8893 11.9525 22.276 12.3158 22.2994L14.5658 22.4635L11.5189 24.526C11.2376 24.7135 11.3431 25.1705 11.7533 25.065L15.6087 24.1979L15.6439 27.4557C15.6439 27.7838 15.9603 27.8189 16.1009 27.5846L18.5853 23.5064L22.7455 27.2564C23.0501 27.526 23.4251 27.2447 23.2259 26.8697L20.765 22.2525L23.2728 21.5143C23.4955 21.4439 23.4955 21.1744 23.2962 21.0807L21.058 20.1783L22.6517 15.6432C22.7572 15.3619 22.4642 15.1158 22.2181 15.3619L19.6283 17.8111L19.0072 15.4088C18.9134 15.0807 18.5736 15.0689 18.5033 15.4088Z" fill="black" fill-opacity="0.85"/>
</svg>
