<svg width="23" height="29" viewBox="0 0 23 29" fill="none" xmlns="http://www.w3.org/2000/svg">
<g clip-path="url(#clip0_2152_15107)">
<path d="M11.4141 25.8452C14.6836 25.8452 18.9023 25.6811 20.6836 25.4702C22.0547 25.3178 22.8398 24.5561 22.8398 23.2436V21.4858C22.8398 19.8686 22.5 18.9077 21.6094 17.771L20.8359 16.7866C20.4844 15.0874 19.8633 13.3178 19.5352 12.6264C19.0078 11.5014 17.9648 10.8335 16.6641 10.6694C16.0312 10.5757 13.957 10.5288 11.4141 10.5288C8.87109 10.5288 6.80859 10.5874 6.17578 10.6694C4.875 10.8218 3.83203 11.5014 3.30469 12.6264C2.96484 13.3178 2.35547 15.0874 1.99219 16.7866L1.23047 17.771C0.328125 18.9077 0 19.8686 0 21.4858V23.2436C0 24.5561 0.785156 25.3178 2.15625 25.4702C3.9375 25.6811 8.15625 25.8452 11.4141 25.8452ZM11.4141 24.2514C8.12109 24.2514 4.01953 24.1108 2.51953 23.9233C1.80469 23.8296 1.59375 23.5366 1.59375 22.8686V21.4858C1.59375 20.2319 1.76953 19.6694 2.48438 18.7436L3.46875 17.4546C3.71484 16.1069 4.34766 14.1968 4.73438 13.3413C5.02734 12.7202 5.54297 12.3686 6.35156 12.2749C6.96094 12.2046 8.84766 12.1108 11.4141 12.1108C13.9922 12.1108 15.9258 12.2046 16.4531 12.2749C17.2969 12.3803 17.8125 12.7319 18.1055 13.3413C18.5039 14.1968 19.1133 16.1069 19.3594 17.4546L20.3555 18.7436C21.0703 19.6694 21.2461 20.2319 21.2461 21.4858V22.8686C21.2461 23.5366 21.0352 23.8413 20.3203 23.9233C18.8203 24.0991 14.7188 24.2514 11.4141 24.2514ZM4.59375 16.6225C4.52344 16.9507 4.65234 17.0913 5.01562 17.0561C6.51562 16.9507 8.30859 16.8686 11.4141 16.8686C14.5195 16.8686 16.3242 16.9507 17.8242 17.0561C18.1758 17.0913 18.3164 16.9507 18.2461 16.6225C18.0117 15.6147 17.5898 14.3374 17.2852 13.7983C17.0391 13.3764 16.7695 13.2007 16.2773 13.1303C15.5859 13.0366 14.0508 12.9663 11.4141 12.9663C8.78906 12.9663 7.24219 13.0366 6.55078 13.1303C6.07031 13.2007 5.78906 13.3764 5.55469 13.7983C5.26172 14.3374 4.82812 15.6147 4.59375 16.6225ZM4.52344 23.0327C5.39062 23.0327 6.03516 22.3647 6.03516 21.5093C6.03516 20.6421 5.39062 19.9975 4.52344 19.9975C3.66797 19.9975 3.01172 20.6421 3.01172 21.5093C3.01172 22.3647 3.66797 23.0327 4.52344 23.0327ZM8.82422 22.6577H14.0039C14.6602 22.6577 15.1055 22.2124 15.1055 21.5561C15.1055 20.9233 14.6602 20.478 14.0039 20.478H8.82422C8.17969 20.478 7.73438 20.9233 7.73438 21.5561C7.73438 22.2124 8.17969 22.6577 8.82422 22.6577ZM18.3047 23.0327C19.1719 23.0327 19.8281 22.3647 19.8281 21.5093C19.8281 20.6421 19.1719 19.9975 18.3047 19.9975C17.4492 19.9975 16.8047 20.6421 16.8047 21.5093C16.8047 22.3647 17.4492 23.0327 18.3047 23.0327ZM1.91016 28.3647H3.04688C3.75 28.3647 4.30078 27.8139 4.30078 27.1225V24.8608L0.679688 24.3335V27.1225C0.679688 27.8139 1.21875 28.3647 1.91016 28.3647ZM19.7695 28.3647H20.9062C21.6094 28.3647 22.1367 27.8139 22.1367 27.1225V24.3335L18.5156 24.8608V27.1225C18.5156 27.8139 19.0664 28.3647 19.7695 28.3647Z" fill="black" fill-opacity="0.85"/>
<path d="M11.3671 6.11099C8.84752 6.11099 6.55064 5.23209 4.80455 3.66177C4.32408 3.2399 3.78502 3.12271 3.35142 3.49771C2.91783 3.87271 2.91783 4.52896 3.41002 4.97427C5.51939 6.93131 8.33189 8.02115 11.3671 8.02115C14.4022 8.02115 17.2147 6.93131 19.3241 4.97427C19.828 4.52896 19.828 3.87271 19.3827 3.49771C18.9608 3.12271 18.4101 3.2399 17.9296 3.66177C16.1835 5.23209 13.8983 6.11099 11.3671 6.11099Z" fill="#007AFF"/>
<path d="M11.3911 1.41169C10.1724 1.41169 9.07078 1.03669 8.16844 0.368725C7.65281 0.00544372 7.13719 -0.158618 6.71531 0.216382C6.27 0.6031 6.25828 1.30623 6.79735 1.71638C8.06297 2.73591 9.66844 3.32185 11.3911 3.32185C13.1138 3.32185 14.7193 2.73591 15.9849 1.71638C16.5122 1.30623 16.5005 0.6031 16.0669 0.216382C15.645 -0.158618 15.1177 -0.00627503 14.6138 0.368725C13.7349 1.07185 12.6099 1.41169 11.3911 1.41169Z" fill="#007AFF"/>
</g>
<defs>
<clipPath id="clip0_2152_15107">
<rect width="22.8398" height="28.5929" fill="white"/>
</clipPath>
</defs>
</svg>
