<svg width="42" height="22" viewBox="0 0 42 22" fill="none" xmlns="http://www.w3.org/2000/svg">
<path d="M3.05859 17.6719H6.64453V15.7852H3.16406C2.33203 15.7852 1.88672 15.2695 1.88672 14.3086V12.2227C1.88672 10.4648 3.12891 9.32812 5.39062 9.04688L10.9922 8.34375L16.0781 5.17969C18.668 3.57422 20.2266 3.1875 24.7031 3.1875H27.457C30.6445 3.1875 33.2227 4.51172 35.4375 7.59375L38.3086 8.34375C39.3867 8.61328 39.6797 9.25781 39.6797 10.1602V14.4141C39.6797 15.2695 39.2461 15.7852 38.5078 15.7852H35.6016V17.6719H38.8477C40.5352 17.6719 41.5664 16.6055 41.5664 14.8828V10.1602C41.5664 8.51953 41.0742 7.125 38.8945 6.44531L36.4805 5.70703C34.957 3.89062 32.2969 1.30078 27.457 1.30078H24.7031C19.875 1.30078 17.9531 1.76953 15.0703 3.57422L10.3477 6.53906L5.14453 7.17188C1.91016 7.57031 0 9.43359 0 12.2227V14.543C0 16.5352 1.11328 17.6719 3.05859 17.6719ZM12.1289 17.6719H30.2109V15.7852H12.1289V17.6719ZM9.31641 20.3438C11.5664 20.3438 13.3242 18.5859 13.3242 16.3359C13.3242 14.0859 11.5664 12.3281 9.31641 12.3281C7.06641 12.3281 5.30859 14.0859 5.30859 16.3359C5.30859 18.5859 7.06641 20.3438 9.31641 20.3438ZM9.31641 18.457C8.12109 18.457 7.19531 17.5312 7.19531 16.3359C7.19531 15.1406 8.12109 14.2148 9.31641 14.2148C10.5117 14.2148 11.4375 15.1406 11.4375 16.3359C11.4375 17.5312 10.5117 18.457 9.31641 18.457ZM32.9883 20.3438C35.2383 20.3438 36.9961 18.5859 36.9961 16.3359C36.9961 14.0859 35.2383 12.3281 32.9883 12.3281C30.7383 12.3281 28.9805 14.0859 28.9805 16.3359C28.9805 18.5859 30.7383 20.3438 32.9883 20.3438ZM32.9883 18.457C31.793 18.457 30.8672 17.5312 30.8672 16.3359C30.8672 15.1406 31.793 14.2148 32.9883 14.2148C34.1836 14.2148 35.1094 15.1406 35.1094 16.3359C35.1094 17.5312 34.1836 18.457 32.9883 18.457Z" fill="#007AFF"/>
<path d="M3.45703 4.61719H6.33984C7.25391 4.61719 7.3125 4.66406 7.69922 5.16797L10.8516 9.30469C12.1172 10.9805 13.6406 11.7539 15.7148 11.7539H20.6953C21.9727 11.7539 23.0039 10.7227 23.0039 9.44531C23.0039 8.16797 21.9727 7.13672 20.6953 7.13672H15.7148C15.0586 7.13672 15 7.11328 14.6836 6.71484L11.3555 2.35547C10.0898 0.691406 8.51953 0 6.33984 0H3.45703C2.19141 0 1.14844 1.04297 1.14844 2.30859C1.14844 3.58594 2.19141 4.61719 3.45703 4.61719Z" fill="white"/>
<path d="M3.45703 3.25781H6.33984C7.64062 3.25781 8.13281 3.48047 8.78906 4.33594L11.9414 8.49609C12.9492 9.82031 14.0742 10.3945 15.7148 10.3945H18.2812V11.4023C18.2812 12.2227 19.0078 12.4688 19.6172 12.0703L22.5703 10.1719C23.1328 9.80859 23.1445 9.10547 22.5586 8.73047L19.6289 6.84375C19.0078 6.43359 18.2812 6.67969 18.2812 7.51172V8.50781H15.7148C14.6133 8.50781 14.168 8.26172 13.4414 7.32422L10.2656 3.1875C9.28125 1.88672 8.12109 1.37109 6.33984 1.37109H3.45703C2.94141 1.37109 2.51953 1.79297 2.51953 2.30859C2.51953 2.82422 2.94141 3.25781 3.45703 3.25781Z" fill="black" fill-opacity="0.85"/>
</svg>
