<svg width="22" height="31" viewBox="0 0 22 31" fill="none" xmlns="http://www.w3.org/2000/svg">
<path d="M20.25 24.668C20.8477 24.668 21.2344 24.293 21.2344 23.6836V13.5234C21.2344 12.9141 20.8477 12.5391 20.25 12.5391C19.6523 12.5391 19.2656 12.9141 19.2656 13.5352V23.6719C19.2656 24.293 19.6523 24.668 20.25 24.668ZM20.25 16.4766V14.9414H16.1133V16.4766H20.25ZM8.4375 30.2578C14.3555 30.2578 16.875 28.957 16.875 25.7695V5.42578C16.875 2.00391 13.7695 0 8.4375 0C3.10547 0 0 2.00391 0 5.42578V25.7695C0 28.957 2.51953 30.2578 8.4375 30.2578ZM8.4375 28.3125C3.90234 28.3125 1.95703 27.5508 1.95703 25.6758V5.42578C1.95703 3.23438 4.33594 1.95703 8.4375 1.95703C12.5273 1.95703 14.918 3.23438 14.918 5.42578V25.6758C14.918 27.5508 12.9609 28.3125 8.4375 28.3125ZM8.4375 12.5859C9.48047 12.5859 11.2617 12.668 11.8594 12.668C12.7383 12.668 13.125 12.3281 13.1953 11.4141L13.3945 9.21094C13.5352 7.52344 12.3516 6.84375 8.4375 6.84375C4.52344 6.84375 3.33984 7.52344 3.48047 9.21094L3.67969 11.4141C3.75 12.3281 4.13672 12.668 5.02734 12.668C5.61328 12.668 7.32422 12.5859 8.4375 12.5859ZM8.4375 25.0898C12.375 25.0898 13.582 24.5039 13.3359 22.7812L13.1953 21.7148C13.0078 20.3086 11.8359 19.8398 8.4375 19.8398C5.03906 19.8398 3.87891 20.3086 3.67969 21.7148L3.53906 22.7812C3.29297 24.5039 4.5 25.0898 8.4375 25.0898Z" fill="black" fill-opacity="0.85"/>
</svg>
