<svg width="24" height="24" viewBox="0 0 24 24" fill="none" xmlns="http://www.w3.org/2000/svg">
<g clip-path="url(#clip0_2152_15081)">
<path d="M11.9531 23.9062C18.4922 23.9062 23.9062 18.4805 23.9062 11.9531C23.9062 5.41406 18.4805 0 11.9414 0C5.41406 0 0 5.41406 0 11.9531C0 18.4805 5.42578 23.9062 11.9531 23.9062ZM11.9531 21.9141C6.42188 21.9141 2.00391 17.4844 2.00391 11.9531C2.00391 6.42188 6.41016 1.99219 11.9414 1.99219C17.4727 1.99219 21.9141 6.42188 21.9141 11.9531C21.9141 17.4844 17.4844 21.9141 11.9531 21.9141Z" fill="#007AFF"/>
<path d="M5.51953 15.832C5.51953 16.2422 5.83594 16.5469 6.24609 16.5469H6.89062C7.28906 16.5469 7.60547 16.2422 7.60547 15.832V14.9297C8.8125 15 10.5586 15.0586 11.9531 15.0586C13.3477 15.0586 15.082 15 16.2891 14.9297V15.832C16.2891 16.2422 16.6055 16.5469 17.0156 16.5469H17.6602C18.0586 16.5469 18.375 16.2422 18.375 15.832V12.7031C18.375 11.8008 18.1875 11.2852 17.6836 10.6289L17.2266 10.043C17.0156 9.05859 16.6641 8.02734 16.4883 7.62891C16.1953 7.01953 15.6328 6.66797 14.9062 6.5625C14.543 6.51562 13.3477 6.49219 11.9531 6.49219C10.5469 6.49219 9.36328 6.51562 8.98828 6.5625C8.27344 6.65625 7.71094 7.01953 7.41797 7.62891C7.23047 8.02734 6.87891 9.05859 6.67969 10.043L6.21094 10.6289C5.70703 11.2852 5.51953 11.8008 5.51953 12.7031V15.832ZM8.0625 9.52734C8.19141 8.96484 8.42578 8.25 8.58984 7.95703C8.73047 7.71094 8.88281 7.60547 9.16406 7.57031C9.53906 7.51172 10.4062 7.48828 11.9531 7.48828C13.4883 7.48828 14.3555 7.5 14.7422 7.57031C15.0234 7.60547 15.1641 7.71094 15.3164 7.95703C15.4805 8.23828 15.7148 8.96484 15.832 9.52734C15.8906 9.70312 15.8086 9.78516 15.6094 9.77344C14.7773 9.70312 13.7695 9.66797 11.9531 9.66797C10.125 9.66797 9.12891 9.70312 8.28516 9.77344C8.08594 9.78516 8.01562 9.70312 8.0625 9.52734ZM7.16016 12.7266C7.16016 12.2227 7.54688 11.8477 8.02734 11.8477C8.51953 11.8477 8.90625 12.2227 8.90625 12.7266C8.90625 13.2188 8.51953 13.582 8.02734 13.582C7.54688 13.582 7.16016 13.2188 7.16016 12.7266ZM9.89062 12.7617C9.89062 12.3867 10.1484 12.1289 10.5234 12.1289H13.3828C13.7461 12.1289 14.0039 12.3867 14.0039 12.7617C14.0039 13.125 13.7461 13.3828 13.3828 13.3828H10.5234C10.1484 13.3828 9.89062 13.125 9.89062 12.7617ZM15 12.7266C15 12.2227 15.375 11.8477 15.8672 11.8477C16.3594 11.8477 16.7461 12.2227 16.7461 12.7266C16.7461 13.2188 16.3594 13.582 15.8672 13.582C15.375 13.582 15 13.2188 15 12.7266Z" fill="black" fill-opacity="0.85"/>
</g>
<defs>
<clipPath id="clip0_2152_15081">
<rect width="23.9062" height="23.918" fill="white"/>
</clipPath>
</defs>
</svg>
