<svg width="28" height="31" viewBox="0 0 28 31" fill="none" xmlns="http://www.w3.org/2000/svg">
<path d="M6.01172 8.16797L0.28125 13.8633C-0.09375 14.25 -0.09375 14.8711 0.28125 15.2578C0.667969 15.6328 1.28906 15.6445 1.67578 15.2578L6.01172 10.9219V8.16797ZM13.5703 30.2578C19.4883 30.2578 22.0078 28.957 22.0078 25.7695V5.42578C22.0078 2.00391 18.9023 0 13.5703 0C8.25 0 5.13281 2.00391 5.13281 5.42578V25.7695C5.13281 28.957 7.66406 30.2578 13.5703 30.2578ZM13.5703 28.3125C9.04688 28.3125 7.08984 27.5508 7.08984 25.6758V5.42578C7.08984 3.23438 9.48047 1.95703 13.5703 1.95703C17.6719 1.95703 20.0508 3.23438 20.0508 5.42578V25.6758C20.0508 27.5508 18.1055 28.3125 13.5703 28.3125ZM13.5703 12.5859C14.625 12.5859 16.3945 12.668 16.9922 12.668C17.8711 12.668 18.2578 12.3281 18.3281 11.4141L18.5273 9.21094C18.6797 7.52344 17.4961 6.84375 13.5703 6.84375C9.65625 6.84375 8.47266 7.52344 8.625 9.21094L8.8125 11.4141C8.89453 12.3281 9.26953 12.668 10.1602 12.668C10.7461 12.668 12.457 12.5859 13.5703 12.5859ZM13.5703 25.0898C17.5195 25.0898 18.7266 24.5039 18.4805 22.7812L18.3281 21.7148C18.1406 20.3086 16.9688 19.8398 13.5703 19.8398C10.1836 19.8398 9.01172 20.3086 8.82422 21.7148L8.67188 22.7812C8.42578 24.5039 9.63281 25.0898 13.5703 25.0898ZM6.01172 17.0273L0.28125 22.7227C-0.09375 23.0977 -0.09375 23.7305 0.28125 24.1172C0.667969 24.4922 1.28906 24.5039 1.67578 24.1172L6.01172 19.7812V17.0273ZM21.1289 17.0273V19.7812L25.4648 24.1172C25.8633 24.5039 26.4727 24.4922 26.8594 24.1172C27.2344 23.7305 27.2344 23.0977 26.8594 22.7227L21.1289 17.0273Z" fill="black" fill-opacity="0.85"/>
</svg>
