<svg width="23" height="31" viewBox="0 0 23 31" fill="none" xmlns="http://www.w3.org/2000/svg">
<path d="M15.9961 8.16797V10.9219L20.3438 15.2578C20.7305 15.6445 21.3398 15.6328 21.7266 15.2578C22.1016 14.8711 22.1016 14.25 21.7266 13.8633L15.9961 8.16797ZM8.4375 30.2578C14.3555 30.2578 16.875 28.957 16.875 25.7695V5.42578C16.875 2.00391 13.7695 0 8.4375 0C3.11719 0 0 2.00391 0 5.42578V25.7695C0 28.957 2.53125 30.2578 8.4375 30.2578ZM8.4375 28.3125C3.91406 28.3125 1.95703 27.5508 1.95703 25.6758V5.42578C1.95703 3.23438 4.34766 1.95703 8.4375 1.95703C12.5391 1.95703 14.918 3.23438 14.918 5.42578V25.6758C14.918 27.5508 12.9727 28.3125 8.4375 28.3125ZM8.44922 12.5859C9.49219 12.5859 11.2734 12.668 11.8594 12.668C12.75 12.668 13.125 12.3281 13.207 11.4141L13.3945 9.21094C13.5469 7.52344 12.3633 6.84375 8.44922 6.84375C4.52344 6.84375 3.33984 7.52344 3.49219 9.21094L3.67969 11.4141C3.76172 12.3281 4.14844 12.668 5.02734 12.668C5.625 12.668 7.33594 12.5859 8.44922 12.5859ZM8.44922 25.0898C12.3867 25.0898 13.5938 24.5039 13.3477 22.7812L13.1953 21.7148C13.0078 20.3086 11.8359 19.8398 8.44922 19.8398C5.05078 19.8398 3.87891 20.3086 3.69141 21.7148L3.53906 22.7812C3.29297 24.5039 4.5 25.0898 8.44922 25.0898ZM15.9961 17.0273V19.7812L20.3438 24.1172C20.7305 24.5039 21.3398 24.4922 21.7266 24.1172C22.1016 23.7305 22.1016 23.0977 21.7266 22.7227L15.9961 17.0273Z" fill="black" fill-opacity="0.85"/>
</svg>
