<svg width="26" height="24" viewBox="0 0 26 24" fill="none" xmlns="http://www.w3.org/2000/svg">
<path d="M0.691406 6.35156H1.32422C1.71094 6.35156 2.00391 6.05859 2.00391 5.66016V0.691406C2.00391 0.292969 1.71094 0 1.32422 0H0.691406C0.292969 0 0 0.292969 0 0.691406V5.66016C0 6.05859 0.292969 6.35156 0.691406 6.35156ZM0.691406 15.0352H1.32422C1.71094 15.0352 2.00391 14.7422 2.00391 14.3438V9.38672C2.00391 9 1.71094 8.70703 1.32422 8.70703H0.691406C0.292969 8.70703 0 9 0 9.38672V14.3438C0 14.7422 0.292969 15.0352 0.691406 15.0352ZM0.691406 23.7422H1.32422C1.71094 23.7422 2.00391 23.4492 2.00391 23.0508V18.082C2.00391 17.6836 1.71094 17.3906 1.32422 17.3906H0.691406C0.292969 17.3906 0 17.6836 0 18.082V23.0508C0 23.4492 0.292969 23.7422 0.691406 23.7422ZM22.5586 6.33984H23.1797C23.5781 6.33984 23.8711 6.04688 23.8711 5.66016V0.691406C23.8711 0.292969 23.5781 0 23.1797 0H22.5586C22.1602 0 21.8672 0.292969 21.8672 0.691406V5.66016C21.8672 6.04688 22.1602 6.33984 22.5586 6.33984ZM22.5586 23.7305H23.1797C23.5781 23.7305 23.8711 23.4375 23.8711 23.0508V18.082C23.8711 17.6836 23.5781 17.3906 23.1797 17.3906H22.5586C22.1602 17.3906 21.8672 17.6836 21.8672 18.082V23.0508C21.8672 23.4375 22.1602 23.7305 22.5586 23.7305Z" fill="#007AFF"/>
<path d="M11.0163 21.2696C14.614 23.3321 16.6999 23.461 17.8952 21.3985L24.8913 9.2579C26.1335 7.12509 24.8913 4.73447 21.6452 2.87118C18.4226 1.01962 15.739 1.12509 14.5085 3.2579L7.50071 15.3985C6.3054 17.461 7.44212 19.2071 11.0163 21.2696ZM21.821 12.7618L23.0046 13.4532C23.4616 13.7228 24.0359 13.5704 24.2819 13.1368L24.4812 12.7735C24.7273 12.3282 24.5866 11.7774 24.1179 11.5079L22.9343 10.8282L21.821 12.7618Z" fill="white"/>
<path d="M11.0163 21.2696C14.614 23.3321 16.6999 23.461 17.8952 21.3985L24.8913 9.2579C26.1335 7.12509 24.8913 4.73447 21.6452 2.87118C18.4226 1.01962 15.739 1.12509 14.5085 3.2579L7.50071 15.3985C6.3054 17.461 7.44212 19.2071 11.0163 21.2696ZM11.8601 19.8399C9.17649 18.2931 8.3679 17.2618 8.98899 16.1837L15.9616 4.10165C16.6765 2.87118 18.3757 2.91806 20.8015 4.31259C23.2507 5.73056 24.153 7.18368 23.4382 8.42587L16.4538 20.5079C15.8445 21.5743 14.5437 21.3868 11.8601 19.8399ZM17.1804 10.6056C17.8132 10.9806 18.8562 11.6603 19.2077 11.8712C19.7585 12.1876 20.1569 12.1173 20.5554 11.5431L21.4226 10.3009C22.1374 9.28134 21.6687 8.46103 19.2312 7.05478C16.8171 5.66025 15.8679 5.66025 15.3288 6.79697L14.696 8.16806C14.4148 8.77743 14.5202 9.16415 15.0945 9.48056C15.446 9.70321 16.5124 10.2189 17.1804 10.6056ZM12.8327 18.1407C15.2468 19.5353 16.2312 19.6173 16.6999 18.4103L16.9695 17.7189C17.3562 16.7462 16.8171 16.0665 14.7195 14.8712C12.6452 13.6642 11.778 13.5353 11.1335 14.3556L10.6765 14.9298C9.8679 15.9493 10.4304 16.7462 12.8327 18.1407ZM13.0085 7.67587L14.1218 5.754L12.9382 5.06259C12.4812 4.79306 11.9304 4.93368 11.6726 5.379L11.4616 5.73056C11.2038 6.16415 11.3679 6.73837 11.8132 6.99618L13.0085 7.67587ZM21.821 12.7618L23.0046 13.4532C23.4616 13.7228 24.0359 13.5704 24.2819 13.1368L24.4812 12.7735C24.7273 12.3282 24.5866 11.7774 24.1179 11.5079L22.9343 10.8282L21.821 12.7618Z" fill="black" fill-opacity="0.85"/>
</svg>
