<svg width="27" height="28" viewBox="0 0 27 28" fill="none" xmlns="http://www.w3.org/2000/svg">
<g clip-path="url(#clip0_2152_15251)">
<path d="M1.525 27.5508H1.5836C5.23985 27.5508 5.54453 25.1719 7.45469 25.1719C9.30625 25.1719 9.82188 27.5508 13.0211 27.5508C16.2086 27.5508 16.7242 25.1719 18.5758 25.1719C20.4859 25.1719 20.7906 27.5508 24.4469 27.5508H24.5055C24.9625 27.5508 25.3258 27.1875 25.3258 26.7305C25.3258 26.2734 24.9625 25.8984 24.5055 25.8984H24.4469C23.1813 25.8984 22.4781 25.3828 21.5875 24.75C20.8258 24.1992 19.8766 23.5195 18.5758 23.5195C17.2398 23.5195 16.2789 24.2461 15.5172 24.8086C14.7086 25.4297 14.0641 25.8984 13.0211 25.8984C11.9664 25.8984 11.3336 25.4297 10.525 24.8086C9.76328 24.2461 8.79063 23.5195 7.45469 23.5195C6.15391 23.5195 5.20469 24.1992 4.44297 24.75C3.55235 25.3828 2.84922 25.8984 1.5836 25.8984H1.525C1.06797 25.8984 0.704691 26.2734 0.704691 26.7305C0.704691 27.1875 1.06797 27.5508 1.525 27.5508ZM0.517191 20.3438L3.0836 23.7539C3.2125 23.6719 3.35313 23.5664 3.50547 23.4609C4.84141 22.4883 5.98985 21.9258 7.45469 21.9258C8.96641 21.9258 10.1031 22.5234 11.4859 23.5312C12.3063 24.1641 12.5406 24.3047 13.0211 24.3047C13.4664 24.3047 13.7008 24.1641 14.4039 23.6484C15.8453 22.5469 17.0172 21.9258 18.5758 21.9258C20.0523 21.9258 21.1891 22.4883 22.525 23.4609C22.6773 23.5664 22.818 23.6719 22.9586 23.7539L25.5133 20.3438C26.5914 18.9375 25.9234 17.3203 24.0719 17.3203H1.9586C0.107035 17.3203 -0.560934 18.9375 0.517191 20.3438ZM6.41172 4.89844C6.62266 3.94922 7.03282 2.73047 7.31407 2.23828C7.54844 1.83984 7.80625 1.65234 8.26328 1.59375C8.91953 1.5 10.3727 1.45312 13.0211 1.45312C15.6578 1.45312 17.1227 1.48828 17.7672 1.59375C18.2359 1.66406 18.482 1.83984 18.7164 2.23828C19.0094 2.71875 19.3961 3.94922 19.6188 4.89844C19.7008 5.21484 19.5602 5.33203 19.232 5.32031C17.8141 5.22656 16.1148 5.13281 13.0211 5.13281C9.91563 5.13281 8.22813 5.22656 6.79844 5.32031C6.47032 5.33203 6.34141 5.21484 6.41172 4.89844ZM6.8336 11.2148C6.06016 11.2148 5.4625 10.6289 5.4625 9.84375C5.4625 9.05859 6.06016 8.47266 6.8336 8.47266C7.61875 8.47266 8.20469 9.05859 8.20469 9.84375C8.20469 10.6289 7.61875 11.2148 6.8336 11.2148ZM10.7477 10.8867C10.1734 10.8867 9.76328 10.4766 9.76328 9.89062C9.76328 9.30469 10.1734 8.90625 10.7477 8.90625H15.2828C15.8688 8.90625 16.2672 9.30469 16.2672 9.89062C16.2672 10.4766 15.8688 10.8867 15.2828 10.8867H10.7477ZM19.1969 11.2148C18.4117 11.2148 17.8258 10.6289 17.8258 9.84375C17.8258 9.05859 18.4117 8.47266 19.1969 8.47266C19.982 8.47266 20.568 9.05859 20.568 9.84375C20.568 10.6289 19.982 11.2148 19.1969 11.2148ZM13.0211 13.5352C15.8922 13.5352 19.7242 13.3828 21.3414 13.207C22.5016 13.0664 23.1461 12.4336 23.1461 11.332V9.82031C23.1461 8.37891 22.8531 7.57031 22.068 6.55078L21.3414 5.61328C21.025 4.06641 20.4508 2.44922 20.1578 1.81641C19.7008 0.84375 18.8102 0.28125 17.6734 0.128906C17.1109 0.046875 15.2242 0 13.0211 0C10.8063 0 8.93125 0.0585938 8.35703 0.128906C7.22032 0.257812 6.32969 0.84375 5.87266 1.81641C5.57969 2.44922 5.00547 4.06641 4.68907 5.61328L3.97422 6.55078C3.17735 7.57031 2.88438 8.37891 2.88438 9.82031V11.332C2.88438 12.4336 3.52891 13.0664 4.68907 13.207C6.31797 13.3828 10.1383 13.5352 13.0211 13.5352ZM4.0211 15.8906H5.02891C5.67344 15.8906 6.16563 15.3984 6.16563 14.7656V12.6328L2.88438 11.0625V14.7656C2.88438 15.3984 3.37657 15.8906 4.0211 15.8906ZM21.0016 15.8906H22.0094C22.6539 15.8906 23.1461 15.3984 23.1461 14.7656V11.0625L19.8766 12.6328V14.7656C19.8766 15.3984 20.3688 15.8906 21.0016 15.8906Z" fill="black" fill-opacity="0.85"/>
</g>
<defs>
<clipPath id="clip0_2152_15251">
<rect width="26.0305" height="27.7148" fill="white"/>
</clipPath>
</defs>
</svg>
