<svg width="30" height="31" viewBox="0 0 30 31" fill="none" xmlns="http://www.w3.org/2000/svg">
<path d="M2.93309 27.4336C4.72606 29.2383 7.01121 30.375 9.49559 30.375C10.0932 30.375 10.5034 29.9883 10.5034 29.4375C10.5034 28.9336 10.105 28.6055 9.437 28.5586C7.51512 28.4414 5.64012 27.6445 4.17528 26.1914C2.72215 24.7266 1.92528 22.8633 1.80809 20.9297C1.7495 20.1797 1.44481 19.8867 0.858871 19.8867C0.401839 19.8867 -0.043473 20.2148 0.00340199 20.8594C0.155746 23.3438 1.11668 25.6406 2.93309 27.4336ZM26.7807 27.4336C28.5972 25.6406 29.5581 23.3438 29.7104 20.8594C29.7573 20.2148 29.312 19.8867 28.855 19.8867C28.2807 19.8867 27.9643 20.1797 27.9057 20.9297C27.7886 22.8633 27.0034 24.7266 25.5386 26.1914C24.0737 27.6445 22.2104 28.4414 20.2768 28.5586C19.6206 28.6055 19.2222 28.9336 19.2222 29.4375C19.2222 29.9883 19.6206 30.375 20.23 30.375C22.7026 30.375 24.9878 29.2383 26.7807 27.4336Z" fill="#007AFF"/>
<path d="M5.83861 24.5156C7.04564 25.7227 8.68627 26.3203 9.69408 26.3203C10.2449 26.3203 10.6199 25.9688 10.6199 25.4648C10.6199 24.9961 10.2918 24.6211 9.56517 24.5156C8.66283 24.4219 7.81908 24 7.0808 23.2734C6.37767 22.5586 5.96752 21.6914 5.83861 20.6953C5.73314 20.0391 5.47533 19.7695 4.90111 19.7695C4.38548 19.7695 3.97533 20.168 4.05736 20.8008C4.2097 22.2305 4.81908 23.4961 5.83861 24.5156ZM23.8738 24.5156C24.905 23.4961 25.5027 22.2305 25.655 20.8008C25.7371 20.168 25.3269 19.7695 24.8113 19.7695C24.2371 19.7695 23.991 20.0391 23.8855 20.6953C23.7449 21.6914 23.3347 22.5586 22.6316 23.2734C21.8933 24 21.0496 24.4219 20.1472 24.5156C19.4207 24.6211 19.1043 24.9961 19.1043 25.4648C19.0925 25.9688 19.4793 26.3203 20.0183 26.3203C21.0261 26.3203 22.6668 25.7227 23.8738 24.5156Z" fill="#007AFF"/>
<path d="M14.8633 23.0742C19.3633 23.0742 21.3789 22.0547 21.3789 19.4648V4.25391C21.3789 1.58203 18.918 0 14.8633 0C10.8086 0 8.34765 1.58203 8.34765 4.25391V19.4648C8.34765 22.0547 10.3516 23.0742 14.8633 23.0742ZM14.8633 21.2461C11.5 21.2461 10.1875 20.7305 10.1875 19.4062V4.25391C10.1875 2.71875 11.8164 1.85156 14.8633 1.85156C17.9102 1.85156 19.5273 2.71875 19.5273 4.25391V19.4062C19.5273 20.7305 18.2266 21.2461 14.8633 21.2461ZM14.8516 9.71484C15.707 9.71484 16.9844 9.78516 17.4297 9.78516C18.1328 9.78516 18.4609 9.49219 18.5195 8.75391L18.6602 7.11328C18.7773 5.76562 17.8867 5.25 14.8516 5.25C11.8398 5.25 10.9492 5.76562 11.0664 7.11328L11.207 8.75391C11.2656 9.49219 11.5937 9.78516 12.2969 9.78516C12.7305 9.78516 14.0664 9.71484 14.8516 9.71484ZM14.8516 19.125C17.8867 19.125 18.8477 18.6797 18.625 17.2852L18.5078 16.4883C18.332 15.375 17.4648 15.0234 14.8516 15.0234C12.2617 15.0234 11.3945 15.375 11.2187 16.4883L11.0898 17.2852C10.8789 18.6797 11.8398 19.125 14.8516 19.125ZM9.34375 9.23438V6.79688H7.84375C7.25781 6.79688 6.8125 7.23047 6.8125 7.79297V8.23828C6.8125 8.78906 7.25781 9.23438 7.84375 9.23438H9.34375ZM20.3828 9.23438H21.8828C22.4687 9.23438 22.9141 8.78906 22.9141 8.23828V7.79297C22.9141 7.23047 22.4687 6.79688 21.8828 6.79688H20.3828V9.23438Z" fill="black" fill-opacity="0.85"/>
</svg>
