<svg width="32" height="22" viewBox="0 0 32 22" fill="none" xmlns="http://www.w3.org/2000/svg">
<path d="M30.082 18.5859C30.9141 18.5859 31.6172 17.9062 31.6172 17.1094C31.6172 16.3008 30.9258 15.6328 30.082 15.6328C29.2266 15.6328 28.5469 16.3008 28.5469 17.1094C28.5469 17.9062 29.25 18.5859 30.082 18.5859ZM30.082 13.3828C30.6562 13.3828 31.0547 12.9844 31.0781 12.3867L31.3242 4.08984C31.3477 3.33984 30.8555 2.83594 30.082 2.83594C29.3086 2.83594 28.8047 3.33984 28.8281 4.08984L29.0742 12.3867C29.0977 12.9844 29.5078 13.3828 30.082 13.3828Z" fill="black" fill-opacity="0.85"/>
<path d="M21.1523 21.457C23.625 21.457 24.832 20.2852 24.832 17.8359V12.1055C24.832 10.4297 24.3633 9.52734 23.0156 8.50781L13.9102 1.58203C12.3633 0.421875 11.168 0.0117188 9.25781 0.0117188H3.57422C1.20703 0.0117188 0 1.20703 0 3.55078V17.8359C0 20.2852 1.19531 21.457 3.67969 21.457H21.1523ZM21.082 10.6523H3.60938C2.53125 10.6523 1.88672 10.0312 1.88672 8.90625V3.64453C1.88672 2.50781 2.51953 1.89844 3.60938 1.89844H9.25781C10.7578 1.89844 11.625 2.15625 12.6211 2.95312L21.3516 9.63281C21.832 9.98438 21.7031 10.6523 21.082 10.6523Z" fill="#007AFF"/>
</svg>
