<svg width="39" height="25" viewBox="0 0 39 25" fill="none" xmlns="http://www.w3.org/2000/svg">
<path d="M13.8633 20.1211C17.8125 20.1211 23.0391 19.9219 25.2656 19.6641C26.8477 19.4883 27.7383 18.6094 27.7383 17.1094V15.0469C27.7383 13.0664 27.3398 11.9648 26.25 10.5586L25.2656 9.28125C24.832 7.17188 24.0586 4.95703 23.6484 4.08984C23.0273 2.76562 21.8086 1.98047 20.25 1.76953C19.4648 1.66406 16.8984 1.60547 13.8633 1.60547C10.8398 1.60547 8.27344 1.67578 7.48828 1.76953C5.92969 1.95703 4.71094 2.76562 4.08984 4.08984C3.67969 4.95703 2.90625 7.17188 2.47266 9.28125L1.48828 10.5586C0.398438 11.9648 0 13.0664 0 15.0469V21.7969C0 22.6641 0.679688 23.3438 1.55859 23.3438H2.94141C3.80859 23.3438 4.48828 22.6641 4.48828 21.7969V19.8398C7.08984 20.0039 10.8516 20.1211 13.8633 20.1211ZM4.83984 8.29688C5.12109 7.01953 5.68359 5.34375 6.07031 4.66406C6.38672 4.11328 6.72656 3.86719 7.35938 3.78516C8.25 3.66797 10.2422 3.58594 13.8633 3.58594C17.4961 3.58594 19.4883 3.64453 20.3789 3.78516C21 3.87891 21.3398 4.11328 21.668 4.66406C22.0664 5.33203 22.5938 7.01953 22.8984 8.29688C23.0039 8.73047 22.8281 8.89453 22.3711 8.87109C20.4258 8.74219 18.1055 8.625 13.8633 8.625C9.63281 8.625 7.3125 8.74219 5.36719 8.87109C4.91016 8.89453 4.74609 8.73047 4.83984 8.29688ZM4.41797 16.3242C3.43359 16.3242 2.69531 15.5742 2.69531 14.6016C2.69531 13.6172 3.43359 12.8789 4.41797 12.8789C5.39062 12.8789 6.14062 13.6172 6.14062 14.6016C6.14062 15.5742 5.39062 16.3242 4.41797 16.3242ZM10.7695 16.4883C9.97266 16.4883 9.41016 15.9375 9.41016 15.1289C9.41016 14.332 9.97266 13.7812 10.7695 13.7812H16.9688C17.7656 13.7812 18.3281 14.332 18.3281 15.1289C18.3281 15.9375 17.7656 16.4883 16.9688 16.4883H10.7695ZM22.3242 16.6289C21.3398 16.6289 20.6016 15.8789 20.6016 14.9062C20.6016 13.9219 21.3398 13.1836 22.3242 13.1836C23.2969 13.1836 24.0352 13.9219 24.0352 14.9062C24.0352 15.8789 23.2969 16.6289 22.3242 16.6289Z" fill="#007AFF"/>
<path d="M11.168 24.9375H12.5508C14.3086 24.9375 15.7031 23.543 15.7031 21.7969V21.5273C18.1172 21.6445 21.0469 21.7148 23.4844 21.7148C25.9102 21.7148 28.8516 21.6445 31.2656 21.5273V21.7969C31.2656 23.543 32.6602 24.9375 34.418 24.9375H35.7891C37.5469 24.9375 38.9531 23.543 38.9531 21.7969V15.0469C38.9531 12.7148 38.4258 11.2617 37.1367 9.57422L36.3633 8.58984C35.8945 6.48047 35.1328 4.3125 34.7109 3.41016C33.832 1.54688 32.1211 0.457031 30.0703 0.1875C29.2031 0.0585938 26.543 0 23.4844 0C20.4258 0 17.7656 0.0703125 16.9102 0.1875C14.8242 0.433594 13.125 1.55859 12.2461 3.41016C11.8359 4.3125 11.0625 6.48047 10.5938 8.58984L9.83204 9.57422C8.53126 11.2617 8.01562 12.7148 8.01562 15.0469V21.7969C8.01562 23.543 9.41016 24.9375 11.168 24.9375Z" fill="white"/>
<path d="M14.4492 8.29688C14.7305 7.01953 15.3047 5.34375 15.6914 4.66406C16.0078 4.11328 16.3477 3.86719 16.9805 3.78516C17.8594 3.66797 19.8516 3.58594 23.4844 3.58594C27.1055 3.58594 29.0977 3.64453 29.9883 3.78516C30.6211 3.87891 30.9492 4.11328 31.2773 4.66406C31.6758 5.33203 32.2031 7.01953 32.5078 8.29688C32.625 8.73047 32.4375 8.89453 31.9805 8.87109C30.0352 8.74219 27.7148 8.625 23.4844 8.625C19.2422 8.625 16.9219 8.74219 14.9766 8.87109C14.5312 8.89453 14.3555 8.73047 14.4492 8.29688ZM15.0352 16.957C13.957 16.957 13.1484 16.1367 13.1484 15.0703C13.1484 13.9922 13.957 13.1836 15.0352 13.1836C16.1016 13.1836 16.9102 13.9922 16.9102 15.0703C16.9102 16.1367 16.1016 16.957 15.0352 16.957ZM20.3789 16.4883C19.582 16.4883 19.0312 15.9375 19.0312 15.1289C19.0312 14.332 19.582 13.7812 20.3789 13.7812H26.5781C27.3867 13.7812 27.9375 14.332 27.9375 15.1289C27.9375 15.9375 27.3867 16.4883 26.5781 16.4883H20.3789ZM31.9336 16.957C30.8672 16.957 30.0469 16.1367 30.0469 15.0703C30.0469 13.9922 30.8672 13.1836 31.9336 13.1836C33 13.1836 33.8203 13.9922 33.8203 15.0703C33.8203 16.1367 33 16.957 31.9336 16.957ZM23.4844 20.1211C27.4219 20.1211 32.6484 19.9219 34.875 19.6641C36.457 19.4883 37.3477 18.6094 37.3477 17.1094V15.0469C37.3477 13.0664 36.9492 11.9648 35.8594 10.5586L34.875 9.28125C34.4414 7.17188 33.668 4.95703 33.2578 4.08984C32.6367 2.76562 31.418 1.98047 29.8594 1.76953C29.0742 1.66406 26.5078 1.60547 23.4844 1.60547C20.4492 1.60547 17.8828 1.67578 17.0977 1.76953C15.5391 1.95703 14.332 2.76562 13.6992 4.08984C13.3008 4.95703 12.5156 7.17188 12.0938 9.28125L11.0977 10.5586C10.0195 11.9648 9.62109 13.0664 9.62109 15.0469V17.1094C9.62109 18.6094 10.5 19.4883 12.0938 19.6641C14.3086 19.9219 19.5469 20.1211 23.4844 20.1211ZM11.168 23.3438H12.5508C13.4297 23.3438 14.0977 22.6641 14.0977 21.7969V18.8789L9.62109 16.7461V21.7969C9.62109 22.6641 10.2891 23.3438 11.168 23.3438ZM34.418 23.3438H35.7891C36.668 23.3438 37.3477 22.6641 37.3477 21.7969V16.7461L32.8594 18.8789V21.7969C32.8594 22.6641 33.5391 23.3438 34.418 23.3438Z" fill="black" fill-opacity="0.85"/>
</svg>
