<svg width="28" height="22" viewBox="0 0 28 22" fill="none" xmlns="http://www.w3.org/2000/svg">
<g clip-path="url(#clip0_2152_15126)">
<path d="M0 20.1914C0 21.0586 0.679688 21.7383 1.55859 21.7383H2.92969C3.80859 21.7383 4.48828 21.0586 4.48828 20.1914V18.4922H23.25V20.1914C23.25 21.0586 23.918 21.7383 24.7969 21.7383H26.1797C27.0586 21.7383 27.7266 21.0586 27.7266 20.1914V12.3633C27.7266 10.3945 27.457 9.21094 26.25 7.88672L25.0664 6.60938L23.8359 3.08203C23.168 1.16016 21.8672 0.351562 20.25 0.164062C19.4648 0.0703125 16.8984 0 13.8633 0C10.8398 0 8.27344 0.0703125 7.48828 0.164062C5.85938 0.351562 4.55859 1.16016 3.89062 3.08203L2.66016 6.60938L1.48828 7.88672C0.269531 9.21094 0 10.3945 0 12.3633V20.1914ZM5.88281 6.66797C5.30859 6.66797 5.12109 6.25781 5.29688 5.74219L6.02344 3.55078C6.29297 2.74219 6.72656 2.48438 7.42969 2.39062C8.25 2.27344 10.5234 2.19141 13.8633 2.19141C17.2148 2.19141 19.4766 2.27344 20.2852 2.39062C21 2.48438 21.4219 2.74219 21.6914 3.55078L22.4297 5.74219C22.6055 6.25781 22.4062 6.66797 21.8438 6.66797H5.88281ZM4.24219 13.9922C3.51562 13.9922 2.98828 13.4648 2.98828 12.75V10.9219C2.98828 10.207 3.51562 9.69141 4.24219 9.69141C4.95703 9.69141 5.48438 10.1953 5.48438 10.9219V12.75C5.48438 13.4766 4.95703 13.9922 4.24219 13.9922ZM11.2031 13.4297C10.6289 13.4297 10.2422 13.0547 10.2422 12.4219V11.2383C10.2422 10.6289 10.6289 10.2539 11.2031 10.2539H16.4883C17.0742 10.2539 17.4609 10.6289 17.4609 11.2383V12.4219C17.4609 13.0547 17.0742 13.4297 16.4883 13.4297H11.2031ZM23.6016 13.9922C22.8984 13.9922 22.3594 13.4648 22.3594 12.75V10.9219C22.3594 10.207 22.8984 9.69141 23.6016 9.69141C24.3281 9.69141 24.8555 10.1953 24.8555 10.9219V12.75C24.8555 13.4766 24.3281 13.9922 23.6016 13.9922Z" fill="black" fill-opacity="0.85"/>
</g>
<defs>
<clipPath id="clip0_2152_15126">
<rect width="27.7266" height="21.7852" fill="white"/>
</clipPath>
</defs>
</svg>
