<svg width="17" height="33" viewBox="0 0 17 33" fill="none" xmlns="http://www.w3.org/2000/svg">
<path d="M8.05037 1.75781C10.1246 1.75781 11.9996 2.51953 13.441 3.80859C13.9449 4.24219 14.4723 4.27734 14.8238 3.9375C15.2105 3.55078 15.1871 2.98828 14.7769 2.55469C13.0308 0.808594 10.6051 0 8.05037 0C5.5074 0 3.08162 0.808594 1.33553 2.55469C0.91365 2.98828 0.890213 3.55078 1.28865 3.9375C1.6285 4.27734 2.15584 4.24219 2.65975 3.80859C4.10115 2.51953 5.98787 1.75781 8.05037 1.75781Z" fill="#007AFF"/>
<path d="M8.05073 5.87109C9.08198 5.87109 9.98433 6.1875 10.6757 6.76172C11.2733 7.18359 11.7655 7.16016 12.0937 6.82031C12.4569 6.46875 12.4335 5.95312 12.0585 5.56641C11.3437 4.85156 9.76167 4.11328 8.05073 4.11328C6.35151 4.11328 4.76948 4.85156 4.04292 5.56641C3.66792 5.95312 3.64448 6.46875 4.00776 6.82031C4.33589 7.16016 4.82807 7.18359 5.42573 6.76172C6.12886 6.1875 7.0312 5.87109 8.05073 5.87109Z" fill="#007AFF"/>
<path d="M8.05078 32.0859C12.5508 32.0859 14.5781 31.0664 14.5781 28.4766V13.2656C14.5781 10.5938 12.1055 9.01172 8.05078 9.01172C3.99609 9.01172 1.53516 10.5938 1.53516 13.2656V28.4766C1.53516 31.0664 3.55078 32.0859 8.05078 32.0859ZM2.53125 18.2461V15.8086H1.03125C0.457031 15.8086 0 16.2422 0 16.8047V17.25C0 17.8008 0.457031 18.2461 1.03125 18.2461H2.53125ZM13.5703 18.2461H15.0703C15.6562 18.2461 16.1016 17.8008 16.1016 17.25V16.8047C16.1016 16.2422 15.6562 15.8086 15.0703 15.8086H13.5703V18.2461ZM8.05078 18.6562C7.23047 18.6562 5.87109 18.7266 5.40234 18.7266C4.6875 18.7266 4.35938 18.4219 4.28906 17.6602L4.13672 15.9727C4.01953 14.5781 4.93359 14.0508 8.05078 14.0508C11.168 14.0508 12.0938 14.5781 11.9766 15.9727L11.8242 17.6602C11.7539 18.4219 11.4375 18.7266 10.6992 18.7266C10.2422 18.7266 8.92969 18.6562 8.05078 18.6562ZM8.05078 28.3477C4.93359 28.3477 3.96094 27.8906 4.17188 26.4492L4.30078 25.6289C4.47656 24.4805 5.36719 24.1172 8.05078 24.1172C10.7461 24.1172 11.625 24.4805 11.8125 25.6289L11.9414 26.4492C12.1641 27.8906 11.168 28.3477 8.05078 28.3477Z" fill="black" fill-opacity="0.85"/>
</svg>
