<svg width="38" height="22" viewBox="0 0 38 22" fill="none" xmlns="http://www.w3.org/2000/svg">
<path d="M5.49609 7.37109C5.40234 7.78125 5.57812 7.94531 6.02344 7.92188C7.89844 7.79297 10.125 7.6875 13.8633 7.6875C17.6133 7.6875 19.8398 7.79297 21.7148 7.92188C22.1484 7.94531 22.3242 7.78125 22.2305 7.37109C21.9492 6.12891 21.4102 4.51172 21.0352 3.86719C20.7305 3.33984 20.3906 3.10547 19.7812 3.02344C18.9375 2.90625 17.0156 2.82422 13.8633 2.82422C10.7227 2.82422 8.80078 2.90625 7.94531 3.02344C7.33594 3.10547 6.99609 3.33984 6.69141 3.86719C6.31641 4.51172 5.78906 6.12891 5.49609 7.37109ZM5.41406 15.3516C6.48047 15.3516 7.30078 14.5312 7.30078 13.4648C7.30078 12.3867 6.48047 11.5781 5.41406 11.5781C4.34766 11.5781 3.52734 12.3867 3.52734 13.4648C3.52734 14.5312 4.34766 15.3516 5.41406 15.3516ZM11.9414 14.8828H16.9688C17.7656 14.8828 18.3164 14.332 18.3164 13.5234C18.3164 12.7266 17.7656 12.1758 16.9688 12.1758H11.9414C11.1328 12.1758 10.582 12.7266 10.582 13.5234C10.582 14.332 11.1328 14.8828 11.9414 14.8828ZM22.3125 15.3516C23.3906 15.3516 24.1992 14.5312 24.1992 13.4648C24.1992 12.3867 23.3906 11.5781 22.3125 11.5781C21.2461 11.5781 20.4375 12.3867 20.4375 13.4648C20.4375 14.5312 21.2461 15.3516 22.3125 15.3516ZM12.375 18.5039C12.7969 18.5039 13.1484 18.1523 13.1484 17.7305C13.1484 17.3086 12.7969 16.9688 12.375 16.9688C8.80078 16.9336 4.55859 16.7695 2.88281 16.5586C1.88672 16.4414 1.53516 15.9258 1.53516 15.0352V13.4414C1.53516 11.8359 1.79297 11.0859 2.70703 9.89062L3.90234 8.32031C4.21875 6.62109 4.98047 4.25391 5.48438 3.17578C5.85938 2.36719 6.59766 1.86328 7.66406 1.73438C8.41406 1.64062 10.793 1.53516 13.8633 1.53516C16.9453 1.53516 19.3594 1.64062 20.0391 1.73438C21.1406 1.875 21.8672 2.37891 22.2539 3.17578C22.7578 4.25391 23.5195 6.62109 23.8242 8.32031L25.0312 9.89062C25.9336 11.0859 26.1914 11.8359 26.1914 13.4414V14.7305C26.1914 15.1523 26.543 15.4922 26.9648 15.4922C27.3867 15.4922 27.7266 15.1523 27.7266 14.7305V13.4414C27.7266 11.4609 27.3281 10.3594 26.25 8.95312L25.2539 7.67578C24.832 5.56641 24.0469 3.35156 23.6484 2.48438C23.0156 1.16016 21.8086 0.375 20.25 0.164062C19.4648 0.0585938 16.8984 0 13.8633 0C10.8398 0 8.27344 0.0703125 7.48828 0.164062C5.92969 0.351562 4.71094 1.16016 4.08984 2.48438C3.67969 3.35156 2.90625 5.56641 2.47266 7.67578L1.48828 8.95312C0.398438 10.3594 0 11.4609 0 13.4414V15.5039C0 17.0039 0.890625 17.8828 2.47266 18.0586C4.45312 18.293 8.80078 18.4688 12.375 18.5039ZM2.15625 21.7383H3.52734C4.40625 21.7383 5.08594 21.0586 5.08594 20.1914V17.4023L0.597656 16.7578V20.1914C0.597656 21.0586 1.27734 21.7383 2.15625 21.7383Z" fill="#007AFF"/>
<path d="M23.5664 18.5156C27.5039 18.5156 32.7305 18.3164 34.957 18.0586C36.5391 17.8828 37.4297 17.0039 37.4297 15.5039V13.4414C37.4297 11.4609 37.0312 10.3594 35.9414 8.95312L34.957 7.67578C34.5234 5.56641 33.75 3.35156 33.3398 2.48438C32.7188 1.16016 31.5 0.375 29.9414 0.164062C29.1562 0.0585938 26.5898 0 23.5664 0C20.5312 0 17.9648 0.0703125 17.1797 0.164062C15.6211 0.351562 14.4023 1.16016 13.7812 2.48438C13.3828 3.35156 12.5977 5.56641 12.1758 7.67578L11.1797 8.95312C10.0898 10.3594 9.69141 11.4609 9.69141 13.4414V15.5039C9.69141 17.0039 10.582 17.8828 12.1758 18.0586C14.3906 18.3164 19.6172 18.5156 23.5664 18.5156ZM11.8477 21.7383H13.2305C14.1094 21.7383 14.7773 21.0586 14.7773 20.1914V17.4023L10.3008 16.7578V20.1914C10.3008 21.0586 10.9688 21.7383 11.8477 21.7383ZM33.9023 21.7383H35.2734C36.1523 21.7383 36.832 21.0586 36.832 20.1914V16.7578L32.3438 17.4023V20.1914C32.3438 21.0586 33.0234 21.7383 33.9023 21.7383Z" fill="white"/>
<path d="M15.1992 7.37109C15.1055 7.78125 15.2812 7.94531 15.7148 7.92188C17.5898 7.79297 19.8164 7.6875 23.5664 7.6875C27.3047 7.6875 29.5312 7.79297 31.4062 7.92188C31.8516 7.94531 32.0156 7.78125 31.9219 7.37109C31.6406 6.12891 31.1133 4.51172 30.7383 3.86719C30.4336 3.33984 30.0938 3.10547 29.4844 3.02344C28.6289 2.90625 26.707 2.82422 23.5664 2.82422C20.4141 2.82422 18.4922 2.90625 17.6484 3.02344C17.0391 3.10547 16.6875 3.33984 16.3828 3.86719C16.0195 4.51172 15.4805 6.12891 15.1992 7.37109ZM15.1172 15.3516C16.1836 15.3516 16.9922 14.5312 16.9922 13.4648C16.9922 12.3867 16.1836 11.5781 15.1172 11.5781C14.0391 11.5781 13.2305 12.3867 13.2305 13.4648C13.2305 14.5312 14.0391 15.3516 15.1172 15.3516ZM20.4609 14.8828H26.6602C27.4688 14.8828 28.0195 14.332 28.0195 13.5234C28.0195 12.7266 27.4688 12.1758 26.6602 12.1758H20.4609C19.6641 12.1758 19.1016 12.7266 19.1016 13.5234C19.1016 14.332 19.6641 14.8828 20.4609 14.8828ZM32.0156 15.3516C33.082 15.3516 33.9023 14.5312 33.9023 13.4648C33.9023 12.3867 33.082 11.5781 32.0156 11.5781C30.9375 11.5781 30.1289 12.3867 30.1289 13.4648C30.1289 14.5312 30.9375 15.3516 32.0156 15.3516ZM23.5664 18.5156C27.5039 18.5156 32.7305 18.3164 34.957 18.0586C36.5391 17.8828 37.4297 17.0039 37.4297 15.5039V13.4414C37.4297 11.4609 37.0312 10.3594 35.9414 8.95312L34.957 7.67578C34.5234 5.56641 33.75 3.35156 33.3398 2.48438C32.7188 1.16016 31.5 0.375 29.9414 0.164062C29.1562 0.0585938 26.5898 0 23.5664 0C20.5312 0 17.9648 0.0703125 17.1797 0.164062C15.6211 0.351562 14.4023 1.16016 13.7812 2.48438C13.3828 3.35156 12.5977 5.56641 12.1758 7.67578L11.1797 8.95312C10.0898 10.3594 9.69141 11.4609 9.69141 13.4414V15.5039C9.69141 17.0039 10.582 17.8828 12.1758 18.0586C14.3906 18.3164 19.6172 18.5156 23.5664 18.5156ZM23.5664 16.9805C19.582 16.9805 14.4609 16.793 12.5859 16.5586C11.5898 16.4414 11.2266 15.9258 11.2266 15.0352V13.4414C11.2266 11.8359 11.4961 11.0859 12.3984 9.89062L13.6055 8.32031C13.9102 6.62109 14.6836 4.25391 15.1758 3.17578C15.5625 2.36719 16.3008 1.86328 17.3672 1.73438C18.1172 1.64062 20.4844 1.53516 23.5664 1.53516C26.6367 1.53516 29.0625 1.64062 29.7422 1.73438C30.8438 1.875 31.5703 2.37891 31.9453 3.17578C32.4609 4.25391 33.2109 6.62109 33.5273 8.32031L34.7227 9.89062C35.6367 11.0859 35.8945 11.8359 35.8945 13.4414V15.0352C35.8945 15.9258 35.543 16.4414 34.5352 16.5586C32.6602 16.793 27.5508 16.9805 23.5664 16.9805ZM11.8477 21.7383H13.2305C14.1094 21.7383 14.7773 21.0586 14.7773 20.1914V17.4023L10.3008 16.7578V20.1914C10.3008 21.0586 10.9688 21.7383 11.8477 21.7383ZM33.9023 21.7383H35.2734C36.1523 21.7383 36.832 21.0586 36.832 20.1914V16.7578L32.3438 17.4023V20.1914C32.3438 21.0586 33.0234 21.7383 33.9023 21.7383Z" fill="black" fill-opacity="0.85"/>
</svg>
