<svg width="32" height="28" viewBox="0 0 32 28" fill="none" xmlns="http://www.w3.org/2000/svg">
<path d="M31.9922 12.4502V10.5048C31.4766 10.7509 30.9492 11.0439 30.3984 11.3955L26.1445 14.0673L21.4688 14.6416C18.5391 14.9931 16.8164 16.6806 16.8164 19.1884V21.2861C16.8164 23.0673 17.8359 24.0986 19.582 24.0986H22.8047V22.3877H19.6758C18.9258 22.3877 18.5273 21.9189 18.5273 21.0752V19.1884C18.5273 17.6181 19.6523 16.5869 21.6797 16.3291L26.7188 15.708L31.3008 12.872C31.5352 12.7197 31.7695 12.5791 31.9922 12.4502ZM31.9922 24.0986V22.3877H27.7383V24.0986H31.9922ZM25.2188 26.5127C27.2461 26.5127 28.8281 24.9189 28.8281 22.9033C28.8281 20.8642 27.2461 19.2822 25.2188 19.2822C23.1914 19.2822 21.6094 20.8642 21.6094 22.9033C21.6094 24.9189 23.1914 26.5127 25.2188 26.5127ZM25.2188 24.8017C24.1406 24.8017 23.3203 23.9697 23.3203 22.9033C23.3203 21.8252 24.1406 20.9931 25.2188 20.9931C26.2852 20.9931 27.1172 21.8252 27.1172 22.9033C27.1172 23.9697 26.2852 24.8017 25.2188 24.8017ZM6.5625 26.5127C8.58984 26.5127 10.1719 24.9189 10.1719 22.9033C10.1719 20.8642 8.58984 19.2822 6.5625 19.2822C4.53516 19.2822 2.95312 20.8642 2.95312 22.9033C2.95312 24.9189 4.53516 26.5127 6.5625 26.5127ZM6.5625 24.8017C5.48438 24.8017 4.66406 23.9697 4.66406 22.9033C4.66406 21.8252 5.48438 20.9931 6.5625 20.9931C7.64062 20.9931 8.46094 21.8252 8.46094 22.9033C8.46094 23.9697 7.64062 24.8017 6.5625 24.8017ZM0 9.35645V11.0673H1.57031C4.44141 11.0673 6.76172 12.2509 8.76562 15.0283L11.3555 15.708C12.3164 15.9541 12.5742 16.5283 12.5742 17.3252V21.1572C12.5742 21.9306 12.1875 22.3877 11.5195 22.3877H8.90625V24.0986H11.8242C13.3477 24.0986 14.2852 23.1494 14.2852 21.5791V17.3252C14.2852 15.8603 13.8398 14.6064 11.8711 13.9853L9.70312 13.3173C8.33203 11.6884 5.94141 9.35645 1.57031 9.35645H0ZM0 22.3877V24.0986H4.06641V22.3877H0Z" fill="#007AFF"/>
<path d="M17.2386 0.696244L16.723 2.84078L14.0628 0.110306C13.8401 -0.124069 13.5472 0.0399942 13.6526 0.368119L14.6019 3.1689L13.3597 2.61812C13.0784 2.47749 12.8675 2.70015 13.0784 2.9814L13.7581 3.87203L10.5706 3.42671C10.1956 3.36812 10.1019 3.74312 10.4065 3.93062L13.4065 5.74703L11.6136 6.40328C11.2972 6.52046 11.3441 6.88374 11.6839 6.90718L13.6878 7.05953L10.9573 8.89937C10.6878 9.07515 10.805 9.48531 11.18 9.39156L14.637 8.6064L14.6722 11.5361C14.6722 11.8408 14.9769 11.8759 15.1058 11.665L17.3206 7.99703L21.0589 11.3603C21.3401 11.6064 21.6917 11.3486 21.5042 11.0087L19.2894 6.87203L21.5511 6.19234C21.7386 6.13374 21.7386 5.87593 21.5511 5.80562L19.5589 4.98531L20.9886 0.9189C21.0823 0.661088 20.8128 0.426713 20.5901 0.649369L18.2698 2.85249L17.6956 0.696244C17.6253 0.391556 17.3206 0.391556 17.2386 0.696244Z" fill="black" fill-opacity="0.85"/>
</svg>
