<svg width="42" height="29" viewBox="0 0 42 29" fill="none" xmlns="http://www.w3.org/2000/svg">
<path d="M3.05859 21.5595H4.88672C4.81641 21.208 4.75781 20.8447 4.75781 20.458C4.75781 17.9384 6.75 15.958 9.25781 15.958C11.7773 15.958 13.7578 17.9384 13.7578 20.458C13.7578 20.8447 13.7109 21.208 13.6289 21.5595H28.5586C28.4883 21.208 28.4297 20.8447 28.4297 20.458C28.4297 17.9384 30.4219 15.958 32.9297 15.958C35.4492 15.958 37.4297 17.9384 37.4297 20.458C37.4297 20.8447 37.3828 21.208 37.3008 21.5595H38.8477C40.5352 21.5595 41.5664 20.4931 41.5664 18.7587V14.0478C41.5664 12.4072 41.0742 11.0126 38.8945 10.333L36.4805 9.59473C34.957 7.77832 32.2969 5.18848 27.457 5.18848H24.7031C19.875 5.18848 17.9531 5.65723 15.0703 7.46191L10.3477 10.4267L5.14453 11.0595C1.91016 11.458 0 13.3212 0 16.1103V18.4306C0 20.4228 1.11328 21.5595 3.05859 21.5595ZM9.25781 23.5869C11.0156 23.5869 12.3984 22.2041 12.3984 20.458C12.3984 18.7119 11.0039 17.3173 9.25781 17.3173C7.52344 17.3173 6.12891 18.7119 6.12891 20.458C6.12891 22.1923 7.52344 23.5869 9.25781 23.5869ZM32.9297 23.5869C34.6758 23.5869 36.0703 22.1923 36.0703 20.458C36.0703 18.7119 34.6758 17.3173 32.9297 17.3173C31.207 17.3173 29.8008 18.7236 29.8008 20.458C29.8008 22.1923 31.1953 23.5869 32.9297 23.5869Z" fill="#FFCC00"/>
<path d="M18.609 23.3525C17.9762 23.3525 17.7066 23.8681 18.0465 24.4189L20.5894 28.5791C20.9058 29.1181 21.5387 29.0947 21.8551 28.5791L24.4098 24.4189C24.7496 23.8681 24.4566 23.3525 23.8355 23.3525H18.609Z" fill="black" fill-opacity="0.85"/>
</svg>
