<svg width="23" height="31" viewBox="0 0 23 31" fill="none" xmlns="http://www.w3.org/2000/svg">
<path d="M2.93309 27.4336C4.72606 29.2383 7.01121 30.375 9.49559 30.375C10.0932 30.375 10.5034 29.9883 10.5034 29.4375C10.5034 28.9336 10.105 28.6055 9.437 28.5586C7.51512 28.4414 5.64012 27.6445 4.17528 26.1914C2.72215 24.7266 1.92528 22.8633 1.80809 20.9297C1.7495 20.1797 1.44481 19.8867 0.858871 19.8867C0.401839 19.8867 -0.043473 20.2148 0.00340199 20.8594C0.155746 23.3438 1.11668 25.6406 2.93309 27.4336Z" fill="#007AFF"/>
<path d="M5.83861 24.5156C7.04564 25.7227 8.68627 26.3203 9.69408 26.3203C10.2449 26.3203 10.6199 25.9688 10.6199 25.4648C10.6199 24.9961 10.2918 24.6211 9.56517 24.5156C8.66283 24.4219 7.81908 24 7.0808 23.2734C6.37767 22.5586 5.96752 21.6914 5.83861 20.6953C5.73314 20.0391 5.47533 19.7695 4.90111 19.7695C4.38548 19.7695 3.97533 20.168 4.05736 20.8008C4.2097 22.2305 4.81908 23.4961 5.83861 24.5156Z" fill="#007AFF"/>
<path d="M14.8633 23.0742C19.3633 23.0742 21.3672 22.0547 21.3672 19.4648V4.25391C21.3672 1.58203 18.9062 0 14.8633 0C10.7969 0 8.33593 1.58203 8.33593 4.25391V19.4648C8.33593 22.0547 10.3516 23.0742 14.8633 23.0742ZM14.8516 9.64453C14.0312 9.64453 12.6602 9.71484 12.2031 9.71484C11.4766 9.71484 11.1484 9.41016 11.0781 8.64844L10.9375 6.96094C10.8203 5.56641 11.7344 5.03906 14.8516 5.03906C17.9687 5.03906 18.8828 5.56641 18.7656 6.96094L18.6133 8.64844C18.5547 9.41016 18.2148 9.71484 17.5 9.71484C17.0312 9.71484 15.7187 9.64453 14.8516 9.64453ZM14.8516 19.3359C11.7344 19.3359 10.7383 18.8789 10.9727 17.4375L11.0898 16.6172C11.2773 15.4688 12.168 15.1055 14.8516 15.1055C17.5352 15.1055 18.4258 15.4688 18.6016 16.6172L18.7305 17.4375C18.9531 18.8789 17.9687 19.3359 14.8516 19.3359ZM20.3711 9.23438H21.8711C22.457 9.23438 22.9023 8.78906 22.9023 8.23828V7.79297C22.9023 7.23047 22.457 6.79688 21.8711 6.79688H20.3711V9.23438ZM9.33203 9.23438V6.79688H7.83203C7.24609 6.79688 6.80078 7.23047 6.80078 7.79297V8.23828C6.80078 8.78906 7.24609 9.23438 7.83203 9.23438H9.33203Z" fill="black" fill-opacity="0.85"/>
</svg>
