<svg width="23" height="29" viewBox="0 0 23 29" fill="none" xmlns="http://www.w3.org/2000/svg">
<path d="M11.3437 1.92188C13.8632 1.92188 16.1601 2.80078 17.9061 4.37109C18.3866 4.80469 18.9374 4.91016 19.3593 4.54688C19.7929 4.16016 19.7929 3.51562 19.3007 3.05859C17.1913 1.11328 14.3788 0.0117188 11.3437 0.0117188C8.30845 0.0117188 5.49595 1.11328 3.38658 3.05859C2.89439 3.51562 2.89439 4.16016 3.32798 4.54688C3.74986 4.91016 4.30064 4.80469 4.78111 4.37109C6.5272 2.80078 8.82408 1.92188 11.3437 1.92188Z" fill="#007AFF"/>
<path d="M11.3443 6.62109C12.563 6.62109 13.6997 6.97266 14.5669 7.67578C15.0708 8.03906 15.5982 8.20312 16.02 7.82812C16.4653 7.44141 16.4771 6.73828 15.938 6.31641C14.6724 5.29688 13.0669 4.71094 11.3443 4.71094C9.62156 4.71094 8.01609 5.29688 6.75047 6.31641C6.21141 6.73828 6.22313 7.44141 6.66844 7.82812C7.09031 8.20312 7.60594 8.03906 8.12156 7.67578C9.02391 6.99609 10.1255 6.62109 11.3443 6.62109Z" fill="#007AFF"/>
<path d="M0 26.7305C0 27.4805 0.597656 28.0898 1.37109 28.0898H2.49609C3.25781 28.0898 3.85547 27.4805 3.85547 26.7305V25.4648H18.832V26.7305C18.832 27.4805 19.4297 28.0898 20.1914 28.0898H21.3281C22.0898 28.0898 22.6875 27.4805 22.6875 26.7305V20.4492C22.6875 18.832 22.4766 17.8359 21.457 16.7344L20.5312 15.7148L19.5234 12.8906C18.9609 11.2852 17.8711 10.5938 16.5234 10.4414C15.8906 10.3594 13.793 10.3125 11.3438 10.3125C8.89453 10.3125 6.79688 10.3594 6.16406 10.4414C4.81641 10.5938 3.72656 11.2852 3.16406 12.8906L2.15625 15.7148L1.23047 16.7344C0.210938 17.8359 0 18.832 0 20.4492V26.7305ZM4.875 15.7148C4.48828 15.7148 4.38281 15.4805 4.51172 15.1055L5.10938 13.3477C5.33203 12.7266 5.58984 12.5625 6.14062 12.4805C6.80859 12.3867 8.63672 12.3047 11.3438 12.3047C14.0508 12.3047 15.8789 12.3867 16.5352 12.4805C17.0859 12.5625 17.3555 12.7266 17.5781 13.3477L18.1758 15.1055C18.3047 15.4805 18.1875 15.7148 17.8008 15.7148H4.875ZM3.55078 21.6445C3.01172 21.6445 2.64844 21.2812 2.64844 20.7539V19.2656C2.64844 18.7383 3.01172 18.3867 3.55078 18.3867C4.08984 18.3867 4.44141 18.7266 4.44141 19.2656V20.7539C4.44141 21.293 4.08984 21.6445 3.55078 21.6445ZM9.17578 21.1875C8.76562 21.1875 8.53125 20.9531 8.53125 20.4844V19.5234C8.53125 19.0781 8.76562 18.8438 9.17578 18.8438H13.4766C13.8984 18.8438 14.1328 19.0781 14.1328 19.5234V20.4844C14.1328 20.9531 13.8984 21.1875 13.4766 21.1875H9.17578ZM19.2305 21.6445C18.7031 21.6445 18.3398 21.2812 18.3398 20.7539V19.2656C18.3398 18.7383 18.7031 18.3867 19.2305 18.3867C19.7695 18.3867 20.1328 18.7266 20.1328 19.2656V20.7539C20.1328 21.293 19.7695 21.6445 19.2305 21.6445Z" fill="black" fill-opacity="0.85"/>
</svg>
