<svg width="17" height="32" viewBox="0 0 17 32" fill="none" xmlns="http://www.w3.org/2000/svg">
<path d="M8.05037 29.9767C5.98787 29.9767 4.10115 29.2149 2.65975 27.9259C2.15584 27.4923 1.6285 27.4571 1.28865 27.797C0.890213 28.1837 0.91365 28.7462 1.33553 29.1798C3.08162 30.9259 5.5074 31.7345 8.05037 31.7345C10.6051 31.7345 13.0308 30.9259 14.7769 29.1798C15.1871 28.7462 15.2105 28.1837 14.8238 27.797C14.4723 27.4571 13.9449 27.4923 13.441 27.9259C11.9996 29.2149 10.1246 29.9767 8.05037 29.9767Z" fill="#007AFF"/>
<path d="M8.05073 25.8632C7.0312 25.8632 6.12886 25.5468 5.42573 24.9726C4.82807 24.5507 4.33589 24.5741 4.00776 24.914C3.64448 25.2655 3.66792 25.7811 4.04292 26.1796C4.76948 26.8827 6.35151 27.621 8.05073 27.621C9.76167 27.621 11.3437 26.8827 12.0585 26.1796C12.4335 25.7811 12.4569 25.2655 12.0937 24.914C11.7655 24.5741 11.2733 24.5507 10.6757 24.9726C9.98433 25.5468 9.08198 25.8632 8.05073 25.8632Z" fill="#007AFF"/>
<path d="M8.05078 23.0742C12.5508 23.0742 14.5781 22.0547 14.5781 19.4648V4.25391C14.5781 1.58203 12.1055 0 8.05078 0C3.99609 0 1.53516 1.58203 1.53516 4.25391V19.4648C1.53516 22.0547 3.55078 23.0742 8.05078 23.0742ZM8.05078 21.2461C4.69922 21.2461 3.38672 20.7305 3.38672 19.4062V4.25391C3.38672 2.71875 5.01562 1.85156 8.05078 1.85156C11.0977 1.85156 12.7266 2.71875 12.7266 4.25391V19.4062C12.7266 20.7305 11.4141 21.2461 8.05078 21.2461ZM2.53125 9.23438V6.79688H1.03125C0.457031 6.79688 0 7.23047 0 7.79297V8.23828C0 8.78906 0.457031 9.23438 1.03125 9.23438H2.53125ZM13.5703 9.23438H15.0703C15.6562 9.23438 16.1016 8.78906 16.1016 8.23828V7.79297C16.1016 7.23047 15.6562 6.79688 15.0703 6.79688H13.5703V9.23438ZM8.05078 9.71484C8.90625 9.71484 10.1836 9.78516 10.6172 9.78516C11.332 9.78516 11.6484 9.49219 11.7188 8.75391L11.8594 7.11328C11.9766 5.76562 11.0742 5.25 8.05078 5.25C5.02734 5.25 4.13672 5.76562 4.25391 7.11328L4.39453 8.75391C4.46484 9.49219 4.78125 9.78516 5.48438 9.78516C5.92969 9.78516 7.25391 9.71484 8.05078 9.71484ZM8.05078 19.125C11.0742 19.125 12.0352 18.6797 11.8242 17.2852L11.6953 16.4883C11.5195 15.375 10.6641 15.0234 8.05078 15.0234C5.44922 15.0234 4.58203 15.375 4.40625 16.4883L4.28906 17.2852C4.07812 18.6797 5.02734 19.125 8.05078 19.125Z" fill="black" fill-opacity="0.85"/>
</svg>
