<svg width="23" height="31" viewBox="0 0 23 31" fill="none" xmlns="http://www.w3.org/2000/svg">
<path d="M19.9688 27.4336C21.7852 25.6406 22.7461 23.3438 22.8984 20.8594C22.9453 20.2148 22.5 19.8867 22.043 19.8867C21.457 19.8867 21.1523 20.1797 21.0938 20.9297C20.9766 22.8633 20.1797 24.7266 18.7266 26.1914C17.2617 27.6445 15.3867 28.4414 13.4648 28.5586C12.7969 28.6055 12.3984 28.9336 12.3984 29.4375C12.3984 29.9883 12.8086 30.375 13.4062 30.375C15.8906 30.375 18.1758 29.2383 19.9688 27.4336Z" fill="#007AFF"/>
<path d="M17.0625 24.5156C18.082 23.4961 18.6914 22.2305 18.8438 20.8008C18.9258 20.168 18.5156 19.7695 18 19.7695C17.4258 19.7695 17.168 20.0391 17.0625 20.6953C16.9336 21.6914 16.5234 22.5586 15.8203 23.2734C15.082 24 14.2383 24.4219 13.3359 24.5156C12.6094 24.6211 12.2812 24.9961 12.2812 25.4648C12.2812 25.9688 12.6562 26.3203 13.207 26.3203C14.2148 26.3203 15.8555 25.7227 17.0625 24.5156Z" fill="#007AFF"/>
<path d="M8.03906 23.0742C12.5508 23.0742 14.5664 22.0547 14.5664 19.4648V4.25391C14.5664 1.58203 12.1055 0 8.03906 0C3.99609 0 1.53516 1.58203 1.53516 4.25391V19.4648C1.53516 22.0547 3.53906 23.0742 8.03906 23.0742ZM8.03906 21.2461C4.6875 21.2461 3.38672 20.7305 3.38672 19.4062V4.25391C3.38672 2.71875 5.00391 1.85156 8.03906 1.85156C11.0977 1.85156 12.7266 2.71875 12.7266 4.25391V19.4062C12.7266 20.7305 11.4141 21.2461 8.03906 21.2461ZM8.05078 9.71484C8.84766 9.71484 10.1836 9.78516 10.6172 9.78516C11.3203 9.78516 11.6484 9.49219 11.707 8.75391L11.8477 7.11328C11.9648 5.76562 11.0742 5.25 8.05078 5.25C5.02734 5.25 4.13672 5.76562 4.25391 7.11328L4.39453 8.75391C4.45312 9.49219 4.78125 9.78516 5.48438 9.78516C5.92969 9.78516 7.20703 9.71484 8.05078 9.71484ZM8.05078 19.125C11.0742 19.125 12.0352 18.6797 11.8125 17.2852L11.6953 16.4883C11.5195 15.375 10.6523 15.0234 8.05078 15.0234C5.44922 15.0234 4.58203 15.375 4.40625 16.4883L4.28906 17.2852C4.06641 18.6797 5.02734 19.125 8.05078 19.125ZM2.53125 9.23438V6.79688H1.03125C0.445312 6.79688 0 7.23047 0 7.79297V8.23828C0 8.78906 0.445312 9.23438 1.03125 9.23438H2.53125ZM13.5703 9.23438H15.0703C15.6562 9.23438 16.1016 8.78906 16.1016 8.23828V7.79297C16.1016 7.23047 15.6562 6.79688 15.0703 6.79688H13.5703V9.23438Z" fill="black" fill-opacity="0.85"/>
</svg>
