<svg width="42" height="20" viewBox="0 0 42 20" fill="none" xmlns="http://www.w3.org/2000/svg">
<path d="M3.05859 16.3711H6.64453V14.4844H3.16406C2.33203 14.4844 1.88672 13.9688 1.88672 13.0078V10.9219C1.88672 9.16406 3.12891 8.02734 5.39062 7.74609L10.9922 7.04297L16.0781 3.87891C18.668 2.27344 20.2266 1.88672 24.7031 1.88672H27.457C30.6445 1.88672 33.2227 3.21094 35.4375 6.29297L38.3086 7.04297C39.3867 7.3125 39.6797 7.95703 39.6797 8.85938V13.1133C39.6797 13.9688 39.2461 14.4844 38.5078 14.4844H35.6016V16.3711H38.8477C40.5352 16.3711 41.5664 15.3047 41.5664 13.582V8.85938C41.5664 7.21875 41.0742 5.82422 38.8945 5.14453L36.4805 4.40625C34.957 2.58984 32.2969 0 27.457 0H24.7031C19.875 0 17.9531 0.46875 15.0703 2.27344L10.3477 5.23828L5.14453 5.87109C1.91016 6.26953 0 8.13281 0 10.9219V13.2422C0 15.2344 1.11328 16.3711 3.05859 16.3711ZM12.1289 16.3711H30.2109V14.4844H12.1289V16.3711ZM9.31641 19.043C11.5664 19.043 13.3242 17.2852 13.3242 15.0352C13.3242 12.7852 11.5664 11.0273 9.31641 11.0273C7.06641 11.0273 5.30859 12.7852 5.30859 15.0352C5.30859 17.2852 7.06641 19.043 9.31641 19.043ZM9.31641 17.1562C8.12109 17.1562 7.19531 16.2305 7.19531 15.0352C7.19531 13.8398 8.12109 12.9141 9.31641 12.9141C10.5117 12.9141 11.4375 13.8398 11.4375 15.0352C11.4375 16.2305 10.5117 17.1562 9.31641 17.1562ZM32.9883 19.043C35.2383 19.043 36.9961 17.2852 36.9961 15.0352C36.9961 12.7852 35.2383 11.0273 32.9883 11.0273C30.7383 11.0273 28.9805 12.7852 28.9805 15.0352C28.9805 17.2852 30.7383 19.043 32.9883 19.043ZM32.9883 17.1562C31.793 17.1562 30.8672 16.2305 30.8672 15.0352C30.8672 13.8398 31.793 12.9141 32.9883 12.9141C34.1836 12.9141 35.1094 13.8398 35.1094 15.0352C35.1094 16.2305 34.1836 17.1562 32.9883 17.1562Z" fill="#007AFF"/>
<path d="M16.3594 7.88672C16.3594 9.87891 17.8242 11.2031 19.9805 11.2031H24.6445V12.2812C24.6445 12.9375 25.1133 13.1719 25.6875 12.7969L28.418 11.0039C28.8516 10.7227 28.875 10.1836 28.418 9.86719L25.6992 8.08594C25.125 7.69922 24.6445 7.92188 24.6445 8.60156V9.62109H19.9805C18.7852 9.62109 18 8.96484 18 7.98047C18 6.87891 18.7969 6.12891 19.9922 6.12891H26.8242C27.3164 6.12891 27.6562 5.8125 27.6562 5.34375C27.6562 4.875 27.3164 4.53516 26.8125 4.53516H19.9922C17.8242 4.53516 16.3594 5.89453 16.3594 7.88672Z" fill="black" fill-opacity="0.85"/>
</svg>
