<svg width="42" height="19" viewBox="0 0 42 19" fill="none" xmlns="http://www.w3.org/2000/svg">
<path d="M3.05859 16.3711H4.88672C4.81641 16.0195 4.75781 15.6562 4.75781 15.2695C4.75781 12.75 6.75 10.7695 9.25781 10.7695C11.7773 10.7695 13.7578 12.75 13.7578 15.2695C13.7578 15.6562 13.7109 16.0195 13.6289 16.3711H28.5586C28.4883 16.0195 28.4297 15.6562 28.4297 15.2695C28.4297 12.75 30.4219 10.7695 32.9297 10.7695C35.4492 10.7695 37.4297 12.75 37.4297 15.2695C37.4297 15.6562 37.3828 16.0195 37.3008 16.3711H38.8477C40.5352 16.3711 41.5664 15.3047 41.5664 13.5703V8.85938C41.5664 7.21875 41.0742 5.82422 38.8945 5.14453L36.4805 4.40625C34.957 2.58984 32.2969 0 27.457 0H24.7031C19.875 0 17.9531 0.46875 15.0703 2.27344L10.3477 5.23828L5.14453 5.87109C1.91016 6.26953 0 8.13281 0 10.9219V13.2422C0 15.2344 1.11328 16.3711 3.05859 16.3711ZM9.25781 18.3984C11.0156 18.3984 12.3984 17.0156 12.3984 15.2695C12.3984 13.5234 11.0039 12.1289 9.25781 12.1289C7.52344 12.1289 6.12891 13.5234 6.12891 15.2695C6.12891 17.0039 7.52344 18.3984 9.25781 18.3984ZM32.9297 18.3984C34.6758 18.3984 36.0703 17.0039 36.0703 15.2695C36.0703 13.5234 34.6758 12.1289 32.9297 12.1289C31.207 12.1289 29.8008 13.5352 29.8008 15.2695C29.8008 17.0039 31.1953 18.3984 32.9297 18.3984Z" fill="#FFCC00"/>
<path d="M18.609 12.9258C17.9762 12.9258 17.7066 12.4102 18.0465 11.8594L20.5894 7.69923C20.9058 7.17189 21.5387 7.1836 21.8551 7.69923L24.4098 11.8711C24.7496 12.4219 24.4566 12.9258 23.8355 12.9258H18.609Z" fill="black" fill-opacity="0.85"/>
</svg>
