<svg width="38" height="29" viewBox="0 0 38 29" fill="none" xmlns="http://www.w3.org/2000/svg">
<path d="M8.36948 9.19854L10.9359 10.6751L11.8734 9.04619L9.37728 7.60479C8.93197 7.34698 8.87338 6.99541 9.18978 6.45635L9.98667 5.0501C10.6077 3.98369 11.7093 3.74932 13.2445 4.39385L17.264 6.09307L21.8929 5.92901C24.1781 5.85869 25.2796 6.19854 28.2445 7.89776L30.0726 8.92901C32.1585 10.1243 33.2835 11.929 33.5648 14.8118L35.2406 16.4524C35.7679 16.9798 35.721 17.3665 35.4046 17.9173L33.7874 20.7298C33.4945 21.2337 33.1781 21.3392 32.7913 21.1048L30.6702 19.8978L29.721 21.5267L32.0765 22.8743C33.2952 23.5892 34.514 23.2376 35.2406 21.972L37.0452 18.8782C37.7015 17.7298 37.9241 16.511 36.6585 15.1165L35.3929 13.7454C35.0648 11.9524 34.2445 9.1751 30.9984 7.3001L29.182 6.24541C25.9476 4.38213 24.4593 3.96026 21.8226 4.04229L17.6156 4.19463L13.971 2.64776C11.5921 1.63994 9.47103 2.17901 8.34603 4.1126L7.45541 5.64776C6.6351 7.07744 6.97495 8.40166 8.36948 9.19854ZM14.1937 12.5501L26.5335 19.6868L27.4827 18.0579L15.1312 10.9212L14.1937 12.5501ZM11.4866 13.3587C13.0921 14.2845 15.0609 13.7454 15.9866 12.1634C16.9007 10.5579 16.3616 8.58916 14.7796 7.6751C13.1859 6.76104 11.2171 7.27666 10.2913 8.88213C9.37728 10.4642 9.91635 12.4446 11.4866 13.3587ZM12.4476 11.7298C11.7327 11.3196 11.5101 10.5228 11.932 9.83135C12.3187 9.11651 13.1273 8.89385 13.8421 9.30401C14.557 9.71416 14.7679 10.511 14.346 11.2142C13.9476 11.929 13.1507 12.1517 12.4476 11.7298ZM27.1663 22.4173C28.7718 23.3314 30.7288 22.7923 31.6663 21.222C32.5687 19.6048 32.0413 17.636 30.4476 16.722C28.8538 15.8196 26.8851 16.3235 25.9593 17.929C25.057 19.511 25.5726 21.4915 27.1663 22.4173ZM28.1156 20.7767C27.4124 20.3665 27.1898 19.5696 27.5999 18.8665C27.9984 18.1634 28.7952 17.9407 29.5218 18.3509C30.2249 18.761 30.4359 19.5579 30.0257 20.261C29.6156 20.9876 28.8187 21.1985 28.1156 20.7767Z" fill="#007AFF"/>
<path d="M0.13108 9.91348C-0.138452 10.3822 0.0256111 10.9565 0.459205 11.2143L30.6936 28.6635C31.1155 28.9096 31.7014 28.7572 31.9592 28.3236C32.217 27.8549 32.053 27.269 31.6311 27.0229L1.3967 9.57364C0.97483 9.32754 0.377173 9.47989 0.13108 9.91348ZM4.51389 5.48379L6.98655 1.21817C7.3967 0.503326 6.82249 -0.129486 6.09592 0.0228572L2.32249 0.714264C1.80686 0.808014 1.57249 1.20645 1.75999 1.71036L3.03733 5.30801C3.28342 6.02286 4.10374 6.18692 4.51389 5.48379Z" fill="black" fill-opacity="0.85"/>
</svg>
