<svg width="32" height="27" viewBox="0 0 32 27" fill="none" xmlns="http://www.w3.org/2000/svg">
<path d="M31.9922 11.8242V9.87891C31.4766 10.125 30.9492 10.418 30.3984 10.7695L26.1445 13.4414L21.4688 14.0156C18.5391 14.3672 16.8164 16.0547 16.8164 18.5625V20.6602C16.8164 22.4414 17.8359 23.4727 19.582 23.4727H22.8047V21.7617H19.6758C18.9258 21.7617 18.5273 21.293 18.5273 20.4492V18.5625C18.5273 16.9922 19.6523 15.9609 21.6797 15.7031L26.7188 15.082L31.3008 12.2461C31.5352 12.0938 31.7695 11.9531 31.9922 11.8242ZM31.9922 23.4727V21.7617H27.7383V23.4727H31.9922ZM25.2188 25.8867C27.2461 25.8867 28.8281 24.293 28.8281 22.2773C28.8281 20.2383 27.2461 18.6562 25.2188 18.6562C23.1914 18.6562 21.6094 20.2383 21.6094 22.2773C21.6094 24.293 23.1914 25.8867 25.2188 25.8867ZM25.2188 24.1758C24.1406 24.1758 23.3203 23.3438 23.3203 22.2773C23.3203 21.1992 24.1406 20.3672 25.2188 20.3672C26.2852 20.3672 27.1172 21.1992 27.1172 22.2773C27.1172 23.3438 26.2852 24.1758 25.2188 24.1758ZM6.5625 25.8867C8.58984 25.8867 10.1719 24.293 10.1719 22.2773C10.1719 20.2383 8.58984 18.6562 6.5625 18.6562C4.53516 18.6562 2.95312 20.2383 2.95312 22.2773C2.95312 24.293 4.53516 25.8867 6.5625 25.8867ZM6.5625 24.1758C5.48438 24.1758 4.66406 23.3438 4.66406 22.2773C4.66406 21.1992 5.48438 20.3672 6.5625 20.3672C7.64062 20.3672 8.46094 21.1992 8.46094 22.2773C8.46094 23.3438 7.64062 24.1758 6.5625 24.1758ZM0 8.73047V10.4414H1.57031C4.44141 10.4414 6.76172 11.625 8.76562 14.4023L11.3555 15.082C12.3164 15.3281 12.5742 15.9023 12.5742 16.6992V20.5312C12.5742 21.3047 12.1875 21.7617 11.5195 21.7617H8.90625V23.4727H11.8242C13.3477 23.4727 14.2852 22.5234 14.2852 20.9531V16.6992C14.2852 15.2344 13.8398 13.9805 11.8711 13.3594L9.70312 12.6914C8.33203 11.0625 5.94141 8.73047 1.57031 8.73047H0ZM0 21.7617V23.4727H4.06641V21.7617H0Z" fill="#007AFF"/>
<path d="M15.9961 8.15625C16.5586 8.15625 16.8867 7.83984 16.8984 7.23047L17.0625 1.05469C17.0742 0.457031 16.6055 0 15.9844 0C15.3516 0 14.9062 0.445312 14.918 1.04297L15.0703 7.23047C15.082 7.82812 15.4102 8.15625 15.9961 8.15625ZM15.9961 11.9648C16.6758 11.9648 17.2617 11.4375 17.2617 10.7461C17.2617 10.0664 16.6875 9.53906 15.9961 9.53906C15.3047 9.53906 14.7305 10.0781 14.7305 10.7461C14.7305 11.4258 15.3164 11.9648 15.9961 11.9648Z" fill="black" fill-opacity="0.85"/>
</svg>
