<svg width="27" height="28" viewBox="0 0 27 28" fill="none" xmlns="http://www.w3.org/2000/svg">
<g clip-path="url(#clip0_2152_15246)">
<path d="M1.525 27.5742H1.5836C5.23985 27.5742 5.54453 25.1953 7.45469 25.1953C9.30625 25.1953 9.82188 27.5742 13.0211 27.5742C16.2086 27.5742 16.7242 25.1953 18.5758 25.1953C20.4859 25.1953 20.7906 27.5742 24.4469 27.5742H24.5055C24.9625 27.5742 25.3258 27.2109 25.3258 26.7539C25.3258 26.2969 24.9625 25.9219 24.5055 25.9219H24.4469C23.1813 25.9219 22.4781 25.4062 21.5875 24.7734C20.8258 24.2227 19.8766 23.543 18.5758 23.543C17.2398 23.543 16.2789 24.2695 15.5055 24.832C14.7086 25.4531 14.0641 25.9219 13.0211 25.9219C11.9664 25.9219 11.3219 25.4531 10.525 24.832C9.75157 24.2695 8.79063 23.543 7.45469 23.543C6.15391 23.543 5.20469 24.2227 4.44297 24.7734C3.55235 25.4062 2.84922 25.9219 1.5836 25.9219H1.525C1.06797 25.9219 0.704691 26.2969 0.704691 26.7539C0.704691 27.2109 1.06797 27.5742 1.525 27.5742ZM4.51328 25.6641L6.11875 25.1953L2.00547 19.6055C1.74766 19.2656 1.9 18.8555 2.36875 18.8555H23.6617C24.1422 18.8555 24.2945 19.2656 24.025 19.6172L19.9117 25.1836L21.5289 25.6523L25.5133 20.3672C26.5914 18.9609 25.9234 17.3438 24.0719 17.3438H1.9586C0.107035 17.3438 -0.560934 18.9609 0.517191 20.3672L4.51328 25.6641ZM6.86875 5.57812C6.79844 5.89453 6.93907 6.01172 7.26719 5.98828C8.63828 5.89453 10.2672 5.8125 13.0094 5.8125C15.7516 5.8125 17.3805 5.89453 18.7516 5.98828C19.0797 6.01172 19.2203 5.89453 19.15 5.57812C18.9391 4.65234 18.5523 3.46875 18.2711 3C18.0484 2.60156 17.7789 2.4375 17.3453 2.36719C16.7359 2.28516 15.3531 2.22656 13.0094 2.22656C10.6656 2.22656 9.28282 2.28516 8.67344 2.36719C8.23985 2.4375 7.97032 2.60156 7.73594 3C7.46641 3.46875 7.07969 4.65234 6.86875 5.57812ZM6.82188 11.4141C7.61875 11.4141 8.21641 10.8164 8.21641 10.0312C8.21641 9.24609 7.61875 8.64844 6.82188 8.64844C6.03672 8.64844 5.43907 9.24609 5.43907 10.0312C5.43907 10.8164 6.03672 11.4141 6.82188 11.4141ZM10.7477 11.0859H15.2711C15.8688 11.0859 16.2789 10.6758 16.2789 10.0781C16.2789 9.49219 15.857 9.08203 15.2711 9.08203H10.7477C10.15 9.08203 9.73985 9.49219 9.73985 10.0781C9.73985 10.6758 10.15 11.0859 10.7477 11.0859ZM19.1852 11.4141C19.982 11.4141 20.5797 10.8164 20.5797 10.0312C20.5797 9.24609 19.982 8.64844 19.1852 8.64844C18.4 8.64844 17.8023 9.24609 17.8023 10.0312C17.8023 10.8164 18.4 11.4141 19.1852 11.4141ZM13.0094 13.9102C15.8922 13.9102 19.7242 13.7695 21.3648 13.582C22.6305 13.4297 23.3453 12.7031 23.3453 11.5312V10.0078C23.3453 8.50781 23.0289 7.66406 22.2203 6.62109L21.5172 5.73047C21.2008 4.17188 20.6383 2.56641 20.3336 1.92188C19.8648 0.925781 18.9273 0.292969 17.7086 0.117188C17.1344 0.046875 15.2945 0 13.0094 0C10.7594 0 8.8961 0.046875 8.32188 0.117188C7.10313 0.269531 6.16563 0.902344 5.67344 1.92188C5.38047 2.56641 4.80625 4.17188 4.48985 5.73047L3.81016 6.62109C2.98985 7.66406 2.68516 8.50781 2.68516 10.0078V11.5312C2.68516 12.7031 3.38828 13.4297 4.65391 13.582C6.29453 13.7695 10.1266 13.9102 13.0094 13.9102ZM13.0094 12.4102C10.1031 12.4102 6.35313 12.293 4.99375 12.1172C4.40782 12.0352 4.18516 11.7891 4.18516 11.1914V10.0078C4.18516 8.88281 4.34922 8.37891 4.99375 7.53516L5.90782 6.35156C6.11875 5.10938 6.69297 3.36328 7.04453 2.58984C7.30235 2.05078 7.78282 1.72266 8.49766 1.64062C9.03672 1.58203 10.7711 1.48828 13.0094 1.48828C15.2594 1.48828 17.0172 1.58203 17.4977 1.64062C18.2242 1.73438 18.7047 2.05078 18.9742 2.58984C19.3492 3.375 19.9117 5.13281 20.1109 6.35156L21.025 7.53516C21.6578 8.37891 21.8453 8.89453 21.8453 10.0078V11.1914C21.8453 11.8008 21.6109 12.0469 21.0133 12.1172C19.6539 12.2812 15.9156 12.4102 13.0094 12.4102ZM4.44297 16.0898H5.45078C6.10703 16.0898 6.61094 15.5977 6.61094 14.9531V12.9023L3.29453 12.4219V14.9531C3.29453 15.5977 3.79844 16.0898 4.44297 16.0898ZM20.568 16.0898H21.5758C22.2203 16.0898 22.7242 15.5977 22.7242 14.9531V12.4219L19.4078 12.9023L19.4195 14.9531C19.4195 15.5977 19.9117 16.0898 20.568 16.0898Z" fill="black" fill-opacity="0.85"/>
</g>
<defs>
<clipPath id="clip0_2152_15246">
<rect width="26.0305" height="27.7617" fill="white"/>
</clipPath>
</defs>
</svg>
