<svg width="42" height="20" viewBox="0 0 42 20" fill="none" xmlns="http://www.w3.org/2000/svg">
<path d="M0.867188 1.6875H4.60547C5.03906 1.6875 5.37891 1.79297 5.66016 2.07422L9.82031 6.22266L11.4141 5.34375L7.03125 0.960938C6.35156 0.28125 5.46094 0 4.39453 0H0.867188C0.328125 0 0 0.328125 0 0.832031C0 1.33594 0.328125 1.6875 0.867188 1.6875ZM3.05859 16.582H4.88672C4.81641 16.2305 4.75781 15.8672 4.75781 15.4805C4.75781 12.9609 6.75 10.9805 9.25781 10.9805C11.7773 10.9805 13.7578 12.9609 13.7578 15.4805C13.7578 15.8672 13.7109 16.2305 13.6289 16.582H28.5586C28.4883 16.2305 28.4297 15.8672 28.4297 15.4805C28.4297 12.9609 30.4219 10.9805 32.9297 10.9805C35.4492 10.9805 37.4297 12.9609 37.4297 15.4805C37.4297 15.8672 37.3828 16.2305 37.3008 16.582H38.8477C40.5352 16.582 41.5664 15.5156 41.5664 13.7812V9.07031C41.5664 7.42969 41.0742 6.03516 38.8945 5.35547L36.4805 4.61719C34.957 2.80078 32.2969 0.210938 27.457 0.210938H24.7031C19.875 0.210938 17.9531 0.679688 15.0703 2.48438L10.3477 5.44922L5.14453 6.08203C1.91016 6.48047 0 8.34375 0 11.1328V13.4531C0 15.4453 1.11328 16.582 3.05859 16.582ZM9.25781 18.6094C11.0156 18.6094 12.3984 17.2266 12.3984 15.4805C12.3984 13.7344 11.0039 12.3398 9.25781 12.3398C7.52344 12.3398 6.12891 13.7344 6.12891 15.4805C6.12891 17.2148 7.52344 18.6094 9.25781 18.6094ZM32.9297 18.6094C34.6758 18.6094 36.0703 17.2148 36.0703 15.4805C36.0703 13.7344 34.6758 12.3398 32.9297 12.3398C31.207 12.3398 29.8008 13.7461 29.8008 15.4805C29.8008 17.2148 31.1953 18.6094 32.9297 18.6094Z" fill="black" fill-opacity="0.85"/>
</svg>
