<svg width="34" height="18" viewBox="0 0 34 18" fill="none" xmlns="http://www.w3.org/2000/svg">
<path d="M0.961085 17.5664H2.48452C3.18765 17.5664 3.53921 17.2266 3.73843 16.7227L10.2072 0.75C10.3712 0.363281 10.1837 0.0234375 9.77358 0.0234375H9.01187C8.60171 0.0234375 8.3439 0.222656 8.16812 0.574219L0.140772 16.2656C-0.187353 16.8633 0.047022 17.5664 0.961085 17.5664ZM31.2892 17.5664H32.8244C33.7267 17.5664 33.9611 16.8633 33.633 16.2656L25.6173 0.574219C25.4298 0.222656 25.172 0.0234375 24.7619 0.0234375H24.0001C23.59 0.0234375 23.4142 0.363281 23.5666 0.75L30.0353 16.7227C30.2345 17.2266 30.5861 17.5664 31.2892 17.5664Z" fill="#007AFF"/>
<path d="M9.44531 13.6875C9.44531 14.1445 9.80859 14.5078 10.2657 14.5078H11.004C11.4727 14.5078 11.8243 14.1445 11.8243 13.6875V12.7852H21.7852V13.6875C21.7852 14.1445 22.1485 14.5078 22.6172 14.5078H23.3438C23.8125 14.5078 24.1758 14.1445 24.1758 13.6875V9.52734C24.1758 8.48438 24.0235 7.85156 23.379 7.14844L22.7579 6.46875L22.1016 4.59375C21.75 3.57422 21.0586 3.15234 20.1915 3.04688C19.7813 3 18.4219 2.96484 16.8047 2.96484C15.1993 2.96484 13.8399 3 13.418 3.04688C12.5508 3.15234 11.8711 3.57422 11.5079 4.59375L10.8633 6.46875L10.2305 7.14844C9.58593 7.85156 9.44531 8.48438 9.44531 9.52734V13.6875ZM12.5625 6.50391C12.2696 6.50391 12.1641 6.28125 12.2579 6.01172L12.6446 4.85156C12.7852 4.41797 13.0196 4.27734 13.3946 4.23047C13.8282 4.17188 15.0352 4.125 16.8047 4.125C18.586 4.125 19.7813 4.17188 20.2149 4.23047C20.5899 4.27734 20.8243 4.41797 20.9649 4.85156L21.3633 6.01172C21.4571 6.28125 21.3399 6.50391 21.0469 6.50391H12.5625ZM11.6954 10.3945C11.3086 10.3945 11.0274 10.1133 11.0274 9.72656V8.75391C11.0274 8.37891 11.3086 8.09766 11.6954 8.09766C12.0821 8.09766 12.3633 8.36719 12.3633 8.75391V9.72656C12.3633 10.1133 12.0821 10.3945 11.6954 10.3945ZM15.3868 10.0898C15.0821 10.0898 14.8829 9.89062 14.8829 9.5625V8.92969C14.8829 8.60156 15.0821 8.40234 15.3868 8.40234H18.1993C18.5157 8.40234 18.7149 8.60156 18.7149 8.92969V9.5625C18.7149 9.89062 18.5157 10.0898 18.1993 10.0898H15.3868ZM21.9727 10.3945C21.6094 10.3945 21.3165 10.1016 21.3165 9.72656V8.75391C21.3165 8.37891 21.6094 8.09766 21.9727 8.09766C22.3594 8.09766 22.6407 8.36719 22.6407 8.75391V9.72656C22.6407 10.1133 22.3594 10.3945 21.9727 10.3945Z" fill="black" fill-opacity="0.85"/>
</svg>
