<svg width="42" height="35" viewBox="0 0 42 35" fill="none" xmlns="http://www.w3.org/2000/svg">
<path d="M3.05859 24.0469H6.64453V22.1602H3.16406C2.33203 22.1602 1.88672 21.6445 1.88672 20.6836V18.5977C1.88672 16.8398 3.12891 15.7031 5.39062 15.4219L10.9922 14.7188L16.0781 11.5547C18.668 9.94922 20.2266 9.5625 24.7031 9.5625H27.457C30.6445 9.5625 33.2227 10.8867 35.4375 13.9688L38.3086 14.7188C39.3867 14.9883 39.6797 15.6328 39.6797 16.5352V20.7891C39.6797 21.6445 39.2461 22.1602 38.5078 22.1602H35.6016V24.0469H38.8477C40.5352 24.0469 41.5664 22.9805 41.5664 21.2578V16.5352C41.5664 14.8945 41.0742 13.5 38.8945 12.8203L36.4805 12.082C34.957 10.2656 32.2969 7.67578 27.457 7.67578H24.7031C19.875 7.67578 17.9531 8.14453 15.0703 9.94922L10.3477 12.9141L5.14453 13.5469C1.91016 13.9453 0 15.8086 0 18.5977V20.918C0 22.9102 1.11328 24.0469 3.05859 24.0469ZM12.1289 24.0469H30.2109V22.1602H12.1289V24.0469ZM9.31641 26.7188C11.5664 26.7188 13.3242 24.9609 13.3242 22.7109C13.3242 20.4609 11.5664 18.7031 9.31641 18.7031C7.06641 18.7031 5.30859 20.4609 5.30859 22.7109C5.30859 24.9609 7.06641 26.7188 9.31641 26.7188ZM9.31641 24.832C8.12109 24.832 7.19531 23.9062 7.19531 22.7109C7.19531 21.5156 8.12109 20.5898 9.31641 20.5898C10.5117 20.5898 11.4375 21.5156 11.4375 22.7109C11.4375 23.9062 10.5117 24.832 9.31641 24.832ZM32.9883 26.7188C35.2383 26.7188 36.9961 24.9609 36.9961 22.7109C36.9961 20.4609 35.2383 18.7031 32.9883 18.7031C30.7383 18.7031 28.9805 20.4609 28.9805 22.7109C28.9805 24.9609 30.7383 26.7188 32.9883 26.7188ZM32.9883 24.832C31.793 24.832 30.8672 23.9062 30.8672 22.7109C30.8672 21.5156 31.793 20.5898 32.9883 20.5898C34.1836 20.5898 35.1094 21.5156 35.1094 22.7109C35.1094 23.9062 34.1836 24.832 32.9883 24.832Z" fill="#007AFF"/>
<path d="M19.7461 13.4297H25.6875C27.3398 13.4297 28.4531 12.3398 28.4531 10.5703V6.01172C28.4531 4.23047 27.3398 3.15234 25.6875 3.15234H19.7461C18.0938 3.15234 16.9805 4.23047 16.9805 6.01172V10.5703C16.9805 12.3398 18.0938 13.4297 19.7461 13.4297Z" fill="white"/>
<path d="M19.7695 11.8242H25.7109C26.5078 11.8242 26.8828 11.4258 26.8828 10.5703V6.01172C26.8828 5.15625 26.5078 4.75781 25.7109 4.75781H19.7695C18.9727 4.75781 18.5977 5.15625 18.5977 6.01172V10.5703C18.5977 11.4258 18.9727 11.8242 19.7695 11.8242ZM24.3516 5.10938L25.8867 5.09766V3.41016C25.8867 2.19141 26.4844 1.53516 27.4922 1.53516C28.5117 1.53516 29.0977 2.19141 29.0977 3.41016V4.40625C29.0977 4.82812 29.4492 5.17969 29.8711 5.17969C30.293 5.17969 30.6328 4.82812 30.6328 4.40625V3.53906C30.6328 1.41797 29.3672 0 27.4922 0C25.6289 0 24.3516 1.41797 24.3516 3.53906V5.10938Z" fill="black" fill-opacity="0.85"/>
</svg>
