<svg width="27" height="28" viewBox="0 0 27 28" fill="none" xmlns="http://www.w3.org/2000/svg">
<path d="M19.1723 7.49931C21.0238 6.31572 22.9223 0.983686 20.8363 0.468061C18.6918 -0.0241264 18.0238 5.6126 19.1723 7.49931ZM19.4535 7.95635C22.1723 7.96806 27.727 3.52666 25.8051 1.59306C23.8832 -0.328814 19.4418 5.22588 19.4535 7.95635ZM19.9105 8.22588C21.7855 9.39775 27.434 8.70635 26.9418 6.59697C26.4379 4.47588 21.0941 6.38603 19.9105 8.22588ZM0.680077 26.6712C1.27773 27.2806 2.1918 27.6673 3.32851 26.9525L9.21133 23.2728L7.80508 21.8783C7.48867 21.5619 7.48867 21.0931 7.79336 20.7884C8.09805 20.4837 8.5668 20.472 8.8832 20.7884L10.5473 22.429L11.8598 21.597L9.89101 19.6986C9.57461 19.3822 9.58633 18.9134 9.8793 18.6087C10.1957 18.304 10.6645 18.2923 10.9691 18.597L13.1957 20.7767L18.9145 17.1673C22.9105 14.6595 23.6254 10.7454 20.6371 7.71025L19.6293 6.69072C17.0277 4.054 13.6762 4.28838 11.2035 7.07744L14.3207 10.1478C14.6371 10.4642 14.6371 10.9212 14.3441 11.2259C14.0395 11.5423 13.5707 11.554 13.2543 11.2376L10.2543 8.30791L9.43398 9.59697L11.6723 11.7884C11.9887 12.1048 11.9887 12.5853 11.684 12.8783C11.3676 13.1829 10.9105 13.1947 10.5941 12.8783L8.60195 10.9447L0.37539 23.9876C-0.28086 25.0423 -0.0113295 25.9798 0.680077 26.6712Z" fill="black" fill-opacity="0.85"/>
</svg>
