<svg width="34" height="25" viewBox="0 0 34 25" fill="none" xmlns="http://www.w3.org/2000/svg">
<path d="M33.3302 19.8398C34.2912 16.3359 31.7365 14.8125 25.467 14.8125C22.5138 14.8125 19.5373 15.0586 16.9709 15.5039L17.5216 16.1953C17.8966 11.2148 16.4552 7.05469 13.7248 5.12109L13.9474 6.25781C15.0021 2.61328 12.7756 0 10.0216 0C7.74818 0 6.51771 1.64062 7.17396 4.24219L11.5802 22.125C12.0138 23.8828 13.174 24.8203 14.8966 24.8203H28.8185C31.2326 24.8203 32.299 23.6602 33.3302 19.8398ZM31.5256 19.3359C30.6584 22.5117 30.1193 22.9336 28.8185 22.9336H14.8966C14.1232 22.9336 13.6193 22.4883 13.4084 21.668L8.97865 3.75C8.6974 2.60156 9.16615 1.88672 10.0334 1.88672C11.3693 1.88672 12.5881 3.10547 12.2599 5.30859C12.1427 6.10547 12.2248 6.33984 12.6701 6.70312C14.7326 8.23828 15.881 11.7891 15.799 16.1953C15.799 16.9102 16.2443 17.3672 16.9591 17.3555C18.2951 17.2617 21.2951 16.6992 25.467 16.6992C30.6115 16.6992 32.0295 17.4609 31.5256 19.3359Z" fill="#007AFF"/>
<path d="M6.1187 11.4727L4.79448 6.43357C4.63042 5.8242 4.0562 5.67186 3.61089 6.1406L0.247609 9.67967C-0.185985 10.1133 -0.0336417 10.7227 0.575734 10.8984L5.22808 12.293C5.86089 12.4805 6.28276 12.082 6.1187 11.4727Z" fill="black" fill-opacity="0.85"/>
<path d="M18.9282 7.28901C19.0923 7.91011 19.6548 8.02729 20.1001 7.55854L23.4751 4.04292C23.9087 3.59761 23.7446 2.99995 23.1587 2.82417L18.4712 1.41792C17.8618 1.23042 17.4399 1.64057 17.604 2.23823L18.9282 7.28901Z" fill="black" fill-opacity="0.85"/>
</svg>
