<svg width="27" height="34" viewBox="0 0 27 34" fill="none" xmlns="http://www.w3.org/2000/svg">
<path d="M0.196487 19.8398C1.22774 23.6602 2.29414 24.832 4.70821 24.832H18.6184C20.3527 24.832 21.5129 23.8828 21.9465 22.125L26.3527 4.24219C26.9973 1.65234 25.7785 0 23.4934 0C20.7395 0 18.5129 2.61328 19.5793 6.25781L19.802 5.12109C17.0715 7.06641 15.6301 11.2148 16.0051 16.1953L16.5441 15.5156C13.9895 15.0586 11.0129 14.8125 8.05977 14.8125C1.79024 14.8125 -0.764451 16.3359 0.196487 19.8398ZM2.00117 19.3477C1.48555 17.4609 2.91524 16.6992 8.05977 16.6992C12.2316 16.6992 15.2316 17.2617 16.5676 17.3555C17.2824 17.3672 17.7277 16.9219 17.716 16.207C17.634 11.7891 18.7941 8.23828 20.8449 6.70312C21.2902 6.33984 21.384 6.10547 21.2551 5.30859C20.9387 3.10547 22.1574 1.88672 23.4934 1.88672C24.3605 1.88672 24.8293 2.60156 24.548 3.75L20.1066 21.668C19.9074 22.4883 19.4035 22.9453 18.6184 22.9453H4.70821C3.39571 22.9453 2.85664 22.5117 2.00117 19.3477Z" fill="#007AFF"/>
<path d="M14.5645 32.9767C14.5645 33.6095 15.0801 33.879 15.6309 33.5392L19.791 31.0079C20.3184 30.6798 20.3067 30.0587 19.791 29.7423L15.6192 27.1876C15.0684 26.8478 14.5645 27.1407 14.5645 27.7618V32.9767Z" fill="black" fill-opacity="0.85"/>
<path d="M8.48194 32.9767V27.7618C8.48194 27.1407 7.97804 26.8478 7.42726 27.1876L3.2671 29.7423C2.73976 30.0587 2.72804 30.6798 3.2671 31.0079L7.42726 33.5392C7.97804 33.879 8.48194 33.6095 8.48194 32.9767Z" fill="black" fill-opacity="0.85"/>
</svg>
