<svg width="27" height="25" viewBox="0 0 27 25" fill="none" xmlns="http://www.w3.org/2000/svg">
<path d="M0.196487 19.8281C1.22774 23.6484 2.29414 24.8086 4.70821 24.8086H18.384C20.1184 24.8086 21.2785 23.8711 21.7121 22.1133L26.1184 4.23047C26.8332 1.3125 25.3801 0 23.6926 0C21.4543 0 19.0168 2.39062 20.3879 6.25781L20.7277 4.81641C17.2004 6.66797 15.5949 10.957 16.2395 16.1953L16.6613 15.6094C14.2473 15.1055 11.0949 14.8008 8.05977 14.8008C1.79024 14.8008 -0.764451 16.3242 0.196487 19.8281Z" fill="#007AFF"/>
<path d="M5.63477 10.7109C7.76758 10.7109 9.20899 9.58594 9.20899 7.89844C9.20899 6.69141 8.30664 5.73047 7.06445 5.57812C8.07227 5.41406 8.88086 4.47656 8.88086 3.38672C8.88086 1.94531 7.56836 0.890625 5.7168 0.890625C4.04102 0.890625 2.77539 1.67578 2.48242 2.92969C2.44727 3.07031 2.43555 3.16406 2.43555 3.33984C2.43555 3.73828 2.72852 4.03125 3.17383 4.03125C3.53711 4.03125 3.77149 3.85547 3.90039 3.48047C4.13477 2.69531 4.80274 2.25 5.69336 2.25C6.67774 2.25 7.31055 2.74219 7.31055 3.55078C7.31055 4.38281 6.5957 4.99219 5.64649 4.99219H5.00195C4.62695 4.99219 4.33399 5.26172 4.33399 5.64844C4.33399 6.03516 4.61524 6.31641 5.00195 6.31641H5.7168C6.85352 6.31641 7.63867 6.92578 7.63867 7.83984C7.63867 8.73047 6.8418 9.33984 5.6582 9.33984C4.68555 9.33984 3.99414 8.90625 3.71289 8.10938C3.57227 7.74609 3.33789 7.58203 2.98633 7.58203C2.55274 7.58203 2.24805 7.875 2.24805 8.29688C2.24805 8.44922 2.25977 8.51953 2.29492 8.66016C2.56445 9.86719 3.95899 10.7109 5.63477 10.7109Z" fill="black" fill-opacity="0.85"/>
</svg>
