<svg width="27" height="33" viewBox="0 0 27 33" fill="none" xmlns="http://www.w3.org/2000/svg">
<path d="M0.196487 19.8398C1.22774 23.6602 2.29414 24.8203 4.70821 24.8203H18.6184C20.3527 24.8203 21.5129 23.8828 21.9465 22.1133L26.3527 4.23047C26.9973 1.64062 25.7785 0 23.4934 0C20.7395 0 18.5129 2.61328 19.5793 6.24609L19.802 5.12109C17.0715 7.05469 15.6301 11.2031 16.0051 16.1953L16.5441 15.5039C13.9895 15.0469 11.0129 14.8125 8.05977 14.8125C1.79024 14.8125 -0.764451 16.3359 0.196487 19.8398ZM2.00117 19.3359C1.48555 17.4492 2.91524 16.6992 8.05977 16.6992C12.2316 16.6992 15.2316 17.2617 16.5676 17.3555C17.2824 17.3672 17.7277 16.9102 17.716 16.1953C17.634 11.7891 18.7941 8.22656 20.8449 6.69141C21.2902 6.32812 21.384 6.10547 21.2551 5.29687C20.9387 3.10547 22.1574 1.88672 23.4934 1.88672C24.3605 1.88672 24.8293 2.58984 24.548 3.73828L20.1066 21.6562C19.9074 22.4883 19.4035 22.9336 18.6184 22.9336H4.70821C3.39571 22.9336 2.85664 22.5117 2.00117 19.3359Z" fill="#007AFF"/>
<path d="M6.35963 26.6133C5.72682 26.6133 5.469 27.1289 5.79713 27.6797L8.32838 31.8398C8.66822 32.3789 9.2776 32.3555 9.594 31.8398L12.1487 27.6797C12.4886 27.1289 12.1956 26.6133 11.5745 26.6133H6.35963Z" fill="black" fill-opacity="0.85"/>
<path d="M6.36088 13.0312H11.5757C12.1968 13.0312 12.4898 12.5273 12.1499 11.9766L9.59525 7.81642C9.27885 7.28907 8.65775 7.27735 8.32963 7.81642L5.79838 11.9766C5.45854 12.5273 5.72807 13.0312 6.36088 13.0312Z" fill="black" fill-opacity="0.85"/>
</svg>
