<svg width="27" height="25" viewBox="0 0 27 25" fill="none" xmlns="http://www.w3.org/2000/svg">
<path d="M0.196487 19.8398C1.22774 23.6602 2.29414 24.8203 4.70821 24.8203H18.6184C20.3527 24.8203 21.5129 23.8828 21.9465 22.125L26.3527 4.24219C26.9973 1.64062 25.7785 0 23.4934 0C20.7395 0 18.5129 2.61328 19.5793 6.25781L19.802 5.12109C17.0715 7.05469 15.6301 11.2148 16.0051 16.1953L16.5441 15.5039C13.9895 15.0586 11.0129 14.8125 8.05977 14.8125C1.79024 14.8125 -0.764451 16.3359 0.196487 19.8398ZM2.00117 19.3359C1.48555 17.4609 2.91524 16.6992 8.05977 16.6992C12.2316 16.6992 15.2316 17.2617 16.5676 17.3555C17.2824 17.3672 17.7277 16.9102 17.716 16.1953C17.634 11.7891 18.7941 8.23828 20.8449 6.70312C21.2902 6.33984 21.384 6.10547 21.2551 5.30859C20.9387 3.10547 22.1574 1.88672 23.4934 1.88672C24.3605 1.88672 24.8293 2.60156 24.548 3.75L20.1066 21.668C19.9074 22.4883 19.4035 22.9336 18.6184 22.9336H4.70821C3.39571 22.9336 2.85664 22.5117 2.00117 19.3359Z" fill="#007AFF"/>
<path d="M1.45117 7.79297C1.45117 9.51562 3.02149 11.25 4.47461 11.25C5.81055 11.25 6.47852 10.0547 7.28711 7.93359L7.58008 7.875V10.1602C7.58008 11.1445 8.0957 11.6484 9.04492 11.6484C10.7559 11.6484 12.502 10.0898 12.502 8.625C12.502 7.27734 11.2949 6.60938 9.17383 5.80078L9.11524 5.50781H11.4004C12.3848 5.50781 12.8887 5.00391 12.8887 4.05469C12.8887 2.33203 11.3301 0.585938 9.86524 0.585938C8.5293 0.585938 7.84961 1.80469 7.05274 3.9375L6.74805 3.97266V1.6875C6.74805 0.714844 6.25586 0.199219 5.30664 0.199219C3.57227 0.199219 1.83789 1.76953 1.83789 3.22266C1.83789 4.55859 3.05664 5.22656 5.18945 6.03516L5.21289 6.33984H2.93945C1.95508 6.33984 1.45117 6.85547 1.45117 7.79297ZM5.99805 5.91797C5.99805 5.27344 6.51367 4.74609 7.16992 4.74609C7.81445 4.74609 8.3418 5.27344 8.3418 5.91797C8.3418 6.57422 7.81445 7.08984 7.16992 7.08984C6.52539 7.08984 5.99805 6.57422 5.99805 5.91797Z" fill="black" fill-opacity="0.85"/>
</svg>
