<svg width="27" height="25" viewBox="0 0 27 25" fill="none" xmlns="http://www.w3.org/2000/svg">
<path d="M26.3279 19.8398C27.2888 16.3359 24.7342 14.8125 18.4646 14.8125C15.5115 14.8125 12.5349 15.0586 9.96853 15.5039L10.5193 16.1953C10.8943 11.2148 9.4529 7.05469 6.72243 5.12109L6.94509 6.25781C8.0115 2.61328 5.77321 0 3.01931 0C0.74587 0 -0.47288 1.64062 0.171652 4.24219L4.5779 22.125C5.0115 23.8828 6.17165 24.8203 7.89431 24.8203H21.8162C24.2302 24.8203 25.2967 23.6602 26.3279 19.8398ZM24.5232 19.3359C23.6677 22.5117 23.1287 22.9336 21.8162 22.9336H7.89431C7.12087 22.9336 6.61696 22.4883 6.41775 21.668L1.97634 3.75C1.69509 2.60156 2.16384 1.88672 3.03103 1.88672C4.36696 1.88672 5.58571 3.10547 5.25759 5.30859C5.1404 6.10547 5.22243 6.33984 5.66775 6.70312C7.73025 8.23828 8.8904 11.7891 8.79665 16.1953C8.79665 16.9102 9.24196 17.3672 9.95681 17.3555C11.2927 17.2617 14.2927 16.6992 18.4646 16.6992C23.6092 16.6992 25.0271 17.4609 24.5232 19.3359Z" fill="#007AFF"/>
<path d="M18.1953 10.9219H23.8086C24.2539 10.9219 24.5586 10.6172 24.5586 10.1953C24.5586 9.76172 24.2422 9.45703 23.8086 9.45703H19.8359V9.42188L22.3789 6.67969C23.2812 5.71875 23.9609 4.875 23.9609 3.66797C23.9609 2.00391 22.6601 0.902344 20.6328 0.902344C19.1094 0.902344 17.7617 1.81641 17.4101 3.05859C17.375 3.23438 17.3398 3.35156 17.3398 3.50391C17.3398 3.9375 17.6211 4.23047 18.0781 4.23047C18.4765 4.23047 18.6758 3.98438 18.875 3.65625C19.1445 3.01172 19.707 2.34375 20.7031 2.34375C21.6992 2.34375 22.3672 2.92969 22.3672 3.78516C22.3672 4.54688 21.7109 5.19141 21.1015 5.85938L17.6914 9.52734C17.4922 9.72656 17.3867 9.9375 17.3867 10.1953C17.3867 10.6406 17.6914 10.9219 18.1953 10.9219Z" fill="black" fill-opacity="0.85"/>
</svg>
