<svg width="27" height="25" viewBox="0 0 27 25" fill="none" xmlns="http://www.w3.org/2000/svg">
<path d="M26.1084 19.8281C27.0694 16.3242 24.5264 14.8008 18.2452 14.8008C15.21 14.8008 12.0577 15.1055 9.6436 15.6094L10.0655 16.1953C10.71 10.957 9.10454 6.66797 5.57719 4.81641L5.91704 6.25781C7.28813 2.39062 4.85063 0 2.61235 0C0.924851 0 -0.528274 1.3125 0.186569 4.23047L4.59282 22.1133C5.02641 23.8711 6.18657 24.8086 7.92094 24.8086H21.5967C24.0108 24.8086 25.0772 23.6484 26.1084 19.8281Z" fill="black" fill-opacity="0.85"/>
<path d="M15.1758 13.3008C15.1758 14.8477 13.7929 15.7031 13.7929 16.7344C13.7929 17.3438 13.9453 17.6602 14.332 18.1758C14.8945 18.9258 13.8398 19.6758 13.2773 18.9609C12.7265 18.2695 12.4922 17.625 12.4922 16.8164C12.4922 15.2344 13.8515 14.4375 13.8515 13.3008C13.8515 12.1523 12.4922 11.3672 12.4922 9.7734C12.4922 8.98824 12.7265 8.34371 13.289 7.64058C13.8515 6.91402 14.9062 7.66402 14.3437 8.41402C13.9453 8.94137 13.7929 9.26949 13.7929 9.85543C13.7929 10.9102 15.1758 11.7656 15.1758 13.3008ZM18.9258 13.3008C18.9258 14.8477 17.5429 15.7031 17.5429 16.7344C17.5429 17.3438 17.707 17.6602 18.0937 18.1758C18.6445 18.9258 17.6015 19.6758 17.039 18.9609C16.4883 18.2695 16.2422 17.625 16.2422 16.8164C16.2422 15.2344 17.6015 14.4375 17.6015 13.3008C17.6015 12.1523 16.2422 11.3672 16.2422 9.7734C16.2422 8.98824 16.4883 8.34371 17.0508 7.64058C17.6133 6.91402 18.6562 7.66402 18.0937 8.41402C17.707 8.94137 17.5429 9.26949 17.5429 9.85543C17.5429 10.9102 18.9258 11.7656 18.9258 13.3008ZM22.6875 13.3008C22.6875 14.8477 21.3047 15.7031 21.3047 16.7344C21.3047 17.3438 21.457 17.6602 21.8437 18.1758C22.4062 18.9258 21.3515 19.6758 20.8008 18.9609C20.2383 18.2695 20.0039 17.625 20.0039 16.8164C20.0039 15.2344 21.3633 14.4375 21.3633 13.3008C21.3633 12.1523 20.0039 11.3672 20.0039 9.7734C20.0039 8.98824 20.2383 8.34371 20.8008 7.64058C21.3633 6.91402 22.4179 7.66402 21.8554 8.41402C21.457 8.94137 21.3047 9.26949 21.3047 9.85543C21.3047 10.9102 22.6875 11.7656 22.6875 13.3008Z" fill="#007AFF"/>
</svg>
