<svg width="27" height="33" viewBox="0 0 27 33" fill="none" xmlns="http://www.w3.org/2000/svg">
<path d="M26.1084 19.8281C27.0694 16.3242 24.5264 14.8008 18.2452 14.8008C15.21 14.8008 12.0577 15.0937 9.6436 15.6094L10.0655 16.1953C10.71 10.957 9.10454 6.65625 5.57719 4.81641L5.91704 6.24609C7.28813 2.39062 4.85063 0 2.61235 0C0.924851 0 -0.528274 1.3125 0.186569 4.21875L4.59282 22.1016C5.02641 23.8711 6.18657 24.8086 7.92094 24.8086H21.5967C24.0108 24.8086 25.0772 23.6484 26.1084 19.8281Z" fill="#007AFF"/>
<path d="M20.0498 26.6016H14.8349C14.2138 26.6016 13.9208 27.1172 14.2607 27.668L16.8154 31.8281C17.1318 32.3438 17.7412 32.3672 18.081 31.8281L20.6123 27.668C20.9404 27.1172 20.6826 26.6016 20.0498 26.6016Z" fill="black" fill-opacity="0.85"/>
<path d="M20.0498 13.0195C20.6826 13.0195 20.9521 12.5156 20.6123 11.9648L18.081 7.8047C17.7529 7.26563 17.1318 7.27735 16.8154 7.8047L14.2607 11.9648C13.9208 12.5156 14.2138 13.0195 14.8349 13.0195H20.0498Z" fill="black" fill-opacity="0.85"/>
</svg>
