<svg width="24" height="24" viewBox="0 0 24 24" fill="none" xmlns="http://www.w3.org/2000/svg">
<path d="M11.9531 23.918C18.4922 23.918 23.9062 18.5039 23.9062 11.9648C23.9062 5.4375 18.4805 0.0117188 11.9414 0.0117188C5.41406 0.0117188 0 5.4375 0 11.9648C0 18.5039 5.42578 23.918 11.9531 23.918Z" fill="#FFCC00"/>
<path d="M9.92578 16.0547C8.83594 16.0547 8.20312 15.5508 8.0625 14.5898L7.11328 7.91016H5.23828C4.86328 7.91016 4.60547 7.65234 4.60547 7.27734C4.60547 6.89062 4.86328 6.63281 5.23828 6.63281H7.28906C7.83984 6.63281 8.27344 6.98438 8.34375 7.5L8.44922 8.30859H18.2227C18.5742 8.30859 18.7852 8.51953 18.7852 8.8125C18.7852 8.85938 18.7734 8.96484 18.75 9.03516L18.2695 12.3164C18.1406 13.1953 17.6836 13.7344 16.7812 13.7344H9.24609L9.29297 14.1914C9.33984 14.5664 9.58594 14.7891 9.94922 14.7891H16.5C16.875 14.7891 17.1211 15.0352 17.1211 15.4102C17.1211 15.8086 16.875 16.0547 16.5 16.0547H9.92578ZM10.1133 19.0195C9.51562 19.0195 9.03516 18.5508 9.03516 17.9414C9.03516 17.3203 9.51562 16.8516 10.1133 16.8516C10.7227 16.8516 11.2031 17.3203 11.2031 17.9414C11.2031 18.5508 10.7227 19.0195 10.1133 19.0195ZM15.5156 19.0195C14.918 19.0195 14.4141 18.5508 14.4141 17.9414C14.4141 17.3203 14.918 16.8516 15.5156 16.8516C16.125 16.8516 16.6055 17.3203 16.6055 17.9414C16.6055 18.5508 16.125 19.0195 15.5156 19.0195Z" fill="black" fill-opacity="0.85"/>
</svg>
