<svg width="32" height="28" viewBox="0 0 32 28" fill="none" xmlns="http://www.w3.org/2000/svg">
<path d="M6.30469 27.293H7.58203C8.87109 27.293 9.57422 26.6953 9.57422 25.5586C9.57422 24.7617 8.94141 24.082 7.72266 23.8477V21.0117C7.72266 19.8281 7.95703 19.1133 8.69531 17.9531C10.8164 18.7383 12.1523 18.9844 13.8164 18.9844C15.75 18.9844 17.8594 18.6797 18.9727 18.3398C19.2656 19.3242 19.5352 20.4141 19.5352 21.5859C19.5352 22.9805 19.3711 24.3867 19.3711 25.5C19.3711 26.6953 20.0508 27.293 21.3047 27.293H22.6992C23.9531 27.293 24.7031 26.6367 24.7031 25.5586C24.7031 24.6445 24.2109 24.0586 23.1562 23.9062V22.6172C23.1562 16.1484 27.8203 17.9648 27.9375 9.98438C30.0938 9.82031 31.6289 8.4375 31.6289 7.40625C31.6289 5.88281 30.0352 4.32422 28.1836 3C27.8203 1.67578 27.0703 0.632812 26.5312 0.632812C26.0156 0.632812 25.1367 1.61719 24.7266 3.08203C23.7656 4.03125 22.9688 5.17969 22.3828 6.24609L21.9375 7.01953C21.5156 7.81641 21.1523 8.30859 20.6484 8.30859C15.9258 8.30859 14.1914 7.65234 9.82031 7.65234C7.74609 7.65234 6.44531 8.35547 5.63672 9.31641C5.19141 9.82031 4.88672 9.94922 4.16016 9.65625C2.71875 9.11719 1.69922 7.69922 1.69922 5.88281C1.69922 3.45703 3.62109 1.78125 6.36328 1.78125C7.40625 1.78125 8.46094 1.99219 9.70312 2.49609C10.8984 2.96484 11.4844 1.37109 10.3711 0.902344C8.92969 0.328125 7.58203 0.0820312 6.36328 0.0820312C2.61328 0.0820312 0 2.46094 0 5.88281C0 8.40234 1.32422 10.3828 3.38672 11.1797C4.01953 11.4375 4.28906 11.8945 4.27734 12.5625C4.24219 13.3008 4.24219 13.8164 4.24219 14.168C4.24219 18.0703 2.55469 18.5977 3.02344 20.3438L4.47656 25.7461C4.75781 26.7773 5.36719 27.293 6.30469 27.293ZM27.9961 6.60938C27.6094 6.60938 27.3047 6.31641 27.3047 5.92969C27.3047 5.54297 27.6094 5.23828 27.9961 5.23828C28.3711 5.23828 28.6758 5.54297 28.6758 5.92969C28.6758 6.31641 28.3711 6.60938 27.9961 6.60938Z" fill="black" fill-opacity="0.85"/>
</svg>
