<svg width="22" height="22" viewBox="0 0 22 22" fill="none" xmlns="http://www.w3.org/2000/svg">
<path d="M3.67969 21.5977H17.8945C20.3555 21.5977 21.5742 20.3789 21.5742 17.9648V3.65625C21.5742 1.24219 20.3555 0.0234375 17.8945 0.0234375H3.67969C1.23047 0.0234375 0 1.23047 0 3.65625V17.9648C0 20.3906 1.23047 21.5977 3.67969 21.5977ZM3.70312 19.7109C2.53125 19.7109 1.88672 19.0898 1.88672 17.8711V3.75C1.88672 2.53125 2.53125 1.91016 3.70312 1.91016H17.8711C19.0312 1.91016 19.6875 2.53125 19.6875 3.75V17.8711C19.6875 19.0898 19.0312 19.7109 17.8711 19.7109H3.70312Z" fill="#007AFF"/>
<path d="M6.08203 10.8164C6.08203 14.0156 7.66406 16.1016 10.1602 16.418V17.3555C10.1602 17.707 10.418 17.9414 10.7461 17.9414C11.0742 17.9414 11.3203 17.707 11.3203 17.3555V16.4297C13.1133 16.2891 14.4023 15.3047 14.9062 13.8984C14.9766 13.7109 15.0234 13.5117 15.0234 13.3008C15.0234 12.8789 14.7422 12.5859 14.3086 12.5859C13.9102 12.5859 13.6758 12.8086 13.5469 13.207C13.2891 14.168 12.4453 14.8594 11.3203 15.0117V6.65625C12.375 6.83203 13.207 7.55859 13.4648 8.48438C13.6055 8.92969 13.8164 9.09375 14.2266 9.09375C14.6602 9.09375 14.9414 8.8125 14.9414 8.37891C14.9414 8.17969 14.8945 7.98047 14.8242 7.79297C14.3203 6.38672 12.9844 5.39062 11.3203 5.22656V4.3125C11.3203 3.96094 11.0742 3.73828 10.7461 3.73828C10.4062 3.73828 10.1602 3.96094 10.1602 4.3125V5.23828C7.67578 5.55469 6.08203 7.66406 6.08203 10.8164ZM7.65234 10.8164C7.65234 8.57812 8.61328 7.01953 10.1602 6.69141V14.9766C8.60156 14.6367 7.65234 13.0898 7.65234 10.8164Z" fill="black" fill-opacity="0.85"/>
</svg>
