<svg width="24" height="24" viewBox="0 0 24 24" fill="none" xmlns="http://www.w3.org/2000/svg">
<path d="M11.9531 23.9062C18.4922 23.9062 23.9062 18.4805 23.9062 11.9531C23.9062 5.41406 18.4805 0 11.9414 0C5.41406 0 0 5.41406 0 11.9531C0 18.4805 5.42578 23.9062 11.9531 23.9062ZM11.9531 21.9141C6.42188 21.9141 2.00391 17.4844 2.00391 11.9531C2.00391 6.42188 6.41016 1.99219 11.9414 1.99219C17.4727 1.99219 21.9141 6.42188 21.9141 11.9531C21.9141 17.4844 17.4844 21.9141 11.9531 21.9141Z" fill="#007AFF"/>
<path d="M7.23047 11.9766C7.23047 15.1758 8.8125 17.2617 11.3086 17.5781V18.5156C11.3086 18.8672 11.5664 19.1016 11.8945 19.1016C12.2227 19.1016 12.4688 18.8672 12.4688 18.5156V17.5898C14.2617 17.4492 15.5508 16.4648 16.0547 15.0586C16.125 14.8711 16.1719 14.6719 16.1719 14.4609C16.1719 14.0391 15.8906 13.7461 15.457 13.7461C15.0586 13.7461 14.8242 13.9688 14.6953 14.3672C14.4375 15.3281 13.5938 16.0195 12.4688 16.1719V7.81641C13.5234 7.99219 14.3438 8.71875 14.6133 9.64453C14.7539 10.0898 14.9531 10.2539 15.375 10.2539C15.8086 10.2539 16.0898 9.97266 16.0898 9.53906C16.0898 9.33984 16.043 9.14062 15.9727 8.95312C15.4688 7.54688 14.1328 6.55078 12.4688 6.38672V5.47266C12.4688 5.12109 12.2227 4.89844 11.8945 4.89844C11.5547 4.89844 11.3086 5.12109 11.3086 5.47266V6.39844C8.82422 6.71484 7.23047 8.82422 7.23047 11.9766ZM8.80078 11.9766C8.80078 9.73828 9.75 8.17969 11.3086 7.85156V16.1367C9.75 15.7969 8.80078 14.25 8.80078 11.9766Z" fill="black" fill-opacity="0.85"/>
</svg>
