<svg width="17" height="27" viewBox="0 0 17 27" fill="none" xmlns="http://www.w3.org/2000/svg">
<path d="M8.95312 23.8242C12.8086 23.8242 15.5859 21.9141 16.6172 19.043C16.7461 18.6914 16.8047 18.3398 16.8164 17.9766C16.8281 17.3672 16.418 16.9453 15.7852 16.9453C15.1758 16.9453 14.8711 17.2852 14.6719 17.8945C14.0156 20.2148 11.8008 21.7734 8.96484 21.7734C4.95703 21.7734 2.35547 18.4336 2.35547 13.1016C2.35547 7.85156 4.96875 4.55859 8.95312 4.55859C11.6367 4.55859 13.8633 6.21094 14.5195 8.51953C14.7305 9.19922 15.0234 9.46875 15.6328 9.46875C16.2656 9.46875 16.6758 9.04688 16.6641 8.42578C16.6523 8.07422 16.5938 7.74609 16.4766 7.41797C15.4102 4.45312 12.4688 2.50781 8.95312 2.50781C3.55078 2.50781 0 6.62109 0 13.1016C0 19.6641 3.52734 23.8242 8.95312 23.8242ZM8.77734 26.2852C9.19922 26.2852 9.53906 25.9453 9.53906 25.5234V0.84375C9.53906 0.421875 9.19922 0.0820312 8.77734 0.0820312C8.35547 0.0820312 8.01562 0.421875 8.01562 0.84375V25.5234C8.01562 25.9453 8.35547 26.2852 8.77734 26.2852Z" fill="black" fill-opacity="0.85"/>
</svg>
