<svg width="32" height="21" viewBox="0 0 32 21" fill="none" xmlns="http://www.w3.org/2000/svg">
<path d="M27.5508 20.3438H30.3984C31.125 20.3438 31.6172 19.8281 31.6172 19.0664V1.27734C31.6172 0.515625 31.125 0 30.3984 0H27.5508C26.8242 0 26.3203 0.515625 26.3203 1.27734V19.0664C26.3203 19.8281 26.8242 20.3438 27.5508 20.3438Z" fill="black" fill-opacity="0.85"/>
<path d="M18.7852 20.3438H21.6094C22.3359 20.3438 22.8398 19.8281 22.8398 19.0664V5.90625C22.8398 5.14453 22.3359 4.62891 21.6094 4.62891H18.7852C18.0469 4.62891 17.5547 5.14453 17.5547 5.90625V19.0664C17.5547 19.8281 18.0469 20.3438 18.7852 20.3438Z" fill="black" fill-opacity="0.85"/>
<path d="M10.0078 20.3438H12.832C13.5703 20.3438 14.0625 19.8281 14.0625 19.0664V10.1484C14.0625 9.38672 13.5703 8.87109 12.832 8.87109H10.0078C9.26953 8.87109 8.77734 9.38672 8.77734 10.1484V19.0664C8.77734 19.8281 9.26953 20.3438 10.0078 20.3438Z" fill="black" fill-opacity="0.85"/>
<path d="M1.23047 20.3438H4.05469C4.79297 20.3438 5.28516 19.8281 5.28516 19.0664V13.8047C5.28516 13.043 4.79297 12.5391 4.05469 12.5391H1.23047C0.492188 12.5391 0 13.043 0 13.8047V19.0664C0 19.8281 0.492188 20.3438 1.23047 20.3438Z" fill="black" fill-opacity="0.85"/>
</svg>
