<svg width="24" height="24" viewBox="0 0 24 24" fill="none" xmlns="http://www.w3.org/2000/svg">
<path d="M11.9531 23.9062C18.4922 23.9062 23.9062 18.4805 23.9062 11.9531C23.9062 5.41406 18.4805 0 11.9414 0C5.41406 0 0 5.41406 0 11.9531C0 18.4805 5.42578 23.9062 11.9531 23.9062ZM11.9531 21.9141C6.42188 21.9141 2.00391 17.4844 2.00391 11.9531C2.00391 6.42188 6.41016 1.99219 11.9414 1.99219C17.4727 1.99219 21.9141 6.42188 21.9141 11.9531C21.9141 17.4844 17.4844 21.9141 11.9531 21.9141Z" fill="#007AFF"/>
<path d="M8.03906 11.9531C8.03906 14.3789 9.33984 15.9727 11.3555 16.2422V17.1211C11.3555 17.4609 11.6016 17.6953 11.9297 17.6953C12.2695 17.6953 12.5156 17.4609 12.5156 17.1211V16.2539C14.0039 16.0781 15.0586 15.2344 15.3984 14.1914C15.4336 14.0625 15.4688 13.9219 15.4688 13.7812C15.4688 13.3711 15.1758 13.0898 14.7656 13.0898C14.4375 13.0898 14.2148 13.2773 14.0859 13.582C13.8164 14.25 13.2891 14.7188 12.5156 14.8711V9.03516C13.2773 9.1875 13.8047 9.66797 14.0742 10.3125C14.2148 10.6523 14.4492 10.8281 14.7773 10.8281C15.1875 10.8281 15.457 10.5469 15.457 10.125C15.457 9.98438 15.4219 9.85547 15.3867 9.73828C15.0469 8.69531 13.9805 7.83984 12.5156 7.66406V6.79688C12.5156 6.45703 12.2695 6.21094 11.9297 6.21094C11.6016 6.21094 11.3555 6.45703 11.3555 6.79688V7.67578C9.33984 7.94531 8.03906 9.55078 8.03906 11.9531ZM9.52734 11.9531C9.52734 10.3711 10.2305 9.33984 11.3555 9.05859V14.8477C10.2305 14.5781 9.52734 13.5586 9.52734 11.9531Z" fill="black" fill-opacity="0.85"/>
</svg>
