<svg width="22" height="22" viewBox="0 0 22 22" fill="none" xmlns="http://www.w3.org/2000/svg">
<path d="M3.67969 21.5977H17.8945C20.3555 21.5977 21.5742 20.3789 21.5742 17.9648V3.65625C21.5742 1.24219 20.3555 0.0234375 17.8945 0.0234375H3.67969C1.23047 0.0234375 0 1.23047 0 3.65625V17.9648C0 20.3906 1.23047 21.5977 3.67969 21.5977ZM3.70312 19.7109C2.53125 19.7109 1.88672 19.0898 1.88672 17.8711V3.75C1.88672 2.53125 2.53125 1.91016 3.70312 1.91016H17.8711C19.0312 1.91016 19.6875 2.53125 19.6875 3.75V17.8711C19.6875 19.0898 19.0312 19.7109 17.8711 19.7109H3.70312Z" fill="#007AFF"/>
<path d="M6.89062 10.793C6.89062 13.2188 8.19141 14.8125 10.207 15.082V15.9609C10.207 16.3008 10.4531 16.5352 10.7812 16.5352C11.1211 16.5352 11.3672 16.3008 11.3672 15.9609V15.0938C12.8555 14.918 13.9102 14.0742 14.25 13.0312C14.2852 12.9023 14.3203 12.7617 14.3203 12.6211C14.3203 12.2109 14.0273 11.9297 13.6172 11.9297C13.3008 11.9297 13.0664 12.1172 12.9375 12.4219C12.6797 13.0898 12.1523 13.5586 11.3672 13.7109V7.875C12.1406 8.02734 12.668 8.50781 12.9258 9.15234C13.0664 9.49219 13.3008 9.66797 13.6289 9.66797C14.0391 9.66797 14.3086 9.38672 14.3086 8.96484C14.3086 8.82422 14.2734 8.69531 14.2383 8.57812C13.8984 7.53516 12.8438 6.67969 11.3672 6.50391V5.63672C11.3672 5.29688 11.1211 5.05078 10.7812 5.05078C10.4531 5.05078 10.207 5.29688 10.207 5.63672V6.51562C8.19141 6.78516 6.89062 8.39062 6.89062 10.793ZM8.37891 10.793C8.37891 9.21094 9.08203 8.17969 10.207 7.89844V13.6875C9.08203 13.418 8.37891 12.3984 8.37891 10.793Z" fill="black" fill-opacity="0.85"/>
</svg>
