<svg width="22" height="22" viewBox="0 0 22 22" fill="none" xmlns="http://www.w3.org/2000/svg">
<path d="M3.67969 21.5977H17.8945C20.3555 21.5977 21.5742 20.3789 21.5742 17.9648V3.65625C21.5742 1.24219 20.3555 0.0234375 17.8945 0.0234375H3.67969C1.23047 0.0234375 0 1.23047 0 3.65625V17.9648C0 20.3906 1.23047 21.5977 3.67969 21.5977Z" fill="#FFCC00"/>
<path d="M6.76172 10.793C6.76172 8.30859 8.09766 6.65625 10.1836 6.375V5.47266C10.1836 5.12109 10.4414 4.86328 10.7812 4.86328C11.1328 4.86328 11.3789 5.12109 11.3789 5.47266V6.36328C12.9023 6.55078 13.9922 7.42969 14.3438 8.50781C14.3789 8.625 14.4141 8.75391 14.4141 8.90625C14.4141 9.33984 14.1328 9.63281 13.7109 9.63281C13.3711 9.63281 13.125 9.45703 12.9844 9.10547C12.7148 8.4375 12.1758 7.94531 11.3789 7.78125V13.8047C12.1875 13.6406 12.7266 13.1602 12.9961 12.4688C13.125 12.1641 13.3711 11.9648 13.6992 11.9648C14.1211 11.9648 14.4258 12.2578 14.4258 12.6797C14.4258 12.832 14.3906 12.9727 14.3555 13.1016C14.0039 14.1797 12.9141 15.0469 11.3789 15.2344V16.125C11.3789 16.4766 11.1328 16.7227 10.7812 16.7227C10.4414 16.7227 10.1836 16.4766 10.1836 16.125V15.2227C8.09766 14.9414 6.76172 13.3008 6.76172 10.793ZM8.29688 10.793C8.29688 12.4453 9.02344 13.5 10.1836 13.7695V7.81641C9.02344 8.09766 8.29688 9.16406 8.29688 10.793Z" fill="black" fill-opacity="0.85"/>
</svg>
