<svg width="14" height="22" viewBox="0 0 14 22" fill="none" xmlns="http://www.w3.org/2000/svg">
<path d="M7.38281 18.9844C10.6523 18.9844 13.0195 17.3086 13.7461 15.1289C13.8047 14.9297 13.8633 14.707 13.8633 14.4609C13.8633 13.8633 13.4414 13.4648 12.8438 13.4648C12.3633 13.4648 12.0586 13.7695 11.8594 14.2266C11.168 15.9023 9.71484 17.0742 7.39453 17.0742C4.28906 17.0742 2.20312 14.8828 2.20312 10.8867C2.20312 6.97266 4.26562 4.6875 7.37109 4.6875C9.69141 4.6875 11.1445 5.87109 11.8242 7.52344C12.0234 8.02734 12.375 8.30859 12.8672 8.30859C13.4531 8.30859 13.8398 7.89844 13.8398 7.3125C13.8398 7.06641 13.7812 6.84375 13.7227 6.64453C12.9844 4.47656 10.6289 2.77734 7.35938 2.77734C2.92969 2.77734 0 5.94141 0 10.8867C0 15.9023 2.92969 18.9844 7.38281 18.9844ZM7.27734 21.7734C7.71094 21.7734 8.05078 21.4688 8.05078 21.0117V0.761719C8.05078 0.304688 7.71094 0 7.27734 0C6.84375 0 6.51562 0.304688 6.51562 0.761719V21.0117C6.51562 21.4688 6.84375 21.7734 7.27734 21.7734Z" fill="black" fill-opacity="0.85"/>
</svg>
