<svg width="24" height="24" viewBox="0 0 24 24" fill="none" xmlns="http://www.w3.org/2000/svg">
<path d="M11.9531 23.9062C18.4922 23.9062 23.9062 18.4805 23.9062 11.9531C23.9062 5.41406 18.4805 0 11.9414 0C5.41406 0 0 5.41406 0 11.9531C0 18.4805 5.42578 23.9062 11.9531 23.9062Z" fill="#FFCC00"/>
<path d="M7.92188 11.9531C7.92188 9.46875 9.2578 7.81641 11.3438 7.53516V6.63281C11.3438 6.28125 11.6016 6.02344 11.9414 6.02344C12.293 6.02344 12.5391 6.28125 12.5391 6.63281V7.52344C14.0508 7.71094 15.1523 8.58984 15.5039 9.66797C15.5391 9.78516 15.5742 9.91406 15.5742 10.0664C15.5742 10.5 15.293 10.793 14.8711 10.793C14.5312 10.793 14.2852 10.6172 14.1445 10.2656C13.8633 9.59766 13.3242 9.10547 12.5391 8.94141V14.9648C13.3359 14.8008 13.875 14.3203 14.1562 13.6289C14.2852 13.3242 14.5195 13.125 14.8594 13.125C15.2812 13.125 15.5859 13.418 15.5859 13.8398C15.5859 13.9922 15.5508 14.1328 15.5156 14.2617C15.1641 15.3398 14.0742 16.207 12.5391 16.3945V17.2852C12.5391 17.6367 12.293 17.8828 11.9414 17.8828C11.6016 17.8828 11.3438 17.6367 11.3438 17.2852V16.3828C9.2578 16.1016 7.92188 14.4609 7.92188 11.9531ZM9.45703 11.9531C9.45703 13.6055 10.1836 14.6602 11.3438 14.9297V8.97656C10.1836 9.25781 9.45703 10.3242 9.45703 11.9531Z" fill="black" fill-opacity="0.85"/>
</svg>
