<svg width="17" height="26" viewBox="0 0 17 26" fill="none" xmlns="http://www.w3.org/2000/svg">
<path d="M2.97656 8.69531H13.9688C15.3516 8.69531 16.0078 8.0625 16.0078 6.71484V1.98047C16.0078 0.632812 15.3516 0 13.9688 0H2.97656C1.59375 0 0.9375 0.632812 0.9375 1.98047V6.71484C0.9375 8.0625 1.59375 8.69531 2.97656 8.69531ZM3.63281 6.72656C3.16406 6.72656 2.90625 6.49219 2.90625 6.03516V2.64844C2.90625 2.21484 3.16406 1.96875 3.63281 1.96875H13.3125C13.7812 1.96875 14.0391 2.21484 14.0391 2.64844V6.03516C14.0391 6.49219 13.7812 6.72656 13.3125 6.72656H3.63281ZM3.33984 12.6445H5.57812V7.66406H3.33984V12.6445ZM11.3672 12.6445H13.6055V7.66406H11.3672V12.6445ZM1.93359 17.4258H15.0117C16.3008 17.4258 16.9453 16.8164 16.9453 15.5625V13.7812C16.9453 12.5273 16.3008 11.918 15.0117 11.918H1.93359C0.644531 11.918 0 12.5273 0 13.7812V15.5625C0 16.8164 0.644531 17.4258 1.93359 17.4258ZM2.47266 15.457C2.17969 15.457 1.96875 15.2695 1.96875 15V14.3438C1.96875 14.0742 2.17969 13.8867 2.47266 13.8867H14.4727C14.7656 13.8867 14.9766 14.0742 14.9766 14.3438V15C14.9766 15.2695 14.7656 15.457 14.4727 15.457H2.47266ZM2.21484 25.3711H2.57812C3.15234 25.3711 3.55078 24.9727 3.55078 24.3984V16.8164H1.24219V24.3984C1.24219 24.9727 1.64062 25.3711 2.21484 25.3711ZM2.94141 20.1562H14.0039V18.3867H2.94141V20.1562ZM14.3672 25.3711H14.7305C15.3047 25.3711 15.7031 24.9727 15.7031 24.3984V16.8164H13.3945V24.3984C13.3945 24.9727 13.793 25.3711 14.3672 25.3711Z" fill="black" fill-opacity="0.85"/>
</svg>
