<svg width="24" height="21" viewBox="0 0 24 21" fill="none" xmlns="http://www.w3.org/2000/svg">
<path d="M3.45703 6.89062H5.42578V2.92969C5.42578 2.34375 5.8125 1.96875 6.375 1.96875H16.9219C17.4961 1.96875 17.8711 2.34375 17.8711 2.92969V6.89062H19.8398V2.91797C19.8398 1.16016 18.7031 0 17.0273 0H6.28125C4.59375 0 3.45703 1.16016 3.45703 2.91797V6.89062ZM0 15.375C0 17.0625 1.11328 18.1758 2.77734 18.1758H20.5312C22.1836 18.1758 23.3086 17.0625 23.3086 15.375V8.25C23.3086 6.57422 22.1836 5.44922 20.5312 5.44922H19.1602C17.4961 5.44922 16.3828 6.57422 16.3828 8.25V11.3086H6.92578V8.25C6.92578 6.57422 5.80078 5.44922 4.14844 5.44922H2.77734C1.11328 5.44922 0 6.57422 0 8.25V15.375ZM1.99219 15.3516V8.27344C1.99219 7.75781 2.34375 7.41797 2.87109 7.41797H4.05469C4.58203 7.41797 4.93359 7.75781 4.93359 8.27344V13.2773H18.375V8.27344C18.375 7.75781 18.7266 7.41797 19.2539 7.41797H20.4375C20.9648 7.41797 21.3164 7.75781 21.3164 8.27344V15.3516C21.3164 15.8672 20.9648 16.207 20.4375 16.207H2.87109C2.34375 16.207 1.99219 15.8672 1.99219 15.3516ZM4.26562 20.5664H4.99219C5.625 20.5664 6.03516 20.168 6.03516 19.5352V17.0508H3.22266V19.5352C3.22266 20.168 3.63281 20.5664 4.26562 20.5664ZM18.3164 20.5664H19.0312C19.6641 20.5664 20.0742 20.168 20.0742 19.5352V17.0508H17.2734V19.5352C17.2734 20.168 17.6836 20.5664 18.3164 20.5664Z" fill="black" fill-opacity="0.85"/>
</svg>
