<svg width="37" height="30" viewBox="0 0 37 30" fill="none" xmlns="http://www.w3.org/2000/svg">
<path d="M18.0586 6.5625C20.918 6.5625 23.8008 4.61719 23.8008 2.12109C23.8008 1.34766 23.3789 0.820312 22.3828 0.515625C21.1406 0.152344 19.6055 0 18.0586 0C16.5234 0 14.9883 0.152344 13.7461 0.515625C12.75 0.820312 12.3281 1.34766 12.3281 2.12109C12.3281 4.61719 15.1992 6.5625 18.0586 6.5625ZM17.2969 13.4414H18.832V5.625H17.2969V13.4414ZM2.44922 18.7031C3.79688 18.7031 4.89844 17.6016 4.89844 16.2422C4.89844 14.8945 3.80859 13.793 2.44922 13.793C1.10156 13.793 0 14.8945 0 16.2422C0 17.5898 1.11328 18.7031 2.44922 18.7031ZM9.26953 18.7031C10.9336 18.7031 12.3047 17.332 12.3047 15.6797C12.3047 14.0156 10.9336 12.6445 9.26953 12.6445C7.61719 12.6445 6.25781 14.0156 6.25781 15.6797C6.25781 17.332 7.61719 18.7031 9.26953 18.7031ZM18.0703 21.457C20.4609 21.457 22.3945 19.5234 22.3945 17.1328C22.3945 14.7305 20.4609 12.7969 18.0703 12.7969C15.668 12.7969 13.7344 14.7305 13.7344 17.1328C13.7344 19.5234 15.668 21.457 18.0703 21.457ZM26.8477 18.7031C28.5 18.7031 29.8594 17.332 29.8594 15.6797C29.8594 14.0156 28.5 12.6445 26.8477 12.6445C25.1836 12.6445 23.8125 14.0156 23.8125 15.6797C23.8125 17.332 25.1836 18.7031 26.8477 18.7031ZM33.668 18.7031C35.0039 18.7031 36.1172 17.5898 36.1172 16.2422C36.1172 14.8945 35.0156 13.793 33.668 13.793C32.3086 13.793 31.2188 14.8945 31.2188 16.2422C31.2188 17.6016 32.3203 18.7031 33.668 18.7031ZM18.0703 29.8594C19.7109 29.8594 21.0703 28.5117 21.0703 26.8594C21.0703 25.207 19.7109 23.8594 18.0703 23.8594C16.418 23.8594 15.0586 25.207 15.0586 26.8594C15.0586 28.5117 16.418 29.8594 18.0703 29.8594ZM3.49219 18H1.95703C2.01562 21.8672 7.37109 23.9648 10.3125 20.8828L9.48047 19.6055C7.54688 22.0195 3.55078 20.6602 3.49219 18ZM10.0312 18H8.49609C8.42578 22.0781 13.418 23.9297 16.8516 20.7656L15.3867 19.9922C13.0312 21.7734 9.97266 20.6367 10.0312 18ZM26.0859 18C26.1445 20.6367 23.0859 21.7734 20.7305 19.9922L19.2656 20.7656C22.6992 23.9297 27.6914 22.0781 27.6211 18H26.0859ZM32.625 18C32.5664 20.6602 28.5703 22.0195 26.6367 19.6055L25.8047 20.8828C28.7461 23.9648 34.1016 21.8672 34.1602 18H32.625ZM17.2969 20.7305V24.7617H18.832V20.7305H17.2969Z" fill="black" fill-opacity="0.85"/>
</svg>
