<svg width="26" height="22" viewBox="0 0 26 22" fill="none" xmlns="http://www.w3.org/2000/svg">
<path d="M1.23047 13.5938L8.76562 9.23438L14.1914 13.8867L23.8359 8.14453L23.0977 6.94922L14.2852 12.1992L8.88281 7.57031L1.23047 11.9883V13.5938ZM8.61328 10.8164C9.76172 10.8164 10.6992 9.87891 10.6992 8.73047C10.6992 7.58203 9.76172 6.65625 8.61328 6.65625C7.46484 6.65625 6.52734 7.58203 6.52734 8.73047C6.52734 9.87891 7.46484 10.8164 8.61328 10.8164ZM14.1445 15.1172C15.293 15.1172 16.2188 14.1797 16.2188 13.0312C16.2188 11.8828 15.293 10.957 14.1445 10.957C12.9961 10.957 12.0586 11.8828 12.0586 13.0312C12.0586 14.1797 12.9961 15.1172 14.1445 15.1172ZM22.9805 9.78516C24.1289 9.78516 25.0664 8.84766 25.0664 7.69922C25.0664 6.55078 24.1289 5.61328 22.9805 5.61328C21.832 5.61328 20.8945 6.55078 20.8945 7.69922C20.8945 8.84766 21.832 9.78516 22.9805 9.78516Z" fill="black" fill-opacity="0.85"/>
<path d="M0 20.8828C0 21.4453 0.375 21.8086 0.9375 21.8086H24.2461C24.7617 21.8086 25.1953 21.3984 25.1953 20.8711C25.1953 20.3555 24.7617 19.9336 24.2461 19.9336H2.21484C1.96875 19.9336 1.88672 19.8516 1.88672 19.6055V1.07812C1.88672 0.574219 1.46484 0.140625 0.949219 0.140625C0.421875 0.140625 0 0.574219 0 1.07812V20.8828Z" fill="#007AFF"/>
</svg>
