<svg width="29" height="23" viewBox="0 0 29 23" fill="none" xmlns="http://www.w3.org/2000/svg">
<path d="M8.92969 18.6914L8.13281 17.543C7.39453 17.9883 6.52734 18.2227 5.57812 18.2227C3.57422 18.2227 2.20312 17.1445 2.20312 15.5039C2.20312 13.9102 3.49219 12.8906 5.80078 12.7383L6.65625 12.6797L6.30469 10.9805L5.54297 11.0508C1.99219 11.3555 0 12.9023 0 15.5273C0 18.2461 2.07422 20.0742 5.10938 20.0742C6.53906 20.0742 7.89844 19.5469 8.92969 18.6914ZM7.94531 6.23438L9.10547 4.54688C8.36719 4.28906 7.54688 4.16016 6.60938 4.16016C4.00781 4.16016 1.82812 5.36719 0.996094 7.14844C0.820312 7.5 0.714844 7.86328 0.714844 8.15625C0.714844 8.75391 1.11328 9.14062 1.67578 9.14062C2.09766 9.14062 2.39062 8.96484 2.57812 8.57812C3.375 6.82031 4.67578 6.07031 6.5625 6.07031C7.06641 6.07031 7.53516 6.12891 7.94531 6.23438Z" fill="#007AFF"/>
<path d="M16.875 22.7109C23.0742 22.7109 28.2305 17.5547 28.2305 11.3555C28.2305 5.15625 23.0625 0 16.8633 0C10.6641 0 5.51953 5.15625 5.51953 11.3555C5.51953 17.5547 10.6758 22.7109 16.875 22.7109Z" fill="white"/>
<path d="M16.875 22.7109C23.0742 22.7109 28.2305 17.5547 28.2305 11.3555C28.2305 5.15625 23.0625 0 16.8633 0C10.6641 0 5.51953 5.15625 5.51953 11.3555C5.51953 17.5547 10.6758 22.7109 16.875 22.7109ZM16.875 20.8008C11.6133 20.8008 7.44141 16.6172 7.44141 11.3555C7.44141 6.09375 11.6016 1.89844 16.8633 1.89844C22.125 1.89844 26.3086 6.09375 26.332 11.3555C26.3438 16.6172 22.1367 20.8008 16.875 20.8008ZM17.5547 21.6562L20.0625 21.6328V8.17969C20.0625 4.74609 17.918 2.41406 14.2969 1.91016C13.8398 1.85156 13.3594 1.81641 12.8789 1.80469L10.3477 4.38281C11.0391 4.18359 11.7891 4.07812 12.6914 4.07812C15.6562 4.07812 17.4141 5.70703 17.4141 8.44922V10.1719L11.3906 10.5352C9.64453 10.6523 8.19141 11.0391 7.08984 11.6836L7.57031 14.4258C8.28516 13.3594 9.72656 12.7266 11.7188 12.5859L17.4141 12.2109V14.2734C17.4141 17.1211 15.1172 19.3828 12.0703 19.6641L14.0039 21.3164C15.5391 20.7188 16.7695 19.7109 17.4023 18.457H17.5547V21.6562Z" fill="black" fill-opacity="0.85"/>
</svg>
