<svg width="20" height="26" viewBox="0 0 20 26" fill="none" xmlns="http://www.w3.org/2000/svg">
<path d="M3.59766 25.1133H18.7734C19.2891 25.1133 19.7109 24.7031 19.7109 24.1758C19.7109 23.7656 19.4297 23.4023 19.0547 23.2734C17.5781 22.6875 17.2734 20.7773 18.7266 19.3125C19.1719 18.8672 19.7109 18.293 19.7109 17.1211V3.67969C19.7109 1.24219 18.5039 0 16.0781 0H3.63281C1.20703 0 0 1.23047 0 3.67969V21.4922C0 23.9062 1.21875 25.1133 3.59766 25.1133ZM3.70312 23.2266C2.51953 23.2266 1.88672 22.5938 1.88672 21.4805C1.88672 20.4258 2.63672 19.7461 3.80859 19.7461H15.832C15.9844 19.7461 16.125 19.7344 16.2422 19.7109C15.6914 20.9297 15.7852 22.2188 16.4062 23.2266H3.70312ZM3.35156 17.9648C2.98828 17.9648 2.68359 17.6602 2.68359 17.2852V2.48438C2.68359 2.10938 2.98828 1.81641 3.35156 1.81641C3.71484 1.81641 4.03125 2.10938 4.03125 2.48438V17.2852C4.03125 17.6602 3.71484 17.9648 3.35156 17.9648ZM7.92188 14.4492C7.45312 14.4492 7.14844 14.1562 7.14844 13.7227C7.14844 13.5703 7.17188 13.418 7.25391 13.1836L10.1836 5.29688C10.3945 4.75781 10.7812 4.47656 11.3438 4.47656C11.918 4.47656 12.3164 4.75781 12.5273 5.29688L15.457 13.1836C15.5508 13.418 15.5742 13.5703 15.5742 13.7344C15.5742 14.1562 15.2578 14.4492 14.7891 14.4492C14.4141 14.4492 14.1445 14.2734 13.9805 13.7812L13.2188 11.5664H9.49219L8.73047 13.7812C8.56641 14.2734 8.29688 14.4492 7.92188 14.4492ZM9.91406 10.3008H12.7969L11.4141 6.26953H11.2969L9.91406 10.3008Z" fill="black" fill-opacity="0.85"/>
</svg>
