<svg width="30" height="23" viewBox="0 0 30 23" fill="none" xmlns="http://www.w3.org/2000/svg">
<path d="M23.5078 21.9141H27C28.6172 21.9141 29.4492 21.1406 29.4492 19.6055V2.32031C29.4492 0.785156 28.6172 0 27 0H23.5078C21.9141 0 21.082 0.785156 21.082 2.32031V19.6055C21.082 21.1406 21.9141 21.9141 23.5078 21.9141Z" fill="black" fill-opacity="0.85"/>
<path d="M12.9727 21.9141H16.4648C18.082 21.9141 18.9023 21.1406 18.9023 19.6055V5.74218C18.9023 4.20702 18.082 3.42188 16.4648 3.42188H12.9727C11.3672 3.42188 10.5352 4.20702 10.5352 5.74218V19.6055C10.5352 21.1406 11.3672 21.9141 12.9727 21.9141Z" fill="black" fill-opacity="0.85"/>
<path d="M2.4375 21.9141H5.91797C7.53516 21.9141 8.36719 21.1406 8.36719 19.6055V9.15234C8.36719 7.61719 7.53516 6.83203 5.91797 6.83203H2.4375C0.832031 6.83203 0 7.61719 0 9.15234V19.6055C0 21.1406 0.832031 21.9141 2.4375 21.9141Z" fill="black" fill-opacity="0.85"/>
</svg>
