<svg width="27" height="27" viewBox="0 0 27 27" fill="none" xmlns="http://www.w3.org/2000/svg">
<path d="M6.20948 23.4712H8.75245C8.98682 23.4712 9.1626 23.5415 9.33838 23.7173L11.1431 25.5103C12.6196 26.9985 13.9907 26.9868 15.4673 25.5103L17.272 23.7173C17.4595 23.5415 17.6235 23.4712 17.8696 23.4712H20.4009C22.4985 23.4712 23.4712 22.5103 23.4712 20.4009V17.8696C23.4712 17.6235 23.5415 17.4595 23.7173 17.272L25.5103 15.4673C26.9985 13.9907 26.9868 12.6196 25.5103 11.1431L23.7173 9.33838C23.5415 9.1626 23.4712 8.98682 23.4712 8.75245V6.20948C23.4712 4.12354 22.5103 3.13916 20.4009 3.13916H17.8696C17.6235 3.13916 17.4595 3.08057 17.272 2.90479L15.4673 1.11182C13.9907 -0.376461 12.6196 -0.364742 11.1431 1.11182L9.33838 2.90479C9.1626 3.08057 8.98682 3.13916 8.75245 3.13916H6.20948C4.11182 3.13916 3.13916 4.1001 3.13916 6.20948V8.75245C3.13916 8.98682 3.08057 9.1626 2.90479 9.33838L1.11182 11.1431C-0.376461 12.6196 -0.364742 13.9907 1.11182 15.4673L2.90479 17.272C3.08057 17.4595 3.13916 17.6235 3.13916 17.8696V20.4009C3.13916 22.4985 4.11182 23.4712 6.20948 23.4712Z" fill="#FFCC00"/>
<path d="M11.998 19.0298C11.5996 19.0298 11.2715 18.8774 10.9668 18.4673L8.02539 14.8579C7.84961 14.6235 7.74414 14.354 7.74414 14.0962C7.74414 13.5571 8.1543 13.1235 8.69336 13.1235C9.02149 13.1235 9.2793 13.2407 9.57227 13.6274L11.9512 16.6978L16.9551 8.6587C17.1777 8.29541 17.4824 8.11963 17.7988 8.11963C18.3027 8.11963 18.7832 8.4712 18.7832 9.01026C18.7832 9.27979 18.6309 9.54932 18.4902 9.7837L12.9824 18.4673C12.7363 18.8423 12.3965 19.0298 11.998 19.0298Z" fill="black" fill-opacity="0.85"/>
</svg>
