<svg width="26" height="26" viewBox="0 0 26 26" fill="none" xmlns="http://www.w3.org/2000/svg">
<path d="M7.20703 25.7461C7.78125 25.7461 8.17969 25.4414 8.89453 24.8086L12.9375 21.2109H20.4609C23.9531 21.2109 25.8281 19.2773 25.8281 15.8438V6.86719C25.8281 3.43359 23.9531 1.5 20.4609 1.5H5.36719C1.875 1.5 0 3.42188 0 6.86719V15.8438C0 19.2891 1.875 21.2109 5.36719 21.2109H5.92969V24.2578C5.92969 25.1602 6.38672 25.7461 7.20703 25.7461ZM7.6875 23.6016V20.2031C7.6875 19.5703 7.44141 19.3242 6.80859 19.3242H5.36719C3 19.3242 1.88672 18.1172 1.88672 15.832V6.86719C1.88672 4.58203 3 3.38672 5.36719 3.38672H20.4609C22.8164 3.38672 23.9414 4.58203 23.9414 6.86719V15.832C23.9414 18.1172 22.8164 19.3242 20.4609 19.3242H12.8672C12.2109 19.3242 11.8828 19.418 11.4375 19.875L7.6875 23.6016Z" fill="#007AFF"/>
<path d="M11.6484 16.9219C12.0352 16.9219 12.3633 16.7344 12.5859 16.3711L17.9414 7.94531C18.082 7.72266 18.2344 7.45312 18.2344 7.19531C18.2344 6.66797 17.7656 6.32812 17.2734 6.32812C16.9688 6.32812 16.6758 6.51562 16.4648 6.85547L11.5898 14.6602L9.28125 11.6719C9.01172 11.2969 8.74219 11.2031 8.42578 11.2031C7.91016 11.2031 7.52344 11.6133 7.52344 12.1289C7.52344 12.3867 7.61719 12.6328 7.78125 12.8555L10.6406 16.3711C10.9453 16.7578 11.25 16.9219 11.6484 16.9219Z" fill="black" fill-opacity="0.85"/>
</svg>
