<svg width="20" height="26" viewBox="0 0 20 26" fill="none" xmlns="http://www.w3.org/2000/svg">
<path d="M0 21.457C0 23.9062 1.20703 25.125 3.63281 25.125H16.0781C18.5039 25.125 19.7109 23.9062 19.7109 21.457V3.67969C19.7109 1.24219 18.5039 0 16.0781 0H3.63281C1.20703 0 0 1.24219 0 3.67969V21.457ZM1.88672 21.4219V3.71484C1.88672 2.54297 2.50781 1.88672 3.72656 1.88672H15.9844C17.2031 1.88672 17.8242 2.54297 17.8242 3.71484V21.4219C17.8242 22.5938 17.2031 23.2383 15.9844 23.2383H3.72656C2.50781 23.2383 1.88672 22.5938 1.88672 21.4219Z" fill="#007AFF"/>
<path d="M8.58984 18.1289C8.97656 18.1289 9.30469 17.9414 9.52734 17.5781L14.8828 9.15234C15.0234 8.91797 15.1758 8.66016 15.1758 8.40234C15.1758 7.875 14.707 7.53516 14.2148 7.53516C13.9102 7.53516 13.6172 7.72266 13.4062 8.0625L8.53125 15.8672L6.22266 12.8789C5.95312 12.5039 5.68359 12.4102 5.36719 12.4102C4.85156 12.4102 4.46484 12.8203 4.46484 13.3359C4.46484 13.5938 4.55859 13.8398 4.72266 14.0625L7.58203 17.5781C7.88672 17.9648 8.19141 18.1289 8.58984 18.1289Z" fill="black" fill-opacity="0.85"/>
</svg>
