<svg width="27" height="27" viewBox="0 0 27 27" fill="none" xmlns="http://www.w3.org/2000/svg">
<path d="M1.31406 15.8805L10.7008 25.2672C12.4352 27.0016 14.1461 27.0133 15.8687 25.3023L25.3023 15.857C27.0133 14.1461 27.0016 12.4234 25.2672 10.6891L15.8922 1.31406C14.1578 -0.420317 12.4469 -0.443755 10.7242 1.2789L1.2789 10.7125C-0.443755 12.4352 -0.420317 14.1461 1.31406 15.8805Z" fill="#FFCC00"/>
<path d="M11.9902 19.021C11.5801 19.021 11.2637 18.8569 10.9473 18.4468L8.01758 14.8374C7.83008 14.603 7.73633 14.3452 7.73633 14.0757C7.73633 13.5483 8.13477 13.1147 8.67383 13.1147C9.00196 13.1147 9.27149 13.2202 9.55274 13.6069L11.9434 16.6772L16.9473 8.63819C17.1582 8.28662 17.4629 8.09912 17.7793 8.09912C18.2949 8.09912 18.7754 8.45069 18.7754 9.00147C18.7754 9.25928 18.6231 9.52881 18.4824 9.77491L12.9629 18.4468C12.7285 18.8335 12.3887 19.021 11.9902 19.021Z" fill="black" fill-opacity="0.85"/>
</svg>
