<svg width="27" height="27" viewBox="0 0 27 27" fill="none" xmlns="http://www.w3.org/2000/svg">
<path d="M1.31406 15.8805L10.7008 25.2672C12.4352 27.0016 14.1461 27.0133 15.8687 25.3023L25.3023 15.857C27.0133 14.1461 27.0016 12.4234 25.2672 10.6891L15.8922 1.31406C14.1578 -0.420317 12.4469 -0.443755 10.7242 1.2789L1.2789 10.7125C-0.443755 12.4352 -0.420317 14.1461 1.31406 15.8805ZM2.67343 14.5797C1.8414 13.7359 1.81796 12.857 2.68515 11.9898L11.9898 2.68515C12.857 1.81796 13.7359 1.82968 14.5797 2.67343L23.9078 12.0016C24.7398 12.8336 24.7633 13.7242 23.8961 14.5914L14.5914 23.8961C13.7242 24.7633 12.8219 24.7398 12.0016 23.9195L2.67343 14.5797Z" fill="#007AFF"/>
<path d="M12.0254 18.8569C12.4121 18.8569 12.7402 18.6694 12.9629 18.3061L18.3301 9.88036C18.459 9.64599 18.6113 9.38818 18.6113 9.13036C18.6113 8.60302 18.1426 8.26318 17.6504 8.26318C17.3457 8.26318 17.0527 8.45068 16.8418 8.79052L11.9785 16.5952L9.6582 13.6069C9.38867 13.2319 9.11914 13.1382 8.80273 13.1382C8.2871 13.1382 7.90039 13.5483 7.90039 14.064C7.90039 14.3218 7.99414 14.5679 8.16992 14.7905L11.0176 18.3061C11.3223 18.6929 11.627 18.8569 12.0254 18.8569Z" fill="black" fill-opacity="0.85"/>
</svg>
