<svg width="22" height="22" viewBox="0 0 22 22" fill="none" xmlns="http://www.w3.org/2000/svg">
<path d="M3.67969 21.5977H17.8945C20.3555 21.5977 21.5742 20.3789 21.5742 17.9648V3.65625C21.5742 1.24219 20.3555 0.0234375 17.8945 0.0234375H3.67969C1.23047 0.0234375 0 1.23047 0 3.65625V17.9648C0 20.3906 1.23047 21.5977 3.67969 21.5977ZM3.70312 19.7109C2.53125 19.7109 1.88672 19.0898 1.88672 17.8711V3.75C1.88672 2.53125 2.53125 1.91016 3.70312 1.91016H17.8711C19.0312 1.91016 19.6875 2.53125 19.6875 3.75V17.8711C19.6875 19.0898 19.0312 19.7109 17.8711 19.7109H3.70312Z" fill="#007AFF"/>
<path d="M13.1143 16.5937C13.4776 16.2304 13.4658 15.6679 13.126 15.3397L8.30957 10.7929L13.126 6.26948C13.4776 5.94136 13.4658 5.35542 13.1026 5.01557C12.7744 4.69917 12.2354 4.71089 11.8721 5.05073L6.99707 9.6562C6.3291 10.2655 6.3291 11.3437 6.99707 11.953L11.8721 16.5585C12.2002 16.8632 12.8096 16.8866 13.1143 16.5937Z" fill="black" fill-opacity="0.85"/>
</svg>
