<svg width="22" height="22" viewBox="0 0 22 22" fill="none" xmlns="http://www.w3.org/2000/svg">
<path d="M3.67969 21.5977H17.8945C20.3555 21.5977 21.5742 20.3789 21.5742 17.9648V3.65625C21.5742 1.24219 20.3555 0.0234375 17.8945 0.0234375H3.67969C1.23047 0.0234375 0 1.23047 0 3.65625V17.9648C0 20.3906 1.23047 21.5977 3.67969 21.5977Z" fill="#FFCC00"/>
<path d="M8.02798 16.7813C7.65298 16.4063 7.65298 15.8204 8.01626 15.4806L12.985 10.8048L8.01626 6.14068C7.64126 5.78912 7.65298 5.19147 8.0397 4.8399C8.37955 4.50006 8.94205 4.53522 9.31705 4.88678L14.3444 9.60944C15.0358 10.254 15.0358 11.3673 14.3444 12.0001L9.31705 16.7345C8.9772 17.0626 8.34439 17.086 8.02798 16.7813Z" fill="black" fill-opacity="0.85"/>
</svg>
