<svg width="14" height="21" viewBox="0 0 14 21" fill="none" xmlns="http://www.w3.org/2000/svg">
<path d="M0 19.2891C0 19.8984 0.46875 20.3672 1.07812 20.3672C1.37109 20.3672 1.62891 20.2617 1.83984 20.0391L11.1211 10.9688C11.3438 10.7461 11.4609 10.4883 11.4609 10.1836C11.4609 9.87891 11.3438 9.60938 11.1328 9.39844L1.83984 0.316406C1.61719 0.117188 1.37109 0 1.06641 0C0.46875 0 0 0.457031 0 1.07812C0 1.37109 0.105469 1.64062 0.316406 1.83984L9.58594 10.8984V9.45703L0.316406 18.5273C0.105469 18.7383 0 18.9961 0 19.2891ZM11.4375 19.3477C11.4375 19.9453 11.8711 20.3672 12.4805 20.3672C13.0898 20.3672 13.5352 19.9453 13.5352 19.3477V1.04297C13.5352 0.433594 13.0898 0 12.4805 0C11.8711 0 11.4375 0.433594 11.4375 1.04297V19.3477Z" fill="black" fill-opacity="0.85"/>
</svg>
