<svg width="22" height="22" viewBox="0 0 22 22" fill="none" xmlns="http://www.w3.org/2000/svg">
<path d="M3.67969 21.5977H17.8945C20.3555 21.5977 21.5742 20.3789 21.5742 17.9648V3.65625C21.5742 1.24219 20.3555 0.0234375 17.8945 0.0234375H3.67969C1.23047 0.0234375 0 1.23047 0 3.65625V17.9648C0 20.3906 1.23047 21.5977 3.67969 21.5977ZM3.70312 19.7109C2.53125 19.7109 1.88672 19.0898 1.88672 17.8711V3.75C1.88672 2.53125 2.53125 1.91016 3.70312 1.91016H17.8711C19.0312 1.91016 19.6875 2.53125 19.6875 3.75V17.8711C19.6875 19.0898 19.0312 19.7109 17.8711 19.7109H3.70312Z" fill="#007AFF"/>
<path d="M5.01495 13.5117C5.36652 13.8867 5.94074 13.8867 6.26886 13.5352L10.804 8.73047L15.3509 13.5352C15.679 13.8867 16.2532 13.8867 16.6048 13.5117C16.9212 13.1953 16.9095 12.6445 16.5696 12.2812L11.9641 7.39453C11.2259 6.62109 10.3821 6.62109 9.65558 7.39453L5.05011 12.2812C4.69855 12.6445 4.68683 13.1953 5.01495 13.5117Z" fill="black" fill-opacity="0.85"/>
</svg>
