<svg width="24" height="24" viewBox="0 0 24 24" fill="none" xmlns="http://www.w3.org/2000/svg">
<path d="M11.9531 23.9062C18.4922 23.9062 23.9062 18.4805 23.9062 11.9531C23.9062 5.41406 18.4805 0 11.9414 0C5.41406 0 0 5.41406 0 11.9531C0 18.4805 5.42578 23.9062 11.9531 23.9062Z" fill="#FFCC00"/>
<path d="M9.1739 17.9415C8.81062 17.5665 8.81062 16.9806 9.1739 16.6407L14.1426 11.9649L9.1739 7.30084C8.7989 6.94928 8.81062 6.35162 9.18562 6.00006C9.53718 5.66022 10.0997 5.69537 10.4747 6.04694L15.502 10.7696C16.1934 11.4142 16.1817 12.5274 15.502 13.1603L10.4747 17.8946C10.1348 18.2228 9.50203 18.2462 9.1739 17.9415Z" fill="black" fill-opacity="0.85"/>
</svg>
