<svg width="24" height="24" viewBox="0 0 24 24" fill="none" xmlns="http://www.w3.org/2000/svg">
<path d="M11.9531 23.9062C18.4922 23.9062 23.9062 18.4805 23.9062 11.9531C23.9062 5.41406 18.4805 0 11.9414 0C5.41406 0 0 5.41406 0 11.9531C0 18.4805 5.42578 23.9062 11.9531 23.9062Z" fill="#FFCC00"/>
<path d="M9.17585 17.9413C8.81257 17.5663 8.81257 16.9804 9.17585 16.6405L14.1446 11.9647L9.17585 7.30071C8.80085 6.94915 8.81257 6.35149 9.18757 5.99993C9.53913 5.66009 10.1017 5.69524 10.4767 6.04681L15.504 10.7694C16.1954 11.414 16.1837 12.5272 15.504 13.1601L10.4767 17.8944C10.1368 18.2226 9.50398 18.246 9.17585 17.9413Z" fill="black" fill-opacity="0.85"/>
</svg>
