<svg width="22" height="21" viewBox="0 0 22 21" fill="none" xmlns="http://www.w3.org/2000/svg">
<path d="M11.543 20.3555C11.8477 20.3555 12.1055 20.2383 12.3047 20.0391L21.5859 10.9688C21.8086 10.7461 21.9375 10.4766 21.9375 10.1836C21.9375 9.87891 21.8086 9.58594 21.5859 9.39844L12.3047 0.316406C12.0938 0.117188 11.8477 0 11.543 0C10.9336 0 10.4648 0.46875 10.4648 1.07812C10.4648 1.35938 10.5938 1.64062 10.7812 1.83984L19.9453 10.8047V9.55078L10.7812 18.5273C10.5938 18.7266 10.4648 18.9961 10.4648 19.2891C10.4648 19.8984 10.9336 20.3555 11.543 20.3555Z" fill="black" fill-opacity="0.85"/>
<path d="M1.06641 20.3555C1.37109 20.3555 1.62891 20.2383 1.83984 20.0391L11.1211 10.9688C11.3438 10.7461 11.4609 10.4766 11.4609 10.1836C11.4609 9.87891 11.3438 9.58594 11.1211 9.39844L1.82812 0.316406C1.62891 0.117188 1.37109 0 1.06641 0C0.457031 0 0 0.46875 0 1.07812C0 1.35938 0.117188 1.64062 0.304688 1.83984L9.48047 10.8047V9.55078L0.304688 18.5273C0.117188 18.7266 0 18.9961 0 19.2891C0 19.8984 0.457031 20.3555 1.06641 20.3555Z" fill="black" fill-opacity="0.85"/>
</svg>
