<svg width="24" height="24" viewBox="0 0 24 24" fill="none" xmlns="http://www.w3.org/2000/svg">
<path d="M11.9531 23.9062C18.4922 23.9062 23.9062 18.4805 23.9062 11.9531C23.9062 5.41406 18.4805 0 11.9414 0C5.41406 0 0 5.41406 0 11.9531C0 18.4805 5.42578 23.9062 11.9531 23.9062Z" fill="#FFCC00"/>
<path d="M5.97849 14.7773C5.65037 14.4492 5.66209 13.875 6.02537 13.5L10.7597 8.46094C11.5214 7.66406 12.4003 7.66406 13.1621 8.46094L17.8964 13.5C18.2714 13.875 18.2831 14.4492 17.9433 14.7773C17.5683 15.1641 16.9824 15.1641 16.6425 14.8008L11.9667 9.84375L7.27927 14.8008C6.93943 15.1641 6.35349 15.1641 5.97849 14.7773Z" fill="black" fill-opacity="0.85"/>
</svg>
