<svg width="24" height="24" viewBox="0 0 24 24" fill="none" xmlns="http://www.w3.org/2000/svg">
<path d="M11.9531 23.9062C18.4922 23.9062 23.9062 18.4805 23.9062 11.9531C23.9062 5.41406 18.4805 0 11.9414 0C5.41406 0 0 5.41406 0 11.9531C0 18.4805 5.42578 23.9062 11.9531 23.9062ZM11.9531 21.9141C6.42188 21.9141 2.00391 17.4844 2.00391 11.9531C2.00391 6.42188 6.41016 1.99219 11.9414 1.99219C17.4727 1.99219 21.9141 6.42188 21.9141 11.9531C21.9141 17.4844 17.4844 21.9141 11.9531 21.9141Z" fill="#007AFF"/>
<path d="M6.16436 14.6719C6.51592 15.0469 7.09014 15.0469 7.41827 14.6953L11.9534 9.89062L16.4886 14.6953C16.8284 15.0469 17.4026 15.0469 17.7425 14.6719C18.0706 14.3555 18.0589 13.8047 17.7073 13.4414L13.1136 8.55469C12.3753 7.78125 11.5315 7.78125 10.805 8.55469L6.19952 13.4414C5.84796 13.8047 5.83624 14.3555 6.16436 14.6719Z" fill="black" fill-opacity="0.85"/>
</svg>
