<svg width="24" height="24" viewBox="0 0 24 24" fill="none" xmlns="http://www.w3.org/2000/svg">
<path d="M11.9531 23.9062C18.4922 23.9062 23.9062 18.4805 23.9062 11.9531C23.9062 5.41406 18.4805 0 11.9414 0C5.41406 0 0 5.41406 0 11.9531C0 18.4805 5.42578 23.9062 11.9531 23.9062Z" fill="#FFCC00"/>
<path d="M13.1722 15.8204C12.4105 16.629 11.5315 16.629 10.7698 15.8204L6.03545 10.7931C5.66045 10.4063 5.66045 9.85554 5.98857 9.50398C6.36357 9.11726 6.94951 9.11726 7.28935 9.48054L11.9651 14.4376L16.6409 9.48054C16.9925 9.11726 17.5667 9.12898 17.9534 9.50398C18.2933 9.84382 18.2698 10.4063 17.9065 10.7931L13.1722 15.8204Z" fill="black" fill-opacity="0.85"/>
</svg>
