<svg width="24" height="24" viewBox="0 0 24 24" fill="none" xmlns="http://www.w3.org/2000/svg">
<path d="M11.9531 23.9062C18.4922 23.9062 23.9062 18.4805 23.9062 11.9531C23.9062 5.41406 18.4805 0 11.9414 0C5.41406 0 0 5.41406 0 11.9531C0 18.4805 5.42578 23.9062 11.9531 23.9062Z" fill="#FFCC00"/>
<path d="M13.1702 15.8202C12.4085 16.6288 11.5295 16.6288 10.7678 15.8202L6.0335 10.7929C5.6585 10.4061 5.6585 9.85541 5.98662 9.50385C6.36162 9.11713 6.94756 9.11713 7.2874 9.48041L11.9631 14.4374L16.6389 9.48041C16.9905 9.11713 17.5647 9.12885 17.9514 9.50385C18.2913 9.84369 18.2678 10.4061 17.9045 10.7929L13.1702 15.8202Z" fill="black" fill-opacity="0.85"/>
</svg>
