<svg width="24" height="24" viewBox="0 0 24 24" fill="none" xmlns="http://www.w3.org/2000/svg">
<path d="M11.9531 23.9062C18.4922 23.9062 23.9062 18.4805 23.9062 11.9531C23.9062 5.41406 18.4805 0 11.9414 0C5.41406 0 0 5.41406 0 11.9531C0 18.4805 5.42578 23.9062 11.9531 23.9062ZM11.9531 21.9141C6.42188 21.9141 2.00391 17.4844 2.00391 11.9531C2.00391 6.42188 6.41016 1.99219 11.9414 1.99219C17.4727 1.99219 21.9141 6.42188 21.9141 11.9531C21.9141 17.4844 17.4844 21.9141 11.9531 21.9141Z" fill="#007AFF"/>
<path d="M14.2617 17.754C14.625 17.3907 14.6133 16.8282 14.2734 16.5001L9.45703 11.9532L14.2734 7.42976C14.625 7.10163 14.6133 6.51569 14.25 6.17585C13.9219 5.85945 13.3828 5.87116 13.0195 6.21101L8.14453 10.8165C7.47656 11.4259 7.47656 12.504 8.14453 13.1134L13.0195 17.7189C13.3477 18.0235 13.957 18.047 14.2617 17.754Z" fill="black" fill-opacity="0.85"/>
</svg>
