<svg width="22" height="21" viewBox="0 0 22 21" fill="none" xmlns="http://www.w3.org/2000/svg">
<path d="M20.0977 20.0391C20.2969 20.2383 20.5664 20.3555 20.8594 20.3555C21.4688 20.3555 21.9375 19.8984 21.9375 19.2891C21.9375 18.9961 21.8086 18.7266 21.6211 18.5273L12.457 9.55078V10.8047L21.6211 1.83984C21.8086 1.64062 21.9375 1.35938 21.9375 1.07812C21.9375 0.46875 21.4688 0 20.8594 0C20.5664 0 20.3086 0.117188 20.0977 0.316406L10.8164 9.39844C10.5938 9.58594 10.4648 9.87891 10.4648 10.1836C10.4648 10.4766 10.5938 10.7461 10.8164 10.9688L20.0977 20.0391Z" fill="black" fill-opacity="0.85"/>
<path d="M9.63281 20.0391C9.83203 20.2383 10.0898 20.3555 10.3945 20.3555C11.0039 20.3555 11.4609 19.8984 11.4609 19.2891C11.4609 18.9961 11.3438 18.7266 11.1562 18.5273L1.98047 9.55078V10.8047L11.1562 1.83984C11.3438 1.64062 11.4609 1.35938 11.4609 1.07812C11.4609 0.46875 11.0039 0 10.3945 0C10.0898 0 9.83203 0.117188 9.63281 0.316406L0.351562 9.39844C0.128906 9.58594 0 9.87891 0 10.1836C0 10.4766 0.117188 10.7461 0.339844 10.9688L9.63281 20.0391Z" fill="black" fill-opacity="0.85"/>
</svg>
