<svg width="22" height="22" viewBox="0 0 22 22" fill="none" xmlns="http://www.w3.org/2000/svg">
<path d="M3.67969 21.5977H17.8945C20.3555 21.5977 21.5742 20.3789 21.5742 17.9648V3.65625C21.5742 1.24219 20.3555 0.0234375 17.8945 0.0234375H3.67969C1.23047 0.0234375 0 1.23047 0 3.65625V17.9648C0 20.3906 1.23047 21.5977 3.67969 21.5977Z" fill="#FFCC00"/>
<path d="M10.8047 16.6992C10.3594 16.6992 10.043 16.3711 10.043 15.8789V14.1445H7.82812C7.48828 14.1445 7.24219 13.8867 7.24219 13.5469C7.24219 13.207 7.47656 12.9492 7.82812 12.9492H10.043V12.0234H7.82812C7.48828 12.0234 7.24219 11.7656 7.24219 11.4141C7.24219 11.0742 7.47656 10.8164 7.82812 10.8164H9.48047L6.53906 6.08203C6.43359 5.90625 6.38672 5.76562 6.38672 5.57812C6.38672 5.17969 6.72656 4.86328 7.16016 4.86328C7.45312 4.86328 7.67578 4.98047 7.85156 5.26172L10.8047 10.2422L13.7578 5.27344C13.9336 5.00391 14.1562 4.875 14.4492 4.875C14.8828 4.875 15.2227 5.19141 15.2227 5.58984C15.2227 5.77734 15.1758 5.91797 15.0586 6.09375L12.1289 10.8164H13.8164C14.168 10.8164 14.4023 11.0742 14.4023 11.4141C14.4023 11.7656 14.168 12.0234 13.8164 12.0234H11.5664V12.9492H13.8164C14.168 12.9492 14.4023 13.207 14.4023 13.5469C14.4023 13.8867 14.168 14.1445 13.8164 14.1445H11.5664V15.8906C11.5664 16.3828 11.25 16.6992 10.8047 16.6992Z" fill="black" fill-opacity="0.85"/>
</svg>
