<svg width="24" height="24" viewBox="0 0 24 24" fill="none" xmlns="http://www.w3.org/2000/svg">
<path d="M11.9531 23.9062C18.4922 23.9062 23.9062 18.4805 23.9062 11.9531C23.9062 5.41406 18.4805 0 11.9414 0C5.41406 0 0 5.41406 0 11.9531C0 18.4805 5.42578 23.9062 11.9531 23.9062Z" fill="#FFCC00"/>
<path d="M11.9531 17.8594C11.5078 17.8594 11.2031 17.5312 11.2031 17.0391V15.3047H8.98828C8.64844 15.3047 8.40234 15.0469 8.40234 14.707C8.40234 14.3672 8.63672 14.1094 8.98828 14.1094H11.2031V13.1836H8.98828C8.64844 13.1836 8.40234 12.9258 8.40234 12.5742C8.40234 12.2344 8.63672 11.9766 8.98828 11.9766H10.6406L7.69922 7.24219C7.59375 7.06641 7.54688 6.92578 7.54688 6.73828C7.54688 6.33984 7.875 6.02344 8.30859 6.02344C8.61328 6.02344 8.83593 6.14062 9.01171 6.42188L11.9648 11.4023L14.918 6.43359C15.082 6.16406 15.3164 6.03516 15.6094 6.03516C16.043 6.03516 16.3711 6.35156 16.3711 6.75C16.3711 6.9375 16.3359 7.07812 16.2188 7.25391L13.2891 11.9766H14.9648C15.3164 11.9766 15.5625 12.2344 15.5625 12.5742C15.5625 12.9258 15.3164 13.1836 14.9648 13.1836H12.7266V14.1094H14.9648C15.3164 14.1094 15.5625 14.3672 15.5625 14.707C15.5625 15.0469 15.3164 15.3047 14.9648 15.3047H12.7266V17.0508C12.7266 17.543 12.4102 17.8594 11.9531 17.8594Z" fill="black" fill-opacity="0.85"/>
</svg>
