<svg width="24" height="24" viewBox="0 0 24 24" fill="none" xmlns="http://www.w3.org/2000/svg">
<path d="M18.293 5.61328V7.19531H19.8867V5.61328H18.293ZM16.7109 7.19531V8.77734H18.293V7.19531H16.7109ZM15.1172 8.77734V10.3711H16.7109V8.77734H15.1172ZM13.5352 10.3711V11.9531H15.1172V10.3711H13.5352ZM11.9531 11.9531V13.5469H13.5352V11.9531H11.9531ZM10.3594 13.5469V15.1289H11.9531V13.5469H10.3594ZM8.77734 15.1289V16.7227H10.3594V15.1289H8.77734ZM7.18359 16.7227V18.3047H8.77734V16.7227H7.18359ZM5.60156 18.3047V19.8984H7.18359V18.3047H5.60156ZM7.18359 21.2344L7.48828 21.4805H8.77734V19.8984H7.18359V21.2344ZM8.77734 18.3047V19.8984H10.3594V18.3047H8.77734ZM10.3594 16.7227V18.3047H11.9531V16.7227H10.3594ZM11.9531 15.1289V16.7227H13.5352V15.1289H11.9531ZM13.5352 13.5469V15.1289H15.1172V13.5469H13.5352ZM15.1172 11.9531V13.5469H16.7109V11.9531H15.1172ZM16.7109 10.3711V11.9531H18.293V10.3711H16.7109ZM18.293 8.77734V10.3711H19.8867V8.77734H18.293ZM21.4688 8.75391V10.3711H22.8281V8.75391H21.4688ZM19.8867 10.3711V11.9531H21.4688V10.3711H19.8867ZM18.293 11.9531V13.5469H19.8867V11.9531H18.293ZM16.7109 13.5469V15.1289H18.293V13.5469H16.7109ZM15.1172 15.1289V16.7227H16.7109V15.1289H15.1172ZM13.5352 16.7227V18.3047H15.1172V16.7227H13.5352ZM11.9531 18.3047V19.8984H13.5352V18.3047H11.9531ZM10.3594 19.8984V21.4805H11.9531V19.8984H10.3594ZM8.74219 21.4805V22.8281H10.3594V21.4805H8.74219ZM11.9531 21.4805V22.8984H13.5352V21.4805H11.9531ZM13.5352 19.8984V21.4805H15.1172V19.8984H13.5352ZM15.1172 18.3047V19.8984H16.7109V18.3047H15.1172ZM16.7109 16.7227V18.3047H18.293V16.7227H16.7109ZM18.293 15.1289V16.7227H19.8867V15.1289H18.293ZM19.8867 13.5469V15.1289H21.4688V13.5469H19.8867ZM21.4688 11.9531V13.5469H22.8867V11.9531H21.4688ZM19.8867 16.7227V18.3047H21.1758L21.4219 16.7227H19.8867ZM18.293 18.3047V19.8984H19.6406L19.8867 19.6641V18.3047H18.293ZM16.7109 19.8984V21.4336L18.293 21.1992V19.8984H16.7109ZM21.4688 7.61719L21.082 7.19531H19.8867V8.77734H21.4688V7.61719ZM11.9531 23.9062C18.4922 23.9062 23.9062 18.4805 23.9062 11.9531C23.9062 5.41406 18.4805 0 11.9414 0C5.41406 0 0 5.41406 0 11.9531C0 18.4805 5.42578 23.9062 11.9531 23.9062ZM11.9531 21.9141C6.42188 21.9141 2.00391 17.4844 2.00391 11.9531C2.00391 6.42188 6.41016 1.99219 11.9414 1.99219C17.4727 1.99219 21.9141 6.42188 21.9141 11.9531C21.9141 17.4844 17.4844 21.9141 11.9531 21.9141Z" fill="black" fill-opacity="0.85"/>
</svg>
