<svg width="28" height="22" viewBox="0 0 28 22" fill="none" xmlns="http://www.w3.org/2000/svg">
<path d="M1.13672 11.3438L11.6719 0.808594H9.16406L1.13672 8.84766V11.3438ZM13.6406 5.22656H16.1367L20.5078 0.855469L18.1172 0.761719L13.6406 5.22656ZM1.20703 20.1445L7.96875 13.3945V10.9102L1.13672 17.7422L1.20703 20.1445ZM19.3359 10.9922L26.3203 4.00781L26.2266 1.62891L19.3359 8.53125V10.9922ZM9.89062 20.4492L13.957 16.3711H11.4727L7.48828 20.3555L9.89062 20.4492ZM16.3242 20.4023H18.832L26.2969 12.9258V10.418L16.3242 20.4023ZM3.67969 21.5742H23.9531C26.4141 21.5742 27.6328 20.3672 27.6328 17.9531V3.63281C27.6328 1.21875 26.4141 0 23.9531 0H3.67969C1.23047 0 0 1.21875 0 3.63281V17.9531C0 20.3672 1.23047 21.5742 3.67969 21.5742ZM3.70312 19.6875C2.53125 19.6875 1.88672 19.0664 1.88672 17.8477V3.73828C1.88672 2.51953 2.53125 1.88672 3.70312 1.88672H23.9297C25.0898 1.88672 25.7461 2.51953 25.7461 3.73828V17.8477C25.7461 19.0664 25.0898 19.6875 23.9297 19.6875H3.70312Z" fill="#007AFF"/>
<path d="M13.7695 17.3203C17.3672 17.3203 20.2852 14.4023 20.2852 10.793C20.2852 7.19531 17.3672 4.27734 13.7695 4.27734C10.1602 4.27734 7.24219 7.19531 7.24219 10.793C7.24219 14.4023 10.1602 17.3203 13.7695 17.3203ZM13.7695 15.8086C10.9805 15.8086 8.75391 13.582 8.75391 10.793C8.75391 8.00391 10.9805 5.78906 13.7695 5.78906C16.5586 5.78906 18.7734 8.00391 18.7734 10.793C18.7734 13.582 16.5586 15.8086 13.7695 15.8086Z" fill="black" fill-opacity="0.85"/>
</svg>
