<svg width="24" height="24" viewBox="0 0 24 24" fill="none" xmlns="http://www.w3.org/2000/svg">
<path d="M11.9531 23.9062C18.4922 23.9062 23.9062 18.4805 23.9062 11.9531C23.9062 5.41406 18.4805 0 11.9414 0C5.41406 0 0 5.41406 0 11.9531C0 18.4805 5.42578 23.9062 11.9531 23.9062Z" fill="#FFCC00"/>
<path d="M11.9531 18.4453C8.4375 18.4453 5.48438 15.4805 5.48438 11.9648C5.48438 8.4375 8.42578 5.48438 11.9531 5.48438C15.4688 5.48438 18.4336 8.44922 18.4336 11.9648C18.4336 15.4922 15.4805 18.4453 11.9531 18.4453ZM11.9531 16.5469C14.4609 16.5469 16.5234 14.4727 16.5234 11.9648C16.5234 9.46875 14.4492 7.38281 11.9531 7.38281C9.44531 7.38281 7.38281 9.45703 7.38281 11.9648C7.38281 14.4609 9.46875 16.5469 11.9531 16.5469Z" fill="black" fill-opacity="0.85"/>
</svg>
