<svg width="28" height="22" viewBox="0 0 28 22" fill="none" xmlns="http://www.w3.org/2000/svg">
<path d="M0 6.19922H1.88672V3.75C1.88672 2.53125 2.53125 1.91016 3.70312 1.91016H6.12891V0.0234375H3.67969C1.23047 0.0234375 0 1.23047 0 3.65625V6.19922ZM0 13.8164H1.88672V7.80469H0V13.8164ZM3.67969 21.5977H6.12891V19.7109H3.70312C2.53125 19.7109 1.88672 19.0898 1.88672 17.8711V15.4219H0V17.9648C0 20.3906 1.23047 21.5977 3.67969 21.5977ZM7.73438 21.5977H13.0195V19.7109H7.73438V21.5977ZM14.6133 21.5977H19.8984V19.7109H14.6133V21.5977ZM23.9531 21.5977C26.4023 21.5977 27.6328 20.3906 27.6328 17.9648V15.4219H25.7461V17.8711C25.7461 19.0898 25.1016 19.7109 23.9297 19.7109H21.5039V21.5977H23.9531ZM27.6328 6.19922V3.65625C27.6328 1.23047 26.4023 0.0234375 23.9531 0.0234375H21.5039V1.91016H23.9297C25.1016 1.91016 25.7461 2.53125 25.7461 3.75V6.19922H27.6328ZM27.6328 13.8164V7.80469H25.7461V13.8164H27.6328ZM7.73438 1.91016H13.0195V0.0234375H7.73438V1.91016ZM14.6133 1.91016H19.8984V0.0234375H14.6133V1.91016Z" fill="#007AFF"/>
<path d="M13.7695 17.332C17.3672 17.332 20.2852 14.4141 20.2852 10.8047C20.2852 7.20703 17.3672 4.28906 13.7695 4.28906C10.1602 4.28906 7.24219 7.20703 7.24219 10.8047C7.24219 14.4141 10.1602 17.332 13.7695 17.332ZM13.7695 15.8203C10.9805 15.8203 8.75391 13.5938 8.75391 10.8047C8.75391 8.01562 10.9805 5.80078 13.7695 5.80078C16.5586 5.80078 18.7734 8.01562 18.7734 10.8047C18.7734 13.5938 16.5586 15.8203 13.7695 15.8203Z" fill="black" fill-opacity="0.85"/>
</svg>
