<svg width="16" height="25" viewBox="0 0 16 25" fill="none" xmlns="http://www.w3.org/2000/svg">
<path d="M3.1875 24.8086H11.8828C13.793 24.8086 15.0703 23.5898 15.0703 21.7617V3.04688C15.0703 1.21875 13.793 0 11.8828 0H3.1875C1.27734 0 0 1.21875 0 3.04688V21.7617C0 23.5898 1.27734 24.8086 3.1875 24.8086ZM3.43359 22.9219C2.4375 22.9219 1.88672 22.3945 1.88672 21.457V3.35156C1.88672 2.41406 2.4375 1.88672 3.43359 1.88672H11.6484C12.6328 1.88672 13.1836 2.41406 13.1836 3.35156V21.457C13.1836 22.3945 12.6328 22.9219 11.6484 22.9219H3.43359Z" fill="#007AFF"/>
<path d="M7.54688 16.7578C9.94922 16.7578 11.9062 14.8008 11.9062 12.3984C11.9062 9.99609 9.94922 8.03906 7.54688 8.03906C5.14453 8.03906 3.1875 9.99609 3.1875 12.3984C3.1875 14.8008 5.14453 16.7578 7.54688 16.7578Z" fill="black" fill-opacity="0.85"/>
</svg>
