<svg width="28" height="28" viewBox="0 0 28 28" fill="none" xmlns="http://www.w3.org/2000/svg">
<path d="M13.6172 27.7852C16.418 27.7852 18.7266 25.4766 18.7266 22.6758C18.7266 19.8867 16.418 17.5781 13.6172 17.5781C10.8047 17.5781 8.50781 19.8867 8.50781 22.6758C8.50781 25.4766 10.8047 27.7852 13.6172 27.7852ZM13.6172 25.9453C11.7773 25.9453 10.3359 24.5156 10.3359 22.6758C10.3359 20.8594 11.7773 19.3711 13.6172 19.3711C15.457 19.3711 16.8867 20.8594 16.8867 22.6758C16.8867 24.5156 15.457 25.9453 13.6172 25.9453Z" fill="#007AFF"/>
<path d="M22.1484 18.9961C24.9375 18.9961 27.2461 16.6875 27.2461 13.8867C27.2461 11.0977 24.9375 8.78906 22.1484 8.78906C19.3242 8.78906 17.0273 11.0977 17.0273 13.8867C17.0273 16.6875 19.3242 18.9961 22.1484 18.9961Z" fill="black" fill-opacity="0.85"/>
<path d="M5.10938 18.9961C7.91016 18.9961 10.2188 16.6875 10.2188 13.8867C10.2188 11.0977 7.91016 8.78906 5.10938 8.78906C2.28516 8.78906 0 11.0977 0 13.8867C0 16.6875 2.28516 18.9961 5.10938 18.9961ZM5.10938 17.1562C3.26953 17.1562 1.82812 15.7266 1.82812 13.8867C1.82812 12.0586 3.26953 10.582 5.10938 10.582C6.9375 10.582 8.37891 12.0586 8.37891 13.8867C8.37891 15.7266 6.9375 17.1562 5.10938 17.1562Z" fill="#007AFF"/>
<path d="M13.6172 10.207C16.418 10.207 18.7266 7.89844 18.7266 5.09766C18.7266 2.29688 16.418 0 13.6172 0C10.8047 0 8.50781 2.29688 8.50781 5.09766C8.50781 7.89844 10.8047 10.207 13.6172 10.207ZM13.6172 8.35547C11.7773 8.35547 10.3359 6.92578 10.3359 5.09766C10.3359 3.26953 11.7773 1.79297 13.6172 1.79297C15.457 1.79297 16.8867 3.26953 16.8867 5.09766C16.8867 6.92578 15.457 8.35547 13.6172 8.35547Z" fill="#007AFF"/>
</svg>
