<svg width="22" height="22" viewBox="0 0 22 22" fill="none" xmlns="http://www.w3.org/2000/svg">
<path d="M3.67969 21.5977H17.8945C20.3555 21.5977 21.5742 20.3789 21.5742 17.9648V3.65625C21.5742 1.24219 20.3555 0.0234375 17.8945 0.0234375H3.67969C1.23047 0.0234375 0 1.23047 0 3.65625V17.9648C0 20.3906 1.23047 21.5977 3.67969 21.5977ZM3.70312 19.7109C2.53125 19.7109 1.88672 19.0898 1.88672 17.8711V3.75C1.88672 2.53125 2.53125 1.91016 3.70312 1.91016H17.8711C19.0312 1.91016 19.6875 2.53125 19.6875 3.75V17.8711C19.6875 19.0898 19.0312 19.7109 17.8711 19.7109H3.70312Z" fill="#007AFF"/>
<path d="M10.793 17.0859C14.2148 17.0859 17.0742 14.2266 17.0742 10.8047C17.0742 7.39453 14.2031 4.52344 10.793 4.52344C7.37109 4.52344 4.52344 7.38281 4.52344 10.8047C4.52344 14.2148 7.38281 17.0859 10.793 17.0859ZM10.793 15.2578C8.37891 15.2578 6.35156 13.2305 6.35156 10.8047C6.35156 8.36719 8.36719 6.35156 10.793 6.35156C13.2188 6.35156 15.2344 8.37891 15.2344 10.8047C15.2344 13.2422 13.2305 15.2578 10.793 15.2578Z" fill="black" fill-opacity="0.85"/>
</svg>
