<svg width="26" height="24" viewBox="0 0 26 24" fill="none" xmlns="http://www.w3.org/2000/svg">
<path d="M8.21484 7.81641C10.3477 7.81641 12.1289 6.04688 12.1289 3.91406C12.1289 1.78125 10.3477 0 8.21484 0C6.08203 0 4.30078 1.78125 4.30078 3.91406C4.30078 6.04688 6.08203 7.81641 8.21484 7.81641ZM8.21484 5.92969C7.11328 5.92969 6.1875 5.00391 6.1875 3.91406C6.1875 2.8125 7.11328 1.88672 8.21484 1.88672C9.31641 1.88672 10.2422 2.8125 10.2422 3.91406C10.2422 5.00391 9.31641 5.92969 8.21484 5.92969ZM16.8047 7.81641C18.9375 7.81641 20.7188 6.04688 20.7188 3.91406C20.7188 1.78125 18.9375 0 16.8047 0C14.6719 0 12.8906 1.78125 12.8906 3.91406C12.8906 6.04688 14.6719 7.81641 16.8047 7.81641ZM16.8047 5.92969C15.7031 5.92969 14.7773 5.00391 14.7773 3.91406C14.7773 2.8125 15.7031 1.88672 16.8047 1.88672C17.9062 1.88672 18.832 2.8125 18.832 3.91406C18.832 5.00391 17.9062 5.92969 16.8047 5.92969ZM3.91406 15.5273C6.05859 15.5273 7.83984 13.7461 7.83984 11.6133C7.83984 9.48047 6.05859 7.69922 3.91406 7.69922C1.78125 7.69922 0 9.48047 0 11.6133C0 13.7461 1.78125 15.5273 3.91406 15.5273ZM3.91406 13.6406C2.8125 13.6406 1.88672 12.7148 1.88672 11.6133C1.88672 10.5117 2.8125 9.58594 3.91406 9.58594C5.01562 9.58594 5.95312 10.5117 5.95312 11.6133C5.95312 12.7148 5.01562 13.6406 3.91406 13.6406ZM21.1055 15.5273C23.2383 15.5273 25.0195 13.7461 25.0195 11.6133C25.0195 9.48047 23.2383 7.69922 21.1055 7.69922C18.9727 7.69922 17.1797 9.48047 17.1797 11.6133C17.1797 13.7461 18.9727 15.5273 21.1055 15.5273ZM21.1055 13.6406C20.0039 13.6406 19.0664 12.7148 19.0664 11.6133C19.0664 10.5117 20.0039 9.58594 21.1055 9.58594C22.207 9.58594 23.1328 10.5117 23.1328 11.6133C23.1328 12.7148 22.207 13.6406 21.1055 13.6406ZM8.21484 23.2266C10.3477 23.2266 12.1289 21.4453 12.1289 19.3125C12.1289 17.168 10.3477 15.3984 8.21484 15.3984C6.08203 15.3984 4.30078 17.168 4.30078 19.3125C4.30078 21.4453 6.08203 23.2266 8.21484 23.2266ZM8.21484 21.3398C7.11328 21.3398 6.1875 20.4141 6.1875 19.3125C6.1875 18.2109 7.11328 17.2852 8.21484 17.2852C9.31641 17.2852 10.2422 18.2109 10.2422 19.3125C10.2422 20.4141 9.31641 21.3398 8.21484 21.3398ZM16.8047 23.2266C18.9375 23.2266 20.7188 21.4453 20.7188 19.3125C20.7188 17.168 18.9375 15.3984 16.8047 15.3984C14.6719 15.3984 12.8906 17.168 12.8906 19.3125C12.8906 21.4453 14.6719 23.2266 16.8047 23.2266ZM16.8047 21.3398C15.7031 21.3398 14.7773 20.4141 14.7773 19.3125C14.7773 18.2109 15.7031 17.2852 16.8047 17.2852C17.9062 17.2852 18.832 18.2109 18.832 19.3125C18.832 20.4141 17.9062 21.3398 16.8047 21.3398Z" fill="black" fill-opacity="0.85"/>
</svg>
