<svg width="22" height="22" viewBox="0 0 22 22" fill="none" xmlns="http://www.w3.org/2000/svg">
<path d="M3.67969 21.5977H17.8945C20.3555 21.5977 21.5742 20.3789 21.5742 17.9648V3.65625C21.5742 1.24219 20.3555 0.0234375 17.8945 0.0234375H3.67969C1.23047 0.0234375 0 1.23047 0 3.65625V17.9648C0 20.3906 1.23047 21.5977 3.67969 21.5977ZM3.70312 19.7109C2.53125 19.7109 1.88672 19.0898 1.88672 17.8711V3.75C1.88672 2.53125 2.53125 1.91016 3.70312 1.91016H17.8711C19.0312 1.91016 19.6875 2.53125 19.6875 3.75V17.8711C19.6875 19.0898 19.0312 19.7109 17.8711 19.7109H3.70312Z" fill="#007AFF"/>
<path d="M6.79688 15.75C7.06641 15.75 7.30078 15.6445 7.47656 15.457L10.793 12.1289L14.1328 15.457C14.3086 15.6328 14.5312 15.75 14.8008 15.75C15.3281 15.75 15.7383 15.3281 15.7383 14.8008C15.7383 14.5312 15.6445 14.3203 15.457 14.1328L12.1289 10.8047L15.4688 7.45312C15.668 7.25391 15.75 7.05468 15.75 6.79688C15.75 6.28124 15.3398 5.85938 14.8125 5.85938C14.5664 5.85938 14.3672 5.95312 14.168 6.15234L10.793 9.49219L7.45312 6.16406C7.27734 5.97656 7.06641 5.88281 6.79688 5.88281C6.28124 5.88281 5.85938 6.29297 5.85938 6.80859C5.85938 7.06641 5.96484 7.28906 6.14062 7.46484L9.46875 10.8047L6.14062 14.1445C5.96484 14.3203 5.85938 14.543 5.85938 14.8008C5.85938 15.3281 6.28124 15.75 6.79688 15.75Z" fill="black" fill-opacity="0.85"/>
</svg>
