<svg width="24" height="24" viewBox="0 0 24 24" fill="none" xmlns="http://www.w3.org/2000/svg">
<path d="M11.9531 23.9062C18.4922 23.9062 23.9062 18.4805 23.9062 11.9531C23.9062 5.41406 18.4805 0 11.9414 0C5.41406 0 0 5.41406 0 11.9531C0 18.4805 5.42578 23.9062 11.9531 23.9062Z" fill="#FFCC00"/>
<path d="M8.66016 12.7734H11.9414C12.2695 12.7734 12.5508 12.5273 12.5508 12.1992V7.93359C12.5508 7.60547 12.2812 7.34766 11.9414 7.34766C11.6133 7.34766 11.3555 7.60547 11.3555 7.93359V11.6133H8.66016C8.32031 11.6133 8.0625 11.8594 8.0625 12.1992C8.0625 12.5391 8.32031 12.7734 8.66016 12.7734ZM11.9531 18.4336C8.41406 18.4336 5.46094 15.4922 5.46094 11.9531C5.46094 8.41406 8.40234 5.46094 11.9414 5.46094C15.4922 5.46094 18.4453 8.41406 18.4453 11.9531C18.4453 15.4922 15.4922 18.4336 11.9531 18.4336Z" fill="black" fill-opacity="0.85"/>
</svg>
