<svg width="24" height="24" viewBox="0 0 24 24" fill="none" xmlns="http://www.w3.org/2000/svg">
<path d="M11.9531 23.9062C18.4922 23.9062 23.9062 18.4805 23.9062 11.9531C23.9062 5.41406 18.4805 0 11.9414 0C5.41406 0 0 5.41406 0 11.9531C0 18.4805 5.42578 23.9062 11.9531 23.9062ZM11.9531 21.9141C6.42188 21.9141 2.00391 17.4844 2.00391 11.9531C2.00391 6.42188 6.41016 1.99219 11.9414 1.99219C17.4727 1.99219 21.9141 6.42188 21.9141 11.9531C21.9141 17.4844 17.4844 21.9141 11.9531 21.9141Z" fill="#007AFF"/>
<path d="M5.82422 13.2188H11.9414C12.3984 13.2188 12.7617 12.8672 12.7617 12.3984V4.5C12.7617 4.04297 12.3984 3.69141 11.9414 3.69141C11.4844 3.69141 11.1328 4.04297 11.1328 4.5V11.5898H5.82422C5.35547 11.5898 5.00391 11.9414 5.00391 12.3984C5.00391 12.8672 5.35547 13.2188 5.82422 13.2188Z" fill="black" fill-opacity="0.85"/>
</svg>
