<svg width="24" height="24" viewBox="0 0 24 24" fill="none" xmlns="http://www.w3.org/2000/svg">
<path d="M11.9531 23.918C18.4922 23.918 23.9062 18.5039 23.9062 11.9648C23.9062 5.4375 18.4805 0.0117188 11.9414 0.0117188C5.41406 0.0117188 0 5.4375 0 11.9648C0 18.5039 5.42578 23.918 11.9531 23.918Z" fill="#FFCC00"/>
<path d="M7.57031 16.418C5.73047 16.418 4.51172 15.2812 4.51172 13.6406C4.51172 12.3398 5.36719 11.2734 6.60938 10.9336C6.82031 8.48438 8.84766 6.58594 11.2852 6.58594C13.1367 6.58594 14.6602 7.58203 15.4688 9.24609C17.7188 9.21094 19.3945 10.7461 19.3945 12.8086C19.3945 14.8477 17.7656 16.418 15.6797 16.418H7.57031Z" fill="black" fill-opacity="0.85"/>
</svg>
