<svg width="27" height="27" viewBox="0 0 27 27" fill="none" xmlns="http://www.w3.org/2000/svg">
<path d="M18.809 26.5695L20.3324 23.9327C20.5434 23.5695 20.4262 23.1593 20.0746 22.9601C19.7231 22.7491 19.3246 22.8663 19.1137 23.2296L17.5668 25.8898C17.3793 26.2296 17.4731 26.6398 17.8363 26.839C18.1879 27.0382 18.6098 26.921 18.809 26.5695Z" fill="#007AFF"/>
<path d="M15.1396 23.2764L16.6631 20.628C16.874 20.2764 16.7568 19.8662 16.4052 19.6553C16.0537 19.4561 15.6552 19.5615 15.4443 19.9248L13.9092 22.5967C13.7099 22.9248 13.8037 23.335 14.167 23.5459C14.5185 23.7451 14.9404 23.6162 15.1396 23.2764Z" fill="#007AFF"/>
<path d="M9.48071 26.5812L11.0041 23.9445C11.215 23.5812 11.1096 23.171 10.758 22.9718C10.3947 22.7609 9.99633 22.8781 9.7854 23.2413L8.25024 25.9015C8.05102 26.2413 8.15649 26.6515 8.50805 26.8507C8.85962 27.0499 9.28149 26.9327 9.48071 26.5812Z" fill="#007AFF"/>
<path d="M5.81229 23.2881L7.33573 20.6397C7.55838 20.2881 7.4412 19.878 7.08963 19.667C6.73807 19.4678 6.33963 19.5733 6.11698 19.9365L4.58182 22.6084C4.3826 22.9365 4.48807 23.3467 4.85135 23.5576C5.1912 23.7569 5.61307 23.628 5.81229 23.2881Z" fill="#007AFF"/>
<path d="M5.50781 17.8039H20.0508C23.8945 17.8039 26.7539 14.886 26.7539 11.2766C26.7539 7.53833 23.707 4.80786 19.7344 4.80786C18.2695 1.91333 15.5508 0.0500488 12.1641 0.0500488C7.75781 0.0500488 4.125 3.50708 3.73828 7.85474C1.61719 8.47583 0 10.3157 0 12.7883C0 15.5657 2.01562 17.8039 5.50781 17.8039ZM5.48438 15.9289C3.08203 15.9289 1.875 14.5813 1.875 12.8469C1.875 11.4407 2.69531 10.175 4.6875 9.64771C5.33203 9.47193 5.56641 9.16724 5.625 8.51099C5.89453 4.67896 8.76562 1.92505 12.1641 1.92505C14.8008 1.92505 16.875 3.37818 18.1406 5.96802C18.4102 6.54224 18.7617 6.74146 19.4531 6.74146C22.9219 6.74146 24.8789 8.82739 24.8789 11.3235C24.8789 13.8782 22.8398 15.9289 20.168 15.9289H5.48438Z" fill="black" fill-opacity="0.85"/>
</svg>
