<svg width="27" height="28" viewBox="0 0 27 28" fill="none" xmlns="http://www.w3.org/2000/svg">
<path d="M19.3008 22.4297L20.0859 21.0469C20.2969 20.6953 20.1914 20.2734 19.8398 20.0625C19.4883 19.8633 19.0781 19.9922 18.8672 20.332L18.0703 21.75C17.8828 22.0781 17.9648 22.4883 18.3281 22.6992C18.6797 22.8984 19.1016 22.7695 19.3008 22.4297ZM17.2266 25.9219C17.918 25.9219 18.4922 25.3359 18.4922 24.6328C18.4922 23.9531 17.918 23.3672 17.2266 23.3672C16.5234 23.3672 15.9492 23.9531 15.9492 24.6328C15.9492 25.3359 16.5234 25.9219 17.2266 25.9219Z" fill="#007AFF"/>
<path d="M12.1289 24.1759L13.957 21.0118C14.1562 20.6485 14.0508 20.2384 13.7109 20.0392C13.3477 19.8282 12.9375 19.9454 12.7383 20.3087L10.8984 23.4962C10.6992 23.836 10.8047 24.2462 11.168 24.4454C11.5078 24.6446 11.9414 24.5274 12.1289 24.1759ZM10.0547 27.6681C10.7461 27.6681 11.332 27.0821 11.332 26.379C11.332 25.6993 10.7578 25.1251 10.0547 25.1251C9.36328 25.1251 8.78906 25.6993 8.78906 26.379C8.78906 27.0821 9.36328 27.6681 10.0547 27.6681Z" fill="#007AFF"/>
<path d="M7.01953 22.3829L7.80469 21.0001C8.01562 20.6485 7.91016 20.2267 7.55859 20.0157C7.20703 19.8165 6.79688 19.9454 6.58594 20.2853L5.78906 21.7032C5.60156 22.0313 5.68359 22.4415 6.04688 22.6524C6.39844 22.8517 6.82031 22.7345 7.01953 22.3829ZM4.94531 25.8751C5.63672 25.8751 6.21094 25.2892 6.21094 24.586C6.21094 23.9063 5.63672 23.3321 4.94531 23.3321C4.24219 23.3321 3.66797 23.9063 3.66797 24.586C3.66797 25.2892 4.24219 25.8751 4.94531 25.8751Z" fill="#007AFF"/>
<path d="M5.50781 18.1641H20.0508C23.8945 18.1641 26.7539 15.2461 26.7539 11.6367C26.7539 7.89844 23.707 5.16797 19.7344 5.16797C18.2695 2.27344 15.5508 0.410156 12.1641 0.410156C7.75781 0.410156 4.125 3.86719 3.73828 8.21484C1.61719 8.83594 0 10.6758 0 13.1484C0 15.9258 2.01562 18.1641 5.50781 18.1641ZM5.48438 16.2891C3.08203 16.2891 1.875 14.9414 1.875 13.207C1.875 11.8008 2.69531 10.5352 4.6875 10.0078C5.33203 9.83203 5.56641 9.52734 5.625 8.87109C5.89453 5.03906 8.76562 2.28516 12.1641 2.28516C14.8008 2.28516 16.875 3.73828 18.1406 6.32812C18.4102 6.90234 18.7617 7.10156 19.4531 7.10156C22.9219 7.10156 24.8789 9.1875 24.8789 11.6836C24.8789 14.2383 22.8398 16.2891 20.168 16.2891H5.48438Z" fill="black" fill-opacity="0.85"/>
</svg>
