<svg width="24" height="24" viewBox="0 0 24 24" fill="none" xmlns="http://www.w3.org/2000/svg">
<path d="M11.9531 23.918C18.4922 23.918 23.9062 18.5039 23.9062 11.9648C23.9062 5.4375 18.4805 0.0117188 11.9414 0.0117188C5.41406 0.0117188 0 5.4375 0 11.9648C0 18.5039 5.42578 23.918 11.9531 23.918Z" fill="#FFCC00"/>
<path d="M8.15625 13.5234C6.43359 13.5234 5.42578 12.3984 5.42578 11.0273C5.42578 9.80859 6.23438 8.90625 7.27734 8.60156C7.47656 6.44531 9.26953 4.72266 11.4492 4.72266C13.125 4.72266 14.4609 5.67188 15.1875 7.08984C17.1445 7.08984 18.6562 8.4375 18.6562 10.2891C18.6562 12.0703 17.2266 13.5234 15.3398 13.5234H8.15625ZM7.73438 16.043C7.44141 16.043 7.19531 15.8086 7.19531 15.5039C7.19531 15.1992 7.44141 14.9414 7.73438 14.9414H16.1602C16.4648 14.9414 16.7109 15.1875 16.7109 15.5039C16.7109 15.8086 16.4648 16.043 16.1602 16.043H7.73438ZM7.73438 18.5156C7.44141 18.5156 7.19531 18.2695 7.19531 17.9531C7.19531 17.6484 7.44141 17.4141 7.73438 17.4141H16.1602C16.4648 17.4141 16.7109 17.6484 16.7109 17.9531C16.7109 18.2695 16.4648 18.5156 16.1602 18.5156H7.73438Z" fill="black" fill-opacity="0.85"/>
</svg>
