<svg width="27" height="28" viewBox="0 0 27 28" fill="none" xmlns="http://www.w3.org/2000/svg">
<path d="M17.8596 26.6519L21.3283 20.6519C21.5275 20.3004 21.4221 19.9019 21.0822 19.7027C20.7541 19.4918 20.3322 19.5972 20.1213 19.9605L16.676 25.9371C16.4768 26.2886 16.5822 26.6988 16.9221 26.9097C17.2619 27.1089 17.6604 27.0035 17.8596 26.6519Z" fill="#007AFF"/>
<path d="M15.1406 23.3121L16.6641 20.6636C16.875 20.3121 16.7578 19.9019 16.4062 19.691C16.0547 19.4918 15.6562 19.5972 15.4453 19.9605L13.9102 22.6324C13.7109 22.9605 13.8047 23.3707 14.168 23.5816C14.5195 23.7808 14.9414 23.6519 15.1406 23.3121Z" fill="#007AFF"/>
<path d="M8.54297 26.6636L12 20.6636C12.1992 20.3121 12.1055 19.9136 11.7656 19.7144C11.4258 19.5035 10.9922 19.6089 10.793 19.9722L7.35938 25.9488C7.16016 26.3004 7.25391 26.7105 7.60547 26.9214C7.94531 27.1207 8.34375 27.0035 8.54297 26.6636Z" fill="#007AFF"/>
<path d="M5.81229 23.3238L7.33573 20.6754C7.55838 20.3238 7.4412 19.9136 7.08963 19.7027C6.73807 19.5035 6.33963 19.6089 6.11698 19.9722L4.58182 22.6441C4.3826 22.9722 4.48807 23.3824 4.85135 23.5933C5.1912 23.7925 5.61307 23.6636 5.81229 23.3238Z" fill="#007AFF"/>
<path d="M5.50781 17.8393H20.0508C23.8945 17.8393 26.7539 14.9213 26.7539 11.312C26.7539 7.57373 23.707 4.84326 19.7344 4.84326C18.2695 1.94873 15.5508 0.0854492 12.1641 0.0854492C7.75781 0.0854492 4.125 3.54248 3.73828 7.89014C1.61719 8.51123 0 10.351 0 12.8237C0 15.601 2.01562 17.8393 5.50781 17.8393Z" fill="black" fill-opacity="0.85"/>
</svg>
