<svg width="35" height="33" viewBox="0 0 35 33" fill="none" xmlns="http://www.w3.org/2000/svg">
<path d="M17.7537 32.461L19.2889 29.8243C19.4998 29.461 19.3826 29.0509 19.031 28.8517C18.6795 28.6407 18.281 28.7579 18.0584 29.1212L16.5232 31.7813C16.324 32.1212 16.4295 32.5313 16.7928 32.7306C17.1326 32.9298 17.5662 32.8126 17.7537 32.461Z" fill="#FFCC00"/>
<path d="M14.0987 29.168L15.6221 26.5195C15.833 26.168 15.7158 25.7578 15.3643 25.5469C15.0127 25.3477 14.6143 25.4531 14.4033 25.8164L12.8682 28.4883C12.669 28.8164 12.7627 29.2266 13.126 29.4375C13.4776 29.6367 13.8994 29.5078 14.0987 29.168Z" fill="#FFCC00"/>
<path d="M8.43774 32.4726L9.96118 29.8358C10.1721 29.4726 10.0549 29.0624 9.71508 28.8632C9.3518 28.6522 8.95336 28.7694 8.74243 29.1327L7.20727 31.7929C7.00805 32.1327 7.11352 32.5429 7.46508 32.7421C7.81665 32.9413 8.23852 32.8241 8.43774 32.4726Z" fill="#FFCC00"/>
<path d="M4.76977 29.1797L6.29321 26.5312C6.50415 26.1797 6.39868 25.7695 6.04712 25.5586C5.68383 25.3594 5.2854 25.4648 5.07446 25.8281L3.5393 28.5C3.34008 28.8281 3.44555 29.2383 3.79712 29.4492C4.14868 29.6484 4.57055 29.5195 4.76977 29.1797Z" fill="#FFCC00"/>
<path d="M21.9258 17.9766C25.1016 17.9766 27.7148 15.3516 27.7148 12.1641C27.7148 8.97656 25.1016 6.35156 21.9258 6.35156C18.75 6.35156 16.125 8.97656 16.125 12.1641C16.125 15.3516 18.75 17.9766 21.9258 17.9766ZM21.9258 16.2539C19.6758 16.2539 17.8477 14.4141 17.8477 12.1641C17.8477 9.90234 19.6758 8.08594 21.9258 8.08594C24.1758 8.08594 25.9922 9.90234 25.9922 12.1641C25.9922 14.4141 24.1758 16.2539 21.9258 16.2539ZM21.9258 4.47656C22.4531 4.47656 22.9102 4.04297 22.9102 3.51562V0.972656C22.9102 0.445312 22.4531 0 21.9258 0C21.3984 0 20.9531 0.445312 20.9531 0.972656V3.51562C20.9531 4.04297 21.3984 4.47656 21.9258 4.47656ZM27.3398 6.75C27.7148 7.125 28.3359 7.13672 28.7344 6.75L30.5273 4.95703C30.9023 4.57031 30.9023 3.9375 30.5273 3.5625C30.1523 3.1875 29.5312 3.1875 29.1562 3.5625L27.3398 5.37891C26.9648 5.75391 26.9648 6.375 27.3398 6.75ZM29.5781 12.1641C29.5781 12.7031 30.0352 13.1367 30.5508 13.1367H33.0938C33.6211 13.1367 34.0547 12.7031 34.0547 12.1641C34.0547 11.6367 33.6211 11.1914 33.0938 11.1914H30.5508C30.0352 11.1914 29.5781 11.6367 29.5781 12.1641ZM27.3398 17.5898C26.9648 17.9648 26.9648 18.5859 27.3398 18.9609L29.1562 20.7773C29.5312 21.1523 30.1523 21.1406 30.5273 20.7656C30.9023 20.4023 30.9023 19.7812 30.5273 19.3945L28.7227 17.5898C28.3359 17.2266 27.7148 17.2266 27.3398 17.5898ZM16.5117 17.5898C16.1367 17.2266 15.4922 17.2266 15.1172 17.5898L13.3242 19.3828C12.9375 19.7695 12.9492 20.3906 13.3125 20.7539C13.6875 21.1289 14.3203 21.1406 14.6836 20.7656L16.5 18.9609C16.875 18.5859 16.875 17.9648 16.5117 17.5898ZM14.2734 12.1641C14.2734 11.6367 13.8164 11.1914 13.2891 11.1914H10.7578C10.2305 11.1914 9.78516 11.6367 9.78516 12.1641C9.78516 12.7031 10.2305 13.1367 10.7578 13.1367H13.2891C13.8164 13.1367 14.2734 12.7031 14.2734 12.1641ZM16.5 6.75C16.875 6.38672 16.875 5.74219 16.5117 5.37891L14.6953 3.5625C14.332 3.19922 13.7109 3.1875 13.3359 3.5625C12.9609 3.9375 12.9492 4.57031 13.3242 4.94531L15.1172 6.75C15.4922 7.125 16.125 7.125 16.5 6.75Z" fill="#007AFF"/>
<path d="M4.96875 23.6836H17.6484C21.0469 23.6836 23.6719 21.1172 23.6719 17.8125C23.6719 14.5312 21.0117 12.0586 17.4961 12.0117C16.125 9.43359 13.6758 7.86328 10.7812 7.86328C6.90234 7.86328 3.65625 10.8633 3.26953 14.707C1.3125 15.3164 0 17.0156 0 19.1484C0 21.7852 1.98047 23.6836 4.96875 23.6836Z" fill="white"/>
<path d="M4.96875 23.6836H17.6484C21.0469 23.6836 23.6719 21.1172 23.6719 17.8125C23.6719 14.5312 21.0117 12.0586 17.4961 12.0117C16.125 9.43359 13.6758 7.86328 10.7812 7.86328C6.90234 7.86328 3.65625 10.8633 3.26953 14.707C1.3125 15.3164 0 17.0156 0 19.1484C0 21.7852 1.98047 23.6836 4.96875 23.6836ZM4.92188 21.7969C2.92969 21.7969 1.88672 20.6602 1.88672 19.1953C1.88672 17.9531 2.60156 16.8633 4.32422 16.3945C4.89844 16.2539 5.09766 15.9961 5.14453 15.3984C5.42578 12.1172 7.86328 9.75 10.7812 9.75C13.0547 9.75 14.8125 11.0039 15.9141 13.1836C16.1602 13.6875 16.4531 13.8633 17.0508 13.8633C20.0742 13.8633 21.7852 15.6914 21.7852 17.8711C21.7852 20.0508 20.0039 21.7969 17.6836 21.7969H4.92188Z" fill="black" fill-opacity="0.85"/>
</svg>
