<svg width="24" height="24" viewBox="0 0 24 24" fill="none" xmlns="http://www.w3.org/2000/svg">
<path d="M11.9531 23.9062C18.4922 23.9062 23.9062 18.4805 23.9062 11.9531C23.9062 5.41406 18.4805 0 11.9414 0C5.41406 0 0 5.41406 0 11.9531C0 18.4805 5.42578 23.9062 11.9531 23.9062ZM11.9531 21.9141C6.42188 21.9141 2.00391 17.4844 2.00391 11.9531C2.00391 6.42188 6.41016 1.99219 11.9414 1.99219C17.4727 1.99219 21.9141 6.42188 21.9141 11.9531C21.9141 17.4844 17.4844 21.9141 11.9531 21.9141Z" fill="#007AFF"/>
<path d="M6.43359 15.2578H12.2461C13.8281 15.2578 15.0352 14.0508 15.0352 12.5039C15.0352 10.9922 13.8164 9.83203 12.1875 9.79688C11.5547 8.625 10.4414 7.89844 9.09375 7.89844C7.3125 7.89844 5.8125 9.28125 5.61328 11.0508C4.73438 11.3438 4.11328 12.1289 4.11328 13.125C4.11328 14.3438 5.03906 15.2578 6.43359 15.2578ZM11.1211 7.41797C11.332 7.62891 11.6836 7.60547 11.8828 7.41797C12.0703 7.21875 12.0938 6.86719 11.8828 6.66797L11.0391 5.83594C10.8281 5.63672 10.5 5.63672 10.2891 5.83594C10.0898 6.02344 10.0898 6.36328 10.2891 6.57422L11.1211 7.41797ZM14.2734 6.41016C14.5781 6.41016 14.8125 6.17578 14.8125 5.88281V4.69922C14.8125 4.41797 14.5781 4.17188 14.2734 4.17188C13.9922 4.17188 13.7461 4.41797 13.7461 4.69922V5.88281C13.7461 6.17578 13.9922 6.41016 14.2734 6.41016ZM16.6875 7.40625C16.8867 7.60547 17.25 7.62891 17.4609 7.41797L18.2812 6.57422C18.4805 6.375 18.4688 6.02344 18.2812 5.83594C18.0703 5.63672 17.7422 5.625 17.5312 5.83594L16.6875 6.66797C16.4766 6.86719 16.5 7.20703 16.6875 7.40625ZM18.2227 10.3477H19.3828C19.6875 10.3477 19.9219 10.1133 19.9219 9.8203C19.9219 9.51561 19.6875 9.29296 19.3828 9.29296H18.2227C17.9414 9.29296 17.6953 9.51561 17.6953 9.8203C17.6953 10.1133 17.9414 10.3477 18.2227 10.3477ZM17.5312 13.8281C17.7422 14.0391 18.0703 14.0156 18.2812 13.8164C18.4688 13.6055 18.4805 13.2539 18.2812 13.0664L17.4609 12.2461C17.25 12.0469 16.8984 12.0469 16.6875 12.2461C16.5 12.4453 16.4766 12.7969 16.6875 12.9961L17.5312 13.8281ZM17.0273 9.8203C17.0273 8.28515 15.8086 7.08984 14.2734 7.08984C13.3477 7.08984 12.5156 7.55859 12.0352 8.27344C12.2812 8.49609 12.4805 8.74219 12.668 9.03516C14.3555 9.25781 15.6445 10.4766 15.8203 12.0938C16.5703 11.5664 17.0273 10.7461 17.0273 9.8203ZM6.89062 17.7422L7.55859 16.5938C7.6875 16.3828 7.61719 16.1367 7.39453 16.0078C7.19531 15.8906 6.9375 15.9727 6.82031 16.1719L6.15234 17.3203C6.04688 17.5078 6.10547 17.7891 6.31641 17.8828C6.51562 18.0117 6.77344 17.9414 6.89062 17.7422ZM8.39062 18.9844L9.01172 17.8945C9.11719 17.707 9.07031 17.4375 8.84766 17.3203C8.63672 17.2031 8.39062 17.2734 8.26172 17.4844L7.62891 18.5625C7.51172 18.7617 7.59375 19.0312 7.80469 19.1367C8.00391 19.2656 8.27344 19.1836 8.39062 18.9844ZM10.6758 17.7422L11.3438 16.5938C11.4609 16.3945 11.3789 16.1367 11.1797 16.0195C10.9688 15.8906 10.7109 15.9609 10.5938 16.1602L9.9375 17.3086C9.83203 17.5078 9.87891 17.7773 10.0898 17.8945C10.3125 18 10.5586 17.9297 10.6758 17.7422ZM12.1641 18.9844L12.7969 17.9062C12.9023 17.707 12.832 17.4258 12.6211 17.3203C12.4219 17.2148 12.1758 17.2734 12.0469 17.4844L11.4141 18.5625C11.2852 18.7734 11.3672 19.0312 11.5898 19.1484C11.7891 19.2656 12.0469 19.1836 12.1641 18.9844Z" fill="black" fill-opacity="0.85"/>
</svg>
