<svg width="27" height="27" viewBox="0 0 27 27" fill="none" xmlns="http://www.w3.org/2000/svg">
<path d="M21.1172 24.4453H5.87109C5.46094 24.4453 5.13281 24.7617 5.13281 25.1836C5.13281 25.6055 5.46094 25.9336 5.87109 25.9336H21.1172C21.5273 25.9336 21.8555 25.6055 21.8555 25.1836C21.8555 24.7617 21.5273 24.4453 21.1172 24.4453Z" fill="#007AFF"/>
<path d="M21.1172 20.4727H5.87109C5.46094 20.4727 5.13281 20.7891 5.13281 21.2109C5.13281 21.6328 5.46094 21.9492 5.87109 21.9492H21.1172C21.5273 21.9492 21.8555 21.6328 21.8555 21.2109C21.8555 20.7891 21.5273 20.4727 21.1172 20.4727Z" fill="#007AFF"/>
<path d="M5.50781 17.7539H20.0508C23.8945 17.7539 26.7539 14.8359 26.7539 11.2266C26.7539 7.48828 23.707 4.75781 19.7344 4.75781C18.2695 1.86328 15.5508 0 12.1641 0C7.75781 0 4.125 3.45703 3.73828 7.80469C1.61719 8.42578 0 10.2656 0 12.7383C0 15.5156 2.01562 17.7539 5.50781 17.7539ZM5.48438 15.8789C3.08203 15.8789 1.875 14.5312 1.875 12.7969C1.875 11.3906 2.69531 10.125 4.6875 9.59766C5.33203 9.42188 5.56641 9.11719 5.625 8.46094C5.89453 4.62891 8.76562 1.875 12.1641 1.875C14.8008 1.875 16.875 3.32812 18.1406 5.91797C18.4102 6.49219 18.7617 6.69141 19.4531 6.69141C22.9219 6.69141 24.8789 8.77734 24.8789 11.2734C24.8789 13.8281 22.8398 15.8789 20.168 15.8789H5.48438Z" fill="black" fill-opacity="0.85"/>
</svg>
