<svg width="27" height="31" viewBox="0 0 27 31" fill="none" xmlns="http://www.w3.org/2000/svg">
<path d="M17.1329 28.9922C17.3439 28.9922 17.4962 28.793 17.4845 28.5703L17.4024 27.457L18.3399 28.0898C18.504 28.207 18.7618 28.1602 18.879 27.9844C18.9962 27.8086 18.9259 27.5391 18.7032 27.4336L17.6954 26.9414L18.7149 26.4375C18.9259 26.332 18.9845 26.0742 18.8907 25.8984C18.7853 25.7109 18.504 25.6758 18.3399 25.793L17.4024 26.4375L17.4962 25.3125C17.5196 25.0781 17.3439 24.8906 17.1329 24.8906C16.8868 24.8906 16.7345 25.0781 16.7462 25.3125L16.8282 26.4375L15.879 25.793C15.7149 25.6758 15.4689 25.6992 15.3517 25.8984C15.2462 26.0742 15.2931 26.332 15.5157 26.4375L16.5235 26.9414L15.5157 27.4336C15.2931 27.5391 15.2345 27.7969 15.3399 27.9844C15.4454 28.1719 15.7149 28.207 15.879 28.0898L16.8282 27.4688L16.7579 28.5703C16.7462 28.793 16.8868 28.9922 17.1329 28.9922Z" fill="black" fill-opacity="0.85"/>
<path d="M10.4415 30.7383C10.6642 30.7383 10.8048 30.5391 10.7931 30.3281L10.7228 29.2148L11.6485 29.8359C11.8243 29.9531 12.0821 29.9062 12.1993 29.7305C12.3165 29.5547 12.2462 29.2852 12.0235 29.1797L11.0157 28.6992L12.0353 28.1953C12.2462 28.0898 12.3048 27.832 12.211 27.6445C12.1056 27.457 11.8243 27.4219 11.6485 27.5391L10.7228 28.1953L10.8048 27.0586C10.8282 26.8359 10.6642 26.6484 10.4415 26.6484C10.1954 26.6484 10.0548 26.8359 10.0665 27.0586L10.1368 28.1953L9.19929 27.5391C9.02351 27.4219 8.77741 27.4453 8.66023 27.6445C8.55476 27.832 8.60163 28.0781 8.82429 28.1953L9.84382 28.6992L8.82429 29.1914C8.60163 29.2969 8.54304 29.543 8.64851 29.7305C8.75398 29.9297 9.02351 29.9648 9.19929 29.8477L10.1368 29.2148L10.0782 30.3281C10.0665 30.5391 10.1954 30.7383 10.4415 30.7383Z" fill="black" fill-opacity="0.85"/>
<path d="M4.85163 28.9453C5.06257 28.9453 5.21491 28.7461 5.20319 28.5352L5.12116 27.4102L6.05866 28.043C6.22273 28.1602 6.49226 28.1133 6.59773 27.9375C6.71491 27.7617 6.6446 27.4922 6.42195 27.3867L5.41413 26.8945L6.43366 26.3906C6.6446 26.2852 6.70319 26.0391 6.60945 25.8516C6.51569 25.6641 6.22273 25.6289 6.05866 25.7461L5.12116 26.3906L5.21491 25.2656C5.23835 25.043 5.06257 24.8555 4.85163 24.8555C4.60554 24.8555 4.45319 25.043 4.46491 25.2656L4.54695 26.3906L3.59773 25.7461C3.43366 25.6289 3.18757 25.6523 3.07038 25.8516C2.96491 26.0391 3.01179 26.2852 3.23445 26.3906L4.24226 26.8945L3.23445 27.3867C3.01179 27.4922 2.95319 27.75 3.05866 27.9375C3.16413 28.1367 3.43366 28.1719 3.59773 28.0547L4.54695 27.4219L4.47663 28.5352C4.46491 28.7461 4.60554 28.9453 4.85163 28.9453Z" fill="black" fill-opacity="0.85"/>
<path d="M19.3005 23.9649L20.0856 22.5821C20.2966 22.2306 20.1911 21.8087 19.8395 21.5978C19.488 21.3985 19.0778 21.5274 18.8669 21.8673L18.07 23.2853C17.8825 23.6134 17.9645 24.0235 18.3278 24.2345C18.6794 24.4337 19.1013 24.3048 19.3005 23.9649Z" fill="#007AFF"/>
<path d="M12.1287 25.711L13.9568 22.547C14.156 22.1837 14.0506 21.7735 13.7107 21.5743C13.3475 21.3634 12.9373 21.4806 12.7381 21.8439L10.8982 25.0313C10.699 25.3712 10.8045 25.7813 11.1678 25.9806C11.5076 26.1798 11.9412 26.0626 12.1287 25.711Z" fill="#007AFF"/>
<path d="M7.01921 23.918L7.80437 22.5352C8.0153 22.1836 7.90984 21.7617 7.55827 21.5508C7.20671 21.3516 6.79656 21.4805 6.58562 21.8203L5.78874 23.2383C5.60124 23.5664 5.68327 23.9766 6.04656 24.1875C6.39812 24.3867 6.81999 24.2695 7.01921 23.918Z" fill="#007AFF"/>
<path d="M5.50781 19.6992H20.0508C23.8945 19.6992 26.7539 16.7812 26.7539 13.1719C26.7539 9.43359 23.707 6.70312 19.7344 6.70312C18.2695 3.80859 15.5508 1.94531 12.1641 1.94531C7.75781 1.94531 4.125 5.40234 3.73828 9.75C1.61719 10.3711 0 12.2109 0 14.6836C0 17.4609 2.01562 19.6992 5.50781 19.6992ZM5.48438 17.8242C3.08203 17.8242 1.875 16.4766 1.875 14.7422C1.875 13.3359 2.69531 12.0703 4.6875 11.543C5.33203 11.3672 5.56641 11.0625 5.625 10.4062C5.89453 6.57422 8.76562 3.82031 12.1641 3.82031C14.8008 3.82031 16.875 5.27344 18.1406 7.86328C18.4102 8.4375 18.7617 8.63672 19.4531 8.63672C22.9219 8.63672 24.8789 10.7227 24.8789 13.2188C24.8789 15.7734 22.8398 17.8242 20.168 17.8242H5.48438Z" fill="black" fill-opacity="0.85"/>
</svg>
