<svg width="24" height="24" viewBox="0 0 24 24" fill="none" xmlns="http://www.w3.org/2000/svg">
<path d="M11.9531 23.9062C18.4922 23.9062 23.9062 18.4805 23.9062 11.9531C23.9062 5.41406 18.4805 0 11.9414 0C5.41406 0 0 5.41406 0 11.9531C0 18.4805 5.42578 23.9062 11.9531 23.9062ZM11.9531 21.9141C6.42188 21.9141 2.00391 17.4844 2.00391 11.9531C2.00391 6.42188 6.41016 1.99219 11.9414 1.99219C17.4727 1.99219 21.9141 6.42188 21.9141 11.9531C21.9141 17.4844 17.4844 21.9141 11.9531 21.9141Z" fill="#007AFF"/>
<path d="M6.90234 14.7774H12.7148C14.2969 14.7774 15.5039 13.5704 15.5039 12.0235C15.5039 10.5118 14.2852 9.36336 12.668 9.3282C12.0352 8.14461 10.9102 7.41805 9.5625 7.41805C7.78125 7.41805 6.28125 8.80086 6.09375 10.5704C5.20312 10.8751 4.58203 11.6485 4.58203 12.6446C4.58203 13.8751 5.51953 14.7774 6.90234 14.7774ZM7.35938 17.2618L8.02734 16.1134C8.15625 15.9142 8.08594 15.6563 7.86328 15.5392C7.66406 15.4103 7.40625 15.4923 7.30078 15.6915L6.63281 16.8399C6.51562 17.0392 6.57422 17.3087 6.78516 17.4142C6.98438 17.5313 7.25391 17.461 7.35938 17.2618ZM8.85938 18.504L9.48047 17.4259C9.59766 17.2267 9.53906 16.9571 9.31641 16.8399C9.10547 16.7345 8.85938 16.7931 8.73047 17.004L8.09766 18.0821C7.98047 18.2931 8.0625 18.5509 8.28516 18.6681C8.47266 18.7853 8.74219 18.7032 8.85938 18.504ZM11.1445 17.2618L11.8125 16.1251C11.9414 15.9142 11.8594 15.6681 11.6484 15.5392C11.4375 15.422 11.1797 15.4806 11.0625 15.6798L10.4062 16.8282C10.3008 17.0274 10.3477 17.297 10.5703 17.4142C10.7812 17.5196 11.0273 17.4493 11.1445 17.2618ZM12.6328 18.5157L13.2656 17.4259C13.3711 17.2267 13.3125 16.9454 13.1016 16.8399C12.8906 16.7345 12.6445 16.8048 12.5156 17.004L11.8828 18.0821C11.7656 18.2931 11.8477 18.5509 12.0586 18.6681C12.2578 18.7853 12.5156 18.7032 12.6328 18.5157ZM19.3594 9.03524C19.3594 8.8243 19.2656 8.68367 19.0898 8.68367C18.832 8.68367 18.3984 9.0118 17.6484 9.0118C16.2773 9.0118 15.4102 8.21492 15.4102 6.9493C15.4102 6.22274 15.8203 5.69539 15.8203 5.3907C15.8203 5.22664 15.6797 5.10946 15.4688 5.12117C14.3555 5.16805 12.9727 6.48055 12.7852 8.09774C12.9141 8.23836 13.0195 8.3907 13.1367 8.54305C14.8711 8.75399 16.1484 10.0431 16.3125 11.7071C18.1992 11.5079 19.3594 10.0196 19.3594 9.03524Z" fill="black" fill-opacity="0.85"/>
</svg>
