<svg width="28" height="25" viewBox="0 0 28 25" fill="none" xmlns="http://www.w3.org/2000/svg">
<path d="M26.3438 11.8477C26.7656 11.8477 27.1172 11.4961 27.1172 11.0742C27.1172 10.6523 26.7656 10.3125 26.3438 10.3125C22.5352 10.3125 19.4766 13.3828 19.4766 17.1914C19.4766 17.625 19.8047 17.9648 20.2266 17.9648C20.6602 17.9648 21.0117 17.625 21.0117 17.1914C21.0117 14.25 23.3906 11.8477 26.3438 11.8477Z" fill="black" fill-opacity="0.85"/>
<path d="M26.3438 9.28125C26.7656 9.28125 27.1172 8.94141 27.1172 8.51953C27.1172 8.09766 26.7656 7.74609 26.3438 7.74609C21.1055 7.74609 16.9102 11.9531 16.9102 17.1914C16.9102 17.625 17.25 17.9648 17.6719 17.9648C18.1055 17.9648 18.4453 17.625 18.4453 17.1914C18.4453 12.832 21.9844 9.28125 26.3438 9.28125Z" fill="black" fill-opacity="0.85"/>
<path d="M26.3438 6.71484C26.7656 6.71484 27.1172 6.375 27.1172 5.95312C27.1172 5.53125 26.7656 5.17969 26.3438 5.17969C19.6992 5.17969 14.3555 10.5469 14.3555 17.1914C14.3555 17.625 14.6836 17.9648 15.1055 17.9648C15.5391 17.9648 15.8906 17.625 15.8906 17.1914C15.8906 11.4258 20.5664 6.71484 26.3438 6.71484Z" fill="black" fill-opacity="0.85"/>
<path d="M26.3438 4.16016C26.7656 4.16016 27.1172 3.80859 27.1172 3.38672C27.1172 2.96484 26.7656 2.625 26.3438 2.625C18.2812 2.625 11.7773 9.12891 11.7773 17.1914C11.7773 17.625 12.1172 17.9648 12.5391 17.9648C12.9727 17.9648 13.3125 17.625 13.3125 17.1914C13.3125 10.0078 19.1484 4.16016 26.3438 4.16016Z" fill="black" fill-opacity="0.85"/>
<path d="M26.3438 1.59375C26.7656 1.59375 27.1172 1.25391 27.1172 0.832031C27.1172 0.398438 26.7656 0.0585938 26.3438 0.0585938C16.8633 0.0585938 9.22266 7.71094 9.22266 17.1914C9.22266 17.625 9.5625 17.9648 9.97266 17.9648C10.4062 17.9648 10.7578 17.625 10.7578 17.1914C10.7578 8.58984 17.7305 1.59375 26.3438 1.59375Z" fill="black" fill-opacity="0.85"/>
<path d="M4.78125 24.2695H16.875C20.1328 24.2695 22.6641 21.7969 22.6641 18.6328C22.6641 15.4805 20.1211 13.1016 16.7695 13.0312C15.4453 10.5938 13.0898 9.08203 10.3359 9.08203C6.60938 9.08203 3.50391 11.9531 3.11719 15.6445C1.26562 16.2305 0 17.8594 0 19.8984C0 22.4531 1.92188 24.2695 4.78125 24.2695Z" fill="white"/>
<path d="M4.78125 24.2695H16.875C20.1328 24.2695 22.6641 21.7969 22.6641 18.6328C22.6641 15.4805 20.1211 13.1016 16.7695 13.0312C15.4453 10.5938 13.0898 9.08203 10.3359 9.08203C6.60938 9.08203 3.50391 11.9531 3.11719 15.6445C1.26562 16.2305 0 17.8594 0 19.8984C0 22.4531 1.92188 24.2695 4.78125 24.2695ZM4.74609 22.3828C2.85938 22.3828 1.88672 21.3164 1.88672 19.9336C1.88672 18.7852 2.55469 17.7656 4.19531 17.332C4.74609 17.1797 4.96875 16.9102 5.01562 16.3359C5.27344 13.207 7.55859 10.9805 10.3359 10.9805C12.4805 10.9805 14.1445 12.1641 15.1758 14.2383C15.4336 14.7188 15.7266 14.9062 16.3125 14.9062C19.1836 14.9062 20.7773 16.6172 20.7773 18.6797C20.7773 20.7422 19.1133 22.3828 16.9102 22.3828H4.74609Z" fill="#007AFF"/>
</svg>
