<svg width="24" height="24" viewBox="0 0 24 24" fill="none" xmlns="http://www.w3.org/2000/svg">
<path d="M11.9531 23.918C18.4922 23.918 23.9062 18.5039 23.9062 11.9648C23.9062 5.4375 18.4805 0.0117188 11.9414 0.0117188C5.41406 0.0117188 0 5.4375 0 11.9648C0 18.5039 5.42578 23.918 11.9531 23.918Z" fill="#FFCC00"/>
<path d="M8.0625 13.7109C6.33984 13.7109 5.34375 12.5977 5.34375 11.2383C5.34375 10.0195 6.14062 9.10547 7.18359 8.8125C7.38281 6.64453 9.1875 4.93359 11.3555 4.93359C13.0312 4.93359 14.3672 5.87109 15.1055 7.30078C17.0625 7.30078 18.5742 8.63672 18.5742 10.4883C18.5742 12.2812 17.1328 13.7109 15.2578 13.7109H8.0625ZM7.67578 18.3398C7.45312 18.3398 7.33594 18.1641 7.34766 17.9648L7.37109 17.25L6.76172 17.6719C6.59766 17.7656 6.35156 17.7305 6.26953 17.543C6.19922 17.3906 6.22266 17.168 6.44531 17.0625L7.07812 16.7461L6.44531 16.418C6.23438 16.3125 6.19922 16.0781 6.29297 15.9375C6.375 15.7617 6.60938 15.7383 6.76172 15.832L7.37109 16.2539L7.33594 15.5273C7.32422 15.3281 7.45312 15.1523 7.67578 15.1523C7.86328 15.1523 8.00391 15.3281 7.99219 15.5391L7.95703 16.2539L8.54297 15.832C8.69531 15.7383 8.95312 15.7734 9.03516 15.9375C9.12891 16.1133 9.08203 16.3125 8.87109 16.4062L8.22656 16.7461L8.87109 17.0625C9.09375 17.1562 9.15234 17.4141 9.02344 17.5547C8.92969 17.7188 8.69531 17.7656 8.54297 17.6719L7.95703 17.25L7.99219 17.9648C8.00391 18.1641 7.86328 18.3398 7.67578 18.3398ZM11.6602 18.3398C11.4492 18.3398 11.3086 18.1641 11.3203 17.9648L11.3555 17.25L10.7461 17.6719C10.5938 17.7656 10.3477 17.7305 10.2656 17.543C10.1836 17.3906 10.207 17.168 10.4297 17.0625L11.0742 16.7461L10.4297 16.418C10.2188 16.3125 10.1836 16.0781 10.2891 15.9375C10.3711 15.7617 10.6055 15.7383 10.7461 15.832L11.3555 16.2539L11.3086 15.5273C11.2969 15.3281 11.4492 15.1523 11.6602 15.1523C11.8594 15.1523 11.9883 15.3281 11.9766 15.5391L11.9414 16.2539L12.5273 15.832C12.6914 15.7383 12.9492 15.7734 13.0312 15.9375C13.1133 16.1133 13.0664 16.3125 12.8555 16.4062L12.2227 16.7461L12.8555 17.0625C13.0781 17.1562 13.1367 17.4141 13.0195 17.5547C12.9258 17.7188 12.6797 17.7656 12.5273 17.6719L11.9414 17.25L11.9766 17.9648C11.9883 18.1641 11.8594 18.3398 11.6602 18.3398ZM15.6445 18.3398C15.4336 18.3398 15.3047 18.1641 15.3164 17.9648L15.3516 17.25L14.7305 17.6719C14.5781 17.7656 14.332 17.7305 14.25 17.543C14.1797 17.3906 14.2031 17.168 14.4141 17.0625L15.0586 16.7461L14.4141 16.418C14.2031 16.3125 14.1797 16.0781 14.2617 15.9375C14.3555 15.7617 14.5898 15.7383 14.7305 15.832L15.3516 16.2539L15.3047 15.5273C15.293 15.3281 15.4336 15.1523 15.6445 15.1523C15.8438 15.1523 15.9844 15.3281 15.9727 15.5391L15.9258 16.2539L16.5234 15.832C16.6758 15.7383 16.9219 15.7734 17.0156 15.9375C17.0977 16.1133 17.0508 16.3125 16.8516 16.4062L16.207 16.7461L16.8516 17.0625C17.0625 17.1562 17.1094 17.4141 17.0039 17.5547C16.9102 17.7188 16.6641 17.7656 16.5234 17.6719L15.9258 17.25L15.9727 17.9648C15.9844 18.1641 15.8438 18.3398 15.6445 18.3398Z" fill="black" fill-opacity="0.85"/>
</svg>
