<svg width="27" height="30" viewBox="0 0 27 30" fill="none" xmlns="http://www.w3.org/2000/svg">
<path d="M16.1962 23.387H13.5361L13.5126 23.9144L14.9423 21.1722C15.0829 20.9144 14.9775 20.7151 14.7197 20.7151H12.1767C11.8368 20.7151 11.7197 20.8323 11.6142 21.0784L10.0204 24.7112C9.89152 25.0042 10.0204 25.18 10.3251 25.18H12.4931L12.6454 24.4886L10.7587 29.0706C10.7001 29.2229 10.7353 29.3519 10.8407 29.3987C10.9462 29.4456 11.0751 29.4104 11.204 29.2815L16.3837 23.9729C16.6298 23.7151 16.5361 23.387 16.1962 23.387Z" fill="#007AFF"/>
<path d="M5.50781 19.0394H20.0508C23.8945 19.0394 26.7539 16.1214 26.7539 12.512C26.7539 8.77368 23.707 6.04321 19.7344 6.04321C18.2695 3.14868 15.5508 1.2854 12.1641 1.2854C7.75781 1.2854 4.125 4.74243 3.73828 9.09009C1.61719 9.71118 0 11.5511 0 14.0237C0 16.8011 2.01562 19.0394 5.50781 19.0394ZM5.48438 17.1644C3.08203 17.1644 1.875 15.8167 1.875 14.0823C1.875 12.6761 2.69531 11.4103 4.6875 10.883C5.33203 10.7072 5.56641 10.4026 5.625 9.74634C5.89453 5.91431 8.76562 3.1604 12.1641 3.1604C14.8008 3.1604 16.875 4.61352 18.1406 7.20337C18.4102 7.77759 18.7617 7.97681 19.4531 7.97681C22.9219 7.97681 24.8789 10.0627 24.8789 12.5589C24.8789 15.1136 22.8398 17.1644 20.168 17.1644H5.48438Z" fill="black" fill-opacity="0.85"/>
</svg>
