<svg width="24" height="24" viewBox="0 0 24 24" fill="none" xmlns="http://www.w3.org/2000/svg">
<path d="M11.9531 23.918C18.4922 23.918 23.9062 18.5039 23.9062 11.9648C23.9062 5.4375 18.4805 0.0117188 11.9414 0.0117188C5.41406 0.0117188 0 5.4375 0 11.9648C0 18.5039 5.42578 23.918 11.9531 23.918Z" fill="#FFCC00"/>
<path d="M6.49219 16.9219C4.99219 16.9219 3.97266 15.9492 3.97266 14.6016C3.97266 13.5352 4.64062 12.6797 5.61328 12.3633C5.82422 10.4414 7.45312 8.92969 9.39844 8.92969C10.8633 8.92969 12.082 9.72656 12.7617 11.0039C14.543 11.0391 15.8672 12.3047 15.8672 13.9453C15.8672 15.6328 14.543 16.9219 12.832 16.9219H6.49219ZM20.0039 10.7227C20.0039 11.7773 18.7617 13.4062 16.6992 13.6172C16.5469 11.8008 15.1406 10.4297 13.2656 10.1836C13.1484 10.0078 13.0312 9.85547 12.8906 9.70312C13.0898 7.93359 14.6016 6.52734 15.7969 6.46875C16.0195 6.46875 16.1719 6.58594 16.1719 6.76172C16.1719 7.07812 15.7383 7.67578 15.7383 8.46094C15.7383 9.82031 16.6758 10.6992 18.1641 10.6992C18.9844 10.6992 19.4297 10.3242 19.7227 10.3242C19.9102 10.3242 20.0039 10.5 20.0039 10.7227Z" fill="black" fill-opacity="0.85"/>
</svg>
