<svg width="24" height="24" viewBox="0 0 24 24" fill="none" xmlns="http://www.w3.org/2000/svg">
<path d="M11.9531 23.918C18.4922 23.918 23.9062 18.5039 23.9062 11.9648C23.9062 5.4375 18.4805 0.0117188 11.9414 0.0117188C5.41406 0.0117188 0 5.4375 0 11.9648C0 18.5039 5.42578 23.918 11.9531 23.918Z" fill="#FFCC00"/>
<path d="M8.0625 13.582C6.33984 13.582 5.34375 12.4688 5.34375 11.1094C5.34375 9.89062 6.14062 8.97656 7.18359 8.67188C7.38281 6.51562 9.1875 4.79297 11.3555 4.79297C13.0312 4.79297 14.3672 5.74219 15.1055 7.16016C17.0625 7.16016 18.5742 8.50781 18.5742 10.3594C18.5742 12.1406 17.1328 13.582 15.2578 13.582H8.0625ZM7.92188 17.0156C7.75781 17.2852 7.42969 17.3789 7.16016 17.2148C6.89062 17.0742 6.79688 16.7227 6.96094 16.4648L7.81641 14.9883C7.96875 14.7188 8.29688 14.6367 8.56641 14.7773C8.83594 14.9414 8.91797 15.2812 8.77734 15.5391L7.92188 17.0156ZM9.62109 18.8789C9.46875 19.1367 9.14062 19.2422 8.88281 19.0898C8.60156 18.9375 8.51953 18.5977 8.66016 18.3281L10.6055 14.9883C10.7695 14.707 11.0977 14.6367 11.3438 14.7773C11.625 14.9414 11.707 15.2695 11.5664 15.5391L9.62109 18.8789ZM13.4766 17.0156C13.3242 17.2852 12.9961 17.3789 12.7383 17.2148C12.457 17.0742 12.375 16.7227 12.5273 16.4648L13.3945 14.9883C13.5352 14.7188 13.875 14.6367 14.1328 14.7773C14.4141 14.9414 14.4961 15.2812 14.332 15.5391L13.4766 17.0156ZM15.1875 18.8789C15.0352 19.1367 14.6953 19.2422 14.4492 19.0898C14.168 18.9375 14.0859 18.5977 14.2383 18.3281L16.1719 14.9883C16.3242 14.707 16.6523 14.6367 16.9219 14.7773C17.1914 14.9414 17.2852 15.2695 17.1328 15.5391L15.1875 18.8789Z" fill="black" fill-opacity="0.85"/>
</svg>
