<svg width="31" height="30" viewBox="0 0 31 30" fill="none" xmlns="http://www.w3.org/2000/svg">
<path d="M17.7537 29.171L19.2889 26.5226C19.4998 26.171 19.3826 25.7609 19.031 25.5499C18.6795 25.3507 18.281 25.4679 18.0584 25.8195L16.5232 28.4913C16.324 28.8195 16.4295 29.2296 16.7928 29.4406C17.1326 29.6398 17.5662 29.5226 17.7537 29.171Z" fill="#FFCC00"/>
<path d="M14.0977 25.8663L15.6211 23.2296C15.832 22.8663 15.7148 22.4562 15.3633 22.257C15.0117 22.046 14.6133 22.1632 14.4023 22.5265L12.8672 25.1866C12.668 25.5265 12.7617 25.9366 13.125 26.1476C13.4766 26.3351 13.8984 26.2179 14.0977 25.8663Z" fill="#FFCC00"/>
<path d="M8.43774 29.1827L9.96118 26.5343C10.1721 26.1827 10.0549 25.7726 9.71508 25.5616C9.3518 25.3624 8.95336 25.4796 8.74243 25.8312L7.20727 28.5031C7.00805 28.8312 7.11352 29.2413 7.46508 29.4523C7.81665 29.6515 8.23852 29.5343 8.43774 29.1827Z" fill="#FFCC00"/>
<path d="M4.76977 25.8781L6.29321 23.2413C6.50415 22.8781 6.39868 22.4679 6.04712 22.2687C5.68383 22.0577 5.2854 22.1749 5.07446 22.5382L3.5393 25.1984C3.34008 25.5382 3.44555 25.9484 3.79712 26.1593C4.14868 26.3468 4.57055 26.2296 4.76977 25.8781Z" fill="#FFCC00"/>
<path d="M23.4492 14.4288C27.3164 14.4288 29.7891 12.1906 30.668 9.89367C31.0547 8.95617 30.5508 8.1007 29.6367 8.1007C28.9336 8.1007 28.3594 8.40539 27.1172 8.40539C24.1289 8.40539 22.5469 6.77648 22.5469 4.0343C22.5469 2.69836 22.957 1.98351 22.957 1.32726C22.957 0.354607 22.125 -0.114143 21.0938 0.23742C18.6094 1.05773 16.5 3.70617 16.5 7.04601C16.5 11.2179 19.5234 14.4288 23.4492 14.4288ZM23.4492 12.6827C20.3789 12.6827 18.2109 10.339 18.2109 6.99914C18.2109 4.64367 19.5703 2.87414 21.1055 2.03039L21.2344 2.12414C21.0352 2.68664 20.8594 3.4718 20.8594 4.38586C20.8594 7.77258 23.3086 10.0695 26.7188 10.0695C27.5508 10.0695 28.3242 9.91711 28.8633 9.74133L28.9453 9.82336C28.1367 11.3468 26.0625 12.6827 23.4492 12.6827Z" fill="#007AFF"/>
<path d="M4.96875 20.3821H17.6484C21.0352 20.3821 23.6719 17.8274 23.6719 14.5227C23.6719 11.2297 21.0117 8.7688 17.4961 8.71021C16.125 6.1438 13.6758 4.57349 10.7812 4.57349C6.90234 4.57349 3.65625 7.57349 3.26953 11.4172C1.32422 12.0266 0 13.7141 0 15.8469C0 18.4953 1.99219 20.3821 4.96875 20.3821Z" fill="white"/>
<path d="M4.96875 20.3821H17.6484C21.0352 20.3821 23.6719 17.8274 23.6719 14.5227C23.6719 11.2297 21.0117 8.7688 17.4961 8.71021C16.125 6.1438 13.6758 4.57349 10.7812 4.57349C6.90234 4.57349 3.65625 7.57349 3.26953 11.4172C1.32422 12.0266 0 13.7141 0 15.8469C0 18.4953 1.99219 20.3821 4.96875 20.3821ZM4.92188 18.5071C2.92969 18.5071 1.875 17.3586 1.875 15.8938C1.875 14.6633 2.60156 13.5617 4.32422 13.1047C4.88672 12.9524 5.09766 12.6946 5.14453 12.1086C5.41406 8.81568 7.85156 6.44849 10.7812 6.44849C13.0547 6.44849 14.8242 7.70239 15.9141 9.8938C16.1719 10.3977 16.4531 10.5617 17.0508 10.5617C20.0859 10.5617 21.7852 12.3899 21.7852 14.5696C21.7852 16.761 20.0039 18.5071 17.6836 18.5071H4.92188Z" fill="black" fill-opacity="0.85"/>
</svg>
