<svg width="24" height="24" viewBox="0 0 24 24" fill="none" xmlns="http://www.w3.org/2000/svg">
<path d="M11.9531 23.918C18.4922 23.918 23.9062 18.5039 23.9062 11.9648C23.9062 5.4375 18.4805 0.0117188 11.9414 0.0117188C5.41406 0.0117188 0 5.4375 0 11.9648C0 18.5039 5.42578 23.918 11.9531 23.918Z" fill="#FFCC00"/>
<path d="M6.25781 15.2109C4.82812 15.2109 3.86719 14.2852 3.86719 13.0078C3.86719 11.9883 4.51172 11.1914 5.41406 10.875C5.625 9.05859 7.17188 7.62891 9 7.62891C10.3945 7.62891 11.543 8.39062 12.1875 9.59766C13.875 9.63281 15.1289 10.8281 15.1289 12.3867C15.1289 13.9805 13.8867 15.2109 12.2578 15.2109H6.25781ZM11.0859 7.14843L10.2305 6.28124C10.0312 6.05858 10.0312 5.6953 10.2305 5.49608C10.4531 5.30858 10.793 5.29688 11.0156 5.50781L11.8828 6.36327C12.0938 6.57421 12.0703 6.92578 11.8828 7.13672C11.6719 7.33594 11.3086 7.35938 11.0859 7.14843ZM14.3438 6.10547C14.0508 6.10547 13.793 5.84765 13.793 5.55468V4.34766C13.793 4.04297 14.0508 3.79688 14.3438 3.79688C14.6602 3.79688 14.9062 4.04297 14.9062 4.34766V5.55468C14.9062 5.84765 14.6602 6.10547 14.3438 6.10547ZM16.8281 7.13672C16.6406 6.92578 16.6172 6.56249 16.8281 6.36327L17.6953 5.50781C17.918 5.28516 18.2578 5.30859 18.4688 5.50781C18.668 5.70703 18.6797 6.0703 18.4688 6.28124L17.625 7.14843C17.4141 7.35938 17.0391 7.33594 16.8281 7.13672ZM18.4102 10.1602C18.1289 10.1602 17.8711 9.91406 17.8711 9.62109C17.8711 9.30469 18.1289 9.05859 18.4102 9.05859H19.6055C19.9219 9.05859 20.168 9.30469 20.168 9.62109C20.168 9.91406 19.9219 10.1602 19.6055 10.1602H18.4102ZM17.6953 13.7461L16.8281 12.8906C16.6172 12.6914 16.6406 12.3164 16.8281 12.1055C17.0508 11.9062 17.4141 11.9062 17.625 12.1055L18.4688 12.9492C18.6797 13.1602 18.668 13.5234 18.4688 13.7344C18.2578 13.9336 17.918 13.9688 17.6953 13.7461ZM17.1797 9.62109C17.1797 10.5586 16.7109 11.4141 15.9375 11.9648C15.7617 10.2773 14.4258 9.02344 12.6914 8.80078C12.4922 8.50781 12.293 8.25 12.0352 8.01562C12.5273 7.27734 13.3945 6.79687 14.3438 6.79687C15.9258 6.79687 17.1797 8.03905 17.1797 9.62109ZM7.79297 17.8945L8.60156 16.043C8.66016 15.9141 8.73047 15.8672 8.91797 15.8672H10.2305C10.3711 15.8672 10.4297 15.9727 10.3594 16.1133L9.77344 17.2148H11.0039C11.1797 17.2148 11.2383 17.3789 11.1094 17.5312L8.42578 20.25C8.30859 20.3672 8.13281 20.2734 8.19141 20.1211L9 18.1523H7.95703C7.79297 18.1523 7.73438 18.0469 7.79297 17.8945Z" fill="black" fill-opacity="0.85"/>
</svg>
