<svg width="24" height="24" viewBox="0 0 24 24" fill="none" xmlns="http://www.w3.org/2000/svg">
<path d="M11.9531 23.918C18.4922 23.918 23.9062 18.5039 23.9062 11.9648C23.9062 5.4375 18.4805 0.0117188 11.9414 0.0117188C5.41406 0.0117188 0 5.4375 0 11.9648C0 18.5039 5.42578 23.918 11.9531 23.918Z" fill="#FFCC00"/>
<path d="M8.0625 13.1602C6.33984 13.1602 5.34375 12.0469 5.34375 10.6875C5.34375 9.44531 6.14062 8.55469 7.18359 8.23828C7.38281 6.09375 9.1875 4.37109 11.3555 4.37109C13.0312 4.37109 14.3672 5.30859 15.1055 6.72656C17.0625 6.72656 18.5742 8.08594 18.5742 9.9375C18.5742 11.707 17.1328 13.1602 15.2578 13.1602H8.0625ZM9.91406 16.5938L10.8984 14.3203C10.957 14.1562 11.0625 14.0977 11.2734 14.0977H12.8906C13.0664 14.0977 13.1133 14.2266 13.043 14.3906L12.3281 15.75H13.8047C14.0391 15.75 14.0977 15.9609 13.9453 16.1367L10.6758 19.4531C10.5938 19.5586 10.5117 19.5703 10.4414 19.5586C10.3711 19.5 10.3477 19.418 10.3945 19.3125L11.3672 16.9102H10.1133C9.90234 16.9102 9.82031 16.7578 9.91406 16.5938ZM7.96875 16.8633C7.80469 17.1211 7.47656 17.2148 7.20703 17.0742C6.94922 16.9102 6.85547 16.5703 7.00781 16.3008L7.86328 14.8242C8.01562 14.5664 8.34375 14.4727 8.61328 14.6133C8.89453 14.7773 8.97656 15.1172 8.82422 15.375L7.96875 16.8633ZM16.043 16.8633C15.8906 17.1211 15.5625 17.2148 15.293 17.0742C15.0234 16.9102 14.9297 16.5703 15.082 16.3008L15.9375 14.8242C16.1016 14.5664 16.4297 14.4727 16.6992 14.6133C16.957 14.7773 17.0625 15.1172 16.8984 15.375L16.043 16.8633Z" fill="black" fill-opacity="0.85"/>
</svg>
