<svg width="27" height="28" viewBox="0 0 27 28" fill="none" xmlns="http://www.w3.org/2000/svg">
<path d="M17.3783 26.6635L20.8471 20.6635C21.0463 20.312 20.9408 19.8901 20.5892 19.7143C20.2494 19.5268 19.8392 19.6088 19.64 19.9721L16.1946 25.9487C15.9837 26.3003 16.0892 26.7104 16.4291 26.9213C16.7572 27.1206 17.1908 27.0034 17.3783 26.6635Z" fill="#007AFF"/>
<path d="M12.7497 26.6519L16.1833 20.6871C16.3942 20.3121 16.2888 19.9136 15.9372 19.7144C15.5739 19.5035 15.1755 19.6089 14.9645 19.9839L11.5192 25.9722C11.3317 26.3004 11.4138 26.7105 11.777 26.9214C12.1286 27.1207 12.5505 27.0035 12.7497 26.6519Z" fill="#007AFF"/>
<path d="M8.08562 26.6519L11.5192 20.6871C11.7302 20.3121 11.6247 19.9136 11.2731 19.7144C10.9099 19.5035 10.5114 19.6089 10.3005 19.9839L6.85515 25.9722C6.66765 26.3004 6.74968 26.7105 7.11296 26.9214C7.46452 27.1207 7.8864 27.0035 8.08562 26.6519Z" fill="#007AFF"/>
<path d="M3.41104 26.6519L6.85635 20.6871C7.06729 20.3121 6.9501 19.9136 6.59854 19.7144C6.24697 19.5035 5.84854 19.6089 5.6376 19.9839L2.18057 25.9722C1.99307 26.3004 2.08682 26.7105 2.43838 26.9214C2.78994 27.1207 3.21182 27.0035 3.41104 26.6519Z" fill="#007AFF"/>
<path d="M5.50781 17.8393H20.0508C23.8945 17.8393 26.7539 14.9213 26.7539 11.312C26.7539 7.57373 23.707 4.84326 19.7344 4.84326C18.2695 1.94873 15.5508 0.0854492 12.1641 0.0854492C7.75781 0.0854492 4.125 3.54248 3.73828 7.89014C1.61719 8.51123 0 10.351 0 12.8237C0 15.601 2.01562 17.8393 5.50781 17.8393ZM5.48438 15.9643C3.08203 15.9643 1.875 14.6167 1.875 12.8823C1.875 11.476 2.69531 10.2104 4.6875 9.6831C5.33203 9.50732 5.56641 9.20264 5.625 8.54639C5.89453 4.71435 8.76562 1.96045 12.1641 1.96045C14.8008 1.96045 16.875 3.41357 18.1406 6.00342C18.4102 6.57764 18.7617 6.77685 19.4531 6.77685C22.9219 6.77685 24.8789 8.86279 24.8789 11.3588C24.8789 13.9135 22.8398 15.9643 20.168 15.9643H5.48438Z" fill="black" fill-opacity="0.85"/>
</svg>
