<svg width="24" height="24" viewBox="0 0 24 24" fill="none" xmlns="http://www.w3.org/2000/svg">
<path d="M11.9531 23.918C18.4922 23.918 23.9062 18.5039 23.9062 11.9648C23.9062 5.4375 18.4805 0.0117188 11.9414 0.0117188C5.41406 0.0117188 0 5.4375 0 11.9648C0 18.5039 5.42578 23.918 11.9531 23.918Z" fill="#FFCC00"/>
<path d="M6.09375 17.0508C4.58203 17.0508 3.55078 16.0664 3.55078 14.7305C3.55078 13.6641 4.24219 12.7969 5.20312 12.4805C5.41406 10.5586 7.04297 9.04688 8.98828 9.04688C10.4648 9.04688 11.6719 9.84375 12.3516 11.1211C14.1328 11.1562 15.4453 12.4102 15.4453 14.0625C15.4453 15.75 14.1445 17.0508 12.4219 17.0508H6.09375ZM11.1914 8.53125L10.2891 7.61719C10.0898 7.38281 10.0898 7.00781 10.2891 6.79688C10.5117 6.58594 10.875 6.58594 11.1094 6.79688L12.0352 7.71094C12.2344 7.92188 12.2227 8.29688 12.0352 8.51953C11.8008 8.73047 11.4141 8.75391 11.1914 8.53125ZM14.6367 7.42969C14.3203 7.42969 14.0508 7.16016 14.0508 6.85547V5.56641C14.0508 5.23828 14.3203 4.99219 14.6367 4.99219C14.9648 4.99219 15.2227 5.23828 15.2227 5.56641V6.85547C15.2227 7.16016 14.9648 7.42969 14.6367 7.42969ZM17.2617 8.51953C17.0508 8.29688 17.0391 7.92188 17.2617 7.71094L18.1641 6.79688C18.3984 6.57422 18.7734 6.58594 18.9961 6.79688C19.207 7.01953 19.207 7.38281 18.9961 7.61719L18.0938 8.53125C17.8828 8.75391 17.4844 8.73047 17.2617 8.51953ZM18.9375 11.7188C18.6094 11.7188 18.3516 11.4609 18.3516 11.1445C18.3516 10.8164 18.6094 10.5703 18.9375 10.5703H20.1914C20.5195 10.5703 20.7773 10.8164 20.7773 11.1445C20.7773 11.4609 20.5195 11.7188 20.1914 11.7188H18.9375ZM18.1641 15.5039L17.2617 14.6016C17.0391 14.3672 17.0508 14.0039 17.2617 13.7812C17.4961 13.5586 17.8711 13.5586 18.0938 13.7812L18.9961 14.6719C19.2188 14.8828 19.207 15.2695 18.9961 15.4922C18.7734 15.7148 18.3984 15.7383 18.1641 15.5039ZM17.625 11.1445C17.625 12.1406 17.1328 13.043 16.3125 13.6055C16.125 11.8477 14.7188 10.5117 12.8789 10.2773C12.6797 9.96094 12.457 9.69141 12.1875 9.45703C12.7148 8.67188 13.6172 8.16797 14.6367 8.16797C16.2891 8.16797 17.625 9.46875 17.625 11.1445Z" fill="black" fill-opacity="0.85"/>
</svg>
