<svg width="24" height="24" viewBox="0 0 24 24" fill="none" xmlns="http://www.w3.org/2000/svg">
<path d="M11.9531 23.918C18.4922 23.918 23.9062 18.5039 23.9062 11.9648C23.9062 5.4375 18.4805 0.0117188 11.9414 0.0117188C5.41406 0.0117188 0 5.4375 0 11.9648C0 18.5039 5.42578 23.918 11.9531 23.918Z" fill="#FFCC00"/>
<path d="M6.25781 15.375C4.82812 15.375 3.86719 14.4492 3.86719 13.1836C3.86719 12.1523 4.51172 11.3555 5.41406 11.0391C5.625 9.22266 7.17188 7.79297 9 7.79297C10.3945 7.79297 11.543 8.55469 12.1875 9.76172C13.875 9.79688 15.1289 10.9922 15.1289 12.5391C15.1289 14.1328 13.8867 15.375 12.2578 15.375H6.25781ZM11.0859 7.3125L10.2305 6.44531C10.0312 6.22266 10.0312 5.85938 10.2305 5.67188C10.4531 5.46094 10.793 5.46094 11.0156 5.67188L11.8828 6.52734C12.0938 6.72656 12.0703 7.08984 11.8828 7.30078C11.6719 7.5 11.3086 7.52344 11.0859 7.3125ZM14.3438 6.25781C14.0508 6.25781 13.793 6.01172 13.793 5.71875V4.51172C13.793 4.20703 14.0508 3.96094 14.3438 3.96094C14.6602 3.96094 14.9062 4.20703 14.9062 4.51172V5.71875C14.9062 6.01172 14.6602 6.25781 14.3438 6.25781ZM16.8281 7.30078C16.6406 7.08984 16.6172 6.72656 16.8281 6.52734L17.6953 5.67188C17.918 5.44922 18.2578 5.46094 18.4688 5.67188C18.668 5.85938 18.6797 6.22266 18.4688 6.44531L17.625 7.3125C17.4141 7.52344 17.0391 7.5 16.8281 7.30078ZM18.4102 10.3242C18.1289 10.3242 17.8711 10.0781 17.8711 9.77344C17.8711 9.45703 18.1289 9.22266 18.4102 9.22266H19.6055C19.9219 9.22266 20.168 9.45703 20.168 9.77344C20.168 10.0781 19.9219 10.3242 19.6055 10.3242H18.4102ZM17.6953 13.9219L16.8281 13.0664C16.6172 12.8438 16.6406 12.4805 16.8281 12.2695C17.0508 12.0703 17.4141 12.0703 17.625 12.2695L18.4688 13.1133C18.6797 13.3125 18.668 13.6758 18.4688 13.9102C18.2578 14.0977 17.918 14.1211 17.6953 13.9219ZM17.1797 9.77344C17.1797 10.7227 16.7109 11.5781 15.9375 12.1289C15.7617 10.4531 14.4258 9.1875 12.6914 8.97656C12.4922 8.67188 12.293 8.41406 12.0352 8.17969C12.5273 7.44141 13.3945 6.96094 14.3438 6.96094C15.9258 6.96094 17.1797 8.20312 17.1797 9.77344ZM6.73828 17.9414C6.62109 18.1406 6.35156 18.2109 6.14062 18.0938C5.92969 17.9883 5.85938 17.707 5.97656 17.4961L6.65625 16.3242C6.78516 16.1133 7.04297 16.0312 7.25391 16.1602C7.48828 16.2773 7.55859 16.5469 7.41797 16.7578L6.73828 17.9414ZM8.28516 19.2188C8.16797 19.4297 7.88672 19.5117 7.67578 19.3945C7.46484 19.2656 7.37109 18.9961 7.5 18.7852L8.14453 17.6719C8.28516 17.4609 8.53125 17.3906 8.75391 17.5078C8.98828 17.625 9.03516 17.9062 8.91797 18.1055L8.28516 19.2188ZM10.6406 17.9297C10.5234 18.1406 10.2656 18.1992 10.0312 18.0938C9.82031 17.9766 9.77344 17.6953 9.87891 17.4844L10.5469 16.3008C10.6758 16.1016 10.9453 16.043 11.1562 16.1602C11.3672 16.2891 11.4492 16.5469 11.332 16.7695L10.6406 17.9297ZM12.1758 19.2305C12.0586 19.4297 11.7891 19.5117 11.5781 19.3945C11.3555 19.2656 11.2734 18.9961 11.4023 18.7852L12.0469 17.6719C12.1875 17.4727 12.4453 17.3906 12.6445 17.5078C12.8672 17.6133 12.9375 17.9062 12.832 18.1055L12.1758 19.2305Z" fill="black" fill-opacity="0.85"/>
</svg>
