<svg width="24" height="24" viewBox="0 0 24 24" fill="none" xmlns="http://www.w3.org/2000/svg">
<path d="M11.9531 23.9062C18.4922 23.9062 23.9062 18.4805 23.9062 11.9531C23.9062 5.41406 18.4805 0 11.9414 0C5.41406 0 0 5.41406 0 11.9531C0 18.4805 5.42578 23.9062 11.9531 23.9062ZM11.9531 21.9141C6.42188 21.9141 2.00391 17.4844 2.00391 11.9531C2.00391 6.42188 6.41016 1.99219 11.9414 1.99219C17.4727 1.99219 21.9141 6.42188 21.9141 11.9531C21.9141 17.4844 17.4844 21.9141 11.9531 21.9141Z" fill="#007AFF"/>
<path d="M6.90234 14.7774H12.7148C14.2969 14.7774 15.5039 13.5704 15.5039 12.0235C15.5039 10.5118 14.2852 9.36336 12.668 9.3282C12.0352 8.14461 10.9102 7.41805 9.5625 7.41805C7.78125 7.41805 6.28125 8.80086 6.09375 10.5704C5.20312 10.8751 4.58203 11.6485 4.58203 12.6446C4.58203 13.8751 5.51953 14.7774 6.90234 14.7774ZM19.3594 9.03524C19.3594 8.8243 19.2656 8.68367 19.0898 8.68367C18.832 8.68367 18.3984 9.0118 17.6484 9.0118C16.2773 9.0118 15.4102 8.21492 15.4102 6.9493C15.4102 6.22274 15.8203 5.69539 15.8203 5.3907C15.8203 5.22664 15.6797 5.10946 15.4688 5.12117C14.3555 5.16805 12.9727 6.48055 12.7852 8.09774C12.9141 8.23836 13.0195 8.3907 13.1367 8.54305C14.8711 8.75399 16.1484 10.0431 16.3125 11.7071C18.1992 11.5079 19.3594 10.0196 19.3594 9.03524ZM8.40234 17.379C8.33203 17.5196 8.40234 17.6368 8.55469 17.6368H9.5625L8.77734 19.5353C8.71875 19.6876 8.89453 19.7813 9.02344 19.6524L11.6133 17.0157C11.7305 16.8868 11.6719 16.711 11.4961 16.711H10.3125L10.875 15.6446C10.9453 15.5157 10.8984 15.3985 10.7461 15.3985H9.48047C9.31641 15.3985 9.23438 15.4571 9.17578 15.586L8.40234 17.379Z" fill="black" fill-opacity="0.85"/>
</svg>
