<svg width="24" height="24" viewBox="0 0 24 24" fill="none" xmlns="http://www.w3.org/2000/svg">
<path d="M11.9531 23.918C18.4922 23.918 23.9062 18.5039 23.9062 11.9648C23.9062 5.4375 18.4805 0.0117188 11.9414 0.0117188C5.41406 0.0117188 0 5.4375 0 11.9648C0 18.5039 5.42578 23.918 11.9531 23.918Z" fill="#FFCC00"/>
<path d="M6.75 14.8594C5.32031 14.8594 4.35938 13.9336 4.35938 12.668C4.35938 11.6367 4.99219 10.8398 5.90625 10.5234C6.10547 8.71875 7.65234 7.27734 9.49219 7.27734C10.875 7.27734 12.0352 8.03906 12.6914 9.24609C14.3555 9.28125 15.6094 10.4766 15.6094 12.0352C15.6094 13.6289 14.3672 14.8594 12.7383 14.8594H6.75ZM19.582 8.95312C19.582 9.96094 18.3867 11.5078 16.4414 11.6953C16.2773 9.98438 14.9648 8.66016 13.1719 8.4375C13.0547 8.28516 12.9375 8.12109 12.8086 7.96875C13.0078 6.30469 14.4375 4.96875 15.5742 4.91016C15.7969 4.91016 15.9375 5.01562 15.9375 5.20312C15.9375 5.49609 15.5156 6.04688 15.5156 6.79688C15.5156 8.09766 16.4062 8.92969 17.8242 8.92969C18.5977 8.92969 19.043 8.57812 19.3125 8.57812C19.4883 8.57812 19.582 8.71875 19.582 8.95312ZM8.28516 17.543L9.08203 15.6914C9.14062 15.5625 9.22266 15.5156 9.39844 15.5156H10.7109C10.8633 15.5156 10.9102 15.6211 10.8398 15.7734L10.2656 16.8633H11.4844C11.6719 16.8633 11.7305 17.0391 11.6016 17.1797L8.92969 19.8984C8.78906 20.0156 8.61328 19.9219 8.67188 19.7695L9.48046 17.8125H8.4375C8.28516 17.8125 8.21484 17.6953 8.28516 17.543Z" fill="black" fill-opacity="0.85"/>
</svg>
