<svg width="24" height="24" viewBox="0 0 24 24" fill="none" xmlns="http://www.w3.org/2000/svg">
<path d="M11.9531 23.9062C18.4922 23.9062 23.9062 18.4805 23.9062 11.9531C23.9062 5.41406 18.4805 0 11.9414 0C5.41406 0 0 5.41406 0 11.9531C0 18.4805 5.42578 23.9062 11.9531 23.9062Z" fill="#FFCC00"/>
<path d="M7.03125 12.0703C7.03125 8.70703 8.78906 6.49219 11.5195 6.29297L11.7539 5.39062C11.8359 5.0625 12.0703 4.92188 12.3633 4.92188C12.7266 4.92188 12.9609 5.15625 12.9609 5.50781C12.9609 5.60156 12.9375 5.69531 12.9023 5.77734L12.7734 6.33984C13.1484 6.42188 13.5 6.51562 13.8164 6.65625L14.1445 5.39062C14.2383 5.0625 14.4609 4.92188 14.7539 4.92188C15.1172 4.92188 15.3516 5.15625 15.3516 5.50781C15.3516 5.60156 15.3398 5.68359 15.3047 5.77734L14.918 7.32422C15.4219 7.75781 15.8203 8.30859 16.0547 8.95312C16.125 9.15234 16.1719 9.35156 16.1719 9.55078C16.1719 10.0078 15.8789 10.3008 15.4336 10.3008C15.0117 10.3008 14.8242 10.0078 14.707 9.71484C14.6484 9.50391 14.543 9.32812 14.4375 9.22266L12.6211 16.3594C13.6758 16.1953 14.4609 15.4805 14.7305 14.5312C14.8477 14.168 15.0938 13.875 15.5039 13.875C15.9727 13.875 16.2539 14.2031 16.2539 14.6484C16.2539 14.8477 16.207 15.0703 16.1367 15.2578C15.6094 16.7695 14.1914 17.7891 12.2344 17.8828L11.9531 18.9844C11.8711 19.3125 11.6367 19.4531 11.3438 19.4531C10.9805 19.4531 10.7578 19.2188 10.7578 18.8555C10.7578 18.7617 10.7695 18.6914 10.8047 18.5977L10.9922 17.8125C10.6172 17.7539 10.2656 17.6484 9.9375 17.4961L9.5625 18.9844C9.48047 19.3125 9.25781 19.4531 8.95312 19.4531C8.60156 19.4531 8.36719 19.2188 8.36719 18.8555C8.36719 18.7617 8.37891 18.6797 8.40234 18.5859L8.84766 16.8281C7.6875 15.832 7.03125 14.1797 7.03125 12.0703ZM8.66016 12.0703C8.66016 13.2188 8.89453 14.1797 9.33984 14.8945L11.1211 7.86328C9.58594 8.24999 8.66016 9.82031 8.66016 12.0703ZM10.3125 15.9961C10.6289 16.1953 10.957 16.3359 11.3555 16.3945L13.4414 8.15625C13.1367 7.96875 12.7852 7.83984 12.4102 7.79297L10.3125 15.9961Z" fill="black" fill-opacity="0.85"/>
</svg>
