<svg width="22" height="22" viewBox="0 0 22 22" fill="none" xmlns="http://www.w3.org/2000/svg">
<path d="M3.67969 21.5977H17.8945C20.3555 21.5977 21.5742 20.3789 21.5742 17.9648V3.65625C21.5742 1.24219 20.3555 0.0234375 17.8945 0.0234375H3.67969C1.23047 0.0234375 0 1.23047 0 3.65625V17.9648C0 20.3906 1.23047 21.5977 3.67969 21.5977Z" fill="#FFCC00"/>
<path d="M5.87109 10.9102C5.87109 7.54688 7.62891 5.33203 10.3594 5.13281L10.5938 4.23047C10.6758 3.90234 10.9102 3.76172 11.2148 3.76172C11.5664 3.76172 11.8008 3.99609 11.8008 4.34766C11.8008 4.44141 11.7773 4.53516 11.7539 4.61719L11.6133 5.17969C11.9883 5.26172 12.3398 5.35547 12.668 5.49609L12.9844 4.23047C13.0781 3.90234 13.3008 3.76172 13.6055 3.76172C13.957 3.76172 14.1914 3.99609 14.1914 4.34766C14.1914 4.44141 14.1797 4.52344 14.1445 4.61719L13.7578 6.16406C14.2617 6.59766 14.6602 7.14844 14.8945 7.79297C14.9648 7.99219 15.0117 8.19141 15.0117 8.39062C15.0117 8.84766 14.7188 9.14062 14.2734 9.14062C13.8516 9.14062 13.6641 8.84766 13.5469 8.55469C13.4883 8.34375 13.3828 8.16797 13.2773 8.0625L11.4609 15.1992C12.5156 15.0352 13.3008 14.3203 13.5703 13.3711C13.6875 13.0078 13.9336 12.7148 14.3438 12.7148C14.8125 12.7148 15.0938 13.043 15.0938 13.4883C15.0938 13.6875 15.0469 13.9102 14.9766 14.0977C14.4492 15.6094 13.0312 16.6289 11.0859 16.7227L10.793 17.8242C10.7227 18.1523 10.4883 18.293 10.1836 18.293C9.82031 18.293 9.60938 18.0586 9.60938 17.6953C9.60938 17.6016 9.62109 17.5312 9.64453 17.4375L9.83203 16.6523C9.45703 16.5938 9.10547 16.4883 8.77734 16.3359L8.40234 17.8242C8.33203 18.1523 8.09766 18.293 7.79297 18.293C7.44141 18.293 7.20703 18.0586 7.20703 17.6953C7.20703 17.6016 7.21875 17.5195 7.24219 17.4258L7.6875 15.668C6.52734 14.6719 5.87109 13.0195 5.87109 10.9102ZM7.5 10.9102C7.5 12.0586 7.73438 13.0195 8.17969 13.7344L9.96094 6.70312C8.42578 7.08984 7.5 8.66016 7.5 10.9102ZM9.15234 14.8359C9.46875 15.0352 9.79688 15.1758 10.1953 15.2344L12.2812 6.99609C11.9766 6.80859 11.625 6.67969 11.25 6.63281L9.15234 14.8359Z" fill="black" fill-opacity="0.85"/>
</svg>
