<svg width="22" height="22" viewBox="0 0 22 22" fill="none" xmlns="http://www.w3.org/2000/svg">
<path d="M3.67969 21.5977H17.8945C20.3555 21.5977 21.5742 20.3789 21.5742 17.9648V3.65625C21.5742 1.24219 20.3555 0.0234375 17.8945 0.0234375H3.67969C1.23047 0.0234375 0 1.23047 0 3.65625V17.9648C0 20.3906 1.23047 21.5977 3.67969 21.5977ZM3.70312 19.7109C2.53125 19.7109 1.88672 19.0898 1.88672 17.8711V3.75C1.88672 2.53125 2.53125 1.91016 3.70312 1.91016H17.8711C19.0312 1.91016 19.6875 2.53125 19.6875 3.75V17.8711C19.6875 19.0898 19.0312 19.7109 17.8711 19.7109H3.70312Z" fill="#007AFF"/>
<path d="M8.03906 9.71484V11.8828H7.16016C5.77734 11.8828 4.67578 12.9844 4.67578 14.3438C4.67578 15.7266 5.77734 16.8398 7.16016 16.8398C8.51953 16.8398 9.64453 15.7148 9.64453 14.3438V13.4531H11.7773V14.3438C11.7773 15.7148 12.8906 16.8398 14.2617 16.8398C15.6328 16.8398 16.7461 15.7266 16.7461 14.3438C16.7461 12.9844 15.6328 11.8828 14.2617 11.8828H13.3711V9.71484H14.2617C15.6328 9.71484 16.7461 8.61328 16.7461 7.24219C16.7461 5.87109 15.6328 4.75781 14.2617 4.75781C12.8906 4.75781 11.7773 5.88281 11.7773 7.24219V8.13281H9.64453V7.24219C9.64453 5.88281 8.51953 4.75781 7.16016 4.75781C5.77734 4.75781 4.67578 5.87109 4.67578 7.24219C4.67578 8.61328 5.77734 9.71484 7.16016 9.71484H8.03906ZM9.64453 11.8945V9.70312H11.7773V11.8945H9.64453ZM7.16016 8.14453C6.65625 8.14453 6.25781 7.74609 6.25781 7.24219C6.25781 6.76172 6.66797 6.33984 7.16016 6.33984C7.64062 6.33984 8.03906 6.76172 8.03906 7.24219V8.14453H7.16016ZM14.2617 8.14453H13.3711V7.24219C13.3711 6.76172 13.7812 6.33984 14.2617 6.33984C14.7422 6.33984 15.1641 6.76172 15.1641 7.24219C15.1641 7.74609 14.7539 8.14453 14.2617 8.14453ZM7.16016 13.4297H8.03906V14.332C8.03906 14.8359 7.64062 15.2344 7.16016 15.2344C6.65625 15.2344 6.25781 14.8359 6.25781 14.332C6.25781 13.8516 6.66797 13.4297 7.16016 13.4297ZM14.2617 13.4297C14.7422 13.4297 15.1641 13.8516 15.1641 14.332C15.1641 14.8359 14.7539 15.2344 14.2617 15.2344C13.7812 15.2344 13.3711 14.8359 13.3711 14.332V13.4297H14.2617Z" fill="black" fill-opacity="0.85"/>
</svg>
