<svg width="17" height="26" viewBox="0 0 17 26" fill="none" xmlns="http://www.w3.org/2000/svg">
<path d="M8.20312 25.7227C13.5938 25.7227 16.418 22.5234 16.418 16.4297C16.418 12.6914 16.2656 9.36328 16.0547 7.10156C15.6094 2.10938 13.3008 0.0351562 8.20312 0.0351562C3.11719 0.0351562 0.808594 2.10938 0.351562 7.10156C0.140625 9.36328 0 12.6914 0 16.4297C0 22.5234 2.8125 25.7227 8.20312 25.7227ZM8.20312 23.8359C4.04297 23.8359 1.88672 21.3047 1.88672 16.4297C1.88672 12.9141 2.01562 9.60938 2.23828 7.27734C2.58984 3.28125 4.07812 1.92188 8.20312 1.92188C12.3281 1.92188 13.8281 3.28125 14.1797 7.27734C14.3906 9.60938 14.5312 12.9141 14.5312 16.4297C14.5312 21.3047 12.3633 23.8359 8.20312 23.8359ZM1.41797 8.80078H15.0117V7.26562H1.41797V8.80078ZM7.45312 8.02734L8.98828 8.03906V1.24219L7.45312 1.23047V8.02734Z" fill="black" fill-opacity="0.85"/>
</svg>
