<svg width="24" height="24" viewBox="0 0 24 24" fill="none" xmlns="http://www.w3.org/2000/svg">
<path d="M0 15.6797C0 16.2422 0.375 16.6289 0.9375 16.6289H2.14453V20.5195C2.14453 21.082 2.51953 21.4453 3.08203 21.4453H6.96094V22.6523C6.96094 23.2148 7.34766 23.5898 7.91016 23.5898C8.47266 23.5898 8.84766 23.2148 8.84766 22.6523V21.4453H10.8516V22.6523C10.8516 23.2148 11.2266 23.5898 11.7891 23.5898C12.3516 23.5898 12.7383 23.2148 12.7383 22.6523V21.4453H14.7305V22.6523C14.7305 23.2148 15.1055 23.5898 15.668 23.5898C16.2422 23.5898 16.6172 23.2148 16.6172 22.6523V21.4453H20.4961C21.0586 21.4453 21.4336 21.082 21.4336 20.5195V16.6172H22.6406C23.2031 16.6172 23.5781 16.2305 23.5781 15.668C23.5781 15.1055 23.2031 14.7305 22.6406 14.7305H21.4336V12.7266H22.6406C23.2031 12.7266 23.5781 12.3516 23.5781 11.7891C23.5781 11.2266 23.2031 10.8398 22.6406 10.8398H21.4336V8.84766H22.6406C23.2031 8.84766 23.5781 8.46094 23.5781 7.89844C23.5781 7.33594 23.2031 6.96094 22.6406 6.96094H21.4336V3.09375C21.4336 2.53125 21.0586 2.15625 20.4961 2.15625H16.6172V0.960938C16.6172 0.398438 16.2422 0.0117188 15.668 0.0117188C15.1055 0.0117188 14.7305 0.398438 14.7305 0.960938V2.15625H12.7383V0.960938C12.7383 0.398438 12.3516 0.0117188 11.7891 0.0117188C11.2266 0.0117188 10.8516 0.398438 10.8516 0.960938V2.15625H8.84766V0.960938C8.84766 0.398438 8.47266 0.0117188 7.91016 0.0117188C7.34766 0.0117188 6.96094 0.398438 6.96094 0.960938V2.15625H3.08203C2.51953 2.15625 2.14453 2.53125 2.14453 3.09375V6.97266H0.9375C0.375 6.97266 0 7.34766 0 7.91016C0 8.47266 0.375 8.85938 0.9375 8.85938H2.14453V10.8516H0.9375C0.375 10.8516 0 11.2383 0 11.8008C0 12.3633 0.375 12.7383 0.9375 12.7383H2.14453V14.7422H0.9375C0.375 14.7422 0 15.1172 0 15.6797ZM7.3125 17.2148C6.69141 17.2148 6.38672 16.9219 6.38672 16.2773V7.32422C6.38672 6.69141 6.69141 6.39844 7.3125 6.39844H16.2891C16.9102 6.39844 17.2031 6.69141 17.2031 7.32422V16.2773C17.2031 16.9219 16.9102 17.2148 16.2891 17.2148H7.3125ZM7.98047 15.3281C7.98047 15.5039 8.09766 15.6211 8.27344 15.6211H15.3164C15.5039 15.6211 15.6094 15.5039 15.6094 15.3281V8.28516C15.6094 8.09766 15.5039 7.99219 15.3164 7.99219H8.27344C8.09766 7.99219 7.98047 8.09766 7.98047 8.28516V15.3281Z" fill="black" fill-opacity="0.85"/>
</svg>
