<svg width="32" height="26" viewBox="0 0 32 26" fill="none" xmlns="http://www.w3.org/2000/svg">
<path d="M0.960938 10.0898H26.6016V7.4297H0.960938V10.0898ZM3.67969 22.7812H23.8594C26.3203 22.7812 27.5391 21.5742 27.5391 19.1602V6.39844C27.5391 3.98438 26.3203 2.76562 23.8594 2.76562H3.67969C1.24219 2.76562 0 3.98438 0 6.39844V19.1602C0 21.5742 1.24219 22.7812 3.67969 22.7812ZM3.71484 20.8945C2.54297 20.8945 1.88672 20.2734 1.88672 19.0547V6.50392C1.88672 5.28517 2.54297 4.65234 3.71484 4.65234H23.8359C24.9961 4.65234 25.6523 5.28517 25.6523 6.50392V19.0547C25.6523 20.2734 24.9961 20.8945 23.8359 20.8945H3.71484Z" fill="#007AFF"/>
<path d="M15.5508 25.5352C16.0781 25.5352 16.5586 25.3477 16.9219 25.0547C17.2383 25.2891 17.6483 25.4297 18.1054 25.4297H22.5117C23.0858 25.4297 23.6016 25.207 24 24.8672C24.7031 25.3008 25.5938 25.5352 26.625 25.5352C29.3671 25.5352 31.3008 23.707 31.3008 21.4219C31.3008 20.6719 31.0898 19.9688 30.5977 19.3828C30.832 18.9141 30.9727 18.375 30.9727 17.7891C30.9727 15.668 29.1797 13.9336 26.6133 13.9336C25.2656 13.9336 24.1288 14.4141 23.3554 15.1875C22.5938 14.4141 21.4688 13.9336 20.1679 13.9336C19.0546 13.9336 18.0469 14.2852 17.2969 14.8594C16.9102 14.332 16.2539 13.9805 15.4922 13.9805C14.9297 13.9805 14.4258 14.1445 13.875 14.5078L12.1172 15.6445C11.3906 16.1133 10.9688 16.8398 10.9688 17.6602C10.9688 18.8203 11.8477 19.8984 12.9492 19.8984C13.0195 19.8984 13.0781 19.875 13.207 19.8164V23.168C13.207 24.5039 14.2383 25.5352 15.5508 25.5352Z" fill="white"/>
<path d="M26.625 23.9414C28.3945 23.9414 29.6953 22.875 29.6953 21.4219C29.6953 20.3086 28.9219 19.4531 27.8555 19.3477V19.7578C28.8047 19.4766 29.3672 18.7383 29.3672 17.7891C29.3672 16.4766 28.207 15.5273 26.6133 15.5273C25.4062 15.5273 24.4102 16.0781 24 16.957C23.8945 17.1797 23.8359 17.4258 23.8359 17.6602C23.8359 18.0703 24.1172 18.3516 24.5273 18.3516C24.8906 18.3516 25.1016 18.1875 25.207 17.8359C25.4062 17.25 25.875 16.9219 26.5781 16.9219C27.375 16.9219 27.8555 17.3086 27.8555 17.918C27.8555 18.5508 27.3398 18.9492 26.5312 18.9492H25.9453C25.5469 18.9492 25.2656 19.2422 25.2656 19.6289C25.2656 20.0156 25.5469 20.2969 25.9453 20.2969H26.543C27.5742 20.2969 28.1367 20.6953 28.1367 21.4219C28.1367 22.0898 27.5391 22.5352 26.6367 22.5352C25.8281 22.5352 25.2656 22.1953 25.0781 21.6211C24.9727 21.2695 24.7383 21.1055 24.3867 21.1055C23.9648 21.1055 23.6602 21.3984 23.6602 21.8203C23.6602 22.043 23.7188 22.2891 23.8359 22.5C24.3281 23.4141 25.3242 23.9414 26.625 23.9414Z" fill="black" fill-opacity="0.85"/>
<path d="M18.1055 23.8242H22.5117C22.9219 23.8242 23.2266 23.5312 23.2266 23.1328C23.2266 22.7109 22.9219 22.4062 22.5117 22.4062H19.7227V22.3477L21.2578 20.8242C22.5586 19.5469 22.9688 18.8438 22.9688 17.9531C22.9688 16.5703 21.7734 15.5273 20.168 15.5273C18.9141 15.5273 17.8477 16.2422 17.4961 17.2734C17.4375 17.4492 17.3906 17.625 17.3906 17.8242C17.3906 18.2461 17.6836 18.5273 18.082 18.5273C18.4453 18.5273 18.668 18.3516 18.7734 17.9531C18.7969 17.8594 18.8203 17.7773 18.8555 17.6953C19.0898 17.2031 19.5703 16.9219 20.168 16.9219C20.8711 16.9219 21.4453 17.4258 21.4453 18.0117C21.4453 18.5391 21.2109 18.9023 20.2148 19.8867L17.7305 22.3594C17.4609 22.6172 17.3555 22.8398 17.3555 23.1094C17.3555 23.5312 17.6602 23.8242 18.1055 23.8242Z" fill="black" fill-opacity="0.85"/>
<path d="M15.5508 23.9297C16.0195 23.9297 16.3242 23.625 16.3242 23.168V16.3828C16.3242 15.9023 15.9961 15.5742 15.4922 15.5742C15.2344 15.5742 15.0469 15.6445 14.7539 15.8438L12.9844 16.9922C12.7031 17.168 12.5742 17.3906 12.5742 17.6602C12.5742 18.0352 12.8672 18.3047 13.2539 18.3047C13.4062 18.3047 13.5469 18.2578 13.6992 18.1523L14.7422 17.4961H14.8125V23.168C14.8125 23.625 15.1172 23.9297 15.5508 23.9297Z" fill="black" fill-opacity="0.85"/>
</svg>
