<svg width="28" height="21" viewBox="0 0 28 21" fill="none" xmlns="http://www.w3.org/2000/svg">
<path d="M5.26172 15.9258H8.13281C8.82422 15.9258 9.28125 15.457 9.28125 14.8008V12.6328C9.28125 11.9648 8.82422 11.5078 8.13281 11.5078H5.26172C4.57031 11.5078 4.11328 11.9648 4.11328 12.6328V14.8008C4.11328 15.457 4.57031 15.9258 5.26172 15.9258ZM0.949219 7.33594H26.6016V4.67578H0.949219V7.33594ZM3.67969 20.0273H23.8594C26.3203 20.0273 27.5391 18.8203 27.5391 16.4062V3.64453C27.5391 1.23047 26.3203 0.0117188 23.8594 0.0117188H3.67969C1.23047 0.0117188 0 1.23047 0 3.64453V16.4062C0 18.8203 1.23047 20.0273 3.67969 20.0273ZM3.70312 18.1406C2.53125 18.1406 1.88672 17.5195 1.88672 16.3008V3.75C1.88672 2.53125 2.53125 1.89844 3.70312 1.89844H23.8359C24.9844 1.89844 25.6523 2.53125 25.6523 3.75V16.3008C25.6523 17.5195 24.9844 18.1406 23.8359 18.1406H3.70312Z" fill="black" fill-opacity="0.85"/>
</svg>
