<svg width="24" height="24" viewBox="0 0 24 24" fill="none" xmlns="http://www.w3.org/2000/svg">
<path d="M5.03906 20.0039L20.2617 4.76953L19.1484 3.65625L3.91406 18.8789L5.03906 20.0039ZM3.64453 15.2695L2.08594 16.8281C1.82812 17.0859 1.82812 17.4844 2.08594 17.7422C2.34375 18.0117 2.74219 18.0117 3.01172 17.7422L4.55859 16.1953C4.82812 15.9375 4.81641 15.5273 4.55859 15.2695C4.30078 15.0117 3.90234 15.0117 3.64453 15.2695ZM6.92578 11.9766L5.37891 13.5352C5.12109 13.793 5.12109 14.1914 5.37891 14.4609C5.63672 14.707 6.03516 14.707 6.30469 14.4609L7.85156 12.9023C8.10938 12.6445 8.09766 12.2344 7.85156 11.9766C7.59375 11.7188 7.19531 11.7188 6.92578 11.9766ZM10.2188 8.68359L8.66016 10.2422C8.40234 10.5 8.40234 10.9102 8.66016 11.168C8.92969 11.4258 9.32812 11.4258 9.58594 11.168L11.1445 9.60938C11.4023 9.35156 11.4023 8.94141 11.1445 8.68359C10.8867 8.42578 10.4766 8.42578 10.2188 8.68359ZM13.5117 5.39062L11.9531 6.94922C11.6953 7.20703 11.6953 7.61719 11.9531 7.875C12.2109 8.12109 12.6211 8.13281 12.8789 7.875L14.4375 6.31641C14.6953 6.05859 14.6953 5.64844 14.4375 5.39062C14.1797 5.13281 13.7695 5.13281 13.5117 5.39062ZM16.8047 2.10938L15.2461 3.65625C14.9883 3.91406 14.9883 4.32422 15.2461 4.58203C15.5039 4.82812 15.9141 4.83984 16.1719 4.58203L17.7305 3.02344C17.9883 2.76562 17.9883 2.36719 17.7305 2.10938C17.4727 1.83984 17.0625 1.83984 16.8047 2.10938ZM7.73438 19.3242L6.1875 20.8711C5.91797 21.1406 5.91797 21.5391 6.1875 21.7969C6.43359 22.0547 6.84375 22.0547 7.10156 21.7969L8.66016 20.2383C8.91797 19.9805 8.91797 19.582 8.66016 19.3242C8.40234 19.0664 7.99219 19.0547 7.73438 19.3242ZM11.0273 16.0195L9.46875 17.5781C9.21094 17.8359 9.21094 18.2461 9.46875 18.5039C9.73828 18.7617 10.1367 18.7617 10.3945 18.5039L11.9531 16.9453C12.2109 16.6875 12.2109 16.2891 11.9531 16.0195C11.6953 15.7852 11.2852 15.7734 11.0273 16.0195ZM14.3203 12.7383L12.7617 14.2852C12.5039 14.5547 12.5039 14.9531 12.7617 15.2109C13.0195 15.4805 13.4297 15.4805 13.6875 15.2109L15.2461 13.6641C15.5039 13.3945 15.5039 12.9961 15.2461 12.7383C14.9883 12.4805 14.5781 12.4805 14.3203 12.7383ZM17.6133 9.44531L16.0547 11.0039C15.7969 11.2617 15.8086 11.6602 16.0547 11.9297C16.3125 12.1875 16.7227 12.1875 16.9805 11.9297L18.5273 10.3711C18.7969 10.1133 18.7969 9.70312 18.5273 9.44531C18.2695 9.1875 17.8711 9.1875 17.6133 9.44531ZM20.9062 6.15234L19.3477 7.71094C19.0898 7.96875 19.1016 8.37891 19.3477 8.63672C19.6055 8.89453 20.0156 8.89453 20.2617 8.63672L21.8203 7.07812C22.0781 6.82031 22.0781 6.41016 21.8203 6.15234C21.5625 5.89453 21.1641 5.89453 20.9062 6.15234ZM11.9531 0C5.42578 0 0 5.41406 0 11.9531C0 18.4805 5.4375 23.9062 11.9648 23.9062C18.5039 23.9062 23.9062 18.4805 23.9062 11.9531C23.9062 5.41406 18.4922 0 11.9531 0ZM11.9531 1.59375C17.6133 1.59375 22.3125 6.29297 22.3125 11.9531C22.3125 17.6133 17.625 22.3125 11.9648 22.3125C6.30469 22.3125 1.59375 17.6133 1.59375 11.9531C1.59375 6.29297 6.29297 1.59375 11.9531 1.59375Z" fill="black" fill-opacity="0.85"/>
</svg>
