<svg width="24" height="24" viewBox="0 0 24 24" fill="none" xmlns="http://www.w3.org/2000/svg">
<path d="M11.9531 23.9062C18.4922 23.9062 23.9062 18.4805 23.9062 11.9531C23.9062 5.41406 18.4805 0 11.9414 0C5.41406 0 0 5.41406 0 11.9531C0 18.4805 5.42578 23.9062 11.9531 23.9062ZM11.9531 21.9141C6.42188 21.9141 2.00391 17.4844 2.00391 11.9531C2.00391 6.42188 6.41016 1.99219 11.9414 1.99219C17.4727 1.99219 21.9141 6.42188 21.9141 11.9531C21.9141 17.4844 17.4844 21.9141 11.9531 21.9141Z" fill="#007AFF"/>
<path d="M15.4453 6.79688L14.25 7.95703C14.0977 8.12109 13.875 8.12109 13.7109 7.95703C13.5586 7.80469 13.5703 7.58203 13.7109 7.41797L14.7539 6.375C13.8984 5.94141 12.9375 5.68359 11.9414 5.68359C8.51952 5.68359 5.67188 8.54297 5.67188 11.9648C5.67188 12.9609 5.91797 13.9102 6.35156 14.7539L7.41797 13.7227C7.57031 13.5703 7.79296 13.5703 7.95703 13.7227C8.10938 13.875 8.12109 14.1094 7.95703 14.2734L6.77344 15.457C6.90234 15.668 7.04297 15.8555 7.21875 16.0312L16.0312 7.24219C15.8438 7.07812 15.6445 6.92578 15.4453 6.79688ZM13.3125 8.90625L12.457 9.75C12.3047 9.90234 12.082 9.90234 11.9297 9.75C11.7656 9.60938 11.7656 9.375 11.9297 9.21094L12.7734 8.36719C12.9258 8.21484 13.1602 8.21484 13.3125 8.36719C13.4648 8.51953 13.4648 8.75391 13.3125 8.90625ZM11.5312 10.6875L10.6758 11.5547C10.5352 11.6953 10.2773 11.6953 10.1367 11.5547C9.98438 11.3906 9.98438 11.1562 10.1367 11.0039L10.9805 10.1602C11.1328 9.99609 11.3789 9.99609 11.5312 10.1602C11.6719 10.3008 11.6719 10.5469 11.5312 10.6875ZM9.73828 12.4688L8.89453 13.3242C8.75391 13.4883 8.5078 13.4766 8.35546 13.3242C8.20311 13.1836 8.20311 12.9375 8.35546 12.7852L9.19921 11.9414C9.36328 11.7773 9.58594 11.7773 9.73828 11.9414C9.89062 12.0938 9.87891 12.3164 9.73828 12.4688ZM17.5312 9.16406L16.5 10.1836C16.3359 10.3359 16.1133 10.3359 15.9609 10.1836C15.7969 10.0195 15.7969 9.78516 15.9609 9.63281L17.1211 8.47266C16.9805 8.27344 16.8398 8.07422 16.6641 7.88672L7.875 16.6875C8.03906 16.8516 8.23828 16.9922 8.4375 17.1328L9.65625 15.9375C9.80859 15.7852 10.043 15.7852 10.1953 15.9375C10.3477 16.1016 10.3477 16.3242 10.1953 16.4766L9.14062 17.5547C9.99609 17.9883 10.9453 18.2461 11.9414 18.2461C15.3633 18.2461 18.2227 15.3867 18.2227 11.9648C18.2227 10.9688 17.9648 10.0078 17.5312 9.16406ZM15.5508 11.1211L14.707 11.9648C14.543 12.1289 14.3203 12.1289 14.168 11.9648C14.0156 11.8125 14.0273 11.5898 14.168 11.4375L15.0117 10.5703C15.1523 10.418 15.3984 10.4297 15.5508 10.5703C15.7031 10.7227 15.7031 10.9688 15.5508 11.1211ZM13.7578 12.9023L12.9141 13.7578C12.7617 13.9102 12.5273 13.9102 12.3633 13.7578C12.2227 13.6172 12.2227 13.3594 12.3633 13.2188L13.2305 12.3633C13.3711 12.2227 13.6172 12.2227 13.7578 12.3633C13.9219 12.5156 13.9219 12.7617 13.7578 12.9023ZM11.9766 14.6953L11.1328 15.5391C10.9805 15.6914 10.7344 15.6914 10.6055 15.5391C10.4414 15.3867 10.4414 15.1523 10.6055 15L11.4492 14.1562C11.6016 14.0039 11.8242 14.0039 11.9766 14.1562C12.1289 14.2969 12.1289 14.5312 11.9766 14.6953Z" fill="black" fill-opacity="0.85"/>
</svg>
