<svg width="28" height="23" viewBox="0 0 28 23" fill="none" xmlns="http://www.w3.org/2000/svg">
<path d="M3.62109 22.7109H23.5078C25.9336 22.7109 27.1289 21.5391 27.1289 19.1367V7.73438C27.1289 5.33203 25.9336 4.16016 23.5078 4.16016H3.62109C1.20703 4.16016 0 5.33203 0 7.73438V19.1367C0 21.5391 1.20703 22.7109 3.62109 22.7109ZM3.64453 20.8359C2.49609 20.8359 1.88672 20.25 1.88672 19.043V7.82812C1.88672 6.63281 2.49609 6.03516 3.64453 6.03516H23.4844C24.6328 6.03516 25.2422 6.63281 25.2422 7.82812V19.043C25.2422 20.25 24.6328 20.8359 23.4844 20.8359H3.64453ZM7.61719 5.17969H9.43359V3.10547C9.43359 2.21484 9.96094 1.71094 10.875 1.71094H16.2539C17.168 1.71094 17.6836 2.21484 17.6836 3.10547V5.15625H19.5V3.23438C19.5 1.03125 18.3398 0 16.2188 0H10.8984C8.89453 0 7.61719 1.03125 7.61719 3.23438V5.17969Z" fill="#007AFF"/>
<path d="M8.10938 14.4727C8.10938 15.0703 8.51953 15.4805 9.11719 15.4805H11.5078V17.8594C11.5078 18.4805 11.9062 18.8789 12.5156 18.8789H14.6133C15.2227 18.8789 15.6211 18.4805 15.6211 17.8594V15.4805H18.0117C18.6211 15.4805 19.0312 15.0703 19.0312 14.4727V12.375C19.0312 11.7656 18.6211 11.3555 18.0117 11.3555H15.6211V8.98828C15.6211 8.36719 15.2227 7.96875 14.6133 7.96875H12.5156C11.9062 7.96875 11.5078 8.36719 11.5078 8.98828V11.3555H9.11719C8.50781 11.3555 8.10938 11.7656 8.10938 12.375V14.4727Z" fill="black" fill-opacity="0.85"/>
</svg>
