<svg width="26" height="26" viewBox="0 0 26 26" fill="none" xmlns="http://www.w3.org/2000/svg">
<path d="M0 14.4844C0 16.6875 1.06641 17.7656 3.23438 17.7656H7.39453V21.9258C7.39453 24.0938 8.47266 25.1602 10.6758 25.1602H14.4727C16.6758 25.1602 17.7539 24.0938 17.7539 21.9258V17.7656H21.9141C24.082 17.7656 25.1484 16.6875 25.1484 14.4844V10.6875C25.1484 8.48438 24.082 7.40625 21.9141 7.40625H17.7539V3.23438C17.7539 1.06641 16.6758 0 14.4727 0H10.6758C8.47266 0 7.39453 1.06641 7.39453 3.23438V7.40625H3.23438C1.06641 7.40625 0 8.48438 0 10.6875V14.4844ZM1.88672 14.4492V10.7227C1.88672 9.77344 2.37891 9.29297 3.33984 9.29297H9.28125V3.33984C9.28125 2.37891 9.76172 1.88672 10.7109 1.88672H14.4375C15.3867 1.88672 15.8672 2.37891 15.8672 3.33984V9.29297H21.8086C22.7695 9.29297 23.2617 9.77344 23.2617 10.7227V14.4492C23.2617 15.3984 22.7695 15.8789 21.8086 15.8789H15.8672V21.832C15.8672 22.793 15.3867 23.2734 14.4375 23.2734H10.7109C9.76172 23.2734 9.28125 22.793 9.28125 21.832V15.8789H3.33984C2.37891 15.8789 1.88672 15.3984 1.88672 14.4492Z" fill="black" fill-opacity="0.85"/>
</svg>
