<svg width="24" height="24" viewBox="0 0 24 24" fill="none" xmlns="http://www.w3.org/2000/svg">
<path d="M11.9531 23.918C18.4922 23.918 23.9062 18.5039 23.9062 11.9648C23.9062 5.4375 18.4805 0.0117188 11.9414 0.0117188C5.41406 0.0117188 0 5.4375 0 11.9648C0 18.5039 5.42578 23.918 11.9531 23.918Z" fill="#FFCC00"/>
<path d="M6.97266 17.3555C5.70703 17.3555 5.07422 16.7461 5.07422 15.4688V9.45703C5.07422 8.19141 5.70703 7.57031 6.97266 7.57031H8.26172V6.94922C8.26172 5.98828 8.89453 5.41406 9.89062 5.41406H14.0156C15.0117 5.41406 15.6445 5.98828 15.6445 6.94922V7.57031H16.9336C18.1992 7.57031 18.8438 8.19141 18.8438 9.45703V15.4688C18.8438 16.7461 18.1992 17.3555 16.9336 17.3555H6.97266ZM9.43359 7.57031H14.4844V7.00781C14.4844 6.69141 14.2852 6.50391 13.957 6.50391H9.97266C9.63281 6.50391 9.43359 6.69141 9.43359 7.00781V7.57031ZM9.09375 12.9961C9.09375 13.3242 9.30469 13.5352 9.63281 13.5352H10.875V14.7773C10.875 15.0938 11.0977 15.3047 11.4141 15.3047H12.4922C12.8203 15.3047 13.0312 15.0938 13.0312 14.7773V13.5352H14.2734C14.6016 13.5352 14.8125 13.3242 14.8125 12.9961V11.8945C14.8125 11.5781 14.6016 11.3672 14.2734 11.3672H13.0312V10.125C13.0312 9.80859 12.8203 9.59766 12.4922 9.59766H11.4141C11.0977 9.59766 10.875 9.80859 10.875 10.125V11.3672H9.63281C9.30469 11.3672 9.09375 11.5781 9.09375 11.8945V12.9961Z" fill="black" fill-opacity="0.85"/>
</svg>
