<svg width="24" height="24" viewBox="0 0 24 24" fill="none" xmlns="http://www.w3.org/2000/svg">
<path d="M11.9531 23.9062C18.4922 23.9062 23.9062 18.4805 23.9062 11.9531C23.9062 5.41406 18.4805 0 11.9414 0C5.41406 0 0 5.41406 0 11.9531C0 18.4805 5.42578 23.9062 11.9531 23.9062ZM11.9531 21.9141C6.42188 21.9141 2.00391 17.4844 2.00391 11.9531C2.00391 6.42188 6.41016 1.99219 11.9414 1.99219C17.4727 1.99219 21.9141 6.42188 21.9141 11.9531C21.9141 17.4844 17.4844 21.9141 11.9531 21.9141Z" fill="#007AFF"/>
<path d="M8.36719 8.19141H9.49219V7.125C9.49219 6.82031 9.69141 6.63281 10.0195 6.63281H13.8867C14.2031 6.63281 14.4023 6.82031 14.4023 7.125V8.19141H15.5156V7.06641C15.5156 6.14062 14.9062 5.57812 13.9453 5.57812H9.9375C8.97656 5.57812 8.36719 6.14062 8.36719 7.06641V8.19141ZM7.11328 17.1562H16.7695C18 17.1562 18.6211 16.5586 18.6211 15.3398V9.4922C18.6211 8.26173 18 7.66406 16.7695 7.66406H7.11328C5.88281 7.66406 5.27344 8.26173 5.27344 9.4922V15.3398C5.27344 16.5586 5.88281 17.1562 7.11328 17.1562ZM9.17578 12.9258V11.8711C9.17578 11.5547 9.375 11.3438 9.69141 11.3438H10.8984V10.1602C10.8984 9.83204 11.1094 9.64454 11.4141 9.64454H12.4688C12.7852 9.64454 12.9844 9.83204 12.9844 10.1602V11.3438H14.2031C14.5078 11.3438 14.707 11.5547 14.707 11.8711V12.9258C14.707 13.2539 14.5078 13.4531 14.2031 13.4531H12.9844V14.6602C12.9844 14.9648 12.7852 15.1758 12.4688 15.1758H11.4141C11.1094 15.1758 10.8984 14.9648 10.8984 14.6602V13.4531H9.69141C9.375 13.4531 9.17578 13.2539 9.17578 12.9258Z" fill="black" fill-opacity="0.85"/>
</svg>
