<svg width="28" height="23" viewBox="0 0 28 23" fill="none" xmlns="http://www.w3.org/2000/svg">
<path d="M3.62109 22.7109H23.5078C25.9336 22.7109 27.1289 21.5391 27.1289 19.1367V7.73438C27.1289 5.33203 25.9336 4.16016 23.5078 4.16016H3.62109C1.20703 4.16016 0 5.33203 0 7.73438V19.1367C0 21.5391 1.20703 22.7109 3.62109 22.7109ZM7.61719 5.17969H9.43359V3.10547C9.43359 2.21484 9.96094 1.71094 10.875 1.71094H16.2539C17.168 1.71094 17.6836 2.21484 17.6836 3.10547V5.15625H19.5V3.23438C19.5 1.03125 18.3398 0 16.2188 0H10.8984C8.89453 0 7.61719 1.03125 7.61719 3.23438V5.17969Z" fill="#FFCC00"/>
<path d="M8.05078 14.4844V12.3633C8.05078 11.7539 8.46094 11.332 9.08203 11.332H11.4844V8.95312C11.4844 8.32031 11.8945 7.91016 12.5156 7.91016H14.625C15.2344 7.91016 15.6562 8.32031 15.6562 8.95312V11.332H18.0469C18.668 11.332 19.0898 11.7539 19.0898 12.3633V14.4844C19.0898 15.0938 18.668 15.5156 18.0469 15.5156H15.6562V17.9062C15.6562 18.5273 15.2344 18.9375 14.625 18.9375H12.5156C11.8945 18.9375 11.4844 18.5273 11.4844 17.9062V15.5156H9.08203C8.47266 15.5156 8.05078 15.0938 8.05078 14.4844Z" fill="black" fill-opacity="0.85"/>
</svg>
