<svg width="17" height="29" viewBox="0 0 17 29" fill="none" xmlns="http://www.w3.org/2000/svg">
<path d="M2.07422 3.30469C2.07422 4.60547 2.83594 5.37891 4.10156 5.37891H11.9531C13.2305 5.37891 13.9922 4.60547 13.9922 3.30469V2.07422C13.9922 0.773438 13.2305 0 11.9531 0H4.10156C2.83594 0 2.07422 0.773438 2.07422 2.07422V3.30469ZM3.72656 3.28125V2.09766C3.72656 1.81641 3.89062 1.64062 4.18359 1.64062H11.8711C12.1641 1.64062 12.3398 1.81641 12.3398 2.09766V3.28125C12.3398 3.55078 12.1641 3.73828 11.8711 3.73828H4.18359C3.89062 3.73828 3.72656 3.55078 3.72656 3.28125ZM5.4375 7.51172V4.73438H3.78516V7.51172H5.4375ZM12.2812 7.51172V4.73438H10.6289V7.51172H12.2812ZM0 24.2109C0 26.543 1.5 28.0547 3.78516 28.0547H12.2812C14.5664 28.0547 16.0664 26.543 16.0664 24.2109V10.9219C16.0664 8.58984 14.5664 7.07812 12.2812 7.07812H3.78516C1.5 7.07812 0 8.58984 0 10.9219V24.2109ZM1.79297 24.1875V10.9453C1.79297 9.69141 2.61328 8.88281 3.87891 8.88281H12.1875C13.4531 8.88281 14.2734 9.69141 14.2734 10.9453V24.1875C14.2734 25.4531 13.4531 26.2617 12.1875 26.2617H3.87891C2.61328 26.2617 1.79297 25.4531 1.79297 24.1875Z" fill="#007AFF"/>
<path d="M3.65625 18.3984C3.65625 18.8906 3.98438 19.207 4.46484 19.207H6.38672V21.1172C6.38672 21.6094 6.70312 21.9375 7.19531 21.9375H8.85938C9.35156 21.9375 9.66797 21.6094 9.66797 21.1172V19.207H11.5898C12.0586 19.207 12.4102 18.8906 12.4102 18.3984V16.7344C12.4102 16.2422 12.0586 15.9258 11.5898 15.9258H9.66797V14.0156C9.66797 13.5234 9.35156 13.207 8.85938 13.207H7.19531C6.70312 13.207 6.38672 13.5234 6.38672 14.0156V15.9258H4.46484C3.98438 15.9258 3.65625 16.2422 3.65625 16.7344V18.3984Z" fill="black" fill-opacity="0.85"/>
</svg>
