<svg width="17" height="29" viewBox="0 0 17 29" fill="none" xmlns="http://www.w3.org/2000/svg">
<path d="M4.10156 5.37891H11.9531C13.2305 5.37891 13.9922 4.60547 13.9922 3.30469V2.07422C13.9922 0.773438 13.2305 0 11.9531 0H4.10156C2.83594 0 2.07422 0.773438 2.07422 2.07422V3.30469C2.07422 4.60547 2.83594 5.37891 4.10156 5.37891ZM4.25391 7.51172H11.8125V4.73438H4.25391V7.51172ZM3.78516 28.0547H12.2812C14.5664 28.0547 16.0664 26.543 16.0664 24.2109V10.9219C16.0664 8.58984 14.5664 7.07812 12.2812 7.07812H3.78516C1.5 7.07812 0 8.58984 0 10.9219V24.2109C0 26.543 1.5 28.0547 3.78516 28.0547Z" fill="#FFCC00"/>
<path d="M3.51562 18.4219V16.7109C3.51562 16.1953 3.85548 15.8789 4.34767 15.8789H6.33984V13.8984C6.33984 13.3945 6.65625 13.0664 7.17188 13.0664H8.88281C9.39844 13.0664 9.71484 13.3945 9.71484 13.8984V15.8789H11.707C12.1875 15.8789 12.5508 16.1953 12.5508 16.7109V18.4219C12.5508 18.9375 12.1875 19.2539 11.707 19.2539H9.71484V21.2344C9.71484 21.7383 9.39844 22.0781 8.88281 22.0781H7.17188C6.65625 22.0781 6.33984 21.7383 6.33984 21.2344V19.2539H4.34767C3.85548 19.2539 3.51562 18.9375 3.51562 18.4219Z" fill="black" fill-opacity="0.85"/>
</svg>
