<svg width="31" height="25" viewBox="0 0 31 25" fill="none" xmlns="http://www.w3.org/2000/svg">
<path d="M5.01562 18.75L5.36719 20.1562C5.8125 21.9844 6.78516 22.9219 8.71875 22.9219H21.3398C23.2852 22.9219 24.2461 22.0078 24.7031 20.1562L25.0547 18.75H5.01562ZM4.62891 17.1445H25.4531L27.6562 8.12109L26.6953 7.57031L21.293 11.5078C20.8945 11.7891 20.625 11.6836 20.4023 11.3672L15.3164 3.67969L14.7539 3.65625L9.62109 11.4023C9.42188 11.707 9.1875 11.8008 8.78906 11.5195L3.49219 7.65234L2.36719 7.94531L4.62891 17.1445ZM2.80078 10.4648C4.34766 10.4648 5.58984 9.21094 5.58984 7.65234C5.58984 6.12891 4.34766 4.86328 2.80078 4.86328C1.25391 4.86328 0 6.11719 0 7.65234C0 9.21094 1.26562 10.4648 2.80078 10.4648ZM15.0352 5.58984C16.5703 5.58984 17.8242 4.33594 17.8242 2.78906C17.8242 1.26562 16.5703 0 15.0352 0C13.4766 0 12.2344 1.25391 12.2344 2.78906C12.2344 4.33594 13.4883 5.58984 15.0352 5.58984ZM27.2578 10.4648C28.793 10.4648 30.0586 9.21094 30.0586 7.65234C30.0586 6.11719 28.8047 4.86328 27.2578 4.86328C25.7227 4.86328 24.4688 6.12891 24.4688 7.65234C24.4688 9.21094 25.7227 10.4648 27.2578 10.4648Z" fill="black" fill-opacity="0.85"/>
</svg>
