<svg width="24" height="24" viewBox="0 0 24 24" fill="none" xmlns="http://www.w3.org/2000/svg">
<path d="M11.9531 23.9062C18.4922 23.9062 23.9062 18.4805 23.9062 11.9531C23.9062 5.41406 18.4805 0 11.9414 0C5.41406 0 0 5.41406 0 11.9531C0 18.4805 5.42578 23.9062 11.9531 23.9062ZM11.9531 21.9141C6.42188 21.9141 2.00391 17.4844 2.00391 11.9531C2.00391 6.42188 6.41016 1.99219 11.9414 1.99219C17.4727 1.99219 21.9141 6.42188 21.9141 11.9531C21.9141 17.4844 17.4844 21.9141 11.9531 21.9141Z" fill="#007AFF"/>
<path d="M7.19531 11.9648C7.19531 15.4336 9.08203 17.5898 11.9414 17.5898C14.0156 17.5898 15.4922 16.5586 16.0312 15C16.1016 14.8242 16.1367 14.6367 16.1484 14.4375C16.1484 14.0156 15.8555 13.7344 15.4219 13.7344C15.0234 13.7344 14.8008 13.9453 14.6719 14.3438C14.3789 15.3516 13.4531 16.0664 12.2695 16.1719V14.4727C12.2695 13.3477 12.9609 12.5625 13.957 12.5625C14.1914 12.5625 14.3555 12.6094 14.4961 12.6094C14.8359 12.6094 15.0703 12.3984 15.0703 12.0938C15.0703 11.6719 14.6367 11.3906 14.0039 11.3906C13.3008 11.3906 12.6211 11.7539 12.2578 12.4453V11.9531C12.2578 11.5781 12.0117 11.3555 11.6836 11.3555C11.3438 11.3555 11.1094 11.6016 11.1094 11.9531V16.0664C9.64453 15.6562 8.76562 14.1328 8.76562 11.9531C8.76562 9.41016 10.0078 7.75781 11.9297 7.75781C13.207 7.75781 14.2266 8.54297 14.5898 9.63281C14.7188 9.99609 14.918 10.2422 15.3398 10.2422C15.7852 10.2422 16.0547 9.96094 16.0547 9.52734C16.0547 9.32812 16.0195 9.11719 15.9492 8.92969C15.4102 7.39453 13.8164 6.33984 11.9414 6.33984C9.08203 6.33984 7.19531 8.53125 7.19531 11.9648Z" fill="black" fill-opacity="0.85"/>
</svg>
