<svg width="22" height="22" viewBox="0 0 22 22" fill="none" xmlns="http://www.w3.org/2000/svg">
<path d="M3.67969 21.5977H17.8945C20.3555 21.5977 21.5742 20.3789 21.5742 17.9648V3.65625C21.5742 1.24219 20.3555 0.0234375 17.8945 0.0234375H3.67969C1.23047 0.0234375 0 1.23047 0 3.65625V17.9648C0 20.3906 1.23047 21.5977 3.67969 21.5977ZM3.70312 19.7109C2.53125 19.7109 1.88672 19.0898 1.88672 17.8711V3.75C1.88672 2.53125 2.53125 1.91016 3.70312 1.91016H17.8711C19.0312 1.91016 19.6875 2.53125 19.6875 3.75V17.8711C19.6875 19.0898 19.0312 19.7109 17.8711 19.7109H3.70312Z" fill="#007AFF"/>
<path d="M6.04688 10.8047C6.04688 14.2734 7.93359 16.4297 10.8047 16.4297C12.8789 16.4297 14.3438 15.3984 14.8945 13.8398C14.9531 13.6641 14.9883 13.4766 15 13.2773C15 12.8555 14.707 12.5742 14.2734 12.5742C13.875 12.5742 13.6523 12.7852 13.5234 13.1836C13.2422 14.1914 12.3164 14.9062 11.1211 15.0117V13.3125C11.1211 12.1875 11.8125 11.4023 12.8086 11.4023C13.043 11.4023 13.207 11.4492 13.3477 11.4492C13.6875 11.4492 13.9219 11.2383 13.9219 10.9336C13.9219 10.5117 13.4883 10.2305 12.8555 10.2305C12.1523 10.2305 11.4727 10.5938 11.1094 11.2852V10.793C11.1094 10.418 10.875 10.1953 10.5352 10.1953C10.1953 10.1953 9.96094 10.4414 9.96094 10.793V14.9062C8.49609 14.4961 7.61719 12.9727 7.61719 10.793C7.61719 8.25 8.85938 6.59766 10.793 6.59766C12.0586 6.59766 13.0781 7.38281 13.4414 8.47266C13.5703 8.83594 13.7695 9.08203 14.1914 9.08203C14.6367 9.08203 14.9062 8.80078 14.9062 8.36719C14.9062 8.16797 14.8711 7.95703 14.8008 7.76953C14.2617 6.23438 12.668 5.17969 10.8047 5.17969C7.93359 5.17969 6.04688 7.37109 6.04688 10.8047Z" fill="black" fill-opacity="0.85"/>
</svg>
