<svg width="22" height="22" viewBox="0 0 22 22" fill="none" xmlns="http://www.w3.org/2000/svg">
<path d="M3.67969 21.5977H17.8945C20.3555 21.5977 21.5742 20.3789 21.5742 17.9648V3.65625C21.5742 1.24219 20.3555 0.0234375 17.8945 0.0234375H3.67969C1.23047 0.0234375 0 1.23047 0 3.65625V17.9648C0 20.3906 1.23047 21.5977 3.67969 21.5977Z" fill="#FFCC00"/>
<path d="M5.89453 10.8047C5.89453 7.26562 7.83984 4.99219 10.8047 4.99219C12.7266 4.99219 14.3672 6.08203 14.9297 7.66406C15 7.86328 15.0352 8.07422 15.0352 8.28516C15.0352 8.73047 14.7539 9.02344 14.2969 9.02344C13.8633 9.02344 13.6523 8.76562 13.5234 8.39062C13.1367 7.27734 12.0938 6.46875 10.793 6.46875C8.80078 6.46875 7.52344 8.16797 7.52344 10.793C7.52344 13.043 8.42578 14.6016 9.92578 15.0352V10.793C9.92578 10.4297 10.1719 10.1719 10.5234 10.1719C10.875 10.1719 11.1211 10.4062 11.1211 10.793V11.2969C11.4961 10.582 12.1875 10.207 12.9141 10.207C13.5703 10.207 14.0156 10.5 14.0156 10.9336C14.0156 11.25 13.7695 11.4727 13.418 11.4727C13.2773 11.4727 13.1133 11.4258 12.8672 11.4258C11.8477 11.4258 11.1328 12.2344 11.1328 13.3945V15.1406C12.3633 15.0352 13.3125 14.2969 13.6055 13.2656C13.7344 12.8438 13.9688 12.6328 14.3789 12.6328C14.8359 12.6328 15.1289 12.9258 15.1289 13.3594C15.1172 13.5703 15.082 13.7578 15.0234 13.9453C14.4492 15.5508 12.9375 16.6172 10.8047 16.6172C7.83984 16.6172 5.89453 14.3906 5.89453 10.8047Z" fill="black" fill-opacity="0.85"/>
</svg>
