<svg width="24" height="26" viewBox="0 0 24 26" fill="none" xmlns="http://www.w3.org/2000/svg">
<path d="M1.64062 20.2852L10.8633 25.5117C11.5195 25.8867 12.1406 25.8867 12.8086 25.5117L22.0195 20.2852C23.0977 19.6758 23.6602 19.0547 23.6602 17.3789V8.09766C23.6602 6.87891 23.2148 6.11719 22.2305 5.55469L13.9336 0.84375C12.5156 0.0234375 11.1445 0.0234375 9.72656 0.84375L1.44141 5.55469C0.445312 6.11719 0 6.87891 0 8.09766V17.3789C0 19.0547 0.574219 19.6758 1.64062 20.2852ZM2.69531 18.7383C2.01562 18.3633 1.78125 17.9648 1.78125 17.3203V8.47266L10.9102 13.6875V23.4141L2.69531 18.7383ZM20.9766 18.7383L12.75 23.4141V13.6875L21.8789 8.47266V17.3203C21.8789 17.9648 21.6445 18.3633 20.9766 18.7383ZM11.8359 12.0469L2.78906 6.92578L10.5117 2.51953C11.4141 2.00391 12.2461 1.99219 13.1602 2.51953L20.8828 6.92578L11.8359 12.0469Z" fill="black" fill-opacity="0.85"/>
</svg>
