<svg width="31" height="23" viewBox="0 0 31 23" fill="none" xmlns="http://www.w3.org/2000/svg">
<path d="M14.7539 17.1797H15.8086C21.668 17.1797 25.6172 13.2305 25.6172 7.10156V4.72266C25.6172 1.93359 21.4453 0.0351562 15.2812 0.0351562C9.11719 0.0351562 4.94531 1.93359 4.94531 4.72266V7.10156C4.94531 13.0195 8.88281 17.1797 14.7539 17.1797ZM15.2812 7.58203C10.3828 7.58203 6.77344 6.33984 6.77344 4.72266C6.77344 3.11719 10.3828 1.86328 15.2812 1.86328C20.1914 1.86328 23.8008 3.11719 23.8008 4.72266C23.8008 6.33984 20.1914 7.58203 15.2812 7.58203ZM24.3516 12H25.2773C27.8906 12 29.4609 10.6289 29.4609 8.35547C29.4609 6.09375 27.8789 4.71094 25.2773 4.71094H24.5273V6.52734H25.2773C26.7656 6.52734 27.6328 7.20703 27.6328 8.35547C27.6328 9.49219 26.7656 10.1836 25.2773 10.1836H24.3516V12ZM15.2227 22.793C24.1289 22.793 30.4453 20.2617 30.4453 16.582C30.4453 15.1523 29.4727 13.8984 27.7617 12.8906C27.0586 13.1836 26.2852 13.3477 25.4062 13.3711C23.543 16.6172 20.1328 18.5508 15.8086 18.5508H14.7539C9.9375 18.5508 6.17578 15.9961 4.5 12C1.65234 13.1016 0 14.6953 0 16.582C0 20.2617 6.32812 22.793 15.2227 22.793Z" fill="black" fill-opacity="0.85"/>
</svg>
