<svg width="24" height="24" viewBox="0 0 24 24" fill="none" xmlns="http://www.w3.org/2000/svg">
<path d="M11.9531 23.9062C18.4922 23.9062 23.9062 18.4805 23.9062 11.9531C23.9062 5.41406 18.4805 0 11.9414 0C5.41406 0 0 5.41406 0 11.9531C0 18.4805 5.42578 23.9062 11.9531 23.9062Z" fill="#FFCC00"/>
<path d="M8.78906 17.3438C8.16797 17.3438 7.83984 16.9102 7.83984 16.2539V7.42969C7.83984 6.77344 8.16797 6.33984 8.78906 6.33984H11.8711C15.3398 6.33984 17.25 8.28516 17.25 11.8125C17.25 15.3867 15.3047 17.3438 11.8711 17.3438H8.78906ZM9.71484 15.8438H11.6602C14.0273 15.8438 15.3047 14.5078 15.3047 11.8477C15.3047 9.24609 14.0156 7.83984 11.6602 7.83984H9.71484V15.8438Z" fill="black" fill-opacity="0.85"/>
</svg>
