<svg width="22" height="22" viewBox="0 0 22 22" fill="none" xmlns="http://www.w3.org/2000/svg">
<path d="M3.67969 21.5977H17.8945C20.3555 21.5977 21.5742 20.3789 21.5742 17.9648V3.65625C21.5742 1.24219 20.3555 0.0234375 17.8945 0.0234375H3.67969C1.23047 0.0234375 0 1.23047 0 3.65625V17.9648C0 20.3906 1.23047 21.5977 3.67969 21.5977ZM3.70312 19.7109C2.53125 19.7109 1.88672 19.0898 1.88672 17.8711V3.75C1.88672 2.53125 2.53125 1.91016 3.70312 1.91016H17.8711C19.0312 1.91016 19.6875 2.53125 19.6875 3.75V17.8711C19.6875 19.0898 19.0312 19.7109 17.8711 19.7109H3.70312Z" fill="#007AFF"/>
<path d="M6.33984 15.6914C6.76172 15.6914 7.11328 15.3516 7.11328 14.9297V13.1836L7.72266 12.5977L9.53906 15.2461C9.84375 15.7148 10.3359 15.7383 10.6641 15.5156C10.9453 15.3047 11.0859 14.8828 10.7578 14.4023L8.83595 11.6484L10.7578 9.64453C11.0859 9.30469 11.0039 8.91797 10.7695 8.70703C10.5117 8.4375 10.043 8.35547 9.69141 8.75391L7.13672 11.6016H7.11328V6.60938C7.11328 6.1875 6.76172 5.83594 6.33984 5.83594C5.91797 5.83594 5.57812 6.1875 5.57812 6.60938V14.9297C5.57812 15.3516 5.91797 15.6914 6.33984 15.6914ZM12.9492 15.7031C13.3594 15.7031 13.6758 15.375 13.6758 14.9766V11.5547C13.6758 10.6992 13.9688 9.98438 14.8359 9.98438C15.1172 9.98438 15.4219 9.92578 15.5977 9.77344C15.7383 9.66797 15.832 9.49219 15.832 9.26953C15.832 9.03516 15.7617 8.85938 15.6328 8.73047C15.4805 8.58984 15.2812 8.51953 15.0469 8.51953C14.3086 8.51953 13.8164 9.16406 13.6758 9.91406H13.6289V9.19922C13.6289 8.8125 13.3125 8.50781 12.9258 8.50781C12.5391 8.50781 12.2344 8.8125 12.2344 9.19922V14.9766C12.2344 15.375 12.5508 15.7031 12.9492 15.7031ZM16.3945 15.6328C16.8867 15.6328 17.2969 15.2344 17.2969 14.7188C17.2969 14.2266 16.8867 13.8164 16.3945 13.8164C15.8789 13.8164 15.4805 14.2266 15.4805 14.7188C15.4805 15.2344 15.8789 15.6328 16.3945 15.6328Z" fill="black" fill-opacity="0.85"/>
</svg>
