<svg width="23" height="33" viewBox="0 0 23 33" fill="none" xmlns="http://www.w3.org/2000/svg">
<path d="M3.62109 28.125H14.1914C16.582 28.125 17.8008 26.9062 17.8008 24.5508V6.19922C17.8008 3.83203 16.5586 2.63672 14.1914 2.63672H3.62109C1.25391 2.63672 0 3.83203 0 6.19922V24.5508C0 26.9062 1.23047 28.125 3.62109 28.125ZM4.74609 9.12891C3.80859 9.12891 3.04688 8.35547 3.04688 7.40625C3.04688 6.48047 3.80859 5.71875 4.74609 5.71875C5.68359 5.71875 6.45703 6.48047 6.45703 7.40625C6.45703 8.35547 5.68359 9.12891 4.74609 9.12891ZM3.73828 18.9375C3.31641 18.9375 2.97656 18.6094 2.97656 18.1758C2.97656 17.7539 3.31641 17.4141 3.73828 17.4141H7.25391C7.6875 17.4141 8.02734 17.7539 8.02734 18.1758C8.02734 18.6094 7.6875 18.9375 7.25391 18.9375H3.73828ZM3.73828 21.9609C3.31641 21.9609 2.97656 21.6328 2.97656 21.1992C2.97656 20.7656 3.31641 20.4375 3.73828 20.4375H7.25391C7.6875 20.4375 8.02734 20.7656 8.02734 21.1992C8.02734 21.6328 7.6875 21.9609 7.25391 21.9609H3.73828ZM3.73828 24.9844C3.31641 24.9844 2.97656 24.6445 2.97656 24.2227C2.97656 23.7891 3.31641 23.4492 3.73828 23.4492H7.25391C7.6875 23.4492 8.02734 23.7891 8.02734 24.2227C8.02734 24.6445 7.6875 24.9844 7.25391 24.9844H3.73828ZM10.5469 18.9375C10.1133 18.9375 9.77344 18.6094 9.77344 18.1758C9.77344 17.7539 10.1133 17.4141 10.5469 17.4141H14.0625C14.4844 17.4141 14.8242 17.7539 14.8242 18.1758C14.8242 18.6094 14.4844 18.9375 14.0625 18.9375H10.5469ZM10.5469 21.9609C10.1133 21.9609 9.77344 21.6328 9.77344 21.1992C9.77344 20.7656 10.1133 20.4375 10.5469 20.4375H14.0625C14.4844 20.4375 14.8242 20.7656 14.8242 21.1992C14.8242 21.6328 14.4844 21.9609 14.0625 21.9609H10.5469ZM10.5469 24.9844C10.1133 24.9844 9.77344 24.6445 9.77344 24.2227C9.77344 23.7891 10.1133 23.4492 10.5469 23.4492H14.0625C14.4844 23.4492 14.8242 23.7891 14.8242 24.2227C14.8242 24.6445 14.4844 24.9844 14.0625 24.9844H10.5469ZM3.39844 30.1875C3.96094 30.1875 4.33594 29.8008 4.33594 29.2383V26.9414H2.44922V29.2383C2.44922 29.8008 2.83594 30.1875 3.39844 30.1875ZM14.4023 30.1875C14.9766 30.1875 15.3516 29.8008 15.3516 29.2383V26.9414H13.4648V29.2383C13.4648 29.8008 13.8398 30.1875 14.4023 30.1875Z" fill="#007AFF"/>
<path d="M16.1133 15.8203C19.582 15.8203 22.043 13.4297 22.043 10.0195C22.043 8.36719 21.3633 6.97266 21 6.17578C20.2734 4.61719 19.0898 2.63672 18.1055 1.125C17.6016 0.398438 16.8984 0 16.1133 0C15.3281 0 14.6367 0.398438 14.1328 1.125C13.1484 2.63672 11.9648 4.61719 11.2383 6.17578C10.875 6.97266 10.1836 8.36719 10.1836 10.0195C10.1836 13.4297 12.6562 15.8203 16.1133 15.8203Z" fill="white"/>
<path d="M16.1133 14.2148C18.7031 14.2148 20.4492 12.5391 20.4492 10.0195C20.4492 8.76562 19.9219 7.67578 19.5469 6.83203C18.8555 5.35547 17.7422 3.50391 16.7695 2.01562C16.5703 1.73438 16.3711 1.60547 16.1133 1.60547C15.8672 1.60547 15.6562 1.73438 15.4688 2.01562C14.4961 3.50391 13.3711 5.35547 12.6797 6.83203C12.3164 7.67578 11.7891 8.76562 11.7891 10.0195C11.7891 12.5391 13.5234 14.2148 16.1133 14.2148Z" fill="black" fill-opacity="0.85"/>
</svg>
