<svg width="23" height="33" viewBox="0 0 23 33" fill="none" xmlns="http://www.w3.org/2000/svg">
<path d="M3.62109 28.125H14.1914C16.582 28.125 17.8008 26.9062 17.8008 24.5508V6.19922C17.8008 3.83203 16.5586 2.63672 14.1914 2.63672H3.62109C1.25391 2.63672 0 3.83203 0 6.19922V24.5508C0 26.9062 1.23047 28.125 3.62109 28.125ZM1.88672 24.457V6.30469C1.88672 5.14453 2.54297 4.52344 3.64453 4.52344H14.1562C15.2578 4.52344 15.9141 5.14453 15.9141 6.30469V24.457C15.9141 25.6055 15.2578 26.2383 14.1562 26.2383H3.64453C2.54297 26.2383 1.88672 25.6055 1.88672 24.457ZM4.99219 9.43359C5.89453 9.43359 6.64453 8.68359 6.64453 7.76953C6.64453 6.86719 5.89453 6.12891 4.99219 6.12891C4.07812 6.12891 3.33984 6.86719 3.33984 7.76953C3.33984 8.68359 4.07812 9.43359 4.99219 9.43359ZM4.00781 18.7148H7.41797C7.83984 18.7148 8.16797 18.3984 8.16797 17.9766C8.16797 17.5664 7.83984 17.2383 7.41797 17.2383H4.00781C3.59766 17.2383 3.26953 17.5664 3.26953 17.9766C3.26953 18.3984 3.59766 18.7148 4.00781 18.7148ZM4.00781 21.6445H7.41797C7.83984 21.6445 8.16797 21.3281 8.16797 20.9062C8.16797 20.4844 7.83984 20.168 7.41797 20.168H4.00781C3.59766 20.168 3.26953 20.4844 3.26953 20.9062C3.26953 21.3281 3.59766 21.6445 4.00781 21.6445ZM4.00781 24.5742H7.41797C7.83984 24.5742 8.16797 24.2461 8.16797 23.8359C8.16797 23.4141 7.83984 23.0859 7.41797 23.0859H4.00781C3.59766 23.0859 3.26953 23.4141 3.26953 23.8359C3.26953 24.2461 3.59766 24.5742 4.00781 24.5742ZM10.3828 18.7148H13.793C14.2031 18.7148 14.5312 18.3984 14.5312 17.9766C14.5312 17.5664 14.2031 17.2383 13.793 17.2383H10.3828C9.96094 17.2383 9.63281 17.5664 9.63281 17.9766C9.63281 18.3984 9.96094 18.7148 10.3828 18.7148ZM10.3828 21.6445H13.793C14.2031 21.6445 14.5312 21.3281 14.5312 20.9062C14.5312 20.4844 14.2031 20.168 13.793 20.168H10.3828C9.96094 20.168 9.63281 20.4844 9.63281 20.9062C9.63281 21.3281 9.96094 21.6445 10.3828 21.6445ZM10.3828 24.5742H13.793C14.2031 24.5742 14.5312 24.2461 14.5312 23.8359C14.5312 23.4141 14.2031 23.0859 13.793 23.0859H10.3828C9.96094 23.0859 9.63281 23.4141 9.63281 23.8359C9.63281 24.2461 9.96094 24.5742 10.3828 24.5742ZM3.39844 30.1875C3.96094 30.1875 4.33594 29.8008 4.33594 29.2383V26.9414H2.44922V29.2383C2.44922 29.8008 2.83594 30.1875 3.39844 30.1875ZM14.4023 30.1875C14.9766 30.1875 15.3516 29.8008 15.3516 29.2383V26.9414H13.4648V29.2383C13.4648 29.8008 13.8398 30.1875 14.4023 30.1875Z" fill="#007AFF"/>
<path d="M16.1133 15.8203C19.582 15.8203 22.043 13.4297 22.043 10.0195C22.043 8.36719 21.3633 6.97266 21 6.17578C20.2734 4.61719 19.0898 2.63672 18.1055 1.125C17.6016 0.398438 16.8984 0 16.1133 0C15.3281 0 14.6367 0.398438 14.1328 1.125C13.1484 2.63672 11.9648 4.61719 11.2383 6.17578C10.875 6.97266 10.1836 8.36719 10.1836 10.0195C10.1836 13.4297 12.6562 15.8203 16.1133 15.8203Z" fill="white"/>
<path d="M16.1133 14.2148C18.7031 14.2148 20.4492 12.5391 20.4492 10.0195C20.4492 8.76562 19.9219 7.67578 19.5469 6.83203C18.8555 5.35547 17.7422 3.50391 16.7695 2.01562C16.5703 1.73438 16.3711 1.60547 16.1133 1.60547C15.8672 1.60547 15.6562 1.73438 15.4688 2.01562C14.4961 3.50391 13.3711 5.35547 12.6797 6.83203C12.3164 7.67578 11.7891 8.76562 11.7891 10.0195C11.7891 12.5391 13.5234 14.2148 16.1133 14.2148Z" fill="black" fill-opacity="0.85"/>
</svg>
