<svg width="24" height="25" viewBox="0 0 24 25" fill="none" xmlns="http://www.w3.org/2000/svg">
<path d="M0.117188 18.5977V22.1484C0.117188 23.5664 0.796875 24.2227 2.23828 24.2227H5.98828C3.42188 22.9688 1.51172 21.1172 0.117188 18.5977ZM23.7891 18.5977C22.3945 21.1172 20.4844 22.9688 17.9297 24.2227H21.668C23.1094 24.2227 23.7891 23.5664 23.7891 22.1484V18.5977ZM11.9531 24.0586C18.4922 24.0586 23.9062 18.6328 23.9062 12.1055C23.9062 5.56641 18.4805 0.152344 11.9414 0.152344C5.41406 0.152344 0 5.56641 0 12.1055C0 18.6328 5.42578 24.0586 11.9531 24.0586Z" fill="#FFCC00"/>
<path d="M7.75734 9.22268C7.4175 8.88283 7.42922 8.36721 7.75734 8.03908C8.09719 7.69924 8.60109 7.69924 8.95265 8.03908L11.9409 11.0391L16.8628 6.11721C17.2026 5.77736 17.6948 5.78908 18.0464 6.11721C18.3979 6.44533 18.3862 6.9844 18.0464 7.31252L12.5503 12.8203C12.2104 13.1602 11.6831 13.1719 11.3433 12.8203L7.75734 9.22268Z" fill="black" fill-opacity="0.85"/>
</svg>
