<svg width="24" height="25" viewBox="0 0 24 25" fill="none" xmlns="http://www.w3.org/2000/svg">
<path d="M0.140625 18.5977V22.1484C0.140625 23.5664 0.820312 24.2227 2.26172 24.2227H6.01172C3.44531 22.9805 1.53516 21.1289 0.140625 18.5977ZM23.8125 18.5977C22.418 21.1289 20.5078 22.9805 17.9531 24.2227H21.6914C23.1328 24.2227 23.8125 23.5664 23.8125 22.1484V18.5977ZM11.9531 24.0586C18.4922 24.0586 23.9062 18.6328 23.9062 12.1055C23.9062 5.56641 18.4805 0.152344 11.9414 0.152344C5.41406 0.152344 0 5.56641 0 12.1055C0 18.6328 5.42578 24.0586 11.9531 24.0586ZM11.9531 22.0664C6.42188 22.0664 2.00391 17.6367 2.00391 12.1055C2.00391 6.57422 6.41016 2.14453 11.9414 2.14453C17.4727 2.14453 21.9141 6.57422 21.9141 12.1055C21.9141 17.6367 17.4844 22.0664 11.9531 22.0664Z" fill="#007AFF"/>
<path d="M7.93312 9.2344L11.4136 12.7148C11.7417 13.0547 12.2456 13.043 12.5737 12.7148L17.9175 7.37111C18.2456 7.05471 18.2573 6.53908 17.9175 6.22268C17.5776 5.90627 17.0972 5.89455 16.769 6.22268L11.9878 11.0039L9.09328 8.08596C8.75344 7.75783 8.26125 7.75783 7.93312 8.08596C7.61672 8.40236 7.605 8.90627 7.93312 9.2344Z" fill="black" fill-opacity="0.85"/>
</svg>
