<svg width="28" height="25" viewBox="0 0 28 25" fill="none" xmlns="http://www.w3.org/2000/svg">
<path d="M13.8867 22.4062C15.9609 22.4062 17.8711 21.668 19.3477 20.4258L13.2422 14.3086C12.8906 13.957 12.8906 13.4414 13.2422 13.0664C13.5469 12.7383 14.1328 12.7383 14.4609 13.0664L20.5664 19.1719C21.7148 17.7188 22.4062 15.8906 22.4062 13.8867C22.4062 9.17578 18.5742 5.36719 13.8867 5.36719C9.1875 5.36719 5.35547 9.17578 5.35547 13.8867C5.35547 18.6094 9.1875 22.4062 13.8867 22.4062Z" fill="black" fill-opacity="0.85"/>
<path d="M4.89844 24.0352C5.57812 24.0352 6.11719 23.4961 6.11719 22.8164C6.11719 22.1367 5.57812 21.5977 4.89844 21.5977C4.21875 21.5977 3.67969 22.1367 3.67969 22.8164C3.67969 23.4961 4.21875 24.0352 4.89844 24.0352ZM1.21875 15.0938C1.89844 15.0938 2.4375 14.5547 2.4375 13.875C2.4375 13.207 1.89844 12.668 1.21875 12.668C0.539062 12.668 0 13.207 0 13.875C0 14.5547 0.539062 15.0938 1.21875 15.0938ZM4.89844 6.1875C5.57812 6.1875 6.11719 5.64844 6.11719 4.96875C6.11719 4.28906 5.57812 3.75 4.89844 3.75C4.21875 3.75 3.67969 4.28906 3.67969 4.96875C3.67969 5.64844 4.21875 6.1875 4.89844 6.1875ZM13.8867 2.4375C14.5547 2.4375 15.0938 1.89844 15.0938 1.21875C15.0938 0.539062 14.5547 0 13.8867 0C13.207 0 12.668 0.539062 12.668 1.21875C12.668 1.89844 13.207 2.4375 13.8867 2.4375ZM22.8633 6.1875C23.543 6.1875 24.082 5.64844 24.082 4.96875C24.082 4.28906 23.543 3.75 22.8633 3.75C22.1836 3.75 21.6445 4.28906 21.6445 4.96875C21.6445 5.64844 22.1836 6.1875 22.8633 6.1875ZM26.543 15.0938C27.2227 15.0938 27.7617 14.5547 27.7617 13.875C27.7617 13.207 27.2227 12.668 26.543 12.668C25.8633 12.668 25.3242 13.207 25.3242 13.875C25.3242 14.5547 25.8633 15.0938 26.543 15.0938ZM22.8633 24.0352C23.543 24.0352 24.082 23.4961 24.082 22.8164C24.082 22.1367 23.543 21.5977 22.8633 21.5977C22.1836 21.5977 21.6445 22.1367 21.6445 22.8164C21.6445 23.4961 22.1836 24.0352 22.8633 24.0352Z" fill="#007AFF"/>
</svg>
