<svg width="22" height="22" viewBox="0 0 22 22" fill="none" xmlns="http://www.w3.org/2000/svg">
<path d="M3.67969 21.5977H17.8945C20.3555 21.5977 21.5742 20.3789 21.5742 17.9648V3.65625C21.5742 1.24219 20.3555 0.0234375 17.8945 0.0234375H3.67969C1.23047 0.0234375 0 1.23047 0 3.65625V17.9648C0 20.3906 1.23047 21.5977 3.67969 21.5977ZM3.70312 19.7109C2.53125 19.7109 1.88672 19.0898 1.88672 17.8711V3.75C1.88672 2.53125 2.53125 1.91016 3.70312 1.91016H17.8711C19.0312 1.91016 19.6875 2.53125 19.6875 3.75V17.8711C19.6875 19.0898 19.0312 19.7109 17.8711 19.7109H3.70312Z" fill="#007AFF"/>
<path d="M5.53125 7.44141C6.5625 7.45312 7.42969 6.58594 7.42969 5.51953C7.42969 4.47656 6.5625 3.63281 5.53125 3.63281C4.47656 3.63281 3.62109 4.47656 3.62109 5.51953C3.62109 6.58594 4.47656 7.41797 5.53125 7.44141ZM16.0664 7.44141C17.0977 7.45312 17.9531 6.58594 17.9531 5.51953C17.9531 4.47656 17.0977 3.63281 16.0664 3.63281C15.0117 3.63281 14.1445 4.47656 14.1445 5.51953C14.1445 6.58594 15.0117 7.41797 16.0664 7.44141ZM5.53125 17.9883C6.5625 17.9883 7.42969 17.1328 7.42969 16.0781C7.42969 15.0234 6.5625 14.1797 5.53125 14.1797C4.47656 14.1797 3.63281 15.0234 3.63281 16.0781C3.63281 17.1328 4.47656 17.9883 5.53125 17.9883ZM16.0664 17.9883C17.0977 17.9883 17.9531 17.1328 17.9531 16.0781C17.9531 15.0234 17.0977 14.1797 16.0664 14.1797C15.0117 14.1797 14.168 15.0234 14.168 16.0781C14.168 17.1328 15.0117 17.9883 16.0664 17.9883Z" fill="black" fill-opacity="0.85"/>
</svg>
