<svg width="22" height="22" viewBox="0 0 22 22" fill="none" xmlns="http://www.w3.org/2000/svg">
<path d="M3.67969 21.5977H17.8945C20.3555 21.5977 21.5742 20.3789 21.5742 17.9648V3.65625C21.5742 1.24219 20.3555 0.0234375 17.8945 0.0234375H3.67969C1.23047 0.0234375 0 1.23047 0 3.65625V17.9648C0 20.3906 1.23047 21.5977 3.67969 21.5977Z" fill="#FFCC00"/>
<path d="M16.2305 7.33594C15.1406 7.3125 14.2383 6.45703 14.2383 5.35547C14.2383 4.27734 15.1406 3.41016 16.2305 3.41016C17.2969 3.41016 18.1758 4.27734 18.1758 5.35547C18.1758 6.45703 17.2969 7.35938 16.2305 7.33594ZM5.36719 18.2109C4.27734 18.2109 3.41016 17.332 3.41016 16.2422C3.41016 15.1523 4.27734 14.2852 5.36719 14.2852C6.43359 14.2852 7.32422 15.1523 7.32422 16.2422C7.32422 17.332 6.43359 18.2109 5.36719 18.2109Z" fill="black" fill-opacity="0.85"/>
</svg>
