<svg width="29" height="24" viewBox="0 0 29 24" fill="none" xmlns="http://www.w3.org/2000/svg">
<path d="M6.23438 11.8477C6.23438 18.7734 8.42578 23.3906 11.6367 23.3906C14.8477 23.3906 17.0391 18.7734 17.0391 11.8477C17.0391 4.92188 14.8477 0.292969 11.6367 0.292969C8.42578 0.292969 6.23438 4.92188 6.23438 11.8477ZM0 11.8477C0 19.2188 2.0625 23.6953 6.96094 23.6953H8.29688C7.30078 22.8281 6.49219 21.5625 5.88281 19.957H4.30078C3.87891 19.957 3.53906 19.6055 3.53906 19.1836C3.53906 18.7617 3.87891 18.4219 4.30078 18.4219H5.39062C5.21484 17.7422 5.07422 17.0156 4.96875 16.3594H3.50391C3.08203 16.3594 2.74219 16.0195 2.74219 15.5977C2.74219 15.1758 3.08203 14.8242 3.50391 14.8242H4.76953C4.69922 14.0625 4.64062 13.1953 4.62891 12.4688H3.21094C2.78906 12.4688 2.4375 12.1289 2.4375 11.707C2.4375 11.2852 2.78906 10.9336 3.21094 10.9336H4.64062C4.65234 10.1602 4.71094 9.35156 4.79297 8.58984H3.50391C3.08203 8.58984 2.74219 8.23828 2.74219 7.81641C2.74219 7.39453 3.08203 7.05469 3.50391 7.05469H5.01562C5.13281 6.32812 5.28516 5.64844 5.47266 4.99219H4.30078C3.87891 4.99219 3.53906 4.65234 3.53906 4.23047C3.53906 3.80859 3.87891 3.45703 4.30078 3.45703H5.98828C6.58594 1.98047 7.35938 0.808594 8.29688 0H6.96094C2.0625 0 0 4.46484 0 11.8477Z" fill="#007AFF"/>
<path d="M13.6646 13.7579L17.2036 16.8985C18.9146 18.4454 21.563 17.3556 21.563 14.9767V14.4493H26.2974C27.7388 14.4493 28.8989 13.2892 28.8989 11.8595C28.8989 10.4063 27.7388 9.25792 26.2974 9.25792H21.563V8.70714C21.563 6.37511 18.9614 5.23839 17.2153 6.77355L13.6646 9.92589C12.4693 10.9689 12.4575 12.7032 13.6646 13.7579Z" fill="white"/>
<path d="M14.7305 12.5625L18.2695 15.7031C18.9492 16.3242 19.957 15.9727 19.957 14.9766V12.8555H26.2969C26.8594 12.8555 27.293 12.4102 27.293 11.8594C27.293 11.2852 26.8594 10.8516 26.2969 10.8516H19.957V8.707C19.957 7.74606 18.9844 7.33591 18.2695 7.96872L14.7305 11.1211C14.2383 11.543 14.2383 12.1289 14.7305 12.5625Z" fill="black" fill-opacity="0.85"/>
</svg>
