<svg width="24" height="33" viewBox="0 0 24 33" fill="none" xmlns="http://www.w3.org/2000/svg">
<path d="M11.8477 22.6641C18.7734 22.6641 23.3906 20.4727 23.3906 17.2617C23.3906 14.0508 18.7734 11.8594 11.8477 11.8594C4.92188 11.8594 0.304688 14.0508 0.304688 17.2617C0.304688 20.4727 4.92188 22.6641 11.8477 22.6641ZM11.8477 28.8984C19.2188 28.8984 23.6953 26.8359 23.6953 21.9375V20.6016C22.8281 21.5977 21.5625 22.4062 19.957 23.0039V24.5977C19.957 25.0195 19.6055 25.3594 19.1836 25.3594C18.7617 25.3594 18.4219 25.0195 18.4219 24.5977V23.5078C17.7422 23.6836 17.0156 23.8242 16.3594 23.9297V25.3945C16.3594 25.8164 16.0195 26.1562 15.5977 26.1562C15.1758 26.1562 14.8242 25.8164 14.8242 25.3945V24.1289C14.0625 24.1992 13.1953 24.2578 12.4688 24.2695V25.6875C12.4688 26.1094 12.1289 26.4609 11.707 26.4609C11.2852 26.4609 10.9336 26.1094 10.9336 25.6875V24.2578C10.1602 24.2461 9.35156 24.1875 8.58984 24.1055V25.3945C8.58984 25.8164 8.23828 26.1562 7.81641 26.1562C7.39453 26.1562 7.05469 25.8164 7.05469 25.3945V23.8828C6.32812 23.7656 5.64844 23.6133 4.99219 23.4258V24.5977C4.99219 25.0195 4.65234 25.3594 4.23047 25.3594C3.80859 25.3594 3.45703 25.0195 3.45703 24.5977V22.8984C1.98047 22.3125 0.808594 21.5391 0 20.6016V21.9375C0 26.8359 4.46484 28.8984 11.8477 28.8984Z" fill="#007AFF"/>
<path d="M13.7582 15.2344L16.8988 11.6953C18.4457 9.98438 17.3559 7.33594 14.977 7.33594H14.4496V2.60156C14.4496 1.16016 13.2895 0 11.8598 0C10.4066 0 9.25816 1.16016 9.25816 2.60156V7.33594H8.70738C6.37535 7.33594 5.23863 9.9375 6.77379 11.6836L9.92613 15.2344C10.9692 16.4297 12.7035 16.4414 13.7582 15.2344Z" fill="white"/>
<path d="M12.5622 14.168L15.7028 10.6289C16.3239 9.9375 15.9724 8.94141 14.9763 8.94141H12.8552V2.60156C12.8552 2.03906 12.4099 1.60547 11.8591 1.60547C11.2849 1.60547 10.8513 2.03906 10.8513 2.60156V8.94141H8.70676C7.74582 8.94141 7.33567 9.90234 7.96848 10.6289L11.1208 14.168C11.5427 14.6602 12.1286 14.6602 12.5622 14.168Z" fill="black" fill-opacity="0.85"/>
</svg>
