<svg width="24" height="27" viewBox="0 0 24 27" fill="none" xmlns="http://www.w3.org/2000/svg">
<path d="M11.8477 11.4077C18.9492 11.4077 23.6953 9.13428 23.6953 5.7124C23.6953 2.29053 18.9492 0.00537109 11.8477 0.00537109C4.73438 0.00537109 0 2.29053 0 5.7124C0 9.13428 4.73438 11.4077 11.8477 11.4077ZM11.8477 9.521C5.87109 9.521 1.88672 7.98584 1.88672 5.7124C1.88672 3.43896 5.87109 1.89209 11.8477 1.89209C17.8242 1.89209 21.8086 3.43896 21.8086 5.7124C21.8086 7.98584 17.8242 9.521 11.8477 9.521ZM11.8477 17.3374C19.2188 17.3374 23.6953 15.2866 23.6953 10.3765V5.7124H21.8086V10.3765C21.8086 14.103 18.0469 15.4507 11.8477 15.4507C5.64844 15.4507 1.88672 14.103 1.88672 10.3765V5.7124H0V10.3765C0 15.2866 4.46484 17.3374 11.8477 17.3374ZM4.99219 11.771V9.57959H3.45703V11.771C3.45703 12.1929 3.80859 12.5445 4.23047 12.5445C4.65234 12.5445 4.99219 12.1929 4.99219 11.771ZM8.58984 12.5679V10.3765H7.05469V12.5679C7.05469 12.9898 7.39453 13.3413 7.81641 13.3413C8.23828 13.3413 8.58984 12.9898 8.58984 12.5679ZM12.4688 12.8726V10.6812H10.9336V12.8726C10.9336 13.2945 11.2852 13.6343 11.707 13.6343C12.1289 13.6343 12.4688 13.2945 12.4688 12.8726ZM16.3594 12.5679V10.3765H14.8242V12.5679C14.8242 12.9898 15.1758 13.3413 15.5977 13.3413C16.0195 13.3413 16.3594 12.9898 16.3594 12.5679ZM19.957 11.771V9.57959H18.4219V11.771C18.4219 12.1929 18.7617 12.5445 19.1836 12.5445C19.6055 12.5445 19.957 12.1929 19.957 11.771Z" fill="#007AFF"/>
<path d="M21.1641 22.7516C21.1641 22.2125 20.707 21.6852 20.0039 21.943C17.8594 22.6696 15.4336 23.068 12.9141 23.068C10.3945 23.068 7.96871 22.6696 5.8359 21.943L5.24996 23.6188C7.58199 24.4039 10.207 24.8375 12.9141 24.8375C15.6211 24.8375 18.2461 24.3922 20.5781 23.6188C21.0117 23.4781 21.1641 23.1031 21.1641 22.7516ZM6.24605 25.7516L8.01558 20.6891C8.28512 19.9274 7.53512 19.3649 6.9023 19.5875L2.8359 21.0055C2.2734 21.193 2.07418 21.7555 2.39058 22.2594L4.7109 25.9156C5.07418 26.4899 5.98824 26.4664 6.24605 25.7516Z" fill="black" fill-opacity="0.85"/>
</svg>
