<svg width="27" height="24" viewBox="0 0 27 24" fill="none" xmlns="http://www.w3.org/2000/svg">
<path d="M14.8818 11.8477C14.8818 18.9492 17.1553 23.6953 20.5772 23.6953C23.999 23.6953 26.2842 18.9492 26.2842 11.8477C26.2842 4.73438 23.999 0 20.5772 0C17.1553 0 14.8818 4.73438 14.8818 11.8477ZM16.7686 11.8477C16.7686 5.87109 18.3037 1.88672 20.5772 1.88672C22.8506 1.88672 24.3975 5.87109 24.3975 11.8477C24.3975 17.8125 22.8506 21.8086 20.5772 21.8086C18.3037 21.8086 16.7686 17.8125 16.7686 11.8477ZM8.95215 11.8477C8.95215 19.2188 11.0029 23.6953 15.9131 23.6953H20.5772V21.8086H15.9131C12.1865 21.8086 10.8389 18.0469 10.8389 11.8477C10.8389 5.64844 12.1865 1.88672 15.9131 1.88672H20.5772V0H15.9131C11.0029 0 8.95215 4.46484 8.95215 11.8477ZM14.5186 4.99219H16.71V3.45703H14.5186C14.0967 3.45703 13.7451 3.80859 13.7451 4.23047C13.7451 4.65234 14.0967 4.99219 14.5186 4.99219ZM13.7217 8.58984H15.9131V7.05469H13.7217C13.2998 7.05469 12.9483 7.39453 12.9483 7.81641C12.9483 8.23828 13.2998 8.58984 13.7217 8.58984ZM13.417 12.4688H15.6084V10.9336H13.417C12.9951 10.9336 12.6553 11.2852 12.6553 11.707C12.6553 12.1289 12.9951 12.4688 13.417 12.4688ZM13.7217 16.3594H15.9131V14.8242H13.7217C13.2998 14.8242 12.9483 15.1758 12.9483 15.5977C12.9483 16.0195 13.2998 16.3594 13.7217 16.3594ZM14.5186 19.957H16.71V18.4219H14.5186C14.0967 18.4219 13.7451 18.7617 13.7451 19.1836C13.7451 19.6055 14.0967 19.957 14.5186 19.957Z" fill="#007AFF"/>
<path d="M3.53809 2.26172C3.18653 2.26172 2.81153 2.42578 2.67091 2.84766C1.89747 5.17969 1.45216 7.80469 1.45216 10.5234C1.45216 13.2305 1.88575 15.8555 2.67091 18.1875L4.34669 17.6016C3.62013 15.457 3.22169 13.0312 3.22169 10.5234C3.22169 8.00391 3.62013 5.57812 4.34669 3.43359C4.6045 2.71875 4.07716 2.26172 3.53809 2.26172ZM0.561532 17.2148C-0.153312 17.4844 -0.165031 18.3984 0.409188 18.75L4.10059 21.0352C4.6045 21.3398 5.167 21.1289 5.34278 20.5781L6.71388 16.4883C6.92481 15.8555 6.36231 15.1055 5.60059 15.3867L0.561532 17.2148Z" fill="black" fill-opacity="0.85"/>
</svg>
