<svg width="26" height="24" viewBox="0 0 26 24" fill="none" xmlns="http://www.w3.org/2000/svg">
<path d="M15.1758 11.8477C15.1758 18.7734 17.3672 23.3906 20.5782 23.3906C23.7891 23.3906 25.9805 18.7734 25.9805 11.8477C25.9805 4.92188 23.7891 0.292969 20.5782 0.292969C17.3672 0.292969 15.1758 4.92188 15.1758 11.8477ZM8.95312 11.8477C8.95312 19.2188 11.0039 23.6953 15.9141 23.6953H17.2383C16.2539 22.8281 15.4336 21.5625 14.836 19.957H13.2539C12.8321 19.957 12.4805 19.6055 12.4805 19.1836C12.4805 18.7617 12.8321 18.4219 13.2539 18.4219H14.3438C14.1563 17.7422 14.0157 17.0156 13.9102 16.3594H12.4571C12.0352 16.3594 11.6836 16.0195 11.6836 15.5977C11.6836 15.1758 12.0352 14.8242 12.4571 14.8242H13.7227C13.6407 14.0625 13.5938 13.1953 13.5821 12.4688H12.1524C11.7305 12.4688 11.3907 12.1289 11.3907 11.707C11.3907 11.2852 11.7305 10.9336 12.1524 10.9336H13.5938C13.6055 10.1602 13.6524 9.35156 13.7461 8.58984H12.4571C12.0352 8.58984 11.6836 8.23828 11.6836 7.81641C11.6836 7.39453 12.0352 7.05469 12.4571 7.05469H13.9571C14.0743 6.32812 14.2266 5.64844 14.4258 4.99219H13.2539C12.8321 4.99219 12.4805 4.65234 12.4805 4.23047C12.4805 3.80859 12.8321 3.45703 13.2539 3.45703H14.9414C15.5274 1.98047 16.3125 0.808594 17.2383 0H15.9141C11.0039 0 8.95312 4.46484 8.95312 11.8477Z" fill="#007AFF"/>
<path d="M3.63184 2.20312C3.28028 2.20312 2.917 2.36719 2.77638 2.77734C1.92091 5.16797 1.45216 7.73439 1.45216 10.5234C1.45216 13.3008 1.90919 15.8789 2.77638 18.2695L4.44044 17.6719C3.63184 15.4688 3.22169 13.1016 3.22169 10.5234C3.22169 7.9336 3.63184 5.57812 4.44044 3.37501C4.70997 2.66017 4.18263 2.20312 3.63184 2.20312ZM0.561532 17.2852C-0.153312 17.543 -0.165031 18.4688 0.409188 18.8203L4.10059 21.1055C4.6045 21.4102 5.167 21.1992 5.34278 20.6484L6.71388 16.5586C6.92481 15.9258 6.36231 15.1758 5.60059 15.4453L0.561532 17.2852Z" fill="black" fill-opacity="0.85"/>
</svg>
