<svg width="24" height="30" viewBox="0 0 24 30" fill="none" xmlns="http://www.w3.org/2000/svg">
<path d="M0 8.03906H20.332V4.95703C20.332 3.28125 19.2422 2.15625 17.625 2.15625H2.71875C1.08984 2.15625 0 3.28125 0 4.95703V8.03906ZM4.24219 6.73828C3.65625 6.73828 3.17578 6.24609 3.17578 5.67188C3.17578 5.07422 3.65625 4.59375 4.24219 4.59375C4.82812 4.59375 5.29688 5.07422 5.29688 5.67188C5.29688 6.24609 4.82812 6.73828 4.24219 6.73828ZM7.32422 6.73828C6.73828 6.73828 6.26953 6.24609 6.26953 5.67188C6.26953 5.07422 6.73828 4.59375 7.32422 4.59375C7.91016 4.59375 8.37891 5.07422 8.37891 5.67188C8.37891 6.24609 7.91016 6.73828 7.32422 6.73828ZM0 22.2188H20.332V9.63281H0V22.2188ZM7.3125 12.5156C6.94922 12.5156 6.70312 12.2578 6.70312 11.8945C6.70312 11.5312 6.94922 11.2852 7.3125 11.2852H13.0312C13.3945 11.2852 13.6289 11.5312 13.6289 11.8945C13.6289 12.2578 13.3945 12.5156 13.0312 12.5156H7.3125ZM2.71875 26.7656H17.625C19.2422 26.7656 20.332 25.6523 20.332 23.9766V23.8125H0V23.9766C0 25.6523 1.08984 26.7656 2.71875 26.7656Z" fill="#007AFF"/>
<path d="M14.2617 29.1445C18.0938 29.1445 21.1992 26.0508 21.1992 22.207C21.1992 18.3516 18.0938 15.2695 14.2617 15.2695C10.4062 15.2695 7.32422 18.3516 7.32422 22.207C7.32422 26.0508 10.4062 29.1445 14.2617 29.1445ZM16.6641 29.1445C20.5078 29.1445 23.6016 26.0508 23.6016 22.207C23.6016 18.3516 20.5078 15.2695 16.6641 15.2695C12.8203 15.2695 9.72656 18.3516 9.72656 22.207C9.72656 26.0508 12.8203 29.1445 16.6641 29.1445Z" fill="white"/>
<path d="M16.6641 27.7734C19.7578 27.7734 22.2422 25.3008 22.2422 22.207C22.2422 19.1016 19.7578 16.6289 16.6641 16.6289C13.5703 16.6289 11.0977 19.1016 11.0977 22.207C11.0977 25.3008 13.5703 27.7734 16.6641 27.7734ZM16.6641 26.5898C14.1562 26.5898 12.2812 24.7031 12.2812 22.207C12.2812 19.6992 14.1562 17.8125 16.6641 17.8125C19.1719 17.8125 21.0586 19.6992 21.0586 22.207C21.0586 24.7031 19.1719 26.5898 16.6641 26.5898Z" fill="black" fill-opacity="0.85"/>
<path d="M14.2617 27.7734C17.3438 27.7734 19.8281 25.3008 19.8281 22.207C19.8281 19.1016 17.3438 16.6289 14.2617 16.6289C11.168 16.6289 8.68359 19.1016 8.68359 22.207C8.68359 25.3008 11.168 27.7734 14.2617 27.7734Z" fill="white"/>
<path d="M14.2617 27.7734C17.3438 27.7734 19.8281 25.3008 19.8281 22.207C19.8281 19.1016 17.3438 16.6289 14.2617 16.6289C11.168 16.6289 8.68359 19.1016 8.68359 22.207C8.68359 25.3008 11.168 27.7734 14.2617 27.7734ZM14.2617 26.5898C11.7422 26.5898 9.86719 24.7031 9.86719 22.207C9.86719 19.6992 11.7422 17.8125 14.2617 17.8125C16.7578 17.8125 18.6445 19.6992 18.6445 22.207C18.6445 24.7031 16.7578 26.5898 14.2617 26.5898ZM14.2617 25.7109C16.1836 25.7109 17.7656 24.1406 17.7656 22.207C17.7656 20.2734 16.1836 18.7031 14.2617 18.7031C12.3164 18.7031 10.7461 20.2734 10.7461 22.207C10.7461 24.1406 12.3164 25.7109 14.2617 25.7109ZM14.2617 24.6445C12.832 24.6445 11.8125 23.625 11.8125 22.207C11.8125 20.7773 12.832 19.7695 14.2617 19.7695C15.6914 19.7695 16.6992 20.7773 16.6992 22.207C16.6992 23.6367 15.6797 24.6445 14.2617 24.6445Z" fill="black" fill-opacity="0.85"/>
</svg>
