<svg width="22" height="22" viewBox="0 0 22 22" fill="none" xmlns="http://www.w3.org/2000/svg">
<path d="M3.67969 21.5977H17.8945C20.3555 21.5977 21.5742 20.3789 21.5742 17.9648V3.65625C21.5742 1.24219 20.3555 0.0234375 17.8945 0.0234375H3.67969C1.23047 0.0234375 0 1.23047 0 3.65625V17.9648C0 20.3906 1.23047 21.5977 3.67969 21.5977ZM3.70312 19.7109C2.53125 19.7109 1.88672 19.0898 1.88672 17.8711V3.75C1.88672 2.53125 2.53125 1.91016 3.70312 1.91016H17.8711C19.0312 1.91016 19.6875 2.53125 19.6875 3.75V17.8711C19.6875 19.0898 19.0312 19.7109 17.8711 19.7109H3.70312Z" fill="#007AFF"/>
<path d="M10.7695 7.875C11.6133 7.875 12.2109 7.3125 12.2109 6.58594C12.2109 5.75391 11.625 5.17969 10.7695 5.17969C9.98438 5.17969 9.375 5.76562 9.375 6.58594C9.375 7.3125 9.98438 7.875 10.7695 7.875ZM6.23438 11.7891H15.3633C16.0195 11.7891 16.4648 11.4375 16.4648 10.8164C16.4648 10.1836 16.043 9.83203 15.3633 9.83203H6.23438C5.55469 9.83203 5.12109 10.1836 5.12109 10.8164C5.12109 11.4375 5.57812 11.7891 6.23438 11.7891ZM10.7695 16.4297C11.6133 16.4297 12.2109 15.8555 12.2109 15.1289C12.2109 14.3086 11.625 13.7344 10.7695 13.7344C9.98438 13.7344 9.375 14.3086 9.375 15.1289C9.375 15.8555 9.98438 16.4297 10.7695 16.4297Z" fill="black" fill-opacity="0.85"/>
</svg>
