<svg width="22" height="22" viewBox="0 0 22 22" fill="none" xmlns="http://www.w3.org/2000/svg">
<path d="M3.67969 21.5977H17.8945C20.3555 21.5977 21.5742 20.3789 21.5742 17.9648V3.65625C21.5742 1.24219 20.3555 0.0234375 17.8945 0.0234375H3.67969C1.23047 0.0234375 0 1.23047 0 3.65625V17.9648C0 20.3906 1.23047 21.5977 3.67969 21.5977Z" fill="#FFCC00"/>
<path d="M10.7695 7.79297C9.96094 7.79297 9.32812 7.20703 9.32812 6.45703C9.32812 5.60156 9.96094 4.99219 10.7695 4.99219C11.6602 4.99219 12.2578 5.58984 12.2578 6.45703C12.2578 7.20703 11.6484 7.79297 10.7695 7.79297ZM6.09375 11.8242C5.41406 11.8242 4.94531 11.4609 4.94531 10.8164C4.94531 10.1602 5.39062 9.79688 6.09375 9.79688H15.5039C16.207 9.79688 16.6406 10.1602 16.6406 10.8164C16.6406 11.4609 16.1836 11.8242 15.5039 11.8242H6.09375ZM10.7695 16.6172C9.96094 16.6172 9.32812 16.0195 9.32812 15.2695C9.32812 14.4141 9.96094 13.8164 10.7695 13.8164C11.6602 13.8164 12.2578 14.4141 12.2578 15.2695C12.2578 16.0195 11.6484 16.6172 10.7695 16.6172Z" fill="black" fill-opacity="0.85"/>
</svg>
