<svg width="20" height="26" viewBox="0 0 20 26" fill="none" xmlns="http://www.w3.org/2000/svg">
<path d="M14.168 14.1328H5.27344C4.85156 14.1328 4.53516 14.4492 4.53516 14.8477C4.53516 15.2578 4.85156 15.5742 5.27344 15.5742H14.168C14.5781 15.5742 14.8828 15.2578 14.8828 14.8477C14.8828 14.4492 14.5781 14.1328 14.168 14.1328ZM14.168 18.2227H5.27344C4.85156 18.2227 4.53516 18.5508 4.53516 18.9609C4.53516 19.3594 4.85156 19.6641 5.27344 19.6641H14.168C14.5781 19.6641 14.8828 19.3594 14.8828 18.9609C14.8828 18.5508 14.5781 18.2227 14.168 18.2227ZM3.63281 25.125H16.0781C18.5039 25.125 19.7109 23.8945 19.7109 21.457V10.8164C19.7109 9.30469 19.5352 8.64844 18.5977 7.6875L12.1406 1.11328C11.25 0.199219 10.5117 0 9.19922 0H3.63281C1.21875 0 0 1.24219 0 3.67969V21.457C0 23.9062 1.20703 25.125 3.63281 25.125ZM3.71484 23.2383C2.50781 23.2383 1.88672 22.5938 1.88672 21.4219V3.71484C1.88672 2.55469 2.50781 1.88672 3.72656 1.88672H8.94141V8.69531C8.94141 10.1719 9.67969 10.8984 11.1445 10.8984H17.8242V21.4219C17.8242 22.5938 17.2031 23.2383 15.9844 23.2383H3.71484ZM11.3555 9.12891C10.8867 9.12891 10.7109 8.94141 10.7109 8.47266V2.25L17.4609 9.12891H11.3555Z" fill="black" fill-opacity="0.85"/>
</svg>
