<svg width="20" height="26" viewBox="0 0 20 26" fill="none" xmlns="http://www.w3.org/2000/svg">
<path d="M5.26172 15.9141C4.80469 15.9141 4.46484 15.5859 4.46484 15.1523C4.46484 14.7188 4.80469 14.3789 5.26172 14.3789H14.4844C14.9297 14.3789 15.2695 14.7188 15.2695 15.1523C15.2695 15.5859 14.9297 15.9141 14.4844 15.9141H5.26172ZM5.26172 20.3555C4.80469 20.3555 4.46484 20.0273 4.46484 19.5938C4.46484 19.1602 4.80469 18.8203 5.26172 18.8203H14.4844C14.9297 18.8203 15.2695 19.1602 15.2695 19.5938C15.2695 20.0273 14.9297 20.3555 14.4844 20.3555H5.26172ZM3.63281 25.125H16.0781C18.5039 25.125 19.7109 23.8945 19.7109 21.457V10.8164H11.2266C9.72656 10.8164 9.01172 10.1016 9.01172 8.60156V0H3.63281C1.21875 0 0 1.24219 0 3.67969V21.457C0 23.9062 1.20703 25.125 3.63281 25.125ZM11.2617 9.21094H19.5703C19.5 8.73047 19.1602 8.26172 18.5977 7.6875L12.1406 1.11328C11.5898 0.550781 11.1094 0.210938 10.6172 0.128906V8.57812C10.6172 9 10.8281 9.21094 11.2617 9.21094Z" fill="black" fill-opacity="0.85"/>
</svg>
