<svg width="24" height="24" viewBox="0 0 24 24" fill="none" xmlns="http://www.w3.org/2000/svg">
<path d="M11.9531 23.9062C18.4922 23.9062 23.9062 18.4805 23.9062 11.9531C23.9062 5.41406 18.4805 0 11.9414 0C5.41406 0 0 5.41406 0 11.9531C0 18.4805 5.42578 23.9062 11.9531 23.9062ZM11.9531 21.9141C6.42188 21.9141 2.00391 17.4844 2.00391 11.9531C2.00391 6.42188 6.41016 1.99219 11.9414 1.99219C17.4727 1.99219 21.9141 6.42188 21.9141 11.9531C21.9141 17.4844 17.4844 21.9141 11.9531 21.9141Z" fill="#007AFF"/>
<path d="M9.16406 18.2578H15.2812C16.582 18.2578 17.2266 17.5898 17.2266 16.2773V11.2383H12.5859C11.7773 11.2383 11.3906 10.8633 11.3906 10.0547V5.33203H9.16406C7.875 5.33203 7.21875 6 7.21875 7.3125V16.2773C7.21875 17.6016 7.875 18.2578 9.16406 18.2578ZM12.6797 10.2891H17.1562C17.1211 10.0312 16.9336 9.77344 16.6289 9.46875L13.1602 5.92969C12.8672 5.625 12.5977 5.4375 12.3398 5.40234V9.94922C12.3398 10.1719 12.457 10.2891 12.6797 10.2891Z" fill="black" fill-opacity="0.85"/>
</svg>
