<svg width="23" height="23" viewBox="0 0 23 23" fill="none" xmlns="http://www.w3.org/2000/svg">
<path d="M0.9375 7.47656C1.55859 7.47656 1.88672 7.125 1.88672 6.51562V3.75C1.88672 2.53125 2.53125 1.91016 3.70312 1.91016H6.53906C7.16016 1.91016 7.5 1.57031 7.5 0.960938C7.5 0.351562 7.16016 0.0234375 6.53906 0.0234375H3.67969C1.23047 0.0234375 0 1.23047 0 3.64453V6.51562C0 7.125 0.339844 7.47656 0.9375 7.47656ZM21.9961 7.47656C22.6172 7.47656 22.9453 7.125 22.9453 6.51562V3.64453C22.9453 1.23047 21.7148 0.0234375 19.2656 0.0234375H16.3945C15.7852 0.0234375 15.4453 0.351562 15.4453 0.960938C15.4453 1.57031 15.7852 1.91016 16.3945 1.91016H19.2305C20.3906 1.91016 21.0586 2.53125 21.0586 3.75V6.51562C21.0586 7.125 21.3984 7.47656 21.9961 7.47656ZM3.67969 22.957H6.53906C7.16016 22.957 7.5 22.6172 7.5 22.0195C7.5 21.4102 7.16016 21.0703 6.53906 21.0703H3.70312C2.53125 21.0703 1.88672 20.4492 1.88672 19.2305V16.4648C1.88672 15.8438 1.54688 15.5039 0.9375 15.5039C0.328125 15.5039 0 15.8438 0 16.4648V19.3242C0 21.75 1.23047 22.957 3.67969 22.957ZM16.3945 22.957H19.2656C21.7148 22.957 22.9453 21.7383 22.9453 19.3242V16.4648C22.9453 15.8438 22.6055 15.5039 21.9961 15.5039C21.3867 15.5039 21.0586 15.8438 21.0586 16.4648V19.2305C21.0586 20.4492 20.3906 21.0703 19.2305 21.0703H16.3945C15.7852 21.0703 15.4453 21.4102 15.4453 22.0195C15.4453 22.6172 15.7852 22.957 16.3945 22.957Z" fill="#007AFF"/>
<path d="M8.25 18.7266H15.2227C16.6992 18.7266 17.4727 17.9297 17.4727 16.4414V10.4883C17.4727 9.55078 17.332 9.14062 16.793 8.58984L13.1719 4.89844C12.668 4.39453 12.1992 4.21875 11.3672 4.21875H8.25C6.78516 4.21875 6 5.01562 6 6.49219V16.4414C6 17.9297 6.78516 18.7266 8.25 18.7266ZM8.29688 17.2383C7.73438 17.2383 7.47656 16.9688 7.47656 16.4297V6.51562C7.47656 5.97656 7.74609 5.70703 8.30859 5.70703H11.0039V9.30469C11.0039 10.2305 11.5195 10.7461 12.457 10.7461H15.9961V16.4297C15.9961 16.9688 15.7383 17.2383 15.1641 17.2383H8.29688ZM12.6211 9.32812C12.4805 9.32812 12.4219 9.28125 12.4219 9.14062V6.21094L15.4805 9.32812H12.6211Z" fill="black" fill-opacity="0.85"/>
</svg>
