<svg width="24" height="24" viewBox="0 0 24 24" fill="none" xmlns="http://www.w3.org/2000/svg">
<path d="M11.9531 23.9062C18.4922 23.9062 23.9062 18.4805 23.9062 11.9531C23.9062 5.41406 18.4805 0 11.9414 0C5.41406 0 0 5.41406 0 11.9531C0 18.4805 5.42578 23.9062 11.9531 23.9062Z" fill="#FFCC00"/>
<path d="M9.08203 18.457C7.74609 18.457 7.06641 17.7891 7.06641 16.418V7.17188C7.06641 5.82422 7.74609 5.13281 9.08203 5.13281H11.3789V9.99609C11.3789 10.8398 11.7773 11.2266 12.6094 11.2266H17.4023V16.418C17.4023 17.7656 16.7344 18.457 15.3867 18.457H9.08203ZM12.7031 10.2422C12.4805 10.2422 12.3516 10.125 12.3516 9.89062V5.20312C12.6211 5.23828 12.9023 5.42578 13.207 5.74219L16.7812 9.38672C17.0977 9.70312 17.2852 9.97266 17.3203 10.2422H12.7031Z" fill="black" fill-opacity="0.85"/>
</svg>
