<svg width="22" height="29" viewBox="0 0 22 29" fill="none" xmlns="http://www.w3.org/2000/svg">
<path d="M0 22.7344C0 25.1836 1.21875 26.4141 3.63281 26.4141H16.0781C18.5039 26.4141 19.7109 25.1953 19.7109 22.7344V4.96875C19.7109 2.50781 18.5039 1.28906 16.0781 1.28906H3.63281C1.21875 1.28906 0 2.51953 0 4.96875V22.7344ZM17.8242 4.99219V22.7109C17.8242 23.8828 17.1562 24.5273 15.9844 24.5273H3.73828C2.51953 24.5273 1.88672 23.8711 1.88672 22.7109V4.99219C1.88672 3.84375 2.51953 3.17578 3.73828 3.17578H15.9844C17.1562 3.17578 17.8242 3.83203 17.8242 4.99219Z" fill="#007AFF"/>
<path d="M5.42578 12.0352H14.3086C14.7188 12.0352 15.0352 11.7188 15.0352 11.3086C15.0352 10.9102 14.7188 10.5938 14.3086 10.5938H5.42578C4.99219 10.5938 4.6875 10.9102 4.6875 11.3086C4.6875 11.7188 4.99219 12.0352 5.42578 12.0352Z" fill="#007AFF"/>
<path d="M5.42578 7.95703H14.3086C14.7188 7.95703 15.0352 7.62891 15.0352 7.21875C15.0352 6.82031 14.7188 6.51562 14.3086 6.51562H5.42578C4.99219 6.51562 4.6875 6.82031 4.6875 7.21875C4.6875 7.62891 4.99219 7.95703 5.42578 7.95703Z" fill="#007AFF"/>
<path d="M14.4492 28.0195C18.2344 28.0195 21.3164 24.9375 21.3164 21.1523C21.3164 17.3438 18.2344 14.2734 14.4492 14.2734C10.6641 14.2734 7.57031 17.3672 7.57031 21.1523C7.57031 24.9375 10.6641 28.0195 14.4492 28.0195Z" fill="white"/>
<path d="M14.4492 26.4141C17.3555 26.4141 19.7109 24.0586 19.7109 21.1523C19.7109 18.2227 17.3555 15.8672 14.4492 15.8672C11.543 15.8672 9.16406 18.2461 9.16406 21.1523C9.16406 24.0586 11.543 26.4141 14.4492 26.4141ZM14.4492 24.7383C12.457 24.7383 10.8398 23.1211 10.8398 21.1523C10.8398 19.1836 12.457 17.5547 14.4492 17.5547C16.4062 17.5547 18.0234 19.1836 18.0234 21.1523C18.0234 23.1211 16.418 24.7383 14.4492 24.7383ZM20.8125 28.582C21.3516 28.582 21.7617 28.1602 21.7617 27.5625C21.7617 27.3047 21.6328 27.0469 21.4336 26.8477L18.1523 23.5547L16.6641 24.8906L19.957 28.1953C20.2383 28.4766 20.4961 28.582 20.8125 28.582Z" fill="black" fill-opacity="0.85"/>
</svg>
