<svg width="24" height="30" viewBox="0 0 24 30" fill="none" xmlns="http://www.w3.org/2000/svg">
<path d="M5.68359 3.67969V19.957C5.68359 22.4062 6.89062 23.6367 9.31641 23.6367H20.332C22.7461 23.6367 23.9648 22.3945 23.9648 19.957V10.4414C23.9648 9 23.6719 8.08594 22.793 7.18359L16.875 1.17188C16.043 0.316406 15.0586 0 13.8047 0H9.31641C6.90234 0 5.68359 1.24219 5.68359 3.67969ZM7.57031 19.9219V3.71484C7.57031 2.55469 8.19141 1.88672 9.41016 1.88672H14.5898V7.89844C14.5898 9.25781 15.2461 9.90234 16.5938 9.90234H22.0781V19.9219C22.0781 21.0938 21.4453 21.75 20.2266 21.75H9.39844C8.19141 21.75 7.57031 21.0938 7.57031 19.9219ZM16.2891 7.61719V2.8125L21.5859 8.20312H16.8633C16.4531 8.20312 16.2891 8.02734 16.2891 7.61719Z" fill="#007AFF"/>
<path d="M0 25.8047C0 28.2539 1.20703 29.4844 3.63281 29.4844H14.6484C17.0742 29.4844 18.2812 28.2422 18.2812 25.8047V16.6523C18.2812 15.1523 18.1055 14.4961 17.168 13.5352L10.7109 6.96094C9.82031 6.04688 9.08203 5.84766 7.76953 5.84766H3.63281C1.21875 5.84766 0 7.07812 0 9.52734V25.8047Z" fill="white"/>
<path d="M0 25.8047C0 28.2539 1.20703 29.4844 3.63281 29.4844H14.6484C17.0742 29.4844 18.2812 28.2422 18.2812 25.8047V16.6523C18.2812 15.1523 18.1055 14.4961 17.168 13.5352L10.7109 6.96094C9.82031 6.04688 9.08203 5.84766 7.76953 5.84766H3.63281C1.21875 5.84766 0 7.07812 0 9.52734V25.8047ZM1.88672 25.7695V9.55078C1.88672 8.40234 2.50781 7.73438 3.72656 7.73438H7.57031V14.5312C7.57031 16.0078 8.32031 16.7461 9.77344 16.7461H16.3945V25.7695C16.3945 26.9414 15.7617 27.5977 14.5547 27.5977H3.71484C2.50781 27.5977 1.88672 26.9414 1.88672 25.7695ZM9.99609 14.9766C9.52734 14.9766 9.33984 14.7891 9.33984 14.3203V8.16797L16.0312 14.9766H9.99609Z" fill="black" fill-opacity="0.85"/>
</svg>
