<svg width="23" height="23" viewBox="0 0 23 23" fill="none" xmlns="http://www.w3.org/2000/svg">
<path d="M0.9375 7.47656C1.55859 7.47656 1.88672 7.125 1.88672 6.51562V3.75C1.88672 2.53125 2.53125 1.91016 3.70312 1.91016H6.53906C7.16016 1.91016 7.5 1.57031 7.5 0.960938C7.5 0.351562 7.16016 0.0234375 6.53906 0.0234375H3.67969C1.23047 0.0234375 0 1.23047 0 3.64453V6.51562C0 7.125 0.339844 7.47656 0.9375 7.47656ZM21.9961 7.47656C22.6172 7.47656 22.9453 7.125 22.9453 6.51562V3.64453C22.9453 1.23047 21.7148 0.0234375 19.2656 0.0234375H16.3945C15.7852 0.0234375 15.4453 0.351562 15.4453 0.960938C15.4453 1.57031 15.7852 1.91016 16.3945 1.91016H19.2305C20.3906 1.91016 21.0586 2.53125 21.0586 3.75V6.51562C21.0586 7.125 21.3984 7.47656 21.9961 7.47656ZM3.67969 22.957H6.53906C7.16016 22.957 7.5 22.6172 7.5 22.0195C7.5 21.4102 7.16016 21.0703 6.53906 21.0703H3.70312C2.53125 21.0703 1.88672 20.4492 1.88672 19.2305V16.4648C1.88672 15.8438 1.54688 15.5039 0.9375 15.5039C0.328125 15.5039 0 15.8438 0 16.4648V19.3242C0 21.75 1.23047 22.957 3.67969 22.957ZM16.3945 22.957H19.2656C21.7148 22.957 22.9453 21.7383 22.9453 19.3242V16.4648C22.9453 15.8438 22.6055 15.5039 21.9961 15.5039C21.3867 15.5039 21.0586 15.8438 21.0586 16.4648V19.2305C21.0586 20.4492 20.3906 21.0703 19.2305 21.0703H16.3945C15.7852 21.0703 15.4453 21.4102 15.4453 22.0195C15.4453 22.6172 15.7852 22.957 16.3945 22.957Z" fill="#007AFF"/>
<path d="M8.19141 18.7266H15.2695C16.7461 18.7266 17.4727 17.9648 17.4727 16.4883V11.0508H12C11.1328 11.0508 10.6406 10.5469 10.6406 9.67969V4.21875H8.19141C6.73828 4.21875 5.98828 4.98047 5.98828 6.44531V16.4883C5.98828 17.9766 6.73828 18.7266 8.19141 18.7266ZM12.3281 9.75H17.4023C17.3438 9.46875 17.1445 9.16406 16.8047 8.82422L12.8555 4.875C12.5156 4.53516 12.2344 4.33594 11.9414 4.28906V9.375C11.9414 9.62109 12.0703 9.75 12.3281 9.75Z" fill="black" fill-opacity="0.85"/>
</svg>
