<svg width="24" height="24" viewBox="0 0 24 24" fill="none" xmlns="http://www.w3.org/2000/svg">
<path d="M11.9531 23.9062C18.4922 23.9062 23.9062 18.4805 23.9062 11.9531C23.9062 5.41406 18.4805 0 11.9414 0C5.41406 0 0 5.41406 0 11.9531C0 18.4805 5.42578 23.9062 11.9531 23.9062ZM11.9531 21.9141C6.42188 21.9141 2.00391 17.4844 2.00391 11.9531C2.00391 6.42188 6.41016 1.99219 11.9414 1.99219C17.4727 1.99219 21.9141 6.42188 21.9141 11.9531C21.9141 17.4844 17.4844 21.9141 11.9531 21.9141Z" fill="#007AFF"/>
<path d="M5.76562 18.2109H6.90234C7.54688 18.2109 7.92188 17.8008 7.92188 17.3203C7.92188 16.8164 7.65234 16.5938 7.125 16.5469C6.86719 16.5117 6.86719 16.2188 7.07812 16.1836C8.47266 15.9727 9.29297 15.2344 9.45703 14.0156C10.3008 14.6133 11.7305 14.6953 13.1484 14.5078C13.125 15.3398 13.0195 16.4883 13.0195 17.0742C13.0195 17.7656 13.4414 18.2109 14.1094 18.2109H15.0586C15.6914 18.2109 16.0547 17.8008 16.0547 17.332C16.0547 16.8516 15.832 16.6406 15.2227 16.5469C15.1055 16.5117 15.0234 16.4297 15.0586 16.3008C15.1641 15.7266 15.4922 14.5078 15.6797 13.957C16.0664 12.8086 16.6172 12.0586 16.6172 10.8633C16.6172 10.3008 16.7695 9.97266 16.8984 9.84375C17.3555 10.1016 17.6719 10.2305 18.1055 10.2305C19.0547 10.2305 20.0156 9.25781 20.0156 8.22656C20.0156 7.69922 19.5469 7.66406 18.9844 7.30078C18.4922 6.98438 18.2109 6.5625 17.7891 6.32812C17.6367 7.05469 17.0742 8.20312 16.1016 8.20312C15.4922 8.20312 15.0703 7.78125 14.7891 7.26562C14.3438 7.88672 14.1562 8.40234 12.9609 8.8125L8.12109 9.1875C7.99219 9.21094 7.88672 9.24609 7.81641 9.28125L7.39453 8.75391C6.70312 7.94531 5.64844 8.90625 6.31641 9.67969L6.78516 10.2422C6.5625 10.7812 6.43359 11.4258 6.43359 12.2461C6.43359 13.4883 6.33984 13.8516 5.96484 14.1562C5.09766 14.8359 4.75781 15.3047 4.75781 16.0898V17.168C4.75781 17.7773 5.17969 18.2109 5.76562 18.2109ZM18.082 8.29688C17.8594 8.29688 17.7188 8.14453 17.7188 7.94531C17.7188 7.73438 17.8594 7.58203 18.082 7.58203C18.2695 7.58203 18.4219 7.73438 18.4219 7.94531C18.4219 8.14453 18.2695 8.29688 18.082 8.29688ZM16.1016 7.69922C16.8984 7.69922 17.3203 6.33984 17.3203 5.96484C17.3203 5.625 17.1445 5.4375 16.793 5.4375H15.4102C15.0703 5.4375 14.8828 5.625 14.8828 5.96484C14.8828 6.33984 15.293 7.69922 16.1016 7.69922Z" fill="black" fill-opacity="0.85"/>
</svg>
