<svg width="27" height="24" viewBox="0 0 27 24" fill="none" xmlns="http://www.w3.org/2000/svg">
<path d="M14.2281 23.9062C20.7555 23.9062 26.1813 18.4805 26.1813 11.9531C26.1813 5.41406 20.7555 0 14.2281 0C7.68908 0 2.27502 5.40234 2.27502 11.9414H4.26721C4.26721 6.41016 8.69689 2.00391 14.2281 2.00391C19.7594 2.00391 24.1891 6.42188 24.1891 11.9531C24.1891 17.4844 19.7594 21.9375 14.2281 21.9141C10.8883 21.9023 7.95861 20.2852 6.16564 17.7891C5.80236 17.3086 5.25158 17.1562 4.75939 17.4492C4.29064 17.7422 4.16174 18.3867 4.56017 18.9023C6.78674 21.8906 10.2789 23.9062 14.2281 23.9062ZM0.833612 9.69141C-0.0101376 9.69141 -0.221075 10.2656 0.235956 10.9219L2.86096 14.6484C3.24767 15.1875 3.81017 15.1758 4.18517 14.6484L6.81017 10.9102C7.25549 10.2656 7.04455 9.69141 6.21252 9.69141H0.833612Z" fill="#007AFF"/>
<path d="M14.2043 17.7656C16.7121 17.7656 18.5285 16.3711 18.5285 14.4258C18.5285 12.7852 17.6262 11.9062 15.3879 11.3672L13.7121 10.957C12.4113 10.6289 11.8371 10.1719 11.8371 9.38672C11.8371 8.40234 12.7629 7.72266 14.1223 7.72266C15.3527 7.72266 16.091 8.25 16.5129 9.375C16.7004 9.78516 17.0168 9.97266 17.3449 9.97266C17.9543 9.97266 18.3059 9.43359 18.0949 8.73047C17.7668 7.48828 16.3488 6.17578 14.1223 6.17578C11.7434 6.17578 10.0441 7.54688 10.0441 9.45703C10.0441 11.0625 11.0637 12.0469 13.2199 12.5508L14.8957 12.9492C16.1965 13.2539 16.7004 13.6992 16.7004 14.5547C16.7004 15.5625 15.7277 16.2188 14.2043 16.2188C12.8449 16.2188 12.0129 15.7031 11.591 14.5898C11.4152 14.1914 11.0988 14.0039 10.7707 14.0039C10.1731 14.0039 9.85662 14.4844 9.98553 15.1875C10.2668 16.6289 11.9543 17.7656 14.2043 17.7656ZM13.5246 18.9141C13.5246 19.3008 13.841 19.6289 14.2277 19.6289C14.6145 19.6289 14.9426 19.3008 14.9426 18.9141V5.00391C14.9426 4.61719 14.6145 4.28906 14.2277 4.28906C13.841 4.28906 13.5246 4.61719 13.5246 5.00391V18.9141Z" fill="black" fill-opacity="0.85"/>
</svg>
