<svg width="22" height="22" viewBox="0 0 22 22" fill="none" xmlns="http://www.w3.org/2000/svg">
<path d="M3.67969 21.5977H17.8945C20.3555 21.5977 21.5742 20.3789 21.5742 17.9648V3.65625C21.5742 1.24219 20.3555 0.0234375 17.8945 0.0234375H3.67969C1.23047 0.0234375 0 1.23047 0 3.65625V17.9648C0 20.3906 1.23047 21.5977 3.67969 21.5977Z" fill="#FFCC00"/>
<path d="M10.793 17.6953C10.4648 17.6953 10.2188 17.4609 10.2188 17.1211V16.2539C8.60156 16.1016 7.25391 15.2109 6.91406 13.8164C6.87891 13.6992 6.85547 13.5703 6.85547 13.4414C6.85547 13.0195 7.14844 12.7266 7.55859 12.7266C7.92188 12.7266 8.17969 12.9141 8.30859 13.3359C8.50781 14.1328 9.14062 14.7422 10.2188 14.8945V11.332L10.1367 11.3086C8.12109 10.8281 7.08984 9.91406 7.08984 8.37891C7.08984 6.72656 8.39062 5.57812 10.2188 5.37891V4.54688C10.2188 4.20703 10.4648 3.97266 10.793 3.97266C11.1211 3.97266 11.3789 4.20703 11.3789 4.54688V5.37891C12.9258 5.55469 14.1562 6.45703 14.4727 7.75781C14.4961 7.88672 14.5312 8.01562 14.5312 8.13281C14.5312 8.55469 14.2266 8.84766 13.8164 8.84766C13.4297 8.84766 13.1953 8.61328 13.0781 8.25C12.832 7.44141 12.2344 6.92578 11.3789 6.77344V10.1367L11.5312 10.1719C13.6289 10.5469 14.6953 11.543 14.6953 13.1836C14.6953 15.0117 13.2422 16.1016 11.3789 16.2773V17.1211C11.3789 17.4609 11.1211 17.6953 10.793 17.6953ZM10.2188 9.83203V6.77344C9.19922 6.94922 8.58984 7.57031 8.58984 8.29688C8.58984 9.01172 9.07031 9.49219 10.1367 9.80859L10.2188 9.83203ZM11.3789 11.6133V14.8945C12.6094 14.7539 13.207 14.1094 13.207 13.2656C13.207 12.5039 12.7969 12 11.625 11.6836L11.3789 11.6133Z" fill="black" fill-opacity="0.85"/>
</svg>
