<svg width="16" height="24" viewBox="0 0 16 24" fill="none" xmlns="http://www.w3.org/2000/svg">
<path d="M6.1875 19.5586C8.49609 19.5586 10.2305 18.4805 11.0742 16.7578H11.1328V18.7734C11.1328 19.4062 11.5547 19.8164 12.1641 19.8164C12.7617 19.8164 13.1719 19.4062 13.1719 18.7734V1.08984C13.1719 0.410156 12.7383 0 12.1055 0C11.4727 0 11.0273 0.410156 11.0273 1.08984V8.75391H10.9805C10.2188 7.04297 8.49609 5.96484 6.1875 5.96484C2.85938 5.96484 0 8.53125 0 12.7617C0 16.9922 2.85938 19.5586 6.1875 19.5586ZM6.66797 17.6484C4.13672 17.6484 2.21484 15.7734 2.21484 12.7617C2.21484 9.76172 4.13672 7.88672 6.66797 7.88672C9.11719 7.88672 11.0508 9.87891 11.0508 12.7617C11.0508 15.6445 9.11719 17.6484 6.66797 17.6484ZM5.71875 3.03516C5.71875 3.44531 6.04688 3.78516 6.45703 3.78516H14.9883C15.3867 3.78516 15.7266 3.44531 15.7266 3.03516C15.7266 2.63672 15.3867 2.29688 14.9883 2.29688H6.45703C6.04688 2.29688 5.71875 2.63672 5.71875 3.03516ZM1.13672 22.0547C1.13672 22.4766 1.47656 22.8281 1.89844 22.8281H13.1133C13.5352 22.8281 13.875 22.4766 13.875 22.0547C13.875 21.6445 13.5352 21.293 13.1133 21.293H1.89844C1.47656 21.293 1.13672 21.6445 1.13672 22.0547Z" fill="black" fill-opacity="0.85"/>
</svg>
