<svg width="22" height="22" viewBox="0 0 22 22" fill="none" xmlns="http://www.w3.org/2000/svg">
<path d="M3.67969 21.5977H17.8945C20.3555 21.5977 21.5742 20.3789 21.5742 17.9648V3.65625C21.5742 1.24219 20.3555 0.0234375 17.8945 0.0234375H3.67969C1.23047 0.0234375 0 1.23047 0 3.65625V17.9648C0 20.3906 1.23047 21.5977 3.67969 21.5977ZM3.70312 19.7109C2.53125 19.7109 1.88672 19.0898 1.88672 17.8711V3.75C1.88672 2.53125 2.53125 1.91016 3.70312 1.91016H17.8711C19.0312 1.91016 19.6875 2.53125 19.6875 3.75V17.8711C19.6875 19.0898 19.0312 19.7109 17.8711 19.7109H3.70312Z" fill="#007AFF"/>
<path d="M6.60938 11.2148C6.60938 13.3594 8.03905 14.8594 9.94921 14.8594C10.9102 14.8594 11.7539 14.4844 12.2812 13.8164V14.2852C12.2812 14.707 12.5742 15 12.9961 15C13.4062 15 13.6875 14.707 13.6875 14.2852V6.70312H14.4375C14.7539 6.70312 14.9883 6.46875 14.9883 6.15234C14.9883 5.83594 14.7656 5.58984 14.4375 5.58984H13.6875V5.03906C13.6875 4.58203 13.3945 4.28906 12.9609 4.28906C12.5156 4.28906 12.2227 4.58203 12.2227 5.03906V5.58984H10.0898C9.76172 5.58984 9.55078 5.83594 9.55078 6.15234C9.55078 6.46875 9.77344 6.70312 10.0898 6.70312H12.2227V8.57812C11.7188 7.94531 10.8984 7.57031 9.9375 7.57031C8.02734 7.57031 6.60938 9.05859 6.60938 11.2148ZM8.10938 11.2266C8.10938 9.84375 8.95312 8.92969 10.1953 8.92969C11.3906 8.92969 12.2578 9.90234 12.2578 11.2266C12.2578 12.5625 11.3906 13.5234 10.1953 13.5234C8.95312 13.5234 8.10938 12.6211 8.10938 11.2266ZM7.20703 16.1953C7.20703 16.5117 7.45312 16.7695 7.76953 16.7695H13.4883C13.8047 16.7695 14.0508 16.5117 14.0508 16.1953C14.0508 15.8672 13.8164 15.6328 13.4883 15.6328H7.76953C7.44141 15.6328 7.20703 15.8789 7.20703 16.1953Z" fill="black" fill-opacity="0.85"/>
</svg>
