<svg width="29" height="25" viewBox="0 0 29 25" fill="none" xmlns="http://www.w3.org/2000/svg">
<path d="M0.9375 24.8672C1.46484 24.8672 1.88672 24.4453 1.88672 23.9297V2.50781C1.88672 2.13281 2.13281 1.88672 2.48438 1.88672H26.168C26.5195 1.88672 26.7656 2.13281 26.7656 2.50781V23.9297C26.7656 24.4453 27.1875 24.8672 27.7031 24.8672C28.2305 24.8672 28.6523 24.4453 28.6523 23.9297V2.39062C28.6523 0.960938 27.668 0 26.1914 0H2.44922C0.984375 0 0 0.960938 0 2.39062V23.9297C0 24.4453 0.421875 24.8672 0.9375 24.8672Z" fill="#007AFF"/>
<path d="M3.25781 23.9882C3.25781 24.2108 3.44531 24.4218 3.66797 24.3749L10.957 22.746C11.1797 22.6991 11.3672 22.5468 11.3672 22.3124V4.91005C11.3672 4.68739 11.1914 4.53505 10.9688 4.48817L3.65625 2.84755C3.44531 2.81239 3.25781 3.01161 3.25781 3.24598V23.9882ZM9.375 17.2851C9.53906 17.2733 9.65625 17.3671 9.65625 17.5429V21.1288C9.65625 21.3046 9.55078 21.3866 9.39844 21.4218L5.26172 22.2421C5.10938 22.2772 4.99219 22.1952 4.99219 22.0077V17.871C4.99219 17.6952 5.10938 17.5897 5.26172 17.578L9.375 17.2851ZM4.99219 15.8202V11.414C4.99219 11.2265 5.10938 11.1327 5.26172 11.1444L9.38672 11.3671C9.55078 11.3788 9.65625 11.4843 9.65625 11.6601V15.5741C9.65625 15.7499 9.53906 15.8437 9.38672 15.8554L5.26172 16.0897C5.09766 16.1015 4.99219 15.996 4.99219 15.8202ZM9.38672 9.94911L5.25 9.64442C5.09766 9.6327 4.99219 9.56239 4.99219 9.37489V5.21473C4.99219 5.02723 5.10938 4.9452 5.26172 4.98036L9.38672 5.76551C9.53906 5.78895 9.65625 5.87098 9.65625 6.05848V9.65614C9.65625 9.83192 9.55078 9.96083 9.38672 9.94911ZM25.3945 23.9882V3.24598C25.3945 3.01161 25.207 2.81239 24.9961 2.84755L17.6836 4.48817C17.4609 4.53505 17.2852 4.68739 17.2852 4.91005V22.3124C17.2852 22.5468 17.4609 22.6991 17.6953 22.746L24.9844 24.3749C25.207 24.4218 25.3945 24.2108 25.3945 23.9882ZM19.2773 17.2851L23.3789 17.578C23.543 17.5897 23.6602 17.6952 23.6602 17.871V22.0077C23.6602 22.1952 23.543 22.2772 23.3906 22.2421L19.2539 21.4218C19.1016 21.3866 18.9961 21.3046 18.9961 21.1288V17.5429C18.9961 17.3671 19.1133 17.2733 19.2773 17.2851ZM23.6602 15.8202C23.6602 15.996 23.5547 16.1015 23.3906 16.0897L19.2656 15.8554C19.1016 15.8437 18.9961 15.7499 18.9961 15.5741V11.6601C18.9961 11.4843 19.1016 11.3788 19.2656 11.3671L23.3906 11.1444C23.543 11.1327 23.6602 11.2265 23.6602 11.414V15.8202ZM19.2656 9.94911C19.1016 9.96083 18.9961 9.83192 18.9961 9.65614V6.05848C18.9961 5.87098 19.1133 5.78895 19.2656 5.76551L23.3906 4.98036C23.5312 4.9452 23.6602 5.02723 23.6602 5.21473V9.37489C23.6602 9.56239 23.5547 9.6327 23.4023 9.64442L19.2656 9.94911Z" fill="black" fill-opacity="0.85"/>
</svg>
