<svg width="18" height="25" viewBox="0 0 18 25" fill="none" xmlns="http://www.w3.org/2000/svg">
<path d="M17.8594 23.9297V2.39062C17.8594 0.960938 16.8867 0 15.4102 0H2.44922C0.984375 0 0 0.960938 0 2.39062V23.9297C0 24.4453 0.421875 24.8672 0.9375 24.8672C1.46484 24.8672 1.88672 24.4453 1.88672 23.9297V2.50781C1.88672 2.13281 2.13281 1.88672 2.48438 1.88672H15.375C15.7266 1.88672 15.9727 2.13281 15.9727 2.50781V23.9297C15.9727 24.4453 16.3945 24.8672 16.9219 24.8672C17.4375 24.8672 17.8594 24.4453 17.8594 23.9297Z" fill="#007AFF"/>
<path d="M14.6016 24.1992V3.50393C14.6016 3.26955 14.4141 3.15236 14.1914 3.24611L10.5 4.88674C10.2188 5.00393 10.1016 5.1094 10.1016 5.40236V22.2891C10.1016 22.5938 10.2188 22.6875 10.5117 22.8164L14.1914 24.4453C14.4141 24.5391 14.6016 24.4219 14.6016 24.1992Z" fill="black" fill-opacity="0.85"/>
</svg>
