<svg width="18" height="25" viewBox="0 0 18 25" fill="none" xmlns="http://www.w3.org/2000/svg">
<path d="M0 23.9297C0 24.4453 0.421875 24.8672 0.9375 24.8672C1.46484 24.8672 1.88672 24.4453 1.88672 23.9297V2.50781C1.88672 2.13281 2.13281 1.88672 2.48438 1.88672H15.375C15.7266 1.88672 15.9727 2.13281 15.9727 2.50781V23.9297C15.9727 24.4453 16.3945 24.8672 16.9219 24.8672C17.4375 24.8672 17.8594 24.4453 17.8594 23.9297V2.39062C17.8594 0.960938 16.8867 0 15.4102 0H2.44922C0.984375 0 0 0.960938 0 2.39062V23.9297Z" fill="#007AFF"/>
<path d="M3.25781 24.1991C3.25781 24.4218 3.44531 24.539 3.66797 24.4452L7.34766 22.8163C7.64062 22.6874 7.75781 22.5937 7.75781 22.289V5.40224C7.75781 5.10928 7.64062 5.00381 7.35938 4.88662L3.66797 3.24599C3.44531 3.15224 3.25781 3.26943 3.25781 3.50381V24.1991Z" fill="black" fill-opacity="0.85"/>
</svg>
