<svg width="35" height="25" viewBox="0 0 35 25" fill="none" xmlns="http://www.w3.org/2000/svg">
<path d="M0.9375 24.8672C1.46484 24.8672 1.88672 24.4453 1.88672 23.9297V2.50781C1.88672 2.13281 2.13281 1.88672 2.48438 1.88672H31.7578C32.1094 1.88672 32.3555 2.13281 32.3555 2.50781V23.9297C32.3555 24.4453 32.7773 24.8672 33.3047 24.8672C33.8203 24.8672 34.2422 24.4453 34.2422 23.9297V2.39062C34.2422 0.960938 33.2695 0 31.793 0H2.44922C0.984375 0 0 0.960938 0 2.39062V23.9297C0 24.4453 0.421875 24.8672 0.9375 24.8672Z" fill="#007AFF"/>
<path d="M3.65625 24.457H30.5977C30.8086 24.457 30.9844 24.2695 30.9844 24.0586V3.64453C30.9844 3.42188 30.8086 3.24609 30.5977 3.24609H3.65625C3.43359 3.24609 3.25781 3.42188 3.25781 3.64453V24.0586C3.25781 24.2695 3.43359 24.457 3.65625 24.457ZM5.26172 9.70312C5.02734 9.70312 4.85156 9.52734 4.85156 9.29297V5.14453C4.85156 4.91016 5.02734 4.72266 5.26172 4.72266H9.49219C9.72656 4.72266 9.91406 4.91016 9.91406 5.14453V9.29297C9.91406 9.52734 9.72656 9.70312 9.49219 9.70312H5.26172ZM11.7891 9.70312C11.5547 9.70312 11.3672 9.52734 11.3672 9.29297V5.14453C11.3672 4.91016 11.5547 4.72266 11.7891 4.72266H16.0078C16.2422 4.72266 16.4297 4.91016 16.4297 5.14453V9.29297C16.4297 9.52734 16.2422 9.70312 16.0078 9.70312H11.7891ZM18.293 9.70312C18.0586 9.70312 17.8828 9.52734 17.8828 9.29297V5.14453C17.8828 4.91016 18.0586 4.72266 18.293 4.72266H22.5C22.7227 4.72266 22.9102 4.91016 22.9102 5.14453V9.29297C22.9102 9.52734 22.7227 9.70312 22.5938 9.70312H18.293ZM24.7734 9.70312C24.5391 9.70312 24.3633 9.52734 24.3633 9.29297V5.14453C24.3633 4.91016 24.5391 4.72266 24.7734 4.72266H28.9805C29.2148 4.72266 29.3906 4.91016 29.3906 5.14453V9.29297C29.3906 9.52734 29.2148 9.70312 29.0742 9.70312H24.7734ZM14.6016 22.4766C14.2617 22.4766 14.0273 22.2422 14.0273 21.9141C14.0273 21.5742 14.2617 21.3398 14.6016 21.3398H19.6523C19.9805 21.3398 20.2148 21.5742 20.2148 21.9141C20.2148 22.2422 19.9805 22.4766 19.6523 22.4766H14.6016Z" fill="black" fill-opacity="0.85"/>
</svg>
