<svg width="29" height="25" viewBox="0 0 29 25" fill="none" xmlns="http://www.w3.org/2000/svg">
<path d="M0.9375 24.8672C1.46484 24.8672 1.88672 24.4453 1.88672 23.9297V2.50781C1.88672 2.13281 2.13281 1.88672 2.48438 1.88672H26.168C26.5195 1.88672 26.7656 2.13281 26.7656 2.50781V23.9297C26.7656 24.4453 27.1875 24.8672 27.7031 24.8672C28.2305 24.8672 28.6523 24.4453 28.6523 23.9297V2.39062C28.6523 0.960938 27.668 0 26.1914 0H2.44922C0.984375 0 0 0.960938 0 2.39062V23.9297C0 24.4453 0.421875 24.8672 0.9375 24.8672Z" fill="#007AFF"/>
<path d="M3.65625 24.457H13.2422C13.4648 24.457 13.6406 24.2695 13.6406 24.0586V3.64453C13.6406 3.42188 13.4648 3.24609 13.2422 3.24609H3.65625C3.43359 3.24609 3.25781 3.42188 3.25781 3.64453V24.0586C3.25781 24.2695 3.43359 24.457 3.65625 24.457ZM5.90625 15.6914C5.57812 15.6914 5.34375 15.457 5.34375 15.1172V13.0664C5.34375 12.7266 5.57812 12.5039 5.90625 12.5039C6.24609 12.5039 6.48047 12.7266 6.48047 13.0664V15.1172C6.48047 15.457 6.24609 15.6914 5.90625 15.6914ZM15.3984 24.457H24.9961C25.2188 24.457 25.3945 24.2695 25.3945 24.0586V3.64453C25.3945 3.42188 25.2188 3.24609 24.9961 3.24609H15.3984C15.1875 3.24609 15.0117 3.42188 15.0117 3.64453V24.0586C15.0117 24.2695 15.1875 24.457 15.3984 24.457Z" fill="black" fill-opacity="0.85"/>
</svg>
