<svg width="35" height="25" viewBox="0 0 35 25" fill="none" xmlns="http://www.w3.org/2000/svg">
<path d="M0.9375 24.8672C1.46484 24.8672 1.88672 24.4453 1.88672 23.9297V2.50781C1.88672 2.13281 2.13281 1.88672 2.48438 1.88672H31.7578C32.1094 1.88672 32.3555 2.13281 32.3555 2.50781V23.9297C32.3555 24.4453 32.7773 24.8672 33.3047 24.8672C33.8203 24.8672 34.2422 24.4453 34.2422 23.9297V2.39062C34.2422 0.960938 33.2695 0 31.793 0H2.44922C0.984375 0 0 0.960938 0 2.39062V23.9297C0 24.4453 0.421875 24.8672 0.9375 24.8672Z" fill="#007AFF"/>
<path d="M3.65625 8.22656H30.5977C30.8086 8.22656 30.9844 8.05078 30.9844 7.83984V3.64453C30.9844 3.42188 30.8086 3.24609 30.5977 3.24609H3.65625C3.43359 3.24609 3.25781 3.42188 3.25781 3.64453V7.83984C3.25781 8.05078 3.43359 8.22656 3.65625 8.22656ZM14.6016 6.30469C14.2617 6.30469 14.0273 6.07031 14.0273 5.74219C14.0273 5.40234 14.2617 5.16797 14.6016 5.16797H19.6523C19.9805 5.16797 20.2148 5.40234 20.2148 5.74219C20.2148 6.07031 19.9805 6.30469 19.6523 6.30469H14.6016Z" fill="black" fill-opacity="0.85"/>
</svg>
