<svg width="29" height="25" viewBox="0 0 29 25" fill="none" xmlns="http://www.w3.org/2000/svg">
<path d="M0.9375 24.8672C1.46484 24.8672 1.88672 24.4453 1.88672 23.9297V2.50781C1.88672 2.13281 2.13281 1.88672 2.48438 1.88672H26.168C26.5195 1.88672 26.7656 2.13281 26.7656 2.50781V23.9297C26.7656 24.4453 27.1875 24.8672 27.7031 24.8672C28.2305 24.8672 28.6523 24.4453 28.6523 23.9297V2.39062C28.6523 0.960938 27.668 0 26.1914 0H2.44922C0.984375 0 0 0.960938 0 2.39062V23.9297C0 24.4453 0.421875 24.8672 0.9375 24.8672Z" fill="#007AFF"/>
<path d="M3.65625 8.22656H24.9961C25.2188 8.22656 25.3945 8.05078 25.3945 7.83984V3.64453C25.3945 3.42188 25.2188 3.24609 24.9961 3.24609H3.65625C3.43359 3.24609 3.25781 3.42188 3.25781 3.64453V7.83984C3.25781 8.05078 3.43359 8.22656 3.65625 8.22656ZM12.0352 6.30469C11.6953 6.30469 11.4727 6.07031 11.4727 5.74219C11.4727 5.40234 11.6953 5.16797 12.0352 5.16797H16.6172C16.957 5.16797 17.1797 5.40234 17.1797 5.74219C17.1797 6.07031 16.957 6.30469 16.6172 6.30469H12.0352Z" fill="black" fill-opacity="0.85"/>
</svg>
