<svg width="31" height="22" viewBox="0 0 31 22" fill="none" xmlns="http://www.w3.org/2000/svg">
<path d="M0 10.5264C0 14.4522 1.47656 18.0499 4.03125 20.7217C4.45312 21.1671 5.02734 21.1202 5.35547 20.7452C5.69531 20.3819 5.625 19.8428 5.22656 19.4327C2.97656 17.0889 1.75781 13.9483 1.75781 10.5264C1.75781 7.1045 2.97656 3.96388 5.22656 1.62013C5.625 1.19825 5.69531 0.670914 5.35547 0.295914C5.02734 -0.0673669 4.45312 -0.114242 4.03125 0.33107C1.47656 3.00294 0 6.6006 0 10.5264ZM30.5273 10.5264C30.5273 6.6006 29.0508 3.00294 26.4961 0.33107C26.0742 -0.114242 25.5 -0.0673669 25.1719 0.295914C24.832 0.670914 24.9023 1.19825 25.3008 1.62013C27.5391 3.96388 28.7695 7.1045 28.7695 10.5264C28.7695 13.9483 27.5391 17.0889 25.3008 19.4327C24.9023 19.8428 24.832 20.3819 25.1719 20.7452C25.5 21.1202 26.0742 21.1671 26.4961 20.7217C29.0508 18.0499 30.5273 14.4522 30.5273 10.5264Z" fill="#007AFF"/>
<path d="M4.19531 10.5265C4.19531 13.3039 5.19141 15.8937 6.98438 17.8273C7.39453 18.2843 7.99219 18.2961 8.34375 17.8859C8.68359 17.4992 8.58984 16.9953 8.19141 16.5617C6.73828 14.9328 5.94141 12.8234 5.94141 10.5265C5.94141 8.22962 6.73828 6.12025 8.19141 4.49134C8.58984 4.05775 8.68359 3.55384 8.34375 3.15541C7.99219 2.75697 7.39453 2.75697 6.98438 3.214C5.19141 5.15931 4.19531 7.73744 4.19531 10.5265ZM26.332 10.5265C26.332 7.73744 25.3359 5.15931 23.543 3.214C23.1328 2.75697 22.5352 2.75697 22.1836 3.15541C21.832 3.55384 21.9375 4.05775 22.3242 4.49134C23.7891 6.12025 24.5859 8.22962 24.5859 10.5265C24.5859 12.8234 23.7891 14.9328 22.3242 16.5617C21.9375 16.9953 21.832 17.4992 22.1836 17.8859C22.5352 18.2961 23.1328 18.2843 23.543 17.8273C25.3359 15.8937 26.332 13.3039 26.332 10.5265Z" fill="#007AFF"/>
<path d="M8.37891 10.5263C8.37891 12.0966 8.91797 13.5732 9.85547 14.7334C10.2422 15.2255 10.8867 15.2255 11.2383 14.8271C11.5898 14.4287 11.4375 13.9599 11.0977 13.4795C10.4648 12.6826 10.1367 11.6513 10.1367 10.5263C10.1367 9.40135 10.4648 8.3701 11.0977 7.56151C11.4375 7.09276 11.5898 6.62401 11.2383 6.22557C10.8867 5.82713 10.2422 5.82713 9.85547 6.3076C8.91797 7.46776 8.37891 8.94432 8.37891 10.5263ZM22.1484 10.5263C22.1484 8.94432 21.6094 7.46776 20.6719 6.3076C20.2852 5.82713 19.6406 5.82713 19.2891 6.22557C18.9375 6.62401 19.0781 7.09276 19.4297 7.56151C20.0625 8.3701 20.3906 9.40135 20.3906 10.5263C20.3906 11.6513 20.0625 12.6826 19.4297 13.4795C19.0781 13.9599 18.9375 14.4287 19.2891 14.8271C19.6406 15.2255 20.2852 15.2255 20.6719 14.7334C21.6094 13.5732 22.1484 12.0966 22.1484 10.5263Z" fill="#007AFF"/>
<path d="M13.125 10.5498C13.125 11.6865 14.1211 12.6474 15.2812 12.6474C16.4414 12.6474 17.3906 11.6865 17.3906 10.5263C17.3906 9.35448 16.4531 8.39355 15.2812 8.39355C14.0977 8.39355 13.125 9.37793 13.125 10.5498Z" fill="black" fill-opacity="0.85"/>
</svg>
