<svg width="20" height="23" viewBox="0 0 20 23" fill="none" xmlns="http://www.w3.org/2000/svg">
<path d="M13.2534 22.6612C13.6167 23.0596 14.2495 23.1065 14.6948 22.6378C17.4839 19.7198 19.0893 15.8057 19.0893 11.5284C19.0893 7.25104 17.5073 3.30182 14.6948 0.407286C14.2495 -0.0614641 13.6167 -0.0145891 13.2534 0.383848C12.8901 0.794005 12.9722 1.36822 13.394 1.81354C15.8433 4.33307 17.1792 7.76666 17.1792 11.5284C17.1792 15.2901 15.8198 18.6885 13.394 21.2315C12.9722 21.6768 12.8901 22.2628 13.2534 22.6612Z" fill="#007AFF"/>
<path d="M9.86758 19.544C10.2426 19.9776 10.8988 19.9776 11.3559 19.4854C13.3012 17.376 14.391 14.5635 14.391 11.5284C14.391 8.49326 13.3129 5.66904 11.3559 3.57139C10.8988 3.06748 10.2426 3.06748 9.86758 3.51279C9.49258 3.93467 9.60977 4.48545 10.0316 4.96592C11.6137 6.70029 12.4809 8.99717 12.4809 11.5284C12.4809 14.0479 11.602 16.3448 10.0316 18.0909C9.60977 18.5713 9.49258 19.1104 9.86758 19.544Z" fill="#007AFF"/>
<path d="M6.58552 16.2041C6.97224 16.6377 7.67536 16.6494 8.08552 16.122C9.10505 14.8564 9.7027 13.2509 9.7027 11.5283C9.7027 9.80564 9.10505 8.18846 8.08552 6.93455C7.67536 6.39549 6.97224 6.40721 6.58552 6.85252C6.21052 7.27439 6.37458 7.79002 6.73786 8.30564C7.42927 9.18455 7.79255 10.3095 7.79255 11.5283C7.79255 12.747 7.44099 13.872 6.73786 14.7509C6.36286 15.2548 6.21052 15.7822 6.58552 16.2041Z" fill="#007AFF"/>
<path d="M0 11.5048C0 12.6416 0.984375 13.6025 2.14453 13.6025C3.30469 13.6025 4.26562 12.6416 4.26562 11.4814C4.26562 10.3095 3.32812 9.34863 2.14453 9.34863C0.972656 9.34863 0 10.333 0 11.5048Z" fill="black" fill-opacity="0.85"/>
</svg>
