<svg width="26" height="26" viewBox="0 0 26 26" fill="none" xmlns="http://www.w3.org/2000/svg">
<path d="M5.40234 17.4141C6.67969 17.4141 7.08984 17.2734 7.89844 16.4648L10.1719 14.1914C10.9922 13.3711 10.9922 12.2461 10.1719 11.4258L7.89844 9.15234C7.08984 8.34375 6.67969 8.19141 5.40234 8.19141H2.46094C0.960938 8.19141 0 9.05859 0 10.3945V15.2227C0 16.5469 0.960938 17.4141 2.46094 17.4141H5.40234ZM8.20312 5.41406C8.20312 6.67969 8.35547 7.08984 9.16406 7.89844L11.4375 10.1719C12.2578 10.9922 13.3828 10.9922 14.2031 10.1719L16.4766 7.89844C17.2852 7.08984 17.4258 6.67969 17.4258 5.41406V2.46094C17.4258 0.960938 16.5586 0 15.2227 0H10.4062C9.07031 0 8.20312 0.960938 8.20312 2.46094V5.41406ZM20.2148 8.20312C18.9375 8.20312 18.5273 8.34375 17.7188 9.15234L15.4453 11.4258C14.625 12.2461 14.625 13.3711 15.4453 14.1914L17.7188 16.4648C18.5273 17.2734 18.9375 17.4258 20.2148 17.4258H23.1562C24.6562 17.4258 25.6172 16.5586 25.6172 15.2227V10.3945C25.6172 9.07031 24.6562 8.20312 23.1562 8.20312H20.2148ZM17.4258 20.2031C17.4258 18.9375 17.2734 18.5273 16.4648 17.7188L14.1914 15.4336C13.3711 14.625 12.2461 14.625 11.4258 15.4336L9.15234 17.7188C8.34375 18.5273 8.20312 18.9375 8.20312 20.2031V23.1562C8.20312 24.6562 9.07031 25.6055 10.4062 25.6055H15.2227C16.5586 25.6055 17.4258 24.6562 17.4258 23.1562V20.2031Z" fill="black" fill-opacity="0.85"/>
</svg>
