<svg width="21" height="30" viewBox="0 0 21 30" fill="none" xmlns="http://www.w3.org/2000/svg">
<path d="M8.12109 26.6367C12.9961 26.6367 16.2422 23.4609 16.2422 18.7031C16.2422 16.3594 15.3281 14.0273 14.6367 12.4688C13.3828 9.64453 11.4141 6.53906 9.70312 3.89062C9.29297 3.26953 8.8125 2.90625 8.12109 2.90625C7.42969 2.90625 6.94922 3.26953 6.53906 3.89062C4.82812 6.53906 2.85938 9.64453 1.60547 12.4688C0.925781 14.0273 0 16.3594 0 18.7031C0 23.4609 3.24609 26.6367 8.12109 26.6367ZM8.12109 24.7148C4.39453 24.7148 1.92188 22.3125 1.92188 18.7031C1.92188 16.7812 2.66016 14.918 3.31641 13.3945C4.62891 10.3125 6.36328 7.78125 8.00391 5.30859C8.08594 5.19141 8.17969 5.19141 8.25 5.30859C9.87891 7.78125 11.625 10.3125 12.9141 13.3828C13.582 14.918 14.332 16.7812 14.332 18.7031C14.332 22.3125 11.8477 24.7148 8.12109 24.7148ZM16.4648 7.16016C18.4688 7.16016 20.0391 5.58984 20.0391 3.58594C20.0391 1.57031 18.4688 0 16.4648 0C14.4492 0 12.8789 1.57031 12.8789 3.58594C12.8789 5.58984 14.4492 7.16016 16.4648 7.16016ZM16.4648 5.50781C15.3867 5.50781 14.5312 4.66406 14.5312 3.58594C14.5312 2.49609 15.3867 1.65234 16.4648 1.65234C17.543 1.65234 18.3867 2.49609 18.3867 3.58594C18.3867 4.66406 17.543 5.50781 16.4648 5.50781Z" fill="black" fill-opacity="0.85"/>
</svg>
