<svg width="26" height="20" viewBox="0 0 26 20" fill="none" xmlns="http://www.w3.org/2000/svg">
<path d="M3.67969 19.0195H22.0898C24.5391 19.0195 25.7578 17.8008 25.7578 15.3867V3.65625C25.7578 1.24219 24.5391 0.0234375 22.0898 0.0234375H3.67969C1.23047 0.0234375 0 1.24219 0 3.65625V15.3867C0 17.8008 1.23047 19.0195 3.67969 19.0195Z" fill="#FFCC00"/>
<path d="M8.35547 14.8477C6.16406 14.8477 4.6875 13.418 4.6875 11.2969C4.6875 10.2305 5.12109 9.30469 5.44922 8.58984C6.03516 7.33594 6.98438 5.77734 7.79297 4.51172C7.96875 4.26562 8.13281 4.16016 8.35547 4.16016C8.56641 4.16016 8.73047 4.26562 8.90625 4.51172C9.72656 5.77734 10.6758 7.33594 11.25 8.58984C11.5781 9.30469 12.0234 10.2305 12.0234 11.2969C12.0234 13.418 10.5469 14.8477 8.35547 14.8477ZM15.8906 7.18359C15.1055 7.18359 14.4727 6.53906 14.4727 5.76562C14.4727 4.99219 15.1055 4.34766 15.8906 4.34766C16.6641 4.34766 17.3086 4.99219 17.3086 5.76562C17.3086 6.53906 16.6641 7.18359 15.8906 7.18359ZM20.0508 7.18359C19.2773 7.18359 18.6328 6.53906 18.6328 5.76562C18.6328 4.99219 19.2773 4.34766 20.0508 4.34766C20.8242 4.34766 21.4688 4.99219 21.4688 5.76562C21.4688 6.53906 20.8242 7.18359 20.0508 7.18359ZM15.8906 10.9219C15.1055 10.9219 14.4727 10.2773 14.4727 9.50391C14.4727 8.73047 15.1055 8.08594 15.8906 8.08594C16.6641 8.08594 17.3086 8.73047 17.3086 9.50391C17.3086 10.2773 16.6641 10.9219 15.8906 10.9219ZM20.0508 10.9219C19.2773 10.9219 18.6328 10.2773 18.6328 9.50391C18.6328 8.73047 19.2773 8.08594 20.0508 8.08594C20.8242 8.08594 21.4688 8.73047 21.4688 9.50391C21.4688 10.2773 20.8242 10.9219 20.0508 10.9219ZM15.8906 14.6602C15.1055 14.6602 14.4727 14.0156 14.4727 13.2422C14.4727 12.4688 15.1055 11.8242 15.8906 11.8242C16.6641 11.8242 17.3086 12.4688 17.3086 13.2422C17.3086 14.0156 16.6641 14.6602 15.8906 14.6602ZM20.0508 14.6602C19.2773 14.6602 18.6328 14.0156 18.6328 13.2422C18.6328 12.4688 19.2773 11.8242 20.0508 11.8242C20.8242 11.8242 21.4688 12.4688 21.4688 13.2422C21.4688 14.0156 20.8242 14.6602 20.0508 14.6602Z" fill="black" fill-opacity="0.85"/>
</svg>
