<svg width="24" height="24" viewBox="0 0 24 24" fill="none" xmlns="http://www.w3.org/2000/svg">
<path d="M11.9531 23.9062C18.4922 23.9062 23.9062 18.4805 23.9062 11.9531C23.9062 5.41406 18.4805 0 11.9414 0C5.41406 0 0 5.41406 0 11.9531C0 18.4805 5.42578 23.9062 11.9531 23.9062Z" fill="#FFCC00"/>
<path d="M11.9531 17.8711C9.48047 17.8711 7.79297 16.2656 7.79297 13.8633C7.79297 12.668 8.30859 11.6016 8.66016 10.793C9.32812 9.37501 10.3945 7.59375 11.332 6.17578C11.5195 5.89453 11.707 5.76562 11.9531 5.76562C12.1992 5.76562 12.3984 5.89453 12.5742 6.17578C13.5117 7.59375 14.5898 9.37501 15.2461 10.793C15.5977 11.6016 16.1133 12.668 16.1133 13.8633C16.1133 16.2656 14.4258 17.8711 11.9531 17.8711Z" fill="black" fill-opacity="0.85"/>
</svg>
