<svg width="25" height="23" viewBox="0 0 25 23" fill="none" xmlns="http://www.w3.org/2000/svg">
<path d="M3.19922 22.2656H21.3633C23.3555 22.2656 24.5625 20.8828 24.5625 19.0898C24.5625 18.5391 24.3984 17.9648 24.1055 17.4492L15.0117 1.60547C14.4023 0.539062 13.3594 0 12.2812 0C11.2031 0 10.1484 0.539062 9.55078 1.60547L0.457031 17.4492C0.140625 17.9766 0 18.5391 0 19.0898C0 20.8828 1.20703 22.2656 3.19922 22.2656Z" fill="#FFCC00"/>
<path d="M12.2812 17.8945C10.2539 17.8945 8.88281 16.5703 8.88281 14.6016C8.88281 13.6289 9.29297 12.75 9.59766 12.1055C10.1367 10.9336 11.0273 9.49219 11.7773 8.32031C11.918 8.09766 12.082 7.99219 12.2812 7.99219C12.4922 7.99219 12.6445 8.09766 12.7852 8.32031C13.5469 9.49219 14.4375 10.9336 14.9648 12.1055C15.2695 12.75 15.6797 13.6289 15.6797 14.6016C15.6797 16.5703 14.3203 17.8945 12.2812 17.8945Z" fill="black" fill-opacity="0.85"/>
</svg>
