<svg width="24" height="24" viewBox="0 0 24 24" fill="none" xmlns="http://www.w3.org/2000/svg">
<path d="M11.9531 23.9062C18.4922 23.9062 23.9062 18.4805 23.9062 11.9531C23.9062 5.41406 18.4805 0 11.9414 0C5.41406 0 0 5.41406 0 11.9531C0 18.4805 5.42578 23.9062 11.9531 23.9062ZM11.9531 21.9141C6.42188 21.9141 2.00391 17.4844 2.00391 11.9531C2.00391 6.42188 6.41016 1.99219 11.9414 1.99219C17.4727 1.99219 21.9141 6.42188 21.9141 11.9531C21.9141 17.4844 17.4844 21.9141 11.9531 21.9141Z" fill="#007AFF"/>
<path d="M11.9414 17.6953C14.3438 17.6953 15.9727 16.1367 15.9727 13.8047C15.9727 12.6445 15.4805 11.6133 15.1289 10.8164C14.4961 9.44531 13.4531 7.72266 12.5391 6.33984C12.375 6.07031 12.1758 5.95312 11.9414 5.95312C11.707 5.95312 11.5195 6.07031 11.3438 6.33984C10.4297 7.72266 9.39844 9.44531 8.75391 10.8164C8.40234 11.6133 7.91016 12.6445 7.91016 13.8047C7.91016 16.1367 9.53906 17.6953 11.9414 17.6953Z" fill="black" fill-opacity="0.85"/>
</svg>
