<svg width="27" height="27" viewBox="0 0 27 27" fill="none" xmlns="http://www.w3.org/2000/svg">
<path d="M13.1953 24.5247C13.5 24.5247 13.793 24.4895 14.1094 24.4661L14.7773 25.7551C14.918 26.0129 15.1641 26.1536 15.4922 26.1067C15.7852 26.0481 15.9844 25.8372 16.0312 25.5208L16.2305 24.1028C16.8164 23.9504 17.3906 23.7278 17.9414 23.4817L18.9961 24.4309C19.2188 24.6418 19.5 24.6887 19.793 24.5247C20.0508 24.384 20.1562 24.1028 20.0977 23.7981L19.8047 22.3918C20.2969 22.052 20.7773 21.6653 21.2109 21.2317L22.5117 21.7825C22.8047 21.9114 23.0859 21.8411 23.3086 21.5715C23.5078 21.3606 23.5195 21.0559 23.3555 20.7981L22.5938 19.5793C22.9453 19.0872 23.2266 18.5598 23.4961 17.9973L24.9375 18.0676C25.2422 18.0793 25.4883 17.9153 25.5938 17.6223C25.6875 17.3293 25.6055 17.0481 25.3594 16.8606L24.2344 15.97C24.3867 15.4075 24.5039 14.7981 24.5625 14.1653L25.9102 13.7434C26.2148 13.6379 26.3906 13.4153 26.3906 13.0989C26.3906 12.7942 26.2148 12.5598 25.9102 12.4661L24.5625 12.0325C24.5039 11.3997 24.3867 10.8137 24.2344 10.2395L25.3594 9.33713C25.5938 9.16135 25.6875 8.89181 25.5938 8.59885C25.4883 8.30588 25.2422 8.14181 24.9375 8.15353L23.4961 8.21213C23.2266 7.64963 22.9453 7.12228 22.5938 6.6301L23.3555 5.41135C23.5195 5.16525 23.4961 4.86056 23.3086 4.64963C23.0859 4.3801 22.8047 4.3215 22.5117 4.43869L21.2109 4.96603C20.7773 4.55588 20.2969 4.15744 19.8047 3.8176L20.0977 2.42306C20.168 2.10666 20.0508 1.82541 19.793 1.68478C19.5 1.53244 19.2188 1.55588 18.9961 1.79025L17.9414 2.71603C17.3906 2.46994 16.8164 2.27072 16.2305 2.10666L16.0312 0.688689C15.9844 0.384001 15.7734 0.161345 15.4805 0.11447C15.1641 0.0675948 14.9062 0.196501 14.7773 0.454314L14.1094 1.74338C13.793 1.71994 13.5 1.6965 13.1953 1.6965C12.8789 1.6965 12.5977 1.71994 12.2812 1.74338L11.6016 0.454314C11.4727 0.196501 11.2148 0.0675948 10.8984 0.11447C10.6055 0.161345 10.3945 0.384001 10.3594 0.688689L10.1484 2.09494C9.5625 2.27072 9 2.46994 8.4375 2.71603L7.38281 1.79025C7.16016 1.55588 6.87891 1.53244 6.58594 1.68478C6.32812 1.82541 6.21094 2.10666 6.28125 2.42306L6.57422 3.8176C6.09375 4.15744 5.60156 4.55588 5.16797 4.96603L3.86719 4.43869C3.57422 4.3215 3.30469 4.3801 3.08203 4.64963C2.88281 4.86056 2.87109 5.16525 3.02344 5.39963L3.78516 6.6301C3.44531 7.12228 3.15234 7.64963 2.88281 8.21213L1.45312 8.15353C1.14844 8.14181 0.890625 8.30588 0.785156 8.59885C0.691406 8.89181 0.785156 9.14963 1.01953 9.33713L2.14453 10.2395C1.99219 10.8137 1.875 11.3997 1.83984 12.0325L0.46875 12.4661C0.164062 12.5598 0 12.7825 0 13.0989C0 13.4153 0.164062 13.6379 0.46875 13.7434L1.83984 14.177C1.875 14.7981 1.99219 15.4075 2.14453 15.97L1.01953 16.8606C0.785156 17.0481 0.703125 17.3293 0.785156 17.6223C0.890625 17.9153 1.14844 18.0793 1.45312 18.0676L2.88281 17.9973C3.15234 18.5598 3.44531 19.0872 3.78516 19.5793L3.02344 20.7981C2.85938 21.0559 2.88281 21.3606 3.08203 21.5715C3.30469 21.8411 3.57422 21.9114 3.86719 21.7825L5.16797 21.2317C5.60156 21.6653 6.09375 22.052 6.57422 22.3918L6.28125 23.7981C6.22266 24.1028 6.32812 24.384 6.58594 24.5247C6.87891 24.6887 7.16016 24.6418 7.38281 24.4309L8.4375 23.4817C9 23.7278 9.5625 23.9504 10.1484 24.1028L10.3594 25.5208C10.3945 25.8372 10.6055 26.0481 10.8984 26.1067C11.2148 26.1536 11.4609 26.0129 11.6016 25.7551L12.2812 24.4661C12.5859 24.4895 12.8789 24.5247 13.1953 24.5247ZM13.1953 22.7434C7.82812 22.7434 3.67969 18.4661 3.67969 13.1106C3.67969 7.7551 7.82812 3.47775 13.1953 3.47775C18.5625 3.47775 22.7109 7.7551 22.7109 13.1106C22.7109 18.4661 18.5625 22.7434 13.1953 22.7434Z" fill="#007AFF"/>
<path d="M13.1953 18.7942C15.5977 18.7942 17.2266 17.2356 17.2266 14.9036C17.2266 13.7434 16.7344 12.7122 16.3828 11.9153C15.75 10.5442 14.707 8.82153 13.793 7.43872C13.6172 7.16919 13.4297 7.052 13.1953 7.052C12.9609 7.052 12.7734 7.16919 12.5977 7.43872C11.6836 8.82153 10.6523 10.5442 10.0078 11.9153C9.65625 12.7122 9.16406 13.7434 9.16406 14.9036C9.16406 17.2356 10.793 18.7942 13.1953 18.7942Z" fill="black" fill-opacity="0.85"/>
</svg>
