<svg width="24" height="30" viewBox="0 0 24 30" fill="none" xmlns="http://www.w3.org/2000/svg">
<path d="M2.71875 27.1349H17.625C19.2422 27.1349 20.332 26.0216 20.332 24.3341V5.32629C20.332 3.63879 19.2422 2.52551 17.625 2.52551H2.71875C1.08984 2.52551 0 3.63879 0 5.32629V24.3341C0 26.0216 1.08984 27.1349 2.71875 27.1349ZM1.88672 24.3224V5.33801C1.88672 4.77551 2.26172 4.41223 2.80078 4.41223H17.5312C18.082 4.41223 18.4453 4.77551 18.4453 5.33801V24.3224C18.4453 24.8731 18.082 25.2481 17.5312 25.2481H2.80078C2.26172 25.2481 1.88672 24.8731 1.88672 24.3224ZM4.41797 7.55285C4.99219 7.55285 5.44922 7.0841 5.44922 6.5216C5.44922 5.94738 4.99219 5.49035 4.41797 5.49035C3.85547 5.49035 3.38672 5.94738 3.38672 6.5216C3.38672 7.0841 3.85547 7.55285 4.41797 7.55285ZM7.40625 7.55285C7.98047 7.55285 8.4375 7.0841 8.4375 6.5216C8.4375 5.94738 7.98047 5.49035 7.40625 5.49035C6.84375 5.49035 6.38672 5.94738 6.38672 6.5216C6.38672 7.0841 6.84375 7.55285 7.40625 7.55285ZM13.5352 7.10754H16.3359C16.6875 7.10754 16.9219 6.87316 16.9219 6.5216C16.9219 6.17004 16.6875 5.92395 16.3359 5.92395H13.5352C13.1836 5.92395 12.9492 6.17004 12.9492 6.5216C12.9492 6.87316 13.1836 7.10754 13.5352 7.10754ZM1.03125 10.1661H19.2891V8.63098H1.03125V10.1661ZM5.625 23.2325H14.707C15.6328 23.2325 16.2773 22.5997 16.2773 21.6622V13.7521C16.2773 12.8146 15.6328 12.1817 14.707 12.1817H5.625C4.69922 12.1817 4.06641 12.8146 4.06641 13.7521V21.6622C4.06641 22.5997 4.69922 23.2325 5.625 23.2325ZM5.83594 21.9317C5.55469 21.9317 5.36719 21.7442 5.36719 21.4513V13.963C5.36719 13.67 5.55469 13.4825 5.83594 13.4825H14.4961C14.7773 13.4825 14.9648 13.67 14.9648 13.963V21.4513C14.9648 21.7442 14.7773 21.9317 14.4961 21.9317H5.83594Z" fill="#007AFF"/>
<path d="M12.5977 29.2911C13.6289 29.9708 15.1289 29.7599 15.8555 28.506C16.3008 27.7091 16.582 26.7247 16.582 25.7521C16.582 22.4005 14.625 21.1817 14.625 20.0567C14.625 19.8106 14.6367 19.7638 14.8125 19.4708C15.4453 18.381 15.0469 17.0685 14.0625 16.4825C13.043 15.8263 11.6016 16.0958 10.9102 17.2794C10.4062 18.1114 10.1602 19.131 10.1602 20.0567C10.1602 23.3731 12.1055 24.5919 12.1055 25.7521C12.1055 25.9513 12.0352 26.1153 11.918 26.338C11.2969 27.4044 11.707 28.67 12.5977 29.2911ZM16.0078 29.2911C17.0625 29.9825 18.5508 29.713 19.2305 28.4942C19.6992 27.6739 19.9688 26.713 19.9688 25.7521C19.9688 22.3888 18.0117 21.17 18.0117 20.045C18.0117 19.7989 18.0234 19.7521 18.2109 19.4474C18.832 18.3575 18.4102 17.0567 17.4258 16.4708C16.3945 15.838 14.9648 16.1075 14.2734 17.2794C13.793 18.1114 13.5469 19.1075 13.5469 20.045C13.5469 23.3731 15.4922 24.5802 15.4922 25.7521C15.4922 25.9981 15.4805 26.0333 15.3164 26.3263C14.6836 27.4161 15.0938 28.6817 16.0078 29.2911ZM19.3828 29.2794C20.4492 29.9708 21.9375 29.7013 22.6172 28.4825C23.0859 27.6622 23.3555 26.7013 23.3555 25.7403C23.3555 22.3771 21.3984 21.1583 21.3984 20.0333C21.3984 19.7872 21.4102 19.7403 21.5977 19.4356C22.2188 18.3458 21.8086 17.0333 20.8125 16.4591C19.793 15.8146 18.3516 16.0958 17.6602 17.2677C17.1797 18.0997 16.9336 19.0958 16.9336 20.0333C16.9336 23.3614 18.8789 24.5685 18.8789 25.7403C18.8789 25.9864 18.8672 26.0216 18.7031 26.3146C18.0703 27.4044 18.4805 28.67 19.3828 29.2794Z" fill="white"/>
<path d="M13.3945 28.0958C13.7344 28.3302 14.2969 28.3185 14.6133 27.8028C14.9531 27.1817 15.1523 26.4552 15.1523 25.7521C15.1523 23.1974 13.1953 21.9435 13.1953 20.0567C13.1953 19.5763 13.2891 19.2364 13.582 18.7442C13.8164 18.3341 13.6289 17.9005 13.3125 17.7013C12.9609 17.4786 12.4219 17.5138 12.1406 18.006C11.7656 18.6153 11.5898 19.3419 11.5898 20.0567C11.5898 22.5646 13.5352 23.8185 13.5352 25.7521C13.5352 26.2325 13.4531 26.5489 13.1602 27.0528C12.9141 27.4747 13.125 27.9083 13.3945 28.0958ZM16.7812 28.0841C17.1562 28.3302 17.707 28.295 17.9883 27.7911C18.3398 27.17 18.5391 26.4552 18.5391 25.7521C18.5391 23.1856 16.582 21.9317 16.582 20.045C16.582 19.5763 16.6758 19.2364 16.957 18.7325C17.2031 18.3224 17.0039 17.9005 16.6875 17.7013C16.3359 17.4903 15.7969 17.5138 15.5156 17.9942C15.1523 18.6153 14.9766 19.3302 14.9766 20.045C14.9766 22.5646 16.9219 23.8067 16.9219 25.7521C16.9219 26.2208 16.8398 26.5372 16.5469 27.0411C16.3008 27.4747 16.5 27.8966 16.7812 28.0841ZM20.168 28.0724C20.543 28.3185 21.0938 28.2833 21.375 27.7794C21.7266 27.1583 21.9258 26.4435 21.9258 25.7403C21.9258 23.1739 19.9688 21.92 19.9688 20.0333C19.9688 19.5646 20.0625 19.2247 20.3438 18.7208C20.5898 18.3106 20.3906 17.8888 20.0742 17.6896C19.7227 17.4786 19.1836 17.5021 18.9023 17.9825C18.5391 18.6036 18.3633 19.3185 18.3633 20.0333C18.3633 22.5528 20.3086 23.795 20.3086 25.7403C20.3086 26.2091 20.2266 26.5255 19.9336 27.0294C19.6875 27.463 19.8867 27.8849 20.168 28.0724Z" fill="black" fill-opacity="0.85"/>
</svg>
