<svg width="24" height="24" viewBox="0 0 24 24" fill="none" xmlns="http://www.w3.org/2000/svg">
<path d="M11.9531 23.9062C18.4922 23.9062 23.9062 18.4805 23.9062 11.9531C23.9062 5.41406 18.4805 0 11.9414 0C5.41406 0 0 5.41406 0 11.9531C0 18.4805 5.42578 23.9062 11.9531 23.9062ZM11.9531 21.9141C6.42188 21.9141 2.00391 17.4844 2.00391 11.9531C2.00391 6.42188 6.41016 1.99219 11.9414 1.99219C17.4727 1.99219 21.9141 6.42188 21.9141 11.9531C21.9141 17.4844 17.4844 21.9141 11.9531 21.9141Z" fill="#007AFF"/>
<path d="M9.24609 17.1797H14.7891C15.2344 17.1797 15.5625 16.8867 15.5625 16.418C15.5625 15.9375 15.2344 15.6445 14.7891 15.6445H10.1953V12.4922H14.4844C14.9297 12.4922 15.2578 12.2344 15.2578 11.7773C15.2578 11.2969 14.9297 11.0273 14.4844 11.0273H10.1953V8.03906H14.7891C15.2344 8.03906 15.5625 7.73438 15.5625 7.26562C15.5625 6.78516 15.2344 6.50391 14.7891 6.50391H9.24609C8.63672 6.50391 8.32031 6.92578 8.32031 7.55859V16.125C8.32031 16.7578 8.63672 17.1797 9.24609 17.1797Z" fill="black" fill-opacity="0.85"/>
</svg>
