<svg width="22" height="22" viewBox="0 0 22 22" fill="none" xmlns="http://www.w3.org/2000/svg">
<path d="M3.67969 21.5977H17.8945C20.3555 21.5977 21.5742 20.3789 21.5742 17.9648V3.65625C21.5742 1.24219 20.3555 0.0234375 17.8945 0.0234375H3.67969C1.23047 0.0234375 0 1.23047 0 3.65625V17.9648C0 20.3906 1.23047 21.5977 3.67969 21.5977ZM3.70312 19.7109C2.53125 19.7109 1.88672 19.0898 1.88672 17.8711V3.75C1.88672 2.53125 2.53125 1.91016 3.70312 1.91016H17.8711C19.0312 1.91016 19.6875 2.53125 19.6875 3.75V17.8711C19.6875 19.0898 19.0312 19.7109 17.8711 19.7109H3.70312Z" fill="#007AFF"/>
<path d="M8.09766 16.0195H13.6406C14.0977 16.0195 14.4141 15.7266 14.4141 15.2578C14.4141 14.7773 14.0977 14.4844 13.6406 14.4844H9.04688V11.332H13.3359C13.793 11.332 14.1094 11.0742 14.1094 10.6172C14.1094 10.1367 13.793 9.86719 13.3359 9.86719H9.04688V6.87891H13.6406C14.0977 6.87891 14.4141 6.57422 14.4141 6.10547C14.4141 5.625 14.0977 5.34375 13.6406 5.34375H8.09766C7.48828 5.34375 7.18359 5.76562 7.18359 6.39844V14.9648C7.18359 15.5977 7.48828 16.0195 8.09766 16.0195Z" fill="black" fill-opacity="0.85"/>
</svg>
