<svg width="19" height="28" viewBox="0 0 19 28" fill="none" xmlns="http://www.w3.org/2000/svg">
<path d="M0.015625 19.6875C0.015625 22.9219 2.03125 24.9844 5.1836 24.9844C7.53907 24.9844 9.29688 23.9531 10.4101 21.9609L11.4648 20.0742C13.9375 15.5508 18.0156 14.9648 18.0156 9.15234C18.0156 3.66797 14.4648 0 9.14454 0C3.69531 0 0.015625 3.69141 0.015625 9.19922V19.6875ZM1.78516 19.5703V9.19922C1.78516 4.73438 4.72656 1.76953 9.14454 1.76953C13.4101 1.76953 16.2461 4.73438 16.2461 9.15234C16.2461 14.0156 12.4375 14.8594 9.88282 19.2773L8.86329 21.0234C8.03125 22.4766 6.87109 23.168 5.26562 23.168C3.09766 23.168 1.78516 21.8086 1.78516 19.5703ZM4.28125 15.1641C4.76172 15.1641 5.17188 14.7539 5.17188 14.2734V9.12891C5.17188 6.87891 6.74219 5.39062 9.13282 5.39062C11.4062 5.39062 12.8711 6.86719 12.8711 9.12891C12.8711 9.60938 13.2695 10.0195 13.75 10.0195C14.2304 10.0195 14.6406 9.60938 14.6406 9.12891C14.6406 5.83594 12.4375 3.62109 9.13282 3.62109C5.71094 3.62109 3.40234 5.83594 3.40234 9.12891V14.2734C3.40234 14.7539 3.80079 15.1641 4.28125 15.1641ZM4.1875 11.6836H8.14843C8.94531 11.6836 9.44921 12.1641 9.44921 12.8672C9.44921 13.2305 9.26171 13.7227 8.98046 14.0625L7.57421 15.832C7.42188 16.0312 7.33985 16.2422 7.33985 16.4648C7.33985 16.9453 7.75 17.3438 8.23046 17.3438C8.5 17.3438 8.75782 17.2031 8.95704 16.957L10.4804 15.0234C10.9609 14.4141 11.2773 13.5234 11.2773 12.7969C11.2773 11.0742 10.0234 9.91406 8.125 9.91406H4.1875V11.6836Z" fill="black" fill-opacity="0.85"/>
</svg>
