<svg width="24" height="24" viewBox="0 0 24 24" fill="none" xmlns="http://www.w3.org/2000/svg">
<path d="M11.9531 23.9062C18.4922 23.9062 23.9062 18.4805 23.9062 11.9531C23.9062 5.41406 18.4805 0 11.9414 0C5.41406 0 0 5.41406 0 11.9531C0 18.4805 5.42578 23.9062 11.9531 23.9062Z" fill="#FFCC00"/>
<path d="M7.23047 16.957C6.48047 16.957 6.04688 16.5586 6.04688 15.8203V15.0586C6.04688 14.3203 6.48047 13.9219 7.23047 13.9219H16.6758C17.4258 13.9219 17.8594 14.3203 17.8594 15.0586V15.8203C17.8594 16.5586 17.4258 16.957 16.6758 16.957H7.23047ZM6.9375 12.3984C6.43359 12.3984 6.19922 12.1406 6.16406 11.6953C6.15234 11.4844 6.24609 11.2734 6.43359 11.0859L11.1914 5.84766C11.3789 5.63672 11.6484 5.46094 11.9531 5.46094C12.2578 5.46094 12.5156 5.60156 12.7148 5.84766L17.4609 11.0859C17.6367 11.2852 17.7422 11.4844 17.7422 11.6953C17.7422 12.1406 17.4492 12.3984 16.957 12.3984H6.9375Z" fill="black" fill-opacity="0.85"/>
</svg>
