<svg width="23" height="22" viewBox="0 0 23 22" fill="none" xmlns="http://www.w3.org/2000/svg">
<path d="M1.95703 13.3828H20.6367C21.7148 13.3828 22.2773 12.832 22.3008 11.8945C22.3125 11.4492 22.0898 10.9922 21.7266 10.5938L12.9258 0.925781C12.4922 0.457031 11.9531 0.105469 11.2969 0.105469C10.6289 0.105469 10.125 0.433594 9.65625 0.925781L0.867188 10.5938C0.503906 10.9922 0.292969 11.4492 0.292969 11.8945C0.292969 12.832 0.878906 13.3828 1.95703 13.3828ZM3.19922 11.6133C2.97656 11.6133 2.87109 11.5078 2.87109 11.3438C2.87109 11.2617 2.90625 11.1797 2.96484 11.1211L10.9102 2.48438C11.0391 2.35547 11.1328 2.26172 11.2969 2.26172C11.4609 2.26172 11.5664 2.35547 11.6836 2.48438L19.6172 11.1211C19.6875 11.1914 19.7227 11.2617 19.7227 11.3438C19.7227 11.5078 19.6055 11.6133 19.3945 11.6133H3.19922ZM2.51953 21.9258H20.0508C21.668 21.9258 22.5703 21.082 22.5703 19.5V18.1523C22.5703 16.5703 21.668 15.7266 20.0508 15.7266H2.51953C0.902344 15.7266 0 16.5586 0 18.1523V19.5C0 21.0938 0.902344 21.9258 2.51953 21.9258ZM2.67188 20.2031C2.15625 20.2031 1.88672 19.8984 1.88672 19.3828V18.2695C1.88672 17.7539 2.15625 17.4492 2.67188 17.4492H19.8984C20.4258 17.4492 20.6836 17.7539 20.6836 18.2695V19.3828C20.6836 19.8984 20.4258 20.2031 19.8984 20.2031H2.67188Z" fill="black" fill-opacity="0.85"/>
</svg>
