<svg width="23" height="22" viewBox="0 0 23 22" fill="none" xmlns="http://www.w3.org/2000/svg">
<path d="M1.67578 13.0781H20.5664C21.5039 13.0781 22.0195 12.5859 22.0195 11.7656C22.0195 11.3789 21.8438 10.9688 21.5156 10.6172L12.5625 0.738281C12.1641 0.304688 11.707 0.0117188 11.1211 0.0117188C10.5586 0.0117188 10.0781 0.328125 9.69141 0.738281L0.726562 10.6172C0.398438 10.9688 0.210938 11.3789 0.222656 11.7656C0.234375 12.5859 0.738281 13.0781 1.67578 13.0781ZM1.91016 21.6445H20.3555C21.5508 21.6445 22.2656 20.9062 22.2656 19.7109V17.5898C22.2656 16.3945 21.5508 15.6562 20.3555 15.6562H1.91016C0.714844 15.6562 0 16.3945 0 17.5898V19.7109C0 20.9062 0.714844 21.6445 1.91016 21.6445Z" fill="black" fill-opacity="0.85"/>
</svg>
