<svg width="26" height="26" viewBox="0 0 26 26" fill="none" xmlns="http://www.w3.org/2000/svg">
<path d="M7.20703 25.7461C7.78125 25.7461 8.17969 25.4414 8.89453 24.8086L12.9375 21.2109H20.4609C23.9531 21.2109 25.8281 19.2773 25.8281 15.8438V6.86719C25.8281 3.43359 23.9531 1.5 20.4609 1.5H5.36719C1.875 1.5 0 3.42188 0 6.86719V15.8438C0 19.2891 1.875 21.2109 5.36719 21.2109H5.92969V24.2578C5.92969 25.1602 6.38672 25.7461 7.20703 25.7461ZM7.6875 23.6016V20.2031C7.6875 19.5703 7.44141 19.3242 6.80859 19.3242H5.36719C3 19.3242 1.88672 18.1172 1.88672 15.832V6.86719C1.88672 4.58203 3 3.38672 5.36719 3.38672H20.4609C22.8164 3.38672 23.9414 4.58203 23.9414 6.86719V15.832C23.9414 18.1172 22.8164 19.3242 20.4609 19.3242H12.8672C12.2109 19.3242 11.8828 19.418 11.4375 19.875L7.6875 23.6016Z" fill="#007AFF"/>
<path d="M12.9258 8.12109C13.8164 8.12109 14.5312 7.39453 14.5312 6.51562C14.5312 5.625 13.8164 4.89844 12.9258 4.89844C12.0352 4.89844 11.3203 5.625 11.3203 6.51562C11.3203 7.39453 12.0352 8.12109 12.9258 8.12109Z" fill="black" fill-opacity="0.85"/>
<path d="M12.9258 12.9609C13.8164 12.9609 14.5312 12.2461 14.5312 11.3555C14.5312 10.4648 13.8164 9.75 12.9258 9.75C12.0352 9.75 11.3203 10.4648 11.3203 11.3555C11.3203 12.2461 12.0352 12.9609 12.9258 12.9609Z" fill="black" fill-opacity="0.85"/>
<path d="M12.9258 17.8008C13.8164 17.8008 14.5312 17.0859 14.5312 16.1953C14.5312 15.3047 13.8164 14.5898 12.9258 14.5898C12.0352 14.5898 11.3203 15.3047 11.3203 16.1953C11.3203 17.0859 12.0352 17.8008 12.9258 17.8008Z" fill="black" fill-opacity="0.85"/>
</svg>
