<svg width="27" height="25" viewBox="0 0 27 25" fill="none" xmlns="http://www.w3.org/2000/svg">
<path d="M4.64062 24.4336C6.04688 24.4336 9.55078 22.8984 11.543 21.4688C11.7422 21.3281 11.9062 21.2695 12.0703 21.2695C12.2227 21.2812 12.375 21.293 12.5273 21.293C20.9766 21.293 26.5781 16.4883 26.5781 10.6523C26.5781 4.75781 20.6719 0 13.2891 0C5.90625 0 0 4.75781 0 10.6523C0 14.4023 2.30859 17.6953 6.07031 19.7109C6.24609 19.8047 6.30469 19.9805 6.21094 20.1562C5.55469 21.2344 4.38281 22.5234 3.9375 23.1094C3.48047 23.6953 3.73828 24.4336 4.64062 24.4336Z" fill="#FFCC00"/>
<path d="M18.9375 12.5156C17.9648 12.5156 17.1797 11.7305 17.1797 10.7578C17.1797 9.78516 17.9648 9 18.9375 9C19.8867 9 20.6953 9.78516 20.6953 10.7578C20.6953 11.7305 19.8867 12.5156 18.9375 12.5156Z" fill="black" fill-opacity="0.85"/>
<path d="M13.2891 12.5156C12.3164 12.5156 11.5312 11.7305 11.5312 10.7578C11.5312 9.78516 12.3164 9 13.2891 9C14.2617 9 15.0469 9.78516 15.0469 10.7578C15.0469 11.7305 14.2617 12.5156 13.2891 12.5156Z" fill="black" fill-opacity="0.85"/>
<path d="M7.65234 12.5156C6.69141 12.5156 5.89453 11.7305 5.89453 10.7578C5.89453 9.78516 6.69141 9 7.65234 9C8.60156 9 9.39844 9.78516 9.39844 10.7578C9.39844 11.7305 8.61328 12.5156 7.65234 12.5156Z" fill="black" fill-opacity="0.85"/>
</svg>
