<svg width="26" height="26" viewBox="0 0 26 26" fill="none" xmlns="http://www.w3.org/2000/svg">
<path d="M6.96094 25.8867C7.41797 25.8867 7.75781 25.6523 8.30859 25.1367L12.5391 21.2695H20.4609C23.9531 21.2695 25.8281 19.3477 25.8281 15.9141V6.9375C25.8281 3.50391 23.9531 1.57031 20.4609 1.57031H5.36719C1.875 1.57031 0 3.49219 0 6.9375V15.9141C0 19.3594 1.875 21.2695 5.36719 21.2695H5.91797V24.6797C5.91797 25.4062 6.29297 25.8867 6.96094 25.8867Z" fill="#FFCC00"/>
<path d="M12.9258 8.09766C12 8.09766 11.2617 7.34766 11.2617 6.43359C11.2617 5.51953 12 4.76953 12.9258 4.76953C13.8516 4.76953 14.5898 5.51953 14.5898 6.43359C14.5898 7.34766 13.8516 8.09766 12.9258 8.09766Z" fill="black" fill-opacity="0.85"/>
<path d="M12.9258 13.0898C12 13.0898 11.2617 12.3516 11.2617 11.4258C11.2617 10.5 12 9.76172 12.9258 9.76172C13.8516 9.76172 14.5898 10.5 14.5898 11.4258C14.5898 12.3516 13.8516 13.0898 12.9258 13.0898Z" fill="black" fill-opacity="0.85"/>
<path d="M12.9258 18.0703C12 18.0703 11.2617 17.332 11.2617 16.418C11.2617 15.4922 12 14.7539 12.9258 14.7539C13.8516 14.7539 14.5898 15.4922 14.5898 16.418C14.5898 17.332 13.8516 18.0703 12.9258 18.0703Z" fill="black" fill-opacity="0.85"/>
</svg>
