<svg width="19" height="25" viewBox="0 0 19 25" fill="none" xmlns="http://www.w3.org/2000/svg">
<path d="M16.4531 20.9414V3.63281C16.4531 1.21875 15.2344 0 12.7852 0H3.67969C1.24219 0 0 1.20703 0 3.63281V20.9414C0 23.3672 1.24219 24.5742 3.67969 24.5742H12.7852C15.2344 24.5742 16.4531 23.3555 16.4531 20.9414ZM1.88672 20.8477V3.72656C1.88672 2.50781 2.54297 1.88672 3.71484 1.88672H12.75C13.9102 1.88672 14.5664 2.50781 14.5664 3.72656V20.8477C14.5664 22.0664 13.9102 22.6875 12.75 22.6875H3.71484C2.54297 22.6875 1.88672 22.0664 1.88672 20.8477Z" fill="#007AFF"/>
<path d="M4.66406 5.98828C5.4375 5.98828 6.05859 5.35547 6.05859 4.60547C6.05859 3.82031 5.4375 3.19922 4.66406 3.19922C3.89062 3.19922 3.26953 3.82031 3.26953 4.60547C3.26953 5.35547 3.89062 5.98828 4.66406 5.98828ZM8.22656 5.98828C9.02344 5.98828 9.63281 5.35547 9.63281 4.60547C9.63281 3.82031 9.02344 3.19922 8.22656 3.19922C7.45312 3.19922 6.84375 3.82031 6.84375 4.60547C6.84375 5.35547 7.45312 5.98828 8.22656 5.98828ZM11.8125 5.98828C12.5859 5.98828 13.1953 5.35547 13.1953 4.60547C13.1953 3.82031 12.5859 3.19922 11.8125 3.19922C11.0273 3.19922 10.418 3.82031 10.418 4.60547C10.418 5.35547 11.0273 5.98828 11.8125 5.98828ZM4.66406 9.42188C5.4375 9.42188 6.05859 8.80078 6.05859 8.02734C6.05859 7.24219 5.4375 6.62109 4.66406 6.62109C3.89062 6.62109 3.26953 7.24219 3.26953 8.02734C3.26953 8.80078 3.89062 9.42188 4.66406 9.42188ZM8.22656 9.42188C9.02344 9.42188 9.63281 8.80078 9.63281 8.02734C9.63281 7.24219 9.02344 6.62109 8.22656 6.62109C7.45312 6.62109 6.84375 7.24219 6.84375 8.02734C6.84375 8.80078 7.45312 9.42188 8.22656 9.42188ZM11.8125 9.42188C12.5859 9.42188 13.1953 8.80078 13.1953 8.02734C13.1953 7.24219 12.5859 6.62109 11.8125 6.62109C11.0273 6.62109 10.418 7.24219 10.418 8.02734C10.418 8.80078 11.0273 9.42188 11.8125 9.42188ZM4.66406 12.8672C5.4375 12.8672 6.05859 12.2461 6.05859 11.4609C6.05859 10.6992 5.4375 10.0664 4.66406 10.0664C3.89062 10.0664 3.26953 10.6992 3.26953 11.4609C3.26953 12.2461 3.89062 12.8672 4.66406 12.8672ZM8.22656 12.8672C9.02344 12.8672 9.63281 12.2461 9.63281 11.4609C9.63281 10.6992 9.02344 10.0664 8.22656 10.0664C7.45312 10.0664 6.84375 10.6992 6.84375 11.4609C6.84375 12.2461 7.45312 12.8672 8.22656 12.8672ZM11.8125 12.8672C12.5859 12.8672 13.1953 12.2461 13.1953 11.4609C13.1953 10.6992 12.5859 10.0664 11.8125 10.0664C11.0273 10.0664 10.418 10.6992 10.418 11.4609C10.418 12.2461 11.0273 12.8672 11.8125 12.8672Z" fill="#007AFF"/>
<path d="M8.4375 20.3789H16.4531C17.8125 20.3789 18.9375 19.2773 18.9375 17.9062C18.9375 16.5352 17.8125 15.4219 16.4531 15.4219H8.4375C7.07812 15.4219 5.96484 16.5352 5.96484 17.9062C5.96484 19.2773 7.07812 20.3789 8.4375 20.3789Z" fill="white"/>
<path d="M8.22656 21.3516C10.1484 21.3516 11.6836 19.8164 11.6836 17.9062C11.6836 16.0078 10.1484 14.4727 8.22656 14.4727C6.31641 14.4727 4.78125 16.0078 4.78125 17.9062C4.78125 19.8164 6.31641 21.3516 8.22656 21.3516ZM8.4375 19.2539H16.4531C17.1914 19.2539 17.8008 18.6562 17.8008 17.9062C17.8008 17.1562 17.1914 16.5586 16.4531 16.5586H8.4375C7.69922 16.5586 7.08984 17.1562 7.08984 17.9062C7.08984 18.6562 7.69922 19.2539 8.4375 19.2539Z" fill="black" fill-opacity="0.85"/>
</svg>
