<svg width="20" height="25" viewBox="0 0 20 25" fill="none" xmlns="http://www.w3.org/2000/svg">
<path d="M3.67969 24.5742H12.7852C15.2344 24.5742 16.4531 23.3555 16.4531 20.9648V3.63281C16.4531 1.21875 15.2344 0 12.7852 0H3.67969C1.23047 0 0 1.20703 0 3.63281V20.9648C0 23.3672 1.23047 24.5742 3.67969 24.5742Z" fill="#007AFF"/>
<path d="M4.48828 5.88282C3.66797 5.88282 3.02344 5.22656 3.02344 4.42969C3.02344 3.60938 3.66797 2.95312 4.48828 2.95312C5.29688 2.95312 5.95312 3.60938 5.95312 4.42969C5.95312 5.22656 5.29688 5.88282 4.48828 5.88282ZM8.22656 5.88282C7.41797 5.88282 6.77344 5.22656 6.77344 4.42969C6.77344 3.60938 7.41797 2.95312 8.22656 2.95312C9.05859 2.95312 9.70312 3.60938 9.70312 4.42969C9.70312 5.22656 9.05859 5.88282 8.22656 5.88282ZM11.9883 5.88282C11.168 5.88282 10.5234 5.22656 10.5234 4.42969C10.5234 3.60938 11.168 2.95312 11.9883 2.95312C12.8086 2.95312 13.4414 3.60938 13.4414 4.42969C13.4414 5.22656 12.8086 5.88282 11.9883 5.88282ZM4.48828 9.4922C3.66797 9.4922 3.02344 8.83594 3.02344 8.02734C3.02344 7.20703 3.66797 6.55078 4.48828 6.55078C5.29688 6.55078 5.95312 7.20703 5.95312 8.02734C5.95312 8.83594 5.29688 9.4922 4.48828 9.4922ZM8.22656 9.4922C7.41797 9.4922 6.77344 8.83594 6.77344 8.02734C6.77344 7.20703 7.41797 6.55078 8.22656 6.55078C9.05859 6.55078 9.70312 7.20703 9.70312 8.02734C9.70312 8.83594 9.05859 9.4922 8.22656 9.4922ZM11.9883 9.4922C11.168 9.4922 10.5234 8.83594 10.5234 8.02734C10.5234 7.20703 11.168 6.55078 11.9883 6.55078C12.8086 6.55078 13.4414 7.20703 13.4414 8.02734C13.4414 8.83594 12.8086 9.4922 11.9883 9.4922ZM4.48828 13.1133C3.66797 13.1133 3.02344 12.457 3.02344 11.6367C3.02344 10.8281 3.66797 10.1719 4.48828 10.1719C5.29688 10.1719 5.95312 10.8281 5.95312 11.6367C5.95312 12.457 5.29688 13.1133 4.48828 13.1133ZM8.22656 13.1133C7.41797 13.1133 6.77344 12.457 6.77344 11.6367C6.77344 10.8281 7.41797 10.1719 8.22656 10.1719C9.05859 10.1719 9.70312 10.8281 9.70312 11.6367C9.70312 12.457 9.05859 13.1133 8.22656 13.1133ZM11.9883 13.1133C11.168 13.1133 10.5234 12.457 10.5234 11.6367C10.5234 10.8281 11.168 10.1719 11.9883 10.1719C12.8086 10.1719 13.4414 10.8281 13.4414 11.6367C13.4414 12.457 12.8086 13.1133 11.9883 13.1133Z" fill="white"/>
<path d="M8.22656 22.0664C6.22266 22.0664 4.60547 20.4492 4.60547 18.4453C4.60547 16.4414 6.22266 14.8242 8.22656 14.8242C10.2422 14.8242 11.8594 16.4414 11.8594 18.4453C11.8594 20.4492 10.2422 22.0664 8.22656 22.0664ZM8.22656 20.9883C6.83203 20.9883 5.68359 19.8516 5.68359 18.4453C5.68359 17.0391 6.83203 15.8906 8.22656 15.8906H17.3906C18.7969 15.8906 19.9453 17.0391 19.9453 18.4453C19.9453 19.8516 18.7969 20.9883 17.3906 20.9883H8.22656Z" fill="white"/>
<path d="M8.22656 19.8633H17.3906C18.1758 19.8633 18.8086 19.2188 18.8086 18.4453C18.8086 17.6602 18.1758 17.0273 17.3906 17.0273H8.22656C7.45312 17.0273 6.80859 17.6602 6.80859 18.4453C6.80859 19.2188 7.45312 19.8633 8.22656 19.8633Z" fill="black" fill-opacity="0.85"/>
</svg>
