<svg width="26" height="30" viewBox="0 0 26 30" fill="none" xmlns="http://www.w3.org/2000/svg">
<path d="M0 22.7344C0 23.4844 0.0820312 24.0469 0.269531 24.4219L8.23828 16.5118L0.234375 9.49219C0.09375 9.85547 0 10.3594 0 11.0625V22.7344ZM1.24219 8.01563L11.5547 17.086C12.082 17.5547 12.4805 17.8125 12.9609 17.8125C13.4297 17.8125 13.8281 17.5547 14.3672 17.086L24.6562 8.02735C24.2227 7.68751 23.5078 7.42969 22.5469 7.42969H14.1562V12.668C14.1562 13.3008 13.6055 13.8399 12.9609 13.8399C12.3047 13.8399 11.7539 13.3008 11.7539 12.668V7.42969H3.32812C2.39062 7.42969 1.67578 7.68751 1.24219 8.01563ZM1.39453 25.8165C1.875 26.1329 2.625 26.3672 3.67969 26.3672H22.1953C23.2617 26.3672 24.0117 26.1329 24.5039 25.793L16.3359 17.7071L15.4219 18.5274C14.543 19.2657 13.8164 19.6758 12.9609 19.6758C12.1055 19.6758 11.3672 19.2657 10.5 18.5274L9.57422 17.7071L1.39453 25.8165ZM17.6719 16.5118L25.6172 24.3985C25.793 24.0235 25.875 23.4727 25.875 22.7344V11.0625C25.875 10.3711 25.7812 9.87891 25.6523 9.51563L17.6719 16.5118Z" fill="#007AFF"/>
<path d="M4.51178 2.69536L6.92584 5.22661C7.44147 5.74223 7.99225 5.58989 8.12115 4.89848L8.35553 3.64458C10.8399 4.06645 12.0235 5.56645 12.0235 7.38286V7.71098C12.0235 8.40239 12.3751 8.80083 12.961 8.80083C13.547 8.80083 13.8868 8.40239 13.8868 7.71098V7.38286C13.8868 5.56645 15.0821 4.06645 17.5665 3.64458L17.8009 4.89848C17.9298 5.58989 18.4806 5.74223 18.9845 5.22661L21.4103 2.69536C21.8204 2.2852 21.7032 1.76958 21.1759 1.52348L17.9884 0.105514C17.3321 -0.187454 16.8985 0.152389 17.0274 0.843796L17.2618 2.07426C15.4337 2.43755 13.4063 3.62114 12.961 4.94536C12.5157 3.62114 10.4884 2.43755 8.66022 2.07426L8.89459 0.843796C9.0235 0.152389 8.5899 -0.187454 7.92194 0.105514L4.74615 1.52348C4.21881 1.76958 4.10162 2.2852 4.51178 2.69536Z" fill="black" fill-opacity="0.85"/>
</svg>
