<svg width="24" height="24" viewBox="0 0 24 24" fill="none" xmlns="http://www.w3.org/2000/svg">
<path d="M11.9531 23.9062C18.4922 23.9062 23.9062 18.4805 23.9062 11.9531C23.9062 5.41406 18.4805 0 11.9414 0C5.41406 0 0 5.41406 0 11.9531C0 18.4805 5.42578 23.9062 11.9531 23.9062Z" fill="#FFCC00"/>
<path d="M7.40625 15.1289C6.77344 15.1289 6.33984 14.8242 6.33984 14.2148C6.33984 13.5938 6.75 13.2656 7.40625 13.2656H16.4883C17.1328 13.2656 17.543 13.5938 17.543 14.2148C17.543 14.8242 17.1094 15.1289 16.4883 15.1289H7.40625ZM7.40625 10.6641C6.77344 10.6641 6.33984 10.3594 6.33984 9.73828C6.33984 9.11719 6.75 8.80078 7.40625 8.80078H16.4883C17.1328 8.80078 17.543 9.11719 17.543 9.73828C17.543 10.3594 17.1094 10.6641 16.4883 10.6641H7.40625Z" fill="black" fill-opacity="0.85"/>
</svg>
