<svg width="24" height="24" viewBox="0 0 24 24" fill="none" xmlns="http://www.w3.org/2000/svg">
<path d="M1.36059 17.4905L5.89575 22.0139C7.66528 23.7717 9.64575 23.842 11.3098 22.178L22.6067 10.8694C23.6497 9.83811 23.6379 8.34983 22.5715 7.28342L16.0911 0.814673C15.0247 -0.251733 13.5481 -0.275171 12.5051 0.767798L1.20825 12.0647C-0.455812 13.7405 -0.397219 15.7209 1.36059 17.4905ZM2.69653 16.1545C1.79419 15.2405 1.74731 14.1975 2.60278 13.3303L13.759 2.17405C14.0637 1.86936 14.4856 1.86936 14.7786 2.16233L21.2239 8.60764C21.5168 8.90061 21.5051 9.31077 21.2122 9.60374L10.0442 20.7717C9.18872 21.6389 8.14575 21.592 7.23169 20.678L2.69653 16.1545ZM3.07153 11.4905L11.884 20.3147L13.0559 19.1428L4.26684 10.3537L3.07153 11.4905Z" fill="black" fill-opacity="0.85"/>
</svg>
