<svg width="32" height="27" viewBox="0 0 32 27" fill="none" xmlns="http://www.w3.org/2000/svg">
<path d="M11.4687 24.3048H21.6406C22.1562 24.3048 22.5898 23.8829 22.5898 23.3673C22.5898 22.8517 22.1562 22.4181 21.6406 22.4181H11.4687C10.9531 22.4181 10.5195 22.8517 10.5195 23.3673C10.5195 23.8829 10.9531 24.3048 11.4687 24.3048Z" fill="#007AFF"/>
<path d="M25.1445 24.3048H30.9687C31.4844 24.3048 31.9062 23.8829 31.9062 23.3673C31.9062 22.8517 31.4844 22.4181 30.9687 22.4181H25.1445C24.6289 22.4181 24.1953 22.8517 24.1953 23.3673C24.1953 23.8829 24.6289 24.3048 25.1445 24.3048Z" fill="#007AFF"/>
<path d="M1.8242 20.215L6.37107 24.7501C8.78513 27.1642 11.7734 27.1759 14.0469 24.9025L25.3437 13.6056C27.0078 11.9415 27.0078 9.44545 25.3086 7.74623L18.8281 1.2892C17.1289 -0.410019 14.6445 -0.433456 12.9687 1.24232L1.68357 12.5392C-0.589867 14.8126 -0.578148 17.8009 1.8242 20.215Z" fill="white"/>
<path d="M5.17533 11.4611L14.984 21.2697L23.9254 12.3165C24.9683 11.2736 24.9449 9.79697 23.8785 8.73057L17.7144 2.54307C16.648 1.47666 15.1597 1.46494 14.1168 2.50791L5.17533 11.4611ZM2.9722 19.2189L7.21439 23.4611C8.9722 25.2072 10.9644 25.2775 12.6285 23.6134L13.8472 22.3947L4.03861 12.5861L2.80814 13.7931C1.14408 15.4689 1.21439 17.4611 2.9722 19.2189Z" fill="black" fill-opacity="0.85"/>
</svg>
