<svg width="32" height="27" viewBox="0 0 32 27" fill="none" xmlns="http://www.w3.org/2000/svg">
<path d="M11.4687 24.3048H21.6406C22.1562 24.3048 22.5898 23.8829 22.5898 23.3673C22.5898 22.8517 22.1562 22.4181 21.6406 22.4181H11.4687C10.9531 22.4181 10.5195 22.8517 10.5195 23.3673C10.5195 23.8829 10.9531 24.3048 11.4687 24.3048Z" fill="#007AFF"/>
<path d="M25.1445 24.3048H30.9687C31.4844 24.3048 31.9062 23.8829 31.9062 23.3673C31.9062 22.8517 31.4844 22.4181 30.9687 22.4181H25.1445C24.6289 22.4181 24.1953 22.8517 24.1953 23.3673C24.1953 23.8829 24.6289 24.3048 25.1445 24.3048Z" fill="#007AFF"/>
<path d="M1.8242 20.215L6.37107 24.7501C8.78513 27.1642 11.7734 27.1759 14.0469 24.9025L25.3437 13.6056C27.0078 11.9415 27.0078 9.44545 25.3086 7.74623L18.8281 1.2892C17.1289 -0.410019 14.6445 -0.433456 12.9687 1.24232L1.68357 12.5392C-0.589867 14.8126 -0.578148 17.8009 1.8242 20.215Z" fill="white"/>
<path d="M2.96083 19.09L7.50771 23.6134C9.26552 25.3712 11.246 25.4415 12.9218 23.7775L24.2069 12.4689C25.2499 11.4376 25.2382 9.94932 24.1718 8.88291L17.703 2.41416C16.6366 1.34775 15.1483 1.32432 14.1053 2.36728L2.80849 13.6642C1.14443 15.34 1.21474 17.3204 2.96083 19.09ZM4.29677 17.754C3.39443 16.84 3.35927 15.797 4.20302 14.9298L15.371 3.77353C15.6639 3.46885 16.0858 3.46885 16.3788 3.76182L22.8241 10.2072C23.1171 10.5001 23.1053 10.9103 22.8124 11.2033L11.6444 22.3712C10.7889 23.2384 9.74599 23.1915 8.84365 22.2775L4.29677 17.754ZM4.67177 13.09L13.4843 21.9142L14.6561 20.7423L5.86708 11.9533L4.67177 13.09Z" fill="black" fill-opacity="0.85"/>
</svg>
