<svg width="32" height="27" viewBox="0 0 32 27" fill="none" xmlns="http://www.w3.org/2000/svg">
<path d="M11.4687 24.3049H21.6406C22.1562 24.3049 22.5898 23.883 22.5898 23.3674C22.5898 22.8518 22.1562 22.4182 21.6406 22.4182H11.4687C10.9531 22.4182 10.5195 22.8518 10.5195 23.3674C10.5195 23.883 10.9531 24.3049 11.4687 24.3049Z" fill="#007AFF"/>
<path d="M25.1445 24.3049H30.9687C31.4844 24.3049 31.9062 23.883 31.9062 23.3674C31.9062 22.8518 31.4844 22.4182 30.9687 22.4182H25.1445C24.6289 22.4182 24.1953 22.8518 24.1953 23.3674C24.1953 23.883 24.6289 24.3049 25.1445 24.3049Z" fill="#007AFF"/>
<path d="M1.8242 20.215L6.37107 24.7501C8.78513 27.1642 11.7734 27.1759 14.0469 24.9025L25.3437 13.6056C27.0078 11.9415 27.0078 9.44545 25.3086 7.74623L18.8281 1.2892C17.1289 -0.410019 14.6445 -0.433456 12.9687 1.24232L1.68357 12.5392C-0.589867 14.8126 -0.578148 17.8009 1.8242 20.215Z" fill="white"/>
<path d="M2.96181 19.0901L7.50869 23.6135C9.2665 25.3713 11.247 25.4416 12.9228 23.7776L24.2079 12.469C25.2509 11.4377 25.2392 9.94944 24.1728 8.88303L17.704 2.41428C16.6376 1.34787 15.1493 1.32444 14.1063 2.3674L2.80947 13.6643C1.14541 15.3401 1.21572 17.3205 2.96181 19.0901ZM4.29775 17.7541C3.39541 16.8401 3.36025 15.7971 4.204 14.9299L15.372 3.77365C15.6649 3.46897 16.0868 3.46897 16.3798 3.76194L22.8251 10.2073C23.1181 10.5002 23.1063 10.9104 22.8134 11.2034L11.6454 22.3713C10.7899 23.2385 9.74697 23.1916 8.84463 22.2776L4.29775 17.7541ZM4.67275 13.0901L13.4853 21.9143L14.6571 20.7424L5.86806 11.9534L4.67275 13.0901Z" fill="black" fill-opacity="0.85"/>
</svg>
