<svg width="24" height="24" viewBox="0 0 24 24" fill="none" xmlns="http://www.w3.org/2000/svg">
<path d="M11.9414 23.8956C18.4805 23.8956 23.8945 18.4698 23.8945 11.9424C23.8945 5.40338 18.5508 0.153382 12.2344 0.00103853C11.5547 -0.022399 11.0391 0.352601 11.0391 0.950257C11.0391 1.48932 11.4141 1.94635 12.0938 1.96979C17.5898 2.14557 21.8906 6.41119 21.9023 11.9424C21.9141 17.4737 17.4727 21.9034 11.9414 21.9034C6.17578 21.9034 1.99219 17.2393 1.99219 11.9073C1.99219 11.2276 1.51172 10.8526 0.972656 10.8526C0.375 10.8526 0 11.3565 0 12.0479C0.0117188 18.4464 5.41406 23.8956 11.9414 23.8956Z" fill="#007AFF"/>
<path d="M11.0859 12.3877C11.6836 12.3877 12.1172 11.9423 12.1172 11.3564C12.1172 11.0869 12 10.8056 11.7891 10.5947L5.67188 4.48926L3.42188 2.48535C4.72266 2.64942 6.36328 2.6377 6.9375 2.6377C7.46484 2.6377 7.88672 2.2041 7.88672 1.67676C7.88672 1.14942 7.46484 0.727539 6.9375 0.727539H1.67578C0.902344 0.727539 0.480469 1.1377 0.480469 1.91113V7.17285C0.480469 7.7002 0.914062 8.12207 1.42969 8.12207C1.94531 8.12207 2.36719 7.7002 2.36719 7.17285C2.36719 6.62207 2.36719 4.86426 2.25 3.65723L4.23047 5.91895L10.3477 12.0478C10.5703 12.2705 10.8164 12.3877 11.0859 12.3877Z" fill="black" fill-opacity="0.85"/>
</svg>
