<svg width="22" height="22" viewBox="0 0 22 22" fill="none" xmlns="http://www.w3.org/2000/svg">
<path d="M0 17.9648C0 20.3906 1.23047 21.5977 3.67969 21.5977H18.0469C20.4961 21.5977 21.7266 20.3789 21.7266 17.9648V3.65625C21.7266 1.24219 20.4961 0.0234375 18.0469 0.0234375H3.67969C1.23047 0.0234375 0 1.23047 0 3.65625V17.9648ZM1.88672 17.8711V3.75C1.88672 2.53125 2.53125 1.91016 3.70312 1.91016H4.81641V3.50391C4.81641 3.90234 5.12109 4.21875 5.51953 4.21875C5.91797 4.21875 6.23438 3.90234 6.23438 3.50391V1.91016H8.37891V3.50391C8.37891 3.90234 8.68359 4.21875 9.09375 4.21875C9.49219 4.21875 9.79688 3.90234 9.79688 3.50391V1.91016H11.9531V3.50391C11.9531 3.90234 12.2578 4.21875 12.6562 4.21875C13.0664 4.21875 13.3711 3.90234 13.3711 3.50391V1.91016H15.5156V3.50391C15.5156 3.90234 15.8203 4.21875 16.2305 4.21875C16.6289 4.21875 16.9336 3.90234 16.9336 3.50391V1.91016H18.0117C19.1719 1.91016 19.8398 2.53125 19.8398 3.75V17.8711C19.8398 19.0898 19.1719 19.7109 18.0117 19.7109H16.9336V18.1172C16.9336 17.707 16.6289 17.4023 16.2305 17.4023C15.8203 17.4023 15.5156 17.707 15.5156 18.1172V19.7109H13.3711V18.1172C13.3711 17.707 13.0664 17.4023 12.6562 17.4023C12.2578 17.4023 11.9531 17.707 11.9531 18.1172V19.7109H9.79688V18.1172C9.79688 17.707 9.49219 17.4023 9.09375 17.4023C8.68359 17.4023 8.37891 17.707 8.37891 18.1172V19.7109H6.23438V18.1172C6.23438 17.707 5.91797 17.4023 5.51953 17.4023C5.12109 17.4023 4.81641 17.707 4.81641 18.1172V19.7109H3.70312C2.53125 19.7109 1.88672 19.0898 1.88672 17.8711ZM5.08594 14.25C5.08594 14.8711 5.49609 15.2695 6.12891 15.2695H15.5977C16.2305 15.2695 16.6406 14.8711 16.6406 14.25V7.37109C16.6406 6.75 16.2305 6.35156 15.5977 6.35156H6.12891C5.49609 6.35156 5.08594 6.75 5.08594 7.37109V14.25Z" fill="black" fill-opacity="0.85"/>
</svg>
