<svg width="22" height="22" viewBox="0 0 22 22" fill="none" xmlns="http://www.w3.org/2000/svg">
<path d="M0 17.9648C0 20.3906 1.23047 21.5977 3.67969 21.5977H4.41797V19.3359C4.41797 18.9141 4.74609 18.5859 5.17969 18.5859C5.61328 18.5859 5.94141 18.9141 5.94141 19.3359V21.5977H8.21484V19.3359C8.21484 18.9141 8.54297 18.5859 8.97656 18.5859C9.41016 18.5859 9.73828 18.9141 9.73828 19.3359V21.5977H12.0117V19.3359C12.0117 18.9141 12.3398 18.5859 12.7734 18.5859C13.207 18.5859 13.5352 18.9141 13.5352 19.3359V21.5977H15.8086V19.3359C15.8086 18.9141 16.1367 18.5859 16.5703 18.5859C17.0039 18.5859 17.332 18.9141 17.332 19.3359V21.5977H18.0469C20.4961 21.5977 21.7266 20.3789 21.7266 17.9648V3.65625C21.7266 1.24219 20.4961 0.0234375 18.0469 0.0234375H17.332V2.28516C17.332 2.70703 17.0039 3.03516 16.5703 3.03516C16.1367 3.03516 15.8086 2.70703 15.8086 2.28516V0.0234375H13.5352V2.28516C13.5352 2.70703 13.207 3.03516 12.7734 3.03516C12.3398 3.03516 12.0117 2.70703 12.0117 2.28516V0.0234375H9.73828V2.28516C9.73828 2.70703 9.41016 3.03516 8.97656 3.03516C8.54297 3.03516 8.21484 2.70703 8.21484 2.28516V0.0234375H5.94141V2.28516C5.94141 2.70703 5.61328 3.03516 5.17969 3.03516C4.74609 3.03516 4.41797 2.70703 4.41797 2.28516V0.0234375H3.67969C1.23047 0.0234375 0 1.23047 0 3.65625V17.9648ZM4.72266 14.4609V7.16016C4.72266 6.50391 5.17969 6.07031 5.83594 6.07031H15.8906C16.5586 6.07031 16.9922 6.50391 16.9922 7.16016V14.4609C16.9922 15.1172 16.5586 15.5508 15.8906 15.5508H5.83594C5.17969 15.5508 4.72266 15.1172 4.72266 14.4609Z" fill="black" fill-opacity="0.85"/>
</svg>
