<svg width="24" height="24" viewBox="0 0 24 24" fill="none" xmlns="http://www.w3.org/2000/svg">
<path d="M11.9531 23.9062C18.4922 23.9062 23.9062 18.4805 23.9062 11.9531C23.9062 5.41406 18.4805 0 11.9414 0C5.41406 0 0 5.41406 0 11.9531C0 18.4805 5.42578 23.9062 11.9531 23.9062ZM11.9531 21.9141C6.42188 21.9141 2.00391 17.4844 2.00391 11.9531C2.00391 6.42188 6.41016 1.99219 11.9414 1.99219C17.4727 1.99219 21.9141 6.42188 21.9141 11.9531C21.9141 17.4844 17.4844 21.9141 11.9531 21.9141Z" fill="#007AFF"/>
<path d="M12.1875 17.6133C14.1797 17.6133 15.7617 16.7695 16.3711 15.0586C16.4414 14.8711 16.4883 14.6719 16.4883 14.4609C16.4883 14.0391 16.1953 13.7461 15.7734 13.7461C15.375 13.7461 15.1406 13.9688 15.0117 14.3672C14.6836 15.5625 13.5352 16.207 12.2344 16.207C10.207 16.207 9.10547 14.2617 9.10547 11.9766C9.10547 9.69141 10.2305 7.76953 12.2344 7.76953C13.4414 7.76953 14.5664 8.4375 14.9297 9.64453C15.0703 10.0898 15.2695 10.2539 15.6797 10.2539C16.125 10.2539 16.4062 9.97266 16.4062 9.53906C16.4062 9.33984 16.3594 9.14062 16.2891 8.95312C15.7148 7.37109 14.0977 6.36328 12.1875 6.36328C9.36328 6.36328 7.53516 8.63672 7.53516 11.9766C7.53516 15.2109 9.21094 17.6133 12.1875 17.6133ZM6.60938 11.332H12.457C12.7852 11.332 13.0312 11.0742 13.0312 10.7578C13.0312 10.4062 12.7852 10.1719 12.457 10.1719H6.60938C6.28125 10.1719 6.03516 10.4062 6.03516 10.7578C6.03516 11.0742 6.28125 11.332 6.60938 11.332ZM6.60938 13.7109H12.457C12.7852 13.7109 13.0312 13.4531 13.0312 13.125C13.0312 12.7852 12.7852 12.5508 12.457 12.5508H6.60938C6.28125 12.5508 6.03516 12.7852 6.03516 13.125C6.03516 13.4531 6.28125 13.7109 6.60938 13.7109Z" fill="black" fill-opacity="0.85"/>
</svg>
