<svg width="22" height="22" viewBox="0 0 22 22" fill="none" xmlns="http://www.w3.org/2000/svg">
<path d="M3.67969 21.5977H17.8945C20.3555 21.5977 21.5742 20.3789 21.5742 17.9648V3.65625C21.5742 1.24219 20.3555 0.0234375 17.8945 0.0234375H3.67969C1.23047 0.0234375 0 1.23047 0 3.65625V17.9648C0 20.3906 1.23047 21.5977 3.67969 21.5977Z" fill="#FFCC00"/>
<path d="M5.47266 15.668C4.91016 15.668 4.64062 15.2812 4.64062 14.7773V6.79688C4.64062 6.26953 4.92188 5.90625 5.47266 5.90625H9.10547C9.55078 5.90625 9.8672 6.17578 9.8672 6.60938C9.8672 7.11328 9.50391 7.33594 9.10547 7.33594H6.36328V10.043H9C9.39844 10.043 9.66797 10.2539 9.66797 10.7227C9.66797 11.168 9.38672 11.3906 9 11.3906H6.36328V14.25H9.10547C9.50391 14.25 9.8672 14.4727 9.8672 14.9648C9.8672 15.4102 9.5625 15.668 9.10547 15.668H5.47266ZM12.0234 15.668C11.5312 15.668 11.168 15.3633 11.168 14.8594C11.168 14.6016 11.2617 14.3203 11.3438 14.1562L15.1289 7.39453V7.33594H11.9297C11.4961 7.33594 11.1797 7.05469 11.1797 6.62109C11.1797 6.19922 11.4961 5.90625 11.9297 5.90625H16.1367C16.5938 5.90625 17.0039 6.17578 17.0039 6.76172C17.0039 7.06641 16.9219 7.25391 16.8047 7.44141L13.0898 14.1211V14.25H16.4648C16.8984 14.25 17.168 14.5312 17.168 14.9531C17.168 15.3633 16.8984 15.668 16.4648 15.668H12.0234Z" fill="black" fill-opacity="0.85"/>
</svg>
