<svg width="22" height="22" viewBox="0 0 22 22" fill="none" xmlns="http://www.w3.org/2000/svg">
<path d="M3.67969 21.5977H17.8945C20.3555 21.5977 21.5742 20.3789 21.5742 17.9648V3.65625C21.5742 1.24219 20.3555 0.0234375 17.8945 0.0234375H3.67969C1.23047 0.0234375 0 1.23047 0 3.65625V17.9648C0 20.3906 1.23047 21.5977 3.67969 21.5977ZM3.70312 19.7109C2.53125 19.7109 1.88672 19.0898 1.88672 17.8711V3.75C1.88672 2.53125 2.53125 1.91016 3.70312 1.91016H17.8711C19.0312 1.91016 19.6875 2.53125 19.6875 3.75V17.8711C19.6875 19.0898 19.0312 19.7109 17.8711 19.7109H3.70312Z" fill="#007AFF"/>
<path d="M11.0508 16.4531C13.043 16.4531 14.6133 15.6094 15.2227 13.8984C15.293 13.7109 15.3398 13.5117 15.3398 13.3008C15.3398 12.8789 15.0469 12.5859 14.625 12.5859C14.2266 12.5859 13.9922 12.8086 13.8633 13.207C13.5352 14.4023 12.3867 15.0469 11.0977 15.0469C9.05859 15.0469 7.96875 13.1016 7.96875 10.8164C7.96875 8.53125 9.08203 6.60938 11.0977 6.60938C12.293 6.60938 13.418 7.27734 13.7812 8.48438C13.9219 8.92969 14.1211 9.09375 14.5312 9.09375C14.9766 9.09375 15.2578 8.8125 15.2578 8.37891C15.2578 8.17969 15.2109 7.98047 15.1406 7.79297C14.5781 6.21094 12.9492 5.20312 11.0508 5.20312C8.21484 5.20312 6.39844 7.47656 6.39844 10.8164C6.39844 14.0508 8.0625 16.4531 11.0508 16.4531ZM5.46094 10.1719H11.3086C11.6367 10.1719 11.8828 9.91406 11.8828 9.59766C11.8828 9.24609 11.6367 9.01172 11.3086 9.01172H5.46094C5.13281 9.01172 4.89844 9.24609 4.89844 9.59766C4.89844 9.91406 5.13281 10.1719 5.46094 10.1719ZM5.46094 12.5508H11.3086C11.6367 12.5508 11.8828 12.293 11.8828 11.9648C11.8828 11.625 11.6367 11.3906 11.3086 11.3906H5.46094C5.13281 11.3906 4.89844 11.625 4.89844 11.9648C4.89844 12.293 5.13281 12.5508 5.46094 12.5508Z" fill="black" fill-opacity="0.85"/>
</svg>
