<svg width="27" height="20" viewBox="0 0 27 20" fill="none" xmlns="http://www.w3.org/2000/svg">
<path d="M1.17188 19.793H9.55078C10.1953 19.793 10.6406 19.3828 10.6406 18.75C10.6406 18.1172 10.1719 17.6953 9.55078 17.6953H2.37891V10.6875H9.19922C9.85547 10.6875 10.2305 10.2422 10.2305 9.69141C10.2305 9.08203 9.80859 8.67188 9.19922 8.67188H2.37891V2.09766H9.55078C10.1719 2.09766 10.6406 1.69922 10.6406 1.05469C10.6406 0.410156 10.1953 0 9.55078 0H1.17188C0.527344 0 0 0.421875 0 1.25391V18.5508C0 19.3828 0.527344 19.793 1.17188 19.793ZM14.8828 19.793H25.125C25.7578 19.793 26.168 19.3945 26.168 18.75C26.168 18.1055 25.7578 17.6836 25.125 17.6836H16.4648V17.5781L25.5586 2.25C25.7344 1.95703 25.9102 1.64062 25.9102 1.21875C25.9102 0.46875 25.4062 0 24.6445 0H14.8477C14.2148 0 13.7695 0.445312 13.7695 1.05469C13.7695 1.67578 14.2148 2.10938 14.8477 2.10938H23.1328V2.19141L13.9805 17.543C13.7695 17.8945 13.6523 18.1875 13.6523 18.5977C13.6523 19.3125 14.1445 19.793 14.8828 19.793Z" fill="black" fill-opacity="0.85"/>
</svg>
