<svg width="33" height="32" viewBox="0 0 33 32" fill="none" xmlns="http://www.w3.org/2000/svg">
<path d="M23.1016 28.1543V5.86523C23.1016 3.94336 22.0469 2.88867 20.125 2.88867H9.50782C7.57422 2.88867 6.54297 3.94336 6.54297 5.86523V28.1543H8.42969V5.88867C8.42969 5.16211 8.78125 4.77539 9.53125 4.77539H20.1016C20.8164 4.77539 21.2031 5.15039 21.2031 5.88867L21.2149 28.1543H23.1016ZM4.69141 28.0723C4.69141 28.5996 5.10157 29.0332 5.61719 29.0332H24.0039C24.5196 29.0332 24.9531 28.5996 24.9531 28.0723C24.9531 27.5684 24.5196 27.1465 24.0039 27.1465H5.61719C5.11328 27.1465 4.69141 27.5567 4.69141 28.0723ZM11.0664 15.791H18.5664C19.3399 15.791 19.8789 15.3223 19.8789 14.6075V7.50586C19.8789 6.79101 19.3399 6.29883 18.5664 6.29883H11.0664C10.293 6.29883 9.76563 6.79101 9.76563 7.50586V14.6075C9.76563 15.3223 10.293 15.791 11.0664 15.791ZM26.4649 10.5996H27.8008V7.98633C27.8008 7.62305 27.4961 7.31836 27.1446 7.31836C26.7578 7.31836 26.4649 7.62305 26.4649 7.98633V10.5996ZM30.8828 10.5996V7.98633C30.8828 7.62305 30.5899 7.31836 30.2149 7.31836C29.8516 7.31836 29.5469 7.62305 29.5469 7.98633V10.5996H30.8828ZM22.5625 18.3223H23.2188C23.7578 18.3223 24.0977 18.627 24.0977 19.2129V23.0918C24.0977 24.7559 25.1055 25.7637 26.7696 25.7637C28.4219 25.7637 29.418 24.7559 29.418 23.0918V17.0332C29.418 15.8731 30.2852 15.545 30.836 15.1231C31.6797 14.4903 32.1367 13.6114 32.1367 12.5684V10.8106C32.1367 10.5293 31.9727 10.3653 31.7149 10.3653H25.4688C25.211 10.3653 25.0469 10.5293 25.0469 10.8106V12.5684C25.0469 13.6114 25.5039 14.4903 26.3477 15.1231C26.8985 15.545 27.7656 15.8731 27.7656 17.0332V23.0918C27.7656 23.7246 27.3906 24.1114 26.7696 24.1114C26.125 24.1114 25.75 23.7246 25.75 23.0918V19.2129C25.75 17.5957 24.7891 16.67 23.2188 16.67H22.5625V18.3223Z" fill="#007AFF"/>
<path d="M26.042 31.2598C26.9209 32.127 28.374 32.1621 29.2529 31.2481C30.1084 30.3692 30.1553 28.9278 29.2412 28.0371L3.88184 2.68946C3.00293 1.81056 1.5498 1.79884 0.65918 2.68946C-0.219727 3.56837 -0.219727 5.03321 0.65918 5.91212L26.042 31.2598Z" fill="white"/>
<path d="M27.0029 30.2989C27.3662 30.6504 27.9404 30.6504 28.2803 30.2989C28.6318 29.9356 28.6436 29.3614 28.2803 29.0098L2.90918 3.66211C2.55762 3.31055 1.9834 3.31055 1.62012 3.66211C1.28027 4.00195 1.28027 4.59961 1.62012 4.93945L27.0029 30.2989Z" fill="black" fill-opacity="0.85"/>
</svg>
