<svg width="32" height="27" viewBox="0 0 32 27" fill="none" xmlns="http://www.w3.org/2000/svg">
<path d="M30.1875 20.9297C31.0195 20.9297 31.7227 20.25 31.7227 19.4531C31.7227 18.6445 31.0312 17.9766 30.1875 17.9766C29.332 17.9766 28.6406 18.6445 28.6406 19.4531C28.6406 20.25 29.3438 20.9297 30.1875 20.9297ZM30.1875 15.7266C30.7617 15.7266 31.1602 15.3281 31.1836 14.7305L31.4297 6.43359C31.4531 5.68359 30.9492 5.17969 30.1875 5.17969C29.4141 5.17969 28.9102 5.68359 28.9336 6.43359L29.1797 14.7305C29.2031 15.3281 29.6133 15.7266 30.1875 15.7266Z" fill="black" fill-opacity="0.85"/>
<path d="M17.2148 25.2656V2.97656C17.2148 1.05469 16.1602 0 14.25 0H4.80469C2.87109 0 1.85156 1.05469 1.85156 2.97656V25.2656H17.2148ZM5.19141 12.2344C4.33594 12.2344 3.82031 11.7656 3.82031 10.9805V3.24609C3.82031 2.46094 4.33594 1.98047 5.19141 1.98047H13.8633C14.7188 1.98047 15.2461 2.46094 15.2461 3.24609V10.9805C15.2461 11.7656 14.7188 12.2344 13.8633 12.2344H5.19141ZM0 25.1836C0 25.7109 0.410156 26.1445 0.925781 26.1445H18.1172C18.6328 26.1445 19.0664 25.7109 19.0664 25.1836C19.0664 24.6797 18.6328 24.2578 18.1172 24.2578H0.925781C0.421875 24.2578 0 24.668 0 25.1836ZM20.5781 7.71094H21.9141V5.09766C21.9141 4.73438 21.6094 4.42969 21.2578 4.42969C20.8711 4.42969 20.5781 4.73438 20.5781 5.09766V7.71094ZM24.9961 7.71094V5.09766C24.9961 4.73438 24.7031 4.42969 24.3281 4.42969C23.9648 4.42969 23.6602 4.73438 23.6602 5.09766V7.71094H24.9961ZM16.6758 15.4336H17.332C17.8711 15.4336 18.2109 15.7383 18.2109 16.3242V20.2031C18.2109 21.8672 19.2188 22.875 20.8828 22.875C22.5352 22.875 23.5312 21.8672 23.5312 20.2031V14.1445C23.5312 12.9844 24.3984 12.6562 24.9492 12.2344C25.793 11.6016 26.25 10.7227 26.25 9.67969V7.92188C26.25 7.64062 26.0859 7.47656 25.8281 7.47656H19.582C19.3242 7.47656 19.1602 7.64062 19.1602 7.92188V9.67969C19.1602 10.7227 19.6172 11.6016 20.4609 12.2344C21.0117 12.6562 21.8789 12.9844 21.8789 14.1445V20.2031C21.8789 20.8359 21.5039 21.2227 20.8828 21.2227C20.2383 21.2227 19.8633 20.8359 19.8633 20.2031V16.3242C19.8633 14.707 18.9023 13.7812 17.332 13.7812H16.6758V15.4336Z" fill="#007AFF"/>
</svg>
