<svg width="21" height="30" viewBox="0 0 21 30" fill="none" xmlns="http://www.w3.org/2000/svg">
<path d="M10.0312 17.2734C14.7422 17.2734 18.6562 13.3477 18.6562 8.63672C18.6562 3.92578 14.7305 0 10.0078 0C5.29688 0 1.39453 3.92578 1.39453 8.63672C1.39453 13.3477 5.32031 17.2734 10.0312 17.2734ZM10.0312 15.5625C6.16406 15.5625 3.11719 12.5039 3.11719 8.63672C3.11719 4.78125 6.16406 1.71094 10.0078 1.71094C13.875 1.71094 16.9453 4.78125 16.9453 8.63672C16.9453 12.5039 13.8867 15.5625 10.0312 15.5625ZM5.94141 29.8477H14.0742C17.4375 29.8477 20.0273 27.2227 20.0273 23.8945C20.0273 20.5664 17.4375 17.9414 14.0742 17.9414H5.94141C2.58984 17.9414 0 20.5664 0 23.8945C0 27.2227 2.58984 29.8477 5.94141 29.8477ZM5.94141 28.1367C3.53906 28.1367 1.6875 26.2969 1.6875 23.8945C1.6875 21.4922 3.53906 19.6523 5.94141 19.6523H14.0742C16.4883 19.6523 18.3398 21.4922 18.3398 23.8945C18.3398 26.2969 16.4883 28.1367 14.0742 28.1367H5.94141Z" fill="#007AFF"/>
<path d="M7.01953 8.01562C8.08594 8.01562 8.94141 7.16016 8.94141 6.09375C8.94141 5.01562 8.08594 4.16016 7.01953 4.16016C5.94141 4.16016 5.08594 5.01562 5.08594 6.09375C5.08594 7.16016 5.94141 8.01562 7.01953 8.01562ZM13.0078 8.01562C14.0859 8.01562 14.9414 7.16016 14.9414 6.09375C14.9414 5.01562 14.0859 4.16016 13.0078 4.16016C11.9414 4.16016 11.0859 5.01562 11.0859 6.09375C11.0859 7.16016 11.9414 8.01562 13.0078 8.01562ZM5.92969 11.9531C6.67969 11.9531 7.27734 11.3555 7.27734 10.6055C7.27734 9.85547 6.67969 9.25781 5.92969 9.25781C5.17969 9.25781 4.58203 9.85547 4.58203 10.6055C4.58203 11.3555 5.17969 11.9531 5.92969 11.9531ZM14.0977 11.9531C14.8477 11.9531 15.4453 11.3555 15.4453 10.6055C15.4453 9.85547 14.8477 9.25781 14.0977 9.25781C13.3477 9.25781 12.75 9.85547 12.75 10.6055C12.75 11.3555 13.3477 11.9531 14.0977 11.9531ZM10.0078 14.7656C11.0859 14.7656 11.9414 13.9102 11.9414 12.832C11.9414 11.7656 11.0859 10.9102 10.0078 10.9102C8.94141 10.9102 8.08594 11.7656 8.08594 12.832C8.08594 13.9102 8.94141 14.7656 10.0078 14.7656ZM5.92969 27.0234C7.66406 27.0234 9.07031 25.6289 9.07031 23.8945C9.07031 22.1602 7.66406 20.7539 5.92969 20.7539C4.19531 20.7539 2.80078 22.1602 2.80078 23.8945C2.80078 25.6289 4.19531 27.0234 5.92969 27.0234ZM14.0859 27.0234C15.832 27.0234 17.2266 25.6289 17.2266 23.8945C17.2266 22.1602 15.832 20.7539 14.0859 20.7539C12.3516 20.7539 10.957 22.1602 10.957 23.8945C10.957 25.6289 12.3516 27.0234 14.0859 27.0234Z" fill="black" fill-opacity="0.85"/>
</svg>
