<svg width="27" height="26" viewBox="0 0 27 26" fill="none" xmlns="http://www.w3.org/2000/svg">
<path d="M13.2539 25.1367C20.5664 25.1367 26.5078 19.1953 26.5078 11.8828C26.5078 7.00781 23.8711 2.75391 20.1445 0.585938C19.4648 0.1875 18.7734 0 17.9766 0H8.53125C7.73438 0 7.04297 0.1875 6.36328 0.585938C2.63672 2.75391 0 7.00781 0 11.8828C0 19.1953 5.94141 25.1367 13.2539 25.1367Z" fill="#FFCC00"/>
<path d="M9.32812 6.94922C8.4375 6.94922 7.69922 6.22266 7.69922 5.32031C7.69922 4.41797 8.4375 3.67969 9.32812 3.67969C10.2305 3.67969 10.9688 4.41797 10.9688 5.32031C10.9688 6.22266 10.2305 6.94922 9.32812 6.94922ZM13.2539 6.94922C12.3516 6.94922 11.625 6.22266 11.625 5.32031C11.625 4.41797 12.3516 3.67969 13.2539 3.67969C14.1562 3.67969 14.8828 4.41797 14.8828 5.32031C14.8828 6.22266 14.1562 6.94922 13.2539 6.94922ZM17.1797 6.94922C16.2773 6.94922 15.5391 6.22266 15.5391 5.32031C15.5391 4.41797 16.2773 3.67969 17.1797 3.67969C18.082 3.67969 18.8086 4.41797 18.8086 5.32031C18.8086 6.22266 18.082 6.94922 17.1797 6.94922ZM13.2539 10.875C12.3516 10.875 11.625 10.1367 11.625 9.24609C11.625 8.34375 12.3516 7.60547 13.2539 7.60547C14.1562 7.60547 14.8828 8.34375 14.8828 9.24609C14.8828 10.1367 14.1562 10.875 13.2539 10.875ZM7.25391 15.457C5.27344 15.457 3.65625 13.8516 3.65625 11.8711C3.65625 9.90234 5.27344 8.29688 7.25391 8.29688C9.22266 8.29688 10.8281 9.90234 10.8281 11.8711C10.8281 13.8516 9.22266 15.457 7.25391 15.457ZM19.2539 15.457C17.2852 15.457 15.6797 13.8516 15.6797 11.8711C15.6797 9.90234 17.2852 8.29688 19.2539 8.29688C21.2344 8.29688 22.8516 9.90234 22.8516 11.8711C22.8516 13.8516 21.2344 15.457 19.2539 15.457ZM8.17969 19.9336C7.35938 19.9336 6.69141 19.2656 6.69141 18.457C6.69141 17.6484 7.35938 16.9688 8.17969 16.9688C8.98828 16.9688 9.65625 17.6484 9.65625 18.457C9.65625 19.2656 8.98828 19.9336 8.17969 19.9336ZM13.2539 20.9648C11.8711 20.9648 10.7461 19.8281 10.7461 18.457C10.7461 17.0742 11.8711 15.9375 13.2539 15.9375C14.6367 15.9375 15.7617 17.0742 15.7617 18.457C15.7617 19.8281 14.6367 20.9648 13.2539 20.9648ZM18.3398 19.9336C17.5195 19.9336 16.8516 19.2656 16.8516 18.457C16.8516 17.6484 17.5195 16.9688 18.3398 16.9688C19.1484 16.9688 19.8164 17.6484 19.8164 18.457C19.8164 19.2656 19.1484 19.9336 18.3398 19.9336Z" fill="black" fill-opacity="0.85"/>
</svg>
