<svg width="25" height="22" viewBox="0 0 25 22" fill="none" xmlns="http://www.w3.org/2000/svg">
<path d="M12.2344 21.5508C19.0898 21.5508 24.4805 16.1719 24.4805 9.71484C24.4805 6.30469 22.9805 3.22266 20.8594 1.20703C19.9688 0.375 18.9961 0 17.6719 0H6.79688C5.48438 0 4.51172 0.375 3.62109 1.20703C1.48828 3.22266 0 6.30469 0 9.71484C0 16.1719 5.39062 21.5508 12.2344 21.5508ZM12.2344 19.5469C6.21094 19.5469 2.00391 15.3398 2.00391 9.71484C2.00391 6.77344 3.12891 4.42969 4.99219 2.67188C5.57812 2.10938 5.87109 2.00391 6.79688 2.00391H17.6719C18.5977 2.00391 18.8906 2.10938 19.4766 2.67188C21.3398 4.42969 22.4766 6.77344 22.4766 9.71484C22.4766 15.3398 18.2578 19.5469 12.2344 19.5469Z" fill="#007AFF"/>
<path d="M9.15234 6.98438C10.1836 6.98438 11.0273 6.14062 11.0273 5.10938C11.0273 4.06641 10.1836 3.22266 9.15234 3.22266C8.10938 3.22266 7.26562 4.06641 7.26562 5.10938C7.26562 6.14062 8.10938 6.98438 9.15234 6.98438ZM15.3281 6.98438C16.3711 6.98438 17.2148 6.14062 17.2148 5.10938C17.2148 4.06641 16.3711 3.22266 15.3281 3.22266C14.2852 3.22266 13.4414 4.06641 13.4414 5.10938C13.4414 6.14062 14.2852 6.98438 15.3281 6.98438ZM6.05858 12.3516C7.51171 12.3516 8.68359 11.168 8.68359 9.71484C8.68359 8.26172 7.51171 7.07812 6.05858 7.07812C4.59374 7.07812 3.42188 8.26172 3.42188 9.71484C3.42188 11.168 4.59374 12.3516 6.05858 12.3516ZM12.2344 12.3516C13.6992 12.3516 14.8711 11.168 14.8711 9.71484C14.8711 8.26172 13.6992 7.07812 12.2344 7.07812C10.7812 7.07812 9.60938 8.26172 9.60938 9.71484C9.60938 11.168 10.7812 12.3516 12.2344 12.3516ZM18.4219 12.3516C19.875 12.3516 21.0586 11.168 21.0586 9.71484C21.0586 8.26172 19.875 7.07812 18.4219 7.07812C16.9688 7.07812 15.7852 8.26172 15.7852 9.71484C15.7852 11.168 16.9688 12.3516 18.4219 12.3516ZM9.14062 17.7773C10.6055 17.7773 11.7773 16.5938 11.7773 15.1406C11.7773 13.6875 10.6055 12.5039 9.14062 12.5039C7.6875 12.5039 6.51562 13.6875 6.51562 15.1406C6.51562 16.5938 7.6875 17.7773 9.14062 17.7773ZM15.3281 17.7773C16.793 17.7773 17.9648 16.5938 17.9648 15.1406C17.9648 13.6875 16.793 12.5039 15.3281 12.5039C13.875 12.5039 12.6914 13.6875 12.6914 15.1406C12.6914 16.5938 13.875 17.7773 15.3281 17.7773Z" fill="black" fill-opacity="0.85"/>
</svg>
