<svg width="25" height="23" viewBox="0 0 25 23" fill="none" xmlns="http://www.w3.org/2000/svg">
<path d="M3.19922 22.2656H21.3633C23.3555 22.2656 24.5625 20.8828 24.5625 19.0898C24.5625 18.5391 24.3984 17.9648 24.1055 17.4492L15.0117 1.60547C14.4023 0.539062 13.3594 0 12.2812 0C11.2031 0 10.1484 0.539062 9.55078 1.60547L0.457031 17.4492C0.140625 17.9766 0 18.5391 0 19.0898C0 20.8828 1.20703 22.2656 3.19922 22.2656Z" fill="#FFCC00"/>
<path d="M12.293 14.4375C11.6836 14.4375 11.3438 14.0859 11.332 13.4648L11.1797 7.08984C11.168 6.46875 11.625 6.02344 12.2812 6.02344C12.9141 6.02344 13.4062 6.48047 13.3945 7.10156L13.2188 13.4648C13.207 14.0977 12.8672 14.4375 12.293 14.4375ZM12.293 18.3633C11.5898 18.3633 10.9805 17.8008 10.9805 17.1094C10.9805 16.4062 11.5781 15.8438 12.293 15.8438C12.9961 15.8438 13.5938 16.3945 13.5938 17.1094C13.5938 17.8125 12.9844 18.3633 12.293 18.3633Z" fill="black" fill-opacity="0.85"/>
</svg>
