<svg width="20" height="24" viewBox="0 0 20 24" fill="none" xmlns="http://www.w3.org/2000/svg">
<path d="M9.58594 23.6602C9.77344 23.6602 10.0664 23.5898 10.3594 23.4375C17.0273 19.9453 19.1719 18.1992 19.1719 13.9922V5.15625C19.1719 3.94922 18.6562 3.5625 17.6719 3.15234C16.3008 2.58984 11.918 0.996094 10.5586 0.527344C10.2422 0.421875 9.91406 0.363281 9.58594 0.363281C9.25781 0.363281 8.92969 0.433594 8.625 0.527344C7.25391 0.972656 2.87109 2.60156 1.5 3.15234C0.527344 3.55078 0 3.94922 0 5.15625V13.9922C0 18.1992 2.26172 19.7461 8.8125 23.4375C9.11719 23.6016 9.39844 23.6602 9.58594 23.6602Z" fill="#FFCC00"/>
<path d="M9.58594 13.7578C8.97656 13.7578 8.64844 13.418 8.63672 12.7969L8.47266 6.41016C8.46094 5.78906 8.91797 5.34375 9.57422 5.34375C10.2188 5.34375 10.6992 5.80078 10.6875 6.42188L10.5234 12.7969C10.5117 13.4297 10.1719 13.7578 9.58594 13.7578ZM9.58594 17.6836C8.88281 17.6836 8.27344 17.1211 8.27344 16.4297C8.27344 15.7383 8.87109 15.1641 9.58594 15.1641C10.3008 15.1641 10.8984 15.7266 10.8984 16.4297C10.8984 17.1328 10.2891 17.6836 9.58594 17.6836Z" fill="black" fill-opacity="0.85"/>
</svg>
