<svg width="34" height="23" viewBox="0 0 34 23" fill="none" xmlns="http://www.w3.org/2000/svg">
<path d="M0 11.4258C0 15.1406 1.20703 18.5508 3.24609 21.3281C3.60938 21.832 4.23047 21.8789 4.69922 21.5039C5.12109 21.1406 5.17969 20.5781 4.83984 20.1094C3.05859 17.6836 2.00391 14.6719 2.00391 11.4258C2.00391 8.16793 3.05859 5.16793 4.83984 2.71871C5.17969 2.2734 5.13281 1.69918 4.69922 1.3359C4.23047 0.960895 3.60938 1.01949 3.24609 1.51168C1.20703 4.28902 0 7.7109 0 11.4258ZM33.4453 11.4258C33.4453 7.7109 32.25 4.28902 30.1992 1.51168C29.8359 1.01949 29.2148 0.960895 28.7461 1.3359C28.3125 1.69918 28.2773 2.2734 28.6055 2.71871C30.3984 5.16793 31.4414 8.16793 31.4414 11.4258C31.4414 14.6719 30.3984 17.6836 28.6055 20.1094C28.2773 20.5781 28.3242 21.1406 28.7461 21.5039C29.2148 21.8789 29.8359 21.832 30.1992 21.3281C32.25 18.5508 33.4453 15.1406 33.4453 11.4258Z" fill="#007AFF"/>
<path d="M16.7227 22.8516C22.9688 22.8516 28.1602 17.6719 28.1602 11.4258C28.1602 5.17969 22.9688 0 16.7109 0C10.4648 0 5.29688 5.16797 5.29688 11.4258C5.29688 17.6719 10.4766 22.8516 16.7227 22.8516ZM16.7227 20.8594C11.4961 20.8594 7.30078 16.6641 7.30078 11.4258C7.30078 6.17578 11.4844 1.98047 16.7109 1.98047C21.9492 1.98047 26.1562 6.17578 26.168 11.4258C26.1797 16.6523 21.9727 20.8594 16.7227 20.8594Z" fill="#007AFF"/>
<path d="M16.7109 13.5352C17.2734 13.5352 17.5898 13.2188 17.6016 12.6094L17.7773 6.42188C17.7891 5.82422 17.3203 5.37891 16.6992 5.37891C16.0664 5.37891 15.6211 5.8125 15.6328 6.41016L15.7852 12.6094C15.7969 13.207 16.125 13.5352 16.7109 13.5352ZM16.7109 17.3438C17.3789 17.3438 17.9648 16.8047 17.9648 16.125C17.9648 15.4453 17.3906 14.9062 16.7109 14.9062C16.0195 14.9062 15.4453 15.457 15.4453 16.125C15.4453 16.793 16.0312 17.3438 16.7109 17.3438Z" fill="black" fill-opacity="0.85"/>
</svg>
