<svg width="16" height="24" viewBox="0 0 16 24" fill="none" xmlns="http://www.w3.org/2000/svg">
<path d="M2.63672 22.9805H13.3594C15.082 22.9805 15.9961 22.043 15.9961 20.1914V12.1172C15.9961 10.2773 15.082 9.33984 13.3594 9.33984H2.63672C0.914062 9.33984 0 10.2773 0 12.1172V20.1914C0 22.043 0.914062 22.9805 2.63672 22.9805ZM2.69531 21.2109C2.19141 21.2109 1.89844 20.8945 1.89844 20.3203V11.9883C1.89844 11.4141 2.19141 11.1094 2.69531 11.1094H13.3008C13.8164 11.1094 14.0977 11.4141 14.0977 11.9883V20.3203C14.0977 20.8945 13.8164 21.2109 13.3008 21.2109H2.69531ZM2.05078 10.2422H3.91406V6.29297C3.91406 3.32812 5.80078 1.76953 7.99219 1.76953C10.1836 1.76953 12.0938 3.32812 12.0938 6.29297V10.2422H13.9453V6.53906C13.9453 2.13281 11.0625 0 7.99219 0C4.93359 0 2.05078 2.13281 2.05078 6.53906V10.2422Z" fill="#007AFF"/>
<path d="M7.99219 17.3438C8.41406 17.3438 8.64844 17.0859 8.66016 16.6641L8.77734 12.9141C8.78906 12.4805 8.44922 12.1523 7.99219 12.1523C7.52344 12.1523 7.19531 12.4688 7.20703 12.9023L7.32422 16.6641C7.33594 17.0859 7.57031 17.3438 7.99219 17.3438ZM7.99219 19.9219C8.50781 19.9219 8.9297 19.5117 8.9297 19.0195C8.9297 18.5039 8.50781 18.1055 7.99219 18.1055C7.48828 18.1055 7.07812 18.5156 7.07812 19.0195C7.07812 19.5117 7.5 19.9219 7.99219 19.9219Z" fill="black" fill-opacity="0.85"/>
</svg>
