<svg width="22" height="22" viewBox="0 0 22 22" fill="none" xmlns="http://www.w3.org/2000/svg">
<path d="M3.67969 21.5977H17.8945C20.3555 21.5977 21.5742 20.3789 21.5742 17.9648V3.65625C21.5742 1.24219 20.3555 0.0234375 17.8945 0.0234375H3.67969C1.23047 0.0234375 0 1.23047 0 3.65625V17.9648C0 20.3906 1.23047 21.5977 3.67969 21.5977Z" fill="#FFCC00"/>
<path d="M10.793 12.9727C10.1836 12.9727 9.85547 12.6328 9.84375 12.0117L9.67969 5.625C9.66797 5.00391 10.125 4.55859 10.7812 4.55859C11.4258 4.55859 11.9062 5.01562 11.8945 5.63672L11.7305 12.0117C11.7188 12.6445 11.3789 12.9727 10.793 12.9727ZM10.793 16.8984C10.0898 16.8984 9.48047 16.3359 9.48047 15.6445C9.48047 14.9531 10.0781 14.3789 10.793 14.3789C11.5078 14.3789 12.1055 14.9414 12.1055 15.6445C12.1055 16.3477 11.4961 16.8984 10.793 16.8984Z" fill="black" fill-opacity="0.85"/>
</svg>
