<svg width="25" height="27" viewBox="0 0 25 27" fill="none" xmlns="http://www.w3.org/2000/svg">
<path d="M0 13.207C0 15.9727 2.14453 18.0117 5.0625 18.0117H19.7812C22.6992 18.0117 24.8438 15.9727 24.8438 13.207C24.8438 12.4102 24.6328 11.6836 24.3516 11.0273L20.8242 2.57812C20.1328 0.902344 18.7148 0 16.7578 0H8.08594C6.14062 0 4.69922 0.902344 4.00781 2.57812L0.492188 11.0273C0.199219 11.707 0 12.4219 0 13.207ZM3.63281 8.61328L5.82422 3.09375C6.19922 2.13281 7.00781 1.64062 8.17969 1.64062H16.6758C17.8477 1.64062 18.6562 2.13281 19.0312 3.09375L21.2227 8.61328C20.7656 8.47266 20.2852 8.39062 19.7812 8.39062H5.0625C4.55859 8.39062 4.07812 8.47266 3.63281 8.61328ZM1.86328 13.207C1.86328 11.4844 3.17578 10.2656 5.0625 10.2656H19.7812C21.668 10.2656 22.9805 11.4844 22.9805 13.207C22.9805 15.0469 21.7852 16.1484 19.7812 16.1484H5.0625C3.17578 16.1484 1.86328 14.9297 1.86328 13.207ZM18.375 13.207C18.375 13.9688 18.9961 14.6016 19.7695 14.5898C20.5195 14.5781 21.1523 13.957 21.1523 13.207C21.1523 12.457 20.5078 11.8242 19.7695 11.8242C19.0195 11.8242 18.375 12.457 18.375 13.207ZM11.2734 23.1797H13.1602V16.8281H11.2734V23.1797ZM2.47266 24.1172H21.9609C22.4766 24.1172 22.9102 23.6953 22.9102 23.1797C22.9102 22.6641 22.4766 22.2305 21.9609 22.2305H2.47266C1.95703 22.2305 1.53516 22.6641 1.53516 23.1797C1.53516 23.6953 1.95703 24.1172 2.47266 24.1172ZM12.2227 25.9219C13.7109 25.9219 14.9414 24.6914 14.9414 23.1914C14.9414 21.7031 13.7109 20.4727 12.2227 20.4727C10.7227 20.4727 9.49219 21.7031 9.49219 23.1914C9.49219 24.6914 10.7227 25.9219 12.2227 25.9219Z" fill="black" fill-opacity="0.85"/>
</svg>
