<svg width="24" height="24" viewBox="0 0 24 24" fill="none" xmlns="http://www.w3.org/2000/svg">
<path d="M11.9609 23.9077C18.5 23.9077 23.914 18.482 23.914 11.9546C23.914 5.41552 18.4883 0.00146484 11.9492 0.00146484C5.42187 0.00146484 0.0078125 5.41552 0.0078125 11.9546C0.0078125 18.482 5.43359 23.9077 11.9609 23.9077ZM11.9609 21.9156C6.42969 21.9156 2.01172 17.4859 2.01172 11.9546C2.01172 6.42335 6.41797 1.99365 11.9492 1.99365C17.4805 1.99365 21.9219 6.42335 21.9219 11.9546C21.9219 17.4859 17.4922 21.9156 11.9609 21.9156Z" fill="#007AFF"/>
<path d="M11.9492 16.9117C16.6016 16.9117 19.8359 13.1382 19.8359 11.9663C19.8359 10.7827 16.5898 7.00928 11.9492 7.00928C7.30859 7.00928 4.05078 10.7827 4.05078 11.9663C4.05078 13.1382 7.34375 16.9117 11.9492 16.9117ZM11.9492 15.2007C10.1445 15.2007 8.70312 13.7242 8.70312 11.9663C8.6914 10.1499 10.1445 8.72022 11.9492 8.72022C13.7422 8.72022 15.1953 10.1499 15.1953 11.9663C15.1953 13.7242 13.7422 15.2007 11.9492 15.2007ZM11.9609 13.3843C12.7226 13.3843 13.3789 12.7163 13.3789 11.9663C13.3789 11.2046 12.7226 10.5367 11.9609 10.5367C11.1875 10.5367 10.5195 11.2046 10.5195 11.9663C10.5195 12.7163 11.1875 13.3843 11.9609 13.3843Z" fill="black" fill-opacity="0.85"/>
</svg>
