<svg width="33" height="25" viewBox="0 0 33 25" fill="none" xmlns="http://www.w3.org/2000/svg">
<path d="M16.0195 22.3828C25.4883 22.3828 32.0273 14.7305 32.0273 12.3398C32.0273 9.9375 25.4766 2.29688 16.0195 2.29688C6.67969 2.29688 0 9.9375 0 12.3398C0 14.7305 6.66797 22.3828 16.0195 22.3828ZM16.0195 20.5312C8.29688 20.5312 2.05078 13.9922 2.05078 12.3398C2.05078 10.9453 8.29688 4.14843 16.0195 4.14843C23.707 4.14843 29.9766 10.9453 29.9766 12.3398C29.9766 13.9922 23.707 20.5312 16.0195 20.5312ZM16.0195 18.9023C19.6641 18.9023 22.5938 15.9141 22.5938 12.3398C22.5938 8.67188 19.6641 5.77733 16.0195 5.77733C12.3516 5.77733 9.42188 8.67188 9.42188 12.3398C9.42188 15.9141 12.3516 18.9023 16.0195 18.9023ZM16.0195 14.5195C14.8008 14.5195 13.8164 13.5352 13.8164 12.3398C13.8164 11.1328 14.8008 10.1602 16.0195 10.1602C17.2266 10.1602 18.2109 11.1328 18.2109 12.3398C18.2109 13.5352 17.2266 14.5195 16.0195 14.5195Z" fill="#007AFF"/>
<path d="M23.9638 23.4609C24.8662 24.3516 26.2959 24.375 27.1865 23.4492C28.0888 22.5117 28.0537 21.1289 27.1748 20.25L7.58105 0.667969C6.70214 -0.222656 5.24902 -0.222656 4.3584 0.667969C3.47949 1.53516 3.47949 3 4.3584 3.87891L23.9638 23.4609Z" fill="white"/>
<path d="M24.9385 22.4883C25.2901 22.8516 25.8408 22.875 26.2158 22.4883C26.5908 22.1016 26.5674 21.5742 26.2158 21.2109L6.61036 1.62891C6.27051 1.27734 5.68457 1.27734 5.32129 1.62891C4.98145 1.96875 4.98145 2.56641 5.32129 2.90625L24.9385 22.4883Z" fill="black" fill-opacity="0.85"/>
</svg>
