<svg width="22" height="22" viewBox="0 0 22 22" fill="none" xmlns="http://www.w3.org/2000/svg">
<path d="M3.67969 21.6006H17.8945C20.3555 21.6006 21.5742 20.3818 21.5742 17.9677V3.65918C21.5742 1.24512 20.3555 0.0263672 17.8945 0.0263672H3.67969C1.23047 0.0263672 0 1.2334 0 3.65918V17.9677C0 20.3935 1.23047 21.6006 3.67969 21.6006Z" fill="#FFCC00"/>
<path d="M10.793 15.7529C6.1875 15.7529 2.89453 11.9795 2.89453 10.8076C2.89453 9.62402 6.15234 5.85059 10.793 5.85059C15.4336 5.85059 18.6797 9.62402 18.6797 10.8076C18.6797 11.9795 15.4453 15.7529 10.793 15.7529ZM10.793 14.042C12.5859 14.042 14.0391 12.5654 14.0391 10.8076C14.0391 8.99121 12.5859 7.56152 10.793 7.56152C8.98828 7.56152 7.53516 8.99121 7.54688 10.8076C7.54688 12.5654 8.98828 14.042 10.793 14.042ZM10.8164 12.2256C10.0312 12.2256 9.36328 11.5576 9.36328 10.8076C9.36328 10.0459 10.0312 9.37793 10.8164 9.37793C11.5664 9.37793 12.2227 10.0459 12.2227 10.8076C12.2227 11.5576 11.5664 12.2256 10.8164 12.2256Z" fill="black" fill-opacity="0.85"/>
</svg>
