<svg width="32" height="20" viewBox="0 0 32 20" fill="none" xmlns="http://www.w3.org/2000/svg">
<path d="M15.9023 19.9351C25.289 19.9351 31.7812 12.3413 31.7812 9.97412C31.7812 7.59521 25.2773 0.0131836 15.9023 0.0131836C6.63281 0.0131836 0.0117188 7.59521 0.0117188 9.97412C0.0117188 12.3413 6.63281 19.9351 15.9023 19.9351ZM15.9023 16.5015C12.2461 16.5015 9.33984 13.5367 9.33984 9.97412C9.33984 6.31787 12.2461 3.44677 15.9023 3.44677C19.5234 3.44677 22.4531 6.31787 22.4531 9.97412C22.4531 13.5367 19.5234 16.5015 15.9023 16.5015ZM15.9023 12.3296C17.2031 12.3296 18.2812 11.2632 18.2812 9.97412C18.2812 8.67334 17.2031 7.60694 15.9023 7.60694C14.5898 7.60694 13.5117 8.67334 13.5117 9.97412C13.5117 11.2632 14.5898 12.3296 15.9023 12.3296Z" fill="black" fill-opacity="0.85"/>
</svg>
