<svg width="22" height="22" viewBox="0 0 22 22" fill="none" xmlns="http://www.w3.org/2000/svg">
<path d="M3.67969 21.5977H17.8945C20.3555 21.5977 21.5742 20.3789 21.5742 17.9648V3.65625C21.5742 1.24219 20.3555 0.0234375 17.8945 0.0234375H3.67969C1.23047 0.0234375 0 1.23047 0 3.65625V17.9648C0 20.3906 1.23047 21.5977 3.67969 21.5977ZM3.70312 19.7109C2.53125 19.7109 1.88672 19.0898 1.88672 17.8711V3.75C1.88672 2.53125 2.53125 1.91016 3.70312 1.91016H17.8711C19.0312 1.91016 19.6875 2.53125 19.6875 3.75V17.8711C19.6875 19.0898 19.0312 19.7109 17.8711 19.7109H3.70312Z" fill="#007AFF"/>
<path d="M10.793 15.75C15.4453 15.75 18.6797 11.9766 18.6797 10.8047C18.6797 9.62109 15.4336 5.84766 10.793 5.84766C6.15234 5.84766 2.89453 9.62109 2.89453 10.8047C2.89453 11.9766 6.1875 15.75 10.793 15.75ZM10.793 14.0391C8.98828 14.0391 7.54688 12.5625 7.54688 10.8047C7.53516 8.98828 8.98828 7.55859 10.793 7.55859C12.5859 7.55859 14.0391 8.98828 14.0391 10.8047C14.0391 12.5625 12.5859 14.0391 10.793 14.0391ZM10.8164 12.2227C11.5664 12.2227 12.2227 11.5547 12.2227 10.8047C12.2227 10.043 11.5664 9.375 10.8164 9.375C10.0312 9.375 9.36328 10.043 9.36328 10.8047C9.36328 11.5547 10.0312 12.2227 10.8164 12.2227Z" fill="black" fill-opacity="0.85"/>
</svg>
