<svg width="24" height="24" viewBox="0 0 24 24" fill="none" xmlns="http://www.w3.org/2000/svg">
<path d="M11.9531 23.918C18.4922 23.918 23.9062 18.5039 23.9062 11.9648C23.9062 5.4375 18.4805 0.0117188 11.9414 0.0117188C5.41406 0.0117188 0 5.4375 0 11.9648C0 18.5039 5.42578 23.918 11.9531 23.918Z" fill="#FFCC00"/>
<path d="M11.9531 16.9219C7.34766 16.9219 4.05469 13.1484 4.05469 11.9766C4.05469 10.793 7.3125 7.03125 11.9531 7.03125C16.5938 7.03125 19.8398 10.793 19.8398 11.9766C19.8398 13.1484 16.6055 16.9219 11.9531 16.9219ZM11.9531 15.2109C13.7461 15.2109 15.1992 13.7344 15.1992 11.9766C15.1992 10.1719 13.7461 8.74219 11.9531 8.74219C10.1484 8.74219 8.69531 10.1719 8.70703 11.9766C8.70703 13.7344 10.1484 15.2109 11.9531 15.2109ZM11.9648 13.4062C11.1914 13.4062 10.5234 12.7266 10.5234 11.9766C10.5234 11.2148 11.1914 10.5469 11.9648 10.5469C12.7266 10.5469 13.3828 11.2148 13.3828 11.9766C13.3828 12.7266 12.7266 13.4062 11.9648 13.4062Z" fill="black" fill-opacity="0.85"/>
</svg>
