<svg width="25" height="21" viewBox="0 0 25 21" fill="none" xmlns="http://www.w3.org/2000/svg">
<path d="M21.7449 14.417C22.6941 13.3974 21.2878 11.9677 20.1863 13.0576C18.6394 14.5927 16.0027 15.542 13.0964 15.542C9.90891 15.542 6.87376 14.8037 3.96751 13.2217C2.64329 12.4951 1.65891 14.3818 3.03001 15.1084C6.18235 16.7841 9.61594 17.6279 13.0964 17.6279C16.6706 17.6279 19.8347 16.456 21.7449 14.417ZM5.1511 15.8584C4.88157 16.374 4.28391 17.3467 3.92063 17.7334C3.10032 18.5888 4.29563 19.6435 5.11594 18.7529C5.85423 17.9443 6.44016 16.7021 6.66282 16.3271L5.1511 15.8584ZM9.24094 16.7959C9.01829 17.8388 8.66673 18.999 8.46751 19.456C7.98704 20.5576 9.47532 21.1318 9.94407 20.0068C10.3542 18.9756 10.6355 17.4521 10.6941 17.0185L9.24094 16.7959ZM13.4949 17.0537C13.6472 18.1201 13.5886 19.3388 13.5534 19.8427C13.4949 21.0381 15.1003 21.0615 15.1238 19.8545C15.1589 18.7412 15.0183 17.206 14.9363 16.7724L13.4949 17.0537ZM17.4792 16.292C18.0769 17.4756 18.2644 18.7177 18.3699 19.2217C18.5808 20.4052 20.1511 19.8779 19.8933 18.8349C19.5769 17.5224 19.1784 16.1631 18.7331 15.5068L17.4792 16.292Z" fill="#007AFF"/>
<path d="M2.4915 9.57715C4.70635 9.57715 12.1712 4.20996 15.804 4.20996C17.0814 4.20996 18.2064 4.72559 19.39 5.80371L22.3314 8.51074C23.304 9.40137 24.6869 8.34668 24.1126 7.35059C23.597 6.50684 22.8119 5.33496 21.0775 3.41309C19.2025 1.32715 17.4915 0.00292969 14.808 0.00292969C11.3275 0.00292969 6.03057 2.01855 1.10869 4.63184C-0.988964 5.74512 0.147754 9.57715 2.4915 9.57715Z" fill="black" fill-opacity="0.85"/>
</svg>
