<svg width="25" height="25" viewBox="0 0 25 25" fill="none" xmlns="http://www.w3.org/2000/svg">
<path d="M15.5859 10.7227L10.4648 15.8438C10.0547 16.2539 9.51562 16.3828 9.10547 15.9492C8.68359 15.4805 8.77734 15.0469 9.23438 14.5781L14.3203 9.43359L13.3125 8.4375L3.84375 17.9062C0.222656 21.5273 1.96875 20.9648 0 23.7422L1.05469 24.8555C3.73828 22.8984 3.375 24.8203 7.05469 21.1523L16.5586 11.707L15.5859 10.7227ZM18.375 12.8438L18.7031 12.4805C19.2773 11.8828 19.3125 11.1797 18.6914 10.5703L18.3398 10.2305C20.1328 8.625 22.125 8.40234 23.3555 7.14844C25.1016 5.39062 24.5391 2.92969 23.3086 1.69922C22.0898 0.457036 19.6523 -0.0703076 17.8594 1.65234C16.5938 2.87109 16.3828 4.875 14.7773 6.66797L14.4375 6.31641C13.8398 5.70704 13.125 5.73047 12.5273 6.30469L12.1758 6.63281C11.4492 7.32422 11.5898 7.9336 12.1992 8.5547L16.4531 12.8086C17.0742 13.4297 17.6953 13.5586 18.375 12.8438Z" fill="black" fill-opacity="0.85"/>
</svg>
