<svg width="37" height="27" viewBox="0 0 37 27" fill="none" xmlns="http://www.w3.org/2000/svg">
<path d="M9.57422 20.7071C13.6055 20.7071 16.875 17.4375 16.875 13.3946C16.875 9.36328 13.6055 6.08203 9.57422 6.08203C5.53125 6.08203 2.25 9.36328 2.25 13.3946C2.25 17.4375 5.53125 20.7071 9.57422 20.7071ZM9.57422 18.7266C6.62109 18.7266 4.23047 16.3477 4.23047 13.3946C4.23047 10.4532 6.62109 8.0625 9.57422 8.0625C12.5039 8.0625 14.8945 10.4649 14.8945 13.3946C14.8945 16.336 12.5039 18.7266 9.57422 18.7266ZM27.4219 20.7071C31.4531 20.7071 34.7227 17.4375 34.7227 13.3946C34.7227 9.36328 31.4531 6.08203 27.4219 6.08203C23.3789 6.08203 20.0977 9.36328 20.0977 13.3946C20.0977 17.4375 23.3789 20.7071 27.4219 20.7071ZM27.4219 18.7266C24.4805 18.7266 22.0781 16.336 22.0781 13.3946C22.0781 10.4649 24.4805 8.0625 27.4219 8.0625C30.3633 8.0625 32.7422 10.4532 32.7422 13.3946C32.7422 16.3477 30.3633 18.7266 27.4219 18.7266ZM3.02344 11.9532H0.878906C0.304688 11.9532 0 12.2461 0 12.8321V13.3125C0 13.8985 0.304688 14.2032 0.878906 14.2032H3.02344V11.9532ZM33.9492 14.2032H36.1055C36.6797 14.2032 36.9727 13.8985 36.9727 13.3125V12.8321C36.9727 12.2461 36.6797 11.9532 36.1055 11.9532H33.9492V14.2032ZM16.3008 13.8164C16.8867 13.4532 17.707 13.2657 18.4922 13.2657C19.2656 13.2657 20.0859 13.4532 20.6836 13.8164V11.6953C20.0156 11.3789 19.1484 11.2617 18.4922 11.2617C17.8242 11.2617 16.957 11.3789 16.3008 11.6953V13.8164Z" fill="#007AFF"/>
<path d="M28.1953 26.1211C29.0859 27 30.5391 27 31.418 26.0977C32.2852 25.2071 32.2852 23.7891 31.4062 22.8985L9.17578 0.691406C8.29688 -0.199219 6.84375 -0.199219 5.95312 0.691406C5.07422 1.55859 5.07422 3.02344 5.95312 3.90234L28.1953 26.1211Z" fill="white"/>
<path d="M29.1562 25.1485C29.5078 25.5 30.0938 25.5 30.4336 25.1485C30.7852 24.7969 30.7852 24.2227 30.4336 23.8711L8.20312 1.65234C7.85156 1.30078 7.27734 1.30078 6.91406 1.65234C6.57422 1.99219 6.57422 2.58984 6.91406 2.92969L29.1562 25.1485Z" fill="black" fill-opacity="0.85"/>
</svg>
