<svg width="28" height="22" viewBox="0 0 28 22" fill="none" xmlns="http://www.w3.org/2000/svg">
<path d="M6.42969 21.3662C9.99219 21.3662 12.8398 17.0302 12.8398 10.6787C12.8398 4.31543 9.99219 0.00292969 6.42969 0.00292969C2.85547 0.00292969 0.0078125 4.31543 0.0078125 10.6787C0.0078125 17.0302 2.85547 21.3662 6.42969 21.3662ZM6.42969 19.7138C3.86328 19.7256 1.69531 16.0459 1.69531 10.6787C1.69531 5.34668 3.86328 1.67871 6.42969 1.65527C9.01953 1.64355 11.1875 5.31152 11.1875 10.6787C11.1875 16.0107 9.01953 19.6904 6.42969 19.7138ZM3.89843 14.8154C5.85547 14.8154 7.15625 13.456 7.15625 11.3935C7.15625 9.36621 5.85547 7.99512 3.89843 7.99512C1.92969 7.99512 0.628906 9.36621 0.628906 11.3935C0.628906 13.456 1.92969 14.8154 3.89843 14.8154ZM2.97265 10.9951C2.55078 10.9365 2.29297 10.4326 2.38672 9.91699C2.49219 9.41309 2.89062 9.03809 3.28906 9.12012C3.71093 9.20215 3.96875 9.68262 3.86328 10.1865C3.76953 10.7021 3.38281 11.0654 2.97265 10.9951ZM20.9844 21.3662C24.5586 21.3662 27.4062 17.0302 27.4062 10.6787C27.4062 4.31543 24.5586 0.00292969 20.9844 0.00292969C17.4219 0.00292969 14.5742 4.31543 14.5742 10.6787C14.5742 17.0302 17.4219 21.3662 20.9844 21.3662ZM20.9844 19.7021C18.4062 19.7021 16.2266 16.0341 16.2266 10.6787C16.2266 5.34668 18.3945 1.67871 20.9844 1.66699C23.5508 1.66699 25.7305 5.33496 25.7305 10.6787C25.7305 16.0224 23.5508 19.6904 20.9844 19.7021ZM18.4414 14.8154C20.3984 14.8154 21.7226 13.456 21.7226 11.3935C21.7226 9.36621 20.3984 7.99512 18.4414 7.99512C16.4844 7.99512 15.1719 9.36621 15.1719 11.3935C15.1719 13.456 16.4844 14.8154 18.4414 14.8154ZM17.5156 10.9951C17.1055 10.9248 16.8359 10.4326 16.9414 9.91699C17.0469 9.41309 17.4336 9.03809 17.8437 9.12012C18.2656 9.19043 18.5117 9.68262 18.4062 10.1865C18.3125 10.7021 17.9258 11.0654 17.5156 10.9951Z" fill="black" fill-opacity="0.85"/>
</svg>
