<svg width="24" height="24" viewBox="0 0 24 24" fill="none" xmlns="http://www.w3.org/2000/svg">
<path d="M11.9531 23.9062C18.4922 23.9062 23.9062 18.4805 23.9062 11.9531C23.9062 5.41406 18.4805 0 11.9414 0C5.41406 0 0 5.41406 0 11.9531C0 18.4805 5.42578 23.9062 11.9531 23.9062ZM11.9531 21.9141C6.42188 21.9141 2.00391 17.4844 2.00391 11.9531C2.00391 6.42188 6.41016 1.99219 11.9414 1.99219C17.4727 1.99219 21.9141 6.42188 21.9141 11.9531C21.9141 17.4844 17.4844 21.9141 11.9531 21.9141Z" fill="#007AFF"/>
<path d="M9.36328 17.3203C9.97266 17.3203 10.3008 16.9102 10.3008 16.2656V12.6328H14.5312C14.9883 12.6328 15.3164 12.3867 15.3164 11.918C15.3164 11.4375 14.9883 11.168 14.5312 11.168H10.3008V8.03906H14.9883C15.4453 8.03906 15.7734 7.73438 15.7734 7.26562C15.7734 6.78516 15.4453 6.50391 14.9883 6.50391H9.35156C8.75391 6.50391 8.4375 6.92578 8.4375 7.55859V16.2656C8.4375 16.8867 8.75391 17.3203 9.36328 17.3203Z" fill="black" fill-opacity="0.85"/>
</svg>
