<svg width="24" height="24" viewBox="0 0 24 24" fill="none" xmlns="http://www.w3.org/2000/svg">
<path d="M11.9531 23.9062C18.4922 23.9062 23.9062 18.4805 23.9062 11.9531C23.9062 5.41406 18.4805 0 11.9414 0C5.41406 0 0 5.41406 0 11.9531C0 18.4805 5.42578 23.9062 11.9531 23.9062ZM11.9531 21.9141C6.42188 21.9141 2.00391 17.4844 2.00391 11.9531C2.00391 6.42188 6.41016 1.99219 11.9414 1.99219C17.4727 1.99219 21.9141 6.42188 21.9141 11.9531C21.9141 17.4844 17.4844 21.9141 11.9531 21.9141Z" fill="#007AFF"/>
<path d="M7.03125 17.625C7.03125 18.2695 7.71094 18.5977 9.01172 18.5977C10.875 18.5977 12.0352 17.5078 12.3164 15.4805L12.7617 12.2695H15.8672C16.3711 12.2695 16.7344 11.918 16.7344 11.4492C16.7344 10.957 16.3594 10.6055 15.8555 10.6055H13.0078L13.2656 8.6953C13.4297 7.46483 13.8984 6.96094 14.8008 6.96094C15.5273 6.96094 15.75 7.04297 16.0898 7.04297C16.5586 7.04297 16.875 6.72656 16.875 6.26953C16.875 5.625 16.1719 5.29688 14.8945 5.29688C13.0312 5.29688 11.8711 6.39844 11.6016 8.40234L11.2969 10.6055H8.625C8.14453 10.6055 7.76953 10.957 7.76953 11.4492C7.76953 11.918 8.14453 12.2695 8.63672 12.2695H11.0625L10.6523 15.1992C10.4883 16.418 10.0195 16.9219 9.10547 16.9219C8.40234 16.9219 8.19141 16.8281 7.81641 16.8281C7.34766 16.8281 7.03125 17.1562 7.03125 17.625Z" fill="black" fill-opacity="0.85"/>
</svg>
