<svg width="24" height="24" viewBox="0 0 24 24" fill="none" xmlns="http://www.w3.org/2000/svg">
<path d="M2.01563 11.956C2.01563 10.8896 2.17969 9.8584 2.48438 8.90918L0.644531 8.13574C0.246094 9.34277 0.0117188 10.6201 0.0117188 11.956C0.0117188 13.2802 0.246094 14.5693 0.65625 15.7763L2.48438 15.0029C2.17969 14.0537 2.01563 13.0224 2.01563 11.956ZM7.40625 3.07324L6.65625 1.26855C4.33594 2.42871 2.42578 4.33887 1.26563 6.65918L3.09375 7.4209C4.03125 5.55762 5.55469 4.03418 7.40625 3.07324ZM11.9531 1.99512C13.0195 1.99512 14.0508 2.15918 15.0234 2.47559L15.7734 0.647461C14.5664 0.237305 13.2773 0.00292969 11.9531 0.00292969C10.6289 0.00292969 9.32813 0.237305 8.1211 0.647461L8.89453 2.47559C9.85547 2.15918 10.8867 1.99512 11.9531 1.99512ZM20.8359 7.40918L22.6523 6.65918C21.4805 4.33887 19.5703 2.42871 17.25 1.25684L16.5 3.07324C18.3515 4.02246 19.8867 5.5459 20.8359 7.40918ZM21.9258 11.956C21.9258 13.0224 21.7617 14.0537 21.457 15.0146L23.2734 15.7881C23.6836 14.581 23.9179 13.2802 23.9179 11.956C23.9179 10.6201 23.6836 9.33105 23.2734 8.12402L21.4453 8.89746C21.7617 9.8584 21.9258 10.8896 21.9258 11.956ZM16.5 20.8271L17.25 22.6552C19.582 21.4834 21.4922 19.5732 22.6406 17.2529L20.8476 16.5029C19.8984 18.3662 18.3633 19.8779 16.5 20.8271ZM11.9648 21.917C10.8867 21.917 9.85547 21.7529 8.89453 21.4365L8.13281 23.2646C9.33984 23.6748 10.6406 23.9091 11.9648 23.9091C13.289 23.9091 14.5781 23.6748 15.7734 23.2763L15.0117 21.4482C14.0508 21.7529 13.0312 21.917 11.9648 21.917ZM3.09375 16.5029L1.27734 17.2529C2.44922 19.5732 4.33594 21.4834 6.65625 22.6435L7.40625 20.8154C5.55469 19.8662 4.03125 18.3545 3.09375 16.5029Z" fill="#007AFF"/>
<path d="M11.9531 17.8271C14.4023 17.8271 16.0429 16.1982 16.0429 15.4248C16.0429 15.1552 15.7734 15.0263 15.5273 15.1435C14.6719 15.6006 13.6523 16.1279 11.9531 16.1279C10.2539 16.1279 9.23438 15.6006 8.39063 15.1435C8.13281 15.0263 7.86328 15.1552 7.86328 15.4248C7.86328 16.1982 9.50391 17.8271 11.9531 17.8271ZM8.48438 10.9248C9.22266 10.9248 9.87891 10.2568 9.87891 9.31934C9.87891 8.37012 9.23438 7.70215 8.48438 7.70215C7.7461 7.70215 7.10156 8.37012 7.10156 9.31934C7.10156 10.2568 7.7461 10.9248 8.48438 10.9248ZM15.4336 10.9248C16.1719 10.9248 16.8281 10.2568 16.8281 9.31934C16.8281 8.37012 16.1836 7.70215 15.4336 7.70215C14.6953 7.70215 14.0508 8.37012 14.0508 9.31934C14.0508 10.2568 14.6953 10.9248 15.4336 10.9248Z" fill="black" fill-opacity="0.85"/>
</svg>
