<svg width="24" height="24" viewBox="0 0 24 24" fill="none" xmlns="http://www.w3.org/2000/svg">
<path d="M11.9687 23.9091C18.5078 23.9091 23.9218 18.4834 23.9218 11.956C23.9218 5.41699 18.4961 0.00292969 11.957 0.00292969C5.42968 0.00292969 0.015625 5.41699 0.015625 11.956C0.015625 18.4834 5.44141 23.9091 11.9687 23.9091ZM11.9687 21.917C6.43751 21.917 2.01954 17.4873 2.01954 11.956C2.01954 6.42481 6.42578 1.99512 11.957 1.99512C17.4883 1.99512 21.9297 6.42481 21.9297 11.956C21.9297 17.4873 17.5 21.917 11.9687 21.917Z" fill="#007AFF"/>
<path d="M11.957 17.8271C14.4062 17.8271 16.0468 16.1982 16.0468 15.4248C16.0468 15.1435 15.7773 15.0146 15.5312 15.1318C14.6758 15.6006 13.6562 16.1279 11.957 16.1279C10.2578 16.1279 9.23829 15.5888 8.39454 15.1318C8.13672 15.0146 7.86719 15.1435 7.86719 15.4248C7.86719 16.1982 9.50782 17.8271 11.957 17.8271ZM8.48829 10.9131C9.22657 10.9131 9.88282 10.2451 9.88282 9.30762C9.88282 8.3584 9.23829 7.69043 8.48829 7.69043C7.75001 7.69043 7.10547 8.3584 7.10547 9.30762C7.10547 10.2451 7.75001 10.9131 8.48829 10.9131ZM15.4375 10.9131C16.1758 10.9131 16.832 10.2451 16.832 9.30762C16.832 8.3584 16.1875 7.69043 15.4375 7.69043C14.6992 7.69043 14.0547 8.3584 14.0547 9.30762C14.0547 10.2451 14.6992 10.9131 15.4375 10.9131Z" fill="black" fill-opacity="0.85"/>
</svg>
