<svg width="36" height="19" viewBox="0 0 36 19" fill="none" xmlns="http://www.w3.org/2000/svg">
<path d="M0 7.69922C0 11.4727 2.74219 14.1094 6.85547 14.1094H7.61719V12.2227H6.66797C3.82031 12.2227 1.88672 10.3242 1.88672 7.69922C1.88672 6.39844 2.57812 5.60156 3.83203 5.60156H7.13672V3.71484H3.83203C1.40625 3.71484 0 5.21484 0 7.69922ZM35.8242 7.69922C35.8242 5.21484 34.4297 3.71484 31.9922 3.71484H28.6875V5.60156H31.9922C33.2461 5.60156 33.9375 6.39844 33.9375 7.69922C33.9375 10.3242 32.0039 12.2227 29.1562 12.2227H28.207V14.1094H28.9805C33.082 14.1094 35.8242 11.4727 35.8242 7.69922Z" fill="black" fill-opacity="0.85"/>
<path d="M17.918 17.9766C24.8672 17.9766 29.8125 15.2695 29.8125 11.2969V5.4375C29.8125 1.92188 25.6055 0 17.918 0C10.2188 0 6.01172 1.92188 6.01172 5.4375V11.2969C6.01172 15.2695 10.957 17.9766 17.918 17.9766Z" fill="#FFCC00"/>
<path d="M11.5664 6.46875C11.5664 5.94141 12 5.49609 12.5391 5.49609H23.2969C23.8477 5.49609 24.2812 5.94141 24.2812 6.46875C24.2812 7.00781 23.8477 7.45312 23.2969 7.45312H12.5391C12 7.45312 11.5664 7.00781 11.5664 6.46875ZM11.5664 10.9922C11.5664 10.4531 12 10.0078 12.5391 10.0078H23.2969C23.8477 10.0078 24.2812 10.4531 24.2812 10.9922C24.2812 11.5312 23.8477 11.9648 23.2969 11.9648H12.5391C12 11.9648 11.5664 11.5312 11.5664 10.9922Z" fill="black" fill-opacity="0.85"/>
</svg>
