<svg width="24" height="24" viewBox="0 0 24 24" fill="none" xmlns="http://www.w3.org/2000/svg">
<path d="M2.01954 11.956C2.01954 10.8896 2.1836 9.8584 2.48829 8.90918L0.648437 8.13574C0.25 9.34277 0.015625 10.6201 0.015625 11.956C0.015625 13.2802 0.25 14.5693 0.660156 15.7763L2.48829 15.0029C2.1836 14.0537 2.01954 13.0224 2.01954 11.956ZM7.41015 3.07324L6.66015 1.26855C4.33984 2.42871 2.42969 4.33887 1.26953 6.65918L3.09766 7.4209C4.03516 5.55762 5.55859 4.03418 7.41015 3.07324ZM11.957 1.99512C13.0234 1.99512 14.0547 2.15918 15.0273 2.47559L15.7773 0.647461C14.5703 0.237305 13.2812 0.00292969 11.957 0.00292969C10.6328 0.00292969 9.33204 0.237305 8.125 0.647461L8.89843 2.47559C9.85938 2.15918 10.8906 1.99512 11.957 1.99512ZM20.8398 7.40918L22.6562 6.65918C21.4844 4.33887 19.5742 2.42871 17.2539 1.25684L16.5039 3.07324C18.3554 4.02246 19.8906 5.5459 20.8398 7.40918ZM21.9297 11.956C21.9297 13.0224 21.7656 14.0537 21.4609 15.0146L23.2773 15.7881C23.6875 14.581 23.9218 13.2802 23.9218 11.956C23.9218 10.6201 23.6875 9.33105 23.2773 8.12402L21.4492 8.89746C21.7656 9.8584 21.9297 10.8896 21.9297 11.956ZM16.5039 20.8271L17.2539 22.6552C19.5859 21.4834 21.4961 19.5732 22.6445 17.2529L20.8515 16.5029C19.9023 18.3662 18.3672 19.8779 16.5039 20.8271ZM11.9687 21.917C10.8906 21.917 9.85938 21.7529 8.89843 21.4365L8.13671 23.2646C9.34375 23.6748 10.6445 23.9091 11.9687 23.9091C13.2929 23.9091 14.582 23.6748 15.7773 23.2763L15.0156 21.4482C14.0547 21.7529 13.0351 21.917 11.9687 21.917ZM3.09766 16.5029L1.28124 17.2529C2.45312 19.5732 4.33984 21.4834 6.66015 22.6435L7.41015 20.8154C5.55859 19.8662 4.03516 18.3545 3.09766 16.5029Z" fill="#007AFF"/>
<path d="M11.9453 20.1357C16.5039 20.1357 20.1367 16.5029 20.125 11.956C20.1133 7.40918 16.4804 3.77637 11.9336 3.77637C7.38671 3.77637 3.77734 7.39746 3.77734 11.956C3.77734 16.5146 7.39843 20.1357 11.9453 20.1357ZM11.957 16.8076C9.85937 16.8076 8.45312 15.4013 8.45312 14.7334C8.45312 14.499 8.6875 14.4052 8.88671 14.499C9.61328 14.8974 10.4922 15.3545 11.957 15.3545C13.4336 15.3545 14.3008 14.8974 15.039 14.499C15.2383 14.4052 15.4609 14.499 15.4609 14.7334C15.4609 15.4013 14.0664 16.8076 11.957 16.8076ZM8.98046 10.8545C8.34765 10.8545 7.79687 10.292 7.79687 9.49512C7.79687 8.67481 8.34765 8.11231 8.98046 8.11231C9.61328 8.11231 10.164 8.67481 10.164 9.49512C10.164 10.292 9.60156 10.8545 8.98046 10.8545ZM14.957 10.8545C14.3242 10.8545 13.7734 10.292 13.7734 9.49512C13.7734 8.67481 14.3242 8.11231 14.957 8.11231C15.5898 8.11231 16.1406 8.67481 16.1406 9.49512C16.1406 10.292 15.5781 10.8545 14.957 10.8545Z" fill="black" fill-opacity="0.85"/>
</svg>
