<svg width="27" height="27" viewBox="0 0 27 27" fill="none" xmlns="http://www.w3.org/2000/svg">
<path d="M7.11621 24.7882C10.3389 24.7882 12.0498 21.589 13.7021 16.0226H13.8662V22.2921C13.8662 24.4484 15.0146 25.632 17.1006 25.632C20.8623 25.632 24.7764 22.2335 24.7764 18.9171C24.7764 15.7062 21.5771 13.9835 16.0225 12.3429V12.1671H22.2803C24.4365 12.1671 25.6201 11.0187 25.6201 8.93274C25.6201 5.18274 22.2334 1.25696 18.917 1.25696C15.7061 1.25696 13.9834 4.43274 12.3428 9.98743H12.167V3.76477C12.167 1.60852 11.0068 0.413208 8.93262 0.413208C5.1709 0.424927 1.25684 3.81165 1.25684 7.12805C1.25684 10.3273 4.4209 12.0499 9.97559 13.7023V13.8663H3.75293C1.59668 13.8663 0.413086 15.0265 0.413086 17.1124C0.413086 20.8741 3.7998 24.7882 7.11621 24.7882ZM2.20605 17.1124C2.20605 16.0226 2.59277 15.6593 3.75293 15.6593H11.874C10.4443 20.4054 9.30762 22.9835 7.11621 22.9835C4.77246 22.9835 2.20605 19.8898 2.20605 17.1124ZM3.0498 7.12805C3.0498 4.7843 6.15527 2.20618 8.93262 2.20618C10.0107 2.20618 10.374 2.60462 10.374 3.76477V11.8859C5.62793 10.4562 3.0498 9.31946 3.0498 7.12805ZM23.8271 8.93274C23.8271 10.0226 23.4404 10.3741 22.2803 10.3741H14.1592C15.5889 5.62805 16.7256 3.04993 18.917 3.04993C21.249 3.04993 23.8271 6.16712 23.8271 8.93274ZM22.9834 18.9171C22.9834 21.2609 19.8779 23.839 17.1006 23.8273C16.0225 23.8273 15.6709 23.4523 15.6709 22.2921V14.171C20.417 15.6007 22.9834 16.7374 22.9834 18.9171Z" fill="#007AFF"/>
<path d="M22.1631 25.3976C23.0654 26.2882 24.5068 26.2765 25.3857 25.3624C26.2646 24.4718 26.2529 23.0538 25.374 22.1749L3.88184 0.671028C3.00293 -0.207879 1.5498 -0.219597 0.65918 0.671028C-0.219727 1.53822 -0.219727 3.00305 0.65918 3.88196L22.1631 25.3976Z" fill="white"/>
<path d="M23.1357 24.4249C23.4873 24.7765 24.0615 24.7648 24.4131 24.4132C24.7529 24.0616 24.7646 23.4874 24.4131 23.1359L2.90918 1.64369C2.55762 1.29213 1.9834 1.28041 1.62012 1.64369C1.28027 1.98353 1.28027 2.56947 1.62012 2.92103L23.1357 24.4249Z" fill="black" fill-opacity="0.85"/>
</svg>
