<svg width="24" height="28" viewBox="0 0 24 28" fill="none" xmlns="http://www.w3.org/2000/svg">
<path d="M5.64844 27.293H18.082C18.5273 27.293 18.8086 26.9766 18.8086 26.5195C18.8086 25.6406 18.0938 25.0195 16.9805 25.0195H12.8086V23.6953C18.9258 23.2148 23.7305 18.1172 23.7305 11.8711C23.7305 5.32031 18.4219 0 11.8711 0C5.30859 0 0 5.30859 0 11.8711C0 18.1172 4.80469 23.2266 10.9219 23.6953V25.0195H6.76172C5.64844 25.0195 4.93359 25.6406 4.93359 26.5195C4.93359 26.9766 5.21484 27.293 5.64844 27.293Z" fill="#FFCC00"/>
<path d="M8.01562 19.5586C5.90625 19.5586 3.67969 17.0742 3.67969 14.6016C3.67969 13.2422 4.42969 12.5508 5.8125 12.5508H8.50781C8.46094 12.3281 8.4375 12.0586 8.4375 11.8359C5.74219 10.8164 4.24219 9.87891 4.24219 8.08594C4.24219 5.97656 6.73828 3.75 9.21094 3.75C10.5703 3.75 11.2617 4.5 11.2617 5.88281V8.48438C11.5078 8.42578 11.7891 8.42578 12 8.42578C13.0078 5.77734 13.9453 4.3125 15.7266 4.3125C17.8242 4.3125 20.0625 6.80859 20.0625 9.26953C20.0625 10.6289 19.3008 11.3203 17.918 11.3203H15.2812C15.3047 11.5781 15.3164 11.8008 15.3047 12.0469C18 13.0664 19.4883 13.9922 19.4883 15.7969C19.4883 17.8945 16.9922 20.1328 14.5312 20.1328C13.1719 20.1328 12.4805 19.3828 12.4805 17.9883V15.2578C12.2578 15.293 12.0586 15.3047 11.8125 15.293C10.7695 18.0469 9.82031 19.5586 8.01562 19.5586ZM11.8711 13.6523C12.8203 13.6523 13.582 12.8906 13.582 11.9414C13.582 10.9805 12.8203 10.2188 11.8711 10.2188C10.9102 10.2188 10.1484 10.9805 10.1484 11.9414C10.1484 12.8906 10.9102 13.6523 11.8711 13.6523Z" fill="black" fill-opacity="0.85"/>
</svg>
