<svg width="32" height="29" viewBox="0 0 32 29" fill="none" xmlns="http://www.w3.org/2000/svg">
<path d="M15.5871 6.09375C18.4699 6.09375 21.0949 4.13672 21.0949 1.88672C21.0949 1.17188 20.7082 0.773438 19.841 0.503906C18.7277 0.175781 17.2511 0 15.5871 0C13.9347 0 12.4582 0.175781 11.3449 0.503906C10.4777 0.773438 10.091 1.16016 10.091 1.88672C10.091 4.13672 12.7042 6.09375 15.5871 6.09375ZM14.6496 13.3242H16.5363V5.39062H14.6496V13.3242ZM12.4113 13.2188L15.5871 14.8477L18.7746 13.2188C17.9191 12.8438 16.841 12.6328 15.5871 12.6328C14.3449 12.6328 13.2667 12.8438 12.4113 13.2188ZM15.5871 22.957C18.798 22.957 20.9308 21.5742 20.9308 19.5117C20.9308 17.4609 18.798 16.0781 15.5871 16.0781C12.3761 16.0781 10.255 17.4609 10.255 19.5117C10.255 21.5742 12.3761 22.957 15.5871 22.957ZM4.3605 10.2656C0.57534 8.32031 -1.72154 13.2891 1.60659 14.9062L9.28237 18.6445C9.70425 16.8047 11.4621 15.5508 13.9113 15.1523L4.3605 10.2656ZM26.8253 10.2656L17.2746 15.1523C19.7238 15.5508 21.4816 16.8047 21.8917 18.6445L29.5792 14.9062C32.9074 13.2891 30.6105 8.32031 26.8253 10.2656ZM3.798 21.8672C0.130028 23.5898 2.74331 28.418 6.08315 26.7188L12.3996 23.5078C10.4308 22.793 9.18862 21.3867 9.18862 19.5117C9.18862 19.4648 9.18862 19.4062 9.18862 19.3594L3.798 21.8672ZM27.3761 21.8672L21.9972 19.3594C21.9972 19.4062 21.9972 19.4648 21.9972 19.5117C21.9972 21.3867 20.7433 22.793 18.7863 23.5078L25.1027 26.7188C28.4425 28.418 31.0441 23.5898 27.3761 21.8672Z" fill="black" fill-opacity="0.85"/>
</svg>
