<svg width="27" height="27" viewBox="0 0 27 27" fill="none" xmlns="http://www.w3.org/2000/svg">
<path d="M7.11719 24.7882C10.3399 24.7882 12.0508 21.589 13.7031 16.0226H13.8672V22.2921C13.8672 24.4484 15.0156 25.632 17.1016 25.632C20.8633 25.632 24.7774 22.2335 24.7774 18.9171C24.7774 15.7062 21.5781 13.9835 16.0235 12.3429V12.1671H22.2813C24.4375 12.1671 25.6211 11.0187 25.6211 8.93274C25.6211 5.18274 22.2344 1.25696 18.918 1.25696C15.7071 1.25696 13.9844 4.43274 12.3438 9.98743H12.168V3.76477C12.168 1.60852 11.0078 0.413208 8.9336 0.413208C5.17188 0.424927 1.25782 3.81165 1.25782 7.12805C1.25782 10.3273 4.42188 12.0499 9.97657 13.7023V13.8663H3.75391C1.59766 13.8663 0.414062 15.0265 0.414062 17.1124C0.414062 20.8741 3.80078 24.7882 7.11719 24.7882ZM2.20703 17.1124C2.20703 16.0226 2.59375 15.6593 3.75391 15.6593H11.875C10.4453 20.4054 9.3086 22.9835 7.11719 22.9835C4.77344 22.9835 2.20703 19.8898 2.20703 17.1124ZM3.05078 7.12805C3.05078 4.7843 6.15625 2.20618 8.9336 2.20618C10.0117 2.20618 10.375 2.60462 10.375 3.76477V11.8859C5.62891 10.4562 3.05078 9.31946 3.05078 7.12805ZM23.8281 8.93274C23.8281 10.0226 23.4414 10.3741 22.2813 10.3741H14.1602C15.5899 5.62805 16.7266 3.04993 18.918 3.04993C21.25 3.04993 23.8281 6.16712 23.8281 8.93274ZM22.9844 18.9171C22.9844 21.2609 19.8789 23.839 17.1016 23.8273C16.0235 23.8273 15.6719 23.4523 15.6719 22.2921V14.171C20.418 15.6007 22.9844 16.7374 22.9844 18.9171Z" fill="#007AFF"/>
<path d="M22.1631 25.3976C23.0654 26.2882 24.5068 26.2765 25.3857 25.3624C26.2646 24.4718 26.2529 23.0538 25.374 22.1749L3.88184 0.671028C3.00293 -0.207879 1.5498 -0.219597 0.65918 0.671028C-0.219727 1.53822 -0.219727 3.00305 0.65918 3.88196L22.1631 25.3976Z" fill="white"/>
<path d="M23.1357 24.4249C23.4873 24.7765 24.0615 24.7648 24.4131 24.4132C24.7529 24.0616 24.7646 23.4874 24.4131 23.1359L2.90918 1.64369C2.55762 1.29213 1.9834 1.28041 1.62012 1.64369C1.28027 1.98353 1.28027 2.56947 1.62012 2.92103L23.1357 24.4249Z" fill="black" fill-opacity="0.85"/>
</svg>
