<svg width="19" height="28" viewBox="0 0 19 28" fill="none" xmlns="http://www.w3.org/2000/svg">
<path d="M9.35156 18.7148C14.5195 18.7148 18.7148 14.5195 18.7148 9.36328C18.7148 4.20703 14.5078 0 9.35156 0C4.19531 0 0 4.20703 0 9.36328C0 14.5195 4.18359 18.7148 9.35156 18.7148ZM9.36328 17.0039C5.13281 17.0039 1.73438 13.582 1.73438 9.35156C1.73438 5.13281 5.13281 1.72266 9.36328 1.72266C13.5938 1.72266 16.9922 5.13281 16.9922 9.35156C16.9922 13.582 13.5938 17.0039 9.36328 17.0039ZM8.42578 18.3867V26.5195H10.3125V18.3867H8.42578ZM4.08984 27.293H14.625C15.0586 27.293 15.3398 26.9766 15.3398 26.5195C15.3398 25.6406 14.625 25.0195 13.5117 25.0195H5.19141C4.07812 25.0195 3.36328 25.6406 3.36328 26.5195C3.36328 26.9766 3.64453 27.293 4.08984 27.293Z" fill="#007AFF"/>
<path d="M6.48047 15.1289C7.82812 15.1289 8.54297 13.9922 9.31641 11.918C9.50391 11.9297 9.65625 11.9297 9.82031 11.8828V13.9805C9.82031 15.0117 10.3477 15.5742 11.3555 15.5742C13.2305 15.5742 15.0938 13.8984 15.0938 12.3164C15.0938 10.957 13.9688 10.2539 11.9414 9.50391C11.9531 9.31641 11.9414 9.15234 11.9297 8.95312H13.9219C14.9531 8.95312 15.5156 8.42578 15.5156 7.40625C15.5156 5.55469 13.8516 3.69141 12.2578 3.69141C10.9453 3.69141 10.2188 4.78125 9.48047 6.77344C9.30469 6.77344 9.09375 6.77344 8.91797 6.82031V4.85156C8.91797 3.82031 8.39062 3.24609 7.38281 3.24609C5.50781 3.24609 3.63281 4.93359 3.63281 6.51562C3.63281 7.86328 4.75781 8.56641 6.79688 9.32812C6.79688 9.50391 6.80859 9.71484 6.84375 9.86719H4.81641C3.77344 9.86719 3.21094 10.3945 3.21094 11.4023C3.21094 13.2773 4.88672 15.1289 6.48047 15.1289ZM9.36328 10.7109C8.63672 10.7109 8.0625 10.1367 8.0625 9.42188C8.0625 8.68359 8.63672 8.10938 9.36328 8.10938C10.0898 8.10938 10.6641 8.68359 10.6641 9.42188C10.6641 10.1367 10.0898 10.7109 9.36328 10.7109Z" fill="black" fill-opacity="0.85"/>
</svg>
