<svg width="32" height="29" viewBox="0 0 32 29" fill="none" xmlns="http://www.w3.org/2000/svg">
<path d="M15.5871 21.1289C17.5324 21.1289 18.8566 20.5195 18.8566 19.7578C18.8566 18.9961 17.5324 18.3867 15.5871 18.3867C13.6535 18.3867 12.3175 18.9961 12.3175 19.7578C12.3175 20.5195 13.6535 21.1289 15.5871 21.1289ZM15.5871 6.57422C18.4464 6.57422 21.3292 4.62891 21.3292 2.13281C21.3292 1.32422 20.9074 0.832031 19.9113 0.527344C18.6691 0.152344 17.1339 0 15.5871 0C14.0519 0 12.5167 0.152344 11.2746 0.527344C10.2785 0.832031 9.85659 1.32422 9.85659 2.13281C9.85659 4.62891 12.7277 6.57422 15.5871 6.57422ZM15.5871 5.03906C13.4191 5.03906 11.6964 3.85547 11.4035 2.21484C11.3917 2.13281 11.4269 2.07422 11.5558 2.02734C12.798 1.69922 14.1925 1.52344 15.5871 1.52344C16.9933 1.52344 18.3761 1.69922 19.63 2.02734C19.7589 2.07422 19.7941 2.13281 19.7824 2.21484C19.4894 3.85547 17.7667 5.03906 15.5871 5.03906ZM14.6496 5.63672V13.5703H16.5363V5.63672H14.6496ZM15.5871 14.2969C16.7472 14.2969 17.8722 14.6367 18.6222 15.1055L20.0753 14.1445C19.0324 13.2305 17.38 12.6445 15.5871 12.6445C13.8175 12.6445 12.2003 13.2188 11.1574 14.1094L12.6691 15.0469C13.4191 14.6016 14.4855 14.2969 15.5871 14.2969ZM15.5871 23.4961C18.9855 23.4961 21.2238 21.9961 21.2238 19.7578C21.2238 17.5195 18.9855 16.0195 15.5871 16.0195C12.2003 16.0195 9.95034 17.5195 9.95034 19.7578C9.95034 21.9961 12.2003 23.4961 15.5871 23.4961ZM15.5871 21.8438C13.1847 21.8438 11.6027 21 11.6027 19.7578C11.6027 18.5156 13.1847 17.6719 15.5871 17.6719C17.9894 17.6719 19.5714 18.5156 19.5714 19.7578C19.5714 21 17.9894 21.8438 15.5871 21.8438ZM15.5871 16.0195L4.3605 10.2656C0.57534 8.33203 -1.72154 13.2891 1.60659 14.9062L10.8527 19.418L11.1925 17.8594L2.27456 13.5234C0.657371 12.7266 1.65346 10.6289 3.65737 11.6484L13.5246 16.6992L15.5871 16.0195ZM10.4425 20.4961V18.7852L3.798 21.8789C0.130028 23.5898 2.74331 28.4297 6.08315 26.7305L13.3722 23.0156L11.8722 22.0312L5.36831 25.3477C3.76284 26.168 2.70815 24.082 4.47768 23.2734L10.4425 20.4961ZM15.5871 16.0195L17.6613 16.6992L27.5285 11.6484C29.5324 10.6289 30.5285 12.7266 28.9113 13.5234L19.9933 17.8594L20.3214 19.418L29.5792 14.9062C32.9074 13.2891 30.6105 8.33203 26.8253 10.2656L15.5871 16.0195ZM20.7316 20.4961L26.7082 23.2734C28.4777 24.082 27.4113 26.168 25.8058 25.3477L19.3019 22.0312L17.8019 23.0156L25.1027 26.7305C28.4425 28.4297 31.0441 23.5898 27.3761 21.8789L20.7316 18.7852V20.4961Z" fill="black" fill-opacity="0.85"/>
</svg>
