<svg width="27" height="27" viewBox="0 0 27 27" fill="none" xmlns="http://www.w3.org/2000/svg">
<path d="M0.424805 17.1124C0.424805 20.8507 3.76465 24.7179 7.05762 24.7179C10.3037 24.7179 12.0029 21.4015 13.7139 15.6124H13.8779V22.2921C13.8779 24.4249 14.9795 25.5616 17.042 25.5616C20.7803 25.5616 24.6475 22.2101 24.6475 18.9171C24.6475 15.6827 21.3311 13.9718 15.5537 12.2726V12.0968H22.2217C24.3545 12.0968 25.4912 10.9952 25.4912 8.93274C25.4912 5.20618 22.1514 1.32727 18.8584 1.32727C15.624 1.32727 13.9131 4.62024 12.2139 10.3976H12.0381V3.76477C12.0381 1.63196 10.9248 0.483521 8.87402 0.483521C5.13574 0.495239 1.26855 3.83509 1.26855 7.12805C1.26855 10.3507 4.5498 12.0616 10.3271 13.7726V13.9366H3.69434C1.56152 13.9366 0.424805 15.0499 0.424805 17.1124Z" fill="#007AFF"/>
<path d="M22.1631 25.3976C23.0654 26.2882 24.5068 26.2765 25.3857 25.3624C26.2646 24.4718 26.2529 23.0538 25.374 22.1749L3.88184 0.671028C3.00293 -0.207879 1.5498 -0.219597 0.65918 0.671028C-0.219727 1.53822 -0.219727 3.00305 0.65918 3.88196L22.1631 25.3976Z" fill="white"/>
<path d="M23.1357 24.4249C23.4873 24.7765 24.0615 24.7648 24.4131 24.4132C24.7529 24.0616 24.7646 23.4874 24.4131 23.1359L2.90918 1.64369C2.55762 1.29213 1.9834 1.28041 1.62012 1.64369C1.28027 1.98353 1.28027 2.56947 1.62012 2.92103L23.1357 24.4249Z" fill="black" fill-opacity="0.85"/>
</svg>
