<svg width="25" height="29" viewBox="0 0 25 29" fill="none" xmlns="http://www.w3.org/2000/svg">
<path d="M12.0586 28.7695C18.9258 28.7695 24.1289 27.3047 24.1289 24.7969C24.1289 23.2148 22.043 22.043 18.7148 21.3984L17.707 22.9805C20.6133 23.3906 22.3594 24.0938 22.3594 24.7969C22.3594 25.875 18.1992 27 12.0586 27C5.92969 27 1.76953 25.875 1.76953 24.7969C1.76953 24.0938 3.51562 23.3906 6.42188 22.9805L5.40234 21.3984C2.08594 22.043 0 23.2148 0 24.7969C0 27.3047 5.20312 28.7695 12.0586 28.7695ZM4.5 20.918L5.67188 23.6719C5.84766 24.0703 6.33984 24.1523 6.65625 23.6836L8.10938 21.5625C8.39062 21.1523 8.28516 20.6719 7.74609 20.5664L5.16797 20.1211C4.59375 20.0156 4.32422 20.4961 4.5 20.918ZM19.6289 20.918C19.8047 20.4961 19.5234 20.0156 18.9609 20.1211L16.3828 20.5664C15.8438 20.6719 15.7383 21.1523 16.0078 21.5625L17.4727 23.6836C17.7891 24.1523 18.2695 24.0703 18.4453 23.6719L19.6289 20.918Z" fill="black" fill-opacity="0.85"/>
<path d="M11.543 6.96094V2.68359C11.543 0.949219 10.6523 0.0234375 8.96484 0.0234375C6.12891 0.046875 3.15234 2.58984 3.15234 5.0625C3.15234 7.45312 5.44922 8.71875 9.11719 10.0664L9.85547 8.40234C6.65625 7.18359 4.92188 6.46875 4.92188 5.0625C4.92188 3.5625 7.06641 1.79297 8.96484 1.79297C9.65625 1.79297 9.76172 1.88672 9.76172 2.68359V7.48828L11.543 6.96094ZM14.5781 8.92969H18.8438C20.5664 8.92969 21.5039 8.03906 21.5039 6.375C21.5039 3.52734 18.9258 0.550781 16.4531 0.550781C14.0742 0.550781 12.7969 2.84766 11.4727 6.51562L13.1367 7.26562C14.332 4.05469 15.0469 2.32031 16.4531 2.32031C17.9648 2.32031 19.7227 4.45312 19.7227 6.375C19.7227 7.06641 19.6523 7.14844 18.8438 7.14844H14.0391L14.5781 8.92969ZM12.6094 11.9766V16.2539C12.6094 17.9883 13.4883 18.8906 15.1641 18.8906C18.0117 18.8906 20.9883 16.3359 20.9883 13.8633C20.9883 11.4727 18.6914 10.207 15.0234 8.87109L14.2734 10.5234C17.4727 11.7422 19.2188 12.457 19.2188 13.8633C19.2188 15.3633 17.0625 17.1328 15.1641 17.1094C14.4609 17.1094 14.3906 17.0391 14.3906 16.2539V11.4492L12.6094 11.9766ZM9.55078 9.98438H5.28516C3.55078 9.98438 2.63672 10.8867 2.63672 12.5508C2.63672 15.4102 5.19141 18.375 7.67578 18.375C10.0664 18.375 11.332 16.0898 12.668 12.4102L11.0039 11.6602C9.78516 14.8828 9.08203 16.5938 7.67578 16.5938C6.15234 16.5938 4.41797 14.4727 4.41797 12.5508C4.41797 11.8477 4.5 11.7656 5.28516 11.7656H10.0898L9.55078 9.98438ZM12.0586 12.7852C13.8984 12.7852 15.4102 11.3086 15.4102 9.46875C15.4102 7.61719 13.8984 6.12891 12.0586 6.12891C10.2188 6.12891 8.73047 7.61719 8.73047 9.46875C8.73047 11.3086 10.2188 12.7852 12.0586 12.7852ZM12.0586 11.0391C11.1797 11.0391 10.4766 10.3477 10.4766 9.46875C10.4766 8.57812 11.1797 7.875 12.0586 7.875C12.9375 7.875 13.6641 8.57812 13.6641 9.46875C13.6641 10.3477 12.9375 11.0391 12.0586 11.0391Z" fill="#007AFF"/>
</svg>
