<svg width="24" height="28" viewBox="0 0 24 28" fill="none" xmlns="http://www.w3.org/2000/svg">
<path d="M11.8711 23.7305C18.4219 23.7305 23.7305 18.4219 23.7305 11.8711C23.7305 5.32031 18.4219 0 11.8711 0C5.30859 0 0 5.30859 0 11.8711C0 18.4219 5.30859 23.7305 11.8711 23.7305ZM11.8711 21.8438C6.35156 21.8438 1.88672 17.3789 1.88672 11.8711C1.88672 6.35156 6.35156 1.88672 11.8711 1.88672C17.3789 1.88672 21.8438 6.35156 21.8438 11.8711C21.8438 17.3789 17.3789 21.8438 11.8711 21.8438ZM10.9219 23.0039V26.1797H12.8086V23.0039H10.9219ZM5.64844 27.293H18.082C18.5273 27.293 18.8086 26.9766 18.8086 26.5195C18.8086 25.6406 18.0938 25.0195 16.9805 25.0195H6.76172C5.64844 25.0195 4.93359 25.6406 4.93359 26.5195C4.93359 26.9766 5.21484 27.293 5.64844 27.293Z" fill="#007AFF"/>
<path d="M8.13281 19.3242C9.87891 19.3242 10.8047 17.8594 11.8125 15.1875C12.0469 15.1992 12.2461 15.1875 12.457 15.1523V17.8125C12.457 19.1602 13.1367 19.8867 14.4492 19.8867C16.8398 19.8867 19.2539 17.7188 19.2539 15.6797C19.2539 13.9336 17.8125 13.0312 15.1992 12.0469C15.2109 11.8125 15.1992 11.5898 15.1758 11.3438H17.7422C19.0781 11.3438 19.8164 10.6641 19.8164 9.35156C19.8164 6.96094 17.6484 4.54688 15.6094 4.54688C13.8867 4.54688 12.9727 5.96484 12 8.53125C11.7891 8.53125 11.5195 8.53125 11.2852 8.58984V6.05859C11.2852 4.72266 10.6055 3.99609 9.29297 3.99609C6.89062 3.99609 4.47656 6.15234 4.47656 8.20312C4.47656 9.9375 5.92969 10.8516 8.54297 11.8359C8.54297 12.0586 8.56641 12.3164 8.61328 12.5273H5.98828C4.65234 12.5273 3.92578 13.207 3.92578 14.5195C3.92578 16.9219 6.08203 19.3242 8.13281 19.3242ZM11.8711 13.6055C10.9336 13.6055 10.1953 12.8672 10.1953 11.9414C10.1953 11.0039 10.9336 10.2656 11.8711 10.2656C12.7969 10.2656 13.5352 11.0039 13.5352 11.9414C13.5352 12.8672 12.7969 13.6055 11.8711 13.6055Z" fill="black" fill-opacity="0.85"/>
</svg>
