<svg width="19" height="28" viewBox="0 0 19 28" fill="none" xmlns="http://www.w3.org/2000/svg">
<path d="M4.08984 27.293H14.625C15.0586 27.293 15.3398 26.9766 15.3398 26.5195C15.3398 25.6406 14.625 25.0195 13.5117 25.0195H10.3125V18.6562C15.0234 18.1875 18.7148 14.1914 18.7148 9.36328C18.7148 4.20703 14.5078 0 9.35156 0C4.19531 0 0 4.20703 0 9.36328C0 14.2148 3.70312 18.1992 8.42578 18.668V25.0195H5.19141C4.07812 25.0195 3.36328 25.6406 3.36328 26.5195C3.36328 26.9766 3.64453 27.293 4.08984 27.293Z" fill="#FFCC00"/>
<path d="M6.38672 15.3047C4.75781 15.3047 3.02344 13.3945 3.02344 11.4609C3.02344 10.4297 3.60938 9.87891 4.67578 9.87891H6.76172C6.72656 9.72656 6.71484 9.50391 6.71484 9.32812C4.61719 8.54297 3.45703 7.81641 3.45703 6.42188C3.45703 4.80469 5.39062 3.05859 7.32422 3.05859C8.35547 3.05859 8.90625 3.65625 8.90625 4.71094V6.73828C9.08203 6.69141 9.30469 6.69141 9.48047 6.69141C10.2422 4.64062 10.9922 3.51562 12.3516 3.51562C13.9805 3.51562 15.7031 5.4375 15.7031 7.34766C15.7031 8.39062 15.1172 8.94141 14.0625 8.94141H12.0117C12.0234 9.14062 12.0352 9.31641 12.0234 9.50391C14.1094 10.2773 15.2695 11.0039 15.2695 12.4102C15.2695 14.0273 13.3477 15.7617 11.4141 15.7617C10.3828 15.7617 9.83203 15.1758 9.83203 14.1211V11.9648C9.66797 12.0117 9.50391 12.0117 9.31641 12C8.51953 14.1328 7.78125 15.3047 6.38672 15.3047ZM9.36328 10.7461C10.1133 10.7461 10.6992 10.1602 10.6992 9.42188C10.6992 8.66016 10.1133 8.07422 9.36328 8.07422C8.61328 8.07422 8.02734 8.66016 8.02734 9.42188C8.02734 10.1602 8.61328 10.7461 9.36328 10.7461Z" fill="black" fill-opacity="0.85"/>
</svg>
