<svg width="25" height="30" viewBox="0 0 25 30" fill="none" xmlns="http://www.w3.org/2000/svg">
<g clip-path="url(#clip0_2152_15236)">
<path d="M12.3602 29.168C15.5594 29.168 16.0633 26.7891 17.9266 26.7891C19.8251 26.7891 20.1297 29.168 23.786 29.168H23.8446C24.3016 29.168 24.6766 28.793 24.6766 28.3359C24.6766 27.8789 24.3016 27.5156 23.8446 27.5156H23.786C22.5321 27.5156 21.8172 26.9883 20.9383 26.3672C20.1766 25.8164 19.2274 25.1367 17.9266 25.1367C16.579 25.1367 15.618 25.8516 14.8563 26.4258C14.0477 27.0352 13.4149 27.5156 12.3602 27.5156C11.3055 27.5156 10.6727 27.0352 9.86412 26.4258C9.1024 25.8516 8.14146 25.1367 6.7938 25.1367C5.49302 25.1367 4.5438 25.8164 3.78209 26.3672C2.90318 26.9883 2.20005 27.5156 0.934429 27.5156H0.875836C0.418804 27.5156 0.0438043 27.8789 0.0438043 28.3359C0.0438043 28.793 0.418804 29.168 0.875836 29.168H0.934429C4.59068 29.168 4.89537 26.7891 6.7938 26.7891C8.65709 26.7891 9.16099 29.168 12.3602 29.168ZM0.524273 18.75L4.82505 26.3438L6.24302 25.3945L2.00084 18.0234C1.49693 17.1328 1.69615 16.7227 2.34068 16.4297L10.8719 12.5156C11.4344 12.2578 11.8211 12.0703 12.3602 12.0703C12.8993 12.0703 13.286 12.2578 13.8602 12.5156L22.3797 16.4297C23.0243 16.7227 23.2235 17.1328 22.7196 18.0234L18.4774 25.3945L19.9774 26.2266L24.1961 18.75C25.1922 16.9922 24.7821 15.7148 23.036 14.9297L14.5165 11.0156C14.0243 10.793 13.3329 10.418 12.3602 10.418C11.3993 10.418 10.7079 10.793 10.204 11.0156L1.68443 14.9297C-0.0499457 15.7148 -0.460102 16.9922 0.524273 18.75ZM2.86802 14.7305L4.64927 13.8984L5.90318 5.10938C5.97349 4.65234 6.24302 4.38281 6.6649 4.38281H18.079C18.5243 4.38281 18.8055 4.60547 18.8641 4.98047L20.0946 13.957L21.8758 14.7305L20.5282 4.875C20.3407 3.50391 19.4383 2.73047 18.079 2.73047H6.6649C5.34068 2.73047 4.45005 3.59766 4.2274 5.10938L2.86802 14.7305ZM7.53209 8.64844H11.1649C11.5165 8.64844 11.7508 8.44922 11.7508 8.16797V6.29297C11.7508 6.01172 11.5165 5.8125 11.1649 5.8125H7.53209C7.25084 5.8125 7.06334 6.01172 7.06334 6.29297V8.16797C7.06334 8.44922 7.25084 8.64844 7.53209 8.64844ZM13.4383 8.64844H17.0829C17.4344 8.64844 17.6688 8.44922 17.6688 8.16797V6.29297C17.6688 6.01172 17.4344 5.8125 17.0829 5.8125H13.4383C13.1688 5.8125 12.9813 6.01172 12.9813 6.29297V8.16797C12.9813 8.44922 13.1688 8.64844 13.4383 8.64844ZM7.26255 4.01953H8.9149V2.08594C8.9149 1.82812 9.05552 1.6875 9.30162 1.6875H15.4305C15.6766 1.6875 15.8172 1.82812 15.8172 2.08594V4.01953H17.4696V1.96875C17.4696 0.808594 16.7079 0.0351562 15.5477 0.0351562H9.18443C8.02427 0.0351562 7.26255 0.808594 7.26255 1.96875V4.01953Z" fill="black" fill-opacity="0.85"/>
</g>
<defs>
<clipPath id="clip0_2152_15236">
<rect width="24.7285" height="29.168" fill="white"/>
</clipPath>
</defs>
</svg>
