<svg width="36" height="28" viewBox="0 0 36 28" fill="none" xmlns="http://www.w3.org/2000/svg">
<path d="M27.3739 5.60449C28.7802 5.60449 29.9052 4.49121 29.9052 3.08496C29.9052 1.67871 28.7802 0.553711 27.3739 0.553711C25.9677 0.553711 24.8427 1.67871 24.8427 3.08496C24.8427 4.49121 25.9677 5.60449 27.3739 5.60449ZM27.3739 16.9482C27.8427 16.9482 28.0419 17.2763 28.3114 18.1201C28.6981 19.3037 29.8934 24.2138 30.2919 25.6552C30.4911 26.3818 30.8661 26.6865 31.4169 26.6865C32.1669 26.6865 32.6239 26.0068 32.413 25.2685C32.3192 24.9521 30.62 17.8506 30.3856 16.3857C30.1864 15.0967 30.1395 12.4951 30.1395 11.2646C30.1395 11.0771 30.3505 11.0068 30.4559 11.1709C31.3466 12.4013 32.952 14.6982 33.2684 15.0732C33.62 15.4717 34.1708 15.542 34.6395 15.2841C35.2372 14.9677 35.3778 14.3232 35.1317 13.8779C35.0263 13.7021 34.9091 13.5263 34.7802 13.3506L31.7567 8.88574C30.7841 7.46777 29.6005 6.83496 27.3739 6.83496C25.1473 6.83496 23.952 7.46777 22.9911 8.88574L19.9559 13.3506C19.827 13.5263 19.7098 13.7021 19.6161 13.8779C19.37 14.3232 19.4989 14.9677 20.0966 15.2841C20.5653 15.542 21.1161 15.4717 21.4677 15.0732C21.7841 14.6982 23.3895 12.4131 24.2802 11.1709C24.3856 11.0185 24.6083 11.0771 24.6083 11.2763C24.6083 12.5068 24.5497 15.0967 24.3505 16.3857C24.1161 17.8506 22.4169 24.9521 22.3348 25.2685C22.1122 26.0068 22.5809 26.6865 23.3309 26.6865C23.8817 26.6865 24.245 26.3818 24.4559 25.6552C24.8427 24.2138 26.038 19.3037 26.4364 18.1201C26.6942 17.2763 26.8934 16.9482 27.3739 16.9482Z" fill="black" fill-opacity="0.85"/>
<path d="M7.89693 5.60449C9.30318 5.60449 10.4282 4.49121 10.4282 3.08496C10.4282 1.67871 9.30318 0.553711 7.89693 0.553711C6.49068 0.553711 5.36568 1.67871 5.36568 3.08496C5.36568 4.49121 6.49068 5.60449 7.89693 5.60449ZM7.89693 16.9482C8.3774 16.9482 8.5649 17.2763 8.83443 18.1201C9.23286 19.3037 10.4165 24.2138 10.8149 25.6552C11.0141 26.3818 11.3891 26.6865 11.9399 26.6865C12.6899 26.6865 13.1469 26.0068 12.936 25.2685C12.854 24.9521 11.1548 17.8506 10.9087 16.3857C10.7094 15.0967 10.6626 12.4951 10.6626 11.2646C10.6626 11.0771 10.8735 11.0068 10.9907 11.1709C11.8696 12.4013 13.4751 14.6982 13.7915 15.0732C14.143 15.4717 14.7055 15.542 15.1626 15.2841C15.7602 14.9677 15.9009 14.3232 15.6548 13.8779C15.561 13.7021 15.4321 13.5263 15.3149 13.3506L12.2798 8.88574C11.3188 7.46777 10.1235 6.83496 7.89693 6.83496C5.67036 6.83496 4.47505 7.46777 3.51411 8.88574L0.478962 13.3506C0.361775 13.5263 0.232869 13.7021 0.139119 13.8779C-0.106975 14.3232 0.0219314 14.9677 0.631306 15.2841C1.08833 15.542 1.65083 15.4717 1.99068 15.0732C2.30708 14.6982 3.92427 12.4131 4.80318 11.1709C4.90865 11.0185 5.1313 11.0771 5.1313 11.2763C5.1313 12.5068 5.07271 15.0967 4.87349 16.3857C4.63911 17.8506 2.9399 24.9521 2.85786 25.2685C2.64693 26.0068 3.10396 26.6865 3.85396 26.6865C4.40474 26.6865 4.77974 26.3818 4.97896 25.6552C5.3774 24.2138 6.56099 19.3037 6.95943 18.1201C7.22896 17.2763 7.41646 16.9482 7.89693 16.9482Z" fill="black" fill-opacity="0.85"/>
<path d="M15.1387 27.5772C16.0528 27.5772 16.7442 26.9913 16.9786 26.0889C17.1192 25.5968 17.3887 24.5186 17.6348 23.5108C17.8809 24.5186 18.1387 25.5968 18.2911 26.0889C18.5255 26.9913 19.2051 27.5772 20.1192 27.5772C21.3731 27.5772 22.1934 26.3936 21.877 25.2218C21.8301 25.1046 20.8106 20.7569 20.6465 19.8546C20.5411 19.1749 20.5176 17.7921 20.5176 17.2178C20.5176 17.1124 20.5176 17.0889 20.6231 16.9835C21.338 16.0811 22.252 15.0382 22.5919 14.6046C23.2247 13.8311 23.1192 12.8116 22.4747 12.1202C21.7715 11.3468 20.5411 11.3585 19.8848 12.0616L18.6309 13.3741C18.1973 13.8428 18.0919 13.9132 17.6348 13.9132C17.1661 13.9132 17.0606 13.8428 16.6387 13.3741L15.3848 12.0616C14.7169 11.3585 13.4864 11.3468 12.7833 12.1202C12.1505 12.8116 12.0333 13.8428 12.6661 14.6163C13.0176 15.0499 13.9317 16.0811 14.6465 16.9835C14.7403 17.0889 14.7403 17.1124 14.7403 17.2178C14.7403 17.7921 14.7169 19.1749 14.6114 19.8546C14.459 20.7569 13.4278 25.1046 13.3926 25.2218C13.0645 26.3936 13.8848 27.5772 15.1387 27.5772Z" fill="white"/>
<path d="M17.6346 13.7021C18.6659 13.7021 19.5213 12.8584 19.5213 11.8271C19.5213 10.7959 18.6659 9.95215 17.6346 9.95215C16.6034 9.95215 15.7596 10.7959 15.7596 11.8271C15.7596 12.8584 16.6034 13.7021 17.6346 13.7021ZM15.1385 26.6865C15.5956 26.6865 15.9588 26.4287 16.1112 25.8427C16.3573 24.9638 17.0721 21.9404 17.3065 21.2021C17.4706 20.7217 17.5057 20.6865 17.6346 20.6865C17.7518 20.6865 17.787 20.7217 17.951 21.2021C18.1854 21.9404 18.9003 24.9638 19.1581 25.8427C19.2987 26.4287 19.6737 26.6865 20.119 26.6865C20.7753 26.6865 21.1737 26.0654 21.0096 25.456C20.951 25.2568 19.9315 20.9091 19.7674 19.9951C19.6503 19.2685 19.6151 17.8037 19.6151 17.2177C19.6151 16.8779 19.7206 16.6552 19.9198 16.4209C20.7635 15.3662 21.8299 14.1591 21.9588 13.9599C22.2401 13.5498 22.1346 13.0693 21.8182 12.7412C21.4549 12.331 20.8456 12.3427 20.5292 12.6709L19.287 13.9951C18.7713 14.5459 18.3378 14.8037 17.6346 14.8037C16.9315 14.8037 16.4979 14.5459 15.9823 13.9951L14.7401 12.6709C14.4237 12.3427 13.8026 12.331 13.4393 12.7412C13.1229 13.0693 13.0292 13.5498 13.2987 13.9599C13.4276 14.1591 14.494 15.3662 15.3495 16.4209C15.537 16.6552 15.6424 16.8779 15.6424 17.2177C15.6424 17.8037 15.619 19.2685 15.5018 19.9951C15.3378 20.9091 14.3065 25.2568 14.2479 25.456C14.0956 26.0654 14.4823 26.6865 15.1385 26.6865Z" fill="black" fill-opacity="0.85"/>
</svg>
