<svg width="23" height="23" viewBox="0 0 23 23" fill="none" xmlns="http://www.w3.org/2000/svg">
<path d="M4.61497 5.81543C6.03294 5.81543 7.16966 4.67871 7.16966 3.26075C7.16966 1.8545 6.03294 0.706054 4.61497 0.706054C3.19701 0.706054 2.06029 1.8545 2.06029 3.26075C2.06029 4.67871 3.19701 5.81543 4.61497 5.81543ZM0.0446608 10.7373L0.724348 14.9326C0.99388 16.4795 3.10326 16.163 2.85716 14.6279L2.25951 11.0068L4.63841 10.081C5.00169 9.94043 5.3181 9.98731 5.47044 10.3271L7.66185 14.663C8.3181 15.9638 8.85716 16.3623 9.39622 16.749L16.4626 21.9404C17.7048 22.8545 19.1931 21.0498 17.7985 20.0185L12.3025 15.9873C12.0329 15.788 12.0564 15.4248 12.3493 15.2607L16.0876 13.1045L20.986 15.4482C22.3923 16.1045 23.5056 14.1474 21.865 13.3623L16.6384 10.8779C15.9939 10.5732 15.3962 10.667 14.8806 10.9716L12.4196 12.413C12.0915 12.6005 11.8571 12.5068 11.74 12.2607L9.75951 8.2295C9.57201 7.8545 9.61888 7.49121 10.029 7.292L11.8337 6.47168C12.4314 6.19043 12.654 5.99121 12.8181 5.417L13.9665 1.44434C14.3884 -0.0556654 12.3728 -0.606446 11.9392 0.893554L10.8259 4.78418L0.841536 9.17871C0.161848 9.47168 -0.0842455 9.98731 0.0446608 10.7373Z" fill="black" fill-opacity="0.85"/>
</svg>
