<svg width="24" height="28" viewBox="0 0 24 28" fill="none" xmlns="http://www.w3.org/2000/svg">
<path d="M7.87504 5.60596C9.28129 5.60596 10.4063 4.49267 10.4063 3.08642C10.4063 1.68017 9.28129 0.555176 7.87504 0.555176C6.46879 0.555176 5.35551 1.68017 5.35551 3.08642C5.35551 4.49267 6.46879 5.60596 7.87504 5.60596ZM7.87504 16.9497C8.35551 16.9497 8.54301 17.2778 8.81254 18.1216C9.21098 19.3052 10.3946 24.2153 10.7931 25.6567C10.9923 26.3833 11.3673 26.688 11.9181 26.688C12.6681 26.688 13.1251 26.0083 12.9142 25.27C12.8321 24.9536 11.1329 17.8521 10.8985 16.3872C10.6993 15.0982 10.6407 12.4966 10.6407 11.2661C10.6407 11.0786 10.8517 11.0083 10.9688 11.1724C11.8478 12.4028 13.4649 14.6997 13.7813 15.0747C14.1212 15.4732 14.6837 15.5435 15.1524 15.2856C15.7501 14.9692 15.879 14.3247 15.6329 13.8794C15.5392 13.7036 15.4103 13.5278 15.2931 13.3521L12.2579 8.8872C11.297 7.46923 10.1017 6.83642 7.87504 6.83642C5.64848 6.83642 4.46489 7.46923 3.49223 8.8872L0.457079 13.3521C0.339891 13.5278 0.222704 13.7036 0.117235 13.8794C-0.128859 14.3247 0.0117663 14.9692 0.609422 15.2856C1.07817 15.5435 1.62895 15.4732 1.98051 15.0747C2.29692 14.6997 3.90239 12.4146 4.78129 11.1724C4.88676 11.02 5.10942 11.0786 5.10942 11.2778C5.10942 12.5083 5.06254 15.0982 4.86333 16.3872C4.62895 17.8521 2.91801 24.9536 2.83598 25.27C2.62504 26.0083 3.08208 26.688 3.83208 26.688C4.38286 26.688 4.75786 26.3833 4.95708 25.6567C5.35551 24.2153 6.55083 19.3052 6.93754 18.1216C7.20708 17.2778 7.39458 16.9497 7.87504 16.9497Z" fill="black" fill-opacity="0.85"/>
<path d="M15.1291 27.5787C16.0314 27.5787 16.7229 26.9928 16.9572 26.0904C17.0979 25.5983 17.3674 24.5201 17.6135 23.5123C17.8596 24.5201 18.1291 25.5983 18.2697 26.0904C18.5041 26.9928 19.1955 27.5787 20.0979 27.5787C21.3635 27.5787 22.1486 26.3951 21.8557 25.2233C21.8439 25.1295 21.176 22.3522 20.8244 20.7701C21.4455 21.5084 22.4299 21.567 23.1213 21.0631C23.8244 20.5709 24.0588 19.5983 23.5197 18.7545L21.5744 15.7545C20.7189 14.4303 19.3361 13.9147 18.0236 13.9147H17.6135C17.2268 13.9147 17.0158 13.7857 16.6174 13.3756L15.3635 12.0631C14.6955 11.36 13.465 11.3483 12.7736 12.1217C12.1291 12.8131 12.0236 13.8443 12.6564 14.6178C12.9963 15.0514 13.9104 16.0826 14.6252 16.985C14.7307 17.1022 14.7307 17.1022 14.7307 17.2193C14.7307 17.7936 14.6955 19.1764 14.6018 19.8561C14.4377 20.7584 13.3947 25.1061 13.3713 25.2233C13.0783 26.3951 13.8635 27.5787 15.1291 27.5787Z" fill="white"/>
<path d="M17.7302 13.7036C18.7614 13.7036 19.6169 12.8599 19.6169 11.8286C19.6169 10.7974 18.7614 9.95361 17.7302 9.95361C16.6989 9.95361 15.8552 10.7974 15.8552 11.8286C15.8552 12.8599 16.6989 13.7036 17.7302 13.7036ZM15.1286 26.688C15.5739 26.688 15.9489 26.4302 16.0895 25.8442C16.3356 24.9653 17.0505 21.9419 17.2849 21.2036C17.4489 20.7232 17.4841 20.688 17.613 20.688C17.7419 20.688 17.777 20.7232 17.9411 21.2036C18.1638 21.9419 18.8903 24.9653 19.1364 25.8442C19.277 26.4302 19.652 26.688 20.0974 26.688C20.7653 26.688 21.152 26.0669 20.988 25.4575C20.9294 25.2583 19.9099 20.9106 19.7458 19.9966C19.6638 19.4341 19.6169 18.4497 19.6169 18.0396C19.6169 17.8521 19.8278 17.7935 19.9333 17.9458L21.4333 20.1138C21.7497 20.5708 22.2653 20.5825 22.6052 20.3364C22.9099 20.1255 23.0622 19.6919 22.7692 19.2466L20.8356 16.2466C20.1559 15.2153 19.1013 14.8052 18.0231 14.8052H17.613C16.8278 14.8052 16.488 14.5591 15.9606 13.9966L14.7184 12.6724C14.402 12.3442 13.7809 12.3325 13.4294 12.7427C13.113 13.0708 13.0075 13.5513 13.277 13.9614C13.4059 14.1606 14.4841 15.3677 15.3278 16.4224C15.5153 16.6567 15.6208 16.8794 15.6208 17.2192C15.6208 17.8052 15.5974 19.27 15.4802 19.9966C15.3161 20.9106 14.2966 25.2583 14.238 25.4575C14.0739 26.0669 14.4606 26.688 15.1286 26.688Z" fill="black" fill-opacity="0.85"/>
</svg>
