<svg width="28" height="27" viewBox="0 0 28 27" fill="none" xmlns="http://www.w3.org/2000/svg">
<path d="M4.92188 4.33594H11.6836C12.0938 4.33594 12.4219 3.99609 12.4219 3.57422C12.4219 3.15234 12.0938 2.80078 11.6836 2.80078H4.92188C4.5 2.80078 4.18359 3.15234 4.18359 3.57422C4.18359 3.99609 4.5 4.33594 4.92188 4.33594ZM0.726562 10.207H8.75391C9.17578 10.207 9.49219 9.86719 9.49219 9.44531C9.49219 9.02344 9.17578 8.67188 8.75391 8.67188H0.726562C0.316406 8.67188 0 9.03516 0 9.44531C0 9.85547 0.316406 10.207 0.726562 10.207ZM4.23047 16.0781H8.69531C9.10547 16.0781 9.42188 15.7383 9.42188 15.3164C9.42188 14.8945 9.10547 14.543 8.69531 14.543H4.23047C3.80859 14.543 3.49219 14.8945 3.49219 15.3164C3.49219 15.7383 3.80859 16.0781 4.23047 16.0781ZM1.14844 21.8789H7.26562C7.67578 21.8789 7.99219 21.5391 7.99219 21.1172C7.99219 20.6953 7.67578 20.3438 7.26562 20.3438H1.14844C0.738281 20.3438 0.421875 20.6953 0.421875 21.1172C0.421875 21.5391 0.738281 21.8789 1.14844 21.8789Z" fill="#007AFF"/>
<path d="M14.0154 25.2891L17.531 21.0938C17.8826 20.6836 17.9295 20.5898 18.0701 20.1562L18.3279 19.3594L16.4412 16.9922L15.867 19.6406L12.3982 23.7656C11.2967 25.0898 13.1014 26.3789 14.0154 25.2891ZM22.5818 24.9375C23.3084 26.4023 25.4764 25.5 24.6912 23.9062L22.3006 19.0664C22.1131 18.7031 21.8553 18.3047 21.6326 17.9883L20.1209 15.8438L20.2264 15.5273C20.6248 14.3086 20.7889 13.582 20.8709 12.375L21.1053 8.98828C21.2225 7.38281 20.2732 6.16406 18.6326 6.16406C17.3904 6.16406 16.5584 6.78516 15.41 7.89844L13.6287 9.66797C13.0428 10.2422 12.8553 10.7109 12.7967 11.4727L12.574 14.2383C12.5154 14.9414 12.9021 15.4336 13.5584 15.457C14.2146 15.5039 14.6131 15.1172 14.6717 14.3672L14.9295 11.332L15.785 10.5586C16.1014 10.2773 16.5115 10.4648 16.4881 10.7812L16.3006 13.3477C16.1951 14.6484 16.4998 15.2695 17.3904 16.3828L19.7693 19.3594C20.0037 19.6641 20.0389 19.7812 20.1326 19.9688L22.5818 24.9375ZM26.66 10.7344H23.9646L22.2537 8.84766L22.0545 11.6719L22.7342 12.3516C23.1092 12.7266 23.449 12.8438 24.1404 12.8438H26.66C27.3748 12.8438 27.8318 12.4453 27.8318 11.7891C27.8318 11.1562 27.3631 10.7344 26.66 10.7344ZM19.9334 5.10938C21.3514 5.10938 22.4881 3.96094 22.4881 2.55469C22.4881 1.13672 21.3514 0 19.9334 0C18.5154 0 17.3787 1.13672 17.3787 2.55469C17.3787 3.96094 18.5154 5.10938 19.9334 5.10938Z" fill="black" fill-opacity="0.85"/>
</svg>
