<svg width="29" height="27" viewBox="0 0 29 27" fill="none" xmlns="http://www.w3.org/2000/svg">
<path d="M14.2734 5.12109C15.668 5.12109 16.8281 3.96094 16.8281 2.55469C16.8281 1.16016 15.668 0 14.2734 0C12.8672 0 11.707 1.16016 11.707 2.55469C11.707 3.96094 12.8672 5.12109 14.2734 5.12109ZM10.5117 20.3555C10.9805 20.8242 11.7188 20.8242 12.1875 20.3555L17.0156 15.5273C17.6836 14.8711 17.25 13.6406 16.2539 13.5469L10.8281 12.9609C10.3711 12.9141 10.3125 12.6328 10.5117 12.3398L12.4336 9.43359C12.6328 9.15234 12.9961 9.08203 13.2656 9.26953L16.6875 11.5312C16.8633 11.6484 17.0859 11.7422 17.332 11.7422H22.7109C23.3555 11.7422 23.8945 11.2031 23.8945 10.5586C23.8945 9.89062 23.3555 9.35156 22.7109 9.35156H17.6719L7.23047 2.39062C7.04297 2.26172 6.82031 2.17969 6.57422 2.17969H1.18359C0.539062 2.17969 0 2.73047 0 3.38672C0 4.03125 0.539062 4.57031 1.18359 4.57031H6.22266L8.14453 5.84766C8.42578 6.03516 8.50781 6.39844 8.30859 6.67969L5.53125 10.8516C4.24219 12.7852 5.36719 15.3633 7.85156 15.5039L13.3945 15.7969L10.5117 18.6797C10.0312 19.1484 10.0312 19.8867 10.5117 20.3555ZM6.04688 16.1602V20.1797L2.73047 24.0117C2.30859 24.5156 2.35547 25.3008 2.87109 25.7344C3.45703 26.2031 4.18359 26.0391 4.57031 25.5938L8.14453 21.4102C8.34375 21.1758 8.40234 20.918 8.4375 20.6719L9.10547 16.6875L7.80469 16.6289C7.14844 16.5938 6.55078 16.4297 6.04688 16.1602ZM22.7109 7.26562C22.7109 8.08594 24.0586 8.75391 25.6992 8.75391C27.3398 8.75391 28.6758 8.08594 28.6758 7.26562C28.6758 6.44531 27.3398 5.76562 25.6992 5.76562C24.0586 5.76562 22.7109 6.44531 22.7109 7.26562Z" fill="black" fill-opacity="0.85"/>
</svg>
