<svg width="28" height="18" viewBox="0 0 28 18" fill="none" xmlns="http://www.w3.org/2000/svg">
<path d="M18.5391 6.04697C19.957 6.04697 21.1055 4.91025 21.1055 3.49228C21.1055 2.07431 19.957 0.925876 18.5391 0.925876C17.1211 0.925876 15.9844 2.07431 15.9844 3.49228C15.9844 4.91025 17.1211 6.04697 18.5391 6.04697ZM13.8633 10.7931C15.9375 10.7931 16.5234 9.51571 18.3633 9.04697L10.2422 0.597751C9.71484 0.0586886 8.94141 -0.011624 8.30859 0.433689L3.71484 3.70321C2.91797 4.26571 3 5.09775 3.45703 5.58993C3.83203 6.01182 4.52344 6.18759 5.17969 5.71884L8.90625 3.08212L11.0156 5.25009C11.25 5.49618 11.3203 5.87118 10.957 6.11728L6.62109 8.96493C7.125 8.91806 7.66406 8.90634 8.28516 8.92978C10.9453 9.04698 11.4375 10.7931 13.8633 10.7931ZM0.65625 13.8868H1.83984C4.96875 13.8868 5.68359 11.9649 7.85156 11.9649C10.0195 11.9649 10.7344 13.8868 13.8633 13.8868C17.0039 13.8868 17.707 11.9649 19.8867 11.9649C22.0547 11.9649 22.7578 13.8868 25.8984 13.8868H27.082C27.4453 13.8868 27.7383 13.6056 27.7383 13.2423C27.7383 12.879 27.4453 12.586 27.082 12.586H25.8984C23.6484 12.586 22.8867 10.6642 19.8867 10.6642C16.875 10.6642 16.1133 12.586 13.8633 12.586C11.6133 12.586 10.8633 10.6642 7.85156 10.6642C4.85156 10.6642 4.08984 12.586 1.83984 12.586H0.65625C0.28125 12.586 0 12.879 0 13.2423C0 13.6056 0.28125 13.8868 0.65625 13.8868ZM0.960938 17.1446C1.34766 17.1446 1.65234 16.8399 1.65234 16.4649C1.65234 16.0782 1.34766 15.7735 0.960938 15.7735C0.585938 15.7735 0.28125 16.0782 0.28125 16.4649C0.28125 16.8399 0.585938 17.1446 0.960938 17.1446ZM3.16406 16.7462C3.53906 16.7462 3.84375 16.4532 3.84375 16.0665C3.84375 15.6798 3.53906 15.3868 3.16406 15.3868C2.77734 15.3868 2.47266 15.6798 2.47266 16.0665C2.47266 16.4532 2.77734 16.7462 3.16406 16.7462ZM5.21484 15.7853C5.60156 15.7853 5.90625 15.4806 5.90625 15.0939C5.90625 14.7189 5.60156 14.4142 5.21484 14.4142C4.83984 14.4142 4.53516 14.7189 4.53516 15.0939C4.53516 15.4806 4.83984 15.7853 5.21484 15.7853ZM7.42969 15.2579C7.81641 15.2579 8.12109 14.9532 8.12109 14.5782C8.12109 14.1915 7.81641 13.8868 7.42969 13.8868C7.05469 13.8868 6.75 14.1915 6.75 14.5782C6.75 14.9532 7.05469 15.2579 7.42969 15.2579ZM9.64453 15.7853C10.0312 15.7853 10.3242 15.4806 10.3242 15.0939C10.3242 14.7189 10.0312 14.4142 9.64453 14.4142C9.25781 14.4142 8.96484 14.7189 8.96484 15.0939C8.96484 15.4806 9.25781 15.7853 9.64453 15.7853ZM11.7188 16.7462C12.1055 16.7462 12.4102 16.4532 12.4102 16.0665C12.4102 15.6798 12.1055 15.3868 11.7188 15.3868C11.3438 15.3868 11.0391 15.6798 11.0391 16.0665C11.0391 16.4532 11.3438 16.7462 11.7188 16.7462ZM13.8867 17.1446C14.2617 17.1446 14.5664 16.8399 14.5664 16.4649C14.5664 16.0782 14.2617 15.7735 13.8867 15.7735C13.5 15.7735 13.1953 16.0782 13.1953 16.4649C13.1953 16.8399 13.5 17.1446 13.8867 17.1446ZM16.043 16.7462C16.4297 16.7462 16.7227 16.4532 16.7227 16.0665C16.7227 15.6798 16.4297 15.3868 16.043 15.3868C15.6562 15.3868 15.3633 15.6798 15.3633 16.0665C15.3633 16.4532 15.6562 16.7462 16.043 16.7462ZM18.1172 15.7853C18.5039 15.7853 18.8086 15.4806 18.8086 15.0939C18.8086 14.7189 18.5039 14.4142 18.1172 14.4142C17.7422 14.4142 17.4375 14.7189 17.4375 15.0939C17.4375 15.4806 17.7422 15.7853 18.1172 15.7853ZM20.332 15.2579C20.7188 15.2579 21.0117 14.9532 21.0117 14.5782C21.0117 14.1915 20.7188 13.8868 20.332 13.8868C19.9453 13.8868 19.6523 14.1915 19.6523 14.5782C19.6523 14.9532 19.9453 15.2579 20.332 15.2579ZM22.5469 15.7853C22.9336 15.7853 23.2266 15.4806 23.2266 15.0939C23.2266 14.7189 22.9336 14.4142 22.5469 14.4142C22.1602 14.4142 21.8672 14.7189 21.8672 15.0939C21.8672 15.4806 22.1602 15.7853 22.5469 15.7853ZM24.6094 16.7462C24.9961 16.7462 25.2891 16.4532 25.2891 16.0665C25.2891 15.6798 24.9961 15.3868 24.6094 15.3868C24.2227 15.3868 23.9297 15.6798 23.9297 16.0665C23.9297 16.4532 24.2227 16.7462 24.6094 16.7462ZM26.7891 17.1446C27.1758 17.1446 27.4805 16.8399 27.4805 16.4649C27.4805 16.0782 27.1758 15.7735 26.7891 15.7735C26.4141 15.7735 26.1094 16.0782 26.1094 16.4649C26.1094 16.8399 26.4141 17.1446 26.7891 17.1446Z" fill="black" fill-opacity="0.85"/>
</svg>
