<svg width="21" height="29" viewBox="0 0 21 29" fill="none" xmlns="http://www.w3.org/2000/svg">
<path d="M10.1685 5.13281C11.5747 5.13281 12.7232 3.97266 12.7232 2.56641C12.7232 1.16016 11.5747 0 10.1685 0C8.76225 0 7.60209 1.16016 7.60209 2.56641C7.60209 3.97266 8.76225 5.13281 10.1685 5.13281ZM0.945842 14.0977C1.55522 14.2031 2.21147 13.9102 2.36381 13.1953L3.3599 8.74219H5.12944C5.35209 8.74219 5.51615 8.92969 5.45756 9.15234L4.27397 13.7109C3.78178 15.5625 5.00053 17.3906 7.33256 16.8047L11.6333 15.7383L10.8013 19.8867C10.6724 20.5195 11.0943 21.1641 11.7271 21.3047C12.2779 21.4219 12.9927 21.0703 13.1451 20.3672L14.3404 14.3789C14.5162 13.5117 13.7779 12.8555 13.0513 12.9258L9.231 13.3008L10.356 9.03516C10.4029 8.85938 10.5904 8.74219 10.7662 8.8125L15.149 10.4766C15.9458 10.7812 16.7544 10.3242 16.7544 9.49219V3.96094C16.7544 3.30469 16.2271 2.76562 15.5474 2.76562C14.8912 2.76562 14.3521 3.30469 14.3521 3.96094V7.61719L12.1138 6.75C11.3872 6.48047 10.5904 6.33984 9.7935 6.33984H2.38725C1.82475 6.33984 1.34428 6.73828 1.22709 7.27734L0.0317793 12.668C-0.120565 13.3242 0.289592 13.9805 0.945842 14.0977ZM6.34819 28.4883C6.89897 28.6055 7.62553 28.2305 7.75444 27.5508L8.94975 21.5625C8.97319 21.457 8.97319 21.3281 8.97319 21.2227V17.5781L7.60209 17.9062C7.07475 18.0469 6.58256 18.082 6.12553 18.0469L6.57084 21.2695L5.41069 27.0586C5.28178 27.7148 5.69194 28.3594 6.34819 28.4883ZM10.9185 26.1328H18.6997C19.063 26.1328 19.356 25.8398 19.356 25.4766C19.356 25.1133 19.063 24.832 18.6997 24.832H10.9185C10.5552 24.832 10.2622 25.1133 10.2622 25.4766C10.2622 25.8398 10.5552 26.1328 10.9185 26.1328ZM9.71147 28.7695H19.8833C20.2466 28.7695 20.5396 28.4766 20.5396 28.1133C20.5396 27.75 20.2466 27.4688 19.8833 27.4688H9.71147C9.34819 27.4688 9.06694 27.75 9.06694 28.1133C9.06694 28.4766 9.34819 28.7695 9.71147 28.7695Z" fill="black" fill-opacity="0.85"/>
</svg>
