<svg width="16" height="32" viewBox="0 0 16 32" fill="none" xmlns="http://www.w3.org/2000/svg">
<path d="M7.90235 8.65674C9.28516 8.65674 10.4101 7.53174 10.4101 6.12549C10.4101 4.73096 9.28516 3.61768 7.90235 3.61768C6.4961 3.61768 5.3711 4.73096 5.3711 6.12549C5.3711 7.53174 6.4961 8.65674 7.90235 8.65674ZM6.20312 31.8716C6.8125 31.8716 7.33985 31.3442 7.33985 30.7349V24.5942L7.90235 20.0356L8.45312 24.5942V30.7349C8.45312 31.3442 8.98046 31.8716 9.58984 31.8716C10.2109 31.8716 10.7265 31.3442 10.7265 30.7349V14.3872C10.7265 14.2466 10.914 14.2231 10.9726 14.3403C12.4023 16.9888 13.2461 19.356 13.5859 20.3872C13.7968 20.9614 14.4414 21.2895 15.0273 21.0903C15.4961 20.938 15.789 20.4927 15.789 20.0239C15.789 19.9067 15.7656 19.7778 15.7304 19.6606C15.6601 19.4145 13.6914 13.5669 11.2539 10.8013C10.7383 10.2153 9.97657 9.86377 9.15625 9.86377H6.63671C5.8164 9.86377 5.05469 10.2153 4.55079 10.8013C2.10157 13.5669 0.144531 19.4145 0.0742188 19.6606C0.0273438 19.7778 0.015625 19.9185 0.015625 20.0356C0.015625 20.4927 0.308594 20.938 0.777344 21.0903C1.36329 21.2895 1.9961 20.9614 2.20704 20.3872C2.5586 19.356 3.39062 16.9888 4.83204 14.3403C4.89062 14.2231 5.07812 14.2466 5.07812 14.3872V30.7349C5.07812 31.3442 5.59375 31.8716 6.20312 31.8716ZM7.90235 1.30908C12.1094 1.30908 14.4883 5.18799 14.4883 11.8794V20.0356H15.789V11.8794C15.789 4.34424 12.9531 0.00830078 7.90235 0.00830078C2.86329 0.00830078 0.0273438 4.34424 0.0273438 11.8794V20.0474H1.32812V11.8794C1.32812 5.18799 3.69532 1.30908 7.90235 1.30908Z" fill="black" fill-opacity="0.85"/>
</svg>
