<svg width="32" height="29" viewBox="0 0 32 29" fill="none" xmlns="http://www.w3.org/2000/svg">
<path d="M26.3008 6.792C27.5899 6.792 28.6094 5.74903 28.6094 4.47168C28.6094 3.18262 27.5899 2.16309 26.3008 2.16309C25.0235 2.16309 23.9805 3.18262 23.9805 4.47168C23.9805 5.74903 25.0235 6.792 26.3008 6.792ZM24.9063 25.8232C25.4922 25.8232 25.9375 25.3662 25.9375 24.792V17.2451C25.9375 17.0576 26.1133 16.8935 26.3008 16.8935C26.4883 16.8935 26.6524 17.0576 26.6524 17.2451V24.792C26.6524 25.3662 27.1211 25.8232 27.6954 25.8232C28.2696 25.8232 28.7266 25.3662 28.7266 24.792V12.3935C28.7266 12.1943 28.879 12.0537 29.0782 12.0537C29.2657 12.0537 29.418 12.1943 29.418 12.3935V16.4834C29.418 17.0224 29.8399 17.4443 30.3672 17.4443C30.8829 17.4443 31.3047 17.0224 31.3047 16.4834V11.913C31.3047 9.56934 29.5821 8.01075 27.0743 8.01075H25.5274C23.0079 8.01075 21.2852 9.56934 21.2852 11.913V16.4834C21.2852 17.0224 21.7071 17.4443 22.2344 17.4443C22.7618 17.4443 23.1836 17.0224 23.1836 16.4834V12.3935C23.1836 12.1943 23.336 12.0537 23.5235 12.0537C23.711 12.0537 23.875 12.1943 23.875 12.3935V24.792C23.875 25.3662 24.3321 25.8232 24.9063 25.8232Z" fill="black" fill-opacity="0.85"/>
<path d="M16.6328 28.1318C17.1601 28.1318 17.582 27.7451 17.582 27.2177V0.920898C17.582 0.393555 17.1601 0.00683594 16.6328 0.00683594C16.1054 0.00683594 15.6953 0.393555 15.6953 0.920898V27.2177C15.6953 27.7451 16.1054 28.1318 16.6328 28.1318Z" fill="#007AFF"/>
<path d="M6.35453 6.792C7.63187 6.792 8.66312 5.74903 8.66312 4.47168C8.66312 3.18262 7.63187 2.16309 6.35453 2.16309C5.06546 2.16309 4.03421 3.18262 4.03421 4.47168C4.03421 5.74903 5.06546 6.792 6.35453 6.792ZM4.95999 25.8232C5.53421 25.8232 5.99124 25.3662 5.99124 24.792V20.4443C5.99124 20.2451 6.15531 20.0927 6.35453 20.0927C6.54203 20.0927 6.70609 20.2451 6.70609 20.4443V24.792C6.70609 25.3662 7.1514 25.8232 7.73734 25.8232C8.31156 25.8232 8.76859 25.3662 8.76859 24.792V20.4443H10.1983C10.7842 20.4443 11.0303 19.9521 10.8545 19.3896L8.70999 12.5341C8.55765 12.0302 9.23734 11.831 9.38968 12.3466L10.7256 16.624C11.1358 17.9365 13.0459 17.4209 12.6358 16.0849L11.3936 12.124C10.585 9.52246 9.72953 7.99903 6.70609 7.99903H5.99124C2.96781 7.99903 2.10062 9.52246 1.29203 12.124L0.0615533 16.0849C-0.348603 17.4209 1.54984 17.9365 1.97171 16.624L3.30765 12.3466C3.45999 11.831 4.13968 12.0302 3.97562 12.5341L1.84281 19.3896C1.66703 19.9521 1.91312 20.4443 2.48734 20.4443H3.91703V24.792C3.91703 25.3662 4.38578 25.8232 4.95999 25.8232Z" fill="black" fill-opacity="0.85"/>
</svg>
