<svg width="13" height="27" viewBox="0 0 13 27" fill="none" xmlns="http://www.w3.org/2000/svg">
<path d="M0.0126491 1.12287L0.235306 5.23615C0.270462 5.98615 0.563431 6.41974 1.09078 6.80646L3.63374 8.66974C3.95015 8.8924 4.12593 9.05646 4.12593 9.60724V24.9002C4.12593 25.5331 4.64156 26.037 5.27437 26.037C5.90718 26.037 6.41109 25.5331 6.41109 24.9002V16.6737C6.41109 16.4627 6.59859 16.2752 6.80953 16.2752C7.02046 16.2752 7.19624 16.4627 7.19624 16.6737V24.9002C7.19624 25.5331 7.71187 26.037 8.34468 26.037C8.97749 26.037 9.4814 25.5331 9.4814 24.9002V11.3182C9.4814 11.1073 9.65718 10.9432 9.86812 10.9432C10.079 10.9432 10.2431 11.1073 10.2431 11.3182V15.8299C10.2431 16.4159 10.7118 16.8729 11.2861 16.8729C11.8603 16.8729 12.329 16.4159 12.329 15.8299V10.7909C12.329 8.20099 10.4306 6.47834 7.66499 6.47834H5.22749C4.52437 6.47834 4.09078 6.33771 3.52828 5.93927L2.30953 5.07209L2.08687 1.0174C2.06343 0.443177 1.57124 -0.025573 0.997024 0.021302C0.411087 0.068177 -0.0107884 0.548645 0.0126491 1.12287ZM6.80953 5.16584C8.22749 5.16584 9.36421 4.02912 9.36421 2.61115C9.36421 1.19318 8.22749 0.0564583 6.80953 0.0564583C5.39156 0.0564583 4.25484 1.19318 4.25484 2.61115C4.25484 4.02912 5.39156 5.16584 6.80953 5.16584Z" fill="black" fill-opacity="0.85"/>
</svg>
