<svg width="31" height="24" viewBox="0 0 31 24" fill="none" xmlns="http://www.w3.org/2000/svg">
<path d="M19.3204 6.5752C21.0783 6.5752 22.4845 5.11036 22.4845 3.41114C22.4845 1.64161 21.0783 0.200195 19.3204 0.200195C17.5509 0.200195 16.1329 1.64161 16.1329 3.41114C16.1329 5.1455 17.5509 6.5752 19.3204 6.5752ZM17.2814 18.7158C17.797 18.3057 18.2892 17.6143 18.7579 16.7471L20.9142 12.833C21.9103 11.0283 21.5822 9.18847 19.8829 8.27442C18.2306 7.36035 16.5197 8.06348 15.5119 9.89161L13.2853 13.9111L17.2814 18.7158ZM0.441569 23.3213C1.05094 23.9658 2.09391 23.9072 2.84391 23.1455L7.88297 17.9424C8.05876 17.7666 8.16422 17.7197 8.42204 17.8252L12.6759 19.4307C13.6017 19.7822 14.6095 19.7119 15.3478 19.5713L12.4181 15.9502L9.42985 14.8604C8.04704 14.3565 6.8986 14.5205 5.78532 15.6689L0.547038 21.083C-0.167806 21.833 -0.109212 22.7705 0.441569 23.3213ZM19.8126 23.4619C20.2931 23.0869 20.3283 22.501 19.8712 21.9502L17.2814 18.7158C16.6837 19.1377 16.0275 19.4307 15.3478 19.5713L18.3361 23.2393C18.7697 23.7666 19.3204 23.8721 19.8126 23.4619Z" fill="#007AFF"/>
<path d="M24.3593 23.7432H29.9843C30.4179 23.7432 30.7226 23.4385 30.7226 23.0166C30.7226 22.583 30.4179 22.2783 29.9843 22.2783H26.0117V22.2432L28.5546 19.501C29.457 18.54 30.1249 17.6963 30.1249 16.4893C30.1249 14.8135 28.8242 13.7236 26.7968 13.7236C25.2851 13.7236 23.9257 14.6377 23.5742 15.8799C23.539 16.0439 23.5156 16.1729 23.5156 16.3252C23.5156 16.7588 23.7968 17.0518 24.2421 17.0518C24.6406 17.0518 24.8398 16.8057 25.039 16.4775C25.3202 15.833 25.8827 15.165 26.8671 15.165C27.8632 15.165 28.5312 15.751 28.5312 16.6065C28.5312 17.3682 27.8867 18.0127 27.2656 18.6807L23.8554 22.3486C23.6679 22.5479 23.5624 22.7588 23.5624 23.0166C23.5624 23.4619 23.8671 23.7432 24.3593 23.7432Z" fill="black" fill-opacity="0.85"/>
<path d="M5.98438 11.9072C9.30078 11.9072 11.8789 9.17675 11.8789 6.00098C11.8789 2.68458 9.30078 0.0126953 5.98438 0.0126953C2.67969 0.0126953 0.0195312 2.68458 0.0195312 6.00098C0.0195312 9.17675 2.67969 11.9072 5.98438 11.9072ZM5.98438 10.3721C3.58203 10.3721 1.55469 8.37988 1.55469 6.00098C1.55469 3.52832 3.52344 1.54786 5.98438 1.54786C8.4336 1.54786 10.3438 3.50489 10.3438 6.00098C10.3438 8.41504 8.38672 10.3721 5.98438 10.3721ZM1.66016 0.586914C1.36719 0.293945 0.875 0.293945 0.582031 0.586914C0.277343 0.879883 0.277343 1.36036 0.582031 1.67676L10.2618 11.3447C10.5547 11.6377 11.0352 11.6377 11.3399 11.3447C11.6446 11.0518 11.6446 10.5596 11.3399 10.2549L1.66016 0.586914ZM0.582031 10.2549C0.277343 10.5596 0.277343 11.0518 0.582031 11.3447C0.875 11.6377 1.36719 11.6377 1.66016 11.3447L11.3399 1.67676C11.6446 1.36036 11.6446 0.879883 11.3399 0.586914C11.0352 0.293945 10.5547 0.293945 10.2618 0.586914L0.582031 10.2549Z" fill="black" fill-opacity="0.85"/>
</svg>
