<svg width="26" height="29" viewBox="0 0 26 29" fill="none" xmlns="http://www.w3.org/2000/svg">
<path d="M17.448 5.10205C18.8659 5.10205 20.0027 3.96533 20.0027 2.55908C20.0027 1.14111 18.8659 0.00439453 17.448 0.00439453C16.03 0.00439453 14.8933 1.14111 14.8933 2.55908C14.8933 3.96533 16.03 5.10205 17.448 5.10205ZM4.74485 17.2544H11.4948L17.7292 18.1333C20.0612 18.4614 21.7487 17.4419 21.7487 15.2153V10.9966C21.7487 10.7856 21.9714 10.7036 22.112 10.8442L23.2722 12.0161V16.0239C23.2722 16.7036 23.8464 17.2544 24.4909 17.2544C25.1589 17.2544 25.698 16.7036 25.698 16.0239V11.5005C25.698 11.1841 25.5808 10.8677 25.3347 10.6333L22.3816 7.69189C21.5027 6.83642 20.3777 6.33251 19.1237 6.33251H7.55735C6.9011 6.33251 6.3386 6.89501 6.3386 7.55127C6.3386 8.23095 6.87766 8.77001 7.55735 8.77001H16.4519C16.8034 8.77001 17.0612 9.03955 17.0612 9.37939V14.8169H4.74485C4.05344 14.8169 3.51438 15.356 3.51438 16.0239C3.51438 16.7036 4.07688 17.2544 4.74485 17.2544ZM19.698 27.6255C20.1667 28.0942 20.9284 28.0942 21.3972 27.6255C21.8777 27.1567 21.8659 26.395 21.3972 25.9146L17.5183 21.9888L18.9011 19.3052C18.4909 19.3403 18.0339 19.3052 17.5652 19.2466L15.8894 19.0122L14.8698 21.8247C14.7058 22.2583 14.8112 22.7388 15.1628 23.0903L19.698 27.6255ZM1.20579 12.0747C2.72923 13.5864 4.44016 13.4224 5.08469 12.7896C5.70579 12.1333 5.75266 10.5513 4.25266 9.02783C2.70579 7.49267 1.11204 7.53955 0.467508 8.1958C-0.177023 8.84033 -0.317648 10.5278 1.20579 12.0747Z" fill="black" fill-opacity="0.85"/>
</svg>
