<svg width="31" height="27" viewBox="0 0 31 27" fill="none" xmlns="http://www.w3.org/2000/svg">
<path d="M15.479 5.12109C16.897 5.12109 18.0337 3.98438 18.0337 2.56641C18.0337 1.14844 16.897 0 15.479 0C14.061 0 12.9126 1.14844 12.9126 2.56641C12.9126 3.98438 14.061 5.12109 15.479 5.12109ZM25.5923 8.74219C26.2485 8.74219 26.7876 8.21484 26.7876 7.53516C26.7876 6.87891 26.2485 6.35156 25.5923 6.35156H13.0064C11.8579 6.35156 10.8618 6.96094 10.3345 8.00391L5.02589 18.6328L2.02589 15.6328C1.55714 15.1641 0.795424 15.1758 0.338393 15.6328C-0.118638 16.1016 -0.106919 16.8516 0.338393 17.3203L4.56886 21.5625C5.07277 22.0547 5.85792 21.9844 6.26808 21.3867L9.73683 16.3242C9.92433 16.0312 10.3345 15.9844 10.604 16.1836L14.8696 19.4531V25.4062C14.8696 26.0625 15.397 26.5898 16.065 26.5898C16.7329 26.5898 17.2603 26.0625 17.2603 25.4062V18.8555C17.2603 18.5391 17.1314 18.2344 16.9087 18.0117L12.7603 13.8633L14.9868 9.39844C15.2095 8.96484 15.5962 8.74219 16.0415 8.74219H25.5923ZM17.8462 14.0977H22.6157C23.272 14.0977 23.7993 13.5469 23.7993 12.9141C23.7993 12.2461 23.272 11.707 22.6157 11.707H18.3384L16.4868 9.86719H16.1939C16.0767 9.86719 16.0064 9.91406 15.9478 10.0195L15.0454 11.7891L17.0142 13.7461C17.2485 13.9688 17.5415 14.0977 17.8462 14.0977ZM24.6782 11.5664C24.6782 12.7031 26.0259 13.6406 27.6665 13.6406C29.3189 13.6406 30.6548 12.7031 30.6548 11.5664C30.6548 10.4062 29.3189 9.48047 27.6665 9.48047C26.0259 9.48047 24.6782 10.4062 24.6782 11.5664Z" fill="black" fill-opacity="0.85"/>
</svg>
