<svg width="20" height="29" viewBox="0 0 20 29" fill="none" xmlns="http://www.w3.org/2000/svg">
<path d="M9.75426 6.37451C11.5238 6.37451 12.93 4.92139 12.93 3.21045C12.93 1.45264 11.5238 0.0112305 9.75426 0.0112305C7.98473 0.0112305 6.60192 1.45264 6.60192 3.21045C6.60192 4.95654 7.98473 6.37451 9.75426 6.37451ZM3.64879 18.2339L12.7425 8.15576C11.8519 7.82764 10.8675 7.67529 9.75426 7.67529C5.66442 7.67529 3.23863 9.65576 3.23863 12.9604C3.23863 13.7456 3.28551 14.812 3.4027 15.9135L3.64879 18.2339ZM15.8714 18.2456L16.1175 15.9135C16.2347 14.812 16.2816 13.7456 16.2816 12.9604C16.2816 11.3315 15.7074 10.0073 14.5824 9.10498L7.38707 17.144C8.17223 17.0034 8.9691 16.9682 9.75426 16.9682C11.7816 16.9682 13.8089 17.226 15.8714 18.2456ZM6.25035 28.7924C7.0941 28.6753 7.64489 28.0776 7.53942 27.0346L6.96521 21.7495H12.555L11.9808 27.0346C11.8753 28.0776 12.4261 28.6753 13.2581 28.7924C14.1253 28.8862 14.7933 28.3471 14.8988 27.3276L15.6253 20.355C13.7738 19.2885 11.723 18.8784 9.75426 18.8784C7.79723 18.8784 5.74645 19.2885 3.89488 20.355L4.62146 27.3276C4.72693 28.3471 5.39488 28.8862 6.25035 28.7924ZM14.5824 9.09326L17.3011 6.08154C17.7699 5.54248 17.7347 4.96826 17.2777 4.58154C16.8558 4.20654 16.305 4.20654 15.8011 4.75732L12.7425 8.15576C13.4222 8.40185 14.0316 8.7417 14.5824 9.09326ZM0.285514 21.9956C0.707389 22.4292 1.2816 22.4174 1.77379 21.9135C2.43004 21.2924 3.08629 20.7651 3.89488 20.355L3.64879 18.2339C2.44176 18.7964 1.38707 19.605 0.390983 20.5424C-0.077767 20.9878 -0.101204 21.5737 0.285514 21.9956ZM19.2347 21.9956C19.6214 21.5854 19.598 20.9995 19.141 20.5542C18.1331 19.605 17.0785 18.8081 15.8714 18.2456L15.6253 20.355C16.4339 20.7651 17.0902 21.2924 17.7464 21.9135C18.2386 22.4174 18.8128 22.4292 19.2347 21.9956Z" fill="black" fill-opacity="0.85"/>
</svg>
