<svg width="23" height="28" viewBox="0 0 23 28" fill="none" xmlns="http://www.w3.org/2000/svg">
<path d="M11.3438 8.90621C12.7617 8.90621 13.9102 7.75776 13.9102 6.3398C13.9102 4.92183 12.7617 3.78512 11.3438 3.78512C9.92578 3.78512 8.78906 4.92183 8.78906 6.3398C8.78906 7.75776 9.92578 8.90621 11.3438 8.90621ZM21.7031 27.8789C22.3594 27.8789 22.8867 27.3398 22.8867 26.6953V20.7539C22.8867 20.332 22.6641 20.0156 22.3594 19.7578L17.7539 15.9609L16.8398 11.0156C16.7578 10.5117 16.8164 10.0195 17.0625 9.5273L20.9414 1.78121C21.2344 1.19527 20.9883 0.480424 20.4023 0.187455C19.8164 -0.105514 19.1016 0.128861 18.8086 0.70308L15 8.34371C14.7305 8.88276 14.3438 9.23433 13.7695 9.46871L7.05469 12.2578L4.34766 10.0898C4.14844 9.93746 3.91406 9.87887 3.71484 9.87887V6.65621H2.41406V10.9688C2.41406 11.3672 2.53125 11.707 2.83594 11.9531L6.14062 14.5781C6.55078 14.8945 6.99609 14.8711 7.51172 14.6602L11.1797 13.125C11.6953 12.9023 11.9531 13.1953 12.0117 13.5469L13.8281 23.5664L8.78906 25.582C8.19141 25.8164 7.88672 26.5078 8.12109 27.1289C8.40234 27.8203 9.08203 28.0078 9.66797 27.7734L15.6094 25.4062C16.125 25.1953 16.3945 24.6914 16.3594 24.1523L16.0195 19.5352C15.9844 19.0195 16.5469 18.7266 16.9453 18.9961L20.5195 21.3867V26.6953C20.5195 27.3398 21.0352 27.8789 21.7031 27.8789ZM3.07031 0.42183C1.34766 0.42183 0 1.78121 0 3.51558C0 5.0859 1.33594 6.82027 3.07031 7.40621C4.80469 6.82027 6.12891 5.0859 6.12891 3.51558C6.12891 1.78121 4.78125 0.42183 3.07031 0.42183ZM3.07031 1.72262C4.05469 1.72262 4.82812 2.51949 4.82812 3.55074C4.82812 4.55855 4.08984 5.6484 3.07031 5.99996C2.05078 5.6484 1.30078 4.55855 1.30078 3.55074C1.30078 2.51949 2.07422 1.72262 3.07031 1.72262Z" fill="black" fill-opacity="0.85"/>
</svg>
