<svg width="33" height="20" viewBox="0 0 33 20" fill="none" xmlns="http://www.w3.org/2000/svg">
<path d="M2.57813 14.5996C3.98438 14.5996 5.13281 13.4629 5.13281 12.045C5.13281 10.627 3.98438 9.47852 2.57813 9.47852C1.16016 9.47852 0.0117188 10.627 0.0117188 12.045C0.0117188 13.4629 1.16016 14.5996 2.57813 14.5996ZM5.36719 15.42C4.91016 16.5918 5.35547 17.7989 6.32813 18.4786C7.91016 19.5801 9.38672 19.9903 11.7422 19.9903H15.4805C18.3633 19.9903 19.1367 17.7286 18.1523 15.8301L15.1406 10.0176V1.22852C15.1406 0.53711 14.6015 0.00976562 13.8984 0.00976562C13.2187 0.00976562 12.7031 0.53711 12.7031 1.22852V10.3106C12.7031 10.4746 12.7148 10.6036 12.75 10.7207L14.4492 15.584H12.2461C10.8281 15.584 10.0078 15.1856 8.89453 14.5176C8.60156 14.3418 8.51953 14.0723 8.64844 13.7325L11.3789 6.74805C11.625 6.12696 11.3086 5.40039 10.6758 5.16602C10.0195 4.91993 9.33984 5.22461 9.09375 5.86915L5.36719 15.42ZM19.7578 18.0918L24.0937 16.6739L31.0195 15.42C31.6875 15.3028 32.1328 14.6934 32.0156 14.002C31.8867 13.334 31.2539 12.9004 30.5859 13.0176L23.3437 14.3301L19.1601 15.0918L19.2539 15.2559C19.8164 16.1934 19.9101 17.2246 19.7578 18.0918Z" fill="black" fill-opacity="0.85"/>
</svg>
