<svg width="20" height="29" viewBox="0 0 20 29" fill="none" xmlns="http://www.w3.org/2000/svg">
<path d="M6.86702 5.12109C8.27327 5.12109 9.43342 3.97266 9.43342 2.56641C9.43342 1.16016 8.27327 0 6.86702 0C5.46077 0 4.31233 1.16016 4.31233 2.56641C4.31233 3.97266 5.46077 5.12109 6.86702 5.12109ZM8.63655 23.0039C9.17561 23.0977 9.76155 22.8398 9.97249 22.125L11.5545 16.8281C11.7655 16.1016 11.4608 15.4805 10.7811 15.2344L6.67952 13.7578L7.28889 9.51562C7.32405 9.28125 7.51155 9.21094 7.73421 9.30469L9.79671 10.2422C10.0662 10.3711 10.2772 10.4062 10.6287 10.4414L15.8084 10.9688C16.4647 11.0391 17.0506 10.5703 17.0975 9.92578C17.1561 9.29297 16.6873 8.70703 16.0428 8.64844L10.7576 8.13281L6.76155 6.29297C5.05061 5.51953 3.28108 6.38672 3.05842 8.09766L2.40217 13.0898C2.21467 14.5547 3.12874 15.8789 4.55842 16.2188L9.01155 17.2383L7.72249 21.457C7.46467 22.3125 8.01546 22.8984 8.63655 23.0039ZM0.574049 26.6953C1.06624 26.9648 1.75764 26.8945 2.20296 26.2266L5.37874 21.4805C5.50764 21.293 5.57796 21.0703 5.62483 20.7891L6.11702 17.7539L4.32405 17.3438C4.0428 17.2852 3.77327 17.1914 3.50374 17.0625L3.28108 20.4141L0.269362 24.9258C-0.246263 25.7109 0.046705 26.4023 0.574049 26.6953ZM19.2655 7.42969C19.0897 7.07812 18.7147 6.94922 18.3748 7.11328C17.824 7.38281 17.4256 7.59375 17.0272 7.80469C17.449 8.02734 17.7889 8.37891 17.9881 8.80078C18.2576 8.64844 18.5389 8.50781 18.9608 8.28516C19.2889 8.12109 19.4178 7.74609 19.2655 7.42969ZM3.37483 28.7695H7.73421C8.09749 28.7695 8.39046 28.4883 8.39046 28.125V26.0156H12.1053C12.4569 26.0156 12.7498 25.7109 12.7498 25.3477V23.2383H15.1522C15.5037 23.2383 15.7967 22.957 15.8084 22.5938L16.2186 12.0469C16.1014 12.0469 16.0311 12.0586 15.9373 12.0586C15.5975 12.082 15.2342 12.0469 14.9178 12L14.5194 21.9258H12.1053C11.7303 21.9258 11.449 22.1953 11.449 22.5703V24.7031H7.73421C7.37092 24.7031 7.08967 24.9844 7.08967 25.3477V27.4688H3.37483C3.01155 27.4688 2.70686 27.7734 2.70686 28.125C2.70686 28.4766 3.02327 28.7695 3.37483 28.7695Z" fill="black" fill-opacity="0.85"/>
</svg>
