<svg width="21" height="29" viewBox="0 0 21 29" fill="none" xmlns="http://www.w3.org/2000/svg">
<path d="M8.39236 5.12109C9.79861 5.12109 10.9353 3.97266 10.9353 2.54297C10.9353 1.13672 9.79861 0 8.39236 0C6.96268 0 5.81424 1.13672 5.81424 2.54297C5.81424 3.97266 6.96268 5.12109 8.39236 5.12109ZM13.7596 27.9023C14.4392 27.9023 14.9666 27.3633 14.9666 26.707V20.0508C14.9666 19.7695 14.8142 19.3711 14.4392 19.125L10.1619 16.2773V9.03516C10.1619 8.88281 10.2908 8.74219 10.4549 8.74219H19.7478C20.4158 8.74219 20.9431 8.20312 20.9431 7.54688C20.9431 6.89062 20.4158 6.35156 19.7478 6.35156H6.52908C5.40408 6.35156 4.79471 6.75 4.22049 7.46484L1.1033 11.2969C0.353301 12.2109 0.962676 13.5352 1.93533 13.5352H5.38064V15.1875C5.38064 16.2773 5.99002 17.2969 6.97439 17.8242L12.5642 20.8359V26.707C12.5642 27.3633 13.1033 27.9023 13.7596 27.9023ZM4.16189 11.2148L5.45096 9.60938V11.2148H4.16189ZM0.282989 27.4922C0.74002 28.0078 1.49002 28.0312 1.99393 27.5977L6.69314 23.4844C6.92752 23.2734 7.02127 23.1797 7.1033 22.957L8.35721 19.8398L6.43533 18.8086C6.24783 18.7031 6.06033 18.5859 5.88455 18.457L4.93533 21.8438L0.400176 25.8047C-0.0802927 26.2266 -0.138886 27.0117 0.282989 27.4922Z" fill="black" fill-opacity="0.85"/>
</svg>
