<svg width="30" height="23" viewBox="0 0 30 23" fill="none" xmlns="http://www.w3.org/2000/svg">
<path d="M14.8477 17.8945C15.4922 17.8945 16.0195 17.3672 16.0195 16.7227V10.8281C16.0195 10.5469 15.9141 10.2891 15.6914 10.0312L12.6211 6.60938C12.4336 6.39844 12.5625 6.08203 12.8555 6.08203H16.6172C17.0742 6.08203 17.2148 6.41016 17.2148 6.72656V9.64453C17.2148 10.2891 17.7422 10.8047 18.3867 10.8047H23.1094C23.7539 10.8047 24.2695 10.2891 24.2695 9.64453C24.2695 9 23.7539 8.47266 23.1094 8.47266H19.5586V4.32422C19.5586 3.01172 18.5156 1.96875 17.2031 1.96875H11.4492C10.2539 1.96875 9.19922 2.69531 8.73047 3.78516C8.27344 4.89844 8.53125 6.14062 9.375 6.99609L13.6758 11.3203V16.7227C13.6758 17.3672 14.2031 17.8945 14.8477 17.8945ZM6.36328 22.5117C9.90234 22.5117 12.7383 19.6758 12.7383 16.1367C12.7383 12.6094 9.90234 9.76172 6.36328 9.76172C2.83594 9.76172 0 12.6094 0 16.1367C0 19.6758 2.83594 22.5117 6.36328 22.5117ZM6.36328 20.8594C3.77344 20.8594 1.65234 18.7383 1.65234 16.1367C1.65234 13.5352 3.77344 11.4141 6.36328 11.4141C8.96484 11.4141 11.0859 13.5352 11.0859 16.1367C11.0859 18.7383 8.96484 20.8594 6.36328 20.8594ZM26.4609 12.6328C27.4102 13.4883 28.0312 14.7422 28.0312 16.1367C28.0312 18.7383 25.9102 20.8594 23.3203 20.8594C20.7188 20.8594 18.5977 18.7383 18.5977 16.1367C18.5977 15.4805 18.7266 14.8359 18.9727 14.2734C19.2422 13.6406 18.9727 13.1953 18.5625 13.0547C18.1758 12.9023 17.7188 13.0312 17.5078 13.5352C17.1445 14.3438 16.9453 15.2109 16.9453 16.1367C16.9453 19.6758 19.7812 22.5117 23.3203 22.5117C26.8477 22.5117 29.6836 19.6758 29.6836 16.1367C29.6836 14.2148 28.8516 12.5273 27.5039 11.3438C27.0703 10.9688 26.5781 11.0625 26.2852 11.3789C26.0039 11.6953 25.957 12.1875 26.4609 12.6328ZM23.3203 5.12109C24.7266 5.12109 25.8633 3.97266 25.8633 2.55469C25.8633 1.14844 24.7266 0 23.3203 0C21.8906 0 20.7422 1.14844 20.7422 2.55469C20.7422 3.97266 21.8906 5.12109 23.3203 5.12109Z" fill="black" fill-opacity="0.85"/>
</svg>
