<svg width="32" height="29" viewBox="0 0 32 29" fill="none" xmlns="http://www.w3.org/2000/svg">
<path d="M9.75817 6.37451C11.5277 6.37451 12.9339 4.92139 12.9339 3.21045C12.9339 1.45264 11.5277 0.0112305 9.75817 0.0112305C7.98864 0.0112305 6.60583 1.45264 6.60583 3.21045C6.60583 4.95654 7.98864 6.37451 9.75817 6.37451ZM3.6527 18.2339L12.7464 8.15576C11.8558 7.82764 10.8714 7.67529 9.75817 7.67529C5.66833 7.67529 3.24254 9.65576 3.24254 12.9604C3.24254 13.7456 3.28942 14.812 3.40661 15.9135L3.6527 18.2339ZM15.8753 18.2456L16.1214 15.9135C16.2386 14.812 16.2855 13.7456 16.2855 12.9604C16.2855 11.3315 15.7113 10.0073 14.5863 9.10498L7.39098 17.144C8.17614 17.0034 8.97301 16.9682 9.75817 16.9682C11.7855 16.9682 13.8128 17.226 15.8753 18.2456ZM6.25426 28.7924C7.09801 28.6753 7.64879 28.0776 7.54333 27.0346L6.96911 21.7495H12.5589L11.9847 27.0346C11.8792 28.0776 12.43 28.6753 13.262 28.7924C14.1292 28.8862 14.7972 28.3471 14.9027 27.3276L15.6292 20.355C13.7777 19.2885 11.7269 18.8784 9.75817 18.8784C7.80114 18.8784 5.75036 19.2885 3.89879 20.355L4.62536 27.3276C4.73083 28.3471 5.39879 28.8862 6.25426 28.7924ZM14.5863 9.09326L17.305 6.08154C17.7738 5.54248 17.7386 4.96826 17.2816 4.58154C16.8597 4.20654 16.3089 4.20654 15.805 4.75732L12.7464 8.15576C13.4261 8.40185 14.0355 8.7417 14.5863 9.09326ZM0.28942 21.9956C0.711295 22.4292 1.28551 22.4174 1.7777 21.9135C2.43395 21.2924 3.0902 20.7651 3.89879 20.355L3.6527 18.2339C2.44567 18.7964 1.39098 19.605 0.394889 20.5424C-0.0738608 20.9878 -0.0972979 21.5737 0.28942 21.9956ZM19.2386 21.9956C19.6253 21.5854 19.6019 20.9995 19.1449 20.5542C18.137 19.605 17.0824 18.8081 15.8753 18.2456L15.6292 20.355C16.4378 20.7651 17.0941 21.2924 17.7503 21.9135C18.2425 22.4174 18.8167 22.4292 19.2386 21.9956Z" fill="#007AFF"/>
<path d="M25.8593 14.3667C29.164 14.3667 31.7538 11.6362 31.7538 8.46045C31.7538 5.14404 29.164 2.47217 25.8593 2.47217C22.5429 2.47217 19.8945 5.14404 19.8945 8.46045C19.8945 11.6362 22.5429 14.3667 25.8593 14.3667ZM25.8593 12.8315C23.4452 12.8315 21.4296 10.8393 21.4296 8.46045C21.4296 5.98779 23.3866 4.00732 25.8593 4.00732C28.2968 4.00732 30.2187 5.96435 30.2187 8.46045C30.2187 10.8745 28.2499 12.8315 25.8593 12.8315ZM21.5234 3.04639C21.2304 2.75342 20.7499 2.75342 20.457 3.04639C20.1523 3.33935 20.1523 3.81982 20.457 4.13623L30.1249 13.8042C30.4179 14.0971 30.9101 14.0971 31.2031 13.8042C31.5077 13.5112 31.5077 13.019 31.2031 12.7143L21.5234 3.04639ZM20.457 12.7143C20.1523 13.019 20.1523 13.5112 20.457 13.8042C20.7499 14.0971 21.2304 14.0971 21.5234 13.8042L31.2031 4.13623C31.5077 3.81982 31.5077 3.33935 31.2031 3.04639C30.9101 2.75342 30.4179 2.75342 30.1249 3.04639L20.457 12.7143Z" fill="black" fill-opacity="0.85"/>
</svg>
