<svg width="30" height="27" viewBox="0 0 30 27" fill="none" xmlns="http://www.w3.org/2000/svg">
<path d="M7.89889 5.05371C9.30514 5.05371 10.4301 3.94043 10.4301 2.53418C10.4301 1.12793 9.30514 0.00292969 7.89889 0.00292969C6.49264 0.00292969 5.36764 1.12793 5.36764 2.53418C5.36764 3.94043 6.49264 5.05371 7.89889 5.05371ZM7.89889 16.3974C8.37936 16.3974 8.56686 16.7256 8.83639 17.5693C9.23482 18.7529 10.4184 23.6631 10.8168 25.1045C11.016 25.831 11.391 26.1357 11.9418 26.1357C12.6918 26.1357 13.1488 25.456 12.9379 24.7177C12.8559 24.4013 11.1567 17.2998 10.9106 15.8349C10.7113 14.5459 10.6645 11.9443 10.6645 10.7138C10.6645 10.5263 10.8754 10.456 10.9926 10.6201C11.8715 11.8506 13.477 14.1474 13.7934 14.5224C14.1449 14.9209 14.7074 14.9912 15.1645 14.7334C15.7621 14.417 15.9028 13.7724 15.6567 13.3271C15.5629 13.1513 15.434 12.9756 15.3168 12.7998L12.2817 8.33496C11.3207 6.91699 10.1254 6.28418 7.89889 6.28418C5.67232 6.28418 4.47701 6.91699 3.51607 8.33496L0.480915 12.7998C0.363728 12.9756 0.234822 13.1513 0.141072 13.3271C-0.105022 13.7724 0.0238845 14.417 0.633259 14.7334C1.09029 14.9912 1.65279 14.9209 1.99264 14.5224C2.30904 14.1474 3.92623 11.8623 4.80514 10.6201C4.91061 10.4677 5.13326 10.5263 5.13326 10.7256C5.13326 11.956 5.07467 14.5459 4.87545 15.8349C4.64107 17.2998 2.94186 24.4013 2.85982 24.7177C2.64889 25.456 3.10592 26.1357 3.85592 26.1357C4.4067 26.1357 4.7817 25.831 4.98092 25.1045C5.37936 23.6631 6.56295 18.7529 6.96139 17.5693C7.23092 16.7256 7.41842 16.3974 7.89889 16.3974ZM21.3754 5.05371C22.7817 5.05371 23.9067 3.94043 23.9067 2.53418C23.9067 1.12793 22.7817 0.00292969 21.3754 0.00292969C19.9692 0.00292969 18.8442 1.12793 18.8442 2.53418C18.8442 3.94043 19.9692 5.05371 21.3754 5.05371ZM21.3754 16.3974C21.8442 16.3974 22.0434 16.7256 22.3129 17.5693C22.6996 18.7529 23.8949 23.6631 24.2934 25.1045C24.4926 25.831 24.8676 26.1357 25.4184 26.1357C26.1684 26.1357 26.6254 25.456 26.4145 24.7177C26.3207 24.4013 24.6215 17.2998 24.3871 15.8349C24.1879 14.5459 24.1293 11.9443 24.1293 10.7138C24.1293 10.5263 24.352 10.456 24.4574 10.6201C25.3481 11.8506 26.9535 14.1474 27.2699 14.5224C27.6215 14.9209 28.1723 14.9912 28.641 14.7334C29.2387 14.417 29.3793 13.7724 29.1215 13.3271C29.0278 13.1513 28.9106 12.9756 28.7817 12.7998L25.7582 8.33496C24.7856 6.91699 23.602 6.28418 21.3754 6.28418C19.1488 6.28418 17.9535 6.91699 16.9926 8.33496L13.9574 12.7998C13.8285 12.9756 13.7113 13.1513 13.6176 13.3271C13.3715 13.7724 13.5004 14.417 14.0981 14.7334C14.5668 14.9912 15.1176 14.9209 15.4692 14.5224C15.7856 14.1474 17.391 11.8623 18.2817 10.6201C18.3871 10.4677 18.6098 10.5263 18.6098 10.7256C18.6098 11.956 18.5512 14.5459 18.352 15.8349C18.1176 17.2998 16.4184 24.4013 16.3363 24.7177C16.1137 25.456 16.5824 26.1357 17.3324 26.1357C17.8832 26.1357 18.2465 25.831 18.4457 25.1045C18.8442 23.6631 20.0395 18.7529 20.4262 17.5693C20.6957 16.7256 20.8949 16.3974 21.3754 16.3974Z" fill="black" fill-opacity="0.85"/>
</svg>
