<svg width="26" height="24" viewBox="0 0 26 24" fill="none" xmlns="http://www.w3.org/2000/svg">
<path d="M7.17386 5.12109C8.59183 5.12109 9.72855 3.97266 9.72855 2.54297C9.72855 1.13672 8.59183 0 7.17386 0C5.76761 0 4.60746 1.13672 4.60746 2.54297C4.60746 3.97266 5.76761 5.12109 7.17386 5.12109ZM24.5059 21.457L16.7832 17.2852L12.3184 14.1797C11.9903 13.957 11.6739 13.6641 11.4161 13.3359C11.8731 13.0547 12.0606 12.5391 11.9317 12.0352L11.0528 8.47266C10.7364 7.21875 9.59964 6.35156 8.31058 6.35156H5.52152C4.66605 6.35156 4.06839 6.5625 3.51761 7.11328L0.341832 10.2891C-0.044887 10.6758 -0.103481 11.2734 0.166051 11.7422L2.39261 15.6445V22.5117C2.39261 23.1562 2.93168 23.707 3.58793 23.707C4.24418 23.707 4.78324 23.1562 4.78324 22.5117V16.6172L11.6153 17.1094L15.752 19.4531L23.3809 23.5547C24.084 23.9297 24.7637 23.5781 25.0098 23.0859C25.3028 22.5 25.0801 21.7617 24.5059 21.457ZM2.6973 11.3438L4.7598 9.26953L6.36527 13.4062L5.09964 14.1328H4.29105L2.6973 11.3438Z" fill="black" fill-opacity="0.85"/>
</svg>
