<svg width="23" height="28" viewBox="0 0 23 28" fill="none" xmlns="http://www.w3.org/2000/svg">
<path d="M11.3869 5.86915C12.8048 5.86915 13.9416 4.73243 13.9416 3.31446C13.9416 1.89649 12.8048 0.748047 11.3869 0.748047C9.96892 0.748047 8.82048 1.89649 8.82048 3.31446C8.82048 4.73243 9.96892 5.86915 11.3869 5.86915ZM21.1486 8.07227C20.6681 7.5918 19.9298 7.60352 19.4494 8.07227L16.59 10.9082L13.7306 8.02539C13.1681 7.45118 12.2775 7.09961 11.3869 7.09961H3.68767C3.16032 7.09961 2.72673 7.41602 2.53923 7.93165L0.699389 13.4629C0.418139 14.3184 0.910327 14.9043 1.50798 15.045C2.05876 15.1973 2.71501 14.9629 2.97282 14.2129L4.55486 9.50196H7.09782C7.3322 9.50196 7.49626 9.71289 7.41423 9.94727L5.85564 14.6348C5.34001 16.1582 5.80876 17.6231 7.5197 18.3731L12.5236 20.5645L14.2111 26.4825C14.422 27.2207 15.1017 27.4434 15.6759 27.291C16.2619 27.1387 16.7423 26.5996 16.5197 25.8145L14.6681 19.3457C14.5627 19.0059 14.3986 18.7598 14.0002 18.584L10.0978 16.8614L12.172 10.6153C12.2658 10.3575 12.5705 10.2637 12.7697 10.4629L15.7345 13.4629C16.2033 13.9317 16.9767 13.9317 17.4455 13.4629L21.1486 9.77149C21.6291 9.27929 21.6291 8.55274 21.1486 8.07227ZM6.25407 18.959L5.66814 22.2871L0.629077 25.0996C-0.0857671 25.4981 -0.120923 26.2481 0.207202 26.7754C0.511889 27.2676 1.1447 27.5723 1.81267 27.1973L7.35564 24.127C7.69548 23.9278 7.81267 23.7051 7.92986 23.3418L8.97282 20.2364L7.06267 19.4043C6.7697 19.2754 6.50017 19.1231 6.25407 18.959ZM22.0978 5.86915C22.4963 5.66993 22.7423 5.28321 22.7423 4.86133V1.18165C22.7423 0.53711 22.2502 0.00976562 21.5939 0.00976562H18.9923C18.3478 0.00976562 17.8322 0.53711 17.8322 1.18165V4.86133C17.8322 5.28321 18.0783 5.66993 18.4884 5.86915L20.2931 6.79493L22.0978 5.86915ZM19.6486 8.9043H20.9494V5.54102H19.6486V8.9043Z" fill="black" fill-opacity="0.85"/>
</svg>
