<svg width="24" height="24" viewBox="0 0 24 24" fill="none" xmlns="http://www.w3.org/2000/svg">
<path d="M11.9726 23.9228C18.5117 23.9228 23.9257 18.4971 23.9257 11.9697C23.9257 5.43066 18.5 0.0166016 11.9609 0.0166016C5.43359 0.0166016 0.0195312 5.43066 0.0195312 11.9697C0.0195312 18.4971 5.44531 23.9228 11.9726 23.9228Z" fill="#FFCC00"/>
<path d="M14.8437 19.4346C14.5273 19.4346 14.2929 19.2822 14.1523 18.9658L12.5937 15.79C12.5 15.6494 12.4648 15.5791 12.3359 15.4268L10.9062 13.6338C10.5078 13.1299 10.1328 12.5557 10.1914 11.7471L10.3203 10.1299C10.332 9.8838 10.0976 9.74317 9.89844 9.91895L9.19531 10.54L9.05469 12.333C9.01953 12.8018 8.75 13.0478 8.33984 13.0244C7.91797 12.9893 7.67187 12.6963 7.71875 12.2393L7.84765 10.5986C7.89453 10.1416 8.02344 9.84864 8.36328 9.5088L9.5 8.40723C10.2383 7.70411 10.9062 7.32911 11.6679 7.32911C12.7343 7.32911 13.3672 8.06739 13.2968 9.18067L13.1562 11.1494C13.1093 11.8643 12.957 12.3447 12.7226 13.1064L12.6523 13.3525L13.5429 14.6064C13.6601 14.7705 13.8125 14.9932 13.9531 15.2978L15.4062 18.2627C15.5 18.4502 15.5586 18.6025 15.5586 18.7666C15.5586 19.1533 15.2539 19.4346 14.8437 19.4346ZM8.14062 19.4463C7.76562 19.4463 7.50781 19.1768 7.50781 18.79C7.50781 18.5322 7.64844 18.3564 7.82422 18.1455L9.92187 15.6611L10.25 14.0322L11.3984 15.4736L11.2812 15.9658C11.2109 16.2119 11.1992 16.2119 10.9531 16.5166L8.69141 19.2002C8.5625 19.3643 8.35156 19.4463 8.14062 19.4463ZM15.2539 11.5127C14.832 11.5127 14.6445 11.4424 14.4101 11.208L13.9179 10.7158L14.0351 8.98145L15.1133 10.1768H17C17.4687 10.1768 17.7617 10.4346 17.7617 10.8447C17.7617 11.2549 17.4804 11.5127 17 11.5127H15.2539ZM12.5937 6.61427C11.7617 6.61427 11.0703 5.91114 11.0703 5.07911C11.0703 4.22364 11.75 3.53223 12.5937 3.53223C13.4492 3.53223 14.1406 4.22364 14.1406 5.07911C14.1406 5.89942 13.4375 6.61427 12.5937 6.61427Z" fill="black" fill-opacity="0.85"/>
</svg>
