<svg width="20" height="26" viewBox="0 0 20 26" fill="none" xmlns="http://www.w3.org/2000/svg">
<path d="M12.2537 5.12061C13.6716 5.12061 14.8084 3.98389 14.8084 2.56592C14.8084 1.14795 13.6716 0.0112305 12.2537 0.0112305C10.8357 0.0112305 9.69899 1.14795 9.69899 2.56592C9.69899 3.98389 10.8357 5.12061 12.2537 5.12061ZM8.24587 15.3159L12.7341 17.8354L9.83962 20.3198C9.21852 20.8471 9.23024 21.5385 9.60524 21.9604C9.99196 22.394 10.6834 22.4995 11.3279 21.9487L15.3709 18.5034C15.9216 18.0346 15.8396 17.0268 15.1716 16.5932L10.7771 13.7104L11.6443 10.6753C11.7615 10.2417 12.2654 10.1831 12.5232 10.5581L13.8123 12.4448C14.1169 12.8784 14.6677 13.0542 15.1716 12.8198L18.8865 11.1674C19.5427 10.8745 19.7888 10.3003 19.5076 9.70264C19.2146 9.1167 18.6521 8.94092 17.9959 9.23389L15.0544 10.5346L13.0271 7.73389C11.9724 6.28076 10.6599 5.68311 8.50368 5.84717L4.3904 6.14014C3.73415 6.18701 3.28883 6.60889 3.19508 7.28857L2.6443 11.4604C2.53883 12.187 2.90212 12.6909 3.54665 12.7612C4.2029 12.8198 4.62477 12.4448 4.71852 11.7182L5.22243 8.30811L6.87477 8.19092C7.23805 8.15576 7.60133 8.41357 7.47243 8.87061L6.51149 12.2221C5.94899 14.2026 7.23805 14.7417 8.24587 15.3159ZM0.406018 25.4409C0.839611 25.8042 1.50758 25.851 2.10524 25.2768L5.90212 21.5151C6.21852 21.1987 6.28883 21.1284 6.48805 20.6362L8.0818 16.5112L7.69508 16.3003C6.80446 15.8198 6.18337 15.3276 5.76149 14.8003L4.36696 19.7339L0.429455 23.6596C-0.191639 24.269 -0.0744508 25.019 0.406018 25.4409Z" fill="black" fill-opacity="0.85"/>
</svg>
