<svg width="26" height="24" viewBox="0 0 26 24" fill="none" xmlns="http://www.w3.org/2000/svg">
<path d="M17.0421 5.12109C18.46 5.12109 19.5968 3.98438 19.5968 2.56641C19.5968 1.14844 18.46 0 17.0421 0C15.6241 0 14.4757 1.14844 14.4757 2.56641C14.4757 3.98438 15.6241 5.12109 17.0421 5.12109ZM7.86629 20.4727C8.41707 20.8125 9.21395 20.6367 9.56551 20.0742L12.4483 15.457L15.5772 15.6328L13.6202 18.7617C13.2452 19.3477 13.4093 20.1328 14.0069 20.4727C14.5929 20.8125 15.3429 20.6484 15.6944 20.0742L18.7296 15.2227C19.2218 14.4141 18.8116 13.3945 17.6983 13.2773L12.5772 12.7031C12.085 12.6445 11.8858 12.1172 12.1436 11.7539L14.2647 8.56641C14.3936 8.35547 14.6514 8.30859 14.8624 8.42578L22.6319 13.1016C23.2061 13.4414 23.9913 13.2656 24.3194 12.6914C24.6475 12.0938 24.4718 11.3438 23.8858 10.9922L8.53426 1.76953C8.33504 1.66406 8.1241 1.61719 7.91317 1.61719H2.99129C2.29989 1.61719 1.7491 2.15625 1.7491 2.82422C1.7491 3.50391 2.29989 4.05469 2.99129 4.05469H7.5616L9.70614 5.34375C9.94051 5.47266 9.9991 5.75391 9.85848 5.98828L7.19832 9.97266C5.75692 12.1055 6.94051 14.9766 9.63582 15.3047L7.46785 18.7617C7.10457 19.3477 7.26864 20.1094 7.86629 20.4727ZM3.4952 23.2266H22.1749C23.4874 23.2266 24.5538 22.957 25.3858 22.2422C25.7374 21.9492 25.7257 21.5742 25.5264 21.3164C25.3272 21.0469 24.9171 20.9414 24.5538 21.2227C23.921 21.7266 23.2764 21.9258 22.1749 21.9258H3.4952C2.39364 21.9258 1.7491 21.7266 1.11629 21.2227C0.776449 20.9648 0.413167 21.0234 0.20223 21.2461C-0.0555823 21.5039 -0.102458 21.9141 0.272542 22.2422C1.11629 22.957 2.1827 23.2266 3.4952 23.2266Z" fill="black" fill-opacity="0.85"/>
</svg>
