<svg width="26" height="24" viewBox="0 0 26 24" fill="none" xmlns="http://www.w3.org/2000/svg">
<path d="M22.5689 6.37744C24.315 6.37744 25.7213 4.9126 25.7213 3.21338C25.7213 1.44385 24.315 0.0141602 22.5689 0.0141602C20.7877 0.0141602 19.3814 1.44385 19.3814 3.21338C19.3814 4.95947 20.7877 6.37744 22.5689 6.37744ZM3.67832 23.147C4.28769 23.7798 5.33066 23.733 6.08066 22.9595L11.1197 17.7564C11.2838 17.5806 11.401 17.5337 11.6705 17.6392L15.608 19.1275C18.1275 20.1001 20.5181 19.2681 21.6197 17.2525L24.151 12.647C25.1353 10.854 24.8306 9.00244 23.1197 8.08838C21.4674 7.18604 19.7447 7.86572 18.7486 9.70557L15.4674 15.6939L12.6666 14.6744C11.2838 14.1704 10.1236 14.3345 9.02207 15.483L3.78378 20.897C3.05722 21.647 3.12753 22.5845 3.67832 23.147Z" fill="#007AFF"/>
<path d="M0.256784 3.79932L4.06537 8.65088C4.22944 8.86182 4.48725 8.90869 4.74506 8.76807C5.64741 8.2876 6.94819 7.95947 7.96772 7.95947C8.99897 7.95947 10.2998 8.2876 11.2021 8.76807C11.4482 8.90869 11.7178 8.86182 11.8818 8.65088L15.6904 3.79932C16.0771 3.30713 16.0185 2.80322 15.5381 2.43994C14.0029 1.25635 11.0732 0.342285 7.96772 0.342285C4.87397 0.342285 1.94428 1.25635 0.397409 2.43994C-0.0713412 2.80322 -0.129935 3.30713 0.256784 3.79932ZM4.206 11.4751C3.77241 10.9126 3.58491 10.3853 3.58491 9.81104C3.58491 8.48682 4.66303 8.15869 4.66303 7.37354C4.66303 6.58838 3.58491 6.27197 3.58491 4.92432C3.58491 4.36182 3.77241 3.84619 4.21772 3.27197C4.69819 2.67432 5.56537 3.30713 5.09662 3.92822C4.78022 4.36182 4.69819 4.60791 4.69819 4.92432C4.69819 5.87354 5.76459 6.13135 5.76459 7.37354C5.76459 8.62744 4.69819 8.87354 4.69819 9.81104C4.69819 10.1509 4.78022 10.3853 5.09662 10.8189C5.56537 11.4283 4.68647 12.0611 4.206 11.4751ZM7.51069 11.4751C7.07709 10.9126 6.88959 10.3853 6.88959 9.81104C6.88959 8.48682 7.956 8.15869 7.956 7.37354C7.956 6.58838 6.88959 6.27197 6.88959 4.92432C6.88959 4.36182 7.06537 3.84619 7.51069 3.27197C7.99116 2.67432 8.87006 3.30713 8.40131 3.92822C8.08491 4.36182 8.00287 4.60791 8.00287 4.92432C8.00287 5.87354 9.05756 6.13135 9.05756 7.37354C9.05756 8.62744 8.00287 8.87354 8.00287 9.81104C8.00287 10.1509 8.08491 10.3853 8.40131 10.8189C8.85834 11.4283 7.99116 12.0611 7.51069 11.4751ZM10.8271 11.4751C10.3818 10.9126 10.206 10.3853 10.206 9.81104C10.206 8.48682 11.2725 8.15869 11.2725 7.37354C11.2725 6.58838 10.206 6.27197 10.206 4.92432C10.206 4.36182 10.3818 3.84619 10.8271 3.27197C11.3076 2.67432 12.1865 3.30713 11.7178 3.92822C11.3896 4.36182 11.3193 4.60791 11.3193 4.92432C11.3193 5.87354 12.374 6.13135 12.374 7.37354C12.374 8.62744 11.3193 8.87354 11.3193 9.81104C11.3193 10.1509 11.3896 10.3853 11.706 10.8189C12.1748 11.4283 11.2959 12.0611 10.8271 11.4751Z" fill="black" fill-opacity="0.85"/>
</svg>
