<svg width="23" height="30" viewBox="0 0 23 30" fill="none" xmlns="http://www.w3.org/2000/svg">
<path d="M15.7966 5.12109C17.2145 5.12109 18.363 3.97266 18.363 2.55469C18.363 1.13672 17.2145 0 15.7966 0C14.3786 0 13.2419 1.13672 13.2419 2.55469C13.2419 3.97266 14.3786 5.12109 15.7966 5.12109ZM7.67548 14.3906L12.0466 18.7852V25.6641H14.4489V18.4336C14.4489 18.082 14.3669 17.7539 14.1325 17.4492L11.1911 13.7109L13.6989 9.86719C13.863 9.62109 14.2145 9.62109 14.3434 9.90234L15.1755 11.5781C15.3864 11.9766 15.7966 12.2461 16.2536 12.2461H21.0817C21.738 12.2461 22.277 11.707 22.277 11.0391C22.277 10.3828 21.738 9.84375 21.0817 9.84375H16.9919L15.7263 7.27734C15.2224 6.26953 14.1911 5.625 13.0427 5.625H6.62079C6.22235 5.625 5.83563 5.82422 5.61298 6.16406L3.21063 9.78516C2.84735 10.3242 2.99969 11.0742 3.55048 11.4375C4.08954 11.8125 4.83954 11.6602 5.21454 11.0977L7.26532 8.02734H9.24579C9.39813 8.02734 9.49188 8.16797 9.39813 8.32031L7.37079 11.3672C6.73798 12.3047 6.86688 13.582 7.67548 14.3906ZM0.421569 16.1602L5.14423 20.2969C5.89423 20.9648 6.72626 20.6133 7.08954 20.0391L8.90594 17.2383L6.91376 15.2461C6.89032 15.2109 6.86688 15.1875 6.83173 15.1523L5.64813 17.5312L1.99188 14.3438C1.49969 13.9219 0.737976 13.957 0.304382 14.4609C-0.140931 14.9648 -0.0940553 15.7266 0.421569 16.1602ZM6.38641 26.5664H14.5661C15.8669 26.5664 16.9333 26.2969 17.7653 25.582C18.1052 25.3008 18.0934 24.9375 17.9294 24.6914C17.7419 24.4102 17.32 24.2695 16.9333 24.5625C16.3122 25.0547 15.6559 25.2656 14.5661 25.2656H6.38641C5.28485 25.2656 4.64032 25.0547 4.00751 24.5625C3.65594 24.293 3.28094 24.3867 3.08173 24.6211C2.84735 24.8672 2.81219 25.2656 3.17548 25.582C4.00751 26.2969 5.07391 26.5664 6.38641 26.5664ZM6.38641 29.2617C6.93719 29.2617 7.40594 28.8047 7.40594 28.2539C7.40594 27.7031 6.93719 27.2344 6.38641 27.2344C5.83563 27.2344 5.36688 27.7031 5.36688 28.2539C5.36688 28.8047 5.83563 29.2617 6.38641 29.2617ZM14.5661 29.2617C15.1169 29.2617 15.5739 28.8047 15.5739 28.2539C15.5739 27.7031 15.1169 27.2344 14.5661 27.2344C14.0153 27.2344 13.5466 27.7031 13.5466 28.2539C13.5466 28.8047 14.0153 29.2617 14.5661 29.2617Z" fill="black" fill-opacity="0.85"/>
</svg>
