<svg width="26" height="34" viewBox="0 0 26 34" fill="none" xmlns="http://www.w3.org/2000/svg">
<path d="M22.5689 11.2873C24.315 11.2873 25.7213 9.82251 25.7213 8.12329C25.7213 6.35376 24.315 4.92407 22.5689 4.92407C20.7877 4.92407 19.3814 6.35376 19.3814 8.12329C19.3814 9.86938 20.7877 11.2873 22.5689 11.2873ZM3.67831 28.0569C4.28769 28.6897 5.33066 28.6428 6.08066 27.8694L11.1197 22.6662C11.2838 22.4905 11.401 22.4436 11.6705 22.5491L15.5963 24.0373C18.1275 25.01 20.5182 24.178 21.6197 22.1623L24.151 17.5569C25.1354 15.7639 24.8307 13.9123 23.1197 12.9983C21.4674 12.0959 19.7447 12.7756 18.7486 14.6155L15.4674 20.6037L12.6666 19.5842C11.2838 19.0803 10.1236 19.2444 9.02206 20.3928L3.78378 25.8069C3.05722 26.5569 3.12753 27.4944 3.67831 28.0569Z" fill="#007AFF"/>
<path d="M0.256367 7.47865C0.596211 7.81849 1.14699 7.81849 1.48684 7.47865L4.72121 4.23255L6.02199 5.53334C6.59621 6.10755 7.45168 5.77943 7.48684 4.9474L7.74465 0.892705C7.76809 0.341924 7.42824 -0.0096381 6.86574 0.0137994L2.79934 0.259893C2.01418 0.306768 1.62746 1.11537 2.22512 1.72474L3.51418 3.02552L0.268086 6.2599C-0.0717581 6.59974 -0.071758 7.15052 0.256367 7.47865ZM4.42824 9.59974C4.42824 10.0919 4.80324 10.4786 5.29543 10.4786H9.88918V12.3068C9.88918 13.1271 10.7212 13.4904 11.3423 12.9396L14.3774 10.2443C14.7876 9.85754 14.7876 9.37709 14.3774 9.00209L11.3423 6.30677C10.7446 5.77943 9.88918 6.0724 9.88918 6.93959V8.75599H5.29543C4.80324 8.75599 4.42824 9.13099 4.42824 9.59974Z" fill="black" fill-opacity="0.85"/>
</svg>
