<svg width="25" height="34" viewBox="0 0 25 34" fill="none" xmlns="http://www.w3.org/2000/svg">
<path d="M21.9961 11.2148C23.4023 11.2148 24.5391 10.0781 24.5391 8.66016C24.5391 7.25391 23.4023 6.11719 21.9961 6.11719C20.5781 6.11719 19.4297 7.25391 19.4297 8.66016C19.4297 10.0781 20.5781 11.2148 21.9961 11.2148ZM1.20703 14.4258H7.04297L10.6289 17.6836C10.7812 17.8125 10.6992 18.0352 10.5 18.0352H6.41016C6.05859 18.0352 5.70703 18.1172 5.46094 18.3633L1.11328 22.7227C0.644531 23.2031 0.632812 23.9414 1.11328 24.4219C1.58203 24.8906 2.34375 24.8906 2.8125 24.4219L6.71484 20.5195L11.4844 21.3047C13.0078 21.5508 14.5664 21.082 15.668 19.957L18.3633 17.2734C18.5859 17.0508 18.9023 17.1797 18.9023 17.4844V19.3359L15.6562 22.582C15.1875 23.0508 15.1992 23.8125 15.6562 24.2812C15.8906 24.5156 16.1953 24.6328 16.5234 24.6328C16.8281 24.6328 17.1328 24.5156 17.3672 24.2812L20.9648 20.6836C21.1875 20.4609 21.3164 20.1328 21.3164 19.8281V14.4727C21.3164 13.6992 21.0703 13.0664 20.6133 12.6211L13.4883 5.51953V8.91797L16.5586 11.9883C16.7812 12.2109 16.7695 12.457 16.5586 12.6562L13.3711 15.8555L8.19141 12.2227C7.96875 12.0703 7.79297 12.0117 7.46484 12.0117H1.20703C0.539062 12.0117 0 12.5508 0 13.2188C0 13.875 0.539062 14.4258 1.20703 14.4258ZM14.1094 26.4727C15.8438 26.4727 17.168 25.1133 17.1562 23.3789H15.8555C15.8672 24.4102 15.1172 25.1719 14.1094 25.1719C13.1133 25.1719 12.3516 24.5625 12.3516 23.4258V0.644531C12.3516 0.292969 12.0586 0 11.707 0C11.3555 0 11.0508 0.292969 11.0508 0.644531V23.4258C11.0508 25.3125 12.3867 26.4727 14.1094 26.4727ZM16.5 33.0469C16.875 33.0469 17.1562 32.7539 17.1562 32.3906V17.9766H15.8555V32.3906C15.8555 32.7539 16.1367 33.0469 16.5 33.0469Z" fill="black" fill-opacity="0.85"/>
</svg>
