<svg width="28" height="21" viewBox="0 0 28 21" fill="none" xmlns="http://www.w3.org/2000/svg">
<path d="M13.8633 14.5547C15.9375 14.5547 16.5234 13.2773 18.3633 12.8086L10.2422 4.35938C9.71484 3.82031 8.94141 3.73828 8.30859 4.19531L3.71484 7.46484C2.91797 8.01562 3 8.85938 3.45703 9.35156C3.83203 9.77344 4.52344 9.94922 5.17969 9.48047L8.90625 6.84375L11.0156 9.01172C11.25 9.25781 11.3203 9.63281 10.957 9.87891L6.62109 12.7266C7.125 12.6797 7.66406 12.6562 8.28516 12.6797C10.9453 12.7969 11.4375 14.5547 13.8633 14.5547ZM0.65625 17.6484H1.83984C4.96875 17.6484 5.68359 15.7266 7.85156 15.7266C10.0195 15.7266 10.7344 17.6484 13.8633 17.6484C17.0039 17.6484 17.707 15.7266 19.8867 15.7266C22.0547 15.7266 22.7578 17.6484 25.8984 17.6484H27.082C27.4453 17.6484 27.7383 17.3672 27.7383 17.0039C27.7383 16.6406 27.4453 16.3477 27.082 16.3477H25.8984C23.6484 16.3477 22.8867 14.4258 19.8867 14.4258C16.875 14.4258 16.1133 16.3477 13.8633 16.3477C11.6133 16.3477 10.8633 14.4258 7.85156 14.4258C4.85156 14.4258 4.08984 16.3477 1.83984 16.3477H0.65625C0.28125 16.3477 0 16.6406 0 17.0039C0 17.3672 0.28125 17.6484 0.65625 17.6484ZM0.65625 20.8828H1.83984C4.96875 20.8828 5.68359 18.9492 7.85156 18.9492C10.0195 18.9492 10.7344 20.8828 13.8633 20.8828C17.0039 20.8828 17.707 18.9492 19.8867 18.9492C22.0547 18.9492 22.7578 20.8828 25.8984 20.8828H27.082C27.4453 20.8828 27.7383 20.5898 27.7383 20.2266C27.7383 19.8633 27.4453 19.5703 27.082 19.5703H25.8984C23.6484 19.5703 22.8867 17.6484 19.8867 17.6484C16.875 17.6484 16.1133 19.5703 13.8633 19.5703C11.6133 19.5703 10.8633 17.6484 7.85156 17.6484C4.85156 17.6484 4.08984 19.5703 1.83984 19.5703H0.65625C0.28125 19.5703 0 19.8633 0 20.2266C0 20.5898 0.28125 20.8828 0.65625 20.8828ZM10.0664 0.65625C10.0664 1.01953 10.3594 1.3125 10.7227 1.3125C11.7773 1.3125 12.4219 1.5 13.0898 2.23828C13.3477 2.51953 13.6055 2.63672 13.8633 2.63672C14.1328 2.63672 14.3906 2.51953 14.6484 2.23828C15.3164 1.5 15.9609 1.3125 17.0156 1.3125C17.3789 1.3125 17.6719 1.01953 17.6719 0.65625C17.6719 0.292969 17.3789 0 17.0039 0C15.7031 0 14.8359 0.316406 13.8633 1.19531C12.9023 0.316406 12.0352 0 10.7227 0C10.3594 0 10.0664 0.292969 10.0664 0.65625ZM18.5391 9.80859C19.957 9.80859 21.1055 8.66016 21.1055 7.24219C21.1055 5.83594 19.957 4.6875 18.5391 4.6875C17.1211 4.6875 15.9844 5.83594 15.9844 7.24219C15.9844 8.66016 17.1211 9.80859 18.5391 9.80859Z" fill="black" fill-opacity="0.85"/>
</svg>
