<svg width="19" height="28" viewBox="0 0 19 28" fill="none" xmlns="http://www.w3.org/2000/svg">
<path d="M15.8062 5.12109C17.2125 5.12109 18.3609 3.97266 18.3609 2.54297C18.3609 1.13672 17.2125 0 15.8062 0C14.3766 0 13.2281 1.13672 13.2281 2.54297C13.2281 3.97266 14.3766 5.12109 15.8062 5.12109ZM9.93515 23.2148C10.6031 23.2148 11.1656 22.6641 11.1656 22.0078V15.8672C11.1656 15.5742 11.0602 15.3164 10.8844 15.1055L8.10703 11.6953C7.93124 11.4727 7.98984 11.2383 8.20078 11.1211L11.5875 9.36328C11.8336 9.23438 12.0797 9.32812 12.1266 9.62109L12.4195 11.6953C12.4781 12.1523 12.7359 12.4688 13.2281 12.7031L16.5562 14.3789C17.4703 14.8359 18.1852 14.4609 18.4078 13.8867C18.6305 13.3477 18.4547 12.6445 17.7164 12.2695L14.7281 10.7461L14.2477 7.20703C13.9898 5.32031 11.9039 4.16016 9.91171 5.20312L5.51718 7.5C3.48984 8.55469 3.22031 10.8633 4.72031 12.375L8.75156 16.3828V22.0078C8.75156 22.6641 9.29062 23.2148 9.93515 23.2148ZM0.548432 15.6328C1.00546 16.4531 1.86093 16.6992 2.70468 16.5117L5.23593 15.9492C5.58749 15.8789 5.81015 15.6211 5.81015 15.2461C5.81015 14.8828 5.55234 14.625 5.21249 14.5664L0.888276 13.8164C0.161714 13.6875 -0.213286 14.2734 0.126557 14.8711L0.548432 15.6328ZM2.59921 15.75L5.76328 25.1484L7.05234 24.7031L3.92343 15.3516L2.59921 15.75ZM9.89999 27.4453C12.5133 27.4453 14.5406 25.3828 14.5406 22.8164C14.5406 21.0469 13.5562 19.5234 12.1031 18.7383V20.4961C12.7242 21.0703 13.0875 21.9023 13.0875 22.8164C13.0875 24.5742 11.6695 25.9922 9.89999 25.9922C8.18906 25.9922 6.73593 24.5391 6.73593 22.8164C6.73593 21.8906 7.14609 21.0352 7.79062 20.4492V18.7148C6.31406 19.4648 5.28281 21.0234 5.28281 22.8164C5.28281 25.3828 7.36874 27.4453 9.89999 27.4453ZM12.7359 24.832L14.0484 25.2773L17.0133 16.3008C17.1305 15.9492 16.943 15.5508 16.6031 15.4453C16.2164 15.3281 15.8766 15.5273 15.7477 15.8789L12.7359 24.832ZM3.4664 26.4492C2.98593 26.7656 3.12656 27.4805 3.68906 27.4805H16.1227C16.6734 27.4805 16.8141 26.7422 16.357 26.4492L13.6031 24.6445L11.1187 26.3672H8.70468L6.19687 24.6445L3.4664 26.4492Z" fill="black" fill-opacity="0.85"/>
</svg>
