<svg width="22" height="27" viewBox="0 0 22 27" fill="none" xmlns="http://www.w3.org/2000/svg">
<path d="M10.8223 15.7598L13.6465 20.1895L15.7559 26.002C15.9902 26.6465 16.6113 26.8575 17.1387 26.6582C17.7012 26.4707 17.9941 25.8262 17.7832 25.2754L15.6504 19.4043L13.5293 13.5801V8.29493C13.5293 8.04883 13.6582 7.82618 13.8809 7.70899L21.0645 3.87696C21.5918 3.59571 21.791 2.95118 21.5098 2.41211C21.2285 1.88477 20.584 1.69727 20.0566 1.97852L13.1191 5.64649C12.3457 6.05665 11.584 6.24415 10.8223 6.24415C10.0606 6.24415 9.29879 6.05665 8.52535 5.64649L1.58785 1.97852C1.06051 1.69727 0.415977 1.88477 0.134727 2.41211C-0.158242 2.95118 0.052696 3.59571 0.58004 3.87696L7.76363 7.70899C7.98629 7.82618 8.11519 8.04883 8.11519 8.29493V13.5801L5.9941 19.4043L3.86129 25.2754C3.65035 25.8262 3.94332 26.4707 4.4941 26.6582C5.03316 26.8575 5.65426 26.6465 5.88863 26.002L7.99801 20.1895L10.8223 15.7598ZM10.8223 5.02539C12.1934 5.02539 13.3066 3.90039 13.3066 2.50586C13.3066 1.13477 12.1934 0.00976562 10.8223 0.00976562C9.42769 0.00976562 8.30269 1.13477 8.30269 2.50586C8.30269 3.90039 9.42769 5.02539 10.8223 5.02539Z" fill="black" fill-opacity="0.85"/>
</svg>
