<svg width="23" height="28" viewBox="0 0 23 28" fill="none" xmlns="http://www.w3.org/2000/svg">
<path d="M11.3791 5.85938C12.797 5.85938 13.9338 4.72266 13.9338 3.30469C13.9338 1.88672 12.797 0.738281 11.3791 0.738281C9.96111 0.738281 8.81267 1.88672 8.81267 3.30469C8.81267 4.72266 9.96111 5.85938 11.3791 5.85938ZM21.1408 8.0625C20.6603 7.58203 19.922 7.59375 19.4416 8.0625L16.5822 10.8984L13.7228 8.01562C13.1603 7.44141 12.2697 7.08984 11.3791 7.08984H3.67986C3.15251 7.08984 2.71892 7.40625 2.53142 7.92188L0.691577 13.4531C0.410327 14.3086 0.902515 14.8945 1.50017 15.0352C2.05095 15.1875 2.7072 14.9531 2.96501 14.2031L4.54705 9.49219H7.09001C7.32439 9.49219 7.48845 9.70312 7.40642 9.9375L5.84783 14.625C5.3322 16.1484 5.80095 17.6133 7.51189 18.3633L12.5158 20.5547L14.2033 26.4727C14.4142 27.2109 15.0939 27.4336 15.6681 27.2812C16.2541 27.1289 16.7345 26.5898 16.5119 25.8047L14.6603 19.3359C14.5549 18.9961 14.3908 18.75 13.9924 18.5742L10.09 16.8516L12.1642 10.6055C12.258 10.3477 12.5627 10.2539 12.7619 10.4531L15.7267 13.4531C16.1955 13.9219 16.9689 13.9219 17.4377 13.4531L21.1408 9.76172C21.6213 9.26953 21.6213 8.54297 21.1408 8.0625ZM6.24626 18.9492L5.66033 22.2773L0.621265 25.0898C-0.0935796 25.4883 -0.128735 26.2383 0.19939 26.7656C0.504077 27.2578 1.13689 27.5625 1.80486 27.1875L7.34783 24.1172C7.68767 23.918 7.80486 23.6953 7.92205 23.332L8.96501 20.2266L7.05486 19.3945C6.76189 19.2656 6.49236 19.1133 6.24626 18.9492ZM22.09 5.85938C22.4885 5.66016 22.7345 5.27344 22.7345 4.85156V1.17188C22.7345 0.527344 22.2424 0 21.5861 0H18.9845C18.34 0 17.8244 0.527344 17.8244 1.17188V4.85156C17.8244 5.27344 18.0705 5.66016 18.4806 5.85938L20.2853 6.78516L22.09 5.85938ZM19.6408 8.89453H20.9416V5.53125H19.6408V8.89453Z" fill="black" fill-opacity="0.85"/>
</svg>
