<svg width="35" height="34" viewBox="0 0 35 34" fill="none" xmlns="http://www.w3.org/2000/svg">
<path d="M31.3638 11.147C33.1217 11.147 34.5279 9.68213 34.5279 7.98291C34.5279 6.21338 33.1217 4.78369 31.3638 4.78369C29.5943 4.78369 28.1763 6.21338 28.1763 7.98291C28.1763 9.729 29.5943 11.147 31.3638 11.147ZM12.4849 27.9165C13.0943 28.5494 14.1373 28.5025 14.8756 27.729L19.9263 22.5259C20.0904 22.3501 20.2076 22.3033 20.4654 22.4087L24.4029 23.897C26.9342 24.8697 29.3131 24.0376 30.4263 22.022L32.9576 17.4165C33.942 15.6236 33.6256 13.772 31.9263 12.858C30.2623 11.9556 28.5513 12.6353 27.5553 14.4751L24.2623 20.4634L21.4732 19.4439C20.0787 18.94 18.9303 19.104 17.8287 20.2525L12.5904 25.6665C11.8638 26.4165 11.9342 27.354 12.4849 27.9165Z" fill="#007AFF"/>
<path d="M0.214531 8.55713L3.40203 12.6236C3.54266 12.8111 3.76531 12.8462 3.96453 12.729C4.72625 12.3306 5.81609 12.0611 6.67156 12.0611C7.53875 12.0611 8.62859 12.3306 9.36688 12.729C9.58953 12.8462 9.81219 12.8111 9.94109 12.6236L13.1403 8.55713C13.4567 8.14697 13.3981 7.73682 13.0231 7.43213C11.7223 6.43604 9.26141 5.67432 6.67156 5.67432C4.09344 5.67432 1.6325 6.43604 0.343438 7.43213C-0.0550003 7.73682 -0.0901563 8.14697 0.214531 8.55713ZM3.51922 15.0025C3.15594 14.522 3.00359 14.0767 3.00359 13.5962C3.00359 12.4947 3.89422 12.2134 3.89422 11.5689C3.89422 10.9126 3.00359 10.6431 3.00359 9.50635C3.00359 9.0376 3.15594 8.59228 3.51922 8.12354C3.92938 7.63135 4.66766 8.15869 4.26922 8.67432C4.01141 9.0376 3.94109 9.23682 3.94109 9.50635C3.94109 10.3033 4.82 10.5259 4.82 11.5689C4.82 12.6001 3.94109 12.8345 3.94109 13.5962C3.94109 13.9009 4.01141 14.0767 4.26922 14.4517C4.65594 14.9556 3.92938 15.4947 3.51922 15.0025ZM6.27313 15.0025C5.93328 14.522 5.76922 14.0767 5.76922 13.5962C5.76922 12.4947 6.65984 12.2134 6.65984 11.5689C6.65984 10.9126 5.76922 10.6431 5.76922 9.50635C5.76922 9.0376 5.92156 8.59228 6.27313 8.12354C6.68328 7.63135 7.43328 8.15869 7.04656 8.67432C6.77703 9.0376 6.70672 9.23682 6.70672 9.50635C6.70672 10.3033 7.59734 10.5259 7.59734 11.5689C7.59734 12.6001 6.70672 12.8345 6.70672 13.5962C6.70672 13.9009 6.77703 14.0767 7.03484 14.4517C7.42156 14.9556 6.68328 15.4947 6.27313 15.0025ZM9.06219 15.0025C8.69891 14.522 8.53484 14.0767 8.53484 13.5962C8.53484 12.4947 9.43719 12.2134 9.43719 11.5689C9.43719 10.9126 8.53484 10.6431 8.53484 9.50635C8.53484 9.0376 8.68719 8.59228 9.07391 8.12354C9.47234 7.63135 10.1989 8.15869 9.81219 8.67432C9.55438 9.0376 9.47234 9.23682 9.47234 9.50635C9.47234 10.3033 10.3629 10.5259 10.3629 11.5689C10.3629 12.6001 9.47234 12.8345 9.47234 13.5962C9.47234 13.9009 9.55438 14.0767 9.80047 14.4517C10.1989 14.9556 9.46063 15.4947 9.06219 15.0025ZM15.9645 8.19385C16.3747 8.19385 16.7028 7.86572 16.7028 7.44385V4.25635H18.3434C19.07 4.25635 19.3747 3.5415 18.8825 2.99072L16.527 0.29541C16.1872 -0.0795898 15.7536 -0.0795898 15.4137 0.29541L13.0231 2.99072C12.5544 3.49463 12.8239 4.25635 13.5856 4.25635H15.2145L15.2262 7.44385C15.2262 7.86572 15.5426 8.21728 15.9645 8.19385ZM15.9528 10.6197C15.5309 10.6197 15.2145 10.9478 15.2145 11.3814V14.5572H13.5856C12.8004 14.5572 12.5426 15.3189 13.0114 15.8345L15.4254 18.5181C15.7653 18.8697 16.1872 18.9048 16.5153 18.5298L18.8825 15.8111C19.3512 15.272 19.0583 14.5572 18.3434 14.5572H16.7145L16.7028 11.3814C16.7028 10.9595 16.3512 10.6314 15.9528 10.6197Z" fill="black" fill-opacity="0.85"/>
</svg>
