<svg width="20" height="28" viewBox="0 0 20 28" fill="none" xmlns="http://www.w3.org/2000/svg">
<path d="M9.12604 5.12109C10.5206 5.12109 11.6807 3.97266 11.6807 2.56641C11.6807 1.16016 10.5206 0 9.12604 0C7.71979 0 6.55963 1.16016 6.55963 2.56641C6.55963 3.97266 7.71979 5.12109 9.12604 5.12109ZM1.21588 8.56641H5.02447C5.20025 8.56641 5.3526 8.70703 5.32916 8.88281L4.96588 13.8281C4.83697 15.5977 5.86822 16.6992 7.36822 17.0039L12.2667 18.0352L13.3213 23.2852C13.462 24 14.1885 24.3398 14.7276 24.2344C15.3838 24.1055 15.8057 23.4609 15.6768 22.8047L14.4815 16.7695C14.3878 16.3008 13.9893 15.9727 13.544 15.8203L9.75885 14.6367L10.087 10.0664C10.1221 9.71484 10.4503 9.58594 10.7198 9.80859L12.5128 11.2969C12.7354 11.4727 12.9932 11.5781 13.2862 11.5781H18.7237C19.3917 11.5781 19.919 11.0391 19.919 10.3711C19.919 9.70312 19.3917 9.17578 18.7237 9.17578H13.7198L11.1065 6.99609C10.4503 6.45703 9.8526 6.15234 8.9151 6.15234H2.84479L4.19244 1.67578C4.37994 1.03125 4.01666 0.351562 3.38385 0.164062C2.73932 -0.0234375 2.04791 0.339844 1.86041 0.984375L0.0674426 7.00781C-0.166933 7.80469 0.208067 8.56641 1.21588 8.56641ZM6.31354 27.7734C6.88775 27.9492 7.6026 27.6914 7.82525 26.9766L9.61822 20.9883C9.6651 20.8242 9.67682 20.6484 9.67682 20.4609V18.6445L7.14557 18.1055C7.08697 18.0938 7.0401 18.0938 6.99322 18.082L7.25104 20.4609L5.50494 26.2852C5.31744 26.9062 5.68072 27.5859 6.31354 27.7734Z" fill="black" fill-opacity="0.85"/>
</svg>
