<svg width="19" height="25" viewBox="0 0 19 25" fill="none" xmlns="http://www.w3.org/2000/svg">
<path d="M15.5254 5.10743C16.9434 5.10743 18.0801 3.97071 18.0801 2.56446C18.0801 1.14649 16.9434 0.00976562 15.5254 0.00976562C14.1074 0.00976562 12.9707 1.14649 12.9707 2.56446C12.9707 3.97071 14.1074 5.10743 15.5254 5.10743ZM8.54101 24.3028C13.334 24.3028 17.0606 20.5645 17.0606 15.7715C17.0606 13.5684 16.1582 12.2442 14.1895 11.5762L12.3379 10.9317C12.0332 10.8379 11.9512 10.6036 12.1504 10.3106L13.3574 8.55274C14.2949 7.20508 13.9551 6.0918 12.5137 5.08399L8.06054 1.9668C7.59179 1.65039 7.00586 1.63868 6.5371 1.94336L2.4121 4.72071C0.888672 5.75196 2.29492 7.61524 3.66601 6.67774L7.16992 4.31055L9.58398 5.99805C9.99414 6.29102 10.041 6.61915 9.77148 6.99415L7.83789 9.80665C6.79492 11.3184 7.63867 12.959 9.26757 13.3809L14.4121 14.67C14.9629 14.7989 15.2793 15.2559 15.2793 15.8887C15.2793 19.5684 12.3262 22.5098 8.55273 22.5098C4.74414 22.5098 1.80273 19.5684 1.80273 15.7715C1.80273 14.3887 2.21289 13.1582 2.89257 12.1387C3.65429 11.002 2.14257 10.0528 1.3457 11.2481C0.52539 12.502 0.0214844 14.0371 0.0214844 15.7715C0.0214844 20.5645 3.74804 24.3028 8.54101 24.3028ZM17.0957 24.3028C17.8223 24.3028 18.3848 23.7286 18.3848 23.002C18.3848 22.2871 17.8223 21.7129 17.0957 21.7129C16.3692 21.7129 15.7949 22.2871 15.7949 23.002C15.7949 23.7286 16.3692 24.3028 17.0957 24.3028Z" fill="black" fill-opacity="0.85"/>
</svg>
