<svg width="23" height="31" viewBox="0 0 23 31" fill="none" xmlns="http://www.w3.org/2000/svg">
<path d="M20.4258 11.334C21.832 11.334 22.9688 10.1855 22.9688 8.75586C22.9688 7.34961 21.832 6.21289 20.4258 6.21289C18.9961 6.21289 17.8477 7.34961 17.8477 8.75586C17.8477 10.1855 18.9961 11.334 20.4258 11.334ZM9.9375 20.5215L14.2852 23.6972L11.7539 28.748C11.4609 29.3222 11.6953 30.0605 12.293 30.3652C12.832 30.623 13.5586 30.4707 13.875 29.8261L16.8398 23.8965C17.0977 23.3691 17.0039 22.8418 16.5938 22.4433L14.3555 20.3457H18.1641C18.8555 20.3457 19.3594 19.8066 19.3594 19.1504V14.3808C19.3594 12.4238 17.7773 10.8183 15.7969 10.8183H11.4023L12.1641 8.14648C12.3398 7.52539 12 6.86914 11.3555 6.68164C10.7227 6.49414 10.0664 6.86914 9.89062 7.49023L8.70703 11.6621C8.48438 12.459 8.95312 13.1855 9.79688 13.1855H14.0742C14.1211 13.1855 14.1562 13.2558 14.1094 13.291L10.3828 15.1777C8.28516 16.2324 8.02734 19.1152 9.9375 20.5215ZM14.4492 18.0136L16.8164 16.8886C16.9219 16.8418 17.0508 16.9121 17.0508 17.0293V18.0136H14.4492ZM8.20312 20.3105L7.18359 23.3105H1.21875C0.539062 23.3105 0 23.8496 0 24.5058C0 25.1855 0.539062 25.7246 1.21875 25.7246H8.03906C8.48438 25.7246 8.92969 25.4668 9.12891 25.0332L10.4883 22.3144L9.26953 21.4355C8.83594 21.1074 8.47266 20.7207 8.20312 20.3105ZM10.5469 5.27539H11.5078C12.2109 4.41992 13.0195 2.97851 13.0195 2.01757C13.0195 0.833984 12.1992 0.0136719 11.0391 0.0136719C9.85547 0.0136719 9.02344 0.833984 9.02344 2.01757C9.02344 3.08398 9.83203 4.51367 10.5469 5.27539ZM10.3594 17.58H11.6836V4.84179H10.3594V17.58Z" fill="black" fill-opacity="0.85"/>
</svg>
