<svg width="33" height="20" viewBox="0 0 33 20" fill="none" xmlns="http://www.w3.org/2000/svg">
<path d="M2.56641 14.5898C3.97266 14.5898 5.12109 13.4531 5.12109 12.0352C5.12109 10.6172 3.97266 9.46875 2.56641 9.46875C1.14844 9.46875 0 10.6172 0 12.0352C0 13.4531 1.14844 14.5898 2.56641 14.5898ZM5.35547 15.4102C4.89844 16.582 5.34375 17.7891 6.31641 18.4688C7.89844 19.5703 9.375 19.9805 11.7305 19.9805H15.4688C18.3516 19.9805 19.125 17.7188 18.1406 15.8203L15.1289 10.0078V1.21875C15.1289 0.527344 14.5898 0 13.8867 0C13.207 0 12.6914 0.527344 12.6914 1.21875V10.3008C12.6914 10.4648 12.7031 10.5938 12.7383 10.7109L14.4375 15.5742H12.2344C10.8164 15.5742 9.99609 15.1758 8.88281 14.5078C8.58984 14.332 8.50781 14.0625 8.63672 13.7227L11.3672 6.73828C11.6133 6.11719 11.2969 5.39062 10.6641 5.15625C10.0078 4.91016 9.32812 5.21484 9.08203 5.85938L5.35547 15.4102ZM19.7461 18.082L24.082 16.6641L31.0078 15.4102C31.6758 15.293 32.1211 14.6836 32.0039 13.9922C31.875 13.3242 31.2422 12.8906 30.5742 13.0078L23.332 14.3203L19.1484 15.082L19.2422 15.2461C19.8047 16.1836 19.8984 17.2148 19.7461 18.082Z" fill="black" fill-opacity="0.85"/>
</svg>
