<svg width="24" height="24" viewBox="0 0 24 24" fill="none" xmlns="http://www.w3.org/2000/svg">
<path d="M11.9648 23.913C18.5039 23.913 23.9179 18.4873 23.9179 11.9599C23.9179 5.4209 18.4922 0.00683594 11.9531 0.00683594C5.42578 0.00683594 0.0117188 5.4209 0.0117188 11.9599C0.0117188 18.4873 5.4375 23.913 11.9648 23.913ZM11.9648 21.9209C6.4336 21.9209 2.01563 17.4912 2.01563 11.9599C2.01563 6.42872 6.42188 1.99903 11.9531 1.99903C17.4844 1.99903 21.9258 6.42872 21.9258 11.9599C21.9258 17.4912 17.4961 21.9209 11.9648 21.9209Z" fill="#007AFF"/>
<path d="M5.23762 11.5615L5.70637 14.3037C5.87044 15.3349 7.27668 15.1123 7.11262 14.081L6.76106 11.831L8.40168 11.1865C8.54231 11.1513 8.61262 11.1748 8.67122 11.2802L10.0892 14.1279C10.5228 14.9716 10.8861 15.2529 11.2142 15.4873L15.7142 18.7685C16.558 19.3896 17.5072 18.1943 16.6049 17.5029L13.183 14.8896C13.0541 14.7841 13.0541 14.6318 13.2064 14.5498L15.5033 13.1904L18.6088 14.6787C19.5111 15.1006 20.2963 13.706 19.1947 13.1904L15.8549 11.667C15.4447 11.4795 15.0697 11.4912 14.6947 11.7256L13.1127 12.6748C12.972 12.7568 12.8314 12.7216 12.7611 12.6045L11.4134 9.81542C11.3549 9.70995 11.39 9.63964 11.4955 9.58105L12.6556 9.05371C12.972 8.90136 13.3236 8.79589 13.4173 8.43261L14.2025 5.74902C14.4955 4.74121 13.1127 4.34277 12.8314 5.35058L12.1283 7.7998L11.1205 8.20995C10.0541 8.63183 8.55403 9.28808 6.62044 10.2138L5.80012 10.6006C5.34309 10.8115 5.16731 11.1279 5.23762 11.5615ZM8.27278 8.59667C9.18684 8.59667 9.93684 7.85839 9.93684 6.97949C9.93684 6.05371 9.19856 5.31542 8.27278 5.31542C7.38215 5.31542 6.66731 6.05371 6.66731 6.97949C6.66731 7.87011 7.39387 8.59667 8.27278 8.59667Z" fill="black" fill-opacity="0.85"/>
</svg>
