<svg width="23" height="31" viewBox="0 0 23 31" fill="none" xmlns="http://www.w3.org/2000/svg">
<path d="M8.85938 5.12109C10.2539 5.12109 11.4141 3.96094 11.4141 2.56641C11.4141 1.16016 10.2539 0 8.85938 0C7.45312 0 6.29297 1.16016 6.29297 2.56641C6.29297 3.96094 7.45312 5.12109 8.85938 5.12109ZM10.3711 24.3516C10.8281 24.4688 11.6016 24.3047 11.8242 23.5547L13.5234 17.918C13.6992 17.3086 13.4297 16.6875 12.7852 16.4648L8.17969 14.8711L8.75391 10.9453C8.77734 10.7109 9.08203 10.6523 9.1875 10.875L10.1719 12.7852C10.3945 13.2188 10.7812 13.4297 11.2266 13.4297H15.9375C16.582 13.4297 17.1211 12.9258 17.1211 12.2578C17.1211 11.625 16.582 11.0859 15.9375 11.0859H11.9531L10.418 8.05078C9.92578 7.06641 9.04688 6.375 7.94531 6.16406L7.28906 6.03516C6.08203 5.80078 5.10938 6.05859 4.35938 6.52734L0.550781 8.89453C0.222656 9.11719 0 9.49219 0 9.91406V14.6133C0 15.2578 0.539062 15.8086 1.18359 15.8086C1.82812 15.8086 2.36719 15.2578 2.36719 14.6133V10.5469L4.00781 9.52734C4.16016 9.44531 4.33594 9.53906 4.30078 9.71484L3.76172 14.0625C3.55078 15.7266 4.10156 16.8633 6.01172 17.3086L10.8984 18.457L9.57422 22.8984C9.39844 23.5078 9.63281 24.1406 10.3711 24.3516ZM1.72266 28.5938C2.14453 28.875 2.90625 28.875 3.33984 28.2422L6.80859 23.0742C6.97266 22.8281 7.05469 22.6406 7.10156 22.3477L7.59375 18.8906L5.75391 18.457C5.47266 18.3984 5.22656 18.3047 4.99219 18.2227L4.74609 21.9375L1.39453 26.9531C1.03125 27.4922 1.16016 28.2305 1.72266 28.5938ZM6.38672 30.4336H10.1602C10.5234 30.4336 10.8281 30.1289 10.8281 29.7656V27.5039H13.9453C14.2969 27.5039 14.5898 27.2227 14.5898 26.8477V24.5742H17.7305C18.0938 24.5742 18.375 24.293 18.375 23.9297V21.6562H21.375C21.7383 21.6562 22.043 21.3633 22.043 21C22.043 20.6484 21.7383 20.3438 21.375 20.3438H17.7305C17.3672 20.3438 17.0859 20.6484 17.0859 21V23.2734H13.9453C13.5703 23.2734 13.3008 23.5781 13.3008 23.9297V26.2031H10.1602C9.80859 26.2031 9.52734 26.4844 9.52734 26.8477V29.1328H6.38672C6.01172 29.1328 5.74219 29.4141 5.74219 29.7656C5.74219 30.1289 6.01172 30.4336 6.38672 30.4336Z" fill="black" fill-opacity="0.85"/>
</svg>
