<svg width="24" height="24" viewBox="0 0 24 24" fill="none" xmlns="http://www.w3.org/2000/svg">
<path d="M11.9648 23.9243C18.5039 23.9243 23.9179 18.4986 23.9179 11.9712C23.9179 5.43213 18.4922 0.0180664 11.9531 0.0180664C5.42578 0.0180664 0.0117188 5.43213 0.0117188 11.9712C0.0117188 18.4986 5.4375 23.9243 11.9648 23.9243ZM11.9648 21.9322C6.4336 21.9322 2.01563 17.5025 2.01563 11.9712C2.01563 6.43995 6.42188 2.01026 11.9531 2.01026C17.4844 2.01026 21.9258 6.43995 21.9258 11.9712C21.9258 17.5025 17.4961 21.9322 11.9648 21.9322Z" fill="#007AFF"/>
<path d="M10.8859 19.9165C11.3312 19.9165 11.6476 19.6353 11.6476 19.0962V14.2915C11.6476 14.0454 11.7531 13.9048 11.9523 13.9048C12.1281 13.9048 12.2336 14.0337 12.2336 14.2915V19.0962C12.2336 19.6353 12.5734 19.9165 13.0304 19.9165C13.4757 19.9165 13.7804 19.6353 13.7804 19.0962V10.7173C13.7804 10.5298 13.8976 10.4009 14.05 10.4009C14.2023 10.4009 14.2961 10.5181 14.2961 10.7173V14.1392C14.2961 14.6197 14.6007 14.8892 15.0226 14.8892C15.4211 14.8892 15.7023 14.6197 15.7023 14.1392V10.9048C15.7023 8.80719 14.5187 8.23297 11.964 8.23297H10.9797C10.4992 8.23297 10.2765 8.13922 9.91323 7.89313L8.89369 7.16657L8.74136 4.83454C8.7062 4.34235 8.40151 4.09625 7.99136 4.11969C7.5812 4.15485 7.31167 4.42438 7.34683 4.92829L7.48745 7.26032C7.52261 7.76422 7.75698 8.06891 8.08511 8.30329L9.77261 9.55719C10.007 9.72125 10.1007 9.90875 10.1007 10.1783V19.0962C10.1007 19.6353 10.4289 19.9165 10.8859 19.9165ZM11.964 7.54157C12.8078 7.54157 13.4992 6.83844 13.4992 6.04157C13.4992 5.1861 12.8078 4.50641 11.964 4.50641C11.1086 4.50641 10.4523 5.1861 10.4523 6.04157C10.4523 6.83844 11.1086 7.54157 11.964 7.54157Z" fill="black" fill-opacity="0.85"/>
</svg>
