<svg width="27" height="19" viewBox="0 0 27 19" fill="none" xmlns="http://www.w3.org/2000/svg">
<path d="M22.1852 5.13086C23.6031 5.13086 24.7398 3.99415 24.7398 2.57618C24.7398 1.15821 23.6031 0.00976562 22.1852 0.00976562C20.7672 0.00976562 19.6188 1.15821 19.6188 2.57618C19.6188 3.99415 20.7672 5.13086 22.1852 5.13086ZM1.59536 17.1543L8.48598 15.4317V17.0489C8.48598 17.7051 9.02504 18.2325 9.66958 18.2325C10.3258 18.2325 10.8648 17.7051 10.8648 17.0489V14.9981L15.8688 14.2481C16.7945 14.1192 17.6969 13.709 18.4586 13.1348L22.7945 9.88868C22.9586 9.77149 23.193 9.79493 23.275 9.99415L24.5523 12.5723V17.0489C24.5523 17.7403 25.0445 18.2325 25.7477 18.2325C26.4508 18.2325 26.9313 17.7403 26.9313 17.0489V12.291C26.9313 12.1036 26.8961 11.9043 26.8023 11.7403L24.7516 7.65039C24.3414 6.83008 23.5445 6.32618 22.6305 6.32618H21.5758C20.5563 6.32618 19.5484 6.66602 18.7281 7.28711L15.3297 9.81836L10.3375 8.82227C9.29458 8.61133 8.48598 9.06836 8.48598 10.17V12.9707L1.02114 14.8692C0.247698 15.0567 -0.0452704 15.6543 0.0367608 16.2051C0.14223 16.8262 0.716449 17.377 1.59536 17.1543ZM10.8648 12.3965V11.4942L12.4938 11.9981L10.8648 12.3965ZM16.5133 18.2325H21.2711C22.2555 18.2325 23.0523 17.4356 23.0523 16.4395C23.0523 15.4668 22.2555 14.6582 21.2711 14.6582H16.5133C15.5172 14.6582 14.732 15.4668 14.732 16.4395C14.732 17.4356 15.5172 18.2325 16.5133 18.2325ZM21.2711 17.3887C20.7555 17.3887 20.3336 16.9551 20.3336 16.4278C20.3336 15.9239 20.7555 15.502 21.2711 15.502C21.7984 15.502 22.2086 15.9239 22.2086 16.4278C22.2086 16.9551 21.7984 17.3887 21.2711 17.3887Z" fill="black" fill-opacity="0.85"/>
</svg>
