<svg width="13" height="27" viewBox="0 0 13 27" fill="none" xmlns="http://www.w3.org/2000/svg">
<path d="M0.000930351 1.1048L0.223587 5.21808C0.258743 5.96808 0.551712 6.40167 1.07906 6.78839L3.62202 8.65167C3.93843 8.87433 4.11421 9.03839 4.11421 9.58917V24.8821C4.11421 25.515 4.62984 26.0189 5.26265 26.0189C5.89546 26.0189 6.39937 25.515 6.39937 24.8821V16.6556C6.39937 16.4446 6.58687 16.2571 6.79781 16.2571C7.00874 16.2571 7.18452 16.4446 7.18452 16.6556V24.8821C7.18452 25.515 7.70015 26.0189 8.33296 26.0189C8.96577 26.0189 9.46968 25.515 9.46968 24.8821V11.3001C9.46968 11.0892 9.64546 10.9251 9.8564 10.9251C10.0673 10.9251 10.2314 11.0892 10.2314 11.3001V15.8118C10.2314 16.3978 10.7001 16.8548 11.2744 16.8548C11.8486 16.8548 12.3173 16.3978 12.3173 15.8118V10.7728C12.3173 8.18292 10.4189 6.46027 7.65327 6.46027H5.21577C4.51265 6.46027 4.07906 6.31964 3.51656 5.9212L2.29781 5.05402L2.07515 0.999329C2.05171 0.425111 1.55952 -0.0436394 0.985305 0.00323563C0.399368 0.0501106 -0.0225071 0.530579 0.000930351 1.1048ZM6.79781 5.14777C8.21577 5.14777 9.35249 4.01105 9.35249 2.59308C9.35249 1.17511 8.21577 0.0383919 6.79781 0.0383919C5.37984 0.0383919 4.24312 1.17511 4.24312 2.59308C4.24312 4.01105 5.37984 5.14777 6.79781 5.14777Z" fill="black" fill-opacity="0.85"/>
</svg>
