<svg width="17" height="30" viewBox="0 0 17 30" fill="none" xmlns="http://www.w3.org/2000/svg">
<path d="M7.24219 11.7732C8.63672 11.7732 9.77344 10.6365 9.77344 9.20678C9.77344 7.80053 8.63672 6.66381 7.24219 6.66381C5.8125 6.66381 4.67578 7.80053 4.67578 9.20678C4.67578 10.6365 5.8125 11.7732 7.24219 11.7732ZM1.19531 29.574H7.24219C7.96875 29.574 8.30859 29.2224 8.42578 28.5779L9.45703 22.9295H14.2383L13.3008 28.1326C13.1602 28.9646 13.7109 29.5154 14.3203 29.574C14.9062 29.6326 15.5508 29.3513 15.6914 28.5779L16.8633 22.0506C17.0156 21.1365 16.4883 20.5857 15.832 20.5154L11.5781 20.0466L11.9414 16.0154C11.9531 15.8162 12.1172 15.6873 12.3047 15.6873H15.7031C16.3594 15.6873 16.9102 15.1248 16.9102 14.4685V7.82397C16.9102 7.33178 16.6055 6.88647 16.1484 6.71069C15.7031 6.52319 15.1875 6.60522 14.8359 6.95678L8.21484 13.6013C7.62891 14.1873 7.25391 14.9256 7.17188 15.8279L6.12891 27.1599H1.19531C0.527344 27.1599 0 27.6873 0 28.3552C0 29.0232 0.527344 29.574 1.19531 29.574ZM14.4961 10.742V13.2498H11.9648L14.4961 10.742ZM12.0703 7.19116L14.7891 9.61694L15.4219 8.91381L12.7383 6.47631L12.0703 7.19116ZM5.35547 2.26928L11.543 7.84741C11.918 8.18725 12.4102 8.14037 12.7734 7.76537L13.3945 7.13256C13.7695 6.75756 13.6992 6.23022 13.3359 5.89037L7.11328 0.288811C6.73828 -0.0510331 6.21094 -0.0158769 5.87109 0.359123L5.28516 1.03881C4.95703 1.41381 4.96875 1.91772 5.35547 2.26928Z" fill="black" fill-opacity="0.85"/>
</svg>
