<svg width="21" height="26" viewBox="0 0 21 26" fill="none" xmlns="http://www.w3.org/2000/svg">
<path d="M7.84804 23.6367C8.30507 23.5078 8.58632 23.3672 8.77382 23.0156L11.3519 18.375C11.3988 18.293 11.434 18.2578 11.5394 18.2578H17.8441V24.1992C17.8441 24.8789 18.3832 25.3945 19.0277 25.3945C19.7074 25.3945 20.2348 24.8789 20.2348 24.1992V17.2031C20.2348 16.418 19.8129 15.9492 18.9926 15.8789L13.684 15.3984V8.73047C13.684 7.42969 12.7699 6.35156 11.1644 6.35156H10.6019C9.65272 6.35156 8.92616 6.51562 7.98866 7.21875L4.05116 10.1719C3.37147 10.6641 3.41835 11.6602 4.10975 12.1172L8.92616 15.3164V15.6211L6.8285 21.4336L0.87538 23.0742C0.242567 23.25 -0.132433 23.8945 0.0433489 24.5273C0.230849 25.1953 0.828505 25.5352 1.50819 25.3594L7.84804 23.6367ZM6.8285 11.0625L8.60975 9.72656C8.75038 9.63281 8.92616 9.70312 8.92616 9.87891V12.457L6.8285 11.0625ZM11.1644 5.12109C12.559 5.12109 13.7074 3.97266 13.7074 2.54297C13.7074 1.14844 12.559 0 11.1644 0C9.73475 0 8.58632 1.14844 8.58632 2.54297C8.58632 3.97266 9.73475 5.12109 11.1644 5.12109Z" fill="black" fill-opacity="0.85"/>
</svg>
