<svg width="26" height="28" viewBox="0 0 26 28" fill="none" xmlns="http://www.w3.org/2000/svg">
<path d="M11.7317 5.10938C13.138 5.10938 14.2747 3.97266 14.2747 2.54297C14.2747 1.13672 13.138 0 11.7317 0C10.302 0 9.16531 1.13672 9.16531 2.54297C9.16531 3.97266 10.302 5.10938 11.7317 5.10938ZM0.938744 26.6133C1.38406 27.0469 2.12234 27.1289 2.63796 26.6133L7.77077 21.4922C8.08718 21.1875 8.14577 20.9414 8.11062 20.4844L7.81765 17.1797C7.79421 16.9688 7.99343 16.875 8.13406 17.0039L11.8137 20.168L13.7239 26.1094C13.9466 26.8008 14.6497 27.0703 15.2473 26.8945C15.927 26.6953 16.2434 26.0156 16.0325 25.3711L14.052 19.1133C13.9934 18.9375 13.888 18.7383 13.7473 18.6094L9.7864 14.6953L12.3294 9.60938C12.4348 9.39844 12.6926 9.35156 12.8684 9.52734L15.7161 12.3984C15.845 12.5273 16.0325 12.6328 16.22 12.6914L21.927 14.4023C22.3958 14.543 23.1809 14.3555 23.427 13.5703C23.6145 12.9375 23.2512 12.2461 22.6067 12.0586L17.2044 10.4648L14.1223 7.34766C13.4192 6.64453 12.6106 6.33984 11.6497 6.33984H3.49343C3.02468 6.33984 2.61452 6.59766 2.41531 7.00781L0.13015 11.5547C-0.162819 12.1406 0.0481185 12.8789 0.669212 13.1719C1.29031 13.4648 1.99343 13.2422 2.29812 12.6211L4.23171 8.76562H6.64577C6.91531 8.76562 7.07937 9.02344 6.95046 9.28125L5.18093 12.832C4.54812 14.0859 4.37234 15.5508 4.7239 16.9336L5.56765 20.25L0.915306 24.8789C0.446556 25.3359 0.458275 26.1328 0.938744 26.6133ZM22.2669 21.2812C23.8137 21.2812 25.0559 20.0273 25.0559 18.4922C25.0559 16.957 23.8137 15.7148 22.2669 15.7148C20.7317 15.7148 19.4895 16.957 19.4895 18.4922C19.4895 20.0273 20.7317 21.2812 22.2669 21.2812Z" fill="black" fill-opacity="0.85"/>
</svg>
