<svg width="23" height="26" viewBox="0 0 23 26" fill="none" xmlns="http://www.w3.org/2000/svg">
<path d="M19.315 7.24194C21.0728 7.24194 22.4791 5.7771 22.4791 4.07788C22.4791 2.30835 21.0728 0.878662 19.315 0.878662C17.5455 0.878662 16.1275 2.30835 16.1275 4.07788C16.1275 5.82397 17.5455 7.24194 19.315 7.24194ZM0.436126 24.0115C1.0455 24.6443 2.08847 24.5974 2.82675 23.824L7.87753 18.6208C8.04159 18.445 8.15878 18.3982 8.41659 18.5036L12.3541 19.9919C14.8853 20.9646 17.2642 20.1325 18.3775 18.1169L20.9087 13.5115C21.8931 11.7185 21.5767 9.86694 19.8775 8.95288C18.2252 8.05053 16.5025 8.73022 15.5064 10.57L12.2134 16.5583L9.42441 15.5388C8.04159 15.0349 6.88144 15.199 5.77987 16.3474L0.541595 21.7615C-0.184968 22.5115 -0.114656 23.449 0.436126 24.0115Z" fill="#007AFF"/>
<path d="M0.00195312 4.15989C0.00195312 4.72239 0.435547 5.1677 0.998047 5.1677H6.40039V7.31223C6.40039 8.27317 7.37304 8.69505 8.08789 8.05051L11.6387 4.90989C12.1192 4.48801 12.1192 3.90208 11.6387 3.45676L8.08789 0.316134C7.4082 -0.293241 6.40039 0.0466031 6.40039 1.05442V3.17551H0.998047C0.435547 3.17551 0.00195312 3.60911 0.00195312 4.15989Z" fill="black" fill-opacity="0.85"/>
</svg>
