<svg width="26" height="30" viewBox="0 0 26 30" fill="none" xmlns="http://www.w3.org/2000/svg">
<path d="M19.3594 11.7881C20.7773 11.7881 21.9258 10.6396 21.9258 9.22167C21.9258 7.80371 20.7773 6.65527 19.3594 6.65527C17.9414 6.65527 16.8047 7.80371 16.8047 9.22167C16.8047 10.6396 17.9414 11.7881 19.3594 11.7881ZM12.7617 0.749018C11.6602 -0.364264 10.3477 -0.30567 8.63672 1.39355C7.6875 2.36621 7.18359 4.32324 6.87891 5.71777L5.14453 7.46386C4.60547 8.00292 4.72266 8.74121 5.20312 9.22167L8.66016 12.667C8.88281 12.8662 9.16406 12.9951 9.49219 12.9951H11.8359C11.918 12.9951 11.9531 13.124 11.8828 13.1592L9.44531 14.3779C7.37109 15.3975 6.89062 18.1514 9 19.71L13.3359 22.874L10.8164 27.9131C10.5234 28.499 10.7578 29.2256 11.332 29.5068C11.8711 29.7764 12.5977 29.6123 12.9258 28.9795L15.832 23.167C16.0664 22.6865 16.1133 22.1006 15.5859 21.5732L12.0938 18.0928L16.6406 15.831C16.8633 15.7139 17.1094 15.7607 17.2617 15.9248L23.5078 22.1592C23.9766 22.6279 24.75 22.6045 25.1719 22.1592C25.6289 21.6904 25.6406 20.9521 25.1719 20.4834L15.9609 11.2725C15.5508 10.8623 15.1172 10.6279 14.543 10.6279H9.98438L6.90234 7.54589L7.81641 6.63183C9.21094 6.33886 11.1797 5.83496 12.1172 4.87402C13.8398 3.1748 13.8984 1.85058 12.7617 0.749018ZM11.8594 1.6748C12.4688 2.27246 12.2695 2.87011 11.2031 3.95996C10.5352 4.61621 9.28125 4.92089 8.33203 5.20214C8.58984 4.22949 8.90625 2.99902 9.57422 2.31933C10.6523 1.24121 11.2266 1.06542 11.8594 1.6748ZM1.18359 24.8779H7.125C7.62891 24.8779 8.03906 24.5146 8.25 24.081L9.52734 21.5381L8.30859 20.6357C7.875 20.3193 7.52344 19.956 7.24219 19.5693L6.25781 22.499H1.18359C0.539062 22.499 0 23.0381 0 23.6826C0 24.3623 0.539062 24.8779 1.18359 24.8779Z" fill="black" fill-opacity="0.85"/>
</svg>
