<svg width="24" height="24" viewBox="0 0 24 24" fill="none" xmlns="http://www.w3.org/2000/svg">
<path d="M11.9531 23.9062C18.4922 23.9062 23.9062 18.4805 23.9062 11.9531C23.9062 5.41406 18.4805 0 11.9414 0C5.41406 0 0 5.41406 0 11.9531C0 18.4805 5.42578 23.9062 11.9531 23.9062ZM11.9531 21.9141C6.42188 21.9141 2.00391 17.4844 2.00391 11.9531C2.00391 6.42188 6.41016 1.99219 11.9414 1.99219C17.4727 1.99219 21.9141 6.42188 21.9141 11.9531C21.9141 17.4844 17.4844 21.9141 11.9531 21.9141Z" fill="#007AFF"/>
<path d="M10.8751 19.8985C11.3204 19.8985 11.6368 19.6173 11.6368 19.0782V14.2735C11.6368 14.0274 11.7423 13.8868 11.9415 13.8868C12.1173 13.8868 12.2228 14.0157 12.2228 14.2735V19.0782C12.2228 19.6173 12.5626 19.8985 13.0196 19.8985C13.4649 19.8985 13.7696 19.6173 13.7696 19.0782V10.6993C13.7696 10.5118 13.8868 10.3829 14.0392 10.3829C14.1915 10.3829 14.2853 10.5001 14.2853 10.6993V14.1212C14.2853 14.6017 14.5899 14.8712 15.0118 14.8712C15.4103 14.8712 15.6915 14.6017 15.6915 14.1212V10.8868C15.6915 8.78913 14.5079 8.21491 11.9532 8.21491H10.9689C10.4884 8.21491 10.2657 8.12116 9.90248 7.87507L8.88295 7.14851L8.73061 4.81648C8.69545 4.32429 8.39076 4.07819 7.98061 4.10163C7.57045 4.13679 7.30092 4.40632 7.33608 4.91023L7.4767 7.24226C7.51186 7.74616 7.74623 8.05085 8.07436 8.28523L9.76186 9.53913C9.99623 9.70319 10.0899 9.89069 10.0899 10.1603V19.0782C10.0899 19.6173 10.4181 19.8985 10.8751 19.8985ZM11.9532 7.52351C12.797 7.52351 13.4884 6.82038 13.4884 6.02351C13.4884 5.16804 12.797 4.48835 11.9532 4.48835C11.0978 4.48835 10.4415 5.16804 10.4415 6.02351C10.4415 6.82038 11.0978 7.52351 11.9532 7.52351Z" fill="black" fill-opacity="0.85"/>
</svg>
