<svg width="29" height="28" viewBox="0 0 29 28" fill="none" xmlns="http://www.w3.org/2000/svg">
<path d="M21.3281 13.5233C22.7461 13.5233 23.8828 12.3866 23.8828 10.9687C23.8828 9.55066 22.7461 8.40223 21.3281 8.40223C19.8984 8.40223 18.7617 9.55066 18.7617 10.9687C18.7617 12.3866 19.8984 13.5233 21.3281 13.5233ZM13.1836 22.7108H17.8008L22.5938 17.9179C22.8281 17.6835 23.2148 17.6835 23.4375 17.9179L25.4062 19.8749L23.3672 21.9257C22.3242 22.9804 23.9062 24.5741 24.9609 23.5194L27.8086 20.6835C28.2773 20.2147 28.2656 19.5233 27.8086 19.0663L24.4922 15.7616C23.8477 15.1171 23.0039 14.7538 22.1016 14.7538H13.4766V17.039H16.3477C16.5586 17.039 16.6523 17.2499 16.5117 17.4022L13.1836 20.7187V22.7108ZM1.62891 22.7108H13.875V1.21864C13.875 0.351448 12.6094 -0.0235519 12.0586 0.972542L0.832031 21.1757C0.386719 21.996 0.832031 22.7108 1.62891 22.7108ZM2.47266 21.4101C2.33203 21.4101 2.28516 21.2811 2.33203 21.1991L12.293 3.24598C12.375 3.10536 12.5742 3.14051 12.5742 3.29286V21.4101H2.47266ZM0.65625 27.5038H1.83984C4.98047 27.5038 5.68359 25.5702 7.86328 25.5702C10.0312 25.5702 10.7344 27.5038 13.875 27.5038C17.0039 27.5038 17.7188 25.5702 19.8867 25.5702C22.0547 25.5702 22.7695 27.5038 25.8984 27.5038H27.0938C27.457 27.5038 27.7383 27.2226 27.7383 26.8593C27.7383 26.496 27.457 26.203 27.0938 26.203H25.8984C23.6484 26.203 22.8867 24.2694 19.8867 24.2694C16.8867 24.2694 16.125 26.203 13.875 26.203C11.625 26.203 10.8633 24.2694 7.86328 24.2694C4.85156 24.2694 4.10156 26.203 1.83984 26.203H0.65625C0.292969 26.203 0 26.496 0 26.8593C0 27.2226 0.292969 27.5038 0.65625 27.5038Z" fill="black" fill-opacity="0.85"/>
</svg>
