<svg width="28" height="22" viewBox="0 0 28 22" fill="none" xmlns="http://www.w3.org/2000/svg">
<path d="M14.5156 8.1626C15.9336 8.1626 17.082 7.02588 17.082 5.60791C17.082 4.18995 15.9336 3.04151 14.5156 3.04151C13.0976 3.04151 11.9609 4.18995 11.9609 5.60791C11.9609 7.02588 13.0976 8.1626 14.5156 8.1626ZM8.9375 13.7642C11.5742 14.0923 11.9258 15.6158 13.8711 15.6158C13.9414 15.6158 13.9883 15.6158 14.0586 15.604L15.207 12.3814C15.3359 12.0064 15.5469 11.8658 15.9453 11.8658H26.3633C27.043 11.8658 27.6172 11.2915 27.6172 10.6001C27.6172 9.93213 27.043 9.35791 26.3633 9.35791H6.73437L5.10547 4.0376C4.90625 3.35791 4.21484 2.98291 3.57031 3.18213C2.91406 3.39307 2.55078 4.09619 2.73828 4.71729L4.5664 10.8228C4.74219 11.397 5.1875 11.8658 5.79687 11.8658H9.14843C9.39453 11.8658 9.55859 12.065 9.47656 12.3111L8.9375 13.7642ZM7.55469 3.68604C8.5625 3.68604 9.38281 2.86573 9.38281 1.85791C9.38281 0.850097 8.5625 0.0180664 7.55469 0.0180664C6.54687 0.0180664 5.72656 0.850097 5.72656 1.85791C5.72656 2.86573 6.54687 3.68604 7.55469 3.68604ZM0.664062 18.7095H1.84765C4.97656 18.7095 5.6914 16.7876 7.85937 16.7876C10.0273 16.7876 10.7422 18.7095 13.8711 18.7095C17.0117 18.7095 17.7148 16.7876 19.8945 16.7876C22.0625 16.7876 22.7656 18.7095 25.9062 18.7095H27.0898C27.4531 18.7095 27.7461 18.4283 27.7461 18.065C27.7461 17.7017 27.4531 17.4087 27.0898 17.4087H25.9062C23.6562 17.4087 22.8945 15.4869 19.8945 15.4869C16.8828 15.4869 16.1211 17.4087 13.8711 17.4087C11.6211 17.4087 10.8711 15.4869 7.85937 15.4869C4.85937 15.4869 4.09765 17.4087 1.84765 17.4087H0.664062C0.289062 17.4087 0.0078125 17.7017 0.0078125 18.065C0.0078125 18.4283 0.289062 18.7095 0.664062 18.7095ZM0.96875 21.9673C1.35547 21.9673 1.66015 21.6626 1.66015 21.2759C1.66015 20.9009 1.35547 20.5962 0.96875 20.5962C0.59375 20.5962 0.289062 20.9009 0.289062 21.2759C0.289062 21.6626 0.59375 21.9673 0.96875 21.9673ZM3.17187 21.5689C3.54687 21.5689 3.85156 21.2642 3.85156 20.8892C3.85156 20.5025 3.54687 20.1978 3.17187 20.1978C2.78515 20.1978 2.48047 20.5025 2.48047 20.8892C2.48047 21.2642 2.78515 21.5689 3.17187 21.5689ZM5.22265 20.5962C5.60937 20.5962 5.91406 20.3033 5.91406 19.9165C5.91406 19.5298 5.60937 19.2369 5.22265 19.2369C4.84765 19.2369 4.54297 19.5298 4.54297 19.9165C4.54297 20.3033 4.84765 20.5962 5.22265 20.5962ZM7.4375 20.0806C7.82422 20.0806 8.1289 19.7759 8.1289 19.3892C8.1289 19.0142 7.82422 18.7095 7.4375 18.7095C7.0625 18.7095 6.75781 19.0142 6.75781 19.3892C6.75781 19.7759 7.0625 20.0806 7.4375 20.0806ZM9.65234 20.5962C10.039 20.5962 10.332 20.3033 10.332 19.9165C10.332 19.5298 10.039 19.2369 9.65234 19.2369C9.26562 19.2369 8.97265 19.5298 8.97265 19.9165C8.97265 20.3033 9.26562 20.5962 9.65234 20.5962ZM11.7266 21.5689C12.1133 21.5689 12.418 21.2642 12.418 20.8892C12.418 20.5025 12.1133 20.1978 11.7266 20.1978C11.3516 20.1978 11.0469 20.5025 11.0469 20.8892C11.0469 21.2642 11.3516 21.5689 11.7266 21.5689ZM13.8945 21.9673C14.2695 21.9673 14.5742 21.6626 14.5742 21.2759C14.5742 20.9009 14.2695 20.5962 13.8945 20.5962C13.5078 20.5962 13.2031 20.9009 13.2031 21.2759C13.2031 21.6626 13.5078 21.9673 13.8945 21.9673ZM16.0508 21.5689C16.4375 21.5689 16.7305 21.2642 16.7305 20.8892C16.7305 20.5025 16.4375 20.1978 16.0508 20.1978C15.664 20.1978 15.3711 20.5025 15.3711 20.8892C15.3711 21.2642 15.664 21.5689 16.0508 21.5689ZM18.125 20.5962C18.5117 20.5962 18.8164 20.3033 18.8164 19.9165C18.8164 19.5298 18.5117 19.2369 18.125 19.2369C17.75 19.2369 17.4453 19.5298 17.4453 19.9165C17.4453 20.3033 17.75 20.5962 18.125 20.5962ZM20.3398 20.0806C20.7266 20.0806 21.0195 19.7759 21.0195 19.3892C21.0195 19.0142 20.7266 18.7095 20.3398 18.7095C19.9531 18.7095 19.6601 19.0142 19.6601 19.3892C19.6601 19.7759 19.9531 20.0806 20.3398 20.0806ZM22.5547 20.5962C22.9414 20.5962 23.2344 20.3033 23.2344 19.9165C23.2344 19.5298 22.9414 19.2369 22.5547 19.2369C22.168 19.2369 21.875 19.5298 21.875 19.9165C21.875 20.3033 22.168 20.5962 22.5547 20.5962ZM24.6172 21.5689C25.0039 21.5689 25.2969 21.2642 25.2969 20.8892C25.2969 20.5025 25.0039 20.1978 24.6172 20.1978C24.2305 20.1978 23.9375 20.5025 23.9375 20.8892C23.9375 21.2642 24.2305 21.5689 24.6172 21.5689ZM26.7969 21.9673C27.1836 21.9673 27.4883 21.6626 27.4883 21.2759C27.4883 20.9009 27.1836 20.5962 26.7969 20.5962C26.4219 20.5962 26.1172 20.9009 26.1172 21.2759C26.1172 21.6626 26.4219 21.9673 26.7969 21.9673Z" fill="black" fill-opacity="0.85"/>
</svg>
