<svg width="27" height="27" viewBox="0 0 27 27" fill="none" xmlns="http://www.w3.org/2000/svg">
<path d="M1.31406 15.8805L10.7008 25.2672C12.4352 27.0016 14.1461 27.0133 15.8687 25.3023L25.3023 15.857C27.0133 14.1461 27.0016 12.4234 25.2672 10.6891L15.8922 1.31406C14.1578 -0.420317 12.4469 -0.443755 10.7242 1.2789L1.2789 10.7125C-0.443755 12.4352 -0.420317 14.1461 1.31406 15.8805ZM2.67343 14.5797C1.8414 13.7359 1.81796 12.857 2.68515 11.9898L11.9898 2.68515C12.857 1.81796 13.7359 1.82968 14.5797 2.67343L23.9078 12.0016C24.7398 12.8336 24.7633 13.7242 23.8961 14.5914L14.5914 23.8961C13.7242 24.7633 12.8219 24.7398 12.0016 23.9195L2.67343 14.5797Z" fill="#007AFF"/>
<path d="M16.0684 20.439C16.4316 20.439 16.7949 20.1929 16.7949 19.7476C16.7949 19.5718 16.7481 19.4194 16.6543 19.2319L15.2715 16.4077C15.1309 16.1147 14.9785 15.9155 14.8613 15.7515L14.041 14.5679L14.1113 14.3686C14.3574 13.6538 14.4746 13.1851 14.5215 12.4819L14.6504 10.6069C14.7207 9.59912 14.1465 8.77881 13.0332 8.77881C12.3066 8.77881 11.6387 9.14209 10.9356 9.8335L9.85742 10.8765C9.49414 11.228 9.38867 11.5093 9.35351 11.9546L9.21289 13.5249C9.17773 13.9936 9.44726 14.2983 9.86914 14.3335C10.2676 14.3569 10.5606 14.1226 10.6074 13.6186L10.7363 11.9311L11.3223 11.4272C11.4981 11.2749 11.709 11.3686 11.6856 11.6265L11.5801 13.0561C11.5098 13.8413 11.8965 14.4038 12.2832 14.8843L13.6309 16.5835C13.7598 16.7358 13.7832 16.7944 13.8535 16.9233L15.3418 19.9585C15.4941 20.2866 15.752 20.439 16.0684 20.439ZM9.69335 20.439C9.91601 20.439 10.1152 20.3569 10.2559 20.1929L12.4004 17.6382C12.6348 17.3569 12.6582 17.3452 12.7168 17.0874L12.834 16.5835L11.6621 15.1069L11.3106 16.7593L9.33007 19.103C9.17773 19.2905 9.02539 19.478 9.02539 19.7593C9.02539 20.1811 9.30664 20.439 9.69335 20.439ZM16.4551 12.8921H18.1191C18.6113 12.8921 18.8926 12.6226 18.8926 12.189C18.8926 11.7788 18.6113 11.4976 18.1191 11.4976H16.3496L15.2598 10.2788L15.1309 12.1069L15.6113 12.5874C15.8457 12.8335 16.0566 12.8921 16.4551 12.8921ZM13.9238 8.22803C14.7559 8.22803 15.4473 7.53662 15.4473 6.71631C15.4473 5.86084 14.7559 5.19287 13.9238 5.19287C13.0801 5.19287 12.4121 5.86084 12.4121 6.71631C12.4121 7.53662 13.0801 8.22803 13.9238 8.22803Z" fill="black" fill-opacity="0.85"/>
</svg>
