<svg width="16" height="29" viewBox="0 0 16 29" fill="none" xmlns="http://www.w3.org/2000/svg">
<path d="M5.88281 5.12109C7.28906 5.12109 8.44922 3.96094 8.44922 2.55469C8.44922 1.16016 7.28906 0 5.88281 0C4.47656 0 3.32812 1.16016 3.32812 2.55469C3.32812 3.96094 4.47656 5.12109 5.88281 5.12109ZM11.9766 23.7188C12.4688 23.4844 12.7852 22.9102 12.4688 22.1133L10.4062 16.9453C10.3477 16.7812 10.2305 16.6523 9.97266 16.4648L6.19922 13.6758L6.48047 9.51562C6.49219 9.28125 6.66797 9.21094 6.89062 9.28125L9.33984 10.1133C9.57422 10.1836 9.86719 10.2188 10.125 10.1836L14.6719 9.67969C16.2891 9.49219 15.9961 7.13672 14.4023 7.3125L9.99609 7.81641L5.50781 6.32812C3.86719 5.77734 2.44922 6.70312 2.30859 8.34375L1.98047 12.4453C1.875 13.6758 2.51953 14.8711 3.57422 15.4805L8.36719 18.2578L10.2656 22.9922C10.5938 23.8242 11.4141 24 11.9766 23.7188ZM1.00781 25.8281C1.48828 26.0508 2.09766 25.9805 2.51953 25.3594L5.625 20.7305C5.71875 20.5781 5.80078 20.3672 5.8125 20.1094L5.94141 18.0234L3.28125 16.4766L3.43359 19.7461L0.574219 24.0352C0.0703125 24.8086 0.433594 25.5586 1.00781 25.8281ZM10.0898 27.4219L14.6836 25.8984C15.0234 25.7812 15.1992 25.5469 15.1992 25.1484V10.7227C15.0586 10.7578 14.9062 10.793 14.7422 10.8164L13.8984 10.9102V24.7852L9.70312 26.1797C9.24609 26.3438 9.12891 26.7422 9.25781 27.0586C9.35156 27.3398 9.66797 27.5625 10.0898 27.4219ZM0.644531 28.4883H5.44922C5.8125 28.4883 6.11719 28.1836 6.11719 27.832C6.11719 27.4688 5.8125 27.1875 5.44922 27.1875H0.644531C0.28125 27.1875 0 27.4688 0 27.832C0 28.1836 0.28125 28.4883 0.644531 28.4883Z" fill="black" fill-opacity="0.85"/>
</svg>
