<svg width="24" height="24" viewBox="0 0 24 24" fill="none" xmlns="http://www.w3.org/2000/svg">
<path d="M11.9648 23.9116C18.5039 23.9116 23.9179 18.4859 23.9179 11.9585C23.9179 5.41943 18.4922 0.00537109 11.9531 0.00537109C5.42578 0.00537109 0.0117188 5.41943 0.0117188 11.9585C0.0117188 18.4859 5.4375 23.9116 11.9648 23.9116Z" fill="#FFCC00"/>
<path d="M11.9772 7.83349C11.0749 7.83349 10.3249 7.09521 10.3249 6.19287C10.3249 5.26709 11.0749 4.52881 11.9772 4.52881C12.8913 4.52881 13.6179 5.26709 13.6179 6.19287C13.6179 7.09521 12.8913 7.83349 11.9772 7.83349ZM11.9655 13.6929C11.7429 13.6929 11.5788 13.8218 11.5085 14.0796L10.3835 18.3921C10.1374 19.3648 8.81313 19.0249 8.94204 18.1109C9.00063 17.7593 9.97329 14.1031 10.114 13.2827C10.2077 12.6734 10.1726 11.1499 10.1726 10.4702C10.1726 10.2593 9.99674 10.1538 9.78579 10.2359L7.87563 11.0093C7.37173 11.2202 7.00844 10.9624 6.91469 10.6109C6.79751 10.2827 6.94985 9.88428 7.4186 9.69678L9.4811 8.82959C9.96157 8.65381 10.3835 8.53662 10.864 8.47803C11.2038 8.64209 11.5671 8.72412 11.9655 8.72412C12.364 8.72412 12.739 8.64209 13.0671 8.47803C13.5476 8.53662 13.9694 8.65381 14.4499 8.82959L16.5124 9.69678C16.9929 9.88428 17.1335 10.2827 17.028 10.6109C16.9343 10.9624 16.571 11.2202 16.0671 11.0093L14.1452 10.2359C13.9343 10.1538 13.7702 10.2593 13.7702 10.4702C13.7702 11.1499 13.7233 12.6734 13.8288 13.2827C13.9577 14.1031 14.9304 17.7593 14.989 18.1109C15.1179 19.0249 13.7936 19.3648 13.5476 18.3921L12.4226 14.0796C12.3522 13.8218 12.1882 13.6929 11.9655 13.6929Z" fill="black" fill-opacity="0.85"/>
</svg>
