<svg width="23" height="24" viewBox="0 0 23 24" fill="none" xmlns="http://www.w3.org/2000/svg">
<path d="M19.3375 6.37451C21.0953 6.37451 22.4898 4.90967 22.4898 3.21045C22.4898 1.44092 21.0953 0.0112305 19.3375 0.0112305C17.5679 0.0112305 16.15 1.44092 16.15 3.21045C16.15 4.95654 17.5679 6.37451 19.3375 6.37451ZM0.458585 23.144C1.05624 23.7768 2.09921 23.73 2.84921 22.9565L7.88828 17.7534C8.05234 17.5776 8.18124 17.5307 8.43906 17.6362L12.3765 19.1245C14.9078 20.0971 17.2867 19.2651 18.4 17.2495L20.9312 12.644C21.9156 10.851 21.5992 8.99951 19.8882 8.08545C18.2359 7.18311 16.525 7.86279 15.5171 9.70264L12.2359 15.6909L9.43515 14.6714C8.05234 14.1674 6.9039 14.3315 5.80234 15.48L0.564054 20.894C-0.174228 21.644 -0.103915 22.5815 0.458585 23.144Z" fill="black" fill-opacity="0.85"/>
</svg>
