<svg width="23" height="28" viewBox="0 0 23 28" fill="none" xmlns="http://www.w3.org/2000/svg">
<path d="M8.78125 24.8135H19.5156C21.2266 24.8135 22.1406 23.876 22.1406 22.0244V13.9502C22.1406 12.0987 21.2266 11.1729 19.5156 11.1729H8.78125C7.05859 11.1729 6.14453 12.0987 6.14453 13.9502V22.0244C6.14453 23.876 7.05859 24.8135 8.78125 24.8135ZM8.20703 12.0752H10.0586V8.11426C10.0586 5.16113 11.957 3.59082 14.1484 3.59082C16.3399 3.59082 18.2383 5.16113 18.2383 8.11426V12.0752H20.1016V8.37207C20.1016 3.96582 17.2188 1.82129 14.1484 1.82129C11.0781 1.82129 8.20703 3.96582 8.20703 8.37207V12.0752Z" fill="#007AFF"/>
<path d="M0.108937 16.294C0.483937 17.6065 1.87846 18.3565 3.39018 17.7822L3.88237 17.583C3.88237 18.0518 3.88237 18.4151 3.81206 18.708L2.54643 23.9932C1.72612 27.3916 6.42534 28.5752 7.26909 25.376H7.89018C8.72221 28.5752 13.4449 27.3799 12.6129 23.9932L11.3238 18.708C11.2652 18.4151 11.277 18.0518 11.277 17.583L11.7691 17.7822C13.2691 18.3565 14.6754 17.6065 15.0504 16.294C15.4137 15.1104 14.8395 13.8213 13.5152 13.2822L10.7613 12.1455C10.984 11.6885 11.1129 11.1846 11.1129 10.6455C11.1129 8.7002 9.55425 7.10645 7.5855 7.10645C5.6519 7.10645 4.05815 8.68849 4.05815 10.6455C4.05815 11.1846 4.18706 11.6885 4.40971 12.1338L1.64409 13.2822C0.319874 13.833 -0.254345 15.1104 0.108937 16.294Z" fill="white"/>
<path d="M7.58519 12.5674C8.67503 12.5674 9.51878 11.7119 9.51878 10.6455C9.51878 9.5791 8.67503 8.71191 7.58519 8.71191C6.5305 8.71191 5.65159 9.5791 5.65159 10.6455C5.65159 11.7119 6.5305 12.5674 7.58519 12.5674ZM7.57347 19.458C7.83128 19.458 8.04222 19.6104 8.11253 19.9033L9.43675 24.9776C9.72972 26.1026 11.2766 25.7041 11.1242 24.6377C11.0422 24.2158 9.91722 19.9268 9.75315 18.9658C9.63597 18.2627 9.69456 16.4697 9.69456 15.6612C9.69456 15.4385 9.89378 15.2862 10.1281 15.3916L12.3664 16.294C12.9758 16.5401 13.3976 16.2471 13.5148 15.8487C13.6437 15.4502 13.468 14.9815 12.9055 14.7588L10.5031 13.7627C9.92894 13.5283 9.43675 13.4112 8.87425 13.3291C8.47581 13.5166 8.04222 13.6338 7.57347 13.6338C7.10472 13.6338 6.68284 13.5166 6.2844 13.3291C5.7219 13.4112 5.218 13.5283 4.6555 13.7627L2.24144 14.7588C1.69065 14.9815 1.51487 15.4502 1.64378 15.8487C1.74925 16.2471 2.18284 16.5401 2.79222 16.294L5.0305 15.3916C5.26487 15.2862 5.46409 15.4385 5.46409 15.6612C5.46409 16.4697 5.52269 18.2627 5.4055 18.9658C5.24144 19.9268 4.11644 24.2158 4.0344 24.6377C3.87034 25.7041 5.42894 26.1026 5.7219 24.9776L7.0344 19.9033C7.11644 19.6104 7.31565 19.458 7.57347 19.458Z" fill="black" fill-opacity="0.85"/>
</svg>
