<svg width="23" height="26" viewBox="0 0 23 26" fill="none" xmlns="http://www.w3.org/2000/svg">
<path d="M19.3131 7.22925C21.0709 7.22925 22.4772 5.76441 22.4772 4.06519C22.4772 2.29566 21.0709 0.865967 19.3131 0.865967C17.5436 0.865967 16.1256 2.29566 16.1256 4.06519C16.1256 5.81128 17.5436 7.22925 19.3131 7.22925ZM0.434173 23.9988C1.04355 24.6316 2.08652 24.5847 2.8248 23.8113L7.87558 18.6081C8.03964 18.4323 8.15683 18.3855 8.41464 18.4909L12.3522 19.9792C14.8834 20.9519 17.2623 20.1198 18.3756 18.1042L20.9068 13.4988C21.8912 11.7058 21.5748 9.85425 19.8756 8.94019C18.2233 8.03784 16.5006 8.71753 15.5045 10.5573L12.2115 16.5456L9.42246 15.5261C8.03964 15.0222 6.87949 15.1863 5.77792 16.3347L0.539641 21.7488C-0.186921 22.4988 -0.116609 23.4363 0.434173 23.9988Z" fill="#007AFF"/>
<path d="M0 4.14719C0 4.70969 0.433594 5.155 0.996094 5.155H6.39844V7.29953C6.39844 8.26047 7.37109 8.68235 8.08594 8.03781L11.6367 4.89719C12.1172 4.47531 12.1172 3.88938 11.6367 3.44406L8.08594 0.303439C7.40625 -0.305936 6.39844 0.0339078 6.39844 1.04172V3.16281H0.996094C0.433594 3.16281 0 3.59641 0 4.14719Z" fill="black" fill-opacity="0.85"/>
</svg>
