<svg width="18" height="26" viewBox="0 0 18 26" fill="none" xmlns="http://www.w3.org/2000/svg">
<path d="M9.01119 5.7583C10.6166 5.7583 11.8822 4.48095 11.8822 2.8872C11.8822 1.29345 10.6049 0.00439453 9.01119 0.00439453C7.42916 0.00439453 6.14009 1.29345 6.14009 2.8872C6.14009 4.48095 7.41744 5.7583 9.01119 5.7583ZM8.92916 16.0239C9.32759 16.0239 9.60884 16.2466 9.72603 16.6919L11.683 24.2271C12.1283 25.9263 14.4486 25.3521 14.2026 23.7349C14.1088 23.1138 12.4213 16.7388 12.1752 15.2974C11.9877 14.231 12.0697 11.5591 12.0697 10.3872C12.0697 10.0239 12.3744 9.84814 12.7377 9.98877L16.0658 11.3247C16.9565 11.688 17.6127 11.2427 17.7885 10.6333C17.9643 10.0708 17.7182 9.36767 16.8861 9.01611L13.2768 7.53955C12.4565 7.1997 11.7065 7.00048 10.8861 6.90673C10.3002 7.1997 9.63228 7.35205 8.92916 7.35205C8.23775 7.35205 7.56978 7.1997 6.98384 6.90673C6.15181 7.00048 5.41353 7.1997 4.59322 7.53955L0.98384 9.01611C0.151809 9.36767 -0.106003 10.0708 0.0814969 10.6333C0.257278 11.2427 0.901809 11.688 1.79244 11.3247L5.13228 9.98877C5.49556 9.84814 5.78853 10.0239 5.78853 10.3872C5.78853 11.5591 5.87056 14.231 5.69478 15.2974C5.44869 16.7388 3.74947 23.1138 3.65572 23.7349C3.40962 25.3521 5.74166 25.9263 6.17525 24.2271L8.13228 16.6919C8.24947 16.2466 8.54244 16.0239 8.92916 16.0239Z" fill="black" fill-opacity="0.85"/>
</svg>
