<svg width="31" height="23" viewBox="0 0 31 23" fill="none" xmlns="http://www.w3.org/2000/svg">
<path d="M19.8164 5.12109C21.2344 5.12109 22.3828 3.97266 22.3828 2.55469C22.3828 1.13672 21.2344 0 19.8164 0C18.3984 0 17.2617 1.13672 17.2617 2.55469C17.2617 3.97266 18.3984 5.12109 19.8164 5.12109ZM11.2031 21.9375C11.6602 22.1953 12.4336 22.0898 12.7734 21.4102L15.7148 15.5625C15.9375 15.1055 15.8672 14.5664 15.4922 14.2031L11.9531 10.6523L16.418 8.41406C16.6406 8.29688 16.8867 8.35547 17.0508 8.51953L19.3477 10.8281V15.6211C19.3477 16.2656 19.8867 16.793 20.5312 16.793C21.1758 16.793 21.7031 16.2656 21.7031 15.6211V10.3477C21.7031 10.0312 21.6328 9.75 21.3633 9.50391L16.0664 4.23047C15.4688 3.63281 14.6836 3.31641 13.8398 3.31641H9.33984C8.16797 3.31641 7.82812 4.59375 8.54297 5.29688L9.94922 6.69141L9.375 6.92578C7.24219 7.80469 6.62109 10.6055 8.63672 12.0703L13.1719 15.3984L10.6875 20.3672C10.3945 20.9414 10.6289 21.6328 11.2031 21.9375ZM1.17188 17.3906H7.04297C7.51172 17.3906 7.88672 17.0977 8.07422 16.7344L9.41016 14.0508L7.96875 12.9844C7.64062 12.75 7.35938 12.4805 7.13672 12.1992L6.1875 15.0352H1.17188C0.527344 15.0352 0 15.5625 0 16.2188C0 16.8633 0.527344 17.3906 1.17188 17.3906ZM25.875 21.5508H29.4023C29.7422 21.5508 30.0352 21.2578 30.0352 20.9062V20.3203C30.0352 19.957 29.7422 19.6641 29.4023 19.6641H25.5L14.1211 8.29688L12.9609 8.96484L25.3008 21.3047C25.5117 21.5156 25.6523 21.5508 25.875 21.5508Z" fill="black" fill-opacity="0.85"/>
</svg>
