<svg width="35" height="25" viewBox="0 0 35 25" fill="none" xmlns="http://www.w3.org/2000/svg">
<path d="M31.3638 6.68653C33.1217 6.68653 34.5279 5.22168 34.5279 3.52247C34.5279 1.75293 33.1217 0.323242 31.3638 0.323242C29.5943 0.323242 28.1763 1.75293 28.1763 3.52247C28.1763 5.26856 29.5943 6.68653 31.3638 6.68653ZM12.4849 23.456C13.0943 24.0888 14.1373 24.0419 14.8756 23.2685L19.9263 18.0654C20.0904 17.8896 20.2076 17.8427 20.4654 17.9482L24.4029 19.4365C26.9342 20.4091 29.3131 19.5771 30.4263 17.5615L32.9576 12.956C33.942 11.163 33.6256 9.31152 31.9263 8.39746C30.2623 7.49511 28.5513 8.1748 27.5553 10.0146L24.2623 16.0029L21.4732 14.9834C20.0787 14.4794 18.9303 14.6435 17.8287 15.7919L12.5904 21.206C11.8638 21.956 11.9342 22.8935 12.4849 23.456Z" fill="#007AFF"/>
<path d="M0.214531 4.09669L3.40203 8.1631C3.54266 8.3506 3.76531 8.38576 3.96453 8.26857C4.72625 7.87013 5.81609 7.6006 6.67156 7.6006C7.53875 7.6006 8.62859 7.87013 9.36688 8.26857C9.58953 8.38576 9.81219 8.3506 9.94109 8.1631L13.1403 4.09669C13.4567 3.68654 13.3981 3.27638 13.0231 2.97169C11.7223 1.9756 9.26141 1.21388 6.67156 1.21388C4.09344 1.21388 1.6325 1.9756 0.343438 2.97169C-0.0550003 3.27638 -0.0901563 3.68654 0.214531 4.09669ZM3.51922 10.542C3.15594 10.0616 3.00359 9.61623 3.00359 9.13576C3.00359 8.03419 3.89422 7.75294 3.89422 7.10841C3.89422 6.45216 3.00359 6.18263 3.00359 5.04591C3.00359 4.57716 3.15594 4.13185 3.51922 3.6631C3.92938 3.17091 4.66766 3.69826 4.26922 4.21388C4.01141 4.57716 3.94109 4.77638 3.94109 5.04591C3.94109 5.84279 4.82 6.06544 4.82 7.10841C4.82 8.13966 3.94109 8.37404 3.94109 9.13576C3.94109 9.44044 4.01141 9.61623 4.26922 9.99123C4.65594 10.4952 3.92938 11.0342 3.51922 10.542ZM6.27313 10.542C5.93328 10.0616 5.76922 9.61623 5.76922 9.13576C5.76922 8.03419 6.65984 7.75294 6.65984 7.10841C6.65984 6.45216 5.76922 6.18263 5.76922 5.04591C5.76922 4.57716 5.92156 4.13185 6.27313 3.6631C6.68328 3.17091 7.43328 3.69826 7.04656 4.21388C6.77703 4.57716 6.70672 4.77638 6.70672 5.04591C6.70672 5.84279 7.59734 6.06544 7.59734 7.10841C7.59734 8.13966 6.70672 8.37404 6.70672 9.13576C6.70672 9.44044 6.77703 9.61623 7.03484 9.99123C7.42156 10.4952 6.68328 11.0342 6.27313 10.542ZM9.06219 10.542C8.69891 10.0616 8.53484 9.61623 8.53484 9.13576C8.53484 8.03419 9.43719 7.75294 9.43719 7.10841C9.43719 6.45216 8.53484 6.18263 8.53484 5.04591C8.53484 4.57716 8.68719 4.13185 9.07391 3.6631C9.47234 3.17091 10.1989 3.69826 9.81219 4.21388C9.55438 4.57716 9.47234 4.77638 9.47234 5.04591C9.47234 5.84279 10.3629 6.06544 10.3629 7.10841C10.3629 8.13966 9.47234 8.37404 9.47234 9.13576C9.47234 9.44044 9.55438 9.61623 9.80047 9.99123C10.1989 10.4952 9.46063 11.0342 9.06219 10.542ZM19.2575 10.378C19.7497 10.378 20.1247 10.0029 20.1247 9.51076V4.94044H22.0348C22.8669 4.94044 23.2419 4.09669 22.6794 3.4756L19.902 0.334976C19.5153 -0.0868989 19.0114 -0.0986179 18.6364 0.334976L15.859 3.4756C15.32 4.07326 15.6247 4.94044 16.5036 4.94044H18.402V9.51076C18.402 10.0029 18.7887 10.378 19.2575 10.378Z" fill="black" fill-opacity="0.85"/>
</svg>
