<svg width="21" height="29" viewBox="0 0 21 29" fill="none" xmlns="http://www.w3.org/2000/svg">
<path d="M10.188 5.14844C11.5942 5.14844 12.7427 3.98829 12.7427 2.58204C12.7427 1.17579 11.5942 0.015625 10.188 0.015625C8.78178 0.015625 7.62162 1.17579 7.62162 2.58204C7.62162 3.98829 8.78178 5.14844 10.188 5.14844ZM0.965373 14.1133C1.57475 14.2187 2.231 13.9258 2.38334 13.2109L3.37943 8.75782H5.14897C5.37162 8.75782 5.53568 8.94532 5.47709 9.16796L4.2935 13.7265C3.80131 15.5781 5.02006 17.4062 7.35209 16.8203L11.6528 15.7539L10.8208 19.9023C10.6919 20.5351 11.1138 21.1797 11.7466 21.3203C12.2974 21.4375 13.0122 21.0859 13.1646 20.3828L14.3599 14.3945C14.5357 13.5273 13.7974 12.8711 13.0708 12.9414L9.25053 13.3164L10.3755 9.05079C10.4224 8.875 10.6099 8.75782 10.7857 8.82812L15.1685 10.4922C15.9653 10.7968 16.7739 10.3398 16.7739 9.50782V3.97656C16.7739 3.32031 16.2466 2.78124 15.5669 2.78124C14.9107 2.78124 14.3716 3.32031 14.3716 3.97656V7.63281L12.1333 6.76562C11.4067 6.4961 10.6099 6.35546 9.81303 6.35546H2.40678C1.84428 6.35546 1.36381 6.7539 1.24662 7.29296L0.0513105 12.6836C-0.101034 13.3398 0.309123 13.9961 0.965373 14.1133ZM6.36772 28.5039C6.9185 28.6211 7.64506 28.2461 7.77397 27.5664L8.96928 21.5781C8.99272 21.4726 8.99272 21.3437 8.99272 21.2383V17.5937L7.62162 17.9218C7.09428 18.0625 6.60209 18.0976 6.14506 18.0625L6.59037 21.2851L5.43022 27.0742C5.30131 27.7304 5.71147 28.375 6.36772 28.5039ZM10.938 26.1484H18.7192C19.0825 26.1484 19.3755 25.8554 19.3755 25.4922C19.3755 25.1289 19.0825 24.8476 18.7192 24.8476H10.938C10.5747 24.8476 10.2817 25.1289 10.2817 25.4922C10.2817 25.8554 10.5747 26.1484 10.938 26.1484ZM9.731 28.7851H19.9028C20.2661 28.7851 20.5591 28.4922 20.5591 28.1289C20.5591 27.7656 20.2661 27.4844 19.9028 27.4844H9.731C9.36772 27.4844 9.08647 27.7656 9.08647 28.1289C9.08647 28.4922 9.36772 28.7851 9.731 28.7851Z" fill="black" fill-opacity="0.85"/>
</svg>
