<svg width="17" height="32" viewBox="0 0 17 32" fill="none" xmlns="http://www.w3.org/2000/svg">
<path d="M13.0427 8.28028C14.4489 8.28028 15.5856 7.13184 15.5856 5.70215C15.5856 4.30762 14.4489 3.15918 13.0427 3.15918C11.613 3.15918 10.4646 4.30762 10.4646 5.70215C10.4646 7.13184 11.613 8.28028 13.0427 8.28028ZM7.13647 31.4834C7.781 31.4834 8.32006 30.956 8.32006 30.2998V24.4521L11.0622 20.4091C11.1677 20.2451 11.4021 20.292 11.4255 20.5029L11.8474 24.1123C11.8708 24.3115 11.906 24.417 11.9997 24.6396L14.3083 30.7216C14.5896 31.4599 15.2692 31.6123 15.82 31.413C16.3708 31.2021 16.7927 30.6396 16.5114 29.8896L14.238 23.8427V12.6865C14.238 11.4326 13.7106 10.1318 12.5036 9.63965L11.7653 9.33496C10.406 8.77246 9.12865 8.93653 7.98022 9.75684L5.20287 11.7607L2.0974 10.4482L8.26147 1.90528H10.3122C10.8396 1.90528 11.2731 1.47168 11.2731 0.956055C11.2731 0.416992 10.8396 0.00683594 10.3122 0.00683594H8.36693C8.156 0.00683594 7.94506 0.100586 7.81615 0.276367L0.269276 10.7295C-0.140881 11.292 -0.0471311 12.1123 0.620838 12.3935L4.88647 14.2216C5.07397 14.292 5.20287 14.3037 5.4724 14.3037H8.29662C8.74193 14.3037 8.89428 14.5966 8.89428 14.9248V18.1709L6.07006 23.5263C5.96459 23.7256 5.94115 23.8779 5.94115 24.1006V30.2998C5.94115 30.956 6.4685 31.4834 7.13647 31.4834Z" fill="black" fill-opacity="0.85"/>
</svg>
