<svg width="24" height="24" viewBox="0 0 24 24" fill="none" xmlns="http://www.w3.org/2000/svg">
<path d="M11.9609 23.9116C18.5 23.9116 23.914 18.4859 23.914 11.9585C23.914 5.41943 18.4883 0.00537109 11.9492 0.00537109C5.42187 0.00537109 0.0078125 5.41943 0.0078125 11.9585C0.0078125 18.4859 5.43359 23.9116 11.9609 23.9116ZM11.9609 21.9195C6.42969 21.9195 2.01172 17.4898 2.01172 11.9585C2.01172 6.42725 6.41797 1.99756 11.9492 1.99756C17.4805 1.99756 21.9219 6.42725 21.9219 11.9585C21.9219 17.4898 17.4922 21.9195 11.9609 21.9195Z" fill="#007AFF"/>
<path d="M11.9734 7.95069C12.8641 7.95069 13.5672 7.23585 13.5672 6.35694C13.5672 5.46632 12.8641 4.75146 11.9734 4.75146C11.0945 4.75146 10.368 5.46632 10.368 6.35694C10.368 7.23585 11.0945 7.95069 11.9734 7.95069ZM11.9617 13.6343C12.1727 13.6343 12.3367 13.7632 12.407 14.0093L13.4969 18.1929C13.7313 19.1304 15.0203 18.8023 14.8914 17.9234C14.8328 17.5718 13.8953 14.0327 13.7664 13.2359C13.6609 12.6499 13.7078 11.1734 13.7078 10.5054C13.7078 10.3062 13.8719 10.2007 14.0711 10.2827L15.9344 11.0327C16.4266 11.232 16.7781 10.9859 16.8719 10.646C16.9774 10.3296 16.8367 9.94287 16.368 9.75537L14.3758 8.92334C13.907 8.74756 13.4969 8.63037 13.0281 8.57178C12.7117 8.73585 12.3484 8.81787 11.9617 8.81787C11.575 8.81787 11.2234 8.73585 10.8953 8.57178C10.4266 8.63037 10.0164 8.74756 9.54762 8.92334L7.55544 9.75537C7.0984 9.94287 6.94606 10.3296 7.06325 10.646C7.157 10.9859 7.50856 11.232 8.00075 11.0327L9.85231 10.2827C10.0516 10.2007 10.2274 10.3062 10.2274 10.5054C10.2274 11.1734 10.2625 12.6499 10.1688 13.2359C10.0281 14.0327 9.09059 17.5718 9.032 17.9234C8.90309 18.8023 10.1922 19.1304 10.4266 18.1929L11.5164 14.0093C11.5867 13.7632 11.7508 13.6343 11.9617 13.6343Z" fill="black" fill-opacity="0.85"/>
</svg>
