<svg width="31" height="28" viewBox="0 0 31 28" fill="none" xmlns="http://www.w3.org/2000/svg">
<path d="M8.78516 24.808H19.5078C21.2305 24.808 22.1445 23.8705 22.1445 22.0189V13.9447C22.1445 12.1049 21.2305 11.1674 19.5078 11.1674H8.78516C7.0625 11.1674 6.14844 12.1049 6.14844 13.9447V22.0189C6.14844 23.8705 7.0625 24.808 8.78516 24.808ZM18.3711 12.0814H20.2227V8.13219C20.2227 5.16735 22.1211 3.60876 24.3125 3.60876C26.5039 3.60876 28.4023 5.16735 28.4023 8.13219V10.7338C28.4023 11.4252 28.8125 11.7767 29.3398 11.7767C29.8438 11.7767 30.2656 11.4603 30.2656 10.7338V8.37829C30.2656 3.97204 27.3828 1.83923 24.3125 1.83923C21.2422 1.83923 18.3711 3.97204 18.3711 8.37829V12.0814Z" fill="#007AFF"/>
<path d="M0.101366 16.2885C0.488084 17.601 1.88262 18.351 3.38262 17.7767L3.88652 17.5775C3.88652 18.0463 3.8748 18.4096 3.80449 18.7025L2.55058 23.9877C1.73027 27.3861 6.42949 28.5697 7.27324 25.3705H7.88262C8.72637 28.5697 13.449 27.3744 12.617 23.9877L11.3279 18.7025C11.2693 18.4096 11.2811 18.0463 11.2811 17.5775L11.7732 17.7767C13.2732 18.351 14.6795 17.601 15.0545 16.2885C15.4178 15.1049 14.8436 13.8158 13.5193 13.2767L10.7654 12.14C10.9881 11.683 11.117 11.1791 11.117 10.64C11.117 8.6947 9.5584 7.10095 7.58965 7.10095C5.65605 7.10095 4.05058 8.68299 4.05058 10.64C4.05058 11.1791 4.19121 11.683 4.41387 12.1283L1.64824 13.2767C0.324022 13.8275 -0.250197 15.1049 0.101366 16.2885Z" fill="white"/>
<path d="M7.58909 12.5619C8.66721 12.5619 9.51096 11.7064 9.51096 10.64C9.51096 9.57361 8.66721 8.70642 7.58909 8.70642C6.5344 8.70642 5.65549 9.57361 5.65549 10.64C5.65549 11.7064 6.5344 12.5619 7.58909 12.5619ZM7.57737 19.4525C7.83518 19.4525 8.04612 19.6049 8.11643 19.8978L9.42893 24.9721C9.73362 26.0971 11.2805 25.6986 11.1164 24.6322C11.0461 24.2103 9.92112 19.9213 9.75706 18.9603C9.63987 18.2572 9.68674 16.4642 9.68674 15.6557C9.68674 15.433 9.88596 15.2807 10.132 15.3861L12.3703 16.2885C12.9797 16.5346 13.4015 16.2416 13.5187 15.8432C13.6476 15.4447 13.4719 14.976 12.9094 14.7533L10.4953 13.7572C9.93284 13.5228 9.42893 13.4057 8.86643 13.3236C8.47971 13.5111 8.04612 13.6283 7.57737 13.6283C7.10862 13.6283 6.68674 13.5111 6.28831 13.3236C5.72581 13.4057 5.2219 13.5228 4.6594 13.7572L2.24534 14.7533C1.69456 14.976 1.51877 15.4447 1.64768 15.8432C1.75315 16.2416 2.17502 16.5346 2.7844 16.2885L5.0344 15.3861C5.26877 15.2807 5.46799 15.433 5.46799 15.6557C5.46799 16.4642 5.52659 18.2572 5.4094 18.9603C5.24534 19.9213 4.10862 24.2103 4.03831 24.6322C3.87424 25.6986 5.43284 26.0971 5.72581 24.9721L7.03831 19.8978C7.12034 19.6049 7.31956 19.4525 7.57737 19.4525Z" fill="black" fill-opacity="0.85"/>
</svg>
