<svg width="23" height="27" viewBox="0 0 23 27" fill="none" xmlns="http://www.w3.org/2000/svg">
<path d="M0 25.0195C0 25.5586 0.445312 25.9922 0.972656 25.9922C1.51172 25.9922 1.95703 25.5586 1.95703 25.0195V0.972656C1.95703 0.433594 1.51172 0 0.972656 0C0.445312 0 0 0.433594 0 0.972656V25.0195Z" fill="#007AFF"/>
<path d="M20.8594 25.3242L17.3438 21.1289C16.9922 20.7188 16.9453 20.625 16.8047 20.1914L16.5469 19.3945L18.4336 17.0273L18.9961 19.6758L22.4766 23.8008C23.5781 25.125 21.7734 26.4141 20.8594 25.3242ZM12.2812 24.9727C11.5664 26.4375 9.39844 25.5352 10.1836 23.9414L12.5742 19.1016C12.7617 18.7383 13.0195 18.3398 13.2422 18.0234L14.7539 15.8789L14.6484 15.5625C14.2383 14.3438 14.0859 13.6172 14.0039 12.4102L13.7695 9.02344C13.6523 7.41797 14.6016 6.19922 16.2422 6.19922C17.4844 6.19922 18.3164 6.82031 19.4531 7.93359L21.2461 9.70312C21.832 10.2773 22.0195 10.7461 22.0781 11.5078L22.3008 14.2734C22.3594 14.9766 21.9727 15.4688 21.3164 15.4922C20.6602 15.5391 20.2617 15.1523 20.2031 14.4023L19.9453 11.3672L19.0781 10.5938C18.7734 10.3125 18.3633 10.5 18.3867 10.8164L18.5742 13.3828C18.6797 14.6836 18.375 15.3047 17.4727 16.418L15.1055 19.3945C14.8594 19.6992 14.8359 19.8164 14.7305 20.0039L12.2812 24.9727ZM8.21484 10.7695H10.9102L12.6211 8.88281L12.8203 11.707L12.1406 12.3867C11.7656 12.7617 11.4258 12.8789 10.7344 12.8789H8.21484C7.5 12.8789 7.04297 12.4805 7.04297 11.8242C7.04297 11.1914 7.51172 10.7695 8.21484 10.7695ZM14.9414 5.14453C13.5234 5.14453 12.3867 3.99609 12.3867 2.58984C12.3867 1.17188 13.5234 0.0351562 14.9414 0.0351562C16.3594 0.0351562 17.4961 1.17188 17.4961 2.58984C17.4961 3.99609 16.3594 5.14453 14.9414 5.14453Z" fill="black" fill-opacity="0.85"/>
</svg>
