<svg width="29" height="29" viewBox="0 0 29 29" fill="none" xmlns="http://www.w3.org/2000/svg">
<path d="M11.789 5.37163C13.1953 5.37163 14.332 4.23491 14.332 2.81694C14.332 1.41069 13.1953 0.273968 11.789 0.273968C10.3594 0.273968 9.22266 1.41069 9.22266 2.81694C9.22266 4.23491 10.3594 5.37163 11.789 5.37163ZM12.5625 16.3755L19.0078 18.3677L25.1719 21.1685C26.7656 21.8833 27.7031 19.645 26.2031 18.9536L15.5859 14.1606V8.46538C15.5859 7.99663 15.7031 7.93803 16.0429 7.80913L19.2422 6.50835C19.6406 6.34428 19.6758 6.25053 19.875 6.01616L23.2383 2.11382C23.6836 1.59819 23.6015 0.836468 23.0976 0.414593C22.5937 -0.0190004 21.8203 0.0513121 21.3984 0.555218L18.1875 4.2935L3.41016 10.3286C2.98828 10.4927 2.71875 10.6685 2.54297 10.8442H8.56641L10.3828 10.1177C10.7461 9.9771 10.875 10.106 10.875 10.3286V14.0552C10.875 15.2856 11.4375 16.0356 12.5625 16.3755ZM11.4961 26.5942C11.2265 27.52 11.9648 28.0942 12.6797 28.0942C13.1719 28.0942 13.6758 27.8247 13.8281 27.2271L15.5508 20.9927C15.5742 20.8755 15.5859 20.7583 15.5859 20.6646V18.4614L12.7851 17.606L13.1484 20.5942L11.4961 26.5942ZM0.667969 13.3169H9.71484V12.0161H0.667969C0.292969 12.0161 0.0117188 12.2974 0.0117188 12.6606C0.0117188 13.0239 0.292969 13.3169 0.667969 13.3169ZM27.375 13.3169C27.7383 13.3169 28.0195 13.0239 28.0195 12.6606C28.0195 12.2974 27.7383 12.0161 27.375 12.0161H16.7578V12.895V13.3169H27.375Z" fill="black" fill-opacity="0.85"/>
</svg>
