<svg width="27" height="26" viewBox="0 0 27 26" fill="none" xmlns="http://www.w3.org/2000/svg">
<path d="M14.8242 5.12109C16.2305 5.12109 17.3789 3.96094 17.3789 2.55469C17.3789 1.14844 16.2305 0 14.8242 0C13.418 0 12.2578 1.14844 12.2578 2.55469C12.2578 3.96094 13.418 5.12109 14.8242 5.12109ZM18.1172 25.4297C18.6211 25.2305 19.0078 24.7148 18.8086 24L17.0391 17.8242C16.9453 17.5312 16.7812 17.2969 16.5 17.1328L12.8086 14.9648L14.5664 9.75C14.6953 9.35156 15.1172 9.30469 15.4102 9.59766L18.0234 12.1992C18.2578 12.4219 18.5391 12.5508 18.8438 12.5508C19.1602 12.5508 19.4531 12.4453 19.6875 12.1992L23.2148 8.66016C23.6602 8.19141 23.6953 7.47656 23.2148 7.00781C22.7578 6.55078 22.0195 6.53906 21.5508 7.00781L18.8438 9.71484L16.582 7.37109C15.5391 6.29297 14.4258 6.07031 12.2578 6.07031H1.18359C0.539062 6.07031 0 6.59766 0 7.25391C0 7.89844 0.539062 8.42578 1.18359 8.42578H9.41016C9.75 8.42578 10.0664 8.70703 9.90234 9.17578L8.53125 13.2891C8.05078 14.7422 8.73047 16.3008 10.1367 16.9102L14.9062 19.0078L16.5469 24.6094C16.7812 25.4414 17.5312 25.6406 18.1172 25.4297ZM3.16406 25.0195C3.46875 25.4648 4.06641 25.6992 4.72266 25.3477L9.98438 22.4297C10.2422 22.2891 10.4297 22.0547 10.5352 21.75L11.543 18.7617L9.69141 17.9531C9.46875 17.8477 9.25781 17.7422 9.04688 17.6016L8.40234 20.6016L3.58594 23.2969C2.83594 23.7305 2.8125 24.5156 3.16406 25.0195ZM19.4297 15.1875H26.6602V13.8867H19.4297C19.0664 13.8867 18.7852 14.168 18.7852 14.5312C18.7852 14.8945 19.0664 15.1875 19.4297 15.1875ZM1.61719 6.52734H2.80078V4.875H1.61719V6.52734ZM2.21484 0.410156C0.984375 0.410156 0 1.39453 0 2.63672C0 3.76172 0.984375 5.10938 2.21484 5.39062C3.44531 5.10938 4.41797 3.76172 4.41797 2.63672C4.41797 1.39453 3.44531 0.410156 2.21484 0.410156Z" fill="black" fill-opacity="0.85"/>
</svg>
