<svg width="23" height="24" viewBox="0 0 23 24" fill="none" xmlns="http://www.w3.org/2000/svg">
<path d="M19.3239 6.42872C21.0817 6.42872 22.4762 4.96387 22.4762 3.26465C22.4762 1.49512 21.0817 0.0654297 19.3239 0.0654297C17.5543 0.0654297 16.1364 1.49512 16.1364 3.26465C16.1364 5.01075 17.5543 6.42872 19.3239 6.42872ZM0.444913 23.1982C1.04257 23.8311 2.08554 23.7842 2.83554 23.0107L7.8746 17.8076C8.03866 17.6318 8.16757 17.585 8.42538 17.6904L12.3629 19.1787C14.8942 20.1514 17.2731 19.3193 18.3864 17.3037L20.9176 12.6982C21.902 10.9053 21.5856 9.05372 19.8746 8.13965C18.2223 7.23731 16.5114 7.917 15.5035 9.75683L12.2223 15.7451L9.42147 14.7256C8.03866 14.2217 6.89022 14.3857 5.78866 15.5342L0.550382 20.9482C-0.187899 21.6982 -0.117587 22.6357 0.444913 23.1982Z" fill="#007AFF"/>
<path d="M4.20708 12.0068C4.75786 12.0068 5.19146 11.5732 5.19146 11.0107V5.6084H7.32427C8.32036 5.6084 8.66021 4.61231 8.05083 3.93262L4.91021 0.381836C4.46489 -0.110352 3.89067 -0.110352 3.4688 0.381836L0.316457 3.93262C-0.328074 4.64747 0.0938013 5.6084 1.05474 5.6084H3.19927V11.0107C3.19927 11.5732 3.64458 12.0068 4.20708 12.0068Z" fill="black" fill-opacity="0.85"/>
</svg>
