<svg width="23" height="29" viewBox="0 0 23 29" fill="none" xmlns="http://www.w3.org/2000/svg">
<path d="M9.80951 6.70042C11.2275 6.70042 12.3759 5.55198 12.3759 4.15745C12.3759 2.7512 11.2275 1.60276 9.80951 1.60276C8.40326 1.60276 7.26654 2.7512 7.26654 4.15745C7.26654 5.55198 8.40326 6.70042 9.80951 6.70042ZM18.8915 7.93089H5.59076L5.95404 8.21214C6.52826 8.0012 6.75092 7.45042 6.62201 6.96995C6.46967 6.43089 5.95404 5.98558 5.08685 6.1848L1.62982 6.98167C-0.596739 7.4973 -0.538145 10.3567 1.78217 10.3567H5.5556C5.89545 10.3567 6.16498 10.6379 6.16498 10.9778V15.9231L2.54389 19.5207C2.0517 20.0129 1.72357 20.5168 1.52435 21.2785L0.153261 26.4231C-0.0811138 27.302 0.434511 27.8528 1.04389 27.9465C1.62982 28.052 2.27435 27.7707 2.47357 27.0442L3.77435 22.216C3.90326 21.759 3.99701 21.5715 4.34857 21.2785L7.18451 18.8528C7.75873 18.384 8.73139 18.466 9.12982 19.1575L10.8525 22.1575L13.5829 27.302C13.9814 28.0637 14.8369 28.1457 15.3876 27.7942C15.8681 27.4778 16.0673 26.8332 15.7158 26.177L12.9736 20.9504L11.415 17.3996C11.1572 16.802 11.0165 16.1457 11.0165 15.466V10.9778C11.0165 10.6379 11.2861 10.3567 11.6376 10.3567H18.8915C19.5712 10.3567 20.1103 9.81761 20.1103 9.16136C20.1103 8.48167 19.5712 7.93089 18.8915 7.93089ZM21.3408 9.16136C21.3408 11.7395 20.8369 14.1535 19.5712 17.3762C19.4306 17.7512 19.5829 18.1262 19.9111 18.2668C20.2626 18.4075 20.6142 18.2785 20.79 17.927C22.1376 14.9621 22.6767 12.4192 22.6767 9.16136C22.6767 6.00901 22.1376 3.45433 20.7783 0.395733C20.6142 0.0441703 20.2626 -0.084736 19.9111 0.055889C19.5712 0.196514 19.4306 0.571514 19.5712 0.946514C20.8369 4.19261 21.3408 6.59495 21.3408 9.16136Z" fill="black" fill-opacity="0.85"/>
</svg>
