<svg width="12" height="27" viewBox="0 0 12 27" fill="none" xmlns="http://www.w3.org/2000/svg">
<path d="M0.015625 15.8125C0.015625 16.3984 0.472656 16.8554 1.05859 16.8554C1.63281 16.8554 2.08984 16.3984 2.08984 15.8125V11.3008C2.08984 11.0898 2.26562 10.9258 2.47656 10.9258C2.6875 10.9258 2.85156 11.0898 2.85156 11.3008V24.9648C2.85156 25.5976 3.36719 26.1015 4.00001 26.1015C4.63281 26.1015 5.14844 25.5976 5.14844 24.9648V16.6562C5.14844 16.4453 5.32421 16.2578 5.53515 16.2578C5.74609 16.2578 5.9336 16.4453 5.9336 16.6562V24.9648C5.9336 25.5976 6.4375 26.1015 7.07031 26.1015C7.70312 26.1015 8.21875 25.5976 8.21875 24.9648V11.3008C8.21875 11.0898 8.38282 10.9258 8.59375 10.9258C8.80469 10.9258 8.98046 11.0898 8.98046 11.3008V15.8125C8.98046 16.3984 9.4375 16.8554 10.0117 16.8554C10.5976 16.8554 11.0547 16.3984 11.0547 15.8125V10.7734C11.0547 8.1836 9.15624 6.47265 6.3789 6.47265H4.6914C1.91406 6.47265 0.015625 8.1836 0.015625 10.7734V15.8125ZM5.53515 5.125C6.95312 5.125 8.08984 3.98828 8.08984 2.57031C8.08984 1.15234 6.95312 0.015625 5.53515 0.015625C4.11718 0.015625 2.98046 1.15234 2.98046 2.57031C2.98046 3.98828 4.11718 5.125 5.53515 5.125Z" fill="black" fill-opacity="0.85"/>
</svg>
