<svg width="25" height="32" viewBox="0 0 25 32" fill="none" xmlns="http://www.w3.org/2000/svg">
<path d="M8.42578 13.5464H15.9258C16.9687 13.5464 17.5781 12.9604 17.5781 11.9292V3.53857C17.5781 2.50732 16.9687 1.92139 15.9258 1.92139H8.42578C7.38281 1.92139 6.77344 2.50732 6.77344 3.53857V11.9292C6.77344 12.9604 7.38281 13.5464 8.42578 13.5464Z" fill="#FFCC00"/>
<path d="M6.64453 22.0424H17.7187C20.0508 22.0424 21.5859 20.519 21.5859 18.1987V7.25342C21.5859 4.93311 20.0508 3.42139 17.7187 3.42139H6.64453C4.31249 3.42139 2.76562 4.93311 2.76562 7.25342V18.1987C2.76562 20.519 4.31249 22.0424 6.64453 22.0424Z" fill="white"/>
<path d="M6.51562 20.4487H17.8476C19.2187 20.4487 19.9922 19.6753 19.9922 18.3276V7.12451C19.9922 5.77685 19.2187 5.01514 17.8476 5.01514H6.51562C5.14453 5.01514 4.35938 5.77685 4.35938 7.12451V18.3276C4.35938 19.6753 5.14453 20.4487 6.51562 20.4487Z" fill="#FFCC00"/>
<path d="M5.57813 31.0073H18.7734C22.2656 31.0073 24.3398 28.9565 24.3398 25.4878V12.1987C24.3398 8.72998 22.2656 6.6792 18.7734 6.6792H5.57813C2.08594 6.6792 0.0117188 8.71826 0.0117188 12.1987V25.4878C0.0117188 28.9565 2.08594 31.0073 5.57813 31.0073Z" fill="white"/>
<path d="M5.57813 29.1206H18.7734C21.2226 29.1206 22.4531 27.9018 22.4531 25.4878V12.1987C22.4531 9.78467 21.2226 8.56592 18.7734 8.56592H5.57813C3.12891 8.56592 1.89844 9.77295 1.89844 12.1987V25.4878C1.89844 27.9018 3.12891 29.1206 5.57813 29.1206Z" fill="#FFCC00"/>
<path d="M14.179 14.1089C13.3118 14.1089 12.6087 13.4174 12.6087 12.5385C12.6087 11.6714 13.3118 10.9565 14.179 10.9565C15.0462 10.9565 15.7493 11.6714 15.7493 12.5385C15.7493 13.4174 15.0462 14.1089 14.179 14.1089ZM11.718 20.3784C11.0969 20.0268 10.3118 19.6987 10.6633 18.4917L11.2376 16.4292C11.3079 16.1362 11.1087 15.9839 10.8743 16.0073L9.86651 16.0776L9.5501 18.1753C9.49151 18.6089 9.23371 18.855 8.83526 18.8081C8.4251 18.7729 8.21416 18.4682 8.27276 18.0112L8.60089 15.4448C8.65949 15.0346 8.94074 14.7651 9.33917 14.73L11.8821 14.5542C13.1946 14.4604 14.0032 14.812 14.6594 15.726L15.8899 17.4487L17.718 16.6401C18.1165 16.4643 18.468 16.5698 18.6438 16.9331C18.8196 17.3081 18.679 17.6596 18.2688 17.8354L15.9837 18.855C15.679 18.9839 15.3274 18.8901 15.1399 18.6089L14.343 17.4487C14.1907 17.226 13.8743 17.2612 13.804 17.5424L13.2766 19.394L15.9837 21.1635C16.3821 21.4448 16.4407 22.0542 16.1008 22.3471L13.6165 24.4682C13.218 24.8081 12.7962 24.7495 12.5501 24.48C12.3157 24.2221 12.3157 23.8003 12.7024 23.4604L14.4719 21.937L11.718 20.3784ZM6.88996 26.6245C6.59699 26.3667 6.52667 25.8862 6.91339 25.5229L9.32746 23.1089L10.1829 20.062C10.4407 20.3901 10.8274 20.6948 11.3899 20.9995L11.6126 21.1167L10.6399 23.6596C10.511 23.9643 10.4641 23.9995 10.2766 24.2104L7.94464 26.519C7.56964 26.8706 7.17121 26.8471 6.88996 26.6245Z" fill="black" fill-opacity="0.85"/>
</svg>
