<svg width="27" height="27" viewBox="0 0 27 27" fill="none" xmlns="http://www.w3.org/2000/svg">
<path d="M1.31406 15.8805L10.7008 25.2672C12.4352 27.0016 14.1461 27.0133 15.8687 25.3023L25.3023 15.857C27.0133 14.1461 27.0016 12.4234 25.2672 10.6891L15.8922 1.31406C14.1578 -0.420317 12.4469 -0.443755 10.7242 1.2789L1.2789 10.7125C-0.443755 12.4352 -0.420317 14.1461 1.31406 15.8805Z" fill="#FFCC00"/>
<path d="M16.1738 20.7554C15.8574 20.7554 15.6231 20.603 15.4824 20.2866L13.9121 17.1108C13.8301 16.9702 13.7949 16.8999 13.666 16.7476L12.2363 14.9546C11.8379 14.4507 11.4629 13.8765 11.5215 13.0679L11.6387 11.4507C11.6621 11.2046 11.416 11.064 11.2285 11.2397L10.5254 11.8608L10.3848 13.6538C10.3496 14.1226 10.0684 14.3686 9.66992 14.3452C9.24804 14.3101 9.00195 14.0171 9.0371 13.5601L9.17773 11.9194C9.2246 11.4624 9.34179 11.1694 9.69335 10.8296L10.8301 9.72803C11.5566 9.02491 12.2363 8.64991 12.9863 8.64991C14.0645 8.64991 14.6973 9.38819 14.6152 10.5015L14.4863 12.4702C14.4395 13.1851 14.2754 13.6655 14.0527 14.4272L13.9707 14.6733L14.8613 15.9272C14.9902 16.0913 15.1426 16.314 15.2715 16.6186L16.7363 19.5835C16.8301 19.771 16.877 19.9233 16.877 20.0874C16.877 20.4741 16.5723 20.7554 16.1738 20.7554ZM9.4707 20.7671C9.08398 20.7671 8.83789 20.4976 8.83789 20.1108C8.83789 19.853 8.96679 19.6772 9.14257 19.4663L11.2402 16.9819L11.5801 15.353L12.7168 16.7944L12.5996 17.2866C12.541 17.5327 12.5293 17.5327 12.2832 17.8374L10.0215 20.521C9.88085 20.6851 9.68164 20.7671 9.4707 20.7671ZM16.5723 12.8335C16.1621 12.8335 15.9629 12.7632 15.7402 12.5288L15.2481 12.0366L15.3652 10.3022L16.4434 11.4976H18.3184C18.7871 11.4976 19.0801 11.7554 19.0801 12.1655C19.0801 12.5757 18.7988 12.8335 18.3184 12.8335H16.5723ZM13.9238 7.93506C13.0918 7.93506 12.4004 7.23194 12.4004 6.39991C12.4004 5.54444 13.0801 4.85303 13.9238 4.85303C14.7793 4.85303 15.4707 5.54444 15.4707 6.39991C15.4707 7.22022 14.7559 7.93506 13.9238 7.93506Z" fill="black" fill-opacity="0.85"/>
</svg>
