<svg width="30" height="23" viewBox="0 0 30 23" fill="none" xmlns="http://www.w3.org/2000/svg">
<path d="M14.8536 17.9043C15.4981 17.9043 16.0254 17.377 16.0254 16.7325V10.8379C16.0254 10.5567 15.92 10.2989 15.6973 10.041L12.627 6.61915C12.4395 6.40821 12.5684 6.0918 12.8614 6.0918H16.6231C17.0801 6.0918 17.2207 6.41993 17.2207 6.73633V9.6543C17.2207 10.2989 17.7481 10.8145 18.3926 10.8145H23.1153C23.7598 10.8145 24.2754 10.2989 24.2754 9.6543C24.2754 9.00977 23.7598 8.48243 23.1153 8.48243H19.5645V4.33399C19.5645 3.02149 18.5215 1.97852 17.209 1.97852H11.4551C10.2598 1.97852 9.20508 2.70508 8.73633 3.79493C8.2793 4.90821 8.53711 6.15039 9.38086 7.00586L13.6817 11.3301V16.7325C13.6817 17.377 14.209 17.9043 14.8536 17.9043ZM6.36914 22.5215C9.9082 22.5215 12.7442 19.6856 12.7442 16.1465C12.7442 12.6192 9.9082 9.77149 6.36914 9.77149C2.8418 9.77149 0.00585938 12.6192 0.00585938 16.1465C0.00585938 19.6856 2.8418 22.5215 6.36914 22.5215ZM6.36914 20.8692C3.7793 20.8692 1.6582 18.7481 1.6582 16.1465C1.6582 13.545 3.7793 11.4239 6.36914 11.4239C8.9707 11.4239 11.0918 13.545 11.0918 16.1465C11.0918 18.7481 8.9707 20.8692 6.36914 20.8692ZM26.4668 12.6426C27.4161 13.4981 28.0371 14.752 28.0371 16.1465C28.0371 18.7481 25.9161 20.8692 23.3262 20.8692C20.7247 20.8692 18.6036 18.7481 18.6036 16.1465C18.6036 15.4903 18.7325 14.8457 18.9786 14.2832C19.2481 13.6504 18.9786 13.2051 18.5684 13.0645C18.1817 12.9121 17.7247 13.041 17.5137 13.545C17.1504 14.3536 16.9512 15.2207 16.9512 16.1465C16.9512 19.6856 19.7871 22.5215 23.3262 22.5215C26.8536 22.5215 29.6895 19.6856 29.6895 16.1465C29.6895 14.2246 28.8575 12.5371 27.5098 11.3536C27.0762 10.9786 26.584 11.0723 26.2911 11.3887C26.0098 11.7051 25.9629 12.1973 26.4668 12.6426ZM23.3262 5.13086C24.7325 5.13086 25.8692 3.98243 25.8692 2.56446C25.8692 1.15821 24.7325 0.00976562 23.3262 0.00976562C21.8965 0.00976562 20.7481 1.15821 20.7481 2.56446C20.7481 3.98243 21.8965 5.13086 23.3262 5.13086Z" fill="black" fill-opacity="0.85"/>
</svg>
