<svg width="24" height="24" viewBox="0 0 24 24" fill="none" xmlns="http://www.w3.org/2000/svg">
<path d="M11.9687 23.913C18.5078 23.913 23.9218 18.4873 23.9218 11.9599C23.9218 5.4209 18.4961 0.00683594 11.957 0.00683594C5.42968 0.00683594 0.015625 5.4209 0.015625 11.9599C0.015625 18.4873 5.44141 23.913 11.9687 23.913Z" fill="#FFCC00"/>
<path d="M5.02019 11.5616C4.94987 11.1163 5.13737 10.7881 5.60612 10.5655L6.44987 10.1553C8.44206 9.21783 9.98893 8.53814 11.0905 8.10455L12.1218 7.68267L12.8601 5.15142C13.153 4.12017 14.5827 4.51861 14.278 5.56158L13.4694 8.3272C13.364 8.7022 13.0007 8.81939 12.6843 8.97173L11.4772 9.52251C11.3718 9.58111 11.3366 9.6397 11.3835 9.74517L12.7897 12.628C12.8601 12.7569 13.0007 12.7921 13.153 12.71L14.7819 11.7257C15.1686 11.4913 15.5554 11.4796 15.9772 11.6671L19.4108 13.2374C20.5593 13.7764 19.7507 15.2178 18.8132 14.7725L15.614 13.2491L13.2468 14.6319C13.0944 14.7139 13.0944 14.8897 13.2233 14.9835L16.7507 17.6905C17.6882 18.4053 16.7038 19.6358 15.8366 19.003L11.196 15.6163C10.8561 15.3585 10.4811 15.0772 10.0358 14.21L8.55924 11.2803C8.51236 11.1631 8.43034 11.128 8.28972 11.1749L6.60222 11.8428L6.9655 14.1631C7.11784 15.2178 5.67644 15.4639 5.51237 14.3975L5.02019 11.5616ZM8.16081 8.50298C7.24675 8.50298 6.49675 7.75298 6.49675 6.8272C6.49675 5.86627 7.23503 5.10455 8.16081 5.10455C9.11003 5.10455 9.87175 5.86627 9.87175 6.8272C9.87175 7.74127 9.09831 8.50298 8.16081 8.50298Z" fill="black" fill-opacity="0.85"/>
</svg>
