<svg width="26" height="28" viewBox="0 0 26 28" fill="none" xmlns="http://www.w3.org/2000/svg">
<path d="M11.7473 5.11377C13.1536 5.11377 14.2903 3.97705 14.2903 2.54736C14.2903 1.14111 13.1536 0.00439453 11.7473 0.00439453C10.3176 0.00439453 9.18093 1.14111 9.18093 2.54736C9.18093 3.97705 10.3176 5.11377 11.7473 5.11377ZM0.954369 26.6177C1.39968 27.0513 2.13796 27.1333 2.65358 26.6177L7.7864 21.4966C8.10281 21.1919 8.16139 20.9458 8.12624 20.4888L7.83327 17.1841C7.80983 16.9732 8.00906 16.8794 8.14968 17.0083L11.8293 20.1724L13.7395 26.1138C13.9622 26.8052 14.6653 27.0747 15.2629 26.8989C15.9426 26.6997 16.259 26.02 16.0481 25.3755L14.0676 19.1177C14.009 18.9419 13.9036 18.7427 13.7629 18.6138L9.80202 14.6997L12.345 9.61377C12.4504 9.40283 12.7082 9.35595 12.884 9.53173L15.7317 12.4028C15.8606 12.5317 16.0481 12.6372 16.2356 12.6958L21.9426 14.4067C22.4114 14.5474 23.1965 14.3599 23.4426 13.5747C23.6301 12.9419 23.2668 12.2505 22.6223 12.063L17.22 10.4692L14.1379 7.35205C13.4348 6.64892 12.6262 6.34423 11.6653 6.34423H3.50905C3.0403 6.34423 2.63014 6.60205 2.43093 7.0122L0.145775 11.5591C-0.147194 12.145 0.0637435 12.8833 0.684837 13.1763C1.30593 13.4692 2.00906 13.2466 2.31375 12.6255L4.24733 8.77001H6.6614C6.93093 8.77001 7.095 9.02783 6.96608 9.28564L5.19656 12.8364C4.56375 14.0903 4.38796 15.5552 4.73952 16.938L5.58327 20.2544L0.930931 24.8833C0.462181 25.3403 0.4739 26.1372 0.954369 26.6177ZM22.2825 21.2856C23.8293 21.2856 25.0715 20.0317 25.0715 18.4966C25.0715 16.9614 23.8293 15.7192 22.2825 15.7192C20.7473 15.7192 19.5051 16.9614 19.5051 18.4966C19.5051 20.0317 20.7473 21.2856 22.2825 21.2856Z" fill="black" fill-opacity="0.85"/>
</svg>
