<svg width="23" height="28" viewBox="0 0 23 28" fill="none" xmlns="http://www.w3.org/2000/svg">
<path d="M11.3497 8.92281C12.7676 8.92281 13.9161 7.77437 13.9161 6.3564C13.9161 4.93844 12.7676 3.80172 11.3497 3.80172C9.93164 3.80172 8.79492 4.93844 8.79492 6.3564C8.79492 7.77437 9.93164 8.92281 11.3497 8.92281ZM21.709 27.8955C22.3653 27.8955 22.8926 27.3564 22.8926 26.7119V20.7705C22.8926 20.3486 22.67 20.0322 22.3653 19.7744L17.7598 15.9775L16.8457 11.0322C16.7637 10.5283 16.8223 10.0361 17.0684 9.5439L20.9473 1.79781C21.2403 1.21187 20.9942 0.497026 20.4082 0.204057C19.8223 -0.0889121 19.1075 0.145463 18.8145 0.719682L15.0059 8.36031C14.7364 8.89937 14.3497 9.25094 13.7754 9.48531L7.06055 12.2744L4.35352 10.1064C4.1543 9.95406 3.91992 9.89547 3.7207 9.89547V6.67281H2.41992V10.9854C2.41992 11.3838 2.53711 11.7236 2.8418 11.9697L6.14648 14.5947C6.55664 14.9111 7.00195 14.8877 7.51758 14.6768L11.1856 13.1416C11.7012 12.9189 11.959 13.2119 12.0176 13.5635L13.834 23.583L8.79492 25.5986C8.19727 25.833 7.89258 26.5244 8.12695 27.1455C8.4082 27.8369 9.08789 28.0244 9.67383 27.79L15.6153 25.4228C16.1309 25.2119 16.4004 24.708 16.3653 24.1689L16.0254 19.5518C15.9903 19.0361 16.5528 18.7432 16.9512 19.0127L20.5254 21.4033V26.7119C20.5254 27.3564 21.0411 27.8955 21.709 27.8955ZM3.07617 0.438432C1.35352 0.438432 0.00585938 1.79781 0.00585938 3.53218C0.00585938 5.1025 1.3418 6.83687 3.07617 7.42281C4.81055 6.83687 6.13477 5.1025 6.13477 3.53218C6.13477 1.79781 4.78711 0.438432 3.07617 0.438432ZM3.07617 1.73922C4.06055 1.73922 4.83398 2.53609 4.83398 3.56734C4.83398 4.57515 4.0957 5.665 3.07617 6.01656C2.05664 5.665 1.30664 4.57515 1.30664 3.56734C1.30664 2.53609 2.08008 1.73922 3.07617 1.73922Z" fill="black" fill-opacity="0.85"/>
</svg>
