<svg width="27" height="25" viewBox="0 0 27 25" fill="none" xmlns="http://www.w3.org/2000/svg">
<path d="M19.9219 5.10938C21.3164 5.10938 22.4531 3.97266 22.4531 2.54297C22.4531 1.13672 21.3164 0 19.9219 0C18.4922 0 17.3555 1.13672 17.3555 2.54297C17.3555 3.97266 18.4922 5.10938 19.9219 5.10938ZM13.9805 24.0586H16.3594V16.4531C16.3594 16.2188 16.2891 15.9492 16.125 15.7383L13.5234 12.2344L16.8281 8.91797C17.0508 8.68359 17.3789 8.68359 17.6016 8.91797L20.7422 12.082C20.9531 12.3164 21.2812 12.4102 21.5859 12.4102C21.8906 12.4102 22.1953 12.293 22.418 12.082L25.9336 8.56641C26.1797 8.32031 26.2852 8.01562 26.2852 7.72266C26.2852 6.67969 24.9961 6.11719 24.2344 6.87891L21.5859 9.52734L17.1094 5.08594C16.5352 4.52344 15.9609 4.20703 15.0469 4.20703H10.0664C9.63281 4.20703 9.32812 4.32422 9.01172 4.62891L5.60156 8.03906C4.82812 8.8125 5.40234 10.0898 6.43359 10.0898C6.72656 10.0898 7.03125 9.96094 7.26562 9.72656L10.418 6.58594H12.5039C12.6797 6.58594 12.75 6.75 12.6094 6.87891L10.0664 9.43359C9.01172 10.4883 9 11.9766 10.0664 13.043L13.9805 16.9453V24.0586ZM8.66016 13.0664L7.00781 15.2812H1.18359C0.539062 15.2812 0 15.7969 0 16.4648C0 17.1211 0.539062 17.6367 1.18359 17.6367H7.59375C7.93359 17.6367 8.23828 17.5078 8.50781 17.2383L10.5938 15.1641L9.26953 13.8516C9.02344 13.5938 8.82422 13.3477 8.66016 13.0664ZM24.9844 21.0586C24.9844 21.4219 25.2773 21.7148 25.6172 21.7148C25.9805 21.7148 26.2852 21.4219 26.2852 21.0586V7.72266H24.9844V21.0586ZM0.773438 8.78906C0.410156 8.78906 0.117188 9.08203 0.117188 9.42188C0.117188 9.78516 0.410156 10.0898 0.773438 10.0898H6.43359V8.78906H0.773438ZM23.7656 24.8555C24.9609 24.8555 25.6758 24.5625 26.5078 24.1641C26.8594 24.0117 26.9883 23.6367 26.8594 23.3438C26.7656 23.0156 26.3789 22.793 25.957 23.0039C25.2891 23.3438 24.7617 23.5547 23.7656 23.5547H3.26953C2.91797 23.5547 2.61328 23.8359 2.61328 24.1875C2.61328 24.5391 2.90625 24.8555 3.26953 24.8555H23.7656Z" fill="black" fill-opacity="0.85"/>
</svg>
