<svg width="16" height="27" viewBox="0 0 16 27" fill="none" xmlns="http://www.w3.org/2000/svg">
<path d="M7.88131 5.05517C9.28756 5.05517 10.4126 3.94189 10.4126 2.53564C10.4126 1.12939 9.28756 0.00439453 7.88131 0.00439453C6.47506 0.00439453 5.35006 1.12939 5.35006 2.53564C5.35006 3.94189 6.47506 5.05517 7.88131 5.05517ZM7.88131 16.3989C8.36178 16.3989 8.54928 16.7271 8.81881 17.5708C9.21724 18.7544 10.4009 23.6646 10.7993 25.106C10.9985 25.8325 11.3735 26.1372 11.9243 26.1372C12.6743 26.1372 13.1313 25.4575 12.9204 24.7192C12.8384 24.4028 11.1392 17.3013 10.8931 15.8364C10.6938 14.5474 10.647 11.9458 10.647 10.7153C10.647 10.5278 10.8579 10.4575 10.9751 10.6216C11.854 11.8521 13.4595 14.1489 13.7759 14.5239C14.1274 14.9224 14.6899 14.9927 15.147 14.7349C15.7446 14.4185 15.8853 13.7739 15.6392 13.3286C15.5454 13.1528 15.4165 12.9771 15.2993 12.8013L12.2642 8.33642C11.3032 6.91846 10.1079 6.28564 7.88131 6.28564C5.65474 6.28564 4.45943 6.91846 3.49849 8.33642L0.463337 12.8013C0.34615 12.9771 0.217244 13.1528 0.123494 13.3286C-0.1226 13.7739 0.00630641 14.4185 0.615681 14.7349C1.07271 14.9927 1.63521 14.9224 1.97506 14.5239C2.29146 14.1489 3.90865 11.8638 4.78756 10.6216C4.89303 10.4692 5.11568 10.5278 5.11568 10.7271C5.11568 11.9575 5.05709 14.5474 4.85787 15.8364C4.62349 17.3013 2.92428 24.4028 2.84224 24.7192C2.63131 25.4575 3.08834 26.1372 3.83834 26.1372C4.38912 26.1372 4.76412 25.8325 4.96334 25.106C5.36178 23.6646 6.54537 18.7544 6.94381 17.5708C7.21334 16.7271 7.40084 16.3989 7.88131 16.3989Z" fill="black" fill-opacity="0.85"/>
</svg>
