<svg width="20" height="30" viewBox="0 0 20 30" fill="none" xmlns="http://www.w3.org/2000/svg">
<path d="M6.78516 9.5791C8.19141 9.5791 9.35156 8.43066 9.35156 7.00098C9.35156 5.59472 8.19141 4.45801 6.78516 4.45801C5.36719 4.45801 4.23047 5.59472 4.23047 7.00098C4.23047 8.43066 5.36719 9.5791 6.78516 9.5791ZM0.0117188 15.2861C0.0117188 16.2002 0.960938 16.6338 1.69922 16.2588L5.80078 14.1963C6 14.0908 6.22266 14.208 6.26953 14.4189L7.46484 19.2002L5.58984 23.8877H1.17188C0.539063 23.8877 0.0117188 24.4033 0.0117188 25.0361C0.0117188 25.6689 0.539063 26.1846 1.17188 26.1846H6.30469C6.83203 26.1846 7.16016 25.9736 7.41797 25.5049L9.91406 20.8877L11.3086 24.5674L6.87891 27.5439C6.35156 27.8955 6.19922 28.6338 6.55078 29.1377C6.90234 29.6533 7.57031 29.8291 8.14453 29.4424L13.3828 25.9619C13.7812 25.7041 13.9687 25.3174 13.7929 24.6143L10.6992 12.251C10.6289 11.9932 10.6992 11.7588 10.9922 11.6064L18.9844 7.61035C19.5586 7.34082 19.7929 6.63769 19.5 6.06348C19.207 5.48926 18.5273 5.2666 17.9531 5.54785L2.32031 13.3643V9.46191C2.32031 8.8291 1.81641 8.31348 1.17188 8.31348C0.539063 8.31348 0.0117188 8.8291 0.0117188 9.46191V15.2861ZM16.1719 4.55176C17.4258 4.55176 18.4336 3.54394 18.4336 2.29004C18.4336 1.04785 17.4258 0.0166016 16.1719 0.0166016C14.9062 0.0166016 13.8984 1.04785 13.8984 2.29004C13.8984 3.54394 14.9062 4.55176 16.1719 4.55176Z" fill="black" fill-opacity="0.85"/>
</svg>
