<svg width="29" height="29" viewBox="0 0 29 29" fill="none" xmlns="http://www.w3.org/2000/svg">
<path d="M11.7773 5.36723C13.1836 5.36723 14.3203 4.23051 14.3203 2.81254C14.3203 1.40629 13.1836 0.269574 11.7773 0.269574C10.3477 0.269574 9.21094 1.40629 9.21094 2.81254C9.21094 4.23051 10.3477 5.36723 11.7773 5.36723ZM12.5508 16.3711L18.9961 18.3633L25.1602 21.1641C26.7539 21.8789 27.6914 19.6406 26.1914 18.9492L15.5742 14.1562V8.46098C15.5742 7.99223 15.6914 7.93363 16.0312 7.80473L19.2305 6.50395C19.6289 6.33988 19.6641 6.24613 19.8633 6.01176L23.2266 2.10942C23.6719 1.59379 23.5898 0.832074 23.0859 0.410199C22.582 -0.0233949 21.8086 0.0469176 21.3867 0.550824L18.1758 4.2891L3.39844 10.3242C2.97656 10.4883 2.70703 10.6641 2.53125 10.8398H8.55469L10.3711 10.1133C10.7344 9.9727 10.8633 10.1016 10.8633 10.3242V14.0508C10.8633 15.2812 11.4258 16.0312 12.5508 16.3711ZM11.4844 26.5898C11.2148 27.5156 11.9531 28.0898 12.668 28.0898C13.1602 28.0898 13.6641 27.8203 13.8164 27.2227L15.5391 20.9883C15.5625 20.8711 15.5742 20.7539 15.5742 20.6602V18.457L12.7734 17.6016L13.1367 20.5898L11.4844 26.5898ZM0.65625 13.3125H9.70312V12.0117H0.65625C0.28125 12.0117 0 12.293 0 12.6562C0 13.0195 0.28125 13.3125 0.65625 13.3125ZM27.3633 13.3125C27.7266 13.3125 28.0078 13.0195 28.0078 12.6562C28.0078 12.293 27.7266 12.0117 27.3633 12.0117H16.7461V12.8906V13.3125H27.3633Z" fill="black" fill-opacity="0.85"/>
</svg>
