<svg width="24" height="24" viewBox="0 0 24 24" fill="none" xmlns="http://www.w3.org/2000/svg">
<path d="M11.9531 23.9062C18.4922 23.9062 23.9062 18.4805 23.9062 11.9531C23.9062 5.41406 18.4805 0 11.9414 0C5.41406 0 0 5.41406 0 11.9531C0 18.4805 5.42578 23.9062 11.9531 23.9062Z" fill="#FFCC00"/>
<path d="M6.28125 17.3438C5.55469 17.3438 5.08594 16.8867 5.08594 16.1836V7.75781C5.08594 7.04297 5.55469 6.59766 6.28125 6.59766H17.6602C18.375 6.59766 18.8555 7.04297 18.8555 7.75781V16.1836C18.8555 16.8867 18.375 17.3438 17.6602 17.3438H6.28125ZM6.41016 16.3477H7.3125C7.52344 16.3477 7.65234 16.1953 7.65234 15.9844V15.1641C7.65234 14.9531 7.52344 14.8125 7.3125 14.8125H6.39844C6.16406 14.8125 6.03516 14.9531 6.03516 15.1641V15.9609C6.03516 16.1953 6.16406 16.3477 6.41016 16.3477ZM6.39844 13.8867H7.3125C7.52344 13.8867 7.65234 13.7227 7.65234 13.5469V12.7383C7.65234 12.5039 7.52344 12.375 7.3125 12.375H6.39844C6.16406 12.375 6.03516 12.5039 6.03516 12.7383V13.5469C6.03516 13.7227 6.16406 13.8867 6.39844 13.8867ZM6.39844 11.4844H7.3125C7.52344 11.4844 7.65234 11.3203 7.65234 11.1445V10.3242C7.65234 10.1016 7.52344 9.96094 7.3125 9.96094H6.39844C6.16406 9.96094 6.03516 10.1016 6.03516 10.3242V11.1445C6.03516 11.3203 6.16406 11.4844 6.39844 11.4844ZM6.39844 9.09375H7.3125C7.52344 9.09375 7.65234 8.92969 7.65234 8.75391V7.94531C7.65234 7.73438 7.52344 7.58203 7.3125 7.58203H6.39844C6.16406 7.58203 6.03516 7.73438 6.03516 7.94531V8.75391C6.03516 8.92969 6.16406 9.09375 6.39844 9.09375ZM16.6172 16.3477H17.5312C17.7773 16.3477 17.9062 16.1953 17.9062 15.9609V15.1641C17.9062 14.9531 17.7773 14.8125 17.543 14.8125H16.6172C16.418 14.8125 16.2891 14.9531 16.2891 15.1641V15.9844C16.2891 16.1953 16.418 16.3477 16.6172 16.3477ZM16.6172 13.8867H17.543C17.7773 13.8867 17.9062 13.7227 17.9062 13.5469V12.7383C17.9062 12.5039 17.7773 12.375 17.543 12.375H16.6172C16.418 12.375 16.2891 12.5039 16.2891 12.7383V13.5469C16.2891 13.7227 16.418 13.8867 16.6172 13.8867ZM16.6172 11.4844H17.543C17.7773 11.4844 17.9062 11.3203 17.9062 11.1445V10.3242C17.9062 10.1016 17.7773 9.96094 17.543 9.96094H16.6172C16.418 9.96094 16.2891 10.1016 16.2891 10.3242V11.1445C16.2891 11.3203 16.418 11.4844 16.6172 11.4844ZM16.6172 9.09375H17.543C17.7773 9.09375 17.9062 8.92969 17.9062 8.75391V7.94531C17.9062 7.73438 17.7773 7.58203 17.543 7.58203H16.6172C16.418 7.58203 16.2891 7.73438 16.2891 7.94531V8.75391C16.2891 8.92969 16.418 9.09375 16.6172 9.09375ZM9.14062 11.4727H14.8125C15.0117 11.4727 15.1406 11.3086 15.1406 11.1328V7.94531C15.1406 7.73438 15.0117 7.58203 14.8125 7.58203H9.14062C8.90625 7.58203 8.78906 7.73438 8.78906 7.94531V11.1328C8.78906 11.3086 8.90625 11.4727 9.14062 11.4727ZM9.14062 16.3477H14.8125C15.0117 16.3477 15.1406 16.1953 15.1406 16.0078V12.8086C15.1406 12.6211 15.0117 12.4453 14.8125 12.4453H9.14062C8.90625 12.4453 8.78906 12.6211 8.78906 12.8086V16.0078C8.78906 16.1953 8.90625 16.3477 9.14062 16.3477Z" fill="black" fill-opacity="0.85"/>
</svg>
