<svg width="24" height="24" viewBox="0 0 24 24" fill="none" xmlns="http://www.w3.org/2000/svg">
<path d="M11.9531 23.9062C18.4922 23.9062 23.9062 18.4805 23.9062 11.9531C23.9062 5.41406 18.4805 0 11.9414 0C5.41406 0 0 5.41406 0 11.9531C0 18.4805 5.42578 23.9062 11.9531 23.9062ZM11.9531 21.9141C6.42188 21.9141 2.00391 17.4844 2.00391 11.9531C2.00391 6.42188 6.41016 1.99219 11.9414 1.99219C17.4727 1.99219 21.9141 6.42188 21.9141 11.9531C21.9141 17.4844 17.4844 21.9141 11.9531 21.9141Z" fill="#007AFF"/>
<path d="M6.43359 17.1797H17.4844C18.1758 17.1797 18.6328 16.7344 18.6328 16.0547V7.88672C18.6328 7.19531 18.1758 6.76172 17.4844 6.76172H6.43359C5.73047 6.76172 5.28516 7.19531 5.28516 7.88672V16.0547C5.28516 16.7344 5.73047 17.1797 6.43359 17.1797ZM6.5625 16.2188C6.32812 16.2188 6.19922 16.0664 6.19922 15.8438V15.0703C6.19922 14.8594 6.32812 14.7305 6.55078 14.7305H7.44141C7.64062 14.7305 7.76953 14.8594 7.76953 15.0703V15.8672C7.76953 16.0664 7.64062 16.2188 7.44141 16.2188H6.5625ZM6.55078 13.8281C6.32812 13.8281 6.19922 13.6758 6.19922 13.5V12.7148C6.19922 12.4922 6.32812 12.3633 6.55078 12.3633H7.44141C7.64062 12.3633 7.76953 12.4922 7.76953 12.7148V13.5C7.76953 13.6758 7.64062 13.8281 7.44141 13.8281H6.55078ZM6.55078 11.4961C6.32812 11.4961 6.19922 11.3438 6.19922 11.168V10.3711C6.19922 10.1602 6.32812 10.0195 6.55078 10.0195H7.44141C7.64062 10.0195 7.76953 10.1602 7.76953 10.3711V11.168C7.76953 11.3438 7.64062 11.4961 7.44141 11.4961H6.55078ZM6.55078 9.17578C6.32812 9.17578 6.19922 9.02344 6.19922 8.84766V8.0625C6.19922 7.86328 6.32812 7.71094 6.55078 7.71094H7.44141C7.64062 7.71094 7.76953 7.86328 7.76953 8.0625V8.84766C7.76953 9.02344 7.64062 9.17578 7.44141 9.17578H6.55078ZM16.4648 16.2188C16.2773 16.2188 16.1484 16.0664 16.1484 15.8672V15.0703C16.1484 14.8594 16.2773 14.7305 16.4648 14.7305H17.3672C17.5898 14.7305 17.7188 14.8594 17.7188 15.0703V15.8438C17.7188 16.0664 17.5898 16.2188 17.3555 16.2188H16.4648ZM16.4648 13.8281C16.2773 13.8281 16.1484 13.6758 16.1484 13.5V12.7148C16.1484 12.4922 16.2773 12.3633 16.4648 12.3633H17.3672C17.5898 12.3633 17.7188 12.4922 17.7188 12.7148V13.5C17.7188 13.6758 17.5898 13.8281 17.3672 13.8281H16.4648ZM16.4648 11.4961C16.2773 11.4961 16.1484 11.3438 16.1484 11.168V10.3711C16.1484 10.1602 16.2773 10.0195 16.4648 10.0195H17.3672C17.5898 10.0195 17.7188 10.1602 17.7188 10.3711V11.168C17.7188 11.3438 17.5898 11.4961 17.3672 11.4961H16.4648ZM16.4648 9.17578C16.2773 9.17578 16.1484 9.02344 16.1484 8.84766V8.0625C16.1484 7.86328 16.2773 7.71094 16.4648 7.71094H17.3672C17.5898 7.71094 17.7188 7.86328 17.7188 8.0625V8.84766C17.7188 9.02344 17.5898 9.17578 17.3672 9.17578H16.4648ZM9.21094 11.4844C8.98828 11.4844 8.87109 11.332 8.87109 11.1562V8.0625C8.87109 7.86328 8.98828 7.71094 9.21094 7.71094H14.7188C14.9062 7.71094 15.0352 7.86328 15.0352 8.0625V11.1562C15.0352 11.332 14.9062 11.4844 14.7188 11.4844H9.21094ZM9.21094 16.2188C8.98828 16.2188 8.87109 16.0664 8.87109 15.8906V12.7852C8.87109 12.5977 8.98828 12.4336 9.21094 12.4336H14.7188C14.9062 12.4336 15.0352 12.5977 15.0352 12.7852V15.8906C15.0352 16.0664 14.9062 16.2188 14.7188 16.2188H9.21094Z" fill="black" fill-opacity="0.85"/>
</svg>
