<svg width="27" height="24" viewBox="0 0 27 24" fill="none" xmlns="http://www.w3.org/2000/svg">
<path d="M1.24219 5.08594H25.5469C26.2852 5.08594 26.7891 4.58203 26.7891 3.83203V1.23047C26.7891 0.503906 26.2852 0 25.5469 0H1.24219C0.503906 0 0 0.503906 0 1.23047V3.83203C0 4.58203 0.503906 5.08594 1.24219 5.08594ZM2.69531 22.5234H24.0938V6.44531H2.69531V22.5234ZM6.57422 21.6211V10.2891C6.57422 9.26953 7.20703 8.64844 8.21484 8.64844H18.5742C19.582 8.64844 20.2148 9.26953 20.2148 10.2891V21.6211H18.7383V10.7109C18.7383 10.3359 18.5156 10.1133 18.1523 10.1133H8.63672C8.27344 10.1133 8.05078 10.3359 8.05078 10.7109V21.6211H6.57422ZM13.2656 20.4258C11.4727 20.4258 10.2773 19.3945 10.2773 17.8125C10.2773 16.4414 10.9219 15.9375 10.9219 14.9766C10.9219 14.8359 10.9102 14.6367 10.9102 14.543C10.9102 14.4023 11.0039 14.3086 11.1445 14.3086C11.4844 14.3086 11.9062 14.6016 12.1172 15.0234C12.1523 14.0977 11.7305 13.4297 11.25 12.8086C10.9805 12.457 11.1914 12.1523 11.707 12.1523C13.7344 12.1523 16.6406 13.582 16.6406 17.0156C16.6406 19.0664 15.3047 20.4258 13.2656 20.4258ZM13.3828 19.3477C14.2852 19.3477 14.7188 18.6914 14.7188 17.9297C14.7188 16.9688 14.0273 16.1836 13.4062 15.9492C13.5234 16.6406 13.3945 17.168 13.1836 17.4844C13.0781 17.2266 12.9492 17.0273 12.75 16.8867C12.668 17.3672 12.1875 17.6016 12.1875 18.2695C12.1875 18.9258 12.668 19.3477 13.3828 19.3477ZM0.984375 23.5078H25.8047C26.3203 23.5078 26.7539 23.0742 26.7539 22.5586C26.7539 22.043 26.3203 21.6211 25.8047 21.6211H0.984375C0.46875 21.6211 0.0351562 22.043 0.0351562 22.5586C0.0351562 23.0742 0.46875 23.5078 0.984375 23.5078Z" fill="black" fill-opacity="0.85"/>
</svg>
