<svg width="31" height="30" viewBox="0 0 31 30" fill="none" xmlns="http://www.w3.org/2000/svg">
<path d="M25.0781 10.418C25.3008 10.418 25.4531 10.2656 25.4883 10.0664C26.0156 7.28906 25.9922 7.45312 28.6289 6.9375C28.8281 6.90234 28.9805 6.76172 28.9805 6.51562C28.9805 6.29297 28.8164 6.15234 28.6289 6.10547C25.9805 5.56641 26.0156 5.70703 25.4883 2.97656C25.4531 2.77734 25.3008 2.625 25.0781 2.625C24.832 2.625 24.6914 2.76562 24.6562 2.97656C24.1172 5.73047 24.0352 5.60156 21.5391 6.10547C21.3398 6.15234 21.1875 6.29297 21.1875 6.51562C21.1875 6.76172 21.3281 6.90234 21.5391 6.9375C24.0352 7.42969 24.1172 7.30078 24.6562 10.0664C24.6914 10.2773 24.832 10.418 25.0781 10.418ZM12.9609 29.1211C13.1484 29.1211 13.2656 28.9922 13.3008 28.8164C13.7578 26.6484 13.7578 26.6484 15.9023 26.2148C16.0781 26.1797 16.207 26.0625 16.207 25.8633C16.207 25.6758 16.0781 25.5469 15.9023 25.5234C13.7578 25.0781 13.7578 25.0781 13.3008 22.9219C13.2656 22.7461 13.1484 22.6172 12.9609 22.6172C12.7617 22.6172 12.6445 22.7461 12.6094 22.9219C12.1641 25.0781 12.1641 25.0781 10.0195 25.5234C9.83203 25.5469 9.70312 25.6758 9.70312 25.8633C9.70312 26.0625 9.83203 26.1797 10.0195 26.2148C12.1641 26.6484 12.1641 26.6602 12.6094 28.8164C12.6445 28.9922 12.7617 29.1211 12.9609 29.1211ZM6.86719 25.3125C7.03125 25.3125 7.125 25.2188 7.14844 25.0664C7.51172 23.2969 7.51172 23.2969 9.26953 22.9453C9.42188 22.9102 9.52734 22.8281 9.52734 22.6523C9.52734 22.4883 9.42188 22.3828 9.26953 22.3594C7.51172 22.0078 7.51172 22.0078 7.14844 20.2383C7.125 20.0859 7.03125 19.9922 6.86719 19.9922C6.69141 19.9922 6.59766 20.0859 6.57422 20.2383C6.21094 22.0078 6.21094 22.0078 4.45312 22.3594C4.30078 22.3828 4.19531 22.4883 4.19531 22.6523C4.19531 22.8281 4.30078 22.9102 4.45312 22.9453C6.21094 23.2969 6.21094 23.2969 6.57422 25.0664C6.59766 25.2188 6.69141 25.3125 6.86719 25.3125Z" fill="#007AFF"/>
<path d="M24.0352 24.3164C24.4102 24.3164 24.7148 24.0234 24.7148 23.6484V21.8438L25.6641 22.7812C25.9336 23.0508 26.3438 23.0625 26.6016 22.7812C26.8945 22.5234 26.8945 22.1133 26.6016 21.832L25.6758 20.8945H27.4688C27.8438 20.8945 28.1484 20.5898 28.1484 20.2148C28.1484 19.8398 27.8438 19.5469 27.4688 19.5469H25.6641L26.6133 18.5977C26.8828 18.3281 26.8828 17.918 26.6133 17.6484C26.3438 17.3789 25.9336 17.3672 25.6641 17.6484L24.7148 18.5859V16.793C24.7148 16.418 24.4102 16.1133 24.0352 16.1133C23.6602 16.1133 23.3672 16.418 23.3672 16.793V18.5859L22.4297 17.6484C22.1602 17.3789 21.7383 17.3789 21.4688 17.6484C21.1875 17.918 21.1875 18.3281 21.457 18.5977L22.4062 19.5469H20.6016C20.2383 19.5469 19.9453 19.8398 19.9453 20.2148C19.9453 20.5898 20.2383 20.8945 20.6016 20.8945H22.4062L21.4688 21.832C21.1875 22.1133 21.1875 22.5234 21.4688 22.7812C21.7383 23.0625 22.1484 23.0625 22.4297 22.7812L23.3672 21.8438V23.6484C23.3672 24.0234 23.6602 24.3164 24.0352 24.3164ZM24.0469 15.375C24.5391 15.375 24.9258 14.9766 24.9258 14.4727C24.9258 13.9805 24.5391 13.582 24.0469 13.582C23.543 13.582 23.1562 13.9805 23.1562 14.4727C23.1562 14.9766 23.543 15.375 24.0469 15.375ZM27.9375 17.1328C28.3945 17.1328 28.7695 16.7695 28.7695 16.3008C28.7695 15.8438 28.3945 15.4805 27.9375 15.4805C27.4805 15.4805 27.1172 15.8438 27.1172 16.3008C27.1172 16.7695 27.4805 17.1328 27.9375 17.1328ZM29.7891 21.1055C30.2812 21.1055 30.6797 20.707 30.6797 20.2148C30.6797 19.7227 30.2812 19.3359 29.7891 19.3359C29.2852 19.3359 28.8984 19.7227 28.8984 20.2148C28.8984 20.707 29.2852 21.1055 29.7891 21.1055ZM27.9375 24.9609C28.3945 24.9609 28.7695 24.5859 28.7695 24.1406C28.7695 23.6719 28.3945 23.3086 27.9375 23.3086C27.4805 23.3086 27.1172 23.6719 27.1172 24.1406C27.1172 24.5859 27.4805 24.9609 27.9375 24.9609ZM24.0469 26.8477C24.5391 26.8477 24.9258 26.4609 24.9258 25.9688C24.9258 25.4648 24.5391 25.0664 24.0469 25.0664C23.543 25.0664 23.1562 25.4648 23.1562 25.9688C23.1562 26.4609 23.543 26.8477 24.0469 26.8477ZM20.1445 24.9492C20.6016 24.9492 20.9648 24.5859 20.9648 24.1406C20.9648 23.6719 20.6016 23.3086 20.1445 23.3086C19.6875 23.3086 19.3125 23.6719 19.3125 24.1406C19.3125 24.5859 19.6875 24.9492 20.1445 24.9492ZM18.293 21.1055C18.7969 21.1055 19.1953 20.707 19.1836 20.2148C19.1953 19.7227 18.7969 19.3359 18.293 19.3359C17.8008 19.3359 17.4141 19.7227 17.4141 20.2148C17.4141 20.707 17.8008 21.1055 18.293 21.1055ZM20.1445 17.1328C20.6016 17.1328 20.9648 16.7695 20.9648 16.3008C20.9648 15.8438 20.6016 15.4805 20.1445 15.4805C19.6875 15.4805 19.3125 15.8438 19.3125 16.3008C19.3125 16.7695 19.6875 17.1328 20.1445 17.1328Z" fill="black" fill-opacity="0.85"/>
<path d="M9.24609 12.8555C9.63281 12.8555 9.94922 12.5625 9.94922 12.1641L9.9375 10.8516L10.875 11.7891C11.1328 12.0703 11.5898 12.0703 11.8711 11.7891C12.1289 11.5195 12.1406 11.0625 11.8711 10.793L10.9219 9.87891H12.2344C12.6211 9.87891 12.9375 9.5625 12.9375 9.17578C12.9375 8.78906 12.6211 8.48438 12.2344 8.48438H10.9219L11.8594 7.57031C12.1406 7.28906 12.1289 6.84375 11.8594 6.5625C11.5781 6.30469 11.1328 6.28125 10.8516 6.5625L9.94922 7.48828L9.9375 6.19922C9.9375 5.78906 9.64453 5.49609 9.23438 5.49609C8.85938 5.49609 8.54297 5.78906 8.54297 6.19922L8.55469 7.48828L7.62891 6.5625C7.34766 6.29297 6.91406 6.29297 6.62109 6.5625C6.36328 6.83203 6.35156 7.30078 6.62109 7.57031L7.57031 8.48438H6.25781C5.87109 8.48438 5.55469 8.78906 5.55469 9.17578C5.55469 9.5625 5.87109 9.87891 6.25781 9.87891H7.57031L6.63281 10.793C6.35156 11.0742 6.36328 11.5078 6.63281 11.7891C6.90234 12.0586 7.34766 12.082 7.62891 11.7891L8.54297 10.8516L8.55469 12.1641C8.55469 12.5625 8.84766 12.8555 9.24609 12.8555ZM9.25781 4.11328C9.67969 4.11328 10.0195 3.76172 10.0195 3.33984V0.773438C10.0195 0.351562 9.67969 0.0117188 9.25781 0.0117188C8.83594 0.0117188 8.48438 0.351562 8.48438 0.773438V3.33984C8.48438 3.76172 8.83594 4.11328 9.25781 4.11328ZM11.8242 4.79297C12.1992 5.01562 12.6562 4.88672 12.8789 4.51172L14.168 2.30859C14.3789 1.93359 14.2383 1.46484 13.8867 1.25391C13.5117 1.03125 13.0547 1.16016 12.832 1.53516L11.543 3.75C11.332 4.11328 11.4727 4.59375 11.8242 4.79297ZM13.7109 6.67969C13.9336 7.05469 14.4023 7.16016 14.7656 6.96094L16.9805 5.68359C17.3438 5.48438 17.4727 5.00391 17.2617 4.64062C17.0508 4.26562 16.582 4.14844 16.2188 4.35938L13.9922 5.63672C13.6406 5.83594 13.5 6.32812 13.7109 6.67969ZM14.4023 9.25781C14.4023 9.69141 14.7539 10.0195 15.1641 10.0195L17.7305 10.0312C18.1523 10.0312 18.5156 9.67969 18.5156 9.26953C18.5156 8.83594 18.1523 8.49609 17.7422 8.49609L15.1641 8.48438C14.7539 8.48438 14.4023 8.84766 14.4023 9.25781ZM13.7109 11.8242C13.5 12.2109 13.6523 12.668 13.9922 12.8789L16.207 14.168C16.582 14.3789 17.0508 14.2383 17.2617 13.8984C17.4727 13.5117 17.332 13.0547 16.9805 12.8438L14.7656 11.543C14.4141 11.3438 13.9102 11.4727 13.7109 11.8242ZM11.8242 13.7109C11.4609 13.9453 11.3438 14.4141 11.543 14.7656L12.8203 16.9805C13.0312 17.3438 13.5234 17.4844 13.8867 17.2734C14.25 17.0625 14.3555 16.5938 14.1562 16.2305L12.8789 13.9922C12.668 13.6523 12.1875 13.5 11.8242 13.7109ZM9.25781 14.4141C8.83594 14.4141 8.48438 14.7539 8.48438 15.1758V17.7422C8.48438 18.1641 8.83594 18.5039 9.25781 18.5039C9.67969 18.5039 10.0195 18.1641 10.0195 17.7422V15.1758C10.0195 14.7539 9.67969 14.4141 9.25781 14.4141ZM6.67969 13.7227C6.30469 13.5 5.84766 13.6406 5.63672 14.0039L4.34766 16.2188C4.125 16.5938 4.26562 17.0625 4.62891 17.2617C5.00391 17.4844 5.46094 17.3555 5.67188 16.9805L6.96094 14.7773C7.18359 14.4023 7.04297 13.9219 6.67969 13.7227ZM4.79297 11.8359C4.58203 11.4727 4.10156 11.3555 3.75 11.5547L1.52344 12.832C1.16016 13.043 1.04297 13.5234 1.24219 13.8867C1.46484 14.25 1.93359 14.3672 2.29688 14.168L4.51172 12.8906C4.875 12.6797 5.00391 12.1992 4.79297 11.8359ZM4.11328 9.26953C4.11328 8.82422 3.75 8.49609 3.33984 8.49609L0.785156 8.48438C0.351562 8.48438 0 8.84766 0 9.25781C0 9.69141 0.351562 10.0195 0.773438 10.0195L3.33984 10.0312C3.75 10.0312 4.11328 9.67969 4.11328 9.26953ZM4.79297 6.69141C5.00391 6.30469 4.86328 5.84766 4.51172 5.64844L2.30859 4.35938C1.93359 4.13672 1.46484 4.27734 1.24219 4.62891C1.04297 5.01562 1.17188 5.47266 1.52344 5.67188L3.75 6.97266C4.08984 7.17188 4.59375 7.05469 4.79297 6.69141ZM6.67969 4.80469C7.05469 4.58203 7.17188 4.10156 6.96094 3.76172L5.68359 1.53516C5.48438 1.17188 4.99219 1.03125 4.62891 1.24219C4.25391 1.46484 4.14844 1.93359 4.35938 2.29688L5.63672 4.52344C5.83594 4.875 6.32812 5.01562 6.67969 4.80469Z" fill="black" fill-opacity="0.85"/>
</svg>
