<svg width="27" height="24" viewBox="0 0 27 24" fill="none" xmlns="http://www.w3.org/2000/svg">
<path d="M1.24219 6.375H25.5469C26.2852 6.375 26.7891 5.87109 26.7891 5.12109V1.23047C26.7891 0.503906 26.2852 0 25.5469 0H1.24219C0.503906 0 0 0.503906 0 1.23047V5.12109C0 5.87109 0.503906 6.375 1.24219 6.375ZM2.19141 4.48828C2.01562 4.48828 1.88672 4.35938 1.88672 4.17188V2.20312C1.88672 2.01562 2.01562 1.88672 2.19141 1.88672H24.5977C24.7734 1.88672 24.9023 2.01562 24.9023 2.20312V4.17188C24.9023 4.35938 24.7734 4.48828 24.5977 4.48828H2.19141ZM2.69531 22.5586H4.58203V5.41406H2.69531V22.5586ZM22.207 22.5586H24.0938V5.41406H22.207V22.5586ZM6.57422 22.5586H8.05078V10.2422C8.05078 9.86719 8.27344 9.64453 8.63672 9.64453H18.1523C18.5156 9.64453 18.7383 9.86719 18.7383 10.2422V22.5586H20.2148V9.82031C20.2148 8.80078 19.582 8.17969 18.5742 8.17969H8.21484C7.20703 8.17969 6.57422 8.80078 6.57422 9.82031V22.5586ZM0.984375 23.5078H25.8047C26.3203 23.5078 26.7539 23.0742 26.7539 22.5586C26.7539 22.043 26.3203 21.6211 25.8047 21.6211H0.984375C0.46875 21.6211 0.0351562 22.043 0.0351562 22.5586C0.0351562 23.0742 0.46875 23.5078 0.984375 23.5078ZM13.207 20.7188C15.5039 20.7188 17.0039 19.1836 17.0039 16.875C17.0039 13.0195 13.7227 11.4141 11.4609 11.4141C10.875 11.4141 10.6289 11.7539 10.9336 12.1641C11.4727 12.8438 11.9531 13.5938 11.918 14.6367C11.6602 14.1562 11.2031 13.8281 10.8281 13.8281C10.6523 13.8281 10.5586 13.9336 10.5586 14.0977C10.5586 14.2031 10.5586 14.4258 10.5586 14.5898C10.5586 15.668 9.84375 16.2305 9.84375 17.7773C9.84375 19.5586 11.1914 20.7188 13.207 20.7188ZM13.3242 19.5117C12.5273 19.5117 11.9883 19.0312 11.9883 18.293C11.9883 17.543 12.5273 17.2734 12.6211 16.7344C12.8438 16.8867 12.9961 17.1094 13.1016 17.4023C13.3477 17.0508 13.5 16.4531 13.3594 15.668C14.0625 15.9258 14.8477 16.8164 14.8477 17.9062C14.8477 18.7617 14.3555 19.5117 13.3242 19.5117Z" fill="black" fill-opacity="0.85"/>
</svg>
