<svg width="24" height="24" viewBox="0 0 24 24" fill="none" xmlns="http://www.w3.org/2000/svg">
<path d="M11.9531 23.918C18.4922 23.918 23.9062 18.5039 23.9062 11.9648C23.9062 5.4375 18.4805 0.0117188 11.9414 0.0117188C5.41406 0.0117188 0 5.4375 0 11.9648C0 18.5039 5.42578 23.918 11.9531 23.918Z" fill="#FFCC00"/>
<path d="M4.66323 15.0821C4.55776 13.922 5.08511 12.6798 5.90542 11.9649C5.08511 11.2149 4.53433 9.98446 4.66323 8.8243C4.67495 8.61336 4.82729 8.49617 5.06167 8.49617C6.38589 8.49617 7.48745 9.1407 8.44839 10.2774C9.23355 9.49227 10.1008 8.96492 11.0265 8.62508C10.9328 8.0743 10.7453 7.67586 10.2531 7.01961C10.0539 6.7618 10.0773 6.56258 10.3117 6.44539C12.5031 5.23836 15.5851 6.31649 16.2765 8.64852C18.1867 9.30477 19.8742 10.5118 19.8742 11.9649C19.8742 13.4767 18.0461 14.7189 16.0422 15.3399C15.2453 16.5001 13.7219 17.4728 12.3508 17.6954C11.882 17.7657 11.6594 17.5431 11.7062 17.1329L11.9054 15.5626C10.6633 15.2813 9.47964 14.672 8.44839 13.6524C7.48745 14.7892 6.38589 15.3985 5.06167 15.422C4.82729 15.422 4.67495 15.3165 4.66323 15.0821ZM16.968 12.3634C17.3312 12.3634 17.6125 12.0939 17.6125 11.7189C17.6125 11.3556 17.3312 11.0743 16.968 11.0743C16.6047 11.0743 16.3234 11.3556 16.3234 11.7189C16.3234 12.0939 16.6047 12.3634 16.968 12.3634Z" fill="black" fill-opacity="0.85"/>
</svg>
