<svg width="24" height="24" viewBox="0 0 24 24" fill="none" xmlns="http://www.w3.org/2000/svg">
<path d="M11.9531 23.9062C18.4922 23.9062 23.9062 18.4805 23.9062 11.9531C23.9062 5.41406 18.4805 0 11.9414 0C5.41406 0 0 5.41406 0 11.9531C0 18.4805 5.42578 23.9062 11.9531 23.9062ZM11.9531 21.9141C6.42188 21.9141 2.00391 17.4844 2.00391 11.9531C2.00391 6.42188 6.41016 1.99219 11.9414 1.99219C17.4727 1.99219 21.9141 6.42188 21.9141 11.9531C21.9141 17.4844 17.4844 21.9141 11.9531 21.9141Z" fill="#007AFF"/>
<path d="M14.5428 16.8398C14.8006 16.7109 14.8709 16.3945 14.7303 16.1602L9.67948 7.41797C9.4451 7.00781 9.09354 6.91406 8.73026 6.91406C8.40213 6.91406 8.01541 7.10156 7.65213 7.30078C6.43338 8.01562 6.01151 9.04688 4.88651 9.67969C4.39432 9.97266 3.97245 10.0898 3.74979 10.207C3.45682 10.3711 3.29276 10.6992 3.48026 11.0391L5.36698 14.2969C5.57791 14.6484 5.83573 14.8242 6.24588 14.8242C6.66776 14.8242 7.0662 14.625 7.40604 14.4141C8.63651 13.7109 9.0701 12.6562 10.1834 12.0352C10.4881 11.8477 10.7693 11.7539 10.992 11.6602L13.8748 16.6523C14.0271 16.9102 14.3084 16.9805 14.5428 16.8398ZM17.6248 14.8242C18.035 14.8242 18.2928 14.6484 18.492 14.2969L20.3904 11.0391C20.5779 10.6992 20.4139 10.3828 20.1209 10.207C19.8982 10.0898 19.4764 9.97266 18.9842 9.67969C17.8592 9.04688 17.4256 8.01562 16.2186 7.30078C15.8553 7.10156 15.4568 6.91406 15.1287 6.91406C14.7654 6.91406 14.4256 7.00781 14.1912 7.42969L12.4217 10.4883L13.1717 11.7773C14.5193 12.293 15.281 13.7461 16.4646 14.4141C16.7928 14.625 17.2029 14.8242 17.6248 14.8242ZM9.3162 16.8398C9.55057 16.9922 9.84354 16.9102 9.99588 16.6523L11.4607 14.1094L10.8865 13.1367L9.14041 16.1602C8.99979 16.3945 9.0701 16.7109 9.3162 16.8398Z" fill="black" fill-opacity="0.85"/>
</svg>
