<svg width="44" height="28" viewBox="0 0 44 28" fill="none" xmlns="http://www.w3.org/2000/svg">
<path d="M15.6767 24.2444C15.4306 24.6662 15.583 25.217 16.0048 25.4631C16.4384 25.7092 16.9658 25.5686 17.2001 25.135L24.5361 12.4436C25.0869 12.6545 25.9423 12.9475 26.9033 13.4865C29.7392 15.1389 30.8525 17.7404 33.7822 19.4397C34.6259 19.9436 35.54 20.3069 36.2314 20.3889C37.0751 20.4709 37.8134 20.2131 38.3408 19.299L43.0517 11.1311C43.4267 10.4865 43.1455 9.90064 42.5478 9.54908C42.0322 9.25611 40.9423 8.98658 39.7001 8.27174C36.8525 6.63111 35.7509 4.01783 32.8212 2.31861C31.9775 1.82642 31.0517 1.46314 30.3603 1.38111C29.5283 1.29908 28.79 1.56861 28.2626 2.48267L15.6767 24.2444ZM25.4619 10.8498L29.915 3.13892C30.747 3.17408 31.6259 3.67799 31.9306 3.85377C34.708 5.45924 35.7626 8.04908 38.8212 9.81861C39.4775 10.1936 40.3798 10.6975 41.1415 10.9201L36.6884 18.6311C35.8447 18.5842 34.9658 18.092 34.6728 17.9162C31.8837 16.3225 30.8408 13.7209 27.7822 11.9514C27.1259 11.5764 26.2119 11.0608 25.4619 10.8498Z" fill="#007AFF"/>
<path d="M30.1028 23.5647L17.5168 1.79123C16.7786 0.525603 15.5833 -0.130647 14.0715 0.0216962C13.1809 0.127165 12.0559 0.560759 11.0833 1.1467C7.71997 3.09201 6.68872 5.6467 4.20435 7.0881C3.10279 7.73263 2.05982 7.96701 1.35669 8.36545C0.114505 9.09201 -0.40112 10.4983 0.34888 11.8108L5.05982 19.9787C5.7981 21.2561 6.98169 21.9006 8.49341 21.7483C9.40747 21.6428 10.5325 21.1975 11.4934 20.6233C14.8684 18.6779 15.8879 16.1115 18.3723 14.6819C18.7708 14.4475 19.1458 14.2834 19.4622 14.1545L26.2004 25.8147C26.8215 26.9045 28.1926 27.2678 29.2708 26.635C30.3372 26.0256 30.7122 24.6428 30.1028 23.5647Z" fill="white"/>
<path d="M28.9067 24.2444L16.3325 2.48267C15.8051 1.56861 15.0668 1.29908 14.2231 1.38111C13.5317 1.46314 12.6059 1.82642 11.7739 2.31861C8.84418 4.01783 7.7309 6.63111 4.88325 8.27174C3.64106 8.98658 2.55121 9.25611 2.03559 9.54908C1.43793 9.90064 1.1684 10.4865 1.53168 11.1311L6.24262 19.299C6.76996 20.2131 7.50825 20.4709 8.352 20.3889C9.0434 20.3069 9.96918 19.9436 10.8012 19.4397C13.7426 17.7404 14.8442 15.1389 17.6918 13.4865C18.641 12.9475 19.5082 12.6545 20.059 12.4436L27.3832 25.135C27.6293 25.5686 28.1567 25.7092 28.5903 25.4631C29.0004 25.217 29.1528 24.6662 28.9067 24.2444ZM19.1215 10.8498C18.3715 11.0608 17.4575 11.5764 16.8012 11.9514C13.7426 13.7209 12.6996 16.3225 9.92231 17.9162C9.61762 18.092 8.73871 18.5842 7.90668 18.6311L3.45356 10.9201C4.21528 10.6975 5.11762 10.1936 5.77387 9.81861C8.83246 8.04908 9.87543 5.45924 12.6528 3.85377C12.9575 3.67799 13.8364 3.17408 14.6801 3.13892L19.1215 10.8498Z" fill="black" fill-opacity="0.85"/>
</svg>
