<svg width="44" height="28" viewBox="0 0 44 28" fill="none" xmlns="http://www.w3.org/2000/svg">
<path d="M15.6767 24.2444C15.4306 24.6662 15.583 25.217 16.0048 25.4631C16.4384 25.7092 16.9658 25.5686 17.2001 25.135L24.5361 12.4436C25.0869 12.6545 25.9423 12.9475 26.9033 13.4865C29.7392 15.1389 30.8525 17.7404 33.7822 19.4397C34.6259 19.9436 35.54 20.3069 36.2314 20.3889C37.0751 20.4709 37.8134 20.2131 38.3408 19.299L43.0517 11.1311C43.4267 10.4865 43.1455 9.90058 42.5478 9.54902C42.0322 9.25605 40.9423 8.98652 39.7001 8.27168C36.8525 6.63105 35.7509 4.01777 32.8212 2.31855C31.9775 1.82636 31.0517 1.46308 30.3603 1.38105C29.5283 1.29902 28.79 1.56855 28.2626 2.48261L15.6767 24.2444Z" fill="#007AFF"/>
<path d="M30.1028 23.5647L17.5168 1.79123C16.7786 0.525603 15.5833 -0.130647 14.0715 0.0216962C13.1809 0.127165 12.0559 0.560759 11.0833 1.1467C7.71997 3.09201 6.68872 5.6467 4.20435 7.0881C3.10279 7.73263 2.05982 7.96701 1.35669 8.36545C0.114505 9.09201 -0.40112 10.4983 0.34888 11.8108L5.05982 19.9787C5.7981 21.2561 6.98169 21.9006 8.49341 21.7483C9.40747 21.6428 10.5325 21.1975 11.4934 20.6233C14.8684 18.6779 15.8879 16.1115 18.3723 14.6819C18.7708 14.4475 19.1458 14.2834 19.4622 14.1545L26.2004 25.8147C26.8215 26.9045 28.1926 27.2678 29.2708 26.635C30.3372 26.0256 30.7122 24.6428 30.1028 23.5647Z" fill="white"/>
<path d="M28.9077 24.2444L16.3335 2.48261C15.8061 1.56855 15.0678 1.29902 14.2241 1.38105C13.5327 1.46308 12.6069 1.82636 11.7749 2.31855C8.84515 4.01777 7.73187 6.63105 4.88422 8.27168C3.64203 8.98652 2.55218 9.25605 2.03656 9.54902C1.4389 9.90058 1.16937 10.4865 1.53265 11.1311L6.24359 19.299C6.77093 20.2131 7.50922 20.4709 8.35297 20.3889C9.04437 20.3069 9.97015 19.9436 10.8022 19.4397C13.7436 17.7404 14.8452 15.1389 17.6928 13.4865C18.642 12.9475 19.5092 12.6545 20.06 12.4436L27.3842 25.135C27.6303 25.5686 28.1577 25.7092 28.5913 25.4631C29.0014 25.217 29.1538 24.6662 28.9077 24.2444Z" fill="black" fill-opacity="0.85"/>
</svg>
