<svg width="24" height="24" viewBox="0 0 24 24" fill="none" xmlns="http://www.w3.org/2000/svg">
<path d="M11.9531 23.9062C18.4922 23.9062 23.9062 18.4805 23.9062 11.9531C23.9062 5.41406 18.4805 0 11.9414 0C5.41406 0 0 5.41406 0 11.9531C0 18.4805 5.42578 23.9062 11.9531 23.9062ZM11.9531 21.9141C6.42188 21.9141 2.00391 17.4844 2.00391 11.9531C2.00391 6.42188 6.41016 1.99219 11.9414 1.99219C17.4727 1.99219 21.9141 6.42188 21.9141 11.9531C21.9141 17.4844 17.4844 21.9141 11.9531 21.9141Z" fill="#007AFF"/>
<path d="M7.48828 18.2578C7.80469 18.2578 8.01562 18.0117 8.01562 17.7188V14.2617C8.23828 14.168 8.69531 14.0273 9.42188 14.0273C11.5078 14.0273 12.8203 15.0586 14.8477 15.0586C15.7383 15.0586 16.1016 14.9648 16.5469 14.7539C17.0391 14.5312 17.2617 14.1914 17.2617 13.6641V7.88672C17.2617 7.54688 17.0859 7.30078 16.6055 7.30078C16.2656 7.30078 15.75 7.54688 14.7891 7.54688C12.7969 7.54688 11.4727 6.50391 9.36328 6.50391C8.44922 6.50391 8.08594 6.60938 7.66406 6.79688C7.18359 7.00781 6.9375 7.38281 6.9375 7.88672V17.7188C6.9375 18 7.19531 18.2578 7.48828 18.2578Z" fill="black" fill-opacity="0.85"/>
<path d="M16.6523 18.5742C17.1914 19.1016 18.0586 19.1133 18.5742 18.5742C19.125 18.0352 19.1133 17.2031 18.5742 16.6641L7.23047 5.32031C6.69141 4.78125 5.83594 4.78125 5.30859 5.32031C4.76953 5.84766 4.76953 6.71484 5.30859 7.24219L16.6523 18.5742Z" fill="white"/>
<path d="M17.2378 18C17.437 18.1992 17.7886 18.1992 17.9878 18C18.1987 17.7773 18.1987 17.4609 17.9878 17.25L6.6558 5.90625C6.44486 5.69531 6.10502 5.69531 5.89408 5.90625C5.68314 6.10547 5.69486 6.45703 5.89408 6.65625L17.2378 18Z" fill="black" fill-opacity="0.85"/>
</svg>
