<svg width="24" height="24" viewBox="0 0 24 24" fill="none" xmlns="http://www.w3.org/2000/svg">
<path d="M11.9531 23.9062C18.4922 23.9062 23.9062 18.4805 23.9062 11.9531C23.9062 5.41406 18.4805 0 11.9414 0C5.41406 0 0 5.41406 0 11.9531C0 18.4805 5.42578 23.9062 11.9531 23.9062ZM11.9531 21.9141C6.42188 21.9141 2.00391 17.4844 2.00391 11.9531C2.00391 6.42188 6.41016 1.99219 11.9414 1.99219C17.4727 1.99219 21.9141 6.42188 21.9141 11.9531C21.9141 17.4844 17.4844 21.9141 11.9531 21.9141Z" fill="#007AFF"/>
<path d="M7.48828 18.2578C7.80469 18.2578 8.01562 18.0117 8.01562 17.7188V14.2617C8.23828 14.168 8.69531 14.0273 9.42188 14.0273C11.5078 14.0273 12.8203 15.0586 14.8477 15.0586C15.7383 15.0586 16.1016 14.9648 16.5469 14.7539C17.0391 14.5312 17.2617 14.1914 17.2617 13.6641V7.88672C17.2617 7.54688 17.0859 7.30078 16.6055 7.30078C16.2656 7.30078 15.75 7.54688 14.7891 7.54688C12.7969 7.54688 11.4727 6.50391 9.36328 6.50391C8.44922 6.50391 8.08594 6.60938 7.66406 6.79688C7.18359 7.00781 6.9375 7.38281 6.9375 7.88672V17.7188C6.9375 18 7.19531 18.2578 7.48828 18.2578ZM7.83984 11.5898V9.63281C7.93359 9.44531 8.41406 9.17578 9.31641 9.17578C9.50391 9.17578 9.75 9.1875 9.94922 9.21094V7.45312C10.7344 7.52344 11.4258 7.74609 12.1289 7.96875V9.72656C12.8438 9.94922 13.5234 10.125 14.3086 10.1953V8.4375C14.4727 8.44922 14.6484 8.44922 14.8359 8.44922C15.457 8.44922 15.9844 8.39062 16.3828 8.27344V10.0312C16.0781 10.1133 15.5156 10.2188 14.8359 10.2188C14.6367 10.2188 14.4609 10.207 14.3086 10.1953V12.1641C14.4609 12.1758 14.625 12.1875 14.8359 12.1875C15.457 12.1875 15.9844 12.1172 16.3828 12V13.6758C16.2891 13.875 15.8086 14.1445 14.9062 14.1445C14.6836 14.1445 14.4844 14.1328 14.3086 14.0977V12.1641C13.5234 12.082 12.8672 11.9297 12.1289 11.6836V13.582C11.4609 13.3711 10.7578 13.1719 9.94922 13.1133V11.1797C9.75 11.1562 9.59766 11.1328 9.31641 11.1328C8.41406 11.1328 7.93359 11.4023 7.83984 11.5898ZM9.94922 11.1797C10.7578 11.2617 11.3555 11.4609 12.1289 11.6836V9.72656C11.4023 9.50391 10.7578 9.29297 9.94922 9.21094V11.1797Z" fill="black" fill-opacity="0.85"/>
</svg>
