<svg width="22" height="22" viewBox="0 0 22 22" fill="none" xmlns="http://www.w3.org/2000/svg">
<path d="M3.67969 21.5977H17.8945C20.3555 21.5977 21.5742 20.3789 21.5742 17.9648V3.65625C21.5742 1.24219 20.3555 0.0234375 17.8945 0.0234375H3.67969C1.23047 0.0234375 0 1.23047 0 3.65625V17.9648C0 20.3906 1.23047 21.5977 3.67969 21.5977Z" fill="#FFCC00"/>
<path d="M6.19922 17.2852C5.90625 17.2852 5.63672 17.0156 5.63672 16.7227V6.58594C5.63672 6.07031 5.88281 5.68359 6.375 5.46094C6.80859 5.26172 7.19531 5.15625 8.13281 5.15625C10.3008 5.15625 11.6836 6.23438 13.7227 6.23438C14.7188 6.23438 15.2461 5.97656 15.5977 5.97656C16.0898 5.97656 16.2773 6.23438 16.2773 6.58594V12.5391C16.2773 13.0898 16.043 13.4414 15.5391 13.6758C15.0938 13.8867 14.707 13.9805 13.7812 13.9805C11.6953 13.9805 10.3359 12.9258 8.19141 12.9258C7.45312 12.9258 6.97266 13.0664 6.75 13.1602V16.7227C6.75 17.0273 6.52734 17.2852 6.19922 17.2852Z" fill="black" fill-opacity="0.85"/>
</svg>
