<svg width="44" height="28" viewBox="0 0 44 28" fill="none" xmlns="http://www.w3.org/2000/svg">
<path d="M16.0048 25.4631C16.4384 25.7092 16.9658 25.5686 17.2001 25.135L24.5361 12.4436C25.0869 12.6545 25.9423 12.9475 26.9033 13.4865C29.7392 15.1389 30.8525 17.7404 33.7822 19.4397C34.6259 19.9436 35.54 20.3069 36.2314 20.3889C37.0751 20.4709 37.8134 20.2131 38.3408 19.299L43.0517 11.1311C43.4267 10.4865 43.1455 9.90058 42.5478 9.54902C42.0322 9.25605 40.9423 8.98652 39.7001 8.27168C36.8525 6.63105 35.7509 4.01777 32.8212 2.31855C31.9775 1.82636 31.0517 1.46308 30.3603 1.38105C29.5283 1.29902 28.79 1.56855 28.2626 2.48261L15.6767 24.2444C15.4306 24.6662 15.583 25.217 16.0048 25.4631ZM36.7939 11.8459C35.7626 11.1194 34.9423 10.299 34.122 9.39668L35.4931 7.02949C36.2783 7.86152 37.0986 8.69355 38.1884 9.42011L36.7939 11.8459ZM31.4853 6.92402C31.204 6.7248 30.8408 6.49043 30.5947 6.33808C29.622 5.77558 28.8603 5.62324 28.4384 5.70527L29.915 3.13886C30.747 3.17402 31.6259 3.67793 31.9306 3.85371C32.2705 4.05293 32.5869 4.26386 32.8798 4.4748L31.4853 6.92402ZM38.1767 16.0412C37.5439 15.8772 36.7822 15.5608 35.9384 15.0686C35.6455 14.9045 35.4228 14.7756 35.2001 14.6115L36.7939 11.8459C37.04 11.9865 37.2744 12.1623 37.5322 12.3029C38.4697 12.8537 39.3017 13.1467 39.7822 13.2756L38.1767 16.0412ZM32.5283 12.174C31.6259 11.2365 30.9228 10.4514 29.8798 9.67793L31.4853 6.92402C32.5517 7.68574 33.2783 8.51777 34.122 9.39668L32.5283 12.174ZM33.6767 17.2483C32.6806 16.4983 31.8837 15.5959 31.0634 14.7053L32.5283 12.174C33.372 13.1115 34.1572 13.8498 35.2001 14.6115L33.6767 17.2483ZM28.3564 12.3029C28.1689 12.174 27.9814 12.0686 27.7822 11.9514C27.1259 11.5764 26.2119 11.0608 25.4619 10.8498L26.8447 8.4709C27.2431 8.40058 28.0165 8.55293 29.0009 9.11543C29.3876 9.32636 29.5869 9.46699 29.8798 9.67793L28.3564 12.3029Z" fill="#007AFF"/>
<path d="M30.1028 23.5647L17.5168 1.79123C16.7786 0.525603 15.5833 -0.130647 14.0715 0.0216962C13.1809 0.127165 12.0559 0.560759 11.0833 1.1467C7.71997 3.09201 6.68872 5.6467 4.20435 7.0881C3.10279 7.73263 2.05982 7.96701 1.35669 8.36545C0.114505 9.09201 -0.40112 10.4983 0.34888 11.8108L5.05982 19.9787C5.7981 21.2561 6.98169 21.9006 8.49341 21.7483C9.40747 21.6428 10.5325 21.1975 11.4934 20.6233C14.8684 18.6779 15.8879 16.1115 18.3723 14.6819C18.7708 14.4475 19.1458 14.2834 19.4622 14.1545L26.2004 25.8147C26.8215 26.9045 28.1926 27.2678 29.2708 26.635C30.3372 26.0256 30.7122 24.6428 30.1028 23.5647Z" fill="white"/>
<path d="M28.5913 25.4631C29.0014 25.217 29.1538 24.6662 28.9077 24.2444L16.3335 2.48261C15.8061 1.56855 15.0678 1.29902 14.2241 1.38105C13.5327 1.46308 12.6069 1.82636 11.7749 2.31855C8.84515 4.01777 7.73187 6.63105 4.88422 8.27168C3.64203 8.98652 2.55218 9.25605 2.03656 9.54902C1.4389 9.90058 1.16937 10.4865 1.53265 11.1311L6.24359 19.299C6.77093 20.2131 7.50922 20.4709 8.35297 20.3889C9.04437 20.3069 9.97015 19.9436 10.8022 19.4397C13.7436 17.7404 14.8452 15.1389 17.6928 13.4865C18.642 12.9475 19.5092 12.6545 20.06 12.4436L27.3842 25.135C27.6303 25.5686 28.1577 25.7092 28.5913 25.4631ZM13.0991 6.92402L11.7045 4.4748C11.9975 4.26386 12.3139 4.05293 12.6538 3.85371C12.9585 3.67793 13.8374 3.17402 14.6811 3.13886L16.1577 5.70527C15.7358 5.62324 14.9624 5.77558 13.9897 6.33808C13.7436 6.49043 13.3803 6.7248 13.0991 6.92402ZM16.228 12.3029L14.7045 9.67793C14.9975 9.46699 15.2085 9.32636 15.5835 9.11543C16.5795 8.55293 17.3413 8.40058 17.7514 8.4709L19.1225 10.8498C18.3725 11.0608 17.4585 11.5764 16.8022 11.9514C16.603 12.0686 16.4155 12.174 16.228 12.3029ZM12.0561 12.174L10.4624 9.39668C11.3061 8.51777 12.0444 7.68574 13.0991 6.92402L14.7045 9.67793C13.6733 10.4514 12.9702 11.2365 12.0561 12.174ZM7.80218 11.8459L6.40765 9.42011C7.4975 8.69355 8.31781 7.86152 9.09125 7.02949L10.4624 9.39668C9.64203 10.299 8.83343 11.1194 7.80218 11.8459ZM10.9194 17.2483L9.39593 14.6115C10.4272 13.8498 11.2124 13.1115 12.0561 12.174L13.521 14.7053C12.7006 15.5959 11.9155 16.4983 10.9194 17.2483ZM6.40765 16.0412L4.8139 13.2756C5.29437 13.1467 6.11468 12.8537 7.0639 12.3029C7.32172 12.1623 7.54437 11.9865 7.80218 11.8459L9.39593 14.6115C9.17328 14.7756 8.95062 14.9045 8.65765 15.0686C7.80218 15.5608 7.05218 15.8772 6.40765 16.0412Z" fill="black" fill-opacity="0.85"/>
</svg>
