<svg width="24" height="24" viewBox="0 0 24 24" fill="none" xmlns="http://www.w3.org/2000/svg">
<path d="M11.9531 23.9062C18.4922 23.9062 23.9062 18.4805 23.9062 11.9531C23.9062 5.41406 18.4805 0 11.9414 0C5.41406 0 0 5.41406 0 11.9531C0 18.4805 5.42578 23.9062 11.9531 23.9062Z" fill="#FFCC00"/>
<path d="M14.6253 16.9922C14.3792 17.1328 14.0745 17.0625 13.9339 16.793L10.9573 11.6602C10.7347 11.7539 10.4417 11.8477 10.1136 12.0469C8.98856 12.6797 8.51981 13.7695 7.25419 14.4961C6.91434 14.707 6.49247 14.918 6.05887 14.918C5.64872 14.918 5.36747 14.7305 5.16825 14.3672L3.22294 11.0156C3.012 10.6641 3.18778 10.3242 3.50419 10.1484C3.71512 10.0312 4.14872 9.91406 4.66434 9.60938C5.81278 8.95312 6.25809 7.89844 7.52372 7.16016C7.887 6.94922 8.29716 6.76172 8.62528 6.76172C9.00028 6.76172 9.35184 6.85547 9.60966 7.27734L14.8128 16.2891C14.9534 16.5352 14.8714 16.8516 14.6253 16.9922ZM17.7894 14.918C17.3558 14.918 16.9456 14.707 16.5941 14.4961C15.3753 13.8047 14.5901 12.3047 13.2073 11.7773L12.4222 10.4414L14.2503 7.28906C14.4964 6.85547 14.8597 6.76172 15.2347 6.76172C15.5628 6.76172 15.9612 6.94922 16.3362 7.16016C17.6019 7.89844 18.0355 8.95312 19.1956 9.60938C19.6995 9.91406 20.1448 10.0312 20.3558 10.1484C20.6722 10.3359 20.848 10.6641 20.637 11.0156L18.6917 14.3672C18.4808 14.7305 18.2112 14.918 17.7894 14.918ZM9.23466 16.9922C8.97684 16.8516 8.90653 16.5352 9.04716 16.2891L10.8519 13.1836L11.4378 14.1914L9.92606 16.793C9.78544 17.0625 9.48075 17.1445 9.23466 16.9922Z" fill="black" fill-opacity="0.85"/>
</svg>
