<svg width="21" height="24" viewBox="0 0 21 24" fill="none" xmlns="http://www.w3.org/2000/svg">
<path d="M0.890625 23.0039C1.38281 23.0039 1.78125 22.6172 1.78125 22.125V15.6094C2.07422 15.4805 3.17578 15.0586 4.89844 15.0586C9.23438 15.0586 11.9531 17.1797 16.0781 17.1797C17.9062 17.1797 18.5859 16.9805 19.4766 16.582C20.2852 16.2188 20.8125 15.6094 20.8125 14.5312V2.63672C20.8125 2.00391 20.2734 1.64062 19.5938 1.64062C19.0195 1.64062 17.9414 2.13281 15.9258 2.13281C11.8008 2.13281 9.09375 0.0117188 4.74609 0.0117188C2.91797 0.0117188 2.22656 0.210938 1.33594 0.609375C0.527344 0.972656 0 1.58203 0 2.64844V22.125C0 22.6055 0.410156 23.0039 0.890625 23.0039ZM1.78125 10.2539V6.28125C1.94531 5.89453 2.91797 5.35547 4.74609 5.35547C5.12109 5.35547 5.63672 5.37891 6.04688 5.42578V1.85156C7.62891 2.01562 9.02344 2.47266 10.4531 2.89453V6.46875C11.9062 6.91406 13.2656 7.28906 14.8477 7.42969V3.85547C15.1992 3.89062 15.5508 3.90234 15.9258 3.90234C17.2031 3.90234 18.2578 3.75 19.043 3.52734V7.10156C18.457 7.26562 17.332 7.47656 15.9258 7.47656C15.5625 7.47656 15.1875 7.45312 14.8477 7.42969V11.4023C15.1875 11.4375 15.5156 11.4492 15.9258 11.4492C17.2031 11.4492 18.2578 11.2969 19.043 11.0742V14.4844C18.8789 14.8711 17.9062 15.4102 16.0781 15.4102C15.6562 15.4102 15.2461 15.3867 14.8477 15.3398V11.4023C13.2656 11.2266 11.9531 10.9336 10.4531 10.4414V14.2734C9.09375 13.8633 7.6875 13.4648 6.04688 13.3242V9.39844C5.60156 9.35156 5.29688 9.32812 4.74609 9.32812C2.91797 9.32812 1.94531 9.86719 1.78125 10.2539ZM6.04688 9.39844C7.66406 9.57422 8.89453 9.98438 10.4531 10.4414V6.46875C8.98828 6.03516 7.67578 5.58984 6.04688 5.42578V9.39844Z" fill="black" fill-opacity="0.85"/>
</svg>
