<svg width="25" height="31" viewBox="0 0 25 31" fill="none" xmlns="http://www.w3.org/2000/svg">
<path d="M2.8623 26.6279C3.35449 26.6279 3.75293 26.2412 3.75293 25.749V19.2334C4.0459 19.1045 5.14746 18.6826 6.87012 18.6826C11.2061 18.6826 13.9248 20.8037 18.0498 20.8037C19.8779 20.8037 20.5576 20.6045 21.4482 20.2061C22.2568 19.8428 22.7842 19.2334 22.7842 18.1553V6.26074C22.7842 5.62793 22.2451 5.26465 21.5654 5.26465C20.9912 5.26465 19.9131 5.75684 17.8975 5.75684C13.7725 5.75684 11.0654 3.63574 6.71777 3.63574C4.88965 3.63574 4.19824 3.83496 3.30762 4.2334C2.49902 4.59668 1.97168 5.20605 1.97168 6.27246V25.749C1.97168 26.2295 2.38184 26.6279 2.8623 26.6279ZM18.0498 19.0342C14.1475 19.0342 11.3818 16.9131 6.87012 16.9131C5.58105 16.9131 4.40918 17.0654 3.75293 17.335V6.33105C3.91699 5.94434 4.88965 5.40527 6.71777 5.40527C10.8428 5.40527 13.5967 7.52637 17.8975 7.52637C19.1748 7.52637 20.2295 7.37402 21.0146 7.15137V18.1084C20.8506 18.4951 19.8779 19.0342 18.0498 19.0342Z" fill="#007AFF"/>
<path d="M21.0381 24.2256C21.9287 25.1162 23.3818 25.1162 24.2607 24.2021C25.1279 23.3115 25.1279 21.8936 24.249 21.0146L3.88184 0.65918C3.00293 -0.219727 1.5498 -0.219727 0.65918 0.65918C-0.219727 1.53809 -0.219727 3.00293 0.65918 3.88184L21.0381 24.2256Z" fill="white"/>
<path d="M21.999 23.2646C22.3623 23.6162 22.9365 23.6162 23.2764 23.2646C23.6279 22.9014 23.6396 22.3389 23.2764 21.9873L2.9209 1.63184C2.56934 1.28027 1.9834 1.28027 1.63184 1.63184C1.29199 1.97168 1.29199 2.56934 1.63184 2.90918L21.999 23.2646Z" fill="black" fill-opacity="0.85"/>
</svg>
