<svg width="24" height="24" viewBox="0 0 24 24" fill="none" xmlns="http://www.w3.org/2000/svg">
<path d="M11.9531 23.9062C18.4922 23.9062 23.9062 18.4805 23.9062 11.9531C23.9062 5.41406 18.4805 0 11.9414 0C5.41406 0 0 5.41406 0 11.9531C0 18.4805 5.42578 23.9062 11.9531 23.9062ZM11.9531 21.9141C6.42188 21.9141 2.00391 17.4844 2.00391 11.9531C2.00391 6.42188 6.41016 1.99219 11.9414 1.99219C17.4727 1.99219 21.9141 6.42188 21.9141 11.9531C21.9141 17.4844 17.4844 21.9141 11.9531 21.9141Z" fill="#007AFF"/>
<path d="M12 19.207C15.3633 19.207 17.6016 16.9219 17.6016 13.5C17.6016 7.79297 12.75 5.41406 9.38672 5.41406C8.78906 5.41406 8.41406 5.64844 8.41406 6.04688C8.41406 6.21094 8.48438 6.36328 8.61328 6.52734C9.35156 7.41797 10.125 8.49609 10.1367 9.75C10.1367 10.0547 10.1016 10.3008 9.90234 10.6523L10.2188 10.5938C9.92578 9.65625 9.16406 8.98828 8.48438 8.98828C8.22656 8.98828 8.05078 9.1875 8.05078 9.46875C8.05078 9.62109 8.09766 10.0195 8.09766 10.3125C8.09766 11.7305 7.00781 12.5742 7.00781 14.8594C7.00781 17.4609 8.98828 19.207 12 19.207ZM12.1523 17.4141C10.9688 17.4141 10.1602 16.6875 10.1602 15.6094C10.1602 14.4961 10.9688 14.0977 11.0742 13.3828C11.0742 13.3125 11.1211 13.3008 11.168 13.3477C11.4609 13.5938 11.6367 13.9219 11.8125 14.2852C12.1523 13.8281 12.3047 12.8672 12.1992 11.8359C12.1875 11.7539 12.2227 11.7422 12.2812 11.7539C13.6875 12.4102 14.3906 13.8047 14.3906 15.0352C14.3906 16.2891 13.6641 17.4141 12.1523 17.4141Z" fill="black" fill-opacity="0.85"/>
</svg>
