<svg width="24" height="24" viewBox="0 0 24 24" fill="none" xmlns="http://www.w3.org/2000/svg">
<path d="M11.9531 23.9062C18.4922 23.9062 23.9062 18.4805 23.9062 11.9531C23.9062 5.41406 18.4805 0 11.9414 0C5.41406 0 0 5.41406 0 11.9531C0 18.4805 5.42578 23.9062 11.9531 23.9062ZM11.9531 21.9141C6.42188 21.9141 2.00391 17.4844 2.00391 11.9531C2.00391 6.42188 6.41016 1.99219 11.9414 1.99219C17.4727 1.99219 21.9141 6.42188 21.9141 11.9531C21.9141 17.4844 17.4844 21.9141 11.9531 21.9141Z" fill="#007AFF"/>
<path d="M8.82422 5.89453H15.082V5.67188C15.082 4.83984 14.6719 4.41797 13.8398 4.41797H10.0547C9.23438 4.41797 8.82422 4.83984 8.82422 5.67188V5.89453ZM11.3438 19.4883H12.5508C13.3477 19.4883 13.7812 19.0547 13.7812 18.2344V10.8516C13.7812 10.1367 13.9336 9.65625 14.1914 9.25781L14.5547 8.69531C14.8711 8.20312 15.082 7.76953 15.082 7.20703V6.60938H8.82422V7.20703C8.82422 7.76953 9.03516 8.20312 9.35156 8.69531L9.71484 9.25781C9.97266 9.65625 10.1367 10.1367 10.1367 10.8516V18.2344C10.1367 19.0547 10.5586 19.4883 11.3438 19.4883Z" fill="black" fill-opacity="0.85"/>
<path d="M16.6523 18.5742C17.1914 19.1016 18.0586 19.1133 18.5742 18.5742C19.125 18.0352 19.1133 17.2031 18.5742 16.6641L7.23047 5.32031C6.69141 4.78125 5.83594 4.78125 5.30859 5.32031C4.76953 5.84766 4.76953 6.71484 5.30859 7.24219L16.6523 18.5742Z" fill="white"/>
<path d="M17.2378 18C17.437 18.1992 17.7886 18.1992 17.9878 18C18.1987 17.7773 18.1987 17.4609 17.9878 17.25L6.6558 5.90625C6.44486 5.69531 6.10502 5.69531 5.89408 5.90625C5.68314 6.10547 5.69486 6.45703 5.89408 6.65625L17.2378 18Z" fill="black" fill-opacity="0.85"/>
</svg>
