<svg width="22" height="28" viewBox="0 0 22 28" fill="none" xmlns="http://www.w3.org/2000/svg">
<path d="M5.13574 2.70703H16.6318V2.30859C16.6318 0.75 15.8818 0 14.3818 0H7.39746C5.89746 0 5.13574 0.75 5.13574 2.30859V2.70703ZM9.78809 27.7031H11.9795C13.4561 27.7031 14.2412 26.918 14.2412 25.3945V11.8008C14.2412 10.5 14.5342 9.62109 15.0029 8.89453L15.6709 7.85156C16.2451 6.94922 16.6318 6.17578 16.6318 5.13281V4.06641H5.13574V5.13281C5.13574 6.17578 5.52246 6.94922 6.09668 7.85156L6.76465 8.89453C7.2334 9.62109 7.53809 10.5 7.53809 11.8008V25.3945C7.53809 26.918 8.31152 27.7031 9.78809 27.7031ZM8.81543 16.4531V12.9141C8.81543 11.7656 9.72949 10.8516 10.8896 10.8516C12.0498 10.8516 12.9639 11.7656 12.9639 12.9141V16.4531C12.9639 17.6133 12.0498 18.5156 10.8896 18.5156C9.72949 18.5156 8.81543 17.6133 8.81543 16.4531Z" fill="#007AFF"/>
<path d="M0.65918 7.48829L17.9326 24.7266C18.8232 25.6172 20.2764 25.6172 21.1553 24.7031C22.0225 23.8125 22.0342 22.3828 21.1436 21.5156L3.88184 4.27735C3.00293 3.38673 1.5498 3.37501 0.65918 4.27735C-0.219727 5.14454 -0.219727 6.60939 0.65918 7.48829Z" fill="white"/>
<path d="M1.63184 6.51562L18.8936 23.7539C19.2451 24.1172 19.8311 24.1172 20.1709 23.7539C20.5225 23.4023 20.5225 22.8398 20.1709 22.4883L2.9209 5.23828C2.56934 4.88672 1.9834 4.88672 1.63184 5.23828C1.29199 5.57812 1.29199 6.17578 1.63184 6.51562Z" fill="black" fill-opacity="0.85"/>
</svg>
