<svg width="12" height="28" viewBox="0 0 12 28" fill="none" xmlns="http://www.w3.org/2000/svg">
<path d="M0 2.70703H11.4961V2.30859C11.4961 0.75 10.7344 0 9.23438 0H2.25C0.75 0 0 0.75 0 2.30859V2.70703ZM4.65234 27.7031H6.84375C8.32031 27.7031 9.10547 26.918 9.10547 25.3945V11.8008C9.10547 10.5 9.39844 9.62109 9.86719 8.89453L10.5352 7.85156C11.1094 6.94922 11.4961 6.17578 11.4961 5.13281V4.06641H0V5.13281C0 6.17578 0.386719 6.94922 0.960938 7.85156L1.62891 8.89453C2.09766 9.62109 2.39062 10.5 2.39062 11.8008V25.3945C2.39062 26.918 3.17578 27.7031 4.65234 27.7031ZM3.67969 16.4531V12.9141C3.67969 11.7656 4.58203 10.8516 5.75391 10.8516C6.91406 10.8516 7.81641 11.7656 7.81641 12.9141V16.4531C7.81641 17.6133 6.91406 18.5156 5.75391 18.5156C4.58203 18.5156 3.67969 17.6133 3.67969 16.4531ZM5.75391 11.5898C4.98047 11.5898 4.40625 12.1523 4.40625 12.9141C4.40625 13.6523 5.00391 14.25 5.75391 14.25C6.49219 14.25 7.08984 13.6523 7.08984 12.9141C7.08984 12.1523 6.52734 11.5898 5.75391 11.5898Z" fill="black" fill-opacity="0.85"/>
</svg>
