<svg width="24" height="24" viewBox="0 0 24 24" fill="none" xmlns="http://www.w3.org/2000/svg">
<path d="M11.9531 23.9062C18.4922 23.9062 23.9062 18.4805 23.9062 11.9531C23.9062 5.41406 18.4805 0 11.9414 0C5.41406 0 0 5.41406 0 11.9531C0 18.4805 5.42578 23.9062 11.9531 23.9062ZM11.9531 21.9141C6.42188 21.9141 2.00391 17.4844 2.00391 11.9531C2.00391 6.42188 6.41016 1.99219 11.9414 1.99219C17.4727 1.99219 21.9141 6.42188 21.9141 11.9531C21.9141 17.4844 17.4844 21.9141 11.9531 21.9141Z" fill="#007AFF"/>
<path d="M8.82422 5.89453H15.082V5.67188C15.082 4.83984 14.6719 4.41797 13.8398 4.41797H10.0547C9.23438 4.41797 8.82422 4.83984 8.82422 5.67188V5.89453ZM11.3438 19.4883H12.5508C13.3477 19.4883 13.7812 19.0547 13.7812 18.2344V10.8516C13.7812 10.1367 13.9336 9.65625 14.1914 9.25781L14.5547 8.69531C14.8711 8.20312 15.082 7.76953 15.082 7.20703V6.60938H8.82422V7.20703C8.82422 7.76953 9.03516 8.20312 9.35156 8.69531L9.71484 9.25781C9.97266 9.65625 10.1367 10.1367 10.1367 10.8516V18.2344C10.1367 19.0547 10.5586 19.4883 11.3438 19.4883ZM10.8281 13.3711V11.4492C10.8281 10.8281 11.3203 10.3242 11.9531 10.3242C12.5859 10.3242 13.0781 10.8281 13.0781 11.4492V13.3711C13.0781 14.0039 12.5859 14.4961 11.9531 14.4961C11.3203 14.4961 10.8281 14.0039 10.8281 13.3711ZM11.9531 10.7344C11.543 10.7344 11.2383 11.0508 11.2383 11.4492C11.2383 11.8477 11.5547 12.1758 11.9531 12.1758C12.3633 12.1758 12.668 11.8477 12.668 11.4492C12.668 11.0508 12.3867 10.7344 11.9531 10.7344Z" fill="black" fill-opacity="0.85"/>
</svg>
