<svg width="17" height="25" viewBox="0 0 17 25" fill="none" xmlns="http://www.w3.org/2000/svg">
<path d="M8.20312 24.1523C13.2539 24.1523 16.3945 21.2461 16.3945 16.1953V6.57422C16.3945 4.71094 15.1641 3.52734 13.207 3.52734H1.88672V0.960938C1.88672 0.445312 1.46484 0.0117188 0.9375 0.0117188C0.421875 0.0117188 0 0.445312 0 0.960938V16.1953C0 21.2461 3.14062 24.1523 8.20312 24.1523ZM8.20312 22.3125C4.34766 22.3125 1.88672 20.1211 1.88672 16.3242V5.41406H12.9609C13.9453 5.41406 14.5078 5.95312 14.5078 6.87891V16.3242C14.5078 20.1211 12.0586 22.3125 8.20312 22.3125ZM4.08984 14.4961H12.3047C12.9492 14.4961 13.3359 14.1094 13.3359 13.4883V7.60547C13.3359 6.97266 12.9492 6.58594 12.3047 6.58594H4.08984C3.45703 6.58594 3.05859 6.97266 3.05859 7.60547V13.4883C3.05859 14.1094 3.45703 14.4961 4.08984 14.4961ZM6.53906 20.2969H9.79688C10.2422 20.2969 10.5938 19.9453 10.5938 19.5C10.5938 19.0547 10.2422 18.7031 9.79688 18.7031H6.53906C6.10547 18.7031 5.74219 19.0547 5.74219 19.5C5.74219 19.9453 6.10547 20.2969 6.53906 20.2969Z" fill="black" fill-opacity="0.85"/>
</svg>
