<svg width="24" height="24" viewBox="0 0 24 24" fill="none" xmlns="http://www.w3.org/2000/svg">
<path d="M11.9531 23.9062C18.4922 23.9062 23.9062 18.4805 23.9062 11.9531C23.9062 5.41406 18.4805 0 11.9414 0C5.41406 0 0 5.41406 0 11.9531C0 18.4805 5.42578 23.9062 11.9531 23.9062ZM11.9531 21.9141C6.42188 21.9141 2.00391 17.4844 2.00391 11.9531C2.00391 6.42188 6.41016 1.99219 11.9414 1.99219C17.4727 1.99219 21.9141 6.42188 21.9141 11.9531C21.9141 17.4844 17.4844 21.9141 11.9531 21.9141Z" fill="#007AFF"/>
<path d="M9.15234 17.5898C10.9336 17.5898 11.918 16.6641 12.2344 14.7188L12.6211 12.293H15.082C15.4688 12.293 15.7266 12.0469 15.7266 11.6836C15.7266 11.2969 15.4688 11.0391 15.082 11.0391H12.8203L13.1016 9.25781C13.2891 8.12109 13.7695 7.64062 14.8008 7.64062C15.1406 7.64062 15.293 7.67578 15.4805 7.71094C15.5742 7.73438 15.6797 7.74609 15.8086 7.74609C16.2305 7.74609 16.4766 7.47656 16.4766 7.125C16.4766 6.79688 16.2891 6.53906 15.8906 6.39844C15.6094 6.29297 15.2227 6.24609 14.7305 6.24609C12.9492 6.24609 11.9648 7.18359 11.6484 9.12891L11.3438 11.0391H8.98828C8.60156 11.0391 8.35547 11.2969 8.35547 11.6836C8.35547 12.0469 8.58984 12.293 8.98828 12.293H11.1562L10.793 14.5312C10.5938 15.7148 10.1133 16.207 9.08203 16.207C8.73047 16.207 8.58984 16.1602 8.40234 16.125C8.29688 16.1016 8.20312 16.0898 8.0625 16.0898C7.64062 16.0898 7.39453 16.3594 7.39453 16.7109C7.39453 17.0508 7.58203 17.2969 7.98047 17.4375C8.26172 17.5547 8.64844 17.5898 9.15234 17.5898Z" fill="black" fill-opacity="0.85"/>
</svg>
