<svg width="24" height="24" viewBox="0 0 24 24" fill="none" xmlns="http://www.w3.org/2000/svg">
<path d="M11.9531 23.9062C18.4922 23.9062 23.9062 18.4805 23.9062 11.9531C23.9062 5.41406 18.4805 0 11.9414 0C5.41406 0 0 5.41406 0 11.9531C0 18.4805 5.42578 23.9062 11.9531 23.9062Z" fill="#FFCC00"/>
<path d="M9.07031 17.7773C8.55469 17.7773 8.15625 17.7422 7.86328 17.6133C7.45312 17.4727 7.25391 17.2148 7.25391 16.8633C7.25391 16.5 7.51172 16.2188 7.94531 16.2188C8.09766 16.2188 8.19141 16.2305 8.29688 16.2539C8.49609 16.2891 8.63672 16.3359 9 16.3359C10.0664 16.3359 10.5586 15.832 10.7695 14.6133L11.1445 12.3047H8.90625C8.49609 12.3047 8.25 12.0586 8.25 11.6836C8.25 11.2734 8.50781 11.0156 8.90625 11.0156H11.332L11.6484 9.03516C11.9766 7.03125 12.9961 6.05859 14.8359 6.05859C15.3398 6.05859 15.7383 6.10547 16.0312 6.22266C16.4414 6.36328 16.6406 6.63281 16.6406 6.97266C16.6406 7.33594 16.3828 7.61719 15.9492 7.61719C15.8086 7.61719 15.7031 7.60547 15.6094 7.58203C15.4102 7.54688 15.2578 7.51172 14.9062 7.51172C13.8398 7.51172 13.3477 8.00391 13.1484 9.17578L12.8672 11.0156H15.1875C15.5977 11.0156 15.8555 11.2734 15.8555 11.6836C15.8555 12.0586 15.5977 12.3047 15.1875 12.3047H12.6562L12.2578 14.8125C11.9297 16.8164 10.9102 17.7773 9.07031 17.7773Z" fill="black" fill-opacity="0.85"/>
</svg>
