<svg width="34" height="23" viewBox="0 0 34 23" fill="none" xmlns="http://www.w3.org/2000/svg">
<path d="M0 11.4258C0 15.1406 1.20703 18.5508 3.24609 21.3281C3.60938 21.832 4.23047 21.8789 4.69922 21.5039C5.12109 21.1406 5.17969 20.5781 4.83984 20.1094C3.05859 17.6836 2.00391 14.6719 2.00391 11.4258C2.00391 8.16793 3.05859 5.16793 4.83984 2.71871C5.17969 2.2734 5.13281 1.69918 4.69922 1.3359C4.23047 0.960895 3.60938 1.01949 3.24609 1.51168C1.20703 4.28902 0 7.7109 0 11.4258ZM33.4453 11.4258C33.4453 7.7109 32.25 4.28902 30.1992 1.51168C29.8359 1.01949 29.2148 0.960895 28.7461 1.3359C28.3125 1.69918 28.2773 2.2734 28.6055 2.71871C30.3984 5.16793 31.4414 8.16793 31.4414 11.4258C31.4414 14.6719 30.3984 17.6836 28.6055 20.1094C28.2773 20.5781 28.3242 21.1406 28.7461 21.5039C29.2148 21.8789 29.8359 21.832 30.1992 21.3281C32.25 18.5508 33.4453 15.1406 33.4453 11.4258Z" fill="#007AFF"/>
<path d="M16.7227 21.3867C21.3516 21.3867 25.3125 18.1055 26.2852 13.9336C25.5938 14.7773 24.5156 15.2578 23.332 15.2578C22.1953 15.2578 21.1523 14.8125 20.4375 14.0273C20.1797 13.7344 19.8867 13.7227 19.6289 14.0273C18.9727 14.7773 17.8945 15.2578 16.7109 15.2578C15.5273 15.2578 14.4609 14.7773 13.793 14.0273C13.5352 13.7227 13.2539 13.7344 12.9844 14.0273C12.2812 14.8125 11.2383 15.2578 10.1016 15.2578C8.90624 15.2578 7.82812 14.7773 7.13672 13.9336C8.15625 18.1289 12.1055 21.3867 16.7227 21.3867ZM16.7227 22.8516C22.9688 22.8516 28.1602 17.6719 28.1602 11.4258C28.1602 5.17969 22.9688 0 16.7109 0C10.4648 0 5.29688 5.16797 5.29688 11.4258C5.29688 17.6719 10.4766 22.8516 16.7227 22.8516ZM16.7227 20.8594C11.4961 20.8594 7.30078 16.6641 7.30078 11.4258C7.30078 6.17578 11.4844 1.98047 16.7109 1.98047C21.9492 1.98047 26.1562 6.17578 26.168 11.4258C26.1797 16.6523 21.9727 20.8594 16.7227 20.8594Z" fill="black" fill-opacity="0.85"/>
</svg>
