<svg width="27" height="22" viewBox="0 0 27 22" fill="none" xmlns="http://www.w3.org/2000/svg">
<path d="M3.67969 21.4453H23.2852C25.3828 21.4453 26.6133 20.2266 26.6133 17.8125V5.77734C26.6133 3.36328 25.3711 2.14453 22.9336 2.14453H11.6836C10.8867 2.14453 10.4062 1.95703 9.82031 1.45312L9.10547 0.867188C8.33203 0.210938 7.73438 0 6.57422 0H3.23438C1.18359 0 0 1.17188 0 3.52734V17.8125C0 20.2383 1.23047 21.4453 3.67969 21.4453ZM3.70312 19.5586C2.53125 19.5586 1.88672 18.9375 1.88672 17.7188V3.63281C1.88672 2.47266 2.49609 1.875 3.62109 1.875H6.09375C6.86719 1.875 7.33594 2.07422 7.93359 2.57812L8.64844 3.17578C9.41016 3.80859 10.0312 4.03125 11.1914 4.03125H22.8984C24.0586 4.03125 24.7266 4.66406 24.7266 5.88281V17.7305C24.7266 18.9375 24.0586 19.5586 22.8984 19.5586H3.70312ZM1.14844 8.32031H25.4531V6.55078H1.14844V8.32031Z" fill="black" fill-opacity="0.85"/>
</svg>
