<svg width="24" height="24" viewBox="0 0 24 24" fill="none" xmlns="http://www.w3.org/2000/svg">
<path d="M11.9531 23.9062C18.4922 23.9062 23.9062 18.4805 23.9062 11.9531C23.9062 5.41406 18.4805 0 11.9414 0C5.41406 0 0 5.41406 0 11.9531C0 18.4805 5.42578 23.9062 11.9531 23.9062Z" fill="#FFCC00"/>
<path d="M9.33974 19.8633C8.77724 19.8633 8.41396 19.5586 8.42568 18.9961L8.56631 11.332C8.56631 11.0977 8.46084 10.9102 8.2499 10.8164C7.33584 10.4297 6.94912 10.0195 7.00771 8.8125L7.19521 4.62891C7.20693 4.32422 7.38271 4.14844 7.65224 4.14844C7.93349 4.14844 8.09756 4.33594 8.09756 4.64062L8.03896 8.73047C8.03896 8.95312 8.20302 9.11719 8.41396 9.11719C8.66006 9.11719 8.8124 8.95312 8.8124 8.74219L8.88271 4.53516C8.88271 4.23047 9.07021 4.06641 9.33974 4.06641C9.60928 4.06641 9.80849 4.23047 9.80849 4.53516L9.85537 8.74219C9.85537 8.95312 10.0194 9.11719 10.2538 9.11719C10.4882 9.11719 10.6522 8.95312 10.6522 8.73047L10.5937 4.64062C10.5937 4.33594 10.7577 4.14844 11.0272 4.14844C11.3085 4.14844 11.4608 4.32422 11.4843 4.62891L11.6835 8.8125C11.7421 10.0195 11.3437 10.4297 10.4413 10.8164C10.2304 10.9102 10.1366 11.0977 10.1366 11.332L10.2538 18.9961C10.2772 19.5586 9.91396 19.8633 9.33974 19.8633ZM14.2265 14.0625C14.2382 13.8047 14.121 13.6172 13.8749 13.4531L13.4882 13.1719C13.1483 12.9258 12.9608 12.5977 12.9608 12.1172V11.6602C12.9608 8.94141 13.6874 6.05859 14.789 4.52344C14.9999 4.20703 15.1874 4.06641 15.4335 4.06641C15.6796 4.06641 15.9257 4.21875 15.9257 4.57031V19.0312C15.9257 19.582 15.5741 19.8633 14.9882 19.8633C14.4374 19.8633 14.0624 19.5586 14.0741 18.9609L14.2265 14.0625Z" fill="black" fill-opacity="0.85"/>
</svg>
