<svg width="22" height="20" viewBox="0 0 22 20" fill="none" xmlns="http://www.w3.org/2000/svg">
<path d="M17.6602 19.0898H20.332C21.3633 19.0898 21.8906 18.5508 21.8906 17.5195V1.55859C21.8906 0.492188 21.3633 0 20.332 0H17.6602C16.6406 0 16.1016 0.539062 16.1016 1.55859V17.5195C16.1016 18.5508 16.6406 19.0898 17.6602 19.0898ZM1.6875 18.7383C2.16797 18.7383 2.55469 18.5859 3.03516 18.3047L14.9766 11.2852C15.8086 10.793 16.1602 10.207 16.1602 9.53906C16.1602 8.85938 15.8086 8.28516 14.9766 7.79297L3.03516 0.761719C2.55469 0.480469 2.16797 0.328125 1.6875 0.328125C0.761719 0.328125 0 1.03125 0 2.34375V16.7344C0 18.0469 0.761719 18.7383 1.6875 18.7383Z" fill="black" fill-opacity="0.85"/>
</svg>
