<svg width="26" height="20" viewBox="0 0 26 20" fill="none" xmlns="http://www.w3.org/2000/svg">
<path d="M4.23047 19.0898C5.26172 19.0898 5.78906 18.5508 5.78906 17.5195V1.55859C5.78906 0.539062 5.26172 0 4.23047 0H1.57031C0.539062 0 0 0.492188 0 1.55859V17.5195C0 18.5508 0.539062 19.0898 1.57031 19.0898H4.23047ZM11.1328 18.7383C11.6133 18.7383 12.0117 18.5859 12.4805 18.3047L24.4219 11.2852C25.2539 10.793 25.6055 10.207 25.6055 9.53906C25.6055 8.85938 25.2539 8.28516 24.4219 7.79297L12.4805 0.761719C12 0.480469 11.6133 0.328125 11.1328 0.328125C10.2188 0.328125 9.44531 1.03125 9.44531 2.34375V16.7344C9.44531 18.0469 10.2188 18.7383 11.1328 18.7383Z" fill="black" fill-opacity="0.85"/>
</svg>
