<svg width="35" height="20" viewBox="0 0 35 20" fill="none" xmlns="http://www.w3.org/2000/svg">
<path d="M33.2109 19.3711C33.7617 19.3711 34.207 18.9492 34.207 18.3984V0.996094C34.207 0.445312 33.7617 0.0117188 33.2109 0.0117188C32.6602 0.0117188 32.2031 0.445312 32.2031 0.996094V18.3984C32.2031 18.9492 32.6602 19.3711 33.2109 19.3711ZM1.6875 18.9023C2.16797 18.9023 2.55469 18.75 3.03516 18.4688L14.9766 11.4375C15.8086 10.9453 16.1602 10.3594 16.1602 9.69141C16.1602 9.02344 15.8086 8.4375 14.9766 7.94531L3.03516 0.914062C2.55469 0.632812 2.16797 0.480469 1.6875 0.480469C0.761719 0.480469 0 1.18359 0 2.49609V16.8867C0 18.1992 0.761719 18.9023 1.6875 18.9023ZM2.20312 16.7344C2.02734 16.7344 1.875 16.6172 1.875 16.3828V3C1.875 2.76562 2.02734 2.64844 2.20312 2.64844C2.27344 2.64844 2.36719 2.68359 2.48438 2.75391L13.6289 9.36328C13.793 9.45703 13.875 9.52734 13.875 9.69141C13.875 9.84375 13.7812 9.92578 13.6289 10.0195L2.48438 16.6289C2.36719 16.6992 2.27344 16.7344 2.20312 16.7344ZM17.7891 18.9023C18.2695 18.9023 18.668 18.75 19.1367 18.4688L31.0781 11.4375C31.9102 10.9453 32.2617 10.3594 32.2617 9.69141C32.2617 9.02344 31.9102 8.4375 31.0781 7.94531L19.1367 0.914062C18.6562 0.632812 18.2695 0.480469 17.7891 0.480469C16.875 0.480469 16.1016 1.18359 16.1016 2.49609V16.8867C16.1016 18.1992 16.875 18.9023 17.7891 18.9023ZM18.3047 16.7344C18.1289 16.7344 17.9883 16.6172 17.9883 16.3828V3C17.9883 2.76562 18.1289 2.64844 18.3047 2.64844C18.375 2.64844 18.4688 2.68359 18.5859 2.75391L29.7305 9.36328C29.8945 9.45703 29.9766 9.52734 29.9766 9.69141C29.9766 9.84375 29.8945 9.92578 29.7305 10.0195L18.5859 16.6289C18.4688 16.6992 18.375 16.7344 18.3047 16.7344Z" fill="black" fill-opacity="0.85"/>
</svg>
