<svg width="30" height="24" viewBox="0 0 30 24" fill="none" xmlns="http://www.w3.org/2000/svg">
<path d="M12.3281 14.1328C15.6914 14.1328 18.3047 11.4727 18.3047 7.72266C18.3047 5.95312 17.8008 4.35938 16.875 3.11719L14.6367 5.36719C15.1992 6.05859 15.5273 6.94922 15.5273 7.91016C15.5273 9.97266 14.0859 11.4609 12.2109 11.4609C10.6992 11.4609 9.50391 10.4648 9.50391 9.31641C9.50391 8.92969 9.82031 8.68359 10.1602 8.68359C10.4297 8.68359 10.6758 8.84766 10.7695 9.21094C10.9219 9.76172 11.3906 10.1836 12.1406 10.1836C13.3477 10.1836 14.0977 9.32812 14.0977 8.00391C14.0977 6.41016 12.75 5.16797 11.0156 5.16797C8.88281 5.16797 7.10156 6.99609 7.10156 9.31641C7.10156 12.0117 9.30469 14.1328 12.3281 14.1328ZM10.9922 3.70312C11.8945 3.71484 12.8438 3.96094 13.6172 4.44141L15.9609 2.10938C14.707 0.9375 12.9844 0.1875 10.9922 0.0585938V3.70312ZM7.54688 5.00391C8.15625 4.48828 8.85938 4.10156 9.63281 3.89062V0.0234375C7.65234 0.117188 5.85938 0.75 4.35938 1.79297L7.54688 5.00391ZM0.164062 8.61328H5.70703C5.78906 7.6875 6.14062 6.76172 6.65625 6.01172L3.29297 2.63672C1.67578 4.125 0.550781 6.1875 0.164062 8.61328ZM0 10.5938C0 13.3359 0.75 15.75 2.10938 17.7305L6.87891 12.9492C6.22266 12.082 5.8125 11.0625 5.68359 9.97266H0.0117188C0 10.1953 0 10.3945 0 10.5938ZM2.94141 18.8203C4.92188 21.0586 7.79297 22.5586 11.2852 23.0156V15.5039C9.92578 15.3281 8.73047 14.7656 7.80469 13.9336L2.94141 18.8203ZM12.6562 23.1445C12.9609 23.168 13.2891 23.168 13.6055 23.168C16.9805 23.168 20.0039 22.207 22.5117 20.4961L16.4062 14.4258C15.3984 15.0938 14.1328 15.5273 12.6562 15.5859V23.1445ZM23.5898 19.7109C26.4492 17.4023 28.4648 14.0508 29.3086 10.3594C29.5312 9.43359 28.8047 8.87109 28.0664 8.87109H19.6758C19.5469 10.4414 18.8203 12.2344 17.4492 13.5703L23.5898 19.7109Z" fill="black" fill-opacity="0.85"/>
</svg>
