<svg width="30" height="24" viewBox="0 0 30 24" fill="none" xmlns="http://www.w3.org/2000/svg">
<path d="M13.6523 23.168C21.6328 23.168 27.668 17.707 29.3086 10.3594C29.5078 9.50391 28.957 8.87109 28.0664 8.87109H17.3555V10.6758H28.2891L27.5625 10.043C25.9688 16.7344 20.543 21.375 13.6523 21.375C6.55078 21.375 1.78125 16.9453 1.78125 10.6055C1.78125 5.48438 5.41406 1.80469 10.2188 1.80469C13.9336 1.80469 16.582 4.21875 16.582 7.61719C16.582 10.4297 14.8125 12.4688 12.3281 12.4688C10.2305 12.4688 8.77734 11.0859 8.77734 9.31641C8.77734 7.91016 9.70312 6.84375 11.0156 6.84375C12.0703 6.84375 12.6914 7.47656 12.6914 8.30859C12.6914 8.95312 12.3164 9.39844 11.7539 9.39844C11.2969 9.39844 11.1445 9.17578 11.0156 8.95312C10.8984 8.74219 10.7227 8.61328 10.418 8.61328C10.0547 8.61328 9.67969 8.90625 9.67969 9.44531C9.67969 10.207 10.3711 11.2031 11.7422 11.2031C13.2773 11.2031 14.4961 10.0547 14.4961 8.30859C14.4961 6.48047 12.9727 5.03906 11.0156 5.03906C8.8125 5.03906 6.97266 6.92578 6.97266 9.31641C6.97266 12.082 9.23438 14.2617 12.3281 14.2617C16.7227 14.2617 18.375 10.3359 18.375 7.61719C18.375 3.19922 14.9531 0.0117188 10.2188 0.0117188C4.39453 0.0117188 0 4.45312 0 10.6055C0 17.9648 5.49609 23.168 13.6523 23.168ZM15.8789 2.19141L11.6719 6.41016L12.6328 7.37109L16.8398 3.16406L15.8789 2.19141ZM9.64453 0.398438V6.48047H10.9922V0.398438H9.64453ZM3.71484 3.08203L8.15625 7.53516L9.10547 6.5625L4.67578 2.10938L3.71484 3.08203ZM1.34766 9.97266H7.86328V8.61328H1.34766V9.97266ZM3.76172 17.9883L9.15234 12.6094L8.19141 11.6484L2.8125 17.0273L3.76172 17.9883ZM11.2852 22.1133H12.6445V13.6641H11.2852V22.1133ZM21.7148 19.7578L22.6641 18.7852L15.668 11.7773L14.707 12.7383L21.7148 19.7578Z" fill="black" fill-opacity="0.85"/>
</svg>
