<svg width="22" height="22" viewBox="0 0 22 22" fill="none" xmlns="http://www.w3.org/2000/svg">
<path d="M3.67969 21.5977H17.8945C20.3555 21.5977 21.5742 20.3789 21.5742 17.9648V3.65625C21.5742 1.24219 20.3555 0.0234375 17.8945 0.0234375H3.67969C1.23047 0.0234375 0 1.23047 0 3.65625V17.9648C0 20.3906 1.23047 21.5977 3.67969 21.5977ZM3.70312 19.7109C2.53125 19.7109 1.88672 19.0898 1.88672 17.8711V3.75C1.88672 2.53125 2.53125 1.91016 3.70312 1.91016H17.8711C19.0312 1.91016 19.6875 2.53125 19.6875 3.75V17.8711C19.6875 19.0898 19.0312 19.7109 17.8711 19.7109H3.70312Z" fill="#007AFF"/>
<path d="M8.74219 16.6641C9.1875 16.6641 9.49219 16.3477 9.49219 15.9023V14.6719H11.9062C12.2461 14.6719 12.4805 14.4141 12.4805 14.0859C12.4805 13.7578 12.2461 13.5117 11.9062 13.5117H9.49219V11.6016H13.4062C13.8281 11.6016 14.1328 11.3203 14.1328 10.8984C14.1328 10.4766 13.8281 10.207 13.4062 10.207H9.49219V6.89062H13.8398C14.25 6.89062 14.5664 6.60938 14.5664 6.1875C14.5664 5.75391 14.25 5.47266 13.8398 5.47266H8.73047C8.26172 5.47266 7.96875 5.77734 7.96875 6.25781V13.5117H7.03125C6.69141 13.5117 6.46875 13.7578 6.46875 14.0859C6.46875 14.4141 6.69141 14.6719 7.03125 14.6719H7.96875V15.9141C7.96875 16.3711 8.29688 16.6641 8.74219 16.6641Z" fill="black" fill-opacity="0.85"/>
</svg>
