<svg width="24" height="24" viewBox="0 0 24 24" fill="none" xmlns="http://www.w3.org/2000/svg">
<path d="M11.9531 23.9062C18.4922 23.9062 23.9062 18.4805 23.9062 11.9531C23.9062 5.41406 18.4805 0 11.9414 0C5.41406 0 0 5.41406 0 11.9531C0 18.4805 5.42578 23.9062 11.9531 23.9062Z" fill="#FFCC00"/>
<path d="M9.83203 18.0117C9.375 18.0117 9.03516 17.707 9.03516 17.2383V15.9609H8.0625C7.71094 15.9609 7.48828 15.6914 7.48828 15.3516C7.48828 15.0117 7.71094 14.7539 8.0625 14.7539H9.03516V7.27734C9.03516 6.78516 9.33984 6.46875 9.82031 6.46875H15.0938C15.5156 6.46875 15.832 6.75 15.832 7.20703C15.832 7.64062 15.5156 7.93359 15.0938 7.93359H10.6172V11.3438H14.6484C15.0703 11.3438 15.3984 11.625 15.3984 12.0703C15.3984 12.5039 15.0703 12.7969 14.6484 12.7969H10.6172V14.7539H13.1016C13.4531 14.7539 13.6992 15.0117 13.6992 15.3516C13.6992 15.6914 13.4531 15.9609 13.1016 15.9609H10.6172V17.2266C10.6172 17.6836 10.3008 18.0117 9.83203 18.0117Z" fill="black" fill-opacity="0.85"/>
</svg>
