<svg width="30" height="32" viewBox="0 0 30 32" fill="none" xmlns="http://www.w3.org/2000/svg">
<path d="M21.9053 28.1543V5.86526C21.9053 3.94339 20.8506 2.8887 18.9404 2.8887H9.50684C7.57324 2.8887 6.55371 3.94339 6.55371 5.86526V28.1543H21.9053ZM9.88184 15.1231C9.02637 15.1231 8.52246 14.6543 8.52246 13.8692V6.13479C8.52246 5.34964 9.02637 4.86917 9.88184 4.86917H18.5654C19.4092 4.86917 19.9365 5.34964 19.9365 6.13479V13.8692C19.9365 14.6543 19.4092 15.1231 18.5654 15.1231H9.88184ZM4.69043 28.0723C4.69043 28.5996 5.1123 29.0332 5.61621 29.0332H22.8193C23.3232 29.0332 23.7568 28.5996 23.7568 28.0723C23.7568 27.5684 23.3232 27.1465 22.8193 27.1465H5.61621C5.12402 27.1465 4.69043 27.5567 4.69043 28.0723ZM21.0146 18.3223H22.0225C22.5615 18.3223 22.9014 18.627 22.9014 19.2129V23.0918C22.9014 24.7559 23.9092 25.7637 25.5732 25.7637C27.2373 25.7637 28.2217 24.7559 28.2217 23.0918V8.73636C28.2217 8.03323 28.0342 7.49417 27.7061 6.95511L26.0889 4.35354C25.5029 3.40433 24.0967 4.25979 24.6943 5.22073L26.0654 7.44729C26.1943 7.65823 26.1826 7.90433 26.042 8.11526L24.5068 10.2598C24.0146 10.9512 24.0732 11.6075 24.6006 12.2285L26.5693 14.5137V23.0918C26.5693 23.7246 26.1943 24.1114 25.5732 24.1114C24.9287 24.1114 24.5537 23.7246 24.5537 23.0918V19.2129C24.5537 17.5957 23.6045 16.67 22.0225 16.67H21.0146V18.3223Z" fill="#007AFF"/>
<path d="M26.042 31.2598C26.9209 32.127 28.374 32.1621 29.2529 31.2481C30.1084 30.3692 30.1553 28.9278 29.2412 28.0371L3.88184 2.68949C3.00293 1.81059 1.5498 1.79887 0.65918 2.68949C-0.219727 3.5684 -0.219727 5.03324 0.65918 5.91215L26.042 31.2598Z" fill="white"/>
<path d="M27.0029 30.2989C27.3662 30.6504 27.9404 30.6504 28.2803 30.2989C28.6318 29.9356 28.6436 29.3614 28.2803 29.0098L2.90918 3.66214C2.55762 3.31058 1.9834 3.31058 1.62012 3.66214C1.28027 4.00198 1.28027 4.59964 1.62012 4.93948L27.0029 30.2989Z" fill="black" fill-opacity="0.85"/>
</svg>
