<svg width="33" height="27" viewBox="0 0 33 27" fill="none" xmlns="http://www.w3.org/2000/svg">
<path d="M25.7734 25.2656V2.97656C25.7734 1.05469 24.7187 0 22.8086 0H13.3633C11.4297 0 10.4101 1.05469 10.4101 2.97656V25.2656H25.7734ZM13.75 12.2344C12.8945 12.2344 12.3906 11.7656 12.3906 10.9805V3.24609C12.3906 2.46094 12.8945 1.98047 13.75 1.98047H22.4219C23.2773 1.98047 23.8047 2.46094 23.8047 3.24609V10.9805C23.8047 11.7656 23.2773 12.2344 22.4219 12.2344H13.75ZM8.55859 25.1836C8.55859 25.7109 8.98047 26.1445 9.48437 26.1445H26.6875C27.1914 26.1445 27.625 25.7109 27.625 25.1836C27.625 24.6797 27.1914 24.2578 26.6875 24.2578H9.48437C8.99219 24.2578 8.55859 24.668 8.55859 25.1836ZM24.8828 15.4336H25.8906C26.4297 15.4336 26.7695 15.7383 26.7695 16.3242V20.2031C26.7695 21.8672 27.7773 22.875 29.4414 22.875C31.0937 22.875 32.0898 21.8672 32.0898 20.2031V5.84766C32.0898 5.14453 31.9023 4.60547 31.5625 4.06641L29.957 1.46484C29.3594 0.515625 27.9648 1.37109 28.5625 2.33203L29.9336 4.55859C30.0625 4.76953 30.0508 5.01562 29.9101 5.22656L28.375 7.37109C27.8828 8.0625 27.9414 8.71875 28.4687 9.33984L30.4375 11.625V20.2031C30.4375 20.8359 30.0625 21.2227 29.4414 21.2227C28.7969 21.2227 28.4219 20.8359 28.4219 20.2031V16.3242C28.4219 14.707 27.4609 13.7812 25.8906 13.7812H24.8828V15.4336Z" fill="#007AFF"/>
<path d="M0.34283 12.5039C-0.102483 12.7617 -0.12592 13.3828 0.34283 13.6523L6.36627 17.2031C6.85845 17.4961 7.43267 17.2617 7.43267 16.7578V9.37503C7.43267 8.88284 6.8233 8.66019 6.36627 8.92972L0.34283 12.5039Z" fill="black" fill-opacity="0.85"/>
</svg>
