<svg width="24" height="27" viewBox="0 0 24 27" fill="none" xmlns="http://www.w3.org/2000/svg">
<path d="M17.2148 25.2656V2.97656C17.2148 1.05469 16.1602 0 14.25 0H4.80469C2.87109 0 1.85156 1.05469 1.85156 2.97656V25.2656H17.2148ZM5.19141 12.2344C4.33594 12.2344 3.82031 11.7656 3.82031 10.9805V3.24609C3.82031 2.46094 4.33594 1.98047 5.19141 1.98047H13.8633C14.7188 1.98047 15.2461 2.46094 15.2461 3.24609V10.9805C15.2461 11.7656 14.7188 12.2344 13.8633 12.2344H5.19141ZM0 25.1836C0 25.7109 0.410156 26.1445 0.925781 26.1445H18.1172C18.6328 26.1445 19.0664 25.7109 19.0664 25.1836C19.0664 24.6797 18.6328 24.2578 18.1172 24.2578H0.925781C0.421875 24.2578 0 24.668 0 25.1836ZM16.3125 15.4336H17.332C17.8711 15.4336 18.2109 15.7383 18.2109 16.3242V20.2031C18.2109 21.8672 19.2188 22.875 20.8828 22.875C22.5352 22.875 23.5312 21.8672 23.5312 20.2031V5.84766C23.5312 5.14453 23.3438 4.60547 23.0039 4.06641L21.3984 1.46484C20.8008 0.515625 19.4062 1.37109 20.0039 2.33203L21.375 4.55859C21.5039 4.76953 21.4922 5.01562 21.3516 5.22656L19.8164 7.37109C19.3125 8.0625 19.3828 8.71875 19.9102 9.33984L21.8789 11.625V20.2031C21.8789 20.8359 21.5039 21.2227 20.8828 21.2227C20.2383 21.2227 19.8633 20.8359 19.8633 20.2031V16.3242C19.8633 14.707 18.9023 13.7812 17.332 13.7812H16.3125V15.4336Z" fill="black" fill-opacity="0.85"/>
</svg>
