<svg width="30" height="32" viewBox="0 0 30 32" fill="none" xmlns="http://www.w3.org/2000/svg">
<g clip-path="url(#clip0_2152_15363)">
<path d="M23.1016 28.1543V5.86523C23.1016 3.94336 22.0469 2.88867 20.125 2.88867H9.50782C7.57422 2.88867 6.54297 3.94336 6.54297 5.86523V28.1543H8.42969V5.88867C8.42969 5.16211 8.78125 4.77539 9.53125 4.77539H20.1016C20.8164 4.77539 21.2031 5.15039 21.2031 5.88867L21.2149 28.1543H23.1016ZM4.69141 28.0723C4.69141 28.5996 5.10157 29.0332 5.61719 29.0332H24.0039C24.5196 29.0332 24.9531 28.5996 24.9531 28.0723C24.9531 27.5684 24.5196 27.1465 24.0039 27.1465H5.61719C5.11328 27.1465 4.69141 27.5567 4.69141 28.0723ZM11.0664 15.791H18.5664C19.3399 15.791 19.8789 15.3223 19.8789 14.6075V7.50586C19.8789 6.79101 19.3399 6.29883 18.5664 6.29883H11.0664C10.293 6.29883 9.76563 6.79101 9.76563 7.50586V14.6075C9.76563 15.3223 10.293 15.791 11.0664 15.791ZM22.1992 18.3223H23.2188C23.7578 18.3223 24.0977 18.627 24.0977 19.2129V23.0918C24.0977 24.7559 25.1055 25.7637 26.7696 25.7637C28.4219 25.7637 29.418 24.7559 29.418 23.0918V8.73633C29.418 8.0332 29.2305 7.49414 28.8906 6.95508L27.2852 4.35351C26.6875 3.4043 25.293 4.25976 25.8906 5.2207L27.2617 7.44726C27.3906 7.6582 27.3789 7.9043 27.2383 8.11523L25.7031 10.2598C25.1992 10.9512 25.2696 11.6075 25.7969 12.2285L27.7656 14.5137V23.0918C27.7656 23.7246 27.3906 24.1114 26.7696 24.1114C26.125 24.1114 25.75 23.7246 25.75 23.0918V19.2129C25.75 17.5957 24.7891 16.67 23.2188 16.67H22.1992V18.3223Z" fill="#007AFF"/>
<path d="M26.042 31.2598C26.9209 32.127 28.374 32.1621 29.2529 31.2481C30.1084 30.3692 30.1553 28.9278 29.2412 28.0371L3.88184 2.68946C3.00293 1.81056 1.5498 1.79884 0.65918 2.68946C-0.219727 3.56837 -0.219727 5.03321 0.65918 5.91212L26.042 31.2598Z" fill="white"/>
<path d="M27.0029 30.2989C27.3662 30.6504 27.9404 30.6504 28.2803 30.2989C28.6318 29.9356 28.6436 29.3614 28.2803 29.0098L2.90918 3.66211C2.55762 3.31055 1.9834 3.31055 1.62012 3.66211C1.28027 4.00195 1.28027 4.59961 1.62012 4.93945L27.0029 30.2989Z" fill="black" fill-opacity="0.85"/>
</g>
<defs>
<clipPath id="clip0_2152_15363">
<rect width="29.9107" height="31.9219" fill="white"/>
</clipPath>
</defs>
</svg>
