<svg width="25" height="27" viewBox="0 0 25 27" fill="none" xmlns="http://www.w3.org/2000/svg">
<path d="M18.4102 25.2656V2.97656C18.4102 1.05469 17.3555 0 15.4336 0H4.80469C2.87109 0 1.85156 1.05469 1.85156 2.97656V25.2656H3.72656L3.73828 3C3.73828 2.27344 4.08984 1.88672 4.83984 1.88672H15.3984C16.125 1.88672 16.5117 2.26172 16.5117 3V25.2656H18.4102ZM0 25.1836C0 25.7109 0.410156 26.1445 0.925781 26.1445H19.3125C19.8281 26.1445 20.25 25.7109 20.25 25.1836C20.25 24.6797 19.8281 24.2578 19.3125 24.2578H0.925781C0.421875 24.2578 0 24.668 0 25.1836ZM6.375 12.9023H13.8633C14.6484 12.9023 15.1875 12.4336 15.1875 11.7188V4.61719C15.1875 3.90234 14.6367 3.41016 13.8633 3.41016H6.375C5.60156 3.41016 5.07422 3.90234 5.07422 4.61719V11.7188C5.07422 12.4336 5.60156 12.9023 6.375 12.9023ZM17.5078 15.4336H18.5273C19.0664 15.4336 19.3945 15.7383 19.3945 16.3242V20.2031C19.3945 21.8672 20.4023 22.875 22.0664 22.875C23.7305 22.875 24.7266 21.8672 24.7266 20.2031V5.84766C24.7266 5.14453 24.5391 4.60547 24.1992 4.06641L22.5938 1.46484C21.9961 0.515625 20.6016 1.37109 21.1875 2.33203L22.5703 4.55859C22.6992 4.76953 22.6875 5.01562 22.5469 5.22656L21.0117 7.37109C20.5078 8.0625 20.5781 8.71875 21.1055 9.33984L23.0742 11.625V20.2031C23.0742 20.8359 22.6875 21.2227 22.0664 21.2227C21.4336 21.2227 21.0586 20.8359 21.0586 20.2031V16.3242C21.0586 14.707 20.0977 13.7812 18.5273 13.7812H17.5078V15.4336Z" fill="black" fill-opacity="0.85"/>
</svg>
