<svg width="30" height="32" viewBox="0 0 30 32" fill="none" xmlns="http://www.w3.org/2000/svg">
<path d="M23.1006 28.1543V5.86526C23.1006 3.94339 22.0459 2.8887 20.124 2.8887H9.50684C7.57324 2.8887 6.54199 3.94339 6.54199 5.86526V28.1543H8.42871V5.8887C8.42871 5.16214 8.78027 4.77542 9.53027 4.77542H20.1006C20.8154 4.77542 21.2021 5.15042 21.2021 5.8887L21.2139 28.1543H23.1006ZM4.69043 28.0723C4.69043 28.5996 5.10059 29.0332 5.61621 29.0332H24.0029C24.5186 29.0332 24.9521 28.5996 24.9521 28.0723C24.9521 27.5684 24.5186 27.1465 24.0029 27.1465H5.61621C5.1123 27.1465 4.69043 27.5567 4.69043 28.0723ZM11.0654 15.791H18.5654C19.3389 15.791 19.8779 15.3223 19.8779 14.6075V7.50589C19.8779 6.79104 19.3389 6.29886 18.5654 6.29886H11.0654C10.292 6.29886 9.76465 6.79104 9.76465 7.50589V14.6075C9.76465 15.3223 10.292 15.791 11.0654 15.791ZM22.1982 18.3223H23.2178C23.7568 18.3223 24.0967 18.627 24.0967 19.2129V23.0918C24.0967 24.7559 25.1045 25.7637 26.7686 25.7637C28.4209 25.7637 29.417 24.7559 29.417 23.0918V8.73636C29.417 8.03323 29.2295 7.49417 28.8896 6.95511L27.2842 4.35354C26.6865 3.40433 25.292 4.25979 25.8896 5.22073L27.2607 7.44729C27.3896 7.65823 27.3779 7.90433 27.2373 8.11526L25.7021 10.2598C25.1982 10.9512 25.2686 11.6075 25.7959 12.2285L27.7646 14.5137V23.0918C27.7646 23.7246 27.3896 24.1114 26.7686 24.1114C26.124 24.1114 25.749 23.7246 25.749 23.0918V19.2129C25.749 17.5957 24.7881 16.67 23.2178 16.67H22.1982V18.3223Z" fill="#007AFF"/>
<path d="M26.042 31.2598C26.9209 32.127 28.374 32.1621 29.2529 31.2481C30.1084 30.3692 30.1553 28.9278 29.2412 28.0371L3.88184 2.68949C3.00293 1.81059 1.5498 1.79887 0.65918 2.68949C-0.219727 3.5684 -0.219727 5.03324 0.65918 5.91215L26.042 31.2598Z" fill="white"/>
<path d="M27.0029 30.2989C27.3662 30.6504 27.9404 30.6504 28.2803 30.2989C28.6318 29.9356 28.6436 29.3614 28.2803 29.0098L2.90918 3.66214C2.55762 3.31058 1.9834 3.31058 1.62012 3.66214C1.28027 4.00198 1.28027 4.59964 1.62012 4.93948L27.0029 30.2989Z" fill="black" fill-opacity="0.85"/>
</svg>
