<svg width="33" height="27" viewBox="0 0 33 27" fill="none" xmlns="http://www.w3.org/2000/svg">
<path d="M25.7724 25.2656V2.97656C25.7724 1.05469 24.7177 0 22.8076 0H13.3623C11.4287 0 10.4091 1.05469 10.4091 2.97656V25.2656H25.7724ZM13.749 12.2344C12.8935 12.2344 12.3896 11.7656 12.3896 10.9805V3.24609C12.3896 2.46094 12.8935 1.98047 13.749 1.98047H22.4209C23.2763 1.98047 23.8037 2.46094 23.8037 3.24609V10.9805C23.8037 11.7656 23.2763 12.2344 22.4209 12.2344H13.749ZM8.55762 25.1836C8.55762 25.7109 8.9795 26.1445 9.4834 26.1445H26.6865C27.1904 26.1445 27.624 25.7109 27.624 25.1836C27.624 24.6797 27.1904 24.2578 26.6865 24.2578H9.4834C8.99122 24.2578 8.55762 24.668 8.55762 25.1836ZM24.8818 15.4336H25.8896C26.4287 15.4336 26.7685 15.7383 26.7685 16.3242V20.2031C26.7685 21.8672 27.7763 22.875 29.4404 22.875C31.0927 22.875 32.0888 21.8672 32.0888 20.2031V5.84766C32.0888 5.14453 31.9013 4.60547 31.5615 4.06641L29.956 1.46484C29.3584 0.515625 27.9638 1.37109 28.5615 2.33203L29.9326 4.55859C30.0615 4.76953 30.0498 5.01562 29.9091 5.22656L28.374 7.37109C27.8818 8.0625 27.9404 8.71875 28.4677 9.33984L30.4365 11.625V20.2031C30.4365 20.8359 30.0615 21.2227 29.4404 21.2227C28.7959 21.2227 28.4209 20.8359 28.4209 20.2031V16.3242C28.4209 14.707 27.4599 13.7812 25.8896 13.7812H24.8818V15.4336Z" fill="#007AFF"/>
<path d="M0.34283 12.5039C-0.102483 12.7617 -0.12592 13.3828 0.34283 13.6523L6.36627 17.2031C6.85845 17.4961 7.43267 17.2617 7.43267 16.7578V9.375C7.43267 8.88281 6.8233 8.66016 6.36627 8.92969L0.34283 12.5039Z" fill="black" fill-opacity="0.85"/>
</svg>
