<svg width="32" height="18" viewBox="0 0 32 18" fill="none" xmlns="http://www.w3.org/2000/svg">
<path d="M15.5859 17.332C15.9844 17.332 16.2656 17.1094 16.2656 16.7109C16.2656 16.5352 16.2305 16.4414 16.1016 16.1953C14.6719 13.9805 13.8516 11.4375 13.8516 8.68359C13.8516 6.02344 14.625 3.36328 16.1016 1.13672C16.2305 0.890625 16.2656 0.796875 16.2656 0.621094C16.2656 0.246094 15.9844 0 15.5859 0C15.1992 0 14.8945 0.175781 14.5195 0.691406C12.75 2.92969 11.8711 5.71875 11.8711 8.67188C11.8711 11.625 12.7266 14.332 14.5195 16.6406C14.8945 17.1562 15.1992 17.332 15.5859 17.332ZM18.0469 14.2266C18.4219 14.2266 18.6914 14.0977 18.9844 13.6758L21.5508 10.0195H21.5977L24.2227 13.7344C24.5156 14.1445 24.7969 14.2266 25.0781 14.2266C25.6406 14.2266 26.0039 13.8281 26.0039 13.3477C26.0039 13.125 25.9453 12.9141 25.793 12.7148L22.793 8.63672L25.793 4.61719C25.9336 4.41797 26.0156 4.20703 26.0156 3.96094C26.0156 3.45703 25.5938 3.10547 25.1133 3.10547C24.6914 3.10547 24.457 3.31641 24.2344 3.65625L21.7617 7.27734H21.7031L19.2188 3.64453C18.9844 3.30469 18.7148 3.10547 18.2695 3.10547C17.7188 3.10547 17.3086 3.53906 17.3086 4.00781C17.3086 4.34766 17.4141 4.55859 17.5664 4.75781L20.4258 8.57812L17.3906 12.7617C17.2266 12.9844 17.1914 13.1836 17.1914 13.418C17.1914 13.875 17.5781 14.2266 18.0469 14.2266ZM27.5625 17.332C27.9492 17.332 28.2539 17.1562 28.6289 16.6406C30.4219 14.332 31.2773 11.625 31.2773 8.67188C31.2773 5.71875 30.3984 2.92969 28.6289 0.691406C28.2539 0.175781 27.9492 0 27.5625 0C27.1641 0 26.8828 0.246094 26.8828 0.621094C26.8828 0.796875 26.918 0.890625 27.0469 1.13672C28.5234 3.36328 29.2969 6.02344 29.2969 8.68359C29.2969 11.4375 28.4766 13.9805 27.0469 16.1953C26.918 16.4414 26.8828 16.5352 26.8828 16.7109C26.8828 17.0859 27.1641 17.332 27.5625 17.332Z" fill="black" fill-opacity="0.85"/>
<path d="M1.58203 17.3086C3.87891 17.3086 4.93359 16.3242 5.49609 13.6875L6.83203 7.27734H8.95312C9.63281 7.27734 10.0664 6.91406 10.0664 6.32812C10.0664 5.82422 9.73828 5.50781 9.19922 5.50781H7.20703L7.53516 3.91406C7.85156 2.42578 8.32031 1.81641 9.60938 1.81641C9.80859 1.81641 9.99609 1.80469 10.125 1.79297C10.6992 1.73438 10.9688 1.46484 10.9688 0.960938C10.9688 0.304688 10.418 0.0117188 9.29297 0.0117188C7.05469 0.0117188 5.90625 1.125 5.37891 3.63281L4.99219 5.50781H3.53906C2.84766 5.50781 2.41406 5.87109 2.41406 6.45703C2.41406 6.96094 2.74219 7.27734 3.29297 7.27734H4.61719L3.32812 13.4062C3 14.9414 2.51953 15.5039 1.26562 15.5039C1.10156 15.5039 0.9375 15.5156 0.832031 15.5273C0.292969 15.5977 0 15.8906 0 16.3828C0 17.0156 0.539062 17.3086 1.58203 17.3086Z" fill="black" fill-opacity="0.85"/>
</svg>
