<svg width="24" height="24" viewBox="0 0 24 24" fill="none" xmlns="http://www.w3.org/2000/svg">
<path d="M11.9531 23.9062C18.4922 23.9062 23.9062 18.4805 23.9062 11.9531C23.9062 5.41406 18.4805 0 11.9414 0C5.41406 0 0 5.41406 0 11.9531C0 18.4805 5.42578 23.9062 11.9531 23.9062ZM11.9531 21.9141C6.42188 21.9141 2.00391 17.4844 2.00391 11.9531C2.00391 6.42188 6.41016 1.99219 11.9414 1.99219C17.4727 1.99219 21.9141 6.42188 21.9141 11.9531C21.9141 17.4844 17.4844 21.9141 11.9531 21.9141Z" fill="#007AFF"/>
<path d="M11.9883 17.4492C14.8477 17.4492 16.5469 15.7734 16.5469 13.3594V12.5039C16.5469 11.8711 16.1719 11.4961 15.5625 11.4961H12.5391C12.1172 11.4961 11.8594 11.7773 11.8594 12.1758C11.8594 12.5273 12.1172 12.8438 12.5391 12.8438H14.6836V13.6055C14.6836 14.9883 13.7695 15.9023 12.0117 15.9023C10.125 15.9023 8.87109 14.2969 8.87109 11.8477C8.87109 9.42188 10.1133 7.78125 11.9766 7.78125C13.3008 7.78125 14.2852 8.41405 14.7656 9.57421C14.9531 9.97265 15.1875 10.1367 15.5391 10.1367C16.0312 10.1367 16.3477 9.83203 16.3477 9.33984C16.3477 9.14062 16.3242 8.98828 16.2422 8.80078C15.6914 7.32422 14.1328 6.23438 11.9531 6.23438C8.91797 6.23438 6.97266 8.42578 6.97266 11.8477C6.97266 15.2812 8.91797 17.4492 11.9883 17.4492Z" fill="black" fill-opacity="0.85"/>
</svg>
