<svg width="24" height="24" viewBox="0 0 24 24" fill="none" xmlns="http://www.w3.org/2000/svg">
<path d="M11.9531 23.9062C18.4922 23.9062 23.9062 18.4805 23.9062 11.9531C23.9062 5.41406 18.4805 0 11.9414 0C5.41406 0 0 5.41406 0 11.9531C0 18.4805 5.42578 23.9062 11.9531 23.9062Z" fill="#FFCC00"/>
<path d="M12.0117 17.6836C8.8125 17.6836 6.78516 15.4219 6.78516 11.8477C6.78516 8.28516 8.8125 6 11.9648 6C14.25 6 15.8555 7.13672 16.4414 8.67188C16.5117 8.87109 16.5586 9.02344 16.5586 9.23438C16.5586 9.75 16.2305 10.0781 15.7148 10.0781C15.3398 10.0781 15.1055 9.89062 14.9062 9.48047C14.4023 8.27344 13.3828 7.61719 12 7.61719C10.0547 7.61719 8.75391 9.31641 8.75391 11.8477C8.75391 14.3906 10.0664 16.0781 12.0352 16.0781C13.875 16.0781 14.8242 15.1172 14.8242 13.6875V12.8906H12.5859C12.1406 12.8906 11.8711 12.5625 11.8711 12.1875C11.8711 11.7773 12.1406 11.4844 12.5859 11.4844H15.7266C16.3711 11.4844 16.7578 11.8711 16.7578 12.5391V13.4297C16.7578 15.9375 15 17.6836 12.0117 17.6836Z" fill="black" fill-opacity="0.85"/>
</svg>
