<svg width="27" height="27" viewBox="0 0 27 27" fill="none" xmlns="http://www.w3.org/2000/svg">
<path d="M23.8828 14.893C23.8828 8.36572 18.4688 2.93994 11.9414 2.93994C5.40234 2.93994 0 8.36572 0 14.893C0 17.9633 1.19531 20.7876 3.14062 22.9087C3.65625 23.4829 4.55859 23.6235 5.25 22.9321L6.90234 21.2915C7.26562 20.9282 7.26562 20.3188 6.90234 19.9555C6.53906 19.5923 5.92969 19.5923 5.56641 19.9555L4.27734 21.2446C2.84766 19.5219 2.00391 17.3305 2.00391 14.893C2.00391 9.37353 6.41016 4.93212 11.9414 4.93212C17.4609 4.93212 21.8789 9.37353 21.8789 14.893C21.8789 17.3305 21.0234 19.5219 19.5938 21.2446L18.3047 19.9555C17.9531 19.5923 17.3438 19.5923 16.9688 19.9555C16.6172 20.3188 16.6055 20.9282 16.9688 21.2915L18.6328 22.9321C19.3242 23.6235 20.2266 23.4829 20.7422 22.9087C22.6875 20.7876 23.8828 17.9633 23.8828 14.893ZM20.0156 13.9555C19.5 13.9555 19.0781 14.3774 19.0781 14.893C19.0781 15.4087 19.5 15.8423 20.0156 15.8423H22.875V13.9555H20.0156ZM12.8789 6.79541V3.93603H10.9922V6.79541C10.9922 7.31103 11.4258 7.74462 11.9414 7.74462C12.457 7.74462 12.8789 7.31103 12.8789 6.79541ZM6.86719 8.50634L4.83984 6.479L3.50391 7.81494L5.53125 9.84228C5.89453 10.2055 6.50391 10.2055 6.86719 9.84228C7.23047 9.46728 7.23047 8.86962 6.86719 8.50634ZM3.82031 13.9555H0.960938V15.8423H3.82031C4.33594 15.8423 4.76953 15.4087 4.76953 14.893C4.76953 14.3774 4.33594 13.9555 3.82031 13.9555Z" fill="#007AFF"/>
<path d="M10.4424 16.393C11.2158 17.1548 12.3174 17.1548 13.0908 16.393C13.2315 16.2407 13.4541 15.936 13.583 15.7485L17.5322 10.0649C17.7198 9.7837 17.6729 9.51417 17.5088 9.32667C17.3213 9.1626 17.0518 9.10401 16.7705 9.30323L11.0869 13.2524C10.8994 13.3813 10.583 13.604 10.4424 13.7446C9.68067 14.518 9.68067 15.6196 10.4424 16.393Z" fill="black" fill-opacity="0.85"/>
<path d="M23.32 0.197719C22.9333 -0.189 22.4411 0.0336563 22.3356 0.502406L21.5036 4.61569C21.3864 5.13131 21.7263 5.48288 22.2653 5.36569L26.3669 4.53366C26.8474 4.42819 27.0583 3.94772 26.6716 3.54928L23.32 0.197719Z" fill="black" fill-opacity="0.85"/>
</svg>
