<svg width="24" height="24" viewBox="0 0 24 24" fill="none" xmlns="http://www.w3.org/2000/svg">
<path d="M11.9531 23.9062C18.4922 23.9062 23.9062 18.4805 23.9062 11.9531C23.9062 5.41406 18.4805 0 11.9414 0C5.41406 0 0 5.41406 0 11.9531C0 18.4805 5.42578 23.9062 11.9531 23.9062ZM11.9531 21.9141C6.42188 21.9141 2.00391 17.4844 2.00391 11.9531C2.00391 6.42188 6.41016 1.99219 11.9414 1.99219C17.4727 1.99219 21.9141 6.42188 21.9141 11.9531C21.9141 17.4844 17.4844 21.9141 11.9531 21.9141Z" fill="#007AFF"/>
<path d="M13.8281 13.7578C14.6016 12.9844 14.6016 11.8828 13.8281 11.1094C13.6875 10.9688 13.3828 10.7461 13.1953 10.6172L7.51172 6.66797C7.23047 6.48047 6.94922 6.53906 6.77344 6.70312C6.60938 6.87891 6.55078 7.14844 6.75 7.42969L10.6992 13.1133C10.8281 13.3008 11.0508 13.6172 11.1914 13.7578C11.9648 14.5195 13.0664 14.5195 13.8281 13.7578ZM7.20703 17.6719C7.75781 17.6719 8.21484 17.2148 8.21484 16.6641C8.21484 16.1133 7.75781 15.6562 7.20703 15.6562C6.65625 15.6562 6.19922 16.1133 6.19922 16.6641C6.19922 17.2148 6.65625 17.6719 7.20703 17.6719ZM5.22656 12.9609C5.77734 12.9609 6.23438 12.5039 6.23438 11.9531C6.23438 11.4023 5.77734 10.9453 5.22656 10.9453C4.67578 10.9453 4.21875 11.4023 4.21875 11.9531C4.21875 12.5039 4.67578 12.9609 5.22656 12.9609ZM11.9414 6.23438C12.4922 6.23438 12.9492 5.77734 12.9492 5.22656C12.9492 4.67578 12.4922 4.21875 11.9414 4.21875C11.3906 4.21875 10.9336 4.67578 10.9336 5.22656C10.9336 5.77734 11.3906 6.23438 11.9414 6.23438ZM16.6992 8.25C17.25 8.25 17.707 7.79297 17.707 7.24219C17.707 6.67969 17.25 6.23438 16.6992 6.23438C16.1484 6.23438 15.6914 6.67969 15.6914 7.24219C15.6914 7.79297 16.1484 8.25 16.6992 8.25ZM18.6797 12.9609C19.2305 12.9609 19.6875 12.5039 19.6875 11.9531C19.6875 11.4023 19.2305 10.9453 18.6797 10.9453C18.1289 10.9453 17.6719 11.4023 17.6719 11.9531C17.6719 12.5039 18.1289 12.9609 18.6797 12.9609ZM16.6992 17.6719C17.25 17.6719 17.707 17.2148 17.707 16.6641C17.707 16.1133 17.25 15.6562 16.6992 15.6562C16.1484 15.6562 15.6914 16.1133 15.6914 16.6641C15.6914 17.2148 16.1484 17.6719 16.6992 17.6719Z" fill="black" fill-opacity="0.85"/>
</svg>
