<svg width="24" height="24" viewBox="0 0 24 24" fill="none" xmlns="http://www.w3.org/2000/svg">
<path d="M11.9531 23.9062C18.4922 23.9062 23.9062 18.4805 23.9062 11.9531C23.9062 5.41406 18.4805 0 11.9414 0C5.41406 0 0 5.41406 0 11.9531C0 18.4805 5.42578 23.9062 11.9531 23.9062ZM11.9531 21.9141C6.42188 21.9141 2.00391 17.4844 2.00391 11.9531C2.00391 6.42188 6.41016 1.99219 11.9414 1.99219C17.4727 1.99219 21.9141 6.42188 21.9141 11.9531C21.9141 17.4844 17.4844 21.9141 11.9531 21.9141Z" fill="#007AFF"/>
<path d="M13.7812 10.1133C13.0195 9.33984 11.9062 9.33984 11.1445 10.1133C11.0039 10.2539 10.7812 10.5586 10.6406 10.7461L6.70312 16.4297C6.50391 16.7109 6.5625 16.9922 6.72656 17.168C6.90234 17.332 7.18359 17.3906 7.46484 17.1914L13.1484 13.2539C13.3359 13.1133 13.6406 12.8906 13.7812 12.75C14.5547 11.9883 14.5547 10.875 13.7812 10.1133ZM5.22656 12.9609C5.77734 12.9609 6.23438 12.5039 6.23438 11.9531C6.23438 11.4023 5.77734 10.9453 5.22656 10.9453C4.67578 10.9453 4.21875 11.4023 4.21875 11.9531C4.21875 12.5039 4.67578 12.9609 5.22656 12.9609ZM7.18359 8.25C7.73438 8.25 8.19141 7.79297 8.19141 7.24219C8.19141 6.67969 7.73438 6.23438 7.18359 6.23438C6.63281 6.23438 6.17578 6.67969 6.17578 7.24219C6.17578 7.79297 6.63281 8.25 7.18359 8.25ZM11.9414 6.23438C12.4922 6.23438 12.9492 5.77734 12.9492 5.22656C12.9492 4.67578 12.4922 4.21875 11.9414 4.21875C11.3906 4.21875 10.9336 4.67578 10.9336 5.22656C10.9336 5.77734 11.3906 6.23438 11.9414 6.23438ZM16.6992 8.25C17.25 8.25 17.707 7.79297 17.707 7.24219C17.707 6.67969 17.25 6.23438 16.6992 6.23438C16.1484 6.23438 15.6914 6.67969 15.6914 7.24219C15.6914 7.79297 16.1484 8.25 16.6992 8.25ZM18.6797 12.9609C19.2305 12.9609 19.6875 12.5039 19.6875 11.9531C19.6875 11.4023 19.2305 10.9453 18.6797 10.9453C18.1289 10.9453 17.6719 11.4023 17.6719 11.9531C17.6719 12.5039 18.1289 12.9609 18.6797 12.9609ZM16.6992 17.6719C17.25 17.6719 17.707 17.2148 17.707 16.6641C17.707 16.1133 17.25 15.6562 16.6992 15.6562C16.1484 15.6562 15.6914 16.1133 15.6914 16.6641C15.6914 17.2148 16.1484 17.6719 16.6992 17.6719Z" fill="black" fill-opacity="0.85"/>
</svg>
