<svg width="24" height="21" viewBox="0 0 24 21" fill="none" xmlns="http://www.w3.org/2000/svg">
<path d="M0 11.9531C0 15.0234 1.19531 17.8477 3.14062 19.9688C3.65625 20.543 4.55859 20.6836 5.25 19.9922L6.90234 18.3516C7.26562 17.9883 7.26562 17.3789 6.90234 17.0156C6.53906 16.6523 5.92969 16.6523 5.56641 17.0156L4.27734 18.3047C2.85938 16.582 2.00391 14.3906 2.00391 11.9531C2.00391 6.43359 6.41016 1.99219 11.9414 1.99219C17.4727 1.99219 21.8789 6.43359 21.8789 11.9531C21.8789 14.3906 21.0234 16.582 19.6055 18.3047L18.3164 17.0156C17.9531 16.6523 17.3438 16.6523 16.9805 17.0156C16.6172 17.3789 16.6172 17.9883 16.9805 18.3516L18.6328 19.9922C19.3242 20.6836 20.2266 20.543 20.7422 19.9688C22.6875 17.8477 23.8828 15.0234 23.8828 11.9531C23.8828 5.42578 18.4805 0 11.9414 0C5.41406 0 0 5.42578 0 11.9531ZM3.86719 11.0156H0.996094V12.9023H3.86719C4.38281 12.9023 4.80469 12.4688 4.80469 11.9531C4.80469 11.4375 4.38281 11.0156 3.86719 11.0156ZM11.0039 3.85547C11.0039 4.37109 11.4258 4.80469 11.9414 4.80469C12.457 4.80469 12.8906 4.37109 12.8906 3.85547V0.996094H11.0039V3.85547ZM17.0156 5.56641C16.6523 5.92969 16.6523 6.52734 17.0156 6.90234C17.3789 7.26562 17.9883 7.26562 18.3516 6.90234L20.3672 4.875L19.043 3.53906L17.0156 5.56641ZM20.0508 11.0156C19.5352 11.0156 19.1133 11.4375 19.1133 11.9531C19.1133 12.4688 19.5352 12.9023 20.0508 12.9023H22.9219V11.0156H20.0508Z" fill="#007AFF"/>
<path d="M13.429 13.4531C14.2024 12.6797 14.2024 11.5781 13.429 10.8047C13.2884 10.6641 12.9837 10.4414 12.7962 10.3125L7.11255 6.36328C6.8313 6.16406 6.55005 6.22266 6.37427 6.38672C6.21021 6.57422 6.15161 6.84375 6.35083 7.125L10.3001 12.8086C10.429 12.9961 10.6516 13.3008 10.7923 13.4531C11.5657 14.2148 12.6673 14.2148 13.429 13.4531Z" fill="black" fill-opacity="0.85"/>
</svg>
