<svg width="24" height="24" viewBox="0 0 24 24" fill="none" xmlns="http://www.w3.org/2000/svg">
<path d="M11.9531 23.9062C18.4922 23.9062 23.9062 18.4805 23.9062 11.9531C23.9062 5.41406 18.4805 0 11.9414 0C5.41406 0 0 5.41406 0 11.9531C0 18.4805 5.42578 23.9062 11.9531 23.9062ZM11.9531 21.9141C6.42188 21.9141 2.00391 17.4844 2.00391 11.9531C2.00391 6.42188 6.41016 1.99219 11.9414 1.99219C17.4727 1.99219 21.9141 6.42188 21.9141 11.9531C21.9141 17.4844 17.4844 21.9141 11.9531 21.9141Z" fill="#007AFF"/>
<path d="M11.9531 14.7773C13.043 14.7773 13.8164 13.9922 13.8164 12.9141C13.8164 12.7031 13.7578 12.3281 13.7227 12.1055L12.4922 5.29688C12.4336 4.96875 12.1992 4.80469 11.9531 4.80469C11.707 4.80469 11.4727 4.96875 11.4141 5.29688L10.1836 12.1055C10.1484 12.3281 10.0898 12.7031 10.0898 12.9141C10.0898 13.9922 10.875 14.7773 11.9531 14.7773ZM7.20703 17.6719C7.75781 17.6719 8.21484 17.2148 8.21484 16.6641C8.21484 16.1133 7.75781 15.6562 7.20703 15.6562C6.65625 15.6562 6.19922 16.1133 6.19922 16.6641C6.19922 17.2148 6.65625 17.6719 7.20703 17.6719ZM5.22656 12.9609C5.77734 12.9609 6.23438 12.5039 6.23438 11.9531C6.23438 11.4023 5.77734 10.9453 5.22656 10.9453C4.67578 10.9453 4.21875 11.4023 4.21875 11.9531C4.21875 12.5039 4.67578 12.9609 5.22656 12.9609ZM7.20703 8.25C7.75781 8.25 8.21484 7.79297 8.21484 7.24219C8.21484 6.67969 7.75781 6.23438 7.20703 6.23438C6.65625 6.23438 6.19922 6.67969 6.19922 7.24219C6.19922 7.79297 6.65625 8.25 7.20703 8.25ZM16.6992 8.25C17.25 8.25 17.707 7.79297 17.707 7.24219C17.707 6.67969 17.25 6.23438 16.6992 6.23438C16.1484 6.23438 15.6914 6.67969 15.6914 7.24219C15.6914 7.79297 16.1484 8.25 16.6992 8.25ZM18.6797 12.9609C19.2305 12.9609 19.6875 12.5039 19.6875 11.9531C19.6875 11.4023 19.2305 10.9453 18.6797 10.9453C18.1289 10.9453 17.6719 11.4023 17.6719 11.9531C17.6719 12.5039 18.1289 12.9609 18.6797 12.9609ZM16.6992 17.6719C17.25 17.6719 17.707 17.2148 17.707 16.6641C17.707 16.1133 17.25 15.6562 16.6992 15.6562C16.1484 15.6562 15.6914 16.1133 15.6914 16.6641C15.6914 17.2148 16.1484 17.6719 16.6992 17.6719Z" fill="black" fill-opacity="0.85"/>
</svg>
