<svg width="27" height="27" viewBox="0 0 27 27" fill="none" xmlns="http://www.w3.org/2000/svg">
<path d="M3 14.893C3 17.9633 4.19531 20.7876 6.14063 22.9087C6.65625 23.4829 7.5586 23.6235 8.25 22.9321L9.90235 21.2915C10.2657 20.9282 10.2657 20.3188 9.90235 19.9555C9.53906 19.5923 8.92969 19.5923 8.56641 19.9555L7.27735 21.2446C5.84766 19.5219 5.00391 17.3305 5.00391 14.893C5.00391 9.37353 9.41016 4.93212 14.9414 4.93212C20.461 4.93212 24.8789 9.37353 24.8789 14.893C24.8789 17.3305 24.0235 19.5219 22.5938 21.2446L21.3047 19.9555C20.9532 19.5923 20.3438 19.5923 19.9688 19.9555C19.6172 20.3188 19.6055 20.9282 19.9688 21.2915L21.6329 22.9321C22.3243 23.6235 23.2266 23.4829 23.7422 22.9087C25.6875 20.7876 26.8829 17.9633 26.8829 14.893C26.8829 8.36572 21.4688 2.93994 14.9414 2.93994C8.40235 2.93994 3 8.36572 3 14.893ZM6.85547 13.9555H3.9961V15.8423H6.85547C7.3711 15.8423 7.80469 15.4087 7.80469 14.893C7.80469 14.3774 7.3711 13.9555 6.85547 13.9555ZM13.9922 6.79541C13.9922 7.31103 14.4258 7.74462 14.9414 7.74462C15.4571 7.74462 15.8789 7.31103 15.8789 6.79541V3.93603H13.9922V6.79541ZM20.0039 8.50634C19.6407 8.86962 19.6524 9.46728 20.0039 9.84228C20.3789 10.2055 20.9883 10.2055 21.3399 9.84228L23.3672 7.81494L22.0313 6.479L20.0039 8.50634ZM23.0508 13.9555C22.5352 13.9555 22.1133 14.3774 22.1133 14.893C22.1133 15.4087 22.5352 15.8423 23.0508 15.8423H25.9102V13.9555H23.0508Z" fill="#007AFF"/>
<path d="M16.4309 16.393C17.2044 15.6196 17.2044 14.518 16.4309 13.7446C16.2903 13.604 15.9856 13.3813 15.7981 13.2524L10.1145 9.30323C9.83325 9.10401 9.552 9.1626 9.37622 9.32667C9.21216 9.51417 9.15357 9.7837 9.35278 10.0649L13.2903 15.7485C13.4309 15.936 13.6536 16.2407 13.7942 16.393C14.5559 17.1548 15.6575 17.1548 16.4309 16.393Z" fill="black" fill-opacity="0.85"/>
<path d="M3.56334 0.197719L0.20006 3.54928C-0.186659 3.94772 0.0242791 4.42819 0.516466 4.53366L4.61803 5.36569C5.15709 5.48288 5.48522 5.13131 5.37975 4.61569L4.536 0.502406C4.44225 0.0336563 3.95006 -0.189 3.56334 0.197719Z" fill="black" fill-opacity="0.85"/>
</svg>
