<svg width="29" height="24" viewBox="0 0 29 24" fill="none" xmlns="http://www.w3.org/2000/svg">
<path d="M0.235956 11.9883C-0.221075 12.6328 -0.0101376 13.207 0.833612 13.207H2.4508C3.08361 19.1719 8.22814 23.9062 14.3336 23.9062C17.9078 23.9062 21.1422 22.2773 23.3453 19.7461C23.7789 19.2422 23.7203 18.6094 23.2633 18.2812C22.8063 17.9531 22.2438 18.0703 21.8688 18.5039C20.0524 20.6016 17.357 21.9141 14.3336 21.9141C9.22424 21.9141 5.06408 18.1289 4.46642 13.207H6.21252C7.04455 13.207 7.25549 12.6328 6.81017 12L4.18517 8.26172C3.81017 7.72266 3.24767 7.71094 2.86096 8.26172L0.235956 11.9883ZM5.33361 4.16016C4.8883 4.66406 4.94689 5.28516 5.41564 5.61328C5.87267 5.94141 6.42346 5.83594 6.81017 5.40234C8.6383 3.31641 11.3336 1.99219 14.3336 1.99219C19.4313 1.99219 23.5914 5.77734 24.2008 10.7109H22.4547C21.6227 10.7109 21.4117 11.2734 21.857 11.918L24.482 15.6562C24.857 16.1953 25.4195 16.207 25.8063 15.6562L28.4195 11.9297C28.8883 11.2734 28.6656 10.7109 27.8219 10.7109H26.2164C25.5719 4.74609 20.4391 0 14.3336 0C10.7594 0 7.53674 1.61719 5.33361 4.16016Z" fill="#007AFF"/>
<path d="M13.8398 17.7891H14.8125C15.1523 17.7891 15.4336 17.5781 15.5039 17.2148L15.7734 16.1133C15.9375 16.0664 16.1133 15.9844 16.2773 15.9023L17.2383 16.5C17.5429 16.6875 17.8594 16.6875 18.1289 16.4062L18.7969 15.7383C19.0312 15.4922 19.0664 15.1641 18.8672 14.8359L18.2929 13.8633C18.3867 13.7109 18.4219 13.5586 18.4804 13.418L19.5937 13.1484C19.9453 13.0547 20.1679 12.7969 20.1679 12.4336V11.4727C20.1679 11.1328 19.9336 10.8867 19.5937 10.8047L18.5039 10.5352C18.4219 10.3359 18.3633 10.207 18.3047 10.0664L18.914 9.05859C19.0898 8.77734 19.0547 8.41406 18.8203 8.19141L18.1289 7.52344C17.8828 7.26562 17.5429 7.21875 17.2617 7.39453L16.2773 8.01562C16.0898 7.91016 15.9375 7.875 15.7734 7.81641L15.5039 6.69141C15.4336 6.35156 15.1523 6.12891 14.8125 6.12891H13.8398C13.4883 6.12891 13.207 6.36328 13.1367 6.69141L12.8789 7.80469C12.6914 7.875 12.5273 7.91016 12.3633 8.01562L11.3789 7.39453C11.1211 7.23047 10.7578 7.26562 10.5117 7.52344L9.85546 8.19141C9.60938 8.42578 9.55077 8.77734 9.72655 9.05859L10.3476 10.0664C10.289 10.207 10.2187 10.3594 10.1601 10.5352L9.04688 10.8047C8.70702 10.8867 8.48438 11.1445 8.48438 11.4727V12.4336C8.48438 12.7969 8.70702 13.0547 9.04688 13.1484L10.1601 13.418C10.2304 13.5586 10.289 13.7109 10.3594 13.8633L9.78516 14.8477C9.59766 15.1641 9.62108 15.5039 9.85546 15.7383L10.5117 16.4062C10.7578 16.6875 11.0976 16.6875 11.4023 16.5L12.3867 15.9023C12.5742 16.0078 12.7383 16.0664 12.8789 16.1133L13.1367 17.2148C13.207 17.5547 13.4883 17.7891 13.8398 17.7891ZM14.332 13.8281C13.2773 13.8281 12.457 12.9961 12.457 11.9648C12.457 10.9336 13.2773 10.0781 14.332 10.0664C15.3515 10.0547 16.207 10.9336 16.207 11.9648C16.207 12.9961 15.3515 13.8281 14.332 13.8281Z" fill="black" fill-opacity="0.85"/>
</svg>
