<svg width="24" height="24" viewBox="0 0 24 24" fill="none" xmlns="http://www.w3.org/2000/svg">
<path d="M11.9531 23.9062C18.4922 23.9062 23.9062 18.4805 23.9062 11.9531C23.9062 5.41406 18.4805 0 11.9414 0C5.41406 0 0 5.41406 0 11.9531C0 18.4805 5.42578 23.9062 11.9531 23.9062ZM11.9531 21.9141C6.42188 21.9141 2.00391 17.4844 2.00391 11.9531C2.00391 6.42188 6.41016 1.99219 11.9414 1.99219C17.4727 1.99219 21.9141 6.42188 21.9141 11.9531C21.9141 17.4844 17.4844 21.9141 11.9531 21.9141Z" fill="#007AFF"/>
<path d="M7.16016 16.2773C7.16016 17.25 7.73439 17.7656 8.70704 17.7656H11.4609V12.5039H7.16016V16.2773ZM12.4219 17.7656H15.1758C16.1484 17.7656 16.7227 17.25 16.7227 16.2773V12.5039H12.4219V17.7656ZM6.32812 11.0156C6.32812 11.6367 6.67969 11.8828 7.3125 11.8828H11.4609V8.71875H10.5586C9.63282 8.71875 9.09375 8.15625 9.09375 7.5C9.09375 6.86719 9.5625 6.48047 10.207 6.48047C10.9102 6.48047 11.4609 7.00781 11.4609 7.88672V8.71875H12.4219V7.88672C12.4219 7.00781 12.9727 6.48047 13.6875 6.48047C14.332 6.48047 14.7891 6.86719 14.7891 7.5C14.7891 8.15625 14.25 8.71875 13.3242 8.71875H12.4219V11.8828H16.582C17.2148 11.8828 17.5547 11.6367 17.5547 11.0156V9.59766C17.5547 8.97656 17.2148 8.71875 16.582 8.71875H15.2109C15.5625 8.41406 15.75 7.95703 15.75 7.45312C15.75 6.31641 14.8594 5.50781 13.7461 5.50781C12.9258 5.50781 12.2461 5.95312 11.9414 6.76172C11.6367 5.95312 10.9688 5.50781 10.1484 5.50781C9.02345 5.50781 8.13281 6.31641 8.13281 7.45312C8.13281 7.95703 8.33203 8.41406 8.67188 8.71875H7.3125C6.70312 8.71875 6.32812 8.97656 6.32812 9.59766V11.0156Z" fill="black" fill-opacity="0.85"/>
</svg>
