<svg width="24" height="24" viewBox="0 0 24 24" fill="none" xmlns="http://www.w3.org/2000/svg">
<path d="M11.9531 23.25C15.2109 23.25 17.8711 18.4336 17.8711 11.9766C17.8711 5.48438 15.2227 0.667969 11.9531 0.667969C8.68359 0.667969 6.03516 5.48438 6.03516 11.9766C6.03516 18.4336 8.69531 23.25 11.9531 23.25ZM11.9531 2.08594C14.25 2.08594 16.3008 6.65625 16.3008 11.9766C16.3008 17.2031 14.25 21.8203 11.9531 21.8203C9.65625 21.8203 7.60547 17.2031 7.60547 11.9766C7.60547 6.65625 9.65625 2.08594 11.9531 2.08594ZM11.1914 0.832031V23.0273H12.7266V0.832031H11.1914ZM11.9531 16.3594C8.34375 16.3594 5.14453 17.3086 3.50391 18.8203L4.6875 19.793C6.23438 18.5625 8.75391 17.8945 11.9531 17.8945C15.1523 17.8945 17.6719 18.5625 19.2188 19.793L20.4023 18.8203C18.7617 17.3086 15.5625 16.3594 11.9531 16.3594ZM22.7695 11.1797H1.13672V12.7148H22.7695V11.1797ZM11.9531 7.60547C15.5625 7.60547 18.7617 6.65625 20.4023 5.14453L19.2188 4.17188C17.6719 5.39062 15.1523 6.07031 11.9531 6.07031C8.75391 6.07031 6.23438 5.39062 4.6875 4.17188L3.50391 5.14453C5.14453 6.65625 8.34375 7.60547 11.9531 7.60547ZM11.9531 23.9062C18.4922 23.9062 23.9062 18.4805 23.9062 11.9531C23.9062 5.41406 18.4805 0 11.9414 0C5.41406 0 0 5.41406 0 11.9531C0 18.4805 5.42578 23.9062 11.9531 23.9062ZM11.9531 22.3125C6.29297 22.3125 1.59375 17.6133 1.59375 11.9531C1.59375 6.29297 6.28125 1.59375 11.9414 1.59375C17.6016 1.59375 22.3125 6.29297 22.3125 11.9531C22.3125 17.6133 17.6133 22.3125 11.9531 22.3125Z" fill="black" fill-opacity="0.85"/>
</svg>
