<svg width="24" height="24" viewBox="0 0 24 24" fill="none" xmlns="http://www.w3.org/2000/svg">
<path d="M12.4453 21.3281C14.1328 21.3281 18.375 15.7266 18.375 13.5703C18.375 12.2695 15.6797 9.9375 14.2266 9.9375C13.5586 9.9375 12.6094 10.7578 12.0234 10.7578C11.4844 10.7578 9.9375 9.52734 9.9375 9.08203C9.9375 8.90625 10.2188 8.68359 10.4414 8.68359C10.7812 8.68359 11.9883 9.77344 12.668 9.77344C13.6523 9.77344 14.2969 9.12891 14.2969 8.10938C14.2969 7.75781 14.1562 7.41797 13.8516 6.98438C15.1523 6.32812 17.4961 5.03906 18.2227 3.43359L17.168 2.88281C16.5469 4.35938 13.9336 5.58984 12.5859 6.29297C12.3281 6.42188 12.1875 6.71484 12.4219 7.04297C12.9023 7.71094 13.1133 8.00391 13.1133 8.26172C13.1133 8.44922 12.9727 8.58984 12.7734 8.58984C12.3867 8.58984 11.1094 7.5 10.4414 7.5C9.65625 7.5 8.75391 8.33203 8.75391 9.08203C8.75391 10.1602 10.9219 11.9414 12.0234 11.9414C12.6797 11.9414 13.8516 11.1094 14.2266 11.1094C15 11.1094 17.1914 12.9492 17.1914 13.5703C17.1914 14.9531 13.4297 20.1445 12.4102 20.1445C12.1406 20.1445 11.8008 19.8867 11.8008 19.6641C11.8008 19.5352 11.8359 19.4414 11.9648 19.0312C12.082 18.6562 12.2578 18.1406 12.2461 17.5781C12.2344 16.8164 11.6133 16.2773 10.2422 15.3047C9.99609 15.1289 9.73828 14.9531 9.48047 14.7539C9.10547 14.4727 8.95312 14.2266 8.95312 13.9453C8.95312 13.793 8.98828 13.6289 9.10547 13.2656C9.21094 12.8906 9.28125 12.5977 9.28125 12.3867C9.28125 11.8594 9.01172 11.5078 8.44922 11.0273C8.36719 10.9688 8.30859 10.9102 8.23828 10.8516L6.36328 9.17578C4.01953 7.07812 4.03125 5.87109 4.98047 4.3125L3.83203 4.07812C2.85938 5.66016 2.73047 7.55859 5.57812 10.0664L7.44141 11.707C7.875 12.0938 8.09766 12.2461 8.09766 12.4219C8.09766 12.6797 7.76953 13.2305 7.76953 13.9453C7.76953 14.6133 8.09766 15.2109 8.76562 15.7031C10.1367 16.7344 11.0625 17.2969 11.0625 17.6016C11.0742 18.3164 10.6172 18.9023 10.6172 19.7109C10.6172 20.5195 11.5898 21.3281 12.4453 21.3281ZM11.9531 23.9062C18.4922 23.9062 23.9062 18.4805 23.9062 11.9531C23.9062 5.41406 18.4805 0 11.9414 0C5.41406 0 0 5.41406 0 11.9531C0 18.4805 5.42578 23.9062 11.9531 23.9062ZM11.9531 22.3125C6.29297 22.3125 1.59375 17.6133 1.59375 11.9531C1.59375 6.29297 6.28125 1.59375 11.9414 1.59375C17.6016 1.59375 22.3125 6.29297 22.3125 11.9531C22.3125 17.6133 17.6133 22.3125 11.9531 22.3125Z" fill="black" fill-opacity="0.85"/>
</svg>
