<svg width="24" height="24" viewBox="0 0 24 24" fill="none" xmlns="http://www.w3.org/2000/svg">
<path d="M2.60156 17.9531C4.38281 17.6719 5.39062 17.0156 5.39062 15.2109C5.39062 13.9453 6.52734 13.8516 6.52734 12.5391C6.52734 11.9531 5.96484 11.4844 4.98047 10.6758L4.20703 10.0547C4.11328 9.98438 4.05469 9.86719 4.05469 9.76172C4.05469 9.53906 4.25391 9.33984 4.46484 9.33984C4.62891 9.33984 4.78125 9.49219 5.29688 9.9375C6.12891 10.6406 6.5625 11.0273 7.10156 11.0273C7.66406 11.0273 7.83984 10.6992 8.13281 10.6992C8.30859 10.6992 8.42578 10.8047 8.51953 11.0625L8.98828 12.3516C9.48047 13.7812 10.3945 13.6523 10.5586 14.6719C11.0508 18.0352 11.6367 19.3945 13.0195 19.3945C14.3906 19.3945 14.8359 18.1406 14.8359 16.0781C14.8359 14.4727 16.7461 12.7969 17.4492 12.7969C18.3164 12.7969 18.6562 16.2656 22.3125 16.3242V15.1406C18.8789 15.0938 19.6875 11.6133 17.4492 11.6133C16.0898 11.6133 13.6523 13.9336 13.6523 16.0781C13.6523 17.6602 13.5117 18.2109 13.0195 18.2109C12.4102 18.2109 12.0938 17.0156 11.7188 14.4844C11.4492 12.75 10.582 13.207 10.1367 12.0352L9.48047 10.3594C9.22266 9.66797 8.75391 9.41016 8.25 9.41016C7.71094 9.41016 7.27734 9.80859 7.07812 9.80859C6.91406 9.80859 6.33984 9.29297 6.02344 9.01172C5.49609 8.54297 5.00391 8.15625 4.46484 8.15625C3.60938 8.15625 2.87109 8.98828 2.87109 9.73828C2.87109 10.8984 5.34375 11.9414 5.34375 12.668C5.34375 13.5586 4.20703 13.4414 4.20703 15.1758C4.20703 16.5703 3.44531 16.5938 2.36719 16.793L2.60156 17.9531ZM3.01172 5.19141C3.15234 6.29297 3.87891 7.16016 4.80469 7.16016C5.53125 7.16016 6.15234 6.67969 6.32812 5.95312C6.41016 5.64844 6.49219 5.51953 6.72656 5.37891C7.23047 5.09766 7.46484 4.78125 7.46484 4.23047C7.46484 3.65625 7.04297 3.07031 6.35156 2.34375L5.50781 3.15234C6.03516 3.72656 6.28125 3.89062 6.28125 4.18359C6.28125 4.58203 5.54297 4.53516 5.37891 5.37891C5.29688 5.78906 5.02734 5.97656 4.79297 5.97656C4.55859 5.97656 4.13672 5.69531 4.16016 5.02734L3.01172 5.19141ZM11.9531 23.9062C18.4922 23.9062 23.9062 18.4805 23.9062 11.9531C23.9062 5.41406 18.4805 0 11.9414 0C5.41406 0 0 5.41406 0 11.9531C0 18.4805 5.42578 23.9062 11.9531 23.9062ZM11.9531 22.3125C6.29297 22.3125 1.59375 17.6133 1.59375 11.9531C1.59375 6.29297 6.28125 1.59375 11.9414 1.59375C17.6016 1.59375 22.3125 6.29297 22.3125 11.9531C22.3125 17.6133 17.6133 22.3125 11.9531 22.3125Z" fill="black" fill-opacity="0.85"/>
</svg>
