<svg width="24" height="24" viewBox="0 0 24 24" fill="none" xmlns="http://www.w3.org/2000/svg">
<path d="M13.0195 19.2188C14.0391 19.2188 14.6602 18.2812 14.6602 16.0781C14.6602 14.2383 16.6875 12.6211 17.4492 12.6211C18.5039 12.6211 18.7383 16.0078 22.1836 16.1484C22.6406 14.7773 22.9688 13.3594 22.9453 11.9531C22.8398 5.37891 17.3555 0.761719 11.9297 0.832031C9.79688 0.855469 7.73438 1.54688 5.88281 2.90625C6.53906 3.84375 6.66797 3.92578 6.66797 4.27734C6.66797 4.71094 5.82422 4.85156 5.68359 5.61328C5.58984 6.08203 5.26172 6.42188 4.86328 6.42188C4.41797 6.42188 3.80859 5.96484 3.66797 4.80469C1.83984 6.57422 0.9375 9.10547 0.9375 11.9297C0.9375 13.8984 1.45312 15.8555 2.68359 17.7539C4.59375 17.4258 5.21484 16.6758 5.21484 15.2109C5.21484 13.7695 6.35156 13.7227 6.35156 12.5391C6.35156 12.0352 5.84766 11.6602 4.875 10.8398L4.10156 10.1953C3.96094 10.0781 3.90234 9.92578 3.90234 9.76172C3.90234 9.45703 4.125 9.16406 4.46484 9.16406C4.6875 9.16406 4.82812 9.30469 5.41406 9.80859C6.24609 10.5117 6.63281 10.8516 7.10156 10.8516C7.59375 10.8516 7.80469 10.5234 8.13281 10.5234C8.40234 10.5234 8.56641 10.6875 8.68359 11.0039L9.08203 12.082C9.53906 13.4062 10.6055 13.2305 10.8516 14.6484C11.4258 18.1172 11.9414 19.2188 13.0195 19.2188ZM11.9531 23.9062C18.4922 23.9062 23.9062 18.4805 23.9062 11.9531C23.9062 5.41406 18.4805 0 11.9414 0C5.41406 0 0 5.41406 0 11.9531C0 18.4805 5.42578 23.9062 11.9531 23.9062ZM11.9531 22.3125C6.29297 22.3125 1.59375 17.6133 1.59375 11.9531C1.59375 6.29297 6.28125 1.59375 11.9414 1.59375C17.6016 1.59375 22.3125 6.29297 22.3125 11.9531C22.3125 17.6133 17.6133 22.3125 11.9531 22.3125Z" fill="black" fill-opacity="0.85"/>
</svg>
