<svg width="24" height="24" viewBox="0 0 24 24" fill="none" xmlns="http://www.w3.org/2000/svg">
<path d="M12.4453 20.8477C14.6016 20.8477 16.4414 17.5078 16.9219 16.7109C17.5195 15.75 17.2383 14.7891 17.2383 14.1914C17.2383 13.7695 18.4805 12.8789 18.4805 11.8594C18.4805 10.8281 16.0781 10.0078 16.0781 9.42188C16.0781 9.04688 16.3594 8.71875 16.6641 8.71875C17.1797 8.71875 18.4453 10.3477 19.1602 10.3477C19.6289 10.3477 19.6641 9.9375 19.9219 9.9375C20.5195 9.9375 20.6133 13.3008 22.4531 14.0977C22.957 13.5117 23.2617 12.8438 23.2617 11.9531C23.2617 5.84766 18.1875 0.632812 11.9414 0.644531C8.46094 0.65625 7.17188 1.99219 7.17188 3.16406C7.17188 4.69922 5.91797 5.05078 5.91797 5.97656C5.91797 6.5625 6.32812 6.94922 6.96094 6.94922C8.32031 6.94922 8.30859 5.47266 9 5.47266C9.51562 5.48438 9.99609 6.25781 10.8516 6.25781C11.2383 6.25781 11.4258 6.01172 11.4492 5.66016C11.4727 5.50781 11.543 5.4375 11.6836 5.4375C12.4336 5.4375 13.2656 6.28125 13.2656 6.79688C13.2656 7.28906 13.0781 7.66406 12.7734 7.66406C12.2461 7.66406 10.9336 7.04297 9.76172 7.04297C7.13672 7.04297 4.94531 8.90625 4.94531 11.1328C4.94531 13.0664 6.08203 14.1914 8.07422 14.1914C9.28125 14.1914 10.1719 15.0117 10.1719 16.125C10.1719 17.8594 9.98438 20.8477 12.4453 20.8477ZM15.3984 4.88672C14.9648 4.88672 14.7891 5.10938 14.4141 5.10938C14.0508 5.10938 13.7812 4.85156 13.7812 4.48828C13.7812 3.92578 14.3438 3.60938 15.3047 3.60938C16.125 3.60938 16.7461 4.03125 16.7461 4.58203C16.7461 4.88672 16.5469 5.13281 16.2891 5.13281C15.8672 5.13281 15.6445 4.88672 15.3984 4.88672ZM11.9531 23.9062C18.4922 23.9062 23.9062 18.4805 23.9062 11.9531C23.9062 5.41406 18.4805 0 11.9414 0C5.41406 0 0 5.41406 0 11.9531C0 18.4805 5.42578 23.9062 11.9531 23.9062ZM11.9531 22.3125C6.29297 22.3125 1.59375 17.6133 1.59375 11.9531C1.59375 6.29297 6.28125 1.59375 11.9414 1.59375C17.6016 1.59375 22.3125 6.29297 22.3125 11.9531C22.3125 17.6133 17.6133 22.3125 11.9531 22.3125Z" fill="black" fill-opacity="0.85"/>
</svg>
