<svg width="24" height="24" viewBox="0 0 24 24" fill="none" xmlns="http://www.w3.org/2000/svg">
<path d="M12.4453 20.9648C14.6719 20.9648 16.5469 17.5664 17.0273 16.7695C17.6367 15.7734 17.3555 14.7773 17.3555 14.1914C17.3555 13.8281 18.5977 12.9258 18.5977 11.8594C18.5977 10.7812 16.1953 9.89062 16.1953 9.45703C16.1953 9.17578 16.4297 8.83594 16.6641 8.83594C17.1211 8.83594 18.3867 10.4648 19.1602 10.4648C19.6289 10.4648 19.7695 10.0547 19.957 10.0547C20.2734 10.0547 20.5195 13.5352 22.1367 14.25L22.6289 13.1719C21.1406 12.7852 21.6914 8.77734 20.0859 8.77734C19.5703 8.77734 19.2539 9.23438 19.0547 9.23438C18.9258 9.23438 18.6211 8.97656 17.9297 8.41406C17.5898 8.14453 17.2383 7.78125 16.6055 7.78125C15.832 7.78125 15.082 8.66016 15.082 9.46875C15.082 10.7461 17.4141 11.4141 17.4141 11.8594C17.4141 12.1289 17.3086 12.3398 16.875 12.832C16.3945 13.3711 16.1719 13.7344 16.1719 14.1914C16.1719 14.3906 16.1953 14.5781 16.207 14.7539C16.2656 15.5391 16.2305 15.832 16.0078 16.207C15.4688 17.0391 13.9336 19.7812 12.4453 19.7812C11.1211 19.7812 11.2383 17.8828 11.2383 16.125C11.2383 14.4141 9.87891 13.125 8.07422 13.125C6.67969 13.125 6.01172 12.4453 6.01172 11.1328C6.01172 9.30469 7.93359 8.10938 9.76172 8.10938C10.9922 8.10938 11.9648 8.73047 12.9258 8.73047C13.7109 8.73047 14.2617 7.55859 14.2617 6.69141C14.2617 5.60156 11.9531 4.39453 11.25 4.39453C10.6758 4.39453 10.4297 4.73438 10.3828 5.47266L10.6172 5.44922L10.2422 5.15625C9.75 4.79297 9.36328 4.58203 8.91797 4.58203C7.79297 4.58203 7.74609 6.09375 7.14844 6.09375C6.99609 6.09375 6.89062 5.98828 6.89062 5.82422C6.89062 5.30859 8.14453 4.25391 8.15625 2.80078L8.16797 1.85156H7.05469V2.90625C7.05469 4.3125 5.80078 4.82812 5.80078 5.94141C5.80078 6.62109 6.28125 7.06641 7.01953 7.06641C8.41406 7.06641 8.4375 5.58984 9 5.58984C9.44531 5.60156 9.96094 6.375 10.8516 6.375C11.3906 6.375 11.6484 6 11.625 5.34375L11.2969 5.44922C12.0117 5.70703 13.1484 6.26953 13.1484 6.79688C13.1484 7.10156 13.0195 7.54688 12.7734 7.54688C12.2695 7.54688 10.9453 6.92578 9.76172 6.92578C7.28906 6.92578 4.82812 8.64844 4.82812 11.1328C4.82812 13.1133 6 14.3086 8.07422 14.3086C9.21094 14.3086 10.0547 15.0703 10.0547 16.125C10.0547 17.8594 9.85547 20.9648 12.4453 20.9648ZM15.6094 4.81641C15.8672 4.81641 16.1016 5.0625 16.5352 5.0625C16.8047 5.0625 17.0039 4.81641 17.0039 4.5C17.0039 3.92578 16.3594 3.49219 15.5156 3.49219C14.5195 3.49219 13.9453 3.82031 13.9453 4.39453C13.9453 4.76953 14.2266 5.03906 14.6016 5.03906C14.9883 5.03906 15.1641 4.81641 15.6094 4.81641ZM11.9531 23.9062C18.4922 23.9062 23.9062 18.4805 23.9062 11.9531C23.9062 5.41406 18.4805 0 11.9414 0C5.41406 0 0 5.41406 0 11.9531C0 18.4805 5.42578 23.9062 11.9531 23.9062ZM11.9531 22.3125C6.29297 22.3125 1.59375 17.6133 1.59375 11.9531C1.59375 6.29297 6.28125 1.59375 11.9414 1.59375C17.6016 1.59375 22.3125 6.29297 22.3125 11.9531C22.3125 17.6133 17.6133 22.3125 11.9531 22.3125Z" fill="black" fill-opacity="0.85"/>
</svg>
