<svg width="24" height="24" viewBox="0 0 24 24" fill="none" xmlns="http://www.w3.org/2000/svg">
<path d="M2.69531 17.1211L4.00781 14.6133C4.33594 13.9922 4.6875 13.5938 5.0625 13.5938C5.42578 13.5938 5.8125 13.9688 6.375 14.6953C7.45312 16.0898 8.19141 16.8047 8.94141 16.8047C9.66797 16.8047 10.5117 15.7734 10.5117 15.0703C10.5117 14.5547 9.80859 14.0742 9.80859 13.8164C9.80859 13.6992 9.91406 13.6289 10.1133 13.6289C11.8242 13.6289 13.3125 12.2227 13.3125 11.0859C13.3125 10.0195 12.1523 9.21094 12.1523 8.84766C12.1523 8.77734 12.2109 8.71875 12.2812 8.71875C12.3867 8.71875 12.5273 8.83594 12.7969 9.04688C14.1094 10.0898 14.7656 9.50391 14.8828 8.84766C14.9297 8.58984 15.0703 8.33203 15.7148 8.00391C16.9336 7.37109 18.1758 6.26953 18.1758 5.35547C18.1758 4.17188 16.582 3.66797 16.582 3.38672C16.582 3.21094 16.9688 3.04688 17.707 2.83594L17.4141 1.6875C16.1836 2.00391 15.2578 2.60156 15.2578 3.31641C15.2578 4.25391 16.9922 4.79297 16.9922 5.35547C16.9922 5.89453 15.9961 6.50391 15.2578 6.90234C14.0039 7.61719 14.0977 7.94531 13.9336 8.30859C13.6406 8.83594 13.0664 7.74609 12.0938 7.74609C11.5078 7.74609 11.0625 8.12109 11.0625 8.70703C11.0625 9.60938 12.1289 10.4531 12.1289 11.0859C12.1289 11.8359 11.2617 12.5625 9.77344 12.5625C8.95312 12.5625 8.50781 12.9258 8.50781 13.5586C8.50781 14.1797 9.28125 14.7656 9.28125 15.0703C9.28125 15.293 9.10547 15.5156 8.96484 15.5156C8.71875 15.5156 8.17969 15.0703 7.3125 13.9688C6.55078 12.9727 5.84766 12.4102 5.13281 12.4102C4.125 12.4102 3.49219 13.2422 3.12891 13.9102L1.98047 16.0195L2.69531 17.1211ZM17.168 21.9492L18.1172 21.2227C17.5898 20.5195 16.9219 19.5 15.5273 19.5C14.6719 19.5 14.4961 19.7812 13.9102 19.7812C13.5586 19.7812 13.3711 19.4766 13.2188 18.832C13.0781 18.2695 13.0195 17.8594 13.3828 17.707C13.8047 17.543 15.2227 17.3789 15.7031 15.8789C16.043 14.8594 16.3594 14.4609 16.9219 14.4609C17.9297 14.4609 17.7656 15.5273 18.9727 15.5273C19.5 15.5273 19.7812 15.3047 20.1562 15.3047C20.6719 15.3047 21.0234 15.8086 21.1172 17.0391L22.3008 16.5703C22.1016 15.0234 21.3633 14.1211 20.3203 14.1211C20.0508 14.1211 19.6992 14.168 19.3828 14.2734C18.9961 14.4023 18.9375 14.3789 18.6328 14.0273C18.1523 13.4766 17.7305 13.2773 17.0625 13.2773C15.8789 13.2773 15.1172 13.8516 14.5547 15.5391C14.4141 15.9961 14.2148 16.1484 13.4062 16.4531L12.9141 16.6289C11.9883 16.9805 11.7188 17.6602 12.0469 19.0898C12.3398 20.3438 12.9492 20.9766 13.8047 20.9766C14.5664 20.9766 15.0234 20.707 15.5273 20.707C16.2656 20.6836 16.6172 21.1758 17.168 21.9492ZM14.7773 11.2383C15.5391 11.2383 15.8789 10.5586 16.7344 10.3008C17.2969 10.1367 17.6016 9.5625 17.6016 9.07031C17.6016 8.67188 17.4023 8.33203 16.9688 8.33203C16.5117 8.33203 16.0898 8.68359 15.8086 9.28125C15.6562 9.62109 15.3984 9.78516 14.7773 9.96094C14.2852 10.1133 14.1094 10.2891 14.1094 10.6641C14.1094 11.0625 14.4258 11.2383 14.7773 11.2383ZM11.3789 16.6523C12.0469 16.6523 12.7031 15.8789 12.7031 15.1875C12.7031 14.332 12.3516 13.9336 11.9414 13.9336C11.4961 13.9336 11.2148 14.4609 11.2148 15.2578C11.2148 15.7148 10.8164 15.7266 10.8164 16.1836C10.8164 16.4648 11.0391 16.6523 11.3789 16.6523ZM9.32812 18.7969C9.84375 18.7969 10.1602 18.5273 10.1602 18.1055C10.1602 17.7773 9.91406 17.5664 9.5625 17.5664C8.14453 17.5664 8.08594 16.7695 7.40625 16.7695C7.03125 16.7695 6.77344 16.9922 6.77344 17.3203C6.77344 17.5781 7.03125 17.7773 7.38281 17.7773C8.13281 17.7773 7.78125 18.7969 9.32812 18.7969ZM11.9531 23.9062C18.4922 23.9062 23.9062 18.4805 23.9062 11.9531C23.9062 5.41406 18.4805 0 11.9414 0C5.41406 0 0 5.41406 0 11.9531C0 18.4805 5.42578 23.9062 11.9531 23.9062ZM11.9531 22.3125C6.29297 22.3125 1.59375 17.6133 1.59375 11.9531C1.59375 6.29297 6.28125 1.59375 11.9414 1.59375C17.6016 1.59375 22.3125 6.29297 22.3125 11.9531C22.3125 17.6133 17.6133 22.3125 11.9531 22.3125Z" fill="black" fill-opacity="0.85"/>
</svg>
