<svg width="35" height="22" viewBox="0 0 35 22" fill="none" xmlns="http://www.w3.org/2000/svg">
<path d="M30.8171 1.88672C31.5553 1.88672 32.2819 1.98047 32.985 2.15625C34.2858 2.48438 34.8249 0.691406 33.4069 0.304688C32.7389 0.128906 31.778 0 30.8171 0C24.2194 0 18.7819 6.02344 18.7819 13.2773C18.7819 18.1172 20.8327 21.3984 23.9616 21.3984C27.1022 21.3984 29.153 18.1172 29.153 13.2773C29.153 6.02344 23.7272 0 17.1178 0C10.5085 0 5.0944 6.02344 5.0944 13.2773C5.0944 18.1172 7.14518 21.3984 10.2858 21.3984C13.403 21.3984 15.4538 18.1172 15.4538 13.2773C15.4538 6.02344 10.028 0 3.43034 0C2.4694 0 1.50846 0.128906 0.840494 0.304688C-0.577475 0.691406 -0.0384125 2.48438 1.25065 2.15625C1.96549 1.98047 2.69206 1.88672 3.43034 1.88672C8.96159 1.88672 13.5671 7.05469 13.5671 13.2773C13.5671 17.0391 12.2194 19.5117 10.2858 19.5117C8.34049 19.5117 6.98112 17.0273 6.98112 13.2773C6.98112 7.05469 11.5866 1.88672 17.1178 1.88672C22.6608 1.88672 27.2663 7.05469 27.2663 13.2773C27.2663 17.0273 25.8952 19.5117 23.9616 19.5117C22.028 19.5117 20.6686 17.0391 20.6686 13.2773C20.6686 7.05469 25.2741 1.88672 30.8171 1.88672Z" fill="black" fill-opacity="0.85"/>
</svg>
