<svg width="24" height="29" viewBox="0 0 24 29" fill="none" xmlns="http://www.w3.org/2000/svg">
<path d="M0 14.2254C0 20.7645 5.42578 26.1785 11.9531 26.1785C18.4922 26.1785 23.9062 20.7645 23.9062 14.2254C23.9062 8.45979 19.6992 3.57307 14.2148 2.49495V0.830886C14.2148 -0.00114524 13.6406 -0.223801 13.0078 0.23323L9.26953 2.84651C8.73047 3.22151 8.71875 3.78401 9.26953 4.17073L12.9961 6.79573C13.6406 7.26448 14.2148 7.04182 14.2148 6.19807V4.53401C18.6445 5.54182 21.9023 9.47932 21.9023 14.2254C21.9023 19.7567 17.4844 24.1864 11.9531 24.1864C6.42188 24.1864 1.98047 19.7567 1.99219 14.2254C2.00391 10.8973 3.62109 7.95589 6.11719 6.17464C6.59766 5.81135 6.75 5.26057 6.45703 4.76839C6.16406 4.28792 5.51953 4.15901 5.00391 4.55745C1.99219 6.74885 0 10.2879 0 14.2254Z" fill="#007AFF"/>
<path d="M8.26172 19.112C9.98438 19.112 11.3555 18.1159 11.3555 16.4519C11.3555 15.1042 10.4648 14.4011 9.38672 14.2956V14.2722C10.4297 14.0378 11.0508 13.2058 11.0508 12.1863C11.0508 10.6628 9.79688 9.80738 8.22656 9.80738C6.91406 9.80738 5.78906 10.5456 5.53125 11.6003C5.49609 11.7292 5.47266 11.8816 5.47266 12.0222C5.47266 12.3855 5.67188 12.6902 6.15234 12.6902C6.55078 12.6902 6.76172 12.5261 6.89062 12.1511C7.11328 11.448 7.55859 11.0964 8.23828 11.0964C9.02344 11.0964 9.50391 11.6003 9.50391 12.3855C9.50391 13.2409 8.91797 13.7448 8.05078 13.7448H7.71094C7.3125 13.7448 7.07812 13.9792 7.07812 14.3425C7.07812 14.7292 7.32422 14.9402 7.71094 14.9402H8.07422C9.02344 14.9402 9.71484 15.3503 9.71484 16.3816C9.71484 17.2136 9.12891 17.7878 8.27344 17.7878C7.45312 17.7878 6.97266 17.3659 6.76172 16.7214C6.60938 16.405 6.35156 16.2058 6.03516 16.2058C5.58984 16.2058 5.30859 16.4753 5.30859 16.9089C5.30859 17.0495 5.33203 17.1902 5.36719 17.3308C5.66016 18.5144 7.01953 19.112 8.26172 19.112ZM15.7734 19.112C18.0703 19.112 18.8906 16.7566 18.8906 14.4363C18.8906 12.1277 18.0703 9.77222 15.7734 9.77222C13.4531 9.77222 12.6445 12.1394 12.6445 14.4363C12.6445 16.7683 13.4648 19.112 15.7734 19.112ZM15.7734 17.7878C14.7891 17.7878 14.2969 16.3464 14.2969 14.4363C14.2969 12.5378 14.7891 11.1081 15.7734 11.1081C16.7461 11.1081 17.2383 12.5378 17.2383 14.4363C17.2383 16.3464 16.7461 17.7878 15.7734 17.7878Z" fill="black" fill-opacity="0.85"/>
</svg>
