<svg width="24" height="29" viewBox="0 0 24 29" fill="none" xmlns="http://www.w3.org/2000/svg">
<path d="M0 14.2254C0 20.7645 5.42578 26.1785 11.9531 26.1785C18.4922 26.1785 23.9062 20.7645 23.9062 14.2254C23.9062 8.45979 19.6992 3.57307 14.2148 2.49495V0.830886C14.2148 -0.00114524 13.6406 -0.223801 13.0078 0.23323L9.26953 2.84651C8.73047 3.22151 8.71875 3.78401 9.26953 4.17073L12.9961 6.79573C13.6406 7.26448 14.2148 7.04182 14.2148 6.19807V4.53401C18.6445 5.54182 21.9023 9.47932 21.9023 14.2254C21.9023 19.7567 17.4844 24.1864 11.9531 24.1864C6.42188 24.1864 1.98047 19.7567 1.99219 14.2254C2.00391 10.8973 3.62109 7.95589 6.11719 6.17464C6.59766 5.81135 6.75 5.26057 6.45703 4.76839C6.16406 4.28792 5.51953 4.15901 5.00391 4.55745C1.99219 6.74885 0 10.2879 0 14.2254Z" fill="#007AFF"/>
<path d="M7.11328 19.0417C7.48828 19.0417 7.6875 18.8659 7.83984 18.5144L10.7109 11.8113C10.8398 11.5066 10.9453 11.2019 10.9453 10.8738C10.9453 10.2878 10.5352 10.0066 10.043 10.0066H6.02344C5.625 10.0066 5.36719 10.2761 5.36719 10.6628C5.36719 11.0495 5.625 11.3073 6.02344 11.3073H9.32812V11.3777L6.49219 17.7527C6.41016 17.9636 6.35156 18.1394 6.35156 18.362C6.35156 18.7722 6.66797 19.0417 7.11328 19.0417ZM15.1172 19.1355C16.9453 19.1355 18.082 17.7761 18.082 15.948C18.082 14.3777 17.1914 13.03 15.6445 13.03C14.8594 13.03 14.2148 13.3816 13.8867 13.9909H13.8398L14.0508 11.3191H17.0391C17.4258 11.3191 17.6836 11.0613 17.6836 10.6628C17.6836 10.2644 17.4375 10.0066 17.0391 10.0066H13.6406C13.0312 10.0066 12.75 10.323 12.7031 10.9441L12.457 14.3542C12.4102 14.8698 12.6914 15.2566 13.207 15.2566C13.582 15.2566 13.7461 15.1159 13.9805 14.8347C14.2617 14.4597 14.6602 14.2253 15.1406 14.2253C16.043 14.2253 16.5234 15.0573 16.5234 15.9831C16.5234 16.9909 16.0078 17.8113 15.1172 17.8113C14.4141 17.8113 13.9453 17.3659 13.7227 16.7566C13.5586 16.4284 13.3242 16.2644 13.0195 16.2644C12.5977 16.2644 12.3398 16.5222 12.3398 16.9441C12.3398 17.073 12.3633 17.2136 12.3984 17.3542C12.6914 18.4675 13.9922 19.1355 15.1172 19.1355Z" fill="black" fill-opacity="0.85"/>
</svg>
