<svg width="24" height="29" viewBox="0 0 24 29" fill="none" xmlns="http://www.w3.org/2000/svg">
<path d="M0 14.2254C0 20.7645 5.42578 26.1785 11.9531 26.1785C18.4922 26.1785 23.9062 20.7645 23.9062 14.2254C23.9062 8.45979 19.6992 3.57307 14.2148 2.49495V0.830886C14.2148 -0.00114524 13.6406 -0.223801 13.0078 0.23323L9.26953 2.84651C8.73047 3.22151 8.71875 3.78401 9.26953 4.17073L12.9961 6.79573C13.6406 7.26448 14.2148 7.04182 14.2148 6.19807V4.53401C18.6445 5.54182 21.9023 9.47932 21.9023 14.2254C21.9023 19.7567 17.4844 24.1864 11.9531 24.1864C6.42188 24.1864 1.98047 19.7567 1.99219 14.2254C2.00391 10.8973 3.62109 7.95589 6.11719 6.17464C6.59766 5.81135 6.75 5.26057 6.45703 4.76839C6.16406 4.28792 5.51953 4.15901 5.00391 4.55745C1.99219 6.74885 0 10.2879 0 14.2254Z" fill="#007AFF"/>
<path d="M12.0469 19.1355C13.875 19.1355 15.0117 17.7761 15.0117 15.948C15.0117 14.3777 14.1211 13.03 12.5742 13.03C11.8008 13.03 11.1445 13.3933 10.8281 13.9909H10.7812L10.9805 11.3191H13.9688C14.3555 11.3191 14.6133 11.0613 14.6133 10.6628C14.6133 10.2644 14.3672 10.0066 13.9688 10.0066H10.5703C9.96094 10.0066 9.67969 10.3347 9.63281 10.9441L9.38672 14.3659C9.35156 14.8816 9.62109 15.2683 10.1367 15.2683C10.5117 15.2683 10.6758 15.1159 10.9102 14.8464C11.1914 14.4597 11.5898 14.2253 12.0586 14.2253C12.9844 14.2253 13.4414 15.0573 13.4414 15.9948C13.4414 16.9909 12.9375 17.823 12.0352 17.823C11.3438 17.823 10.8633 17.3659 10.6406 16.7566C10.4883 16.4284 10.2422 16.2644 9.9375 16.2644C9.52734 16.2644 9.26953 16.5222 9.26953 16.9323C9.26953 17.073 9.29297 17.2136 9.32812 17.3425C9.62109 18.4675 10.9102 19.1355 12.0469 19.1355Z" fill="black" fill-opacity="0.85"/>
</svg>
