<svg width="24" height="29" viewBox="0 0 24 29" fill="none" xmlns="http://www.w3.org/2000/svg">
<path d="M0 14.2216C0 20.7607 5.42578 26.1748 11.9531 26.1748C18.4922 26.1748 23.9062 20.7607 23.9062 14.2216C23.9062 10.2841 21.9141 6.74507 18.9023 4.55366C18.3867 4.15522 17.7422 4.28413 17.4492 4.7646C17.1562 5.25678 17.3086 5.80757 17.7891 6.17085C20.2852 7.9521 21.9023 10.8935 21.9141 14.2216C21.9258 19.7529 17.4844 24.1826 11.9531 24.1826C6.42188 24.1826 2.00391 19.7529 2.00391 14.2216C2.00391 9.47553 5.26172 5.53803 9.69141 4.53022V6.206C9.69141 7.03803 10.2656 7.26069 10.9102 6.80366L14.6484 4.17866C15.1758 3.81538 15.1875 3.25288 14.6484 2.86616L10.9219 0.24116C10.2656 -0.22759 9.69141 -0.00493437 9.69141 0.838816V2.49116C4.20703 3.56928 0 8.456 0 14.2216Z" fill="#007AFF"/>
<path d="M11.9883 19.1318C13.8164 19.1318 14.9531 17.7724 14.9531 15.9443C14.9531 14.374 14.0625 13.0263 12.5156 13.0263C11.7422 13.0263 11.0859 13.3896 10.7695 13.9873H10.7227L10.9219 11.3154H13.9102C14.2969 11.3154 14.5547 11.0576 14.5547 10.6591C14.5547 10.2607 14.3086 10.0029 13.9102 10.0029H10.5117C9.90234 10.0029 9.62109 10.331 9.57422 10.9404L9.32812 14.3623C9.29297 14.8779 9.5625 15.2646 10.0781 15.2646C10.4531 15.2646 10.6172 15.1123 10.8516 14.8427C11.1328 14.456 11.5312 14.2216 12 14.2216C12.9258 14.2216 13.3828 15.0537 13.3828 15.9912C13.3828 16.9873 12.8789 17.8193 11.9766 17.8193C11.2852 17.8193 10.8047 17.3623 10.582 16.7529C10.4297 16.4248 10.1953 16.2607 9.87891 16.2607C9.46875 16.2607 9.21094 16.5185 9.21094 16.9287C9.21094 17.0693 9.23438 17.2099 9.26953 17.3388C9.5625 18.4638 10.8516 19.1318 11.9883 19.1318Z" fill="black" fill-opacity="0.85"/>
</svg>
