<svg width="24" height="29" viewBox="0 0 24 29" fill="none" xmlns="http://www.w3.org/2000/svg">
<path d="M0 14.2216C0 20.7607 5.42578 26.1748 11.9531 26.1748C18.4922 26.1748 23.9062 20.7607 23.9062 14.2216C23.9062 10.2841 21.9141 6.74507 18.9023 4.55366C18.3867 4.15522 17.7422 4.28413 17.4492 4.7646C17.1562 5.25678 17.3086 5.80757 17.7891 6.17085C20.2852 7.9521 21.9023 10.8935 21.9141 14.2216C21.9258 19.7529 17.4844 24.1826 11.9531 24.1826C6.42188 24.1826 2.00391 19.7529 2.00391 14.2216C2.00391 9.47553 5.26172 5.53803 9.69141 4.53022V6.206C9.69141 7.03803 10.2656 7.26069 10.9102 6.80366L14.6484 4.17866C15.1758 3.81538 15.1875 3.25288 14.6484 2.86616L10.9219 0.24116C10.2656 -0.22759 9.69141 -0.00493437 9.69141 0.838816V2.49116C4.20703 3.56928 0 8.456 0 14.2216Z" fill="#007AFF"/>
<path d="M7.05469 19.038C7.42969 19.038 7.62891 18.8623 7.78125 18.5107L10.6523 11.8076C10.7812 11.5029 10.8867 11.1982 10.8867 10.8701C10.8867 10.2841 10.4766 10.0029 9.98438 10.0029H5.96484C5.57812 10.0029 5.30859 10.2724 5.30859 10.6591C5.30859 11.0458 5.57812 11.3037 5.96484 11.3037H9.26953V11.374L6.43359 17.749C6.35156 17.9599 6.29297 18.1357 6.29297 18.3583C6.29297 18.7685 6.60938 19.038 7.05469 19.038ZM15.0586 19.1318C16.8867 19.1318 18.0234 17.7724 18.0234 15.9443C18.0234 14.374 17.1328 13.0263 15.5977 13.0263C14.8008 13.0263 14.1562 13.3779 13.8281 13.9873H13.7812L13.9922 11.3154H16.9805C17.3672 11.3154 17.625 11.0576 17.625 10.6591C17.625 10.2607 17.3789 10.0029 16.9805 10.0029H13.582C12.9727 10.0029 12.6914 10.3193 12.6445 10.9404L12.3984 14.3505C12.3516 14.8662 12.6328 15.2529 13.1484 15.2529C13.5234 15.2529 13.6875 15.1123 13.9219 14.831C14.2031 14.456 14.6016 14.2216 15.082 14.2216C15.9844 14.2216 16.4648 15.0537 16.4648 15.9794C16.4648 16.9873 15.9492 17.8076 15.0586 17.8076C14.3555 17.8076 13.8867 17.3623 13.6641 16.7529C13.5 16.4248 13.2656 16.2607 12.9609 16.2607C12.5391 16.2607 12.2812 16.5185 12.2812 16.9404C12.2812 17.0693 12.3047 17.2099 12.3398 17.3505C12.6328 18.4638 13.9336 19.1318 15.0586 19.1318Z" fill="black" fill-opacity="0.85"/>
</svg>
