<svg width="24" height="24" viewBox="0 0 24 24" fill="none" xmlns="http://www.w3.org/2000/svg">
<path d="M11.9531 23.9062C18.4922 23.9062 23.9062 18.4805 23.9062 11.9531C23.9062 5.41406 18.4805 0 11.9414 0C5.41406 0 0 5.41406 0 11.9531C0 18.4805 5.42578 23.9062 11.9531 23.9062ZM11.9531 21.9141C6.42188 21.9141 2.00391 17.4844 2.00391 11.9531C2.00391 6.42188 6.41016 1.99219 11.9414 1.99219C17.4727 1.99219 21.9141 6.42188 21.9141 11.9531C21.9141 17.4844 17.4844 21.9141 11.9531 21.9141Z" fill="#007AFF"/>
<path d="M18.7969 9.23438L13.4062 6.78516C12.8555 6.53906 12.3984 6.41016 11.9414 6.42188C11.4844 6.41016 11.0391 6.53906 10.4766 6.78516L5.09766 9.23438C4.74609 9.39844 4.57031 9.69141 4.57031 9.96094C4.57031 10.2422 4.74609 10.5117 5.09766 10.6758L7.33594 11.6953L10.793 10.0898C10.7695 10.043 10.7578 10.0078 10.7578 9.96094C10.7578 9.58594 11.3672 9.32812 11.9648 9.32812C12.5625 9.32812 13.1602 9.58594 13.1602 9.96094C13.1602 10.3477 12.5625 10.6172 11.9648 10.6172C11.7773 10.6172 11.6016 10.5938 11.4375 10.5469L8.16797 12.082L10.4766 13.1367C11.0391 13.4062 11.4844 13.5117 11.9414 13.5C12.3984 13.5117 12.8555 13.4062 13.4062 13.1367L18.7969 10.6758C19.1484 10.5117 19.3125 10.2422 19.3125 9.96094C19.3125 9.69141 19.1484 9.39844 18.7969 9.23438ZM11.9414 17.1094C15.1875 17.1094 17.25 15.7148 17.25 14.0859V12.2344L13.7227 13.8516C13.0781 14.1445 12.4922 14.2969 11.9414 14.2734C11.3906 14.2969 10.8047 14.1445 10.1602 13.8516L8.13281 12.9258V16.2188C9.05859 16.7695 10.3594 17.1094 11.9414 17.1094ZM6.63281 12.2344V14.0859C6.63281 14.5547 6.90234 15.1289 7.35938 15.6211V12.5625L6.63281 12.2344ZM7.35938 17.2852H8.13281V16.2188C7.83984 16.043 7.59375 15.8438 7.35938 15.6211V17.2852ZM6.97266 17.2734V18.457C6.97266 18.8789 7.24219 19.1602 7.67578 19.1602H7.81641C8.25 19.1602 8.53125 18.8789 8.53125 18.457V17.2734C8.53125 16.8398 8.25 16.5703 7.81641 16.5703H7.67578C7.24219 16.5703 6.97266 16.8398 6.97266 17.2734Z" fill="black" fill-opacity="0.85"/>
</svg>
