<svg width="24" height="24" viewBox="0 0 24 24" fill="none" xmlns="http://www.w3.org/2000/svg">
<path d="M11.9531 23.918C18.4922 23.918 23.9062 18.5039 23.9062 11.9648C23.9062 5.4375 18.4805 0.0117188 11.9414 0.0117188C5.41406 0.0117188 0 5.4375 0 11.9648C0 18.5039 5.42578 23.918 11.9531 23.918Z" fill="#FFCC00"/>
<path d="M4.34766 9.87891C4.34766 9.60938 4.52344 9.30469 4.88672 9.14062L10.4297 6.60938C11.0156 6.35156 11.4727 6.22266 11.9414 6.23438C12.4102 6.22266 12.8789 6.35156 13.4531 6.60938L19.0078 9.14062C19.3711 9.30469 19.5352 9.60938 19.5352 9.87891C19.5352 10.1719 19.3711 10.4531 19.0078 10.6172L13.4531 13.1719C12.8789 13.4297 12.4102 13.5469 11.9414 13.5352C11.4727 13.5469 11.0156 13.4297 10.4297 13.1719L8.05078 12.0703L11.4258 10.4883C11.5898 10.5352 11.7773 10.5586 11.9648 10.5586C12.5859 10.5586 13.1953 10.2773 13.1953 9.87891C13.1953 9.49219 12.5859 9.23438 11.9648 9.23438C11.3555 9.23438 10.7227 9.49219 10.7227 9.87891C10.7227 9.92578 10.7344 9.98438 10.7578 10.0195L7.19531 11.6719L4.88672 10.6172C4.52344 10.4531 4.34766 10.1719 4.34766 9.87891ZM6.46875 14.1328V12.2227L7.21875 12.5742V15.7266C6.73828 15.2109 6.46875 14.625 6.46875 14.1328ZM6.82031 18.6445V17.4258C6.82031 17.0977 6.97266 16.8633 7.21875 16.7578V15.7266C7.45312 15.9609 7.71094 16.1719 8.02734 16.3477V16.7695C8.26172 16.875 8.42578 17.1094 8.42578 17.4258V18.6445C8.42578 19.0898 8.13281 19.3711 7.6875 19.3711H7.54688C7.08984 19.3711 6.82031 19.0898 6.82031 18.6445ZM8.02734 16.3477V12.9375L10.1016 13.8984C10.7695 14.2031 11.3789 14.3555 11.9414 14.3438C12.5039 14.3555 13.1133 14.2031 13.7812 13.8984L17.4141 12.2227V14.1328C17.4141 15.8203 15.293 17.25 11.9414 17.25C10.3125 17.25 8.96484 16.9219 8.02734 16.3477Z" fill="black" fill-opacity="0.85"/>
</svg>
