<svg width="22" height="22" viewBox="0 0 22 22" fill="none" xmlns="http://www.w3.org/2000/svg">
<path d="M3.67969 21.5977H17.8945C20.3555 21.5977 21.5742 20.3789 21.5742 17.9648V3.65625C21.5742 1.24219 20.3555 0.0234375 17.8945 0.0234375H3.67969C1.23047 0.0234375 0 1.23047 0 3.65625V17.9648C0 20.3906 1.23047 21.5977 3.67969 21.5977ZM3.70312 19.7109C2.53125 19.7109 1.88672 19.0898 1.88672 17.8711V3.75C1.88672 2.53125 2.53125 1.91016 3.70312 1.91016H17.8711C19.0312 1.91016 19.6875 2.53125 19.6875 3.75V17.8711C19.6875 19.0898 19.0312 19.7109 17.8711 19.7109H3.70312Z" fill="#007AFF"/>
<path d="M7.75781 15.5859C7.99219 15.5859 8.15625 15.5391 8.33203 15.457L15.3164 11.8242C15.7969 11.5664 16.0078 11.2734 16.0078 10.793C16.0078 10.3477 15.7734 10.0195 15.3164 9.76171L8.33203 6C8.14453 5.90625 7.99219 5.85938 7.73438 5.85938C7.19531 5.85938 6.78516 6.25781 6.78516 6.78516C6.78516 7.21875 6.99609 7.49999 7.47656 7.73438L13.418 10.7227V10.793L7.47656 13.7109C6.98438 13.9453 6.78516 14.2031 6.78516 14.6484C6.78516 15.1875 7.20703 15.5859 7.75781 15.5859Z" fill="black" fill-opacity="0.85"/>
</svg>
