<svg width="22" height="22" viewBox="0 0 22 22" fill="none" xmlns="http://www.w3.org/2000/svg">
<path d="M3.67969 21.5977H17.8945C20.3555 21.5977 21.5742 20.3789 21.5742 17.9648V3.65625C21.5742 1.24219 20.3555 0.0234375 17.8945 0.0234375H3.67969C1.23047 0.0234375 0 1.23047 0 3.65625V17.9648C0 20.3906 1.23047 21.5977 3.67969 21.5977Z" fill="#FFCC00"/>
<path d="M7.66406 15.75C7.08984 15.75 6.65625 15.3281 6.65625 14.7773C6.65625 14.3086 6.86719 14.0391 7.37109 13.8047L13.5 10.793V10.7227L7.37109 7.64062C6.87891 7.40625 6.65625 7.11328 6.65625 6.65625C6.65625 6.11719 7.07812 5.69531 7.64062 5.69531C7.91016 5.69531 8.0625 5.75391 8.26172 5.84766L15.4688 9.72656C15.9375 9.99609 16.1836 10.3359 16.1836 10.793C16.1836 11.2969 15.9609 11.6016 15.4688 11.8594L8.26172 15.6094C8.07422 15.6914 7.91016 15.75 7.66406 15.75Z" fill="black" fill-opacity="0.85"/>
</svg>
