<svg width="24" height="24" viewBox="0 0 24 24" fill="none" xmlns="http://www.w3.org/2000/svg">
<path d="M11.9531 23.9062C18.4922 23.9062 23.9062 18.4805 23.9062 11.9531C23.9062 5.41406 18.4805 0 11.9414 0C5.41406 0 0 5.41406 0 11.9531C0 18.4805 5.42578 23.9062 11.9531 23.9062Z" fill="#FFCC00"/>
<path d="M8.82422 16.9102C8.25 16.9102 7.81641 16.4883 7.81641 15.9375C7.81641 15.4688 8.02734 15.1992 8.53125 14.9648L14.6484 11.9531V11.8828L8.53125 8.80078C8.03906 8.56641 7.81641 8.27344 7.81641 7.81641C7.81641 7.27734 8.23828 6.85547 8.80078 6.85547C9.07031 6.85547 9.22266 6.91406 9.41016 7.00781L16.6172 10.8867C17.0977 11.1562 17.3438 11.4961 17.3438 11.9531C17.3438 12.457 17.1211 12.7617 16.6172 13.0195L9.41016 16.7695C9.23438 16.8516 9.07031 16.9102 8.82422 16.9102Z" fill="black" fill-opacity="0.85"/>
</svg>
