<svg width="19" height="27" viewBox="0 0 19 27" fill="none" xmlns="http://www.w3.org/2000/svg">
<path d="M2.21484 23.747L15.0352 26.0087C17.332 26.4189 18.7266 25.1298 18.7266 22.622V8.47746C18.7266 6.18059 17.5547 5.34856 15.2695 4.9384L2.82422 2.74699C1.11328 2.45403 0 3.37981 0 5.05559V21.1923C0 22.6337 0.738281 23.4892 2.21484 23.747ZM3.02344 9.73137V7.25871C3.02344 6.40324 3.5625 6.01653 4.45312 6.16887L6.97266 6.61418C7.86328 6.77824 7.65234 8.27824 6.65625 8.10246L5.10938 7.82121C4.74609 7.76262 4.55859 7.90324 4.55859 8.21966V9.78996C4.55859 10.7157 3.02344 10.7157 3.02344 9.73137ZM14.0742 11.6415V10.1532C14.0742 9.80169 13.9688 9.37982 13.2773 9.26262L12.3047 9.08684C11.2383 8.89934 11.4961 7.41106 12.5625 7.59856L13.7812 7.80949C15.082 8.04387 15.6094 8.59466 15.6094 9.68449V11.6415C15.6094 12.7197 14.0742 12.6259 14.0742 11.6415ZM4.55859 17.1962V18.6845C4.55859 19.0361 4.66406 19.4579 5.35547 19.5751L6.32812 19.7509C7.39453 19.9267 7.13672 21.4267 6.07031 21.2392L4.85156 21.0282C3.55078 20.7939 3.02344 20.2431 3.02344 19.1532V17.1962C3.02344 16.1181 4.55859 16.2118 4.55859 17.1962ZM15.6094 19.1064V21.579C15.6094 22.4345 15.0703 22.8212 14.1797 22.6689L11.6719 22.2236C10.7812 22.0595 10.9805 20.5595 11.9766 20.7353L13.5234 21.0165C13.8867 21.0751 14.0742 20.9345 14.0742 20.6181V19.0478C14.0742 18.122 15.6094 18.122 15.6094 19.1064ZM5.41406 1.58684L15.5508 3.36809C16.5469 3.54387 17.3789 3.82512 18.0586 4.1884V3.28606C18.0586 0.813405 16.4062 -0.35847 13.6289 0.133717L5.41406 1.58684Z" fill="black" fill-opacity="0.85"/>
</svg>
