<svg width="17" height="27" viewBox="0 0 17 27" fill="none" xmlns="http://www.w3.org/2000/svg">
<path d="M8.95312 23.8477C14.1211 23.8477 16.957 20.543 16.957 15.1875V14.0391C16.957 13.3008 16.5117 12.8438 15.7969 12.8438H9.33984V14.8125H14.7188V15.6797C14.7188 19.3711 12.5508 21.7969 8.96484 21.7969C4.95703 21.7969 2.35547 18.4336 2.35547 13.1133C2.35547 7.86328 4.95703 4.57031 8.95312 4.57031C11.6133 4.57031 13.8281 6.17578 14.4609 8.46094C14.6719 9.14062 14.9648 9.41016 15.5742 9.41016C16.207 9.41016 16.6172 8.98828 16.6055 8.36719C16.6055 8.02734 16.5469 7.6875 16.4297 7.35938C15.3984 4.47656 12.4805 2.51953 8.95312 2.51953C3.55078 2.51953 0 6.63281 0 13.1133C0 19.6758 3.52734 23.8477 8.95312 23.8477ZM8.84766 26.3086C9.28125 26.3086 9.60938 25.9922 9.60938 25.5352V0.855469C9.60938 0.410156 9.28125 0.09375 8.84766 0.09375C8.41406 0.09375 8.08594 0.410156 8.08594 0.855469V25.5352C8.08594 25.9922 8.41406 26.3086 8.84766 26.3086Z" fill="black" fill-opacity="0.85"/>
</svg>
