<svg width="24" height="24" viewBox="0 0 24 24" fill="none" xmlns="http://www.w3.org/2000/svg">
<path d="M11.9531 23.9062C18.4922 23.9062 23.9062 18.4805 23.9062 11.9531C23.9062 5.41406 18.4805 0 11.9414 0C5.41406 0 0 5.41406 0 11.9531C0 18.4805 5.42578 23.9062 11.9531 23.9062ZM11.9531 21.9141C6.42188 21.9141 2.00391 17.4844 2.00391 11.9531C2.00391 6.42188 6.41016 1.99219 11.9414 1.99219C17.4727 1.99219 21.9141 6.42188 21.9141 11.9531C21.9141 17.4844 17.4844 21.9141 11.9531 21.9141Z" fill="#007AFF"/>
<path d="M12.1172 18.9609C12.4453 18.9609 12.6914 18.7266 12.6914 18.375V17.5898C15.1172 17.3906 16.4414 15.6797 16.4414 13.0195V12.4336C16.4414 11.9297 16.1367 11.6367 15.668 11.6367H12.6914V7.81641C13.7227 7.98047 14.543 8.68359 14.8008 9.60938C14.9531 10.0664 15.1523 10.2305 15.5625 10.2305C15.9961 10.2305 16.2773 9.9375 16.2773 9.51562C16.2773 9.30469 16.2305 9.12891 16.1719 8.94141C15.668 7.53516 14.3438 6.55078 12.6914 6.375V5.61328C12.6914 5.26172 12.4453 5.03906 12.1172 5.03906C11.7773 5.03906 11.5312 5.26172 11.5312 5.61328V6.39844C9.04688 6.70312 7.44141 8.8125 7.44141 11.9648C7.44141 15.1875 9.02344 17.2734 11.5312 17.5781V18.375C11.5312 18.7266 11.7891 18.9609 12.1172 18.9609ZM11.5312 16.125C9.97266 15.7969 9.01172 14.25 9.01172 11.9648C9.01172 9.71484 9.97266 8.16797 11.5312 7.83984V16.125ZM12.6914 16.1719V13.0195H14.9297V13.2773C14.9297 14.8594 14.0977 15.9609 12.6914 16.1719Z" fill="black" fill-opacity="0.85"/>
</svg>
