<svg width="31" height="27" viewBox="0 0 31 27" fill="none" xmlns="http://www.w3.org/2000/svg">
<path d="M25.4219 25.5C28.6329 25.5 30.6719 23.9766 30.6719 21.5625C30.6719 19.1484 29.1016 18.5508 29.1016 17.5312C29.1016 16.7461 29.4415 16.0312 29.4415 15.0586C29.4415 13.4531 28.3165 12.4336 26.3477 12.1992V5.28516C26.3477 4.81641 26.3946 4.67578 26.6758 4.5C26.9102 4.33594 27.0157 4.20703 26.9923 3.98438L26.8165 1.08984C26.8048 0.832031 26.6173 0.644531 26.3829 0.644531H24.4493C24.2266 0.644531 24.0391 0.832031 24.0274 1.08984L23.8516 3.98438C23.8282 4.20703 23.9337 4.33594 24.168 4.5C24.4376 4.6875 24.4844 4.82812 24.4844 5.28516V12.1992C22.5274 12.4336 21.4024 13.4531 21.4024 15.0586C21.4024 16.0312 21.7423 16.7461 21.7423 17.5312C21.7423 18.5508 20.1719 19.1484 20.1719 21.5625C20.1719 23.9766 22.211 25.5 25.4219 25.5ZM25.4219 24.1758C22.961 24.1758 21.4962 23.1914 21.4962 21.5625C21.4962 19.6758 23.0782 18.9375 23.0782 17.5078C23.0782 16.6875 22.7266 15.8203 22.7266 15.0586C22.7266 13.8164 23.8282 13.4297 25.4219 13.4297C27.0157 13.4297 28.1173 13.8164 28.1173 15.0586C28.1173 15.8203 27.7657 16.6875 27.7657 17.5078C27.7657 18.9375 29.3477 19.6758 29.3477 21.5625C29.3477 23.1914 27.8829 24.1758 25.4219 24.1758ZM25.4219 18.457C26.1251 18.457 26.6876 17.8828 26.6876 17.1914C26.6876 16.4883 26.1251 15.9141 25.4219 15.9141C24.7188 15.9141 24.1446 16.4883 24.1446 17.1914C24.1446 17.8828 24.7071 18.457 25.4219 18.457ZM23.9219 21.7734H26.8985C27.1798 21.7734 27.4141 21.5508 27.4141 21.2695C27.4141 20.9766 27.1798 20.7422 26.8985 20.7422H23.9219C23.6524 20.7422 23.4063 20.9883 23.4063 21.2695C23.4063 21.5508 23.6407 21.7734 23.9219 21.7734Z" fill="#FFCC00"/>
<path d="M16.2343 26.168C19.7148 26.168 22.0937 24.0469 22.0937 20.8711C22.0937 18.2109 20.6406 17.168 20.6406 16.7109C20.6406 16.0547 21.4375 15.3398 21.4375 13.8867C21.4375 12.6797 20.5937 11.8008 19.457 11.8008C18.7187 11.8008 18.1914 12.1289 17.7578 12.6211L17.7695 5.77734C18.0859 5.60156 18.2851 5.29688 18.3554 4.75781L18.5898 2.35547C18.6132 1.95703 18.4609 1.54688 18.1445 1.25391L17.125 0.386719C16.8906 0.175781 16.5742 0.046875 16.2343 0.046875C15.8945 0.046875 15.5781 0.175781 15.3437 0.386719L14.3359 1.25391C14.0429 1.53516 13.8554 1.95703 13.8906 2.36719L14.125 4.75781C14.1601 5.29688 14.3945 5.58984 14.6992 5.76562L14.7226 12.6445C14.3242 12.2227 13.6914 11.8008 13.0117 11.8008C11.875 11.8008 11.0312 12.6797 11.0312 13.8867C11.0312 15.3398 11.8281 16.0547 11.8281 16.7109C11.8281 17.168 10.375 18.2109 10.375 20.8711C10.375 24.0469 12.7539 26.168 16.2343 26.168Z" fill="white"/>
<path d="M16.2344 25.5703C19.4102 25.5703 21.4962 23.6953 21.4962 20.8711C21.4962 18.5391 20.043 17.4609 20.043 16.7109C20.043 15.8086 20.8399 15.0703 20.8399 13.8867C20.8399 13.0195 20.2657 12.3984 19.4571 12.3984C18.7188 12.3984 18.2618 12.8203 17.9923 13.2773C17.7813 13.6055 17.5821 13.8281 17.4415 13.8281C17.2188 13.8281 17.1602 13.4297 17.1602 12.8789L17.1719 5.71875C17.1719 5.37891 17.1719 5.35547 17.3594 5.29688C17.629 5.21484 17.711 5.0625 17.7579 4.69922L17.9923 2.30859C18.004 2.08594 17.9219 1.875 17.7344 1.71094L16.7383 0.832031C16.5977 0.714844 16.4337 0.644531 16.2344 0.644531C16.0469 0.644531 15.8712 0.714844 15.7423 0.832031L14.7344 1.71094C14.5704 1.86328 14.4649 2.09766 14.4883 2.30859L14.7227 4.69922C14.7462 5.05078 14.8516 5.21484 15.1212 5.29688C15.2735 5.33203 15.2969 5.39062 15.2969 5.71875L15.3204 12.8789C15.3204 13.3945 15.2501 13.8281 15.0391 13.8281C14.8868 13.8281 14.6876 13.6055 14.4883 13.2773C14.2071 12.8203 13.7501 12.3984 13.0118 12.3984C12.2032 12.3984 11.629 13.0195 11.629 13.8867C11.629 15.0703 12.4258 15.8086 12.4258 16.7109C12.4258 17.4609 10.9727 18.5391 10.9727 20.8711C10.9727 23.6953 13.0704 25.5703 16.2344 25.5703ZM16.2344 24.2227C13.7852 24.2227 12.3087 22.9688 12.3087 20.8711C12.3087 18.7148 13.7501 18.0117 13.7501 16.7227C13.7501 15.5156 12.9415 14.8125 12.9415 13.875C12.9415 13.7695 13.0235 13.6875 13.1055 13.6875C13.6329 13.6875 13.9141 15.1055 15.086 15.1055C15.6133 15.1055 16.0118 14.7891 16.1876 14.1914H16.2813C16.4688 14.8008 16.879 15.1055 17.4063 15.1055C18.5548 15.1055 18.836 13.6875 19.3633 13.6875C19.4454 13.6875 19.5274 13.7695 19.5274 13.875C19.5274 14.8125 18.7188 15.5156 18.7188 16.7227C18.7188 18.0117 20.1602 18.7148 20.1602 20.8711C20.1602 22.9688 18.6837 24.2227 16.2344 24.2227ZM13.9141 20.6719C14.1602 20.7656 14.4298 20.6367 14.5235 20.3906L15.4962 17.7188C15.5782 17.4727 15.461 17.1914 15.2149 17.1094C14.9688 17.0156 14.6993 17.1445 14.6055 17.3906L13.6329 20.0742C13.5508 20.3086 13.668 20.5898 13.9141 20.6719ZM18.5548 20.6719C18.8008 20.5898 18.9298 20.3086 18.8477 20.0742L17.8751 17.3906C17.7813 17.1445 17.5118 17.0156 17.2657 17.1094C17.0196 17.1914 16.8907 17.4727 16.9727 17.7188L17.9454 20.3906C18.0391 20.6367 18.3087 20.7656 18.5548 20.6719Z" fill="#007AFF"/>
<path d="M0.226229 23.1445C-0.394864 24.5273 0.284823 26.1328 1.99576 26.1328C2.59342 26.1328 3.12076 25.8984 3.82389 25.3242L6.8942 22.7578L9.97623 25.3242C10.6794 25.8984 11.195 26.1328 11.8044 26.1328C13.5036 26.1328 14.1833 24.5273 13.5739 23.1445L8.44107 11.5781V6.25781C8.44107 3.65625 8.88639 1.67578 8.88639 1.21875C8.88639 0.539062 8.40592 0.046875 7.73795 0.046875C7.36295 0.046875 7.03482 0.199219 6.57779 0.691406L3.99967 3.66797C3.50748 4.24219 3.65982 5.01562 4.31607 5.35547L5.37076 5.87109V11.5312L0.226229 23.1445Z" fill="white"/>
<path d="M0.77697 23.3789C0.343376 24.3633 0.706657 25.5352 1.99572 25.5352C2.44103 25.5352 2.82775 25.3594 3.42541 24.8672L6.63635 22.1836C6.76525 22.0781 6.84728 22.043 6.89416 22.043C6.95275 22.043 7.02306 22.0781 7.15197 22.1836L10.3629 24.8672C10.9723 25.3594 11.3473 25.5352 11.8044 25.5352C13.0817 25.5352 13.4567 24.3633 13.0114 23.3789L7.84338 11.6953V6.25781C7.84338 3.58594 8.28869 1.59375 8.28869 1.21875C8.28869 0.867188 8.07775 0.644531 7.73791 0.644531C7.51525 0.644531 7.32775 0.773438 7.03478 1.08984L4.44494 4.05469C4.21056 4.32422 4.26916 4.66406 4.57385 4.81641C5.59338 5.28516 5.96838 5.42578 5.96838 6.25781V11.6602L0.77697 23.3789ZM1.99572 23.8477L6.82385 12.8086H6.96447L11.8044 23.8477C11.9333 24.1406 11.6989 24.293 11.4762 24.1055L7.86681 21.0938C7.49181 20.7891 7.18713 20.6367 6.89416 20.6367C6.61291 20.6367 6.30822 20.7891 5.9215 21.0938L2.31213 24.1055C2.10119 24.293 1.86681 24.1406 1.99572 23.8477ZM8.12463 18.4922C8.42931 18.4922 8.68713 18.2461 8.68713 17.9414C8.68713 17.625 8.44103 17.3555 8.12463 17.3555C7.81994 17.3555 7.56213 17.6367 7.56213 17.9414C7.56213 18.2344 7.81994 18.4922 8.12463 18.4922ZM8.74572 19.9688C9.05041 19.9688 9.31994 19.7109 9.31994 19.4062C9.31994 19.0898 9.05041 18.832 8.74572 18.832C8.44103 18.832 8.1715 19.1016 8.1715 19.4062C8.1715 19.7109 8.44103 19.9688 8.74572 19.9688ZM9.34338 21.4336C9.65978 21.4336 9.92931 21.1641 9.92931 20.8711C9.92931 20.5664 9.6715 20.2969 9.34338 20.2969C9.06213 20.2969 8.80431 20.5664 8.80431 20.8711C8.80431 21.1758 9.03869 21.4336 9.34338 21.4336Z" fill="black" fill-opacity="0.85"/>
</svg>
