<svg width="31" height="27" viewBox="0 0 31 27" fill="none" xmlns="http://www.w3.org/2000/svg">
<path d="M25.4678 25.5234C28.6437 25.5234 30.6709 24.0234 30.6709 21.6328C30.6709 19.2422 29.1006 18.6445 29.1006 17.6016C29.1006 16.8047 29.4404 16.1016 29.4404 15.1289C29.4404 13.5469 28.3154 12.5391 26.3467 12.3047V5.35547C26.3467 4.86328 26.417 4.72266 26.6982 4.53516C26.9326 4.38281 27.0146 4.25391 26.9912 4.05469L26.8154 1.16016C26.8037 0.925781 26.6396 0.761719 26.4287 0.761719H24.5068C24.2959 0.761719 24.1318 0.925781 24.1201 1.16016L23.9443 4.05469C23.9209 4.25391 24.0029 4.38281 24.2373 4.53516C24.5186 4.72266 24.5771 4.86328 24.5771 5.35547V12.3047C22.6201 12.5391 21.4951 13.5469 21.4951 15.1289C21.4951 16.1016 21.835 16.8047 21.835 17.6016C21.835 18.6445 20.2646 19.2422 20.2646 21.6328C20.2646 24.0234 22.292 25.5234 25.4678 25.5234ZM25.4678 18.5625C24.7295 18.5625 24.1553 17.9766 24.1553 17.2617C24.1553 16.5352 24.7412 15.9492 25.4678 15.9492C26.1943 15.9492 26.7686 16.5352 26.7686 17.2617C26.7686 17.9766 26.1943 18.5625 25.4678 18.5625ZM23.9209 21.8672C23.6279 21.8672 23.3818 21.6328 23.3818 21.3398C23.3818 21.0469 23.6396 20.7891 23.9209 20.7891H26.9912C27.2842 20.7891 27.5303 21.0352 27.5303 21.3398C27.5303 21.6328 27.2842 21.8672 26.9912 21.8672H23.9209Z" fill="#FFCC00"/>
<path d="M16.2803 26.3086C19.7842 26.3086 22.21 24.1523 22.21 20.9414C22.21 18.2344 20.7568 17.2031 20.7568 16.7812C20.7568 16.1484 21.5537 15.4805 21.5537 13.957C21.5537 12.7148 20.6865 11.8008 19.5029 11.8008C18.8115 11.8008 18.2959 12.1055 17.874 12.5508L17.8857 5.88281C18.2139 5.69531 18.4248 5.37891 18.4717 4.83984L18.7061 2.4375C18.7295 2.01562 18.5654 1.58203 18.2256 1.27734L17.2178 0.410156C16.9365 0.164062 16.5967 0.046875 16.2803 0.046875C15.9639 0.046875 15.624 0.164062 15.3428 0.410156L14.335 1.27734C13.9951 1.58203 13.8311 2.01562 13.8545 2.4375L14.0889 4.83984C14.1357 5.37891 14.3467 5.69531 14.6748 5.88281L14.6865 12.5625C14.2646 12.1055 13.7607 11.8008 13.0576 11.8008C11.874 11.8008 11.0068 12.7148 11.0068 13.957C11.0068 15.4805 11.8037 16.1484 11.8037 16.7812C11.8037 17.2031 10.3506 18.2344 10.3506 20.9414C10.3506 24.1523 12.7764 26.3086 16.2803 26.3086Z" fill="white"/>
<path d="M16.2803 25.5938C19.4209 25.5938 21.4951 23.7422 21.4951 20.9414C21.4951 18.6211 20.042 17.5547 20.042 16.7812C20.042 15.8672 20.8389 15.1289 20.8389 13.957C20.8389 13.1133 20.2881 12.5156 19.5029 12.5156C18.7881 12.5156 18.3662 12.9492 18.0732 13.3711C17.8271 13.6992 17.6514 13.9453 17.4873 13.9453C17.1943 13.9453 17.1592 13.3945 17.1592 12.9844L17.1709 5.78906C17.1709 5.4375 17.1826 5.39062 17.3936 5.32031C17.6514 5.23828 17.7217 5.09766 17.7568 4.76953L17.9912 2.37891C18.0029 2.16797 17.9209 1.96875 17.7451 1.81641L16.749 0.9375C16.5967 0.808594 16.4326 0.761719 16.2803 0.761719C16.1396 0.761719 15.9639 0.808594 15.8115 0.9375L14.8154 1.81641C14.6396 1.96875 14.5576 2.16797 14.5693 2.37891L14.8037 4.76953C14.8389 5.09766 14.9092 5.23828 15.167 5.32031C15.3779 5.39062 15.3896 5.4375 15.3896 5.78906L15.4014 12.9844C15.4014 13.3945 15.3662 13.9453 15.0732 13.9453C14.9092 13.9453 14.7334 13.6992 14.499 13.3711C14.1943 12.9492 13.7725 12.5156 13.0576 12.5156C12.2725 12.5156 11.7217 13.1133 11.7217 13.957C11.7217 15.1289 12.5186 15.8672 12.5186 16.7812C12.5186 17.5547 11.0654 18.6211 11.0654 20.9414C11.0654 23.7422 13.1396 25.5938 16.2803 25.5938ZM13.7021 20.7422C13.4561 20.6602 13.3271 20.3672 13.4092 20.1211L14.417 17.3555C14.5107 17.0977 14.792 16.9688 15.0498 17.0625C15.2959 17.1445 15.4365 17.4375 15.3428 17.6953L14.335 20.4492C14.2412 20.707 13.96 20.8359 13.7021 20.7422ZM18.8584 20.7422C18.6006 20.8359 18.3193 20.707 18.2256 20.4492L17.2178 17.6953C17.124 17.4375 17.2764 17.1445 17.5225 17.0625C17.7803 16.9688 18.0615 17.0977 18.1553 17.3555L19.1631 20.1211C19.2451 20.3672 19.1045 20.6602 18.8584 20.7422Z" fill="#007AFF"/>
<path d="M0.225287 23.1914C-0.360651 24.5039 0.178412 26.2734 2.05341 26.2734C2.72138 26.2734 3.27216 25.9922 3.91669 25.4414L6.95185 22.9102L9.99872 25.4414C10.6433 25.9922 11.1823 26.2734 11.862 26.2734C13.7253 26.2734 14.2643 24.5039 13.6901 23.1914L8.55732 11.6133V6.32812C8.55732 3.72656 9.00263 1.76953 9.00263 1.28906C9.00263 0.5625 8.48701 0.046875 7.78388 0.046875C7.37372 0.046875 7.03388 0.210938 6.57685 0.726562L3.98701 3.69141C3.47138 4.3125 3.63544 5.15625 4.33857 5.48438C5.31122 5.90625 5.34638 5.91797 5.34638 6.32812V11.6016L0.225287 23.1914Z" fill="white"/>
<path d="M0.881117 23.4727C0.459242 24.4336 0.799085 25.5586 2.05299 25.5586C2.51002 25.5586 2.89674 25.3594 3.44752 24.9023L6.65846 22.2188C6.78737 22.1133 6.88112 22.0664 6.95143 22.0664C7.03346 22.0664 7.11549 22.1133 7.2444 22.2188L10.4554 24.9023C11.0179 25.3594 11.3929 25.5586 11.8616 25.5586C13.1038 25.5586 13.4554 24.4336 13.0218 23.4727L7.84205 11.7656V6.32812C7.84205 3.65625 8.28737 1.66406 8.28737 1.28906C8.28737 0.960938 8.08815 0.761719 7.78346 0.761719C7.57252 0.761719 7.39674 0.890625 7.11549 1.19531L4.52565 4.16016C4.31471 4.40625 4.3733 4.69922 4.64284 4.83984C5.67409 5.28516 6.0608 5.46094 6.0608 6.32812V11.7539L0.881117 23.4727ZM8.62721 18.8906C8.3108 18.8906 8.05299 18.6211 8.05299 18.3281C8.05299 18 8.32252 17.7188 8.62721 17.7188C8.95534 17.7188 9.21315 17.9883 9.21315 18.3281C9.21315 18.6328 8.95534 18.8906 8.62721 18.8906ZM9.02565 19.8281C8.70924 19.8281 8.42799 19.5586 8.42799 19.2422C8.42799 18.9258 8.70924 18.6445 9.02565 18.6445C9.34205 18.6445 9.6233 18.9141 9.6233 19.2422C9.6233 19.5586 9.34205 19.8281 9.02565 19.8281ZM9.40065 20.7422C9.08424 20.7422 8.83815 20.4844 8.83815 20.168C8.83815 19.8516 9.09596 19.5703 9.40065 19.5703C9.74049 19.5703 9.9983 19.8516 9.9983 20.168C9.9983 20.4727 9.71705 20.7422 9.40065 20.7422Z" fill="black" fill-opacity="0.85"/>
</svg>
