<svg width="33" height="24" viewBox="0 0 33 24" fill="none" xmlns="http://www.w3.org/2000/svg">
<path d="M8.48438 8.30859H10.3711V4.91016C10.3711 3.03516 11.8242 1.89844 14.0977 1.89844H18.4453C20.7305 1.89844 22.1836 3.03516 22.1836 4.91016V8.30859H24.0703V4.91016C24.0703 1.88672 21.8906 0.0117188 18.4453 0.0117188H14.0977C10.6641 0.0117188 8.48438 1.88672 8.48438 4.91016V8.30859ZM3.91406 23.4023H28.6289C31.0312 23.4023 32.543 21.9141 32.543 19.5469V12.8789C32.543 9.38672 30.1055 6.98438 26.5781 6.98438H5.96484C2.4375 6.98438 0 9.38672 0 12.8789V19.5469C0 21.9141 1.51172 23.4023 3.91406 23.4023ZM3.9375 21.5156C2.67188 21.5156 1.88672 20.7188 1.88672 19.4531V12.9727C1.88672 10.5352 3.55078 8.87109 5.98828 8.87109H26.5547C28.9922 8.87109 30.6562 10.5352 30.6562 12.9727V19.4531C30.6562 20.7188 29.8711 21.5156 28.6055 21.5156H3.9375ZM6.87891 22.6055H8.41406V7.76953H6.87891V22.6055ZM10.4297 22.6055H11.9648V7.76953H10.4297V22.6055ZM20.5898 22.6055H22.125V7.76953H20.5898V22.6055ZM24.1406 22.6055H25.6758V7.76953H24.1406V22.6055ZM11.1797 14.918H21.3398V13.3828H11.1797V14.918Z" fill="black" fill-opacity="0.85"/>
</svg>
