<svg width="33" height="24" viewBox="0 0 33 24" fill="none" xmlns="http://www.w3.org/2000/svg">
<path d="M8.44922 8.36719H10.3945V4.93359C10.3945 3.08203 11.8359 1.94531 14.0977 1.94531H18.4453C20.7188 1.94531 22.1602 3.08203 22.1602 4.93359V8.36719H24.1055V4.93359C24.1055 1.88672 21.9023 0 18.4453 0H14.0977C10.6523 0 8.44922 1.88672 8.44922 4.93359V8.36719ZM3.91406 23.4258H28.6289C31.0312 23.4258 32.543 21.9375 32.543 19.5703V12.9023C32.543 9.41016 30.1055 7.00781 26.5781 7.00781H5.96484C2.4375 7.00781 0 9.41016 0 12.9023V19.5703C0 21.9375 1.51172 23.4258 3.91406 23.4258ZM6.91406 23.4258V7.00781H8.44922V23.4258H6.91406ZM10.3945 23.4258V7.00781H11.9297V23.4258H10.3945ZM11.9297 14.9414V13.4062H20.625V14.9414H11.9297ZM20.625 23.4258V7.00781H22.1602V23.4258H20.625ZM24.1055 23.4258V7.00781H25.6406V23.4258H24.1055Z" fill="black" fill-opacity="0.85"/>
</svg>
