<svg width="22" height="22" viewBox="0 0 22 22" fill="none" xmlns="http://www.w3.org/2000/svg">
<path d="M3.67969 21.5977H17.8945C20.3555 21.5977 21.5742 20.3789 21.5742 17.9648V3.65625C21.5742 1.24219 20.3555 0.0234375 17.8945 0.0234375H3.67969C1.23047 0.0234375 0 1.23047 0 3.65625V17.9648C0 20.3906 1.23047 21.5977 3.67969 21.5977ZM3.70312 19.7109C2.53125 19.7109 1.88672 19.0898 1.88672 17.8711V3.75C1.88672 2.53125 2.53125 1.91016 3.70312 1.91016H17.8711C19.0312 1.91016 19.6875 2.53125 19.6875 3.75V17.8711C19.6875 19.0898 19.0312 19.7109 17.8711 19.7109H3.70312Z" fill="#007AFF"/>
<path d="M7.08984 16.1602C7.69922 16.1602 8.03906 15.7734 8.03906 15.1172V11.25H13.5234V15.1172C13.5234 15.7617 13.875 16.1602 14.4492 16.1602C15.0586 16.1602 15.3984 15.7734 15.3984 15.1172V6.24609C15.3984 5.58984 15.0586 5.20312 14.4492 5.20312C13.875 5.20312 13.5234 5.60156 13.5234 6.24609V9.78516H8.03906V6.24609C8.03906 5.58984 7.69922 5.20312 7.08984 5.20312C6.51562 5.20312 6.17578 5.60156 6.17578 6.24609V15.1172C6.17578 15.7617 6.51562 16.1602 7.08984 16.1602Z" fill="black" fill-opacity="0.85"/>
</svg>
