<svg width="26" height="20" viewBox="0 0 26 20" fill="none" xmlns="http://www.w3.org/2000/svg">
<path d="M0.015625 11.2812C0.015625 16.625 3.35546 19.625 9.08593 19.625H11.4414C13.5976 19.625 14.9218 18.582 14.9218 17.4101C14.9218 17.1523 14.7812 17 14.5234 17H13.4804C12.9883 17 12.7539 16.7422 12.7539 16.4492C12.7539 16.1328 12.9883 15.875 13.4804 15.875H14.1718C15.4375 15.875 16.2695 15.0664 16.2695 13.9648C16.2695 13.4726 16.0703 13.25 15.6484 13.25H14.2304C13.7265 13.25 13.4804 12.9922 13.4804 12.6992C13.4804 12.3711 13.7265 12.125 14.2304 12.125H15.5429C16.9609 12.125 17.6406 11.2812 17.6406 10.2265C17.6406 9.74609 17.4297 9.51172 17.0078 9.51172H14.2304C13.7265 9.51172 13.4804 9.25391 13.4804 8.96094C13.4804 8.63281 13.7265 8.38672 14.2304 8.38672H23.5586C24.4726 8.38672 25.0703 7.78906 25.0703 7.01562C25.0703 6.19531 24.4726 5.62109 23.5586 5.62109H9.88282C9.55469 5.62109 9.36718 5.41015 9.36718 5.1875C9.36718 4.98828 9.49609 4.8125 9.83593 4.67187L14.1015 2.85547C14.7344 2.58594 15.0039 2.17578 15.0039 1.625C15.0039 0.78125 14.4414 0.230469 13.7383 0.230469C13.4453 0.230469 13.2226 0.289062 13.0234 0.371093L7.07031 2.35156C2.0664 4.05078 0.015625 7.35547 0.015625 11.2812Z" fill="black" fill-opacity="0.85"/>
</svg>
