<svg width="21" height="31" viewBox="0 0 21 31" fill="none" xmlns="http://www.w3.org/2000/svg">
<path d="M7.48437 3.35937C8.41015 3.35937 9.14844 2.62109 9.14844 1.69531C9.14844 0.769531 8.41015 0.0195312 7.48437 0.0195312C6.54687 0.0195312 5.80859 0.769531 5.80859 1.69531C5.80859 2.62109 6.54687 3.35937 7.48437 3.35937ZM1.69531 8.55078C2.62109 8.55078 3.35937 7.8125 3.35937 6.88672C3.35937 5.94922 2.62109 5.21094 1.69531 5.21094C0.757812 5.21094 0.0195312 5.94922 0.0195312 6.88672C0.0195312 7.8125 0.757812 8.55078 1.69531 8.55078ZM13.3437 8.55078C14.2695 8.55078 15.0195 7.8125 15.0195 6.88672C15.0195 5.94922 14.2695 5.21094 13.3437 5.21094C12.4179 5.21094 11.6679 5.94922 11.6679 6.88672C11.6679 7.8125 12.4179 8.55078 13.3437 8.55078ZM18.5351 8.55078C19.4609 8.55078 20.1992 7.8125 20.1992 6.88672C20.1992 5.94922 19.4609 5.21094 18.5351 5.21094C17.6093 5.21094 16.8593 5.94922 16.8593 6.88672C16.8593 7.8125 17.6093 8.55078 18.5351 8.55078ZM18.5351 3.35937C19.4609 3.35937 20.1992 2.62109 20.1992 1.69531C20.1992 0.769531 19.4609 0.0195312 18.5351 0.0195312C17.6093 0.0195312 16.8593 0.769531 16.8593 1.69531C16.8593 2.62109 17.6093 3.35937 18.5351 3.35937Z" fill="#007AFF"/>
<path d="M10.9289 29.9726C15.8859 29.9726 19.214 26.6445 19.214 21.1601V18.6054C19.214 15.8984 17.9367 14.3164 15.757 14.2929C15.4875 13.4375 14.7726 12.9101 13.7999 12.9101C13.4367 12.9101 13.0968 12.9687 12.7687 13.0859C12.4757 12.1484 11.7023 11.5625 10.671 11.5625C10.4015 11.5625 10.1203 11.5976 9.85072 11.6914V7.78906C9.85072 6.30078 8.86635 5.31641 7.48353 5.31641C6.07728 5.31641 5.09291 6.30078 5.09291 7.78906V17.5625C5.09291 17.6211 5.06947 17.6679 4.99916 17.6679C4.964 17.6679 4.92885 17.6328 4.90541 17.5859L4.12025 15.7109C3.73353 14.7968 3.04213 14.3047 2.2101 14.3047C1.07338 14.3047 0.0772793 15.0312 0.0772793 16.3203C0.0655605 16.6718 0.147591 17.1406 0.288216 17.5507L2.35072 23.3515C3.90931 27.7461 6.79213 29.9726 10.9289 29.9726ZM10.9875 28.3554C7.71791 28.3554 5.2101 26.8437 3.78041 22.8476L1.70619 17.0586C1.6476 16.8828 1.61244 16.7304 1.61244 16.5312C1.61244 16.1211 1.90541 15.7812 2.38588 15.7812C2.78431 15.7812 3.01869 16.0156 3.18275 16.414L4.7765 19.9765C5.04603 20.5625 5.3976 20.75 5.81947 20.75C6.31166 20.75 6.6515 20.3633 6.6515 19.8242V7.68359C6.6515 7.17969 6.99135 6.82812 7.48353 6.82812C7.964 6.82812 8.29213 7.17969 8.29213 7.68359V16.3554C8.29213 16.7539 8.63197 17.0703 9.04213 17.0703C9.44057 17.0703 9.78041 16.7539 9.78041 16.3554V13.2265C9.97962 13.1328 10.2492 13.0742 10.4718 13.0742C11.0578 13.0742 11.4093 13.4609 11.4093 14.0703V16.8007C11.4093 17.2226 11.7726 17.5156 12.171 17.5156C12.5578 17.5156 12.8976 17.2226 12.8976 16.8007V14.5859C13.0968 14.4804 13.3664 14.4218 13.6007 14.4218C14.1867 14.4218 14.5382 14.8086 14.5382 15.4179V17.2461C14.5382 17.6797 14.8898 17.9726 15.2882 17.9726C15.6749 17.9726 16.0265 17.6797 16.0265 17.2461V15.8984C17.0695 15.8984 17.6671 16.9765 17.6671 18.8398V20.9726C17.6671 25.6836 15.1359 28.3554 10.9875 28.3554Z" fill="black" fill-opacity="0.85"/>
</svg>
