<svg width="26" height="28" viewBox="0 0 26 28" fill="none" xmlns="http://www.w3.org/2000/svg">
<path d="M5.44336 17.7808C5.44336 22.9488 8.83008 26.0074 13.4824 26.0074C17.209 26.0074 19.5175 24.4488 21.0527 21.3199C21.955 19.5855 22.6465 17.4996 23.3847 15.0855C23.6894 14.1011 24.123 12.8472 24.123 12.2847C24.123 11.6519 23.666 11.23 22.998 11.23C22.2597 11.23 21.8144 11.6988 21.2754 12.8121L19.6465 16.2339C19.4824 16.6089 19.2949 16.7496 19.1074 16.7496C18.8613 16.7496 18.6972 16.6089 18.6972 16.1988V3.90576C18.6972 3.21435 18.1347 2.65185 17.4433 2.65185C16.7519 2.65185 16.1894 3.21435 16.1894 3.90576V12.6949C15.873 12.5777 15.5215 12.4839 15.1465 12.4136V2.21826C15.1465 1.52685 14.584 0.952637 13.8925 0.952637C13.2011 0.952637 12.6269 1.52685 12.6269 2.21826V12.2847C12.2636 12.3082 11.8886 12.3667 11.5254 12.4253V3.21435C11.5254 2.52295 10.9629 1.96045 10.2715 1.96045C9.58008 1.96045 9.01758 2.52295 9.01758 3.21435V13.2222C8.63086 13.4097 8.2793 13.6089 7.96289 13.8199V6.85888C7.96289 6.16748 7.40039 5.60498 6.70898 5.60498C6.01758 5.60498 5.44336 6.16748 5.44336 6.85888V17.7808Z" fill="#007AFF"/>
<path d="M21.4854 27.1089C22.3643 27.9878 23.8409 27.9996 24.7081 27.0855C25.5752 26.1949 25.5752 24.7886 24.6963 23.898L3.88379 3.09716C2.99316 2.20654 1.54004 2.20654 0.661133 3.09716C-0.217774 3.96435 -0.217774 5.4292 0.661133 6.3081L21.4854 27.1089Z" fill="white"/>
<path d="M22.4463 26.148C22.7979 26.4878 23.3838 26.4996 23.7237 26.148C24.0752 25.7847 24.087 25.2222 23.7237 24.8707L2.91113 4.0581C2.55957 3.70654 1.98536 3.70654 1.62208 4.0581C1.28223 4.40966 1.28223 4.9956 1.62208 5.33545L22.4463 26.148Z" fill="black" fill-opacity="0.85"/>
</svg>
