<svg width="20" height="22" viewBox="0 0 20 22" fill="none" xmlns="http://www.w3.org/2000/svg">
<path d="M14.434 21.2994C19.2152 19.5651 20.809 15.5924 18.9457 10.4713L18.184 8.36191C17.4808 6.42832 16.1215 5.58457 15.0668 5.95957C14.8324 6.05332 14.7504 6.2291 14.8324 6.45176L15.1722 7.38926C15.3363 7.83457 15.184 8.12754 14.9144 8.23301C14.6332 8.32676 14.3285 8.19785 14.1644 7.75254L13.9418 7.14316C13.5316 5.99472 12.5238 5.51426 11.5394 5.87754C11.0941 6.0416 10.9652 6.29941 11.1058 6.67441L11.5629 7.95176C11.7269 8.39707 11.5746 8.69004 11.3168 8.79551C11.0238 8.90097 10.7191 8.76035 10.5668 8.31504L10.1332 7.14316C9.66439 5.8541 8.70345 5.52597 7.74251 5.87754C7.32064 6.02988 7.16829 6.31113 7.30892 6.67441L8.21126 9.17051C8.37532 9.61582 8.2347 9.90879 7.96517 10.0143C7.68392 10.1197 7.37923 9.9791 7.21517 9.53379L4.16829 1.17832C3.87532 0.358004 3.14876 0.0298789 2.45736 0.275973C1.71907 0.545504 1.40267 1.26035 1.69564 2.08066L6.14876 14.3151C6.26595 14.6197 6.12532 14.8424 5.93782 14.9127C5.75032 14.983 5.56282 14.9244 5.31673 14.6666L2.30501 11.4322C1.8597 10.9635 1.40267 10.8463 0.910479 11.0338C0.148761 11.3033 -0.144208 11.9947 0.0784484 12.6276C0.172198 12.8737 0.301104 13.0612 0.430011 13.2135L4.14486 17.8893C7.28548 21.8268 10.9183 22.5768 14.434 21.2994Z" fill="black" fill-opacity="0.85"/>
</svg>
