<svg width="24" height="24" viewBox="0 0 24 24" fill="none" xmlns="http://www.w3.org/2000/svg">
<path d="M11.9531 23.918C18.4922 23.918 23.9062 18.5039 23.9062 11.9648C23.9062 5.4375 18.4805 0.0117188 11.9414 0.0117188C5.41406 0.0117188 0 5.4375 0 11.9648C0 18.5039 5.42578 23.918 11.9531 23.918Z" fill="#FFCC00"/>
<path d="M11.9066 12.2344C9.89106 12.2344 8.0981 11.4375 7.07856 9.36329C7.32466 9.22266 7.64106 9.15234 7.99263 9.15234H8.08638V8.51954C8.08638 6.42189 9.75044 4.82812 11.9066 4.82812C14.0629 4.82812 15.727 6.42189 15.727 8.51954V9.15234H15.8207C16.184 9.15234 16.4887 9.22266 16.7231 9.36329C15.7152 11.4375 13.9223 12.2344 11.9066 12.2344ZM9.11763 9.15234H14.6957V8.51954C14.6957 6.9961 13.4887 5.84766 11.9066 5.84766C10.3246 5.84766 9.11763 6.9961 9.11763 8.51954V9.15234ZM5.6606 15.3164L6.17622 10.8164C6.21138 10.5352 6.29341 10.3008 6.4106 10.1016C7.41841 11.9414 8.98872 12.8789 10.6762 13.1719V13.5703C10.6762 14.0039 10.9223 14.25 11.3559 14.25H12.4574C12.891 14.25 13.1371 14.0039 13.1371 13.5703V13.1719C14.8246 12.8789 16.3832 11.9414 17.4027 10.1016C17.5199 10.3008 17.602 10.5352 17.6371 10.8164L18.1527 15.3164C18.3285 16.8984 17.6371 17.7539 16.1606 17.7539H7.65278C6.17622 17.7539 5.48482 16.8984 5.6606 15.3164Z" fill="black" fill-opacity="0.85"/>
</svg>
