<svg width="24" height="24" viewBox="0 0 24 24" fill="none" xmlns="http://www.w3.org/2000/svg">
<path d="M11.9687 23.9272C18.5078 23.9272 23.9218 18.5015 23.9218 11.9741C23.9218 5.43506 18.4961 0.0209961 11.957 0.0209961C5.42968 0.0209961 0.015625 5.43506 0.015625 11.9741C0.015625 18.5015 5.44141 23.9272 11.9687 23.9272ZM11.9687 21.9351C6.43751 21.9351 2.01954 17.5054 2.01954 11.9741C2.01954 6.44288 6.42578 2.01319 11.957 2.01319C17.4883 2.01319 21.9297 6.44288 21.9297 11.9741C21.9297 17.5054 17.5 21.9351 11.9687 21.9351Z" fill="#007AFF"/>
<path d="M7.28125 14.0601C7.28125 17.0366 9.21485 18.8648 11.9687 18.8648C14.0429 18.8648 15.4609 18.0327 16.4101 16.0874C16.9258 15.0796 17.3242 13.8608 17.7461 12.4663C17.9218 11.8921 18.1679 11.189 18.1679 10.8726C18.1679 10.4976 17.8867 10.2398 17.5 10.2398C17.0547 10.2398 16.7968 10.5093 16.4804 11.1421L15.5312 13.146C15.4375 13.3569 15.3437 13.439 15.2383 13.439C15.0976 13.439 15.0156 13.3452 15.0156 13.1343V5.99755C15.0156 5.59911 14.6758 5.25927 14.2773 5.25927C13.8554 5.25927 13.5273 5.59911 13.5273 5.99755V11.0601C13.3398 11.0132 13.1523 10.9429 12.9531 10.9077V5.01318C12.9531 4.60302 12.625 4.26318 12.2031 4.26318C11.7929 4.26318 11.4648 4.60302 11.4648 5.01318V10.8257C11.2539 10.8608 11.0547 10.8726 10.8672 10.9077V5.59911C10.8672 5.17724 10.5156 4.84911 10.1054 4.84911C9.69532 4.84911 9.35547 5.17724 9.35547 5.59911V11.3882C9.14454 11.4819 8.96875 11.5991 8.79297 11.7046V7.72021C8.79297 7.31005 8.44141 6.97021 8.04297 6.97021C7.6211 6.97021 7.28125 7.31005 7.28125 7.72021V14.0601Z" fill="black" fill-opacity="0.85"/>
</svg>
