<svg width="22" height="22" viewBox="0 0 22 22" fill="none" xmlns="http://www.w3.org/2000/svg">
<path d="M20.25 1.40381C19.0547 0.208496 17.3672 0.0209961 15.3633 0.0209961H6.23438C4.26563 0.0209961 2.57813 0.208496 1.38281 1.40381C0.1875 2.59912 0.0117188 4.27491 0.0117188 6.24366V15.3726C0.0117188 17.3765 0.1875 19.0522 1.38281 20.2476C2.57813 21.4429 4.26563 21.6304 6.25781 21.6304H15.3633C17.3672 21.6304 19.0547 21.4429 20.25 20.2476C21.4453 19.0522 21.6211 17.3765 21.6211 15.3726V6.26709C21.6211 4.26319 21.4453 2.59912 20.25 1.40381Z" fill="#FFCC00"/>
<path d="M5.83594 13.1108V6.5835C5.83594 6.16162 6.1875 5.79834 6.63281 5.79834C7.04297 5.79834 7.40625 6.16162 7.40625 6.5835V10.6851C7.58203 10.5796 7.75781 10.4624 7.98047 10.3687V4.38038C7.98047 3.9585 8.33203 3.61866 8.75391 3.61866C9.17578 3.61866 9.53906 3.9585 9.53906 4.38038V9.86475C9.73828 9.82959 9.9375 9.80616 10.1484 9.78272V3.78272C10.1484 3.37256 10.4883 3.00928 10.9219 3.00928C11.3555 3.00928 11.6953 3.37256 11.6953 3.78272V9.85303C11.8945 9.91162 12.0937 9.98194 12.2812 10.0288V4.80225C12.2812 4.38038 12.6211 4.02881 13.0547 4.02881C13.4648 4.02881 13.8164 4.38038 13.8164 4.80225V12.1616C13.8164 12.3726 13.8984 12.4663 14.0508 12.4663C14.1562 12.4663 14.2617 12.396 14.3437 12.1733L15.3281 10.1108C15.6562 9.44288 15.914 9.16162 16.3828 9.16162C16.7929 9.16162 17.0859 9.43116 17.0859 9.81788C17.0859 10.146 16.8164 10.8843 16.6289 11.4819C16.1953 12.9233 15.7851 14.1655 15.2461 15.2085C14.2734 17.2007 12.8086 18.0562 10.6758 18.0562C7.82813 18.0562 5.83594 16.1694 5.83594 13.1108Z" fill="black" fill-opacity="0.85"/>
</svg>
