<svg width="22" height="22" viewBox="0 0 22 22" fill="none" xmlns="http://www.w3.org/2000/svg">
<path d="M3.6836 21.878H17.8984C20.3594 21.878 21.5781 20.6709 21.5781 18.2569V3.93652C21.5781 1.52246 20.3594 0.303711 17.8984 0.303711H3.6836C1.23438 0.303711 0.00390625 1.52246 0.00390625 3.93652V18.2569C0.00390625 20.6709 1.23438 21.878 3.6836 21.878ZM3.70703 19.9913C2.53516 19.9913 1.89063 19.3702 1.89063 18.1514V4.04199C1.89063 2.82324 2.53516 2.19043 3.70703 2.19043H17.875C19.0351 2.19043 19.6914 2.82324 19.6914 4.04199V18.1514C19.6914 19.3702 19.0351 19.9913 17.875 19.9913H3.70703Z" fill="#007AFF"/>
<path d="M5.83984 13.2764C5.83984 16.2647 7.77343 18.0811 10.5273 18.0811C12.6016 18.0811 14.0195 17.2491 14.9687 15.3037C15.4844 14.2959 15.8828 13.0889 16.3047 11.6944C16.4805 11.1202 16.7266 10.4053 16.7266 10.0889C16.7266 9.71387 16.4453 9.45605 16.0586 9.45605C15.6133 9.45605 15.3555 9.72558 15.0391 10.3702L14.0898 12.3741C13.9961 12.585 13.9023 12.6553 13.7969 12.6553C13.6562 12.6553 13.5742 12.5616 13.5742 12.3623V5.22558C13.5742 4.81543 13.2344 4.47558 12.8242 4.47558C12.4141 4.47558 12.0859 4.81543 12.0859 5.22558V10.2881C11.8984 10.2413 11.7109 10.1709 11.5117 10.1358V4.22949C11.5117 3.83105 11.1836 3.47949 10.7617 3.47949C10.3516 3.47949 10.0117 3.83105 10.0117 4.22949V10.0537C9.81249 10.0772 9.61328 10.1006 9.41406 10.1358V4.81543C9.41406 4.40527 9.07421 4.07715 8.66406 4.07715C8.2539 4.07715 7.91406 4.40527 7.91406 4.81543V10.6163C7.70312 10.71 7.52734 10.8272 7.33984 10.9327V6.94824C7.33984 6.53808 6.99999 6.18652 6.60156 6.18652C6.17968 6.18652 5.83984 6.53808 5.83984 6.94824V13.2764Z" fill="black" fill-opacity="0.85"/>
</svg>
