<svg width="25" height="25" viewBox="0 0 25 25" fill="none" xmlns="http://www.w3.org/2000/svg">
<path d="M4.79174 8.73047H6.67846V7.05469C6.67846 4.125 9.03393 1.88672 12.1042 1.88672C15.1746 1.88672 17.53 4.125 17.53 7.05469V8.73047H19.4167V7.05469C19.4167 3.05859 16.2527 0 12.1042 0C7.96753 0 4.79174 3.05859 4.79174 7.05469V8.73047ZM3.91284 24.9141H20.2957C23.155 24.9141 24.5144 23.25 24.1511 20.2031L23.1433 11.5312C22.8972 9.43359 21.6316 8.29688 19.5925 8.29688H4.61596C2.5769 8.29688 1.32299 9.43359 1.0769 11.5312L0.0573692 20.2031C-0.305912 23.25 1.06518 24.9141 3.91284 24.9141ZM3.91284 23.0273C2.43628 23.0273 1.72143 22.1133 1.92065 20.4258L2.94018 11.7539C3.05737 10.7344 3.64331 10.1836 4.61596 10.1836H19.5925C20.5769 10.1836 21.1628 10.7344 21.28 11.7539L22.2878 20.4258C22.4871 22.1133 21.7722 23.0273 20.2957 23.0273H3.91284ZM11.0261 18.0938H13.1824C13.9792 18.0938 14.448 17.6484 14.448 16.8516V16.0078C17.5886 15.4805 20.5183 13.793 21.8074 10.5586L20.073 9.77344C18.8542 13.043 15.655 14.3203 12.1042 14.3203C8.55346 14.3203 5.35424 13.043 4.13549 9.77344L2.41284 10.5586C3.69018 13.793 6.61987 15.4805 9.76049 16.0078V16.8516C9.76049 17.6484 10.2292 18.0938 11.0261 18.0938Z" fill="black" fill-opacity="0.85"/>
</svg>
