<svg width="28" height="27" viewBox="0 0 28 27" fill="none" xmlns="http://www.w3.org/2000/svg">
<path d="M0.75 16.1276C1.16016 16.1158 1.45312 15.7994 1.46484 15.3776C1.55859 11.4752 3.03516 7.85413 7.32422 5.32288C7.6875 5.10023 7.80469 4.67835 7.62891 4.31507C7.42969 3.96351 6.92578 3.81116 6.5625 4.04554C1.93359 6.65882 0 10.8776 0 15.3541C0 15.776 0.351562 16.1393 0.75 16.1276Z" fill="#007AFF"/>
<path d="M21.2345 25.4205C26.7189 23.4283 29.1095 18.2604 26.9532 12.2604L26.086 9.84631C25.0313 6.92834 22.8399 5.35803 20.3087 5.76819C19.2892 5.05334 17.9415 4.99475 16.8282 5.47522C16.0665 4.99475 15.2228 4.87756 14.3673 5.01819L13.5939 2.88537C12.797 0.693971 10.629 -0.348998 8.47277 0.41272C6.33995 1.20959 5.28527 3.36584 6.10558 5.60412L7.95714 10.6666C7.51183 10.5026 7.04308 10.5026 6.59777 10.6666C4.69933 11.358 3.57433 13.2916 4.30089 15.3307C4.46495 15.776 4.76964 16.3854 5.20323 16.901L9.12902 21.6354C12.504 25.7135 16.6876 27.0729 21.2345 25.4205Z" fill="white"/>
<path d="M20.6957 23.9088C25.3481 22.2213 27.3285 17.9557 25.4535 12.7994L24.5746 10.3971C23.6606 7.85412 21.9145 6.81115 19.8637 7.526C19.3129 6.81115 18.4692 6.56506 17.5551 6.89319C17.2152 7.02209 16.9106 7.19787 16.641 7.40881C16.0434 6.63537 15.1176 6.3424 14.1566 6.69397C13.8988 6.78772 13.6527 6.92834 13.4184 7.0924L12.0824 3.43615C11.5785 2.04162 10.3129 1.45569 9.01216 1.92444C7.69966 2.4049 7.11372 3.65881 7.61763 5.05334L10.9574 14.2408C10.9809 14.2994 10.9692 14.3463 10.9106 14.3697C10.8637 14.3815 10.8285 14.3697 10.7934 14.3229L9.4106 12.8346C8.73091 12.108 7.92232 11.8854 7.13716 12.1666C6.07075 12.5651 5.37935 13.5846 5.81294 14.7916C5.93013 15.1315 6.1645 15.5416 6.43403 15.8815L10.3598 20.6158C13.3246 24.2135 16.8051 25.3268 20.6957 23.9088ZM20.1918 22.3736C17.1215 23.4986 14.2387 22.9244 11.5316 19.6549L7.60591 14.9322C7.48872 14.7916 7.40669 14.6627 7.33638 14.4635C7.19575 14.0885 7.35982 13.6549 7.80513 13.4908C8.18013 13.3619 8.4731 13.5026 8.77778 13.819L11.4848 16.6197C11.9418 17.0885 12.3402 17.1354 12.727 16.9947C13.1957 16.8307 13.3832 16.3385 13.1957 15.8346L9.04732 4.42053C8.87153 3.95178 9.08247 3.50647 9.52778 3.3424C9.98482 3.17834 10.4066 3.401 10.5824 3.86975L13.5473 12.0143C13.6879 12.401 14.1215 12.5768 14.5082 12.4361C14.8832 12.2955 15.0824 11.8854 14.9418 11.5104L13.8754 8.56897C14.0395 8.41662 14.2621 8.26428 14.4848 8.18225C15.0356 7.98303 15.4926 8.22912 15.7035 8.80334L16.641 11.358C16.7816 11.7682 17.2152 11.9205 17.5902 11.7799C17.9535 11.651 18.1879 11.2643 18.0356 10.8541L17.2738 8.76819C17.4379 8.61584 17.6606 8.4635 17.8832 8.38147C18.434 8.18225 18.891 8.42834 19.102 9.00256L19.7231 10.7135C19.8754 11.1236 20.309 11.276 20.684 11.1354C21.0473 11.0065 21.2699 10.608 21.1293 10.2096L20.6606 8.94397C21.6449 8.5924 22.5707 9.38928 23.2035 11.1471L23.9418 13.151C25.5473 17.5807 24.0824 20.9557 20.1918 22.3736Z" fill="black" fill-opacity="0.85"/>
</svg>
