<svg width="24" height="26" viewBox="0 0 24 26" fill="none" xmlns="http://www.w3.org/2000/svg">
<path d="M23.8828 8.24902C23.8828 4.45215 21.4101 1.27637 18.4219 1.27637H14.6836C13.1953 0.491211 11.3906 0.0224609 9.375 0.0224609H7.80469C6.39844 0.0224609 5.17969 0.104492 4.3711 0.31543C2.80078 0.69043 1.81641 1.79199 1.81641 3.1748C1.81641 3.45605 1.86328 3.72558 1.9336 3.97168C1.16016 4.56934 0.726563 5.41308 0.726563 6.3623C0.726563 6.81934 0.808594 7.26465 0.984375 7.63965C0.457031 8.17871 0.152344 8.96387 0.152344 9.78418C0.152344 10.3116 0.292969 10.8741 0.515625 11.2842C0.199219 11.7413 0.0117188 12.3858 0.0117188 13.0537C0.0117188 14.753 1.33594 16.0889 3.02344 16.0889H7.30078C7.5586 16.0889 7.72266 16.2061 7.72266 16.4287C7.72266 17.6475 5.80078 20.5069 5.80078 22.8037C5.80078 24.3858 6.90234 25.5108 8.41406 25.5108C9.52734 25.5108 10.2773 24.9366 11.0039 23.5303C12.3867 20.8819 14.0273 18.5264 16.6992 15.2686H18.8437C21.6328 15.2686 23.8828 12.1163 23.8828 8.24902ZM17.2851 8.30762C17.2851 10.7569 16.7344 12.3155 15.2109 14.3663C13.5117 16.628 11.1445 19.3584 9.45703 22.7334C9.02344 23.5772 8.75391 23.7764 8.34375 23.7764C7.86328 23.7764 7.53516 23.4366 7.53516 22.8037C7.53516 20.9639 9.45703 18.1983 9.45703 16.4287C9.45703 15.1397 8.40234 14.3545 7.05469 14.3545H3.02344C2.29688 14.3545 1.7461 13.8037 1.7461 13.0537C1.7461 12.5147 1.91016 12.1748 2.35547 11.7413C2.56641 11.5537 2.58984 11.3077 2.41406 11.0967C2.05078 10.5577 1.88672 10.2295 1.88672 9.78418C1.88672 9.24512 2.14453 8.7998 2.66016 8.40137C2.94141 8.19043 3.0586 7.89746 2.88281 7.5459C2.60156 7.01855 2.46094 6.77246 2.46094 6.3623C2.46094 5.76465 2.84766 5.2959 3.66797 4.87402C3.92578 4.7334 3.98438 4.52246 3.86719 4.26465C3.59766 3.57324 3.5625 3.46777 3.5625 3.1748C3.5625 2.63574 3.94922 2.20215 4.76953 1.99121C5.4375 1.81543 6.50391 1.74512 7.79297 1.74512H9.2461C14.0742 1.75684 17.2851 4.49902 17.2851 8.30762ZM22.1484 8.24902C22.1484 11.1553 20.5781 13.5342 18.8437 13.5342C18.5039 13.5342 18.164 13.5342 17.8242 13.5342C18.6562 11.9522 19.0195 10.3116 19.0195 8.34277C19.0195 6.24512 18.2695 4.41699 16.9219 3.02246C17.414 3.02246 17.9179 3.02246 18.4219 3.02246C20.4023 3.02246 22.1484 5.40137 22.1484 8.24902Z" fill="black" fill-opacity="0.85"/>
</svg>
