<svg width="23" height="23" viewBox="0 0 23 23" fill="none" xmlns="http://www.w3.org/2000/svg">
<path d="M8.14746 19.5796C11.8038 23.2241 16.3623 22.9897 19.6436 19.7202C22.2803 17.0718 22.8077 14.3296 21.6944 11.0249C21.0967 9.17334 20.1123 7.21631 18.917 4.97803C18.4483 4.06397 17.8623 2.86866 17.4639 2.48194C17.0186 2.03663 16.4092 2.06006 15.9288 2.52881C15.4014 3.05616 15.4248 3.68897 15.8233 4.87256L17.1006 8.43506C17.2413 8.81006 17.2178 9.04444 17.0772 9.18506C16.9131 9.34913 16.6905 9.37256 16.3975 9.07959L7.71387 0.384278C7.22168 -0.0961915 6.41309 -0.0961915 5.93262 0.384278C5.44043 0.876464 5.44043 1.67334 5.93262 2.16553L12.1436 8.37647C11.8389 8.51709 11.5225 8.70459 11.2061 8.91553L3.99902 1.7085C3.51856 1.21631 2.70996 1.21631 2.21777 1.7085C1.73731 2.20069 1.73731 2.99756 2.21777 3.48975L9.33106 10.603C9.09668 10.8843 8.87402 11.1889 8.66309 11.4936L2.14746 4.96631C1.65527 4.47413 0.858398 4.47413 0.366211 4.96631C-0.114258 5.4585 -0.114258 6.25538 0.366211 6.74756L7.45606 13.8257C7.30371 14.2241 7.20996 14.6225 7.12793 14.9975L2.20606 10.0757C1.72559 9.5835 0.916992 9.5835 0.424804 10.0757C-0.0556643 10.5678 -0.0556643 11.3647 0.424804 11.8569L8.14746 19.5796Z" fill="black" fill-opacity="0.85"/>
</svg>
