<svg width="26" height="21" viewBox="0 0 26 21" fill="none" xmlns="http://www.w3.org/2000/svg">
<path d="M25.8828 11.4229C25.8828 7.07532 23.5508 4.05188 18.9336 2.41126L12.8398 0.243292C12.418 0.0909482 11.9258 0.00891695 11.5625 0.0206357C10.2031 0.0206357 9.4414 1.07532 9.4414 2.27063C9.45312 3.14954 9.95703 3.86438 10.9062 4.27454L12.8867 5.09485C12.9336 5.10657 12.957 5.15345 12.957 5.20032C12.957 5.27063 12.9219 5.29407 12.8633 5.29407H2.59765C1.02734 5.29407 0.0078125 6.32532 0.0078125 7.79017C0.0078125 9.25501 1.02734 10.2862 2.59765 10.2862H6.6875C6.60547 10.5792 6.55859 10.8722 6.55859 11.1534C6.55859 12.2198 7.16797 13.0401 8.15234 13.3565C8.04687 13.6964 7.97656 14.0597 7.97656 14.4347C7.97656 15.4542 8.52734 16.2042 9.42969 16.4854C9.45312 18.7706 11.1172 20.1183 13.9531 20.1183H16.6367C22.3906 20.1183 25.8828 16.6261 25.8828 11.4229ZM24.1953 11.4933C24.1953 15.8409 21.3945 18.4894 16.4375 18.4894H14.1992C12.2422 18.4894 11.1172 17.8683 11.1172 16.7667H12.5234C12.9687 16.7667 13.2851 16.4151 13.2851 16.005C13.2851 15.5948 12.9687 15.2081 12.5234 15.2081H10.6016C9.96875 15.2081 9.57031 14.8448 9.57031 14.2237C9.57031 13.9894 9.6289 13.6964 9.73437 13.4854H12.0547C12.5117 13.4854 12.8164 13.1222 12.8164 12.712C12.8164 12.3019 12.5117 11.9386 12.0547 11.9386H9.19531C8.55078 11.9386 8.14062 11.5519 8.14062 10.9425C8.14062 10.7081 8.21093 10.4151 8.30469 10.2159H11.5859C12.0078 10.2159 12.3476 9.85267 12.3476 9.44251C12.3476 9.00892 12.0078 8.64563 11.5859 8.64563H2.48047C1.96484 8.64563 1.58984 8.30579 1.58984 7.79017C1.58984 7.28626 1.96484 6.9347 2.48047 6.9347H15.2422C15.793 6.9347 16.2031 6.57142 16.2031 6.05579C16.2031 5.6222 16.0039 5.23548 15.3945 4.95423L11.6445 3.29017C11.2344 3.11438 10.9766 2.86829 10.9766 2.44642C10.9766 1.95423 11.3398 1.63782 11.7734 1.63782C11.9844 1.63782 12.1484 1.66126 12.3242 1.73157L18.4062 3.91126C22.6016 5.41126 24.1953 8.04798 24.1953 11.4933Z" fill="black" fill-opacity="0.85"/>
</svg>
