<svg width="19" height="25" viewBox="0 0 19 25" fill="none" xmlns="http://www.w3.org/2000/svg">
<path d="M7.95117 0.171875C2.86524 0.171875 0.00585938 3.35937 0.00585938 8.79687V11.0468C0.00585938 13.1093 0.990234 14.3633 2.11524 14.3633C2.37305 14.3633 2.50195 14.2343 2.50195 13.9883V12.9922C2.50195 12.5234 2.74805 12.289 3.0293 12.289C3.33398 12.289 3.56836 12.5234 3.56836 12.9922V13.6484C3.56836 14.8554 4.35352 15.6523 5.39648 15.6523C5.87695 15.6523 6.08789 15.4648 6.08789 15.0547V13.6953C6.08789 13.2265 6.32227 12.9922 6.60352 12.9922C6.9082 12.9922 7.1543 13.2265 7.1543 13.6953V14.9492C7.1543 16.3086 7.93945 16.9531 8.95898 16.9531C9.4043 16.9531 9.65039 16.7422 9.65039 16.3554V13.6953C9.65039 13.2265 9.88477 12.9922 10.1661 12.9922C10.4707 12.9922 10.7168 13.2265 10.7168 13.6953V22.5898C10.7168 23.457 11.2793 24.0312 12.0176 24.0312C12.8028 24.0312 13.3418 23.457 13.3418 22.5898V9.57031C13.3418 9.25391 13.5528 9.07812 13.752 9.07812C13.9512 9.07812 14.1153 9.19531 14.2559 9.52344L15.9786 13.5898C16.2364 14.1875 16.6231 14.457 17.1504 14.457C17.959 14.457 18.4747 13.9062 18.4747 13.2383C18.4747 12.9687 18.4161 12.7461 18.3457 12.5586L16.459 6.89844C14.8418 2.12891 11.6895 0.171875 7.95117 0.171875Z" fill="black" fill-opacity="0.85"/>
</svg>
