<svg width="24" height="24" viewBox="0 0 24 24" fill="none" xmlns="http://www.w3.org/2000/svg">
<path d="M11.9765 23.9287C18.5156 23.9287 23.9296 18.503 23.9296 11.9756C23.9296 5.43652 18.5039 0.0224609 11.9648 0.0224609C5.4375 0.0224609 0.0234375 5.43652 0.0234375 11.9756C0.0234375 18.503 5.44922 23.9287 11.9765 23.9287ZM11.9765 21.9366C6.44532 21.9366 2.02735 17.5069 2.02735 11.9756C2.02735 6.44434 6.4336 2.01465 11.9648 2.01465C17.4961 2.01465 21.9375 6.44434 21.9375 11.9756C21.9375 17.5069 17.5078 21.9366 11.9765 21.9366Z" fill="#007AFF"/>
<path d="M5.26172 13.8623C5.26172 15.7608 6.41016 17.3311 7.98047 17.3311H9.12891C7.96875 16.4991 7.47656 15.2452 7.5 13.8037C7.52344 12.21 8.13282 11.0967 8.67188 10.4053H7.75782C6.32813 10.4053 5.26172 11.9287 5.26172 13.8623ZM8.34375 13.8155C8.3086 16.1358 10.1718 17.8936 13.125 17.9053L13.9922 17.917C14.8007 17.9287 15.4101 17.8702 15.75 17.7881C16.2539 17.6475 16.7461 17.3663 16.7461 16.7569C16.7461 16.5342 16.6757 16.3233 16.6054 16.2061C16.5586 16.1241 16.5586 16.0537 16.6406 16.0186C17.0156 15.878 17.3554 15.4913 17.3554 14.9991C17.3554 14.7061 17.2734 14.4483 17.1211 14.2842C17.0507 14.1905 17.0625 14.085 17.1679 14.0264C17.4726 13.8506 17.6601 13.5108 17.6601 13.0889C17.6601 12.8077 17.5781 12.4795 17.4023 12.3272C17.3086 12.2334 17.3203 12.1866 17.4375 12.0928C17.625 11.917 17.7422 11.6241 17.7422 11.2842C17.7422 10.6514 17.2734 10.1475 16.6523 10.1475H14.4257C13.8398 10.1475 13.4765 9.86621 13.4765 9.38574C13.4765 8.54199 14.5312 6.9834 14.5312 5.87012C14.5312 5.28418 14.1445 4.94434 13.6523 4.94434C13.1953 4.94434 12.9726 5.24902 12.7382 5.72949C11.789 7.55762 10.5234 9.0459 9.57422 10.335C8.76563 11.4014 8.36719 12.3272 8.34375 13.8155Z" fill="black" fill-opacity="0.85"/>
</svg>
