<svg width="22" height="27" viewBox="0 0 22 27" fill="none" xmlns="http://www.w3.org/2000/svg">
<path d="M9.98645 25.5327C14.0997 25.5327 16.7247 23.189 18.5646 18.9116L21.0138 13.1343C21.5763 11.8335 20.9904 10.6968 20.0529 10.2046C19.1388 9.73584 17.8966 9.89991 17.1232 11.1538L16.0099 13.146C15.9747 13.1929 15.9513 13.228 15.9044 13.228C15.8458 13.228 15.799 13.1812 15.8224 13.1108L17.3458 4.26319C17.6037 2.81006 16.8654 1.79053 15.588 1.55616C14.2052 1.32178 13.1271 1.96631 12.8341 3.48975L12.4826 5.54053H12.6232V2.38819C12.6232 1.00537 11.6622 0.0209961 10.3263 0.0209961C8.93176 0.0209961 8.00598 1.04053 8.00598 2.47022V3.97022L8.29895 3.91162L8.15832 2.97412C7.81848 1.68506 6.74035 1.13428 5.61535 1.3335C4.25598 1.56788 3.56457 2.70459 3.72864 4.05225L3.95129 5.97412L4.38489 5.88038C3.98645 4.60303 2.99035 4.19288 1.90051 4.39209C0.494264 4.63819 -0.150267 5.646 0.0606709 7.08741L1.61926 17.5405C2.35754 22.5093 5.02942 25.5327 9.98645 25.5327ZM9.92785 23.9155C5.77942 23.9155 3.8341 21.5483 3.17785 17.353L1.49035 6.82959C1.42004 6.34912 1.68957 5.96241 2.1466 5.88038C2.56848 5.81006 2.9552 6.09131 3.06067 6.52491L4.75989 12.8882C4.87707 13.3335 5.22864 13.5093 5.59192 13.439C5.99035 13.3804 6.25989 13.0288 6.21301 12.6304L5.2052 3.80616C5.1466 3.29053 5.38098 2.91553 5.86145 2.8335C6.34192 2.75147 6.72864 3.05616 6.79895 3.52491L8.0177 12.3726C8.06457 12.7476 8.40442 12.9937 8.81457 12.9351C9.31848 12.853 9.49426 12.5483 9.49426 12.1265V2.38819C9.49426 1.896 9.8341 1.54444 10.3263 1.54444C10.7951 1.54444 11.1349 1.896 11.1349 2.38819V12.2319C11.1349 12.6304 11.4747 12.9351 11.8615 12.9351C12.2599 12.9351 12.5412 12.6772 12.6115 12.2788L14.2755 3.74756C14.381 3.18506 14.7794 2.95069 15.2247 3.03272C15.6818 3.10303 15.9513 3.48975 15.8693 4.00538L14.2052 14.9741C14.0529 15.9702 14.6037 16.3101 15.0958 16.3101C15.5177 16.3101 15.8107 16.0991 16.1388 15.5366L18.2247 11.8335C18.4708 11.3648 18.9162 11.2358 19.2794 11.3882C19.6779 11.5288 19.8888 11.9507 19.6662 12.478L17.1349 18.4077C15.4591 22.2866 13.1974 23.9155 9.92785 23.9155Z" fill="black" fill-opacity="0.85"/>
</svg>
