<svg width="21" height="31" viewBox="0 0 21 31" fill="none" xmlns="http://www.w3.org/2000/svg">
<path d="M7.48632 3.35937C8.4121 3.35937 9.15039 2.62109 9.15039 1.69531C9.15039 0.769531 8.4121 0.0195312 7.48632 0.0195312C6.54882 0.0195312 5.81054 0.769531 5.81054 1.69531C5.81054 2.62109 6.54882 3.35937 7.48632 3.35937ZM1.69726 8.55078C2.62304 8.55078 3.36132 7.8125 3.36132 6.88672C3.36132 5.94922 2.62304 5.21094 1.69726 5.21094C0.759765 5.21094 0.0214844 5.94922 0.0214844 6.88672C0.0214844 7.8125 0.759765 8.55078 1.69726 8.55078ZM13.3457 8.55078C14.2715 8.55078 15.0215 7.8125 15.0215 6.88672C15.0215 5.94922 14.2715 5.21094 13.3457 5.21094C12.4199 5.21094 11.6699 5.94922 11.6699 6.88672C11.6699 7.8125 12.4199 8.55078 13.3457 8.55078ZM18.5371 8.55078C19.4629 8.55078 20.2012 7.8125 20.2012 6.88672C20.2012 5.94922 19.4629 5.21094 18.5371 5.21094C17.6113 5.21094 16.8613 5.94922 16.8613 6.88672C16.8613 7.8125 17.6113 8.55078 18.5371 8.55078ZM18.5371 3.35937C19.4629 3.35937 20.2012 2.62109 20.2012 1.69531C20.2012 0.769531 19.4629 0.0195312 18.5371 0.0195312C17.6113 0.0195312 16.8613 0.769531 16.8613 1.69531C16.8613 2.62109 17.6113 3.35937 18.5371 3.35937Z" fill="#007AFF"/>
<path d="M11.541 29.539C16.627 29.539 19.4863 26.3515 19.4863 20.914V18.664C19.4863 16.6015 18.502 15.3476 17.377 15.3476C17.1309 15.3476 16.9903 15.4765 16.9903 15.7226V16.7187C16.9903 17.1875 16.7559 17.4218 16.4746 17.4218C16.1699 17.4218 15.9238 17.1875 15.9238 16.7187V16.0625C15.9238 14.8554 15.1504 14.0586 14.0957 14.0586C13.627 14.0586 13.416 14.2578 13.416 14.6562V16.0156C13.416 16.4843 13.1699 16.7187 12.8887 16.7187C12.584 16.7187 12.3496 16.4843 12.3496 16.0156V14.7617C12.3496 13.4023 11.5527 12.7578 10.5332 12.7578C10.0879 12.7578 9.85352 12.9687 9.85352 13.3554V16.0156C9.85352 16.4843 9.60743 16.7187 9.32618 16.7187C9.02149 16.7187 8.78711 16.4843 8.78711 16.0156V7.12109C8.78711 6.25391 8.2129 5.67969 7.48633 5.67969C6.68946 5.67969 6.1504 6.25391 6.1504 7.12109V20.1406C6.1504 20.4687 5.95118 20.6328 5.74024 20.6328C5.54102 20.6328 5.38868 20.5156 5.24805 20.1875L3.51368 16.1211C3.26758 15.5234 2.86915 15.2656 2.3418 15.2656C1.54493 15.2656 1.0293 15.8164 1.0293 16.4726C1.0293 16.7422 1.07618 16.9648 1.14649 17.1523L3.04493 22.8125C4.6504 27.582 7.80274 29.539 11.541 29.539Z" fill="black" fill-opacity="0.85"/>
</svg>
