<svg width="19" height="26" viewBox="0 0 19 26" fill="none" xmlns="http://www.w3.org/2000/svg">
<path d="M0.0195312 16.8491C0.0195312 22.0171 3.40625 25.0757 8.05859 25.0757C11.7851 25.0757 14.0937 23.5171 15.6289 20.3882C16.5312 18.6538 17.2226 16.5679 17.9609 14.1538C18.2656 13.1694 18.6992 11.9155 18.6992 11.353C18.6992 10.7202 18.2422 10.2983 17.5742 10.2983C16.8359 10.2983 16.3906 10.7671 15.8515 11.8804L14.2226 15.3022C14.0586 15.6772 13.8711 15.8179 13.6836 15.8179C13.4375 15.8179 13.2734 15.6772 13.2734 15.2671V2.97412C13.2734 2.28272 12.7109 1.72022 12.0195 1.72022C11.3281 1.72022 10.7656 2.28272 10.7656 2.97412V11.7632C10.4492 11.646 10.0976 11.5522 9.72265 11.4819V1.28662C9.72265 0.595215 9.16015 0.0209961 8.46875 0.0209961C7.77734 0.0209961 7.20312 0.595215 7.20312 1.28662V11.353C6.83984 11.3765 6.46484 11.4351 6.10156 11.4937V2.28272C6.10156 1.59131 5.53906 1.02881 4.84765 1.02881C4.15625 1.02881 3.59375 1.59131 3.59375 2.28272V12.2905C3.20703 12.478 2.85547 12.6772 2.53906 12.8882V5.92725C2.53906 5.23584 1.97656 4.67334 1.28515 4.67334C0.59375 4.67334 0.0195312 5.23584 0.0195312 5.92725V16.8491Z" fill="black" fill-opacity="0.85"/>
</svg>
