<svg width="20" height="25" viewBox="0 0 20 25" fill="none" xmlns="http://www.w3.org/2000/svg">
<path d="M8.27735 0.125C3.32032 0.125 0.00390625 3.45312 0.00390625 8.9375V11.4922C0.00390625 14.1992 1.28125 15.7812 3.46094 15.8047C3.73047 16.6601 4.4336 17.1875 5.41797 17.1875C5.76953 17.1875 6.10938 17.1289 6.4375 17.0117C6.74219 17.9609 7.51563 18.5351 8.53516 18.5351C8.80469 18.5351 9.08594 18.5 9.36719 18.4179V22.3203C9.36719 23.7968 10.3516 24.7812 11.7344 24.7812C13.1289 24.7812 14.1133 23.7968 14.1133 22.3203V12.5351C14.1133 12.4765 14.1484 12.4297 14.207 12.4297C14.2539 12.4297 14.2891 12.4648 14.3008 12.5117L15.0859 14.3867C15.4844 15.3007 16.1641 15.7929 16.9961 15.7929C18.1328 15.7929 19.1406 15.0664 19.1406 13.7773C19.1406 13.4257 19.0703 12.957 18.9297 12.5468L16.8672 6.74609C15.3086 2.35156 12.4141 0.125 8.27735 0.125ZM8.21875 1.74219C11.5 1.74219 14.0078 3.25391 15.4375 7.25L17.5117 13.039C17.5703 13.2148 17.6055 13.3672 17.6055 13.5664C17.6055 13.9765 17.3008 14.3281 16.832 14.3281C16.4336 14.3281 16.1992 14.082 16.0234 13.6836L14.4297 10.1211C14.1719 9.53515 13.8086 9.34765 13.3984 9.34765C12.9062 9.34765 12.5547 9.73437 12.5547 10.2734V22.4257C12.5547 22.9179 12.2148 23.2695 11.7344 23.2695C11.2539 23.2695 10.9258 22.9179 10.9258 22.4257V13.7539C10.9258 13.3437 10.5742 13.0273 10.1641 13.0273C9.76563 13.0273 9.4375 13.3437 9.4375 13.7539V16.8711C9.23829 16.9648 8.96875 17.0234 8.73438 17.0234C8.14844 17.0234 7.79688 16.6484 7.79688 16.0273V13.3086C7.79688 12.875 7.44532 12.582 7.04688 12.582C6.66016 12.582 6.3086 12.875 6.3086 13.3086V15.5234C6.10938 15.6172 5.83985 15.6757 5.61719 15.6757C5.01953 15.6757 4.67969 15.3007 4.67969 14.6797V12.8515C4.67969 12.4297 4.31641 12.1367 3.91797 12.1367C3.53125 12.1367 3.19141 12.4297 3.19141 12.8515V14.1992C2.14844 14.1992 1.55079 13.1328 1.55079 11.2578V9.125C1.55079 4.41406 4.08203 1.74219 8.21875 1.74219Z" fill="black" fill-opacity="0.85"/>
</svg>
