<svg width="20" height="27" viewBox="0 0 20 27" fill="none" xmlns="http://www.w3.org/2000/svg">
<path d="M8.29297 25.5327C12.4062 25.5327 15.3125 23.3062 16.8711 18.9116L18.9336 13.1108C19.0742 12.7124 19.1445 12.3257 19.1445 11.9741C19.1445 10.7319 18.207 9.86475 17.0117 9.86475C16.2031 9.86475 15.4766 10.3452 15.0781 11.271L14.3164 13.146C14.293 13.1929 14.2578 13.228 14.2109 13.228C14.1523 13.228 14.1289 13.1812 14.1289 13.1226V3.72412C14.1289 2.35303 13.2734 1.48584 11.9609 1.48584C11.4805 1.48584 11.0469 1.66162 10.7187 1.96631C10.5664 0.759277 9.79297 0.0209961 8.63281 0.0209961C7.49609 0.0209961 6.69922 0.782715 6.52343 1.94288C6.23047 1.64991 5.80859 1.48584 5.38672 1.48584C4.16797 1.48584 3.35937 2.34131 3.35937 3.64209V4.94288C3.04297 4.61475 2.5625 4.43897 2.07031 4.43897C0.851562 4.43897 0.0078125 5.32959 0.0078125 6.65381V16.7202C0.0078125 22.2046 3.33593 25.5327 8.29297 25.5327ZM8.23437 23.9155C4.08593 23.9155 1.55469 21.2437 1.55469 16.5327V6.81788C1.55469 6.31397 1.87109 5.97412 2.36328 5.97412C2.84375 5.97412 3.19531 6.31397 3.19531 6.81788V12.8062C3.19531 13.2398 3.54687 13.5327 3.92187 13.5327C4.32031 13.5327 4.68359 13.2398 4.68359 12.8062V3.85303C4.68359 3.34912 5 2.99756 5.48047 2.99756C5.97265 2.99756 6.3125 3.34912 6.3125 3.85303V12.2085C6.3125 12.6421 6.66406 12.9351 7.05078 12.9351C7.44922 12.9351 7.80078 12.6421 7.80078 12.2085V2.39991C7.80078 1.896 8.14062 1.53272 8.63281 1.53272C9.10156 1.53272 9.4414 1.896 9.4414 2.39991V12.2085C9.4414 12.6187 9.76953 12.9351 10.1797 12.9351C10.5781 12.9351 10.9297 12.6187 10.9297 12.2085V3.85303C10.9297 3.34912 11.2695 2.99756 11.75 2.99756C12.2305 2.99756 12.5703 3.34912 12.5703 3.85303V15.3843C12.5703 15.9702 12.9101 16.3101 13.4023 16.3101C13.8242 16.3101 14.1758 16.1226 14.4453 15.5366L16.1328 11.7749C16.3555 11.271 16.789 11.0952 17.1992 11.2476C17.6562 11.4116 17.7969 11.8452 17.5859 12.4194L15.4414 18.4077C14.0117 22.4038 11.5039 23.9155 8.23437 23.9155Z" fill="black" fill-opacity="0.85"/>
</svg>
