<svg width="24" height="24" viewBox="0 0 24 24" fill="none" xmlns="http://www.w3.org/2000/svg">
<path d="M11.9687 23.9287C18.5078 23.9287 23.9218 18.503 23.9218 11.9756C23.9218 5.43652 18.4961 0.0224609 11.957 0.0224609C5.42968 0.0224609 0.015625 5.43652 0.015625 11.9756C0.015625 18.503 5.44141 23.9287 11.9687 23.9287Z" fill="#FFCC00"/>
<path d="M18.7656 9.9483C18.7656 11.9405 17.6523 13.5225 16.1875 13.5225H15.25C15.789 12.7959 16.4336 11.6475 16.457 10.0069C16.4804 8.51861 15.9765 7.22955 14.7812 6.36236H15.9531C17.582 6.36236 18.7656 7.99127 18.7656 9.9483ZM15.5781 9.99518C15.5547 11.542 15.1328 12.4795 14.3125 13.5811C13.3164 14.9053 12.0273 16.4522 11.0429 18.3389C10.8086 18.8311 10.5742 19.1475 10.1054 19.1475C9.60157 19.1475 9.20313 18.7842 9.20313 18.1866C9.20313 17.0498 10.2929 15.4444 10.2929 14.5537C10.2929 14.0733 9.91797 13.7686 9.3086 13.7686H7.01172C6.37891 13.7686 5.88672 13.253 5.88672 12.6084C5.88672 12.2686 6.01563 11.9522 6.20313 11.7647C6.32032 11.6827 6.34375 11.6241 6.22657 11.542C6.06251 11.378 5.96875 11.0381 5.96875 10.7452C5.96875 10.2998 6.16797 9.96002 6.48438 9.77252C6.58985 9.71393 6.60157 9.62018 6.53125 9.51471C6.37891 9.33893 6.28516 9.0694 6.28516 8.77643C6.28516 8.2608 6.63672 7.87408 7.02344 7.72174C7.09375 7.6983 7.10547 7.61627 7.0586 7.53424C6.98829 7.40533 6.91797 7.1944 6.91797 6.96002C6.91797 6.33893 7.42188 6.04596 7.94922 5.90533C8.30079 5.8233 8.92188 5.75299 9.75391 5.76471L10.6562 5.77643C13.6914 5.81158 15.6133 7.60455 15.5781 9.99518Z" fill="black" fill-opacity="0.85"/>
</svg>
