<svg width="27" height="28" viewBox="0 0 27 28" fill="none" xmlns="http://www.w3.org/2000/svg">
<path d="M3.67969 20.7422H15.4453C17.8828 20.7422 19.125 19.5234 19.125 17.1094V5.25C19.125 2.83594 17.8828 1.61719 15.4453 1.61719H3.67969C1.23047 1.61719 0 2.83594 0 5.25V17.1094C0 19.5234 1.23047 20.7422 3.67969 20.7422Z" fill="#FFCC00"/>
<path d="M9.36328 27.7617H21.1289C24.457 27.7617 26.4023 25.8398 26.4023 22.5352V10.6758C26.4023 7.37109 24.457 5.44922 21.1289 5.44922H9.36328C6.03516 5.44922 4.08984 7.35938 4.08984 10.6758V22.5352C4.08984 25.8398 6.03516 27.7617 9.36328 27.7617Z" fill="white"/>
<path d="M9.36328 26.168H21.1289C23.5664 26.168 24.8086 24.9492 24.8086 22.5352V10.6758C24.8086 8.26172 23.5664 7.04297 21.1289 7.04297H9.36328C6.91406 7.04297 5.68359 8.25 5.68359 10.6758V22.5352C5.68359 24.9492 6.91406 26.168 9.36328 26.168Z" fill="#FFCC00"/>
<path d="M10.8281 18.6211V12.832C10.8281 12.4688 11.1211 12.1523 11.5312 12.1523C11.8828 12.1523 12.1992 12.4688 12.1992 12.832V16.4648C12.3633 16.3711 12.5039 16.2656 12.7148 16.1953V10.8984C12.7148 10.5117 13.0312 10.207 13.4062 10.207C13.7695 10.207 14.0859 10.5117 14.0859 10.8984V15.75C14.2617 15.7148 14.4492 15.6914 14.6367 15.6797V10.3594C14.6367 9.98438 14.9297 9.67969 15.3281 9.67969C15.6914 9.67969 16.0078 9.98438 16.0078 10.3594V15.7383C16.1719 15.7969 16.3594 15.8438 16.5117 15.8906V11.25C16.5117 10.8867 16.8164 10.582 17.2031 10.582C17.5664 10.582 17.8828 10.8867 17.8828 11.25V17.7656C17.8828 17.9531 17.9414 18.0469 18.0938 18.0469C18.1875 18.0469 18.2695 17.9648 18.3398 17.7773L19.2188 15.9609C19.5234 15.375 19.7344 15.1172 20.1445 15.1172C20.5078 15.1172 20.7656 15.3516 20.7656 15.7031C20.7656 15.9961 20.5312 16.6523 20.3672 17.1797C19.9805 18.4453 19.6289 19.5586 19.1367 20.4844C18.293 22.2539 16.9922 23.0039 15.1055 23.0039C12.5742 23.0039 10.8281 21.3398 10.8281 18.6211Z" fill="black" fill-opacity="0.85"/>
</svg>
