<svg width="26" height="21" viewBox="0 0 26 21" fill="none" xmlns="http://www.w3.org/2000/svg">
<path d="M0.0117188 11.4231C0.0117188 16.6262 3.50391 20.1184 9.25781 20.1184H11.9414C14.7773 20.1184 16.4414 18.7708 16.4648 16.4856C17.3789 16.2043 17.9179 15.4543 17.9179 14.4348C17.9179 14.0598 17.8476 13.6965 17.7422 13.3567C18.7265 13.0403 19.3359 12.22 19.3359 11.1536C19.3359 10.8723 19.3008 10.5793 19.207 10.2864H23.2969C24.8672 10.2864 25.8867 9.25516 25.8867 7.79031C25.8867 6.32547 24.8672 5.29422 23.2969 5.29422H13.0429C12.9844 5.29422 12.9375 5.27078 12.9375 5.20047C12.9375 5.15359 12.9609 5.10672 13.0195 5.095L14.9883 4.27469C15.9492 3.86453 16.4531 3.14969 16.4531 2.27078C16.4531 1.07547 15.6914 0.0207826 14.3437 0.0207826C13.9687 0.00906385 13.4765 0.0793764 13.0547 0.243439L6.96094 2.41141C2.34375 4.05203 0.0117188 7.07547 0.0117188 11.4231ZM1.69922 11.4934C1.69922 8.04813 3.29297 5.41141 7.48828 3.91141L13.5703 1.73172C13.7461 1.66141 13.9101 1.63797 14.1211 1.63797C14.5547 1.63797 14.9179 1.95438 14.9179 2.44656C14.9179 2.86844 14.6719 3.10281 14.25 3.29031L10.5 4.95438C9.89063 5.23563 9.69141 5.62234 9.69141 6.05594C9.69141 6.57156 10.1015 6.93484 10.6523 6.93484H23.414C23.9414 6.93484 24.3047 7.28641 24.3047 7.79031C24.3047 8.30594 23.9414 8.64578 23.414 8.64578H14.3086C13.8867 8.64578 13.5469 9.00906 13.5469 9.44266C13.5469 9.85281 13.8867 10.2161 14.3086 10.2161H17.5898C17.6836 10.4153 17.7539 10.7083 17.7539 10.9426C17.7539 11.552 17.3437 11.9387 16.6992 11.9387H13.8515C13.3945 11.9387 13.0781 12.302 13.0781 12.7122C13.0781 13.1223 13.3945 13.4856 13.8515 13.4856H16.1719C16.2656 13.6965 16.3242 13.9895 16.3242 14.2239C16.3242 14.845 15.9258 15.2083 15.2929 15.2083H13.3711C12.9258 15.2083 12.6094 15.595 12.6094 16.0051C12.6094 16.4153 12.9258 16.7668 13.3711 16.7668H14.7773C14.7773 17.8684 13.6523 18.4895 11.6953 18.4895H9.45703C4.5 18.4895 1.69922 15.8411 1.69922 11.4934Z" fill="black" fill-opacity="0.85"/>
</svg>
