<svg width="33" height="31" viewBox="0 0 33 31" fill="none" xmlns="http://www.w3.org/2000/svg">
<path d="M4.0083 10.1417C4.39502 10.212 4.80516 9.97763 4.87548 9.56748C4.95751 9.16904 4.71141 8.79404 4.30126 8.70029L0.914543 7.97373C0.48095 7.87998 0.0825121 8.16123 0.0239184 8.5831C-0.0346754 8.96982 0.223137 9.34482 0.609856 9.42685L4.0083 10.1417ZM5.19188 6.23935C5.48486 6.53232 5.96532 6.53232 6.24657 6.23935C6.52782 5.94638 6.53955 5.48935 6.24657 5.19638L3.78563 2.74717C3.48095 2.44248 3.03563 2.4542 2.74267 2.74717C2.4497 3.04013 2.43798 3.48545 2.74267 3.79013L5.19188 6.23935ZM9.56299 5.0792C9.96142 4.99717 10.2426 4.58701 10.1489 4.21201L9.42235 0.825288C9.3286 0.415132 8.93016 0.169038 8.54344 0.251069C8.14501 0.333101 7.86376 0.719819 7.95751 1.12998L8.68408 4.50498C8.77783 4.8917 9.15283 5.17295 9.56299 5.0792Z" fill="#007AFF"/>
<path d="M18.2353 26.0911C21.8916 29.7356 26.4502 29.5012 29.7314 26.2317C32.3681 23.5833 32.8955 20.8411 31.7822 17.5364C31.1845 15.6848 30.2119 13.7278 29.0049 11.4895C28.5361 10.5755 27.9502 9.38013 27.5517 8.99341C27.1064 8.5481 26.497 8.57153 26.0166 9.04028C25.4892 9.56763 25.5127 10.2005 25.9111 11.3723L27.1885 14.9466C27.3291 15.3216 27.3056 15.5559 27.165 15.6966C27.001 15.8606 26.7783 15.8841 26.4853 15.5911L17.8017 6.89575C17.3095 6.41528 16.501 6.41528 16.0205 6.89575C15.5283 7.38794 15.5283 8.18482 16.0205 8.677L22.2314 14.888C21.9385 15.0286 21.6103 15.2161 21.2939 15.427L14.0869 8.21997C13.6064 7.72778 12.7978 7.72778 12.3056 8.21997C11.8252 8.71216 11.8252 9.50903 12.3056 10.0012L19.4306 17.1145C19.1845 17.3958 18.9619 17.7005 18.751 17.9934L12.2353 11.4778C11.7431 10.9856 10.9463 10.9856 10.4541 11.4778C9.97363 11.97 9.97363 12.7669 10.4541 13.2591L17.5439 20.3372C17.3916 20.7356 17.2978 21.1341 17.2158 21.5091L12.2939 16.5872C11.8135 16.095 11.0049 16.095 10.5127 16.5872C10.0322 17.0794 10.0322 17.8645 10.5127 18.3567L18.2353 26.0911Z" fill="black" fill-opacity="0.85"/>
<path d="M12.9375 27.2161C17.2382 31.5051 22.8046 31.2356 26.6953 27.3567C29.7773 24.263 30.4101 20.9114 29.1445 17.0911C28.5117 15.0989 27.4804 13.0012 26.2617 10.7512C25.6992 9.66139 25.1015 8.44264 24.5039 7.8567C23.4257 6.77858 21.8085 6.83717 20.7304 7.90358C20.0625 8.57154 19.7695 9.36842 19.9101 10.5169L20.2265 11.2317L14.7539 5.75904C13.6406 4.65748 11.8359 4.6692 10.7226 5.75904C10.4882 6.00514 10.3007 6.27467 10.1835 6.61451L9.96094 6.45045C8.98829 6.06373 7.79297 6.28639 7.00782 7.09498C6.35157 7.76295 6.08204 8.68873 6.30469 9.49733L6.37501 9.69654C5.94141 9.79029 5.50782 10.0129 5.15626 10.3528C4.05469 11.4661 4.05469 13.2708 5.15626 14.3841L5.83594 15.0637C5.62501 15.1341 5.40235 15.2747 5.21485 15.4622C4.12501 16.5637 4.12501 18.3684 5.21485 19.4817L12.9375 27.2161Z" fill="white"/>
<path d="M14.0752 26.0911C17.7314 29.7356 22.29 29.5012 25.5713 26.2317C28.208 23.5833 28.7353 20.8411 27.622 17.5364C27.0244 15.6848 26.04 13.7278 24.8447 11.4895C24.3642 10.5755 23.79 9.38013 23.3916 8.99341C22.9463 8.5481 22.3252 8.57153 21.8564 9.04028C21.3291 9.56763 21.3525 10.2005 21.751 11.3723L23.0166 14.9466C23.1689 15.3216 23.1455 15.5559 23.0049 15.6966C22.8408 15.8606 22.6181 15.8841 22.3135 15.5911L13.6416 6.89575C13.1494 6.41528 12.3408 6.41528 11.8603 6.89575C11.3681 7.38794 11.3681 8.18482 11.8603 8.677L18.0713 14.888C17.7666 15.0286 17.4502 15.2161 17.1338 15.427L9.92676 8.21997C9.44629 7.72778 8.63769 7.72778 8.14551 8.21997C7.66504 8.71216 7.66504 9.50903 8.14551 10.0012L15.2588 17.1145C15.0244 17.3958 14.8017 17.7005 14.5908 17.9934L8.07519 11.4778C7.58301 10.9856 6.78613 10.9856 6.29394 11.4778C5.81348 11.97 5.81348 12.7669 6.29394 13.2591L13.372 20.3372C13.2314 20.7356 13.1377 21.1341 13.0556 21.5091L8.13379 16.5872C7.65332 16.095 6.84473 16.095 6.35254 16.5872C5.87207 17.0794 5.87207 17.8645 6.35254 18.3567L14.0752 26.0911Z" fill="black" fill-opacity="0.85"/>
</svg>
