<svg width="26" height="20" viewBox="0 0 26 20" fill="none" xmlns="http://www.w3.org/2000/svg">
<path d="M25.0664 11.2109C25.0664 7.28515 23.0156 3.98047 18.0117 2.28125L12.0586 0.300781C11.8594 0.21875 11.6367 0.160156 11.3555 0.160156C10.6523 0.160156 10.0781 0.710937 10.0781 1.55469C10.0781 2.10547 10.3476 2.51562 10.9805 2.78515L15.2461 4.60156C15.5976 4.74219 15.7148 4.91797 15.7148 5.11719C15.7148 5.33984 15.5273 5.55078 15.1992 5.55078H1.52344C0.609375 5.55078 0.0117188 6.125 0.0117188 6.94531C0.0117188 7.71875 0.609375 8.31641 1.52344 8.31641H10.8633C11.3555 8.31641 11.6015 8.5625 11.6015 8.89062C11.6015 9.18359 11.3555 9.44141 10.8633 9.44141H8.07422C7.66406 9.44141 7.44141 9.67578 7.44141 10.1562C7.44141 11.2109 8.1211 12.0547 9.53906 12.0547H10.8633C11.3555 12.0547 11.6015 12.3007 11.6015 12.6289C11.6015 12.9218 11.3555 13.1797 10.8633 13.1797H9.4336C9.01172 13.1797 8.8125 13.4023 8.8125 13.8945C8.8125 14.9961 9.64453 15.8047 10.9219 15.8047H11.6015C12.1055 15.8047 12.3398 16.0625 12.3398 16.3789C12.3398 16.6718 12.1055 16.9297 11.6015 16.9297H10.5586C10.3008 16.9297 10.1601 17.082 10.1601 17.3398C10.1601 18.5117 11.4844 19.5547 13.6523 19.5547H15.9961C21.7265 19.5547 25.0664 16.5547 25.0664 11.2109Z" fill="black" fill-opacity="0.85"/>
</svg>
