<svg width="21" height="26" viewBox="0 0 21 26" fill="none" xmlns="http://www.w3.org/2000/svg">
<path d="M9.47319 25.0757C13.1997 25.0757 15.5083 23.5171 17.0552 20.3882C17.9458 18.6538 18.6372 16.5679 19.3755 14.1538C19.6802 13.1694 20.1255 11.9155 20.1255 11.353C20.1255 10.7202 19.6567 10.2983 19.0005 10.2983C18.2505 10.2983 17.8169 10.7671 17.2661 11.8804L15.6489 15.3022C15.4732 15.6772 15.2857 15.8179 15.0982 15.8179C14.8638 15.8179 14.6411 15.6772 14.6997 15.2671L16.1177 3.04444C16.1997 2.271 15.6958 1.82569 15.1216 1.7085C14.5005 1.59131 13.7974 1.896 13.6685 2.65772L12.1802 11.7632C11.8638 11.646 11.5122 11.5522 11.1372 11.4819V1.23975C11.1372 0.571777 10.5747 0.0209961 9.88335 0.0209961C9.19194 0.0209961 8.62944 0.571777 8.62944 1.23975V11.353C8.25444 11.3765 7.87944 11.4351 7.51616 11.4937L6.30913 2.49366C6.20366 1.67334 5.53569 1.36866 4.90288 1.47412C4.30522 1.56788 3.74272 2.07178 3.83647 2.84522L5.00835 12.2905C4.62163 12.478 4.28179 12.6772 3.95366 12.8882L2.46538 5.63428C2.30132 4.83741 1.64507 4.54444 1.04741 4.63819C0.461471 4.74366 -0.0775924 5.24756 0.0395955 6.05616L1.44585 16.8491C2.11382 21.9937 4.82085 25.0757 9.47319 25.0757Z" fill="black" fill-opacity="0.85"/>
</svg>
