<svg width="26" height="28" viewBox="0 0 26 28" fill="none" xmlns="http://www.w3.org/2000/svg">
<path d="M13.5254 26.066C17.6386 26.066 20.5449 23.8394 22.1035 19.4449L24.166 13.6441C24.3066 13.2457 24.3769 12.8589 24.3769 12.5074C24.3769 11.2652 23.4394 10.398 22.2441 10.398C21.4355 10.398 20.709 10.8785 20.3105 11.8042L19.5488 13.6792C19.5254 13.7261 19.4902 13.7613 19.4433 13.7613C19.3847 13.7613 19.3613 13.7144 19.3613 13.6558V4.25732C19.3613 2.88623 18.5058 2.01904 17.1933 2.01904C16.7129 2.01904 16.2793 2.19482 15.9511 2.49951C15.7988 1.29248 15.0254 0.554199 13.8652 0.554199C12.7285 0.554199 11.9316 1.31591 11.7558 2.47607C11.4629 2.1831 11.041 2.01904 10.6191 2.01904C9.40039 2.01904 8.59179 2.87451 8.59179 4.17529V5.47607C8.27539 5.14795 7.79492 4.97216 7.30273 4.97216C6.08398 4.97216 5.24023 5.86279 5.24023 7.18701V17.2535C5.24023 22.7378 8.56836 26.066 13.5254 26.066ZM13.4668 24.4488C9.31836 24.4488 6.78711 21.7769 6.78711 17.066V7.35107C6.78711 6.84716 7.10351 6.50732 7.5957 6.50732C8.07617 6.50732 8.42773 6.84716 8.42773 7.35107V13.3394C8.42773 13.773 8.77929 14.066 9.15429 14.066C9.55273 14.066 9.91601 13.773 9.91601 13.3394V4.38623C9.91601 3.88232 10.2324 3.53076 10.7129 3.53076C11.2051 3.53076 11.5449 3.88232 11.5449 4.38623V12.7417C11.5449 13.1753 11.8965 13.4683 12.2832 13.4683C12.6816 13.4683 13.0332 13.1753 13.0332 12.7417V2.9331C13.0332 2.4292 13.373 2.06591 13.8652 2.06591C14.334 2.06591 14.6738 2.4292 14.6738 2.9331V12.7417C14.6738 13.1519 15.0019 13.4683 15.4121 13.4683C15.8105 13.4683 16.1621 13.1519 16.1621 12.7417V4.38623C16.1621 3.88232 16.5019 3.53076 16.9824 3.53076C17.4629 3.53076 17.8027 3.88232 17.8027 4.38623V15.9175C17.8027 16.5035 18.1426 16.8433 18.6347 16.8433C19.0566 16.8433 19.4082 16.6558 19.6777 16.0699L21.3652 12.3082C21.5879 11.8042 22.0215 11.6285 22.4316 11.7808C22.8886 11.9449 23.0293 12.3785 22.8183 12.9527L20.6738 18.941C19.2441 22.9371 16.7363 24.4488 13.4668 24.4488Z" fill="#007AFF"/>
<path d="M21.4834 27.1089C22.3623 27.9878 23.8389 27.9996 24.7061 27.0855C25.5732 26.1949 25.5732 24.7886 24.6943 23.898L3.88184 3.09716C2.99121 2.20654 1.53809 2.20654 0.65918 3.09716C-0.219727 3.96435 -0.219727 5.4292 0.65918 6.3081L21.4834 27.1089Z" fill="white"/>
<path d="M22.4443 26.148C22.7959 26.4878 23.3818 26.4996 23.7217 26.148C24.0732 25.7847 24.085 25.2222 23.7217 24.8707L2.90918 4.0581C2.55762 3.70654 1.9834 3.70654 1.62012 4.0581C1.28027 4.40966 1.28027 4.9956 1.62012 5.33545L22.4443 26.148Z" fill="black" fill-opacity="0.85"/>
</svg>
