<svg width="28" height="34" viewBox="0 0 28 34" fill="none" xmlns="http://www.w3.org/2000/svg">
<path d="M17.5976 8.3794C17.7851 8.3794 17.9375 8.25049 17.9492 8.03955C18.289 5.28565 18.418 5.21534 21.2187 4.74659C21.4531 4.72315 21.582 4.60596 21.582 4.40674C21.582 4.21924 21.4531 4.10205 21.2656 4.0669C18.4414 3.52784 18.289 3.53955 17.9492 0.785645C17.9375 0.574707 17.7851 0.445801 17.5976 0.445801C17.4219 0.445801 17.2812 0.574707 17.2695 0.773926C16.8945 3.57471 16.8125 3.65674 13.9414 4.0669C13.7539 4.09034 13.625 4.21924 13.625 4.40674C13.625 4.59424 13.7539 4.72315 13.9414 4.74659C16.8125 5.30909 16.8828 5.29737 17.2695 8.06299C17.2812 8.25049 17.4219 8.3794 17.5976 8.3794ZM9.75781 5.21534C9.88672 5.21534 9.99219 5.14502 10.0273 4.99268C10.3437 3.23487 10.3437 3.22315 12.1133 2.89502C12.2656 2.85987 12.3594 2.76612 12.3594 2.62549C12.3594 2.47315 12.2656 2.3794 12.1133 2.34424C10.3437 1.99268 10.3906 1.98096 10.0273 0.258301C9.99219 0.105957 9.89843 0.0239258 9.75781 0.0239258C9.61719 0.0239258 9.51172 0.117676 9.48828 0.258301C9.11328 1.98096 9.17187 1.99268 7.39062 2.34424C7.23828 2.3794 7.14453 2.48487 7.14453 2.62549C7.14453 2.7544 7.23828 2.85987 7.39062 2.89502C9.17187 3.24659 9.14843 3.23487 9.48828 4.99268C9.51172 5.13331 9.61719 5.21534 9.75781 5.21534ZM3.37109 31.2895C3.54687 31.2895 3.64062 31.1841 3.66406 31.02C4.08593 28.7231 4.07422 28.6762 6.47656 28.2192C6.65234 28.1723 6.74609 28.0903 6.74609 27.9145C6.74609 27.7387 6.65234 27.6567 6.47656 27.6216C4.08593 27.1411 4.14453 27.0942 3.66406 24.8091C3.64062 24.645 3.54687 24.5395 3.37109 24.5395C3.20703 24.5395 3.125 24.645 3.07812 24.8091C2.59765 27.0942 2.6914 27.1411 0.277344 27.6216C0.113282 27.6567 0.0078125 27.7387 0.0078125 27.9145C0.0078125 28.0903 0.113282 28.1723 0.277344 28.2192C2.6914 28.688 2.64453 28.7231 3.07812 31.02C3.125 31.1841 3.20703 31.2895 3.37109 31.2895Z" fill="#007AFF"/>
<path d="M24.406 26.8834C27.3123 23.9654 27.7928 20.3443 25.7888 16.1256L23.1404 10.5709C22.9529 10.1842 22.742 9.86774 22.4959 9.62165C21.6053 8.74274 20.3279 8.78961 19.4842 9.63337C18.9099 10.2076 18.7342 11.0631 19.1209 11.9888L19.8943 13.8638C19.9178 13.9107 19.9178 13.9576 19.8826 13.9928C19.8474 14.0279 19.7888 14.0162 19.7537 13.981L13.0974 7.32477C12.1365 6.36383 10.9178 6.36383 9.99194 7.28961C9.65209 7.61774 9.46459 8.05133 9.45287 8.49665C8.49194 7.75837 7.42553 7.7818 6.60522 8.60211C5.79662 9.41071 5.77318 10.5123 6.47631 11.4498C6.05444 11.4498 5.64428 11.6373 5.33959 11.942C4.48412 12.7974 4.50756 13.9693 5.43334 14.8834L6.3474 15.8092C5.89037 15.7974 5.43334 16.0084 5.08178 16.3599C4.22631 17.2271 4.26147 18.4576 5.19897 19.3834L12.3123 26.5084C16.1912 30.3873 20.8904 30.3873 24.406 26.8834ZM23.2107 25.7818C20.281 28.7115 16.6131 28.6178 13.2732 25.2779L6.406 18.4107C6.05444 18.0592 6.031 17.5787 6.37084 17.2388C6.71068 16.899 7.20287 16.899 7.56615 17.2506L11.7967 21.481C12.1014 21.7857 12.5584 21.7506 12.8279 21.481C13.1092 21.1998 13.156 20.7428 12.8514 20.4381L6.51147 14.0982C6.1599 13.7467 6.13647 13.2779 6.48803 12.9381C6.82787 12.5865 7.32006 12.5865 7.67162 12.9381L13.5779 18.856C13.8826 19.1607 14.3396 19.1138 14.6092 18.8443C14.8904 18.5631 14.9373 18.106 14.6326 17.8013L7.69506 10.8638C7.3435 10.5123 7.33178 10.0201 7.67162 9.68024C8.01147 9.3404 8.50365 9.35211 8.85522 9.70368L15.7928 16.6412C16.0857 16.9342 16.5428 16.9224 16.824 16.6412C17.1053 16.3482 17.1404 15.8795 16.8474 15.5982L10.9295 9.68024C10.5779 9.32868 10.5779 8.83649 10.9178 8.49665C11.2576 8.1568 11.7381 8.16852 12.0896 8.52008L20.2459 16.6763C20.656 17.0982 21.1482 17.0865 21.4881 16.7467C21.7928 16.4537 21.9099 16.067 21.6756 15.4576L20.2107 11.6138C20.0115 11.0865 20.199 10.6646 20.5974 10.4771C21.0428 10.2779 21.4412 10.4771 21.699 11.0396L24.4178 16.7818C26.2342 20.6256 25.531 23.4615 23.2107 25.7818Z" fill="black" fill-opacity="0.85"/>
<path d="M21.3949 27.9381C24.3129 25.0318 24.7816 21.399 22.7777 17.192L20.141 11.6256C19.9535 11.2388 19.7426 10.9224 19.4848 10.6763C18.6059 9.79748 17.3285 9.84435 16.4848 10.6998C15.9105 11.2623 15.7348 12.1178 16.1215 13.0552L16.8949 14.9185C16.9184 14.9654 16.9184 15.0123 16.8832 15.0474C16.848 15.0943 16.7894 15.0826 16.7426 15.0357L10.098 8.39123C9.13714 7.41857 7.91839 7.41856 6.99261 8.34434C6.65276 8.68419 6.46526 9.10607 6.45354 9.55138C5.49261 8.8131 4.4262 8.83654 3.60589 9.66857C2.79729 10.4654 2.77385 11.567 3.47698 12.5045C3.04339 12.5045 2.64495 12.692 2.34026 12.9967C1.48479 13.8521 1.50823 15.024 2.43401 15.9498L3.34807 16.8638C2.89104 16.8521 2.43401 17.0631 2.08245 17.4263C1.21526 18.2818 1.26214 19.5123 2.19964 20.4381L9.31292 27.5631C13.1918 31.442 17.891 31.442 21.3949 27.9381Z" fill="white"/>
<path d="M21.3949 27.9381C24.3129 25.0318 24.7816 21.399 22.7777 17.192L20.141 11.6256C19.9535 11.2388 19.7426 10.9224 19.4848 10.6763C18.6059 9.79748 17.3285 9.84435 16.4848 10.6998C15.9105 11.2623 15.7348 12.1178 16.1215 13.0552L16.8949 14.9185C16.9184 14.9654 16.9184 15.0123 16.8832 15.0474C16.848 15.0943 16.7894 15.0826 16.7426 15.0357L10.098 8.39123C9.13714 7.41857 7.91839 7.41856 6.99261 8.34434C6.65276 8.68419 6.46526 9.10607 6.45354 9.55138C5.49261 8.8131 4.4262 8.83654 3.60589 9.66857C2.79729 10.4654 2.77385 11.567 3.47698 12.5045C3.04339 12.5045 2.64495 12.692 2.34026 12.9967C1.48479 13.8521 1.50823 15.024 2.43401 15.9498L3.34807 16.8638C2.89104 16.8521 2.43401 17.0631 2.08245 17.4263C1.21526 18.2818 1.26214 19.5123 2.19964 20.4381L9.31292 27.5631C13.1918 31.442 17.891 31.442 21.3949 27.9381ZM20.2113 26.8365C17.2816 29.7662 13.6137 29.6724 10.2738 26.3326L3.40667 19.4654C3.05511 19.1138 3.03167 18.6451 3.37151 18.2935C3.71135 17.9537 4.20354 17.9537 4.55511 18.3052L8.79729 22.5474C9.10198 22.8521 9.54729 22.8052 9.82854 22.5357C10.1098 22.2545 10.1566 21.7974 9.85198 21.4928L3.51214 15.1529C3.16057 14.8013 3.13714 14.3326 3.47698 13.9928C3.82854 13.6529 4.32073 13.6529 4.67229 14.0045L10.5785 19.9107C10.8832 20.2154 11.3402 20.1802 11.6098 19.899C11.891 19.6178 11.9379 19.1607 11.6332 18.856L4.69573 11.9185C4.34417 11.567 4.33245 11.0748 4.67229 10.7349C5.00042 10.3951 5.50432 10.4185 5.85589 10.7701L12.7934 17.7076C13.0863 17.9888 13.5316 17.9771 13.8246 17.6959C14.1059 17.4029 14.1293 16.9459 13.848 16.6529L7.93011 10.7349C7.57854 10.3834 7.56682 9.90294 7.91839 9.56309C8.25823 9.21153 8.7387 9.22326 9.09026 9.58654L17.2465 17.7428C17.6566 18.1529 18.1488 18.1529 18.4887 17.8013C18.7816 17.5084 18.9105 17.1217 18.6762 16.524L17.2113 12.6685C17.0121 12.1529 17.1996 11.7193 17.598 11.5318C18.0434 11.3326 18.4418 11.5435 18.6996 12.0943L21.4184 17.8482C23.2348 21.6802 22.5199 24.5162 20.2113 26.8365Z" fill="black" fill-opacity="0.85"/>
</svg>
