<svg width="24" height="25" viewBox="0 0 24 25" fill="none" xmlns="http://www.w3.org/2000/svg">
<path d="M23.1054 7.51155C23.1054 4.0428 20.9257 1.13655 18.0312 1.13655H15.9687C18.0781 2.6717 19.0156 4.99202 18.9687 7.62873C18.9336 10.5585 17.7968 12.6561 16.7773 13.9217H18.4648C21.0781 13.9217 23.1054 11.1092 23.1054 7.51155ZM17.3984 7.59358C17.4687 3.31623 14 0.0818604 8.55078 0.0349854L6.96875 0.0232667C5.44531 0.0115479 4.32031 0.128735 3.6875 0.304517C2.77344 0.527173 1.89453 1.07795 1.89453 2.19123C1.89453 2.63655 2.01172 2.97639 2.15234 3.22248C2.24609 3.36311 2.23437 3.49202 2.08203 3.55061C1.36719 3.84358 0.757812 4.53498 0.757812 5.44905C0.757812 5.98811 0.910156 6.44514 1.17969 6.77327C1.30859 6.94905 1.28515 7.10139 1.07422 7.2303C0.546875 7.53498 0.171875 8.19123 0.171875 8.95295C0.171875 9.50373 0.347656 10.078 0.652343 10.3592C0.851562 10.5233 0.816406 10.6405 0.617187 10.8163C0.253906 11.121 0.0195312 11.6483 0.0195312 12.3163C0.0195312 13.4413 0.898437 14.3671 2.05859 14.3671H6.18359C7.22656 14.3671 7.91797 14.9061 7.91797 15.7733C7.91797 17.3319 5.97265 20.203 5.97265 22.2655C5.97265 23.3671 6.66406 23.9999 7.58984 23.9999C8.42187 23.9999 8.83203 23.4256 9.27734 22.5467C11.0234 19.16 13.3437 16.4178 15.1133 14.0624C16.6133 12.0702 17.3515 10.3592 17.3984 7.59358Z" fill="black" fill-opacity="0.85"/>
</svg>
