<svg width="23" height="30" viewBox="0 0 23 30" fill="none" xmlns="http://www.w3.org/2000/svg">
<path d="M5.86719 0.0224609C2.63281 0.0224609 0.0078125 2.64746 0.0078125 5.88184C0.0078125 7.27637 0.500001 8.56543 1.30859 9.57324C1.50781 9.81934 1.74219 9.91308 1.96484 9.91308C2.53906 9.91308 3.03125 9.2334 2.53906 8.64746C1.90625 7.89746 1.54297 6.93652 1.54297 5.88184C1.54297 3.49121 3.47656 1.55762 5.86719 1.55762C8.25781 1.55762 10.1797 3.49121 10.1797 5.88184C10.1797 5.95215 10.1797 6.02246 10.1797 6.12793C10.1914 6.65527 10.5547 6.88965 10.9297 6.88965C11.293 6.88965 11.668 6.63184 11.7031 6.22168C11.7148 6.13965 11.7148 6.03418 11.7148 5.88184C11.7148 2.64746 9.10156 0.0224609 5.86719 0.0224609Z" fill="#007AFF"/>
<path d="M16.8363 25.7684C21.4887 24.0809 23.4809 19.8153 21.6059 14.659L20.727 12.2567C19.8012 9.71375 18.0668 8.67078 16.0043 9.38562C15.4652 8.67078 14.6098 8.42468 13.6957 8.75281C13.3559 8.88172 13.0629 9.0575 12.7934 9.26843C12.184 8.495 11.2582 8.21375 10.2973 8.55359C10.0394 8.64734 9.79336 8.78796 9.55898 8.95203L8.22304 5.29578C7.71914 3.90125 6.46523 3.31531 5.16445 3.78406C3.85195 4.26453 3.25429 5.51843 3.7582 6.91296L7.10976 16.1004C7.12148 16.159 7.10976 16.2059 7.06289 16.2293C7.01601 16.2528 6.96914 16.2293 6.93398 16.1942L5.56289 14.6942C4.8832 13.9676 4.07461 13.745 3.28945 14.0262C2.21132 14.4246 1.51992 15.4442 1.96523 16.6512C2.08242 16.9911 2.31679 17.4012 2.58632 17.7411L6.50039 22.4871C9.47695 26.0731 12.9457 27.1864 16.8363 25.7684ZM16.3441 24.2332C13.2621 25.3582 10.391 24.784 7.68398 21.5145L3.74648 16.7918C3.62929 16.6512 3.54726 16.5223 3.47695 16.3231C3.33632 15.9481 3.50039 15.5145 3.9457 15.3504C4.3207 15.2215 4.62539 15.3621 4.91836 15.6785L7.63711 18.4793C8.08242 18.9481 8.48086 18.995 8.87929 18.8543C9.33632 18.6903 9.52382 18.1981 9.34804 17.6942L5.18789 6.28015C5.02382 5.8114 5.22304 5.36609 5.68008 5.20203C6.13711 5.03796 6.55898 5.26062 6.72304 5.72937L9.69961 13.8739C9.82851 14.2606 10.2621 14.4364 10.6488 14.2957C11.0238 14.1551 11.2348 13.745 11.0941 13.37L10.0277 10.4285C10.1801 10.2762 10.4144 10.1239 10.6254 10.0418C11.1762 9.84265 11.6449 10.0887 11.8441 10.6629L12.7816 13.2293C12.934 13.6278 13.3676 13.7801 13.7426 13.6395C14.1059 13.5106 14.3285 13.1239 14.1762 12.7137L13.4262 10.6278C13.5785 10.4754 13.8129 10.3231 14.0238 10.2411C14.5746 10.0418 15.0316 10.2879 15.2426 10.8621L15.8754 12.5731C16.016 12.9832 16.4496 13.1356 16.8246 12.995C17.1879 12.8661 17.4223 12.4676 17.2699 12.0692L16.8129 10.8035C17.7855 10.452 18.7113 11.2489 19.3559 13.0067L20.0824 15.0106C21.6996 19.4403 20.2348 22.8153 16.3441 24.2332Z" fill="black" fill-opacity="0.85"/>
</svg>
