<svg width="19" height="24" viewBox="0 0 19 24" fill="none" xmlns="http://www.w3.org/2000/svg">
<path d="M10.5468 23.9609C15.6328 23.9609 18.4922 20.7734 18.4922 15.3359V13.0859C18.4922 11.0234 17.4961 9.76953 16.3828 9.76953C16.125 9.76953 15.9961 9.89844 15.9961 10.1445V11.1406C15.9961 11.6093 15.75 11.8437 15.4687 11.8437C15.164 11.8437 14.9296 11.6093 14.9296 11.1406V10.4843C14.9296 9.27734 14.1445 8.48047 13.1015 8.48047C12.6211 8.48047 12.4101 8.67969 12.4101 9.07812V10.4375C12.4101 10.9062 12.1757 11.1406 11.8945 11.1406C11.5898 11.1406 11.3437 10.9062 11.3437 10.4375V9.18359C11.3437 7.82422 10.5468 7.17969 9.53906 7.17969C9.08203 7.17969 8.84766 7.39062 8.84766 7.77734V10.4375C8.84766 10.9062 8.60156 11.1406 8.32032 11.1406C8.01563 11.1406 7.78125 10.9062 7.78125 10.4375V1.54297C7.78125 0.675781 7.20703 0.113281 6.48047 0.113281C5.69532 0.113281 5.14453 0.675781 5.14453 1.54297V14.5625C5.14453 14.8906 4.94532 15.0547 4.7461 15.0547C4.54688 15.0547 4.38282 14.9375 4.24219 14.6093L2.51953 10.5429C2.26172 9.94531 1.86328 9.6875 1.33594 9.6875C0.539062 9.6875 0.0234375 10.2383 0.0234375 10.8945C0.0234375 11.164 0.0820313 11.3867 0.140625 11.5742L2.03906 17.2343C3.65625 22.0039 6.8086 23.9609 10.5468 23.9609Z" fill="black" fill-opacity="0.85"/>
</svg>
