<svg width="30" height="26" viewBox="0 0 30 26" fill="none" xmlns="http://www.w3.org/2000/svg">
<path d="M0 21.1992C0 22.4648 0.867188 23.6133 2.4375 23.6133H26.9766C28.5469 23.6133 29.4023 22.4648 29.4023 21.1992C29.4023 20.2617 28.9102 19.2656 27.9023 18.7031L14.707 11.2969L1.5 18.7031C0.492188 19.2656 0 20.2617 0 21.1992ZM1.89844 21.0938C1.89844 20.7891 2.05078 20.5195 2.44922 20.2969L14.707 13.4414L26.9648 20.2969C27.3633 20.5195 27.5156 20.7891 27.5156 21.0938C27.5156 21.457 27.2812 21.75 26.7773 21.75H2.625C2.13281 21.75 1.89844 21.457 1.89844 21.0938ZM13.793 12.1758H15.6094V10.9336C15.6094 9.87891 16.125 9.46875 17.0391 8.73047C17.9883 7.95703 19.5 6.87891 19.5 4.51172C19.5 1.80469 17.6016 0 14.7656 0C11.9531 0 10.0781 1.98047 10.0781 4.94531C10.0781 5.50781 10.4648 5.89453 10.9688 5.89453C11.4609 5.89453 11.8477 5.50781 11.8477 5.0625C11.8477 3.09375 13.0195 1.78125 14.7656 1.78125C16.5469 1.78125 17.7422 2.87109 17.7422 4.51172C17.7422 5.97656 16.957 6.63281 16.1602 7.27734C15.1172 8.12109 13.793 8.85938 13.793 10.9336V12.1758Z" fill="black" fill-opacity="0.85"/>
</svg>
