<svg width="36" height="27" viewBox="0 0 36 27" fill="none" xmlns="http://www.w3.org/2000/svg">
<path d="M18.3984 24.3516C19.2188 24.3516 19.9453 23.9648 21.4805 23.9648C23.0273 23.9648 23.4492 24.3516 24.5977 24.3516C26.332 24.3516 27.2461 23.6367 27.2461 22.418C27.2461 20.3555 25.0078 18.9727 21.4688 18.9727C19.7344 18.9727 18.9609 19.1367 17.9766 19.3828L16.7109 16.5C15.4688 13.7344 13.4648 11.9297 10.6289 11.9297H9.24609C8.78906 11.9297 8.48438 11.7305 8.48438 11.2852C8.48438 10.5586 9.45703 10.3828 10.5234 10.3828C13.957 10.3828 16.4883 12.2695 18.0352 16.0664L18.8438 18.0234C19.6289 17.8594 20.4844 17.7773 21.3516 17.7773C22.043 17.7773 22.6758 17.8242 23.3438 17.918C24.0586 17.3906 24.8672 16.8398 26.0508 16.3242C27.3633 17.2148 28.8633 17.7891 30.4219 17.7891C33.6562 17.7891 35.1094 17.0859 35.1094 14.0273C35.1094 10.3359 32.4375 7.57031 28.8867 7.58203L25.7461 3.39844C24 1.08984 21.8789 0 19.793 0C18.082 0 15.5391 0.984375 15.5391 2.36719C15.5391 3.30469 17.4375 4.61719 18.9023 5.51953L25.6523 9.64453C25.125 10.1484 24.6562 10.418 24.0703 10.418C23.168 10.418 22.2188 9.86719 20.8008 9.04688C17.1914 6.96094 14.4023 5.00391 10.6523 5.00391C6.75 5.00391 3.78516 7.24219 2.20312 11.6016C0.949219 11.6016 0 12.4219 0 13.6289C0 14.9883 1.07812 15.8438 2.55469 15.8438C4.26562 18.2344 7.06641 19.1953 10.3828 19.1953C10.5586 19.1953 10.7344 19.1836 10.9102 19.1836L15.6562 23.1211C16.8398 24.1758 17.5078 24.3516 18.3984 24.3516ZM9.92578 25.2773C12.1875 25.2773 13.5703 24.8438 14.6953 24.0703L11.0625 21.0469C10.8984 21.0586 10.6992 21.082 10.4531 21.082C9.86719 21.082 9 20.9062 7.96875 20.9062C6.65625 20.9062 5.84766 21.6094 5.84766 22.6641C5.84766 24.2344 7.44141 25.2773 9.92578 25.2773ZM30.1523 13.4648C29.625 13.4648 29.2031 13.0195 29.2031 12.5039C29.2031 11.9766 29.6367 11.5078 30.1641 11.5078C30.7031 11.5078 31.125 11.9297 31.125 12.457C31.125 12.9844 30.6914 13.4648 30.1523 13.4648Z" fill="black" fill-opacity="0.85"/>
</svg>
