<svg width="37" height="28" viewBox="0 0 37 28" fill="none" xmlns="http://www.w3.org/2000/svg">
<path d="M24.9961 25.0898C27.4102 25.0898 28.2539 23.8477 28.2539 22.4766C28.2539 19.957 26.0742 18.5859 21.7148 18.5859C20.7305 18.5859 20.168 18.6445 19.7344 18.7031L18.8789 16.6406C17.1094 12.3867 14.2852 10.9336 11.4023 10.9336C10.9336 10.9336 10.3945 10.9453 9.91406 11.0508C9.33984 11.1797 9.11719 11.4844 9.11719 11.8711C9.11719 12.3164 9.44531 12.6094 9.92578 12.5977C10.4297 12.5742 10.7461 12.5156 11.3203 12.5156C13.9805 12.5156 15.8672 13.957 17.5664 17.8008L18.6914 20.4141C19.582 20.2266 20.4258 20.0859 21.7617 20.0859C24.1406 20.0859 26.5195 20.7188 26.5195 22.3359C26.5195 22.957 25.9688 23.3789 24.9961 23.3789C23.8477 23.3789 23.0273 23.0859 22.0078 23.0859C20.5312 23.0859 19.6172 23.3203 18.9609 23.3203C18.4219 23.3203 17.8359 23.2383 17.2383 22.7578L12 18.3398C8.25 18.5039 5.50781 17.5195 3.91406 15.2227C2.71875 15.3633 1.85156 14.9062 1.85156 13.9219C1.85156 13.0312 2.63672 12.4102 3.92578 12.4805C5.13281 8.51953 7.76953 6.67969 11.4141 6.67969C15.2344 6.67969 19.1719 9.76172 22.043 11.3789C22.8164 11.8477 23.6719 12 24.2578 12C25.5352 12 26.5547 11.1914 27.4688 9.55078L19.6641 4.74609C18.832 4.24219 17.6602 3.33984 17.6602 3.02344C17.6602 2.33203 19.2773 1.81641 20.4609 1.81641C22.3125 1.81641 23.8594 2.94141 25.2891 4.65234L28.8867 8.95312C32.1914 8.80078 34.6992 11.332 34.6992 14.5664C34.6992 16.6406 33.7266 17.2734 31.2656 17.2734C29.7305 17.2734 28.043 16.6523 26.5781 15.7266C24.3516 16.2891 22.0195 17.3672 20.168 18.7734L21.4922 19.5469C23.2969 18.5039 25.1484 17.7305 26.2734 17.3203C27.6797 18.2578 29.707 18.8203 31.207 18.8086C34.3711 18.7852 36.293 17.8008 36.293 14.5547C36.293 10.5703 33.2578 7.57031 29.6953 7.53516L27.1523 4.07812C25.1953 1.46484 23.1094 0 20.4375 0C18.3633 0 15.5391 1.14844 15.5391 2.77734C15.5391 4.13672 17.0859 5.10938 18.5977 6.05859C20.3555 7.16016 22.7227 8.53125 24.9258 9.80859C24.6328 10.0781 24.4102 10.1953 24.1172 10.1953C23.7539 10.1953 23.2734 10.0195 22.6523 9.65625C17.918 6.98438 15.082 4.81641 11.4375 4.81641C7.07812 4.81641 3.9375 7.05469 2.44922 11.3438C0.996094 11.6484 0 12.5977 0 14.0625C0 15.8789 1.47656 16.8164 2.98828 16.8984C4.10156 18.7148 7.20703 20.3203 11.2031 19.9922L16.3242 24.2227C17.0039 24.7852 17.7422 25.0898 18.9141 25.0898C19.8984 25.0898 20.6719 24.7617 22.0664 24.7617C23.332 24.7617 23.9766 25.0898 24.9961 25.0898ZM10.6758 26.3555C13.1484 26.3555 15.3633 25.7227 17.1211 23.7656L15.668 22.7812C14.6133 24.0938 12.832 24.7617 10.6172 24.7617C8.97656 24.7617 7.92188 24.1758 7.92188 23.2383C7.92188 22.7695 8.22656 22.4062 8.90625 22.4062C9.57422 22.4062 10.3125 22.5938 11.1211 22.5938C12.5039 22.5938 13.3477 22.4414 14.25 21.5156L12.9844 20.4023C12.375 21 11.9648 21.1172 11.4141 21.1172C10.6406 21.1055 9.89062 20.8594 9 20.8594C7.37109 20.8594 6.23438 21.8086 6.23438 23.2266C6.23438 25.2305 8.00391 26.3555 10.6758 26.3555ZM30.4805 13.8281C31.0664 13.8281 31.5469 13.3477 31.5469 12.7734C31.5469 12.1992 31.0664 11.7188 30.4805 11.7188C29.9062 11.7188 29.4258 12.1992 29.4258 12.7734C29.4258 13.3477 29.9062 13.8281 30.4805 13.8281Z" fill="black" fill-opacity="0.85"/>
</svg>
