<svg width="25" height="23" viewBox="0 0 25 23" fill="none" xmlns="http://www.w3.org/2000/svg">
<path d="M3.19922 22.2656H21.3633C23.3555 22.2656 24.5625 20.8828 24.5625 19.0898C24.5625 18.5391 24.3984 17.9648 24.1055 17.4492L15.0117 1.60547C14.4023 0.539062 13.3594 0 12.2812 0C11.2031 0 10.1484 0.539062 9.55078 1.60547L0.457031 17.4492C0.140625 17.9766 0 18.5391 0 19.0898C0 20.8828 1.20703 22.2656 3.19922 22.2656Z" fill="#FFCC00"/>
<path d="M4.66394 18.9023C4.17176 18.9023 3.8905 18.457 4.14832 17.9883L11.7538 4.71094C11.9999 4.26562 12.5507 4.26562 12.7968 4.71094L20.4022 17.9883C20.6483 18.4336 20.3788 18.9023 19.8866 18.9023H4.66394ZM7.19519 17.0039H17.3554C17.4843 17.0039 17.5663 16.875 17.496 16.7344L12.4218 7.88672C12.3632 7.75781 12.1991 7.75781 12.1405 7.88672L7.05457 16.7227C6.98426 16.8633 7.06629 17.0039 7.19519 17.0039Z" fill="black" fill-opacity="0.85"/>
</svg>
