<svg width="33" height="24" viewBox="0 0 33 24" fill="none" xmlns="http://www.w3.org/2000/svg">
<path d="M0 5.29688C0 5.82421 0.433594 6.23438 0.9375 6.23438H12.8203C12.8203 5.3203 12.8203 4.83983 12.8203 4.35938H0.9375C0.433594 4.35938 0 4.79296 0 5.29688ZM0 9.64453C0 10.1602 0.445312 10.582 0.9375 10.582L12.8203 10.5938C12.8203 9.94921 12.8203 9.32812 12.8203 8.70703H0.9375C0.433594 8.70703 0 9.14062 0 9.64453ZM0 14.0156C0 14.5195 0.433594 14.9297 0.9375 14.9297H12.8203C12.8203 14.3203 12.8203 13.6992 12.8203 13.0664H0.9375C0.433594 13.0664 0 13.5 0 14.0156ZM0 18.3633C0 18.8672 0.433594 19.2773 0.9375 19.2773L12.8203 19.2891C12.8203 18.8438 12.8203 17.9648 12.8203 17.4258L0.9375 17.4141C0.433594 17.4141 0 17.8477 0 18.3633Z" fill="#007AFF"/>
<path d="M9.15234 11.8359C9.15234 14.1562 9.33984 16.5234 10.0195 18.9141C10.9922 22.2773 13.1953 23.6484 16.8633 23.6484H17.5195C25.3828 23.6484 32.543 18.3984 32.543 11.8359C32.543 5.28516 25.4062 0 17.5195 0H16.8633C13.207 0 11.0039 1.39453 10.0195 4.73438C9.33984 7.14844 9.15234 9.51562 9.15234 11.8359Z" fill="white"/>
<path d="M11.25 11.8359C11.25 14.0391 11.4258 16.1719 12.0352 18.3398C12.7266 20.707 14.0625 21.5508 16.8633 21.5508H17.5195C24.3633 21.5508 30.4453 17.0859 30.4453 11.8359C30.4453 6.58594 24.3633 2.09766 17.5195 2.09766H16.8633C14.0742 2.09766 12.7383 2.95312 12.0352 5.32031C11.4258 7.5 11.25 9.63281 11.25 11.8359ZM13.1367 11.8359C13.1367 9.375 13.3242 7.59375 13.8281 5.84766C14.2383 4.47656 15.082 3.96094 16.8633 3.96094H17.5195C23.2852 3.96094 28.5703 7.65234 28.5703 11.8359C28.5703 16.0078 23.2852 19.6875 17.5195 19.6875H16.8633C15.0469 19.6875 14.2383 19.1836 13.8281 17.8242C13.3242 16.0664 13.1367 14.2969 13.1367 11.8359Z" fill="black" fill-opacity="0.85"/>
</svg>
