<svg width="27" height="26" viewBox="0 0 27 26" fill="none" xmlns="http://www.w3.org/2000/svg">
<path d="M8.00781 19.7114C8.00781 22.9575 10.0234 25.02 13.1875 25.02C15.5312 25.02 17.289 23.977 18.4023 21.9848L19.457 20.0981C21.9297 15.5864 26.0078 14.9887 26.0078 9.18799C26.0078 3.6919 22.457 0.0239258 17.1367 0.0239258C11.6875 0.0239258 8.00781 3.71534 8.00781 9.22315V19.7114ZM9.77734 19.5942V9.22315C9.77734 4.75831 12.7304 1.79346 17.1367 1.79346C21.4023 1.79346 24.2383 4.75831 24.2383 9.18799C24.2383 14.0395 20.4297 14.8833 17.875 19.313L16.8554 21.0473C16.0234 22.5005 14.8633 23.2036 13.2695 23.2036C11.0898 23.2036 9.77734 21.8325 9.77734 19.5942ZM11.6172 16.313C11.6172 17.5317 12.5312 18.3286 13.9023 18.3286C15.6718 18.3169 16.8789 16.8169 16.8789 14.9419C16.8789 11.5669 13.3867 10.9927 13.3867 8.61377C13.3867 6.77393 14.8867 5.42627 17.125 5.42627C19.3984 5.42627 20.8633 6.89112 20.8633 9.16455C20.8633 9.64502 21.2734 10.0434 21.7539 10.0434C22.2344 10.0434 22.6328 9.64502 22.6328 9.16455C22.6328 5.85987 20.4297 3.65674 17.125 3.65674C13.832 3.65674 11.6172 5.71924 11.6172 8.61377C11.6172 11.1567 14.0195 11.9887 14.0195 13.1372C14.0195 14.3911 11.6172 14.1216 11.6172 16.313Z" fill="#007AFF"/>
<path d="M1.98438 5.33252C3.06251 5.33252 3.94141 4.45362 3.94141 3.37549C3.94141 2.28565 3.06251 1.40674 1.98438 1.40674C0.894531 1.40674 0.015625 2.28565 0.015625 3.37549C0.015625 4.45362 0.894531 5.33252 1.98438 5.33252Z" fill="black" fill-opacity="0.85"/>
<path d="M1.98438 11.4262C3.06251 11.4262 3.94141 10.5473 3.94141 9.46924C3.94141 8.3794 3.06251 7.50049 1.98438 7.50049C0.894531 7.50049 0.015625 8.3794 0.015625 9.46924C0.015625 10.5473 0.894531 11.4262 1.98438 11.4262Z" fill="black" fill-opacity="0.85"/>
<path d="M1.98438 17.5434C3.06251 17.5434 3.94141 16.6645 3.94141 15.5864C3.94141 14.4966 3.06251 13.6177 1.98438 13.6177C0.894531 13.6177 0.015625 14.4966 0.015625 15.5864C0.015625 16.6645 0.894531 17.5434 1.98438 17.5434Z" fill="black" fill-opacity="0.85"/>
<path d="M1.98438 23.6372C3.06251 23.6372 3.94141 22.7583 3.94141 21.6801C3.94141 20.5903 3.06251 19.7114 1.98438 19.7114C0.894531 19.7114 0.015625 20.5903 0.015625 21.6801C0.015625 22.7583 0.894531 23.6372 1.98438 23.6372Z" fill="black" fill-opacity="0.85"/>
</svg>
