<svg width="19" height="28" viewBox="0 0 19 28" fill="none" xmlns="http://www.w3.org/2000/svg">
<path d="M0.0214844 19.7114C0.0214844 22.9458 2.0371 25.0083 5.18945 25.0083C7.54492 25.0083 9.30273 23.977 10.416 21.9848L11.4707 20.0981C13.9434 15.5747 18.0215 14.9887 18.0215 9.17627C18.0215 3.6919 14.4707 0.0239258 9.15039 0.0239258C3.70117 0.0239258 0.0214844 3.71534 0.0214844 9.22315V19.7114ZM1.79101 19.5942V9.22315C1.79101 4.75831 4.73242 1.79346 9.15039 1.79346C13.416 1.79346 16.252 4.75831 16.252 9.17627C16.252 14.0395 12.4434 14.8833 9.88867 19.3012L8.86914 21.0473C8.0371 22.5005 6.87695 23.1919 5.27148 23.1919C3.10351 23.1919 1.79101 21.8325 1.79101 19.5942Z" fill="#007AFF"/>
<path d="M3.63086 16.3012C3.63086 17.52 4.54492 18.3286 5.91601 18.3286C7.68554 18.3169 8.89257 16.8169 8.89257 14.9301C8.89257 11.5551 5.40039 10.9927 5.40039 8.61377C5.40039 6.77393 6.90039 5.41455 9.13867 5.41455C11.4121 5.41455 12.877 6.89112 12.877 9.15284C12.877 9.63331 13.2754 10.0434 13.7559 10.0434C14.2363 10.0434 14.6465 9.63331 14.6465 9.15284C14.6465 5.85987 12.4434 3.64502 9.13867 3.64502C5.8457 3.64502 3.63086 5.71924 3.63086 8.61377C3.63086 11.1567 6.0332 11.9887 6.0332 13.1255C6.0332 14.3911 3.63086 14.1098 3.63086 16.3012Z" fill="black" fill-opacity="0.85"/>
</svg>
