<svg width="26" height="26" viewBox="0 0 26 26" fill="none" xmlns="http://www.w3.org/2000/svg">
<path d="M7.99219 19.6875C7.99219 22.9336 10.0078 24.9961 13.1719 24.9961C15.5156 24.9961 17.2734 23.9531 18.3867 21.9609L19.4414 20.0742C21.9141 15.5625 25.9922 14.9648 25.9922 9.16406C25.9922 3.66797 22.4414 0 17.1211 0C11.6719 0 7.99219 3.69141 7.99219 9.19922V19.6875ZM11.4258 16.4531C11.4258 14.1914 13.9102 14.4609 13.9102 13.1719C13.9102 11.9883 11.4258 11.1328 11.4258 8.51953C11.4258 5.53125 13.7109 3.39844 17.1094 3.39844C20.5195 3.39844 22.793 5.67188 22.793 9.08203C22.793 9.58594 22.3828 9.99609 21.8789 9.99609C21.3867 9.99609 20.9531 9.58594 20.9531 9.08203C20.9531 6.75 19.4531 5.23828 17.1094 5.23828C14.8008 5.23828 13.2656 6.62109 13.2656 8.51953C13.2656 10.9688 16.8633 11.543 16.8633 15.0352C16.8633 16.9688 15.6211 18.5273 13.793 18.5391C12.375 18.5391 11.4258 17.707 11.4258 16.4531Z" fill="#007AFF"/>
<path d="M1.96875 5.30859C3.04688 5.30859 3.92578 4.42969 3.92578 3.35156C3.92578 2.26172 3.04688 1.38281 1.96875 1.38281C0.878906 1.38281 0 2.26172 0 3.35156C0 4.42969 0.878906 5.30859 1.96875 5.30859Z" fill="black" fill-opacity="0.85"/>
<path d="M1.96875 11.4023C3.04688 11.4023 3.92578 10.5234 3.92578 9.44531C3.92578 8.35547 3.04688 7.47656 1.96875 7.47656C0.878906 7.47656 0 8.35547 0 9.44531C0 10.5234 0.878906 11.4023 1.96875 11.4023Z" fill="black" fill-opacity="0.85"/>
<path d="M1.96875 17.5195C3.04688 17.5195 3.92578 16.6406 3.92578 15.5625C3.92578 14.4727 3.04688 13.5938 1.96875 13.5938C0.878906 13.5938 0 14.4727 0 15.5625C0 16.6406 0.878906 17.5195 1.96875 17.5195Z" fill="black" fill-opacity="0.85"/>
<path d="M1.96875 23.6133C3.04688 23.6133 3.92578 22.7344 3.92578 21.6562C3.92578 20.5664 3.04688 19.6875 1.96875 19.6875C0.878906 19.6875 0 20.5664 0 21.6562C0 22.7344 0.878906 23.6133 1.96875 23.6133Z" fill="black" fill-opacity="0.85"/>
</svg>
