<svg width="28" height="29" viewBox="0 0 28 29" fill="none" xmlns="http://www.w3.org/2000/svg">
<path d="M2.66016 28.1602H9.92578C11.543 28.1602 12.5859 27.1289 12.5859 25.5469V2.61328C12.5859 1.03125 11.543 0 9.92578 0H2.66016C1.04297 0 0 1.03125 0 2.61328V25.5469C0 27.1289 1.04297 28.1602 2.66016 28.1602ZM9.375 9.14062C9.02344 9.14062 8.76562 8.85938 8.76562 8.51953V3.75C8.76562 3.41016 9.02344 3.12891 9.375 3.12891C9.71484 3.12891 9.98438 3.41016 9.98438 3.75V8.51953C9.98438 8.85938 9.71484 9.14062 9.375 9.14062ZM6.89062 9.14062C6.53906 9.14062 6.25781 8.85938 6.25781 8.51953V3.75C6.25781 3.41016 6.53906 3.12891 6.89062 3.12891C7.21875 3.12891 7.48828 3.41016 7.48828 3.75V8.51953C7.48828 8.85938 7.21875 9.14062 6.89062 9.14062ZM9.375 17.0391C9.02344 17.0391 8.76562 16.7695 8.76562 16.418V11.6484C8.76562 11.3086 9.02344 11.0391 9.375 11.0391C9.71484 11.0391 9.98438 11.3086 9.98438 11.6484V16.418C9.98438 16.7695 9.71484 17.0391 9.375 17.0391ZM6.89062 17.0391C6.53906 17.0391 6.25781 16.7695 6.25781 16.418V11.6484C6.25781 11.3086 6.53906 11.0391 6.89062 11.0391C7.21875 11.0391 7.48828 11.3086 7.48828 11.6484V16.418C7.48828 16.7695 7.21875 17.0391 6.89062 17.0391ZM9.375 24.9609C9.02344 24.9609 8.76562 24.6797 8.76562 24.3516V19.582C8.76562 19.2305 9.02344 18.9492 9.375 18.9492C9.71484 18.9492 9.98438 19.2305 9.98438 19.582V24.3516C9.98438 24.6797 9.71484 24.9609 9.375 24.9609ZM6.89062 24.9609C6.53906 24.9609 6.25781 24.6797 6.25781 24.3516V19.582C6.25781 19.2305 6.53906 18.9492 6.89062 18.9492C7.21875 18.9492 7.48828 19.2305 7.48828 19.582V24.3516C7.48828 24.6797 7.21875 24.9609 6.89062 24.9609Z" fill="#007AFF"/>
<path d="M17.2149 12.668C20.3439 12.668 21.961 10.125 24.6915 10.125C25.3243 10.125 25.8634 10.2539 26.5313 10.6289C26.9532 10.8633 27.3282 10.6992 27.5157 10.4297C27.7501 10.0898 27.7267 9.57422 27.211 9.28125C26.4376 8.82422 25.5939 8.60156 24.6915 8.60156C21.5157 8.60156 19.8985 11.1562 17.2149 11.1562C16.5821 11.1562 16.0431 11.0156 15.3634 10.6289C14.9649 10.4062 14.5782 10.5586 14.379 10.8633C14.1681 11.1914 14.1915 11.707 14.6837 11.9883C15.4571 12.4688 16.3126 12.668 17.2149 12.668ZM17.2267 16.1133C20.3439 16.1133 21.9728 13.5703 24.6915 13.5703C25.336 13.5703 25.8751 13.6992 26.5431 14.0742C26.9532 14.3086 27.3399 14.1445 27.5274 13.875C27.7501 13.5352 27.7384 13.0195 27.2345 12.7266C26.4493 12.2695 25.5939 12.0469 24.6915 12.0469C21.5274 12.0469 19.9103 14.6016 17.2267 14.6016C16.5821 14.6016 16.0431 14.4609 15.3751 14.0859C14.9767 13.8516 14.5782 14.0039 14.379 14.3086C14.1681 14.6367 14.1915 15.1523 14.6954 15.4336C15.4689 15.9141 16.3243 16.1133 17.2267 16.1133ZM17.2149 19.5586C20.3439 19.5586 21.961 17.0156 24.6915 17.0156C25.3243 17.0156 25.8634 17.1445 26.5313 17.5312C26.9532 17.7656 27.3282 17.5898 27.5157 17.3203C27.7501 16.9805 27.7267 16.4648 27.211 16.1719C26.4376 15.7148 25.5939 15.4922 24.6915 15.4922C21.5157 15.4922 19.8985 18.0469 17.2149 18.0469C16.5821 18.0469 16.0431 17.9062 15.3634 17.5312C14.9649 17.2969 14.5782 17.4492 14.379 17.7539C14.1681 18.082 14.1915 18.6094 14.6837 18.8906C15.4571 19.3594 16.3126 19.5586 17.2149 19.5586Z" fill="black" fill-opacity="0.85"/>
</svg>
