<svg width="34" height="19" viewBox="0 0 34 19" fill="none" xmlns="http://www.w3.org/2000/svg">
<path d="M3.33204 9.97266H9.90626C10.2812 9.97266 10.4687 9.78516 10.6094 9.48047L11.3711 7.80469L13.4219 12.2578C13.6679 12.7734 14.3594 12.7734 14.6172 12.2227L16.9961 6.94922L19.375 12.2227C19.6328 12.7734 20.3242 12.7734 20.5586 12.2578L22.6094 7.80469L23.3828 9.48047C23.5234 9.78516 23.6992 9.97266 24.0742 9.97266H30.6601L30.7304 8.36719H23.7461L25.1289 9.59766L23.3125 5.67188C23.0078 5.01562 22.1992 5.02734 21.9179 5.63672L19.9609 9.83203L17.5937 4.55859C17.3242 4.00781 16.6562 4.00781 16.3984 4.55859L14.0195 9.83203L12.0625 5.63672C11.7812 5.02734 10.9844 5.01562 10.6797 5.67188L8.86329 9.59766L10.2461 8.36719H3.26172L3.33204 9.97266Z" fill="black" fill-opacity="0.85"/>
<path d="M16.9958 16.0312C19.3044 16.0312 21.9997 16.7344 24.0036 17.7773C24.5426 18.0703 25.1403 17.9531 25.4919 17.4961L33.4723 7.33594C34.2575 6.32812 34.1286 5.26172 33.1325 4.47656C29.863 1.95703 23.5934 0 16.9958 0C10.3981 0 4.12858 1.95703 0.847332 4.47656C-0.148761 5.26172 -0.277668 6.32812 0.519207 7.33594L8.49968 17.4961C8.85124 17.9531 9.43718 18.0703 9.97624 17.7773C11.9801 16.7344 14.6872 16.0312 16.9958 16.0312ZM16.9958 14.1445C14.8512 14.1445 12.3786 14.707 9.98796 15.6914C9.69499 15.8086 9.56608 15.7852 9.33171 15.4922L2.39421 6.65625C2.17155 6.36328 2.20671 6.08203 2.52311 5.87109C6.55436 3.32812 11.7223 1.88672 16.9958 1.88672C22.2692 1.88672 27.4372 3.32812 31.4684 5.87109C31.7848 6.08203 31.82 6.36328 31.5856 6.65625L24.6598 15.4922C24.4255 15.7852 24.2966 15.8086 24.0036 15.6914C21.613 14.707 19.1286 14.1445 16.9958 14.1445Z" fill="#007AFF"/>
</svg>
