<svg width="31" height="31" viewBox="0 0 31 31" fill="none" xmlns="http://www.w3.org/2000/svg">
<path d="M2.69531 21.9727H13.4648C15.2344 21.9727 16.1602 21.0352 16.1602 19.2539V4.19531C16.1602 2.41406 15.2344 1.47656 13.4648 1.47656H2.69531C0.925781 1.47656 0 2.41406 0 4.19531V19.2539C0 21.0352 0.925781 21.9727 2.69531 21.9727ZM8.07422 8.94141C6.71484 8.94141 5.61328 7.82812 5.61328 6.48047C5.61328 5.12109 6.71484 4.01953 8.07422 4.01953C9.43359 4.01953 10.5469 5.12109 10.5469 6.48047C10.5469 7.82812 9.43359 8.94141 8.07422 8.94141ZM8.07422 19.4648C5.61328 19.4648 3.60938 17.4727 3.60938 15C3.60938 12.5273 5.61328 10.5234 8.07422 10.5234C10.5352 10.5234 12.5391 12.5273 12.5391 15C12.5391 17.4727 10.5352 19.4648 8.07422 19.4648ZM8.07422 7.73438C8.76562 7.73438 9.32812 7.16016 9.32812 6.48047C9.32812 5.78906 8.76562 5.23828 8.07422 5.23828C7.38281 5.23828 6.83203 5.78906 6.83203 6.48047C6.83203 7.16016 7.38281 7.73438 8.07422 7.73438ZM8.07422 16.8633C9.11719 16.8633 9.96094 16.0195 9.96094 14.9766C9.96094 13.9336 9.11719 13.0898 8.07422 13.0898C7.03125 13.0898 6.19922 13.9336 6.19922 14.9766C6.19922 16.0195 7.03125 16.8633 8.07422 16.8633Z" fill="black" fill-opacity="0.85"/>
<path d="M8.07421 8.94141C6.71483 8.94141 5.61327 7.82812 5.61327 6.48047C5.61327 5.12109 6.71483 4.01953 8.07421 4.01953C9.43359 4.01953 10.5469 5.12109 10.5469 6.48047C10.5469 7.82812 9.43359 8.94141 8.07421 8.94141ZM8.07421 19.4648C5.61328 19.4648 3.60938 17.4727 3.60938 15C3.60938 12.5273 5.61328 10.5234 8.07421 10.5234C10.5352 10.5234 12.5391 12.5273 12.5391 15C12.5391 17.4727 10.5352 19.4648 8.07421 19.4648ZM8.07421 7.73438C8.76561 7.73438 9.32812 7.16016 9.32812 6.48047C9.32812 5.78906 8.76561 5.23828 8.07421 5.23828C7.3828 5.23828 6.83202 5.78906 6.83202 6.48047C6.83202 7.16016 7.3828 7.73438 8.07421 7.73438ZM8.07421 16.8633C9.11718 16.8633 9.96094 16.0195 9.96094 14.9766C9.96094 13.9336 9.11718 13.0898 8.07421 13.0898C7.03124 13.0898 6.19922 13.9336 6.19922 14.9766C6.19922 16.0195 7.03124 16.8633 8.07421 16.8633Z" fill="#FFCC00"/>
<path d="M18.9844 30.4102C26.2266 30.4102 30.0117 27.5273 30.0117 21.293V12.375C30.0117 9.84375 29.3672 8.00391 28.3008 6.65625C26.3906 4.26562 23.4375 3.15234 18.9844 3.15234C14.5312 3.15234 11.5781 4.26562 9.66797 6.65625C8.60156 8.00391 7.95703 9.84375 7.95703 12.375V21.293C7.95703 27.5273 11.7422 30.4102 18.9844 30.4102Z" fill="white"/>
<path d="M18.9844 28.8165C25.4414 28.8165 28.4062 26.5196 28.4062 21.2931V12.3751C28.4062 10.172 27.8789 8.68367 27.0469 7.62899C26.7656 7.27742 26.3203 7.25399 25.9688 7.53524C24.8555 8.51961 21.9141 9.36336 18.9844 9.36336C16.0547 9.36336 13.1133 8.51961 12 7.53524C11.6484 7.25399 11.1914 7.27742 10.9102 7.62899C10.0898 8.68367 9.55078 10.172 9.55078 12.3751V21.2931C9.55078 26.5196 12.5273 28.8165 18.9844 28.8165Z" fill="#007AFF"/>
<path d="M18.9844 7.75781C21.9844 7.75781 24.3984 7.10156 24.3984 6.25781C24.3984 5.39062 21.9844 4.74609 18.9844 4.74609C15.9727 4.74609 13.5586 5.39062 13.5586 6.25781C13.5586 7.10156 15.9727 7.75781 18.9844 7.75781Z" fill="black" fill-opacity="0.85"/>
</svg>
