<svg width="35" height="16" viewBox="0 0 35 16" fill="none" xmlns="http://www.w3.org/2000/svg">
<path d="M3.62109 13.6523H31.3242C33.7266 13.6523 34.957 12.4336 34.957 10.0781V3.57422C34.957 1.21875 33.7266 0 31.3242 0H3.62109C1.24219 0 0 1.21875 0 3.57422V10.0781C0 12.4336 1.24219 13.6523 3.62109 13.6523ZM6.64453 9.43359C5.17969 9.43359 4.00781 8.26172 4.00781 6.80859C4.00781 5.34375 5.17969 4.17188 6.64453 4.17188C8.08594 4.17188 9.25781 5.34375 9.25781 6.80859C9.25781 8.26172 8.08594 9.43359 6.64453 9.43359ZM12.6328 9.44531C12.0352 9.44531 11.6367 9.05859 11.6367 8.46094V5.20312C11.6367 4.60547 12.0352 4.20703 12.6328 4.20703H22.3125C22.9219 4.20703 23.3086 4.60547 23.3086 5.20312V8.46094C23.3086 9.05859 22.9219 9.44531 22.3125 9.44531H12.6328ZM28.3125 9.43359C26.8711 9.43359 25.6992 8.26172 25.6992 6.80859C25.6992 5.34375 26.8711 4.17188 28.3125 4.17188C29.7656 4.17188 30.9375 5.34375 30.9375 6.80859C30.9375 8.26172 29.7656 9.43359 28.3125 9.43359ZM8.68359 12.9258H2.60156V14.6484C2.60156 15.2227 2.98828 15.6094 3.5625 15.6094H7.72266C8.30859 15.6094 8.68359 15.2227 8.68359 14.6484V12.9258ZM26.2734 12.9258V14.6484C26.2734 15.2227 26.6484 15.6094 27.2344 15.6094H31.3828C31.9688 15.6094 32.3555 15.2227 32.3555 14.6484V12.9258H26.2734Z" fill="black" fill-opacity="0.85"/>
</svg>
