<svg width="29" height="31" viewBox="0 0 29 31" fill="none" xmlns="http://www.w3.org/2000/svg">
<path d="M2.63672 21.1641H12.3281C14.0625 21.1641 14.9648 20.2617 14.9648 18.5039V4.23047C14.9648 2.49609 14.0625 1.59375 12.3281 1.59375H2.63672C0.914062 1.59375 0 2.49609 0 4.23047V18.5039C0 20.2617 0.914062 21.1641 2.63672 21.1641ZM7.48828 8.83594C6.28125 8.83594 5.33203 7.88672 5.33203 6.69141C5.33203 5.46094 6.31641 4.57031 7.48828 4.57031C8.66016 4.57031 9.63281 5.46094 9.63281 6.69141C9.63281 7.88672 8.68359 8.83594 7.48828 8.83594ZM7.48828 18.668C5.29688 18.668 3.50391 16.8984 3.50391 14.6836C3.50391 12.4922 5.29688 10.6992 7.48828 10.6992C9.67969 10.6992 11.4727 12.4922 11.4727 14.6836C11.4727 16.8984 9.66797 18.668 7.48828 18.668ZM7.48828 7.81641C8.10938 7.81641 8.58984 7.32422 8.58984 6.69141C8.58984 6.03516 8.10938 5.57812 7.48828 5.57812C6.85547 5.57812 6.375 6.03516 6.375 6.69141C6.375 7.32422 6.85547 7.81641 7.48828 7.81641ZM7.48828 16.4062C8.42578 16.4062 9.1875 15.6445 9.1875 14.6953C9.1875 13.7461 8.42578 12.9844 7.48828 12.9844C6.53906 12.9844 5.77734 13.7461 5.77734 14.6953C5.77734 15.6445 6.53906 16.4062 7.48828 16.4062Z" fill="black" fill-opacity="0.85"/>
<path d="M7.48828 8.83594C6.28125 8.83594 5.33203 7.88672 5.33203 6.69141C5.33203 5.46094 6.31641 4.57031 7.48828 4.57031C8.66016 4.57031 9.63281 5.46094 9.63281 6.69141C9.63281 7.88672 8.68359 8.83594 7.48828 8.83594ZM7.48828 18.668C5.29688 18.668 3.50391 16.8984 3.50391 14.6836C3.50391 12.4922 5.29688 10.6992 7.48828 10.6992C9.67969 10.6992 11.4727 12.4922 11.4727 14.6836C11.4727 16.8984 9.66797 18.668 7.48828 18.668ZM7.48828 7.81641C8.10938 7.81641 8.58984 7.32422 8.58984 6.69141C8.58984 6.03516 8.10938 5.57812 7.48828 5.57812C6.85547 5.57812 6.375 6.03516 6.375 6.69141C6.375 7.32422 6.85547 7.81641 7.48828 7.81641ZM7.48828 16.4062C8.42578 16.4062 9.1875 15.6445 9.1875 14.6953C9.1875 13.7461 8.42578 12.9844 7.48828 12.9844C6.53906 12.9844 5.77734 13.7461 5.77734 14.6953C5.77734 15.6445 6.53906 16.4062 7.48828 16.4062Z" fill="#FFCC00"/>
<path d="M7.94531 8.64844V25.4062C7.94531 28.4062 9.71484 30.1758 12.6797 30.1758H23.543C26.5195 30.1758 28.2773 28.3945 28.2773 25.4062V8.64844C28.2773 5.64844 26.5312 3.87891 23.543 3.87891H12.6797C9.70312 3.87891 7.94531 5.63672 7.94531 8.64844Z" fill="white"/>
<path d="M9.55078 8.64844V25.4062C9.55078 27.5156 10.6055 28.5703 12.6797 28.5703H23.543C25.6289 28.5703 26.6719 27.5156 26.6719 25.4062V8.64844C26.6719 6.52734 25.6289 5.47266 23.543 5.47266H12.6797C10.6055 5.47266 9.55078 6.52734 9.55078 8.64844ZM18.1055 13.9219C16.6641 13.9219 15.5039 12.7734 15.5039 11.3086C15.5039 9.85547 16.6641 8.70703 18.1055 8.70703C19.5586 8.70703 20.7188 9.85547 20.7188 11.3086C20.7188 12.7617 19.5586 13.9219 18.1055 13.9219ZM18.1055 25.3359C15.5156 25.3359 13.418 23.2617 13.418 20.6484C13.418 18.0234 15.5156 15.9492 18.1055 15.9492C20.707 15.9492 22.8047 18.0234 22.8047 20.6484C22.8047 23.2617 20.707 25.3359 18.1055 25.3359ZM18.1055 12.6445C18.8555 12.6445 19.4414 12.0352 19.4414 11.3086C19.4414 10.5703 18.8438 9.98438 18.1055 9.98438C17.3672 9.98438 16.7812 10.5469 16.7812 11.3086C16.7812 12.0352 17.3672 12.6445 18.1055 12.6445ZM18.1055 22.6406C19.2422 22.6406 20.0977 21.75 20.0977 20.6484C20.0977 19.5117 19.2422 18.6445 18.1055 18.6445C16.9922 18.6445 16.125 19.5117 16.125 20.6484C16.125 21.75 17.0156 22.6406 18.1055 22.6406Z" fill="black" fill-opacity="0.85"/>
<path d="M18.1055 13.9219C16.6641 13.9219 15.5039 12.7734 15.5039 11.3086C15.5039 9.85547 16.6641 8.70703 18.1055 8.70703C19.5586 8.70703 20.7188 9.85547 20.7188 11.3086C20.7188 12.7617 19.5586 13.9219 18.1055 13.9219ZM18.1055 25.3359C15.5156 25.3359 13.418 23.2617 13.418 20.6484C13.418 18.0234 15.5156 15.9492 18.1055 15.9492C20.707 15.9492 22.8047 18.0234 22.8047 20.6484C22.8047 23.2617 20.707 25.3359 18.1055 25.3359ZM18.1055 12.6445C18.8555 12.6445 19.4414 12.0352 19.4414 11.3086C19.4414 10.5703 18.8438 9.98438 18.1055 9.98438C17.3672 9.98438 16.7812 10.5469 16.7812 11.3086C16.7812 12.0352 17.3672 12.6445 18.1055 12.6445ZM18.1055 22.6406C19.2422 22.6406 20.0977 21.75 20.0977 20.6484C20.0977 19.5117 19.2422 18.6445 18.1055 18.6445C16.9922 18.6445 16.125 19.5117 16.125 20.6484C16.125 21.75 17.0156 22.6406 18.1055 22.6406Z" fill="#FFCC00"/>
</svg>
