<svg width="33" height="30" viewBox="0 0 33 30" fill="none" xmlns="http://www.w3.org/2000/svg">
<path d="M2.69531 21.375H13.4648C15.2344 21.375 16.1602 20.4375 16.1602 18.6562V3.59766C16.1602 1.81641 15.2344 0.878906 13.4648 0.878906H2.69531C0.925781 0.878906 0 1.81641 0 3.59766V18.6562C0 20.4375 0.925781 21.375 2.69531 21.375ZM8.07422 8.34375C6.71484 8.34375 5.61328 7.23047 5.61328 5.88281C5.61328 4.52344 6.71484 3.42188 8.07422 3.42188C9.43359 3.42188 10.5469 4.52344 10.5469 5.88281C10.5469 7.23047 9.43359 8.34375 8.07422 8.34375ZM8.07422 18.8672C5.61328 18.8672 3.60938 16.875 3.60938 14.4023C3.60938 11.9297 5.61328 9.92578 8.07422 9.92578C10.5352 9.92578 12.5391 11.9297 12.5391 14.4023C12.5391 16.875 10.5352 18.8672 8.07422 18.8672ZM8.07422 7.13672C8.76562 7.13672 9.32812 6.5625 9.32812 5.88281C9.32812 5.19141 8.76562 4.64062 8.07422 4.64062C7.38281 4.64062 6.83203 5.19141 6.83203 5.88281C6.83203 6.5625 7.38281 7.13672 8.07422 7.13672ZM8.07422 16.2656C9.11719 16.2656 9.96094 15.4219 9.96094 14.3789C9.96094 13.3359 9.11719 12.4922 8.07422 12.4922C7.03125 12.4922 6.19922 13.3359 6.19922 14.3789C6.19922 15.4219 7.03125 16.2656 8.07422 16.2656Z" fill="black" fill-opacity="0.85"/>
<path d="M8.07421 8.34375C6.71483 8.34375 5.61327 7.23046 5.61327 5.88281C5.61327 4.52344 6.71483 3.42188 8.07421 3.42188C9.43359 3.42188 10.5469 4.52344 10.5469 5.88281C10.5469 7.23046 9.43359 8.34375 8.07421 8.34375ZM8.07421 18.8672C5.61328 18.8672 3.60938 16.875 3.60938 14.4023C3.60938 11.9297 5.61328 9.92578 8.07421 9.92578C10.5352 9.92578 12.5391 11.9297 12.5391 14.4023C12.5391 16.875 10.5352 18.8672 8.07421 18.8672ZM8.07421 7.13672C8.76561 7.13672 9.32812 6.5625 9.32812 5.88281C9.32812 5.19141 8.76561 4.64062 8.07421 4.64062C7.3828 4.64062 6.83202 5.19141 6.83202 5.88281C6.83202 6.5625 7.3828 7.13672 8.07421 7.13672ZM8.07421 16.2656C9.11718 16.2656 9.96094 15.4219 9.96094 14.3789C9.96094 13.3359 9.11718 12.4922 8.07421 12.4922C7.03124 12.4922 6.19922 13.3359 6.19922 14.3789C6.19922 15.4219 7.03124 16.2656 8.07421 16.2656Z" fill="#FFCC00"/>
<path d="M20.0977 29.2148C24.375 29.2148 26.4258 28.5938 28.3359 26.8242C30.8789 24.5156 32.3438 21.1523 32.3438 17.6367C32.3438 14.7891 31.3711 12.0469 29.6016 10.0312C27.5977 7.57031 25.0547 6.69141 20.0977 6.69141C15.5977 6.69141 12.4102 7.81641 10.6055 10.0312C8.82422 12.0469 7.85156 14.7773 7.85156 17.6367C7.85156 21.1523 9.31641 24.5156 11.8594 26.8242C13.7695 28.5938 15.8203 29.2148 20.0977 29.2148Z" fill="white"/>
<path d="M20.0977 27.4805C23.9766 27.4805 25.6172 26.9883 27.1523 25.5469C29.3203 23.5664 30.6094 20.6836 30.6094 17.6367C30.6094 15.1289 29.7422 12.7969 28.0781 10.8867C27.6914 10.3945 27.2812 10.3711 26.8477 10.6641C25.2656 11.8711 23.543 12.4922 20.0977 12.4922C16.6523 12.4922 14.918 11.8711 13.3477 10.6641C12.9258 10.3711 12.5039 10.3945 12.1055 10.8867C10.4531 12.7969 9.58594 15.1289 9.58594 17.6367C9.58594 20.6836 10.8633 23.5664 13.0312 25.5469C14.5781 26.9883 16.2305 27.4805 20.0977 27.4805Z" fill="#007AFF"/>
<path d="M20.0977 11.0156C23.0273 11.0156 25.1133 10.4297 25.1133 9.65625C25.1133 8.87109 23.0273 8.29688 20.0977 8.29688C17.1562 8.29688 15.082 8.87109 15.082 9.65625C15.082 10.4297 17.1562 11.0156 20.0977 11.0156Z" fill="black" fill-opacity="0.85"/>
</svg>
