<svg width="18" height="25" viewBox="0 0 18 25" fill="none" xmlns="http://www.w3.org/2000/svg">
<path d="M0 3.32812V20.9297C0 23.1445 1.10156 24.2578 3.29297 24.2578H14.6836C16.875 24.2578 17.9648 23.1445 17.9648 20.9297V3.32812C17.9648 1.11328 16.875 0 14.6836 0H3.29297C1.10156 0 0 1.11328 0 3.32812ZM8.98828 20.8594C6.25781 20.8594 4.05469 18.6797 4.05469 15.9375C4.05469 13.1836 6.25781 10.9922 8.98828 11.0039C11.7188 11.0156 13.9219 13.1836 13.9219 15.9375C13.9219 18.6797 11.7188 20.8594 8.98828 20.8594ZM8.98828 8.87109C7.46484 8.87109 6.24609 7.65234 6.24609 6.12891C6.24609 4.59375 7.46484 3.38672 8.98828 3.39844C10.5 3.41016 11.7188 4.60547 11.7305 6.12891C11.7539 7.65234 10.5 8.87109 8.98828 8.87109ZM8.98828 18.0234C10.1602 18.0234 11.0742 17.0859 11.0742 15.9375C11.0742 14.7422 10.1602 13.8281 8.98828 13.8281C7.80469 13.8281 6.90234 14.7422 6.90234 15.9375C6.90234 17.0859 7.83984 18.0234 8.98828 18.0234ZM8.98828 7.52344C9.76172 7.52344 10.3828 6.89062 10.3828 6.12891C10.3828 5.35547 9.75 4.73438 8.98828 4.73438C8.20312 4.73438 7.59375 5.32031 7.59375 6.12891C7.59375 6.89062 8.20312 7.52344 8.98828 7.52344Z" fill="black" fill-opacity="0.85"/>
<path d="M8.98828 20.8595C6.25781 20.8595 4.05469 18.6798 4.05469 15.9376C4.05469 13.1837 6.25781 10.9923 8.98828 11.004C11.7188 11.0157 13.9219 13.1837 13.9219 15.9376C13.9219 18.6798 11.7188 20.8595 8.98828 20.8595ZM8.98828 8.87117C7.46484 8.87117 6.24609 7.65242 6.24609 6.12899C6.24609 4.59383 7.46484 3.3868 8.98828 3.39852C10.5 3.41024 11.7188 4.60555 11.7305 6.12899C11.7539 7.65242 10.5 8.87117 8.98828 8.87117ZM8.98828 18.0235C10.1602 18.0235 11.0742 17.086 11.0742 15.9376C11.0742 14.7423 10.1602 13.8282 8.98828 13.8282C7.80469 13.8282 6.90234 14.7423 6.90234 15.9376C6.90234 17.086 7.83984 18.0235 8.98828 18.0235ZM8.98828 7.52352C9.76172 7.52352 10.3828 6.8907 10.3828 6.12899C10.3828 5.35555 9.75 4.73446 8.98828 4.73446C8.20312 4.73446 7.59375 5.32039 7.59375 6.12899C7.59375 6.8907 8.20312 7.52352 8.98828 7.52352Z" fill="#FFCC00"/>
</svg>
