<svg width="33" height="30" viewBox="0 0 33 30" fill="none" xmlns="http://www.w3.org/2000/svg">
<path d="M0 18.0586C0 20.25 1.11328 21.375 3.28125 21.375H12.8906C15.0586 21.375 16.1719 20.25 16.1719 18.0586V4.19531C16.1719 2.01562 15.0586 0.878906 12.8906 0.878906H3.28125C1.11328 0.878906 0 2.01562 0 4.19531V18.0586ZM3.38672 2.66016H12.7969C13.8398 2.66016 14.3906 3.23438 14.3906 4.23047V18.0234C14.3906 19.0195 13.8398 19.5938 12.7969 19.5938H3.38672C2.34375 19.5938 1.78125 19.0195 1.78125 18.0234V4.23047C1.78125 3.23438 2.34375 2.66016 3.38672 2.66016ZM8.07422 8.74219C9.375 8.74219 10.4531 7.67578 10.4531 6.36328C10.4531 5.0625 9.38672 3.99609 8.07422 3.99609C6.77344 3.99609 5.69531 5.0625 5.69531 6.36328C5.69531 7.67578 6.77344 8.74219 8.07422 8.74219ZM8.07422 7.57031C7.41797 7.57031 6.86719 7.03125 6.86719 6.36328C6.86719 5.70703 7.41797 5.16797 8.07422 5.16797C8.74219 5.16797 9.28125 5.70703 9.28125 6.36328C9.28125 7.03125 8.74219 7.57031 8.07422 7.57031ZM8.08594 18.3281C10.4883 18.3281 12.4219 16.3945 12.4219 14.0039C12.4219 11.6016 10.4883 9.66797 8.08594 9.66797C5.69531 9.66797 3.76172 11.6016 3.76172 14.0039C3.76172 16.3945 5.69531 18.3281 8.08594 18.3281ZM8.08594 15.832C7.05469 15.832 6.24609 15.0117 6.24609 14.0039C6.24609 12.9844 7.06641 12.1641 8.08594 12.1641C9.10547 12.1641 9.92578 12.9844 9.92578 14.0039C9.92578 15.0117 9.11719 15.832 8.08594 15.832Z" fill="black" fill-opacity="0.85"/>
<path d="M20.0977 29.2148C24.375 29.2148 26.4258 28.5938 28.3359 26.8242C30.8789 24.5156 32.3438 21.1523 32.3438 17.6367C32.3438 14.7891 31.3711 12.0469 29.6016 10.0312C27.5977 7.57031 25.0547 6.69141 20.0977 6.69141C15.5977 6.69141 12.4102 7.81641 10.6055 10.0312C8.82422 12.0469 7.85156 14.7773 7.85156 17.6367C7.85156 21.1523 9.31641 24.5156 11.8594 26.8242C13.7695 28.5938 15.8203 29.2148 20.0977 29.2148Z" fill="white"/>
<path d="M20.0977 27.621C24.0469 27.621 25.6992 27.1054 27.2461 25.6522C29.4492 23.6483 30.75 20.7187 30.75 17.6366C30.75 15.1405 29.8945 12.7616 28.3594 11.0272C27.9023 10.4413 27.1172 10.3241 26.4492 10.7226C25.1484 11.6835 23.5312 12.3515 20.0977 12.3515C16.6758 12.3515 15.0469 11.6835 13.7461 10.7226C13.0781 10.3241 12.3047 10.4296 11.8359 11.0272C10.3008 12.7616 9.44531 15.1288 9.44531 17.6366C9.44531 20.7187 10.7344 23.6483 12.9375 25.6522C14.4961 27.1054 16.1602 27.621 20.0977 27.621ZM20.0977 25.6172C16.7695 25.6172 15.4922 25.3007 14.3086 24.1757C12.4805 22.5117 11.4609 20.1561 11.4609 17.6366C11.4609 15.5272 12.1992 13.4765 13.7344 11.8476L12.2461 12.2577C13.8398 13.6054 16.4648 14.3554 20.0977 14.3554C23.7422 14.3554 26.3672 13.6054 27.9609 12.246L26.4492 11.8476C28.0078 13.4647 28.7461 15.5155 28.7461 17.6366C28.7461 20.1561 27.7031 22.5117 25.8867 24.1757C24.6914 25.3007 23.4258 25.6172 20.0977 25.6172Z" fill="#007AFF"/>
<path d="M20.0977 11.0156C23.0273 11.0156 25.1133 10.4297 25.1133 9.65625C25.1133 8.87109 23.0273 8.29688 20.0977 8.29688C17.1562 8.29688 15.082 8.87109 15.082 9.65625C15.082 10.4297 17.1562 11.0156 20.0977 11.0156Z" fill="black" fill-opacity="0.85"/>
</svg>
