<svg width="29" height="31" viewBox="0 0 29 31" fill="none" xmlns="http://www.w3.org/2000/svg">
<path d="M3.16406 21.1875H12.0938C14.1914 21.1875 15.2578 20.1094 15.2578 18V4.78125C15.2578 2.67188 14.1797 1.58203 12.0938 1.58203H3.16406C1.08984 1.58203 0 2.67188 0 4.78125V18C0 20.1094 1.07812 21.1875 3.16406 21.1875ZM3.25781 19.4062C2.29688 19.4062 1.78125 18.9023 1.78125 17.9648V4.82812C1.78125 3.89062 2.29688 3.36328 3.25781 3.36328H12C12.9727 3.36328 13.4766 3.89062 13.4766 4.82812V17.9648C13.4766 18.9023 12.9727 19.4062 12 19.4062H3.25781ZM7.62891 9.16406C8.91797 9.16406 9.9375 8.12109 9.9375 6.85547C9.9375 5.57812 8.91797 4.53516 7.62891 4.53516C6.35156 4.53516 5.32031 5.57812 5.32031 6.85547C5.32031 8.12109 6.35156 9.16406 7.62891 9.16406ZM7.62891 7.96875C6.99609 7.96875 6.50391 7.47656 6.50391 6.85547C6.50391 6.23438 6.99609 5.71875 7.62891 5.71875C8.26172 5.71875 8.75391 6.23438 8.75391 6.85547C8.75391 7.47656 8.26172 7.96875 7.62891 7.96875ZM7.62891 18.2109C9.9375 18.2109 11.7539 16.3828 11.7539 14.0977C11.7539 11.8359 9.92578 9.99609 7.62891 9.99609C5.34375 9.99609 3.50391 11.8359 3.50391 14.0977C3.50391 16.3828 5.33203 18.2109 7.62891 18.2109ZM7.62891 15.7734C6.66797 15.7734 5.94141 15.0352 5.94141 14.1211C5.94141 13.1836 6.67969 12.4453 7.62891 12.4453C8.57812 12.4453 9.31641 13.1836 9.31641 14.1211C9.31641 15.0352 8.58984 15.7734 7.62891 15.7734Z" fill="black" fill-opacity="0.85"/>
<path d="M8.01562 8.69531V25.4531C8.01562 28.4648 9.77344 30.2695 12.7852 30.2695H23.6367C26.6602 30.2695 28.418 28.4531 28.418 25.4531V8.69531C28.418 5.68359 26.6602 3.86719 23.6367 3.86719H12.7852C9.77344 3.86719 8.01562 5.67188 8.01562 8.69531Z" fill="white"/>
<path d="M9.62109 8.69531V25.4531C9.62109 27.5742 10.6758 28.6641 12.7852 28.6641H23.6367C25.7578 28.6641 26.8242 27.5742 26.8242 25.4531V8.69531C26.8242 6.5625 25.7578 5.47266 23.6367 5.47266H12.7852C10.6641 5.47266 9.62109 6.5625 9.62109 8.69531ZM11.4961 8.70703C11.4961 7.81641 11.9531 7.35938 12.8555 7.35938H23.5664C24.4805 7.35938 24.9375 7.81641 24.9375 8.70703V25.4297C24.9375 26.3203 24.4688 26.7773 23.5664 26.7773H12.8555C11.9531 26.7773 11.4961 26.3203 11.4961 25.4297V8.70703ZM18.2109 14.2031C19.6406 14.2031 20.8008 13.0547 20.8008 11.625C20.8008 10.207 19.6523 9.08203 18.2109 9.08203C16.793 9.08203 15.6445 10.1953 15.6445 11.625C15.6445 13.0664 16.793 14.2031 18.2109 14.2031ZM18.2109 12.8906C17.5195 12.8906 16.9688 12.3281 16.9688 11.625C16.9688 10.9219 17.5078 10.3711 18.2109 10.3711C18.9023 10.3711 19.4648 10.9453 19.4648 11.625C19.4648 12.3281 18.9141 12.8906 18.2109 12.8906ZM18.2109 25.0781C20.7656 25.0781 22.8164 23.0391 22.8164 20.4727C22.8164 17.918 20.7656 15.8789 18.2109 15.8789C15.668 15.8789 13.6172 17.9297 13.6172 20.4727C13.6172 23.0273 15.668 25.0781 18.2109 25.0781ZM18.2109 22.3594C17.168 22.3594 16.3242 21.5391 16.3242 20.4727C16.3242 19.3945 17.1562 18.5625 18.2109 18.5625C19.2891 18.5625 20.1094 19.3945 20.1094 20.4727C20.1094 21.5391 19.2891 22.3594 18.2109 22.3594Z" fill="black" fill-opacity="0.85"/>
</svg>
