<svg width="31" height="31" viewBox="0 0 31 31" fill="none" xmlns="http://www.w3.org/2000/svg">
<path d="M0 19.9688C0 21.9023 1.00781 22.9102 2.90625 22.9102H13.1953C15.0938 22.9102 16.1016 21.9023 16.1016 19.9688V4.45312C16.1016 2.53125 15.0938 1.52344 13.1953 1.52344H2.90625C1.00781 1.52344 0 2.53125 0 4.45312V19.9688ZM3 3.29297H13.1133C13.8984 3.29297 14.332 3.71484 14.332 4.5V19.9336C14.332 20.7188 13.8984 21.1406 13.1133 21.1406H3C2.21484 21.1406 1.76953 20.7188 1.76953 19.9336V4.5C1.76953 3.71484 2.21484 3.29297 3 3.29297ZM8.05078 9.64453C9.38672 9.64453 10.4414 8.57812 10.4414 7.25391C10.4414 5.92969 9.38672 4.86328 8.05078 4.86328C6.72656 4.86328 5.64844 5.92969 5.64844 7.25391C5.64844 8.58984 6.71484 9.64453 8.05078 9.64453ZM8.05078 8.39062C7.42969 8.39062 6.91406 7.875 6.91406 7.25391C6.91406 6.60938 7.41797 6.10547 8.05078 6.10547C8.67188 6.10547 9.1875 6.63281 9.1875 7.25391C9.1875 7.875 8.68359 8.39062 8.05078 8.39062ZM8.05078 19.6523C10.4414 19.6523 12.3516 17.7539 12.3516 15.3633C12.3516 12.9609 10.4414 11.0625 8.05078 11.0625C5.67188 11.0625 3.76172 12.9609 3.76172 15.3633C3.76172 17.7539 5.67188 19.6523 8.05078 19.6523ZM8.05078 17.1094C7.05469 17.1094 6.29297 16.3359 6.29297 15.3633C6.29297 14.3789 7.05469 13.6055 8.05078 13.6055C9.04688 13.6055 9.80859 14.3789 9.80859 15.3633C9.80859 16.3359 9.04688 17.1094 8.05078 17.1094Z" fill="black" fill-opacity="0.85"/>
<path d="M14.2852 30.457H23.2969C25.3125 30.457 27.0938 30.2227 28.4648 28.8516C29.8125 27.4688 30.0469 25.7109 30.0469 23.6953V14.7656C30.0469 12.7383 29.8125 10.9688 28.4648 9.60938C27.0938 8.25 25.3242 7.99219 23.2969 7.99219H14.2617C12.2578 7.99219 10.4766 8.26172 9.11719 9.62109C7.75781 10.9805 7.51172 12.75 7.51172 14.7422V23.6953C7.51172 25.7109 7.75781 27.4805 9.11719 28.8633C10.4766 30.2109 12.2695 30.457 14.2852 30.457Z" fill="white"/>
<path d="M14.2852 28.8633H23.2969C24.9375 28.8633 26.3438 28.7109 27.3281 27.7266C28.3125 26.7188 28.4531 25.3477 28.4531 23.6953V14.7656C28.4531 13.1133 28.3125 11.7305 27.3281 10.7461C26.332 9.76172 24.9375 9.59766 23.2969 9.59766H14.2617C12.6328 9.59766 11.2383 9.76172 10.2539 10.7461C9.26953 11.7422 9.11719 13.1133 9.11719 14.7422V23.6953C9.11719 25.3477 9.26953 26.7305 10.2539 27.7266C11.2383 28.7109 12.6328 28.8633 14.2852 28.8633ZM14.3086 17.0508C14.2852 16.3125 14.8945 15.5859 15.6914 15.5391C15.75 16.2656 15.1289 17.1445 14.3086 17.0508ZM17.0625 20.5078C16.9219 21.0234 16.582 21.6211 16.1367 22.0664C16.0078 22.1836 15.8086 22.2773 15.5625 22.2773C15.3398 22.2773 15.1992 22.1953 14.9883 22.125C14.8711 22.0898 14.6953 21.9961 14.4727 21.9961C13.9805 21.9961 13.7578 22.2891 13.3594 22.2891C13.0781 22.2891 12.8555 22.125 12.5508 21.7852C11.9766 21.1523 11.5898 20.1445 11.5898 19.2656C11.5898 18.7266 11.7305 18.2344 12.0703 17.8125C12.3516 17.4492 12.7852 17.2383 13.3125 17.2383C13.793 17.2383 14.0859 17.5312 14.3438 17.5312C14.6484 17.5312 15 17.2266 15.6211 17.2266C16.1602 17.2266 16.6172 17.4375 16.9102 17.8711C16.5117 18.0938 16.3711 18.375 16.2891 18.6094C16.1602 18.9375 16.1367 19.3359 16.2891 19.7344C16.4414 20.0977 16.6758 20.3438 17.0625 20.5078ZM19.793 16.0312V17.2266H20.7539V18.0117H19.793V20.7891C19.793 21.2461 19.9922 21.4336 20.4023 21.4336C20.4961 21.4336 20.6836 21.4336 20.7422 21.3984V22.2422C20.6484 22.2539 20.4023 22.2773 20.1797 22.2773C19.1484 22.2773 18.75 21.9141 18.75 20.918V18.0117H18.0586V17.2266H18.75V16.0312H19.793ZM24.1523 22.2422H23.0625L21.2227 17.2266H22.3125L23.6133 21.2461L24.832 17.2266H25.957L24.1523 22.2422Z" fill="black" fill-opacity="0.85"/>
</svg>
