<svg width="34" height="23" viewBox="0 0 34 23" fill="none" xmlns="http://www.w3.org/2000/svg">
<path d="M0 11.4258C0 15.1406 1.20703 18.5508 3.24609 21.3281C3.60938 21.832 4.23047 21.8789 4.69922 21.5039C5.12109 21.1406 5.17969 20.5781 4.83984 20.1094C3.05859 17.6836 2.00391 14.6719 2.00391 11.4258C2.00391 8.16793 3.05859 5.16793 4.83984 2.71871C5.17969 2.2734 5.13281 1.69918 4.69922 1.3359C4.23047 0.960895 3.60938 1.01949 3.24609 1.51168C1.20703 4.28902 0 7.7109 0 11.4258ZM33.4453 11.4258C33.4453 7.7109 32.25 4.28902 30.1992 1.51168C29.8359 1.01949 29.2148 0.960895 28.7461 1.3359C28.3125 1.69918 28.2773 2.2734 28.6055 2.71871C30.3984 5.16793 31.4414 8.16793 31.4414 11.4258C31.4414 14.6719 30.3984 17.6836 28.6055 20.1094C28.2773 20.5781 28.3242 21.1406 28.7461 21.5039C29.2148 21.8789 29.8359 21.832 30.1992 21.3281C32.25 18.5508 33.4453 15.1406 33.4453 11.4258Z" fill="#007AFF"/>
<path d="M16.7227 22.8516C22.9688 22.8516 28.1602 17.6719 28.1602 11.4258C28.1602 5.17969 22.9688 0 16.7109 0C10.4648 0 5.29688 5.16797 5.29688 11.4258C5.29688 17.6719 10.4766 22.8516 16.7227 22.8516ZM16.7227 20.8594C11.4961 20.8594 7.30078 16.6641 7.30078 11.4258C7.30078 6.17578 11.4844 1.98047 16.7109 1.98047C21.9492 1.98047 26.1562 6.17578 26.168 11.4258C26.1797 16.6523 21.9727 20.8594 16.7227 20.8594Z" fill="#007AFF"/>
<path d="M13.0078 16.793C13.6172 16.793 13.957 16.4062 13.957 15.75V11.8828H19.4414V15.75C19.4414 16.3945 19.793 16.793 20.3672 16.793C20.9766 16.793 21.3164 16.4062 21.3164 15.75V6.87891C21.3164 6.22266 20.9766 5.83594 20.3672 5.83594C19.793 5.83594 19.4414 6.23438 19.4414 6.87891V10.418H13.957V6.87891C13.957 6.22266 13.6172 5.83594 13.0078 5.83594C12.4336 5.83594 12.0938 6.23438 12.0938 6.87891V15.75C12.0938 16.3945 12.4336 16.793 13.0078 16.793Z" fill="black" fill-opacity="0.85"/>
</svg>
