<svg width="30" height="31" viewBox="0 0 30 31" fill="none" xmlns="http://www.w3.org/2000/svg">
<path d="M8.55469 23.3438C14.4844 23.3438 17.1211 21.2109 17.1211 16.5117V8.42578C17.1211 6.43359 16.6289 5.07422 15.8672 4.125C15.6211 3.79688 15.2109 3.77344 14.8945 4.03125C13.875 4.93359 11.2148 5.69531 8.55469 5.69531C5.90625 5.69531 3.23438 4.93359 2.22656 4.03125C1.91016 3.77344 1.5 3.79688 1.24219 4.125C0.492188 5.07422 0 6.43359 0 8.42578V16.5117C0 21.2109 2.625 23.3438 8.55469 23.3438ZM8.55469 21.6094C3.57422 21.6094 1.72266 19.8984 1.72266 16.3359V8.53125C1.72266 7.59375 1.88672 6.72656 2.27344 5.97656C3.49219 6.91406 5.75391 7.40625 8.55469 7.40625C11.3672 7.40625 13.6289 6.91406 14.8359 5.97656C15.2344 6.72656 15.3984 7.59375 15.3984 8.53125V16.3359C15.3984 19.8984 13.5469 21.6094 8.55469 21.6094Z" fill="#007AFF"/>
<path d="M8.55469 4.24219C11.3789 4.24219 13.4766 3.64453 13.4766 2.88281C13.4766 2.09766 11.3789 1.52344 8.55469 1.52344C5.74219 1.52344 3.64453 2.09766 3.64453 2.88281C3.64453 3.64453 5.74219 4.24219 8.55469 4.24219Z" fill="black" fill-opacity="0.85"/>
<path d="M14.2031 30.457H23.2031C25.2305 30.457 27.0117 30.1992 28.3711 28.8516C29.7305 27.4805 29.9648 25.7227 29.9648 23.6953V14.7656C29.9648 12.7383 29.7305 10.9688 28.3711 9.60938C27.0117 8.25 25.2305 7.99219 23.2031 7.99219H14.168C12.1758 7.99219 10.3945 8.25 9.03516 9.62109C7.67578 10.9805 7.42969 12.75 7.42969 14.7422V23.6953C7.42969 25.7227 7.67578 27.4922 9.03516 28.8516C10.3945 30.1992 12.1641 30.457 14.2031 30.457Z" fill="white"/>
<path d="M14.1914 28.8633H23.2031C24.8555 28.8633 26.25 28.7109 27.2344 27.7148C28.2305 26.7305 28.3711 25.3477 28.3711 23.6953V14.7656C28.3711 13.1133 28.2305 11.7305 27.2344 10.7461C26.25 9.75 24.8555 9.59766 23.2031 9.59766H14.168C12.5508 9.59766 11.1562 9.76172 10.1602 10.7461C9.17578 11.7305 9.03516 13.1133 9.03516 14.7422V23.6953C9.03516 25.3477 9.17578 26.7305 10.1602 27.7148C11.1562 28.7109 12.5391 28.8633 14.1914 28.8633ZM14.2266 17.0508C14.1914 16.3125 14.8125 15.5859 15.6094 15.5391C15.668 16.2656 15.0352 17.1445 14.2266 17.0508ZM14.3906 21.9961C13.8984 21.9961 13.6758 22.2891 13.2656 22.2891C12.9844 22.2891 12.7734 22.125 12.4688 21.7852C11.8828 21.1523 11.5078 20.1445 11.5078 19.2656C11.5078 18.7266 11.6367 18.2344 11.9883 17.8125C12.2695 17.4492 12.7031 17.2383 13.2305 17.2383C13.7109 17.2383 14.0039 17.5312 14.2617 17.5312C14.5664 17.5312 14.9062 17.2266 15.5391 17.2266C16.0664 17.2266 16.5352 17.4375 16.8164 17.8711C16.4297 18.0938 16.2891 18.375 16.207 18.6094C16.0781 18.9375 16.0547 19.3359 16.207 19.7344C16.3594 20.0977 16.5938 20.3438 16.9805 20.5078C16.8281 21.0234 16.4883 21.6211 16.0547 22.0664C15.9141 22.1836 15.7266 22.2773 15.4805 22.2773C15.2461 22.2773 15.1172 22.1953 14.9062 22.125C14.7773 22.0898 14.6016 21.9961 14.3906 21.9961ZM20.0977 22.2773C19.0664 22.2773 18.668 21.9141 18.668 20.918V18.0117H17.9648V17.2266H18.668V16.0312H19.7109V17.2266H20.6602V18.0117H19.7109V20.7891C19.7109 21.2461 19.9102 21.4336 20.3086 21.4336C20.4141 21.4336 20.6016 21.4336 20.6602 21.3984V22.2422C20.5664 22.2539 20.3086 22.2773 20.0977 22.2773ZM22.9805 22.2422L21.1406 17.2266H22.2188L23.5195 21.2461L24.75 17.2266H25.875L24.0703 22.2422H22.9805Z" fill="black" fill-opacity="0.85"/>
</svg>
