<svg width="32" height="31" viewBox="0 0 32 31" fill="none" xmlns="http://www.w3.org/2000/svg">
<path d="M10.4531 20.5078C14.25 20.5078 15.9258 20.0273 17.4844 18.5625C19.6406 16.5938 20.9062 13.7227 20.9062 10.6992C20.9062 8.24995 20.0742 5.92964 18.5859 4.23042C18.1289 3.63276 17.3438 3.52729 16.6758 3.92573C15.3867 4.85151 13.8047 5.49604 10.4531 5.49604C7.10156 5.49604 5.53125 4.85151 4.23047 3.92573C3.5625 3.52729 2.78906 3.63276 2.33203 4.23042C0.832031 5.92964 0 8.24995 0 10.6992C0 13.7227 1.26562 16.5938 3.43359 18.5625C4.98047 20.0273 6.65625 20.5078 10.4531 20.5078ZM10.4531 18.4805C7.26562 18.4805 5.97656 18.1992 4.79297 17.0859C3.02344 15.457 2.01562 13.1602 2.01562 10.6992C2.01562 8.95307 2.54297 7.34761 3.5625 5.97651C5.12109 6.98433 7.46484 7.49995 10.4531 7.49995C13.4531 7.49995 15.7852 6.98433 17.3555 5.97651C18.375 7.34761 18.8906 8.95307 18.8906 10.6992C18.8906 13.1602 17.8945 15.457 16.1133 17.0859C14.9414 18.1992 13.6406 18.4805 10.4531 18.4805Z" fill="#007AFF"/>
<path d="M10.4531 4.19531C13.3242 4.19531 15.3633 3.60938 15.3633 2.87109C15.3633 2.09766 13.3242 1.53516 10.4531 1.53516C7.58203 1.53516 5.54297 2.09766 5.54297 2.87109C5.54297 3.60938 7.58203 4.19531 10.4531 4.19531Z" fill="black" fill-opacity="0.85"/>
<path d="M16.0898 30.4805H25.1016C27.1172 30.4805 28.9102 30.2344 30.2695 28.875C31.6289 27.4805 31.8633 25.7344 31.8633 23.707V14.7891C31.8633 12.7617 31.6289 10.9922 30.2695 9.63281C28.9102 8.27344 27.1289 8.01562 25.1016 8.01562H16.0664C14.0742 8.01562 12.293 8.27344 10.9336 9.63281C9.57423 10.9922 9.32812 12.7617 9.32812 14.7539V23.707C9.32812 25.7344 9.57423 27.4922 10.9336 28.875C12.293 30.2344 14.0742 30.4805 16.0898 30.4805Z" fill="white"/>
<path d="M16.0898 28.875H25.1016C26.7539 28.875 28.1484 28.7227 29.1328 27.7383C30.1172 26.7422 30.2578 25.3594 30.2578 23.707V14.7891C30.2578 13.125 30.1172 11.7422 29.1328 10.7578C28.1484 9.77344 26.7539 9.60938 25.1016 9.60938H16.0664C14.4492 9.60938 13.0547 9.77343 12.0586 10.7695C11.0742 11.7539 10.9219 13.1367 10.9219 14.7539V23.707C10.9219 25.3594 11.0742 26.7422 12.0586 27.7383C13.0547 28.7227 14.4492 28.875 16.0898 28.875ZM16.125 17.0742C16.0898 16.3242 16.6992 15.6094 17.5078 15.5508C17.5664 16.2773 16.9336 17.1562 16.125 17.0742ZM18.8789 20.5195C18.7266 21.0352 18.3867 21.6445 17.9531 22.0781C17.8125 22.1953 17.625 22.2891 17.3789 22.2891C17.1445 22.2891 17.0156 22.207 16.8047 22.1484C16.6758 22.1016 16.5 22.0078 16.2891 22.0078C15.7969 22.0078 15.5742 22.3125 15.1641 22.3125C14.8828 22.3125 14.6719 22.1484 14.3672 21.8086C13.7812 21.1641 13.4062 20.1562 13.4062 19.2773C13.4062 18.7383 13.5352 18.2461 13.8867 17.8242C14.168 17.4609 14.6016 17.25 15.1172 17.25C15.5977 17.25 15.8906 17.5547 16.1602 17.5547C16.4648 17.5547 16.8047 17.2383 17.4375 17.2383C17.9648 17.2383 18.4336 17.4609 18.7148 17.8945C18.3281 18.1055 18.1875 18.3867 18.1055 18.6211C17.9766 18.9492 17.9531 19.3477 18.1055 19.7578C18.2578 20.1094 18.4922 20.3555 18.8789 20.5195ZM21.6094 16.043V17.2383H22.5586V18.0234H21.6094V20.8008C21.6094 21.2695 21.8086 21.4453 22.207 21.4453C22.3125 21.4453 22.5 21.4453 22.5586 21.4102V22.2539C22.4648 22.2656 22.207 22.2891 21.9961 22.2891C20.9648 22.2891 20.5664 21.9375 20.5664 20.9297V18.0234H19.8633V17.2383H20.5664V16.043H21.6094ZM25.9688 22.2539H24.8789L23.0391 17.2383H24.1172L25.418 21.2695L26.6484 17.2383H27.7734L25.9688 22.2539Z" fill="black" fill-opacity="0.85"/>
</svg>
