<svg width="28" height="27" viewBox="0 0 28 27" fill="none" xmlns="http://www.w3.org/2000/svg">
<path d="M3.375 22.0225C3.375 23.6631 4.34766 24.6123 6.02344 24.6123H21.9727C23.6367 24.6123 24.6094 23.6631 24.6094 22.0225V8.93262L22.9453 8.81543V21.7764C22.9453 22.5381 22.5352 22.96 21.7969 22.96H6.19922C5.44922 22.96 5.03906 22.5381 5.03906 21.7764V8.82715L3.375 8.93262V22.0225ZM0 11.5342C0 12.0029 0.339844 12.3193 0.855469 12.3193C1.06641 12.3193 1.23047 12.249 1.38281 12.1318L13.582 1.90137C13.8281 1.67871 14.1445 1.66699 14.4023 1.90137L26.6016 12.1318C26.7422 12.249 26.9062 12.3193 27.1289 12.3193C27.6328 12.3193 27.9727 12.0029 27.9727 11.5342C27.9727 11.2295 27.8555 11.0186 27.5977 10.8076L15.3984 0.553711C14.5312 -0.18457 13.4648 -0.18457 12.5859 0.553711L0.375 10.8076C0.117188 11.0186 0 11.2295 0 11.5342ZM21.668 6.28418L24.6094 8.76855V3.35449C24.6094 2.83887 24.2812 2.51074 23.7656 2.51074H22.5117C22.0078 2.51074 21.668 2.83887 21.668 3.35449V6.28418Z" fill="black" fill-opacity="0.85"/>
<path d="M7.23047 19.292C7.23047 20.2295 7.82812 20.792 8.85938 20.792H19.1367C20.1562 20.792 20.7656 20.2295 20.7656 19.292V10.1748L14.7539 5.13574C14.2852 4.76074 13.6992 4.76074 13.2422 5.13574L7.23047 10.1748V19.292ZM8.89453 18.5771V10.9834L13.6172 7.01074C13.8281 6.83496 14.1562 6.82324 14.3672 7.01074L19.1016 10.9834V18.5771C19.1016 18.9404 18.9023 19.1396 18.5391 19.1396H9.44531C9.09375 19.1396 8.89453 18.9404 8.89453 18.5771Z" fill="#007AFF"/>
<path d="M11.0742 15.8584C11.0742 16.5381 11.5195 16.96 12.2344 16.96H15.75C16.4766 16.96 16.9102 16.5381 16.9102 15.8584V12.0498L14.6602 10.1631C14.25 9.82324 13.7344 9.82324 13.3359 10.1631L11.0742 12.0498V15.8584ZM12.7031 15.085V12.8115L13.7109 11.9561C13.8867 11.8154 14.1094 11.8154 14.2734 11.9561L15.2812 12.8115V15.085C15.2812 15.2607 15.1992 15.3545 15.0117 15.3545H12.9727C12.7969 15.3545 12.7031 15.2607 12.7031 15.085Z" fill="#FFCC00"/>
</svg>
