<svg width="24" height="22" viewBox="0 0 24 22" fill="none" xmlns="http://www.w3.org/2000/svg">
<path d="M11.543 21.2226C15.7969 21.2226 17.5898 20.6835 19.2891 19.1015C21.6797 16.9218 23.0742 13.7694 23.0742 10.4179C23.0742 7.71082 22.1719 5.13269 20.4844 3.24597C20.0273 2.66004 19.2539 2.55457 18.5977 2.96472C17.1562 4.01941 15.2227 4.73426 11.543 4.73426C7.85156 4.73426 5.91797 4.01941 4.48828 2.96472C3.83203 2.55457 3.04688 2.66004 2.58984 3.24597C0.914062 5.13269 0 7.71082 0 10.4179C0 13.7694 1.39453 16.9218 3.78516 19.1015C5.48438 20.6835 7.27734 21.2226 11.543 21.2226ZM11.543 19.3358C7.81641 19.3358 6.39844 18.9608 5.0625 17.7187C3.03516 15.8554 1.88672 13.2187 1.88672 10.4179C1.88672 8.19129 2.61328 6.05847 4.13672 4.33582L3.28125 4.55847C5.16797 6.0116 8.15625 6.62097 11.543 6.62097C14.918 6.62097 17.9062 6.0116 19.793 4.55847L18.9375 4.33582C20.4609 6.05847 21.1875 8.19129 21.1875 10.4179C21.1875 13.2187 20.0391 15.8554 18.0117 17.7187C16.6875 18.9608 15.2578 19.3358 11.543 19.3358Z" fill="#007AFF"/>
<path d="M11.543 3.14062C14.8008 3.14062 17.0742 2.48438 17.0742 1.64062C17.0742 0.785156 14.8008 0.152344 11.543 0.152344C8.27344 0.152344 6 0.785156 6 1.64062C6 2.48438 8.27344 3.14062 11.543 3.14062Z" fill="black" fill-opacity="0.85"/>
</svg>
