<svg width="30" height="31" viewBox="0 0 30 31" fill="none" xmlns="http://www.w3.org/2000/svg">
<path d="M8.55469 23.3203C14.4023 23.3203 17.1211 21.2578 17.1211 16.4883V8.40234C17.1211 6.49219 16.6992 5.15625 15.9492 4.18359C15.6797 3.82031 15.2227 3.76172 14.8477 4.06641C13.8047 4.92188 11.1562 5.67188 8.55469 5.67188C5.90625 5.67188 3.23438 4.91016 2.22656 4.00781C1.91016 3.75 1.5 3.77344 1.24219 4.10156C0.492188 5.05078 0 6.41016 0 8.40234V16.4883C0 21.2578 2.70703 23.3203 8.55469 23.3203ZM8.55469 21.5859C3.65625 21.5859 1.72266 19.9453 1.72266 16.3125V8.50781C1.72266 7.57031 1.88672 6.70312 2.27344 5.95312C3.49219 6.90234 5.82422 7.39453 8.55469 7.39453C11.2969 7.39453 13.6289 6.90234 14.8359 5.95312C15.2344 6.70312 15.3984 7.57031 15.3984 8.50781V16.3125C15.3984 19.9453 13.4648 21.5859 8.55469 21.5859Z" fill="#007AFF"/>
<path d="M8.55469 4.21875C11.2852 4.21875 13.4766 3.63281 13.4766 2.85938C13.4766 2.07422 11.2852 1.48828 8.55469 1.48828C5.83594 1.48828 3.64453 2.07422 3.64453 2.85938C3.64453 3.63281 5.83594 4.21875 8.55469 4.21875Z" fill="black" fill-opacity="0.85"/>
<path d="M18.7383 30.4102C25.9805 30.4102 29.7656 27.5273 29.7656 21.293V12.375C29.7656 9.97266 29.2266 8.09766 28.0664 6.59766C26.25 4.18359 23.0391 2.98828 18.7383 2.98828C14.4375 2.98828 11.2383 4.17188 9.41016 6.58594C8.25 8.08594 7.71094 9.97266 7.71094 12.375V21.293C7.71094 27.5273 11.4961 30.4102 18.7383 30.4102Z" fill="white"/>
<path d="M18.7383 28.8165C25.1953 28.8165 28.1602 26.5196 28.1602 21.2931V12.3751C28.1602 10.172 27.6328 8.68367 26.8008 7.62899C26.5195 7.27742 26.0742 7.25399 25.7227 7.53524C24.6094 8.51961 21.668 9.36336 18.7383 9.36336C15.8086 9.36336 12.8672 8.51961 11.7539 7.53524C11.4023 7.25399 10.9453 7.27742 10.6641 7.62899C9.84375 8.68367 9.31641 10.172 9.31641 12.3751V21.2931C9.31641 26.5196 12.2812 28.8165 18.7383 28.8165ZM18.7383 26.9298C13.3125 26.9298 11.1914 25.1134 11.1914 21.1056V12.4806C11.1914 11.4493 11.3672 10.4884 11.8125 9.65633C13.207 10.7462 15.832 11.2501 18.7383 11.2501C21.6445 11.2501 24.2695 10.7462 25.6641 9.65633C26.1094 10.4884 26.2734 11.4493 26.2734 12.4806V21.1056C26.2734 25.1134 24.1523 26.9298 18.7383 26.9298Z" fill="#007AFF"/>
<path d="M18.7383 7.75781C21.7383 7.75781 24.1641 7.10156 24.1641 6.25781C24.1641 5.39062 21.7383 4.74609 18.7383 4.74609C15.7266 4.74609 13.3125 5.39062 13.3125 6.25781C13.3125 7.10156 15.7266 7.75781 18.7383 7.75781Z" fill="black" fill-opacity="0.85"/>
</svg>
