<svg width="24" height="24" viewBox="0 0 24 24" fill="none" xmlns="http://www.w3.org/2000/svg">
<path d="M11.9531 23.9062C18.4922 23.9062 23.9062 18.4805 23.9062 11.9531C23.9062 5.41406 18.4805 0 11.9414 0C5.41406 0 0 5.41406 0 11.9531C0 18.4805 5.42578 23.9062 11.9531 23.9062Z" fill="#FFCC00"/>
<path d="M8.70704 19.0078C7.9336 19.0078 7.45312 18.5625 7.45312 17.7539V17.5898C7.45312 15.75 9.41017 13.7812 10.4883 12.7031C11.0156 12.1875 10.9805 11.6484 10.4883 11.1797C9.41017 10.1133 7.45312 8.14453 7.45312 6.28125V6.15234C7.45312 5.33203 7.9336 4.88672 8.70704 4.88672H15.1992C15.9727 4.88672 16.4531 5.33203 16.4531 6.15234V6.28125C16.4531 8.14453 14.4961 10.1133 13.418 11.1797C12.9258 11.6484 12.8906 12.1875 13.418 12.7031C14.4961 13.7812 16.4531 15.75 16.4531 17.5898V17.7539C16.4531 18.5625 15.9727 19.0078 15.1992 19.0078H8.70704ZM9.29297 17.9648H14.6133C14.9531 17.9648 15.0117 17.5781 14.7891 17.3789L12.4922 15.0352C12.4102 14.9531 12.375 14.918 12.375 14.7891V11.3906C12.375 11.0508 12.4453 10.8867 12.6914 10.6523C13.2188 10.125 13.7812 9.58594 14.2617 9.08203C14.4609 8.87109 14.3555 8.63672 14.1094 8.63672H9.80859C9.5625 8.63672 9.44531 8.87109 9.65625 9.08203C10.125 9.58594 10.6875 10.125 11.2148 10.6523C11.4609 10.8867 11.5312 11.0508 11.5312 11.3906V14.7891C11.5312 14.918 11.4961 14.9531 11.4141 15.0352L9.1172 17.3789C8.89454 17.5781 8.95312 17.9648 9.29297 17.9648Z" fill="black" fill-opacity="0.85"/>
</svg>
