<svg width="14" height="22" viewBox="0 0 14 22" fill="none" xmlns="http://www.w3.org/2000/svg">
<path d="M1.91016 21.5508H11.8242C13.0078 21.5508 13.7344 20.8828 13.7344 19.6289V19.3945C13.7344 16.5703 10.7461 13.5703 9.10547 11.9414C8.36719 11.2031 8.30859 10.3828 9.10547 9.58594C10.7461 7.96875 13.7344 4.98047 13.7344 2.13281V1.93359C13.7344 0.679688 13.0078 0 11.8242 0H1.91016C0.726562 0 0 0.679688 0 1.93359V2.13281C0 4.98047 3 7.96875 4.62891 9.58594C5.37891 10.3242 5.4375 11.1445 4.62891 11.9414C3 13.5703 0 16.5703 0 19.3945V19.6289C0 20.8828 0.726562 21.5508 1.91016 21.5508Z" fill="#FFCC00"/>
<path d="M2.81245 19.957C2.30854 19.957 2.19136 19.3711 2.5312 19.0547L6.30464 15.457C6.66792 15.1289 7.08979 15.1406 7.42964 15.457L11.203 19.0547C11.5429 19.3711 11.4257 19.957 10.9218 19.957H2.81245Z" fill="black" fill-opacity="0.85"/>
</svg>
