<svg width="14" height="22" viewBox="0 0 14 22" fill="none" xmlns="http://www.w3.org/2000/svg">
<path d="M1.91016 21.5508H11.8242C13.0078 21.5508 13.7344 20.8828 13.7344 19.6289V19.3945C13.7344 16.5703 10.7461 13.5703 9.10547 11.9414C8.36719 11.2031 8.30859 10.3828 9.10547 9.58594C10.7461 7.96875 13.7344 4.98047 13.7344 2.13281V1.93359C13.7344 0.679688 13.0078 0 11.8242 0H1.91016C0.726562 0 0 0.679688 0 1.93359V2.13281C0 4.98047 3 7.96875 4.62891 9.58594C5.4375 10.3828 5.37891 11.2031 4.62891 11.9414C3 13.5703 0 16.5703 0 19.3945V19.6289C0 20.8828 0.726562 21.5508 1.91016 21.5508Z" fill="#FFCC00"/>
<path d="M7.67557 8.95312C7.08963 9.43359 6.64432 9.43359 6.05838 8.95312C5.17948 8.20312 2.68338 5.63672 1.92167 4.28906C1.72245 3.91406 1.82791 3.62109 2.1912 3.62109H11.5428C11.906 3.62109 12.0232 3.91406 11.8123 4.28906C11.0506 5.63672 8.5662 8.20312 7.67557 8.95312Z" fill="black" fill-opacity="0.85"/>
</svg>
