<svg width="24" height="24" viewBox="0 0 24 24" fill="none" xmlns="http://www.w3.org/2000/svg">
<path d="M11.9531 23.9062C18.4922 23.9062 23.9062 18.4805 23.9062 11.9531C23.9062 5.41406 18.4805 0 11.9414 0C5.41406 0 0 5.41406 0 11.9531C0 18.4805 5.42578 23.9062 11.9531 23.9062ZM11.9531 21.9141C6.42188 21.9141 2.00391 17.4844 2.00391 11.9531C2.00391 6.42188 6.41016 1.99219 11.9414 1.99219C17.4727 1.99219 21.9141 6.42188 21.9141 11.9531C21.9141 17.4844 17.4844 21.9141 11.9531 21.9141Z" fill="#007AFF"/>
<path d="M8.80078 18.7969H15.1055C15.8555 18.7969 16.3125 18.3633 16.3125 17.5781V17.4258C16.3125 15.6328 14.4141 13.7227 13.3711 12.6797C12.8555 12.1758 12.8906 11.6602 13.3711 11.2031C14.4141 10.1719 16.3125 8.26172 16.3125 6.45703V6.32812C16.3125 5.53125 15.8555 5.09766 15.1055 5.09766H8.80078C8.05078 5.09766 7.59375 5.53125 7.59375 6.32812V6.45703C7.59375 8.26172 9.49219 10.1719 10.5352 11.2031C11.0156 11.6602 11.0508 12.1758 10.5352 12.6797C9.49219 13.7227 7.59375 15.6328 7.59375 17.4258V17.5781C7.59375 18.3633 8.05078 18.7969 8.80078 18.7969ZM9.375 17.7891C9.04688 17.7891 8.98828 17.4141 9.19922 17.2148L11.4258 14.9414C11.5078 14.8594 11.543 14.8242 11.543 14.707V11.4141C11.543 11.0859 11.4727 10.9219 11.2383 10.6992C10.7227 10.1836 10.1836 9.65625 9.72656 9.16406C9.51562 8.96484 9.63281 8.74219 9.86719 8.74219H14.0508C14.2852 8.74219 14.3906 8.96484 14.1914 9.16406C13.7227 9.65625 13.1836 10.1836 12.668 10.6992C12.4336 10.9219 12.3633 11.0859 12.3633 11.4141V14.707C12.3633 14.8242 12.3984 14.8594 12.4805 14.9414L14.707 17.2148C14.918 17.4141 14.8594 17.7891 14.5312 17.7891H9.375Z" fill="black" fill-opacity="0.85"/>
</svg>
