<svg width="48" height="21" viewBox="0 0 48 21" fill="none" xmlns="http://www.w3.org/2000/svg">
<path d="M0.97065 12.5273H26.1425C27.1386 12.5273 27.4081 11.4023 26.7636 10.9336L19.2167 5.67188C18.8417 5.41406 18.4081 5.28516 17.9277 5.28516H9.19721C8.70502 5.28516 8.27143 5.41406 7.89643 5.67188L0.349556 10.9336C-0.294975 11.4023 -0.0254444 12.5273 0.97065 12.5273ZM3.10346 10.9219L8.82221 6.98438C8.95112 6.90234 9.02143 6.89062 9.19721 6.89062H17.916C18.0917 6.89062 18.1621 6.90234 18.291 6.98438L24.0097 10.9219H3.10346ZM4.8144 20.4023H22.2988C23.9277 20.4023 24.8769 19.5 24.8769 17.8945V11.6602H23.0371V17.4492C23.0371 18.1875 22.6503 18.5742 21.9355 18.5742H5.17768C4.46284 18.5742 4.07612 18.1875 4.07612 17.4492V11.6602H2.23627V17.8945C2.23627 19.5 3.18549 20.4023 4.8144 20.4023Z" fill="black" fill-opacity="0.85"/>
<path d="M21.7949 12.5273H46.9785C47.9628 12.5273 48.2441 11.4023 47.5878 10.9336L40.041 5.67188C39.6777 5.41406 39.2324 5.28516 38.7519 5.28516H30.0331C29.5292 5.28516 29.0956 5.41406 28.7206 5.67188L21.1855 10.9336C20.5292 11.4023 20.7988 12.5273 21.7949 12.5273ZM23.9277 10.9219L29.6581 6.98438C29.7871 6.90234 29.8456 6.89062 30.0331 6.89062H38.7402C38.916 6.89062 38.9863 6.90234 39.1152 6.98438L44.8339 10.9219H23.9277ZM25.6386 20.4023H43.123C44.7519 20.4023 45.7011 19.5 45.7011 17.8945V11.6602H43.8613V17.4492C43.8613 18.1875 43.4746 18.5742 42.7597 18.5742H26.0136C25.2871 18.5742 24.9003 18.1875 24.9003 17.4492V11.6602H23.0605V17.8945C23.0605 19.5 24.0097 20.4023 25.6386 20.4023Z" fill="black" fill-opacity="0.85"/>
<path d="M13.7796 20.4023H34.1468C35.7757 20.4023 36.7015 19.5 36.7015 17.8945V11.8125L37.264 12.2578C38.4007 13.1484 39.5375 11.6602 38.6 10.9336L25.4398 0.585938C24.9593 0.210938 24.4671 0 23.9632 0C23.4593 0 22.9671 0.210938 22.4867 0.585938L9.32655 10.9336C8.38905 11.6602 9.52577 13.1484 10.6625 12.2578L11.225 11.8125V17.8945C11.225 19.5 12.1625 20.4023 13.7796 20.4023Z" fill="white"/>
<path d="M10.6625 12.2578L23.4359 2.23828C23.5882 2.12109 23.7875 2.03906 23.9632 2.03906C24.1507 2.03906 24.35 2.12109 24.5023 2.23828L37.264 12.2578C38.4007 13.1484 39.5375 11.6602 38.6 10.9336L25.4398 0.585938C24.9593 0.210938 24.4789 0 23.9632 0C23.4593 0 22.9671 0.210938 22.4867 0.585938L9.32655 10.9336C8.38905 11.6602 9.52577 13.1484 10.6625 12.2578ZM13.7796 20.4023H34.1468C35.7757 20.4023 36.7015 19.5 36.7015 17.8945V10.1133L34.8734 10.0195V17.4492C34.8734 18.1875 34.4984 18.5742 33.7718 18.5742H14.1546C13.4281 18.5742 13.0531 18.1875 13.0531 17.4492V10.0195L11.225 10.1133V17.8945C11.225 19.5 12.1625 20.4023 13.7796 20.4023ZM20.9046 19.125H27.0218V13.3594C27.0218 12.8789 26.6937 12.5508 26.2132 12.5508H21.725C21.2562 12.5508 20.9046 12.8789 20.9046 13.3594V19.125Z" fill="black" fill-opacity="0.85"/>
</svg>
