<svg width="38" height="26" viewBox="0 0 38 26" fill="none" xmlns="http://www.w3.org/2000/svg">
<path d="M1.49929 13.2422L12.5969 7.57031C12.843 7.44141 13.1477 7.44141 13.4173 7.57031L24.5149 13.2422C25.8626 13.9219 26.5657 12.3047 25.4641 11.7305L14.3313 5.88281C13.3821 5.39062 12.6204 5.39062 11.6829 5.88281L0.526629 11.7305C-0.551496 12.3047 0.151629 13.9219 1.49929 13.2422ZM5.55397 25.793H20.4602C22.054 25.793 22.9915 24.8789 22.9915 23.2969V14.1914C22.7923 14.0977 22.6165 14.0039 22.4173 13.8984L12.9954 9.08203L3.55007 13.9102C3.37429 14.0039 3.21022 14.0859 3.02272 14.1797V23.2969C3.02272 24.8789 3.96022 25.793 5.55397 25.793ZM9.58522 23.9883V16.5352C9.58522 16.0195 9.92507 15.6797 10.4407 15.6797H15.5618C16.0774 15.6797 16.4173 16.0195 16.4173 16.5352V23.9883H9.58522ZM28.9329 25.793C29.4251 25.793 29.8235 25.3711 29.8235 24.8789V6.86719C29.9407 6.84375 30.093 6.83203 30.2688 6.83203C32.1673 6.83203 33.3508 7.75781 35.179 7.75781C35.9876 7.75781 36.3157 7.67578 36.7141 7.48828C37.1594 7.27734 37.3587 6.97266 37.3587 6.46875V1.26562C37.3587 0.949219 37.2063 0.726562 36.761 0.726562C36.4446 0.726562 35.9993 0.949219 35.1321 0.949219C33.3391 0.949219 32.1321 0 30.2219 0C29.4016 0 29.0735 0.105469 28.6868 0.269531C28.2532 0.457031 28.0305 0.796875 28.0305 1.26562V24.8789C28.0305 25.3711 28.4407 25.793 28.9329 25.793ZM1.03054 25.793H33.6907C34.1829 25.793 34.5813 25.3711 34.5813 24.8789C34.5813 24.3867 34.1829 23.9883 33.6907 23.9883H1.03054C0.538348 23.9883 0.128192 24.3867 0.128192 24.8789C0.128192 25.3711 0.538348 25.793 1.03054 25.793Z" fill="black" fill-opacity="0.85"/>
</svg>
