<svg width="24" height="24" viewBox="0 0 24 24" fill="none" xmlns="http://www.w3.org/2000/svg">
<path d="M11.9531 23.9062C18.4922 23.9062 23.9062 18.4805 23.9062 11.9531C23.9062 5.41406 18.4805 0 11.9414 0C5.41406 0 0 5.41406 0 11.9531C0 18.4805 5.42578 23.9062 11.9531 23.9062ZM11.9531 21.9141C6.42188 21.9141 2.00391 17.4844 2.00391 11.9531C2.00391 6.42188 6.41016 1.99219 11.9414 1.99219C17.4727 1.99219 21.9141 6.42188 21.9141 11.9531C21.9141 17.4844 17.4844 21.9141 11.9531 21.9141Z" fill="#007AFF"/>
<path d="M6.50391 16.5117C6.50391 17.3555 7.01953 17.8594 7.89844 17.8594H16.0078C16.8867 17.8594 17.3906 17.3555 17.3906 16.5117V11.625L12.3164 7.35938C12.082 7.16016 11.8125 7.17188 11.5781 7.35938L6.50391 11.6133V16.5117ZM13.5469 16.6875H10.3594V12.7734C10.3594 12.4922 10.5469 12.3047 10.8398 12.3047H13.0664C13.3711 12.3047 13.5469 12.4922 13.5469 12.7734V16.6875ZM4.54688 10.9922C4.54688 11.2617 4.7578 11.5312 5.10938 11.5312C5.29688 11.5312 5.4375 11.4258 5.56641 11.3086L11.6719 6.19922C11.8711 6.02344 12.0469 6.04688 12.2344 6.19922L18.3281 11.3086C18.4805 11.4258 18.6094 11.5312 18.7852 11.5312C19.0898 11.5312 19.3477 11.3203 19.3477 11.0156C19.3477 10.8164 19.2891 10.6875 19.1484 10.5586L12.7969 5.22656C12.2812 4.79297 11.625 4.79297 11.1211 5.22656L4.74609 10.5586C4.61719 10.6875 4.54688 10.8398 4.54688 10.9922ZM15.8438 8.20312L17.3906 9.51562V6.65625C17.3906 6.39844 17.2266 6.21094 16.957 6.21094H16.2891C16.0312 6.21094 15.8438 6.39844 15.8438 6.65625V8.20312Z" fill="black" fill-opacity="0.85"/>
</svg>
