<svg width="24" height="24" viewBox="0 0 24 24" fill="none" xmlns="http://www.w3.org/2000/svg">
<path d="M11.9531 23.9062C18.4922 23.9062 23.9062 18.4805 23.9062 11.9531C23.9062 5.41406 18.4805 0 11.9414 0C5.41406 0 0 5.41406 0 11.9531C0 18.4805 5.42578 23.9062 11.9531 23.9062ZM11.9531 21.9141C6.42188 21.9141 2.00391 17.4844 2.00391 11.9531C2.00391 6.42188 6.41016 1.99219 11.9414 1.99219C17.4727 1.99219 21.9141 6.42188 21.9141 11.9531C21.9141 17.4844 17.4844 21.9141 11.9531 21.9141Z" fill="#007AFF"/>
<path d="M6.66754 12.2227L11.7418 8.23828C11.7887 8.19141 11.8824 8.16797 11.9293 8.16797C11.9879 8.16797 12.0699 8.19141 12.1285 8.23828L17.2027 12.2227C17.6715 12.5977 18.1637 11.9766 17.7652 11.6602L12.5504 7.53516C12.3746 7.40625 12.1402 7.3125 11.9293 7.3125C11.7184 7.3125 11.5074 7.39453 11.3199 7.53516L6.09332 11.6602C5.69488 11.9766 6.18707 12.5977 6.66754 12.2227ZM7.89801 15.4336H15.9605C16.5934 15.4336 16.9684 15.0703 16.9684 14.4258V12.832C16.816 12.7617 16.6754 12.668 16.4879 12.5391L11.9293 8.95312L7.35895 12.5391C7.18316 12.668 7.05426 12.7617 6.89019 12.832V14.4258C6.89019 15.0703 7.26519 15.4336 7.89801 15.4336ZM10.7223 14.6602L10.7105 12.6445C10.7105 12.4453 10.8512 12.3164 11.0504 12.3164H12.8316C13.0191 12.3164 13.148 12.4453 13.148 12.6445V14.6602H10.7223ZM5.67145 11.1211L7.80426 9.45703H6.74957C6.56207 9.45703 6.38629 9.49219 6.24566 9.59766L3.24566 11.6719C2.99957 11.8594 3.10504 12.293 3.49176 12.293H5.35504C5.20269 11.9062 5.23785 11.4492 5.67145 11.1211ZM6.19879 14.4258V12.9492L3.98395 12.9609V14.4258C3.98395 15.0703 4.35895 15.4336 5.00348 15.4336H6.48004C6.30426 15.1523 6.19879 14.8242 6.19879 14.4258ZM18.1871 11.1211C18.6324 11.4492 18.6676 11.9062 18.5152 12.293H20.3785C20.7652 12.293 20.8707 11.8828 20.6012 11.6719L17.6129 9.59766C17.4723 9.49219 17.3199 9.45703 17.109 9.45703H16.0543L18.1871 11.1211ZM17.6598 14.4258C17.6598 14.8242 17.566 15.1523 17.3785 15.4336H18.8551C19.4996 15.4336 19.8746 15.0703 19.8746 14.4258V12.9609L17.6598 12.9492V14.4258Z" fill="black" fill-opacity="0.85"/>
</svg>
