<svg width="22" height="22" viewBox="0 0 22 22" fill="none" xmlns="http://www.w3.org/2000/svg">
<path d="M3.67969 21.5977H17.8945C20.3555 21.5977 21.5742 20.3789 21.5742 17.9648V3.65625C21.5742 1.24219 20.3555 0.0234375 17.8945 0.0234375H3.67969C1.23047 0.0234375 0 1.23047 0 3.65625V17.9648C0 20.3906 1.23047 21.5977 3.67969 21.5977ZM3.70312 19.7109C2.53125 19.7109 1.88672 19.0898 1.88672 17.8711V3.75C1.88672 2.53125 2.53125 1.91016 3.70312 1.91016H17.8711C19.0312 1.91016 19.6875 2.53125 19.6875 3.75V17.8711C19.6875 19.0898 19.0312 19.7109 17.8711 19.7109H3.70312Z" fill="#007AFF"/>
<path d="M6.29297 11.9297C6.29297 12.2695 6.52734 12.5156 6.86719 12.5156H7.64062C7.41797 12.8438 7.30078 13.2422 7.30078 13.582C7.30078 15.3867 8.90625 16.4297 10.8281 16.4297C12.1055 16.4297 13.2656 15.9375 13.875 14.9297C14.0508 14.6719 14.1445 14.3906 14.1562 14.0977C14.168 13.6875 13.9102 13.3828 13.4648 13.3828C13.1719 13.3828 12.9492 13.5 12.7734 13.8867C12.4688 14.6602 11.6719 15.0469 10.8047 15.0469C9.70312 15.0469 8.77734 14.543 8.77734 13.5234C8.77734 13.1602 8.94141 12.7617 9.29297 12.5156H14.707C15.0352 12.5156 15.2695 12.2695 15.2695 11.9297C15.2695 11.6133 15.0352 11.3555 14.707 11.3555H6.86719C6.52734 11.3555 6.29297 11.6133 6.29297 11.9297ZM6.31641 9.58594C6.31641 9.90234 6.55078 10.1602 6.89062 10.1602H14.7305C15.0586 10.1602 15.293 9.90234 15.293 9.58594C15.293 9.24609 15.0586 9.01172 14.7305 9.01172H13.9453C14.1797 8.67188 14.2852 8.27344 14.2852 7.93359C14.2852 6.12891 12.6797 5.08594 10.7578 5.08594C9.48047 5.08594 8.33203 5.57812 7.71094 6.59766C7.54688 6.85547 7.44141 7.125 7.42969 7.42969C7.42969 7.82812 7.67578 8.13281 8.13281 8.13281C8.41406 8.13281 8.64844 8.01562 8.8125 7.62891C9.12891 6.85547 9.91406 6.46875 10.793 6.46875C11.8828 6.46875 12.8203 6.98438 12.8203 7.99219C12.8203 8.35547 12.6445 8.75391 12.293 9.01172H6.89062C6.55078 9.01172 6.31641 9.24609 6.31641 9.58594Z" fill="black" fill-opacity="0.85"/>
</svg>
