<svg width="19" height="27" viewBox="0 0 19 27" fill="none" xmlns="http://www.w3.org/2000/svg">
<path d="M3.05859 2.85938C3.51562 2.85938 3.89062 2.48438 3.89062 2.02734C3.89062 1.57031 3.51562 1.19531 3.05859 1.19531C2.60156 1.19531 2.22656 1.57031 2.22656 2.02734C2.22656 2.48438 2.60156 2.85938 3.05859 2.85938ZM9.49219 1.67578C9.94922 1.67578 10.3242 1.30078 10.3242 0.84375C10.3242 0.375 9.94922 0 9.49219 0C9.03516 0 8.66016 0.375 8.66016 0.84375C8.66016 1.30078 9.03516 1.67578 9.49219 1.67578ZM15.9258 2.85938C16.3828 2.85938 16.7578 2.48438 16.7578 2.02734C16.7578 1.57031 16.3828 1.19531 15.9258 1.19531C15.4688 1.19531 15.0938 1.57031 15.0938 2.02734C15.0938 2.48438 15.4688 2.85938 15.9258 2.85938Z" fill="#007AFF"/>
<path d="M5.21484 5.60156C5.67188 5.60156 6.04688 5.22656 6.04688 4.76953C6.04688 4.3125 5.67188 3.9375 5.21484 3.9375C4.74609 3.9375 4.37109 4.3125 4.37109 4.76953C4.37109 5.22656 4.74609 5.60156 5.21484 5.60156ZM9.49219 5.16797C9.94922 5.16797 10.3242 4.79297 10.3242 4.33594C10.3242 3.87891 9.94922 3.50391 9.49219 3.50391C9.03516 3.50391 8.66016 3.87891 8.66016 4.33594C8.66016 4.79297 9.03516 5.16797 9.49219 5.16797ZM13.7812 5.60156C14.2383 5.60156 14.6133 5.22656 14.6133 4.76953C14.6133 4.3125 14.2383 3.9375 13.7812 3.9375C13.3125 3.9375 12.9492 4.3125 12.9492 4.76953C12.9492 5.22656 13.3125 5.60156 13.7812 5.60156Z" fill="#007AFF"/>
<path d="M3.53906 12H15.3516C14.5898 10.8633 13.7695 9.72656 12.9023 8.56641C12.2695 7.73438 11.8594 7.26562 10.7109 7.26562H8.17969C7.04297 7.26562 6.63281 7.73438 5.98828 8.56641C5.12109 9.72656 4.30078 10.8633 3.53906 12ZM0.0820312 19.3125H6.90234C7.26562 18.2578 8.25 17.5195 9.45703 17.5195C10.6406 17.5195 11.625 18.2578 12 19.3125H18.8086C18.5391 17.707 17.7188 15.832 16.5469 13.8516H2.35547C1.17188 15.832 0.351562 17.707 0.0820312 19.3125ZM9.45703 21.3633C10.1016 21.3633 10.582 20.8828 10.582 20.2266C10.582 19.582 10.1016 19.1016 9.45703 19.1016C8.78906 19.1016 8.32031 19.582 8.32031 20.2266C8.32031 20.8828 8.78906 21.3633 9.45703 21.3633ZM6.90234 26.9648H11.9883C16.2891 26.9648 18.6094 24.8203 18.8906 21.1641H11.9883C11.6133 22.207 10.6289 22.9453 9.45703 22.9453C8.25 22.9453 7.27734 22.207 6.91406 21.1641H0C0.28125 24.8203 2.60156 26.9648 6.90234 26.9648Z" fill="black" fill-opacity="0.85"/>
</svg>
