<svg width="27" height="26" viewBox="0 0 27 26" fill="none" xmlns="http://www.w3.org/2000/svg">
<path d="M4.75333 22.0898C9.96818 22.0898 12.7924 17.6602 17.7026 17.6602C18.851 17.6602 19.8822 17.918 21.0776 18.5977C21.5697 18.8789 22.0385 18.6914 22.2846 18.3398C22.5776 17.918 22.5541 17.2852 21.8979 16.8984C20.5736 16.1367 19.2026 15.7734 17.7026 15.7734C12.394 15.7734 9.59318 20.2031 4.75333 20.2031C3.59318 20.2031 2.57364 19.9453 1.37833 19.2539C0.886144 18.9727 0.405676 19.1602 0.171301 19.5234C-0.109949 19.9453 -0.086512 20.5898 0.558019 20.9531C1.88224 21.7266 3.25333 22.0898 4.75333 22.0898Z" fill="#007AFF"/>
<path d="M4.76505 15.8086C9.97989 15.8086 12.8041 11.3789 17.7143 11.3789C18.8627 11.3789 19.894 11.6367 21.0893 12.3164C21.5815 12.5977 22.0502 12.4102 22.2963 12.0586C22.5893 11.6367 22.5658 11.0039 21.9096 10.6172C20.5854 9.85547 19.2143 9.49219 17.7143 9.49219C12.4057 9.49219 9.60489 13.9219 4.76505 13.9219C3.60489 13.9219 2.58536 13.6523 1.39005 12.9727C0.897863 12.6914 0.417394 12.8789 0.183019 13.2422C-0.0982304 13.6641 -0.0747929 14.2969 0.569738 14.6719C1.89396 15.4336 3.26505 15.8086 4.76505 15.8086Z" fill="#007AFF"/>
<path d="M4.75333 9.51562C9.96818 9.51562 12.7924 5.09766 17.7026 5.09766C18.851 5.09766 19.8822 5.35547 21.0776 6.03516C21.5697 6.31641 22.0385 6.12891 22.2846 5.77734C22.5776 5.35547 22.5541 4.72266 21.8979 4.33594C20.5736 3.57422 19.2026 3.21094 17.7026 3.21094C12.394 3.21094 9.59318 7.62891 4.75333 7.62891C3.59318 7.62891 2.57364 7.37109 1.37833 6.69141C0.886144 6.41016 0.405676 6.59766 0.171301 6.96094C-0.109949 7.38281 -0.086512 8.01562 0.558019 8.39062C1.88224 9.15234 3.25333 9.51562 4.75333 9.51562Z" fill="#007AFF"/>
<path d="M20.1407 25.3008C23.8321 25.3008 26.8086 22.3828 26.8086 18.7383C26.8086 16.8047 25.8828 15.0117 25.2266 13.7578L22.6133 8.89453C22.0742 7.89844 21.3008 7.30078 20.1407 7.30078C18.9805 7.30078 18.2071 7.89844 17.668 8.89453L15.0664 13.7695C14.4102 15.0117 13.4727 16.8047 13.4727 18.7383C13.4727 22.3828 16.461 25.3008 20.1407 25.3008Z" fill="white"/>
<path d="M20.1406 23.6953C22.9648 23.6953 25.2148 21.4922 25.2148 18.7383C25.2148 17.2148 24.4531 15.7266 23.8085 14.5195L21.1952 9.65625C20.914 9.12891 20.6562 8.90625 20.1406 8.90625C19.6132 8.90625 19.3671 9.12891 19.0859 9.65625L16.4843 14.5195C15.8398 15.7266 15.0781 17.2148 15.0781 18.7383C15.0781 21.4922 17.3281 23.6953 20.1406 23.6953ZM20.1406 22.1484C18.1835 22.1484 16.6249 20.6484 16.6249 18.7383C16.6249 17.5781 17.2226 16.4531 17.8554 15.2461L20.0351 11.2031C20.0937 11.0859 20.2109 11.0859 20.2695 11.2031L22.414 15.2461C23.0585 16.4531 23.6679 17.5781 23.6679 18.7383C23.6679 20.6484 22.0976 22.1484 20.1406 22.1484Z" fill="black" fill-opacity="0.85"/>
</svg>
