<svg width="24" height="24" viewBox="0 0 24 24" fill="none" xmlns="http://www.w3.org/2000/svg">
<path d="M11.9531 23.918C18.4922 23.918 23.9062 18.5039 23.9062 11.9648C23.9062 5.4375 18.4805 0.0117188 11.9414 0.0117188C5.41406 0.0117188 0 5.4375 0 11.9648C0 18.5039 5.42578 23.918 11.9531 23.918Z" fill="#FFCC00"/>
<path d="M8.09766 11.9648C8.09766 7.25391 11.5898 4.20703 16.043 4.20703C16.4414 4.20703 16.7344 4.51172 16.7344 4.89844C16.7344 5.27344 16.4531 5.58984 16.043 5.58984C13.5352 5.58984 11.4727 6.67969 10.3477 8.54297C10.8164 8.25 11.3672 8.09766 11.9531 8.09766C14.0508 8.09766 15.8086 9.84375 15.8086 11.9648C15.8086 16.6758 12.3164 19.7227 7.875 19.7227C7.45312 19.7227 7.17188 19.4062 7.17188 19.043C7.17188 18.6562 7.45312 18.3398 7.875 18.3398C10.3711 18.3398 12.4336 17.2617 13.5586 15.3984C13.0898 15.6797 12.5391 15.832 11.9531 15.832C9.85547 15.832 8.09766 14.0859 8.09766 11.9648ZM10.7578 11.9648C10.7578 12.6211 11.2969 13.1602 11.9531 13.1602C12.6094 13.1602 13.1484 12.6094 13.1484 11.9648C13.1484 11.3086 12.6094 10.7695 11.9531 10.7695C11.2969 10.7695 10.7578 11.3086 10.7578 11.9648Z" fill="black" fill-opacity="0.85"/>
</svg>
