<svg width="22" height="22" viewBox="0 0 22 22" fill="none" xmlns="http://www.w3.org/2000/svg">
<path d="M3.67969 21.5977H17.8945C20.3555 21.5977 21.5742 20.3789 21.5742 17.9648V3.65625C21.5742 1.24219 20.3555 0.0234375 17.8945 0.0234375H3.67969C1.23047 0.0234375 0 1.23047 0 3.65625V17.9648C0 20.3906 1.23047 21.5977 3.67969 21.5977Z" fill="#FFCC00"/>
<path d="M10.7812 16.3359C10.1602 16.3359 9.82031 15.8789 9.82031 15.2344V6.12891C9.82031 5.48438 10.1602 5.02734 10.7812 5.02734C11.4141 5.02734 11.7656 5.44922 11.7656 6.12891V15.2344C11.7656 15.9141 11.4141 16.3359 10.7812 16.3359Z" fill="black" fill-opacity="0.85"/>
</svg>
