<svg width="24" height="24" viewBox="0 0 24 24" fill="none" xmlns="http://www.w3.org/2000/svg">
<path d="M11.9531 23.9062C18.4922 23.9062 23.9062 18.4805 23.9062 11.9531C23.9062 5.41406 18.4805 0 11.9414 0C5.41406 0 0 5.41406 0 11.9531C0 18.4805 5.42578 23.9062 11.9531 23.9062Z" fill="#FFCC00"/>
<path d="M13.4297 18.0117C13.1719 18.0117 12.9727 17.9414 12.7031 17.6836L8.33203 13.5703C8.09766 13.3359 7.89844 13.1484 7.89844 12.7383C7.89844 12.2227 8.26172 11.9062 8.76562 11.9062H10.5234C11.7422 11.9062 12.5391 11.4375 12.7617 10.5H8.49609C8.15625 10.5 7.89844 10.2305 7.89844 9.90234C7.89844 9.55078 8.15625 9.29297 8.49609 9.29297H12.7266C12.5039 8.42578 11.7539 7.92188 10.6758 7.92188H8.50781C8.12109 7.92188 7.79297 7.58203 7.79297 7.19531C7.79297 6.78516 8.12109 6.48047 8.50781 6.48047H11.7539C12.1406 6.48047 12.5273 6.48047 12.9141 6.48047H15.457C15.8086 6.48047 16.0547 6.71484 16.0547 7.06641C16.0547 7.39453 15.8086 7.67578 15.457 7.67578H13.6992C14.0859 8.10938 14.3203 8.67188 14.4141 9.29297H15.5273C15.8789 9.29297 16.1133 9.55078 16.1133 9.90234C16.1133 10.2305 15.8789 10.5 15.5273 10.5H14.3906C14.1445 12.0234 12.9727 13.3477 10.5938 13.3477H10.2656L13.8398 16.6758C14.0156 16.8516 14.1562 17.0625 14.1562 17.3086C14.1562 17.7539 13.8281 18.0117 13.4297 18.0117Z" fill="black" fill-opacity="0.85"/>
</svg>
