<svg width="24" height="24" viewBox="0 0 24 24" fill="none" xmlns="http://www.w3.org/2000/svg">
<path d="M11.9531 23.9062C18.4922 23.9062 23.9062 18.4805 23.9062 11.9531C23.9062 5.41406 18.4805 0 11.9414 0C5.41406 0 0 5.41406 0 11.9531C0 18.4805 5.42578 23.9062 11.9531 23.9062Z" fill="#FFCC00"/>
<path d="M3.82031 11.9531C3.82031 9.65625 5.27344 8.12109 7.42969 8.12109C8.58984 8.12109 9.5625 8.61328 10.6055 9.60938L11.9648 10.9219L13.3359 9.60938C14.4023 8.57812 15.3633 8.12109 16.5 8.12109C18.668 8.12109 20.1211 9.65625 20.1211 11.9531C20.1211 14.2383 18.668 15.7734 16.5 15.7734C15.375 15.7734 14.4141 15.3164 13.3359 14.2852L11.9648 12.9844L10.6055 14.2852C9.55078 15.293 8.57812 15.7734 7.42969 15.7734C5.27344 15.7734 3.82031 14.2383 3.82031 11.9531ZM5.32031 11.9531C5.32031 13.3711 6.15234 14.2852 7.42969 14.2852C8.13281 14.2852 8.74219 13.957 9.53906 13.207L10.8984 11.9531L9.53906 10.6992C8.71875 9.92578 8.12109 9.60938 7.42969 9.60938C6.15234 9.60938 5.32031 10.5352 5.32031 11.9531ZM13.043 11.9531L14.3906 13.207C15.1875 13.957 15.7969 14.2852 16.5 14.2852C17.7773 14.2852 18.6211 13.3711 18.6211 11.9531C18.6211 10.5352 17.7773 9.60938 16.5 9.60938C15.8203 9.60938 15.2109 9.92578 14.3906 10.6992L13.043 11.9531Z" fill="black" fill-opacity="0.85"/>
</svg>
