<svg width="24" height="24" viewBox="0 0 24 24" fill="none" xmlns="http://www.w3.org/2000/svg">
<path d="M11.9531 23.9062C18.4922 23.9062 23.9062 18.4805 23.9062 11.9531C23.9062 5.41406 18.4805 0 11.9414 0C5.41406 0 0 5.41406 0 11.9531C0 18.4805 5.42578 23.9062 11.9531 23.9062ZM11.9531 21.9141C6.42188 21.9141 2.00391 17.4844 2.00391 11.9531C2.00391 6.42188 6.41016 1.99219 11.9414 1.99219C17.4727 1.99219 21.9141 6.42188 21.9141 11.9531C21.9141 17.4844 17.4844 21.9141 11.9531 21.9141Z" fill="#007AFF"/>
<path d="M4.05469 11.9531C4.05469 14.1797 5.46094 15.6562 7.55859 15.6562C8.67188 15.6562 9.60938 15.1875 10.6289 14.2148L11.9531 12.9492L13.2891 14.2148C14.332 15.2109 15.2578 15.6562 16.3477 15.6562C18.457 15.6562 19.8633 14.1797 19.8633 11.9531C19.8633 9.72656 18.457 8.23828 16.3477 8.23828C15.2461 8.23828 14.3203 8.68359 13.2891 9.67969L11.9531 10.957L10.6289 9.67969C9.62109 8.71875 8.68359 8.23828 7.55859 8.23828C5.46094 8.23828 4.05469 9.72656 4.05469 11.9531ZM5.50781 11.9531C5.50781 10.582 6.31641 9.67969 7.55859 9.67969C8.22656 9.67969 8.8125 9.98438 9.60938 10.7344L10.9219 11.9531L9.60938 13.1719C8.83594 13.8984 8.23828 14.2148 7.55859 14.2148C6.31641 14.2148 5.50781 13.3242 5.50781 11.9531ZM12.9961 11.9531L14.2969 10.7344C15.0938 9.98438 15.6914 9.67969 16.3477 9.67969C17.5898 9.67969 18.4102 10.582 18.4102 11.9531C18.4102 13.3242 17.5898 14.2148 16.3477 14.2148C15.668 14.2148 15.0703 13.8984 14.2969 13.1719L12.9961 11.9531Z" fill="black" fill-opacity="0.85"/>
</svg>
