<svg width="28" height="21" viewBox="0 0 28 21" fill="none" xmlns="http://www.w3.org/2000/svg">
<path d="M10.4883 15.9492C10.4883 16.3125 10.7695 16.6055 11.1445 16.6055C11.4961 16.6055 11.7891 16.3125 11.7891 15.9492V13.5234C11.7891 13.1719 11.4961 12.8789 11.1445 12.8789C10.7695 12.8789 10.4883 13.1719 10.4883 13.5234V15.9492ZM13.1719 15.9492C13.1719 16.3125 13.4648 16.6055 13.8398 16.6055C14.1914 16.6055 14.4844 16.3125 14.4844 15.9492V13.5234C14.4844 13.1719 14.1914 12.8789 13.8398 12.8789C13.4648 12.8789 13.1719 13.1719 13.1719 13.5234V15.9492ZM15.8672 15.9492C15.8672 16.3125 16.1602 16.6055 16.5234 16.6055C16.8867 16.6055 17.1797 16.3125 17.1797 15.9492V13.5234C17.1797 13.1719 16.8867 12.8789 16.5234 12.8789C16.1602 12.8789 15.8672 13.1719 15.8672 13.5234V15.9492ZM18.5625 15.9492C18.5625 16.3125 18.8438 16.6055 19.2188 16.6055C19.582 16.6055 19.8633 16.3125 19.8633 15.9492V13.5234C19.8633 13.1719 19.582 12.8789 19.2188 12.8789C18.8438 12.8789 18.5625 13.1719 18.5625 13.5234V15.9492ZM21.2578 15.9492C21.2578 16.3125 21.5391 16.6055 21.9141 16.6055C22.2656 16.6055 22.5586 16.3125 22.5586 15.9492V13.5234C22.5586 13.1719 22.2656 12.8789 21.9141 12.8789C21.5391 12.8789 21.2578 13.1719 21.2578 13.5234V15.9492ZM0 14.7422C0 17.7188 2.30859 20.0273 5.56641 20.0273H22.1016C25.3594 20.0273 27.668 17.7188 27.668 14.7422C27.668 13.8633 27.4102 13.0781 27.1055 12.3398L23.1562 2.85938C22.3828 0.984375 20.7891 0.0234375 18.6914 0.0234375H8.97656C6.87891 0.0234375 5.28516 0.984375 4.51172 2.85938L0.550781 12.3398C0.257812 13.0664 0 13.8633 0 14.7422ZM1.88672 14.7422C1.88672 12.8086 3.35156 11.3438 5.56641 11.3438H22.1016C24.3164 11.3438 25.7812 12.8086 25.7812 14.7422C25.7812 16.9102 24.3164 18.1406 22.1016 18.1406H5.56641C3.35156 18.1406 1.88672 16.6758 1.88672 14.7422ZM3.78516 9.76172L6.33984 3.33984C6.78516 2.22656 7.74609 1.66406 9.07031 1.66406H18.5977C19.9219 1.66406 20.8945 2.22656 21.3281 3.33984L23.8828 9.76172C23.332 9.5625 22.7461 9.45703 22.1016 9.45703H5.56641C4.92188 9.45703 4.32422 9.5625 3.78516 9.76172Z" fill="black" fill-opacity="0.85"/>
</svg>
