<svg width="20" height="27" viewBox="0 0 20 27" fill="none" xmlns="http://www.w3.org/2000/svg">
<path d="M1.88672 22.4297V3.98438H17.6953V22.4297H1.88672ZM9.80859 25.2422C9.23438 25.2422 8.78906 24.7852 8.78906 24.2227C8.78906 23.6719 9.23438 23.2148 9.80859 23.2148C10.3594 23.2148 10.8164 23.6719 10.8164 24.2227C10.8164 24.7852 10.3594 25.2422 9.80859 25.2422ZM9.78516 2.78906C9.43359 2.78906 9.15234 2.49609 9.15234 2.14453C9.15234 1.80469 9.43359 1.5 9.78516 1.5C10.1367 1.5 10.4297 1.80469 10.4297 2.14453C10.4297 2.49609 10.1367 2.78906 9.78516 2.78906Z" fill="#FFCC00"/>
<path d="M3.24609 26.4023H16.3359C18.2812 26.4023 19.582 25.1602 19.582 23.3086V3.10547C19.582 1.25391 18.2812 0 16.3359 0H3.24609C1.30078 0 0 1.25391 0 3.10547V23.3086C0 25.1602 1.30078 26.4023 3.24609 26.4023ZM1.88672 22.4297V3.98438H17.6953V22.4297H1.88672ZM9.80859 25.2422C9.23438 25.2422 8.78906 24.7852 8.78906 24.2227C8.78906 23.6719 9.23438 23.2148 9.80859 23.2148C10.3594 23.2148 10.8164 23.6719 10.8164 24.2227C10.8164 24.7852 10.3594 25.2422 9.80859 25.2422ZM9.78516 2.78906C9.43359 2.78906 9.15234 2.49609 9.15234 2.14453C9.15234 1.80469 9.43359 1.5 9.78516 1.5C10.1367 1.5 10.4297 1.80469 10.4297 2.14453C10.4297 2.49609 10.1367 2.78906 9.78516 2.78906Z" fill="black" fill-opacity="0.85"/>
</svg>
