<svg width="20" height="27" viewBox="0 0 20 27" fill="none" xmlns="http://www.w3.org/2000/svg">
<path d="M1.88672 22.9922V3.42188C1.88672 2.46094 2.47266 1.88672 3.48047 1.88672H16.1016C17.0977 1.88672 17.6953 2.46094 17.6953 3.42188V22.9922C17.6953 23.9531 17.0977 24.5156 16.1016 24.5156H3.48047C2.47266 24.5156 1.88672 23.9531 1.88672 22.9922Z" fill="#FFCC00"/>
<path d="M0 23.3086C0 25.1602 1.30078 26.4023 3.24609 26.4023H16.3359C18.2812 26.4023 19.582 25.1602 19.582 23.3086V3.10547C19.582 1.25391 18.2812 0 16.3359 0H3.24609C1.30078 0 0 1.25391 0 3.10547V23.3086ZM1.88672 22.9922V3.42188C1.88672 2.46094 2.47266 1.88672 3.48047 1.88672H16.1016C17.0977 1.88672 17.6953 2.46094 17.6953 3.42188V22.9922C17.6953 23.9531 17.0977 24.5156 16.1016 24.5156H3.48047C2.47266 24.5156 1.88672 23.9531 1.88672 22.9922ZM6.46875 23.625H13.1133C13.4414 23.625 13.6641 23.4023 13.6641 23.0742C13.6641 22.7461 13.4414 22.5352 13.1133 22.5352H6.46875C6.15234 22.5352 5.92969 22.7461 5.92969 23.0742C5.92969 23.4023 6.15234 23.625 6.46875 23.625Z" fill="black" fill-opacity="0.85"/>
</svg>
