<svg width="28" height="22" viewBox="0 0 28 22" fill="none" xmlns="http://www.w3.org/2000/svg">
<path d="M2.14486 11.4492C1.7933 11.4609 1.50033 11.1562 1.48861 10.793C1.47689 10.4531 1.78158 10.1602 2.13314 10.1602C2.49642 10.1602 2.77767 10.4531 2.77767 10.793C2.77767 11.1562 2.48471 11.4375 2.14486 11.4492ZM3.97299 19.7109V1.91016H23.6605V19.7109H3.97299ZM25.4417 11.8125C24.8792 11.8125 24.4456 11.3555 24.4456 10.793C24.4456 10.2422 24.8909 9.78516 25.4534 9.78516C26.0159 9.78516 26.4612 10.2422 26.4612 10.793C26.4612 11.3555 26.0159 11.8125 25.4417 11.8125Z" fill="#FFCC00"/>
<path d="M3.67969 21.5977H23.9531C26.4141 21.5977 27.6328 20.3789 27.6328 17.9648V3.65625C27.6328 1.24219 26.4141 0.0234375 23.9531 0.0234375H3.67969C1.23047 0.0234375 0 1.23047 0 3.65625V17.9648C0 20.3906 1.23047 21.5977 3.67969 21.5977ZM2.14453 11.4492C1.79297 11.4609 1.5 11.1562 1.48828 10.793C1.47656 10.4531 1.78125 10.1602 2.13281 10.1602C2.49609 10.1602 2.77734 10.4531 2.77734 10.793C2.77734 11.1562 2.48438 11.4375 2.14453 11.4492ZM3.97266 19.7109V1.91016H23.6602V19.7109H3.97266ZM25.4414 11.8125C24.8789 11.8125 24.4453 11.3555 24.4453 10.793C24.4453 10.2422 24.8906 9.78516 25.4531 9.78516C26.0156 9.78516 26.4609 10.2422 26.4609 10.793C26.4609 11.3555 26.0156 11.8125 25.4414 11.8125Z" fill="black" fill-opacity="0.85"/>
</svg>
