<svg width="32" height="29" viewBox="0 0 32 29" fill="none" xmlns="http://www.w3.org/2000/svg">
<path d="M3.67969 25.2481H23.9648C26.4141 25.2481 27.6445 24.0293 27.6445 21.6153V7.30664C27.6445 4.89258 26.4141 3.67383 23.9648 3.67383H3.67969C1.24219 3.67383 0 4.88086 0 7.30664V21.6153C0 24.041 1.24219 25.2481 3.67969 25.2481ZM3.71484 23.3614C2.54297 23.3614 1.88672 22.7403 1.88672 21.5215V7.40039C1.88672 6.18164 2.54297 5.56055 3.71484 5.56055H23.9297C25.0898 5.56055 25.7578 6.18164 25.7578 7.40039V21.5215C25.7578 22.7403 25.0898 23.3614 23.9297 23.3614H3.71484ZM9.29297 22.459H18.3516C18.668 22.459 18.8906 22.2481 18.8906 21.92C18.8906 21.5918 18.668 21.3692 18.3516 21.3692H9.29297C8.97656 21.3692 8.74219 21.5918 8.74219 21.92C8.74219 22.2481 8.97656 22.459 9.29297 22.459Z" fill="#007AFF"/>
<path d="M22.2422 26.8535H27.5742C29.9062 26.8535 31.4648 25.3301 31.4648 23.0567V11.3848C31.4648 9.11133 29.9062 7.58789 27.5742 7.58789H22.2422C19.8984 7.58789 18.3516 9.11133 18.3516 11.3848V23.0567C18.3516 25.3301 19.8984 26.8535 22.2422 26.8535Z" fill="white"/>
<path d="M22.2422 25.2481H27.5742C29.0273 25.2481 29.8594 24.4512 29.8594 23.0567V11.3848C29.8594 9.99024 29.0273 9.18164 27.5742 9.18164H22.2422C20.7891 9.18164 19.9453 9.99024 19.9453 11.3848V23.0567C19.9453 24.4512 20.7891 25.2481 22.2422 25.2481ZM22.2656 23.7129C21.75 23.7129 21.4805 23.4434 21.4805 22.9043V11.5371C21.4805 10.9981 21.75 10.7168 22.2656 10.7168H27.5508C28.0664 10.7168 28.3242 10.9981 28.3242 11.5371V22.9043C28.3242 23.4434 28.0664 23.7129 27.5508 23.7129H22.2656ZM23.9648 12.3926H25.8047C26.1094 12.3926 26.3555 12.1582 26.3555 11.8418C26.3555 11.5489 26.1094 11.3145 25.8047 11.3145H23.9648C23.6602 11.3145 23.4258 11.5489 23.4258 11.8418C23.4258 12.1582 23.6602 12.3926 23.9648 12.3926Z" fill="#007AFF"/>
<path d="M25.8164 28.295C26.6367 29.1035 27.9609 29.1035 28.7695 28.2715C29.5547 27.4629 29.5664 26.1621 28.7695 25.3535L4.04297 0.626961C3.23438 -0.181633 1.91016 -0.193352 1.08984 0.626961C0.29297 1.42384 0.29297 2.75978 1.08984 3.56837L25.8164 28.295Z" fill="white"/>
<path d="M26.5078 27.6035C26.9414 28.0254 27.6328 28.0371 28.0547 27.6153C28.4883 27.1817 28.5 26.4785 28.0781 26.0567L3.35156 1.31836C2.92969 0.884766 2.22656 0.884766 1.79297 1.31836C1.37109 1.74024 1.37109 2.45508 1.79297 2.86524L26.5078 27.6035Z" fill="black" fill-opacity="0.85"/>
</svg>
