<svg width="32" height="25" viewBox="0 0 32 25" fill="none" xmlns="http://www.w3.org/2000/svg">
<path d="M3.67969 23.2031H23.9648C26.4141 23.2031 27.6445 21.9844 27.6445 19.5703V5.26172C27.6445 2.84766 26.4141 1.62891 23.9648 1.62891H3.67969C1.24219 1.62891 0 2.83594 0 5.26172V19.5703C0 21.9961 1.24219 23.2031 3.67969 23.2031ZM3.71484 21.3164C2.54297 21.3164 1.88672 20.6953 1.88672 19.4766V5.35547C1.88672 4.13672 2.54297 3.51562 3.71484 3.51562H23.9297C25.0898 3.51562 25.7578 4.13672 25.7578 5.35547V19.4766C25.7578 20.6953 25.0898 21.3164 23.9297 21.3164H3.71484ZM9.29297 20.4141H18.3516C18.668 20.4141 18.8906 20.2031 18.8906 19.875C18.8906 19.5469 18.668 19.3242 18.3516 19.3242H9.29297C8.97656 19.3242 8.74219 19.5469 8.74219 19.875C8.74219 20.2031 8.97656 20.4141 9.29297 20.4141Z" fill="#007AFF"/>
<path d="M22.2422 24.8086H27.5742C29.9062 24.8086 31.4648 23.2852 31.4648 21.0117V9.33984C31.4648 7.06641 29.9062 5.54297 27.5742 5.54297H22.2422C19.8984 5.54297 18.3516 7.06641 18.3516 9.33984V21.0117C18.3516 23.2852 19.8984 24.8086 22.2422 24.8086Z" fill="white"/>
<path d="M22.2422 23.2031H27.5742C29.0273 23.2031 29.8594 22.4062 29.8594 21.0117V9.33984C29.8594 7.94531 29.0273 7.13672 27.5742 7.13672H22.2422C20.7891 7.13672 19.9453 7.94531 19.9453 9.33984V21.0117C19.9453 22.4062 20.7891 23.2031 22.2422 23.2031ZM22.2656 21.668C21.75 21.668 21.4805 21.3984 21.4805 20.8594V9.49219C21.4805 8.95312 21.75 8.67188 22.2656 8.67188H27.5508C28.0664 8.67188 28.3242 8.95312 28.3242 9.49219V20.8594C28.3242 21.3984 28.0664 21.668 27.5508 21.668H22.2656ZM23.3086 21.0703H26.4844C26.7188 21.0703 26.9062 20.9062 26.9062 20.6602C26.9062 20.4375 26.7188 20.2617 26.4844 20.2617H23.3086C23.0742 20.2617 22.9102 20.4375 22.9102 20.6602C22.9102 20.918 23.0508 21.0703 23.3086 21.0703ZM23.9648 10.3477H25.8047C26.1094 10.3477 26.3555 10.1133 26.3555 9.79688C26.3555 9.50391 26.1094 9.26953 25.8047 9.26953H23.9648C23.6602 9.26953 23.4258 9.50391 23.4258 9.79688C23.4258 10.1133 23.6602 10.3477 23.9648 10.3477Z" fill="black" fill-opacity="0.85"/>
</svg>
