<svg width="16" height="25" viewBox="0 0 16 25" fill="none" xmlns="http://www.w3.org/2000/svg">
<path d="M3.43359 22.9219C2.4375 22.9219 1.88672 22.3945 1.88672 21.457V3.35156C1.88672 2.41406 2.4375 1.88672 3.43359 1.88672H11.6367C12.6211 1.88672 13.1719 2.41406 13.1719 3.35156V21.457C13.1719 22.3945 12.6211 22.9219 11.6367 22.9219H3.43359Z" fill="#FFCC00"/>
<path d="M3.1875 24.8086H11.8711C13.7812 24.8086 15.0586 23.5898 15.0586 21.7617V3.04688C15.0586 1.21875 13.7812 0 11.8711 0H3.1875C1.27734 0 0 1.21875 0 3.04688V21.7617C0 23.5898 1.27734 24.8086 3.1875 24.8086ZM3.43359 22.9219C2.4375 22.9219 1.88672 22.3945 1.88672 21.457V3.35156C1.88672 2.41406 2.4375 1.88672 3.43359 1.88672H11.6367C12.6211 1.88672 13.1719 2.41406 13.1719 3.35156V21.457C13.1719 22.3945 12.6211 22.9219 11.6367 22.9219H3.43359ZM5.71875 23.1914H9.35156V22.5234C9.35156 22.043 9.03516 21.7148 8.55469 21.7148H6.52734C6.03516 21.7148 5.71875 22.043 5.71875 22.5234V23.1914Z" fill="black" fill-opacity="0.85"/>
</svg>
