<svg width="24" height="24" viewBox="0 0 24 24" fill="none" xmlns="http://www.w3.org/2000/svg">
<path d="M11.9531 23.9062C18.4922 23.9062 23.9062 18.4805 23.9062 11.9531C23.9062 5.41406 18.4805 0 11.9414 0C5.41406 0 0 5.41406 0 11.9531C0 18.4805 5.42578 23.9062 11.9531 23.9062ZM11.9531 21.9141C6.42188 21.9141 2.00391 17.4844 2.00391 11.9531C2.00391 6.42188 6.41016 1.99219 11.9414 1.99219C17.4727 1.99219 21.9141 6.42188 21.9141 11.9531C21.9141 17.4844 17.4844 21.9141 11.9531 21.9141Z" fill="#007AFF"/>
<path d="M7.47656 17.5078C7.47656 18.6094 8.23828 19.3477 9.38672 19.3477H14.5195C15.668 19.3477 16.4297 18.6094 16.4297 17.5078V6.39844C16.4297 5.29688 15.668 4.55859 14.5195 4.55859H9.38672C8.23828 4.55859 7.47656 5.29688 7.47656 6.39844V17.5078ZM8.625 16.957V6.94922H15.2812V16.957H8.625ZM11.9648 18.6328C11.6367 18.6328 11.3672 18.3633 11.3672 18.0352C11.3672 17.707 11.6367 17.4375 11.9648 17.4375C12.2812 17.4375 12.5391 17.707 12.5391 18.0352C12.5391 18.3633 12.2812 18.6328 11.9648 18.6328ZM10.6172 5.80078C10.6172 5.625 10.7344 5.51953 10.8984 5.51953H13.0195C13.1836 5.51953 13.2891 5.625 13.2891 5.80078C13.2891 5.96484 13.1836 6.08203 13.0195 6.08203H10.8984C10.7344 6.08203 10.6172 5.96484 10.6172 5.80078Z" fill="black" fill-opacity="0.85"/>
<path d="M16.6523 18.5742C17.1914 19.1016 18.0586 19.1133 18.5742 18.5742C19.125 18.0352 19.1133 17.2031 18.5742 16.6641L7.23047 5.32031C6.69141 4.78125 5.83594 4.78125 5.30859 5.32031C4.76953 5.84766 4.76953 6.71484 5.30859 7.24219L16.6523 18.5742Z" fill="white"/>
<path d="M17.2378 18C17.437 18.1992 17.7886 18.1992 17.9878 18C18.1987 17.7773 18.1987 17.4609 17.9878 17.25L6.6558 5.90625C6.44486 5.69531 6.10502 5.69531 5.89408 5.90625C5.68314 6.10547 5.69486 6.45703 5.89408 6.65625L17.2378 18Z" fill="black" fill-opacity="0.85"/>
</svg>
