<svg width="24" height="24" viewBox="0 0 24 24" fill="none" xmlns="http://www.w3.org/2000/svg">
<path d="M11.9531 23.9062C18.4922 23.9062 23.9062 18.4805 23.9062 11.9531C23.9062 5.41406 18.4805 0 11.9414 0C5.41406 0 0 5.41406 0 11.9531C0 18.4805 5.42578 23.9062 11.9531 23.9062ZM11.9531 21.9141C6.42188 21.9141 2.00391 17.4844 2.00391 11.9531C2.00391 6.42188 6.41016 1.99219 11.9414 1.99219C17.4727 1.99219 21.9141 6.42188 21.9141 11.9531C21.9141 17.4844 17.4844 21.9141 11.9531 21.9141Z" fill="#007AFF"/>
<path d="M9.375 19.3477H14.4961C15.6445 19.3477 16.418 18.6094 16.418 17.4961V6.39844C16.418 5.28516 15.6445 4.55859 14.4961 4.55859H9.375C8.23828 4.55859 7.46484 5.28516 7.46484 6.39844V17.4961C7.46484 18.6094 8.23828 19.3477 9.375 19.3477ZM9.52734 18.1992C8.92969 18.1992 8.60156 17.8945 8.60156 17.332V6.5625C8.60156 6 8.92969 5.69531 9.52734 5.69531H10.3594C10.4766 5.69531 10.5117 5.74219 10.5117 5.84766V6C10.5117 6.29297 10.6992 6.50391 11.0039 6.50391H12.8789C13.1719 6.50391 13.3711 6.29297 13.3711 6V5.84766C13.3711 5.74219 13.418 5.69531 13.5234 5.69531H14.3555C14.9531 5.69531 15.2812 6 15.2812 6.5625V17.332C15.2812 17.8945 14.9531 18.1992 14.3555 18.1992H9.52734ZM10.4766 17.6953H13.4062C13.6055 17.6953 13.7461 17.5664 13.7461 17.3672C13.7461 17.1562 13.6055 17.0156 13.4062 17.0156H10.4766C10.2773 17.0156 10.1367 17.1562 10.1367 17.3672C10.1367 17.5664 10.2773 17.6953 10.4766 17.6953Z" fill="black" fill-opacity="0.85"/>
</svg>
