<svg width="22" height="25" viewBox="0 0 22 25" fill="none" xmlns="http://www.w3.org/2000/svg">
<path d="M16.2627 14.8477L18.1494 16.7344V3.04688C18.1494 1.21875 16.8721 0 14.9619 0H6.27832C4.88379 0 3.84082 0.609375 3.4541 1.73438L3.37207 1.94531L4.97754 3.55078V3.32812C4.97754 2.39062 5.52832 1.88672 6.5127 1.88672H14.7158C15.7002 1.88672 16.2627 2.41406 16.2627 3.35156V14.8477ZM9.20801 4.46484H12.0439C12.501 4.46484 12.8643 4.10156 12.8643 3.63281C12.8643 3.17578 12.501 2.8125 12.0439 2.8125H9.20801C8.73926 2.8125 8.36426 3.17578 8.36426 3.63281C8.36426 4.10156 8.73926 4.46484 9.20801 4.46484ZM6.27832 24.8086H14.9619C16.3096 24.8086 17.2939 24.2109 17.7393 23.1445C17.7627 23.0859 17.7979 23.0039 17.8213 22.9453L16.2627 21.3398C16.2627 21.4219 16.2627 21.4922 16.2627 21.5625C16.2158 22.4414 15.6533 22.9219 14.7158 22.9219H6.5127C5.52832 22.9219 4.97754 22.3945 4.97754 21.457V10.0898L3.09082 8.20312V21.7617C3.09082 23.5898 4.36816 24.8086 6.27832 24.8086ZM8.12988 22.0664H13.1104C13.4268 22.0664 13.6611 21.8438 13.6611 21.5156C13.6611 21.1875 13.4268 20.9766 13.1104 20.9766H8.12988C7.81348 20.9766 7.59082 21.1875 7.59082 21.5156C7.59082 21.8438 7.81348 22.0664 8.12988 22.0664Z" fill="#007AFF"/>
<path d="M19.6846 22.8047C20.0361 23.168 20.6221 23.1562 20.9619 22.8047C21.3135 22.4648 21.3135 21.8906 20.9619 21.5273L1.54395 2.12111C1.19238 1.76955 0.618164 1.75783 0.254883 2.12111C-0.084961 2.46096 -0.084961 3.05861 0.254883 3.39846L19.6846 22.8047Z" fill="black" fill-opacity="0.85"/>
</svg>
