<svg width="38" height="25" viewBox="0 0 38 25" fill="none" xmlns="http://www.w3.org/2000/svg">
<path d="M4.52344 20.4258C4.89844 20.0039 4.78125 19.4531 4.35938 18.9727C2.78906 17.2266 1.91016 14.9297 1.91016 12.4102C1.91016 9.89063 2.78906 7.59376 4.35938 5.84767C4.78125 5.3672 4.89844 4.81642 4.52344 4.39454C4.14844 3.94923 3.49219 3.96095 3.04688 4.45313C1.10156 6.56251 0 9.37501 0 12.4102C0 15.4453 1.10156 18.2461 3.04688 20.3672C3.49219 20.8594 4.14844 20.8594 4.52344 20.4258ZM32.9531 20.4258C33.3281 20.8594 33.9844 20.8594 34.4414 20.3672C36.3867 18.2461 37.4766 15.4453 37.4766 12.4102C37.4766 9.37501 36.3867 6.56251 34.4414 4.45313C33.9844 3.96095 33.3281 3.94923 32.9531 4.39454C32.5781 4.81642 32.6953 5.3672 33.1172 5.84767C34.6875 7.59376 35.5664 9.89063 35.5664 12.4102C35.5664 14.9297 34.6875 17.2266 33.1172 18.9727C32.6953 19.4531 32.5781 20.0039 32.9531 20.4258Z" fill="#007AFF"/>
<path d="M7.80469 17.0858C8.17969 16.664 8.02734 16.1366 7.65234 15.6327C6.94922 14.7538 6.60938 13.6288 6.60938 12.4101C6.60938 11.1913 6.94922 10.0546 7.65234 9.18742C8.02734 8.68351 8.17969 8.15617 7.80469 7.7343C7.41797 7.28898 6.71484 7.28898 6.30469 7.81633C5.28516 9.08195 4.69922 10.6874 4.69922 12.4101C4.69922 14.1327 5.28516 15.7382 6.30469 17.0038C6.71484 17.5311 7.41797 17.5194 7.80469 17.0858ZM29.6719 17.0858C30.0586 17.5194 30.7617 17.5311 31.1719 17.0038C32.1914 15.7382 32.7891 14.1327 32.7891 12.4101C32.7891 10.6874 32.1914 9.08195 31.1719 7.81633C30.7617 7.28898 30.0586 7.28898 29.6719 7.7343C29.2969 8.15617 29.4609 8.68351 29.8242 9.18742C30.5273 10.0546 30.8789 11.1913 30.8789 12.4101C30.8789 13.6288 30.5273 14.7538 29.8242 15.6327C29.4609 16.1366 29.2969 16.664 29.6719 17.0858Z" fill="#007AFF"/>
<path d="M14.6484 22.9219C13.6523 22.9219 13.1016 22.3945 13.1016 21.457V3.35156C13.1016 2.41406 13.6523 1.88672 14.6484 1.88672H22.8516C23.8359 1.88672 24.3867 2.41406 24.3867 3.35156V21.457C24.3867 22.3945 23.8359 22.9219 22.8516 22.9219H14.6484Z" fill="#FFCC00"/>
<path d="M14.4023 24.8086H23.0859C24.9961 24.8086 26.2734 23.5898 26.2734 21.7617V3.04688C26.2734 1.21875 24.9961 0 23.0859 0H14.4023C12.4922 0 11.2148 1.21875 11.2148 3.04688V21.7617C11.2148 23.5898 12.4922 24.8086 14.4023 24.8086ZM14.6484 22.9219C13.6523 22.9219 13.1016 22.3945 13.1016 21.457V3.35156C13.1016 2.41406 13.6523 1.88672 14.6484 1.88672H22.8516C23.8359 1.88672 24.3867 2.41406 24.3867 3.35156V21.457C24.3867 22.3945 23.8359 22.9219 22.8516 22.9219H14.6484ZM16.2656 22.0664H21.2461C21.5625 22.0664 21.7852 21.8438 21.7852 21.5156C21.7852 21.1875 21.5625 20.9766 21.2461 20.9766H16.2656C15.9492 20.9766 15.7148 21.1875 15.7148 21.5156C15.7148 21.8438 15.9492 22.0664 16.2656 22.0664ZM17.332 4.37109H20.168C20.625 4.37109 20.9883 4.00781 20.9883 3.53906C20.9883 3.08203 20.625 2.71875 20.168 2.71875H17.332C16.8633 2.71875 16.5 3.08203 16.5 3.53906C16.5 4.00781 16.8633 4.37109 17.332 4.37109Z" fill="black" fill-opacity="0.85"/>
</svg>
