<svg width="24" height="24" viewBox="0 0 24 24" fill="none" xmlns="http://www.w3.org/2000/svg">
<path d="M11.9531 23.9062C18.4922 23.9062 23.9062 18.4805 23.9062 11.9531C23.9062 5.41406 18.4805 0 11.9414 0C5.41406 0 0 5.41406 0 11.9531C0 18.4805 5.42578 23.9062 11.9531 23.9062ZM11.9531 21.9141C6.42188 21.9141 2.00391 17.4844 2.00391 11.9531C2.00391 6.42188 6.41016 1.99219 11.9414 1.99219C17.4727 1.99219 21.9141 6.42188 21.9141 11.9531C21.9141 17.4844 17.4844 21.9141 11.9531 21.9141Z" fill="#007AFF"/>
<path d="M5.20312 15.4336C5.36719 15.2344 5.32031 15 5.13281 14.7773C4.44141 14.0039 4.07812 13.0195 4.07812 11.9531C4.07812 10.8867 4.44141 9.90237 5.13281 9.12894C5.32031 8.90628 5.36719 8.66019 5.20312 8.47269C5.05078 8.26175 4.74609 8.26175 4.52344 8.48441C3.66797 9.41019 3.21094 10.6406 3.21094 11.9531C3.21094 13.2539 3.66797 14.4844 4.52344 15.4219C4.74609 15.6445 5.05078 15.6445 5.20312 15.4336ZM18.7148 15.4336C18.8789 15.6445 19.1836 15.6445 19.3945 15.4219C20.25 14.4844 20.7188 13.2539 20.7188 11.9531C20.7188 10.6406 20.25 9.41019 19.3945 8.48441C19.1836 8.26175 18.8789 8.26175 18.7148 8.47269C18.5508 8.66019 18.5977 8.90628 18.7969 9.12894C19.4766 9.90237 19.8516 10.8867 19.8516 11.9531C19.8516 13.0195 19.4766 14.0039 18.7969 14.7773C18.5977 15 18.5508 15.2344 18.7148 15.4336Z" fill="black" fill-opacity="0.85"/>
<path d="M6.89062 13.9923C7.05469 13.7931 6.99609 13.5704 6.82031 13.336C6.52734 12.961 6.38672 12.4806 6.38672 11.9532C6.38672 11.4259 6.52734 10.9337 6.82031 10.5704C6.99609 10.336 7.05469 10.1134 6.89062 9.91418C6.71484 9.70324 6.38672 9.70324 6.19922 9.93762C5.75391 10.5001 5.49609 11.1915 5.49609 11.9532C5.49609 12.7032 5.75391 13.4063 6.19922 13.9571C6.38672 14.1915 6.71484 14.2032 6.89062 13.9923ZM17.0273 13.9923C17.2031 14.2032 17.5312 14.1915 17.7188 13.9571C18.1641 13.4063 18.4336 12.7032 18.4336 11.9532C18.4336 11.1915 18.1641 10.5001 17.7188 9.93762C17.5312 9.70324 17.2031 9.70324 17.0273 9.91418C16.8633 10.1134 16.9219 10.336 17.0977 10.5704C17.3906 10.9337 17.543 11.4259 17.543 11.9532C17.543 12.4806 17.3906 12.961 17.0977 13.336C16.9219 13.5704 16.8633 13.7931 17.0273 13.9923Z" fill="black" fill-opacity="0.85"/>
<path d="M7.88672 16.9922C7.88672 17.9883 8.57812 18.668 9.62109 18.668H14.2852C15.3281 18.668 16.0195 17.9883 16.0195 16.9922V6.91406C16.0195 5.91797 15.3281 5.23828 14.2852 5.23828H9.62109C8.57812 5.23828 7.88672 5.91797 7.88672 6.91406V16.9922ZM8.94141 16.5V7.40625H14.9648V16.5H8.94141ZM11.9648 18.0117C11.6719 18.0117 11.4258 17.7656 11.4258 17.4727C11.4258 17.1797 11.6719 16.9336 11.9648 16.9336C12.2578 16.9336 12.4805 17.1797 12.4805 17.4727C12.4805 17.7656 12.2578 18.0117 11.9648 18.0117ZM10.7461 6.375C10.7461 6.22266 10.8633 6.11719 10.9922 6.11719H12.9141C13.0547 6.11719 13.1602 6.22266 13.1602 6.375C13.1602 6.52734 13.0547 6.62109 12.9141 6.62109H10.9922C10.8633 6.62109 10.7461 6.52734 10.7461 6.375Z" fill="black" fill-opacity="0.85"/>
</svg>
