<svg width="25" height="16" viewBox="0 0 25 16" fill="none" xmlns="http://www.w3.org/2000/svg">
<path d="M3.36328 13.1836C2.41406 13.1836 1.88672 12.6211 1.88672 11.6367V3.43359C1.88672 2.44922 2.41406 1.88672 3.36328 1.88672H21.4688C22.4062 1.88672 22.9336 2.44922 22.9336 3.43359V11.6367C22.9336 12.6211 22.4062 13.1836 21.4688 13.1836H3.36328Z" fill="#FFCC00"/>
<path d="M3.05859 15.0703H21.7734C23.6016 15.0703 24.8203 13.7812 24.8203 11.8711V3.1875C24.8203 1.27734 23.6016 0 21.7734 0H3.05859C1.23047 0 0 1.27734 0 3.1875V11.8711C0 13.7812 1.23047 15.0703 3.05859 15.0703ZM3.36328 13.1836C2.41406 13.1836 1.88672 12.6211 1.88672 11.6367V3.43359C1.88672 2.44922 2.41406 1.88672 3.36328 1.88672H21.4688C22.4062 1.88672 22.9336 2.44922 22.9336 3.43359V11.6367C22.9336 12.6211 22.4062 13.1836 21.4688 13.1836H3.36328ZM9.29297 12.3164H15.5391C15.8555 12.3164 16.0781 12.0938 16.0781 11.7656C16.0781 11.4375 15.8555 11.2266 15.5391 11.2266H9.29297C8.97656 11.2266 8.75391 11.4375 8.75391 11.7656C8.75391 12.0938 8.97656 12.3164 9.29297 12.3164ZM3.55078 9.78516C4.01953 9.78516 4.38281 9.41016 4.38281 8.94141V6.10547C4.38281 5.64844 4.01953 5.28516 3.55078 5.28516C3.09375 5.28516 2.71875 5.64844 2.71875 6.10547V8.94141C2.71875 9.41016 3.09375 9.78516 3.55078 9.78516Z" fill="black" fill-opacity="0.85"/>
</svg>
