<svg width="24" height="24" viewBox="0 0 24 24" fill="none" xmlns="http://www.w3.org/2000/svg">
<path d="M11.9531 23.918C18.4922 23.918 23.9062 18.5039 23.9062 11.9648C23.9062 5.4375 18.4805 0.0117188 11.9414 0.0117188C5.41406 0.0117188 0 5.4375 0 11.9648C0 18.5039 5.42578 23.918 11.9531 23.918Z" fill="#FFCC00"/>
<path d="M9.30469 19.5938C8.12109 19.5938 7.33594 18.832 7.33594 17.6836V6.24609C7.33594 5.08594 8.12109 4.33594 9.30469 4.33594H14.5898C15.7734 4.33594 16.5703 5.08594 16.5703 6.24609V17.6836C16.5703 18.832 15.7734 19.5938 14.5898 19.5938H9.30469ZM9.45703 18.4102H14.4492C15.0586 18.4102 15.3984 18.082 15.3984 17.5078V6.42188C15.3984 5.84766 15.0586 5.51953 14.4492 5.51953H13.582C13.4766 5.51953 13.4297 5.56641 13.4297 5.67188V5.83594C13.4297 6.15234 13.2188 6.35156 12.9258 6.35156H10.9688C10.6758 6.35156 10.4766 6.15234 10.4766 5.83594V5.67188C10.4766 5.56641 10.4297 5.51953 10.3242 5.51953H9.45703C8.83594 5.51953 8.50781 5.84766 8.50781 6.42188V17.5078C8.50781 18.082 8.83594 18.4102 9.45703 18.4102ZM10.4414 17.8828C10.2422 17.8828 10.0898 17.7422 10.0898 17.543C10.0898 17.3203 10.2422 17.1797 10.4414 17.1797H13.4648C13.6641 17.1797 13.8164 17.3203 13.8164 17.543C13.8164 17.7422 13.6641 17.8828 13.4648 17.8828H10.4414Z" fill="black" fill-opacity="0.85"/>
</svg>
