<svg width="25" height="16" viewBox="0 0 25 16" fill="none" xmlns="http://www.w3.org/2000/svg">
<path d="M20.8477 13.1719H3.97266V1.88672H20.8477V13.1719ZM23.6602 7.52344C23.6602 8.08594 23.2148 8.54297 22.6406 8.54297C22.0898 8.54297 21.6328 8.08594 21.6328 7.52344C21.6328 6.96094 22.0898 6.51562 22.6406 6.51562C23.2148 6.51562 23.6602 6.96094 23.6602 7.52344ZM2.05078 9.75C1.78125 9.75 1.61719 9.57422 1.61719 9.31641V5.74219C1.61719 5.48438 1.78125 5.30859 2.05078 5.30859C2.32031 5.30859 2.49609 5.48438 2.49609 5.74219V9.31641C2.49609 9.57422 2.32031 9.75 2.05078 9.75Z" fill="#FFCC00"/>
<path d="M21.7734 15.0586C23.6016 15.0586 24.832 13.7812 24.832 11.8711V3.1875C24.832 1.27734 23.6016 0 21.7734 0H3.04688C1.21875 0 0 1.27734 0 3.1875V11.8711C0 13.7812 1.21875 15.0586 3.04688 15.0586H21.7734ZM20.8477 13.1719H3.97266V1.88672H20.8477V13.1719ZM23.6602 7.52344C23.6602 8.08594 23.2148 8.54297 22.6406 8.54297C22.0898 8.54297 21.6328 8.08594 21.6328 7.52344C21.6328 6.96094 22.0898 6.51562 22.6406 6.51562C23.2148 6.51562 23.6602 6.96094 23.6602 7.52344ZM2.05078 9.75C1.78125 9.75 1.61719 9.57422 1.61719 9.31641V5.74219C1.61719 5.48438 1.78125 5.30859 2.05078 5.30859C2.32031 5.30859 2.49609 5.48438 2.49609 5.74219V9.31641C2.49609 9.57422 2.32031 9.75 2.05078 9.75Z" fill="black" fill-opacity="0.85"/>
</svg>
