<svg width="16" height="25" viewBox="0 0 16 25" fill="none" xmlns="http://www.w3.org/2000/svg">
<path d="M3.43359 22.9219C2.4375 22.9219 1.88672 22.3945 1.88672 21.457V3.35156C1.88672 2.41406 2.4375 1.88672 3.43359 1.88672H4.93359C5.12109 1.88672 5.21484 1.98047 5.21484 2.15625V2.42578C5.21484 2.91797 5.54297 3.24609 6.02344 3.24609H9.04688C9.53906 3.24609 9.85547 2.91797 9.85547 2.42578V2.15625C9.85547 1.98047 9.94922 1.88672 10.1367 1.88672H11.6367C12.6211 1.88672 13.1719 2.41406 13.1719 3.35156V21.457C13.1719 22.3945 12.6211 22.9219 11.6367 22.9219H3.43359Z" fill="#FFCC00"/>
<path d="M3.1875 24.8086H11.8711C13.7812 24.8086 15.0586 23.5898 15.0586 21.7617V3.04688C15.0586 1.21875 13.7812 0 11.8711 0H3.1875C1.27734 0 0 1.21875 0 3.04688V21.7617C0 23.5898 1.27734 24.8086 3.1875 24.8086ZM3.43359 22.9219C2.4375 22.9219 1.88672 22.3945 1.88672 21.457V3.35156C1.88672 2.41406 2.4375 1.88672 3.43359 1.88672H4.93359C5.12109 1.88672 5.21484 1.98047 5.21484 2.15625V2.42578C5.21484 2.91797 5.54297 3.24609 6.02344 3.24609H9.04688C9.53906 3.24609 9.85547 2.91797 9.85547 2.42578V2.15625C9.85547 1.98047 9.94922 1.88672 10.1367 1.88672H11.6367C12.6211 1.88672 13.1719 2.41406 13.1719 3.35156V21.457C13.1719 22.3945 12.6211 22.9219 11.6367 22.9219H3.43359ZM5.05078 22.0664H10.0312C10.3477 22.0664 10.5703 21.8438 10.5703 21.5156C10.5703 21.1875 10.3477 20.9766 10.0312 20.9766H5.05078C4.73438 20.9766 4.5 21.1875 4.5 21.5156C4.5 21.8438 4.73438 22.0664 5.05078 22.0664Z" fill="black" fill-opacity="0.85"/>
</svg>
