<svg width="24" height="25" viewBox="0 0 24 25" fill="none" xmlns="http://www.w3.org/2000/svg">
<path d="M4.45605 21.7734C4.45605 23.6016 5.7334 24.8203 7.64355 24.8203H16.3271C18.2373 24.8203 19.5146 23.6016 19.5146 21.7734V3.04688C19.5146 1.21875 18.2373 0 16.3271 0H7.64355C5.7334 0 4.45605 1.21875 4.45605 3.04688V21.7734ZM6.34277 20.8477V3.97266H17.6279V20.8477H6.34277ZM12.0029 23.6602C11.4404 23.6602 10.9834 23.2031 10.9834 22.6406C10.9834 22.0898 11.4404 21.6328 12.0029 21.6328C12.5537 21.6328 13.0107 22.0898 13.0107 22.6406C13.0107 23.2031 12.5537 23.6602 12.0029 23.6602ZM12.0029 2.67188C11.6162 2.67188 11.3115 2.35547 11.3115 1.96875C11.3115 1.59375 11.6162 1.28906 12.0029 1.28906C12.3896 1.28906 12.6826 1.59375 12.6826 1.96875C12.6826 2.35547 12.3896 2.67188 12.0029 2.67188Z" fill="#007AFF"/>
<path d="M20.0889 23.7773C20.9795 24.6562 22.4209 24.668 23.2998 23.7773C24.1904 22.8984 24.1904 21.457 23.3115 20.5664L3.88184 1.14845C3.00293 0.269538 1.5498 0.257819 0.65918 1.14845C-0.219727 2.02735 -0.219727 3.4922 0.65918 4.35939L20.0889 23.7773Z" fill="white"/>
<path d="M21.0615 22.8047C21.4131 23.168 21.999 23.1562 22.3389 22.8047C22.6904 22.4648 22.6904 21.8906 22.3389 21.5273L2.9209 2.12111C2.56934 1.76955 1.9834 1.75783 1.63184 2.12111C1.29199 2.46096 1.29199 3.05861 1.63184 3.39846L21.0615 22.8047Z" fill="black" fill-opacity="0.85"/>
</svg>
