<svg width="17" height="16" viewBox="0 0 17 16" fill="none" xmlns="http://www.w3.org/2000/svg">
<path d="M0 12.5039C0 14.2383 1.05469 15.3398 2.68359 15.3398H13.6758C15.3047 15.3398 16.3594 14.2383 16.3594 12.5039V2.83594C16.3594 1.10156 15.2695 0 13.6758 0H2.68359C1.05469 0 0 1.10156 0 2.83594V12.5039ZM1.88672 12.2695V3.07031C1.88672 2.33203 2.30859 1.88672 3 1.88672H13.3594C14.0391 1.88672 14.4727 2.33203 14.4727 3.07031V12.2695C14.4727 13.0078 14.0391 13.4531 13.3594 13.4531H3C2.30859 13.4531 1.88672 13.0078 1.88672 12.2695ZM8.17969 12.2109C10.6875 12.2109 12.7266 10.1719 12.7266 7.66406C12.7266 5.15625 10.6875 3.11719 8.17969 3.11719C5.67188 3.11719 3.63281 5.15625 3.63281 7.66406C3.63281 10.1719 5.67188 12.2109 8.17969 12.2109ZM8.17969 10.7109C6.48047 10.7109 5.13281 9.36328 5.13281 7.66406C5.13281 5.96484 6.48047 4.61719 8.17969 4.61719C9.87891 4.61719 11.2266 5.96484 11.2266 7.66406C11.2266 9.36328 9.87891 10.7109 8.17969 10.7109Z" fill="black" fill-opacity="0.85"/>
</svg>
