<svg width="13" height="25" viewBox="0 0 13 25" fill="none" xmlns="http://www.w3.org/2000/svg">
<path d="M6.24609 11.543C8.27344 11.543 9.91406 9.90234 9.91406 7.875C9.91406 5.85938 8.27344 4.20703 6.24609 4.20703C4.23047 4.20703 2.60156 5.85938 2.60156 7.875C2.60156 9.90234 4.23047 11.543 6.24609 11.543ZM6.24609 10.1836C4.98047 10.1836 3.96094 9.16406 3.96094 7.875C3.96094 6.59766 4.98047 5.56641 6.24609 5.56641C7.53516 5.56641 8.55469 6.59766 8.55469 7.875C8.55469 9.16406 7.53516 10.1836 6.24609 10.1836ZM3.1875 24.8203H9.30469C11.2617 24.8203 12.4922 23.6367 12.4922 21.7734V3.04688C12.4922 1.18359 11.2617 0 9.30469 0H3.1875C1.23047 0 0 1.18359 0 3.04688V21.7734C0 23.6367 1.23047 24.8203 3.1875 24.8203ZM3.43359 22.9336C2.44922 22.9336 1.88672 22.3945 1.88672 21.4688V3.35156C1.88672 2.42578 2.44922 1.88672 3.43359 1.88672H9.07031C10.043 1.88672 10.6055 2.42578 10.6055 3.35156V21.4688C10.6055 22.3945 10.043 22.9336 9.07031 22.9336H3.43359Z" fill="black" fill-opacity="0.85"/>
</svg>
