<svg width="25" height="16" viewBox="0 0 25 16" fill="none" xmlns="http://www.w3.org/2000/svg">
<path d="M20.8477 13.8047H3.97266V2.51953H20.8477V13.8047ZM23.6602 8.14453C23.6602 8.70703 23.2148 9.16406 22.6406 9.16406C22.0898 9.16406 21.6328 8.70703 21.6328 8.14453C21.6328 7.59375 22.0898 7.13672 22.6406 7.13672C23.2148 7.13672 23.6602 7.59375 23.6602 8.14453ZM2.67188 8.14453C2.67188 8.53125 2.35547 8.83594 1.98047 8.83594C1.59375 8.83594 1.28906 8.53125 1.28906 8.14453C1.28906 7.75781 1.59375 7.46484 1.98047 7.46484C2.35547 7.46484 2.67188 7.75781 2.67188 8.14453Z" fill="#FFCC00"/>
<path d="M21.7734 15.6914C23.6016 15.6914 24.832 14.4141 24.832 12.5039V3.82031C24.832 1.91016 23.6016 0.632812 21.7734 0.632812H3.04688C1.21875 0.632812 0 1.91016 0 3.82031V12.5039C0 14.4141 1.21875 15.6914 3.04688 15.6914H21.7734ZM20.8477 13.8047H3.97266V2.51953H20.8477V13.8047ZM23.6602 8.14453C23.6602 8.70703 23.2148 9.16406 22.6406 9.16406C22.0898 9.16406 21.6328 8.70703 21.6328 8.14453C21.6328 7.59375 22.0898 7.13672 22.6406 7.13672C23.2148 7.13672 23.6602 7.59375 23.6602 8.14453ZM2.67188 8.14453C2.67188 8.53125 2.35547 8.83594 1.98047 8.83594C1.59375 8.83594 1.28906 8.53125 1.28906 8.14453C1.28906 7.75781 1.59375 7.46484 1.98047 7.46484C2.35547 7.46484 2.67188 7.75781 2.67188 8.14453Z" fill="black" fill-opacity="0.85"/>
</svg>
