<svg width="16" height="25" viewBox="0 0 16 25" fill="none" xmlns="http://www.w3.org/2000/svg">
<path d="M1.88672 20.8477V3.97266H13.1719V20.8477H1.88672ZM7.54688 23.6602C6.98438 23.6602 6.52734 23.2031 6.52734 22.6406C6.52734 22.0898 6.98438 21.6328 7.54688 21.6328C8.09766 21.6328 8.55469 22.0898 8.55469 22.6406C8.55469 23.2031 8.09766 23.6602 7.54688 23.6602ZM7.54688 2.67188C7.16016 2.67188 6.84375 2.35547 6.84375 1.96875C6.84375 1.59375 7.16016 1.28906 7.54688 1.28906C7.92188 1.28906 8.22656 1.59375 8.22656 1.96875C8.22656 2.35547 7.92188 2.67188 7.54688 2.67188Z" fill="#FFCC00"/>
<path d="M0 21.7734C0 23.6016 1.27734 24.8203 3.1875 24.8203H11.8711C13.7812 24.8203 15.0586 23.6016 15.0586 21.7734V3.04688C15.0586 1.21875 13.7812 0 11.8711 0H3.1875C1.27734 0 0 1.21875 0 3.04688V21.7734ZM1.88672 20.8477V3.97266H13.1719V20.8477H1.88672ZM7.54688 23.6602C6.98438 23.6602 6.52734 23.2031 6.52734 22.6406C6.52734 22.0898 6.98438 21.6328 7.54688 21.6328C8.09766 21.6328 8.55469 22.0898 8.55469 22.6406C8.55469 23.2031 8.09766 23.6602 7.54688 23.6602ZM7.54688 2.67188C7.16016 2.67188 6.84375 2.35547 6.84375 1.96875C6.84375 1.59375 7.16016 1.28906 7.54688 1.28906C7.92188 1.28906 8.22656 1.59375 8.22656 1.96875C8.22656 2.35547 7.92188 2.67188 7.54688 2.67188Z" fill="black" fill-opacity="0.85"/>
</svg>
