<svg width="20" height="16" viewBox="0 0 20 16" fill="none" xmlns="http://www.w3.org/2000/svg">
<path d="M0 12.7383C0 14.4727 1.05469 15.5742 2.68359 15.5742H17.2734C18.9023 15.5742 19.957 14.4727 19.957 12.7383V2.83594C19.957 1.10156 18.9023 0 17.2734 0H2.68359C1.05469 0 0 1.10156 0 2.83594V12.7383ZM1.88672 12.5039V3.07031C1.88672 2.33203 2.30859 1.88672 3 1.88672H16.9688C17.6484 1.88672 18.0703 2.33203 18.0703 3.07031V12.5039C18.0703 13.2422 17.6484 13.6875 16.9688 13.6875H3C2.30859 13.6875 1.88672 13.2422 1.88672 12.5039ZM11.9883 12.3281C14.5078 12.3281 16.5352 10.2891 16.5352 7.78125C16.5352 5.27344 14.5078 3.23438 11.9883 3.23438C9.48047 3.23438 7.45312 5.27344 7.45312 7.78125C7.45312 10.2891 9.48047 12.3281 11.9883 12.3281ZM11.9883 10.8281C10.2891 10.8281 8.95312 9.48047 8.95312 7.78125C8.95312 6.08203 10.2891 4.73438 11.9883 4.73438C13.6992 4.73438 15.0352 6.08203 15.0352 7.78125C15.0352 9.48047 13.6992 10.8281 11.9883 10.8281Z" fill="black" fill-opacity="0.85"/>
</svg>
