<svg width="18" height="32" viewBox="0 0 18 32" fill="none" xmlns="http://www.w3.org/2000/svg">
<path d="M3.23438 25.7578H14.1328C16.1836 25.7578 17.3672 24.5391 17.3672 22.4648V5.73047C17.3672 3.64453 16.1836 2.4375 14.1328 2.4375H11.0391V2.34375C11.0391 0.960938 10.0898 0.0117188 8.68359 0C7.27734 0.0117188 6.32812 0.960938 6.32812 2.34375V2.4375H3.23438C1.18359 2.4375 0 3.64453 0 5.73047V22.4648C0 24.5391 1.18359 25.7578 3.23438 25.7578ZM3.32812 23.8125C2.44922 23.8125 1.95703 23.3086 1.95703 22.4414V5.75391C1.95703 4.88672 2.44922 4.38281 3.32812 4.38281H14.0391C14.918 4.38281 15.4102 4.88672 15.4102 5.75391V22.4414C15.4102 23.3086 14.918 23.8125 14.0391 23.8125H3.32812ZM8.68359 3.23438C8.20312 3.23438 7.82812 2.84766 7.82812 2.36719C7.82812 1.89844 8.20312 1.51172 8.68359 1.51172C9.16406 1.51172 9.53906 1.89844 9.53906 2.36719C9.53906 2.84766 9.16406 3.23438 8.68359 3.23438ZM11.4141 30.9141H16.5234C16.9922 30.9141 17.3672 30.5391 17.3672 30.0703C17.3672 29.5898 16.9922 29.2031 16.5234 29.2031H11.4141C10.0664 29.2031 9.375 28.6406 9.375 27.293V24.4688H7.66406V27.293C7.66406 29.5898 9.11719 30.9141 11.4141 30.9141Z" fill="black" fill-opacity="0.85"/>
<path d="M4.79297 22.1602H12.5977C13.3125 22.1602 13.7812 21.7031 13.7812 21V8.37891C13.7812 7.67578 13.3125 7.21875 12.5977 7.21875H4.79297C4.07812 7.21875 3.60938 7.67578 3.60938 8.37891V21C3.60938 21.7031 4.07812 22.1602 4.79297 22.1602Z" fill="black" fill-opacity="0.85"/>
<path d="M7.24219 19.8633C6.89062 19.8633 6.66797 19.6172 6.66797 19.3008C6.66797 18.9727 6.89062 18.7148 7.24219 18.7148H10.1484C10.4883 18.7148 10.7227 18.9727 10.7227 19.3008C10.7227 19.6172 10.4883 19.8633 10.1484 19.8633H7.24219ZM6.35156 17.4141C6 17.4141 5.76562 17.168 5.76562 16.8398C5.76562 16.5234 6 16.2656 6.35156 16.2656H11.0742C11.4023 16.2656 11.6484 16.5234 11.6484 16.8398C11.6484 17.168 11.4023 17.4141 11.0742 17.4141H6.35156ZM8.68359 14.6367C7.67578 14.6367 6.83203 13.8516 6.83203 12.8203C6.83203 12.2578 7.125 11.6953 7.40625 11.1914L8.35547 9.43359C8.55469 9.05859 8.8125 9.04688 9.01172 9.43359L9.96095 11.1914C10.2422 11.6953 10.5352 12.2578 10.5352 12.8203C10.5352 13.8516 9.70312 14.6367 8.68359 14.6367Z" fill="white"/>
</svg>
