<svg width="24" height="24" viewBox="0 0 24 24" fill="none" xmlns="http://www.w3.org/2000/svg">
<path d="M11.9531 23.9062C18.4922 23.9062 23.9062 18.4805 23.9062 11.9531C23.9062 5.41406 18.4805 0 11.9414 0C5.41406 0 0 5.41406 0 11.9531C0 18.4805 5.42578 23.9062 11.9531 23.9062ZM11.9531 21.9141C6.42188 21.9141 2.00391 17.4844 2.00391 11.9531C2.00391 6.42188 6.41016 1.99219 11.9414 1.99219C17.4727 1.99219 21.9141 6.42188 21.9141 11.9531C21.9141 17.4844 17.4844 21.9141 11.9531 21.9141Z" fill="#007AFF"/>
<path d="M11.3789 17.4375C13.6758 17.4375 14.918 16.207 14.918 13.9805V7.41797C14.918 6.77344 14.5781 6.36328 13.9688 6.36328C13.3711 6.36328 13.043 6.79688 13.043 7.41797V13.957C13.043 15.1289 12.4453 15.832 11.4727 15.832C10.5938 15.832 9.99609 15.3984 9.71484 14.6367C9.51562 14.1914 9.25781 14.0039 8.85938 14.0039C8.34375 14.0039 7.99219 14.3672 7.99219 14.8711C7.99219 15.0703 8.02734 15.2461 8.08594 15.4219C8.49609 16.6406 9.76172 17.4375 11.3789 17.4375Z" fill="black" fill-opacity="0.85"/>
</svg>
