<svg width="22" height="22" viewBox="0 0 22 22" fill="none" xmlns="http://www.w3.org/2000/svg">
<path d="M3.67969 21.5977H17.8945C20.3555 21.5977 21.5742 20.3789 21.5742 17.9648V3.65625C21.5742 1.24219 20.3555 0.0234375 17.8945 0.0234375H3.67969C1.23047 0.0234375 0 1.23047 0 3.65625V17.9648C0 20.3906 1.23047 21.5977 3.67969 21.5977ZM3.70312 19.7109C2.53125 19.7109 1.88672 19.0898 1.88672 17.8711V3.75C1.88672 2.53125 2.53125 1.91016 3.70312 1.91016H17.8711C19.0312 1.91016 19.6875 2.53125 19.6875 3.75V17.8711C19.6875 19.0898 19.0312 19.7109 17.8711 19.7109H3.70312Z" fill="#007AFF"/>
<path d="M7.73438 16.1602C8.34375 16.1602 8.68359 15.7617 8.68359 15.1055V12.668L10.1133 11.1914L13.5352 15.7031C13.7695 16.0195 14.0156 16.1602 14.3438 16.1602C14.8711 16.1602 15.2461 15.7852 15.2461 15.2812C15.2461 15.0469 15.1523 14.7891 14.9883 14.5664L11.4844 9.98438L14.707 6.67969C14.9062 6.45703 14.9883 6.25781 14.9883 6C14.9883 5.56641 14.6133 5.20312 14.1328 5.20312C13.8398 5.20312 13.6406 5.3086 13.3711 5.57812L8.75391 10.2891H8.68359V6.25781C8.68359 5.60156 8.34375 5.20312 7.73438 5.20312C7.16016 5.20312 6.80859 5.60156 6.80859 6.25781V15.1055C6.80859 15.7617 7.16016 16.1602 7.73438 16.1602Z" fill="black" fill-opacity="0.85"/>
</svg>
