<svg width="30" height="23" viewBox="0 0 30 23" fill="none" xmlns="http://www.w3.org/2000/svg">
<path d="M23.1562 20.3672C26.6953 20.3672 29.4609 17.7773 29.4609 14.5547C29.4609 12.0938 28.043 9.96094 25.7578 9C25.7812 3.77344 22.0195 0 17.2266 0C14.0508 0 11.7891 1.69922 10.3828 3.75C7.5 2.90625 4.35938 5.09766 4.30078 8.37891C1.65234 8.80078 0 11.168 0 14.0273C0 17.4727 3.01172 20.3672 7.01953 20.3672H23.1562ZM23.1562 18.4805H7.01953C4.06641 18.4805 1.88672 16.418 1.88672 14.0273C1.88672 11.6836 3.30469 9.82031 5.78906 9.82031C5.95312 9.82031 6.01172 9.73828 6.01172 9.58594C6.01172 5.97656 8.61328 4.91016 11.0156 5.69531C11.1562 5.74219 11.2383 5.70703 11.3086 5.57812C12.4453 3.55078 14.1914 1.88672 17.2266 1.88672C21.0703 1.88672 23.7305 4.93359 23.9297 8.41406C23.9648 8.95312 23.9297 9.58594 23.8828 10.1367C23.8711 10.2891 23.9297 10.3711 24.0703 10.4062C26.2031 10.875 27.5742 12.4336 27.5742 14.5547C27.5742 16.7344 25.6523 18.4805 23.1562 18.4805Z" fill="#007AFF"/>
<path d="M21.1637 11.543C21.1637 9.59766 19.6051 8.05078 17.6832 8.05078C16.2184 8.05078 14.9293 8.91797 14.4019 10.2891H9.01129C8.88238 10.2891 8.77691 10.3242 8.65973 10.4414L7.75738 11.3555C7.65191 11.4492 7.64019 11.625 7.75738 11.7305L9.46832 13.4648C9.58551 13.582 9.76129 13.582 9.86676 13.4648L10.9332 12.3867L12.4098 13.875C12.5035 13.9805 12.6676 13.9688 12.7848 13.8516L14.2613 12.3984C14.941 14.0859 16.1832 15.0234 17.6832 15.0234C19.6051 15.0234 21.1637 13.4766 21.1637 11.543ZM19.4879 11.5312C19.4879 12.1172 19.0074 12.5977 18.4215 12.5977C17.8121 12.5977 17.3316 12.1172 17.3316 11.5312C17.3316 10.9453 17.8121 10.4648 18.4215 10.4648C19.0074 10.4648 19.4879 10.9336 19.4879 11.5312Z" fill="black" fill-opacity="0.85"/>
</svg>
