<svg width="27" height="31" viewBox="0 0 27 31" fill="none" xmlns="http://www.w3.org/2000/svg">
<path d="M22.6053 16.2662C23.0389 16.5591 23.5779 16.4654 23.8826 16.0084C25.3826 13.9459 26.2732 11.1099 26.2732 8.21538C26.2732 5.32085 25.3943 2.46148 23.8826 0.422413C23.5779 -0.0228996 23.0389 -0.128369 22.6053 0.1646C22.1717 0.457569 22.1014 1.00835 22.4412 1.48882C23.7186 3.30523 24.4568 5.71929 24.4568 8.21538C24.4568 10.7232 23.6951 13.1255 22.4412 14.9419C22.1131 15.4224 22.1717 15.9732 22.6053 16.2662Z" fill="#007AFF"/>
<path d="M18.2577 13.2193C18.6561 13.4888 19.2069 13.3951 19.5233 12.9498C20.414 11.7544 20.953 10.0084 20.953 8.21538C20.953 6.42241 20.414 4.68804 19.5233 3.49273C19.2069 3.03569 18.6561 2.95366 18.2577 3.23491C17.789 3.56304 17.7069 4.13726 18.0702 4.61773C18.7616 5.55523 19.1366 6.85601 19.1366 8.21538C19.1366 9.57476 18.7499 10.8638 18.0702 11.813C17.7187 12.3052 17.789 12.8794 18.2577 13.2193Z" fill="#007AFF"/>
<path d="M7.01953 29.274C7.51172 29.6841 8.17969 29.7427 8.64844 29.2857L12.2695 25.6646C12.7266 25.1959 12.7031 24.4927 12.2578 24.0357L10.4414 22.231L13.0898 19.5943C13.5469 19.149 13.5234 18.4341 13.0781 17.9654L10.6289 15.5044C13.8516 13.9576 15.668 11.3326 15.668 8.21538C15.668 3.89116 12.1641 0.398972 7.83984 0.398972C3.48047 0.398972 0 3.86773 0 8.21538C0 11.356 1.80469 14.1451 4.65234 15.399V26.4615C4.65234 26.8482 4.76953 27.2935 5.10938 27.5982L7.01953 29.274ZM7.83984 27.4224L6.53906 26.1334V14.0396C3.78516 13.4185 1.875 11.0396 1.875 8.21538C1.875 4.93413 4.53516 2.28569 7.83984 2.28569C11.1328 2.28569 13.7812 4.93413 13.7812 8.21538C13.7812 11.0162 11.8594 13.4185 8.91797 14.1216V16.4888L11.2148 18.7974L8.73047 21.2466V23.1919L10.3945 24.8326L7.83984 27.4224ZM7.83984 7.86382C8.88281 7.86382 9.73828 7.00835 9.73828 5.95366C9.73828 4.91069 8.88281 4.06694 7.83984 4.06694C6.77344 4.06694 5.94141 4.91069 5.94141 5.95366C5.94141 7.00835 6.78516 7.86382 7.83984 7.86382Z" fill="black" fill-opacity="0.85"/>
</svg>
