<svg width="29" height="15" viewBox="0 0 29 15" fill="none" xmlns="http://www.w3.org/2000/svg">
<path d="M28.9211 7.48828C28.9211 3.32812 25.593 0 21.4563 0C18.3157 0 15.5618 1.875 14.4485 4.80469H2.88208C2.5774 4.80469 2.36646 4.89844 2.13208 5.12109L0.163333 7.07812C-0.0241666 7.26562 -0.0827603 7.66406 0.163333 7.91016L3.87818 11.625C4.13599 11.8711 4.47583 11.8594 4.72193 11.625L6.99536 9.32812L10.1477 12.4805C10.3821 12.7148 10.7219 12.7148 10.9797 12.457L14.1321 9.32812C15.5735 12.9492 18.2454 14.9648 21.4563 14.9648C25.5813 14.9648 28.9211 11.6367 28.9211 7.48828ZM22.0422 7.48828C22.0422 6.39844 22.9211 5.53125 24.011 5.53125C25.1008 5.53125 25.968 6.38672 25.968 7.48828C25.968 8.57812 25.1008 9.45703 24.011 9.45703C22.9211 9.45703 22.0422 8.57812 22.0422 7.48828Z" fill="black" fill-opacity="0.85"/>
</svg>
