<svg width="15" height="30" viewBox="0 0 15 30" fill="none" xmlns="http://www.w3.org/2000/svg">
<path d="M7.48828 0.173828C3.31641 0.173828 0 3.49024 0 7.63868C0 10.7675 1.875 13.5332 4.80469 14.6464V26.2128C4.80469 26.5058 4.89844 26.7285 5.10938 26.9511L7.06641 28.9199C7.26562 29.1191 7.66406 29.1777 7.91016 28.9316L11.625 25.2168C11.8711 24.9589 11.8594 24.6191 11.625 24.373L9.31641 22.0996L12.4805 18.9472C12.7031 18.7128 12.7031 18.373 12.457 18.1152L9.32812 14.9628C12.9492 13.5214 14.9648 10.8496 14.9648 7.63868C14.9648 3.51368 11.625 0.173828 7.48828 0.173828ZM7.48828 7.04102C6.39844 7.04102 5.53125 6.16211 5.53125 5.08399C5.53125 3.99414 6.38672 3.12696 7.48828 3.12696C8.56641 3.12696 9.44531 3.99414 9.44531 5.08399C9.44531 6.16211 8.56641 7.04102 7.48828 7.04102Z" fill="black" fill-opacity="0.85"/>
</svg>
