<svg width="30" height="32" viewBox="0 0 30 32" fill="none" xmlns="http://www.w3.org/2000/svg">
<path d="M3.67969 24.8438H25.8164C28.2539 24.8438 29.4961 23.625 29.4961 21.2109V9.94922C29.4961 7.54688 28.2539 6.32812 25.8164 6.32812H3.67969C1.21875 6.32812 0 7.53516 0 9.94922V21.2109C0 23.625 1.21875 24.8438 3.67969 24.8438ZM3.70312 22.957C2.53125 22.957 1.88672 22.3242 1.88672 21.1055V10.0547C1.88672 8.83594 2.53125 8.21484 3.70312 8.21484H25.7812C26.9414 8.21484 27.6094 8.83594 27.6094 10.0547V21.1055C27.6094 22.3242 26.9414 22.957 25.7812 22.957H3.70312ZM4.75781 12.8555H5.83594C6.16406 12.8555 6.36328 12.6562 6.36328 12.3398V11.2617C6.36328 10.9336 6.16406 10.7344 5.83594 10.7344H4.75781C4.44141 10.7344 4.24219 10.9336 4.24219 11.2617V12.3398C4.24219 12.6562 4.44141 12.8555 4.75781 12.8555ZM8.53125 12.8555H9.60938C9.92578 12.8555 10.125 12.6562 10.125 12.3398V11.2617C10.125 10.9336 9.92578 10.7344 9.60938 10.7344H8.53125C8.20312 10.7344 8.00391 10.9336 8.00391 11.2617V12.3398C8.00391 12.6562 8.20312 12.8555 8.53125 12.8555ZM12.3047 12.8555H13.3711C13.6992 12.8555 13.8984 12.6562 13.8984 12.3398V11.2617C13.8984 10.9336 13.6992 10.7344 13.3711 10.7344H12.3047C11.9766 10.7344 11.7773 10.9336 11.7773 11.2617V12.3398C11.7773 12.6562 11.9766 12.8555 12.3047 12.8555ZM16.0664 12.8555H17.1445C17.4727 12.8555 17.6719 12.6562 17.6719 12.3398V11.2617C17.6719 10.9336 17.4727 10.7344 17.1445 10.7344H16.0664C15.75 10.7344 15.5508 10.9336 15.5508 11.2617V12.3398C15.5508 12.6562 15.75 12.8555 16.0664 12.8555ZM19.8398 12.8555H20.918C21.2344 12.8555 21.4336 12.6562 21.4336 12.3398V11.2617C21.4336 10.9336 21.2344 10.7344 20.918 10.7344H19.8398C19.5117 10.7344 19.3125 10.9336 19.3125 11.2617V12.3398C19.3125 12.6562 19.5117 12.8555 19.8398 12.8555ZM23.6133 12.8555H24.6797C25.0078 12.8555 25.207 12.6562 25.207 12.3398V11.2617C25.207 10.9336 25.0078 10.7344 24.6797 10.7344H23.6133C23.2852 10.7344 23.0859 10.9336 23.0859 11.2617V12.3398C23.0859 12.6562 23.2852 12.8555 23.6133 12.8555ZM4.75781 16.6289H5.83594C6.16406 16.6289 6.36328 16.4297 6.36328 16.1016V15.0352C6.36328 14.707 6.16406 14.5078 5.83594 14.5078H4.75781C4.44141 14.5078 4.24219 14.707 4.24219 15.0352V16.1016C4.24219 16.4297 4.44141 16.6289 4.75781 16.6289ZM8.53125 16.6289H9.60938C9.92578 16.6289 10.125 16.4297 10.125 16.1016V15.0352C10.125 14.707 9.92578 14.5078 9.60938 14.5078H8.53125C8.20312 14.5078 8.00391 14.707 8.00391 15.0352V16.1016C8.00391 16.4297 8.20312 16.6289 8.53125 16.6289ZM12.3047 16.6289H13.3711C13.6992 16.6289 13.8984 16.4297 13.8984 16.1016V15.0352C13.8984 14.707 13.6992 14.5078 13.3711 14.5078H12.3047C11.9766 14.5078 11.7773 14.707 11.7773 15.0352V16.1016C11.7773 16.4297 11.9766 16.6289 12.3047 16.6289ZM16.0664 16.6289H17.1445C17.4727 16.6289 17.6719 16.4297 17.6719 16.1016V15.0352C17.6719 14.707 17.4727 14.5078 17.1445 14.5078H16.0664C15.75 14.5078 15.5508 14.707 15.5508 15.0352V16.1016C15.5508 16.4297 15.75 16.6289 16.0664 16.6289ZM19.8398 16.6289H20.918C21.2344 16.6289 21.4336 16.4297 21.4336 16.1016V15.0352C21.4336 14.707 21.2344 14.5078 20.918 14.5078H19.8398C19.5117 14.5078 19.3125 14.707 19.3125 15.0352V16.1016C19.3125 16.4297 19.5117 16.6289 19.8398 16.6289ZM23.6133 16.6289H24.6797C25.0078 16.6289 25.207 16.4297 25.207 16.1016V15.0352C25.207 14.707 25.0078 14.5078 24.6797 14.5078H23.6133C23.2852 14.5078 23.0859 14.707 23.0859 15.0352V16.1016C23.0859 16.4297 23.2852 16.6289 23.6133 16.6289ZM4.75781 20.4023H5.83594C6.16406 20.4023 6.36328 20.2031 6.36328 19.875V18.7969C6.36328 18.4805 6.16406 18.2812 5.83594 18.2812H4.75781C4.44141 18.2812 4.24219 18.4805 4.24219 18.7969V19.875C4.24219 20.2031 4.44141 20.4023 4.75781 20.4023ZM8.64844 20.4023H20.8008C21.1992 20.4023 21.4336 20.168 21.4336 19.7578V18.9141C21.4336 18.5156 21.1992 18.2812 20.8008 18.2812H8.64844C8.23828 18.2812 8.00391 18.5156 8.00391 18.9141V19.7578C8.00391 20.168 8.23828 20.4023 8.64844 20.4023ZM23.6133 20.4023H24.6797C25.0078 20.4023 25.207 20.2031 25.207 19.875V18.7969C25.207 18.4805 25.0078 18.2812 24.6797 18.2812H23.6133C23.2852 18.2812 23.0859 18.4805 23.0859 18.7969V19.875C23.0859 20.2031 23.2852 20.4023 23.6133 20.4023Z" fill="black" fill-opacity="0.85"/>
<path d="M14.7422 31.1836C15.1992 31.1836 15.7852 30.9375 16.2539 30.7734L22.3477 28.5352C22.8047 28.3711 22.9805 27.9609 22.9805 27.6914C22.9805 27.1289 22.582 26.6484 21.9609 26.6484C21.668 26.6484 21.2461 26.8125 20.9766 26.918L14.0273 29.5078H15.4805L8.51953 26.918C8.25 26.8125 7.85156 26.6484 7.54688 26.6484C6.96094 26.6484 6.52734 27.1055 6.52734 27.6914C6.52734 27.9609 6.69141 28.3711 7.16016 28.5352L13.2422 30.7734C13.7344 30.9492 14.2969 31.1836 14.7422 31.1836Z" fill="black" fill-opacity="0.85"/>
</svg>
