<svg width="38" height="19" viewBox="0 0 38 19" fill="none" xmlns="http://www.w3.org/2000/svg">
<path d="M11.9443 18.5156H34.0811C36.5186 18.5156 37.7607 17.2969 37.7607 14.8828V3.62109C37.7607 1.21875 36.5186 0 34.0811 0H11.9443C9.4834 0 8.26465 1.20703 8.26465 3.62109V14.8828C8.26465 17.2969 9.4834 18.5156 11.9443 18.5156ZM12.7178 6.44531C12.3779 6.44531 12.1787 6.23438 12.1787 5.90625V4.79297C12.1787 4.46484 12.3779 4.25391 12.7178 4.25391H13.8193C14.1592 4.25391 14.3701 4.46484 14.3701 4.79297V5.90625C14.3701 6.23438 14.1592 6.44531 13.8193 6.44531H12.7178ZM16.5967 6.44531C16.2568 6.44531 16.0576 6.23438 16.0576 5.90625V4.79297C16.0576 4.46484 16.2568 4.25391 16.5967 4.25391H17.71C18.0498 4.25391 18.2607 4.46484 18.2607 4.79297V5.90625C18.2607 6.23438 18.0498 6.44531 17.71 6.44531H16.5967ZM20.4873 6.44531C20.1592 6.44531 19.9482 6.23438 19.9482 5.90625V4.79297C19.9482 4.46484 20.1592 4.25391 20.4873 4.25391H21.5889C21.9287 4.25391 22.1396 4.46484 22.1396 4.79297V5.90625C22.1396 6.23438 21.9287 6.44531 21.5889 6.44531H20.4873ZM24.3896 6.44531C24.0498 6.44531 23.8389 6.23438 23.8389 5.90625V4.79297C23.8389 4.46484 24.0498 4.25391 24.3896 4.25391H25.4912C25.8193 4.25391 26.0303 4.46484 26.0303 4.79297V5.90625C26.0303 6.23438 25.8193 6.44531 25.4912 6.44531H24.3896ZM28.2686 6.44531C27.9287 6.44531 27.7178 6.23438 27.7178 5.90625V4.79297C27.7178 4.46484 27.9287 4.25391 28.2686 4.25391H29.3818C29.71 4.25391 29.9209 4.46484 29.9209 4.79297V5.90625C29.9209 6.23438 29.71 6.44531 29.3818 6.44531H28.2686ZM32.1592 6.44531C31.8193 6.44531 31.6084 6.23438 31.6084 5.90625V4.79297C31.6084 4.46484 31.8193 4.25391 32.1592 4.25391H33.2607C33.6006 4.25391 33.7998 4.46484 33.7998 4.79297V5.90625C33.7998 6.23438 33.6006 6.44531 33.2607 6.44531H32.1592ZM12.7178 10.3359C12.3779 10.3359 12.1787 10.125 12.1787 9.79688V8.68359C12.1787 8.35547 12.3779 8.14453 12.7178 8.14453H13.8193C14.1592 8.14453 14.3701 8.35547 14.3701 8.68359V9.79688C14.3701 10.125 14.1592 10.3359 13.8193 10.3359H12.7178ZM16.5967 10.3359C16.2568 10.3359 16.0576 10.125 16.0576 9.79688V8.68359C16.0576 8.35547 16.2568 8.14453 16.5967 8.14453H17.71C18.0498 8.14453 18.2607 8.35547 18.2607 8.68359V9.79688C18.2607 10.125 18.0498 10.3359 17.71 10.3359H16.5967ZM20.4873 10.3359C20.1592 10.3359 19.9482 10.125 19.9482 9.79688V8.68359C19.9482 8.35547 20.1592 8.14453 20.4873 8.14453H21.5889C21.9287 8.14453 22.1396 8.35547 22.1396 8.68359V9.79688C22.1396 10.125 21.9287 10.3359 21.5889 10.3359H20.4873ZM24.3896 10.3359C24.0498 10.3359 23.8389 10.125 23.8389 9.79688V8.68359C23.8389 8.35547 24.0498 8.14453 24.3896 8.14453H25.4912C25.8193 8.14453 26.0303 8.35547 26.0303 8.68359V9.79688C26.0303 10.125 25.8193 10.3359 25.4912 10.3359H24.3896ZM28.2686 10.3359C27.9287 10.3359 27.7178 10.125 27.7178 9.79688V8.68359C27.7178 8.35547 27.9287 8.14453 28.2686 8.14453H29.3818C29.71 8.14453 29.9209 8.35547 29.9209 8.68359V9.79688C29.9209 10.125 29.71 10.3359 29.3818 10.3359H28.2686ZM32.1592 10.3359C31.8193 10.3359 31.6084 10.125 31.6084 9.79688V8.68359C31.6084 8.35547 31.8193 8.14453 32.1592 8.14453H33.2607C33.6006 8.14453 33.7998 8.35547 33.7998 8.68359V9.79688C33.7998 10.125 33.6006 10.3359 33.2607 10.3359H32.1592ZM12.7178 14.2266C12.3779 14.2266 12.1787 14.0156 12.1787 13.6875V12.5742C12.1787 12.2461 12.3779 12.0352 12.7178 12.0352H13.8193C14.1592 12.0352 14.3701 12.2461 14.3701 12.5742V13.6875C14.3701 14.0156 14.1592 14.2266 13.8193 14.2266H12.7178ZM16.7256 14.2266C16.3037 14.2266 16.0576 13.9805 16.0576 13.5586V12.6914C16.0576 12.2812 16.3037 12.0352 16.7256 12.0352H29.2529C29.6631 12.0352 29.9209 12.2812 29.9209 12.6914V13.5586C29.9209 13.9805 29.6631 14.2266 29.2529 14.2266H16.7256ZM32.1592 14.2266C31.8193 14.2266 31.6084 14.0156 31.6084 13.6875V12.5742C31.6084 12.2461 31.8193 12.0352 32.1592 12.0352H33.2607C33.6006 12.0352 33.7998 12.2461 33.7998 12.5742V13.6875C33.7998 14.0156 33.6006 14.2266 33.2607 14.2266H32.1592Z" fill="black" fill-opacity="0.85"/>
<path d="M3.6123 14.7305C4.45605 15.9023 5.90918 14.8008 5.21777 13.8281L1.95996 9.24613L5.21777 4.68754C5.90918 3.7266 4.45605 2.61332 3.6123 3.7852L0.272461 8.42582C-0.0908203 8.94145 -0.0908203 9.57426 0.272461 10.0781L3.6123 14.7305Z" fill="black" fill-opacity="0.85"/>
</svg>
