<svg width="30" height="19" viewBox="0 0 30 19" fill="none" xmlns="http://www.w3.org/2000/svg">
<path d="M3.67969 18.5156H25.8164C28.2539 18.5156 29.4961 17.2969 29.4961 14.8828V3.62109C29.4961 1.21875 28.2539 0 25.8164 0H3.67969C1.21875 0 0 1.20703 0 3.62109V14.8828C0 17.2969 1.21875 18.5156 3.67969 18.5156Z" fill="#FFCC00"/>
<path d="M11.0391 6.42188C10.8281 6.42188 10.6875 6.26953 10.6875 6.03516V4.67578C10.6875 4.42969 10.8281 4.28906 11.0391 4.28906H11.9414C12.1523 4.28906 12.293 4.42969 12.293 4.67578V6.03516C12.293 6.26953 12.1523 6.42188 11.9414 6.42188H11.0391ZM13.6992 6.42188C13.4883 6.42188 13.3359 6.26953 13.3359 6.03516V4.67578C13.3359 4.42969 13.4883 4.28906 13.6992 4.28906H14.5898C14.8008 4.28906 14.9414 4.42969 14.9414 4.67578V6.03516C14.9414 6.26953 14.8008 6.42188 14.5898 6.42188H13.6992ZM16.3594 6.42188C16.125 6.42188 15.9961 6.26953 15.9961 6.03516V4.67578C15.9961 4.42969 16.125 4.28906 16.3594 4.28906H17.25C17.4492 4.28906 17.6016 4.42969 17.6016 4.67578V6.03516C17.6016 6.26953 17.4492 6.42188 17.25 6.42188H16.3594ZM19.0078 6.42188C18.7734 6.42188 18.6445 6.26953 18.6445 6.03516V4.67578C18.6445 4.42969 18.7734 4.28906 19.0078 4.28906H19.875C20.1094 4.28906 20.2383 4.42969 20.2383 4.67578V6.03516C20.2383 6.26953 20.1094 6.42188 19.875 6.42188H19.0078ZM21.6445 6.42188C21.4336 6.42188 21.3047 6.26953 21.3047 6.03516V4.67578C21.3047 4.42969 21.4336 4.28906 21.6445 4.28906H22.5469C22.7578 4.28906 22.8984 4.42969 22.8984 4.67578V6.03516C22.8984 6.26953 22.7578 6.42188 22.5469 6.42188H21.6445ZM24.3164 6.42188C24.082 6.42188 23.9531 6.26953 23.9531 6.03516V4.67578C23.9531 4.42969 24.082 4.28906 24.3164 4.28906H25.1836C25.418 4.28906 25.5469 4.42969 25.5469 4.67578V6.03516C25.5469 6.26953 25.418 6.42188 25.1836 6.42188H24.3164ZM11.0391 10.3008C10.8281 10.3008 10.6875 10.1719 10.6875 9.91406V8.56641C10.6875 8.30859 10.8281 8.17969 11.0391 8.17969H11.9414C12.1523 8.17969 12.293 8.30859 12.293 8.56641V9.91406C12.293 10.1719 12.1523 10.3008 11.9414 10.3008H11.0391ZM13.6992 10.3008C13.4883 10.3008 13.3359 10.1719 13.3359 9.91406V8.56641C13.3359 8.30859 13.4883 8.17969 13.6992 8.17969H14.5898C14.8008 8.17969 14.9414 8.30859 14.9414 8.56641V9.91406C14.9414 10.1719 14.8008 10.3008 14.5898 10.3008H13.6992ZM16.3594 10.3008C16.125 10.3008 15.9961 10.1719 15.9961 9.91406V8.56641C15.9961 8.30859 16.125 8.17969 16.3594 8.17969H17.25C17.4492 8.17969 17.6016 8.30859 17.6016 8.56641V9.91406C17.6016 10.1719 17.4492 10.3008 17.25 10.3008H16.3594ZM19.0078 10.3008C18.7734 10.3008 18.6445 10.1719 18.6445 9.91406V8.56641C18.6445 8.30859 18.7734 8.17969 19.0078 8.17969H19.875C20.1094 8.17969 20.2383 8.30859 20.2383 8.56641V9.91406C20.2383 10.1719 20.1094 10.3008 19.875 10.3008H19.0078ZM21.6445 10.3008C21.4336 10.3008 21.3047 10.1719 21.3047 9.91406V8.56641C21.3047 8.30859 21.4336 8.17969 21.6445 8.17969H22.5469C22.7578 8.17969 22.8984 8.30859 22.8984 8.56641V9.91406C22.8984 10.1719 22.7578 10.3008 22.5469 10.3008H21.6445ZM24.3164 10.3008C24.082 10.3008 23.9531 10.1719 23.9531 9.91406V8.56641C23.9531 8.30859 24.082 8.17969 24.3164 8.17969H25.1836C25.418 8.17969 25.5469 8.30859 25.5469 8.56641V9.91406C25.5469 10.1719 25.418 10.3008 25.1836 10.3008H24.3164ZM11.0391 14.1914C10.8281 14.1914 10.6875 14.0508 10.6875 13.8047V12.4453C10.6875 12.2109 10.8281 12.0586 11.0391 12.0586H11.9414C12.1523 12.0586 12.293 12.2109 12.293 12.4453V13.8047C12.293 14.0508 12.1523 14.1914 11.9414 14.1914H11.0391ZM13.6992 14.1914C13.4883 14.1914 13.3359 14.0508 13.3359 13.8047V12.4453C13.3359 12.2109 13.4883 12.0586 13.6992 12.0586H22.5469C22.7578 12.0586 22.8984 12.2109 22.8984 12.4453V13.8047C22.8984 14.0508 22.7578 14.1914 22.5469 14.1914H13.6992ZM24.3164 14.1914C24.082 14.1914 23.9531 14.0508 23.9531 13.8047V12.4453C23.9531 12.2109 24.082 12.0586 24.3164 12.0586H25.1836C25.418 12.0586 25.5469 12.2109 25.5469 12.4453V13.8047C25.5469 14.0508 25.418 14.1914 25.1836 14.1914H24.3164ZM8.58984 8.57812C9.03516 9 9.03516 9.50391 8.58984 9.92578L5.05078 13.3008C4.64062 13.6875 3.9375 13.5352 3.9375 12.8789V5.625C3.9375 4.98047 4.64062 4.82812 5.05078 5.21484L8.58984 8.57812Z" fill="black" fill-opacity="0.85"/>
</svg>
