<svg width="30" height="19" viewBox="0 0 30 19" fill="none" xmlns="http://www.w3.org/2000/svg">
<path d="M3.67969 18.5156H25.8164C28.2539 18.5156 29.4961 17.2969 29.4961 14.8828V3.62109C29.4961 1.21875 28.2539 0 25.8164 0H3.67969C1.21875 0 0 1.20703 0 3.62109V14.8828C0 17.2969 1.21875 18.5156 3.67969 18.5156Z" fill="#FFCC00"/>
<path d="M4.30078 6.42188C4.07812 6.42188 3.9375 6.26953 3.9375 6.03516V4.67578C3.9375 4.42969 4.07812 4.28906 4.30078 4.28906H5.19141C5.40234 4.28906 5.53125 4.42969 5.53125 4.67578V6.03516C5.53125 6.26953 5.40234 6.42188 5.19141 6.42188H4.30078ZM6.96094 6.42188C6.72656 6.42188 6.59766 6.26953 6.59766 6.03516V4.67578C6.59766 4.42969 6.72656 4.28906 6.96094 4.28906H7.83984C8.0625 4.28906 8.19141 4.42969 8.19141 4.67578V6.03516C8.19141 6.26953 8.0625 6.42188 7.83984 6.42188H6.96094ZM9.60938 6.42188C9.38672 6.42188 9.24609 6.26953 9.24609 6.03516V4.67578C9.24609 4.42969 9.38672 4.28906 9.60938 4.28906H10.5C10.7109 4.28906 10.8398 4.42969 10.8398 4.67578V6.03516C10.8398 6.26953 10.7109 6.42188 10.5 6.42188H9.60938ZM12.2578 6.42188C12.0352 6.42188 11.9062 6.26953 11.9062 6.03516V4.67578C11.9062 4.42969 12.0352 4.28906 12.2578 4.28906H13.1367C13.3594 4.28906 13.5 4.42969 13.5 4.67578V6.03516C13.5 6.26953 13.3594 6.42188 13.1367 6.42188H12.2578ZM14.8945 6.42188C14.6836 6.42188 14.543 6.26953 14.543 6.03516V4.67578C14.543 4.42969 14.6836 4.28906 14.8945 4.28906H15.8086C16.0078 4.28906 16.1484 4.42969 16.1484 4.67578V6.03516C16.1484 6.26953 16.0078 6.42188 15.8086 6.42188H14.8945ZM17.5664 6.42188C17.3438 6.42188 17.2031 6.26953 17.2031 6.03516V4.67578C17.2031 4.42969 17.3438 4.28906 17.5664 4.28906H18.4453C18.6562 4.28906 18.8086 4.42969 18.8086 4.67578V6.03516C18.8086 6.26953 18.6562 6.42188 18.4453 6.42188H17.5664ZM4.30078 10.3008C4.07812 10.3008 3.9375 10.1719 3.9375 9.91406V8.56641C3.9375 8.30859 4.07812 8.17969 4.30078 8.17969H5.19141C5.40234 8.17969 5.53125 8.30859 5.53125 8.56641V9.91406C5.53125 10.1719 5.40234 10.3008 5.19141 10.3008H4.30078ZM6.96094 10.3008C6.72656 10.3008 6.59766 10.1719 6.59766 9.91406V8.56641C6.59766 8.30859 6.72656 8.17969 6.96094 8.17969H7.83984C8.0625 8.17969 8.19141 8.30859 8.19141 8.56641V9.91406C8.19141 10.1719 8.0625 10.3008 7.83984 10.3008H6.96094ZM9.60938 10.3008C9.38672 10.3008 9.24609 10.1719 9.24609 9.91406V8.56641C9.24609 8.30859 9.38672 8.17969 9.60938 8.17969H10.5C10.7109 8.17969 10.8398 8.30859 10.8398 8.56641V9.91406C10.8398 10.1719 10.7109 10.3008 10.5 10.3008H9.60938ZM12.2578 10.3008C12.0352 10.3008 11.9062 10.1719 11.9062 9.91406V8.56641C11.9062 8.30859 12.0352 8.17969 12.2578 8.17969H13.1367C13.3594 8.17969 13.5 8.30859 13.5 8.56641V9.91406C13.5 10.1719 13.3594 10.3008 13.1367 10.3008H12.2578ZM14.8945 10.3008C14.6836 10.3008 14.543 10.1719 14.543 9.91406V8.56641C14.543 8.30859 14.6836 8.17969 14.8945 8.17969H15.8086C16.0078 8.17969 16.1484 8.30859 16.1484 8.56641V9.91406C16.1484 10.1719 16.0078 10.3008 15.8086 10.3008H14.8945ZM17.5664 10.3008C17.3438 10.3008 17.2031 10.1719 17.2031 9.91406V8.56641C17.2031 8.30859 17.3438 8.17969 17.5664 8.17969H18.4453C18.6562 8.17969 18.8086 8.30859 18.8086 8.56641V9.91406C18.8086 10.1719 18.6562 10.3008 18.4453 10.3008H17.5664ZM4.30078 14.1914C4.07812 14.1914 3.9375 14.0508 3.9375 13.8047V12.4453C3.9375 12.2109 4.07812 12.0586 4.30078 12.0586H5.19141C5.40234 12.0586 5.53125 12.2109 5.53125 12.4453V13.8047C5.53125 14.0508 5.40234 14.1914 5.19141 14.1914H4.30078ZM6.96094 14.1914C6.72656 14.1914 6.59766 14.0508 6.59766 13.8047V12.4453C6.59766 12.2109 6.72656 12.0586 6.96094 12.0586H15.8086C16.0078 12.0586 16.1484 12.2109 16.1484 12.4453V13.8047C16.1484 14.0508 16.0078 14.1914 15.8086 14.1914H6.96094ZM17.5664 14.1914C17.3438 14.1914 17.2031 14.0508 17.2031 13.8047V12.4453C17.2031 12.2109 17.3438 12.0586 17.5664 12.0586H18.4453C18.6562 12.0586 18.8086 12.2109 18.8086 12.4453V13.8047C18.8086 14.0508 18.6562 14.1914 18.4453 14.1914H17.5664ZM20.8477 8.57812L24.3867 5.21484C24.7969 4.82812 25.5 4.98047 25.5 5.625V12.8789C25.5 13.5352 24.7969 13.6875 24.3867 13.3008L20.8477 9.92578C20.4023 9.50391 20.4023 9 20.8477 8.57812Z" fill="black" fill-opacity="0.85"/>
</svg>
