<svg width="30" height="32" viewBox="0 0 30 32" fill="none" xmlns="http://www.w3.org/2000/svg">
<path d="M3.67969 24.8438H25.8164C28.2539 24.8438 29.4961 23.625 29.4961 21.2109V9.94922C29.4961 7.54688 28.2539 6.32812 25.8164 6.32812H3.67969C1.21875 6.32812 0 7.53516 0 9.94922V21.2109C0 23.625 1.21875 24.8438 3.67969 24.8438ZM4.44141 12.7734C4.11328 12.7734 3.91406 12.5625 3.91406 12.2344V11.1211C3.91406 10.793 4.11328 10.582 4.44141 10.582H5.55469C5.89453 10.582 6.10547 10.793 6.10547 11.1211V12.2344C6.10547 12.5625 5.89453 12.7734 5.55469 12.7734H4.44141ZM8.33203 12.7734C7.99219 12.7734 7.79297 12.5625 7.79297 12.2344V11.1211C7.79297 10.793 7.99219 10.582 8.33203 10.582H9.44531C9.77344 10.582 9.98438 10.793 9.98438 11.1211V12.2344C9.98438 12.5625 9.77344 12.7734 9.44531 12.7734H8.33203ZM12.2227 12.7734C11.8945 12.7734 11.6836 12.5625 11.6836 12.2344V11.1211C11.6836 10.793 11.8945 10.582 12.2227 10.582H13.3242C13.6641 10.582 13.875 10.793 13.875 11.1211V12.2344C13.875 12.5625 13.6641 12.7734 13.3242 12.7734H12.2227ZM16.1133 12.7734C15.7852 12.7734 15.5742 12.5625 15.5742 12.2344V11.1211C15.5742 10.793 15.7852 10.582 16.1133 10.582H17.2266C17.5547 10.582 17.7656 10.793 17.7656 11.1211V12.2344C17.7656 12.5625 17.5547 12.7734 17.2266 12.7734H16.1133ZM20.0039 12.7734C19.6641 12.7734 19.4531 12.5625 19.4531 12.2344V11.1211C19.4531 10.793 19.6641 10.582 20.0039 10.582H21.1172C21.4453 10.582 21.6445 10.793 21.6445 11.1211V12.2344C21.6445 12.5625 21.4453 12.7734 21.1172 12.7734H20.0039ZM23.8945 12.7734C23.5547 12.7734 23.3438 12.5625 23.3438 12.2344V11.1211C23.3438 10.793 23.5547 10.582 23.8945 10.582H24.9961C25.3359 10.582 25.5352 10.793 25.5352 11.1211V12.2344C25.5352 12.5625 25.3359 12.7734 24.9961 12.7734H23.8945ZM4.44141 16.6641C4.11328 16.6641 3.91406 16.4531 3.91406 16.125V15.0117C3.91406 14.6836 4.11328 14.4727 4.44141 14.4727H5.55469C5.89453 14.4727 6.10547 14.6836 6.10547 15.0117V16.125C6.10547 16.4531 5.89453 16.6641 5.55469 16.6641H4.44141ZM8.33203 16.6641C7.99219 16.6641 7.79297 16.4531 7.79297 16.125V15.0117C7.79297 14.6836 7.99219 14.4727 8.33203 14.4727H9.44531C9.77344 14.4727 9.98438 14.6836 9.98438 15.0117V16.125C9.98438 16.4531 9.77344 16.6641 9.44531 16.6641H8.33203ZM12.2227 16.6641C11.8945 16.6641 11.6836 16.4531 11.6836 16.125V15.0117C11.6836 14.6836 11.8945 14.4727 12.2227 14.4727H13.3242C13.6641 14.4727 13.875 14.6836 13.875 15.0117V16.125C13.875 16.4531 13.6641 16.6641 13.3242 16.6641H12.2227ZM16.1133 16.6641C15.7852 16.6641 15.5742 16.4531 15.5742 16.125V15.0117C15.5742 14.6836 15.7852 14.4727 16.1133 14.4727H17.2266C17.5547 14.4727 17.7656 14.6836 17.7656 15.0117V16.125C17.7656 16.4531 17.5547 16.6641 17.2266 16.6641H16.1133ZM20.0039 16.6641C19.6641 16.6641 19.4531 16.4531 19.4531 16.125V15.0117C19.4531 14.6836 19.6641 14.4727 20.0039 14.4727H21.1172C21.4453 14.4727 21.6445 14.6836 21.6445 15.0117V16.125C21.6445 16.4531 21.4453 16.6641 21.1172 16.6641H20.0039ZM23.8945 16.6641C23.5547 16.6641 23.3438 16.4531 23.3438 16.125V15.0117C23.3438 14.6836 23.5547 14.4727 23.8945 14.4727H24.9961C25.3359 14.4727 25.5352 14.6836 25.5352 15.0117V16.125C25.5352 16.4531 25.3359 16.6641 24.9961 16.6641H23.8945ZM4.44141 20.5547C4.11328 20.5547 3.91406 20.3438 3.91406 20.0156V18.9023C3.91406 18.5742 4.11328 18.3633 4.44141 18.3633H5.55469C5.89453 18.3633 6.10547 18.5742 6.10547 18.9023V20.0156C6.10547 20.3438 5.89453 20.5547 5.55469 20.5547H4.44141ZM8.46094 20.5547C8.03906 20.5547 7.79297 20.3086 7.79297 19.8867V19.0195C7.79297 18.6094 8.03906 18.3633 8.46094 18.3633H20.9883C21.3984 18.3633 21.6445 18.6094 21.6445 19.0195V19.8867C21.6445 20.3086 21.3984 20.5547 20.9883 20.5547H8.46094ZM23.8945 20.5547C23.5547 20.5547 23.3438 20.3438 23.3438 20.0156V18.9023C23.3438 18.5742 23.5547 18.3633 23.8945 18.3633H24.9961C25.3359 18.3633 25.5352 18.5742 25.5352 18.9023V20.0156C25.5352 20.3438 25.3359 20.5547 24.9961 20.5547H23.8945Z" fill="black" fill-opacity="0.85"/>
<path d="M14.7422 31.1836C15.1992 31.1836 15.7852 30.9375 16.2539 30.7734L22.3477 28.5352C22.8047 28.3711 22.9805 27.9609 22.9805 27.6914C22.9805 27.1289 22.582 26.6484 21.9609 26.6484C21.668 26.6484 21.2461 26.8125 20.9766 26.918L14.0273 29.5078H15.4805L8.51953 26.918C8.25 26.8125 7.85156 26.6484 7.54688 26.6484C6.96094 26.6484 6.52734 27.1055 6.52734 27.6914C6.52734 27.9609 6.69141 28.3711 7.16016 28.5352L13.2422 30.7734C13.7344 30.9492 14.2969 31.1836 14.7422 31.1836Z" fill="black" fill-opacity="0.85"/>
</svg>
