<svg width="22" height="22" viewBox="0 0 22 22" fill="none" xmlns="http://www.w3.org/2000/svg">
<path d="M3.67969 21.5977H17.8945C20.3555 21.5977 21.5742 20.3789 21.5742 17.9648V3.65625C21.5742 1.24219 20.3555 0.0234375 17.8945 0.0234375H3.67969C1.23047 0.0234375 0 1.23047 0 3.65625V17.9648C0 20.3906 1.23047 21.5977 3.67969 21.5977Z" fill="#FFCC00"/>
<path d="M6.12891 10.9102C6.12891 10.5586 6.38672 10.3125 6.71484 10.3125H7.47656V5.90625C7.47656 5.40234 7.79297 5.10938 8.27344 5.10938C8.74219 5.10938 9.04688 5.40234 9.04688 5.90625V10.3125H9.59766L13.5117 5.47266C13.7227 5.19141 13.9336 5.08594 14.168 5.08594C14.5898 5.08594 14.9062 5.40234 14.9062 5.8125C14.9062 5.96484 14.8359 6.16406 14.6953 6.32812L11.4492 10.3125H14.5781C14.9297 10.3125 15.1641 10.5586 15.1641 10.9102C15.1641 11.2383 14.9297 11.5195 14.5781 11.5195H11.4609L14.707 15.5391C14.8359 15.7148 14.918 15.9141 14.918 16.0664C14.918 16.4766 14.5781 16.793 14.1562 16.793C13.9336 16.793 13.7227 16.6875 13.5117 16.418L9.62109 11.5195H9.04688V15.9961C9.04688 16.4883 8.73047 16.793 8.27344 16.793C7.80469 16.793 7.47656 16.4883 7.47656 15.9961V11.5195H6.71484C6.38672 11.5195 6.12891 11.2383 6.12891 10.9102Z" fill="black" fill-opacity="0.85"/>
</svg>
