<svg width="22" height="22" viewBox="0 0 22 22" fill="none" xmlns="http://www.w3.org/2000/svg">
<path d="M3.67969 21.5977H17.8945C20.3555 21.5977 21.5742 20.3789 21.5742 17.9648V3.65625C21.5742 1.24219 20.3555 0.0234375 17.8945 0.0234375H3.67969C1.23047 0.0234375 0 1.23047 0 3.65625V17.9648C0 20.3906 1.23047 21.5977 3.67969 21.5977ZM3.70312 19.7109C2.53125 19.7109 1.88672 19.0898 1.88672 17.8711V3.75C1.88672 2.53125 2.53125 1.91016 3.70312 1.91016H17.8711C19.0312 1.91016 19.6875 2.53125 19.6875 3.75V17.8711C19.6875 19.0898 19.0312 19.7109 17.8711 19.7109H3.70312Z" fill="#007AFF"/>
<path d="M6.26953 10.9102C6.26953 11.2266 6.51562 11.4961 6.84375 11.4961H7.58203V15.8438C7.58203 16.3125 7.89844 16.6055 8.34375 16.6055C8.78906 16.6055 9.09375 16.3125 9.09375 15.8438V11.4961H9.64453L13.4297 16.2539C13.6289 16.5117 13.8281 16.6055 14.0508 16.6055C14.4492 16.6055 14.7773 16.3008 14.7773 15.9141C14.7773 15.7617 14.707 15.5742 14.5781 15.3984L11.4258 11.4961H14.4492C14.7891 11.4961 15.0234 11.2266 15.0234 10.9102C15.0234 10.5703 14.7891 10.3359 14.4492 10.3359H11.4141L14.5664 6.46875C14.707 6.30469 14.7656 6.11719 14.7656 5.96484C14.7656 5.57812 14.4609 5.27344 14.0625 5.27344C13.8281 5.27344 13.6289 5.36719 13.4297 5.63672L9.63281 10.3359H9.09375V6.05859C9.09375 5.57812 8.80078 5.29688 8.34375 5.29688C7.88672 5.29688 7.58203 5.57812 7.58203 6.05859V10.3359H6.84375C6.51562 10.3359 6.26953 10.5703 6.26953 10.9102Z" fill="black" fill-opacity="0.85"/>
</svg>
