<svg width="17" height="22" viewBox="0 0 17 22" fill="none" xmlns="http://www.w3.org/2000/svg">
<path d="M3.48047 21.7148C4.13672 21.7148 4.59375 21.2578 4.59375 20.5664V1.34766C4.59375 0.65625 4.13672 0.234375 3.48047 0.234375C2.80078 0.234375 2.35547 0.65625 2.35547 1.34766V20.5664C2.35547 21.2578 2.80078 21.7148 3.48047 21.7148ZM14.6719 21.7148C15.2344 21.7148 15.7031 21.2812 15.7031 20.7305C15.7031 20.4961 15.6094 20.2148 15.3984 19.957L8.09766 10.8984L15.3984 1.96875C15.5977 1.72266 15.6914 1.44141 15.6914 1.21875C15.6914 0.667969 15.2461 0.234375 14.6719 0.234375C14.332 0.234375 14.0391 0.386719 13.7227 0.785156L5.57812 10.8984L13.7344 21.1758C14.0508 21.5625 14.332 21.7148 14.6719 21.7148ZM0.75 11.6602H15.457C15.8906 11.6602 16.2188 11.3203 16.2188 10.8984C16.2188 10.4531 15.8906 10.1367 15.457 10.1367H0.75C0.316406 10.1367 0 10.4531 0 10.8984C0 11.3203 0.328125 11.6602 0.75 11.6602Z" fill="black" fill-opacity="0.85"/>
</svg>
