<svg width="24" height="24" viewBox="0 0 24 24" fill="none" xmlns="http://www.w3.org/2000/svg">
<path d="M11.9531 23.9062C18.4922 23.9062 23.9062 18.4805 23.9062 11.9531C23.9062 5.41406 18.4805 0 11.9414 0C5.41406 0 0 5.41406 0 11.9531C0 18.4805 5.42578 23.9062 11.9531 23.9062Z" fill="#FFCC00"/>
<path d="M9.70312 17.3438C9.08203 17.3438 8.74219 16.8984 8.74219 16.2539V7.27734C8.74219 6.63281 9.08203 6.17578 9.70312 6.17578C10.3477 6.17578 10.6875 6.60938 10.6875 7.27734V15.75H15.2695C15.7383 15.75 16.0781 16.0547 16.0781 16.5469C16.0781 17.0391 15.7383 17.3438 15.2695 17.3438H9.70312Z" fill="black" fill-opacity="0.85"/>
</svg>
