<svg width="27" height="35" viewBox="0 0 27 35" fill="none" xmlns="http://www.w3.org/2000/svg">
<path d="M13.4766 3.99316C6.03516 3.99316 0 10.04 0 17.4814C0 24.9111 6.03516 30.958 13.4766 30.958C20.9062 30.958 26.9531 24.9229 26.9531 17.4814C26.9531 10.04 20.9062 3.99316 13.4766 3.99316ZM13.4766 5.87988C19.8867 5.87988 25.0664 11.0596 25.0664 17.4814C25.0664 23.9033 19.8867 29.0713 13.4766 29.0713C7.05469 29.0713 1.88672 23.9033 1.88672 17.4814C1.88672 11.0596 7.05469 5.87988 13.4766 5.87988Z" fill="#007AFF"/>
<path d="M11.3556 27.1729C9.21103 27.1729 8.17978 29.4932 9.4454 31.1807L11.5548 34.0049C12.5274 35.2939 14.4259 35.3057 15.3985 33.9932L17.4728 31.1924C18.7501 29.4697 17.7071 27.1729 15.5743 27.1729H11.3556Z" fill="white"/>
<path d="M11.3555 28.7666C10.5117 28.7666 10.2656 29.5986 10.7227 30.2197L12.8438 33.0439C13.1719 33.4775 13.7695 33.4893 14.1094 33.0439L16.1953 30.2314C16.6875 29.5869 16.3945 28.7666 15.5742 28.7666H11.3555Z" fill="black" fill-opacity="0.85"/>
<path d="M13.4766 8.11816C8.30859 8.11816 4.125 12.3135 4.125 17.4814C4.125 22.6611 8.30859 26.833 13.4766 26.833C18.6445 26.833 22.8281 22.6611 22.8281 17.4814C22.8281 12.3135 18.6445 8.11816 13.4766 8.11816ZM13.4766 10.0049C17.6133 10.0049 20.9414 13.333 20.9414 17.4814C20.9414 21.6182 17.6133 24.9463 13.4766 24.9463C9.32812 24.9463 6.01172 21.6182 6.01172 17.4814C6.01172 13.333 9.32812 10.0049 13.4766 10.0049ZM11.7422 21.9697H16.0078C16.4297 21.9697 16.7812 21.6768 16.7812 21.2314C16.7812 20.7861 16.4297 20.4697 16.0078 20.4697H12.6562V13.8135C12.6562 13.2275 12.3047 12.8291 11.7422 12.8291C11.1914 12.8291 10.8867 13.2393 10.8867 13.8135V20.9971C10.8867 21.5713 11.1914 21.9697 11.7422 21.9697Z" fill="black" fill-opacity="0.85"/>
</svg>
