<svg width="28" height="23" viewBox="0 0 28 23" fill="none" xmlns="http://www.w3.org/2000/svg">
<path d="M13.5938 22.9336C16.4297 22.9336 18.1172 21.5977 18.1172 19.3477V15.3867C18.1172 13.1367 16.4297 11.8008 13.5938 11.8008C10.7461 11.8008 9.05859 13.1367 9.05859 15.3867V19.3477C9.05859 21.5977 10.7461 22.9336 13.5938 22.9336Z" fill="#FFCC00"/>
<path d="M13.5938 19.207C21.9492 19.207 27.1758 15.1992 27.1758 10.0547C27.1758 4.91016 21.9492 0.902344 13.5703 0.902344C5.22656 0.902344 0 4.91016 0 10.0547C0 15.1992 5.22656 19.207 13.5938 19.207Z" fill="white"/>
<path d="M13.5938 17.6133C21.082 17.6133 25.582 14.2383 25.582 10.0547C25.582 5.88281 21.082 2.50781 13.5703 2.50781C6.09375 2.50781 1.60547 5.88281 1.60547 10.0547C1.60547 14.2383 6.09375 17.6133 13.5938 17.6133Z" fill="#FFCC00"/>
<path d="M11.9883 13.8516C11.4492 13.8516 11.0977 13.4531 11.0977 12.8672V6.83203C11.0977 6.24609 11.4609 5.85938 11.9883 5.85938C12.5391 5.85938 12.8906 6.23438 12.8906 6.83203V12.2812H15.7148C16.1836 12.2812 16.5117 12.5977 16.5117 13.0664C16.5117 13.5234 16.1836 13.8516 15.7148 13.8516H11.9883Z" fill="black" fill-opacity="0.85"/>
</svg>
