<svg width="31" height="27" viewBox="0 0 31 27" fill="none" xmlns="http://www.w3.org/2000/svg">
<path d="M17.4932 26.9531C24.9346 26.9531 30.9814 20.9297 30.9814 13.4883C30.9814 6.04688 24.9346 0 17.4932 0C10.0635 0 4.0166 6.04688 4.0166 13.4883C4.0166 20.9297 10.0635 26.9531 17.4932 26.9531ZM17.4932 25.0664C11.0713 25.0664 5.90332 19.9102 5.90332 13.4883C5.90332 7.06641 11.083 1.88672 17.4932 1.88672C23.915 1.88672 29.0947 7.06641 29.0947 13.4883C29.0947 19.9102 23.915 25.0664 17.4932 25.0664Z" fill="#007AFF"/>
<path d="M3.78223 9.48043L0.981445 11.5664C-0.331055 12.5273 -0.319336 14.4258 0.969727 15.3984L3.79395 17.5195C5.49316 18.7734 7.80176 17.7539 7.80176 15.6094V11.3789C7.80176 9.25777 5.50488 8.20308 3.78223 9.48043Z" fill="white"/>
<path d="M4.74269 10.7579L1.93019 12.8556C1.48488 13.1837 1.4966 13.7931 1.93019 14.1212L4.75441 16.2306C5.37551 16.6993 6.20754 16.4415 6.20754 15.6095V11.379C6.20754 10.5704 5.38723 10.2774 4.74269 10.7579Z" fill="black" fill-opacity="0.85"/>
<path d="M17.4932 22.8398C22.6611 22.8398 26.8564 18.6562 26.8564 13.4883C26.8564 8.30859 22.6611 4.125 17.4932 4.125C12.3252 4.125 8.1416 8.30859 8.1416 13.4883C8.1416 18.6562 12.3252 22.8398 17.4932 22.8398ZM15.7119 18.1172C15.1377 18.1172 14.8213 17.707 14.8213 17.1094V9.71484C14.8213 9.11719 15.1377 8.69531 15.7119 8.69531C16.2861 8.69531 16.6611 9.10547 16.6611 9.71484V16.5703H20.1064C20.54 16.5703 20.9033 16.8984 20.9033 17.3555C20.9033 17.8125 20.54 18.1172 20.1064 18.1172H15.7119Z" fill="black" fill-opacity="0.85"/>
</svg>
