<svg width="27" height="35" viewBox="0 0 27 35" fill="none" xmlns="http://www.w3.org/2000/svg">
<path d="M13.4766 30.9697C20.9062 30.9697 26.9531 24.9346 26.9531 17.4932C26.9531 10.0518 20.9062 4.00488 13.4766 4.00488C6.03516 4.00488 0 10.0518 0 17.4932C0 24.9229 6.03516 30.9697 13.4766 30.9697ZM13.4766 29.083C7.05469 29.083 1.88672 23.915 1.88672 17.4932C1.88672 11.0713 7.05469 5.8916 13.4766 5.8916C19.8867 5.8916 25.0664 11.0713 25.0664 17.4932C25.0664 23.915 19.8867 29.083 13.4766 29.083Z" fill="#007AFF"/>
<path d="M11.3556 7.80176H15.5743C17.7071 7.80176 18.7618 5.49316 17.4728 3.78223L15.3985 0.981445C14.4259 -0.331055 12.5274 -0.319336 11.5548 0.969727L9.4454 3.79395C8.17978 5.48145 9.21103 7.80176 11.3556 7.80176Z" fill="white"/>
<path d="M11.3555 6.19629H15.5742C16.3945 6.19629 16.6875 5.3877 16.1953 4.74316L14.1094 1.93066C13.7695 1.48535 13.1719 1.48535 12.8438 1.93066L10.7227 4.75488C10.2656 5.37598 10.5117 6.19629 11.3555 6.19629Z" fill="black" fill-opacity="0.85"/>
<path d="M13.4766 26.8564C18.6445 26.8564 22.8281 22.6611 22.8281 17.4932C22.8281 12.3135 18.6445 8.1416 13.4766 8.1416C8.30859 8.1416 4.125 12.3135 4.125 17.4932C4.125 22.6611 8.30859 26.8564 13.4766 26.8564ZM11.6836 22.1221C11.1094 22.1221 10.793 21.7119 10.793 21.1143V13.7197C10.793 13.1221 11.1094 12.7002 11.6836 12.7002C12.2578 12.7002 12.6328 13.1104 12.6328 13.7197V20.5752H16.0781C16.5117 20.5752 16.875 20.9033 16.875 21.3604C16.875 21.8174 16.5117 22.1221 16.0781 22.1221H11.6836Z" fill="black" fill-opacity="0.85"/>
</svg>
