<svg width="27" height="31" viewBox="0 0 27 31" fill="none" xmlns="http://www.w3.org/2000/svg">
<path d="M13.4531 26.6133C16.2891 26.6133 17.9766 25.2773 17.9766 23.0273V19.0664C17.9766 16.8164 16.2891 15.4805 13.4531 15.4805C10.6055 15.4805 8.91797 16.8164 8.91797 19.0664V23.0273C8.91797 25.2773 10.6055 26.6133 13.4531 26.6133Z" fill="#007AFF"/>
<path d="M13.4531 23.0039C21.457 23.0039 26.8945 19.2656 26.8945 13.7344C26.8945 8.20312 21.4453 4.46484 13.4297 4.46484C5.4375 4.46484 0 8.21484 0 13.7344C0 19.2656 5.4375 23.0039 13.4531 23.0039Z" fill="white"/>
<path d="M13.4531 21.6445C20.7656 21.6445 25.5352 18.4102 25.5352 13.7344C25.5352 9.07031 20.7539 5.83594 13.4297 5.83594C6.12891 5.83594 1.37109 9.07031 1.37109 13.7344C1.37109 18.4102 6.12891 21.6445 13.4531 21.6445ZM13.4531 19.6289C7.48828 19.6289 3.49219 17.2383 3.49219 13.7344C3.49219 10.2305 7.48828 7.85156 13.4297 7.85156C19.3945 7.85156 23.4141 10.2305 23.4141 13.7344C23.4141 17.2383 19.4062 19.6289 13.4531 19.6289Z" fill="#007AFF"/>
<path d="M11.8125 17.4023H15.4219C15.8789 17.4023 16.1953 17.0859 16.1953 16.6523C16.1953 16.1953 15.8789 15.8906 15.4219 15.8906H12.6797V10.6055C12.6797 10.0195 12.3398 9.66797 11.8125 9.66797C11.2969 9.66797 10.9453 10.0312 10.9453 10.6055V16.4648C10.9453 17.0273 11.2852 17.4023 11.8125 17.4023Z" fill="black" fill-opacity="0.85"/>
<path d="M10.4997 1.42969L12.8317 4.57031C13.1481 5.00391 13.7458 5.00391 14.0622 4.57031L16.4177 1.42969C16.8864 0.808594 16.6403 0 15.7966 0H11.0974C10.3005 0 10.0075 0.785156 10.4997 1.42969Z" fill="black" fill-opacity="0.85"/>
</svg>
