<svg width="31" height="27" viewBox="0 0 31 27" fill="none" xmlns="http://www.w3.org/2000/svg">
<path d="M13.4766 26.9531C20.918 26.9531 26.9648 20.9297 26.9648 13.4883C26.9648 6.04688 20.918 0 13.4766 0C6.04688 0 0 6.04688 0 13.4883C0 20.9297 6.04688 26.9531 13.4766 26.9531ZM13.4766 25.0664C7.05469 25.0664 1.88672 19.9102 1.88672 13.4883C1.88672 7.06641 7.06641 1.88672 13.4766 1.88672C19.8984 1.88672 25.0781 7.06641 25.0781 13.4883C25.0781 19.9102 19.8984 25.0664 13.4766 25.0664Z" fill="#007AFF"/>
<path d="M27.1875 9.48043C25.4766 8.20308 23.168 9.25777 23.168 11.3789V15.6094C23.168 17.7539 25.4883 18.7734 27.1758 17.5195L30 15.3984C31.2891 14.4258 31.3125 12.5273 29.9883 11.5664L27.1875 9.48043Z" fill="white"/>
<path d="M26.2266 10.7579C25.582 10.2774 24.7734 10.5704 24.7734 11.379V15.6095C24.7734 16.4415 25.5938 16.6993 26.2148 16.2306L29.0391 14.1212C29.4727 13.7931 29.4961 13.1837 29.0391 12.8556L26.2266 10.7579Z" fill="black" fill-opacity="0.85"/>
<path d="M13.4766 22.8398C18.6562 22.8398 22.8281 18.6562 22.8281 13.4883C22.8281 8.30859 18.6562 4.125 13.4766 4.125C8.32031 4.125 4.11328 8.30859 4.11328 13.4883C4.11328 18.6562 8.32031 22.8398 13.4766 22.8398ZM11.6953 18.1172C11.1211 18.1172 10.8047 17.707 10.8047 17.1094V9.71484C10.8047 9.11719 11.1211 8.69531 11.6953 8.69531C12.2695 8.69531 12.6445 9.10547 12.6445 9.71484V16.5703H16.0898C16.5234 16.5703 16.8867 16.8984 16.8867 17.3555C16.8867 17.8125 16.5234 18.1172 16.0898 18.1172H11.6953Z" fill="black" fill-opacity="0.85"/>
</svg>
