<svg width="22" height="22" viewBox="0 0 22 22" fill="none" xmlns="http://www.w3.org/2000/svg">
<path d="M3.67969 21.5977H17.8945C20.3555 21.5977 21.5742 20.3789 21.5742 17.9648V3.65625C21.5742 1.24219 20.3555 0.0234375 17.8945 0.0234375H3.67969C1.23047 0.0234375 0 1.23047 0 3.65625V17.9648C0 20.3906 1.23047 21.5977 3.67969 21.5977Z" fill="#FFCC00"/>
<path d="M8.54297 16.1836C7.92188 16.1836 7.58203 15.7383 7.58203 15.0938V6.11719C7.58203 5.47266 7.92188 5.01562 8.54297 5.01562C9.1875 5.01562 9.52734 5.44922 9.52734 6.11719V14.5898H14.1094C14.5781 14.5898 14.918 14.8945 14.918 15.3867C14.918 15.8789 14.5781 16.1836 14.1094 16.1836H8.54297Z" fill="black" fill-opacity="0.85"/>
</svg>
