<svg width="22" height="22" viewBox="0 0 22 22" fill="none" xmlns="http://www.w3.org/2000/svg">
<path d="M3.67969 21.5977H17.8945C20.3555 21.5977 21.5742 20.3789 21.5742 17.9648V3.65625C21.5742 1.24219 20.3555 0.0234375 17.8945 0.0234375H3.67969C1.23047 0.0234375 0 1.23047 0 3.65625V17.9648C0 20.3906 1.23047 21.5977 3.67969 21.5977ZM3.70312 19.7109C2.53125 19.7109 1.88672 19.0898 1.88672 17.8711V3.75C1.88672 2.53125 2.53125 1.91016 3.70312 1.91016H17.8711C19.0312 1.91016 19.6875 2.53125 19.6875 3.75V17.8711C19.6875 19.0898 19.0312 19.7109 17.8711 19.7109H3.70312Z" fill="#007AFF"/>
<path d="M8.61328 16.0195H14.0156C14.4609 16.0195 14.7891 15.7266 14.7891 15.2578C14.7891 14.7773 14.4609 14.4844 14.0156 14.4844H9.5625V6.25781C9.5625 5.61328 9.23438 5.20312 8.61328 5.20312C8.01562 5.20312 7.6875 5.63672 7.6875 6.25781V14.9766C7.6875 15.5977 8.01562 16.0195 8.61328 16.0195Z" fill="black" fill-opacity="0.85"/>
</svg>
