<svg width="28" height="21" viewBox="0 0 28 21" fill="none" xmlns="http://www.w3.org/2000/svg">
<path d="M9.83203 20.4375H17.2031C24 20.4375 27.0352 17.3086 27.0352 10.9102V3.55078C27.0352 1.19531 25.8164 0 23.4375 0H3.59766C1.21875 0 0 1.19531 0 3.55078V10.9102C0 17.3086 3.03516 20.4375 9.83203 20.4375Z" fill="#FFCC00"/>
<path d="M9.87891 14.9297C9.33984 14.9297 9.03516 14.6016 9.03516 14.0508V6.24609C9.03516 5.77734 9.43359 5.39062 9.89062 5.39062C10.3594 5.39062 10.7344 5.77734 10.7344 6.24609V13.5117H13.2188C13.6055 13.5117 13.9219 13.8281 13.9219 14.2266C13.9219 14.6133 13.6055 14.9297 13.2188 14.9297H9.87891ZM17.0273 15.0469C16.5586 15.0469 16.1719 14.6602 16.1719 14.1797V7.14844L15.1172 8.00391C14.9883 8.09766 14.8711 8.14453 14.6836 8.14453C14.332 8.14453 14.0977 7.89844 14.0977 7.53516C14.0977 7.23047 14.2617 6.99609 14.4609 6.85547L15.7383 5.84766C16.0195 5.64844 16.4062 5.37891 16.8867 5.37891C17.4961 5.37891 17.8828 5.73047 17.8828 6.32812V14.1797C17.8828 14.6602 17.4844 15.0469 17.0273 15.0469Z" fill="black" fill-opacity="0.85"/>
</svg>
