<svg width="24" height="24" viewBox="0 0 24 24" fill="none" xmlns="http://www.w3.org/2000/svg">
<path d="M11.9531 23.9062C18.4922 23.9062 23.9062 18.4805 23.9062 11.9531C23.9062 5.41406 18.4805 0 11.9414 0C5.41406 0 0 5.41406 0 11.9531C0 18.4805 5.42578 23.9062 11.9531 23.9062Z" fill="#FFCC00"/>
<path d="M8.34375 16.6172C7.80469 16.6172 7.51172 16.2773 7.51172 15.7383V8.01562C7.51172 7.55859 7.89844 7.18359 8.35547 7.18359C8.8125 7.18359 9.1875 7.55859 9.1875 8.01562V15.1992H11.6367C12.0234 15.1992 12.3398 15.5156 12.3398 15.9141C12.3398 16.2891 12.0234 16.6172 11.6367 16.6172H8.34375ZM15.4102 16.7227C14.9414 16.7227 14.5664 16.3477 14.5664 15.8672V8.91797L13.5117 9.76172C13.3945 9.85547 13.2773 9.90234 13.1016 9.90234C12.75 9.90234 12.5156 9.65625 12.5156 9.29297C12.5156 9 12.668 8.76562 12.8789 8.625L14.1328 7.62891C14.4023 7.42969 14.8008 7.16016 15.2695 7.16016C15.8789 7.16016 16.2539 7.51172 16.2539 8.10938V15.8672C16.2539 16.3477 15.8672 16.7227 15.4102 16.7227Z" fill="black" fill-opacity="0.85"/>
</svg>
