<svg width="24" height="24" viewBox="0 0 24 24" fill="none" xmlns="http://www.w3.org/2000/svg">
<path d="M11.9531 23.9062C18.4922 23.9062 23.9062 18.4805 23.9062 11.9531C23.9062 5.41406 18.4805 0 11.9414 0C5.41406 0 0 5.41406 0 11.9531C0 18.4805 5.42578 23.9062 11.9531 23.9062ZM11.9531 21.9141C6.42188 21.9141 2.00391 17.4844 2.00391 11.9531C2.00391 6.42188 6.41016 1.99219 11.9414 1.99219C17.4727 1.99219 21.9141 6.42188 21.9141 11.9531C21.9141 17.4844 17.4844 21.9141 11.9531 21.9141Z" fill="#007AFF"/>
<path d="M8.26172 16.6992H11.625C12.0117 16.6992 12.3398 16.3828 12.3398 15.9844C12.3398 15.5977 12.0117 15.2812 11.625 15.2812H9.11719V7.92188C9.11719 7.46484 8.73047 7.07812 8.27344 7.07812C7.81641 7.07812 7.41797 7.46484 7.41797 7.92188V15.8203C7.41797 16.3711 7.72266 16.6992 8.26172 16.6992ZM15.4688 16.8164C15.9375 16.8164 16.3242 16.4297 16.3242 15.9609V8.01562C16.3242 7.41797 15.9492 7.06641 15.3398 7.06641C14.8477 7.06641 14.4492 7.33594 14.168 7.54688L12.8789 8.54297C12.6797 8.70703 12.5156 8.92969 12.5156 9.23438C12.5156 9.59766 12.7617 9.85547 13.1133 9.85547C13.3008 9.85547 13.418 9.79688 13.5352 9.71484L14.6133 8.84766V15.9609C14.6133 16.4297 15 16.8164 15.4688 16.8164Z" fill="black" fill-opacity="0.85"/>
</svg>
