<svg width="28" height="21" viewBox="0 0 28 21" fill="none" xmlns="http://www.w3.org/2000/svg">
<path d="M9.83203 0C3.03516 0 0 3.12891 0 9.52734V16.875C0 19.2422 1.21875 20.4375 3.59766 20.4375H23.4375C25.8164 20.4375 27.0352 19.2305 27.0352 16.875V9.52734C27.0352 3.12891 24 0 17.2031 0H9.83203Z" fill="#FFCC00"/>
<path d="M8.80078 15.1289C8.23828 15.1289 7.93359 14.7773 7.93359 14.2031V6.08203C7.93359 5.58984 8.33203 5.19141 8.8125 5.19141C9.29297 5.19141 9.70312 5.58984 9.70312 6.08203V13.6523H12.2812C12.6797 13.6523 13.0078 13.9922 13.0078 14.3906C13.0078 14.7891 12.6797 15.1289 12.2812 15.1289H8.80078ZM14.8008 15.1172C14.2383 15.1172 13.9688 14.8125 13.9688 14.4023C13.9688 14.0273 14.2031 13.7227 14.4375 13.4414L16.5234 10.7578C17.1562 9.9375 17.8359 8.95312 17.8359 7.99219C17.8359 7.13672 17.4258 6.49219 16.7109 6.49219C16.0195 6.49219 15.7266 7.00781 15.4922 7.81641C15.3633 8.20312 15.1289 8.39062 14.7305 8.39062C14.25 8.39062 13.9922 8.07422 13.9922 7.64062C13.9922 6.36328 15.1758 5.08594 16.7227 5.08594C18.3867 5.08594 19.4883 6.26953 19.4883 7.91016C19.4883 8.97656 19.1016 9.85547 17.8828 11.3672L16.1367 13.582V13.6875H18.9961C19.4062 13.6875 19.6875 13.957 19.6875 14.4023C19.6875 14.8242 19.418 15.1172 18.9961 15.1172H14.8008Z" fill="black" fill-opacity="0.85"/>
</svg>
