<svg width="24" height="24" viewBox="0 0 24 24" fill="none" xmlns="http://www.w3.org/2000/svg">
<path d="M11.9531 23.9062C18.4922 23.9062 23.9062 18.4805 23.9062 11.9531C23.9062 5.41406 18.4805 0 11.9414 0C5.41406 0 0 5.41406 0 11.9531C0 18.4805 5.42578 23.9062 11.9531 23.9062ZM11.9531 21.9141C6.42188 21.9141 2.00391 17.4844 2.00391 11.9531C2.00391 6.42188 6.41016 1.99219 11.9414 1.99219C17.4727 1.99219 21.9141 6.42188 21.9141 11.9531C21.9141 17.4844 17.4844 21.9141 11.9531 21.9141Z" fill="#007AFF"/>
<path d="M7.37109 16.6992H10.7461C11.1328 16.6992 11.4492 16.3828 11.4492 15.9844C11.4492 15.5977 11.1328 15.2812 10.7461 15.2812H8.23828V7.92188C8.23828 7.46484 7.85156 7.07812 7.38281 7.07812C6.92578 7.07812 6.53906 7.46484 6.53906 7.92188V15.8203C6.53906 16.3711 6.83203 16.6992 7.37109 16.6992ZM13.1836 16.6875H17.25C17.6602 16.6875 17.918 16.418 17.918 16.0078C17.918 15.5625 17.6484 15.3164 17.25 15.3164H14.4727V15.2227L16.1719 13.0547C17.3555 11.6016 17.7422 10.7344 17.7422 9.70312C17.7422 8.12109 16.6641 6.97266 15.0469 6.97266C13.5469 6.97266 12.4102 8.21484 12.4102 9.43359C12.4102 9.86719 12.6562 10.1719 13.1133 10.1719C13.5 10.1719 13.7344 9.99609 13.8516 9.60938C14.0742 8.82422 14.3672 8.33203 15.0352 8.33203C15.7383 8.33203 16.1367 8.95312 16.1367 9.78516C16.1367 10.7227 15.4805 11.6719 14.8594 12.4688L12.832 15.0703C12.6094 15.3516 12.3867 15.6445 12.3867 16.0078C12.3867 16.4062 12.6445 16.6875 13.1836 16.6875Z" fill="black" fill-opacity="0.85"/>
</svg>
