<svg width="31" height="22" viewBox="0 0 31 22" fill="none" xmlns="http://www.w3.org/2000/svg">
<path d="M30.3281 11.8738V4.52612C30.3281 2.41675 28.9102 0.987061 26.7891 0.987061L3.51562 0.998779C1.41797 0.998779 0 2.44018 0 4.56128V11.8738C0 14.909 1.30078 16.7723 4.42969 17.698L14.5781 20.6512C17.2969 21.448 19.043 21.1316 21.4688 19.8777L28.0547 16.491C29.918 15.5301 30.3281 14.3816 30.3281 11.8738Z" fill="#FFCC00"/>
<path d="M9.97266 15.0262C9.42188 15.0262 9.10547 14.6746 9.10547 14.1004V5.97925C9.10547 5.49878 9.50391 5.10034 9.98438 5.10034C10.4648 5.10034 10.8633 5.49878 10.8633 5.97925V13.5379H13.4414C13.8398 13.5379 14.1797 13.8777 14.1797 14.2762C14.1797 14.6863 13.8398 15.0262 13.4414 15.0262H9.97266ZM18.1641 15.2254C16.8633 15.2254 15.6328 14.6043 15.2812 13.4793C15.2227 13.2801 15.1875 13.0691 15.1875 12.8465C15.1875 12.366 15.5039 12.0848 15.9727 12.0848C16.3594 12.0848 16.6289 12.284 16.7461 12.6824C16.8984 13.2215 17.2852 13.8074 18.1641 13.8074C19.0547 13.8074 19.5 13.1043 19.5 12.2723C19.5 11.2176 18.9375 10.6668 17.9062 10.6668H17.6133C17.2031 10.6668 16.9453 10.4207 16.9453 10.0223C16.9453 9.62378 17.1914 9.37768 17.6133 9.37768H17.8945C18.7969 9.37768 19.2891 8.73315 19.2891 7.85425C19.2891 7.05737 18.9141 6.43628 18.1172 6.43628C17.4375 6.43628 17.0508 6.89331 16.8633 7.60815C16.7461 8.01831 16.5117 8.18237 16.0898 8.18237C15.6094 8.18237 15.3398 7.85425 15.3398 7.46753C15.3398 7.25659 15.3633 7.04565 15.4453 6.81128C15.7734 5.74487 16.875 5.04175 18.1172 5.04175C19.6875 5.04175 20.9414 5.99096 20.9414 7.66675C20.9414 8.67456 20.4023 9.64721 19.3125 9.94018V9.98706C20.332 10.0926 21.2344 10.8308 21.2344 12.3308C21.2344 14.1355 19.8984 15.2254 18.1641 15.2254Z" fill="black" fill-opacity="0.85"/>
</svg>
