<svg width="24" height="24" viewBox="0 0 24 24" fill="none" xmlns="http://www.w3.org/2000/svg">
<path d="M11.9531 23.918C18.4922 23.918 23.9062 18.5039 23.9062 11.9648C23.9062 5.4375 18.4805 0.0117188 11.9414 0.0117188C5.41406 0.0117188 0 5.4375 0 11.9648C0 18.5039 5.42578 23.918 11.9531 23.918Z" fill="#FFCC00"/>
<path d="M11.9531 9.01174C10.8281 9.01174 9.73828 8.81252 9.01172 8.4844C8.58984 8.28518 8.46094 8.02736 8.46094 7.66408C8.46094 6.82033 8.94141 6.05861 9.80859 5.57814L9.83203 5.40236C9.86719 5.17971 9.77344 5.01564 9.50391 4.93361L9.03516 4.78127C8.39062 4.60549 8.71875 3.58596 9.38672 3.83205L9.91406 4.04299C10.4766 4.24221 10.8164 4.62893 10.793 5.14455L10.7812 5.20314C11.1445 5.1094 11.5312 5.06252 11.9531 5.06252C12.3633 5.06252 12.75 5.1094 13.1133 5.20314V5.14455C13.0898 4.61721 13.4297 4.24221 13.9805 4.04299L14.5195 3.83205C15.1875 3.58596 15.5156 4.60549 14.8594 4.78127L14.4023 4.93361C14.1211 5.01564 14.0273 5.17971 14.0742 5.40236L14.0977 5.57814C14.9531 6.05861 15.4336 6.82033 15.4336 7.66408C15.4336 8.02736 15.3047 8.28518 14.8828 8.4844C14.1562 8.81252 13.0664 9.01174 11.9531 9.01174ZM11.9531 10.9453C11.707 10.9453 11.5195 11.1211 11.5195 11.3555V18.8438C11.5195 19.1836 11.2969 19.3359 10.8516 19.3008C9.46875 19.125 8.34375 18.4805 7.52344 17.4961L6.63281 18.2461C6.375 18.4688 6.03516 18.4922 5.83594 18.2227C5.63672 18 5.70703 17.6719 5.96484 17.4492L6.9375 16.6289C6.48047 15.7734 6.21094 14.7422 6.1875 13.6172H5.03906C4.69922 13.6172 4.5 13.4062 4.5 13.1016C4.5 12.7852 4.69922 12.5859 5.03906 12.5859L6.24609 12.5742C6.36328 11.6953 6.62109 10.793 7.00781 10.1016L5.98828 9.2344C5.73047 9.03518 5.66016 8.69533 5.84766 8.44924C6.05859 8.19143 6.38672 8.22658 6.65625 8.43752L7.65234 9.28127C8.01562 8.97658 8.26172 8.96486 8.47266 9.07033C9.45703 9.50393 10.6992 9.77346 11.9531 9.77346C13.207 9.77346 14.4492 9.50393 15.4219 9.07033C15.6328 8.97658 15.8906 8.97658 16.2539 9.28127L17.25 8.43752C17.5195 8.22658 17.8359 8.19143 18.0469 8.44924C18.2461 8.69533 18.1641 9.03518 17.918 9.2344L16.8984 10.1016C17.2734 10.793 17.543 11.6953 17.6484 12.5742L18.8555 12.5859C19.207 12.5859 19.4062 12.7852 19.4062 13.1016C19.4062 13.4062 19.207 13.6172 18.8555 13.6172H17.7188C17.6953 14.7422 17.4258 15.7734 16.957 16.6289L17.9414 17.4492C18.1992 17.6719 18.2695 18 18.0703 18.2227C17.8594 18.4922 17.5312 18.4688 17.2734 18.2461L16.3711 17.4961C15.5625 18.4805 14.4258 19.125 13.0547 19.3008C12.6094 19.3359 12.375 19.1836 12.375 18.8438V11.3555C12.375 11.1211 12.1875 10.9453 11.9531 10.9453ZM8.09766 12.2227C8.09766 12.7617 8.55469 13.2305 9.10547 13.2305C9.64453 13.2305 10.0898 12.7617 10.0898 12.2227C10.0898 11.6836 9.64453 11.2266 9.10547 11.2266C8.55469 11.2266 8.09766 11.6836 8.09766 12.2227ZM8.10938 15.6094C8.10938 16.2305 8.625 16.7344 9.24609 16.7344C9.85547 16.7344 10.3945 16.2305 10.3945 15.6094C10.3945 14.9883 9.85547 14.4727 9.24609 14.4727C8.625 14.4727 8.10938 14.9883 8.10938 15.6094ZM15.8086 12.2227C15.8086 11.6836 15.3516 11.2266 14.8008 11.2266C14.2617 11.2266 13.8047 11.6836 13.8047 12.2227C13.8047 12.7617 14.2617 13.2305 14.8008 13.2305C15.3516 13.2305 15.8086 12.7617 15.8086 12.2227ZM15.7852 15.6094C15.7852 14.9883 15.2812 14.4727 14.6484 14.4727C14.0508 14.4727 13.5117 14.9883 13.5117 15.6094C13.5117 16.2305 14.0508 16.7344 14.6484 16.7344C15.2812 16.7344 15.7852 16.2305 15.7852 15.6094Z" fill="black" fill-opacity="0.85"/>
</svg>
