<svg width="24" height="24" viewBox="0 0 24 24" fill="none" xmlns="http://www.w3.org/2000/svg">
<path d="M11.9531 23.9062C18.4922 23.9062 23.9062 18.4805 23.9062 11.9531C23.9062 5.41406 18.4805 0 11.9414 0C5.41406 0 0 5.41406 0 11.9531C0 18.4805 5.42578 23.9062 11.9531 23.9062ZM11.9531 21.9141C6.42188 21.9141 2.00391 17.4844 2.00391 11.9531C2.00391 6.42188 6.41016 1.99219 11.9414 1.99219C17.4727 1.99219 21.9141 6.42188 21.9141 11.9531C21.9141 17.4844 17.4844 21.9141 11.9531 21.9141Z" fill="#007AFF"/>
<path d="M11.9414 9.08202C13.0312 9.08202 14.0859 8.8828 14.7891 8.5664C15.1992 8.3789 15.3281 8.12108 15.3281 7.76952C15.3281 6.93749 14.8594 6.19921 14.0273 5.7539L14.0039 5.57811C13.9688 5.34374 14.0391 5.20311 14.3203 5.12108L14.7656 4.95702C15.3984 4.79296 15.082 3.8203 14.4375 4.04296L13.9219 4.2539C13.3711 4.45311 13.043 4.8164 13.0664 5.3203L13.0781 5.39061C12.7266 5.29687 12.3398 5.24999 11.9414 5.24999C11.543 5.24999 11.168 5.29687 10.8164 5.39061V5.3203C10.8398 4.82811 10.5117 4.45311 9.96094 4.2539L9.44531 4.04296C8.80078 3.8203 8.48438 4.79296 9.11719 4.95702L9.5625 5.12108C9.84375 5.20311 9.92578 5.34374 9.87891 5.57811L9.85547 5.7539C9.02344 6.19921 8.55469 6.93749 8.55469 7.76952C8.55469 8.12108 8.69531 8.3789 9.09375 8.5664C9.79688 8.8828 10.8516 9.08202 11.9414 9.08202ZM11.9414 10.9453C12.1758 10.9453 12.3516 11.1211 12.3516 11.3438V18.6094C12.3516 18.9375 12.5742 19.0898 13.0078 19.043C14.3438 18.8789 15.4453 18.2461 16.2305 17.3086L17.1094 18.0352C17.3555 18.2461 17.6719 18.2578 17.8711 18.0117C18.0703 17.7773 18 17.4609 17.7539 17.2617L16.8047 16.4531C17.25 15.6328 17.5078 14.6367 17.5312 13.5352H18.6445C18.9727 13.5352 19.1719 13.3359 19.1719 13.0312C19.1719 12.7383 18.9727 12.5391 18.6445 12.5391L17.4727 12.5273C17.3672 11.6836 17.1094 10.8047 16.7461 10.125L17.7305 9.29296C17.9766 9.08202 18.0469 8.76561 17.8477 8.51952C17.6484 8.27343 17.3438 8.29687 17.0859 8.51952L16.1133 9.33983C15.7617 9.04687 15.5273 9.03515 15.3164 9.1289C14.3672 9.55077 13.1602 9.8203 11.9414 9.8203C10.7227 9.8203 9.51562 9.55077 8.57812 9.1289C8.35547 9.03515 8.12109 9.04687 7.76953 9.33983L6.79688 8.51952C6.53906 8.29687 6.23438 8.28515 6.03516 8.51952C5.83594 8.76561 5.90625 9.09374 6.15234 9.29296L7.14844 10.125C6.77344 10.8047 6.51562 11.6836 6.41016 12.5273L5.25 12.5391C4.91016 12.5391 4.71094 12.7383 4.71094 13.0312C4.71094 13.3359 4.91016 13.5352 5.25 13.5352H6.35156C6.375 14.6367 6.63281 15.6328 7.07812 16.4531L6.12891 17.2617C5.88281 17.4609 5.8125 17.7773 6.01172 18.0117C6.21094 18.2578 6.52734 18.2461 6.77344 18.0352L7.65234 17.3086C8.4375 18.2461 9.53906 18.8789 10.875 19.043C11.3086 19.0898 11.5312 18.9375 11.5312 18.6094V11.3438C11.5312 11.1211 11.707 10.9453 11.9414 10.9453ZM8.20312 12.1875C8.20312 11.6602 8.64844 11.2148 9.17578 11.2148C9.70312 11.2148 10.1484 11.6719 10.1484 12.1875C10.1484 12.7148 9.70312 13.1602 9.17578 13.1602C8.64844 13.1602 8.20312 12.7148 8.20312 12.1875ZM8.22656 15.4688C8.22656 14.8711 8.71875 14.3672 9.32812 14.3672C9.91406 14.3672 10.4297 14.8711 10.4297 15.4688C10.4297 16.0781 9.91406 16.5703 9.32812 16.5703C8.71875 16.5703 8.22656 16.0781 8.22656 15.4688ZM15.6797 12.1875C15.6797 12.7148 15.2461 13.1602 14.7188 13.1602C14.1797 13.1602 13.7461 12.7148 13.7461 12.1875C13.7461 11.6719 14.1797 11.2148 14.7188 11.2148C15.2461 11.2148 15.6797 11.6602 15.6797 12.1875ZM15.668 15.4688C15.668 16.0781 15.1641 16.5703 14.5664 16.5703C13.9688 16.5703 13.4531 16.0781 13.4531 15.4688C13.4531 14.8711 13.9688 14.3672 14.5664 14.3672C15.1641 14.3672 15.668 14.8711 15.668 15.4688Z" fill="black" fill-opacity="0.85"/>
</svg>
