<svg width="27" height="28" viewBox="0 0 27 28" fill="none" xmlns="http://www.w3.org/2000/svg">
<path d="M13.2773 27.7853C19.4648 27.7853 23.5781 23.5665 23.5781 17.2032C23.5781 13.6876 22.0195 10.0899 19.5352 7.91025C19.5117 4.66415 17.0391 2.70712 13.2773 2.70712C9.51562 2.70712 7.05469 4.67587 7.03125 7.92197C4.54688 10.1017 2.98828 13.6407 2.98828 17.2032C2.98828 23.5665 7.10156 27.7853 13.2773 27.7853ZM13.2773 10.6993C15.3516 10.6993 17.4023 10.3009 18.7383 9.70321C20.1914 11.2149 21.7383 13.8751 21.7383 17.2032C21.7383 22.4532 18.3516 25.9571 13.2773 25.9571C8.20312 25.9571 4.81641 22.4532 4.81641 17.2032C4.81641 13.8868 6.35156 11.2384 7.82812 9.70321C9.16406 10.3009 11.2148 10.6993 13.2773 10.6993ZM12.4688 26.4728H14.0039V12.9024C14.0039 12.4806 13.6523 12.1407 13.2305 12.1407C12.8086 12.1407 12.4688 12.4806 12.4688 12.9024V26.4728ZM9.53906 14.8009C10.3594 14.8009 11.0156 14.1212 11.0156 13.3126C11.0156 12.504 10.3594 11.836 9.53906 11.836C8.73047 11.836 8.07422 12.504 8.07422 13.3126C8.07422 14.1212 8.73047 14.8009 9.53906 14.8009ZM8.14453 19.4415C9.08203 19.4415 9.85547 18.6681 9.85547 17.7189C9.85547 16.7696 9.08203 15.9962 8.14453 15.9962C7.18359 15.9962 6.41016 16.7696 6.41016 17.7189C6.41016 18.6681 7.18359 19.4415 8.14453 19.4415ZM9.53906 23.4493C10.3008 23.4493 10.9102 22.8399 10.9102 22.0899C10.9102 21.3282 10.3008 20.7189 9.53906 20.7189C8.78906 20.7189 8.17969 21.3282 8.17969 22.0899C8.17969 22.8399 8.78906 23.4493 9.53906 23.4493ZM17.0273 14.8009C17.8359 14.8009 18.4922 14.1212 18.4922 13.3126C18.4922 12.504 17.8359 11.836 17.0273 11.836C16.207 11.836 15.5508 12.504 15.5508 13.3126C15.5508 14.1212 16.207 14.8009 17.0273 14.8009ZM18.4219 19.4415C19.3711 19.4415 20.1562 18.6681 20.1562 17.7189C20.1562 16.7696 19.3711 15.9962 18.4219 15.9962C17.4844 15.9962 16.6992 16.7696 16.6992 17.7189C16.6992 18.6681 17.4844 19.4415 18.4219 19.4415ZM17.0273 23.4493C17.7773 23.4493 18.3867 22.8399 18.3867 22.0899C18.3867 21.3282 17.7773 20.7189 17.0273 20.7189C16.2656 20.7189 15.6562 21.3282 15.6562 22.0899C15.6562 22.8399 16.2656 23.4493 17.0273 23.4493ZM8.12109 1.9454L8.91797 2.23837C9.42188 2.41415 9.62109 2.68368 9.52734 3.10556L9.38672 3.6915L11.1094 3.67978L11.1914 3.08212C11.3203 1.9454 10.793 1.10165 9.63281 0.691497L8.70703 0.316497C7.54688 -0.08194 6.99609 1.61728 8.12109 1.9454ZM18.4453 1.9454C19.5703 1.61728 19.0195 -0.08194 17.8594 0.316497L16.9336 0.691497C15.7734 1.10165 15.2461 1.9454 15.375 3.08212L15.457 3.67978L17.1797 3.6915L17.0391 3.10556C16.9453 2.68368 17.1445 2.41415 17.6484 2.23837L18.4453 1.9454ZM5.97656 10.0899L3.79688 8.23837C3.36328 7.87509 2.80078 7.82821 2.4375 8.26181C2.08594 8.68368 2.21484 9.2579 2.64844 9.60947L4.86328 11.4728L5.97656 10.0899ZM3.84375 15.6212L0.960938 15.6329C0.375 15.6329 0 15.9962 0 16.5235C0 17.0626 0.375 17.4259 0.972656 17.4259L3.84375 17.4142V15.6212ZM4.79297 22.4767L2.60156 24.3165C2.17969 24.6681 2.05078 25.2306 2.40234 25.6642C2.76562 26.0978 3.31641 26.0509 3.76172 25.6876L5.91797 23.8595L4.79297 22.4767ZM20.5781 10.0899L21.7031 11.4728L23.918 9.60947C24.3398 9.2579 24.4805 8.68368 24.1289 8.26181C23.7656 7.82821 23.2031 7.87509 22.7695 8.23837L20.5781 10.0899ZM22.7227 15.6212V17.4142L25.5938 17.4259C26.1797 17.4259 26.5664 17.0626 26.5664 16.5235C26.5664 15.9962 26.1797 15.6329 25.6055 15.6329L22.7227 15.6212ZM21.7617 22.4767L20.6367 23.8478L22.8047 25.6876C23.2383 26.0509 23.8008 26.0978 24.1641 25.6642C24.5156 25.2306 24.3867 24.6681 23.9531 24.3165L21.7617 22.4767Z" fill="black" fill-opacity="0.85"/>
</svg>
