<svg width="23" height="28" viewBox="0 0 23 28" fill="none" xmlns="http://www.w3.org/2000/svg">
<path d="M11.0508 6.17578C13.8164 6.17578 16.0898 4.59375 16.5234 2.30859C16.6758 1.46484 16.2773 0.84375 15.4453 0.621094C12.9492 -0.0468751 9.15234 -0.0468751 6.66797 0.621094C5.83594 0.84375 5.4375 1.46484 5.58984 2.30859C6.02344 4.59375 8.28516 6.17578 11.0508 6.17578ZM10.1133 12.7266H12V5.47266H10.1133V12.7266ZM11.0508 17.0977C15.3867 17.0977 19.0664 17.8945 21.3047 19.3125C20.25 17.1797 18.2344 15.1055 15.8555 13.9336C15.1758 11.6602 13.2305 10.2422 11.0508 10.2422C8.87109 10.2422 6.92578 11.6602 6.24609 13.9336C3.86719 15.1055 1.85156 17.1797 0.796875 19.3125C3.03516 17.8945 6.71484 17.0977 11.0508 17.0977ZM11.0508 27.2227C17.6836 27.2227 22.1016 25.3828 22.1016 22.6289C22.1016 20.1094 16.793 18.5742 11.0508 18.5742C5.30859 18.5742 0 20.0859 0 22.6289C0 25.3828 4.41797 27.2227 11.0508 27.2227ZM11.0508 23.4727C8.84766 23.4727 6.92578 22.1719 6.85547 20.4727C8.13281 20.2617 9.5625 20.1328 11.0508 20.1328C12.5273 20.1328 13.9688 20.2617 15.2461 20.4727C15.1641 22.1719 13.2891 23.4727 11.0508 23.4727Z" fill="black" fill-opacity="0.85"/>
</svg>
