<svg width="19" height="29" viewBox="0 0 19 29" fill="none" xmlns="http://www.w3.org/2000/svg">
<path d="M9.05821 13.8516C11.6246 13.8516 14.191 13.6875 16.3004 13.3711C17.9293 13.1367 18.527 11.8945 17.8238 10.2773L14.3434 2.4375C13.6168 0.785156 12.4098 0 10.5699 0H7.53477C5.70665 0 4.49961 0.785156 3.77305 2.4375L0.292583 10.2773C-0.410542 11.8945 0.175395 13.1367 1.81602 13.3711C3.91368 13.6875 6.48008 13.8516 9.05821 13.8516ZM8.07383 15.5977H10.0309V13.3359H8.07383V15.5977ZM7.25352 28.3594H10.8512C13.8746 28.3594 15.6559 26.8008 15.6559 24.1641C15.6559 22.5117 15.1402 20.0508 14.2379 17.5664C13.7106 16.125 12.5738 15.2812 10.9566 15.2812H7.14805C5.53086 15.2812 4.39415 16.125 3.8668 17.5664C2.97618 20.0508 2.44883 22.5117 2.44883 24.1641C2.44883 26.8008 4.23008 28.3594 7.25352 28.3594Z" fill="black" fill-opacity="0.85"/>
</svg>
