<svg width="22" height="28" viewBox="0 0 22 28" fill="none" xmlns="http://www.w3.org/2000/svg">
<path d="M12.0703 14.4258L21.3047 5.19141C22.0078 4.5 21.6094 3.64453 20.6367 3.33984C18.4102 2.625 16.0078 2.42578 12.8672 2.61328L12.2461 1.95703C11.25 0.890625 9.83203 0.890625 8.77734 1.92188C7.75781 2.97656 7.73438 4.42969 8.8125 5.39062L9.46875 5.98828C9.26953 9.09375 9.45703 11.5078 10.1719 13.7695C10.4883 14.7539 11.332 15.1641 12.0703 14.4258ZM9.31641 3.70312L10.5586 2.44922L8.46094 0.375C8.10938 0.0234375 7.57031 0.0234375 7.21875 0.375C6.87891 0.714844 6.86719 1.25391 7.21875 1.60547L9.31641 3.70312ZM17.3672 13.6875C19.1016 13.6875 20.5312 12.2461 20.5312 10.5352C20.5312 9.78516 20.2617 9.05859 19.7344 8.48438L15.3164 12.9023C15.8906 13.418 16.6172 13.6875 17.3672 13.6875ZM2.21484 15.9727L11.1094 7.79297L9.82031 6.43359L0.9375 14.6016L2.21484 15.9727ZM1.82812 16.875C2.84766 16.875 3.65625 16.0781 3.65625 15.0469C3.65625 14.0273 2.84766 13.2188 1.82812 13.2188C0.796875 13.2188 0 14.0273 0 15.0469C0 16.0781 0.796875 16.875 1.82812 16.875ZM6.58594 21.0352L7.92188 19.7109L2.09766 13.9102L0.773438 15.2344L6.58594 21.0352ZM6.9375 22.2539C7.95703 22.2539 8.76562 21.457 8.76562 20.4258C8.76562 19.4062 7.94531 18.5977 6.9375 18.5977C5.90625 18.5977 5.10938 19.4062 5.10938 20.4258C5.10938 21.457 5.90625 22.2539 6.9375 22.2539ZM5.98828 26.1328H7.875V20.4727H5.98828V26.1328ZM1.34766 27.7852H13.8164C14.25 27.7852 14.543 27.4688 14.543 27.0117C14.543 26.1328 13.7812 25.5117 12.5977 25.5117H2.56641C1.38281 25.5117 0.621094 26.1328 0.621094 27.0117C0.621094 27.4688 0.914062 27.7852 1.34766 27.7852Z" fill="black" fill-opacity="0.85"/>
</svg>
