<svg width="23" height="28" viewBox="0 0 23 28" fill="none" xmlns="http://www.w3.org/2000/svg">
<path d="M11.3088 6.69141C14.1682 6.69141 16.5588 5.03906 17.0158 2.63672C17.1916 1.66406 16.7111 0.9375 15.7502 0.667969C12.9846 -0.0585938 9.63302 -0.0585938 6.87911 0.667969C5.91817 0.9375 5.4377 1.66406 5.61348 2.63672C6.07052 5.03906 8.44942 6.69141 11.3088 6.69141ZM10.3713 11.4492H12.258V5.75391H10.3713V11.4492ZM11.2971 27.7383C18.1057 27.7383 22.6291 25.6875 22.594 22.6406V22.4883C22.5119 19.4414 19.7346 15.7383 16.2775 14.0391C15.633 11.8242 13.594 10.2891 11.2971 10.2891C9.0002 10.2891 6.96114 11.8242 6.31661 14.0391C2.88302 15.7266 0.12911 19.4062 0.000203477 22.4297V22.6406C-0.0349528 25.6875 4.48848 27.7383 11.2971 27.7383ZM1.64083 22.6406C1.65255 20.5312 5.50802 19.1719 11.2971 19.1719C17.0979 19.1719 20.9416 20.5312 20.9533 22.6406C20.9416 24.7383 17.0979 26.0977 11.2971 26.0977C5.50802 26.0977 1.65255 24.7383 1.64083 22.6406ZM11.2971 23.5195C13.4182 23.5195 15.469 22.207 15.469 20.6133C14.2619 20.4258 12.844 20.3086 11.2971 20.3086C9.7502 20.3086 8.33223 20.4258 7.1252 20.6133C7.1252 22.207 9.17598 23.5195 11.2971 23.5195Z" fill="black" fill-opacity="0.85"/>
</svg>
