<svg width="18" height="29" viewBox="0 0 18 29" fill="none" xmlns="http://www.w3.org/2000/svg">
<path d="M8.95384 15.9141C11.5202 15.9141 14.0515 15.7617 16.1257 15.457C17.7429 15.2109 18.2234 14.0273 17.6843 12.3516L14.5906 2.55469C14.0398 0.796875 12.6335 0 10.7234 0H7.17259C5.26243 0 3.85618 0.796875 3.3054 2.55469L0.211649 12.3516C-0.327414 14.0273 0.153055 15.2109 1.77024 15.457C3.84446 15.7617 6.37571 15.9141 8.95384 15.9141ZM8.00462 15.2695V27.9844H9.89134V15.2695H8.00462ZM3.6804 28.793H14.2156C14.6491 28.793 14.9421 28.4883 14.9421 28.0312C14.9421 27.1406 14.2156 26.5195 13.1023 26.5195H4.79368C3.6804 26.5195 2.96556 27.1406 2.96556 28.0312C2.96556 28.4883 3.24681 28.793 3.6804 28.793Z" fill="black" fill-opacity="0.85"/>
</svg>
