<svg width="23" height="29" viewBox="0 0 23 29" fill="none" xmlns="http://www.w3.org/2000/svg">
<path d="M12.6562 15.2227L21.7734 6.10547C22.8984 4.99219 22.3594 3.38672 20.9648 2.95312C18.5742 2.17969 16.043 1.96875 13.1602 2.13281L12.7969 1.74609C11.5078 0.386719 9.60938 0.339844 8.23828 1.6875C6.89062 3.07031 6.9375 5.01562 8.29688 6.25781L8.68359 6.62109C8.51953 9.49219 8.73047 12 9.48047 14.4023C9.92578 15.8203 11.5312 16.3594 12.6562 15.2227ZM11.4961 14.0508C11.3086 14.2383 11.1445 14.2148 10.9805 13.6758C10.3359 11.625 10.1602 9.32812 10.3594 6.52734C10.3828 6.14062 10.2188 5.76562 9.92578 5.50781L9.41016 5.03906C8.75391 4.42969 8.71875 3.57422 9.41016 2.84766C10.1367 2.15625 10.9805 2.17969 11.6016 2.85938L12.0703 3.375C12.3398 3.66797 12.7383 3.83203 13.1484 3.79688C15.8906 3.62109 18.1992 3.79688 20.25 4.45312C20.7539 4.61719 20.7773 4.76953 20.6133 4.93359L11.4961 14.0508ZM16.6641 14.0391C18.8203 14.0391 20.5898 12.2812 20.5898 10.1367C20.5898 9.11719 20.1914 8.13281 19.4414 7.37109L18.5859 9.01172C18.8086 9.33984 18.9258 9.72656 18.9258 10.1367C18.9258 11.3789 17.8945 12.3867 16.6641 12.3867C16.2539 12.3867 15.8555 12.2695 15.5273 12.0586L14.0391 13.043C14.7656 13.7109 15.7031 14.0391 16.6641 14.0391ZM8.33203 3.03516L9.53906 1.74609L8.10938 0.328125C7.75781 -0.0234375 7.21875 -0.0234375 6.86719 0.328125C6.52734 0.667969 6.51562 1.20703 6.86719 1.55859L8.33203 3.03516ZM2.21484 16.2773L9.63281 9.45703L9.10547 7.39453L0.9375 14.9062L2.21484 16.2773ZM1.82812 17.1797C2.84766 17.1797 3.65625 16.3828 3.65625 15.3516C3.65625 14.332 2.84766 13.5234 1.82812 13.5234C0.796875 13.5234 0 14.332 0 15.3516C0 16.3828 0.796875 17.1797 1.82812 17.1797ZM6.58594 21.3398L7.92188 20.0039L2.09766 14.2148L0.773438 15.5391L6.58594 21.3398ZM6.9375 22.5586C7.96875 22.5586 8.76562 21.8086 8.76562 20.7305C8.76562 19.7109 7.94531 18.9023 6.9375 18.9023C5.90625 18.9023 5.10938 19.7109 5.10938 20.7305C5.10938 21.7617 5.90625 22.5586 6.9375 22.5586ZM5.98828 26.4375H7.875V20.7773H5.98828V26.4375ZM1.34766 28.0898H13.8164C14.25 28.0898 14.543 27.7734 14.543 27.3164C14.543 26.4375 13.7812 25.8164 12.5977 25.8164H2.56641C1.38281 25.8164 0.621094 26.4375 0.621094 27.3164C0.621094 27.7734 0.914062 28.0898 1.34766 28.0898Z" fill="black" fill-opacity="0.85"/>
</svg>
