<svg width="34" height="27" viewBox="0 0 34 27" fill="none" xmlns="http://www.w3.org/2000/svg">
<path d="M0 21.5962C0 22.3345 0.597656 22.9321 1.32422 22.9321H32.4727C33.1992 22.9321 33.7969 22.3345 33.7969 21.5962C33.7969 20.8579 33.1992 20.2603 32.4727 20.2603H29.9062V6.35009C29.9062 4.70947 29.0273 3.86572 27.3984 3.86572H6.39844C4.85156 3.86572 3.89062 4.70947 3.89062 6.35009V20.2603H1.32422C0.597656 20.2603 0 20.8579 0 21.5962ZM5.77734 20.2603V6.87744C5.77734 6.12744 6.15234 5.75244 6.90234 5.75244H26.8945C27.6445 5.75244 28.0195 6.12744 28.0195 6.87744V20.2603H5.77734Z" fill="#007AFF"/>
<path d="M26.332 26.1079C27.2227 26.9985 28.6641 26.9985 29.543 26.0962C30.4219 25.2056 30.4219 23.7759 29.5547 22.897L7.35938 0.689949C6.48047 -0.188958 5.02734 -0.200676 4.13672 0.689949C3.25781 1.56885 3.25781 3.0337 4.13672 3.90089L26.332 26.1079Z" fill="white"/>
<path d="M27.293 25.1353C27.6445 25.4985 28.2305 25.4985 28.5703 25.1353C28.9219 24.7837 28.9336 24.2212 28.582 23.8579L6.39844 1.66261C6.04688 1.31105 5.46094 1.29933 5.10938 1.66261C4.75781 2.00246 4.75781 2.5884 5.10938 2.93996L27.293 25.1353Z" fill="black" fill-opacity="0.85"/>
</svg>
