<svg width="34" height="30" viewBox="0 0 34 30" fill="none" xmlns="http://www.w3.org/2000/svg">
<path d="M0 22.8633C0 23.6016 0.597656 24.1992 1.32422 24.1992H32.4727C33.1992 24.1992 33.7969 23.6016 33.7969 22.8633C33.7969 22.125 33.1992 21.5273 32.4727 21.5273H29.9062V7.61719C29.9062 5.97656 29.0273 5.13281 27.3984 5.13281H6.39844C4.85156 5.13281 3.89062 5.97656 3.89062 7.61719V21.5273H1.32422C0.597656 21.5273 0 22.125 0 22.8633ZM5.77734 21.5273V8.14453C5.77734 7.39453 6.15234 7.01953 6.90234 7.01953H26.8945C27.6445 7.01953 28.0195 7.39453 28.0195 8.14453V21.5273H5.77734Z" fill="#007AFF"/>
<path d="M14.4609 2.44922V14.2852C14.4609 15.7031 15.5859 16.7344 16.8984 16.7344C18.2109 16.7344 19.3359 15.7031 19.3359 14.2852V2.44922C19.3359 1.04297 18.2109 0 16.8984 0C15.5859 0 14.4609 1.04297 14.4609 2.44922Z" fill="white"/>
<path d="M16.0664 2.44922V11.7656L16.1719 14.2383L13.8867 11.6719L13.207 11.0039C13.043 10.8516 12.832 10.7578 12.5859 10.7578C12.1055 10.7578 11.7773 11.0977 11.7773 11.5547C11.7773 11.8008 11.8711 12.0117 12.0352 12.1758L16.2656 16.4297C16.4766 16.6289 16.6992 16.7344 16.8984 16.7344C17.0977 16.7344 17.332 16.6289 17.5312 16.4297L21.7617 12.1758C21.9258 12.0117 22.0195 11.8008 22.0195 11.5547C22.0195 11.0977 21.6914 10.7578 21.2109 10.7578C20.9648 10.7578 20.7539 10.8516 20.5898 11.0039L19.9102 11.6719L17.625 14.2383L17.7422 11.7656V2.44922C17.7422 1.92188 17.332 1.60547 16.8984 1.60547C16.4648 1.60547 16.0664 1.92188 16.0664 2.44922Z" fill="black" fill-opacity="0.85"/>
</svg>
