<svg width="24" height="24" viewBox="0 0 24 24" fill="none" xmlns="http://www.w3.org/2000/svg">
<path d="M11.9531 23.9062C18.4922 23.9062 23.9062 18.4805 23.9062 11.9531C23.9062 5.41406 18.4805 0 11.9414 0C5.41406 0 0 5.41406 0 11.9531C0 18.4805 5.42578 23.9062 11.9531 23.9062ZM11.9531 21.9141C6.42188 21.9141 2.00391 17.4844 2.00391 11.9531C2.00391 6.42188 6.41016 1.99219 11.9414 1.99219C17.4727 1.99219 21.9141 6.42188 21.9141 11.9531C21.9141 17.4844 17.4844 21.9141 11.9531 21.9141Z" fill="#007AFF"/>
<path d="M8.00391 17.5312H15.2578C15.668 17.5312 15.9375 17.25 15.9375 16.8633C15.9375 16.4883 15.6562 16.2188 15.2578 16.2188H13.4648C10.875 16.2188 8.87109 14.2734 8.87109 11.7188C8.87109 10.1133 9.39844 8.98828 10.3594 8.40234V11.3789C10.3594 11.707 10.5938 11.9414 10.9219 11.9414C11.25 11.9414 11.4961 11.707 11.4961 11.3789V8.00391C11.6953 7.98047 11.9062 7.95703 12.082 7.95703C12.2695 7.95703 12.4336 7.98047 12.5742 8.00391V11.3789C12.5742 11.707 12.8203 11.9414 13.1484 11.9414C13.4766 11.9414 13.7109 11.707 13.7109 11.3789V8.4375C14.5547 9.01172 15.0938 10.0078 15.1172 11.3086C15.1289 11.7656 15.4102 12.082 15.8438 12.082C16.2539 12.082 16.5586 11.7656 16.5586 11.3203C16.5469 9.25781 15.4219 7.52344 13.7109 6.86719V5.78906C13.7109 5.44922 13.4766 5.21484 13.1484 5.21484C12.8203 5.21484 12.5742 5.44922 12.5742 5.78906V6.58594C12.4219 6.5625 12.2578 6.5625 12.0938 6.5625C11.9062 6.5625 11.6953 6.57422 11.4961 6.59766V5.78906C11.4961 5.44922 11.25 5.21484 10.9219 5.21484C10.5938 5.21484 10.3594 5.44922 10.3594 5.78906V6.83203C8.49609 7.5 7.37109 9.22266 7.37109 11.5547C7.37109 13.5586 8.30859 15.293 9.75 16.2188H8.01562C7.62891 16.2188 7.33594 16.4883 7.33594 16.8633C7.33594 17.2617 7.60547 17.5312 8.00391 17.5312Z" fill="black" fill-opacity="0.85"/>
</svg>
