<svg width="20" height="27" viewBox="0 0 20 27" fill="none" xmlns="http://www.w3.org/2000/svg">
<path d="M1.01953 23.4609H16.9922C17.5664 23.4609 17.9531 23.0977 17.9531 22.5234C17.9531 21.9727 17.5664 21.5859 16.9922 21.5859H11.5078C6.32812 21.5859 2.25 17.6367 2.23828 12.4688C2.23828 7.33594 5.80078 4.67578 9.86719 4.67578C13.8633 4.67578 17.3086 7.46484 17.4258 11.6484C17.4492 12.3281 17.8125 12.8203 18.5039 12.8203C19.1719 12.8203 19.5352 12.3164 19.5352 11.6602C19.5 6.41016 15.0703 2.64844 9.86719 2.64844C4.55859 2.64844 0 6.33984 0 12.1289C0 16.5469 2.39062 20.0859 5.625 21.5391V21.5859H1.01953C0.445312 21.5859 0.0585938 21.9727 0.0585938 22.5234C0.0585938 23.0977 0.445312 23.4609 1.01953 23.4609ZM12.293 12.5273C12.7383 12.5273 13.0664 12.2227 13.0664 11.7539V0.773438C13.0664 0.316406 12.7383 0 12.293 0C11.8594 0 11.5312 0.316406 11.5312 0.773438V11.7539C11.5312 12.2109 11.8594 12.5273 12.293 12.5273ZM7.5 12.5273C7.94531 12.5273 8.27344 12.2227 8.27344 11.7539V0.773438C8.27344 0.316406 7.94531 0 7.5 0C7.06641 0 6.73828 0.316406 6.73828 0.773438V11.7539C6.73828 12.2227 7.06641 12.5273 7.5 12.5273Z" fill="black" fill-opacity="0.85"/>
</svg>
