<svg width="28" height="28" viewBox="0 0 28 28" fill="none" xmlns="http://www.w3.org/2000/svg">
<path d="M0.832031 13.125C0.363281 13.125 0 13.5 0 13.957C0 14.4141 0.363281 14.7773 0.832031 14.7773H27.0938C27.5625 14.7773 27.9141 14.4141 27.9141 13.957C27.9141 13.5 27.5625 13.125 27.0938 13.125H0.832031ZM14.7773 0.820312C14.7773 0.351562 14.4141 0 13.957 0C13.5 0 13.125 0.351562 13.125 0.820312V27.082C13.125 27.5391 13.5 27.9141 13.957 27.9141C14.4141 27.9141 14.7773 27.5391 14.7773 27.082V0.820312ZM19.2773 3.30469C19.4414 2.87109 19.2305 2.39062 18.832 2.22656C18.3867 2.0625 17.9062 2.26172 17.7305 2.66016L8.63672 24.6094C8.47266 25.043 8.68359 25.5234 9.08203 25.6875C9.52734 25.8516 9.99609 25.6523 10.1836 25.2422L19.2773 3.30469ZM25.4883 3.60938C25.7812 3.29297 25.7812 2.77734 25.4648 2.44922C25.1367 2.13281 24.6211 2.14453 24.3047 2.44922L2.42578 24.293C2.12109 24.6211 2.13281 25.1367 2.44922 25.4648C2.77734 25.7812 3.29297 25.7695 3.60938 25.4648L25.4883 3.60938ZM25.2539 10.1719C25.6523 9.99609 25.8516 9.52734 25.6758 9.10547C25.5234 8.68359 25.043 8.48438 24.6094 8.64844L2.66016 17.7305C2.26172 17.9062 2.0625 18.375 2.23828 18.8086C2.39062 19.2305 2.87109 19.418 3.30469 19.2539L25.2539 10.1719ZM24.6094 19.2773C25.043 19.4414 25.5117 19.2305 25.6875 18.8086C25.8516 18.375 25.6641 17.918 25.2305 17.7422L3.30469 8.63672C2.87109 8.47266 2.40234 8.68359 2.22656 9.10547C2.0625 9.52734 2.25 9.98438 2.68359 10.1602L24.6094 19.2773ZM24.3047 25.4766C24.6211 25.7812 25.1367 25.7812 25.4648 25.4648C25.7812 25.1367 25.7812 24.6445 25.4648 24.3164L3.60938 2.42578C3.29297 2.12109 2.77734 2.13281 2.44922 2.44922C2.13281 2.77734 2.13281 3.26953 2.44922 3.59766L24.3047 25.4766ZM17.7305 25.2539C17.9062 25.6641 18.3984 25.8516 18.8086 25.6758C19.2305 25.5234 19.418 25.0312 19.2539 24.6211L10.1836 2.66016C9.99609 2.25 9.51562 2.0625 9.10547 2.23828C8.68359 2.39062 8.48438 2.85938 8.66016 3.29297L17.7305 25.2539Z" fill="black" fill-opacity="0.85"/>
</svg>
