<svg width="24" height="24" viewBox="0 0 24 24" fill="none" xmlns="http://www.w3.org/2000/svg">
<path d="M11.9531 23.9062C18.4922 23.9062 23.9062 18.4805 23.9062 11.9531C23.9062 5.41406 18.4805 0 11.9414 0C5.41406 0 0 5.41406 0 11.9531C0 18.4805 5.42578 23.9062 11.9531 23.9062ZM11.9531 21.9141C6.42188 21.9141 2.00391 17.4844 2.00391 11.9531C2.00391 6.42188 6.41016 1.99219 11.9414 1.99219C17.4727 1.99219 21.9141 6.42188 21.9141 11.9531C21.9141 17.4844 17.4844 21.9141 11.9531 21.9141Z" fill="#007AFF"/>
<path d="M6.23438 7.50006C6.12891 8.03912 6.05859 8.74225 6.05859 9.211C6.05859 13.172 8.41406 15.8087 12.0117 15.8087C14.332 15.8087 15.4219 14.4493 15.6797 13.9806H15.0117C15.7031 14.6954 16.0078 15.4571 16.3594 16.5704C16.4297 16.8165 16.6172 16.9103 16.793 16.9103C17.1797 16.9103 17.5078 16.5704 17.5078 16.1017C17.5078 15.3751 16.4648 14.0978 15.9023 13.5939C13.5703 11.461 10.0547 12.7149 9.14062 10.3478C9.07031 10.172 9.25781 10.0196 9.45703 10.1837C11.3438 11.836 13.6055 10.5001 15.9023 12.5743C16.0898 12.7501 16.2891 12.6563 16.3359 12.4806C16.3594 12.3165 16.3711 12.0704 16.3711 11.836C16.3711 9.25787 14.5664 8.01568 12.0352 8.01568C11.1797 8.01568 10.207 8.22662 9.42188 8.22662C8.56641 8.22662 7.61719 8.12115 6.84375 7.336C6.62109 7.11334 6.30469 7.13678 6.23438 7.50006Z" fill="black" fill-opacity="0.85"/>
</svg>
