<svg width="17" height="16" viewBox="0 0 17 16" fill="none" xmlns="http://www.w3.org/2000/svg">
<path d="M15.1641 15.5742C15.7383 15.5742 16.1484 15.1641 16.1484 14.5195C16.1484 13.9805 15.8789 13.6758 15.3867 13.4414L2.76562 7.82812V7.69922L15.3867 2.13281C15.8789 1.89844 16.1484 1.59375 16.1484 1.05469C16.1484 0.433594 15.7266 0.0117188 15.1172 0.0117188C14.8008 0.0117188 14.6016 0.09375 14.3672 0.210938L1.19531 6.26953C0.515625 6.57422 0 7.11328 0 7.85156C0 8.60156 0.515625 9.11719 1.19531 9.43359L14.3672 15.3516C14.6133 15.4688 14.8242 15.5742 15.1641 15.5742Z" fill="black" fill-opacity="0.85"/>
</svg>
