<svg width="24" height="24" viewBox="0 0 24 24" fill="none" xmlns="http://www.w3.org/2000/svg">
<path d="M11.9531 23.9062C18.4922 23.9062 23.9062 18.4805 23.9062 11.9531C23.9062 5.41406 18.4805 0 11.9414 0C5.41406 0 0 5.41406 0 11.9531C0 18.4805 5.42578 23.9062 11.9531 23.9062Z" fill="#FFCC00"/>
<path d="M15.0938 16.9102C14.8477 16.9102 14.6953 16.8516 14.5078 16.7695L7.30078 13.0195C6.79688 12.7617 6.58594 12.457 6.58594 11.9531C6.58594 11.4961 6.82031 11.1562 7.30078 10.8867L14.5078 7.00781C14.707 6.91406 14.8477 6.85547 15.1172 6.85547C15.6914 6.85547 16.1016 7.27734 16.1016 7.81641C16.1016 8.27344 15.8906 8.56641 15.3984 8.80078L9.26953 11.8828V11.9531L15.3984 14.9648C15.9023 15.1992 16.1016 15.4688 16.1016 15.9375C16.1016 16.4883 15.6797 16.9102 15.0938 16.9102Z" fill="black" fill-opacity="0.85"/>
</svg>
