<svg width="22" height="22" viewBox="0 0 22 22" fill="none" xmlns="http://www.w3.org/2000/svg">
<path d="M3.67969 21.5977H17.8945C20.3555 21.5977 21.5742 20.3789 21.5742 17.9648V3.65625C21.5742 1.24219 20.3555 0.0234375 17.8945 0.0234375H3.67969C1.23047 0.0234375 0 1.23047 0 3.65625V17.9648C0 20.3906 1.23047 21.5977 3.67969 21.5977Z" fill="#FFCC00"/>
<path d="M13.9336 15.75C13.6992 15.75 13.5352 15.6914 13.3477 15.6094L6.14062 11.8594C5.63672 11.6016 5.42578 11.2969 5.42578 10.793C5.42578 10.3359 5.66016 9.99609 6.14062 9.72656L13.3477 5.84766C13.5469 5.75391 13.6992 5.69531 13.957 5.69531C14.5312 5.69531 14.9414 6.11719 14.9414 6.65625C14.9414 7.11328 14.7305 7.40625 14.2383 7.64062L8.10938 10.7227V10.793L14.2383 13.8047C14.7422 14.0391 14.9414 14.3086 14.9414 14.7773C14.9414 15.3281 14.5195 15.75 13.9336 15.75Z" fill="black" fill-opacity="0.85"/>
</svg>
