<svg width="29" height="13" viewBox="0 0 29 13" fill="none" xmlns="http://www.w3.org/2000/svg">
<path d="M4.76953 11.3672H5.89453V1.35938H4.76953V11.3672ZM22.7695 11.3672H23.8945V1.35938H22.7695V11.3672ZM14.332 6.90234C17.8594 6.90234 20.4727 4.69921 20.7305 1.35938H19.4766C19.2773 4.05469 17.168 5.83593 14.332 5.83593C11.4844 5.83593 9.375 4.05469 9.17578 1.35938H7.92188C8.19141 4.69921 10.8047 6.90234 14.332 6.90234Z" fill="#007AFF"/>
<path d="M3.17578 12.7148H25.4883C27.5859 12.7148 28.6641 11.6367 28.6641 9.5625V3.16406C28.6641 1.08984 27.5742 0.0117188 25.4766 0.0117188H3.16406C1.06641 0.0117188 0 1.08984 0 3.16406V9.5625C0 11.6367 1.07812 12.7148 3.17578 12.7148ZM3.45703 10.8281C2.46094 10.8281 1.88672 10.2773 1.88672 9.22266V3.50391C1.88672 2.44922 2.46094 1.89844 3.46875 1.89844H25.1953C26.2031 1.89844 26.7656 2.44922 26.7656 3.50391V9.22266C26.7656 10.2773 26.2031 10.8281 25.1836 10.8281H3.45703ZM14.332 4.10156C15.9258 4.10156 17.0977 3.10547 17.2266 1.59375H11.4375C11.5547 3.10547 12.7266 4.10156 14.332 4.10156Z" fill="black" fill-opacity="0.85"/>
</svg>
