<svg width="23" height="25" viewBox="0 0 23 25" fill="none" xmlns="http://www.w3.org/2000/svg">
<path d="M11.4492 11.9648C16.7344 11.9648 20.8125 13.2656 22.9102 15.5273V6.33984C22.9102 2.51953 18.3867 0 11.4492 0C4.52344 0 0 2.51953 0 6.33984V15.5273C2.09766 13.2656 6.16406 11.9648 11.4492 11.9648ZM11.4492 24.1875C18.0117 24.1875 22.8633 22.1016 22.8633 18.8789C22.8633 15.6562 18.0117 13.5703 11.4492 13.5703C4.89844 13.5703 0.046875 15.6562 0.046875 18.8789C0.046875 22.1016 4.89844 24.1875 11.4492 24.1875ZM11.4492 18.5039C8.87109 18.5039 6.73828 17.1797 6.58594 15.5391C7.99219 15.2344 9.64453 15.0586 11.4492 15.0586C13.2656 15.0586 14.9062 15.2344 16.3242 15.5391C16.1719 17.1797 14.0273 18.5039 11.4492 18.5039Z" fill="black" fill-opacity="0.85"/>
</svg>
