<svg width="24" height="29" viewBox="0 0 24 29" fill="none" xmlns="http://www.w3.org/2000/svg">
<path d="M4.62695 7.66724C4.62695 12.1673 7.32226 13.2805 8.07226 21.0969C8.11914 21.5188 8.35351 21.7883 8.81054 21.7883H16.1348C16.5918 21.7883 16.8262 21.5188 16.873 21.0969C17.623 13.2805 20.3184 12.1673 20.3184 7.66724C20.3184 3.62427 16.8613 0.448486 12.4785 0.448486C8.0957 0.448486 4.62695 3.62427 4.62695 7.66724ZM6.39648 7.66724C6.39648 4.50317 9.18554 2.21802 12.4785 2.21802C15.7715 2.21802 18.5488 4.50317 18.5488 7.66724C18.5488 11.0305 16.3105 11.8274 15.2559 20.0188H9.68945C8.63476 11.8274 6.39648 11.0305 6.39648 7.66724ZM8.76367 24.3196H16.1816C16.5684 24.3196 16.873 24.0149 16.873 23.6282C16.873 23.2532 16.5684 22.9485 16.1816 22.9485H8.76367C8.37695 22.9485 8.08398 23.2532 8.08398 23.6282C8.08398 24.0149 8.37695 24.3196 8.76367 24.3196ZM12.4785 27.718C14.2832 27.718 15.8066 26.8274 15.9121 25.4798H9.0332C9.11523 26.8274 10.6504 27.718 12.4785 27.718Z" fill="#007AFF"/>
<path d="M19.9907 23.218C20.8931 24.1204 22.3228 24.1087 23.2134 23.218C24.0923 22.3391 24.0923 20.886 23.2134 20.0071L3.87745 0.659443C2.96339 -0.254619 1.49854 -0.184307 0.654793 0.659443C-0.224114 1.53835 -0.212395 3.01491 0.654793 3.8821L19.9907 23.218Z" fill="white"/>
<path d="M20.9634 22.2455C21.3267 22.6205 21.8892 22.6088 22.2407 22.2455C22.5923 21.8939 22.5923 21.3314 22.2407 20.9681L2.9048 1.63215C2.55324 1.26887 1.9673 1.29231 1.61574 1.63215C1.2759 1.97199 1.28762 2.58137 1.61574 2.90949L20.9634 22.2455Z" fill="black" fill-opacity="0.85"/>
</svg>
