<svg width="24" height="29" viewBox="0 0 24 29" fill="none" xmlns="http://www.w3.org/2000/svg">
<path d="M4.62793 7.66724C4.62793 12.1673 7.32324 13.2805 8.07324 21.0969C8.12012 21.5188 8.35449 21.7883 8.81152 21.7883H16.1358C16.5928 21.7883 16.8272 21.5188 16.874 21.0969C17.624 13.2805 20.3194 12.1673 20.3194 7.66724C20.3194 3.62427 16.8623 0.448486 12.4795 0.448486C8.09668 0.448486 4.62793 3.62427 4.62793 7.66724ZM6.39746 7.66724C6.39746 4.50317 9.18652 2.21802 12.4795 2.21802C15.7725 2.21802 18.5498 4.50317 18.5498 7.66724C18.5498 11.0305 16.3115 11.8274 15.2569 20.0188H9.69043C8.63574 11.8274 6.39746 11.0305 6.39746 7.66724ZM8.76465 24.3196H16.1826C16.5694 24.3196 16.874 24.0149 16.874 23.6282C16.874 23.2532 16.5694 22.9485 16.1826 22.9485H8.76465C8.37793 22.9485 8.08496 23.2532 8.08496 23.6282C8.08496 24.0149 8.37793 24.3196 8.76465 24.3196ZM12.4795 27.718C14.2842 27.718 15.8076 26.8274 15.9131 25.4798H9.03418C9.11621 26.8274 10.6514 27.718 12.4795 27.718Z" fill="#007AFF"/>
<path d="M19.9907 23.218C20.8931 24.1204 22.3228 24.1087 23.2134 23.218C24.0923 22.3391 24.0923 20.886 23.2134 20.0071L3.87745 0.659443C2.96339 -0.254619 1.49854 -0.184307 0.654793 0.659443C-0.224114 1.53835 -0.212395 3.01491 0.654793 3.8821L19.9907 23.218Z" fill="white"/>
<path d="M20.9634 22.2454C21.3267 22.6204 21.8892 22.6087 22.2407 22.2454C22.5923 21.8938 22.5923 21.3313 22.2407 20.968L2.9048 1.63209C2.55324 1.26881 1.9673 1.29225 1.61574 1.63209C1.2759 1.97193 1.28762 2.58131 1.61574 2.90943L20.9634 22.2454Z" fill="black" fill-opacity="0.85"/>
</svg>
