<svg width="28" height="41" viewBox="0 0 28 41" fill="none" xmlns="http://www.w3.org/2000/svg">
<path d="M3.24609 14.8828C3.79688 14.8828 4.27734 14.4258 4.27734 13.875C4.27734 13.3125 3.79688 12.8555 3.24609 12.8555H0.996094C0.457031 12.8555 0 13.3242 0 13.875C0 14.4141 0.457031 14.8828 0.996094 14.8828H3.24609ZM5.64844 7.08984C6.03516 7.47656 6.67969 7.48828 7.06641 7.08984C7.46484 6.69141 7.45312 6.05859 7.06641 5.67188L5.48438 4.06641C5.10938 3.67969 4.45312 3.67969 4.05469 4.06641C3.66797 4.47656 3.66797 5.09766 4.05469 5.48438L5.64844 7.08984ZM12.8555 3.26953C12.8555 3.80859 13.3125 4.27734 13.8633 4.27734C14.4258 4.27734 14.8828 3.80859 14.8828 3.26953V1.01953C14.8828 0.46875 14.4141 0 13.8633 0C13.3125 0 12.8555 0.46875 12.8555 1.01953V3.26953ZM20.6484 5.67188C20.2617 6.05859 20.25 6.69141 20.6484 7.08984C21.0586 7.48828 21.6797 7.47656 22.0664 7.08984L23.6719 5.48438C24.0586 5.09766 24.0586 4.47656 23.6719 4.06641C23.2617 3.67969 22.6406 3.67969 22.2539 4.06641L20.6484 5.67188ZM26.707 14.8828C27.2578 14.8828 27.7266 14.4141 27.7266 13.875C27.7266 13.3242 27.2578 12.8555 26.707 12.8555H24.457C23.918 12.8555 23.4492 13.3125 23.4492 13.875C23.4492 14.4258 23.918 14.8828 24.457 14.8828H26.707Z" fill="#007AFF"/>
<path d="M13.8633 6.45703C9.71484 6.45703 6.46875 9.46875 6.46875 13.3008C6.46875 17.543 9 18.5977 9.70312 25.9219C9.75 26.332 9.97266 26.5898 10.4062 26.5898H17.3203C17.7539 26.5898 17.9766 26.332 18.0117 25.9219C18.7266 18.5977 21.2695 17.543 21.2695 13.3008C21.2695 9.46875 18 6.45703 13.8633 6.45703ZM10.3711 28.9805H17.3555C17.7422 28.9805 18.0352 28.6992 18.0352 28.3125C18.0352 27.9258 17.7422 27.6445 17.3555 27.6445H10.3711C9.99609 27.6445 9.70312 27.9258 9.70312 28.3125C9.70312 28.6992 9.99609 28.9805 10.3711 28.9805ZM13.8633 32.1914C15.5859 32.1914 17.0508 31.3242 17.1328 30.0352H10.5938C10.6641 31.3242 12.1289 32.1914 13.8633 32.1914Z" fill="black" fill-opacity="0.85"/>
</svg>
