<svg width="39" height="28" viewBox="0 0 39 28" fill="none" xmlns="http://www.w3.org/2000/svg">
<path d="M19.1133 27.8789C24.2578 27.8789 28.1367 25.4883 28.1367 22.2773C28.1367 19.0547 24.2578 16.6758 19.1133 16.6758C14.0039 16.6758 10.1133 19.0664 10.1133 22.2773C10.1133 25.4766 14.0039 27.8789 19.1133 27.8789ZM19.1133 26.4023C14.8125 26.4023 11.5664 24.5742 11.5664 22.2773C11.5664 19.9688 14.8242 18.1406 19.1133 18.1406C23.4141 18.1406 26.6484 19.9688 26.6484 22.2773C26.6484 24.5742 23.4258 26.4023 19.1133 26.4023ZM19.1133 25.7344C22.4297 25.7344 24.9023 24.3516 24.9023 22.4297C24.9023 20.5195 22.4297 19.125 19.1133 19.125C15.8086 19.125 13.3359 20.5195 13.3359 22.4297C13.3359 24.3398 15.8086 25.7344 19.1133 25.7344ZM19.1133 24.4688C16.5352 24.4688 14.5898 23.543 14.5898 22.4297C14.5898 21.3164 16.5352 20.3906 19.1133 20.3906C21.7148 20.3906 23.6367 21.3164 23.6367 22.4297C23.6367 23.543 21.7031 24.4688 19.1133 24.4688ZM19.1133 22.9688C21.1055 22.9688 22.8633 22.0547 23.4609 20.7773C22.2656 20.1094 20.7656 19.6992 19.1133 19.6992C17.5195 19.6992 15.9961 20.1094 14.8242 20.7773C15.4102 22.043 17.1445 22.9688 19.1133 22.9688Z" fill="black" fill-opacity="0.85"/>
<path d="M29.2148 16.1836C34.3359 16.1836 38.2383 13.8047 38.2383 10.5938C38.2383 7.37109 34.3359 4.98047 29.2148 4.98047C24.0938 4.98047 20.2148 7.38281 20.2148 10.5938C20.2148 13.793 24.0938 16.1836 29.2148 16.1836ZM29.2148 14.707C24.9023 14.707 21.668 12.8906 21.668 10.5938C21.668 8.29688 24.9141 6.44531 29.2148 6.44531C33.5039 6.44531 36.7383 8.29688 36.7383 10.5938C36.7383 12.8906 33.5156 14.707 29.2148 14.707ZM29.2148 14.0625C32.5195 14.0625 35.0039 12.668 35.0039 10.7695C35.0039 8.83594 32.5195 7.44141 29.2148 7.44141C25.8867 7.44141 23.4141 8.83594 23.4141 10.7695C23.4141 12.668 25.8867 14.0625 29.2148 14.0625ZM29.2148 12.7969C26.625 12.7969 24.6914 11.8594 24.6914 10.7695C24.6914 9.63281 26.625 8.71875 29.2148 8.71875C31.8047 8.71875 33.7383 9.63281 33.7383 10.7695C33.7383 11.8594 31.793 12.7969 29.2148 12.7969ZM29.2148 11.2852C31.207 11.2852 32.9531 10.3945 33.5391 9.09375C32.3672 8.42578 30.8438 8.01562 29.2148 8.01562C27.5977 8.01562 26.0859 8.42578 24.9141 9.09375C25.5 10.3828 27.2461 11.2852 29.2148 11.2852Z" fill="black" fill-opacity="0.85"/>
<path d="M9.02344 16.1836C14.1445 16.1836 18.0234 13.793 18.0234 10.5938C18.0234 7.38281 14.1445 4.98047 9.02344 4.98047C3.89062 4.98047 0 7.37109 0 10.5938C0 13.8047 3.89062 16.1836 9.02344 16.1836ZM9.02344 14.707C4.71094 14.707 1.5 12.8906 1.5 10.5938C1.5 8.29688 4.72266 6.44531 9.02344 6.44531C13.3359 6.44531 16.5703 8.29688 16.5703 10.5938C16.5703 12.8906 13.3359 14.707 9.02344 14.707ZM9.02344 14.0625C12.3516 14.0625 14.8359 12.668 14.8359 10.7695C14.8359 8.83594 12.3516 7.44141 9.02344 7.44141C5.71875 7.44141 3.24609 8.83594 3.24609 10.7695C3.24609 12.668 5.71875 14.0625 9.02344 14.0625ZM9.02344 12.7969C6.44531 12.7969 4.51172 11.8594 4.51172 10.7695C4.51172 9.63281 6.44531 8.71875 9.02344 8.71875C11.6133 8.71875 13.5586 9.63281 13.5586 10.7695C13.5586 11.8594 11.6133 12.7969 9.02344 12.7969ZM9.02344 11.2852C10.9922 11.2852 12.7383 10.3828 13.3242 9.09375C12.1523 8.42578 10.6406 8.01562 9.02344 8.01562C7.39453 8.01562 5.87109 8.42578 4.69922 9.09375C5.28516 10.3945 7.03125 11.2852 9.02344 11.2852Z" fill="black" fill-opacity="0.85"/>
</svg>
