<svg width="39" height="28" viewBox="0 0 39 28" fill="none" xmlns="http://www.w3.org/2000/svg">
<path d="M19.1367 27.8789C24.2578 27.8789 28.1367 25.4766 28.1367 22.2773C28.1367 19.0664 24.2578 16.6758 19.1367 16.6758C14.0039 16.6758 10.1133 19.0547 10.1133 22.2773C10.1133 25.4883 14.0039 27.8789 19.1367 27.8789ZM19.125 25.7344C15.7383 25.7344 13.2773 24.3281 13.2773 22.4297C13.2773 20.5312 15.7383 19.1367 19.125 19.1367C22.5117 19.1367 24.9961 20.5312 24.9961 22.4297C24.9961 24.3164 22.5117 25.7344 19.125 25.7344ZM14.3438 22.4297C14.3438 23.6602 16.4648 24.668 19.1133 24.668C21.7734 24.668 23.9297 23.6602 23.9297 22.4297C23.9297 21.9609 23.6133 21.5508 23.1094 21.1992C22.3477 22.2188 20.8359 22.8633 19.1133 22.8633C17.3906 22.8633 15.8672 22.2305 15.0703 21.2227C14.625 21.5508 14.3438 21.9727 14.3438 22.4297Z" fill="black" fill-opacity="0.85"/>
<path d="M29.2383 16.1953C34.3359 16.1953 38.2383 13.8047 38.2383 10.6055C38.2383 7.39453 34.3359 4.99219 29.2383 4.99219C24.0938 4.99219 20.2148 7.38281 20.2148 10.6055C20.2148 13.8164 24.0938 16.1953 29.2383 16.1953ZM29.2148 14.0508C25.8398 14.0508 23.3672 12.6562 23.3672 10.7695C23.3672 8.85938 25.8398 7.46484 29.2148 7.46484C32.6016 7.46484 35.0742 8.85938 35.0742 10.7695C35.0742 12.6445 32.6016 14.0508 29.2148 14.0508ZM24.4336 10.7695C24.4336 11.9766 26.5664 12.9961 29.2031 12.9961C31.8633 12.9961 34.0195 11.9766 34.0195 10.7695C34.0195 10.2773 33.7148 9.86719 33.1992 9.51562C32.4375 10.5352 30.9375 11.2031 29.2031 11.2031C27.4805 11.2031 25.9688 10.5469 25.1602 9.53906C24.7148 9.87891 24.4336 10.2891 24.4336 10.7695Z" fill="black" fill-opacity="0.85"/>
<path d="M9.02344 16.1836C14.1445 16.1836 18.0234 13.793 18.0234 10.5938C18.0234 7.38281 14.1445 4.98047 9.02344 4.98047C3.89062 4.98047 0 7.37109 0 10.5938C0 13.8047 3.89062 16.1836 9.02344 16.1836ZM9.01172 14.0391C5.63672 14.0391 3.16406 12.6445 3.16406 10.7578C3.16406 8.84766 5.63672 7.45312 9.01172 7.45312C12.3984 7.45312 14.8828 8.84766 14.8828 10.7578C14.8828 12.6328 12.3984 14.0391 9.01172 14.0391ZM4.23047 10.7578C4.23047 11.9648 6.36328 12.9844 9 12.9844C11.6602 12.9844 13.8164 11.9648 13.8164 10.7578C13.8164 10.2656 13.5117 9.85547 12.9961 9.51562C12.2344 10.5234 10.7227 11.1914 9 11.1914C7.27734 11.1914 5.76562 10.5352 4.96875 9.52734C4.51172 9.86719 4.23047 10.2773 4.23047 10.7578Z" fill="black" fill-opacity="0.85"/>
</svg>
