<svg width="22" height="22" viewBox="0 0 22 22" fill="none" xmlns="http://www.w3.org/2000/svg">
<path d="M3.67969 21.5977H17.8945C20.3555 21.5977 21.5742 20.3789 21.5742 17.9648V3.65625C21.5742 1.24219 20.3555 0.0234375 17.8945 0.0234375H3.67969C1.23047 0.0234375 0 1.23047 0 3.65625V17.9648C0 20.3906 1.23047 21.5977 3.67969 21.5977ZM3.70312 19.7109C2.53125 19.7109 1.88672 19.0898 1.88672 17.8711V3.75C1.88672 2.53125 2.53125 1.91016 3.70312 1.91016H17.8711C19.0312 1.91016 19.6875 2.53125 19.6875 3.75V17.8711C19.6875 19.0898 19.0312 19.7109 17.8711 19.7109H3.70312Z" fill="#007AFF"/>
<path d="M7.66406 16.9102H13.9102C14.4023 16.9102 14.7656 16.5469 14.7656 16.0547V5.56641C14.7656 5.05078 14.4023 4.69922 13.9102 4.69922H7.66406C7.17188 4.69922 6.80859 5.05078 6.80859 5.56641V16.0547C6.80859 16.5469 7.17188 16.9102 7.66406 16.9102ZM8.51953 9.72656C8.29688 9.72656 8.13281 9.55078 8.13281 9.31641V6.42188C8.13281 6.17578 8.29688 6.02344 8.51953 6.02344H13.0547C13.2891 6.02344 13.4414 6.17578 13.4414 6.42188V9.31641C13.4414 9.55078 13.2891 9.72656 13.0547 9.72656H8.51953Z" fill="black" fill-opacity="0.85"/>
</svg>
