<svg width="30" height="27" viewBox="0 0 30 27" fill="none" xmlns="http://www.w3.org/2000/svg">
<path d="M1.9546 15.0664C2.63429 16.2383 3.66554 16.4844 4.81398 15.8282L20.0601 7.02739C21.2202 6.35942 21.5249 5.32817 20.8452 4.15629L19.2515 1.4141C18.5718 0.230511 17.5523 -0.0155827 16.4038 0.664105L1.13429 9.4766C-0.0258653 10.1329 -0.318834 11.1407 0.360853 12.3243L1.9546 15.0664ZM15.8296 5.2227C15.5718 4.77739 15.7241 4.20317 16.1694 3.94535C16.6265 3.68754 17.2007 3.83989 17.4585 4.29692C17.7163 4.74223 17.564 5.31645 17.1069 5.57426C16.6616 5.83207 16.0874 5.67973 15.8296 5.2227ZM12.8062 6.96879C12.5484 6.52348 12.7007 5.94926 13.146 5.69145C13.603 5.43364 14.1773 5.58598 14.4351 6.03129C14.6929 6.4766 14.5405 7.06254 14.0835 7.32035C13.6382 7.57817 13.064 7.4141 12.8062 6.96879ZM9.78273 8.71489C9.52492 8.26957 9.68898 7.69535 10.1343 7.42582C10.5796 7.16801 11.1538 7.33207 11.4116 7.77739C11.6694 8.2227 11.5171 8.79692 11.0718 9.05473C10.6265 9.31254 10.0523 9.1602 9.78273 8.71489ZM6.77101 10.4493C6.5132 10.0039 6.66554 9.44145 7.12257 9.18364C7.56788 8.9141 8.15382 9.06645 8.41163 9.51176C8.66945 9.96879 8.50538 10.5313 8.06007 10.7891C7.60304 11.0469 7.02882 10.9063 6.77101 10.4493ZM3.74757 12.1954C3.48976 11.75 3.6421 11.1758 4.09913 10.918C4.54445 10.6602 5.11867 10.8125 5.37648 11.2579C5.64601 11.7149 5.48195 12.2774 5.03663 12.5352C4.5796 12.793 4.00538 12.6524 3.74757 12.1954ZM18.2671 1.23832L18.9234 2.36332L20.9038 1.2266C21.2319 1.0391 21.3257 0.652386 21.1382 0.33598C20.9624 0.0195737 20.564 -0.0976138 20.2476 0.0898862L18.2671 1.23832ZM19.8609 3.98051L20.5171 5.11723L22.4859 3.98051C22.8491 3.78129 22.9312 3.44145 22.7202 3.07817C22.5327 2.75004 22.1577 2.65629 21.8296 2.84379L19.8609 3.98051ZM9.8882 25.0391C10.5562 26.1993 11.6109 26.4571 12.771 25.8008L28.0171 17C29.1655 16.3321 29.4468 15.2891 28.7905 14.1289L27.1968 11.3868C26.5171 10.2032 25.4976 9.95707 24.3491 10.6368L9.0796 19.4493C7.93117 20.1055 7.62648 21.1133 8.30617 22.2969L9.8882 25.0391ZM23.7749 15.1954C23.5171 14.75 23.6577 14.1875 24.1148 13.9297C24.5718 13.6602 25.1343 13.8125 25.3921 14.2579C25.6499 14.7149 25.5093 15.2774 25.0523 15.5352C24.5952 15.8047 24.0327 15.6524 23.7749 15.1954ZM20.7515 16.9414C20.4819 16.4961 20.646 15.9336 21.103 15.6758C21.5484 15.4063 22.1226 15.5586 22.3804 16.0039C22.6382 16.461 22.4859 17.0235 22.0405 17.2813C21.5835 17.5508 21.0093 17.3985 20.7515 16.9414ZM17.7398 18.6875C17.4819 18.2422 17.6343 17.668 18.0796 17.4102C18.5249 17.1407 19.1109 17.3047 19.3687 17.75C19.6265 18.1954 19.4624 18.7696 19.0171 19.0274C18.5718 19.2969 17.9976 19.1329 17.7398 18.6875ZM14.7163 20.4219C14.4585 19.9766 14.6226 19.4024 15.0679 19.1446C15.5132 18.8868 16.0874 19.0391 16.3452 19.4961C16.603 19.9414 16.4507 20.5039 16.0054 20.7735C15.5601 21.0313 14.9741 20.8789 14.7163 20.4219ZM11.6929 22.168C11.4351 21.7227 11.5991 21.1485 12.0444 20.8789C12.4898 20.6211 13.064 20.7852 13.3218 21.2305C13.5796 21.6758 13.4273 22.2618 12.9819 22.5196C12.5366 22.7774 11.9507 22.6133 11.6929 22.168ZM10.8843 25.2383L10.228 24.0899L8.23585 25.2383C7.90773 25.4258 7.8257 25.8008 8.0132 26.1289C8.22413 26.4922 8.56398 26.5977 8.90382 26.3868L10.8843 25.2383ZM9.30226 22.4844L8.64601 21.3477L6.66554 22.4844C6.33742 22.6719 6.24367 23.0704 6.43117 23.3868C6.61867 23.7032 6.99367 23.8086 7.31007 23.6211L9.30226 22.4844ZM6.06788 16.4141H12.0562L22.7202 10.25H16.7319L6.06788 16.4141Z" fill="black" fill-opacity="0.85"/>
</svg>
