<svg width="20" height="27" viewBox="0 0 20 27" fill="none" xmlns="http://www.w3.org/2000/svg">
<path d="M6.66797 23.2031H12.4336C12.8086 23.2031 13.1133 22.9102 13.1133 22.5234C13.1133 22.1367 12.8086 21.8438 12.4336 21.8438H6.66797C6.28125 21.8438 5.97656 22.1367 5.97656 22.5234C5.97656 22.9102 6.28125 23.2031 6.66797 23.2031ZM9.55078 26.543C11.1328 26.543 12.2578 25.6992 12.5039 24.3633H6.58594C6.80859 25.6992 7.93359 26.543 9.55078 26.543Z" fill="#007AFF"/>
<path d="M6.92578 20.6133H12.1641C12.5859 20.6133 12.8086 20.3906 12.8086 19.9805V19.0312C12.8086 13.2891 16.9102 10.207 18.4922 7.01953H0.621094C2.21484 10.1836 6.28125 13.3359 6.28125 19.0312V19.9805C6.28125 20.3906 6.50391 20.6133 6.92578 20.6133Z" fill="#FFCC00"/>
<path d="M0.09375 5.48438H18.9961C19.0547 5.22656 19.0898 4.95703 19.0898 4.6875C19.0898 1.67578 15.5859 0 9.55078 0C3.50391 0 0 1.67578 0 4.6875C0 4.95703 0.0351562 5.21484 0.09375 5.48438Z" fill="black" fill-opacity="0.85"/>
</svg>
