<svg width="24" height="25" viewBox="0 0 24 25" fill="none" xmlns="http://www.w3.org/2000/svg">
<path d="M11.6836 24.6562C18.7148 24.6562 23.3789 22.2539 23.3789 18.5273V6.57422C23.3789 2.57812 18.7031 0 11.6836 0C4.67578 0 0 2.57812 0 6.57422V18.5273C0 22.2539 4.66406 24.6562 11.6836 24.6562ZM1.88672 18.5273C1.88672 16.0664 5.84766 14.2852 11.6836 14.2852C17.5195 14.2852 21.4922 16.0664 21.4922 18.5273C21.4922 20.9883 17.5195 22.7695 11.6836 22.7695C5.84766 22.7695 1.88672 20.9883 1.88672 18.5273ZM6.80859 15.9492C6.87891 17.6719 9.02344 19.0898 11.6836 19.0898C14.3438 19.0898 16.5 17.6719 16.5703 15.9492C15.1992 15.6094 13.5352 15.4102 11.6836 15.4102C9.84375 15.4102 8.16797 15.6094 6.80859 15.9492Z" fill="black" fill-opacity="0.85"/>
</svg>
