<svg width="24" height="26" viewBox="0 0 24 26" fill="none" xmlns="http://www.w3.org/2000/svg">
<path d="M0 7.69921C0 11.4023 2.17969 12.3164 2.78906 18.5391C2.8125 18.9141 3.03516 19.1836 3.46875 19.1836H9.52734C9.96094 19.1836 10.1719 18.9141 10.207 18.5391C10.8047 12.3164 12.9844 11.4023 12.9844 7.69921C12.9844 4.35938 10.1484 1.73438 6.49219 1.73438C2.84766 1.73438 0 4.35938 0 7.69921ZM1.65234 7.69921C1.65234 5.20311 3.82031 3.38671 6.49219 3.38671C9.17578 3.38671 11.332 5.20311 11.332 7.69921C11.332 10.3945 9.59766 10.8984 8.70703 17.543H4.27734C3.39844 10.8984 1.65234 10.3945 1.65234 7.69921ZM3.43359 21.4102H9.42188C9.79688 21.4102 10.1016 21.1289 10.1016 20.7539C10.1016 20.3672 9.79688 20.0859 9.42188 20.0859H3.43359C3.05859 20.0859 2.77734 20.3789 2.77734 20.7539C2.77734 21.1172 3.05859 21.4102 3.43359 21.4102ZM6.43359 24.3398C7.98047 24.3398 9.31641 23.5078 9.33984 22.3125H3.53906C3.5625 23.5078 4.875 24.3398 6.43359 24.3398Z" fill="#007AFF"/>
<path d="M16.5 0C12.3633 0 9.10547 3.01172 9.10547 6.84375C9.10547 11.0859 11.6484 12.1406 12.3516 19.4648C12.3867 19.875 12.6094 20.1328 13.043 20.1328H19.9688C20.4023 20.1328 20.625 19.875 20.6602 19.4648C21.3633 12.1406 23.918 11.0859 23.918 6.84375C23.918 3.01172 20.6484 0 16.5 0Z" fill="white"/>
<path d="M16.5 0C12.3633 0 9.10547 3.01172 9.10547 6.84375C9.10547 11.0859 11.6484 12.1406 12.3516 19.4648C12.3867 19.875 12.6094 20.1328 13.043 20.1328H19.9688C20.4023 20.1328 20.625 19.875 20.6602 19.4648C21.3633 12.1406 23.918 11.0859 23.918 6.84375C23.918 3.01172 20.6484 0 16.5 0ZM16.5 1.72266C19.582 1.72266 22.1953 3.87891 22.1953 6.84375C22.1953 9.99609 20.1094 10.7109 19.0898 18.4102H13.9219C12.9023 10.7109 10.8281 9.99609 10.8281 6.84375C10.8281 3.87891 13.4297 1.72266 16.5 1.72266ZM13.0195 22.5234H20.0039C20.3789 22.5234 20.6836 22.2422 20.6836 21.8555C20.6836 21.4688 20.3789 21.1875 20.0039 21.1875H13.0195C12.6328 21.1875 12.3516 21.4688 12.3516 21.8555C12.3516 22.2422 12.6328 22.5234 13.0195 22.5234ZM16.5117 25.7344C18.2344 25.7344 19.6875 24.8672 19.7812 23.5781H13.2422C13.3125 24.8672 14.7773 25.7344 16.5117 25.7344Z" fill="black" fill-opacity="0.85"/>
</svg>
