<svg width="24" height="24" viewBox="0 0 24 24" fill="none" xmlns="http://www.w3.org/2000/svg">
<path d="M11.9531 23.9062C18.4922 23.9062 23.9062 18.4805 23.9062 11.9531C23.9062 5.41406 18.4805 0 11.9414 0C5.41406 0 0 5.41406 0 11.9531C0 18.4805 5.42578 23.9062 11.9531 23.9062Z" fill="#FFCC00"/>
<path d="M7.71094 8.4375C7.71094 6.24609 9.57422 4.58203 11.9414 4.58203C14.3203 4.58203 16.1953 6.30469 16.1953 8.49609C16.1953 10.9219 14.5664 11.4492 14.332 15.6562C14.3203 15.8906 14.168 16.043 13.9219 16.043H9.96094C9.73828 16.043 9.59766 15.8906 9.57422 15.6562C9.31641 11.4492 7.71094 10.8633 7.71094 8.4375ZM10.1016 17.6602C9.83203 17.6602 9.60938 17.4375 9.60938 17.168C9.60938 16.8984 9.83203 16.6758 10.1016 16.6758H13.8047C14.0742 16.6758 14.3086 16.8984 14.3086 17.168C14.3086 17.4375 14.0742 17.6602 13.8047 17.6602H10.1016ZM11.9531 19.3125C11.0742 19.3125 10.418 18.9023 10.3594 18.2812H13.5469C13.4766 18.9023 12.832 19.3125 11.9531 19.3125Z" fill="black" fill-opacity="0.85"/>
</svg>
