<svg width="16" height="28" viewBox="0 0 16 28" fill="none" xmlns="http://www.w3.org/2000/svg">
<path d="M0 7.21875C0 11.7188 2.69531 12.832 3.44531 20.6484C3.49219 21.0703 3.72656 21.3398 4.17188 21.3398H11.5078C11.9648 21.3398 12.1992 21.0703 12.2461 20.6484C12.9961 12.832 15.6797 11.7188 15.6797 7.21875C15.6797 3.17578 12.2227 0 7.83984 0C3.45703 0 0 3.17578 0 7.21875ZM1.76953 7.21875C1.76953 4.05469 4.54688 1.76953 7.83984 1.76953C11.1328 1.76953 13.9102 4.05469 13.9102 7.21875C13.9102 10.582 11.6836 11.3789 10.6289 19.5703H5.0625C3.99609 11.3789 1.76953 10.582 1.76953 7.21875ZM4.13672 23.8711H11.5547C11.9414 23.8711 12.2344 23.5664 12.2344 23.1797C12.2344 22.8047 11.9414 22.5 11.5547 22.5H4.13672C3.75 22.5 3.44531 22.8047 3.44531 23.1797C3.44531 23.5664 3.75 23.8711 4.13672 23.8711ZM7.83984 27.2695C9.65625 27.2695 11.168 26.3789 11.2852 25.0312H4.40625C4.48828 26.3789 6.01172 27.2695 7.83984 27.2695Z" fill="black" fill-opacity="0.85"/>
</svg>
