<svg width="18" height="26" viewBox="0 0 18 26" fill="none" xmlns="http://www.w3.org/2000/svg">
<path d="M3.63281 25.9219H13.5469C15.9609 25.9219 17.1797 24.6914 17.1797 22.2539V3.67969C17.1797 1.23047 15.9609 0 13.5469 0H3.63281C1.20703 0 0 1.23047 0 3.67969V22.2539C0 24.6914 1.20703 25.9219 3.63281 25.9219ZM3.72656 24.0352C2.50781 24.0352 1.88672 23.3906 1.88672 22.2188V3.71484C1.88672 2.54297 2.50781 1.88672 3.72656 1.88672H13.4414C14.6602 1.88672 15.293 2.54297 15.293 3.71484V22.2188C15.293 23.3906 14.6602 24.0352 13.4414 24.0352H3.72656Z" fill="#007AFF"/>
<path d="M4.51172 10.875H12.6094C13.3594 10.875 13.6641 10.582 13.6641 9.84375V4.52344C13.6641 3.78516 13.3594 3.49219 12.6094 3.49219H4.51172C3.77344 3.49219 3.46875 3.78516 3.46875 4.52344V9.84375C3.46875 10.582 3.77344 10.875 4.51172 10.875Z" fill="black" fill-opacity="0.85"/>
</svg>
