<svg width="25" height="38" viewBox="0 0 25 38" fill="none" xmlns="http://www.w3.org/2000/svg">
<path d="M1.21875 13.418C1.89844 13.418 2.4375 12.8789 2.4375 12.1992C2.4375 11.5312 1.89844 10.9922 1.21875 10.9922C0.539062 10.9922 0 11.5312 0 12.1992C0 12.8789 0.539062 13.418 1.21875 13.418ZM3.98438 5.19141C4.66406 5.19141 5.20312 4.65234 5.20312 3.97266C5.20312 3.30469 4.66406 2.76562 3.98438 2.76562C3.31641 2.76562 2.76562 3.30469 2.76562 3.97266C2.76562 4.65234 3.31641 5.19141 3.98438 5.19141ZM12.2227 2.4375C12.8906 2.4375 13.4297 1.89844 13.4297 1.21875C13.4297 0.539062 12.8906 0 12.2227 0C11.543 0 11.0039 0.539062 11.0039 1.21875C11.0039 1.89844 11.543 2.4375 12.2227 2.4375ZM20.4492 5.19141C21.1289 5.19141 21.668 4.65234 21.668 3.97266C21.668 3.30469 21.1289 2.76562 20.4492 2.76562C19.7695 2.76562 19.2305 3.30469 19.2305 3.97266C19.2305 4.65234 19.7695 5.19141 20.4492 5.19141ZM23.2266 13.418C23.8945 13.418 24.4336 12.8789 24.4336 12.1992C24.4336 11.5312 23.8945 10.9922 23.2266 10.9922C22.5469 10.9922 22.0078 11.5312 22.0078 12.1992C22.0078 12.8789 22.5469 13.418 23.2266 13.418Z" fill="#007AFF"/>
<path d="M12.2227 4.79297C8.07422 4.79297 4.81641 7.80469 4.81641 11.6367C4.81641 15.8789 7.35938 16.9336 8.0625 24.2578C8.10938 24.668 8.32031 24.9258 8.76562 24.9258H15.6797C16.1133 24.9258 16.3359 24.668 16.3711 24.2578C17.0742 16.9336 19.6289 15.8789 19.6289 11.6367C19.6289 7.80469 16.3594 4.79297 12.2227 4.79297ZM12.2227 6.51562C15.293 6.51562 17.9062 8.66016 17.9062 11.6367C17.9062 14.7773 15.8203 15.5039 14.8125 23.2031H9.63281C8.61328 15.5039 6.53906 14.7773 6.53906 11.6367C6.53906 8.66016 9.14062 6.51562 12.2227 6.51562ZM8.73047 27.3164H15.7148C16.1016 27.3164 16.3945 27.0352 16.3945 26.6484C16.3945 26.2617 16.1016 25.9805 15.7148 25.9805H8.73047C8.34375 25.9805 8.0625 26.2617 8.0625 26.6484C8.0625 27.0352 8.34375 27.3164 8.73047 27.3164ZM12.2227 30.5273C13.9453 30.5273 15.4102 29.6602 15.4922 28.3711H8.95312C9.02344 29.6602 10.4883 30.5273 12.2227 30.5273Z" fill="black" fill-opacity="0.85"/>
</svg>
