<svg width="39" height="28" viewBox="0 0 39 28" fill="none" xmlns="http://www.w3.org/2000/svg">
<path d="M19.1133 27.8789C24.2344 27.8789 28.1133 25.4766 28.1133 22.2773C28.1133 19.0664 24.2344 16.6758 19.1133 16.6758C13.9805 16.6758 10.0898 19.0547 10.0898 22.2773C10.0898 25.4883 13.9805 27.8789 19.1133 27.8789ZM19.1016 25.582C15.8438 25.582 13.4531 24.2344 13.4531 22.4062C13.4531 20.5898 15.8438 19.2305 19.1016 19.2305C22.3711 19.2305 24.7734 20.5898 24.7734 22.4062C24.7734 24.2344 22.3711 25.582 19.1016 25.582ZM19.1016 22.9453C20.7891 22.9453 22.3359 22.2773 23.0859 21.2461C22.2539 20.625 20.7305 20.2266 19.1016 20.2266C17.4609 20.2266 15.9375 20.625 15.1055 21.2812C15.8672 22.2773 17.4258 22.9453 19.1016 22.9453Z" fill="black" fill-opacity="0.85"/>
<path d="M29.2383 16.1836C34.3359 16.1836 38.2383 13.793 38.2383 10.5938C38.2383 7.38281 34.3359 4.98047 29.2383 4.98047C24.0938 4.98047 20.2148 7.37109 20.2148 10.5938C20.2148 13.8047 24.0938 16.1836 29.2383 16.1836ZM29.2148 13.8867C25.957 13.8867 23.5664 12.5391 23.5664 10.7344C23.5664 8.89453 25.957 7.54688 29.2148 7.54688C32.4961 7.54688 34.875 8.89453 34.875 10.7344C34.875 12.5391 32.4961 13.8867 29.2148 13.8867ZM29.2266 11.2734C30.9023 11.2734 32.4492 10.582 33.2109 9.55078C32.3672 8.94141 30.8438 8.53125 29.2266 8.53125C27.5625 8.53125 26.0508 8.94141 25.2305 9.58594C25.9922 10.582 27.5391 11.2734 29.2266 11.2734Z" fill="black" fill-opacity="0.85"/>
<path d="M9.02344 16.1836C14.1445 16.1836 18.0234 13.793 18.0234 10.5938C18.0234 7.38281 14.1445 4.98047 9.02344 4.98047C3.89062 4.98047 0 7.37109 0 10.5938C0 13.8047 3.89062 16.1836 9.02344 16.1836ZM9.01172 13.8867C5.75391 13.8867 3.36328 12.5391 3.36328 10.7344C3.36328 8.89453 5.75391 7.54688 9.01172 7.54688C12.293 7.54688 14.6836 8.89453 14.6836 10.7344C14.6836 12.5391 12.293 13.8867 9.01172 13.8867ZM9.01172 11.2734C10.6992 11.2734 12.2344 10.582 12.9961 9.55078C12.1641 8.94141 10.6406 8.53125 9.01172 8.53125C7.35938 8.53125 5.84766 8.94141 5.01562 9.58594C5.78906 10.582 7.33594 11.2734 9.01172 11.2734Z" fill="black" fill-opacity="0.85"/>
</svg>
