<svg width="22" height="31" viewBox="0 0 22 31" fill="none" xmlns="http://www.w3.org/2000/svg">
<g clip-path="url(#clip0_2152_15226)">
<path d="M4.21875 27.3281H16.8984C19.4414 27.3281 21.1289 25.5586 21.1289 22.8984V16.9805C21.1289 14.1094 20.8125 11.0625 20.2852 8.88281C19.6758 6.22266 17.8711 4.48828 15.4102 4.23047C14.8008 4.17188 12.7734 4.00781 10.5586 4.00781C8.07422 4.00781 6.32812 4.17188 5.71875 4.23047C3.25781 4.48828 1.45312 6.22266 0.84375 8.88281C0.316406 11.0742 0 13.9922 0 16.8398V22.8984C0 25.5586 1.6875 27.3281 4.21875 27.3281ZM4.51172 25.793C2.54297 25.793 1.53516 24.6445 1.53516 22.8984V16.8398C1.53516 14.0977 1.82812 11.3203 2.33203 9.23438C2.8125 7.19531 4.08984 5.95312 5.87109 5.76562C6.44531 5.70703 8.12109 5.54297 10.5586 5.54297C12.7148 5.54297 14.6836 5.70703 15.2578 5.76562C17.0391 5.95312 18.3164 7.19531 18.7969 9.23438C19.3008 11.3203 19.5938 14.2148 19.5938 16.9805V22.8984C19.5938 24.6445 18.5859 25.793 16.6055 25.793H4.51172ZM10.5586 19.1836C13.5117 19.1719 15.7617 19.043 17.0273 18.8906C17.7305 18.8086 18.0117 18.3516 18.0117 17.6953V16.0898C18.0117 13.7461 17.7656 12.0117 17.5898 11.2266C17.4727 10.7109 17.1562 10.3359 16.6172 10.2773C15.3281 10.125 13.8984 10.0312 10.5586 10.0195C7.23047 10.0312 5.80078 10.125 4.51172 10.2773C3.97266 10.3359 3.65625 10.7109 3.53906 11.2266C3.36328 12.0117 3.11719 13.7461 3.11719 16.0898V17.6953C3.11719 18.3516 3.38672 18.8086 4.10156 18.8906C5.36719 19.043 7.61719 19.1719 10.5586 19.1836ZM5.22656 24.0234C6.14062 24.0234 6.83203 23.3438 6.83203 22.4062C6.83203 21.4805 6.16406 20.8008 5.22656 20.8008C4.30078 20.8008 3.62109 21.4805 3.62109 22.4062C3.62109 23.3438 4.30078 24.0234 5.22656 24.0234ZM15.8789 24.0352C16.7812 24.0352 17.4961 23.332 17.4961 22.4062C17.4961 21.4922 16.793 20.7891 15.8789 20.7891C14.9531 20.7891 14.25 21.4922 14.25 22.4062C14.25 23.332 14.9531 24.0352 15.8789 24.0352ZM7.60547 8.625H13.5234C13.957 8.625 14.2383 8.34375 14.2383 7.91016C14.2383 7.47656 13.957 7.20703 13.5234 7.20703H7.60547C7.17188 7.20703 6.89062 7.47656 6.89062 7.91016C6.89062 8.34375 7.17188 8.625 7.60547 8.625ZM0.890625 2.34375C0.890625 2.82422 1.25391 3.11719 1.6875 3.11719C1.92188 3.11719 2.15625 3 2.36719 2.75391C3.01172 1.92188 3.73828 1.61719 5.07422 1.61719H16.0547C17.3906 1.61719 18.1055 1.92188 18.7617 2.75391C18.9609 3 19.207 3.11719 19.4414 3.11719C19.875 3.11719 20.2383 2.82422 20.2383 2.34375C20.2383 1.99219 19.9805 1.62891 19.6523 1.3125C18.6445 0.339844 17.4961 0.0117188 16.0547 0.0117188H5.07422C3.63281 0.0117188 2.47266 0.339844 1.47656 1.3125C1.13672 1.62891 0.890625 1.99219 0.890625 2.34375ZM9.15234 4.35938L6.79688 1.47656H4.61719L6.98438 4.35938H9.15234ZM11.9766 4.35938H14.1445L16.5117 1.47656H14.332L11.9766 4.35938ZM4.57031 26.7891L2.64844 29.8711C2.34375 30.3516 2.625 30.8789 3.17578 30.8789H3.83203C4.16016 30.8789 4.33594 30.7734 4.51172 30.4922L6.80859 26.7891H4.57031ZM14.332 26.7891L16.6289 30.4922C16.8047 30.7734 16.9805 30.8789 17.3086 30.8789H17.9648C18.5156 30.8789 18.7617 30.3398 18.457 29.8711L16.5586 26.7891H14.332Z" fill="black" fill-opacity="0.85"/>
</g>
<defs>
<clipPath id="clip0_2152_15226">
<rect width="21.1289" height="30.8789" fill="white"/>
</clipPath>
</defs>
</svg>
