<svg width="25" height="24" viewBox="0 0 25 24" fill="none" xmlns="http://www.w3.org/2000/svg">
<path d="M1.21875 13.418C1.89844 13.418 2.4375 12.8789 2.4375 12.2109C2.4375 11.5312 1.89844 10.9922 1.21875 10.9922C0.539062 10.9922 0 11.5312 0 12.2109C0 12.8789 0.539062 13.418 1.21875 13.418ZM3.98438 5.20312C4.66406 5.20312 5.20312 4.65234 5.20312 3.98438C5.20312 3.30469 4.66406 2.76562 3.98438 2.76562C3.31641 2.76562 2.76562 3.30469 2.76562 3.98438C2.76562 4.65234 3.31641 5.20312 3.98438 5.20312ZM12.2227 2.4375C12.8906 2.4375 13.4297 1.89844 13.4297 1.21875C13.4297 0.550781 12.8906 0 12.2227 0C11.543 0 11.0039 0.550781 11.0039 1.21875C11.0039 1.89844 11.543 2.4375 12.2227 2.4375ZM20.4492 5.20312C21.1289 5.20312 21.668 4.65234 21.668 3.98438C21.668 3.30469 21.1289 2.76562 20.4492 2.76562C19.7695 2.76562 19.2305 3.30469 19.2305 3.98438C19.2305 4.65234 19.7695 5.20312 20.4492 5.20312ZM23.2266 13.418C23.8945 13.418 24.4336 12.8789 24.4336 12.2109C24.4336 11.5312 23.8945 10.9922 23.2266 10.9922C22.5469 10.9922 22.0078 11.5312 22.0078 12.2109C22.0078 12.8789 22.5469 13.418 23.2266 13.418Z" fill="#007AFF"/>
<path d="M17.9062 21.0938H19.793V12.375C19.793 8.09766 16.4883 4.79297 12.2227 4.79297C7.94531 4.79297 4.66406 8.09766 4.66406 12.375V21.0938H6.55078V12.375C6.55078 9.14062 9 6.67969 12.2227 6.67969C15.457 6.67969 17.9062 9.14062 17.9062 12.375V21.0938ZM21.2227 22.043C21.7383 22.043 22.1836 21.6211 22.1836 21.1055C22.1836 20.5781 21.7383 20.1445 21.2227 20.1445H3.21094C2.69531 20.1445 2.28516 20.5781 2.28516 21.1055C2.28516 21.6211 2.69531 22.043 3.21094 22.043H21.2227ZM13.1719 12.6328C13.1719 12.1172 12.7383 11.6836 12.2227 11.6836C11.707 11.6836 11.2852 12.1172 11.2852 12.6328V21.0938H13.1719V12.6328Z" fill="black" fill-opacity="0.85"/>
</svg>
