<svg width="24" height="24" viewBox="0 0 24 24" fill="none" xmlns="http://www.w3.org/2000/svg">
<path d="M11.9531 23.9062C18.4922 23.9062 23.9062 18.4805 23.9062 11.9531C23.9062 5.41406 18.4805 0 11.9414 0C5.41406 0 0 5.41406 0 11.9531C0 18.4805 5.42578 23.9062 11.9531 23.9062ZM11.9531 21.9141C6.42188 21.9141 2.00391 17.4844 2.00391 11.9531C2.00391 6.42188 6.41016 1.99219 11.9414 1.99219C17.4727 1.99219 21.9141 6.42188 21.9141 11.9531C21.9141 17.4844 17.4844 21.9141 11.9531 21.9141Z" fill="#007AFF"/>
<path d="M7.86328 8.56641C7.86328 10.8984 9.41016 11.4727 9.65625 15.5156C9.67969 15.75 9.80859 15.8906 10.0195 15.8906H13.8398C14.0742 15.8906 14.2148 15.75 14.2266 15.5156C14.4609 11.4727 16.0195 10.957 16.0195 8.625C16.0195 6.51562 14.2148 4.86328 11.9297 4.86328C9.65625 4.86328 7.86328 6.45703 7.86328 8.56641ZM10.1602 17.4492H13.7227C13.9805 17.4492 14.2031 17.2266 14.2031 16.9688C14.2031 16.7109 13.9805 16.5 13.7227 16.5H10.1602C9.90234 16.5 9.69141 16.7109 9.69141 16.9688C9.69141 17.2266 9.90234 17.4492 10.1602 17.4492ZM11.9414 19.0312C12.7852 19.0312 13.4062 18.6445 13.4766 18.0469H10.4062C10.4648 18.6445 11.0977 19.0312 11.9414 19.0312Z" fill="black" fill-opacity="0.85"/>
</svg>
