<svg width="18" height="26" viewBox="0 0 18 26" fill="none" xmlns="http://www.w3.org/2000/svg">
<path d="M3.63281 0C1.20703 0 0 1.24219 0 3.67969V22.2539C0 24.7031 1.20703 25.9219 3.63281 25.9219H13.5469C15.9609 25.9219 17.1797 24.7031 17.1797 22.2539V3.67969C17.1797 1.24219 15.9609 0 13.5469 0H3.63281ZM3.72656 1.88672H13.4414C14.6602 1.88672 15.293 2.54297 15.293 3.71484V22.2188C15.293 23.3906 14.6602 24.0352 13.4414 24.0352H3.72656C2.50781 24.0352 1.88672 23.3906 1.88672 22.2188V3.71484C1.88672 2.54297 2.50781 1.88672 3.72656 1.88672Z" fill="#007AFF"/>
<path d="M4.51172 15.0586C3.77344 15.0586 3.46875 15.3516 3.46875 16.0898V21.4102C3.46875 22.1484 3.77344 22.4414 4.51172 22.4414H12.6094C13.3594 22.4414 13.6641 22.1484 13.6641 21.4102V16.0898C13.6641 15.3516 13.3594 15.0586 12.6094 15.0586H4.51172Z" fill="black" fill-opacity="0.85"/>
</svg>
