<svg width="24" height="24" viewBox="0 0 24 24" fill="none" xmlns="http://www.w3.org/2000/svg">
<path d="M11.9531 23.9062C18.4922 23.9062 23.9062 18.4805 23.9062 11.9531C23.9062 5.41406 18.4805 0 11.9414 0C5.41406 0 0 5.41406 0 11.9531C0 18.4805 5.42578 23.9062 11.9531 23.9062Z" fill="#FFCC00"/>
<path d="M5.88281 8.80078C5.33203 8.80078 4.95703 8.46094 4.95703 7.94531C4.95703 7.42969 5.33203 7.08984 5.88281 7.08984H18.0703C18.6094 7.08984 18.9961 7.42969 18.9961 7.94531C18.9961 8.46094 18.6094 8.80078 18.0703 8.80078H5.88281ZM5.88281 12.8086C5.33203 12.8086 4.95703 12.4688 4.95703 11.9414C4.95703 11.4258 5.33203 11.0859 5.88281 11.0859H18.0703C18.6094 11.0859 18.9961 11.4258 18.9961 11.9414C18.9961 12.4688 18.6094 12.8086 18.0703 12.8086H5.88281ZM5.88281 16.8164C5.33203 16.8164 4.95703 16.4648 4.95703 15.9492C4.95703 15.4453 5.33203 15.1055 5.88281 15.1055H18.0703C18.6094 15.1055 18.9961 15.4453 18.9961 15.9492C18.9961 16.4648 18.6094 16.8164 18.0703 16.8164H5.88281Z" fill="black" fill-opacity="0.85"/>
</svg>
