<svg width="24" height="24" viewBox="0 0 24 24" fill="none" xmlns="http://www.w3.org/2000/svg">
<path d="M11.9531 23.9062C18.4922 23.9062 23.9062 18.4805 23.9062 11.9531C23.9062 5.41406 18.4805 0 11.9414 0C5.41406 0 0 5.41406 0 11.9531C0 18.4805 5.42578 23.9062 11.9531 23.9062ZM11.9531 21.9141C6.42188 21.9141 2.00391 17.4844 2.00391 11.9531C2.00391 6.42188 6.41016 1.99219 11.9414 1.99219C17.4727 1.99219 21.9141 6.42188 21.9141 11.9531C21.9141 17.4844 17.4844 21.9141 11.9531 21.9141Z" fill="#007AFF"/>
<path d="M6.04688 8.89453H17.8828C18.3984 8.89453 18.7734 8.56641 18.7734 8.0625C18.7734 7.57031 18.3984 7.24219 17.8828 7.24219H6.04688C5.51953 7.24219 5.15625 7.57031 5.15625 8.0625C5.15625 8.56641 5.51953 8.89453 6.04688 8.89453ZM6.04688 12.7734H17.8828C18.3984 12.7734 18.7734 12.4453 18.7734 11.9414C18.7734 11.4492 18.3984 11.1211 17.8828 11.1211H6.04688C5.51953 11.1211 5.15625 11.4492 5.15625 11.9414C5.15625 12.4453 5.51953 12.7734 6.04688 12.7734ZM6.04688 16.6641H17.8828C18.3984 16.6641 18.7734 16.3242 18.7734 15.832C18.7734 15.3398 18.3984 15.0117 17.8828 15.0117H6.04688C5.51953 15.0117 5.15625 15.3398 5.15625 15.832C5.15625 16.3242 5.51953 16.6641 6.04688 16.6641Z" fill="black" fill-opacity="0.85"/>
</svg>
