<svg width="22" height="22" viewBox="0 0 22 22" fill="none" xmlns="http://www.w3.org/2000/svg">
<path d="M3.67969 21.5977H17.8945C20.3555 21.5977 21.5742 20.3789 21.5742 17.9648V3.65625C21.5742 1.24219 20.3555 0.0234375 17.8945 0.0234375H3.67969C1.23047 0.0234375 0 1.23047 0 3.65625V17.9648C0 20.3906 1.23047 21.5977 3.67969 21.5977Z" fill="#FFCC00"/>
<path d="M6.38672 15.7734C6.38672 15.375 6.57422 15.1289 7.01953 14.9883C7.83984 14.7539 8.54297 14.0391 8.66016 12.9727C8.67188 12.832 8.68359 12.7031 8.67188 12.5742H7.08984C6.70312 12.5742 6.42188 12.3047 6.42188 11.918C6.42188 11.5312 6.70312 11.2734 7.08984 11.2734H8.48438C8.40234 10.9219 8.29688 10.582 8.21484 10.2305H7.08984C6.70312 10.2305 6.42188 9.96094 6.42188 9.57422C6.42188 9.1875 6.70312 8.92969 7.08984 8.92969H8.01562C8.00391 8.83594 7.99219 8.76562 7.99219 8.67188C7.99219 6.38672 9.52734 4.94531 12.0117 4.94531C12.75 4.94531 13.4414 5.02734 14.0156 5.26172C14.4375 5.42578 14.5898 5.68359 14.5898 6C14.5898 6.39844 14.3672 6.65625 13.8984 6.63281C13.5234 6.58594 12.9961 6.375 12.1055 6.375C10.5117 6.375 9.57422 7.26562 9.57422 8.56641C9.57422 8.69531 9.58594 8.8125 9.59766 8.92969H13.1016C13.5 8.92969 13.7812 9.1875 13.7812 9.57422C13.7812 9.96094 13.5 10.2305 13.1016 10.2305H9.82031C9.90234 10.5703 9.99609 10.9102 10.0898 11.2734H13.1016C13.5 11.2734 13.7812 11.5312 13.7812 11.918C13.7812 12.3047 13.5 12.5742 13.1016 12.5742H10.2188C10.2188 12.7617 10.207 12.9375 10.1836 13.1133C10.0664 13.9102 9.71484 14.6484 9.1875 15.0703H14.4141C14.8477 15.0703 15.1523 15.3516 15.1523 15.7734C15.1523 16.207 14.8477 16.4883 14.4141 16.4883H7.10156C6.66797 16.4883 6.38672 16.207 6.38672 15.7734Z" fill="black" fill-opacity="0.85"/>
</svg>
