<svg width="24" height="24" viewBox="0 0 24 24" fill="none" xmlns="http://www.w3.org/2000/svg">
<path d="M11.9531 23.9062C18.4922 23.9062 23.9062 18.4805 23.9062 11.9531C23.9062 5.41406 18.4805 0 11.9414 0C5.41406 0 0 5.41406 0 11.9531C0 18.4805 5.42578 23.9062 11.9531 23.9062ZM11.9531 21.9141C6.42188 21.9141 2.00391 17.4844 2.00391 11.9531C2.00391 6.42188 6.41016 1.99219 11.9414 1.99219C17.4727 1.99219 21.9141 6.42188 21.9141 11.9531C21.9141 17.4844 17.4844 21.9141 11.9531 21.9141Z" fill="#007AFF"/>
<path d="M7.67578 16.7812C7.67578 17.1914 7.94531 17.4727 8.36719 17.4727H15.4453C15.8672 17.4727 16.1602 17.1914 16.1602 16.7812C16.1602 16.3711 15.8672 16.1016 15.4453 16.1016H10.3828C10.8867 15.6914 11.2383 14.9766 11.3438 14.2148C11.3672 14.0273 11.3789 13.8516 11.3789 13.6758H14.1797C14.5664 13.6758 14.8359 13.418 14.8359 13.043C14.8359 12.668 14.5664 12.4219 14.1797 12.4219H11.25C11.168 12.0703 11.0742 11.7305 10.9922 11.4023H14.1797C14.5664 11.4023 14.8359 11.1445 14.8359 10.7695C14.8359 10.3945 14.5664 10.1484 14.1797 10.1484H10.7812C10.7695 10.0312 10.7578 9.91406 10.7578 9.79688C10.7578 8.53125 11.6602 7.66406 13.207 7.66406C14.0742 7.66406 14.5898 7.875 14.9531 7.92188C15.3867 7.94531 15.6211 7.6875 15.6211 7.30078C15.6211 6.99609 15.4688 6.75 15.0586 6.58594C14.5078 6.36328 13.8398 6.28125 13.125 6.28125C10.6992 6.28125 9.22266 7.6875 9.22266 9.89062C9.22266 9.98438 9.23438 10.0547 9.24609 10.1484H8.35547C7.98047 10.1484 7.69922 10.3945 7.69922 10.7695C7.69922 11.1445 7.98047 11.4023 8.35547 11.4023H9.44531C9.51562 11.7422 9.62109 12.082 9.70312 12.4219H8.35547C7.98047 12.4219 7.69922 12.668 7.69922 13.043C7.69922 13.418 7.98047 13.6758 8.35547 13.6758H9.89062C9.90234 13.8047 9.89062 13.9219 9.87891 14.0625C9.76172 15.0938 9.08203 15.7969 8.28516 16.0195C7.85156 16.1602 7.67578 16.3945 7.67578 16.7812Z" fill="black" fill-opacity="0.85"/>
</svg>
