<svg width="24" height="24" viewBox="0 0 24 24" fill="none" xmlns="http://www.w3.org/2000/svg">
<path d="M11.9531 23.9062C18.4922 23.9062 23.9062 18.4805 23.9062 11.9531C23.9062 5.41406 18.4805 0 11.9414 0C5.41406 0 0 5.41406 0 11.9531C0 18.4805 5.42578 23.9062 11.9531 23.9062ZM11.9531 21.9141C6.42188 21.9141 2.00391 17.4844 2.00391 11.9531C2.00391 6.42188 6.41016 1.99219 11.9414 1.99219C17.4727 1.99219 21.9141 6.42188 21.9141 11.9531C21.9141 17.4844 17.4844 21.9141 11.9531 21.9141Z" fill="#007AFF"/>
<path d="M9.09375 8.78906H17.8828C18.2812 8.78906 18.5977 8.48439 18.5977 8.08595C18.5977 7.67579 18.2812 7.37109 17.8828 7.37109H9.09375C8.69531 7.37109 8.39062 7.68751 8.39062 8.08595C8.39062 8.47267 8.70703 8.78906 9.09375 8.78906ZM9.09375 16.5469H17.8828C18.2812 16.5469 18.5977 16.2422 18.5977 15.8438C18.5977 15.4336 18.2812 15.1289 17.8828 15.1289H9.09375C8.70703 15.1289 8.39062 15.457 8.39062 15.8438C8.39062 16.2422 8.69531 16.5469 9.09375 16.5469ZM9.09375 12.668H17.8828C18.2812 12.668 18.5977 12.3633 18.5977 11.9648C18.5977 11.5547 18.2812 11.25 17.8828 11.25H9.09375C8.70703 11.25 8.39062 11.5781 8.39062 11.9648C8.39062 12.3516 8.70703 12.668 9.09375 12.668ZM6.26953 9.09375C6.82031 9.09375 7.27734 8.62501 7.27734 8.08595C7.27734 7.52345 6.83203 7.07812 6.26953 7.07812C5.70703 7.07812 5.26172 7.52345 5.26172 8.08595C5.26172 8.63673 5.70703 9.09375 6.26953 9.09375ZM6.26953 12.9727C6.82031 12.9727 7.27734 12.5039 7.27734 11.9648C7.27734 11.4141 6.82031 10.957 6.26953 10.957C5.70703 10.957 5.26172 11.4023 5.26172 11.9648C5.26172 12.5156 5.70703 12.9727 6.26953 12.9727ZM6.26953 16.8516C6.83203 16.8516 7.27734 16.3945 7.27734 15.8438C7.27734 15.293 6.82031 14.8359 6.26953 14.8359C5.70703 14.8359 5.26172 15.2812 5.26172 15.8438C5.26172 16.3945 5.70703 16.8516 6.26953 16.8516Z" fill="black" fill-opacity="0.85"/>
</svg>
