<svg width="20" height="33" viewBox="0 0 20 33" fill="none" xmlns="http://www.w3.org/2000/svg">
<path d="M19.7109 26.0742V8.30859C19.7109 5.84766 18.5039 4.62891 16.0781 4.62891H3.63281C1.20703 4.62891 0 5.84766 0 8.30859V26.0742C0 28.5352 1.20703 29.7539 3.63281 29.7539H16.0781C18.5039 29.7539 19.7109 28.5352 19.7109 26.0742ZM1.88672 26.0508V8.33203C1.88672 7.17188 2.50781 6.51562 3.72656 6.51562H15.9844C17.2031 6.51562 17.8242 7.17188 17.8242 8.33203V26.0508C17.8242 27.2227 17.2031 27.8672 15.9844 27.8672H3.72656C2.50781 27.8672 1.88672 27.2227 1.88672 26.0508Z" fill="black" fill-opacity="0.85"/>
<path d="M6.23438 8.67188H13.4766C14.9062 8.67188 15.9375 7.62891 15.9375 6.15234V4.92188C15.9375 3.43359 14.9062 2.39062 13.4766 2.39062C13.2305 2.39062 12.9961 2.39062 12.75 2.39062L13.6758 3.03516C13.3711 1.26562 11.6953 0 9.85547 0C8.01562 0 6.33984 1.26562 6.03516 3.03516L6.96094 2.39062C6.71484 2.39062 6.48047 2.39062 6.23438 2.39062C4.80469 2.39062 3.77344 3.43359 3.77344 4.92188V6.15234C3.77344 7.62891 4.80469 8.67188 6.23438 8.67188Z" fill="white"/>
<path d="M6.23438 7.3125H13.4766C14.1562 7.3125 14.5664 6.87891 14.5664 6.15234V4.92187C14.5664 4.1953 14.1562 3.76171 13.4766 3.76171H12.3984C12.3164 2.43749 11.2148 1.35938 9.85547 1.35938C8.49609 1.35938 7.39453 2.43749 7.3125 3.76171H6.23438C5.55469 3.76171 5.14453 4.1953 5.14453 4.92187V6.15234C5.14453 6.87891 5.55469 7.3125 6.23438 7.3125ZM9.85547 4.87499C9.29297 4.87499 8.83594 4.40624 8.83594 3.85546C8.83594 3.28124 9.29297 2.82421 9.85547 2.82421C10.418 2.82421 10.875 3.28124 10.875 3.85546C10.875 4.40624 10.418 4.87499 9.85547 4.87499Z" fill="black" fill-opacity="0.85"/>
<path d="M4.91016 22.6641C5.46094 22.6641 5.90625 22.2188 5.90625 21.668C5.90625 21.1172 5.46094 20.6719 4.91016 20.6719C4.37109 20.6719 3.91406 21.1289 3.91406 21.668C3.91406 22.207 4.37109 22.6641 4.91016 22.6641ZM8.03906 22.3945H15.0703C15.4688 22.3945 15.7969 22.0664 15.7969 21.668C15.7969 21.2695 15.4805 20.9414 15.0703 20.9414H8.03906C7.62891 20.9414 7.30078 21.2695 7.30078 21.668C7.30078 22.0664 7.64062 22.3945 8.03906 22.3945Z" fill="black" fill-opacity="0.85"/>
<path d="M4.91016 18.2695C5.46094 18.2695 5.90625 17.8242 5.90625 17.2734C5.90625 16.7227 5.46094 16.2891 4.91016 16.2891C4.35938 16.2891 3.91406 16.7344 3.91406 17.2734C3.91406 17.8242 4.35938 18.2695 4.91016 18.2695ZM8.03906 18.0117H15.0703C15.4805 18.0117 15.7969 17.6836 15.7969 17.2734C15.7969 16.875 15.4805 16.5586 15.0703 16.5586H8.03906C7.62891 16.5586 7.30078 16.875 7.30078 17.2734C7.30078 17.6836 7.62891 18.0117 8.03906 18.0117Z" fill="black" fill-opacity="0.85"/>
<path d="M4.91016 14.1211C5.46094 14.1211 5.90625 13.6758 5.90625 13.125C5.90625 12.5742 5.46094 12.1289 4.91016 12.1289C4.37109 12.1289 3.91406 12.5859 3.91406 13.125C3.91406 13.6641 4.37109 14.1211 4.91016 14.1211ZM8.03906 13.8516H15.0703C15.4688 13.8516 15.7969 13.5234 15.7969 13.125C15.7969 12.7266 15.4688 12.3867 15.0703 12.3867H8.03906C7.64062 12.3867 7.30078 12.7266 7.30078 13.125C7.30078 13.5234 7.64062 13.8516 8.03906 13.8516Z" fill="black" fill-opacity="0.85"/>
</svg>
