<svg width="30" height="18" viewBox="0 0 30 18" fill="none" xmlns="http://www.w3.org/2000/svg">
<path d="M12.5039 16.6054H28.5234C29.0508 16.6054 29.4609 16.1953 29.4609 15.668C29.4609 15.1289 29.0508 14.7188 28.5234 14.7188H12.5039C11.9766 14.7188 11.5664 15.1289 11.5664 15.668C11.5664 16.1953 11.9766 16.6054 12.5039 16.6054Z" fill="#007AFF"/>
<path d="M7.32422 17.1445C8.14453 17.1445 8.80078 16.4766 8.80078 15.668C8.80078 14.8477 8.14453 14.1914 7.32422 14.1914C6.51562 14.1914 5.84766 14.8477 5.84766 15.668C5.84766 16.4766 6.51562 17.1445 7.32422 17.1445Z" fill="black" fill-opacity="0.85"/>
<path d="M9.57422 9.52734H25.5938C26.1211 9.52734 26.5312 9.10547 26.5312 8.57812C26.5312 8.05079 26.1211 7.64062 25.5938 7.64062H9.57422C9.04688 7.64062 8.63672 8.05079 8.63672 8.57812C8.63672 9.10547 9.04688 9.52734 9.57422 9.52734Z" fill="#007AFF"/>
<path d="M4.40625 10.0547C5.21484 10.0547 5.88281 9.39844 5.88281 8.57812C5.88281 7.75781 5.21484 7.10156 4.40625 7.10156C3.58594 7.10156 2.92969 7.75781 2.92969 8.57812C2.92969 9.39844 3.58594 10.0547 4.40625 10.0547Z" fill="black" fill-opacity="0.85"/>
<path d="M6.65625 2.4375H22.6641C23.1914 2.4375 23.6133 2.02734 23.6133 1.5C23.6133 0.960938 23.1914 0.550781 22.6641 0.550781H6.65625C6.11719 0.550781 5.70703 0.960938 5.70703 1.5C5.70703 2.02734 6.11719 2.4375 6.65625 2.4375Z" fill="#007AFF"/>
<path d="M1.47656 2.96484C2.29688 2.96484 2.95312 2.30859 2.95312 1.5C2.95312 0.679688 2.29688 0.0234375 1.47656 0.0234375C0.65625 0.0234375 0 0.679688 0 1.5C0 2.30859 0.65625 2.96484 1.47656 2.96484Z" fill="black" fill-opacity="0.85"/>
</svg>
