<svg width="27" height="27" viewBox="0 0 27 27" fill="none" xmlns="http://www.w3.org/2000/svg">
<path d="M13.0078 1.19531C13.3477 1.19531 13.6055 0.9375 13.6055 0.597656C13.6055 0.257812 13.3477 0 13.0078 0C12.668 0 12.4102 0.257812 12.4102 0.597656C12.4102 0.9375 12.668 1.19531 13.0078 1.19531ZM15.1641 1.39453C15.5039 1.39453 15.7734 1.125 15.7734 0.796875C15.7734 0.457031 15.5039 0.1875 15.1641 0.1875C14.8359 0.1875 14.5664 0.457031 14.5664 0.796875C14.5664 1.125 14.8359 1.39453 15.1641 1.39453ZM17.25 1.94531C17.5898 1.94531 17.8477 1.6875 17.8477 1.34766C17.8477 1.00781 17.5898 0.75 17.25 0.75C16.9102 0.75 16.6523 1.00781 16.6523 1.34766C16.6523 1.6875 16.9102 1.94531 17.25 1.94531ZM19.2188 2.88281C19.5469 2.88281 19.8164 2.61328 19.8164 2.28516C19.8164 1.94531 19.5469 1.67578 19.2188 1.67578C18.8789 1.67578 18.6094 1.94531 18.6094 2.28516C18.6094 2.61328 18.8789 2.88281 19.2188 2.88281ZM20.9883 4.11328C21.3281 4.11328 21.5859 3.85547 21.5859 3.51562C21.5859 3.17578 21.3281 2.91797 20.9883 2.91797C20.6484 2.91797 20.3906 3.17578 20.3906 3.51562C20.3906 3.85547 20.6484 4.11328 20.9883 4.11328ZM22.5234 5.64844C22.8516 5.64844 23.1211 5.37891 23.1211 5.05078C23.1211 4.71094 22.8516 4.44141 22.5234 4.44141C22.1836 4.44141 21.9141 4.71094 21.9141 5.05078C21.9141 5.37891 22.1836 5.64844 22.5234 5.64844ZM23.7656 7.42969C24.1055 7.42969 24.3633 7.16016 24.3633 6.83203C24.3633 6.49219 24.1055 6.22266 23.7656 6.22266C23.4258 6.22266 23.168 6.49219 23.168 6.83203C23.168 7.16016 23.4258 7.42969 23.7656 7.42969ZM24.668 9.38672C25.0078 9.38672 25.2773 9.11719 25.2773 8.77734C25.2773 8.44922 25.0078 8.17969 24.668 8.17969C24.3398 8.17969 24.0703 8.44922 24.0703 8.77734C24.0703 9.11719 24.3398 9.38672 24.668 9.38672ZM25.2305 11.4609C25.5586 11.4609 25.8281 11.2031 25.8281 10.8633C25.8281 10.5234 25.5586 10.2656 25.2305 10.2656C24.8906 10.2656 24.6211 10.5234 24.6211 10.8633C24.6211 11.2031 24.8906 11.4609 25.2305 11.4609ZM25.418 13.5938C25.7461 13.5938 26.0156 13.3359 26.0156 12.9961C26.0156 12.6562 25.7461 12.3984 25.418 12.3984C25.0781 12.3984 24.8086 12.6562 24.8086 12.9961C24.8086 13.3359 25.0781 13.5938 25.418 13.5938ZM25.2305 15.7266C25.5586 15.7266 25.8281 15.4688 25.8281 15.1289C25.8281 14.7891 25.5586 14.5312 25.2305 14.5312C24.8906 14.5312 24.6211 14.7891 24.6211 15.1289C24.6211 15.4688 24.8906 15.7266 25.2305 15.7266ZM24.668 17.8125C25.0078 17.8125 25.2773 17.543 25.2773 17.2031C25.2773 16.875 25.0078 16.6055 24.668 16.6055C24.3398 16.6055 24.0703 16.875 24.0703 17.2031C24.0703 17.543 24.3398 17.8125 24.668 17.8125ZM23.7656 19.7578C24.1055 19.7578 24.3633 19.5 24.3633 19.1602C24.3633 18.8203 24.1055 18.5625 23.7656 18.5625C23.4258 18.5625 23.168 18.8203 23.168 19.1602C23.168 19.5 23.4258 19.7578 23.7656 19.7578ZM22.5234 21.5391C22.8516 21.5391 23.1211 21.2812 23.1211 20.9414C23.1211 20.6016 22.8516 20.3438 22.5234 20.3438C22.1836 20.3438 21.9141 20.6016 21.9141 20.9414C21.9141 21.2812 22.1836 21.5391 22.5234 21.5391ZM20.9883 23.0742C21.3281 23.0742 21.5859 22.8047 21.5859 22.4766C21.5859 22.1367 21.3281 21.8672 20.9883 21.8672C20.6484 21.8672 20.3906 22.1367 20.3906 22.4766C20.3906 22.8047 20.6484 23.0742 20.9883 23.0742ZM19.2188 24.3047C19.5469 24.3047 19.8164 24.0469 19.8164 23.707C19.8164 23.3672 19.5469 23.1094 19.2188 23.1094C18.8789 23.1094 18.6094 23.3672 18.6094 23.707C18.6094 24.0469 18.8789 24.3047 19.2188 24.3047ZM17.25 25.2422C17.5898 25.2422 17.8477 24.9727 17.8477 24.6445C17.8477 24.3047 17.5898 24.0352 17.25 24.0352C16.9102 24.0352 16.6523 24.3047 16.6523 24.6445C16.6523 24.9727 16.9102 25.2422 17.25 25.2422ZM15.1641 25.793C15.5039 25.793 15.7734 25.5352 15.7734 25.1953C15.7734 24.8555 15.5039 24.5977 15.1641 24.5977C14.8359 24.5977 14.5664 24.8555 14.5664 25.1953C14.5664 25.5352 14.8359 25.793 15.1641 25.793ZM13.0078 25.9922C13.3477 25.9922 13.6055 25.7227 13.6055 25.3945C13.6055 25.0547 13.3477 24.7852 13.0078 24.7852C12.668 24.7852 12.4102 25.0547 12.4102 25.3945C12.4102 25.7227 12.668 25.9922 13.0078 25.9922ZM10.8516 25.793C11.1797 25.793 11.4492 25.5352 11.4492 25.1953C11.4492 24.8555 11.1797 24.5977 10.8516 24.5977C10.5117 24.5977 10.2422 24.8555 10.2422 25.1953C10.2422 25.5352 10.5117 25.793 10.8516 25.793ZM8.76562 25.2422C9.10547 25.2422 9.36328 24.9727 9.36328 24.6445C9.36328 24.3047 9.10547 24.0352 8.76562 24.0352C8.42578 24.0352 8.16797 24.3047 8.16797 24.6445C8.16797 24.9727 8.42578 25.2422 8.76562 25.2422ZM6.79688 24.3047C7.13672 24.3047 7.40625 24.0469 7.40625 23.707C7.40625 23.3672 7.13672 23.1094 6.79688 23.1094C6.46875 23.1094 6.19922 23.3672 6.19922 23.707C6.19922 24.0469 6.46875 24.3047 6.79688 24.3047ZM5.02734 23.0742C5.36719 23.0742 5.625 22.8047 5.625 22.4766C5.625 22.1367 5.36719 21.8672 5.02734 21.8672C4.6875 21.8672 4.42969 22.1367 4.42969 22.4766C4.42969 22.8047 4.6875 23.0742 5.02734 23.0742ZM3.49219 21.5391C3.83203 21.5391 4.10156 21.2812 4.10156 20.9414C4.10156 20.6016 3.83203 20.3438 3.49219 20.3438C3.16406 20.3438 2.89453 20.6016 2.89453 20.9414C2.89453 21.2812 3.16406 21.5391 3.49219 21.5391ZM2.25 19.7578C2.58984 19.7578 2.84766 19.5 2.84766 19.1602C2.84766 18.8203 2.58984 18.5625 2.25 18.5625C1.91016 18.5625 1.65234 18.8203 1.65234 19.1602C1.65234 19.5 1.91016 19.7578 2.25 19.7578ZM1.34766 17.8125C1.67578 17.8125 1.94531 17.543 1.94531 17.2031C1.94531 16.875 1.67578 16.6055 1.34766 16.6055C1.00781 16.6055 0.738281 16.875 0.738281 17.2031C0.738281 17.543 1.00781 17.8125 1.34766 17.8125ZM0.785156 15.7266C1.125 15.7266 1.39453 15.4688 1.39453 15.1289C1.39453 14.7891 1.125 14.5312 0.785156 14.5312C0.457031 14.5312 0.1875 14.7891 0.1875 15.1289C0.1875 15.4688 0.457031 15.7266 0.785156 15.7266ZM0.597656 13.5938C0.9375 13.5938 1.20703 13.3359 1.20703 12.9961C1.20703 12.6562 0.9375 12.3984 0.597656 12.3984C0.269531 12.3984 0 12.6562 0 12.9961C0 13.3359 0.269531 13.5938 0.597656 13.5938ZM0.785156 11.4609C1.125 11.4609 1.39453 11.2031 1.39453 10.8633C1.39453 10.5234 1.125 10.2656 0.785156 10.2656C0.457031 10.2656 0.1875 10.5234 0.1875 10.8633C0.1875 11.2031 0.457031 11.4609 0.785156 11.4609ZM1.34766 9.38672C1.67578 9.38672 1.94531 9.11719 1.94531 8.77734C1.94531 8.44922 1.67578 8.17969 1.34766 8.17969C1.00781 8.17969 0.738281 8.44922 0.738281 8.77734C0.738281 9.11719 1.00781 9.38672 1.34766 9.38672ZM2.25 7.42969C2.58984 7.42969 2.84766 7.16016 2.84766 6.83203C2.84766 6.49219 2.58984 6.22266 2.25 6.22266C1.91016 6.22266 1.65234 6.49219 1.65234 6.83203C1.65234 7.16016 1.91016 7.42969 2.25 7.42969ZM3.49219 5.64844C3.83203 5.64844 4.10156 5.37891 4.10156 5.05078C4.10156 4.71094 3.83203 4.44141 3.49219 4.44141C3.16406 4.44141 2.89453 4.71094 2.89453 5.05078C2.89453 5.37891 3.16406 5.64844 3.49219 5.64844ZM5.02734 4.11328C5.36719 4.11328 5.625 3.85547 5.625 3.51562C5.625 3.17578 5.36719 2.91797 5.02734 2.91797C4.6875 2.91797 4.42969 3.17578 4.42969 3.51562C4.42969 3.85547 4.6875 4.11328 5.02734 4.11328ZM6.79688 2.88281C7.13672 2.88281 7.40625 2.61328 7.40625 2.28516C7.40625 1.94531 7.13672 1.67578 6.79688 1.67578C6.46875 1.67578 6.19922 1.94531 6.19922 2.28516C6.19922 2.61328 6.46875 2.88281 6.79688 2.88281ZM8.76562 1.94531C9.10547 1.94531 9.36328 1.6875 9.36328 1.34766C9.36328 1.00781 9.10547 0.75 8.76562 0.75C8.42578 0.75 8.16797 1.00781 8.16797 1.34766C8.16797 1.6875 8.42578 1.94531 8.76562 1.94531ZM10.8516 1.39453C11.1797 1.39453 11.4492 1.125 11.4492 0.796875C11.4492 0.457031 11.1797 0.1875 10.8516 0.1875C10.5117 0.1875 10.2422 0.457031 10.2422 0.796875C10.2422 1.125 10.5117 1.39453 10.8516 1.39453Z" fill="black" fill-opacity="0.85"/>
<path d="M13.0078 22.4531C18.2344 22.4531 22.4766 18.2344 22.4766 12.9961C22.4766 7.79297 18.2109 3.52734 13.0078 3.52734C7.75781 3.52734 3.53906 7.75781 3.53906 12.9961C3.53906 18.2578 7.74609 22.4531 13.0078 22.4531ZM13.0078 21.3164C8.36719 21.3164 4.6875 17.6367 4.6875 12.9961C4.6875 8.39062 8.40234 4.67578 13.0078 4.67578C17.6016 4.67578 21.3281 8.40234 21.3281 12.9961C21.3281 17.6016 17.6133 21.3164 13.0078 21.3164Z" fill="black" fill-opacity="0.85"/>
<path d="M10.2188 16.1133C10.2188 16.8047 10.6523 17.0273 11.3203 16.6406L16.6289 13.6055C17.2148 13.2656 17.2148 12.75 16.6289 12.4219L11.3203 9.3633C10.6641 8.9883 10.2188 9.19924 10.2188 9.89064V16.1133Z" fill="black" fill-opacity="0.85"/>
</svg>
