<svg width="33" height="31" viewBox="0 0 33 31" fill="none" xmlns="http://www.w3.org/2000/svg">
<path d="M19.9703 30.1522C28.3844 30.1522 32.5445 22.5585 32.5445 18.4335C32.5445 16.9687 30.7516 16.9218 30.5875 18.2811C29.9898 23.2733 26.0406 26.7772 21.6695 26.7772C17.0758 26.7772 13.443 23.4257 13.443 19.1132C13.443 14.8944 16.3375 10.4999 20.5445 10.4999C21.7984 10.4999 21.7867 11.2733 23.2633 11.2733C25.3141 11.2733 29.7906 8.14447 29.7906 5.8476C29.7906 4.3476 27.4703 3.43353 23.732 3.43353C21.0602 3.43353 20.0992 4.1015 19.9234 5.34369C19.7828 6.25775 19.2906 6.74994 18.3883 6.74994C11.943 6.74994 6.75156 11.7421 6.75156 18.1522C6.75156 25.2069 12.1891 30.1522 19.9703 30.1522ZM11.2281 5.39056C10.8648 6.10541 11.0523 6.93744 11.7555 7.3476L13.6187 8.43744L17.0523 7.17182L13.5484 5.51947L13.9703 3.77338L16.3023 3.36322C17.2633 3.18744 16.982 1.60541 15.7984 1.98041C15.2477 2.15619 14.8492 1.60541 15.1539 1.11322C15.693 0.187438 14.1227 -0.457093 13.818 0.468688C13.6305 1.00775 13.0211 1.08978 12.7516 0.503844C12.2828 -0.480531 10.8531 0.175719 11.4156 1.11322L12.482 2.89447L11.2281 5.39056ZM17.0172 15.9374L19.8062 16.1015L20.8258 17.9296C21.3414 18.8788 22.7359 17.8944 22.0328 17.1327C21.6344 16.6874 22.0211 16.0546 22.5719 16.1718C23.5328 16.371 23.7672 14.6718 22.6891 14.6835C22.1031 14.6835 21.8219 14.0741 22.2437 13.6874C23.1812 12.8437 21.9508 11.8241 21.3062 12.5624L19.7828 14.3671L18.0836 13.8749L18.3883 10.0194L15.5758 12.3397L15.5875 14.5077C15.5875 15.328 16.2203 15.9022 17.0172 15.9374ZM4.39609 20.4257L2.87265 22.7694L0.774995 22.7226C-0.338286 22.6991 -0.185942 24.2811 0.810152 24.1757C1.41953 24.1288 1.79453 24.703 1.41953 25.1249C0.72812 25.8632 2.11093 26.953 2.65 25.9687C2.94296 25.4413 3.61093 25.5116 3.73984 26.0741C4.02109 27.3515 5.53281 26.789 5.19296 25.828L4.38437 23.6132L5.66171 22.3827L8.80234 24.539L8.18125 20.9413L6.36484 19.9101C5.63828 19.4999 4.82968 19.746 4.39609 20.4257ZM16.982 19.2538C16.3023 18.8202 15.4703 18.9257 14.9781 19.5819L13.7008 21.3163L14.6148 24.8554L16.6305 21.5507L18.3062 22.1601L18.4586 24.5155C18.5406 25.4999 20.1578 25.371 19.8883 24.1522C19.7711 23.5897 20.3687 23.2499 20.8375 23.6132C21.7047 24.2577 22.5016 22.7226 21.5992 22.3358C21.0719 22.1015 21.1422 21.2811 21.7516 21.2343C22.7594 21.1991 22.1969 19.4179 21.2242 19.8866L19.3258 20.7772L16.982 19.2538Z" fill="black" fill-opacity="0.85"/>
</svg>
