<svg width="24" height="24" viewBox="0 0 24 24" fill="none" xmlns="http://www.w3.org/2000/svg">
<path d="M11.9531 23.9062C18.4922 23.9062 23.9062 18.4805 23.9062 11.9531C23.9062 5.41406 18.4805 0 11.9414 0C5.41406 0 0 5.41406 0 11.9531C0 18.4805 5.42578 23.9062 11.9531 23.9062ZM11.9531 21.9141C6.42188 21.9141 2.00391 17.4844 2.00391 11.9531C2.00391 6.42188 6.41016 1.99219 11.9414 1.99219C17.4727 1.99219 21.9141 6.42188 21.9141 11.9531C21.9141 17.4844 17.4844 21.9141 11.9531 21.9141Z" fill="#007AFF"/>
<path d="M12.9022 18.3634C16.6991 18.3634 18.5741 14.9415 18.5741 13.0782C18.5741 12.422 17.7772 12.3985 17.6952 13.0079C17.414 15.2579 15.6444 16.8517 13.664 16.8517C12.4687 16.8517 11.4022 16.336 10.7343 15.5274L11.3788 14.4962L12.1405 14.7657L12.1991 15.8204C12.246 16.2657 12.9491 16.2071 12.8437 15.6681C12.7851 15.4103 13.0663 15.2579 13.289 15.422C13.664 15.7149 14.0155 15.0353 13.6171 14.8595C13.371 14.754 13.4179 14.4376 13.6874 14.3439C14.121 14.2032 13.8866 13.547 13.4647 13.7579L12.6093 14.1446L11.5311 13.4532C11.2382 13.254 10.8515 13.3126 10.6405 13.5939L10.078 14.3556C9.99597 14.0509 9.93738 13.7228 9.93738 13.3946C9.93738 12.3868 10.3007 11.3673 10.9101 10.6173L10.9218 11.297C10.9218 11.672 11.203 11.9181 11.5546 11.9415L12.8202 12.0001L13.2772 12.8439C13.5116 13.2657 14.0858 12.8673 13.828 12.4923C13.6522 12.2579 13.8163 11.9884 14.0741 12.047C14.496 12.129 14.6015 11.379 14.121 11.3907C13.8515 11.3907 13.7226 11.1095 13.9218 10.9103C14.3319 10.547 13.7811 10.0899 13.5116 10.4298L12.8085 11.2384L12.0351 11.0157L12.1405 9.67976C12.4569 9.56257 12.7851 9.49226 13.1483 9.49226C13.7343 9.49226 13.7226 9.84382 14.3788 9.84382C15.3046 9.84382 17.3202 8.43757 17.3202 7.3946C17.3202 6.72663 16.2772 6.30476 14.6015 6.30476C13.3944 6.30476 12.9608 6.62116 12.8788 7.17195C12.8319 7.59382 12.5976 7.81648 12.1874 7.81648C11.8944 7.81648 11.6015 7.83991 11.3202 7.87507L10.0077 7.24226L10.1718 6.4571L11.2382 6.2696C11.6718 6.19929 11.5429 5.48445 11.0272 5.66023C10.7577 5.74226 10.5819 5.49616 10.7108 5.26179C10.9569 4.85163 10.2538 4.55866 10.1249 4.96882C10.0429 5.22663 9.72644 5.21491 9.60926 4.9571C9.42176 4.54695 8.78894 4.83991 9.04676 5.26179L9.52722 6.07038L8.96472 7.19538C8.80066 7.50007 8.87097 7.88679 9.1991 8.06257L9.73816 8.39069C8.0741 9.24616 6.93738 10.9337 6.93738 12.9493C6.93738 13.2892 6.97254 13.5939 7.03113 13.9103L6.74988 13.7462C6.43347 13.5704 6.07019 13.6759 5.87097 13.9923L5.19129 15.0353L4.24207 15.0235C3.73816 15.0118 3.80847 15.7149 4.2655 15.6681C4.54676 15.6329 4.71082 15.9142 4.52332 16.1017C4.21863 16.4415 4.83972 16.922 5.08582 16.4767C5.203 16.2423 5.51941 16.2657 5.578 16.5235C5.69519 17.0978 6.3866 16.8517 6.22254 16.4181L5.85926 15.422L6.44519 14.8595L7.66394 15.6915C8.62488 17.3439 10.5233 18.3634 12.9022 18.3634Z" fill="black" fill-opacity="0.85"/>
</svg>
