<svg width="33" height="32" viewBox="0 0 33 32" fill="none" xmlns="http://www.w3.org/2000/svg">
<path d="M19.9586 31.1366C28.7008 31.1366 32.4742 23.2968 32.4742 18.9257C32.4742 17.4726 30.7281 17.4374 30.5641 18.7616C29.9781 23.5546 25.8297 26.7304 21.6578 26.7304C17.2516 26.7304 13.9469 23.6718 13.9469 19.5819C13.9469 15.5155 17.0289 11.0741 20.3687 11.0741C21.1422 11.0741 21.5055 12.5507 23.4742 12.5507C25.6422 12.5507 30.8102 8.84756 30.4117 6.31632C30.0836 4.32413 27.5641 3.11709 23.1344 3.11709C20.6617 3.11709 19.5016 4.32413 19.4664 5.74209C19.4312 6.48037 19.068 6.70303 18.3766 6.70303C11.65 6.70303 6.22421 11.9179 6.22421 18.621C6.22421 25.9804 11.9078 31.1366 19.9586 31.1366ZM19.9586 29.3671C12.6578 29.3671 7.99375 25.1249 7.99375 18.621C7.99375 12.7499 12.4352 8.47257 18.3766 8.47257C19.9 8.47257 21.1539 7.52334 21.2008 5.98818C21.2242 5.44912 21.5406 4.86318 23.1344 4.86318C26.5328 4.86318 28.4547 5.42568 28.6422 6.31632C28.982 7.94522 25.0094 10.7811 23.4742 10.7811C22.2789 10.7811 22.1148 9.42178 20.4039 9.42178C15.6109 9.42178 12.1773 14.7655 12.1773 19.5819C12.1773 24.5976 16.3844 28.4999 21.6578 28.4999C23.6969 28.4999 25.6422 27.6796 27.0484 26.3319C25.5133 27.9257 23.193 29.3671 19.9586 29.3671ZM11.2281 5.88272C10.8648 6.59757 11.0523 7.42959 11.7555 7.83975L13.5836 8.90615L17.0523 7.66397L13.5484 6.01163L13.9703 4.26553L16.3023 3.85538C17.2633 3.67959 16.982 2.09757 15.7984 2.47257C15.2477 2.64835 14.8492 2.09757 15.1539 1.60538C15.693 0.679593 14.1227 0.0350613 13.818 0.960843C13.6305 1.49991 13.0211 1.58194 12.7516 0.995999C12.2828 0.0116239 10.8531 0.667874 11.4273 1.62882L12.482 3.38663L11.2281 5.88272ZM17.0172 16.664L19.8062 16.8163L20.8141 18.6327C21.3414 19.6054 22.7359 18.6093 22.0328 17.8593C21.6344 17.414 22.0211 16.7811 22.5719 16.8983C23.5328 17.0976 23.7672 15.3983 22.6891 15.4101C22.1031 15.4101 21.8219 14.8007 22.2437 14.414C23.1812 13.5702 21.9508 12.5507 21.3062 13.289L19.7828 15.0937L18.0836 14.6015L18.3766 10.8397L15.5758 13.0663L15.5875 15.2343C15.5875 16.0546 16.2203 16.6288 17.0172 16.664ZM4.39609 20.9179L2.87265 23.2616L0.774995 23.2147C-0.338286 23.1913 -0.185942 24.7733 0.810152 24.6679C1.41953 24.621 1.79453 25.1952 1.41953 25.6171C0.72812 26.3554 2.09921 27.4452 2.65 26.4608C2.94296 25.9335 3.61093 26.0038 3.73984 26.5663C4.03281 27.8437 5.53281 27.2811 5.19296 26.3202L4.38437 24.1054L5.66171 22.8749L8.80234 25.0311L8.06406 21.3749L6.36484 20.4022C5.63828 19.9921 4.82968 20.2382 4.39609 20.9179ZM16.982 19.746C16.3023 19.3124 15.4703 19.4179 14.9781 20.0741L13.7008 21.8085L14.6852 25.2421L16.6305 22.0429L18.3062 22.6522L18.4586 25.0077C18.5406 25.9921 20.1578 25.8632 19.8883 24.6444C19.7711 24.0819 20.3687 23.7421 20.8375 24.1054C21.7047 24.7499 22.5016 23.2147 21.5992 22.828C21.0719 22.5937 21.1422 21.7733 21.7516 21.7265C22.7594 21.6913 22.1969 19.9101 21.1891 20.3905L19.3258 21.2694L16.982 19.746Z" fill="black" fill-opacity="0.85"/>
</svg>
