<svg width="24" height="24" viewBox="0 0 24 24" fill="none" xmlns="http://www.w3.org/2000/svg">
<path d="M11.9531 23.9062C18.4922 23.9062 23.9062 18.4805 23.9062 11.9531C23.9062 5.41406 18.4805 0 11.9414 0C5.41406 0 0 5.41406 0 11.9531C0 18.4805 5.42578 23.9062 11.9531 23.9062ZM11.9531 21.9141C6.42188 21.9141 2.00391 17.4844 2.00391 11.9531C2.00391 6.42188 6.41016 1.99219 11.9414 1.99219C17.4727 1.99219 21.9141 6.42188 21.9141 11.9531C21.9141 17.4844 17.4844 21.9141 11.9531 21.9141Z" fill="#007AFF"/>
<path d="M6.5744 17.004C6.26971 17.7657 7.10174 18.422 7.8283 17.6954L11.6369 13.8751C11.8244 13.6993 12.0471 13.6993 12.2346 13.8751L16.0432 17.6954C16.7697 18.422 17.6018 17.7657 17.2971 17.004L12.7619 5.46101C12.4572 4.66413 11.4143 4.67585 11.0979 5.48445L6.5744 17.004Z" fill="black" fill-opacity="0.85"/>
</svg>
