<svg width="24" height="24" viewBox="0 0 24 24" fill="none" xmlns="http://www.w3.org/2000/svg">
<path d="M11.9531 23.9062C18.4922 23.9062 23.9062 18.4805 23.9062 11.9531C23.9062 5.41406 18.4805 0 11.9414 0C5.41406 0 0 5.41406 0 11.9531C0 18.4805 5.42578 23.9062 11.9531 23.9062ZM11.9531 21.9141C6.42188 21.9141 2.00391 17.4844 2.00391 11.9531C2.00391 6.42188 6.41016 1.99219 11.9414 1.99219C17.4727 1.99219 21.9141 6.42188 21.9141 11.9531C21.9141 17.4844 17.4844 21.9141 11.9531 21.9141Z" fill="#007AFF"/>
<path d="M5.51964 12.9374L10.4298 12.9491C10.6524 12.9491 10.8048 13.0897 10.8048 13.3241V18.1757C10.8048 19.2187 11.9063 19.3241 12.2579 18.5741L17.461 7.4765C17.8946 6.57416 17.1095 5.80072 16.1954 6.23432L5.13292 11.4843C4.3712 11.8476 4.48839 12.9374 5.51964 12.9374Z" fill="black" fill-opacity="0.85"/>
<path d="M16.6503 18.5742C17.1894 19.1016 18.0566 19.1133 18.5722 18.5742C19.123 18.0352 19.1113 17.2031 18.5722 16.6641L7.22852 5.32031C6.68946 4.78125 5.83399 4.78125 5.30664 5.32031C4.76758 5.84766 4.76758 6.71484 5.30664 7.24219L16.6503 18.5742Z" fill="white"/>
<path d="M17.2398 18C17.439 18.1992 17.7906 18.1992 17.9898 18C18.2007 17.7773 18.2007 17.4609 17.9898 17.25L6.65775 5.90625C6.44681 5.69531 6.10697 5.69531 5.89603 5.90625C5.68509 6.10547 5.69681 6.45703 5.89603 6.65625L17.2398 18Z" fill="black" fill-opacity="0.85"/>
</svg>
