<svg width="24" height="24" viewBox="0 0 24 24" fill="none" xmlns="http://www.w3.org/2000/svg">
<path d="M11.9531 23.9062C18.4922 23.9062 23.9062 18.4805 23.9062 11.9531C23.9062 5.41406 18.4805 0 11.9414 0C5.41406 0 0 5.41406 0 11.9531C0 18.4805 5.42578 23.9062 11.9531 23.9062Z" fill="#FFCC00"/>
<path d="M5.34474 12.9492C4.29005 12.9492 4.16115 11.8242 4.9463 11.4492L16.3604 6.03518C17.3096 5.58986 18.1065 6.38675 17.6729 7.32425L12.3057 18.7617C11.9424 19.5352 10.794 19.4297 10.794 18.3516V13.3477C10.794 13.1133 10.6416 12.9609 10.4072 12.9609L5.34474 12.9492Z" fill="black" fill-opacity="0.85"/>
</svg>
