<svg width="23" height="24" viewBox="0 0 23 24" fill="none" xmlns="http://www.w3.org/2000/svg">
<path d="M0 9.35156C0 14.5078 4.19531 18.7031 9.35156 18.7031C11.3906 18.7031 13.2539 18.0469 14.7891 16.9453L20.5547 22.7227C20.8242 22.9922 21.1758 23.1211 21.5508 23.1211C22.3477 23.1211 22.8984 22.5234 22.8984 21.7383C22.8984 21.3633 22.7578 21.0234 22.5117 20.7773L16.7812 15.0117C17.9883 13.4414 18.7031 11.4844 18.7031 9.35156C18.7031 4.19531 14.5078 0 9.35156 0C4.19531 0 0 4.19531 0 9.35156ZM2.00391 9.35156C2.00391 5.29688 5.29688 2.00391 9.35156 2.00391C13.4062 2.00391 16.6992 5.29688 16.6992 9.35156C16.6992 13.4062 13.4062 16.6992 9.35156 16.6992C5.29688 16.6992 2.00391 13.4062 2.00391 9.35156ZM4.98047 10.0195H8.36719C8.51953 10.0195 8.61328 10.125 8.61328 10.2773L8.625 13.6172C8.625 14.3438 9.38672 14.4141 9.62109 13.8984L13.207 6.25781C13.5 5.625 12.9727 5.09766 12.3398 5.39062L4.71094 9.01172C4.18359 9.25781 4.27734 10.0195 4.98047 10.0195Z" fill="black" fill-opacity="0.85"/>
</svg>
