<svg width="24" height="26" viewBox="0 0 24 26" fill="none" xmlns="http://www.w3.org/2000/svg">
<path d="M0.995567 10.4561C-0.62162 11.2061 -0.164589 13.374 1.61666 13.3857L10.1479 13.4209C10.2885 13.4209 10.3237 13.4561 10.3237 13.5967L10.3471 22.0693C10.3588 23.9209 12.5737 24.249 13.3588 22.5498L22.0073 3.92872C22.8159 2.19435 21.4448 0.963875 19.7338 1.77247L0.995567 10.4561ZM3.04635 11.5576C2.99947 11.5576 2.98775 11.5107 3.03463 11.4873L19.8862 3.77638C19.9565 3.74122 20.0034 3.76466 19.9565 3.85841L12.2104 20.6865C12.187 20.7334 12.1518 20.7217 12.1518 20.6748L12.1987 12.3896C12.1987 11.874 11.8471 11.5107 11.3081 11.5107L3.04635 11.5576Z" fill="#007AFF"/>
<path d="M20.0029 21.917C20.8935 22.8076 22.3466 22.8076 23.2255 21.8936C24.081 21.0146 24.0927 19.5967 23.2138 18.7061L5.16699 0.65918C4.28809 -0.219727 2.82324 -0.219727 1.94434 0.65918C1.06543 1.53809 1.06543 3.00293 1.94434 3.88184L20.0029 21.917Z" fill="white"/>
<path d="M20.9658 20.9561C21.3174 21.3076 21.9033 21.3076 22.2432 20.9561C22.583 20.6045 22.5947 20.0303 22.2432 19.6787L4.19629 1.63184C3.85644 1.28027 3.2705 1.28027 2.90722 1.63184C2.56738 1.97168 2.56738 2.56934 2.90722 2.90918L20.9658 20.9561Z" fill="black" fill-opacity="0.85"/>
</svg>
