<svg width="24" height="26" viewBox="0 0 24 26" fill="none" xmlns="http://www.w3.org/2000/svg">
<path d="M1.54974 13.2568L10.0927 13.292C10.2685 13.292 10.3271 13.3506 10.3271 13.5264L10.3505 21.999C10.3505 23.7451 12.4482 24.1553 13.2333 22.4561L21.8935 3.83493C22.6786 2.12399 21.331 0.998996 19.6904 1.76071L0.9638 10.4443C-0.5362 11.1357 -0.243231 13.2451 1.54974 13.2568Z" fill="#007AFF"/>
<path d="M19.9238 21.917C20.8262 22.8076 22.2793 22.8076 23.1465 21.8936C24.0137 21.0146 24.0137 19.5967 23.1348 18.7061L5.09961 0.65918C4.2207 -0.219727 2.75586 -0.219727 1.86523 0.65918C0.998048 1.53809 0.998048 3.00293 1.86523 3.88184L19.9238 21.917Z" fill="white"/>
<path d="M20.8955 20.9561C21.2471 21.3076 21.833 21.3076 22.1728 20.9561C22.5127 20.6045 22.5244 20.0303 22.1728 19.6787L4.12597 1.63184C3.77441 1.28027 3.18847 1.28027 2.83691 1.63184C2.49707 1.97168 2.49707 2.56934 2.83691 2.90918L20.8955 20.9561Z" fill="black" fill-opacity="0.85"/>
</svg>
