<svg width="24" height="24" viewBox="0 0 24 24" fill="none" xmlns="http://www.w3.org/2000/svg">
<path d="M11.9531 23.918C18.4922 23.918 23.9062 18.5039 23.9062 11.9648C23.9062 5.4375 18.4805 0.0117188 11.9414 0.0117188C5.41406 0.0117188 0 5.4375 0 11.9648C0 18.5039 5.42578 23.918 11.9531 23.918Z" fill="#FFCC00"/>
<path d="M6.4107 17.1914L11.0747 5.3086C11.4028 4.48829 12.4927 4.46485 12.8208 5.28517L17.4849 17.1914C17.8013 17.9766 16.9341 18.6562 16.1958 17.918L12.2583 13.9805C12.0708 13.7812 11.8364 13.7812 11.6489 13.9805L7.71148 17.918C6.96148 18.6562 6.09429 17.9766 6.4107 17.1914Z" fill="black" fill-opacity="0.85"/>
</svg>
