<svg width="22" height="22" viewBox="0 0 22 22" fill="none" xmlns="http://www.w3.org/2000/svg">
<path d="M3.67969 21.5977H17.8945C20.3555 21.5977 21.5742 20.3789 21.5742 17.9648V3.65625C21.5742 1.24219 20.3555 0.0234375 17.8945 0.0234375H3.67969C1.23047 0.0234375 0 1.23047 0 3.65625V17.9648C0 20.3906 1.23047 21.5977 3.67969 21.5977Z" fill="#FFCC00"/>
<path d="M4.42967 11.8008C3.37498 11.8008 3.25779 10.6641 4.03123 10.3008L15.4453 4.87496C16.3945 4.42965 17.1914 5.23824 16.7578 6.17574L11.3906 17.6016C11.0273 18.3867 9.8906 18.2812 9.8906 17.1914L9.87889 12.1992C9.87889 11.9648 9.72654 11.8008 9.50389 11.8008H4.42967Z" fill="black" fill-opacity="0.85"/>
</svg>
