<svg width="17" height="26" viewBox="0 0 17 26" fill="none" xmlns="http://www.w3.org/2000/svg">
<path d="M0 17.2852C0 19.1016 0.714844 20.4375 2.03906 21.1641C2.68359 21.5039 3.05859 21.9375 3.29297 22.7227L3.66797 23.9766C3.89062 24.7266 4.41797 25.0898 5.20312 25.0898H10.6172C11.4258 25.0898 11.918 24.7383 12.1406 23.9766L12.5273 22.7227C12.7617 21.9375 13.1367 21.5039 13.7812 21.1641C15.1055 20.4375 15.8203 19.1016 15.8203 17.2852V7.80469C15.8203 5.98828 15.1055 4.66406 13.7812 3.92578C13.1367 3.58594 12.7617 3.15234 12.5273 2.37891L12.1406 1.11328C11.9414 0.375 11.4141 0 10.6172 0H5.20312C4.41797 0 3.89062 0.363281 3.66797 1.11328L3.29297 2.37891C3.07031 3.14062 2.69531 3.59766 2.03906 3.92578C0.726562 4.62891 0 5.96484 0 7.80469V17.2852ZM1.71094 17.0391V8.0625C1.71094 6.31641 2.73047 5.26172 4.44141 5.26172H11.3789C13.0898 5.26172 14.1094 6.31641 14.1094 8.0625V17.0391C14.1094 18.7734 13.0898 19.8281 11.3789 19.8281H4.44141C2.73047 19.8281 1.71094 18.7734 1.71094 17.0391ZM15.5625 11.7188H15.9844C16.5938 11.7188 16.9922 11.3086 16.9922 10.6406V9.05859C16.9922 8.39062 16.5938 7.98047 15.9844 7.98047H15.5625V11.7188Z" fill="#007AFF"/>
<path d="M3.72656 15.5156C3.72656 16.1836 4.05469 16.5234 4.6875 16.5234H8.67188C9.30469 16.5234 9.63281 16.1836 9.63281 15.5156V12.457C9.63281 11.7891 9.30469 11.4609 8.67188 11.4609H4.6875C4.05469 11.4609 3.72656 11.7891 3.72656 12.457V15.5156ZM7.76953 12.1406H8.92969V10.4648C8.92969 9.59766 9.39844 9.03516 10.1953 9.03516C10.9922 9.03516 11.4609 9.59766 11.4609 10.4648V11.2969C11.4609 11.625 11.7188 11.8828 12.0469 11.8828C12.3516 11.8828 12.6211 11.625 12.6211 11.2969V10.4648C12.6211 8.98828 11.6602 7.91016 10.1953 7.91016C8.71875 7.91016 7.76953 8.98828 7.76953 10.5703V12.1406Z" fill="black" fill-opacity="0.85"/>
</svg>
