<svg width="28" height="25" viewBox="0 0 28 25" fill="none" xmlns="http://www.w3.org/2000/svg">
<path d="M2.69531 20.2734H25.2305C26.918 20.2734 27.9375 19.2539 27.9375 17.5664V3.51562C27.9375 1.82812 26.918 0.820312 25.2305 0.820312H2.69531C1.01953 0.820312 0 1.82812 0 3.51562V17.5664C0 19.2539 1.01953 20.2734 2.69531 20.2734ZM2.39062 15.1055C2.03906 15.1055 1.88672 14.9766 1.88672 14.6016V3.55078C1.88672 3.02344 2.21484 2.70703 2.73047 2.70703H25.207C25.7227 2.70703 26.0508 3.02344 26.0508 3.55078V14.6016C26.0508 14.9766 25.8867 15.1055 25.5352 15.1055H2.39062ZM10.2656 23.0625H17.6719V20.1211H10.2656V23.0625ZM10.1953 24.4336H17.7422C18.2578 24.4336 18.6797 24.0117 18.6797 23.4844C18.6797 22.957 18.2578 22.5352 17.7422 22.5352H10.1953C9.67969 22.5352 9.24609 22.957 9.24609 23.4844C9.24609 24.0117 9.67969 24.4336 10.1953 24.4336Z" fill="#007AFF"/>
<path d="M11.9883 12.9961H15.9609C16.5938 12.9961 16.9102 12.668 16.9102 12V8.95312C16.9102 8.42578 16.7109 8.12109 16.3359 7.99219V7.19531C16.3359 5.61328 15.375 4.53516 13.9805 4.53516C12.5742 4.53516 11.625 5.61328 11.625 7.19531V8.00391C11.2383 8.12109 11.0391 8.42578 11.0391 8.95312V12C11.0391 12.668 11.3555 12.9961 11.9883 12.9961ZM12.7852 7.94531V7.08984C12.7852 6.22266 13.2422 5.67188 13.9805 5.67188C14.6953 5.67188 15.1758 6.22266 15.1758 7.08984V7.94531H12.7852Z" fill="black" fill-opacity="0.85"/>
</svg>
