<svg width="29" height="30" viewBox="0 0 29 30" fill="none" xmlns="http://www.w3.org/2000/svg">
<path d="M8.41406 13.4766H19.9102C20.9531 13.4766 21.5625 12.8906 21.5625 11.8594V3.48047C21.5625 2.44922 20.9531 1.85156 19.9102 1.85156H8.41406C7.37109 1.85156 6.76172 2.44922 6.76172 3.48047V11.8594C6.76172 12.8906 7.37109 13.4766 8.41406 13.4766Z" fill="#007AFF"/>
<path d="M6.63281 21.9727H21.7031C24.0352 21.9727 25.5703 20.4492 25.5703 18.1406V7.18359C25.5703 4.86328 24.0352 3.35156 21.7031 3.35156H6.63281C4.30078 3.35156 2.75391 4.86328 2.75391 7.18359V18.1406C2.75391 20.4492 4.30078 21.9727 6.63281 21.9727Z" fill="white"/>
<path d="M6.50391 20.3789H21.832C23.2031 20.3789 23.9766 19.6172 23.9766 18.2695V7.05469C23.9766 5.70703 23.2031 4.94531 21.832 4.94531H6.50391C5.13281 4.94531 4.34766 5.70703 4.34766 7.05469V18.2695C4.34766 19.6172 5.13281 20.3789 6.50391 20.3789Z" fill="#007AFF"/>
<path d="M5.56641 29.6836H22.7578C26.25 29.6836 28.3242 27.6328 28.3242 24.1641V12.1289C28.3242 8.66015 26.25 6.60938 22.7578 6.60938H5.56641C2.07422 6.60938 0 8.66015 0 12.1289V24.1641C0 27.6328 2.07422 29.6836 5.56641 29.6836Z" fill="white"/>
<path d="M5.56641 27.7969H22.7578C25.207 27.7969 26.4375 26.5781 26.4375 24.1641V12.1289C26.4375 9.71484 25.207 8.49609 22.7578 8.49609H5.56641C3.11719 8.49609 1.88672 9.71484 1.88672 12.1289V24.1641C1.88672 26.5781 3.11719 27.7969 5.56641 27.7969ZM5.60156 25.9102C4.42969 25.9102 3.77344 25.2773 3.77344 24.0586V12.2344C3.77344 11.0156 4.42969 10.3828 5.60156 10.3828H22.7344C23.8828 10.3828 24.5508 11.0156 24.5508 12.2344V24.0586C24.5508 25.2773 23.8828 25.9102 22.7344 25.9102H5.60156Z" fill="#007AFF"/>
<path d="M9.9375 22.7695C9.9375 23.6484 10.3242 24.0586 11.1328 24.0586H17.2031C18.0117 24.0586 18.3984 23.6484 18.3984 22.7695V18.1055C18.3984 17.2852 18.0586 16.875 17.3672 16.8281V15.4453C17.3672 13.2891 16.0781 11.8477 14.168 11.8477C12.2578 11.8477 10.9688 13.2891 10.9688 15.4453V16.8281C10.2773 16.875 9.9375 17.2852 9.9375 18.1055V22.7695ZM12.1875 16.8164V15.3164C12.1875 13.9336 12.9844 13.0312 14.168 13.0312C15.3516 13.0312 16.1484 13.9336 16.1484 15.3164V16.8164H12.1875Z" fill="black" fill-opacity="0.85"/>
</svg>
