<svg width="20" height="27" viewBox="0 0 20 27" fill="none" xmlns="http://www.w3.org/2000/svg">
<path d="M0 23.3086C0 25.1602 1.30078 26.4023 3.24609 26.4023H16.3359C18.2812 26.4023 19.582 25.1602 19.582 23.3086V3.10547C19.582 1.25391 18.2812 0 16.3359 0H3.24609C1.30078 0 0 1.25391 0 3.10547V23.3086ZM1.88672 22.9922V3.42188C1.88672 2.46094 2.47266 1.88672 3.48047 1.88672H16.1016C17.0977 1.88672 17.6953 2.46094 17.6953 3.42188V22.9922C17.6953 23.9531 17.0977 24.5156 16.1016 24.5156H3.48047C2.47266 24.5156 1.88672 23.9531 1.88672 22.9922Z" fill="#007AFF"/>
<path d="M7.81641 17.1797H11.7891C12.4219 17.1797 12.7383 16.8516 12.7383 16.1836V13.1367C12.7383 12.6094 12.5391 12.3047 12.1523 12.1758V11.3789C12.1523 9.79688 11.2031 8.71875 9.79688 8.71875C8.40234 8.71875 7.44141 9.79688 7.44141 11.3789V12.1875C7.06641 12.3047 6.85547 12.6094 6.85547 13.1367V16.1836C6.85547 16.8516 7.18359 17.1797 7.81641 17.1797ZM8.60156 12.1289V11.2734C8.60156 10.4062 9.07031 9.84375 9.79688 9.84375C10.5234 9.84375 10.9922 10.4062 10.9922 11.2734V12.1289H8.60156Z" fill="black" fill-opacity="0.85"/>
</svg>
