<svg width="20" height="26" viewBox="0 0 20 26" fill="none" xmlns="http://www.w3.org/2000/svg">
<path d="M3.63281 25.125H16.0781C18.5039 25.125 19.7109 23.8945 19.7109 21.457V10.8164H11.2266C9.72656 10.8164 9.01172 10.1016 9.01172 8.60156V0H3.63281C1.21875 0 0 1.24219 0 3.67969V21.457C0 23.9062 1.20703 25.125 3.63281 25.125ZM11.2617 9.21094H19.5703C19.5 8.73047 19.1602 8.26172 18.5977 7.6875L12.1406 1.11328C11.5898 0.550781 11.1094 0.210938 10.6172 0.128906V8.57812C10.6172 9 10.8281 9.21094 11.2617 9.21094Z" fill="#FFCC00"/>
<path d="M6.28125 21.5508V17.6016C6.28125 16.8984 6.5625 16.5586 7.14844 16.5234V15.3398C7.14844 13.5234 8.25 12.3047 9.86719 12.3047C11.4844 12.3047 12.5859 13.5234 12.5859 15.3398V16.5234C13.1719 16.5586 13.4648 16.8984 13.4648 17.6016V21.5508C13.4648 22.3008 13.1367 22.6523 12.4336 22.6523H7.30078C6.60938 22.6523 6.28125 22.3008 6.28125 21.5508ZM8.19141 16.5117H11.543V15.2344C11.543 14.0742 10.875 13.3008 9.86719 13.3008C8.85938 13.3008 8.19141 14.0742 8.19141 15.2344V16.5117Z" fill="black" fill-opacity="0.85"/>
</svg>
