<svg width="25" height="24" viewBox="0 0 25 24" fill="none" xmlns="http://www.w3.org/2000/svg">
<path d="M2.63672 22.9688H13.3594C15.082 22.9688 15.9961 22.0312 15.9961 20.1797V12.1055C15.9961 10.2656 15.082 9.32812 13.3594 9.32812H2.63672C0.914062 9.32812 0 10.2656 0 12.1055V20.1797C0 22.0312 0.914062 22.9688 2.63672 22.9688ZM2.69531 21.1992C2.19141 21.1992 1.89844 20.8828 1.89844 20.3086V11.9766C1.89844 11.4023 2.19141 11.0977 2.69531 11.0977H13.3008C13.8164 11.0977 14.0977 11.4023 14.0977 11.9766V20.3086C14.0977 20.8828 13.8164 21.1992 13.3008 21.1992H2.69531ZM12.2227 10.2422H14.0742V6.29297C14.0742 3.32812 15.9727 1.76953 18.1641 1.76953C20.3555 1.76953 22.2539 3.32812 22.2539 6.29297V8.89453C22.2539 9.58594 22.6641 9.9375 23.1914 9.9375C23.6953 9.9375 24.1172 9.62109 24.1172 8.89453V6.53906C24.1172 2.13281 21.2227 0 18.1641 0C15.0938 0 12.2227 2.13281 12.2227 6.53906V10.2422Z" fill="black" fill-opacity="0.85"/>
</svg>
