<svg width="25" height="27" viewBox="0 0 25 27" fill="none" xmlns="http://www.w3.org/2000/svg">
<path d="M6.8711 24.6299H17.6055C19.3164 24.6299 20.2305 23.6924 20.2305 21.8408V13.7666C20.2305 11.9151 19.3164 10.9893 17.6055 10.9893H6.8711C5.14844 10.9893 4.23438 11.9151 4.23438 13.7666V21.8408C4.23438 23.6924 5.14844 24.6299 6.8711 24.6299ZM6.29688 11.8916H8.14844V7.93067C8.14844 4.97755 10.0469 3.40724 12.2383 3.40724C14.4297 3.40724 16.3281 4.97755 16.3281 7.93067V11.8916H18.1914V8.18849C18.1914 3.78224 15.3086 1.6377 12.2383 1.6377C9.16797 1.6377 6.29688 3.78224 6.29688 8.18849V11.8916Z" fill="#007AFF"/>
<path d="M20.7686 26.2237C21.6709 27.1143 23.124 27.1143 23.9912 26.2002C24.8584 25.3096 24.8584 23.8916 23.9795 23.0127L3.88184 2.92676C3.00293 2.03613 1.5498 2.03613 0.65918 2.92676C-0.219727 3.79394 -0.219727 5.25879 0.65918 6.13769L20.7686 26.2237Z" fill="white"/>
<path d="M21.7412 25.251C22.0928 25.6026 22.667 25.6026 23.0186 25.251C23.3584 24.8994 23.3701 24.3252 23.0186 23.9737L2.9209 3.88769C2.56934 3.53613 1.9834 3.53613 1.63184 3.88769C1.29199 4.23926 1.29199 4.82519 1.63184 5.16504L21.7412 25.251Z" fill="black" fill-opacity="0.85"/>
</svg>
