<svg width="24" height="24" viewBox="0 0 24 24" fill="none" xmlns="http://www.w3.org/2000/svg">
<path d="M11.9531 23.918C18.4922 23.918 23.9062 18.5039 23.9062 11.9648C23.9062 5.4375 18.4805 0.0117188 11.9414 0.0117188C5.41406 0.0117188 0 5.4375 0 11.9648C0 18.5039 5.42578 23.918 11.9531 23.918Z" fill="#FFCC00"/>
<path d="M7.59375 16.7578V11.9414C7.59375 11.0859 7.94531 10.6758 8.64844 10.6289V9.19921C8.64844 6.97265 9.98438 5.48438 11.9531 5.48438C13.9219 5.48438 15.2578 6.97265 15.2578 9.19921V10.6289C15.9609 10.6758 16.3125 11.0859 16.3125 11.9414V16.7578C16.3125 17.6602 15.9141 18.0703 15.082 18.0703H8.82422C7.99219 18.0703 7.59375 17.6602 7.59375 16.7578ZM9.91406 10.6172H13.9922V9.05859C13.9922 7.65234 13.1719 6.70312 11.9531 6.70312C10.7344 6.70312 9.91406 7.65234 9.91406 9.05859V10.6172Z" fill="black" fill-opacity="0.85"/>
</svg>
