<svg width="25" height="31" viewBox="0 0 25 31" fill="none" xmlns="http://www.w3.org/2000/svg">
<path d="M8.41406 13.5352H15.9141C16.957 13.5352 17.5664 12.9492 17.5664 11.918V3.52734C17.5664 2.49609 16.957 1.91016 15.9141 1.91016H8.41406C7.37109 1.91016 6.76172 2.49609 6.76172 3.52734V11.918C6.76172 12.9492 7.37109 13.5352 8.41406 13.5352Z" fill="#FFCC00"/>
<path d="M6.63281 22.0312H17.707C20.0391 22.0312 21.5742 20.5078 21.5742 18.1875V7.24219C21.5742 4.92188 20.0391 3.41016 17.707 3.41016H6.63281C4.30078 3.41016 2.75391 4.92188 2.75391 7.24219V18.1875C2.75391 20.5078 4.30078 22.0312 6.63281 22.0312Z" fill="white"/>
<path d="M6.50391 20.4375H17.8359C19.207 20.4375 19.9805 19.6641 19.9805 18.3164V7.11328C19.9805 5.76562 19.207 5.00391 17.8359 5.00391H6.50391C5.13281 5.00391 4.34766 5.76562 4.34766 7.11328V18.3164C4.34766 19.6641 5.13281 20.4375 6.50391 20.4375Z" fill="#FFCC00"/>
<path d="M5.56641 30.9961H18.7617C22.2539 30.9961 24.3281 28.9453 24.3281 25.4766V12.1875C24.3281 8.71875 22.2539 6.66797 18.7617 6.66797H5.56641C2.07422 6.66797 0 8.70703 0 12.1875V25.4766C0 28.9453 2.07422 30.9961 5.56641 30.9961Z" fill="white"/>
<path d="M5.56641 29.1094H18.7617C21.2109 29.1094 22.4414 27.8906 22.4414 25.4766V12.1875C22.4414 9.77344 21.2109 8.55469 18.7617 8.55469H5.56641C3.11719 8.55469 1.88672 9.76172 1.88672 12.1875V25.4766C1.88672 27.8906 3.11719 29.1094 5.56641 29.1094Z" fill="#FFCC00"/>
<path d="M7.80469 23.6719V18.8672C7.80469 18.0117 8.15625 17.5898 8.85938 17.543V16.125C8.85938 13.8984 10.207 12.4102 12.1641 12.4102C14.1328 12.4102 15.4688 13.8984 15.4688 16.125V17.543C16.1836 17.5898 16.5352 18.0117 16.5352 18.8672V23.6719C16.5352 24.5742 16.1367 24.9961 15.293 24.9961H9.03516C8.20312 24.9961 7.80469 24.5742 7.80469 23.6719ZM10.125 17.5312H14.2031V15.9844C14.2031 14.5781 13.3945 13.6289 12.1641 13.6289C10.9453 13.6289 10.125 14.5781 10.125 15.9844V17.5312Z" fill="black" fill-opacity="0.85"/>
</svg>
