<svg width="25" height="31" viewBox="0 0 25 31" fill="none" xmlns="http://www.w3.org/2000/svg">
<path d="M8.41406 13.5352H15.9141C16.957 13.5352 17.5664 12.9492 17.5664 11.918V3.52734C17.5664 2.49609 16.957 1.91016 15.9141 1.91016H8.41406C7.37109 1.91016 6.76172 2.49609 6.76172 3.52734V11.918C6.76172 12.9492 7.37109 13.5352 8.41406 13.5352Z" fill="#007AFF"/>
<path d="M6.63281 23.2852H17.707C20.0391 23.2852 21.5742 21.7617 21.5742 19.4414V7.24219C21.5742 4.92188 20.0391 3.41016 17.707 3.41016H6.63281C4.30078 3.41016 2.75391 4.92188 2.75391 7.24219V19.4414C2.75391 21.7617 4.30078 23.2852 6.63281 23.2852Z" fill="white"/>
<path d="M6.50391 21.6914H17.8359C19.207 21.6914 19.9805 20.918 19.9805 19.5703V7.11328C19.9805 5.76562 19.207 5.00391 17.8359 5.00391H6.50391C5.13281 5.00391 4.34766 5.76562 4.34766 7.11328V19.5703C4.34766 20.918 5.13281 21.6914 6.50391 21.6914Z" fill="#007AFF"/>
<path d="M5.56641 30.9961H18.7617C22.2539 30.9961 24.3281 28.9453 24.3281 25.4766V12.1875C24.3281 8.71875 22.2539 6.66797 18.7617 6.66797H5.56641C2.07422 6.66797 0 8.70703 0 12.1875V25.4766C0 28.9453 2.07422 30.9961 5.56641 30.9961Z" fill="white"/>
<path d="M5.56641 29.1094H18.7617C21.2109 29.1094 22.4414 27.8906 22.4414 25.4766V12.1875C22.4414 9.77344 21.2109 8.55469 18.7617 8.55469H5.56641C3.11719 8.55469 1.88672 9.76172 1.88672 12.1875V25.4766C1.88672 27.8906 3.11719 29.1094 5.56641 29.1094ZM5.60156 27.2227C4.42969 27.2227 3.77344 26.5898 3.77344 25.3711V12.2812C3.77344 11.0742 4.42969 10.4414 5.60156 10.4414H18.7383C19.8867 10.4414 20.5547 11.0742 20.5547 12.2812V25.3711C20.5547 26.5898 19.8867 27.2227 18.7383 27.2227H5.60156Z" fill="#007AFF"/>
<path d="M7.93359 23.5078C7.93359 24.3867 8.32031 24.7969 9.12891 24.7969H15.1992C16.0195 24.7969 16.4062 24.3867 16.4062 23.5078V18.8438C16.4062 18.0234 16.0664 17.625 15.3633 17.5781V16.1836C15.3633 14.0273 14.0742 12.5859 12.1641 12.5859C10.2656 12.5859 8.96484 14.0273 8.96484 16.1836V17.5781C8.27344 17.625 7.93359 18.0234 7.93359 18.8438V23.5078ZM10.1836 17.5664V16.0547C10.1836 14.6836 10.9805 13.7695 12.1641 13.7695C13.3594 13.7695 14.1445 14.6836 14.1445 16.0547V17.5664H10.1836Z" fill="black" fill-opacity="0.85"/>
</svg>
