<svg width="27" height="24" viewBox="0 0 27 24" fill="none" xmlns="http://www.w3.org/2000/svg">
<path d="M0 11.9531C0 18.4805 5.42578 23.9062 11.9531 23.9062C15.9023 23.9062 19.4062 21.9023 21.6211 18.9023C22.0195 18.3867 21.8906 17.7422 21.4219 17.4492C20.9297 17.1562 20.3672 17.3086 20.0156 17.7891C18.2109 20.2734 15.293 21.9023 11.9531 21.9141C6.42188 21.9258 1.99219 17.4844 1.99219 11.9531C1.99219 6.42188 6.42188 2.00391 11.9531 2.00391C16.7109 2.00391 20.6484 5.26172 21.6562 9.69141H19.9688C19.1367 9.69141 18.9258 10.2656 19.3711 10.9102L21.9961 14.6484C22.3711 15.1758 22.9336 15.1875 23.3203 14.6484L25.9336 10.9219C26.4023 10.2656 26.1797 9.69141 25.3477 9.69141H23.6836C22.6172 4.20703 17.7188 0 11.9531 0C5.42578 0 0 5.41406 0 11.9531Z" fill="#007AFF"/>
<path d="M7.71094 16.582C7.71094 17.4609 8.09766 17.8711 8.90625 17.8711H14.9766C15.7852 17.8711 16.1719 17.4609 16.1719 16.582V11.918C16.1719 11.0977 15.832 10.6875 15.1406 10.6406V9.25781C15.1406 7.10156 13.8516 5.64844 11.9414 5.64844C10.0312 5.64844 8.74219 7.10156 8.74219 9.25781V10.6406C8.05078 10.6875 7.71094 11.0977 7.71094 11.918V16.582ZM9.96094 10.6289V9.12891C9.96094 7.74609 10.7578 6.83203 11.9414 6.83203C13.125 6.83203 13.9219 7.74609 13.9219 9.12891V10.6289H9.96094Z" fill="black" fill-opacity="0.85"/>
</svg>
