<svg width="28" height="25" viewBox="0 0 28 25" fill="none" xmlns="http://www.w3.org/2000/svg">
<path d="M2.69531 20.2734H25.2305C26.918 20.2734 27.9375 19.2539 27.9375 17.5664V3.51562C27.9375 1.82812 26.918 0.820312 25.2305 0.820312H2.69531C1.01953 0.820312 0 1.82812 0 3.51562V17.5664C0 19.2539 1.01953 20.2734 2.69531 20.2734ZM2.39062 15.1055C2.03906 15.1055 1.88672 14.9766 1.88672 14.6016V3.55078C1.88672 3.02344 2.21484 2.70703 2.73047 2.70703H25.207C25.7227 2.70703 26.0508 3.02344 26.0508 3.55078V14.6016C26.0508 14.9766 25.8867 15.1055 25.5352 15.1055H2.39062ZM10.2656 23.0625H17.6719V20.1211H10.2656V23.0625ZM10.1953 24.4336H17.7422C18.2578 24.4336 18.6797 24.0117 18.6797 23.4844C18.6797 22.957 18.2578 22.5352 17.7422 22.5352H10.1953C9.67969 22.5352 9.24609 22.957 9.24609 23.4844C9.24609 24.0117 9.67969 24.4336 10.1953 24.4336Z" fill="#007AFF"/>
<path d="M9.76172 12C9.76172 12.668 10.0898 12.9961 10.7227 12.9961H14.6953C15.3281 12.9961 15.6445 12.668 15.6445 12V8.95312C15.6445 8.28516 15.3281 7.94531 14.6953 7.94531H10.7227C10.0898 7.94531 9.76172 8.28516 9.76172 8.95312V12ZM13.793 8.63672H14.9531V6.96094C14.9531 6.09375 15.4102 5.54297 16.207 5.54297C17.0039 5.54297 17.4727 6.09375 17.4727 6.96094V7.79297C17.4727 8.10938 17.7305 8.37891 18.0586 8.37891C18.3633 8.37891 18.6328 8.10938 18.6328 7.79297V6.96094C18.6328 5.48438 17.6836 4.40625 16.207 4.40625C14.7422 4.40625 13.793 5.48438 13.793 7.06641V8.63672Z" fill="black" fill-opacity="0.85"/>
</svg>
