<svg width="28" height="25" viewBox="0 0 28 25" fill="none" xmlns="http://www.w3.org/2000/svg">
<path d="M2.69531 20.2734H25.2305C26.918 20.2734 27.9375 19.2539 27.9375 17.5664V3.51562C27.9375 1.82812 26.918 0.820312 25.2305 0.820312H2.69531C1.01953 0.820312 0 1.82812 0 3.51562V17.5664C0 19.2539 1.01953 20.2734 2.69531 20.2734ZM2.73047 18.3867C2.21484 18.3867 1.88672 18.0586 1.88672 17.543V3.55078C1.88672 3.02344 2.21484 2.70703 2.73047 2.70703H25.207C25.7227 2.70703 26.0508 3.02344 26.0508 3.55078V17.543C26.0508 18.0586 25.7227 18.3867 25.207 18.3867H2.73047ZM10.2656 23.0625H17.6719V20.1211H10.2656V23.0625ZM10.1953 24.4336H17.7422C18.2578 24.4336 18.6797 24.0117 18.6797 23.4844C18.6797 22.957 18.2578 22.5352 17.7422 22.5352H10.1953C9.67969 22.5352 9.24609 22.957 9.24609 23.4844C9.24609 24.0117 9.67969 24.4336 10.1953 24.4336Z" fill="#007AFF"/>
<path d="M11.9883 14.5195H15.9609C16.5938 14.5195 16.9102 14.1797 16.9102 13.5117V10.4648C16.9102 9.94922 16.7109 9.64453 16.3359 9.50391V8.71875C16.3359 7.13672 15.375 6.05859 13.9805 6.05859C12.5742 6.05859 11.625 7.13672 11.625 8.71875V9.52734C11.2383 9.64453 11.0391 9.94922 11.0391 10.4648V13.5117C11.0391 14.1797 11.3555 14.5195 11.9883 14.5195ZM12.7852 9.46875V8.61328C12.7852 7.73438 13.2422 7.18359 13.9805 7.18359C14.6953 7.18359 15.1758 7.73438 15.1758 8.61328V9.46875H12.7852Z" fill="black" fill-opacity="0.85"/>
</svg>
