<svg width="22" height="22" viewBox="0 0 22 22" fill="none" xmlns="http://www.w3.org/2000/svg">
<path d="M3.67969 21.5977H17.8945C20.3555 21.5977 21.5742 20.3789 21.5742 17.9648V3.65625C21.5742 1.24219 20.3555 0.0234375 17.8945 0.0234375H3.67969C1.23047 0.0234375 0 1.23047 0 3.65625V17.9648C0 20.3906 1.23047 21.5977 3.67969 21.5977Z" fill="#FFCC00"/>
<path d="M6.43359 15.5742V10.7695C6.43359 9.91406 6.78516 9.49219 7.48828 9.44531V8.02734C7.48828 5.80078 8.82422 4.3125 10.793 4.3125C12.7617 4.3125 14.0977 5.80078 14.0977 8.02734V9.44531C14.8125 9.49219 15.1641 9.91406 15.1641 10.7695V15.5742C15.1641 16.4766 14.7656 16.8984 13.9219 16.8984H7.66406C6.83203 16.8984 6.43359 16.4766 6.43359 15.5742ZM8.75391 9.43359H12.832V7.88672C12.832 6.48047 12.0117 5.53125 10.793 5.53125C9.57422 5.53125 8.75391 6.48047 8.75391 7.88672V9.43359Z" fill="black" fill-opacity="0.85"/>
</svg>
