<svg width="28" height="22" viewBox="0 0 28 22" fill="none" xmlns="http://www.w3.org/2000/svg">
<path d="M3.67969 21.5742H23.9531C26.4141 21.5742 27.6328 20.3672 27.6328 17.9531V3.63281C27.6328 1.21875 26.4141 0 23.9531 0H3.67969C1.23047 0 0 1.21875 0 3.63281V17.9531C0 20.3672 1.23047 21.5742 3.67969 21.5742Z" fill="#FFCC00"/>
<path d="M9.45703 15.5742V10.7695C9.45703 9.91406 9.80859 9.49219 10.5234 9.44531V8.02734C10.5234 5.80078 11.8594 4.3125 13.8281 4.3125C15.7969 4.3125 17.1328 5.80078 17.1328 8.02734V9.44531C17.8359 9.49219 18.1875 9.91406 18.1875 10.7695V15.5742C18.1875 16.4766 17.7891 16.8984 16.957 16.8984H10.6992C9.85547 16.8984 9.45703 16.4766 9.45703 15.5742ZM11.7891 9.43359H15.8672V7.88672C15.8672 6.48047 15.0469 5.53125 13.8281 5.53125C12.5977 5.53125 11.7891 6.48047 11.7891 7.88672V9.43359Z" fill="black" fill-opacity="0.85"/>
</svg>
