<svg width="24" height="24" viewBox="0 0 24 24" fill="none" xmlns="http://www.w3.org/2000/svg">
<path d="M11.9531 23.9062C18.4922 23.9062 23.9062 18.4805 23.9062 11.9531C23.9062 5.41406 18.4805 0 11.9414 0C5.41406 0 0 5.41406 0 11.9531C0 18.4805 5.42578 23.9062 11.9531 23.9062ZM11.9531 21.9141C6.42188 21.9141 2.00391 17.4844 2.00391 11.9531C2.00391 6.42188 6.41016 1.99219 11.9414 1.99219C17.4727 1.99219 21.9141 6.42188 21.9141 11.9531C21.9141 17.4844 17.4844 21.9141 11.9531 21.9141Z" fill="#007AFF"/>
<path d="M7.71094 16.5703C7.71094 17.4492 8.09766 17.8594 8.90625 17.8594H14.9766C15.7852 17.8594 16.1719 17.4492 16.1719 16.5703V11.9062C16.1719 11.0859 15.832 10.6875 15.1406 10.6406V9.24609C15.1406 7.08984 13.8516 5.64844 11.9414 5.64844C10.0312 5.64844 8.74219 7.08984 8.74219 9.24609V10.6406C8.05078 10.6875 7.71094 11.0859 7.71094 11.9062V16.5703ZM9.96094 10.6289V9.11719C9.96094 7.74609 10.7578 6.83203 11.9414 6.83203C13.125 6.83203 13.9219 7.74609 13.9219 9.11719V10.6289H9.96094Z" fill="black" fill-opacity="0.85"/>
</svg>
