<svg width="30" height="23" viewBox="0 0 30 23" fill="none" xmlns="http://www.w3.org/2000/svg">
<path d="M23.1562 20.3672C26.6953 20.3672 29.4609 17.7773 29.4609 14.5547C29.4609 12.0938 28.043 9.96094 25.7578 9C25.7812 3.77344 22.0195 0 17.2266 0C14.0508 0 11.7891 1.69922 10.3828 3.75C7.5 2.90625 4.35938 5.09766 4.30078 8.37891C1.65234 8.80078 0 11.168 0 14.0273C0 17.4727 3.01172 20.3672 7.01953 20.3672H23.1562Z" fill="#FFCC00"/>
<path d="M10.8281 15.4219V11.0977C10.8281 10.3477 11.1445 9.96094 11.7656 9.92578V8.64844C11.7656 6.64453 12.9727 5.30859 14.7305 5.30859C16.5117 5.30859 17.707 6.64453 17.707 8.64844V9.92578C18.3398 9.96094 18.6562 10.3477 18.6562 11.0977V15.4219C18.6562 16.2305 18.293 16.5938 17.543 16.5938H11.9297C11.1797 16.5938 10.8281 16.2305 10.8281 15.4219ZM12.9023 9.91406H16.5586V8.51953C16.5586 7.25391 15.832 6.39844 14.7305 6.39844C13.6523 6.39844 12.9023 7.25391 12.9023 8.51953V9.91406Z" fill="black" fill-opacity="0.85"/>
</svg>
