<svg width="31" height="22" viewBox="0 0 31 22" fill="none" xmlns="http://www.w3.org/2000/svg">
<path d="M30.3281 11.8738V4.52612C30.3281 2.41675 28.9102 0.987061 26.7891 0.987061L3.51562 0.998779C1.41797 0.998779 0 2.44018 0 4.56128V11.8738C0 14.909 1.30078 16.7723 4.42969 17.698L14.5781 20.6512C17.2969 21.448 19.043 21.1316 21.4688 19.8777L28.0547 16.491C29.918 15.5301 30.3281 14.3816 30.3281 11.8738ZM28.4414 11.8738C28.4414 13.6082 28.1133 14.3699 26.8594 15.0027L20.4609 18.2723C18.4453 19.2918 17.0156 19.5027 14.5781 18.7762L4.98047 15.9285C2.77734 15.284 1.88672 14.0066 1.88672 11.8738V4.59643C1.88672 3.56518 2.54297 2.8855 3.55078 2.8855L26.7656 2.87378C27.7734 2.87378 28.4414 3.54175 28.4414 4.56128V11.8738Z" fill="#007AFF"/>
<path d="M6.89062 14.3582H10.125C10.5 14.3582 10.8047 14.0418 10.8047 13.6668C10.8047 13.3035 10.5 12.9871 10.125 12.9871H7.71094V5.92065C7.71094 5.48706 7.33594 5.11206 6.90234 5.11206C6.45703 5.11206 6.08203 5.48706 6.08203 5.92065V13.5027C6.08203 14.0301 6.375 14.3582 6.89062 14.3582ZM14.5195 14.5574C16.2656 14.5574 17.3438 13.5613 17.3438 11.8504C17.3438 10.3973 16.6055 9.71753 15.293 9.21362L14.6602 8.97925C13.9219 8.698 13.3945 8.31128 13.3945 7.52612C13.3945 6.83471 13.8164 6.35425 14.4727 6.35425C15.1758 6.35425 15.5508 6.86987 15.6797 7.45581C15.7969 7.84253 16.0664 7.98315 16.4297 7.98315C16.8633 7.98315 17.1328 7.71362 17.1328 7.29175C17.1328 7.198 17.1328 7.10425 17.0742 6.88159C16.7344 5.68628 15.7266 5.01831 14.4727 5.01831C12.9141 5.01831 11.7891 6.02612 11.7891 7.65503C11.7891 9.073 12.6562 9.823 13.8047 10.2683L14.4258 10.5144C15.1641 10.7957 15.7383 11.159 15.7383 11.991C15.7383 12.7176 15.2812 13.2215 14.5312 13.2215C13.793 13.2215 13.3477 12.7293 13.2188 12.1199C13.125 11.7215 12.8438 11.5457 12.4688 11.5457C12.0352 11.5457 11.7539 11.8621 11.7539 12.2957C11.7539 12.4949 11.7656 12.5652 11.8242 12.7644C12.1641 13.948 13.2422 14.5574 14.5195 14.5574ZM19.5703 14.3582H21.9609C23.5547 14.3582 24.4688 13.3035 24.4688 11.7918C24.4688 10.6902 23.8008 9.68237 22.7344 9.5769V9.51831C23.5898 9.36596 24.1875 8.41675 24.1875 7.52612C24.1875 6.073 23.2148 5.25268 21.8906 5.25268H19.5703C19.043 5.25268 18.75 5.61596 18.75 6.10815V13.5027C18.75 14.0301 19.0547 14.3582 19.5703 14.3582ZM20.3672 9.11987V6.50659H21.4219C22.2773 6.50659 22.6055 7.04565 22.6055 7.77221C22.6055 8.60425 22.125 9.11987 21.293 9.11987H20.3672ZM20.3672 13.116V10.2215H21.4219C22.2422 10.2215 22.8164 10.6668 22.8164 11.6629C22.8164 12.5652 22.3711 13.116 21.457 13.116H20.3672Z" fill="black" fill-opacity="0.85"/>
</svg>
