<svg width="24" height="24" viewBox="0 0 24 24" fill="none" xmlns="http://www.w3.org/2000/svg">
<path d="M11.9531 23.9062C18.4922 23.9062 23.9062 18.4805 23.9062 11.9531C23.9062 5.41406 18.4805 0 11.9414 0C5.41406 0 0 5.41406 0 11.9531C0 18.4805 5.42578 23.9062 11.9531 23.9062Z" fill="#FFCC00"/>
<path d="M7.85156 16.6172C7.32422 16.6172 7.03125 16.2773 7.03125 15.7383V8.01562C7.03125 7.55859 7.40625 7.18359 7.86328 7.18359C8.32031 7.18359 8.69531 7.55859 8.69531 8.01562V15.1992H11.1562C11.5312 15.1992 11.8594 15.5156 11.8594 15.9023C11.8594 16.2891 11.5312 16.6172 11.1562 16.6172H7.85156ZM14.5781 16.7461C14.1094 16.7461 13.7227 16.3711 13.7227 15.8906V8.70703H12.293C11.8945 8.70703 11.5898 8.40234 11.5898 8.00391C11.5898 7.61719 11.8945 7.3125 12.293 7.3125H16.8047C17.1797 7.3125 17.4844 7.61719 17.4844 8.00391C17.4844 8.40234 17.1797 8.70703 16.8047 8.70703H15.4102V15.8906C15.4102 16.3711 15.0352 16.7461 14.5781 16.7461Z" fill="black" fill-opacity="0.85"/>
</svg>
