<svg width="31" height="23" viewBox="0 0 31 23" fill="none" xmlns="http://www.w3.org/2000/svg">
<path d="M4.24566 22.0684L8.85113 21.1777C11.3356 20.6973 12.4371 19.3496 12.4371 16.7129V3.96289C12.4371 1.60742 10.7848 0.0253906 8.33551 0.0253906C6.24957 0.0253906 4.48004 1.51367 3.8941 3.70508L0.190978 17.7442C-0.605897 20.7324 1.18707 22.6543 4.24566 22.0684ZM26.652 22.0684C29.7106 22.6543 31.5035 20.7324 30.7067 17.7442L27.0035 3.70508C26.4176 1.51367 24.6481 0.0253906 22.5621 0.0253906C20.1129 0.0253906 18.4606 1.60742 18.4606 3.96289V16.7129C18.4606 19.3496 19.5621 20.6973 22.0465 21.1777L26.652 22.0684Z" fill="#FFCC00"/>
<path d="M6.05077 16.8417C5.55858 16.9472 5.01952 16.6191 4.92577 16.1151C4.83202 15.623 5.17186 15.1073 5.64061 15.0136L8.79296 14.3456L6.21483 12.037C5.83983 11.6972 5.79296 11.0761 6.12108 10.6894C6.47265 10.3144 7.10546 10.3026 7.46874 10.6308L11.0547 13.8651L12.4375 13.5605V15.4823L6.05077 16.8417ZM24.8477 16.8417L18.461 15.4823V13.5605L19.8438 13.8651L23.4297 10.6308C23.793 10.3026 24.4258 10.3144 24.7774 10.6894C25.1055 11.0761 25.0586 11.6972 24.6836 12.037L22.1055 14.3456L25.2578 15.0136C25.7266 15.1073 26.0664 15.623 25.9727 16.1151C25.8789 16.6191 25.3399 16.9472 24.8477 16.8417Z" fill="#007AFF"/>
<path d="M15.4492 14.8613L18.461 15.4824V13.5606L16.375 13.1152V1.50195C16.375 0.986329 15.9649 0.564453 15.4492 0.564453C14.9336 0.564453 14.5117 0.986329 14.5117 1.50195V13.1152L12.4375 13.5606V15.4824L15.4492 14.8613Z" fill="black" fill-opacity="0.85"/>
</svg>
