<svg width="24" height="24" viewBox="0 0 24 24" fill="none" xmlns="http://www.w3.org/2000/svg">
<path d="M11.9531 23.9062C18.4922 23.9062 23.9062 18.4805 23.9062 11.9531C23.9062 5.41406 18.4805 0 11.9414 0C5.41406 0 0 5.41406 0 11.9531C0 18.4805 5.42578 23.9062 11.9531 23.9062ZM11.9531 21.9141C6.42188 21.9141 2.00391 17.4844 2.00391 11.9531C2.00391 6.42188 6.41016 1.99219 11.9414 1.99219C17.4727 1.99219 21.9141 6.42188 21.9141 11.9531C21.9141 17.4844 17.4844 21.9141 11.9531 21.9141Z" fill="#007AFF"/>
<path d="M7.38281 17.3906C7.92188 17.3906 8.23828 17.0391 8.23828 16.4297V9.66797H8.34375L11.0391 16.418C11.2148 16.8398 11.4844 17.0391 11.9297 17.0391C12.3633 17.0391 12.6562 16.8398 12.8203 16.418L15.5391 9.66797H15.6328V16.4297C15.6328 17.0273 15.9492 17.3906 16.4648 17.3906C17.0156 17.3906 17.332 17.0391 17.332 16.4297V7.45312C17.332 6.80859 16.875 6.36328 16.2305 6.36328C15.668 6.36328 15.293 6.62109 15.082 7.125L11.9766 14.918H11.918L8.78906 7.125C8.58984 6.62109 8.21484 6.36328 7.65234 6.36328C6.99609 6.36328 6.53906 6.80859 6.53906 7.45312V16.4297C6.53906 17.0273 6.86719 17.3906 7.38281 17.3906Z" fill="black" fill-opacity="0.85"/>
</svg>
