<svg width="24" height="24" viewBox="0 0 24 24" fill="none" xmlns="http://www.w3.org/2000/svg">
<path d="M11.9531 23.9062C18.4922 23.9062 23.9062 18.4805 23.9062 11.9531C23.9062 5.41406 18.4805 0 11.9414 0C5.41406 0 0 5.41406 0 11.9531C0 18.4805 5.42578 23.9062 11.9531 23.9062Z" fill="#FFCC00"/>
<path d="M7.25391 17.5664C6.71484 17.5664 6.375 17.1914 6.375 16.5703V7.3125C6.375 6.64453 6.84375 6.1875 7.52344 6.1875C8.10938 6.1875 8.49609 6.45703 8.70703 6.97266L11.9297 15H11.9883L15.1875 6.97266C15.4102 6.45703 15.7969 6.1875 16.3828 6.1875C17.0508 6.1875 17.5195 6.64453 17.5195 7.3125V16.5703C17.5195 17.2031 17.1914 17.5664 16.6172 17.5664C16.0898 17.5664 15.7617 17.1914 15.7617 16.5703V9.62109H15.6562L12.8672 16.5586C12.6914 16.9922 12.3867 17.1914 11.9414 17.1914C11.4844 17.1914 11.2031 16.9922 11.0156 16.5586L8.25 9.62109H8.13281V16.5703C8.13281 17.2031 7.80469 17.5664 7.25391 17.5664Z" fill="black" fill-opacity="0.85"/>
</svg>
