<svg width="28" height="22" viewBox="0 0 28 22" fill="none" xmlns="http://www.w3.org/2000/svg">
<path d="M9.23438 21.0352H18.3984C25.1953 21.0352 27.6328 18.5156 27.6328 12.2461V8.80078C27.6328 2.53125 25.1953 0 18.3984 0H9.23438C2.4375 0 0 2.53125 0 8.80078V12.2461C0 18.5156 2.4375 21.0352 9.23438 21.0352Z" fill="#FFCC00"/>
<path d="M6.87891 15.5859C6.39844 15.5859 6.09375 15.2578 6.09375 14.7422V6.73828C6.09375 5.96484 6.58594 5.49609 7.34766 5.49609C8.01562 5.49609 8.41406 5.83595 8.58984 6.51562L10.2422 13.0898H10.3008L11.9297 6.51562C12.1055 5.83595 12.4922 5.49609 13.1953 5.49609C13.957 5.49609 14.4492 5.94141 14.4492 6.73828V14.7422C14.4492 15.2578 14.168 15.5859 13.6523 15.5859C13.1602 15.5859 12.8672 15.2578 12.8672 14.7422V8.22656H12.8086L11.168 14.5898C11.0391 15.082 10.7812 15.4102 10.2773 15.4102C9.79688 15.4102 9.49219 15.0703 9.38672 14.6016L7.74609 8.22656H7.67578V14.7422C7.67578 15.2578 7.37109 15.5859 6.87891 15.5859ZM16.8398 15.4102C16.2773 15.4102 16.0195 15.1172 16.0195 14.707C16.0195 14.3203 16.2422 14.0273 16.4648 13.7344L18.5625 11.0625C19.1953 10.2422 19.875 9.25781 19.875 8.28516C19.875 7.42969 19.4648 6.79688 18.75 6.79688C18.0469 6.79688 17.7656 7.30078 17.5312 8.10938C17.4023 8.50781 17.1562 8.69531 16.7578 8.69531C16.2891 8.69531 16.0312 8.37891 16.0312 7.92188C16.0312 6.66797 17.2031 5.39062 18.75 5.39062C20.4141 5.39062 21.5273 6.57422 21.5273 8.20312C21.5273 9.26954 21.1289 10.1602 19.9219 11.6602L18.1641 13.8867V13.9922H21.0352C21.4453 13.9922 21.7148 14.2383 21.7148 14.707C21.7148 15.1289 21.457 15.4102 21.0352 15.4102H16.8398Z" fill="black" fill-opacity="0.85"/>
</svg>
