<svg width="25" height="31" viewBox="0 0 25 31" fill="none" xmlns="http://www.w3.org/2000/svg">
<path d="M3.67969 25.9688H20.5312C22.9805 25.9688 24.2109 24.75 24.2109 22.3477V6.96094C24.2109 4.53516 22.9805 3.32812 20.5312 3.32812H3.67969C1.21875 3.32812 0 4.53516 0 6.96094V22.3477C0 24.7617 1.21875 25.9688 3.67969 25.9688ZM10.7812 18.7266C10.2188 18.7266 9.83203 18.1992 9.38672 17.5781C8.84766 16.8281 8.4375 15.668 8.4375 14.5664C8.4375 12.7852 9.57422 11.8594 10.7109 11.8594C11.3086 11.8594 11.8008 12.2578 12.1758 12.2578C12.5391 12.2578 13.0898 11.8359 13.7695 11.8359C14.0391 11.8359 14.9648 11.8594 15.5859 12.7383C15.5273 12.7734 14.6016 13.3125 14.6016 14.4844C14.6016 15.8203 15.7852 16.2891 15.8203 16.3125C15.7969 16.3477 15.6445 16.9688 15.1992 17.6016C14.8125 18.1523 14.4023 18.7266 13.7695 18.7266C13.1719 18.7266 12.9961 18.3633 12.2812 18.3633C11.6133 18.3633 11.3438 18.7266 10.7812 18.7266ZM12.2344 11.7656C12.1758 11.7656 12.1406 11.7422 12.1172 11.7188C12.1055 11.707 12.1055 11.6367 12.1055 11.5664C12.1055 11.0977 12.3047 10.6172 12.5742 10.3242C12.9258 9.94922 13.4648 9.66797 13.9219 9.64453C13.9453 9.69141 13.9453 9.75 13.9453 9.82031C13.9453 10.3008 13.7461 10.7578 13.4648 11.0977C13.1719 11.4727 12.6328 11.7656 12.2344 11.7656ZM3.15234 29.4492H7.42969C7.92188 29.4492 8.30859 29.0508 8.30859 28.5586C8.30859 28.0664 7.92188 27.668 7.42969 27.668H3.15234C2.67188 27.668 2.27344 28.0664 2.27344 28.5586C2.27344 29.0508 2.67188 29.4492 3.15234 29.4492ZM4.40625 28.5H6.17578V24.9727H4.40625V28.5ZM16.7812 29.4492H21.0586C21.5508 29.4492 21.9375 29.0508 21.9375 28.5586C21.9375 28.0664 21.5508 27.668 21.0586 27.668H16.7812C16.3008 27.668 15.9023 28.0664 15.9023 28.5586C15.9023 29.0508 16.3008 29.4492 16.7812 29.4492ZM18.0352 28.5H19.8047V24.9727H18.0352V28.5ZM4.40625 4.24219H6.17578V0.878906C6.17578 0.398438 5.78906 0 5.29688 0C4.80469 0 4.40625 0.398438 4.40625 0.878906V4.24219ZM18.0352 4.24219H19.8047V0.878906C19.8047 0.398438 19.418 0 18.9258 0C18.4219 0 18.0352 0.398438 18.0352 0.878906V4.24219Z" fill="black" fill-opacity="0.85"/>
</svg>
