<svg width="18" height="28" viewBox="0 0 18 28" fill="none" xmlns="http://www.w3.org/2000/svg">
<path d="M0 22.2773C0 25.7227 3.16406 27.7617 8.51953 27.7617C13.875 27.7617 17.0391 25.7227 17.0391 22.2773V5.49609C17.0391 4.13672 16.5469 3.03516 15.7266 2.26172C15.3047 1.81641 14.7773 1.80469 14.543 2.22656C13.9336 3.57422 11.3906 4.38281 8.51953 4.38281C5.64844 4.38281 3.09375 3.57422 2.48438 2.22656C2.25 1.80469 1.72266 1.81641 1.3125 2.26172C0.492188 3.03516 0 4.13672 0 5.49609V22.2773ZM8.51953 3.02344C11.1914 3.02344 13.3594 2.35547 13.3594 1.51172C13.3594 0.691406 11.1914 0.0117188 8.51953 0.0117188C5.84766 0.0117188 3.67969 0.691406 3.67969 1.51172C3.67969 2.35547 5.84766 3.02344 8.51953 3.02344Z" fill="black" fill-opacity="0.85"/>
</svg>
