<svg width="30" height="19" viewBox="0 0 30 19" fill="none" xmlns="http://www.w3.org/2000/svg">
<path d="M4.93359 14.332C5.4375 14.332 5.83594 13.9219 5.83594 13.4062V4.74609C5.83594 4.25391 5.4375 3.84375 4.93359 3.84375C4.41797 3.84375 4.01953 4.25391 4.01953 4.74609V13.4062C4.01953 13.9219 4.41797 14.332 4.93359 14.332ZM8.60156 13.6289C9.12891 13.6289 9.55078 13.1953 9.55078 12.668C9.55078 12.1523 9.12891 11.707 8.60156 11.707C8.08594 11.707 7.64062 12.1523 7.64062 12.668C7.64062 13.1953 8.08594 13.6289 8.60156 13.6289ZM11.7539 13.6289C12.2695 13.6289 12.7031 13.1953 12.7031 12.668C12.7031 12.1523 12.2695 11.707 11.7539 11.707C11.2266 11.707 10.793 12.1523 10.793 12.668C10.793 13.1953 11.2266 13.6289 11.7539 13.6289ZM14.9062 13.6289C15.4219 13.6289 15.8555 13.1953 15.8555 12.668C15.8555 12.1523 15.4219 11.707 14.9062 11.707C14.3789 11.707 13.9453 12.1523 13.9453 12.668C13.9453 13.1953 14.3789 13.6289 14.9062 13.6289ZM18.0469 13.6289C18.5508 13.6289 18.9844 13.1953 18.9844 12.668C18.9844 12.1523 18.5508 11.707 18.0469 11.707C17.5195 11.707 17.0977 12.1523 17.0977 12.668C17.0977 13.1953 17.5195 13.6289 18.0469 13.6289ZM21.1758 13.6289C21.6914 13.6289 22.125 13.1953 22.125 12.668C22.125 12.1523 21.6914 11.707 21.1758 11.707C20.6484 11.707 20.2266 12.1523 20.2266 12.668C20.2266 13.1953 20.6484 13.6289 21.1758 13.6289ZM10.1719 10.043C10.6992 10.043 11.1211 9.60938 11.1211 9.08203C11.1211 8.55469 10.6992 8.12109 10.1719 8.12109C9.65625 8.12109 9.22266 8.55469 9.22266 9.08203C9.22266 9.60938 9.65625 10.043 10.1719 10.043ZM13.3242 10.043C13.8516 10.043 14.2734 9.60938 14.2734 9.08203C14.2734 8.55469 13.8516 8.12109 13.3242 8.12109C12.7969 8.12109 12.3633 8.55469 12.3633 9.08203C12.3633 9.60938 12.7969 10.043 13.3242 10.043ZM16.4648 10.043C16.9805 10.043 17.4141 9.60938 17.4141 9.08203C17.4141 8.55469 16.9805 8.12109 16.4648 8.12109C15.9492 8.12109 15.5156 8.55469 15.5156 9.08203C15.5156 9.60938 15.9492 10.043 16.4648 10.043ZM19.6055 10.043C20.1094 10.043 20.543 9.60938 20.543 9.08203C20.543 8.55469 20.1094 8.12109 19.6055 8.12109C19.0781 8.12109 18.6562 8.55469 18.6562 9.08203C18.6562 9.60938 19.0781 10.043 19.6055 10.043ZM8.60156 6.45703C9.12891 6.45703 9.55078 6.02344 9.55078 5.50781C9.55078 4.98047 9.12891 4.54688 8.60156 4.54688C8.08594 4.54688 7.64062 4.98047 7.64062 5.50781C7.64062 6.02344 8.08594 6.45703 8.60156 6.45703ZM11.7539 6.45703C12.2695 6.45703 12.7031 6.02344 12.7031 5.50781C12.7031 4.98047 12.2695 4.54688 11.7539 4.54688C11.2266 4.54688 10.793 4.98047 10.793 5.50781C10.793 6.02344 11.2266 6.45703 11.7539 6.45703ZM14.9062 6.45703C15.4219 6.45703 15.8555 6.02344 15.8555 5.50781C15.8555 4.98047 15.4219 4.54688 14.9062 4.54688C14.3789 4.54688 13.9453 4.98047 13.9453 5.50781C13.9453 6.02344 14.3789 6.45703 14.9062 6.45703ZM18.0469 6.45703C18.5508 6.45703 18.9844 6.02344 18.9844 5.50781C18.9844 4.98047 18.5508 4.54688 18.0469 4.54688C17.5195 4.54688 17.0977 4.98047 17.0977 5.50781C17.0977 6.02344 17.5195 6.45703 18.0469 6.45703ZM21.1758 6.45703C21.6914 6.45703 22.125 6.02344 22.125 5.50781C22.125 4.98047 21.6914 4.54688 21.1758 4.54688C20.6484 4.54688 20.2266 4.98047 20.2266 5.50781C20.2266 6.02344 20.6484 6.45703 21.1758 6.45703ZM24.8438 14.332C25.3477 14.332 25.7578 13.9219 25.7578 13.4062V4.74609C25.7578 4.25391 25.3477 3.84375 24.8438 3.84375C24.3398 3.84375 23.9297 4.25391 23.9297 4.74609V13.4062C23.9297 13.9219 24.3398 14.332 24.8438 14.332ZM3.67969 18.1992H26.1328C28.582 18.1992 29.8125 16.9805 29.8125 14.5664V3.63281C29.8125 1.21875 28.582 0 26.1328 0H3.67969C1.21875 0 0 1.21875 0 3.63281V14.5664C0 16.9805 1.21875 18.1992 3.67969 18.1992ZM3.70312 16.3125C2.53125 16.3125 1.88672 15.6797 1.88672 14.4609V3.73828C1.88672 2.51953 2.53125 1.88672 3.70312 1.88672H26.1094C27.2812 1.88672 27.9258 2.51953 27.9258 3.73828V14.4609C27.9258 15.6797 27.2695 16.3125 26.1094 16.3125H3.70312Z" fill="black" fill-opacity="0.85"/>
</svg>
