<svg width="25" height="28" viewBox="0 0 25 28" fill="none" xmlns="http://www.w3.org/2000/svg">
<path d="M0 25.6523C0 26.8828 0.75 27.6914 1.91016 27.6914H4.41797C5.10938 27.6914 5.61328 27.3281 5.8125 26.6836L6.38672 24.7031H17.8242L18.3984 26.6836C18.5977 27.3281 19.1133 27.6914 19.8047 27.6914H22.3008C23.4609 27.6914 24.2109 26.8828 24.2109 25.6523V2.05078C24.2109 0.820312 23.4609 0.0117188 22.3008 0.0117188H19.8047C19.1133 0.0117188 18.5977 0.375 18.3984 1.01953L17.8242 3H6.38672L5.8125 1.01953C5.61328 0.375 5.10938 0.0117188 4.41797 0.0117188H1.91016C0.75 0.0117188 0 0.820312 0 2.05078V25.6523ZM10.7812 17.9297C10.2188 17.9297 9.83203 17.4023 9.38672 16.7695C8.85938 16.0195 8.4375 14.8711 8.4375 13.7695C8.4375 11.9883 9.57422 11.0625 10.7109 11.0625C11.3203 11.0625 11.8008 11.4492 12.1758 11.4492C12.5391 11.4492 13.1016 11.0391 13.7812 11.0391C14.0508 11.0391 14.9648 11.0625 15.5859 11.9414C15.5273 11.9766 14.6016 12.5156 14.6016 13.6758C14.6016 15.0234 15.7852 15.4922 15.8203 15.5039C15.8086 15.5508 15.6445 16.1719 15.1992 16.8047C14.8125 17.3438 14.4023 17.9297 13.7812 17.9297C13.1719 17.9297 12.9961 17.5664 12.2812 17.5664C11.6133 17.5664 11.3438 17.9297 10.7812 17.9297ZM12.2344 10.957C12.1758 10.957 12.1406 10.9453 12.1172 10.9219C12.1055 10.9102 12.1055 10.8398 12.1055 10.7695C12.1055 10.3008 12.3164 9.82031 12.5859 9.52734C12.9258 9.15234 13.4766 8.85938 13.9336 8.84766C13.9453 8.89453 13.9453 8.95312 13.9453 9.02344C13.9453 9.49219 13.7461 9.96094 13.4766 10.3008C13.1719 10.6758 12.6445 10.957 12.2344 10.957Z" fill="black" fill-opacity="0.85"/>
</svg>
