<svg width="29" height="16" viewBox="0 0 29 16" fill="none" xmlns="http://www.w3.org/2000/svg">
<path d="M3.67969 15.5625H25.0195C27.4688 15.5625 28.6992 14.3438 28.6992 11.9297V3.63281C28.6992 1.21875 27.4688 0 25.0195 0H3.67969C1.21875 0 0 1.20703 0 3.63281V11.9297C0 14.3555 1.21875 15.5625 3.67969 15.5625ZM4.20703 11.9883C3.75 11.9766 3.41016 11.6367 3.41016 11.1797V9.25781C3.41016 8.80078 3.76172 8.44922 4.20703 8.46094C4.64062 8.44922 5.00391 8.80078 5.00391 9.25781V11.1914C5.00391 11.625 4.65234 11.9766 4.20703 11.9883ZM7.13672 11.9883C6.67969 11.9766 6.32812 11.6367 6.32812 11.1797V9.25781C6.32812 8.80078 6.69141 8.44922 7.13672 8.46094C7.57031 8.44922 7.92188 8.80078 7.92188 9.25781V11.1914C7.92188 11.625 7.58203 11.9766 7.13672 11.9883ZM10.2539 11.0156C9.82031 11.0156 9.45703 10.6523 9.45703 10.2188C9.45703 9.78516 9.82031 9.43359 10.2539 9.43359H15.1523C15.5859 9.43359 15.9492 9.78516 15.9492 10.2188C15.9492 10.6523 15.5859 11.0156 15.1523 11.0156H10.2539ZM24.0234 11.6484C23.25 11.6602 22.5938 10.9922 22.5938 10.2305C22.5938 9.45703 23.25 8.80078 24.0234 8.80078C24.7734 8.80078 25.418 9.45703 25.418 10.2305C25.418 10.9922 24.7734 11.6367 24.0234 11.6484Z" fill="black" fill-opacity="0.85"/>
</svg>
