<svg width="21" height="28" viewBox="0 0 21 28" fill="none" xmlns="http://www.w3.org/2000/svg">
<path d="M0 24.1406C0 25.0547 0.199219 25.6055 1.06641 26.0273C3.07031 26.8945 5.83594 27.4688 9.15234 27.4688C12.4336 27.4688 16.125 26.9766 18.7734 25.6875C20.1797 25.0195 20.5195 24.3984 20.5195 22.9453V4.95703C20.5195 3.05859 19.6758 2.19141 17.8477 2.19141H16.7461V1.72266C16.7461 0.5625 16.1602 0 15.1289 0C14.7773 0 14.3555 0.0820312 13.8516 0.246094C10.3125 1.40625 7.07812 2.14453 2.92969 2.14453H1.99219C0.726562 2.14453 0 2.88281 0 4.03125V24.1406ZM4.16016 11.0273V7.06641C4.16016 6.90234 4.27734 6.76172 4.44141 6.75C7.17188 6.64453 9.60938 6.16406 12.1055 5.25C12.2461 5.19141 12.4922 5.25 12.4922 5.53125V9.66797C12.4922 9.77344 12.4336 9.87891 12.3281 9.91406C10.1484 10.8047 7.27734 11.3086 4.44141 11.3086C4.28906 11.3086 4.16016 11.2148 4.16016 11.0273ZM4.75781 25.4648C9.36328 25.3359 13.6406 24.0469 15.9609 22.2773C16.5 21.8672 16.7461 21.4453 16.7461 20.4141V4.07812H17.8594C18.375 4.07812 18.6328 4.35938 18.6328 4.95703V22.8164C18.6328 23.5195 18.5273 23.7773 17.8594 24.0703C15.5273 25.0898 12.2461 25.7461 9.15234 25.7461C7.67578 25.7461 6.28125 25.6641 4.75781 25.4648Z" fill="black" fill-opacity="0.85"/>
</svg>
