<svg width="24" height="24" viewBox="0 0 24 24" fill="none" xmlns="http://www.w3.org/2000/svg">
<path d="M11.9531 23.9062C18.4922 23.9062 23.9062 18.4805 23.9062 11.9531C23.9062 5.41406 18.4805 0 11.9414 0C5.41406 0 0 5.41406 0 11.9531C0 18.4805 5.42578 23.9062 11.9531 23.9062ZM11.9531 21.9141C6.42188 21.9141 2.00391 17.4844 2.00391 11.9531C2.00391 6.42188 6.41016 1.99219 11.9414 1.99219C17.4727 1.99219 21.9141 6.42188 21.9141 11.9531C21.9141 17.4844 17.4844 21.9141 11.9531 21.9141Z" fill="#007AFF"/>
<path d="M10.6758 15.4805C13.3594 15.4805 15.5508 13.2891 15.5508 10.6055C15.5508 7.92188 13.3594 5.73047 10.6758 5.73047C7.99219 5.73047 5.80078 7.93359 5.80078 10.6055C5.80078 13.2773 7.99219 15.4805 10.6758 15.4805ZM10.6758 13.8867C8.88281 13.8867 7.39453 12.3984 7.39453 10.6055C7.39453 8.8125 8.88281 7.32422 10.6758 7.32422C12.4688 7.32422 13.9453 8.80078 13.9453 10.6055C13.9453 12.3984 12.4688 13.8867 10.6758 13.8867ZM17.0977 18.0703C17.6602 18.0703 18.0469 17.6602 18.0469 17.0742C18.0469 16.8047 17.918 16.5586 17.7305 16.3594L14.0273 12.6328L12.5273 13.9922L16.2656 17.7188C16.5 17.9648 16.7578 18.0703 17.0977 18.0703Z" fill="black" fill-opacity="0.85"/>
</svg>
