<svg width="22" height="22" viewBox="0 0 22 22" fill="none" xmlns="http://www.w3.org/2000/svg">
<path d="M3.67969 21.5977H17.8945C20.3555 21.5977 21.5742 20.3789 21.5742 17.9648V3.65625C21.5742 1.24219 20.3555 0.0234375 17.8945 0.0234375H3.67969C1.23047 0.0234375 0 1.23047 0 3.65625V17.9648C0 20.3906 1.23047 21.5977 3.67969 21.5977Z" fill="#FFCC00"/>
<path d="M7.27734 16.3828C6.80859 16.3828 6.46875 16.0781 6.46875 15.5742V11.625C6.46875 8.44922 7.91016 6.64453 10.125 6.36328V5.10938C10.125 4.6875 10.4062 4.45312 10.793 4.45312C11.1328 4.45312 11.4492 4.6875 11.4492 5.10938V6.35156C13.6641 6.63281 15.1289 8.4375 15.1289 11.625V15.5742C15.1289 16.0781 14.8125 16.3828 14.332 16.3828C13.875 16.3828 13.5586 16.0781 13.5586 15.5742V11.7305C13.5586 9.44531 12.75 8.15625 11.4492 7.86328V15.7148C11.4492 16.1133 11.1328 16.3828 10.793 16.3828C10.4062 16.3828 10.125 16.1133 10.125 15.7148V7.875C8.84766 8.20312 8.0625 9.48047 8.0625 11.7305V15.5742C8.0625 16.0781 7.74609 16.3828 7.27734 16.3828Z" fill="black" fill-opacity="0.85"/>
</svg>
