<svg width="24" height="24" viewBox="0 0 24 24" fill="none" xmlns="http://www.w3.org/2000/svg">
<path d="M11.9531 23.9062C18.4922 23.9062 23.9062 18.4805 23.9062 11.9531C23.9062 5.41406 18.4805 0 11.9414 0C5.41406 0 0 5.41406 0 11.9531C0 18.4805 5.42578 23.9062 11.9531 23.9062Z" fill="#FFCC00"/>
<path d="M8.4375 17.543C7.96875 17.543 7.62891 17.2383 7.62891 16.7344V12.7852C7.62891 9.60938 9.07031 7.80469 11.2852 7.52344V6.26953C11.2852 5.84766 11.5664 5.61328 11.9531 5.61328C12.293 5.61328 12.6094 5.84766 12.6094 6.26953V7.51172C14.8242 7.79297 16.2891 9.59766 16.2891 12.7852V16.7344C16.2891 17.2383 15.9609 17.543 15.4922 17.543C15.0352 17.543 14.7188 17.2383 14.7188 16.7344V12.8906C14.7188 10.6055 13.9102 9.31641 12.6094 9.02344V16.875C12.6094 17.2734 12.293 17.543 11.9531 17.543C11.5664 17.543 11.2852 17.2734 11.2852 16.875V9.03516C9.99609 9.36328 9.22266 10.6406 9.22266 12.8906V16.7344C9.22266 17.2383 8.90625 17.543 8.4375 17.543Z" fill="black" fill-opacity="0.85"/>
</svg>
