<svg width="24" height="24" viewBox="0 0 24 24" fill="none" xmlns="http://www.w3.org/2000/svg">
<path d="M11.9531 23.9062C18.4922 23.9062 23.9062 18.4805 23.9062 11.9531C23.9062 5.41406 18.4805 0 11.9414 0C5.41406 0 0 5.41406 0 11.9531C0 18.4805 5.42578 23.9062 11.9531 23.9062ZM11.9531 21.9141C6.42188 21.9141 2.00391 17.4844 2.00391 11.9531C2.00391 6.42188 6.41016 1.99219 11.9414 1.99219C17.4727 1.99219 21.9141 6.42188 21.9141 11.9531C21.9141 17.4844 17.4844 21.9141 11.9531 21.9141Z" fill="#007AFF"/>
<path d="M8.53125 17.3672C8.98828 17.3672 9.29297 17.0742 9.29297 16.582V12.8555C9.29297 10.6758 10.043 9.43359 11.2969 9.11719V16.7227C11.2969 17.1094 11.5664 17.3672 11.9414 17.3672C12.2695 17.3672 12.5742 17.1094 12.5742 16.7227V9.10547C13.8398 9.39844 14.625 10.6406 14.625 12.8555V16.582C14.625 17.0742 14.9297 17.3672 15.375 17.3672C15.8203 17.3672 16.1367 17.0742 16.1367 16.582V12.7617C16.1367 9.66797 14.7188 7.92188 12.5742 7.65234V6.44531C12.5742 6.03516 12.2695 5.8125 11.9414 5.8125C11.5664 5.8125 11.2969 6.03516 11.2969 6.44531V7.66406C9.15234 7.93359 7.75781 9.67969 7.75781 12.7617V16.582C7.75781 17.0742 8.08594 17.3672 8.53125 17.3672Z" fill="black" fill-opacity="0.85"/>
</svg>
