<svg width="24" height="24" viewBox="0 0 24 24" fill="none" xmlns="http://www.w3.org/2000/svg">
<path d="M11.9531 23.9062C18.4922 23.9062 23.9062 18.4805 23.9062 11.9531C23.9062 5.41406 18.4805 0 11.9414 0C5.41406 0 0 5.41406 0 11.9531C0 18.4805 5.42578 23.9062 11.9531 23.9062ZM11.9531 21.9141C6.42188 21.9141 2.00391 17.4844 2.00391 11.9531C2.00391 6.42188 6.41016 1.99219 11.9414 1.99219C17.4727 1.99219 21.9141 6.42188 21.9141 11.9531C21.9141 17.4844 17.4844 21.9141 11.9531 21.9141Z" fill="#007AFF"/>
<path d="M5.57812 17.0156C5.57812 17.4727 5.82422 17.7305 6.26953 17.7305C6.43359 17.7305 6.58594 17.6719 6.78516 17.5664L9.35156 16.1719V6.05859C9.24609 6.10547 9.12891 6.16406 9 6.23438L6.10547 7.88672C5.71875 8.10939 5.57812 8.3672 5.57812 8.80079V17.0156ZM10.1836 16.0547L13.2656 17.7891C13.3594 17.8477 13.4648 17.8828 13.5469 17.9062V7.93359L10.5352 6.09375C10.418 6.02344 10.3125 5.97656 10.1836 5.95312V16.0547ZM14.3789 17.8828C14.4375 17.8711 14.4961 17.8477 14.5664 17.8125L17.7422 16.0078C18.1289 15.7852 18.2812 15.5273 18.2812 15.1055V6.85547C18.2812 6.41016 18.0234 6.16406 17.5898 6.16406C17.4258 6.16406 17.2734 6.22267 17.0742 6.32812L14.3789 7.81641V17.8828Z" fill="black" fill-opacity="0.85"/>
</svg>
