<svg width="24" height="24" viewBox="0 0 24 24" fill="none" xmlns="http://www.w3.org/2000/svg">
<path d="M11.9531 23.918C18.4922 23.918 23.9062 18.5039 23.9062 11.9648C23.9062 5.4375 18.4805 0.0117188 11.9414 0.0117188C5.41406 0.0117188 0 5.4375 0 11.9648C0 18.5039 5.42578 23.918 11.9531 23.918Z" fill="#FFCC00"/>
<path d="M9.1875 7.44141C9.1875 5.91797 10.4414 4.6875 11.9531 4.6875C13.4766 4.6875 14.7188 5.91797 14.7188 7.44141C14.7188 8.69531 13.8984 9.72656 12.7852 10.0547V16.1133C12.7852 17.918 12.5156 19.4766 11.9531 19.4766C11.4023 19.4766 11.1094 17.8828 11.1094 16.1133V10.0547C10.0078 9.71484 9.1875 8.68359 9.1875 7.44141ZM10.3711 6.73828C10.3711 7.20703 10.7812 7.61719 11.2383 7.61719C11.7188 7.61719 12.1172 7.20703 12.1172 6.73828C12.1172 6.25781 11.7188 5.84766 11.2383 5.84766C10.7812 5.84766 10.3594 6.25781 10.3711 6.73828Z" fill="black" fill-opacity="0.85"/>
</svg>
