<svg width="23" height="30" viewBox="0 0 23 30" fill="none" xmlns="http://www.w3.org/2000/svg">
<path d="M11.1445 27.668C17.6484 27.668 22.2539 25.5586 22.2539 22.5352C22.2539 19.5234 17.6484 17.4141 11.1445 17.4141C4.62891 17.4141 0 19.5234 0 22.5352C0 25.5586 4.62891 27.668 11.1445 27.668ZM11.1328 25.8164C6.21094 25.8164 2.39062 24.3867 2.39062 22.5352C2.39062 20.707 6.21094 19.2773 11.1328 19.2773C16.0312 19.2773 19.875 20.7188 19.875 22.5352C19.875 24.3633 16.0312 25.8164 11.1328 25.8164Z" fill="#007AFF"/>
<path d="M11.1328 24.0938C13.1133 24.0938 14.1445 22.1953 14.1445 18.5039V11.9414C16.125 10.8633 17.4609 8.76562 17.4609 6.35156C17.4609 2.87109 14.6367 0 11.1328 0C7.61719 0 4.79297 2.87109 4.79297 6.35156C4.79297 8.76562 6.11719 10.8516 8.09766 11.9414V18.5039C8.09766 22.1953 9.15234 24.0938 11.1328 24.0938Z" fill="white"/>
<path d="M6.72656 6.35156C6.72656 8.41406 8.13281 10.1367 10.043 10.6172V18.0352C10.043 21.4922 10.6523 23.3789 11.1328 23.3789C11.6016 23.3789 12.2109 21.5039 12.2109 18.0352V10.6172C14.1211 10.1484 15.5273 8.41406 15.5273 6.35156C15.5273 3.92578 13.5703 1.93359 11.1328 1.93359C8.68359 1.93359 6.72656 3.92578 6.72656 6.35156ZM9.86719 6.59766C9.07031 6.59766 8.36719 5.89453 8.36719 5.07422C8.36719 4.26562 9.07031 3.57422 9.86719 3.57422C10.6992 3.57422 11.3789 4.26562 11.3789 5.07422C11.3789 5.89453 10.6992 6.59766 9.86719 6.59766Z" fill="black" fill-opacity="0.85"/>
<path d="M9.86719 6.59766C9.07031 6.59766 8.36719 5.89453 8.36719 5.07422C8.36719 4.26562 9.07031 3.57422 9.86719 3.57422C10.6992 3.57422 11.3789 4.26562 11.3789 5.07422C11.3789 5.89453 10.6992 6.59766 9.86719 6.59766Z" fill="white"/>
</svg>
