<svg width="24" height="24" viewBox="0 0 24 24" fill="none" xmlns="http://www.w3.org/2000/svg">
<path d="M11.9531 23.9062C18.4922 23.9062 23.9062 18.4805 23.9062 11.9531C23.9062 5.41406 18.4805 0 11.9414 0C5.41406 0 0 5.41406 0 11.9531C0 18.4805 5.42578 23.9062 11.9531 23.9062ZM11.9531 21.9141C6.42188 21.9141 2.00391 17.4844 2.00391 11.9531C2.00391 6.42188 6.41016 1.99219 11.9414 1.99219C17.4727 1.99219 21.9141 6.42188 21.9141 11.9531C21.9141 17.4844 17.4844 21.9141 11.9531 21.9141Z" fill="#007AFF"/>
<path d="M9.26953 7.57031C9.26953 8.75391 10.0547 9.76172 11.1328 10.1016V15.9961C11.1328 17.707 11.4141 19.2305 11.9414 19.2305C12.4805 19.2305 12.7383 17.7305 12.7383 15.9961V10.1016C13.8281 9.77344 14.6133 8.76562 14.6133 7.57031C14.6133 6.09375 13.418 4.89844 11.9414 4.89844C10.4766 4.89844 9.26953 6.09375 9.26953 7.57031ZM10.4062 6.87891C10.3945 6.42188 10.8047 6.02344 11.25 6.02344C11.7188 6.02344 12.1055 6.42188 12.1055 6.87891C12.1055 7.33594 11.7188 7.73438 11.25 7.73438C10.8047 7.73438 10.4062 7.33594 10.4062 6.87891Z" fill="black" fill-opacity="0.85"/>
</svg>
