<svg width="24" height="24" viewBox="0 0 24 24" fill="none" xmlns="http://www.w3.org/2000/svg">
<path d="M11.9531 23.918C18.4922 23.918 23.9062 18.5039 23.9062 11.9648C23.9062 5.4375 18.4805 0.0117188 11.9414 0.0117188C5.41406 0.0117188 0 5.4375 0 11.9648C0 18.5039 5.42578 23.918 11.9531 23.918Z" fill="#FFCC00"/>
<path d="M9.43359 6.92578C9.43359 5.53125 10.5469 4.40625 11.9531 4.40625C13.3594 4.40625 14.4727 5.53125 14.4727 6.92578C14.4727 8.07422 13.6992 9.05859 12.6445 9.375V13.4297C12.6445 15.3633 12.3164 16.4414 11.9531 16.4414C11.6016 16.4414 11.2734 15.3516 11.2734 13.4297V9.375C10.207 9.05859 9.43359 8.07422 9.43359 6.92578ZM11.25 7.05469C11.707 7.05469 12.0703 6.67969 12.0703 6.22266C12.0703 5.77734 11.707 5.41406 11.25 5.41406C10.8398 5.41406 10.4414 5.77734 10.4414 6.22266C10.4414 6.67969 10.8398 7.05469 11.25 7.05469ZM11.9531 18.8086C8.02734 18.8086 5.71875 17.4375 5.71875 15.9492C5.71875 14.1328 8.58984 13.0781 10.4062 13.0898V14.2031C9.15234 14.1914 7.19531 14.8594 7.19531 15.7969C7.19531 16.8516 9.16406 17.6133 11.9531 17.6133C14.7305 17.6133 16.7227 16.8398 16.7227 15.7969C16.7227 14.8594 14.7539 14.1914 13.5 14.2031V13.0898C15.3164 13.0781 18.1875 14.1328 18.1875 15.9492C18.1875 17.4375 15.8789 18.8086 11.9531 18.8086Z" fill="black" fill-opacity="0.85"/>
</svg>
