<svg width="22" height="22" viewBox="0 0 22 22" fill="none" xmlns="http://www.w3.org/2000/svg">
<path d="M3.67969 21.5977H17.8945C20.3555 21.5977 21.5742 20.3789 21.5742 17.9648V3.65625C21.5742 1.24219 20.3555 0.0234375 17.8945 0.0234375H3.67969C1.23047 0.0234375 0 1.23047 0 3.65625V17.9648C0 20.3906 1.23047 21.5977 3.67969 21.5977Z" fill="#FFCC00"/>
<path d="M8.02734 6.26953C8.02734 4.74609 9.28125 3.51562 10.793 3.51562C12.3164 3.51562 13.5586 4.74609 13.5586 6.26953C13.5586 7.51172 12.75 8.54297 11.625 8.88281V14.9414C11.625 16.7344 11.3555 18.293 10.793 18.293C10.2422 18.293 9.94922 16.7109 9.94922 14.9414V8.88281C8.84766 8.53125 8.02734 7.5 8.02734 6.26953ZM9.21094 5.55469C9.21094 6.03516 9.62109 6.44532 10.0781 6.44532C10.5586 6.44532 10.957 6.03516 10.957 5.55469C10.9688 5.08594 10.5586 4.67578 10.0781 4.67578C9.62109 4.67578 9.19922 5.08594 9.21094 5.55469Z" fill="black" fill-opacity="0.85"/>
</svg>
