<svg width="21" height="26" viewBox="0 0 21 26" fill="none" xmlns="http://www.w3.org/2000/svg">
<path d="M6.4834 4.41797C6.4834 6.48047 7.87793 8.20312 9.78809 8.68359V19.5586C9.78809 23.0156 10.3975 24.9023 10.8779 24.9023C11.3467 24.9023 11.9561 23.0273 11.9561 19.5586V8.68359C13.8662 8.21484 15.2725 6.48047 15.2725 4.41797C15.2725 1.99219 13.3154 0 10.8779 0C8.42871 0 6.4834 1.99219 6.4834 4.41797ZM9.6123 4.66406C8.81543 4.66406 8.1123 3.96094 8.1123 3.14062C8.1123 2.33203 8.81543 1.64062 9.6123 1.64062C10.4443 1.64062 11.124 2.33203 11.124 3.14062C11.124 3.96094 10.4443 4.66406 9.6123 4.66406Z" fill="#007AFF"/>
<path d="M17.0186 23.7539C17.9209 24.6445 19.374 24.6445 20.2412 23.7305C21.1084 22.8516 21.1084 21.4219 20.2295 20.543L3.88184 4.20703C3.00293 3.31641 1.5498 3.31641 0.65918 4.20703C-0.219727 5.07422 -0.219727 6.53906 0.65918 7.41797L17.0186 23.7539Z" fill="white"/>
<path d="M17.9912 22.7812C18.3428 23.1328 18.9287 23.1328 19.2686 22.7812C19.6084 22.4297 19.6201 21.8672 19.2686 21.5039L2.9209 5.16799C2.56934 4.82814 1.9834 4.81643 1.63184 5.16799C1.29199 5.50783 1.29199 6.10549 1.63184 6.44533L17.9912 22.7812Z" fill="black" fill-opacity="0.85"/>
</svg>
