<svg width="26" height="26" viewBox="0 0 26 26" fill="none" xmlns="http://www.w3.org/2000/svg">
<path d="M2.23832 21.4658L4.46488 23.6924L5.7891 22.3564C8.77738 19.333 12.4219 20.3643 15.586 17.2002L24.1993 8.58691C26.1328 6.6416 26.1328 3.65332 24.1993 1.73145C22.2774 -0.20215 19.2774 -0.20215 17.3438 1.73145L8.73051 10.3447C5.40238 13.6729 6.59769 17.1416 3.58597 20.1299L2.23832 21.4658ZM7.18363 17.0127C7.81644 15.208 8.25004 13.333 9.98441 11.5986L18.5977 2.98535C19.8282 1.74316 21.7266 1.75488 22.9571 2.97363C24.1758 4.2041 24.1875 6.09082 22.9453 7.33301L14.3321 15.9463C12.586 17.6924 10.7813 18.1729 9.02347 18.8525L7.18363 17.0127ZM0.52738 23.1768C-0.187463 23.8916 -0.164026 24.7354 0.52738 25.415C1.19535 26.0947 2.06254 26.1064 2.76566 25.4033L3.37504 24.8057L1.12504 22.5791L0.52738 23.1768ZM12.7969 13.1689C13.5 13.8838 14.6602 13.8721 15.375 13.1572L18.8203 9.68848C19.5586 8.9502 19.5469 7.80176 18.8203 7.11035C18.1055 6.37207 16.9571 6.40723 16.2422 7.11035L12.7969 10.5674C12.0821 11.2705 12.0703 12.4424 12.7969 13.1689ZM13.5469 12.4072C13.2422 12.1025 13.2422 11.6338 13.5469 11.3174L16.9922 7.86035C17.2618 7.59082 17.6719 7.56738 17.9649 7.80176C18.3633 8.07129 18.4102 8.59863 18.0703 8.93848L14.6368 12.3955C14.3203 12.7002 13.8399 12.7002 13.5469 12.4072ZM10.3243 14.2822L11.6485 15.5947C11.9532 15.8994 12.375 15.8525 12.6211 15.6064C12.8907 15.3369 12.9258 14.9268 12.6211 14.6221L11.2969 13.3096C11.0039 13.0283 10.5821 13.04 10.3243 13.3096C10.0782 13.5674 10.0313 14.001 10.3243 14.2822ZM16.7344 2.8916L23.0391 9.19629L23.9414 8.28223L17.6368 1.96582L16.7344 2.8916Z" fill="black" fill-opacity="0.85"/>
</svg>
