<svg width="32" height="13" viewBox="0 0 32 13" fill="none" xmlns="http://www.w3.org/2000/svg">
<path d="M3.9375 12.0352H20.7539C23.7422 12.0352 24.6914 10.5938 24.6914 6.02344C24.6914 1.44141 23.7539 0 20.7539 0H3.9375C0.9375 0 0 1.44141 0 6.02344C0 10.5938 0.9375 12.0352 3.9375 12.0352ZM3.9375 5.17969C3.25781 5.17969 2.71875 4.64062 2.71875 3.96094C2.71875 3.29297 3.25781 2.76562 3.9375 2.76562C4.60547 2.76562 5.13281 3.29297 5.13281 3.96094C5.13281 4.64062 4.60547 5.17969 3.9375 5.17969Z" fill="black" fill-opacity="0.85"/>
<path d="M26.0156 9.32812H28.8633C30.2109 9.32812 31.1016 8.46094 31.1016 7.20703V4.81641C31.1016 3.57422 30.2109 2.69531 28.8633 2.69531H26.0156C26.2031 3.62109 26.2852 4.72266 26.2852 6.02344C26.2852 7.30078 26.1914 8.40234 26.0156 9.32812Z" fill="#007AFF"/>
</svg>
