<svg width="26" height="26" viewBox="0 0 26 26" fill="none" xmlns="http://www.w3.org/2000/svg">
<path d="M17.71 1.60829L24.2139 8.12391L24.2725 8.06532C26.0303 6.31923 25.8311 3.54188 24.0615 1.78407C22.292 0.0145415 19.5146 -0.184677 17.7686 1.54969L17.71 1.60829ZM2.26465 21.3427L4.47949 23.5575L5.94434 22.0927C8.89746 19.1513 12.3545 19.995 15.4365 16.913L23.2764 9.07313L16.749 2.54579L8.90918 10.3974C5.68652 13.62 6.68262 16.9247 3.72949 19.8778L2.26465 21.3427ZM12.7178 13.163C11.9561 12.4013 11.9795 11.206 12.7178 10.4677L16.2568 6.90516C16.9951 6.16688 18.1904 6.14344 18.917 6.90516C19.6787 7.62001 19.6787 8.8036 18.917 9.56532L15.3779 13.1395C14.6396 13.8778 13.4443 13.8895 12.7178 13.163ZM10.1748 14.3114C9.84668 14.0067 9.91699 13.5731 10.1748 13.3036C10.4443 13.0224 10.8545 12.9989 11.1709 13.3036L12.5303 14.6513C12.8467 14.956 12.7998 15.3895 12.5303 15.6708C12.2725 15.9286 11.8506 15.9638 11.5225 15.6474L10.1748 14.3114ZM13.5615 12.2958C13.8545 12.5888 14.2881 12.6708 14.6045 12.3661L18.1553 8.79188C18.4717 8.47548 18.3779 8.04188 18.085 7.76063C17.7686 7.46766 17.3232 7.43251 17.0068 7.74891L13.5615 11.206C13.2568 11.5106 13.2568 11.9911 13.5615 12.2958ZM0.518555 25.3036C1.18652 25.995 2.07715 25.995 2.75684 25.3036L3.36621 24.706L1.12793 22.4677L0.518555 23.077C-0.172852 23.7685 -0.172852 24.6474 0.518555 25.3036Z" fill="black" fill-opacity="0.85"/>
</svg>
