<svg width="27" height="25" viewBox="0 0 27 25" fill="none" xmlns="http://www.w3.org/2000/svg">
<path d="M0 12.3281C0 15.3867 1.69922 17.0625 4.91016 17.0625H8.97656C13.0312 17.5312 17.2852 18.8672 20.9648 21.1289V19.043C17.3789 16.8398 13.2422 15.6328 8.90625 15.1758H4.91016C2.76562 15.1758 1.88672 14.3438 1.88672 12.3281V10.6055C1.88672 8.57812 2.76562 7.75781 4.91016 7.75781H8.80078C13.2188 7.3125 17.4492 6.05859 20.9648 3.87891V1.80469C17.4375 4.05469 12.7266 5.47266 9.04688 5.87109H4.91016C1.69922 5.87109 0 7.52344 0 10.6055V12.3281ZM10.8984 16.9102H9.11719L10.1016 21.9023C10.1953 22.4297 9.92578 22.7695 9.55078 22.8984C9.15234 23.0391 8.63672 22.9102 8.36719 22.3477L5.71875 16.6875H3.79688L6.50391 22.6875C7.46484 24.832 9.12891 24.9609 10.2656 24.6094C11.4141 24.2461 12.1172 23.1797 11.8125 21.6211L10.8984 16.9102ZM7.39453 6.76172V16.1719H9.29297V6.76172H7.39453ZM20.2969 19.957C20.2969 21.6914 21.4688 22.8516 23.1914 22.8516C24.9375 22.8516 26.0977 21.6914 26.0977 19.957V2.89453C26.0977 1.16016 24.9375 0 23.1914 0C21.4688 0 20.2969 1.16016 20.2969 2.89453V19.957ZM22.1953 19.957V2.89453C22.1953 2.28516 22.582 1.88672 23.1914 1.88672C23.8008 1.88672 24.2109 2.28516 24.2109 2.89453V19.957C24.2109 20.5664 23.8008 20.9648 23.1914 20.9648C22.582 20.9648 22.1953 20.5664 22.1953 19.957Z" fill="black" fill-opacity="0.85"/>
</svg>
