<svg width="19" height="27" viewBox="0 0 19 27" fill="none" xmlns="http://www.w3.org/2000/svg">
<path d="M2.21484 24.263L15.0352 26.5247C17.332 26.9349 18.7266 25.6575 18.7266 23.138V8.99351C18.7266 6.69663 17.5547 5.8646 15.2695 5.46616L2.82422 3.26304C1.11328 2.97007 0 3.89585 0 5.58335V21.7083C0 23.1614 0.738281 24.0052 2.21484 24.263ZM4.32422 9.76694C3.92578 9.69663 3.69141 9.39194 3.69141 8.97007C3.69141 8.46616 4.07812 8.13804 4.64062 8.23179L13.8984 9.84897C14.3203 9.94272 14.5547 10.177 14.5547 10.6458C14.5547 11.1497 14.2031 11.5013 13.6289 11.4075L4.32422 9.76694ZM4.32422 14.4778C3.92578 14.4075 3.69141 14.1028 3.69141 13.681C3.69141 13.1888 4.07812 12.8606 4.64062 12.9544L13.8984 14.5716C14.3203 14.6536 14.5547 14.8997 14.5547 15.3567C14.5547 15.8724 14.2031 16.2239 13.6289 16.1302L4.32422 14.4778ZM5.41406 2.10288L15.5508 3.88413C16.5469 4.07163 17.3789 4.34116 18.0586 4.71616V3.8021C18.0586 1.34116 16.4062 0.157566 13.6289 0.649754L5.41406 2.10288Z" fill="black" fill-opacity="0.85"/>
</svg>
