<svg width="25" height="23" viewBox="0 0 25 23" fill="none" xmlns="http://www.w3.org/2000/svg">
<path d="M3.53808 22.2656H21.7139C23.6944 22.2656 24.9014 20.8828 24.9014 19.0898C24.9014 18.5391 24.749 17.9648 24.4444 17.4492L15.3506 1.60547C14.7529 0.539062 13.6983 0 12.6201 0C11.5537 0 10.499 0.539062 9.88965 1.60547L0.795898 17.4492C0.491211 17.9766 0.338867 18.5391 0.338867 19.0898C0.338867 20.8828 1.5459 22.2656 3.53808 22.2656ZM3.5498 20.4258C2.74121 20.4258 2.2373 19.793 2.2373 19.0781C2.2373 18.8555 2.28418 18.5742 2.41308 18.3281L11.4951 2.49609C11.7412 2.0625 12.1865 1.875 12.6201 1.875C13.0537 1.875 13.4873 2.0625 13.7334 2.49609L22.8154 18.3398C22.9444 18.5859 23.0147 18.8555 23.0147 19.0781C23.0147 19.793 22.499 20.4258 21.6787 20.4258H3.5498Z" fill="black" fill-opacity="0.85"/>
<path d="M13.5575 15.7969V5.87109C13.5575 5.28516 13.206 4.91016 12.62 4.91016C12.0458 4.91016 11.6943 5.28516 11.6943 5.87109V15.7969H13.5575Z" fill="black" fill-opacity="0.85"/>
<path d="M12.022 18.6797L15.5962 15.0703L4.35792 3.84373C3.3501 2.83592 1.83839 2.81248 0.783698 3.82029C-0.27099 4.86326 -0.247552 6.42186 0.771979 7.44139L12.022 18.6797Z" fill="white"/>
<path d="M2.40137 16.793L22.8623 16.7695L21.749 14.9766H3.51465L2.40137 16.793Z" fill="black" fill-opacity="0.85"/>
<path d="M12.0216 16.4062L13.3458 15.0703L3.23249 4.96877C2.83405 4.58205 2.31842 4.57033 1.90827 4.96877C1.48639 5.37893 1.50983 5.91799 1.90827 6.31643L12.0216 16.4062Z" fill="black" fill-opacity="0.85"/>
</svg>
