<svg width="25" height="27" viewBox="0 0 25 27" fill="none" xmlns="http://www.w3.org/2000/svg">
<path d="M7.99219 12.2695C7.99219 16.8633 11.0156 20.0859 15.4922 20.4609V23.1914H11.1445C10.6523 23.1914 10.2539 23.5898 10.2539 24.082C10.2539 24.5742 10.6523 24.9609 11.1445 24.9609H21.6094C22.1016 24.9609 22.5 24.5742 22.5 24.082C22.5 23.5898 22.1016 23.1914 21.6094 23.1914H17.2617V20.4609C21.7266 20.0859 24.7617 16.8633 24.7617 12.2695V9.89062C24.7617 9.39844 24.375 9.01172 23.8711 9.01172C23.3789 9.01172 22.9922 9.39844 22.9922 9.89062V12.1992C22.9922 16.1953 20.3906 18.8438 16.3711 18.8438C12.3633 18.8438 9.76172 16.1953 9.76172 12.1992V9.89062C9.76172 9.39844 9.36328 9.01172 8.87109 9.01172C8.37891 9.01172 7.99219 9.39844 7.99219 9.89062V12.2695ZM16.3711 16.3242C18.7148 16.3242 20.2852 14.5781 20.2852 12.082V4.24219C20.2852 1.73438 18.7148 0 16.3711 0C14.0391 0 12.4688 1.73438 12.4688 4.24219V12.082C12.4688 14.5781 14.0391 16.3242 16.3711 16.3242Z" fill="#007AFF"/>
<path d="M1.96875 6.05859C3.04688 6.05859 3.92578 5.17969 3.92578 4.10156C3.92578 3.01172 3.04688 2.13281 1.96875 2.13281C0.878906 2.13281 0 3.01172 0 4.10156C0 5.17969 0.878906 6.05859 1.96875 6.05859Z" fill="black" fill-opacity="0.85"/>
<path d="M1.96875 12.1523C3.04688 12.1523 3.92578 11.2734 3.92578 10.1953C3.92578 9.10547 3.04688 8.22656 1.96875 8.22656C0.878906 8.22656 0 9.10547 0 10.1953C0 11.2734 0.878906 12.1523 1.96875 12.1523Z" fill="black" fill-opacity="0.85"/>
<path d="M1.96875 18.2695C3.04688 18.2695 3.92578 17.3906 3.92578 16.3125C3.92578 15.2227 3.04688 14.3438 1.96875 14.3438C0.878906 14.3438 0 15.2227 0 16.3125C0 17.3906 0.878906 18.2695 1.96875 18.2695Z" fill="black" fill-opacity="0.85"/>
<path d="M1.96875 24.3633C3.04688 24.3633 3.92578 23.4844 3.92578 22.4062C3.92578 21.3164 3.04688 20.4375 1.96875 20.4375C0.878906 20.4375 0 21.3164 0 22.4062C0 23.4844 0.878906 24.3633 1.96875 24.3633Z" fill="black" fill-opacity="0.85"/>
</svg>
