<svg width="25" height="27" viewBox="0 0 25 27" fill="none" xmlns="http://www.w3.org/2000/svg">
<path d="M1.96875 6.17578C3.04688 6.17578 3.92578 5.29688 3.92578 4.21875C3.92578 3.12891 3.04688 2.25 1.96875 2.25C0.878906 2.25 0 3.12891 0 4.21875C0 5.29688 0.878906 6.17578 1.96875 6.17578Z" fill="black" fill-opacity="0.85"/>
<path d="M1.96875 12.2695C3.04688 12.2695 3.92578 11.3906 3.92578 10.3125C3.92578 9.22266 3.04688 8.34375 1.96875 8.34375C0.878906 8.34375 0 9.22266 0 10.3125C0 11.3906 0.878906 12.2695 1.96875 12.2695Z" fill="black" fill-opacity="0.85"/>
<path d="M1.96875 18.3867C3.04688 18.3867 3.92578 17.5078 3.92578 16.4297C3.92578 15.3398 3.04688 14.4609 1.96875 14.4609C0.878906 14.4609 0 15.3398 0 16.4297C0 17.5078 0.878906 18.3867 1.96875 18.3867Z" fill="black" fill-opacity="0.85"/>
<path d="M1.96875 24.4805C3.04688 24.4805 3.92578 23.6016 3.92578 22.5234C3.92578 21.4336 3.04688 20.5547 1.96875 20.5547C0.878906 20.5547 0 21.4336 0 22.5234C0 23.6016 0.878906 24.4805 1.96875 24.4805Z" fill="black" fill-opacity="0.85"/>
<path d="M7.88672 12.3867C7.88672 16.9805 10.9102 20.2031 15.3867 20.5781V23.3086H11.0391C10.5469 23.3086 10.1484 23.707 10.1484 24.1992C10.1484 24.6914 10.5469 25.0781 11.0391 25.0781H21.5039C21.9961 25.0781 22.3945 24.6914 22.3945 24.1992C22.3945 23.707 21.9961 23.3086 21.5039 23.3086H17.1562V20.5781C21.6211 20.2031 24.6562 16.9805 24.6562 12.3867V10.0078C24.6562 9.51562 24.2695 9.12891 23.7656 9.12891C23.2734 9.12891 22.8867 9.51562 22.8867 10.0078V12.3164C22.8867 16.3125 20.2852 18.9609 16.2656 18.9609C12.2578 18.9609 9.65625 16.3125 9.65625 12.3164V10.0078C9.65625 9.51562 9.25781 9.12891 8.76562 9.12891C8.27344 9.12891 7.88672 9.51562 7.88672 10.0078V12.3867ZM12.0117 11.9648C12.0117 14.6602 13.7461 16.5586 16.2656 16.5586C18.7969 16.5586 20.5312 14.6602 20.5312 11.9648V4.59375C20.5312 1.88672 18.7969 0 16.2656 0C13.7461 0 12.0117 1.88672 12.0117 4.59375V11.9648ZM13.7812 11.9648V4.59375C13.7812 2.85938 14.7656 1.74609 16.2656 1.74609C17.7656 1.74609 18.7617 2.85938 18.7617 4.59375V11.9648C18.7617 13.6992 17.7656 14.8125 16.2656 14.8125C14.7656 14.8125 13.7812 13.6992 13.7812 11.9648Z" fill="#007AFF"/>
</svg>
