<svg width="22" height="22" viewBox="0 0 22 22" fill="none" xmlns="http://www.w3.org/2000/svg">
<path d="M3.67969 21.5977H17.8945C20.3555 21.5977 21.5742 20.3789 21.5742 17.9648V3.65625C21.5742 1.24219 20.3555 0.0234375 17.8945 0.0234375H3.67969C1.23047 0.0234375 0 1.23047 0 3.65625V17.9648C0 20.3906 1.23047 21.5977 3.67969 21.5977ZM3.70312 19.7109C2.53125 19.7109 1.88672 19.0898 1.88672 17.8711V3.75C1.88672 2.53125 2.53125 1.91016 3.70312 1.91016H17.8711C19.0312 1.91016 19.6875 2.53125 19.6875 3.75V17.8711C19.6875 19.0898 19.0312 19.7109 17.8711 19.7109H3.70312Z" fill="#007AFF"/>
<path d="M7.81641 17.8359H13.7812C14.1094 17.8359 14.4141 17.5312 14.4141 17.2031C14.4141 16.8633 14.1211 16.5703 13.7812 16.5703H11.4375V15.3867C13.7695 15.1172 15.3281 13.3477 15.3281 10.9688V9.45703C15.3281 9.12891 15.0352 8.84766 14.707 8.84766C14.3672 8.84766 14.0859 9.12891 14.0859 9.45703V10.9688C14.0859 12.8906 12.7383 14.2383 10.793 14.2383C8.85938 14.2383 7.51172 12.8906 7.51172 10.9688V9.45703C7.51172 9.12891 7.23047 8.84766 6.89062 8.84766C6.55078 8.84766 6.26953 9.12891 6.26953 9.45703V10.9688C6.26953 13.3477 7.83984 15.1289 10.1719 15.3867V16.5703H7.81641C7.47656 16.5703 7.18359 16.8633 7.18359 17.2031C7.18359 17.543 7.47656 17.8359 7.81641 17.8359ZM10.793 13.0547C11.9414 13.0547 12.7383 12.1641 12.7383 10.9688V5.94141C12.7383 4.75781 11.9414 3.87891 10.793 3.87891C9.64453 3.87891 8.84766 4.75781 8.84766 5.94141V10.9688C8.84766 12.1641 9.64453 13.0547 10.793 13.0547Z" fill="black" fill-opacity="0.85"/>
</svg>
