<svg width="22" height="22" viewBox="0 0 22 22" fill="none" xmlns="http://www.w3.org/2000/svg">
<path d="M3.67969 21.5977H17.8945C20.3555 21.5977 21.5742 20.3789 21.5742 17.9648V3.65625C21.5742 1.24219 20.3555 0.0234375 17.8945 0.0234375H3.67969C1.23047 0.0234375 0 1.23047 0 3.65625V17.9648C0 20.3906 1.23047 21.5977 3.67969 21.5977Z" fill="#FFCC00"/>
<path d="M7.72266 18.0469C7.37109 18.0469 7.06641 17.7539 7.06641 17.4023C7.06641 17.0508 7.37109 16.7461 7.72266 16.7461H10.1484V15.5273C7.74609 15.2578 6.12891 13.4297 6.12891 10.9688V9.41016C6.12891 9.07031 6.43359 8.77734 6.77344 8.77734C7.125 8.77734 7.40625 9.07031 7.40625 9.41016V10.9688C7.40625 12.9492 8.80078 14.3438 10.793 14.3438C12.7969 14.3438 14.1914 12.9492 14.1914 10.9688V9.41016C14.1914 9.07031 14.4727 8.77734 14.8242 8.77734C15.1641 8.77734 15.4688 9.07031 15.4688 9.41016V10.9688C15.4688 13.4297 13.8633 15.2461 11.4609 15.5273V16.7461H13.875C14.2266 16.7461 14.5312 17.0508 14.5312 17.4023C14.5312 17.7422 14.2148 18.0469 13.875 18.0469H7.72266ZM10.793 13.125C9.60938 13.125 8.78906 12.1992 8.78906 10.9688V5.78906C8.78906 4.57031 9.60938 3.66797 10.793 3.66797C11.9766 3.66797 12.7969 4.57031 12.7969 5.78906V10.9688C12.7969 12.1992 11.9766 13.125 10.793 13.125Z" fill="black" fill-opacity="0.85"/>
</svg>
