<svg width="24" height="24" viewBox="0 0 24 24" fill="none" xmlns="http://www.w3.org/2000/svg">
<path d="M11.9531 23.9062C18.4922 23.9062 23.9062 18.4805 23.9062 11.9531C23.9062 5.41406 18.4805 0 11.9414 0C5.41406 0 0 5.41406 0 11.9531C0 18.4805 5.42578 23.9062 11.9531 23.9062ZM11.9531 21.9141C6.42188 21.9141 2.00391 17.4844 2.00391 11.9531C2.00391 6.42188 6.41016 1.99219 11.9414 1.99219C17.4727 1.99219 21.9141 6.42188 21.9141 11.9531C21.9141 17.4844 17.4844 21.9141 11.9531 21.9141Z" fill="#007AFF"/>
<path d="M11.9531 15.9961C14.1797 15.9961 15.9961 14.1797 15.9961 11.9531C15.9961 9.72656 14.1797 7.91016 11.9531 7.91016C9.72656 7.91016 7.91016 9.72656 7.91016 11.9531C7.91016 14.1797 9.72656 15.9961 11.9531 15.9961ZM11.9648 6.84375C12.4453 6.84375 12.7969 6.49219 12.7969 6C12.7969 5.51953 12.4453 5.16797 11.9648 5.16797C11.4844 5.16797 11.1328 5.51953 11.1328 6C11.1328 6.49219 11.4844 6.84375 11.9648 6.84375ZM14.9531 7.62891C15.4336 7.62891 15.7852 7.27734 15.7852 6.79688C15.7852 6.31641 15.4336 5.96484 14.9531 5.96484C14.4727 5.96484 14.1211 6.31641 14.1211 6.79688C14.1211 7.27734 14.4727 7.62891 14.9531 7.62891ZM17.1211 9.80859C17.6016 9.80859 17.9531 9.45703 17.9531 8.97656C17.9531 8.49609 17.6016 8.14453 17.1211 8.14453C16.6406 8.14453 16.2891 8.49609 16.2891 8.97656C16.2891 9.45703 16.6406 9.80859 17.1211 9.80859ZM17.918 12.7852C18.3984 12.7852 18.75 12.4336 18.75 11.9531C18.75 11.4727 18.3984 11.1211 17.918 11.1211C17.4375 11.1211 17.0859 11.4727 17.0859 11.9531C17.0859 12.4336 17.4375 12.7852 17.918 12.7852ZM17.1211 15.7617C17.6016 15.7617 17.9531 15.4102 17.9531 14.9297C17.9531 14.4492 17.6016 14.0977 17.1211 14.0977C16.6406 14.0977 16.2891 14.4492 16.2891 14.9297C16.2891 15.4102 16.6406 15.7617 17.1211 15.7617ZM14.9531 17.9414C15.4336 17.9414 15.7852 17.5898 15.7852 17.0977C15.7852 16.6172 15.4336 16.2656 14.9531 16.2656C14.4727 16.2656 14.1211 16.6172 14.1211 17.0977C14.1211 17.5898 14.4727 17.9414 14.9531 17.9414ZM11.9648 18.7266C12.4453 18.7266 12.7969 18.375 12.7969 17.8945C12.7969 17.4141 12.4453 17.0625 11.9648 17.0625C11.4844 17.0625 11.1328 17.4141 11.1328 17.8945C11.1328 18.375 11.4844 18.7266 11.9648 18.7266ZM8.98828 17.9414C9.46875 17.9414 9.82031 17.5898 9.82031 17.0977C9.82031 16.6172 9.46875 16.2656 8.98828 16.2656C8.50781 16.2656 8.15625 16.6172 8.15625 17.0977C8.15625 17.5898 8.50781 17.9414 8.98828 17.9414ZM6.80859 15.7617C7.30078 15.7617 7.65234 15.4102 7.65234 14.9297C7.65234 14.4492 7.30078 14.0977 6.80859 14.0977C6.32812 14.0977 5.97656 14.4492 5.97656 14.9297C5.97656 15.4102 6.32812 15.7617 6.80859 15.7617ZM6.02344 12.7852C6.50391 12.7852 6.85547 12.4336 6.85547 11.9531C6.85547 11.4727 6.50391 11.1211 6.02344 11.1211C5.54297 11.1211 5.19141 11.4727 5.19141 11.9531C5.19141 12.4336 5.54297 12.7852 6.02344 12.7852ZM6.80859 9.80859C7.30078 9.80859 7.65234 9.45703 7.65234 8.97656C7.65234 8.49609 7.30078 8.14453 6.80859 8.14453C6.32812 8.14453 5.97656 8.49609 5.97656 8.97656C5.97656 9.45703 6.32812 9.80859 6.80859 9.80859ZM8.98828 7.62891C9.46875 7.62891 9.82031 7.27734 9.82031 6.79688C9.82031 6.31641 9.46875 5.96484 8.98828 5.96484C8.50781 5.96484 8.15625 6.31641 8.15625 6.79688C8.15625 7.27734 8.50781 7.62891 8.98828 7.62891Z" fill="black" fill-opacity="0.85"/>
</svg>
