<svg width="28" height="18" viewBox="0 0 28 18" fill="none" xmlns="http://www.w3.org/2000/svg">
<path d="M2.35547 17.6602H18.4922V0.0117188H2.35547C0.949219 0.0117188 0 0.984375 0 2.46094V15.2109C0 16.6875 0.949219 17.6602 2.35547 17.6602ZM3.59766 14.8125C2.90625 14.8125 2.46094 14.3672 2.46094 13.6758V3.99609C2.46094 3.30469 2.90625 2.85938 3.59766 2.85938H15.2578C15.9492 2.85938 16.3945 3.30469 16.3945 3.99609V13.6758C16.3945 14.3672 15.9492 14.8125 15.2578 14.8125H3.59766ZM4.07812 13.5117H14.7656C14.9531 13.5117 15.0938 13.3828 15.0938 13.1953V4.47656C15.0938 4.28906 14.9531 4.16016 14.7656 4.16016H4.07812C3.90234 4.16016 3.76172 4.28906 3.76172 4.47656V13.1953C3.76172 13.3828 3.90234 13.5117 4.07812 13.5117ZM19.793 12.1875H27.3164V2.46094C27.3164 0.984375 26.3672 0.0117188 24.9609 0.0117188H19.793V12.1875ZM21.7266 5.21484C21.5977 5.21484 21.4922 5.12109 21.4922 4.99219V3.09375C21.4922 2.97656 21.5977 2.85938 21.7266 2.85938H25.207C25.3359 2.85938 25.4414 2.97656 25.4414 3.09375V4.99219C25.4414 5.12109 25.3359 5.21484 25.207 5.21484H21.7266ZM22.1133 7.35938C21.75 7.35938 21.4922 7.11328 21.4922 6.75C21.4922 6.375 21.75 6.12891 22.1133 6.12891H24.8203C25.1836 6.12891 25.4414 6.375 25.4414 6.75C25.4414 7.11328 25.1836 7.35938 24.8203 7.35938H22.1133ZM22.1133 9.51562C21.75 9.51562 21.4922 9.26953 21.4922 8.89453C21.4922 8.53125 21.75 8.29688 22.1133 8.29688H24.8203C25.1836 8.29688 25.4414 8.53125 25.4414 8.89453C25.4414 9.26953 25.1836 9.51562 24.8203 9.51562H22.1133ZM19.793 17.6602H24.9609C26.3672 17.6602 27.3164 16.6875 27.3164 15.2109V13.4883H19.793V17.6602Z" fill="black" fill-opacity="0.85"/>
</svg>
