<svg width="17" height="28" viewBox="0 0 17 28" fill="none" xmlns="http://www.w3.org/2000/svg">
<path d="M1.04297 21.4219C1.69922 21.4219 2.10938 20.9766 2.10938 20.3438V11.8008C2.10938 9.72656 3.15234 8.05078 4.91016 8.05078C6.57422 8.05078 7.34766 9.33984 7.34766 11.0625V20.3438C7.34766 20.9766 7.74609 21.4219 8.39062 21.4219C9.04688 21.4219 9.45703 20.9766 9.45703 20.3438V11.5664C9.45703 9.57422 10.4766 8.05078 12.2344 8.05078C13.9805 8.05078 14.707 9.32812 14.707 11.25V20.3438C14.707 20.9766 15.1055 21.4219 15.75 21.4219C16.4062 21.4219 16.8164 20.9766 16.8164 20.3438V10.7812C16.8164 8.0625 15.3398 6.1875 12.7617 6.1875C10.8281 6.1875 9.375 7.33594 8.96484 9.09375H8.91797C8.54297 7.27734 7.35938 6.1875 5.42578 6.1875C3.65625 6.1875 2.44922 7.3125 2.03906 9H1.99219V7.30078C1.99219 6.67969 1.55859 6.24609 0.996094 6.24609C0.398438 6.24609 0 6.67969 0 7.30078V20.3438C0 20.9766 0.398438 21.4219 1.04297 21.4219ZM1.76953 27.4102C2.19141 27.4102 2.39062 27.1641 2.54297 26.8008L13.1836 1.61719C13.2539 1.47656 13.2891 1.30078 13.2891 1.16016C13.2891 0.738281 12.9844 0.46875 12.5625 0.46875C12.1758 0.46875 11.9531 0.714844 11.8008 1.07812L1.16016 26.2734C1.08984 26.4023 1.05469 26.5781 1.05469 26.7305C1.05469 27.1523 1.35938 27.4102 1.76953 27.4102Z" fill="black" fill-opacity="0.85"/>
</svg>
