<svg width="22" height="22" viewBox="0 0 22 22" fill="none" xmlns="http://www.w3.org/2000/svg">
<path d="M3.67969 21.5977H17.8945C20.3555 21.5977 21.5742 20.3789 21.5742 17.9648V3.65625C21.5742 1.24219 20.3555 0.0234375 17.8945 0.0234375H3.67969C1.23047 0.0234375 0 1.23047 0 3.65625V17.9648C0 20.3906 1.23047 21.5977 3.67969 21.5977Z" fill="#FFCC00"/>
<path d="M6.94922 15.1641C6.50391 15.1641 6.1875 14.8594 6.1875 14.4258V7.57031C6.1875 7.11328 6.49219 6.80859 6.91406 6.80859C7.32422 6.80859 7.62891 7.07812 7.62891 7.60547V7.74609C7.99219 7.07812 8.55469 6.77344 9.24609 6.77344C10.0078 6.77344 10.6172 7.10156 10.9453 7.79297L12.4219 4.19531C12.5391 3.92578 12.7148 3.76172 12.9961 3.76172C13.3242 3.76172 13.582 3.99609 13.582 4.3125C13.582 4.42969 13.5469 4.54688 13.5117 4.64062L12.5859 6.86719C12.75 6.80859 12.9258 6.77344 13.1133 6.77344C14.5195 6.77344 15.4219 7.75781 15.4219 9.375V14.3906C15.4219 14.8594 15.1055 15.1641 14.6719 15.1641C14.2383 15.1641 13.9336 14.8594 13.9336 14.3906V9.49219C13.9336 8.66016 13.5 8.13281 12.7617 8.13281C12.0117 8.13281 11.5547 8.68359 11.5547 9.53906V14.3906C11.5547 14.8594 11.25 15.1641 10.8164 15.1641C10.3828 15.1641 10.0664 14.8594 10.0664 14.3906V13.3359L8.60156 17.3906C8.49609 17.6719 8.29688 17.8359 8.02734 17.8359C7.69922 17.8359 7.45312 17.5898 7.45312 17.2734C7.45312 17.1562 7.47656 17.0391 7.52344 16.9336L10.0664 9.90234V9.41016C10.0664 8.66016 9.59766 8.12109 8.92969 8.12109C8.15625 8.12109 7.69922 8.71875 7.69922 9.59766V14.3906C7.69922 14.8594 7.38281 15.1641 6.94922 15.1641Z" fill="black" fill-opacity="0.85"/>
</svg>
