<svg width="24" height="24" viewBox="0 0 24 24" fill="none" xmlns="http://www.w3.org/2000/svg">
<path d="M11.9531 23.9062C18.4922 23.9062 23.9062 18.4805 23.9062 11.9531C23.9062 5.41406 18.4805 0 11.9414 0C5.41406 0 0 5.41406 0 11.9531C0 18.4805 5.42578 23.9062 11.9531 23.9062Z" fill="#FFCC00"/>
<path d="M8.10938 16.3242C7.66406 16.3242 7.34766 16.0195 7.34766 15.5859V8.73046C7.34766 8.27343 7.65234 7.96875 8.07422 7.96875C8.48438 7.96875 8.78906 8.23828 8.78906 8.76562V8.90625C9.15234 8.23828 9.71484 7.93359 10.3945 7.93359C11.168 7.93359 11.7656 8.26172 12.1055 8.95312L13.582 5.35547C13.6992 5.08594 13.875 4.92188 14.1445 4.92188C14.4727 4.92188 14.7422 5.15625 14.7422 5.47266C14.7422 5.58984 14.707 5.70703 14.6719 5.80078L13.7461 8.02734C13.9102 7.96875 14.0742 7.93359 14.2734 7.93359C15.6797 7.93359 16.582 8.91797 16.582 10.5352V15.5508C16.582 16.0195 16.2656 16.3242 15.832 16.3242C15.3984 16.3242 15.0938 16.0195 15.0938 15.5508V10.6523C15.0938 9.8203 14.6602 9.29296 13.9219 9.29296C13.1719 9.29296 12.7148 9.84374 12.7148 10.6992V15.5508C12.7148 16.0195 12.4102 16.3242 11.9648 16.3242C11.5312 16.3242 11.2266 16.0195 11.2266 15.5508V14.4961L9.76172 18.5508C9.65625 18.832 9.45703 18.9961 9.1875 18.9961C8.85938 18.9961 8.61328 18.75 8.61328 18.4336C8.61328 18.3164 8.63672 18.1992 8.68359 18.0938L11.2266 11.0625V10.5703C11.2266 9.82031 10.7578 9.28125 10.0898 9.28125C9.31641 9.28125 8.84766 9.87891 8.84766 10.7578V15.5508C8.84766 16.0195 8.54297 16.3242 8.10938 16.3242Z" fill="black" fill-opacity="0.85"/>
</svg>
