<svg width="28" height="22" viewBox="0 0 28 22" fill="none" xmlns="http://www.w3.org/2000/svg">
<path d="M3.67969 21.5742H23.9531C26.4141 21.5742 27.6328 20.3672 27.6328 17.9531V3.63281C27.6328 1.21875 26.4141 0 23.9531 0H3.67969C1.23047 0 0 1.21875 0 3.63281V17.9531C0 20.3672 1.23047 21.5742 3.67969 21.5742Z" fill="#FFCC00"/>
<path d="M9.09375 11.8242C8.41406 11.8242 7.93359 11.4609 7.93359 10.8164C7.93359 10.1602 8.39062 9.78516 9.09375 9.78516H18.5625C19.2773 9.78516 19.7109 10.1602 19.7109 10.8164C19.7109 11.4609 19.2422 11.8242 18.5625 11.8242H9.09375Z" fill="black" fill-opacity="0.85"/>
</svg>
