<svg width="28" height="22" viewBox="0 0 28 22" fill="none" xmlns="http://www.w3.org/2000/svg">
<path d="M5.98828 12.5156H10.875C11.3555 12.5156 11.7305 12.1406 11.7305 11.6602C11.7305 11.1797 11.3555 10.793 10.875 10.793H5.98828C5.50781 10.793 5.12109 11.1797 5.12109 11.6602C5.12109 12.1406 5.50781 12.5156 5.98828 12.5156ZM19.1836 15.1875C19.6641 15.1875 20.0391 14.8125 20.0391 14.332V12.5156H21.8555C22.3359 12.5156 22.7227 12.1406 22.7227 11.6602C22.7227 11.1797 22.3359 10.793 21.8555 10.793H20.0391V8.97656C20.0391 8.49609 19.6641 8.12109 19.1836 8.12109C18.7031 8.12109 18.3164 8.49609 18.3164 8.97656V10.793H16.5C16.0195 10.793 15.6445 11.1797 15.6445 11.6602C15.6445 12.1406 16.0195 12.5156 16.5 12.5156H18.3164V14.332C18.3164 14.8125 18.7031 15.1875 19.1836 15.1875ZM3.02344 20.7188H24.6445C26.0508 20.7188 26.9766 19.7227 26.9766 18.2695V17.8594C25.7812 17.8359 24.7852 17.3672 24.1406 16.6406C23.8828 16.3359 23.5898 16.3477 23.332 16.6406C22.6289 17.4258 21.5742 17.8711 20.4375 17.8711C19.3008 17.8711 18.2461 17.4258 17.543 16.6406C17.2852 16.3477 16.9922 16.3359 16.7344 16.6406C16.0664 17.3906 15 17.8711 13.8164 17.8711C12.6328 17.8711 11.5664 17.3906 10.8984 16.6406C10.6406 16.3359 10.3594 16.3477 10.0898 16.6406C9.38672 17.4258 8.33203 17.8711 7.19531 17.8711C6.05859 17.8711 5.01562 17.4258 4.30078 16.6406C4.04297 16.3477 3.75 16.3359 3.49219 16.6406C2.84766 17.3672 1.86328 17.8359 0.65625 17.8594V18.2695C0.65625 19.7227 1.58203 20.7188 3.02344 20.7188ZM3.67969 21.5742H23.9531C26.4141 21.5742 27.6328 20.3672 27.6328 17.9531V6.62109C27.6328 4.20703 26.4141 3 23.9531 3H22.3359V1.42969C22.3359 0.539062 21.8203 0 20.918 0H17.4609C16.5703 0 16.0547 0.539062 16.0547 1.42969V3H11.5898V1.42969C11.5898 0.539062 11.0742 0 10.1719 0H6.71484C5.8125 0 5.30859 0.539062 5.30859 1.42969V3H3.67969C1.23047 3 0 4.20703 0 6.62109V17.9531C0 20.3672 1.23047 21.5742 3.67969 21.5742ZM1.88672 17.8477V6.72656C1.88672 5.50781 2.53125 4.88672 3.70312 4.88672H23.9297C25.0898 4.88672 25.7461 5.50781 25.7461 6.72656V17.8477C25.7461 19.0664 25.0898 19.6875 23.9297 19.6875H3.70312C2.53125 19.6875 1.88672 19.0664 1.88672 17.8477Z" fill="black" fill-opacity="0.85"/>
</svg>
