<svg width="24" height="24" viewBox="0 0 24 24" fill="none" xmlns="http://www.w3.org/2000/svg">
<path d="M11.9531 23.9062C18.4922 23.9062 23.9062 18.4805 23.9062 11.9531C23.9062 5.41406 18.4805 0 11.9414 0C5.41406 0 0 5.41406 0 11.9531C0 18.4805 5.42578 23.9062 11.9531 23.9062ZM11.9531 21.9141C6.42188 21.9141 2.00391 17.4844 2.00391 11.9531C2.00391 6.42188 6.41016 1.99219 11.9414 1.99219C17.4727 1.99219 21.9141 6.42188 21.9141 11.9531C21.9141 17.4844 17.4844 21.9141 11.9531 21.9141Z" fill="#007AFF"/>
<path d="M7.34766 12.9492H16.5469C17.2031 12.9492 17.6484 12.5977 17.6484 11.9766C17.6484 11.3438 17.2266 10.9805 16.5469 10.9805H7.34766C6.66797 10.9805 6.23438 11.3438 6.23438 11.9766C6.23438 12.5977 6.69141 12.9492 7.34766 12.9492Z" fill="black" fill-opacity="0.85"/>
</svg>
