<svg width="28" height="22" viewBox="0 0 28 22" fill="none" xmlns="http://www.w3.org/2000/svg">
<path d="M3.67969 21.5742H23.9531C26.4141 21.5742 27.6328 20.3672 27.6328 17.9531V6.62109C27.6328 4.20703 26.4141 3 23.9531 3H22.3359V1.42969C22.3359 0.539062 21.8203 0 20.918 0H17.4609C16.5703 0 16.0547 0.539062 16.0547 1.42969V3H11.5898V1.42969C11.5898 0.539062 11.0742 0 10.1719 0H6.71484C5.8125 0 5.30859 0.539062 5.30859 1.42969V3H3.67969C1.23047 3 0 4.20703 0 6.62109V17.9531C0 20.3672 1.23047 21.5742 3.67969 21.5742Z" fill="#FFCC00"/>
<path d="M5.74219 13.1836C5.23828 13.1836 4.83984 12.7969 4.83984 12.293C4.83984 11.7773 5.23828 11.3906 5.74219 11.3906H10.7695C11.2734 11.3906 11.6602 11.7773 11.6602 12.293C11.6602 12.7969 11.2734 13.1836 10.7695 13.1836H5.74219ZM19.3477 15.9375C18.8555 15.9375 18.4453 15.5508 18.4453 15.0469V13.1836H16.582C16.0781 13.1836 15.6914 12.7969 15.6914 12.293C15.6914 11.7773 16.0781 11.3906 16.582 11.3906H18.4453V9.52734C18.4453 9.02344 18.8555 8.625 19.3477 8.625C19.8516 8.625 20.2383 9.02344 20.2383 9.52734V11.3906H22.1016C22.6055 11.3906 23.0039 11.7773 23.0039 12.293C23.0039 12.7969 22.6055 13.1836 22.1016 13.1836H20.2383V15.0469C20.2383 15.5508 19.8516 15.9375 19.3477 15.9375Z" fill="black" fill-opacity="0.85"/>
</svg>
