<svg width="33" height="25" viewBox="0 0 33 25" fill="none" xmlns="http://www.w3.org/2000/svg">
<path d="M0 13.1498C0 18.0833 2.88281 20.6732 7.89844 20.6732H25.6992C27.5039 20.6732 29.0391 20.849 30.4688 21.2123C31.6992 21.5169 32.6719 21.013 32.6719 19.7591V14.1458C32.6719 13.349 32.0977 12.763 31.2891 12.763H28.2539C27.2812 12.763 26.8008 12.3412 26.8945 11.4271L27.2461 7.99353C27.5391 5.13416 25.9102 3.39978 22.7227 3.39978C19.0312 3.4115 12.2227 3.55212 8.33203 4.00916C3 4.66541 0 7.92322 0 13.1498ZM1.88672 13.1498C1.88672 9.01306 4.24219 6.39978 8.49609 5.90759C12.3398 5.474 19.043 5.2865 22.7227 5.2865C24.75 5.2865 25.5703 6.10681 25.3828 7.78259L24.457 16.1029C24.2344 18.0716 23.3906 18.7865 21.2344 18.7865H7.86328C4.10156 18.7865 1.88672 16.8412 1.88672 13.1498Z" fill="#007AFF"/>
<path d="M8.97575 23.9076C8.507 23.2748 8.3195 22.888 8.3195 22.1615C8.3195 20.4505 9.96013 19.4779 9.96013 17.2162C9.96013 15.1771 8.43669 14.6732 8.43669 12.2474V11.8138H7.14763V12.2474C7.14763 15.2943 8.67107 15.6458 8.67107 17.2162C8.67107 19.1966 7.03044 19.9818 7.03044 22.2552C7.03044 23.1927 7.32341 23.8958 7.93278 24.6693C8.47185 25.3607 9.54997 24.6576 8.97575 23.9076ZM5.68278 11.6263C5.47185 11.9427 5.65935 12.388 6.08122 12.388H9.47966C9.91325 12.388 10.1125 11.9544 9.8781 11.6263L8.23747 9.17712C8.10857 8.98962 7.97966 8.91931 7.78044 8.91931C7.59294 8.91931 7.45231 9.00134 7.32341 9.17712L5.68278 11.6263ZM14.5656 23.9076C14.0851 23.2748 13.9094 22.888 13.9094 22.1615C13.9094 20.4505 15.5383 19.4779 15.5383 17.2162C15.5383 15.1771 14.0265 14.6732 14.0265 12.2474V11.8138H12.7375V12.2474C12.7375 15.2943 14.2492 15.6458 14.2492 17.2162C14.2492 19.1966 12.632 19.9818 12.632 22.2552C12.632 23.1927 12.925 23.8958 13.5344 24.6693C14.0734 25.3607 15.1281 24.6576 14.5656 23.9076ZM11.2609 11.6263C11.05 11.9427 11.2492 12.388 11.6828 12.388H15.0578C15.5031 12.388 15.7023 11.9427 15.4797 11.6263L13.8273 9.17712C13.6984 9.00134 13.5695 8.91931 13.3703 8.91931C13.1828 8.91931 13.0422 9.00134 12.9133 9.17712L11.2609 11.6263ZM20.1672 23.9076C19.6867 23.2748 19.5109 22.888 19.5109 22.1615C19.5109 20.4505 21.1281 19.4779 21.1281 17.2162C21.1281 15.1771 19.6047 14.6732 19.6047 12.2474V11.8138H18.3156V12.2474C18.3156 15.2943 19.839 15.6458 19.839 17.2162C19.839 19.1966 18.2101 19.9818 18.2101 22.2552C18.2101 23.1927 18.5031 23.8958 19.1125 24.6693C19.6515 25.3607 20.718 24.6576 20.1672 23.9076ZM16.8625 11.6263C16.6515 11.9427 16.839 12.388 17.2609 12.388H20.6594C21.1047 12.388 21.2922 11.9427 21.0695 11.6263L19.4172 9.17712C19.3 9.00134 19.1476 8.91931 18.9601 8.91931C18.7609 8.91931 18.6437 8.98962 18.5148 9.17712L16.8625 11.6263Z" fill="black" fill-opacity="0.85"/>
</svg>
