<svg width="38" height="19" viewBox="0 0 38 19" fill="none" xmlns="http://www.w3.org/2000/svg">
<path d="M32.6719 9.75C32.6719 4.52344 29.6719 1.26562 24.3398 0.609375C20.4375 0.152344 13.6406 0.0117188 9.94922 0C6.76172 0 5.13281 1.73438 5.42578 4.59375L5.77734 8.02734C5.87109 8.94141 5.39062 9.36328 4.40625 9.36328H1.38281C0.574219 9.36328 0 9.94922 0 10.7461V16.3594C0 17.6133 0.972656 18.1172 2.19141 17.8125C3.63281 17.4492 5.16797 17.2734 6.97266 17.2734H24.7734C29.7422 17.2734 32.6719 14.6367 32.6719 9.75ZM30.7852 9.75C30.7852 13.4062 28.5352 15.3867 24.8086 15.3867H11.4375C9.28125 15.3867 8.4375 14.6719 8.21484 12.7031L7.28906 4.38281C7.10156 2.70703 7.92188 1.88672 9.94922 1.88672C13.6289 1.88672 20.332 2.07422 24.1758 2.50781C28.4297 3 30.7852 5.61328 30.7852 9.75Z" fill="#007AFF"/>
<path d="M34.8867 11.8594C36.3164 11.8594 37.4648 10.7109 37.4648 9.29297C37.4648 7.86328 36.3164 6.71484 34.8867 6.71484H25.8633C24.4336 6.71484 23.2852 7.86328 23.2852 9.29297C23.2852 10.7109 24.4336 11.8594 25.8633 11.8594H34.8867Z" fill="white"/>
<path d="M36.4688 6.59766V5.05078C36.4688 4.5 36.0234 4.04297 35.4727 4.04297C34.9219 4.04297 34.4766 4.5 34.4766 5.05078V6.59766C34.4766 7.67578 33.7852 8.30859 32.6133 8.30859H26.3906V7.03125C26.3906 6.23438 25.8281 5.92969 25.1484 6.41016L21.9023 8.63672C21.3633 9 21.3633 9.64453 21.9023 10.0078L25.1719 12.2344C25.8281 12.6914 26.3906 12.4102 26.3906 11.6133V10.2656H32.6133C35.0391 10.2656 36.4688 8.89453 36.4688 6.59766Z" fill="black" fill-opacity="0.85"/>
</svg>
