<svg width="24" height="24" viewBox="0 0 24 24" fill="none" xmlns="http://www.w3.org/2000/svg">
<path d="M11.9531 23.918C18.4922 23.918 23.9062 18.5039 23.9062 11.9648C23.9062 5.4375 18.4805 0.0117188 11.9414 0.0117188C5.41406 0.0117188 0 5.4375 0 11.9648C0 18.5039 5.42578 23.918 11.9531 23.918Z" fill="#FFCC00"/>
<path d="M7.83984 13.0311C7.20703 12.1522 6.83203 11.0741 6.83203 9.86712C6.83203 7.6054 8.09766 5.64837 9.97266 4.87493C10.2656 4.75774 10.5234 4.7929 10.6523 4.94524C10.7578 5.10931 10.7812 5.33196 10.6523 5.57805C10.4531 5.96477 10.3359 6.70305 10.3359 7.40618C10.3359 10.0077 12.0469 11.6718 14.7188 11.6718C15.375 11.6718 15.9375 11.578 16.3945 11.3905C16.6406 11.2968 16.8281 11.3319 16.957 11.4374C17.0977 11.5897 17.1211 11.8241 17.0156 12.0819C16.8633 12.4335 16.6875 12.7616 16.4531 13.0311H7.83984ZM6.02344 14.7655C5.77734 14.7655 5.60156 14.5897 5.60156 14.3437C5.60156 14.0976 5.77734 13.9218 6.02344 13.9218H18.9961C19.2422 13.9218 19.418 14.0976 19.418 14.3437C19.418 14.5897 19.2422 14.7655 18.9961 14.7655H6.02344ZM4.89844 16.4296C4.65234 16.4296 4.46484 16.2421 4.46484 15.996C4.46484 15.7616 4.65234 15.5741 4.89844 15.5741H17.8594C18.1055 15.5741 18.2812 15.7616 18.2812 15.996C18.2812 16.2421 18.1055 16.4296 17.8594 16.4296H4.89844ZM6.02344 18.0819C5.77734 18.0819 5.60156 17.9061 5.60156 17.6601C5.60156 17.414 5.77734 17.2382 6.02344 17.2382H18.9961C19.2422 17.2382 19.418 17.414 19.418 17.6601C19.418 17.9061 19.2422 18.0819 18.9961 18.0819H6.02344Z" fill="black" fill-opacity="0.85"/>
</svg>
