<svg width="24" height="27" viewBox="0 0 24 27" fill="none" xmlns="http://www.w3.org/2000/svg">
<path d="M18.9375 13.6289C19.1602 13.6289 19.3125 13.4766 19.3359 13.2422C19.7227 10.1133 19.875 10.0312 23.0508 9.51562C23.2969 9.48047 23.4492 9.35156 23.4492 9.12891C23.4492 8.90625 23.2969 8.76562 23.0977 8.73047C19.8984 8.12109 19.7227 8.13281 19.3359 5.00391C19.3125 4.76953 19.1602 4.61719 18.9375 4.61719C18.7266 4.61719 18.5742 4.76953 18.5391 4.99219C18.1406 8.16797 18.0234 8.27344 14.7773 8.73047C14.5781 8.75391 14.4258 8.90625 14.4258 9.12891C14.4258 9.33984 14.5781 9.48047 14.7773 9.51562C18.0234 10.1367 18.1289 10.1367 18.5391 13.2656C18.5742 13.4766 18.7266 13.6289 18.9375 13.6289ZM13.3359 5.69531C13.4766 5.69531 13.5469 5.61328 13.5703 5.48438C13.9336 3.52734 13.9219 3.48047 15.9609 3.09375C16.0898 3.07031 16.1836 2.98828 16.1836 2.84766C16.1836 2.70703 16.0898 2.625 15.9609 2.60156C13.9219 2.19141 13.9922 2.14453 13.5703 0.210938C13.5469 0.0820312 13.4766 0 13.3359 0C13.1953 0 13.1133 0.0820312 13.0898 0.210938C12.6797 2.14453 12.75 2.19141 10.7109 2.60156C10.5703 2.625 10.4883 2.70703 10.4883 2.84766C10.4883 2.98828 10.5703 3.07031 10.7109 3.09375C12.75 3.50391 12.7266 3.52734 13.0898 5.48438C13.1133 5.61328 13.1953 5.69531 13.3359 5.69531Z" fill="#007AFF"/>
<path d="M10.2422 24.3397C14.5312 24.3397 18.0117 22.1835 19.582 18.5038C19.793 18.0117 19.7227 17.6132 19.5 17.3905C19.3008 17.1796 18.9375 17.1444 18.5273 17.2968C17.6367 17.6483 16.5703 17.8593 15.2227 17.8593C9.97266 17.8593 6.60938 14.578 6.60938 9.44526C6.60938 8.02729 6.87891 6.60933 7.24219 5.87104C7.46484 5.41401 7.45312 5.00386 7.24219 4.76948C7.01953 4.51167 6.62109 4.42964 6.08203 4.64057C2.48438 6.10542 0 9.86714 0 14.2382C0 19.9452 4.20703 24.3397 10.2422 24.3397ZM10.2656 22.5468C5.27344 22.5468 1.79297 18.9022 1.79297 14.0976C1.79297 11.1561 3.16406 8.54292 5.34375 6.87886C5.05078 7.65229 4.88672 8.81245 4.88672 9.93745C4.88672 15.7147 8.87109 19.582 14.7773 19.582C15.8203 19.582 16.7812 19.4413 17.2852 19.2772C15.8203 21.3046 13.207 22.5468 10.2656 22.5468Z" fill="black" fill-opacity="0.85"/>
</svg>
