<svg width="24" height="24" viewBox="0 0 24 24" fill="none" xmlns="http://www.w3.org/2000/svg">
<path d="M21.9023 11.9531C21.9023 17.0859 18.082 21.2695 13.1133 21.832C9.79688 19.8398 7.93359 16.3711 7.93359 11.9531C7.93359 7.53516 9.80859 4.05469 13.1719 2.07422C18.1055 2.64844 21.9023 6.82031 21.9023 11.9531Z" fill="#FFCC00"/>
<path d="M23.9062 11.9531C23.9062 5.41406 18.5039 0 11.9648 0C5.4375 0 0 5.42578 0 11.9531C0 18.4805 5.42578 23.9062 11.9531 23.9062C18.4922 23.9062 23.9062 18.4805 23.9062 11.9531ZM21.9023 11.9531C21.9023 17.0859 18.082 21.2695 13.1133 21.832C9.79688 19.8398 7.93359 16.3711 7.93359 11.9531C7.93359 7.53516 9.80859 4.05469 13.1719 2.07422C18.1055 2.64844 21.9023 6.82031 21.9023 11.9531Z" fill="black" fill-opacity="0.85"/>
</svg>
