<svg width="24" height="24" viewBox="0 0 24 24" fill="none" xmlns="http://www.w3.org/2000/svg">
<path d="M11.9531 23.9062C18.4922 23.9062 23.9062 18.4805 23.9062 11.9531C23.9062 5.41406 18.4805 0 11.9414 0C5.41406 0 0 5.41406 0 11.9531C0 18.4805 5.42578 23.9062 11.9531 23.9062ZM11.9531 21.9141C6.42188 21.9141 2.00391 17.4844 2.00391 11.9531C2.00391 6.42188 6.41016 1.99219 11.9414 1.99219C17.4727 1.99219 21.9141 6.42188 21.9141 11.9531C21.9141 17.4844 17.4844 21.9141 11.9531 21.9141Z" fill="#007AFF"/>
<path d="M7.32422 13.1603H16.1484C16.3828 12.8673 16.5469 12.5509 16.7109 12.1993C16.8281 11.9181 16.8047 11.6837 16.6523 11.5196C16.5352 11.4142 16.3359 11.3907 16.0781 11.4728C15.6211 11.672 15.0352 11.754 14.3672 11.754C11.6133 11.754 9.89062 10.0665 9.89062 7.39464C9.89062 6.6798 9.99609 5.9298 10.207 5.53136C10.3359 5.27355 10.3125 5.05089 10.207 4.88683C10.0781 4.72277 9.79688 4.68761 9.51562 4.81652C7.59375 5.60167 6.29297 7.59386 6.29297 9.91417C6.29297 11.1563 6.65625 12.2579 7.32422 13.1603ZM5.36719 15.2931H18.5039C18.8672 15.2931 19.1953 15.0118 19.1953 14.6485C19.1953 14.2735 18.8789 14.004 18.5039 14.004H5.36719C5.00391 14.004 4.6875 14.2853 4.6875 14.6485C4.6875 15.0118 5.01562 15.2931 5.36719 15.2931ZM6.19922 17.3673C6.50391 17.3673 6.76172 17.1212 6.76172 16.8165C6.76172 16.5001 6.50391 16.254 6.19922 16.254C5.89453 16.254 5.63672 16.5001 5.63672 16.8165C5.63672 17.1212 5.89453 17.3673 6.19922 17.3673ZM9.08203 17.3673C9.38672 17.3673 9.63281 17.1212 9.63281 16.8165C9.63281 16.5001 9.38672 16.254 9.08203 16.254C8.77734 16.254 8.51953 16.5001 8.51953 16.8165C8.51953 17.1212 8.77734 17.3673 9.08203 17.3673ZM11.9531 17.3673C12.2578 17.3673 12.5156 17.1212 12.5156 16.8165C12.5156 16.5001 12.2578 16.254 11.9531 16.254C11.6484 16.254 11.3906 16.5001 11.3906 16.8165C11.3906 17.1212 11.6484 17.3673 11.9531 17.3673ZM14.8242 17.3673C15.1289 17.3673 15.3867 17.1212 15.3867 16.8165C15.3867 16.5001 15.1289 16.254 14.8242 16.254C14.5195 16.254 14.2734 16.5001 14.2734 16.8165C14.2734 17.1212 14.5195 17.3673 14.8242 17.3673ZM17.707 17.3673C18.0117 17.3673 18.2578 17.1212 18.2578 16.8165C18.2578 16.5001 18.0117 16.254 17.707 16.254C17.4023 16.254 17.1445 16.5001 17.1445 16.8165C17.1445 17.1212 17.4023 17.3673 17.707 17.3673ZM7.62891 18.9493C7.93359 18.9493 8.19141 18.7032 8.19141 18.3868C8.19141 18.0821 7.93359 17.836 7.62891 17.836C7.32422 17.836 7.06641 18.0821 7.06641 18.3868C7.06641 18.7032 7.32422 18.9493 7.62891 18.9493ZM10.5117 18.9493C10.8164 18.9493 11.0625 18.7032 11.0625 18.3868C11.0625 18.0821 10.8164 17.836 10.5117 17.836C10.207 17.836 9.94922 18.0821 9.94922 18.3868C9.94922 18.7032 10.207 18.9493 10.5117 18.9493ZM13.3828 18.9493C13.6875 18.9493 13.9453 18.7032 13.9453 18.3868C13.9453 18.0821 13.6875 17.836 13.3828 17.836C13.0781 17.836 12.8203 18.0821 12.8203 18.3868C12.8203 18.7032 13.0781 18.9493 13.3828 18.9493ZM16.2539 18.9493C16.5586 18.9493 16.8164 18.7032 16.8164 18.3868C16.8164 18.0821 16.5586 17.836 16.2539 17.836C15.9492 17.836 15.6914 18.0821 15.6914 18.3868C15.6914 18.7032 15.9492 18.9493 16.2539 18.9493Z" fill="black" fill-opacity="0.85"/>
</svg>
