<svg width="28" height="28" viewBox="0 0 28 28" fill="none" xmlns="http://www.w3.org/2000/svg">
<path d="M7.95703 16.8984H11.6484C8.51953 15.9961 6.5625 13.2656 6.5625 9.90232C6.5625 7.47654 7.62891 5.33201 9.35156 3.87889C9.16406 4.54686 9.07031 5.3906 9.07031 6.26951C9.07031 11.3672 12.5859 14.7891 17.8008 14.7891C18.4688 14.7891 19.1719 14.707 19.7109 14.6016C18.8438 15.6562 17.5898 16.4648 16.0898 16.8984L19.7227 16.9102C20.7422 16.0898 21.5508 15.0352 22.0781 13.8047C22.2773 13.3477 22.2305 12.9492 21.9961 12.7031C21.7852 12.4922 21.4336 12.457 21.0234 12.6094C20.2383 12.9141 19.3125 13.0664 18.1758 13.0664C13.6523 13.0664 10.7695 10.2656 10.7695 5.84764C10.7695 4.67576 10.9805 3.42186 11.3086 2.7656C11.5195 2.35545 11.5195 1.93357 11.2852 1.68748C11.0391 1.42967 10.6406 1.35936 10.1602 1.55857C6.96094 2.85936 4.79297 6.1992 4.79297 10.0312C4.79297 12.8203 5.92969 15.3047 7.95703 16.8984Z" fill="#007AFF"/>
<path d="M2.50781 18.2344H26.3086C26.7188 18.2344 27.0469 17.918 27.0469 17.4961C27.0469 17.0742 26.7188 16.7578 26.3086 16.7578H2.50781C2.08594 16.7578 1.76953 17.0742 1.76953 17.4961C1.76953 17.918 2.08594 18.2344 2.50781 18.2344ZM0.738281 22.7461H24.5391C24.9492 22.7461 25.2773 22.418 25.2773 21.9961C25.2773 21.5742 24.9492 21.2578 24.5391 21.2578H0.738281C0.328125 21.2578 0 21.5742 0 21.9961C0 22.418 0.328125 22.7461 0.738281 22.7461ZM2.50781 27.2461H26.3086C26.7188 27.2461 27.0469 26.9297 27.0469 26.5078C27.0469 26.0742 26.7188 25.7578 26.3086 25.7578H2.50781C2.08594 25.7578 1.76953 26.0742 1.76953 26.5078C1.76953 26.9297 2.08594 27.2461 2.50781 27.2461Z" fill="black" fill-opacity="0.85"/>
</svg>
