<svg width="24" height="24" viewBox="0 0 24 24" fill="none" xmlns="http://www.w3.org/2000/svg">
<path d="M11.9531 23.9062C18.4922 23.9062 23.9062 18.4805 23.9062 11.9531C23.9062 5.41406 18.4805 0 11.9414 0C5.41406 0 0 5.41406 0 11.9531C0 18.4805 5.42578 23.9062 11.9531 23.9062ZM11.9531 21.9141C6.42188 21.9141 2.00391 17.4844 2.00391 11.9531C2.00391 6.42188 6.41016 1.99219 11.9414 1.99219C17.4727 1.99219 21.9141 6.42188 21.9141 11.9531C21.9141 17.4844 17.4844 21.9141 11.9531 21.9141Z" fill="#007AFF"/>
<path d="M7.96875 12.9843H16.3125C16.5469 12.703 16.7109 12.3983 16.8633 12.0585C16.9688 11.8007 16.9453 11.578 16.8047 11.4257C16.6875 11.3202 16.5 11.2968 16.2656 11.3788C15.8203 11.5663 15.2695 11.6483 14.6367 11.6483C12.0352 11.6483 10.3828 10.0429 10.3828 7.49993C10.3828 6.83196 10.4883 6.11712 10.6875 5.74212C10.8164 5.49602 10.793 5.28509 10.6875 5.13274C10.5586 4.9804 10.3125 4.94524 10.0312 5.06243C8.21484 5.81243 6.98438 7.69915 6.98438 9.89055C6.98438 11.0741 7.34766 12.1288 7.96875 12.9843ZM6.19922 14.6601H18.7852C19.0195 14.6601 19.1953 14.4843 19.1953 14.2499C19.1953 14.0038 19.0195 13.828 18.7852 13.828H6.19922C5.96484 13.828 5.78906 14.0155 5.78906 14.2499C5.78906 14.4843 5.96484 14.6601 6.19922 14.6601ZM5.10938 16.2655H17.6836C17.918 16.2655 18.0938 16.0897 18.0938 15.8554C18.0938 15.6093 17.918 15.4335 17.6836 15.4335H5.10938C4.875 15.4335 4.6875 15.621 4.6875 15.8554C4.6875 16.0897 4.875 16.2655 5.10938 16.2655ZM6.19922 17.871H18.7852C19.0195 17.871 19.1953 17.6952 19.1953 17.4608C19.1953 17.2147 19.0195 17.039 18.7852 17.039H6.19922C5.96484 17.039 5.78906 17.2265 5.78906 17.4608C5.78906 17.6952 5.96484 17.871 6.19922 17.871Z" fill="black" fill-opacity="0.85"/>
</svg>
