<svg width="24" height="24" viewBox="0 0 24 24" fill="none" xmlns="http://www.w3.org/2000/svg">
<path d="M21.9141 11.9531C21.9258 17.4844 17.4844 21.9141 11.9531 21.9141C11.5898 21.9141 11.2266 21.8906 10.8633 21.8438C14.1445 19.8398 15.9844 16.3594 15.9844 11.9531C15.9844 7.53516 14.1328 4.04297 10.8281 2.0625C11.2031 2.01562 11.5664 1.99219 11.9414 1.99219C17.4727 1.99219 21.9023 6.42188 21.9141 11.9531Z" fill="#FFCC00"/>
<path d="M0 11.9531C0 18.4805 5.42578 23.9062 11.9531 23.9062C18.4922 23.9062 23.9062 18.4805 23.9062 11.9531C23.9062 5.41406 18.4805 0 11.9414 0C5.41406 0 0 5.41406 0 11.9531ZM21.9141 11.9531C21.9258 17.4844 17.4844 21.9141 11.9531 21.9141C11.5898 21.9141 11.2266 21.8906 10.8633 21.8438C14.1445 19.8398 15.9844 16.3594 15.9844 11.9531C15.9844 7.53516 14.1328 4.04297 10.8281 2.0625C11.2031 2.01562 11.5664 1.99219 11.9414 1.99219C17.4727 1.99219 21.9023 6.42188 21.9141 11.9531Z" fill="black" fill-opacity="0.85"/>
</svg>
