<svg width="42" height="22" viewBox="0 0 42 22" fill="none" xmlns="http://www.w3.org/2000/svg">
<path d="M2.1685 21.1055H20.813C23.0396 21.1055 23.5669 18.9492 22.313 17.3906L13.5005 6.48047C12.9029 5.74219 12.188 5.35547 11.4849 5.35547C10.7935 5.35547 10.0787 5.74219 9.46928 6.48047L0.668497 17.3906C-0.585409 18.9492 -0.0697849 21.1055 2.1685 21.1055ZM2.44975 19.2188C2.05131 19.2188 1.9224 18.8438 2.15678 18.5508L10.9341 7.67578C11.0982 7.47656 11.2974 7.35938 11.4849 7.35938C11.6841 7.35938 11.8716 7.47656 12.0474 7.67578L20.8247 18.5508C21.0591 18.8438 20.9302 19.2188 20.5318 19.2188H2.44975ZM8.06303 13.7695C9.82084 13.7695 10.5122 12.375 11.4849 12.375C12.4576 12.375 13.1607 13.7695 14.9185 13.7695C16.1021 13.7695 16.8052 12.6562 17.4263 12.0352L16.5826 11.0859C15.9263 11.7188 15.4224 12.4805 14.9185 12.4805C14.0044 12.4805 13.1724 11.0859 11.4849 11.0859C9.80912 11.0859 8.97709 12.4805 8.06303 12.4805C7.55912 12.4805 7.05522 11.7188 6.39897 11.0859L5.55522 12.0352C6.17631 12.6562 6.86772 13.7695 8.06303 13.7695Z" fill="#007AFF"/>
<path d="M13.7229 21.1055H39.094C41.2268 21.1055 41.7424 18.9961 40.6877 17.6133L28.4416 1.53518C27.2932 0.0234535 25.5354 1.5974e-05 24.3635 1.53518L12.1291 17.625C11.0744 19.0078 11.5901 21.1055 13.7229 21.1055Z" fill="white"/>
<path d="M13.7229 21.1055H39.094C41.2268 21.1055 41.7424 18.9961 40.6877 17.6133L28.4416 1.53518C27.2932 0.0234535 25.5354 1.5974e-05 24.3635 1.53518L12.1291 17.625C11.0744 19.0078 11.5901 21.1055 13.7229 21.1055ZM14.1096 19.2188C13.676 19.2188 13.5588 18.8555 13.7815 18.5508L25.8284 2.71877C26.1448 2.30861 26.6838 2.32033 26.9651 2.70705L39.0237 18.5391C39.258 18.8438 39.1291 19.2188 38.6955 19.2188H14.1096ZM22.594 10.9102C24.5393 10.9102 25.3244 9.3633 26.4026 9.3633C27.4924 9.3633 28.2776 10.9102 30.2229 10.9102C31.4182 10.9102 32.1916 9.93752 32.8596 9.22268L31.9573 8.12111C31.301 8.78908 30.7737 9.49221 30.2229 9.49221C29.1916 9.49221 28.2776 7.94533 26.4026 7.94533C24.5393 7.94533 23.6252 9.49221 22.594 9.49221C22.0315 9.49221 21.5041 8.77736 20.8362 8.1094L19.9338 9.19924C20.6135 9.9258 21.3869 10.9102 22.594 10.9102Z" fill="black" fill-opacity="0.85"/>
</svg>
