<svg width="23" height="28" viewBox="0 0 23 28" fill="none" xmlns="http://www.w3.org/2000/svg">
<path d="M1.75781 9.88184H20.7891C22.4062 9.88184 22.5586 8.07715 21.5859 7.35059L12.9023 0.694336C11.6719 -0.231445 10.875 -0.231445 9.64453 0.694336L0.960938 7.35059C-0.0117188 8.07715 0.140625 9.88184 1.75781 9.88184ZM3.63281 8.13574C3.35156 8.13574 3.26953 7.80762 3.49219 7.63184L10.5586 2.21777C10.9453 1.9248 11.6016 1.93652 11.9766 2.21777L19.0547 7.63184C19.2773 7.80762 19.1953 8.13574 18.9141 8.13574H3.63281ZM0.996094 14.7217H21.5508C22.0898 14.7217 22.5469 14.2529 22.5469 13.7021C22.5469 13.1514 22.0898 12.6709 21.5508 12.6709H0.996094C0.457031 12.6709 0 13.1514 0 13.7021C0 14.2529 0.457031 14.7217 0.996094 14.7217ZM1.75781 17.5225C0.140625 17.5225 -0.0117188 19.3154 0.960938 20.0537L9.64453 26.71C10.875 27.6357 11.6719 27.6357 12.9023 26.71L21.5859 20.0537C22.5586 19.3154 22.4062 17.5225 20.7891 17.5225H1.75781ZM3.63281 19.2686H18.9141C19.1953 19.2686 19.2773 19.585 19.0547 19.7725L11.9766 25.1865C11.6016 25.4678 10.9453 25.4795 10.5586 25.1865L3.49219 19.7725C3.26953 19.585 3.35156 19.2686 3.63281 19.2686Z" fill="black" fill-opacity="0.85"/>
</svg>
