<svg width="24" height="24" viewBox="0 0 24 24" fill="none" xmlns="http://www.w3.org/2000/svg">
<path d="M11.9531 23.918C18.4922 23.918 23.9062 18.5039 23.9062 11.9648C23.9062 5.4375 18.4805 0.0117188 11.9414 0.0117188C5.41406 0.0117188 0 5.4375 0 11.9648C0 18.5039 5.42578 23.918 11.9531 23.918Z" fill="#FFCC00"/>
<path d="M10.6647 10.125L12.8326 7.28907C13.3483 6.6211 14.0983 6.63282 14.6022 7.28907L16.7584 10.125C16.1842 10.2891 15.7975 10.7227 15.4342 10.7227C14.9772 10.7227 14.567 10.043 13.7115 10.043C12.8561 10.043 12.4342 10.7227 11.9772 10.7227C11.6022 10.7227 11.2272 10.2891 10.6647 10.125ZM8.14513 15.8555C7.21935 15.8555 6.98498 14.9531 7.45372 14.3438L10.1373 10.8281C10.5709 10.6055 11.1568 11.4258 11.9772 11.4258C12.8912 11.4258 13.2311 10.7461 13.7115 10.7461C14.192 10.7461 14.5318 11.4258 15.4342 11.4258C16.2428 11.4258 16.8522 10.6055 17.274 10.8281L19.9459 14.3438C20.4264 14.9531 20.192 15.8555 19.2779 15.8555H8.14513ZM4.65294 15.8555C3.69201 15.8555 3.45763 14.9297 3.99669 14.25L7.86388 9.4336C8.39122 8.80079 9.08263 8.80079 9.59826 9.4336L9.85607 9.73829L6.72716 13.8047C6.24669 14.4492 6.21154 15.2578 6.52794 15.8555H4.65294Z" fill="black" fill-opacity="0.85"/>
</svg>
