<svg width="43" height="25" viewBox="0 0 43 25" fill="none" xmlns="http://www.w3.org/2000/svg">
<path d="M8.06017 14.0742C8.97423 14.0742 9.80626 12.6797 11.4938 12.6797C13.1695 12.6797 14.0016 14.0742 14.9156 14.0742C15.5836 14.0742 16.2516 13.1953 17.3883 12.8906L13.5094 8.07422C12.9 7.32422 12.1852 6.94922 11.4938 6.94922C10.7906 6.94922 10.0758 7.32422 9.47813 8.07422L5.58751 12.9023C6.71251 13.1836 7.38048 14.0742 8.06017 14.0742ZM2.16563 22.6992H20.8102C23.0367 22.6992 23.5641 20.543 22.3102 18.9844L18.3141 14.0391C17.2008 14.1094 16.6969 15.3633 14.9156 15.3633C13.1578 15.3633 12.4547 13.9688 11.4938 13.9688C10.5211 13.9688 9.81798 15.3633 8.06017 15.3633C6.27892 15.3633 5.77501 14.1094 4.66173 14.0391L0.665634 18.9844C-0.588272 20.543 -0.0609281 22.6992 2.16563 22.6992Z" fill="#007AFF"/>
<path d="M13.7203 24.2929H39.0914C42.5367 24.2929 43.8375 20.6952 41.9508 18.2343L29.7164 2.15618C27.7828 -0.37507 24.7594 -0.0469453 23.0836 2.15618L10.8609 18.246C8.97423 20.7069 10.275 24.2929 13.7203 24.2929Z" fill="white"/>
<path d="M22.4748 11.0859C23.5295 11.0859 24.4787 9.49221 26.4123 9.49221C28.3342 9.49221 29.2834 11.0859 30.3381 11.0859C31.2053 11.0859 32.0139 9.97267 33.3967 9.63282L28.4397 3.12892C27.2912 1.61721 25.5334 1.59377 24.3733 3.12892L19.4162 9.63282C20.799 9.98439 21.6194 11.0859 22.4748 11.0859ZM13.7209 22.6992H39.1037C41.2248 22.6992 41.7405 20.6016 40.6858 19.2188L34.4162 11.0039C33.01 11.1328 32.2483 12.5508 30.3381 12.5508C28.3342 12.5508 27.5256 10.957 26.4123 10.957C25.2873 10.957 24.4787 12.5508 22.4748 12.5508C20.5647 12.5508 19.803 11.1328 18.4084 11.0039L12.1272 19.2188C11.0725 20.6016 11.5881 22.6992 13.7209 22.6992Z" fill="black" fill-opacity="0.85"/>
</svg>
