<svg width="28" height="30" viewBox="0 0 28 30" fill="none" xmlns="http://www.w3.org/2000/svg">
<path d="M0.179135 9.45981L1.05804 12.6825V22.9481C1.05804 25.2567 2.24163 26.4168 4.58538 26.4168H23.851C26.2065 26.4168 27.3666 25.245 27.3666 22.9481V12.0145C27.3666 10.7137 26.5229 9.86997 25.1987 9.86997H11.4877L24.3549 6.42465C25.644 6.08481 26.2299 5.0184 25.9135 3.78793L25.6088 2.6395C25.0346 0.401216 23.5463 -0.407378 21.2963 0.190279L2.68695 5.19418C0.448666 5.80356 -0.406803 7.24497 0.179135 9.45981Z" fill="black" fill-opacity="0.85"/>
<path d="M3.33105 10.2801L4.20995 6.6825L7.91308 5.67468L7.06933 9.27234L3.33105 10.2801ZM10.5381 8.34656L11.3819 4.7489L15.378 3.6825L14.5342 7.29187L10.5381 8.34656ZM17.9795 6.35437L18.835 2.75671L21.6592 1.98328C21.9639 1.90125 22.2569 1.84265 22.5381 1.78406L21.7061 5.35828L17.9795 6.35437ZM3.89355 14.9559L5.56933 11.8387L8.62792 11.6981H9.50683L7.74902 14.9559H3.89355ZM11.335 14.9559L13.0811 11.6981H17.2295L15.4717 14.9559H11.335ZM19.0576 14.9559L20.8037 11.6981H24.6592L22.9014 14.9559H19.0576Z" fill="white"/>
</svg>
