<svg width="37" height="18" viewBox="0 0 37 18" fill="none" xmlns="http://www.w3.org/2000/svg">
<path d="M0.996094 17.8125C1.64062 17.8125 1.99219 17.3789 1.99219 16.7578V3.35156H1.96875L4.82812 16.2656C4.98047 16.9922 5.42578 17.543 6.1875 17.543C6.9375 17.543 7.37109 16.9805 7.53516 16.2305L10.3945 3.35156H10.3594V16.7578C10.3594 17.3555 10.6875 17.8125 11.3555 17.8125C12 17.8125 12.3633 17.4141 12.3633 16.7578V1.62891C12.3633 0.714844 11.7305 0 10.7109 0C9.80859 0 9.26953 0.492188 9.07031 1.41797L6.1875 14.6602H6.22266L3.28125 1.41797C3.07031 0.492188 2.55469 0 1.62891 0C0.609375 0 0 0.726562 0 1.62891V16.7578C0 17.332 0.316406 17.8125 0.996094 17.8125ZM16.5352 17.7539C17.1797 17.7539 17.6133 17.3672 17.6133 16.6289V11.3203H19.7344C22.6875 11.3203 24.2227 8.71875 24.2227 5.76562C24.2227 2.83594 22.6992 0.222656 19.8281 0.222656H16.5117C15.832 0.222656 15.457 0.691406 15.457 1.35938V16.6289C15.457 17.332 15.832 17.7539 16.5352 17.7539ZM17.6133 9.44531V2.12109H19.3242C21.2812 2.12109 22.0781 3.73828 22.0781 5.76562C22.0781 7.79297 21.3047 9.44531 19.3242 9.44531H17.6133ZM27.7969 17.8125C28.5234 17.8125 28.8633 17.2734 28.8633 16.6172V9.66797H33.9727V16.6172C33.9727 17.3203 34.3477 17.8125 35.0625 17.8125C35.7656 17.8125 36.1406 17.3203 36.1406 16.6172V1.19531C36.1406 0.480469 35.7656 0 35.0625 0C34.3477 0 33.9727 0.480469 33.9727 1.19531V7.75781H28.8633V1.19531C28.8633 0.527344 28.5234 0 27.7969 0C27.082 0 26.707 0.480469 26.707 1.19531V16.6172C26.707 17.3203 27.082 17.8125 27.7969 17.8125Z" fill="black" fill-opacity="0.85"/>
</svg>
