<svg width="24" height="24" viewBox="0 0 24 24" fill="none" xmlns="http://www.w3.org/2000/svg">
<path d="M11.9531 23.9062C18.4922 23.9062 23.9062 18.4805 23.9062 11.9531C23.9062 5.41406 18.4805 0 11.9414 0C5.41406 0 0 5.41406 0 11.9531C0 18.4805 5.42578 23.9062 11.9531 23.9062ZM11.9531 21.9141C6.42188 21.9141 2.00391 17.4844 2.00391 11.9531C2.00391 6.42188 6.41016 1.99219 11.9414 1.99219C17.4727 1.99219 21.9141 6.42188 21.9141 11.9531C21.9141 17.4844 17.4844 21.9141 11.9531 21.9141Z" fill="#007AFF"/>
<path d="M4.46484 15.7734C4.85156 15.7734 5.0625 15.5273 5.0625 15.1289V10.1484H5.10938L6.11719 14.9531C6.19922 15.3516 6.42188 15.6328 6.82031 15.6328C7.23047 15.6328 7.44141 15.3516 7.52344 14.9531L8.53125 10.1484H8.57812V15.1289C8.57812 15.5156 8.78906 15.7734 9.16406 15.7734C9.55078 15.7734 9.77344 15.5273 9.77344 15.1289V9.07031C9.77344 8.47266 9.38672 8.12109 8.78906 8.12109C8.25 8.12109 7.93359 8.35547 7.82812 8.90625L6.83203 13.8398H6.82031L5.78906 8.90625C5.67188 8.32031 5.33203 8.12109 4.83984 8.12109C4.14844 8.12109 3.85547 8.57812 3.85547 9.07031V15.1289C3.85547 15.5156 4.07812 15.7734 4.46484 15.7734ZM11.3672 15.75C11.7656 15.75 12.0469 15.5273 12.0469 15.0469V13.207H12.832C14.2031 13.207 14.8945 12.0234 14.8945 10.7227C14.8945 9.39844 14.2266 8.23828 12.9141 8.23828H11.3672C10.9922 8.23828 10.7109 8.44922 10.7109 8.94141V15.0469C10.7109 15.5625 11.0391 15.75 11.3672 15.75ZM12.0469 12.1406V9.31641H12.5625C13.3125 9.31641 13.5703 9.97266 13.5703 10.7227C13.5703 11.4727 13.3125 12.1406 12.5508 12.1406H12.0469ZM16.2656 15.7734C16.7109 15.7734 16.9453 15.4688 16.9453 15.0352V12.4453H18.75V15.0352C18.75 15.4219 18.9609 15.7734 19.4297 15.7734C19.8633 15.7734 20.0977 15.4922 20.0977 15.0352V8.83594C20.0977 8.37891 19.8516 8.12109 19.4297 8.12109C18.9727 8.12109 18.75 8.41406 18.75 8.83594V11.3203H16.9453V8.83594C16.9453 8.40234 16.7109 8.12109 16.2656 8.12109C15.832 8.12109 15.5977 8.40234 15.5977 8.83594V15.0352C15.5977 15.4688 15.832 15.7734 16.2656 15.7734Z" fill="black" fill-opacity="0.85"/>
</svg>
