<svg width="23" height="25" viewBox="0 0 23 25" fill="none" xmlns="http://www.w3.org/2000/svg">
<path d="M8.05078 24.7734H10.3008C15.2578 24.7734 18.3516 22.1719 18.3516 18V3.24609C18.3516 1.14844 14.4375 0 9.17578 0C3.91406 0 0 1.14844 0 3.24609V18C0 22.1719 3.10547 24.7734 8.05078 24.7734ZM9.17578 3.89062C5.07422 3.89062 2.23828 3.44531 2.23828 2.77734C2.23828 2.10938 5.07422 1.65234 9.17578 1.65234C13.2773 1.65234 16.1133 2.10938 16.1133 2.77734C16.1133 3.44531 13.2773 3.89062 9.17578 3.89062ZM17.1094 17.7891H19.0547C21.1406 17.7891 22.4766 16.3828 22.4766 14.2852V9.59766C22.4766 7.48828 21.1406 6.09375 19.0547 6.09375H17.1094V7.86328H19.0547C20.2383 7.86328 20.707 8.34375 20.707 9.59766V14.2852C20.707 15.5273 20.2383 16.0195 19.0547 16.0195H17.1094V17.7891Z" fill="black" fill-opacity="0.85"/>
</svg>
