<svg width="34" height="13" viewBox="0 0 34 13" fill="none" xmlns="http://www.w3.org/2000/svg">
<path d="M0.0117188 5.84961C0.0117188 9.6582 3.9375 12.5293 8.75391 12.5293C12.2109 12.5293 15.0117 11.3223 16.6523 9.08398C18.3047 11.3223 21.0937 12.5293 24.5508 12.5293C29.3789 12.5293 33.3047 9.6582 33.3047 5.84961C33.3047 4.53711 32.9179 3.7168 32.1328 3.7168C31.8633 3.7168 31.5703 3.88086 31.3828 4.16211C30.7734 5.04101 29.7539 5.52148 28.4883 5.52148C24.9609 5.52148 23.9531 1.23242 19.7226 1.23242C17.6015 1.23242 16.1133 2.45117 15.8086 4.44336H17.4961C17.1914 2.45117 15.7148 1.23242 13.582 1.23242C9.36328 1.23242 8.35547 5.52148 4.82813 5.52148C3.64453 5.52148 2.625 5.05273 1.91016 4.15039C1.69922 3.88086 1.44141 3.7168 1.17188 3.7168C0.386719 3.7168 0.0117188 4.53711 0.0117188 5.84961Z" fill="black" fill-opacity="0.85"/>
</svg>
