<svg width="24" height="24" viewBox="0 0 24 24" fill="none" xmlns="http://www.w3.org/2000/svg">
<path d="M11.9531 23.9062C18.4922 23.9062 23.9062 18.4805 23.9062 11.9531C23.9062 5.41406 18.4805 0 11.9414 0C5.41406 0 0 5.41406 0 11.9531C0 18.4805 5.42578 23.9062 11.9531 23.9062ZM11.9531 21.9141C6.42188 21.9141 2.00391 17.4844 2.00391 11.9531C2.00391 6.42188 6.41016 1.99219 11.9414 1.99219C17.4727 1.99219 21.9141 6.42188 21.9141 11.9531C21.9141 17.4844 17.4844 21.9141 11.9531 21.9141Z" fill="#007AFF"/>
<path d="M8.40234 17.3203C8.96484 17.3203 9.29296 16.9805 9.29296 16.3828V9.5625H9.36328L14.4727 16.7578C14.7891 17.1914 15.0234 17.3203 15.4102 17.3203C15.9844 17.3203 16.3359 16.9688 16.3359 16.3477V7.30078C16.3359 6.71484 16.0078 6.36328 15.4453 6.36328C14.8945 6.36328 14.5781 6.73828 14.5781 7.30078V14.25H14.4961L9.39844 6.92578C9.09375 6.50391 8.83593 6.36328 8.44921 6.36328C7.87499 6.36328 7.54688 6.75 7.54688 7.34766V16.3828C7.54688 16.957 7.86328 17.3203 8.40234 17.3203Z" fill="black" fill-opacity="0.85"/>
</svg>
