<svg width="22" height="22" viewBox="0 0 22 22" fill="none" xmlns="http://www.w3.org/2000/svg">
<path d="M3.67969 21.5977H17.8945C20.3555 21.5977 21.5742 20.3789 21.5742 17.9648V3.65625C21.5742 1.24219 20.3555 0.0234375 17.8945 0.0234375H3.67969C1.23047 0.0234375 0 1.23047 0 3.65625V17.9648C0 20.3906 1.23047 21.5977 3.67969 21.5977ZM3.70312 19.7109C2.53125 19.7109 1.88672 19.0898 1.88672 17.8711V3.75C1.88672 2.53125 2.53125 1.91016 3.70312 1.91016H17.8711C19.0312 1.91016 19.6875 2.53125 19.6875 3.75V17.8711C19.6875 19.0898 19.0312 19.7109 17.8711 19.7109H3.70312Z" fill="#007AFF"/>
<path d="M7.25391 16.1602C7.81641 16.1602 8.14453 15.8203 8.14453 15.2227V8.40234H8.21484L13.3242 15.5977C13.6406 16.0312 13.875 16.1602 14.2617 16.1602C14.8359 16.1602 15.1875 15.8086 15.1875 15.1875V6.14062C15.1875 5.5547 14.8594 5.20312 14.2969 5.20312C13.7578 5.20312 13.4297 5.57812 13.4297 6.14062V13.0898H13.3594L8.25 5.76562C7.94531 5.34376 7.6875 5.20312 7.30078 5.20312C6.72656 5.20312 6.39844 5.58984 6.39844 6.1875V15.2227C6.39844 15.7969 6.71484 16.1602 7.25391 16.1602Z" fill="black" fill-opacity="0.85"/>
</svg>
