<svg width="22" height="22" viewBox="0 0 22 22" fill="none" xmlns="http://www.w3.org/2000/svg">
<path d="M3.67969 21.5977H17.8945C20.3555 21.5977 21.5742 20.3789 21.5742 17.9648V3.65625C21.5742 1.24219 20.3555 0.0234375 17.8945 0.0234375H3.67969C1.23047 0.0234375 0 1.23047 0 3.65625V17.9648C0 20.3906 1.23047 21.5977 3.67969 21.5977Z" fill="#FFCC00"/>
<path d="M7.14844 16.3359C6.58594 16.3359 6.25781 15.9609 6.25781 15.3633V6.04688C6.25781 5.42578 6.59766 5.02734 7.19531 5.02734C7.59375 5.02734 7.86328 5.17969 8.16797 5.61328L13.4297 13.1484H13.5117V6C13.5117 5.41406 13.8516 5.02734 14.4023 5.02734C14.9883 5.02734 15.3281 5.39062 15.3281 6V15.3281C15.3281 15.9727 14.9648 16.3359 14.3672 16.3359C13.9688 16.3359 13.7227 16.1953 13.4062 15.75L8.14453 8.34375H8.0625V15.3633C8.0625 15.9844 7.72266 16.3359 7.14844 16.3359Z" fill="black" fill-opacity="0.85"/>
</svg>
