<svg width="24" height="24" viewBox="0 0 24 24" fill="none" xmlns="http://www.w3.org/2000/svg">
<path d="M11.9531 23.9062C18.4922 23.9062 23.9062 18.4805 23.9062 11.9531C23.9062 5.41406 18.4805 0 11.9414 0C5.41406 0 0 5.41406 0 11.9531C0 18.4805 5.42578 23.9062 11.9531 23.9062ZM11.9531 21.9141C6.42188 21.9141 2.00391 17.4844 2.00391 11.9531C2.00391 6.42188 6.41016 1.99219 11.9414 1.99219C17.4727 1.99219 21.9141 6.42188 21.9141 11.9531C21.9141 17.4844 17.4844 21.9141 11.9531 21.9141Z" fill="#007AFF"/>
<path d="M7.03125 12.1406C7.03125 12.457 7.26562 12.7148 7.59375 12.7148H8.23828V17.0156C8.23828 17.4727 8.55469 17.7773 9 17.7773C9.44531 17.7773 9.75 17.4727 9.75 17.0156V12.7148H11.4375L13.6523 17.1094C13.8516 17.5312 14.1797 17.7891 14.6719 17.7891C15.2461 17.7891 15.6211 17.4141 15.6211 16.8398V12.7266H16.2891C16.6055 12.7266 16.8516 12.457 16.8516 12.1406C16.8516 11.8008 16.6055 11.5664 16.2891 11.5664H15.6211V7.23047C15.6211 6.77344 15.3164 6.46875 14.8594 6.46875C14.4141 6.46875 14.1094 6.77344 14.1094 7.23047V11.5664H12.4336L10.207 7.13672C10.0078 6.71484 9.67969 6.45703 9.1875 6.45703C8.61328 6.45703 8.23828 6.83203 8.23828 7.39453V11.5547H7.59375C7.27734 11.5547 7.03125 11.8008 7.03125 12.1406ZM9.75 11.5547V9.17578L10.8516 11.5547H9.75ZM13.0195 12.7266H14.1094V15.0938L13.0195 12.7266Z" fill="black" fill-opacity="0.85"/>
</svg>
