<svg width="24" height="24" viewBox="0 0 24 24" fill="none" xmlns="http://www.w3.org/2000/svg">
<path d="M11.9531 23.918C18.4922 23.918 23.9062 18.5039 23.9062 11.9648C23.9062 5.4375 18.4805 0.0117188 11.9414 0.0117188C5.41406 0.0117188 0 5.4375 0 11.9648C0 18.5039 5.42578 23.918 11.9531 23.918Z" fill="#FFCC00"/>
<path d="M5.67188 11.4258C5.67188 10.7695 6.09375 10.3711 6.77344 10.3711H7.05469V16.4297C7.05469 16.8398 6.74999 17.1094 6.36328 17.1094C5.96484 17.1094 5.67188 16.8516 5.67188 16.4297V11.4258ZM7.55859 17.9766C8.00391 17.7305 8.14453 17.4141 8.14453 16.8164V7.69922C8.14453 6.53906 8.71875 5.96484 9.89062 5.96484H16.4414C17.6133 5.96484 18.1992 6.53906 18.1992 7.69922V16.2422C18.1992 17.4141 17.6133 17.9766 16.4414 17.9766H7.55859ZM10.418 9.32812H15.9141C16.1484 9.32812 16.3008 9.16406 16.3008 8.94141C16.3008 8.74219 16.1484 8.58984 15.9141 8.58984H10.418C10.1953 8.58984 10.043 8.74219 10.043 8.94141C10.043 9.16406 10.1953 9.32812 10.418 9.32812ZM10.418 11.3086H15.9141C16.1484 11.3086 16.3008 11.1445 16.3008 10.9336C16.3008 10.7109 16.1484 10.5586 15.9141 10.5586H10.418C10.1953 10.5586 10.043 10.7109 10.043 10.9336C10.043 11.1445 10.1953 11.3086 10.418 11.3086ZM13.8984 13.3125H15.9141C16.1484 13.3125 16.3008 13.1484 16.3008 12.9492C16.3008 12.7383 16.1484 12.5742 15.9141 12.5742H13.8984C13.6758 12.5742 13.5234 12.7383 13.5234 12.9492C13.5234 13.1484 13.6758 13.3125 13.8984 13.3125ZM13.8984 15.3047H15.9141C16.1484 15.3047 16.3008 15.1523 16.3008 14.9297C16.3008 14.7188 16.1484 14.5547 15.9141 14.5547H13.8984C13.6758 14.5547 13.5234 14.7188 13.5234 14.9297C13.5234 15.1523 13.6758 15.3047 13.8984 15.3047ZM10.6758 15.3047H12.082C12.5039 15.3047 12.7617 15.0586 12.7617 14.6367V13.2422C12.7617 12.8203 12.5039 12.5742 12.082 12.5742H10.6758C10.2773 12.5742 10.0312 12.8203 10.0312 13.2422V14.6367C10.0312 15.0586 10.2773 15.3047 10.6758 15.3047Z" fill="black" fill-opacity="0.85"/>
</svg>
