<svg width="21" height="22" viewBox="0 0 21 22" fill="none" xmlns="http://www.w3.org/2000/svg">
<path d="M1.11328 21.1172C1.74609 21.1172 2.23828 20.625 2.23828 20.0039V15.5156L3.82031 13.9922L8.87109 20.6602C9.36328 21.3164 10.0547 21.3164 10.5117 20.9883C10.957 20.6602 11.1445 20.0156 10.6406 19.3594L5.46094 12.5391L10.2539 7.62891C10.793 7.07812 10.7109 6.49219 10.3594 6.14062C9.98438 5.75391 9.30469 5.66016 8.77734 6.21094L2.34375 12.9727H2.23828V1.11328C2.23828 0.492188 1.74609 0 1.11328 0C0.492188 0 0 0.492188 0 1.11328V20.0039C0 20.625 0.492188 21.1172 1.11328 21.1172ZM14.9648 21.1289C15.5859 21.1289 16.0898 20.625 16.0898 20.0039V11.9062C16.0898 9.87891 16.9688 8.02734 19.1836 8.02734C19.6875 8.02734 20.0508 8.03906 20.3789 7.92188C20.7305 7.78125 20.9766 7.5 20.9766 6.99609C20.9766 6.41016 20.6953 6.09375 20.2852 5.94141C20.0039 5.82422 19.6992 5.78906 19.3711 5.78906C17.9062 5.78906 16.5 6.86719 16.0781 8.70703H15.9844V6.86719C15.9844 6.26953 15.4922 5.78906 14.9062 5.78906C14.3203 5.78906 13.8398 6.26953 13.8398 6.86719V20.0039C13.8398 20.625 14.332 21.1289 14.9648 21.1289Z" fill="black" fill-opacity="0.85"/>
</svg>
