<svg width="24" height="24" viewBox="0 0 24 24" fill="none" xmlns="http://www.w3.org/2000/svg">
<path d="M11.9531 23.9062C18.4922 23.9062 23.9062 18.4805 23.9062 11.9531C23.9062 5.41406 18.4805 0 11.9414 0C5.41406 0 0 5.41406 0 11.9531C0 18.4805 5.42578 23.9062 11.9531 23.9062ZM11.9531 21.9141C6.42188 21.9141 2.00391 17.4844 2.00391 11.9531C2.00391 6.42188 6.41016 1.99219 11.9414 1.99219C17.4727 1.99219 21.9141 6.42188 21.9141 11.9531C21.9141 17.4844 17.4844 21.9141 11.9531 21.9141Z" fill="#007AFF"/>
<path d="M8.13281 16.8516C8.55469 16.8516 8.90625 16.5117 8.90625 16.0898V14.3438L9.52734 13.7578L11.332 16.4062C11.6367 16.875 12.1289 16.8984 12.457 16.6758C12.7383 16.4648 12.8789 16.043 12.5508 15.5625L10.6289 12.8086L12.5508 10.8047C12.8789 10.4648 12.7969 10.0781 12.5625 9.86719C12.3047 9.59766 11.8359 9.51562 11.4844 9.91406L8.92969 12.7617H8.90625V7.76953C8.90625 7.34766 8.55469 6.99609 8.13281 6.99609C7.71094 6.99609 7.37109 7.34766 7.37109 7.76953V16.0898C7.37109 16.5117 7.71094 16.8516 8.13281 16.8516ZM14.7422 16.8633C15.1523 16.8633 15.4688 16.5352 15.4688 16.1367V12.7148C15.4688 11.8594 15.7617 11.1445 16.6289 11.1445C16.9102 11.1445 17.2148 11.0859 17.4023 10.9336C17.5312 10.8281 17.625 10.6523 17.625 10.4297C17.625 10.1953 17.5547 10.0195 17.4258 9.89062C17.2734 9.75 17.0742 9.67969 16.8398 9.67969C16.1016 9.67969 15.6094 10.3242 15.4805 11.0742H15.4219V10.3594C15.4219 9.97266 15.1055 9.66797 14.7188 9.66797C14.332 9.66797 14.0273 9.97266 14.0273 10.3594V16.1367C14.0273 16.5352 14.3438 16.8633 14.7422 16.8633Z" fill="black" fill-opacity="0.85"/>
</svg>
