<svg width="24" height="22" viewBox="0 0 24 22" fill="none" xmlns="http://www.w3.org/2000/svg">
<path d="M3.67969 21.5977H19.6875C22.1367 21.5977 23.3555 20.3789 23.3555 17.9648V3.65625C23.3555 1.24219 22.1367 0.0234375 19.6875 0.0234375H3.67969C1.23047 0.0234375 0 1.23047 0 3.65625V17.9648C0 20.3906 1.23047 21.5977 3.67969 21.5977ZM3.50391 19.7109C2.46094 19.7109 1.88672 19.1602 1.88672 18.0703V7.01953C1.88672 5.94141 2.46094 5.37891 3.50391 5.37891H19.8398C20.8828 5.37891 21.4688 5.94141 21.4688 7.01953V18.0703C21.4688 19.1602 20.8828 19.7109 19.8398 19.7109H3.50391Z" fill="black" fill-opacity="0.85"/>
</svg>
