<svg width="22" height="22" viewBox="0 0 22 22" fill="none" xmlns="http://www.w3.org/2000/svg">
<path d="M3.67969 21.5977H17.8945C20.3555 21.5977 21.5742 20.3789 21.5742 17.9648V3.65625C21.5742 1.24219 20.3555 0.0234375 17.8945 0.0234375H3.67969C1.23047 0.0234375 0 1.23047 0 3.65625V17.9648C0 20.3906 1.23047 21.5977 3.67969 21.5977Z" fill="#FFCC00"/>
<path d="M7.6875 16.6992C7.18359 16.6992 6.82031 16.2773 6.91406 15.7734L7.41797 13.3945H6.31641C5.91797 13.3945 5.625 13.1016 5.625 12.6797C5.625 12.2227 5.96484 11.8711 6.44531 11.8711H7.73438L8.23828 9.42188H7.18359C6.77344 9.42188 6.48047 9.11719 6.48047 8.70703C6.48047 8.23828 6.83203 7.88672 7.30078 7.88672H8.57812L9.08203 5.41406C9.17578 4.95703 9.48047 4.71094 9.97266 4.71094C10.4648 4.71094 10.8164 5.14453 10.7109 5.63672L10.2539 7.88672H12.4922L13.0195 5.41406C13.1133 4.95703 13.418 4.71094 13.8867 4.71094C14.3906 4.71094 14.7539 5.13281 14.6602 5.63672L14.1797 7.88672H15.2578C15.6562 7.88672 15.9492 8.19141 15.9492 8.60156C15.9492 9.07031 15.6094 9.42188 15.1289 9.42188H13.8633L13.3477 11.8711H14.4023C14.8008 11.8711 15.0938 12.1758 15.0938 12.5859C15.0938 13.043 14.7539 13.3945 14.2734 13.3945H13.0195L12.4805 16.0078C12.3867 16.4531 12.0703 16.6992 11.5781 16.6992C11.0859 16.6992 10.7344 16.2773 10.8398 15.7734L11.332 13.4062H9.09375L8.54297 16.0078C8.44922 16.4531 8.15625 16.6992 7.6875 16.6992ZM9.30469 12.0117H11.7305L12.3047 9.29297H9.86719L9.30469 12.0117Z" fill="black" fill-opacity="0.85"/>
</svg>
