<svg width="24" height="24" viewBox="0 0 24 24" fill="none" xmlns="http://www.w3.org/2000/svg">
<path d="M11.9531 23.9062C18.4922 23.9062 23.9062 18.4805 23.9062 11.9531C23.9062 5.41406 18.4805 0 11.9414 0C5.41406 0 0 5.41406 0 11.9531C0 18.4805 5.42578 23.9062 11.9531 23.9062Z" fill="#FFCC00"/>
<path d="M8.83594 17.8594C8.34375 17.8594 7.98047 17.4375 8.07422 16.9336L8.56641 14.5547H7.47656C7.07812 14.5547 6.78516 14.2617 6.78516 13.8398C6.78516 13.3828 7.125 13.0312 7.60547 13.0312H8.89453L9.39844 10.582H8.34375C7.93359 10.582 7.64062 10.2773 7.64062 9.86719C7.64062 9.39844 7.98047 9.04688 8.46094 9.04688H9.72656L10.2422 6.57422C10.3359 6.11719 10.6406 5.87109 11.1328 5.87109C11.625 5.87109 11.9766 6.30469 11.8711 6.79688L11.4141 9.04688H13.6523L14.1797 6.57422C14.2734 6.11719 14.5781 5.87109 15.0469 5.87109C15.5508 5.87109 15.9023 6.29297 15.8203 6.79688L15.3398 9.04688H16.418C16.8164 9.04688 17.1094 9.35156 17.1094 9.76172C17.1094 10.2305 16.7695 10.582 16.2891 10.582H15.0234L14.5078 13.0312H15.5625C15.9609 13.0312 16.2539 13.3359 16.2539 13.7461C16.2539 14.2031 15.9141 14.5547 15.4336 14.5547H14.1797L13.6406 17.168C13.5469 17.6133 13.2305 17.8594 12.7383 17.8594C12.2461 17.8594 11.8945 17.4375 12 16.9336L12.4922 14.5664H10.2539L9.69141 17.168C9.60938 17.6133 9.31641 17.8594 8.83594 17.8594ZM10.4648 13.1719H12.8789L13.4648 10.4531H11.0273L10.4648 13.1719Z" fill="black" fill-opacity="0.85"/>
</svg>
