<svg width="24" height="24" viewBox="0 0 24 24" fill="none" xmlns="http://www.w3.org/2000/svg">
<path d="M11.9531 23.9062C18.4922 23.9062 23.9062 18.4805 23.9062 11.9531C23.9062 5.41406 18.4805 0 11.9414 0C5.41406 0 0 5.41406 0 11.9531C0 18.4805 5.42578 23.9062 11.9531 23.9062Z" fill="#FFCC00"/>
<path d="M11.9531 17.625C8.87109 17.625 6.72656 15.2578 6.72656 11.8477C6.72656 8.42578 8.87109 6.05859 11.9531 6.05859C15.0469 6.05859 17.1914 8.42578 17.1914 11.8477C17.1914 15.2578 15.0469 17.625 11.9531 17.625ZM11.9531 16.1016C13.9453 16.1016 15.2461 14.4141 15.2461 11.8477C15.2461 9.26953 13.9453 7.58203 11.9531 7.58203C9.96094 7.58203 8.66016 9.26953 8.66016 11.8477C8.66016 14.4141 9.96094 16.1016 11.9531 16.1016Z" fill="black" fill-opacity="0.85"/>
</svg>
