<svg width="22" height="22" viewBox="0 0 22 22" fill="none" xmlns="http://www.w3.org/2000/svg">
<path d="M3.67969 21.5977H17.8945C20.3555 21.5977 21.5742 20.3789 21.5742 17.9648V3.65625C21.5742 1.24219 20.3555 0.0234375 17.8945 0.0234375H3.67969C1.23047 0.0234375 0 1.23047 0 3.65625V17.9648C0 20.3906 1.23047 21.5977 3.67969 21.5977ZM3.70312 19.7109C2.53125 19.7109 1.88672 19.0898 1.88672 17.8711V3.75C1.88672 2.53125 2.53125 1.91016 3.70312 1.91016H17.8711C19.0312 1.91016 19.6875 2.53125 19.6875 3.75V17.8711C19.6875 19.0898 19.0312 19.7109 17.8711 19.7109H3.70312Z" fill="#007AFF"/>
<path d="M10.793 16.2891C13.793 16.2891 15.8672 13.9922 15.8672 10.6875C15.8672 7.37109 13.793 5.07422 10.793 5.07422C7.80469 5.07422 5.73047 7.37109 5.73047 10.6875C5.73047 13.9922 7.80469 16.2891 10.793 16.2891ZM10.793 14.8125C8.85938 14.8125 7.59375 13.1836 7.59375 10.6875C7.59375 8.17969 8.85938 6.55078 10.793 6.55078C12.7266 6.55078 13.9922 8.17969 13.9922 10.6875C13.9922 13.1836 12.7266 14.8125 10.793 14.8125Z" fill="black" fill-opacity="0.85"/>
</svg>
