<svg width="25" height="24" viewBox="0 0 25 24" fill="none" xmlns="http://www.w3.org/2000/svg">
<path d="M8.48438 23.1797H15.5977C17.0859 23.1797 17.7891 22.6992 18.5625 21.8672L23.1094 16.8516C23.8711 16.0078 24.082 15.4336 24.082 14.2734V8.91797C24.082 7.74609 23.8711 7.18359 23.1094 6.33984L18.5625 1.32422C17.7891 0.492188 17.0859 0 15.5977 0H8.48438C6.99609 0 6.28125 0.492188 5.51953 1.32422L0.972656 6.33984C0.199219 7.18359 0 7.74609 0 8.91797V14.2734C0 15.4336 0.199219 16.0078 0.972656 16.8516L5.51953 21.8672C6.28125 22.6992 6.99609 23.1797 8.48438 23.1797ZM9.11719 21.3047C7.94531 21.3047 7.60547 21.0469 6.96094 20.3438L2.73047 15.7148C2.27344 15.1992 2.16797 14.9062 2.16797 14.0508V9.14062C2.16797 8.28516 2.27344 7.99219 2.73047 7.47656L6.96094 2.84766C7.60547 2.13281 7.94531 1.88672 9.11719 1.88672H14.9648C16.1367 1.88672 16.4648 2.13281 17.1211 2.84766L21.3398 7.47656C21.8086 7.99219 21.9141 8.28516 21.9141 9.14062V14.0508C21.9141 14.9062 21.8086 15.1992 21.3398 15.7148L17.1211 20.3438C16.4648 21.0469 16.1367 21.3047 14.9648 21.3047H9.11719Z" fill="#007AFF"/>
</svg>
