<svg width="24" height="22" viewBox="0 0 24 22" fill="none" xmlns="http://www.w3.org/2000/svg">
<path d="M6.75 0H1.10156C0.480469 0 0 0.457031 0 1.05469C0 1.65234 0.480469 2.12109 1.10156 2.12109H6.25781C6.67969 2.12109 6.98438 2.30859 7.16016 2.69531L14.8828 20.0391C15.3164 21.0234 16.0312 21.4805 17.1094 21.4805H22.8281C23.4375 21.4805 23.9297 21.0117 23.9297 20.4258C23.9297 19.8398 23.4375 19.3594 22.8281 19.3594H17.6367C17.168 19.3594 16.875 19.1836 16.6875 18.7969L9 1.46484C8.60156 0.550781 7.75781 0 6.75 0ZM22.8281 0H15.2461C14.625 0 14.1445 0.445312 14.1445 1.04297C14.1445 1.64062 14.625 2.09766 15.2461 2.09766H22.8281C23.4492 2.09766 23.918 1.64062 23.918 1.04297C23.918 0.445312 23.4492 0 22.8281 0Z" fill="black" fill-opacity="0.85"/>
</svg>
