<svg width="25" height="21" viewBox="0 0 25 21" fill="none" xmlns="http://www.w3.org/2000/svg">
<path d="M2.75391 20.2266H21.6094C23.2617 20.2266 24.3633 19.1133 24.3633 17.4727V2.75391C24.3633 1.11328 23.2617 0 21.6094 0H2.75391C1.10156 0 0 1.11328 0 2.75391V17.4727C0 19.1133 1.10156 20.2266 2.75391 20.2266ZM2.77734 18.3398C2.23828 18.3398 1.88672 17.9531 1.88672 17.3789V2.84766C1.88672 2.27344 2.23828 1.88672 2.77734 1.88672H21.5977C22.125 1.88672 22.4766 2.27344 22.4766 2.84766V17.3789C22.4766 17.9531 22.125 18.3398 21.5977 18.3398H2.77734ZM5.15625 4.72266C5.71875 4.72266 6.17578 4.26562 6.17578 3.69141C6.17578 3.12891 5.71875 2.67188 5.15625 2.67188C4.58203 2.67188 4.125 3.12891 4.125 3.69141C4.125 4.26562 4.58203 4.72266 5.15625 4.72266ZM8.16797 4.72266C8.74219 4.72266 9.19922 4.26562 9.19922 3.69141C9.19922 3.12891 8.74219 2.67188 8.16797 2.67188C7.60547 2.67188 7.14844 3.12891 7.14844 3.69141C7.14844 4.26562 7.60547 4.72266 8.16797 4.72266ZM11.1914 4.72266C11.7539 4.72266 12.2109 4.26562 12.2109 3.69141C12.2109 3.12891 11.7539 2.67188 11.1914 2.67188C10.6172 2.67188 10.1602 3.12891 10.1602 3.69141C10.1602 4.26562 10.6172 4.72266 11.1914 4.72266ZM16.6875 4.28906H19.8516C20.2031 4.28906 20.4375 4.04297 20.4375 3.69141C20.4375 3.33984 20.2031 3.10547 19.8516 3.10547H16.6875C16.3359 3.10547 16.0898 3.33984 16.0898 3.69141C16.0898 4.04297 16.3359 4.28906 16.6875 4.28906ZM1.13672 7.00781H23.25V5.47266H1.13672V7.00781ZM4.93359 16.8867H19.4414C20.1094 16.8867 20.5312 16.4648 20.5312 15.7969V9.43359C20.5312 8.76562 20.1094 8.33203 19.4414 8.33203H4.93359C4.26562 8.33203 3.83203 8.76562 3.83203 9.43359V15.7969C3.83203 16.4648 4.26562 16.8867 4.93359 16.8867ZM5.44922 15.5859C5.27344 15.5859 5.14453 15.457 5.14453 15.2812V9.94922C5.14453 9.76172 5.27344 9.63281 5.44922 9.63281H18.9258C19.1016 9.63281 19.2305 9.76172 19.2305 9.94922V15.2812C19.2305 15.457 19.1016 15.5859 18.9258 15.5859H5.44922ZM4.91016 12.2461H19.4648V10.9453H4.91016V12.2461Z" fill="black" fill-opacity="0.85"/>
</svg>
