<svg width="24" height="24" viewBox="0 0 24 24" fill="none" xmlns="http://www.w3.org/2000/svg">
<path d="M11.9531 23.9062C18.4922 23.9062 23.9062 18.4805 23.9062 11.9531C23.9062 5.41406 18.4805 0 11.9414 0C5.41406 0 0 5.41406 0 11.9531C0 18.4805 5.42578 23.9062 11.9531 23.9062ZM11.9531 21.9141C6.42188 21.9141 2.00391 17.4844 2.00391 11.9531C2.00391 6.42188 6.41016 1.99219 11.9414 1.99219C17.4727 1.99219 21.9141 6.42188 21.9141 11.9531C21.9141 17.4844 17.4844 21.9141 11.9531 21.9141Z" fill="#007AFF"/>
<path d="M9.42188 17.3203C10.043 17.3203 10.3711 16.9102 10.3711 16.2656V13.6992H12.6797C14.9648 13.6992 16.5 12.2695 16.5 10.1133C16.5 7.95703 14.9531 6.50391 12.6914 6.50391H9.41016C8.8125 6.50391 8.49609 6.92578 8.49609 7.55859V16.2656C8.49609 16.8867 8.82422 17.3203 9.42188 17.3203ZM10.3711 12.2695V7.93359H12.4219C13.793 7.93359 14.6484 8.76562 14.6484 10.1133C14.6484 11.4375 13.8047 12.2695 12.4219 12.2695H10.3711Z" fill="black" fill-opacity="0.85"/>
</svg>
