<svg width="22" height="22" viewBox="0 0 22 22" fill="none" xmlns="http://www.w3.org/2000/svg">
<path d="M3.67969 21.5977H17.8945C20.3555 21.5977 21.5742 20.3789 21.5742 17.9648V3.65625C21.5742 1.24219 20.3555 0.0234375 17.8945 0.0234375H3.67969C1.23047 0.0234375 0 1.23047 0 3.65625V17.9648C0 20.3906 1.23047 21.5977 3.67969 21.5977ZM3.70312 19.7109C2.53125 19.7109 1.88672 19.0898 1.88672 17.8711V3.75C1.88672 2.53125 2.53125 1.91016 3.70312 1.91016H17.8711C19.0312 1.91016 19.6875 2.53125 19.6875 3.75V17.8711C19.6875 19.0898 19.0312 19.7109 17.8711 19.7109H3.70312Z" fill="#007AFF"/>
<path d="M8.27344 16.1602C8.89453 16.1602 9.22266 15.75 9.22266 15.1055V12.5391H11.5312C13.8281 12.5391 15.3516 11.1094 15.3516 8.95312C15.3516 6.79688 13.8047 5.34375 11.543 5.34375H8.27344C7.66406 5.34375 7.34766 5.76562 7.34766 6.39844V15.1055C7.34766 15.7266 7.67578 16.1602 8.27344 16.1602ZM9.22266 11.1094V6.77344H11.2734C12.6445 6.77344 13.5 7.60547 13.5 8.95312C13.5 10.2773 12.6562 11.1094 11.2734 11.1094H9.22266Z" fill="black" fill-opacity="0.85"/>
</svg>
