<svg width="22" height="22" viewBox="0 0 22 22" fill="none" xmlns="http://www.w3.org/2000/svg">
<path d="M3.67969 21.5977H17.8945C20.3555 21.5977 21.5742 20.3789 21.5742 17.9648V3.65625C21.5742 1.24219 20.3555 0.0234375 17.8945 0.0234375H3.67969C1.23047 0.0234375 0 1.23047 0 3.65625V17.9648C0 20.3906 1.23047 21.5977 3.67969 21.5977Z" fill="#FFCC00"/>
<path d="M8.20312 16.3359C7.58203 16.3359 7.24219 15.8789 7.24219 15.2344V6.26953C7.24219 5.61328 7.57031 5.16797 8.20312 5.16797H11.5664C13.9102 5.16797 15.5039 6.66797 15.5039 8.89453C15.5039 11.1211 13.9336 12.5977 11.5547 12.5977H9.1875V15.2344C9.1875 15.9023 8.84766 16.3359 8.20312 16.3359ZM9.1875 11.1211H11.2969C12.7148 11.1211 13.582 10.2656 13.582 8.89453C13.582 7.51172 12.7031 6.65625 11.2969 6.65625H9.1875V11.1211Z" fill="black" fill-opacity="0.85"/>
</svg>
