<svg width="28" height="22" viewBox="0 0 28 22" fill="none" xmlns="http://www.w3.org/2000/svg">
<path d="M9.23438 21.0352H18.3984C25.1953 21.0352 27.6328 18.5156 27.6328 12.2461V8.80078C27.6328 2.53125 25.1953 0 18.3984 0H9.23438C2.4375 0 0 2.53125 0 8.80078V12.2461C0 18.5156 2.4375 21.0352 9.23438 21.0352ZM9.23438 19.1484C3.70312 19.1484 1.88672 17.3555 1.88672 12.2461V8.80078C1.88672 3.69141 3.70312 1.88672 9.23438 1.88672H18.3984C23.9297 1.88672 25.7461 3.69141 25.7461 8.80078V12.2461C25.7461 17.3555 23.9297 19.1484 18.3984 19.1484H9.23438Z" fill="#007AFF"/>
<path d="M9.10547 15.375C9.66797 15.375 9.96094 15.0352 9.96094 14.4961V12.1172H11.1914C12.9844 12.1172 14.0156 10.7578 14.0156 8.95312C14.0156 7.17188 13.0078 5.76562 11.2969 5.76562H9.09375C8.60156 5.76562 8.25 6.09375 8.25 6.66797V14.4961C8.25 15.0469 8.55469 15.375 9.10547 15.375ZM9.96094 10.7695V7.14844H10.8633C11.8477 7.14844 12.3164 7.85156 12.3164 8.95312C12.3164 9.99609 11.8945 10.7695 10.8516 10.7695H9.96094ZM17.9414 15.3867C18.3984 15.3867 18.7852 15 18.7852 14.5312V6.58594C18.7852 5.98828 18.4102 5.63672 17.8008 5.63672C17.3086 5.63672 16.9102 5.90625 16.6406 6.11719L15.3516 7.11328C15.1406 7.27734 14.9766 7.5 14.9766 7.80469C14.9766 8.16797 15.2227 8.42578 15.5742 8.42578C15.7617 8.42578 15.8789 8.36719 15.9961 8.28516L17.0742 7.41797V14.5312C17.0742 15 17.4609 15.3867 17.9414 15.3867Z" fill="black" fill-opacity="0.85"/>
</svg>
