<svg width="28" height="22" viewBox="0 0 28 22" fill="none" xmlns="http://www.w3.org/2000/svg">
<path d="M9.23438 21.0352H18.3984C25.1953 21.0352 27.6328 18.5156 27.6328 12.2461V8.80078C27.6328 2.53125 25.1953 0 18.3984 0H9.23438C2.4375 0 0 2.53125 0 8.80078V12.2461C0 18.5156 2.4375 21.0352 9.23438 21.0352Z" fill="#FFCC00"/>
<path d="M8.19141 15.5273C7.61719 15.5273 7.30078 15.1875 7.30078 14.6133V6.55078C7.30078 5.95312 7.66406 5.61328 8.17969 5.61328H10.4531C12.2344 5.61328 13.2656 7.06641 13.2656 8.90625C13.2656 10.7695 12.1992 12.1758 10.3594 12.1758H9.08203V14.6133C9.08203 15.1758 8.77734 15.5273 8.19141 15.5273ZM9.08203 10.7695H9.99609C11.0625 10.7695 11.5078 9.98438 11.5078 8.90625C11.5078 7.76953 11.0156 7.04297 10.0078 7.04297H9.08203V10.7695ZM17.4844 15.6211C16.1836 15.6211 14.9531 15 14.6133 13.875C14.5547 13.6758 14.5078 13.4648 14.5078 13.2422C14.5078 12.7734 14.8242 12.4805 15.3047 12.4805C15.6914 12.4805 15.9609 12.6797 16.0664 13.0781C16.2305 13.6289 16.6055 14.2148 17.4844 14.2148C18.3867 14.2148 18.832 13.5 18.832 12.668C18.832 11.625 18.2578 11.0625 17.2383 11.0625H16.9336C16.5352 11.0625 16.2656 10.8281 16.2656 10.4297C16.2656 10.0312 16.5234 9.77344 16.9336 9.77344H17.2266C18.1289 9.77344 18.6094 9.12891 18.6094 8.25C18.6094 7.45312 18.2344 6.84375 17.4375 6.84375C16.7695 6.84375 16.3828 7.28906 16.1836 8.00391C16.0664 8.42578 15.8203 8.57812 15.4102 8.57812C14.9414 8.57812 14.6719 8.26172 14.6719 7.86328C14.6719 7.65234 14.6953 7.44141 14.7539 7.20703C15.1055 6.14062 16.1836 5.4375 17.4375 5.4375C19.0195 5.4375 20.2617 6.38672 20.2617 8.0625C20.2617 9.07031 19.7344 10.0547 18.6445 10.3477V10.3828C19.6523 10.4883 20.5547 11.2266 20.5547 12.7266C20.5547 14.5312 19.2188 15.6211 17.4844 15.6211Z" fill="black" fill-opacity="0.85"/>
</svg>
