<svg width="18" height="32" viewBox="0 0 18 32" fill="none" xmlns="http://www.w3.org/2000/svg">
<path d="M0 18.1002C0 22.4127 0.878906 25.7994 2.92969 29.1862C4.07812 31.0377 6.02344 31.5885 8.02734 30.6158L10.3477 29.4908C12.4453 28.483 13.4414 27.1471 13.4414 25.319C13.4414 24.4987 13.1484 23.8658 13.1484 23.3268C13.1484 22.694 13.582 22.3072 14.332 22.3072H16.5117C17.25 22.3072 17.7891 21.6979 17.7891 20.901V18.0885C17.7891 17.1979 17.168 16.5533 16.3242 16.5533H13.4414C12.3164 16.5533 11.7773 15.9088 11.7773 14.8424C11.7773 12.2291 12.2461 9.19396 14.0859 5.01037C14.9648 3.00646 14.3438 1.55334 12.2344 0.721307L11.0859 0.275995C9.30469 -0.42713 7.76953 0.311151 6.72656 1.38928C1.92188 6.44006 0 13.2135 0 18.1002ZM1.88672 18.1002C1.88672 13.6237 3.53906 7.44787 8.15625 2.60803C8.83594 1.91662 9.33984 1.63537 10.5234 2.08068L11.6953 2.52599C12.5039 2.83068 12.7266 3.44006 12.3516 4.26037C10.2891 8.86584 9.86719 12.2526 9.86719 14.1744C9.86719 19.4596 11.6602 23.444 11.6602 24.9908C11.6602 26.3385 11.1797 27.0065 9.46875 27.8619L7.35938 28.9283C6.23438 29.4908 5.17969 29.2096 4.54688 28.2018C2.63672 25.0494 1.88672 22.1783 1.88672 18.1002Z" fill="black" fill-opacity="0.85"/>
</svg>
