<svg width="18" height="32" viewBox="0 0 18 32" fill="none" xmlns="http://www.w3.org/2000/svg">
<path d="M17.7891 18.1002C17.7891 13.2135 15.8672 6.44006 11.0508 1.38928C10.0195 0.311151 8.48438 -0.42713 6.69141 0.275995L5.55469 0.721307C3.43359 1.55334 2.82422 3.00646 3.69141 5.01037C5.54297 9.19396 6 12.2291 6 14.8424C6 15.9088 5.46094 16.5533 4.34766 16.5533H1.46484C0.621094 16.5533 0 17.1979 0 18.0885V20.901C0 21.6979 0.539062 22.3072 1.27734 22.3072H3.45703C4.20703 22.3072 4.64062 22.694 4.64062 23.3268C4.64062 23.8658 4.34766 24.4987 4.34766 25.319C4.34766 27.1471 5.34375 28.483 7.42969 29.4908L9.76172 30.6158C11.7656 31.5885 13.7109 31.0377 14.8477 29.1862C16.9102 25.7994 17.7891 22.4127 17.7891 18.1002Z" fill="black" fill-opacity="0.85"/>
</svg>
