<svg width="23" height="26" viewBox="0 0 23 26" fill="none" xmlns="http://www.w3.org/2000/svg">
<path d="M19.0991 13.4301L10.4858 22.0434C8.24753 24.2934 5.23581 24.0708 3.31393 22.1255C1.38034 20.2036 1.15768 17.2153 3.39597 14.9653L15.1499 3.22308C16.4975 1.87542 18.478 1.68792 19.7671 2.96526C21.0444 4.26604 20.8569 6.23479 19.521 7.58245L8.03659 19.0669C7.46237 19.6645 6.75925 19.4887 6.36081 19.0903C5.96237 18.6801 5.79831 18.0005 6.37253 17.4028L14.3999 9.39886C14.7514 9.03558 14.7749 8.51995 14.435 8.18011C14.0952 7.85198 13.5796 7.87542 13.228 8.22698L5.17722 16.2778C3.9819 17.4731 4.02878 19.3012 5.08347 20.3559C6.2319 21.5044 7.96628 21.4809 9.17331 20.2739L20.7046 8.74261C22.896 6.5512 22.8022 3.66839 20.8921 1.75823C19.0288 -0.105051 16.0991 -0.245676 13.9077 1.94573L2.09518 13.77C-0.799346 16.6645 -0.57669 20.8012 2.03659 23.4145C4.64987 26.0161 8.78659 26.2387 11.6811 23.3559L20.353 14.6841C20.6928 14.3442 20.6928 13.7231 20.3413 13.4067C20.0014 13.0434 19.4507 13.0903 19.0991 13.4301Z" fill="black" fill-opacity="0.85"/>
</svg>
