<svg width="30" height="30" viewBox="0 0 30 30" fill="none" xmlns="http://www.w3.org/2000/svg">
<path d="M18.598 22.0312C21.7972 20.6953 18.7855 15.5742 16.2074 12.9727C13.5121 10.3008 8.69568 7.21874 7.14881 10.5938L0.199587 25.9922C-0.57385 27.7148 1.03162 29.3672 2.76599 28.6406L18.598 22.0312ZM1.67615 26.625L7.52381 13.6523C8.10974 15.1406 9.29334 16.8281 10.8168 18.3633C12.3168 19.8516 13.9574 21.0117 15.4222 21.6094L2.1449 27.1289C1.74646 27.293 1.48865 27.0469 1.67615 26.625ZM8.80115 10.9453C9.57459 10.1602 12.2465 11.3086 15.0472 14.1328C17.8832 16.9336 19.0082 19.6172 18.2347 20.3789C17.4496 21.1758 14.7777 20.0273 11.9652 17.2031C9.15271 14.4023 8.01599 11.7188 8.80115 10.9453Z" fill="#007AFF"/>
<path d="M10.5234 2.56641C11.2265 2.56641 11.8125 1.99219 11.8125 1.27734C11.8125 0.574219 11.2265 0 10.5234 0C9.79687 0 9.23438 0.574219 9.23438 1.27734C9.23438 1.99219 9.79687 2.56641 10.5234 2.56641ZM12.0703 4.75781C11.9882 4.32422 11.707 3.96094 11.25 3.96094C10.8164 3.97266 10.3711 4.33594 10.4648 4.80469C10.9922 7.55859 10.9922 10.3945 10.4648 13.1953C10.3593 13.6523 10.8164 14.0039 11.2382 14.0156C11.6836 14.0156 11.9765 13.6641 12.0586 13.2305C12.6093 10.3711 12.6093 7.58203 12.0703 4.75781ZM17.7656 4.59375C18.9961 4.59375 19.9687 3.60938 19.9687 2.39062C19.9687 1.14844 18.9961 0.1875 17.7656 0.1875C16.5351 0.1875 15.5625 1.14844 15.5625 2.39062C15.5625 3.60938 16.5351 4.59375 17.7656 4.59375ZM15.539 8.28516C16.1132 8.28516 16.5703 7.81641 16.5703 7.24219C16.5703 6.67969 16.1132 6.21094 15.539 6.21094C14.9765 6.21094 14.4961 6.67969 14.4961 7.24219C14.4961 7.81641 14.9765 8.28516 15.539 8.28516ZM27.3281 3.23438C27.8906 3.23438 28.3476 2.77734 28.3476 2.20312C28.3476 1.62891 27.8906 1.16016 27.3281 1.16016C26.7539 1.16016 26.2968 1.62891 26.2968 2.20312C26.2968 2.77734 26.7539 3.23438 27.3281 3.23438ZM23.9414 3.99609L21.75 6.1875C21.4453 6.50391 21.4453 7.01953 21.75 7.33594C22.0781 7.65234 22.5937 7.65234 22.9101 7.33594L25.1015 5.15625C25.4062 4.83984 25.4062 4.3125 25.1015 3.99609C24.7851 3.69141 24.2578 3.69141 23.9414 3.99609ZM19.5937 8.35547L13.6172 14.3203C13.3125 14.6367 13.3125 15.1641 13.6172 15.4805C13.9336 15.7852 14.4609 15.7852 14.7773 15.4805L20.7422 9.50391C21.0351 9.19922 21.0351 8.68359 20.7422 8.35547C20.414 8.0625 19.8984 8.0625 19.5937 8.35547ZM28.3945 13.7461C29.1093 13.7461 29.6836 13.1719 29.6836 12.4453C29.6836 11.7422 29.1093 11.168 28.3945 11.168C27.6679 11.168 27.1054 11.7422 27.1054 12.4453C27.1054 13.1719 27.6679 13.7461 28.3945 13.7461ZM23.3554 14.2266C24.3984 14.2266 25.2304 13.418 25.2304 12.375C25.2304 11.3438 24.3984 10.5117 23.3554 10.5117C22.3242 10.5117 21.5156 11.3438 21.5156 12.375C21.5156 13.418 22.3242 14.2266 23.3554 14.2266ZM27.9492 19.7461C28.664 19.7461 29.2382 19.1836 29.2382 18.457C29.2382 17.7422 28.664 17.168 27.9492 17.168C27.2343 17.168 26.6601 17.7422 26.6601 18.457C26.6601 19.1836 27.2343 19.7461 27.9492 19.7461ZM24.375 17.0273C21.539 16.4883 18.7617 16.4883 15.8906 17.0273C15.4687 17.1211 15.1054 17.4141 15.1172 17.8477C15.1172 18.2812 15.4687 18.7383 15.9375 18.6445C18.7382 18.1172 21.5625 18.1055 24.3281 18.6328C24.7734 18.7266 25.1484 18.293 25.1601 17.8477C25.1718 17.3906 24.7968 17.1094 24.375 17.0273Z" fill="black" fill-opacity="0.85"/>
</svg>
