<svg width="15" height="20" viewBox="0 0 15 20" fill="none" xmlns="http://www.w3.org/2000/svg">
<path d="M1.55859 19.0898H4.23047C5.25 19.0898 5.78906 18.5508 5.78906 17.5195V1.55859C5.78906 0.492188 5.25 0 4.23047 0H1.55859C0.539062 0 0 0.539062 0 1.55859V17.5195C0 18.5508 0.539062 19.0898 1.55859 19.0898ZM10.0781 19.0898H12.7383C13.7695 19.0898 14.2969 18.5508 14.2969 17.5195V1.55859C14.2969 0.492188 13.7695 0 12.7383 0H10.0781C9.04688 0 8.50781 0.539062 8.50781 1.55859V17.5195C8.50781 18.5508 9.04688 19.0898 10.0781 19.0898Z" fill="black" fill-opacity="0.85"/>
</svg>
