<svg width="28" height="22" viewBox="0 0 28 22" fill="none" xmlns="http://www.w3.org/2000/svg">
<path d="M3.67969 21.5742H23.9531C26.4141 21.5742 27.6328 20.3672 27.6328 17.9531V3.63281C27.6328 1.21875 26.4141 0 23.9531 0H3.67969C1.23047 0 0 1.21875 0 3.63281V17.9531C0 20.3672 1.23047 21.5742 3.67969 21.5742Z" fill="#FFCC00"/>
<path d="M10.418 15.5039C9.80859 15.5039 9.53906 15.1758 9.53906 14.707V6.85547C9.53906 6.39844 9.80859 6.07031 10.418 6.07031H11.6016C12.1992 6.07031 12.4688 6.39844 12.4688 6.85547V14.707C12.4688 15.1758 12.1992 15.5039 11.6016 15.5039H10.418ZM16.0664 15.5039C15.4688 15.5039 15.1875 15.1758 15.1875 14.707V6.85547C15.1875 6.39844 15.4688 6.07031 16.0664 6.07031H17.2617C17.8477 6.07031 18.1172 6.39844 18.1172 6.85547V14.707C18.1172 15.1758 17.8477 15.5039 17.2617 15.5039H16.0664Z" fill="black" fill-opacity="0.85"/>
</svg>
