<svg width="24" height="24" viewBox="0 0 24 24" fill="none" xmlns="http://www.w3.org/2000/svg">
<path d="M11.9531 23.9062C18.4922 23.9062 23.9062 18.4805 23.9062 11.9531C23.9062 5.41406 18.4805 0 11.9414 0C5.41406 0 0 5.41406 0 11.9531C0 18.4805 5.42578 23.9062 11.9531 23.9062Z" fill="#FFCC00"/>
<path d="M5.49609 11.0391C5.49609 9.82031 6.14062 8.88281 6.97266 8.88281C7.79297 8.88281 8.44922 9.82031 8.44922 11.0391C8.44922 12.2461 7.79297 13.1719 6.97266 13.1719C6.14062 13.1719 5.49609 12.2461 5.49609 11.0391ZM8.47266 7.48828C8.47266 6.28125 9.12891 5.36719 9.94922 5.36719C10.7812 5.36719 11.4258 6.29297 11.4258 7.48828C11.4258 8.69531 10.7812 9.64453 9.94922 9.64453C9.12891 9.64453 8.47266 8.69531 8.47266 7.48828ZM12.4688 7.48828C12.4688 6.29297 13.1133 5.36719 13.9336 5.36719C14.7656 5.36719 15.4219 6.28125 15.4219 7.48828C15.4219 8.69531 14.7656 9.64453 13.9336 9.64453C13.1133 9.64453 12.4688 8.69531 12.4688 7.48828ZM15.4453 11.0391C15.4453 9.82031 16.1016 8.88281 16.9219 8.88281C17.7422 8.88281 18.3867 9.82031 18.3867 11.0391C18.3867 12.2461 17.7422 13.1719 16.9219 13.1719C16.1016 13.1719 15.4453 12.2461 15.4453 11.0391ZM7.34766 15.7617C7.34766 14.7188 7.98047 14.1797 8.57812 13.6758C8.90625 13.418 9.23438 13.1602 9.48047 12.7969C9.64453 12.5273 9.78516 12.2344 9.9375 11.9531C10.3594 11.0156 10.7109 10.1367 11.9414 10.1367C13.1836 10.1367 13.5234 11.0039 13.957 11.9531C14.0977 12.2344 14.2383 12.5391 14.4141 12.8086C14.6602 13.1602 14.9883 13.418 15.3164 13.6758C15.9141 14.1797 16.5469 14.7188 16.5469 15.7617C16.5469 17.0039 15.7148 17.8711 14.4844 17.8711C13.8867 17.8711 13.4531 17.7188 13.0195 17.5664C12.6797 17.4375 12.3398 17.3438 11.9414 17.3438C11.543 17.3438 11.2148 17.4375 10.8633 17.5664C10.4414 17.7188 10.0078 17.8711 9.39844 17.8711C8.16797 17.8711 7.34766 17.0039 7.34766 15.7617Z" fill="black" fill-opacity="0.85"/>
</svg>
