<svg width="20" height="21" viewBox="0 0 20 21" fill="none" xmlns="http://www.w3.org/2000/svg">
<path d="M3.19778 18.4302L15.9947 5.65674L13.9322 3.59424L1.147 16.3677L0.0220025 18.981C-0.0834663 19.2622 0.209503 19.5904 0.490753 19.4732L3.19778 18.4302ZM17.0142 4.64893L18.1978 3.48877C18.8072 2.89112 18.8423 2.24659 18.2915 1.70752L17.9048 1.30909C17.3658 0.781738 16.7212 0.828613 16.1353 1.41455L14.94 2.58643L17.0142 4.64893Z" fill="#007AFF"/>
<path d="M15.9711 18.6059C16.8735 19.4965 18.3266 19.4965 19.2055 18.5825C20.061 17.7035 20.061 16.2739 19.1938 15.395L4.45159 0.664484C3.42034 -0.366766 1.61565 -0.202704 0.865655 1.19183C0.385186 2.0473 0.514092 3.16058 1.22893 3.87542L15.9711 18.6059Z" fill="white"/>
<path d="M16.9444 17.6451C17.2959 17.9966 17.8819 17.9966 18.2217 17.6451C18.5616 17.2818 18.5733 16.7193 18.2217 16.3677L3.49121 1.63722C3.13965 1.28566 2.54199 1.27394 2.20215 1.63722C1.86231 1.97706 1.86231 2.57472 2.20215 2.91456L16.9444 17.6451Z" fill="black" fill-opacity="0.85"/>
</svg>
