<svg width="20" height="21" viewBox="0 0 20 21" fill="none" xmlns="http://www.w3.org/2000/svg">
<path d="M3.19778 18.43L15.9947 5.65661L13.9322 3.59411L1.147 16.3675L0.0220025 18.9808C-0.0834663 19.262 0.209503 19.5902 0.490753 19.473L3.19778 18.43ZM17.0142 4.6488L18.1978 3.48864C18.8072 2.89099 18.8423 2.24646 18.2915 1.70739L17.9048 1.30896C17.3658 0.781616 16.7212 0.828491 16.1353 1.41442L14.94 2.5863L17.0142 4.6488Z" fill="#007AFF"/>
<path d="M15.9711 18.6059C16.8735 19.4965 18.3266 19.4965 19.2055 18.5825C20.061 17.7035 20.061 16.2739 19.1938 15.395L4.45159 0.664484C3.42034 -0.366766 1.61565 -0.202704 0.865655 1.19183C0.385186 2.0473 0.514092 3.16058 1.22893 3.87542L15.9711 18.6059Z" fill="white"/>
<path d="M16.9444 17.645C17.2959 17.9965 17.8819 17.9965 18.2217 17.645C18.5616 17.2817 18.5733 16.7192 18.2217 16.3676L3.49121 1.6371C3.13965 1.28554 2.54199 1.27382 2.20215 1.6371C1.86231 1.97694 1.86231 2.5746 2.20215 2.91444L16.9444 17.645Z" fill="black" fill-opacity="0.85"/>
</svg>
