<svg width="21" height="27" viewBox="0 0 21 27" fill="none" xmlns="http://www.w3.org/2000/svg">
<path d="M0 3H2.94141V1.32422C2.94141 0.480469 2.50781 0 1.74609 0H1.17188C0.421875 0 0 0.503906 0 1.32422V3ZM0 23.3086L1.06641 25.9336C1.18359 26.2031 1.61719 26.2266 1.74609 25.9453L2.94141 23.3086V4.37109H0V23.3086ZM11.5898 26.2031H17.4023C19.1016 26.2031 20.2734 25.0312 20.2734 23.3203V3.05859C20.2734 1.34766 19.1016 0.164062 17.4023 0.164062H11.5898C9.89062 0.164062 8.73047 1.34766 8.73047 3.07031V23.3203C8.73047 25.0312 9.89062 26.2031 11.5898 26.2031ZM18.5039 3.35156H13.5703C13.3242 3.35156 13.125 3.16406 13.125 2.90625C13.125 2.67188 13.3125 2.48438 13.5586 2.48438H18.5039V3.35156ZM18.5039 5.40234H15.4219C15.1758 5.40234 15 5.22656 15 4.96875C15 4.72266 15.1641 4.53516 15.4102 4.53516H18.5039V5.40234ZM18.5039 7.46484H15.4219C15.1758 7.46484 15 7.28906 15 7.03125C15 6.78516 15.1641 6.59766 15.4102 6.59766H18.5039V7.46484ZM18.5039 9.51562H15.4219C15.1758 9.51562 15 9.35156 15 9.08203C15 8.83594 15.1641 8.63672 15.4102 8.63672H18.5039V9.51562ZM18.5039 11.5664H15.4219C15.1758 11.5664 15 11.4023 15 11.1445C15 10.9102 15.1641 10.6992 15.4102 10.6992H18.5039V11.5664ZM18.5039 13.6289H13.5703C13.3242 13.6289 13.125 13.4531 13.125 13.1953C13.125 12.9609 13.3125 12.75 13.5586 12.75H18.5039V13.6289ZM18.5039 15.6914H15.4219C15.1758 15.6914 15 15.5156 15 15.2578C15 15.0117 15.1641 14.8125 15.4102 14.8125H18.5039V15.6914ZM18.5039 17.7539H15.4219C15.1758 17.7539 15 17.5664 15 17.3086C15 17.0742 15.1641 16.8867 15.4102 16.8867H18.5039V17.7539ZM18.5039 19.793H15.4219C15.1758 19.793 15 19.6172 15 19.3594C15 19.1133 15.1641 18.9258 15.4102 18.9258H18.5039V19.793ZM18.5039 21.8555H15.4219C15.1758 21.8555 15 21.6797 15 21.4102C15 21.1758 15.1641 20.9883 15.4102 20.9883H18.5039V21.8555ZM18.5039 23.8945H13.5703C13.3242 23.8945 13.125 23.7305 13.125 23.4727C13.125 23.2266 13.3125 23.0273 13.5586 23.0273H18.5039V23.8945Z" fill="black" fill-opacity="0.85"/>
</svg>
