<svg width="24" height="24" viewBox="0 0 24 24" fill="none" xmlns="http://www.w3.org/2000/svg">
<path d="M11.192 6.63281L9.0006 13.207H14.9303L12.7272 6.63281C12.4694 5.87109 11.4498 5.87109 11.192 6.63281ZM16.7233 21.9023C17.0748 21.9023 17.5436 21.4922 17.4498 21.0117L15.8444 13.4883C15.7272 12.9023 15.2584 12.4805 14.6959 12.4805H9.22326C8.67248 12.4805 8.19201 12.9023 8.07482 13.4766L6.46935 21.0117C6.38732 21.4219 6.66857 21.8203 7.06701 21.8906C7.47716 21.9727 7.8756 21.7266 7.95763 21.3164L9.53966 13.8867L9.38732 13.9922H14.5436L14.3795 13.8867L15.9615 21.3164C16.0318 21.6797 16.3483 21.9141 16.7233 21.9023Z" fill="black" fill-opacity="0.85"/>
<path d="M11.9531 23.9062C18.4922 23.9062 23.9062 18.4805 23.9062 11.9531C23.9062 5.41406 18.4805 0 11.9414 0C5.41406 0 0 5.41406 0 11.9531C0 18.4805 5.42578 23.9062 11.9531 23.9062ZM11.9531 21.9141C6.42188 21.9141 2.00391 17.4844 2.00391 11.9531C2.00391 6.42188 6.41016 1.99219 11.9414 1.99219C17.4727 1.99219 21.9141 6.42188 21.9141 11.9531C21.9141 17.4844 17.4844 21.9141 11.9531 21.9141Z" fill="black" fill-opacity="0.85"/>
</svg>
