<svg width="21" height="27" viewBox="0 0 21 27" fill="none" xmlns="http://www.w3.org/2000/svg">
<path d="M0 3H2.94141V1.32422C2.94141 0.480469 2.50781 0 1.74609 0H1.17188C0.421875 0 0 0.503906 0 1.32422V3ZM0 23.3086L1.06641 25.9336C1.18359 26.2031 1.61719 26.2266 1.74609 25.9453L2.94141 23.3086V4.37109H0V23.3086ZM11.8242 26.1914H17.6367C19.3359 26.1914 20.5078 25.0195 20.5078 23.3203V3.05859C20.5078 1.34766 19.3359 0.164062 17.6367 0.164062H11.8242C10.125 0.164062 8.96484 1.33594 8.96484 3.04688V23.3086C8.96484 25.0195 10.125 26.1914 11.8242 26.1914ZM12.1406 24.4805C11.25 24.4805 10.6758 23.9062 10.6758 23.0508V3.31641C10.6758 2.46094 11.25 1.88672 12.1406 1.88672H17.332C18.2109 1.88672 18.7852 2.46094 18.7852 3.31641V23.0391C18.7852 23.8945 18.2109 24.4805 17.332 24.4805H12.1406ZM19.3945 4.24219V3.35156H13.793C13.5586 3.35156 13.3594 3.53906 13.3594 3.79688C13.3594 4.03125 13.5469 4.24219 13.7812 4.24219H19.3945ZM19.3945 6.10547V5.23828H15.6562C15.4102 5.23828 15.2344 5.41406 15.2344 5.68359C15.2344 5.91797 15.3984 6.10547 15.6445 6.10547H19.3945ZM19.3945 7.99219V7.125H15.6562C15.4102 7.125 15.2344 7.30078 15.2344 7.57031C15.2344 7.80469 15.3984 7.99219 15.6445 7.99219H19.3945ZM19.3945 9.86719V8.98828H15.6562C15.4102 8.98828 15.2344 9.16406 15.2344 9.42188C15.2344 9.67969 15.3984 9.86719 15.6445 9.86719H19.3945ZM19.3945 11.7422V10.8633H15.6562C15.4102 10.8633 15.2344 11.0508 15.2344 11.3203C15.2344 11.543 15.3984 11.7422 15.6445 11.7422H19.3945ZM19.3945 13.6055V12.75H13.793C13.5586 12.75 13.3594 12.9258 13.3594 13.1836C13.3594 13.4297 13.5469 13.6055 13.7812 13.6055H19.3945ZM19.3945 15.5039V14.625H15.6562C15.4102 14.625 15.2344 14.8008 15.2344 15.0586C15.2344 15.3047 15.3984 15.5039 15.6445 15.5039H19.3945ZM19.3945 17.3789V16.5117H15.6562C15.4102 16.5117 15.2344 16.6758 15.2344 16.9453C15.2344 17.1797 15.3984 17.3789 15.6445 17.3789H19.3945ZM19.3945 19.2422V18.375H15.6562C15.4102 18.375 15.2344 18.5625 15.2344 18.8086C15.2344 19.043 15.3984 19.2422 15.6445 19.2422H19.3945ZM19.3945 21.1172V20.25H15.6562C15.4102 20.25 15.2344 20.4141 15.2344 20.6719C15.2344 20.9297 15.3984 21.1172 15.6445 21.1172H19.3945ZM19.3945 22.9922V22.1133H13.793C13.5586 22.1133 13.3594 22.3008 13.3594 22.5586C13.3594 22.793 13.5469 22.9922 13.7812 22.9922H19.3945Z" fill="black" fill-opacity="0.85"/>
</svg>
