<svg width="24" height="24" viewBox="0 0 24 24" fill="none" xmlns="http://www.w3.org/2000/svg">
<path d="M11.9531 23.9062C18.4922 23.9062 23.9062 18.4805 23.9062 11.9531C23.9062 5.41406 18.4805 0 11.9414 0C5.41406 0 0 5.41406 0 11.9531C0 18.4805 5.42578 23.9062 11.9531 23.9062ZM11.9531 21.9141C6.42188 21.9141 2.00391 17.4844 2.00391 11.9531C2.00391 6.42188 6.41016 1.99219 11.9414 1.99219C17.4727 1.99219 21.9141 6.42188 21.9141 11.9531C21.9141 17.4844 17.4844 21.9141 11.9531 21.9141Z" fill="#007AFF"/>
<path d="M8.19145 17.0273L15.8789 9.36331L14.4961 7.9805L6.82035 15.6328L6.15238 17.1914C6.0352 17.4844 6.31645 17.7305 6.57426 17.6367L8.19145 17.0273ZM16.582 8.67191L17.4258 7.81644C17.8008 7.418 17.8359 6.99612 17.4844 6.64456L17.2148 6.37503C16.8633 6.02347 16.4297 6.05862 16.0547 6.43362L15.1992 7.27737L16.582 8.67191Z" fill="black" fill-opacity="0.85"/>
</svg>
