<svg width="24" height="24" viewBox="0 0 24 24" fill="none" xmlns="http://www.w3.org/2000/svg">
<path d="M11.9531 23.9062C18.4922 23.9062 23.9062 18.4805 23.9062 11.9531C23.9062 5.41406 18.4805 0 11.9414 0C5.41406 0 0 5.41406 0 11.9531C0 18.4805 5.42578 23.9062 11.9531 23.9062ZM11.9531 21.9141C6.42188 21.9141 2.00391 17.4844 2.00391 11.9531C2.00391 6.42188 6.41016 1.99219 11.9414 1.99219C17.4727 1.99219 21.9141 6.42188 21.9141 11.9531C21.9141 17.4844 17.4844 21.9141 11.9531 21.9141Z" fill="#007AFF"/>
<path d="M8.19145 17.0272L15.8789 9.36319L14.4961 7.98038L6.82035 15.6327L6.15238 17.1913C6.0352 17.4843 6.31645 17.7304 6.57426 17.6366L8.19145 17.0272ZM16.582 8.67179L17.4258 7.81632C17.8008 7.41788 17.8359 6.996 17.4844 6.64444L17.2148 6.37491C16.8633 6.02335 16.4297 6.0585 16.0547 6.4335L15.1992 7.27725L16.582 8.67179Z" fill="black" fill-opacity="0.85"/>
</svg>
