<svg width="40" height="28" viewBox="0 0 40 28" fill="none" xmlns="http://www.w3.org/2000/svg">
<path d="M35.4298 16.2957C35.8634 16.5887 36.4024 16.4832 36.7188 16.0379C38.2188 13.9754 39.0977 11.1395 39.0977 8.24491C39.0977 5.35038 38.2305 2.491 36.7188 0.451935C36.4024 -0.00509584 35.8634 -0.0988458 35.4298 0.194123C35.0079 0.487092 34.9259 1.03788 35.2657 1.51834C36.5548 3.32303 37.2813 5.74881 37.2813 8.24491C37.2813 10.741 36.5313 13.1434 35.2657 14.9715C34.9376 15.452 35.0079 16.0027 35.4298 16.2957Z" fill="#007AFF"/>
<path d="M31.0933 13.2371C31.48 13.5067 32.0308 13.4246 32.3472 12.9676C33.2496 11.784 33.7886 10.0379 33.7886 8.24491C33.7886 6.45194 33.2496 4.71756 32.3472 3.51053C32.0308 3.06522 31.48 2.97147 31.0933 3.25272C30.6129 3.58084 30.5425 4.16678 30.9058 4.64725C31.5855 5.58475 31.9722 6.88553 31.9722 8.24491C31.9722 9.60428 31.5738 10.8934 30.9058 11.8426C30.5543 12.3348 30.6129 12.8973 31.0933 13.2371Z" fill="#007AFF"/>
<path d="M8.92188 14.0105C11.3359 14.0105 13.3164 11.8425 13.3164 9.18237C13.3164 6.5808 11.3594 4.48315 8.92188 4.48315C6.50781 4.48315 4.52735 6.61596 4.52735 9.2058C4.52735 11.8542 6.50781 14.0105 8.92188 14.0105ZM8.92188 12.2644C7.49219 12.2644 6.27344 10.8933 6.27344 9.2058C6.27344 7.55346 7.48046 6.22924 8.92188 6.22924C10.3984 6.22924 11.582 7.53002 11.582 9.18237C11.582 10.8933 10.3633 12.2644 8.92188 12.2644ZM2.40624 24.7566H15.4258C17.0195 24.7566 17.8047 24.112 17.8047 22.7995C17.8047 18.9089 13.832 15.3464 8.91016 15.3464C4.00001 15.3464 0.015625 18.9089 0.015625 22.7995C0.015625 24.112 0.8125 24.7566 2.40624 24.7566ZM2.11329 23.0222C1.87891 23.0222 1.76172 22.9284 1.76172 22.6941C1.76172 19.7878 5.07812 17.0808 8.91016 17.0808C12.7539 17.0808 16.0586 19.7878 16.0586 22.6941C16.0586 22.9284 15.9531 23.0222 15.7187 23.0222H2.11329Z" fill="black" fill-opacity="0.85"/>
<path d="M15.0625 26.3503H29.7812C32.8984 26.3503 34.2578 24.8737 34.2578 22.8816C34.2578 18.8972 29.6406 13.7644 22.4218 13.7644C15.1914 13.7644 10.5859 18.8972 10.5859 22.8816C10.5859 24.8737 11.9336 26.3503 15.0625 26.3503Z" fill="white"/>
<path d="M22.4218 13.905C25.2109 13.905 27.4844 11.4323 27.4844 8.40894C27.4844 5.40894 25.2226 3.05347 22.4218 3.05347C19.6445 3.05347 17.3594 5.45581 17.3594 8.43238C17.3594 11.4441 19.6445 13.905 22.4218 13.905ZM22.4218 12.1355C20.7109 12.1355 19.2461 10.5066 19.2461 8.43238C19.2461 6.39331 20.6875 4.823 22.4218 4.823C24.1679 4.823 25.5976 6.35816 25.5976 8.40894C25.5976 10.4831 24.1562 12.1355 22.4218 12.1355ZM15.0625 24.7566H29.7812C31.7265 24.7566 32.6523 24.1706 32.6523 22.8816C32.6523 19.8112 28.7734 15.3698 22.4218 15.3698C16.0586 15.3698 12.1797 19.8112 12.1797 22.8816C12.1797 24.1706 13.1054 24.7566 15.0625 24.7566ZM14.5 22.987C14.1953 22.987 14.0664 22.905 14.0664 22.6589C14.0664 20.7253 17.0429 17.1394 22.4218 17.1394C27.789 17.1394 30.7656 20.7253 30.7656 22.6589C30.7656 22.905 30.6484 22.987 30.3437 22.987H14.5Z" fill="black" fill-opacity="0.85"/>
</svg>
