<svg width="27" height="27" viewBox="0 0 27 27" fill="none" xmlns="http://www.w3.org/2000/svg">
<path d="M4.49413 23.9355H20.209C21.4629 23.9355 22.2129 23.3496 22.2129 22.3769C22.2129 19.3535 18.4277 15.1816 12.3574 15.1816C6.27538 15.1816 2.49023 19.3535 2.49023 22.3769C2.49023 23.3496 3.24023 23.9355 4.49413 23.9355ZM12.3574 13.084C14.8769 13.084 17.0449 10.834 17.0449 7.90429C17.0449 5.00976 14.8652 2.86523 12.3574 2.86523C9.8496 2.86523 7.66992 5.05663 7.66992 7.92773C7.66992 10.834 9.8496 13.084 12.3574 13.084Z" fill="#007AFF"/>
<path d="M22.2124 25.6466C23.1616 26.5958 24.6968 26.5723 25.6225 25.6231C26.5483 24.6739 26.5483 23.1739 25.6108 22.2364L4.11866 0.744168C3.19288 -0.193332 1.66944 -0.205051 0.720222 0.732449C-0.217278 1.65823 -0.217278 3.20511 0.708503 4.14261L22.2124 25.6466Z" fill="white"/>
<path d="M23.2793 24.5918C23.6309 24.9433 24.2168 24.9316 24.5566 24.58C24.9082 24.2168 24.9082 23.6543 24.5566 23.3027L3.06446 1.79883C2.71289 1.44727 2.12696 1.44727 1.77539 1.79883C1.42383 2.13867 1.42383 2.73633 1.77539 3.07617L23.2793 24.5918Z" fill="black" fill-opacity="0.85"/>
</svg>
