<svg width="24" height="24" viewBox="0 0 24 24" fill="none" xmlns="http://www.w3.org/2000/svg">
<path d="M11.9531 23.9062C18.4922 23.9062 23.9062 18.4805 23.9062 11.9531C23.9062 5.41406 18.4805 0 11.9414 0C5.41406 0 0 5.41406 0 11.9531C0 18.4805 5.42578 23.9062 11.9531 23.9062ZM11.9531 21.9141C6.42188 21.9141 2.00391 17.4844 2.00391 11.9531C2.00391 6.42188 6.41016 1.99219 11.9414 1.99219C17.4727 1.99219 21.9141 6.42188 21.9141 11.9531C21.9141 17.4844 17.4844 21.9141 11.9531 21.9141Z" fill="#007AFF"/>
<path d="M4.07812 10.7578C4.07812 12.6914 5.44922 14.0625 7.37109 14.0625H7.76953C7.69922 13.7461 7.66406 13.1719 7.71094 12.7969H7.45312C6.24609 12.7969 5.41406 11.9766 5.41406 10.7578C5.41406 9.55078 6.24609 8.70703 7.45312 8.70703H12.1641C13.3711 8.70703 14.2031 9.55078 14.2031 10.7578C14.2031 11.9766 13.3828 12.7969 12.1641 12.7969H10.4062C10.2773 13.1484 10.3242 13.7227 10.6758 14.0625H12.2344C14.1562 14.0625 15.5273 12.6914 15.5273 10.7578C15.5273 8.82422 14.1562 7.44141 12.2344 7.44141H7.37109C5.44922 7.44141 4.07812 8.82422 4.07812 10.7578ZM8.35547 13.2422C8.35547 15.1758 9.72656 16.5586 11.6602 16.5586H16.5117C18.4336 16.5586 19.8164 15.1758 19.8164 13.2422C19.8164 11.3086 18.4453 9.9375 16.5117 9.9375H16.1133C16.1719 10.2773 16.2422 10.6523 16.1719 11.2031H16.4414C17.6484 11.2031 18.4805 12.0352 18.4805 13.2422C18.4805 14.4492 17.6484 15.293 16.4414 15.293H11.7188C10.5117 15.293 9.6797 14.4492 9.6797 13.2422C9.6797 12.0352 10.5117 11.2031 11.7188 11.2031H13.4648C13.6172 10.8633 13.5703 10.2539 13.207 9.9375H11.6602C9.72656 9.9375 8.35547 11.3086 8.35547 13.2422Z" fill="black" fill-opacity="0.85"/>
</svg>
