<svg width="24" height="24" viewBox="0 0 24 24" fill="none" xmlns="http://www.w3.org/2000/svg">
<path d="M11.9648 23.9355C18.5039 23.9355 23.9179 18.5098 23.9179 11.9824C23.9179 5.44336 18.4922 0.0292969 11.9531 0.0292969C5.42578 0.0292969 0.0117188 5.44336 0.0117188 11.9824C0.0117188 18.5098 5.4375 23.9355 11.9648 23.9355ZM11.9648 21.9434C6.4336 21.9434 2.01563 17.5137 2.01563 11.9824C2.01563 6.45118 6.42188 2.02149 11.9531 2.02149C17.4844 2.02149 21.9258 6.45118 21.9258 11.9824C21.9258 17.5137 17.4961 21.9434 11.9648 21.9434Z" fill="#007AFF"/>
<path d="M6.59766 17.9238H17.3086C17.7773 17.9238 18 17.6074 18 17.1855C18 15.8965 16.0664 12.5684 11.9531 12.5684C7.83984 12.5684 5.90625 15.8965 5.90625 17.1855C5.90625 17.6074 6.12891 17.9238 6.59766 17.9238ZM11.9531 11.6191C13.6172 11.6309 14.9648 10.2012 14.9648 8.32617C14.9648 6.56835 13.6172 5.11523 11.9531 5.11523C10.289 5.11523 8.94141 6.56835 8.94141 8.32617C8.94141 10.2012 10.289 11.6074 11.9531 11.6191Z" fill="black" fill-opacity="0.85"/>
</svg>
