<svg width="24" height="24" viewBox="0 0 24 24" fill="none" xmlns="http://www.w3.org/2000/svg">
<path d="M11.9687 23.9355C18.5078 23.9355 23.9218 18.5098 23.9218 11.9824C23.9218 5.44336 18.4961 0.0292969 11.957 0.0292969C5.42968 0.0292969 0.015625 5.44336 0.015625 11.9824C0.015625 18.5098 5.44141 23.9355 11.9687 23.9355ZM11.9687 21.9434C6.43751 21.9434 2.01954 17.5137 2.01954 11.9824C2.01954 6.45118 6.42578 2.02149 11.957 2.02149C17.4883 2.02149 21.9297 6.45118 21.9297 11.9824C21.9297 17.5137 17.5 21.9434 11.9687 21.9434ZM19.9844 19.7051L19.9492 19.5762C19.375 17.8535 16.2812 15.9668 11.9687 15.9668C7.66797 15.9668 4.57421 17.8535 3.98829 19.5645L3.95312 19.7051C6.0625 21.791 9.6836 23.0098 11.9687 23.0098C14.2656 23.0098 17.8515 21.8027 19.9844 19.7051ZM11.9687 13.9746C14.2304 13.9981 15.9883 12.0762 15.9883 9.55664C15.9883 7.18946 14.2187 5.23242 11.9687 5.23242C9.71875 5.23242 7.9375 7.18946 7.94921 9.55664C7.96094 12.0762 9.71875 13.9512 11.9687 13.9746Z" fill="black" fill-opacity="0.85"/>
</svg>
