<svg width="28" height="22" viewBox="0 0 28 22" fill="none" xmlns="http://www.w3.org/2000/svg">
<path d="M3.68164 21.6079H23.9551C26.4161 21.6079 27.6348 20.4009 27.6348 17.9868V3.6665C27.6348 1.25244 26.4161 0.0336914 23.9551 0.0336914H3.68164C1.23242 0.0336914 0.00195312 1.25244 0.00195312 3.6665V17.9868C0.00195312 20.4009 1.23242 21.6079 3.68164 21.6079ZM3.70507 19.7212C2.5332 19.7212 1.88867 19.1001 1.88867 17.8814V3.77197C1.88867 2.55322 2.5332 1.92041 3.70507 1.92041H23.9317C25.0918 1.92041 25.7481 2.55322 25.7481 3.77197V17.8814C25.7481 19.1001 25.0918 19.7212 23.9317 19.7212H3.70507Z" fill="#007AFF"/>
<path d="M5.19337 15.7485H11.6739C12.8106 15.7485 13.3497 15.1978 13.3497 14.1079V7.55713C13.3497 6.46728 12.8106 5.9165 11.6739 5.9165H5.19337C4.08008 5.9165 3.51758 6.45557 3.51758 7.55713V14.1079C3.51758 15.1978 4.08008 15.7485 5.19337 15.7485ZM4.87696 14.647C5.22852 13.5923 6.55274 12.6079 8.43946 12.6079C10.3262 12.6079 11.6504 13.5923 12.002 14.647H4.87696ZM8.43946 11.7759C7.40821 11.7759 6.59962 10.9087 6.59962 9.77197C6.59962 8.68213 7.40821 7.81494 8.43946 7.81494C9.45899 7.81494 10.2676 8.68213 10.2676 9.77197C10.2676 10.9087 9.45899 11.7759 8.43946 11.7759ZM19.5723 15.6196C20.334 15.6196 21.0489 15.5493 21.5059 15.3618C21.8223 15.2329 22.0098 15.0337 22.0098 14.729C22.0098 14.436 21.7989 14.2017 21.4942 14.2017C21.377 14.2017 21.2715 14.2368 21.1192 14.2603C20.7676 14.3071 20.4278 14.4478 19.7012 14.4478C17.4278 14.4478 16.0215 13.0767 16.0215 10.8501C16.0215 8.65869 17.4512 7.15869 19.5372 7.15869C21.6114 7.15869 23.0059 8.47119 23.0059 10.4165C23.0059 11.5767 22.6543 12.3032 22.0918 12.3032C21.7403 12.3032 21.5997 12.1509 21.5997 11.811V8.90478C21.5997 8.55322 21.3536 8.28369 21.0137 8.28369C20.7559 8.28369 20.5215 8.47119 20.4512 8.70557V8.79931C20.17 8.47119 19.7832 8.28369 19.2208 8.28369C17.9786 8.28369 17.1114 9.36181 17.1114 10.8501C17.1114 12.3853 17.9786 13.4282 19.2559 13.4282C19.8184 13.4282 20.3106 13.1821 20.6504 12.7368C20.9082 13.1821 21.4004 13.4282 21.9864 13.4282C23.2989 13.4282 24.1661 12.2095 24.1661 10.3462C24.1661 7.7915 22.2676 6.02197 19.5372 6.02197C16.7129 6.02197 14.7793 7.979 14.7793 10.8384C14.7793 13.7095 16.7012 15.6196 19.5723 15.6196ZM19.4317 12.2446C18.7989 12.2446 18.4122 11.7173 18.4122 10.8267C18.4122 9.94775 18.8106 9.43213 19.4434 9.43213C20.0879 9.43213 20.4864 9.94775 20.4864 10.7915C20.4864 11.6939 20.0879 12.2446 19.4317 12.2446Z" fill="black" fill-opacity="0.85"/>
</svg>
