<svg width="30" height="23" viewBox="0 0 30 23" fill="none" xmlns="http://www.w3.org/2000/svg">
<path d="M23.1621 20.4024C26.7012 20.4024 29.4668 17.8125 29.4668 14.5899C29.4668 12.129 28.0489 9.9961 25.7637 9.03516C25.7871 3.8086 22.0254 0.0351562 17.2325 0.0351562C14.0567 0.0351562 11.795 1.73438 10.3887 3.78516C7.50586 2.94141 4.36524 5.13282 4.30664 8.41407C1.6582 8.83594 0.00585938 11.2032 0.00585938 14.0625C0.00585938 17.5079 3.01758 20.4024 7.02539 20.4024H23.1621Z" fill="#FFCC00"/>
<path d="M8.95898 18.3282C9.80274 16.4297 12.0176 14.3204 15.5567 14.3204C19.0957 14.3204 21.3106 16.4297 22.1543 18.3282H8.95898ZM15.5567 12.8672C13.7871 12.8438 12.3809 11.2618 12.3692 9.37499C12.3692 7.51171 13.7871 5.97656 15.5567 5.97656C17.3145 5.97656 18.7442 7.51171 18.7442 9.37499C18.7442 11.2618 17.3145 12.8907 15.5567 12.8672Z" fill="black" fill-opacity="0.85"/>
</svg>
