<svg width="21" height="26" viewBox="0 0 21 26" fill="none" xmlns="http://www.w3.org/2000/svg">
<path d="M10.3086 8.60742C12.5117 8.63086 14.2578 6.74414 14.2578 4.27149C14.2578 1.96289 12.5117 0.0292969 10.3086 0.0292969C8.1289 0.0292969 6.35937 1.96289 6.35937 4.27149C6.35937 6.74414 8.11719 8.59571 10.3086 8.60742ZM3.38281 17.0918H17.2461C17.9609 17.0918 18.3476 16.6231 18.3476 15.9902C18.3476 14.1387 15.664 10.0137 10.3086 10.0137C4.9414 10.0137 2.26953 14.1387 2.26953 15.9902C2.26953 16.6231 2.66797 17.0918 3.38281 17.0918ZM0.945312 25.2129H19.6836C20.1992 25.2129 20.6211 24.791 20.6211 24.2754C20.6211 23.7598 20.1992 23.3262 19.6836 23.3262H18.957V20.5957C18.957 19.3652 18.3828 18.6973 17.0586 18.6973H3.57031C2.25781 18.6973 1.67187 19.3652 1.67187 20.5957V23.3262H0.945312C0.429688 23.3262 0.0078125 23.7598 0.0078125 24.2754C0.0078125 24.791 0.429688 25.2129 0.945312 25.2129ZM8.01172 22.6699C7.61328 22.6699 7.33203 22.3652 7.33203 21.9668C7.33203 21.5801 7.61328 21.2871 8.01172 21.2871H12.6406C13.0273 21.2871 13.3203 21.5801 13.3203 21.9668C13.3203 22.3652 13.0273 22.6699 12.6406 22.6699H8.01172Z" fill="black" fill-opacity="0.85"/>
</svg>
