<svg width="29" height="30" viewBox="0 0 29 30" fill="none" xmlns="http://www.w3.org/2000/svg">
<path d="M8.43554 13.5088H19.9317C20.9746 13.5088 21.584 12.9228 21.584 11.8916V3.5127C21.584 2.48145 20.9746 1.88379 19.9317 1.88379H8.43554C7.39257 1.88379 6.7832 2.48145 6.7832 3.5127V11.8916C6.7832 12.9228 7.39257 13.5088 8.43554 13.5088Z" fill="black" fill-opacity="0.85"/>
<path d="M6.65429 22.0049H21.7246C24.0567 22.0049 25.5918 20.4814 25.5918 18.1728V7.21582C25.5918 4.89551 24.0567 3.38379 21.7246 3.38379H6.65429C4.32226 3.38379 2.77539 4.89551 2.77539 7.21582V18.1728C2.77539 20.4814 4.32226 22.0049 6.65429 22.0049Z" fill="white"/>
<path d="M6.52539 20.4111H21.8535C23.2246 20.4111 23.9981 19.6494 23.9981 18.3017V7.08692C23.9981 5.73926 23.2246 4.97754 21.8535 4.97754H6.52539C5.15429 4.97754 4.36914 5.73926 4.36914 7.08692V18.3017C4.36914 19.6494 5.15429 20.4111 6.52539 20.4111Z" fill="black" fill-opacity="0.85"/>
<path d="M5.58789 29.7158H22.7793C26.2715 29.7158 28.3457 27.665 28.3457 24.1963V12.1611C28.3457 8.69238 26.2715 6.6416 22.7793 6.6416H5.58789C2.0957 6.6416 0.0214844 8.69238 0.0214844 12.1611V24.1963C0.0214844 27.665 2.0957 29.7158 5.58789 29.7158Z" fill="white"/>
<path d="M7.1582 25.708C8.08398 23.2939 10.7442 21.583 13.9551 21.583C17.1543 21.583 19.8145 23.2939 20.7403 25.708H7.1582ZM13.9551 19.872C11.9863 19.872 10.4629 18.2314 10.4629 16.0517C10.4629 13.9892 11.9863 12.29 13.9551 12.29C15.9004 12.29 17.4473 13.9892 17.4473 16.0517C17.4473 18.2314 15.9004 19.872 13.9551 19.872ZM5.58789 27.8291H22.7793C25.2285 27.8291 26.459 26.6103 26.459 24.1963V12.1611C26.459 9.74707 25.2285 8.52832 22.7793 8.52832H5.58789C3.13867 8.52832 1.9082 9.74707 1.9082 12.1611V24.1963C1.9082 26.6103 3.13867 27.8291 5.58789 27.8291Z" fill="black" fill-opacity="0.85"/>
</svg>
