<svg width="29" height="22" viewBox="0 0 29 22" fill="none" xmlns="http://www.w3.org/2000/svg">
<path d="M2.00586 21.1055H17.7208C18.9747 21.1055 19.7247 20.5196 19.7247 19.5469C19.7247 16.5235 15.9395 12.3516 9.85742 12.3516C3.78711 12.3516 0.00195312 16.5235 0.00195312 19.5469C0.00195312 20.5196 0.751953 21.1055 2.00586 21.1055ZM9.86914 10.254C12.377 10.254 14.5567 8.00391 14.5567 5.07422C14.5567 2.17969 12.377 0.0351562 9.86914 0.0351562C7.36133 0.0351562 5.18164 2.22657 5.18164 5.09766C5.18164 8.00391 7.34961 10.254 9.86914 10.254Z" fill="#007AFF"/>
<path d="M19.666 10.0782C19.9355 10.0782 20.1699 9.97266 20.3457 9.78516L23.6621 6.45704L27.0019 9.78516C27.1777 9.96094 27.4003 10.0782 27.6699 10.0782C28.1972 10.0782 28.6074 9.64454 28.6074 9.12891C28.6074 8.85938 28.5136 8.64844 28.3261 8.46094L24.998 5.13282L28.3378 1.78125C28.5371 1.58204 28.6191 1.38282 28.6191 1.125C28.6191 0.609375 28.2089 0.1875 27.6816 0.1875C27.4355 0.1875 27.2363 0.28125 27.0371 0.480468L23.6621 3.82032L20.3222 0.492187C20.1464 0.304687 19.9355 0.210937 19.666 0.210937C19.1503 0.210937 18.7285 0.621094 18.7285 1.13672C18.7285 1.39454 18.8339 1.61719 19.0097 1.79297L22.3378 5.13282L19.0097 8.47266C18.8339 8.64844 18.7285 8.8711 18.7285 9.12891C18.7285 9.64454 19.1503 10.0782 19.666 10.0782Z" fill="black" fill-opacity="0.85"/>
</svg>
