<svg width="28" height="22" viewBox="0 0 28 22" fill="none" xmlns="http://www.w3.org/2000/svg">
<path d="M3.69141 21.6064H23.9648C26.4258 21.6064 27.6445 20.3994 27.6445 17.9853V3.66504C27.6445 1.25098 26.4258 0.0322266 23.9648 0.0322266H3.69141C1.24219 0.0322266 0.0117188 1.25098 0.0117188 3.66504V17.9853C0.0117188 20.3994 1.24219 21.6064 3.69141 21.6064ZM3.71484 19.7197C2.54297 19.7197 1.89844 19.0986 1.89844 17.8799V3.77051C1.89844 2.55176 2.54297 1.91895 3.71484 1.91895H23.9414C25.1015 1.91895 25.7578 2.55176 25.7578 3.77051V17.8799C25.7578 19.0986 25.1015 19.7197 23.9414 19.7197H3.71484ZM5.77734 20.4228H21.9023C21.2109 17.1299 17.9062 14.7392 13.8398 14.7392C9.76172 14.7392 6.45703 17.1299 5.77734 20.4228ZM13.8398 12.7822C16.0781 12.8056 17.8476 10.8955 17.8476 8.3877C17.8476 6.03223 16.0781 4.08692 13.8398 4.08692C11.6015 4.08692 9.82031 6.03223 9.83203 8.3877C9.84375 10.8955 11.6015 12.7588 13.8398 12.7822Z" fill="black" fill-opacity="0.85"/>
</svg>
