<svg width="24" height="24" viewBox="0 0 24 24" fill="none" xmlns="http://www.w3.org/2000/svg">
<path d="M11.959 23.9355C18.4981 23.9355 23.9121 18.5098 23.9121 11.9824C23.9121 5.44336 18.4864 0.0292969 11.9473 0.0292969C5.41992 0.0292969 0.00585938 5.44336 0.00585938 11.9824C0.00585938 18.5098 5.43164 23.9355 11.959 23.9355Z" fill="#FFCC00"/>
<path d="M11.9473 9.2168C10.7051 9.2168 9.69727 8.16211 9.69727 6.75586C9.69727 5.43164 10.7051 4.3418 11.9473 4.3418C13.2012 4.3418 14.1973 5.43164 14.1973 6.75586C14.1973 8.16211 13.2012 9.22852 11.9473 9.2168ZM7.99805 14.0684C7.58789 14.0684 7.35352 13.8105 7.35352 13.4473C7.35352 12.3691 8.90039 10.0254 11.9473 10.0254C14.9942 10.0254 16.5411 12.3691 16.5411 13.4473C16.5411 13.8105 16.3067 14.0684 15.8965 14.0684H7.99805ZM6.9082 18.6738C6.60352 18.6738 6.36914 18.4277 6.36914 18.1231C6.36914 17.8184 6.60352 17.5723 6.9082 17.5723H7.03711V16.0371C7.03711 15.3457 7.3418 14.9707 8.10352 14.9707H15.8028C16.5645 14.9707 16.8692 15.3457 16.8692 16.0371V17.5723H16.9981C17.3028 17.5723 17.5371 17.8184 17.5371 18.1231C17.5371 18.4277 17.3028 18.6738 16.9981 18.6738H6.9082ZM10.6114 17.2207H13.295C13.5293 17.2207 13.7051 17.0449 13.7051 16.834C13.7051 16.6113 13.5293 16.4473 13.295 16.4473H10.6114C10.377 16.4473 10.2247 16.6113 10.2247 16.834C10.2247 17.0449 10.377 17.2207 10.6114 17.2207Z" fill="black" fill-opacity="0.85"/>
</svg>
