<svg width="29" height="22" viewBox="0 0 29 22" fill="none" xmlns="http://www.w3.org/2000/svg">
<path d="M2.01954 21.104H17.7344C18.9883 21.104 19.7383 20.5181 19.7383 19.5454C19.7383 16.522 15.9531 12.3501 9.87109 12.3501C3.80078 12.3501 0.015625 16.522 0.015625 19.5454C0.015625 20.5181 0.765625 21.104 2.01954 21.104ZM9.88282 10.2525C12.3906 10.2525 14.5703 8.00244 14.5703 5.07275C14.5703 2.17822 12.3906 0.0336914 9.88282 0.0336914C7.37501 0.0336914 5.19531 2.2251 5.19531 5.09619C5.19531 8.00244 7.36329 10.2525 9.88282 10.2525Z" fill="#007AFF"/>
<path d="M22.1172 10.9439C22.5156 10.9439 22.832 10.7564 23.0664 10.4048L28.4218 1.96728C28.5625 1.74463 28.7031 1.4751 28.7031 1.21728C28.7031 0.70166 28.2344 0.361816 27.7539 0.361816C27.4492 0.361816 27.1562 0.537597 26.9453 0.88916L22.0703 8.68213L19.7617 5.70557C19.4922 5.33057 19.2226 5.2251 18.9062 5.2251C18.3906 5.2251 17.9922 5.63525 17.9922 6.1626C17.9922 6.40869 18.0976 6.6665 18.2617 6.88916L21.1211 10.4048C21.4258 10.7798 21.7304 10.9439 22.1172 10.9439Z" fill="black" fill-opacity="0.85"/>
</svg>
