<svg width="30" height="23" viewBox="0 0 30 23" fill="none" xmlns="http://www.w3.org/2000/svg">
<path d="M8.81641 18.9141H22.293C21.625 16.9571 19.3633 14.5079 15.5547 14.5079C11.7461 14.5079 9.48438 16.9571 8.81641 18.9141ZM15.5547 13.0547C17.3125 13.0664 18.7422 11.4493 18.7422 9.5625C18.7422 7.69922 17.3125 6.16407 15.5547 6.16407C13.7851 6.16407 12.3672 7.69922 12.3672 9.5625C12.3789 11.4493 13.7851 13.043 15.5547 13.0547ZM23.1601 20.4024C26.6992 20.4024 29.4648 17.8125 29.4648 14.5899C29.4648 12.129 28.0469 9.9961 25.7617 9.03516C25.7851 3.8086 22.0234 0.0351562 17.2305 0.0351562C14.0547 0.0351562 11.793 1.73438 10.3867 3.78516C7.50391 2.94141 4.36329 5.13282 4.30469 8.41407C1.65625 8.83594 0.00390625 11.2032 0.00390625 14.0625C0.00390625 17.5079 3.01563 20.4024 7.02344 20.4024H23.1601ZM23.1601 18.5157H7.02344C4.07032 18.5157 1.89063 16.4532 1.89063 14.0625C1.89063 11.7188 3.3086 9.85547 5.79297 9.85547C5.95703 9.85547 6.01563 9.77344 6.01563 9.6211C6.01563 6.01172 8.61719 4.94532 11.0195 5.73047C11.1601 5.77735 11.2422 5.74219 11.3125 5.61328C12.4492 3.58594 14.1953 1.92188 17.2305 1.92188C21.0742 1.92188 23.7344 4.96875 23.9336 8.44922C23.9687 8.98828 23.9336 9.6211 23.8867 10.1719C23.875 10.3243 23.9336 10.4063 24.0742 10.4414C26.207 10.9102 27.5781 12.4688 27.5781 14.5899C27.5781 16.7696 25.6562 18.5157 23.1601 18.5157Z" fill="black" fill-opacity="0.85"/>
</svg>
