<svg width="42" height="20" viewBox="0 0 42 20" fill="none" xmlns="http://www.w3.org/2000/svg">
<path d="M8.6914 9.65625C11.1523 9.65625 13.1914 7.46485 13.1914 4.78125C13.1914 2.13282 11.1758 0.0351562 8.6914 0.0351562C6.21875 0.0351562 4.20312 2.16797 4.20312 4.79297C4.20312 7.47657 6.23047 9.65625 8.6914 9.65625ZM8.6914 7.88672C7.26172 7.88672 6.07812 6.55078 6.07812 4.79297C6.07812 3.09375 7.23828 1.80469 8.6914 1.80469C10.1445 1.80469 11.3164 3.07032 11.3164 4.78125C11.3164 6.52735 10.1328 7.88672 8.6914 7.88672ZM2.58593 19.2188H14.7851C16.4844 19.2188 17.3633 18.668 17.3633 17.4727C17.3633 14.7774 14.2344 10.8633 8.67969 10.8633C3.13672 10.8633 0.0078125 14.7774 0.0078125 17.4727C0.0078125 18.668 0.875 19.2188 2.58593 19.2188ZM2.1289 17.4493C1.95312 17.4493 1.88281 17.379 1.88281 17.2383C1.88281 15.6914 4.09765 12.6329 8.67969 12.6329C13.2617 12.6329 15.4766 15.6914 15.4766 17.2383C15.4766 17.379 15.4062 17.4493 15.2422 17.4493H2.1289ZM32.9375 9.71485C35.3984 9.71485 37.4258 7.52344 37.4258 4.83985C37.4258 2.19141 35.4219 0.09375 32.9375 0.09375C30.4648 0.09375 28.4375 2.22657 28.4375 4.85157C28.4375 7.53516 30.4648 9.71485 32.9375 9.71485ZM32.9375 7.94532C31.4961 7.94532 30.3125 6.60938 30.3125 4.85157C30.3125 3.15235 31.4844 1.86328 32.9375 1.86328C34.3789 1.86328 35.5508 3.12891 35.5508 4.83985C35.5508 6.58594 34.3789 7.94532 32.9375 7.94532ZM26.832 19.2774H39.0195C40.7305 19.2774 41.5976 18.7266 41.5976 17.5313C41.5976 14.836 38.4805 10.9219 32.9258 10.9219C27.3711 10.9219 24.2539 14.836 24.2539 17.5313C24.2539 18.7266 25.1211 19.2774 26.832 19.2774ZM26.375 17.5079C26.1992 17.5079 26.1289 17.4375 26.1289 17.2969C26.1289 15.75 28.3437 12.6914 32.9258 12.6914C37.5078 12.6914 39.7226 15.75 39.7226 17.2969C39.7226 17.4375 39.6523 17.5079 39.4766 17.5079H26.375Z" fill="black" fill-opacity="0.85"/>
<path d="M16.9297 9.76171C17.4805 9.76171 17.9375 9.30468 17.9375 8.7539C17.9375 8.20312 17.4805 7.74609 16.9297 7.74609C16.3789 7.74609 15.9219 8.20312 15.9219 8.7539C15.9219 9.30468 16.3789 9.76171 16.9297 9.76171ZM20.8203 9.76171C21.3711 9.76171 21.8281 9.30468 21.8281 8.7539C21.8281 8.20312 21.3711 7.74609 20.8203 7.74609C20.2695 7.74609 19.8125 8.20312 19.8125 8.7539C19.8125 9.30468 20.2695 9.76171 20.8203 9.76171ZM24.6875 9.76171C25.2383 9.76171 25.6953 9.30468 25.6953 8.7539C25.6953 8.20312 25.2383 7.74609 24.6875 7.74609C24.1367 7.74609 23.6797 8.20312 23.6797 8.7539C23.6797 9.30468 24.1367 9.76171 24.6875 9.76171Z" fill="#007AFF"/>
</svg>
