<svg width="45" height="25" viewBox="0 0 45 25" fill="none" xmlns="http://www.w3.org/2000/svg">
<path d="M35.9277 12.5655C38.3535 12.5655 40.3223 10.3975 40.3223 7.73731C40.3223 5.13575 38.3653 3.03809 35.9277 3.03809C33.5254 3.03809 31.5332 5.1709 31.5332 7.76075C31.5332 10.4092 33.5254 12.5655 35.9277 12.5655ZM35.9277 10.8194C34.4981 10.8194 33.2793 9.44825 33.2793 7.76075C33.2793 6.1084 34.4863 4.78418 35.9277 4.78418C37.4043 4.78418 38.5879 6.08496 38.5879 7.73731C38.5879 9.44825 37.3692 10.8194 35.9277 10.8194ZM29.4121 23.3116H42.4317C44.0254 23.3116 44.8223 22.667 44.8223 21.3545C44.8223 17.4639 40.8379 13.9014 35.9277 13.9014C31.0059 13.9014 27.0332 17.4639 27.0332 21.3545C27.0332 22.667 27.8301 23.3116 29.4121 23.3116ZM28.7793 21.2491C28.7793 18.3428 32.0957 15.6358 35.9277 15.6358C39.7598 15.6358 43.0762 18.3428 43.0762 21.2491C43.0762 21.4834 42.9707 21.5772 42.7246 21.5772H29.1192C28.8848 21.5772 28.7793 21.4834 28.7793 21.2491Z" fill="#007AFF"/>
<path d="M8.92773 12.5655C11.3418 12.5655 13.3223 10.3975 13.3223 7.73731C13.3223 5.13575 11.3653 3.03809 8.92773 3.03809C6.51367 3.03809 4.5332 5.1709 4.5332 7.76075C4.5332 10.4092 6.51367 12.5655 8.92773 12.5655ZM8.92773 10.8194C7.48632 10.8194 6.27929 9.44825 6.27929 7.76075C6.27929 6.1084 7.4746 4.78418 8.92773 4.78418C10.4043 4.78418 11.5879 6.08496 11.5879 7.73731C11.5879 9.44825 10.3692 10.8194 8.92773 10.8194ZM2.40039 23.3116H15.4317C17.0137 23.3116 17.8106 22.667 17.8106 21.3545C17.8106 17.4639 13.8262 13.9014 8.91601 13.9014C4.00586 13.9014 0.0214844 17.4639 0.0214844 21.3545C0.0214844 22.667 0.818359 23.3116 2.40039 23.3116ZM1.76757 21.2491C1.76757 18.3428 5.08398 15.6358 8.91601 15.6358C12.7481 15.6358 16.0645 18.3428 16.0645 21.2491C16.0645 21.4834 15.959 21.5772 15.7246 21.5772H2.11914C1.87304 21.5772 1.76757 21.4834 1.76757 21.2491Z" fill="#007AFF"/>
<path d="M15.0567 24.9052H29.7754C32.9043 24.9052 34.2637 23.4286 34.2637 21.4365C34.2637 17.4521 29.6465 12.3193 22.416 12.3193C15.1973 12.3193 10.5801 17.4521 10.5801 21.4365C10.5801 23.4286 11.9395 24.9052 15.0567 24.9052Z" fill="white"/>
<path d="M22.4276 12.46C25.2167 12.46 27.4902 9.98731 27.4902 6.96387C27.4902 3.96387 25.2284 1.6084 22.4276 1.6084C19.6386 1.6084 17.3652 4.01075 17.3652 6.98731C17.3652 9.99903 19.6386 12.46 22.4276 12.46ZM22.4276 10.6905C20.7167 10.6905 19.2519 9.06153 19.2519 6.98731C19.2519 4.94825 20.6816 3.37793 22.4276 3.37793C24.1737 3.37793 25.6034 4.91309 25.6034 6.96387C25.6034 9.03809 24.1503 10.6905 22.4276 10.6905ZM15.0566 23.3116H29.7753C31.7323 23.3116 32.6581 22.7256 32.6581 21.4366C32.6581 18.3662 28.7792 13.9248 22.4159 13.9248C16.0644 13.9248 12.1855 18.3662 12.1855 21.4366C12.1855 22.7256 13.1112 23.3116 15.0566 23.3116ZM14.4941 21.542C14.1894 21.542 14.0722 21.46 14.0722 21.2139C14.0722 19.2803 17.0487 15.6944 22.4159 15.6944C27.7948 15.6944 30.7714 19.2803 30.7714 21.2139C30.7714 21.46 30.6425 21.542 30.3378 21.542H14.4941Z" fill="black" fill-opacity="0.85"/>
</svg>
