<svg width="45" height="25" viewBox="0 0 45 25" fill="none" xmlns="http://www.w3.org/2000/svg">
<path d="M8.61328 12.1905C10.8046 12.1905 12.6914 10.2217 12.6914 7.67871C12.6914 5.15918 10.7929 3.2959 8.61328 3.2959C6.44532 3.2959 4.53516 5.20606 4.53516 7.70215C4.53516 10.2217 6.4336 12.1905 8.61328 12.1905ZM2.08594 22.7725H15.1406C16.6289 22.7725 17.2031 22.1866 17.2031 21.1319C17.2031 17.8858 13.8984 13.9834 8.61328 13.9834C3.32813 13.9834 0.0234375 17.8858 0.0234375 21.1319C0.0234375 22.1866 0.597656 22.7725 2.08594 22.7725Z" fill="#007AFF"/>
<path d="M35.6132 12.1905C37.8046 12.1905 39.6914 10.2217 39.6914 7.67871C39.6914 5.15918 37.7929 3.2959 35.6132 3.2959C33.4336 3.2959 31.5234 5.20606 31.5234 7.70215C31.5234 10.2217 33.4336 12.1905 35.6132 12.1905ZM29.0859 22.7725H42.1289C43.6172 22.7725 44.1914 22.1866 44.1914 21.1319C44.1914 17.8858 40.8984 13.9834 35.6132 13.9834C30.3164 13.9834 27.0234 17.8858 27.0234 21.1319C27.0234 22.1866 27.5976 22.7725 29.0859 22.7725Z" fill="#007AFF"/>
<path d="M14.25 24.3662H29.9765C32.25 24.3662 33.5742 22.9717 33.5742 21.2139C33.5742 17.2764 29.0625 12.4248 22.1132 12.4248C15.1757 12.4248 10.6523 17.2764 10.6523 21.2139C10.6523 22.9717 11.9882 24.3662 14.25 24.3662Z" fill="white"/>
<path d="M22.125 11.9209C24.6328 11.9209 26.8125 9.6709 26.8125 6.74121C26.8125 3.84668 24.6328 1.70215 22.125 1.70215C19.6172 1.70215 17.4375 3.89356 17.4375 6.76465C17.4375 9.6709 19.6054 11.9209 22.125 11.9209ZM14.25 22.7725H29.9765C31.2304 22.7725 31.9804 22.1866 31.9804 21.2139C31.9804 18.1905 28.1953 14.0186 22.1132 14.0186C16.0429 14.0186 12.2578 18.1905 12.2578 21.2139C12.2578 22.1866 13.0078 22.7725 14.25 22.7725Z" fill="black" fill-opacity="0.85"/>
</svg>
