<svg width="21" height="22" viewBox="0 0 21 22" fill="none" xmlns="http://www.w3.org/2000/svg">
<path d="M2.88671 21.7285H17.6172C19.5625 21.7285 20.4883 21.1426 20.4883 19.8535C20.4883 16.7832 16.6094 12.3418 10.2578 12.3418C3.89454 12.3418 0.015625 16.7832 0.015625 19.8535C0.015625 21.1426 0.941406 21.7285 2.88671 21.7285ZM2.33594 19.959C2.03125 19.959 1.90234 19.877 1.90234 19.6309C1.90234 17.6973 4.8789 14.1113 10.2578 14.1113C15.625 14.1113 18.6015 17.6973 18.6015 19.6309C18.6015 19.877 18.4844 19.959 18.1797 19.959H2.33594ZM10.2578 10.877C13.0468 10.877 15.3203 8.4043 15.3203 5.38086C15.3203 2.38086 13.0586 0.0253906 10.2578 0.0253906C7.48046 0.0253906 5.19531 2.42773 5.19531 5.4043C5.19531 8.41601 7.46875 10.877 10.2578 10.877ZM10.2578 9.10742C8.54688 9.10742 7.08204 7.47851 7.08204 5.4043C7.08204 3.36523 8.52343 1.79492 10.2578 1.79492C12.0039 1.79492 13.4336 3.33008 13.4336 5.38086C13.4336 7.45508 11.9804 9.10742 10.2578 9.10742Z" fill="black" fill-opacity="0.85"/>
</svg>
