<svg width="29" height="26" viewBox="0 0 29 26" fill="none" xmlns="http://www.w3.org/2000/svg">
<path d="M0.0078125 2.80518C0.0078125 3.32081 0.429688 3.74268 0.945312 3.74268H27.1719C27.6875 3.74268 28.1094 3.32081 28.1094 2.80518C28.1094 2.28956 27.6875 1.85596 27.1719 1.85596H0.945312C0.429688 1.85596 0.0078125 2.28956 0.0078125 2.80518ZM0.0078125 7.66846C0.0078125 8.18409 0.429688 8.60596 0.945312 8.60596H27.1719C27.6875 8.60596 28.1094 8.18409 28.1094 7.66846C28.1094 7.15284 27.6875 6.71925 27.1719 6.71925H0.945312C0.429688 6.71925 0.0078125 7.15284 0.0078125 7.66846ZM0.0078125 12.5317C0.0078125 13.0473 0.429688 13.4809 0.945312 13.4809H27.1719C27.6875 13.4809 28.1094 13.0473 28.1094 12.5317C28.1094 12.0161 27.6875 11.5942 27.1719 11.5942H0.945312C0.429688 11.5942 0.0078125 12.0161 0.0078125 12.5317ZM0.0078125 17.395C0.0078125 17.9106 0.429688 18.3442 0.945312 18.3442H27.1719C27.6875 18.3442 28.1094 17.9106 28.1094 17.395C28.1094 16.8794 27.6875 16.4575 27.1719 16.4575H0.945312C0.429688 16.4575 0.0078125 16.8794 0.0078125 17.395ZM0.0078125 22.27C0.0078125 22.7856 0.429688 23.2075 0.945312 23.2075H27.1719C27.6875 23.2075 28.1094 22.7856 28.1094 22.27C28.1094 21.7544 27.6875 21.3208 27.1719 21.3208H0.945312C0.429688 21.3208 0.0078125 21.7544 0.0078125 22.27Z" fill="#007AFF"/>
<path d="M14.0586 16.2466C17.0937 16.2466 19.6953 13.5512 19.6953 10.188C19.6953 6.77783 17.0469 4.28174 14.0586 4.28174C11.0469 4.28174 8.42187 6.83642 8.42187 10.2114C8.42187 13.5512 11.0234 16.2466 14.0586 16.2466ZM8.0586 25.1176H20.0586C23.0469 25.1176 23.914 23.6528 23.914 22.1528C23.914 18.7075 20.0234 14.5239 14.0586 14.5239C8.09375 14.5239 4.20312 18.7075 4.20312 22.1528C4.20312 23.6528 5.08204 25.1176 8.0586 25.1176Z" fill="white"/>
<path d="M14.0586 14.6411C16.2031 14.6411 18.1016 12.684 18.1016 10.188C18.1016 7.69189 16.2031 5.87549 14.0586 5.87549C11.9258 5.87549 10.0156 7.73877 10.0156 10.2114C10.0156 12.684 11.9258 14.6411 14.0586 14.6411ZM8.05859 23.5122H20.0586C21.793 23.5122 22.3203 23.02 22.3203 22.1528C22.3203 19.6216 19.1562 16.1294 14.0586 16.1294C8.96093 16.1294 5.80859 19.6216 5.80859 22.1528C5.80859 23.02 6.32422 23.5122 8.05859 23.5122Z" fill="black" fill-opacity="0.85"/>
</svg>
