<svg width="21" height="26" viewBox="0 0 21 26" fill="none" xmlns="http://www.w3.org/2000/svg">
<path d="M10.3008 8.49609C12.5273 8.49609 14.2734 6.59766 14.2734 4.18359C14.2734 1.85156 12.5156 0 10.3008 0C8.08594 0 6.32812 1.86328 6.33984 4.20703C6.33984 6.60938 8.07422 8.49609 10.3008 8.49609ZM10.3008 6.84375C9.02344 6.84375 8.08594 5.74219 8.08594 4.20703C8.08594 2.73047 9.03516 1.65234 10.3008 1.65234C11.5664 1.65234 12.5273 2.73047 12.5273 4.18359C12.5273 5.73047 11.5781 6.84375 10.3008 6.84375ZM3.83203 16.9922H16.7695C17.7422 16.9922 18.3047 16.4297 18.3047 15.5273C18.3047 13.125 15.2578 9.63281 10.3008 9.63281C5.33203 9.63281 2.29688 13.125 2.29688 15.5273C2.29688 16.4297 2.84766 16.9922 3.83203 16.9922ZM4.39453 15.3398C4.14844 15.3398 4.04297 15.2578 4.06641 15.082C4.28906 13.6992 6.45703 11.2852 10.3008 11.2852C14.1328 11.2852 16.3125 13.6992 16.5352 15.082C16.5586 15.2578 16.4414 15.3398 16.207 15.3398H4.39453ZM0.9375 25.1133H19.6758C20.1914 25.1133 20.6133 24.6914 20.6133 24.1758C20.6133 23.6602 20.1914 23.2266 19.6758 23.2266H18.9492V20.4961C18.9492 19.2656 18.375 18.5977 17.0508 18.5977H3.5625C2.25 18.5977 1.66406 19.2656 1.66406 20.4961V23.2266H0.9375C0.421875 23.2266 0 23.6602 0 24.1758C0 24.6914 0.421875 25.1133 0.9375 25.1133ZM8.00391 22.5703C7.60547 22.5703 7.32422 22.2656 7.32422 21.8672C7.32422 21.4805 7.60547 21.1875 8.00391 21.1875H12.6328C13.0195 21.1875 13.3125 21.4805 13.3125 21.8672C13.3125 22.2656 13.0195 22.5703 12.6328 22.5703H8.00391Z" fill="black" fill-opacity="0.85"/>
</svg>
