<svg width="34" height="25" viewBox="0 0 34 25" fill="none" xmlns="http://www.w3.org/2000/svg">
<path d="M8.60937 12.0967C10.789 12.0967 12.6875 10.128 12.6875 7.58496C12.6875 5.05371 10.7773 3.20215 8.60937 3.20215C6.42969 3.20215 4.51953 5.10059 4.51953 7.6084C4.51953 10.128 6.41797 12.0967 8.60937 12.0967ZM2.07031 22.6787H15.125C16.6133 22.6787 17.1875 22.0928 17.1875 21.0264C17.1875 17.792 13.8828 13.8897 8.59765 13.8897C3.3125 13.8897 0.0078125 17.792 0.0078125 21.0264C0.0078125 22.0928 0.59375 22.6787 2.07031 22.6787Z" fill="#007AFF"/>
<path d="M14.7266 24.2725H29.457C32.539 24.2725 33.5469 22.7842 33.5469 21.1202C33.5469 17.1826 29.0351 12.3311 22.0859 12.3311C15.1484 12.3311 10.6367 17.1826 10.6367 21.1202C10.6367 22.7842 11.6445 24.2725 14.7266 24.2725Z" fill="white"/>
<path d="M22.0976 11.8272C24.6172 11.8272 26.7851 9.57715 26.7851 6.64746C26.7851 3.75293 24.6055 1.6084 22.0976 1.6084C19.5898 1.6084 17.4101 3.79981 17.4101 6.6709C17.4101 9.57715 19.5781 11.8272 22.0976 11.8272ZM14.7266 22.6787H29.457C31.2969 22.6787 31.9531 22.1514 31.9531 21.1202C31.9531 18.0967 28.168 13.9248 22.0859 13.9248C16.0156 13.9248 12.2305 18.0967 12.2305 21.1202C12.2305 22.1514 12.8867 22.6787 14.7266 22.6787Z" fill="black" fill-opacity="0.85"/>
</svg>
