<svg width="26" height="23" viewBox="0 0 26 23" fill="none" xmlns="http://www.w3.org/2000/svg">
<path d="M2.01954 22.0181H17.7344C18.9883 22.0181 19.7383 21.4321 19.7383 20.4595C19.7383 17.436 15.9531 13.2642 9.87109 13.2642C3.80078 13.2642 0.015625 17.436 0.015625 20.4595C0.015625 21.4321 0.765625 22.0181 2.01954 22.0181ZM9.88282 11.1665C12.3906 11.1665 14.5703 8.9165 14.5703 5.98681C14.5703 3.09228 12.3906 0.947754 9.88282 0.947754C7.37501 0.947754 5.19531 3.13916 5.19531 6.01025C5.19531 8.9165 7.36329 11.1665 9.88282 11.1665Z" fill="#007AFF"/>
<path d="M21.3087 8.45947C21.8946 8.45947 22.2462 8.08447 22.2462 7.61572C22.2462 7.58057 22.2462 7.52197 22.2462 7.4751C22.2462 6.81885 22.6329 6.40869 23.4532 5.86963C24.5899 5.11963 25.3985 4.42822 25.3985 3.03369C25.3985 1.08838 23.6641 0.0336914 21.6719 0.0336914C19.6563 0.0336914 18.3321 0.994629 18.0157 2.06103C17.9571 2.26025 17.9219 2.44775 17.9219 2.64697C17.9219 3.17431 18.3321 3.45557 18.7188 3.45557C19.1173 3.45557 19.3751 3.26807 19.586 2.98681L19.7969 2.70557C20.2071 2.01416 20.8165 1.62744 21.6016 1.62744C22.668 1.62744 23.3595 2.23681 23.3595 3.12744C23.3595 3.92431 22.8673 4.31103 21.836 5.02588C21.004 5.61181 20.3712 6.23291 20.3712 7.38135C20.3712 7.42822 20.3712 7.4751 20.3712 7.52197C20.3712 8.14307 20.711 8.45947 21.3087 8.45947ZM21.2852 11.9517C21.9532 11.9517 22.5509 11.4126 22.5509 10.7329C22.5509 10.0532 21.9649 9.51416 21.2852 9.51416C20.5938 9.51416 20.0196 10.0649 20.0196 10.7329C20.0196 11.4009 20.6055 11.9517 21.2852 11.9517Z" fill="black" fill-opacity="0.85"/>
</svg>
