<svg width="34" height="32" viewBox="0 0 34 32" fill="none" xmlns="http://www.w3.org/2000/svg">
<path d="M8.61718 15.6914C10.7968 15.6914 12.6953 13.7226 12.6953 11.1796C12.6953 8.64844 10.7851 6.79688 8.61718 6.79688C6.4375 6.79688 4.52735 8.6953 4.52735 11.2031C4.52735 13.7226 6.42578 15.6914 8.61718 15.6914ZM2.07812 26.2734H15.1328C16.6211 26.2734 17.1953 25.6875 17.1953 24.6211C17.1953 21.3867 13.8906 17.4843 8.60546 17.4843C3.32031 17.4843 0.015625 21.3867 0.015625 24.6211C0.015625 25.6875 0.601563 26.2734 2.07812 26.2734Z" fill="#007AFF"/>
<path d="M14.7344 27.8672H29.4648C32.5468 27.8672 33.5547 26.379 33.5547 24.7149C33.5547 20.7774 29.0429 15.9258 22.0937 15.9258C15.1562 15.9258 10.6445 20.7774 10.6445 24.7149C10.6445 26.379 11.6523 27.8672 14.7344 27.8672Z" fill="white"/>
<path d="M22.1054 15.4218C24.625 15.4218 26.7929 13.1718 26.7929 10.2421C26.7929 7.34766 24.6133 5.20312 22.1054 5.20312C19.5976 5.20312 17.4179 7.39452 17.4179 10.2656C17.4179 13.1718 19.5859 15.4218 22.1054 15.4218ZM14.7344 26.2734H29.4648C31.3047 26.2734 31.9609 25.7461 31.9609 24.7148C31.9609 21.6914 28.1758 17.5195 22.0937 17.5195C16.0234 17.5195 12.2383 21.6914 12.2383 24.7148C12.2383 25.7461 12.8945 26.2734 14.7344 26.2734Z" fill="#007AFF"/>
<path d="M29.0547 30.7968C29.957 31.6875 31.4101 31.6875 32.289 30.7734C33.1562 29.8828 33.1679 28.4765 32.2773 27.5859L7.53906 2.84767C6.63671 1.94532 5.19531 1.95704 4.30468 2.84767C3.4375 3.71486 3.4375 5.1797 4.30468 6.05861L29.0547 30.7968Z" fill="white"/>
<path d="M30.0283 29.8243C30.3799 30.1758 30.9658 30.1758 31.3057 29.8243C31.6455 29.4727 31.6689 28.9102 31.3057 28.5469L6.56738 3.80862C6.2041 3.44533 5.6416 3.45705 5.27832 3.80862C4.93848 4.14846 4.93848 4.74612 5.27832 5.08596L30.0283 29.8243Z" fill="black" fill-opacity="0.85"/>
</svg>
