<svg width="31" height="22" viewBox="0 0 31 22" fill="none" xmlns="http://www.w3.org/2000/svg">
<path d="M7.54297 21.104H23.2578C24.5117 21.104 25.2617 20.5181 25.2617 19.5454C25.2617 16.522 21.4766 12.3501 15.4062 12.3501C9.32422 12.3501 5.53906 16.522 5.53906 19.5454C5.53906 20.5181 6.28906 21.104 7.54297 21.104ZM15.4062 10.2525C17.9258 10.2525 20.0937 8.00244 20.0937 5.07275C20.0937 2.17822 17.914 0.0336914 15.4062 0.0336914C12.9101 0.0336914 10.7187 2.2251 10.7187 5.09619C10.7187 8.00244 12.8984 10.2525 15.4062 10.2525Z" fill="#007AFF"/>
<path d="M0.324219 5.72898L3.46484 8.06101C4.12109 8.5532 4.89453 8.26023 4.89453 7.45164V6.01023H7.91797C8.43359 6.01023 8.84375 5.61179 8.84375 5.09617C8.84375 4.59226 8.43359 4.18211 7.91797 4.18211H4.89453V2.76414C4.89453 1.92039 4.09765 1.67429 3.46484 2.14305L0.324219 4.48679C-0.0976562 4.81492 -0.0976562 5.41258 0.324219 5.72898ZM21.957 5.09617C21.957 5.61179 22.3555 6.01023 22.8711 6.01023H25.8945V7.45164C25.8945 8.26023 26.6797 8.5532 27.3242 8.06101L30.4648 5.72898C30.8984 5.41258 30.8984 4.81492 30.4648 4.48679L27.3242 2.14305C26.7031 1.67429 25.8945 1.92039 25.8945 2.76414V4.18211H22.8711C22.3555 4.18211 21.957 4.59226 21.957 5.09617Z" fill="black" fill-opacity="0.85"/>
</svg>
