<svg width="22" height="22" viewBox="0 0 22 22" fill="none" xmlns="http://www.w3.org/2000/svg">
<path d="M3.70313 21.6299H17.9179C20.3789 21.6299 21.5976 20.4111 21.5976 17.997V3.68848C21.5976 1.27442 20.3789 0.0556641 17.9179 0.0556641H3.70313C1.25391 0.0556641 0.0234375 1.2627 0.0234375 3.68848V17.997C0.0234375 20.4228 1.25391 21.6299 3.70313 21.6299ZM3.72656 19.7431C2.55469 19.7431 1.91016 19.122 1.91016 17.9033V3.78223C1.91016 2.56348 2.55469 1.94239 3.72656 1.94239H17.8945C19.0546 1.94239 19.7109 2.56348 19.7109 3.78223V17.9033C19.7109 19.122 19.0546 19.7431 17.8945 19.7431H3.72656ZM2.75391 20.4345H18.8906C18.1992 17.1416 14.8945 14.751 10.8281 14.751C6.75 14.751 3.44532 17.1416 2.75391 20.4345ZM10.8164 12.7939C13.0546 12.8174 14.8242 10.9072 14.8242 8.39942C14.8242 6.04395 13.0546 4.09864 10.8164 4.09864C8.57813 4.09864 6.79688 6.04395 6.8086 8.39942C6.82032 10.9072 8.57813 12.7705 10.8164 12.7939Z" fill="black" fill-opacity="0.85"/>
</svg>
