<svg width="24" height="29" viewBox="0 0 24 29" fill="none" xmlns="http://www.w3.org/2000/svg">
<path d="M0.0117188 14.2518C0.0117188 20.7909 5.4375 26.2049 11.9648 26.2049C18.5039 26.2049 23.9179 20.7909 23.9179 14.2518C23.9179 8.48616 19.7109 3.59944 14.2265 2.52132V0.857253C14.2265 0.0252219 13.6523 -0.197434 13.0195 0.259597L9.28125 2.87288C8.74219 3.24788 8.73047 3.81038 9.28125 4.1971L13.0078 6.8221C13.6523 7.29085 14.2265 7.06819 14.2265 6.22444V4.56038C18.6562 5.56819 21.914 9.50569 21.914 14.2518C21.914 19.7831 17.4961 24.2128 11.9648 24.2128C6.4336 24.2128 1.99219 19.7831 2.00391 14.2518C2.01563 10.9237 3.63281 7.98226 6.12891 6.20101C6.60938 5.83772 6.76172 5.28694 6.46875 4.79476C6.17578 4.31429 5.53125 4.18538 5.01563 4.58382C2.00391 6.77522 0.0117188 10.3143 0.0117188 14.2518Z" fill="#007AFF"/>
<path d="M5.33203 18.9158H11.707C12.4219 18.9158 12.7031 18.6345 12.7031 18.1189C12.7031 16.1736 10.6758 14.6502 8.51953 14.6502C6.36328 14.6502 4.33594 16.1736 4.33594 18.1189C4.33594 18.6345 4.61719 18.9158 5.33203 18.9158ZM8.51953 13.7712C9.58594 13.7712 10.5 12.8103 10.5 11.5681C10.5 10.3494 9.58594 9.4353 8.51953 9.4353C7.46484 9.4353 6.52734 10.3728 6.52734 11.5798C6.52734 12.8103 7.45313 13.7712 8.51953 13.7712Z" fill="black" fill-opacity="0.85"/>
<path d="M11.5078 19.7478H18.6679C20.2031 19.7478 20.7187 18.9861 20.7187 18.1541C20.7187 16.2322 18.5156 13.8298 15.0937 13.8298C11.6719 13.8298 9.44531 16.2205 9.44531 18.1541C9.44531 18.7986 9.77344 19.7478 11.5078 19.7478Z" fill="white"/>
<path d="M11.5078 18.9158H18.6679C19.5703 18.9158 19.8867 18.658 19.8867 18.1541C19.8867 16.6892 18.0469 14.6619 15.0937 14.6619C12.1289 14.6619 10.2773 16.6892 10.2773 18.1541C10.2773 18.658 10.6055 18.9158 11.5078 18.9158ZM15.0937 13.6541C16.3242 13.6541 17.3672 12.5408 17.3672 11.1111C17.3672 9.70483 16.3125 8.67358 15.0937 8.67358C13.8633 8.67358 12.8086 9.73999 12.8086 11.1228C12.8086 12.5408 13.8633 13.6541 15.0937 13.6541Z" fill="black" fill-opacity="0.85"/>
</svg>
