<svg width="24" height="24" viewBox="0 0 24 24" fill="none" xmlns="http://www.w3.org/2000/svg">
<path d="M11.9531 23.9384C18.4922 23.9384 23.9062 18.5127 23.9062 11.9853C23.9062 5.44629 18.4805 0.0322266 11.9414 0.0322266C5.41406 0.0322266 0 5.44629 0 11.9853C0 18.5127 5.42578 23.9384 11.9531 23.9384Z" fill="#FFCC00"/>
<path d="M11.9414 22.1572C9.25781 22.1572 6.53906 21.0556 4.74609 19.1455C6.01172 17.1533 8.76562 15.9814 11.9414 15.9814C15.0938 15.9814 17.8711 17.1299 19.1484 19.1455C17.3438 21.0556 14.6367 22.1572 11.9414 22.1572ZM11.9414 13.9892C9.69141 13.9658 7.92188 12.0908 7.92188 9.57129C7.91016 7.20411 9.70312 5.23535 11.9414 5.23535C14.1914 5.23535 15.9609 7.20411 15.9609 9.57129C15.9609 12.0908 14.2031 14.0127 11.9414 13.9892Z" fill="black" fill-opacity="0.85"/>
</svg>
