<svg width="28" height="22" viewBox="0 0 28 22" fill="none" xmlns="http://www.w3.org/2000/svg">
<path d="M3.6836 21.6079H23.957C26.418 21.6079 27.6367 20.4009 27.6367 17.9868V3.6665C27.6367 1.25244 26.418 0.0336914 23.957 0.0336914H3.6836C1.23438 0.0336914 0.00390625 1.25244 0.00390625 3.6665V17.9868C0.00390625 20.4009 1.23438 21.6079 3.6836 21.6079Z" fill="#FFCC00"/>
<path d="M4.84374 15.9009C3.68359 15.9009 3.12109 15.3267 3.12109 14.2017V7.46338C3.12109 6.32666 3.68359 5.76416 4.84374 5.76416H11.5234C12.6836 5.76416 13.2578 6.33838 13.2578 7.46338V14.2017C13.2578 15.3267 12.6836 15.9009 11.5234 15.9009H4.84374ZM4.52734 14.7642H11.8516C11.4883 13.6743 10.1289 12.6665 8.19531 12.6665C6.23828 12.6665 4.89062 13.6743 4.52734 14.7642ZM8.18359 11.811C9.23828 11.811 10.082 10.9087 10.082 9.73681C10.082 8.62353 9.23828 7.72119 8.18359 7.72119C7.1289 7.72119 6.29687 8.62353 6.29687 9.73681C6.29687 10.9087 7.1289 11.811 8.18359 11.811ZM20.1367 15.772C17.1836 15.772 15.2031 13.8032 15.2031 10.8384C15.2031 7.88525 17.1953 5.86963 20.1016 5.86963C22.9023 5.86963 24.8711 7.69775 24.8711 10.3345C24.8711 12.2564 23.9805 13.5103 22.6211 13.5103C22.0234 13.5103 21.5078 13.2525 21.25 12.7954C20.8984 13.2525 20.3945 13.5103 19.8086 13.5103C18.4961 13.5103 17.582 12.4321 17.582 10.8501C17.582 9.31494 18.4961 8.20166 19.7734 8.20166C20.3477 8.20166 20.7461 8.40088 21.0391 8.729V8.63525C21.1094 8.40088 21.3555 8.20166 21.625 8.20166C21.9766 8.20166 22.2344 8.48291 22.2344 8.84619V11.8462C22.2344 12.186 22.375 12.3384 22.7383 12.3384C23.3125 12.3384 23.6758 11.6001 23.6758 10.4048C23.6758 8.40088 22.2344 7.05322 20.1016 7.05322C17.957 7.05322 16.4805 8.6001 16.4805 10.8501C16.4805 13.147 17.9219 14.5532 20.2773 14.5532C21.0273 14.5532 21.3672 14.4126 21.7305 14.354C21.8945 14.3306 22 14.2954 22.1172 14.2954C22.4336 14.2954 22.6562 14.5415 22.6562 14.8462C22.6562 15.1626 22.457 15.3618 22.1289 15.5025C21.6601 15.6899 20.9101 15.772 20.1367 15.772ZM19.9961 12.2798C20.6523 12.2798 21.0742 11.7173 21.0742 10.7915C21.0742 9.92431 20.6641 9.39697 20.0078 9.39697C19.3516 9.39697 18.9414 9.92431 18.9414 10.8267C18.9414 11.7407 19.3398 12.2798 19.9961 12.2798Z" fill="black" fill-opacity="0.85"/>
</svg>
