<svg width="25" height="32" viewBox="0 0 25 32" fill="none" xmlns="http://www.w3.org/2000/svg">
<path d="M8.41796 13.5616H15.918C16.9609 13.5616 17.5703 12.9756 17.5703 11.9444V3.5537C17.5703 2.52245 16.9609 1.93652 15.918 1.93652H8.41796C7.37499 1.93652 6.76562 2.52245 6.76562 3.5537V11.9444C6.76562 12.9756 7.37499 13.5616 8.41796 13.5616Z" fill="black" fill-opacity="0.85"/>
<path d="M6.63671 23.3116H17.7109C20.043 23.3116 21.5781 21.7881 21.5781 19.4678V7.26855C21.5781 4.94824 20.043 3.43652 17.7109 3.43652H6.63671C4.30468 3.43652 2.75781 4.94824 2.75781 7.26855V19.4678C2.75781 21.7881 4.30468 23.3116 6.63671 23.3116Z" fill="white"/>
<path d="M6.50781 21.7178H17.8398C19.2109 21.7178 19.9844 20.9444 19.9844 19.5967V7.13964C19.9844 5.79198 19.2109 5.03027 17.8398 5.03027H6.50781C5.13671 5.03027 4.35156 5.79198 4.35156 7.13964V19.5967C4.35156 20.9444 5.13671 21.7178 6.50781 21.7178Z" fill="black" fill-opacity="0.85"/>
<path d="M5.57032 31.0225H18.7656C22.2578 31.0225 24.332 28.9717 24.332 25.503V12.2139C24.332 8.74512 22.2578 6.69434 18.7656 6.69434H5.57032C2.07813 6.69434 0.00390625 8.7334 0.00390625 12.2139V25.503C0.00390625 28.9717 2.07813 31.0225 5.57032 31.0225Z" fill="white"/>
<path d="M8.41797 20.792C9.63672 20.792 10.6797 19.7022 10.6797 18.2725C10.6797 16.878 9.625 15.8467 8.41797 15.8467C7.19922 15.8467 6.14453 16.9014 6.14453 18.2842C6.14453 19.7022 7.19922 20.792 8.41797 20.792ZM5.17188 27.5655H11.6406C12.6836 27.5655 13.1875 26.8389 13.1875 26.0889C13.1875 24.0498 11.3008 22.0225 8.40625 22.0225C5.52344 22.0225 3.625 24.0498 3.625 26.0889C3.625 26.8389 4.14063 27.5655 5.17188 27.5655Z" fill="black" fill-opacity="0.85"/>
<path d="M11.3711 28.9248H19.9609C21.7539 28.9248 22.75 27.7295 22.75 26.3702C22.75 23.5342 19.9727 20.6748 15.8945 20.6748C11.8281 20.6748 9.0625 23.5342 9.0625 26.3702C9.0625 27.9287 10.0703 28.9248 11.3711 28.9248Z" fill="white"/>
<path d="M15.9062 20.628C17.3008 20.628 18.4961 19.3741 18.4961 17.7569C18.4961 16.1514 17.2891 14.9678 15.9062 14.9678C14.5117 14.9678 13.293 16.1866 13.293 17.7803C13.293 19.3741 14.5117 20.628 15.9062 20.628ZM11.3711 27.5655H19.5156C20.7344 27.5655 21.2734 26.8623 21.2734 26.1241C21.2734 24.167 19.1406 22.0459 15.8945 22.0459C12.6016 22.0459 10.4219 24.2725 10.4219 26.3702C10.4219 27.1084 10.7969 27.5655 11.3711 27.5655Z" fill="black" fill-opacity="0.85"/>
<path d="M5.57032 29.1358H18.7656C21.2148 29.1358 22.4453 27.917 22.4453 25.503V12.2139C22.4453 9.7998 21.2148 8.58105 18.7656 8.58105H5.57032C3.1211 8.58105 1.89062 9.78808 1.89062 12.2139V25.503C1.89062 27.917 3.1211 29.1358 5.57032 29.1358ZM5.60547 27.2491C4.4336 27.2491 3.77734 26.6162 3.77734 25.3975V12.3076C3.77734 11.1006 4.4336 10.4678 5.60547 10.4678H18.7422C19.8906 10.4678 20.5586 11.1006 20.5586 12.3076V25.3975C20.5586 26.6162 19.8906 27.2491 18.7422 27.2491H5.60547Z" fill="black" fill-opacity="0.85"/>
</svg>
