<svg width="20" height="26" viewBox="0 0 20 26" fill="none" xmlns="http://www.w3.org/2000/svg">
<path d="M0.015625 24.2285C0.015625 24.791 0.390625 25.1543 0.953125 25.1543H18.789C19.3515 25.1543 19.7265 24.791 19.7265 24.2285V0.966797C19.7265 0.404297 19.3515 0.0292969 18.789 0.0292969H0.953125C0.390625 0.0292969 0.015625 0.404297 0.015625 0.966797V24.2285ZM1.90234 22.9277V2.26758C1.90234 2.00977 1.9961 1.91602 2.24219 1.91602H17.5C17.7461 1.91602 17.8398 2.00977 17.8398 2.26758V22.9277C17.8398 23.1855 17.7461 23.2676 17.5 23.2676H2.24219C1.9961 23.2676 1.90234 23.1855 1.90234 22.9277Z" fill="black" fill-opacity="0.85"/>
<path d="M3.16797 21.3223C3.16797 21.7559 3.41407 22.0137 3.84766 22.0137H15.8945C16.3281 22.0137 16.5742 21.7559 16.5742 21.3223V3.87305C16.5742 3.43946 16.3281 3.18164 15.8945 3.18164H3.84766C3.41407 3.18164 3.16797 3.43946 3.16797 3.87305V21.3223ZM4.35157 20.5605V4.63477C4.35157 4.45899 4.4336 4.36524 4.60938 4.36524H15.1328C15.3086 4.36524 15.3906 4.45899 15.3906 4.63477V20.5605C15.3906 20.7363 15.3086 20.8301 15.1328 20.8301H4.60938C4.4336 20.8301 4.35157 20.7363 4.35157 20.5605ZM4.30469 21.3574H15.414C15.8945 21.3574 16.1172 21.0527 16.1172 20.6074C16.1172 19.2832 14.125 15.8262 9.85938 15.8262C5.60547 15.8262 3.60157 19.2832 3.60157 20.6074C3.60157 21.0527 3.82422 21.3574 4.30469 21.3574ZM9.85938 14.8301C11.5937 14.8418 12.9765 13.377 12.9765 11.4316C12.9765 9.60352 11.5937 8.0918 9.85938 8.0918C8.13672 8.0918 6.74219 9.60352 6.74219 11.4316C6.74219 13.377 8.13672 14.8184 9.85938 14.8301Z" fill="#007AFF"/>
</svg>
