<svg width="29" height="30" viewBox="0 0 29 30" fill="none" xmlns="http://www.w3.org/2000/svg">
<path d="M8.43359 13.5088H19.9297C20.9726 13.5088 21.582 12.9228 21.582 11.8916V3.5127C21.582 2.48145 20.9726 1.88379 19.9297 1.88379H8.43359C7.39062 1.88379 6.78125 2.48145 6.78125 3.5127V11.8916C6.78125 12.9228 7.39062 13.5088 8.43359 13.5088Z" fill="black" fill-opacity="0.85"/>
<path d="M6.65234 22.0049H21.7226C24.0547 22.0049 25.5898 20.4814 25.5898 18.1728V7.21582C25.5898 4.89551 24.0547 3.38379 21.7226 3.38379H6.65234C4.32031 3.38379 2.77344 4.89551 2.77344 7.21582V18.1728C2.77344 20.4814 4.32031 22.0049 6.65234 22.0049Z" fill="white"/>
<path d="M6.52344 20.4111H21.8515C23.2226 20.4111 23.9961 19.6494 23.9961 18.3017V7.08692C23.9961 5.73926 23.2226 4.97754 21.8515 4.97754H6.52344C5.15234 4.97754 4.36719 5.73926 4.36719 7.08692V18.3017C4.36719 19.6494 5.15234 20.4111 6.52344 20.4111Z" fill="black" fill-opacity="0.85"/>
<path d="M5.58594 29.7158H22.7773C26.2695 29.7158 28.3437 27.665 28.3437 24.1963V12.1611C28.3437 8.69238 26.2695 6.6416 22.7773 6.6416H5.58594C2.09375 6.6416 0.0195312 8.69238 0.0195312 12.1611V24.1963C0.0195312 27.665 2.09375 29.7158 5.58594 29.7158Z" fill="white"/>
<path d="M6.86328 26.8799H21.5C20.8789 23.8916 17.8789 21.7236 14.1875 21.7236C10.4843 21.7236 7.48437 23.8916 6.86328 26.8799ZM14.1875 19.9424C16.2148 19.9424 17.8203 18.2431 17.8203 15.9697C17.8203 13.8252 16.2148 12.0674 14.1875 12.0674C12.1484 12.0674 10.5547 13.8252 10.5547 15.9697C10.5547 18.2431 12.1484 19.9424 14.1875 19.9424ZM5.58594 27.8291H22.7773C25.2265 27.8291 26.457 26.6103 26.457 24.1963V12.1611C26.457 9.74707 25.2265 8.52832 22.7773 8.52832H5.58594C3.13672 8.52832 1.90625 9.74707 1.90625 12.1611V24.1963C1.90625 26.6103 3.13672 27.8291 5.58594 27.8291ZM5.62109 25.9424C4.44922 25.9424 3.79297 25.3095 3.79297 24.0908V12.2666C3.79297 11.0478 4.44922 10.415 5.62109 10.415H22.7539C23.9023 10.415 24.5703 11.0478 24.5703 12.2666V24.0908C24.5703 25.3095 23.9023 25.9424 22.7539 25.9424H5.62109Z" fill="black" fill-opacity="0.85"/>
</svg>
