<svg width="27" height="28" viewBox="0 0 27 28" fill="none" xmlns="http://www.w3.org/2000/svg">
<path d="M23.2713 16.3045C23.7049 16.5975 24.244 16.492 24.5604 16.0467C26.0604 13.9842 26.9393 11.1483 26.9393 8.2537C26.9393 5.35917 26.0721 2.49979 24.5604 0.460724C24.244 0.00369322 23.7049 -0.0900568 23.2713 0.202912C22.8494 0.495881 22.7674 1.04667 23.119 1.52713C24.3963 3.33182 25.1229 5.7576 25.1229 8.2537C25.1229 10.7498 24.3729 13.1522 23.119 14.9803C22.7791 15.4608 22.8494 16.0115 23.2713 16.3045Z" fill="#007AFF"/>
<path d="M18.9351 13.2459C19.3218 13.5155 19.8843 13.4334 20.189 12.9764C21.0913 11.7928 21.6304 10.0467 21.6304 8.2537C21.6304 6.46073 21.0913 4.72635 20.189 3.51932C19.8843 3.07401 19.3218 2.98026 18.9351 3.26151C18.4546 3.58963 18.3843 4.17557 18.7476 4.65604C19.439 5.59354 19.814 6.89432 19.814 8.2537C19.814 9.61307 19.4272 10.9022 18.7476 11.8514C18.396 12.3436 18.4546 12.9061 18.9351 13.2459Z" fill="#007AFF"/>
<path d="M2.90429 24.7654H17.6231C19.5684 24.7654 20.4942 24.1794 20.4942 22.8904C20.4942 19.82 16.627 15.3786 10.2637 15.3786C3.90039 15.3786 0.0214844 19.82 0.0214844 22.8904C0.0214844 24.1794 0.947266 24.7654 2.90429 24.7654ZM2.34179 22.9958C2.0371 22.9958 1.9082 22.9138 1.9082 22.6677C1.9082 20.7341 4.88476 17.1482 10.2637 17.1482C15.6426 17.1482 18.6074 20.7341 18.6074 22.6677C18.6074 22.9138 18.4903 22.9958 18.1856 22.9958H2.34179ZM10.2637 13.9138C13.0527 13.9138 15.3262 11.4411 15.3262 8.41773C15.3262 5.41773 13.0762 3.06226 10.2637 3.06226C7.48632 3.06226 5.20117 5.4646 5.20117 8.44117C5.21289 11.4529 7.48632 13.9138 10.2637 13.9138ZM10.2637 12.1443C8.55273 12.1443 7.08789 10.5154 7.08789 8.44117C7.08789 6.4021 8.52929 4.83179 10.2637 4.83179C12.0215 4.83179 13.4395 6.36695 13.4395 8.41773C13.4395 10.4919 11.9981 12.1443 10.2637 12.1443Z" fill="black" fill-opacity="0.85"/>
</svg>
