<svg width="27" height="28" viewBox="0 0 27 28" fill="none" xmlns="http://www.w3.org/2000/svg">
<path d="M22.9099 16.3045C23.3435 16.5975 23.8826 16.492 24.199 16.0467C25.699 13.9842 26.5779 11.1483 26.5779 8.2537C26.5779 5.35917 25.7107 2.49979 24.199 0.460724C23.8826 0.00369322 23.3435 -0.0900568 22.9099 0.202912C22.4763 0.495881 22.406 1.04667 22.7459 1.52713C24.0349 3.33182 24.7615 5.7576 24.7615 8.2537C24.7615 10.7498 24.0115 13.1522 22.7459 14.9803C22.4177 15.4608 22.4763 16.0115 22.9099 16.3045Z" fill="#007AFF"/>
<path d="M18.5738 13.2459C18.9605 13.5155 19.5113 13.4334 19.8277 12.9764C20.73 11.7928 21.2691 10.0467 21.2691 8.2537C21.2691 6.46073 20.73 4.72635 19.8277 3.51932C19.5113 3.07401 18.9605 2.98026 18.5738 3.26151C18.0933 3.58963 18.023 4.17557 18.3863 4.65604C19.066 5.59354 19.4527 6.89432 19.4527 8.2537C19.4527 9.61307 19.0542 10.9022 18.3863 11.8514C18.0347 12.3436 18.0933 12.9061 18.5738 13.2459Z" fill="#007AFF"/>
<path d="M2.53125 24.4489H17.25C19.0898 24.4489 19.7461 23.9216 19.7461 22.8904C19.7461 19.8669 15.9609 15.695 9.89063 15.695C3.8086 15.695 0.0234375 19.8669 0.0234375 22.8904C0.0234375 23.9216 0.679688 24.4489 2.53125 24.4489ZM9.89063 13.5974C12.4101 13.5974 14.5781 11.3474 14.5781 8.41772C14.5781 5.52319 12.3984 3.37866 9.89063 3.37866C7.38282 3.37866 5.20313 5.57006 5.20313 8.44116C5.20313 11.3474 7.38282 13.5974 9.89063 13.5974Z" fill="black" fill-opacity="0.85"/>
</svg>
