<svg width="18" height="22" viewBox="0 0 18 22" fill="none" xmlns="http://www.w3.org/2000/svg">
<path d="M2.30859 20.6953C2.30859 21.3164 2.8125 21.8086 3.43359 21.8086C4.05469 21.8086 4.54688 21.3164 4.54688 20.6953V13.7461H8.76562C12.75 13.7461 15.4922 11.0508 15.4922 7.11328C15.4922 3.19922 12.9375 0.527344 8.88281 0.527344H3.43359C2.74219 0.527344 2.30859 0.984375 2.30859 1.6875V20.6953ZM4.54688 11.7773V2.51953H8.33203C11.5547 2.51953 13.1953 4.19531 13.1953 7.11328C13.1953 10.043 11.4023 11.7773 8.23828 11.7773H4.54688ZM0.738281 7.75781H16.6289C17.0625 7.75781 17.3906 7.40625 17.3906 6.98438C17.3906 6.55078 17.0625 6.22266 16.6289 6.22266H0.738281C0.316406 6.22266 0 6.55078 0 6.98438C0 7.40625 0.316406 7.75781 0.738281 7.75781Z" fill="black" fill-opacity="0.85"/>
</svg>
