<svg width="24" height="24" viewBox="0 0 24 24" fill="none" xmlns="http://www.w3.org/2000/svg">
<path d="M11.9531 23.9062C18.4922 23.9062 23.9062 18.4805 23.9062 11.9531C23.9062 5.41406 18.4805 0 11.9414 0C5.41406 0 0 5.41406 0 11.9531C0 18.4805 5.42578 23.9062 11.9531 23.9062ZM11.9531 21.9141C6.42188 21.9141 2.00391 17.4844 2.00391 11.9531C2.00391 6.42188 6.41016 1.99219 11.9414 1.99219C17.4727 1.99219 21.9141 6.42188 21.9141 11.9531C21.9141 17.4844 17.4844 21.9141 11.9531 21.9141Z" fill="#007AFF"/>
<path d="M7.65234 10.1016C7.65234 10.4297 7.89844 10.6875 8.22656 10.6875H8.94141V17.0508C8.94141 17.5078 9.28125 17.8242 9.71484 17.8242C10.1602 17.8242 10.4766 17.5078 10.4766 17.0508V13.7461H12.5273C14.4844 13.7461 15.9023 12.5156 16.125 10.6875H16.6641C16.9922 10.6875 17.2383 10.4297 17.2383 10.1016C17.2383 9.76172 16.9922 9.52734 16.6641 9.52734H16.1016C15.8203 7.76953 14.4492 6.62109 12.5273 6.62109H9.69141C9.23438 6.62109 8.94141 6.92578 8.94141 7.39453V9.52734H8.22656C7.89844 9.52734 7.65234 9.76172 7.65234 10.1016ZM10.4883 12.3633V10.6875H14.5664C14.3789 11.7422 13.5586 12.3633 12.2695 12.3633H10.4883ZM10.4883 9.52734V8.00391H12.2695C13.5 8.00391 14.2969 8.55469 14.5312 9.52734H10.4883Z" fill="black" fill-opacity="0.85"/>
</svg>
