<svg width="22" height="22" viewBox="0 0 22 22" fill="none" xmlns="http://www.w3.org/2000/svg">
<path d="M3.67969 21.5977H17.8945C20.3555 21.5977 21.5742 20.3789 21.5742 17.9648V3.65625C21.5742 1.24219 20.3555 0.0234375 17.8945 0.0234375H3.67969C1.23047 0.0234375 0 1.23047 0 3.65625V17.9648C0 20.3906 1.23047 21.5977 3.67969 21.5977ZM3.70312 19.7109C2.53125 19.7109 1.88672 19.0898 1.88672 17.8711V3.75C1.88672 2.53125 2.53125 1.91016 3.70312 1.91016H17.8711C19.0312 1.91016 19.6875 2.53125 19.6875 3.75V17.8711C19.6875 19.0898 19.0312 19.7109 17.8711 19.7109H3.70312Z" fill="#007AFF"/>
<path d="M6.49219 10.125C6.49219 10.4414 6.73828 10.6992 7.06641 10.6992H7.78125V15.9023C7.78125 16.3477 8.12109 16.6641 8.55469 16.6641C9 16.6641 9.31641 16.3477 9.31641 15.9023V12.9023H11.3672C12.9609 12.9023 14.1914 12.0469 14.7188 10.6992H15.5039C15.8438 10.6992 16.0781 10.4414 16.0781 10.125C16.0781 9.77344 15.8438 9.53906 15.5039 9.53906H14.9766C14.9883 9.42188 14.9883 9.29297 14.9883 9.17578C14.9883 9.04688 14.9883 8.94141 14.9766 8.80078H15.5039C15.8438 8.80078 16.0781 8.54297 16.0781 8.21484C16.0781 7.875 15.8438 7.64062 15.5039 7.64062H14.707C14.1914 6.31641 12.9609 5.46094 11.3672 5.46094H8.53125C8.07422 5.46094 7.78125 5.76562 7.78125 6.24609V7.64062H7.06641C6.73828 7.64062 6.49219 7.875 6.49219 8.21484C6.49219 8.54297 6.73828 8.80078 7.06641 8.80078H7.78125V9.53906H7.06641C6.73828 9.53906 6.49219 9.77344 6.49219 10.125ZM9.32812 11.5078V10.6992H13.0078C12.6094 11.2148 11.9648 11.5078 11.1211 11.5078H9.32812ZM9.32812 9.53906V8.80078H13.4648C13.4766 8.91797 13.4766 9.03516 13.4766 9.17578C13.4766 9.29297 13.4766 9.42188 13.4648 9.53906H9.32812ZM9.32812 7.64062V6.85547H11.1211C11.9648 6.85547 12.6094 7.13672 12.9961 7.64062H9.32812Z" fill="black" fill-opacity="0.85"/>
</svg>
