<svg width="22" height="22" viewBox="0 0 22 22" fill="none" xmlns="http://www.w3.org/2000/svg">
<path d="M3.67969 21.5977H17.8945C20.3555 21.5977 21.5742 20.3789 21.5742 17.9648V3.65625C21.5742 1.24219 20.3555 0.0234375 17.8945 0.0234375H3.67969C1.23047 0.0234375 0 1.23047 0 3.65625V17.9648C0 20.3906 1.23047 21.5977 3.67969 21.5977Z" fill="#FFCC00"/>
<path d="M6.35156 10.1133C6.35156 9.75 6.59766 9.50391 6.9375 9.50391H7.67578V8.74219H6.9375C6.59766 8.74219 6.35156 8.47265 6.35156 8.1328C6.35156 7.78124 6.59766 7.54688 6.9375 7.54688H7.67578V6.10547C7.67578 5.61328 7.98047 5.29688 8.46094 5.29688H11.3789C13.0312 5.29688 14.2969 6.17578 14.8359 7.54688H15.6562C16.0078 7.54688 16.2422 7.78124 16.2422 8.1328C16.2422 8.47265 16.0078 8.74219 15.6562 8.74219H15.1055C15.1172 8.89453 15.1172 9 15.1172 9.12891C15.1172 9.24609 15.1172 9.38672 15.1055 9.50391H15.6562C16.0078 9.50391 16.2422 9.75 16.2422 10.1133C16.2422 10.4414 16.0078 10.6992 15.6562 10.6992H14.8477C14.2969 12.0938 13.0312 12.9844 11.3789 12.9844H9.26953V16.0664C9.26953 16.5234 8.94141 16.8516 8.48438 16.8516C8.02734 16.8516 7.67578 16.5234 7.67578 16.0664V10.6992H6.9375C6.59766 10.6992 6.35156 10.4414 6.35156 10.1133ZM9.28125 11.5312H11.1328C12 11.5312 12.6562 11.2383 13.0664 10.6992H9.28125V11.5312ZM9.28125 9.50391H13.5469C13.5586 9.38672 13.5586 9.24609 13.5586 9.12891C13.5586 8.98828 13.5586 8.85938 13.5469 8.74219H9.28125V9.50391ZM9.28125 7.54688H13.0547C12.6562 7.03124 12 6.73828 11.1328 6.73828H9.28125V7.54688Z" fill="black" fill-opacity="0.85"/>
</svg>
