<svg width="24" height="24" viewBox="0 0 24 24" fill="none" xmlns="http://www.w3.org/2000/svg">
<path d="M11.9531 23.9062C18.4922 23.9062 23.9062 18.4805 23.9062 11.9531C23.9062 5.41406 18.4805 0 11.9414 0C5.41406 0 0 5.41406 0 11.9531C0 18.4805 5.42578 23.9062 11.9531 23.9062Z" fill="#FFCC00"/>
<path d="M7.51172 11.2734C7.51172 10.9102 7.75781 10.6641 8.09766 10.6641H8.83594V9.90234H8.09766C7.75781 9.90234 7.51172 9.63281 7.51172 9.29297C7.51172 8.94141 7.75781 8.70703 8.09766 8.70703H8.83594V7.26562C8.83594 6.77344 9.14062 6.45703 9.62109 6.45703H12.5391C14.1914 6.45703 15.4453 7.33594 15.9961 8.70703H16.8164C17.1562 8.70703 17.4023 8.94141 17.4023 9.29297C17.4023 9.63281 17.1562 9.90234 16.8164 9.90234H16.2656C16.2773 10.0547 16.2773 10.1602 16.2773 10.2891C16.2773 10.4062 16.2773 10.5469 16.2539 10.6641H16.8164C17.1562 10.6641 17.4023 10.9102 17.4023 11.2734C17.4023 11.6016 17.1562 11.8594 16.8164 11.8594H16.0078C15.457 13.2539 14.1914 14.1445 12.5391 14.1445H10.4297V17.2266C10.4297 17.6836 10.1016 18.0117 9.64453 18.0117C9.1875 18.0117 8.83594 17.6836 8.83594 17.2266V11.8594H8.09766C7.75781 11.8594 7.51172 11.6016 7.51172 11.2734ZM10.4414 12.6914H12.293C13.1602 12.6914 13.8164 12.3984 14.2266 11.8594H10.4414V12.6914ZM10.4414 10.6641H14.6953C14.7188 10.5469 14.7188 10.4062 14.7188 10.2891C14.7188 10.1484 14.7188 10.0195 14.6953 9.90234H10.4414V10.6641ZM10.4414 8.70703H14.2148C13.8164 8.19141 13.1602 7.89844 12.293 7.89844H10.4414V8.70703Z" fill="black" fill-opacity="0.85"/>
</svg>
