<svg width="24" height="24" viewBox="0 0 24 24" fill="none" xmlns="http://www.w3.org/2000/svg">
<path d="M11.9531 23.918C18.4922 23.918 23.9062 18.5039 23.9062 11.9648C23.9062 5.4375 18.4805 0.0117188 11.9414 0.0117188C5.41406 0.0117188 0 5.4375 0 11.9648C0 18.5039 5.42578 23.918 11.9531 23.918Z" fill="#FFCC00"/>
<path d="M8.19165 15.7383C5.37915 12.9141 3.57446 9.32812 5.70727 7.20703C5.75415 7.16016 5.80102 7.11328 5.85962 7.06641C6.66821 6.46875 7.40649 6.32812 7.9104 7.04297L9.39868 9.14062C9.9143 9.85547 9.7854 10.2891 9.24633 10.8516L8.77758 11.3672C8.61352 11.5195 8.6604 11.7422 8.75415 11.8711C8.98852 12.2695 9.58618 13.0195 10.2424 13.6875C10.9221 14.3555 11.6252 14.9297 12.0588 15.1758C12.2111 15.2812 12.4572 15.293 12.5861 15.1523L13.0783 14.6719C13.6174 14.1445 14.0744 14.0156 14.7775 14.5195C15.7736 15.1992 16.3713 15.6211 16.9221 16.0312C17.6252 16.5586 17.4846 17.3789 16.9338 18C16.8635 18.082 16.8049 18.1523 16.7229 18.2344C14.6018 20.3555 11.0041 18.5625 8.19165 15.7383ZM12.4807 12.1523C12.1057 12.1523 11.8361 11.9062 11.8361 11.5547C11.8361 11.3555 11.8947 11.2148 12.0354 11.0742L14.9768 8.13281L15.8088 7.35938L14.215 7.44141H13.1721C12.8205 7.44141 12.551 7.18359 12.5393 6.84375C12.5158 6.49219 12.8088 6.1875 13.1721 6.1875H17.133C17.5549 6.1875 17.801 6.43359 17.801 6.86719V10.8047C17.801 11.168 17.508 11.4609 17.1447 11.4492C16.8049 11.4141 16.5588 11.1445 16.5588 10.8047V9.79688L16.6291 8.17969L15.8557 9.03516L12.9143 11.9883C12.8205 12.1055 12.6564 12.1523 12.4807 12.1523Z" fill="black" fill-opacity="0.85"/>
</svg>
