<svg width="24" height="24" viewBox="0 0 24 24" fill="none" xmlns="http://www.w3.org/2000/svg">
<path d="M11.9531 23.9062C18.4922 23.9062 23.9062 18.4805 23.9062 11.9531C23.9062 5.41406 18.4805 0 11.9414 0C5.41406 0 0 5.41406 0 11.9531C0 18.4805 5.42578 23.9062 11.9531 23.9062ZM11.9531 21.9141C6.42188 21.9141 2.00391 17.4844 2.00391 11.9531C2.00391 6.42188 6.41016 1.99219 11.9414 1.99219C17.4727 1.99219 21.9141 6.42188 21.9141 11.9531C21.9141 17.4844 17.4844 21.9141 11.9531 21.9141Z" fill="#007AFF"/>
<path d="M8.27358 15.6328C11.0157 18.3633 14.4962 20.1094 16.547 18.0469C16.629 17.9766 16.6876 17.8945 16.7579 17.8242C17.2853 17.2148 17.4259 16.4297 16.7462 15.9141C16.2071 15.5273 15.6446 15.1172 14.672 14.4492C13.9806 13.9688 13.5353 14.0859 13.0079 14.6016L12.5392 15.0703C12.4103 15.1992 12.1759 15.1758 12.0235 15.082C11.6134 14.8359 10.922 14.2969 10.2657 13.6406C9.62123 12.9844 9.04701 12.2695 8.81263 11.8828C8.74232 11.7539 8.68373 11.543 8.83608 11.3789L9.30483 10.8984C9.83217 10.3359 9.93763 9.91406 9.44544 9.23438L8.00404 7.18359C7.52357 6.49219 6.79701 6.64453 6.01185 7.21875C5.95325 7.26562 5.90638 7.3125 5.85951 7.34766C3.79701 9.42188 5.54311 12.9023 8.27358 15.6328ZM12.4337 12.1523C12.5978 12.1523 12.7618 12.1055 12.8673 12L15.7267 9.11719L16.4767 8.29688L16.3946 9.86719V10.8516C16.3946 11.1797 16.629 11.4375 16.9571 11.4727C17.3087 11.4844 17.6017 11.2031 17.6017 10.8516V7.03125C17.6017 6.60938 17.3673 6.375 16.9454 6.375H13.1017C12.7501 6.375 12.4806 6.65625 12.504 7.00781C12.5157 7.33594 12.7618 7.58203 13.1017 7.58203H14.1329L15.6798 7.5L14.8595 8.25L12.0118 11.1094C11.8712 11.2383 11.8243 11.3906 11.8243 11.5781C11.8243 11.918 12.0821 12.1523 12.4337 12.1523Z" fill="black" fill-opacity="0.85"/>
</svg>
