<svg width="23" height="27" viewBox="0 0 23 27" fill="none" xmlns="http://www.w3.org/2000/svg">
<path d="M8.13794e-05 13.2188C-0.0116374 17.6367 1.24227 21.9961 3.77352 24.5156C5.09774 25.8398 6.33993 26.4375 8.34383 26.4375C10.7462 26.4375 12.047 25.1602 11.6602 22.7578L10.9337 18.668C10.6993 17.4023 9.87899 16.4766 8.48446 16.4648H7.31258C6.70321 16.4648 6.43368 16.1367 6.37508 15.2578C6.35164 14.9062 6.32821 14.0859 6.32821 13.2188C6.32821 12.3516 6.35164 11.5312 6.37508 11.1797C6.43368 10.3008 6.70321 9.97266 7.31258 9.97266H8.48446C9.87899 9.97266 10.6993 9.03516 10.9337 7.76953L11.6602 3.69141C12.047 1.30078 10.7813 0 8.34383 0C6.33993 0 5.09774 0.597656 3.77352 1.92188C1.24227 4.45312 -0.0116374 8.80078 8.13794e-05 13.2188ZM1.81649 13.2188C1.81649 9.23438 2.87118 5.29688 5.03914 3.1875C5.89461 2.36719 6.86727 1.88672 8.08602 1.88672C9.41024 1.88672 10.172 2.33203 9.89071 3.5625L9.14071 7.33594C9.05868 7.76953 8.77743 8.0625 8.27352 8.0625H6.92586C5.6368 8.0625 5.03914 8.85938 4.81649 9.98438C4.66414 10.7578 4.60555 11.9648 4.60555 13.2188C4.60555 14.4727 4.66414 15.6797 4.81649 16.4648C5.03914 17.5781 5.6368 18.375 6.92586 18.375H8.27352C8.77743 18.375 9.05868 18.668 9.14071 19.1016L9.89071 22.875C10.1602 24.082 9.43368 24.5508 8.08602 24.5508C6.86727 24.5508 5.89461 24.0703 5.03914 23.25C2.87118 21.1406 1.81649 17.2031 1.81649 13.2188Z" fill="#007AFF"/>
<path d="M11.0273 14.0508H17.332L19.793 13.9336L17.2383 16.2305L16.0078 17.4609C15.8437 17.625 15.75 17.8477 15.75 18.0938C15.75 18.5742 16.1015 18.9023 16.5586 18.9023C16.793 18.9023 17.0156 18.8086 17.1797 18.6445L21.9844 13.8398C22.1953 13.6406 22.3008 13.418 22.3008 13.2188C22.3008 13.0195 22.1953 12.7852 21.9844 12.5859L17.1797 7.79297C17.0156 7.62891 16.793 7.53516 16.5586 7.53516C16.1015 7.53516 15.75 7.86328 15.75 8.33203C15.75 8.58984 15.8437 8.80078 16.0078 8.96484L17.2383 10.207L19.793 12.4922L17.332 12.375H11.0273C10.5 12.375 10.1836 12.7852 10.1836 13.2188C10.1836 13.6523 10.5 14.0508 11.0273 14.0508Z" fill="black" fill-opacity="0.85"/>
</svg>
