<svg width="24" height="24" viewBox="0 0 24 24" fill="none" xmlns="http://www.w3.org/2000/svg">
<path d="M17.0391 23.004C19.0898 23.004 20.4375 22.4531 21.6211 21.1173C21.7148 21.0235 21.8086 20.918 21.8906 20.8242C22.5938 20.0392 22.9219 19.2656 22.9219 18.5273C22.9219 17.6836 22.4297 16.8984 21.3867 16.1719L17.9766 13.8047C16.9219 13.0781 15.6914 12.9961 14.707 13.9688L13.8047 14.8711C13.5352 15.1406 13.3008 15.1523 13.043 14.9883C12.4102 14.5898 11.1328 13.4766 10.2656 12.6094C9.35156 11.707 8.47266 10.6992 8.00391 9.96099C7.85156 9.69146 7.86328 9.4688 8.13281 9.19927L9.02344 8.29693C10.0078 7.31255 9.92578 6.07036 9.19922 5.02739L6.83203 1.61724C6.10547 0.574268 5.32031 0.0937988 4.47656 0.08208C3.73828 0.0703613 2.96484 0.410205 2.17969 1.11333C2.07422 1.20708 1.98047 1.28911 1.88672 1.37114C0.550781 2.56646 0 3.91411 0 5.94146C0 9.29302 2.0625 13.3712 5.84766 17.1562C9.60938 20.9181 13.6992 23.004 17.0391 23.004ZM17.0508 21.1992C14.0625 21.2578 10.2305 18.9609 7.19531 15.9375C4.13672 12.8906 1.73438 8.92974 1.79297 5.94146C1.81641 4.65239 2.27344 3.53911 3.1875 2.74224C3.26953 2.67193 3.32812 2.61333 3.41016 2.55474C3.76172 2.25005 4.13672 2.08599 4.47656 2.08599C4.81641 2.08599 5.12109 2.21489 5.34375 2.56646L7.61719 5.97661C7.86328 6.33989 7.88672 6.75005 7.52344 7.11333L6.49219 8.14458C5.68359 8.95317 5.74219 9.93755 6.32812 10.7227C6.99609 11.625 8.15625 12.9375 9.05859 13.8281C9.94922 14.7305 11.3672 15.9962 12.2812 16.6758C13.0664 17.2617 14.0508 17.3203 14.8594 16.5117L15.8906 15.4805C16.2539 15.1172 16.6523 15.1406 17.0273 15.375L20.4375 17.6484C20.7891 17.8828 20.918 18.1758 20.918 18.5273C20.918 18.8672 20.7539 19.2422 20.4492 19.5938C20.3789 19.6758 20.332 19.7344 20.2617 19.8165C19.4648 20.7306 18.3516 21.1758 17.0508 21.1992Z" fill="#007AFF"/>
<path d="M14.1094 9.80859C14.3438 9.80859 14.543 9.72656 14.7188 9.55078L19.7695 4.48828L21.5625 2.54297L21.3633 5.97656V7.72266C21.3633 8.17969 21.7148 8.53125 22.1719 8.55469C22.6406 8.57812 23.0391 8.20312 23.0391 7.72266V0.9375C23.0391 0.316406 22.7344 0 22.125 0H15.3164C14.8242 0 14.4492 0.398438 14.4727 0.878906C14.4961 1.33594 14.8477 1.67578 15.3164 1.67578H17.0859L20.5312 1.48828L18.5625 3.28125L13.5117 8.34375C13.3242 8.53125 13.2305 8.74219 13.2305 8.98828C13.2305 9.44531 13.6172 9.80859 14.1094 9.80859Z" fill="black" fill-opacity="0.85"/>
</svg>
