<svg width="47" height="17" viewBox="0 0 47 17" fill="none" xmlns="http://www.w3.org/2000/svg">
<path d="M0 8.33839C0 11.3735 1.10156 14.1743 3.04688 16.2954C3.49219 16.7876 4.14844 16.7876 4.52344 16.354C4.89844 15.9321 4.78125 15.3814 4.35938 14.9009C2.78906 13.1548 1.91016 10.8579 1.91016 8.33839C1.91016 5.81885 2.78906 3.52198 4.35938 1.77589C4.78125 1.29542 4.89844 0.744635 4.52344 0.32276C4.14844 -0.122552 3.49219 -0.110834 3.04688 0.381354C1.10156 2.49073 0 5.30323 0 8.33839ZM46.4297 8.33839C46.4297 5.30323 45.3398 2.49073 43.3945 0.381354C42.9375 -0.110834 42.2812 -0.122552 41.9062 0.32276C41.5312 0.744635 41.6484 1.29542 42.0703 1.77589C43.6406 3.52198 44.5195 5.81885 44.5195 8.33839C44.5195 10.8579 43.6406 13.1548 42.0703 14.9009C41.6484 15.3814 41.5312 15.9321 41.9062 16.354C42.2812 16.7876 42.9375 16.7876 43.3945 16.2954C45.3398 14.1743 46.4297 11.3735 46.4297 8.33839Z" fill="#007AFF"/>
<path d="M4.69922 8.3383C4.69922 10.0609 5.28516 11.6664 6.30469 12.932C6.71484 13.4594 7.41797 13.4477 7.80469 13.0141C8.17969 12.5922 8.02734 12.0648 7.65234 11.5609C6.94922 10.682 6.60938 9.55705 6.60938 8.3383C6.60938 7.10783 6.96094 5.97111 7.65234 5.11564C8.02734 4.61173 8.17969 4.08439 7.80469 3.66251C7.41797 3.2172 6.71484 3.2172 6.30469 3.74455C5.28516 5.01017 4.69922 6.61564 4.69922 8.3383ZM41.7422 8.3383C41.7422 6.61564 41.1445 5.01017 40.125 3.74455C39.7148 3.2172 39.0117 3.2172 38.625 3.66251C38.25 4.08439 38.4023 4.61173 38.7773 5.11564C39.4805 5.98283 39.832 7.11955 39.832 8.3383C39.832 9.55705 39.4805 10.682 38.7773 11.5609C38.4023 12.0648 38.25 12.5922 38.625 13.0141C39.0117 13.4477 39.7148 13.4594 40.125 12.932C41.1445 11.6664 41.7422 10.0609 41.7422 8.3383Z" fill="#007AFF"/>
<path d="M9.44544 9.19385C9.49232 10.1314 9.78529 10.9751 10.336 11.5376C10.7579 11.9478 11.3204 12.1939 11.9884 12.0767L16.336 11.3384C16.9923 11.2329 17.4493 11.0337 17.7423 10.7407C18.129 10.3657 18.2462 9.80323 18.2462 9.05323L18.2579 7.88135C18.2579 7.69385 18.3399 7.55323 18.4454 7.43604C18.5626 7.29542 18.7384 7.23682 18.8673 7.20167C19.6642 7.01417 21.2931 6.82667 23.2149 6.82667C25.1485 6.82667 26.7657 7.01417 27.5626 7.20167C27.6915 7.23682 27.8673 7.29542 27.9845 7.43604C28.1017 7.55323 28.1837 7.69385 28.1837 7.88135V9.05323C28.1837 9.80323 28.3009 10.3657 28.6876 10.7407C28.9806 11.0337 29.4376 11.2329 30.0939 11.3384L34.4415 12.0767C35.1095 12.1939 35.6837 11.9478 36.0939 11.5376C36.6446 10.9751 36.9376 10.1314 36.9845 9.19385C37.0548 7.61182 36.5157 6.31104 35.4376 5.24464C33.0587 2.86573 28.2892 1.79932 23.2149 1.7876C18.1407 1.79932 13.3712 2.86573 10.9923 5.24464C9.92591 6.31104 9.37513 7.61182 9.44544 9.19385Z" fill="black" fill-opacity="0.85"/>
</svg>
