<svg width="26" height="26" viewBox="0 0 26 26" fill="none" xmlns="http://www.w3.org/2000/svg">
<path d="M6.96094 25.8867C7.41797 25.8867 7.75781 25.6523 8.30859 25.1367L12.5391 21.2695H20.4609C23.9531 21.2695 25.8281 19.3477 25.8281 15.9141V6.9375C25.8281 3.50391 23.9531 1.57031 20.4609 1.57031H5.36719C1.875 1.57031 0 3.49219 0 6.9375V15.9141C0 19.3594 1.875 21.2695 5.36719 21.2695H5.91797V24.6797C5.91797 25.4062 6.29297 25.8867 6.96094 25.8867Z" fill="#FFCC00"/>
<path d="M9.98446 14.2383C7.16024 11.4258 5.36727 7.8398 7.50008 5.70699C7.53524 5.66012 7.58211 5.61324 7.66414 5.56637C8.47274 4.96871 9.21102 4.82808 9.71492 5.54293L11.2032 7.64058C11.7071 8.35543 11.5899 8.78902 11.0392 9.36324L10.5704 9.86715C10.4063 10.0312 10.4649 10.2422 10.547 10.3711C10.7813 10.7812 11.3673 11.5195 12.0353 12.1875C12.7267 12.8672 13.4181 13.4297 13.8399 13.6875C14.0157 13.7812 14.2501 13.8047 14.3907 13.6641L14.8595 13.1953C15.3985 12.6445 15.8673 12.5273 16.5821 13.0312C17.5665 13.7227 18.1524 14.1328 18.7267 14.5312C19.4298 15.0703 19.2774 15.8906 18.7267 16.5C18.6681 16.582 18.6095 16.6641 18.5274 16.7461C16.3946 18.8555 12.8087 17.0742 9.98446 14.2383Z" fill="black" fill-opacity="0.85"/>
</svg>
