<svg width="24" height="24" viewBox="0 0 24 24" fill="none" xmlns="http://www.w3.org/2000/svg">
<path d="M11.9531 23.9062C18.4922 23.9062 23.9062 18.4805 23.9062 11.9531C23.9062 5.41406 18.4805 0 11.9414 0C5.41406 0 0 5.41406 0 11.9531C0 18.4805 5.42578 23.9062 11.9531 23.9062ZM11.9531 21.9141C6.42188 21.9141 2.00391 17.4844 2.00391 11.9531C2.00391 6.42188 6.41016 1.99219 11.9414 1.99219C17.4727 1.99219 21.9141 6.42188 21.9141 11.9531C21.9141 17.4844 17.4844 21.9141 11.9531 21.9141Z" fill="#007AFF"/>
<path d="M9.0937 14.6953C11.8241 17.4375 15.3046 19.1719 17.3671 17.1211C17.4491 17.0391 17.5077 16.9688 17.5663 16.8867C18.1054 16.2891 18.246 15.5039 17.5663 14.9766C17.0272 14.5898 16.453 14.1797 15.4804 13.5117C14.8007 13.0312 14.3554 13.1484 13.828 13.6758L13.3593 14.1328C13.2304 14.2617 12.996 14.25 12.8437 14.1562C12.4218 13.9102 11.7421 13.3594 11.0858 12.7031C10.4413 12.0586 9.86714 11.332 9.63276 10.9453C9.55073 10.8164 9.50386 10.6055 9.6562 10.4531L10.1132 9.96097C10.6405 9.41019 10.7577 8.98831 10.2655 8.29691L8.82417 6.25784C8.33198 5.56644 7.61714 5.70706 6.83198 6.28128C6.77339 6.32815 6.72651 6.37503 6.67964 6.42191C4.60542 8.48441 6.36323 11.9648 9.0937 14.6953Z" fill="black" fill-opacity="0.85"/>
</svg>
