<svg width="29" height="30" viewBox="0 0 29 30" fill="none" xmlns="http://www.w3.org/2000/svg">
<path d="M8.41406 13.4766H19.9102C20.9531 13.4766 21.5625 12.8906 21.5625 11.8594V3.48047C21.5625 2.44922 20.9531 1.85156 19.9102 1.85156H8.41406C7.37109 1.85156 6.76172 2.44922 6.76172 3.48047V11.8594C6.76172 12.8906 7.37109 13.4766 8.41406 13.4766Z" fill="black" fill-opacity="0.85"/>
<path d="M6.63281 21.9727H21.7031C24.0352 21.9727 25.5703 20.4492 25.5703 18.1406V7.18359C25.5703 4.86328 24.0352 3.35156 21.7031 3.35156H6.63281C4.30078 3.35156 2.75391 4.86328 2.75391 7.18359V18.1406C2.75391 20.4492 4.30078 21.9727 6.63281 21.9727Z" fill="white"/>
<path d="M6.50391 20.3789H21.832C23.2031 20.3789 23.9766 19.6172 23.9766 18.2695V7.05469C23.9766 5.70703 23.2031 4.94531 21.832 4.94531H6.50391C5.13281 4.94531 4.34766 5.70703 4.34766 7.05469V18.2695C4.34766 19.6172 5.13281 20.3789 6.50391 20.3789Z" fill="black" fill-opacity="0.85"/>
<path d="M5.56641 29.6836H22.7578C26.25 29.6836 28.3242 27.6328 28.3242 24.1641V12.1289C28.3242 8.66015 26.25 6.60938 22.7578 6.60938H5.56641C2.07422 6.60938 0 8.66015 0 12.1289V24.1641C0 27.6328 2.07422 29.6836 5.56641 29.6836Z" fill="white"/>
<path d="M5.76562 25.6875C4.64062 25.6875 4.00781 25.0781 4.00781 23.9062V22.7695L6.76172 20.3672C7.23047 19.9688 7.66406 19.7461 8.15625 19.7461C8.68359 19.7461 9.17578 19.9688 9.63281 20.3789L11.5781 22.125L16.5 17.8008C17.0039 17.3438 17.5312 17.1562 18.1406 17.1562C18.7266 17.1562 19.3125 17.3672 19.7812 17.8125L24.3164 22.0781V23.9062C24.3164 25.0781 23.6719 25.6875 22.5703 25.6875H5.76562ZM5.56641 27.7969H22.7578C25.207 27.7969 26.4375 26.5781 26.4375 24.1641V12.1289C26.4375 9.71484 25.207 8.49609 22.7578 8.49609H5.56641C3.11719 8.49609 1.88672 9.71484 1.88672 12.1289V24.1641C1.88672 26.5781 3.11719 27.7969 5.56641 27.7969Z" fill="black" fill-opacity="0.85"/>
<path d="M10.6992 17.9883C9.2578 17.9883 8.10938 16.8047 8.10938 15.3867C8.10938 13.9805 9.2578 12.8203 10.6992 12.8203C12.1172 12.8203 13.2656 13.9805 13.2656 15.3867C13.2656 16.8047 12.1172 17.9883 10.6992 17.9883Z" fill="white"/>
</svg>
