<svg width="30" height="26" viewBox="0 0 30 26" fill="none" xmlns="http://www.w3.org/2000/svg">
<path d="M6.26992 20.9192L22.0316 18.1418C24.434 17.7082 25.4418 16.2903 25.0199 13.9231L23.098 3.03637C22.6879 0.657461 21.2582 -0.326914 18.8559 0.0949617L3.08242 2.87231C0.668356 3.3059 -0.327738 4.71215 0.0941375 7.09106L2.01601 17.9778C2.42617 20.3567 3.84414 21.3411 6.26992 20.9192ZM5.96523 19.0559C4.81679 19.2551 4.06679 18.7512 3.85586 17.5559L1.96914 6.8684C1.7582 5.66137 2.28554 4.93481 3.4457 4.72387L19.1488 1.95824C20.2855 1.77074 21.0473 2.26293 21.2582 3.45824L23.1449 14.1457C23.3676 15.3528 22.8168 16.0793 21.6801 16.2903L5.96523 19.0559Z" fill="#007AFF"/>
<path d="M10.1836 24.6106H26.2031C28.6406 24.6106 29.8711 23.3918 29.8711 20.9778V9.927C29.8711 7.51294 28.6406 6.29419 26.2031 6.29419H10.1836C7.73438 6.29419 6.51562 7.51294 6.51562 9.927V20.9778C6.51562 23.4036 7.73438 24.6106 10.1836 24.6106Z" fill="white"/>
<path d="M10.1836 24.6106H26.2031C28.6406 24.6106 29.8711 23.3918 29.8711 20.9778V9.927C29.8711 7.51294 28.6406 6.29419 26.2031 6.29419H10.1836C7.73438 6.29419 6.51562 7.51294 6.51562 9.927V20.9778C6.51562 23.4036 7.73438 24.6106 10.1836 24.6106ZM10.2187 22.7239C9.04688 22.7239 8.40235 22.1028 8.40235 20.884V10.0325C8.40235 8.81372 9.04688 8.18091 10.2187 8.18091H26.168C27.3281 8.18091 27.9844 8.81372 27.9844 10.0325V20.884C27.9844 22.1028 27.3281 22.7239 26.168 22.7239H10.2187ZM10.2305 23.9895H25.9101C27.9609 23.9895 29.039 22.9582 29.039 20.9075V20.1575L23.6133 15.0246C23.1562 14.6028 22.5937 14.3918 22.0195 14.3918C21.4453 14.3918 20.9297 14.5793 20.4375 15.0129L15.7031 19.2082L13.8281 17.509C13.3711 17.0989 12.9023 16.9114 12.3984 16.9114C11.9414 16.9114 11.4961 17.0989 11.0508 17.4856L7.10157 20.9192C7.10157 22.9582 8.19141 23.9895 10.2305 23.9895Z" fill="black" fill-opacity="0.85"/>
<path d="M14.8594 15.2825C16.2305 15.2825 17.3437 14.1457 17.3437 12.7746C17.3437 11.427 16.2305 10.2903 14.8594 10.2903C13.4883 10.2903 12.3867 11.427 12.3867 12.7746C12.3867 14.1457 13.4883 15.2825 14.8594 15.2825Z" fill="black" fill-opacity="0.85"/>
</svg>
