<svg width="28" height="22" viewBox="0 0 28 22" fill="none" xmlns="http://www.w3.org/2000/svg">
<path d="M0.9375 0C0.375 0 0 0.375 0 0.9375V20.6484C0 21.2109 0.375 21.5742 0.9375 21.5742H26.707C27.2695 21.5742 27.6328 21.2109 27.6328 20.6484V0.9375C27.6328 0.375 27.2695 0 26.707 0H0.9375ZM2.22656 1.88672H25.4062C25.6641 1.88672 25.7461 1.98047 25.7461 2.22656V19.3477C25.7461 19.6055 25.6641 19.6875 25.4062 19.6875H2.22656C1.98047 19.6875 1.88672 19.6055 1.88672 19.3477V2.22656C1.88672 1.98047 1.98047 1.88672 2.22656 1.88672Z" fill="black" fill-opacity="0.85"/>
<path d="M3.84375 3.15234C3.39844 3.15234 3.15234 3.39844 3.15234 3.83203V17.7539C3.15234 18.1758 3.39844 18.4336 3.84375 18.4336H23.8008C24.2344 18.4336 24.4922 18.1758 24.4922 17.7539V3.83203C24.4922 3.39844 24.2344 3.15234 23.8008 3.15234H3.84375ZM4.59375 4.33594H23.0391C23.2148 4.33594 23.3086 4.42969 23.3086 4.60547V16.9805C23.3086 17.1562 23.2148 17.25 23.0391 17.25H4.59375C4.41797 17.25 4.33594 17.1562 4.33594 16.9805V4.60547C4.33594 4.42969 4.41797 4.33594 4.59375 4.33594ZM23.6016 15.6797L18.1875 10.6172C17.7773 10.2305 17.3086 10.0547 16.8164 10.0547C16.3008 10.0547 15.8438 10.207 15.4336 10.5938L11.2969 14.2969L9.60938 12.7617C9.23438 12.4102 8.80078 12.2461 8.36719 12.2461C7.96875 12.2461 7.58203 12.4102 7.19531 12.75L3.71484 15.9023V16.8398C3.71484 17.5898 4.13672 17.9062 4.75781 17.9062H22.5469C23.1797 17.9062 23.6016 17.5898 23.6016 16.8398V15.6797Z" fill="#007AFF"/>
<path d="M9.80859 10.6992C10.9922 10.6992 11.9648 9.72656 11.9648 8.54297C11.9648 7.35938 10.9922 6.38672 9.80859 6.38672C8.625 6.38672 7.65234 7.35938 7.65234 8.54297C7.65234 9.72656 8.625 10.6992 9.80859 10.6992Z" fill="#007AFF"/>
</svg>
