<svg width="24" height="24" viewBox="0 0 24 24" fill="none" xmlns="http://www.w3.org/2000/svg">
<path d="M11.9531 23.9062C18.4922 23.9062 23.9062 18.4805 23.9062 11.9531C23.9062 5.41406 18.4805 0 11.9414 0C5.41406 0 0 5.41406 0 11.9531C0 18.4805 5.42578 23.9062 11.9531 23.9062ZM11.9531 21.9141C6.42188 21.9141 2.00391 17.4844 2.00391 11.9531C2.00391 6.42188 6.41016 1.99219 11.9414 1.99219C17.4727 1.99219 21.9141 6.42188 21.9141 11.9531C21.9141 17.4844 17.4844 21.9141 11.9531 21.9141Z" fill="#007AFF"/>
<path d="M5.49609 6.44531C5.17969 6.44531 4.96875 6.67969 4.96875 6.99609V16.9336C4.96875 17.25 5.17969 17.4727 5.49609 17.4727H18.3867C18.7148 17.4727 18.9258 17.25 18.9258 16.9336V6.99609C18.9258 6.67969 18.7148 6.44531 18.3867 6.44531H5.49609ZM5.91797 16.3828V7.53516C5.91797 7.44141 5.94141 7.42969 6.03516 7.42969H17.8477C17.9531 7.42969 17.9648 7.44141 17.9648 7.53516V16.3828C17.9648 16.4883 17.9531 16.5 17.8477 16.5H6.03516C5.94141 16.5 5.91797 16.4883 5.91797 16.3828ZM6.62109 15.375C6.62109 15.6445 6.78516 15.8086 7.04297 15.8086H16.8398C17.1094 15.8086 17.2617 15.6445 17.2617 15.375V8.54297C17.2617 8.28516 17.1094 8.12109 16.8398 8.12109H7.04297C6.78516 8.12109 6.62109 8.28516 6.62109 8.54297V15.375ZM7.37109 14.0156V8.91797C7.37109 8.87109 7.38281 8.87109 7.40625 8.87109H16.4766C16.5234 8.87109 16.5117 8.87109 16.5117 8.91797V14.0273L14.1445 11.8125C13.9336 11.625 13.6758 11.5195 13.418 11.5195C13.1367 11.5195 12.9023 11.6016 12.6797 11.7891L10.7109 13.5703L9.92578 12.8672C9.73828 12.6914 9.49219 12.5859 9.26953 12.5859C9.03516 12.5859 8.83594 12.6914 8.63672 12.8555L7.37109 14.0156ZM8.82422 10.8633C8.82422 11.4844 9.33984 12 9.97266 12C10.6055 12 11.1211 11.4844 11.1211 10.8633C11.1211 10.2188 10.6055 9.71484 9.97266 9.71484C9.33984 9.71484 8.82422 10.2188 8.82422 10.8633Z" fill="black" fill-opacity="0.85"/>
</svg>
