<svg width="24" height="24" viewBox="0 0 24 24" fill="none" xmlns="http://www.w3.org/2000/svg">
<path d="M11.9531 23.9062C18.4922 23.9062 23.9062 18.4805 23.9062 11.9531C23.9062 5.41406 18.4805 0 11.9414 0C5.41406 0 0 5.41406 0 11.9531C0 18.4805 5.42578 23.9062 11.9531 23.9062ZM11.9531 21.9141C6.42188 21.9141 2.00391 17.4844 2.00391 11.9531C2.00391 6.42188 6.41016 1.99219 11.9414 1.99219C17.4727 1.99219 21.9141 6.42188 21.9141 11.9531C21.9141 17.4844 17.4844 21.9141 11.9531 21.9141Z" fill="#007AFF"/>
<path d="M11.7769 12.0352L13.6988 10.1367C14.8473 9.01176 14.859 7.52348 13.7574 6.45707C12.6558 5.35551 11.191 5.37895 10.066 6.51566L8.16758 8.4141L11.7769 12.0352ZM11.109 12.7148L7.48789 9.09379L5.57773 11.0156C4.45273 12.1641 4.41758 13.6289 5.4957 14.7188C6.59727 15.7969 8.06211 15.7617 9.18711 14.6367L11.109 12.7148ZM18.773 14.2617C18.5621 12.7266 17.2262 11.5312 15.5973 11.5312C13.9918 11.5312 12.6558 12.7266 12.4332 14.2617H18.773ZM18.773 15.2109H12.4332C12.6558 16.7344 13.9918 17.9297 15.5973 17.9297C17.2379 17.9297 18.5621 16.7344 18.773 15.2109Z" fill="black" fill-opacity="0.85"/>
</svg>
