<svg width="24" height="24" viewBox="0 0 24 24" fill="none" xmlns="http://www.w3.org/2000/svg">
<path d="M11.9531 23.9062C18.4922 23.9062 23.9062 18.4805 23.9062 11.9531C23.9062 5.41406 18.4805 0 11.9414 0C5.41406 0 0 5.41406 0 11.9531C0 18.4805 5.42578 23.9062 11.9531 23.9062ZM11.9531 21.9141C6.42188 21.9141 2.00391 17.4844 2.00391 11.9531C2.00391 6.42188 6.41016 1.99219 11.9414 1.99219C17.4727 1.99219 21.9141 6.42188 21.9141 11.9531C21.9141 17.4844 17.4844 21.9141 11.9531 21.9141Z" fill="#007AFF"/>
<path d="M11.7779 12.0352L13.6998 10.1367C14.8483 9.01176 14.86 7.52348 13.7584 6.45707C12.6568 5.35551 11.192 5.37895 10.067 6.51566L8.16856 8.4141L11.7779 12.0352ZM11.11 12.7148L7.48887 9.09379L5.57871 11.0156C4.45371 12.1641 4.41856 13.6289 5.49668 14.7188C6.59825 15.7969 8.06309 15.7617 9.18809 14.6367L11.11 12.7148ZM18.774 14.2617C18.5631 12.7266 17.2272 11.5312 15.5983 11.5312C13.9928 11.5312 12.6568 12.7266 12.4342 14.2617H18.774ZM18.774 15.2109H12.4342C12.6568 16.7344 13.9928 17.9297 15.5983 17.9297C17.2389 17.9297 18.5631 16.7344 18.774 15.2109Z" fill="black" fill-opacity="0.85"/>
</svg>
