<svg width="28" height="25" viewBox="0 0 28 25" fill="none" xmlns="http://www.w3.org/2000/svg">
<path d="M27.6085 17.0273C27.1983 14.0508 24.6319 11.7422 21.5265 11.7422C18.421 11.7422 15.8663 14.0508 15.4561 17.0273H27.6085ZM27.6085 18.7383H15.4561C15.878 21.7266 18.421 24.0352 21.5265 24.0352C24.6554 24.0352 27.1983 21.7266 27.6085 18.7383Z" fill="black" fill-opacity="0.85"/>
<path d="M13.5344 12.7734L17.2141 9.09377C19.4055 6.91408 19.4406 4.08986 17.3547 2.01564C15.257 -0.0702918 12.4445 -0.011698 10.2766 2.15627L6.59687 5.83596L13.5344 12.7734ZM12.3039 14.0156L5.35468 7.06643L1.67499 10.7578C-0.516412 12.9375 -0.551569 15.7617 1.53437 17.8359C3.63202 19.9219 6.44452 19.875 8.61249 17.707L12.3039 14.0156Z" fill="black" fill-opacity="0.85"/>
</svg>
