<svg width="24" height="24" viewBox="0 0 24 24" fill="none" xmlns="http://www.w3.org/2000/svg">
<path d="M11.9531 23.918C18.4922 23.918 23.9062 18.5039 23.9062 11.9648C23.9062 5.4375 18.4805 0.0117188 11.9414 0.0117188C5.41406 0.0117188 0 5.4375 0 11.9648C0 18.5039 5.42578 23.918 11.9531 23.918Z" fill="#FFCC00"/>
<path d="M17.145 6.77356C18.5513 8.12121 18.5278 9.97278 17.0747 11.4142L14.5786 13.9103L10.0083 9.32824L12.4927 6.84387C13.9107 5.39074 15.7505 5.40246 17.145 6.77356ZM6.73874 17.1798C5.36765 15.8204 5.39108 13.9689 6.83249 12.5274L9.31687 10.0313L13.8872 14.5899L11.4028 17.086C9.97312 18.5157 8.12155 18.5392 6.73874 17.1798Z" fill="black" fill-opacity="0.85"/>
</svg>
