<svg width="26" height="29" viewBox="0 0 26 29" fill="none" xmlns="http://www.w3.org/2000/svg">
<path d="M4.2334 17.6367C4.2334 18.6328 4.90137 19.2891 5.95605 19.2891H12.3076V24.7617C12.3076 26.5547 13.0459 28.043 13.3389 28.043C13.6318 28.043 14.3701 26.5547 14.3701 24.7617V19.2891H20.71C21.7646 19.2891 22.4326 18.6328 22.4326 17.6367C22.4326 15.1641 20.4521 12.5508 17.1592 11.3555L16.7725 5.97656C18.4834 5.00391 19.8896 3.90234 20.499 3.11719C20.8154 2.71875 20.9561 2.32031 20.9561 1.96875C20.9561 1.25391 20.4053 0.726562 19.585 0.726562H7.09277C6.26074 0.726562 5.72168 1.25391 5.72168 1.96875C5.72168 2.32031 5.8623 2.71875 6.17871 3.11719C6.77637 3.90234 8.18262 5.00391 9.89355 5.97656L9.51855 11.3555C6.21387 12.5508 4.2334 15.1641 4.2334 17.6367Z" fill="#007AFF"/>
<path d="M0.65918 4.92188L21.8584 26.0977C22.749 26.9883 24.2021 26.9883 25.0811 26.0742C25.9482 25.1836 25.9482 23.7656 25.0693 22.8867L3.88184 1.71094C3.00293 0.820312 1.5498 0.820312 0.65918 1.71094C-0.219727 2.58984 -0.219727 4.05469 0.65918 4.92188Z" fill="white"/>
<path d="M1.63184 3.96096L22.8193 25.125C23.1826 25.4766 23.7568 25.4766 24.0967 25.125C24.4482 24.7734 24.46 24.1992 24.0967 23.8477L2.9209 2.68361C2.56934 2.33205 1.9834 2.32033 1.63184 2.68361C1.29199 3.02346 1.29199 3.6094 1.63184 3.96096Z" fill="black" fill-opacity="0.85"/>
</svg>
