<svg width="24" height="24" viewBox="0 0 24 24" fill="none" xmlns="http://www.w3.org/2000/svg">
<path d="M11.9531 23.9062C18.4922 23.9062 23.9062 18.4805 23.9062 11.9531C23.9062 5.41406 18.4805 0 11.9414 0C5.41406 0 0 5.41406 0 11.9531C0 18.4805 5.42578 23.9062 11.9531 23.9062ZM11.9531 21.9141C6.42188 21.9141 2.00391 17.4844 2.00391 11.9531C2.00391 6.42188 6.41016 1.99219 11.9414 1.99219C17.4727 1.99219 21.9141 6.42188 21.9141 11.9531C21.9141 17.4844 17.4844 21.9141 11.9531 21.9141Z" fill="#007AFF"/>
<path d="M7.33594 14.1797C7.33594 14.6953 7.66406 15.0117 8.19141 15.0117H11.2266V17.1094C11.2266 18.3867 11.7422 19.4414 11.9531 19.4414C12.1641 19.4414 12.6797 18.3867 12.6797 17.1094V15.0117H15.7031C16.2305 15.0117 16.5703 14.6953 16.5703 14.1797C16.5703 12.9375 15.5625 11.6016 13.8867 11.0039L13.6992 8.25C14.5547 7.76953 15.2578 7.21875 15.5625 6.82031C15.7266 6.60938 15.8086 6.39844 15.8086 6.21094C15.8086 5.84766 15.5273 5.58984 15.1055 5.58984H8.80078C8.37891 5.58984 8.09766 5.84766 8.09766 6.21094C8.09766 6.39844 8.17969 6.62109 8.35547 6.83203C8.66016 7.23047 9.36328 7.78125 10.207 8.25L10.0078 11.0039C8.34375 11.6016 7.33594 12.9375 7.33594 14.1797Z" fill="black" fill-opacity="0.85"/>
</svg>
