<svg width="26" height="29" viewBox="0 0 26 29" fill="none" xmlns="http://www.w3.org/2000/svg">
<path d="M13.3389 28.043C13.6318 28.043 14.3701 26.5547 14.3701 24.7617V18.3281H12.3076V24.7617C12.3076 26.5547 13.0459 28.043 13.3389 28.043ZM5.95605 19.2891H20.71C21.7646 19.2891 22.4326 18.6328 22.4326 17.6367C22.4326 14.1914 18.5889 10.7109 13.3389 10.7109C8.08887 10.7109 4.2334 14.1914 4.2334 17.6367C4.2334 18.6328 4.90137 19.2891 5.95605 19.2891ZM6.4248 17.5195C6.16699 17.5195 6.03809 17.3672 6.08496 17.0508C6.34277 14.9414 9.03809 12.4219 13.3389 12.4219C17.6279 12.4219 20.335 14.9414 20.5928 17.0508C20.6396 17.3672 20.5107 17.5195 20.2412 17.5195H6.4248ZM5.72168 1.96875C5.72168 2.30859 5.8623 2.70703 6.16699 3.10547C6.76465 3.90234 8.18262 5.00391 9.65918 5.97656L9.22559 12.1641H11.1006L11.5342 5.10938C11.5459 4.94531 11.5225 4.88672 11.4053 4.82812C9.64746 3.92578 8.28809 2.85938 8.19434 2.625C8.10059 2.47266 8.20605 2.37891 8.32324 2.37891H18.3428C18.4717 2.37891 18.5654 2.47266 18.4717 2.625C18.3779 2.85938 17.0303 3.92578 15.2607 4.82812C15.1553 4.88672 15.1318 4.94531 15.1436 5.10938L15.5654 12.1641H17.4404L17.0068 5.97656C18.4951 5.00391 19.9014 3.90234 20.5107 3.10547C20.8154 2.70703 20.9561 2.30859 20.9561 1.96875C20.9561 1.25391 20.4053 0.726562 19.585 0.726562H7.09277C6.26074 0.726562 5.72168 1.25391 5.72168 1.96875Z" fill="#007AFF"/>
<path d="M0.65918 4.92188L21.8584 26.0977C22.749 26.9883 24.2021 26.9883 25.0811 26.0742C25.9482 25.1836 25.9482 23.7656 25.0693 22.8867L3.88184 1.71094C3.00293 0.820312 1.5498 0.820312 0.65918 1.71094C-0.219727 2.58984 -0.219727 4.05469 0.65918 4.92188Z" fill="white"/>
<path d="M1.63184 3.96096L22.8193 25.125C23.1826 25.4766 23.7568 25.4766 24.0967 25.125C24.4482 24.7734 24.46 24.1992 24.0967 23.8477L2.9209 2.68361C2.56934 2.33205 1.9834 2.32033 1.63184 2.68361C1.29199 3.02346 1.29199 3.6094 1.63184 3.96096Z" fill="black" fill-opacity="0.85"/>
</svg>
