<svg width="24" height="24" viewBox="0 0 24 24" fill="none" xmlns="http://www.w3.org/2000/svg">
<path d="M11.9531 23.918C18.4922 23.918 23.9062 18.5039 23.9062 11.9648C23.9062 5.4375 18.4805 0.0117188 11.9414 0.0117188C5.41406 0.0117188 0 5.4375 0 11.9648C0 18.5039 5.42578 23.918 11.9531 23.918Z" fill="#FFCC00"/>
<path d="M7.20703 14.25C7.20703 12.9609 8.23828 11.5781 9.96094 10.9688L10.1602 8.13281C9.29297 7.64062 8.56641 7.07812 8.25 6.66797C8.07422 6.44531 7.98047 6.22266 7.98047 6.02344C7.98047 5.64844 8.27344 5.37891 8.70703 5.37891H15.2227C15.6562 5.37891 15.9492 5.64844 15.9492 6.02344C15.9492 6.22266 15.8555 6.44531 15.6914 6.65625C15.375 7.06641 14.6484 7.64062 13.7695 8.13281L13.957 10.9688C15.6914 11.5781 16.7227 12.9609 16.7227 14.25C16.7227 14.7773 16.3711 15.1172 15.832 15.1172H12.7148V17.2617C12.7148 18.5742 12.1875 19.6758 11.9648 19.6758C11.7422 19.6758 11.2148 18.5742 11.2148 17.2617V15.1172H8.08594C7.54688 15.1172 7.20703 14.7773 7.20703 14.25Z" fill="black" fill-opacity="0.85"/>
</svg>
