<svg width="22" height="22" viewBox="0 0 22 22" fill="none" xmlns="http://www.w3.org/2000/svg">
<path d="M3.67969 21.5977H17.8945C20.3555 21.5977 21.5742 20.3789 21.5742 17.9648V3.65625C21.5742 1.24219 20.3555 0.0234375 17.8945 0.0234375H3.67969C1.23047 0.0234375 0 1.23047 0 3.65625V17.9648C0 20.3906 1.23047 21.5977 3.67969 21.5977Z" fill="#FFCC00"/>
<path d="M6.04688 13.0664C6.04688 11.7891 7.07812 10.4062 8.8125 9.79688L9 6.96094C8.13281 6.46875 7.41797 5.90625 7.08984 5.49609C6.91406 5.27344 6.82031 5.05078 6.82031 4.85156C6.82031 4.47656 7.11328 4.20703 7.54688 4.20703H14.0625C14.4961 4.20703 14.7891 4.47656 14.7891 4.85156C14.7891 5.05078 14.6953 5.26172 14.543 5.48438C14.2148 5.89453 13.4883 6.45703 12.6094 6.96094L12.8086 9.79688C14.5312 10.4062 15.5625 11.7891 15.5625 13.0664C15.5625 13.6055 15.2227 13.9336 14.6719 13.9336H11.5547V16.0898C11.5547 17.4023 11.0273 18.4922 10.8047 18.4922C10.582 18.4922 10.0547 17.4023 10.0547 16.0898V13.9336H6.9375C6.39844 13.9336 6.04688 13.6055 6.04688 13.0664Z" fill="black" fill-opacity="0.85"/>
</svg>
