<svg width="16" height="25" viewBox="0 0 16 25" fill="none" xmlns="http://www.w3.org/2000/svg">
<path d="M0 21.7617C0 23.5898 1.27734 24.8086 3.1875 24.8086H11.8711C13.7812 24.8086 15.0586 23.5898 15.0586 21.7617V3.04688C15.0586 1.21875 13.7812 0 11.8711 0H3.1875C1.27734 0 0 1.21875 0 3.04688V21.7617ZM1.88672 21.457V3.35156C1.88672 2.41406 2.4375 1.88672 3.43359 1.88672H11.6367C12.6211 1.88672 13.1719 2.41406 13.1719 3.35156V21.457C13.1719 22.3945 12.6211 22.9219 11.6367 22.9219H3.43359C2.4375 22.9219 1.88672 22.3945 1.88672 21.457Z" fill="#007AFF"/>
<path d="M4.42969 21.4336H10.6406C11.2617 21.4336 11.6836 21.0118 11.6836 20.3673V18.9727C11.6836 18.3164 11.2617 17.9062 10.6406 17.9062H4.42969C3.79688 17.9062 3.38672 18.3164 3.38672 18.9727V20.3673C3.38672 21.0118 3.79688 21.4336 4.42969 21.4336Z" fill="black" fill-opacity="0.85"/>
</svg>
