<svg width="20" height="27" viewBox="0 0 20 27" fill="none" xmlns="http://www.w3.org/2000/svg">
<path d="M3.24609 26.4023H16.3359C18.2812 26.4023 19.582 25.1602 19.582 23.3086V3.10547C19.582 1.25391 18.2812 0 16.3359 0H3.24609C1.30078 0 0 1.25391 0 3.10547V23.3086C0 25.1602 1.30078 26.4023 3.24609 26.4023ZM3.48047 24.5156C2.47266 24.5156 1.88672 23.9531 1.88672 22.9922V3.42188C1.88672 2.46094 2.47266 1.88672 3.48047 1.88672H16.1016C17.0977 1.88672 17.6953 2.46094 17.6953 3.42188V22.9922C17.6953 23.9531 17.0977 24.5156 16.1016 24.5156H3.48047Z" fill="#007AFF"/>
<path d="M5.29688 10.793H14.2969C14.918 10.793 15.3398 10.3828 15.3398 9.72656V7.19531C15.3398 6.53906 14.918 6.12891 14.2969 6.12891H5.29688C4.67578 6.12891 4.25391 6.53906 4.25391 7.19531V9.72656C4.25391 10.3828 4.67578 10.793 5.29688 10.793ZM5.29688 20.25H14.2969C14.918 20.25 15.3398 19.8281 15.3398 19.1836V16.6406C15.3398 15.9961 14.918 15.5742 14.2969 15.5742H5.29688C4.67578 15.5742 4.25391 15.9961 4.25391 16.6406V19.1836C4.25391 19.8281 4.67578 20.25 5.29688 20.25Z" fill="black" fill-opacity="0.85"/>
</svg>
