<svg width="21" height="23" viewBox="0 0 21 23" fill="none" xmlns="http://www.w3.org/2000/svg">
<path d="M5.26172 22.418H14.1914C17.4844 22.418 19.4531 20.4141 19.4531 17.0625V5.37891C19.4531 2.02734 17.4844 0.0351562 14.1914 0.0351562H5.26172C1.96875 0.0351562 0 2.02734 0 5.37891V17.0625C0 20.4141 1.96875 22.418 5.26172 22.418ZM5.17969 20.5312C3.11719 20.5312 1.88672 19.2773 1.88672 17.1445V5.35547C1.88672 3.23438 3.11719 1.98047 5.17969 1.98047H14.2734C16.3477 1.98047 17.5664 3.23438 17.5664 5.35547V17.1445C17.5664 19.2773 16.3477 20.5312 14.2734 20.5312H5.17969ZM19.2422 9.99609H19.7695C20.5195 9.99609 21 9.48047 21 8.67188V6.71484C21 5.88281 20.5195 5.36719 19.7695 5.36719H19.2422V9.99609Z" fill="#007AFF"/>
<path d="M3.44531 17.2969C3.44531 18.3281 4.04297 18.9609 5.02734 18.9609H14.4375C15.4102 18.9609 16.0078 18.3281 16.0078 17.2969V15.2344C16.0078 14.2266 15.3867 13.5586 14.4375 13.5586H5.02734C4.06641 13.5586 3.44531 14.2266 3.44531 15.2344V17.2969Z" fill="black" fill-opacity="0.85"/>
</svg>
