<svg width="28" height="22" viewBox="0 0 28 22" fill="none" xmlns="http://www.w3.org/2000/svg">
<path d="M3.67969 21.5977H23.9531C26.4141 21.5977 27.6328 20.3789 27.6328 17.9648V3.65625C27.6328 1.24219 26.4141 0.0234375 23.9531 0.0234375H3.67969C1.23047 0.0234375 0 1.23047 0 3.65625V17.9648C0 20.3906 1.23047 21.5977 3.67969 21.5977ZM3.70312 19.7109C2.53125 19.7109 1.88672 19.0898 1.88672 17.8711V3.75C1.88672 2.53125 2.53125 1.91016 3.70312 1.91016H23.9297C25.0898 1.91016 25.7461 2.53125 25.7461 3.75V17.8711C25.7461 19.0898 25.0898 19.7109 23.9297 19.7109H3.70312Z" fill="#007AFF"/>
<path d="M5.15625 13.5938H11.625C12.2461 13.5938 12.668 13.1719 12.668 12.5273V9.09375C12.668 8.4375 12.2461 8.02734 11.625 8.02734H5.15625C4.52344 8.02734 4.11328 8.4375 4.11328 9.09375V12.5273C4.11328 13.1719 4.52344 13.5938 5.15625 13.5938ZM15.7734 13.5938H22.2539C22.875 13.5938 23.2969 13.1719 23.2969 12.5273V9.09375C23.2969 8.4375 22.875 8.02734 22.2539 8.02734H15.7734C15.1523 8.02734 14.7305 8.4375 14.7305 9.09375V12.5273C14.7305 13.1719 15.1523 13.5938 15.7734 13.5938Z" fill="black" fill-opacity="0.85"/>
</svg>
