<svg width="30" height="23" viewBox="0 0 30 23" fill="none" xmlns="http://www.w3.org/2000/svg">
<path d="M11.0853 0C13.1361 0.457031 16.0541 1.33594 17.6713 1.875C21.7494 3.23438 23.1908 4.98047 23.1908 8.90625C23.1908 11.7656 21.8549 13.2773 19.8978 13.2773C19.2416 13.2773 18.515 13.0898 17.7533 12.7383V5.61328C17.7533 4.80469 17.6713 4.08984 16.8744 3.83203C16.2181 3.62109 15.89 4.19531 15.89 4.98047V22.875L11.0853 21.3633V0ZM16.7806 19.7695V22.5117L26.6009 19.0195C28.0658 18.4922 28.9799 17.9883 29.3197 17.5312C29.8588 16.8281 29.6127 15.7266 27.4916 14.9883C25.3119 14.25 22.7338 13.9922 20.683 14.1562C19.4174 14.2617 17.8939 14.6602 16.7806 15.0352V17.9883L21.9486 16.1133C22.8158 15.7969 24.0345 15.7734 24.7845 16.0195C25.4994 16.2656 25.4291 16.6641 24.515 16.9922L16.7806 19.7695ZM1.76891 19.2656C3.93688 20.0391 6.70251 20.6602 10.1127 19.9336V17.4492L7.83923 18.2812C6.90173 18.6328 5.39001 18.6914 4.86266 18.5039C4.11266 18.2578 4.26501 17.7656 5.2611 17.4023L10.1127 15.668V12.9141L3.45641 15.3164C2.55407 15.6562 1.66345 15.9023 0.632196 16.6055C-0.492804 17.3672 -0.117804 18.5977 1.76891 19.2656Z" fill="black" fill-opacity="0.85"/>
</svg>
