<svg width="24" height="24" viewBox="0 0 24 24" fill="none" xmlns="http://www.w3.org/2000/svg">
<path d="M11.9531 23.9062C18.4922 23.9062 23.9062 18.4805 23.9062 11.9531C23.9062 5.41406 18.4805 0 11.9414 0C5.41406 0 0 5.41406 0 11.9531C0 18.4805 5.42578 23.9062 11.9531 23.9062Z" fill="#FFCC00"/>
<path d="M5.42578 16.5001C4.88672 16.8399 4.25391 16.5704 4.25391 15.9962V7.93366C4.25391 7.37116 4.92188 7.10163 5.42578 7.41804L11.4492 11.3439C11.918 11.6485 11.918 12.2696 11.4492 12.5978L5.42578 16.5001ZM13.5234 16.4884C12.9492 16.4884 12.6797 16.172 12.6797 15.7267V8.17976C12.6797 7.72273 12.9492 7.41804 13.5234 7.41804H14.6602C15.2344 7.41804 15.4922 7.72273 15.4922 8.17976V15.7267C15.4922 16.172 15.2344 16.4884 14.6602 16.4884H13.5234ZM17.7188 16.4884C17.1445 16.4884 16.8633 16.172 16.8633 15.7267V8.17976C16.8633 7.72273 17.1445 7.41804 17.7188 7.41804H18.8555C19.4062 7.41804 19.6758 7.72273 19.6758 8.17976V15.7267C19.6758 16.172 19.4062 16.4884 18.8555 16.4884H17.7188Z" fill="black" fill-opacity="0.85"/>
</svg>
