<svg width="30" height="25" viewBox="0 0 30 25" fill="none" xmlns="http://www.w3.org/2000/svg">
<path d="M3.01172 20.1328H26.2852C28.2891 20.1328 29.2969 19.1602 29.2969 17.1211V3.69141C29.2969 1.65234 28.2891 0.679688 26.2852 0.679688H3.01172C1.01953 0.679688 0 1.65234 0 3.69141V17.1211C0 19.1602 1.01953 20.1328 3.01172 20.1328ZM8.75391 24.1055H20.543C21.0586 24.1055 21.4922 23.6836 21.4922 23.1562C21.4922 22.6289 21.0586 22.207 20.543 22.207H8.75391C8.23828 22.207 7.80469 22.6289 7.80469 23.1562C7.80469 23.6836 8.23828 24.1055 8.75391 24.1055Z" fill="#FFCC00"/>
<path d="M10.7109 15.3634V5.44927C10.7109 4.81646 11.3789 4.5938 11.8828 4.88677L20.0039 9.66802C20.5781 10.0079 20.6016 10.8048 20.0156 11.1446L11.8828 15.9376C11.3789 16.2306 10.7109 15.9962 10.7109 15.3634Z" fill="black" fill-opacity="0.85"/>
</svg>
