<svg width="22" height="24" viewBox="0 0 22 24" fill="none" xmlns="http://www.w3.org/2000/svg">
<path d="M5.28906 21.5903C5.75781 21.5903 6.15624 21.4028 6.62499 21.1333L20.2891 13.2349C21.2617 12.6607 21.6016 12.2857 21.6016 11.6646C21.6016 11.0435 21.2617 10.6685 20.2891 10.106L6.62499 2.1958C6.15624 1.92627 5.75781 1.75049 5.28906 1.75049C4.42187 1.75049 3.88281 2.40674 3.88281 3.42627V19.9028C3.88281 20.9224 4.42187 21.5903 5.28906 21.5903ZM5.88671 19.3521C5.8164 19.3521 5.76952 19.3052 5.76952 19.2114V4.11767C5.76952 4.02392 5.8164 3.97705 5.88671 3.97705C5.93359 3.97705 5.98046 4.00049 6.02734 4.03564L19 11.5357C19.0586 11.5708 19.1055 11.606 19.1055 11.6646C19.1055 11.7232 19.0586 11.77 19 11.7935L6.02734 19.3052C5.98046 19.3286 5.93359 19.3521 5.88671 19.3521Z" fill="#007AFF"/>
<path d="M18.0029 21.2036C18.9053 22.0942 20.3584 22.0942 21.2256 21.1802C22.0928 20.2896 22.0928 18.8716 21.2139 17.9927L3.88184 0.67237C3.00293 -0.218255 1.5498 -0.229973 0.65918 0.67237C-0.219727 1.53956 -0.219727 3.0044 0.65918 3.88331L18.0029 21.2036Z" fill="white"/>
<path d="M18.9756 20.231C19.3271 20.5825 19.9131 20.5825 20.2529 20.231C20.5928 19.8794 20.6045 19.3052 20.2529 18.9536L2.9209 1.6333C2.56934 1.28174 1.9834 1.28174 1.63184 1.6333C1.29199 1.97314 1.29199 2.5708 1.63184 2.91064L18.9756 20.231Z" fill="black" fill-opacity="0.85"/>
</svg>
