<svg width="15" height="20" viewBox="0 0 15 20" fill="none" xmlns="http://www.w3.org/2000/svg">
<path d="M0 6.85547C0 7.42969 0.46875 7.89844 1.04297 7.89844H6.04688V12.7266C6.04688 13.2891 6.51562 13.7461 7.08984 13.7461C7.66406 13.7461 8.14453 13.2891 8.14453 12.7266V7.89844H13.1484C13.7227 7.89844 14.1914 7.42969 14.1914 6.85547C14.1914 6.28125 13.7227 5.80078 13.1484 5.80078H8.14453V1.03125C8.14453 0.457031 7.66406 0 7.08984 0C6.51562 0 6.04688 0.457031 6.04688 1.03125V5.80078H1.04297C0.46875 5.80078 0 6.28125 0 6.85547ZM0 18.5273C0 19.1133 0.480469 19.582 1.04297 19.582H13.1484C13.7109 19.582 14.1914 19.1133 14.1914 18.5273C14.1914 17.9531 13.7109 17.4844 13.1484 17.4844H1.04297C0.480469 17.4844 0 17.9531 0 18.5273Z" fill="black" fill-opacity="0.85"/>
</svg>
