<svg width="24" height="24" viewBox="0 0 24 24" fill="none" xmlns="http://www.w3.org/2000/svg">
<path d="M11.9531 23.918C18.4922 23.918 23.9062 18.5039 23.9062 11.9648C23.9062 5.4375 18.4805 0.0117188 11.9414 0.0117188C5.41406 0.0117188 0 5.4375 0 11.9648C0 18.5039 5.42578 23.918 11.9531 23.918Z" fill="#FFCC00"/>
<path d="M8.60156 10.5C8.13281 10.5 7.75781 10.1133 7.75781 9.65625C7.75781 9.19922 8.13281 8.8125 8.60156 8.8125H11.1328V6.26953C11.1328 5.82422 11.5195 5.4375 11.9766 5.4375C12.4336 5.4375 12.832 5.8125 12.832 6.26953V8.8125H15.3398C15.7969 8.8125 16.1836 9.19922 16.1836 9.65625C16.1836 10.1133 15.7969 10.5 15.3398 10.5H12.832V13.0312C12.832 13.4883 12.4336 13.875 11.9766 13.875C11.5195 13.875 11.1328 13.4766 11.1328 13.0312V10.5H8.60156ZM8.61328 17.7188C8.13281 17.7188 7.75781 17.3086 7.75781 16.8867C7.75781 16.4297 8.13281 16.0312 8.61328 16.0312H15.3281C15.7969 16.0312 16.1836 16.4297 16.1836 16.8867C16.1836 17.3086 15.7969 17.7188 15.3281 17.7188H8.61328Z" fill="black" fill-opacity="0.85"/>
</svg>
