<svg width="32" height="25" viewBox="0 0 32 25" fill="none" xmlns="http://www.w3.org/2000/svg">
<path d="M3.67969 22.6875H23.2852C25.3828 22.6875 26.6133 21.4688 26.6133 19.0547V7.01953C26.6133 4.60547 25.3711 3.38672 22.9336 3.38672H11.6836C10.8867 3.38672 10.4062 3.19922 9.82031 2.69531L9.10547 2.10938C8.33203 1.45312 7.73438 1.24219 6.57422 1.24219H3.23438C1.18359 1.24219 0 2.41406 0 4.76953V19.0547C0 21.4805 1.23047 22.6875 3.67969 22.6875ZM3.70312 20.8008C2.53125 20.8008 1.88672 20.1797 1.88672 18.9609V4.875C1.88672 3.71484 2.49609 3.11719 3.62109 3.11719H6.09375C6.86719 3.11719 7.33594 3.31641 7.93359 3.82031L8.64844 4.41797C9.41016 5.05078 10.0312 5.27344 11.1914 5.27344H22.8984C24.0586 5.27344 24.7266 5.90625 24.7266 7.125V18.9727C24.7266 20.1797 24.0586 20.8008 22.8984 20.8008H3.70312ZM1.14844 9.5625H25.4531V7.79297H1.14844V9.5625Z" fill="#007AFF"/>
<path d="M17.8945 14.2148H27.9609C30.4102 14.2148 31.6406 12.9961 31.6406 10.582V3.63281C31.6406 1.20703 30.4102 0 27.9609 0H17.8945C15.4453 0 14.2266 1.20703 14.2266 3.63281V10.582C14.2266 12.9961 15.4453 14.2148 17.8945 14.2148Z" fill="white"/>
<path d="M17.8945 14.2148H27.9609C30.4102 14.2148 31.6406 12.9961 31.6406 10.582V3.63281C31.6406 1.20703 30.4102 0 27.9609 0H17.8945C15.4453 0 14.2266 1.20703 14.2266 3.63281V10.582C14.2266 12.9961 15.4453 14.2148 17.8945 14.2148ZM17.8359 12.4453C16.6523 12.4453 15.9961 11.8125 15.9961 10.5703V3.63281C15.9961 2.40234 16.6523 1.76953 17.8359 1.76953H28.0312C29.2031 1.76953 29.8711 2.40234 29.8711 3.63281V10.5703C29.8711 11.8125 29.2031 12.4453 28.0547 12.4453H17.8359Z" fill="black" fill-opacity="0.85"/>
<path d="M22.9336 10.8516C23.3672 10.8516 23.6484 10.5703 23.6484 10.1367V7.85156H25.9336C26.3672 7.85156 26.6602 7.57031 26.6602 7.125C26.6602 6.69141 26.3672 6.41016 25.9336 6.41016H23.6484V4.125C23.6484 3.69141 23.3672 3.39844 22.9336 3.39844C22.5 3.39844 22.2188 3.69141 22.2188 4.125V6.41016H19.9219C19.5 6.41016 19.207 6.69141 19.207 7.125C19.207 7.57031 19.5 7.85156 19.9219 7.85156H22.2188V10.1367C22.2188 10.5703 22.5 10.8516 22.9336 10.8516Z" fill="black" fill-opacity="0.85"/>
</svg>
