<svg width="24" height="24" viewBox="0 0 24 24" fill="none" xmlns="http://www.w3.org/2000/svg">
<path d="M11.9531 23.9062C18.4922 23.9062 23.9062 18.4805 23.9062 11.9531C23.9062 5.41406 18.4805 0 11.9414 0C5.41406 0 0 5.41406 0 11.9531C0 18.4805 5.42578 23.9062 11.9531 23.9062ZM11.9531 21.9141C6.42188 21.9141 2.00391 17.4844 2.00391 11.9531C2.00391 6.42188 6.41016 1.99219 11.9414 1.99219C17.4727 1.99219 21.9141 6.42188 21.9141 11.9531C21.9141 17.4844 17.4844 21.9141 11.9531 21.9141Z" fill="#007AFF"/>
<path d="M7.875 9.70312C7.875 10.1484 8.23828 10.5117 8.69531 10.5117H11.1562V12.9727C11.1562 13.4062 11.5195 13.7812 11.9648 13.7812C12.4102 13.7812 12.7852 13.4062 12.7852 12.9727V10.5117H15.2227C15.668 10.5117 16.043 10.1484 16.043 9.70312C16.043 9.25781 15.668 8.88281 15.2227 8.88281H12.7852V6.42188C12.7852 5.97656 12.4102 5.61328 11.9648 5.61328C11.5195 5.61328 11.1562 5.97656 11.1562 6.42188V8.88281H8.69531C8.23828 8.88281 7.875 9.25781 7.875 9.70312ZM7.875 16.6992C7.875 17.1094 8.23828 17.5195 8.70703 17.5195H15.2109C15.668 17.5195 16.043 17.1094 16.043 16.6992C16.043 16.2656 15.668 15.8906 15.2109 15.8906H8.70703C8.23828 15.8906 7.875 16.2656 7.875 16.6992Z" fill="black" fill-opacity="0.85"/>
</svg>
