<svg width="28" height="22" viewBox="0 0 28 22" fill="none" xmlns="http://www.w3.org/2000/svg">
<path d="M3.67969 21.5742H23.9531C26.4141 21.5742 27.6328 20.3672 27.6328 17.9531V3.63281C27.6328 1.21875 26.4141 0 23.9531 0H3.67969C1.23047 0 0 1.21875 0 3.63281V17.9531C0 20.3672 1.23047 21.5742 3.67969 21.5742Z" fill="#FFCC00"/>
<path d="M8.09766 10.8047C8.09766 10.1953 8.53125 9.77344 9.14062 9.77344H12.8086V6.10547C12.8086 5.49609 13.2188 5.0625 13.8047 5.0625C14.4258 5.0625 14.8477 5.49609 14.8477 6.10547V9.77344H18.5156C19.125 9.77344 19.5469 10.1953 19.5469 10.8047C19.5469 11.4023 19.125 11.8008 18.5156 11.8008H14.8477V15.4805C14.8477 16.0898 14.4258 16.5117 13.8047 16.5117C13.2188 16.5117 12.8086 16.0781 12.8086 15.4805V11.8008H9.14062C8.53125 11.8008 8.09766 11.4023 8.09766 10.8047Z" fill="black" fill-opacity="0.85"/>
</svg>
