<svg width="20" height="20" viewBox="0 0 20 20" fill="none" xmlns="http://www.w3.org/2000/svg">
<path d="M0 9.66797C0 10.2422 0.480469 10.7109 1.04297 10.7109H8.625V18.293C8.625 18.8555 9.09375 19.3359 9.66797 19.3359C10.2422 19.3359 10.7227 18.8555 10.7227 18.293V10.7109H18.293C18.8555 10.7109 19.3359 10.2422 19.3359 9.66797C19.3359 9.09375 18.8555 8.61328 18.293 8.61328H10.7227V1.04297C10.7227 0.480469 10.2422 0 9.66797 0C9.09375 0 8.625 0.480469 8.625 1.04297V8.61328H1.04297C0.480469 8.61328 0 9.09375 0 9.66797Z" fill="black" fill-opacity="0.85"/>
</svg>
