<svg width="22" height="22" viewBox="0 0 22 22" fill="none" xmlns="http://www.w3.org/2000/svg">
<path d="M3.67969 21.5977H17.8945C20.3555 21.5977 21.5742 20.3789 21.5742 17.9648V3.65625C21.5742 1.24219 20.3555 0.0234375 17.8945 0.0234375H3.67969C1.23047 0.0234375 0 1.23047 0 3.65625V17.9648C0 20.3906 1.23047 21.5977 3.67969 21.5977ZM3.70312 19.7109C2.53125 19.7109 1.88672 19.0898 1.88672 17.8711V3.75C1.88672 2.53125 2.53125 1.91016 3.70312 1.91016H17.8711C19.0312 1.91016 19.6875 2.53125 19.6875 3.75V17.8711C19.6875 19.0898 19.0312 19.7109 17.8711 19.7109H3.70312Z" fill="#007AFF"/>
<path d="M6.53906 15.4102H10.4883C10.8281 15.4102 11.0859 15.1523 11.0859 14.8242C11.0859 14.4844 10.8281 14.2383 10.4883 14.2383H7.78125V14.1328L10.7695 9.32812C10.9219 9.08203 11.0156 8.88281 11.0156 8.63672C11.0156 8.21484 10.6992 7.93359 10.2422 7.93359H6.46875C6.11719 7.93359 5.85938 8.17969 5.85938 8.50781C5.85938 8.84766 6.11719 9.10547 6.46875 9.10547H9.29296V9.23438L6.08203 14.1797C5.94141 14.4023 5.85938 14.5664 5.85938 14.8242C5.85938 15.1641 6.15234 15.4102 6.53906 15.4102ZM13.6641 15.5391C14.1328 15.5391 14.4375 15.2109 14.4375 14.7305V10.4766L15.457 9.9375C16.2773 9.50391 15.7148 8.42578 14.9414 8.82422L14.4375 9.09375V5.67188C14.4375 5.17969 14.1328 4.85156 13.6641 4.85156C13.207 4.85156 12.8906 5.17969 12.8906 5.67188V9.90234L12.0586 10.3594C11.2617 10.7695 11.7891 11.8594 12.6211 11.4375L12.8906 11.2734V14.7305C12.8906 15.2109 13.207 15.5391 13.6641 15.5391Z" fill="black" fill-opacity="0.85"/>
</svg>
