<svg width="24" height="24" viewBox="0 0 24 24" fill="none" xmlns="http://www.w3.org/2000/svg">
<path d="M11.9531 23.9062C18.4922 23.9062 23.9062 18.4805 23.9062 11.9531C23.9062 5.41406 18.4805 0 11.9414 0C5.41406 0 0 5.41406 0 11.9531C0 18.4805 5.42578 23.9062 11.9531 23.9062ZM11.9531 21.9141C6.42188 21.9141 2.00391 17.4844 2.00391 11.9531C2.00391 6.42188 6.41016 1.99219 11.9414 1.99219C17.4727 1.99219 21.9141 6.42188 21.9141 11.9531C21.9141 17.4844 17.4844 21.9141 11.9531 21.9141Z" fill="#007AFF"/>
<path d="M7.6875 16.5703H11.6367C11.9766 16.5703 12.2344 16.3125 12.2344 15.9844C12.2344 15.6445 11.9766 15.3984 11.6367 15.3984H8.91797V15.293L11.918 10.4883C12.0703 10.2422 12.1641 10.043 12.1641 9.79688C12.1641 9.375 11.8359 9.09375 11.3906 9.09375H7.61719C7.26562 9.09375 7.00781 9.33984 7.00781 9.66797C7.00781 10.0078 7.26562 10.2656 7.61719 10.2656H10.4414V10.3945L7.23047 15.3398C7.08984 15.5625 7.00781 15.7266 7.00781 15.9844C7.00781 16.3242 7.28906 16.5703 7.6875 16.5703ZM14.8125 16.6992C15.2812 16.6992 15.5859 16.3711 15.5859 15.8906V11.6367L16.6055 11.0977C17.4258 10.6641 16.8633 9.58594 16.0781 9.98438L15.5859 10.2539V6.83203C15.5859 6.33984 15.2812 6.01172 14.8125 6.01172C14.3555 6.01172 14.0391 6.33984 14.0391 6.83203V11.0625L13.207 11.5195C12.4102 11.9297 12.9258 13.0195 13.7578 12.5977L14.0391 12.4336V15.8906C14.0391 16.3711 14.3555 16.6992 14.8125 16.6992Z" fill="black" fill-opacity="0.85"/>
</svg>
