<svg width="19" height="22" viewBox="0 0 19 22" fill="none" xmlns="http://www.w3.org/2000/svg">
<path d="M1.08984 20.9414H9.32812C9.84375 20.9414 10.2656 20.5312 10.2656 20.0156C10.2656 19.5 9.84375 19.0781 9.32812 19.0781H2.75391V18.9375L9.86719 8.27344C10.0664 7.96875 10.1836 7.61719 10.1836 7.26562C10.1836 6.59766 9.67969 6.11719 8.96484 6.11719H0.9375C0.421875 6.11719 0.0117188 6.53906 0.0117188 7.05469C0.0117188 7.57031 0.421875 7.98047 0.9375 7.98047H7.55859V8.14453L0.339844 18.8672C0.105469 19.2305 0 19.4414 0 19.8633C0 20.4727 0.433594 20.9414 1.08984 20.9414ZM15.1641 21.2109C15.7969 21.2109 16.3242 20.6836 16.3242 20.0508V10.0195L17.7891 9.22266C18.9961 8.60156 18.1641 7.14844 17.1094 7.69922L16.3242 8.13281V1.16016C16.3242 0.527344 15.7969 0 15.1641 0C14.5312 0 14.0156 0.527344 14.0156 1.16016V9.35156L12.6797 10.0781C11.5781 10.6523 12.2578 12.1758 13.4648 11.543L14.0156 11.2266V20.0508C14.0156 20.6836 14.5312 21.2109 15.1641 21.2109Z" fill="black" fill-opacity="0.85"/>
</svg>
