<svg width="24" height="24" viewBox="0 0 24 24" fill="none" xmlns="http://www.w3.org/2000/svg">
<path d="M11.9531 23.918C18.4922 23.918 23.9062 18.5039 23.9062 11.9648C23.9062 5.4375 18.4805 0.0117188 11.9414 0.0117188C5.41406 0.0117188 0 5.4375 0 11.9648C0 18.5039 5.42578 23.918 11.9531 23.918Z" fill="#FFCC00"/>
<path d="M9.99604 9.55078C9.59761 9.07031 8.97651 8.78906 8.33198 8.78906C7.92183 8.78906 7.52339 8.90625 7.19526 9.08203C7.04292 8.8125 6.98433 8.55469 6.98433 8.26172C6.98433 7.34766 7.72261 6.63281 8.62495 6.65625C8.62495 6.24609 8.99995 5.82422 9.45698 5.87109C9.57417 5.34375 10.1132 4.85156 10.9569 4.85156C11.5897 4.85156 12.1522 5.20312 12.3983 5.77734C12.5741 5.74219 12.7733 5.75391 12.914 5.80078C13.2069 5.54297 13.5702 5.39062 13.9804 5.39062C14.6249 5.39062 15.0819 5.77734 15.328 6.36328C16.2655 6.375 16.9218 7.10156 16.9218 8.12109C16.9218 8.46094 16.8163 8.80078 16.6288 9.08203C16.3007 8.89453 15.914 8.78906 15.5155 8.78906C14.871 8.78906 14.2382 9.07031 13.8397 9.55078C13.4179 8.94141 12.6679 8.60156 11.9179 8.60156C11.1796 8.60156 10.4296 8.94141 9.99604 9.55078ZM9.60933 18.8555C8.75386 18.8555 8.35542 18.3633 8.19136 17.5312L7.01948 11.3789C6.80854 10.2422 7.55854 9.65625 8.33198 9.65625C8.96479 9.65625 9.57417 10.0547 9.63276 10.8281L10.3593 18.8555H9.60933ZM11.1913 18.8555L10.4765 10.957C10.3944 9.87891 11.2733 9.45703 11.9179 9.45703C12.5624 9.45703 13.453 9.87891 13.371 10.957L12.6561 18.8555H11.1913ZM14.2382 18.8555H13.4882L14.2147 10.8281C14.2733 10.0547 14.8827 9.65625 15.5155 9.65625C16.289 9.65625 17.039 10.2422 16.828 11.3789L15.6561 17.5312C15.4921 18.3633 15.0937 18.8555 14.2382 18.8555Z" fill="black" fill-opacity="0.85"/>
</svg>
