<svg width="22" height="22" viewBox="0 0 22 22" fill="none" xmlns="http://www.w3.org/2000/svg">
<path d="M3.67969 21.5977H17.8945C20.3555 21.5977 21.5742 20.3789 21.5742 17.9648V3.65625C21.5742 1.24219 20.3555 0.0234375 17.8945 0.0234375H3.67969C1.23047 0.0234375 0 1.23047 0 3.65625V17.9648C0 20.3906 1.23047 21.5977 3.67969 21.5977ZM3.70312 19.7109C2.53125 19.7109 1.88672 19.0898 1.88672 17.8711V3.75C1.88672 2.53125 2.53125 1.91016 3.70312 1.91016H17.8711C19.0312 1.91016 19.6875 2.53125 19.6875 3.75V17.8711C19.6875 19.0898 19.0312 19.7109 17.8711 19.7109H3.70312Z" fill="#007AFF"/>
<path d="M10.793 16.9453C14.2031 16.9453 16.9336 14.2031 16.9336 10.793C16.9336 7.38281 14.2031 4.64062 10.793 4.64062C7.37109 4.64062 4.64062 7.38281 4.64062 10.793C4.64062 14.2031 7.37109 16.9453 10.793 16.9453ZM10.793 8.58984C10.2891 8.58984 9.90234 8.19141 9.90234 7.69922C9.90234 7.19531 10.2891 6.79688 10.793 6.79688C11.2852 6.79688 11.6836 7.19531 11.6836 7.69922C11.6836 8.19141 11.2852 8.58984 10.793 8.58984ZM7.69922 12.1875C6.94922 12.1875 6.31641 11.5664 6.31641 10.8164C6.31641 10.0664 6.94922 9.44531 7.69922 9.44531C8.44922 9.44531 9.07031 10.0664 9.07031 10.8164C9.07031 11.5664 8.44922 12.1875 7.69922 12.1875ZM13.8867 12.1641C13.1367 12.1641 12.5039 11.543 12.5039 10.793C12.5039 10.043 13.1367 9.42188 13.8867 9.42188C14.625 9.42188 15.2578 10.043 15.2578 10.793C15.2578 11.543 14.625 12.1641 13.8867 12.1641Z" fill="black" fill-opacity="0.85"/>
</svg>
