<svg width="22" height="22" viewBox="0 0 22 22" fill="none" xmlns="http://www.w3.org/2000/svg">
<path d="M3.67969 21.5977H17.8945C20.3555 21.5977 21.5742 20.3789 21.5742 17.9648V3.65625C21.5742 1.24219 20.3555 0.0234375 17.8945 0.0234375H3.67969C1.23047 0.0234375 0 1.23047 0 3.65625V17.9648C0 20.3906 1.23047 21.5977 3.67969 21.5977Z" fill="#FFCC00"/>
<path d="M10.793 17.1445C7.26562 17.1445 4.44141 14.3086 4.44141 10.793C4.44141 7.27734 7.26562 4.44141 10.793 4.44141C14.3086 4.44141 17.1328 7.27734 17.1328 10.793C17.1328 14.3086 14.3086 17.1445 10.793 17.1445ZM7.78125 12.2109C8.56641 12.2109 9.19922 11.5664 9.19922 10.793C9.19922 10.0195 8.56641 9.375 7.78125 9.375C7.00781 9.375 6.36328 10.0195 6.36328 10.793C6.36328 11.5664 7.00781 12.2109 7.78125 12.2109ZM13.793 12.2109C14.5664 12.2109 15.2109 11.5664 15.2109 10.793C15.2109 10.0195 14.5664 9.375 13.793 9.375C13.0195 9.375 12.375 10.0195 12.375 10.793C12.375 11.5664 13.0195 12.2109 13.793 12.2109ZM10.793 15.4336C11.5664 15.4336 12.1992 14.7891 12.1992 14.0156C12.1992 13.2422 11.5664 12.5977 10.793 12.5977C10.0078 12.5977 9.375 13.2422 9.375 14.0156C9.375 14.7891 10.0078 15.4336 10.793 15.4336Z" fill="black" fill-opacity="0.85"/>
</svg>
