<svg width="22" height="22" viewBox="0 0 22 22" fill="none" xmlns="http://www.w3.org/2000/svg">
<path d="M3.67969 21.5977H17.8945C20.3555 21.5977 21.5742 20.3789 21.5742 17.9648V3.65625C21.5742 1.24219 20.3555 0.0234375 17.8945 0.0234375H3.67969C1.23047 0.0234375 0 1.23047 0 3.65625V17.9648C0 20.3906 1.23047 21.5977 3.67969 21.5977ZM3.70312 19.7109C2.53125 19.7109 1.88672 19.0898 1.88672 17.8711V3.75C1.88672 2.53125 2.53125 1.91016 3.70312 1.91016H17.8711C19.0312 1.91016 19.6875 2.53125 19.6875 3.75V17.8711C19.6875 19.0898 19.0312 19.7109 17.8711 19.7109H3.70312Z" fill="#007AFF"/>
<path d="M6.21094 16.2891H15.3633C15.9961 16.2891 16.4648 15.8203 16.4648 15.1875V6.39844C16.4648 5.76562 15.9961 5.29688 15.3633 5.29688H6.21094C5.57812 5.29688 5.10938 5.76562 5.10938 6.39844V15.1875C5.10938 15.8203 5.57812 16.2891 6.21094 16.2891ZM10.8047 9.9375C10.0195 9.9375 9.38671 9.30469 9.38671 8.51953C9.38671 7.73438 10.0195 7.10156 10.8047 7.10156C11.5781 7.10156 12.2109 7.73438 12.2109 8.51953C12.2109 9.30469 11.5781 9.9375 10.8047 9.9375ZM8.23828 14.4609C7.59375 14.4609 7.05469 13.9336 7.05469 13.2773C7.05469 12.6211 7.59375 12.0938 8.23828 12.0938C8.89453 12.0938 9.43359 12.6211 9.43359 13.2773C9.43359 13.9336 8.89453 14.4609 8.23828 14.4609ZM13.3594 14.4609C12.7031 14.4609 12.1641 13.9336 12.1641 13.2773C12.1641 12.6211 12.7031 12.0938 13.3594 12.0938C14.0156 12.0938 14.543 12.6211 14.543 13.2773C14.543 13.9336 14.0156 14.4609 13.3594 14.4609Z" fill="black" fill-opacity="0.85"/>
</svg>
