<svg width="22" height="22" viewBox="0 0 22 22" fill="none" xmlns="http://www.w3.org/2000/svg">
<path d="M3.67969 21.5977H17.8945C20.3555 21.5977 21.5742 20.3789 21.5742 17.9648V3.65625C21.5742 1.24219 20.3555 0.0234375 17.8945 0.0234375H3.67969C1.23047 0.0234375 0 1.23047 0 3.65625V17.9648C0 20.3906 1.23047 21.5977 3.67969 21.5977ZM3.70312 19.7109C2.53125 19.7109 1.88672 19.0898 1.88672 17.8711V3.75C1.88672 2.53125 2.53125 1.91016 3.70312 1.91016H17.8711C19.0312 1.91016 19.6875 2.53125 19.6875 3.75V17.8711C19.6875 19.0898 19.0312 19.7109 17.8711 19.7109H3.70312Z" fill="#007AFF"/>
<path d="M6.21094 16.2891H15.3633C15.9961 16.2891 16.4648 15.8203 16.4648 15.1875V6.39844C16.4648 5.76562 15.9961 5.29688 15.3633 5.29688H6.21094C5.57812 5.29688 5.10938 5.76562 5.10938 6.39844V15.1875C5.10938 15.8203 5.57812 16.2891 6.21094 16.2891ZM10.8047 9.59766C10.1484 9.59766 9.60938 9.07031 9.60938 8.40234C9.60938 7.75781 10.1484 7.23047 10.8047 7.23047C11.4492 7.23047 11.9883 7.75781 11.9883 8.40234C11.9883 9.07031 11.4492 9.59766 10.8047 9.59766ZM8.23828 14.3555C7.59375 14.3555 7.05469 13.8281 7.05469 13.1719C7.05469 12.5156 7.59375 11.9883 8.23828 11.9883C8.89453 11.9883 9.43359 12.5156 9.43359 13.1719C9.43359 13.8281 8.89453 14.3555 8.23828 14.3555ZM13.3594 14.3555C12.7031 14.3555 12.1641 13.8281 12.1641 13.1719C12.1641 12.5156 12.7031 11.9883 13.3594 11.9883C14.0156 11.9883 14.543 12.5156 14.543 13.1719C14.543 13.8281 14.0156 14.3555 13.3594 14.3555Z" fill="black" fill-opacity="0.85"/>
</svg>
