<svg width="23" height="22" viewBox="0 0 23 22" fill="none" xmlns="http://www.w3.org/2000/svg">
<path d="M3.67969 21.5977H18.6328C21.082 21.5977 22.3125 20.3789 22.3125 17.9648V3.65625C22.3125 1.24219 21.082 0.0234375 18.6328 0.0234375H3.67969C1.23047 0.0234375 0 1.23047 0 3.65625V17.9648C0 20.3906 1.23047 21.5977 3.67969 21.5977ZM3.70312 19.7109C2.53125 19.7109 1.88672 19.0898 1.88672 17.8711V3.75C1.88672 2.53125 2.53125 1.91016 3.70312 1.91016H18.5977C19.7578 1.91016 20.4258 2.53125 20.4258 3.75V17.8711C20.4258 19.0898 19.7578 19.7109 18.5977 19.7109H3.70312Z" fill="#007AFF"/>
<path d="M10.6758 9.41016H11.625C12.0234 9.41016 12.2812 9.14062 12.2812 8.74219V5.32031C12.2812 4.92188 12.0234 4.65234 11.625 4.65234H10.6758C10.2891 4.65234 10.0195 4.92188 10.0195 5.32031V8.74219C10.0195 9.14062 10.2891 9.41016 10.6758 9.41016ZM5.51953 16.3242H8.57812C8.97656 16.3242 9.23438 16.0664 9.23438 15.668V14.7188C9.23438 14.3203 8.97656 14.0625 8.57812 14.0625H5.51953C5.12109 14.0625 4.86328 14.332 4.86328 14.7188V15.668C4.86328 16.0664 5.12109 16.3242 5.51953 16.3242ZM13.7344 16.3242H16.7812C17.1914 16.3242 17.4492 16.0664 17.4492 15.668V14.7188C17.4492 14.332 17.1797 14.0625 16.7812 14.0625H13.7344C13.3359 14.0625 13.0664 14.3203 13.0664 14.7188V15.668C13.0664 16.0664 13.3359 16.3242 13.7344 16.3242Z" fill="black" fill-opacity="0.85"/>
</svg>
