<svg width="22" height="22" viewBox="0 0 22 22" fill="none" xmlns="http://www.w3.org/2000/svg">
<path d="M3.67969 21.5977H17.8945C20.3555 21.5977 21.5742 20.3789 21.5742 17.9648V3.65625C21.5742 1.24219 20.3555 0.0234375 17.8945 0.0234375H3.67969C1.23047 0.0234375 0 1.23047 0 3.65625V17.9648C0 20.3906 1.23047 21.5977 3.67969 21.5977Z" fill="#FFCC00"/>
<path d="M6.96094 16.3242C6.60938 16.3242 6.26953 16.2188 6.01172 15.9727C4.67578 14.707 3.76172 12.7969 3.76172 10.8047C3.76172 8.80078 4.6875 6.87891 6.03516 5.61328C6.28125 5.39062 6.60938 5.29688 6.96094 5.29688H14.6133C14.9648 5.29688 15.3047 5.40234 15.5625 5.64844C16.8984 6.90234 17.8125 8.8125 17.8125 10.8047C17.8125 12.7969 16.8984 14.707 15.5625 15.9727C15.3047 16.2188 14.9648 16.3242 14.6133 16.3242H6.96094ZM7.83984 13.6289C8.22656 13.6289 8.53125 13.3242 8.53125 12.9375V8.66016C8.53125 8.27344 8.22656 7.98047 7.83984 7.98047C7.46484 7.98047 7.16016 8.27344 7.16016 8.66016V12.9375C7.16016 13.3242 7.46484 13.6289 7.83984 13.6289ZM13.7344 13.6289C14.1211 13.6289 14.4141 13.3242 14.4141 12.9375V8.66016C14.4141 8.27344 14.1211 7.98047 13.7344 7.98047C13.3477 7.98047 13.0547 8.27344 13.0547 8.66016V12.9375C13.0547 13.3242 13.3477 13.6289 13.7344 13.6289Z" fill="black" fill-opacity="0.85"/>
</svg>
