<svg width="22" height="22" viewBox="0 0 22 22" fill="none" xmlns="http://www.w3.org/2000/svg">
<path d="M3.67969 21.5977H17.8945C20.3555 21.5977 21.5742 20.3789 21.5742 17.9648V3.65625C21.5742 1.24219 20.3555 0.0234375 17.8945 0.0234375H3.67969C1.23047 0.0234375 0 1.23047 0 3.65625V17.9648C0 20.3906 1.23047 21.5977 3.67969 21.5977Z" fill="#FFCC00"/>
<path d="M6.07031 16.4648C5.41406 16.4648 4.93359 15.9844 4.93359 15.3281V6.25781C4.93359 5.60156 5.41406 5.12109 6.07031 5.12109H15.5039C16.1602 5.12109 16.6406 5.60156 16.6406 6.25781V15.3281C16.6406 15.9844 16.1602 16.4648 15.5039 16.4648H6.07031ZM10.8047 9.5625C11.4727 9.5625 12.0234 9.01172 12.0234 8.33203C12.0234 7.66406 11.4727 7.11328 10.8047 7.11328C10.125 7.11328 9.57422 7.66406 9.57422 8.33203C9.57422 9.01172 10.125 9.5625 10.8047 9.5625ZM8.15625 14.4727C8.83594 14.4727 9.38672 13.9219 9.38672 13.2422C9.38672 12.5742 8.83594 12.0234 8.15625 12.0234C7.48828 12.0234 6.9375 12.5742 6.9375 13.2422C6.9375 13.9219 7.48828 14.4727 8.15625 14.4727ZM13.4414 14.4727C14.1211 14.4727 14.6602 13.9219 14.6602 13.2422C14.6602 12.5742 14.1211 12.0234 13.4414 12.0234C12.7617 12.0234 12.2109 12.5742 12.2109 13.2422C12.2109 13.9219 12.7617 14.4727 13.4414 14.4727Z" fill="black" fill-opacity="0.85"/>
</svg>
