<svg width="22" height="22" viewBox="0 0 22 22" fill="none" xmlns="http://www.w3.org/2000/svg">
<path d="M3.67969 21.5977H17.8945C20.3555 21.5977 21.5742 20.3789 21.5742 17.9648V3.65625C21.5742 1.24219 20.3555 0.0234375 17.8945 0.0234375H3.67969C1.23047 0.0234375 0 1.23047 0 3.65625V17.9648C0 20.3906 1.23047 21.5977 3.67969 21.5977Z" fill="#FFCC00"/>
<path d="M6.70362 7.06641H14.8716C15.645 7.06641 15.938 7.40625 16.3364 7.81641L18.481 9.98438C18.9146 10.418 18.9146 11.1445 18.481 11.5781L16.3364 13.7695C15.938 14.1797 15.5278 14.5195 14.8716 14.5195H6.70362C6.04738 14.5195 5.63722 14.1797 5.23878 13.7695L3.09425 11.5781C2.66066 11.1445 2.67238 10.418 3.09425 9.98438L5.23878 7.81641C5.63722 7.40625 5.93019 7.06641 6.70362 7.06641ZM6.43409 9.59766C5.78956 9.59766 5.23878 10.1484 5.23878 10.793C5.23878 11.4375 5.78956 11.9766 6.43409 11.9766C7.07862 11.9766 7.62941 11.4375 7.62941 10.793C7.62941 10.1484 7.07862 9.59766 6.43409 9.59766ZM10.7935 10.4648C10.1372 10.4648 9.59816 11.0156 9.59816 11.6602C9.59816 12.3047 10.1372 12.8555 10.7935 12.8555C11.438 12.8555 11.9771 12.3047 11.9771 11.6602C11.9771 11.0156 11.438 10.4648 10.7935 10.4648ZM15.1411 9.59766C14.4966 9.59766 13.9575 10.1484 13.9575 10.793C13.9575 11.4375 14.4966 11.9766 15.1411 11.9766C15.7857 11.9766 16.3364 11.4375 16.3364 10.793C16.3364 10.1484 15.7857 9.59766 15.1411 9.59766Z" fill="black" fill-opacity="0.85"/>
</svg>
