<svg width="23" height="22" viewBox="0 0 23 22" fill="none" xmlns="http://www.w3.org/2000/svg">
<path d="M3.67969 21.5977H18.6328C21.082 21.5977 22.3125 20.3789 22.3125 17.9648V3.65625C22.3125 1.24219 21.082 0.0234375 18.6328 0.0234375H3.67969C1.23047 0.0234375 0 1.23047 0 3.65625V17.9648C0 20.3906 1.23047 21.5977 3.67969 21.5977Z" fill="#FFCC00"/>
<path d="M6.96094 10.6758C6.35156 10.6758 5.89453 10.2188 5.89453 9.59766V5.85938C5.89453 5.26172 6.35156 4.76953 6.96094 4.76953C7.55859 4.76953 8.03906 5.26172 8.03906 5.85938V9.59766C8.03906 10.2188 7.55859 10.6758 6.96094 10.6758ZM9.71484 17.5078C9.33984 17.5078 9.15234 17.3203 9.15234 16.9453V15.5859C9.15234 14.4609 10.0195 13.5586 11.1562 13.5586C12.2812 13.5586 13.1602 14.4609 13.1602 15.5859V16.9453C13.1602 17.3203 12.9727 17.5078 12.5977 17.5078H9.71484ZM15.3281 10.6758C14.7188 10.6758 14.2617 10.2188 14.2617 9.59766V5.85938C14.2617 5.26172 14.7188 4.76953 15.3281 4.76953C15.9375 4.76953 16.418 5.26172 16.418 5.85938V9.59766C16.418 10.2188 15.9375 10.6758 15.3281 10.6758Z" fill="black" fill-opacity="0.85"/>
</svg>
