<svg width="46" height="16" viewBox="0 0 46 16" fill="none" xmlns="http://www.w3.org/2000/svg">
<path d="M3.42188 13.6641H32.7188C34.6992 13.6641 36.1406 12.2109 36.1406 10.2422V3.43359C36.1406 1.46484 34.6992 0 32.7188 0H3.42188C1.44141 0 0 1.45312 0 3.43359V10.2422C0 12.2227 1.44141 13.6641 3.42188 13.6641ZM3.42188 11.8945C2.4375 11.8945 1.76953 11.2148 1.76953 10.2422V3.43359C1.76953 2.44922 2.4375 1.76953 3.42188 1.76953H32.7188C33.6914 1.76953 34.3711 2.44922 34.3711 3.43359V10.2422C34.3711 11.2148 33.6914 11.8945 32.7188 11.8945H3.42188ZM35.3789 10.9805H37.4297C38.2383 10.9805 38.8359 10.3945 38.8359 9.58594V4.07812C38.8359 3.26953 38.2383 2.68359 37.4297 2.68359H35.3789V4.21875H36.7969C37.0898 4.21875 37.3008 4.41797 37.3008 4.71094V8.94141C37.3008 9.24609 37.0898 9.44531 36.7969 9.44531H35.3789V10.9805ZM38.2617 7.81641H45.8672V5.92969H38.2617V7.81641Z" fill="#007AFF"/>
<path d="M4.60547 9.49219H5.40234C5.73047 9.49219 5.96484 9.25781 5.96484 8.91797V4.73438C5.96484 4.37109 5.73047 4.14844 5.40234 4.14844H4.60547C4.25391 4.14844 4.03125 4.37109 4.03125 4.73438V8.91797C4.03125 9.25781 4.25391 9.49219 4.60547 9.49219ZM11.6484 10.4414C13.6406 10.4414 15.2578 8.83594 15.2578 6.83203C15.2578 4.85156 13.6406 3.22266 11.6484 3.22266C9.65625 3.22266 8.03906 4.85156 8.03906 6.83203C8.03906 8.83594 9.65625 10.4414 11.6484 10.4414ZM10.3242 8.73047C10.043 8.73047 9.80859 8.49609 9.80859 8.22656V5.44922C9.80859 5.17969 10.043 4.93359 10.3242 4.93359C10.5938 4.93359 10.8164 5.16797 10.8164 5.44922V8.22656C10.8164 8.50781 10.5938 8.73047 10.3242 8.73047ZM12.9727 8.73047C12.6914 8.73047 12.457 8.50781 12.457 8.22656V5.44922C12.457 5.16797 12.6797 4.93359 12.9727 4.93359C13.2539 4.93359 13.4648 5.16797 13.4648 5.44922V8.22656C13.4648 8.50781 13.2539 8.73047 12.9727 8.73047ZM20.3438 10.4414C22.3359 10.4414 23.9648 8.83594 23.9648 6.83203C23.9648 4.85156 22.3359 3.22266 20.3438 3.22266C18.3516 3.22266 16.7461 4.85156 16.7461 6.83203C16.7461 8.83594 18.3516 10.4414 20.3438 10.4414ZM19.0078 8.73047C18.7383 8.73047 18.5039 8.50781 18.5039 8.22656V5.44922C18.5039 5.17969 18.7383 4.93359 19.0078 4.93359C19.3008 4.93359 19.5234 5.16797 19.5234 5.44922V8.22656C19.5234 8.50781 19.3008 8.73047 19.0078 8.73047ZM21.668 8.73047C21.3867 8.73047 21.1523 8.50781 21.1523 8.22656V5.44922C21.1523 5.16797 21.3867 4.93359 21.668 4.93359C21.9492 4.93359 22.1719 5.16797 22.1719 5.44922V8.22656C22.1719 8.50781 21.9375 8.73047 21.668 8.73047ZM29.0391 10.4414C31.0312 10.4414 32.6484 8.83594 32.6484 6.83203C32.6484 4.85156 31.0312 3.22266 29.0391 3.22266C27.0469 3.22266 25.4414 4.85156 25.4414 6.83203C25.4414 8.83594 27.0469 10.4414 29.0391 10.4414ZM27.7148 8.73047C27.4336 8.73047 27.1992 8.50781 27.1992 8.22656V5.44922C27.1992 5.17969 27.4336 4.93359 27.7148 4.93359C27.9961 4.93359 28.2188 5.16797 28.2188 5.44922V8.22656C28.2188 8.50781 27.9844 8.73047 27.7148 8.73047ZM30.3633 8.73047C30.082 8.73047 29.8477 8.50781 29.8477 8.22656V5.44922C29.8477 5.16797 30.0703 4.93359 30.3633 4.93359C30.6445 4.93359 30.8555 5.16797 30.8555 5.44922V8.22656C30.8555 8.50781 30.6445 8.73047 30.3633 8.73047Z" fill="black" fill-opacity="0.85"/>
</svg>
