<svg width="26" height="21" viewBox="0 0 26 21" fill="none" xmlns="http://www.w3.org/2000/svg">
<path d="M6.21094 20.1445H18.8906C19.7461 20.1445 20.543 19.8516 21.1289 19.2891C23.6367 16.9102 25.1133 13.4648 25.1133 10.0781C25.1133 6.69141 23.6367 3.24609 21.1289 0.867188C20.543 0.304688 19.7461 0 18.8906 0H6.21094C5.32031 0 4.47656 0.339844 3.86719 0.960938C1.45312 3.32812 0 6.73828 0 10.0781C0 13.4648 1.47656 16.9102 3.98438 19.2891C4.57031 19.8516 5.35547 20.1445 6.21094 20.1445Z" fill="#FFCC00"/>
<path d="M7.51172 14.9648C6.90234 14.9648 6.45703 14.5195 6.45703 13.9102V6.375C6.45703 5.77734 6.90234 5.28516 7.51172 5.28516C8.10938 5.28516 8.58984 5.77734 8.58984 6.375V13.9102C8.58984 14.5195 8.10938 14.9648 7.51172 14.9648ZM17.5898 14.9648C16.9805 14.9648 16.5234 14.4844 16.5234 13.8867V6.38672C16.5234 5.77734 16.9805 5.28516 17.5898 5.28516C18.1992 5.28516 18.6562 5.77734 18.6562 6.38672V13.8867C18.6562 14.4961 18.1992 14.9648 17.5898 14.9648Z" fill="black" fill-opacity="0.85"/>
</svg>
