<svg width="30" height="21" viewBox="0 0 30 21" fill="none" xmlns="http://www.w3.org/2000/svg">
<path d="M0 12.4688C0 14.1445 0.914062 15.0469 2.625 15.0469H6.45703C8.0625 15.0469 8.87109 15.4688 9.92578 16.8164C11.7422 19.1719 14.543 20.4492 17.4375 20.4492H21.1172C21.9961 20.4492 22.582 19.875 22.582 18.9961V1.42969C22.582 0.574219 21.9961 0 21.1172 0H17.4375C14.543 0 11.7422 1.27734 9.92578 3.63281C8.87109 4.99219 8.0625 5.41406 6.45703 5.41406H2.625C0.914062 5.41406 0 6.30469 0 7.99219V12.4688ZM1.88672 12.2812V8.17969C1.88672 7.57031 2.17969 7.30078 2.74219 7.30078H6.45703C8.63672 7.30078 10.0078 6.59766 11.4141 4.78125C12.8789 2.88281 15.082 1.88672 17.4375 1.88672H20.4727C20.6367 1.88672 20.6953 1.94531 20.6953 2.08594V18.3633C20.6953 18.5156 20.6367 18.5625 20.4727 18.5625H17.4375C15.082 18.5625 12.8789 17.5781 11.4141 15.6797C10.0078 13.8633 8.63672 13.1602 6.45703 13.1602H2.74219C2.17969 13.1602 1.88672 12.8789 1.88672 12.2812ZM21.3398 8.00391H27.7266C28.7695 8.00391 29.5898 7.18359 29.5898 6.15234C29.5898 5.12109 28.7695 4.28906 27.7266 4.28906H21.3398V8.00391ZM21.3398 16.1719H27.7266C28.7695 16.1719 29.5898 15.3398 29.5898 14.3086C29.5898 13.2773 28.7695 12.457 27.7266 12.457H21.3398V16.1719Z" fill="black" fill-opacity="0.85"/>
</svg>
