<svg width="22" height="22" viewBox="0 0 22 22" fill="none" xmlns="http://www.w3.org/2000/svg">
<path d="M3.67969 21.5977H17.8945C20.3555 21.5977 21.5742 20.3789 21.5742 17.9648V3.65625C21.5742 1.24219 20.3555 0.0234375 17.8945 0.0234375H3.67969C1.23047 0.0234375 0 1.23047 0 3.65625V17.9648C0 20.3906 1.23047 21.5977 3.67969 21.5977Z" fill="#FFCC00"/>
<path d="M6.70312 6.43359H14.8711C15.6445 6.43359 15.9844 6.72656 16.3359 7.18359L18.4805 9.98438C18.8555 10.4648 18.8555 11.0859 18.4805 11.5781L16.3359 14.4023C15.9844 14.8594 15.5273 15.1406 14.8711 15.1406H6.70312C6.04688 15.1406 5.58984 14.8594 5.23828 14.4023L3.09375 11.5781C2.71875 11.0859 2.71875 10.4648 3.09375 9.98438L5.23828 7.18359C5.58984 6.72656 5.92969 6.43359 6.70312 6.43359ZM6.43359 9.59766C5.78906 9.59766 5.23828 10.1484 5.23828 10.793C5.23828 11.4375 5.78906 11.9766 6.43359 11.9766C7.07812 11.9766 7.62891 11.4375 7.62891 10.793C7.62891 10.1484 7.07812 9.59766 6.43359 9.59766ZM10.793 11.0625C10.1367 11.0625 9.59766 11.6133 9.59766 12.2578C9.59766 12.9023 10.1367 13.4531 10.793 13.4531C11.4375 13.4531 11.9766 12.9023 11.9766 12.2578C11.9766 11.6133 11.4375 11.0625 10.793 11.0625ZM15.1406 9.59766C14.4961 9.59766 13.957 10.1484 13.957 10.793C13.957 11.4375 14.4961 11.9766 15.1406 11.9766C15.7852 11.9766 16.3359 11.4375 16.3359 10.793C16.3359 10.1484 15.7852 9.59766 15.1406 9.59766Z" fill="black" fill-opacity="0.85"/>
</svg>
