<svg width="24" height="24" viewBox="0 0 24 24" fill="none" xmlns="http://www.w3.org/2000/svg">
<path d="M11.9531 23.9062C18.4922 23.9062 23.9062 18.4805 23.9062 11.9531C23.9062 5.41406 18.4805 0 11.9414 0C5.41406 0 0 5.41406 0 11.9531C0 18.4805 5.42578 23.9062 11.9531 23.9062Z" fill="#FFCC00"/>
<path d="M6.72656 13.5938C5.46094 13.5938 4.45312 12.5625 4.45312 11.3086C4.45312 10.043 5.46094 9.02344 6.72656 9.02344C7.99219 9.02344 9.01172 10.043 9.01172 11.3086C9.01172 12.5625 7.99219 13.5938 6.72656 13.5938ZM17.1797 13.5938C15.9141 13.5938 14.8945 12.5625 14.8945 11.3086C14.8945 10.043 15.9141 9.02344 17.1797 9.02344C18.4453 9.02344 19.4531 10.043 19.4531 11.3086C19.4531 12.5625 18.4453 13.5938 17.1797 13.5938ZM11.9531 19.2188C10.6992 19.2188 9.66797 18.2109 9.66797 16.9453C9.66797 15.6797 10.6992 14.6602 11.9531 14.6602C13.207 14.6602 14.2383 15.6797 14.2383 16.9453C14.2383 18.2109 13.207 19.2188 11.9531 19.2188Z" fill="black" fill-opacity="0.85"/>
</svg>
