<svg width="22" height="22" viewBox="0 0 22 22" fill="none" xmlns="http://www.w3.org/2000/svg">
<path d="M3.67969 21.5977H17.8945C20.3555 21.5977 21.5742 20.3789 21.5742 17.9648V3.65625C21.5742 1.24219 20.3555 0.0234375 17.8945 0.0234375H3.67969C1.23047 0.0234375 0 1.23047 0 3.65625V17.9648C0 20.3906 1.23047 21.5977 3.67969 21.5977Z" fill="#FFCC00"/>
<path d="M3.87891 11.918V9.67969C3.87891 9.22266 4.19531 8.91797 4.65234 8.91797H5.17969V8.33203C5.17969 6.25781 7.875 4.34766 10.793 4.34766C13.6992 4.34766 16.3945 6.25781 16.3945 8.33203V8.91797H16.9219C17.3789 8.91797 17.6953 9.22266 17.6953 9.67969V11.918C17.6953 12.375 17.3789 12.6797 16.9219 12.6797H16.3945V13.2539C16.3945 15.3398 13.6992 17.25 10.793 17.25C7.875 17.25 5.17969 15.3398 5.17969 13.2539V12.6797H4.65234C4.19531 12.6797 3.87891 12.375 3.87891 11.918ZM7.78125 12.2109C8.56641 12.2109 9.19922 11.5781 9.19922 10.793C9.19922 10.0195 8.56641 9.38672 7.78125 9.38672C7.00781 9.38672 6.36328 10.0195 6.36328 10.793C6.36328 11.5781 7.00781 12.2109 7.78125 12.2109ZM13.793 12.2109C14.5664 12.2109 15.2109 11.5781 15.2109 10.793C15.2109 10.0195 14.5664 9.38672 13.793 9.38672C13.0195 9.38672 12.375 10.0195 12.375 10.793C12.375 11.5781 13.0195 12.2109 13.793 12.2109Z" fill="black" fill-opacity="0.85"/>
</svg>
