<svg width="22" height="22" viewBox="0 0 22 22" fill="none" xmlns="http://www.w3.org/2000/svg">
<path d="M3.67969 21.5977H17.8945C20.3555 21.5977 21.5742 20.3789 21.5742 17.9648V3.65625C21.5742 1.24219 20.3555 0.0234375 17.8945 0.0234375H3.67969C1.23047 0.0234375 0 1.23047 0 3.65625V17.9648C0 20.3906 1.23047 21.5977 3.67969 21.5977Z" fill="#FFCC00"/>
<path d="M10.793 17.1445C7.26562 17.1445 4.44141 14.3086 4.44141 10.793C4.44141 7.27734 7.26562 4.44141 10.793 4.44141C14.3086 4.44141 17.1328 7.27734 17.1328 10.793C17.1328 14.3086 14.3086 17.1445 10.793 17.1445ZM10.793 8.50781C11.2969 8.50781 11.707 8.08594 11.707 7.58203C11.707 7.06641 11.2969 6.65625 10.793 6.65625C10.2773 6.65625 9.86719 7.06641 9.86719 7.58203C9.86719 8.08594 10.2773 8.50781 10.793 8.50781ZM7.59375 12.2344C8.37891 12.2344 9.01172 11.5898 9.01172 10.8164C9.01172 10.043 8.37891 9.39844 7.59375 9.39844C6.82031 9.39844 6.17578 10.043 6.17578 10.8164C6.17578 11.5898 6.82031 12.2344 7.59375 12.2344ZM13.9805 12.2109C14.7539 12.2109 15.3984 11.5664 15.3984 10.793C15.3984 10.0195 14.7539 9.375 13.9805 9.375C13.207 9.375 12.5625 10.0195 12.5625 10.793C12.5625 11.5664 13.207 12.2109 13.9805 12.2109Z" fill="black" fill-opacity="0.85"/>
</svg>
