<svg width="23" height="22" viewBox="0 0 23 22" fill="none" xmlns="http://www.w3.org/2000/svg">
<path d="M3.67969 21.5977H18.6328C21.082 21.5977 22.3125 20.3789 22.3125 17.9648V3.65625C22.3125 1.24219 21.082 0.0234375 18.6328 0.0234375H3.67969C1.23047 0.0234375 0 1.23047 0 3.65625V17.9648C0 20.3906 1.23047 21.5977 3.67969 21.5977Z" fill="#FFCC00"/>
<path d="M11.1562 9.32812C9.91406 9.32812 8.90625 8.33204 8.90625 7.07812C8.90625 5.83595 9.91406 4.82812 11.1562 4.82812C12.3984 4.82812 13.4062 5.83595 13.4062 7.07812C13.4062 8.33204 12.3984 9.32812 11.1562 9.32812ZM7.01953 16.7695C6.01172 16.7695 5.19141 15.9492 5.19141 14.9414C5.19141 13.9453 6.01172 13.1367 7.01953 13.1367C8.01562 13.1367 8.82422 13.9453 8.82422 14.9414C8.82422 15.9492 8.01562 16.7695 7.01953 16.7695ZM15.3047 16.7695C14.2969 16.7695 13.4883 15.9492 13.4883 14.9414C13.4883 13.9453 14.2969 13.1367 15.3047 13.1367C16.2891 13.1367 17.1211 13.9453 17.1211 14.9414C17.1211 15.9492 16.2891 16.7695 15.3047 16.7695Z" fill="black" fill-opacity="0.85"/>
</svg>
