<svg width="31" height="19" viewBox="0 0 31 19" fill="none" xmlns="http://www.w3.org/2000/svg">
<path d="M8.28516 0C6.67969 0 5.61328 0.574219 4.59375 1.86328L0.796875 6.83203C-0.269531 8.21484 -0.257812 10.043 0.785156 11.4141L4.58203 16.4297C5.51953 17.6602 6.78516 18.3164 8.28516 18.3164H22.4883C23.9883 18.3164 25.2539 17.6602 26.1914 16.4297L29.9883 11.4141C31.0312 10.043 31.043 8.21484 29.9766 6.83203L26.1797 1.86328C25.1602 0.574219 24.0938 0 22.4883 0H8.28516ZM8.28516 1.88672H22.4883C23.5195 1.88672 24.0234 2.14453 24.6914 3.01172L28.4883 7.98047C29.0508 8.68359 29.0391 9.5625 28.5 10.2656L24.6914 15.293C24.1055 16.0547 23.4141 16.4297 22.4883 16.4297H8.28516C7.37109 16.4297 6.67969 16.0547 6.08203 15.293L2.27344 10.2656C1.73438 9.5625 1.73438 8.68359 2.28516 7.98047L6.08203 3.01172C6.76172 2.14453 7.26562 1.88672 8.28516 1.88672Z" fill="#007AFF"/>
<path d="M7.59375 7.11328C6.46875 7.11328 5.55469 8.03906 5.55469 9.15234C5.55469 10.2656 6.46875 11.1914 7.59375 11.1914C8.70703 11.1914 9.62109 10.2656 9.62109 9.15234C9.62109 8.03906 8.70703 7.11328 7.59375 7.11328ZM15.3867 9.90234C14.2734 9.90234 13.3477 10.8164 13.3477 11.9297C13.3477 13.0547 14.2734 13.9688 15.3867 13.9688C16.5 13.9688 17.4258 13.0547 17.4258 11.9297C17.4258 10.8164 16.5 9.90234 15.3867 9.90234ZM23.1797 7.11328C22.0664 7.11328 21.1523 8.03906 21.1523 9.15234C21.1523 10.2656 22.0664 11.1914 23.1797 11.1914C24.3047 11.1914 25.2188 10.2656 25.2188 9.15234C25.2188 8.03906 24.3047 7.11328 23.1797 7.11328Z" fill="black" fill-opacity="0.85"/>
</svg>
