<svg width="22" height="22" viewBox="0 0 22 22" fill="none" xmlns="http://www.w3.org/2000/svg">
<path d="M3.67969 21.5977H17.8945C20.3555 21.5977 21.5742 20.3789 21.5742 17.9648V3.65625C21.5742 1.24219 20.3555 0.0234375 17.8945 0.0234375H3.67969C1.23047 0.0234375 0 1.23047 0 3.65625V17.9648C0 20.3906 1.23047 21.5977 3.67969 21.5977Z" fill="#FFCC00"/>
<path d="M6.07031 16.4648C5.41406 16.4648 4.93359 15.9844 4.93359 15.3281V6.25781C4.93359 5.60156 5.41406 5.12109 6.07031 5.12109H15.5039C16.1602 5.12109 16.6406 5.60156 16.6406 6.25781V15.3281C16.6406 15.9844 16.1602 16.4648 15.5039 16.4648H6.07031ZM8.48438 10.8281C8.84766 10.8281 9.14062 10.5586 9.14062 10.1836V8.12109C9.14062 7.75781 8.84766 7.46484 8.48438 7.46484C8.13281 7.46484 7.85156 7.75781 7.85156 8.12109V10.1836C7.85156 10.5586 8.13281 10.8281 8.48438 10.8281ZM13.0781 10.8281C13.4297 10.8281 13.7227 10.5586 13.7227 10.1836V8.12109C13.7227 7.75781 13.4297 7.46484 13.0781 7.46484C12.7148 7.46484 12.4336 7.75781 12.4336 8.12109V10.1836C12.4336 10.5586 12.7148 10.8281 13.0781 10.8281ZM10.0195 14.5078H11.5547C11.7891 14.5078 11.8945 14.3906 11.8945 14.168V13.4414C11.8945 12.8086 11.4141 12.3281 10.793 12.3281C10.1484 12.3281 9.67969 12.8086 9.67969 13.4414V14.168C9.67969 14.3906 9.78516 14.5078 10.0195 14.5078Z" fill="black" fill-opacity="0.85"/>
</svg>
