<svg width="27" height="25" viewBox="0 0 27 25" fill="none" xmlns="http://www.w3.org/2000/svg">
<path d="M0 14.625C0 15.5039 0.597656 16.1016 1.48828 16.1016H2.50781V17.2148C2.50781 21.2461 7.69922 24.9258 13.3242 24.9258C18.9492 24.9258 24.1406 21.2461 24.1406 17.2148V16.1016H25.1602C26.0508 16.1016 26.6484 15.5039 26.6484 14.625V10.3125C26.6484 9.42188 26.0508 8.82422 25.1602 8.82422H24.1406V7.72266C24.1406 3.69141 18.9492 0 13.3242 0C7.69922 0 2.50781 3.69141 2.50781 7.72266V8.82422H1.48828C0.597656 8.82422 0 9.42188 0 10.3125V14.625Z" fill="#FFCC00"/>
<path d="M7.71094 14.7539C6.45703 14.7539 5.4375 13.7227 5.4375 12.4688C5.4375 11.2148 6.45703 10.1836 7.71094 10.1836C8.98828 10.1836 9.99609 11.2148 9.99609 12.4688C9.99609 13.7227 8.98828 14.7539 7.71094 14.7539ZM18.9258 14.7539C17.6602 14.7539 16.6523 13.7227 16.6523 12.4688C16.6523 11.2148 17.6602 10.1836 18.9258 10.1836C20.1914 10.1836 21.2109 11.2148 21.2109 12.4688C21.2109 13.7227 20.1914 14.7539 18.9258 14.7539Z" fill="black" fill-opacity="0.85"/>
</svg>
