<svg width="22" height="22" viewBox="0 0 22 22" fill="none" xmlns="http://www.w3.org/2000/svg">
<path d="M3.67969 21.5977H17.8945C20.3555 21.5977 21.5742 20.3789 21.5742 17.9648V3.65625C21.5742 1.24219 20.3555 0.0234375 17.8945 0.0234375H3.67969C1.23047 0.0234375 0 1.23047 0 3.65625V17.9648C0 20.3906 1.23047 21.5977 3.67969 21.5977ZM3.70312 19.7109C2.53125 19.7109 1.88672 19.0898 1.88672 17.8711V3.75C1.88672 2.53125 2.53125 1.91016 3.70312 1.91016H17.8711C19.0312 1.91016 19.6875 2.53125 19.6875 3.75V17.8711C19.6875 19.0898 19.0312 19.7109 17.8711 19.7109H3.70312Z" fill="#007AFF"/>
<path d="M6.94922 6.69141C6.22266 6.69141 5.90625 6.97266 5.57812 7.39453L3.5625 10.043C3.21094 10.4883 3.21094 11.0625 3.5625 11.5195L5.57812 14.1914C5.90625 14.6133 6.32812 14.8828 6.94922 14.8828H14.625C15.2461 14.8828 15.668 14.6133 15.9961 14.1914L18.0117 11.5195C18.3633 11.0625 18.3633 10.4883 18.0117 10.043L15.9961 7.39453C15.668 6.97266 15.3516 6.69141 14.625 6.69141H6.94922ZM6.69141 9.66797C7.30078 9.66797 7.81641 10.1836 7.81641 10.793C7.81641 11.4023 7.30078 11.9062 6.69141 11.9062C6.09375 11.9062 5.57812 11.4023 5.57812 10.793C5.57812 10.1836 6.09375 9.66797 6.69141 9.66797ZM10.793 11.0508C11.4023 11.0508 11.9062 11.5664 11.9062 12.1641C11.9062 12.7734 11.4023 13.2891 10.793 13.2891C10.1719 13.2891 9.66797 12.7734 9.66797 12.1641C9.66797 11.5664 10.1719 11.0508 10.793 11.0508ZM14.8828 9.66797C15.4805 9.66797 15.9961 10.1836 15.9961 10.793C15.9961 11.4023 15.4805 11.9062 14.8828 11.9062C14.2734 11.9062 13.7695 11.4023 13.7695 10.793C13.7695 10.1836 14.2734 9.66797 14.8828 9.66797Z" fill="black" fill-opacity="0.85"/>
</svg>
