<svg width="24" height="24" viewBox="0 0 24 24" fill="none" xmlns="http://www.w3.org/2000/svg">
<path d="M11.9531 23.9062C18.4922 23.9062 23.9062 18.4805 23.9062 11.9531C23.9062 5.41406 18.4805 0 11.9414 0C5.41406 0 0 5.41406 0 11.9531C0 18.4805 5.42578 23.9062 11.9531 23.9062Z" fill="#FFCC00"/>
<path d="M11.9531 7.94531C11.1094 7.94531 10.4062 7.24219 10.4062 6.39844C10.4062 5.55469 11.1094 4.85156 11.9531 4.85156C12.7969 4.85156 13.5 5.55469 13.5 6.39844C13.5 7.24219 12.7969 7.94531 11.9531 7.94531ZM6.65625 14.3203C5.40234 14.3203 4.38281 13.2891 4.38281 12.0352C4.38281 10.7812 5.40234 9.75 6.65625 9.75C7.93359 9.75 8.94141 10.7812 8.94141 12.0352C8.94141 13.2891 7.93359 14.3203 6.65625 14.3203ZM17.25 14.3203C15.9727 14.3203 14.9648 13.2891 14.9648 12.0352C14.9648 10.7812 15.9727 9.75 17.25 9.75C18.5039 9.75 19.5234 10.7812 19.5234 12.0352C19.5234 13.2891 18.5039 14.3203 17.25 14.3203Z" fill="black" fill-opacity="0.85"/>
</svg>
