<svg width="27" height="26" viewBox="0 0 27 26" fill="none" xmlns="http://www.w3.org/2000/svg">
<path d="M4.64062 5.36719H6.45703V3.5625C6.45703 2.57812 6.96094 2.09766 7.93359 2.09766H18.5391C19.5234 2.09766 20.0156 2.57812 20.0156 3.5625V5.34375H21.832V3.69141C21.832 1.40625 20.6953 0.386719 18.5156 0.386719H7.95703C5.89453 0.386719 4.64062 1.40625 4.64062 3.69141V5.36719Z" fill="black" fill-opacity="0.85"/>
<path d="M3.49219 22.1484H22.9922C25.2656 22.1484 26.4727 21 26.4727 18.7148V7.74609C26.4727 5.47266 25.2656 4.3125 22.9922 4.3125H3.49219C1.32422 4.3125 0 5.47266 0 7.74609V18.7148C0 21 1.20703 22.1484 3.49219 22.1484ZM1.89844 18.8086V7.65234C1.89844 6.62109 2.42578 6.08203 3.46875 6.08203H23.0156C24.0469 6.08203 24.5859 6.62109 24.5859 7.65234V18.8086C24.5859 19.8398 24.0469 20.3789 23.0156 20.3789H3.46875C2.42578 20.3789 1.89844 19.8398 1.89844 18.8086ZM20.3906 10.3242C21.1758 10.3242 21.8438 9.66797 21.8438 8.85938C21.8438 8.07422 21.1758 7.40625 20.3906 7.40625C19.582 7.40625 18.9258 8.07422 18.9258 8.85938C18.9258 9.66797 19.582 10.3242 20.3906 10.3242Z" fill="black" fill-opacity="0.85"/>
<path d="M6.96094 25.6289H19.5117C21 25.6289 21.75 24.9492 21.75 23.3906V13.8281C21.75 12.2695 21 11.5898 19.5117 11.5898H6.96094C5.54297 11.5898 4.72266 12.2695 4.72266 13.8281V23.3906C4.72266 24.9492 5.47266 25.6289 6.96094 25.6289Z" fill="white"/>
<path d="M6.96094 25.6289H19.5117C21 25.6289 21.75 24.9492 21.75 23.3906V13.8281C21.75 12.2695 21 11.5898 19.5117 11.5898H6.96094C5.54297 11.5898 4.72266 12.2695 4.72266 13.8281V23.3906C4.72266 24.9492 5.47266 25.6289 6.96094 25.6289ZM7.54688 23.8594C6.92578 23.8594 6.60938 23.5547 6.60938 22.9219V14.2852C6.60938 13.6523 6.92578 13.3594 7.54688 13.3594H18.9375C19.5703 13.3594 19.8633 13.6523 19.8633 14.2852V22.9219C19.8633 23.5547 19.5703 23.8594 18.9375 23.8594H7.54688ZM9.49219 16.4297C10.0781 16.4297 10.5586 15.9727 10.5586 15.375C10.5586 14.7891 10.0781 14.332 9.49219 14.332C8.91797 14.332 8.4375 14.7891 8.4375 15.375C8.4375 15.9727 8.91797 16.4297 9.49219 16.4297ZM9.49219 19.6523C10.0781 19.6523 10.5586 19.1953 10.5586 18.6094C10.5586 18.0234 10.0781 17.5547 9.49219 17.5547C8.91797 17.5547 8.4375 18.0234 8.4375 18.6094C8.4375 19.1953 8.91797 19.6523 9.49219 19.6523ZM9.49219 22.8867C10.0781 22.8867 10.5586 22.4297 10.5586 21.832C10.5586 21.2461 10.0781 20.7891 9.49219 20.7891C8.91797 20.7891 8.4375 21.2461 8.4375 21.832C8.4375 22.4297 8.91797 22.8867 9.49219 22.8867ZM16.9922 16.4297C17.5781 16.4297 18.0469 15.9727 18.0469 15.375C18.0469 14.7891 17.5781 14.332 16.9922 14.332C16.4062 14.332 15.9375 14.7891 15.9375 15.375C15.9375 15.9727 16.4062 16.4297 16.9922 16.4297ZM16.9922 19.6523C17.5781 19.6523 18.0469 19.1953 18.0469 18.6094C18.0469 18.0234 17.5781 17.5547 16.9922 17.5547C16.4062 17.5547 15.9375 18.0234 15.9375 18.6094C15.9375 19.1953 16.4062 19.6523 16.9922 19.6523ZM16.9922 22.8867C17.5781 22.8867 18.0469 22.4297 18.0469 21.832C18.0469 21.2461 17.5781 20.7891 16.9922 20.7891C16.4062 20.7891 15.9375 21.2461 15.9375 21.832C15.9375 22.4297 16.4062 22.8867 16.9922 22.8867Z" fill="black" fill-opacity="0.85"/>
</svg>
