<svg width="30" height="29" viewBox="0 0 30 29" fill="none" xmlns="http://www.w3.org/2000/svg">
<path d="M6.23438 7.25391H23.2969V4.5C23.2969 2.76562 21.9609 1.98047 20.0508 1.98047H9.49219C7.67578 1.98047 6.23438 2.76562 6.23438 4.5V7.25391Z" fill="black" fill-opacity="0.85"/>
<path d="M5.08594 24.3398H24.4453C27.5977 24.3398 29.5312 22.4766 29.5312 19.3008V9.76172C29.5312 6.58594 27.5977 4.72266 24.4453 4.72266H5.08594C2.05078 4.72266 0 6.58594 0 9.76172V19.3008C0 22.4766 1.93359 24.3398 5.08594 24.3398Z" fill="white"/>
<path d="M5.08594 22.7344H24.4453C26.7188 22.7344 27.9258 21.5859 27.9258 19.3008V9.76172C27.9258 7.47656 26.7188 6.31641 24.4453 6.31641H5.08594C2.92969 6.31641 1.60547 7.47656 1.60547 9.76172V19.3008C1.60547 21.5859 2.8125 22.7344 5.08594 22.7344ZM21.9844 11.6953C21.1523 11.6953 20.4727 11.0273 20.4727 10.1953C20.4727 9.375 21.1523 8.68359 21.9844 8.68359C22.793 8.68359 23.4844 9.375 23.4844 10.1953C23.4844 11.0156 22.793 11.6953 21.9844 11.6953Z" fill="black" fill-opacity="0.85"/>
<path d="M5.44922 25.6406C5.44922 27.4688 6.80859 28.8164 8.625 28.8164H20.9062C22.7344 28.8164 24.082 27.4688 24.082 25.6406V16.2305C24.082 14.6836 22.9219 13.5234 21.375 13.5234H8.15625C6.62109 13.5234 5.44922 14.6836 5.44922 16.2305V25.6406Z" fill="white"/>
<path d="M7.05469 25.6406C7.05469 26.5898 7.6875 27.2227 8.625 27.2227H20.9062C21.8555 27.2227 22.4883 26.5898 22.4883 25.6406V16.2305C22.4883 15.5625 22.043 15.1289 21.375 15.1289H8.15625C7.5 15.1289 7.05469 15.5625 7.05469 16.2305V25.6406ZM11.1211 25.4531C10.5469 25.4531 10.0664 24.9961 10.0664 24.3984C10.0664 23.8125 10.5469 23.3555 11.1211 23.3555C11.707 23.3555 12.1875 23.8125 12.1875 24.3984C12.1875 24.9961 11.707 25.4531 11.1211 25.4531ZM11.1211 22.2188C10.5469 22.2188 10.0664 21.7617 10.0664 21.1758C10.0664 20.5781 10.5469 20.1211 11.1211 20.1211C11.707 20.1211 12.1875 20.5781 12.1875 21.1758C12.1875 21.7617 11.707 22.2188 11.1211 22.2188ZM11.1211 18.9961C10.5469 18.9961 10.0664 18.5391 10.0664 17.9414C10.0664 17.3555 10.5469 16.8984 11.1211 16.8984C11.707 16.8984 12.1875 17.3555 12.1875 17.9414C12.1875 18.5391 11.707 18.9961 11.1211 18.9961ZM18.4219 25.4531C17.8477 25.4531 17.3672 24.9961 17.3672 24.3984C17.3672 23.8125 17.8477 23.3555 18.4219 23.3555C19.0078 23.3555 19.4883 23.8125 19.4883 24.3984C19.4883 24.9961 19.0078 25.4531 18.4219 25.4531ZM18.4219 22.2188C17.8477 22.2188 17.3672 21.7617 17.3672 21.1758C17.3672 20.5781 17.8477 20.1211 18.4219 20.1211C19.0078 20.1211 19.4883 20.5781 19.4883 21.1758C19.4883 21.7617 19.0078 22.2188 18.4219 22.2188ZM18.4219 18.9961C17.8477 18.9961 17.3672 18.5391 17.3672 17.9414C17.3672 17.3555 17.8477 16.8984 18.4219 16.8984C19.0078 16.8984 19.4883 17.3555 19.4883 17.9414C19.4883 18.5391 19.0078 18.9961 18.4219 18.9961Z" fill="black" fill-opacity="0.85"/>
</svg>
