<svg width="21" height="22" viewBox="0 0 21 22" fill="none" xmlns="http://www.w3.org/2000/svg">
<path d="M1.06641 13.5234C1.37109 13.5234 1.62891 13.4297 1.82812 13.2188L10.8984 3.9375H9.45703L18.5273 13.2188C18.7266 13.418 18.9844 13.5234 19.2891 13.5234C19.9102 13.5234 20.3555 13.0664 20.3555 12.457C20.3555 12.1523 20.2383 11.9062 20.0391 11.6953L10.9688 2.40234C10.7578 2.19141 10.4883 2.0625 10.1836 2.0625C9.87891 2.0625 9.60938 2.17969 9.38672 2.40234L0.316406 11.6953C0.105469 11.9062 0 12.1523 0 12.457C0 13.0664 0.457031 13.5234 1.06641 13.5234ZM1.37109 2.09766H18.9609C19.5703 2.09766 19.9922 1.65234 19.9922 1.04297C19.9922 0.433594 19.5703 0 18.9609 0H1.37109C0.773438 0 0.363281 0.433594 0.363281 1.04297C0.363281 1.65234 0.773438 2.09766 1.37109 2.09766Z" fill="black" fill-opacity="0.85"/>
</svg>
