<svg width="28" height="23" viewBox="0 0 28 23" fill="none" xmlns="http://www.w3.org/2000/svg">
<path d="M0 19.1133C0 21.4336 1.19531 22.6523 3.50391 22.6523H18C20.332 22.6523 21.5508 21.457 21.5508 19.1602V14.2148C21.5508 13.9805 21.7383 13.875 21.9727 14.0625C22.6172 14.5547 23.3789 14.9531 24.3867 14.9531C26.3789 14.9531 27.9258 13.3828 27.9258 11.3672C27.9258 9.36328 26.3789 7.79297 24.3867 7.79297C23.3789 7.79297 22.6172 8.19141 21.9727 8.68359C21.7383 8.87109 21.5508 8.76562 21.5508 8.53125V3.49219C21.5508 1.19531 20.332 0 18 0H3.50391C1.19531 0 0 1.21875 0 3.53906V8.56641C0 9.32812 0.597656 9.83203 1.30078 9.83203C1.6875 9.83203 2.09766 9.66797 2.46094 9.31641C3.01172 8.80078 3.69141 8.14453 5.05078 8.14453C6.82031 8.14453 8.21484 9.55078 8.21484 11.3438C8.21484 13.1367 6.82031 14.543 5.05078 14.543C3.69141 14.543 3.01172 13.875 2.46094 13.3594C2.09766 13.0195 1.6875 12.8555 1.30078 12.8555C0.597656 12.8555 0 13.3594 0 14.1211V19.1133Z" fill="black" fill-opacity="0.85"/>
</svg>
