<svg width="22" height="22" viewBox="0 0 22 22" fill="none" xmlns="http://www.w3.org/2000/svg">
<path d="M3.67969 21.5977H17.8945C20.3555 21.5977 21.5742 20.3789 21.5742 17.9648V3.65625C21.5742 1.24219 20.3555 0.0234375 17.8945 0.0234375H3.67969C1.23047 0.0234375 0 1.23047 0 3.65625V17.9648C0 20.3906 1.23047 21.5977 3.67969 21.5977Z" fill="#FFCC00"/>
<path d="M10.793 16.4648C7.69922 16.4648 5.55469 14.0742 5.55469 10.6758C5.55469 7.26562 7.69922 4.88672 10.793 4.88672C13.8867 4.88672 16.0312 7.26562 16.0312 10.6758C16.0312 12.6914 15.2812 14.332 14.0391 15.3281L14.7656 16.3008C14.9883 16.6055 15.0586 16.7461 15.0586 16.9688C15.0586 17.3906 14.7656 17.6836 14.332 17.6836C14.0273 17.6836 13.8047 17.5664 13.5703 17.2383L12.7266 16.1133C12.1523 16.3359 11.4961 16.4648 10.793 16.4648ZM10.793 14.9297C11.1445 14.9297 11.4609 14.8828 11.7539 14.7891L11.168 13.9805C11.0039 13.7578 10.9336 13.582 10.9336 13.3711C10.9336 12.9844 11.2617 12.6797 11.6602 12.6797C11.9414 12.6797 12.1289 12.7734 12.3164 13.0195L13.0078 13.9453C13.6992 13.2188 14.0977 12.082 14.0977 10.6758C14.0977 8.09766 12.7969 6.42188 10.793 6.42188C8.80078 6.42188 7.5 8.09766 7.5 10.6758C7.5 13.2539 8.80078 14.9297 10.793 14.9297Z" fill="black" fill-opacity="0.85"/>
</svg>
