<svg width="26" height="26" viewBox="0 0 26 26" fill="none" xmlns="http://www.w3.org/2000/svg">
<path d="M6.96094 25.8867C7.41797 25.8867 7.75781 25.6523 8.30859 25.1367L12.5391 21.2695H20.4609C23.9531 21.2695 25.8281 19.3477 25.8281 15.9141V6.9375C25.8281 3.50391 23.9531 1.57031 20.4609 1.57031H5.36719C1.875 1.57031 0 3.49219 0 6.9375V15.9141C0 19.3594 1.875 21.2695 5.36719 21.2695H5.91797V24.6797C5.91797 25.4062 6.29297 25.8867 6.96094 25.8867Z" fill="#FFCC00"/>
<path d="M12.6797 13.9219C12.0469 13.9219 11.707 13.5938 11.707 12.9609C11.707 12.9141 11.707 12.8555 11.707 12.8086C11.707 11.6133 12.3633 10.9805 13.2188 10.3711C14.2852 9.63281 14.7891 9.23438 14.7891 8.41406C14.7891 7.5 14.0742 6.87891 12.9727 6.87891C12.1758 6.87891 11.543 7.27734 11.1094 7.98047L10.8984 8.27344C10.6758 8.55469 10.418 8.75391 10.0078 8.75391C9.59766 8.75391 9.16406 8.46094 9.16406 7.92188C9.16406 7.71094 9.21094 7.51172 9.26953 7.32422C9.60938 6.21094 10.9688 5.23828 13.0547 5.23828C15.1172 5.23828 16.9102 6.30469 16.9102 8.32031C16.9102 9.77344 16.0664 10.4766 14.8945 11.25C14.0508 11.8008 13.6523 12.2344 13.6523 12.9141C13.6523 12.9492 13.6523 13.0078 13.6523 13.0547C13.6523 13.5352 13.2891 13.9219 12.6797 13.9219ZM12.6445 17.5195C11.9531 17.5195 11.3438 16.9688 11.3438 16.2656C11.3438 15.5742 11.9414 15.0117 12.6445 15.0117C13.3594 15.0117 13.957 15.5625 13.957 16.2656C13.957 16.9805 13.3477 17.5195 12.6445 17.5195Z" fill="black" fill-opacity="0.85"/>
</svg>
