<svg width="26" height="26" viewBox="0 0 26 26" fill="none" xmlns="http://www.w3.org/2000/svg">
<path d="M7.20703 25.7461C7.78125 25.7461 8.17969 25.4414 8.89453 24.8086L12.9375 21.2109H20.4609C23.9531 21.2109 25.8281 19.2773 25.8281 15.8438V6.86719C25.8281 3.43359 23.9531 1.5 20.4609 1.5H5.36719C1.875 1.5 0 3.42188 0 6.86719V15.8438C0 19.2891 1.875 21.2109 5.36719 21.2109H5.92969V24.2578C5.92969 25.1602 6.38672 25.7461 7.20703 25.7461ZM7.6875 23.6016V20.2031C7.6875 19.5703 7.44141 19.3242 6.80859 19.3242H5.36719C3 19.3242 1.88672 18.1172 1.88672 15.832V6.86719C1.88672 4.58203 3 3.38672 5.36719 3.38672H20.4609C22.8164 3.38672 23.9414 4.58203 23.9414 6.86719V15.832C23.9414 18.1172 22.8164 19.3242 20.4609 19.3242H12.8672C12.2109 19.3242 11.8828 19.418 11.4375 19.875L7.6875 23.6016Z" fill="#007AFF"/>
<path d="M7.25391 10.1016C7.25391 11.4375 8.08594 12.4688 9.41016 12.4688C9.90234 12.4688 10.3945 12.3867 10.6992 12H10.793C10.3594 12.9727 9.45703 13.5938 8.69531 13.793C8.26172 13.9102 8.13281 14.0977 8.13281 14.3789C8.13281 14.6719 8.37891 14.918 8.70703 14.918C9.89062 14.918 12.2695 13.5117 12.2695 10.5352C12.2695 8.94141 11.2383 7.73438 9.71484 7.73438C8.30859 7.73438 7.25391 8.70702 7.25391 10.1016ZM13.582 10.1016C13.582 11.4375 14.4141 12.4688 15.7383 12.4688C16.2305 12.4688 16.7227 12.3867 17.0273 12H17.1211C16.6875 12.9727 15.7852 13.5938 15.0234 13.793C14.6016 13.9102 14.4609 14.0977 14.4609 14.3789C14.4609 14.6719 14.707 14.918 15.0352 14.918C16.2188 14.918 18.5977 13.5117 18.5977 10.5352C18.5977 8.94141 17.5664 7.73438 16.043 7.73438C14.6367 7.73438 13.582 8.70702 13.582 10.1016Z" fill="black" fill-opacity="0.85"/>
</svg>
