<svg width="24" height="24" viewBox="0 0 24 24" fill="none" xmlns="http://www.w3.org/2000/svg">
<path d="M11.9531 23.9062C18.4922 23.9062 23.9062 18.4805 23.9062 11.9531C23.9062 5.41406 18.4805 0 11.9414 0C5.41406 0 0 5.41406 0 11.9531C0 18.4805 5.42578 23.9062 11.9531 23.9062ZM11.9531 21.9141C6.42188 21.9141 2.00391 17.4844 2.00391 11.9531C2.00391 6.42188 6.41016 1.99219 11.9414 1.99219C17.4727 1.99219 21.9141 6.42188 21.9141 11.9531C21.9141 17.4844 17.4844 21.9141 11.9531 21.9141Z" fill="#007AFF"/>
<path d="M8.94141 17.3203C9.55078 17.3203 9.89062 16.9219 9.89062 16.2773V13.3594H12.0703L14.0977 16.6992C14.3789 17.1562 14.625 17.3203 15.0352 17.3203C15.5391 17.3203 15.8906 16.9922 15.8906 16.5234C15.8906 16.2656 15.8203 16.0781 15.668 15.8438L13.9102 13.0898C15.293 12.6328 16.1836 11.4023 16.1836 9.94922C16.1836 7.83984 14.6719 6.50391 12.293 6.50391H8.9297C8.33204 6.50391 8.01562 6.92578 8.01562 7.55859V16.2773C8.01562 16.8984 8.34375 17.3203 8.94141 17.3203ZM9.89062 11.9883V7.93359H12.0703C13.418 7.93359 14.332 8.68359 14.332 9.99609C14.332 11.2734 13.4414 11.9883 12.0234 11.9883H9.89062Z" fill="black" fill-opacity="0.85"/>
</svg>
