<svg width="27" height="31" viewBox="0 0 27 31" fill="none" xmlns="http://www.w3.org/2000/svg">
<path d="M13.4531 26.6133C16.2891 26.6133 17.9766 25.2773 17.9766 23.0273V19.0664C17.9766 16.8164 16.2891 15.4805 13.4531 15.4805C10.6055 15.4805 8.91797 16.8164 8.91797 19.0664V23.0273C8.91797 25.2773 10.6055 26.6133 13.4531 26.6133Z" fill="#007AFF"/>
<path d="M13.4531 23.0039C21.457 23.0039 26.8945 19.2656 26.8945 13.7344C26.8945 8.20312 21.4453 4.46484 13.4297 4.46484C5.4375 4.46484 0 8.21484 0 13.7344C0 19.2656 5.4375 23.0039 13.4531 23.0039Z" fill="white"/>
<path d="M13.4531 21.6445C20.7656 21.6445 25.5352 18.4102 25.5352 13.7344C25.5352 9.07031 20.7539 5.83594 13.4297 5.83594C6.12891 5.83594 1.37109 9.07031 1.37109 13.7344C1.37109 18.4102 6.12891 21.6445 13.4531 21.6445ZM13.4531 19.6289C7.48828 19.6289 3.49219 17.2383 3.49219 13.7344C3.49219 10.2305 7.48828 7.85156 13.4297 7.85156C19.3945 7.85156 23.4141 10.2305 23.4141 13.7344C23.4141 17.2383 19.4062 19.6289 13.4531 19.6289Z" fill="#007AFF"/>
<path d="M11.4375 17.3438C10.9922 17.3438 10.7109 17.0273 10.7109 16.5352V10.8281C10.7109 10.3125 10.9922 9.99609 11.4375 9.99609H13.6406C15.2461 9.99609 16.3008 10.9336 16.3008 12.3867C16.3008 13.3359 15.7617 14.1445 14.8828 14.4961L15.9727 16.1953C16.0781 16.3594 16.1367 16.5117 16.1367 16.7109C16.1367 17.0977 15.8203 17.3672 15.4453 17.3672C15.1406 17.3672 14.9414 17.2383 14.7422 16.8984L13.418 14.7422H12.1875V16.5352C12.1875 17.0273 11.8945 17.3438 11.4375 17.3438ZM12.1875 13.5938H13.4648C14.3438 13.5938 14.8359 13.1602 14.8359 12.4102C14.8359 11.6602 14.332 11.1914 13.4883 11.1914H12.1875V13.5938Z" fill="black" fill-opacity="0.85"/>
<path d="M10.4997 1.42969L12.8317 4.57031C13.1481 5.00391 13.7458 5.00391 14.0622 4.57031L16.4177 1.42969C16.8864 0.808594 16.6403 0 15.7966 0H11.0974C10.3005 0 10.0075 0.785156 10.4997 1.42969Z" fill="black" fill-opacity="0.85"/>
</svg>
