<svg width="28" height="23" viewBox="0 0 28 23" fill="none" xmlns="http://www.w3.org/2000/svg">
<path d="M13.5938 22.9336C16.4297 22.9336 18.1172 21.5977 18.1172 19.3477V15.3867C18.1172 13.1367 16.4297 11.8008 13.5938 11.8008C10.7461 11.8008 9.05859 13.1367 9.05859 15.3867V19.3477C9.05859 21.5977 10.7461 22.9336 13.5938 22.9336Z" fill="#FFCC00"/>
<path d="M13.5938 19.207C21.9492 19.207 27.1758 15.1992 27.1758 10.0547C27.1758 4.91016 21.9492 0.902344 13.5703 0.902344C5.22656 0.902344 0 4.91016 0 10.0547C0 15.1992 5.22656 19.207 13.5938 19.207Z" fill="white"/>
<path d="M13.5938 17.6133C21.082 17.6133 25.582 14.2383 25.582 10.0547C25.582 5.88281 21.082 2.50781 13.5703 2.50781C6.09375 2.50781 1.60547 5.88281 1.60547 10.0547C1.60547 14.2383 6.09375 17.6133 13.5938 17.6133Z" fill="#FFCC00"/>
<path d="M11.6719 13.6641C11.2266 13.6641 10.9453 13.3477 10.9453 12.8555V7.14844C10.9453 6.63281 11.2266 6.31641 11.6719 6.31641H13.875C15.4805 6.31641 16.5352 7.25391 16.5352 8.70703C16.5352 9.65625 15.9961 10.4648 15.1172 10.8164L16.207 12.5156C16.3125 12.6797 16.3711 12.832 16.3711 13.0312C16.3711 13.418 16.0547 13.6875 15.6797 13.6875C15.375 13.6875 15.1758 13.5586 14.9766 13.2188L13.6523 11.0625H12.4219V12.8555C12.4219 13.3477 12.1289 13.6641 11.6719 13.6641ZM12.4219 9.91406H13.6992C14.5781 9.91406 15.0703 9.48047 15.0703 8.73047C15.0703 7.98047 14.5664 7.51172 13.7227 7.51172H12.4219V9.91406Z" fill="black" fill-opacity="0.85"/>
</svg>
