<svg width="27" height="23" viewBox="0 0 27 23" fill="none" xmlns="http://www.w3.org/2000/svg">
<path d="M13.4531 22.9336C16.2891 22.9336 17.9766 21.5977 17.9766 19.3477V15.3867C17.9766 13.1367 16.2891 11.8008 13.4531 11.8008C10.6055 11.8008 8.91797 13.1367 8.91797 15.3867V19.3477C8.91797 21.5977 10.6055 22.9336 13.4531 22.9336Z" fill="#007AFF"/>
<path d="M13.4531 19.3242C21.457 19.3242 26.8945 15.5859 26.8945 10.0547C26.8945 4.52344 21.4453 0.785156 13.4297 0.785156C5.4375 0.785156 0 4.53516 0 10.0547C0 15.5859 5.4375 19.3242 13.4531 19.3242Z" fill="white"/>
<path d="M13.4531 17.9648C20.7656 17.9648 25.5352 14.7305 25.5352 10.0547C25.5352 5.39062 20.7539 2.15625 13.4297 2.15625C6.12891 2.15625 1.37109 5.39062 1.37109 10.0547C1.37109 14.7305 6.12891 17.9648 13.4531 17.9648ZM13.4531 15.9492C7.48828 15.9492 3.49219 13.5586 3.49219 10.0547C3.49219 6.55078 7.48828 4.17188 13.4297 4.17188C19.3945 4.17188 23.4141 6.55078 23.4141 10.0547C23.4141 13.5586 19.4062 15.9492 13.4531 15.9492Z" fill="#007AFF"/>
<path d="M11.4961 13.5586C11.9414 13.5586 12.2227 13.2539 12.2227 12.7734V11.0273H13.418L14.707 13.125C14.9062 13.4531 15.0938 13.5703 15.3867 13.5703C15.75 13.5703 16.0547 13.3125 16.0547 12.9375C16.0547 12.75 15.9961 12.5977 15.8906 12.4453L14.8359 10.793C15.6914 10.4531 16.207 9.66797 16.207 8.74219C16.207 7.33594 15.1875 6.43359 13.6406 6.43359H11.4961C11.0742 6.43359 10.8047 6.73828 10.8047 7.23047V12.7734C10.8047 13.2539 11.0742 13.5586 11.4961 13.5586ZM12.2227 9.91406V7.58203H13.4883C14.3086 7.58203 14.8008 8.03906 14.8008 8.76562C14.8008 9.49219 14.3203 9.91406 13.4648 9.91406H12.2227Z" fill="black" fill-opacity="0.85"/>
</svg>
