<svg width="28" height="31" viewBox="0 0 28 31" fill="none" xmlns="http://www.w3.org/2000/svg">
<path d="M13.5938 26.6133C16.4297 26.6133 18.1172 25.2773 18.1172 23.0273V19.0664C18.1172 16.8164 16.4297 15.4805 13.5938 15.4805C10.7461 15.4805 9.05859 16.8164 9.05859 19.0664V23.0273C9.05859 25.2773 10.7461 26.6133 13.5938 26.6133Z" fill="#FFCC00"/>
<path d="M13.5938 22.8867C21.9492 22.8867 27.1758 18.8789 27.1758 13.7344C27.1758 8.58984 21.9492 4.58203 13.5703 4.58203C5.22656 4.58203 0 8.58984 0 13.7344C0 18.8789 5.22656 22.8867 13.5938 22.8867Z" fill="white"/>
<path d="M13.5938 21.293C21.082 21.293 25.582 17.918 25.582 13.7344C25.582 9.5625 21.082 6.1875 13.5703 6.1875C6.09375 6.1875 1.60547 9.5625 1.60547 13.7344C1.60547 17.918 6.09375 21.293 13.5938 21.293Z" fill="#FFCC00"/>
<path d="M11.6719 17.3438C11.2266 17.3438 10.9453 17.0273 10.9453 16.5352V10.8281C10.9453 10.3125 11.2266 9.99609 11.6719 9.99609H13.875C15.4805 9.99609 16.5352 10.9336 16.5352 12.3867C16.5352 13.3359 15.9961 14.1445 15.1172 14.4961L16.207 16.1953C16.3125 16.3594 16.3711 16.5117 16.3711 16.7109C16.3711 17.0977 16.0547 17.3672 15.6797 17.3672C15.375 17.3672 15.1758 17.2383 14.9766 16.8984L13.6523 14.7422H12.4219V16.5352C12.4219 17.0273 12.1289 17.3438 11.6719 17.3438ZM12.4219 13.5938H13.6992C14.5781 13.5938 15.0703 13.1602 15.0703 12.4102C15.0703 11.6602 14.5664 11.1914 13.7227 11.1914H12.4219V13.5938Z" fill="black" fill-opacity="0.85"/>
<path d="M10.7341 1.42969L13.0661 4.57031C13.3825 5.00391 13.9802 5.00391 14.2966 4.57031L16.652 1.42969C17.1208 0.808594 16.8747 0 16.0309 0H11.3317C10.5349 0 10.2419 0.785156 10.7341 1.42969Z" fill="black" fill-opacity="0.85"/>
</svg>
