<svg width="22" height="22" viewBox="0 0 22 22" fill="none" xmlns="http://www.w3.org/2000/svg">
<path d="M3.67969 21.5977H17.8945C20.3555 21.5977 21.5742 20.3789 21.5742 17.9648V3.65625C21.5742 1.24219 20.3555 0.0234375 17.8945 0.0234375H3.67969C1.23047 0.0234375 0 1.23047 0 3.65625V17.9648C0 20.3906 1.23047 21.5977 3.67969 21.5977Z" fill="#FFCC00"/>
<path d="M7.6875 16.3359C7.07812 16.3359 6.73828 15.8906 6.73828 15.2461V6.26953C6.73828 5.61328 7.06641 5.16797 7.67578 5.16797H11.168C13.6172 5.16797 15.1641 6.55078 15.1641 8.73047C15.1641 10.2305 14.25 11.4961 12.832 11.9648L14.6484 14.8008C14.7891 15.0469 14.8594 15.2344 14.8594 15.5039C14.8594 15.9961 14.4961 16.3359 13.9805 16.3359C13.5469 16.3359 13.3008 16.1602 13.0078 15.6914L10.9219 12.2461H8.67188V15.2461C8.67188 15.9141 8.33203 16.3359 7.6875 16.3359ZM8.67188 10.8281H10.875C12.3281 10.8281 13.2539 10.0898 13.2539 8.77734C13.2539 7.42969 12.3047 6.65625 10.9219 6.65625H8.67188V10.8281Z" fill="black" fill-opacity="0.85"/>
</svg>
