<svg width="22" height="22" viewBox="0 0 22 22" fill="none" xmlns="http://www.w3.org/2000/svg">
<path d="M3.67969 21.5977H17.8945C20.3555 21.5977 21.5742 20.3789 21.5742 17.9648V3.65625C21.5742 1.24219 20.3555 0.0234375 17.8945 0.0234375H3.67969C1.23047 0.0234375 0 1.23047 0 3.65625V17.9648C0 20.3906 1.23047 21.5977 3.67969 21.5977ZM3.70312 19.7109C2.53125 19.7109 1.88672 19.0898 1.88672 17.8711V3.75C1.88672 2.53125 2.53125 1.91016 3.70312 1.91016H17.8711C19.0312 1.91016 19.6875 2.53125 19.6875 3.75V17.8711C19.6875 19.0898 19.0312 19.7109 17.8711 19.7109H3.70312Z" fill="#007AFF"/>
<path d="M7.79297 16.1602C8.41406 16.1602 8.74219 15.7617 8.74219 15.1172V12.1992H10.9219L12.9492 15.5391C13.2305 15.9961 13.4766 16.1602 13.8867 16.1602C14.3906 16.1602 14.7422 15.832 14.7422 15.3633C14.7422 15.1055 14.6719 14.918 14.5312 14.6836L12.7734 11.9297C14.1445 11.4727 15.0352 10.2422 15.0352 8.78906C15.0352 6.67969 13.5352 5.34375 11.1562 5.34375H7.78125C7.18359 5.34375 6.86719 5.76562 6.86719 6.39844V15.1172C6.86719 15.7383 7.19531 16.1602 7.79297 16.1602ZM8.74219 10.8281V6.77344H10.9219C12.2695 6.77344 13.1836 7.52344 13.1836 8.83594C13.1836 10.1133 12.293 10.8281 10.875 10.8281H8.74219Z" fill="black" fill-opacity="0.85"/>
</svg>
