<svg width="24" height="24" viewBox="0 0 24 24" fill="none" xmlns="http://www.w3.org/2000/svg">
<path d="M11.9531 23.9062C18.4922 23.9062 23.9062 18.4805 23.9062 11.9531C23.9062 5.41406 18.4805 0 11.9414 0C5.41406 0 0 5.41406 0 11.9531C0 18.4805 5.42578 23.9062 11.9531 23.9062Z" fill="#FFCC00"/>
<path d="M7.48828 16.7578C6.9375 16.7578 6.62109 16.4062 6.62109 15.8672V8.20312C6.62109 7.65234 6.92578 7.32422 7.47656 7.32422H9.41016C11.2031 7.32422 12.3164 8.32031 12.3164 10.1953C12.3164 11.2383 11.918 12.2344 11.0039 12.7148L12.082 15.3164C12.2109 15.5742 12.2695 15.8086 12.2695 15.9375C12.2695 16.5234 11.8594 16.7578 11.4844 16.7578C11.0156 16.7578 10.7461 16.5 10.6055 16.0664L9.39844 13.0547H8.32031V15.8672C8.32031 16.418 8.00391 16.7578 7.48828 16.7578ZM8.32031 11.8242H9.26953C10.1953 11.8242 10.6172 11.1445 10.6172 10.2422C10.6172 9.31641 10.1484 8.67188 9.26953 8.67188H8.32031V11.8242ZM16.2773 16.7227C15.8086 16.7227 15.4336 16.3477 15.4336 15.8672V8.91797L14.3672 9.76172C14.2617 9.85547 14.1445 9.90234 13.9688 9.90234C13.6172 9.90234 13.3711 9.65625 13.3711 9.29297C13.3711 9 13.5234 8.76562 13.7344 8.625L14.9883 7.62891C15.2695 7.42969 15.6562 7.16016 16.1484 7.16016C16.7461 7.16016 17.1094 7.51172 17.1094 8.10938V15.8672C17.1094 16.3477 16.7344 16.7227 16.2773 16.7227Z" fill="black" fill-opacity="0.85"/>
</svg>
