<svg width="21" height="26" viewBox="0 0 21 26" fill="none" xmlns="http://www.w3.org/2000/svg">
<path d="M13.8633 25.1719C18.1055 25.1719 20.8477 22.4414 20.8477 18.1992V12.4219C20.8477 10.8164 20.3438 9.52734 19.3477 8.61328L11.9531 1.80469C10.5 0.480469 8.96484 0 7.13672 0H3.51562C1.40625 0 0 1.42969 0 3.55078V21.6562C0 23.8594 1.33594 25.1719 3.55078 25.1719H13.8633ZM13.8281 23.2852H3.59766C2.36719 23.2852 1.88672 22.8633 1.88672 21.6211V3.57422C1.88672 2.56641 2.54297 1.88672 3.5625 1.88672H7.08984C8.54297 1.88672 9.60938 2.23828 10.6523 3.1875L18.0352 9.97266C18.6797 10.5586 18.9609 11.2734 18.9609 12.4453V18.1641C18.9609 21.4453 17.0977 23.2852 13.8281 23.2852Z" fill="#007AFF"/>
<path d="M5.33203 19.5C5.8125 19.5 6.10547 19.1719 6.10547 18.668V16.0195H7.13672L8.26172 18.8438C8.41406 19.2539 8.64844 19.5 9.08203 19.5C9.44531 19.5 9.82031 19.2773 9.82031 18.7266C9.82031 18.6094 9.76172 18.3867 9.65625 18.1406L8.625 15.6914C9.50391 15.2344 9.87891 14.2969 9.87891 13.3242C9.87891 11.5664 8.82422 10.6289 7.14844 10.6289H5.30859C4.80469 10.6289 4.52344 10.9336 4.52344 11.4492V18.668C4.52344 19.1602 4.80469 19.5 5.33203 19.5ZM6.10547 14.8594V11.8711H6.99609C7.82812 11.8711 8.27344 12.4922 8.27344 13.3594C8.27344 14.2148 7.88672 14.8594 6.99609 14.8594H6.10547ZM11.7773 19.3477H15.5273C15.9023 19.3477 16.1367 19.0898 16.1367 18.7148C16.1367 18.3047 15.8906 18.082 15.5273 18.082H12.9609V17.9883L14.5312 15.9961C15.6211 14.6484 15.9727 13.8633 15.9727 12.9023C15.9727 11.4492 14.9883 10.3828 13.4883 10.3828C12.1055 10.3828 11.0625 11.5312 11.0625 12.6562C11.0625 13.0547 11.2969 13.3359 11.707 13.3359C12.0703 13.3359 12.2812 13.1719 12.3984 12.8203C12.5977 12.0938 12.8672 11.6367 13.4883 11.6367C14.1328 11.6367 14.4961 12.2227 14.4961 12.9727C14.4961 13.8398 13.8984 14.7188 13.3242 15.4453L11.4492 17.8594C11.25 18.1055 11.0508 18.375 11.0508 18.7148C11.0508 19.0781 11.2852 19.3477 11.7773 19.3477Z" fill="black" fill-opacity="0.85"/>
</svg>
