<svg width="28" height="21" viewBox="0 0 28 21" fill="none" xmlns="http://www.w3.org/2000/svg">
<path d="M9.83203 0C3.03516 0 0 3.12891 0 9.52734V16.875C0 19.2422 1.21875 20.4375 3.59766 20.4375H23.4375C25.8164 20.4375 27.0352 19.2305 27.0352 16.875V9.52734C27.0352 3.12891 24 0 17.2031 0H9.83203Z" fill="#FFCC00"/>
<path d="M8.37891 15.082C7.82812 15.082 7.52344 14.7188 7.52344 14.1797V6.42188C7.52344 5.88281 7.82812 5.55469 8.36719 5.55469H10.3477C12.1523 5.55469 13.2773 6.55078 13.2773 8.44922C13.2773 9.49219 12.8789 10.5 11.9297 10.9922L13.043 13.6172C13.1484 13.8867 13.2305 14.1211 13.2305 14.2617C13.2305 14.8594 12.8086 15.082 12.4219 15.082C11.9648 15.082 11.707 14.8242 11.5312 14.3789L10.3242 11.3438H9.23438V14.1797C9.23438 14.7305 8.90625 15.082 8.37891 15.082ZM9.23438 10.0898H10.1836C11.1211 10.0898 11.543 9.39844 11.543 8.48438C11.543 7.54688 11.0742 6.90234 10.1836 6.90234H9.23438V10.0898ZM15.3164 14.9297C14.7891 14.9297 14.543 14.6367 14.543 14.2383C14.543 13.8633 14.7539 13.5938 14.9648 13.3125L16.9805 10.7344C17.6016 9.94922 18.2461 9 18.2461 8.07422C18.2461 7.25391 17.8594 6.63281 17.1562 6.63281C16.5 6.63281 16.207 7.13672 15.9961 7.91016C15.8672 8.28516 15.6328 8.47266 15.2461 8.47266C14.8125 8.47266 14.5547 8.15625 14.5547 7.72266C14.5547 6.51562 15.6797 5.28516 17.168 5.28516C18.7734 5.28516 19.8398 6.42188 19.8398 7.99219C19.8398 9.02344 19.4648 9.87891 18.293 11.3203L16.5938 13.4531V13.5586H19.3477C19.7578 13.5586 20.0156 13.793 20.0156 14.2383C20.0156 14.6484 19.7695 14.9297 19.3477 14.9297H15.3164Z" fill="black" fill-opacity="0.85"/>
</svg>
