<svg width="28" height="32" viewBox="0 0 28 32" fill="none" xmlns="http://www.w3.org/2000/svg">
<path d="M21.5273 13.3477C22.5352 13.3243 23.3555 12.5274 23.3555 11.5313C23.3555 10.5235 22.5352 9.70317 21.5273 9.69145C20.5195 9.67973 19.6875 10.5235 19.6875 11.5313C19.6875 12.5274 20.5195 13.3594 21.5273 13.3477ZM21.5273 18.6797C22.5352 18.6797 23.3555 17.8477 23.3555 16.8399C23.3555 15.8321 22.5352 15.0118 21.5273 15.0118C20.5195 15.0118 19.6875 15.8321 19.6875 16.8399C19.6875 17.8477 20.5195 18.6797 21.5273 18.6797ZM11.0625 11.0625C11.5312 11.0625 11.9062 10.6641 11.9062 10.1719C11.9062 9.70317 11.5312 9.31645 11.0625 9.31645C10.5938 9.31645 10.207 9.70317 10.207 10.1719C10.207 10.6641 10.5938 11.0625 11.0625 11.0625ZM13.957 11.8829C14.4492 11.8829 14.8125 11.4844 14.8125 11.0157C14.8125 10.5235 14.4492 10.1485 13.957 10.1485C13.4883 10.1485 13.125 10.5235 13.125 11.0157C13.125 11.4844 13.4883 11.8829 13.957 11.8829ZM16.1484 13.9688C16.6172 13.9688 17.0156 13.5938 17.0156 13.125C17.0156 12.6329 16.6172 12.2344 16.1484 12.2344C15.6797 12.2344 15.3047 12.6329 15.3047 13.125C15.3047 13.5938 15.6797 13.9688 16.1484 13.9688ZM16.8867 16.7813C17.3555 16.7813 17.7305 16.3946 17.7305 15.9258C17.7305 15.4454 17.3555 15.0704 16.8867 15.0704C16.4062 15.0704 16.0312 15.4454 16.0312 15.9258C16.0312 16.3946 16.4062 16.7813 16.8867 16.7813ZM16.1484 19.6055C16.6172 19.6055 17.0156 19.2071 17.0156 18.7266C17.0156 18.2461 16.6172 17.8711 16.1484 17.8711C15.6797 17.8711 15.3047 18.2461 15.3047 18.7266C15.3047 19.2071 15.6797 19.6055 16.1484 19.6055ZM13.957 21.7618C14.4492 21.7618 14.8125 21.375 14.8125 20.8946C14.8125 20.4258 14.4492 20.0274 13.957 20.0274C13.4883 20.0274 13.125 20.4258 13.125 20.8946C13.125 21.375 13.4883 21.7618 13.957 21.7618ZM11.0625 22.6524C11.5312 22.6524 11.9062 22.2657 11.9062 21.7969C11.9062 21.3047 11.5312 20.9063 11.0625 20.9063C10.5938 20.9063 10.207 21.3047 10.207 21.7969C10.207 22.2657 10.5938 22.6524 11.0625 22.6524ZM8.15625 21.7618C8.625 21.7618 8.98828 21.375 8.98828 20.8946C8.98828 20.4258 8.625 20.0274 8.15625 20.0274C7.66406 20.0274 7.30078 20.4258 7.30078 20.8946C7.30078 21.375 7.66406 21.7618 8.15625 21.7618ZM5.97656 19.6055C6.44531 19.6055 6.80859 19.2071 6.80859 18.7266C6.80859 18.2461 6.44531 17.8711 5.97656 17.8711C5.49609 17.8711 5.09766 18.2461 5.09766 18.7266C5.09766 19.2071 5.49609 19.6055 5.97656 19.6055ZM5.23828 16.7813C5.70703 16.7813 6.08203 16.3946 6.08203 15.9258C6.08203 15.4454 5.70703 15.0704 5.23828 15.0704C4.76953 15.0704 4.38281 15.4454 4.38281 15.9258C4.38281 16.3946 4.76953 16.7813 5.23828 16.7813ZM5.97656 13.9688C6.44531 13.9688 6.80859 13.5938 6.80859 13.125C6.80859 12.6329 6.44531 12.2344 5.97656 12.2344C5.49609 12.2344 5.09766 12.6329 5.09766 13.125C5.09766 13.5938 5.49609 13.9688 5.97656 13.9688ZM8.15625 11.8829C8.625 11.8829 8.98828 11.4844 8.98828 11.0157C8.98828 10.5235 8.625 10.1485 8.15625 10.1485C7.66406 10.1485 7.30078 10.5235 7.30078 11.0157C7.30078 11.4844 7.66406 11.8829 8.15625 11.8829ZM11.0625 14.0391C11.5312 14.0391 11.9062 13.6524 11.9062 13.1836C11.9062 12.7032 11.5312 12.3047 11.0625 12.3047C10.5938 12.3047 10.207 12.7032 10.207 13.1836C10.207 13.6524 10.5938 14.0391 11.0625 14.0391ZM13.7812 15.211C14.2617 15.211 14.625 14.8125 14.625 14.3555C14.625 13.8868 14.2617 13.5 13.7812 13.5C13.3125 13.5 12.9141 13.8868 12.9141 14.3555C12.9141 14.8125 13.3125 15.211 13.7812 15.211ZM13.7812 18.4688C14.2617 18.4688 14.625 18.0938 14.625 17.625C14.625 17.1329 14.2617 16.7461 13.7812 16.7461C13.3125 16.7461 12.9141 17.1329 12.9141 17.625C12.9141 18.0938 13.3125 18.4688 13.7812 18.4688ZM11.0625 19.6641C11.5312 19.6641 11.9062 19.2657 11.9062 18.7852C11.9062 18.3164 11.5312 17.9297 11.0625 17.9297C10.5938 17.9297 10.207 18.3164 10.207 18.7852C10.207 19.2657 10.5938 19.6641 11.0625 19.6641ZM8.33203 18.4688C8.80078 18.4688 9.19922 18.0938 9.19922 17.625C9.19922 17.1329 8.80078 16.7461 8.33203 16.7461C7.86328 16.7461 7.48828 17.1329 7.48828 17.625C7.48828 18.0938 7.86328 18.4688 8.33203 18.4688ZM8.33203 15.211C8.80078 15.211 9.19922 14.8125 9.19922 14.3555C9.19922 13.8868 8.80078 13.5 8.33203 13.5C7.86328 13.5 7.48828 13.8868 7.48828 14.3555C7.48828 14.8125 7.86328 15.211 8.33203 15.211ZM11.0625 16.8399C11.5312 16.8399 11.9062 16.4532 11.9062 15.9844C11.9062 15.5157 11.5312 15.1289 11.0625 15.1289C10.5938 15.1289 10.207 15.5157 10.207 15.9844C10.207 16.4532 10.5938 16.8399 11.0625 16.8399ZM22.3828 7.1016L22.957 5.29692L6.78516 0.0469162C6.29297 -0.117146 5.75391 0.164104 5.60156 0.656291C5.4375 1.14848 5.71875 1.68754 6.21094 1.8516L22.3828 7.1016ZM3.67969 26.7774H23.9531C26.4141 26.7774 27.6328 25.5704 27.6328 23.1563V8.83598C27.6328 6.42192 26.4141 5.20317 23.9531 5.20317H3.67969C1.23047 5.20317 0 6.42192 0 8.83598V23.1563C0 25.5704 1.23047 26.7774 3.67969 26.7774ZM3.70312 24.8907C2.53125 24.8907 1.88672 24.2696 1.88672 23.0508V8.94145C1.88672 7.7227 2.53125 7.08989 3.70312 7.08989H23.9297C25.0898 7.08989 25.7461 7.7227 25.7461 8.94145V23.0508C25.7461 24.2696 25.0898 24.8907 23.9297 24.8907H3.70312Z" fill="black" fill-opacity="0.85"/>
</svg>
