<svg width="35" height="18" viewBox="0 0 35 18" fill="none" xmlns="http://www.w3.org/2000/svg">
<path d="M17.1211 0C7.64062 0 0 7.65234 0 17.1328C0 17.5664 0.339844 17.9062 0.761719 17.9062C1.19531 17.9062 1.53516 17.5664 1.53516 17.1328C1.53516 8.53125 8.50781 1.53516 17.1211 1.53516C25.7344 1.53516 32.7188 8.53125 32.7188 17.1328C32.7188 17.5664 33.0586 17.9062 33.4922 17.9062C33.9141 17.9062 34.2539 17.5664 34.2539 17.1328C34.2539 7.65234 26.6016 0 17.1211 0Z" fill="black" fill-opacity="0.85"/>
<path d="M17.1211 2.56641C9.05859 2.56641 2.56641 9.0703 2.56641 17.1328C2.56641 17.5664 2.89453 17.9062 3.31641 17.9062C3.75 17.9062 4.10156 17.5664 4.10156 17.1328C4.10156 9.94922 9.92578 4.10156 17.1211 4.10156C24.3164 4.10156 30.1641 9.94922 30.1641 17.1328C30.1641 17.5664 30.4922 17.9062 30.9258 17.9062C31.3477 17.9062 31.6992 17.5664 31.6992 17.1328C31.6992 9.0703 25.1953 2.56641 17.1211 2.56641Z" fill="black" fill-opacity="0.85"/>
<path d="M17.1211 5.12109C10.4766 5.12109 5.13281 10.4883 5.13281 17.1328C5.13281 17.5664 5.46094 17.9062 5.88281 17.9062C6.31641 17.9062 6.66797 17.5664 6.66797 17.1328C6.66797 11.3672 11.3438 6.65625 17.1211 6.65625C22.9102 6.65625 27.5977 11.3672 27.5977 17.1328C27.5977 17.5664 27.9258 17.9062 28.3594 17.9062C28.7812 17.9062 29.1328 17.5664 29.1328 17.1328C29.1328 10.4883 23.7656 5.12109 17.1211 5.12109Z" fill="black" fill-opacity="0.85"/>
<path d="M17.1211 7.6875C11.8828 7.6875 7.6875 11.8945 7.6875 17.1328C7.6875 17.5664 8.02734 17.9062 8.44922 17.9062C8.88281 17.9062 9.22266 17.5664 9.22266 17.1328C9.22266 12.7734 12.7617 9.22266 17.1211 9.22266C21.4805 9.22266 25.0312 12.7734 25.0312 17.1328C25.0312 17.5664 25.3594 17.9062 25.8047 17.9062C26.2266 17.9062 26.5664 17.5664 26.5664 17.1328C26.5664 11.8945 22.3594 7.6875 17.1211 7.6875Z" fill="black" fill-opacity="0.85"/>
<path d="M17.1211 10.2539C13.3125 10.2539 10.2539 13.3242 10.2539 17.1328C10.2539 17.5664 10.582 17.9062 11.0156 17.9062C11.4492 17.9062 11.7891 17.5664 11.7891 17.1328C11.7891 14.1914 14.168 11.7891 17.1211 11.7891C20.0742 11.7891 22.4648 14.1914 22.4648 17.1328C22.4648 17.5664 22.8047 17.9062 23.2383 17.9062C23.6602 17.9062 24 17.5664 24 17.1328C24 13.3242 20.9414 10.2539 17.1211 10.2539Z" fill="black" fill-opacity="0.85"/>
</svg>
