<svg width="28" height="21" viewBox="0 0 28 21" fill="none" xmlns="http://www.w3.org/2000/svg">
<path d="M9.83203 20.4375H17.2031C24 20.4375 27.0352 17.3086 27.0352 10.9102V3.55078C27.0352 1.19531 25.8164 0 23.4375 0H3.59766C1.21875 0 0 1.19531 0 3.55078V10.9102C0 17.3086 3.03516 20.4375 9.83203 20.4375Z" fill="#FFCC00"/>
<path d="M8.03906 15.082C7.48828 15.082 7.18359 14.7188 7.18359 14.1797V6.42188C7.18359 5.87109 7.48828 5.54297 8.02734 5.54297H10.0078C11.8125 5.54297 12.9375 6.55078 12.9375 8.4375C12.9375 9.49219 12.5391 10.5 11.5898 10.9922L12.7031 13.6055C12.8086 13.875 12.8906 14.1211 12.8906 14.25C12.8906 14.8477 12.4688 15.082 12.082 15.082C11.625 15.082 11.3672 14.8242 11.1914 14.3789L9.98438 11.3438H8.89453V14.1797C8.89453 14.7305 8.56641 15.082 8.03906 15.082ZM8.89453 10.0781H9.84375C10.7812 10.0781 11.2031 9.39844 11.2031 8.47266C11.2031 7.54688 10.7344 6.89062 9.84375 6.89062H8.89453V10.0781ZM15.3164 14.9297C14.7891 14.9297 14.4844 14.5781 14.4844 14.0508V6.43359C14.4844 5.91797 14.7773 5.53125 15.3164 5.53125H17.7188C19.0898 5.53125 20.0977 6.38672 20.0977 7.875C20.0977 8.80078 19.4766 9.78516 18.5977 9.9375V9.99609C19.6992 10.1016 20.3789 11.1445 20.3789 12.2812C20.3789 13.8398 19.4414 14.9297 17.7891 14.9297H15.3164ZM16.1602 9.52734H17.0977C17.9531 9.52734 18.457 8.98828 18.457 8.13281C18.457 7.38281 18.1172 6.83203 17.2383 6.83203H16.1602V9.52734ZM16.1602 13.6406H17.2852C18.2109 13.6406 18.668 13.0781 18.668 12.1406C18.668 11.1211 18.082 10.6641 17.2383 10.6641H16.1602V13.6406Z" fill="black" fill-opacity="0.85"/>
</svg>
