<svg width="24" height="24" viewBox="0 0 24 24" fill="none" xmlns="http://www.w3.org/2000/svg">
<path d="M11.9531 23.9062C18.4922 23.9062 23.9062 18.4805 23.9062 11.9531C23.9062 5.41406 18.4805 0 11.9414 0C5.41406 0 0 5.41406 0 11.9531C0 18.4805 5.42578 23.9062 11.9531 23.9062ZM11.9531 21.9141C6.42188 21.9141 2.00391 17.4844 2.00391 11.9531C2.00391 6.42188 6.41016 1.99219 11.9414 1.99219C17.4727 1.99219 21.9141 6.42188 21.9141 11.9531C21.9141 17.4844 17.4844 21.9141 11.9531 21.9141Z" fill="#007AFF"/>
<path d="M6.41016 16.8516C6.9375 16.8516 7.26562 16.5117 7.26562 15.9609V13.0781H8.36719L9.59766 16.1484C9.76172 16.5938 10.0195 16.8516 10.4883 16.8516C10.875 16.8516 11.2969 16.6289 11.2969 16.0195C11.2969 15.8906 11.2148 15.6562 11.1094 15.3867L9.99609 12.7266C10.9453 12.2344 11.3438 11.2148 11.3438 10.1602C11.3438 8.25 10.207 7.23047 8.37891 7.23047H6.39844C5.84766 7.23047 5.54297 7.57031 5.54297 8.12109V15.9609C5.54297 16.5 5.85938 16.8516 6.41016 16.8516ZM7.26562 11.8242V8.58984H8.22656C9.12891 8.58984 9.60938 9.25781 9.60938 10.1953C9.60938 11.1211 9.1875 11.8242 8.22656 11.8242H7.26562ZM13.7578 16.7109H16.2422C17.8945 16.7109 18.8555 15.6094 18.8555 14.0273C18.8555 12.8906 18.1641 11.8359 17.0508 11.7305V11.6719C17.9414 11.5078 18.5625 10.5234 18.5625 9.58594C18.5625 8.08594 17.5547 7.23047 16.1719 7.23047H13.7578C13.207 7.23047 12.9141 7.60547 12.9141 8.12109V15.8203C12.9141 16.3594 13.2188 16.7109 13.7578 16.7109ZM14.5898 11.25V8.53125H15.6797C16.5703 8.53125 16.9219 9.09375 16.9219 9.85547C16.9219 10.7227 16.418 11.25 15.5508 11.25H14.5898ZM14.5898 15.4102V12.3984H15.6797C16.5352 12.3984 17.1328 12.8555 17.1328 13.8984C17.1328 14.8359 16.6758 15.4102 15.7266 15.4102H14.5898Z" fill="black" fill-opacity="0.85"/>
</svg>
