<svg width="35" height="25" viewBox="0 0 35 25" fill="none" xmlns="http://www.w3.org/2000/svg">
<path d="M3.69141 23.2163H23.9765C26.4258 23.2163 27.6562 22.0093 27.6562 19.5952V5.2749C27.6562 2.86084 26.4258 1.64209 23.9765 1.64209H3.69141C1.25391 1.64209 0.0117188 2.86084 0.0117188 5.2749V19.5952C0.0117188 22.0093 1.25391 23.2163 3.69141 23.2163ZM3.72656 21.3296C2.55469 21.3296 1.89844 20.7085 1.89844 19.4897V5.38037C1.89844 4.16162 2.55469 3.52881 3.72656 3.52881H23.9414C25.1015 3.52881 25.7695 4.16162 25.7695 5.38037V19.4897C25.7695 20.7085 25.1015 21.3296 23.9414 21.3296H3.72656Z" fill="black" fill-opacity="0.85"/>
<path d="M4.53516 19.7358H23.1328C23.789 19.7358 24.164 19.3491 24.164 18.6811V6.18896C24.164 5.521 23.789 5.13428 23.1328 5.13428H4.53516C3.87891 5.13428 3.50391 5.521 3.50391 6.18896V18.6811C3.50391 19.3491 3.87891 19.7358 4.53516 19.7358Z" fill="#FFCC00"/>
<path d="M25.7578 17.0171C28.4179 17.0171 30.7265 14.7085 30.7265 11.6968C30.7265 8.73193 28.4062 6.48193 25.7578 6.48193C23.0859 6.48193 20.7773 8.76709 20.789 11.7202C20.789 14.6733 23.0625 17.0171 25.7578 17.0171ZM20.0976 24.8218H31.4062C33.1406 24.8218 34.4297 23.7202 34.4297 22.103C34.4297 19.021 30.9844 15.3178 25.7578 15.3178C20.5078 15.3178 17.0625 19.021 17.0625 22.103C17.0625 23.7202 18.3515 24.8218 20.0976 24.8218Z" fill="white"/>
<path d="M25.7579 15.4233C27.5509 15.4233 29.1212 13.8061 29.1212 11.6968C29.1212 9.62256 27.5509 8.0874 25.7579 8.0874C23.9532 8.0874 22.3829 9.646 22.3829 11.7202C22.3829 13.8061 23.9532 15.4233 25.7579 15.4233ZM20.0977 23.2163H31.4063C32.2852 23.2163 32.836 22.8061 32.836 22.103C32.836 19.9233 30.1173 16.9233 25.7579 16.9233C21.3751 16.9233 18.668 19.9233 18.668 22.103C18.668 22.8061 19.2071 23.2163 20.0977 23.2163Z" fill="black" fill-opacity="0.85"/>
</svg>
