<svg width="29" height="29" viewBox="0 0 29 29" fill="none" xmlns="http://www.w3.org/2000/svg">
<path d="M7.27734 21.4458H21.1992C22.5586 21.4458 23.543 20.4028 23.543 18.9848V9.62158C23.543 8.20361 22.5586 7.17236 21.1992 7.17236H7.27734C5.91797 7.17236 4.94531 8.20361 4.94531 9.62158V18.9848C4.94531 20.4028 5.91797 21.4458 7.27734 21.4458ZM7.48828 19.6879C7.03125 19.6879 6.71484 19.3364 6.71484 18.8208V9.78564C6.71484 9.29345 7.03125 8.94189 7.48828 8.94189H20.9883C21.457 8.94189 21.7852 9.29345 21.7852 9.78564V18.8208C21.7852 19.3364 21.457 19.6879 20.9883 19.6879H7.48828Z" fill="#007AFF"/>
<path d="M27.6914 9.16451C28.0312 9.16451 28.3477 8.85982 28.3477 8.49654V7.05513C28.3477 4.09029 26.3906 2.13326 23.4258 2.13326H23.2148V0.750444C23.2148 -0.034712 22.6172 -0.198775 22.0312 0.234819L19.3711 2.18013C18.9258 2.50826 18.9141 2.88326 19.3711 3.21138L22.0312 5.15669C22.6172 5.59029 23.2148 5.41451 23.2148 4.66451V3.36373H23.4141C25.582 3.36373 27.0117 4.84029 27.0117 7.06685V8.49654C27.0117 8.85982 27.3281 9.16451 27.6914 9.16451ZM0.667969 19.3129C0.316406 19.3129 0 19.6176 0 19.9809V21.4106C0 24.434 2.01562 26.4731 5.0625 26.4731H5.26172V27.8559C5.26172 28.6411 5.85938 28.8051 6.44531 28.3715L9.10547 26.4145C9.55078 26.0981 9.5625 25.7231 9.10547 25.3833L6.44531 23.4497C5.85938 23.0161 5.26172 23.1919 5.26172 23.9419V25.2426H5.07422C2.77734 25.2426 1.33594 23.6372 1.33594 21.4106V19.9809C1.33594 19.6176 1.03125 19.3129 0.667969 19.3129Z" fill="black" fill-opacity="0.85"/>
</svg>
