<svg width="31" height="28" viewBox="0 0 31 28" fill="none" xmlns="http://www.w3.org/2000/svg">
<path d="M6.58594 24.5156H26.8711C29.3203 24.5156 30.5508 23.3086 30.5508 20.8945V6.57422C30.5508 4.16016 29.3203 2.94141 26.8711 2.94141H6.58594C4.14844 2.94141 2.90625 4.16016 2.90625 6.57422V20.8945C2.90625 23.3086 4.14844 24.5156 6.58594 24.5156ZM6.62109 22.6289C5.44922 22.6289 4.79297 22.0078 4.79297 20.7891V6.67969C4.79297 5.46094 5.44922 4.82812 6.62109 4.82812H26.8359C27.9961 4.82812 28.6641 5.46094 28.6641 6.67969V20.7891C28.6641 22.0078 27.9961 22.6289 26.8359 22.6289H6.62109Z" fill="#007AFF"/>
<path d="M17.1914 15.1172L12.8906 19.2773L20.1914 26.6016C20.7656 27.1758 21.5156 27.457 22.3125 27.457C23.9883 27.457 25.2656 26.1445 25.2656 24.4805C25.2656 23.6836 24.9492 22.9219 24.4219 22.3945L17.1914 15.1172ZM9.35156 20.6836C14.5078 20.6836 18.7031 16.4883 18.7031 11.332C18.7031 6.16406 14.5078 1.98047 9.35156 1.98047C4.19531 1.98047 0 6.16406 0 11.332C0 16.4883 4.19531 20.6836 9.35156 20.6836Z" fill="white"/>
<path d="M9.35156 20.6836C14.5078 20.6836 18.7031 16.4883 18.7031 11.332C18.7031 6.16406 14.5078 1.98047 9.35156 1.98047C4.19531 1.98047 0 6.16406 0 11.332C0 16.4883 4.19531 20.6836 9.35156 20.6836ZM9.35156 18.6797C5.29688 18.6797 2.00391 15.3867 2.00391 11.332C2.00391 7.26562 5.29688 3.98438 9.35156 3.98438C13.4062 3.98438 16.6992 7.26562 16.6992 11.332C16.6992 15.3867 13.4062 18.6797 9.35156 18.6797ZM16.0312 16.2422L14.0391 18.1641L21.3281 25.4648C21.6094 25.7461 21.9492 25.8633 22.3125 25.8633C23.1094 25.8633 23.6719 25.2656 23.6719 24.4805C23.6719 24.1055 23.5195 23.7656 23.2852 23.5195L16.0312 16.2422Z" fill="black" fill-opacity="0.85"/>
<path d="M5.56641 10.582H13.125C13.5938 10.582 13.9453 10.2188 13.9453 9.76172C13.9453 9.30469 13.5938 8.94141 13.125 8.94141H5.56641C5.09766 8.94141 4.75781 9.30469 4.75781 9.76172C4.75781 10.2188 5.09766 10.582 5.56641 10.582ZM5.56641 13.7109H11.0977C11.5547 13.7109 11.9297 13.3594 11.9297 12.9023C11.9297 12.4336 11.5547 12.0703 11.0977 12.0703H5.56641C5.09766 12.0703 4.75781 12.4336 4.75781 12.9023C4.75781 13.3594 5.09766 13.7109 5.56641 13.7109Z" fill="black" fill-opacity="0.85"/>
</svg>
