<svg width="31" height="29" viewBox="0 0 31 29" fill="none" xmlns="http://www.w3.org/2000/svg">
<path d="M3.56641 19.6501H19.0937C21.4727 19.6501 22.6445 18.49 22.6445 16.1345V4.29858C22.6445 1.93139 21.4727 0.782959 19.0937 0.782959H3.56641C1.1875 0.782959 0.00390625 1.93139 0.00390625 4.29858V16.1345C0.00390625 18.49 1.1875 19.6501 3.56641 19.6501ZM1.65625 16.029V4.39233C1.65625 3.12671 2.34766 2.4353 3.60157 2.4353H19.0586C20.3008 2.4353 20.9922 3.12671 20.9922 4.39233V16.029C20.9922 17.2947 20.3125 17.9978 19.0586 17.9978H3.60157C2.35938 17.9978 1.65625 17.2947 1.65625 16.029Z" fill="#007AFF"/>
<path d="M24.1095 27.8767C29.7228 25.8376 31.7384 20.9626 29.5821 15.0095L28.8204 12.8884C27.7657 9.9822 25.4571 8.86891 23.6407 9.5486C23.4532 9.61891 23.2892 9.68923 23.1485 9.7947C21.7892 8.88063 20.2306 9.2322 19.422 9.81813C18.461 9.11501 17.0196 9.07985 16.1876 9.50173L14.8048 5.71657C14.2071 4.06423 12.5548 3.29079 11.0313 3.85329C9.43758 4.43923 8.72274 6.07985 9.3204 7.70876L12.004 15.0681L11.6993 14.7634C11.0079 14.3298 10.211 14.3298 9.46102 14.6228C7.9493 15.1853 7.16415 16.7556 7.70321 18.2439C7.84383 18.6306 8.05477 18.9939 8.30087 19.2986L12.0392 23.9626C15.6485 28.4744 20.0196 29.365 24.1095 27.8767Z" fill="white"/>
<path d="M23.5696 26.3767C28.3509 24.6423 29.9446 20.6697 28.0813 15.5603L27.3079 13.4392C26.6048 11.5056 25.2454 10.6501 24.1907 11.0369C23.9563 11.1306 23.8626 11.2947 23.9563 11.5173L24.2962 12.4665C24.4602 12.9001 24.3079 13.2165 24.0501 13.3103C23.7571 13.4158 23.4524 13.2751 23.2884 12.8298L23.0657 12.2087C22.6555 11.072 21.6594 10.5915 20.6634 10.9548C20.218 11.1189 20.0891 11.3767 20.218 11.7634L20.6868 13.029C20.8509 13.4744 20.6985 13.7673 20.4407 13.8611C20.1594 13.9665 19.843 13.8376 19.6907 13.404L19.2688 12.2087C18.7884 10.9431 17.8274 10.615 16.8665 10.9548C16.4563 11.1072 16.304 11.3884 16.4212 11.7517L17.3352 14.2478C17.4993 14.6931 17.347 14.9978 17.0891 15.0915C16.8079 15.197 16.5032 15.0564 16.3391 14.6111L13.304 6.25558C12.9993 5.43527 12.2727 5.10715 11.593 5.35324C10.843 5.62277 10.5266 6.33761 10.8196 7.15793L15.2727 19.3923C15.3782 19.697 15.2493 19.9314 15.0618 19.99C14.8743 20.0603 14.6868 20.0017 14.4407 19.7439L11.429 16.5212C10.9837 16.0408 10.5266 15.9236 10.0344 16.1111C9.28445 16.3806 8.97976 17.072 9.21414 17.7048C9.29617 17.9509 9.42508 18.1384 9.55398 18.3025L13.2805 22.9548C16.4094 26.904 20.0423 27.654 23.5696 26.3767Z" fill="black" fill-opacity="0.85"/>
</svg>
