<svg width="21" height="26" viewBox="0 0 21 26" fill="none" xmlns="http://www.w3.org/2000/svg">
<path d="M6.97266 25.1719H17.2734C19.5 25.1719 20.8359 23.8594 20.8359 21.6562L20.8477 3.55078C20.8477 1.42969 19.418 0 17.3086 0H13.7109C11.8711 0 10.3359 0.480469 8.89453 1.80469L1.48828 8.61328C0.492188 9.52734 0 10.8164 0 12.4219V18.1992C0 22.4414 2.73047 25.1719 6.97266 25.1719Z" fill="#FFCC00"/>
<path d="M8.32031 20.6836C7.35938 20.6836 6.87891 20.2149 6.87891 19.254V14.3789C6.87891 13.4414 7.35938 12.9609 8.32031 12.9609H15.3164C16.2539 12.9609 16.7578 13.4414 16.7578 14.3789V19.254C16.7578 20.2149 16.2539 20.6836 15.3164 20.6836H8.32031ZM4.59375 17.0625V12.2109C4.59375 11.25 5.08594 10.7812 6.02344 10.7812H13.0078C13.957 10.7812 14.4258 11.2383 14.4492 12.1406V12.1875H8.32031C6.91406 12.1875 6.10547 13.0195 6.10547 14.3789V18.4805H6.02344C5.08594 18.4805 4.59375 18 4.59375 17.0625Z" fill="black" fill-opacity="0.85"/>
</svg>
