<svg width="26" height="26" viewBox="0 0 26 26" fill="none" xmlns="http://www.w3.org/2000/svg">
<path d="M7.20703 25.7461C7.78125 25.7461 8.17969 25.4414 8.89453 24.8086L12.9375 21.2109H20.4609C23.9531 21.2109 25.8281 19.2773 25.8281 15.8438V6.86719C25.8281 3.43359 23.9531 1.5 20.4609 1.5H5.36719C1.875 1.5 0 3.42188 0 6.86719V15.8438C0 19.2891 1.875 21.2109 5.36719 21.2109H5.92969V24.2578C5.92969 25.1602 6.38672 25.7461 7.20703 25.7461ZM7.6875 23.6016V20.2031C7.6875 19.5703 7.44141 19.3242 6.80859 19.3242H5.36719C3 19.3242 1.88672 18.1172 1.88672 15.832V6.86719C1.88672 4.58203 3 3.38672 5.36719 3.38672H20.4609C22.8164 3.38672 23.9414 4.58203 23.9414 6.86719V15.832C23.9414 18.1172 22.8164 19.3242 20.4609 19.3242H12.8672C12.2109 19.3242 11.8828 19.418 11.4375 19.875L7.6875 23.6016Z" fill="#007AFF"/>
<path d="M6.17578 11.0625H11.3203C12.1641 11.0625 12.5859 10.6523 12.5859 9.79688V7.46484C12.5859 6.62109 12.1641 6.22266 11.3203 6.22266H6.17578C5.32031 6.22266 4.88672 6.62109 4.88672 7.46484V9.79688C4.88672 10.6523 5.32031 11.0625 6.17578 11.0625ZM7.59375 16.4531H12.0117C12.8555 16.4531 13.2773 16.043 13.2773 15.1875V13.6055C13.2773 12.7617 12.8555 12.3516 12.0117 12.3516H7.59375C6.75 12.3516 6.32812 12.7617 6.32812 13.6055V15.1875C6.32812 16.043 6.75 16.4531 7.59375 16.4531ZM15.8672 15.75H19.5234C20.3672 15.75 20.7891 15.3398 20.7891 14.4961V8.27344C20.7891 7.42969 20.3672 7.01953 19.5234 7.01953H15.8672C15.0117 7.01953 14.5898 7.42969 14.5898 8.27344V14.4961C14.5898 15.3398 15.0117 15.75 15.8672 15.75Z" fill="black" fill-opacity="0.85"/>
</svg>
