<svg width="30" height="29" viewBox="0 0 30 29" fill="none" xmlns="http://www.w3.org/2000/svg">
<path d="M3.67969 24.907H23.9648C26.4141 24.907 27.6445 23.7 27.6445 21.2859V6.96557C27.6445 4.55151 26.4141 3.33276 23.9648 3.33276H3.67969C1.24219 3.33276 0 4.55151 0 6.96557V21.2859C0 23.7 1.24219 24.907 3.67969 24.907ZM3.71484 23.0203C2.54297 23.0203 1.88672 22.3992 1.88672 21.1804V7.07104C1.88672 5.85229 2.54297 5.21948 3.71484 5.21948H23.9297C25.0898 5.21948 25.7578 5.85229 25.7578 7.07104V21.1804C25.7578 22.3992 25.0898 23.0203 23.9297 23.0203H3.71484Z" fill="#007AFF"/>
<path d="M13.6177 17.864C16.1255 20.3601 20.0278 20.4304 22.6294 17.8289L28.3716 12.0632C29.3677 11.0671 29.3443 9.44996 28.313 8.46558C30.2114 6.30933 30.0825 3.42652 28.1607 1.49293C26.1567 -0.510979 23.0278 -0.522698 20.8833 1.61012L13.6646 8.84058C11.063 11.4421 11.1216 15.3796 13.6177 17.864Z" fill="white"/>
<path d="M14.8824 16.5868C16.6988 18.4032 19.4527 18.4501 21.3512 16.5516L27.105 10.7977C27.3862 10.5047 27.3745 10.0477 27.0933 9.78985C26.8003 9.52032 26.4018 9.52032 26.1089 9.81329L20.4137 15.5204C19.0543 16.868 17.1558 16.868 15.9137 15.5907C14.6245 14.2665 14.6012 12.4032 15.9488 11.0672L23.1441 3.8836C24.0348 2.99298 25.2418 2.98126 25.9918 3.70782C26.7301 4.4461 26.7066 5.64142 25.816 6.54376L18.8198 13.5868C18.5268 13.8797 18.1519 13.868 17.8941 13.5868C17.6012 13.3055 17.6129 12.954 17.9058 12.6493L22.8629 7.70392C23.1558 7.41095 23.144 7.01251 22.8862 6.74298C22.6284 6.47345 22.2417 6.47345 21.937 6.76642L16.9448 11.7587C16.1362 12.5672 16.1246 13.8329 16.8863 14.5829C17.6831 15.3797 18.8785 15.3797 19.7223 14.5477L26.7652 7.49298C28.2417 6.01642 28.2184 4.09454 26.8941 2.7586C25.5816 1.45782 23.6012 1.43438 22.1597 2.87579L14.9293 10.1063C13.0308 12.0047 13.0894 14.8055 14.8824 16.5868Z" fill="black" fill-opacity="0.85"/>
</svg>
