<svg width="24" height="24" viewBox="0 0 24 24" fill="none" xmlns="http://www.w3.org/2000/svg">
<path d="M11.9531 23.9062C18.4922 23.9062 23.9062 18.4805 23.9062 11.9531C23.9062 5.41406 18.4805 0 11.9414 0C5.41406 0 0 5.41406 0 11.9531C0 18.4805 5.42578 23.9062 11.9531 23.9062ZM11.9531 21.9141C6.42188 21.9141 2.00391 17.4844 2.00391 11.9531C2.00391 6.42188 6.41016 1.99219 11.9414 1.99219C17.4727 1.99219 21.9141 6.42188 21.9141 11.9531C21.9141 17.4844 17.4844 21.9141 11.9531 21.9141Z" fill="#007AFF"/>
<path d="M6.72656 14.9883H14.5664C15.6328 14.9883 16.1719 14.4609 16.1719 13.3828V7.89844C16.1719 6.85547 15.6328 6.31641 14.5664 6.31641H6.72656C5.64844 6.31641 5.12109 6.85547 5.12109 7.89844V13.3828C5.12109 14.4609 5.64844 14.9883 6.72656 14.9883Z" fill="black" fill-opacity="0.85"/>
<path d="M9.30469 18.1523H17.1328C18.6094 18.1523 19.4883 17.3086 19.4883 15.8203V10.3359C19.4883 8.87109 18.6211 8.00391 17.1328 8.00391H9.30469C7.80469 8.00391 6.94922 8.87109 6.94922 10.3359V15.8203C6.94922 17.3086 7.81641 18.1523 9.30469 18.1523Z" fill="white"/>
<path d="M9.30469 17.4141H17.1328C18.2109 17.4141 18.7383 16.8867 18.7383 15.8203V10.3359C18.7383 9.29297 18.2109 8.74219 17.1328 8.74219H9.30469C8.22656 8.74219 7.6875 9.29297 7.6875 10.3359V15.8203C7.6875 16.8867 8.22656 17.4141 9.30469 17.4141Z" fill="black" fill-opacity="0.85"/>
</svg>
