<svg width="24" height="34" viewBox="0 0 24 34" fill="none" xmlns="http://www.w3.org/2000/svg">
<path d="M7.27734 25.852H16.6406C18.0586 25.852 19.1133 24.8794 19.1133 23.52V9.59814C19.1133 8.23877 18.0586 7.25439 16.6406 7.25439H7.27734C5.85938 7.25439 4.82812 8.23877 4.82812 9.59814V23.52C4.82812 24.8794 5.85938 25.852 7.27734 25.852ZM7.44141 24.0825C6.94922 24.0825 6.59766 23.7661 6.59766 23.309V9.80908C6.59766 9.34033 6.94922 9.0122 7.44141 9.0122H16.4766C16.9922 9.0122 17.3555 9.34033 17.3555 9.80908V23.309C17.3555 23.7661 16.9922 24.0825 16.4766 24.0825H7.44141Z" fill="#007AFF"/>
<path d="M23.2617 9.16451C23.6133 9.16451 23.9297 8.8481 23.9297 8.48482V7.05513C23.9297 4.09029 21.9609 2.13326 18.9961 2.13326H18.7852V0.750444C18.7852 -0.034712 18.1992 -0.198775 17.6133 0.234819L14.9531 2.18013C14.5078 2.50826 14.4961 2.88326 14.9531 3.21138L17.6133 5.15669C18.1992 5.59029 18.7852 5.41451 18.7852 4.66451V3.36373H18.9844C21.1641 3.36373 22.5938 4.84029 22.5938 7.06685V8.48482C22.5938 8.8481 22.8984 9.16451 23.2617 9.16451ZM0.667969 23.9536C0.316406 23.9536 0 24.2583 0 24.6215V26.0629C0 29.0278 1.95703 30.9848 4.92188 30.9848H5.13281V32.3676C5.13281 33.1528 5.73047 33.3169 6.31641 32.8833L8.97656 30.9262C9.42188 30.6098 9.43359 30.2348 8.97656 29.895L6.31641 27.9614C5.73047 27.5278 5.13281 27.7036 5.13281 28.4536V29.7544H4.93359C2.76562 29.7544 1.33594 28.2778 1.33594 26.0512V24.6215C1.33594 24.2583 1.03125 23.9536 0.667969 23.9536Z" fill="black" fill-opacity="0.85"/>
</svg>
