<svg width="17" height="27" viewBox="0 0 17 27" fill="none" xmlns="http://www.w3.org/2000/svg">
<path d="M2.70703 26.5195H14.1562C15.7852 26.5195 16.875 25.4062 16.875 23.7188V2.80078C16.875 1.11328 15.7852 0 14.1562 0H2.70703C1.08984 0 0 1.11328 0 2.80078V23.7188C0 25.4062 1.08984 26.5195 2.70703 26.5195ZM2.80078 24.6328C2.25 24.6328 1.88672 24.2695 1.88672 23.707V2.82422C1.88672 2.26172 2.25 1.88672 2.80078 1.88672H14.0742C14.6133 1.88672 14.9883 2.26172 14.9883 2.82422V23.707C14.9883 24.2695 14.6133 24.6328 14.0742 24.6328H2.80078ZM4.06641 7.04297C4.41797 7.04297 4.65234 6.79688 4.65234 6.44531V3.85547C4.65234 3.50391 4.41797 3.25781 4.06641 3.25781C3.71484 3.25781 3.46875 3.50391 3.46875 3.85547V6.44531C3.46875 6.79688 3.71484 7.04297 4.06641 7.04297ZM1.39453 10.3828H15.4922V8.84766H1.39453V10.3828ZM4.06641 15.2812C4.41797 15.2812 4.65234 15.0469 4.65234 14.6953V12.0938C4.65234 11.7422 4.41797 11.5078 4.06641 11.5078C3.71484 11.5078 3.46875 11.7422 3.46875 12.0938V14.6953C3.46875 15.0469 3.71484 15.2812 4.06641 15.2812ZM1.39453 22.9219H15.4922V21.3867H1.39453V22.9219Z" fill="black" fill-opacity="0.85"/>
</svg>
