<svg width="26" height="22" viewBox="0 0 26 22" fill="none" xmlns="http://www.w3.org/2000/svg">
<path d="M0.996094 11.1797C1.55859 11.1797 1.99219 10.7461 1.99219 10.1836V9.07031C1.99219 7.05469 3.36328 5.74219 5.48438 5.74219H12.1172V8.49609C12.1172 8.96484 12.3984 9.23438 12.8789 9.23438C13.0898 9.23438 13.3008 9.15234 13.4766 9.01172L17.9062 5.34375C18.293 5.02734 18.3047 4.55859 17.9062 4.23047L13.4766 0.550781C13.3008 0.410156 13.0898 0.339844 12.8789 0.339844C12.3984 0.339844 12.1172 0.597656 12.1172 1.07812V3.79688H5.67188C2.23828 3.79688 0 5.75391 0 8.92969V10.1836C0 10.7461 0.421875 11.1797 0.996094 11.1797ZM24.0234 10.3477C23.4492 10.3477 23.0273 10.7695 23.0273 11.3438V12.457C23.0273 14.4727 21.6562 15.7734 19.5234 15.7734H10.3828V13.0547C10.3828 12.5742 10.1133 12.3164 9.63281 12.3164C9.41016 12.3164 9.19922 12.3867 9.02344 12.5273L4.59375 16.1953C4.21875 16.5234 4.20703 16.9922 4.59375 17.3086L9.02344 20.9883C9.19922 21.1289 9.41016 21.2109 9.63281 21.2109C10.1133 21.2109 10.3828 20.9414 10.3828 20.4727V17.7305H19.3359C22.7812 17.7305 25.0195 15.7734 25.0195 12.5977V11.3438C25.0195 10.7695 24.5859 10.3477 24.0234 10.3477Z" fill="#007AFF"/>
<path d="M24.0352 7.81641C24.6797 7.81641 25.0664 7.41797 25.0664 6.76172V1.30078C25.0664 0.515625 24.5508 0 23.8008 0C23.1914 0 22.8164 0.199219 22.3359 0.574219L20.7656 1.76953C20.5195 1.96875 20.4492 2.14453 20.4492 2.37891C20.4492 2.73047 20.7188 3 21.1289 3C21.293 3 21.457 2.95312 21.6094 2.82422L22.8633 1.82812H22.9805V6.76172C22.9805 7.41797 23.3789 7.81641 24.0352 7.81641Z" fill="black" fill-opacity="0.85"/>
</svg>
