<svg width="24" height="24" viewBox="0 0 24 24" fill="none" xmlns="http://www.w3.org/2000/svg">
<path d="M11.9531 23.9062C18.4922 23.9062 23.9062 18.4805 23.9062 11.9531C23.9062 5.41406 18.4805 0 11.9414 0C5.41406 0 0 5.41406 0 11.9531C0 18.4805 5.42578 23.9062 11.9531 23.9062ZM11.9531 21.9141C6.42188 21.9141 2.00391 17.4844 2.00391 11.9531C2.00391 6.42188 6.41016 1.99219 11.9414 1.99219C17.4727 1.99219 21.9141 6.42188 21.9141 11.9531C21.9141 17.4844 17.4844 21.9141 11.9531 21.9141Z" fill="#007AFF"/>
<path d="M4.39453 11.9297C4.39453 12.3164 4.69922 12.6328 5.08594 12.6328C5.47266 12.6328 5.78906 12.3164 5.78906 11.9297V11.3438C5.78906 10.2539 6.53906 9.51562 7.6875 9.51562H10.6758V10.9805C10.6758 11.3203 10.8984 11.5312 11.2383 11.5312C11.4023 11.5312 11.5547 11.4727 11.6719 11.3789L14.2266 9.25781C14.5312 9.01172 14.5312 8.64844 14.2266 8.41406L11.6719 6.28125C11.5547 6.1875 11.4023 6.14062 11.2383 6.14062C10.8984 6.14062 10.6758 6.35156 10.6758 6.69141V8.13281H7.82812C5.73047 8.13281 4.39453 9.32812 4.39453 11.2383V11.9297ZM18.3867 12.6328C18.3867 12.2461 18.0703 11.9414 17.6836 11.9414C17.2969 11.9414 16.9805 12.2461 16.9805 12.6328V13.2188C16.9805 14.3203 16.2305 15.0469 15.082 15.0469H10.6406V13.6055C10.6406 13.2656 10.418 13.0547 10.0781 13.0547C9.91406 13.0547 9.76172 13.1016 9.64453 13.207L7.07812 15.3281C6.78516 15.5508 6.79688 15.9375 7.08984 16.1719L9.64453 18.293C9.76172 18.3867 9.91406 18.4336 10.0781 18.4336C10.4297 18.4336 10.6406 18.2344 10.6406 17.8945V16.4297H14.9414C17.0508 16.4297 18.3867 15.2227 18.3867 13.3242V12.6328ZM17.6836 10.6992C18.1289 10.6992 18.4102 10.4062 18.4102 9.94922V7.07812C18.4102 6.55079 18.0586 6.19922 17.543 6.19922C17.1914 6.19922 16.9453 6.29297 16.6055 6.5625L15.7031 7.25391C15.5273 7.38281 15.4688 7.52344 15.4688 7.71094C15.4688 7.98047 15.6914 8.20312 15.9844 8.20312C16.1016 8.20312 16.2305 8.16797 16.3477 8.07422L17.0391 7.52344H16.9336V9.94922C16.9336 10.4062 17.2266 10.6992 17.6836 10.6992Z" fill="black" fill-opacity="0.85"/>
</svg>
