<svg width="24" height="24" viewBox="0 0 24 24" fill="none" xmlns="http://www.w3.org/2000/svg">
<path d="M11.9531 23.9062C18.4922 23.9062 23.9062 18.4805 23.9062 11.9531C23.9062 5.41406 18.4805 0 11.9414 0C5.41406 0 0 5.41406 0 11.9531C0 18.4805 5.42578 23.9062 11.9531 23.9062ZM11.9531 21.9141C6.42188 21.9141 2.00391 17.4844 2.00391 11.9531C2.00391 6.42188 6.41016 1.99219 11.9414 1.99219C17.4727 1.99219 21.9141 6.42188 21.9141 11.9531C21.9141 17.4844 17.4844 21.9141 11.9531 21.9141Z" fill="#007AFF"/>
<path d="M4.60547 10.8867V11.6133C4.60547 12.0352 4.95703 12.3867 5.37891 12.3867C5.82422 12.3867 6.16406 12.0352 6.16406 11.6133V10.9688C6.16406 9.87891 6.9375 9.15234 8.08594 9.15234H12.6797V10.6055C12.6797 11.0039 12.9375 11.25 13.3125 11.25C13.4766 11.25 13.6523 11.1797 13.8047 11.0742L16.4531 8.87109C16.7812 8.60156 16.7812 8.17969 16.4531 7.91016L13.8047 5.69531C13.6523 5.58984 13.4766 5.51953 13.3125 5.51953C12.9375 5.51953 12.6797 5.76562 12.6797 6.15234V7.60547H8.20312C6.02344 7.60547 4.60547 8.90625 4.60547 10.8867ZM19.2891 13.0547V12.3398C19.2891 11.8945 18.9609 11.5664 18.5156 11.5664C18.0586 11.5664 17.7305 11.8945 17.7305 12.3398V12.9727C17.7305 14.0742 16.957 14.8008 15.8086 14.8008H11.2148V13.3477C11.2148 12.9609 10.9688 12.7148 10.582 12.7148C10.418 12.7148 10.2422 12.7852 10.1016 12.8906L7.44141 15.082C7.11328 15.3516 7.10156 15.7969 7.44141 16.0547L10.1016 18.2695C10.2422 18.375 10.418 18.4453 10.582 18.4453C10.9688 18.4453 11.2148 18.1992 11.2148 17.8008V16.3477H15.6914C17.8711 16.3477 19.2891 15.0469 19.2891 13.0547Z" fill="black" fill-opacity="0.85"/>
</svg>
