<svg width="24" height="24" viewBox="0 0 24 24" fill="none" xmlns="http://www.w3.org/2000/svg">
<path d="M11.9531 23.9062C18.4922 23.9062 23.9062 18.4805 23.9062 11.9531C23.9062 5.41406 18.4805 0 11.9414 0C5.41406 0 0 5.41406 0 11.9531C0 18.4805 5.42578 23.9062 11.9531 23.9062Z" fill="#FFCC00"/>
<path d="M4.18359 11.918V11.2031C4.18359 9.23438 5.56641 7.99219 7.72266 7.99219H10.6641V6.51562C10.6641 6.16406 10.8867 5.94141 11.25 5.94141C11.4141 5.94141 11.5664 5.98828 11.6953 6.09375L14.332 8.28516C14.6484 8.53125 14.6484 8.90625 14.332 9.16406L11.6953 11.3555C11.5664 11.4492 11.4141 11.5078 11.25 11.5078C10.8867 11.5078 10.6641 11.2969 10.6641 10.9453V9.43359H7.58203C6.39844 9.43359 5.625 10.1953 5.625 11.3086V11.918C5.625 12.3164 5.29688 12.6445 4.89844 12.6445C4.5 12.6445 4.18359 12.3164 4.18359 11.918ZM18.6211 12.6445V13.3594C18.6211 15.3164 17.2383 16.5703 15.0703 16.5703H10.6289V18.0703C10.6289 18.4219 10.418 18.6328 10.043 18.6328C9.87891 18.6328 9.72656 18.5859 9.59766 18.4805L6.96094 16.3008C6.65625 16.0547 6.64453 15.6562 6.94922 15.4219L9.59766 13.2305C9.72656 13.125 9.87891 13.0781 10.043 13.0781C10.4062 13.0781 10.6289 13.2891 10.6289 13.6406V15.1289H15.2109C16.3945 15.1289 17.168 14.3789 17.168 13.2539V12.6445C17.168 12.2461 17.4961 11.9297 17.8945 11.9297C18.293 11.9297 18.6211 12.2461 18.6211 12.6445ZM17.8945 10.6523C17.4258 10.6523 17.1211 10.3477 17.1211 9.87891V7.37109H17.2266L16.5117 7.94531C16.3945 8.03906 16.2656 8.07422 16.1367 8.07422C15.832 8.07422 15.6094 7.85156 15.6094 7.57031C15.6094 7.37109 15.668 7.23047 15.8438 7.08984L16.7812 6.38672C17.1328 6.10547 17.3906 6.01172 17.7539 6.01172C18.2812 6.01172 18.6445 6.36328 18.6445 6.91406V9.87891C18.6445 10.3477 18.3516 10.6523 17.8945 10.6523Z" fill="black" fill-opacity="0.85"/>
</svg>
