<svg width="24" height="24" viewBox="0 0 24 24" fill="none" xmlns="http://www.w3.org/2000/svg">
<path d="M11.9531 23.9062C18.4922 23.9062 23.9062 18.4805 23.9062 11.9531C23.9062 5.41406 18.4805 0 11.9414 0C5.41406 0 0 5.41406 0 11.9531C0 18.4805 5.42578 23.9062 11.9531 23.9062Z" fill="#FFCC00"/>
<path d="M4.38281 10.8516C4.38281 8.80078 5.84766 7.46484 8.09766 7.46484H12.7148V5.96484C12.7148 5.56641 12.9727 5.30859 13.3711 5.30859C13.5352 5.30859 13.7344 5.37891 13.875 5.49609L16.6055 7.78125C16.9453 8.0625 16.9453 8.49609 16.6055 8.77734L13.875 11.0508C13.7344 11.168 13.5352 11.2266 13.3711 11.2266C12.9727 11.2266 12.7148 10.9805 12.7148 10.5586V9.07031H7.96875C6.79688 9.07031 6 9.80859 6 10.9336V11.6016C6 12.0352 5.64844 12.3984 5.17969 12.3984C4.74609 12.3984 4.38281 12.0352 4.38281 11.6016V10.8516ZM19.5352 13.0898C19.5352 15.1523 18.0703 16.4883 15.8203 16.4883H11.2031V17.9883C11.2031 18.3984 10.957 18.6562 10.5469 18.6562C10.3828 18.6562 10.1953 18.5859 10.0547 18.4688L7.3125 16.1836C6.97266 15.9023 6.97266 15.457 7.3125 15.1758L10.0547 12.9141C10.1836 12.8086 10.3828 12.7383 10.5469 12.7383C10.957 12.7383 11.2031 12.9844 11.2031 13.3945V14.8828H15.9492C17.1211 14.8828 17.918 14.1445 17.918 13.0078V12.3516C17.918 11.8945 18.2578 11.5547 18.7383 11.5547C19.1953 11.5547 19.5352 11.8945 19.5352 12.3516V13.0898Z" fill="black" fill-opacity="0.85"/>
</svg>
