<svg width="40" height="23" viewBox="0 0 40 23" fill="none" xmlns="http://www.w3.org/2000/svg">
<path d="M38.0508 19.2891C38.8945 19.2891 39.5977 18.6094 39.5977 17.8125C39.5977 17.0039 38.9062 16.3359 38.0508 16.3359C37.207 16.3359 36.5156 17.0039 36.5156 17.8125C36.5156 18.6094 37.2188 19.2891 38.0508 19.2891ZM38.0508 14.0859C38.625 14.0859 39.0352 13.6875 39.0586 13.0898L39.3047 4.79297C39.3281 4.04297 38.8242 3.53906 38.0508 3.53906C37.2891 3.53906 36.7852 4.04297 36.8086 4.79297L37.0547 13.0898C37.0781 13.6875 37.4766 14.0859 38.0508 14.0859Z" fill="black" fill-opacity="0.85"/>
<path d="M16.7227 22.8516C22.9688 22.8516 28.1602 17.6719 28.1602 11.4258C28.1602 5.17969 22.9688 0 16.7109 0C10.4648 0 5.29688 5.16797 5.29688 11.4258C5.29688 17.6719 10.4766 22.8516 16.7227 22.8516ZM16.7227 20.8594C11.4961 20.8594 7.30078 16.6641 7.30078 11.4258C7.30078 6.17578 11.4844 1.98047 16.7109 1.98047C21.9492 1.98047 26.1562 6.17578 26.168 11.4258C26.1797 16.6523 21.9727 20.8594 16.7227 20.8594ZM0 11.4258C0 15.1406 1.20703 18.5508 3.24609 21.3281C3.60938 21.832 4.23047 21.8789 4.69922 21.5039C5.12109 21.1406 5.17969 20.5781 4.83984 20.1094C3.05859 17.6836 2.00391 14.6719 2.00391 11.4258C2.00391 8.16797 3.05859 5.16797 4.83984 2.71875C5.17969 2.27344 5.13281 1.69922 4.69922 1.33594C4.23047 0.960938 3.60938 1.01953 3.24609 1.51172C1.20703 4.28906 0 7.71094 0 11.4258ZM33.4453 11.4258C33.4453 7.71094 32.25 4.28906 30.1992 1.51172C29.8359 1.01953 29.2148 0.960938 28.7461 1.33594C28.3125 1.69922 28.2773 2.27344 28.6055 2.71875C30.3984 5.16797 31.4414 8.16797 31.4414 11.4258C31.4414 14.6719 30.3984 17.6836 28.6055 20.1094C28.2773 20.5781 28.3242 21.1406 28.7461 21.5039C29.2148 21.8789 29.8359 21.832 30.1992 21.3281C32.25 18.5508 33.4453 15.1406 33.4453 11.4258ZM9.14062 11.4258C9.14062 13.5586 10.4883 14.9883 12.5039 14.9883C13.5703 14.9883 14.4727 14.5312 15.4453 13.6055L16.7344 12.375L18.0117 13.6055C19.0195 14.5547 19.8984 14.9883 20.9531 14.9883C22.9688 14.9883 24.3281 13.5586 24.3281 11.4258C24.3281 9.29297 22.9688 7.86328 20.9531 7.86328C19.8984 7.86328 19.0078 8.28516 18.0117 9.24609L16.7344 10.4766L15.4453 9.24609C14.4844 8.32031 13.582 7.86328 12.5039 7.86328C10.4883 7.86328 9.14062 9.29297 9.14062 11.4258ZM10.5234 11.4258C10.5234 10.1016 11.3086 9.23438 12.5039 9.23438C13.1484 9.23438 13.7109 9.52734 14.4844 10.2539L15.7383 11.4258L14.4844 12.5977C13.7344 13.3008 13.1602 13.6055 12.5039 13.6055C11.3086 13.6055 10.5234 12.75 10.5234 11.4258ZM17.7188 11.4258L18.9844 10.2539C19.7461 9.52734 20.3203 9.23438 20.9531 9.23438C22.1484 9.23438 22.9453 10.1016 22.9453 11.4258C22.9453 12.7383 22.1484 13.6055 20.9531 13.6055C20.2969 13.6055 19.7227 13.3008 18.9844 12.5977L17.7188 11.4258Z" fill="#007AFF"/>
</svg>
