<svg width="34" height="30" viewBox="0 0 34 30" fill="none" xmlns="http://www.w3.org/2000/svg">
<path d="M16.7227 26.4112C22.9688 26.4112 28.1602 21.2315 28.1602 14.9854C28.1602 8.73926 22.9688 3.55957 16.7109 3.55957C10.4648 3.55957 5.29688 8.72754 5.29688 14.9854C5.29688 21.2315 10.4766 26.4112 16.7227 26.4112ZM16.7227 24.419C11.4961 24.419 7.30078 20.2237 7.30078 14.9854C7.30078 9.73535 11.4844 5.54004 16.7109 5.54004C21.9492 5.54004 26.1562 9.73535 26.168 14.9854C26.1797 20.2119 21.9727 24.419 16.7227 24.419ZM0 14.9854C0 18.7002 1.20703 22.1104 3.24609 24.8877C3.60938 25.3916 4.23047 25.4385 4.69922 25.0635C5.12109 24.7002 5.17969 24.1377 4.83984 23.669C3.05859 21.2432 2.00391 18.2315 2.00391 14.9854C2.00391 11.7276 3.05859 8.72754 4.83984 6.27832C5.17969 5.83301 5.13281 5.25879 4.69922 4.89551C4.23047 4.52051 3.60938 4.5791 3.24609 5.07129C1.20703 7.84863 0 11.2705 0 14.9854ZM33.4453 14.9854C33.4453 11.2705 32.25 7.84863 30.1992 5.07129C29.8359 4.5791 29.2148 4.52051 28.7461 4.89551C28.3125 5.25879 28.2773 5.83301 28.6055 6.27832C30.3984 8.72754 31.4414 11.7276 31.4414 14.9854C31.4414 18.2315 30.3984 21.2432 28.6055 23.669C28.2773 24.1377 28.3242 24.7002 28.7461 25.0635C29.2148 25.4385 29.8359 25.3916 30.1992 24.8877C32.25 22.1104 33.4453 18.7002 33.4453 14.9854ZM9.14062 14.9854C9.14062 17.1182 10.4883 18.5479 12.5039 18.5479C13.5703 18.5479 14.4727 18.0908 15.4453 17.1651L16.7344 15.9346L18.0117 17.1651C19.0195 18.1143 19.8984 18.5479 20.9531 18.5479C22.9688 18.5479 24.3281 17.1182 24.3281 14.9854C24.3281 12.8526 22.9688 11.4229 20.9531 11.4229C19.8984 11.4229 19.0078 11.8448 18.0117 12.8057L16.7344 14.0362L15.4453 12.8057C14.4844 11.8799 13.582 11.4229 12.5039 11.4229C10.4883 11.4229 9.14062 12.8526 9.14062 14.9854ZM10.5234 14.9854C10.5234 13.6612 11.3086 12.794 12.5039 12.794C13.1484 12.794 13.7109 13.0869 14.4844 13.8135L15.7383 14.9854L14.4844 16.1573C13.7344 16.8604 13.1602 17.1651 12.5039 17.1651C11.3086 17.1651 10.5234 16.3096 10.5234 14.9854ZM17.7188 14.9854L18.9844 13.8135C19.7461 13.0869 20.3203 12.794 20.9531 12.794C22.1484 12.794 22.9453 13.6612 22.9453 14.9854C22.9453 16.2979 22.1484 17.1651 20.9531 17.1651C20.2969 17.1651 19.7227 16.8604 18.9844 16.1573L17.7188 14.9854Z" fill="#007AFF"/>
<path d="M27.8682 29.3174C28.7705 30.208 30.2237 30.208 31.1026 29.294C31.9698 28.4033 31.958 26.9854 31.0908 26.1065L5.71973 0.723662C4.84082 -0.155244 3.3877 -0.166963 2.49707 0.711944C1.61817 1.59085 1.61817 3.06741 2.49707 3.9346L27.8682 29.3174Z" fill="white"/>
<path d="M28.8408 28.3448C29.1924 28.6963 29.7783 28.6963 30.1182 28.3448C30.4698 27.9932 30.4698 27.419 30.1182 27.0674L4.74706 1.69631C4.3955 1.34475 3.82129 1.33303 3.45801 1.69631C3.11817 2.03615 3.11817 2.62209 3.45801 2.97365L28.8408 28.3448Z" fill="black" fill-opacity="0.85"/>
</svg>
