<svg width="25" height="23" viewBox="0 0 25 23" fill="none" xmlns="http://www.w3.org/2000/svg">
<path d="M7.99219 21.5156C8.625 21.5156 9.03516 21.0938 9.03516 20.4844C9.03516 20.1797 8.92969 19.957 8.75391 19.7695L5.36719 16.4766L2.47266 13.9922L2.26172 14.5312L5.89453 14.6953H20.8594C23.5898 14.6953 24.7266 13.4414 24.7266 10.793V3.86719C24.7266 1.13672 23.5898 0 20.8594 0H14.2969C13.6523 0 13.2305 0.46875 13.2305 1.04297C13.2305 1.61719 13.6523 2.08594 14.2969 2.08594H20.8594C22.1016 2.08594 22.6289 2.625 22.6289 3.86719V10.793C22.6289 12.0703 22.1016 12.6094 20.8594 12.6094H5.89453L2.26172 12.7617L2.47266 13.3008L5.36719 10.8281L8.75391 7.53516C8.92969 7.34766 9.03516 7.11328 9.03516 6.80859C9.03516 6.21094 8.625 5.77734 7.99219 5.77734C7.74609 5.77734 7.44141 5.90625 7.24219 6.10547L0.351562 12.8672C0.117188 13.0898 0 13.3594 0 13.6523C0 13.9336 0.117188 14.2148 0.351562 14.4375L7.24219 21.1992C7.44141 21.3984 7.74609 21.5156 7.99219 21.5156Z" fill="black" fill-opacity="0.85"/>
</svg>
