<svg width="19" height="25" viewBox="0 0 19 25" fill="none" xmlns="http://www.w3.org/2000/svg">
<path d="M9.11719 24C9.76172 24 10.0781 23.5664 10.7461 22.6758L17.7422 13.3359C18.0586 12.9023 18.2461 12.4688 18.2461 12C18.2461 11.5195 18.0586 11.0977 17.7422 10.6641L10.7461 1.3125C10.0781 0.433594 9.76172 0 9.11719 0C8.47266 0 8.15625 0.433594 7.5 1.3125L0.503906 10.6641C0.175781 11.0977 0 11.5195 0 12C0 12.4688 0.175781 12.9023 0.503906 13.3359L7.5 22.6758C8.15625 23.5664 8.47266 24 9.11719 24ZM9.11719 21.5273C9.05859 21.5273 9.03516 21.4922 9 21.4336L2.22656 12.3164C2.12109 12.1875 2.10938 12.0938 2.10938 12C2.10938 11.9062 2.12109 11.8125 2.22656 11.6836L9 2.55469C9.03516 2.50781 9.05859 2.47266 9.11719 2.47266C9.17578 2.47266 9.19922 2.50781 9.23438 2.55469L16.0195 11.6836C16.1133 11.8125 16.1367 11.9062 16.1367 12C16.1367 12.0938 16.1133 12.1875 16.0195 12.3164L9.23438 21.4336C9.19922 21.4922 9.17578 21.5273 9.11719 21.5273Z" fill="#007AFF"/>
</svg>
