<svg width="23" height="25" viewBox="0 0 23 25" fill="none" xmlns="http://www.w3.org/2000/svg">
<path d="M20.1094 21.4453L21.4219 20.1445L11.2617 9.99609L9.94922 11.3086L20.1094 21.4453ZM1.66406 22.043H20.0273C21.4219 22.043 22.0547 21.4102 22.0547 20.0156V1.65234C22.0547 0.632812 21.3984 0 20.4141 0C19.793 0 19.3477 0.28125 18.8906 0.738281L0.738281 18.8906C0.292969 19.3477 0 19.7812 0 20.4141C0 21.3984 0.632812 22.043 1.66406 22.043ZM2.67188 20.1328C2.57812 20.1328 2.50781 20.0859 2.50781 20.0039C2.50781 19.9688 2.51953 19.9219 2.58984 19.8633L19.8633 2.57812C19.9219 2.51953 19.9688 2.49609 20.0156 2.49609C20.0977 2.49609 20.1328 2.56641 20.1328 2.66016V19.7812C20.1328 20.0508 20.0625 20.1328 19.7812 20.1328H2.67188Z" fill="black" fill-opacity="0.85"/>
</svg>
