<svg width="34" height="18" viewBox="0 0 34 18" fill="none" xmlns="http://www.w3.org/2000/svg">
<path d="M0.961085 17.5664H2.48452C3.18765 17.5664 3.53921 17.2266 3.73843 16.7227C5.88296 11.4023 8.05093 6.07031 10.2072 0.75C10.3712 0.363281 10.1837 0.0234375 9.77358 0.0234375H9.01187C8.60171 0.0234375 8.3439 0.222656 8.16812 0.574219C5.48452 5.80078 2.82437 11.0273 0.140772 16.2656C-0.187353 16.8633 0.047022 17.5664 0.961085 17.5664ZM31.2892 17.5664H32.8244C33.7267 17.5664 33.9611 16.8633 33.633 16.2656C30.9728 11.0273 28.2892 5.80078 25.6173 0.574219C25.4298 0.222656 25.172 0.0234375 24.7619 0.0234375H24.0001C23.59 0.0234375 23.4142 0.363281 23.5666 0.75C25.7228 6.07031 27.8908 11.4023 30.0353 16.7227C30.2345 17.2266 30.5861 17.5664 31.2892 17.5664ZM16.6173 3.22266H17.133C17.6134 3.22266 17.9884 2.85938 17.9884 2.36719C17.9884 1.875 17.9884 1.37109 17.9884 0.878906C17.9884 0.386719 17.6134 0.0234375 17.133 0.0234375H16.6173C16.1369 0.0234375 15.7619 0.386719 15.7619 0.878906C15.7619 1.37109 15.7619 1.875 15.7619 2.36719C15.7619 2.85938 16.1369 3.22266 16.6173 3.22266ZM16.6173 9.90234H17.133C17.6134 9.90234 17.9884 9.55078 17.9884 9.05859C17.9884 8.23828 17.9884 7.39453 17.9884 6.57422C17.9884 6.08203 17.6134 5.73047 17.133 5.73047H16.6173C16.1369 5.73047 15.7619 6.08203 15.7619 6.57422C15.7619 7.39453 15.7619 8.23828 15.7619 9.05859C15.7619 9.55078 16.1369 9.90234 16.6173 9.90234ZM16.6173 17.5664H17.133C17.6134 17.5664 17.9884 17.2031 17.9884 16.7109C17.9884 15.5977 17.9884 14.4727 17.9884 13.3477C17.9884 12.8555 17.6134 12.5039 17.133 12.5039H16.6173C16.1369 12.5039 15.7619 12.8555 15.7619 13.3477C15.7619 14.4727 15.7619 15.5977 15.7619 16.7109C15.7619 17.2031 16.1369 17.5664 16.6173 17.5664Z" fill="black" fill-opacity="0.85"/>
</svg>
