<svg width="25" height="24" viewBox="0 0 25 24" fill="none" xmlns="http://www.w3.org/2000/svg">
<path d="M4.01953 6.84376H23.0859C23.5781 6.84376 23.9297 6.4922 23.9297 6.00001V3.98439C23.9297 3.50392 23.5781 3.14062 23.0859 3.14062H4.01953C3.52734 3.14062 3.16406 3.50392 3.16406 3.98439V6.00001C3.16406 6.4922 3.52734 6.84376 4.01953 6.84376ZM5.14453 11.9062H21.9492C22.4414 11.9062 22.8047 11.543 22.8047 11.0625V8.4375H4.30078V11.0625C4.30078 11.543 4.65234 11.9062 5.14453 11.9062Z" fill="black" fill-opacity="0.85"/>
<path d="M0 0.9375C0 1.45312 0.433594 1.88672 0.949219 1.88672H23.9297C24.4453 1.88672 24.8789 1.45312 24.8789 0.9375C24.8789 0.421875 24.4453 0 23.9297 0H0.949219C0.433594 0 0 0.421875 0 0.9375ZM0.949219 4.60547C1.38281 4.60547 1.74609 4.24219 1.74609 3.80859C1.74609 3.36328 1.38281 3.01172 0.949219 3.01172C0.503906 3.01172 0.140625 3.36328 0.140625 3.80859C0.140625 4.24219 0.503906 4.60547 0.949219 4.60547ZM0.949219 7.32422C1.38281 7.32422 1.74609 6.94922 1.74609 6.51562C1.74609 6.08203 1.38281 5.71875 0.949219 5.71875C0.503906 5.71875 0.140625 6.08203 0.140625 6.51562C0.140625 6.94922 0.503906 7.32422 0.949219 7.32422ZM0.949219 10.0312C1.38281 10.0312 1.74609 9.66797 1.74609 9.23438C1.74609 8.78906 1.38281 8.4375 0.949219 8.4375C0.503906 8.4375 0.140625 8.78906 0.140625 9.23438C0.140625 9.66797 0.503906 10.0312 0.949219 10.0312ZM0.949219 12.75C1.38281 12.75 1.74609 12.375 1.74609 11.9414C1.74609 11.5078 1.38281 11.1445 0.949219 11.1445C0.503906 11.1445 0.140625 11.5078 0.140625 11.9414C0.140625 12.375 0.503906 12.75 0.949219 12.75ZM0.949219 15.457C1.38281 15.457 1.74609 15.0938 1.74609 14.6602C1.74609 14.2148 1.38281 13.8633 0.949219 13.8633C0.503906 13.8633 0.140625 14.2148 0.140625 14.6602C0.140625 15.0938 0.503906 15.457 0.949219 15.457ZM0.949219 18.1758C1.38281 18.1758 1.74609 17.8008 1.74609 17.3672C1.74609 16.9336 1.38281 16.5703 0.949219 16.5703C0.503906 16.5703 0.140625 16.9336 0.140625 17.3672C0.140625 17.8008 0.503906 18.1758 0.949219 18.1758ZM0.949219 23.9297C1.45312 23.9297 1.88672 23.5078 1.88672 22.9922V20.2266C1.88672 19.7109 1.46484 19.2891 0.949219 19.2891C0.433594 19.2891 0 19.7109 0 20.2266V22.9922C0 23.5078 0.433594 23.9297 0.949219 23.9297Z" fill="#007AFF"/>
</svg>
