<svg width="24" height="31" viewBox="0 0 24 31" fill="none" xmlns="http://www.w3.org/2000/svg">
<path d="M8.84766 25.8523H20.4609C22.4648 25.8523 23.4727 24.8914 23.4727 22.8406V11.2507C23.4727 9.19994 22.4648 8.23901 20.4609 8.23901H8.84766C6.84375 8.23901 5.83594 9.19994 5.83594 11.2507V22.8406C5.83594 24.8914 6.84375 25.8523 8.84766 25.8523ZM8.88281 23.9656C8.08594 23.9656 7.72266 23.6375 7.72266 22.8172V11.2859C7.72266 10.4539 8.08594 10.1257 8.88281 10.1257H20.4258C21.2344 10.1257 21.5859 10.4539 21.5859 11.2859V22.8172C21.5859 23.6375 21.2344 23.9656 20.4258 23.9656H8.88281Z" fill="#007AFF"/>
<path d="M0.726562 10.4774C1.125 10.4774 1.46484 10.1493 1.46484 9.75085V8.00475C1.46484 5.49694 3.07031 3.73913 5.61328 3.73913H5.83594V5.16881C5.83594 6.01256 6.49219 6.21178 7.14844 5.73131L10.1016 3.57506C10.6055 3.21178 10.5938 2.80163 10.1016 2.42663L7.14844 0.258658C6.49219 -0.221811 5.83594 -0.0343112 5.83594 0.832876V2.37975H5.60156C2.22656 2.37975 0 4.64147 0 7.99303V9.75085C0 10.1493 0.328125 10.4774 0.726562 10.4774Z" fill="black" fill-opacity="0.85"/>
</svg>
