<svg width="24" height="31" viewBox="0 0 24 31" fill="none" xmlns="http://www.w3.org/2000/svg">
<path d="M3.01172 25.8523H14.625C16.6289 25.8523 17.6367 24.8914 17.6367 22.8406V11.2507C17.6367 9.19994 16.6289 8.23901 14.625 8.23901H3.01172C1.00781 8.23901 0 9.19994 0 11.2507V22.8406C0 24.8914 1.00781 25.8523 3.01172 25.8523ZM3.04688 23.9656C2.25 23.9656 1.88672 23.6375 1.88672 22.8172V11.2859C1.88672 10.4539 2.25 10.1257 3.04688 10.1257H14.5898C15.3984 10.1257 15.75 10.4539 15.75 11.2859V22.8172C15.75 23.6375 15.3984 23.9656 14.5898 23.9656H3.04688Z" fill="#007AFF"/>
<path d="M22.7466 10.4774C23.145 10.4774 23.4849 10.1493 23.4849 9.75085V7.99303C23.4849 4.64147 21.2466 2.37975 17.8833 2.37975H17.6372V0.832876C17.6372 -0.0343112 16.981 -0.221811 16.3247 0.258658L13.3716 2.42663C12.8794 2.80163 12.8677 3.21178 13.3716 3.57506L16.3247 5.73131C16.981 6.21178 17.6372 6.01256 17.6372 5.16881V3.73913H17.8716C20.4146 3.73913 22.02 5.49694 22.02 8.00475V9.75085C22.02 10.1493 22.3482 10.4774 22.7466 10.4774Z" fill="black" fill-opacity="0.85"/>
</svg>
