<svg width="31" height="22" viewBox="0 0 31 22" fill="none" xmlns="http://www.w3.org/2000/svg">
<path d="M0 11.8738C0 14.3816 0.410156 15.5301 2.27344 16.491L8.87109 19.8777C11.2969 21.1316 13.0312 21.448 15.75 20.6512L25.8984 17.698C29.0273 16.7723 30.3281 14.909 30.3281 11.8738V4.56128C30.3281 2.44018 28.9219 0.998779 26.8125 0.998779L3.53906 0.987061C1.42969 0.987061 0 2.41675 0 4.52612V11.8738Z" fill="#FFCC00"/>
<path d="M6.41016 14.6512C5.84766 14.6512 5.54297 14.2879 5.54297 13.7488V5.99097C5.54297 5.44019 5.84766 5.11207 6.39844 5.11207H8.36719C10.1719 5.11207 11.2969 6.11988 11.2969 8.0066C11.2969 9.06129 10.8984 10.0808 9.96094 10.5613L11.0625 13.1863C11.1797 13.4558 11.25 13.6902 11.25 13.8308C11.25 14.4285 10.8398 14.6512 10.4531 14.6512C9.98438 14.6512 9.72656 14.3933 9.5625 13.948L8.35547 10.9129H7.25391V13.7488C7.25391 14.2996 6.92578 14.6512 6.41016 14.6512ZM7.25391 9.67066H8.21484C9.15234 9.67066 9.57422 8.97926 9.57422 8.05347C9.57422 7.11597 9.10547 6.47144 8.21484 6.47144H7.25391V9.67066ZM15.4688 14.7098C14.1445 14.7098 13.043 14.0769 12.6914 12.8465C12.6328 12.6473 12.6211 12.5769 12.6211 12.366C12.6211 11.9324 12.9141 11.6043 13.3594 11.6043C13.7344 11.6043 14.0391 11.7801 14.1328 12.1785C14.2734 12.823 14.7305 13.3269 15.4922 13.3269C16.2539 13.3269 16.7227 12.7996 16.7227 12.0613C16.7227 11.2058 16.1367 10.8308 15.3633 10.5379L14.7188 10.2918C13.5352 9.82301 12.6562 9.04957 12.6562 7.58472C12.6562 5.90894 13.8164 4.87769 15.4219 4.87769C16.7109 4.87769 17.7656 5.55738 18.1172 6.78785C18.1641 7.02222 18.1641 7.12769 18.1641 7.22144C18.1641 7.64332 17.8828 7.93629 17.4375 7.93629C17.0625 7.93629 16.7812 7.78394 16.6641 7.38551C16.5234 6.77613 16.1484 6.26051 15.4219 6.26051C14.7422 6.26051 14.3203 6.75269 14.3203 7.45582C14.3203 8.26441 14.8594 8.66285 15.6094 8.95582L16.2656 9.19019C17.625 9.71754 18.3867 10.4207 18.3867 11.909C18.3867 13.6902 17.2734 14.7098 15.4688 14.7098ZM20.6836 14.5105C20.1445 14.5105 19.8398 14.159 19.8398 13.6199V6.00269C19.8398 5.49879 20.1328 5.10035 20.6836 5.10035H23.0859C24.4453 5.10035 25.4414 5.96754 25.4414 7.45582C25.4414 8.36988 24.8438 9.35426 23.9531 9.5066V9.56519C25.0547 9.68237 25.7461 10.7137 25.7461 11.8504C25.7461 13.4207 24.7852 14.5105 23.1445 14.5105H20.6836ZM21.5156 9.09644H22.4648C23.3203 9.09644 23.8125 8.5691 23.8125 7.71363C23.8125 6.96363 23.4609 6.40113 22.5938 6.40113H21.5156V9.09644ZM21.5156 13.2215H22.6289C23.5664 13.2215 24.0352 12.6473 24.0352 11.7098C24.0352 10.6902 23.4375 10.2332 22.5938 10.2332H21.5156V13.2215Z" fill="black" fill-opacity="0.85"/>
</svg>
