<svg width="22" height="22" viewBox="0 0 22 22" fill="none" xmlns="http://www.w3.org/2000/svg">
<path d="M3.67969 21.5977H17.8945C20.3555 21.5977 21.5742 20.3789 21.5742 17.9648V3.65625C21.5742 1.24219 20.3555 0.0234375 17.8945 0.0234375H3.67969C1.23047 0.0234375 0 1.23047 0 3.65625V17.9648C0 20.3906 1.23047 21.5977 3.67969 21.5977ZM3.70312 19.7109C2.53125 19.7109 1.88672 19.0898 1.88672 17.8711V3.75C1.88672 2.53125 2.53125 1.91016 3.70312 1.91016H17.8711C19.0312 1.91016 19.6875 2.53125 19.6875 3.75V17.8711C19.6875 19.0898 19.0312 19.7109 17.8711 19.7109H3.70312Z" fill="#007AFF"/>
<path d="M8.8125 16.6523C9.25781 16.6523 9.57421 16.3359 9.57421 15.8789V14.6953H12.3047C12.6445 14.6953 12.8672 14.4492 12.8672 14.1094C12.8672 13.7812 12.6445 13.5352 12.3047 13.5352H9.57421V12.3867H11.5781C13.7578 12.3867 15.1406 10.9336 15.1406 8.90625C15.1406 6.89062 13.7695 5.41406 11.5898 5.41406H8.80078C8.34375 5.41406 8.05078 5.73047 8.05078 6.19922V11.2383H6.99609C6.65625 11.2383 6.42188 11.4844 6.42188 11.8125C6.42188 12.1406 6.65625 12.3984 6.99609 12.3984H8.05078V13.5352H7.00781C6.66797 13.5352 6.44531 13.7812 6.44531 14.1094C6.44531 14.4492 6.66797 14.6953 7.00781 14.6953H8.05078V15.8789C8.05078 16.3359 8.36719 16.6523 8.8125 16.6523ZM9.58594 11.0156V6.82031H11.3203C12.832 6.82031 13.6055 7.62891 13.6055 8.91797C13.6055 10.2188 12.8203 11.0391 11.3203 11.0391L9.58594 11.0156Z" fill="black" fill-opacity="0.85"/>
</svg>
