<svg width="24" height="24" viewBox="0 0 24 24" fill="none" xmlns="http://www.w3.org/2000/svg">
<path d="M11.9531 23.9062C18.4922 23.9062 23.9062 18.4805 23.9062 11.9531C23.9062 5.41406 18.4805 0 11.9414 0C5.41406 0 0 5.41406 0 11.9531C0 18.4805 5.42578 23.9062 11.9531 23.9062ZM11.9531 21.9141C6.42188 21.9141 2.00391 17.4844 2.00391 11.9531C2.00391 6.42188 6.41016 1.99219 11.9414 1.99219C17.4727 1.99219 21.9141 6.42188 21.9141 11.9531C21.9141 17.4844 17.4844 21.9141 11.9531 21.9141Z" fill="#007AFF"/>
<path d="M9.96094 17.8125C10.4062 17.8125 10.7109 17.4961 10.7109 17.0391V15.8555H13.4531C13.793 15.8555 14.0156 15.6094 14.0156 15.2695C14.0156 14.9414 13.793 14.6953 13.4531 14.6953H10.7109V13.5469H12.7148C14.9062 13.5469 16.2891 12.0938 16.2891 10.0664C16.2891 8.05078 14.918 6.57422 12.7266 6.57422H9.94922C9.49219 6.57422 9.1875 6.89062 9.1875 7.35938V12.3984H8.14453C7.79297 12.3984 7.57031 12.6445 7.57031 12.9727C7.57031 13.3008 7.79297 13.5586 8.14453 13.5586H9.1875V14.6953H8.15625C7.81641 14.6953 7.58203 14.9414 7.58203 15.2695C7.58203 15.6094 7.81641 15.8555 8.15625 15.8555H9.1875V17.0391C9.1875 17.4961 9.51562 17.8125 9.96094 17.8125ZM10.7227 12.1758V7.98047H12.457C13.9805 7.98047 14.7539 8.78906 14.7539 10.0781C14.7539 11.3789 13.9688 12.1992 12.457 12.1992L10.7227 12.1758Z" fill="black" fill-opacity="0.85"/>
</svg>
