<svg width="22" height="22" viewBox="0 0 22 22" fill="none" xmlns="http://www.w3.org/2000/svg">
<path d="M3.67969 21.5977H17.8945C20.3555 21.5977 21.5742 20.3789 21.5742 17.9648V3.65625C21.5742 1.24219 20.3555 0.0234375 17.8945 0.0234375H3.67969C1.23047 0.0234375 0 1.23047 0 3.65625V17.9648C0 20.3906 1.23047 21.5977 3.67969 21.5977Z" fill="#FFCC00"/>
<path d="M8.75391 16.8398C8.28516 16.8398 7.95703 16.5117 7.95703 16.043V14.8242H6.89062C6.53906 14.8242 6.30469 14.5781 6.30469 14.2266C6.30469 13.8867 6.53906 13.6289 6.89062 13.6289H7.95703V12.457H6.87891C6.52734 12.457 6.28125 12.1875 6.28125 11.8477C6.28125 11.5078 6.52734 11.25 6.87891 11.25H7.95703V6.05859C7.95703 5.57812 8.26172 5.25 8.74219 5.25H11.6133C13.8633 5.25 15.2812 6.77344 15.2812 8.84766C15.2812 10.9453 13.8516 12.4453 11.6016 12.4453H9.53906V13.6289H12.3516C12.7031 13.6289 12.9375 13.8867 12.9375 14.2266C12.9375 14.5781 12.7031 14.8242 12.3516 14.8242H9.53906V16.043C9.53906 16.5117 9.21094 16.8398 8.75391 16.8398ZM9.55078 11.0273L11.332 11.0508C12.8789 11.0508 13.6875 10.207 13.6875 8.85938C13.6875 7.53516 12.8906 6.70312 11.332 6.70312H9.55078V11.0273Z" fill="black" fill-opacity="0.85"/>
</svg>
