<svg width="29" height="13" viewBox="0 0 29 13" fill="none" xmlns="http://www.w3.org/2000/svg">
<path d="M28.6641 3.16406C28.6641 1.08984 27.5859 0.0117188 25.4883 0.0117188H3.17578C1.07812 0.0117188 0 1.07812 0 3.16406V9.5625C0 11.6367 1.08984 12.7148 3.1875 12.7148H25.4883C27.5977 12.7148 28.6641 11.6367 28.6641 9.5625V3.16406ZM3.48047 1.94531V7.40625C3.48047 7.67578 3.29297 7.88672 3.01172 7.88672C2.74219 7.88672 2.53125 7.6875 2.53125 7.41797V1.94531H3.48047ZM5.75391 1.94531V5.34375C5.75391 5.625 5.56641 5.82422 5.27344 5.82422C5.01562 5.82422 4.80469 5.63672 4.80469 5.35547V1.94531H5.75391ZM8.02734 1.94531V5.34375C8.02734 5.625 7.82812 5.82422 7.54688 5.82422C7.28906 5.82422 7.07812 5.63672 7.07812 5.35547V1.94531H8.02734ZM10.2773 1.94531V5.34375C10.2773 5.625 10.0898 5.82422 9.80859 5.82422C9.53906 5.82422 9.32812 5.63672 9.32812 5.35547V1.94531H10.2773ZM12.5508 1.94531V5.34375C12.5508 5.625 12.3633 5.82422 12.0703 5.82422C11.8125 5.82422 11.6016 5.63672 11.6016 5.35547V1.94531H12.5508ZM14.8125 1.94531V7.40625C14.8125 7.67578 14.625 7.88672 14.332 7.88672C14.0742 7.88672 13.8633 7.6875 13.8633 7.41797V1.94531H14.8125ZM17.0859 1.94531V5.34375C17.0859 5.625 16.8867 5.82422 16.6055 5.82422C16.3477 5.82422 16.1367 5.63672 16.1367 5.35547V1.94531H17.0859ZM19.3477 1.94531V5.34375C19.3477 5.625 19.1602 5.82422 18.8789 5.82422C18.6094 5.82422 18.3984 5.63672 18.3984 5.35547V1.94531H19.3477ZM21.6094 1.94531V5.34375C21.6094 5.625 21.4219 5.82422 21.1289 5.82422C20.8711 5.82422 20.6602 5.63672 20.6602 5.35547V1.94531H21.6094ZM23.8828 1.94531V5.34375C23.8828 5.625 23.6836 5.82422 23.4023 5.82422C23.1445 5.82422 22.9336 5.63672 22.9336 5.35547V1.94531H23.8828ZM26.1328 1.94531V7.40625C26.1328 7.67578 25.9453 7.88672 25.6641 7.88672C25.3945 7.88672 25.1836 7.6875 25.1836 7.41797V1.94531H26.1328Z" fill="black" fill-opacity="0.85"/>
</svg>
