<svg width="24" height="24" viewBox="0 0 24 24" fill="none" xmlns="http://www.w3.org/2000/svg">
<path d="M11.9531 23.9062C18.4922 23.9062 23.9062 18.4805 23.9062 11.9531C23.9062 5.41406 18.4805 0 11.9414 0C5.41406 0 0 5.41406 0 11.9531C0 18.4805 5.42578 23.9062 11.9531 23.9062ZM11.9531 21.9141C6.42188 21.9141 2.00391 17.4844 2.00391 11.9531C2.00391 6.42188 6.41016 1.99219 11.9414 1.99219C17.4727 1.99219 21.9141 6.42188 21.9141 11.9531C21.9141 17.4844 17.4844 21.9141 11.9531 21.9141Z" fill="#007AFF"/>
<path d="M8.35547 17.8008C8.75391 17.8008 9.03516 17.5195 9.03516 17.0508V13.0781H9.57422L11.0273 17.3203C11.1562 17.6836 11.3789 17.8008 11.6836 17.8008C12.0586 17.8008 12.3281 17.5078 12.3281 17.1211C12.3281 16.9688 12.3047 16.8516 12.2344 16.6758L10.875 12.7969C11.8125 12.3164 12.3398 11.1094 12.3398 9.71484C12.3398 7.51172 11.4727 6.43359 9.76172 6.43359H8.37891C7.96875 6.43359 7.69922 6.72656 7.69922 7.20703V17.0156C7.69922 17.4961 7.95703 17.8008 8.35547 17.8008ZM9.03516 11.7422V7.78125H9.66797C10.5703 7.78125 10.9805 8.44922 10.9805 9.75C10.9805 11.0742 10.5703 11.7422 9.63281 11.7422H9.03516ZM14.8594 17.8125C16.1602 17.8125 17.0156 16.875 17.0156 15.4219C17.0156 14.25 16.6055 13.5586 15.4688 12.9375L15.0234 12.6914C14.4023 12.3516 14.1445 12.0117 14.1445 11.4492C14.1445 10.8164 14.3906 10.4414 14.8477 10.4414C15.3984 10.4414 15.5508 10.8398 15.6211 11.6016C15.6562 12.0586 15.8555 12.3398 16.2539 12.3398C16.6641 12.3398 16.8984 12.0469 16.8984 11.5781C16.8984 11.4609 16.8867 11.3555 16.875 11.2383C16.7578 10.0664 16.0664 9.16406 14.8594 9.16406C13.6406 9.16406 12.8203 10.0898 12.8203 11.4961C12.8203 12.6211 13.2773 13.3711 14.3672 13.9453L14.8359 14.1914C15.4336 14.4961 15.6797 14.8945 15.6797 15.5156C15.6797 16.1953 15.3984 16.5586 14.8594 16.5586C14.3086 16.5586 14.0508 16.1133 14.0039 15.3867C13.9688 14.918 13.7344 14.6484 13.3477 14.6484C12.9492 14.6484 12.7148 14.9414 12.7148 15.4102C12.7148 15.5508 12.7148 15.6797 12.7383 15.8086C12.8789 17.0039 13.6406 17.8125 14.8594 17.8125Z" fill="black" fill-opacity="0.85"/>
</svg>
