<svg width="26" height="22" viewBox="0 0 26 22" fill="none" xmlns="http://www.w3.org/2000/svg">
<path d="M1.07812 21.8203C1.74609 21.8203 2.16797 21.375 2.16797 20.6953V12.9492H5.66016C5.80078 12.9492 5.96484 12.9375 6.10547 12.9375L10.6641 21.1172C10.957 21.6445 11.2383 21.832 11.7539 21.832C12.3867 21.832 12.832 21.3984 12.832 20.8242C12.832 20.5781 12.7734 20.3555 12.6094 20.0508L8.35547 12.5977C11.0977 11.8242 12.7383 9.62109 12.7383 6.67969C12.7383 2.95312 10.125 0.574219 6.08203 0.574219H1.11328C0.421875 0.574219 0 1.01953 0 1.73438V20.6953C0 21.3867 0.421875 21.8203 1.07812 21.8203ZM2.16797 11.0156V2.51953H5.80078C8.74219 2.51953 10.4883 4.07812 10.4883 6.75C10.4883 9.45703 8.80078 11.0156 5.89453 11.0156H2.16797ZM20.1914 21.5742C23.4727 21.5742 25.8633 19.7578 25.8633 17.1797C25.8633 15.0469 24.7617 13.8867 21.7617 13.1602L19.4883 12.5977C17.6016 12.1406 16.793 11.4023 16.793 10.2305C16.793 8.78906 18.1172 7.76953 20.0859 7.76953C21.7734 7.76953 22.8867 8.54297 23.4844 10.0547C23.707 10.5117 24.0234 10.6758 24.457 10.6758C24.9727 10.6758 25.3125 10.3359 25.3125 9.82031C25.3125 9.71484 25.3008 9.58594 25.2773 9.44531C24.8672 7.44141 22.8164 6.02344 20.0859 6.02344C16.9336 6.02344 14.7188 7.83984 14.7188 10.3477C14.7188 12.457 16.0547 13.7344 18.8789 14.4023L21.1523 14.9531C23.0742 15.4102 23.7539 16.1016 23.7539 17.3438C23.7539 18.8438 22.3594 19.8281 20.1914 19.8281C18.1523 19.8281 16.957 18.9492 16.3945 17.4609C16.1953 17.0742 15.9141 16.8164 15.457 16.8164C14.9062 16.8164 14.5664 17.168 14.5547 17.6836C14.5547 17.8125 14.5664 17.8828 14.5898 18.0117C14.9648 20.0156 16.9922 21.5742 20.1914 21.5742Z" fill="black" fill-opacity="0.85"/>
</svg>
