<svg width="22" height="22" viewBox="0 0 22 22" fill="none" xmlns="http://www.w3.org/2000/svg">
<path d="M3.67969 21.5977H17.8945C20.3555 21.5977 21.5742 20.3789 21.5742 17.9648V3.65625C21.5742 1.24219 20.3555 0.0234375 17.8945 0.0234375H3.67969C1.23047 0.0234375 0 1.23047 0 3.65625V17.9648C0 20.3906 1.23047 21.5977 3.67969 21.5977Z" fill="#FFCC00"/>
<path d="M7.08984 16.8281C6.67969 16.8281 6.41016 16.5117 6.41016 16.0078V5.89453C6.41016 5.39062 6.69141 5.08594 7.125 5.08594H8.54297C10.3125 5.08594 11.2031 6.19922 11.2031 8.47266C11.2031 9.91406 10.6641 11.168 9.69141 11.6602L11.1094 15.6562C11.168 15.8438 11.1914 15.9609 11.1914 16.125C11.1914 16.5234 10.9219 16.8281 10.5234 16.8281C10.207 16.8281 9.97266 16.6992 9.84375 16.3242L8.34375 11.9531H7.79297V16.043C7.79297 16.5352 7.5 16.8281 7.08984 16.8281ZM7.79297 10.5703H8.40234C9.375 10.5703 9.79688 9.87891 9.79688 8.51953C9.79688 7.17188 9.375 6.48047 8.44922 6.48047H7.79297V10.5703ZM13.8047 16.8398C12.5391 16.8398 11.7539 15.9961 11.6133 14.7656C11.5898 14.6367 11.5898 14.4961 11.5898 14.3555C11.5898 13.875 11.8359 13.5703 12.2578 13.5703C12.6562 13.5703 12.8906 13.8516 12.9258 14.332C12.9844 15.082 13.2422 15.5391 13.8164 15.5391C14.3555 15.5391 14.6484 15.1641 14.6484 14.4609C14.6484 13.8281 14.3906 13.418 13.7812 13.1016L13.3008 12.8438C12.1758 12.2578 11.707 11.4844 11.707 10.3125C11.707 8.87109 12.5508 7.91016 13.8047 7.91016C15.0586 7.91016 15.7617 8.83594 15.8906 10.043C15.9023 10.1719 15.9141 10.2773 15.9141 10.4062C15.9141 10.8867 15.668 11.1914 15.2461 11.1914C14.8359 11.1914 14.625 10.8984 14.5898 10.4297C14.5195 9.64453 14.3555 9.23438 13.793 9.23438C13.3242 9.23438 13.0664 9.62109 13.0664 10.2656C13.0664 10.8516 13.3359 11.2031 13.9805 11.543L14.4492 11.8008C15.6094 12.4453 16.0312 13.1602 16.0312 14.3672C16.0312 15.8672 15.1523 16.8398 13.8047 16.8398Z" fill="black" fill-opacity="0.85"/>
</svg>
