<svg width="24" height="24" viewBox="0 0 24 24" fill="none" xmlns="http://www.w3.org/2000/svg">
<path d="M11.9531 23.9062C18.4922 23.9062 23.9062 18.4805 23.9062 11.9531C23.9062 5.41406 18.4805 0 11.9414 0C5.41406 0 0 5.41406 0 11.9531C0 18.4805 5.42578 23.9062 11.9531 23.9062ZM11.9531 21.9141C6.42188 21.9141 2.00391 17.4844 2.00391 11.9531C2.00391 6.42188 6.41016 1.99219 11.9414 1.99219C17.4727 1.99219 21.9141 6.42188 21.9141 11.9531C21.9141 17.4844 17.4844 21.9141 11.9531 21.9141Z" fill="#007AFF"/>
<path d="M11.8242 17.4492C14.4492 17.4492 16.1719 16.1719 16.1719 14.1562C16.1719 12.6094 15.0469 11.7539 12.9844 11.2031L11.4141 10.7812C10.2891 10.4883 9.82031 10.0547 9.82031 9.33984C9.82031 8.35547 10.6289 7.73438 11.8711 7.73438C13.0547 7.73438 13.8047 8.20312 14.1914 9.17578C14.3672 9.5625 14.6133 9.77344 15.0586 9.77344C15.5391 9.77344 15.8906 9.50391 15.8906 8.96484C15.8906 8.8125 15.8555 8.61328 15.7734 8.40234C15.3398 7.16016 13.9336 6.24609 11.9414 6.24609C9.55078 6.24609 7.875 7.58203 7.875 9.44531C7.875 10.9219 8.83594 11.7656 10.6523 12.2695L12.3516 12.75C13.7461 13.1367 14.2266 13.4883 14.2266 14.3086C14.2266 15.3516 13.2305 15.9258 11.9414 15.9258C10.7109 15.9258 9.85547 15.4453 9.44531 14.5078C9.23438 14.0742 8.98828 13.875 8.56641 13.875C8.05078 13.875 7.72266 14.2031 7.72266 14.7188C7.72266 14.8945 7.75781 15.082 7.85156 15.293C8.27344 16.418 9.69141 17.4492 11.8242 17.4492Z" fill="black" fill-opacity="0.85"/>
</svg>
