<svg width="22" height="22" viewBox="0 0 22 22" fill="none" xmlns="http://www.w3.org/2000/svg">
<path d="M3.67969 21.5977H17.8945C20.3555 21.5977 21.5742 20.3789 21.5742 17.9648V3.65625C21.5742 1.24219 20.3555 0.0234375 17.8945 0.0234375H3.67969C1.23047 0.0234375 0 1.23047 0 3.65625V17.9648C0 20.3906 1.23047 21.5977 3.67969 21.5977Z" fill="#FFCC00"/>
<path d="M10.6758 16.4648C8.47266 16.4648 7.00781 15.3984 6.57422 14.25C6.48047 14.0273 6.43359 13.8281 6.43359 13.6406C6.43359 13.1133 6.78516 12.7734 7.3125 12.7734C7.74609 12.7734 8.00391 12.9844 8.22656 13.4297C8.64844 14.3906 9.52734 14.8828 10.793 14.8828C12.1172 14.8828 13.1367 14.2969 13.1367 13.2305C13.1367 12.3867 12.6445 12.0234 11.2148 11.625L9.45703 11.1211C7.58203 10.6055 6.59766 9.73828 6.59766 8.21484C6.59766 6.28125 8.32031 4.91016 10.8047 4.91016C12.8438 4.91016 14.2969 5.84766 14.7539 7.13672C14.8359 7.34766 14.8711 7.55859 14.8711 7.71094C14.8711 8.27344 14.5078 8.55469 14.0156 8.55469C13.5469 8.55469 13.2891 8.33203 13.125 7.93359C12.7031 6.92578 11.9414 6.44531 10.7227 6.44531C9.44531 6.44531 8.61328 7.08984 8.61328 8.09766C8.61328 8.83594 9.09375 9.28125 10.2539 9.58594L11.8711 10.0195C13.9922 10.582 15.1641 11.4727 15.1641 13.0664C15.1641 15.1523 13.3828 16.4648 10.6758 16.4648Z" fill="black" fill-opacity="0.85"/>
</svg>
