<svg width="22" height="22" viewBox="0 0 22 22" fill="none" xmlns="http://www.w3.org/2000/svg">
<path d="M3.67969 21.5977H17.8945C20.3555 21.5977 21.5742 20.3789 21.5742 17.9648V3.65625C21.5742 1.24219 20.3555 0.0234375 17.8945 0.0234375H3.67969C1.23047 0.0234375 0 1.23047 0 3.65625V17.9648C0 20.3906 1.23047 21.5977 3.67969 21.5977ZM3.70312 19.7109C2.53125 19.7109 1.88672 19.0898 1.88672 17.8711V3.75C1.88672 2.53125 2.53125 1.91016 3.70312 1.91016H17.8711C19.0312 1.91016 19.6875 2.53125 19.6875 3.75V17.8711C19.6875 19.0898 19.0312 19.7109 17.8711 19.7109H3.70312Z" fill="#007AFF"/>
<path d="M10.6758 16.2891C13.3008 16.2891 15.0234 15.0117 15.0234 12.9961C15.0234 11.4492 13.8984 10.5938 11.8359 10.043L10.2656 9.62109C9.14062 9.32812 8.67188 8.89453 8.67188 8.17969C8.67188 7.19531 9.48047 6.57422 10.7227 6.57422C11.9062 6.57422 12.6562 7.04297 13.0547 8.01562C13.2188 8.40234 13.4648 8.61328 13.9219 8.61328C14.3906 8.61328 14.7422 8.34375 14.7422 7.80469C14.7422 7.65234 14.707 7.45312 14.6367 7.24219C14.1914 6 12.7852 5.08594 10.8047 5.08594C8.40234 5.08594 6.72656 6.42188 6.72656 8.28516C6.72656 9.76172 7.6875 10.6055 9.50391 11.1094L11.2031 11.5898C12.5977 11.9766 13.0781 12.3281 13.0781 13.1484C13.0781 14.1914 12.082 14.7656 10.793 14.7656C9.5625 14.7656 8.70703 14.2852 8.29688 13.3477C8.08594 12.9141 7.83984 12.7148 7.41797 12.7148C6.91406 12.7148 6.57422 13.043 6.57422 13.5586C6.57422 13.7344 6.62109 13.9219 6.70312 14.1328C7.125 15.2578 8.54297 16.2891 10.6758 16.2891Z" fill="black" fill-opacity="0.85"/>
</svg>
