<svg width="27" height="31" viewBox="0 0 27 31" fill="none" xmlns="http://www.w3.org/2000/svg">
<path d="M0.0984283 23.8828L1.10624 27.3398C1.29374 27.9375 1.53983 28.3711 1.86796 28.6875L3.3914 27.6914C2.98124 27.5273 2.71171 27.1992 2.55937 26.6602L1.77421 23.7539C1.71562 23.5664 1.78593 23.4375 1.98515 23.4375H24.7195C24.9187 23.4375 24.9773 23.6016 24.8367 23.7539L22.3055 26.6484C21.907 27.0938 21.5906 27.4688 20.8875 27.668L22.3172 28.7227C22.9266 28.3008 23.3953 27.7148 24.0047 27.0234L26.5359 24.1172C27.368 23.1445 26.7586 21.8438 25.4109 21.8438H1.58671C0.309366 21.8438 -0.241415 22.7109 0.0984283 23.8828ZM11.2547 22.8281H12.8367V0.796875C12.8367 0.363281 12.4734 0 12.0398 0C11.6062 0 11.2547 0.363281 11.2547 0.796875V22.8281ZM12.157 18.7969H16.9734C20.5008 18.7969 22.4578 16.9922 22.4578 14.0742C22.4578 9.10547 17.3016 3.51562 12.4969 1.00781L11.6883 2.37891C15.6726 4.11328 20.8758 9.31641 20.8758 13.8281C20.8758 15.8672 19.4461 17.2031 16.9851 17.2031H12.157V18.7969ZM13.1414 3.11719C17.032 8.69531 15.7781 15.4805 12.0984 17.3438L12.4266 18.7266C17.4539 16.418 18.6492 9.12891 14.5008 2.88281L13.1414 3.11719ZM2.93437 18.7969H11.8641V17.2031H4.4578C4.31718 17.2031 4.25858 17.0625 4.37577 16.9805C8.38358 13.957 12.0867 6.99609 12.6961 2.22656L11.2547 1.23047C11.3484 5.17969 7.65702 12.6914 2.27812 16.5938C1.1414 17.4258 1.77421 18.7969 2.93437 18.7969ZM12.4148 29.9531C15.6023 29.9531 16.118 27.5742 17.9695 27.5742C19.8797 27.5742 20.1844 29.9531 23.8406 29.9531H25.0242C25.4812 29.9531 25.8562 29.5781 25.8562 29.1211C25.8562 28.6641 25.4812 28.3008 25.0242 28.3008H23.8406C22.575 28.3008 21.8719 27.7734 20.9812 27.1523C20.2195 26.6016 19.2703 25.9219 17.9695 25.9219C16.6336 25.9219 15.6726 26.6367 14.8992 27.2109C14.1023 27.8203 13.4578 28.3008 12.4148 28.3008C11.3601 28.3008 10.7156 27.8203 9.91874 27.2109C9.1453 26.6367 8.18437 25.9219 6.84843 25.9219C5.54765 25.9219 4.59843 26.6016 3.83671 27.1523C2.94608 27.7734 2.24296 28.3008 0.977335 28.3008H0.918741C0.46171 28.3008 0.0984283 28.6641 0.0984283 29.1211C0.0984283 29.5781 0.46171 29.9531 0.918741 29.9531H0.977335C4.63358 29.9531 4.93827 27.5742 6.84843 27.5742C8.69999 27.5742 9.21562 29.9531 12.4148 29.9531Z" fill="black" fill-opacity="0.85"/>
</svg>
