<svg width="24" height="25" viewBox="0 0 24 25" fill="none" xmlns="http://www.w3.org/2000/svg">
<path d="M0.171838 20.918C-0.437537 23.3555 0.593712 24.7617 2.94918 24.7617H20.2226C22.5781 24.7617 23.6093 23.3555 23 20.918L20.4101 10.4531C19.9765 8.73047 18.7343 7.73438 16.9882 7.73438H6.18356C4.43746 7.73438 3.18356 8.73047 2.76168 10.4531L0.171838 20.918ZM10.6367 9.10547H12.5234V5.76562H10.6367V9.10547ZM11.5859 6.67969C13.4023 6.67969 14.9375 5.16797 14.9375 3.35156C14.9375 1.52344 13.4023 0 11.5859 0C9.75778 0 8.23434 1.52344 8.23434 3.35156C8.23434 5.17969 9.76949 6.67969 11.5859 6.67969ZM11.5859 5.05078C10.6601 5.05078 9.87496 4.27734 9.87496 3.35156C9.87496 2.42578 10.6484 1.62891 11.5859 1.62891C12.5117 1.62891 13.2968 2.42578 13.2968 3.35156C13.2968 4.27734 12.5234 5.05078 11.5859 5.05078Z" fill="black" fill-opacity="0.85"/>
</svg>
