<svg width="28" height="22" viewBox="0 0 28 22" fill="none" xmlns="http://www.w3.org/2000/svg">
<path d="M0 17.9766C0 20.3906 1.23047 21.5977 3.67969 21.5977H23.8594C26.2969 21.5977 27.5391 20.3789 27.5391 17.9766V14.1328C27.5391 13.3594 27.3047 12.4922 26.6836 11.8242L22.2422 7.10156C21.1758 5.97656 20.3555 5.33203 18.7734 5.33203H8.54297C7.17188 5.33203 6.36328 5.97656 5.29688 7.10156L0.855469 11.8242C0.234375 12.4922 0 13.3594 0 14.1328V17.9766ZM2.61328 12.7969L6.84375 8.08594C7.44141 7.42969 7.875 7.06641 8.57812 7.06641H18.9492C19.6523 7.06641 20.0977 7.41797 20.6953 8.08594L24.9258 12.7969C25.2422 13.1602 25.0664 13.6992 24.4805 13.6992H3.05859C2.47266 13.6992 2.29688 13.1602 2.61328 12.7969ZM1.75781 1.6875L5.4375 5.40234C6.49219 6.48047 7.03125 6.83203 8.35547 6.83203H19.0781C20.4961 6.83203 21.0469 6.48047 22.1016 5.40234L25.7812 1.6875C26.3789 1.08984 26.0859 0.0117188 25.043 0.0117188H2.49609C1.45312 0.0117188 1.16016 1.08984 1.75781 1.6875ZM6.69141 12.0117C6.78516 12.293 7.10156 12.4219 7.39453 12.3164L12.7852 10.3477C13.0898 10.2422 13.2305 9.96094 13.125 9.65625C13.0195 9.36328 12.7266 9.23438 12.4219 9.35156L7.03125 11.3203C6.72656 11.4258 6.58594 11.707 6.69141 12.0117ZM6.86719 9.86719C6.97266 10.1719 7.27734 10.2891 7.57031 10.1836L11.2852 8.83594C11.5781 8.73047 11.7422 8.4375 11.625 8.14453C11.5195 7.83984 11.2148 7.73438 10.9336 7.83984L7.20703 9.1875C6.90234 9.29297 6.76172 9.58594 6.86719 9.86719ZM18.7148 17.6367C18.7148 17.2617 18.9961 16.9922 19.3828 16.9922H22.6172C22.9922 16.9922 23.2734 17.2617 23.2734 17.6367C23.2734 18.0117 22.9922 18.2695 22.6172 18.2695H19.3828C19.0195 18.2695 18.7148 18.0117 18.7148 17.6367Z" fill="black" fill-opacity="0.85"/>
</svg>
