<svg width="33" height="26" viewBox="0 0 33 26" fill="none" xmlns="http://www.w3.org/2000/svg">
<path d="M5.77734 1.73438C3.16406 1.73438 1.06641 3.85546 1.06641 6.49218C1.06641 9.11718 3.16406 11.2266 5.77734 11.2266C7.96875 11.2266 8.32031 10.3125 9.29297 10.3125C9.51562 10.3125 9.67969 10.3594 9.97266 10.5L11.8008 11.4727C12.7148 11.9414 12.9961 12.2461 13.1602 12.8555L13.3945 13.7109C13.7578 15.0117 14.3789 15.6914 15.7852 16.1953L25.793 19.793C28.7109 20.8242 30.6211 20.5312 31.1016 18.7734L11.2734 8.25C10.5586 7.86328 10.5117 7.47655 10.5117 6.49218C10.5117 3.84374 8.40234 1.73438 5.77734 1.73438ZM5.77734 3.65624C7.35938 3.65624 8.60156 4.92187 8.60156 6.49218C8.60156 8.05077 7.35938 9.31641 5.77734 9.31641C4.24219 9.31641 2.98828 8.05077 2.98828 6.49218C2.98828 4.92187 4.24219 3.65624 5.77734 3.65624Z" fill="black" fill-opacity="0.85"/>
<path d="M5.77734 25.6288C8.98828 25.6288 11.5781 23.039 11.5781 19.8046C11.5781 19.2304 11.6133 19.078 11.8594 18.9491L32.2969 8.09759C31.9922 4.78118 29.1094 4.19524 25.4297 5.50774L15.4219 9.1054C13.6992 9.71477 12.8086 10.6757 12.3633 12.3046L12.1289 13.1718C12.082 13.4061 11.8594 13.6054 11.3086 13.8866L9.65625 14.7655C9.46875 14.871 9.375 14.9296 9.26953 14.9296C8.73047 14.9296 8.16797 14.0155 5.77734 14.0155C2.57812 14.0155 0 16.6054 0 19.8046C0 23.0272 2.57812 25.6288 5.77734 25.6288Z" fill="white"/>
<path d="M5.77734 24.5625C8.40234 24.5625 10.5117 22.4531 10.5117 19.8047C10.5117 18.832 10.5586 18.4453 11.2734 18.0586L31.1016 7.52347C30.6211 5.76565 28.7109 5.47269 25.793 6.50394L15.7852 10.1016C14.3789 10.6055 13.7461 11.2852 13.3945 12.5977L13.1602 13.4531C12.9961 14.0625 12.7148 14.3672 11.8008 14.8359L9.97266 15.7969C9.67969 15.9492 9.51562 15.9961 9.29297 15.9961C8.32031 15.9961 7.96875 15.082 5.77734 15.082C3.16406 15.082 1.06641 17.1914 1.06641 19.8047C1.06641 22.4414 3.16406 24.5625 5.77734 24.5625ZM5.77734 22.6406C4.24219 22.6406 2.98828 21.3867 2.98828 19.8047C2.98828 18.2578 4.24219 16.9922 5.77734 16.9922C7.35938 16.9922 8.60156 18.2578 8.60156 19.8047C8.60156 21.3867 7.35938 22.6406 5.77734 22.6406ZM16.0547 13.5C15.5273 13.5 15.0703 13.0664 15.0703 12.5273C15.0703 11.9648 15.5273 11.543 16.0547 11.543C16.5938 11.543 17.0508 11.9648 17.0508 12.5273C17.0508 13.0664 16.5938 13.5 16.0547 13.5Z" fill="black" fill-opacity="0.85"/>
</svg>
