<svg width="30" height="30" viewBox="0 0 30 30" fill="none" xmlns="http://www.w3.org/2000/svg">
<path d="M10.3352 12.4008C9.72584 13.0219 9.73756 13.7836 10.3352 14.3813L15.386 19.432C15.9836 20.0297 16.7454 20.0414 17.3547 19.4203L19.2532 17.5336C18.7961 16.9945 18.8196 16.2445 19.3235 15.7406C19.8274 15.2367 20.5657 15.2133 21.1047 15.6703L28.0071 8.77967C29.7532 7.03358 29.7766 5.14686 28.054 3.41248L26.343 1.71326C24.5969 -0.0211072 22.7336 0.00233018 20.9758 1.76014L14.0969 8.66248C14.554 9.20154 14.5305 9.95154 14.0266 10.4438C13.511 10.9359 12.7727 10.9594 12.2336 10.5023L10.3352 12.4008ZM11.8352 12.9984L12.5735 12.2602C13.4524 12.4477 14.2376 12.1664 14.9407 11.4633C15.6555 10.7602 15.9133 9.96326 15.7141 9.11951L22.1243 2.72108C23.1321 1.71326 24.2571 1.71326 25.2415 2.70936L27.0579 4.51404C28.054 5.51014 28.054 6.63514 27.0461 7.64295L20.6477 14.0531C19.804 13.8539 19.0071 14.1117 18.2922 14.8266C17.5891 15.518 17.3196 16.3148 17.4954 17.1938L16.7688 17.9203C16.5227 18.1664 16.218 18.1898 15.9485 17.932L11.8235 13.807C11.5657 13.5492 11.5891 13.2445 11.8352 12.9984ZM18.1633 9.35389C17.9641 9.54139 17.9641 9.83436 18.1751 10.0453C18.3391 10.2094 18.6555 10.2328 18.8313 10.0453L23.6711 5.15858C23.8586 4.98279 23.8704 4.70154 23.6711 4.50233C23.5071 4.33826 23.2024 4.31483 23.0149 4.50233L18.1633 9.35389ZM19.7336 10.9359C19.5461 11.1117 19.5579 11.4281 19.7336 11.6039C19.9329 11.7914 20.2258 11.7914 20.4133 11.6039L25.2649 6.76404C25.4524 6.57654 25.4524 6.28358 25.2649 6.08436C25.0891 5.89686 24.7727 5.92029 24.5969 6.08436L19.7336 10.9359ZM2.87037 22.4789L0.175056 26.4867C-0.0358819 26.7914 -0.0710382 27.1078 0.151618 27.3188L2.43677 29.6156C2.65943 29.8266 2.96412 29.7914 3.28052 29.5922L7.28834 26.8969C7.6399 26.6625 7.87427 26.3109 7.93287 25.9125L8.12037 24.682L14.9172 17.8969L13.9094 16.8891L6.69068 24.1195L6.43287 25.5609L3.01099 28.1625L1.59302 26.7445L4.19459 23.3227L5.64771 23.0766L12.8665 15.8461L11.8586 14.8383L5.07349 21.6469L3.84302 21.8344C3.45631 21.8813 3.09302 22.1273 2.87037 22.4789Z" fill="black" fill-opacity="0.85"/>
</svg>
