<svg width="25" height="25" viewBox="0 0 25 25" fill="none" xmlns="http://www.w3.org/2000/svg">
<path d="M0 5.67188C0 6.375 0.46875 6.83203 1.19531 6.83203H4.24219V21.2109C4.24219 23.6719 5.44922 24.8906 7.91016 24.8906H21.3047C23.5312 24.8906 24.9961 23.3672 24.9961 21.0586V17.8711C24.9961 17.168 24.5273 16.7109 23.8008 16.7109H22.8281V3.67969C22.8281 1.23047 21.6094 0 19.1953 0H3.07031C1.24219 0 0 1.24219 0 3.19922V5.67188ZM6.12891 21.2227V3.19922C6.12891 2.71875 6.08203 2.27344 5.98828 1.88672H19.0898C20.3086 1.88672 20.9414 2.53125 20.9414 3.70312V16.7109H10.875C10.1484 16.7109 9.66797 17.168 9.66797 17.8711V21.2227C9.66797 22.2891 8.92969 23.0039 7.91016 23.0039C6.86719 23.0039 6.12891 22.2539 6.12891 21.2227ZM1.88672 4.94531V3.19922C1.88672 2.37891 2.39062 1.88672 3.07031 1.88672C3.77344 1.88672 4.24219 2.37891 4.24219 3.19922V4.94531H1.88672ZM11.0977 23.0039C11.3906 22.4883 11.5547 21.8555 11.5547 21.0938V18.5977H23.1094V21.0586C23.1094 22.2188 22.3828 23.0039 21.3047 23.0039H11.0977ZM9.50391 10.9336H13.7109C14.1328 10.9336 14.4375 10.6289 14.4375 10.2305C14.4375 9.82031 14.1328 9.49219 13.7109 9.49219H9.50391C9.08203 9.49219 8.76562 9.82031 8.76562 10.2305C8.76562 10.6289 9.08203 10.9336 9.50391 10.9336ZM9.50391 6.84375H17.5664C17.9883 6.84375 18.293 6.52734 18.293 6.11719C18.293 5.71875 17.9883 5.40234 17.5664 5.40234H9.50391C9.08203 5.40234 8.76562 5.71875 8.76562 6.11719C8.76562 6.52734 9.08203 6.84375 9.50391 6.84375Z" fill="black" fill-opacity="0.85"/>
</svg>
