<svg width="29" height="21" viewBox="0 0 29 21" fill="none" xmlns="http://www.w3.org/2000/svg">
<path d="M24.9614 13.3476C25.2778 13.7226 25.8403 13.7226 26.2153 13.3007C27.6802 11.6601 28.4771 9.53899 28.4771 7.21868C28.4771 4.89837 27.6802 2.76555 26.2153 1.12493C25.8521 0.714778 25.3013 0.714778 24.9849 1.06634C24.6567 1.42962 24.7388 1.88665 25.0903 2.29681C26.2622 3.63274 26.8716 5.34368 26.8716 7.21868C26.8716 9.08196 26.2622 10.8046 25.0903 12.1288C24.7388 12.539 24.6567 12.9843 24.9614 13.3476Z" fill="#007AFF"/>
<path d="M22.278 10.8164C22.5945 11.1797 23.1921 11.2031 23.5437 10.7344C24.2937 9.75003 24.739 8.53128 24.739 7.21878C24.739 5.90628 24.2937 4.67581 23.5437 3.70315C23.1921 3.23441 22.6062 3.24612 22.2898 3.60941C21.9499 3.96097 22.0788 4.39456 22.3835 4.81644C22.8874 5.53128 23.1335 6.33987 23.1335 7.21878C23.1335 8.08597 22.8874 8.90628 22.3835 9.62112C22.0905 10.0312 21.9499 10.4648 22.278 10.8164Z" fill="#007AFF"/>
<path d="M3.67969 20.3203H16.3242C18.7852 20.3203 20.0039 19.1016 20.0039 16.6875V3.63281C20.0039 1.21875 18.7852 0 16.3242 0H3.67969C1.23047 0 0 1.20703 0 3.63281V16.6875C0 19.1016 1.23047 20.3203 3.67969 20.3203ZM3.70312 18.4336C2.53125 18.4336 1.88672 17.8008 1.88672 16.582V3.72656C1.88672 2.51953 2.53125 1.88672 3.70312 1.88672H16.3008C17.4492 1.88672 18.1172 2.51953 18.1172 3.72656V16.582C18.1172 17.8008 17.4492 18.4336 16.3008 18.4336H3.70312ZM9.45703 10.6992C9.85547 10.6992 10.1719 10.3945 10.1719 9.99609V4.45312C10.1719 4.05469 9.85547 3.75 9.45703 3.75C9.05859 3.75 8.75391 4.05469 8.75391 4.45312V9.99609C8.75391 10.3945 9.05859 10.6992 9.45703 10.6992ZM12.4336 10.6992C12.832 10.6992 13.1484 10.3945 13.1484 9.99609V4.45312C13.1484 4.05469 12.832 3.75 12.4336 3.75C12.0352 3.75 11.7305 4.05469 11.7305 4.45312V9.99609C11.7305 10.3945 12.0352 10.6992 12.4336 10.6992ZM15.4219 10.6992C15.8203 10.6992 16.125 10.3945 16.125 9.99609V4.45312C16.125 4.05469 15.8203 3.75 15.4219 3.75C15.0234 3.75 14.707 4.05469 14.707 4.45312V9.99609C14.707 10.3945 15.0234 10.6992 15.4219 10.6992Z" fill="black" fill-opacity="0.85"/>
</svg>
