<svg width="29" height="28" viewBox="0 0 29 28" fill="none" xmlns="http://www.w3.org/2000/svg">
<path d="M1.69726 20.3306H4.06445C5.17773 20.3306 5.74023 19.7798 5.74023 18.6782V16.2524C5.74023 15.1626 5.17773 14.6118 4.06445 14.6118H1.69726C0.583984 14.6118 0.0214844 15.1509 0.0214844 16.2524V18.6782C0.0214844 19.7798 0.583984 20.3306 1.69726 20.3306Z" fill="#007AFF"/>
<path d="M4.81445 11.8696H13.3223C14.4473 11.8696 15.0098 11.3306 15.0098 10.229V4.5337C15.0098 3.44386 14.4473 2.89307 13.3223 2.89307H4.81445C3.70117 2.89307 3.13867 3.44386 3.13867 4.5337V10.229C3.13867 11.3306 3.70117 11.8696 4.81445 11.8696Z" fill="#007AFF"/>
<path d="M23.7987 18.104H27.2558C28.3808 18.104 28.9433 17.5532 28.9433 16.4634V9.63135C28.9433 8.5415 28.3808 7.99072 27.2558 7.99072H23.7987C22.6855 7.99072 22.123 8.5415 22.123 9.63135V16.4634C22.123 17.5532 22.6855 18.104 23.7987 18.104Z" fill="#007AFF"/>
<path d="M15.3848 17.7642C18.3496 17.7642 20.8457 15.1743 20.8457 11.8931C20.8457 8.61181 18.3027 6.15088 15.3848 6.15088C12.4551 6.15088 9.92383 8.65869 9.92383 11.9165C9.92383 15.1743 12.4199 17.7642 15.3848 17.7642Z" fill="white"/>
<path d="M15.3848 16.1587C17.4473 16.1587 19.2403 14.3071 19.2403 11.8931C19.2403 9.51416 17.4473 7.74463 15.3848 7.74463C13.3223 7.74463 11.5176 9.54931 11.5176 11.9165C11.5176 14.3071 13.3223 16.1587 15.3848 16.1587ZM8.90429 25.1001H21.8535C22.8848 25.1001 23.5059 24.6196 23.5059 23.8228C23.5059 21.3267 20.3887 17.8814 15.3848 17.8814C10.3692 17.8814 7.25195 21.3267 7.25195 23.8228C7.25195 24.6196 7.87304 25.1001 8.90429 25.1001Z" fill="#007AFF"/>
<path d="M24.3741 27.3149C25.2764 28.2056 26.7295 28.2056 27.5967 27.2915C28.4756 26.4009 28.4639 25.0181 27.585 24.1157L4.37012 0.86573C3.47949 -0.0366139 2.03808 -0.0248951 1.14746 0.86573C0.268555 1.73292 0.268555 3.19776 1.14746 4.07667L24.3741 27.3149Z" fill="white"/>
<path d="M25.3447 26.354C25.6963 26.7056 26.2822 26.7056 26.6221 26.354C26.9619 25.9907 26.9736 25.4399 26.6221 25.0767L3.39551 1.82668C3.03223 1.4634 2.46973 1.47512 2.10645 1.82668C1.7666 2.16652 1.7666 2.76418 2.10645 3.10402L25.3447 26.354Z" fill="black" fill-opacity="0.85"/>
</svg>
