<svg width="22" height="22" viewBox="0 0 22 22" fill="none" xmlns="http://www.w3.org/2000/svg">
<path d="M3.67969 21.5977H17.8945C20.3555 21.5977 21.5742 20.3789 21.5742 17.9648V3.65625C21.5742 1.24219 20.3555 0.0234375 17.8945 0.0234375H3.67969C1.23047 0.0234375 0 1.23047 0 3.65625V17.9648C0 20.3906 1.23047 21.5977 3.67969 21.5977ZM3.70312 19.7109C2.53125 19.7109 1.88672 19.0898 1.88672 17.8711V3.75C1.88672 2.53125 2.53125 1.91016 3.70312 1.91016H17.8711C19.0312 1.91016 19.6875 2.53125 19.6875 3.75V17.8711C19.6875 19.0898 19.0312 19.7109 17.8711 19.7109H3.70312Z" fill="#007AFF"/>
<path d="M6.30469 15.9375C6.30469 16.3594 6.62109 16.6523 7.03125 16.6523C7.44141 16.6523 7.71094 16.3477 7.71094 15.9258V6.96094H9.26953C10.5469 6.96094 11.1094 7.34766 11.1094 8.69531V12.7734C11.1094 13.2188 11.4023 13.5 11.8125 13.5C12.2227 13.5 12.5039 13.2188 12.5039 12.7734V8.49609C12.5039 6.38672 11.5547 5.46094 9.60938 5.46094H7.23047C6.67969 5.46094 6.30469 5.82422 6.30469 6.375V15.9375ZM8.73047 15.6211C8.73047 16.1719 9.07031 16.5234 9.63281 16.5234H12.0586C14.0508 16.5234 14.9062 15.5977 14.9062 13.2539V6.05859C14.9062 5.63672 14.6367 5.34375 14.2148 5.34375C13.793 5.34375 13.5117 5.625 13.5117 6.05859V13.2539C13.5117 14.7539 13.0898 15.0117 11.7773 15.0117H10.125V9.1875C10.125 8.74219 9.84375 8.47266 9.44531 8.47266C9.02344 8.47266 8.73047 8.74219 8.73047 9.1875V15.6211Z" fill="black" fill-opacity="0.85"/>
</svg>
