<svg width="24" height="24" viewBox="0 0 24 24" fill="none" xmlns="http://www.w3.org/2000/svg">
<path d="M11.9531 23.9062C18.4922 23.9062 23.9062 18.4805 23.9062 11.9531C23.9062 5.41406 18.4805 0 11.9414 0C5.41406 0 0 5.41406 0 11.9531C0 18.4805 5.42578 23.9062 11.9531 23.9062Z" fill="#FFCC00"/>
<path d="M7.3125 17.25V7.39453C7.3125 6.82031 7.69922 6.44531 8.27344 6.44531H10.7227C12.7383 6.44531 13.7109 7.39453 13.7109 9.57422V13.9922C13.7109 14.4492 13.4297 14.7422 12.9961 14.7422C12.5742 14.7422 12.2695 14.4492 12.2695 13.9922V9.78516C12.2695 8.39062 11.6953 8.00391 10.3711 8.00391H8.76562V17.2383C8.76562 17.6836 8.48438 18 8.0625 18C7.64062 18 7.3125 17.6953 7.3125 17.25ZM9.82031 16.9219V10.2891C9.82031 9.83203 10.125 9.55078 10.5586 9.55078C10.9688 9.55078 11.2617 9.83203 11.2617 10.2891V16.3008H12.9609C14.3203 16.3008 14.7539 16.0312 14.7539 14.4844V7.06641C14.7539 6.60938 15.0469 6.31641 15.4805 6.31641C15.9141 6.31641 16.1953 6.62109 16.1953 7.06641V14.4844C16.1953 16.9102 15.3047 17.8594 13.2539 17.8594H10.7461C10.1719 17.8594 9.82031 17.4961 9.82031 16.9219Z" fill="black" fill-opacity="0.85"/>
</svg>
