<svg width="27" height="27" viewBox="0 0 27 27" fill="none" xmlns="http://www.w3.org/2000/svg">
<path d="M13.6465 25.5805C13.834 25.5805 14.127 25.5102 14.4317 25.3462C21.0996 21.6079 23.3848 20.0258 23.3848 15.7485V6.78369C23.3848 5.55322 22.8457 5.1665 21.8614 4.74463C20.4785 4.17041 16.0137 2.56494 14.6192 2.08447C14.3145 1.979 13.9746 1.90869 13.6465 1.90869C13.3184 1.90869 12.9785 2.00244 12.6621 2.08447C11.2793 2.48291 6.81445 4.18213 5.43164 4.74463C4.43555 5.15478 3.9082 5.55322 3.9082 6.78369V15.7485C3.9082 20.0258 6.20508 21.5962 12.8614 25.3462C13.1543 25.5102 13.459 25.5805 13.6465 25.5805ZM13.6465 23.4594C13.459 23.4594 13.2598 23.3891 12.92 23.1782C7.50586 19.8969 5.77148 18.936 5.77148 15.3149V7.14697C5.77148 6.74853 5.8418 6.59619 6.1582 6.46728C7.93945 5.76416 11.4082 4.604 13.1778 3.90088C13.3653 3.81884 13.5176 3.79541 13.6465 3.79541C13.7754 3.79541 13.9278 3.83056 14.1153 3.90088C15.8848 4.604 19.3067 5.84619 21.1231 6.46728C21.4512 6.58447 21.5215 6.74853 21.5215 7.14697V15.3149C21.5215 18.936 19.7754 19.8852 14.3731 23.1782C14.0215 23.3891 13.834 23.4594 13.6465 23.4594Z" fill="#007AFF"/>
<path d="M22.5528 25.7447C23.4434 26.6236 24.8848 26.6353 25.7637 25.7447C26.6426 24.8658 26.6543 23.4361 25.7637 22.5338L3.88479 0.66657C3.00589 -0.212336 1.5762 -0.224055 0.673857 0.643133C-0.216768 1.51032 -0.228487 2.9986 0.662138 3.87751L22.5528 25.7447Z" fill="white"/>
<path d="M23.5254 24.7837C23.877 25.1352 24.4512 25.1352 24.8028 24.7837C25.1426 24.4321 25.1543 23.8579 24.8028 23.5063L2.91211 1.62745C2.56055 1.2876 1.98633 1.2876 1.62305 1.62745C1.2832 1.96729 1.2832 2.56495 1.62305 2.90479L23.5254 24.7837Z" fill="black" fill-opacity="0.85"/>
</svg>
