<svg width="27" height="27" viewBox="0 0 27 27" fill="none" xmlns="http://www.w3.org/2000/svg">
<path d="M13.6465 25.2641C13.834 25.2641 14.1153 25.1938 14.42 25.0415C21.0879 21.5493 23.2325 19.8032 23.2325 15.5962V6.76026C23.2325 5.55323 22.7051 5.16651 21.7325 4.75635C20.3614 4.19385 15.9785 2.6001 14.6075 2.13135C14.3028 2.02589 13.9746 1.96729 13.6465 1.96729C13.3184 1.96729 12.9903 2.0376 12.6739 2.13135C11.3028 2.57667 6.93164 4.20557 5.56055 4.75635C4.57617 5.15479 4.06055 5.55323 4.06055 6.76026V15.5962C4.06055 19.8032 6.32226 21.3501 12.8731 25.0415C13.166 25.2055 13.459 25.2641 13.6465 25.2641Z" fill="#007AFF"/>
<path d="M22.5528 25.7447C23.4434 26.6236 24.8848 26.6353 25.7637 25.7447C26.6426 24.8658 26.6543 23.4361 25.7637 22.5338L3.88479 0.66657C3.00589 -0.212336 1.5762 -0.224055 0.673857 0.643133C-0.216768 1.51032 -0.228487 2.9986 0.662138 3.87751L22.5528 25.7447Z" fill="white"/>
<path d="M23.5254 24.7837C23.877 25.1352 24.4512 25.1352 24.8028 24.7837C25.1426 24.4321 25.1543 23.8579 24.8028 23.5063L2.91211 1.62745C2.56055 1.2876 1.98633 1.2876 1.62305 1.62745C1.2832 1.96729 1.2832 2.56495 1.62305 2.90479L23.5254 24.7837Z" fill="black" fill-opacity="0.85"/>
</svg>
