<svg width="26" height="22" viewBox="0 0 26 22" fill="none" xmlns="http://www.w3.org/2000/svg">
<path d="M8.98828 21.75H16.2188C17.8594 21.75 18.7383 20.7891 18.7383 19.2422V13.9922H23.4961C24.457 13.9922 25.207 13.4062 25.207 12.5156C25.207 11.9648 24.9258 11.5547 24.5039 11.1328L14.0508 0.714844C13.5938 0.257812 13.125 0 12.5977 0C12.082 0 11.6016 0.257812 11.1562 0.714844L0.703125 11.1328C0.246094 11.5781 0 11.9648 0 12.5156C0 13.4062 0.75 13.9922 1.69922 13.9922H6.46875V19.2422C6.46875 20.7891 7.34766 21.75 8.98828 21.75Z" fill="black" fill-opacity="0.85"/>
</svg>
