<svg width="24" height="24" viewBox="0 0 24 24" fill="none" xmlns="http://www.w3.org/2000/svg">
<path d="M11.9531 23.9062C18.4922 23.9062 23.9062 18.4805 23.9062 11.9531C23.9062 5.41406 18.4805 0 11.9414 0C5.41406 0 0 5.41406 0 11.9531C0 18.4805 5.42578 23.9062 11.9531 23.9062Z" fill="#FFCC00"/>
<path d="M12.3867 18.8203V12.3398L18.3047 8.95312C18.3516 9.09375 18.3633 9.25781 18.3633 9.43359V14.3555C18.3633 15.2695 18.0234 15.5977 17.4609 15.9375L12.5039 18.7617C12.4688 18.7852 12.4336 18.8086 12.3867 18.8203ZM11.5195 18.8203C11.4727 18.8086 11.4375 18.7852 11.3906 18.7617L6.44531 15.9375C5.87109 15.5977 5.56641 15.2695 5.56641 14.3555V9.43359C5.56641 9.25781 5.56641 9.09375 5.60156 8.95312L11.5195 12.3398V18.8203ZM11.9531 11.5898L6.01172 8.21484C6.09375 8.12109 6.21094 8.03906 6.36328 7.96875L8.68359 6.64453L14.6484 10.0547L11.9531 11.5898ZM15.5273 9.5625L9.52734 6.15234L10.8164 5.42578C11.2031 5.20312 11.5898 5.08594 11.9531 5.08594C12.3281 5.08594 12.7148 5.20312 13.1016 5.42578L17.543 7.96875C17.6836 8.03906 17.8125 8.12109 17.8945 8.21484L15.5273 9.5625Z" fill="black" fill-opacity="0.85"/>
</svg>
