<svg width="24" height="24" viewBox="0 0 24 24" fill="none" xmlns="http://www.w3.org/2000/svg">
<path d="M11.9531 23.9062C18.4922 23.9062 23.9062 18.4805 23.9062 11.9531C23.9062 5.41406 18.4805 0 11.9414 0C5.41406 0 0 5.41406 0 11.9531C0 18.4805 5.42578 23.9062 11.9531 23.9062ZM11.9531 21.9141C6.42188 21.9141 2.00391 17.4844 2.00391 11.9531C2.00391 6.42188 6.41016 1.99219 11.9414 1.99219C17.4727 1.99219 21.9141 6.42188 21.9141 11.9531C21.9141 17.4844 17.4844 21.9141 11.9531 21.9141Z" fill="#007AFF"/>
<path d="M12.375 18.6094C12.4219 18.5977 12.457 18.5742 12.4922 18.5508L17.2969 15.8203C17.8477 15.4922 18.1758 15.1641 18.1758 14.2852V9.50391C18.1758 9.33984 18.1641 9.17578 18.1172 9.04688L12.375 12.3281V18.6094ZM11.5312 18.6094V12.3281L5.78906 9.04688C5.75391 9.17578 5.75391 9.33984 5.75391 9.50391V14.2852C5.75391 15.1641 6.05859 15.4922 6.60938 15.8203L11.4141 18.5508C11.4492 18.5742 11.4844 18.5977 11.5312 18.6094ZM11.9531 11.6016L14.5664 10.1133L8.77734 6.80859L6.52734 8.09766C6.38672 8.15625 6.26953 8.23828 6.1875 8.33203L11.9531 11.6016ZM15.4219 9.6328L17.7188 8.33203C17.6367 8.23828 17.5195 8.15625 17.3789 8.09766L13.0664 5.625C12.6914 5.40234 12.3164 5.29688 11.9531 5.29688C11.6016 5.29688 11.2266 5.40234 10.8516 5.625L9.59766 6.32812L15.4219 9.6328Z" fill="black" fill-opacity="0.85"/>
</svg>
