<svg width="42" height="22" viewBox="0 0 42 22" fill="none" xmlns="http://www.w3.org/2000/svg">
<path d="M4.62891 16.6407H6.31641V14.754H4.61719C2.90625 14.754 1.88672 14.1915 1.88672 11.6251V6.36338C1.88672 5.8126 2.35547 5.63682 2.78906 5.84776C3.9375 6.35166 5.17969 6.72666 6.83203 6.72666C8.8125 6.72666 10.8398 5.64854 12.4805 3.52744C13.6406 2.03916 14.4141 1.96885 16.0547 2.91807L22.3711 6.57432C23.7891 7.40635 24.4336 7.52354 25.7227 7.52354C26.9297 7.52354 29.8125 7.06651 30.9375 7.06651C32.7539 7.06651 33.6562 7.94541 33.6562 9.67979C33.6562 10.0899 33.5508 10.4649 33.3281 10.8165H35.3789C35.4961 10.4532 35.5547 10.0665 35.5547 9.67979C35.5547 7.00791 33.6914 5.17979 30.9492 5.17979C29.6719 5.17979 26.8008 5.63682 25.7227 5.63682C24.6445 5.63682 24.4102 5.58994 23.2969 4.95713L17.0156 1.27744C14.7773 -0.0233375 12.7031 0.152444 10.9922 2.37901C9.64453 4.10166 8.26172 4.83994 6.83203 4.83994C5.56641 4.83994 4.69922 4.64072 3.76172 4.20713C1.95703 3.42198 0 4.23057 0 6.3751V11.6251C0 15.5626 2.36719 16.6407 4.62891 16.6407ZM3.86719 13.6056H6.31641V12.2931H3.86719C2.75391 12.2931 2.16797 12.1524 1.83984 11.8126V13.172C2.42578 13.4884 2.98828 13.6056 3.86719 13.6056ZM22.7109 5.71885C20.4727 4.41807 18.4102 4.59385 16.6875 6.82041C15.3398 8.54307 13.957 9.28135 12.5273 9.28135C11.2617 9.28135 10.4062 9.08213 9.45703 8.64854C7.66406 7.86338 5.70703 8.67198 5.70703 10.8165V16.0665C5.70703 20.004 8.07422 21.0821 10.3359 21.0821H28.9688C32.7422 21.0821 34.9102 20.5079 37.8516 18.879C40.1836 17.5782 41.2617 15.9728 41.2617 14.1212C41.2617 11.4493 39.3867 9.62119 36.6445 9.62119C35.3789 9.62119 32.5078 10.0782 31.418 10.0782C30.3516 10.0782 30.1055 10.0313 29.0039 9.39854L22.7109 5.71885ZM21.7617 7.35948L28.0664 11.0157C29.4961 11.8478 30.1289 11.9649 31.418 11.9649C32.625 11.9649 35.5078 11.5079 36.6328 11.5079C38.4609 11.5079 39.3633 12.3985 39.3633 14.1212C39.3633 15.3634 38.6484 16.2892 36.9492 17.2384C34.2656 18.7267 32.4844 19.1954 28.9688 19.1954H10.3242C8.60156 19.1954 7.59375 18.6329 7.59375 16.0665V10.8048C7.59375 10.254 8.0625 10.0782 8.49609 10.2892C9.64453 10.7931 10.875 11.1681 12.5273 11.1681C14.5195 11.1681 16.5469 10.0899 18.1875 7.96885C19.3477 6.48057 20.1211 6.41026 21.7617 7.35948ZM7.53516 17.6134C8.13281 17.9298 8.69531 18.047 9.5625 18.047H28.9688C31.9336 18.047 33.4805 17.6485 35.3438 16.6759L37.4297 15.6212C39.3984 14.5899 39.4688 13.8517 39.4453 12.1407L38.2266 12.1173C38.918 12.5392 38.6836 13.4649 36.8086 14.461L34.7109 15.5392C33.082 16.4063 31.8164 16.7345 28.9688 16.7345H9.5625C8.46094 16.7345 7.875 16.5939 7.53516 16.254V17.6134ZM22.8047 6.97276L20.7305 9.82041C20.5078 10.1017 20.543 10.5235 20.8125 10.7345C21.0938 10.9571 21.5273 10.9337 21.7383 10.6524L23.8242 7.79307L22.8047 6.97276ZM25.4531 8.32041L23.4023 11.1329C23.168 11.4493 23.2031 11.836 23.4844 12.0353C23.8008 12.3048 24.1875 12.2813 24.4219 11.9532L26.4727 9.14072L25.4531 8.32041ZM28.0898 9.67979L26.0742 12.4454C25.8398 12.7501 25.875 13.1368 26.1445 13.3478C26.4492 13.6056 26.8359 13.5704 27.0703 13.2657L29.1094 10.4884L28.0898 9.67979Z" fill="black" fill-opacity="0.85"/>
</svg>
