<svg width="42" height="22" viewBox="0 0 42 22" fill="none" xmlns="http://www.w3.org/2000/svg">
<path d="M0.0117188 11.8945C0.75 12.7383 1.54688 13.0078 3.03516 13.0078H4.10156V10.8164C4.10156 7.69918 7.05469 5.84762 10.1016 7.19527C10.8984 7.54684 11.4258 7.68746 12.5273 7.68746C13.5586 7.68746 14.2852 7.28902 15.4219 5.8359C16.8984 3.92574 18.6562 3.16402 20.4961 3.31637L17.0156 1.2773C14.7773 -0.0351919 12.7148 0.164026 10.9922 2.37887C9.64453 4.10152 8.26172 4.8398 6.83203 4.8398C5.56641 4.8398 4.69922 4.64058 3.76172 4.20699C1.95703 3.42184 0 4.23043 0 6.37496V11.6719C0 11.7539 0 11.8242 0.0117188 11.8945ZM4.10156 16.5938C4.10156 16.0664 4.10156 15.5508 4.10156 15.0352C4.10156 14.8125 4.10156 14.5898 4.10156 14.3672C3.73828 14.3672 3.39844 14.3672 3.03516 14.3672C1.95703 14.3672 1.125 14.2031 0.222656 13.5352C0.75 15.4453 2.0625 16.3125 3.60938 16.5352C3.77344 16.5586 3.9375 16.582 4.10156 16.5938ZM35.3086 8.09762C34.793 6.42184 33.1758 5.17965 30.9492 5.17965C29.5078 5.17965 27.2227 5.60152 25.7344 5.63668L30.0469 8.14449C30.457 8.39058 30.7969 8.48434 31.418 8.48434C32.1211 8.48434 33.8555 8.22652 35.3086 8.09762ZM8.73047 17.4492H29.1328C32.0742 17.4492 33.3984 17.0977 35.0742 16.207L38.4961 14.4023C40.4297 13.3711 40.9336 12.0352 40.0664 11.0977C39.3984 10.3125 38.2383 9.62105 36.6445 9.62105C35.3789 9.62105 32.5078 10.0781 31.418 10.0781C30.668 10.0781 30.3281 10.0547 29.7773 9.79684L27.7852 12.4922C27.5508 12.8086 27.1406 12.8555 26.8242 12.5859C26.5547 12.3633 26.5078 11.9766 26.7539 11.6484L28.5703 9.14058L27.1055 8.28512L25.0547 11.1445C24.8086 11.4844 24.4102 11.5078 24.082 11.2266C23.8008 11.0156 23.7422 10.6406 24 10.2891L25.9336 7.60543L24.4805 6.74996L22.2891 9.79684C22.0664 10.0898 21.6211 10.1133 21.3281 9.89058C21.0469 9.66794 21.0234 9.22262 21.2344 8.94137L23.3086 6.07027L22.7109 5.71871C20.4609 4.42965 18.4102 4.59371 16.6875 6.82027C15.3398 8.54293 13.957 9.28121 12.5273 9.28121C11.2617 9.28121 10.4062 9.082 9.45703 8.64841C7.66406 7.86325 5.70703 8.67184 5.70703 10.8164V16.0664C5.70703 16.1602 5.70703 16.2539 5.70703 16.3359C6.45703 17.1797 7.25391 17.4492 8.73047 17.4492ZM39.1289 15.6094L35.7305 17.3906C33.7852 18.4219 32.2031 18.8086 29.1328 18.8086H8.73047C7.65234 18.8086 6.83203 18.6445 5.92969 17.9766C6.57422 20.3672 8.49609 21.082 10.3359 21.082H28.9688C32.7422 21.082 34.9102 20.5078 37.8516 18.8789C40.1836 17.5781 41.2617 15.9727 41.2617 14.1211C41.2617 13.875 41.2383 13.6406 41.2148 13.418C40.9922 14.3086 40.4648 14.8945 39.1289 15.6094Z" fill="black" fill-opacity="0.85"/>
</svg>
