<svg width="24" height="24" viewBox="0 0 24 24" fill="none" xmlns="http://www.w3.org/2000/svg">
<path d="M11.9531 23.9062C18.4922 23.9062 23.9062 18.4805 23.9062 11.9531C23.9062 5.41406 18.4805 0 11.9414 0C5.41406 0 0 5.41406 0 11.9531C0 18.4805 5.42578 23.9062 11.9531 23.9062ZM11.9531 21.9141C6.42188 21.9141 2.00391 17.4844 2.00391 11.9531C2.00391 6.42188 6.41016 1.99219 11.9414 1.99219C17.4727 1.99219 21.9141 6.42188 21.9141 11.9531C21.9141 17.4844 17.4844 21.9141 11.9531 21.9141Z" fill="#007AFF"/>
<path d="M4.94531 14.1681L14.6133 14.1563C15.9961 14.1563 16.6055 14.004 17.4023 13.5939L19.0312 12.7501C19.9336 12.2696 20.1914 11.6837 19.7812 11.2384C19.4766 10.8751 18.9258 10.5353 18.1641 10.5235C17.5547 10.5235 16.207 10.7462 15.6797 10.7462C15.3398 10.7579 15.1758 10.7462 14.918 10.6173L13.9805 11.8946C13.8633 12.047 13.6523 12.0704 13.5 11.9415C13.3594 11.8243 13.3359 11.6368 13.4531 11.4728L14.3203 10.2892L13.6523 9.90245L12.6797 11.2501C12.5625 11.4259 12.3633 11.4376 12.1992 11.3087C12.0586 11.1915 12.0117 10.9923 12.1406 10.8282L13.0664 9.57433L12.4219 9.17589L11.3789 10.6173C11.2734 10.7696 11.0391 10.7813 10.9102 10.6642C10.7578 10.5587 10.7461 10.3243 10.8398 10.1954L11.8242 8.83605L11.332 8.5548C10.3945 8.01573 9.52734 8.15636 8.88281 9.00011C8.08594 10.0196 7.44141 10.3712 6.75 10.3712C6.14062 10.3712 5.74219 10.2071 5.29688 9.97277C4.3125 9.4337 3.52734 9.93761 3.52734 10.8634L3.53906 13.5587C3.53906 13.5939 3.52734 13.6407 3.52734 13.6642C3.89062 14.0743 4.25391 14.1681 4.94531 14.1681ZM5.70703 15.9259H14.543C16.3125 15.9259 17.332 15.6563 18.7148 14.8829C19.8281 14.2853 20.332 13.5235 20.3203 12.6446C20.332 12.5392 20.3203 12.422 20.3086 12.3399C20.2031 12.7501 19.957 13.0313 19.3359 13.3595L17.707 14.1915C16.793 14.672 16.043 14.8478 14.6133 14.8478H4.95703C4.44141 14.8478 4.05469 14.7774 3.63281 14.4728C3.94922 15.586 4.83984 15.9259 5.70703 15.9259Z" fill="black" fill-opacity="0.85"/>
</svg>
