<svg width="20" height="26" viewBox="0 0 20 26" fill="none" xmlns="http://www.w3.org/2000/svg">
<path d="M3.62109 25.207C4.07812 25.207 4.45312 24.832 4.45312 24.375C4.45312 23.918 4.07812 23.543 3.62109 23.543C3.16406 23.543 2.78906 23.918 2.78906 24.375C2.78906 24.832 3.16406 25.207 3.62109 25.207ZM7.53516 25.207C7.99219 25.207 8.36719 24.832 8.36719 24.375C8.36719 23.918 7.99219 23.543 7.53516 23.543C7.07812 23.543 6.70312 23.918 6.70312 24.375C6.70312 24.832 7.07812 25.207 7.53516 25.207ZM11.4375 25.207C11.8945 25.207 12.2695 24.832 12.2695 24.375C12.2695 23.918 11.8945 23.543 11.4375 23.543C10.9805 23.543 10.6055 23.918 10.6055 24.375C10.6055 24.832 10.9805 25.207 11.4375 25.207Z" fill="#007AFF"/>
<path d="M3.62109 21.7148C4.07812 21.7148 4.45312 21.3398 4.45312 20.8828C4.45312 20.4258 4.07812 20.0508 3.62109 20.0508C3.16406 20.0508 2.78906 20.4258 2.78906 20.8828C2.78906 21.3398 3.16406 21.7148 3.62109 21.7148ZM7.53516 21.7148C7.99219 21.7148 8.36719 21.3398 8.36719 20.8828C8.36719 20.4258 7.99219 20.0508 7.53516 20.0508C7.07812 20.0508 6.70312 20.4258 6.70312 20.8828C6.70312 21.3398 7.07812 21.7148 7.53516 21.7148ZM11.4375 21.7148C11.8945 21.7148 12.2695 21.3398 12.2695 20.8828C12.2695 20.4258 11.8945 20.0508 11.4375 20.0508C10.9805 20.0508 10.6055 20.4258 10.6055 20.8828C10.6055 21.3398 10.9805 21.7148 11.4375 21.7148Z" fill="#007AFF"/>
<path d="M3.62109 18.2109C4.07812 18.2109 4.45312 17.8477 4.45312 17.3789C4.45312 16.9219 4.07812 16.5469 3.62109 16.5469C3.16406 16.5469 2.78906 16.9219 2.78906 17.3789C2.78906 17.8477 3.16406 18.2109 3.62109 18.2109ZM7.53516 18.2109C7.99219 18.2109 8.36719 17.8477 8.36719 17.3789C8.36719 16.9219 7.99219 16.5469 7.53516 16.5469C7.07812 16.5469 6.70312 16.9219 6.70312 17.3789C6.70312 17.8477 7.07812 18.2109 7.53516 18.2109ZM11.4375 18.2109C11.8945 18.2109 12.2695 17.8477 12.2695 17.3789C12.2695 16.9219 11.8945 16.5469 11.4375 16.5469C10.9805 16.5469 10.6055 16.9219 10.6055 17.3789C10.6055 17.8477 10.9805 18.2109 11.4375 18.2109Z" fill="#007AFF"/>
<path d="M13.0781 0H9.90234C7.91016 0 6.66797 1.21875 6.66797 3.16406V5.22656H8.4375V3.16406C8.4375 2.30859 8.98828 1.78125 9.90234 1.78125H13.0781C15.6094 1.78125 17.2383 3.53906 17.2383 6.25781V24.4453C17.2383 24.9727 17.6016 25.3477 18.1172 25.3477C18.6328 25.3477 19.0078 24.9727 19.0078 24.4453V6.25781C19.0078 2.44922 16.6992 0 13.0781 0ZM7.54688 5.63672C8.30859 5.63672 8.83594 6.16406 8.83594 6.91406V8.91797C11.0977 9.50391 12.7266 11.2617 12.7266 13.7578H14.2852C14.2852 11.1445 12.6562 8.87109 10.3711 7.81641V6.91406C10.3711 5.29688 9.19922 4.10156 7.54688 4.10156C5.89453 4.10156 4.72266 5.29688 4.72266 6.91406V7.81641C2.44922 8.87109 0.808594 11.1445 0.808594 13.7578H2.37891C2.37891 11.2617 4.00781 9.50391 6.25781 8.91797V6.91406C6.25781 6.16406 6.78516 5.63672 7.54688 5.63672ZM0.773438 13.5469C0.351562 13.5469 0 13.8984 0 14.3203C0 14.7422 0.351562 15.082 0.773438 15.082H14.332C14.7539 15.082 15.0938 14.7422 15.0938 14.3203C15.0938 13.8984 14.7539 13.5469 14.332 13.5469H0.773438Z" fill="black" fill-opacity="0.85"/>
</svg>
