<svg width="28" height="26" viewBox="0 0 28 26" fill="none" xmlns="http://www.w3.org/2000/svg">
<path d="M26.3086 4.21875C26.7656 4.21875 27.1406 3.84375 27.1406 3.38672C27.1406 2.92969 26.7656 2.55469 26.3086 2.55469C25.8516 2.55469 25.4766 2.92969 25.4766 3.38672C25.4766 3.84375 25.8516 4.21875 26.3086 4.21875ZM25.0781 11.3555C25.5352 11.3555 25.9102 10.9805 25.9102 10.5234C25.9102 10.0664 25.5352 9.69141 25.0781 9.69141C24.6211 9.69141 24.2461 10.0664 24.2461 10.5234C24.2461 10.9805 24.6211 11.3555 25.0781 11.3555ZM21.457 17.625C21.9141 17.625 22.2891 17.25 22.2891 16.793C22.2891 16.3359 21.9141 15.9609 21.457 15.9609C20.9883 15.9609 20.625 16.3359 20.625 16.793C20.625 17.25 20.9883 17.625 21.457 17.625Z" fill="#007AFF"/>
<path d="M23.1445 4.64062C23.6016 4.64062 23.9766 4.26562 23.9766 3.80859C23.9766 3.35156 23.6016 2.97656 23.1445 2.97656C22.6875 2.97656 22.3125 3.35156 22.3125 3.80859C22.3125 4.26562 22.6875 4.64062 23.1445 4.64062ZM21.7969 10.1484C22.2539 10.1484 22.6289 9.77344 22.6289 9.31641C22.6289 8.85938 22.2539 8.48438 21.7969 8.48438C21.3398 8.48438 20.9648 8.85938 20.9648 9.31641C20.9648 9.77344 21.3398 10.1484 21.7969 10.1484ZM19.2891 15.2578C19.7461 15.2578 20.1211 14.8828 20.1211 14.4258C20.1211 13.9688 19.7461 13.5938 19.2891 13.5938C18.832 13.5938 18.457 13.9688 18.457 14.4258C18.457 14.8828 18.832 15.2578 19.2891 15.2578Z" fill="#007AFF"/>
<path d="M19.9453 5.0625C20.4141 5.0625 20.7891 4.6875 20.7891 4.23047C20.7891 3.77344 20.4141 3.39844 19.9453 3.39844C19.4883 3.39844 19.1133 3.77344 19.1133 4.23047C19.1133 4.6875 19.4883 5.0625 19.9453 5.0625ZM18.4922 8.96484C18.9609 8.96484 19.3242 8.58984 19.3242 8.13281C19.3242 7.67578 18.9609 7.30078 18.4922 7.30078C18.0352 7.30078 17.6602 7.67578 17.6602 8.13281C17.6602 8.58984 18.0352 8.96484 18.4922 8.96484ZM17.1328 12.8789C17.5898 12.8789 17.9648 12.5039 17.9648 12.0469C17.9648 11.5898 17.5898 11.2148 17.1328 11.2148C16.6758 11.2148 16.3008 11.5898 16.3008 12.0469C16.3008 12.5039 16.6758 12.8789 17.1328 12.8789Z" fill="#007AFF"/>
<path d="M11.8008 12.5976L16.1484 0.621037C13.8867 0.0468176 11.7305 0.503849 10.1367 1.9101L9.91406 1.82806C8.46094 1.30072 7.10156 2.06244 6.46875 3.7851L1.34766 17.871C0.972656 18.914 1.41797 19.8515 2.44922 20.2499C3.51562 20.6015 4.47656 20.1796 4.83984 19.1601L8.78906 8.2851L8.23828 8.62494C8.75391 10.3124 9.99609 11.7187 11.8008 12.5976ZM3.23438 20.0272L2.01562 19.5819L0 25.1132L1.21875 25.5585L3.23438 20.0272ZM16.9453 0.691349L12.457 13.0546C12.293 13.4882 12.5156 13.9687 12.9609 14.1327C13.3945 14.2968 13.875 14.0624 14.0391 13.6405L18.5391 1.27728C18.6914 0.831974 18.4688 0.351505 18.0352 0.187443C17.5898 0.0233801 17.0977 0.257755 16.9453 0.691349Z" fill="black" fill-opacity="0.85"/>
</svg>
