<svg width="24" height="24" viewBox="0 0 24 24" fill="none" xmlns="http://www.w3.org/2000/svg">
<path d="M11.9531 23.9062C18.4922 23.9062 23.9062 18.4805 23.9062 11.9531C23.9062 5.41406 18.4805 0 11.9414 0C5.41406 0 0 5.41406 0 11.9531C0 18.4805 5.42578 23.9062 11.9531 23.9062Z" fill="#FFCC00"/>
<path d="M4.48828 15.1875C4.48828 14.7891 4.82812 14.4727 5.26172 14.4727H6.71484C7.3125 14.4727 7.6875 14.2852 8.19141 13.6758L9.66797 11.9531L8.19141 10.2305C7.69922 9.63281 7.3125 9.43359 6.71484 9.43359H5.26172C4.82812 9.43359 4.48828 9.11719 4.48828 8.71875C4.48828 8.29688 4.80469 8.00391 5.26172 8.00391H6.69141C7.76953 8.00391 8.44922 8.30859 9.24609 9.23438L10.6172 10.8398L11.9883 9.23438C12.7969 8.30859 13.4648 8.00391 14.5547 8.00391H15.6797V6.66797C15.6797 6.30469 15.9023 6.08203 16.2656 6.08203C16.4297 6.08203 16.5938 6.14062 16.7109 6.23438L19.1133 8.21484C19.3945 8.46094 19.3828 8.88281 19.1016 9.11719L16.7227 11.0625C16.6289 11.1797 16.4414 11.2383 16.2656 11.2383C15.9141 11.2383 15.6797 11.0039 15.6797 10.6406V9.43359H14.6016C13.9336 9.43359 13.5586 9.63281 13.0547 10.2305L11.5781 11.9531L13.0547 13.6758C13.5586 14.2734 13.9336 14.4727 14.6016 14.4727H15.6797V13.3008C15.6797 12.9375 15.9141 12.7031 16.2656 12.7031C16.4414 12.7031 16.6289 12.7617 16.7227 12.8789L19.1133 14.8477C19.3945 15.082 19.3945 15.4922 19.1016 15.7383L16.7109 17.707C16.5938 17.8008 16.4297 17.8594 16.2656 17.8594C15.9023 17.8594 15.6797 17.6367 15.6797 17.2734V15.9023H14.5547C13.4648 15.9023 12.7969 15.5977 11.9883 14.6719L10.6172 13.0664L9.24609 14.6719C8.44922 15.5977 7.76953 15.9023 6.69141 15.9023H5.26172C4.80469 15.9023 4.48828 15.5977 4.48828 15.1875Z" fill="black" fill-opacity="0.85"/>
</svg>
