<svg width="24" height="24" viewBox="0 0 24 24" fill="none" xmlns="http://www.w3.org/2000/svg">
<path d="M11.9531 23.9062C18.4922 23.9062 23.9062 18.4805 23.9062 11.9531C23.9062 5.41406 18.4805 0 11.9414 0C5.41406 0 0 5.41406 0 11.9531C0 18.4805 5.42578 23.9062 11.9531 23.9062ZM11.9531 21.9141C6.42188 21.9141 2.00391 17.4844 2.00391 11.9531C2.00391 6.42188 6.41016 1.99219 11.9414 1.99219C17.4727 1.99219 21.9141 6.42188 21.9141 11.9531C21.9141 17.4844 17.4844 21.9141 11.9531 21.9141Z" fill="#007AFF"/>
<path d="M6.09375 12.0117C6.09375 12.8789 6.57422 13.3594 7.45312 13.3594H11.2969V17.6484H9.43359C9.08203 17.6484 8.77734 17.9531 8.77734 18.3047C8.77734 18.6562 9.08203 18.9492 9.43359 18.9492H14.4492C14.8008 18.9492 15.1055 18.6445 15.1055 18.3047C15.1055 17.9531 14.8008 17.6484 14.4492 17.6484H12.5977V13.3594H16.4297C17.3086 13.3594 17.8008 12.8789 17.8008 12.0117V8.02734C17.8008 7.16016 17.3086 6.67969 16.4297 6.67969H12.5977V5.60156C12.5977 5.25 12.293 4.95703 11.9414 4.95703C11.5898 4.95703 11.2969 5.25 11.2969 5.60156V6.67969H7.45312C6.57422 6.67969 6.09375 7.16016 6.09375 8.02734V12.0117ZM10.0312 10.7812L11.5781 8.57812C11.7773 8.28516 12.1172 8.27344 12.3281 8.57812L13.8633 10.7812C14.1211 11.1562 13.9922 11.4727 13.5352 11.4727H10.3828C9.89062 11.4727 9.77344 11.1562 10.0312 10.7812Z" fill="black" fill-opacity="0.85"/>
</svg>
