<svg width="25" height="25" viewBox="0 0 25 25" fill="none" xmlns="http://www.w3.org/2000/svg">
<path d="M21.523 14.9414C23.1167 14.9414 24.0074 14.0625 24.0074 12.4922V5.96484C24.0074 4.39453 23.1167 3.52734 21.523 3.52734H6.21831C5.17534 3.52734 4.68315 3.84375 4.08549 4.42969L0.968307 7.39453C-0.344193 8.66016 -0.297318 9.84375 0.956588 11.0508L4.08549 14.0391C4.68315 14.6133 5.17534 14.9297 6.23003 14.9297L21.523 14.9414ZM21.4761 13.0547H6.28862C5.83159 13.0547 5.67924 12.9492 5.45659 12.75L2.23393 9.67969C1.91753 9.39844 1.91753 9.04688 2.22221 8.76562L5.44487 5.71875C5.66753 5.51953 5.83159 5.41406 6.2769 5.41406H21.4761C21.8511 5.41406 22.0738 5.64844 22.0738 6.02344V12.4336C22.0738 12.8086 21.8511 13.0547 21.4761 13.0547ZM14.1285 5.00391V0.949219C14.1285 0.433594 13.6949 0 13.1792 0C12.6636 0 12.2417 0.433594 12.2417 0.949219V5.00391H14.1285ZM14.1285 14.2734H12.2417V24.6094H14.1285V14.2734ZM18.6285 23.7305C18.6285 23.2148 18.2066 22.7812 17.691 22.7812H8.65581C8.14018 22.7812 7.71831 23.2148 7.71831 23.7305C7.71831 24.2461 8.14018 24.668 8.65581 24.668H17.691C18.2066 24.668 18.6285 24.2461 18.6285 23.7305Z" fill="black" fill-opacity="0.85"/>
</svg>
