<svg width="24" height="24" viewBox="0 0 24 24" fill="none" xmlns="http://www.w3.org/2000/svg">
<path d="M11.9531 23.9062C18.4922 23.9062 23.9062 18.4805 23.9062 11.9531C23.9062 5.41406 18.4805 0 11.9414 0C5.41406 0 0 5.41406 0 11.9531C0 18.4805 5.42578 23.9062 11.9531 23.9062ZM11.9531 21.9141C6.42188 21.9141 2.00391 17.4844 2.00391 11.9531C2.00391 6.42188 6.41016 1.99219 11.9414 1.99219C17.4727 1.99219 21.9141 6.42188 21.9141 11.9531C21.9141 17.4844 17.4844 21.9141 11.9531 21.9141Z" fill="#007AFF"/>
<path d="M7.74609 13.2188H11.2852V17.0156H9.6797C9.31642 17.0156 9.02345 17.2969 9.02345 17.6602C9.02345 18.0234 9.31642 18.3164 9.6797 18.3164H14.1914C14.5547 18.3164 14.8477 18.0234 14.8477 17.6602C14.8477 17.2969 14.5547 17.0156 14.1914 17.0156H12.5859V13.2188H15.4219C15.9375 13.2188 16.1836 13.0547 16.4766 12.7734L18.0469 11.2852C18.668 10.6875 18.6914 10.0898 18.0352 9.46875L16.4766 7.98047C16.1836 7.69922 15.9375 7.54688 15.4219 7.54688H12.5859V6.23438C12.5859 5.87109 12.293 5.57812 11.9414 5.57812C11.5664 5.57812 11.2852 5.87109 11.2852 6.23438V7.54688H7.74609C6.96094 7.54688 6.51562 7.96876 6.51562 8.7422V12C6.51562 12.7852 6.96094 13.2188 7.74609 13.2188Z" fill="black" fill-opacity="0.85"/>
</svg>
