<svg width="22" height="25" viewBox="0 0 22 25" fill="none" xmlns="http://www.w3.org/2000/svg">
<path d="M9.62109 4.18359H11.5078V0.949219C11.5078 0.433594 11.0859 0 10.5703 0C10.0547 0 9.62109 0.433594 9.62109 0.949219V4.18359ZM0 12.4922C0 14.0625 0.890625 14.9414 2.48438 14.9414H18.6562C20.25 14.9414 21.1406 14.0625 21.1406 12.4922V5.26172C21.1406 3.69141 20.25 2.82422 18.6562 2.82422H2.48438C0.890625 2.82422 0 3.69141 0 5.26172V12.4922ZM2.53125 4.71094H18.6094C18.9727 4.71094 19.207 4.94531 19.207 5.32031V12.4336C19.207 12.8086 18.9727 13.0547 18.6094 13.0547H2.53125C2.16797 13.0547 1.93359 12.8086 1.93359 12.4336V5.32031C1.93359 4.94531 2.16797 4.71094 2.53125 4.71094ZM9.62109 14.2734V24.6094H11.5078V14.2734H9.62109ZM5.10938 23.7305C5.10938 24.2461 5.54297 24.668 6.05859 24.668H15.082C15.6094 24.668 16.0312 24.2461 16.0312 23.7305C16.0312 23.2148 15.6094 22.7812 15.082 22.7812H6.05859C5.54297 22.7812 5.10938 23.2148 5.10938 23.7305Z" fill="#007AFF"/>
<path d="M7.83993 11.4258H13.3243C14.1446 11.4258 14.379 10.8398 13.922 10.1953L11.2501 6.375C10.8634 5.83594 10.2892 5.83594 9.91415 6.375L7.24228 10.1836C6.76181 10.8516 6.98447 11.4258 7.83993 11.4258Z" fill="black" fill-opacity="0.85"/>
</svg>
