<svg width="25" height="25" viewBox="0 0 25 25" fill="none" xmlns="http://www.w3.org/2000/svg">
<path d="M14.1285 5.00391V0.949219C14.1285 0.433594 13.6949 0 13.1792 0C12.6636 0 12.2417 0.433594 12.2417 0.949219V5.00391H14.1285ZM21.523 14.9414C23.1167 14.9414 24.0074 14.0625 24.0074 12.4922V5.96484C24.0074 4.39453 23.1167 3.52734 21.523 3.52734H6.21831C5.17534 3.52734 4.68315 3.84375 4.08549 4.42969L0.968307 7.39453C-0.344193 8.66016 -0.297318 9.84375 0.956588 11.0508L4.08549 14.0391C4.68315 14.6133 5.17534 14.9414 6.23003 14.9414H21.523ZM14.1285 14.2734H12.2417V24.6094H14.1285V14.2734ZM18.6285 23.7305C18.6285 23.2148 18.2066 22.7812 17.691 22.7812H8.65581C8.14018 22.7812 7.71831 23.2148 7.71831 23.7305C7.71831 24.2461 8.14018 24.668 8.65581 24.668H17.691C18.2066 24.668 18.6285 24.2461 18.6285 23.7305Z" fill="black" fill-opacity="0.85"/>
</svg>
