<svg width="24" height="24" viewBox="0 0 24 24" fill="none" xmlns="http://www.w3.org/2000/svg">
<path d="M11.9531 23.918C18.4922 23.918 23.9062 18.5039 23.9062 11.9648C23.9062 5.4375 18.4805 0.0117188 11.9414 0.0117188C5.41406 0.0117188 0 5.4375 0 11.9648C0 18.5039 5.42578 23.918 11.9531 23.918Z" fill="#FFCC00"/>
<path d="M5.90625 12.0469V7.92188C5.90625 7.01953 6.41016 6.52734 7.3125 6.52734H11.2734V5.42578C11.2734 5.0625 11.5781 4.75781 11.9414 4.75781C12.3047 4.75781 12.6211 5.0625 12.6211 5.42578V6.52734H16.5703C17.4727 6.52734 17.9883 7.01953 17.9883 7.92188V12.0469C17.9883 12.9258 17.4727 13.4297 16.5703 13.4297H12.6211V17.8242H14.5312C14.8945 17.8242 15.2109 18.1406 15.2109 18.5039C15.2109 18.8672 14.8945 19.1719 14.5312 19.1719H9.35156C8.98828 19.1719 8.67188 18.8672 8.67188 18.5039C8.67188 18.1406 8.98828 17.8242 9.35156 17.8242H11.2734V13.4297H7.3125C6.41016 13.4297 5.90625 12.9258 5.90625 12.0469ZM9.97266 10.7578C9.70312 11.1445 9.83203 11.4727 10.3359 11.4727H13.582C14.0508 11.4727 14.1914 11.1445 13.9219 10.7578L12.3398 8.49609C12.1289 8.19141 11.7773 8.19141 11.5664 8.49609L9.97266 10.7578Z" fill="black" fill-opacity="0.85"/>
</svg>
