<svg width="23" height="27" viewBox="0 0 23 27" fill="none" xmlns="http://www.w3.org/2000/svg">
<path d="M10.5103 3.73828H12.397V0.949219C12.397 0.433594 11.9634 0 11.4478 0C10.9322 0 10.5103 0.433594 10.5103 0.949219V3.73828ZM7.53376 10.7461H18.4322C19.1002 10.7461 19.5689 10.5586 20.0025 10.1367L22.2525 7.99219C23.108 7.17188 23.108 6.39844 22.2291 5.53125L20.0025 3.375C19.5806 2.96484 19.1119 2.78906 18.4439 2.78906H7.53376C6.49079 2.78906 5.8697 3.36328 5.8697 4.44141V9.09375C5.8697 10.1602 6.49079 10.7461 7.53376 10.7461ZM4.45173 20.5547H15.3502C16.4049 20.5547 17.0142 19.9688 17.0142 18.9023V14.2383C17.0142 13.1719 16.4049 12.5859 15.3502 12.5859H4.44001C3.78376 12.5859 3.31501 12.7734 2.88141 13.1836L0.66657 15.3398C-0.212336 16.1953 -0.224055 16.9805 0.643133 17.8125L2.88141 19.9453C3.32673 20.3672 3.79548 20.5547 4.45173 20.5547ZM10.5103 13.3359H12.397V9.92578H10.5103V13.3359ZM10.5103 25.5234H12.397V19.2305H10.5103V25.5234ZM7.39313 26.4023H15.4908C16.0064 26.4023 16.4283 25.9805 16.4283 25.4648C16.4283 24.9492 16.0064 24.5156 15.4908 24.5156H7.39313C6.87751 24.5156 6.45563 24.9492 6.45563 25.4648C6.45563 25.9805 6.87751 26.4023 7.39313 26.4023Z" fill="black" fill-opacity="0.85"/>
</svg>
