<svg width="24" height="26" viewBox="0 0 24 26" fill="none" xmlns="http://www.w3.org/2000/svg">
<path d="M3.28125 22.1133H14.1094C16.2773 22.1133 17.3906 20.9766 17.3906 18.7852V7.35938C17.3906 6.32812 17.2031 5.78906 16.5938 5.19141L12.2695 0.855469C11.6602 0.246094 11.0508 0 10.0898 0H3.28125C1.11328 0 0 1.13672 0 3.33984V18.7852C0 20.9766 1.11328 22.1133 3.28125 22.1133ZM3.35156 20.2266C2.37891 20.2266 1.88672 19.7344 1.88672 18.7617V3.33984C1.88672 2.39062 2.37891 1.88672 3.36328 1.88672H10.0312C10.5586 1.88672 10.9102 2.02734 11.2734 2.39062L15.082 6.22266C15.4102 6.55078 15.5039 6.85547 15.5039 7.48828V18.7617C15.5039 19.7344 15.0117 20.2266 14.0391 20.2266H3.35156ZM3.76172 17.2031C3.76172 18.1055 4.33594 18.6797 5.22656 18.6797H6.64453V13.6875C6.64453 13.5938 6.57422 13.5234 6.45703 13.5234H3.76172V17.2031ZM3.76172 12.3398H7.16016C7.59375 12.3398 7.82812 12.5859 7.82812 12.9844V18.6797H9.79688V9.51562H5.22656C4.33594 9.51562 3.76172 10.0781 3.76172 10.9922V12.3398ZM10.9805 18.6797H12.1289C13.0312 18.6797 13.6055 18.1055 13.6055 17.2031V10.9922C13.6055 10.0781 13.0312 9.51562 12.1289 9.51562H10.9805V18.6797Z" fill="#007AFF"/>
<path d="M9.72656 25.2656H20.5547C22.7227 25.2656 23.8359 24.1289 23.8359 21.9375V10.5117C23.8359 9.46875 23.6367 8.94141 23.0391 8.34375L18.7031 4.00781C18.0938 3.39844 17.4844 3.15234 16.5352 3.15234H9.72656C7.55859 3.15234 6.43359 4.28906 6.43359 6.49219V21.9375C6.43359 24.1289 7.55859 25.2656 9.72656 25.2656Z" fill="white"/>
<path d="M9.72656 25.2656H20.5547C22.7227 25.2656 23.8359 24.1289 23.8359 21.9375V10.5117C23.8359 9.46875 23.6367 8.94141 23.0391 8.34375L18.7031 4.00781C18.0938 3.39844 17.4844 3.15234 16.5352 3.15234H9.72656C7.55859 3.15234 6.43359 4.28906 6.43359 6.49219V21.9375C6.43359 24.1289 7.55859 25.2656 9.72656 25.2656ZM9.78516 23.3789C8.8125 23.3789 8.32031 22.8867 8.32031 21.9141V6.49219C8.32031 5.54297 8.82422 5.03906 9.79688 5.03906H16.4766C17.0039 5.03906 17.3555 5.17969 17.7188 5.54297L21.5273 9.375C21.8438 9.70312 21.9492 9.99609 21.9492 10.6406V21.9141C21.9492 22.8867 21.4453 23.3789 20.4727 23.3789H9.78516ZM10.1953 20.3555C10.1953 21.2578 10.7812 21.832 11.6719 21.832H13.0781V16.8398C13.0781 16.7344 13.0195 16.6758 12.9023 16.6758H10.1953V20.3555ZM10.1953 15.4922H13.6055C14.0273 15.4922 14.2617 15.7383 14.2617 16.1367V21.832H16.2422V12.668H11.6719C10.7812 12.668 10.1953 13.2305 10.1953 14.1445V15.4922ZM17.4258 21.832H18.5742C19.4766 21.832 20.0391 21.2578 20.0391 20.3555V14.1445C20.0391 13.2305 19.4766 12.668 18.5742 12.668H17.4258V21.832Z" fill="black" fill-opacity="0.85"/>
</svg>
