<svg width="26" height="29" viewBox="0 0 26 29" fill="none" xmlns="http://www.w3.org/2000/svg">
<path d="M0 20.25C0 22.4414 1.11328 23.5781 3.28125 23.5781H14.1094C16.2773 23.5781 17.4023 22.4414 17.4023 20.25V8.82422C17.4023 7.79297 17.2031 7.25391 16.6055 6.65625L12.2695 2.32031C11.6602 1.71094 11.0508 1.46484 10.0898 1.46484H3.28125C1.11328 1.46484 0 2.60156 0 4.80469V20.25ZM2.54297 18.668V15.1289H6.46875C6.58594 15.1289 6.64453 15.1875 6.64453 15.293V20.1445H4.01953C3.12891 20.1445 2.54297 19.5703 2.54297 18.668ZM2.54297 13.9453V12.5977C2.54297 11.6719 3.12891 11.1094 4.01953 11.1094H9.80859V20.1445H7.82812V14.5898C7.82812 14.1914 7.59375 13.9453 7.16016 13.9453H2.54297ZM10.9922 20.1445V11.1094H12.1406C13.043 11.1094 13.6055 11.6719 13.6055 12.5977V18.668C13.6055 19.5703 13.043 20.1445 12.1406 20.1445H10.9922Z" fill="#007AFF"/>
<path d="M4.83984 23.4023C4.83984 26.4727 6.66797 28.3242 9.72656 28.3242H20.5547C23.6133 28.3242 25.4414 26.4727 25.4414 23.4023V11.9766C25.4414 10.3945 24.9844 9.49219 24.1758 8.67188L19.8398 4.33594C18.9258 3.43359 17.8945 3.02344 16.5352 3.02344H9.72656C6.66797 3.02344 4.83984 4.875 4.83984 7.95703V23.4023Z" fill="white"/>
<path d="M6.44531 23.4023C6.44531 25.5938 7.55859 26.7305 9.72656 26.7305H20.5547C22.7227 26.7305 23.8359 25.5938 23.8359 23.4023V11.9766C23.8359 10.9336 23.6367 10.4062 23.0391 9.80859L18.7031 5.47266C18.0938 4.86328 17.4961 4.61719 16.5352 4.61719H9.72656C7.55859 4.61719 6.44531 5.75391 6.44531 7.95703V23.4023ZM10.207 21.8203V18.2812H12.9023C13.0195 18.2812 13.0781 18.3398 13.0781 18.4453V23.2969H11.6719C10.7812 23.2969 10.207 22.7227 10.207 21.8203ZM10.207 17.0977V15.75C10.207 14.8242 10.7812 14.2617 11.6719 14.2617H16.2422V23.2969H14.2617V17.7422C14.2617 17.3438 14.0273 17.0977 13.6055 17.0977H10.207ZM17.4258 23.2969V14.2617H18.5742C19.4766 14.2617 20.0391 14.8242 20.0391 15.75V21.8203C20.0391 22.7227 19.4766 23.2969 18.5742 23.2969H17.4258Z" fill="black" fill-opacity="0.85"/>
</svg>
