<svg width="25" height="24" viewBox="0 0 25 24" fill="none" xmlns="http://www.w3.org/2000/svg">
<path d="M11.1445 12.8086H13.0312V3.23438C13.0312 2.41406 13.5586 1.88672 14.3789 1.88672C15.1992 1.88672 15.7266 2.41406 15.7266 3.23438V5.20312C15.7266 5.71875 16.1602 6.15234 16.6758 6.15234C17.1914 6.15234 17.6133 5.71875 17.6133 5.20312V3.23438C17.6133 1.28906 16.3242 0 14.3789 0C12.4336 0 11.1445 1.28906 11.1445 3.23438V12.8086ZM7.80469 12.8086H9.33984V9.73828C9.33984 9.16406 8.96484 8.80078 8.40234 8.80078H4.92188C4.5 8.80078 4.14844 9.15234 4.14844 9.57422C4.14844 9.99609 4.5 10.3359 4.92188 10.3359H7.58203C7.72266 10.3359 7.80469 10.4297 7.80469 10.5586V12.8086ZM14.8359 12.8086H16.3711V10.5586C16.3711 10.4297 16.4531 10.3359 16.5938 10.3359H19.2539C19.6758 10.3359 20.0156 9.99609 20.0156 9.57422C20.0156 9.15234 19.6758 8.80078 19.2539 8.80078H15.7734C15.1992 8.80078 14.8359 9.16406 14.8359 9.73828V12.8086ZM0.9375 13.9688H1.24219V17.8477C1.24219 21.1172 3.24609 22.9922 6.75 22.9922H17.543C21.0469 22.9922 23.0625 21.1172 23.0625 17.8477V13.9688H23.3555C23.8711 13.9688 24.293 13.5352 24.293 13.0195C24.293 12.5039 23.8711 12.082 23.3555 12.082H0.9375C0.421875 12.082 0 12.5039 0 13.0195C0 13.5352 0.421875 13.9688 0.9375 13.9688Z" fill="black" fill-opacity="0.85"/>
</svg>
