<svg width="26" height="26" viewBox="0 0 26 26" fill="none" xmlns="http://www.w3.org/2000/svg">
<path d="M1.75781 24.0864C4.08984 26.4185 7.67578 26.4419 9.99609 24.1333L24.0938 10.0356C26.4375 7.6919 26.4375 4.08252 24.0938 1.75049C21.7617 -0.58154 18.1523 -0.58154 15.8203 1.73877L1.75781 15.813C-0.585937 18.145 -0.585937 21.7544 1.75781 24.0864ZM3.09375 22.7505C1.52344 21.1802 1.52344 18.7192 3.09375 17.1372L17.1562 3.07471C18.7266 1.5044 21.1992 1.51612 22.7578 3.08643C24.3281 4.65674 24.3281 7.11768 22.7578 8.69971L8.66016 22.7856C7.11328 24.3442 4.65234 24.3208 3.09375 22.7505ZM11.8477 3.87158L12.1875 4.19971C12.6094 4.6333 13.2539 4.6333 13.6875 4.19971L15.6328 2.26612C16.0781 1.83252 16.0781 1.18799 15.6328 0.754397L15.293 0.414554C14.8711 -0.00732109 14.2266 -0.00732109 13.793 0.426272L11.8477 2.35987C11.4141 2.79346 11.4141 3.43799 11.8477 3.87158ZM21.6328 13.6567L21.9609 13.9849C22.4062 14.4067 23.0391 14.4067 23.4727 13.9849L25.418 12.0396C25.8516 11.6177 25.8516 10.9731 25.418 10.5396L25.0898 10.1997C24.6562 9.77783 24.0117 9.77783 23.5898 10.1997L21.6328 12.145C21.1992 12.5786 21.1992 13.2231 21.6328 13.6567ZM0.539063 15.1802L0.878907 15.52C1.3125 15.9419 1.94531 15.9419 2.37891 15.52L4.32422 13.5747C4.74609 13.1411 4.74609 12.5083 4.32422 12.063L3.98438 11.7466C3.55078 11.3013 2.90625 11.3013 2.48438 11.7466L0.539063 13.6685C0.10547 14.1021 0.10547 14.7583 0.539063 15.1802ZM10.3125 24.9771L10.6523 25.3052C11.0859 25.7388 11.7305 25.7388 12.1523 25.3169L14.0977 23.3716C14.5312 22.9263 14.5312 22.2935 14.0977 21.8599L13.7695 21.52C13.3359 21.0864 12.6914 21.0864 12.2578 21.52L10.3125 23.4653C9.89062 23.8989 9.89062 24.5552 10.3125 24.9771ZM18.0234 5.77002C18.3516 6.10987 18.9023 6.10987 19.2305 5.77002C19.5703 5.4419 19.5703 4.90283 19.2305 4.57471C18.9023 4.23487 18.3516 4.23487 18.0234 4.57471C17.6953 4.90283 17.6953 5.4419 18.0234 5.77002ZM20.0625 7.80908C20.3906 8.14893 20.9297 8.14893 21.2695 7.80908C21.5977 7.48096 21.5977 6.93018 21.2695 6.60205C20.9297 6.27393 20.3906 6.27393 20.0625 6.60205C19.7344 6.93018 19.7344 7.48096 20.0625 7.80908ZM15.9961 7.80908C16.3359 8.13721 16.875 8.13721 17.2031 7.80908C17.5312 7.48096 17.5312 6.93018 17.2031 6.59033C16.875 6.26221 16.3359 6.26221 16.0078 6.59033C15.668 6.93018 15.668 7.48096 15.9961 7.80908ZM18.0234 9.83643C18.3633 10.1646 18.9141 10.1646 19.2422 9.83643C19.5703 9.5083 19.5703 8.95752 19.2422 8.6294C18.9141 8.28955 18.3633 8.28955 18.0234 8.6294C17.6953 8.95752 17.6953 9.5083 18.0234 9.83643ZM6.71484 17.0903C7.04297 17.4302 7.58203 17.4302 7.91016 17.0903C8.25 16.7622 8.25 16.2114 7.91016 15.8833C7.58203 15.5552 7.04297 15.5552 6.71484 15.8833C6.38672 16.2114 6.38672 16.7622 6.71484 17.0903ZM8.74219 19.1294C9.07031 19.4575 9.62109 19.4575 9.94922 19.1294C10.2891 18.7896 10.2891 18.2505 9.94922 17.9106C9.62109 17.5825 9.07031 17.5825 8.74219 17.9106C8.41406 18.2505 8.41406 18.7896 8.74219 19.1294ZM4.67578 19.1177C5.00391 19.4458 5.55469 19.4458 5.89453 19.1177C6.22266 18.7896 6.22266 18.2505 5.89453 17.9106C5.55469 17.5708 5.01562 17.5708 4.67578 17.9106C4.34766 18.2505 4.34766 18.7896 4.67578 19.1177ZM6.71484 21.1567C7.04297 21.4849 7.59375 21.4849 7.92188 21.1567C8.25 20.8286 8.25 20.2778 7.92188 19.9497C7.59375 19.6099 7.04297 19.6099 6.71484 19.9497C6.38672 20.2778 6.38672 20.8286 6.71484 21.1567Z" fill="black" fill-opacity="0.85"/>
</svg>
