<svg width="33" height="33" viewBox="0 0 33 33" fill="none" xmlns="http://www.w3.org/2000/svg">
<path d="M0.985883 24.9741C2.3101 26.2983 4.39604 26.2866 5.70854 24.9741L24.9507 5.7085C26.2867 4.38428 26.2867 2.32178 24.9624 1.00928C23.6617 -0.314936 21.5992 -0.314936 20.2632 1.021L1.00932 20.2866C-0.326617 21.6343 -0.338335 23.6499 0.985883 24.9741ZM12.2945 12.0132C11.9312 11.6265 11.9195 11.0523 12.2945 10.689C12.646 10.314 13.2437 10.3257 13.607 10.689L15.2945 12.3648C15.6695 12.7515 15.6695 13.3257 15.2945 13.689C14.9312 14.0523 14.3335 14.0523 13.9703 13.689L12.2945 12.0132ZM8.34526 15.9507C7.98198 15.5874 7.97026 15.0132 8.34526 14.6265C8.69682 14.2632 9.29448 14.2632 9.65776 14.6265L11.3453 16.314C11.7203 16.689 11.7085 17.2749 11.3453 17.6499C10.982 18.0015 10.3843 18.0132 10.021 17.6499L8.34526 15.9507ZM7.11479 31.103C8.43901 32.439 10.5249 32.4273 11.8374 31.103L31.0914 11.8374C32.4156 10.5132 32.4273 8.45069 31.0914 7.12647C29.7906 5.82569 27.7281 5.81397 26.3921 7.14991L7.14995 26.4038C5.80229 27.7515 5.80229 29.7905 7.11479 31.103ZM18.4351 18.1421C18.0484 17.7671 18.0484 17.1694 18.4351 16.8179C18.7867 16.4546 19.3726 16.4429 19.7593 16.8179L21.4351 18.5054C21.7984 18.8687 21.7984 19.4546 21.4351 19.8179C21.0718 20.1929 20.4859 20.1929 20.1109 19.8179L18.4351 18.1421ZM14.4624 22.0913C14.1109 21.728 14.1109 21.1421 14.4624 20.7788C14.8374 20.3921 15.4234 20.4038 15.7984 20.7788L17.4742 22.4429C17.8609 22.8296 17.8609 23.4155 17.4742 23.7788C17.1109 24.1421 16.5249 24.1421 16.1617 23.7788L14.4624 22.0913Z" fill="black" fill-opacity="0.85"/>
</svg>
