<svg width="33" height="33" viewBox="0 0 33 33" fill="none" xmlns="http://www.w3.org/2000/svg">
<path d="M1.1748 18.8701C-0.395508 20.4404 -0.383789 22.9014 1.16309 24.4834C2.7334 26.0186 5.20605 26.0303 6.77637 24.46L24.4717 6.77637C26.042 5.19434 26.0186 2.7334 24.4834 1.16309C22.9131 -0.383789 20.4404 -0.395508 18.8701 1.1748L1.1748 18.8701ZM2.44043 20.1357L20.1357 2.44043C21.0146 1.56152 22.374 1.56152 23.2178 2.42871C24.085 3.27246 24.0732 4.63184 23.2061 5.51074L5.51074 23.1943C4.63184 24.0732 3.27246 24.0732 2.42871 23.2178C1.56152 22.3623 1.56152 21.0146 2.44043 20.1357ZM12.4365 12.167L13.4912 13.1982C13.8428 13.5381 14.3701 13.5498 14.71 13.1982C15.0498 12.8818 15.0498 12.3545 14.71 12.0029L13.6436 10.9482C13.3154 10.6201 12.7764 10.6084 12.4365 10.9482C12.0967 11.2646 12.085 11.8154 12.4365 12.167ZM8.79199 15.7881L9.84668 16.8662C10.1748 17.2061 10.7256 17.1826 11.0654 16.8662C11.3936 16.5264 11.4053 15.9873 11.0654 15.6475L10.0107 14.5811C9.6709 14.2529 9.12012 14.2529 8.79199 14.5811C8.45215 14.9326 8.46387 15.46 8.79199 15.7881ZM7.93652 25.6201C6.36621 27.1904 6.37793 29.6631 7.91309 31.2334C9.49512 32.7803 11.9561 32.792 13.5264 31.2217L31.2217 13.5264C32.792 11.9561 32.7803 9.4834 31.2334 7.91309C29.6631 6.37793 27.2021 6.35449 25.6201 7.9248L7.93652 25.6201ZM9.20215 26.8857L26.8857 9.19043C27.7646 8.32324 29.124 8.31152 29.9678 9.17871C30.835 10.0225 30.835 11.3818 29.9561 12.2607L12.2607 29.9561C11.3818 30.835 10.0342 30.835 9.17871 29.9678C8.32324 29.124 8.32324 27.7646 9.20215 26.8857ZM19.1982 18.917L20.2412 19.9482C20.5928 20.2998 21.1318 20.2998 21.46 19.9482C21.8115 19.6318 21.7998 19.0928 21.46 18.7646L20.4053 17.6982C20.0654 17.3701 19.5264 17.3467 19.1982 17.6982C18.8584 18.0146 18.8467 18.5771 19.1982 18.917ZM15.542 22.5498L16.6084 23.6162C16.9365 23.9561 17.4756 23.9326 17.8271 23.6162C18.1553 23.2881 18.167 22.749 17.8271 22.3975L16.7607 21.3428C16.4326 21.0029 15.8818 21.0029 15.542 21.3428C15.2139 21.6826 15.2256 22.21 15.542 22.5498Z" fill="black" fill-opacity="0.85"/>
</svg>
