<svg width="25" height="25" viewBox="0 0 25 25" fill="none" xmlns="http://www.w3.org/2000/svg">
<path d="M3.67969 19.1484H15.4453C17.8828 19.1484 19.1133 17.9297 19.1133 15.5156V3.65625C19.1133 1.24219 17.8828 0.0234375 15.4453 0.0234375H3.67969C1.21875 0.0234375 0 1.24219 0 3.65625V15.5156C0 17.9297 1.21875 19.1484 3.67969 19.1484ZM3.70312 17.2617C2.53125 17.2617 1.88672 16.6289 1.88672 15.4102V3.76172C1.88672 2.54297 2.53125 1.91016 3.70312 1.91016H15.4102C16.5703 1.91016 17.2266 2.54297 17.2266 3.76172V15.4102C17.2266 16.6289 16.5703 17.2617 15.4102 17.2617H3.70312Z" fill="#007AFF"/>
<path d="M9.36328 24.5742H21.1289C23.5664 24.5742 24.7969 23.3555 24.7969 20.9414V9.08203C24.7969 6.66797 23.5664 5.44922 21.1289 5.44922H9.36328C6.90234 5.44922 5.68359 6.65625 5.68359 9.08203V20.9414C5.68359 23.3555 6.90234 24.5742 9.36328 24.5742Z" fill="white"/>
<path d="M9.36328 24.5742H21.1289C23.5664 24.5742 24.7969 23.3555 24.7969 20.9414V9.08203C24.7969 6.66797 23.5664 5.44922 21.1289 5.44922H9.36328C6.90234 5.44922 5.68359 6.65625 5.68359 9.08203V20.9414C5.68359 23.3555 6.90234 24.5742 9.36328 24.5742ZM9.38672 22.6875C8.22656 22.6875 7.57031 22.0547 7.57031 20.8359V9.1875C7.57031 7.96875 8.22656 7.33594 9.38672 7.33594H21.0938C22.2539 7.33594 22.9102 7.96875 22.9102 9.1875V20.8359C22.9102 22.0547 22.2539 22.6875 21.0938 22.6875H9.38672Z" fill="black" fill-opacity="0.85"/>
<path d="M10.0781 18.9609H11.8711V17.4141H10.0781C9.67969 17.4141 9.33984 17.7539 9.33984 18.1758C9.33984 18.6211 9.67969 18.9609 10.0781 18.9609ZM13.4062 20.5547C14.7305 20.5547 15.7969 19.4883 15.7969 18.1758C15.7969 16.875 14.7305 15.8086 13.4062 15.8086C12.1055 15.8086 11.0391 16.875 11.0391 18.1758C11.0391 19.4883 12.1055 20.5547 13.4062 20.5547ZM13.4062 19.3477C12.7617 19.3477 12.2461 18.832 12.2461 18.1758C12.2461 17.5078 12.7617 17.0156 13.4062 17.0156C14.0742 17.0156 14.5781 17.5078 14.5781 18.1758C14.5781 18.832 14.0742 19.3477 13.4062 19.3477ZM15.0469 18.9609H20.3672C20.8125 18.9609 21.1523 18.6211 21.1523 18.1758C21.1523 17.7539 20.8125 17.4141 20.3672 17.4141H15.0469V18.9609Z" fill="black" fill-opacity="0.85"/>
<path d="M10.125 12.6914H15.4453V11.1445H10.125C9.67969 11.1445 9.33984 11.4844 9.33984 11.9062C9.33984 12.3398 9.67969 12.6914 10.125 12.6914ZM17.0859 14.2852C18.3867 14.2852 19.4531 13.2188 19.4531 11.9062C19.4531 10.6055 18.3867 9.53906 17.0859 9.53906C15.7734 9.53906 14.707 10.6055 14.707 11.9062C14.707 13.2188 15.7734 14.2852 17.0859 14.2852ZM17.0859 13.0781C16.418 13.0781 15.9258 12.5625 15.9258 11.9062C15.9258 11.2383 16.418 10.7461 17.0859 10.7461C17.7305 10.7461 18.2461 11.2383 18.2461 11.9062C18.2461 12.5625 17.7305 13.0781 17.0859 13.0781ZM18.6211 12.6914H20.4141C20.8125 12.6914 21.1523 12.3398 21.1523 11.9062C21.1523 11.4844 20.8125 11.1445 20.4141 11.1445H18.6211V12.6914Z" fill="black" fill-opacity="0.85"/>
</svg>
