<svg width="29" height="22" viewBox="0 0 29 22" fill="none" xmlns="http://www.w3.org/2000/svg">
<path d="M18.0117 13.8164H25.7227C27.5508 13.8164 28.5938 12.7852 28.5938 11.0039V3.26953C28.5938 1.47656 27.5508 0.445312 25.7227 0.445312H18.0117C16.1953 0.445312 15.1523 1.47656 15.1523 3.26953V11.0039C15.1523 12.7852 16.1953 13.8164 18.0117 13.8164ZM18.0352 11.9648C17.3438 11.9648 17.0039 11.625 17.0039 10.9219V3.33984C17.0039 2.63672 17.3438 2.29688 18.0352 2.29688H25.6992C26.4141 2.29688 26.7422 2.63672 26.7422 3.33984V10.9219C26.7422 11.625 26.4141 11.9648 25.6992 11.9648H18.0352Z" fill="#007AFF"/>
<path d="M2.77734 13.6641H10.3359C12.1055 13.6641 13.1367 12.6562 13.1367 10.9102V3.35156C13.1367 1.60547 12.1055 0.597656 10.3359 0.597656H2.77734C1.01953 0.597656 0 1.59375 0 3.35156V10.9102C0 12.668 1.01953 13.6641 2.77734 13.6641ZM0.890625 18.0469C0.410156 18.0469 0 18.4688 0 18.9961C0 19.5234 0.410156 19.9336 0.890625 19.9336H4.67578V18.0469H0.890625ZM6.71484 21.8086C8.26172 21.8086 9.52734 20.543 9.52734 18.9961C9.52734 17.4375 8.26172 16.1719 6.71484 16.1719C5.16797 16.1719 3.90234 17.4375 3.90234 18.9961C3.90234 20.543 5.16797 21.8086 6.71484 21.8086ZM6.71484 20.3672C5.94141 20.3672 5.34375 19.7578 5.34375 18.9844C5.34375 18.2109 5.94141 17.6133 6.71484 17.6133C7.47656 17.6133 8.08594 18.2109 8.08594 18.9844C8.08594 19.7578 7.47656 20.3672 6.71484 20.3672ZM8.57812 18.0469V19.9336H27.6445C28.1719 19.9336 28.5938 19.5234 28.5938 18.9961C28.5938 18.4688 28.1719 18.0469 27.6445 18.0469H8.57812Z" fill="black" fill-opacity="0.85"/>
</svg>
