<svg width="16" height="25" viewBox="0 0 16 25" fill="none" xmlns="http://www.w3.org/2000/svg">
<path d="M2.33203 21.4336C2.07422 21.4336 1.88672 21.2461 1.88672 20.9883V2.33203C1.88672 2.0625 2.0625 1.88672 2.33203 1.88672H12.7266C12.9961 1.88672 13.1719 2.0625 13.1719 2.33203V20.9883C13.1719 21.2461 12.9961 21.4336 12.7266 21.4336H2.33203Z" fill="#FFCC00"/>
<path d="M1.45312 24.8086H13.6055C14.4609 24.8086 15.0586 24.2109 15.0586 23.3555V1.45312C15.0586 0.597656 14.4609 0 13.6055 0H1.45312C0.597656 0 0 0.597656 0 1.45312V23.3555C0 24.2109 0.609375 24.8086 1.45312 24.8086ZM2.33203 21.4336C2.07422 21.4336 1.88672 21.2461 1.88672 20.9883V2.33203C1.88672 2.0625 2.0625 1.88672 2.33203 1.88672H12.7266C12.9961 1.88672 13.1719 2.0625 13.1719 2.33203V20.9883C13.1719 21.2461 12.9961 21.4336 12.7266 21.4336H2.33203Z" fill="black" fill-opacity="0.85"/>
</svg>
