<svg width="24" height="24" viewBox="0 0 24 24" fill="none" xmlns="http://www.w3.org/2000/svg">
<path d="M11.9531 23.918C18.4922 23.918 23.9062 18.5039 23.9062 11.9648C23.9062 5.4375 18.4805 0.0117188 11.9414 0.0117188C5.41406 0.0117188 0 5.4375 0 11.9648C0 18.5039 5.42578 23.918 11.9531 23.918Z" fill="#FFCC00"/>
<path d="M8.77734 17.2148C7.30078 17.2148 6.30469 16.1602 6.30469 14.8008C6.30469 13.5234 7.33594 12.457 8.63672 12.4219C8.83594 11.1914 9.86719 10.2773 11.1328 10.2773C11.4258 10.2773 11.6719 10.3125 11.9648 10.4062C12.5156 9.57422 13.4531 9.04688 14.5195 9.04688C16.1602 9.04688 17.4727 10.3594 17.5664 11.9531C18.7969 12.1992 19.7227 13.2773 19.7227 14.5664C19.7227 16.0547 18.5977 17.2148 16.9453 17.2148H8.77734ZM3.72656 11.2734C3.72656 9.98438 4.64062 8.90625 5.89453 8.66016C5.97656 7.05469 7.32422 5.75391 8.95312 5.75391C9.99609 5.75391 10.9219 6.28125 11.4844 7.13672C11.7656 7.04297 12.0234 6.97266 12.3281 6.97266C13.4414 6.97266 14.1328 7.57031 14.3086 8.20312C13.2539 8.25 12.3047 8.69531 11.6367 9.44531C11.4727 9.42188 11.2969 9.41016 11.1328 9.41016C9.65625 9.41016 8.42578 10.3359 7.94531 11.6602C6.85547 11.918 5.96484 12.7266 5.61328 13.7812C4.42969 13.3945 3.72656 12.4219 3.72656 11.2734Z" fill="black" fill-opacity="0.85"/>
</svg>
