<svg width="34" height="18" viewBox="0 0 34 18" fill="none" xmlns="http://www.w3.org/2000/svg">
<path d="M0.961085 17.5664H2.48452C3.18765 17.5664 3.53921 17.2266 3.73843 16.7227L10.2072 0.75C10.3712 0.363281 10.1837 0.0234375 9.77358 0.0234375H9.01187C8.60171 0.0234375 8.3439 0.222656 8.16812 0.574219L0.140772 16.2656C-0.187353 16.8633 0.047022 17.5664 0.961085 17.5664ZM31.2892 17.5664H32.8244C33.7267 17.5664 33.9611 16.8633 33.633 16.2656L25.6173 0.574219C25.4298 0.222656 25.172 0.0234375 24.7619 0.0234375H24.0001C23.59 0.0234375 23.4142 0.363281 23.5666 0.75L30.0353 16.7227C30.2345 17.2266 30.5861 17.5664 31.2892 17.5664Z" fill="#007AFF"/>
<path d="M16.8752 16.6992C17.2502 16.6992 17.5198 16.4297 17.5198 16.0312V14.7422L18.5276 15.3164C18.8792 15.5156 19.219 15.4336 19.4065 15.1172C19.5706 14.8242 19.4651 14.4609 19.137 14.2617L17.5198 13.3594V12.5391L17.3909 10.2773L19.3127 11.5078L20.0042 11.918L19.9924 13.7812C19.9924 14.1562 20.2385 14.4375 20.5784 14.4375C20.9534 14.4375 21.1877 14.1797 21.1877 13.7812L21.1995 12.5977L22.3245 13.2539C22.6526 13.4531 23.0042 13.3711 23.2151 13.043C23.4026 12.7031 23.2971 12.3398 22.9573 12.1406L21.8323 11.4961L22.8401 10.9102C23.1799 10.6992 23.2971 10.3711 23.1213 10.0664C22.9338 9.76172 22.5588 9.67969 22.2307 9.86719L20.637 10.8047L19.9338 10.3945L17.8948 9.375L19.9338 8.35547L20.637 7.93359L22.2307 8.88281C22.5588 9.05859 22.9456 8.98828 23.1213 8.69531C23.2971 8.36719 23.1799 8.05078 22.8401 7.82812L21.8323 7.24219L22.9573 6.60938C23.2971 6.41016 23.4026 6.05859 23.2151 5.70703C23.0276 5.37891 22.6526 5.29688 22.3245 5.48438L21.1995 6.14062L21.1877 4.96875C21.1877 4.58203 20.9534 4.30078 20.5901 4.30078C20.2385 4.30078 19.9924 4.59375 19.9924 4.96875L20.0042 6.82031L19.3127 7.23047L17.3909 8.47266L17.5198 6.21094V5.39062L19.137 4.48828C19.4651 4.28906 19.5706 3.92578 19.4065 3.63281C19.219 3.31641 18.8792 3.23438 18.5276 3.43359L17.5198 4.00781V2.71875C17.5198 2.30859 17.2502 2.05078 16.8752 2.05078C16.512 2.05078 16.2424 2.32031 16.2424 2.71875V4.01953L15.2229 3.43359C14.8596 3.24609 14.5315 3.31641 14.344 3.63281C14.1799 3.92578 14.2971 4.28906 14.6135 4.47656L16.2424 5.39062V6.21094L16.3713 8.47266L14.4612 7.24219L13.7463 6.82031L13.7581 4.96875C13.7581 4.59375 13.512 4.30078 13.1721 4.30078C12.7971 4.30078 12.5745 4.57031 12.5745 4.96875L12.5627 6.14062L11.4377 5.48438C11.0979 5.28516 10.7229 5.39062 10.5354 5.70703C10.3479 6.04688 10.4534 6.41016 10.7932 6.60938L11.9182 7.24219L10.9104 7.82812C10.5706 8.03906 10.4534 8.35547 10.6292 8.69531C10.8049 8.98828 11.1917 9.07031 11.5198 8.88281L13.1135 7.94531L13.8167 8.35547L15.8557 9.375L13.8167 10.3945L13.1135 10.8047L11.5198 9.86719C11.1917 9.67969 10.8049 9.75 10.6409 10.043C10.4651 10.3711 10.5588 10.7109 10.9104 10.9102L11.9182 11.4961L10.7932 12.1406C10.4534 12.3398 10.3596 12.7031 10.5354 13.043C10.7346 13.3711 11.0979 13.4531 11.4377 13.2539L12.5627 12.6094L12.5745 13.7812C12.5745 14.1797 12.7971 14.4375 13.1721 14.4375C13.512 14.4375 13.7581 14.1562 13.7581 13.7812L13.7463 11.918L14.4612 11.5078L16.3713 10.2773L16.2424 12.5391V13.3594L14.6135 14.2734C14.2971 14.4609 14.1799 14.8242 14.344 15.1172C14.5315 15.4336 14.8596 15.5039 15.2229 15.3164L16.2424 14.7305V16.0312C16.2424 16.418 16.512 16.6992 16.8752 16.6992Z" fill="black" fill-opacity="0.85"/>
</svg>
