<svg width="29" height="29" viewBox="0 0 29 29" fill="none" xmlns="http://www.w3.org/2000/svg">
<path d="M1.84018 26.6371C4.38315 29.1683 7.55893 29.0746 10.2425 26.4027C11.4496 25.1956 13.8519 21.6683 17.766 17.766C21.6683 13.8519 25.1956 11.4496 26.4027 10.2425C29.0746 7.55893 29.1683 4.38315 26.6371 1.84018C24.0941 -0.691071 20.9183 -0.60904 18.223 2.07455C17.0277 3.28158 14.6253 6.79721 10.7113 10.7113C6.79721 14.6253 3.28158 17.0277 2.07455 18.223C-0.60904 20.9183 -0.691071 24.0941 1.84018 26.6371ZM14.5902 12.305C14.0511 11.7894 14.0394 10.9574 14.5667 10.4417C15.0824 9.92612 15.9027 9.92612 16.4417 10.4417L18.0238 12.0355C18.5511 12.5628 18.5511 13.3831 18.0355 13.8871C17.4964 14.4261 16.6878 14.4261 16.1722 13.8871L14.5902 12.305ZM10.4183 16.4652C9.90268 15.9378 9.89096 15.1175 10.4183 14.5902C10.9339 14.0746 11.7542 14.0746 12.2699 14.6136L13.8636 16.2074C14.391 16.723 14.4027 17.5199 13.8636 18.0589C13.3597 18.5746 12.5277 18.5863 12.0121 18.0472L10.4183 16.4652Z" fill="black" fill-opacity="0.85"/>
</svg>
