<svg width="24" height="24" viewBox="0 0 24 24" fill="none" xmlns="http://www.w3.org/2000/svg">
<path d="M11.9531 23.918C18.4922 23.918 23.9062 18.5039 23.9062 11.9648C23.9062 5.4375 18.4805 0.0117188 11.9414 0.0117188C5.41406 0.0117188 0 5.4375 0 11.9648C0 18.5039 5.42578 23.918 11.9531 23.918Z" fill="#FFCC00"/>
<path d="M11.9419 19.5234C11.5669 19.5234 11.2857 19.2422 11.2857 18.832V17.4961L10.2427 18.0938C9.86764 18.293 9.52779 18.2109 9.32857 17.8828C9.15279 17.5898 9.2817 17.2031 9.60983 17.0156L11.2857 16.0781V15.2344L11.4028 12.9141L9.44576 14.168L8.7192 14.6016L8.73092 16.5117C8.73092 16.8984 8.47311 17.2031 8.12154 17.2031C7.73483 17.2031 7.48873 16.9219 7.48873 16.5117L7.47701 15.3047L6.32857 15.9844C5.98873 16.1836 5.61373 16.0898 5.40279 15.75C5.20357 15.3984 5.32076 15.0234 5.67233 14.8125L6.82076 14.168L5.78951 13.5586C5.42623 13.3477 5.33248 13.0078 5.50826 12.668C5.68404 12.3633 6.08248 12.2812 6.42233 12.4688L8.06295 13.4531L8.77779 13.0195L10.8872 11.9648L8.77779 10.9219L8.06295 10.5L6.42233 11.4609C6.08248 11.6484 5.68404 11.5781 5.49654 11.2734C5.32076 10.9219 5.43795 10.5938 5.78951 10.3828L6.82076 9.77344L5.67233 9.11719C5.32076 8.90625 5.19186 8.53125 5.40279 8.17969C5.60201 7.85156 5.98873 7.75781 6.32857 7.95703L7.47701 8.625L7.48873 7.41797C7.48873 7.00781 7.73483 6.73828 8.12154 6.73828C8.47311 6.73828 8.73092 7.03125 8.73092 7.41797L8.7192 9.33984L9.44576 9.76172L11.4028 11.0273L11.2857 8.69531V7.85156L9.60983 6.92578C9.2817 6.72656 9.15279 6.33984 9.32857 6.04688C9.52779 5.71875 9.86764 5.64844 10.2427 5.83594L11.2857 6.43359V5.09766C11.2857 4.69922 11.5669 4.40625 11.9419 4.40625C12.3286 4.40625 12.6099 4.6875 12.6099 5.09766V6.42188L13.6294 5.83594C14.0044 5.63672 14.356 5.71875 14.5552 6.04688C14.7193 6.33984 14.6021 6.72656 14.2622 6.92578L12.5982 7.85156V8.69531L12.481 11.0273L14.4614 9.75L15.1646 9.33984L15.1528 7.41797C15.1528 7.03125 15.4107 6.73828 15.7739 6.73828C16.1372 6.73828 16.395 7.01953 16.395 7.41797L16.4067 8.63672L17.5552 7.95703C17.895 7.75781 18.2817 7.83984 18.481 8.17969C18.6685 8.54297 18.563 8.90625 18.2114 9.11719L17.063 9.77344L18.0825 10.3828C18.4341 10.5938 18.563 10.9336 18.3872 11.2617C18.1997 11.5664 17.8013 11.6484 17.4614 11.4609L15.8208 10.4883L15.106 10.9219L12.9966 11.9648L15.106 13.0195L15.8208 13.4531L17.4614 12.4688C17.8013 12.293 18.188 12.3633 18.3872 12.6797C18.563 13.0078 18.4341 13.3359 18.0825 13.5586L17.063 14.168L18.2114 14.8125C18.563 15.0234 18.6685 15.3984 18.481 15.75C18.2583 16.0898 17.895 16.1719 17.5552 15.9844L16.4067 15.293L16.395 16.5117C16.395 16.9219 16.1372 17.2031 15.7622 17.2031C15.4107 17.2031 15.1528 16.8984 15.1528 16.5117L15.1646 14.6016L14.4614 14.168L12.481 12.9141L12.5982 15.2344V16.0781L14.2622 17.0039C14.6021 17.2031 14.7193 17.5898 14.5552 17.8828C14.356 18.2109 14.0044 18.3047 13.6294 18.0938L12.6099 17.5078V18.832C12.6099 19.2539 12.3286 19.5234 11.9419 19.5234Z" fill="black" fill-opacity="0.85"/>
</svg>
