<svg width="34" height="18" viewBox="0 0 34 18" fill="none" xmlns="http://www.w3.org/2000/svg">
<path d="M7.73404 3.14062H8.57779C9.10513 3.14062 9.32779 2.94141 9.50357 2.49609L10.195 0.75C10.359 0.363281 10.1833 0.0234375 9.7731 0.0234375H8.99966C8.60123 0.0234375 8.35513 0.222656 8.16763 0.574219L7.24185 2.35547C7.05435 2.70703 7.24185 3.14062 7.73404 3.14062ZM4.5231 9.65625H5.82388C6.36295 9.65625 6.67935 9.46875 6.87857 8.96484L7.8981 6.45703C8.06216 6.04688 7.80435 5.64844 7.34732 5.64844H6.18716C5.78873 5.64844 5.4606 5.84766 5.2731 6.21094L3.97232 8.74219C3.73795 9.1875 4.0192 9.65625 4.5231 9.65625ZM0.948883 17.5664H2.48404C3.18716 17.5664 3.53873 17.2266 3.72623 16.7227L5.15591 13.2188C5.36685 12.7031 5.03873 12.1992 4.47623 12.1992H3.15201C2.41373 12.1992 2.05045 12.4805 1.79263 12.9727L0.128571 16.2656C-0.176117 16.8633 0.0465394 17.5664 0.948883 17.5664ZM25.1833 3.14062H26.027C26.5192 3.14062 26.7067 2.70703 26.5192 2.35547L25.5934 0.574219C25.4176 0.222656 25.1598 0.0234375 24.7614 0.0234375H23.9879C23.5778 0.0234375 23.402 0.363281 23.5661 0.75L24.2575 2.49609C24.4333 2.94141 24.6559 3.14062 25.1833 3.14062ZM27.9489 9.65625H29.2379C29.7419 9.65625 30.0231 9.1875 29.8004 8.74219L28.4997 6.21094C28.3004 5.84766 27.9723 5.64844 27.5739 5.64844H26.4137C25.9567 5.64844 25.6989 6.04688 25.8629 6.45703L26.8825 8.96484C27.0934 9.46875 27.3981 9.65625 27.9489 9.65625ZM31.277 17.5664H32.8122C33.7262 17.5664 33.9372 16.8633 33.6325 16.2656L31.9684 12.9727C31.7106 12.4805 31.3473 12.1992 30.609 12.1992H29.2965C28.7223 12.1992 28.3942 12.7031 28.6051 13.2188L30.0348 16.7227C30.234 17.2266 30.5739 17.5664 31.277 17.5664Z" fill="#007AFF"/>
<path d="M16.8868 16.6992C17.2618 16.6992 17.5196 16.4297 17.5196 16.0312V14.7422L18.5274 15.3164C18.879 15.5156 19.2305 15.4336 19.4063 15.1172C19.5821 14.8242 19.4649 14.4609 19.1368 14.2617L17.5196 13.3594V12.5391L17.3907 10.2773L19.3243 11.5078L20.004 11.918V13.7812C20.004 14.1562 20.2383 14.4375 20.5899 14.4375C20.9532 14.4375 21.1876 14.1797 21.1876 13.7812L21.1993 12.5977L22.3243 13.2539C22.6524 13.4531 23.0157 13.3711 23.2149 13.043C23.4024 12.7031 23.3087 12.3398 22.9688 12.1406L21.8438 11.4961L22.8399 10.9102C23.1798 10.6992 23.3087 10.3711 23.1329 10.0664C22.9454 9.76172 22.5704 9.67969 22.2423 9.86719L20.6485 10.8047L19.9454 10.3945L17.8946 9.375L19.9454 8.35547L20.6485 7.93359L22.2423 8.88281C22.5704 9.05859 22.9571 8.98828 23.1329 8.69531C23.3087 8.36719 23.1798 8.05078 22.8399 7.82812L21.8438 7.24219L22.9688 6.60938C23.3087 6.41016 23.4024 6.05859 23.2149 5.70703C23.0391 5.37891 22.6524 5.29688 22.3243 5.48438L21.1993 6.14062L21.1876 4.96875C21.1876 4.58203 20.9532 4.30078 20.6016 4.30078C20.2383 4.30078 20.004 4.59375 20.004 4.96875V6.82031L19.3243 7.23047L17.3907 8.47266L17.5196 6.21094V5.39062L19.1368 4.48828C19.4649 4.28906 19.5821 3.92578 19.4063 3.63281C19.2305 3.31641 18.879 3.23438 18.5274 3.43359L17.5196 4.00781V2.71875C17.5196 2.30859 17.2618 2.05078 16.8868 2.05078C16.5118 2.05078 16.2423 2.32031 16.2423 2.71875V4.01953L15.2227 3.43359C14.8712 3.24609 14.5313 3.31641 14.3555 3.63281C14.1798 3.92578 14.2969 4.28906 14.6251 4.47656L16.2423 5.39062V6.21094L16.3712 8.47266L14.461 7.24219L13.7579 6.82031L13.7696 4.96875C13.7696 4.59375 13.5235 4.30078 13.1719 4.30078C12.8087 4.30078 12.5743 4.57031 12.5743 4.96875L12.5626 6.14062L11.4376 5.48438C11.0977 5.28516 10.7227 5.39062 10.5469 5.70703C10.3477 6.04688 10.4649 6.41016 10.793 6.60938L11.918 7.24219L10.9219 7.82812C10.5821 8.03906 10.4649 8.35547 10.629 8.69531C10.8048 8.98828 11.1915 9.07031 11.5313 8.88281L13.1133 7.94531L13.8282 8.35547L15.8673 9.375L13.8282 10.3945L13.1133 10.8047L11.5313 9.86719C11.1915 9.67969 10.8048 9.75 10.6407 10.043C10.4766 10.3711 10.5704 10.7109 10.9219 10.9102L11.918 11.4961L10.793 12.1406C10.4649 12.3398 10.3594 12.7031 10.5469 13.043C10.7344 13.3711 11.0977 13.4531 11.4376 13.2539L12.5626 12.6094L12.5743 13.7812C12.5743 14.1797 12.8087 14.4375 13.1719 14.4375C13.5235 14.4375 13.7696 14.1562 13.7696 13.7812L13.7579 11.918L14.461 11.5078L16.3712 10.2773L16.2423 12.5391V13.3594L14.6251 14.2734C14.2969 14.4609 14.1798 14.8242 14.3555 15.1172C14.5313 15.4336 14.8712 15.5039 15.2227 15.3164L16.2423 14.7305V16.0312C16.2423 16.418 16.5118 16.6992 16.8868 16.6992Z" fill="black" fill-opacity="0.85"/>
</svg>
