<svg width="27" height="27" viewBox="0 0 27 27" fill="none" xmlns="http://www.w3.org/2000/svg">
<path d="M13.0224 24.8657C13.538 24.8657 13.8427 24.5024 13.8427 23.9985V21.4555L15.8583 22.604C16.2919 22.8383 16.7372 22.8032 16.9833 22.3696C17.1942 22.0063 17.0653 21.5493 16.62 21.3032L13.8427 19.7212V18.2329L13.6083 14.0493L17.1356 16.3344L18.4364 17.0727L18.413 20.2719C18.413 20.7758 18.7294 21.1391 19.1395 21.1391C19.6435 21.1391 19.9013 20.7641 19.9013 20.2719L19.913 17.9282L22.1278 19.2172C22.5849 19.4868 23.0185 19.3696 23.2763 18.9477C23.5106 18.5024 23.3817 18.0454 22.9481 17.7993L20.7333 16.5219L22.7489 15.3383C23.1708 15.0805 23.3583 14.6821 23.1122 14.2602C22.8778 13.8852 22.4325 13.7797 21.9989 14.0376L19.245 15.6547L17.956 14.9165L14.1591 13.018L17.956 11.1196L19.2333 10.3696L21.9872 11.9868C22.4208 12.2446 22.9013 12.1391 23.1239 11.7758C23.3583 11.354 23.1708 10.9438 22.7489 10.686L20.7333 9.51416L22.9481 8.23682C23.3935 7.97901 23.5224 7.5337 23.2763 7.08838C23.0302 6.66651 22.5849 6.56104 22.1395 6.81885L19.913 8.08448L19.8895 5.75245C19.8895 5.24854 19.6435 4.89698 19.1513 4.89698C18.7177 4.89698 18.413 5.24854 18.413 5.75245L18.4247 8.93995L17.1356 9.68995L13.6083 11.9868L13.8427 7.79151V6.30323L16.62 4.73291C17.0653 4.4751 17.1942 4.02979 16.9833 3.65479C16.7372 3.23291 16.2919 3.18604 15.8583 3.43213L13.8427 4.58057V2.02588C13.8427 1.52198 13.538 1.17041 13.0224 1.17041C12.5302 1.17041 12.2138 1.52198 12.2138 2.02588V4.58057L10.163 3.43213C9.72939 3.18604 9.30752 3.23291 9.0497 3.65479C8.83877 4.02979 8.97939 4.4751 9.4247 4.7212L12.2138 6.30323V7.79151L12.4364 11.9868L8.90908 9.68995L7.6083 8.93995L7.63174 5.75245C7.63174 5.24854 7.32705 4.89698 6.90517 4.89698C6.40127 4.89698 6.14345 5.26026 6.14345 5.75245L6.13174 8.08448L3.91689 6.81885C3.47158 6.57276 3.00283 6.66651 2.76845 7.08838C2.51064 7.5337 2.66299 7.99073 3.09658 8.23682L5.2997 9.51416L3.2958 10.686C2.87392 10.9438 2.68642 11.3188 2.9208 11.7758C3.13174 12.1508 3.6122 12.2446 4.05752 11.9868L6.7997 10.3813L8.08877 11.1196L11.8739 13.018L8.08877 14.9165L6.7997 15.6665L4.0458 14.0376C3.6122 13.7797 3.14345 13.8852 2.95595 14.2485C2.69814 14.7055 2.87392 15.0805 3.2958 15.3383L5.31142 16.5219L3.09658 17.7993C2.66299 18.0454 2.52236 18.5141 2.76845 18.936C3.02627 19.3813 3.47158 19.4633 3.91689 19.2172L6.13174 17.9516L6.14345 20.2719C6.14345 20.7641 6.40127 21.1391 6.89345 21.1391C7.31533 21.1391 7.63174 20.7758 7.63174 20.2719L7.62002 17.0727L8.90908 16.3462L12.4364 14.0493L12.2138 18.2329V19.7212L9.4247 21.3032C8.97939 21.5493 8.83877 22.0063 9.0497 22.3696C9.30752 22.8032 9.72939 22.8383 10.163 22.604L12.2138 21.4438V23.9985C12.2138 24.5024 12.5302 24.8657 13.0224 24.8657Z" fill="#007AFF"/>
<path d="M22.1631 25.393C23.0654 26.2719 24.5186 26.2719 25.3857 25.3579C26.2646 24.4672 26.2529 23.0493 25.374 22.1704L3.88184 0.666511C3.00293 -0.212396 1.56152 -0.224114 0.65918 0.666511C-0.219727 1.5337 -0.219727 3.01026 0.65918 3.87745L22.1631 25.393Z" fill="white"/>
<path d="M23.1347 24.4205C23.4863 24.772 24.0722 24.7603 24.4121 24.4088C24.7636 24.0572 24.7636 23.483 24.4121 23.1314L2.91993 1.63918C2.56837 1.28762 1.98242 1.2759 1.63087 1.63918C1.27929 1.97903 1.27929 2.56497 1.63087 2.91653L23.1347 24.4205Z" fill="black" fill-opacity="0.85"/>
</svg>
