<svg width="29" height="29" viewBox="0 0 29 29" fill="none" xmlns="http://www.w3.org/2000/svg">
<path d="M1.88728 26.9944C4.48884 29.596 7.86384 29.5022 10.6177 26.7601C11.8131 25.553 14.2271 22.014 18.1177 18.1233C22.0201 14.221 25.5474 11.8186 26.7545 10.6116C29.5084 7.86943 29.5904 4.49443 26.9888 1.89287C24.3873 -0.708698 21.024 -0.626666 18.2701 2.12724C17.0631 3.33427 14.6607 6.86162 10.7584 10.764C6.86774 14.6663 3.32868 17.0686 2.13337 18.264C-0.620538 21.0179 -0.714288 24.3929 1.88728 26.9944ZM3.17634 25.7054C1.34821 23.9007 1.44196 21.5101 3.39899 19.5413C4.53571 18.4046 8.05134 16.014 12.024 12.0179C16.0084 8.05693 18.4107 4.52958 19.5474 3.40458C21.5045 1.43583 23.8951 1.34208 25.7115 3.17021C27.5396 4.98662 27.4459 7.37724 25.4888 9.34599C24.3521 10.4827 20.8365 12.8733 16.8638 16.8694C12.8677 20.8304 10.4771 24.346 9.3404 25.4827C7.37165 27.4515 4.98103 27.5452 3.17634 25.7054ZM10.7584 16.5999L12.2935 18.1233C12.7974 18.639 13.5826 18.6272 14.0865 18.1351C14.5904 17.6194 14.5904 16.8694 14.0865 16.3655L12.5162 14.8069C12.0123 14.2913 11.2506 14.2913 10.7584 14.7835C10.2427 15.2991 10.2545 16.0843 10.7584 16.5999ZM14.7779 12.5686L16.3131 14.1038C16.8404 14.6194 17.6138 14.6194 18.106 14.1038C18.5982 13.6116 18.6099 12.8265 18.106 12.3226L16.5592 10.7757C16.0552 10.2718 15.2584 10.2835 14.7662 10.7757C14.2623 11.2679 14.274 12.0647 14.7779 12.5686Z" fill="black" fill-opacity="0.85"/>
</svg>
