<svg width="24" height="24" viewBox="0 0 24 24" fill="none" xmlns="http://www.w3.org/2000/svg">
<path d="M11.9531 23.9062C18.4922 23.9062 23.9062 18.4805 23.9062 11.9531C23.9062 5.41406 18.4805 0 11.9414 0C5.41406 0 0 5.41406 0 11.9531C0 18.4805 5.42578 23.9062 11.9531 23.9062ZM11.9531 21.9141C6.42188 21.9141 2.00391 17.4844 2.00391 11.9531C2.00391 6.42188 6.41016 1.99219 11.9414 1.99219C17.4727 1.99219 21.9141 6.42188 21.9141 11.9531C21.9141 17.4844 17.4844 21.9141 11.9531 21.9141Z" fill="#007AFF"/>
<path d="M11.9304 19.2773C12.3171 19.2773 12.5749 19.0078 12.5749 18.6094V17.3203L13.5827 17.8945C13.9343 18.082 14.2859 18.0117 14.4616 17.6953C14.6374 17.4023 14.5202 17.0391 14.1921 16.8398L12.5749 15.9375V15.1172L12.446 12.8555L14.3796 14.0859L15.0593 14.4961V16.3594C15.0593 16.7344 15.2937 17.0156 15.6335 17.0156C16.0085 17.0156 16.2429 16.7578 16.2429 16.3594L16.2546 15.1641L17.3796 15.832C17.7077 16.0312 18.071 15.9492 18.2702 15.6211C18.4577 15.2812 18.364 14.918 18.0241 14.7188L16.8991 14.0742L17.8952 13.4883C18.2351 13.2773 18.3523 12.9492 18.1882 12.6445C18.0007 12.3398 17.6257 12.2578 17.2976 12.4453L15.7038 13.3828L15.0007 12.9609L12.9499 11.9531L15.0007 10.9336L15.7038 10.5117L17.2976 11.4609C17.6257 11.6367 18.0124 11.5664 18.1882 11.2734C18.3523 10.9453 18.2351 10.6289 17.8952 10.4062L16.8991 9.82031L18.0241 9.1875C18.364 8.98828 18.4577 8.63672 18.2702 8.28516C18.0945 7.95703 17.7077 7.875 17.3796 8.0625L16.2546 8.71875L16.2429 7.54688C16.2429 7.16016 16.0085 6.87891 15.6452 6.87891C15.2937 6.87891 15.0593 7.17188 15.0593 7.54688V9.39844L14.3679 9.80859L12.446 11.0391L12.5749 8.78906V7.96875L14.1921 7.06641C14.5202 6.86719 14.6374 6.50391 14.4616 6.21094C14.2859 5.89453 13.9343 5.8125 13.5827 6.01172L12.5749 6.58594V5.29688C12.5749 4.88672 12.3171 4.62891 11.9304 4.62891C11.5671 4.62891 11.2976 4.89844 11.2976 5.29688V6.59766L10.278 6.01172C9.91475 5.82422 9.58663 5.89453 9.39913 6.21094C9.23507 6.50391 9.35225 6.86719 9.68038 7.05469L11.2976 7.96875V8.78906L11.4265 11.0391L9.51631 9.82031L8.81319 9.39844L8.82491 7.54688C8.82491 7.17188 8.57881 6.87891 8.22725 6.87891C7.86397 6.87891 7.6296 7.14844 7.6296 7.54688L7.61788 8.71875L6.49288 8.0625C6.15303 7.86328 5.77803 7.96875 5.60225 8.28516C5.40303 8.625 5.5085 8.98828 5.84835 9.1875L6.97335 9.82031L5.97725 10.4062C5.63741 10.6172 5.52022 10.9336 5.68428 11.2734C5.86007 11.5664 6.24678 11.6484 6.58663 11.4609L8.16866 10.5234L8.87178 10.9336L10.9226 11.9531L8.87178 12.9609L8.16866 13.3828L6.58663 12.4453C6.24678 12.2578 5.86007 12.3281 5.696 12.6211C5.53194 12.9492 5.62569 13.2773 5.97725 13.4883L6.97335 14.0742L5.84835 14.7188C5.5085 14.918 5.41475 15.2812 5.60225 15.6211C5.78975 15.9492 6.15303 16.0312 6.49288 15.832L7.61788 15.1875L7.6296 16.3594C7.6296 16.7578 7.86397 17.0156 8.22725 17.0156C8.57881 17.0156 8.82491 16.7344 8.82491 16.3594L8.81319 14.4961L9.51631 14.0859L11.4265 12.8555L11.2976 15.1172V15.9375L9.68038 16.8398C9.35225 17.0391 9.23507 17.4023 9.39913 17.6953C9.58663 18.0117 9.91475 18.0703 10.278 17.8945L11.2976 17.3086V18.6094C11.2976 18.9961 11.5671 19.2773 11.9304 19.2773Z" fill="black" fill-opacity="0.85"/>
</svg>
