<svg width="24" height="24" viewBox="0 0 24 24" fill="none" xmlns="http://www.w3.org/2000/svg">
<path d="M11.9531 23.9062C18.4922 23.9062 23.9062 18.4805 23.9062 11.9531C23.9062 5.41406 18.4805 0 11.9414 0C5.41406 0 0 5.41406 0 11.9531C0 18.4805 5.42578 23.9062 11.9531 23.9062Z" fill="#FFCC00"/>
<path d="M11.9648 18.2227C8.55469 18.2227 5.70703 15.3633 5.70703 11.9531C5.70703 8.54297 8.54297 5.68359 11.9531 5.68359C15.375 5.68359 18.2344 8.54297 18.2344 11.9531C18.2344 15.3633 15.375 18.2227 11.9648 18.2227ZM11.9648 6.63281C11.3203 6.63281 10.6641 6.75 10.0781 6.98438L11.6016 8.17969V9.82031L9.94922 11.0742L8.40234 10.4531L7.83984 8.60156C7.08984 9.51562 6.62109 10.6758 6.62109 11.9648L8.12109 11.1328L9.75 11.7891L10.3711 13.6992L9.49219 14.8008L7.48828 14.8242C8.17969 15.9023 9.23438 16.6992 10.4766 17.0625L10.0547 15.2695L10.8633 14.2383H13.0547L13.8633 15.2695L13.4531 17.0625C14.6836 16.6992 15.7383 15.9023 16.4297 14.8242L14.4375 14.8008L13.5469 13.6875L14.168 11.7891L15.7969 11.1328L17.2969 11.9648C17.2969 10.6758 16.8281 9.51562 16.0898 8.60156L15.5156 10.4531L13.9688 11.0742L12.3281 9.82031V8.17969L13.8398 6.98438C13.2539 6.75 12.6211 6.63281 11.9648 6.63281Z" fill="black" fill-opacity="0.85"/>
</svg>
