<svg width="24" height="24" viewBox="0 0 24 24" fill="none" xmlns="http://www.w3.org/2000/svg">
<path d="M11.9531 23.9062C18.4922 23.9062 23.9062 18.4805 23.9062 11.9531C23.9062 5.41406 18.4805 0 11.9414 0C5.41406 0 0 5.41406 0 11.9531C0 18.4805 5.42578 23.9062 11.9531 23.9062ZM11.9531 21.9141C6.42188 21.9141 2.00391 17.4844 2.00391 11.9531C2.00391 6.42188 6.41016 1.99219 11.9414 1.99219C17.4727 1.99219 21.9141 6.42188 21.9141 11.9531C21.9141 17.4844 17.4844 21.9141 11.9531 21.9141Z" fill="#007AFF"/>
<path d="M11.9531 18.2227C15.3633 18.2227 18.2227 15.3633 18.2227 11.9531C18.2227 8.54297 15.3633 5.68359 11.9414 5.68359C8.53125 5.68359 5.69531 8.54297 5.69531 11.9531C5.69531 15.3633 8.54297 18.2227 11.9531 18.2227ZM11.9531 6.63281C12.6094 6.63281 13.2422 6.75 13.8281 6.98438L12.3164 8.17969V9.82031L13.957 11.0742L15.5039 10.4531L16.0781 8.60156C16.8164 9.51562 17.2852 10.6758 17.2852 11.9648L15.7852 11.1328L14.1562 11.7891L13.5352 13.6875L14.4258 14.8008L16.418 14.8242C15.7266 15.9023 14.6719 16.6992 13.4414 17.0625L13.8516 15.2695L13.043 14.2383H10.8516L10.043 15.2695L10.4648 17.0625C9.22266 16.6992 8.16797 15.9023 7.47656 14.8242L9.48047 14.8008L10.3594 13.6992L9.73828 11.7891L8.10938 11.1328L6.60938 11.9648C6.60938 10.6758 7.07812 9.51562 7.82812 8.60156L8.39062 10.4531L9.9375 11.0742L11.5898 9.82031V8.17969L10.0664 6.98438C10.6523 6.75 11.3086 6.63281 11.9531 6.63281Z" fill="black" fill-opacity="0.85"/>
</svg>
