<svg width="24" height="24" viewBox="0 0 24 24" fill="none" xmlns="http://www.w3.org/2000/svg">
<path d="M11.9531 23.9062C18.4922 23.9062 23.9062 18.4805 23.9062 11.9531C23.9062 5.41406 18.4805 0 11.9414 0C5.41406 0 0 5.41406 0 11.9531C0 18.4805 5.40234 23.9062 11.9531 23.9062ZM9.05859 21.8906C6.65625 21.1875 4.59375 19.6172 3.25781 17.5547L7.21875 17.4961L8.85938 15.3984L7.60547 11.5312L4.55859 10.3008L1.57031 11.9883C1.58203 9.46875 2.46094 7.20703 3.92578 5.42578L5.03906 9.09375L7.99219 10.2891L11.2852 7.75781V4.67578L8.30859 2.26172C9.44531 1.82812 10.6758 1.59375 11.9414 1.59375C13.207 1.59375 14.4375 1.82812 15.5742 2.26172L12.6094 4.67578V7.75781L15.9023 10.2891L18.8438 9.09375L19.957 5.42578C21.4219 7.20703 22.3008 9.46875 22.3125 11.9883L19.3242 10.3008L16.2773 11.5312L15.0234 15.3984L16.6641 17.4961L20.625 17.5547C19.2891 19.6172 17.2266 21.1875 14.8242 21.8906L15.6562 18.3047L14.1562 16.3945H9.72656L8.23828 18.3047L9.05859 21.8906Z" fill="black" fill-opacity="0.85"/>
</svg>
