<svg width="24" height="24" viewBox="0 0 24 24" fill="none" xmlns="http://www.w3.org/2000/svg">
<path d="M11.9531 23.9062C18.4922 23.9062 23.9062 18.4805 23.9062 11.9531C23.9062 5.41406 18.4805 0 11.9414 0C5.41406 0 0 5.41406 0 11.9531C0 18.4805 5.42578 23.9062 11.9531 23.9062ZM11.9531 21.9141C6.42188 21.9141 2.00391 17.4844 2.00391 11.9531C2.00391 6.42188 6.41016 1.99219 11.9414 1.99219C17.4727 1.99219 21.9141 6.42188 21.9141 11.9531C21.9141 17.4844 17.4844 21.9141 11.9531 21.9141Z" fill="#007AFF"/>
<path d="M11.9414 18.2461C15.3633 18.2461 18.2227 15.3867 18.2227 11.9648C18.2227 8.55469 15.3516 5.68359 11.9414 5.68359C8.51952 5.68359 5.67188 8.54297 5.67188 11.9648C5.67188 15.375 8.53124 18.2461 11.9414 18.2461ZM7.47656 14.8594C6.9375 14.0273 6.63281 13.0547 6.62109 12L7.96875 11.2266L9.65625 11.918L10.207 13.6289L9.28125 14.8242L7.47656 14.8594ZM7.74609 8.64844C8.36719 7.88672 9.17578 7.26562 10.125 6.9375L11.4492 7.99219V9.78516L9.9375 10.9336L8.23828 10.2422L7.74609 8.64844ZM16.1484 8.64844L15.668 10.2422L13.9688 10.9336L12.4688 9.78516V7.96875L13.7695 6.9375C14.7188 7.26562 15.5391 7.88672 16.1484 8.64844ZM16.418 14.8828L14.625 14.8477L13.6992 13.6406L14.25 11.918L15.9375 11.2266L17.2852 12C17.2734 13.0547 16.957 14.0508 16.418 14.8828ZM11.9531 17.2852C11.4375 17.2852 10.9453 17.2031 10.4766 17.0742L10.0898 15.4336L10.9102 14.3789H12.9727L13.8164 15.4688L13.4297 17.0742C12.9609 17.2148 12.4688 17.2852 11.9531 17.2852Z" fill="black" fill-opacity="0.85"/>
</svg>
