<svg width="37" height="21" viewBox="0 0 37 21" fill="none" xmlns="http://www.w3.org/2000/svg">
<path d="M3.57422 6.89062H5.55469V2.92969C5.55469 2.34375 5.94141 1.96875 6.49219 1.96875H16.1953C16.7578 1.96875 17.1328 2.34375 17.1328 2.92969V12.2344H19.1133V2.91797C19.1133 1.16016 17.9766 0 16.2891 0H6.41016C4.71094 0 3.57422 1.16016 3.57422 2.91797V6.89062ZM32.9297 6.89062V2.91797C32.9297 1.16016 31.793 0 30.0938 0H19.957C18.2695 0 17.1328 1.16016 17.1328 2.91797V12.2344H19.1133V2.92969C19.1133 2.34375 19.4883 1.96875 20.0508 1.96875H30.0117C30.5625 1.96875 30.9492 2.34375 30.9492 2.92969V6.89062H32.9297ZM0 15.375C0 17.0625 1.11328 18.1758 2.77734 18.1758H33.4688C35.1328 18.1758 36.2461 17.0625 36.2461 15.375V8.25C36.2461 6.57422 35.1328 5.44922 33.4688 5.44922H31.8516C30.1992 5.44922 29.0859 6.57422 29.0859 8.25V11.0625H7.17188V8.25C7.17188 6.57422 6.04688 5.44922 4.39453 5.44922H2.77734C1.11328 5.44922 0 6.57422 0 8.25V15.375ZM1.99219 15.3516V8.27344C1.99219 7.75781 2.34375 7.41797 2.87109 7.41797H4.28906C4.82812 7.41797 5.17969 7.75781 5.17969 8.27344V13.0312H31.0664V8.27344C31.0664 7.75781 31.4297 7.41797 31.957 7.41797H33.375C33.9023 7.41797 34.2656 7.75781 34.2656 8.27344V15.3516C34.2656 15.8672 33.9023 16.207 33.375 16.207H2.87109C2.34375 16.207 1.99219 15.8672 1.99219 15.3516ZM4.26562 20.5664H4.99219C5.625 20.5664 6.03516 20.168 6.03516 19.5352V17.0508H3.22266V19.5352C3.22266 20.168 3.63281 20.5664 4.26562 20.5664ZM31.2539 20.5664H31.9805C32.6133 20.5664 33.0234 20.168 33.0234 19.5352V17.0508H30.2109V19.5352C30.2109 20.168 30.6328 20.5664 31.2539 20.5664Z" fill="black" fill-opacity="0.85"/>
</svg>
