<svg width="23" height="24" viewBox="0 0 23 24" fill="none" xmlns="http://www.w3.org/2000/svg">
<path d="M0 9.35156C0 14.5078 4.19531 18.7031 9.35156 18.7031C11.3906 18.7031 13.2539 18.0469 14.7891 16.9453L20.5547 22.7227C20.8242 22.9922 21.1758 23.1211 21.5508 23.1211C22.3477 23.1211 22.8984 22.5234 22.8984 21.7383C22.8984 21.3633 22.7578 21.0234 22.5117 20.7773L16.7812 15.0117C17.9883 13.4414 18.7031 11.4844 18.7031 9.35156C18.7031 4.19531 14.5078 0 9.35156 0C4.19531 0 0 4.19531 0 9.35156ZM2.00391 9.35156C2.00391 5.29688 5.29688 2.00391 9.35156 2.00391C13.4062 2.00391 16.6992 5.29688 16.6992 9.35156C16.6992 13.4062 13.4062 16.6992 9.35156 16.6992C5.29688 16.6992 2.00391 13.4062 2.00391 9.35156ZM9.36328 14.2734C9.55078 14.2734 9.70312 14.1211 9.75 13.9336C10.3359 10.7578 10.6289 10.1719 13.9219 9.72656C14.1328 9.70312 14.2734 9.55078 14.2734 9.35156C14.2734 9.15234 14.1328 9 13.9219 8.95312C10.6406 8.50781 10.2188 7.89844 9.75 4.78125C9.71484 4.57031 9.55078 4.42969 9.36328 4.42969C9.16406 4.42969 9.01172 4.55859 8.96484 4.76953C8.36719 7.95703 8.08594 8.50781 4.79297 8.95312C4.58203 9 4.44141 9.15234 4.44141 9.35156C4.44141 9.55078 4.58203 9.69141 4.79297 9.72656C8.08594 10.0547 8.50781 10.7578 8.96484 13.9219C9 14.1211 9.15234 14.2734 9.36328 14.2734Z" fill="black" fill-opacity="0.85"/>
</svg>
