<svg width="30" height="25" viewBox="0 0 30 25" fill="none" xmlns="http://www.w3.org/2000/svg">
<path d="M3.01172 20.1328H26.2852C28.2891 20.1328 29.2969 19.1602 29.2969 17.1211V3.69141C29.2969 1.65234 28.2891 0.679688 26.2852 0.679688H3.01172C1.01953 0.679688 0 1.65234 0 3.69141V17.1211C0 19.1602 1.01953 20.1328 3.01172 20.1328ZM8.75391 24.1055H20.543C21.0586 24.1055 21.4922 23.6836 21.4922 23.1562C21.4922 22.6289 21.0586 22.207 20.543 22.207H8.75391C8.23828 22.207 7.80469 22.6289 7.80469 23.1562C7.80469 23.6836 8.23828 24.1055 8.75391 24.1055Z" fill="#FFCC00"/>
<path d="M15.2578 15.2695C15 15.2695 14.8359 15.1055 14.8008 14.8711C14.2852 11.332 13.8281 10.5469 10.125 10.1719C9.87891 10.1367 9.72656 9.97266 9.72656 9.72656C9.72656 9.51562 9.87891 9.32812 10.125 9.29297C13.8164 8.78906 14.1328 8.15625 14.8008 4.59375C14.8594 4.35938 15.0234 4.20703 15.2578 4.20703C15.4805 4.20703 15.6562 4.37109 15.6914 4.60547C16.2188 8.08594 16.6992 8.78906 20.3789 9.29297C20.6133 9.32812 20.7773 9.51562 20.7773 9.72656C20.7773 9.97266 20.6133 10.1484 20.3789 10.1719C16.6875 10.6758 16.3594 11.332 15.6914 14.8828C15.6445 15.1055 15.4805 15.2695 15.2578 15.2695ZM10.5 17.25C10.3125 17.25 10.2188 17.1211 10.1602 16.9336C9.80859 15.2109 9.96094 15.1289 8.0625 14.8477C7.86328 14.8125 7.75781 14.6953 7.75781 14.5078C7.75781 14.3438 7.86328 14.2031 8.03906 14.1797C9.96094 13.8633 9.80859 13.7812 10.1602 12.0703C10.2188 11.8711 10.3242 11.7539 10.5 11.7539C10.6758 11.7539 10.793 11.8828 10.8398 12.0703C11.168 13.7812 11.0508 13.8633 12.9727 14.1797C13.1367 14.2031 13.2539 14.3438 13.2539 14.5078C13.2539 14.6719 13.1367 14.8125 12.9727 14.8477C11.0508 15.1289 11.168 15.2109 10.8398 16.9688C10.793 17.1328 10.6641 17.25 10.5 17.25Z" fill="black" fill-opacity="0.85"/>
</svg>
