<svg width="24" height="24" viewBox="0 0 24 24" fill="none" xmlns="http://www.w3.org/2000/svg">
<path d="M11.9531 23.918C18.4922 23.918 23.9062 18.5039 23.9062 11.9648C23.9062 5.4375 18.4805 0.0117188 11.9414 0.0117188C5.41406 0.0117188 0 5.4375 0 11.9648C0 18.5039 5.42578 23.918 11.9531 23.918Z" fill="#FFCC00"/>
<path d="M16.4412 16.2772C16.1248 16.0897 16.0896 15.6913 16.3123 15.3749C16.9686 14.496 17.3318 13.2304 17.3318 11.9647C17.3318 10.664 16.9686 9.44522 16.3123 8.51944C16.1014 8.21475 16.1482 7.83975 16.4412 7.62882C16.7342 7.41788 17.0975 7.48819 17.3084 7.79288C18.1521 8.96475 18.5857 10.4413 18.5857 11.9647C18.5857 13.4999 18.117 14.9765 17.3084 16.1249C17.1092 16.4061 16.7576 16.4765 16.4412 16.2772Z" fill="black" fill-opacity="0.85"/>
<path d="M14.3085 14.6837C13.9921 14.4493 13.9335 14.086 14.1561 13.7579C14.4843 13.3009 14.6835 12.6329 14.6835 11.9649C14.6835 11.2501 14.4843 10.5821 14.1679 10.172C13.9335 9.84383 14.0038 9.46883 14.3085 9.23446C14.5663 9.02352 14.9647 9.11727 15.1757 9.3868C15.6561 10.0548 15.9491 11.004 15.9491 11.9649C15.9491 12.9493 15.6679 13.8868 15.1757 14.5313C14.953 14.8126 14.5663 14.8946 14.3085 14.6837Z" fill="black" fill-opacity="0.85"/>
<path d="M11.5664 17.4141C11.2734 17.4141 11.0273 17.2969 10.7461 17.0273L8.12109 14.5195C8.08594 14.4844 8.01562 14.4727 7.95703 14.4727H6.1875C5.36719 14.4727 4.89844 14.0039 4.89844 13.125V10.8164C4.89844 9.9375 5.36719 9.46875 6.1875 9.46875H7.95703C8.01562 9.46875 8.08594 9.45703 8.12109 9.42188L10.7461 6.9375C11.0625 6.64453 11.2617 6.51562 11.543 6.51562C11.9648 6.51562 12.2578 6.84375 12.2578 7.24219V16.7227C12.2578 17.1094 11.9648 17.4141 11.5664 17.4141Z" fill="black" fill-opacity="0.85"/>
</svg>
