<svg width="27" height="21" viewBox="0 0 27 21" fill="none" xmlns="http://www.w3.org/2000/svg">
<path d="M22.4881 18.3867C22.9217 18.6797 23.4607 18.5742 23.7771 18.1289C25.2771 16.0664 26.156 13.2305 26.156 10.3359C26.156 7.44146 25.2889 4.58208 23.7771 2.54302C23.4607 2.09771 22.9217 1.99224 22.4881 2.28521C22.0545 2.57817 21.9842 3.12896 22.324 3.60943C23.6014 5.41411 24.3396 7.83989 24.3396 10.3359C24.3396 12.832 23.5779 15.2344 22.324 17.0625C21.9959 17.543 22.0545 18.0938 22.4881 18.3867Z" fill="#007AFF"/>
<path d="M18.1519 15.328C18.5387 15.5976 19.0894 15.5155 19.4058 15.0585C20.3082 13.8749 20.8473 12.1288 20.8473 10.3358C20.8473 8.54286 20.3082 6.80848 19.4058 5.61317C19.0894 5.15614 18.5387 5.06239 18.1519 5.34364C17.6715 5.67177 17.6012 6.2577 17.9644 6.73817C18.6441 7.67567 19.0308 8.97645 19.0308 10.3358C19.0308 11.6952 18.6324 12.9843 17.9644 13.9335C17.6129 14.4257 17.6715 14.9882 18.1519 15.328Z" fill="#007AFF"/>
<path d="M12.6328 20.6836C13.4062 20.6836 13.957 20.1328 13.957 19.3711V1.39453C13.957 0.632812 13.4062 0.0117188 12.6094 0.0117188C12.0586 0.0117188 11.6953 0.257812 11.0977 0.820312L6.09375 5.50781C6.02344 5.57812 5.91797 5.61328 5.80078 5.61328H2.44922C0.855469 5.61328 0 6.49219 0 8.17969V12.5391C0 14.2383 0.855469 15.1055 2.44922 15.1055H5.80078C5.91797 15.1055 6.02344 15.1406 6.09375 15.2109L11.0977 19.9453C11.625 20.4609 12.082 20.6836 12.6328 20.6836Z" fill="black" fill-opacity="0.85"/>
</svg>
