<svg width="24" height="24" viewBox="0 0 24 24" fill="none" xmlns="http://www.w3.org/2000/svg">
<path d="M11.9531 23.9062C18.4922 23.9062 23.9062 18.4805 23.9062 11.9531C23.9062 5.41406 18.4805 0 11.9414 0C5.41406 0 0 5.41406 0 11.9531C0 18.4805 5.42578 23.9062 11.9531 23.9062ZM11.9531 21.9141C6.42188 21.9141 2.00391 17.4844 2.00391 11.9531C2.00391 6.42188 6.41016 1.99219 11.9414 1.99219C17.4727 1.99219 21.9141 6.42188 21.9141 11.9531C21.9141 17.4844 17.4844 21.9141 11.9531 21.9141Z" fill="#007AFF"/>
<path d="M16.3005 16.1367C16.6052 16.3242 16.945 16.2656 17.1442 15.9844C17.9294 14.8711 18.3747 13.4414 18.3747 11.9414C18.3747 10.4766 17.9528 9.0469 17.1442 7.91018C16.9333 7.61721 16.5817 7.5469 16.3005 7.7344C16.0192 7.94533 15.9724 8.30861 16.1833 8.6133C16.8161 9.50393 17.1677 10.6875 17.1677 11.9414C17.1677 13.1836 16.8161 14.4141 16.1833 15.2695C15.9606 15.5742 15.9958 15.9492 16.3005 16.1367Z" fill="black" fill-opacity="0.85"/>
<path d="M14.2262 14.5899C14.484 14.7892 14.859 14.7071 15.0699 14.4376C15.5504 13.8165 15.8199 12.8907 15.8199 11.9415C15.8199 11.0157 15.5387 10.0899 15.0699 9.45709C14.8707 9.17584 14.484 9.10553 14.2262 9.30475C13.9332 9.5274 13.8746 9.89068 14.0973 10.1954C14.4019 10.6056 14.6012 11.2618 14.6012 11.9415C14.6012 12.5978 14.4019 13.254 14.0855 13.6993C13.8746 14.0157 13.9215 14.3556 14.2262 14.5899Z" fill="black" fill-opacity="0.85"/>
<path d="M11.5664 17.2266C11.9531 17.2266 12.2344 16.9453 12.2344 16.5586V7.37109C12.2344 6.98438 11.9531 6.66797 11.5547 6.66797C11.2734 6.66797 11.0859 6.79688 10.7812 7.07812L8.22655 9.49219C8.1914 9.52734 8.1328 9.53906 8.07421 9.53906H6.35156C5.55469 9.53906 5.10938 9.98438 5.10938 10.8398V13.0781C5.10938 13.9219 5.55469 14.3672 6.35156 14.3672H8.07421C8.1328 14.3672 8.1914 14.3906 8.22655 14.4258L10.7812 16.8633C11.0508 17.1094 11.2852 17.2266 11.5664 17.2266Z" fill="black" fill-opacity="0.85"/>
</svg>
