<svg width="26" height="26" viewBox="0 0 26 26" fill="none" xmlns="http://www.w3.org/2000/svg">
<path d="M7.20703 25.7461C7.78125 25.7461 8.17969 25.4414 8.89453 24.8086L12.9375 21.2109H20.4609C23.9531 21.2109 25.8281 19.2773 25.8281 15.8438V6.86719C25.8281 3.43359 23.9531 1.5 20.4609 1.5H5.36719C1.875 1.5 0 3.42188 0 6.86719V15.8438C0 19.2891 1.875 21.2109 5.36719 21.2109H5.92969V24.2578C5.92969 25.1602 6.38672 25.7461 7.20703 25.7461ZM7.6875 23.6016V20.2031C7.6875 19.5703 7.44141 19.3242 6.80859 19.3242H5.36719C3 19.3242 1.88672 18.1172 1.88672 15.832V6.86719C1.88672 4.58203 3 3.38672 5.36719 3.38672H20.4609C22.8164 3.38672 23.9414 4.58203 23.9414 6.86719V15.832C23.9414 18.1172 22.8164 19.3242 20.4609 19.3242H12.8672C12.2109 19.3242 11.8828 19.418 11.4375 19.875L7.6875 23.6016Z" fill="#007AFF"/>
<path d="M17.2853 15.5391C17.5782 15.7266 17.9298 15.668 18.1173 15.3867C18.9142 14.2734 19.3595 12.8438 19.3595 11.3438C19.3595 9.87893 18.9259 8.44924 18.129 7.31252C17.9181 7.01955 17.5548 6.94924 17.2853 7.13674C17.004 7.3594 16.9454 7.71097 17.1681 8.01565C17.8009 8.90628 18.1524 10.0898 18.1524 11.3438C18.1524 12.5859 17.8009 13.8164 17.1563 14.6719C16.9337 14.9766 16.9806 15.3516 17.2853 15.5391Z" fill="black" fill-opacity="0.85"/>
<path d="M15.1991 13.9923C15.4687 14.1915 15.8319 14.1095 16.0429 13.8399C16.5233 13.2189 16.7929 12.3048 16.7929 11.3439C16.7929 10.4181 16.5116 9.50397 16.0429 8.85944C15.8437 8.57818 15.4687 8.50788 15.1991 8.7071C14.9061 8.92976 14.8593 9.29304 15.0702 9.59773C15.3866 10.0079 15.5741 10.6642 15.5741 11.3439C15.5741 12.0001 15.3749 12.6563 15.0702 13.1017C14.8593 13.4181 14.9061 13.7696 15.1991 13.9923Z" fill="black" fill-opacity="0.85"/>
<path d="M12.5508 16.6406C12.9258 16.6406 13.2188 16.3477 13.2188 15.9609V6.77344C13.2188 6.38672 12.9258 6.07031 12.5391 6.07031C12.2461 6.07031 12.0703 6.19922 11.7656 6.48047L9.21094 8.89453C9.16406 8.92969 9.11719 8.94141 9.05859 8.94141H7.33594C6.52734 8.94141 6.08203 9.38672 6.08203 10.2422V12.4805C6.08203 13.3359 6.52734 13.7812 7.33594 13.7812H9.05859C9.11719 13.7812 9.16406 13.793 9.21094 13.8281L11.7656 16.2656C12.0352 16.5234 12.2578 16.6406 12.5508 16.6406Z" fill="black" fill-opacity="0.85"/>
</svg>
