<svg width="14" height="21" viewBox="0 0 14 21" fill="none" xmlns="http://www.w3.org/2000/svg">
<path d="M12.6328 20.6836C13.4062 20.6836 13.957 20.1328 13.957 19.3711V1.39453C13.957 0.632812 13.4062 0.0117188 12.6094 0.0117188C12.0703 0.0117188 11.6953 0.246094 11.0977 0.820312L6.10547 5.50781C6.02344 5.57812 5.92969 5.61328 5.8125 5.61328H2.44922C0.867188 5.61328 0 6.49219 0 8.17969V12.5391C0 14.2383 0.867188 15.1055 2.44922 15.1055H5.8125C5.92969 15.1055 6.02344 15.1406 6.10547 15.2109L11.0977 19.9453C11.6367 20.4609 12.0938 20.6836 12.6328 20.6836Z" fill="black" fill-opacity="0.85"/>
</svg>
