<svg width="32" height="23" viewBox="0 0 32 23" fill="none" xmlns="http://www.w3.org/2000/svg">
<path d="M26.8829 22.4752C27.2813 22.7682 27.8556 22.651 28.172 22.1823C30.2228 19.2174 31.4532 15.4557 31.4532 11.319C31.4532 7.17056 30.1876 3.43228 28.172 0.455716C27.8556 -0.0247525 27.2813 -0.130221 26.8829 0.162748C26.4376 0.467435 26.379 1.01822 26.6954 1.49869C28.5118 4.18228 29.6603 7.55728 29.6603 11.319C29.6603 15.069 28.5118 18.4674 26.6954 21.1393C26.379 21.6198 26.4376 22.1706 26.8829 22.4752Z" fill="#007AFF"/>
<path d="M22.4881 19.3697C22.9217 19.6626 23.4607 19.5572 23.7771 19.1119C25.2771 17.0494 26.156 14.2134 26.156 11.3189C26.156 8.42437 25.2889 5.56499 23.7771 3.52593C23.4607 3.08062 22.9217 2.97515 22.4881 3.26812C22.0545 3.56109 21.9842 4.11187 22.324 4.59234C23.6014 6.39702 24.3396 8.8228 24.3396 11.3189C24.3396 13.815 23.5779 16.2173 22.324 18.0455C21.9959 18.5259 22.0545 19.0767 22.4881 19.3697Z" fill="#007AFF"/>
<path d="M18.1402 16.3112C18.5269 16.5807 19.0777 16.4987 19.3941 16.0417C20.2965 14.8581 20.8355 13.112 20.8355 11.319C20.8355 9.52602 20.2965 7.79164 19.3941 6.59633C19.0777 6.1393 18.5269 6.04555 18.1402 6.3268C17.6598 6.65493 17.5894 7.24086 17.9527 7.72133C18.6324 8.65883 19.0191 9.95961 19.0191 11.319C19.0191 12.6784 18.6207 13.9674 17.9527 14.9167C17.6012 15.4088 17.6598 15.9713 18.1402 16.3112Z" fill="#007AFF"/>
<path d="M12.6328 21.6668C13.4062 21.6668 13.957 21.116 13.957 20.3543V2.37768C13.957 1.61596 13.4062 0.994873 12.6094 0.994873C12.0586 0.994873 11.6836 1.22924 11.0977 1.80346L6.09375 6.49096C6.02344 6.56128 5.91797 6.59643 5.80078 6.59643H2.44922C0.855469 6.59643 0 7.47534 0 9.16284V13.5222C0 15.2214 0.855469 16.0886 2.44922 16.0886H5.80078C5.91797 16.0886 6.02344 16.1238 6.09375 16.1941L11.0977 20.9285C11.625 21.4441 12.082 21.6668 12.6328 21.6668Z" fill="black" fill-opacity="0.85"/>
</svg>
