<svg width="26" height="26" viewBox="0 0 26 26" fill="none" xmlns="http://www.w3.org/2000/svg">
<path d="M6.96094 25.8867C7.41797 25.8867 7.75781 25.6523 8.30859 25.1367L12.5391 21.2695H20.4609C23.9531 21.2695 25.8281 19.3477 25.8281 15.9141V6.9375C25.8281 3.50391 23.9531 1.57031 20.4609 1.57031H5.36719C1.875 1.57031 0 3.49219 0 6.9375V15.9141C0 19.3594 1.875 21.2695 5.36719 21.2695H5.91797V24.6797C5.91797 25.4062 6.29297 25.8867 6.96094 25.8867Z" fill="#FFCC00"/>
<path d="M17.4143 15.7266C17.0979 15.5391 17.051 15.1406 17.2736 14.8242C17.9416 13.9453 18.3049 12.6797 18.3049 11.4023C18.3049 10.1133 17.9416 8.8945 17.2854 7.96872C17.0627 7.66403 17.1213 7.28903 17.4143 7.06638C17.6955 6.86716 18.0705 6.93747 18.2814 7.24216C19.1135 8.41403 19.5588 9.89059 19.5588 11.4023C19.5588 12.9492 19.09 14.4258 18.2697 15.5742C18.0822 15.8555 17.719 15.9258 17.4143 15.7266Z" fill="black" fill-opacity="0.85"/>
<path d="M15.2697 14.1329C14.965 13.8985 14.9064 13.5353 15.1291 13.2071C15.4455 12.7501 15.6447 12.0821 15.6447 11.4024C15.6447 10.6993 15.4572 10.0313 15.1291 9.60943C14.9064 9.29302 14.965 8.91802 15.2697 8.68364C15.5393 8.47271 15.926 8.55474 16.1369 8.83599C16.6174 9.50396 16.9104 10.4532 16.9104 11.4024C16.9104 12.3985 16.6291 13.336 16.1369 13.9806C15.9143 14.2501 15.5393 14.3439 15.2697 14.1329Z" fill="black" fill-opacity="0.85"/>
<path d="M12.5391 16.8516C12.2344 16.8516 12 16.7461 11.7188 16.4766L9.09375 13.9688C9.04688 13.9336 8.98828 13.9219 8.92969 13.9219H7.16016C6.32812 13.9219 5.85938 13.4531 5.85938 12.5742V10.2656C5.85938 9.38672 6.32812 8.91797 7.16016 8.91797H8.92969C8.98828 8.91797 9.04688 8.90625 9.09375 8.87109L11.7188 6.38672C12.0352 6.09375 12.2227 5.96484 12.5156 5.96484C12.9258 5.96484 13.2305 6.29297 13.2305 6.69141V16.1602C13.2305 16.5586 12.9258 16.8516 12.5391 16.8516Z" fill="black" fill-opacity="0.85"/>
</svg>
