<svg width="22" height="22" viewBox="0 0 22 22" fill="none" xmlns="http://www.w3.org/2000/svg">
<path d="M3.67969 21.5977H17.8945C20.3555 21.5977 21.5742 20.3789 21.5742 17.9648V3.65625C21.5742 1.24219 20.3555 0.0234375 17.8945 0.0234375H3.67969C1.23047 0.0234375 0 1.23047 0 3.65625V17.9648C0 20.3906 1.23047 21.5977 3.67969 21.5977ZM3.70312 19.7109C2.53125 19.7109 1.88672 19.0898 1.88672 17.8711V3.75C1.88672 2.53125 2.53125 1.91016 3.70312 1.91016H17.8711C19.0312 1.91016 19.6875 2.53125 19.6875 3.75V17.8711C19.6875 19.0898 19.0312 19.7109 17.8711 19.7109H3.70312Z" fill="#007AFF"/>
<path d="M12.9492 16.4062C13.3594 16.4062 13.6523 16.1133 13.6523 15.6914V5.92969C13.6523 5.53125 13.3594 5.19141 12.9375 5.19141C12.6328 5.19141 12.4336 5.32031 12.0938 5.625L9.39844 8.16797C9.36328 8.21484 9.28125 8.22656 9.22266 8.22656H7.40625C6.53906 8.22656 6.07031 8.70703 6.07031 9.62109V11.9883C6.07031 12.9023 6.53906 13.3828 7.40625 13.3828H9.22266C9.28125 13.3828 9.36328 13.4062 9.39844 13.4414L12.0938 16.0078C12.3984 16.2891 12.6445 16.4062 12.9492 16.4062Z" fill="black" fill-opacity="0.85"/>
</svg>
