<svg width="29" height="21" viewBox="0 0 29 21" fill="none" xmlns="http://www.w3.org/2000/svg">
<path d="M17.6953 10.3359C17.6953 10.9102 18.1055 11.2969 18.7031 11.2969H22.1484V14.7539C22.1484 15.3398 22.5469 15.75 23.1211 15.75C23.707 15.75 24.1172 15.3516 24.1172 14.7539V11.2969H27.5742C28.1602 11.2969 28.5586 10.9102 28.5586 10.3359C28.5586 9.75 28.1602 9.33984 27.5742 9.33984H24.1172V5.89453C24.1172 5.29688 23.707 4.88672 23.1211 4.88672C22.5469 4.88672 22.1484 5.29688 22.1484 5.89453V9.33984H18.7031C18.1055 9.33984 17.6953 9.75 17.6953 10.3359Z" fill="#007AFF"/>
<path d="M2.37891 15.1055H5.74219C5.84766 15.1055 5.94141 15.1406 6.02344 15.2109L11.3086 19.9453C11.8711 20.4492 12.3047 20.6836 12.8672 20.6836C13.6172 20.6836 14.1914 20.1328 14.1914 19.3711V1.39453C14.1914 0.632812 13.6172 0.0117188 12.8438 0.0117188C12.2812 0.0117188 11.918 0.269531 11.3086 0.820312L6.02344 5.50781C5.94141 5.57812 5.84766 5.61328 5.74219 5.61328H2.37891C0.785156 5.61328 0 6.42188 0 8.12109V12.6094C0 14.3086 0.796875 15.1055 2.37891 15.1055ZM2.46094 13.3945C2.02734 13.3945 1.82812 13.1953 1.82812 12.7617V7.96875C1.82812 7.52344 2.02734 7.32422 2.46094 7.32422H6.21094C6.51562 7.32422 6.75 7.26562 7.01953 7.01953L12.0117 2.48438C12.0703 2.42578 12.1289 2.39062 12.2109 2.39062C12.293 2.39062 12.3633 2.44922 12.3633 2.55469V18.1289C12.3633 18.2344 12.293 18.3047 12.2109 18.3047C12.1523 18.3047 12.082 18.2695 12.0117 18.2109L7.01953 13.6992C6.75 13.4648 6.51562 13.3945 6.21094 13.3945H2.46094Z" fill="black" fill-opacity="0.85"/>
</svg>
