<svg width="25" height="27" viewBox="0 0 25 27" fill="none" xmlns="http://www.w3.org/2000/svg">
<path d="M6.09961 17.9619H9.45117C9.55664 17.9619 9.65039 17.9971 9.73242 18.0674L15.0176 22.8018C15.5801 23.3057 16.0137 23.5401 16.5762 23.5401C17.3379 23.5401 17.9004 22.9893 17.9004 22.2276V4.25098C17.9004 3.48926 17.3379 2.86816 16.5527 2.86816C15.9902 2.86816 15.6387 3.12598 15.0176 3.67676L9.73242 8.36426C9.65039 8.43457 9.55664 8.46973 9.45117 8.46973H6.09961C4.50586 8.46973 3.70898 9.27832 3.70898 10.9776V15.4658C3.70898 17.1651 4.50586 17.9619 6.09961 17.9619ZM6.18164 16.251C5.73633 16.251 5.53711 16.0518 5.53711 15.6182V10.8252C5.53711 10.3799 5.73633 10.1807 6.18164 10.1807H9.93164C10.2363 10.1807 10.459 10.1221 10.7285 9.87598L15.7207 5.34082C15.7793 5.28223 15.8496 5.24707 15.9199 5.24707C16.002 5.24707 16.0723 5.30566 16.0723 5.41113V20.9854C16.0723 21.0908 16.002 21.1612 15.9199 21.1612C15.8613 21.1612 15.791 21.126 15.7324 21.0674L10.7285 16.5557C10.459 16.3213 10.2363 16.251 9.93164 16.251H6.18164Z" fill="#007AFF"/>
<path d="M20.7363 25.7315C21.6387 26.6221 23.0918 26.6221 23.959 25.708C24.8262 24.8291 24.8262 23.4112 23.9473 22.5205L3.88477 2.46973C2.99414 1.5791 1.54102 1.5791 0.650391 2.46973C-0.216797 3.33691 -0.216797 4.80176 0.650391 5.68066L20.7363 25.7315Z" fill="white"/>
<path d="M21.709 24.7705C22.0605 25.1221 22.6348 25.1221 22.9863 24.7705C23.3262 24.4073 23.3379 23.8448 22.9863 23.4932L2.91211 3.43066C2.56055 3.0791 1.97461 3.0791 1.62305 3.43066C1.2832 3.77051 1.2832 4.36816 1.62305 4.70801L21.709 24.7705Z" fill="black" fill-opacity="0.85"/>
</svg>
