<svg width="24" height="24" viewBox="0 0 24 24" fill="none" xmlns="http://www.w3.org/2000/svg">
<path d="M11.9531 23.9062C18.4922 23.9062 23.9062 18.4805 23.9062 11.9531C23.9062 5.41406 18.4805 0 11.9414 0C5.41406 0 0 5.41406 0 11.9531C0 18.4805 5.42578 23.9062 11.9531 23.9062ZM11.9531 21.9141C6.42188 21.9141 2.00391 17.4844 2.00391 11.9531C2.00391 6.42188 6.41016 1.99219 11.9414 1.99219C17.4727 1.99219 21.9141 6.42188 21.9141 11.9531C21.9141 17.4844 17.4844 21.9141 11.9531 21.9141Z" fill="#007AFF"/>
<path d="M14.0859 17.5664C14.4961 17.5664 14.8008 17.2734 14.8008 16.8516V7.08984C14.8008 6.69141 14.4961 6.35156 14.0742 6.35156C13.7695 6.35156 13.5703 6.48047 13.2422 6.78516L10.5469 9.32812C10.5117 9.375 10.4297 9.38672 10.3711 9.38672H8.55469C7.67578 9.38672 7.21875 9.86719 7.21875 10.7812V13.1484C7.21875 14.0625 7.67578 14.543 8.55469 14.543H10.3711C10.4297 14.543 10.5117 14.5664 10.5469 14.6016L13.2422 17.168C13.5352 17.4492 13.7812 17.5664 14.0859 17.5664Z" fill="black" fill-opacity="0.85"/>
</svg>
