<svg width="22" height="22" viewBox="0 0 22 22" fill="none" xmlns="http://www.w3.org/2000/svg">
<path d="M3.67969 21.5977H17.8945C20.3555 21.5977 21.5742 20.3789 21.5742 17.9648V3.65625C21.5742 1.24219 20.3555 0.0234375 17.8945 0.0234375H3.67969C1.23047 0.0234375 0 1.23047 0 3.65625V17.9648C0 20.3906 1.23047 21.5977 3.67969 21.5977Z" fill="#FFCC00"/>
<path d="M13.043 16.582C12.7266 16.582 12.4688 16.4766 12.1641 16.1719L9.38672 13.5234C9.35156 13.4883 9.25781 13.4648 9.19922 13.4648H7.33594C6.43359 13.4648 5.95312 12.9844 5.95312 12.0352V9.58595C5.95312 8.63673 6.43359 8.15625 7.33594 8.15625H9.19922C9.25781 8.15625 9.35156 8.13281 9.38672 8.09766L12.1641 5.46094C12.5156 5.14453 12.7148 5.01562 13.0312 5.01562C13.4648 5.01562 13.7695 5.36719 13.7695 5.78906V15.8555C13.7695 16.2891 13.4648 16.582 13.043 16.582Z" fill="black" fill-opacity="0.85"/>
</svg>
