<svg width="28" height="23" viewBox="0 0 28 23" fill="none" xmlns="http://www.w3.org/2000/svg">
<path d="M12.7852 1.26562L6.75 0.609375C5.68359 0.492188 4.93359 1.16016 4.93359 2.16797C4.93359 3.1875 5.68359 3.86719 6.75 3.75L12.7852 3.08203V1.26562ZM13.8516 4.34766C15.0586 4.34766 16.0312 3.375 16.0312 2.16797C16.0312 0.972656 15.0586 0 13.8516 0C12.6562 0 11.6836 0.972656 11.6836 2.16797C11.6836 3.375 12.6562 4.34766 13.8516 4.34766ZM14.918 1.26562V3.08203L20.9648 3.75C22.0195 3.86719 22.7695 3.1875 22.7695 2.16797C22.7695 1.16016 22.0195 0.492188 20.9648 0.609375L14.918 1.26562ZM12.8203 3.50391V6.28125H14.8945V3.50391H12.8203ZM10.582 8.53125H17.0977V6.99609C17.0977 6.07031 16.5234 5.49609 15.5977 5.49609H12.0703C11.1562 5.49609 10.582 6.07031 10.582 6.99609V8.53125ZM13.8398 20.2148C15.7969 20.2148 16.9805 19.418 18.293 18.2109C18.8203 17.6836 19.5117 17.4141 20.1211 17.4141C21.2812 17.4141 22.207 18.2695 22.207 19.8164V21.4453C22.207 21.9375 22.4297 22.1602 22.9219 22.1602H27.2109C27.7031 22.1602 27.9375 21.9375 27.9375 21.4453V20.3555C27.9375 13.6875 24 11.4492 20.2031 11.4492H19.6992C19.3711 11.4492 19.1484 11.2617 19.0547 11.0039L18.3398 9.07031C18.1289 8.48438 17.9297 8.33203 17.4141 8.33203H10.2539C9.73828 8.33203 9.55078 8.48438 9.32812 9.07031L8.625 11.0039C8.51953 11.2617 8.29688 11.4492 7.98047 11.4492H1.08984V17.3438H7.58203C8.30859 17.3438 8.67188 17.4375 9.1875 18.0352C10.3359 19.2891 11.8711 20.2148 13.8398 20.2148ZM0.9375 20.2969C1.46484 20.2969 1.88672 19.8633 1.88672 19.3477V9.77344C1.88672 9.25781 1.46484 8.82422 0.9375 8.82422C0.421875 8.82422 0 9.25781 0 9.77344V19.3477C0 19.8633 0.421875 20.2969 0.9375 20.2969Z" fill="black" fill-opacity="0.85"/>
</svg>
