<svg width="21" height="24" viewBox="0 0 21 24" fill="none" xmlns="http://www.w3.org/2000/svg">
<path d="M0.832031 10.6172C1.28906 10.6172 1.66406 10.2422 1.66406 9.78516C1.66406 9.32812 1.28906 8.95312 0.832031 8.95312C0.375 8.95312 0 9.32812 0 9.78516C0 10.2422 0.375 10.6172 0.832031 10.6172ZM3.28125 3.70312C3.73828 3.70312 4.11328 3.32812 4.11328 2.87109C4.11328 2.41406 3.73828 2.03906 3.28125 2.03906C2.82422 2.03906 2.44922 2.41406 2.44922 2.87109C2.44922 3.32812 2.82422 3.70312 3.28125 3.70312ZM10.5 1.66406C10.957 1.66406 11.332 1.28906 11.332 0.832031C11.332 0.375 10.957 0 10.5 0C10.043 0 9.66797 0.375 9.66797 0.832031C9.66797 1.28906 10.043 1.66406 10.5 1.66406ZM17.7188 3.70312C18.1758 3.70312 18.5508 3.32812 18.5508 2.87109C18.5508 2.41406 18.1758 2.03906 17.7188 2.03906C17.2617 2.03906 16.8867 2.41406 16.8867 2.87109C16.8867 3.32812 17.2617 3.70312 17.7188 3.70312ZM20.168 10.6172C20.625 10.6172 21 10.2422 21 9.78516C21 9.32812 20.625 8.95312 20.168 8.95312C19.7109 8.95312 19.3359 9.32812 19.3359 9.78516C19.3359 10.2422 19.7109 10.6172 20.168 10.6172Z" fill="#007AFF"/>
<path d="M4.32422 10.6172C4.78125 10.6172 5.15625 10.2422 5.15625 9.78516C5.15625 9.32812 4.78125 8.95312 4.32422 8.95312C3.86719 8.95312 3.49219 9.32812 3.49219 9.78516C3.49219 10.2422 3.86719 10.6172 4.32422 10.6172ZM5.75391 6.17578C6.21094 6.17578 6.58594 5.80078 6.58594 5.34375C6.58594 4.88672 6.21094 4.51172 5.75391 4.51172C5.29688 4.51172 4.92188 4.88672 4.92188 5.34375C4.92188 5.80078 5.29688 6.17578 5.75391 6.17578ZM10.5 5.16797C10.957 5.16797 11.332 4.79297 11.332 4.33594C11.332 3.87891 10.957 3.50391 10.5 3.50391C10.043 3.50391 9.66797 3.87891 9.66797 4.33594C9.66797 4.79297 10.043 5.16797 10.5 5.16797ZM15.2461 6.17578C15.7031 6.17578 16.0781 5.80078 16.0781 5.34375C16.0781 4.88672 15.7031 4.51172 15.2461 4.51172C14.7773 4.51172 14.4141 4.88672 14.4141 5.34375C14.4141 5.80078 14.7773 6.17578 15.2461 6.17578ZM16.6641 10.6172C17.1211 10.6172 17.4961 10.2422 17.4961 9.78516C17.4961 9.32812 17.1211 8.95312 16.6641 8.95312C16.207 8.95312 15.832 9.32812 15.832 9.78516C15.832 10.2422 16.207 10.6172 16.6641 10.6172Z" fill="#007AFF"/>
<path d="M8.27344 11.3789H12.7148C13.4883 11.3789 14.0391 10.8281 14.0391 10.0547V9.23438C14.0391 7.96875 13.1133 7.07812 11.7773 7.07812H9.21094C7.88672 7.07812 6.96094 7.96875 6.96094 9.23438V10.0547C6.96094 10.8281 7.51172 11.3789 8.27344 11.3789ZM8.77734 9.91406C8.60156 9.91406 8.48438 9.79688 8.48438 9.60938V9.23438C8.48438 8.75391 8.74219 8.54297 9.26953 8.54297H11.7188C12.2461 8.54297 12.5156 8.75391 12.5156 9.23438V9.60938C12.5156 9.79688 12.3984 9.91406 12.2109 9.91406H8.77734ZM8.27344 16.9922H12.7148C13.4883 16.9922 14.0391 16.4531 14.0391 15.668V13.9219C14.0391 13.1367 13.4883 12.5977 12.7148 12.5977H8.27344C7.51172 12.5977 6.96094 13.1367 6.96094 13.9219V15.668C6.96094 16.4531 7.51172 16.9922 8.27344 16.9922ZM8.71875 15.5156C8.54297 15.5156 8.42578 15.4102 8.42578 15.2227V14.3672C8.42578 14.1797 8.54297 14.0625 8.71875 14.0625H12.2695C12.457 14.0625 12.5742 14.1797 12.5742 14.3672V15.2227C12.5742 15.4102 12.457 15.5156 12.2695 15.5156H8.71875ZM8.50781 13.5938H10.0781V10.582H8.50781V13.5938ZM10.9219 13.5938H12.4922V10.582H10.9219V13.5938ZM8.27344 22.043H9.84375V16.3828H8.27344V22.043ZM11.1562 22.043H12.7266V16.3828H11.1562V22.043ZM1.13672 23.0156H19.8633C20.3672 23.0156 20.7891 22.5938 20.7891 22.0898C20.7891 21.5742 20.3672 21.1523 19.8633 21.1523H1.13672C0.632812 21.1523 0.199219 21.5742 0.199219 22.0898C0.199219 22.5938 0.632812 23.0156 1.13672 23.0156Z" fill="black" fill-opacity="0.85"/>
</svg>
