<svg width="25" height="20" viewBox="0 0 25 20" fill="none" xmlns="http://www.w3.org/2000/svg">
<path d="M9.62109 4.96875H15.0234C15.8906 4.96875 16.4883 4.35938 16.4883 3.49219V2.49609C16.4883 1.03125 15.4336 0.0117188 13.8867 0.0117188H10.7578C9.21094 0.0117188 8.15625 1.03125 8.15625 2.49609V3.49219C8.15625 4.35938 8.75391 4.96875 9.62109 4.96875ZM10.5234 7.67578H14.1328V4.27734H10.5234V7.67578ZM9.63281 11.7891H15.0234C15.8906 11.7891 16.4883 11.1914 16.4883 10.3125V8.19141C16.4883 7.32422 15.8906 6.72656 15.0234 6.72656H9.63281C8.76562 6.72656 8.15625 7.32422 8.15625 8.19141V10.3125C8.15625 11.1914 8.76562 11.7891 9.63281 11.7891ZM10.5234 18.0117H14.1328V11.0859H10.5234V18.0117ZM0 18.1875C0 18.7148 0.421875 19.1367 0.9375 19.1367H23.707C24.2227 19.1367 24.6562 18.7148 24.6562 18.1875C24.6562 17.6719 24.2227 17.25 23.707 17.25H0.9375C0.421875 17.25 0 17.6719 0 18.1875Z" fill="black" fill-opacity="0.85"/>
</svg>
