<svg width="24" height="24" viewBox="0 0 24 24" fill="none" xmlns="http://www.w3.org/2000/svg">
<path d="M11.9531 23.9062C18.4922 23.9062 23.9062 18.4805 23.9062 11.9531C23.9062 5.41406 18.4805 0 11.9414 0C5.41406 0 0 5.41406 0 11.9531C0 18.4805 5.42578 23.9062 11.9531 23.9062ZM11.9531 21.9141C6.42188 21.9141 2.00391 17.4844 2.00391 11.9531C2.00391 6.42188 6.41016 1.99219 11.9414 1.99219C17.4727 1.99219 21.9141 6.42188 21.9141 11.9531C21.9141 17.4844 17.4844 21.9141 11.9531 21.9141Z" fill="#007AFF"/>
<path d="M8.36719 17.5311H15.3164C16.4414 17.5311 17.1211 16.8632 17.1211 15.5741V9.46868L15.9141 10.6874V15.5155C15.9141 16.0546 15.6445 16.3124 15.3047 16.3124H8.37891C7.875 16.3124 7.60547 16.0546 7.60547 15.5155V8.80071C7.60547 8.26165 7.875 7.99212 8.37891 7.99212H13.2891L14.5078 6.77337H8.36719C7.06641 6.77337 6.38672 7.46477 6.38672 8.75384V15.5741C6.38672 16.8632 7.06641 17.5311 8.36719 17.5311ZM10.582 13.6757L11.7656 13.1835L17.1445 7.80462L16.125 6.80852L10.7578 12.1874L10.2188 13.3007C10.1133 13.5351 10.3594 13.7577 10.582 13.6757ZM17.6484 7.30071L18.1406 6.74993C18.3984 6.4804 18.3867 6.12884 18.1641 5.89446L18.0117 5.76555C17.7773 5.51946 17.4023 5.5429 17.1445 5.78899L16.6406 6.28118L17.6484 7.30071Z" fill="black" fill-opacity="0.85"/>
</svg>
