<svg width="25" height="28" viewBox="0 0 25 28" fill="none" xmlns="http://www.w3.org/2000/svg">
<path d="M0 21.1133C0 23.5391 1.24219 24.7461 3.67969 24.7461H17.0859C19.5352 24.7461 20.7656 23.5391 20.7656 21.1133V7.61328C20.7656 5.19922 19.5352 3.98047 17.0859 3.98047H3.67969C1.24219 3.98047 0 5.19922 0 7.61328V21.1133ZM3.71484 5.86719H17.0625C18.2344 5.86719 18.8789 6.5 18.8789 7.71875V21.0196C18.8789 22.2383 18.2344 22.8594 17.0625 22.8594H3.71484C2.54297 22.8594 1.88672 22.2383 1.88672 21.0196V7.71875C1.88672 6.5 2.54297 5.86719 3.71484 5.86719Z" fill="#007AFF"/>
<path d="M8.57836 18.6289L11.1447 17.5039L24.0236 4.60159C25.0432 3.58206 25.0432 2.01175 24.0236 0.992219L23.7424 0.722688C22.758 -0.273406 21.176 -0.226531 20.1682 0.781282L7.31274 13.6368L6.14086 16.086C5.4143 17.5977 7.00805 19.2969 8.57836 18.6289Z" fill="white"/>
<path d="M7.94504 17.1523L10.2302 16.1562L21.1755 5.2226L19.57 3.64057L8.63645 14.5742L7.58176 16.7773C7.48801 16.9765 7.72239 17.246 7.94504 17.1523ZM22.0427 4.36713L22.8864 3.49994C23.2849 3.07807 23.2849 2.51557 22.8864 2.12885L22.6169 1.8476C22.2536 1.48432 21.6794 1.53119 21.2927 1.90619L20.4372 2.74994L22.0427 4.36713Z" fill="black" fill-opacity="0.85"/>
</svg>
