<svg width="24" height="24" viewBox="0 0 24 24" fill="none" xmlns="http://www.w3.org/2000/svg">
<path d="M11.9531 23.9062C18.4922 23.9062 23.9062 18.4805 23.9062 11.9531C23.9062 5.41406 18.4805 0 11.9414 0C5.41406 0 0 5.41406 0 11.9531C0 18.4805 5.42578 23.9062 11.9531 23.9062ZM11.9531 21.9141C6.42188 21.9141 2.00391 17.4844 2.00391 11.9531C2.00391 6.42188 6.41016 1.99219 11.9414 1.99219C17.4727 1.99219 21.9141 6.42188 21.9141 11.9531C21.9141 17.4844 17.4844 21.9141 11.9531 21.9141Z" fill="#007AFF"/>
<path d="M7.60547 17.8477H16.3008C17.3672 17.8477 17.8477 17.2734 17.8477 16.0898V7.58203C17.8477 6.53906 17.3672 6.05859 16.3008 6.05859H7.60547C6.67969 6.05859 6.05859 6.67969 6.05859 7.58203V16.0898C6.05859 17.1328 6.67969 17.8477 7.60547 17.8477ZM8.33203 16.1367C8.00391 16.1367 7.76953 15.9023 7.76953 15.5625V8.34375C7.76953 8.00391 8.00391 7.76953 8.33203 7.76953H15.5742C15.9023 7.76953 16.1367 8.00391 16.1367 8.34375V15.5625C16.1367 15.9023 15.9023 16.1367 15.5742 16.1367H8.33203Z" fill="black" fill-opacity="0.85"/>
</svg>
