<svg width="24" height="25" viewBox="0 0 24 25" fill="none" xmlns="http://www.w3.org/2000/svg">
<path d="M11.9531 24.0117C18.4922 24.0117 23.9062 18.5859 23.9062 12.0586C23.9062 5.51953 18.4805 0.105469 11.9414 0.105469C5.41406 0.105469 0 5.51953 0 12.0586C0 18.5859 5.42578 24.0117 11.9531 24.0117Z" fill="#FFCC00"/>
<path d="M7.47656 18.1406C6.52734 18.1406 5.88281 17.4023 5.88281 16.3242V7.54688C5.88281 6.62109 6.52734 5.97656 7.47656 5.97656H16.4531C17.5547 5.97656 18.0469 6.46875 18.0469 7.54688V16.3242C18.0469 17.543 17.5547 18.1406 16.4531 18.1406H7.47656ZM8.23828 16.3594H15.6914C16.0312 16.3594 16.2656 16.1367 16.2656 15.7734V8.34375C16.2656 7.99219 16.0312 7.75781 15.6914 7.75781H8.23828C7.89844 7.75781 7.66406 7.99219 7.66406 8.34375V15.7734C7.66406 16.1367 7.89844 16.3594 8.23828 16.3594Z" fill="black" fill-opacity="0.85"/>
</svg>
