<svg width="24" height="24" viewBox="0 0 24 24" fill="none" xmlns="http://www.w3.org/2000/svg">
<path d="M11.9531 23.918C18.4922 23.918 23.9062 18.5039 23.9062 11.9648C23.9062 5.4375 18.4805 0.0117188 11.9414 0.0117188C5.41406 0.0117188 0 5.4375 0 11.9648C0 18.5039 5.42578 23.918 11.9531 23.918Z" fill="#FFCC00"/>
<path d="M8.23828 17.7306C6.90234 17.7306 6.19922 17.0392 6.19922 15.7149V8.67198C6.19922 7.34776 6.90234 6.64463 8.23828 6.64463H14.5664L13.3008 7.91026H8.26172C7.73438 7.91026 7.46484 8.16807 7.46484 8.73057V15.6446C7.46484 16.2071 7.73438 16.4649 8.26172 16.4649H15.3984C15.75 16.4649 16.0195 16.2071 16.0195 15.6446V10.6759L17.2734 9.42198V15.7149C17.2734 17.0392 16.5703 17.7306 15.4102 17.7306H8.23828ZM10.5234 13.7579C10.2891 13.8517 10.043 13.6173 10.1484 13.3829L10.7109 12.2228L16.2422 6.67979L17.2969 7.69932L11.7422 13.254L10.5234 13.7579ZM17.8125 7.17198L16.7695 6.14072L17.2969 5.6251C17.5547 5.35557 17.9414 5.35557 18.1875 5.60166L18.3398 5.75401C18.5742 5.98838 18.5859 6.33994 18.3164 6.60948L17.8125 7.17198Z" fill="black" fill-opacity="0.85"/>
</svg>
