<svg width="28" height="29" viewBox="0 0 28 29" fill="none" xmlns="http://www.w3.org/2000/svg">
<path d="M24.3311 8.95894C24.3311 7.74019 23.9443 7.04879 22.8896 6.43941L13.5029 1.01363C12.3428 0.357377 10.8662 0.779252 10.8662 2.44332V13.3652C10.8662 14.6074 11.1943 15.2753 12.3428 15.9316L21.5068 21.2284C23.1592 22.1777 24.3311 21.5449 24.3311 19.5761V8.95894ZM21.9053 8.13863C22.2803 8.36129 22.4209 8.52535 22.4209 9.02926V19.2949C22.4209 19.412 22.3506 19.4472 22.2451 19.3886L13.2803 14.2206C12.8818 13.9863 12.7764 13.787 12.7764 13.33V3.08785C12.7764 2.97066 12.8701 2.91207 12.9756 2.98238L21.9053 8.13863Z" fill="#007AFF"/>
<path d="M19.667 11.6543C19.667 10.4473 19.2686 9.75592 18.2256 9.13482L8.82715 3.72076C7.66699 3.05279 6.20215 3.48639 6.20215 5.13873V16.0606C6.20215 17.3028 6.51855 17.9707 7.66699 18.627L16.8428 23.9356C18.4834 24.8731 19.667 24.2403 19.667 22.2832V11.6543Z" fill="white"/>
<path d="M19.667 11.6543C19.667 10.4473 19.2686 9.75592 18.2256 9.13482L8.82715 3.72076C7.66699 3.05279 6.20215 3.48639 6.20215 5.13873V16.0606C6.20215 17.3028 6.51855 17.9707 7.66699 18.627L16.8428 23.9356C18.4834 24.8731 19.667 24.2403 19.667 22.2832V11.6543ZM17.2295 10.834C17.6045 11.0567 17.7568 11.2207 17.7568 11.7246V21.9903C17.7568 22.1075 17.6865 22.1426 17.5693 22.084L8.60449 16.916C8.20605 16.6817 8.1123 16.4825 8.1123 16.0254V5.78326C8.1123 5.67779 8.19434 5.60748 8.31152 5.67779L17.2295 10.834Z" fill="#007AFF"/>
<path d="M14.6748 14.584C14.6748 13.377 14.2881 12.6856 13.2334 12.0762L3.84668 6.65041C2.68652 5.99416 1.20996 6.41603 1.20996 8.06838V18.9903C1.20996 20.2325 1.52637 20.9004 2.68652 21.5567L11.8506 26.8653C13.5029 27.8145 14.6748 27.17 14.6748 25.2129V14.584Z" fill="white"/>
<path d="M14.6748 14.584C14.6748 13.377 14.2881 12.6856 13.2334 12.0762L3.84668 6.65041C2.68652 5.99416 1.20996 6.41603 1.20996 8.06838V18.9903C1.20996 20.2325 1.52637 20.9004 2.68652 21.5567L11.8506 26.8653C13.5029 27.8145 14.6748 27.17 14.6748 25.2129V14.584ZM12.249 13.7637C12.624 13.9864 12.7646 14.1504 12.7646 14.6543V24.92C12.7646 25.0371 12.6943 25.084 12.5889 25.0254L3.62402 19.8457C3.22559 19.6114 3.12012 19.4239 3.12012 18.9551V8.71291C3.12012 8.60744 3.21387 8.54885 3.31934 8.60744L12.249 13.7637Z" fill="#007AFF"/>
<path d="M23.335 26.5371C24.2256 27.416 25.667 27.4278 26.5459 26.5254C27.4248 25.6231 27.4248 24.2051 26.5459 23.3262L3.88184 0.673857C3.00293 -0.216768 1.5498 -0.228487 0.65918 0.662138C-0.219727 1.54104 -0.219727 3.00589 0.65918 3.88479L23.335 26.5371Z" fill="white"/>
<path d="M24.2959 25.5645C24.6592 25.916 25.2334 25.916 25.5732 25.5645C25.9248 25.2129 25.9365 24.6387 25.5732 24.2871L2.90918 1.63476C2.55762 1.2832 1.9834 1.2832 1.62012 1.63476C1.28027 1.97461 1.28027 2.57226 1.62012 2.91211L24.2959 25.5645Z" fill="black" fill-opacity="0.85"/>
</svg>
