<svg width="28" height="29" viewBox="0 0 28 29" fill="none" xmlns="http://www.w3.org/2000/svg">
<path d="M13.5732 27.3575C14.042 27.3575 14.499 27.2051 15.0615 26.877L24.2373 21.5567C25.1748 21.0059 25.5498 20.5723 25.5498 19.9278C25.5498 19.295 25.1748 18.8614 24.2373 18.3106L15.0615 12.9903C14.499 12.6621 14.042 12.5098 13.5732 12.5098C13.1045 12.5098 12.6475 12.6621 12.085 12.9903L2.90918 18.3106C1.97168 18.8614 1.59668 19.295 1.59668 19.9278C1.59668 20.5723 1.97168 21.0059 2.90918 21.5567L12.085 26.877C12.6475 27.2051 13.1045 27.3575 13.5732 27.3575ZM13.5732 25.3184C13.4092 25.3184 13.2451 25.2598 13.0576 25.1543L4.13965 20.045C4.08105 20.0215 4.0459 19.9864 4.0459 19.9278C4.0459 19.8809 4.08105 19.8457 4.13965 19.8223L13.0576 14.7129C13.2451 14.6075 13.4092 14.5489 13.5732 14.5489C13.7373 14.5489 13.9014 14.6075 14.0889 14.7129L23.0068 19.8223C23.0654 19.8457 23.1006 19.8809 23.1006 19.9278C23.1006 19.9864 23.0654 20.0215 23.0068 20.045L14.0889 25.1543C13.9014 25.2598 13.7373 25.3184 13.5732 25.3184Z" fill="#007AFF"/>
<path d="M13.5732 21.9668C14.042 21.9668 14.499 21.8145 15.0615 21.4864L24.2373 16.1543C25.1748 15.6035 25.5498 15.1817 25.5498 14.5371C25.5498 13.8926 25.1748 13.4707 24.2373 12.9082L15.0615 7.58789C14.499 7.25976 14.042 7.10742 13.5732 7.10742C13.1045 7.10742 12.6475 7.25976 12.085 7.58789L2.90918 12.9082C1.97168 13.4707 1.59668 13.8926 1.59668 14.5371C1.59668 15.1817 1.97168 15.6035 2.90918 16.1543L12.085 21.4864C12.6475 21.8145 13.1045 21.9668 13.5732 21.9668Z" fill="white"/>
<path d="M13.5732 21.9668C14.042 21.9668 14.499 21.8145 15.0615 21.4864L24.2373 16.1543C25.1748 15.6035 25.5498 15.1817 25.5498 14.5371C25.5498 13.8926 25.1748 13.4707 24.2373 12.9082L15.0615 7.58789C14.499 7.25976 14.042 7.10742 13.5732 7.10742C13.1045 7.10742 12.6475 7.25976 12.085 7.58789L2.90918 12.9082C1.97168 13.4707 1.59668 13.8926 1.59668 14.5371C1.59668 15.1817 1.97168 15.6035 2.90918 16.1543L12.085 21.4864C12.6475 21.8145 13.1045 21.9668 13.5732 21.9668ZM13.5732 19.916C13.4092 19.916 13.2451 19.8575 13.0576 19.752L4.13965 14.6543C4.08105 14.6192 4.0459 14.5957 4.0459 14.5371C4.0459 14.4785 4.08105 14.4434 4.13965 14.42L13.0576 9.32226C13.2451 9.20508 13.4092 9.1582 13.5732 9.1582C13.7373 9.1582 13.9014 9.20508 14.0889 9.32226L23.0068 14.42C23.0654 14.4434 23.1006 14.4785 23.1006 14.5371C23.1006 14.5957 23.0654 14.6192 23.0068 14.6543L14.0889 19.752C13.9014 19.8575 13.7373 19.916 13.5732 19.916Z" fill="#007AFF"/>
<path d="M13.5732 16.1895C14.042 16.1895 14.499 16.0371 15.0615 15.709L24.2373 10.3887C25.1748 9.83789 25.5498 9.4043 25.5498 8.75976C25.5498 8.12695 25.1748 7.69336 24.2373 7.14258L15.0615 1.82226C14.499 1.49414 14.042 1.3418 13.5732 1.3418C13.1045 1.3418 12.6475 1.49414 12.085 1.82226L2.90918 7.14258C1.97168 7.69336 1.59668 8.12695 1.59668 8.75976C1.59668 9.4043 1.97168 9.83789 2.90918 10.3887L12.085 15.709C12.6475 16.0371 13.1045 16.1895 13.5732 16.1895Z" fill="white"/>
<path d="M13.5732 16.1895C14.042 16.1895 14.499 16.0371 15.0615 15.709L24.2373 10.3887C25.1748 9.83789 25.5498 9.4043 25.5498 8.75976C25.5498 8.12695 25.1748 7.69336 24.2373 7.14258L15.0615 1.82226C14.499 1.49414 14.042 1.3418 13.5732 1.3418C13.1045 1.3418 12.6475 1.49414 12.085 1.82226L2.90918 7.14258C1.97168 7.69336 1.59668 8.12695 1.59668 8.75976C1.59668 9.4043 1.97168 9.83789 2.90918 10.3887L12.085 15.709C12.6475 16.0371 13.1045 16.1895 13.5732 16.1895ZM13.5732 14.1504C13.4092 14.1504 13.2451 14.0918 13.0576 13.9864L4.13965 8.87695C4.08105 8.85351 4.0459 8.81836 4.0459 8.75976C4.0459 8.71289 4.08105 8.67773 4.13965 8.6543L13.0576 3.54492C13.2451 3.43945 13.4092 3.38086 13.5732 3.38086C13.7373 3.38086 13.9014 3.43945 14.0889 3.54492L23.0068 8.6543C23.0654 8.67773 23.1006 8.71289 23.1006 8.75976C23.1006 8.81836 23.0654 8.85351 23.0068 8.87695L14.0889 13.9864C13.9014 14.0918 13.7373 14.1504 13.5732 14.1504Z" fill="#007AFF"/>
<path d="M23.335 26.5371C24.2256 27.416 25.667 27.4278 26.5576 26.5254C27.4365 25.6231 27.4248 24.2051 26.5459 23.3262L3.88184 0.673857C3.00293 -0.216768 1.56152 -0.228487 0.65918 0.662138C-0.219727 1.54104 -0.219727 3.00589 0.65918 3.88479L23.335 26.5371Z" fill="white"/>
<path d="M24.3076 25.5645C24.6592 25.916 25.2334 25.916 25.585 25.5645C25.9248 25.2129 25.9365 24.6387 25.585 24.2871L2.9209 1.63476C2.56934 1.2832 1.9834 1.2832 1.63184 1.63476C1.28027 1.97461 1.28027 2.57226 1.63184 2.91211L24.3076 25.5645Z" fill="black" fill-opacity="0.85"/>
</svg>
