<svg width="24" height="25" viewBox="0 0 24 25" fill="none" xmlns="http://www.w3.org/2000/svg">
<path d="M11.9766 24.9961C12.4453 24.9961 12.9023 24.8438 13.4648 24.5156L22.6289 19.1836C23.5781 18.6328 23.9531 18.2109 23.9531 17.5664C23.9531 16.9219 23.5781 16.5 22.6289 15.9375L13.4648 10.6172C12.9023 10.2891 12.4453 10.1367 11.9766 10.1367C11.4961 10.1367 11.0508 10.2891 10.4883 10.6172L1.3125 15.9375C0.363281 16.5 0 16.9219 0 17.5664C0 18.2109 0.363281 18.6328 1.3125 19.1836L10.4883 24.5156C11.0508 24.8438 11.4961 24.9961 11.9766 24.9961Z" fill="black" fill-opacity="0.85"/>
<path d="M11.9766 15.3867C12.4453 15.3867 12.9023 15.2344 13.4648 14.9062L22.6289 9.58594C23.5781 9.02344 23.9531 8.60156 23.9531 7.95703C23.9531 7.3125 23.5781 6.89062 22.6289 6.33984L13.4648 1.00781C12.9023 0.679688 12.4453 0.527344 11.9766 0.527344C11.4961 0.527344 11.0508 0.679688 10.4883 1.00781L1.3125 6.33984C0.363281 6.89062 0 7.3125 0 7.95703C0 8.60156 0.363281 9.02344 1.3125 9.58594L10.4883 14.9062C11.0508 15.2344 11.4961 15.3867 11.9766 15.3867Z" fill="white"/>
<path d="M11.9766 15.3867C12.4453 15.3867 12.9023 15.2344 13.4648 14.9062L22.6289 9.58594C23.5781 9.02344 23.9531 8.60156 23.9531 7.95703C23.9531 7.3125 23.5781 6.89062 22.6289 6.33984L13.4648 1.00781C12.9023 0.679688 12.4453 0.527344 11.9766 0.527344C11.4961 0.527344 11.0508 0.679688 10.4883 1.00781L1.3125 6.33984C0.363281 6.89062 0 7.3125 0 7.95703C0 8.60156 0.363281 9.02344 1.3125 9.58594L10.4883 14.9062C11.0508 15.2344 11.4961 15.3867 11.9766 15.3867ZM11.9766 13.3359C11.8125 13.3359 11.6484 13.2891 11.4492 13.1719L2.53125 8.07422C2.48438 8.05078 2.44922 8.01562 2.44922 7.95703C2.44922 7.89844 2.48438 7.875 2.53125 7.83984L11.4492 2.74219C11.6484 2.63672 11.8125 2.57812 11.9766 2.57812C12.1406 2.57812 12.3047 2.63672 12.4922 2.74219L21.4102 7.83984C21.4688 7.875 21.5039 7.89844 21.5039 7.95703C21.5039 8.01562 21.4688 8.05078 21.4102 8.07422L12.4922 13.1719C12.3047 13.2891 12.1406 13.3359 11.9766 13.3359Z" fill="#007AFF"/>
</svg>
