<svg width="22" height="22" viewBox="0 0 22 22" fill="none" xmlns="http://www.w3.org/2000/svg">
<path d="M0 6.19922H1.88672V3.75C1.88672 2.53125 2.53125 1.91016 3.70312 1.91016H6.12891V0.0234375H3.67969C1.23047 0.0234375 0 1.23047 0 3.65625V6.19922ZM7.73438 1.91016H13.8398V0.0234375H7.73438V1.91016ZM19.6875 6.19922H21.5742V3.65625C21.5742 1.24219 20.3438 0.0234375 17.8945 0.0234375H15.4453V1.91016H17.8711C19.0312 1.91016 19.6875 2.53125 19.6875 3.75V6.19922ZM19.6875 13.8164H21.5742V7.80469H19.6875V13.8164ZM15.4453 21.5977H17.8945C20.3438 21.5977 21.5742 20.3789 21.5742 17.9648V15.4219H19.6875V17.8711C19.6875 19.0898 19.0312 19.7109 17.8711 19.7109H15.4453V21.5977ZM7.73438 21.5977H13.8398V19.7109H7.73438V21.5977ZM3.67969 21.5977H6.12891V19.7109H3.70312C2.53125 19.7109 1.88672 19.0898 1.88672 17.8711V15.4219H0V17.9648C0 20.3906 1.23047 21.5977 3.67969 21.5977ZM0 13.8164H1.88672V7.80469H0V13.8164Z" fill="black" fill-opacity="0.85"/>
</svg>
