<svg width="28" height="28" viewBox="0 0 28 28" fill="none" xmlns="http://www.w3.org/2000/svg">
<path d="M13.5703 26.0625C14.0508 26.0625 14.4961 25.9102 15.0703 25.582L24.2344 20.25C25.1836 19.6992 25.5469 19.2773 25.5469 18.6328C25.5469 17.9883 25.1836 17.5664 24.2344 17.0039L18.1172 13.4648H9.02344L2.91797 17.0039C1.96875 17.5664 1.60547 17.9883 1.60547 18.6328C1.60547 19.2773 1.96875 19.6992 2.91797 20.25L12.082 25.582C12.6445 25.9102 13.1016 26.0625 13.5703 26.0625Z" fill="#007AFF"/>
<path d="M13.5703 18.0469C14.2617 18.0469 14.9883 17.8711 15.8672 17.3555L25.043 12.0352C26.5781 11.1211 27.1523 10.1836 27.1523 9.02344C27.1523 7.86328 26.5781 6.92578 25.043 6.01172L15.8672 0.691406C14.9883 0.1875 14.2617 0 13.5703 0C12.8906 0 12.1641 0.1875 11.2852 0.691406L2.09766 6.01172C0.5625 6.92578 0 7.86328 0 9.02344C0 10.1836 0.5625 11.1211 2.09766 12.0352L11.2852 17.3555C12.1641 17.8711 12.8906 18.0469 13.5703 18.0469Z" fill="white"/>
<path d="M13.5703 16.4531C14.0508 16.4531 14.4961 16.3008 15.0703 15.9727L24.2344 10.6523C25.1836 10.0898 25.5469 9.66797 25.5469 9.02344C25.5469 8.37891 25.1836 7.95703 24.2344 7.40625L15.0703 2.07422C14.4961 1.74609 14.0508 1.59375 13.5703 1.59375C13.1016 1.59375 12.6445 1.74609 12.082 2.07422L2.91797 7.40625C1.96875 7.95703 1.60547 8.37891 1.60547 9.02344C1.60547 9.66797 1.96875 10.0898 2.91797 10.6523L12.082 15.9727C12.6445 16.3008 13.1016 16.4531 13.5703 16.4531Z" fill="black" fill-opacity="0.85"/>
</svg>
