<svg width="23" height="23" viewBox="0 0 23 23" fill="none" xmlns="http://www.w3.org/2000/svg">
<path d="M0.9375 22.582C1.46484 22.582 1.88672 22.1484 1.88672 21.6328V17.6836H5.98828C6.65625 17.6836 7.14844 17.1914 7.14844 16.5234V12.4219H11.25C11.918 12.4219 12.4219 11.9297 12.4219 11.2617V7.16016H16.5117C17.1914 7.16016 17.6836 6.66797 17.6836 6V1.88672H21.6211C22.1484 1.88672 22.5703 1.46484 22.5703 0.949219C22.5703 0.433594 22.1484 0 21.6211 0H16.957C16.2891 0 15.7969 0.503906 15.7969 1.17188V5.27344H11.6953C11.0273 5.27344 10.5352 5.76562 10.5352 6.43359V10.5352H6.42188C5.75391 10.5352 5.26172 11.0273 5.26172 11.707V15.7969H1.16016C0.492188 15.7969 0 16.3008 0 16.9688V21.6328C0 22.1484 0.421875 22.582 0.9375 22.582Z" fill="black" fill-opacity="0.85"/>
</svg>
