<svg width="24" height="24" viewBox="0 0 24 24" fill="none" xmlns="http://www.w3.org/2000/svg">
<path d="M11.9531 23.9062C18.4922 23.9062 23.9062 18.4805 23.9062 11.9531C23.9062 5.41406 18.4805 0 11.9414 0C5.41406 0 0 5.41406 0 11.9531C0 18.4805 5.42578 23.9062 11.9531 23.9062ZM11.9531 21.9141C6.42188 21.9141 2.00391 17.4844 2.00391 11.9531C2.00391 6.42188 6.41016 1.99219 11.9414 1.99219C17.4727 1.99219 21.9141 6.42188 21.9141 11.9531C21.9141 17.4844 17.4844 21.9141 11.9531 21.9141Z" fill="#007AFF"/>
<path d="M6.50235 8.87109C6.12735 9.58594 6.23282 9.9375 6.88906 10.3008L9.84219 11.8945L6.87735 13.6172C6.20938 14.0039 6.11563 14.3555 6.51406 15.0586L6.5375 15.1055C6.93594 15.8203 7.29922 15.9141 7.96719 15.5039L10.8148 13.8633V17.1562C10.8148 17.9531 11.0843 18.2109 11.9164 18.2109H11.9867C12.7953 18.2109 13.0648 17.9531 13.0648 17.1562V13.8633L15.9125 15.5039C16.6156 15.9375 16.9672 15.832 17.3422 15.1055L17.3656 15.0586C17.7289 14.3438 17.6468 13.9922 17.0023 13.6172L14.0375 11.8945L16.9906 10.3008C17.6586 9.9375 17.7523 9.58594 17.3773 8.87109L17.3422 8.78906C16.9789 8.0625 16.6156 7.95703 15.889 8.39062L13.0648 10.0312V6.73828C13.0648 5.96484 12.7953 5.70703 11.9867 5.70703H11.9164C11.0843 5.70703 10.8148 5.96484 10.8148 6.73828V10.0312L7.99063 8.39062C7.26406 7.96875 6.90078 8.0625 6.5375 8.78906L6.50235 8.87109Z" fill="black" fill-opacity="0.85"/>
</svg>
