<svg width="34" height="18" viewBox="0 0 34 18" fill="none" xmlns="http://www.w3.org/2000/svg">
<path d="M7.73404 3.14062H8.57779C9.10513 3.14062 9.32779 2.94141 9.50357 2.49609L10.195 0.75C10.359 0.363281 10.1833 0.0234375 9.7731 0.0234375H8.99966C8.60123 0.0234375 8.35513 0.222656 8.16763 0.574219L7.24185 2.35547C7.05435 2.70703 7.24185 3.14062 7.73404 3.14062ZM4.5231 9.65625H5.82388C6.36295 9.65625 6.67935 9.46875 6.87857 8.96484L7.8981 6.45703C8.06216 6.04688 7.80435 5.64844 7.34732 5.64844H6.18716C5.78873 5.64844 5.4606 5.84766 5.2731 6.21094L3.97232 8.74219C3.73795 9.1875 4.0192 9.65625 4.5231 9.65625ZM0.948883 17.5664H2.48404C3.18716 17.5664 3.53873 17.2266 3.72623 16.7227L5.15591 13.2188C5.36685 12.7031 5.03873 12.1992 4.47623 12.1992H3.15201C2.41373 12.1992 2.05045 12.4805 1.79263 12.9727L0.128571 16.2656C-0.176117 16.8633 0.0465394 17.5664 0.948883 17.5664ZM25.1833 3.14062H26.027C26.5192 3.14062 26.7067 2.70703 26.5192 2.35547L25.5934 0.574219C25.4176 0.222656 25.1598 0.0234375 24.7614 0.0234375H23.9879C23.5778 0.0234375 23.402 0.363281 23.5661 0.75L24.2575 2.49609C24.4333 2.94141 24.6559 3.14062 25.1833 3.14062ZM27.9489 9.65625H29.2379C29.7419 9.65625 30.0231 9.1875 29.8004 8.74219L28.4997 6.21094C28.3004 5.84766 27.9723 5.64844 27.5739 5.64844H26.4137C25.9567 5.64844 25.6989 6.04688 25.8629 6.45703L26.8825 8.96484C27.0934 9.46875 27.3981 9.65625 27.9489 9.65625ZM31.277 17.5664H32.8122C33.7262 17.5664 33.9372 16.8633 33.6325 16.2656L31.9684 12.9727C31.7106 12.4805 31.3473 12.1992 30.609 12.1992H29.2965C28.7223 12.1992 28.3942 12.7031 28.6051 13.2188L30.0348 16.7227C30.234 17.2266 30.5739 17.5664 31.277 17.5664Z" fill="#007AFF"/>
<path d="M16.8984 16.5469C20.8242 16.5469 24.082 13.3008 24.082 9.375C24.082 5.4375 20.8125 2.19141 16.8867 2.19141C12.9726 2.19141 9.71484 5.4375 9.71484 9.375C9.71484 13.3008 12.9726 16.5469 16.8984 16.5469ZM12.1523 6.21094C13.1601 4.65234 14.8828 3.64453 16.8867 3.64453C18.8906 3.64453 20.6132 4.65234 21.6211 6.19922C21.8554 6.52734 21.7734 6.80859 21.4101 6.80859H12.3632C12 6.80859 11.9297 6.52734 12.1523 6.21094ZM16.8867 11.1094C16.0898 11.1094 15.5039 10.5117 15.5039 9.72656C15.5039 8.92969 16.0898 8.33203 16.8867 8.33203C17.6718 8.33203 18.2695 8.92969 18.2695 9.72656C18.2695 10.5117 17.6718 11.1094 16.8867 11.1094ZM11.3789 10.875C11.2734 10.5469 11.4023 10.4414 11.6836 10.4766C13.6172 10.6875 15.082 12.3398 15.0117 14.332C15.0117 14.625 14.8593 14.7539 14.5664 14.6016C12.9609 13.8984 11.8125 12.5391 11.3789 10.875ZM22.4179 10.875C21.9726 12.5391 20.8125 13.8984 19.207 14.6016C18.914 14.7539 18.7734 14.625 18.7617 14.332C18.7031 12.3516 20.1562 10.6875 22.0781 10.4766C22.3711 10.4297 22.5 10.5469 22.4179 10.875Z" fill="black" fill-opacity="0.85"/>
</svg>
