<svg width="34" height="18" viewBox="0 0 34 18" fill="none" xmlns="http://www.w3.org/2000/svg">
<path d="M0.961085 17.5664H2.48452C3.18765 17.5664 3.53921 17.2266 3.73843 16.7227L10.2072 0.75C10.3712 0.363281 10.1837 0.0234375 9.77358 0.0234375H9.01187C8.60171 0.0234375 8.3439 0.222656 8.16812 0.574219L0.140772 16.2656C-0.187353 16.8633 0.047022 17.5664 0.961085 17.5664ZM31.2892 17.5664H32.8244C33.7267 17.5664 33.9611 16.8633 33.633 16.2656L25.6173 0.574219C25.4298 0.222656 25.172 0.0234375 24.7619 0.0234375H24.0001C23.59 0.0234375 23.4142 0.363281 23.5666 0.75L30.0353 16.7227C30.2345 17.2266 30.5861 17.5664 31.2892 17.5664Z" fill="#007AFF"/>
<path d="M16.8868 16.5469C20.8125 16.5469 24.0704 13.3008 24.0704 9.375C24.0704 5.4375 20.8008 2.19141 16.875 2.19141C12.961 2.19141 9.71484 5.4375 9.71484 9.375C9.71484 13.3008 12.961 16.5469 16.8868 16.5469ZM12.1407 6.21094C13.1485 4.65234 14.8711 3.64453 16.875 3.64453C18.879 3.64453 20.6016 4.65234 21.6094 6.19922C21.8438 6.52734 21.7735 6.80859 21.3985 6.80859H12.3516C12 6.80859 11.918 6.52734 12.1407 6.21094ZM16.875 11.1094C16.0899 11.1094 15.4922 10.5117 15.4922 9.72656C15.4922 8.92969 16.0899 8.33203 16.875 8.33203C17.6719 8.33203 18.2696 8.92969 18.2696 9.72656C18.2696 10.5117 17.6719 11.1094 16.875 11.1094ZM11.3672 10.875C11.2735 10.5352 11.3907 10.4414 11.6836 10.4766C13.6172 10.6875 15.0704 12.3516 15 14.332C15 14.625 14.8594 14.7539 14.5665 14.6016C12.961 13.8984 11.8008 12.5391 11.3672 10.875ZM22.4063 10.875C21.961 12.5391 20.8125 13.8984 19.2071 14.6016C18.9141 14.7539 18.7618 14.625 18.7618 14.332C18.6915 12.3516 20.1446 10.6875 22.0782 10.4766C22.3594 10.4297 22.5 10.5352 22.4063 10.875Z" fill="black" fill-opacity="0.85"/>
</svg>
