<svg width="24" height="24" viewBox="0 0 24 24" fill="none" xmlns="http://www.w3.org/2000/svg">
<path d="M11.9531 23.9062C18.4922 23.9062 23.9062 18.4805 23.9062 11.9531C23.9062 5.41406 18.4805 0 11.9414 0C5.41406 0 0 5.41406 0 11.9531C0 18.4805 5.42578 23.9062 11.9531 23.9062Z" fill="#FFCC00"/>
<path d="M11.9648 19.2539C7.96875 19.2539 4.66406 15.9492 4.66406 11.9531C4.66406 7.95703 7.95703 4.65234 11.9531 4.65234C15.9609 4.65234 19.2656 7.95703 19.2656 11.9531C19.2656 15.9492 15.9609 19.2539 11.9648 19.2539ZM7.20703 8.75391C6.94922 9.12891 7.07812 9.5625 7.53516 9.5625H16.3828C16.8398 9.5625 16.957 9.12891 16.6992 8.75391C15.6914 7.23047 13.957 6.19922 11.9531 6.19922C9.96094 6.19922 8.22656 7.23047 7.20703 8.75391ZM11.9531 13.793C12.7852 13.793 13.4648 13.125 13.4648 12.2812C13.4648 11.4375 12.7852 10.7812 11.9531 10.7812C11.1211 10.7812 10.4531 11.4375 10.4531 12.2812C10.4531 13.125 11.1211 13.793 11.9531 13.793ZM6.42188 13.4648C6.85547 15.1289 8.02734 16.4883 9.63281 17.2031C9.98438 17.3789 10.2656 17.1562 10.2656 16.8047C10.3359 14.8125 8.83594 13.1133 6.87891 12.8906C6.53906 12.8438 6.30469 13.043 6.42188 13.4648ZM17.4961 13.4648C17.6133 13.043 17.3789 12.8438 17.0391 12.8906C15.082 13.1133 13.5938 14.8242 13.6523 16.8047C13.6523 17.1562 13.9336 17.3789 14.2969 17.2031C15.8906 16.4883 17.0625 15.1289 17.4961 13.4648Z" fill="black" fill-opacity="0.85"/>
</svg>
