<svg width="35" height="24" viewBox="0 0 35 24" fill="none" xmlns="http://www.w3.org/2000/svg">
<path d="M11.9531 23.9062C18.4805 23.9062 23.9062 18.4805 23.9062 11.9531C23.9062 5.41406 18.4688 0 11.9414 0C5.40234 0 0 5.41406 0 11.9531C0 18.4805 5.41406 23.9062 11.9531 23.9062ZM3.70312 6.43359C5.42578 3.76172 8.46094 1.99219 11.9297 1.99219C15.3867 1.99219 18.4219 3.76172 20.1562 6.42188C20.625 7.08984 20.4023 7.83984 19.6055 7.83984H4.25391C3.46875 7.83984 3.23438 7.08984 3.70312 6.43359ZM11.9297 15.1406C10.4883 15.1406 9.32812 13.9805 9.32812 12.5273C9.32812 11.0977 10.4883 9.9375 11.9297 9.9375C13.3711 9.9375 14.5312 11.0977 14.5312 12.5273C14.5312 13.9805 13.3711 15.1406 11.9297 15.1406ZM2.33203 14.5664C2.13281 13.8398 2.54297 13.5117 3.15234 13.5938C6.50391 13.9805 9.10547 16.9219 8.98828 20.3672C8.98828 20.9648 8.53125 21.3633 7.91016 21.0586C5.13281 19.8164 3.10547 17.4492 2.33203 14.5664ZM21.5391 14.5664C20.7773 17.4492 18.7383 19.8164 15.9727 21.0586C15.3398 21.3633 14.8945 20.9648 14.8828 20.3672C14.7773 16.9336 17.3672 13.9805 20.7305 13.5938C21.3398 13.5117 21.7383 13.8398 21.5391 14.5664Z" fill="#007AFF"/>
<path d="M33.9844 11.3906L27.9609 7.81638C27.5039 7.54685 26.8945 7.7695 26.8945 8.26169V15.6445C26.8945 16.1484 27.4688 16.3828 27.9609 16.0898L33.9844 12.5391C34.4531 12.2695 34.4297 11.6484 33.9844 11.3906Z" fill="black" fill-opacity="0.85"/>
</svg>
