<svg width="31" height="24" viewBox="0 0 31 24" fill="none" xmlns="http://www.w3.org/2000/svg">
<path d="M29.1445 19.8164C29.9883 19.8164 30.6797 19.1367 30.6797 18.3398C30.6797 17.5312 30 16.8633 29.1445 16.8633C28.3008 16.8633 27.6094 17.5312 27.6094 18.3398C27.6094 19.1367 28.3125 19.8164 29.1445 19.8164ZM29.1445 14.6133C29.7188 14.6133 30.1289 14.2148 30.1523 13.6172L30.3984 5.32031C30.4219 4.57031 29.918 4.06641 29.1445 4.06641C28.3711 4.06641 27.8789 4.57031 27.9023 5.32031L28.1484 13.6172C28.1719 14.2148 28.5703 14.6133 29.1445 14.6133Z" fill="black" fill-opacity="0.85"/>
<path d="M11.9531 23.9062C18.4922 23.9062 23.9062 18.4805 23.9062 11.9531C23.9062 5.41406 18.4805 0 11.9414 0C5.41406 0 0 5.41406 0 11.9531C0 18.4805 5.42578 23.9062 11.9531 23.9062ZM3.71484 6.43359C5.4375 3.76172 8.47266 1.99219 11.9297 1.99219C15.3867 1.99219 18.4219 3.76172 20.1562 6.42188C20.6367 7.08984 20.4023 7.83984 19.6172 7.83984H4.25391C3.48047 7.83984 3.23438 7.08984 3.71484 6.43359ZM11.9414 15.1406C10.4883 15.1406 9.33984 13.9805 9.33984 12.5273C9.33984 11.0977 10.4883 9.9375 11.9414 9.9375C13.3828 9.9375 14.543 11.0977 14.543 12.5273C14.543 13.9805 13.3828 15.1406 11.9414 15.1406ZM2.34375 14.5664C2.13281 13.8398 2.54297 13.5117 3.15234 13.5938C6.50391 13.9805 9.10547 16.9219 9 20.3672C8.98828 20.9648 8.54297 21.3633 7.91016 21.0586C5.14453 19.8164 3.10547 17.4492 2.34375 14.5664ZM21.5391 14.5664C20.7773 17.4492 18.75 19.8164 15.9727 21.0586C15.3516 21.3633 14.8945 20.9648 14.8828 20.3672C14.7773 16.9336 17.3672 13.9805 20.7305 13.5938C21.3398 13.5117 21.75 13.8398 21.5391 14.5664Z" fill="#007AFF"/>
</svg>
