<svg width="24" height="24" viewBox="0 0 24 24" fill="none" xmlns="http://www.w3.org/2000/svg">
<path d="M11.9531 23.9062C18.4922 23.9062 23.9062 18.4805 23.9062 11.9531C23.9062 5.41406 18.4805 0 11.9414 0C5.41406 0 0 5.41406 0 11.9531C0 18.4805 5.42578 23.9062 11.9531 23.9062ZM11.9531 21.9141C6.42188 21.9141 2.00391 17.4844 2.00391 11.9531C2.00391 6.42188 6.41016 1.99219 11.9414 1.99219C17.4727 1.99219 21.9141 6.42188 21.9141 11.9531C21.9141 17.4844 17.4844 21.9141 11.9531 21.9141Z" fill="#007AFF"/>
<path d="M8.23828 17.2617H15.3516C15.7734 17.2617 16.0664 16.9922 16.0664 16.5703C16.0664 16.1602 15.7734 15.8906 15.3516 15.8906H10.2773C10.875 15.375 11.2852 14.4375 11.2852 13.4414C11.2852 13.0312 11.2383 12.668 11.1562 12.3281H14.0859C14.4609 12.3281 14.7305 12.082 14.7305 11.6953C14.7305 11.3203 14.4609 11.0742 14.0859 11.0742H10.8516C10.7461 10.6289 10.6523 10.1484 10.6523 9.58594C10.6523 8.32031 11.5547 7.45312 13.0898 7.45312C14.0977 7.45312 14.5664 7.72266 14.8945 7.72266C15.3281 7.72266 15.5273 7.47656 15.5273 7.10156C15.5273 6.78516 15.375 6.53906 14.9297 6.375C14.3906 6.16406 13.7344 6.07031 13.0078 6.07031C10.5938 6.07031 9.11719 7.47656 9.11719 9.67969C9.11719 10.1484 9.19922 10.6172 9.31641 11.0742H8.23828C7.86328 11.0742 7.58203 11.3203 7.58203 11.6953C7.58203 12.082 7.86328 12.3281 8.23828 12.3281H9.62109C9.72656 12.7266 9.79688 13.125 9.79688 13.5C9.79688 14.7422 9.03516 15.5625 8.15625 15.8086C7.72266 15.9492 7.54688 16.1719 7.54688 16.5703C7.54688 16.9805 7.81641 17.2617 8.23828 17.2617Z" fill="black" fill-opacity="0.85"/>
</svg>
