<svg width="22" height="22" viewBox="0 0 22 22" fill="none" xmlns="http://www.w3.org/2000/svg">
<path d="M3.67969 21.5977H17.8945C20.3555 21.5977 21.5742 20.3789 21.5742 17.9648V3.65625C21.5742 1.24219 20.3555 0.0234375 17.8945 0.0234375H3.67969C1.23047 0.0234375 0 1.23047 0 3.65625V17.9648C0 20.3906 1.23047 21.5977 3.67969 21.5977ZM3.70312 19.7109C2.53125 19.7109 1.88672 19.0898 1.88672 17.8711V3.75C1.88672 2.53125 2.53125 1.91016 3.70312 1.91016H17.8711C19.0312 1.91016 19.6875 2.53125 19.6875 3.75V17.8711C19.6875 19.0898 19.0312 19.7109 17.8711 19.7109H3.70312Z" fill="#007AFF"/>
<path d="M7.08984 16.1016H14.2148C14.625 16.1016 14.918 15.832 14.918 15.4102C14.918 15 14.625 14.7305 14.2148 14.7305H9.12891C9.72656 14.2148 10.1367 13.2773 10.1367 12.2812C10.1367 11.8711 10.0898 11.5078 10.0078 11.168H12.9375C13.3125 11.168 13.5938 10.9219 13.5938 10.5352C13.5938 10.1602 13.3125 9.91406 12.9375 9.91406H9.70312C9.59766 9.46875 9.50391 8.98828 9.50391 8.42578C9.50391 7.16016 10.4062 6.29297 11.9414 6.29297C12.9492 6.29297 13.4297 6.5625 13.7461 6.5625C14.1797 6.5625 14.3789 6.31641 14.3789 5.94141C14.3789 5.625 14.2266 5.37891 13.7812 5.21484C13.2422 5.00391 12.5977 4.91016 11.8594 4.91016C9.44531 4.91016 7.96875 6.31641 7.96875 8.51953C7.96875 8.98828 8.05078 9.45703 8.16797 9.91406H7.08984C6.71484 9.91406 6.44531 10.1602 6.44531 10.5352C6.44531 10.9219 6.71484 11.168 7.08984 11.168H8.47266C8.57812 11.5664 8.64844 11.9648 8.64844 12.3398C8.64844 13.582 7.88672 14.4023 7.00781 14.6484C6.58594 14.7891 6.39844 15.0117 6.39844 15.4102C6.39844 15.8203 6.67969 16.1016 7.08984 16.1016Z" fill="black" fill-opacity="0.85"/>
</svg>
