<svg width="24" height="24" viewBox="0 0 24 24" fill="none" xmlns="http://www.w3.org/2000/svg">
<path d="M11.9531 23.918C18.4922 23.918 23.9062 18.5039 23.9062 11.9648C23.9062 5.4375 18.4805 0.0117188 11.9414 0.0117188C5.41406 0.0117188 0 5.4375 0 11.9648C0 18.5039 5.42578 23.918 11.9531 23.918Z" fill="#FFCC00"/>
<path d="M4.13672 8.34375C4.13672 6.98438 4.85156 6.24609 6.16406 6.24609H6.22266C6.41016 6 6.71484 5.83594 7.05469 5.83594C7.62891 5.83594 8.10938 6.31641 8.10938 6.90234C8.10938 7.47656 7.62891 7.96875 7.05469 7.96875C6.71484 7.96875 6.42188 7.81641 6.23438 7.58203H6.11719C5.67188 7.58203 5.47266 7.80469 5.47266 8.34375C5.47266 10.3359 7.24219 13.0312 8.56641 13.0312C9.87891 13.0312 11.6602 10.3359 11.6602 8.34375C11.6602 7.81641 11.4492 7.58203 11.0039 7.58203H10.875C10.6875 7.81641 10.3945 7.96875 10.0781 7.96875C9.48047 7.96875 9.01172 7.47656 9.01172 6.90234C9.01172 6.31641 9.48047 5.83594 10.0781 5.83594C10.4062 5.83594 10.7109 6 10.8984 6.24609H10.957C12.293 6.24609 12.9961 6.98438 12.9961 8.34375C12.9961 10.8164 11.0391 13.793 9.22266 14.2852C9.30469 16.207 9.92578 17.2617 10.9336 17.2617C12.0938 17.2617 12.5859 16.3008 12.9961 13.9922C13.4766 11.4375 14.2852 10.3828 15.8086 10.3828C17.3203 10.3828 18.1289 11.5312 18.3867 13.9102C19.207 14.1562 19.8164 14.9297 19.8164 15.8203C19.8164 16.9336 18.9141 17.8359 17.7891 17.8359C16.6641 17.8359 15.7852 16.9453 15.7852 15.8203C15.7852 14.9648 16.3242 14.2383 17.0742 13.957C16.9453 12.3984 16.5234 11.707 15.8086 11.707C15.0586 11.707 14.6367 12.3984 14.3086 14.2617C13.8047 17.25 12.7852 18.5977 10.9805 18.5977C9.10547 18.5977 8.01562 17.0273 7.89844 14.2852C6.08203 13.7812 4.13672 10.793 4.13672 8.34375ZM16.9922 15.8203C16.9922 16.2656 17.3438 16.6406 17.7891 16.6406C18.2344 16.6406 18.6094 16.2656 18.6094 15.8203C18.6094 15.375 18.2461 15.0117 17.7891 15.0117C17.3438 15.0117 16.9922 15.375 16.9922 15.8203Z" fill="black" fill-opacity="0.85"/>
</svg>
