<svg width="24" height="24" viewBox="0 0 24 24" fill="none" xmlns="http://www.w3.org/2000/svg">
<path d="M11.9531 23.9062C18.4922 23.9062 23.9062 18.4805 23.9062 11.9531C23.9062 5.41406 18.4805 0 11.9414 0C5.41406 0 0 5.41406 0 11.9531C0 18.4805 5.42578 23.9062 11.9531 23.9062ZM11.9531 21.9141C6.42188 21.9141 2.00391 17.4844 2.00391 11.9531C2.00391 6.42188 6.41016 1.99219 11.9414 1.99219C17.4727 1.99219 21.9141 6.42188 21.9141 11.9531C21.9141 17.4844 17.4844 21.9141 11.9531 21.9141Z" fill="#007AFF"/>
<path d="M4.37109 8.44922C4.37109 11.0625 6.64453 14.2852 8.54297 14.2852H8.78906C10.6875 14.2852 12.9609 11.0625 12.9609 8.44922C12.9609 7.125 12.2812 6.41016 10.9922 6.41016H10.2188V7.6875H11.0391C11.4727 7.6875 11.6719 7.93359 11.6719 8.44922C11.6719 10.3828 9.94922 12.9961 8.67188 12.9961C7.38281 12.9961 5.66016 10.3828 5.66016 8.44922C5.66016 7.92188 5.85938 7.6875 6.29297 7.6875H7.11328V6.41016H6.33984C5.0625 6.41016 4.37109 7.125 4.37109 8.44922ZM11.0156 18.3984C12.7617 18.3984 13.7461 17.0859 14.2383 14.1914C14.5547 12.375 14.9648 11.707 15.6914 11.707C16.4883 11.707 16.8867 12.5742 16.9453 14.5781H18.2344C18.1055 11.7656 17.2969 10.4297 15.6914 10.4297C14.2148 10.4297 13.4297 11.4492 12.9727 13.9219C12.5742 16.1719 12.0938 17.1094 10.9688 17.1094C9.86719 17.1094 9.24609 15.8203 9.29297 13.5234H8.01562C7.95703 16.6055 9.04688 18.3984 11.0156 18.3984ZM7.19531 8.07422C7.75781 8.07422 8.21484 7.60547 8.21484 7.04297C8.21484 6.46875 7.75781 6.01172 7.19531 6.01172C6.63281 6.01172 6.15234 6.48047 6.15234 7.04297C6.15234 7.60547 6.62109 8.07422 7.19531 8.07422ZM10.1367 8.07422C10.6875 8.07422 11.1562 7.60547 11.1562 7.04297C11.1562 6.48047 10.6875 6.01172 10.1367 6.01172C9.5625 6.01172 9.10547 6.46875 9.10547 7.04297C9.10547 7.60547 9.5625 8.07422 10.1367 8.07422ZM17.6133 17.6602C18.7031 17.6602 19.582 16.7812 19.582 15.7031C19.582 14.625 18.6914 13.7578 17.6133 13.7578C16.5352 13.7461 15.668 14.625 15.668 15.7031C15.668 16.793 16.5234 17.6602 17.6133 17.6602ZM17.6133 16.5C17.1797 16.5 16.8398 16.1367 16.8398 15.7031C16.8398 15.2578 17.1797 14.918 17.6133 14.918C18.0586 14.918 18.4102 15.2578 18.4102 15.7031C18.4102 16.1367 18.0469 16.5 17.6133 16.5Z" fill="black" fill-opacity="0.85"/>
</svg>
