<svg width="24" height="29" viewBox="0 0 24 29" fill="none" xmlns="http://www.w3.org/2000/svg">
<path d="M11.9531 26.2734C18.4922 26.2734 23.9062 20.8477 23.9062 14.3203C23.9062 7.78125 18.4805 2.36719 11.9414 2.36719C5.41406 2.36719 0 7.78125 0 14.3203C0 20.8477 5.42578 26.2734 11.9531 26.2734ZM11.9531 16.2188C10.8984 16.2188 10.0664 15.375 10.0664 14.332C10.0664 13.5938 10.4883 12.9609 11.1328 12.6211V6.80859C11.1328 6.35156 11.4844 6 11.9414 6C12.3984 6 12.7617 6.35156 12.7617 6.80859V12.6328C13.418 12.9492 13.8398 13.5938 13.8398 14.332C13.8398 15.375 12.9961 16.2188 11.9531 16.2188ZM10.6875 3H13.1953V1.28906C13.1953 0.585938 12.6445 0 11.9414 0C11.2617 0 10.6875 0.585938 10.6875 1.28906V3ZM19.2539 5.625L20.9766 7.42969L22.2891 6.10547C22.5586 5.83594 22.7109 5.47266 22.7109 5.15625C22.7109 4.5 22.1836 3.97266 21.5039 3.97266C21.1055 3.97266 20.8242 4.08984 20.543 4.35938L19.2539 5.625Z" fill="black" fill-opacity="0.85"/>
</svg>
