<svg width="20" height="20" viewBox="0 0 20 20" fill="none" xmlns="http://www.w3.org/2000/svg">
<path d="M0 16.5117C0 18.1406 0.984375 19.1016 2.625 19.1016H16.4648C18.1172 19.1016 19.0898 18.1406 19.0898 16.5117V2.58984C19.0898 0.960938 18.1172 0 16.4648 0H2.625C0.984375 0 0 0.960938 0 2.58984V16.5117ZM1.88672 16.0664V3.03516C1.88672 2.32031 2.30859 1.88672 3.01172 1.88672H16.0781C16.793 1.88672 17.2031 2.32031 17.2031 3.03516V16.0664C17.2031 16.7812 16.793 17.2148 16.0781 17.2148H3.01172C2.30859 17.2148 1.88672 16.7812 1.88672 16.0664Z" fill="black" fill-opacity="0.85"/>
</svg>
