<svg width="24" height="24" viewBox="0 0 24 24" fill="none" xmlns="http://www.w3.org/2000/svg">
<path d="M2.75391 20.8945H20.2383C21.9023 20.8945 23.0039 19.793 23.0039 18.1406V2.75391C23.0039 1.10156 21.9023 0 20.2383 0H2.75391C1.10156 0 0 1.10156 0 2.75391V18.1406C0 19.793 1.10156 20.8945 2.75391 20.8945ZM2.77734 19.0078C2.23828 19.0078 1.88672 18.6328 1.88672 18.0586V2.83594C1.88672 2.27344 2.23828 1.88672 2.77734 1.88672H20.2266C20.7539 1.88672 21.1172 2.27344 21.1172 2.83594V18.0586C21.1172 18.6328 20.7539 19.0078 20.2266 19.0078H2.77734ZM5.41406 5.16797C6.04688 5.16797 6.57422 4.65234 6.57422 4.01953C6.57422 3.375 6.04688 2.85938 5.41406 2.85938C4.76953 2.85938 4.24219 3.375 4.24219 4.01953C4.24219 4.65234 4.76953 5.16797 5.41406 5.16797ZM9.46875 5.16797C10.1016 5.16797 10.6289 4.65234 10.6289 4.01953C10.6289 3.375 10.1016 2.85938 9.46875 2.85938C8.82422 2.85938 8.29688 3.375 8.29688 4.01953C8.29688 4.65234 8.82422 5.16797 9.46875 5.16797ZM13.5234 5.16797C14.1562 5.16797 14.6836 4.65234 14.6836 4.01953C14.6836 3.375 14.1562 2.85938 13.5234 2.85938C12.8789 2.85938 12.3516 3.375 12.3516 4.01953C12.3516 4.65234 12.8789 5.16797 13.5234 5.16797ZM17.5781 5.16797C18.2227 5.16797 18.75 4.65234 18.75 4.01953C18.75 3.375 18.2227 2.85938 17.5781 2.85938C16.9453 2.85938 16.418 3.375 16.418 4.01953C16.418 4.65234 16.9453 5.16797 17.5781 5.16797ZM1.13672 7.69922H21.8789V6.16406H1.13672V7.69922ZM4.58203 17.625H18.4219C19.0898 17.625 19.5234 17.1914 19.5234 16.5352V10.1836C19.5234 9.51562 19.0898 9.08203 18.4219 9.08203H4.58203C3.91406 9.08203 3.49219 9.51562 3.49219 10.1836V16.5352C3.49219 17.1914 3.91406 17.625 4.58203 17.625ZM5.09766 16.3242C4.92188 16.3242 4.79297 16.1953 4.79297 16.0195V10.6992C4.79297 10.5234 4.92188 10.3828 5.09766 10.3828H17.918C18.082 10.3828 18.2227 10.5234 18.2227 10.6992V16.0195C18.2227 16.1953 18.082 16.3242 17.918 16.3242H5.09766ZM3.35156 23.0039C3.91406 23.0039 4.28906 22.6289 4.28906 22.0664V19.7227H2.40234V22.0664C2.40234 22.6289 2.78906 23.0039 3.35156 23.0039ZM19.6523 23.0039C20.2148 23.0039 20.5898 22.6289 20.5898 22.0664V19.7227H18.7031V22.0664C18.7031 22.6289 19.0898 23.0039 19.6523 23.0039Z" fill="black" fill-opacity="0.85"/>
</svg>
