<svg width="26" height="26" viewBox="0 0 26 26" fill="none" xmlns="http://www.w3.org/2000/svg">
<path d="M13.3828 7.92188H24.1172C23.6836 4.16016 20.4375 0.0585938 14.8945 0.0585938C14.0039 0.0585938 13.3828 0.703125 13.3828 1.64062V7.92188ZM10.3945 16.8633H17.8711C22.6758 16.8633 23.9766 13.8281 24.1523 10.9805H24.4102C24.8672 10.9805 25.2305 10.6055 25.2305 10.1484C25.2305 9.69141 24.8672 9.32812 24.4102 9.32812H3.83203C3.375 9.32812 3.01172 9.69141 3.01172 10.1484C3.01172 10.6055 3.375 10.9805 3.83203 10.9805H4.11328L4.61719 12.9609C5.22656 15.3516 7.08984 16.8633 10.3945 16.8633ZM8.09766 10.2188H10.582L4.35938 3.99609C4.08984 3.72656 3.79688 3.60938 3.42188 3.60938H0.878906C0.398438 3.60938 0 4.00781 0 4.48828C0 4.96875 0.398438 5.37891 0.878906 5.37891H3.25781L8.09766 10.2188ZM7.96875 19.7695L9.19922 21.0469L13.7109 16.5352L12.4453 15.293L7.96875 19.7695ZM19.0664 21.1992L20.3438 19.9688L15.8789 15.5156L14.4727 16.6055L19.0664 21.1992ZM9.53906 22.9336H18.6445V21.3984H9.53906V22.9336ZM6.91406 25.5117C8.77734 25.5117 10.2422 24.0469 10.2422 22.1719C10.2422 20.3086 8.77734 18.8438 6.91406 18.8438C5.03906 18.8438 3.58594 20.3086 3.58594 22.1719C3.58594 24.0469 5.03906 25.5117 6.91406 25.5117ZM6.91406 23.9766C5.91797 23.9766 5.12109 23.1797 5.12109 22.1719C5.12109 21.1641 5.91797 20.3789 6.91406 20.3789C7.92188 20.3789 8.70703 21.1641 8.70703 22.1719C8.70703 23.1797 7.92188 23.9766 6.91406 23.9766ZM21.1875 25.2773C22.8984 25.2773 24.2812 23.8945 24.2812 22.1719C24.2812 20.4609 22.8984 19.0781 21.1875 19.0781C19.4648 19.0781 18.082 20.4609 18.082 22.1719C18.082 23.8945 19.4766 25.2773 21.1875 25.2773ZM21.1875 23.9766C20.1914 23.9766 19.3828 23.1797 19.3828 22.1719C19.3828 21.1641 20.1914 20.3789 21.1875 20.3789C22.1953 20.3789 22.9805 21.1641 22.9805 22.1719C22.9805 23.1797 22.1953 23.9766 21.1875 23.9766Z" fill="black" fill-opacity="0.85"/>
</svg>
