<svg width="23" height="27" viewBox="0 0 23 27" fill="none" xmlns="http://www.w3.org/2000/svg">
<path d="M3.98438 25.9453C4.53516 25.9453 4.75781 25.6406 4.88672 25.1367L5.87109 21.4102H16.7344L17.7188 25.1367C17.8594 25.6406 18.1172 25.9453 18.6211 25.9453C19.2305 25.9453 19.5352 25.5938 19.5352 25.0781C19.5352 24.9609 19.5234 24.8438 19.4883 24.7148L17.6133 17.6953H18.293C19.0547 17.6953 19.6289 17.2148 19.6289 16.5469C19.6289 15.8203 19.1133 15.3516 18.3516 15.3516H4.96875C4.08984 15.3516 3.58594 14.8945 3.58594 14.0508V10.8398H5.39062V11.707C5.39062 13.043 6.04688 13.6641 7.41797 13.6641H15.2695C16.6289 13.6641 17.2852 13.043 17.2852 11.707V10.8398H21.5039C22.1367 10.8398 22.5352 10.4883 22.5352 9.9375C22.5352 9.375 22.1484 9.02344 21.5508 9.02344H0.925781C0.363281 9.02344 0 9.38672 0 9.9375C0 10.4883 0.386719 10.8398 0.984375 10.8398H1.76953V15.2344C1.76953 16.7812 2.71875 17.6953 4.26562 17.6953H4.99219L3.12891 24.7148C3.09375 24.832 3.07031 24.9375 3.07031 25.0898C3.07031 25.5703 3.33984 25.9453 3.98438 25.9453ZM6.36328 19.582L6.85547 17.6953H15.75L16.2422 19.582H6.36328ZM7.37109 7.27734H15.3164C16.6875 7.27734 17.3555 6.64453 17.3555 5.29688V1.98047C17.3555 0.632812 16.6875 0 15.3164 0H7.37109C5.98828 0 5.33203 0.632812 5.33203 1.98047V5.29688C5.33203 6.64453 5.98828 7.27734 7.37109 7.27734Z" fill="black" fill-opacity="0.85"/>
</svg>
