<svg width="19" height="32" viewBox="0 0 19 32" fill="none" xmlns="http://www.w3.org/2000/svg">
<path d="M3.45703 29.6133H15.1289C17.1562 29.6133 18.5859 28.1836 18.5859 26.1562V9.89062C18.5859 7.85156 17.1562 6.43359 15.1289 6.43359H3.45703C1.42969 6.43359 0 7.85156 0 9.89062V26.1562C0 28.1836 1.42969 29.6133 3.45703 29.6133ZM3.48047 27.7266C2.53125 27.7266 1.88672 27.0469 1.88672 26.0625V9.97266C1.88672 8.98828 2.53125 8.32031 3.48047 8.32031H15.1055C16.0547 8.32031 16.6992 8.98828 16.6992 9.97266V26.0625C16.6992 27.0469 16.0547 27.7266 15.1055 27.7266H3.48047ZM0.878906 24.832H17.7422V22.9453H0.878906V24.832ZM4.07812 7.78125H5.89453V2.63672C5.89453 2.07422 6.30469 1.71094 6.91406 1.71094H11.7891C12.3281 1.71094 12.6914 2.07422 12.6914 2.63672V7.75781H14.5078V2.66016C14.5078 1.03125 13.4883 0 11.8711 0H6.83203C5.14453 0 4.07812 1.03125 4.07812 2.66016V7.78125ZM3.92578 31.3242H4.65234C5.28516 31.3242 5.69531 30.9141 5.69531 30.293V28.5117H2.88281V30.293C2.88281 30.9141 3.29297 31.3242 3.92578 31.3242ZM13.9336 31.3242H14.6602C15.2812 31.3242 15.7031 30.9141 15.7031 30.293V28.5117H12.8906V30.293C12.8906 30.9141 13.3008 31.3242 13.9336 31.3242Z" fill="black" fill-opacity="0.85"/>
</svg>
