<svg width="28" height="30" viewBox="0 0 28 30" fill="none" xmlns="http://www.w3.org/2000/svg">
<path d="M19.875 14.2617C19.875 10.8047 16.9922 7.91016 13.5234 7.91016C10.0547 7.91016 7.17188 10.8047 7.17188 14.2617C7.17188 15.1055 7.35938 15.9141 7.66406 16.6289H19.3711C19.6875 15.9141 19.875 15.1055 19.875 14.2617ZM1.04297 14.9297H3.92578C4.53516 14.9297 4.99219 14.5078 4.98047 13.9805C4.96875 13.4648 4.53516 13.0312 3.92578 13.0312H1.04297C0.433594 13.0312 0 13.4531 0 13.9805C0 14.5078 0.433594 14.9297 1.04297 14.9297ZM7.47656 8.23828C7.83984 7.86328 7.83984 7.25391 7.40625 6.82031L5.36719 4.78125C4.93359 4.34766 4.33594 4.35938 3.96094 4.72266C3.58594 5.08594 3.58594 5.69531 4.01953 6.12891L6.05859 8.16797C6.49219 8.60156 7.11328 8.61328 7.47656 8.23828ZM13.5234 5.74219C14.0508 5.73047 14.4727 5.28516 14.4727 4.6875V1.80469C14.4727 1.19531 14.0508 0.761719 13.5234 0.761719C12.9961 0.761719 12.5742 1.19531 12.5742 1.80469V4.6875C12.5742 5.28516 12.9961 5.75391 13.5234 5.74219ZM19.5703 8.23828C19.9336 8.60156 20.5547 8.60156 20.9883 8.16797L23.0273 6.12891C23.4609 5.69531 23.4492 5.09766 23.0742 4.72266C22.7227 4.34766 22.1133 4.34766 21.668 4.78125L19.6289 6.82031C19.207 7.25391 19.1953 7.875 19.5703 8.23828ZM23.1211 14.9297H26.0039C26.6133 14.9414 27.0469 14.5078 27.0469 13.9805C27.0469 13.4648 26.6133 13.0312 26.0039 13.0312H23.1211C22.5117 13.0312 22.0547 13.4531 22.0664 13.9805C22.0781 14.5078 22.5117 14.9297 23.1211 14.9297Z" fill="#007AFF"/>
<path d="M1.59375 19.4766H25.3945C25.8164 19.4766 26.1328 19.1602 26.1328 18.7383C26.1328 18.3164 25.8164 18 25.3945 18H1.59375C1.18359 18 0.855469 18.3164 0.855469 18.7383C0.855469 19.1602 1.18359 19.4766 1.59375 19.4766ZM7.03125 25.3359C7.25391 25.3359 7.39453 25.1367 7.38281 24.9141L7.3125 23.8008L8.23828 24.4336C8.41406 24.5508 8.67188 24.5039 8.78906 24.3281C8.89453 24.1523 8.83594 23.8711 8.60156 23.7773L7.60547 23.2852L8.61328 22.7812C8.83594 22.6758 8.88281 22.418 8.80078 22.2422C8.69531 22.0547 8.41406 22.0195 8.23828 22.1367L7.3125 22.7812L7.39453 21.6562C7.41797 21.4219 7.25391 21.2344 7.03125 21.2344C6.78516 21.2344 6.64453 21.4219 6.65625 21.6562L6.72656 22.7812L5.78906 22.1367C5.61328 22.0195 5.36719 22.043 5.25 22.2422C5.14453 22.418 5.19141 22.6641 5.41406 22.7812L6.43359 23.2852L5.41406 23.7773C5.19141 23.8828 5.13281 24.1406 5.23828 24.3281C5.34375 24.5156 5.61328 24.5508 5.78906 24.4336L6.72656 23.8008L6.66797 24.9141C6.65625 25.1367 6.78516 25.3359 7.03125 25.3359ZM13.5234 25.3359C13.7344 25.3359 13.8867 25.1367 13.875 24.9141L13.8047 23.8008L14.7305 24.4336C14.9062 24.5508 15.1641 24.5039 15.2812 24.3281C15.3867 24.1523 15.3281 23.8711 15.0938 23.7773L14.0977 23.2852L15.1055 22.7812C15.3281 22.6758 15.375 22.418 15.293 22.2422C15.1875 22.0547 14.9062 22.0195 14.7305 22.1367L13.8047 22.7812L13.8867 21.6562C13.9102 21.4219 13.7344 21.2344 13.5234 21.2344C13.2773 21.2344 13.1367 21.4219 13.1484 21.6562L13.2188 22.7812L12.2812 22.1367C12.1055 22.0195 11.8594 22.043 11.7422 22.2422C11.6367 22.418 11.6836 22.6641 11.9062 22.7812L12.9141 23.2852L11.9062 23.7773C11.6836 23.8828 11.625 24.1406 11.7305 24.3281C11.8359 24.5156 12.1055 24.5508 12.2812 24.4336L13.2188 23.8008L13.1602 24.9141C13.1484 25.1367 13.2773 25.3359 13.5234 25.3359ZM20.0156 25.3359C20.2266 25.3359 20.3789 25.1367 20.3672 24.9141L20.2969 23.8008L21.2227 24.4336C21.3867 24.5508 21.6562 24.5039 21.7734 24.3281C21.8789 24.1523 21.8203 23.8711 21.5859 23.7773L20.5781 23.2852L21.5977 22.7812C21.8203 22.6758 21.8672 22.418 21.7852 22.2422C21.6797 22.0547 21.3867 22.0195 21.2227 22.1367L20.2969 22.7812L20.3789 21.6562C20.4023 21.4219 20.2266 21.2344 20.0156 21.2344C19.7695 21.2344 19.6289 21.4219 19.6406 21.6562L19.7109 22.7812L18.7617 22.1367C18.5977 22.0195 18.3516 22.043 18.2344 22.2422C18.1289 22.418 18.1758 22.6641 18.3984 22.7812L19.4062 23.2852L18.3984 23.7773C18.1758 23.8828 18.1172 24.1406 18.2227 24.3281C18.3281 24.5156 18.5977 24.5508 18.7617 24.4336L19.7109 23.8008L19.6523 24.9141C19.6406 25.1367 19.7695 25.3359 20.0156 25.3359ZM4.48828 29.7305C4.71094 29.7305 4.85156 29.5312 4.83984 29.3086L4.76953 28.1953L5.69531 28.8281C5.87109 28.9453 6.12891 28.8984 6.24609 28.7227C6.35156 28.5469 6.29297 28.2773 6.05859 28.1719L5.0625 27.6797L6.07031 27.1758C6.29297 27.0703 6.33984 26.8125 6.25781 26.6367C6.15234 26.4492 5.87109 26.4141 5.69531 26.5312L4.76953 27.1758L4.85156 26.0508C4.875 25.8164 4.71094 25.6289 4.48828 25.6289C4.24219 25.6289 4.10156 25.8164 4.11328 26.0508L4.18359 27.1758L3.24609 26.5312C3.07031 26.4141 2.82422 26.4375 2.70703 26.6367C2.60156 26.8125 2.64844 27.0586 2.87109 27.1758L3.89062 27.6797L2.87109 28.1719C2.64844 28.2773 2.58984 28.5352 2.69531 28.7227C2.80078 28.9102 3.07031 28.9453 3.24609 28.8281L4.18359 28.1953L4.125 29.3086C4.11328 29.5312 4.24219 29.7305 4.48828 29.7305ZM10.9805 29.7305C11.1914 29.7305 11.3438 29.5312 11.332 29.3086L11.2617 28.1953L12.1875 28.8281C12.3633 28.9453 12.6211 28.8984 12.7383 28.7227C12.8438 28.5469 12.7852 28.2773 12.5508 28.1719L11.5547 27.6797L12.5625 27.1758C12.7852 27.0703 12.832 26.8125 12.75 26.6367C12.6445 26.4492 12.3633 26.4141 12.1875 26.5312L11.2617 27.1758L11.3438 26.0508C11.3672 25.8164 11.1914 25.6289 10.9805 25.6289C10.7344 25.6289 10.5938 25.8164 10.6055 26.0508L10.6758 27.1758L9.73828 26.5312C9.5625 26.4141 9.31641 26.4375 9.19922 26.6367C9.09375 26.8125 9.14062 27.0586 9.36328 27.1758L10.3711 27.6797L9.36328 28.1719C9.14062 28.2773 9.08203 28.5352 9.1875 28.7227C9.29297 28.9102 9.5625 28.9453 9.73828 28.8281L10.6758 28.1953L10.6172 29.3086C10.6055 29.5312 10.7344 29.7305 10.9805 29.7305ZM17.4727 29.7305C17.6836 29.7305 17.8359 29.5312 17.8242 29.3086L17.7539 28.1953L18.6797 28.8281C18.8438 28.9453 19.1133 28.8984 19.2305 28.7227C19.3359 28.5469 19.2773 28.2773 19.043 28.1719L18.0469 27.6797L19.0547 27.1758C19.2773 27.0703 19.3242 26.8125 19.2422 26.6367C19.1367 26.4492 18.8438 26.4141 18.6797 26.5312L17.7539 27.1758L17.8359 26.0508C17.8594 25.8164 17.6836 25.6289 17.4727 25.6289C17.2266 25.6289 17.0859 25.8164 17.0977 26.0508L17.168 27.1758L16.2305 26.5312C16.0547 26.4141 15.8086 26.4375 15.6914 26.6367C15.5859 26.8125 15.6328 27.0586 15.8555 27.1758L16.8633 27.6797L15.8555 28.1719C15.6328 28.2773 15.5742 28.5352 15.6797 28.7227C15.7852 28.9102 16.0547 28.9453 16.2305 28.8281L17.168 28.1953L17.1094 29.3086C17.0977 29.5312 17.2266 29.7305 17.4727 29.7305Z" fill="black" fill-opacity="0.85"/>
</svg>
