<svg width="31" height="21" viewBox="0 0 31 21" fill="none" xmlns="http://www.w3.org/2000/svg">
<path d="M10.1367 17.625H13.2188C11.625 16.957 10.4883 15.3633 10.4883 13.5234C10.4883 11.0391 12.5391 8.98828 15.0234 8.98828C17.4961 8.98828 19.5469 11.0391 19.5469 13.5234C19.5469 15.3633 18.4102 16.957 16.8164 17.625H19.8984C20.8477 16.5117 21.4219 15.082 21.4219 13.5234C21.4219 10.0078 18.5156 7.10156 15.0234 7.10156C11.5195 7.10156 8.61328 10.0078 8.61328 13.5234C8.61328 15.082 9.1875 16.5117 10.1367 17.625ZM2.54297 14.168H5.42578C6.03516 14.168 6.49219 13.7461 6.48047 13.2188C6.46875 12.6914 6.02344 12.2695 5.42578 12.2695H2.54297C1.93359 12.2695 1.5 12.6914 1.5 13.2188C1.5 13.7461 1.93359 14.168 2.54297 14.168ZM8.97656 7.47656C9.33984 7.10156 9.33984 6.48047 8.90625 6.05859L6.86719 4.01953C6.43359 3.57422 5.83594 3.59766 5.46094 3.96094C5.08594 4.32422 5.07422 4.93359 5.51953 5.36719L7.55859 7.40625C7.98047 7.83984 8.61328 7.85156 8.97656 7.47656ZM21.0586 7.47656C21.4336 7.83984 22.0547 7.83984 22.4766 7.40625L24.5156 5.36719C24.9609 4.93359 24.9375 4.33594 24.5742 3.96094C24.2109 3.58594 23.6016 3.57422 23.168 4.01953L21.1289 6.05859C20.6953 6.48047 20.6836 7.11328 21.0586 7.47656ZM24.6094 14.168H27.4922C28.1016 14.168 28.5352 13.7461 28.5352 13.2188C28.5352 12.6914 28.1016 12.2695 27.4922 12.2695H24.6094C24.0117 12.2695 23.543 12.6914 23.5547 13.2188C23.5664 13.7461 24.0117 14.168 24.6094 14.168ZM15.0234 4.98047C15.5391 4.96875 15.9727 4.52344 15.9727 3.92578V1.04297C15.9727 0.433594 15.5391 0 15.0234 0C14.4961 0 14.0625 0.433594 14.0625 1.04297V3.92578C14.0625 4.52344 14.4961 4.99219 15.0234 4.98047Z" fill="#007AFF"/>
<path d="M1.01953 19.1133H29.0156C29.5664 19.1133 30.0352 18.6914 30.0352 18.1758C30.0352 17.6602 29.5664 17.2383 29.0156 17.2383H1.01953C0.46875 17.2383 0 17.6602 0 18.1758C0 18.6914 0.46875 19.1133 1.01953 19.1133Z" fill="black" fill-opacity="0.85"/>
</svg>
