<svg width="26" height="26" viewBox="0 0 26 26" fill="none" xmlns="http://www.w3.org/2000/svg">
<path d="M12.6797 4.55859C13.2305 4.55859 13.6875 4.10156 13.6875 3.53906V1.01953C13.6875 0.457031 13.2305 0 12.6797 0C12.1172 0 11.6602 0.457031 11.6602 1.01953V3.53906C11.6602 4.10156 12.1172 4.55859 12.6797 4.55859ZM18.4219 6.96094C18.8203 7.34766 19.4648 7.35938 19.8633 6.96094L21.6562 5.16797C22.043 4.78125 22.043 4.125 21.6562 3.72656C21.2695 3.33984 20.625 3.33984 20.2266 3.72656L18.4219 5.53125C18.0352 5.92969 18.0352 6.57422 18.4219 6.96094ZM20.8008 12.7148C20.8008 13.2656 21.2695 13.7227 21.8203 13.7227H24.3398C24.8906 13.7227 25.3477 13.2656 25.3477 12.7148C25.3477 12.1641 24.8906 11.6953 24.3398 11.6953H21.8203C21.2695 11.6953 20.8008 12.1641 20.8008 12.7148ZM18.4219 18.4688C18.0352 18.8672 18.0352 19.5117 18.4219 19.8984L20.2266 21.7148C20.625 22.0898 21.2695 22.0781 21.6562 21.7031C22.043 21.3047 22.043 20.6602 21.6562 20.2734L19.8516 18.4688C19.4648 18.0938 18.8203 18.0938 18.4219 18.4688ZM12.6797 20.8711C12.1172 20.8711 11.6602 21.3281 11.6602 21.8789V24.4102C11.6602 24.9609 12.1172 25.418 12.6797 25.418C13.2305 25.418 13.6875 24.9609 13.6875 24.4102V21.8789C13.6875 21.3281 13.2305 20.8711 12.6797 20.8711ZM6.92578 18.4688C6.52734 18.0938 5.87109 18.0938 5.48438 18.4688L3.69141 20.2617C3.30469 20.6484 3.30469 21.293 3.67969 21.6914C4.06641 22.0664 4.72266 22.0781 5.12109 21.7031L6.91406 19.8984C7.30078 19.5117 7.30078 18.8672 6.92578 18.4688ZM4.54688 12.7148C4.54688 12.1641 4.07812 11.6953 3.52734 11.6953H1.00781C0.457031 11.6953 0 12.1641 0 12.7148C0 13.2656 0.457031 13.7227 1.00781 13.7227H3.52734C4.07812 13.7227 4.54688 13.2656 4.54688 12.7148ZM6.91406 6.96094C7.30078 6.58594 7.30078 5.91797 6.92578 5.53125L5.13281 3.72656C4.74609 3.35156 4.08984 3.33984 3.70312 3.72656C3.31641 4.125 3.31641 4.78125 3.69141 5.15625L5.48438 6.96094C5.87109 7.34766 6.51562 7.34766 6.91406 6.96094Z" fill="black" fill-opacity="0.85"/>
<path d="M12.668 18.6914C15.9258 18.6914 18.6328 15.9844 18.6328 12.7148C18.6328 9.43359 15.9258 6.72656 12.668 6.72656C9.41017 6.72656 6.70312 9.43359 6.70312 12.7148C6.70312 15.9844 9.41017 18.6914 12.668 18.6914Z" fill="black" fill-opacity="0.85"/>
</svg>
