<svg width="24" height="24" viewBox="0 0 24 24" fill="none" xmlns="http://www.w3.org/2000/svg">
<path d="M11.9531 23.918C18.4922 23.918 23.9062 18.5039 23.9062 11.9648C23.9062 5.4375 18.4805 0.0117188 11.9414 0.0117188C5.41406 0.0117188 0 5.4375 0 11.9648C0 18.5039 5.42578 23.918 11.9531 23.918Z" fill="#FFCC00"/>
<path d="M15.5391 11.25C15.5391 11.625 15.457 12.0117 15.3398 12.3633H8.54297C8.42578 12.0117 8.34375 11.625 8.34375 11.25C8.34375 9.26953 9.98438 7.64062 11.9414 7.64062C13.9102 7.64062 15.5391 9.26953 15.5391 11.25ZM5.19141 11.7656C4.78125 11.7656 4.46484 11.4609 4.46484 11.0977C4.46484 10.7344 4.78125 10.418 5.19141 10.418H6.73828C7.16016 10.418 7.5 10.7227 7.5 11.0977C7.5 11.4727 7.17188 11.7656 6.73828 11.7656H5.19141ZM7.80469 8.05078L6.70312 6.94922C6.39844 6.64453 6.39844 6.24609 6.64453 5.96484C6.91406 5.71875 7.32422 5.68359 7.62891 5.98828L8.75391 7.10156C9.04688 7.39453 9.07031 7.83984 8.78906 8.09766C8.51953 8.36719 8.09766 8.34375 7.80469 8.05078ZM12.6211 5.67188C12.6211 6.07031 12.3164 6.41016 11.9414 6.41016C11.5664 6.41016 11.2734 6.08203 11.2734 5.67188V4.11328C11.2734 3.69141 11.5781 3.38672 11.9414 3.38672C12.3047 3.38672 12.6211 3.69141 12.6211 4.11328V5.67188ZM15.1055 8.09766C14.8242 7.83984 14.8242 7.40625 15.1289 7.10156L16.2539 5.98828C16.5352 5.69531 16.9805 5.69531 17.25 5.96484C17.4961 6.24609 17.4844 6.64453 17.1797 6.94922L16.0898 8.05078C15.7969 8.35547 15.375 8.35547 15.1055 8.09766ZM17.1445 11.7656C16.7227 11.7656 16.3945 11.4727 16.3945 11.0977C16.3945 10.7227 16.7227 10.418 17.1445 10.418H18.7031C19.1133 10.418 19.418 10.7227 19.418 11.0977C19.418 11.4609 19.1133 11.7656 18.7031 11.7656H17.1445ZM5.17969 14.5664C4.81641 14.5664 4.46484 14.2734 4.46484 13.8867C4.46484 13.5117 4.80469 13.2305 5.17969 13.2305H18.7148C19.0898 13.2305 19.418 13.5117 19.418 13.8867C19.418 14.2734 19.0781 14.5664 18.7148 14.5664H5.17969ZM7.89844 17.9883C7.74609 18.2578 7.40625 18.3516 7.14844 18.2109C6.87891 18.0469 6.78516 17.707 6.94922 17.4375L7.80469 15.9609C7.95703 15.7031 8.28516 15.6094 8.54297 15.75C8.82422 15.9141 8.90625 16.2539 8.76562 16.5117L7.89844 17.9883ZM9.60938 19.8633C9.45703 20.1211 9.12891 20.2148 8.85938 20.0625C8.58984 19.9102 8.49609 19.5703 8.64844 19.3008L10.5938 15.9609C10.7461 15.6914 11.0859 15.6094 11.332 15.75C11.6133 15.9141 11.6953 16.2422 11.543 16.5117L9.60938 19.8633ZM13.4648 17.9883C13.3125 18.2578 12.9844 18.3516 12.7148 18.2109C12.4453 18.0469 12.3516 17.707 12.5156 17.4375L13.3711 15.9609C13.5234 15.7031 13.8516 15.6094 14.1211 15.75C14.3906 15.9141 14.4844 16.2539 14.3203 16.5117L13.4648 17.9883ZM15.1758 19.8633C15.0117 20.1211 14.6836 20.2148 14.4375 20.0625C14.1562 19.9102 14.0742 19.5703 14.2148 19.3008L16.1602 15.9609C16.3125 15.6914 16.6406 15.6094 16.8984 15.75C17.1797 15.9141 17.2617 16.2422 17.1211 16.5117L15.1758 19.8633Z" fill="black" fill-opacity="0.85"/>
</svg>
