<svg width="28" height="29" viewBox="0 0 28 29" fill="none" xmlns="http://www.w3.org/2000/svg">
<path d="M19.875 13.5C19.875 10.043 16.9922 7.14844 13.5234 7.14844C10.0547 7.14844 7.17188 10.043 7.17188 13.5C7.17188 14.3438 7.35938 15.1523 7.66406 15.8672H19.3711C19.6875 15.1523 19.875 14.3438 19.875 13.5ZM1.04297 14.168H3.92578C4.53516 14.168 4.99219 13.7461 4.98047 13.2188C4.96875 12.7031 4.53516 12.2695 3.92578 12.2695H1.04297C0.433594 12.2695 0 12.6914 0 13.2188C0 13.7461 0.433594 14.168 1.04297 14.168ZM7.47656 7.47656C7.83984 7.10156 7.83984 6.49219 7.40625 6.05859L5.36719 4.01953C4.93359 3.58594 4.33594 3.59766 3.96094 3.96094C3.58594 4.32422 3.58594 4.93359 4.01953 5.36719L6.05859 7.40625C6.49219 7.83984 7.11328 7.85156 7.47656 7.47656ZM13.5234 4.98047C14.0508 4.96875 14.4727 4.52344 14.4727 3.92578V1.04297C14.4727 0.433594 14.0508 0 13.5234 0C12.9961 0 12.5742 0.433594 12.5742 1.04297V3.92578C12.5742 4.52344 12.9961 4.99219 13.5234 4.98047ZM19.5703 7.47656C19.9336 7.83984 20.5547 7.83984 20.9883 7.40625L23.0273 5.36719C23.4609 4.93359 23.4492 4.33594 23.0742 3.96094C22.7227 3.58594 22.1133 3.58594 21.668 4.01953L19.6289 6.05859C19.207 6.49219 19.1953 7.11328 19.5703 7.47656ZM23.1211 14.168H26.0039C26.6133 14.1797 27.0469 13.7461 27.0469 13.2188C27.0469 12.7031 26.6133 12.2695 26.0039 12.2695H23.1211C22.5117 12.2695 22.0547 12.6914 22.0664 13.2188C22.0781 13.7461 22.5117 14.168 23.1211 14.168Z" fill="#007AFF"/>
<path d="M6.38672 24.1993L7.91016 21.5626C8.12109 21.1993 8.00391 20.7892 7.66406 20.5782C7.30078 20.379 6.90234 20.4962 6.69141 20.8478L5.15625 23.5196C4.95703 23.8595 5.05078 24.2696 5.41406 24.4689C5.76562 24.6681 6.1875 24.5509 6.38672 24.1993ZM9.10547 27.5392L12.5742 21.5392C12.7734 21.1993 12.668 20.8009 12.3281 20.5899C12 20.3907 11.5664 20.4962 11.3672 20.8478L7.92188 26.8243C7.72266 27.1876 7.82812 27.5978 8.17969 27.797C8.50781 27.9962 8.90625 27.8907 9.10547 27.5392ZM15.7031 24.1876L17.2383 21.5509C17.4492 21.1876 17.332 20.7774 16.9805 20.5665C16.6289 20.3673 16.2305 20.4845 16.0078 20.836L14.4727 23.5079C14.2734 23.8478 14.3789 24.2579 14.7422 24.4571C15.082 24.6563 15.5039 24.5392 15.7031 24.1876ZM18.4336 27.5274L21.8906 21.5274C22.1016 21.1876 21.9961 20.7892 21.6562 20.5782C21.3164 20.379 20.8945 20.4845 20.6836 20.836L17.25 26.8126C17.0508 27.1759 17.1445 27.586 17.4961 27.7853C17.8359 27.9845 18.2344 27.879 18.4336 27.5274Z" fill="black" fill-opacity="0.85"/>
<path d="M1.59375 18.7148H25.3945C25.8164 18.7148 26.1328 18.3984 26.1328 17.9766C26.1328 17.5547 25.8164 17.2383 25.3945 17.2383H1.59375C1.18359 17.2383 0.855469 17.5547 0.855469 17.9766C0.855469 18.3984 1.18359 18.7148 1.59375 18.7148Z" fill="black" fill-opacity="0.85"/>
</svg>
