<svg width="24" height="24" viewBox="0 0 24 24" fill="none" xmlns="http://www.w3.org/2000/svg">
<path d="M11.9531 23.9062C18.4922 23.9062 23.9062 18.4805 23.9062 11.9531C23.9062 5.41406 18.4805 0 11.9414 0C5.41406 0 0 5.41406 0 11.9531C0 18.4805 5.42578 23.9062 11.9531 23.9062ZM11.9531 21.9141C6.42188 21.9141 2.00391 17.4844 2.00391 11.9531C2.00391 6.42188 6.41016 1.99219 11.9414 1.99219C17.4727 1.99219 21.9141 6.42188 21.9141 11.9531C21.9141 17.4844 17.4844 21.9141 11.9531 21.9141Z" fill="#007AFF"/>
<path d="M11.9414 15.5039C13.875 15.5039 15.4805 13.8867 15.4805 11.9414C15.4805 10.0078 13.875 8.39062 11.9414 8.39062C9.99609 8.39062 8.39062 10.0078 8.39062 11.9414C8.39062 13.8867 9.99609 15.5039 11.9414 15.5039ZM11.9414 4.53516C11.5547 4.53516 11.2266 4.86328 11.2266 5.25V6.65625C11.2266 7.04297 11.5547 7.37109 11.9414 7.37109C12.3281 7.37109 12.668 7.04297 12.668 6.65625V5.25C12.668 4.86328 12.3281 4.53516 11.9414 4.53516ZM17.1797 6.70312C16.8984 6.42188 16.4297 6.43359 16.1719 6.70312L15.1641 7.72266C14.8828 8.01562 14.8945 8.46094 15.1641 8.71875C15.4336 9 15.9023 9 16.1836 8.71875L17.1797 7.72266C17.4609 7.44141 17.4492 6.98438 17.1797 6.70312ZM19.3359 11.9414C19.3359 11.5547 19.0078 11.2266 18.6211 11.2266H17.2148C16.8281 11.2266 16.5 11.5664 16.5 11.9414C16.5 12.3281 16.8281 12.668 17.2148 12.668H18.6211C19.0078 12.668 19.3359 12.3398 19.3359 11.9414ZM17.1797 17.1914C17.4609 16.8984 17.4609 16.4297 17.1797 16.1719L16.1719 15.1641C15.9023 14.9062 15.4336 14.8945 15.1641 15.1641C14.8828 15.457 14.8828 15.9023 15.1641 16.1836L16.1719 17.1914C16.4414 17.4609 16.8984 17.4609 17.1797 17.1914ZM11.9414 19.3594C12.3281 19.3594 12.668 19.0195 12.668 18.6328V17.2266C12.668 16.8516 12.3281 16.5117 11.9414 16.5117C11.5547 16.5117 11.2266 16.8516 11.2266 17.2266V18.6328C11.2266 19.0195 11.5547 19.3594 11.9414 19.3594ZM6.69141 17.1797C6.97266 17.4609 7.44141 17.4609 7.71094 17.1914L8.71875 16.1836C8.98828 15.9141 8.98828 15.4688 8.71875 15.1641C8.44922 14.9062 7.96875 14.8945 7.69922 15.1641L6.69141 16.1719C6.42188 16.4414 6.42188 16.8984 6.69141 17.1797ZM4.55859 11.9414C4.55859 12.3398 4.875 12.668 5.26172 12.668H6.66797C7.05469 12.668 7.38281 12.3281 7.38281 11.9414C7.38281 11.5664 7.05469 11.2266 6.66797 11.2266H5.26172C4.875 11.2266 4.55859 11.5547 4.55859 11.9414ZM6.71484 6.70312C6.44531 6.98438 6.42188 7.44141 6.70312 7.72266L7.69922 8.71875C7.98047 9 8.4375 9 8.71875 8.71875C8.98828 8.44922 8.98828 7.99219 8.71875 7.72266L7.71094 6.70312C7.45312 6.44531 6.99609 6.43359 6.71484 6.70312Z" fill="black" fill-opacity="0.85"/>
</svg>
