<svg width="24" height="24" viewBox="0 0 24 24" fill="none" xmlns="http://www.w3.org/2000/svg">
<path d="M11.9531 23.9062C18.4922 23.9062 23.9062 18.4805 23.9062 11.9531C23.9062 5.41406 18.4805 0 11.9414 0C5.41406 0 0 5.41406 0 11.9531C0 18.4805 5.42578 23.9062 11.9531 23.9062ZM11.9531 21.9141C6.42188 21.9141 2.00391 17.4844 2.00391 11.9531C2.00391 6.42188 6.41016 1.99219 11.9414 1.99219C17.4727 1.99219 21.9141 6.42188 21.9141 11.9531C21.9141 17.4844 17.4844 21.9141 11.9531 21.9141Z" fill="#007AFF"/>
<path d="M7.61719 11.7188C7.61719 11.3555 7.30078 11.0742 6.90234 11.0742H5.39062C4.99219 11.0742 4.6875 11.3672 4.6875 11.7188C4.6875 12.0703 4.99219 12.375 5.39062 12.375H6.90234C7.3125 12.375 7.61719 12.0938 7.61719 11.7188ZM8.88281 8.8125C9.15234 8.55469 9.12891 8.13281 8.84766 7.86328L7.75781 6.77344C7.46484 6.46875 7.05469 6.49219 6.80859 6.73828C6.55078 6.99609 6.5625 7.39453 6.85547 7.69922L7.93359 8.77734C8.21484 9.04688 8.625 9.08203 8.88281 8.8125ZM11.9414 7.17188C12.3047 7.17188 12.5977 6.84375 12.5977 6.45703V4.94531C12.5977 4.53516 12.293 4.24219 11.9414 4.24219C11.5898 4.24219 11.2969 4.53516 11.2969 4.94531V6.45703C11.2969 6.85547 11.5781 7.17188 11.9414 7.17188ZM15.0117 8.8125C15.2695 9.07031 15.6797 9.05859 15.9609 8.77734L17.0273 7.69922C17.3203 7.39453 17.332 7.00781 17.0859 6.73828C16.8281 6.48047 16.4062 6.48047 16.125 6.77344L15.0352 7.86328C14.7422 8.14453 14.7422 8.55469 15.0117 8.8125ZM16.2656 11.7188C16.2656 12.082 16.582 12.375 16.9805 12.375H18.5039C18.9023 12.375 19.1953 12.082 19.1953 11.7188C19.1953 11.3672 18.9023 11.0742 18.5039 11.0742H16.9805C16.582 11.0742 16.2656 11.3555 16.2656 11.7188ZM8.64844 12.9492H15.2344C15.3516 12.6094 15.4336 12.2344 15.4336 11.8711C15.4336 9.96094 13.8516 8.36719 11.9414 8.36719C10.043 8.36719 8.44922 9.96094 8.44922 11.8711C8.44922 12.2344 8.53125 12.6094 8.64844 12.9492ZM5.37891 15.082H18.5156C18.8672 15.082 19.1953 14.8008 19.1953 14.4375C19.1953 14.0625 18.8789 13.8047 18.5156 13.8047H5.37891C5.01562 13.8047 4.6875 14.0742 4.6875 14.4375C4.6875 14.8008 5.02734 15.082 5.37891 15.082ZM6.19922 17.168C6.51562 17.168 6.76172 16.9102 6.76172 16.6055C6.76172 16.3008 6.51562 16.043 6.19922 16.043C5.89453 16.043 5.64844 16.3008 5.64844 16.6055C5.64844 16.9102 5.89453 17.168 6.19922 17.168ZM9.08203 17.168C9.38672 17.168 9.64453 16.9102 9.64453 16.6055C9.64453 16.3008 9.38672 16.043 9.08203 16.043C8.77734 16.043 8.51953 16.3008 8.51953 16.6055C8.51953 16.9102 8.77734 17.168 9.08203 17.168ZM11.9531 17.168C12.2695 17.168 12.5156 16.9102 12.5156 16.6055C12.5156 16.3008 12.2695 16.043 11.9531 16.043C11.6484 16.043 11.4023 16.3008 11.4023 16.6055C11.4023 16.9102 11.6484 17.168 11.9531 17.168ZM14.8359 17.168C15.1406 17.168 15.3867 16.9102 15.3867 16.6055C15.3867 16.3008 15.1406 16.043 14.8359 16.043C14.5312 16.043 14.2734 16.3008 14.2734 16.6055C14.2734 16.9102 14.5312 17.168 14.8359 17.168ZM17.707 17.168C18.0117 17.168 18.2695 16.9102 18.2695 16.6055C18.2695 16.3008 18.0117 16.043 17.707 16.043C17.4023 16.043 17.1445 16.3008 17.1445 16.6055C17.1445 16.9102 17.4023 17.168 17.707 17.168ZM7.62891 18.7383C7.94531 18.7383 8.19141 18.4922 8.19141 18.1875C8.19141 17.8828 7.94531 17.625 7.62891 17.625C7.32422 17.625 7.07812 17.8828 7.07812 18.1875C7.07812 18.4922 7.32422 18.7383 7.62891 18.7383ZM10.5117 18.7383C10.8164 18.7383 11.0742 18.4922 11.0742 18.1875C11.0742 17.8828 10.8164 17.625 10.5117 17.625C10.207 17.625 9.94922 17.8828 9.94922 18.1875C9.94922 18.4922 10.207 18.7383 10.5117 18.7383ZM13.3828 18.7383C13.6992 18.7383 13.9453 18.4922 13.9453 18.1875C13.9453 17.8828 13.6992 17.625 13.3828 17.625C13.0781 17.625 12.832 17.8828 12.832 18.1875C12.832 18.4922 13.0781 18.7383 13.3828 18.7383ZM16.2656 18.7383C16.5703 18.7383 16.8164 18.4922 16.8164 18.1875C16.8164 17.8828 16.5703 17.625 16.2656 17.625C15.9492 17.625 15.7031 17.8828 15.7031 18.1875C15.7031 18.4922 15.9492 18.7383 16.2656 18.7383Z" fill="black" fill-opacity="0.85"/>
</svg>
