<svg width="24" height="24" viewBox="0 0 24 24" fill="none" xmlns="http://www.w3.org/2000/svg">
<path d="M11.6016 2.4375C12.2695 2.4375 12.8203 1.89844 12.8203 1.21875C12.8203 0.539062 12.2695 0 11.6016 0C10.9219 0 10.3828 0.539062 10.3828 1.21875C10.3828 1.89844 10.9219 2.4375 11.6016 2.4375ZM18.9492 5.47266C19.6172 5.47266 20.1562 4.93359 20.1562 4.25391C20.1562 3.57422 19.6172 3.03516 18.9492 3.03516C18.2695 3.03516 17.7305 3.57422 17.7305 4.25391C17.7305 4.93359 18.2695 5.47266 18.9492 5.47266ZM21.9844 12.8203C22.6523 12.8203 23.1914 12.2812 23.1914 11.6016C23.1914 10.9219 22.6523 10.3828 21.9844 10.3828C21.3047 10.3828 20.7656 10.9219 20.7656 11.6016C20.7656 12.2812 21.3047 12.8203 21.9844 12.8203ZM18.9492 20.168C19.6172 20.168 20.1562 19.6289 20.1562 18.9492C20.1562 18.2695 19.6172 17.7305 18.9492 17.7305C18.2695 17.7305 17.7305 18.2695 17.7305 18.9492C17.7305 19.6289 18.2695 20.168 18.9492 20.168ZM11.6016 23.2031C12.2695 23.2031 12.8203 22.6641 12.8203 21.9844C12.8203 21.3047 12.2695 20.7656 11.6016 20.7656C10.9219 20.7656 10.3828 21.3047 10.3828 21.9844C10.3828 22.6641 10.9219 23.2031 11.6016 23.2031ZM4.25391 20.168C4.93359 20.168 5.47266 19.6289 5.47266 18.9492C5.47266 18.2695 4.93359 17.7305 4.25391 17.7305C3.57422 17.7305 3.03516 18.2695 3.03516 18.9492C3.03516 19.6289 3.57422 20.168 4.25391 20.168ZM1.21875 12.8203C1.89844 12.8203 2.4375 12.2812 2.4375 11.6016C2.4375 10.9219 1.89844 10.3828 1.21875 10.3828C0.539062 10.3828 0 10.9219 0 11.6016C0 12.2812 0.539062 12.8203 1.21875 12.8203ZM4.25391 5.47266C4.93359 5.47266 5.47266 4.93359 5.47266 4.25391C5.47266 3.57422 4.93359 3.03516 4.25391 3.03516C3.57422 3.03516 3.03516 3.57422 3.03516 4.25391C3.03516 4.93359 3.57422 5.47266 4.25391 5.47266Z" fill="black" fill-opacity="0.85"/>
<path d="M11.6016 17.5664C14.8594 17.5664 17.5664 14.8594 17.5664 11.6016C17.5664 8.33203 14.8594 5.625 11.6016 5.625C8.33203 5.625 5.625 8.33203 5.625 11.6016C5.625 14.8594 8.33203 17.5664 11.6016 17.5664Z" fill="black" fill-opacity="0.85"/>
</svg>
