<svg width="37" height="13" viewBox="0 0 37 13" fill="none" xmlns="http://www.w3.org/2000/svg">
<path d="M18.1172 4.38281C18.5156 4.38281 18.8672 4.61719 19.0664 5.05078L20.332 7.85156C21.7383 10.9102 24.3047 12.2109 27.1289 12.2109C31.2539 12.2109 34.1602 9.66797 34.8281 5.19141L35.0508 3.73828C35.2852 2.15625 36.2227 1.65234 36.2227 0.972656C36.2227 0.375 35.7891 0 34.9805 0C31.2891 0 27.9375 0.1875 25.9453 0.480469C21.7617 1.10156 20.1211 2.16797 18.1172 2.16797C16.1016 2.16797 14.4609 1.10156 10.2773 0.480469C8.28516 0.1875 4.93359 0 1.25391 0C0.445312 0 0 0.375 0 0.972656C0 1.65234 0.949219 2.15625 1.18359 3.73828L1.40625 5.19141C2.0625 9.66797 4.96875 12.2109 9.10547 12.2109C11.9297 12.2109 14.4961 10.9102 15.8906 7.85156L17.168 5.05078C17.3555 4.61719 17.707 4.38281 18.1172 4.38281ZM9.11719 10.4414C5.25 10.4414 3.11719 7.79297 3.11719 4.01953C3.11719 2.69531 4.23047 2.0625 6.70312 2.0625C11.9414 2.0625 14.5195 3.07031 14.5195 5.05078C14.5195 8.03906 12.5273 10.4414 9.11719 10.4414ZM27.1055 10.4414C23.707 10.4414 21.7031 8.03906 21.7031 5.05078C21.7031 3.07031 24.2812 2.0625 29.5195 2.0625C32.0039 2.0625 33.1055 2.69531 33.1055 4.01953C33.1055 7.79297 30.9727 10.4414 27.1055 10.4414Z" fill="black" fill-opacity="0.85"/>
<path d="M9.11719 10.4414C5.25 10.4414 3.11719 7.79297 3.11719 4.01953C3.11719 2.69531 4.23047 2.0625 6.70312 2.0625C11.9414 2.0625 14.5195 3.07031 14.5195 5.05078C14.5195 8.03906 12.5273 10.4414 9.11719 10.4414ZM27.1055 10.4414C23.707 10.4414 21.7031 8.03906 21.7031 5.05078C21.7031 3.07031 24.2812 2.0625 29.5195 2.0625C32.0039 2.0625 33.1055 2.69531 33.1055 4.01953C33.1055 7.79297 30.9727 10.4414 27.1055 10.4414Z" fill="#FFCC00"/>
</svg>
