<svg width="31" height="25" viewBox="0 0 31 25" fill="none" xmlns="http://www.w3.org/2000/svg">
<path d="M1.01953 24.457H29.0156C29.5664 24.457 30.0352 24.0352 30.0352 23.5195C30.0352 23.0039 29.5664 22.582 29.0156 22.582H1.01953C0.46875 22.582 0 23.0039 0 23.5195C0 24.0352 0.46875 24.457 1.01953 24.457Z" fill="black" fill-opacity="0.85"/>
<path d="M21.3633 18.8085C21.3633 15.3515 18.4922 12.4569 15.0234 12.4569C11.543 12.4569 8.67188 15.3515 8.67188 18.8085C8.67188 19.664 8.84766 20.4843 9.17578 21.2108H20.8594C21.1875 20.4843 21.3633 19.664 21.3633 18.8085ZM2.54297 19.4765H5.42578C6.03516 19.4765 6.49219 19.0546 6.48047 18.5272C6.46875 17.9999 6.02344 17.578 5.42578 17.578H2.54297C1.93359 17.578 1.5 17.9999 1.5 18.5272C1.5 19.0546 1.93359 19.4765 2.54297 19.4765ZM7.55859 12.7147C7.98047 13.1483 8.61328 13.1601 8.97656 12.7851C9.33984 12.4101 9.33984 11.789 8.90625 11.3671L6.86719 9.32803C6.43359 8.89444 5.83594 8.90616 5.46094 9.26944C5.08594 9.63272 5.07422 10.2421 5.51953 10.6757L7.55859 12.7147ZM21.0586 12.7851C21.4336 13.1483 22.0547 13.1483 22.4766 12.7147L24.5156 10.6757C24.9609 10.2421 24.9375 9.64444 24.5742 9.26944C24.2109 8.89444 23.6016 8.89444 23.168 9.32803L21.1289 11.3671C20.6953 11.789 20.6836 12.4218 21.0586 12.7851ZM24.6094 19.4765H27.4922C28.1016 19.4765 28.5352 19.0546 28.5352 18.5272C28.5352 17.9999 28.1016 17.578 27.4922 17.578H24.6094C24.0117 17.578 23.543 17.9999 23.5547 18.5272C23.5664 19.0546 24.0117 19.4765 24.6094 19.4765Z" fill="#007AFF"/>
<path d="M15.0234 9.5625C15.5391 9.5625 15.9727 9.10547 15.9727 8.53125V4.13672L15.832 2.36719L16.6992 3.36328L18.1641 4.85156C18.3398 5.01562 18.5625 5.12109 18.7852 5.12109C19.2539 5.12109 19.5938 4.79297 19.5938 4.33594C19.5938 4.08984 19.5117 3.90234 19.3125 3.71484L15.6562 0.304688C15.4102 0.0820312 15.2344 0 15.0234 0C14.8008 0 14.625 0.0820312 14.3789 0.304688L10.7227 3.71484C10.5234 3.90234 10.4414 4.08984 10.4414 4.33594C10.4414 4.79297 10.7812 5.12109 11.25 5.12109C11.4727 5.12109 11.6953 5.01562 11.8711 4.85156L13.4531 3.24609L14.2031 2.36719L14.0625 4.13672V8.53125C14.0625 9.10547 14.4961 9.5625 15.0234 9.5625Z" fill="black" fill-opacity="0.85"/>
</svg>
