<svg width="24" height="24" viewBox="0 0 24 24" fill="none" xmlns="http://www.w3.org/2000/svg">
<path d="M11.9531 23.918C18.4922 23.918 23.9062 18.5039 23.9062 11.9648C23.9062 5.4375 18.4805 0.0117188 11.9414 0.0117188C5.41406 0.0117188 0 5.4375 0 11.9648C0 18.5039 5.42578 23.918 11.9531 23.918Z" fill="#FFCC00"/>
<path d="M5.63672 14.5078C5.25 14.5078 4.95703 14.2266 4.95703 13.8867C4.95703 13.5469 5.25 13.2539 5.63672 13.2539H7.10156C7.48828 13.2539 7.78125 13.5352 7.78125 13.8867C7.78125 14.2383 7.48828 14.5078 7.10156 14.5078H5.63672ZM8.08594 11.0625L7.04297 10.0195C6.76172 9.72656 6.76172 9.35156 6.99609 9.09375C7.24219 8.85938 7.64062 8.83594 7.92188 9.11719L8.96484 10.1602C9.22266 10.4297 9.25781 10.8398 9.01172 11.0859C8.76562 11.3438 8.35547 11.3203 8.08594 11.0625ZM11.9414 9.50391C11.5898 9.50391 11.3086 9.19922 11.3086 8.83594V6.63281L11.3438 6.22266L11.2852 6.28125L10.4648 7.08984C10.3477 7.19531 10.1836 7.26562 10.0312 7.26562C9.71484 7.26562 9.49219 7.04297 9.49219 6.72656C9.49219 6.57422 9.53906 6.43359 9.67969 6.29297L11.5195 4.57031C11.6602 4.44141 11.8008 4.38281 11.9414 4.38281C12.082 4.38281 12.2227 4.44141 12.3633 4.57031L14.2031 6.29297C14.3555 6.43359 14.3906 6.57422 14.3906 6.72656C14.3906 7.04297 14.168 7.26562 13.8516 7.26562C13.6992 7.26562 13.5234 7.20703 13.4297 7.08984L12.6914 6.32812L12.5391 6.1875L12.5742 6.63281V8.83594C12.5742 9.19922 12.293 9.50391 11.9414 9.50391ZM14.8945 11.0859C14.6367 10.8398 14.6484 10.4414 14.9297 10.1602L15.9609 9.11719C16.2422 8.84766 16.6406 8.83594 16.8867 9.09375C17.1211 9.35156 17.1094 9.72656 16.8398 10.0195L15.8086 11.0625C15.5273 11.332 15.1406 11.332 14.8945 11.0859ZM16.793 14.5078C16.4062 14.5078 16.1016 14.2383 16.1016 13.8867C16.1016 13.5352 16.4062 13.2539 16.793 13.2539H18.2461C18.6445 13.2539 18.9258 13.5352 18.9258 13.8867C18.9258 14.2266 18.6445 14.5078 18.2461 14.5078H16.793ZM15.3047 14.0156C15.3047 14.3789 15.2344 14.7422 15.1055 15.082H8.77734C8.64844 14.7422 8.57812 14.3789 8.57812 14.0156C8.57812 12.1875 10.1133 10.6641 11.9414 10.6641C13.7812 10.6641 15.3047 12.1875 15.3047 14.0156ZM5.625 17.0625C5.28516 17.0625 4.95703 16.793 4.95703 16.4414C4.95703 16.0898 5.27344 15.8203 5.625 15.8203H18.2578C18.6211 15.8203 18.9258 16.0898 18.9258 16.4414C18.9258 16.793 18.6094 17.0625 18.2578 17.0625H5.625Z" fill="black" fill-opacity="0.85"/>
</svg>
