<svg width="31" height="25" viewBox="0 0 31 25" fill="none" xmlns="http://www.w3.org/2000/svg">
<path d="M1.01953 24.457H29.0156C29.5664 24.457 30.0352 24.0352 30.0352 23.5195C30.0352 23.0039 29.5664 22.582 29.0156 22.582H1.01953C0.46875 22.582 0 23.0039 0 23.5195C0 24.0352 0.46875 24.457 1.01953 24.457Z" fill="black" fill-opacity="0.85"/>
<path d="M21.3633 18.8086C21.3633 15.3516 18.4922 12.457 15.0234 12.457C11.543 12.457 8.67188 15.3516 8.67188 18.8086C8.67188 19.6641 8.84766 20.4844 9.17578 21.2109H20.8594C21.1875 20.4844 21.3633 19.6641 21.3633 18.8086ZM2.54297 19.4766H5.42578C6.03516 19.4766 6.49219 19.0547 6.48047 18.5273C6.46875 18 6.02344 17.5781 5.42578 17.5781H2.54297C1.93359 17.5781 1.5 18 1.5 18.5273C1.5 19.0547 1.93359 19.4766 2.54297 19.4766ZM7.55859 12.7148C7.98047 13.1484 8.61328 13.1602 8.97656 12.7852C9.33984 12.4102 9.33984 11.7891 8.90625 11.3672L6.86719 9.32815C6.43359 8.89456 5.83594 8.90628 5.46094 9.26956C5.08594 9.63284 5.07422 10.2422 5.51953 10.6758L7.55859 12.7148ZM21.0586 12.7852C21.4336 13.1484 22.0547 13.1484 22.4766 12.7148L24.5156 10.6758C24.9609 10.2422 24.9375 9.64456 24.5742 9.26956C24.2109 8.89456 23.6016 8.89456 23.168 9.32815L21.1289 11.3672C20.6953 11.7891 20.6836 12.4219 21.0586 12.7852ZM24.6094 19.4766H27.4922C28.1016 19.4766 28.5352 19.0547 28.5352 18.5273C28.5352 18 28.1016 17.5781 27.4922 17.5781H24.6094C24.0117 17.5781 23.543 18 23.5547 18.5273C23.5664 19.0547 24.0117 19.4766 24.6094 19.4766Z" fill="#007AFF"/>
<path d="M15.0234 0C14.4961 0 14.0625 0.46875 14.0625 1.04297V5.42578L14.2031 7.19531L13.4531 6.31641L11.8711 4.72266C11.6953 4.54688 11.4727 4.45312 11.25 4.45312C10.7812 4.45312 10.4414 4.76953 10.4414 5.23828C10.4414 5.48438 10.5234 5.67188 10.7227 5.84766L14.3789 9.25781C14.625 9.48047 14.8008 9.5625 15.0234 9.5625C15.2344 9.5625 15.4102 9.48047 15.6562 9.25781L19.3125 5.84766C19.5117 5.67188 19.5938 5.48438 19.5938 5.23828C19.5938 4.76953 19.2539 4.45312 18.7852 4.45312C18.5625 4.45312 18.3398 4.54688 18.1641 4.72266L16.6992 6.19922L15.832 7.19531L15.9727 5.42578V1.04297C15.9727 0.46875 15.5391 0 15.0234 0Z" fill="black" fill-opacity="0.85"/>
</svg>
