<svg width="29" height="30" viewBox="0 0 29 30" fill="none" xmlns="http://www.w3.org/2000/svg">
<path d="M1.44361 25.4455L4.31471 28.3166C6.16627 30.1681 8.04127 30.1564 10.1506 28.7619C13.0921 26.8049 15.9749 24.3791 19.1741 21.1799C27.8811 12.4728 29.8147 4.36346 27.5999 2.16033C25.4085 -0.0545102 17.2991 1.8908 8.58033 10.5861C5.39283 13.7971 2.95533 16.6799 1.01002 19.6096C-0.396229 21.7306 -0.407948 23.5939 1.44361 25.4455ZM2.77955 24.1213C1.59596 22.9494 1.68971 21.8713 2.56861 20.5939C4.36158 17.9221 6.67018 15.1799 9.91627 11.9221C17.7561 4.08221 24.9866 2.20721 26.2756 3.49627C27.553 4.77361 25.678 12.0041 17.8499 19.8439C14.5803 23.1017 11.8381 25.4103 9.16627 27.2033C7.88893 28.0705 6.82252 28.1642 5.65065 26.9806L2.77955 24.1213ZM3.28346 25.551L4.20924 26.4767L27.178 3.49627L26.2639 2.58221L3.28346 25.551Z" fill="black" fill-opacity="0.85"/>
</svg>
