<svg width="39" height="35" viewBox="0 0 39 35" fill="none" xmlns="http://www.w3.org/2000/svg">
<path d="M29.6469 0.766291L28.9789 0.473322C27.2797 -0.264959 25.8851 -0.159491 24.0687 0.930353L17.9515 4.5866C14.7406 6.53192 13.639 7.59832 12.432 9.95379L10.475 13.821L7.77969 15.9421C5.29531 17.8757 4.69766 19.8796 5.98672 22.0241L6.79531 23.3718C7.55703 24.6491 8.77578 24.9772 10.0179 24.2272L11.307 23.4538C11.1429 23.2897 11.014 23.1139 10.8969 22.9147C9.88906 21.2389 10.4164 19.0944 12.0922 18.11C13.7562 17.1022 15.9125 17.6413 16.8969 19.3054C17.014 19.5163 17.1195 19.7155 17.1898 19.9264L27.0336 13.9968C26.8929 13.8444 26.7523 13.6569 26.6351 13.446C25.6508 11.7936 26.1898 9.62567 27.8422 8.64129C29.5062 7.65692 31.6508 8.18426 32.6586 9.84832C32.764 10.0475 32.8578 10.2585 32.9398 10.4694L33.7601 9.97723C35.1429 9.1452 35.3422 8.06707 34.4164 6.5202L32.4008 3.16863C31.8148 2.19598 30.7953 1.2702 29.6469 0.766291ZM15.1508 23.196C16.3226 22.4929 16.6859 21.0163 15.9828 19.8561C15.2914 18.696 13.8031 18.321 12.6429 19.0124C11.4828 19.7272 11.1078 21.2038 11.8109 22.3639C12.5023 23.5241 13.9906 23.8874 15.1508 23.196ZM30.9008 13.7389C32.0609 13.0475 32.4242 11.5475 31.7211 10.3874C31.0297 9.22723 29.5414 8.86395 28.3812 9.56707C27.2211 10.2468 26.8578 11.7468 27.5609 12.9069C28.2523 14.0671 29.7406 14.4304 30.9008 13.7389Z" fill="#007AFF"/>
<path d="M6.97177 31.6804C7.2413 32.1491 7.82724 32.3014 8.24912 32.0436L38.1554 14.0671C38.5772 13.8327 38.7413 13.2468 38.4952 12.8132C38.2022 12.3561 37.628 12.2038 37.2061 12.4616L7.2999 30.4147C6.8663 30.6725 6.71396 31.2468 6.97177 31.6804ZM5.28427 25.985L2.76474 21.7429C2.34287 21.0397 1.51084 21.2155 1.28818 21.9304L0.0577108 25.5749C-0.118071 26.0788 0.116304 26.4655 0.643648 26.5593L4.39365 27.1804C5.14365 27.321 5.69443 26.6999 5.28427 25.985Z" fill="black" fill-opacity="0.85"/>
</svg>
