<svg width="42" height="35" viewBox="0 0 42 35" fill="none" xmlns="http://www.w3.org/2000/svg">
<path d="M2.98828 24.0469H6.63281V22.1602H3.09375C2.33203 22.1602 1.88672 21.6445 1.88672 20.7539V18.9727C1.88672 16.875 3.29297 15.6914 6.22266 15.3164L10.9922 14.7188L16.0781 11.5547C18.668 9.9375 20.2031 9.5625 24.7031 9.5625H33.8555C35.8828 9.5625 37.0547 10.125 38.0156 11.4961L38.543 12.2578C39.2578 13.2891 39.6797 14.5547 39.6797 15.668V20.7891C39.6797 21.7266 39.3164 22.1602 38.4844 22.1602H35.6016V24.0469H38.5898C40.6406 24.0469 41.5664 22.9922 41.5664 20.6719V15.668C41.5664 14.2031 41.0273 12.5273 40.1016 11.1914L39.5742 10.418C38.2266 8.46094 36.5742 7.67578 33.8555 7.67578H24.7031C19.875 7.67578 17.9414 8.14453 15.0703 9.9375L10.3477 12.9023L5.97656 13.4414C1.98047 13.9336 0 15.7617 0 18.9727V20.9883C0 22.8984 1.125 24.0469 2.98828 24.0469ZM12.1289 24.0469H30.2109V22.1602H12.1289V24.0469ZM9.31641 26.7188C11.5664 26.7188 13.3242 24.9609 13.3242 22.7109C13.3242 20.4609 11.5664 18.7031 9.31641 18.7031C7.06641 18.7031 5.30859 20.4609 5.30859 22.7109C5.30859 24.9609 7.06641 26.7188 9.31641 26.7188ZM9.31641 24.832C8.12109 24.832 7.19531 23.9062 7.19531 22.7109C7.19531 21.5156 8.12109 20.5898 9.31641 20.5898C10.5117 20.5898 11.4375 21.5156 11.4375 22.7109C11.4375 23.9062 10.5117 24.832 9.31641 24.832ZM32.9883 26.7188C35.2383 26.7188 36.9961 24.9609 36.9961 22.7109C36.9961 20.4609 35.2383 18.7031 32.9883 18.7031C30.7383 18.7031 28.9805 20.4609 28.9805 22.7109C28.9805 24.9609 30.7383 26.7188 32.9883 26.7188ZM32.9883 24.832C31.793 24.832 30.8672 23.9062 30.8672 22.7109C30.8672 21.5156 31.793 20.5898 32.9883 20.5898C34.1836 20.5898 35.1094 21.5156 35.1094 22.7109C35.1094 23.9062 34.1836 24.832 32.9883 24.832Z" fill="#007AFF"/>
<path d="M19.7461 13.4297H25.6875C27.3398 13.4297 28.4531 12.3398 28.4531 10.5703V6.01172C28.4531 4.23047 27.3398 3.15234 25.6875 3.15234H19.7461C18.0938 3.15234 16.9805 4.23047 16.9805 6.01172V10.5703C16.9805 12.3398 18.0938 13.4297 19.7461 13.4297Z" fill="white"/>
<path d="M19.5703 5.10938L21.1055 5.09766V3.41016C21.1055 2.19141 21.7031 1.53516 22.7109 1.53516C23.7305 1.53516 24.3164 2.19141 24.3164 3.41016V5.09766L25.8516 5.10938V3.53906C25.8516 1.41797 24.5859 0 22.7109 0C20.8477 0 19.5703 1.41797 19.5703 3.53906V5.10938ZM19.7461 11.8242H25.6875C26.4844 11.8242 26.8594 11.4258 26.8594 10.5703V6.01172C26.8594 5.15625 26.4844 4.75781 25.6875 4.75781H19.7461C18.9492 4.75781 18.5742 5.15625 18.5742 6.01172V10.5703C18.5742 11.4258 18.9492 11.8242 19.7461 11.8242Z" fill="black" fill-opacity="0.85"/>
</svg>
