<svg width="45" height="27" viewBox="0 0 45 27" fill="none" xmlns="http://www.w3.org/2000/svg">
<path d="M36.0938 4.25391L37.4648 5.34375L40.6758 2.0625C40.9453 1.79297 41.2734 1.6875 41.6484 1.6875H43.4297C43.9688 1.6875 44.3086 1.33594 44.3086 0.832031C44.3086 0.328125 43.9688 0 43.4297 0H41.8477C40.8516 0 39.9844 0.28125 39.3164 0.960938L36.0938 4.25391ZM9.31641 22.1016C11.0742 22.1016 12.457 20.7188 12.457 18.9727C12.457 17.2266 11.0625 15.832 9.31641 15.832C7.58203 15.832 6.1875 17.2266 6.1875 18.9727C6.1875 20.707 7.58203 22.1016 9.31641 22.1016ZM32.9297 22.1016C34.6758 22.1016 36.0703 20.707 36.0703 18.9727C36.0703 17.2266 34.6758 15.832 32.9297 15.832C31.207 15.832 29.8008 17.2383 29.8008 18.9727C29.8008 20.707 31.1953 22.1016 32.9297 22.1016ZM40.1016 6.98438L39.5742 6.21094C38.2266 4.25391 36.5742 3.46875 33.8555 3.46875H24.7031C19.875 3.46875 17.9414 3.9375 15.0703 5.73047L10.3477 8.69531L5.97656 9.23438C1.98047 9.72656 0 11.5547 0 14.7656V16.7812C0 18.6914 1.125 19.8398 2.98828 19.8398H4.89844C4.85156 19.5586 4.81641 19.2773 4.81641 18.9727C4.81641 16.4766 6.83203 14.4727 9.31641 14.4727C11.8125 14.4727 13.8164 16.4766 13.8164 18.9727C13.8164 19.2773 13.793 19.5586 13.7344 19.8398H28.5117C28.4648 19.5586 28.4297 19.2773 28.4297 18.9727C28.4297 16.4883 30.457 14.4727 32.9297 14.4727C35.4258 14.4727 37.4297 16.4766 37.4297 18.9727C37.4297 19.2773 37.4062 19.5586 37.3477 19.8398H38.5898C40.6406 19.8398 41.5664 18.7852 41.5664 16.4648V11.4609C41.5664 9.99609 41.0273 8.32031 40.1016 6.98438Z" fill="black" fill-opacity="0.85"/>
</svg>
