<svg width="42" height="20" viewBox="0 0 42 20" fill="none" xmlns="http://www.w3.org/2000/svg">
<path d="M9.31641 18.6328C11.0742 18.6328 12.457 17.25 12.457 15.5039C12.457 13.7578 11.0625 12.3633 9.31641 12.3633C7.58203 12.3633 6.1875 13.7578 6.1875 15.5039C6.1875 17.2383 7.58203 18.6328 9.31641 18.6328ZM32.9297 18.6328C34.6758 18.6328 36.0703 17.2383 36.0703 15.5039C36.0703 13.7578 34.6758 12.3633 32.9297 12.3633C31.207 12.3633 29.8008 13.7695 29.8008 15.5039C29.8008 17.2383 31.1953 18.6328 32.9297 18.6328ZM40.1016 3.51562L39.5742 2.74219C38.2266 0.785156 36.5742 0 33.8555 0H24.7031C19.875 0 17.9414 0.46875 15.0703 2.26172L10.3477 5.22656L5.97656 5.76562C1.98047 6.25781 0 8.08594 0 11.2969V13.3125C0 15.2227 1.125 16.3711 2.98828 16.3711H4.89844C4.85156 16.0898 4.81641 15.8086 4.81641 15.5039C4.81641 13.0078 6.83203 11.0039 9.31641 11.0039C11.8125 11.0039 13.8164 13.0078 13.8164 15.5039C13.8164 15.8086 13.793 16.0898 13.7344 16.3711H28.5117C28.4648 16.0898 28.4297 15.8086 28.4297 15.5039C28.4297 13.0195 30.457 11.0039 32.9297 11.0039C35.4258 11.0039 37.4297 13.0078 37.4297 15.5039C37.4297 15.8086 37.4062 16.0898 37.3477 16.3711H38.5898C40.6406 16.3711 41.5664 15.3164 41.5664 12.9961V7.99219C41.5664 6.52734 41.0273 4.85156 40.1016 3.51562Z" fill="#FFCC00"/>
<path d="M15.3398 7.86328C15.3398 5.80078 16.8516 4.39453 19.0898 4.39453H26.1328C26.6484 4.39453 27 4.75781 27 5.23828C27 5.71875 26.6484 6.04688 26.1445 6.04688H19.0898C17.8594 6.04688 17.0391 6.82031 17.0391 7.95703C17.0391 8.96484 17.8477 9.64453 19.0781 9.64453H23.8945V8.60156C23.8945 7.89844 24.3867 7.66406 24.9844 8.0625L27.7852 9.90234C28.2539 10.2305 28.2305 10.793 27.7852 11.0742L24.9727 12.9258C24.375 13.3125 23.8945 13.0664 23.8945 12.3867V11.2852H19.0781C16.8516 11.2852 15.3398 9.91406 15.3398 7.86328Z" fill="black" fill-opacity="0.85"/>
</svg>
