<svg width="27" height="31" viewBox="0 0 27 31" fill="none" xmlns="http://www.w3.org/2000/svg">
<path d="M16.0427 12.9844L21.0583 21.6797L25.4411 19.1484C26.988 18.2578 27.3981 16.6758 26.4724 15.0938L24.5036 11.6719C23.5544 10.0195 21.9724 9.57423 20.4255 10.4531L16.0427 12.9844ZM7.83949 17.7188L12.8669 26.4023L19.6755 22.4766L14.6481 13.7812L7.83949 17.7188ZM3.24574 23.9414L5.21449 27.375C6.12856 28.9805 7.68715 29.4023 9.24574 28.5L11.4724 27.2109L6.45668 18.5156L4.23012 19.793C2.68324 20.6836 2.28481 22.3008 3.24574 23.9414Z" fill="#FFCC00"/>
<path d="M11.2854 3.92566L2.12125 19.8515C0.797031 22.1483 1.44157 24.6796 3.92594 26.121L7.35954 28.1015C9.70328 29.4608 12.1994 28.8866 13.5822 26.4726L22.7463 10.5468C24.1291 8.13269 23.3908 5.6952 21.0471 4.34754L17.6135 2.35535C15.1291 0.925666 12.6096 1.6405 11.2854 3.92566Z" fill="white"/>
<path d="M10.1371 9.11709L18.8324 14.1444L21.3754 9.7499C22.266 8.20302 21.8324 6.64443 20.2387 5.73037L16.8168 3.7499C15.1645 2.78896 13.559 3.1874 12.6801 4.73428L10.1371 9.11709ZM5.41451 17.3085L14.1098 22.3358L18.0356 15.5272L9.34029 10.5116L5.41451 17.3085ZM4.72311 24.7265L8.1567 26.7187C9.73873 27.6327 11.3324 27.2226 12.1996 25.6757L13.3012 23.7187L4.60592 18.703L3.50436 20.6483C2.63717 22.2069 3.08248 23.7772 4.72311 24.7265Z" fill="#007AFF"/>
<path d="M0 4.52344V25.7227C0 28.3125 1.81641 30.2461 4.6875 30.2461H8.66016C11.3672 30.2461 13.2305 28.4062 13.2305 25.7227V4.52344C13.2305 1.83984 11.3672 0 8.66016 0H4.6875C1.81641 0 0 1.93359 0 4.52344Z" fill="white"/>
<path d="M1.59375 9.59766H11.6367V4.52344C11.6367 2.73047 10.4883 1.60547 8.66016 1.60547H4.6875C2.78906 1.60547 1.59375 2.73047 1.59375 4.52344V9.59766ZM1.59375 19.0547H11.6367V11.1914H1.59375V19.0547ZM4.6875 28.6523H8.66016C10.4883 28.6523 11.6367 27.5156 11.6367 25.7227V20.6602H1.59375V25.7227C1.59375 27.5156 2.78906 28.6523 4.6875 28.6523Z" fill="black" fill-opacity="0.85"/>
</svg>
