<svg width="27" height="27" viewBox="0 0 27 27" fill="none" xmlns="http://www.w3.org/2000/svg">
<path d="M0.246172 26.2266C0.562578 26.5312 1.06648 26.5195 1.38289 26.2031L6.43367 21.1523L5.29695 20.0273L0.246172 25.0781C-0.070234 25.3945 -0.0936715 25.9102 0.246172 26.2266ZM4.31258 19.957L6.56258 22.1836C7.75789 23.3672 9.3868 23.332 10.6407 22.0781L22.9454 9.77344L21.6095 8.4375L9.31648 20.7422C8.85945 21.1992 8.23836 21.1758 7.75789 20.6953L5.78914 18.7383C5.30867 18.2695 5.30867 17.6484 5.77742 17.1797L18.0704 4.89844L16.7227 3.55078L4.41805 15.8672C3.1407 17.1562 3.10555 18.7734 4.31258 19.957ZM6.21102 14.6367L9.09383 17.5312C9.3282 17.7656 9.64461 17.7539 9.87898 17.5195C10.0782 17.3203 10.0665 16.9688 9.86727 16.7578L6.97273 13.8867L6.21102 14.6367ZM8.64852 12.2227L11.5313 15.1055C11.754 15.3281 12.0821 15.3281 12.3048 15.1055C12.5157 14.8945 12.4923 14.5547 12.293 14.3438L9.41023 11.4609L8.64852 12.2227ZM11.086 9.77344L13.9688 12.668C14.1915 12.8789 14.5196 12.8906 14.7423 12.668C14.9532 12.457 14.9532 12.1172 14.7305 11.8945L11.8477 9.01172L11.086 9.77344ZM13.5235 7.34766L16.4063 10.2422C16.629 10.4531 16.9454 10.4531 17.168 10.2422C17.379 10.043 17.3673 9.67969 17.168 9.46875L14.2735 6.58594L13.5235 7.34766ZM14.7774 3.02344L23.4962 11.7422C23.8595 12.1055 24.4571 12.1055 24.8204 11.7422C25.1954 11.3789 25.1954 10.7695 24.8204 10.4062L16.1134 1.69922C15.7266 1.30078 15.1407 1.32422 14.7774 1.69922C14.4141 2.0625 14.3907 2.63672 14.7774 3.02344ZM17.004 3.29297L23.2032 9.51562L24.047 8.67188C24.4102 8.30859 24.422 7.71094 24.047 7.34766L22.3477 5.64844L23.8126 4.18359L25.2188 5.58984C25.5821 5.95312 26.1798 5.95312 26.543 5.58984C26.918 5.21484 26.918 4.61719 26.543 4.25391L22.5704 0.28125C22.2071 -0.09375 21.6095 -0.09375 21.2345 0.28125C20.8712 0.644531 20.8712 1.24219 21.2345 1.60547L22.6524 3.01172L21.1876 4.47656L19.172 2.46094C18.8087 2.09766 18.1993 2.09766 17.836 2.46094L17.004 3.29297Z" fill="black" fill-opacity="0.85"/>
</svg>
