<svg width="27" height="27" viewBox="0 0 27 27" fill="none" xmlns="http://www.w3.org/2000/svg">
<path d="M0.246172 26.2266C0.562578 26.5312 1.06648 26.5195 1.38289 26.2031L7.16023 20.4258L6.03523 19.2891L0.246172 25.0781C-0.070234 25.3945 -0.0936715 25.9102 0.246172 26.2266ZM15.0938 5.19141L13.5938 6.69141L16.4532 9.5625C16.6524 9.77344 16.6641 10.1367 16.4532 10.3359C16.2305 10.5469 15.9141 10.5469 15.6915 10.3359L12.8204 7.46484L11.1563 9.12891L14.0157 11.9883C14.2384 12.2109 14.2384 12.5508 14.0274 12.7617C13.8048 12.9844 13.4766 12.9727 13.254 12.7617L10.3946 9.89062L8.70711 11.5664L11.5782 14.4375C11.7891 14.6484 11.8009 14.9883 11.5899 15.1992C11.3673 15.4219 11.0391 15.4219 10.8165 15.1992L7.94539 12.3281L6.28133 14.0039L9.15242 16.8516C9.35164 17.0625 9.36336 17.4023 9.16414 17.6133C8.94148 17.8594 8.61336 17.8594 8.37898 17.625L5.51961 14.7656L4.24227 16.0312C3.03523 17.2383 3.0118 18.6328 4.14852 19.7812L6.71492 22.3594C7.85164 23.4961 9.26961 23.4492 10.4766 22.2422L21.3048 11.4023L15.0938 5.19141ZM14.7774 3.02344L23.4962 11.7422C23.8595 12.1055 24.4571 12.1055 24.8204 11.7422C25.1954 11.3789 25.1954 10.7695 24.8204 10.4062L23.5665 9.15234L24.047 8.67188C24.4102 8.30859 24.422 7.71094 24.047 7.34766L22.3477 5.64844L23.8126 4.18359L25.2188 5.58984C25.5821 5.95312 26.1798 5.95312 26.543 5.58984C26.918 5.21484 26.918 4.61719 26.543 4.25391L22.5704 0.28125C22.2071 -0.09375 21.6095 -0.09375 21.2345 0.28125C20.8712 0.644531 20.8712 1.24219 21.2345 1.60547L22.6524 3.01172L21.1876 4.47656L19.172 2.46094C18.8087 2.09766 18.1993 2.09766 17.836 2.46094L17.3555 2.94141L16.1134 1.69922C15.7266 1.30078 15.1407 1.32422 14.7774 1.69922C14.4141 2.0625 14.3907 2.63672 14.7774 3.02344Z" fill="black" fill-opacity="0.85"/>
</svg>
