<svg width="24" height="24" viewBox="0 0 24 24" fill="none" xmlns="http://www.w3.org/2000/svg">
<path d="M11.9531 23.9062C18.4922 23.9062 23.9062 18.4805 23.9062 11.9531C23.9062 5.41406 18.4805 0 11.9414 0C5.41406 0 0 5.41406 0 11.9531C0 18.4805 5.42578 23.9062 11.9531 23.9062ZM11.9531 21.9141C6.42188 21.9141 2.00391 17.4844 2.00391 11.9531C2.00391 6.42188 6.41016 1.99219 11.9414 1.99219C17.4727 1.99219 21.9141 6.42188 21.9141 11.9531C21.9141 17.4844 17.4844 21.9141 11.9531 21.9141Z" fill="#007AFF"/>
<path d="M11.9062 17.3672C12.5273 17.3672 12.8555 16.957 12.8555 16.3125V8.08594H15.7734C16.2188 8.08594 16.5586 7.78125 16.5586 7.3125C16.5586 6.83203 16.2188 6.55078 15.7734 6.55078H8.09766C7.65234 6.55078 7.32422 6.83203 7.32422 7.3125C7.32422 7.78125 7.65234 8.08594 8.09766 8.08594H10.9922V16.3125C10.9922 16.9336 11.3086 17.3672 11.9062 17.3672Z" fill="black" fill-opacity="0.85"/>
</svg>
