<svg width="24" height="24" viewBox="0 0 24 24" fill="none" xmlns="http://www.w3.org/2000/svg">
<path d="M11.9531 23.9062C18.4922 23.9062 23.9062 18.4805 23.9062 11.9531C23.9062 5.41406 18.4805 0 11.9414 0C5.41406 0 0 5.41406 0 11.9531C0 18.4805 5.42578 23.9062 11.9531 23.9062Z" fill="#FFCC00"/>
<path d="M11.918 17.543C11.2969 17.543 10.9688 17.0859 10.9688 16.4414V7.96875H7.99219C7.52344 7.96875 7.18359 7.65234 7.18359 7.17188C7.18359 6.66797 7.52344 6.375 7.99219 6.375H15.9023C16.3711 6.375 16.7227 6.66797 16.7227 7.17188C16.7227 7.65234 16.3711 7.96875 15.9023 7.96875H12.9023V16.4414C12.9023 17.1094 12.5625 17.543 11.918 17.543Z" fill="black" fill-opacity="0.85"/>
</svg>
