<svg width="22" height="22" viewBox="0 0 22 22" fill="none" xmlns="http://www.w3.org/2000/svg">
<path d="M3.67969 21.5977H17.8945C20.3555 21.5977 21.5742 20.3789 21.5742 17.9648V3.65625C21.5742 1.24219 20.3555 0.0234375 17.8945 0.0234375H3.67969C1.23047 0.0234375 0 1.23047 0 3.65625V17.9648C0 20.3906 1.23047 21.5977 3.67969 21.5977Z" fill="#FFCC00"/>
<path d="M10.7695 16.3828C10.1367 16.3828 9.80859 15.9258 9.80859 15.2812V6.80859H6.84375C6.375 6.80859 6.02344 6.49219 6.02344 6.01172C6.02344 5.50781 6.375 5.21484 6.84375 5.21484H14.7422C15.2109 5.21484 15.5625 5.50781 15.5625 6.01172C15.5625 6.49219 15.2109 6.80859 14.7422 6.80859H11.7422V15.2812C11.7422 15.9492 11.4023 16.3828 10.7695 16.3828Z" fill="black" fill-opacity="0.85"/>
</svg>
