<svg width="29" height="19" viewBox="0 0 29 19" fill="none" xmlns="http://www.w3.org/2000/svg">
<path d="M0 1.06641V4.91016C0 5.55469 0.410156 5.95312 1.04297 5.95312H27.2461C27.8789 5.95312 28.2891 5.55469 28.2891 4.91016V1.06641C28.2891 0.433594 27.8789 0.0234375 27.2461 0.0234375H1.04297C0.410156 0.0234375 0 0.433594 0 1.06641ZM1.88672 2.22656C1.88672 2.05078 2.02734 1.91016 2.20312 1.91016H26.0859C26.2617 1.91016 26.4023 2.05078 26.4023 2.22656V3.75C26.4023 3.92578 26.2617 4.06641 26.0859 4.06641H2.20312C2.02734 4.06641 1.88672 3.92578 1.88672 3.75V2.22656ZM1.04297 18.3398H4.88672C5.53125 18.3398 5.92969 17.9414 5.92969 17.3086V4.6875H4.05469V16.1836C4.05469 16.3477 3.90234 16.4883 3.72656 16.4883H2.20312C2.02734 16.4883 1.88672 16.3477 1.88672 16.1836V4.53516H0V17.3086C0 17.9414 0.410156 18.3398 1.04297 18.3398ZM23.3906 18.3398H27.2461C27.8789 18.3398 28.2891 17.9414 28.2891 17.3086V4.53516H26.4023V16.1836C26.4023 16.3477 26.2617 16.4883 26.0859 16.4883H24.5508C24.375 16.4883 24.2344 16.3477 24.2344 16.1836V4.6875H22.3477V17.3086C22.3477 17.9414 22.7578 18.3398 23.3906 18.3398Z" fill="black" fill-opacity="0.85"/>
</svg>
