<svg width="24" height="24" viewBox="0 0 24 24" fill="none" xmlns="http://www.w3.org/2000/svg">
<path d="M11.9531 23.9062C18.4922 23.9062 23.9062 18.4805 23.9062 11.9531C23.9062 5.41406 18.4805 0 11.9414 0C5.41406 0 0 5.41406 0 11.9531C0 18.4805 5.42578 23.9062 11.9531 23.9062ZM11.9531 21.9141C6.42188 21.9141 2.00391 17.4844 2.00391 11.9531C2.00391 6.42188 6.41016 1.99219 11.9414 1.99219C17.4727 1.99219 21.9141 6.42188 21.9141 11.9531C21.9141 17.4844 17.4844 21.9141 11.9531 21.9141Z" fill="#007AFF"/>
<path d="M9.52734 18.0469C10.2422 18.75 10.9453 18.7617 11.6719 18.0352L17.332 12.4102C17.7891 11.9766 18.1172 11.6602 18.1172 10.9453V8.74219C18.1172 8.21484 17.9766 7.91016 17.625 7.54688L16.6055 6.53906C16.2422 6.1875 15.9375 5.96484 15.4102 5.96484H13.1367C12.4336 5.96484 12.1055 6.29297 11.6602 6.75L6.04688 12.4219C5.32031 13.1484 5.33203 13.8398 6.03516 14.543L9.52734 18.0469ZM14.0273 10.0547C13.6992 9.73828 13.6992 9.19922 14.0273 8.87109C14.3438 8.54297 14.8828 8.54297 15.1992 8.87109C15.5273 9.1875 15.5273 9.71484 15.1992 10.043C14.8711 10.3828 14.3555 10.3828 14.0273 10.0547Z" fill="black" fill-opacity="0.85"/>
</svg>
