<svg width="22" height="22" viewBox="0 0 22 22" fill="none" xmlns="http://www.w3.org/2000/svg">
<path d="M3.67969 21.5977H17.8945C20.3555 21.5977 21.5742 20.3789 21.5742 17.9648V3.65625C21.5742 1.24219 20.3555 0.0234375 17.8945 0.0234375H3.67969C1.23047 0.0234375 0 1.23047 0 3.65625V17.9648C0 20.3906 1.23047 21.5977 3.67969 21.5977Z" fill="#FFCC00"/>
<path d="M8.2964 17.0625L4.71046 13.4531C3.97218 12.7266 3.97218 12.0117 4.72218 11.2617L10.4995 5.41406C10.9565 4.94531 11.2847 4.60547 12.0112 4.60547H14.3784C14.9175 4.60547 15.2339 4.83984 15.6089 5.20312L16.6518 6.23438C17.0268 6.60938 17.1675 6.92578 17.1675 7.47656V9.73828C17.1675 10.4883 16.8159 10.8047 16.3589 11.2617L10.5112 17.0508C9.76124 17.8008 9.03468 17.7891 8.2964 17.0625ZM12.9487 8.82422C13.2768 9.16406 13.8159 9.16406 14.1557 8.8125C14.4956 8.47266 14.4956 7.93359 14.1557 7.60547C13.8159 7.26562 13.2768 7.26562 12.9487 7.60547C12.6089 7.94531 12.6089 8.49609 12.9487 8.82422Z" fill="black" fill-opacity="0.85"/>
</svg>
