<svg width="24" height="24" viewBox="0 0 24 24" fill="none" xmlns="http://www.w3.org/2000/svg">
<path d="M11.9531 23.918C18.4922 23.918 23.9062 18.5039 23.9062 11.9648C23.9062 5.4375 18.4805 0.0117188 11.9414 0.0117188C5.41406 0.0117188 0 5.4375 0 11.9648C0 18.5039 5.42578 23.918 11.9531 23.918Z" fill="#FFCC00"/>
<path d="M9.45707 18.2461L5.85942 14.625C5.13285 13.8984 5.13285 13.1836 5.88285 12.4336L11.6484 6.58594C12.1172 6.12891 12.4453 5.77734 13.1719 5.77734H15.5273C16.0781 5.77734 16.3945 6.01172 16.7578 6.38672L17.8125 7.41797C18.1875 7.78125 18.3281 8.09766 18.3281 8.66016V10.9102C18.3281 11.6602 17.9766 11.9766 17.5195 12.4453L11.6719 18.2344C10.9219 18.9727 10.1953 18.9727 9.45707 18.2461ZM14.1094 10.0078C14.4375 10.3359 14.9648 10.3359 15.3164 9.99609C15.6562 9.65625 15.6562 9.11719 15.3164 8.77734C14.9766 8.4375 14.4375 8.4375 14.1094 8.77734C13.7695 9.12891 13.7695 9.66797 14.1094 10.0078Z" fill="black" fill-opacity="0.85"/>
</svg>
