<svg width="30" height="28" viewBox="0 0 30 28" fill="none" xmlns="http://www.w3.org/2000/svg">
<path d="M3.57422 25.2656H16.3359C16.3242 25.1484 16.3125 25.0547 16.3008 24.9375L16.1602 23.3789H3.59766C2.47266 23.3789 1.88672 22.7812 1.88672 21.6445V9.55078C1.88672 9.10547 1.91016 8.91797 2.08594 8.68359L4.37109 5.66016C4.54688 5.42578 4.60547 5.22656 4.60547 4.93359V2.83594C4.60547 2.19141 4.89844 1.88672 5.48438 1.88672H15.3164C15.8906 1.88672 16.1836 2.19141 16.1836 2.83594V4.93359C16.1836 5.22656 16.2539 5.42578 16.418 5.66016L18.7031 8.68359C18.8672 8.88281 18.8906 9.02344 18.8906 9.32812H20.7891C20.7773 8.60156 20.6719 8.26172 20.3086 7.76953L18.0703 4.80469V2.57812C18.0703 0.914062 17.0977 0 15.3281 0H5.46094C3.70312 0 2.71875 0.914062 2.71875 2.57812V4.80469L0.492188 7.76953C0.105469 8.28516 0 8.63672 0 9.45703V21.7383C0 24.082 1.19531 25.2656 3.57422 25.2656ZM7.21875 5.21484H13.5352C13.9453 5.21484 14.2852 4.875 14.2852 4.45312C14.2852 4.04297 13.9453 3.67969 13.5352 3.67969H7.21875C6.80859 3.67969 6.46875 4.04297 6.46875 4.45312C6.46875 4.875 6.80859 5.21484 7.21875 5.21484Z" fill="#007AFF"/>
<path d="M20.379 27.2577H25.8048C27.3517 27.2577 28.1251 26.4726 28.2892 24.7851L29.5196 12.0233C29.5782 11.3671 29.2032 10.9335 28.5587 10.9335H17.6134C16.9806 10.9335 16.6056 11.3788 16.6642 12.0233L17.8946 24.7851C18.0587 26.4726 18.8204 27.2577 20.379 27.2577ZM20.4493 25.4296C19.9806 25.4296 19.7462 25.2187 19.6876 24.7147L18.5626 12.7616H27.6212L26.4845 24.7147C26.4376 25.2187 26.2032 25.4296 25.7345 25.4296H20.4493ZM22.3243 11.5311H23.9415L24.0118 10.4296C24.0587 9.84365 24.2345 9.50381 24.6681 9.1874L28.5821 6.3749C29.4728 5.74209 28.5353 4.39443 27.586 5.08584L23.8126 7.81631C22.9103 8.47256 22.5235 9.1874 22.4181 10.3358L22.3243 11.5311Z" fill="black" fill-opacity="0.85"/>
</svg>
