<svg width="25" height="30" viewBox="0 0 25 30" fill="none" xmlns="http://www.w3.org/2000/svg">
<path d="M12.4473 16.875C16.9355 16.875 20.6035 13.207 20.6035 8.71875C20.6035 8.58984 20.5918 8.40234 20.5801 8.23828C22.5371 8.00391 24.0019 6.31641 24.0019 4.30078C24.0019 2.08594 22.1855 0.269531 19.959 0.269531C18.7051 0.269531 17.5332 0.855469 16.7949 1.82812C15.4941 1.00781 13.9824 0.5625 12.4473 0.5625C10.9121 0.5625 9.40038 1.00781 8.0996 1.82812C7.36132 0.855469 6.18945 0.269531 4.93554 0.269531C2.70898 0.269531 0.892571 2.08594 0.892571 4.30078C0.892571 6.31641 2.35741 8.00391 4.31445 8.23828C4.30273 8.40234 4.29101 8.58984 4.29101 8.71875C4.29101 13.207 7.95898 16.875 12.4473 16.875ZM12.4473 15.1875C8.88476 15.1875 5.97851 12.2812 5.97851 8.71875C5.97851 8.32031 6.00195 7.72266 6.2832 6.71484L6.15429 6.59766C5.74413 6.70312 5.32226 6.73828 4.93554 6.73828C3.61132 6.73828 2.54491 5.66016 2.54491 4.33594C2.54491 3.02344 3.61132 1.95703 4.93554 1.95703C6.17773 1.95703 7.20898 2.92969 7.29101 4.13672C7.30273 4.24219 7.29101 4.37109 7.27929 4.47656L7.52538 4.54688C8.80273 3.05859 10.5371 2.23828 12.4473 2.23828C14.3574 2.23828 16.0918 3.05859 17.3691 4.54688L17.6152 4.47656C17.6035 4.37109 17.5918 4.24219 17.6035 4.13672C17.6855 2.92969 18.7168 1.95703 19.959 1.95703C21.2832 1.95703 22.3496 3.02344 22.3496 4.33594C22.3496 5.66016 21.2832 6.73828 19.959 6.73828C19.5723 6.73828 19.1504 6.70312 18.7402 6.59766L18.6113 6.71484C18.8926 7.72266 18.916 8.32031 18.916 8.71875C18.916 12.2812 16.0098 15.1875 12.4473 15.1875ZM12.4707 16.5469C14.6504 16.5469 16.4551 14.7656 16.4551 12.5625C16.4551 10.3711 14.6621 8.57812 12.4707 8.57812C10.2793 8.57812 8.48632 10.3828 8.48632 12.5625C8.48632 14.7773 10.2676 16.5469 12.4707 16.5469ZM12.4707 15.0938C11.0762 15.0938 9.93945 13.957 9.93945 12.5625C9.93945 11.1797 11.0762 10.043 12.4707 10.043C13.8535 10.043 14.9902 11.1797 14.9902 12.5625C14.9902 13.957 13.8535 15.0938 12.4707 15.0938ZM9.62304 8.19141C10.1855 8.19141 10.6426 7.73438 10.6426 7.17188C10.6426 6.60938 10.1855 6.15234 9.62304 6.15234C9.08398 6.15234 8.61523 6.60938 8.61523 7.17188C8.61523 7.73438 9.08398 8.19141 9.62304 8.19141ZM15.2832 8.19141C15.8223 8.19141 16.291 7.73438 16.291 7.17188C16.291 6.60938 15.8223 6.15234 15.2832 6.15234C14.7207 6.15234 14.2637 6.60938 14.2637 7.17188C14.2637 7.73438 14.7207 8.19141 15.2832 8.19141ZM12.4473 12.9258C13.0918 12.9258 14.1465 11.9531 14.1465 11.6953C14.1465 11.25 13.4199 10.6289 12.4473 10.6289C11.4629 10.6289 10.7129 11.25 10.7129 11.6953C10.7129 11.9531 11.8027 12.9258 12.4473 12.9258ZM7.2207 29.4492C9.6582 29.4492 11.5918 26.918 11.5918 23.7539C11.5918 20.625 9.6582 18.082 7.2207 18.082C4.77148 18.082 2.8496 20.625 2.8496 23.7539C2.8496 26.918 4.77148 29.4492 7.2207 29.4492ZM7.2207 27.6797C5.81445 27.6797 4.61913 25.9102 4.61913 23.7539C4.61913 21.6094 5.81445 19.8516 7.2207 19.8516C8.62695 19.8516 9.82226 21.6094 9.82226 23.7539C9.82226 25.9102 8.62695 27.6797 7.2207 27.6797ZM17.6973 29.4492C20.1465 29.4492 22.0684 26.918 22.0684 23.7539C22.0684 20.625 20.1465 18.082 17.6973 18.082C15.2598 18.082 13.3262 20.625 13.3262 23.7539C13.3262 26.918 15.2598 29.4492 17.6973 29.4492ZM17.6973 27.6797C16.291 27.6797 15.0957 25.9102 15.0957 23.7539C15.0957 21.6094 16.291 19.8516 17.6973 19.8516C19.1035 19.8516 20.2988 21.6094 20.2988 23.7539C20.2988 25.9102 19.1035 27.6797 17.6973 27.6797ZM4.10351 22.7109L4.15038 21.0586C3.21288 21.082 2.29882 20.5664 1.90038 19.6758C1.36132 18.4688 1.84179 17.0859 3.07226 16.5234L7.36132 14.5547L6.6582 13.043L2.35741 14.9883C0.306633 15.9141 -0.560554 18.3633 0.376946 20.3906C1.06835 21.8672 2.5332 22.7344 4.10351 22.7109ZM20.8144 22.7109C22.3848 22.7344 23.8496 21.8672 24.541 20.3906C25.4785 18.3633 24.6113 15.9141 22.5605 14.9883L18.2598 13.043L17.5566 14.5547L21.8457 16.5234C23.0762 17.0859 23.5566 18.4688 23.0176 19.6758C22.6191 20.5664 21.7051 21.082 20.7676 21.0586L20.8144 22.7109ZM9.2832 27.9023C11.4512 28.3828 13.3848 28.3945 15.5762 27.9023L15.248 26.2383C13.3848 26.707 11.4746 26.707 9.61132 26.2383L9.2832 27.9023Z" fill="black" fill-opacity="0.85"/>
</svg>
