<svg width="24" height="24" viewBox="0 0 24 24" fill="none" xmlns="http://www.w3.org/2000/svg">
<path d="M11.9531 23.9062C18.4922 23.9062 23.9062 18.4805 23.9062 11.9531C23.9062 5.41406 18.4805 0 11.9414 0C5.41406 0 0 5.41406 0 11.9531C0 18.4805 5.42578 23.9062 11.9531 23.9062ZM11.9531 21.9141C6.42188 21.9141 2.00391 17.4844 2.00391 11.9531C2.00391 6.42188 6.41016 1.99219 11.9414 1.99219C17.4727 1.99219 21.9141 6.42188 21.9141 11.9531C21.9141 17.4844 17.4844 21.9141 11.9531 21.9141Z" fill="#007AFF"/>
<path d="M11.9414 8.56641C13.9336 8.56641 14.5898 8.75391 14.5898 9.30469V9.46875C14.5898 10.1016 14.7539 10.5234 15.5625 10.6055L17.7656 10.8398C18.5977 10.9219 19.0547 10.7109 19.0547 9.82031C19.0547 7.33594 16.0078 6.09375 11.9414 6.09375C7.88672 6.09375 4.83984 7.33594 4.83984 9.82031C4.83984 10.7109 5.30859 10.9219 6.15234 10.8398L8.33203 10.6055C9.14062 10.5234 9.31641 10.1016 9.31641 9.46875V9.29297C9.31641 8.80078 10.125 8.56641 11.9414 8.56641ZM6.58594 14.25H7.66406C8.08594 14.25 8.33203 14.0273 8.33203 13.582V12.4688C8.33203 12.0586 8.08594 11.8125 7.66406 11.8125H6.58594C6.14062 11.8125 5.88281 12.0586 5.88281 12.4688V13.582C5.88281 14.0273 6.14062 14.25 6.58594 14.25ZM9.78516 14.25H10.8867C11.3086 14.25 11.5664 14.0273 11.5664 13.582V12.4688C11.5664 12.0586 11.3086 11.8125 10.8867 11.8125H9.78516C9.33984 11.8125 9.11719 12.0586 9.11719 12.4688V13.582C9.11719 14.0273 9.33984 14.25 9.78516 14.25ZM12.9961 14.25H14.0742C14.5195 14.25 14.7656 14.0273 14.7656 13.582V12.4688C14.7656 12.0586 14.5195 11.8125 14.0742 11.8125H12.9961C12.5742 11.8125 12.3164 12.0586 12.3164 12.4688V13.582C12.3164 14.0273 12.5742 14.25 12.9961 14.25ZM16.207 14.25H17.2969C17.7188 14.25 17.9766 14.0273 17.9766 13.582V12.4688C17.9766 12.0586 17.7188 11.8125 17.2969 11.8125H16.207C15.7617 11.8125 15.5273 12.0586 15.5273 12.4688V13.582C15.5273 14.0273 15.7617 14.25 16.207 14.25ZM6.5625 17.4727H7.65234C8.08594 17.4727 8.33203 17.2266 8.33203 16.793V15.6914C8.33203 15.2695 8.08594 15.0117 7.65234 15.0117H6.5625C6.14062 15.0117 5.88281 15.2695 5.88281 15.6914V16.793C5.88281 17.2266 6.14062 17.4727 6.5625 17.4727ZM9.77344 17.4727H14.1094C14.5312 17.4727 14.7656 17.2266 14.7656 16.793V15.6914C14.7656 15.2695 14.5312 15.0117 14.1094 15.0117H9.77344C9.33984 15.0117 9.11719 15.2695 9.11719 15.6914V16.793C9.11719 17.2266 9.33984 17.4727 9.77344 17.4727ZM16.2188 17.4727H17.3086C17.7422 17.4727 17.9766 17.2266 17.9766 16.793V15.6914C17.9766 15.2695 17.7422 15.0117 17.3086 15.0117H16.2188C15.7852 15.0117 15.5273 15.2695 15.5273 15.6914V16.793C15.5273 17.2266 15.7852 17.4727 16.2188 17.4727Z" fill="black" fill-opacity="0.85"/>
</svg>
