<svg width="24" height="24" viewBox="0 0 24 24" fill="none" xmlns="http://www.w3.org/2000/svg">
<path d="M11.9531 23.9062C18.4922 23.9062 23.9062 18.4805 23.9062 11.9531C23.9062 5.41406 18.4805 0 11.9414 0C5.41406 0 0 5.41406 0 11.9531C0 18.4805 5.42578 23.9062 11.9531 23.9062ZM11.9531 21.9141C6.42188 21.9141 2.00391 17.4844 2.00391 11.9531C2.00391 6.42188 6.41016 1.99219 11.9414 1.99219C17.4727 1.99219 21.9141 6.42188 21.9141 11.9531C21.9141 17.4844 17.4844 21.9141 11.9531 21.9141Z" fill="#007AFF"/>
<path d="M13.6992 17.871C14.3086 17.2968 14.1211 16.8163 13.5 16.3476L11.9062 15.0468C11.3086 14.5663 10.9453 14.7772 10.5117 15.164L10.4062 15.2577C9.99606 15.5858 9.46872 15.3046 8.15622 14.0272C6.94919 12.8085 6.59763 12.1405 6.92575 11.7772L7.0195 11.6718C7.42966 11.2147 7.60544 10.8515 7.13669 10.2655L5.84763 8.67181C5.34372 8.07415 4.91013 7.88665 4.30075 8.47259C2.66013 10.1249 3.85544 12.9608 6.55075 15.6444C9.21091 18.328 12.0586 19.5233 13.6992 17.871ZM9.16403 10.6171H10.1953C10.6055 10.6171 10.8281 10.371 10.8281 9.98431V8.96477C10.8281 8.55462 10.6055 8.34368 10.1953 8.34368H9.16403C8.77731 8.34368 8.54294 8.55462 8.54294 8.96477V9.98431C8.54294 10.371 8.77731 10.6171 9.16403 10.6171ZM12.1758 10.6171H13.207C13.5938 10.6171 13.8164 10.371 13.8164 9.98431V8.96477C13.8164 8.55462 13.5938 8.34368 13.207 8.34368H12.1758C11.7773 8.34368 11.5195 8.55462 11.5195 8.96477V9.98431C11.5195 10.371 11.7773 10.6171 12.1758 10.6171ZM15.1523 10.6171H16.1836C16.582 10.6171 16.8281 10.371 16.8281 9.98431V8.96477C16.8281 8.55462 16.582 8.34368 16.1836 8.34368H15.1523C14.7656 8.34368 14.543 8.55462 14.543 8.96477V9.98431C14.543 10.371 14.7656 10.6171 15.1523 10.6171ZM18.1523 10.6171H19.1836C19.6055 10.6171 19.8281 10.371 19.8281 9.98431V8.96477C19.8281 8.55462 19.6055 8.34368 19.1836 8.34368H18.1523C17.7656 8.34368 17.543 8.55462 17.543 8.96477V9.98431C17.543 10.371 17.7656 10.6171 18.1523 10.6171ZM9.16403 13.6171H10.1836C10.6055 13.6171 10.8281 13.3944 10.8281 12.9843V11.9647C10.8281 11.5546 10.6055 11.3437 10.1836 11.3437H9.16403C8.75388 11.3437 8.54294 11.5546 8.54294 11.9647V12.9843C8.54294 13.3944 8.75388 13.6171 9.16403 13.6171ZM12.1641 13.6171H16.207C16.6055 13.6171 16.8281 13.3944 16.8281 12.9843V11.9647C16.8281 11.5546 16.6055 11.3437 16.207 11.3437H12.1641C11.7656 11.3437 11.5195 11.5546 11.5195 11.9647V12.9843C11.5195 13.3944 11.7656 13.6171 12.1641 13.6171ZM18.1641 13.6171H19.207C19.6172 13.6171 19.8281 13.3944 19.8281 12.9843V11.9647C19.8281 11.5546 19.6172 11.3437 19.207 11.3437H18.1641C17.7891 11.3437 17.543 11.5546 17.543 11.9647V12.9843C17.543 13.3944 17.7891 13.6171 18.1641 13.6171Z" fill="black" fill-opacity="0.85"/>
</svg>
