<svg width="24" height="24" viewBox="0 0 24 24" fill="none" xmlns="http://www.w3.org/2000/svg">
<path d="M11.9531 23.918C18.4922 23.918 23.9062 18.5039 23.9062 11.9648C23.9062 5.4375 18.4805 0.0117188 11.9414 0.0117188C5.41406 0.0117188 0 5.4375 0 11.9648C0 18.5039 5.42578 23.918 11.9531 23.918Z" fill="#FFCC00"/>
<path d="M13.6406 18.1405C11.9531 19.8397 9.01168 18.6093 6.26949 15.8554C3.49215 13.0897 2.26168 10.1601 3.94918 8.44913C4.57027 7.83975 5.01558 8.03897 5.54293 8.66007L6.87887 10.3007C7.35934 10.8983 7.17184 11.2733 6.74996 11.7421L6.65621 11.8593C6.32808 12.246 6.67965 12.9257 7.93355 14.1796C9.28121 15.4921 9.82027 15.7851 10.2539 15.4452L10.3594 15.3515C10.8047 14.953 11.168 14.7304 11.7891 15.2343L13.4414 16.5819C14.0742 17.0624 14.2734 17.5429 13.6406 18.1405ZM9.19918 10.4413C8.80074 10.4413 8.56637 10.1835 8.56637 9.77335V8.73038C8.56637 8.29679 8.80074 8.08585 9.19918 8.08585H10.2656C10.6875 8.08585 10.9219 8.29679 10.9219 8.73038V9.77335C10.9219 10.1835 10.6875 10.4413 10.2656 10.4413H9.19918ZM12.3047 10.4413C11.8945 10.4413 11.625 10.1835 11.625 9.77335V8.73038C11.625 8.29679 11.8945 8.08585 12.3047 8.08585H13.3711C13.7695 8.08585 14.0039 8.29679 14.0039 8.73038V9.77335C14.0039 10.1835 13.7695 10.4413 13.3711 10.4413H12.3047ZM15.375 10.4413C14.9766 10.4413 14.7422 10.1835 14.7422 9.77335V8.73038C14.7422 8.29679 14.9766 8.08585 15.375 8.08585H16.4414C16.8516 8.08585 17.1094 8.29679 17.1094 8.73038V9.77335C17.1094 10.1835 16.8516 10.4413 16.4414 10.4413H15.375ZM18.4688 10.4413C18.0703 10.4413 17.8359 10.1835 17.8359 9.77335V8.73038C17.8359 8.29679 18.0703 8.08585 18.4688 8.08585H19.5352C19.9688 8.08585 20.2031 8.29679 20.2031 8.73038V9.77335C20.2031 10.1835 19.9688 10.4413 19.5352 10.4413H18.4688ZM9.19918 13.5351C8.7773 13.5351 8.56637 13.3007 8.56637 12.8788V11.8241C8.56637 11.3905 8.7773 11.1796 9.19918 11.1796H10.2422C10.6875 11.1796 10.9219 11.3905 10.9219 11.8241V12.8788C10.9219 13.3007 10.6875 13.5351 10.2422 13.5351H9.19918ZM12.293 13.5351C11.8828 13.5351 11.625 13.3007 11.625 12.8788V11.8241C11.625 11.3905 11.8828 11.1796 12.293 11.1796H16.4648C16.875 11.1796 17.1094 11.3905 17.1094 11.8241V12.8788C17.1094 13.3007 16.875 13.5351 16.4648 13.5351H12.293ZM18.4805 13.5351C18.0938 13.5351 17.8359 13.3007 17.8359 12.8788V11.8241C17.8359 11.3905 18.0938 11.1796 18.4805 11.1796H19.5586C19.9805 11.1796 20.2031 11.3905 20.2031 11.8241V12.8788C20.2031 13.3007 19.9805 13.5351 19.5586 13.5351H18.4805Z" fill="black" fill-opacity="0.85"/>
</svg>
