<svg width="16" height="22" viewBox="0 0 16 22" fill="none" xmlns="http://www.w3.org/2000/svg">
<path d="M0 1.3125C0 1.73438 0.339844 2.07422 0.773438 2.07422H15.0352C15.4688 2.07422 15.8086 1.73438 15.8086 1.3125C15.8086 0.890625 15.4688 0.550781 15.0352 0.550781H0.773438C0.339844 0.550781 0 0.890625 0 1.3125ZM0 5.68359C0 6.19922 0.421875 6.62109 0.9375 6.62109H6.78516V20.7305C6.78516 21.3516 7.27734 21.8555 7.89844 21.8555C8.53125 21.8555 9.02344 21.3516 9.02344 20.7305V6.62109H14.8594C15.3867 6.62109 15.8086 6.19922 15.8086 5.68359C15.8086 5.16797 15.3867 4.74609 14.8594 4.74609H0.9375C0.421875 4.74609 0 5.16797 0 5.68359Z" fill="black" fill-opacity="0.85"/>
</svg>
