<svg width="22" height="22" viewBox="0 0 22 22" fill="none" xmlns="http://www.w3.org/2000/svg">
<path d="M3.67969 21.5977H17.8945C20.3555 21.5977 21.5742 20.3789 21.5742 17.9648V3.65625C21.5742 1.24219 20.3555 0.0234375 17.8945 0.0234375H3.67969C1.23047 0.0234375 0 1.23047 0 3.65625V17.9648C0 20.3906 1.23047 21.5977 3.67969 21.5977Z" fill="#FFCC00"/>
<path d="M6.48047 8.20312C6.48047 7.79297 6.75 7.51172 7.18359 7.51172H14.4023C14.8359 7.51172 15.1055 7.79297 15.1055 8.20312C15.1055 8.63672 14.8359 8.91796 14.4023 8.91796H11.5781V16.0898C11.5781 16.582 11.2617 16.8867 10.8047 16.8867C10.3477 16.8867 10.0078 16.582 10.0078 16.0898V8.91796H7.18359C6.75 8.91796 6.48047 8.63672 6.48047 8.20312ZM6.45703 5.88281C6.45703 5.53125 6.70312 5.29688 7.03125 5.29688H14.543C14.8828 5.29688 15.1172 5.53125 15.1172 5.88281C15.1172 6.22266 14.8828 6.49219 14.543 6.49219H7.03125C6.70312 6.49219 6.45703 6.22266 6.45703 5.88281Z" fill="black" fill-opacity="0.85"/>
</svg>
