<svg width="24" height="24" viewBox="0 0 24 24" fill="none" xmlns="http://www.w3.org/2000/svg">
<path d="M11.9531 23.9062C18.4922 23.9062 23.9062 18.4805 23.9062 11.9531C23.9062 5.41406 18.4805 0 11.9414 0C5.41406 0 0 5.41406 0 11.9531C0 18.4805 5.42578 23.9062 11.9531 23.9062Z" fill="#FFCC00"/>
<path d="M7.64062 9.36328C7.64062 8.95312 7.91016 8.67188 8.34375 8.67188H15.5508C15.9961 8.67188 16.2656 8.95312 16.2656 9.36328C16.2656 9.79688 15.9961 10.0781 15.5508 10.0781H12.7383V17.25C12.7383 17.7422 12.4219 18.0469 11.9648 18.0469C11.5078 18.0469 11.168 17.7422 11.168 17.25V10.0781H8.34375C7.91016 10.0781 7.64062 9.79688 7.64062 9.36328ZM7.61719 7.04297C7.61719 6.69141 7.86328 6.45703 8.19141 6.45703H15.6914C16.043 6.45703 16.2773 6.69141 16.2773 7.04297C16.2773 7.38281 16.043 7.65234 15.6914 7.65234H8.19141C7.86328 7.65234 7.61719 7.38281 7.61719 7.04297Z" fill="black" fill-opacity="0.85"/>
</svg>
