<svg width="24" height="24" viewBox="0 0 24 24" fill="none" xmlns="http://www.w3.org/2000/svg">
<path d="M11.9531 23.9062C18.4922 23.9062 23.9062 18.4805 23.9062 11.9531C23.9062 5.41406 18.4805 0 11.9414 0C5.41406 0 0 5.41406 0 11.9531C0 18.4805 5.42578 23.9062 11.9531 23.9062ZM11.9531 21.9141C6.42188 21.9141 2.00391 17.4844 2.00391 11.9531C2.00391 6.42188 6.41016 1.99219 11.9414 1.99219C17.4727 1.99219 21.9141 6.42188 21.9141 11.9531C21.9141 17.4844 17.4844 21.9141 11.9531 21.9141Z" fill="#007AFF"/>
<path d="M17.4487 6.41013C15.937 4.91013 13.3354 5.10935 11.6011 6.832C10.605 7.85153 10.1714 9.12888 10.1714 10.3477C10.1479 12.1641 9.96048 13.1953 8.27298 14.8594L8.99954 15.5859C10.6753 13.8984 11.6714 13.7461 13.4995 13.6992C14.7417 13.6641 15.9956 13.2656 17.0151 12.2578C18.7495 10.5117 18.9604 7.91013 17.4487 6.41013ZM16.7104 7.13669C17.8354 8.26169 17.6597 10.1602 16.2886 11.5195C14.9057 12.8906 13.019 13.0781 11.9057 11.9531C10.769 10.8398 10.9565 8.94138 12.3511 7.57028C13.7104 6.19919 15.5972 6.01169 16.7104 7.13669ZM5.69485 17.7422L6.09329 18.1523C6.37454 18.4336 6.7847 18.4336 7.06595 18.1523L9.38626 15.8203C9.66751 15.5273 9.66751 15.1406 9.38626 14.8477L8.98782 14.4492C8.71829 14.168 8.30813 14.168 8.02688 14.4492L5.69485 16.793C5.42532 17.0742 5.4136 17.4609 5.69485 17.7422ZM17.0854 11.25L17.6597 10.6406L13.2768 6.24606L12.6792 6.84372L17.0854 11.25ZM15.4214 12.8789L16.0425 12.3047L11.6362 7.89841L11.0386 8.48435L15.4214 12.8789ZM10.9917 10.7812L11.355 11.6133L16.3003 6.66794L15.5854 6.19919L10.9917 10.7812ZM12.4214 12.5391L13.1831 12.9375L17.73 8.40231L17.2495 7.67575L12.4214 12.5391Z" fill="black" fill-opacity="0.85"/>
</svg>
