<svg width="24" height="24" viewBox="0 0 24 24" fill="none" xmlns="http://www.w3.org/2000/svg">
<path d="M11.9531 23.9062C18.4922 23.9062 23.9062 18.4805 23.9062 11.9531C23.9062 5.41406 18.4805 0 11.9414 0C5.41406 0 0 5.41406 0 11.9531C0 18.4805 5.42578 23.9062 11.9531 23.9062Z" fill="#FFCC00"/>
<path d="M17.6245 6.24612C19.1831 7.793 18.9722 10.4648 17.1792 12.2695C16.1362 13.3008 14.8354 13.7109 13.5581 13.7578C11.8823 13.793 10.8862 13.9336 9.48001 15.1758C9.58548 15.4336 9.5386 15.7148 9.31595 15.9375L6.92532 18.3398C6.64407 18.6328 6.19876 18.6328 5.92923 18.3398L5.51907 17.918C5.2261 17.625 5.23782 17.2266 5.51907 16.9453L7.92142 14.5312C8.14407 14.2969 8.46048 14.25 8.71829 14.3906C9.94876 12.9727 10.0893 11.9648 10.1128 10.3008C10.1245 9.04691 10.5698 7.72269 11.5893 6.67972C13.394 4.89847 16.0659 4.69925 17.6245 6.24612ZM13.7573 6.50394L14.4956 7.2305L15.4448 6.28128C14.9057 6.18753 14.3198 6.26956 13.7573 6.50394ZM15.0933 7.85159L16.1128 8.85941L17.3198 7.62894C17.2026 7.40628 17.0503 7.19534 16.8628 6.99612C16.6987 6.84378 16.5229 6.70315 16.3472 6.59769L15.0933 7.85159ZM16.7222 9.4805L17.3667 10.125C17.5776 9.62112 17.6597 9.09378 17.5893 8.61331L16.7222 9.4805ZM11.8823 8.00394L12.7964 8.918L13.8745 7.85159L12.9722 6.94925C12.7612 7.08987 12.5503 7.25394 12.3628 7.44144C12.1753 7.62894 12.0229 7.81644 11.8823 8.00394ZM13.4057 9.53909L14.4253 10.5586L15.5034 9.4805L14.4956 8.47269L13.4057 9.53909ZM15.0347 11.168L15.855 11.9883C16.0425 11.8594 16.2417 11.6953 16.4175 11.5078C16.605 11.3203 16.7925 11.1094 16.9331 10.9102L16.1245 10.0898L15.0347 11.168ZM11.1909 10.5352L12.187 9.53909L11.437 8.80081C11.1792 9.37503 11.0972 9.97269 11.1909 10.5352ZM11.519 11.4375C11.6128 11.625 11.7534 11.7891 11.9175 11.9531C12.105 12.1523 12.3276 12.3047 12.5737 12.4219L13.8159 11.168L12.8081 10.1484L11.519 11.4375ZM13.5229 12.6797C14.0268 12.7383 14.5542 12.6562 15.0698 12.4336L14.4253 11.7773L13.5229 12.6797Z" fill="black" fill-opacity="0.85"/>
</svg>
