<svg width="24" height="24" viewBox="0 0 24 24" fill="none" xmlns="http://www.w3.org/2000/svg">
<path d="M11.9531 23.9062C18.4922 23.9062 23.9062 18.4805 23.9062 11.9531C23.9062 5.41406 18.4805 0 11.9414 0C5.41406 0 0 5.41406 0 11.9531C0 18.4805 5.42578 23.9062 11.9531 23.9062ZM11.9531 21.9141C6.42188 21.9141 2.00391 17.4844 2.00391 11.9531C2.00391 6.42188 6.41016 1.99219 11.9414 1.99219C17.4727 1.99219 21.9141 6.42188 21.9141 11.9531C21.9141 17.4844 17.4844 21.9141 11.9531 21.9141Z" fill="#007AFF"/>
<path d="M5.74219 10.9336C6.08203 11.0273 6.45703 11.0742 6.85547 11.0742C9.07031 11.0742 10.7578 9.39844 10.7578 7.17188C10.7578 6.70312 10.6875 6.26953 10.5352 5.85938C8.08594 6.42188 6.17578 8.4375 5.74219 10.9336ZM11.9297 18.2695C12.1055 18.2695 12.293 18.2695 12.4688 18.2461C12.3047 17.7773 12.2344 17.2852 12.2344 16.7695C12.2344 14.1211 14.3672 11.9648 17.0273 11.9648C17.4375 11.9648 17.8242 12.0234 18.2227 12.1289C18.2227 12.082 18.2227 12.0352 18.2227 11.9883C18.2227 8.54297 15.3633 5.69531 11.9297 5.69531C11.7539 5.69531 11.6016 5.70703 11.4258 5.71875C11.5781 6.17578 11.6484 6.65625 11.6484 7.17188C11.6484 9.82031 9.50391 11.9648 6.85547 11.9648C6.44531 11.9648 6.03516 11.918 5.64844 11.8125C5.64844 11.8711 5.64844 11.9297 5.64844 11.9883C5.64844 15.4219 8.49609 18.2695 11.9297 18.2695ZM13.3594 18.1055C15.7969 17.5195 17.7188 15.5039 18.1289 13.0195C17.7773 12.9141 17.4258 12.8555 17.0273 12.8555C14.8008 12.8555 13.125 14.543 13.125 16.7695C13.125 17.25 13.1953 17.6953 13.3594 18.1055Z" fill="black" fill-opacity="0.85"/>
</svg>
