<svg width="26" height="26" viewBox="0 0 26 26" fill="none" xmlns="http://www.w3.org/2000/svg">
<path d="M23.2646 2.72757C20.3936 -0.143528 15.4014 0.231472 12.0615 3.5596C10.1279 5.50491 9.31934 7.91898 9.2959 10.2979C9.24902 13.8252 8.90918 15.8643 5.66309 19.1104L6.88184 20.3174C10.1162 17.0947 12.1436 16.8135 15.6709 16.6963C18.085 16.626 20.4639 15.876 22.4209 13.9189C25.7607 10.5791 26.1357 5.58694 23.2646 2.72757ZM22.0107 3.96976C24.3193 6.29007 24.0498 9.80569 21.1787 12.665C18.2842 15.5479 14.7686 15.8291 12.4717 13.5205C10.1514 11.2236 10.4209 7.69632 13.3154 4.81351C16.1865 1.94241 19.7139 1.67288 22.0107 3.96976ZM11.2178 14.7744C11.5459 15.126 11.9443 15.4072 12.3545 15.665C11.2061 15.8643 10.1279 16.251 8.96777 17.0244C9.74121 15.876 10.1279 14.7861 10.3154 13.6377C10.5615 14.0479 10.8662 14.4346 11.2178 14.7744ZM0.413086 24.7705L1.18652 25.5557C1.7373 26.083 2.53418 26.083 3.07324 25.5557L7.6084 21.0088C8.15918 20.458 8.15918 19.6611 7.6084 19.1221L6.83496 18.3369C6.2959 17.7979 5.4873 17.7979 4.94824 18.3369L0.413086 22.8955C-0.137695 23.4229 -0.137695 24.2197 0.413086 24.7705ZM10.21 10.1572L10.7959 10.7432L19.2451 2.29398L18.6592 1.69632L10.21 10.1572ZM10.8662 12.8525L11.4404 13.4385L21.9287 2.96194L21.3662 2.36429L10.8662 12.8525ZM12.542 14.54L13.1396 15.126L23.6279 4.63773L23.042 4.04007L12.542 14.54ZM15.249 15.1963L15.8232 15.7939L24.2842 7.33304L23.6865 6.7471L15.249 15.1963ZM17.792 2.02444L23.8857 8.10648L24.4717 7.52054L18.3779 1.43851L17.792 2.02444ZM15.1436 2.57523L23.3936 10.8486L24.0029 10.251L15.7295 1.98929L15.1436 2.57523ZM13.4326 4.02835L21.9287 12.5479L22.5381 11.9502L14.0186 3.43069L13.4326 4.02835ZM11.9443 5.51663L20.4404 14.0361L21.0381 13.4385L12.5303 4.91898L11.9443 5.51663ZM10.4912 7.22757L18.7529 15.501L19.3389 14.915L11.0654 6.65335L10.4912 7.22757ZM9.91699 9.85257L16.0459 15.9932L16.6436 15.3955L10.5029 9.26663L9.91699 9.85257Z" fill="black" fill-opacity="0.85"/>
</svg>
