<svg width="24" height="24" viewBox="0 0 24 24" fill="none" xmlns="http://www.w3.org/2000/svg">
<path d="M11.9531 23.9062C18.4922 23.9062 23.9062 18.4805 23.9062 11.9531C23.9062 5.41406 18.4805 0 11.9414 0C5.41406 0 0 5.41406 0 11.9531C0 18.4805 5.42578 23.9062 11.9531 23.9062Z" fill="#FFCC00"/>
<path d="M17.6255 6.24612C19.1841 7.793 18.9732 10.4648 17.1802 12.2695C16.1372 13.3008 14.8364 13.7109 13.5591 13.7578C11.8833 13.793 10.8872 13.9336 9.48098 15.1758C9.58645 15.4336 9.53957 15.7148 9.31692 15.9375L6.92629 18.3398C6.64504 18.6328 6.19973 18.6328 5.9302 18.3398L5.52004 17.918C5.22707 17.625 5.23879 17.2266 5.52004 16.9453L7.92239 14.5312C8.14504 14.2969 8.46145 14.25 8.71926 14.3906C9.94973 12.9727 10.0903 11.9648 10.1138 10.3008C10.1255 9.04691 10.5708 7.72269 11.5903 6.67972C13.395 4.89847 16.0669 4.69925 17.6255 6.24612ZM13.7583 6.50394L14.4966 7.2305L15.4458 6.28128C14.9067 6.18753 14.3208 6.26956 13.7583 6.50394ZM15.0943 7.85159L16.1138 8.85941L17.3208 7.62894C17.2036 7.40628 17.0513 7.19534 16.8638 6.99612C16.6997 6.84378 16.5239 6.70315 16.3482 6.59769L15.0943 7.85159ZM16.7232 9.4805L17.3677 10.125C17.5786 9.62112 17.6607 9.09378 17.5903 8.61331L16.7232 9.4805ZM11.8833 8.00394L12.7974 8.918L13.8755 7.85159L12.9732 6.94925C12.7622 7.08987 12.5513 7.25394 12.3638 7.44144C12.1763 7.62894 12.0239 7.81644 11.8833 8.00394ZM13.4067 9.53909L14.4263 10.5586L15.5044 9.4805L14.4966 8.47269L13.4067 9.53909ZM15.0357 11.168L15.856 11.9883C16.0435 11.8594 16.2427 11.6953 16.4185 11.5078C16.606 11.3203 16.7935 11.1094 16.9341 10.9102L16.1255 10.0898L15.0357 11.168ZM11.1919 10.5352L12.188 9.53909L11.438 8.80081C11.1802 9.37503 11.0982 9.97269 11.1919 10.5352ZM11.52 11.4375C11.6138 11.625 11.7544 11.7891 11.9185 11.9531C12.106 12.1523 12.3286 12.3047 12.5747 12.4219L13.8169 11.168L12.8091 10.1484L11.52 11.4375ZM13.5239 12.6797C14.0278 12.7383 14.5552 12.6562 15.0708 12.4336L14.4263 11.7773L13.5239 12.6797Z" fill="black" fill-opacity="0.85"/>
</svg>
