<svg width="24" height="24" viewBox="0 0 24 24" fill="none" xmlns="http://www.w3.org/2000/svg">
<path d="M11.9531 23.918C18.4922 23.918 23.9062 18.5039 23.9062 11.9648C23.9062 5.4375 18.4805 0.0117188 11.9414 0.0117188C5.41406 0.0117188 0 5.4375 0 11.9648C0 18.5039 5.42578 23.918 11.9531 23.918Z" fill="#FFCC00"/>
<path d="M8.96515 17.0273C8.28547 17.0273 8.08625 16.4062 8.35578 15.8789L8.71906 15.1758H4.25422C3.68 15.1758 3.4925 14.625 3.71515 14.1797L7.2425 7.11328C7.35969 6.85547 7.60578 6.69141 7.86359 6.69141C8.1214 6.69141 8.35578 6.85547 8.4964 7.11328L10.6292 11.3555L13.1956 6.19922C13.3362 5.89453 13.6175 5.70703 13.9222 5.70703C14.2386 5.70703 14.5081 5.90625 14.6605 6.21094L19.4886 15.8789C19.7464 16.4062 19.5589 17.0273 18.8558 17.0273H8.96515ZM5.8714 14.2617H7.21906L7.86359 11.4727L8.50812 14.2617H9.17609L9.52765 13.5586L8.1214 10.6055C8.07453 10.4766 7.95734 10.4297 7.86359 10.4297C7.7464 10.4297 7.67609 10.4766 7.62922 10.6055L5.8714 14.2617ZM11.1565 16.1367H13.0433L13.9222 12.2461L14.8011 16.1367H16.6878L14.2737 11.0391C14.1917 10.8867 14.0628 10.8047 13.9222 10.8047C13.7698 10.8047 13.6409 10.8867 13.5706 11.0391L11.1565 16.1367Z" fill="black" fill-opacity="0.85"/>
</svg>
