<svg width="32" height="25" viewBox="0 0 32 25" fill="none" xmlns="http://www.w3.org/2000/svg">
<path d="M8.29688 10.5732H30.1289C30.6211 10.5732 31.0195 10.1865 31.0195 9.68261C31.0195 9.19042 30.6211 8.80371 30.1289 8.80371H8.29688C7.80469 8.80371 7.41797 9.19042 7.41797 9.68261C7.41797 10.1865 7.80469 10.5732 8.29688 10.5732ZM8.29688 16.5967H30.1289C30.6211 16.5967 31.0195 16.1982 31.0195 15.706C31.0195 15.2139 30.6211 14.8271 30.1289 14.8271H8.29688C7.80469 14.8271 7.41797 15.2139 7.41797 15.706C7.41797 16.1982 7.80469 16.5967 8.29688 16.5967ZM8.29688 22.6084H30.1289C30.6211 22.6084 31.0195 22.2217 31.0195 21.7295C31.0195 21.2373 30.6211 20.8389 30.1289 20.8389H8.29688C7.80469 20.8389 7.41797 21.2373 7.41797 21.7295C7.41797 22.2217 7.80469 22.6084 8.29688 22.6084Z" fill="#007AFF"/>
<path d="M1.05469 6.495L5.21484 3.96375C5.75391 3.63563 5.74219 3.01453 5.21484 2.68641L1.05469 0.14344C0.503906 -0.196404 0 0.0965649 0 0.717659V5.9325C0 6.56531 0.503906 6.83485 1.05469 6.495ZM8.89453 5.20594H29.543C30.5273 5.20594 31.0195 4.72547 31.0195 3.7411V2.87391C31.0195 1.90125 30.5273 1.40906 29.543 1.40906H8.89453C7.91016 1.40906 7.41797 1.90125 7.41797 2.87391V3.7411C7.41797 4.72547 7.91016 5.20594 8.89453 5.20594Z" fill="black" fill-opacity="0.85"/>
</svg>
