<svg width="27" height="18" viewBox="0 0 27 18" fill="none" xmlns="http://www.w3.org/2000/svg">
<path d="M20.6836 17.4609C22.4883 17.4609 24.1758 16.4766 24.9023 14.9531H24.9492V16.5C24.9492 17.0859 25.3477 17.4727 25.8984 17.4727C26.4609 17.4727 26.8594 17.0859 26.8594 16.4531V8.63672C26.8594 6.08203 24.9844 4.42969 22.0078 4.42969C19.8047 4.42969 17.9648 5.40234 17.2969 6.91406C17.168 7.20703 17.0742 7.48828 17.0742 7.73438C17.0742 8.25 17.4609 8.58984 17.9648 8.58984C18.3281 8.58984 18.6094 8.44922 18.7852 8.12109C19.4414 6.76172 20.4375 6.12891 21.9609 6.12891C23.7891 6.12891 24.8789 7.14844 24.8789 8.78906V9.79688L21.0938 10.0078C18.1289 10.1719 16.4766 11.543 16.4766 13.7227C16.4766 15.9609 18.1992 17.4609 20.6836 17.4609ZM21.1641 15.832C19.582 15.832 18.5039 14.9648 18.5039 13.6758C18.5039 12.4336 19.5 11.6016 21.3398 11.4844L24.8789 11.2617V12.5039C24.8789 14.3672 23.2266 15.832 21.1641 15.832Z" fill="black" fill-opacity="0.85"/>
<path d="M0.984375 17.3789C1.60547 17.3789 1.91016 17.1445 2.13281 16.4883L3.64453 12.3516H10.5586L12.0703 16.4883C12.293 17.1445 12.5977 17.3789 13.207 17.3789C13.8281 17.3789 14.2266 17.0039 14.2266 16.418C14.2266 16.2188 14.1914 16.0312 14.0977 15.7852L8.60156 1.14844C8.33203 0.433594 7.85156 0.0703125 7.10156 0.0703125C6.375 0.0703125 5.88281 0.421875 5.625 1.13672L0.128906 15.7969C0.0351562 16.043 0 16.2305 0 16.4297C0 17.0156 0.375 17.3789 0.984375 17.3789ZM4.21875 10.5703L7.06641 2.68359H7.125L9.97266 10.5703H4.21875Z" fill="black" fill-opacity="0.85"/>
</svg>
