<svg width="23" height="18" viewBox="0 0 23 18" fill="none" xmlns="http://www.w3.org/2000/svg">
<path d="M11.3203 17.0859H21.0586C21.6445 17.0859 22.0312 16.7109 22.0312 16.1484C22.0312 15.5859 21.6445 15.1992 21.0586 15.1992H13.2539V15.1406L17.8359 10.6523C20.6016 7.94531 21.4453 6.53906 21.4453 4.74609C21.4453 2.05078 19.0664 0 15.8906 0C13.3945 0 11.2617 1.35938 10.5469 3.42188C10.4062 3.80859 10.3477 4.14844 10.3477 4.44141C10.3477 5.02734 10.6992 5.41406 11.2734 5.41406C11.8242 5.41406 12.0586 5.15625 12.2344 4.57031C12.3281 4.20703 12.457 3.86719 12.6445 3.57422C13.2656 2.51953 14.4258 1.86328 15.8906 1.86328C17.7773 1.86328 19.3008 3.19922 19.3008 4.86328C19.3008 6.21094 18.7383 7.11328 16.4297 9.41016L10.9453 14.8945C10.4531 15.375 10.2891 15.6797 10.2891 16.1016C10.2891 16.7109 10.6992 17.0859 11.3203 17.0859Z" fill="black" fill-opacity="0.85"/>
<path d="M5.97656 17.3203C6.62109 17.3203 7.04297 16.8984 7.04297 16.2539V1.27734C7.04297 0.515625 6.5625 0.09375 5.83594 0.09375C5.29688 0.09375 5.00391 0.257812 4.51172 0.574219L0.609375 3.10547C0.152344 3.41016 0 3.67969 0 4.06641C0 4.54688 0.351562 4.89844 0.867188 4.89844C1.18359 4.89844 1.33594 4.80469 1.54688 4.66406L4.88672 2.56641H4.93359V16.2539C4.93359 16.8984 5.33203 17.3203 5.97656 17.3203Z" fill="black" fill-opacity="0.85"/>
</svg>
