<svg width="28" height="18" viewBox="0 0 28 18" fill="none" xmlns="http://www.w3.org/2000/svg">
<path d="M21.0938 17.4609C23.0977 17.4609 24.6211 16.5117 25.3359 14.8242H25.4062V16.4883C25.4062 17.0977 25.793 17.4727 26.3438 17.4727C26.9062 17.4727 27.293 17.0859 27.293 16.4766V5.36719C27.293 4.76953 26.9062 4.34766 26.3438 4.34766C25.793 4.34766 25.4062 4.76953 25.4062 5.36719V7.01953H25.3359C24.6211 5.36719 23.0273 4.37109 21.0938 4.37109C17.918 4.37109 15.7969 7.00781 15.7969 10.9219C15.7969 14.8594 17.918 17.4609 21.0938 17.4609ZM21.5625 15.75C19.2773 15.75 17.8242 13.8867 17.8242 10.9219C17.8242 7.95703 19.2773 6.08203 21.5625 6.08203C23.8477 6.08203 25.3477 8.01562 25.3477 10.9453C25.3477 13.875 23.8711 15.75 21.5625 15.75ZM0.984375 17.3789C1.60547 17.3789 1.91016 17.1445 2.13281 16.4883L3.64453 12.3516H10.5586L12.0703 16.4883C12.293 17.1445 12.5977 17.3789 13.207 17.3789C13.8281 17.3789 14.2266 17.0039 14.2266 16.418C14.2266 16.2188 14.1914 16.0312 14.0977 15.7852L8.60156 1.14844C8.33203 0.433594 7.85156 0.0703125 7.10156 0.0703125C6.375 0.0703125 5.88281 0.421875 5.625 1.13672L0.128906 15.7969C0.0351562 16.043 0 16.2305 0 16.4297C0 17.0156 0.375 17.3789 0.984375 17.3789ZM4.21875 10.5703L7.06641 2.68359H7.125L9.97266 10.5703H4.21875Z" fill="black" fill-opacity="0.85"/>
</svg>
