<svg width="37" height="25" viewBox="0 0 37 25" fill="none" xmlns="http://www.w3.org/2000/svg">
<path d="M1.42969 24.7031C2.21484 24.7031 2.84766 24.0586 2.84766 23.2734C2.84766 22.4883 2.21484 21.8555 1.42969 21.8555C0.632812 21.8555 0 22.4883 0 23.2734C0 24.0586 0.632812 24.7031 1.42969 24.7031ZM7.01953 24.7031C7.80469 24.7031 8.4375 24.0586 8.4375 23.2734C8.4375 22.4883 7.80469 21.8555 7.01953 21.8555C6.22266 21.8555 5.58984 22.4883 5.58984 23.2734C5.58984 24.0586 6.22266 24.7031 7.01953 24.7031ZM12.6094 24.7031C13.3945 24.7031 14.0273 24.0586 14.0273 23.2734C14.0273 22.4883 13.3945 21.8555 12.6094 21.8555C11.8242 21.8555 11.1797 22.4883 11.1797 23.2734C11.1797 24.0586 11.8242 24.7031 12.6094 24.7031ZM18.1992 24.7031C18.9844 24.7031 19.6172 24.0586 19.6172 23.2734C19.6172 22.4883 18.9844 21.8555 18.1992 21.8555C17.4141 21.8555 16.7695 22.4883 16.7695 23.2734C16.7695 24.0586 17.4141 24.7031 18.1992 24.7031ZM23.7891 24.7031C24.5742 24.7031 25.207 24.0586 25.207 23.2734C25.207 22.4883 24.5742 21.8555 23.7891 21.8555C23.0039 21.8555 22.3594 22.4883 22.3594 23.2734C22.3594 24.0586 23.0039 24.7031 23.7891 24.7031ZM29.3789 24.7031C30.1641 24.7031 30.7969 24.0586 30.7969 23.2734C30.7969 22.4883 30.1641 21.8555 29.3789 21.8555C28.5938 21.8555 27.9492 22.4883 27.9492 23.2734C27.9492 24.0586 28.5938 24.7031 29.3789 24.7031ZM34.9688 24.7031C35.7539 24.7031 36.3867 24.0586 36.3867 23.2734C36.3867 22.4883 35.7539 21.8555 34.9688 21.8555C34.1836 21.8555 33.5391 22.4883 33.5391 23.2734C33.5391 24.0586 34.1836 24.7031 34.9688 24.7031Z" fill="black" fill-opacity="0.85"/>
<path d="M4.21875 17.2969C6 17.2969 7.6875 16.3242 8.39062 14.8125H8.4375V16.3359C8.4375 16.9219 8.83594 17.3086 9.38672 17.3086C9.94922 17.3086 10.3359 16.9219 10.3359 16.2891V8.53125C10.3359 6 8.48438 4.37109 5.53125 4.37109C3.33984 4.37109 1.52344 5.33203 0.855469 6.82031C0.726562 7.11328 0.632812 7.39453 0.632812 7.64062C0.632812 8.15625 1.01953 8.49609 1.52344 8.49609C1.88672 8.49609 2.15625 8.35547 2.34375 8.02734C2.98828 6.67969 3.97266 6.05859 5.48438 6.05859C7.28906 6.05859 8.36719 7.06641 8.36719 8.69531V9.69141L4.61719 9.90234C1.67578 10.0547 0.0351562 11.4258 0.0351562 13.582C0.0351562 15.8086 1.74609 17.2969 4.21875 17.2969ZM4.6875 15.668C3.12891 15.668 2.0625 14.8125 2.0625 13.5352C2.0625 12.3164 3.04688 11.4961 4.86328 11.3789L8.36719 11.1445V12.375C8.36719 14.2266 6.72656 15.668 4.6875 15.668ZM13.6055 17.2969C14.168 17.2969 14.5781 16.9102 14.5781 16.3008V14.625H14.625C15.3867 16.2773 16.9219 17.2969 18.8555 17.2969C22.0547 17.2969 24.1523 14.7539 24.1523 10.8398C24.1523 6.91406 22.043 4.37109 18.8789 4.37109C16.9805 4.37109 15.4219 5.40234 14.6953 7.04297H14.6367V1.05469C14.6367 0.410156 14.2383 0 13.6523 0C13.0664 0 12.668 0.410156 12.668 1.05469V16.3008C12.668 16.9219 13.043 17.2969 13.6055 17.2969ZM18.4102 15.5977C16.207 15.5977 14.6484 13.7109 14.6484 10.8398C14.6484 7.98047 16.207 6.09375 18.4102 6.09375C20.6836 6.09375 22.1133 7.93359 22.1133 10.8398C22.1133 13.7578 20.6836 15.5977 18.4102 15.5977ZM31.2773 17.2969C33.5859 17.2969 35.5547 16.0312 36.2227 14.25C36.293 14.0508 36.3281 13.8633 36.3281 13.6875C36.3281 13.1953 35.9766 12.8438 35.4844 12.8438C35.0391 12.8438 34.8164 13.0078 34.5469 13.5234C33.9375 14.8594 32.8711 15.5977 31.2891 15.5977C29.0039 15.5977 27.5039 13.7812 27.5039 10.8398C27.5039 7.93359 29.0039 6.08203 31.2891 6.08203C32.8008 6.08203 33.8906 6.78516 34.5234 8.16797C34.7812 8.66016 35.0156 8.83594 35.4492 8.83594C35.9531 8.83594 36.293 8.50781 36.293 7.99219C36.293 7.85156 36.2578 7.67578 36.2109 7.51172C35.625 5.71875 33.6328 4.37109 31.2422 4.37109C27.75 4.37109 25.4766 6.9375 25.4766 10.8633C25.4766 14.8008 27.7734 17.2969 31.2773 17.2969Z" fill="#007AFF"/>
</svg>
