<svg width="24" height="21" viewBox="0 0 24 21" fill="none" xmlns="http://www.w3.org/2000/svg">
<path d="M0.878906 1.76953H22.7109C23.2031 1.76953 23.6133 1.38281 23.6133 0.878906C23.6133 0.386719 23.2031 0 22.7109 0H0.878906C0.386719 0 0 0.386719 0 0.878906C0 1.38281 0.386719 1.76953 0.878906 1.76953ZM0.878906 14.0508H22.7109C23.2031 14.0508 23.6133 13.6523 23.6133 13.1602C23.6133 12.668 23.2031 12.2812 22.7109 12.2812H0.878906C0.386719 12.2812 0 12.668 0 13.1602C0 13.6523 0.386719 14.0508 0.878906 14.0508ZM9.53906 7.91016H22.7109C23.2031 7.91016 23.6133 7.52344 23.6133 7.01953C23.6133 6.52734 23.2031 6.14062 22.7109 6.14062H9.53906C9.03516 6.14062 8.64844 6.52734 8.64844 7.01953C8.64844 7.52344 9.03516 7.91016 9.53906 7.91016ZM9.53906 20.1797H22.7109C23.2031 20.1797 23.6133 19.793 23.6133 19.3008C23.6133 18.8086 23.2031 18.4102 22.7109 18.4102H9.53906C9.03516 18.4102 8.64844 18.8086 8.64844 19.3008C8.64844 19.793 9.03516 20.1797 9.53906 20.1797Z" fill="black" fill-opacity="0.85"/>
</svg>
