<svg width="20" height="26" viewBox="0 0 20 26" fill="none" xmlns="http://www.w3.org/2000/svg">
<path d="M6.90234 7.51172H15.6914C16.1133 7.51172 16.4531 7.16016 16.4531 6.73828C16.4531 6.31641 16.1133 5.97656 15.6914 5.97656H6.90234C6.48047 5.97656 6.14062 6.31641 6.14062 6.73828C6.14062 7.16016 6.48047 7.51172 6.90234 7.51172ZM6.90234 10.7344H13.5703C13.9922 10.7344 14.332 10.3828 14.332 9.96094C14.332 9.53906 13.9922 9.19922 13.5703 9.19922H6.90234C6.48047 9.19922 6.14062 9.53906 6.14062 9.96094C6.14062 10.3828 6.48047 10.7344 6.90234 10.7344ZM3.59766 25.1133H18.7734C19.2891 25.1133 19.7109 24.7031 19.7109 24.1758C19.7109 23.7656 19.4297 23.4023 19.0547 23.2734C17.5781 22.6875 17.2734 20.7773 18.7266 19.3125C19.1719 18.8672 19.7109 18.293 19.7109 17.1211V3.67969C19.7109 1.24219 18.5039 0 16.0781 0H3.63281C1.20703 0 0 1.23047 0 3.67969V21.4922C0 23.9062 1.21875 25.1133 3.59766 25.1133ZM1.88672 18.3398V3.71484C1.88672 2.54297 2.50781 1.88672 3.71484 1.88672H15.9844C17.2031 1.88672 17.8242 2.54297 17.8242 3.71484V16.8633C17.8242 17.4961 17.4609 17.8594 16.8047 17.8594H3.79688C3.03516 17.8594 2.40234 18.0234 1.88672 18.3398ZM3.70312 23.2266C2.51953 23.2266 1.88672 22.5938 1.88672 21.4805C1.88672 20.4258 2.63672 19.7461 3.80859 19.7461H15.832C15.9844 19.7461 16.125 19.7344 16.2422 19.7109C15.6914 20.9297 15.7852 22.2188 16.4062 23.2266H3.70312ZM3.26953 18.8672H4.80469V1.42969H3.26953V18.8672Z" fill="black" fill-opacity="0.85"/>
</svg>
