<svg width="21" height="24" viewBox="0 0 21 24" fill="none" xmlns="http://www.w3.org/2000/svg">
<path d="M0.984375 20.25C1.60547 20.25 1.91016 20.0156 2.13281 19.3594L3.64453 15.2227H10.5586L12.0703 19.3594C12.293 20.0156 12.5977 20.25 13.207 20.25C13.8281 20.25 14.2266 19.875 14.2266 19.2891C14.2266 19.0898 14.1914 18.9023 14.0977 18.6562L8.60156 4.01953C8.33203 3.30469 7.85156 2.94141 7.10156 2.94141C6.375 2.94141 5.88281 3.29297 5.625 4.00781L0.128906 18.668C0.0351562 18.9141 0 19.1016 0 19.3008C0 19.8867 0.375 20.25 0.984375 20.25ZM4.21875 13.4414L7.06641 5.55469H7.125L9.97266 13.4414H4.21875Z" fill="#007AFF"/>
<path d="M19.9688 23.2148C20.4961 23.2148 20.8359 22.875 20.8359 22.3828V14.3672C20.8359 13.7812 20.4727 13.4297 19.8984 13.4297C19.3828 13.4297 19.125 13.6172 18.7852 13.8633L16.9102 15.1406C16.582 15.375 16.4414 15.5742 16.4414 15.832C16.4414 16.2188 16.7344 16.5117 17.0977 16.5117C17.332 16.5117 17.4844 16.4414 17.7188 16.2773L19.0781 15.3633H19.1133V22.3828C19.1133 22.875 19.4648 23.2148 19.9688 23.2148Z" fill="black" fill-opacity="0.85"/>
</svg>
