<svg width="11" height="13" viewBox="0 0 11 13" fill="none" xmlns="http://www.w3.org/2000/svg">
<path d="M0.972656 12.457C1.45312 12.457 1.76953 12.2109 1.95703 11.6367L2.92969 8.76562H7.51172L8.48438 11.6367C8.67188 12.2344 8.98828 12.457 9.48047 12.457C10.0664 12.457 10.4648 12.0938 10.4648 11.5664C10.4648 11.332 10.4062 11.1094 10.3125 10.8633L6.66797 1.18359C6.39844 0.46875 5.90625 0.09375 5.21484 0.09375C4.53516 0.09375 4.04297 0.445312 3.77344 1.18359L0.128906 10.8633C0.0351562 11.0859 0 11.3203 0 11.5664C0 12.1055 0.375 12.457 0.972656 12.457ZM3.44531 7.24219L5.08594 2.35547H5.35547L6.99609 7.24219H3.44531Z" fill="black" fill-opacity="0.85"/>
</svg>
