<svg width="24" height="21" viewBox="0 0 24 21" fill="none" xmlns="http://www.w3.org/2000/svg">
<path d="M0.878906 1.76953H22.7109C23.2031 1.76953 23.6133 1.38281 23.6133 0.878906C23.6133 0.386719 23.2031 0 22.7109 0H0.878906C0.386719 0 0 0.386719 0 0.878906C0 1.38281 0.386719 1.76953 0.878906 1.76953ZM5.21484 7.91016H18.3867C18.8789 7.91016 19.2773 7.52344 19.2773 7.01953C19.2773 6.52734 18.8789 6.14062 18.3867 6.14062H5.21484C4.71094 6.14062 4.32422 6.52734 4.32422 7.01953C4.32422 7.52344 4.71094 7.91016 5.21484 7.91016ZM0.878906 14.0508H22.7109C23.2031 14.0508 23.6133 13.6523 23.6133 13.1602C23.6133 12.668 23.2031 12.2812 22.7109 12.2812H0.878906C0.386719 12.2812 0 12.668 0 13.1602C0 13.6523 0.386719 14.0508 0.878906 14.0508ZM5.21484 20.1797H18.3867C18.8789 20.1797 19.2773 19.793 19.2773 19.3008C19.2773 18.8086 18.8789 18.4102 18.3867 18.4102H5.21484C4.71094 18.4102 4.32422 18.8086 4.32422 19.3008C4.32422 19.793 4.71094 20.1797 5.21484 20.1797Z" fill="black" fill-opacity="0.85"/>
</svg>
