<svg width="20" height="26" viewBox="0 0 20 26" fill="none" xmlns="http://www.w3.org/2000/svg">
<path d="M7.00781 7.48828C6.57422 7.48828 6.21094 7.125 6.21094 6.69141C6.21094 6.24609 6.57422 5.89453 7.00781 5.89453H16.0547C16.4883 5.89453 16.8516 6.24609 16.8516 6.69141C16.8516 7.125 16.4883 7.48828 16.0547 7.48828H7.00781ZM7.00781 10.8164C6.57422 10.8164 6.21094 10.4531 6.21094 10.0078C6.21094 9.57422 6.57422 9.22266 7.00781 9.22266H13.875C14.3203 9.22266 14.6719 9.57422 14.6719 10.0078C14.6719 10.4531 14.3203 10.8164 13.875 10.8164H7.00781ZM3.59766 25.1133H18.7734C19.2891 25.1133 19.7109 24.7031 19.7109 24.1758C19.7109 23.7656 19.4297 23.4023 19.0547 23.2734C17.5781 22.6875 17.2734 20.7773 18.7266 19.3125C19.1719 18.8672 19.7109 18.293 19.7109 17.1211V3.67969C19.7109 1.24219 18.5039 0 16.0781 0H3.63281C1.20703 0 0 1.23047 0 3.67969V21.4922C0 23.9062 1.21875 25.1133 3.59766 25.1133ZM3.70312 23.2266C2.51953 23.2266 1.88672 22.5938 1.88672 21.4805C1.88672 20.4258 2.63672 19.7461 3.80859 19.7461H15.832C15.9844 19.7461 16.125 19.7344 16.2422 19.7109C15.6914 20.9297 15.7852 22.2188 16.4062 23.2266H3.70312ZM3.35156 17.9648C2.98828 17.9648 2.68359 17.6602 2.68359 17.2852V2.48438C2.68359 2.10938 2.98828 1.81641 3.35156 1.81641C3.71484 1.81641 4.03125 2.10938 4.03125 2.48438V17.2852C4.03125 17.6602 3.71484 17.9648 3.35156 17.9648Z" fill="black" fill-opacity="0.85"/>
</svg>
