<svg width="27" height="18" viewBox="0 0 27 18" fill="none" xmlns="http://www.w3.org/2000/svg">
<path d="M13.4531 17.3086C14.0625 17.3086 14.3789 17.0742 14.6016 16.418L16.1133 12.2812H23.0273L24.5391 16.418C24.7617 17.0742 25.0664 17.3086 25.6758 17.3086C26.2969 17.3086 26.6952 16.9336 26.6952 16.3477C26.6952 16.1484 26.6602 15.9609 26.5664 15.7148L21.0702 1.07812C20.8007 0.363281 20.3202 0 19.5702 0C18.8437 0 18.3516 0.351562 18.0938 1.06641L12.5977 15.7266C12.5039 15.9727 12.4688 16.1602 12.4688 16.3594C12.4688 16.9453 12.8438 17.3086 13.4531 17.3086ZM16.6875 10.5L19.5352 2.61328H19.5938L22.4414 10.5H16.6875Z" fill="black" fill-opacity="0.85"/>
<path d="M0.972656 17.2734C1.45312 17.2734 1.76953 17.0273 1.95703 16.4531L2.92969 13.582H7.51172L8.48438 16.4531C8.67188 17.0508 8.98828 17.2734 9.48047 17.2734C10.0664 17.2734 10.4648 16.9102 10.4648 16.3828C10.4648 16.1484 10.4062 15.9258 10.3125 15.6797L6.66797 6C6.39844 5.28516 5.90625 4.91016 5.21484 4.91016C4.53516 4.91016 4.04297 5.26172 3.77344 6L0.128906 15.6797C0.0351562 15.9023 0 16.1367 0 16.3828C0 16.9219 0.375 17.2734 0.972656 17.2734ZM3.44531 12.0586L5.08594 7.17188H5.35547L6.99609 12.0586H3.44531Z" fill="black" fill-opacity="0.85"/>
</svg>
