<svg width="25" height="30" viewBox="0 0 25 30" fill="none" xmlns="http://www.w3.org/2000/svg">
<path d="M0.878906 24.3984H23.2148C23.707 24.3984 24.1055 24.0117 24.1055 23.5078C24.1055 23.0156 23.707 22.6289 23.2148 22.6289H0.878906C0.386719 22.6289 0 23.0156 0 23.5078C0 24.0117 0.386719 24.3984 0.878906 24.3984ZM0.878906 29.8945H15.3281C15.8203 29.8945 16.2188 29.5078 16.2188 29.0156C16.2188 28.5234 15.8203 28.125 15.3281 28.125H0.878906C0.386719 28.125 0 28.5234 0 29.0156C0 29.5078 0.386719 29.8945 0.878906 29.8945Z" fill="black" fill-opacity="0.85"/>
<path d="M3.25781 18.8789H20.8477C23.0273 18.8789 24.1055 17.8125 24.1055 15.6797V3.24609C24.1055 1.11328 23.0273 0.0234375 20.8477 0.0234375H3.25781C1.10156 0.0234375 0 1.125 0 3.24609V15.6797C0 17.8008 1.08984 18.8789 3.25781 18.8789ZM3.36328 17.1094C2.36719 17.1094 1.78125 16.5234 1.78125 15.5156V15.0234L4.79297 12.2578C5.23828 11.8594 5.73047 11.6602 6.1875 11.6602C6.69141 11.6602 7.20703 11.8711 7.66406 12.2812L9.60938 14.0508L14.5195 9.69141C15.0234 9.25781 15.5742 9.04688 16.1719 9.04688C16.7227 9.04688 17.332 9.25781 17.7891 9.71484L22.3828 14.0859V15.5391C22.3828 16.5234 21.7734 17.1094 20.8008 17.1094H3.36328Z" fill="black" fill-opacity="0.85"/>
<path d="M7.67578 9.70312C6.28125 9.70312 5.14453 8.56641 5.14453 7.17188C5.14453 5.78906 6.28125 4.65234 7.67578 4.65234C9.05859 4.65234 10.1953 5.78906 10.1953 7.17188C10.1953 8.56641 9.05859 9.70312 7.67578 9.70312Z" fill="white"/>
</svg>
