<svg width="24" height="21" viewBox="0 0 24 21" fill="none" xmlns="http://www.w3.org/2000/svg">
<path d="M0.878906 1.85156H22.7109C23.2031 1.85156 23.6133 1.45312 23.6133 0.960938C23.6133 0.46875 23.2031 0.0820312 22.7109 0.0820312H0.878906C0.386719 0.0820312 0 0.46875 0 0.960938C0 1.45312 0.386719 1.85156 0.878906 1.85156ZM0.878906 7.98047H22.7109C23.2031 7.98047 23.6133 7.59375 23.6133 7.10156C23.6133 6.60938 23.2031 6.21094 22.7109 6.21094H0.878906C0.386719 6.21094 0 6.60938 0 7.10156C0 7.59375 0.386719 7.98047 0.878906 7.98047ZM14.6953 14.1211H22.7109C23.2031 14.1211 23.6133 13.7344 23.6133 13.2422C23.6133 12.7383 23.2031 12.3516 22.7109 12.3516H14.6953C14.2031 12.3516 13.8164 12.7383 13.8164 13.2422C13.8164 13.7344 14.2031 14.1211 14.6953 14.1211ZM14.6953 20.2617H22.7109C23.2031 20.2617 23.6133 19.875 23.6133 19.3828C23.6133 18.8789 23.2031 18.4922 22.7109 18.4922H14.6953C14.2031 18.4922 13.8164 18.8789 13.8164 19.3828C13.8164 19.875 14.2031 20.2617 14.6953 20.2617Z" fill="#007AFF"/>
<path d="M0.0117188 12.2461V14.8945C0.0117188 16.5586 1.18359 17.5781 2.83594 17.5781H6.29297V18.7969C6.29297 19.7461 7.19531 20.1094 7.93359 19.5117L11.1094 16.9688C11.5898 16.5938 11.5898 15.9258 11.1094 15.5391L7.93359 13.0078C7.21875 12.4453 6.29297 12.7969 6.29297 13.7227V14.8945H3.09375C2.82422 14.8945 2.69531 14.7422 2.69531 14.4844V12.2461C2.69531 11.2969 2.20312 10.6992 1.34766 10.6992C0.492188 10.6992 0.0117188 11.2969 0.0117188 12.2461Z" fill="black" fill-opacity="0.85"/>
</svg>
