<svg width="18" height="22" viewBox="0 0 18 22" fill="none" xmlns="http://www.w3.org/2000/svg">
<path d="M0.984375 19.5352C1.60547 19.5352 1.91016 19.3008 2.13281 18.6445L3.64453 14.5078H10.5586L12.0703 18.6445C12.293 19.3008 12.5977 19.5352 13.207 19.5352C13.8281 19.5352 14.2266 19.1602 14.2266 18.5742C14.2266 18.375 14.1914 18.1875 14.0977 17.9414L8.60156 3.30469C8.33203 2.58984 7.85156 2.22656 7.10156 2.22656C6.375 2.22656 5.88281 2.57812 5.625 3.29297L0.128906 17.9531C0.0351562 18.1992 0 18.3867 0 18.5859C0 19.1719 0.375 19.5352 0.984375 19.5352ZM4.21875 12.7266L7.06641 4.83984H7.125L9.97266 12.7266H4.21875Z" fill="#007AFF"/>
<path d="M16.6055 9.79688C17.1211 9.79688 17.4609 9.45703 17.4609 8.96484V0.949219C17.4609 0.363281 17.1094 0 16.5352 0C16.0195 0 15.7617 0.199219 15.4219 0.433594L13.5469 1.72266C13.207 1.94531 13.0781 2.15625 13.0781 2.40234C13.0781 2.80078 13.3711 3.09375 13.7344 3.09375C13.9688 3.09375 14.1094 3.02344 14.3438 2.85938L15.7148 1.94531H15.75V8.96484C15.75 9.45703 16.1016 9.79688 16.6055 9.79688Z" fill="black" fill-opacity="0.85"/>
</svg>
