<svg width="24" height="24" viewBox="0 0 24 24" fill="none" xmlns="http://www.w3.org/2000/svg">
<path d="M11.9531 23.9062C18.4922 23.9062 23.9062 18.4805 23.9062 11.9531C23.9062 5.41406 18.4805 0 11.9414 0C5.41406 0 0 5.41406 0 11.9531C0 18.4805 5.42578 23.9062 11.9531 23.9062ZM11.9531 21.9141C6.42188 21.9141 2.00391 17.4844 2.00391 11.9531C2.00391 6.42188 6.41016 1.99219 11.9414 1.99219C17.4727 1.99219 21.9141 6.42188 21.9141 11.9531C21.9141 17.4844 17.4844 21.9141 11.9531 21.9141Z" fill="#007AFF"/>
<path d="M10.4998 16.1952C12.9725 15.5155 14.0506 13.6054 13.3475 11.0155L12.3982 7.49991C12.1404 6.55069 11.5193 6.21085 10.5701 6.45694L5.5779 7.78116C4.61697 8.03897 4.2654 8.64835 4.52322 9.60929L5.46072 13.1366C6.1404 15.7147 8.02712 16.8397 10.4998 16.1952ZM10.0193 14.3905C8.97634 14.6601 7.95681 14.2968 7.40603 13.453C7.30056 13.289 7.40603 13.1483 7.60525 13.1483C8.28494 13.2069 9.05836 13.0897 9.63259 12.9491C10.1951 12.7968 10.9334 12.5038 11.4959 12.1171C11.66 11.9999 11.8357 12.0819 11.8123 12.2811C11.7771 13.289 11.0857 14.1093 10.0193 14.3905ZM7.48805 11.0976C7.11305 11.203 7.06618 11.4374 6.90212 11.4726C6.82009 11.4843 6.73806 11.4022 6.69119 11.2733C6.56228 10.828 6.84353 10.371 7.27712 10.2772C7.71072 10.1601 8.14431 10.4179 8.27322 10.828C8.32009 10.9804 8.28494 11.0976 8.19119 11.1327C8.00369 11.1796 7.82789 10.9921 7.48805 11.0976ZM10.5467 10.2772C10.1834 10.3593 10.1248 10.6171 9.97244 10.6288C9.90212 10.664 9.80837 10.5585 9.74978 10.4296C9.64431 10.0077 9.91384 9.53897 10.3357 9.4335C10.7928 9.32803 11.2264 9.56241 11.3318 10.0077C11.3904 10.1601 11.3318 10.2772 11.2615 10.3007C11.0857 10.3593 10.8982 10.1601 10.5467 10.2772ZM18.6209 9.09366L13.6287 7.746C13.535 7.72257 13.4295 7.71085 13.3475 7.69913L14.1912 10.7811C14.4842 11.8593 14.4959 12.8788 14.2615 13.7577C14.3904 13.7811 14.5193 13.7929 14.6482 13.828C15.5389 14.0507 16.1365 14.7304 16.1717 15.5272C16.1717 15.7265 15.9842 15.8319 15.8318 15.6796C15.3396 15.2226 14.906 14.9999 14.367 14.8476C14.2029 14.8007 14.0154 14.7538 13.8514 14.7421C13.4412 15.5155 12.785 16.1483 11.906 16.5937C12.3748 16.9804 12.9725 17.2968 13.699 17.4843C16.16 18.1405 18.0467 17.0038 18.7264 14.4257L19.6756 10.9101C19.9334 9.96085 19.5818 9.33975 18.6209 9.09366ZM16.4998 12.914C16.16 12.8437 15.949 12.4687 16.0545 12.1171C16.1248 11.7772 16.4881 11.578 16.8396 11.6718C17.1795 11.7538 17.3904 12.1171 17.2967 12.4569C17.1912 12.7968 16.8396 13.0077 16.4998 12.914Z" fill="black" fill-opacity="0.85"/>
</svg>
