<svg width="30" height="32" viewBox="0 0 30 32" fill="none" xmlns="http://www.w3.org/2000/svg">
<path d="M12.7205 21.8169C17.6893 20.481 20.0096 16.0279 18.6268 10.8364L16.658 3.4888C16.1072 1.44974 14.7361 0.688018 12.6971 1.22708L2.45489 3.96927C0.415831 4.52005 -0.381044 5.8677 0.169737 7.89505L2.13849 15.2661C3.53302 20.4458 7.76349 23.1411 12.7205 21.8169ZM6.19317 10.6021C5.3963 10.813 5.26739 11.3404 4.93927 11.4458C4.71661 11.4927 4.48224 11.2818 4.37677 10.8599C4.10724 9.91067 4.66974 8.93802 5.67755 8.66849C6.68536 8.39895 7.65802 8.96145 7.91583 9.92239C8.0213 10.3325 7.92755 10.6489 7.70489 10.6958C7.36505 10.7896 6.99005 10.3911 6.19317 10.6021ZM12.7791 8.83255C11.9822 9.0552 11.8533 9.58255 11.5252 9.6763C11.2908 9.73489 11.0682 9.51224 10.951 9.10208C10.6932 8.15286 11.2557 7.16849 12.2518 6.89895C13.2596 6.64114 14.2322 7.20364 14.49 8.16458C14.5955 8.57474 14.5135 8.87942 14.2791 8.93802C13.951 9.02005 13.576 8.62161 12.7791 8.83255ZM10.6697 14.1411C12.2869 13.6958 13.3533 13.2154 14.2205 12.5708C14.6541 12.2661 15.0994 12.4302 15.0643 12.9458C14.994 15.0552 13.5057 16.6138 11.4783 17.1646C9.45099 17.6919 7.38849 17.0825 6.27521 15.3013C5.98224 14.8794 6.28692 14.5161 6.81427 14.5513C7.88067 14.6919 9.05255 14.563 10.6697 14.1411Z" fill="#007AFF"/>
<path d="M6.83746 29.2699C9.86089 32.2934 15.2867 32.5512 18.3336 29.516C19.9391 27.9223 20.6305 25.9653 20.3492 24.0785C21.5211 23.5863 22.4352 22.7778 23.1734 21.7231C25.1188 19.1449 27.9898 12.266 29.1969 9.04339C30.6266 5.02385 26.3609 2.15276 23.2906 4.7426C20.9586 6.71135 16.9859 11.3051 14.0328 15.184C13.2594 16.2738 12.7906 17.5043 12.7086 18.9223C11.8648 19.1449 11.068 19.5903 10.4234 20.2465C8.64214 22.0395 8.93511 24.4184 8.82964 24.6996C8.63042 24.8754 7.50542 24.9692 6.75542 25.6957C5.77105 26.6332 5.72417 28.1449 6.83746 29.2699Z" fill="white"/>
<path d="M24.3223 5.96136C23.6777 6.52386 19.6465 10.4028 16.5293 14.5629C19.2832 14.9262 21.6738 16.5903 22.9629 19.0863C25.7754 14.5395 27.3809 9.34807 27.6973 8.50432C28.5762 6.01995 26.1504 4.41449 24.3223 5.96136ZM17.5371 19.977C18.5332 20.6684 19.3535 21.6762 19.6699 22.5668C20.584 22.2387 21.2754 21.6528 21.8731 20.7973C21.9785 20.6449 22.0957 20.4809 22.1895 20.3168C21.1934 17.6215 18.4629 15.7465 15.6387 15.7231C15.5098 15.8754 15.3809 16.0512 15.2637 16.227C14.6777 17.0824 14.3731 17.9613 14.3848 18.8754C15.3106 18.8637 16.5527 19.2856 17.5371 19.977ZM7.97464 28.1332C10.3887 30.559 14.8184 30.7582 17.2207 28.3793C19.2715 26.3403 19.3418 23.7153 17.3965 21.7582C15.6504 20.0004 13.0137 19.8832 11.5606 21.3598C9.89652 23.059 11.0098 24.7934 9.96683 25.8363C9.09964 26.7153 8.33793 26.3988 7.85746 26.8559C7.51761 27.1723 7.49418 27.6528 7.97464 28.1332Z" fill="black" fill-opacity="0.85"/>
</svg>
