<svg width="40" height="28" viewBox="0 0 40 28" fill="none" xmlns="http://www.w3.org/2000/svg">
<path d="M25.4058 25.9028C31.2066 27.4497 35.5543 24.8012 37.1949 18.7544L39.398 10.5512C39.9722 8.33639 39.1285 6.91842 36.8785 6.30904L25.2886 3.16842C23.0269 2.57076 21.609 3.39107 20.9879 5.62935L18.773 13.8325C17.1558 19.8442 19.6285 24.3442 25.4058 25.9028ZM25.9215 24.0512C21.316 22.7973 19.359 19.1762 20.6597 14.3364L22.8394 6.21529C23.109 5.17232 23.7652 4.7856 24.8082 5.05514L36.3629 8.13717C37.3941 8.41842 37.7808 9.10982 37.4879 10.1645L35.3199 18.2739C34.0074 23.1255 30.5152 25.27 25.9215 24.0512ZM25.0426 13.5395C25.9097 13.7856 26.8121 13.27 27.0582 12.3911C27.2808 11.5122 26.7652 10.6098 25.8863 10.3637C25.0191 10.1294 24.1168 10.6567 23.8707 11.5356C23.648 12.4145 24.1636 13.3052 25.0426 13.5395ZM31.9215 15.3794C32.8004 15.602 33.691 15.0864 33.9254 14.2075C34.1597 13.3286 33.6441 12.438 32.7652 12.2036C31.898 11.9575 31.0074 12.4848 30.773 13.352C30.5269 14.2309 31.0426 15.1333 31.9215 15.3794ZM26.9879 19.8677C28.2886 20.2075 29.3316 20.7934 30.5621 21.895C31.0191 22.3286 31.6168 22.0473 31.5816 21.4262C31.5113 19.3637 29.9761 17.6528 27.7261 17.0669C25.4761 16.4575 23.3082 17.1841 22.2066 18.9184C21.8668 19.4223 22.2535 19.9848 22.8746 19.8442C24.4332 19.5044 25.6988 19.5044 26.9879 19.8677Z" fill="#007AFF"/>
<path d="M14.1562 22.8911C19.9453 21.3208 22.4062 16.8559 20.789 10.8091L18.5859 2.60594C17.9883 0.391093 16.5351 -0.405782 14.2851 0.191874L2.67186 3.27391C0.421862 3.87156 -0.410169 5.28953 0.187487 7.53953L2.36717 15.7427C3.97264 21.7661 8.36717 24.4262 14.1562 22.8911Z" fill="white"/>
<path d="M14.1562 22.8911C19.9453 21.3208 22.4062 16.8559 20.789 10.8091L18.5859 2.60594C17.9883 0.391093 16.5351 -0.405782 14.2851 0.191874L2.67186 3.27391C0.421862 3.87156 -0.410169 5.28953 0.187487 7.53953L2.36717 15.7427C3.97264 21.7661 8.36717 24.4262 14.1562 22.8911ZM13.664 21.0278C9.04686 22.2348 5.55467 20.0903 4.25389 15.2387L2.08592 7.11766C1.80467 6.07469 2.17967 5.40672 3.19921 5.12547L14.7539 2.03172C15.7969 1.75047 16.4648 2.14891 16.7461 3.20359L18.914 11.3247C20.2031 16.188 18.2695 19.7973 13.664 21.0278ZM7.30077 11.1606C8.1328 10.938 8.54296 11.3247 8.89452 11.2427C9.15233 11.1841 9.2578 10.8559 9.14061 10.4341C8.89452 9.39109 7.76952 8.75828 6.74999 9.06297C5.68358 9.32078 5.03905 10.4223 5.33202 11.4419C5.46092 11.8755 5.71874 12.0981 5.96483 12.0395C6.31639 11.9341 6.45702 11.3833 7.30077 11.1606ZM14.2383 9.27391C15.082 9.05125 15.4805 9.44969 15.832 9.36766C16.0898 9.29734 16.207 8.96922 16.0781 8.54734C15.832 7.50437 14.7187 6.88328 13.6875 7.18797C12.6211 7.44578 11.9765 8.53562 12.2695 9.55516C12.3984 9.98875 12.6562 10.2231 12.9023 10.1528C13.2656 10.0473 13.4062 9.49656 14.2383 9.27391ZM13.0195 18.6255C15.5039 17.9458 17.0859 16.0708 17.168 13.7505C17.1797 13.1528 16.664 12.9302 16.1719 13.3169C14.5781 14.4419 12.8789 14.8872 12.082 15.1098C11.2851 15.3208 9.59764 15.7895 7.62889 15.602C7.01952 15.52 6.66796 15.977 6.99608 16.4575C8.23827 18.4497 10.5469 19.27 13.0195 18.6255Z" fill="black" fill-opacity="0.85"/>
</svg>
