<svg width="23" height="27" viewBox="0 0 23 27" fill="none" xmlns="http://www.w3.org/2000/svg">
<path d="M15.9199 4.30078H18.4629C18.873 4.30078 19.1543 3.98438 19.1543 3.62109C19.1543 3.25781 18.873 2.94141 18.4629 2.94141H15.9199C15.5098 2.94141 15.2285 3.25781 15.2285 3.62109C15.2285 3.98438 15.5098 4.30078 15.9199 4.30078ZM15.9199 7.59375H18.4629C18.873 7.59375 19.1543 7.27734 19.1543 6.91406C19.1543 6.55078 18.873 6.23438 18.4629 6.23438H15.9199C15.5098 6.23438 15.2285 6.55078 15.2285 6.91406C15.2285 7.27734 15.5098 7.59375 15.9199 7.59375ZM15.9199 10.8867H18.4629C18.873 10.8867 19.1543 10.5703 19.1543 10.207C19.1543 9.84375 18.873 9.51562 18.4629 9.51562H15.9199C15.5098 9.51562 15.2285 9.84375 15.2285 10.207C15.2285 10.5703 15.5098 10.8867 15.9199 10.8867Z" fill="#007AFF"/>
<path d="M10.0488 26.0391C13.4238 26.0391 16.1543 23.2969 16.1543 19.9219C16.1543 18.1406 15.4277 16.582 14.0215 15.3164C13.7754 15.0938 13.7168 14.9531 13.7168 14.6016V4.00781C13.7168 1.62891 12.2285 0 10.0488 0C7.8457 0 6.3457 1.62891 6.3457 4.00781V14.6016C6.3457 14.9531 6.29883 15.0938 6.04102 15.3164C4.64648 16.582 3.9082 18.1406 3.9082 19.9219C3.9082 23.2969 6.65039 26.0391 10.0488 26.0391ZM10.0488 24.3398C7.59961 24.3398 5.63086 22.3477 5.63086 19.9219C5.63086 18.457 6.32227 17.1328 7.56445 16.3008C7.92773 16.0547 8.06836 15.832 8.06836 15.3516V4.07812C8.06836 2.67188 8.87695 1.72266 10.0488 1.72266C11.1973 1.72266 12.0059 2.67188 12.0059 4.07812V15.3516C12.0059 15.832 12.1465 16.0547 12.5098 16.3008C13.752 17.1328 14.4434 18.457 14.4434 19.9219C14.4434 22.3477 12.4629 24.3398 10.0488 24.3398ZM10.0371 22.7578C11.6074 22.7578 12.873 21.4922 12.873 19.9102C12.873 18.8086 12.252 17.9062 11.3496 17.4141C10.9746 17.2148 10.8457 17.0742 10.8457 16.5V10.2305C10.8457 9.66797 10.4824 9.30469 10.0371 9.30469C9.58008 9.30469 9.22852 9.66797 9.22852 10.2305V16.5C9.22852 17.0742 9.09961 17.2148 8.72461 17.4141C7.82227 17.9062 7.20117 18.8086 7.20117 19.9102C7.20117 21.4922 8.4668 22.7578 10.0371 22.7578Z" fill="#007AFF"/>
<path d="M19.0723 22.9453C19.9746 23.8359 21.4277 23.8359 22.2949 22.9219C23.1621 22.0312 23.1621 20.6133 22.2832 19.7344L3.88477 1.32423C3.00586 0.445319 1.55273 0.433601 0.662109 1.32423C-0.216797 2.21485 -0.228516 3.66798 0.673828 4.53517L19.0723 22.9453Z" fill="white"/>
<path d="M20.0449 21.9727C20.3965 22.3242 20.9824 22.3242 21.3223 21.9727C21.6621 21.6211 21.6738 21.0469 21.3223 20.6953L2.91213 2.2969C2.56057 1.94533 1.98635 1.93361 1.62307 2.2969C1.28322 2.63674 1.2715 3.2344 1.62307 3.57424L20.0449 21.9727Z" fill="black" fill-opacity="0.85"/>
</svg>
