<svg width="27" height="27" viewBox="0 0 27 27" fill="none" xmlns="http://www.w3.org/2000/svg">
<path d="M13.1953 24.5246C13.5 24.5246 13.793 24.4894 14.1094 24.466L14.7773 25.755C14.918 26.0128 15.1641 26.1535 15.4922 26.1066C15.7852 26.048 15.9844 25.8371 16.0312 25.5207L16.2305 24.1027C16.8164 23.9503 17.3906 23.7277 17.9414 23.4816L18.9961 24.4308C19.2188 24.6417 19.5 24.6886 19.793 24.5246C20.0508 24.3839 20.1562 24.1027 20.0977 23.798L19.8047 22.3917C20.2969 22.0519 20.7773 21.6652 21.2109 21.2316L22.5117 21.7824C22.8047 21.9113 23.0859 21.841 23.3086 21.5714C23.5078 21.3605 23.5195 21.0558 23.3555 20.798L22.5938 19.5792C22.9453 19.0871 23.2266 18.5597 23.4961 17.9972L24.9375 18.0675C25.2422 18.0792 25.4883 17.9152 25.5938 17.6222C25.6875 17.3292 25.6055 17.048 25.3594 16.8605L24.2344 15.9699C24.3867 15.4074 24.5039 14.798 24.5625 14.1652L25.9102 13.7433C26.2148 13.6378 26.3906 13.4152 26.3906 13.0988C26.3906 12.7941 26.2148 12.5597 25.9102 12.466L24.5625 12.0324C24.5039 11.3996 24.3867 10.8136 24.2344 10.2394L25.3594 9.33707C25.5938 9.16129 25.6875 8.89175 25.5938 8.59879C25.4883 8.30582 25.2422 8.14175 24.9375 8.15347L23.4961 8.21207C23.2266 7.64957 22.9453 7.12222 22.5938 6.63004L23.3555 5.41129C23.5195 5.16519 23.4961 4.8605 23.3086 4.64957C23.0859 4.38004 22.8047 4.32144 22.5117 4.43863L21.2109 4.96597C20.7773 4.55582 20.2969 4.15738 19.8047 3.81754L20.0977 2.423C20.168 2.1066 20.0508 1.82535 19.793 1.68472C19.5 1.53238 19.2188 1.55582 18.9961 1.79019L17.9414 2.71597C17.3906 2.46988 16.8164 2.27066 16.2305 2.1066L16.0312 0.688628C15.9844 0.38394 15.7734 0.161284 15.4805 0.114409C15.1641 0.0675338 14.9062 0.19644 14.7773 0.454253L14.1094 1.74332C13.793 1.71988 13.5 1.69644 13.1953 1.69644C12.8789 1.69644 12.5977 1.71988 12.2812 1.74332L11.6016 0.454253C11.4727 0.19644 11.2148 0.0675338 10.8984 0.114409C10.6055 0.161284 10.3945 0.38394 10.3594 0.688628L10.1484 2.09488C9.5625 2.27066 9 2.46988 8.4375 2.71597L7.38281 1.79019C7.16016 1.55582 6.87891 1.53238 6.58594 1.68472C6.32812 1.82535 6.21094 2.1066 6.28125 2.423L6.57422 3.81754C6.09375 4.15738 5.60156 4.55582 5.16797 4.96597L3.86719 4.43863C3.57422 4.32144 3.30469 4.38004 3.08203 4.64957C2.88281 4.8605 2.87109 5.16519 3.02344 5.39957L3.78516 6.63004C3.44531 7.12222 3.15234 7.64957 2.88281 8.21207L1.45312 8.15347C1.14844 8.14175 0.890625 8.30582 0.785156 8.59879C0.691406 8.89175 0.785156 9.14957 1.01953 9.33707L2.14453 10.2394C1.99219 10.8136 1.875 11.3996 1.83984 12.0324L0.46875 12.466C0.164062 12.5597 0 12.7824 0 13.0988C0 13.4152 0.164062 13.6378 0.46875 13.7433L1.83984 14.1769C1.875 14.798 1.99219 15.4074 2.14453 15.9699L1.01953 16.8605C0.785156 17.048 0.703125 17.3292 0.785156 17.6222C0.890625 17.9152 1.14844 18.0792 1.45312 18.0675L2.88281 17.9972C3.15234 18.5597 3.44531 19.0871 3.78516 19.5792L3.02344 20.798C2.85938 21.0558 2.88281 21.3605 3.08203 21.5714C3.30469 21.841 3.57422 21.9113 3.86719 21.7824L5.16797 21.2316C5.60156 21.6652 6.09375 22.0519 6.57422 22.3917L6.28125 23.798C6.22266 24.1027 6.32812 24.3839 6.58594 24.5246C6.87891 24.6886 7.16016 24.6417 7.38281 24.4308L8.4375 23.4816C9 23.7277 9.5625 23.9503 10.1484 24.1027L10.3594 25.5207C10.3945 25.8371 10.6055 26.048 10.8984 26.1066C11.2148 26.1535 11.4609 26.0128 11.6016 25.755L12.2812 24.466C12.5859 24.4894 12.8789 24.5246 13.1953 24.5246ZM13.1953 22.7433C7.82812 22.7433 3.67969 18.466 3.67969 13.1105C3.67969 7.75504 7.82812 3.47769 13.1953 3.47769C18.5625 3.47769 22.7109 7.75504 22.7109 13.1105C22.7109 18.466 18.5625 22.7433 13.1953 22.7433Z" fill="#007AFF"/>
<path d="M12.7383 19.3917C14.2383 19.3917 15.4336 18.1964 15.4336 16.6847C15.4336 15.6417 14.8477 14.7863 13.9922 14.3175C13.7227 14.1769 13.6172 14.0011 13.6172 13.5675V7.90738C13.6172 7.42691 13.2305 7.02847 12.7383 7.02847C12.2578 7.02847 11.8711 7.42691 11.8711 7.90738V13.5675C11.8711 14.0011 11.7773 14.1769 11.4961 14.3175C10.6406 14.7863 10.0547 15.6417 10.0547 16.6847C10.0547 18.1964 11.25 19.3917 12.7383 19.3917ZM15.5625 9.46597H17.707C18.0234 9.46597 18.293 9.20816 18.293 8.88004C18.293 8.56363 18.0234 8.30582 17.707 8.30582H15.5625C15.2461 8.30582 14.9883 8.56363 14.9883 8.88004C14.9883 9.20816 15.2461 9.46597 15.5625 9.46597ZM15.5625 11.5402H17.707C18.0234 11.5402 18.293 11.2707 18.293 10.9542C18.293 10.6378 18.0234 10.38 17.707 10.38H15.5625C15.2461 10.38 14.9883 10.6378 14.9883 10.9542C14.9883 11.2707 15.2461 11.5402 15.5625 11.5402ZM15.5625 13.6261H17.707C18.0234 13.6261 18.293 13.3566 18.293 13.0285C18.293 12.7238 18.0234 12.466 17.707 12.466H15.5625C15.2461 12.466 14.9883 12.7238 14.9883 13.0285C14.9883 13.3566 15.2461 13.6261 15.5625 13.6261Z" fill="black" fill-opacity="0.85"/>
</svg>
