<svg width="25" height="30" viewBox="0 0 25 30" fill="none" xmlns="http://www.w3.org/2000/svg">
<path d="M0 22.0781C0 22.5352 0.363281 22.8984 0.832031 22.8984H0.890625C4.53516 22.8984 4.85156 20.5195 6.75 20.5195C8.61328 20.5195 9.11719 22.8984 12.3164 22.8984C15.5039 22.8984 16.0195 20.5195 17.8828 20.5195C19.7812 20.5195 20.0859 22.8984 23.7422 22.8984H23.8008C24.2578 22.8984 24.6328 22.5352 24.6328 22.0781C24.6328 21.6211 24.2578 21.2461 23.8008 21.2461H23.7422C22.4766 21.2461 21.7734 20.7305 20.8945 20.0977C20.1328 19.5469 19.1836 18.8672 17.8828 18.8672C16.5352 18.8672 15.5742 19.5938 14.8125 20.1562C14.0039 20.7656 13.3594 21.2461 12.3164 21.2461C11.2617 21.2461 10.6289 20.7656 9.82031 20.1562C9.05859 19.5938 8.09766 18.8672 6.75 18.8672C5.44922 18.8672 4.5 19.5469 3.73828 20.0977C2.85938 20.7305 2.14453 21.2461 0.890625 21.2461H0.832031C0.363281 21.2461 0 21.6211 0 22.0781ZM0 27.3398C0 27.7969 0.363281 28.1602 0.832031 28.1602H0.890625C4.53516 28.1602 4.85156 25.7812 6.75 25.7812C8.61328 25.7812 9.11719 28.1602 12.3164 28.1602C15.5039 28.1602 16.0195 25.7812 17.8828 25.7812C19.7812 25.7812 20.0859 28.1602 23.7422 28.1602H23.8008C24.2578 28.1602 24.6328 27.7969 24.6328 27.3398C24.6328 26.8828 24.2578 26.5078 23.8008 26.5078H23.7422C22.4766 26.5078 21.7734 25.9922 20.8945 25.3594C20.1328 24.8086 19.1836 24.1289 17.8828 24.1289C16.5352 24.1289 15.5742 24.8555 14.8125 25.418C14.0039 26.0391 13.3594 26.5078 12.3164 26.5078C11.2617 26.5078 10.6289 26.0391 9.82031 25.418C9.05859 24.8555 8.09766 24.1289 6.75 24.1289C5.44922 24.1289 4.5 24.8086 3.73828 25.3594C2.85938 25.9922 2.14453 26.5078 0.890625 26.5078H0.832031C0.363281 26.5078 0 26.8828 0 27.3398Z" fill="#007AFF"/>
<path d="M12.3164 24.4688C15.3516 24.4688 17.8008 22.0195 17.8008 18.9844C17.8008 16.8867 16.582 15.2461 15.1875 14.3906V2.85938C15.1875 1.28906 13.8984 0 12.3281 0C10.7461 0 9.45703 1.28906 9.45703 2.85938V14.332C8.03906 15.1992 6.85547 16.8867 6.85547 18.9844C6.85547 22.0195 9.29297 24.4688 12.3164 24.4688Z" fill="white"/>
<path d="M12.3164 22.8633C14.4727 22.8633 16.1953 21.1406 16.1953 18.9844C16.1953 17.4844 15.3398 16.2891 14.2031 15.6562C13.7812 15.4219 13.5938 15.082 13.5938 14.4727V2.85938C13.5938 2.16797 13.0195 1.59375 12.3281 1.59375C11.625 1.59375 11.0625 2.16797 11.0625 2.85938V14.4727C11.0625 15.0586 10.8516 15.3867 10.418 15.6328C9.29297 16.2656 8.44922 17.4844 8.44922 18.9844C8.44922 21.1406 10.1719 22.8633 12.3164 22.8633ZM16.7812 4.13672H19.3242C19.7344 4.13672 20.0156 3.82031 20.0156 3.45703C20.0156 3.09375 19.7344 2.76562 19.3242 2.76562H16.7812C16.3711 2.76562 16.0898 3.09375 16.0898 3.45703C16.0898 3.82031 16.3711 4.13672 16.7812 4.13672ZM16.7812 7.42969H19.3242C19.7344 7.42969 20.0156 7.10156 20.0156 6.73828C20.0156 6.375 19.7344 6.05859 19.3242 6.05859H16.7812C16.3711 6.05859 16.0898 6.375 16.0898 6.73828C16.0898 7.10156 16.3711 7.42969 16.7812 7.42969ZM16.7812 10.7109H19.3242C19.7344 10.7109 20.0156 10.3945 20.0156 10.0312C20.0156 9.66797 19.7344 9.35156 19.3242 9.35156H16.7812C16.3711 9.35156 16.0898 9.66797 16.0898 10.0312C16.0898 10.3945 16.3711 10.7109 16.7812 10.7109ZM16.7812 14.0039H19.3242C19.7344 14.0039 20.0156 13.6875 20.0156 13.3242C20.0156 12.9609 19.7344 12.6445 19.3242 12.6445H16.7812C16.3711 12.6445 16.0898 12.9609 16.0898 13.3242C16.0898 13.6875 16.3711 14.0039 16.7812 14.0039Z" fill="black" fill-opacity="0.85"/>
</svg>
