<svg width="24" height="24" viewBox="0 0 24 24" fill="none" xmlns="http://www.w3.org/2000/svg">
<path d="M11.9531 23.918C18.4922 23.918 23.9062 18.5039 23.9062 11.9648C23.9062 5.4375 18.4805 0.0117188 11.9414 0.0117188C5.41406 0.0117188 0 5.4375 0 11.9648C0 18.5039 5.42578 23.918 11.9531 23.918Z" fill="#FFCC00"/>
<path d="M9.67969 19.9922C7.80469 19.9922 6.30469 18.4922 6.30469 16.6289C6.30469 15.6562 6.70312 14.7773 7.46484 14.0977C7.60547 13.9805 7.62891 13.9102 7.62891 13.7461V7.95703C7.62891 6.64453 8.44922 5.73047 9.67969 5.73047C10.8867 5.73047 11.7188 6.64453 11.7188 7.95703L11.707 13.7461C11.707 13.9102 11.7305 13.9805 11.8477 14.0977C12.6211 14.7773 13.0312 15.6562 13.0312 16.6289C13.0312 18.4922 11.5312 19.9922 9.67969 19.9922ZM9.67969 18.9961C10.9688 18.9961 12.0352 17.9531 12.0352 16.6289C12.0352 15.832 11.6602 15.1289 10.9922 14.6836C10.7695 14.543 10.6992 14.4141 10.6992 14.1328V7.99219C10.6992 7.24219 10.2891 6.75 9.67969 6.75C9.03516 6.75 8.625 7.24219 8.625 7.99219V14.1328C8.625 14.4141 8.55469 14.543 8.33203 14.6836C7.67578 15.1289 7.3125 15.832 7.3125 16.6289C7.3125 17.9531 8.34375 18.9961 9.67969 18.9961ZM9.66797 18.1992C8.78906 18.1992 8.09766 17.4961 8.09766 16.6172C8.09766 16.0195 8.44922 15.5156 8.92969 15.2461C9.14062 15.1406 9.19922 15.0586 9.19922 14.7656V13.5352C9.19922 13.207 9.39844 12.9961 9.66797 12.9961C9.92578 12.9961 10.1367 13.207 10.1367 13.5352V14.7656C10.1367 15.0586 10.1953 15.1406 10.3828 15.2461C10.8867 15.5273 11.2383 16.0195 11.2383 16.6172C11.2383 17.4844 10.5469 18.1992 9.66797 18.1992ZM14.2969 14.6133C14.0273 14.6133 13.8398 14.3789 13.8398 14.1094V13.207L13.3359 13.5234C13.125 13.3711 12.8555 13.0781 12.8086 12.8438L13.8516 12.2344L13.875 10.0898L12.6211 10.8398V9.80859L13.4531 9.35156L12.6211 8.88281C12.6094 8.51953 12.5859 8.16797 12.5508 7.81641L13.875 8.60156L13.8516 6.45703L12.75 5.8125C12.5273 5.67188 12.4336 5.4375 12.5625 5.21484C12.6797 4.99219 12.9375 4.93359 13.1719 5.07422L13.8398 5.46094V4.59375C13.8398 4.3125 14.0273 4.08984 14.2969 4.08984C14.5781 4.08984 14.7539 4.3125 14.7539 4.59375L14.7422 5.46094L15.4219 5.07422C15.6562 4.94531 15.9258 4.98047 16.043 5.21484C16.1484 5.4375 16.0898 5.67188 15.832 5.8125L14.7422 6.45703L14.7188 8.60156L16.5586 7.52344L16.5703 6.26953C16.5703 5.98828 16.7461 5.78906 17.0039 5.78906C17.25 5.78906 17.4141 5.98828 17.4141 6.23438V7.00781L18.1992 6.5625C18.4336 6.42188 18.7148 6.49219 18.8555 6.72656C18.9961 6.96094 18.9023 7.21875 18.6562 7.37109L17.8828 7.80469L18.5391 8.21484C18.75 8.34375 18.8672 8.58984 18.7266 8.80078C18.5977 9.03516 18.3398 9.05859 18.1055 8.91797L17.0039 8.30859L15.1406 9.35156L16.9922 10.3828L18.0938 9.76172C18.3164 9.63281 18.5742 9.67969 18.7148 9.91406C18.832 10.1016 18.7383 10.3477 18.5273 10.4766L17.8594 10.875L18.6445 11.3438C18.8789 11.4844 18.9961 11.7305 18.8555 11.9883C18.7148 12.2227 18.4336 12.2461 18.1758 12.1172L17.4023 11.6602L17.3906 12.4453C17.3906 12.6914 17.2266 12.9141 16.9805 12.9141C16.7227 12.9023 16.5469 12.7031 16.5469 12.4219V11.168L14.7188 10.0898L14.7422 12.2344L15.832 12.8672C16.0547 13.0078 16.1602 13.2422 16.0312 13.4883C15.9141 13.6992 15.6562 13.7461 15.4219 13.6055L14.7422 13.2188L14.7539 14.1094C14.7539 14.3672 14.5781 14.6133 14.2969 14.6133Z" fill="black" fill-opacity="0.85"/>
</svg>
