<svg width="16" height="27" viewBox="0 0 16 27" fill="none" xmlns="http://www.w3.org/2000/svg">
<path d="M12.0117 4.30078H14.5547C14.9648 4.30078 15.2461 3.98438 15.2461 3.62109C15.2461 3.25781 14.9648 2.94141 14.5547 2.94141H12.0117C11.6016 2.94141 11.3203 3.25781 11.3203 3.62109C11.3203 3.98438 11.6016 4.30078 12.0117 4.30078ZM12.0117 7.59375H14.5547C14.9648 7.59375 15.2461 7.27734 15.2461 6.91406C15.2461 6.55078 14.9648 6.23438 14.5547 6.23438H12.0117C11.6016 6.23438 11.3203 6.55078 11.3203 6.91406C11.3203 7.27734 11.6016 7.59375 12.0117 7.59375ZM12.0117 10.8867H14.5547C14.9648 10.8867 15.2461 10.5703 15.2461 10.207C15.2461 9.84375 14.9648 9.51562 14.5547 9.51562H12.0117C11.6016 9.51562 11.3203 9.84375 11.3203 10.207C11.3203 10.5703 11.6016 10.8867 12.0117 10.8867ZM12.0117 14.1797H14.5547C14.9648 14.1797 15.2461 13.8633 15.2461 13.5C15.2461 13.125 14.9648 12.8086 14.5547 12.8086H12.0117C11.6016 12.8086 11.3203 13.125 11.3203 13.5C11.3203 13.8633 11.6016 14.1797 12.0117 14.1797Z" fill="#007AFF"/>
<path d="M6.14062 26.0391C9.51562 26.0391 12.2461 23.2969 12.2461 19.9219C12.2461 18.1406 11.5195 16.582 10.1133 15.3164C9.86719 15.0938 9.80859 14.9531 9.80859 14.6016L9.82031 4.00781C9.82031 1.62891 8.32031 0 6.14062 0C3.9375 0 2.42578 1.62891 2.42578 4.00781L2.4375 14.6016C2.4375 14.9531 2.39062 15.0938 2.13281 15.3164C0.738281 16.582 0 18.1406 0 19.9219C0 23.2969 2.74219 26.0391 6.14062 26.0391ZM6.14062 24.3398C3.69141 24.3398 1.72266 22.3477 1.72266 19.9219C1.72266 18.457 2.41406 17.1328 3.65625 16.3008C4.01953 16.0547 4.16016 15.832 4.16016 15.3516V4.07812C4.16016 2.67188 4.96875 1.72266 6.14062 1.72266C7.28906 1.72266 8.09766 2.67188 8.09766 4.07812V15.3516C8.09766 15.832 8.23828 16.0547 8.60156 16.3008C9.84375 17.1328 10.5352 18.457 10.5352 19.9219C10.5352 22.3477 8.55469 24.3398 6.14062 24.3398Z" fill="#FFCC00"/>
<path d="M6.12891 22.7578C7.69922 22.7578 8.96484 21.4922 8.96484 19.9102C8.96484 18.8086 8.34375 17.9062 7.44141 17.4141C7.06641 17.2148 6.9375 17.0742 6.9375 16.5V3.80859C6.9375 3.24609 6.57422 2.88281 6.12891 2.88281C5.67188 2.88281 5.32031 3.24609 5.32031 3.80859V16.5C5.32031 17.0742 5.19141 17.2148 4.81641 17.4141C3.91406 17.9062 3.29297 18.8086 3.29297 19.9102C3.29297 21.4922 4.55859 22.7578 6.12891 22.7578Z" fill="black" fill-opacity="0.85"/>
</svg>
