<svg width="24" height="24" viewBox="0 0 24 24" fill="none" xmlns="http://www.w3.org/2000/svg">
<path d="M11.9531 23.9062C18.4922 23.9062 23.9062 18.4805 23.9062 11.9531C23.9062 5.41406 18.4805 0 11.9414 0C5.41406 0 0 5.41406 0 11.9531C0 18.4805 5.42578 23.9062 11.9531 23.9062ZM11.9531 21.9141C6.42188 21.9141 2.00391 17.4844 2.00391 11.9531C2.00391 6.42188 6.41016 1.99219 11.9414 1.99219C17.4727 1.99219 21.9141 6.42188 21.9141 11.9531C21.9141 17.4844 17.4844 21.9141 11.9531 21.9141Z" fill="#007AFF"/>
<path d="M11.9531 18.6094C15.5977 18.6094 18.6094 15.5977 18.6094 11.9531C18.6094 8.30859 15.5977 5.29688 11.9648 5.29688C11.4727 5.29688 11.2266 5.61327 11.2266 6.04688V7.89844C11.2266 8.29688 11.5078 8.625 11.9297 8.625C12.3398 8.625 12.6328 8.29688 12.6328 7.89844V6.87891C15.1758 7.19531 17.0625 9.30469 17.0625 11.9531C17.0625 14.8242 14.8359 17.0742 11.9531 17.0742C9.08203 17.0742 6.83203 14.8242 6.83203 11.9531C6.83203 10.6641 7.28906 9.53905 8.05078 8.63671C8.30859 8.3203 8.34374 7.875 8.03905 7.57031C7.72265 7.24219 7.21875 7.27734 6.90234 7.65234C5.90625 8.80078 5.29688 10.3242 5.29688 11.9531C5.29688 15.5977 8.30859 18.6094 11.9531 18.6094ZM13.0664 12.9609C13.6289 12.3633 13.5234 11.5664 12.8438 11.0977L9.78516 9.04688C9.32812 8.75391 8.84766 9.21093 9.15234 9.66796L11.2148 12.7266C11.6719 13.418 12.4805 13.5234 13.0664 12.9609Z" fill="black" fill-opacity="0.85"/>
</svg>
