<svg width="41" height="22" viewBox="0 0 41 22" fill="none" xmlns="http://www.w3.org/2000/svg">
<path d="M11.332 21.5977H28.9805C31.4414 21.5977 32.6602 20.3789 32.6602 17.9648V3.65625C32.6602 1.24219 31.4414 0.0234375 28.9805 0.0234375H11.332C8.88281 0.0234375 7.65234 1.23047 7.65234 3.65625V17.9648C7.65234 20.3906 8.88281 21.5977 11.332 21.5977ZM9.82031 14.5547V7.06641C9.82031 6.67969 10.1367 6.36328 10.5234 6.36328C10.9102 6.36328 11.2383 6.67969 11.2383 7.06641V14.5547C11.2383 14.9414 10.9102 15.2578 10.5234 15.2578C10.1367 15.2578 9.82031 14.9414 9.82031 14.5547ZM13.3945 19.7109V1.91016H26.918V19.7109H13.3945ZM29.0859 14.5547V7.06641C29.0859 6.67969 29.4023 6.36328 29.7891 6.36328C30.1758 6.36328 30.5039 6.67969 30.5039 7.06641V14.5547C30.5039 14.9414 30.1758 15.2578 29.7891 15.2578C29.4023 15.2578 29.0859 14.9414 29.0859 14.5547Z" fill="#007AFF"/>
<path d="M0 13.4061C0 14.039 0.515625 14.3085 1.06641 13.9687L5.22656 11.4374C5.75391 11.1093 5.74219 10.4882 5.22656 10.1718L1.05469 7.61708C0.503906 7.27723 0 7.5702 0 8.1913V13.4061ZM40.3008 13.4061V8.1913C40.3008 7.5702 39.7969 7.27723 39.2461 7.61708L35.0859 10.1718C34.5586 10.4882 34.5469 11.1093 35.0859 11.4374L39.2461 13.9687C39.7969 14.3085 40.3008 14.039 40.3008 13.4061Z" fill="black" fill-opacity="0.85"/>
</svg>
