<svg width="24" height="24" viewBox="0 0 24 24" fill="none" xmlns="http://www.w3.org/2000/svg">
<path d="M11.9531 23.9062C18.4922 23.9062 23.9062 18.4805 23.9062 11.9531C23.9062 5.41406 18.5039 0 11.9648 0C11.3438 0 11.0391 0.375 11.0391 0.984375V5.51953C11.0391 6.03516 11.3906 6.43359 11.8945 6.43359C12.4102 6.43359 12.7617 6.03516 12.7617 5.51953V0.960938L11.9414 1.99219C17.4961 1.99219 21.9023 6.42188 21.9023 11.9531C21.9023 17.4844 17.4844 21.9141 11.9531 21.9141C6.42188 21.9141 1.98047 17.4844 1.99219 11.9531C2.00391 9.48047 2.88281 7.24219 4.35938 5.51953C4.71094 5.0625 4.73438 4.51172 4.34766 4.10156C3.96094 3.69141 3.31641 3.72656 2.88281 4.24219C1.10156 6.32812 0 9.03516 0 11.9531C0 18.4805 5.42578 23.9062 11.9531 23.9062Z" fill="#007AFF"/>
<path d="M13.8282 13.6405C14.754 12.6679 14.5665 11.3671 13.4532 10.5937L7.25403 6.25776C6.66809 5.84761 6.05871 6.4687 6.46887 7.04292L10.7931 13.2421C11.5782 14.3554 12.879 14.5546 13.8282 13.6405Z" fill="black" fill-opacity="0.85"/>
</svg>
