<svg width="24" height="24" viewBox="0 0 24 24" fill="none" xmlns="http://www.w3.org/2000/svg">
<path d="M11.9531 23.9062C18.4922 23.9062 23.9062 18.4805 23.9062 11.9531C23.9062 5.41406 18.4805 0 11.9414 0C5.41406 0 0 5.41406 0 11.9531C0 18.4805 5.42578 23.9062 11.9531 23.9062Z" fill="#FFCC00"/>
<path d="M11.9531 18.8203C8.19141 18.8203 5.08594 15.7148 5.08594 11.9531C5.08594 10.2773 5.71875 8.70703 6.73828 7.52344C7.06641 7.13672 7.59375 7.08984 7.92188 7.42969C8.23828 7.74609 8.20312 8.21484 7.93359 8.54297C7.14844 9.46875 6.67969 10.6289 6.67969 11.9531C6.67969 14.9062 9 17.2266 11.9531 17.2266C14.918 17.2266 17.2148 14.9062 17.2148 11.9531C17.2148 9.22266 15.2812 7.05469 12.6562 6.72656V7.76953C12.6562 8.17969 12.3516 8.51953 11.9297 8.51953C11.4961 8.51953 11.2031 8.17969 11.2031 7.76953V5.85938C11.2031 5.41406 11.4609 5.08594 11.9648 5.08594C15.7148 5.08594 18.8203 8.19141 18.8203 11.9531C18.8203 15.7148 15.7148 18.8203 11.9531 18.8203ZM13.1016 12.9961C12.5039 13.582 11.6602 13.4648 11.1914 12.75L9.07031 9.59766C8.75391 9.12891 9.24609 8.66016 9.72656 8.95312L12.8789 11.0742C13.5703 11.5547 13.6875 12.375 13.1016 12.9961Z" fill="black" fill-opacity="0.85"/>
</svg>
