<svg width="22" height="22" viewBox="0 0 22 22" fill="none" xmlns="http://www.w3.org/2000/svg">
<path d="M3.67969 21.5977H17.8945C20.3555 21.5977 21.5742 20.3789 21.5742 17.9648V3.65625C21.5742 1.24219 20.3555 0.0234375 17.8945 0.0234375H3.67969C1.23047 0.0234375 0 1.23047 0 3.65625V17.9648C0 20.3906 1.23047 21.5977 3.67969 21.5977ZM3.70312 19.7109C2.53125 19.7109 1.88672 19.0898 1.88672 17.8711V3.75C1.88672 2.53125 2.53125 1.91016 3.70312 1.91016H17.8711C19.0312 1.91016 19.6875 2.53125 19.6875 3.75V17.8711C19.6875 19.0898 19.0312 19.7109 17.8711 19.7109H3.70312Z" fill="#007AFF"/>
<path d="M3.96094 10.793C3.96094 14.543 7.04297 17.6367 10.793 17.6367C14.543 17.6367 17.6367 14.543 17.6367 10.793C17.6367 7.05469 14.543 3.96094 10.8047 3.96094C10.3008 3.96094 9.98438 4.28906 9.98438 4.80469V7.05469C9.98438 7.51172 10.3242 7.85156 10.7695 7.85156C11.2031 7.85156 11.5312 7.5 11.5312 7.05469V5.71875C14.0391 6.05859 15.9375 8.19141 15.9375 10.793C15.9375 13.6523 13.6406 15.9375 10.793 15.9375C7.94531 15.9375 5.64844 13.6523 5.66016 10.793C5.66016 9.5625 6.08203 8.39062 6.89062 7.46484C7.18359 7.07812 7.18359 6.62109 6.87891 6.28125C6.51562 5.90625 5.96484 5.95312 5.61328 6.375C4.54688 7.60547 3.96094 9.19922 3.96094 10.793ZM11.8945 11.8477C12.4453 11.2734 12.3398 10.4531 11.6719 10.0195L8.51953 7.89844C8.03906 7.58203 7.61719 7.99219 7.93359 8.47266L10.0664 11.6133C10.5234 12.293 11.332 12.3984 11.8945 11.8477Z" fill="black" fill-opacity="0.85"/>
</svg>
