<svg width="24" height="24" viewBox="0 0 24 24" fill="none" xmlns="http://www.w3.org/2000/svg">
<path d="M11.9531 23.9062C18.4922 23.9062 23.9062 18.4805 23.9062 11.9531C23.9062 5.41406 18.4805 0 11.9414 0C5.41406 0 0 5.41406 0 11.9531C0 18.4805 5.42578 23.9062 11.9531 23.9062ZM11.9531 21.9141C6.42188 21.9141 2.00391 17.4844 2.00391 11.9531C2.00391 6.42188 6.41016 1.99219 11.9414 1.99219C17.4727 1.99219 21.9141 6.42188 21.9141 11.9531C21.9141 17.4844 17.4844 21.9141 11.9531 21.9141Z" fill="#007AFF"/>
<path d="M7.93359 5.91797H15.9727C16.2539 5.91797 16.4883 5.68359 16.4883 5.41406C16.4883 5.14453 16.2539 4.91016 15.9727 4.91016H7.93359C7.65234 4.91016 7.42969 5.14453 7.42969 5.41406C7.42969 5.68359 7.65234 5.91797 7.93359 5.91797ZM11.9531 9.41016C13.3828 9.41016 14.625 9.59766 15.4922 9.96094L15.7383 6.63281H8.16797L8.41406 9.96094C9.29297 9.60938 10.5234 9.41016 11.9531 9.41016ZM11.9531 13.1953C14.4609 13.1953 16.2422 12.5508 16.2422 11.6484C16.2422 10.7578 14.4375 10.125 11.9531 10.125C9.48047 10.125 7.66406 10.7578 7.66406 11.6484C7.66406 12.5508 9.48047 13.1953 11.9531 13.1953ZM11.7422 16.1016H12.1641C14.2031 16.1016 15.7617 14.9297 16.1484 12.9609C15.293 13.5469 13.8047 13.8867 11.9531 13.8867C10.1133 13.8867 8.61328 13.5469 7.75781 12.9492C8.13281 14.9297 9.70312 16.1016 11.7422 16.1016ZM11.9531 19.793C12.9609 19.793 14.2852 19.5234 14.8711 18.9609C15.0234 18.7969 15.0234 18.5859 14.9648 18.3516L14.3555 16.3477C13.6992 16.6523 12.9258 16.8164 12.1641 16.8164H11.7188C10.9805 16.8164 10.207 16.6523 9.55078 16.3594L8.94141 18.3516C8.88281 18.5859 8.88281 18.7969 9.04688 18.9609C9.62109 19.5234 10.9453 19.793 11.9531 19.793Z" fill="black" fill-opacity="0.85"/>
</svg>
