<svg width="24" height="24" viewBox="0 0 24 24" fill="none" xmlns="http://www.w3.org/2000/svg">
<path d="M11.9531 23.918C18.4922 23.918 23.9062 18.5039 23.9062 11.9648C23.9062 5.4375 18.4805 0.0117188 11.9414 0.0117188C5.41406 0.0117188 0 5.4375 0 11.9648C0 18.5039 5.42578 23.918 11.9531 23.918Z" fill="#FFCC00"/>
<path d="M7.81641 5.74219C7.52344 5.74219 7.28906 5.50781 7.28906 5.21484C7.28906 4.93359 7.52344 4.69922 7.81641 4.69922H16.0898C16.3828 4.69922 16.6289 4.93359 16.6289 5.21484C16.6289 5.50781 16.3828 5.74219 16.0898 5.74219H7.81641ZM11.9531 9.32812C10.4766 9.32812 9.21094 9.53906 8.30859 9.91406L8.05078 6.48047H15.8555L15.5977 9.91406C14.707 9.53906 13.4297 9.32812 11.9531 9.32812ZM11.9531 13.2305C9.41016 13.2305 7.53516 12.5625 7.53516 11.6367C7.53516 10.7227 9.41016 10.0664 11.9531 10.0664C14.5078 10.0664 16.3711 10.7227 16.3711 11.6367C16.3711 12.5625 14.5312 13.2305 11.9531 13.2305ZM11.7305 16.2305C9.63281 16.2305 8.01562 15.0352 7.62891 12.9961C8.50781 13.5938 10.0547 13.9453 11.9531 13.9453C13.8633 13.9453 15.3984 13.5938 16.2773 12.9961C15.8789 15.0352 14.2734 16.2305 12.1758 16.2305H11.7305ZM11.9531 20.0391C10.9219 20.0391 9.55078 19.7578 8.95312 19.1719C8.78906 19.0078 8.78906 18.7852 8.84766 18.5625L9.48047 16.5117C10.1484 16.8164 10.9453 16.9688 11.707 16.9688H12.1758C12.9609 16.9688 13.7578 16.8164 14.4258 16.4883L15.0586 18.5625C15.1172 18.7852 15.1172 19.0078 14.9648 19.1719C14.3555 19.7578 12.9844 20.0391 11.9531 20.0391Z" fill="black" fill-opacity="0.85"/>
</svg>
