<svg width="23" height="27" viewBox="0 0 23 27" fill="none" xmlns="http://www.w3.org/2000/svg">
<path d="M10.9336 10.5669C18.1172 10.5669 22.2422 8.75053 22.2422 6.27787C22.2422 4.00443 18.9609 2.6099 14.2734 2.6099C10.7578 2.6099 8.01562 3.28959 5.94141 4.26225C5.37891 4.53178 5.25 5.09428 5.46094 5.49272C5.68359 5.93803 6.26953 6.05522 6.73828 5.856C8.61328 5.07084 10.9805 4.30912 14.168 4.30912C18.1172 4.30912 20.4023 5.24662 20.4023 6.26615C20.4023 7.46147 16.8398 8.80912 10.8516 8.80912C4.96875 8.80912 1.82812 7.64897 1.82812 5.43412C1.82812 4.13334 3.02344 2.76225 6.42188 1.6724C6.99609 1.4849 7.24219 1.02787 7.07812 0.547403C6.91406 0.0669344 6.48047 -0.120566 5.83594 0.0786532C1.89844 1.25053 0 3.30131 0 5.481C0 8.80912 3.76172 10.5669 10.9336 10.5669ZM11.2852 14.4341C14.9531 14.4341 18.3281 13.8247 20.7188 12.8521C21.1641 12.6646 21.3867 12.1958 21.1641 11.7857C20.9531 11.3872 20.5312 11.3169 20.0039 11.5162C17.8359 12.3482 14.6836 12.9107 11.2852 12.9107C8.77734 12.9107 5.89453 12.5943 3.64453 11.938C3.11719 11.7857 2.68359 11.9497 2.55469 12.3951C2.42578 12.8287 2.64844 13.2388 3.1875 13.4029C5.61328 14.0826 8.64844 14.4341 11.2852 14.4341ZM12.082 18.2544C15.1523 18.231 18.0352 17.7857 20.6719 16.8833C21.293 16.6724 21.3867 16.1802 21.2344 15.8169C21.0703 15.4068 20.6484 15.2779 20.0508 15.4771C17.4492 16.3208 14.8594 16.7193 12.082 16.7193C10.8984 16.7193 9.66797 16.6372 8.70703 16.5083C8.13281 16.438 7.78125 16.6607 7.71094 17.0826C7.62891 17.5044 7.85156 17.9029 8.46094 18.0083C9.36328 18.1724 10.6289 18.2662 12.082 18.2544ZM11.0156 21.8521C13.1484 22.0982 15.7148 22.0396 17.918 21.4419C18.4453 21.3013 18.6445 20.8326 18.5156 20.4224C18.375 19.9888 17.9648 19.8247 17.4023 19.9654C15.5039 20.4576 13.3125 20.6216 11.2734 20.3638C10.7109 20.3052 10.3242 20.563 10.2656 20.9966C10.207 21.4302 10.4297 21.7818 11.0156 21.8521ZM10.2188 25.5669C10.957 25.6724 11.8242 25.6607 12.5859 25.5669C13.125 25.4966 13.3711 25.1568 13.3359 24.7232C13.2891 24.3365 12.9844 24.0552 12.4102 24.1255C11.7656 24.2076 11.0039 24.2076 10.3477 24.1372C9.82031 24.0669 9.49219 24.3482 9.43359 24.7232C9.38672 25.1216 9.63281 25.5083 10.2188 25.5669Z" fill="black" fill-opacity="0.85"/>
</svg>
