<svg width="24" height="24" viewBox="0 0 24 24" fill="none" xmlns="http://www.w3.org/2000/svg">
<path d="M11.9531 23.918C18.4922 23.918 23.9062 18.5039 23.9062 11.9648C23.9062 5.4375 18.4805 0.0117188 11.9414 0.0117188C5.41406 0.0117188 0 5.4375 0 11.9648C0 18.5039 5.42578 23.918 11.9531 23.918Z" fill="#FFCC00"/>
<path d="M11.8477 10.8633C7.79297 10.8633 5.58984 9.85545 5.58984 7.8867C5.58984 6.60936 6.70312 5.41404 8.94141 4.73436C9.38672 4.61717 9.69141 4.74607 9.80859 5.08592C9.91406 5.42576 9.72656 5.75389 9.35156 5.88279C7.48828 6.46873 6.86719 7.19529 6.86719 7.86326C6.86719 9.0117 8.50781 9.64451 11.8008 9.64451C15.1172 9.64451 17.0391 8.91795 17.0391 8.33201C17.0391 7.8281 15.8438 7.34764 13.6641 7.34764C11.8828 7.34764 10.5938 7.76951 9.55078 8.2031C9.22266 8.35545 8.82422 8.27342 8.67188 7.95701C8.51953 7.68748 8.60156 7.28904 8.98828 7.10154C10.1602 6.53904 11.7305 6.16404 13.7227 6.16404C16.3828 6.16404 18.3047 6.97264 18.3047 8.34373C18.3047 9.83201 15.8906 10.8633 11.8477 10.8633ZM12.0352 13.0312C10.5703 13.0312 8.82422 12.832 7.47656 12.4453C7.11328 12.3516 6.9375 12.0352 7.01953 11.7305C7.125 11.4023 7.44141 11.2852 7.79297 11.3906C9.04688 11.7539 10.6289 11.9297 12.0352 11.9297C13.9336 11.9297 15.6797 11.6133 16.875 11.1562C17.2266 11.0156 17.543 11.0742 17.707 11.3672C17.8477 11.6719 17.707 12 17.3789 12.1289C16.0312 12.6914 14.1211 13.0312 12.0352 13.0312ZM12.4805 15.1641C11.6719 15.1758 10.9453 15.1289 10.4297 15.0352C10.0195 14.9531 9.85547 14.6602 9.91406 14.3672C9.98438 14.0742 10.2305 13.9102 10.6172 13.9453C11.1445 14.0156 11.8242 14.0742 12.4805 14.0742C14.0273 14.0742 15.4805 13.8398 16.9336 13.3594C17.3203 13.2422 17.6367 13.3359 17.7422 13.6289C17.8477 13.8867 17.7656 14.2617 17.3555 14.4023C15.8672 14.9062 14.2383 15.1523 12.4805 15.1641ZM11.8828 17.2031C11.4844 17.1328 11.3203 16.875 11.3438 16.5703C11.3906 16.2539 11.6719 16.0664 12.0469 16.1016C13.1719 16.2539 14.3789 16.1719 15.4336 15.8906C15.8203 15.7969 16.1133 15.9141 16.2188 16.2305C16.3125 16.5117 16.1719 16.8398 15.8086 16.957C14.5547 17.2969 13.0898 17.332 11.8828 17.2031ZM11.4258 19.2773C11.0156 19.2188 10.8516 18.9375 10.8867 18.6562C10.9219 18.3867 11.1562 18.1641 11.543 18.2227C11.9062 18.2695 12.293 18.2578 12.6562 18.2109C13.0547 18.1641 13.2773 18.375 13.3242 18.6562C13.3359 18.9609 13.1602 19.2188 12.7852 19.2656C12.3398 19.3125 11.8594 19.3242 11.4258 19.2773Z" fill="black" fill-opacity="0.85"/>
</svg>
