<svg width="39" height="24" viewBox="0 0 39 24" fill="none" xmlns="http://www.w3.org/2000/svg">
<path d="M14.1094 11.4141C17.3438 11.4023 20.0273 10.2656 22.1484 7.94528C19.9922 5.20309 17.6953 3.91403 14.1914 3.90231C10.6992 3.89059 8.4375 5.01559 6.15234 7.99216C8.30859 10.3242 11.0977 11.4258 14.1094 11.4141ZM6.50391 18.5273C8.26172 16.8398 9.69141 14.1797 9.91406 12.1172C8.34375 11.5312 6.42188 10.4062 5.29688 9.19919C4.74609 10.0547 4.16016 10.9805 3.64453 12.0117C2.55469 14.1914 1.3125 15.1992 0.515625 15.9492C0.199219 16.2422 0 16.582 0 17.0391C0 17.7188 0.726562 18.0938 2.00391 18.0938H3.41016C4.73438 18.0938 5.63672 18.2578 6.50391 18.5273ZM14.0859 21.2227C16.7695 21.2227 18.6562 19.8164 20.2383 19.0312C18.4453 17.332 17.2969 14.8242 17.1211 12.5156C16.1484 12.7852 15.1641 12.9141 14.1445 12.9141C13.125 12.9258 12.1406 12.7852 11.1914 12.5391C11.0039 14.6953 9.83203 17.3086 8.03906 19.0898C9.5625 19.6875 11.4023 21.2227 14.0859 21.2227ZM21.6094 18.4688C22.6758 18.2109 23.6133 18.0586 24.9844 18.0586C26.1094 18.0586 27.1992 17.8828 27.7383 17.5781C26.4492 15.9023 24.1406 10.957 22.9336 9.082C21.7266 10.3359 19.7695 11.5547 18.4219 12.082C18.6328 14.1914 19.793 16.6406 21.6094 18.4688Z" fill="#007AFF"/>
<path d="M3.28125 23.2148C5.32031 23.2148 7.40625 22.3125 8.39062 20.9414C7.24219 20.1797 5.78906 19.4648 4.40625 19.4062C3.78516 19.5703 3.09375 19.6055 2.37891 19.7461C1.37109 19.9336 0.457031 20.3438 0.457031 21.3164C0.457031 22.5469 1.6875 23.2148 3.28125 23.2148ZM24.4922 23.2383C26.0859 23.2383 27.3164 22.5703 27.3164 21.3398C27.3164 20.3789 26.4023 19.6172 25.3945 19.5352C24.668 19.5 24.1055 19.4883 23.3672 19.4414C22.0195 19.5117 20.5664 20.2266 19.3828 20.9648C20.3672 22.3477 22.4531 23.2383 24.4922 23.2383ZM28.8984 17.0625C30.5508 16.3008 31.3125 15.3516 33.5625 15.3516C36.6211 15.3516 38.6133 14.25 38.6133 12.5156C38.6133 8.51953 36.4922 5.80078 33.3047 5.80078C30.5391 5.80078 28.8164 7.45312 28.1484 10.1133C27.6562 11.9531 27.0117 12.6328 26.4141 13.1484C26.9766 13.9688 27.9375 15.6562 28.8984 17.0625ZM33.5859 11.3438C33.0234 11.3438 32.5781 10.8867 32.5781 10.3359C32.5781 9.79688 33.0234 9.33984 33.5859 9.33984C34.125 9.33984 34.582 9.79688 34.582 10.3359C34.582 10.8867 34.125 11.3438 33.5859 11.3438Z" fill="black" fill-opacity="0.85"/>
</svg>
