<svg width="24" height="24" viewBox="0 0 24 24" fill="none" xmlns="http://www.w3.org/2000/svg">
<path d="M11.9531 23.9062C18.4922 23.9062 23.9062 18.4805 23.9062 11.9531C23.9062 5.41406 18.4805 0 11.9414 0C5.41406 0 0 5.41406 0 11.9531C0 18.4805 5.42578 23.9062 11.9531 23.9062Z" fill="#FFCC00"/>
<path d="M9.82031 10.9453C8.42578 10.957 7.16016 10.4531 6.16406 9.375C7.18359 8.01562 8.25 7.5 9.85547 7.5C11.4609 7.51172 12.5156 8.10938 13.5117 9.35156C12.5391 10.4297 11.2969 10.9336 9.82031 10.9453ZM6.29297 14.2617C5.88281 14.1328 5.47266 14.0625 4.875 14.0625C4.65234 14.0625 4.41797 14.0625 4.19531 14.0625C3.60938 14.0625 3.30469 13.8867 3.30469 13.582C3.30469 13.3711 3.39844 13.207 3.52734 13.0664C3.92578 12.75 4.46484 12.2461 4.98047 11.2734C5.21484 10.793 5.48438 10.3711 5.73047 9.98438C6.24609 10.5352 7.125 11.0625 7.83984 11.3203C7.72266 12.2695 7.08984 13.4883 6.29297 14.2617ZM9.80859 15.5156C8.57812 15.5156 7.74609 14.8125 7.05469 14.5195C7.86328 13.7227 8.40234 12.5156 8.49609 11.543C8.92969 11.6484 9.375 11.707 9.84375 11.707C10.2891 11.707 10.7461 11.6484 11.1914 11.5312C11.2617 12.5742 11.8008 13.7344 12.6328 14.5078C11.8945 14.8594 11.0273 15.5156 9.80859 15.5156ZM13.3242 14.2266C12.4688 13.3945 11.9297 12.2578 11.8359 11.3086C12.457 11.0742 13.3594 10.5 13.8984 9.9375C14.4727 10.8047 15.5156 13.0547 16.1133 13.8164C15.8789 13.9688 15.3633 14.0391 14.8477 14.0391C14.2383 14.0391 13.793 14.1094 13.3242 14.2266ZM18.7969 12.7969C17.7891 12.7969 17.4375 13.2188 16.7109 13.5586C16.2891 12.9492 15.8438 12.1758 15.5508 11.7422C15.7969 11.5195 16.1016 11.1914 16.3125 10.3828C16.6055 9.14062 17.4141 8.39062 18.6914 8.39062C20.1562 8.39062 21.1289 9.64453 21.1289 11.4844C21.1289 12.2812 20.2148 12.7969 18.7969 12.7969ZM18.8203 10.9453C19.043 10.9453 19.2773 10.7344 19.2773 10.4766C19.2773 10.2305 19.043 10.0078 18.8203 10.0078C18.5625 10.0078 18.3516 10.2305 18.3516 10.4766C18.3516 10.7344 18.5625 10.9453 18.8203 10.9453ZM4.81641 16.4297C4.08984 16.4297 3.51562 16.1133 3.51562 15.5508C3.51562 15.1055 3.94922 14.9297 4.40625 14.8125C4.66406 14.7773 4.93359 14.7656 5.17969 14.707C5.88281 14.7188 6.51562 15.0352 7.13672 15.4102C6.67969 16.0312 5.74219 16.4297 4.81641 16.4297ZM14.625 16.4531C13.6875 16.4531 12.75 16.0547 12.3047 15.4336C12.7852 15.1289 13.5938 14.7305 14.2031 14.707C14.5195 14.7188 14.7422 14.7188 15.0352 14.7305C15.4922 14.7656 15.9141 15.1289 15.9141 15.5625C15.9141 16.125 15.3516 16.4531 14.625 16.4531Z" fill="black" fill-opacity="0.85"/>
</svg>
