<svg width="40" height="24" viewBox="0 0 40 24" fill="none" xmlns="http://www.w3.org/2000/svg">
<path d="M14.4023 21.7852C19.3711 21.7852 19.875 18.6094 24.8203 18.6094C30.3398 18.6094 30.1406 15.8672 33.9023 15.8672C37.0664 15.8672 39.4336 14.7656 39.4336 12.5859C39.4336 7.92188 36.75 5.4375 33.6562 5.4375C30.457 5.4375 28.7578 7.45312 28.0781 10.1016C27.6914 11.543 27.0117 12.4453 25.9805 12.9609L25.2422 11.6016C22.1367 5.88281 19.2773 3.57422 14.5664 3.5625C9.48047 3.57422 6.89062 5.78906 3.09375 12.9609C1.94531 15.1523 0 15.6328 0 17.0039C0 17.9648 0.738281 18.6094 2.22656 18.6094C2.68359 18.6094 3.19922 18.6094 3.71484 18.6094C9.14062 18.6094 10.207 21.7852 14.4023 21.7852ZM14.4023 19.9219C10.6641 19.9219 9.57422 16.7227 4.11328 16.7227C3.51562 16.7227 2.90625 16.7344 2.35547 16.7695L2.26172 16.6055C3.05859 15.9375 4.05469 15.0938 4.76953 13.6875C8.02734 7.38281 10.1953 5.4375 14.5664 5.42578C19.3477 5.4375 21.5039 8.66016 23.7305 12.6094C24.5391 14.0508 25.5703 15.6914 26.6133 16.7227C26.1328 16.7344 25.582 16.7227 25.0195 16.7227C19.4766 16.7227 18.4922 19.9219 14.4023 19.9219ZM28.5117 16.207C27.9844 15.7969 27.3516 15.0234 26.9883 14.3672C28.2539 13.8867 29.1094 13.0312 29.625 11.0273C30.1875 8.61328 31.4648 7.20703 33.6562 7.20703C35.8828 7.20703 37.7461 9.26953 37.7461 12.3047C37.7461 13.4297 36.0352 14.1562 34.2539 14.1562C31.3242 14.1562 30.0117 15.2461 28.5117 16.207ZM34.1016 11.5547C34.6758 11.5547 35.1562 11.0742 35.1562 10.5C35.1562 9.92578 34.6758 9.44531 34.1016 9.44531C33.5156 9.44531 33.0352 9.92578 33.0352 10.5C33.0352 11.0742 33.5156 11.5547 34.1016 11.5547ZM14.4258 12.9961C18.3164 12.9961 21.2227 11.2734 23.1445 9.375L22.2773 8.10938C20.2031 10.2539 17.543 11.4844 14.4258 11.4844C11.3086 11.4844 8.67188 10.2891 6.60938 8.10938L5.75391 9.39844C7.55859 11.2266 10.4414 12.9961 14.4258 12.9961ZM8.90625 18.8086C10.3359 17.2031 11.4375 14.4961 11.6484 12.4453L10.3711 12.0117C10.1953 13.8164 9.02344 16.6992 7.59375 18.1758L8.90625 18.8086ZM20.1328 18.7852L21.4805 18.1641C19.9922 16.6289 18.8672 13.875 18.7148 12.0117L17.4141 12.375C17.543 14.5078 18.6562 17.2031 20.1328 18.7852ZM3.44531 23.3555C5.82422 23.3555 8.28516 22.2773 10.1719 20.2031L8.69531 19.2539C6.75 21 5.01562 21.7852 3.46875 21.7852C2.4375 21.7852 1.91016 21.457 1.91016 20.8945C1.91016 20.4727 2.21484 20.1914 3.11719 19.9688C3.78516 19.793 5.78906 19.1602 6.78516 18.5625L5.34375 18C4.33594 18.457 3.03516 18.6562 1.98047 19.043C0.878906 19.4297 0.164062 20.0156 0.164062 21.1406C0.164062 22.5703 1.58203 23.3555 3.44531 23.3555ZM25.3008 23.3789C27.1523 23.3789 28.582 22.6055 28.582 21.1758C28.582 19.8164 27.5625 19.2539 26.1914 18.8789C25.2422 18.6211 24.2344 18.4102 23.4023 18.0352L21.9609 18.5859C22.957 19.1953 24.9609 19.8281 25.6289 20.0039C26.5195 20.2266 26.8359 20.5078 26.8359 20.9297C26.8359 21.4805 26.3086 21.8086 25.2773 21.8086C23.7188 21.8086 21.9961 21.0352 20.0508 19.2891L18.5625 20.2383C20.4141 22.2656 22.9102 23.3789 25.3008 23.3789Z" fill="black" fill-opacity="0.85"/>
</svg>
