<svg width="24" height="24" viewBox="0 0 24 24" fill="none" xmlns="http://www.w3.org/2000/svg">
<path d="M11.9531 23.9062C18.4922 23.9062 23.9062 18.4805 23.9062 11.9531C23.9062 5.41406 18.4805 0 11.9414 0C5.41406 0 0 5.41406 0 11.9531C0 18.4805 5.42578 23.9062 11.9531 23.9062ZM11.9531 21.9141C6.42188 21.9141 2.00391 17.4844 2.00391 11.9531C2.00391 6.42188 6.41016 1.99219 11.9414 1.99219C17.4727 1.99219 21.9141 6.42188 21.9141 11.9531C21.9141 17.4844 17.4844 21.9141 11.9531 21.9141Z" fill="#007AFF"/>
<path d="M9.89062 10.9805C11.332 10.9688 12.5273 10.4766 13.4766 9.43359C12.5156 8.22656 11.4844 7.65234 9.92578 7.64062C8.36719 7.64062 7.33594 8.13282 6.33984 9.45704C7.3125 10.5 8.54297 10.9922 9.89062 10.9805ZM6.46875 14.1914C7.24219 13.4414 7.85156 12.2578 7.96875 11.3438C7.27734 11.0859 6.42188 10.582 5.92969 10.043C5.68359 10.418 5.42578 10.8281 5.19141 11.2969C4.69922 12.2461 4.17188 12.7266 3.78516 13.043C3.65625 13.1719 3.57422 13.3359 3.57422 13.5352C3.57422 13.8281 3.86719 14.0039 4.42969 14.0039C4.64062 14.0039 4.875 14.0039 5.08594 14.0039C5.67188 14.0039 6.07031 14.0742 6.46875 14.1914ZM9.87891 15.4102C11.0625 15.4102 11.9062 14.7773 12.6211 14.4375C11.8125 13.6758 11.2969 12.5625 11.2266 11.543C10.793 11.6602 10.3477 11.7188 9.91406 11.7188C9.45703 11.7188 9.02344 11.6602 8.60156 11.5547C8.50781 12.5039 7.99219 13.6641 7.20703 14.4492C7.875 14.7305 8.68359 15.4102 9.87891 15.4102ZM13.2891 14.1562C13.7461 14.0508 14.1797 13.9805 14.7773 13.9805C15.2695 13.9805 15.7734 13.9102 15.9961 13.7578C15.4219 13.0195 14.4023 10.8398 13.8516 9.99609C13.3242 10.5469 12.457 11.0977 11.8477 11.332C11.9414 12.2578 12.4688 13.3477 13.2891 14.1562ZM18.6094 12.7734C19.9805 12.7734 20.8594 12.2695 20.8594 11.4961C20.8594 9.71485 19.9219 8.49609 18.5039 8.49609C17.2617 8.49609 16.4766 9.23438 16.1953 10.4297C15.9844 11.2148 15.6914 11.5312 15.457 11.7539C15.7383 12.1758 16.1719 12.9258 16.582 13.5117C17.2852 13.1836 17.625 12.7734 18.6094 12.7734ZM18.6211 10.9805C18.375 10.9805 18.1758 10.7695 18.1758 10.5234C18.1758 10.2891 18.375 10.0664 18.6211 10.0664C18.8438 10.0664 19.0664 10.2891 19.0664 10.5234C19.0664 10.7695 18.8438 10.9805 18.6211 10.9805ZM5.03906 16.2891C5.92969 16.2891 6.84375 15.9023 7.28906 15.3047C6.67969 14.9414 6.07031 14.6367 5.39062 14.625C5.15625 14.6836 4.88672 14.6953 4.64062 14.7305C4.19531 14.8359 3.77344 15.0117 3.77344 15.4453C3.77344 15.9844 4.33594 16.2891 5.03906 16.2891ZM14.5547 16.3125C15.2578 16.3125 15.8086 15.9961 15.8086 15.457C15.8086 15.0352 15.3984 14.6836 14.9531 14.6484C14.6719 14.6367 14.4492 14.6367 14.1445 14.625C13.5586 14.6484 12.7734 15.0352 12.3047 15.3281C12.7383 15.9258 13.6523 16.3125 14.5547 16.3125Z" fill="black" fill-opacity="0.85"/>
</svg>
