<svg width="30" height="19" viewBox="0 0 30 19" fill="none" xmlns="http://www.w3.org/2000/svg">
<g clip-path="url(#clip0_2152_15283)">
<path d="M0 15.0117C0 17.4023 1.20703 18.5977 3.63281 18.5977H25.582C28.0078 18.5977 29.2148 17.4023 29.2148 15.0117V3.58594C29.2148 1.19531 28.0078 0 25.582 0H3.63281C1.20703 0 0 1.19531 0 3.58594V15.0117ZM4.28906 9.09375V5.48438C4.28906 4.78125 4.71094 4.37109 5.40234 4.37109H23.8125C24.5039 4.37109 24.9258 4.78125 24.9258 5.48438V9.09375C24.9258 9.76172 24.5039 10.1719 23.8125 10.1719H5.40234C4.71094 10.1719 4.28906 9.76172 4.28906 9.09375Z" fill="black" fill-opacity="0.85"/>
</g>
<defs>
<clipPath id="clip0_2152_15283">
<rect width="29.2148" height="18.5977" fill="white"/>
</clipPath>
</defs>
</svg>
