<svg width="24" height="24" viewBox="0 0 24 24" fill="none" xmlns="http://www.w3.org/2000/svg">
<g clip-path="url(#clip0_2152_15205)">
<path d="M11.9531 23.918C18.4922 23.918 23.9062 18.5039 23.9062 11.9648C23.9062 5.4375 18.4805 0.0117188 11.9414 0.0117188C5.41406 0.0117188 0 5.4375 0 11.9648C0 18.5039 5.42578 23.918 11.9531 23.918Z" fill="#FFCC00"/>
<path d="M7.00781 15.082V10.8516C7.00781 9.30469 7.21875 7.76953 7.45312 6.78516C7.69922 5.80078 8.37891 5.0625 9.41016 4.94531C9.77344 4.89844 10.7578 4.81641 11.9531 4.81641C13.1484 4.81641 14.1328 4.89844 14.4961 4.94531C15.5273 5.0625 16.207 5.80078 16.4531 6.78516C16.6875 7.76953 16.8984 9.30469 16.8984 10.8516V15.082C16.8984 16.207 16.2891 16.793 15 16.793L16.2656 18.8555C16.4297 19.1016 16.3008 19.3828 16.0312 19.3828H15.7031C15.5273 19.3828 15.4336 19.3242 15.3516 19.1836L15 18.6328H8.92969L8.57812 19.1836C8.49609 19.3242 8.40234 19.3828 8.22656 19.3828H7.91016C7.62891 19.3828 7.48828 19.1016 7.65234 18.8555L8.94141 16.793C7.69922 16.7812 7.00781 16.2773 7.00781 15.082ZM8.21484 12.1641C8.21484 12.5039 8.35547 12.7266 8.70703 12.7617C9.33984 12.832 10.582 12.9023 11.9531 12.9141C13.0078 12.9141 14.25 12.8672 15.1992 12.7617C15.5508 12.7266 15.6914 12.5039 15.6914 12.1641V10.8047C15.6914 9.62109 15.5508 8.67188 15.4688 8.25C15.4102 7.98047 15.2461 7.80469 14.9766 7.76953C14.332 7.69922 13.5117 7.62891 11.9531 7.64062C10.3945 7.64062 9.57422 7.69922 8.90625 7.76953C8.66016 7.80469 8.49609 7.98047 8.4375 8.25C8.35547 8.67188 8.21484 9.62109 8.21484 10.8047V12.1641ZM8.42578 14.7539C8.42578 15.2227 8.76562 15.5625 9.22266 15.5625C9.67969 15.5625 10.0312 15.2227 10.0312 14.7539C10.0312 14.2852 9.69141 13.9453 9.22266 13.9453C8.76562 13.9453 8.42578 14.2852 8.42578 14.7539ZM13.8633 14.7539C13.8633 15.2109 14.2148 15.5742 14.6719 15.5742C15.1172 15.5742 15.4922 15.2109 15.4922 14.7539C15.4922 14.2852 15.1289 13.9336 14.6719 13.9336C14.2148 13.9336 13.8633 14.2852 13.8633 14.7539ZM10.0898 6.29297C10.0898 6.49219 10.2422 6.65625 10.4531 6.65625H13.4531C13.6641 6.65625 13.8281 6.49219 13.8281 6.29297C13.8281 6.07031 13.6641 5.94141 13.4531 5.94141H10.4531C10.2422 5.94141 10.0898 6.07031 10.0898 6.29297ZM9.46875 17.7422H14.4609L13.875 16.793H10.0547L9.46875 17.7422Z" fill="black" fill-opacity="0.85"/>
</g>
<defs>
<clipPath id="clip0_2152_15205">
<rect width="23.9062" height="23.918" fill="white"/>
</clipPath>
</defs>
</svg>
