<svg width="29" height="21" viewBox="0 0 29 21" fill="none" xmlns="http://www.w3.org/2000/svg">
<path d="M7.78125 18.3322L20.5664 20.5705C22.8047 20.9689 24.1406 19.5627 24.1406 17.0549V3.60175C24.1406 0.965028 22.8984 -0.335754 20.5664 0.0744028L7.78125 2.3244C5.44922 2.73456 4.20703 3.87128 4.20703 5.84003V14.8049C4.20703 16.7619 5.44922 17.9221 7.78125 18.3322ZM7.6875 16.5627C6.57422 16.3752 5.97656 15.8127 5.97656 14.8283V5.81659C5.97656 4.83222 6.57422 4.26972 7.6875 4.08222L20.6602 1.84393C21.7734 1.65643 22.3711 2.27753 22.3711 3.57831V17.0783C22.3711 18.3205 21.7383 18.9885 20.6602 18.8127L7.6875 16.5627ZM0.9375 11.2072H27.4102C27.9961 11.2072 28.3477 10.8674 28.3477 10.3283C28.3477 9.76581 27.9961 9.43768 27.4102 9.43768H0.9375C0.351562 9.43768 0 9.76581 0 10.3283C0 10.8674 0.351562 11.2072 0.9375 11.2072Z" fill="black" fill-opacity="0.85"/>
</svg>
