<svg width="24" height="24" viewBox="0 0 24 24" fill="none" xmlns="http://www.w3.org/2000/svg">
<path d="M11.9531 23.918C18.4922 23.918 23.9062 18.5039 23.9062 11.9648C23.9062 5.4375 18.4805 0.0117188 11.9414 0.0117188C5.41406 0.0117188 0 5.4375 0 11.9648C0 18.5039 5.42578 23.918 11.9531 23.918Z" fill="#FFCC00"/>
<path d="M8.83594 19.0898C8.01562 19.0898 7.53516 18.6328 7.51172 17.8125L7.08984 8.26172H6.10547C5.82422 8.26172 5.58984 8.03906 5.58984 7.75781C5.58984 7.46484 5.82422 7.23047 6.10547 7.23047H9.01172V6.25781C9.01172 5.26172 9.66797 4.61719 10.7227 4.61719H13.1602C14.2266 4.61719 14.8945 5.26172 14.8945 6.25781V7.23047H17.7891C18.082 7.23047 18.3164 7.46484 18.3047 7.75781C18.293 8.03906 18.082 8.26172 17.7891 8.26172H16.8398L16.4297 17.8125C16.3945 18.6328 15.8906 19.0898 15.082 19.0898H8.83594ZM9.87891 17.2148C10.1367 17.2148 10.3008 17.0391 10.3008 16.8047L10.0664 9.75C10.0664 9.49219 9.87891 9.32812 9.63281 9.32812C9.33984 9.32812 9.1875 9.49219 9.1875 9.75L9.43359 16.8047C9.43359 17.0391 9.63281 17.2148 9.87891 17.2148ZM11.9414 17.2148C12.2109 17.2148 12.3867 17.0391 12.3867 16.8047V9.75C12.3867 9.49219 12.2109 9.32812 11.9414 9.32812C11.6602 9.32812 11.4961 9.49219 11.4961 9.75V16.8047C11.4961 17.0391 11.6719 17.2148 11.9414 17.2148ZM13.9922 17.2148C14.2383 17.2148 14.4375 17.0391 14.4375 16.8047L14.6836 9.75C14.6836 9.49219 14.5312 9.32812 14.25 9.32812C13.9922 9.32812 13.8164 9.49219 13.8047 9.75L13.5703 16.8047C13.5703 17.0391 13.7344 17.2148 13.9922 17.2148ZM10.2422 7.23047H13.6406V6.32812C13.6406 6.01172 13.418 5.80078 13.0898 5.80078H10.793C10.4648 5.80078 10.2422 6.01172 10.2422 6.32812V7.23047Z" fill="black" fill-opacity="0.85"/>
</svg>
