<svg width="23" height="29" viewBox="0 0 23 29" fill="none" xmlns="http://www.w3.org/2000/svg">
<path d="M7.76953 22.5352C7.3125 22.5352 7.01953 22.2656 6.99609 21.8203L6.64453 8.91797C6.63281 8.48438 6.92578 8.20312 7.39453 8.20312C7.82812 8.20312 8.13281 8.47266 8.14453 8.90625L8.51953 21.8203C8.53125 22.2539 8.22656 22.5352 7.76953 22.5352ZM11.3438 22.5352C10.8867 22.5352 10.5703 22.2539 10.5703 21.8203V8.91797C10.5703 8.48438 10.8867 8.20312 11.3438 8.20312C11.8008 8.20312 12.1289 8.48438 12.1289 8.91797V21.8203C12.1289 22.2539 11.8008 22.5352 11.3438 22.5352ZM14.9297 22.5352C14.4727 22.5352 14.168 22.2539 14.1797 21.8203L14.543 8.91797C14.5547 8.47266 14.8594 8.20312 15.293 8.20312C15.7617 8.20312 16.0547 8.48438 16.043 8.91797L15.6914 21.8203C15.668 22.2656 15.375 22.5352 14.9297 22.5352ZM6.19922 5.35547H8.0625V2.84766C8.0625 2.17969 8.53125 1.74609 9.23438 1.74609H13.4297C14.1328 1.74609 14.6016 2.17969 14.6016 2.84766V5.35547H16.4648V2.73047C16.4648 1.03125 15.3633 0 13.5586 0H9.10547C7.30078 0 6.19922 1.03125 6.19922 2.73047V5.35547ZM0.878906 6.29297H21.8203C22.3008 6.29297 22.6875 5.88281 22.6875 5.40234C22.6875 4.92188 22.3008 4.52344 21.8203 4.52344H0.878906C0.410156 4.52344 0 4.92188 0 5.40234C0 5.89453 0.410156 6.29297 0.878906 6.29297ZM5.97656 26.0977H16.7227C18.3984 26.0977 19.5234 25.0078 19.6055 23.332L20.4258 6.04688H2.26172L3.09375 23.3438C3.17578 25.0195 4.27734 26.0977 5.97656 26.0977Z" fill="black" fill-opacity="0.85"/>
</svg>
