<svg width="26" height="29" viewBox="0 0 26 29" fill="none" xmlns="http://www.w3.org/2000/svg">
<path d="M7.57324 5.35547H9.43652V2.84766C9.43652 2.17969 9.90527 1.74609 10.6084 1.74609H14.8037C15.5068 1.74609 15.9756 2.17969 15.9756 2.84766V5.35547H17.8389V2.73047C17.8389 1.03125 16.7373 0 14.9326 0H10.4795C8.68652 0 7.57324 1.03125 7.57324 2.73047V5.35547ZM3.56543 6.29297H23.1943C23.6748 6.29297 24.0615 5.88281 24.0615 5.40234C24.0615 4.92188 23.6748 4.52344 23.1943 4.52344H3.56543C3.09668 4.52344 2.68652 4.92188 2.68652 5.40234C2.68652 5.89453 3.09668 6.29297 3.56543 6.29297ZM7.35059 26.0977H18.0967C19.7725 26.0977 20.8975 25.0078 20.9795 23.332L21.7998 6.04688H3.64746L4.46777 23.3438C4.5498 25.0195 5.65137 26.0977 7.35059 26.0977ZM9.14355 22.5352C8.68652 22.5352 8.38184 22.2656 8.37012 21.8203L8.01855 8.91797C8.00684 8.48438 8.2998 8.20312 8.76855 8.20312C9.20215 8.20312 9.51855 8.47266 9.53027 8.90625L9.89355 21.8203C9.90527 22.2539 9.60059 22.5352 9.14355 22.5352ZM12.7178 22.5352C12.2607 22.5352 11.9443 22.2539 11.9443 21.8203V8.91797C11.9443 8.48438 12.2607 8.20312 12.7178 8.20312C13.1748 8.20312 13.5029 8.48438 13.5029 8.91797V21.8203C13.5029 22.2539 13.1748 22.5352 12.7178 22.5352ZM16.3037 22.5352C15.8467 22.5352 15.542 22.2539 15.5537 21.8203L15.917 8.91797C15.9287 8.47266 16.2334 8.20312 16.667 8.20312C17.1357 8.20312 17.4287 8.48438 17.417 8.91797L17.0654 21.8203C17.0537 22.2656 16.749 22.5352 16.3037 22.5352Z" fill="#007AFF"/>
<path d="M21.5537 25.1367C22.4561 26.0391 23.9092 26.0273 24.7764 25.1133C25.6436 24.2344 25.6436 22.8047 24.7646 21.9258L3.88184 1.03125C2.99121 0.152344 1.5498 0.152344 0.65918 1.03125C-0.219727 1.91016 -0.219727 3.375 0.65918 4.25391L21.5537 25.1367Z" fill="white"/>
<path d="M22.5146 24.1758C22.8779 24.5273 23.4521 24.5273 23.792 24.1758C24.1436 23.8125 24.1553 23.25 23.792 22.8984L2.9209 2.00391C2.56934 1.65234 1.9834 1.65234 1.63184 2.00391C1.29199 2.34375 1.29199 2.94141 1.63184 3.28125L22.5146 24.1758Z" fill="black" fill-opacity="0.85"/>
</svg>
