<svg width="28" height="31" viewBox="0 0 28 31" fill="none" xmlns="http://www.w3.org/2000/svg">
<path d="M3.67969 27.7148H23.9531C26.4141 27.7148 27.6328 26.4961 27.6328 24.082V17.1445C27.6328 16.0781 27.4922 15.5508 26.9648 14.918L22.9219 9.90234C21.5508 8.21484 20.707 7.23047 18.6328 7.23047H9.01172C6.92578 7.23047 6.09375 8.21484 4.72266 9.90234L0.667969 14.918C0.152344 15.5508 0 16.0781 0 17.1445V24.082C0 26.4961 1.23047 27.7148 3.67969 27.7148ZM2.40234 15.5977L6.55078 10.3594C7.125 9.63281 8.01562 8.88281 8.87109 8.88281H18.7617C19.6172 8.88281 20.5078 9.63281 21.082 10.3594L25.2422 15.5977C25.7109 16.1953 25.5469 16.4297 24.9023 16.4297H17.6719C17.0156 16.4297 16.7109 16.9336 16.7109 17.4492V17.4961C16.7109 18.9375 15.5859 20.4492 13.8164 20.4492C12.0586 20.4492 10.9336 18.9375 10.9336 17.4961V17.4492C10.9336 16.9336 10.6172 16.4297 9.96094 16.4297H2.75391C2.07422 16.4297 1.94531 16.1602 2.40234 15.5977Z" fill="#007AFF"/>
<path d="M13.8164 0C12.3281 0 11.0859 1.21875 11.0859 2.69531V15.3867C11.0859 16.8633 12.3281 18.0938 13.8164 18.0938C15.3047 18.0938 16.5469 16.8633 16.5469 15.3867V2.69531C16.5469 1.21875 15.3047 0 13.8164 0Z" fill="white"/>
<path d="M13.8164 16.2891C14.0625 16.2891 14.2617 16.2188 14.4961 15.9844L18.457 12.1641C18.6328 11.9883 18.7266 11.7891 18.7266 11.543C18.7266 11.0625 18.3633 10.7227 17.8828 10.7227C17.6484 10.7227 17.4023 10.8164 17.2383 11.0039L15.4688 12.8906L14.6719 13.7227L14.7539 11.9648V2.69531C14.7539 2.20312 14.3203 1.79297 13.8164 1.79297C13.3125 1.79297 12.8906 2.20312 12.8906 2.69531V11.9648L12.9609 13.7227L12.1641 12.8906L10.3945 11.0039C10.2188 10.8164 9.97266 10.7227 9.73828 10.7227C9.25781 10.7227 8.90625 11.0625 8.90625 11.543C8.90625 11.7891 9 11.9883 9.17578 12.1641L13.1367 15.9844C13.3711 16.2188 13.582 16.2891 13.8164 16.2891Z" fill="black" fill-opacity="0.85"/>
</svg>
