<svg width="31" height="30" viewBox="0 0 31 30" fill="none" xmlns="http://www.w3.org/2000/svg">
<path d="M5.27344 28.3828H25.5586C28.0078 28.3828 29.2383 27.1876 29.2383 24.9142V20.1211C29.2383 19.0547 29.168 18.3398 28.5703 17.7773L24.4102 13.8516C23.1445 12.6562 22.2188 12.2812 20.4961 12.2812H10.3477C8.61328 12.2812 7.6875 12.6562 6.42188 13.8516L2.26172 17.7773C1.66406 18.3398 1.60547 19.0547 1.60547 20.1211V24.9142C1.60547 27.1758 2.83594 28.3828 5.27344 28.3828ZM15.4219 23.0859C13.7578 23.0859 12.6914 21.6445 12.6914 20.2852V20.25C12.6914 19.7578 12.4102 19.3008 11.8008 19.3008H4.35938C3.67969 19.3008 3.46875 18.9962 4.00781 18.4923L7.875 14.8477C8.58984 14.168 9.04688 13.9219 10.1719 13.9219H20.6719C21.7852 13.9219 22.2422 14.168 22.9688 14.8477L26.8359 18.4923C27.3984 19.0196 27.1406 19.3008 26.4961 19.3008H19.0312C18.4336 19.3008 18.1406 19.7578 18.1406 20.25V20.2852C18.1406 21.6445 17.0742 23.0859 15.4219 23.0859Z" fill="black" fill-opacity="0.85"/>
<path d="M4.35938 19.3008H26.4961C29.1797 19.3008 30.832 17.4258 30.832 14.5547V9.44531C30.832 7.89844 30.6211 6.83203 29.6719 5.92969L25.5 2.00391C23.9531 0.539062 22.6289 0 20.4961 0H10.3477C8.21484 0 6.87891 0.539062 5.33203 2.00391L1.17188 5.92969C0.222656 6.83203 0 7.89844 0 9.44531V14.5547C0 17.4258 1.67578 19.3008 4.35938 19.3008Z" fill="white"/>
<path d="M5.27344 17.6953H25.5586C28.0078 17.6953 29.2383 16.5 29.2383 14.2266V9.44531C29.2383 8.37891 29.168 7.66406 28.5703 7.08984L24.4102 3.16406C23.1445 1.98047 22.2188 1.59375 20.4961 1.59375H10.3477C8.61328 1.59375 7.6875 1.98047 6.42188 3.16406L2.26172 7.08984C1.66406 7.66406 1.60547 8.37891 1.60547 9.44531V14.2266C1.60547 16.5 2.83594 17.6953 5.27344 17.6953ZM15.4219 12.3984C13.7578 12.3984 12.6914 10.9688 12.6914 9.60938V9.5625C12.6914 9.08203 12.4102 8.61328 11.8008 8.61328H4.35938C3.67969 8.61328 3.46875 8.30859 4.00781 7.80469L7.875 4.16016C8.58984 3.49219 9.04688 3.24609 10.1719 3.24609H20.6719C21.7852 3.24609 22.2422 3.49219 22.9688 4.16016L26.8359 7.80469C27.3984 8.33203 27.1406 8.61328 26.4961 8.61328H19.0312C18.4336 8.61328 18.1406 9.08203 18.1406 9.5625V9.60938C18.1406 10.9688 17.0742 12.3984 15.4219 12.3984Z" fill="black" fill-opacity="0.85"/>
</svg>
