<svg width="28" height="21" viewBox="0 0 28 21" fill="none" xmlns="http://www.w3.org/2000/svg">
<path d="M3.67969 20.0273H23.9531C26.4141 20.0273 27.6328 18.8086 27.6328 16.3945V9.92578C27.6328 8.87109 27.4688 8.37891 26.9648 7.69922L22.9219 2.22656C21.6445 0.480469 20.9414 0.0234375 18.8555 0.0234375H8.77734C6.69141 0.0234375 6 0.480469 4.72266 2.22656L0.667969 7.69922C0.175781 8.37891 0 8.87109 0 9.92578V16.3945C0 18.8203 1.23047 20.0273 3.67969 20.0273ZM13.8164 13.2422C12.0586 13.2422 10.9336 11.7188 10.9336 10.2773V10.2422C10.9336 9.71484 10.6172 9.22266 9.96094 9.22266H2.49609C2.10938 9.22266 2.02734 8.89453 2.21484 8.63672L6.55078 2.68359C7.08984 1.93359 7.78125 1.66406 8.63672 1.66406H18.9961C19.8516 1.66406 20.543 1.93359 21.082 2.68359L25.418 8.63672C25.5938 8.89453 25.5234 9.22266 25.1367 9.22266H17.6719C17.0156 9.22266 16.7109 9.71484 16.7109 10.2422V10.2773C16.7109 11.7188 15.5859 13.2422 13.8164 13.2422Z" fill="black" fill-opacity="0.85"/>
</svg>
