<svg width="24" height="24" viewBox="0 0 24 24" fill="none" xmlns="http://www.w3.org/2000/svg">
<path d="M11.9531 23.918C18.4922 23.918 23.9062 18.5039 23.9062 11.9648C23.9062 5.4375 18.4805 0.0117188 11.9414 0.0117188C5.41406 0.0117188 0 5.4375 0 11.9648C0 18.5039 5.42578 23.918 11.9531 23.918Z" fill="#FFCC00"/>
<path d="M6.77344 16.8633C5.51953 16.8633 4.88672 16.2305 4.88672 15.0117V11.6953C4.88672 11.1328 4.98047 10.8984 5.23828 10.5469L7.35938 7.67578C8.05078 6.71484 8.47266 6.49219 9.52734 6.49219H14.4023C15.457 6.49219 15.8672 6.71484 16.5703 7.67578L18.6914 10.5469C18.9492 10.8984 19.043 11.1328 19.043 11.6953V15.0117C19.043 16.2305 18.4219 16.8633 17.1562 16.8633H6.77344ZM6.58594 11.2969H10.0547C10.3711 11.2969 10.5469 11.543 10.5469 11.7891V11.9414C10.5469 12.7734 11.0859 13.3008 11.9648 13.3008C12.8438 13.3008 13.418 12.7734 13.418 11.9414V11.7891C13.418 11.543 13.5586 11.2969 13.875 11.2969H17.3438C17.5312 11.2969 17.5781 11.1211 17.4961 11.0156L15.3984 8.16797C15.1641 7.83984 14.9062 7.69922 14.4844 7.69922H9.45703C9.03516 7.69922 8.77734 7.82812 8.53125 8.16797L6.44531 11.0156C6.36328 11.1445 6.39844 11.2969 6.58594 11.2969Z" fill="black" fill-opacity="0.85"/>
</svg>
