<svg width="28" height="21" viewBox="0 0 28 21" fill="none" xmlns="http://www.w3.org/2000/svg">
<path d="M3.67969 20.0273H23.9531C26.4141 20.0273 27.6328 18.8086 27.6328 16.3945V9.45703C27.6328 8.40234 27.4922 7.875 26.9648 7.23047L22.9219 2.22656C21.5508 0.539062 20.9414 0.0234375 18.8555 0.0234375H8.77734C6.69141 0.0234375 6.09375 0.539062 4.72266 2.22656L0.667969 7.23047C0.152344 7.875 0 8.40234 0 9.45703V16.3945C0 18.8203 1.23047 20.0273 3.67969 20.0273ZM3.70312 18.1406C2.53125 18.1406 1.88672 17.5195 1.88672 16.3008V10.4648H9.31641C9.59766 12.6562 11.4375 14.2734 13.8164 14.2734C16.1953 14.2734 18.0352 12.6445 18.3164 10.4648H25.7461V16.3008C25.7461 17.5195 25.0898 18.1406 23.9297 18.1406H3.70312ZM13.8164 12.5391C12.1641 12.5391 11.0977 11.0977 11.0977 9.73828V9.70312C11.0977 9.21094 10.8047 8.75391 10.1953 8.75391H2.47266C2.08594 8.75391 2.00391 8.41406 2.20312 8.16797L6.55078 2.68359C7.125 1.95703 7.78125 1.66406 8.63672 1.66406H18.9961C19.8516 1.66406 20.5078 1.95703 21.082 2.68359L25.4414 8.16797C25.6289 8.41406 25.5586 8.75391 25.1719 8.75391H17.4375C16.8281 8.75391 16.5469 9.21094 16.5469 9.70312V9.73828C16.5469 11.0977 15.4805 12.5391 13.8164 12.5391Z" fill="black" fill-opacity="0.85"/>
</svg>
