<svg width="28" height="34" viewBox="0 0 28 34" fill="none" xmlns="http://www.w3.org/2000/svg">
<path d="M3.67969 28.957H23.9531C26.4141 28.957 27.6328 27.7383 27.6328 25.3242V18.3867C27.6328 17.3203 27.5039 16.793 26.9648 16.1602L23.2734 11.5898C21.8203 9.82031 21.293 9.41016 19.207 9.41016H8.42578C6.33984 9.41016 5.83594 9.80859 4.34766 11.625L0.667969 16.1602C0.152344 16.7812 0 17.3203 0 18.3867V25.3242C0 27.7383 1.23047 28.957 3.67969 28.957ZM2.40234 16.8398L6.1875 12.0938C6.89062 11.2266 7.42969 11.0625 8.28516 11.0625H19.3477C20.2031 11.0625 20.7422 11.2148 21.4219 12.0586L25.2422 16.8398C25.7227 17.4375 25.5469 17.6719 24.9023 17.6719H17.4375C16.8281 17.6719 16.5469 18.1406 16.5469 18.6211V18.668C16.5469 20.0273 15.4805 21.457 13.8164 21.457C12.1641 21.457 11.0977 20.0273 11.0977 18.668V18.6211C11.0977 18.1406 10.8047 17.6719 10.1953 17.6719H2.75391C2.07422 17.6719 1.94531 17.4023 2.40234 16.8398ZM3.70312 27.0703C2.53125 27.0703 1.88672 26.4375 1.88672 25.2188V19.3945H9.31641C9.59766 21.5859 11.4375 23.2031 13.8164 23.2031C16.1953 23.2031 18.0352 21.5742 18.3164 19.3945H25.7461V25.2188C25.7461 26.4375 25.0898 27.0703 23.9297 27.0703H3.70312Z" fill="#007AFF"/>
<path d="M16.5469 16.9805V2.70703C16.5469 1.23047 15.3047 0 13.8164 0C12.3281 0 11.0859 1.23047 11.0859 2.70703V16.9805C11.0859 18.4688 12.3281 19.6875 13.8164 19.6875C15.3047 19.6875 16.5469 18.4688 16.5469 16.9805Z" fill="white"/>
<path d="M13.8164 19.0664C14.3203 19.0664 14.7539 18.6445 14.7539 18.1523V6.11719L14.6719 4.37109L15.4688 5.19141L17.2383 7.08984C17.4023 7.27734 17.6484 7.37109 17.8828 7.37109C18.3633 7.37109 18.7266 7.01953 18.7266 6.55078C18.7266 6.29297 18.6328 6.10547 18.457 5.92969L14.4961 2.10938C14.2617 1.875 14.0625 1.79297 13.8164 1.79297C13.582 1.79297 13.3711 1.875 13.1367 2.10938L9.17578 5.92969C9 6.10547 8.90625 6.29297 8.90625 6.55078C8.90625 7.01953 9.25781 7.37109 9.73828 7.37109C9.97266 7.37109 10.2188 7.27734 10.3945 7.08984L12.1641 5.19141L12.9609 4.35938L12.8906 6.11719V18.1523C12.8906 18.6445 13.3125 19.0664 13.8164 19.0664Z" fill="black" fill-opacity="0.85"/>
</svg>
