<svg width="31" height="31" viewBox="0 0 31 31" fill="none" xmlns="http://www.w3.org/2000/svg">
<path d="M15.1641 30.7383C16.2891 30.7383 17.0273 30.3867 17.0273 29.8242C17.0273 29.0859 16.8164 26.9883 16.8164 25.3242C16.8164 23.2734 18.457 19.8164 20.5898 15.7383L19.0312 14.8945C17.4023 17.8477 16.793 19.0312 16.125 20.5195L16.0664 14.918L14.1797 14.8125L14.2031 20.5312C13.5469 19.043 12.8438 17.7305 11.4023 15.2461L10.207 16.8398C11.8594 19.8164 13.5117 23.2734 13.5117 25.3242C13.5117 26.9883 13.3008 29.0859 13.3008 29.8242C13.3008 30.3867 14.0391 30.7383 15.1641 30.7383Z" fill="black" fill-opacity="0.85"/>
<path d="M0 18.5273C0 21.3516 1.89844 23.3086 4.64062 23.3086C5.50781 23.3086 6.43359 23.0859 7.42969 22.5938C8.15625 23.25 9.9375 24.1758 12.0117 24.2578C11.6016 22.3945 10.3242 19.8164 9.55078 18.3984C11.3555 18.2344 12.375 17.2617 12.8438 15.9258C13.4883 16.3945 14.2266 16.6406 15.1641 16.6406C16.1016 16.6406 16.8398 16.3945 17.4844 15.9258C17.9531 17.2617 18.9727 18.2344 20.7773 18.3984C20.0039 19.8164 18.7266 22.3945 18.3164 24.2578C20.3906 24.1758 22.1719 23.25 22.8984 22.5938C23.8945 23.0859 24.8203 23.3086 25.6875 23.3086C28.4297 23.3086 30.3281 21.3516 30.3281 18.5273C30.3281 17.0977 29.7422 15.5859 28.3945 14.2383C29.4609 13.125 29.8945 11.8008 29.8945 10.5C29.8945 7.69922 27.7383 5.10938 25.043 4.79297C24.9258 2.08594 21.9141 0.152344 19.0312 0.152344C17.5547 0.152344 16.1836 0.609375 15.1641 1.66406C14.1445 0.609375 12.7734 0.152344 11.2969 0.152344C8.41406 0.152344 5.40234 2.08594 5.28516 4.79297C2.58984 5.10938 0.421875 7.69922 0.421875 10.5C0.421875 11.8008 0.867188 13.125 1.93359 14.2383C0.585938 15.5859 0 17.0977 0 18.5273Z" fill="black" fill-opacity="0.85"/>
</svg>
