<svg width="15" height="25" viewBox="0 0 15 25" fill="none" xmlns="http://www.w3.org/2000/svg">
<path d="M0 23.5547C0 24.0469 0.386719 24.4453 0.902344 24.4453C7.93359 24.4453 13.4414 19.6641 13.4414 12.2227C13.4414 8.94141 10.7344 6.23438 7.46484 6.23438C6.26953 6.23438 5.15625 6.63281 4.27734 7.30078C5.98828 3.83203 9.64453 1.76953 14.0273 1.76953C14.543 1.76953 14.9297 1.37109 14.9297 0.878906C14.9297 0.386719 14.543 0 14.0273 0C6.99609 0 1.5 4.76953 1.5 12.2227C1.5 15.4922 4.20703 18.1992 7.46484 18.1992C8.67188 18.1992 9.77344 17.8008 10.6523 17.1445C8.94141 20.6133 5.27344 22.6758 0.902344 22.6758C0.386719 22.6758 0 23.0625 0 23.5547ZM3.28125 12.2227C3.28125 9.92578 5.17969 8.02734 7.46484 8.02734C9.76172 8.02734 11.6602 9.92578 11.6602 12.2227C11.6602 14.5078 9.76172 16.4062 7.46484 16.4062C5.17969 16.4062 3.28125 14.5078 3.28125 12.2227ZM5.76562 12.2227C5.76562 13.1484 6.53906 13.9219 7.46484 13.9219C8.40234 13.9219 9.16406 13.1367 9.16406 12.2227C9.16406 11.2852 8.40234 10.5234 7.46484 10.5234C6.53906 10.5234 5.76562 11.2852 5.76562 12.2227Z" fill="black" fill-opacity="0.85"/>
</svg>
