<svg width="45" height="20" viewBox="0 0 45 20" fill="none" xmlns="http://www.w3.org/2000/svg">
<path d="M2.98828 16.3711H6.12891V14.4844H3.09375C2.33203 14.4844 1.88672 13.9688 1.88672 13.0781V10.7109C1.88672 9.03516 2.95312 8.14453 5.40234 7.76953L10.1719 7.04297L15.3281 3.83203C17.6367 2.40234 19.6523 1.88672 23.0156 1.88672H27.6445C28.8984 1.88672 29.6016 2.51953 29.7422 3.75L30.1289 7.30078H40.9688C42.3047 7.30078 42.5508 7.53516 42.5508 8.50781V13.0781C42.5508 13.9688 42.1055 14.4844 41.3555 14.4844H36.6797V16.3711H41.4609C43.3242 16.3711 44.4375 15.2227 44.4375 13.3125V8.50781C44.4375 6.51562 43.1484 5.41406 40.9688 5.41406H31.8516L31.6289 3.49219C31.3594 1.17188 30.0586 0 27.75 0H23.0156C19.2422 0 16.9219 0.585938 14.3203 2.22656L9.52734 5.22656L5.15625 5.89453C1.60547 6.43359 0 7.95703 0 10.7109V13.3125C0 15.2227 1.125 16.3711 2.98828 16.3711ZM11.625 16.3711H30.7969V14.4844H11.625V16.3711ZM8.8125 19.043C11.0625 19.043 12.8203 17.2852 12.8203 15.0352C12.8203 12.7852 11.0625 11.0273 8.8125 11.0273C6.5625 11.0273 4.80469 12.7852 4.80469 15.0352C4.80469 17.2852 6.5625 19.043 8.8125 19.043ZM8.8125 17.1562C7.61719 17.1562 6.69141 16.2305 6.69141 15.0352C6.69141 13.8398 7.61719 12.9141 8.8125 12.9141C10.0078 12.9141 10.9336 13.8398 10.9336 15.0352C10.9336 16.2305 10.0078 17.1562 8.8125 17.1562ZM33.5508 19.043C35.8008 19.043 37.5586 17.2852 37.5586 15.0352C37.5586 12.7852 35.8008 11.0273 33.5508 11.0273C31.3008 11.0273 29.543 12.7852 29.543 15.0352C29.543 17.2852 31.3008 19.043 33.5508 19.043ZM33.5508 17.1562C32.3555 17.1562 31.4297 16.2305 31.4297 15.0352C31.4297 13.8398 32.3555 12.9141 33.5508 12.9141C34.7461 12.9141 35.6719 13.8398 35.6719 15.0352C35.6719 16.2305 34.7461 17.1562 33.5508 17.1562Z" fill="#007AFF"/>
<path d="M18.6557 12.6914H23.8823C24.5034 12.6914 24.7964 12.1875 24.4565 11.6367L21.9018 7.46485C21.5737 6.94923 20.9526 6.93751 20.6245 7.46485L18.0933 11.625C17.7534 12.1758 18.0229 12.6914 18.6557 12.6914Z" fill="black" fill-opacity="0.85"/>
</svg>
