<svg width="45" height="35" viewBox="0 0 45 35" fill="none" xmlns="http://www.w3.org/2000/svg">
<path d="M2.98828 24.0469H6.12891V22.1602H3.09375C2.33203 22.1602 1.88672 21.6445 1.88672 20.7539V18.3867C1.88672 16.7109 2.95312 15.8203 5.40234 15.4453L10.1719 14.7188L15.3281 11.5078C17.6367 10.0781 19.6523 9.5625 23.0156 9.5625H27.6445C28.8984 9.5625 29.6016 10.1953 29.7422 11.4258L30.1289 14.9766H40.9688C42.3047 14.9766 42.5508 15.2109 42.5508 16.1836V20.7539C42.5508 21.6445 42.1055 22.1602 41.3555 22.1602H36.6797V24.0469H41.4609C43.3242 24.0469 44.4375 22.8984 44.4375 20.9883V16.1836C44.4375 14.1914 43.1484 13.0898 40.9688 13.0898H31.8516L31.6289 11.168C31.3594 8.84766 30.0586 7.67578 27.75 7.67578H23.0156C19.2422 7.67578 16.9219 8.26172 14.3203 9.90234L9.52734 12.9023L5.15625 13.5703C1.60547 14.1094 0 15.6328 0 18.3867V20.9883C0 22.8984 1.125 24.0469 2.98828 24.0469ZM11.625 24.0469H30.7969V22.1602H11.625V24.0469ZM8.8125 26.7188C11.0625 26.7188 12.8203 24.9609 12.8203 22.7109C12.8203 20.4609 11.0625 18.7031 8.8125 18.7031C6.5625 18.7031 4.80469 20.4609 4.80469 22.7109C4.80469 24.9609 6.5625 26.7188 8.8125 26.7188ZM8.8125 24.832C7.61719 24.832 6.69141 23.9062 6.69141 22.7109C6.69141 21.5156 7.61719 20.5898 8.8125 20.5898C10.0078 20.5898 10.9336 21.5156 10.9336 22.7109C10.9336 23.9062 10.0078 24.832 8.8125 24.832ZM33.5508 26.7188C35.8008 26.7188 37.5586 24.9609 37.5586 22.7109C37.5586 20.4609 35.8008 18.7031 33.5508 18.7031C31.3008 18.7031 29.543 20.4609 29.543 22.7109C29.543 24.9609 31.3008 26.7188 33.5508 26.7188ZM33.5508 24.832C32.3555 24.832 31.4297 23.9062 31.4297 22.7109C31.4297 21.5156 32.3555 20.5898 33.5508 20.5898C34.7461 20.5898 35.6719 21.5156 35.6719 22.7109C35.6719 23.9062 34.7461 24.832 33.5508 24.832Z" fill="#007AFF"/>
<path d="M19.2773 13.4297H25.2188C26.8711 13.4297 27.9844 12.3398 27.9844 10.5703V6.01172C27.9844 4.23047 26.8711 3.15234 25.2188 3.15234H19.2773C17.625 3.15234 16.5117 4.23047 16.5117 6.01172V10.5703C16.5117 12.3398 17.625 13.4297 19.2773 13.4297Z" fill="white"/>
<path d="M19.1016 5.10938L20.6367 5.09766V3.41016C20.6367 2.19141 21.2344 1.53516 22.2422 1.53516C23.2617 1.53516 23.8477 2.19141 23.8477 3.41016V5.09766L25.3828 5.10938V3.53906C25.3828 1.41797 24.1172 0 22.2422 0C20.3789 0 19.1016 1.41797 19.1016 3.53906V5.10938ZM19.2773 11.8242H25.2188C26.0156 11.8242 26.3906 11.4258 26.3906 10.5703V6.01172C26.3906 5.15625 26.0156 4.75781 25.2188 4.75781H19.2773C18.4805 4.75781 18.1055 5.15625 18.1055 6.01172V10.5703C18.1055 11.4258 18.4805 11.8242 19.2773 11.8242Z" fill="black" fill-opacity="0.85"/>
</svg>
