<svg width="41" height="31" viewBox="0 0 41 31" fill="none" xmlns="http://www.w3.org/2000/svg">
<path d="M8.27572 9.00831L10.5491 10.3325L11.4515 8.76222L9.24838 7.49659C8.77963 7.21534 8.69761 6.80519 9.01401 6.25441L9.96322 4.61378C10.5843 3.53566 11.5687 3.35988 13.3382 4.063L16.9476 5.45753L21.7171 5.29347C23.9085 5.22316 25.4788 5.66847 27.8695 7.05128L30.9398 8.82081C31.7484 9.28956 31.9593 9.92238 31.596 10.7427L30.4007 13.4497L37.9476 17.8091C38.3929 18.0669 38.5101 18.5005 38.264 18.9224L36.4476 22.0747C36.1195 22.6255 35.7445 22.7896 35.2757 22.5083L31.3734 20.2583L30.471 21.8169L34.4437 24.1021C35.8148 24.8989 37.0921 24.5122 37.9007 23.1294L39.8226 19.8247C40.6077 18.4771 40.2327 17.0474 38.8734 16.2622L32.6859 12.7114L33.2484 11.4341C34.0335 9.67628 33.5413 8.28175 31.9007 7.32081L28.7601 5.51613C26.0531 3.94581 24.1781 3.41847 21.6702 3.51222L17.264 3.66456L14.0296 2.39894C11.3226 1.34425 9.55306 1.77784 8.41635 3.72316L7.37338 5.51613C6.5765 6.88722 6.91635 8.21144 8.27572 9.00831ZM14.1468 12.3716L26.4866 19.4966L27.4359 17.8794L15.0843 10.731L14.1468 12.3716ZM11.4398 13.1685C13.0452 14.0943 15.014 13.5552 15.9281 11.9849C16.8538 10.3794 16.3148 8.41066 14.7327 7.48488C13.1273 6.58253 11.1702 7.08644 10.2445 8.69191C9.33042 10.2739 9.85776 12.2544 11.4398 13.1685ZM12.4007 11.5396C11.7093 11.1528 11.4749 10.3208 11.8851 9.64113C12.2601 8.96144 13.1038 8.72706 13.7952 9.1255C14.4866 9.51222 14.6976 10.356 14.2991 11.0357C13.9124 11.7271 13.0804 11.9497 12.4007 11.5396ZM27.1195 22.2271C28.7132 23.1411 30.682 22.6138 31.6195 21.0318C32.5218 19.4263 31.9827 17.4575 30.4007 16.5435C28.807 15.6294 26.8382 16.145 25.9124 17.7505C25.0101 19.3208 25.5257 21.3013 27.1195 22.2271ZM28.0687 20.5864C27.389 20.1997 27.1546 19.3677 27.5531 18.688C27.9398 17.9966 28.7718 17.7739 29.4749 18.1724C30.1546 18.5591 30.3656 19.4028 29.9788 20.0825C29.5804 20.7739 28.7484 20.9966 28.0687 20.5864Z" fill="#007AFF"/>
<path d="M0.13108 9.74659C-0.138452 10.2153 0.0256111 10.7896 0.459205 11.0474L33.8342 30.2896C34.2561 30.5357 34.842 30.395 35.0998 29.9497C35.3576 29.481 35.1936 28.9068 34.7717 28.6489L1.3967 9.40675C0.97483 9.16066 0.377173 9.313 0.13108 9.74659ZM4.36155 5.48097L6.8342 1.21534C7.24436 0.5005 6.67014 -0.120594 5.94358 0.0200314L2.17014 0.711438C1.65452 0.805188 1.43186 1.20363 1.60764 1.70753L2.88499 5.30519C3.13108 6.02003 3.95139 6.19581 4.36155 5.48097Z" fill="black" fill-opacity="0.85"/>
</svg>
