<svg width="42" height="32" viewBox="0 0 42 32" fill="none" xmlns="http://www.w3.org/2000/svg">
<path d="M10.2778 22.9144L11.5668 22.1761C11.391 22.0003 11.1918 21.7425 11.0864 21.555C10.1137 19.8675 10.6879 17.7113 12.3637 16.7503C14.0512 15.7777 16.1957 16.3636 17.1684 18.0277C17.2621 18.2386 17.391 18.4847 17.4496 18.766L27.4926 12.9535C27.2934 12.7777 27.1059 12.555 27.0121 12.3441C26.0395 10.68 26.6137 8.52378 28.2778 7.55112C29.9535 6.59018 32.0981 7.15268 33.0707 8.84018C33.1879 9.05112 33.2817 9.26206 33.3403 9.6019L36.4692 7.7855C37.8168 6.98862 38.1215 5.723 37.3598 4.37534L35.4965 1.10581C34.8754 0.0276829 33.4457 -0.370754 32.0981 0.402683L25.9692 3.9769L24.891 2.50034C23.7543 0.953464 22.3012 0.672214 20.6723 1.62143L17.5317 3.4144C14.8129 4.98471 13.4301 6.35581 12.2348 8.58237L10.1723 12.4847L7.46528 14.6527C5.18012 16.4574 4.67622 18.2152 5.75434 20.1019L6.83247 21.9652C7.61762 23.3246 8.93012 23.6996 10.2778 22.9144ZM15.3285 21.8949C16.5239 21.2152 16.8989 19.7386 16.2309 18.5667C15.5512 17.3949 14.0746 17.0082 12.9145 17.6761C11.7426 18.3558 11.3324 19.8324 12.0121 20.9925C12.6918 22.1761 14.1567 22.5746 15.3285 21.8949ZM31.2543 12.7074C32.4262 12.0277 32.8364 10.5394 32.1567 9.37925C31.4653 8.19565 29.977 7.80893 28.8168 8.48862C27.6449 9.14487 27.2465 10.6449 27.9262 11.8167C28.5942 12.9886 30.0824 13.3753 31.2543 12.7074Z" fill="#007AFF"/>
<path d="M5.28577 24.555L2.82484 20.266C2.41468 19.5628 1.59437 19.7386 1.34827 20.4417L0.0592106 24.0511C-0.116571 24.555 0.106086 24.9535 0.633429 25.0472L4.40687 25.7269C5.13343 25.8792 5.69593 25.2582 5.28577 24.555ZM6.8678 30.3441C7.13734 30.8011 7.72327 30.9535 8.14515 30.7074L41.4967 11.4183C41.9303 11.1839 42.1061 10.598 41.8366 10.1644C41.567 9.69566 40.9811 9.55504 40.5592 9.78941L7.20765 29.0667C6.77405 29.3246 6.60999 29.8988 6.8678 30.3441Z" fill="black" fill-opacity="0.85"/>
</svg>
