<svg width="45" height="20" viewBox="0 0 45 20" fill="none" xmlns="http://www.w3.org/2000/svg">
<path d="M2.98828 16.6055H4.45312C4.37109 16.2422 4.3125 15.8906 4.3125 15.5039C4.3125 13.0078 6.32812 11.0039 8.8125 11.0039C11.3086 11.0039 13.3125 13.0078 13.3125 15.5039C13.3125 15.8906 13.2656 16.2539 13.1836 16.6055H29.1914C29.0977 16.2422 29.0508 15.8906 29.0508 15.5039C29.0508 13.0195 31.0664 11.0039 33.5508 11.0039C36.0469 11.0039 38.0508 13.0078 38.0508 15.5039C38.0508 15.8906 38.0039 16.2422 37.9102 16.6055H41.4609C43.3242 16.6055 44.4375 15.457 44.4375 13.5469V8.27344C44.4375 6.77344 43.4062 5.88281 41.6719 5.88281H31.9102L31.6289 3.49219C31.3594 1.17188 30.0586 0 27.75 0H23.0156C19.2422 0 16.9219 0.585938 14.3203 2.22656L9.52734 5.22656L5.15625 5.89453C1.60547 6.43359 0 7.95703 0 10.7109V13.5469C0 15.457 1.125 16.6055 2.98828 16.6055ZM8.8125 18.6328C10.5703 18.6328 11.9531 17.25 11.9531 15.5039C11.9531 13.7578 10.5586 12.3633 8.8125 12.3633C7.07812 12.3633 5.68359 13.7578 5.68359 15.5039C5.68359 17.2383 7.07812 18.6328 8.8125 18.6328ZM33.5508 18.6328C35.2969 18.6328 36.6914 17.2383 36.6914 15.5039C36.6914 13.7578 35.2969 12.3633 33.5508 12.3633C31.8164 12.3633 30.4102 13.7695 30.4102 15.5039C30.4102 17.2383 31.8047 18.6328 33.5508 18.6328Z" fill="#FFCC00"/>
<path d="M18.6909 13.1602C18.0581 13.1602 17.7886 12.6445 18.1284 12.0938L20.6597 7.9336C20.9878 7.40626 21.6089 7.41798 21.937 7.9336L24.4917 12.1055C24.8315 12.6562 24.5386 13.1602 23.9175 13.1602H18.6909Z" fill="black" fill-opacity="0.85"/>
</svg>
