<svg width="45" height="29" viewBox="0 0 45 29" fill="none" xmlns="http://www.w3.org/2000/svg">
<path d="M2.98828 21.0909H6.12891V19.2042H3.09375C2.33203 19.2042 1.88672 18.6885 1.88672 17.7979V15.4307C1.88672 13.7549 2.95312 12.8643 5.40234 12.4893L10.1719 11.7627L15.3281 8.55182C17.6367 7.12213 19.6523 6.6065 23.0156 6.6065H27.6445C28.8984 6.6065 29.6016 7.23932 29.7422 8.46979L30.1289 12.0206H40.9688C42.3047 12.0206 42.5508 12.2549 42.5508 13.2276V17.7979C42.5508 18.6885 42.1055 19.2042 41.3555 19.2042H36.6797V21.0909H41.4609C43.3242 21.0909 44.4375 19.9424 44.4375 18.0323V13.2276C44.4375 11.2354 43.1484 10.1338 40.9688 10.1338H31.8516L31.6289 8.21197C31.3594 5.89166 30.0586 4.71979 27.75 4.71979H23.0156C19.2422 4.71979 16.9219 5.30572 14.3203 6.94635L9.52734 9.94635L5.15625 10.6143C1.60547 11.1534 0 12.6768 0 15.4307V18.0323C0 19.9424 1.125 21.0909 2.98828 21.0909ZM11.625 21.0909H30.7969V19.2042H11.625V21.0909ZM8.8125 23.7627C11.0625 23.7627 12.8203 22.0049 12.8203 19.7549C12.8203 17.5049 11.0625 15.7471 8.8125 15.7471C6.5625 15.7471 4.80469 17.5049 4.80469 19.7549C4.80469 22.0049 6.5625 23.7627 8.8125 23.7627ZM8.8125 21.876C7.61719 21.876 6.69141 20.9502 6.69141 19.7549C6.69141 18.5596 7.61719 17.6338 8.8125 17.6338C10.0078 17.6338 10.9336 18.5596 10.9336 19.7549C10.9336 20.9502 10.0078 21.876 8.8125 21.876ZM33.5508 23.7627C35.8008 23.7627 37.5586 22.0049 37.5586 19.7549C37.5586 17.5049 35.8008 15.7471 33.5508 15.7471C31.3008 15.7471 29.543 17.5049 29.543 19.7549C29.543 22.0049 31.3008 23.7627 33.5508 23.7627ZM33.5508 21.876C32.3555 21.876 31.4297 20.9502 31.4297 19.7549C31.4297 18.5596 32.3555 17.6338 33.5508 17.6338C34.7461 17.6338 35.6719 18.5596 35.6719 19.7549C35.6719 20.9502 34.7461 21.876 33.5508 21.876Z" fill="#007AFF"/>
<path d="M18.6557 22.8838C18.0229 22.8838 17.7534 23.3995 18.0933 23.9502L20.6245 28.1104C20.9526 28.6495 21.5737 28.626 21.9018 28.1104L24.4565 23.9502C24.7964 23.3995 24.5034 22.8838 23.8823 22.8838H18.6557Z" fill="black" fill-opacity="0.85"/>
</svg>
