<svg width="45" height="35" viewBox="0 0 45 35" fill="none" xmlns="http://www.w3.org/2000/svg">
<path d="M2.98828 24.2812H4.45312C4.37109 23.918 4.3125 23.5664 4.3125 23.1797C4.3125 20.6836 6.32812 18.6797 8.8125 18.6797C11.3086 18.6797 13.3125 20.6836 13.3125 23.1797C13.3125 23.5664 13.2656 23.9297 13.1836 24.2812H29.1914C29.0977 23.918 29.0508 23.5664 29.0508 23.1797C29.0508 20.6953 31.0664 18.6797 33.5508 18.6797C36.0469 18.6797 38.0508 20.6836 38.0508 23.1797C38.0508 23.5664 38.0039 23.918 37.9102 24.2812H41.4609C43.3242 24.2812 44.4375 23.1328 44.4375 21.2227V15.9492C44.4375 14.4492 43.4062 13.5586 41.6719 13.5586H31.9102L31.6289 11.168C31.3594 8.84766 30.0586 7.67578 27.75 7.67578H23.0156C19.2422 7.67578 16.9219 8.26172 14.3203 9.90234L9.52734 12.9023L5.15625 13.5703C1.60547 14.1094 0 15.6328 0 18.3867V21.2227C0 23.1328 1.125 24.2812 2.98828 24.2812ZM8.8125 26.3086C10.5703 26.3086 11.9531 24.9258 11.9531 23.1797C11.9531 21.4336 10.5586 20.0391 8.8125 20.0391C7.07812 20.0391 5.68359 21.4336 5.68359 23.1797C5.68359 24.9141 7.07812 26.3086 8.8125 26.3086ZM33.5508 26.3086C35.2969 26.3086 36.6914 24.9141 36.6914 23.1797C36.6914 21.4336 35.2969 20.0391 33.5508 20.0391C31.8164 20.0391 30.4102 21.4453 30.4102 23.1797C30.4102 24.9141 31.8047 26.3086 33.5508 26.3086Z" fill="#007AFF"/>
<path d="M19.2773 13.4297H25.2188C26.8711 13.4297 27.9844 12.3398 27.9844 10.5703V6.01172C27.9844 4.23047 26.8711 3.15234 25.2188 3.15234H19.2773C17.625 3.15234 16.5117 4.23047 16.5117 6.01172V10.5703C16.5117 12.3398 17.625 13.4297 19.2773 13.4297Z" fill="white"/>
<path d="M19.1016 5.10938L20.6367 5.09766V3.41016C20.6367 2.19141 21.2344 1.53516 22.2422 1.53516C23.2617 1.53516 23.8477 2.19141 23.8477 3.41016V5.09766L25.3828 5.10938V3.53906C25.3828 1.41797 24.1172 0 22.2422 0C20.3789 0 19.1016 1.41797 19.1016 3.53906V5.10938ZM19.2773 11.8242H25.2188C26.0156 11.8242 26.3906 11.4258 26.3906 10.5703V6.01172C26.3906 5.15625 26.0156 4.75781 25.2188 4.75781H19.2773C18.4805 4.75781 18.1055 5.15625 18.1055 6.01172V10.5703C18.1055 11.4258 18.4805 11.8242 19.2773 11.8242Z" fill="black" fill-opacity="0.85"/>
</svg>
