<svg width="35" height="26" viewBox="0 0 35 26" fill="none" xmlns="http://www.w3.org/2000/svg">
<g clip-path="url(#clip0_2152_15293)">
<path d="M3.1875 22.5H5.75391V20.6133H3.21094C2.33203 20.6133 1.88672 20.168 1.88672 19.2891V3.98438C1.88672 3.10547 2.33203 2.64844 3.21094 2.64844H20.3555C21.2227 2.64844 21.6914 3.10547 21.6914 3.98438V21.1875L23.5781 20.1562V3.94922C23.5781 1.86328 22.4766 0.761719 20.3906 0.761719H3.1875C1.08984 0.761719 0 1.86328 0 3.94922V19.3242C0 21.4102 1.08984 22.5 3.1875 22.5ZM22.5469 9.11719H26.5781C27.1758 9.11719 27.5977 9.22266 28.0781 9.75L31.7578 13.8867C32.0742 14.2383 32.2383 14.7305 32.2383 15.1523V19.2891C32.2383 20.168 31.7812 20.6133 30.9023 20.6133H29.0156V22.5H30.9375C33.0234 22.5 34.125 21.4102 34.125 19.3242V15.1875C34.125 14.0391 33.9375 13.5 33.293 12.7734L29.3086 8.27344C28.6172 7.5 27.8438 7.23047 26.6953 7.23047H22.5469V9.11719ZM25.7695 15.293H30.8789C30.8789 15.0117 30.7734 14.8594 30.5977 14.6602L27.1055 10.7344C26.8477 10.4648 26.543 10.2891 26.2148 10.2891H24.7617V14.2969C24.7617 14.918 25.1484 15.293 25.7695 15.293ZM8.69531 25.7695C10.8984 25.7695 12.6914 23.9766 12.6914 21.7617C12.6914 19.5586 10.8984 17.7656 8.69531 17.7656C6.48047 17.7656 4.67578 19.5586 4.67578 21.7617C4.67578 23.9766 6.48047 25.7695 8.69531 25.7695ZM8.69531 24.1758C7.35938 24.1758 6.26953 23.0977 6.26953 21.7617C6.26953 20.4375 7.35938 19.3477 8.69531 19.3477C10.0195 19.3477 11.0977 20.4375 11.0977 21.7617C11.0977 23.0977 10.0195 24.1758 8.69531 24.1758ZM25.582 25.7695C27.7969 25.7695 29.5781 23.9766 29.5781 21.7617C29.5781 19.5586 27.7969 17.7656 25.582 17.7656C23.3672 17.7656 21.5742 19.5586 21.5742 21.7617C21.5742 23.9766 23.3672 25.7695 25.582 25.7695ZM25.582 24.1758C24.2578 24.1758 23.168 23.0977 23.168 21.7617C23.168 20.4375 24.2578 19.3477 25.582 19.3477C26.8945 19.3477 27.9844 20.4375 27.9844 21.7617C27.9844 23.0977 26.918 24.1758 25.582 24.1758ZM11.8125 22.5H22.5V20.6133H11.8125V22.5Z" fill="black" fill-opacity="0.85"/>
</g>
<defs>
<clipPath id="clip0_2152_15293">
<rect width="34.125" height="25.7695" fill="white"/>
</clipPath>
</defs>
</svg>
