<svg width="45" height="30" viewBox="0 0 45 30" fill="none" xmlns="http://www.w3.org/2000/svg">
<path d="M2.98828 21.6914H4.45312C4.37109 21.3281 4.3125 20.9766 4.3125 20.5898C4.3125 18.0938 6.32812 16.0898 8.8125 16.0898C11.3086 16.0898 13.3125 18.0938 13.3125 20.5898C13.3125 20.9766 13.2656 21.3398 13.1836 21.6914H29.1914C29.0977 21.3281 29.0508 20.9766 29.0508 20.5898C29.0508 18.1055 31.0664 16.0898 33.5508 16.0898C36.0469 16.0898 38.0508 18.0938 38.0508 20.5898C38.0508 20.9766 38.0039 21.3281 37.9102 21.6914H41.4609C43.3242 21.6914 44.4375 20.543 44.4375 18.6328V13.3594C44.4375 11.8594 43.4062 10.9688 41.6719 10.9688H31.9102L31.6289 8.57812C31.3594 6.25781 30.0586 5.08594 27.75 5.08594H23.0156C19.2422 5.08594 16.9219 5.67188 14.3203 7.3125L9.52734 10.3125L5.15625 10.9805C1.60547 11.5195 0 13.043 0 15.7969V18.6328C0 20.543 1.125 21.6914 2.98828 21.6914ZM8.8125 23.7188C10.5703 23.7188 11.9531 22.3359 11.9531 20.5898C11.9531 18.8438 10.5586 17.4492 8.8125 17.4492C7.07812 17.4492 5.68359 18.8438 5.68359 20.5898C5.68359 22.3242 7.07812 23.7188 8.8125 23.7188ZM33.5508 23.7188C35.2969 23.7188 36.6914 22.3242 36.6914 20.5898C36.6914 18.8438 35.2969 17.4492 33.5508 17.4492C31.8164 17.4492 30.4102 18.8555 30.4102 20.5898C30.4102 22.3242 31.8047 23.7188 33.5508 23.7188Z" fill="#FFCC00"/>
<path d="M22.4062 16.2656C21.5391 16.2656 20.8125 15.5508 20.8125 14.7188C20.8125 13.8867 21.5273 13.1953 22.4062 13.1953C23.2969 13.1953 24 13.8867 24 14.7188C24 15.5508 23.2852 16.2656 22.4062 16.2656ZM22.4062 10.8867C21.8086 10.8867 21.3984 10.4648 21.375 9.84375L21.1172 1.28906C21.0938 0.515625 21.6094 0 22.4062 0C23.2031 0 23.7305 0.515625 23.707 1.28906L23.4492 9.84375C23.4258 10.4648 23.0039 10.8867 22.4062 10.8867Z" fill="black" fill-opacity="0.85"/>
</svg>
