<svg width="24" height="24" viewBox="0 0 24 24" fill="none" xmlns="http://www.w3.org/2000/svg">
<path d="M11.9531 23.9062C18.4922 23.9062 23.9062 18.4805 23.9062 11.9531C23.9062 5.41406 18.4805 0 11.9414 0C5.41406 0 0 5.41406 0 11.9531C0 18.4805 5.42578 23.9062 11.9531 23.9062ZM8.98828 18.3633C7.93359 18.3633 7.39453 17.8594 7.38281 16.8047L7.3125 11.1328L5.89453 11.4492C5.36719 11.5664 5.00391 11.3438 4.88672 10.8047L4.37109 8.76562C4.23047 8.22656 4.44141 7.83984 4.95703 7.61719L9.02344 5.88281C9.25781 5.77734 9.46875 5.78906 9.66797 5.88281C10.4297 6.24609 11.0625 6.43359 11.918 6.43359C12.7734 6.43359 13.418 6.24609 14.168 5.88281C14.3789 5.78906 14.5898 5.77734 14.8125 5.88281L18.8906 7.61719C19.3945 7.83984 19.6172 8.22656 19.4766 8.76562L18.9609 10.8047C18.832 11.3438 18.4805 11.5664 17.9531 11.4492L16.5352 11.1328L16.4531 16.8047C16.4414 17.8594 15.9141 18.3633 14.8477 18.3633H8.98828ZM11.918 8.16797C12.8438 8.16797 13.5117 7.74609 13.793 6.99609C13.2188 7.20703 12.5742 7.30078 11.918 7.30078C11.2617 7.30078 10.6172 7.20703 10.043 6.99609C10.3359 7.75781 11.0156 8.16797 11.918 8.16797Z" fill="black" fill-opacity="0.85"/>
</svg>
