<svg width="24" height="24" viewBox="0 0 24 24" fill="none" xmlns="http://www.w3.org/2000/svg">
<path d="M11.9531 23.9062C18.4922 23.9062 23.9062 18.4805 23.9062 11.9531C23.9062 5.41406 18.4805 0 11.9414 0C5.41406 0 0 5.41406 0 11.9531C0 18.4805 5.42578 23.9062 11.9531 23.9062ZM11.9531 21.9141C6.42188 21.9141 2.00391 17.4844 2.00391 11.9531C2.00391 6.42188 6.41016 1.99219 11.9414 1.99219C17.4727 1.99219 21.9141 6.42188 21.9141 11.9531C21.9141 17.4844 17.4844 21.9141 11.9531 21.9141Z" fill="#007AFF"/>
<path d="M11.9414 17.7422C12.3867 17.7422 12.7031 17.4375 12.7031 16.957V14.332L14.6953 13.4414C14.9648 13.3125 15.0938 13.1367 15.0938 12.8789C15.0938 12.5508 14.8594 12.3164 14.5312 12.3164C14.4258 12.3164 14.3203 12.3516 14.2266 12.3867L12.7031 13.0898V11.9766L14.6953 11.0742C14.9648 10.957 15.0938 10.7812 15.0938 10.5234C15.0938 10.1953 14.8711 9.94922 14.5312 9.94922C14.4375 9.94922 14.332 9.98438 14.2383 10.0195L12.7031 10.7344V7.99219H15.4922C15.9258 7.99219 16.2305 7.69922 16.2305 7.27734C16.2305 6.85547 15.9258 6.57422 15.4922 6.57422H8.37891C7.94531 6.57422 7.64062 6.85547 7.64062 7.27734C7.64062 7.69922 7.94531 7.99219 8.37891 7.99219H11.168V11.3672L9.19922 12.2461C8.91797 12.3867 8.80079 12.5508 8.80079 12.7969C8.80079 13.125 9.02345 13.3711 9.36329 13.3711C9.45704 13.3711 9.5625 13.3359 9.65625 13.3008L11.168 12.5977V13.7227L9.19922 14.6133C8.91797 14.7422 8.80079 14.9062 8.80079 15.1641C8.80079 15.4922 9.02345 15.7266 9.36329 15.7266C9.45704 15.7266 9.5625 15.7031 9.65625 15.6562L11.168 14.9648V16.957C11.168 17.4375 11.4844 17.7422 11.9414 17.7422Z" fill="black" fill-opacity="0.85"/>
</svg>
