<svg width="22" height="22" viewBox="0 0 22 22" fill="none" xmlns="http://www.w3.org/2000/svg">
<path d="M3.67969 21.5977H17.8945C20.3555 21.5977 21.5742 20.3789 21.5742 17.9648V3.65625C21.5742 1.24219 20.3555 0.0234375 17.8945 0.0234375H3.67969C1.23047 0.0234375 0 1.23047 0 3.65625V17.9648C0 20.3906 1.23047 21.5977 3.67969 21.5977ZM3.70312 19.7109C2.53125 19.7109 1.88672 19.0898 1.88672 17.8711V3.75C1.88672 2.53125 2.53125 1.91016 3.70312 1.91016H17.8711C19.0312 1.91016 19.6875 2.53125 19.6875 3.75V17.8711C19.6875 19.0898 19.0312 19.7109 17.8711 19.7109H3.70312Z" fill="#007AFF"/>
<path d="M10.793 16.582C11.2383 16.582 11.5547 16.2773 11.5547 15.7969V13.1719L13.5469 12.2812C13.8164 12.1523 13.9453 11.9766 13.9453 11.7188C13.9453 11.3906 13.7227 11.1562 13.3945 11.1562C13.2891 11.1562 13.1719 11.1914 13.0781 11.2266L11.5547 11.9297V10.8164L13.5469 9.91406C13.8164 9.79688 13.9453 9.62109 13.9453 9.36328C13.9453 9.03516 13.7227 8.78906 13.3828 8.78906C13.2891 8.78906 13.1953 8.82422 13.0898 8.85938L11.5547 9.57422V6.83203H14.3438C14.7773 6.83203 15.082 6.53906 15.082 6.11719C15.082 5.69531 14.7773 5.41406 14.3438 5.41406H7.23047C6.79688 5.41406 6.49219 5.69531 6.49219 6.11719C6.49219 6.53906 6.79688 6.83203 7.23047 6.83203H10.0195V10.207L8.05078 11.0859C7.76953 11.2266 7.65234 11.3906 7.65234 11.6367C7.65234 11.9648 7.875 12.2109 8.21484 12.2109C8.30859 12.2109 8.41406 12.1758 8.51953 12.1406L10.0195 11.4375V12.5625L8.05078 13.4531C7.76953 13.582 7.65234 13.7461 7.65234 14.0039C7.65234 14.332 7.875 14.5664 8.21484 14.5664C8.30859 14.5664 8.41406 14.543 8.51953 14.4961L10.0195 13.8047V15.7969C10.0195 16.2773 10.3359 16.582 10.793 16.582Z" fill="black" fill-opacity="0.85"/>
</svg>
