<svg width="17" height="22" viewBox="0 0 17 22" fill="none" xmlns="http://www.w3.org/2000/svg">
<path d="M0 1.55859C0 2.16797 0.457031 2.56641 1.06641 2.56641H6.9375V20.7422C6.9375 21.3633 7.44141 21.8555 8.0625 21.8555C8.68359 21.8555 9.17578 21.3633 9.17578 20.7422V2.56641H15.0586C15.6562 2.56641 16.125 2.16797 16.125 1.55859C16.125 0.949219 15.6562 0.550781 15.0586 0.550781H1.06641C0.457031 0.550781 0 0.949219 0 1.55859ZM3.03516 11.4375C2.15625 11.8008 2.71875 13.207 3.65625 12.832L13.0898 8.91797C13.8984 8.58984 13.5 7.10156 12.3867 7.57031L3.03516 11.4375ZM3.03516 16.043C2.15625 16.4062 2.71875 17.8242 3.65625 17.4492L13.0898 13.5234C13.8984 13.1953 13.5 11.7188 12.3867 12.1758L3.03516 16.043Z" fill="black" fill-opacity="0.85"/>
</svg>
