<svg width="22" height="22" viewBox="0 0 22 22" fill="none" xmlns="http://www.w3.org/2000/svg">
<path d="M3.67969 21.5977H17.8945C20.3555 21.5977 21.5742 20.3789 21.5742 17.9648V3.65625C21.5742 1.24219 20.3555 0.0234375 17.8945 0.0234375H3.67969C1.23047 0.0234375 0 1.23047 0 3.65625V17.9648C0 20.3906 1.23047 21.5977 3.67969 21.5977Z" fill="#FFCC00"/>
<path d="M10.793 16.7695C10.3242 16.7695 9.99609 16.4531 9.99609 15.9609V13.9102L8.44922 14.625C8.34375 14.6719 8.22656 14.6953 8.13281 14.6953C7.78125 14.6953 7.54688 14.4492 7.54688 14.1094C7.54688 13.8516 7.67578 13.6758 7.95703 13.5469L9.99609 12.6211V11.4727L8.44922 12.1875C8.34375 12.2344 8.22656 12.2695 8.13281 12.2695C7.78125 12.2695 7.54688 12.0117 7.54688 11.6719C7.54688 11.4141 7.67578 11.25 7.95703 11.0977L9.99609 10.1953V6.71484H7.11328C6.66797 6.71484 6.35156 6.41016 6.35156 5.97656C6.35156 5.54297 6.66797 5.25 7.11328 5.25H14.4609C14.9062 5.25 15.2227 5.54297 15.2227 5.97656C15.2227 6.41016 14.9062 6.71484 14.4609 6.71484H11.5781V9.53906L13.1602 8.80078C13.2773 8.76562 13.3711 8.73047 13.4648 8.73047C13.8164 8.73047 14.0508 8.98828 14.0508 9.32812C14.0508 9.58594 13.9102 9.77344 13.6406 9.89062L11.5781 10.8281V11.9648L13.1484 11.25C13.2539 11.2031 13.3711 11.168 13.4766 11.168C13.8164 11.168 14.0508 11.4141 14.0508 11.7539C14.0508 12.0234 13.9102 12.1992 13.6406 12.3398L11.5781 13.2539V15.9609C11.5781 16.4531 11.25 16.7695 10.793 16.7695Z" fill="black" fill-opacity="0.85"/>
</svg>
