<svg width="25" height="25" viewBox="0 0 25 25" fill="none" xmlns="http://www.w3.org/2000/svg">
<path d="M6.375 12.3164V16.7578L1.72266 21.4219L3.39844 23.0859L7.96875 18.5273L12.5859 18.5156C13.3359 18.5156 14.1328 18.2461 14.6836 17.707L24.3867 8.14453C24.8555 7.67578 24.832 6.92578 24.3867 6.46875C23.9297 6 23.168 6 22.7109 6.46875L13.3828 15.8086C13.043 16.1367 12.6328 16.3359 12.1523 16.3359H8.88281L8.70703 16.125V12.6094C8.70703 12.1289 8.89453 11.707 9.22266 11.3789L18.4336 2.19141C18.8906 1.72266 18.8789 0.972656 18.4336 0.503906C17.9766 0.0468751 17.2148 0.0351562 16.7578 0.515625L7.19531 10.2188C6.62109 10.8047 6.38672 11.5547 6.375 12.3164ZM2.19141 24.832C3.41016 24.832 4.39453 23.8359 4.39453 22.6289C4.39453 21.4102 3.41016 20.4141 2.19141 20.4258C0.984375 20.4258 0 21.4102 0 22.6289C0 23.8359 0.984375 24.832 2.19141 24.832Z" fill="black" fill-opacity="0.85"/>
</svg>
