<svg width="22" height="22" viewBox="0 0 22 22" fill="none" xmlns="http://www.w3.org/2000/svg">
<path d="M3.67969 21.5977H17.8945C20.3555 21.5977 21.5742 20.3789 21.5742 17.9648V3.65625C21.5742 1.24219 20.3555 0.0234375 17.8945 0.0234375H3.67969C1.23047 0.0234375 0 1.23047 0 3.65625V17.9648C0 20.3906 1.23047 21.5977 3.67969 21.5977Z" fill="#FFCC00"/>
<path d="M9.46875 16.5352C8.77734 16.5352 8.4375 16.125 8.4375 15.5742V11.7422L7.47656 12.1641C7.37109 12.1992 7.27733 12.2227 7.17188 12.2227C6.83202 12.2227 6.60938 11.9766 6.60938 11.6367C6.60938 11.3672 6.71484 11.1914 7.00781 11.0625L8.4375 10.4648V9.31641L7.47656 9.72656C7.37109 9.77344 7.27733 9.79688 7.17188 9.79688C6.83202 9.79688 6.60938 9.5625 6.60938 9.22266C6.60938 8.94141 6.71484 8.76562 7.00781 8.64844L8.4375 8.02734V5.88281C8.4375 5.39062 8.73046 5.07422 9.19921 5.07422C9.64453 5.07422 9.9375 5.39062 9.9375 5.88281V7.41797L11.9883 6.5625C12.082 6.51562 12.1875 6.48047 12.293 6.48047C12.6328 6.48047 12.8555 6.73828 12.8555 7.07812C12.8555 7.34766 12.7383 7.51172 12.457 7.65234L9.9375 8.69531V9.84375L11.9883 8.97656C12.082 8.94141 12.1875 8.91797 12.293 8.91797C12.6328 8.91797 12.8555 9.16406 12.8555 9.50391C12.8555 9.76172 12.7383 9.94922 12.457 10.0664L9.9375 11.1211V14.9766C11.9062 14.9766 13.2891 13.3711 13.5117 11.6016C13.5938 11.0391 13.875 10.8164 14.2617 10.8164C14.707 10.8164 14.9766 11.1328 14.9766 11.625C14.9766 13.8047 12.9492 16.5352 9.46875 16.5352Z" fill="black" fill-opacity="0.85"/>
</svg>
