<svg width="16" height="22" viewBox="0 0 16 22" fill="none" xmlns="http://www.w3.org/2000/svg">
<path d="M4.875 21.1641H5.09766C11.4609 21.1641 15.2578 16.1953 15.2578 12.1992C15.2578 11.5781 14.9297 11.1094 14.25 11.1094C13.5703 11.1094 13.2656 11.5078 13.1719 12.1992C12.7734 15.7266 9.99609 18.9492 5.73047 18.9609V1.16016C5.73047 0.46875 5.27344 0 4.60547 0C3.9375 0 3.49219 0.457031 3.49219 1.16016V19.7695C3.49219 20.6367 4.01953 21.1641 4.875 21.1641ZM0.726562 8.36719C0.867188 8.36719 1.01953 8.33203 1.16016 8.27344L10.6289 4.28906C11.0156 4.13672 11.168 3.90234 11.168 3.53906C11.168 3.10547 10.875 2.80078 10.4414 2.80078C10.3008 2.80078 10.1484 2.83594 10.0195 2.89453L0.539062 6.87891C0.152344 7.03125 0 7.26562 0 7.62891C0 8.05078 0.292969 8.36719 0.726562 8.36719ZM0.726562 12.9727C0.867188 12.9727 1.01953 12.9258 1.16016 12.8789L10.6289 8.89453C11.0156 8.74219 11.168 8.50781 11.168 8.14453C11.168 7.71094 10.875 7.40625 10.4414 7.40625C10.3008 7.40625 10.1484 7.44141 10.0195 7.5L0.539062 11.4844C0.152344 11.6367 0 11.8711 0 12.2344C0 12.668 0.292969 12.9727 0.726562 12.9727Z" fill="black" fill-opacity="0.85"/>
</svg>
