<svg width="22" height="22" viewBox="0 0 22 22" fill="none" xmlns="http://www.w3.org/2000/svg">
<path d="M3.67969 21.5977H17.8945C20.3555 21.5977 21.5742 20.3789 21.5742 17.9648V3.65625C21.5742 1.24219 20.3555 0.0234375 17.8945 0.0234375H3.67969C1.23047 0.0234375 0 1.23047 0 3.65625V17.9648C0 20.3906 1.23047 21.5977 3.67969 21.5977ZM3.70312 19.7109C2.53125 19.7109 1.88672 19.0898 1.88672 17.8711V3.75C1.88672 2.53125 2.53125 1.91016 3.70312 1.91016H17.8711C19.0312 1.91016 19.6875 2.53125 19.6875 3.75V17.8711C19.6875 19.0898 19.0312 19.7109 17.8711 19.7109H3.70312Z" fill="#007AFF"/>
<path d="M9.50391 16.3594C12.8789 16.3594 14.8477 13.7109 14.8477 11.6016C14.8477 11.1211 14.5781 10.8164 14.1562 10.8164C13.7812 10.8164 13.5117 11.0391 13.4297 11.5781C13.2188 13.2891 11.8711 14.8477 9.96094 14.8477V11.1094L12.4102 10.0898C12.6797 9.97266 12.7969 9.79688 12.7969 9.53906C12.7969 9.21094 12.5742 8.97656 12.2461 8.97656C12.1523 8.97656 12.0469 9 11.9531 9.03516L9.96094 9.87891V8.76562L12.4102 7.74609C12.6797 7.61719 12.7969 7.45312 12.7969 7.19531C12.7969 6.86719 12.5742 6.62109 12.2461 6.62109C12.1523 6.62109 12.0469 6.65625 11.9531 6.69141L9.96094 7.52344V6.03516C9.96094 5.55469 9.67969 5.25 9.24609 5.25C8.80078 5.25 8.51953 5.55469 8.51953 6.03516V8.12109L7.125 8.71875C6.84375 8.83594 6.73828 9 6.73828 9.26953C6.73828 9.59766 6.96094 9.83203 7.28906 9.83203C7.38281 9.83203 7.47656 9.80859 7.58203 9.76172L8.51953 9.36328V10.4766L7.125 11.0625C6.84375 11.1797 6.73828 11.3555 6.73828 11.6133C6.73828 11.9414 6.96094 12.1758 7.28906 12.1758C7.38281 12.1758 7.47656 12.1523 7.58203 12.1172L8.51953 11.707V15.4336C8.51953 15.9727 8.84766 16.3594 9.50391 16.3594Z" fill="black" fill-opacity="0.85"/>
</svg>
