<svg width="35" height="30" viewBox="0 0 35 30" fill="none" xmlns="http://www.w3.org/2000/svg">
<path d="M3.01172 22.5469H26.2969C28.1602 22.5469 29.2969 21.3984 29.2969 19.5352V6.09375C29.2969 4.23047 28.1602 3.08203 26.2969 3.08203H3.01172C1.14844 3.08203 0 4.23047 0 6.09375V19.5352C0 21.3984 1.14844 22.5469 3.01172 22.5469ZM3.04688 20.6602C2.32031 20.6602 1.88672 20.2266 1.88672 19.5117V6.11719C1.88672 5.40234 2.32031 4.96875 3.04688 4.96875H26.2617C26.9766 4.96875 27.4102 5.40234 27.4102 6.11719V19.5117C27.4102 20.2266 26.9766 20.6602 26.2617 20.6602H3.04688ZM8.75391 26.5195H20.543C21.0703 26.5195 21.4922 26.0977 21.4922 25.5703C21.4922 25.043 21.0703 24.6211 20.543 24.6211H8.75391C8.23828 24.6211 7.81641 25.043 7.81641 25.5703C7.81641 26.0977 8.23828 26.5195 8.75391 26.5195Z" fill="#007AFF"/>
<path d="M17.9648 29.6133H30.8086C33.2695 29.6133 34.8867 28.1367 34.8867 25.5V21.3047C34.8867 18.6562 33.2695 17.1914 30.8086 17.1914H17.9648C15.6562 17.1914 13.8867 18.5156 13.8867 21.2344V25.5C13.8867 28.3242 15.6914 29.6133 17.9648 29.6133Z" fill="white"/>
<path d="M17.9648 28.0078H30.8086C32.4492 28.0078 33.293 27.1758 33.293 25.5V21.3047C33.293 19.6172 32.4492 18.7852 30.8086 18.7852H17.9648C16.2891 18.7852 15.4805 19.6172 15.4805 21.2344V25.5C15.4805 27.1758 16.2891 28.0078 17.9648 28.0078ZM29.4492 24.0117C28.6992 24.0117 28.0898 23.4023 28.0898 22.6523C28.0898 21.9141 28.6992 21.3164 29.4492 21.3164C30.1758 21.3164 30.7852 21.9141 30.7852 22.6523C30.7852 23.4023 30.1758 24.0117 29.4492 24.0117Z" fill="black" fill-opacity="0.85"/>
</svg>
