<svg width="24" height="24" viewBox="0 0 24 24" fill="none" xmlns="http://www.w3.org/2000/svg">
<path d="M11.9531 23.9062C18.4922 23.9062 23.9062 18.4805 23.9062 11.9531C23.9062 5.41406 18.4805 0 11.9414 0C5.41406 0 0 5.41406 0 11.9531C0 18.4805 5.42578 23.9062 11.9531 23.9062ZM11.9531 21.9141C6.42188 21.9141 2.00391 17.4844 2.00391 11.9531C2.00391 6.42188 6.41016 1.99219 11.9414 1.99219C17.4727 1.99219 21.9141 6.42188 21.9141 11.9531C21.9141 17.4844 17.4844 21.9141 11.9531 21.9141Z" fill="#007AFF"/>
<path d="M6.69141 16.043H17.168C18.1289 16.043 18.8203 15.375 18.8203 14.4141V8.37891C18.8203 7.41797 18.1289 6.73828 17.168 6.73828H6.69141C5.73047 6.73828 5.05078 7.41797 5.05078 8.37891V14.4141C5.05078 15.375 5.73047 16.043 6.69141 16.043ZM6.83203 14.8594C6.51562 14.8594 6.29297 14.6367 6.29297 14.3086V8.48438C6.29297 8.14453 6.51562 7.92188 6.83203 7.92188H17.0391C17.3555 7.92188 17.5781 8.14453 17.5781 8.48438V14.3086C17.5781 14.6367 17.3555 14.8594 17.0391 14.8594H6.83203ZM8.90625 18.4219H15C15.3281 18.4219 15.5977 18.1641 15.5977 17.8359C15.5977 17.5078 15.3281 17.2383 15 17.2383H8.90625C8.57812 17.2383 8.30859 17.5078 8.30859 17.8359C8.30859 18.1641 8.57812 18.4219 8.90625 18.4219Z" fill="black" fill-opacity="0.85"/>
</svg>
