<svg width="24" height="24" viewBox="0 0 24 24" fill="none" xmlns="http://www.w3.org/2000/svg">
<path d="M11.9531 23.9062C18.4922 23.9062 23.9062 18.4805 23.9062 11.9531C23.9062 5.41406 18.4805 0 11.9414 0C5.41406 0 0 5.41406 0 11.9531C0 18.4805 5.42578 23.9062 11.9531 23.9062Z" fill="#FFCC00"/>
<path d="M11.9648 17.6133C11.2266 17.6133 10.8398 17.2969 10.5234 16.4766L7.125 7.62891C7.06641 7.44141 7.03125 7.30078 7.03125 7.125C7.03125 6.58594 7.44141 6.19922 8.01562 6.19922C8.55469 6.19922 8.84766 6.45703 9.04688 7.03125L11.9062 15.293H11.9883L14.8477 7.03125C15.0586 6.45703 15.3398 6.19922 15.8789 6.19922C16.4531 6.19922 16.8633 6.57422 16.8633 7.125C16.8633 7.30078 16.8398 7.44141 16.7695 7.62891L13.3945 16.4531C13.0898 17.25 12.6562 17.6133 11.9648 17.6133Z" fill="black" fill-opacity="0.85"/>
</svg>
