<svg width="22" height="22" viewBox="0 0 22 22" fill="none" xmlns="http://www.w3.org/2000/svg">
<path d="M3.67969 21.5977H17.8945C20.3555 21.5977 21.5742 20.3789 21.5742 17.9648V3.65625C21.5742 1.24219 20.3555 0.0234375 17.8945 0.0234375H3.67969C1.23047 0.0234375 0 1.23047 0 3.65625V17.9648C0 20.3906 1.23047 21.5977 3.67969 21.5977Z" fill="#FFCC00"/>
<path d="M10.8047 16.4531C10.0664 16.4531 9.67969 16.1367 9.36328 15.3164L5.96484 6.46875C5.90625 6.28125 5.87109 6.14062 5.87109 5.96484C5.87109 5.42578 6.29297 5.03906 6.85547 5.03906C7.39453 5.03906 7.6875 5.29688 7.88672 5.87109L10.7461 14.1328H10.8281L13.6992 5.87109C13.8984 5.29688 14.1914 5.03906 14.7305 5.03906C15.293 5.03906 15.7031 5.41406 15.7031 5.96484C15.7031 6.14062 15.6797 6.28125 15.6211 6.46875L12.2344 15.293C11.9297 16.0898 11.4961 16.4531 10.8047 16.4531Z" fill="black" fill-opacity="0.85"/>
</svg>
