<svg width="22" height="22" viewBox="0 0 22 22" fill="none" xmlns="http://www.w3.org/2000/svg">
<path d="M3.67969 21.5977H17.8945C20.3555 21.5977 21.5742 20.3789 21.5742 17.9648V3.65625C21.5742 1.24219 20.3555 0.0234375 17.8945 0.0234375H3.67969C1.23047 0.0234375 0 1.23047 0 3.65625V17.9648C0 20.3906 1.23047 21.5977 3.67969 21.5977Z" fill="#FFCC00"/>
<path d="M5.75391 15.668C4.55859 15.668 3.83203 14.9648 3.83203 13.7695V7.82812C3.83203 6.62109 4.60547 5.92969 5.75391 5.92969H12.1992C13.418 5.92969 14.0625 6.62109 14.0625 7.82812V13.7695C14.0625 14.9648 13.3477 15.668 12.1406 15.668H5.75391ZM14.7422 12.4453V9.15234L17.0977 7.125C17.2969 6.97266 17.5547 6.85547 17.7656 6.85547C18.2227 6.85547 18.5391 7.18359 18.5391 7.67578V13.9102C18.5391 14.4141 18.2227 14.7539 17.7656 14.7539C17.5547 14.7539 17.3086 14.6367 17.0977 14.4609L14.7422 12.4453Z" fill="black" fill-opacity="0.85"/>
</svg>
