<svg width="29" height="20" viewBox="0 0 29 20" fill="none" xmlns="http://www.w3.org/2000/svg">
<path d="M3.76172 19.0312H16.3477C18.7031 19.0312 20.1094 17.6719 20.1094 15.3164V3.70312C20.1094 1.35938 18.8203 0 16.4648 0H3.76172C1.51172 0 0 1.35938 0 3.70312V15.3164C0 17.6719 1.40625 19.0312 3.76172 19.0312ZM21.7031 12.9727L25.9688 16.6641C26.3672 17.0156 26.8359 17.2383 27.2578 17.2383C28.1719 17.2383 28.7695 16.5703 28.7695 15.6094V3.42188C28.7695 2.46094 28.1719 1.79297 27.2578 1.79297C26.8359 1.79297 26.3672 2.01562 25.9688 2.36719L21.7031 6.04688V12.9727Z" fill="black" fill-opacity="0.85"/>
</svg>
