<svg width="29" height="20" viewBox="0 0 29 20" fill="none" xmlns="http://www.w3.org/2000/svg">
<path d="M4.57031 19.2656H16.8164C19.6758 19.2656 21.3867 17.6016 21.3867 14.7422V4.51172C21.3867 1.66406 19.6758 0 16.8164 0H4.57031C1.83984 0 0 1.66406 0 4.51172V14.7422C0 17.6016 1.71094 19.2656 4.57031 19.2656ZM4.89844 17.4961C2.97656 17.4961 1.88672 16.5 1.88672 14.4727V4.79297C1.88672 2.75391 2.97656 1.75781 4.89844 1.75781H16.4883C18.3984 1.75781 19.5 2.75391 19.5 4.79297V14.4727C19.5 16.5 18.3984 17.4961 16.4883 17.4961H4.89844ZM21.1172 6.35156V8.57812L26.6953 3.97266C26.8008 3.89062 26.8711 3.83203 26.9766 3.83203C27.1172 3.83203 27.1758 3.94922 27.1758 4.11328V15.1523C27.1758 15.3164 27.1172 15.4219 26.9766 15.4219C26.8711 15.4219 26.8008 15.3633 26.6953 15.293L21.1172 10.6875V12.9023L25.8164 16.8867C26.2852 17.2734 26.8008 17.543 27.2812 17.543C28.3125 17.543 28.9922 16.7812 28.9922 15.6914V3.57422C28.9922 2.48438 28.3125 1.72266 27.2812 1.72266C26.8008 1.72266 26.2852 1.99219 25.8164 2.37891L21.1172 6.35156Z" fill="black" fill-opacity="0.85"/>
</svg>
