<svg width="35" height="17" viewBox="0 0 35 17" fill="none" xmlns="http://www.w3.org/2000/svg">
<path d="M16.0078 14.0742L13.4297 12.1875H3.62109C2.55469 12.1875 1.88672 11.543 1.88672 10.5V4.00781C1.88672 2.97656 2.55469 2.32031 3.62109 2.32031H13.2422L15.5625 0.433594H3.62109C1.24219 0.433594 0 1.64062 0 4.00781V10.5C0 12.8555 1.24219 14.0742 3.62109 14.0742H16.0078ZM21.1406 12.1875L18.9492 14.0742H31.3242C33.7266 14.0742 34.957 12.8555 34.957 10.5V4.00781C34.957 1.64062 33.7266 0.433594 31.3242 0.433594H19.418L21.2695 2.32031H31.3242C32.3906 2.32031 33.0703 2.97656 33.0703 4.00781V10.5C33.0703 11.543 32.3906 12.1875 31.3242 12.1875H21.1406ZM17.4609 14.5195C21.5625 14.5195 24.7266 11.3438 24.7266 7.26562C24.7266 3.17578 21.5625 0 17.4609 0C13.3828 0 10.2188 3.17578 10.2188 7.26562C10.2188 11.3438 13.3828 14.5195 17.4609 14.5195ZM17.4609 12.75C14.3789 12.75 11.9883 10.3594 11.9883 7.26562C11.9883 4.16016 14.3789 1.76953 17.4609 1.76953C20.5664 1.76953 22.957 4.16016 22.957 7.26562C22.957 10.3594 20.5664 12.75 17.4609 12.75ZM17.4609 11.4961C19.8398 11.4961 21.7031 9.63281 21.7031 7.26562C21.7031 4.89844 19.8398 3.02344 17.4609 3.02344C15.0938 3.02344 13.2305 4.89844 13.2305 7.26562C13.2305 9.63281 15.0938 11.4961 17.4609 11.4961ZM17.4609 9.96094C15.9492 9.96094 14.7656 8.77734 14.7656 7.26562C14.7656 5.75391 15.9492 4.55859 17.4609 4.55859C18.9727 4.55859 20.168 5.75391 20.168 7.26562C20.168 8.77734 18.9727 9.96094 17.4609 9.96094ZM8.68359 13.3594H2.60156V15.082C2.60156 15.6562 2.98828 16.043 3.5625 16.043H7.72266C8.30859 16.043 8.68359 15.6562 8.68359 15.082V13.3594ZM26.2734 13.3594V15.082C26.2734 15.6562 26.6484 16.043 27.2344 16.043H31.3828C31.9688 16.043 32.3555 15.6562 32.3555 15.082V13.3594H26.2734ZM26.3438 4.88672C26.3438 5.36719 26.6836 5.70703 27.1641 5.70703H30.1055C30.5859 5.70703 30.9375 5.36719 30.9375 4.88672C30.9375 4.40625 30.5859 4.05469 30.1055 4.05469H27.1641C26.6836 4.05469 26.3438 4.40625 26.3438 4.88672ZM26.3438 7.73438C26.3438 8.21484 26.6836 8.56641 27.1641 8.56641H30.1055C30.5859 8.56641 30.9375 8.21484 30.9375 7.73438C30.9375 7.25391 30.5859 6.91406 30.1055 6.91406H27.1641C26.6836 6.91406 26.3438 7.25391 26.3438 7.73438Z" fill="black" fill-opacity="0.85"/>
</svg>
