<svg width="33" height="29" viewBox="0 0 33 29" fill="none" xmlns="http://www.w3.org/2000/svg">
<path d="M7.78418 23.5869H20.3701C22.7256 23.5869 24.1318 22.2276 24.1318 19.8721V8.25878C24.1318 5.91503 22.8428 4.55566 20.4873 4.55566H7.78418C5.53418 4.55566 4.02246 5.91503 4.02246 8.25878V19.8721C4.02246 22.2276 5.42871 23.5869 7.78418 23.5869ZM25.7256 17.5283L29.9912 21.2198C30.3896 21.5713 30.8584 21.794 31.2803 21.794C32.1943 21.794 32.792 21.126 32.792 20.1651V7.97753C32.792 7.0166 32.1943 6.34863 31.2803 6.34863C30.8584 6.34863 30.3896 6.57128 29.9912 6.92285L25.7256 10.6026V17.5283Z" fill="#007AFF"/>
<path d="M23.8857 27.419C24.8701 28.4033 26.4756 28.4033 27.4365 27.3955C28.374 26.4346 28.4209 24.8643 27.4248 23.8799L4.28027 0.747077C3.2959 -0.237298 1.70215 -0.249017 0.729492 0.747077C-0.243164 1.70801 -0.243164 3.31348 0.729492 4.28614L23.8857 27.419Z" fill="white"/>
<path d="M25.0107 26.2823C25.3623 26.6338 25.9482 26.6338 26.2881 26.2823C26.6396 25.9307 26.6396 25.3565 26.2881 25.0049L3.14355 1.87208C2.79199 1.52051 2.21777 1.52051 1.85449 1.87208C1.51465 2.21192 1.51465 2.80958 1.85449 3.14942L25.0107 26.2823Z" fill="black" fill-opacity="0.85"/>
</svg>
