<svg width="35" height="16" viewBox="0 0 35 16" fill="none" xmlns="http://www.w3.org/2000/svg">
<path d="M17.4609 13.6289C21.3047 13.6289 24.2695 10.6523 24.2695 6.83203C24.2695 3 21.3047 0.0234375 17.4609 0.0234375C13.6406 0.0234375 10.6758 3 10.6758 6.83203C10.6758 10.6523 13.6406 13.6289 17.4609 13.6289ZM17.4609 11.6602C14.7656 11.6602 12.6328 9.52734 12.6328 6.83203C12.6328 4.125 14.7656 1.99219 17.4609 1.99219C20.1797 1.99219 22.3008 4.125 22.3008 6.83203C22.3008 9.52734 20.1797 11.6602 17.4609 11.6602ZM17.4609 10.6758C19.6172 10.6758 21.3164 8.98828 21.3164 6.83203C21.3164 4.67578 19.6172 2.97656 17.4609 2.97656C15.3047 2.97656 13.6172 4.67578 13.6172 6.83203C13.6172 8.98828 15.3047 10.6758 17.4609 10.6758ZM9.30469 6.83203C9.30469 3.9375 10.7344 1.44141 12.9375 0H3.62109C1.24219 0 0 1.20703 0 3.57422V10.0664C0 12.4219 1.24219 13.6406 3.62109 13.6406H12.9023C10.7227 12.1875 9.30469 9.70312 9.30469 6.83203ZM31.3242 0H22.0078C24.1992 1.44141 25.6406 3.9375 25.6406 6.83203C25.6406 9.70312 24.2227 12.1875 22.0312 13.6406H31.3242C33.7266 13.6406 34.957 12.4219 34.957 10.0664V3.57422C34.957 1.20703 33.7266 0 31.3242 0ZM27.7617 4.45312C27.7617 3.97266 28.1016 3.62109 28.582 3.62109H31.5234C32.0039 3.62109 32.3555 3.97266 32.3555 4.45312C32.3555 4.93359 32.0039 5.27344 31.5234 5.27344H28.582C28.1016 5.27344 27.7617 4.93359 27.7617 4.45312ZM27.7617 7.30078C27.7617 6.82031 28.1016 6.48047 28.582 6.48047H31.5234C32.0039 6.48047 32.3555 6.82031 32.3555 7.30078C32.3555 7.78125 32.0039 8.13281 31.5234 8.13281H28.582C28.1016 8.13281 27.7617 7.78125 27.7617 7.30078ZM8.68359 12.9258H2.60156V14.6484C2.60156 15.2227 2.98828 15.6094 3.5625 15.6094H7.72266C8.30859 15.6094 8.68359 15.2227 8.68359 14.6484V12.9258ZM26.2734 12.9258V14.6484C26.2734 15.2227 26.6484 15.6094 27.2344 15.6094H31.3828C31.9688 15.6094 32.3555 15.2227 32.3555 14.6484V12.9258H26.2734Z" fill="black" fill-opacity="0.85"/>
</svg>
