<svg width="16" height="27" viewBox="0 0 16 27" fill="none" xmlns="http://www.w3.org/2000/svg">
<path d="M7.69922 26.7656C12.2227 26.7656 15.3984 23.7305 15.3984 19.4297V7.33594C15.3984 3.02344 12.2227 0 7.69922 0C3.1875 0 0 3.02344 0 7.33594V19.4297C0 23.7305 3.1875 26.7656 7.69922 26.7656ZM7.6875 24.8789C4.27734 24.8789 1.875 22.6289 1.875 19.4297V7.33594C1.875 4.13672 4.27734 1.88672 7.6875 1.88672C11.1211 1.88672 13.5234 4.13672 13.5234 7.33594V19.4297C13.5234 22.6289 11.1211 24.8789 7.6875 24.8789Z" fill="#007AFF"/>
<path d="M7.69922 12.3516C10.125 12.3516 12.0352 10.4414 12.0352 8.01562C12.0352 5.57812 10.125 3.66797 7.69922 3.66797C5.27344 3.66797 3.35156 5.57812 3.35156 8.01562C3.35156 10.4414 5.27344 12.3516 7.69922 12.3516ZM7.69922 9.62109C6.79688 9.62109 6.09375 8.91797 6.09375 8.01562C6.09375 7.10156 6.79688 6.39844 7.69922 6.39844C8.60156 6.39844 9.29297 7.10156 9.29297 8.01562C9.29297 8.91797 8.60156 9.62109 7.69922 9.62109ZM7.69922 23.0625C10.125 23.0625 12.0352 21.1523 12.0352 18.7148C12.0352 16.2891 10.125 14.3789 7.69922 14.3789C5.27344 14.3789 3.35156 16.2891 3.35156 18.7148C3.35156 21.1523 5.27344 23.0625 7.69922 23.0625ZM7.69922 21.5273C6.10547 21.5273 4.88672 20.3086 4.88672 18.7148C4.88672 17.1211 6.10547 15.9141 7.69922 15.9141C9.28125 15.9141 10.5 17.1211 10.5 18.7148C10.5 20.3086 9.28125 21.5273 7.69922 21.5273Z" fill="black" fill-opacity="0.85"/>
</svg>
