<svg width="24" height="24" viewBox="0 0 24 24" fill="none" xmlns="http://www.w3.org/2000/svg">
<path d="M11.9531 23.9062C18.4922 23.9062 23.9062 18.4805 23.9062 11.9531C23.9062 5.41406 18.4805 0 11.9414 0C5.41406 0 0 5.41406 0 11.9531C0 18.4805 5.42578 23.9062 11.9531 23.9062Z" fill="#FFCC00"/>
<path d="M14.0859 8.73047C12.5156 7.52344 9.53906 6.64453 7.25391 7.5C8.4375 6.25781 10.1133 5.46094 11.9531 5.46094C12.8438 5.46094 13.6875 5.66016 14.4727 5.97656C14.8242 6.75 14.6602 7.69922 14.0859 8.73047ZM11.5195 11.8359C9.51562 11.0156 6.99609 10.4531 5.47266 11.4609C5.53125 10.6289 5.76562 9.82031 6.12891 9.10547C8.16797 7.23047 11.8594 8.12109 13.6172 9.50391C13.0898 10.2773 12.3633 11.0625 11.5195 11.8359ZM7.54688 11.7773C7.60547 14.3438 8.8125 16.7344 9.99609 18.1289C7.54688 17.3555 5.71875 15.1523 5.48438 12.5273C5.92969 11.9648 6.66797 11.7539 7.54688 11.7773ZM11.2148 12.6797C11.3203 14.6484 12.4805 17.1445 14.0508 18.082C13.3828 18.3164 12.6914 18.4453 11.8125 18.4453C10.7578 18.082 8.56641 15.2344 8.4375 11.8594C9.32812 11.9766 10.3125 12.2812 11.2148 12.6797ZM15.1992 17.5664C14.5547 17.5078 13.9102 16.9922 13.3828 16.2422C16.2773 14.0156 17.6133 11.5312 18.0586 9.82031C18.293 10.4766 18.4336 11.2031 18.4336 11.9531C18.4336 14.3203 17.1094 16.4297 15.1992 17.5664ZM12.9258 15.4805C12.4453 14.5898 12.1289 13.5 12.0938 12.5039C14.1445 10.6641 15.6914 8.40234 15.4688 6.53906C16.2188 7.01953 16.8633 7.65234 17.3555 8.40234C17.543 9.36328 16.6406 12.5508 12.9258 15.4805Z" fill="black" fill-opacity="0.85"/>
</svg>
