<svg width="24" height="24" viewBox="0 0 24 24" fill="none" xmlns="http://www.w3.org/2000/svg">
<path d="M11.9531 23.9062C18.4922 23.9062 23.9062 18.4805 23.9062 11.9531C23.9062 5.41406 18.4805 0 11.9414 0C5.41406 0 0 5.41406 0 11.9531C0 18.4805 5.42578 23.9062 11.9531 23.9062Z" fill="#FFCC00"/>
<path d="M8.69531 17.6133C8.07422 17.6133 7.65234 17.2734 7.5 16.6523L5.10938 7.48828C5.07422 7.35938 5.0625 7.23047 5.0625 7.125C5.0625 6.57422 5.42578 6.19922 5.98828 6.19922C6.5625 6.19922 6.82031 6.46875 6.97266 7.16016L8.77734 14.8359H8.85938L10.875 7.01953C11.0039 6.48047 11.3672 6.22266 11.9414 6.22266C12.5156 6.22266 12.8555 6.48047 12.9961 7.01953L15.0234 14.8359H15.1055L16.9102 7.16016C17.0625 6.46875 17.332 6.19922 17.9062 6.19922C18.457 6.19922 18.832 6.57422 18.832 7.125C18.832 7.23047 18.8203 7.35938 18.7734 7.48828L16.3828 16.6523C16.2305 17.2734 15.8086 17.6133 15.1641 17.6133C14.5312 17.6133 14.0859 17.2852 13.9453 16.6758L11.9766 9.07031H11.8945L9.9375 16.6758C9.79688 17.2852 9.35156 17.6133 8.69531 17.6133Z" fill="black" fill-opacity="0.85"/>
</svg>
