<svg width="22" height="22" viewBox="0 0 22 22" fill="none" xmlns="http://www.w3.org/2000/svg">
<path d="M3.67969 21.5977H17.8945C20.3555 21.5977 21.5742 20.3789 21.5742 17.9648V3.65625C21.5742 1.24219 20.3555 0.0234375 17.8945 0.0234375H3.67969C1.23047 0.0234375 0 1.23047 0 3.65625V17.9648C0 20.3906 1.23047 21.5977 3.67969 21.5977ZM3.70312 19.7109C2.53125 19.7109 1.88672 19.0898 1.88672 17.8711V3.75C1.88672 2.53125 2.53125 1.91016 3.70312 1.91016H17.8711C19.0312 1.91016 19.6875 2.53125 19.6875 3.75V17.8711C19.6875 19.0898 19.0312 19.7109 17.8711 19.7109H3.70312Z" fill="#007AFF"/>
<path d="M7.65234 16.2773C8.27344 16.2773 8.69531 15.9609 8.83594 15.375L10.7344 7.98047H10.8281L12.7266 15.375C12.8672 15.9609 13.2891 16.2773 13.9102 16.2773C14.5312 16.2773 14.9297 15.9492 15.082 15.3516L17.4141 6.45703C17.4492 6.32812 17.4609 6.21094 17.4609 6.10547C17.4609 5.57812 17.1094 5.21484 16.5586 5.21484C16.0078 5.21484 15.75 5.47266 15.6094 6.14062L13.8516 13.5938H13.7695L11.8008 6.01172C11.6602 5.48438 11.332 5.23828 10.7812 5.23828C10.2305 5.23828 9.89062 5.48438 9.76172 6.01172L7.79297 13.5938H7.71094L5.96484 6.14062C5.82422 5.47266 5.56641 5.21484 5.01562 5.21484C4.46484 5.21484 4.11328 5.57812 4.11328 6.10547C4.11328 6.21094 4.125 6.32812 4.16016 6.45703L6.48047 15.3516C6.63281 15.9492 7.03125 16.2773 7.65234 16.2773Z" fill="black" fill-opacity="0.85"/>
</svg>
