<svg width="25" height="26" viewBox="0 0 25 26" fill="none" xmlns="http://www.w3.org/2000/svg">
<path d="M21.9604 23.8711C22.4526 24.375 23.2964 24.375 23.7651 23.8711C24.2573 23.3555 24.2456 22.5586 23.7651 22.0664L12.6323 10.8867C12.1401 10.3945 11.2847 10.3945 10.8159 10.8867C10.3354 11.4023 10.3472 12.2109 10.8159 12.7031L21.9604 23.8711ZM15.1518 15.8203L11.7065 12.375C11.4956 12.1641 11.437 11.9297 11.6362 11.7305C11.812 11.543 12.0698 11.5898 12.2807 11.8125L15.7261 15.2578L15.1518 15.8203Z" fill="black" fill-opacity="0.85"/>
<path d="M23.9414 13.5C24.5039 13.5 24.9727 13.0312 24.9727 12.4805C24.9727 11.9297 24.5039 11.4609 23.9414 11.4609H20.332C19.7812 11.4609 19.3125 11.9297 19.3125 12.4805C19.3125 13.0312 19.7812 13.5 20.332 13.5H23.9414Z" fill="#007AFF"/>
<path d="M17.2852 6.24609C16.8867 6.63281 16.8867 7.28906 17.2852 7.6875C17.6719 8.07422 18.3398 8.07422 18.7383 7.6875L21.2812 5.13281C21.6797 4.73438 21.6797 4.07812 21.2812 3.67969C20.8945 3.29297 20.2383 3.29297 19.8516 3.67969L17.2852 6.24609Z" fill="#007AFF"/>
<path d="M13.5117 1.01953C13.5117 0.46875 13.043 0 12.4805 0C11.9297 0 11.4609 0.46875 11.4609 1.01953V4.62891C11.4609 5.19141 11.9297 5.66016 12.4805 5.66016C13.043 5.66016 13.5117 5.19141 13.5117 4.62891V1.01953Z" fill="#007AFF"/>
<path d="M6.23438 7.68756C6.62109 8.07428 7.27734 8.07428 7.67578 7.68756C8.0625 7.28912 8.0625 6.63287 7.67578 6.24615L5.13281 3.69147C4.74609 3.30475 4.08984 3.29303 3.69141 3.67975C3.30469 4.06647 3.30469 4.72272 3.69141 5.12115L6.23438 7.68756Z" fill="#007AFF"/>
<path d="M1.01953 11.4609C0.46875 11.4609 0 11.9297 0 12.4805C0 13.0312 0.46875 13.5 1.01953 13.5H4.65234C5.20312 13.5 5.67188 13.0312 5.67188 12.4805C5.67188 11.9297 5.20312 11.4609 4.65234 11.4609H1.01953Z" fill="#007AFF"/>
<path d="M3.67922 19.8281C3.2925 20.2148 3.2925 20.8828 3.6675 21.2695C4.05422 21.6562 4.72219 21.668 5.12062 21.2812L7.67531 18.7266C8.06203 18.3398 8.06203 17.6836 7.67531 17.2969C7.30031 16.8984 6.62062 16.8984 6.23391 17.2969L3.67922 19.8281Z" fill="#007AFF"/>
<path d="M13.5117 20.3438C13.5117 19.7812 13.043 19.3125 12.4805 19.3125C11.9297 19.3125 11.4609 19.7812 11.4609 20.3438V23.9531C11.4609 24.5039 11.9297 24.9727 12.4805 24.9727C13.043 24.9727 13.5117 24.5039 13.5117 23.9531V20.3438Z" fill="#007AFF"/>
</svg>
