<svg width="25" height="28" viewBox="0 0 25 28" fill="none" xmlns="http://www.w3.org/2000/svg">
<path d="M2.71875 25.7109H17.625C19.2422 25.7109 20.332 24.5977 20.332 22.9219V3.90234C20.332 2.22656 19.2422 1.10156 17.625 1.10156H2.71875C1.08984 1.10156 0 2.22656 0 3.90234V22.9219C0 24.5977 1.08984 25.7109 2.71875 25.7109ZM1.88672 22.8984V3.92578C1.88672 3.36328 2.26172 2.98828 2.80078 2.98828H17.5312C18.082 2.98828 18.4453 3.36328 18.4453 3.92578V22.8984C18.4453 23.4609 18.082 23.8242 17.5312 23.8242H2.80078C2.26172 23.8242 1.88672 23.4609 1.88672 22.8984ZM4.41797 6.14062C4.99219 6.14062 5.44922 5.67188 5.44922 5.09766C5.44922 4.53516 4.99219 4.06641 4.41797 4.06641C3.85547 4.06641 3.38672 4.53516 3.38672 5.09766C3.38672 5.67188 3.85547 6.14062 4.41797 6.14062ZM7.40625 6.14062C7.98047 6.14062 8.4375 5.67188 8.4375 5.09766C8.4375 4.53516 7.98047 4.06641 7.40625 4.06641C6.84375 4.06641 6.38672 4.53516 6.38672 5.09766C6.38672 5.67188 6.84375 6.14062 7.40625 6.14062ZM13.5352 5.69531H16.3359C16.6875 5.69531 16.9219 5.46094 16.9219 5.09766C16.9219 4.74609 16.6875 4.51172 16.3359 4.51172H13.5352C13.1836 4.51172 12.9492 4.74609 12.9492 5.09766C12.9492 5.46094 13.1836 5.69531 13.5352 5.69531ZM1.03125 8.75391H19.2891V7.21875H1.03125V8.75391ZM10.1719 22.418C13.5586 22.418 16.3008 19.6758 16.3008 16.2891C16.3008 12.9023 13.5586 10.1484 10.1719 10.1484C6.77344 10.1484 4.03125 12.9023 4.03125 16.2891C4.03125 19.6758 6.77344 22.418 10.1719 22.418ZM10.1719 21.1523C7.46484 21.1523 5.29688 18.9844 5.29688 16.2891C5.29688 13.582 7.46484 11.4141 10.1719 11.4141C12.8672 11.4141 15.0352 13.582 15.0352 16.2891C15.0352 18.9844 12.8672 21.1523 10.1719 21.1523Z" fill="#007AFF"/>
<path d="M14.0744 27.082H19.1721C20.3322 27.082 21.3635 26.4023 21.7971 25.2422L24.176 18.8203C24.633 17.625 24.0354 16.418 22.9455 16.0195C22.2072 15.75 21.3752 15.9023 20.7893 16.4297C20.3088 16.2656 19.7697 16.1602 19.3127 16.1602C18.4807 16.1602 17.6955 16.418 16.6291 17.0391C15.551 16.418 14.7658 16.1602 13.9338 16.1602C13.4768 16.1602 12.9494 16.2656 12.469 16.4297C11.8713 15.9023 11.051 15.75 10.301 16.0195C9.22283 16.418 8.62517 17.625 9.07048 18.8203L11.4494 25.2422C11.883 26.4023 12.926 27.082 14.0744 27.082Z" fill="white"/>
<path d="M14.0742 25.7109H19.1719C19.7695 25.7109 20.2852 25.3828 20.5195 24.7617L22.8984 18.3516C23.0859 17.8242 22.8281 17.4375 22.4766 17.3086C22.1133 17.168 21.6562 17.2969 21.457 17.8125L21.293 18.2461C20.707 17.9414 20.1797 17.5312 19.3125 17.5312C17.9883 17.5312 17.5547 18.4102 16.6289 18.4102C15.7031 18.4102 15.2578 17.5312 13.9336 17.5312C13.0664 17.5312 12.5508 17.9414 11.9648 18.2461L11.7891 17.8125C11.6016 17.2969 11.1328 17.168 10.7812 17.3086C10.418 17.4375 10.1719 17.8242 10.3594 18.3516L12.7383 24.7617C12.9609 25.3828 13.4883 25.7109 14.0742 25.7109ZM14.4609 24.1758C14.2734 24.1758 14.1328 24.0938 14.0508 23.8711L12.3281 19.2656C12.9023 18.9609 13.3008 18.6328 13.9336 18.6328C14.9766 18.6328 15.2812 19.5117 16.6289 19.5117C17.9648 19.5117 18.2695 18.6328 19.3125 18.6328C19.957 18.6328 20.3438 18.9609 20.918 19.2656L19.1953 23.8711C19.1133 24.0938 18.9727 24.1758 18.7852 24.1758H14.4609Z" fill="black" fill-opacity="0.85"/>
</svg>
