<svg width="25" height="28" viewBox="0 0 25 28" fill="none" xmlns="http://www.w3.org/2000/svg">
<path d="M17.625 1.10156H2.71875C1.08984 1.10156 0 2.22656 0 3.90234V7.01953H20.332V3.90234C20.332 2.22656 19.2422 1.10156 17.625 1.10156ZM4.24219 5.68359C3.65625 5.68359 3.17578 5.19141 3.17578 4.61719C3.17578 4.01953 3.65625 3.53906 4.24219 3.53906C4.82812 3.53906 5.29688 4.01953 5.29688 4.61719C5.29688 5.19141 4.82812 5.68359 4.24219 5.68359ZM7.32422 5.68359C6.73828 5.68359 6.26953 5.19141 6.26953 4.61719C6.26953 4.01953 6.73828 3.53906 7.32422 3.53906C7.91016 3.53906 8.37891 4.01953 8.37891 4.61719C8.37891 5.19141 7.91016 5.68359 7.32422 5.68359ZM13.875 5.22656C13.5117 5.22656 13.2773 4.98047 13.2773 4.61719C13.2773 4.24219 13.5117 3.99609 13.875 3.99609H16.7578C17.1328 3.99609 17.3672 4.24219 17.3672 4.61719C17.3672 4.98047 17.1328 5.22656 16.7578 5.22656H13.875ZM2.71875 25.7109H17.625C19.2422 25.7109 20.332 24.5977 20.332 22.9219V8.61328H0V22.9219C0 24.5977 1.08984 25.7109 2.71875 25.7109ZM10.1719 23.0625C6.66797 23.0625 3.83203 20.2266 3.83203 16.7344C3.83203 13.2422 6.66797 10.3945 10.1719 10.3945C13.6641 10.3945 16.5 13.2422 16.5 16.7344C16.5 20.2266 13.6641 23.0625 10.1719 23.0625ZM10.1719 21.75C12.9609 21.75 15.1875 19.5234 15.1875 16.7344C15.1875 13.9336 12.9609 11.707 10.1719 11.707C7.37109 11.707 5.14453 13.9336 5.14453 16.7344C5.14453 19.5234 7.37109 21.75 10.1719 21.75Z" fill="#007AFF"/>
<path d="M14.0744 27.082H19.1721C20.3322 27.082 21.3635 26.4023 21.7971 25.2422L24.176 18.8203C24.633 17.625 24.0354 16.418 22.9455 16.0195C22.2072 15.75 21.3752 15.9023 20.7893 16.4297C20.3088 16.2656 19.7697 16.1602 19.3127 16.1602C18.4807 16.1602 17.6955 16.418 16.6291 17.0391C15.551 16.418 14.7658 16.1602 13.9338 16.1602C13.4768 16.1602 12.9494 16.2656 12.469 16.4297C11.8713 15.9023 11.051 15.75 10.301 16.0195C9.22283 16.418 8.62517 17.625 9.07048 18.8203L11.4494 25.2422C11.883 26.4023 12.926 27.082 14.0744 27.082Z" fill="white"/>
<path d="M14.0742 25.7109H19.1719C19.7695 25.7109 20.2852 25.3828 20.5195 24.7617L22.8984 18.3516C23.0859 17.8242 22.8281 17.4375 22.4766 17.3086C22.1133 17.168 21.6562 17.2969 21.457 17.8125L21.293 18.2461C20.707 17.9414 20.1797 17.5312 19.3125 17.5312C17.9883 17.5312 17.5547 18.4102 16.6289 18.4102C15.7031 18.4102 15.2578 17.5312 13.9336 17.5312C13.0664 17.5312 12.5508 17.9414 11.9648 18.2461L11.7891 17.8125C11.6016 17.2969 11.1328 17.168 10.7812 17.3086C10.418 17.4375 10.1719 17.8242 10.3594 18.3516L12.7383 24.7617C12.9609 25.3828 13.4883 25.7109 14.0742 25.7109ZM14.4609 24.1758C14.2734 24.1758 14.1328 24.0938 14.0508 23.8711L12.3281 19.2656C12.9023 18.9609 13.3008 18.6328 13.9336 18.6328C14.9766 18.6328 15.2812 19.5117 16.6289 19.5117C17.9648 19.5117 18.2695 18.6328 19.3125 18.6328C19.957 18.6328 20.3438 18.9609 20.918 19.2656L19.1953 23.8711C19.1133 24.0938 18.9727 24.1758 18.7852 24.1758H14.4609Z" fill="black" fill-opacity="0.85"/>
</svg>
