<svg width="25" height="25" viewBox="0 0 25 25" fill="none" xmlns="http://www.w3.org/2000/svg">
<path d="M12.3164 7.01807C15.5039 7.01807 16.0195 4.63917 17.8828 4.63917C19.7812 4.63917 20.0859 7.01807 23.7422 7.01807H23.8008C24.2578 7.01807 24.6328 6.64307 24.6328 6.18604C24.6328 5.72901 24.2578 5.36573 23.8008 5.36573H23.7422C22.4766 5.36573 21.7734 4.83838 20.8945 4.21729C20.1328 3.66651 19.1836 2.98682 17.8828 2.98682C16.5352 2.98682 15.5742 3.70167 14.8125 4.27588C14.0039 4.88526 13.3594 5.36573 12.3164 5.36573C11.2617 5.36573 10.6289 4.88526 9.82031 4.27588C9.05859 3.70167 8.09766 2.98682 6.75 2.98682C5.44922 2.98682 4.5 3.66651 3.73828 4.21729C2.85938 4.83838 2.14453 5.36573 0.890625 5.36573H0.832031C0.363281 5.36573 0 5.72901 0 6.18604C0 6.64307 0.363281 7.01807 0.832031 7.01807H0.890625C4.53516 7.01807 4.85156 4.63917 6.75 4.63917C8.61328 4.63917 9.11719 7.01807 12.3164 7.01807Z" fill="#007AFF"/>
<path d="M12.3164 14.0962C15.5039 14.0962 16.0195 11.7173 17.8828 11.7173C19.7812 11.7173 20.0859 14.0962 23.7422 14.0962H23.8008C24.2578 14.0962 24.6328 13.7329 24.6328 13.2759C24.6328 12.8189 24.2578 12.4439 23.8008 12.4439H23.7422C22.4766 12.4439 21.7734 11.9282 20.8945 11.2954C20.1328 10.7446 19.1836 10.0649 17.8828 10.0649C16.5352 10.0649 15.5742 10.7915 14.8125 11.354C14.0039 11.9634 13.3594 12.4439 12.3164 12.4439C11.2617 12.4439 10.6289 11.9634 9.82031 11.354C9.05859 10.7915 8.09766 10.0649 6.75 10.0649C5.44922 10.0649 4.5 10.7446 3.73828 11.2954C2.85938 11.9282 2.14453 12.4439 0.890625 12.4439H0.832031C0.363281 12.4439 0 12.8189 0 13.2759C0 13.7329 0.363281 14.0962 0.832031 14.0962H0.890625C4.53516 14.0962 4.85156 11.7173 6.75 11.7173C8.61328 11.7173 9.11719 14.0962 12.3164 14.0962Z" fill="#007AFF"/>
<path d="M9.22278 15.854C7.33606 15.854 6.41028 17.8814 7.52356 19.3345L10.547 23.2837C11.5196 24.5376 13.1251 24.5259 14.0743 23.2837L17.0978 19.3228C18.1993 17.8931 17.2618 15.854 15.3868 15.854H14.6017V9.97119C14.6017 8.69384 13.5235 7.69775 12.3048 7.69775C11.086 7.69775 10.0079 8.69384 10.0079 9.97119V15.854H9.22278Z" fill="white"/>
<path d="M9.22258 17.2251C8.47258 17.2251 8.16789 17.9517 8.60148 18.5024L11.6132 22.4517C12.0468 22.9907 12.5741 22.979 12.996 22.4517L16.0077 18.4907C16.4296 17.9517 16.1249 17.2251 15.3866 17.2251H13.2421V9.9712C13.2421 9.47901 12.8085 9.06885 12.3046 9.06885C11.8007 9.06885 11.3788 9.47901 11.3788 9.9712V17.2251H9.22258Z" fill="black" fill-opacity="0.85"/>
</svg>
