<svg width="25" height="25" viewBox="0 0 25 25" fill="none" xmlns="http://www.w3.org/2000/svg">
<path d="M12.3164 14.0977C15.5039 14.0977 16.0195 11.7188 17.8828 11.7188C19.7812 11.7188 20.0859 14.0977 23.7422 14.0977H23.8008C24.2578 14.0977 24.6328 13.7344 24.6328 13.2773C24.6328 12.8203 24.2578 12.4453 23.8008 12.4453H23.7422C22.4766 12.4453 21.7734 11.9297 20.8945 11.2969C20.1328 10.7461 19.1836 10.0664 17.8828 10.0664C16.5352 10.0664 15.5742 10.793 14.8125 11.3555C14.0039 11.9648 13.3594 12.4453 12.3164 12.4453C11.2617 12.4453 10.6289 11.9648 9.82031 11.3555C9.05859 10.793 8.09766 10.0664 6.75 10.0664C5.44922 10.0664 4.5 10.7461 3.73828 11.2969C2.85938 11.9297 2.14453 12.4453 0.890625 12.4453H0.832031C0.363281 12.4453 0 12.8203 0 13.2773C0 13.7344 0.363281 14.0977 0.832031 14.0977H0.890625C4.53516 14.0977 4.85156 11.7188 6.75 11.7188C8.61328 11.7188 9.11719 14.0977 12.3164 14.0977Z" fill="#007AFF"/>
<path d="M12.3164 7.01953C15.5039 7.01953 16.0195 4.64062 17.8828 4.64062C19.7812 4.64062 20.0859 7.01953 23.7422 7.01953H23.8008C24.2578 7.01953 24.6328 6.64453 24.6328 6.1875C24.6328 5.73047 24.2578 5.36719 23.8008 5.36719H23.7422C22.4766 5.36719 21.7734 4.83984 20.8945 4.21875C20.1328 3.66797 19.1836 2.98828 17.8828 2.98828C16.5352 2.98828 15.5742 3.70312 14.8125 4.27734C14.0039 4.88672 13.3594 5.36719 12.3164 5.36719C11.2617 5.36719 10.6289 4.88672 9.82031 4.27734C9.05859 3.70312 8.09766 2.98828 6.75 2.98828C5.44922 2.98828 4.5 3.66797 3.73828 4.21875C2.85938 4.83984 2.14453 5.36719 0.890625 5.36719H0.832031C0.363281 5.36719 0 5.73047 0 6.1875C0 6.64453 0.363281 7.01953 0.832031 7.01953H0.890625C4.53516 7.01953 4.85156 4.64062 6.75 4.64062C8.61328 4.64062 9.11719 7.01953 12.3164 7.01953Z" fill="#007AFF"/>
<path d="M9.22208 16.0664H10.0072V21.9492C10.0072 23.2266 11.0853 24.2227 12.3041 24.2227C13.5228 24.2227 14.601 23.2266 14.601 21.9492V16.0664H15.3861C17.2611 16.0664 18.1986 14.0273 17.0971 12.5977L14.0736 8.63674C13.101 7.40627 11.5189 7.38283 10.5463 8.63674L7.52286 12.5859C6.39786 14.0273 7.33536 16.0664 9.22208 16.0664Z" fill="white"/>
<path d="M9.22258 14.707H11.3788V21.9492C11.3788 22.4414 11.8007 22.8633 12.3046 22.8633C12.8085 22.8633 13.2421 22.4414 13.2421 21.9492V14.707H15.3866C16.1249 14.707 16.4296 13.9805 16.0077 13.4297L12.996 9.48048C12.5741 8.94142 12.0468 8.9297 11.6132 9.48048L8.60148 13.418C8.16789 13.9805 8.47258 14.707 9.22258 14.707Z" fill="black" fill-opacity="0.85"/>
</svg>
