<svg width="14" height="28" viewBox="0 0 14 28" fill="none" xmlns="http://www.w3.org/2000/svg">
<path d="M3.31641 3.01172H10.1367C10.7344 3.01172 11.1797 2.58984 11.1797 1.96875V1.04297C11.1797 0.433594 10.7344 0 10.1367 0H3.31641C2.69531 0 2.27344 0.433594 2.27344 1.04297V1.96875C2.27344 2.58984 2.69531 3.01172 3.31641 3.01172ZM5.16797 2.74219L3.29297 2.19141L1.05469 5.30859C0.210938 6.49219 0 7.61719 0 9.21094V23.8359C0 26.4141 1.28906 27.8438 3.63281 27.8438H9.80859C12.1406 27.8438 13.4531 26.4141 13.4531 23.8359V9.21094C13.4531 7.61719 13.2188 6.49219 12.375 5.30859L10.1484 2.19141L8.26172 2.74219L10.7695 6.29297C11.4492 7.27734 11.5664 7.875 11.5664 9.21094V23.8359C11.5664 25.2305 10.957 25.957 9.80859 25.957H3.63281C2.48438 25.957 1.88672 25.2305 1.88672 23.8359V9.21094C1.88672 7.875 1.98047 7.27734 2.67188 6.29297L5.16797 2.74219ZM1.16016 8.95312V10.4297H12.2695V8.95312H1.16016ZM6.71484 19.9805C8.36719 19.9805 9.43359 18.9258 9.43359 17.3555C9.43359 16.5234 9.09375 15.8672 8.88281 15.457C8.47266 14.5078 7.74609 13.3125 7.13672 12.3984C7.01953 12.2109 6.87891 12.1172 6.71484 12.1172C6.5625 12.1172 6.42188 12.2109 6.29297 12.3984C5.68359 13.3125 4.98047 14.5078 4.54688 15.457C4.35938 15.8672 3.99609 16.5234 3.99609 17.3555C3.99609 18.9258 5.07422 19.9805 6.71484 19.9805ZM1.16016 21.9258V23.4023H12.2695V21.9258H1.16016Z" fill="black" fill-opacity="0.85"/>
</svg>
