<svg width="28" height="22" viewBox="0 0 28 22" fill="none" xmlns="http://www.w3.org/2000/svg">
<path d="M3.67969 21.5742H23.9531C26.4141 21.5742 27.6328 20.3672 27.6328 17.9531V3.63281C27.6328 1.21875 26.4141 0 23.9531 0H3.67969C1.23047 0 0 1.21875 0 3.63281V17.9531C0 20.3672 1.23047 21.5742 3.67969 21.5742ZM3.70312 19.6875C2.53125 19.6875 1.88672 19.0664 1.88672 17.8477V3.73828C1.88672 2.51953 2.53125 1.88672 3.70312 1.88672H23.9297C25.0898 1.88672 25.7461 2.51953 25.7461 3.73828V17.8477C25.7461 19.0664 25.0898 19.6875 23.9297 19.6875H3.70312Z" fill="#007AFF"/>
<path d="M1.89844 11.8126H4.71094C5.19141 11.8126 5.41406 11.5899 5.57812 11.1798L7.06641 7.58212L9.78516 16.3126C9.98438 16.9571 11.0273 16.9454 11.2383 16.2774L12.6562 11.8126H15.4219C15.9023 11.8126 16.1133 11.5899 16.2891 11.1798L17.8242 7.58212L20.5547 16.3126C20.7539 16.9571 21.7969 16.9454 21.9961 16.2774L23.4258 11.8126H25.7578V10.3009H23.0039C22.5234 10.3009 22.2773 10.5353 22.1367 10.9337L21.2695 13.3829L18.5391 5.1329C18.3281 4.50009 17.3789 4.50009 17.1094 5.16806L15 10.3009H12.2344C11.7656 10.3009 11.5195 10.5353 11.3672 10.9337L10.5 13.3829L7.76953 5.1329C7.57031 4.50009 6.60938 4.50009 6.33984 5.16806L4.23047 10.3009H1.89844V11.8126Z" fill="black" fill-opacity="0.85"/>
</svg>
