<svg width="28" height="22" viewBox="0 0 28 22" fill="none" xmlns="http://www.w3.org/2000/svg">
<path d="M0 11.8242V10.3125H4.23047L6.32812 5.17969C6.60938 4.5 7.55859 4.51172 7.76953 5.14453L10.4883 13.3945L11.3672 10.9453C11.5078 10.5352 11.7539 10.3125 12.2344 10.3125H14.9883L17.0977 5.17969C17.3672 4.5 18.3281 4.51172 18.5273 5.14453L21.2578 13.3945L22.125 10.9453C22.2773 10.5352 22.5234 10.3125 22.9922 10.3125H27.6328V11.8242H23.4141L21.9961 16.2891C21.7852 16.9453 20.7422 16.9688 20.543 16.3242L17.8242 7.59375L16.2773 11.1914C16.1133 11.6016 15.8906 11.8242 15.4102 11.8242H12.6445L11.2266 16.2891C11.0156 16.9453 9.98438 16.9688 9.78516 16.3242L7.05469 7.59375L5.57812 11.1914C5.40234 11.6016 5.17969 11.8242 4.47656 11.8242H0ZM3.67969 21.5742H23.9531C26.4141 21.5742 27.6328 20.3672 27.6328 17.9531V3.63281C27.6328 1.21875 26.4141 0 23.9531 0H3.67969C1.23047 0 0 1.21875 0 3.63281V17.9531C0 20.3672 1.23047 21.5742 3.67969 21.5742Z" fill="black" fill-opacity="0.85"/>
</svg>
