<svg width="24" height="24" viewBox="0 0 24 24" fill="none" xmlns="http://www.w3.org/2000/svg">
<path d="M11.9531 23.918C18.4922 23.918 23.9062 18.5039 23.9062 11.9648C23.9062 5.4375 18.4805 0.0117188 11.9414 0.0117188C5.41406 0.0117188 0 5.4375 0 11.9648C0 18.5039 5.42578 23.918 11.9531 23.918Z" fill="#FFCC00"/>
<path d="M6.92578 11.9649C6.92578 9.19934 7.74609 6.52746 9.22266 4.38293C9.50391 3.96106 10.0078 3.86731 10.3945 4.14856C10.7812 4.42981 10.8398 4.922 10.5586 5.33215C9.26953 7.14856 8.55469 9.50403 8.55469 11.9649C8.55469 14.3907 9.28125 16.7696 10.5586 18.5978C10.8398 18.9962 10.7812 19.4884 10.3945 19.7813C10.0195 20.0392 9.51562 19.9454 9.22266 19.5353C7.74609 17.4259 6.92578 14.7306 6.92578 11.9649Z" fill="black" fill-opacity="0.85"/>
<path d="M10.6992 11.9648C10.6992 9.9141 11.2969 7.95707 12.375 6.49223C12.668 6.09379 13.1484 6.00004 13.5352 6.26957C13.8984 6.52738 13.9922 7.04301 13.6992 7.46488C12.8438 8.64848 12.3516 10.2773 12.3516 11.9648C12.3516 13.6406 12.8438 15.2695 13.6992 16.4531C13.9922 16.875 13.8984 17.3906 13.5352 17.6484C13.1484 17.9297 12.668 17.8242 12.375 17.4375C11.2969 15.9258 10.6992 13.9688 10.6992 11.9648Z" fill="black" fill-opacity="0.85"/>
<path d="M14.4844 11.9648C14.4844 10.7344 14.8594 9.48045 15.5039 8.5781C15.7734 8.21482 16.2773 8.10936 16.6523 8.35545C17.0742 8.64842 17.1562 9.17576 16.8281 9.60936C16.3945 10.1836 16.1367 11.0508 16.1367 11.9648C16.1367 12.8438 16.3945 13.7109 16.8281 14.3086C17.1445 14.7422 17.0625 15.2461 16.6523 15.5508C16.2773 15.8086 15.7617 15.7031 15.5039 15.3281C14.8594 14.4844 14.4844 13.2305 14.4844 11.9648Z" fill="black" fill-opacity="0.85"/>
</svg>
