<svg width="24" height="24" viewBox="0 0 24 24" fill="none" xmlns="http://www.w3.org/2000/svg">
<path d="M11.9531 23.918C18.4922 23.918 23.9062 18.5039 23.9062 11.9648C23.9062 5.4375 18.4805 0.0117188 11.9414 0.0117188C5.41406 0.0117188 0 5.4375 0 11.9648C0 18.5039 5.42578 23.918 11.9531 23.918Z" fill="#FFCC00"/>
<path d="M17.0275 11.9649C17.0275 14.7306 16.219 17.4259 14.7307 19.5353C14.4377 19.9454 13.9338 20.0392 13.5705 19.7813C13.1838 19.4884 13.1135 18.9962 13.3947 18.5978C14.6838 16.7696 15.3986 14.3907 15.3986 11.9649C15.3986 9.50403 14.6955 7.14856 13.3947 5.33215C13.1135 4.922 13.1838 4.42981 13.5705 4.14856C13.9455 3.86731 14.4494 3.96106 14.7307 4.38293C16.219 6.52746 17.0275 9.19934 17.0275 11.9649Z" fill="black" fill-opacity="0.85"/>
<path d="M13.2537 11.9648C13.2537 13.9688 12.656 15.9258 11.5779 17.4375C11.285 17.8242 10.8045 17.9297 10.4295 17.6484C10.0545 17.3906 9.96077 16.875 10.2537 16.4531C11.1092 15.2695 11.6014 13.6406 11.6014 11.9648C11.6014 10.2773 11.1092 8.64848 10.2537 7.46488C9.96077 7.04301 10.0545 6.52738 10.4295 6.26957C10.8045 6.00004 11.285 6.09379 11.5779 6.49223C12.656 7.95707 13.2537 9.9141 13.2537 11.9648Z" fill="black" fill-opacity="0.85"/>
<path d="M9.46866 11.9648C9.46866 13.2305 9.09366 14.4844 8.46085 15.3281C8.19132 15.7031 7.68741 15.8086 7.31241 15.5508C6.90225 15.2461 6.82022 14.7422 7.12491 14.3086C7.5585 13.7109 7.81632 12.8438 7.81632 11.9648C7.81632 11.0508 7.5585 10.1836 7.12491 9.60936C6.8085 9.17576 6.89053 8.64842 7.31241 8.35545C7.68741 8.10936 8.1796 8.21482 8.46085 8.5781C9.09366 9.48045 9.46866 10.7344 9.46866 11.9648Z" fill="black" fill-opacity="0.85"/>
</svg>
