<svg width="24" height="24" viewBox="0 0 24 24" fill="none" xmlns="http://www.w3.org/2000/svg">
<path d="M11.9531 23.9062C18.4922 23.9062 23.9062 18.4805 23.9062 11.9531C23.9062 5.41406 18.4805 0 11.9414 0C5.41406 0 0 5.41406 0 11.9531C0 18.4805 5.42578 23.9062 11.9531 23.9062ZM11.9531 21.9141C6.42188 21.9141 2.00391 17.4844 2.00391 11.9531C2.00391 6.42188 6.41016 1.99219 11.9414 1.99219C17.4727 1.99219 21.9141 6.42188 21.9141 11.9531C21.9141 17.4844 17.4844 21.9141 11.9531 21.9141Z" fill="#007AFF"/>
<path d="M17.8945 14.1445C18.293 14.1445 18.5859 13.8516 18.5859 13.4414V10.4414C18.5859 10.0312 18.293 9.73828 17.8945 9.73828C17.4844 9.73828 17.1797 10.043 17.1797 10.4414V13.4414C17.1797 13.8398 17.4844 14.1445 17.8945 14.1445Z" fill="black" fill-opacity="0.85"/>
<path d="M15.5039 16.793C15.9023 16.793 16.207 16.4883 16.207 16.0898V7.79297C16.207 7.39453 15.9023 7.08984 15.5039 7.08984C15.1055 7.08984 14.8008 7.39453 14.8008 7.79297V16.0898C14.8008 16.4883 15.1055 16.793 15.5039 16.793Z" fill="black" fill-opacity="0.85"/>
<path d="M13.125 14.6016C13.5234 14.6016 13.8281 14.2969 13.8281 13.9102V9.97266C13.8281 9.58594 13.5234 9.26953 13.125 9.26953C12.7383 9.26953 12.4219 9.58594 12.4219 9.97266V13.9102C12.4219 14.2969 12.7383 14.6016 13.125 14.6016Z" fill="black" fill-opacity="0.85"/>
<path d="M10.7578 18.4336C11.1445 18.4336 11.4492 18.1289 11.4492 17.7188V6.16406C11.4492 5.76562 11.1445 5.46094 10.7578 5.46094C10.3594 5.46094 10.043 5.76562 10.043 6.16406V17.7188C10.043 18.1406 10.3477 18.4336 10.7578 18.4336Z" fill="black" fill-opacity="0.85"/>
<path d="M8.37891 15.6797C8.77734 15.6797 9.08203 15.3633 9.08203 14.9648V8.90625C9.08203 8.50781 8.77734 8.20312 8.37891 8.20312C7.98047 8.20312 7.67578 8.50781 7.67578 8.90625V14.9648C7.67578 15.3633 7.98047 15.6797 8.37891 15.6797Z" fill="black" fill-opacity="0.85"/>
<path d="M5.98828 13.6758C6.39844 13.6758 6.70312 13.3594 6.70312 12.9727V10.9102C6.70312 10.5234 6.39844 10.207 5.98828 10.207C5.60156 10.207 5.29688 10.5234 5.29688 10.9102V12.9727C5.29688 13.3594 5.61328 13.6758 5.98828 13.6758Z" fill="black" fill-opacity="0.85"/>
</svg>
