<svg width="24" height="26" viewBox="0 0 24 26" fill="none" xmlns="http://www.w3.org/2000/svg">
<path d="M0.84375 14.8901H6.03516C6.5625 14.8901 6.87891 14.6558 6.99609 14.187L9.25781 3.78079H8.36719L11.8359 24.6167C11.9766 25.4605 13.2773 25.4487 13.4414 24.6167L16.8047 8.83157L16.0664 8.81985L17.1211 14.0933C17.2266 14.6323 17.5312 14.8901 18.082 14.8901H22.6289C23.0977 14.8901 23.4727 14.5269 23.4727 14.0698C23.4727 13.6011 23.1094 13.2378 22.6289 13.2378H17.0977L18.7852 14.6089L17.1328 7.27298C16.957 6.46438 15.75 6.46438 15.5508 7.30813L12.1289 22.6011H12.9609L9.52734 1.77688C9.39844 0.956575 8.20312 0.933137 8.01562 1.77688L5.23828 14.6089L6.92578 13.2378H0.84375C0.363281 13.2378 0 13.6128 0 14.0698C0 14.5269 0.363281 14.8901 0.84375 14.8901Z" fill="black" fill-opacity="0.85"/>
</svg>
