<svg width="17" height="28" viewBox="0 0 17 28" fill="none" xmlns="http://www.w3.org/2000/svg">
<path d="M16.9223 13.939C16.9223 8.98198 15.3754 4.36479 12.6215 0.544475C11.7778 -0.639119 10.0551 0.392131 10.9692 1.6226C13.5356 5.14995 14.9067 9.40385 14.9067 13.939C14.9067 18.4741 13.5239 22.7163 10.9692 26.2436C10.0786 27.4624 11.7426 28.5522 12.6215 27.3335C15.3754 23.5015 16.9223 18.8843 16.9223 13.939Z" fill="black" fill-opacity="0.85"/>
<path d="M10.5352 13.9391C10.5352 10.2594 9.37505 6.80236 7.28912 4.00158C6.35162 2.74767 4.72271 3.9547 5.60162 5.10314C7.51177 7.61095 8.5313 10.6695 8.5313 13.9391C8.5313 17.2086 7.51177 20.2672 5.60162 22.775C4.72271 23.9234 6.35162 25.1305 7.28912 23.8648C9.37505 21.0641 10.5352 17.6187 10.5352 13.9391Z" fill="black" fill-opacity="0.85"/>
<path d="M4.17232 13.9392C4.17232 11.5251 3.34029 9.27508 1.86373 7.51726C0.89107 6.36883 -0.526899 7.66961 0.199664 8.60711C1.61763 10.3884 2.15669 11.8767 2.15669 13.9392C2.15669 16.0017 1.61763 17.4899 0.199664 19.2712C-0.51518 20.197 0.902789 21.486 1.86373 20.3493C3.34029 18.6032 4.17232 16.3532 4.17232 13.9392Z" fill="black" fill-opacity="0.85"/>
</svg>
