<svg width="24" height="24" viewBox="0 0 24 24" fill="none" xmlns="http://www.w3.org/2000/svg">
<path d="M11.9531 23.9062C18.4922 23.9062 23.9062 18.4805 23.9062 11.9531C23.9062 5.41406 18.4805 0 11.9414 0C5.41406 0 0 5.41406 0 11.9531C0 18.4805 5.42578 23.9062 11.9531 23.9062ZM11.9531 21.9141C6.42188 21.9141 2.00391 17.4844 2.00391 11.9531C2.00391 6.42188 6.41016 1.99219 11.9414 1.99219C17.4727 1.99219 21.9141 6.42188 21.9141 11.9531C21.9141 17.4844 17.4844 21.9141 11.9531 21.9141Z" fill="#007AFF"/>
<path d="M16.8638 11.9413C16.8638 9.26944 16.0669 6.66788 14.6372 4.59366C14.356 4.19522 13.8755 4.10147 13.5005 4.35929C13.1255 4.62882 13.0669 5.121 13.3482 5.50772C14.5903 7.27725 15.2935 9.56241 15.2935 11.9413C15.2935 14.2968 14.5786 16.6171 13.3482 18.3749C13.0669 18.7733 13.1255 19.2538 13.5005 19.5233C13.8638 19.7811 14.3443 19.6757 14.6372 19.3007C16.0669 17.2382 16.8638 14.6366 16.8638 11.9413Z" fill="black" fill-opacity="0.85"/>
<path d="M13.1956 11.9413C13.1956 9.94914 12.6214 8.06242 11.5784 6.63273C11.2972 6.25773 10.8284 6.16398 10.4534 6.43351C10.1019 6.67961 10.0198 7.1718 10.3011 7.58195C11.1331 8.73039 11.6019 10.3124 11.6019 11.9413C11.6019 13.5819 11.1331 15.164 10.3011 16.3124C10.0198 16.7226 10.1019 17.2147 10.4534 17.4608C10.8284 17.7187 11.2972 17.6366 11.5784 17.2499C12.6214 15.7968 13.1956 13.8983 13.1956 11.9413Z" fill="black" fill-opacity="0.85"/>
<path d="M9.52757 11.9413C9.52757 10.746 9.16429 9.53895 8.5432 8.67177C8.27367 8.3202 7.7932 8.21473 7.42992 8.44911C7.01976 8.73036 6.94945 9.24598 7.26585 9.66786C7.68773 10.2069 7.93382 11.0624 7.93382 11.9413C7.93382 12.7968 7.68773 13.6522 7.26585 14.2265C6.96117 14.6483 7.03148 15.1405 7.42992 15.4335C7.7932 15.6796 8.28539 15.5741 8.5432 15.2108C9.16429 14.3905 9.52757 13.1718 9.52757 11.9413Z" fill="black" fill-opacity="0.85"/>
</svg>
