<svg width="17" height="28" viewBox="0 0 17 28" fill="none" xmlns="http://www.w3.org/2000/svg">
<path d="M0 13.939C0 18.8843 1.54688 23.5015 4.28906 27.3335C5.17969 28.5522 6.84375 27.4624 5.95312 26.2436C3.38672 22.7163 2.01562 18.4741 2.01562 13.939C2.01562 9.40385 3.38672 5.14995 5.95312 1.6226C6.86719 0.392131 5.13281 -0.639119 4.28906 0.544475C1.54688 4.36479 0 8.98198 0 13.939Z" fill="black" fill-opacity="0.85"/>
<path d="M6.38672 13.9391C6.38672 17.6187 7.54688 21.0641 9.63281 23.8648C10.5586 25.1305 12.1992 23.9234 11.3086 22.775C9.41016 20.2672 8.39062 17.2086 8.39062 13.9391C8.39062 10.6695 9.41016 7.61095 11.3086 5.10314C12.1992 3.9547 10.5586 2.74767 9.63281 4.00158C7.54688 6.80236 6.38672 10.2594 6.38672 13.9391Z" fill="black" fill-opacity="0.85"/>
<path d="M12.75 13.9392C12.75 16.3532 13.582 18.6032 15.0586 20.3493C16.0195 21.486 17.4375 20.197 16.7227 19.2712C15.3047 17.4899 14.7539 16.0017 14.7539 13.9392C14.7539 11.8767 15.3047 10.3884 16.7227 8.60711C17.4375 7.66961 16.0312 6.36883 15.0586 7.51726C13.582 9.27508 12.75 11.5251 12.75 13.9392Z" fill="black" fill-opacity="0.85"/>
</svg>
