<svg width="24" height="24" viewBox="0 0 24 24" fill="none" xmlns="http://www.w3.org/2000/svg">
<path d="M11.9531 23.9062C18.4922 23.9062 23.9062 18.4805 23.9062 11.9531C23.9062 5.41406 18.4805 0 11.9414 0C5.41406 0 0 5.41406 0 11.9531C0 18.4805 5.42578 23.9062 11.9531 23.9062ZM11.9531 21.9141C6.42188 21.9141 2.00391 17.4844 2.00391 11.9531C2.00391 6.42188 6.41016 1.99219 11.9414 1.99219C17.4727 1.99219 21.9141 6.42188 21.9141 11.9531C21.9141 17.4844 17.4844 21.9141 11.9531 21.9141Z" fill="#007AFF"/>
<path d="M7.06641 11.9413C7.06641 14.6366 7.86328 17.2382 9.29297 19.3007C9.58594 19.6757 10.0664 19.7811 10.4297 19.5233C10.8047 19.2538 10.8633 18.7733 10.582 18.3749C9.35156 16.6171 8.63672 14.2968 8.63672 11.9413C8.63672 9.56241 9.33984 7.27725 10.582 5.50772C10.8633 5.121 10.8047 4.62882 10.4297 4.35929C10.0547 4.10147 9.57422 4.19522 9.29297 4.59366C7.86328 6.66788 7.06641 9.26944 7.06641 11.9413Z" fill="black" fill-opacity="0.85"/>
<path d="M10.7344 11.9413C10.7344 13.8983 11.3086 15.7968 12.3516 17.2499C12.6328 17.6366 13.1016 17.7187 13.4766 17.4608C13.8281 17.2147 13.9102 16.7226 13.6289 16.3124C12.7969 15.164 12.3281 13.5819 12.3281 11.9413C12.3281 10.3124 12.7969 8.73039 13.6289 7.58195C13.9102 7.1718 13.8281 6.67961 13.4766 6.43351C13.1016 6.16398 12.6328 6.25773 12.3516 6.63273C11.3086 8.06242 10.7344 9.94914 10.7344 11.9413Z" fill="black" fill-opacity="0.85"/>
<path d="M14.4023 11.9413C14.4023 13.1718 14.7656 14.3905 15.3867 15.2108C15.6445 15.5741 16.1367 15.6796 16.5 15.4335C16.8984 15.1405 16.9688 14.6483 16.6641 14.2265C16.2422 13.6522 15.9961 12.7968 15.9961 11.9413C15.9961 11.0624 16.2422 10.2069 16.6641 9.66786C16.9805 9.24598 16.9102 8.73036 16.5 8.44911C16.1367 8.21473 15.6562 8.3202 15.3867 8.67177C14.7656 9.53895 14.4023 10.746 14.4023 11.9413Z" fill="black" fill-opacity="0.85"/>
</svg>
