<svg width="22" height="22" viewBox="0 0 22 22" fill="none" xmlns="http://www.w3.org/2000/svg">
<path d="M3.67969 21.5977H17.8945C20.3555 21.5977 21.5742 20.3789 21.5742 17.9648V3.65625C21.5742 1.24219 20.3555 0.0234375 17.8945 0.0234375H3.67969C1.23047 0.0234375 0 1.23047 0 3.65625V17.9648C0 20.3906 1.23047 21.5977 3.67969 21.5977Z" fill="#FFCC00"/>
<path d="M4.10125 10.0078L3.19891 9.08204C3.04657 8.9297 3.02313 8.73048 3.15203 8.5547C4.79266 6.53907 7.8161 5.20312 10.8044 5.20312C13.7809 5.20312 16.8044 6.53907 18.445 8.5547C18.5856 8.73048 18.5622 8.9297 18.4099 9.08204L17.5075 9.99609C17.3317 10.1719 17.0856 10.1836 16.9099 10.0078C15.3395 8.29689 13.195 7.40625 10.8044 7.40625C8.41375 7.40625 6.29266 8.30859 4.71063 9.99609C4.52313 10.1953 4.2536 10.1953 4.10125 10.0078Z" fill="black" fill-opacity="0.85"/>
<path d="M6.85519 12.7734L5.83566 11.7422C5.69503 11.5898 5.6716 11.3906 5.8005 11.2383C6.90206 9.90234 8.82394 9.04688 10.8044 9.04688C12.7731 9.04688 14.7067 9.90234 15.7966 11.2383C15.9372 11.3789 15.9255 11.6016 15.7731 11.7422L14.7536 12.7734C14.5661 12.9609 14.3317 12.9609 14.1442 12.7617C13.3122 11.8359 12.0231 11.25 10.8044 11.2734C9.56222 11.25 8.2966 11.8359 7.47628 12.75C7.27706 12.9727 7.04269 12.9609 6.85519 12.7734Z" fill="black" fill-opacity="0.85"/>
<path d="M10.8049 16.418C10.6174 16.418 10.4768 16.3477 10.2072 16.0664L8.59007 14.5078C8.46117 14.3789 8.42601 14.2031 8.51976 14.0625C9.02367 13.3711 9.91429 12.9141 10.8049 12.9141C11.6838 12.9141 12.5744 13.3594 13.0549 14.0039C13.1838 14.1562 13.1604 14.3789 13.0197 14.5078L11.4143 16.0664C11.1213 16.3594 10.9924 16.418 10.8049 16.418Z" fill="black" fill-opacity="0.85"/>
</svg>
