<svg width="24" height="24" viewBox="0 0 24 24" fill="none" xmlns="http://www.w3.org/2000/svg">
<path d="M11.9531 23.9062C18.4922 23.9062 23.9062 18.4805 23.9062 11.9531C23.9062 5.41406 18.4805 0 11.9414 0C5.41406 0 0 5.41406 0 11.9531C0 18.4805 5.42578 23.9062 11.9531 23.9062ZM11.9531 21.9141C6.42188 21.9141 2.00391 17.4844 2.00391 11.9531C2.00391 6.42188 6.41016 1.99219 11.9414 1.99219C17.4727 1.99219 21.9141 6.42188 21.9141 11.9531C21.9141 17.4844 17.4844 21.9141 11.9531 21.9141Z" fill="#007AFF"/>
<path d="M8.12103 13.8633C8.29682 14.0508 8.53119 14.0391 8.73041 13.8398C9.51556 12.9609 10.7577 12.3984 11.953 12.4102C13.1366 12.3984 14.3905 12.9609 15.1991 13.8516C15.3866 14.0508 15.621 14.0508 15.7851 13.8633L16.7694 12.8789C16.9218 12.7383 16.9335 12.5273 16.8046 12.375C15.7382 11.0859 13.8632 10.2656 11.953 10.2656C10.0429 10.2656 8.16791 11.0859 7.1015 12.375C6.9726 12.5391 6.98432 12.7266 7.14838 12.8789L8.12103 13.8633ZM5.44916 11.1914C5.6015 11.3672 5.87103 11.3555 6.04682 11.168C7.57025 9.52734 9.63275 8.64845 11.953 8.64845C14.2733 8.64845 16.3593 9.52734 17.8944 11.1797C18.0468 11.3438 18.3046 11.3555 18.4569 11.1797L19.3358 10.2773C19.4765 10.1367 19.4882 9.93751 19.3593 9.77345C17.7772 7.82813 14.8476 6.51562 11.953 6.51562C9.05853 6.51562 6.12885 7.82813 4.54682 9.77345C4.41791 9.93751 4.42963 10.1367 4.57025 10.2773L5.44916 11.1914Z" fill="black" fill-opacity="0.85"/>
<path d="M11.9531 15.2109C12.8203 15.2109 13.5 14.5547 13.5117 13.6758C13.5234 11.2617 13.5469 8.83594 13.5703 6.43359C13.5703 5.49609 12.8086 4.83984 11.9414 4.83984C11.0742 4.83984 10.3125 5.49609 10.3125 6.43359C10.3477 8.83594 10.3594 11.2617 10.3828 13.6758C10.3945 14.5547 11.0742 15.2109 11.9531 15.2109ZM11.9414 18.3281C13.043 18.3281 13.9102 17.4492 13.9102 16.3594C13.9102 15.2812 13.043 14.4023 11.9414 14.4023C10.8516 14.4023 9.98438 15.2812 9.98438 16.3594C9.98438 17.4492 10.8516 18.3281 11.9414 18.3281Z" fill="white"/>
<path d="M11.9531 14.2617C12.293 14.2617 12.5391 14.0156 12.5508 13.6641C12.5742 11.2617 12.5859 8.83594 12.6211 6.43359C12.6211 6.04688 12.293 5.78906 11.9414 5.78906C11.5898 5.78906 11.2734 6.04688 11.2734 6.43359C11.3086 8.83594 11.332 11.2617 11.3555 13.6641C11.3672 14.0156 11.6016 14.2617 11.9531 14.2617ZM11.9414 17.3789C12.5039 17.3789 12.9609 16.9219 12.9609 16.3594C12.9609 15.8086 12.5039 15.3516 11.9414 15.3516C11.3906 15.3516 10.9219 15.7969 10.9219 16.3594C10.9219 16.9219 11.3906 17.3789 11.9414 17.3789Z" fill="black" fill-opacity="0.85"/>
</svg>
