<svg width="24" height="24" viewBox="0 0 24 24" fill="none" xmlns="http://www.w3.org/2000/svg">
<path d="M11.9531 23.9062C18.4922 23.9062 23.9062 18.4805 23.9062 11.9531C23.9062 5.41406 18.4805 0 11.9414 0C5.41406 0 0 5.41406 0 11.9531C0 18.4805 5.42578 23.9062 11.9531 23.9062ZM11.9531 21.9141C6.42188 21.9141 2.00391 17.4844 2.00391 11.9531C2.00391 6.42188 6.41016 1.99219 11.9414 1.99219C17.4727 1.99219 21.9141 6.42188 21.9141 11.9531C21.9141 17.4844 17.4844 21.9141 11.9531 21.9141Z" fill="#007AFF"/>
<path d="M5.43732 11.1914C5.58966 11.3672 5.8592 11.3555 6.03498 11.168C7.55841 9.52734 9.62091 8.64845 11.9412 8.64845C14.2615 8.64845 16.3475 9.52734 17.8826 11.1797C18.0467 11.3438 18.2928 11.3555 18.4451 11.1797L19.324 10.2773C19.4646 10.1367 19.4764 9.93751 19.3592 9.77345C17.7654 7.82813 14.8357 6.51562 11.9412 6.51562C9.05841 6.51562 6.11701 7.82813 4.53498 9.77345C4.40607 9.93751 4.42951 10.1367 4.55841 10.2773L5.43732 11.1914Z" fill="black" fill-opacity="0.85"/>
<path d="M8.10908 13.8633C8.28486 14.0508 8.51923 14.0391 8.71845 13.8398C9.50361 12.9609 10.7458 12.3984 11.9411 12.4102C13.1364 12.3984 14.3786 12.9609 15.1989 13.8516C15.3747 14.0508 15.6091 14.0508 15.7731 13.8633L16.7692 12.8789C16.9099 12.7383 16.9333 12.5273 16.7927 12.375C15.7263 11.0859 13.863 10.2656 11.9411 10.2656C10.0309 10.2656 8.15595 11.0859 7.10126 12.375C6.96064 12.5391 6.97236 12.7266 7.13642 12.8789L8.10908 13.8633Z" fill="black" fill-opacity="0.85"/>
<path d="M11.9412 17.4023C12.117 17.4023 12.2342 17.332 12.5271 17.0742L14.0975 15.5625C14.2264 15.4219 14.2498 15.2227 14.1326 15.0703C13.6639 14.4375 12.7967 14.0156 11.9412 14.0156C11.074 14.0156 10.2186 14.4492 9.73808 15.1289C9.63261 15.2578 9.66777 15.4219 9.80839 15.5625L11.367 17.0742C11.6482 17.3203 11.7654 17.4023 11.9412 17.4023Z" fill="black" fill-opacity="0.85"/>
</svg>
