<svg width="27" height="26" viewBox="0 0 27 26" fill="none" xmlns="http://www.w3.org/2000/svg">
<path d="M6.63434 16.1484C6.89215 16.3945 7.20856 16.3594 7.44293 16.1016C8.84918 14.543 11.146 13.4062 13.4898 13.418C15.857 13.4062 18.1538 14.5781 19.5835 16.1367C19.7945 16.3828 20.0874 16.3711 20.3452 16.1367L22.1616 14.332C22.3491 14.1445 22.3726 13.8867 22.1968 13.6758C20.4273 11.5078 17.146 9.87891 13.4898 9.87891C9.83356 9.87891 6.55231 11.5078 4.78277 13.6758C4.60699 13.8867 4.61871 14.1211 4.81793 14.332L6.63434 16.1484Z" fill="#007AFF"/>
<path d="M1.77132 11.25C2.00569 11.4727 2.33382 11.4727 2.55647 11.2383C5.43928 8.17969 9.23616 6.56249 13.4901 6.56249C17.7674 6.56249 21.5877 8.19141 24.4471 11.25C24.658 11.4609 24.9744 11.4492 25.2088 11.2266L26.826 9.60938C27.0369 9.39844 27.0252 9.14062 26.8612 8.94141C24.1073 5.54297 18.9276 3.04688 13.4901 3.04688C8.06428 3.04688 2.86116 5.54297 0.118972 8.94141C-0.0450907 9.14062 -0.0450907 9.39844 0.154128 9.60938L1.77132 11.25Z" fill="#007AFF"/>
<path d="M13.4903 24.2461C15.4356 24.2461 17.0059 22.6641 17.0059 20.7305C17.0059 18.7852 15.4356 17.2148 13.4903 17.2148C11.5567 17.2148 9.97461 18.7852 9.97461 20.7305C9.97461 22.6641 11.5567 24.2461 13.4903 24.2461ZM13.502 18.5977C15.0606 18.5977 16.2676 17.4258 16.291 15.8438C16.3262 11.5195 16.3614 7.18359 16.3965 2.85938C16.3965 1.17188 15.0371 0 13.4903 0C11.9434 0 10.584 1.17188 10.584 2.85938C10.6309 7.18359 10.666 11.5195 10.7129 15.8438C10.7364 17.4258 11.9434 18.5977 13.502 18.5977Z" fill="white"/>
<path d="M13.4903 22.5234C14.4864 22.5234 15.2715 21.7148 15.2715 20.7305C15.2715 19.7344 14.4864 18.9492 13.4903 18.9492C12.5059 18.9492 11.709 19.7344 11.709 20.7305C11.709 21.7148 12.5059 22.5234 13.4903 22.5234ZM13.502 16.875C14.1231 16.875 14.545 16.4648 14.5567 15.8203C14.5918 11.5078 14.627 7.17188 14.6621 2.84766C14.6621 2.17969 14.1231 1.72266 13.4903 1.72266C12.8575 1.72266 12.3184 2.17969 12.3184 2.84766C12.3653 7.17188 12.4004 11.5078 12.4473 15.8203C12.459 16.4648 12.8809 16.875 13.502 16.875Z" fill="black" fill-opacity="0.85"/>
</svg>
