<svg width="27" height="28" viewBox="0 0 27 28" fill="none" xmlns="http://www.w3.org/2000/svg">
<path d="M13.4897 23.6646C13.7475 23.6646 13.9701 23.5474 14.4272 23.1021L17.2865 20.3599C17.4623 20.1841 17.5092 19.9263 17.3451 19.7153C16.5834 18.731 15.142 17.8755 13.4897 17.8755C11.7904 17.8755 10.349 18.7661 9.58733 19.7857C9.47014 19.9732 9.51702 20.1841 9.70452 20.3599L12.5522 23.1021C13.0092 23.5357 13.2319 23.6646 13.4897 23.6646Z" fill="#007AFF"/>
<path d="M6.63434 17.2896C6.89215 17.5357 7.20856 17.5005 7.44293 17.2427C8.84918 15.6841 11.146 14.5474 13.4898 14.5591C15.857 14.5474 18.1538 15.7192 19.5835 17.2778C19.7945 17.5239 20.0874 17.5122 20.3452 17.2778L22.1616 15.4732C22.3491 15.2857 22.3726 15.0278 22.1968 14.8169C20.4273 12.6489 17.146 11.02 13.4898 11.02C9.83356 11.02 6.55231 12.6489 4.78277 14.8169C4.60699 15.0278 4.61871 15.2622 4.81793 15.4732L6.63434 17.2896Z" fill="#007AFF"/>
<path d="M1.77132 12.3911C2.00569 12.6138 2.33382 12.6138 2.55647 12.3794C5.43928 9.3208 9.23616 7.70361 13.4901 7.70361C17.7674 7.70361 21.5877 9.33252 24.4471 12.3911C24.658 12.6021 24.9744 12.5903 25.2088 12.3677L26.826 10.7505C27.0369 10.5396 27.0252 10.2817 26.8612 10.0825C24.1073 6.68408 18.9276 4.18799 13.4901 4.18799C8.06428 4.18799 2.86116 6.68408 0.118972 10.0825C-0.0450907 10.2817 -0.0450907 10.5396 0.154128 10.7505L1.77132 12.3911Z" fill="#007AFF"/>
<path d="M22.396 23.5825C23.2984 24.4732 24.7515 24.4732 25.6187 23.5591C26.4859 22.6685 26.4859 21.2622 25.607 20.3716L5.90772 0.67237C5.02882 -0.218255 3.57569 -0.229973 2.68507 0.67237C1.80616 1.55128 1.80616 3.01612 2.69679 3.88331L22.396 23.5825Z" fill="white"/>
<path d="M23.3692 22.6216C23.7207 22.9732 24.3067 22.9732 24.6465 22.6216C24.9864 22.2583 24.9981 21.6958 24.6465 21.3442L4.93555 1.6333C4.58399 1.28174 4.00977 1.28174 3.64649 1.6333C3.30664 1.97314 3.30664 2.58252 3.64649 2.91064L23.3692 22.6216Z" fill="black" fill-opacity="0.85"/>
</svg>
