<svg width="24" height="24" viewBox="0 0 24 24" fill="none" xmlns="http://www.w3.org/2000/svg">
<path d="M11.9531 23.918C18.4922 23.918 23.9062 18.5039 23.9062 11.9648C23.9062 5.4375 18.4805 0.0117188 11.9414 0.0117188C5.41406 0.0117188 0 5.4375 0 11.9648C0 18.5039 5.42578 23.918 11.9531 23.918Z" fill="#FFCC00"/>
<path d="M5.24969 11.1797L4.35907 10.2539C4.20672 10.1016 4.18328 9.90234 4.31219 9.72656C5.95281 7.71094 8.97625 6.375 11.9645 6.375C14.9411 6.375 17.9645 7.72266 19.6052 9.72656C19.7458 9.90234 19.7224 10.1016 19.57 10.2539L18.6677 11.168C18.4919 11.3555 18.2458 11.3555 18.07 11.1797C16.488 9.46875 14.3552 8.57812 11.9645 8.57812C9.56219 8.57812 7.45281 9.48047 5.87078 11.168C5.68328 11.3672 5.40203 11.3789 5.24969 11.1797Z" fill="black" fill-opacity="0.85"/>
<path d="M8.01534 13.9453L6.99581 12.9141C6.85519 12.7617 6.83175 12.5742 6.96066 12.4102C8.06222 11.0859 9.9841 10.2305 11.9645 10.2305C13.9333 10.2305 15.8552 11.0742 16.9567 12.4102C17.0974 12.5625 17.0856 12.7734 16.9333 12.9141L15.902 13.9453C15.7263 14.1328 15.4919 14.1445 15.3044 13.9336C14.4724 13.0195 13.1833 12.4336 11.9645 12.4453C10.7224 12.4336 9.45675 13.0195 8.63644 13.9219C8.43722 14.1562 8.20284 14.1328 8.01534 13.9453Z" fill="black" fill-opacity="0.85"/>
<path d="M11.965 17.5898C11.7775 17.5898 11.6369 17.5195 11.3674 17.25L9.75023 15.6797C9.62132 15.5508 9.58617 15.3867 9.67992 15.2344C10.1838 14.543 11.0744 14.0977 11.965 14.0977C12.844 14.0977 13.7346 14.5312 14.215 15.1758C14.344 15.3398 14.3088 15.5508 14.1799 15.6797L12.5744 17.25C12.2814 17.5312 12.1525 17.5898 11.965 17.5898Z" fill="black" fill-opacity="0.85"/>
</svg>
