<svg width="22" height="22" viewBox="0 0 22 22" fill="none" xmlns="http://www.w3.org/2000/svg">
<path d="M3.67969 21.5977H17.8945C20.3555 21.5977 21.5742 20.3789 21.5742 17.9648V3.65625C21.5742 1.24219 20.3555 0.0234375 17.8945 0.0234375H3.67969C1.23047 0.0234375 0 1.23047 0 3.65625V17.9648C0 20.3906 1.23047 21.5977 3.67969 21.5977ZM3.70312 19.7109C2.53125 19.7109 1.88672 19.0898 1.88672 17.8711V3.75C1.88672 2.53125 2.53125 1.91016 3.70312 1.91016H17.8711C19.0312 1.91016 19.6875 2.53125 19.6875 3.75V17.8711C19.6875 19.0898 19.0312 19.7109 17.8711 19.7109H3.70312Z" fill="#007AFF"/>
<path d="M4.28888 10.0312C4.44123 10.207 4.71076 10.1953 4.88654 10.0078C6.40998 8.36719 8.47248 7.48828 10.7928 7.48828C13.1248 7.48828 15.199 8.36719 16.7342 10.0195C16.8982 10.1836 17.156 10.1953 17.3084 10.0195L18.1756 9.11719C18.3162 8.97656 18.3279 8.77734 18.2107 8.61328C16.6287 6.66797 13.6873 5.35547 10.7928 5.35547C7.90998 5.35547 4.96857 6.66797 3.38654 8.61328C3.25763 8.77734 3.28107 8.97656 3.40998 9.11719L4.28888 10.0312Z" fill="black" fill-opacity="0.85"/>
<path d="M6.96064 12.7031C7.13642 12.8906 7.37079 12.8789 7.57001 12.6797C8.35517 11.8008 9.59736 11.2383 10.7927 11.25C11.988 11.2383 13.2302 11.8008 14.0505 12.6914C14.2263 12.8906 14.4606 12.8906 14.6247 12.7031L15.6208 11.7188C15.7614 11.5781 15.7849 11.3672 15.6442 11.2148C14.5778 9.92578 12.7145 9.10547 10.7927 9.10547C8.88251 9.10547 7.01923 9.92578 5.95282 11.2148C5.8122 11.3789 5.82392 11.5664 5.98798 11.7188L6.96064 12.7031Z" fill="black" fill-opacity="0.85"/>
<path d="M10.7928 16.2422C10.9686 16.2422 11.0857 16.1719 11.3787 15.9141L12.949 14.4023C13.0779 14.2617 13.1014 14.0625 12.9842 13.9102C12.5154 13.2773 11.6482 12.8555 10.7928 12.8555C9.92558 12.8555 9.08183 13.2891 8.58964 13.9688C8.48418 14.0977 8.51933 14.2617 8.65996 14.4023L10.2186 15.9141C10.4998 16.1602 10.617 16.2422 10.7928 16.2422Z" fill="black" fill-opacity="0.85"/>
</svg>
