<svg width="36" height="25" viewBox="0 0 36 25" fill="none" xmlns="http://www.w3.org/2000/svg">
<path d="M1.79297 21.8203V16.9922C1.79297 16.8867 1.875 16.793 1.99219 16.793L7.78125 16.6523V21.6328L2.03906 22.0312C1.89844 22.043 1.79297 21.9844 1.79297 21.8203ZM1.79297 14.7773V9.52732C1.79297 9.41014 1.875 9.3281 1.99219 9.3281L7.78125 9.46873V14.8359L1.99219 14.9766C1.875 14.9766 1.79297 14.8828 1.79297 14.7773ZM1.79297 7.31248V2.47264C1.79297 2.32029 1.89844 2.2617 2.03906 2.27342L7.78125 2.67186V7.65232L1.99219 7.5117C1.875 7.5117 1.79297 7.41795 1.79297 7.31248ZM27.3164 21.6328V16.6523L33.1055 16.793C33.2227 16.793 33.3047 16.8867 33.3047 16.9922V21.8203C33.3047 21.9844 33.1992 22.043 33.0586 22.0312L27.3164 21.6328ZM27.3164 14.8359V9.46873L33.0938 9.3281C33.2227 9.3281 33.3047 9.41014 33.3047 9.52732V14.7773C33.3047 14.8828 33.2227 14.9766 33.0938 14.9766L27.3164 14.8359ZM27.3164 7.65232V2.67186L33.0586 2.27342C33.1992 2.2617 33.3047 2.32029 33.3047 2.47264V7.31248C33.3047 7.41795 33.2227 7.5117 33.1055 7.5117L27.3164 7.65232Z" fill="#FFCC00"/>
<path d="M7.78125 23.8945H9.66797V2.20312C9.66797 2.01562 9.79688 1.88672 9.97266 1.88672H25.125C25.3008 1.88672 25.418 2.01562 25.418 2.20312V23.8945H27.3164V23.3203L33.4453 23.8359C34.5586 23.9414 35.0977 23.1914 35.0977 22.2305V2.0625C35.0977 1.10156 34.5586 0.363281 33.4453 0.457031L27.0469 0.996094L27.0234 0.785156C26.7656 0.292969 26.1914 0 25.5117 0H9.58594C8.88281 0 8.33203 0.292969 8.07422 0.785156L8.05078 0.996094L1.64062 0.457031C0.539062 0.363281 0 1.10156 0 2.0625V22.2305C0 23.1914 0.539062 23.9414 1.64062 23.8359L7.78125 23.3203V23.8945ZM1.79297 21.8203V16.9922C1.79297 16.8867 1.875 16.793 1.99219 16.793L7.78125 16.6523V21.6328L2.03906 22.0312C1.89844 22.043 1.79297 21.9844 1.79297 21.8203ZM1.79297 14.7773V9.52734C1.79297 9.41016 1.875 9.32812 1.99219 9.32812L7.78125 9.46875V14.8359L1.99219 14.9766C1.875 14.9766 1.79297 14.8828 1.79297 14.7773ZM1.79297 7.3125V2.47266C1.79297 2.32031 1.89844 2.26172 2.03906 2.27344L7.78125 2.67188V7.65234L1.99219 7.51172C1.875 7.51172 1.79297 7.41797 1.79297 7.3125ZM27.3164 21.6328V16.6523L33.1055 16.793C33.2227 16.793 33.3047 16.8867 33.3047 16.9922V21.8203C33.3047 21.9844 33.1992 22.043 33.0586 22.0312L27.3164 21.6328ZM27.3164 14.8359V9.46875L33.0938 9.32812C33.2227 9.32812 33.3047 9.41016 33.3047 9.52734V14.7773C33.3047 14.8828 33.2227 14.9766 33.0938 14.9766L27.3164 14.8359ZM27.3164 7.65234V2.67188L33.0586 2.27344C33.1992 2.26172 33.3047 2.32031 33.3047 2.47266V7.3125C33.3047 7.41797 33.2227 7.51172 33.1055 7.51172L27.3164 7.65234ZM6.21094 23.8945C6.21094 24.4219 6.64453 24.8672 7.18359 24.8672H27.9375C28.4766 24.8672 28.9219 24.4219 28.9219 23.8945C28.9219 23.3555 28.4766 22.9219 27.9375 22.9219H7.18359C6.64453 22.9219 6.21094 23.3555 6.21094 23.8945ZM17.0273 23.8945H18.5625V0.972656H17.0273V23.8945Z" fill="black" fill-opacity="0.85"/>
</svg>
