<svg width="24" height="25" viewBox="0 0 24 25" fill="none" xmlns="http://www.w3.org/2000/svg">
<path d="M3.46875 11.4844V2.20312C3.46875 2.01562 3.58594 1.88672 3.76172 1.88672H11.1914V11.4844H3.46875ZM12.7266 11.4844V1.88672H20.1445C20.3203 1.88672 20.4375 2.01562 20.4375 2.20312V11.4844H12.7266ZM3.46875 22.9219V13.3711H11.1914V22.9219H3.46875ZM12.7266 22.9219V13.3711H20.4375V22.9219H12.7266Z" fill="#FFCC00"/>
<path d="M0 23.8945C0 24.4219 0.445312 24.8672 0.972656 24.8672H22.9688C23.4961 24.8672 23.9414 24.4219 23.9414 23.8945C23.9414 23.3555 23.4961 22.9219 22.9688 22.9219H22.3359V1.74609C22.3359 0.703125 21.6094 0 20.5312 0H3.375C2.29688 0 1.57031 0.703125 1.57031 1.74609V22.9219H0.972656C0.445312 22.9219 0 23.3555 0 23.8945ZM3.46875 11.4844V2.20312C3.46875 2.01562 3.58594 1.88672 3.76172 1.88672H11.1914V11.4844H3.46875ZM12.7266 11.4844V1.88672H20.1445C20.3203 1.88672 20.4375 2.01562 20.4375 2.20312V11.4844H12.7266ZM3.46875 22.9219V13.3711H11.1914V22.9219H3.46875ZM12.7266 22.9219V13.3711H20.4375V22.9219H12.7266Z" fill="black" fill-opacity="0.85"/>
</svg>
