<svg width="31" height="20" viewBox="0 0 31 20" fill="none" xmlns="http://www.w3.org/2000/svg">
<path d="M3.46875 8.77734V2.21484C3.46875 2.02734 3.58594 1.88672 3.76172 1.88672H14.3555V8.77734H3.46875ZM15.8906 8.77734V1.88672H26.4961C26.6719 1.88672 26.7891 2.02734 26.7891 2.21484V8.77734H15.8906Z" fill="#FFCC00"/>
<path d="M0 18.5156C0 19.0547 0.445312 19.4883 0.972656 19.4883H29.3086C29.8477 19.4883 30.2812 19.0547 30.2812 18.5156C30.2812 17.9766 29.8477 17.543 29.3086 17.543H28.6758V1.74609C28.6758 0.703125 27.9609 0 26.8711 0H3.375C2.29688 0 1.57031 0.703125 1.57031 1.74609V17.543H0.972656C0.445312 17.543 0 17.9766 0 18.5156ZM3.46875 8.77734V2.21484C3.46875 2.02734 3.58594 1.88672 3.76172 1.88672H14.3555V8.77734H3.46875ZM15.8906 8.77734V1.88672H26.4961C26.6719 1.88672 26.7891 2.02734 26.7891 2.21484V8.77734H15.8906ZM3.46875 17.543V10.7227H26.7891V17.543H3.46875Z" fill="black" fill-opacity="0.85"/>
</svg>
