<svg width="24" height="24" viewBox="0 0 24 24" fill="none" xmlns="http://www.w3.org/2000/svg">
<path d="M11.9531 23.9062C18.4922 23.9062 23.9062 18.4805 23.9062 11.9531C23.9062 5.41406 18.4805 0 11.9414 0C5.41406 0 0 5.41406 0 11.9531C0 18.4805 5.42578 23.9062 11.9531 23.9062ZM11.9531 21.9141C6.42188 21.9141 2.00391 17.4844 2.00391 11.9531C2.00391 6.42188 6.41016 1.99219 11.9414 1.99219C17.4727 1.99219 21.9141 6.42188 21.9141 11.9531C21.9141 17.4844 17.4844 21.9141 11.9531 21.9141Z" fill="#007AFF"/>
<path d="M5.02747 10.6055C6.02357 10.2773 7.05482 10.1133 8.06263 10.1133C9.36341 10.1133 10.3243 10.3242 11.5782 10.3242C12.9142 10.3242 13.7813 9.39844 13.7813 8.20312C13.7813 6.97266 12.8204 6.09375 11.672 6.09375C10.7931 6.09375 10.0313 6.63281 9.72669 7.35938C9.59779 7.64062 9.65638 8.01562 9.98451 8.16797C10.2657 8.30859 10.6173 8.20312 10.7931 7.85156C10.9454 7.52344 11.2618 7.27734 11.672 7.27734C12.1876 7.27734 12.586 7.60547 12.586 8.20312C12.586 8.78906 12.211 9.14062 11.5782 9.14062C10.3946 9.14062 9.43372 8.91797 8.06263 8.91797C6.90247 8.91797 5.71888 9.14062 4.66419 9.48047C4.27747 9.58594 4.13685 9.91406 4.24232 10.2305C4.32435 10.5469 4.65247 10.7344 5.02747 10.6055ZM16.0665 13.9336C17.8009 13.9336 19.0313 12.8203 19.0313 11.2734C19.0313 9.76172 17.8595 8.64844 16.4063 8.64844C15.0587 8.64844 14.0392 9.58594 13.8751 10.8281C13.8048 11.2031 14.0392 11.5078 14.3556 11.543C14.6837 11.5898 14.9767 11.3906 15.0587 10.9805C15.1642 10.3008 15.7032 9.84375 16.4063 9.84375C17.2149 9.84375 17.836 10.4062 17.836 11.2734C17.836 12.1641 17.1681 12.7266 16.0665 12.7266C13.9454 12.7266 11.6134 11.4961 8.74232 11.4961C7.27747 11.4961 5.9181 11.7539 4.65247 12.1875C4.28919 12.3164 4.13685 12.6445 4.24232 12.9492C4.32435 13.2656 4.65247 13.4531 5.03919 13.3242C6.17591 12.8906 7.34779 12.6914 8.74232 12.6914C11.5431 12.6914 13.6524 13.9336 16.0665 13.9336ZM11.5782 18.9141C12.7384 18.9141 13.6524 18.0469 13.6524 16.8164C13.6524 15.0469 11.8595 14.0742 8.66029 14.0742C7.33607 14.0742 5.87122 14.332 4.64075 14.7539C4.30091 14.8945 4.12513 15.2109 4.24232 15.5039C4.32435 15.8203 4.65247 16.0312 5.03919 15.9023C6.15247 15.4922 7.38294 15.2578 8.66029 15.2578C11.2032 15.2578 12.4571 15.8672 12.4571 16.8164C12.4571 17.4023 12.0821 17.7188 11.5782 17.7188C11.0743 17.7188 10.8048 17.4258 10.711 16.8633C10.6642 16.5586 10.4181 16.2656 10.0431 16.3008C9.62122 16.3242 9.45716 16.6992 9.50404 17.0391C9.63294 18.0703 10.4181 18.9141 11.5782 18.9141ZM16.4063 7.78125C16.5939 7.78125 16.7228 7.60547 16.711 7.41797L16.6759 6.71484L17.2501 7.11328C17.4024 7.21875 17.6251 7.17188 17.7189 7.01953C17.836 6.87891 17.7774 6.63281 17.5665 6.53906L16.9454 6.23438L17.5665 5.90625C17.7657 5.80078 17.8126 5.61328 17.7306 5.44922C17.6485 5.28516 17.4024 5.25 17.2501 5.34375L16.6759 5.75391L16.711 5.0625C16.7228 4.85156 16.5939 4.6875 16.4063 4.6875C16.1954 4.6875 16.0548 4.85156 16.0665 5.05078L16.1134 5.75391L15.5157 5.34375C15.3634 5.25 15.1524 5.27344 15.0704 5.44922C14.9767 5.58984 15.0118 5.80078 15.211 5.91797L15.8321 6.23438L15.211 6.53906C15.0001 6.63281 14.9767 6.85547 15.047 7.00781C15.129 7.18359 15.3634 7.21875 15.5157 7.11328L16.1134 6.71484L16.0782 7.41797C16.0665 7.60547 16.1954 7.78125 16.4063 7.78125ZM16.172 17.2969C16.2892 17.2969 16.3829 17.1797 16.3712 17.0625L16.3478 16.7461L16.6056 16.9453C16.6876 17.0156 16.8634 16.9688 16.9103 16.8867C16.9923 16.793 16.9689 16.6055 16.8282 16.5469L16.5235 16.418L16.8282 16.2656C16.9571 16.1953 16.9689 16.0664 16.922 15.9727C16.8751 15.8555 16.6993 15.8203 16.6056 15.8789L16.3478 16.1016L16.3712 15.7734C16.3829 15.6328 16.2892 15.5391 16.172 15.5391C16.0313 15.5391 15.9259 15.6328 15.9376 15.7617L15.9728 16.1016L15.6915 15.8789C15.6095 15.8203 15.4571 15.8438 15.3985 15.9727C15.3517 16.043 15.3399 16.1953 15.4923 16.2773L15.7853 16.418L15.4923 16.5469C15.3399 16.6172 15.3517 16.7695 15.3868 16.8633C15.422 16.9805 15.6095 17.0156 15.6915 16.9453L15.9728 16.7461L15.9493 17.0625C15.9376 17.1797 16.0313 17.2969 16.172 17.2969Z" fill="black" fill-opacity="0.85"/>
</svg>
