<svg width="25" height="25" viewBox="0 0 25 25" fill="none" xmlns="http://www.w3.org/2000/svg">
<path d="M2.07114 12.6562L2.71567 8.23828H11.118L11.0945 13.0781H2.44614C2.20005 13.0781 2.03599 12.8906 2.07114 12.6562ZM2.93833 6.64453L3.57114 2.25C3.6063 2.02734 3.72349 1.88672 3.93442 1.88672H11.1766L11.1297 6.64453H2.93833ZM12.8875 1.88672H20.1649C20.3758 1.88672 20.493 2.02734 20.5281 2.25L21.1609 6.64453H12.9227L12.8875 1.88672ZM12.9344 8.23828H21.3836L22.0281 12.6562C22.0633 12.8906 21.8992 13.0781 21.6531 13.0781H12.9695L12.9344 8.23828Z" fill="#FFCC00"/>
<path d="M1.53234 14.9648H22.5675C23.6105 14.9648 24.255 14.1445 24.0675 12.9258L22.4152 1.78125C22.2511 0.714844 21.6417 0 20.5402 0H3.55968C2.45812 0 1.84875 0.714844 1.68468 1.78125L0.0323395 12.9258C-0.155161 14.1445 0.489371 14.9648 1.53234 14.9648ZM2.0714 12.6562L2.71593 8.23828H11.1183L11.0948 13.0781H2.4464C2.20031 13.0781 2.03625 12.8906 2.0714 12.6562ZM2.93859 6.64453L3.5714 2.25C3.60656 2.02734 3.72375 1.88672 3.93468 1.88672H11.1769L11.13 6.64453H2.93859ZM12.8878 1.88672H20.1652C20.3761 1.88672 20.4933 2.02734 20.5284 2.25L21.1612 6.64453H12.923L12.8878 1.88672ZM12.9347 8.23828H21.3839L22.0284 12.6562C22.0636 12.8906 21.8995 13.0781 21.6534 13.0781H12.9698L12.9347 8.23828ZM1.57921 14.0039V23.8945H3.46593V14.0039H1.57921ZM20.4464 14.0039V23.8945H22.3331V14.0039H20.4464ZM0.00890209 23.8945C0.00890209 24.4219 0.442496 24.8672 0.981558 24.8672H22.9659C23.505 24.8672 23.9503 24.4219 23.9503 23.8945C23.9503 23.3555 23.505 22.9219 22.9659 22.9219H0.981558C0.442496 22.9219 0.00890209 23.3555 0.00890209 23.8945Z" fill="black" fill-opacity="0.85"/>
</svg>
