<svg width="33" height="29" viewBox="0 0 33 29" fill="none" xmlns="http://www.w3.org/2000/svg">
<path d="M16.3937 22.0547C18.6086 22.0547 21.175 22.7227 23.1086 23.7305C23.6594 24.0234 24.2687 23.9062 24.6437 23.4258L32.2961 13.6641C33.0695 12.6797 32.9406 11.6016 31.9562 10.8398C28.7804 8.37891 22.6867 6.50391 16.3937 6.49219C10.1008 6.50391 4.01873 8.37891 0.84295 10.8398C-0.141425 11.6016 -0.270332 12.6797 0.491387 13.6641L8.15545 23.4258C8.53045 23.9062 9.13982 24.0234 9.69061 23.7305C11.6242 22.7227 14.1789 22.0547 16.3937 22.0547ZM16.3937 20.0977C14.3312 20.0977 11.9406 20.6367 9.62029 21.5977C9.3742 21.6797 9.30389 21.6797 9.09295 21.4336L2.42498 12.9375C2.21404 12.668 2.26092 12.4805 2.53045 12.293C6.32732 9.85547 11.1789 8.50781 16.3937 8.47266C21.6086 8.50781 26.4601 9.85547 30.257 12.293C30.5383 12.4805 30.5734 12.668 30.3742 12.9375L23.6945 21.4336C23.4953 21.6797 23.4133 21.6797 23.1672 21.5977C20.8586 20.6367 18.4679 20.0977 16.3937 20.0977Z" fill="#007AFF"/>
<path d="M16.3945 18.5859C17.7891 18.5859 18.9375 17.4375 18.9375 16.043V5.96483C18.9375 4.5703 17.7891 3.42188 16.3945 3.42188C15 3.42188 13.8516 4.5703 13.8516 5.96483V16.043C13.8516 17.4375 15 18.5859 16.3945 18.5859Z" fill="white"/>
<path d="M16.4046 16.9805C16.9203 16.9805 17.3421 16.5586 17.3421 16.043V13.0547C17.3421 12.5391 16.9203 12.1055 16.4046 12.1055C15.8773 12.1055 15.4554 12.5391 15.4554 13.0547V16.043C15.4554 16.5586 15.8773 16.9805 16.4046 16.9805ZM16.4046 10.5352C16.9203 10.5352 17.3421 10.1016 17.3421 9.58594V6.59766C17.3421 6.08203 16.9203 5.66016 16.4046 5.66016C15.8773 5.66016 15.4554 6.08203 15.4554 6.59766V9.58594C15.4554 10.1016 15.8773 10.5352 16.4046 10.5352ZM3.56088 4.01952C4.00619 4.27733 4.49838 4.14844 4.84994 3.73828C5.48275 2.97656 6.29135 2.39061 7.21713 2.07421C7.72104 1.88671 8.04916 1.45311 7.93197 0.925776C7.81479 0.339839 7.24057 0.0703075 6.54916 0.304683C5.34213 0.714839 4.20541 1.52343 3.33822 2.58983C2.92807 3.10546 3.06869 3.72655 3.56088 4.01952ZM15.0687 3.99608C15.5492 3.70311 15.6664 3.09374 15.2562 2.57811C14.389 1.51171 13.2406 0.714839 12.057 0.316401C11.3304 0.0585888 10.7796 0.386714 10.6742 0.949214C10.5804 1.46483 10.8851 1.88671 11.389 2.07421C12.3031 2.39061 13.1117 2.97656 13.7445 3.72656C14.1195 4.17188 14.6117 4.2539 15.0687 3.99608ZM17.7289 3.99608C18.1859 4.2539 18.6781 4.17188 19.0531 3.72656C19.6859 2.97656 20.4945 2.39061 21.4086 2.07421C21.9125 1.88671 22.2171 1.46483 22.1234 0.949214C22.0179 0.386714 21.4671 0.0585888 20.7406 0.316401C19.557 0.714839 18.4086 1.51171 17.5414 2.57811C17.1312 3.09374 17.2484 3.70311 17.7289 3.99608ZM29.2367 4.01952C29.7289 3.72655 29.8695 3.10546 29.4593 2.58983C28.5921 1.52343 27.4554 0.714839 26.2484 0.304683C25.557 0.0703075 24.9828 0.339839 24.8656 0.925776C24.7484 1.45311 25.0648 1.88671 25.5804 2.07421C26.4945 2.39061 27.3148 2.97656 27.9476 3.73828C28.2992 4.14844 28.7914 4.27733 29.2367 4.01952Z" fill="black" fill-opacity="0.85"/>
<path d="M16.4055 28.9336C17.8352 28.9336 19.0423 27.7383 19.0423 26.2969C19.0423 24.8438 17.847 23.6484 16.4055 23.6484C14.9524 23.6484 13.7571 24.8438 13.7571 26.2969C13.7571 27.75 14.9407 28.9336 16.4055 28.9336ZM16.4055 27.375C15.7962 27.375 15.3157 26.8945 15.3157 26.2969C15.3157 25.6875 15.7962 25.1836 16.4055 25.1836C16.9915 25.1836 17.4954 25.6992 17.4954 26.2969C17.4954 26.8945 16.9915 27.375 16.4055 27.375ZM16.3352 24.293L5.76494 6.1289C5.50713 5.6953 4.96807 5.51952 4.45244 5.78905C3.97198 6.03515 3.85479 6.6328 4.12432 7.07811L14.6595 25.1836L16.3352 24.293Z" fill="black" fill-opacity="0.85"/>
</svg>
