<svg width="24" height="24" viewBox="0 0 24 24" fill="none" xmlns="http://www.w3.org/2000/svg">
<path d="M11.9531 23.918C18.4922 23.918 23.9062 18.5039 23.9062 11.9648C23.9062 5.4375 18.4805 0.0117188 11.9414 0.0117188C5.41406 0.0117188 0 5.4375 0 11.9648C0 18.5039 5.42578 23.918 11.9531 23.918Z" fill="#FFCC00"/>
<path d="M5.27321 10.0195C4.88649 10.1367 4.54665 9.94922 4.46461 9.62109C4.34743 9.30469 4.49977 8.95312 4.89821 8.84766C5.98805 8.50781 7.2068 8.27344 8.40211 8.27344C9.80836 8.27344 10.8045 8.49609 12.0232 8.49609C12.6678 8.49609 13.0545 8.13281 13.0545 7.53516C13.0545 6.92578 12.6443 6.57422 12.117 6.57422C11.6951 6.57422 11.367 6.83203 11.2146 7.17188C11.0271 7.54688 10.6639 7.64062 10.3709 7.48828C10.031 7.33594 9.97243 6.94922 10.1131 6.66797C10.4295 5.91797 11.2146 5.35547 12.117 5.35547C13.3006 5.35547 14.2967 6.26953 14.2967 7.53516C14.2967 8.77734 13.3943 9.71484 12.0232 9.71484C10.7342 9.71484 9.73805 9.51562 8.40211 9.51562C7.35915 9.51562 6.30446 9.66797 5.27321 10.0195ZM16.6521 13.4414C14.156 13.4414 11.9881 12.1641 9.10524 12.1641C7.67555 12.1641 6.4568 12.3633 5.28493 12.8086C4.88649 12.9492 4.54665 12.7617 4.46461 12.4219C4.34743 12.1172 4.51149 11.7773 4.88649 11.6367C6.18727 11.1914 7.59352 10.9219 9.10524 10.9219C12.0584 10.9219 14.4607 12.1992 16.6521 12.1992C17.7771 12.1992 18.4686 11.625 18.4686 10.7109C18.4686 9.80859 17.824 9.22266 16.992 9.22266C16.2771 9.22266 15.7146 9.69141 15.6092 10.4062C15.5271 10.8164 15.2225 11.0391 14.8826 10.9922C14.5545 10.9453 14.3084 10.6406 14.3904 10.2305C14.5545 8.96484 15.6092 7.99219 16.992 7.99219C18.492 7.99219 19.699 9.14062 19.699 10.7109C19.699 12.293 18.4334 13.4414 16.6521 13.4414ZM12.0232 18.5742C10.8279 18.5742 10.0076 17.7188 9.87868 16.6406C9.8318 16.3008 9.99586 15.9141 10.4412 15.8906C10.8279 15.8555 11.0857 16.1602 11.1326 16.4648C11.2264 17.0508 11.5076 17.3555 12.0232 17.3555C12.5389 17.3555 12.9256 17.0273 12.9256 16.418C12.9256 15.4453 11.6365 14.8242 9.01149 14.8242C7.69899 14.8242 6.43336 15.0586 5.28493 15.4688C4.88649 15.6094 4.54665 15.3984 4.46461 15.0703C4.33571 14.7656 4.52321 14.4258 4.87477 14.2969C6.14039 13.8633 7.65211 13.5938 9.01149 13.5938C12.3162 13.5938 14.156 14.5898 14.156 16.418C14.156 17.6953 13.2186 18.5742 12.0232 18.5742Z" fill="black" fill-opacity="0.85"/>
</svg>
