<svg width="28" height="29" viewBox="0 0 28 29" fill="none" xmlns="http://www.w3.org/2000/svg">
<path d="M3.57422 21.8438H24.0938C26.4727 21.8438 27.668 20.6602 27.668 18.3164V10.2305C27.668 7.89844 26.4727 6.70312 24.0938 6.70312H3.57422C1.20703 6.70312 0 7.88672 0 10.2305V18.3164C0 20.6602 1.20703 21.8438 3.57422 21.8438ZM1.88672 18.2109V10.3359C1.88672 9.17579 2.48438 8.58984 3.59766 8.58984H24.0703C25.1602 8.58984 25.7812 9.17579 25.7812 10.3359V18.2109C25.7812 19.3711 25.1602 19.957 24.0703 19.957H3.59766C2.48438 19.957 1.88672 19.3711 1.88672 18.2109Z" fill="#007AFF"/>
<path d="M13.8281 17.7305C15.2227 17.7305 16.3828 16.582 16.3828 15.1875V5.85938C16.3828 4.46484 15.2227 3.30469 13.8281 3.30469C12.4453 3.30469 11.2852 4.46484 11.2852 5.85938V15.1875C11.2852 16.582 12.4453 17.7305 13.8281 17.7305Z" fill="white"/>
<path d="M1.47605 3.85548C1.92137 4.13673 2.42527 4.00782 2.76511 3.59767C3.38621 2.8711 4.14793 2.3086 5.02683 2.01563C5.53074 1.8047 5.84715 1.3711 5.74168 0.855475C5.61277 0.269537 5.03855 -0.0117127 4.35887 0.234381C3.19871 0.609381 2.09715 1.40626 1.26511 2.43751C0.831517 2.94142 0.99558 3.57423 1.47605 3.85548ZM12.5737 3.83204C13.0542 3.55079 13.1597 2.9297 12.7729 2.42579C11.9292 1.39454 10.8276 0.609381 9.67918 0.2461C8.95261 -0.0234314 8.40183 0.316412 8.28465 0.878912C8.21433 1.38282 8.49558 1.8047 9.01121 2.01563C9.86668 2.3086 10.6401 2.8711 11.2495 3.58595C11.6128 4.03126 12.105 4.10157 12.5737 3.83204ZM15.0933 3.83204C15.5503 4.10157 16.0425 4.03126 16.4175 3.58595C17.0151 2.8711 17.7886 2.3086 18.6557 2.01563C19.1714 1.8047 19.4526 1.38282 19.3823 0.878912C19.2651 0.316412 18.7143 -0.0234314 17.9878 0.2461C16.8393 0.609381 15.7261 1.39454 14.894 2.42579C14.5073 2.9297 14.6011 3.55079 15.0933 3.83204ZM26.1909 3.85548C26.6714 3.57423 26.8354 2.94142 26.4018 2.43751C25.5698 1.40626 24.4683 0.609381 23.3081 0.234381C22.6284 -0.0117127 22.0542 0.269537 21.9253 0.855475C21.8081 1.3711 22.1362 1.8047 22.6401 2.01563C23.519 2.3086 24.2807 2.8711 24.9018 3.59767C25.2417 4.00782 25.7456 4.13673 26.1909 3.85548ZM13.8276 9.93751C14.3433 9.93751 14.7768 9.51563 14.7768 9.00001V6.1172C14.7768 5.60157 14.3433 5.16798 13.8276 5.16798C13.3237 5.16798 12.8784 5.60157 12.8784 6.1172V9.00001C12.8784 9.51563 13.3237 9.93751 13.8276 9.93751ZM13.8276 16.1367C14.3433 16.1367 14.7768 15.7031 14.7768 15.1875V12.3164C14.7768 11.8008 14.3433 11.3555 13.8276 11.3555C13.3237 11.3555 12.8784 11.8008 12.8784 12.3164V15.1875C12.8784 15.7031 13.3237 16.1367 13.8276 16.1367Z" fill="black" fill-opacity="0.85"/>
<path d="M13.8047 28.0195C15.2109 28.0195 16.3945 26.8477 16.3945 25.4414C16.3945 24.0234 15.2227 22.8633 13.8047 22.8633C12.4102 22.8633 11.2383 24.0234 11.2383 25.4414C11.2383 26.8594 12.3984 28.0195 13.8047 28.0195ZM13.8047 26.4375C13.2539 26.4375 12.8086 25.9922 12.8086 25.4414C12.8086 24.8789 13.2539 24.4219 13.8047 24.4219C14.3672 24.4219 14.8242 24.8789 14.8242 25.4414C14.8242 25.9922 14.3672 26.4375 13.8047 26.4375ZM12.1289 24.4336L13.8164 23.5547L3.33983 5.57812C3.09374 5.14453 2.5664 4.98047 2.03905 5.22656C1.55858 5.48438 1.45311 6.08203 1.71093 6.52734L12.1289 24.4336Z" fill="black" fill-opacity="0.85"/>
</svg>
