<svg width="27" height="24" viewBox="0 0 27 24" fill="none" xmlns="http://www.w3.org/2000/svg">
<path d="M2.22473 13.1367L4.62707 8.96484H11.9982L8.90442 14.3906H2.93957C2.0841 14.3906 1.80285 13.8867 2.22473 13.1367ZM5.68176 7.13672L8.35363 2.47266C8.59973 2.05078 8.82238 1.91016 9.27942 1.91016H16.0412L13.0646 7.13672H5.68176ZM11.049 14.3906L14.1427 8.96484H21.2912L18.5021 13.8398C18.2677 14.2617 18.0333 14.3906 17.5646 14.3906H11.049ZM15.1974 7.13672L18.1622 1.91016H23.9162C24.7599 1.91016 25.0412 2.4375 24.6193 3.17578L22.3576 7.13672H15.1974Z" fill="#FFCC00"/>
<path d="M0.408141 12.6328C-0.552796 14.2969 0.255798 15.9844 2.0722 16.2422L2.42377 16.2539L1.26361 20.4375C0.79486 22.1016 1.63861 23.2148 3.34955 23.2148H19.2285C20.3066 23.2148 21.0917 22.582 21.3847 21.5391L26.623 3.32812C27.162 1.45312 26.2831 0.0234375 24.3261 0.0234375H9.24408C7.6972 0.0234375 7.27533 0.621094 6.5722 1.83984L0.408141 12.6328ZM2.22455 13.1367L4.62689 8.96484H11.998L8.90424 14.3906H2.93939C2.08392 14.3906 1.80267 13.8867 2.22455 13.1367ZM5.68158 7.13672L8.35345 2.47266C8.59955 2.05078 8.8222 1.91016 9.27924 1.91016H16.041L13.0644 7.13672H5.68158ZM11.0488 14.3906L14.1425 8.96484H21.291L18.5019 13.8398C18.2675 14.2617 18.0331 14.3906 17.5644 14.3906H11.0488ZM15.1972 7.13672L18.162 1.91016H23.916C24.7597 1.91016 25.041 2.4375 24.6191 3.17578L22.3574 7.13672H15.1972ZM3.13861 20.6016L4.34564 16.2773H17.5995C19.1699 16.2773 19.5683 15.6797 20.2714 14.4727L22.7792 10.043L19.7206 20.5781C19.58 21.0469 19.2519 21.3164 18.8066 21.3164H3.71283C3.23236 21.3164 3.0097 21.0703 3.13861 20.6016ZM18.6894 22.5469L20.3769 21.6914L17.6113 15.0938L15.9003 15.8906L18.6894 22.5469Z" fill="black" fill-opacity="0.85"/>
</svg>
