<svg width="21" height="25" viewBox="0 0 21 25" fill="none" xmlns="http://www.w3.org/2000/svg">
<path d="M0 22.4766C0 23.9062 0.984375 24.8672 2.44922 24.8672H17.6016C19.0781 24.8672 20.0508 23.9062 20.0508 22.4766V2.39062C20.0508 0.960938 19.0781 0 17.6016 0H2.44922C0.984375 0 0 0.960938 0 2.39062V22.4766ZM1.88672 22.3594V2.50781C1.88672 2.13281 2.13281 1.88672 2.48438 1.88672H17.5664C17.9297 1.88672 18.1641 2.13281 18.1641 2.50781V22.3594C18.1641 22.7344 17.9297 22.9805 17.5664 22.9805H2.48438C2.13281 22.9805 1.88672 22.7344 1.88672 22.3594Z" fill="#007AFF"/>
<path d="M3.65625 7.25391H16.4062C16.6289 7.25391 16.8047 7.07812 16.8047 6.86719V3.64453C16.8047 3.42188 16.6289 3.24609 16.4062 3.24609H3.65625C3.43359 3.24609 3.25781 3.42188 3.25781 3.64453V6.86719C3.25781 7.07812 3.43359 7.25391 3.65625 7.25391ZM8.25 5.8125C7.91016 5.8125 7.67578 5.58984 7.67578 5.25C7.67578 4.91016 7.91016 4.6875 8.25 4.6875H11.8125C12.1523 4.6875 12.375 4.91016 12.375 5.25C12.375 5.58984 12.1523 5.8125 11.8125 5.8125H8.25Z" fill="black" fill-opacity="0.85"/>
</svg>
