<svg width="33" height="28" viewBox="0 0 33 28" fill="none" xmlns="http://www.w3.org/2000/svg">
<path d="M16.4082 20.8359C18.623 20.8359 21.1777 21.5156 23.1113 22.5117C23.6621 22.8164 24.2715 22.6875 24.6465 22.207L32.3105 12.457C33.084 11.4727 32.9434 10.3945 31.959 9.62109C28.7715 7.16016 22.7012 5.28516 16.4082 5.28516C10.1152 5.28516 4.0332 7.16016 0.845701 9.62109C-0.138674 10.3945 -0.279299 11.4727 0.505857 12.457L8.1582 22.207C8.54492 22.6875 9.14258 22.8164 9.69336 22.5117C11.627 21.5156 14.1934 20.8359 16.4082 20.8359ZM16.4082 18.8789C14.334 18.8789 11.9434 19.418 9.63476 20.3789C9.38867 20.4727 9.30664 20.4727 9.10742 20.2148L2.42773 11.7188C2.22851 11.4609 2.26367 11.2617 2.54492 11.0742C6.50586 8.55469 11.5918 7.19531 16.4082 7.19531C21.2129 7.19531 26.3105 8.55469 30.2715 11.0742C30.541 11.2617 30.5879 11.4609 30.377 11.7188L23.709 20.2148C23.5098 20.4727 23.4277 20.4727 23.1816 20.3789C20.873 19.418 18.4707 18.8789 16.4082 18.8789Z" fill="#007AFF"/>
<path d="M1.70117 0.9375C1.70117 1.45312 2.13476 1.88672 2.65039 1.88672H9.06054C9.57617 1.88672 9.99804 1.45312 9.99804 0.9375C9.99804 0.421875 9.57617 0 9.06054 0H2.65039C2.13476 0 1.70117 0.421875 1.70117 0.9375ZM12.248 0.9375C12.248 1.45312 12.6816 1.88672 13.1973 1.88672H19.6074C20.123 1.88672 20.5566 1.45312 20.5566 0.9375C20.5566 0.421875 20.123 0 19.6074 0H13.1973C12.6816 0 12.248 0.421875 12.248 0.9375ZM22.8066 0.9375C22.8066 1.45312 23.2285 1.88672 23.7441 1.88672H30.1543C30.6699 1.88672 31.1035 1.45312 31.1035 0.9375C31.1035 0.421875 30.6699 0 30.1543 0H23.7441C23.2285 0 22.8066 0.421875 22.8066 0.9375Z" fill="black" fill-opacity="0.85"/>
<path d="M16.4199 27.7266C17.8496 27.7266 19.0566 26.5312 19.0566 25.0781C19.0566 23.625 17.8613 22.4297 16.4199 22.4297C14.9668 22.4297 13.7715 23.625 13.7715 25.0781C13.7715 26.5312 14.9551 27.7266 16.4199 27.7266ZM16.4199 26.1562C15.8105 26.1562 15.3301 25.6758 15.3301 25.0781C15.3301 24.4805 15.8105 23.9766 16.4199 23.9766C17.0059 23.9766 17.5215 24.4805 17.5215 25.0781C17.5215 25.6758 17.0059 26.1562 16.4199 26.1562ZM14.6855 23.9766L16.3496 23.0859L5.77928 4.92189C5.52147 4.47657 4.98241 4.31251 4.46678 4.57032C3.98632 4.81642 3.88084 5.42579 4.13865 5.8711L14.6855 23.9766Z" fill="black" fill-opacity="0.85"/>
</svg>
