<svg width="29" height="23" viewBox="0 0 29 23" fill="none" xmlns="http://www.w3.org/2000/svg">
<path d="M3.67969 22.8164H25.0312C27.4922 22.8164 28.7109 21.5977 28.7109 19.1836V10.3945C28.7109 7.98047 27.4922 6.76172 25.0312 6.76172H3.67969C1.23047 6.76172 0 7.96875 0 10.3945V19.1836C0 21.5977 1.23047 22.8164 3.67969 22.8164ZM1.88672 19.0781V10.4883C1.88672 9.26953 2.53125 8.64844 3.70312 8.64844H24.9961C26.1562 8.64844 26.8242 9.26953 26.8242 10.4883V19.0781C26.8242 20.2969 26.1562 20.9297 24.9961 20.9297H3.70312C2.53125 20.9297 1.88672 20.2969 1.88672 19.0781Z" fill="#007AFF"/>
<path d="M14.3555 18.3281C15.75 18.3281 16.8984 17.1797 16.8984 15.7852V6.33983C16.8984 4.9453 15.75 3.79688 14.3555 3.79688C12.9609 3.79688 11.8125 4.9453 11.8125 6.33983V15.7852C11.8125 17.1797 12.9609 18.3281 14.3555 18.3281Z" fill="white"/>
<path d="M1.51201 3.94923C1.95732 4.21876 2.46123 4.08985 2.80107 3.6797C3.4456 2.90626 4.2542 2.33204 5.17998 2.00392C5.68388 1.81642 6.00029 1.38282 5.89482 0.867194C5.76591 0.281256 5.1917 5.93066e-06 4.50029 0.2461C3.30498 0.644537 2.16826 1.46485 1.30107 2.53126C0.879193 3.03517 1.03154 3.66798 1.51201 3.94923ZM13.0198 3.92579C13.5003 3.64454 13.6175 3.02345 13.2073 2.51954C12.3401 1.45313 11.2034 0.644537 10.0198 0.257818C9.28154 -0.0117129 8.73076 0.328131 8.62529 0.890631C8.54326 1.39454 8.83623 1.81642 9.34013 2.00392C10.2542 2.33204 11.0628 2.90626 11.6956 3.66798C12.0706 4.11329 12.5628 4.19532 13.0198 3.92579ZM15.6917 3.92579C16.1487 4.19532 16.6292 4.11329 17.0159 3.66798C17.637 2.90626 18.4573 2.33204 19.3597 2.00392C19.8753 1.81642 20.1683 1.39454 20.0745 0.890631C19.9808 0.328131 19.43 -0.0117129 18.6917 0.257818C17.5081 0.644537 16.3597 1.45313 15.4925 2.51954C15.0941 3.02345 15.1995 3.64454 15.6917 3.92579ZM27.1995 3.94923C27.68 3.66798 27.8323 3.03517 27.4105 2.53126C26.5433 1.46485 25.4065 0.644537 24.1995 0.2461C23.5198 5.93066e-06 22.9339 0.281256 22.8167 0.867194C22.6995 1.38282 23.0276 1.81642 23.5315 2.00392C24.4573 2.33204 25.2659 2.90626 25.9105 3.6797C26.2503 4.08985 26.7542 4.21876 27.1995 3.94923ZM14.3558 10.2773C14.8714 10.2773 15.2933 9.84376 15.2933 9.32813V6.33985C15.2933 5.82423 14.8714 5.40235 14.3558 5.40235C13.8401 5.40235 13.4065 5.82423 13.4065 6.33985V9.32813C13.4065 9.84376 13.8401 10.2773 14.3558 10.2773ZM14.3558 16.7227C14.8714 16.7227 15.2933 16.3008 15.2933 15.7852V12.7969C15.2933 12.2812 14.8714 11.8477 14.3558 11.8477C13.8401 11.8477 13.4065 12.2812 13.4065 12.7969V15.7852C13.4065 16.3008 13.8401 16.7227 14.3558 16.7227Z" fill="black" fill-opacity="0.85"/>
</svg>
