<svg width="24" height="24" viewBox="0 0 24 24" fill="none" xmlns="http://www.w3.org/2000/svg">
<path d="M11.9531 23.9062C18.4922 23.9062 23.9062 18.4805 23.9062 11.9531C23.9062 5.41406 18.4805 0 11.9414 0C5.41406 0 0 5.41406 0 11.9531C0 18.4805 5.42578 23.9062 11.9531 23.9062ZM11.9531 21.9141C6.42188 21.9141 2.00391 17.4844 2.00391 11.9531C2.00391 6.42188 6.41016 1.99219 11.9414 1.99219C17.4727 1.99219 21.9141 6.42188 21.9141 11.9531C21.9141 17.4844 17.4844 21.9141 11.9531 21.9141Z" fill="#007AFF"/>
<path d="M6.90234 11.7305C6.90234 12.0469 7.16016 12.3164 7.47656 12.3164H8.19141L8.95312 17.0508C9.02344 17.5078 9.36328 17.7656 9.78516 17.7656C10.207 17.7656 10.5469 17.5312 10.6289 17.0625L11.4141 12.3047H12.4688L13.2773 17.0625C13.3594 17.5312 13.6992 17.7656 14.1211 17.7656C14.5312 17.7656 14.8828 17.5078 14.9531 17.0508L15.6914 12.3047H16.3945C16.7227 12.3047 16.9688 12.0352 16.9688 11.7188C16.9688 11.3789 16.7227 11.1445 16.3945 11.1445H15.8789L16.4531 7.44141C16.4766 7.32422 16.5 7.23047 16.5 7.10156C16.5 6.69141 16.1836 6.44531 15.7734 6.44531C15.4102 6.44531 15.0938 6.65625 15.0352 7.06641L14.5078 11.1445H13.4883L12.8086 7.20703C12.7383 6.72656 12.3516 6.45703 11.9297 6.45703C11.4844 6.45703 11.1328 6.72656 11.0508 7.21875L10.3828 11.1562H9.38672L8.88281 7.07812C8.82422 6.66797 8.50781 6.45703 8.13281 6.45703C7.71094 6.45703 7.38281 6.71484 7.38281 7.125C7.38281 7.26562 7.41797 7.38281 7.42969 7.48828L8.00391 11.1562H7.47656C7.16016 11.1562 6.90234 11.3906 6.90234 11.7305ZM9.53906 12.293H10.2188L9.82031 15.0469L9.53906 12.293ZM11.625 11.1562L11.9414 8.85938L12.2812 11.1562H11.625ZM13.6523 12.293H14.3906L14.0742 15.1172L13.6523 12.293Z" fill="black" fill-opacity="0.85"/>
</svg>
