<svg width="28" height="29" viewBox="0 0 28 29" fill="none" xmlns="http://www.w3.org/2000/svg">
<path d="M1.2349 9.07767L9.49662 17.3511C11.149 18.9917 12.9068 18.9917 14.5122 17.3863L16.0708 15.8277C17.6763 14.2222 17.6763 12.4644 16.0357 10.8238L7.77396 2.55033C6.12162 0.909704 4.36381 0.909704 2.75834 2.51517L1.19974 4.07377C-0.405726 5.67923 -0.405726 7.43705 1.2349 9.07767ZM2.28959 7.85892C1.43412 7.00345 1.44584 6.11283 2.28959 5.25736L3.94193 3.5933C4.77396 2.74955 5.68802 2.76127 6.54349 3.60502L14.981 12.0425C15.8365 12.898 15.8247 13.7886 14.981 14.6441L13.3404 16.3081C12.4966 17.1519 11.5826 17.1402 10.7271 16.2964L2.28959 7.85892ZM8.1724 11.5503C8.34818 11.7261 8.62943 11.7261 8.79349 11.5503C8.95756 11.3863 8.96927 11.1167 8.79349 10.9409L4.41068 6.55814C4.25834 6.41752 3.96537 6.39408 3.78959 6.55814C3.62552 6.74564 3.61381 7.02689 3.78959 7.19095L8.1724 11.5503ZM9.61381 10.1206C9.77787 10.2964 10.0826 10.273 10.2349 10.1206C10.4107 9.92142 10.4107 9.65189 10.2466 9.48783L5.86381 5.11673C5.68802 4.94095 5.40677 4.95267 5.25443 5.11673C5.07865 5.29252 5.09037 5.56205 5.25443 5.72611L9.61381 10.1206ZM24.6958 28.0972L26.7935 25.9995C27.0396 25.7417 27.0044 25.3667 26.7701 25.0034L24.3208 21.3472C24.0747 20.9839 23.6997 20.7261 23.2779 20.6675L22.2232 20.5034L16.481 14.7613L15.4029 16.0152L21.5435 22.1441L22.856 22.3667L25.0943 25.3433L24.0279 26.4097L21.063 24.1714L20.8286 22.8589L14.7349 16.7652L13.6451 17.9956L19.188 23.5386L19.3521 24.5933C19.4107 25.0152 19.6802 25.3902 20.0318 25.6245L23.6997 28.1089C24.0747 28.355 24.438 28.355 24.6958 28.0972Z" fill="#007AFF"/>
<path d="M1.83209 26.7143C3.87115 28.7299 6.60162 28.7533 8.60552 26.7377C11.125 24.1947 10.7266 21.3354 18.4141 13.5307C20.9219 14.7143 23.9571 14.3158 25.9727 12.3119C28.0821 10.2026 28.4453 6.87446 26.875 4.17915L23.6875 7.36665C23.3711 7.68306 22.9727 7.7065 22.6328 7.36665L21.2031 5.92525C20.8633 5.57369 20.8281 5.16353 21.1446 4.84712L24.3438 1.67133C21.6719 0.112744 18.3555 0.464306 16.2461 2.58539C14.2305 4.60103 13.8203 7.62446 15.0039 10.1322C7.21099 17.8197 4.35162 17.4213 1.80865 19.9291C-0.2187 21.933 -0.195263 24.6752 1.83209 26.7143Z" fill="white"/>
<path d="M1.83209 26.7143C3.87115 28.7299 6.60162 28.7533 8.60552 26.7377C11.125 24.1947 10.7266 21.3354 18.4141 13.5307C20.9219 14.7143 23.9571 14.3158 25.9727 12.3119C28.0821 10.2026 28.4453 6.87446 26.875 4.17915L23.6875 7.36665C23.3711 7.68306 22.9727 7.7065 22.6328 7.36665L21.2031 5.92525C20.8633 5.57369 20.8281 5.16353 21.1446 4.84712L24.3438 1.67133C21.6719 0.112744 18.3555 0.464306 16.2461 2.58539C14.2305 4.60103 13.8203 7.62446 15.0039 10.1322C7.21099 17.8197 4.35162 17.4213 1.80865 19.9291C-0.2187 21.933 -0.195263 24.6752 1.83209 26.7143ZM17.5117 11.0346C15.4258 8.94868 15.3438 5.64399 17.336 3.67524C18.461 2.53852 20.0664 2.0815 21.6016 2.32759L19.9024 4.0268C19.0352 4.88227 19.0586 5.98384 19.961 6.86275L21.6953 8.5854C22.5625 9.45259 23.6758 9.47602 24.4961 8.64399L26.2188 6.90962C26.4766 8.46821 26.0078 10.0737 24.8711 11.2221C22.8906 13.2026 19.6094 13.1088 17.5117 11.0346ZM2.99224 25.5541C1.64459 24.183 1.66802 22.4369 2.95709 21.1362C5.79302 18.3237 7.48052 19.519 15.7891 11.3979C15.9766 11.6557 16.1875 11.8901 16.4102 12.1244C16.6328 12.3471 16.8789 12.5697 17.1367 12.7572C9.0274 21.0658 10.2227 22.7533 7.41021 25.5658C6.10943 26.8783 4.35162 26.8901 2.99224 25.5541ZM5.17193 24.851C5.9688 24.851 6.62505 24.1947 6.62505 23.3979C6.62505 22.601 5.9688 21.9565 5.17193 21.9565C4.37505 21.9565 3.73052 22.601 3.73052 23.3979C3.73052 24.1947 4.37505 24.851 5.17193 24.851Z" fill="black" fill-opacity="0.85"/>
</svg>
