<svg width="26" height="22" viewBox="0 0 26 22" fill="none" xmlns="http://www.w3.org/2000/svg">
<path d="M4.44141 21.1992C5.54297 21.1992 6.11719 20.4258 6.43359 19.418L11.7656 2.25H24.2461C24.9141 2.25 25.3711 1.83984 25.3711 1.19531C25.3711 0.574219 24.9141 0.164062 24.2461 0.164062H11.7422C10.5469 0.164062 10.0078 0.609375 9.69141 1.64062L4.57031 18.457H4.37109L2.16797 10.6875C1.98047 10.043 1.62891 9.73828 1.07812 9.73828C0.457031 9.73828 0 10.1836 0 10.7578C0 10.9922 0.0585938 11.2031 0.105469 11.3789L2.58984 19.5469C2.88281 20.4961 3.41016 21.1992 4.44141 21.1992ZM13.9922 18.8086C14.4258 18.8086 14.6484 18.6562 14.9766 18.1992L17.7539 14.2734H17.8008L20.5547 18.1992C20.8945 18.6562 21.1172 18.8086 21.5391 18.8086C22.125 18.8086 22.5586 18.4102 22.5586 17.8594C22.5586 17.6016 22.5 17.3906 22.3242 17.168L19.1016 12.7852L22.3477 8.37891C22.5234 8.13281 22.5938 7.92188 22.5938 7.6875C22.5938 7.17188 22.1719 6.77344 21.6094 6.77344C21.1992 6.77344 20.9531 6.91406 20.6484 7.34766L17.9883 11.2969H17.9297L15.1875 7.33594C14.8945 6.91406 14.6367 6.77344 14.2031 6.77344C13.6406 6.77344 13.1719 7.20703 13.1719 7.73438C13.1719 8.02734 13.2422 8.21484 13.4531 8.48438L16.5352 12.7266L13.2656 17.2383C13.0898 17.4727 13.043 17.6367 13.043 17.9062C13.043 18.4102 13.4531 18.8086 13.9922 18.8086Z" fill="black" fill-opacity="0.85"/>
</svg>
