<svg width="22" height="22" viewBox="0 0 22 22" fill="none" xmlns="http://www.w3.org/2000/svg">
<path d="M3.67969 21.5977H17.8945C20.3555 21.5977 21.5742 20.3789 21.5742 17.9648V3.65625C21.5742 1.24219 20.3555 0.0234375 17.8945 0.0234375H3.67969C1.23047 0.0234375 0 1.23047 0 3.65625V17.9648C0 20.3906 1.23047 21.5977 3.67969 21.5977Z" fill="#FFCC00"/>
<path d="M7.20703 16.3359C6.69141 16.3359 6.30469 15.9727 6.30469 15.4922C6.30469 15.2461 6.36328 15.082 6.52734 14.8594L9.58594 10.6172L6.69141 6.63281C6.50391 6.36328 6.43359 6.19922 6.43359 5.92969C6.43359 5.4375 6.86719 5.02734 7.38281 5.02734C7.79297 5.02734 8.02734 5.17969 8.30859 5.56641L10.875 9.29297H10.9453L13.4648 5.57812C13.7227 5.17969 13.9688 5.02734 14.3438 5.02734C14.8594 5.02734 15.2695 5.40234 15.2695 5.88281C15.2695 6.10547 15.1992 6.30469 15.0234 6.52734L11.9766 10.6758L15 14.8125C15.1641 15.0234 15.2344 15.1992 15.2344 15.4453C15.2344 15.9727 14.8359 16.3359 14.2852 16.3359C13.8984 16.3359 13.6758 16.1953 13.3711 15.7734L10.7695 12.0586H10.7227L8.10938 15.7734C7.80469 16.1953 7.59375 16.3359 7.20703 16.3359Z" fill="black" fill-opacity="0.85"/>
</svg>
