<svg width="25" height="25" viewBox="0 0 25 25" fill="none" xmlns="http://www.w3.org/2000/svg">
<path d="M4.78125 12.4922C6.10547 10.3711 7.3125 8.56641 8.80078 6.76172C8.82422 6.73828 8.82422 6.69141 8.80078 6.65625C8.10938 5.97656 7.47656 5.39062 6.9375 4.96875C6.12891 4.34766 4.93359 3.43359 3.98438 3.43359C3.78516 3.43359 3.67969 3.45703 3.62109 3.51562C2.53125 4.58203 1.60547 5.95312 0.972656 7.39453C0.328125 8.95312 0 10.5 0 12.1523C0 14.8477 0.820312 17.2969 2.47266 19.5C2.49609 19.5352 2.55469 19.5117 2.54297 19.4648C2.48438 19.3008 2.44922 18.9961 2.44922 18.7266C2.44922 18.1172 2.55469 17.4609 2.75391 16.8516C3.33984 15.1523 3.96094 13.793 4.78125 12.4922ZM15.4922 6.76172C16.9805 8.56641 18.1875 10.3711 19.5 12.4922C20.332 13.793 20.9531 15.1523 21.5391 16.8516C21.7383 17.4609 21.8438 18.1172 21.8438 18.7266C21.8438 18.9961 21.8086 19.3008 21.75 19.4648C21.7383 19.5117 21.7969 19.5352 21.8203 19.5C23.4727 17.2969 24.293 14.8477 24.293 12.1523C24.293 10.5 23.9648 8.95312 23.3203 7.39453C22.6875 5.95312 21.7617 4.58203 20.6719 3.51562C20.6133 3.45703 20.5078 3.43359 20.3086 3.43359C19.3594 3.43359 18.1641 4.34766 17.3555 4.96875C16.8164 5.39062 16.1836 5.97656 15.4922 6.65625C15.4688 6.69141 15.4688 6.73828 15.4922 6.76172ZM5.85938 1.75781C5.80078 1.78125 5.82422 1.875 5.89453 1.86328C6.12891 1.81641 6.42188 1.78125 6.70312 1.78125C7.72266 1.78125 8.67188 2.05078 9.86719 2.51953C10.3828 2.70703 10.8164 2.90625 11.2383 3.12891C11.6016 3.31641 11.8945 3.48047 12.0586 3.5625C12.1172 3.59766 12.1758 3.59766 12.2344 3.5625C12.3984 3.48047 12.6797 3.31641 13.0547 3.12891C13.4766 2.90625 13.9102 2.70703 14.4141 2.51953C15.6211 2.05078 16.5703 1.78125 17.5898 1.78125C17.8711 1.78125 18.1641 1.81641 18.3984 1.86328C18.4688 1.875 18.4922 1.78125 18.4336 1.75781C17.4961 1.21875 16.5469 0.785156 15.5273 0.503906C14.4961 0.164062 13.3711 0 12.1406 0C10.9219 0 9.79688 0.164062 8.76562 0.503906C7.74609 0.785156 6.78516 1.21875 5.85938 1.75781ZM3.78516 20.332C3.78516 20.707 3.90234 21 4.33594 21.4102C6.1875 23.1328 9.12891 24.293 12.1406 24.293C15.1641 24.293 18.0938 23.1328 19.957 21.4102C20.3906 21 20.5078 20.707 20.5078 20.332C20.5078 19.8867 20.3672 19.3711 20.0859 18.8086C19.5352 17.5547 18.5039 16.1133 17.5312 14.9648C15.8672 13.043 14.0742 11.1797 12.2812 9.84375C12.2227 9.79688 12.1875 9.77344 12.1406 9.77344C12.1055 9.77344 12.0703 9.79688 12.0117 9.84375C10.2188 11.1797 8.42578 13.043 6.76172 14.9648C5.78906 16.1133 4.75781 17.5547 4.20703 18.8086C3.91406 19.3711 3.78516 19.8867 3.78516 20.332Z" fill="black" fill-opacity="0.85"/>
</svg>
