<svg width="27" height="27" viewBox="0 0 27 27" fill="none" xmlns="http://www.w3.org/2000/svg">
<path d="M6.20948 23.4712H8.74073C8.98682 23.4712 9.1626 23.5415 9.33838 23.7173L11.1431 25.5103C12.6196 26.9985 13.9907 26.9868 15.4673 25.5103L17.272 23.7173C17.4478 23.5415 17.6235 23.4712 17.8696 23.4712H20.4009C22.4985 23.4712 23.4712 22.5103 23.4712 20.4009V17.8696C23.4712 17.6235 23.5415 17.4595 23.7173 17.272L25.4985 15.4673C26.9868 13.9907 26.9751 12.6314 25.4985 11.1431L23.7173 9.33838C23.5415 9.1626 23.4712 8.98682 23.4712 8.75245V6.20948C23.4712 4.12354 22.5103 3.13916 20.4009 3.13916H17.8696C17.6235 3.13916 17.4478 3.08057 17.272 2.90479L15.4673 1.11182C13.9907 -0.376461 12.6196 -0.364742 11.1431 1.11182L9.33838 2.90479C9.1626 3.08057 8.98682 3.13916 8.74073 3.13916H6.20948C4.11182 3.13916 3.13916 4.1001 3.13916 6.20948V8.75245C3.13916 8.98682 3.08057 9.1626 2.90479 9.33838L1.11182 11.1431C-0.376461 12.6314 -0.364742 13.9907 1.11182 15.4673L2.90479 17.272C3.08057 17.4595 3.13916 17.6235 3.13916 17.8696V20.4009C3.13916 22.4985 4.11182 23.4712 6.20948 23.4712ZM6.20948 21.6079C5.16651 21.6079 5.00245 21.4439 5.00245 20.4009V17.2485C5.00245 16.897 4.89698 16.6274 4.63916 16.3696L2.42432 14.1665C1.68604 13.4165 1.68604 13.2056 2.42432 12.4556L4.63916 10.2524C4.89698 9.99463 5.00245 9.7251 5.00245 9.36182V6.20948C5.00245 5.15479 5.15479 5.00245 6.20948 5.00245H9.36182C9.7251 5.00245 9.99463 4.9087 10.2524 4.63916L12.4556 2.42432C13.2056 1.68604 13.4165 1.68604 14.1548 2.42432L16.3696 4.63916C16.6157 4.9087 16.897 5.00245 17.2485 5.00245H20.4009C21.4439 5.00245 21.6079 5.16651 21.6079 6.20948V9.36182C21.6079 9.7251 21.7251 9.99463 21.9829 10.2524L24.1978 12.4556C24.936 13.2056 24.936 13.4165 24.1978 14.1665L21.9829 16.3696C21.7251 16.6274 21.6079 16.897 21.6079 17.2485V20.4009C21.6079 21.4439 21.4439 21.6079 20.4009 21.6079H17.2485C16.897 21.6079 16.6157 21.7134 16.3696 21.9829L14.1548 24.1978C13.4165 24.936 13.2056 24.936 12.4556 24.1978L10.2524 21.9829C9.99463 21.7134 9.7251 21.6079 9.36182 21.6079H6.20948Z" fill="#007AFF"/>
<path d="M9.31445 18.2681C9.58398 18.2681 9.81835 18.1626 9.99413 17.9751L13.3105 14.647L16.6504 17.9751C16.8262 18.1509 17.0488 18.2681 17.3184 18.2681C17.834 18.2681 18.2559 17.8345 18.2559 17.3189C18.2559 17.0493 18.1621 16.8384 17.9746 16.6509L14.6465 13.3228L17.9863 9.97119C18.1855 9.77197 18.2676 9.57275 18.2676 9.31494C18.2676 8.78759 17.8457 8.37744 17.3301 8.37744C17.084 8.37744 16.8848 8.47119 16.6855 8.6704L13.3105 12.0103L9.9707 8.68212C9.79491 8.49462 9.58398 8.40087 9.31445 8.40087C8.79882 8.40087 8.37695 8.79931 8.37695 9.32665C8.37695 9.58447 8.48241 9.80712 8.6582 9.9829L11.9863 13.3228L8.6582 16.6626C8.48241 16.8384 8.37695 17.061 8.37695 17.3189C8.37695 17.8345 8.79882 18.2681 9.31445 18.2681Z" fill="black" fill-opacity="0.85"/>
</svg>
