<svg width="30" height="23" viewBox="0 0 30 23" fill="none" xmlns="http://www.w3.org/2000/svg">
<path d="M23.1562 20.3672C26.6953 20.3672 29.4609 17.7773 29.4609 14.5547C29.4609 12.0938 28.043 9.96094 25.7578 9C25.7812 3.77344 22.0195 0 17.2266 0C14.0508 0 11.7891 1.69922 10.3828 3.75C7.5 2.90625 4.35938 5.09766 4.30078 8.37891C1.65234 8.80078 0 11.168 0 14.0273C0 17.4727 3.01172 20.3672 7.01953 20.3672H23.1562ZM23.1562 18.4805H7.01953C4.06641 18.4805 1.88672 16.418 1.88672 14.0273C1.88672 11.6836 3.30469 9.82031 5.78906 9.82031C5.95312 9.82031 6.01172 9.73828 6.01172 9.58594C6.01172 5.97656 8.61328 4.91016 11.0156 5.69531C11.1562 5.74219 11.2383 5.70703 11.3086 5.57812C12.4453 3.55078 14.1914 1.88672 17.2266 1.88672C21.0703 1.88672 23.7305 4.93359 23.9297 8.41406C23.9648 8.95312 23.9297 9.58594 23.8828 10.1367C23.8711 10.2891 23.9297 10.3711 24.0703 10.4062C26.2031 10.875 27.5742 12.4336 27.5742 14.5547C27.5742 16.7344 25.6523 18.4805 23.1562 18.4805Z" fill="#007AFF"/>
<path d="M12.4808 15.0938L14.7308 12.8438L16.9808 15.0938C17.3323 15.4336 17.8128 15.3633 18.1292 15.0703C18.4339 14.7656 18.5042 14.2734 18.1644 13.9336L15.9026 11.6719L18.1644 9.41019C18.5042 9.07034 18.4339 8.58987 18.1292 8.27347C17.8362 7.96878 17.3323 7.89847 16.9808 8.25003L14.7308 10.5L12.4808 8.25003C12.1409 7.91019 11.6487 7.9805 11.3441 8.27347C11.0276 8.57815 10.9691 9.07034 11.3089 9.41019L13.5589 11.6719L11.3089 13.9336C10.9691 14.2734 11.0394 14.7539 11.3323 15.0586C11.637 15.375 12.1409 15.4336 12.4808 15.0938Z" fill="black" fill-opacity="0.85"/>
</svg>
