<svg width="28" height="17" viewBox="0 0 28 17" fill="none" xmlns="http://www.w3.org/2000/svg">
<path d="M3.67969 16.6992H23.9531C26.4023 16.6992 27.6328 15.4922 27.6328 13.0664V9.32812C27.6328 7.72266 27.2578 6.69141 26.2852 5.70703L22.3945 1.6875C21.2578 0.527344 20.2969 0.0117188 18.7383 0.0117188H8.89453C7.34766 0.0117188 6.375 0.527344 5.25 1.6875L1.34766 5.70703C0.386719 6.69141 0 7.72266 0 9.32812V13.0664C0 15.4922 1.23047 16.6992 3.67969 16.6992ZM3.70312 14.8125C2.53125 14.8125 1.88672 14.1914 1.88672 12.9727V10.6875C1.88672 9.96094 2.21484 9.62109 2.92969 9.62109H24.7031C25.418 9.62109 25.7461 9.96094 25.7461 10.6875V12.9727C25.7461 14.1914 25.1016 14.8125 23.9297 14.8125H3.70312ZM2.76562 7.91016C2.35547 7.91016 2.23828 7.53516 2.48438 7.28906L6.78516 2.73047C7.51172 1.96875 8.02734 1.72266 8.98828 1.72266H18.6445C19.6055 1.72266 20.1211 1.96875 20.8477 2.73047L25.1602 7.28906C25.3945 7.53516 25.2891 7.91016 24.8672 7.91016H2.76562ZM4.51172 13.3242C5.13281 13.3242 5.66016 12.8086 5.66016 12.1758C5.66016 11.5547 5.13281 11.0391 4.51172 11.0391C3.87891 11.0391 3.36328 11.5547 3.36328 12.1758C3.36328 12.8086 3.87891 13.3242 4.51172 13.3242ZM7.71094 13.6758C8.07422 13.6758 8.39062 13.3945 8.39062 13.043V11.4023C8.39062 11.0391 8.07422 10.7578 7.71094 10.7578C7.35938 10.7578 7.07812 11.0391 7.07812 11.4023V13.043C7.07812 13.3945 7.35938 13.6758 7.71094 13.6758ZM9.96094 13.6758C10.3242 13.6758 10.6406 13.3945 10.6406 13.043V11.4023C10.6406 11.0391 10.3242 10.7578 9.96094 10.7578C9.60938 10.7578 9.32812 11.0391 9.32812 11.4023V13.043C9.32812 13.3945 9.60938 13.6758 9.96094 13.6758ZM12.4453 12.8906C12.832 12.8906 13.1484 12.5742 13.1484 12.1758C13.1484 11.7891 12.832 11.4727 12.4453 11.4727C12.0586 11.4727 11.7422 11.7891 11.7422 12.1758C11.7422 12.5742 12.0586 12.8906 12.4453 12.8906ZM14.9414 13.6758C15.293 13.6758 15.5742 13.3945 15.5742 13.043V11.4023C15.5742 11.0391 15.293 10.7578 14.9414 10.7578C14.5781 10.7578 14.2617 11.0391 14.2617 11.4023V13.043C14.2617 13.3945 14.5781 13.6758 14.9414 13.6758ZM17.1914 13.6758C17.5547 13.6758 17.8242 13.3945 17.8242 13.043V11.4023C17.8242 11.0391 17.5547 10.7578 17.1914 10.7578C16.8281 10.7578 16.5234 11.0391 16.5234 11.4023V13.043C16.5234 13.3945 16.8281 13.6758 17.1914 13.6758ZM19.9336 12.8789H23.7188C24.082 12.8789 24.3633 12.5625 24.3633 12.1992C24.3633 11.8477 24.082 11.5664 23.7188 11.5664H19.9336C19.582 11.5664 19.3008 11.8477 19.3008 12.1992C19.3008 12.5625 19.582 12.8789 19.9336 12.8789Z" fill="black" fill-opacity="0.85"/>
</svg>
