<svg width="24" height="24" viewBox="0 0 24 24" fill="none" xmlns="http://www.w3.org/2000/svg">
<path d="M11.9531 23.9062C18.4922 23.9062 23.9062 18.4805 23.9062 11.9531C23.9062 5.41406 18.4805 0 11.9414 0C5.41406 0 0 5.41406 0 11.9531C0 18.4805 5.42578 23.9062 11.9531 23.9062Z" fill="#FFCC00"/>
<path d="M11.9531 17.4961C11.332 17.4961 10.9922 17.0508 10.9922 16.3945V13.2773L7.58203 7.60547C7.46484 7.40625 7.41797 7.21875 7.41797 7.04297C7.41797 6.57422 7.80469 6.1875 8.30859 6.1875C8.74219 6.1875 8.97656 6.33984 9.23438 6.79688L11.9297 11.4375H12L14.7188 6.79688C14.9648 6.35156 15.1875 6.1875 15.6094 6.1875C16.125 6.1875 16.4883 6.5625 16.4883 7.06641C16.4883 7.23047 16.4414 7.42969 16.3242 7.60547L12.9375 13.2539V16.3945C12.9375 17.0859 12.5859 17.4961 11.9531 17.4961Z" fill="black" fill-opacity="0.85"/>
</svg>
