<svg width="24" height="24" viewBox="0 0 24 24" fill="none" xmlns="http://www.w3.org/2000/svg">
<path d="M11.9531 23.9062C18.4922 23.9062 23.9062 18.4805 23.9062 11.9531C23.9062 5.41406 18.4805 0 11.9414 0C5.41406 0 0 5.41406 0 11.9531C0 18.4805 5.42578 23.9062 11.9531 23.9062ZM11.9531 21.9141C6.42188 21.9141 2.00391 17.4844 2.00391 11.9531C2.00391 6.42188 6.41016 1.99219 11.9414 1.99219C17.4727 1.99219 21.9141 6.42188 21.9141 11.9531C21.9141 17.4844 17.4844 21.9141 11.9531 21.9141Z" fill="#007AFF"/>
<path d="M11.9414 17.8828C12.3867 17.8828 12.6914 17.5781 12.6914 17.1094V15.4102H14.8594C15.1992 15.4102 15.4336 15.1523 15.4336 14.8242C15.4336 14.4961 15.1992 14.25 14.8594 14.25H12.6914V13.3477H14.8594C15.1992 13.3477 15.4336 13.1016 15.4336 12.7734C15.4336 12.4336 15.1992 12.1875 14.8594 12.1875H13.2305L16.0781 7.60547C16.1836 7.44141 16.2188 7.30078 16.2188 7.125C16.2188 6.73828 15.9023 6.43359 15.4805 6.43359C15.1992 6.43359 14.9766 6.55078 14.8242 6.82031L11.9531 11.6367L9.08203 6.80859C8.91797 6.53906 8.70703 6.42188 8.41406 6.42188C7.99219 6.42188 7.67578 6.72656 7.67578 7.11328C7.67578 7.28906 7.72266 7.42969 7.81641 7.59375L10.6758 12.1875H9.07031C8.73047 12.1875 8.50781 12.4336 8.50781 12.7734C8.50781 13.1016 8.74219 13.3477 9.07031 13.3477H11.2148V14.25H9.07031C8.73047 14.25 8.50781 14.4961 8.50781 14.8242C8.50781 15.1523 8.74219 15.4102 9.07031 15.4102H11.2148V17.0977C11.2148 17.5664 11.5078 17.8828 11.9414 17.8828Z" fill="black" fill-opacity="0.85"/>
</svg>
