<svg width="24" height="24" viewBox="0 0 24 24" fill="none" xmlns="http://www.w3.org/2000/svg">
<path d="M11.9531 23.9062C18.4922 23.9062 23.9062 18.4805 23.9062 11.9531C23.9062 5.41406 18.4805 0 11.9414 0C5.41406 0 0 5.41406 0 11.9531C0 18.4805 5.42578 23.9062 11.9531 23.9062Z" fill="#FFCC00"/>
<path d="M8.47266 17.3438C7.94531 17.3438 7.59375 17.0039 7.59375 16.5234C7.59375 16.2539 7.66406 16.0898 7.92188 15.7148L13.4766 8.02734V7.92188H8.36719C7.89844 7.92188 7.55859 7.62891 7.55859 7.125C7.55859 6.64453 7.89844 6.33984 8.36719 6.33984H15.0703C15.6094 6.33984 15.9727 6.69141 15.9727 7.19531C15.9727 7.47656 15.9141 7.64062 15.6797 7.96875L10.1367 15.6562V15.7617H15.5508C16.0195 15.7617 16.3711 16.0547 16.3711 16.5586C16.3711 17.0391 16.0195 17.3438 15.5508 17.3438H8.47266Z" fill="black" fill-opacity="0.85"/>
</svg>
