<svg width="22" height="22" viewBox="0 0 22 22" fill="none" xmlns="http://www.w3.org/2000/svg">
<path d="M3.67969 21.5977H17.8945C20.3555 21.5977 21.5742 20.3789 21.5742 17.9648V3.65625C21.5742 1.24219 20.3555 0.0234375 17.8945 0.0234375H3.67969C1.23047 0.0234375 0 1.23047 0 3.65625V17.9648C0 20.3906 1.23047 21.5977 3.67969 21.5977Z" fill="#FFCC00"/>
<path d="M7.3125 16.1836C6.79688 16.1836 6.43359 15.8438 6.43359 15.3633C6.43359 15.0938 6.51562 14.9297 6.76172 14.5547L12.3164 6.86719V6.76172H7.21875C6.73828 6.76172 6.39844 6.46875 6.39844 5.96484C6.39844 5.48438 6.73828 5.17969 7.21875 5.17969H13.9219C14.4492 5.17969 14.8125 5.53125 14.8125 6.03516C14.8125 6.31641 14.7539 6.48047 14.5195 6.80859L8.97656 14.4961V14.6016H14.3906C14.8711 14.6016 15.2109 14.8945 15.2109 15.3984C15.2109 15.8789 14.8711 16.1836 14.3906 16.1836H7.3125Z" fill="black" fill-opacity="0.85"/>
</svg>
