<svg width="28" height="21" viewBox="0 0 28 21" fill="none" xmlns="http://www.w3.org/2000/svg">
<path d="M9.83203 0C3.03516 0 0 3.12891 0 9.52734V16.875C0 19.2422 1.21875 20.4375 3.59766 20.4375H23.4375C25.8164 20.4375 27.0352 19.2305 27.0352 16.875V9.52734C27.0352 3.12891 24 0 17.2031 0H9.83203Z" fill="#FFCC00"/>
<path d="M8.51953 14.9766C8.01562 14.9766 7.66406 14.6836 7.66406 14.168C7.66406 13.9102 7.72266 13.7109 7.85156 13.4766L11.3555 7.04297V6.98438H8.39062C7.99219 6.98438 7.66406 6.65625 7.66406 6.26953C7.66406 5.88281 7.99219 5.56641 8.39062 5.56641H12.3867C12.9023 5.56641 13.2422 5.89453 13.2422 6.38672C13.2422 6.66797 13.1484 6.84375 13.0312 7.06641L9.5625 13.4766V13.5586H12.6797C13.0664 13.5586 13.3945 13.8867 13.3945 14.2617C13.3945 14.6484 13.0664 14.9766 12.6797 14.9766H8.51953ZM15.7148 14.9414C15.1875 14.9414 14.8828 14.6016 14.8828 14.0508V6.24609C14.8828 5.77734 15.2695 5.39062 15.7383 5.39062C16.1836 5.39062 16.5703 5.77734 16.5703 6.24609V13.5117H19.0547C19.4414 13.5117 19.7695 13.8398 19.7695 14.2266C19.7695 14.6133 19.4414 14.9414 19.0547 14.9414H15.7148Z" fill="black" fill-opacity="0.85"/>
</svg>
