<svg width="28" height="21" viewBox="0 0 28 21" fill="none" xmlns="http://www.w3.org/2000/svg">
<path d="M9.83203 0C3.03516 0 0 3.12891 0 9.52734V16.875C0 19.2422 1.21875 20.4375 3.59766 20.4375H23.4375C25.8164 20.4375 27.0352 19.2305 27.0352 16.875V9.52734C27.0352 3.12891 24 0 17.2031 0H9.83203ZM9.83203 1.88672H17.1914C22.7344 1.88672 25.1484 4.28906 25.1484 9.39844V16.7812C25.1484 17.9531 24.5156 18.5508 23.3906 18.5508H3.64453C2.49609 18.5508 1.88672 17.9531 1.88672 16.7812V9.39844C1.88672 4.28906 4.30078 1.88672 9.83203 1.88672Z" fill="#007AFF"/>
<path d="M8.47266 15.0117H12.668C13.0547 15.0117 13.3828 14.6836 13.3828 14.2969C13.3828 13.9102 13.0547 13.582 12.668 13.582H9.52734V13.5117L13.0312 7.03125C13.1484 6.80859 13.2305 6.62109 13.2305 6.33984C13.2305 5.84766 12.8906 5.50781 12.375 5.50781H8.33203C7.94531 5.50781 7.61719 5.83594 7.61719 6.22266C7.61719 6.60938 7.94531 6.9375 8.33203 6.9375H11.3438V7.00781L7.80469 13.5C7.66406 13.7461 7.61719 13.9336 7.61719 14.2031C7.61719 14.7188 7.96875 15.0117 8.47266 15.0117ZM15.7266 14.9766H19.0898C19.4883 14.9766 19.8047 14.6484 19.8047 14.2617C19.8047 13.875 19.4883 13.5469 19.0898 13.5469H16.582V6.19922C16.582 5.73047 16.1953 5.34375 15.7383 5.34375C15.2812 5.34375 14.8945 5.73047 14.8945 6.19922V14.0859C14.8945 14.6367 15.1875 14.9766 15.7266 14.9766Z" fill="black" fill-opacity="0.85"/>
</svg>
