<svg width="28" height="21" viewBox="0 0 28 21" fill="none" xmlns="http://www.w3.org/2000/svg">
<path d="M9.83203 0C3.03516 0 0 3.12891 0 9.52734V16.875C0 19.2422 1.21875 20.4375 3.59766 20.4375H23.4375C25.8164 20.4375 27.0352 19.2305 27.0352 16.875V9.52734C27.0352 3.12891 24 0 17.2031 0H9.83203Z" fill="#FFCC00"/>
<path d="M7.76953 14.9766C7.26562 14.9766 6.91406 14.6836 6.91406 14.168C6.91406 13.8984 6.96094 13.7109 7.10156 13.4766L10.6172 7.04297V6.98438H7.62891C7.24219 6.98438 6.91406 6.65625 6.91406 6.25781C6.91406 5.87109 7.24219 5.55469 7.62891 5.55469H11.6367C12.1406 5.55469 12.4805 5.88281 12.4805 6.38672C12.4805 6.66797 12.3984 6.84375 12.293 7.06641L8.82422 13.4766V13.5469H11.9414C12.3164 13.5469 12.6445 13.875 12.6445 14.25C12.6445 14.6484 12.3164 14.9766 11.9414 14.9766H7.76953ZM15 15.082C14.4492 15.082 14.1328 14.7305 14.1328 14.1914V6.42188C14.1328 5.87109 14.4492 5.54297 14.9883 5.54297H16.9688C18.7734 5.54297 19.8984 6.55078 19.8984 8.4375C19.8984 9.49219 19.5 10.5117 18.5625 10.9922L19.6641 13.6172C19.7812 13.8867 19.8516 14.1328 19.8516 14.25C19.8516 14.8477 19.4297 15.082 19.043 15.082C18.5859 15.082 18.3281 14.8242 18.1523 14.3906L16.957 11.3438H15.8555V14.1914C15.8555 14.7422 15.5273 15.082 15 15.082ZM15.8555 10.0898H16.8047C17.7539 10.0898 18.1758 9.41016 18.1758 8.47266C18.1758 7.54688 17.6953 6.89062 16.8047 6.89062H15.8555V10.0898Z" fill="black" fill-opacity="0.85"/>
</svg>
