<svg width="24" height="24" viewBox="0 0 24 24" fill="none" xmlns="http://www.w3.org/2000/svg">
<g clip-path="url(#clip0_2207_26311)">
<path d="M11.9553 23.9062C18.4944 23.9062 23.9084 18.4805 23.9084 11.9531C23.9084 5.41406 18.4827 0 11.9436 0C5.41626 0 0.00219727 5.41406 0.00219727 11.9531C0.00219727 18.4805 5.42798 23.9062 11.9553 23.9062Z" fill="black" fill-opacity="0.85"/>
<path d="M11.9553 17.707C9.40064 17.707 7.6897 15.3984 7.6897 11.9531C7.6897 8.50781 9.40064 6.19922 11.9553 6.19922C14.5217 6.19922 16.2327 8.50781 16.2327 11.9531C16.2327 15.3984 14.5217 17.707 11.9553 17.707ZM11.9553 16.1484C13.3967 16.1484 14.3694 14.4727 14.3694 11.9531C14.3694 9.43359 13.3967 7.75781 11.9553 7.75781C10.5139 7.75781 9.54126 9.43359 9.54126 11.9531C9.54126 14.4727 10.5139 16.1484 11.9553 16.1484Z" fill="white"/>
</g>
<defs>
<clipPath id="clip0_2207_26311">
<rect width="23.9062" height="23.918" fill="white" transform="translate(0.00219727)"/>
</clipPath>
</defs>
</svg>
