<svg width="22" height="22" viewBox="0 0 22 22" fill="none" xmlns="http://www.w3.org/2000/svg">
<g clip-path="url(#clip0_2207_26316)">
<path d="M3.68384 21.5977H17.8987C20.3597 21.5977 21.5784 20.3789 21.5784 17.9648V3.65625C21.5784 1.24219 20.3597 0.0234375 17.8987 0.0234375H3.68384C1.23462 0.0234375 0.00415039 1.23047 0.00415039 3.65625V17.9648C0.00415039 20.3906 1.23462 21.5977 3.68384 21.5977ZM3.70727 19.7109C2.5354 19.7109 1.89087 19.0898 1.89087 17.8711V3.75C1.89087 2.53125 2.5354 1.91016 3.70727 1.91016H17.8752C19.0354 1.91016 19.6917 2.53125 19.6917 3.75V17.8711C19.6917 19.0898 19.0354 19.7109 17.8752 19.7109H3.70727Z" fill="black" fill-opacity="0.85"/>
<path d="M10.7972 16.3711C13.2815 16.3711 14.9455 14.1328 14.9455 10.793C14.9455 7.45312 13.2815 5.21484 10.7972 5.21484C8.32446 5.21484 6.6604 7.45312 6.6604 10.793C6.6604 14.1328 8.32446 16.3711 10.7972 16.3711ZM10.7972 14.8711C9.40259 14.8711 8.45337 13.2422 8.45337 10.793C8.45337 8.34375 9.40259 6.71484 10.7972 6.71484C12.2034 6.71484 13.1409 8.34375 13.1409 10.793C13.1409 13.2422 12.2034 14.8711 10.7972 14.8711Z" fill="black" fill-opacity="0.85"/>
</g>
<defs>
<clipPath id="clip0_2207_26316">
<rect width="21.5742" height="21.5977" fill="white" transform="translate(0.00415039)"/>
</clipPath>
</defs>
</svg>
