<svg width="24" height="24" viewBox="0 0 24 24" fill="none" xmlns="http://www.w3.org/2000/svg">
<g clip-path="url(#clip0_2207_26591)">
<path d="M11.9719 23.9062C18.511 23.9062 23.925 18.4805 23.925 11.9531C23.925 5.41406 18.4993 0 11.9602 0C5.43286 0 0.0187988 5.41406 0.0187988 11.9531C0.0187988 18.4805 5.44458 23.9062 11.9719 23.9062Z" fill="black" fill-opacity="0.85"/>
<path d="M9.00708 17.0859C6.60474 17.0859 5.87818 14.3906 5.87818 11.9531C5.87818 9.51562 6.60474 6.82031 9.00708 6.82031C11.4211 6.82031 12.1477 9.51562 12.1477 11.9531C12.1477 14.3906 11.4211 17.0859 9.00708 17.0859ZM9.00708 15.6445C9.99146 15.6445 10.3665 14.0508 10.3665 11.9531C10.3665 9.84375 9.99146 8.26172 9.00708 8.26172C8.02271 8.26172 7.64771 9.84375 7.64771 11.9531C7.64771 14.0508 8.02271 15.6445 9.00708 15.6445ZM16.2844 16.9688C15.7805 16.9688 15.3821 16.5703 15.3821 16.0781V8.75391L14.2688 9.64453C14.1516 9.73828 14.0344 9.79688 13.8469 9.79688C13.4719 9.79688 13.2141 9.52734 13.2141 9.15234C13.2141 8.83594 13.3899 8.60156 13.6008 8.4375L14.9368 7.40625C15.2063 7.19531 15.6282 6.91406 16.1321 6.91406C16.7649 6.91406 17.1516 7.27734 17.1516 7.89844V16.0781C17.1516 16.5703 16.7532 16.9688 16.2844 16.9688Z" fill="white"/>
</g>
<defs>
<clipPath id="clip0_2207_26591">
<rect width="23.9062" height="23.918" fill="white" transform="translate(0.0187988)"/>
</clipPath>
</defs>
</svg>
