<svg width="24" height="24" viewBox="0 0 24 24" fill="none" xmlns="http://www.w3.org/2000/svg">
<g clip-path="url(#clip0_2207_26606)">
<path d="M11.9782 23.9062C18.5173 23.9062 23.9313 18.4805 23.9313 11.9531C23.9313 5.41406 18.5056 0 11.9665 0C5.43921 0 0.0251465 5.41406 0.0251465 11.9531C0.0251465 18.4805 5.45093 23.9062 11.9782 23.9062ZM11.9782 21.9141C6.44703 21.9141 2.02906 17.4844 2.02906 11.9531C2.02906 6.42188 6.43531 1.99219 11.9665 1.99219C17.4978 1.99219 21.9392 6.42188 21.9392 11.9531C21.9392 17.4844 17.5095 21.9141 11.9782 21.9141Z" fill="black" fill-opacity="0.85"/>
<path d="M8.40406 16.9336C10.7478 16.9336 11.4392 14.3086 11.4392 11.9531C11.4392 9.59766 10.7478 6.97266 8.40406 6.97266C6.07203 6.97266 5.38062 9.59766 5.38062 11.9531C5.38062 14.3086 6.07203 16.9336 8.40406 16.9336ZM8.40406 15.5391C7.44312 15.5391 7.07983 13.9805 7.07983 11.9531C7.07983 9.91406 7.44312 8.35547 8.40406 8.35547C9.36498 8.35547 9.72827 9.91406 9.72827 11.9531C9.72827 13.9805 9.36498 15.5391 8.40406 15.5391ZM13.4899 16.6875H17.5563C17.9782 16.6875 18.2243 16.418 18.2243 16.0078C18.2243 15.5625 17.9665 15.3164 17.5563 15.3164H14.779V15.2227L16.4899 13.0547C17.6618 11.6016 18.0485 10.7344 18.0485 9.70312C18.0485 8.12109 16.9704 6.97266 15.3532 6.97266C13.8532 6.97266 12.7165 8.21484 12.7165 9.43359C12.7165 9.86719 12.9743 10.1719 13.4196 10.1719C13.8063 10.1719 14.0407 9.99609 14.1696 9.60938C14.3806 8.82422 14.6735 8.33203 15.3532 8.33203C16.0563 8.33203 16.4548 8.95312 16.4548 9.78516C16.4548 10.7227 15.7985 11.6719 15.1774 12.4688L13.1384 15.0703C12.9274 15.3516 12.7048 15.6445 12.7048 16.0078C12.7048 16.4062 12.9626 16.6875 13.4899 16.6875Z" fill="black" fill-opacity="0.85"/>
</g>
<defs>
<clipPath id="clip0_2207_26606">
<rect width="23.9062" height="23.918" fill="white" transform="translate(0.0251465)"/>
</clipPath>
</defs>
</svg>
