<svg width="22" height="22" viewBox="0 0 22 22" fill="none" xmlns="http://www.w3.org/2000/svg">
<g clip-path="url(#clip0_2207_26616)">
<path d="M3.70911 21.5977H17.9239C20.3849 21.5977 21.6036 20.3789 21.6036 17.9648V3.65625C21.6036 1.24219 20.3849 0.0234375 17.9239 0.0234375H3.70911C1.25989 0.0234375 0.0294189 1.23047 0.0294189 3.65625V17.9648C0.0294189 20.3906 1.25989 21.5977 3.70911 21.5977ZM3.73254 19.7109C2.56067 19.7109 1.91614 19.0898 1.91614 17.8711V3.75C1.91614 2.53125 2.56067 1.91016 3.73254 1.91016H17.9005C19.0606 1.91016 19.7169 2.53125 19.7169 3.75V17.8711C19.7169 19.0898 19.0606 19.7109 17.9005 19.7109H3.73254Z" fill="black" fill-opacity="0.85"/>
<path d="M7.25989 15.7734C9.60364 15.7734 10.295 13.1484 10.295 10.793C10.295 8.4375 9.60364 5.8125 7.25989 5.8125C4.92786 5.8125 4.23645 8.4375 4.23645 10.793C4.23645 13.1484 4.92786 15.7734 7.25989 15.7734ZM7.25989 14.3789C6.31067 14.3789 5.94739 12.8203 5.94739 10.793C5.94739 8.75391 6.31067 7.19531 7.25989 7.19531C8.22083 7.19531 8.58411 8.75391 8.58411 10.793C8.58411 12.8203 8.22083 14.3789 7.25989 14.3789ZM12.3575 15.5273H16.4239C16.8341 15.5273 17.0802 15.2578 17.0802 14.8477C17.0802 14.4023 16.8224 14.1562 16.4239 14.1562H13.6349V14.0625L15.3458 11.8945C16.5177 10.4414 16.9044 9.57422 16.9044 8.54297C16.9044 6.96094 15.8263 5.8125 14.2091 5.8125C12.7208 5.8125 11.5724 7.05469 11.5724 8.27344C11.5724 8.70703 11.8302 9.01172 12.2755 9.01172C12.6622 9.01172 12.9083 8.83594 13.0255 8.44922C13.2482 7.66406 13.5294 7.17188 14.2091 7.17188C14.9122 7.17188 15.3106 7.79297 15.3106 8.625C15.3106 9.5625 14.6544 10.5117 14.0333 11.3086L11.9942 13.9102C11.7833 14.1914 11.5606 14.4844 11.5606 14.8477C11.5606 15.2461 11.8185 15.5273 12.3575 15.5273Z" fill="black" fill-opacity="0.85"/>
</g>
<defs>
<clipPath id="clip0_2207_26616">
<rect width="21.5742" height="21.5977" fill="white" transform="translate(0.0294189)"/>
</clipPath>
</defs>
</svg>
