<svg width="24" height="24" viewBox="0 0 24 24" fill="none" xmlns="http://www.w3.org/2000/svg">
<g clip-path="url(#clip0_2207_26651)">
<path d="M11.9972 23.9062C18.5363 23.9062 23.9503 18.4805 23.9503 11.9531C23.9503 5.41406 18.5246 0 11.9855 0C5.45813 0 0.0440674 5.41406 0.0440674 11.9531C0.0440674 18.4805 5.46985 23.9062 11.9972 23.9062Z" fill="black" fill-opacity="0.85"/>
<path d="M8.14173 17.0859C5.71595 17.0859 5.0011 14.3906 5.0011 11.9531C5.0011 9.51562 5.71595 6.82031 8.14173 6.82031C10.5441 6.82031 11.2589 9.51562 11.2589 11.9531C11.2589 14.3906 10.5441 17.0859 8.14173 17.0859ZM8.14173 15.6445C9.11438 15.6445 9.48938 14.0508 9.48938 11.9531C9.48938 9.84375 9.11438 8.26172 8.14173 8.26172C7.15735 8.26172 6.78235 9.84375 6.78235 11.9531C6.78235 14.0508 7.15735 15.6445 8.14173 15.6445ZM17.1066 16.9922C16.7199 16.9922 16.2746 16.7695 16.2746 16.1367V14.9297H13.5675C12.9816 14.9297 12.5714 14.5312 12.5714 13.9453C12.5714 13.5703 12.6535 13.2539 12.841 12.7852L14.9972 8.09766C15.3371 7.34766 15.7355 6.91406 16.6027 6.91406C17.3879 6.91406 17.9386 7.38281 17.9386 8.22656V13.5234H18.3722C18.8527 13.5234 19.0636 13.8281 19.0636 14.2148C19.0636 14.625 18.8293 14.9297 18.3722 14.9297H17.9386V16.1367C17.9386 16.7109 17.5636 16.9922 17.1066 16.9922ZM16.3097 13.5586V8.4375H16.2629L14.0714 13.4766V13.5586H16.3097Z" fill="white"/>
</g>
<defs>
<clipPath id="clip0_2207_26651">
<rect width="23.9062" height="23.918" fill="white" transform="translate(0.0440674)"/>
</clipPath>
</defs>
</svg>
