<svg width="22" height="22" viewBox="0 0 22 22" fill="none" xmlns="http://www.w3.org/2000/svg">
<g clip-path="url(#clip0_2207_26681)">
<path d="M3.73633 21.5977H17.9511C20.4121 21.5977 21.6308 20.3789 21.6308 17.9648V3.65625C21.6308 1.24219 20.4121 0.0234375 17.9511 0.0234375H3.73633C1.28711 0.0234375 0.0566406 1.23047 0.0566406 3.65625V17.9648C0.0566406 20.3906 1.28711 21.5977 3.73633 21.5977Z" fill="black" fill-opacity="0.85"/>
<path d="M7.06445 15.9258C4.66211 15.9258 3.93555 13.2305 3.93555 10.793C3.93555 8.35547 4.66211 5.66016 7.06445 5.66016C9.47852 5.66016 10.205 8.35547 10.205 10.793C10.205 13.2305 9.47852 15.9258 7.06445 15.9258ZM7.06445 14.4844C8.04883 14.4844 8.42383 12.8906 8.42383 10.793C8.42383 8.68359 8.04883 7.10156 7.06445 7.10156C6.08008 7.10156 5.70508 8.68359 5.70508 10.793C5.70508 12.8906 6.08008 14.4844 7.06445 14.4844ZM14.541 15.9258C13.4511 15.9258 12.3847 15.293 11.9511 14.3086C11.8457 14.0742 11.7754 13.8047 11.7754 13.5234C11.7754 13.0781 12.0683 12.7969 12.5019 12.7969C12.83 12.7969 13.0996 12.9844 13.2402 13.3711C13.4628 14.0273 13.8496 14.5078 14.5175 14.5078C15.4082 14.5078 15.7597 13.4883 15.7597 12.4805C15.7597 11.5898 15.4199 10.5234 14.541 10.5234C14.0488 10.5234 13.7441 10.8047 13.4746 11.2031C13.2168 11.5312 13.0293 11.6602 12.7128 11.6602C12.1386 11.6602 11.9043 11.25 11.9043 10.793C11.9043 10.6289 11.9043 10.4414 11.9277 10.2539L12.1269 6.94922C12.1621 6.32812 12.455 5.90625 13.0761 5.90625H16.4043C16.8027 5.90625 17.0839 6.22266 17.0839 6.62109C17.0839 7.05469 16.8144 7.34766 16.4043 7.34766H13.5683L13.3808 10.2773H13.4277C13.7324 9.57422 14.4004 9.24609 15.1035 9.24609C16.6621 9.24609 17.4589 10.7695 17.4589 12.4336C17.4589 14.3438 16.4277 15.9258 14.541 15.9258Z" fill="white"/>
</g>
<defs>
<clipPath id="clip0_2207_26681">
<rect width="21.5742" height="21.5977" fill="white" transform="translate(0.0566406)"/>
</clipPath>
</defs>
</svg>
