<svg width="22" height="22" viewBox="0 0 22 22" fill="none" xmlns="http://www.w3.org/2000/svg">
<g clip-path="url(#clip0_2207_26676)">
<path d="M3.73438 21.5977H17.9492C20.4102 21.5977 21.6289 20.3789 21.6289 17.9648V3.65625C21.6289 1.24219 20.4102 0.0234375 17.9492 0.0234375H3.73438C1.28516 0.0234375 0.0546875 1.23047 0.0546875 3.65625V17.9648C0.0546875 20.3906 1.28516 21.5977 3.73438 21.5977ZM3.75781 19.7109C2.58594 19.7109 1.94141 19.0898 1.94141 17.8711V3.75C1.94141 2.53125 2.58594 1.91016 3.75781 1.91016H17.9258C19.0859 1.91016 19.7422 2.53125 19.7422 3.75V17.8711C19.7422 19.0898 19.0859 19.7109 17.9258 19.7109H3.75781Z" fill="black" fill-opacity="0.85"/>
<path d="M7.17969 15.7734C9.51172 15.7734 10.2149 13.1484 10.2149 10.793C10.2149 8.4375 9.51172 5.8125 7.17969 5.8125C4.84766 5.8125 4.14453 8.4375 4.14453 10.793C4.14453 13.1484 4.84766 15.7734 7.17969 15.7734ZM7.17969 14.3789C6.21875 14.3789 5.85547 12.8203 5.85547 10.793C5.85547 8.75391 6.21875 7.19531 7.17969 7.19531C8.14063 7.19531 8.50391 8.75391 8.50391 10.793C8.50391 12.8203 8.14063 14.3789 7.17969 14.3789ZM14.4219 15.7734C16.25 15.7734 17.2461 14.2383 17.2461 12.3867C17.2461 10.7695 16.4727 9.29297 14.9609 9.29297C14.2813 9.29297 13.6367 9.60938 13.332 10.2891H13.2852L13.4727 7.44141H16.2266C16.6367 7.44141 16.8828 7.16016 16.8828 6.75C16.8828 6.36328 16.6133 6.05859 16.2266 6.05859H13.0039C12.3945 6.05859 12.1133 6.45703 12.0781 7.06641L11.8906 10.2773C11.8672 10.4531 11.8672 10.6406 11.8672 10.793C11.8672 11.2383 12.0899 11.6367 12.6406 11.6367C12.957 11.6367 13.1328 11.5078 13.3789 11.1914C13.6485 10.8047 13.9414 10.5234 14.4219 10.5234C15.2774 10.5234 15.6172 11.5664 15.6172 12.4336C15.6172 13.4062 15.2656 14.4023 14.3985 14.4023C13.7422 14.4023 13.3672 13.9336 13.1563 13.2891C13.0156 12.9141 12.7578 12.7383 12.4414 12.7383C12.0195 12.7383 11.7383 13.0078 11.7383 13.4414C11.7383 13.7109 11.8086 13.9688 11.9141 14.2031C12.3242 15.1523 13.3555 15.7734 14.4219 15.7734Z" fill="black" fill-opacity="0.85"/>
</g>
<defs>
<clipPath id="clip0_2207_26676">
<rect width="21.5742" height="21.5977" fill="white" transform="translate(0.0546875)"/>
</clipPath>
</defs>
</svg>
