<svg width="24" height="24" viewBox="0 0 24 24" fill="none" xmlns="http://www.w3.org/2000/svg">
<g clip-path="url(#clip0_2207_26691)">
<path d="M12.0141 23.9062C18.5532 23.9062 23.9672 18.4805 23.9672 11.9531C23.9672 5.41406 18.5415 0 12.0024 0C5.47509 0 0.0610352 5.41406 0.0610352 11.9531C0.0610352 18.4805 5.48682 23.9062 12.0141 23.9062Z" fill="black" fill-opacity="0.85"/>
<path d="M8.04151 17.0859C5.62745 17.0859 4.9126 14.3906 4.9126 11.9531C4.9126 9.51562 5.62745 6.82031 8.04151 6.82031C10.4438 6.82031 11.1704 9.51562 11.1704 11.9531C11.1704 14.3906 10.4438 17.0859 8.04151 17.0859ZM8.04151 15.6445C9.02588 15.6445 9.40088 14.0508 9.40088 11.9531C9.40088 9.84375 9.02588 8.26172 8.04151 8.26172C7.05713 8.26172 6.68213 9.84375 6.68213 11.9531C6.68213 14.0508 7.05713 15.6445 8.04151 15.6445ZM15.7641 17.0859C13.3149 17.0859 12.5766 14.3555 12.5766 12.0703C12.5766 9.62109 13.3032 6.84375 15.7876 6.84375C16.9946 6.84375 18.0493 7.48828 18.2954 8.53125C18.3422 8.68359 18.3657 8.83594 18.3657 8.96484C18.3657 9.36328 18.143 9.69141 17.6508 9.69141C17.2641 9.69141 17.0415 9.52734 16.8657 9.15234C16.6548 8.64844 16.2915 8.26172 15.7524 8.26172C14.393 8.26172 14.2407 10.6875 14.2407 12.0234C14.2407 12.0586 14.2407 12.1055 14.2407 12.1523H14.2876C14.5571 11.1211 15.3071 10.4648 16.2798 10.4648C17.8735 10.4648 18.6704 12.0117 18.6704 13.6406C18.6704 15.5391 17.6157 17.0859 15.7641 17.0859ZM15.7407 15.668C16.5727 15.668 16.9712 14.6016 16.9712 13.7227C16.9946 12.832 16.6313 11.7891 15.7407 11.7891C14.8735 11.7891 14.4751 12.7852 14.4751 13.6758C14.4751 14.5312 14.8266 15.668 15.7407 15.668Z" fill="white"/>
</g>
<defs>
<clipPath id="clip0_2207_26691">
<rect width="23.9062" height="23.918" fill="white" transform="translate(0.0610352)"/>
</clipPath>
</defs>
</svg>
