<svg width="24" height="24" viewBox="0 0 24 24" fill="none" xmlns="http://www.w3.org/2000/svg">
<g clip-path="url(#clip0_2207_26686)">
<path d="M12.0119 23.9062C18.551 23.9062 23.965 18.4805 23.965 11.9531C23.965 5.41406 18.5393 0 12.0002 0C5.4729 0 0.0588379 5.41406 0.0588379 11.9531C0.0588379 18.4805 5.48462 23.9062 12.0119 23.9062ZM12.0119 21.9141C6.48072 21.9141 2.06275 17.4844 2.06275 11.9531C2.06275 6.42188 6.469 1.99219 12.0002 1.99219C17.5315 1.99219 21.9729 6.42188 21.9729 11.9531C21.9729 17.4844 17.5432 21.9141 12.0119 21.9141Z" fill="black" fill-opacity="0.85"/>
<path d="M8.14478 16.9336C10.4768 16.9336 11.1799 14.3086 11.1799 11.9531C11.1799 9.59766 10.4768 6.97266 8.14478 6.97266C5.80103 6.97266 5.10962 9.59766 5.10962 11.9531C5.10962 14.3086 5.80103 16.9336 8.14478 16.9336ZM8.14478 15.5391C7.18384 15.5391 6.82056 13.9805 6.82056 11.9531C6.82056 9.91406 7.18384 8.35547 8.14478 8.35547C9.10572 8.35547 9.469 9.91406 9.469 11.9531C9.469 13.9805 9.10572 15.5391 8.14478 15.5391ZM15.6213 16.9336C17.4143 16.9336 18.4455 15.4336 18.4455 13.5938C18.4455 12.0117 17.6721 10.5117 16.1252 10.5117C15.176 10.5117 14.4494 11.1445 14.1916 12.1523H14.1447C14.1447 12.1055 14.1447 12.0586 14.1447 12.0234C14.1447 10.7227 14.2971 8.36719 15.6096 8.36719C16.1369 8.36719 16.4885 8.74219 16.6994 9.23438C16.8635 9.59766 17.0861 9.76172 17.4611 9.76172C17.9299 9.76172 18.1408 9.44531 18.1408 9.05859C18.1408 8.92969 18.1174 8.78906 18.0822 8.63672C17.8361 7.62891 16.8166 6.99609 15.6447 6.99609C13.2424 6.99609 12.5393 9.69141 12.5393 12.0703C12.5393 14.2852 13.2541 16.9336 15.6213 16.9336ZM15.5979 15.5625C14.719 15.5625 14.3674 14.4609 14.3674 13.6172C14.3674 12.7617 14.7541 11.7891 15.5979 11.7891C16.465 11.7891 16.8283 12.7969 16.8049 13.6641C16.8049 14.5195 16.4182 15.5625 15.5979 15.5625Z" fill="black" fill-opacity="0.85"/>
</g>
<defs>
<clipPath id="clip0_2207_26686">
<rect width="23.9062" height="23.918" fill="white" transform="translate(0.0588379)"/>
</clipPath>
</defs>
</svg>
