<svg width="24" height="24" viewBox="0 0 24 24" fill="none" xmlns="http://www.w3.org/2000/svg">
<g clip-path="url(#clip0_2207_26706)">
<path d="M12.0202 23.9062C18.5593 23.9062 23.9733 18.4805 23.9733 11.9531C23.9733 5.41406 18.5476 0 12.0085 0C5.4812 0 0.0671387 5.41406 0.0671387 11.9531C0.0671387 18.4805 5.49292 23.9062 12.0202 23.9062ZM12.0202 21.9141C6.48902 21.9141 2.07105 17.4844 2.07105 11.9531C2.07105 6.42188 6.4773 1.99219 12.0085 1.99219C17.5398 1.99219 21.9812 6.42188 21.9812 11.9531C21.9812 17.4844 17.5515 21.9141 12.0202 21.9141Z" fill="black" fill-opacity="0.85"/>
<path d="M8.75073 16.9336C11.0827 16.9336 11.7859 14.3086 11.7859 11.9531C11.7859 9.59766 11.0827 6.97266 8.75073 6.97266C6.40698 6.97266 5.71558 9.59766 5.71558 11.9531C5.71558 14.3086 6.40698 16.9336 8.75073 16.9336ZM8.75073 15.5391C7.7898 15.5391 7.42652 13.9805 7.42652 11.9531C7.42652 9.91406 7.7898 8.35547 8.75073 8.35547C9.71167 8.35547 10.0749 9.91406 10.0749 11.9531C10.0749 13.9805 9.71167 15.5391 8.75073 15.5391ZM14.4577 16.8516C14.8796 16.8516 15.0788 16.6758 15.2312 16.2539L17.9148 9.10547C18.0437 8.74219 18.1257 8.46094 18.1257 8.12109C18.1257 7.58203 17.7155 7.21875 17.1999 7.21875H13.403C13.0046 7.21875 12.7351 7.51172 12.7351 7.91016C12.7351 8.30859 13.0046 8.60156 13.403 8.60156H16.4148V8.70703L13.8249 15.4336C13.7194 15.6914 13.6843 15.8438 13.6843 16.125C13.6843 16.4648 13.8952 16.8516 14.4577 16.8516Z" fill="black" fill-opacity="0.85"/>
</g>
<defs>
<clipPath id="clip0_2207_26706">
<rect width="23.9062" height="23.918" fill="white" transform="translate(0.0671387)"/>
</clipPath>
</defs>
</svg>
