<svg width="22" height="22" viewBox="0 0 22 22" fill="none" xmlns="http://www.w3.org/2000/svg">
<g clip-path="url(#clip0_2207_26741)">
<path d="M3.76172 21.5977H17.9765C20.4375 21.5977 21.6562 20.3789 21.6562 17.9648V3.65625C21.6562 1.24219 20.4375 0.0234375 17.9765 0.0234375H3.76172C1.3125 0.0234375 0.0820312 1.23047 0.0820312 3.65625V17.9648C0.0820312 20.3906 1.3125 21.5977 3.76172 21.5977Z" fill="black" fill-opacity="0.85"/>
<path d="M7.04297 15.9258C4.62891 15.9258 3.90234 13.2305 3.90234 10.793C3.90234 8.35547 4.62891 5.66016 7.04297 5.66016C9.44531 5.66016 10.1718 8.35547 10.1718 10.793C10.1718 13.2305 9.44531 15.9258 7.04297 15.9258ZM7.04297 14.4844C8.02734 14.4844 8.40234 12.8906 8.40234 10.793C8.40234 8.68359 8.02734 7.10156 7.04297 7.10156C6.05859 7.10156 5.68359 8.68359 5.68359 10.793C5.68359 12.8906 6.05859 14.4844 7.04297 14.4844ZM14.6953 15.8906C12.9258 15.8906 11.5664 14.8359 11.5664 13.043C11.5664 11.7305 12.3515 10.7812 13.3945 10.5469V10.5117C12.6211 10.2773 11.8359 9.55078 11.8359 8.32031C11.8359 6.62109 13.1953 5.70703 14.6953 5.70703C16.4062 5.70703 17.5664 6.76172 17.5664 8.33203C17.5664 9.48047 16.8398 10.2656 16.0312 10.5117V10.5469C16.9922 10.7695 17.8359 11.7188 17.8359 13.043C17.8359 14.6953 16.6054 15.8906 14.6953 15.8906ZM14.6953 9.96094C15.457 9.96094 15.8554 9.29297 15.8554 8.49609C15.8554 7.72266 15.4804 7.00781 14.6953 7.00781C13.9453 7.00781 13.5351 7.72266 13.5351 8.49609C13.5351 9.21094 13.9218 9.96094 14.6953 9.96094ZM14.6953 14.5781C15.5742 14.5781 16.0078 13.8047 16.0078 12.9023C16.0078 11.9883 15.5508 11.2734 14.6953 11.2734C13.8281 11.2734 13.3828 12.0352 13.3828 12.9023C13.3828 13.8047 13.8164 14.5781 14.6953 14.5781Z" fill="white"/>
</g>
<defs>
<clipPath id="clip0_2207_26741">
<rect width="21.5742" height="21.5977" fill="white" transform="translate(0.0820312)"/>
</clipPath>
</defs>
</svg>
