<svg width="22" height="18" viewBox="0 0 22 18" fill="none" xmlns="http://www.w3.org/2000/svg">
<g clip-path="url(#clip0_2207_2971)">
<path d="M0.0986328 16.7344C0.0986328 17.25 0.520508 17.6836 1.03613 17.6836C1.56347 17.6836 1.98535 17.25 1.98535 16.7344V0.960938C1.98535 0.445312 1.56347 0.0234375 1.03613 0.0234375C0.520508 0.0234375 0.0986328 0.445312 0.0986328 0.960938V16.7344ZM19.7861 16.7344C19.7861 17.25 20.2197 17.6836 20.7353 17.6836C21.2509 17.6836 21.6728 17.25 21.6728 16.7344V0.960938C21.6728 0.445312 21.2509 0.0234375 20.7353 0.0234375C20.2197 0.0234375 19.7861 0.445312 19.7861 0.960938V16.7344Z" fill="black" fill-opacity="0.85"/>
<path d="M11.4072 13.6523C11.9111 13.6523 12.2158 13.3008 12.2158 12.7969V5.39062C12.2158 4.80469 11.8525 4.47656 11.2783 4.47656C10.8095 4.47656 10.4814 4.67578 10.1064 4.95703L8.78223 5.94141C8.55958 6.11719 8.40723 6.30469 8.40723 6.59766C8.40723 6.92578 8.65333 7.19531 8.99317 7.19531C9.15723 7.19531 9.27442 7.13672 9.40333 7.04297L10.5634 6.16406H10.5869V12.7969C10.5869 13.3008 10.8916 13.6523 11.4072 13.6523Z" fill="black" fill-opacity="0.85"/>
</g>
<defs>
<clipPath id="clip0_2207_2971">
<rect width="21.5742" height="17.6836" fill="white" transform="translate(0.0986328)"/>
</clipPath>
</defs>
</svg>
