<svg width="23" height="24" viewBox="0 0 23 24" fill="none" xmlns="http://www.w3.org/2000/svg">
<g clip-path="url(#clip0_2207_5716)">
<path d="M0 9.35302C0 14.5093 4.19531 18.7046 9.35156 18.7046C11.3906 18.7046 13.2539 18.0484 14.7891 16.9468L20.5547 22.7242C20.8242 22.9937 21.1758 23.1226 21.5508 23.1226C22.3477 23.1226 22.8984 22.5249 22.8984 21.7398C22.8984 21.3648 22.7578 21.0249 22.5117 20.7788L16.7812 15.0132C17.9883 13.4429 18.7031 11.4859 18.7031 9.35302C18.7031 4.19677 14.5078 0.00146484 9.35156 0.00146484C4.19531 0.00146484 0 4.19677 0 9.35302ZM2.00391 9.35302C2.00391 5.29834 5.29688 2.00537 9.35156 2.00537C13.4062 2.00537 16.6992 5.29834 16.6992 9.35302C16.6992 13.4077 13.4062 16.7007 9.35156 16.7007C5.29688 16.7007 2.00391 13.4077 2.00391 9.35302ZM9.85547 13.7124C10.3359 13.7124 10.6758 13.5015 10.6758 12.9859V5.79052C10.6758 5.23975 10.3125 4.86474 9.73828 4.86474C9.32812 4.86474 9.09375 4.95849 8.63672 5.2749L7.06641 6.37646C6.75 6.5874 6.65625 6.7749 6.65625 7.06787C6.65625 7.41944 6.96094 7.70069 7.27734 7.70069C7.5 7.70069 7.60547 7.63037 7.80469 7.48974L8.96484 6.66944H9.04688V12.8687C9.04688 13.396 9.375 13.7124 9.85547 13.7124Z" fill="black" fill-opacity="0.85"/>
</g>
<defs>
<clipPath id="clip0_2207_5716">
<rect width="22.8984" height="23.1211" fill="white" transform="translate(0 0.00146484)"/>
</clipPath>
</defs>
</svg>
