<svg width="22" height="22" viewBox="0 0 22 22" fill="none" xmlns="http://www.w3.org/2000/svg">
<g clip-path="url(#clip0_2207_26336)">
<path d="M3.68189 21.5992H17.8967C20.3577 21.5992 21.5764 20.3804 21.5764 17.9663V3.65771C21.5764 1.24365 20.3577 0.0249023 17.8967 0.0249023H3.68189C1.23267 0.0249023 0.00219727 1.23193 0.00219727 3.65771V17.9663C0.00219727 20.3921 1.23267 21.5992 3.68189 21.5992ZM3.70532 19.7124C2.53345 19.7124 1.88892 19.0913 1.88892 17.8726V3.75146C1.88892 2.53271 2.53345 1.91162 3.70532 1.91162H17.8733C19.0334 1.91162 19.6897 2.53271 19.6897 3.75146V17.8726C19.6897 19.0913 19.0334 19.7124 17.8733 19.7124H3.70532Z" fill="black" fill-opacity="0.85"/>
<path d="M11.4045 16.3726C12.0022 16.3726 12.3538 15.9742 12.3538 15.3179V6.271C12.3538 5.59131 11.9905 5.21631 11.3577 5.21631C10.9241 5.21631 10.6194 5.3335 10.1155 5.67335L8.00611 7.10303C7.74829 7.27881 7.64282 7.46631 7.64282 7.75928C7.64282 8.12256 7.93579 8.46241 8.31079 8.46241C8.48658 8.46241 8.61548 8.42725 8.88501 8.25147L10.3967 7.25538H10.4788V15.3179C10.4788 15.9742 10.8186 16.3726 11.4045 16.3726Z" fill="black" fill-opacity="0.85"/>
</g>
<defs>
<clipPath id="clip0_2207_26336">
<rect width="21.5742" height="21.5977" fill="white" transform="translate(0.00219727 0.00146484)"/>
</clipPath>
</defs>
</svg>
