<svg width="22" height="18" viewBox="0 0 22 18" fill="none" xmlns="http://www.w3.org/2000/svg">
<g clip-path="url(#clip0_2207_3021)">
<path d="M0.0209961 16.7359C0.0209961 17.2515 0.442871 17.6851 0.958496 17.6851C1.48584 17.6851 1.90772 17.2515 1.90772 16.7359V0.962403C1.90772 0.446777 1.48584 0.0249023 0.958496 0.0249023C0.442871 0.0249023 0.0209961 0.446777 0.0209961 0.962403V16.7359ZM19.7085 16.7359C19.7085 17.2515 20.1421 17.6851 20.6577 17.6851C21.1733 17.6851 21.5952 17.2515 21.5952 16.7359V0.962403C21.5952 0.446777 21.1733 0.0249023 20.6577 0.0249023C20.1421 0.0249023 19.7085 0.446777 19.7085 0.962403V16.7359Z" fill="black" fill-opacity="0.85"/>
<path d="M8.71631 13.6538C9.22022 13.6538 9.53662 13.2906 9.53662 12.7867V5.38038C9.53662 4.80616 9.17334 4.46631 8.58741 4.46631C8.13038 4.46631 7.79053 4.67725 7.41553 4.9585L6.09131 5.94288C5.86866 6.10694 5.72803 6.30616 5.72803 6.58741C5.72803 6.92725 5.96241 7.18506 6.30225 7.18506C6.46631 7.18506 6.5835 7.13819 6.72412 7.03272L7.88428 6.16553H7.896V12.7867C7.896 13.2906 8.21241 13.6538 8.71631 13.6538ZM14.2827 13.6538C14.7866 13.6538 15.103 13.2906 15.103 12.7867V5.38038C15.103 4.80616 14.7398 4.46631 14.1538 4.46631C13.6968 4.46631 13.3569 4.67725 12.9819 4.9585L11.6577 5.94288C11.4351 6.10694 11.2944 6.30616 11.2944 6.58741C11.2944 6.92725 11.5288 7.18506 11.8687 7.18506C12.0327 7.18506 12.1499 7.13819 12.2905 7.03272L13.4507 6.16553H13.4624V12.7867C13.4624 13.2906 13.7788 13.6538 14.2827 13.6538Z" fill="black" fill-opacity="0.85"/>
</g>
<defs>
<clipPath id="clip0_2207_3021">
<rect width="21.5742" height="17.6836" fill="white" transform="translate(0.0209961 0.00146484)"/>
</clipPath>
</defs>
</svg>
