<svg width="22" height="18" viewBox="0 0 22 18" fill="none" xmlns="http://www.w3.org/2000/svg">
<g clip-path="url(#clip0_2207_3026)">
<path d="M0.0314941 16.7359C0.0314941 17.2515 0.453369 17.6851 0.968994 17.6851C1.49633 17.6851 1.91821 17.2515 1.91821 16.7359V0.962403C1.91821 0.446777 1.49633 0.0249023 0.968994 0.0249023C0.453369 0.0249023 0.0314941 0.446777 0.0314941 0.962403V16.7359ZM19.719 16.7359C19.719 17.2515 20.1526 17.6851 20.6682 17.6851C21.1838 17.6851 21.6057 17.2515 21.6057 16.7359V0.962403C21.6057 0.446777 21.1838 0.0249023 20.6682 0.0249023C20.1526 0.0249023 19.719 0.446777 19.719 0.962403V16.7359Z" fill="black" fill-opacity="0.85"/>
<path d="M8.02368 13.6538C8.52758 13.6538 8.83227 13.2906 8.83227 12.7867V5.38038C8.83227 4.80616 8.46899 4.46631 7.89477 4.46631C7.42602 4.46631 7.08618 4.67725 6.7229 4.9585L5.39868 5.94288C5.1643 6.10694 5.02368 6.30616 5.02368 6.58741C5.02368 6.92725 5.26977 7.18506 5.60961 7.18506C5.77368 7.18506 5.89087 7.13819 6.01977 7.03272L7.17993 6.16553H7.20337V12.7867C7.20337 13.2906 7.50805 13.6538 8.02368 13.6538ZM11.5393 13.6187H15.8518C16.262 13.6187 16.5081 13.3726 16.5081 12.9624C16.5081 12.5523 16.2503 12.3062 15.8518 12.3062H12.8401V12.2242L14.5862 10.2788C14.9963 9.81006 15.3362 9.39991 15.5823 9.06006C16.0393 8.43897 16.2971 7.84131 16.2971 7.06788C16.2971 5.46241 15.1018 4.48975 13.5198 4.48975C12.1604 4.48975 11.0471 5.42725 10.8362 6.48194C10.8127 6.58741 10.801 6.70459 10.801 6.81006C10.801 7.23194 11.0588 7.51319 11.4807 7.51319C11.844 7.51319 12.0667 7.31397 12.2073 6.97413C12.3948 6.24756 12.8284 5.77881 13.5198 5.77881C14.2932 5.77881 14.7268 6.37647 14.7268 7.13819C14.7268 7.70069 14.5276 8.12256 14.2112 8.57959C14.012 8.86085 13.7424 9.21241 13.3909 9.62256L11.2112 12.0718C10.9768 12.3179 10.7776 12.5757 10.7776 12.939C10.7776 13.2671 10.9534 13.6187 11.5393 13.6187Z" fill="black" fill-opacity="0.85"/>
</g>
<defs>
<clipPath id="clip0_2207_3026">
<rect width="21.5742" height="17.6836" fill="white" transform="translate(0.0314941 0.00146484)"/>
</clipPath>
</defs>
</svg>
