<svg width="22" height="22" viewBox="0 0 22 22" fill="none" xmlns="http://www.w3.org/2000/svg">
<g clip-path="url(#clip0_2207_26821)">
<path d="M3.71533 21.5992H17.9301C20.3911 21.5992 21.6098 20.3804 21.6098 17.9663V3.65771C21.6098 1.24365 20.3911 0.0249023 17.9301 0.0249023H3.71533C1.26611 0.0249023 0.0356445 1.23193 0.0356445 3.65771V17.9663C0.0356445 20.3921 1.26611 21.5992 3.71533 21.5992Z" fill="black" fill-opacity="0.85"/>
<path d="M7.68798 15.8101C7.1958 15.8101 6.79736 15.4117 6.79736 14.9312V7.59521L5.6958 8.49755C5.56689 8.57958 5.4497 8.63818 5.25048 8.63818C4.8872 8.63818 4.62939 8.36865 4.62939 7.99365C4.62939 7.67724 4.80517 7.44287 5.02783 7.2788L6.35205 6.25927C6.6333 6.03662 7.04345 5.75537 7.54736 5.75537C8.18017 5.75537 8.56689 6.11865 8.56689 6.73974V14.9312C8.56689 15.4117 8.16845 15.8101 7.68798 15.8101ZM11.2387 15.6812C10.6762 15.6812 10.4067 15.3882 10.4067 14.9781C10.4067 14.6031 10.6411 14.2984 10.8637 14.0054L12.9614 11.3335C13.5942 10.5132 14.2739 9.5288 14.2739 8.55615C14.2739 7.70068 13.8637 7.06787 13.1489 7.06787C12.4458 7.06787 12.1528 7.57177 11.9301 8.38037C11.8012 8.7788 11.5551 8.9663 11.145 8.9663C10.6879 8.9663 10.4184 8.6499 10.4184 8.19287C10.4184 6.93896 11.602 5.66162 13.1489 5.66162C14.8129 5.66162 15.9262 6.84521 15.9262 8.47412C15.9262 9.54052 15.5278 10.4312 14.3208 11.9312L12.5629 14.1577V14.2632H15.434C15.8442 14.2632 16.1137 14.5093 16.1137 14.9781C16.1137 15.3999 15.8559 15.6812 15.434 15.6812H11.2387Z" fill="white"/>
</g>
<defs>
<clipPath id="clip0_2207_26821">
<rect width="21.5742" height="21.5977" fill="white" transform="translate(0.0356445 0.00146484)"/>
</clipPath>
</defs>
</svg>
