<svg width="22" height="22" viewBox="0 0 22 22" fill="none" xmlns="http://www.w3.org/2000/svg">
<g clip-path="url(#clip0_2207_26816)">
<path d="M3.71326 21.5992H17.9281C20.3891 21.5992 21.6078 20.3804 21.6078 17.9663V3.65771C21.6078 1.24365 20.3891 0.0249023 17.9281 0.0249023H3.71326C1.26404 0.0249023 0.0335693 1.23193 0.0335693 3.65771V17.9663C0.0335693 20.3921 1.26404 21.5992 3.71326 21.5992ZM3.73669 19.7124C2.56482 19.7124 1.92029 19.0913 1.92029 17.8726V3.75146C1.92029 2.53271 2.56482 1.91162 3.73669 1.91162H17.9047C19.0648 1.91162 19.7211 2.53271 19.7211 3.75146V17.8726C19.7211 19.0913 19.0648 19.7124 17.9047 19.7124H3.73669Z" fill="black" fill-opacity="0.85"/>
<path d="M7.76795 15.6577C8.23669 15.6577 8.62341 15.271 8.62341 14.8023V6.85694C8.62341 6.25928 8.24841 5.90771 7.63904 5.90771C7.14685 5.90771 6.74841 6.17725 6.47888 6.38819L5.18982 7.38427C4.97888 7.54834 4.81482 7.77099 4.81482 8.07568C4.81482 8.43896 5.06091 8.69677 5.41248 8.69677C5.59998 8.69677 5.71716 8.63819 5.83435 8.55616L6.91248 7.68896V14.8023C6.91248 15.271 7.29919 15.6577 7.76795 15.6577ZM11.2016 15.5288H15.268C15.6781 15.5288 15.9242 15.2593 15.9242 14.8492C15.9242 14.4038 15.6664 14.1577 15.268 14.1577H12.4789V14.064L14.1898 11.896C15.3617 10.4429 15.7484 9.57568 15.7484 8.54443C15.7484 6.9624 14.6703 5.81396 13.0531 5.81396C11.5648 5.81396 10.4164 7.05616 10.4164 8.27491C10.4164 8.7085 10.6742 9.01318 11.1195 9.01318C11.5063 9.01318 11.7524 8.8374 11.8695 8.45068C12.0922 7.66552 12.3734 7.17334 13.0531 7.17334C13.7563 7.17334 14.1547 7.79443 14.1547 8.62646C14.1547 9.56396 13.4984 10.5132 12.8774 11.3101L10.8383 13.9117C10.6274 14.1929 10.4047 14.4859 10.4047 14.8492C10.4047 15.2476 10.6625 15.5288 11.2016 15.5288Z" fill="black" fill-opacity="0.85"/>
</g>
<defs>
<clipPath id="clip0_2207_26816">
<rect width="21.5742" height="21.5977" fill="white" transform="translate(0.0335693 0.00146484)"/>
</clipPath>
</defs>
</svg>
