<svg width="22" height="22" viewBox="0 0 22 22" fill="none" xmlns="http://www.w3.org/2000/svg">
<g clip-path="url(#clip0_2207_26836)">
<path d="M3.72583 21.5992H17.9406C20.4016 21.5992 21.6203 20.3804 21.6203 17.9663V3.65771C21.6203 1.24365 20.4016 0.0249023 17.9406 0.0249023H3.72583C1.27661 0.0249023 0.0461426 1.23193 0.0461426 3.65771V17.9663C0.0461426 20.3921 1.27661 21.5992 3.72583 21.5992ZM3.74926 19.7124C2.57739 19.7124 1.93286 19.0913 1.93286 17.8726V3.75146C1.93286 2.53271 2.57739 1.91162 3.74926 1.91162H17.9172C19.0773 1.91162 19.7336 2.53271 19.7336 3.75146V17.8726C19.7336 19.0913 19.0773 19.7124 17.9172 19.7124H3.74926Z" fill="black" fill-opacity="0.85"/>
<path d="M7.68676 15.6577C8.1438 15.6577 8.53052 15.271 8.53052 14.8023V6.85693C8.53052 6.25927 8.15552 5.90771 7.54614 5.90771C7.06567 5.90771 6.66723 6.17724 6.38598 6.38818L5.09692 7.38427C4.88598 7.54834 4.73364 7.77099 4.73364 8.07568C4.73364 8.43896 4.97973 8.69677 5.3313 8.69677C5.50708 8.69677 5.62426 8.63818 5.74145 8.55615L6.81958 7.68896V14.8023C6.81958 15.271 7.2063 15.6577 7.68676 15.6577ZM13.2649 15.7398C14.9406 15.7398 16.2414 14.6851 16.2414 12.9273C16.2414 11.4742 15.3742 10.7593 14.3781 10.6538V10.6187C15.4445 10.3374 15.9602 9.38818 15.9602 8.4038C15.9602 6.78662 14.7531 5.86084 13.218 5.86084C12.0109 5.86084 10.968 6.54052 10.6281 7.58349C10.5578 7.80615 10.5344 8.01708 10.5344 8.2163C10.5344 8.60302 10.7922 8.90771 11.2609 8.90771C11.6594 8.90771 11.8938 8.75537 11.9992 8.34521C12.1867 7.6538 12.5617 7.22021 13.218 7.22021C13.9914 7.22021 14.3664 7.81787 14.3664 8.5913C14.3664 9.44677 13.8859 10.0679 13.007 10.0679H12.7258C12.3273 10.0679 12.0813 10.314 12.0813 10.7007C12.0813 11.0874 12.3391 11.3101 12.7258 11.3101H13.0188C14.0149 11.3101 14.5656 11.8609 14.5656 12.8804C14.5656 13.689 14.1438 14.3804 13.2649 14.3804C12.4211 14.3804 12.0344 13.8062 11.8938 13.2671C11.7766 12.8921 11.5305 12.6929 11.1555 12.6929C10.6867 12.6929 10.382 12.9742 10.382 13.4312C10.382 13.6421 10.4172 13.8531 10.4758 14.0406C10.8156 15.1304 12.0109 15.7398 13.2649 15.7398Z" fill="black" fill-opacity="0.85"/>
</g>
<defs>
<clipPath id="clip0_2207_26836">
<rect width="21.5742" height="21.5977" fill="white" transform="translate(0.0461426 0.00146484)"/>
</clipPath>
</defs>
</svg>
