<svg width="24" height="24" viewBox="0 0 24 24" fill="none" xmlns="http://www.w3.org/2000/svg">
<g clip-path="url(#clip0_2207_26851)">
<path d="M12.0056 23.9077C18.5447 23.9077 23.9587 18.482 23.9587 11.9546C23.9587 5.41552 18.533 0.00146484 11.9939 0.00146484C5.46655 0.00146484 0.0524902 5.41552 0.0524902 11.9546C0.0524902 18.482 5.47827 23.9077 12.0056 23.9077Z" fill="black" fill-opacity="0.85"/>
<path d="M8.47827 16.9703C7.98608 16.9703 7.58765 16.5718 7.58765 16.0796V8.75538L6.48608 9.646C6.35718 9.73975 6.23999 9.79835 6.04077 9.79835C5.67749 9.79835 5.41968 9.52881 5.41968 9.15381C5.41968 8.83741 5.59546 8.60303 5.81811 8.43897L7.13061 7.40772C7.42358 7.19678 7.83374 6.91553 8.33765 6.91553C8.97046 6.91553 9.35718 7.27881 9.35718 7.89991V16.0796C9.35718 16.5718 8.95874 16.9703 8.47827 16.9703ZM15.697 16.9937C15.322 16.9937 14.865 16.771 14.865 16.1382V14.9312H12.158C11.572 14.9312 11.1619 14.5327 11.1619 13.9468C11.1619 13.5718 11.2322 13.2554 11.4431 12.7867L13.5877 8.09913C13.9392 7.34913 14.3377 6.91553 15.1931 6.91553C15.9783 6.91553 16.5291 7.38428 16.5291 8.22803V13.5249H16.9627C17.4431 13.5249 17.6541 13.8296 17.6541 14.2163C17.6541 14.6265 17.4314 14.9312 16.9627 14.9312H16.5291V16.1382C16.5291 16.7124 16.1658 16.9937 15.697 16.9937ZM14.9002 13.5601V8.43897H14.8533L12.6619 13.4781V13.5601H14.9002Z" fill="white"/>
</g>
<defs>
<clipPath id="clip0_2207_26851">
<rect width="23.9062" height="23.918" fill="white" transform="translate(0.0524902 0.00146484)"/>
</clipPath>
</defs>
</svg>
