<svg width="22" height="22" viewBox="0 0 22 22" fill="none" xmlns="http://www.w3.org/2000/svg">
<g clip-path="url(#clip0_2207_26861)">
<path d="M3.73633 21.5992H17.9511C20.4121 21.5992 21.6308 20.3804 21.6308 17.9663V3.65771C21.6308 1.24365 20.4121 0.0249023 17.9511 0.0249023H3.73633C1.28711 0.0249023 0.0566406 1.23193 0.0566406 3.65771V17.9663C0.0566406 20.3921 1.28711 21.5992 3.73633 21.5992Z" fill="black" fill-opacity="0.85"/>
<path d="M7.33398 15.8101C6.83008 15.8101 6.43164 15.4117 6.43164 14.9195V7.59521L5.33008 8.48584C5.20117 8.57958 5.08398 8.63818 4.88476 8.63818C4.52148 8.63818 4.26367 8.36865 4.26367 7.99365C4.26367 7.67724 4.43945 7.44287 4.66211 7.2788L5.98633 6.24755C6.26758 6.03662 6.67773 5.75537 7.18164 5.75537C7.81445 5.75537 8.20117 6.11865 8.20117 6.73974V14.9195C8.20117 15.4117 7.80273 15.8101 7.33398 15.8101ZM14.5527 15.8335C14.166 15.8335 13.7089 15.6109 13.7089 14.9781V13.771H11.0019C10.416 13.771 10.0059 13.3726 10.0059 12.7867C10.0059 12.4117 10.0761 12.0953 10.2871 11.6265L12.4433 6.93896C12.7832 6.18896 13.1816 5.75537 14.0371 5.75537C14.8222 5.75537 15.3847 6.22412 15.3847 7.06787V12.3648H15.8066C16.2871 12.3648 16.498 12.6695 16.498 13.0562C16.498 13.4663 16.2754 13.771 15.8066 13.771H15.3847V14.9781C15.3847 15.5523 15.0097 15.8335 14.5527 15.8335ZM13.7441 12.3999V7.2788H13.6972L11.5058 12.3179V12.3999H13.7441Z" fill="white"/>
</g>
<defs>
<clipPath id="clip0_2207_26861">
<rect width="21.5742" height="21.5977" fill="white" transform="translate(0.0566406 0.00146484)"/>
</clipPath>
</defs>
</svg>
