<svg width="24" height="24" viewBox="0 0 24 24" fill="none" xmlns="http://www.w3.org/2000/svg">
<g clip-path="url(#clip0_2207_26891)">
<path d="M12.0224 23.9077C18.5615 23.9077 23.9755 18.482 23.9755 11.9546C23.9755 5.41552 18.5498 0.00146484 12.0107 0.00146484C5.4834 0.00146484 0.0693359 5.41552 0.0693359 11.9546C0.0693359 18.482 5.49512 23.9077 12.0224 23.9077Z" fill="black" fill-opacity="0.85"/>
<path d="M8.58886 16.9703C8.10839 16.9703 7.69824 16.5718 7.69824 16.0796V8.75537L6.59667 9.646C6.47949 9.73975 6.35058 9.79834 6.16308 9.79834C5.7998 9.79834 5.54199 9.5288 5.54199 9.1538C5.54199 8.8374 5.70605 8.60302 5.92871 8.43896L7.25292 7.40771C7.53417 7.19677 7.94433 6.91552 8.45995 6.91552C9.09277 6.91552 9.47949 7.2788 9.47949 7.8999V16.0796C9.47949 16.5718 9.08105 16.9703 8.58886 16.9703ZM14.6005 17.0874C12.1513 17.0874 11.4248 14.357 11.4248 12.0718C11.4248 9.62256 12.1396 6.84521 14.6123 6.84521C15.831 6.84521 16.8857 7.48974 17.1318 8.53271C17.167 8.68505 17.1904 8.8374 17.1904 8.9663C17.1904 9.36474 16.9912 9.69287 16.4873 9.69287C16.1005 9.69287 15.8662 9.5288 15.7021 9.1538C15.4912 8.6499 15.1396 8.26318 14.5771 8.26318C13.2412 8.26318 13.0771 10.689 13.0771 12.0249C13.0771 12.0601 13.0771 12.107 13.0771 12.1538H13.124C13.4052 11.1226 14.1435 10.4663 15.1162 10.4663C16.7216 10.4663 17.5068 12.0132 17.5068 13.6421C17.5068 15.5406 16.4404 17.0874 14.6005 17.0874ZM14.5771 15.6695C15.4209 15.6695 15.8076 14.6031 15.8076 13.7242C15.831 12.8335 15.4677 11.7906 14.5654 11.7906C13.6982 11.7906 13.2998 12.7867 13.2998 13.6656C13.2998 14.5327 13.6631 15.6695 14.5771 15.6695Z" fill="white"/>
</g>
<defs>
<clipPath id="clip0_2207_26891">
<rect width="23.9062" height="23.918" fill="white" transform="translate(0.0693359 0.00146484)"/>
</clipPath>
</defs>
</svg>
