<svg width="24" height="24" viewBox="0 0 24 24" fill="none" xmlns="http://www.w3.org/2000/svg">
<g clip-path="url(#clip0_2207_26886)">
<path d="M12.0202 23.9077C18.5593 23.9077 23.9733 18.482 23.9733 11.9546C23.9733 5.41552 18.5476 0.00146484 12.0085 0.00146484C5.4812 0.00146484 0.0671387 5.41552 0.0671387 11.9546C0.0671387 18.482 5.49292 23.9077 12.0202 23.9077ZM12.0202 21.9156C6.48902 21.9156 2.07105 17.4859 2.07105 11.9546C2.07105 6.42335 6.4773 1.99365 12.0085 1.99365C17.5398 1.99365 21.9812 6.42335 21.9812 11.9546C21.9812 17.4859 17.5515 21.9156 12.0202 21.9156Z" fill="black" fill-opacity="0.85"/>
<path d="M8.6687 16.8179C9.13745 16.8179 9.52417 16.4312 9.52417 15.9624V8.01709C9.52417 7.41944 9.14917 7.06788 8.5398 7.06788C8.04761 7.06788 7.64917 7.33741 7.37964 7.54835L6.09058 8.54444C5.87964 8.7085 5.71558 8.93116 5.71558 9.23585C5.71558 9.59913 5.96167 9.85694 6.31323 9.85694C6.50073 9.85694 6.61792 9.79835 6.73511 9.71631L7.81323 8.84913V15.9624C7.81323 16.4312 8.19995 16.8179 8.6687 16.8179ZM14.4929 16.9351C16.2741 16.9351 17.3054 15.4351 17.3054 13.5953C17.3054 12.0132 16.5437 10.5132 14.9851 10.5132C14.0359 10.5132 13.321 11.146 13.0515 12.1538H13.0046C13.0046 12.107 13.0046 12.0601 13.0046 12.0249C13.0046 10.7242 13.1687 8.36866 14.4694 8.36866C15.0085 8.36866 15.3601 8.74366 15.5593 9.23585C15.7233 9.59913 15.946 9.76319 16.321 9.76319C16.8015 9.76319 17.0007 9.44678 17.0007 9.06006C17.0007 8.93116 16.9773 8.79053 16.9421 8.63819C16.696 7.63038 15.6765 6.99756 14.5046 6.99756C12.1023 6.99756 11.4109 9.69288 11.4109 12.0718C11.4109 14.2867 12.114 16.9351 14.4929 16.9351ZM14.4694 15.564C13.5788 15.564 13.2273 14.4624 13.2273 13.6187C13.2273 12.7632 13.614 11.7906 14.4694 11.7906C15.3366 11.7906 15.6882 12.7984 15.6648 13.6656C15.6648 14.521 15.2898 15.564 14.4694 15.564Z" fill="black" fill-opacity="0.85"/>
</g>
<defs>
<clipPath id="clip0_2207_26886">
<rect width="23.9062" height="23.918" fill="white" transform="translate(0.0671387 0.00146484)"/>
</clipPath>
</defs>
</svg>
