<svg width="22" height="22" viewBox="0 0 22 22" fill="none" xmlns="http://www.w3.org/2000/svg">
<g clip-path="url(#clip0_2207_26896)">
<path d="M3.75098 21.5992H17.9658C20.4268 21.5992 21.6455 20.3804 21.6455 17.9663V3.65771C21.6455 1.24365 20.4268 0.0249023 17.9658 0.0249023H3.75098C1.30176 0.0249023 0.0712891 1.23193 0.0712891 3.65771V17.9663C0.0712891 20.3921 1.30176 21.5992 3.75098 21.5992ZM3.77441 19.7124C2.60254 19.7124 1.95801 19.0913 1.95801 17.8726V3.75146C1.95801 2.53271 2.60254 1.91162 3.77441 1.91162H17.9424C19.1025 1.91162 19.7588 2.53271 19.7588 3.75146V17.8726C19.7588 19.0913 19.1025 19.7124 17.9424 19.7124H3.77441Z" fill="black" fill-opacity="0.85"/>
<path d="M7.53613 15.6577C7.99317 15.6577 8.37988 15.271 8.37988 14.8023V6.85693C8.37988 6.25927 8.00488 5.90771 7.39551 5.90771C6.90332 5.90771 6.50488 6.17724 6.23535 6.38818L4.94629 7.38427C4.73535 7.54834 4.57129 7.77099 4.57129 8.07568C4.57129 8.43896 4.81738 8.69677 5.16895 8.69677C5.35645 8.69677 5.47363 8.63818 5.59082 8.55615L6.66895 7.68896V14.8023C6.66895 15.271 7.05567 15.6577 7.53613 15.6577ZM13.3486 15.7749C15.1299 15.7749 16.1611 14.2749 16.1611 12.4351C16.1611 10.8531 15.3994 9.35302 13.8408 9.35302C12.8916 9.35302 12.1768 9.98584 11.9072 10.9937H11.8604C11.8604 10.9468 11.8604 10.8999 11.8604 10.8648C11.8604 9.56396 12.0244 7.20849 13.3252 7.20849C13.8643 7.20849 14.2158 7.58349 14.4151 8.07568C14.5791 8.43896 14.8018 8.60302 15.1885 8.60302C15.6572 8.60302 15.8565 8.28662 15.8565 7.8999C15.8565 7.77099 15.8447 7.63037 15.7979 7.47802C15.5518 6.47021 14.544 5.8374 13.3604 5.8374C10.958 5.8374 10.2666 8.53271 10.2666 10.9117C10.2666 13.1265 10.9697 15.7749 13.3486 15.7749ZM13.3252 14.4038C12.4463 14.4038 12.083 13.3023 12.083 12.4585C12.083 11.6031 12.4815 10.6304 13.3252 10.6304C14.1924 10.6304 14.5557 11.6382 14.5322 12.5054C14.5322 13.3609 14.1455 14.4038 13.3252 14.4038Z" fill="black" fill-opacity="0.85"/>
</g>
<defs>
<clipPath id="clip0_2207_26896">
<rect width="21.5742" height="21.5977" fill="white" transform="translate(0.0712891 0.00146484)"/>
</clipPath>
</defs>
</svg>
