<svg width="22" height="22" viewBox="0 0 22 22" fill="none" xmlns="http://www.w3.org/2000/svg">
<g clip-path="url(#clip0_2207_26901)">
<path d="M3.75318 21.5992H17.968C20.429 21.5992 21.6477 20.3804 21.6477 17.9663V3.65771C21.6477 1.24365 20.429 0.0249023 17.968 0.0249023H3.75318C1.30396 0.0249023 0.0734863 1.23193 0.0734863 3.65771V17.9663C0.0734863 20.3921 1.30396 21.5992 3.75318 21.5992Z" fill="black" fill-opacity="0.85"/>
<path d="M7.44458 15.8101C6.9524 15.8101 6.54224 15.4117 6.54224 14.9195V7.59522L5.44068 8.48585C5.32349 8.57959 5.19458 8.63819 5.00708 8.63819C4.6438 8.63819 4.38599 8.36866 4.38599 7.99366C4.38599 7.67725 4.55005 7.44288 4.77271 7.27881L6.09693 6.24756C6.37818 6.03663 6.78833 5.75538 7.30396 5.75538C7.93677 5.75538 8.32349 6.11866 8.32349 6.73975V14.9195C8.32349 15.4117 7.92505 15.8101 7.44458 15.8101ZM13.4446 15.9273C10.9954 15.9273 10.2688 13.1968 10.2688 10.9117C10.2688 8.46241 10.9837 5.68506 13.4563 5.68506C14.6868 5.68506 15.7297 6.32959 15.9758 7.37256C16.0227 7.52491 16.0344 7.67725 16.0344 7.80616C16.0344 8.20459 15.8352 8.53272 15.343 8.53272C14.9446 8.53272 14.7102 8.36866 14.5462 7.99366C14.3352 7.48975 13.9837 7.10303 13.4212 7.10303C12.0852 7.10303 11.9212 9.52881 11.9212 10.8648C11.9212 10.8999 11.9212 10.9468 11.9212 10.9937H11.968C12.2493 9.96241 12.9876 9.30616 13.9602 9.30616C15.5657 9.30616 16.3508 10.8531 16.3508 12.482C16.3508 14.3804 15.2844 15.9273 13.4446 15.9273ZM13.4212 14.5093C14.2649 14.5093 14.6633 13.4429 14.6633 12.564C14.6868 11.6734 14.3118 10.6304 13.4212 10.6304C12.554 10.6304 12.1438 11.6265 12.1438 12.5054C12.1438 13.3726 12.5188 14.5093 13.4212 14.5093Z" fill="white"/>
</g>
<defs>
<clipPath id="clip0_2207_26901">
<rect width="21.5742" height="21.5977" fill="white" transform="translate(0.0734863 0.00146484)"/>
</clipPath>
</defs>
</svg>
