<svg width="24" height="24" viewBox="0 0 24 24" fill="none" xmlns="http://www.w3.org/2000/svg">
<g clip-path="url(#clip0_2207_26906)">
<path d="M12.0288 23.9077C18.5679 23.9077 23.9819 18.482 23.9819 11.9546C23.9819 5.41552 18.5562 0.00146484 12.0171 0.00146484C5.48974 0.00146484 0.0756836 5.41552 0.0756836 11.9546C0.0756836 18.482 5.50146 23.9077 12.0288 23.9077ZM12.0288 21.9156C6.49756 21.9156 2.07959 17.4859 2.07959 11.9546C2.07959 6.42335 6.48584 1.99365 12.0171 1.99365C17.5484 1.99365 21.9898 6.42335 21.9898 11.9546C21.9898 17.4859 17.5601 21.9156 12.0288 21.9156Z" fill="black" fill-opacity="0.85"/>
<path d="M9.3921 16.8179C9.84913 16.8179 10.2359 16.4312 10.2359 15.9624V8.01708C10.2359 7.41943 9.86085 7.06787 9.25147 7.06787C8.771 7.06787 8.37257 7.3374 8.09131 7.54834L6.80225 8.54443C6.59131 8.70849 6.43896 8.93115 6.43896 9.23584C6.43896 9.59912 6.68506 9.85693 7.03662 9.85693C7.2124 9.85693 7.32959 9.79834 7.44677 9.7163L8.5249 8.84912V15.9624C8.5249 16.4312 8.91163 16.8179 9.3921 16.8179ZM13.6343 16.8531C14.0562 16.8531 14.2554 16.6773 14.4077 16.2554L17.0913 9.10693C17.2202 8.74365 17.314 8.4624 17.314 8.12255C17.314 7.58349 16.8921 7.22021 16.3765 7.22021H12.5913C12.1812 7.22021 11.9116 7.51318 11.9116 7.91162C11.9116 8.31005 12.1812 8.60302 12.5913 8.60302H15.603V8.70849L13.0015 15.4351C12.896 15.6929 12.8609 15.8453 12.8609 16.1265C12.8609 16.4663 13.0718 16.8531 13.6343 16.8531Z" fill="black" fill-opacity="0.85"/>
</g>
<defs>
<clipPath id="clip0_2207_26906">
<rect width="23.9062" height="23.918" fill="white" transform="translate(0.0756836 0.00146484)"/>
</clipPath>
</defs>
</svg>
