<svg width="24" height="24" viewBox="0 0 24 24" fill="none" xmlns="http://www.w3.org/2000/svg">
<g clip-path="url(#clip0_2207_26946)">
<path d="M12.0454 23.9077C18.5845 23.9077 23.9985 18.482 23.9985 11.9546C23.9985 5.41552 18.5728 0.00146484 12.0337 0.00146484C5.50634 0.00146484 0.0922852 5.41552 0.0922852 11.9546C0.0922852 18.482 5.51807 23.9077 12.0454 23.9077ZM12.0454 21.9156C6.51417 21.9156 2.0962 17.4859 2.0962 11.9546C2.0962 6.42335 6.50244 1.99365 12.0337 1.99365C17.565 1.99365 22.0064 6.42335 22.0064 11.9546C22.0064 17.4859 17.5767 21.9156 12.0454 21.9156Z" fill="black" fill-opacity="0.85"/>
<path d="M8.85791 16.8179C9.32667 16.8179 9.71338 16.4312 9.71338 15.9624V8.01709C9.71338 7.41944 9.33837 7.06788 8.729 7.06788C8.23681 7.06788 7.83838 7.33741 7.56885 7.54835L6.27979 8.54444C6.06885 8.7085 5.90479 8.93116 5.90479 9.23585C5.90479 9.59913 6.15088 9.85694 6.50245 9.85694C6.68995 9.85694 6.80712 9.79835 6.92431 9.71631L8.00245 8.84913V15.9624C8.00245 16.4312 8.38917 16.8179 8.85791 16.8179ZM13.8267 13.4195C14.7759 13.4195 15.4907 12.7867 15.7603 11.7788H15.8071C15.8071 11.8257 15.8071 11.8726 15.8071 11.9077C15.8071 13.2085 15.6431 15.5523 14.3306 15.5523C13.815 15.5523 13.4517 15.189 13.2525 14.6851C13.0767 14.2984 12.8423 14.146 12.4907 14.146C12.0103 14.146 11.7993 14.4742 11.7993 14.8609C11.7993 15.0015 11.8228 15.1421 11.8579 15.2827C12.1157 16.3023 13.1353 16.9234 14.3071 16.9234C16.7095 16.9234 17.4009 14.2632 17.4009 11.8609C17.4009 9.646 16.6978 6.99756 14.3189 6.99756C12.5376 6.99756 11.5064 8.49756 11.5064 10.3374C11.5064 11.9195 12.2681 13.4195 13.8267 13.4195ZM14.3423 12.1304C13.4751 12.1304 13.1353 11.1343 13.1353 10.2671C13.1353 9.38819 13.522 8.35694 14.3423 8.35694C15.2329 8.35694 15.5845 9.38819 15.5845 10.2671C15.5845 11.1695 15.1978 12.1304 14.3423 12.1304Z" fill="black" fill-opacity="0.85"/>
</g>
<defs>
<clipPath id="clip0_2207_26946">
<rect width="23.9062" height="23.918" fill="white" transform="translate(0.0922852 0.00146484)"/>
</clipPath>
</defs>
</svg>
