<svg width="24" height="24" viewBox="0 0 24 24" fill="none" xmlns="http://www.w3.org/2000/svg">
<g clip-path="url(#clip0_2207_26971)">
<path d="M11.9677 23.9089C18.5068 23.9089 23.9208 18.4832 23.9208 11.9558C23.9208 5.41675 18.4951 0.00268555 11.956 0.00268555C5.42871 0.00268555 0.0146484 5.41675 0.0146484 11.9558C0.0146484 18.4832 5.44043 23.9089 11.9677 23.9089Z" fill="black" fill-opacity="0.85"/>
<path d="M6.30762 16.8425C5.75684 16.8425 5.48731 16.5496 5.48731 16.1394C5.48731 15.7527 5.70996 15.448 5.94434 15.1668L8.04199 12.4832C8.67481 11.6746 9.34277 10.6902 9.34277 9.71753C9.34277 8.86207 8.94434 8.22925 8.21777 8.22925C7.52637 8.22925 7.22168 8.73316 6.99903 9.54175C6.87012 9.94019 6.63574 10.116 6.22559 10.116C5.76856 10.116 5.49903 9.81128 5.49903 9.35425C5.49903 8.10035 6.68262 6.823 8.22949 6.823C9.89356 6.823 11.0068 8.0066 11.0068 9.6355C11.0068 10.7019 10.6084 11.5925 9.40137 13.0925L7.64356 15.3191V15.4129H10.5029C10.9248 15.4129 11.1943 15.6707 11.1943 16.1394C11.1943 16.5613 10.9365 16.8425 10.5029 16.8425H6.30762ZM15.5771 17.0886C13.1748 17.0886 12.4599 14.3933 12.4599 11.9558C12.4599 9.51831 13.1748 6.823 15.5771 6.823C18.0029 6.823 18.7177 9.51831 18.7177 11.9558C18.7177 14.3933 18.0029 17.0886 15.5771 17.0886ZM15.5771 15.6472C16.5615 15.6472 16.9365 14.0535 16.9365 11.9558C16.9365 9.84644 16.5615 8.26441 15.5771 8.26441C14.6044 8.26441 14.2294 9.84644 14.2294 11.9558C14.2294 14.0535 14.6044 15.6472 15.5771 15.6472Z" fill="white"/>
</g>
<defs>
<clipPath id="clip0_2207_26971">
<rect width="23.9062" height="23.918" fill="white" transform="translate(0.0146484 0.00268555)"/>
</clipPath>
</defs>
</svg>
