<svg width="24" height="24" viewBox="0 0 24 24" fill="none" xmlns="http://www.w3.org/2000/svg">
<g clip-path="url(#clip0_2207_27011)">
<path d="M11.9846 23.9089C18.5237 23.9089 23.9377 18.4832 23.9377 11.9558C23.9377 5.41675 18.512 0.00268555 11.9729 0.00268555C5.44555 0.00268555 0.0314941 5.41675 0.0314941 11.9558C0.0314941 18.4832 5.45727 23.9089 11.9846 23.9089Z" fill="black" fill-opacity="0.85"/>
<path d="M6.55884 16.8425C6.00806 16.8425 5.73853 16.5496 5.73853 16.1394C5.73853 15.7644 5.97291 15.4597 6.18384 15.1668L8.2815 12.4949C8.92603 11.6746 9.60572 10.6902 9.60572 9.72925C9.60572 8.86207 9.19556 8.22925 8.469 8.22925C7.77759 8.22925 7.47291 8.73316 7.26197 9.54175C7.12134 9.94019 6.87525 10.1277 6.47681 10.1277C6.01978 10.1277 5.75025 9.81128 5.75025 9.36597C5.75025 8.10035 6.92212 6.823 8.469 6.823C10.1448 6.823 11.2581 8.0066 11.2581 9.6355C11.2581 10.7019 10.8596 11.5925 9.65259 13.1043L7.88306 15.3191V15.4246H10.7424C11.176 15.4246 11.4338 15.6824 11.4338 16.1394C11.4338 16.5613 11.1877 16.8425 10.7424 16.8425H6.55884ZM13.4963 16.8425C12.9338 16.8425 12.676 16.5496 12.676 16.1394C12.676 15.7644 12.8987 15.4597 13.1213 15.1668L15.219 12.4949C15.8518 11.6746 16.5315 10.6902 16.5315 9.72925C16.5315 8.86207 16.1213 8.22925 15.4065 8.22925C14.7034 8.22925 14.4221 8.73316 14.1877 9.54175C14.0706 9.94019 13.8127 10.1277 13.4143 10.1277C12.9456 10.1277 12.6995 9.81128 12.6995 9.36597C12.6995 8.10035 13.8713 6.823 15.4065 6.823C17.0706 6.823 18.1838 8.0066 18.1838 9.6355C18.1838 10.7019 17.7854 11.5925 16.5784 13.1043L14.8206 15.3191V15.4246H17.6917C18.1018 15.4246 18.3713 15.6824 18.3713 16.1394C18.3713 16.5613 18.1135 16.8425 17.6917 16.8425H13.4963Z" fill="white"/>
</g>
<defs>
<clipPath id="clip0_2207_27011">
<rect width="23.9062" height="23.918" fill="white" transform="translate(0.0314941 0.00268555)"/>
</clipPath>
</defs>
</svg>
