<svg width="24" height="24" viewBox="0 0 24 24" fill="none" xmlns="http://www.w3.org/2000/svg">
<g clip-path="url(#clip0_2207_27031)">
<path d="M11.993 23.9089C18.5321 23.9089 23.9461 18.4832 23.9461 11.9558C23.9461 5.41675 18.5204 0.00268555 11.9813 0.00268555C5.45398 0.00268555 0.039917 5.41675 0.039917 11.9558C0.039917 18.4832 5.4657 23.9089 11.993 23.9089Z" fill="black" fill-opacity="0.85"/>
<path d="M6.34461 16.8425C5.79383 16.8425 5.53601 16.5496 5.53601 16.1394C5.53601 15.7527 5.75867 15.4597 5.98133 15.1668L8.07898 12.4832C8.72351 11.6746 9.4032 10.6902 9.4032 9.71753C9.4032 8.86207 8.99304 8.22925 8.25476 8.22925C7.56336 8.22925 7.27039 8.73316 7.04773 9.54175C6.91883 9.94019 6.67273 10.1277 6.2743 10.1277C5.80554 10.1277 5.54773 9.81128 5.54773 9.35425C5.54773 8.10035 6.71961 6.823 8.26648 6.823C9.93054 6.823 11.0555 8.0066 11.0555 9.6355C11.0555 10.7019 10.6454 11.5925 9.43836 13.0925L7.68054 15.3191V15.4129H10.5399C10.9618 15.4129 11.2313 15.6707 11.2313 16.1394C11.2313 16.5613 10.9735 16.8425 10.5399 16.8425H6.34461ZM15.4735 17.0535C14.1844 17.0535 12.9422 16.4324 12.5907 15.3074C12.5321 15.1082 12.4969 14.8972 12.4969 14.6746C12.4969 14.2058 12.8251 13.9129 13.3055 13.9129C13.6922 13.9129 13.9383 14.1121 14.0672 14.5105C14.2079 15.0613 14.6063 15.6472 15.4852 15.6472C16.3758 15.6472 16.8211 14.9441 16.8211 14.1121C16.8211 13.0574 16.2587 12.4949 15.2274 12.4949H14.9344C14.5243 12.4949 14.2547 12.2605 14.2547 11.8621C14.2547 11.4636 14.5243 11.2058 14.9344 11.2058H15.204C16.118 11.2058 16.6102 10.5613 16.6102 9.68238C16.6102 8.8855 16.2352 8.27613 15.4383 8.27613C14.7469 8.27613 14.3837 8.72144 14.1844 9.43628C14.0672 9.85816 13.8211 10.0105 13.411 10.0105C12.9188 10.0105 12.6727 9.6941 12.6727 9.29566C12.6727 9.09644 12.6961 8.87378 12.7547 8.63941C13.1063 7.573 14.1844 6.86988 15.4383 6.86988C17.0087 6.86988 18.2626 7.8191 18.2626 9.49488C18.2626 10.5027 17.7235 11.4871 16.6219 11.78V11.8152C17.6532 11.9207 18.5438 12.6589 18.5438 14.1589C18.5438 15.9754 17.2196 17.0535 15.4735 17.0535Z" fill="white"/>
</g>
<defs>
<clipPath id="clip0_2207_27031">
<rect width="23.9062" height="23.918" fill="white" transform="translate(0.039917 0.00268555)"/>
</clipPath>
</defs>
</svg>
