<svg width="24" height="24" viewBox="0 0 24 24" fill="none" xmlns="http://www.w3.org/2000/svg">
<g clip-path="url(#clip0_2207_27051)">
<path d="M12.0014 23.9089C18.5405 23.9089 23.9545 18.4832 23.9545 11.9558C23.9545 5.41675 18.5288 0.00268555 11.9897 0.00268555C5.4624 0.00268555 0.0483398 5.41675 0.0483398 11.9558C0.0483398 18.4832 5.47412 23.9089 12.0014 23.9089Z" fill="black" fill-opacity="0.85"/>
<path d="M6.32959 16.8425C5.77881 16.8425 5.50928 16.5496 5.50928 16.1394C5.50928 15.7644 5.74365 15.4597 5.96631 15.1668L8.06396 12.4949C8.69678 11.6746 9.37646 10.6902 9.37646 9.71753C9.37646 8.86207 8.96631 8.22925 8.25146 8.22925C7.54834 8.22925 7.24365 8.73316 7.03272 9.54175C6.89209 9.94019 6.65772 10.1277 6.24756 10.1277C5.79053 10.1277 5.521 9.81128 5.521 9.35425C5.521 8.10035 6.70459 6.823 8.25146 6.823C9.91553 6.823 11.0288 8.0066 11.0288 9.6355C11.0288 10.7019 10.6303 11.5925 9.42334 13.0925L7.66553 15.3191V15.4246H10.5249C10.9467 15.4246 11.2163 15.6707 11.2163 16.1394C11.2163 16.5613 10.9585 16.8425 10.5249 16.8425H6.32959ZM16.7944 16.9949C16.4077 16.9949 15.9506 16.7839 15.9506 16.1394V14.9324H13.2436C12.6694 14.9324 12.2475 14.5339 12.2475 13.948C12.2475 13.573 12.3295 13.2566 12.5288 12.7879L14.685 8.11207C15.0249 7.35035 15.4233 6.91675 16.2788 6.91675C17.0639 6.91675 17.6264 7.39722 17.6264 8.22925V13.5261H18.0483C18.5288 13.5261 18.7397 13.8308 18.7397 14.2175C18.7397 14.6277 18.5171 14.9324 18.0483 14.9324H17.6264V16.1394C17.6264 16.7136 17.2514 16.9949 16.7944 16.9949ZM15.9858 13.5613V8.44019H15.9389L13.7475 13.4793V13.5613H15.9858Z" fill="white"/>
</g>
<defs>
<clipPath id="clip0_2207_27051">
<rect width="23.9062" height="23.918" fill="white" transform="translate(0.0483398 0.00268555)"/>
</clipPath>
</defs>
</svg>
