<svg width="24" height="24" viewBox="0 0 24 24" fill="none" xmlns="http://www.w3.org/2000/svg">
<g clip-path="url(#clip0_2207_27091)">
<path d="M12.0183 23.9089C18.5574 23.9089 23.9714 18.4832 23.9714 11.9558C23.9714 5.41675 18.5457 0.00268555 12.0066 0.00268555C5.47925 0.00268555 0.0651855 5.41675 0.0651855 11.9558C0.0651855 18.4832 5.49097 23.9089 12.0183 23.9089Z" fill="black" fill-opacity="0.85"/>
<path d="M6.28785 16.8425C5.72535 16.8425 5.46753 16.5496 5.46753 16.1394C5.46753 15.7527 5.69019 15.448 5.91285 15.1668L8.0105 12.4832C8.64331 11.6746 9.323 10.6902 9.323 9.71753C9.323 8.86207 8.91285 8.22925 8.198 8.22925C7.49488 8.22925 7.21363 8.73316 6.97925 9.54175C6.86207 9.94019 6.60425 10.116 6.20581 10.116C5.73707 10.116 5.47925 9.81128 5.47925 9.35425C5.47925 8.10035 6.66285 6.823 8.198 6.823C9.86207 6.823 10.9754 8.0066 10.9754 9.6355C10.9754 10.7019 10.5769 11.5925 9.36988 13.0925L7.61207 15.3191V15.4129H10.4832C10.8933 15.4129 11.1629 15.6707 11.1629 16.1394C11.1629 16.5613 10.905 16.8425 10.4832 16.8425H6.28785ZM15.6277 17.0886C13.1668 17.0886 12.4402 14.3582 12.4402 12.073C12.4402 9.62378 13.155 6.84644 15.6511 6.84644C16.8582 6.84644 17.9011 7.49097 18.159 8.53394C18.2058 8.68628 18.2175 8.83863 18.2175 8.96753C18.2175 9.36597 18.0066 9.6941 17.5261 9.6941C17.1277 9.6941 16.8933 9.53003 16.7175 9.15503C16.5183 8.65113 16.155 8.26441 15.6043 8.26441C14.2566 8.26441 14.0925 10.6902 14.0925 12.0261C14.0925 12.0613 14.0925 12.1082 14.0925 12.155H14.1394C14.4207 11.1238 15.159 10.4675 16.1316 10.4675C17.7371 10.4675 18.5222 12.0144 18.5222 13.6433C18.5222 15.5418 17.4793 17.0886 15.6277 17.0886ZM15.6043 15.6707C16.448 15.6707 16.8347 14.6043 16.8347 13.7254C16.8582 12.8347 16.4949 11.7918 15.6043 11.7918C14.7371 11.7918 14.3269 12.7879 14.3269 13.6785C14.3269 14.5339 14.6902 15.6707 15.6043 15.6707Z" fill="white"/>
</g>
<defs>
<clipPath id="clip0_2207_27091">
<rect width="23.9062" height="23.918" fill="white" transform="translate(0.0651855 0.00268555)"/>
</clipPath>
</defs>
</svg>
