<svg width="24" height="24" viewBox="0 0 24 24" fill="none" xmlns="http://www.w3.org/2000/svg">
<g clip-path="url(#clip0_2207_27106)">
<path d="M12.0244 23.9089C18.5635 23.9089 23.9775 18.4832 23.9775 11.9558C23.9775 5.41675 18.5518 0.00268555 12.0127 0.00268555C5.48535 0.00268555 0.0712891 5.41675 0.0712891 11.9558C0.0712891 18.4832 5.49707 23.9089 12.0244 23.9089ZM12.0244 21.9168C6.49317 21.9168 2.0752 17.4871 2.0752 11.9558C2.0752 6.42457 6.48145 1.99488 12.0127 1.99488C17.544 1.99488 21.9854 6.42457 21.9854 11.9558C21.9854 17.4871 17.5557 21.9168 12.0244 21.9168Z" fill="black" fill-opacity="0.85"/>
<path d="M7.04395 16.6902H11.1104C11.5322 16.6902 11.7783 16.4207 11.7783 16.0105C11.7783 15.5652 11.5205 15.3191 11.1104 15.3191H8.33301V15.2254L10.0439 13.0574C11.2158 11.6043 11.6025 10.7371 11.6025 9.7058C11.6025 8.12377 10.5244 6.97534 8.90723 6.97534C7.40723 6.97534 6.27051 8.21752 6.27051 9.43627C6.27051 9.86987 6.52832 10.1746 6.97363 10.1746C7.36035 10.1746 7.59473 9.99877 7.72363 9.61206C7.93457 8.8269 8.22754 8.33471 8.89551 8.33471C9.61035 8.33471 10.0088 8.9558 10.0088 9.78784C10.0088 10.7254 9.35254 11.6746 8.73145 12.4715L6.69238 15.073C6.48145 15.3543 6.25879 15.6472 6.25879 16.0105C6.25879 16.4089 6.5166 16.6902 7.04395 16.6902ZM14.5088 16.8543C14.9424 16.8543 15.1299 16.6785 15.294 16.2566L17.9658 9.10815C18.0947 8.74487 18.1885 8.46362 18.1885 8.12377C18.1885 7.58471 17.7783 7.22143 17.251 7.22143H13.4658C13.0674 7.22143 12.7861 7.5144 12.7861 7.91284C12.7861 8.31127 13.0674 8.60424 13.4658 8.60424H16.4775V8.70971L13.8877 15.4363C13.7822 15.6941 13.7354 15.8465 13.7354 16.1277C13.7354 16.4675 13.958 16.8543 14.5088 16.8543Z" fill="black" fill-opacity="0.85"/>
</g>
<defs>
<clipPath id="clip0_2207_27106">
<rect width="23.9062" height="23.918" fill="white" transform="translate(0.0712891 0.00268555)"/>
</clipPath>
</defs>
</svg>
