<svg width="22" height="22" viewBox="0 0 22 22" fill="none" xmlns="http://www.w3.org/2000/svg">
<g clip-path="url(#clip0_2207_27121)">
<path d="M3.75733 21.6004H17.9721C20.4331 21.6004 21.6518 20.3816 21.6518 17.9675V3.65894C21.6518 1.24488 20.4331 0.026123 17.9721 0.026123H3.75733C1.30811 0.026123 0.0776367 1.23316 0.0776367 3.65894V17.9675C0.0776367 20.3933 1.30811 21.6004 3.75733 21.6004Z" fill="black" fill-opacity="0.85"/>
<path d="M5.74952 15.6824C5.18702 15.6824 4.9292 15.3894 4.9292 14.9793C4.9292 14.6043 5.15186 14.2996 5.37452 14.0066L7.47217 11.3347C8.10498 10.5144 8.78467 9.53002 8.78467 8.55737C8.78467 7.7019 8.37452 7.06909 7.65967 7.06909C6.95655 7.06909 6.6753 7.57299 6.44092 8.38159C6.31202 8.78002 6.06592 8.96752 5.66748 8.96752C5.19873 8.96752 4.94092 8.65112 4.94092 8.19409C4.94092 6.94018 6.1128 5.66284 7.65967 5.66284C9.32373 5.66284 10.437 6.84643 10.437 8.47534C10.437 9.54174 10.0386 10.4324 8.83155 11.9324L7.07373 14.1589V14.2644H9.94483C10.3549 14.2644 10.6245 14.5105 10.6245 14.9793C10.6245 15.4011 10.3667 15.6824 9.94483 15.6824H5.74952ZM13.4487 15.8465C12.8745 15.8465 12.6401 15.448 12.6401 15.0965C12.6401 14.8035 12.687 14.6511 12.8042 14.3816L15.4643 7.4558V7.35034H12.3706C11.9487 7.35034 11.6674 7.04565 11.6674 6.63549C11.6674 6.21362 11.9487 5.90893 12.3706 5.90893H16.2729C16.812 5.90893 17.2338 6.29565 17.2338 6.84643C17.2338 7.19799 17.1401 7.49096 17.0112 7.86596L14.2573 15.2254C14.0932 15.6707 13.894 15.8465 13.4487 15.8465Z" fill="white"/>
</g>
<defs>
<clipPath id="clip0_2207_27121">
<rect width="21.5742" height="21.5977" fill="white" transform="translate(0.0776367 0.00268555)"/>
</clipPath>
</defs>
</svg>
