<svg width="24" height="24" viewBox="0 0 24 24" fill="none" xmlns="http://www.w3.org/2000/svg">
<g clip-path="url(#clip0_2207_27151)">
<path d="M12.0434 23.9089C18.5825 23.9089 23.9965 18.4832 23.9965 11.9558C23.9965 5.41675 18.5708 0.00268555 12.0317 0.00268555C5.50439 0.00268555 0.090332 5.41675 0.090332 11.9558C0.090332 18.4832 5.51611 23.9089 12.0434 23.9089Z" fill="black" fill-opacity="0.85"/>
<path d="M6.39502 16.8425C5.83252 16.8425 5.57471 16.5496 5.57471 16.1394C5.57471 15.7527 5.79736 15.448 6.03174 15.1668L8.11767 12.4832C8.76221 11.6746 9.44189 10.6902 9.44189 9.71753C9.44189 8.86207 9.03174 8.22925 8.30517 8.22925C7.60205 8.22925 7.3208 8.73316 7.08642 9.54175C6.96924 9.94019 6.71142 10.116 6.31299 10.116C5.84424 10.116 5.59814 9.81128 5.59814 9.35425C5.59814 8.10035 6.77002 6.823 8.30517 6.823C9.98095 6.823 11.0942 8.0066 11.0942 9.6355C11.0942 10.7019 10.6958 11.5925 9.47705 13.0925L7.71924 15.3191V15.4129H10.5903C11.0005 15.4129 11.2817 15.6707 11.2817 16.1394C11.2817 16.5613 11.0122 16.8425 10.5903 16.8425H6.39502ZM14.8911 13.4675C13.2973 13.4675 12.5122 11.9207 12.5122 10.2918C12.5122 8.39331 13.5786 6.84644 15.4184 6.84644C17.8676 6.84644 18.5942 9.57691 18.5942 11.8621C18.5942 14.3347 17.8676 17.0769 15.395 17.0769C14.188 17.0769 13.1333 16.4441 12.8755 15.3894C12.8403 15.2488 12.8051 15.0965 12.8051 14.9558C12.8051 14.5574 13.0278 14.2175 13.5317 14.2175C13.895 14.2175 14.1411 14.3699 14.3051 14.7683C14.5278 15.2839 14.8911 15.6589 15.4301 15.6589C16.7778 15.6589 16.9419 13.2449 16.9419 11.9089C16.9419 11.8738 16.9419 11.8269 16.9419 11.78H16.895C16.6255 12.8113 15.8872 13.4675 14.8911 13.4675ZM15.4419 12.1316C16.3091 12.1316 16.7192 11.1472 16.7192 10.2097C16.7192 9.30738 16.3442 8.26441 15.4419 8.26441C14.5981 8.26441 14.188 9.30738 14.188 10.2097C14.188 11.1121 14.5512 12.1316 15.4419 12.1316Z" fill="white"/>
</g>
<defs>
<clipPath id="clip0_2207_27151">
<rect width="23.9062" height="23.918" fill="white" transform="translate(0.090332 0.00268555)"/>
</clipPath>
</defs>
</svg>
