<svg width="22" height="22" viewBox="0 0 22 22" fill="none" xmlns="http://www.w3.org/2000/svg">
<g clip-path="url(#clip0_2207_27161)">
<path d="M3.77417 21.6004H17.989C20.45 21.6004 21.6687 20.3816 21.6687 17.9675V3.65894C21.6687 1.24488 20.45 0.026123 17.989 0.026123H3.77417C1.32495 0.026123 0.0944824 1.23316 0.0944824 3.65894V17.9675C0.0944824 20.3933 1.32495 21.6004 3.77417 21.6004Z" fill="black" fill-opacity="0.85"/>
<path d="M5.23901 15.6824C4.67651 15.6824 4.4187 15.3894 4.4187 14.9793C4.4187 14.5925 4.64136 14.2879 4.87573 14.0066L6.96167 11.323C7.6062 10.5144 8.28589 9.53002 8.28589 8.55737C8.28589 7.7019 7.87573 7.06909 7.14917 7.06909C6.45776 7.06909 6.16479 7.57299 5.93042 8.38159C5.81323 8.78002 5.56714 8.9558 5.1687 8.9558C4.68823 8.9558 4.44214 8.65112 4.44214 8.19409C4.44214 6.94018 5.61401 5.66284 7.16089 5.66284C8.82495 5.66284 9.93823 6.84643 9.93823 8.47534C9.93823 9.54174 9.53979 10.4324 8.32104 11.9324L6.57495 14.1589V14.2527H9.43432C9.84448 14.2527 10.1257 14.5105 10.1257 14.9793C10.1257 15.4011 9.8562 15.6824 9.43432 15.6824H5.23901ZM13.7468 12.3074C12.1414 12.3074 11.3562 10.7605 11.3562 9.13159C11.3562 7.23315 12.4226 5.68627 14.2625 5.68627C16.7117 5.68627 17.4383 8.41674 17.4383 10.7019C17.4383 13.1746 16.7117 15.9168 14.239 15.9168C13.032 15.9168 11.9773 15.2839 11.7195 14.2293C11.6843 14.0886 11.6492 13.9363 11.6492 13.7957C11.6492 13.3972 11.8718 13.0574 12.3757 13.0574C12.739 13.0574 12.9851 13.2097 13.1492 13.6082C13.3718 14.1238 13.7351 14.4988 14.2742 14.4988C15.6218 14.4988 15.7859 12.0847 15.7859 10.7488C15.7859 10.7136 15.7859 10.6668 15.7859 10.6199H15.739C15.4695 11.6511 14.7312 12.3074 13.7468 12.3074ZM14.2859 10.9715C15.1531 10.9715 15.5633 9.98706 15.5633 9.04956C15.5633 8.14721 15.1883 7.10424 14.2859 7.10424C13.4422 7.10424 13.032 8.14721 13.032 9.04956C13.032 9.9519 13.3953 10.9715 14.2859 10.9715Z" fill="white"/>
</g>
<defs>
<clipPath id="clip0_2207_27161">
<rect width="21.5742" height="21.5977" fill="white" transform="translate(0.0944824 0.00268555)"/>
</clipPath>
</defs>
</svg>
