<svg width="29" height="18" viewBox="0 0 29 18" fill="none" xmlns="http://www.w3.org/2000/svg">
<g clip-path="url(#clip0_2207_17657)">
<path d="M1.12793 17.0652H10.8662C11.4522 17.0652 11.8272 16.6902 11.8272 16.116C11.8272 15.5535 11.4522 15.1785 10.8662 15.1785H3.06152V15.1199L7.63184 10.6668C10.4209 7.95971 11.2529 6.55347 11.2529 4.74878C11.2529 2.06519 8.8623 0.0144043 5.68652 0.0144043C3.20215 0.0144043 1.05762 1.36207 0.354492 3.42457C0.213868 3.823 0.155273 4.15113 0.155273 4.4441C0.155273 5.03003 0.495118 5.41675 1.06934 5.41675C1.62012 5.41675 1.85449 5.15894 2.03027 4.573C2.12402 4.20972 2.25293 3.8816 2.44043 3.57691C3.07324 2.53394 4.22168 1.86597 5.68652 1.86597C7.58496 1.86597 9.09668 3.20191 9.09668 4.86597C9.09668 6.21363 8.55762 7.12769 6.2373 9.41285L0.75293 14.8621C0.260742 15.3543 0.0966797 15.6472 0.0966797 16.0808C0.0966797 16.6902 0.506836 17.0652 1.12793 17.0652ZM16.0694 17.3113C16.6553 17.3113 17.1123 16.8425 17.1123 16.2683V9.36597H26.3936V16.2683C26.3936 16.8425 26.8623 17.3113 27.4365 17.3113C28.0108 17.3113 28.4795 16.8425 28.4795 16.2683V1.04566C28.4795 0.459716 28.0108 0.00268555 27.4365 0.00268555C26.8623 0.00268555 26.3936 0.459716 26.3936 1.04566V7.54957H17.1123V1.04566C17.1123 0.459716 16.6553 0.00268555 16.0694 0.00268555C15.4951 0.00268555 15.0264 0.459716 15.0264 1.04566V16.2683C15.0264 16.8425 15.4951 17.3113 16.0694 17.3113Z" fill="black" fill-opacity="0.85"/>
</g>
<defs>
<clipPath id="clip0_2207_17657">
<rect width="28.3828" height="17.332" fill="white" transform="translate(0.0966797 0.00268555)"/>
</clipPath>
</defs>
</svg>
