<svg width="22" height="18" viewBox="0 0 22 18" fill="none" xmlns="http://www.w3.org/2000/svg">
<g clip-path="url(#clip0_2207_2981)">
<path d="M0.00634766 16.7386C0.00634766 17.2542 0.428223 17.6877 0.943848 17.6877C1.47119 17.6877 1.89307 17.2542 1.89307 16.7386V0.965088C1.89307 0.449462 1.47119 0.0275879 0.943848 0.0275879C0.428223 0.0275879 0.00634766 0.449462 0.00634766 0.965088V16.7386ZM19.6938 16.7386C19.6938 17.2542 20.1274 17.6877 20.643 17.6877C21.1586 17.6877 21.5805 17.2542 21.5805 16.7386V0.965088C21.5805 0.449462 21.1586 0.0275879 20.643 0.0275879C20.1274 0.0275879 19.6938 0.449462 19.6938 0.965088V16.7386Z" fill="black" fill-opacity="0.85"/>
<path d="M10.7524 13.715C12.4751 13.715 13.8461 12.7307 13.8461 11.0666C13.8461 9.71899 12.9555 9.01587 11.8774 8.9104V8.88696C12.9204 8.65259 13.5415 7.82056 13.5415 6.80103C13.5415 5.27759 12.2875 4.42212 10.7172 4.42212C9.40479 4.42212 8.27979 5.1604 8.02197 6.21509C7.98682 6.34399 7.96338 6.49634 7.96338 6.63696C7.96338 7.00024 8.15088 7.30493 8.64307 7.30493C9.04151 7.30493 9.25244 7.14087 9.38135 6.76587C9.60401 6.06274 10.0493 5.71118 10.729 5.71118C11.5024 5.71118 11.9946 6.21509 11.9946 7.00024C11.9946 7.85571 11.4086 8.35962 10.5415 8.35962H10.2016C9.80323 8.35962 9.56885 8.59399 9.56885 8.95727C9.56885 9.34399 9.81494 9.55493 10.2016 9.55493H10.5649C11.5141 9.55493 12.2055 9.96509 12.2055 10.9963C12.2055 11.84 11.6196 12.4025 10.7641 12.4025C9.94385 12.4025 9.46338 11.9807 9.24073 11.3361C9.1001 11.0197 8.84229 10.8205 8.52588 10.8205C8.08057 10.8205 7.79932 11.09 7.79932 11.5236C7.79932 11.6643 7.82276 11.8049 7.85791 11.9455C8.15088 13.1291 9.49854 13.715 10.7524 13.715Z" fill="black" fill-opacity="0.85"/>
</g>
<defs>
<clipPath id="clip0_2207_2981">
<rect width="21.5742" height="17.6836" fill="white" transform="translate(0.00634766 0.00415039)"/>
</clipPath>
</defs>
</svg>
