<svg width="22" height="22" viewBox="0 0 22 22" fill="none" xmlns="http://www.w3.org/2000/svg">
<g clip-path="url(#clip0_2207_27176)">
<path d="M3.69654 21.6019H17.9113C20.3723 21.6019 21.591 20.3831 21.591 17.969V3.6604C21.591 1.24634 20.3723 0.0275879 17.9113 0.0275879H3.69654C1.24732 0.0275879 0.0168457 1.23462 0.0168457 3.6604V17.969C0.0168457 20.3948 1.24732 21.6019 3.69654 21.6019ZM3.71997 19.715C2.5481 19.715 1.90357 19.094 1.90357 17.8752V3.75415C1.90357 2.5354 2.5481 1.91431 3.71997 1.91431H17.8879C19.048 1.91431 19.7043 2.5354 19.7043 3.75415V17.8752C19.7043 19.094 19.048 19.715 17.8879 19.715H3.71997Z" fill="black" fill-opacity="0.85"/>
<path d="M7.17701 15.7308C8.86451 15.7308 10.1535 14.6761 10.1535 12.9183C10.1535 11.4651 9.28638 10.7503 8.29029 10.6448V10.598C9.35669 10.3167 9.87232 9.37915 9.87232 8.39477C9.87232 6.77759 8.66529 5.85181 7.13013 5.85181C5.9231 5.85181 4.88013 6.53149 4.54029 7.57446C4.46997 7.79712 4.44654 8.00806 4.44654 8.20727C4.44654 8.58227 4.70435 8.89868 5.1731 8.89868C5.57154 8.89868 5.80591 8.73462 5.91138 8.33618C6.09888 7.64477 6.47388 7.19946 7.13013 7.19946C7.90357 7.19946 8.27857 7.80884 8.27857 8.58227C8.27857 9.43774 7.7981 10.0589 6.91919 10.0589H6.63794C6.23951 10.0589 5.99341 10.305 5.99341 10.68C5.99341 11.0667 6.25123 11.3011 6.63794 11.3011H6.93091C7.92701 11.3011 8.47779 11.8401 8.47779 12.8714C8.47779 13.68 8.05591 14.3597 7.17701 14.3597C6.33326 14.3597 5.94654 13.7854 5.80591 13.2581C5.68873 12.8831 5.44263 12.6839 5.06763 12.6839C4.59888 12.6839 4.29419 12.9534 4.29419 13.4222C4.29419 13.6331 4.32935 13.844 4.38794 14.0315C4.72779 15.1214 5.9231 15.7308 7.17701 15.7308ZM14.4191 15.7659C16.7512 15.7659 17.4426 13.1409 17.4426 10.7854C17.4426 8.42993 16.7512 5.80493 14.4191 5.80493C12.0754 5.80493 11.384 8.42993 11.384 10.7854C11.384 13.1409 12.0754 15.7659 14.4191 15.7659ZM14.4191 14.3714C13.4582 14.3714 13.0949 12.8128 13.0949 10.7854C13.0949 8.74634 13.4582 7.18774 14.4191 7.18774C15.3801 7.18774 15.7316 8.74634 15.7316 10.7854C15.7316 12.8128 15.3801 14.3714 14.4191 14.3714Z" fill="black" fill-opacity="0.85"/>
</g>
<defs>
<clipPath id="clip0_2207_27176">
<rect width="21.5742" height="21.5977" fill="white" transform="translate(0.0168457 0.00415039)"/>
</clipPath>
</defs>
</svg>
