<svg width="24" height="24" viewBox="0 0 24 24" fill="none" xmlns="http://www.w3.org/2000/svg">
<g clip-path="url(#clip0_2207_27186)">
<path d="M11.9741 23.9104C18.5132 23.9104 23.9272 18.4846 23.9272 11.9573C23.9272 5.41821 18.5015 0.00415039 11.9624 0.00415039C5.43506 0.00415039 0.0209961 5.41821 0.0209961 11.9573C0.0209961 18.4846 5.44678 23.9104 11.9741 23.9104ZM11.9741 21.9183C6.44288 21.9183 2.02491 17.4886 2.02491 11.9573C2.02491 6.42603 6.43116 1.99634 11.9624 1.99634C17.4937 1.99634 21.9351 6.42603 21.9351 11.9573C21.9351 17.4886 17.5054 21.9183 11.9741 21.9183Z" fill="black" fill-opacity="0.85"/>
<path d="M9.20849 16.9026C10.8843 16.9026 12.1851 15.848 12.1851 14.0901C12.1851 12.637 11.3062 11.9222 10.3218 11.8167V11.7815C11.3765 11.5003 11.9038 10.5511 11.9038 9.56665C11.9038 7.94946 10.6851 7.02368 9.16161 7.02368C7.95458 7.02368 6.8999 7.70337 6.57177 8.74634C6.50146 8.96899 6.47802 9.17993 6.47802 9.37915C6.47802 9.76587 6.73583 10.0706 7.19287 10.0706C7.5913 10.0706 7.82568 9.91821 7.94287 9.50806C8.13037 8.81665 8.50537 8.38306 9.16161 8.38306C9.93505 8.38306 10.2983 8.98071 10.2983 9.75415C10.2983 10.6097 9.82958 11.2308 8.95068 11.2308H8.66943C8.27099 11.2308 8.0249 11.4769 8.0249 11.8636C8.0249 12.2503 8.28271 12.473 8.66943 12.473H8.9624C9.95849 12.473 10.5093 13.0237 10.5093 14.0433C10.5093 14.8519 10.0757 15.5433 9.20849 15.5433C8.35302 15.5433 7.97802 14.969 7.82568 14.43C7.72021 14.055 7.4624 13.8558 7.0874 13.8558C6.63037 13.8558 6.32568 14.137 6.32568 14.594C6.32568 14.805 6.36083 15.0159 6.41943 15.2034C6.75927 16.2933 7.94287 16.9026 9.20849 16.9026ZM16.1226 16.8206C16.5796 16.8206 16.9663 16.4339 16.9663 15.9651V8.01977C16.9663 7.42212 16.5913 7.07056 15.9819 7.07056C15.4898 7.07056 15.0913 7.34009 14.8218 7.55103L13.5327 8.54712C13.3218 8.71118 13.1577 8.93384 13.1577 9.23853C13.1577 9.60181 13.4038 9.85962 13.7554 9.85962C13.9429 9.85962 14.0601 9.80103 14.1772 9.71899L15.2554 8.85181V15.9651C15.2554 16.4339 15.6421 16.8206 16.1226 16.8206Z" fill="black" fill-opacity="0.85"/>
</g>
<defs>
<clipPath id="clip0_2207_27186">
<rect width="23.9062" height="23.918" fill="white" transform="translate(0.0209961 0.00415039)"/>
</clipPath>
</defs>
</svg>
