<svg width="24" height="24" viewBox="0 0 24 24" fill="none" xmlns="http://www.w3.org/2000/svg">
<g clip-path="url(#clip0_2207_27251)">
<path d="M12.0014 23.9104C18.5405 23.9104 23.9545 18.4846 23.9545 11.9573C23.9545 5.41821 18.5288 0.00415039 11.9897 0.00415039C5.4624 0.00415039 0.0483398 5.41821 0.0483398 11.9573C0.0483398 18.4846 5.47412 23.9104 12.0014 23.9104Z" fill="black" fill-opacity="0.85"/>
<path d="M8.0874 17.0549C6.78662 17.0549 5.55615 16.4338 5.20459 15.3088C5.146 15.1096 5.11084 14.8986 5.11084 14.676C5.11084 14.2072 5.42725 13.9143 5.90772 13.9143C6.29443 13.9143 6.55225 14.1135 6.66943 14.5119C6.82178 15.0627 7.22022 15.6486 8.0874 15.6486C8.98975 15.6486 9.42334 14.9338 9.42334 14.1018C9.42334 13.0588 8.84912 12.4963 7.84131 12.4963H7.5249C7.12646 12.4963 6.85693 12.2619 6.85693 11.8635C6.85693 11.465 7.11475 11.2072 7.5249 11.2072H7.81787C8.72022 11.2072 9.2124 10.5627 9.2124 9.68384C9.2124 8.88696 8.82568 8.27759 8.04053 8.27759C7.36084 8.27759 6.97412 8.7229 6.79834 9.43774C6.66943 9.85962 6.42334 10.0119 6.01318 10.0119C5.53272 10.0119 5.26318 9.69556 5.26318 9.29712C5.26318 9.08618 5.29834 8.87524 5.35693 8.64087C5.7085 7.57446 6.78662 6.87134 8.04053 6.87134C9.62256 6.87134 10.8647 7.82056 10.8647 9.49634C10.8647 10.5041 10.3374 11.4885 9.23584 11.7814V11.8166C10.2553 11.9221 11.1577 12.6603 11.1577 14.1603C11.1577 15.965 9.82178 17.0549 8.0874 17.0549ZM16.9116 16.9963C16.5249 16.9963 16.0795 16.7736 16.0795 16.1291V14.9338H13.3725C12.7749 14.9338 12.3764 14.5353 12.3764 13.9494C12.3764 13.5744 12.435 13.258 12.646 12.7893L14.8022 8.10181C15.1421 7.35181 15.5405 6.91821 16.3842 6.91821C17.1928 6.91821 17.7436 7.38696 17.7436 8.23071V13.5275H18.1655C18.6577 13.5275 18.8452 13.8322 18.8452 14.2189C18.8452 14.6291 18.6342 14.9338 18.1655 14.9338H17.7436V16.1291C17.7436 16.715 17.3569 16.9963 16.9116 16.9963ZM16.1147 13.5627V8.44165H16.0678L13.8647 13.4807V13.5627H16.1147Z" fill="white"/>
</g>
<defs>
<clipPath id="clip0_2207_27251">
<rect width="23.9062" height="23.918" fill="white" transform="translate(0.0483398 0.00415039)"/>
</clipPath>
</defs>
</svg>
