<svg width="22" height="22" viewBox="0 0 22 22" fill="none" xmlns="http://www.w3.org/2000/svg">
<g clip-path="url(#clip0_2207_27256)">
<path d="M3.7301 21.6019H17.9449C20.4059 21.6019 21.6246 20.3831 21.6246 17.969V3.6604C21.6246 1.24634 20.4059 0.0275879 17.9449 0.0275879H3.7301C1.28088 0.0275879 0.050415 1.23462 0.050415 3.6604V17.969C0.050415 20.3948 1.28088 21.6019 3.7301 21.6019ZM3.75354 19.715C2.58167 19.715 1.93713 19.094 1.93713 17.8752V3.75415C1.93713 2.5354 2.58167 1.91431 3.75354 1.91431H17.9215C19.0816 1.91431 19.7379 2.5354 19.7379 3.75415V17.8752C19.7379 19.094 19.0816 19.715 17.9215 19.715H3.75354Z" fill="black" fill-opacity="0.85"/>
<path d="M7.04651 15.7424C8.73401 15.7424 10.0231 14.6877 10.0231 12.9299C10.0231 11.4768 9.15589 10.7619 8.1598 10.6564V10.6213C9.2262 10.34 9.74183 9.39087 9.74183 8.40649C9.74183 6.78931 8.5348 5.86353 6.99964 5.86353C5.79261 5.86353 4.74964 6.54321 4.4098 7.58618C4.3512 7.80884 4.31604 8.01977 4.31604 8.21899C4.31604 8.60571 4.57386 8.9104 5.04261 8.9104C5.44104 8.9104 5.67542 8.75806 5.79261 8.3479C5.96839 7.65649 6.34339 7.2229 6.99964 7.2229C7.77308 7.2229 8.14808 7.82056 8.14808 8.59399C8.14808 9.44946 7.66761 10.0705 6.7887 10.0705H6.50745C6.12073 10.0705 5.86292 10.3166 5.86292 10.7033C5.86292 11.09 6.12073 11.3127 6.50745 11.3127H6.81214C7.80823 11.3127 8.3473 11.8635 8.3473 12.883C8.3473 13.6916 7.92542 14.383 7.05823 14.383C6.20276 14.383 5.81604 13.8088 5.67542 13.2697C5.55823 12.8947 5.31214 12.6955 4.93714 12.6955C4.48011 12.6955 4.1637 12.9768 4.1637 13.4338C4.1637 13.6447 4.19886 13.8557 4.25745 14.0432C4.5973 15.133 5.79261 15.7424 7.04651 15.7424ZM15.6012 15.6838C16.0348 15.6838 16.3981 15.4143 16.3981 14.8518V13.6799H16.8199C17.2652 13.6799 17.4879 13.3869 17.4879 12.9885C17.4879 12.6135 17.2887 12.3205 16.8199 12.3205H16.3981V7.17603C16.3981 6.36743 15.8707 5.9104 15.0973 5.9104C14.277 5.9104 13.8902 6.33227 13.5621 7.05884L11.4645 11.6057C11.277 12.0627 11.2066 12.3674 11.2066 12.7307C11.2066 13.2932 11.5934 13.6799 12.1676 13.6799H14.7926V14.8518C14.7926 15.4729 15.2262 15.6838 15.6012 15.6838ZM14.8277 12.3557H12.6481V12.2736L14.7809 7.38696H14.8277V12.3557Z" fill="black" fill-opacity="0.85"/>
</g>
<defs>
<clipPath id="clip0_2207_27256">
<rect width="21.5742" height="21.5977" fill="white" transform="translate(0.050415 0.00415039)"/>
</clipPath>
</defs>
</svg>
