<svg width="24" height="24" viewBox="0 0 24 24" fill="none" xmlns="http://www.w3.org/2000/svg">
<g clip-path="url(#clip0_2207_27266)">
<path d="M12.0078 23.9104C18.5469 23.9104 23.9609 18.4846 23.9609 11.9573C23.9609 5.41821 18.5352 0.00415039 11.9961 0.00415039C5.46875 0.00415039 0.0546875 5.41821 0.0546875 11.9573C0.0546875 18.4846 5.48047 23.9104 12.0078 23.9104ZM12.0078 21.9183C6.47657 21.9183 2.0586 17.4886 2.0586 11.9573C2.0586 6.42603 6.46485 1.99634 11.9961 1.99634C17.5274 1.99634 21.9688 6.42603 21.9688 11.9573C21.9688 17.4886 17.5391 21.9183 12.0078 21.9183Z" fill="black" fill-opacity="0.85"/>
<path d="M8.4336 16.9026C10.1211 16.9026 11.4102 15.848 11.4102 14.0901C11.4102 12.637 10.543 11.9222 9.54688 11.8167V11.7815C10.6133 11.5003 11.1289 10.5511 11.1289 9.56665C11.1289 7.94946 9.92188 7.02368 8.38672 7.02368C7.17969 7.02368 6.13672 7.70337 5.79688 8.74634C5.73828 8.96899 5.70313 9.17993 5.70313 9.37915C5.70313 9.76587 5.96094 10.0706 6.42969 10.0706C6.82813 10.0706 7.0625 9.91821 7.17969 9.50806C7.35547 8.81665 7.73047 8.38306 8.38672 8.38306C9.16016 8.38306 9.53516 8.98071 9.53516 9.75415C9.53516 10.6097 9.05469 11.2308 8.17578 11.2308H7.89453C7.4961 11.2308 7.25 11.4769 7.25 11.8636C7.25 12.2503 7.50781 12.473 7.89453 12.473H8.19922C9.1836 12.473 9.73438 13.0237 9.73438 14.0433C9.73438 14.8519 9.3125 15.5433 8.4336 15.5433C7.58985 15.5433 7.20313 14.969 7.0625 14.43C6.94531 14.055 6.69922 13.8558 6.32422 13.8558C5.85547 13.8558 5.55078 14.137 5.55078 14.594C5.55078 14.805 5.58594 15.0159 5.64453 15.2034C5.98438 16.2933 7.17969 16.9026 8.4336 16.9026ZM15.5469 16.9378C17.375 16.9378 18.3828 15.4026 18.3828 13.5511C18.3828 11.9339 17.5977 10.4573 16.0977 10.4573C15.4063 10.4573 14.7617 10.7737 14.4688 11.4534H14.4102L14.5977 8.60571H17.3516C17.7617 8.60571 18.0078 8.32446 18.0078 7.91431C18.0078 7.52759 17.75 7.2229 17.3516 7.2229H14.1406C13.5195 7.2229 13.25 7.62134 13.2031 8.23071L13.0156 11.4417C13.0039 11.6175 12.9922 11.805 12.9922 11.9573C12.9922 12.4026 13.2266 12.8011 13.7656 12.8011C14.082 12.8011 14.2695 12.6722 14.5156 12.3558C14.7852 11.969 15.0781 11.6878 15.5469 11.6878C16.4141 11.6878 16.7422 12.7308 16.7422 13.598C16.7422 14.5706 16.3906 15.5667 15.5235 15.5667C14.8672 15.5667 14.5039 15.098 14.2813 14.4534C14.1524 14.0784 13.8828 13.9026 13.5781 13.9026C13.1445 13.9026 12.875 14.1722 12.875 14.6058C12.875 14.8753 12.9453 15.1331 13.0391 15.3675C13.4492 16.3167 14.4922 16.9378 15.5469 16.9378Z" fill="black" fill-opacity="0.85"/>
</g>
<defs>
<clipPath id="clip0_2207_27266">
<rect width="23.9062" height="23.918" fill="white" transform="translate(0.0546875 0.00415039)"/>
</clipPath>
</defs>
</svg>
