<svg width="22" height="22" viewBox="0 0 22 22" fill="none" xmlns="http://www.w3.org/2000/svg">
<g clip-path="url(#clip0_2207_27321)">
<path d="M3.75733 21.6019H17.9721C20.4331 21.6019 21.6518 20.3831 21.6518 17.969V3.6604C21.6518 1.24634 20.4331 0.0275879 17.9721 0.0275879H3.75733C1.30811 0.0275879 0.0776367 1.23462 0.0776367 3.6604V17.969C0.0776367 20.3948 1.30811 21.6019 3.75733 21.6019Z" fill="black" fill-opacity="0.85"/>
<path d="M7.6128 15.8948C6.32373 15.8948 5.08155 15.2737 4.7417 14.1487C4.67139 13.9495 4.64795 13.7386 4.64795 13.5159C4.64795 13.0472 4.96436 12.7542 5.43311 12.7542C5.83155 12.7542 6.08936 12.9534 6.20655 13.3519C6.34717 13.9026 6.74561 14.4886 7.62452 14.4886C8.51514 14.4886 8.96045 13.7737 8.96045 12.9417C8.96045 11.8987 8.39795 11.3362 7.3667 11.3362H7.07373C6.6753 11.3362 6.39405 11.1019 6.39405 10.7034C6.39405 10.305 6.66358 10.0472 7.07373 10.0472H7.35498C8.25733 10.0472 8.74952 9.40259 8.74952 8.52368C8.74952 7.72681 8.37452 7.11743 7.57764 7.11743C6.88623 7.11743 6.52295 7.56274 6.32373 8.27759C6.20655 8.69946 5.96045 8.85181 5.5503 8.85181C5.06983 8.85181 4.8003 8.5354 4.8003 8.13696C4.8003 7.92603 4.83545 7.71509 4.89405 7.48071C5.24561 6.41431 6.32373 5.71118 7.57764 5.71118C9.14795 5.71118 10.4018 6.6604 10.4018 8.33618C10.4018 9.34399 9.8628 10.3284 8.77295 10.6214V10.6565C9.79248 10.762 10.6831 11.5003 10.6831 13.0003C10.6831 14.805 9.35889 15.8948 7.6128 15.8948ZM13.5307 15.848C12.9448 15.848 12.7338 15.4495 12.7338 15.098C12.7338 14.805 12.7807 14.6526 12.8745 14.3831L15.5581 7.45727V7.35181H12.4526C12.0424 7.35181 11.7495 7.04712 11.7495 6.62524C11.7495 6.21509 12.0424 5.9104 12.4526 5.9104H16.3549C16.894 5.9104 17.3276 6.2854 17.3276 6.8479C17.3276 7.19946 17.2338 7.49243 17.0932 7.86743L14.3393 15.2269C14.1753 15.6722 13.976 15.848 13.5307 15.848Z" fill="white"/>
</g>
<defs>
<clipPath id="clip0_2207_27321">
<rect width="21.5742" height="21.5977" fill="white" transform="translate(0.0776367 0.00415039)"/>
</clipPath>
</defs>
</svg>
