<svg width="24" height="24" viewBox="0 0 24 24" fill="none" xmlns="http://www.w3.org/2000/svg">
<g clip-path="url(#clip0_2207_27326)">
<path d="M12.0329 23.9104C18.572 23.9104 23.986 18.4846 23.986 11.9573C23.986 5.41821 18.5603 0.00415039 12.0212 0.00415039C5.49389 0.00415039 0.079834 5.41821 0.079834 11.9573C0.079834 18.4846 5.50561 23.9104 12.0329 23.9104ZM12.0329 21.9183C6.50171 21.9183 2.08374 17.4886 2.08374 11.9573C2.08374 6.42603 6.48999 1.99634 12.0212 1.99634C17.5525 1.99634 21.9939 6.42603 21.9939 11.9573C21.9939 17.4886 17.5642 21.9183 12.0329 21.9183Z" fill="black" fill-opacity="0.85"/>
<path d="M8.34155 16.9026C10.029 16.9026 11.3181 15.848 11.3181 14.0901C11.3181 12.637 10.4509 11.9222 9.45483 11.8167V11.7815C10.5212 11.5003 11.0368 10.5511 11.0368 9.56665C11.0368 7.94946 9.82983 7.02368 8.29467 7.02368C7.08764 7.02368 6.04467 7.70337 5.70483 8.74634C5.64624 8.96899 5.61108 9.17993 5.61108 9.37915C5.61108 9.76587 5.86889 10.0706 6.33764 10.0706C6.73608 10.0706 6.97045 9.91821 7.08764 9.50806C7.26342 8.81665 7.63842 8.38306 8.29467 8.38306C9.07983 8.38306 9.44311 8.98071 9.44311 9.75415C9.44311 10.6097 8.96264 11.2308 8.08374 11.2308H7.80249C7.41577 11.2308 7.15795 11.4769 7.15795 11.8636C7.15795 12.2503 7.41577 12.473 7.80249 12.473H8.10717C9.10327 12.473 9.64233 13.0237 9.64233 14.0433C9.64233 14.8519 9.22045 15.5433 8.35327 15.5433C7.4978 15.5433 7.11108 14.969 6.97045 14.43C6.85327 14.055 6.60717 13.8558 6.23217 13.8558C5.77514 13.8558 5.45874 14.137 5.45874 14.594C5.45874 14.805 5.49389 15.0159 5.55249 15.2034C5.89233 16.2933 7.08764 16.9026 8.34155 16.9026ZM15.5837 16.9026C17.447 16.9026 18.6306 15.7425 18.6306 14.137C18.6306 12.8597 17.822 11.9339 16.8845 11.723V11.6878C17.6696 11.4417 18.361 10.68 18.361 9.56665C18.361 8.05493 17.236 7.02368 15.5837 7.02368C14.1306 7.02368 12.8298 7.91431 12.8298 9.55493C12.8298 10.7503 13.5681 11.4534 14.3181 11.6878V11.723C13.322 11.9456 12.5603 12.8714 12.5603 14.137C12.5603 15.8714 13.8728 16.9026 15.5837 16.9026ZM15.5837 11.1487C14.8454 11.1487 14.4587 10.4222 14.4587 9.73071C14.4587 8.98071 14.8571 8.27759 15.5837 8.27759C16.3454 8.27759 16.7204 8.98071 16.7204 9.73071C16.7204 10.5042 16.3337 11.1487 15.5837 11.1487ZM15.5837 15.637C14.74 15.637 14.3181 14.8753 14.3181 14.0081C14.3181 13.1644 14.74 12.4144 15.5837 12.4144C16.4275 12.4144 16.8728 13.1175 16.8728 14.0081C16.8728 14.8753 16.4509 15.637 15.5837 15.637Z" fill="black" fill-opacity="0.85"/>
</g>
<defs>
<clipPath id="clip0_2207_27326">
<rect width="23.9062" height="23.918" fill="white" transform="translate(0.079834 0.00415039)"/>
</clipPath>
</defs>
</svg>
