<svg width="22" height="22" viewBox="0 0 22 22" fill="none" xmlns="http://www.w3.org/2000/svg">
<g clip-path="url(#clip0_2207_27361)">
<path d="M3.77417 21.6019H17.989C20.45 21.6019 21.6687 20.3831 21.6687 17.969V3.6604C21.6687 1.24634 20.45 0.0275879 17.989 0.0275879H3.77417C1.32495 0.0275879 0.0944824 1.23462 0.0944824 3.6604V17.969C0.0944824 20.3948 1.32495 21.6019 3.77417 21.6019Z" fill="black" fill-opacity="0.85"/>
<path d="M7.10229 15.8948C5.80151 15.8948 4.57104 15.2737 4.21948 14.1487C4.16089 13.9495 4.12573 13.7386 4.12573 13.5159C4.12573 13.0472 4.44214 12.7542 4.9226 12.7542C5.32104 12.7542 5.56714 12.9534 5.68432 13.3519C5.83667 13.9026 6.22339 14.4886 7.10229 14.4886C7.99292 14.4886 8.43823 13.7737 8.43823 12.9417C8.43823 11.8987 7.87573 11.3362 6.84448 11.3362H6.55151C6.15307 11.3362 5.88354 11.1019 5.88354 10.7034C5.88354 10.305 6.14136 10.0472 6.55151 10.0472H6.83276C7.74682 10.0472 8.22729 9.40259 8.22729 8.52368C8.22729 7.72681 7.85229 7.11743 7.05542 7.11743C6.37573 7.11743 6.00073 7.56274 5.80151 8.27759C5.68432 8.69946 5.44995 8.85181 5.02807 8.85181C4.5476 8.85181 4.28979 8.5354 4.28979 8.13696C4.28979 7.92603 4.31323 7.71509 4.38354 7.48071C4.72339 6.41431 5.81323 5.71118 7.05542 5.71118C8.62573 5.71118 9.89136 6.6604 9.89136 8.33618C9.89136 9.34399 9.34057 10.3284 8.25073 10.6214V10.6565C9.27026 10.762 10.1726 11.5003 10.1726 13.0003C10.1726 14.805 8.83667 15.8948 7.10229 15.8948ZM13.8054 12.3089C12.2 12.3089 11.4148 10.762 11.4148 9.13306C11.4148 7.23462 12.4695 5.68774 14.3093 5.68774C16.7703 5.68774 17.4968 8.41821 17.4968 10.7034C17.4968 13.1761 16.782 15.9183 14.2976 15.9183C13.0906 15.9183 12.0359 15.2854 11.7781 14.2308C11.7312 14.0901 11.6961 13.9378 11.6961 13.7972C11.6961 13.3987 11.9187 13.0589 12.4343 13.0589C12.7976 13.0589 13.032 13.2112 13.2195 13.6097C13.4187 14.1253 13.782 14.5003 14.3211 14.5003C15.6804 14.5003 15.8445 12.0862 15.8445 10.7503C15.8445 10.7151 15.8445 10.6683 15.8445 10.6214H15.7976C15.5164 11.6526 14.7781 12.3089 13.8054 12.3089ZM14.3328 10.973C15.2117 10.973 15.6101 9.98853 15.6101 9.05103C15.6101 8.14868 15.2586 7.10571 14.3328 7.10571C13.5007 7.10571 13.1023 8.14868 13.1023 9.05103C13.1023 9.94165 13.4422 10.973 14.3328 10.973Z" fill="white"/>
</g>
<defs>
<clipPath id="clip0_2207_27361">
<rect width="21.5742" height="21.5977" fill="white" transform="translate(0.0944824 0.00415039)"/>
</clipPath>
</defs>
</svg>
