<svg width="25" height="24" viewBox="0 0 25 24" fill="none" xmlns="http://www.w3.org/2000/svg">
<g clip-path="url(#clip0_2207_26411)">
<path d="M12.0517 23.9104C18.5908 23.9104 24.0048 18.4846 24.0048 11.9573C24.0048 5.41821 18.5791 0.00415039 12.04 0.00415039C5.51269 0.00415039 0.0986328 5.41821 0.0986328 11.9573C0.0986328 18.4846 5.52441 23.9104 12.0517 23.9104Z" fill="black" fill-opacity="0.85"/>
<path d="M7.44629 14.1955C7.44629 13.9377 7.50488 13.6799 7.64551 13.4338C8.94629 11.1603 10.1181 9.08618 11.3955 6.82446C11.6298 6.42603 11.8877 6.23853 12.2744 6.23853C12.8252 6.23853 13.1181 6.64868 13.1181 7.12915C13.1181 7.31665 13.0595 7.50415 12.9658 7.70337C11.8408 9.76587 10.7978 11.5705 9.70801 13.5979H13.0595V10.9963C13.0595 10.3518 13.3877 9.97681 13.9267 9.97681C14.5127 9.97681 14.8408 10.34 14.8408 10.9963V13.5979H15.6494C16.1767 13.5979 16.5166 13.9025 16.5166 14.3713C16.5166 14.8752 16.1767 15.2033 15.6494 15.2033H14.8408V16.4455C14.8408 17.1018 14.5127 17.465 13.9267 17.465C13.3877 17.465 13.0595 17.09 13.0595 16.4455V15.2033H8.51269C7.84472 15.2033 7.44629 14.8049 7.44629 14.1955Z" fill="white"/>
</g>
<defs>
<clipPath id="clip0_2207_26411">
<rect width="23.9062" height="23.918" fill="white" transform="translate(0.0986328 0.00415039)"/>
</clipPath>
</defs>
</svg>
