<svg width="22" height="22" viewBox="0 0 22 22" fill="none" xmlns="http://www.w3.org/2000/svg">
<g clip-path="url(#clip0_2207_26421)">
<path d="M3.68189 21.6033H17.8967C20.3577 21.6033 21.5764 20.3845 21.5764 17.9704V3.66187C21.5764 1.24781 20.3577 0.0290527 17.8967 0.0290527H3.68189C1.23267 0.0290527 0.00219727 1.23609 0.00219727 3.66187V17.9704C0.00219727 20.3962 1.23267 21.6033 3.68189 21.6033Z" fill="black" fill-opacity="0.85"/>
<path d="M6.1897 13.0368C6.1897 12.779 6.24829 12.5212 6.38892 12.2751C7.6897 10.0017 8.86158 7.92749 10.1506 5.66577C10.3733 5.26733 10.6311 5.07983 11.0178 5.07983C11.5686 5.07983 11.8733 5.48999 11.8733 5.97045C11.8733 6.15795 11.803 6.34545 11.7092 6.54467C10.5842 8.60717 9.54126 10.4118 8.45142 12.4392H11.803V9.83764C11.803 9.19311 12.1311 8.81811 12.6819 8.81811C13.2561 8.81811 13.5842 9.18139 13.5842 9.83764V12.4392H14.3928C14.9319 12.4392 15.26 12.7439 15.26 13.2126C15.26 13.7165 14.9319 14.0447 14.3928 14.0447H13.5842V15.2868C13.5842 15.9431 13.2561 16.3064 12.6819 16.3064C12.1311 16.3064 11.803 15.9314 11.803 15.2868V14.0447H7.25611C6.59986 14.0447 6.1897 13.6462 6.1897 13.0368Z" fill="white"/>
</g>
<defs>
<clipPath id="clip0_2207_26421">
<rect width="21.5742" height="21.5977" fill="white" transform="translate(0.00219727 0.00561523)"/>
</clipPath>
</defs>
</svg>
