<svg width="22" height="22" viewBox="0 0 22 22" fill="none" xmlns="http://www.w3.org/2000/svg">
<g clip-path="url(#clip0_2207_26416)">
<path d="M3.67969 21.6033H17.8945C20.3555 21.6033 21.5742 20.3845 21.5742 17.9704V3.66187C21.5742 1.24781 20.3555 0.0290527 17.8945 0.0290527H3.67969C1.23047 0.0290527 0 1.23609 0 3.66187V17.9704C0 20.3962 1.23047 21.6033 3.67969 21.6033ZM3.70312 19.7165C2.53125 19.7165 1.88672 19.0954 1.88672 17.8767V3.75562C1.88672 2.53687 2.53125 1.91578 3.70312 1.91578H17.8711C19.0312 1.91578 19.6875 2.53687 19.6875 3.75562V17.8767C19.6875 19.0954 19.0312 19.7165 17.8711 19.7165H3.70312Z" fill="black" fill-opacity="0.85"/>
<path d="M6.32812 12.9665C6.32812 13.5525 6.72656 13.9392 7.35938 13.9392H11.7656V15.3923C11.7656 16.0134 12.082 16.3767 12.6211 16.3767C13.1719 16.3767 13.4883 16.0251 13.4883 15.3923V13.9392H14.2734C14.8008 13.9392 15.1172 13.6228 15.1172 13.1306C15.1172 12.6853 14.8008 12.3923 14.2734 12.3923H13.4883V9.86109C13.4883 9.22828 13.1719 8.87671 12.6211 8.87671C12.082 8.87671 11.7656 9.24 11.7656 9.86109V12.3923H8.50781C9.5625 10.4236 10.5938 8.64234 11.6836 6.63843C11.7773 6.45093 11.8477 6.27515 11.8477 6.08765C11.8477 5.63062 11.5547 5.23218 11.0156 5.23218C10.6523 5.23218 10.3945 5.40796 10.1836 5.79468C8.94142 7.98609 7.78125 10.0251 6.52734 12.2283C6.38672 12.4626 6.32812 12.7204 6.32812 12.9665Z" fill="black" fill-opacity="0.85"/>
</g>
<defs>
<clipPath id="clip0_2207_26416">
<rect width="21.5742" height="21.5977" fill="white" transform="translate(0 0.00561523)"/>
</clipPath>
</defs>
</svg>
