<svg width="24" height="24" viewBox="0 0 24 24" fill="none" xmlns="http://www.w3.org/2000/svg">
<g clip-path="url(#clip0_2207_26386)">
<path d="M11.9573 23.9118C18.4964 23.9118 23.9104 18.4861 23.9104 11.9587C23.9104 5.41968 18.4846 0.00561523 11.9455 0.00561523C5.41821 0.00561523 0.00415039 5.41968 0.00415039 11.9587C0.00415039 18.4861 5.42993 23.9118 11.9573 23.9118ZM11.9573 21.9197C6.42603 21.9197 2.00806 17.49 2.00806 11.9587C2.00806 6.4275 6.41431 1.99781 11.9455 1.99781C17.4769 1.99781 21.9183 6.4275 21.9183 11.9587C21.9183 17.49 17.4886 21.9197 11.9573 21.9197Z" fill="black" fill-opacity="0.85"/>
<path d="M13.4808 17.5368C14.0315 17.5368 14.348 17.1736 14.348 16.5525V15.1111H15.2503C15.7073 15.1111 16.0237 14.8064 16.0237 14.3494C16.0237 13.8923 15.719 13.5759 15.2503 13.5759H14.348V7.61109C14.348 6.87281 13.7854 6.38062 12.9534 6.38062C12.1331 6.38062 11.6175 6.67359 11.1487 7.37671C9.94165 9.20484 8.48853 11.3611 7.51587 12.9431C7.28149 13.3298 7.19946 13.6111 7.19946 13.9626C7.19946 14.654 7.66821 15.1111 8.41821 15.1111H12.6253V16.5525C12.6253 17.1618 12.9417 17.5368 13.4808 17.5368ZM12.6253 13.5759H8.92212V13.5056C9.81274 11.9704 11.3128 9.7439 12.5433 7.89234H12.6253V13.5759Z" fill="black" fill-opacity="0.85"/>
</g>
<defs>
<clipPath id="clip0_2207_26386">
<rect width="23.9062" height="23.918" fill="white" transform="translate(0.00415039 0.00561523)"/>
</clipPath>
</defs>
</svg>
