<svg width="22" height="22" viewBox="0 0 22 22" fill="none" xmlns="http://www.w3.org/2000/svg">
<g clip-path="url(#clip0_2207_27381)">
<path d="M3.70069 21.6033H17.9155C20.3765 21.6033 21.5952 20.3845 21.5952 17.9704V3.66187C21.5952 1.24781 20.3765 0.0290527 17.9155 0.0290527H3.70069C1.25147 0.0290527 0.0209961 1.23609 0.0209961 3.66187V17.9704C0.0209961 20.3962 1.25147 21.6033 3.70069 21.6033Z" fill="black" fill-opacity="0.85"/>
<path d="M8.07178 15.8376C7.68506 15.8376 7.23975 15.615 7.23975 14.9822V13.7751H4.53272C3.94678 13.7751 3.53662 13.3767 3.53662 12.7908C3.53662 12.4158 3.61866 12.0994 3.81788 11.6306L5.96241 6.94311C6.30225 6.19311 6.70069 5.75952 7.56788 5.75952C8.35303 5.75952 8.90381 6.22827 8.90381 7.07202V12.3689H9.33741C9.81788 12.3689 10.0288 12.6736 10.0288 13.0603C10.0288 13.4704 9.80616 13.7751 9.33741 13.7751H8.90381V14.9822C8.90381 15.5564 8.54053 15.8376 8.07178 15.8376ZM7.27491 12.404V7.28295H7.22803L5.03662 12.322V12.404H7.27491ZM14.3882 15.9314C11.9858 15.9314 11.2593 13.2361 11.2593 10.7986C11.2593 8.36108 11.9858 5.66577 14.3882 5.66577C16.8022 5.66577 17.5288 8.36108 17.5288 10.7986C17.5288 13.2361 16.8022 15.9314 14.3882 15.9314ZM14.3882 14.49C15.3726 14.49 15.7476 12.8962 15.7476 10.7986C15.7476 8.6892 15.3726 7.10717 14.3882 7.10717C13.4038 7.10717 13.0288 8.6892 13.0288 10.7986C13.0288 12.8962 13.4038 14.49 14.3882 14.49Z" fill="white"/>
</g>
<defs>
<clipPath id="clip0_2207_27381">
<rect width="21.5742" height="21.5977" fill="white" transform="translate(0.0209961 0.00561523)"/>
</clipPath>
</defs>
</svg>
