<svg width="24" height="24" viewBox="0 0 24 24" fill="none" xmlns="http://www.w3.org/2000/svg">
<g clip-path="url(#clip0_2207_27391)">
<path d="M11.9782 23.9118C18.5173 23.9118 23.9313 18.4861 23.9313 11.9587C23.9313 5.41968 18.5056 0.00561523 11.9665 0.00561523C5.43921 0.00561523 0.0251465 5.41968 0.0251465 11.9587C0.0251465 18.4861 5.45093 23.9118 11.9782 23.9118Z" fill="black" fill-opacity="0.85"/>
<path d="M10.1502 16.9978C9.76343 16.9978 9.29468 16.7751 9.29468 16.1423V14.9353H6.61109C6.01343 14.9353 5.61499 14.5368 5.61499 13.9509C5.61499 13.5759 5.67359 13.2595 5.88453 12.7908L8.04077 8.10328C8.38062 7.35328 8.77906 6.91968 9.62281 6.91968C10.4314 6.91968 10.9705 7.38843 10.9705 8.23218V13.529H11.3924C11.8846 13.529 12.0838 13.8337 12.0838 14.2204C12.0838 14.6306 11.8729 14.9353 11.3924 14.9353H10.9705V16.1423C10.9705 16.7165 10.5955 16.9978 10.1502 16.9978ZM9.32984 13.5642V8.44312H9.29468L7.10327 13.4822V13.5642H9.32984ZM16.0329 16.9744C15.529 16.9744 15.1307 16.5759 15.1307 16.0837V8.75953L14.0174 9.65015C13.9002 9.7439 13.783 9.8025 13.5955 9.8025C13.2205 9.8025 12.9627 9.53296 12.9627 9.15796C12.9627 8.84156 13.1385 8.60718 13.3493 8.44312L14.6854 7.41187C14.9549 7.20093 15.3768 6.91968 15.8807 6.91968C16.5135 6.91968 16.9002 7.28296 16.9002 7.90406V16.0837C16.9002 16.5759 16.5017 16.9744 16.0329 16.9744Z" fill="white"/>
</g>
<defs>
<clipPath id="clip0_2207_27391">
<rect width="23.9062" height="23.918" fill="white" transform="translate(0.0251465 0.00561523)"/>
</clipPath>
</defs>
</svg>
