<svg width="24" height="24" viewBox="0 0 24 24" fill="none" xmlns="http://www.w3.org/2000/svg">
<g clip-path="url(#clip0_2207_27426)">
<path d="M11.993 23.9118C18.5321 23.9118 23.9461 18.4861 23.9461 11.9587C23.9461 5.41968 18.5204 0.00561523 11.9813 0.00561523C5.45398 0.00561523 0.039917 5.41968 0.039917 11.9587C0.039917 18.4861 5.4657 23.9118 11.993 23.9118ZM11.993 21.9197C6.4618 21.9197 2.04383 17.49 2.04383 11.9587C2.04383 6.4275 6.45008 1.99781 11.9813 1.99781C17.5126 1.99781 21.954 6.4275 21.954 11.9587C21.954 17.49 17.5243 21.9197 11.993 21.9197Z" fill="black" fill-opacity="0.85"/>
<path d="M9.4618 16.8454C9.89539 16.8454 10.2587 16.5759 10.2587 16.0134V14.8415H10.6805C11.1258 14.8415 11.3368 14.5486 11.3368 14.1501C11.3368 13.7751 11.1493 13.4822 10.6805 13.4822H10.2587V8.33765C10.2587 7.52906 9.73133 7.07203 8.95789 7.07203C8.13758 7.07203 7.75086 7.4939 7.42273 8.22046L5.32508 12.7673C5.13758 13.2244 5.06726 13.529 5.06726 13.8923C5.06726 14.4548 5.45398 14.8415 6.0282 14.8415H8.6532V16.0134C8.6532 16.6345 9.0868 16.8454 9.4618 16.8454ZM8.68836 13.5173H6.50867V13.4353L8.64148 8.54859H8.68836V13.5173ZM15.4149 16.904C17.1024 16.904 18.3915 15.8494 18.3915 14.0915C18.3915 12.6384 17.5243 11.9236 16.5282 11.8181V11.7829C17.5946 11.5017 18.1102 10.5525 18.1102 9.56812C18.1102 7.95093 16.9032 7.02515 15.3797 7.02515C14.161 7.02515 13.118 7.70484 12.7782 8.74781C12.7196 8.97046 12.6961 9.1814 12.6961 9.38062C12.6961 9.76734 12.9422 10.072 13.411 10.072C13.8094 10.072 14.0438 9.91968 14.161 9.50953C14.3485 8.81812 14.7118 8.38453 15.3797 8.38453C16.1532 8.38453 16.5165 8.98218 16.5165 9.75562C16.5165 10.6111 16.036 11.2322 15.1571 11.2322H14.8876C14.4891 11.2322 14.2313 11.4783 14.2313 11.865C14.2313 12.2517 14.4891 12.4744 14.8876 12.4744H15.1805C16.1766 12.4744 16.7274 13.0251 16.7274 14.0447C16.7274 14.8533 16.2938 15.5447 15.4266 15.5447C14.5711 15.5447 14.1844 14.9704 14.0438 14.4314C13.9383 14.0564 13.6805 13.8572 13.3055 13.8572C12.8485 13.8572 12.5321 14.1384 12.5321 14.5954C12.5321 14.8064 12.5672 15.0173 12.6258 15.2048C12.9657 16.2947 14.161 16.904 15.4149 16.904Z" fill="black" fill-opacity="0.85"/>
</g>
<defs>
<clipPath id="clip0_2207_27426">
<rect width="23.9062" height="23.918" fill="white" transform="translate(0.039917 0.00561523)"/>
</clipPath>
</defs>
</svg>
