<svg width="22" height="22" viewBox="0 0 22 22" fill="none" xmlns="http://www.w3.org/2000/svg">
<g clip-path="url(#clip0_2207_27456)">
<path d="M3.73218 21.6033H17.947C20.408 21.6033 21.6267 20.3845 21.6267 17.9704V3.66187C21.6267 1.24781 20.408 0.0290527 17.947 0.0290527H3.73218C1.28296 0.0290527 0.0524902 1.23609 0.0524902 3.66187V17.9704C0.0524902 20.3962 1.28296 21.6033 3.73218 21.6033ZM3.75561 19.7165C2.58374 19.7165 1.93921 19.0954 1.93921 17.8767V3.75562C1.93921 2.53687 2.58374 1.91578 3.75561 1.91578H17.9236C19.0837 1.91578 19.74 2.53687 19.74 3.75562V17.8767C19.74 19.0954 19.0837 19.7165 17.9236 19.7165H3.75561Z" fill="black" fill-opacity="0.85"/>
<path d="M8.1853 15.6853C8.6189 15.6853 8.98218 15.4158 8.98218 14.8533V13.6814H9.40405C9.84937 13.6814 10.0603 13.3884 10.0603 12.99C10.0603 12.615 9.8728 12.322 9.40405 12.322H8.98218V7.1775C8.98218 6.36889 8.45483 5.91187 7.6814 5.91187C6.86108 5.91187 6.47437 6.33374 6.14624 7.06031L4.04858 11.6072C3.86108 12.0642 3.79077 12.3689 3.79077 12.7322C3.79077 13.2947 4.17749 13.6814 4.75171 13.6814H7.37671V14.8533C7.37671 15.4744 7.8103 15.6853 8.1853 15.6853ZM7.41187 12.3572H5.23218V12.2751L7.36499 7.38843H7.41187V12.3572ZM15.5798 15.6853C16.0134 15.6853 16.3767 15.4158 16.3767 14.8533V13.6814H16.7986C17.2439 13.6814 17.4548 13.3884 17.4548 12.99C17.4548 12.615 17.2673 12.322 16.7986 12.322H16.3767V7.1775C16.3767 6.36889 15.8494 5.91187 15.0759 5.91187C14.2556 5.91187 13.8689 6.33374 13.5408 7.06031L11.4431 11.6072C11.2556 12.0642 11.1853 12.3689 11.1853 12.7322C11.1853 13.2947 11.572 13.6814 12.1463 13.6814H14.7713V14.8533C14.7713 15.4744 15.2048 15.6853 15.5798 15.6853ZM14.8064 12.3572H12.6267V12.2751L14.7595 7.38843H14.8064V12.3572Z" fill="black" fill-opacity="0.85"/>
</g>
<defs>
<clipPath id="clip0_2207_27456">
<rect width="21.5742" height="21.5977" fill="white" transform="translate(0.0524902 0.00561523)"/>
</clipPath>
</defs>
</svg>
