<svg width="24" height="24" viewBox="0 0 24 24" fill="none" xmlns="http://www.w3.org/2000/svg">
<g clip-path="url(#clip0_2207_27466)">
<path d="M12.0097 23.9118C18.5488 23.9118 23.9628 18.4861 23.9628 11.9587C23.9628 5.41968 18.5371 0.00561523 11.998 0.00561523C5.4707 0.00561523 0.0566406 5.41968 0.0566406 11.9587C0.0566406 18.4861 5.48242 23.9118 12.0097 23.9118ZM12.0097 21.9197C6.47852 21.9197 2.06055 17.49 2.06055 11.9587C2.06055 6.4275 6.4668 1.99781 11.998 1.99781C17.5293 1.99781 21.9707 6.4275 21.9707 11.9587C21.9707 17.49 17.541 21.9197 12.0097 21.9197Z" fill="black" fill-opacity="0.85"/>
<path d="M9.54883 16.8454C9.99414 16.8454 10.3574 16.5759 10.3574 16.0134V14.8415H10.7675C11.2246 14.8415 11.4355 14.5486 11.4355 14.1501C11.4355 13.7751 11.2363 13.4822 10.7675 13.4822H10.3574V8.33764C10.3574 7.52905 9.81836 7.07202 9.05664 7.07202C8.23633 7.07202 7.84961 7.49389 7.52148 8.22045L5.42383 12.7673C5.22461 13.2244 5.1543 13.529 5.1543 13.8923C5.1543 14.4548 5.55273 14.8415 6.11523 14.8415H8.74023V16.0134C8.74023 16.6345 9.18555 16.8454 9.54883 16.8454ZM8.77539 13.5173H6.5957V13.4353L8.72852 8.54858H8.77539V13.5173ZM15.5136 16.9392C17.3418 16.9392 18.3378 15.404 18.3378 13.5525C18.3378 11.9353 17.5644 10.4587 16.0527 10.4587C15.373 10.4587 14.7285 10.7751 14.4355 11.4548H14.3769L14.5644 8.60717H17.3183C17.7285 8.60717 17.9746 8.32592 17.9746 7.91577C17.9746 7.52905 17.7168 7.22436 17.3183 7.22436H14.0957C13.4863 7.22436 13.2168 7.6228 13.1699 8.23217L12.9824 11.4431C12.9707 11.6189 12.9589 11.8064 12.9589 11.9587C12.9589 12.404 13.1933 12.8025 13.7324 12.8025C14.0488 12.8025 14.2363 12.6736 14.4824 12.3572C14.7402 11.9704 15.0449 11.6892 15.5136 11.6892C16.3808 11.6892 16.7089 12.7322 16.7089 13.5994C16.7089 14.572 16.3574 15.5681 15.4902 15.5681C14.8339 15.5681 14.4589 15.0994 14.248 14.4548C14.1191 14.0798 13.8496 13.904 13.5449 13.904C13.1113 13.904 12.8418 14.1736 12.8418 14.6072C12.8418 14.8767 12.9121 15.1345 13.0058 15.3689C13.416 16.3181 14.4589 16.9392 15.5136 16.9392Z" fill="black" fill-opacity="0.85"/>
</g>
<defs>
<clipPath id="clip0_2207_27466">
<rect width="23.9062" height="23.918" fill="white" transform="translate(0.0566406 0.00561523)"/>
</clipPath>
</defs>
</svg>
