<svg width="24" height="24" viewBox="0 0 24 24" fill="none" xmlns="http://www.w3.org/2000/svg">
<g clip-path="url(#clip0_2207_27491)">
<path d="M12.0202 23.9118C18.5593 23.9118 23.9733 18.4861 23.9733 11.9587C23.9733 5.41968 18.5476 0.00561523 12.0085 0.00561523C5.4812 0.00561523 0.0671387 5.41968 0.0671387 11.9587C0.0671387 18.4861 5.49292 23.9118 12.0202 23.9118Z" fill="black" fill-opacity="0.85"/>
<path d="M9.27808 16.9978C8.90308 16.9978 8.43433 16.7751 8.43433 16.1306V14.9353H5.7273C5.15308 14.9353 4.74292 14.5368 4.74292 13.9509C4.74292 13.5759 4.81323 13.2595 5.01245 12.7908L7.1687 8.10328C7.50855 7.35328 7.9187 6.91968 8.76245 6.91968C9.55933 6.91968 10.1101 7.38842 10.1101 8.23217V13.529H10.5319C11.0124 13.529 11.2233 13.8337 11.2233 14.2204C11.2233 14.6306 11.0007 14.9353 10.5319 14.9353H10.1101V16.1306C10.1101 16.7165 9.73511 16.9978 9.27808 16.9978ZM8.46948 13.5642V8.44312H8.42261L6.2312 13.4822V13.5642H8.46948ZM15.6648 17.0915C13.2038 17.0915 12.4773 14.3611 12.4773 12.0759C12.4773 9.62671 13.1921 6.84937 15.6765 6.84937C16.8952 6.84937 17.9382 7.4939 18.1843 8.53687C18.2429 8.68921 18.2546 8.84156 18.2546 8.97046C18.2546 9.3689 18.0437 9.69703 17.5632 9.69703C17.153 9.69703 16.9304 9.53296 16.7546 9.15796C16.5554 8.65406 16.1921 8.26733 15.6413 8.26733C14.2937 8.26733 14.1296 10.6931 14.1296 12.029C14.1296 12.0642 14.1296 12.1111 14.1296 12.1579H14.1765C14.4577 11.1267 15.196 10.4704 16.1687 10.4704C17.7741 10.4704 18.5593 12.0173 18.5593 13.6462C18.5593 15.5447 17.5046 17.0915 15.6648 17.0915ZM15.6413 15.6736C16.4851 15.6736 16.8718 14.6072 16.8718 13.7283C16.8952 12.8376 16.5319 11.7947 15.6413 11.7947C14.7741 11.7947 14.364 12.7908 14.364 13.6697C14.364 14.5368 14.7155 15.6736 15.6413 15.6736Z" fill="white"/>
</g>
<defs>
<clipPath id="clip0_2207_27491">
<rect width="23.9062" height="23.918" fill="white" transform="translate(0.0671387 0.00561523)"/>
</clipPath>
</defs>
</svg>
