<svg width="22" height="22" viewBox="0 0 22 22" fill="none" xmlns="http://www.w3.org/2000/svg">
<g clip-path="url(#clip0_2207_27501)">
<path d="M3.75098 21.6033H17.9658C20.4268 21.6033 21.6455 20.3845 21.6455 17.9704V3.66187C21.6455 1.24781 20.4268 0.0290527 17.9658 0.0290527H3.75098C1.30176 0.0290527 0.0712891 1.23609 0.0712891 3.66187V17.9704C0.0712891 20.3962 1.30176 21.6033 3.75098 21.6033Z" fill="black" fill-opacity="0.85"/>
<path d="M8.13379 15.8376C7.74707 15.8376 7.27832 15.615 7.27832 14.9704V13.7751H4.58301C3.99707 13.7751 3.58691 13.3767 3.58691 12.7908C3.58691 12.4158 3.65723 12.0994 3.85645 11.6306L6.0127 6.94312C6.35254 6.19312 6.7627 5.75953 7.60645 5.75953C8.40332 5.75953 8.9541 6.22828 8.9541 7.07203V12.3689H9.37598C9.85645 12.3689 10.0674 12.6736 10.0674 13.0603C10.0674 13.4704 9.84473 13.7751 9.37598 13.7751H8.9541V14.9704C8.9541 15.5564 8.5791 15.8376 8.13379 15.8376ZM7.31348 12.404V7.28296H7.2666L5.08691 12.322V12.404H7.31348ZM14.5088 15.9314C12.0479 15.9314 11.3213 13.2009 11.3213 10.9158C11.3213 8.46656 12.0479 5.68921 14.5322 5.68921C15.7393 5.68921 16.7822 6.33374 17.0401 7.37671C17.0869 7.52906 17.0986 7.6814 17.0986 7.81031C17.0986 8.20874 16.8877 8.53687 16.4072 8.53687C16.0088 8.53687 15.7744 8.37281 15.5986 7.99781C15.3994 7.4939 15.0361 7.10718 14.4854 7.10718C13.1377 7.10718 12.9736 9.53296 12.9736 10.8689C12.9736 10.904 12.9736 10.9509 12.9736 10.9978H13.0205C13.3018 9.96656 14.0401 9.31031 15.0127 9.31031C16.6182 9.31031 17.4033 10.8572 17.4033 12.4861C17.4033 14.3845 16.3604 15.9314 14.5088 15.9314ZM14.4854 14.5134C15.3291 14.5134 15.7158 13.447 15.7158 12.5681C15.7393 11.6775 15.376 10.6345 14.4854 10.6345C13.6182 10.6345 13.208 11.6306 13.208 12.5095C13.208 13.3767 13.5713 14.5134 14.4854 14.5134Z" fill="white"/>
</g>
<defs>
<clipPath id="clip0_2207_27501">
<rect width="21.5742" height="21.5977" fill="white" transform="translate(0.0712891 0.00561523)"/>
</clipPath>
</defs>
</svg>
