<svg width="24" height="24" viewBox="0 0 24 24" fill="none" xmlns="http://www.w3.org/2000/svg">
<g clip-path="url(#clip0_2207_27506)">
<path d="M12.0266 23.9118C18.5657 23.9118 23.9797 18.4861 23.9797 11.9587C23.9797 5.41968 18.554 0.00561523 12.0149 0.00561523C5.48755 0.00561523 0.0734863 5.41968 0.0734863 11.9587C0.0734863 18.4861 5.49927 23.9118 12.0266 23.9118ZM12.0266 21.9197C6.49537 21.9197 2.0774 17.49 2.0774 11.9587C2.0774 6.4275 6.48365 1.99781 12.0149 1.99781C17.5462 1.99781 21.9876 6.4275 21.9876 11.9587C21.9876 17.49 17.5579 21.9197 12.0266 21.9197Z" fill="black" fill-opacity="0.85"/>
<path d="M9.94067 16.8454C10.3743 16.8454 10.7376 16.5759 10.7376 16.0134V14.8415H11.1594C11.6047 14.8415 11.8274 14.5486 11.8274 14.1501C11.8274 13.7751 11.6282 13.4822 11.1594 13.4822H10.7376V8.33764C10.7376 7.52905 10.2102 7.07202 9.43676 7.07202C8.61645 7.07202 8.22973 7.49389 7.9016 8.22045L5.80395 12.7673C5.61645 13.2244 5.54614 13.529 5.54614 13.8923C5.54614 14.4548 5.93286 14.8415 6.50707 14.8415H9.13207V16.0134C9.13207 16.6345 9.56567 16.8454 9.94067 16.8454ZM9.16723 13.5173H6.98754V13.4353L9.12036 8.54858H9.16723V13.5173ZM14.429 16.8572C14.8626 16.8572 15.0501 16.6814 15.2141 16.2595L17.886 9.11108C18.0149 8.7478 18.1087 8.46655 18.1087 8.1267C18.1087 7.58764 17.6868 7.22436 17.1712 7.22436H13.386C12.9876 7.22436 12.7063 7.51733 12.7063 7.91577C12.7063 8.3142 12.9876 8.60717 13.386 8.60717H16.3977V8.71264L13.7962 15.4392C13.7024 15.697 13.6555 15.8494 13.6555 16.1306C13.6555 16.4704 13.8665 16.8572 14.429 16.8572Z" fill="black" fill-opacity="0.85"/>
</g>
<defs>
<clipPath id="clip0_2207_27506">
<rect width="23.9062" height="23.918" fill="white" transform="translate(0.0734863 0.00561523)"/>
</clipPath>
</defs>
</svg>
