<svg width="24" height="24" viewBox="0 0 24 24" fill="none" xmlns="http://www.w3.org/2000/svg">
<g clip-path="url(#clip0_2207_27511)">
<path d="M12.0288 23.9118C18.5679 23.9118 23.9819 18.4861 23.9819 11.9587C23.9819 5.41968 18.5562 0.00561523 12.0171 0.00561523C5.48974 0.00561523 0.0756836 5.41968 0.0756836 11.9587C0.0756836 18.4861 5.50146 23.9118 12.0288 23.9118Z" fill="black" fill-opacity="0.85"/>
<path d="M9.89599 16.9978C9.50927 16.9978 9.05224 16.7751 9.05224 16.1306V14.9353H6.35693C5.75927 14.9353 5.36084 14.5368 5.36084 13.9509C5.36084 13.5759 5.43115 13.2595 5.63037 12.7908L7.7749 8.10328C8.11474 7.35328 8.5249 6.91968 9.36865 6.91968C10.1773 6.91968 10.7163 7.38843 10.7163 8.23218V13.529H11.1499C11.6421 13.529 11.8413 13.8337 11.8413 14.2204C11.8413 14.6306 11.6187 14.9353 11.1499 14.9353H10.7163V16.1306C10.7163 16.7165 10.3413 16.9978 9.89599 16.9978ZM9.0874 13.5642V8.44312H9.04052L6.84912 13.4822V13.5642H9.0874ZM14.5249 17.0095C13.9507 17.0095 13.728 16.6111 13.728 16.2595C13.728 15.9665 13.7749 15.8142 13.8687 15.5447L16.5523 8.6189V8.51343H13.4468C13.0366 8.51343 12.7437 8.20874 12.7437 7.78687C12.7437 7.37671 13.0366 7.07203 13.4468 7.07203H17.3491C17.8882 7.07203 18.3218 7.44703 18.3218 8.00953C18.3218 8.36109 18.228 8.65406 18.0991 9.02906L15.3452 16.3884C15.1695 16.8337 14.9819 17.0095 14.5249 17.0095Z" fill="white"/>
</g>
<defs>
<clipPath id="clip0_2207_27511">
<rect width="23.9062" height="23.918" fill="white" transform="translate(0.0756836 0.00561523)"/>
</clipPath>
</defs>
</svg>
