<svg width="22" height="22" viewBox="0 0 22 22" fill="none" xmlns="http://www.w3.org/2000/svg">
<g clip-path="url(#clip0_2207_27516)">
<path d="M3.75733 21.6033H17.9721C20.4331 21.6033 21.6518 20.3845 21.6518 17.9704V3.66187C21.6518 1.24781 20.4331 0.0290527 17.9721 0.0290527H3.75733C1.30811 0.0290527 0.0776367 1.23609 0.0776367 3.66187V17.9704C0.0776367 20.3962 1.30811 21.6033 3.75733 21.6033ZM3.78076 19.7165C2.60889 19.7165 1.96436 19.0954 1.96436 17.8767V3.75562C1.96436 2.53687 2.60889 1.91578 3.78076 1.91578H17.9487C19.1088 1.91578 19.7651 2.53687 19.7651 3.75562V17.8767C19.7651 19.0954 19.1088 19.7165 17.9487 19.7165H3.78076Z" fill="black" fill-opacity="0.85"/>
<path d="M8.79639 15.6853C9.22998 15.6853 9.59326 15.4158 9.59326 14.8533V13.6814H10.0151C10.4604 13.6814 10.6831 13.3884 10.6831 12.99C10.6831 12.615 10.4838 12.322 10.0151 12.322H9.59326V7.1775C9.59326 6.36889 9.06592 5.91187 8.30419 5.91187C7.47216 5.91187 7.08545 6.33374 6.75733 7.06031L4.65967 11.6072C4.47217 12.0642 4.40186 12.3689 4.40186 12.7322C4.40186 13.2947 4.78858 13.6814 5.3628 13.6814H7.9878V14.8533C7.9878 15.4744 8.42139 15.6853 8.79639 15.6853ZM8.02295 12.3572H5.84326V12.2751L7.97608 7.38843H8.02295V12.3572ZM13.2846 15.697C13.7182 15.697 13.9057 15.5212 14.0698 15.0994L16.7417 7.95093C16.8706 7.58765 16.9643 7.3064 16.9643 6.96656C16.9643 6.4275 16.5542 6.06421 16.0268 6.06421H12.2417C11.8432 6.06421 11.562 6.35718 11.562 6.75562C11.562 7.15406 11.8432 7.44703 12.2417 7.44703H15.2534V7.5525L12.6518 14.279C12.5581 14.5368 12.5112 14.6892 12.5112 14.9704C12.5112 15.3103 12.7338 15.697 13.2846 15.697Z" fill="black" fill-opacity="0.85"/>
</g>
<defs>
<clipPath id="clip0_2207_27516">
<rect width="21.5742" height="21.5977" fill="white" transform="translate(0.0776367 0.00561523)"/>
</clipPath>
</defs>
</svg>
