<svg width="24" height="24" viewBox="0 0 24 24" fill="none" xmlns="http://www.w3.org/2000/svg">
<g clip-path="url(#clip0_2207_27531)">
<path d="M12.0371 23.9118C18.5762 23.9118 23.9902 18.4861 23.9902 11.9587C23.9902 5.41968 18.5645 0.00561523 12.0254 0.00561523C5.49804 0.00561523 0.0839844 5.41968 0.0839844 11.9587C0.0839844 18.4861 5.50976 23.9118 12.0371 23.9118Z" fill="black" fill-opacity="0.85"/>
<path d="M9.29493 16.9978C8.90821 16.9978 8.4629 16.7751 8.4629 16.1306V14.9353H5.75587C5.16993 14.9353 4.75977 14.5368 4.75977 13.9509C4.75977 13.5759 4.83008 13.2595 5.0293 12.7908L7.18555 8.10327C7.5254 7.35327 7.92383 6.91967 8.7793 6.91967C9.57618 6.91967 10.127 7.38842 10.127 8.23217V13.529H10.5606C11.041 13.529 11.2402 13.8337 11.2402 14.2204C11.2402 14.6306 11.0176 14.9353 10.5606 14.9353H10.127V16.1306C10.127 16.7165 9.75196 16.9978 9.29493 16.9978ZM8.49805 13.5642V8.44311H8.45118L6.25977 13.4822V13.5642H8.49805ZM15.5879 17.0564C13.8184 17.0564 12.459 16.0017 12.459 14.2087C12.459 12.8962 13.2442 11.947 14.2871 11.7126V11.6775C13.5137 11.4431 12.7285 10.7165 12.7285 9.48608C12.7285 7.78686 14.0879 6.8728 15.5879 6.8728C17.2988 6.8728 18.459 7.92749 18.459 9.4978C18.459 10.6462 17.7324 11.4314 16.9238 11.6775V11.7126C17.8848 11.9353 18.7285 12.8845 18.7285 14.2087C18.7285 15.8611 17.4981 17.0564 15.5879 17.0564ZM15.5879 11.1267C16.3496 11.1267 16.7481 10.4587 16.7481 9.66186C16.7481 8.88842 16.3731 8.17358 15.5879 8.17358C14.8379 8.17358 14.4278 8.88842 14.4278 9.66186C14.4278 10.3767 14.8145 11.1267 15.5879 11.1267ZM15.5879 15.7439C16.4668 15.7439 16.9004 14.9587 16.9004 14.0681C16.9004 13.154 16.4434 12.4275 15.5879 12.4275C14.7207 12.4275 14.2754 13.2009 14.2754 14.0681C14.2754 14.9587 14.709 15.7439 15.5879 15.7439Z" fill="white"/>
</g>
<defs>
<clipPath id="clip0_2207_27531">
<rect width="23.9062" height="23.918" fill="white" transform="translate(0.0839844 0.00561523)"/>
</clipPath>
</defs>
</svg>
