<svg width="24" height="24" viewBox="0 0 24 24" fill="none" xmlns="http://www.w3.org/2000/svg">
<g clip-path="url(#clip0_2207_27526)">
<path d="M12.0351 23.9118C18.5742 23.9118 23.9882 18.4861 23.9882 11.9587C23.9882 5.41968 18.5625 0.00561523 12.0234 0.00561523C5.49609 0.00561523 0.0820312 5.41968 0.0820312 11.9587C0.0820312 18.4861 5.50781 23.9118 12.0351 23.9118ZM12.0351 21.9197C6.50391 21.9197 2.08594 17.49 2.08594 11.9587C2.08594 6.4275 6.49219 1.99781 12.0234 1.99781C17.5547 1.99781 21.9961 6.4275 21.9961 11.9587C21.9961 17.49 17.5664 21.9197 12.0351 21.9197Z" fill="black" fill-opacity="0.85"/>
<path d="M9.36328 16.8454C9.79687 16.8454 10.1601 16.5759 10.1601 16.0134V14.8415H10.582C11.0273 14.8415 11.2382 14.5486 11.2382 14.1501C11.2382 13.7751 11.0508 13.4822 10.582 13.4822H10.1601V8.33765C10.1601 7.52906 9.63281 7.07203 8.85937 7.07203C8.03906 7.07203 7.65234 7.4939 7.32422 8.22046L5.22656 12.7673C5.02734 13.2244 4.96875 13.529 4.96875 13.8923C4.96875 14.4548 5.35547 14.8415 5.92969 14.8415H8.54297V16.0134C8.54297 16.6345 8.98828 16.8454 9.36328 16.8454ZM8.57812 13.5173H6.41015V13.4353L8.54297 8.54859H8.57812V13.5173ZM15.457 16.904C17.3086 16.904 18.4922 15.7439 18.4922 14.1384C18.4922 12.8611 17.6836 11.9353 16.7461 11.7244V11.6892C17.5312 11.4431 18.2343 10.6814 18.2343 9.56812C18.2343 8.0564 17.1093 7.02515 15.457 7.02515C14.0039 7.02515 12.6914 7.91578 12.6914 9.5564C12.6914 10.7517 13.4414 11.4548 14.1914 11.6892V11.7244C13.1836 11.947 12.4218 12.8728 12.4218 14.1384C12.4218 15.8728 13.7343 16.904 15.457 16.904ZM15.457 11.1501C14.707 11.1501 14.3203 10.4236 14.3203 9.73218C14.3203 8.98218 14.7304 8.27906 15.457 8.27906C16.2187 8.27906 16.582 8.98218 16.582 9.73218C16.582 10.5056 16.1953 11.1501 15.457 11.1501ZM15.457 15.6384C14.6015 15.6384 14.1797 14.8767 14.1797 14.0095C14.1797 13.1658 14.6132 12.4158 15.457 12.4158C16.289 12.4158 16.7343 13.1189 16.7343 14.0095C16.7343 14.8767 16.3125 15.6384 15.457 15.6384Z" fill="black" fill-opacity="0.85"/>
</g>
<defs>
<clipPath id="clip0_2207_27526">
<rect width="23.9062" height="23.918" fill="white" transform="translate(0.0820312 0.00561523)"/>
</clipPath>
</defs>
</svg>
