<svg width="24" height="24" viewBox="0 0 24 24" fill="none" xmlns="http://www.w3.org/2000/svg">
<g clip-path="url(#clip0_2207_17703)">
<path d="M11.9531 23.9133C18.4922 23.9133 23.9062 18.4876 23.9062 11.9602C23.9062 5.42114 18.4805 0.00708008 11.9414 0.00708008C5.41406 0.00708008 0 5.42114 0 11.9602C0 18.4876 5.42578 23.9133 11.9531 23.9133ZM11.9531 21.9212C6.42188 21.9212 2.00391 17.4915 2.00391 11.9602C2.00391 6.42896 6.41016 1.99927 11.9414 1.99927C17.4727 1.99927 21.9141 6.42896 21.9141 11.9602C21.9141 17.4915 17.4844 21.9212 11.9531 21.9212Z" fill="black" fill-opacity="0.85"/>
<path d="M8.94141 16.8469C9.38672 16.8469 9.75 16.5774 9.75 16.0149V14.843H10.1602C10.6172 14.843 10.8281 14.5501 10.8281 14.1516C10.8281 13.7766 10.6289 13.4837 10.1602 13.4837H9.75V8.33911C9.75 7.53052 9.21094 7.07349 8.44921 7.07349C7.6289 7.07349 7.24219 7.49536 6.90234 8.22192L4.81641 12.7688C4.61719 13.2259 4.54688 13.5305 4.54688 13.8938C4.54688 14.4563 4.94531 14.843 5.50781 14.843H8.1328V16.0149C8.1328 16.636 8.57812 16.8469 8.94141 16.8469ZM8.16796 13.5188H5.98828V13.4368L8.12109 8.55005H8.16796V13.5188ZM12.6914 16.8587C13.1367 16.8587 13.4414 16.636 13.5352 16.0852L13.9102 14.4798H16.5469L16.9336 16.0969C17.0508 16.6946 17.4023 16.8587 17.8125 16.8587C18.2695 16.8587 18.5977 16.5071 18.5977 16.0501C18.5977 15.8391 18.5625 15.6985 18.5156 15.511L16.5469 8.13989C16.3594 7.40161 15.8906 7.0852 15.2227 7.0852C14.5312 7.0852 14.1094 7.44849 13.9336 8.13989L11.9648 15.5227C11.9297 15.6633 11.8828 15.9094 11.8828 16.0501C11.8828 16.5305 12.1992 16.8587 12.6914 16.8587ZM14.2148 13.1907L15.1641 9.03052H15.2578L16.2422 13.1907H14.2148Z" fill="black" fill-opacity="0.85"/>
</g>
<defs>
<clipPath id="clip0_2207_17703">
<rect width="23.9062" height="23.918" fill="white" transform="translate(0 0.00708008)"/>
</clipPath>
</defs>
</svg>
