<svg width="30" height="18" viewBox="0 0 30 18" fill="none" xmlns="http://www.w3.org/2000/svg">
<g clip-path="url(#clip0_2207_17699)">
<path d="M9.41504 17.3142C9.98925 17.3142 10.4111 16.8689 10.4111 16.2595V13.4704H11.958C12.5088 13.4704 12.8838 13.1423 12.8838 12.5915C12.8838 12.0759 12.497 11.7126 11.958 11.7126H10.4111V1.64624C10.4111 0.697021 9.70801 0.017334 8.72363 0.017334C7.66894 0.017334 7.05957 0.790771 6.50879 1.65796L0.532227 10.822C0.250977 11.2673 0.0986328 11.7361 0.0986328 12.1579C0.0986328 12.9079 0.590821 13.4704 1.52832 13.4704H8.41894V16.2595C8.41894 16.9861 8.93457 17.3142 9.41504 17.3142ZM8.43066 11.7361H2.05566V11.6306L8.32519 2.10328H8.43066V11.7361ZM16.2705 17.3142C16.8916 17.3142 17.1963 17.0798 17.4189 16.4236L18.9306 12.2868H25.8447L27.3564 16.4236C27.5791 17.0798 27.8838 17.3142 28.4931 17.3142C29.1142 17.3142 29.5127 16.9392 29.5127 16.3533C29.5127 16.154 29.4775 15.9665 29.3838 15.7204L23.8877 1.08374C23.6181 0.368896 23.1377 0.00561523 22.3877 0.00561523C21.6611 0.00561523 21.1689 0.357177 20.9111 1.07203L15.415 15.7322C15.3213 15.9783 15.2861 16.1658 15.2861 16.365C15.2861 16.9509 15.6611 17.3142 16.2705 17.3142ZM19.5048 10.5056L22.3525 2.6189H22.4111L25.2588 10.5056H19.5048Z" fill="black" fill-opacity="0.85"/>
</g>
<defs>
<clipPath id="clip0_2207_17699">
<rect width="29.4141" height="17.332" fill="white" transform="translate(0.0986328 0.00561523)"/>
</clipPath>
</defs>
</svg>
