<svg width="30" height="18" viewBox="0 0 30 18" fill="none" xmlns="http://www.w3.org/2000/svg">
<g clip-path="url(#clip0_2207_17671)">
<path d="M9.32056 17.3157C9.89477 17.3157 10.3167 16.8704 10.3167 16.261V13.4719H11.8636C12.4144 13.4719 12.7894 13.1438 12.7894 12.593C12.7894 12.0774 12.4025 11.7141 11.8636 11.7141H10.3167V1.6477C10.3167 0.698486 9.61353 0.0187989 8.62915 0.0187989C7.57446 0.0187989 6.96509 0.792236 6.41431 1.65942L0.437744 10.8235C0.156494 11.2688 0.00415039 11.7376 0.00415039 12.1594C0.00415039 12.9094 0.496338 13.4719 1.43384 13.4719H8.32446V16.261C8.32446 16.9876 8.84009 17.3157 9.32056 17.3157ZM8.33618 11.7376H1.96118V11.6321L8.23071 2.10474H8.33618V11.7376ZM17.3479 17.3157C17.9221 17.3157 18.3909 16.8469 18.3909 16.2727V9.37036H27.6721V16.2727C27.6721 16.8469 28.1409 17.3157 28.715 17.3157C29.2894 17.3157 29.7581 16.8469 29.7581 16.2727V1.05005C29.7581 0.464111 29.2894 0.00708008 28.715 0.00708008C28.1409 0.00708008 27.6721 0.464111 27.6721 1.05005V7.55396H18.3909V1.05005C18.3909 0.464111 17.9221 0.00708008 17.3479 0.00708008C16.7736 0.00708008 16.305 0.464111 16.305 1.05005V16.2727C16.305 16.8469 16.7736 17.3157 17.3479 17.3157Z" fill="black" fill-opacity="0.85"/>
</g>
<defs>
<clipPath id="clip0_2207_17671">
<rect width="29.7539" height="17.332" fill="white" transform="translate(0.00415039 0.00708008)"/>
</clipPath>
</defs>
</svg>
