<svg width="24" height="24" viewBox="0 0 24 24" fill="none" xmlns="http://www.w3.org/2000/svg">
<g clip-path="url(#clip0_2207_26426)">
<path d="M11.9741 23.9133C18.5132 23.9133 23.9272 18.4876 23.9272 11.9602C23.9272 5.42114 18.5015 0.00708008 11.9624 0.00708008C5.43506 0.00708008 0.0209961 5.42114 0.0209961 11.9602C0.0209961 18.4876 5.44678 23.9133 11.9741 23.9133ZM11.9741 21.9212C6.44288 21.9212 2.02491 17.4915 2.02491 11.9602C2.02491 6.42896 6.43116 1.99927 11.9624 1.99927C17.4937 1.99927 21.9351 6.42896 21.9351 11.9602C21.9351 17.4915 17.5054 21.9212 11.9741 21.9212Z" fill="black" fill-opacity="0.85"/>
<path d="M11.8921 17.5383C14.271 17.5383 15.8999 16.0501 15.8999 13.7883C15.8999 11.7141 14.4116 10.2727 12.2671 10.2727C11.3179 10.2727 10.3335 10.6946 9.91162 11.2805H9.82959L10.1108 8.09302H14.7866C15.1851 8.09302 15.478 7.78833 15.478 7.36646C15.478 6.94458 15.1968 6.65161 14.7866 6.65161H9.93506C9.17334 6.65161 8.66944 7.07349 8.62256 7.75317L8.29444 11.6555C8.24756 12.3235 8.646 12.7688 9.29053 12.7688C9.72412 12.7688 9.98194 12.6751 10.4507 12.3235C11.0132 11.843 11.4585 11.6673 12.0562 11.6673C13.2983 11.6673 14.1304 12.5344 14.1304 13.8235C14.1304 15.1126 13.1577 16.0735 11.8569 16.0735C10.896 16.0735 10.0757 15.593 9.68897 14.8196C9.47803 14.4446 9.19678 14.2571 8.85694 14.2571C8.38819 14.2571 8.07178 14.5852 8.07178 15.0305C8.07178 15.2298 8.11866 15.4173 8.18897 15.593C8.65772 16.7883 10.0171 17.5383 11.8921 17.5383Z" fill="black" fill-opacity="0.85"/>
</g>
<defs>
<clipPath id="clip0_2207_26426">
<rect width="23.9062" height="23.918" fill="white" transform="translate(0.0209961 0.00708008)"/>
</clipPath>
</defs>
</svg>
