<svg width="22" height="22" viewBox="0 0 22 22" fill="none" xmlns="http://www.w3.org/2000/svg">
<g clip-path="url(#clip0_2207_26436)">
<path d="M3.70703 21.6048H17.9218C20.3828 21.6048 21.6015 20.386 21.6015 17.9719V3.66333C21.6015 1.24927 20.3828 0.0305176 17.9218 0.0305176H3.70703C1.25781 0.0305176 0.0273438 1.23755 0.0273438 3.66333V17.9719C0.0273438 20.3977 1.25781 21.6048 3.70703 21.6048ZM3.73046 19.718C2.55859 19.718 1.91406 19.0969 1.91406 17.8782V3.75708C1.91406 2.53833 2.55859 1.91724 3.73046 1.91724H17.8984C19.0585 1.91724 19.7148 2.53833 19.7148 3.75708V17.8782C19.7148 19.0969 19.0585 19.718 17.8984 19.718H3.73046Z" fill="black" fill-opacity="0.85"/>
<path d="M10.75 16.3782C13.1289 16.3782 14.7695 14.8899 14.7695 12.6282C14.7695 10.554 13.2695 9.11255 11.1367 9.11255C10.1757 9.11255 9.19141 9.53442 8.76954 10.1204H8.68751L8.96876 6.93286H13.6445C14.0429 6.93286 14.3359 6.62817 14.3359 6.2063C14.3359 5.78442 14.0546 5.49146 13.6445 5.49146H8.79297C8.03126 5.49146 7.52735 5.91333 7.48047 6.59302L7.16407 10.4954C7.10547 11.1633 7.50391 11.6087 8.14844 11.6087C8.58204 11.6087 8.85157 11.5149 9.3086 11.1633C9.8711 10.6829 10.3164 10.5071 10.914 10.5071C12.1562 10.5071 12.9882 11.3743 12.9882 12.6633C12.9882 13.9524 12.0156 14.9133 10.7148 14.9133C9.75391 14.9133 8.9336 14.4329 8.54688 13.6594C8.33594 13.2844 8.05469 13.0969 7.71485 13.0969C7.2461 13.0969 6.92969 13.4251 6.92969 13.8704C6.92969 14.0696 6.97657 14.2571 7.0586 14.4329C7.51563 15.6282 8.87501 16.3782 10.75 16.3782Z" fill="black" fill-opacity="0.85"/>
</g>
<defs>
<clipPath id="clip0_2207_26436">
<rect width="21.5742" height="21.5977" fill="white" transform="translate(0.0273438 0.00708008)"/>
</clipPath>
</defs>
</svg>
