<svg width="22" height="22" viewBox="0 0 22 22" fill="none" xmlns="http://www.w3.org/2000/svg">
<g clip-path="url(#clip0_2207_26441)">
<path d="M3.70911 21.6048H17.9239C20.3849 21.6048 21.6036 20.386 21.6036 17.9719V3.66333C21.6036 1.24927 20.3849 0.0305176 17.9239 0.0305176H3.70911C1.25989 0.0305176 0.0294189 1.23755 0.0294189 3.66333V17.9719C0.0294189 20.3977 1.25989 21.6048 3.70911 21.6048Z" fill="black" fill-opacity="0.85"/>
<path d="M10.7521 16.554C8.81848 16.554 7.41223 15.7805 6.94348 14.5501C6.84973 14.3626 6.80286 14.1751 6.80286 13.9641C6.80286 13.4954 7.13098 13.1555 7.62317 13.1555C7.97473 13.1555 8.2677 13.3548 8.47864 13.7415C8.87708 14.5383 9.72083 15.0305 10.7169 15.0305C12.0528 15.0305 13.0489 14.0462 13.0489 12.7219C13.0489 11.386 12.1935 10.4954 10.9161 10.4954C10.3067 10.4954 9.84973 10.6829 9.27551 11.1751C8.79504 11.5383 8.5138 11.6321 8.06848 11.6321C7.40051 11.6321 6.99036 11.1751 7.04895 10.4719L7.37708 6.46411C7.42395 5.76099 7.93958 5.31567 8.73645 5.31567H13.7403C14.1622 5.31567 14.4552 5.62036 14.4552 6.06567C14.4552 6.49927 14.1505 6.81567 13.7403 6.81567H8.91223L8.63098 10.0852H8.71301C9.14661 9.48755 10.1544 9.05396 11.1505 9.05396C13.3536 9.05396 14.9005 10.5423 14.9005 12.6751C14.9005 15.0188 13.2013 16.554 10.7521 16.554Z" fill="white"/>
</g>
<defs>
<clipPath id="clip0_2207_26441">
<rect width="21.5742" height="21.5977" fill="white" transform="translate(0.0294189 0.00708008)"/>
</clipPath>
</defs>
</svg>
