<svg width="22" height="22" viewBox="0 0 22 22" fill="none" xmlns="http://www.w3.org/2000/svg">
<g clip-path="url(#clip0_2207_27581)">
<path d="M3.71753 21.6048H17.9323C20.3933 21.6048 21.612 20.386 21.612 17.9719V3.66333C21.612 1.24927 20.3933 0.0305176 17.9323 0.0305176H3.71753C1.26831 0.0305176 0.0378418 1.23755 0.0378418 3.66333V17.9719C0.0378418 20.3977 1.26831 21.6048 3.71753 21.6048Z" fill="black" fill-opacity="0.85"/>
<path d="M7.17457 15.9446C6.08473 15.9446 5.0066 15.3118 4.58473 14.3274C4.47926 14.093 4.40894 13.8235 4.40894 13.5423C4.40894 13.0969 4.69019 12.8157 5.13551 12.8157C5.46363 12.8157 5.73316 13.0032 5.88551 13.3899C6.09644 14.0462 6.48316 14.5266 7.15113 14.5266C8.05347 14.5266 8.39332 13.5071 8.39332 12.4993C8.39332 11.6087 8.06519 10.5423 7.17457 10.5423C6.68238 10.5423 6.38941 10.8235 6.10816 11.2219C5.85035 11.5618 5.66285 11.679 5.33473 11.679C4.77223 11.679 4.54957 11.2805 4.54957 10.8118C4.54957 10.6477 4.54957 10.4602 4.56129 10.2727L4.74879 6.96802C4.79566 6.35864 5.07691 5.93677 5.72144 5.93677H9.04957C9.44801 5.93677 9.71754 6.24146 9.71754 6.63989C9.71754 7.07349 9.45973 7.36646 9.04957 7.36646H6.20191L6.00269 10.3079H6.06129C6.37769 9.59302 7.02223 9.26488 7.73707 9.26488C9.29566 9.26488 10.0925 10.8001 10.0925 12.4641C10.0925 14.3743 9.06129 15.9446 7.17457 15.9446ZM14.5808 15.9446C12.1667 15.9446 11.4519 13.2493 11.4519 10.8118C11.4519 8.37427 12.1667 5.67896 14.5808 5.67896C16.9948 5.67896 17.7097 8.37427 17.7097 10.8118C17.7097 13.2493 16.9948 15.9446 14.5808 15.9446ZM14.5808 14.5032C15.5534 14.5032 15.9284 12.9212 15.9284 10.8118C15.9284 8.71411 15.5534 7.12036 14.5808 7.12036C13.5964 7.12036 13.2214 8.71411 13.2214 10.8118C13.2214 12.9212 13.5964 14.5032 14.5808 14.5032Z" fill="white"/>
</g>
<defs>
<clipPath id="clip0_2207_27581">
<rect width="21.5742" height="21.5977" fill="white" transform="translate(0.0378418 0.00708008)"/>
</clipPath>
</defs>
</svg>
