<svg width="24" height="24" viewBox="0 0 24 24" fill="none" xmlns="http://www.w3.org/2000/svg">
<g clip-path="url(#clip0_2207_26471)">
<path d="M11.9951 23.9133C18.5342 23.9133 23.9482 18.4876 23.9482 11.9602C23.9482 5.42114 18.5225 0.00708008 11.9834 0.00708008C5.45605 0.00708008 0.0419922 5.42114 0.0419922 11.9602C0.0419922 18.4876 5.46777 23.9133 11.9951 23.9133Z" fill="black" fill-opacity="0.85"/>
<path d="M12.0303 17.7141C9.51074 17.7141 7.81152 16.1204 7.81152 13.8001C7.81152 12.4876 8.33887 11.1633 9.58105 9.51099C10.2139 8.67896 10.9404 7.75317 11.7373 6.7102C11.9248 6.47583 12.1592 6.21802 12.5459 6.21802C13.1318 6.21802 13.3779 6.59302 13.3779 6.9563C13.3779 7.19067 13.2725 7.37817 13.085 7.62427C12.499 8.38599 11.7022 9.37036 11.0928 10.1673C10.7178 10.6594 10.5537 10.8704 10.4365 11.0813L10.5537 11.1165C10.9522 10.7063 11.7959 10.3899 12.6162 10.3899C14.7256 10.3899 16.2256 11.8782 16.2256 13.8704C16.2256 16.1204 14.5147 17.7141 12.0303 17.7141ZM12.0303 16.1907C13.46 16.1907 14.5264 15.218 14.5264 13.9641C14.5264 12.6868 13.46 11.761 12.0186 11.761C10.5889 11.761 9.52246 12.6868 9.52246 13.9407C9.52246 15.218 10.6006 16.1907 12.0303 16.1907Z" fill="white"/>
</g>
<defs>
<clipPath id="clip0_2207_26471">
<rect width="23.9062" height="23.918" fill="white" transform="translate(0.0419922 0.00708008)"/>
</clipPath>
</defs>
</svg>
