<svg width="22" height="22" viewBox="0 0 22 22" fill="none" xmlns="http://www.w3.org/2000/svg">
<g clip-path="url(#clip0_2207_26481)">
<path d="M3.72583 21.6048H17.9406C20.4016 21.6048 21.6203 20.386 21.6203 17.9719V3.66333C21.6203 1.24927 20.4016 0.0305176 17.9406 0.0305176H3.72583C1.27661 0.0305176 0.0461426 1.23755 0.0461426 3.66333V17.9719C0.0461426 20.3977 1.27661 21.6048 3.72583 21.6048Z" fill="black" fill-opacity="0.85"/>
<path d="M10.8742 16.554C8.35473 16.554 6.65552 14.9602 6.65552 12.6399C6.65552 11.3274 7.18286 10.0032 8.42505 8.35083C9.05786 7.5188 9.78442 6.59302 10.5813 5.55005C10.7688 5.31567 11.0031 5.05786 11.3899 5.05786C11.9758 5.05786 12.2219 5.43286 12.2219 5.79614C12.2219 6.03052 12.1164 6.21802 11.9406 6.46411C11.343 7.22583 10.5461 8.2102 9.93676 9.00708C9.56176 9.49927 9.3977 9.7102 9.28052 9.92114L9.3977 9.9563C9.80786 9.54614 10.6399 9.22974 11.4602 9.22974C13.5695 9.22974 15.0695 10.718 15.0695 12.7102C15.0695 14.9602 13.3586 16.554 10.8742 16.554ZM10.8742 15.0305C12.3039 15.0305 13.3703 14.0579 13.3703 12.804C13.3703 11.5266 12.3039 10.6009 10.8625 10.6009C9.43286 10.6009 8.36645 11.5266 8.36645 12.7805C8.36645 14.0579 9.44458 15.0305 10.8742 15.0305Z" fill="white"/>
</g>
<defs>
<clipPath id="clip0_2207_26481">
<rect width="21.5742" height="21.5977" fill="white" transform="translate(0.0461426 0.00708008)"/>
</clipPath>
</defs>
</svg>
