<svg width="24" height="24" viewBox="0 0 24 24" fill="none" xmlns="http://www.w3.org/2000/svg">
<g clip-path="url(#clip0_2207_26451)">
<path d="M12.0035 23.9133C18.5426 23.9133 23.9566 18.4876 23.9566 11.9602C23.9566 5.42114 18.5309 0.00708008 11.9918 0.00708008C5.46447 0.00708008 0.050415 5.42114 0.050415 11.9602C0.050415 18.4876 5.4762 23.9133 12.0035 23.9133Z" fill="black" fill-opacity="0.85"/>
<path d="M12.0973 17.7141C10.6793 17.7141 9.3551 17.1985 8.58166 15.9094C8.06603 15.1009 7.77307 13.8938 7.77307 12.2298C7.77307 8.19849 9.5426 6.2063 12.402 6.2063C13.9606 6.2063 15.2848 6.99146 15.6598 7.88208C15.7301 8.05786 15.7652 8.22192 15.7652 8.42114C15.7652 8.84302 15.4488 9.13599 15.0387 9.13599C14.6285 9.13599 14.3824 8.92505 13.9957 8.53833C13.6559 8.11646 13.1754 7.75317 12.3434 7.75317C10.6793 7.75317 9.55432 9.3352 9.55432 11.8079C9.55432 11.843 9.55432 11.8782 9.55432 11.9368C9.57775 11.9368 9.62463 11.9368 9.64807 11.9368C10.0348 11.0579 10.984 10.2376 12.6012 10.2376C14.5113 10.2376 16.2457 11.5266 16.2457 13.8235C16.2457 16.2962 14.5348 17.7141 12.0973 17.7141ZM12.0152 16.261C13.4332 16.261 14.3473 15.3235 14.3473 13.9055C14.3473 12.5579 13.3981 11.6204 12.027 11.6204C10.6676 11.6204 9.70666 12.5696 9.70666 13.8938C9.70666 15.2649 10.6793 16.261 12.0152 16.261Z" fill="white"/>
</g>
<defs>
<clipPath id="clip0_2207_26451">
<rect width="23.9062" height="23.918" fill="white" transform="translate(0.050415 0.00708008)"/>
</clipPath>
</defs>
</svg>
