<svg width="22" height="22" viewBox="0 0 22 22" fill="none" xmlns="http://www.w3.org/2000/svg">
<g clip-path="url(#clip0_2207_26456)">
<path d="M3.73438 21.6048H17.9492C20.4102 21.6048 21.6289 20.386 21.6289 17.9719V3.66333C21.6289 1.24927 20.4102 0.0305176 17.9492 0.0305176H3.73438C1.28516 0.0305176 0.0546875 1.23755 0.0546875 3.66333V17.9719C0.0546875 20.3977 1.28516 21.6048 3.73438 21.6048ZM3.75781 19.718C2.58594 19.718 1.94141 19.0969 1.94141 17.8782V3.75708C1.94141 2.53833 2.58594 1.91724 3.75781 1.91724H17.9258C19.0859 1.91724 19.7422 2.53833 19.7422 3.75708V17.8782C19.7422 19.0969 19.0859 19.718 17.9258 19.718H3.75781Z" fill="black" fill-opacity="0.85"/>
<path d="M10.9414 16.3782C13.2969 16.3782 14.9609 15.0071 14.9609 12.6048C14.9609 10.3782 13.2735 9.13599 11.4219 9.13599C9.85156 9.13599 8.94921 9.93286 8.56249 10.7766C8.53906 10.7766 8.49218 10.7766 8.46874 10.7766C8.46874 10.7298 8.46874 10.6946 8.46874 10.6594C8.46874 8.25708 9.5703 6.7102 11.1758 6.7102C11.9844 6.7102 12.4531 7.07349 12.793 7.48364C13.1563 7.85864 13.3906 8.05786 13.7891 8.05786C14.1875 8.05786 14.5039 7.77661 14.5039 7.36646C14.5039 7.17896 14.457 7.01489 14.3867 6.85083C14.0235 5.98364 12.7578 5.22192 11.2344 5.22192C8.46874 5.22192 6.74609 7.15552 6.74609 11.0579C6.74609 12.6751 7.03906 13.8469 7.53124 14.6321C8.28124 15.8743 9.55859 16.3782 10.9414 16.3782ZM10.8711 14.9719C9.55859 14.9719 8.62109 14.011 8.62109 12.6751C8.62109 11.386 9.54687 10.4719 10.8711 10.4719C12.207 10.4719 13.1211 11.3743 13.1211 12.6868C13.1211 14.0696 12.2422 14.9719 10.8711 14.9719Z" fill="black" fill-opacity="0.85"/>
</g>
<defs>
<clipPath id="clip0_2207_26456">
<rect width="21.5742" height="21.5977" fill="white" transform="translate(0.0546875 0.00708008)"/>
</clipPath>
</defs>
</svg>
