<svg width="24" height="24" viewBox="0 0 24 24" fill="none" xmlns="http://www.w3.org/2000/svg">
<g clip-path="url(#clip0_2207_26506)">
<path d="M12.0224 23.9133C18.5615 23.9133 23.9755 18.4876 23.9755 11.9602C23.9755 5.42114 18.5498 0.00708008 12.0107 0.00708008C5.4834 0.00708008 0.0693359 5.42114 0.0693359 11.9602C0.0693359 18.4876 5.49512 23.9133 12.0224 23.9133ZM12.0224 21.9212C6.49122 21.9212 2.07325 17.4915 2.07325 11.9602C2.07325 6.42896 6.4795 1.99927 12.0107 1.99927C17.542 1.99927 21.9834 6.42896 21.9834 11.9602C21.9834 17.4915 17.5537 21.9212 12.0224 21.9212Z" fill="black" fill-opacity="0.85"/>
<path d="M11.9873 17.5383C14.4834 17.5383 16.1826 16.2493 16.1826 14.3626C16.1826 13.0618 15.2216 11.9837 13.8271 11.7024V11.6321C14.9873 11.2923 15.7255 10.3548 15.7255 9.21802C15.7255 7.54224 14.1904 6.38208 12.0107 6.38208C9.83106 6.38208 8.2959 7.54224 8.2959 9.21802C8.2959 10.3548 9.01075 11.2688 10.1943 11.6321V11.7024C8.78809 11.9837 7.85059 13.0735 7.85059 14.3743C7.85059 16.2727 9.50293 17.5383 11.9873 17.5383ZM12.0224 16.2493C10.6396 16.2493 9.63184 15.429 9.63184 14.2805C9.63184 13.1673 10.6513 12.3352 12.0224 12.3352C13.417 12.3352 14.4131 13.1555 14.4131 14.2805C14.4131 15.429 13.3935 16.2493 12.0224 16.2493ZM12.0107 11.1048C10.8505 11.1048 10.0186 10.3782 10.0186 9.37036C10.0186 8.38599 10.8388 7.67114 12.0107 7.67114C13.1826 7.67114 14.0029 8.38599 14.0029 9.37036C14.0029 10.3782 13.1709 11.1048 12.0107 11.1048Z" fill="black" fill-opacity="0.85"/>
</g>
<defs>
<clipPath id="clip0_2207_26506">
<rect width="23.9062" height="23.918" fill="white" transform="translate(0.0693359 0.00708008)"/>
</clipPath>
</defs>
</svg>
