<svg width="22" height="22" viewBox="0 0 22 22" fill="none" xmlns="http://www.w3.org/2000/svg">
<g clip-path="url(#clip0_2207_26521)">
<path d="M3.75733 21.6048H17.9721C20.4331 21.6048 21.6518 20.386 21.6518 17.9719V3.66333C21.6518 1.24927 20.4331 0.0305176 17.9721 0.0305176H3.75733C1.30811 0.0305176 0.0776367 1.23755 0.0776367 3.66333V17.9719C0.0776367 20.3977 1.30811 21.6048 3.75733 21.6048Z" fill="black" fill-opacity="0.85"/>
<path d="M10.8471 16.554C8.28075 16.554 6.56982 15.2532 6.56982 13.2962C6.56982 11.9485 7.54247 10.8235 9.00732 10.5305V10.4602C7.77685 10.0852 7.03857 9.1477 7.03857 7.98755C7.03857 6.24146 8.6206 5.04614 10.8706 5.04614C13.1206 5.04614 14.7026 6.24146 14.7026 7.98755C14.7026 9.1477 13.9526 10.1087 12.7456 10.4602V10.5305C14.187 10.8235 15.1831 11.9368 15.1831 13.2844C15.1831 15.2298 13.4253 16.554 10.8471 16.554ZM10.8823 15.218C12.3003 15.218 13.3432 14.3743 13.3432 13.1907C13.3432 12.0305 12.3354 11.1868 10.8823 11.1868C9.47607 11.1868 8.42138 12.0423 8.42138 13.1907C8.42138 14.3743 9.46435 15.218 10.8823 15.218ZM10.8706 9.90942C12.0776 9.90942 12.9331 9.17114 12.9331 8.12817C12.9331 7.12036 12.0776 6.3938 10.8706 6.3938C9.66357 6.3938 8.81982 7.12036 8.81982 8.12817C8.81982 9.17114 9.67529 9.90942 10.8706 9.90942Z" fill="white"/>
</g>
<defs>
<clipPath id="clip0_2207_26521">
<rect width="21.5742" height="21.5977" fill="white" transform="translate(0.0776367 0.00708008)"/>
</clipPath>
</defs>
</svg>
