<svg width="22" height="22" viewBox="0 0 22 22" fill="none" xmlns="http://www.w3.org/2000/svg">
<g clip-path="url(#clip0_2207_26516)">
<path d="M3.75537 21.6048H17.9702C20.4312 21.6048 21.6499 20.386 21.6499 17.9719V3.66333C21.6499 1.24927 20.4312 0.0305176 17.9702 0.0305176H3.75537C1.30615 0.0305176 0.0756836 1.23755 0.0756836 3.66333V17.9719C0.0756836 20.3977 1.30615 21.6048 3.75537 21.6048ZM3.7788 19.718C2.60693 19.718 1.9624 19.0969 1.9624 17.8782V3.75708C1.9624 2.53833 2.60693 1.91724 3.7788 1.91724H17.9468C19.1069 1.91724 19.7632 2.53833 19.7632 3.75708V17.8782C19.7632 19.0969 19.1069 19.718 17.9468 19.718H3.7788Z" fill="black" fill-opacity="0.85"/>
<path d="M10.8452 16.3782C13.3413 16.3782 15.0405 15.0891 15.0405 13.2024C15.0405 11.9016 14.0796 10.8235 12.6851 10.5423V10.4719C13.8569 10.1321 14.5835 9.19458 14.5835 8.05786C14.5835 6.38208 13.0484 5.22192 10.8687 5.22192C8.68897 5.22192 7.15381 6.38208 7.15381 8.05786C7.15381 9.19458 7.86866 10.1087 9.06397 10.4719V10.5423C7.646 10.8235 6.7085 11.9133 6.7085 13.2141C6.7085 15.1126 8.36085 16.3782 10.8452 16.3782ZM10.8804 15.0891C9.49757 15.0891 8.48975 14.2688 8.48975 13.1204C8.48975 12.0071 9.50928 11.1751 10.8804 11.1751C12.2866 11.1751 13.271 11.9954 13.271 13.1204C13.271 14.2688 12.2632 15.0891 10.8804 15.0891ZM10.8687 9.94458C9.7085 9.94458 8.87647 9.21802 8.87647 8.2102C8.87647 7.22583 9.69678 6.51099 10.8687 6.51099C12.0405 6.51099 12.8726 7.22583 12.8726 8.2102C12.8726 9.21802 12.0405 9.94458 10.8687 9.94458Z" fill="black" fill-opacity="0.85"/>
</g>
<defs>
<clipPath id="clip0_2207_26516">
<rect width="21.5742" height="21.5977" fill="white" transform="translate(0.0756836 0.00708008)"/>
</clipPath>
</defs>
</svg>
