<svg width="22" height="22" viewBox="0 0 22 22" fill="none" xmlns="http://www.w3.org/2000/svg">
<g clip-path="url(#clip0_2207_26556)">
<path d="M3.76367 21.6048H17.9785C20.4395 21.6048 21.6582 20.386 21.6582 17.9719V3.66333C21.6582 1.24927 20.4395 0.0305176 17.9785 0.0305176H3.76367C1.31445 0.0305176 0.0839844 1.23755 0.0839844 3.66333V17.9719C0.0839844 20.3977 1.31445 21.6048 3.76367 21.6048ZM3.7871 19.718C2.61523 19.718 1.9707 19.0969 1.9707 17.8782V3.75708C1.9707 2.53833 2.61523 1.91724 3.7871 1.91724H17.9551C19.1152 1.91724 19.7715 2.53833 19.7715 3.75708V17.8782C19.7715 19.0969 19.1152 19.718 17.9551 19.718H3.7871Z" fill="black" fill-opacity="0.85"/>
<path d="M6.81055 8.94849C6.81055 10.9173 8.29883 12.3469 10.3379 12.3469C11.1113 12.3469 11.9434 12.0657 12.3418 11.6555H12.4824C12.3887 11.8313 12.2129 12.0774 11.9668 12.3938C11.3106 13.2141 10.5371 14.1516 9.84571 15.0071C9.64649 15.2298 9.55274 15.4524 9.55274 15.6751C9.55274 16.0266 9.85743 16.3665 10.3262 16.3665C10.7832 16.3665 10.959 16.0969 11.2988 15.6751C11.9082 14.9133 12.7988 13.7766 13.4199 12.9446C14.4981 11.5032 15.0137 10.3079 15.0137 9.04224C15.0137 6.7688 13.3379 5.22192 10.9121 5.22192C8.48633 5.22192 6.81055 6.75708 6.81055 8.94849ZM8.4629 8.87817C8.4629 7.63599 9.51758 6.7102 10.9121 6.7102C12.2949 6.7102 13.3496 7.6477 13.3496 8.87817C13.3496 10.1321 12.3067 11.0344 10.9238 11.0344C9.51758 11.0344 8.4629 10.1204 8.4629 8.87817Z" fill="black" fill-opacity="0.85"/>
</g>
<defs>
<clipPath id="clip0_2207_26556">
<rect width="21.5742" height="21.5977" fill="white" transform="translate(0.0839844 0.00708008)"/>
</clipPath>
</defs>
</svg>
