<svg width="24" height="24" viewBox="0 0 24 24" fill="none" xmlns="http://www.w3.org/2000/svg">
<g clip-path="url(#clip0_2207_24826)">
<path d="M11.9553 23.9145C18.4944 23.9145 23.9084 18.4888 23.9084 11.9614C23.9084 5.42236 18.4827 0.00830078 11.9436 0.00830078C5.41626 0.00830078 0.00219727 5.42236 0.00219727 11.9614C0.00219727 18.4888 5.42798 23.9145 11.9553 23.9145ZM11.9553 21.9224C6.42408 21.9224 2.00611 17.4927 2.00611 11.9614C2.00611 6.43018 6.41236 2.00049 11.9436 2.00049C17.4749 2.00049 21.9163 6.43018 21.9163 11.9614C21.9163 17.4927 17.4866 21.9224 11.9553 21.9224Z" fill="black" fill-opacity="0.85"/>
<path d="M8.08814 17.481C8.51001 17.481 8.8147 17.2817 8.99048 16.731L9.84595 14.2349H14.0413L14.8967 16.731C15.0725 17.27 15.3655 17.481 15.7991 17.481C16.3147 17.481 16.6663 17.1411 16.6663 16.6724C16.6663 16.4849 16.6194 16.3208 16.5374 16.063L13.2444 7.21533C13.0217 6.60596 12.5764 6.28955 11.9319 6.28955C11.2991 6.28955 10.8655 6.60596 10.6311 7.21533L7.34986 16.063C7.25611 16.3208 7.22095 16.4849 7.22095 16.6606C7.22095 17.1528 7.56079 17.481 8.08814 17.481ZM10.3147 12.8286L11.8733 8.29346H12.0022L13.5608 12.8286H10.3147Z" fill="black" fill-opacity="0.85"/>
</g>
<defs>
<clipPath id="clip0_2207_24826">
<rect width="23.9062" height="23.918" fill="white" transform="translate(0.00219727 0.00830078)"/>
</clipPath>
</defs>
</svg>
