<svg width="24" height="24" viewBox="0 0 24 24" fill="none" xmlns="http://www.w3.org/2000/svg">
<g clip-path="url(#clip0_2207_24831)">
<path d="M11.9573 23.9145C18.4964 23.9145 23.9104 18.4888 23.9104 11.9614C23.9104 5.42236 18.4846 0.00830078 11.9455 0.00830078C5.41821 0.00830078 0.00415039 5.42236 0.00415039 11.9614C0.00415039 18.4888 5.42993 23.9145 11.9573 23.9145Z" fill="black" fill-opacity="0.85"/>
<path d="M7.98463 17.6216C7.43385 17.6216 7.08228 17.2817 7.08228 16.7895C7.08228 16.6021 7.10571 16.4263 7.21118 16.1567L10.598 7.03955C10.844 6.40674 11.2894 6.07861 11.9456 6.07861C12.6136 6.07861 13.0706 6.40674 13.305 7.03955L16.7034 16.1567C16.7972 16.4263 16.8323 16.6021 16.8323 16.7895C16.8323 17.2817 16.469 17.6216 15.93 17.6216C15.4847 17.6216 15.18 17.4106 14.9925 16.8481L14.1136 14.2817H9.80103L8.92212 16.8481C8.73462 17.4224 8.41822 17.6216 7.98463 17.6216ZM10.2815 12.8169H13.6214L12.0159 8.15283H11.887L10.2815 12.8169Z" fill="white"/>
</g>
<defs>
<clipPath id="clip0_2207_24831">
<rect width="23.9062" height="23.918" fill="white" transform="translate(0.00415039 0.00830078)"/>
</clipPath>
</defs>
</svg>
