<svg width="22" height="22" viewBox="0 0 22 22" fill="none" xmlns="http://www.w3.org/2000/svg">
<g clip-path="url(#clip0_2207_24836)">
<path d="M3.68604 21.606H17.9008C20.3618 21.606 21.5805 20.3872 21.5805 17.9731V3.66455C21.5805 1.25049 20.3618 0.0317383 17.9008 0.0317383H3.68604C1.23682 0.0317383 0.00634766 1.23877 0.00634766 3.66455V17.9731C0.00634766 20.3989 1.23682 21.606 3.68604 21.606ZM3.70947 19.7192C2.5376 19.7192 1.89307 19.0981 1.89307 17.8794V3.7583C1.89307 2.53955 2.5376 1.91846 3.70947 1.91846H17.8774C19.0375 1.91846 19.6938 2.53955 19.6938 3.7583V17.8794C19.6938 19.0981 19.0375 19.7192 17.8774 19.7192H3.70947Z" fill="black" fill-opacity="0.85"/>
<path d="M6.94385 16.3208C7.36573 16.3208 7.67041 16.1216 7.84619 15.5708L8.70166 13.0747H12.897L13.7525 15.5708C13.9283 16.1099 14.233 16.3208 14.6548 16.3208C15.1705 16.3208 15.5219 15.981 15.5219 15.5122C15.5219 15.3247 15.4751 15.1606 15.393 14.9028L12.1119 6.05518C11.8775 5.4458 11.4322 5.12939 10.7876 5.12939C10.1548 5.12939 9.72119 5.4458 9.48682 6.05518L6.20557 14.9028C6.12354 15.1606 6.07666 15.3247 6.07666 15.5005C6.07666 15.9927 6.42823 16.3208 6.94385 16.3208ZM9.17041 11.6685L10.7407 7.1333H10.8579L12.4282 11.6685H9.17041Z" fill="black" fill-opacity="0.85"/>
</g>
<defs>
<clipPath id="clip0_2207_24836">
<rect width="21.5742" height="21.5977" fill="white" transform="translate(0.00634766 0.00830078)"/>
</clipPath>
</defs>
</svg>
