<svg width="24" height="24" viewBox="0 0 24 24" fill="none" xmlns="http://www.w3.org/2000/svg">
<g clip-path="url(#clip0_2207_17619)">
<path d="M11.9719 23.9145C18.511 23.9145 23.925 18.4888 23.925 11.9614C23.925 5.42236 18.4993 0.00830078 11.9602 0.00830078C5.43286 0.00830078 0.0187988 5.42236 0.0187988 11.9614C0.0187988 18.4888 5.44458 23.9145 11.9719 23.9145ZM11.9719 21.9224C6.44068 21.9224 2.02271 17.4927 2.02271 11.9614C2.02271 6.43018 6.42896 2.00049 11.9602 2.00049C17.4915 2.00049 21.9329 6.43018 21.9329 11.9614C21.9329 17.4927 17.5032 21.9224 11.9719 21.9224Z" fill="black" fill-opacity="0.85"/>
<path d="M5.01099 15.7817C5.39771 15.7817 5.60864 15.5474 5.66724 15.1724L5.91333 13.9888H7.65942L7.90552 15.1841C7.99927 15.6177 8.23364 15.7817 8.58521 15.7817C8.93677 15.7817 9.2063 15.5005 9.2063 15.1489C9.2063 15.0786 9.17114 14.8208 9.14771 14.7153L7.81177 8.98486C7.68286 8.41064 7.34302 8.12939 6.7688 8.12939C6.22974 8.12939 5.90161 8.39892 5.76099 8.98486L4.44849 14.7153C4.41333 14.8677 4.37818 15.0083 4.37818 15.1489C4.37818 15.5825 4.67114 15.7817 5.01099 15.7817ZM6.10083 12.9692L6.74536 9.71142H6.79224L7.46021 12.9692H6.10083ZM10.8469 15.6645H12.6047C13.8586 15.6645 14.4797 14.7153 14.4797 13.5669C14.4797 12.7231 13.9758 11.8208 13.179 11.7622V11.7153C13.929 11.5395 14.2688 10.7544 14.2688 10.0864C14.2688 8.98486 13.6594 8.24658 12.5579 8.24658H10.8469C10.4602 8.24658 10.1907 8.45752 10.1907 8.94971V14.9614C10.1907 15.4067 10.4133 15.6645 10.8469 15.6645ZM11.5149 14.645V12.3013H12.1477C12.8274 12.3013 13.1438 12.7817 13.1438 13.4614C13.1438 14.1411 12.8626 14.645 12.1711 14.645H11.5149ZM11.5149 11.3872V9.26611H12.1594C12.7805 9.26611 13.0032 9.67627 13.0032 10.2856C13.0032 10.9419 12.7219 11.3872 12.0657 11.3872H11.5149ZM17.386 15.8286C18.7454 15.8286 19.4954 14.9497 19.4954 13.6489C19.4954 12.4536 18.8626 11.9145 18.0071 11.4927L17.5852 11.2935C17.0344 11.0122 16.6594 10.7075 16.6594 10.0747C16.6594 9.58252 16.8821 9.17236 17.3626 9.17236C17.8547 9.17236 18.054 9.5708 18.1711 10.0513C18.2415 10.3208 18.4758 10.4849 18.7922 10.4849C19.1321 10.4849 19.343 10.2505 19.343 9.93408C19.343 9.78174 19.3079 9.61768 19.2493 9.45361C18.9797 8.6333 18.3118 8.05908 17.3626 8.05908C16.261 8.05908 15.3586 8.80908 15.3586 10.1919C15.3586 11.3638 16.0383 11.9263 16.8235 12.3364L17.2336 12.5356C17.8196 12.8403 18.1829 13.1216 18.1829 13.7778C18.1829 14.3286 17.9016 14.7388 17.386 14.7388C16.8938 14.7388 16.6594 14.3638 16.5305 13.8599C16.4485 13.5435 16.2493 13.3794 15.9094 13.3794C15.5579 13.3794 15.3469 13.6372 15.3469 13.9888C15.3469 14.106 15.3704 14.2349 15.3938 14.3521C15.6399 15.2661 16.343 15.8286 17.386 15.8286Z" fill="black" fill-opacity="0.85"/>
</g>
<defs>
<clipPath id="clip0_2207_17619">
<rect width="23.9062" height="23.918" fill="white" transform="translate(0.0187988 0.00830078)"/>
</clipPath>
</defs>
</svg>
