<svg width="24" height="24" viewBox="0 0 24 24" fill="none" xmlns="http://www.w3.org/2000/svg">
<g clip-path="url(#clip0_2207_2497)">
<path d="M11.9763 23.9145C18.5154 23.9145 23.9294 18.4888 23.9294 11.9614C23.9294 5.42236 18.5037 0.00830078 11.9646 0.00830078C5.43725 0.00830078 0.0231934 5.42236 0.0231934 11.9614C0.0231934 18.4888 5.44897 23.9145 11.9763 23.9145ZM11.9763 21.9224C6.44507 21.9224 2.0271 17.4927 2.0271 11.9614C2.0271 6.43018 6.43335 2.00049 11.9646 2.00049C17.4959 2.00049 21.9373 6.43018 21.9373 11.9614C21.9373 17.4927 17.5076 21.9224 11.9763 21.9224Z" fill="black" fill-opacity="0.85"/>
<path d="M11.9646 8.00049C10.3005 8.00049 7.93335 7.71924 6.79663 7.54346C6.69116 7.53174 6.59741 7.49658 6.48022 7.49658C6.18725 7.49658 5.88257 7.74268 5.88257 8.16455C5.88257 8.48096 6.08178 8.75049 6.37475 8.83252C6.76147 8.94971 9.42163 9.25439 9.76147 9.31299C10.0896 9.3833 10.2888 9.66455 10.3005 10.063C10.3123 10.6724 10.3005 12.6177 10.1482 13.5083C10.0076 14.3872 8.98803 18.6177 8.94116 18.8052C8.81225 19.2622 9.0935 19.6606 9.55053 19.6606C9.87866 19.6606 10.1013 19.4849 10.2302 19.0395C10.4294 18.1841 11.1677 15.2544 11.4021 14.5513C11.5427 14.0356 11.6716 13.8599 11.9646 13.8599C12.2459 13.8599 12.3748 14.0356 12.5388 14.5513C12.738 15.2544 13.4998 18.1841 13.699 19.0395C13.8162 19.4849 14.0505 19.6606 14.3787 19.6606C14.8357 19.6606 15.1052 19.2622 14.9763 18.8052C14.9412 18.6177 13.9099 14.3872 13.7693 13.5083C13.6404 12.6177 13.6404 10.6724 13.6404 10.063C13.6404 9.66455 13.8279 9.3833 14.1677 9.31299C14.4959 9.25439 17.1677 8.94971 17.5427 8.83252C17.8474 8.75049 18.0466 8.48096 18.0466 8.16455C18.0466 7.74268 17.7302 7.49658 17.4373 7.49658C17.3318 7.49658 17.2263 7.53174 17.1209 7.54346C15.9959 7.71924 13.6404 8.00049 11.9646 8.00049ZM11.9646 7.22705C12.8084 7.22705 13.488 6.53564 13.488 5.70361C13.488 4.85986 12.8084 4.18018 11.9646 4.18018C11.1209 4.18018 10.4412 4.85986 10.4412 5.70361C10.4412 6.53564 11.1209 7.22705 11.9646 7.22705Z" fill="black" fill-opacity="0.85"/>
</g>
<defs>
<clipPath id="clip0_2207_2497">
<rect width="23.9062" height="23.918" fill="white" transform="translate(0.0231934 0.00830078)"/>
</clipPath>
</defs>
</svg>
