<svg width="24" height="24" viewBox="0 0 24 24" fill="none" xmlns="http://www.w3.org/2000/svg">
<g clip-path="url(#clip0_2207_14918)">
<path d="M12.0202 23.9263C18.5593 23.9263 23.9733 18.5122 23.9733 11.9731C23.9733 5.4458 18.5476 0.0200195 12.0085 0.0200195C5.4812 0.0200195 0.0671387 5.4458 0.0671387 11.9731C0.0671387 18.5122 5.49292 23.9263 12.0202 23.9263Z" fill="black" fill-opacity="0.85"/>
<path d="M15.5359 18.0903H8.4812C8.1062 18.0903 7.89526 17.6567 8.1648 17.3521L11.6569 13.4145C11.8562 13.2271 12.2077 13.2271 12.3718 13.4145L15.8523 17.3521C16.1218 17.6567 15.9343 18.0903 15.5359 18.0903ZM17.1765 6.88721C18.1843 6.88721 18.8991 7.59033 18.8991 8.57471V14.2583C18.8991 15.2544 18.1843 15.9341 17.1765 15.9341H15.9109L14.8327 14.7036H17.0476C17.3757 14.7036 17.6101 14.481 17.6101 14.1528V8.69189C17.6101 8.35205 17.3757 8.10596 17.0476 8.10596H6.9812C6.6648 8.10596 6.43042 8.35205 6.43042 8.69189V14.1528C6.43042 14.481 6.6648 14.7036 6.9812 14.7036H9.20776L8.1062 15.9341H6.84058C5.83276 15.9341 5.14136 15.2544 5.14136 14.2583V8.57471C5.14136 7.59033 5.83276 6.88721 6.84058 6.88721H17.1765Z" fill="white"/>
</g>
<defs>
<clipPath id="clip0_2207_14918">
<rect width="23.9062" height="23.918" fill="white" transform="translate(0.0671387 0.00830078)"/>
</clipPath>
</defs>
</svg>
