<svg width="24" height="24" viewBox="0 0 24 24" fill="none" xmlns="http://www.w3.org/2000/svg">
<g clip-path="url(#clip0_2207_15218)">
<path d="M12.0014 23.9263C18.5405 23.9263 23.9545 18.5122 23.9545 11.9731C23.9545 5.4458 18.5288 0.0200195 11.9897 0.0200195C5.4624 0.0200195 0.0483398 5.4458 0.0483398 11.9731C0.0483398 18.5122 5.47412 23.9263 12.0014 23.9263Z" fill="black" fill-opacity="0.85"/>
<path d="M19.853 11.9849C19.853 12.7935 18.7866 13.4028 17.4741 13.4028H14.8842C14.5678 13.4028 14.4741 13.4497 14.2749 13.6606L9.9624 18.3599C9.81006 18.5239 9.61084 18.6294 9.3999 18.6294H8.6499C8.39209 18.6294 8.25146 18.3833 8.35693 18.1255L10.5131 13.3794L7.50146 13.0395L6.37646 15.0903C6.271 15.2895 6.09522 15.3833 5.8374 15.3833H5.55615C5.32178 15.3833 5.16943 15.2192 5.16943 14.9849V8.97314C5.16943 8.73877 5.32178 8.58642 5.55615 8.58642H5.8374C6.09522 8.58642 6.271 8.68018 6.37646 8.87939L7.50146 10.9302L10.5131 10.5903L8.35693 5.84424C8.25146 5.58642 8.39209 5.34033 8.6499 5.34033H9.3999C9.61084 5.34033 9.81006 5.43408 9.9624 5.60986L14.2749 10.3091C14.4741 10.52 14.5678 10.5669 14.8842 10.5669H17.4741C18.7866 10.5669 19.853 11.1763 19.853 11.9849Z" fill="white"/>
</g>
<defs>
<clipPath id="clip0_2207_15218">
<rect width="23.9062" height="23.918" fill="white" transform="translate(0.0483398 0.00830078)"/>
</clipPath>
</defs>
</svg>
