<svg width="28" height="26" viewBox="0 0 28 26" fill="none" xmlns="http://www.w3.org/2000/svg">
<g clip-path="url(#clip0_2207_14906)">
<path d="M24.4126 1.59033H3.07276C1.20948 1.59033 0.0610352 2.73877 0.0610352 4.60205V16.4145C0.0610352 18.2778 1.20948 19.4263 3.07276 19.4263H24.4126C26.2758 19.4263 27.4243 18.2778 27.4243 16.4145V4.60205C27.4243 2.73877 26.2758 1.59033 24.4126 1.59033ZM1.94776 16.3911V4.63721C1.94776 3.91064 2.38135 3.47705 3.10792 3.47705H24.3774C25.104 3.47705 25.5376 3.91064 25.5376 4.63721V16.3911C25.5376 17.106 25.104 17.5395 24.3774 17.5395H3.10792C2.38135 17.5395 1.94776 17.106 1.94776 16.3911Z" fill="black" fill-opacity="0.85"/>
<path d="M1.94775 16.3911V4.63721C1.94775 3.91064 2.38134 3.47705 3.10791 3.47705H24.3774C25.104 3.47705 25.5376 3.91064 25.5376 4.63721V16.3911C25.5376 17.106 25.104 17.5395 24.3774 17.5395H3.10791C2.38134 17.5395 1.94775 17.106 1.94775 16.3911Z" fill="white"/>
<path d="M20.9087 25.4028C22.8305 25.4028 23.7915 23.1997 22.5258 21.7817L15.4477 13.7778C14.5454 12.7583 12.9516 12.7583 12.0493 13.7778L4.97115 21.7817C3.70552 23.1997 4.66646 25.4028 6.58833 25.4028H20.9087Z" fill="white"/>
<path d="M20.9087 23.7974C21.4594 23.7974 21.6704 23.2349 21.3188 22.8364L14.2524 14.8325C13.9829 14.5278 13.5141 14.5278 13.2446 14.8325L6.17818 22.8364C5.82661 23.2349 6.03755 23.7974 6.58833 23.7974H20.9087Z" fill="black" fill-opacity="0.85"/>
</g>
<defs>
<clipPath id="clip0_2207_14906">
<rect width="27.3633" height="25.3945" fill="white" transform="translate(0.0610352 0.00830078)"/>
</clipPath>
</defs>
</svg>
