<svg width="14" height="21" viewBox="0 0 14 21" fill="none" xmlns="http://www.w3.org/2000/svg">
<g clip-path="url(#clip0_2207_14401)">
<path d="M5.1084 0.0904459C2.40137 0.113884 0.0693359 2.34044 0.0693359 5.3756C0.0693359 8.51622 4.53418 12.2779 7.78028 12.2896C10.124 12.3014 13.0068 10.0279 13.0068 7.14513C13.0068 3.66466 8.70606 0.0670085 5.1084 0.0904459ZM8.89356 10.6725C8.26075 10.6725 8.22559 9.85216 8.8584 8.83263C9.4795 7.78966 10.499 6.98107 11.1435 6.98107C11.7881 6.98107 11.8232 7.78966 11.1904 8.83263C10.5693 9.85216 9.54981 10.6725 8.89356 10.6725ZM5.63575 5.44591C5.27246 5.96153 4.56934 6.07872 4.03028 5.692L2.40137 4.53185C1.87403 4.14513 1.76856 3.46544 2.167 2.94982C2.51856 2.42247 3.22168 2.29357 3.73731 2.66857L5.36622 3.85216C5.88184 4.21544 5.99903 4.91857 5.63575 5.44591ZM4.5459 20.6217C5.27246 20.6217 5.75293 20.2467 5.75293 19.5318V13.0631C4.38184 12.6295 3.02246 11.8092 1.87403 10.7779V19.5318C1.87403 20.2467 2.34278 20.6217 3.06934 20.6217H4.5459Z" fill="black" fill-opacity="0.85"/>
</g>
<defs>
<clipPath id="clip0_2207_14401">
<rect width="12.9375" height="20.6133" fill="white" transform="translate(0.0693359 0.00830078)"/>
</clipPath>
</defs>
</svg>
