<svg width="18" height="24" viewBox="0 0 18 24" fill="none" xmlns="http://www.w3.org/2000/svg">
<g clip-path="url(#clip0_2207_14365)">
<path d="M7.64795 21.9342C8.37452 21.9342 8.85498 21.5592 8.85498 20.8326V12.067L5.52686 11.1646V20.8326C5.52686 21.5592 6.00733 21.9342 6.73389 21.9342H7.64795Z" fill="black" fill-opacity="0.85"/>
<path d="M5.93702 0.00839137C2.77295 0.0318289 0.0776367 2.22323 0.0776367 5.91464C0.0776367 9.03183 1.9292 11.1881 4.13233 12.442C5.7378 13.356 7.62452 13.9537 11.8667 13.7662L14.2104 7.68417C14.2807 6.04355 13.1909 4.23886 12.6401 3.53573C10.9057 1.12167 8.29248 -0.00332742 5.93702 0.00839137Z" fill="white"/>
<path d="M5.96045 1.20378C3.37061 1.22722 1.26123 2.92644 1.26123 5.91472C1.26123 8.50456 2.78467 10.3093 4.71826 11.4226C5.9253 12.1022 7.28467 12.5593 10.0737 12.5944L13.0385 7.43816C12.9799 6.23113 12.1245 4.778 11.7026 4.25066C10.2026 2.16472 7.96436 1.18035 5.96045 1.20378ZM5.51514 6.23113L3.76905 4.778C3.52295 4.57878 3.51123 4.22722 3.72217 3.99285C3.90967 3.74675 4.26123 3.7116 4.50733 3.91081L6.21826 5.36394C6.47608 5.56316 6.49952 5.91472 6.3003 6.16081C6.10108 6.40691 5.7378 6.43035 5.51514 6.23113Z" fill="black" fill-opacity="0.85"/>
<path d="M12.2885 15.0669C14.9135 15.0669 17.6792 12.9575 17.6792 9.72314C17.6792 7.49658 16.0503 5.23486 13.2378 5.23486C10.1088 5.23486 7.71826 7.90674 7.71826 10.5317C7.71826 13.5083 9.93311 15.0669 12.2885 15.0669Z" fill="white"/>
<path d="M12.2885 13.9302C14.3862 13.9302 16.5424 12.2661 16.5424 9.72314C16.5424 8.02393 15.3471 6.35986 13.2378 6.35986C10.7651 6.35986 8.85498 8.50439 8.85498 10.5317C8.85498 12.8052 10.4604 13.9302 12.2885 13.9302ZM12.8628 12.1489C12.5346 11.8677 12.7221 11.3052 13.3901 10.4497C14.0815 9.60596 14.6323 9.32471 14.9838 9.62939C15.3003 9.91064 15.1245 10.4849 14.4565 11.3169C13.7534 12.1489 13.2026 12.4419 12.8628 12.1489Z" fill="black" fill-opacity="0.85"/>
</g>
<defs>
<clipPath id="clip0_2207_14365">
<rect width="17.6016" height="23.1213" fill="white" transform="translate(0.0776367 0.00830078)"/>
</clipPath>
</defs>
</svg>
