<svg width="25" height="27" viewBox="0 0 25 27" fill="none" xmlns="http://www.w3.org/2000/svg">
<g clip-path="url(#clip0_2207_14280)">
<path d="M0.846507 15.0435H1.91291V12.688H0.846507V15.0435ZM6.38947 26.0825C7.85432 26.0825 8.534 24.7349 7.73713 23.3052L3.35432 15.5591C2.97932 14.9145 2.41682 14.6216 1.71369 14.6216C0.612132 14.6216 0.0144759 15.4419 0.108226 16.5317C0.342601 17.9263 1.2801 20.1528 2.41682 21.981C4.20979 25.0161 5.25275 26.0825 6.38947 26.0825ZM23.4754 15.0435V12.688H22.409V15.0435H23.4754ZM17.9324 26.0825C19.0691 26.0825 20.1121 25.0161 21.9051 21.981C23.0301 20.1528 23.9793 17.9263 24.2137 16.5317C24.3074 15.4419 23.7098 14.6216 22.6082 14.6216C21.9051 14.6216 21.3426 14.9145 20.9676 15.5591L16.5848 23.3052C15.7762 24.7349 16.4676 26.0825 17.9324 26.0825ZM0.44807 12.4888C0.44807 13.0395 0.799632 13.3794 1.35041 13.3794C1.90119 13.3794 2.22932 13.0395 2.22932 12.4888C2.28791 6.17236 6.04963 2.16455 12.1551 2.16455C18.2723 2.16455 22.0223 6.17236 22.0808 12.4888C22.0808 13.0395 22.4207 13.3794 22.9715 13.3794C23.5223 13.3794 23.8621 13.0395 23.8621 12.4888C23.8621 5.30518 19.4441 0.371582 12.1551 0.371582C4.86604 0.371582 0.44807 5.30518 0.44807 12.4888Z" fill="black" fill-opacity="0.85"/>
<path d="M9.89346 23.7622C10.6434 23.3286 10.8427 22.356 10.3622 21.5239L6.41299 14.5513C5.93252 13.7192 4.99502 13.4145 4.25674 13.8481C3.79971 14.0942 3.69424 14.5278 3.92862 14.938L8.78018 23.4692C9.02627 23.8911 9.44815 24.0083 9.89346 23.7622ZM14.4286 23.7622C14.8739 24.0083 15.2958 23.8911 15.5302 23.4692L20.3817 14.938C20.6278 14.5278 20.5224 14.0942 20.0653 13.8481C19.3153 13.4145 18.3895 13.7192 17.8974 14.5513L13.9481 21.5239C13.4677 22.356 13.6786 23.3286 14.4286 23.7622ZM5.31143 6.24268C7.2333 5.19971 9.4833 4.68408 12.1552 4.68408C14.8388 4.68408 17.0888 5.19971 18.9989 6.24268C17.4638 4.27392 15.2724 3.28955 12.1552 3.28955C9.04971 3.28955 6.8583 4.27392 5.31143 6.24268Z" fill="black" fill-opacity="0.85"/>
</g>
<defs>
<clipPath id="clip0_2207_14280">
<rect width="24.1247" height="26.0742" fill="white" transform="translate(0.0986328 0.00830078)"/>
</clipPath>
</defs>
</svg>
