<svg width="27" height="24" viewBox="0 0 27 24" fill="none" xmlns="http://www.w3.org/2000/svg">
<g clip-path="url(#clip0_2207_15209)">
<path d="M26.4561 11.938C26.4443 10.5669 24.5811 9.5708 22.3428 9.5708H17.6201C16.9639 9.5708 16.7178 9.46533 16.3311 9.02002L8.45605 0.430176C8.20996 0.148926 7.90527 0.00830078 7.55371 0.00830078H6.19433C5.88965 0.00830078 5.71387 0.277832 5.86621 0.605957L9.9209 9.5708L3.96777 10.2505L1.84668 6.35986C1.69433 6.06689 1.43652 5.93799 1.0498 5.93799H0.545898C0.241211 5.93799 0.0419922 6.13721 0.0419922 6.44189V17.4341C0.0419922 17.7388 0.241211 17.9263 0.545898 17.9263H1.0498C1.43652 17.9263 1.69433 17.7974 1.84668 17.5161L3.96777 13.6255L9.9209 14.3052L5.86621 23.27C5.71387 23.5864 5.88965 23.8677 6.19433 23.8677H7.55371C7.90527 23.8677 8.20996 23.7153 8.45605 23.4458L16.3311 14.8442C16.7178 14.4106 16.9639 14.3052 17.6201 14.3052H22.3428C24.5811 14.3052 26.4443 13.2974 26.4561 11.938Z" fill="black" fill-opacity="0.85"/>
</g>
<defs>
<clipPath id="clip0_2207_15209">
<rect width="26.4141" height="23.8711" fill="white" transform="translate(0.0419922 0.00830078)"/>
</clipPath>
</defs>
</svg>
