<svg width="31" height="21" viewBox="0 0 31 21" fill="none" xmlns="http://www.w3.org/2000/svg">
<g clip-path="url(#clip0_2207_15228)">
<path d="M2.34656 20.9731H27.6356C28.1512 20.9731 28.5848 20.5395 28.5848 20.0239C28.5848 19.5083 28.1512 19.0864 27.6356 19.0864H2.34656C1.83094 19.0864 1.40906 19.5083 1.40906 20.0239C1.40906 20.5395 1.83094 20.9731 2.34656 20.9731Z" fill="black" fill-opacity="0.85"/>
<path d="M6.63563 13.1217L26.7333 7.76619C28.9833 7.15682 30.6708 5.50447 30.0614 3.82869C29.4989 2.30526 27.2372 1.93026 25.2216 2.60994L18.1786 5.024C17.6864 5.18807 17.3348 5.17635 16.7723 4.90682L6.95203 0.26619C6.63563 0.125566 6.28407 0.0904091 5.96767 0.184159L5.15907 0.430253C4.87782 0.524003 4.78406 0.852128 5.04188 1.12166L11.7567 8.24666L11.9794 7.13338L6.0497 9.17244L8.34657 9.24276L1.47939 6.80526C1.16298 6.69979 0.881724 6.74666 0.577037 7.02791L0.237193 7.34432C0.00281791 7.55526 -0.00890078 7.8365 0.190318 8.04744L4.3036 12.6646C4.84267 13.274 5.63953 13.3912 6.63563 13.1217Z" fill="black" fill-opacity="0.85"/>
</g>
<defs>
<clipPath id="clip0_2207_15228">
<rect width="30.1366" height="20.9648" fill="white" transform="translate(0.050415 0.00830078)"/>
</clipPath>
</defs>
</svg>
