<svg width="20" height="24" viewBox="0 0 20 24" fill="none" xmlns="http://www.w3.org/2000/svg">
<g clip-path="url(#clip0_2207_14333)">
<path d="M5.99023 23.2817H13.2324C17.2168 23.2817 19.1387 21.3599 19.1387 17.3755V5.91455C19.1387 1.93018 17.2168 0.00830078 13.2324 0.00830078H5.99023C2.00586 0.00830078 0.0839844 1.93018 0.0839844 5.91455V17.3755C0.0839844 21.3599 2.00586 23.2817 5.99023 23.2817ZM5.99023 21.395C3.18945 21.395 1.9707 20.1763 1.9707 17.3755V5.91455C1.9707 3.11377 3.18945 1.89502 5.99023 1.89502H13.2324C16.0332 1.89502 17.252 3.11377 17.252 5.91455V17.3755C17.252 20.1763 16.0332 21.395 13.2324 21.395H5.99023ZM1.0332 7.81299H18.1895V6.62939H1.0332V7.81299ZM6.36523 8.60986H12.8574C13.666 8.60986 14.2637 8.03564 14.2637 7.21533C14.2637 6.39502 13.666 5.8208 12.8574 5.8208H6.36523C5.59179 5.8208 4.95898 6.39502 4.95898 7.21533C4.95898 8.03564 5.59179 8.60986 6.36523 8.60986Z" fill="black" fill-opacity="0.85"/>
</g>
<defs>
<clipPath id="clip0_2207_14333">
<rect width="19.0547" height="23.2852" fill="white" transform="translate(0.0839844 0.00830078)"/>
</clipPath>
</defs>
</svg>
