<svg width="32" height="21" viewBox="0 0 32 21" fill="none" xmlns="http://www.w3.org/2000/svg">
<g clip-path="url(#clip0_2207_13096)">
<path d="M26.8335 18.3731C27.2085 18.8067 27.8648 18.8067 28.3101 18.3145C30.2671 16.1934 31.3569 13.3926 31.3569 10.3575C31.3569 7.32227 30.2671 4.50977 28.3101 2.40039C27.8648 1.90821 27.2085 1.89649 26.8335 2.3418C26.4585 2.76368 26.5757 3.31446 26.9976 3.79493C28.5679 5.54102 29.4468 7.83789 29.4468 10.3575C29.4468 12.877 28.5679 15.1739 26.9976 16.92C26.5757 17.4004 26.4585 17.9512 26.8335 18.3731Z" fill="black" fill-opacity="0.85"/>
<path d="M23.5522 15.0331C23.939 15.4667 24.6421 15.4785 25.0522 14.9511C26.0718 13.6855 26.6694 12.08 26.6694 10.3574C26.6694 8.63468 26.0718 7.02921 25.0522 5.76359C24.6421 5.23624 23.939 5.23624 23.5522 5.68156C23.1772 6.10343 23.3296 6.63077 23.7046 7.13468C24.4077 8.00187 24.7593 9.13859 24.7593 10.3574C24.7593 11.5761 24.4077 12.7011 23.7046 13.58C23.3296 14.0839 23.1772 14.6113 23.5522 15.0331Z" fill="black" fill-opacity="0.85"/>
<path d="M10.3687 20.7051C16.0171 20.7051 20.7163 16.0059 20.7163 10.3575C20.7163 4.70899 16.0288 0.00976562 10.3804 0.00976562C4.73194 0.00976562 0.0209961 4.70899 0.0209961 10.3575C0.0209961 16.0059 4.72022 20.7051 10.3687 20.7051ZM10.3804 18.8301C5.68116 18.8301 1.90772 15.0567 1.91944 10.3575C1.91944 5.65821 5.69288 1.89649 10.3921 1.89649C15.0679 1.89649 18.8296 5.65821 18.8296 10.3575C18.8296 15.0567 15.0796 18.8301 10.3804 18.8301ZM10.4624 13.7325C11.1655 13.7325 11.3179 14.084 11.9155 14.084C12.5132 14.084 12.9233 13.5332 13.2983 12.9942C13.7319 12.3731 13.9077 11.7637 13.9077 11.7403C13.8726 11.7286 12.7241 11.2598 12.7241 9.94727C12.7241 8.79883 13.6265 8.29493 13.6733 8.24805C13.0874 7.39258 12.1733 7.38086 11.9155 7.38086C11.2476 7.38086 10.7085 7.7793 10.3569 7.7793C9.99366 7.7793 9.51319 7.39258 8.91553 7.39258C7.81397 7.39258 6.70069 8.31836 6.70069 10.0293C6.70069 11.1075 7.11084 12.2442 7.61475 12.9707C8.06006 13.5918 8.44678 14.0957 9.00928 14.0957C9.54834 14.0957 9.79444 13.7325 10.4624 13.7325ZM11.6108 6.64258C11.8804 6.31446 12.0796 5.86915 12.0796 5.40039C12.0796 5.3418 12.0796 5.28321 12.0679 5.23633C11.6108 5.24805 11.0835 5.5293 10.7671 5.9043C10.521 6.19727 10.2749 6.64258 10.2749 7.11133C10.2749 7.16993 10.2866 7.24024 10.2866 7.26368C10.3218 7.26368 10.3569 7.27539 10.4038 7.27539C10.814 7.27539 11.3179 7.00586 11.6108 6.64258Z" fill="black" fill-opacity="0.85"/>
</g>
<defs>
<clipPath id="clip0_2207_13096">
<rect width="31.3359" height="20.707" fill="white" transform="translate(0.0209961 0.00976562)"/>
</clipPath>
</defs>
</svg>
