<svg width="24" height="24" viewBox="0 0 24 24" fill="none" xmlns="http://www.w3.org/2000/svg">
<g clip-path="url(#clip0_2207_13112)">
<path d="M11.9719 23.9278C18.511 23.9278 23.925 18.5137 23.925 11.9746C23.925 5.44727 18.4993 0.0214844 11.9602 0.0214844C5.43286 0.0214844 0.0187988 5.44727 0.0187988 11.9746C0.0187988 18.5137 5.44458 23.9278 11.9719 23.9278ZM11.9719 21.584C6.63989 21.584 2.36255 17.3067 2.36255 11.9629C2.36255 6.60743 6.62818 2.3418 11.9602 2.3418C17.304 2.3418 21.5813 6.60743 21.593 11.9629C21.6047 17.295 17.3157 21.584 11.9719 21.584ZM11.9719 20.5176C16.7297 20.5176 20.5383 16.6973 20.5266 11.9629C20.5149 7.19336 16.7063 3.40821 11.9602 3.40821C7.21411 3.40821 3.42896 7.20508 3.42896 11.9629C3.42896 16.709 7.22583 20.5176 11.9719 20.5176ZM12.0774 15.2207C11.4094 15.2207 11.175 15.584 10.636 15.584C10.0735 15.584 9.71021 15.0918 9.26489 14.4825C8.77271 13.7559 8.35083 12.6426 8.35083 11.5762C8.35083 9.88868 9.46411 8.97461 10.554 8.97461C11.1282 8.97461 11.6086 9.36133 11.9602 9.36133C12.3118 9.36133 12.8508 8.96289 13.5071 8.96289C13.7649 8.96289 14.6555 8.97461 15.2415 9.81836C15.1946 9.87696 14.304 10.3692 14.304 11.4942C14.304 12.795 15.4407 13.252 15.4758 13.2637C15.4758 13.2871 15.3 13.8965 14.8782 14.5059C14.5032 15.0332 14.093 15.5723 13.5071 15.5723C12.9094 15.5723 12.7688 15.2207 12.0774 15.2207ZM13.2024 8.23633C12.9094 8.59961 12.4172 8.86915 12.0188 8.86915C11.9602 8.86915 11.925 8.85743 11.8899 8.85743C11.8899 8.83399 11.8782 8.76368 11.8782 8.70508C11.8782 8.23633 12.1243 7.80274 12.3586 7.50977C12.6868 7.13477 13.2024 6.86524 13.6477 6.85352C13.6594 6.90039 13.6594 6.95899 13.6594 7.01758C13.6594 7.47461 13.4719 7.90821 13.2024 8.23633Z" fill="black" fill-opacity="0.85"/>
</g>
<defs>
<clipPath id="clip0_2207_13112">
<rect width="23.9062" height="23.918" fill="white" transform="translate(0.0187988 0.00976562)"/>
</clipPath>
</defs>
</svg>
