<svg width="28" height="27" viewBox="0 0 28 27" fill="none" xmlns="http://www.w3.org/2000/svg">
<g clip-path="url(#clip0_2207_19663)">
<path d="M5.79883 26.459H9.87695C11.5878 26.459 12.5136 25.5215 12.5136 23.7754V6.63086C12.5136 4.89649 11.5878 3.94727 9.87695 3.94727H5.79883C4.08789 3.94727 3.16211 4.89649 3.16211 6.63086V23.7754C3.16211 25.5215 4.08789 26.459 5.79883 26.459ZM17.4238 18.1621H21.5019C23.2011 18.1621 24.1386 17.2246 24.1386 15.4786V6.63086C24.1386 4.89649 23.2011 3.94727 21.5019 3.94727H17.4238C15.7128 3.94727 14.7754 4.89649 14.7754 6.63086V15.4786C14.7754 17.2246 15.7128 18.1621 17.4238 18.1621Z" fill="black" fill-opacity="0.85"/>
<path d="M0.876953 1.75586H26.4121C26.8691 1.75586 27.2207 1.35743 27.2207 0.900391C27.2207 0.44336 26.8691 0.0332031 26.4121 0.0332031H0.876953C0.408203 0.0332031 0.0566406 0.44336 0.0566406 0.900391C0.0566406 1.35743 0.408203 1.75586 0.876953 1.75586Z" fill="black" fill-opacity="0.85"/>
</g>
<defs>
<clipPath id="clip0_2207_19663">
<rect width="27.1641" height="26.4492" fill="white" transform="translate(0.0566406 0.00976562)"/>
</clipPath>
</defs>
</svg>
