<svg width="23" height="28" viewBox="0 0 23 28" fill="none" xmlns="http://www.w3.org/2000/svg">
<g clip-path="url(#clip0_2207_19643)">
<path d="M10.4301 3.75977H12.1528V0.81836C12.1528 0.361328 11.7426 0.00976562 11.2856 0.00976562C10.8286 0.00976562 10.4301 0.361328 10.4301 0.81836V3.75977ZM10.4301 15.7481H12.1528V11.67H10.4301V15.7481ZM11.2856 27.1739C11.7426 27.1739 12.1528 26.8223 12.1528 26.3653V23.4356H10.4301V26.3653C10.4301 26.8223 10.8286 27.1739 11.2856 27.1739Z" fill="black" fill-opacity="0.85"/>
<path d="M6.86767 12.4668H15.7153C17.4497 12.4668 18.3989 11.541 18.3989 9.83007V5.75195C18.3989 4.04101 17.4497 3.11523 15.7153 3.11523H6.86767C5.12158 3.11523 4.18408 4.04101 4.18408 5.75195V9.83007C4.18408 11.541 5.12158 12.4668 6.86767 12.4668ZM2.71923 24.0801H19.8637C21.5981 24.0801 22.5473 23.1543 22.5473 21.4434V17.3653C22.5473 15.666 21.5981 14.7286 19.8637 14.7286H2.71923C0.973144 14.7286 0.0356445 15.666 0.0356445 17.3653V21.4434C0.0356445 23.1543 0.973144 24.0801 2.71923 24.0801Z" fill="black" fill-opacity="0.85"/>
</g>
<defs>
<clipPath id="clip0_2207_19643">
<rect width="22.5117" height="27.1992" fill="white" transform="translate(0.0356445 0.00976562)"/>
</clipPath>
</defs>
</svg>
