<svg width="28" height="27" viewBox="0 0 28 27" fill="none" xmlns="http://www.w3.org/2000/svg">
<g clip-path="url(#clip0_2207_19678)">
<path d="M5.78833 22.545H9.86645C11.5773 22.545 12.5031 21.6075 12.5031 19.8614V2.7168C12.5031 0.970704 11.5773 0.0332031 9.86645 0.0332031H5.78833C4.07739 0.0332031 3.15161 0.970704 3.15161 2.7168V19.8614C3.15161 21.6075 4.07739 22.545 5.78833 22.545ZM5.8938 20.7754C5.26098 20.7754 4.92114 20.4356 4.92114 19.8262V2.75196C4.92114 2.14258 5.26098 1.80274 5.8938 1.80274H9.76098C10.3938 1.80274 10.7336 2.14258 10.7336 2.75196V19.8262C10.7336 20.4356 10.3938 20.7754 9.76098 20.7754H5.8938ZM17.4133 22.545H21.4914C23.1906 22.545 24.1281 21.6075 24.1281 19.8614V11.0137C24.1281 9.27929 23.1906 8.33008 21.4914 8.33008H17.4133C15.7023 8.33008 14.7649 9.27929 14.7649 11.0137V19.8614C14.7649 21.6075 15.7023 22.545 17.4133 22.545ZM17.507 20.7754C16.8859 20.7754 16.5344 20.4356 16.5344 19.8262V11.0489C16.5344 10.4395 16.8859 10.0996 17.507 10.0996H21.3859C22.007 10.0996 22.3586 10.4395 22.3586 11.0489V19.8262C22.3586 20.4356 22.007 20.7754 21.3859 20.7754H17.507Z" fill="black" fill-opacity="0.85"/>
<path d="M0.866455 26.4589H26.4016C26.8586 26.4589 27.2102 26.0605 27.2102 25.6035C27.2102 25.1464 26.8586 24.7363 26.4016 24.7363H0.866455C0.397705 24.7363 0.0461426 25.1464 0.0461426 25.6035C0.0461426 26.0605 0.397705 26.4589 0.866455 26.4589Z" fill="black" fill-opacity="0.85"/>
</g>
<defs>
<clipPath id="clip0_2207_19678">
<rect width="27.1641" height="26.4492" fill="white" transform="translate(0.0461426 0.00976562)"/>
</clipPath>
</defs>
</svg>
