<svg width="28" height="27" viewBox="0 0 28 27" fill="none" xmlns="http://www.w3.org/2000/svg">
<g clip-path="url(#clip0_2207_19683)">
<path d="M5.79053 22.545H9.86865C11.5795 22.545 12.5053 21.6075 12.5053 19.8614V2.7168C12.5053 0.970704 11.5795 0.0332031 9.86865 0.0332031H5.79053C4.07959 0.0332031 3.15381 0.970704 3.15381 2.7168V19.8614C3.15381 21.6075 4.07959 22.545 5.79053 22.545ZM17.4155 22.545H21.4936C23.1928 22.545 24.1303 21.6075 24.1303 19.8614V11.0137C24.1303 9.27929 23.1928 8.33008 21.4936 8.33008H17.4155C15.7045 8.33008 14.7671 9.27929 14.7671 11.0137V19.8614C14.7671 21.6075 15.7045 22.545 17.4155 22.545Z" fill="black" fill-opacity="0.85"/>
<path d="M0.868652 26.4589H26.4038C26.8608 26.4589 27.2124 26.0605 27.2124 25.6035C27.2124 25.1464 26.8608 24.7363 26.4038 24.7363H0.868652C0.399902 24.7363 0.0483398 25.1464 0.0483398 25.6035C0.0483398 26.0605 0.399902 26.4589 0.868652 26.4589Z" fill="black" fill-opacity="0.85"/>
</g>
<defs>
<clipPath id="clip0_2207_19683">
<rect width="27.1641" height="26.4492" fill="white" transform="translate(0.0483398 0.00976562)"/>
</clipPath>
</defs>
</svg>
