<svg width="28" height="23" viewBox="0 0 28 23" fill="none" xmlns="http://www.w3.org/2000/svg">
<g clip-path="url(#clip0_2207_19668)">
<path d="M0.870727 12.1856H3.89417V10.4629H0.870727C0.401977 10.4629 0.050415 10.8614 0.050415 11.3184C0.050415 11.7754 0.401977 12.1856 0.870727 12.1856ZM11.5465 12.1856H15.6949V10.4629H11.5465V12.1856ZM23.4176 12.1856H26.4059C26.8629 12.1856 27.2145 11.7754 27.2145 11.3184C27.2145 10.8614 26.8629 10.4629 26.4059 10.4629H23.4176V12.1856Z" fill="black" fill-opacity="0.85"/>
<path d="M5.7926 22.5918H9.87072C11.5816 22.5918 12.5074 21.6309 12.5074 19.8848V2.75196C12.5074 1.00586 11.5816 0.0683594 9.87072 0.0683594H5.7926C4.08166 0.0683594 3.15588 1.00586 3.15588 2.75196V19.8848C3.15588 21.6309 4.08166 22.5918 5.7926 22.5918ZM5.89807 20.8106C5.26525 20.8106 4.92541 20.459 4.92541 19.8614V2.77539C4.92541 2.17774 5.26525 1.83789 5.89807 1.83789H9.76525C10.3981 1.83789 10.7379 2.17774 10.7379 2.77539V19.8614C10.7379 20.459 10.3981 20.8106 9.76525 20.8106H5.89807ZM17.4176 18.42H21.4957C23.1949 18.42 24.1324 17.4825 24.1324 15.7364V6.90039C24.1324 5.1543 23.1949 4.2168 21.4957 4.2168H17.4176C15.7066 4.2168 14.7692 5.1543 14.7692 6.90039V15.7364C14.7692 17.4825 15.7066 18.42 17.4176 18.42ZM17.5113 16.6504C16.8902 16.6504 16.5387 16.3106 16.5387 15.7129V6.93555C16.5387 6.32618 16.8902 5.98633 17.5113 5.98633H21.3902C22.0113 5.98633 22.3629 6.32618 22.3629 6.93555V15.7129C22.3629 16.3106 22.0113 16.6504 21.3902 16.6504H17.5113Z" fill="black" fill-opacity="0.85"/>
</g>
<defs>
<clipPath id="clip0_2207_19668">
<rect width="27.1641" height="22.582" fill="white" transform="translate(0.050415 0.00976562)"/>
</clipPath>
</defs>
</svg>
