<svg width="27" height="20" viewBox="0 0 27 20" fill="none" xmlns="http://www.w3.org/2000/svg">
<g clip-path="url(#clip0_2207_21790)">
<path d="M0.0693359 18.795C0.0693359 19.3106 0.50293 19.7325 1.00684 19.7325H25.3115C25.8271 19.7325 26.2607 19.3106 26.2607 18.795C26.2607 18.2793 25.8271 17.8457 25.3115 17.8457H3.292L19.4404 1.69727C19.8037 1.33399 19.8037 0.72461 19.4404 0.361328C19.0771 -0.00195301 18.4795 -0.00195301 18.1045 0.361328L0.338867 18.127C0.186524 18.291 0.0693359 18.5371 0.0693359 18.795ZM13.7334 18.7598H15.6201C15.6201 14.752 13.9912 11.1192 11.3662 8.48243L10.0186 9.80665C12.3154 12.1036 13.7334 15.2676 13.7334 18.7598Z" fill="black" fill-opacity="0.85"/>
</g>
<defs>
<clipPath id="clip0_2207_21790">
<rect width="26.1914" height="19.7227" fill="white" transform="translate(0.0693359 0.00976562)"/>
</clipPath>
</defs>
</svg>
