<svg width="20" height="29" viewBox="0 0 20 29" fill="none" xmlns="http://www.w3.org/2000/svg">
<g clip-path="url(#clip0_2207_18141)">
<path d="M9.83366 28.0059C13.1501 28.0059 16.0446 24.4434 16.0446 20.6114C16.0446 18.1387 14.6384 17.0606 12.5407 16.5684V16.4512C13.9352 15.7715 14.1579 13.3692 12.904 12.5254V12.4082C14.9079 12.0567 15.904 10.8379 15.904 9.05665C15.904 5.72852 13.1618 2.97461 9.83366 2.97461C6.51726 2.97461 3.76335 5.72852 3.76335 9.05665C3.76335 10.8379 4.77116 12.0567 6.77507 12.4082V12.5254C5.52116 13.3692 5.74382 15.7715 7.13835 16.4512V16.5684C5.06413 17.0606 3.63444 18.1387 3.63444 20.6114C3.63444 24.4434 6.52897 28.0059 9.83366 28.0059ZM9.83366 26.0489C7.4196 26.0489 5.5446 23.2129 5.5446 20.8575C5.5446 19.2871 6.45866 18.3379 8.21647 18.3379H11.4626C13.2204 18.3379 14.1227 19.2871 14.1227 20.8575C14.1227 23.2129 12.2595 26.0489 9.83366 26.0489ZM7.71257 14.2129C7.71257 13.1348 8.36882 12.5137 9.50554 12.5137C9.72819 12.5137 9.96257 12.5137 10.1852 12.5137C11.3102 12.5137 11.9548 13.1348 11.9548 14.2129C11.9548 15.5371 11.0524 16.6621 9.97429 16.6621C9.88054 16.6621 9.78679 16.6621 9.70476 16.6621C8.62663 16.6621 7.71257 15.5371 7.71257 14.2129ZM7.72429 10.6856C6.43522 10.6856 5.69694 10.0645 5.69694 8.98633C5.69694 6.80665 7.63054 4.91993 9.83366 4.91993C12.0368 4.91993 13.9821 6.80665 13.9821 8.98633C13.9821 10.0645 13.2321 10.6856 11.9548 10.6856H7.72429ZM2.00554 27.291C2.55632 27.291 2.96647 26.8926 2.86101 26.2246L2.00554 20.6114C1.88835 19.9082 2.13444 19.5918 2.94304 19.3692L7.13835 18.2442V16.5684L1.95866 17.7989C0.446942 18.1621 -0.103839 18.9004 0.118818 20.2715L1.07976 26.3536C1.16179 26.9395 1.43132 27.291 2.00554 27.291ZM17.6735 27.291C18.2477 27.291 18.5055 26.9395 18.5993 26.3536L19.5602 20.2715C19.7829 18.9004 19.2204 18.1621 17.7204 17.7989L12.5407 16.5684V18.2442L16.736 19.3692C17.5446 19.5918 17.779 19.9082 17.6735 20.6114L16.818 26.2246C16.7126 26.8926 17.1227 27.291 17.6735 27.291ZM6.96257 15.3145V13.5567L3.52897 13.0645C2.75554 12.9473 2.32194 12.6895 2.32194 11.8575V8.16602C2.32194 7.60352 1.99382 7.26368 1.43132 7.26368C0.868817 7.26368 0.540692 7.5918 0.540692 8.16602V12.2207C0.540692 13.6621 1.19694 14.4825 2.66179 14.6817L6.96257 15.3145ZM12.7165 15.3145L17.0173 14.6817C18.4821 14.4825 19.1384 13.6621 19.1384 12.2207V8.16602C19.1384 7.5918 18.8102 7.26368 18.2477 7.26368C17.6852 7.26368 17.3571 7.60352 17.3571 8.16602V11.8575C17.3571 12.6895 16.9118 12.9473 16.1501 13.0645L12.7165 13.5567V15.3145ZM6.34147 5.85743L7.32585 4.61524L6.41179 3.95899C5.82585 3.53711 5.77897 2.97461 6.18913 2.30665L6.79851 1.38086C6.92741 1.14649 6.96257 1.0293 6.96257 0.81836C6.96257 0.361328 6.59929 0.00976562 6.11882 0.00976562C5.75554 0.00976562 5.49772 0.185547 5.27507 0.583985L4.58366 1.72071C3.84538 3.02149 4.05632 4.22852 5.19304 5.04883L6.34147 5.85743ZM13.361 5.86915L14.5329 5.04883C15.6696 4.22852 15.8805 3.02149 15.1423 1.72071L14.4509 0.583985C14.2282 0.185547 13.9704 0.00976562 13.6071 0.00976562C13.1149 0.00976562 12.7634 0.361328 12.7634 0.81836C12.7634 1.0293 12.7985 1.14649 12.9274 1.38086L13.5368 2.30665C13.947 2.97461 13.9001 3.53711 13.3141 3.95899L12.3766 4.62696L13.361 5.86915Z" fill="black" fill-opacity="0.85"/>
</g>
<defs>
<clipPath id="clip0_2207_18141">
<rect width="19.5359" height="28.4648" fill="white" transform="translate(0.0712891 0.00976562)"/>
</clipPath>
</defs>
</svg>
