<svg width="24" height="24" viewBox="0 0 24 24" fill="none" xmlns="http://www.w3.org/2000/svg">
<g clip-path="url(#clip0_2207_18149)">
<path d="M12.0266 23.916C18.5657 23.916 23.9797 18.4903 23.9797 11.9629C23.9797 5.42383 18.554 0.00976562 12.0149 0.00976562C5.48755 0.00976562 0.0734863 5.42383 0.0734863 11.9629C0.0734863 18.4903 5.49927 23.916 12.0266 23.916ZM12.0266 21.9239C6.49537 21.9239 2.0774 17.4942 2.0774 11.9629C2.0774 6.43165 6.48365 2.00196 12.0149 2.00196C17.5462 2.00196 21.9876 6.43165 21.9876 11.9629C21.9876 17.4942 17.5579 21.9239 12.0266 21.9239Z" fill="black" fill-opacity="0.85"/>
<path d="M6.72972 15.1036L7.23363 18.3965C7.29222 18.7364 7.45628 18.9356 7.77269 18.9356C8.08909 18.9356 8.32347 18.7012 8.26488 18.3145L7.80785 15.2793C7.74925 14.916 7.86644 14.7637 8.28831 14.6465C8.44066 14.5996 8.593 14.5645 8.75706 14.5176C8.67503 14.7403 8.63988 14.9864 8.63988 15.291C8.63988 17.3653 10.2102 19.3223 12.0266 19.3223C13.843 19.3223 15.4133 17.3653 15.4133 15.291C15.4133 14.9864 15.3782 14.7403 15.2962 14.5176C15.4485 14.5645 15.6008 14.5996 15.7649 14.6465C16.1868 14.7637 16.2923 14.916 16.2454 15.2793L15.7766 18.3145C15.718 18.7012 15.9524 18.9356 16.2805 18.9356C16.5969 18.9356 16.761 18.7364 16.8079 18.3965L17.3235 15.1036C17.4524 14.3536 17.136 13.9434 16.3157 13.7325L13.5501 13.0762C13.7493 12.9942 13.9954 12.7246 14.1008 12.3614L15.929 12.1036C16.7258 11.9864 17.1008 11.541 17.1008 10.7442V8.54102C17.1008 8.22461 16.9133 8.02539 16.5735 8.02539C16.2571 8.02539 16.0696 8.22461 16.0696 8.54102V10.545C16.0696 10.9786 15.8352 11.1075 15.4368 11.166L14.0774 11.3653C14.0188 11.1543 13.8899 10.9668 13.761 10.8614C14.804 10.6504 15.3313 10.0059 15.3313 9.02149C15.3313 8.22461 15.0501 7.48633 14.5579 6.91211L14.593 6.87696C15.2141 6.43165 15.343 5.75196 14.9212 5.03711L14.5579 4.42774C14.429 4.20508 14.2883 4.09961 14.0657 4.09961C13.7962 4.09961 13.5852 4.29883 13.5852 4.56836C13.5852 4.68555 13.6087 4.76758 13.679 4.88477L14.0071 5.37696C14.1829 5.68165 14.2532 5.93946 14.0188 6.12696L13.8665 6.25586C13.3157 5.9043 12.6243 5.69336 12.0266 5.69336C11.4173 5.69336 10.7258 5.9043 10.1751 6.25586L10.0227 6.12696C9.80003 5.93946 9.87035 5.68165 10.0461 5.37696L10.3626 4.88477C10.4446 4.76758 10.4563 4.68555 10.4563 4.56836C10.4563 4.29883 10.2571 4.09961 9.97581 4.09961C9.76488 4.09961 9.60081 4.19336 9.48363 4.42774L9.12035 5.03711C8.72191 5.76368 8.82738 6.43165 9.46019 6.87696L9.48363 6.91211C8.99144 7.48633 8.71019 8.22461 8.71019 9.02149C8.71019 9.99415 9.24925 10.6504 10.2923 10.8496C10.1633 10.9551 10.0227 11.1543 9.97581 11.3653L8.60472 11.166C8.218 11.1192 7.97191 10.9786 7.97191 10.545V8.54102C7.97191 8.22461 7.79613 8.02539 7.468 8.02539C7.13988 8.02539 6.95238 8.22461 6.95238 8.54102V10.7442C6.95238 11.541 7.31566 11.9864 8.12425 12.1036L9.95238 12.3614C10.0461 12.7246 10.2923 12.9825 10.5032 13.0762L7.73753 13.7325C6.91722 13.9317 6.60081 14.3536 6.72972 15.1036Z" fill="black" fill-opacity="0.85"/>
</g>
<defs>
<clipPath id="clip0_2207_18149">
<rect width="23.9062" height="23.918" fill="white" transform="translate(0.0734863 0.00976562)"/>
</clipPath>
</defs>
</svg>
