<svg width="20" height="29" viewBox="0 0 20 29" fill="none" xmlns="http://www.w3.org/2000/svg">
<g clip-path="url(#clip0_2207_18145)">
<path d="M9.84001 28.0059C13.1564 28.0059 16.0509 24.4434 16.0509 20.6114C16.0509 20.0137 15.9454 19.5098 15.7345 19.0996C16.0743 19.1934 16.4142 19.2754 16.7423 19.3692C17.5509 19.5918 17.7853 19.9082 17.6798 20.6114L16.8243 26.2246C16.7189 26.8926 17.129 27.291 17.6798 27.291C18.254 27.291 18.5118 26.9395 18.6056 26.3536L19.5665 20.2715C19.7892 18.9004 19.2267 18.1504 17.7267 17.7989L12.4415 16.5684L12.4298 16.4512C12.9337 16.2051 13.2736 15.7246 13.4259 15.1973L17.0236 14.6817C18.4884 14.4825 19.1447 13.6621 19.1447 12.2207V8.16602C19.1447 7.5918 18.8165 7.26368 18.254 7.26368C17.6915 7.26368 17.3634 7.60352 17.3634 8.16602V11.8575C17.3634 12.6895 16.9181 12.959 16.1564 13.0645L13.4728 13.4278C13.3439 13.0645 13.1095 12.7364 12.7931 12.5254V12.4082C14.797 12.0567 15.9103 10.8379 15.9103 9.05665C15.9103 7.55665 15.3478 6.18555 14.4337 5.13086L14.5392 5.04883C15.6759 4.22852 15.8868 3.02149 15.1486 1.72071L14.4572 0.583985C14.2345 0.185547 13.9767 0.00976562 13.6134 0.00976562C13.1212 0.00976562 12.7697 0.361328 12.7697 0.81836C12.7697 1.0293 12.8048 1.14649 12.9337 1.38086L13.5431 2.30665C13.9181 2.91602 13.9181 3.44336 13.4376 3.86524C13.3673 3.92383 13.3087 3.97071 13.2384 4.01758C12.2658 3.36133 11.0939 2.97461 9.84001 2.97461C8.60954 2.97461 7.44939 3.36133 6.48845 4.00586C6.41814 3.97071 6.34782 3.91211 6.28923 3.85352C5.82048 3.44336 5.80876 2.91602 6.19548 2.30665L6.80486 1.38086C6.93376 1.14649 6.96892 1.0293 6.96892 0.81836C6.96892 0.361328 6.60564 0.00976562 6.12517 0.00976562C5.76189 0.00976562 5.50407 0.185547 5.28142 0.583985L4.59001 1.72071C3.85173 3.02149 4.06267 4.22852 5.19939 5.04883L5.28142 5.10743C4.35564 6.16211 3.7697 7.54493 3.7697 9.05665C3.7697 10.8379 4.8947 12.0567 6.89861 12.4082V12.5254C6.57048 12.7364 6.34782 13.0645 6.21892 13.4278L3.53532 13.0645C2.76189 12.959 2.32829 12.6895 2.32829 11.8575V8.16602C2.32829 7.60352 2.00017 7.26368 1.43767 7.26368C0.875165 7.26368 0.54704 7.5918 0.54704 8.16602V12.2207C0.54704 13.6621 1.20329 14.4825 2.66814 14.6817L6.26579 15.1973C6.41814 15.7246 6.74626 16.2051 7.26189 16.4512V16.5684L1.96501 17.7989C0.45329 18.1504 -0.0974912 18.9004 0.125165 20.2715L1.08611 26.3536C1.16814 26.9395 1.43767 27.291 2.01189 27.291C2.56267 27.291 2.97282 26.8926 2.86736 26.2246L2.01189 20.6114C1.8947 19.9082 2.14079 19.5918 2.94939 19.3692C3.27751 19.2754 3.61736 19.1934 3.94548 19.0996C3.74626 19.5098 3.64079 20.0137 3.64079 20.6114C3.64079 24.4434 6.53532 28.0059 9.84001 28.0059Z" fill="black" fill-opacity="0.85"/>
</g>
<defs>
<clipPath id="clip0_2207_18145">
<rect width="19.5359" height="28.4648" fill="white" transform="translate(0.0776367 0.00976562)"/>
</clipPath>
</defs>
</svg>
