<svg width="22" height="22" viewBox="0 0 22 22" fill="none" xmlns="http://www.w3.org/2000/svg">
<g clip-path="url(#clip0_2207_6843)">
<path d="M0.683838 10.5464V11.8471H8.96899C8.27759 13.2651 6.02759 15.3745 4.39868 15.5503C3.80103 15.6089 3.46118 15.9839 3.46118 16.5581C3.46118 17.062 3.87134 17.5424 4.52759 17.4487C6.34399 17.1674 9.22681 15.0815 10.012 12.6557H10.094V21.0464H11.512V12.6557H11.6058C12.3792 15.0815 15.2737 17.1674 17.0784 17.4487C17.7463 17.5424 18.1565 17.062 18.1565 16.5581C18.1565 15.9839 17.8167 15.6089 17.2073 15.5503C15.5901 15.3745 13.3284 13.2651 12.6487 11.8471H20.9221V10.5464H15.4964C16.9846 9.87842 18.0159 8.67139 18.0159 7.19482C18.0159 5.47217 16.762 4.21826 15.0745 4.21826C13.6097 4.21826 12.2854 5.14404 11.512 6.65576V1.11279H10.094V6.65576C9.32056 5.14404 7.99634 4.21826 6.53149 4.21826C4.84399 4.21826 3.59009 5.47217 3.59009 7.19482C3.59009 8.67139 4.63306 9.87842 6.10962 10.5464H0.683838ZM9.53149 10.3471C7.2229 10.3471 5.24243 8.76514 5.24243 7.28857C5.24243 6.40967 5.78149 5.85889 6.62524 5.85889C8.35962 5.85889 9.88306 7.79248 9.88306 10.019V10.3471H9.53149ZM12.0745 10.3471H11.7229V10.019C11.7229 7.79248 13.2464 5.85889 14.9808 5.85889C15.8362 5.85889 16.3636 6.40967 16.3636 7.28857C16.3636 8.76514 14.3948 10.3471 12.0745 10.3471ZM20.2425 1.39404C19.0472 0.19873 17.3596 0.0112305 15.3558 0.0112305H6.22681C4.25806 0.0112305 2.57056 0.19873 1.37524 1.39404C0.179931 2.58935 0.00415039 4.26514 0.00415039 6.23389V15.3628C0.00415039 17.3667 0.179931 19.0424 1.37524 20.2378C2.57056 21.4331 4.25806 21.6206 6.25024 21.6206H15.3558C17.3596 21.6206 19.0472 21.4331 20.2425 20.2378C21.4377 19.0424 21.6136 17.3667 21.6136 15.3628V6.25732C21.6136 4.25342 21.4377 2.58935 20.2425 1.39404ZM19.7269 5.94092V15.6909C19.7269 16.8979 19.5744 18.1518 18.8596 18.855C18.1565 19.5698 16.8909 19.7339 15.6839 19.7339H5.93384C4.72681 19.7339 3.46118 19.5698 2.74634 18.855C2.04321 18.1518 1.89087 16.8979 1.89087 15.6909V5.97607C1.89087 4.73389 2.04321 3.47998 2.74634 2.76514C3.46118 2.06201 4.73853 1.89795 5.96899 1.89795H15.6839C16.8909 1.89795 18.1565 2.06201 18.8596 2.77685C19.5744 3.47998 19.7269 4.73389 19.7269 5.94092Z" fill="black" fill-opacity="0.85"/>
</g>
<defs>
<clipPath id="clip0_2207_6843">
<rect width="21.6094" height="21.6211" fill="white" transform="translate(0.00415039 0.0112305)"/>
</clipPath>
</defs>
</svg>
