<svg width="22" height="22" viewBox="0 0 22 22" fill="none" xmlns="http://www.w3.org/2000/svg">
<g clip-path="url(#clip0_2207_6744)">
<path d="M20.2405 1.39404C19.0452 0.19873 17.3577 0.0112305 15.3538 0.0112305H6.22486C4.25611 0.0112305 2.56861 0.19873 1.37329 1.39404C0.177978 2.58935 0.00219727 4.26514 0.00219727 6.23389V15.3628C0.00219727 17.3667 0.177978 19.0424 1.37329 20.2378C2.56861 21.4331 4.25611 21.6206 6.24829 21.6206H15.3538C17.3577 21.6206 19.0452 21.4331 20.2405 20.2378C21.4358 19.0424 21.6116 17.3667 21.6116 15.3628V6.25732C21.6116 4.25342 21.4358 2.58935 20.2405 1.39404Z" fill="black" fill-opacity="0.85"/>
</g>
<defs>
<clipPath id="clip0_2207_6744">
<rect width="21.6094" height="21.6211" fill="white" transform="translate(0.00219727 0.0112305)"/>
</clipPath>
</defs>
</svg>
