<svg width="22" height="22" viewBox="0 0 22 22" fill="none" xmlns="http://www.w3.org/2000/svg">
<g clip-path="url(#clip0_2207_6824)">
<path d="M1.37109 1.41748C0.222656 2.56592 0 4.15967 0 6.05811V6.17529H1.88672V5.98779C1.88672 4.75732 2.03906 3.4917 2.74219 2.78857C3.45703 2.07373 4.73438 1.92139 5.96484 1.92139H6.17578V0.034668H6.03516C4.13672 0.034668 2.53125 0.257324 1.37109 1.41748ZM7.78125 1.92139H13.8281V0.034668H7.78125V1.92139ZM20.2383 1.41748C19.0781 0.257324 17.4727 0.034668 15.5391 0.034668H15.4219V1.92139H15.6797C16.8867 1.92139 18.1523 2.08545 18.8555 2.78857C19.5703 3.50342 19.7227 4.74561 19.7227 5.95264V6.17529H21.6094V6.09326C21.6094 4.14795 21.3867 2.5542 20.2383 1.41748ZM19.7227 13.7924H21.6094V7.78076H19.7227V13.7924ZM20.2383 20.1557C21.3867 19.0073 21.6094 17.4253 21.6094 15.48V15.3979H19.7227V15.6089C19.7227 16.8276 19.5703 18.0698 18.8555 18.7846C18.1523 19.4878 16.8867 19.6518 15.6797 19.6518H15.4219V21.5385H15.5391C17.4727 21.5385 19.0781 21.3159 20.2383 20.1557ZM7.78125 21.5385H13.8281V19.6518H7.78125V21.5385ZM1.37109 20.1557C2.53125 21.3159 4.13672 21.5385 6.05859 21.5385H6.17578V19.6518H5.92969C4.72266 19.6518 3.45703 19.4878 2.74219 18.7846C2.03906 18.0698 1.88672 16.8276 1.88672 15.6089V15.3979H0V15.48C0 17.4253 0.222656 19.0073 1.37109 20.1557ZM0 13.7924H1.88672V7.78076H0V13.7924Z" fill="black" fill-opacity="0.85"/>
</g>
<defs>
<clipPath id="clip0_2207_6824">
<rect width="21.6094" height="21.5273" fill="white" transform="translate(0 0.0112305)"/>
</clipPath>
</defs>
</svg>
