<svg width="21" height="26" viewBox="0 0 21 26" fill="none" xmlns="http://www.w3.org/2000/svg">
<g clip-path="url(#clip0_2207_19754)">
<path d="M2.96973 8.09571C2.96973 10.4395 4.42286 12.0801 7.21192 12.8536L13.1064 14.5176C15.04 15.0684 16.0361 16.0645 16.0361 17.4707V18.291H17.9228V17.4707C17.9228 15.1387 16.4697 13.4981 13.6806 12.7246L7.78614 11.0606C5.86426 10.5215 4.85645 9.50196 4.85645 8.09571V7.28711H2.96973V8.09571Z" fill="black" fill-opacity="0.85"/>
<path d="M7.25879 0.525391C6.82519 0.0917968 6.21582 0.0214844 5.50097 0.0214844H2.33691C1.63379 0.0214844 1.02441 0.0917968 0.590821 0.525391C0.157227 0.958985 0.0986328 1.55665 0.0986328 2.25977V5.42383C0.0986328 6.13868 0.157227 6.74805 0.590821 7.16993C1.02441 7.60352 1.63379 7.67383 2.34863 7.67383H5.50097C6.21582 7.67383 6.82519 7.60352 7.25879 7.16993C7.68066 6.74805 7.75097 6.13868 7.75097 5.42383V2.27149C7.75097 1.55665 7.68066 0.958985 7.25879 0.525391ZM20.3017 18.3848C19.8681 17.9512 19.2588 17.8809 18.5439 17.8809H15.3798C14.6767 17.8809 14.0674 17.9512 13.6338 18.3848C13.2002 18.8184 13.1416 19.416 13.1416 20.1192V23.2832C13.1416 23.9981 13.2002 24.6075 13.6338 25.0293C14.0674 25.4629 14.6767 25.5215 15.3798 25.5215H18.5439C19.2588 25.5215 19.8681 25.4629 20.3017 25.0293C20.7236 24.6075 20.7822 23.9981 20.7822 23.2832V20.1192C20.7822 19.416 20.7236 18.8184 20.3017 18.3848Z" fill="black" fill-opacity="0.85"/>
</g>
<defs>
<clipPath id="clip0_2207_19754">
<rect width="20.6836" height="25.5117" fill="white" transform="translate(0.0986328 0.00976562)"/>
</clipPath>
</defs>
</svg>
