<svg width="31" height="27" viewBox="0 0 31 27" fill="none" xmlns="http://www.w3.org/2000/svg">
<g clip-path="url(#clip0_2207_1119)">
<path d="M3.69849 19.9214H19.7063C22.1555 19.9214 23.386 18.7026 23.386 16.2885V5.23779C23.386 2.82373 22.1555 1.60498 19.7063 1.60498H3.69849C1.24927 1.60498 0.0187988 2.82373 0.0187988 5.23779V16.2885C0.0187988 18.7143 1.24927 19.9214 3.69849 19.9214Z" fill="black" fill-opacity="0.85"/>
<path d="M9.48755 26.9526H25.4954C28.8235 26.9526 30.7805 25.019 30.7805 21.7143V10.6635C30.7805 7.35889 28.8235 5.43701 25.4954 5.43701H9.48755C6.14771 5.43701 4.21411 7.35889 4.21411 10.6635V21.7143C4.21411 25.0307 6.14771 26.9526 9.48755 26.9526Z" fill="white"/>
<path d="M9.48755 25.3471H25.4954C27.9446 25.3471 29.175 24.1284 29.175 21.7143V10.6635C29.175 8.24951 27.9446 7.03076 25.4954 7.03076H9.48755C7.03833 7.03076 5.80786 8.24951 5.80786 10.6635V21.7143C5.80786 24.1401 7.03833 25.3471 9.48755 25.3471Z" fill="black" fill-opacity="0.85"/>
<path d="M9.87427 14.765L12.3235 13.2885L9.87427 11.8003C9.04224 11.3081 9.75708 10.0659 10.6477 10.6284L13.6126 12.48C14.1633 12.8432 14.1985 13.7221 13.6126 14.0971L10.6477 15.9487C9.75708 16.5229 9.05396 15.2689 9.87427 14.765ZM14.2102 15.9018C14.2102 15.5385 14.5032 15.2456 14.8782 15.2456H18.7805C19.1672 15.2456 19.4602 15.5385 19.4602 15.9018C19.4602 16.2885 19.1672 16.6049 18.7805 16.6049H14.8782C14.5032 16.6049 14.2102 16.2885 14.2102 15.9018Z" fill="white"/>
</g>
<defs>
<clipPath id="clip0_2207_1119">
<rect width="30.7617" height="26.9414" fill="white" transform="translate(0.0187988 0.0112305)"/>
</clipPath>
</defs>
</svg>
