<svg width="13" height="26" viewBox="0 0 13 26" fill="none" xmlns="http://www.w3.org/2000/svg">
<g clip-path="url(#clip0_2207_14737)">
<path d="M3.11108 25.8979H9.1814C11.0447 25.8979 12.2283 24.7495 12.2283 22.98V2.9292C12.2283 1.15967 11.0447 0.0112305 9.1814 0.0112305H3.11108C1.23608 0.0112305 0.0524902 1.15967 0.0524902 2.9292V22.98C0.0524902 24.7495 1.23608 25.8979 3.11108 25.8979ZM3.3103 24.187C2.3728 24.187 1.78687 23.6245 1.78687 22.7339V3.18701C1.78687 2.28467 2.3728 1.72217 3.3103 1.72217H8.97046C9.90796 1.72217 10.4939 2.28467 10.4939 3.18701V22.7339C10.4939 23.6245 9.90796 24.187 8.97046 24.187H3.3103ZM4.2478 10.6401C5.00952 10.6401 5.6189 10.019 5.6189 9.26904C5.6189 8.51904 5.00952 7.89795 4.2478 7.89795C3.4978 7.89795 2.87671 8.51904 2.87671 9.26904C2.87671 10.019 3.4978 10.6401 4.2478 10.6401ZM8.0564 10.6401C8.8064 10.6401 9.42749 10.019 9.42749 9.26904C9.42749 8.51904 8.8064 7.89795 8.0564 7.89795C7.29468 7.89795 6.6853 8.51904 6.6853 9.26904C6.6853 10.019 7.29468 10.6401 8.0564 10.6401ZM4.2478 14.355C5.00952 14.355 5.6189 13.7339 5.6189 12.9839C5.6189 12.2221 5.00952 11.6128 4.2478 11.6128C3.4978 11.6128 2.87671 12.2221 2.87671 12.9839C2.87671 13.7339 3.4978 14.355 4.2478 14.355ZM4.2478 18.0581C5.00952 18.0581 5.6189 17.4487 5.6189 16.687C5.6189 15.937 5.00952 15.3159 4.2478 15.3159C3.4978 15.3159 2.87671 15.937 2.87671 16.687C2.87671 17.4487 3.4978 18.0581 4.2478 18.0581ZM8.04468 18.0581C8.77124 18.0581 9.3689 17.4839 9.3689 16.7456V12.9135C9.3689 12.187 8.77124 11.6128 8.04468 11.6128C7.32983 11.6128 6.75561 12.187 6.75561 12.9135V16.7456C6.75561 17.4839 7.32983 18.0581 8.04468 18.0581Z" fill="black" fill-opacity="0.85"/>
</g>
<defs>
<clipPath id="clip0_2207_14737">
<rect width="12.1758" height="25.957" fill="white" transform="translate(0.0524902 0.0112305)"/>
</clipPath>
</defs>
</svg>
