<svg width="13" height="26" viewBox="0 0 13 26" fill="none" xmlns="http://www.w3.org/2000/svg">
<g clip-path="url(#clip0_2207_14721)">
<path d="M0.0440674 23.3667C0.0440674 24.9135 1.07532 25.8979 2.71595 25.8979H10.005C11.6457 25.8979 12.6769 24.9135 12.6769 23.3667V2.54248C12.6769 1.00732 11.6457 0.0112305 10.005 0.0112305H2.71595C1.07532 0.0112305 0.0440674 1.00732 0.0440674 2.54248V23.3667ZM1.77845 23.1206V2.78857C1.77845 2.13232 2.21204 1.72217 2.91516 1.72217H9.80579C10.5207 1.72217 10.9425 2.13232 10.9425 2.78857V23.1206C10.9425 23.7768 10.5207 24.187 9.80579 24.187H2.91516C2.21204 24.187 1.77845 23.7768 1.77845 23.1206ZM6.37219 11.226C8.41126 11.226 10.0636 9.56201 10.0636 7.53467C10.0636 5.49561 8.41126 3.83154 6.37219 3.83154C4.33313 3.83154 2.66907 5.49561 2.66907 7.53467C2.66907 9.56201 4.33313 11.226 6.37219 11.226ZM6.37219 9.02295C5.54016 9.02295 4.87219 8.35498 4.87219 7.53467C4.87219 6.70264 5.54016 6.03467 6.37219 6.03467C7.20423 6.03467 7.86048 6.70264 7.86048 7.53467C7.86048 8.35498 7.20423 9.02295 6.37219 9.02295ZM6.37219 15.2221C7.12219 15.2221 7.73157 14.6128 7.73157 13.8628C7.73157 13.101 7.12219 12.4917 6.37219 12.4917C5.61048 12.4917 4.98938 13.101 4.98938 13.8628C4.98938 14.6128 5.61048 15.2221 6.37219 15.2221Z" fill="black" fill-opacity="0.85"/>
</g>
<defs>
<clipPath id="clip0_2207_14721">
<rect width="12.6328" height="25.957" fill="white" transform="translate(0.0440674 0.0112305)"/>
</clipPath>
</defs>
</svg>
