<svg width="38" height="26" viewBox="0 0 38 26" fill="none" xmlns="http://www.w3.org/2000/svg">
<g clip-path="url(#clip0_2207_14122)">
<path d="M4.59058 20.5776C4.96558 20.1557 4.84839 19.605 4.42652 19.1245C2.8562 17.3784 1.9773 15.0815 1.9773 12.562C1.9773 10.0424 2.8562 7.74562 4.42652 5.99952C4.84839 5.51905 4.96558 4.96827 4.59058 4.5464C4.21558 4.10108 3.55933 4.1128 3.11402 4.60499C1.1687 6.71436 0.0671387 9.52686 0.0671387 12.562C0.0671387 15.5971 1.1687 18.3979 3.11402 20.519C3.55933 21.0112 4.21558 21.0112 4.59058 20.5776ZM33.0202 20.5776C33.3952 21.0112 34.0515 21.0112 34.5085 20.519C36.4538 18.3979 37.5437 15.5971 37.5437 12.562C37.5437 9.52686 36.4538 6.71436 34.5085 4.60499C34.0515 4.1128 33.3952 4.10108 33.0202 4.5464C32.6452 4.96827 32.7624 5.51905 33.1843 5.99952C34.7546 7.74562 35.6335 10.0424 35.6335 12.562C35.6335 15.0815 34.7546 17.3784 33.1843 19.1245C32.7624 19.605 32.6452 20.1557 33.0202 20.5776Z" fill="black" fill-opacity="0.85"/>
<path d="M7.87183 17.2377C8.24683 16.8158 8.09448 16.2884 7.71948 15.7845C7.01636 14.9056 6.67652 13.7806 6.67652 12.5619C6.67652 11.3431 7.01636 10.2064 7.71948 9.33927C8.09448 8.83537 8.24683 8.30803 7.87183 7.88615C7.48511 7.44084 6.78198 7.44084 6.37183 7.96818C5.3523 9.23381 4.76636 10.8392 4.76636 12.5619C4.76636 14.2845 5.3523 15.89 6.37183 17.1556C6.78198 17.683 7.48511 17.6713 7.87183 17.2377ZM29.739 17.2377C30.1257 17.6713 30.8288 17.683 31.239 17.1556C32.2585 15.89 32.8562 14.2845 32.8562 12.5619C32.8562 10.8392 32.2585 9.23381 31.239 7.96818C30.8288 7.44084 30.1257 7.44084 29.739 7.88615C29.364 8.30803 29.528 8.83537 29.8913 9.33927C30.5944 10.2064 30.946 11.3431 30.946 12.5619C30.946 13.7806 30.5944 14.9056 29.8913 15.7845C29.528 16.2884 29.364 16.8158 29.739 17.2377Z" fill="black" fill-opacity="0.85"/>
<path d="M10.5671 17.3198C10.5671 19.1362 11.2819 20.4721 12.6179 21.1987C13.2507 21.5385 13.6257 21.9721 13.8718 22.7573L14.2468 24.0112C14.4577 24.7612 14.9851 25.1245 15.7702 25.1245H21.1843C22.0046 25.1245 22.4851 24.7729 22.7194 24.0112L23.0944 22.7573C23.3405 21.9721 23.7038 21.5385 24.3483 21.1987C25.6726 20.4721 26.3874 19.1362 26.3874 17.3198V7.83935C26.3874 6.02295 25.6726 4.69873 24.3483 3.96045C23.7038 3.62061 23.3405 3.18701 23.0944 2.41357L22.7194 1.14795C22.5085 0.409668 21.9929 0.034668 21.1843 0.034668H15.7702C14.9851 0.034668 14.4577 0.397949 14.2468 1.14795L13.8718 2.41357C13.6374 3.17529 13.2624 3.63232 12.6179 3.96045C11.2937 4.66357 10.5671 5.99951 10.5671 7.83935V17.3198ZM12.278 17.0737V8.09717C12.278 6.35107 13.2976 5.29639 15.0085 5.29639H21.9577C23.6569 5.29639 24.6765 6.35107 24.6765 8.09717V17.0737C24.6765 18.8081 23.6569 19.8628 21.9577 19.8628H15.0085C13.2976 19.8628 12.278 18.8081 12.278 17.0737ZM26.1296 11.7534H26.5632C27.1609 11.7534 27.5593 11.3432 27.5593 10.6753V9.09326C27.5593 8.42529 27.1609 8.01514 26.5632 8.01514H26.1296V11.7534Z" fill="black" fill-opacity="0.85"/>
</g>
<defs>
<clipPath id="clip0_2207_14122">
<rect width="37.4766" height="25.1133" fill="white" transform="translate(0.0671387 0.0112305)"/>
</clipPath>
</defs>
</svg>
