<svg width="23" height="26" viewBox="0 0 23 26" fill="none" xmlns="http://www.w3.org/2000/svg">
<g clip-path="url(#clip0_2207_14116)">
<path d="M5.21924 17.2964C5.21924 19.1128 5.93408 20.4487 7.2583 21.1753C7.90283 21.5151 8.27783 21.9487 8.51221 22.7339L8.88721 23.9878C9.10987 24.7378 9.63721 25.101 10.4224 25.101H15.8364C16.645 25.101 17.1372 24.7495 17.3599 23.9878L17.7466 22.7339C17.981 21.9487 18.356 21.5151 19.0005 21.1753C20.3247 20.4487 21.0396 19.1128 21.0396 17.2964V7.81592C21.0396 5.99951 20.3247 4.67529 19.0005 3.93701C18.356 3.59717 17.981 3.16357 17.7466 2.39014L17.3599 1.12451C17.1607 0.386231 16.6333 0.0112305 15.8364 0.0112305H10.4224C9.63721 0.0112305 9.10987 0.374512 8.88721 1.12451L8.51221 2.39014C8.28955 3.15185 7.91455 3.60889 7.2583 3.93701C5.9458 4.64014 5.21924 5.97607 5.21924 7.81592V17.2964ZM6.93018 17.0503V8.07373C6.93018 6.32764 7.94971 5.27295 9.66065 5.27295H16.5982C18.3091 5.27295 19.3286 6.32764 19.3286 8.07373V17.0503C19.3286 18.7846 18.3091 19.8393 16.5982 19.8393H9.66065C7.94971 19.8393 6.93018 18.7846 6.93018 17.0503ZM20.7818 11.73H21.2036C21.813 11.73 22.2114 11.3198 22.2114 10.6518V9.06982C22.2114 8.40185 21.813 7.9917 21.2036 7.9917H20.7818V11.73Z" fill="black" fill-opacity="0.85"/>
<path d="M2.51221 14.9761H12.3911C13.7974 14.9761 14.8403 13.8511 14.8403 12.5386C14.8403 11.2261 13.7974 10.1011 12.3911 10.1011H2.51221C1.10596 10.1011 0.0629883 11.2261 0.0629883 12.5386C0.0629883 13.8511 1.10596 14.9761 2.51221 14.9761Z" fill="white"/>
<path d="M2.51221 13.3706H10.0942L12.3325 13.2534L9.77783 15.5503L9.20361 16.1245C9.05127 16.2885 8.95752 16.5112 8.95752 16.7573C8.95752 17.226 9.29737 17.5542 9.7544 17.5542C10.0005 17.5542 10.2114 17.4721 10.3755 17.3081L14.5357 13.1596C14.7349 12.9604 14.8403 12.7378 14.8403 12.5385C14.8403 12.3393 14.7349 12.0932 14.5357 11.9057L10.3755 7.76904C10.2114 7.60498 10.0005 7.51123 9.7544 7.51123C9.29737 7.51123 8.95752 7.83935 8.95752 8.31982C8.95752 8.56592 9.05127 8.78857 9.20361 8.95264L9.77783 9.52685L12.3325 11.812L10.0942 11.6948H2.51221C1.98487 11.6948 1.65674 12.105 1.65674 12.5385C1.65674 12.9721 1.98487 13.3706 2.51221 13.3706Z" fill="black" fill-opacity="0.85"/>
</g>
<defs>
<clipPath id="clip0_2207_14116">
<rect width="22.1484" height="25.0898" fill="white" transform="translate(0.0629883 0.0112305)"/>
</clipPath>
</defs>
</svg>
