<svg width="12" height="26" viewBox="0 0 12 26" fill="none" xmlns="http://www.w3.org/2000/svg">
<g clip-path="url(#clip0_2207_14725)">
<path d="M0.0461426 23.3667C0.0461426 24.9135 1.07739 25.8979 2.71802 25.8979H8.99926C10.6399 25.8979 11.6711 24.9135 11.6711 23.3667V2.54248C11.6711 1.00732 10.6399 0.0112305 8.99926 0.0112305H2.71802C1.07739 0.0112305 0.0461426 1.00732 0.0461426 2.54248V23.3667ZM5.87036 16.1362C5.02661 16.1362 4.35864 15.4682 4.35864 14.6479C4.35864 13.8042 5.02661 13.1479 5.87036 13.1479C6.69067 13.1479 7.35864 13.8042 7.35864 14.6479C7.35864 15.4682 6.69067 16.1362 5.87036 16.1362ZM5.87036 11.519C3.67895 11.519 1.88598 9.72607 1.88598 7.53467C1.88598 5.34326 3.67895 3.55029 5.87036 3.55029C8.06176 3.55029 9.84302 5.34326 9.84302 7.53467C9.84302 9.72607 8.06176 11.519 5.87036 11.519ZM5.87036 9.14014C6.76098 9.14014 7.47583 8.42529 7.47583 7.53467C7.47583 6.64404 6.76098 5.91748 5.87036 5.91748C4.97973 5.91748 4.25317 6.64404 4.25317 7.53467C4.25317 8.42529 4.97973 9.14014 5.87036 9.14014Z" fill="black" fill-opacity="0.85"/>
</g>
<defs>
<clipPath id="clip0_2207_14725">
<rect width="11.625" height="25.957" fill="white" transform="translate(0.0461426 0.0112305)"/>
</clipPath>
</defs>
</svg>
