<svg width="12" height="24" viewBox="0 0 12 24" fill="none" xmlns="http://www.w3.org/2000/svg">
<g clip-path="url(#clip0_2207_14047)">
<path d="M0.983673 23.1674C1.4993 23.1674 1.89774 22.8042 1.92117 22.2182L2.21414 16.5229L3.63211 10.5112L2.4368 11.4487H9.25711L8.0618 10.5112L9.49149 16.5229L9.77274 22.2182C9.80789 22.8042 10.1946 23.1674 10.722 23.1674C11.2376 23.1674 11.6946 22.7807 11.6595 22.1479L11.39 16.4292C11.3782 16.2768 11.3665 16.1596 11.3196 16.019L9.81961 10.1596C9.7493 9.8667 9.50321 9.6792 9.21024 9.6792H2.48367C2.19071 9.6792 1.95633 9.8667 1.8743 10.1596L0.374298 16.019C0.327423 16.1596 0.315704 16.2768 0.315704 16.4292L0.0344544 22.1479C0.0110168 22.7807 0.456329 23.1674 0.983673 23.1674Z" fill="black" fill-opacity="0.85"/>
<path d="M2.3548 8.07373H9.2923L6.84308 0.784668C6.67902 0.29248 6.35089 0.0112305 5.84699 0.0112305C5.31964 0.0112305 4.94464 0.29248 4.78058 0.784668L2.3548 8.07373Z" fill="black" fill-opacity="0.85"/>
</g>
<defs>
<clipPath id="clip0_2207_14047">
<rect width="11.6278" height="23.168" fill="white" transform="translate(0.0335693 0.0112305)"/>
</clipPath>
</defs>
</svg>
