<svg width="11" height="26" viewBox="0 0 11 26" fill="none" xmlns="http://www.w3.org/2000/svg">
<g clip-path="url(#clip0_2207_14749)">
<path d="M2.81275 25.8979H7.67603C9.4104 25.8979 10.4182 24.8784 10.4182 23.144V2.76514C10.4182 1.03076 9.4104 0.0112305 7.67603 0.0112305H2.81275C1.06665 0.0112305 0.0588379 1.03076 0.0588379 2.76514V23.144C0.0588379 24.8784 1.06665 25.8979 2.81275 25.8979ZM5.23853 9.40967C3.2229 9.40967 1.594 7.79248 1.594 5.76514C1.594 3.74951 3.2229 2.13232 5.23853 2.13232C7.26587 2.13232 8.89478 3.74951 8.89478 5.76514C8.89478 7.79248 7.26587 9.40967 5.23853 9.40967ZM3.43384 12.9956C2.70728 12.9956 2.12134 12.4096 2.12134 11.6714C2.12134 10.9448 2.69556 10.3589 3.43384 10.3589C4.17212 10.3589 4.76978 10.9448 4.76978 11.6714C4.76978 12.4096 4.1604 12.9956 3.43384 12.9956ZM7.06665 12.9956C6.31665 12.9956 5.719 12.4096 5.719 11.6714C5.719 10.9448 6.31665 10.3589 7.06665 10.3589C7.79322 10.3589 8.36743 10.9448 8.36743 11.6714C8.36743 12.3979 7.7815 12.9956 7.06665 12.9956ZM3.43384 16.476C2.70728 16.476 2.12134 15.8901 2.12134 15.1635C2.12134 14.437 2.70728 13.8393 3.43384 13.8393C4.17212 13.8393 4.76978 14.4253 4.76978 15.1635C4.76978 15.9018 4.17212 16.476 3.43384 16.476ZM3.43384 19.9682C2.70728 19.9682 2.12134 19.3823 2.12134 18.6557C2.12134 17.9174 2.70728 17.3081 3.43384 17.3081C4.1604 17.3081 4.76978 17.9174 4.76978 18.6557C4.76978 19.394 4.17212 19.9682 3.43384 19.9682ZM7.04322 19.9682C6.36353 19.9682 5.80103 19.4057 5.80103 18.7378V15.0815C5.80103 14.3901 6.35181 13.8393 7.04322 13.8393C7.73462 13.8393 8.30884 14.4018 8.30884 15.0815V18.7378C8.30884 19.4174 7.73462 19.9682 7.04322 19.9682Z" fill="black" fill-opacity="0.85"/>
</g>
<defs>
<clipPath id="clip0_2207_14749">
<rect width="10.3594" height="25.9102" fill="white" transform="translate(0.0588379 0.0112305)"/>
</clipPath>
</defs>
</svg>
