<svg width="19" height="29" viewBox="0 0 19 29" fill="none" xmlns="http://www.w3.org/2000/svg">
<g clip-path="url(#clip0_2207_10540)">
<path d="M17.3464 19.98C19.2331 18.0815 19.1159 15.855 16.9597 13.7104L12.7995 9.53857L6.7644 15.5971C5.97925 16.3706 4.83081 15.726 5.15893 14.6714C5.323 14.2143 5.34643 13.7221 5.34643 13.2182C5.34643 11.3198 4.10425 10.3471 2.76831 10.3471C0.975342 10.3354 0.0378418 11.4839 0.0378418 12.7846C0.0378418 13.7104 0.518311 14.5893 1.16284 15.2221L8.8269 22.8862C9.78784 23.8471 10.444 24.7378 10.444 26.0971C10.444 26.4018 10.4089 26.7065 10.2448 27.0464C10.6198 26.73 10.9362 26.4253 11.2409 26.1206L17.3464 19.98ZM6.23706 28.8276C7.67846 28.8276 8.81518 27.7026 8.81518 26.2964C8.81518 25.4174 8.42846 24.726 7.50268 23.7885L6.0144 22.2885C4.58472 23.2846 3.48315 24.3862 3.48315 26.1792C3.48315 27.726 4.64331 28.8276 6.23706 28.8276ZM2.76831 8.7417C5.03003 8.7417 6.65893 10.3237 6.65893 12.3628C6.65893 12.4096 6.65893 12.5151 6.64722 12.5854C6.6355 12.9956 7.06909 13.0424 7.24487 12.8667L14.0183 6.09326C14.7097 5.40185 15.0847 4.53467 15.0964 3.60889C15.0964 1.44092 13.4323 0.0112305 11.6394 0.0112305C10.2448 0.0112305 9.21362 0.655761 8.12378 1.74561L0.483154 9.37451C1.17456 8.97607 1.948 8.7417 2.76831 8.7417Z" fill="black" fill-opacity="0.85"/>
</g>
<defs>
<clipPath id="clip0_2207_10540">
<rect width="18.6372" height="28.8398" fill="white" transform="translate(0.0378418 0.0112305)"/>
</clipPath>
</defs>
</svg>
