<svg width="13" height="25" viewBox="0 0 13 25" fill="none" xmlns="http://www.w3.org/2000/svg">
<g clip-path="url(#clip0_2207_14056)">
<path d="M2.23999 18.562H10.3024C11.1228 18.562 11.8962 18.8198 12.5173 19.2768V3.05811C12.5173 1.19482 11.2868 0.0112305 9.32984 0.0112305H3.21265C1.25562 0.0112305 0.0251465 1.19482 0.0251465 3.05811V19.2768C0.64624 18.8198 1.41968 18.562 2.23999 18.562ZM6.28296 5.41357C5.49781 5.41357 4.86499 4.78076 4.86499 4.00732C4.86499 3.22217 5.49781 2.58935 6.28296 2.58935C7.0564 2.58935 7.70093 3.22217 7.70093 4.00732C7.70093 4.78076 7.0564 5.41357 6.28296 5.41357ZM2.23999 24.5854H10.3024C11.5212 24.5854 12.5173 23.5893 12.5173 22.3706C12.5173 21.1518 11.5212 20.1557 10.3024 20.1557H2.23999C1.02124 20.1557 0.0251465 21.1518 0.0251465 22.3706C0.0251465 23.5893 1.02124 24.5854 2.23999 24.5854Z" fill="black" fill-opacity="0.85"/>
</g>
<defs>
<clipPath id="clip0_2207_14056">
<rect width="12.4922" height="24.6445" fill="white" transform="translate(0.0251465 0.0112305)"/>
</clipPath>
</defs>
</svg>
