<svg width="24" height="24" viewBox="0 0 24 24" fill="none" xmlns="http://www.w3.org/2000/svg">
<g clip-path="url(#clip0_2207_14675)">
<path d="M6.28808 23.3432H17.1865C19.1904 23.3432 20.8779 23.1557 22.0732 21.9604C23.2686 20.7651 23.4443 19.0893 23.4443 17.0854V6.28076C23.4443 4.27685 23.2686 2.61279 22.0732 1.41748C20.8779 0.222168 19.1904 0.034668 17.1865 0.034668H6.26465C4.2959 0.034668 2.6084 0.222168 1.41308 1.41748C0.217773 2.61279 0.0419922 4.28857 0.0419922 6.25732V17.0854C0.0419922 19.0893 0.217773 20.7651 1.41308 21.9604C2.6084 23.1557 4.2959 23.3432 6.28808 23.3432Z" fill="black" fill-opacity="0.85"/>
<path d="M6.31152 9.04639C6.28808 8.13232 7.01465 7.26514 7.9873 7.21826C8.05761 8.08545 7.2959 9.15185 6.31152 9.04639ZM9.65137 13.23C9.47558 13.851 9.05371 14.5776 8.53808 15.105C8.37402 15.2456 8.13965 15.3628 7.83496 15.3628C7.55371 15.3628 7.38965 15.2573 7.14355 15.1753C6.99121 15.1284 6.76855 15.0229 6.51074 15.0229C5.91308 15.0229 5.64355 15.3862 5.15137 15.3862C4.82324 15.3862 4.55371 15.1753 4.17871 14.7768C3.4873 14.0034 3.03027 12.7729 3.03027 11.7182C3.03027 11.0737 3.19433 10.4643 3.60449 9.96045C3.94433 9.51514 4.45996 9.25732 5.10449 9.25732C5.69043 9.25732 6.04199 9.63232 6.3584 9.63232C6.7334 9.63232 7.15527 9.24561 7.89355 9.24561C8.5498 9.24561 9.10058 9.50342 9.45215 10.0307C8.9834 10.3003 8.80761 10.6401 8.71387 10.9214C8.56152 11.3315 8.53808 11.812 8.71387 12.2924C8.88965 12.726 9.18261 13.019 9.65137 13.23ZM12.9561 7.81592V9.24561H14.1162V10.2065H12.9561V13.5698C12.9561 14.1206 13.1904 14.3315 13.6826 14.3315C13.8115 14.3315 14.0342 14.3315 14.0928 14.2964V15.3159C13.9873 15.3276 13.6826 15.3628 13.4131 15.3628C12.1826 15.3628 11.7022 14.9292 11.7022 13.7104V10.2065H10.835V9.24561H11.7022V7.81592H12.9561ZM18.2178 15.3159H16.9053L14.6787 9.24561H16.0029L17.5732 14.1206L19.0498 9.24561H20.4092L18.2178 15.3159Z" fill="white"/>
</g>
<defs>
<clipPath id="clip0_2207_14675">
<rect width="23.4023" height="23.332" fill="white" transform="translate(0.0419922 0.0112305)"/>
</clipPath>
</defs>
</svg>
