<svg width="23" height="25" viewBox="0 0 23 25" fill="none" xmlns="http://www.w3.org/2000/svg">
<g clip-path="url(#clip0_2207_14134)">
<path d="M11.6591 24.6206C17.8584 24.6206 22.874 19.1128 22.874 12.3159C22.874 5.51904 17.8584 0.0112305 11.6591 0.0112305C8.33106 0.0112305 5.30762 1.60498 3.24512 4.19482C3.03418 4.45264 2.95215 4.69873 2.95215 4.93311C2.95215 5.43701 3.40918 5.78857 3.90137 5.78857C4.18262 5.78857 4.47559 5.67139 4.68653 5.40185C6.39746 3.22217 8.92872 1.89795 11.6591 1.89795C16.8037 1.89795 20.9755 6.56201 20.9755 12.3159C20.9755 18.0698 16.8037 22.7339 11.6591 22.7339C8.92872 22.7339 6.39746 21.3979 4.68653 19.23C4.47559 18.9604 4.18262 18.8432 3.90137 18.8432C3.40918 18.8432 2.95215 19.1948 2.95215 19.6987C2.95215 19.9214 3.03418 20.1792 3.24512 20.437C5.30762 23.0268 8.33106 24.6206 11.6591 24.6206Z" fill="black" fill-opacity="0.85"/>
<path d="M0.0693359 18.3159C0.0693359 19.8042 1.25293 20.976 2.65918 21.0464C2.28418 20.5776 2.09668 20.1323 2.09668 19.7221C2.09668 18.7495 2.99903 17.9878 3.93653 17.9878C4.67481 17.9878 5.04981 18.3628 5.542 18.9604C5.58887 18.7495 5.61231 18.5385 5.61231 18.3159V6.3042C5.61231 6.08154 5.58887 5.88232 5.542 5.67139C5.07325 6.23389 4.69825 6.63232 3.94825 6.63232C2.99903 6.63232 2.09668 5.88232 2.09668 4.90967C2.09668 4.49951 2.28418 4.06592 2.65918 3.58545C1.26465 3.65576 0.0693359 4.81592 0.0693359 6.3042V18.3159ZM2.8584 12.1635C1.81543 12.1635 0.959961 11.3198 0.959961 10.2885C0.959961 9.24561 1.81543 8.40185 2.8584 8.40185C3.86622 8.40185 4.72168 9.25732 4.72168 10.2885C4.72168 11.3198 3.87793 12.1635 2.8584 12.1635ZM2.8584 11.2378C3.38575 11.2378 3.7959 10.8276 3.7959 10.2885C3.7959 9.74951 3.38575 9.32764 2.8584 9.32764C2.2959 9.32764 1.88575 9.74951 1.88575 10.2885C1.88575 10.8276 2.2959 11.2378 2.8584 11.2378Z" fill="black" fill-opacity="0.85"/>
</g>
<defs>
<clipPath id="clip0_2207_14134">
<rect width="22.8047" height="24.6211" fill="white" transform="translate(0.0693359 0.0112305)"/>
</clipPath>
</defs>
</svg>
