<svg width="25" height="28" viewBox="0 0 25 28" fill="none" xmlns="http://www.w3.org/2000/svg">
<g id="aqi.low" clip-path="url(#clip0_2124_12912)">
<g id="Group">
<path id="Vector" d="M12.1523 1.91016C12.6914 1.91016 13.1016 1.51172 13.1016 0.960938C13.1016 0.421875 12.6797 0 12.1523 0C11.625 0 11.1914 0.433594 11.1914 0.960938C11.1914 1.48828 11.6133 1.91016 12.1523 1.91016ZM6.55078 5.14453C7.10156 5.14453 7.51172 4.73438 7.51172 4.18359C7.51172 3.64453 7.08984 3.22266 6.55078 3.22266C6.03516 3.22266 5.58984 3.66797 5.58984 4.18359C5.58984 4.72266 6.01172 5.14453 6.55078 5.14453ZM17.7422 5.14453C18.293 5.14453 18.7031 4.73438 18.7031 4.18359C18.7031 3.64453 18.2812 3.22266 17.7422 3.22266C17.2266 3.22266 16.7812 3.66797 16.7812 4.18359C16.7812 4.72266 17.2031 5.14453 17.7422 5.14453ZM0.960938 8.41406C1.5 8.41406 1.91016 8.00391 1.91016 7.45312C1.91016 6.92578 1.48828 6.50391 0.960938 6.50391C0.433594 6.50391 0 6.9375 0 7.45312C0 7.99219 0.421875 8.41406 0.960938 8.41406ZM23.2969 8.41406C23.8477 8.41406 24.2461 8.00391 24.2461 7.45312C24.2461 6.91406 23.8359 6.50391 23.2969 6.50391C22.7695 6.50391 22.3359 6.9375 22.3359 7.45312C22.3359 7.99219 22.7578 8.41406 23.2969 8.41406ZM0.960938 14.9062C1.5 14.9062 1.91016 14.5078 1.91016 13.957C1.91016 13.418 1.48828 12.9961 0.960938 12.9961C0.433594 12.9961 0 13.4297 0 13.957C0 14.4844 0.421875 14.9062 0.960938 14.9062ZM23.2969 14.9062C23.8477 14.9062 24.2461 14.5078 24.2461 13.957C24.2461 13.418 23.8359 12.9961 23.2969 12.9961C22.7695 12.9961 22.3359 13.4414 22.3359 13.957C22.3359 14.4844 22.7578 14.9062 23.2969 14.9062ZM0.960938 21.4102C1.5 21.4102 1.91016 21 1.91016 20.4492C1.91016 19.9219 1.48828 19.5 0.960938 19.5C0.433594 19.5 0 19.9336 0 20.4492C0 20.9883 0.421875 21.4102 0.960938 21.4102ZM23.2969 21.4102C23.8477 21.4102 24.2461 21.0117 24.2461 20.4492C24.2461 19.9219 23.8242 19.5 23.2969 19.5C22.7695 19.5 22.3359 19.9336 22.3359 20.4492C22.3359 20.9883 22.7578 21.4102 23.2969 21.4102ZM6.55078 24.6797C7.10156 24.6797 7.51172 24.2812 7.51172 23.7305C7.51172 23.1914 7.08984 22.7695 6.55078 22.7695C6.03516 22.7695 5.58984 23.2031 5.58984 23.7305C5.58984 24.2578 6.01172 24.6797 6.55078 24.6797ZM17.7422 24.6797C18.293 24.6797 18.7031 24.2812 18.7031 23.7305C18.7031 23.1914 18.2812 22.7695 17.7422 22.7695C17.2266 22.7695 16.7812 23.2031 16.7812 23.7305C16.7812 24.2578 17.2031 24.6797 17.7422 24.6797ZM12.1523 27.9141C12.6914 27.9141 13.1016 27.5039 13.1016 26.9531C13.1016 26.4141 12.6797 25.9922 12.1523 25.9922C11.625 25.9922 11.1914 26.4375 11.1914 26.9531C11.1914 27.4922 11.6133 27.9141 12.1523 27.9141Z" fill="black" fill-opacity="0.85"/>
<path id="Vector_2" d="M12.1523 8.41406C12.6914 8.41406 13.1016 8.00391 13.1016 7.45312C13.1016 6.92578 12.6797 6.50391 12.1523 6.50391C11.625 6.50391 11.1914 6.9375 11.1914 7.45312C11.1914 7.99219 11.6133 8.41406 12.1523 8.41406ZM6.55078 11.6602C7.10156 11.6602 7.51172 11.25 7.51172 10.6992C7.51172 10.1602 7.08984 9.73828 6.55078 9.73828C6.03516 9.73828 5.58984 10.1719 5.58984 10.6992C5.58984 11.2383 6.01172 11.6602 6.55078 11.6602ZM17.7422 11.6602C18.293 11.6602 18.7031 11.25 18.7031 10.6992C18.7031 10.1602 18.2812 9.73828 17.7422 9.73828C17.2266 9.73828 16.7812 10.1719 16.7812 10.6992C16.7812 11.2383 17.2031 11.6602 17.7422 11.6602ZM6.55078 18.1641C7.10156 18.1641 7.51172 17.7656 7.51172 17.2148C7.51172 16.6758 7.08984 16.2539 6.55078 16.2539C6.03516 16.2539 5.58984 16.6875 5.58984 17.2148C5.58984 17.7539 6.01172 18.1641 6.55078 18.1641ZM17.7422 18.1641C18.293 18.1641 18.7031 17.7656 18.7031 17.2148C18.7031 16.6758 18.2812 16.2539 17.7422 16.2539C17.2266 16.2539 16.7812 16.6875 16.7812 17.2148C16.7812 17.7539 17.2031 18.1641 17.7422 18.1641ZM12.1523 21.4102C12.6914 21.4102 13.1016 21 13.1016 20.4492C13.1016 19.9219 12.6797 19.5 12.1523 19.5C11.625 19.5 11.1914 19.9336 11.1914 20.4492C11.1914 20.9883 11.6133 21.4102 12.1523 21.4102Z" fill="black" fill-opacity="0.85"/>
<path id="Vector_3" d="M12.1523 14.9062C12.6914 14.9062 13.1016 14.5078 13.1016 13.957C13.1016 13.418 12.6797 12.9961 12.1523 12.9961C11.625 12.9961 11.1914 13.4297 11.1914 13.957C11.1914 14.4844 11.6133 14.9062 12.1523 14.9062Z" fill="black" fill-opacity="0.85"/>
</g>
</g>
<defs>
<clipPath id="clip0_2124_12912">
<rect width="24.2461" height="27.9258" fill="white"/>
</clipPath>
</defs>
</svg>
