<svg width="32" height="32" viewBox="0 0 32 32" fill="none" xmlns="http://www.w3.org/2000/svg">
<g id="aqi.high" clip-path="url(#clip0_2124_12924)">
<g id="Group">
<path id="Vector" d="M12.7266 4.23047C13.5938 4.23047 14.2734 3.5625 14.2734 2.69531C14.2734 1.83984 13.582 1.14844 12.7266 1.14844C11.8945 1.14844 11.1914 1.85156 11.1914 2.69531C11.1914 3.55078 11.8711 4.23047 12.7266 4.23047ZM7.13672 7.46484C8.00391 7.46484 8.67188 6.78516 8.67188 5.91797C8.67188 5.0625 7.99219 4.38281 7.13672 4.38281C6.29297 4.38281 5.58984 5.07422 5.58984 5.91797C5.58984 6.77344 6.28125 7.46484 7.13672 7.46484ZM18.3281 7.46484C19.1953 7.46484 19.8633 6.78516 19.8633 5.91797C19.8633 5.0625 19.1836 4.38281 18.3281 4.38281C17.4844 4.38281 16.7812 5.07422 16.7812 5.91797C16.7812 6.77344 17.4727 7.46484 18.3281 7.46484ZM1.53516 10.7344C2.40234 10.7344 3.08203 10.0547 3.08203 9.1875C3.08203 8.33203 2.39062 7.65234 1.53516 7.65234C0.691406 7.65234 0 8.34375 0 9.1875C0 10.043 0.679688 10.7344 1.53516 10.7344ZM23.8711 10.7344C24.75 10.7344 25.418 10.0547 25.418 9.1875C25.418 8.33203 24.7383 7.65234 23.8711 7.65234C23.0391 7.65234 22.3359 8.35547 22.3359 9.1875C22.3359 10.043 23.0273 10.7344 23.8711 10.7344ZM1.53516 17.2266C2.40234 17.2266 3.08203 16.5586 3.08203 15.6914C3.08203 14.8359 2.39062 14.1562 1.53516 14.1562C0.691406 14.1562 0 14.8477 0 15.6914C0 16.5469 0.679688 17.2266 1.53516 17.2266ZM23.918 17.2266C24.7734 17.2266 25.4648 16.5469 25.4648 15.6914C25.4648 14.8477 24.7617 14.1562 23.918 14.1562C23.0625 14.1562 22.3828 14.8359 22.3828 15.6914C22.3828 16.5586 23.0508 17.2266 23.918 17.2266ZM1.53516 23.7305C2.40234 23.7305 3.08203 23.0625 3.08203 22.1836C3.08203 21.3398 2.39062 20.6484 1.53516 20.6484C0.703125 20.6484 0 21.3516 0 22.1836C0 23.0508 0.679688 23.7305 1.53516 23.7305ZM23.918 23.7305C24.7734 23.7305 25.4648 23.0508 25.4648 22.1836C25.4648 21.3516 24.7617 20.6484 23.918 20.6484C23.0625 20.6484 22.3828 21.3398 22.3828 22.1836C22.3828 23.0625 23.0508 23.7305 23.918 23.7305ZM7.13672 27C8.00391 27 8.67188 26.332 8.67188 25.4648C8.67188 24.6094 7.99219 23.918 7.13672 23.918C6.29297 23.918 5.58984 24.6211 5.58984 25.4648C5.58984 26.3203 6.28125 27 7.13672 27ZM18.3281 27C19.1836 27 19.8633 26.3203 19.8633 25.4648C19.8633 24.6211 19.1602 23.918 18.3281 23.918C17.4727 23.918 16.7812 24.6094 16.7812 25.4648C16.7812 26.332 17.4609 27 18.3281 27ZM12.7266 30.2227C13.5938 30.2227 14.2734 29.5547 14.2734 28.6875C14.2734 27.832 13.582 27.1523 12.7266 27.1523C11.8828 27.1523 11.1914 27.8438 11.1914 28.6875C11.1914 29.543 11.8711 30.2227 12.7266 30.2227Z" fill="black" fill-opacity="0.85"/>
<path id="Vector_2" d="M12.7266 11.168C13.8281 11.168 14.6953 10.2891 14.6953 9.1875C14.6953 8.10938 13.8164 7.21875 12.7266 7.21875C11.6602 7.21875 10.7578 8.12109 10.7578 9.1875C10.7578 10.2773 11.6484 11.168 12.7266 11.168ZM7.13672 14.4023C8.23828 14.4023 9.10547 13.5352 9.10547 12.4336C9.10547 11.3438 8.21484 10.4648 7.13672 10.4648C6.07031 10.4648 5.16797 11.3672 5.16797 12.4336C5.16797 13.5234 6.04688 14.4023 7.13672 14.4023ZM18.3281 14.4023C19.4297 14.4023 20.2969 13.5352 20.2969 12.4336C20.2969 11.3438 19.4062 10.4648 18.3281 10.4648C17.2617 10.4648 16.3594 11.3672 16.3594 12.4336C16.3594 13.5234 17.2383 14.4023 18.3281 14.4023ZM7.13672 20.918C8.22656 20.918 9.10547 20.0508 9.10547 18.9492C9.10547 17.8594 8.21484 16.9688 7.13672 16.9688C6.05859 16.9688 5.16797 17.8711 5.16797 18.9492C5.16797 20.0273 6.04688 20.918 7.13672 20.918ZM18.3281 20.918C19.4062 20.918 20.2969 20.0273 20.2969 18.9492C20.2969 17.8711 19.3945 16.9688 18.3281 16.9688C17.2383 16.9688 16.3594 17.8594 16.3594 18.9492C16.3594 20.0508 17.2266 20.918 18.3281 20.918ZM12.7266 24.1641C13.8281 24.1641 14.6953 23.2852 14.6953 22.1836C14.6953 21.1055 13.8047 20.2148 12.7266 20.2148C11.6602 20.2148 10.7578 21.1172 10.7578 22.1836C10.7578 23.2734 11.6484 24.1641 12.7266 24.1641Z" fill="black" fill-opacity="0.85"/>
<path id="Vector_3" d="M12.7266 17.9414C13.9805 17.9414 14.9883 16.9453 14.9883 15.6914C14.9883 14.4492 13.9688 13.4414 12.7266 13.4414C11.5078 13.4414 10.4766 14.4609 10.4766 15.6914C10.4766 16.9336 11.4844 17.9414 12.7266 17.9414Z" fill="black" fill-opacity="0.85"/>
<path id="Vector_4" d="M18.6328 31.3945H28.7812C30.6328 31.3945 31.9688 29.9883 31.9688 28.2188C31.9688 27.6914 31.8164 27.1289 31.5352 26.6484L26.4727 17.5781C25.875 16.5352 24.8086 15.9609 23.7188 15.9609C22.5938 15.9609 21.5156 16.5469 20.9414 17.5898L15.8789 26.6602C15.6094 27.1289 15.457 27.6914 15.457 28.2188C15.457 29.9883 16.7812 31.3945 18.6328 31.3945Z" fill="white"/>
<path id="Vector_5" d="M18.6328 29.7891H28.7812C29.7539 29.7891 30.375 29.1094 30.375 28.2188C30.375 27.9492 30.293 27.6914 30.1523 27.4336L25.0664 18.3633C24.7617 17.8242 24.2344 17.5664 23.7188 17.5664C23.1797 17.5664 22.6406 17.8242 22.3477 18.3633L17.2734 27.4453C17.1211 27.6914 17.0508 27.9492 17.0508 28.2188C17.0508 29.1094 17.6602 29.7891 18.6328 29.7891Z" fill="black" fill-opacity="0.85"/>
<path id="Vector_6" d="M23.707 28.0078C23.168 28.0078 22.7227 27.5625 22.7227 27.0117C22.7227 26.4727 23.1797 26.0273 23.707 26.0273C24.2578 26.0273 24.7031 26.4844 24.7031 27.0117C24.7031 27.5625 24.2578 28.0078 23.707 28.0078ZM23.7188 25.207C23.3086 25.207 23.0156 24.9258 23.0039 24.5273L22.9102 21.1875C22.8984 20.707 23.2266 20.3789 23.7188 20.3789C24.1992 20.3789 24.5273 20.707 24.5156 21.1875L24.4219 24.5273C24.4102 24.9258 24.1289 25.207 23.7188 25.207Z" fill="white"/>
</g>
</g>
<defs>
<clipPath id="clip0_2124_12924">
<rect width="31.9688" height="31.3945" fill="white"/>
</clipPath>
</defs>
</svg>
