<svg width="34" height="22" viewBox="0 0 34 22" fill="none" xmlns="http://www.w3.org/2000/svg">
<g clip-path="url(#clip0_2207_20279)">
<path d="M4.8683 21.0947H28.341C31.7863 21.0947 33.5792 18.8799 33.1339 15.2002L31.8683 4.64161C31.5167 1.65332 29.7941 0.0126953 27.0636 0.0126953H6.14565C3.41518 0.0126953 1.69252 1.65332 1.34096 4.64161L0.0753363 15.2002C-0.369976 18.8799 1.42299 21.0947 4.8683 21.0947ZM4.8683 19.208C2.74721 19.208 1.65737 17.6846 1.97377 15.0479L3.20424 4.86426C3.43862 2.95411 4.46987 1.89942 6.14565 1.89942H27.0636C28.7394 1.89942 29.7706 2.95411 29.9933 4.86426L31.2238 15.0479C31.5519 17.6963 30.4621 19.208 28.341 19.208H4.8683Z" fill="black" fill-opacity="0.85"/>
<path d="M8.89956 13.8643C9.33316 13.8643 9.69644 13.6533 9.69644 13.3604V10.0557C10.9269 9.72754 11.841 8.57911 11.841 7.23145C11.841 5.61426 10.5167 4.29004 8.89956 4.29004C7.27066 4.29004 5.95816 5.62598 5.95816 7.23145C5.95816 8.59082 6.87222 9.72754 8.11441 10.0791V13.3604C8.11441 13.6533 8.46597 13.8643 8.89956 13.8643ZM8.89956 16.3486C11.2785 16.3486 12.9425 15.0713 12.9425 13.2666C12.9425 12.001 12.1222 11.0049 10.8331 10.5127V12.0479C11.2667 12.3408 11.5246 12.7627 11.5246 13.2666C11.5246 14.333 10.4464 15.083 8.89956 15.083C7.35269 15.083 6.26285 14.333 6.26285 13.2666C6.26285 12.751 6.53238 12.3291 6.97769 12.0361V10.5127C5.66519 10.9932 4.84488 12.001 4.84488 13.2666C4.84488 15.0713 6.52066 16.3486 8.89956 16.3486ZM15.7433 9.80958C16.6925 9.80958 17.4542 9.04786 17.4542 8.11036C17.4542 7.16114 16.6925 6.39942 15.7433 6.39942C14.8058 6.39942 14.0441 7.16114 14.0441 8.11036C14.0441 9.04786 14.8058 9.80958 15.7433 9.80958ZM20.7003 9.80958C21.6378 9.80958 22.4113 9.04786 22.4113 8.11036C22.4113 7.16114 21.6378 6.39942 20.7003 6.39942C19.7511 6.39942 18.9894 7.16114 18.9894 8.11036C18.9894 9.04786 19.7511 9.80958 20.7003 9.80958ZM25.6339 9.80958C26.5714 9.80958 27.3449 9.04786 27.3449 8.11036C27.3449 7.16114 26.5714 6.39942 25.6339 6.39942C24.6964 6.39942 23.923 7.16114 23.923 8.11036C23.923 9.04786 24.6964 9.80958 25.6339 9.80958ZM17.3956 14.7432C18.3331 14.7432 19.0949 13.9815 19.0949 13.0439C19.0949 12.0947 18.3331 11.333 17.3956 11.333C16.4464 11.333 15.6847 12.0947 15.6847 13.0439C15.6847 13.9815 16.4464 14.7432 17.3956 14.7432ZM22.341 14.7432C23.2902 14.7432 24.0519 13.9815 24.0519 13.0439C24.0519 12.0947 23.2902 11.333 22.341 11.333C21.4035 11.333 20.6417 12.0947 20.6417 13.0439C20.6417 13.9815 21.4035 14.7432 22.341 14.7432ZM27.2863 14.7432C28.2355 14.7432 28.9972 13.9815 28.9972 13.0439C28.9972 12.0947 28.2355 11.333 27.2863 11.333C26.3488 11.333 25.5871 12.0947 25.5871 13.0439C25.5871 13.9815 26.3488 14.7432 27.2863 14.7432Z" fill="black" fill-opacity="0.85"/>
</g>
<defs>
<clipPath id="clip0_2207_20279">
<rect width="33.1927" height="21.082" fill="white" transform="translate(0.00830078 0.0126953)"/>
</clipPath>
</defs>
</svg>
