<svg width="23" height="25" viewBox="0 0 23 25" fill="none" xmlns="http://www.w3.org/2000/svg">
<g clip-path="url(#clip0_2207_20322)">
<path d="M6.83618 24.6689C10.6683 24.6689 13.6448 22.1494 13.6448 18.915C13.6448 15.6689 10.6683 13.1494 6.83618 13.1494C2.98071 13.1494 0.00415039 15.6689 0.00415039 18.915C0.00415039 22.1494 2.98071 24.6689 6.83618 24.6689ZM6.83618 22.7822C4.04712 22.7822 1.89087 21.0947 1.89087 18.915C1.89087 16.7236 4.04712 15.0361 6.83618 15.0361C9.62524 15.0361 11.758 16.7236 11.758 18.915C11.758 21.0947 9.62524 22.7822 6.83618 22.7822Z" fill="black" fill-opacity="0.85"/>
<path d="M6.78931 21.4111C8.27759 21.4111 9.49634 20.4971 9.49634 19.1963V5.73145H4.09399V19.1963C4.09399 20.4971 5.32446 21.4111 6.78931 21.4111Z" fill="white"/>
<path d="M6.78931 20.04C7.52759 20.04 8.13696 19.6885 8.13696 19.1963V7.10254H5.46509V19.1963C5.46509 19.6885 6.05103 20.04 6.78931 20.04ZM6.78931 10.0791C9.56665 10.0791 11.8049 7.81739 11.8049 5.02832C11.8049 2.2627 9.54321 0.0126953 6.78931 0.0126953C4.01196 0.0126953 1.73853 2.28614 1.73853 5.02832C1.73853 7.84082 4.01196 10.0791 6.78931 10.0791Z" fill="black" fill-opacity="0.85"/>
<path d="M19.6096 10.501C20.1135 10.501 20.5236 10.1025 20.5236 9.58693V6.32912H22.0705C22.9143 6.32912 23.1603 5.52052 22.6916 4.89943L20.2189 1.6299C19.8908 1.20802 19.3049 1.1963 18.9768 1.6299L16.5158 4.89943C16.0236 5.54396 16.3166 6.32912 17.1252 6.32912H18.6955V9.58693C18.6955 10.1025 19.0939 10.501 19.6096 10.501Z" fill="black" fill-opacity="0.85"/>
</g>
<defs>
<clipPath id="clip0_2207_20322">
<rect width="22.9223" height="24.668" fill="white" transform="translate(0.00415039 0.0126953)"/>
</clipPath>
</defs>
</svg>
