<svg width="14" height="25" viewBox="0 0 14 25" fill="none" xmlns="http://www.w3.org/2000/svg">
<g clip-path="url(#clip0_2207_20288)">
<path d="M6.92651 24.6674C10.7586 24.6674 13.7351 22.1479 13.7351 18.9135C13.7351 15.6674 10.7586 13.1479 6.92651 13.1479C3.07104 13.1479 0.0944824 15.6674 0.0944824 18.9135C0.0944824 22.1479 3.07104 24.6674 6.92651 24.6674ZM6.92651 22.7808C4.13745 22.7808 1.9812 21.0932 1.9812 18.9135C1.9812 16.7221 4.13745 15.0346 6.92651 15.0346C9.71557 15.0346 11.8484 16.7221 11.8484 18.9135C11.8484 21.0932 9.71557 22.7808 6.92651 22.7808Z" fill="black" fill-opacity="0.85"/>
<path d="M6.87965 21.4096C8.36793 21.4096 9.58668 20.4956 9.58668 19.1948V5.72998H4.18433V19.1948C4.18433 20.4956 5.4148 21.4096 6.87965 21.4096Z" fill="white"/>
<path d="M6.87964 20.0385C7.61792 20.0385 8.22729 19.687 8.22729 19.1948V7.10107H5.55542V19.1948C5.55542 19.687 6.14136 20.0385 6.87964 20.0385ZM6.87964 10.0776C9.65698 10.0776 11.8953 7.81592 11.8953 5.02685C11.8953 2.26123 9.63354 0.0112305 6.87964 0.0112305C4.10229 0.0112305 1.82886 2.28467 1.82886 5.02685C1.82886 7.83935 4.10229 10.0776 6.87964 10.0776Z" fill="black" fill-opacity="0.85"/>
</g>
<defs>
<clipPath id="clip0_2207_20288">
<rect width="13.6406" height="24.668" fill="white" transform="translate(0.0944824 0.0112305)"/>
</clipPath>
</defs>
</svg>
