<svg width="24" height="24" viewBox="0 0 24 24" fill="none" xmlns="http://www.w3.org/2000/svg">
<g clip-path="url(#clip0_2207_741)">
<path d="M11.9699 23.9307C18.509 23.9307 23.923 18.5166 23.923 11.9775C23.923 5.4502 18.4973 0.0244141 11.9582 0.0244141C5.43091 0.0244141 0.0168457 5.4502 0.0168457 11.9775C0.0168457 18.5166 5.44263 23.9307 11.9699 23.9307Z" fill="black" fill-opacity="0.85"/>
<path d="M8.44263 18.0947C7.17701 18.0947 6.49732 17.4502 6.49732 16.1611V10.1025H17.4426V16.1611C17.4426 17.4502 16.7629 18.0947 15.4973 18.0947H8.44263ZM9.84888 12.4229H14.091C14.3723 12.4229 14.5598 12.2471 14.5598 11.9658V11.7549C14.5598 11.4736 14.3723 11.2979 14.091 11.2979H9.84888C9.57935 11.2979 9.38013 11.4736 9.38013 11.7549V11.9658C9.38013 12.2471 9.57935 12.4229 9.84888 12.4229ZM6.62623 9.12988C5.89966 9.12988 5.53638 8.69628 5.53638 7.98144V7.3955C5.53638 6.66894 5.94654 6.24707 6.62623 6.24707H17.3137C18.052 6.24707 18.4152 6.66894 18.4152 7.3955V7.98144C18.4152 8.69628 18.052 9.12988 17.3137 9.12988H6.62623Z" fill="white"/>
</g>
<defs>
<clipPath id="clip0_2207_741">
<rect width="23.9062" height="23.918" fill="white" transform="translate(0.0168457 0.0126953)"/>
</clipPath>
</defs>
</svg>
