<svg width="30" height="23" viewBox="0 0 30 23" fill="none" xmlns="http://www.w3.org/2000/svg">
<g clip-path="url(#clip0_2207_8788)">
<path d="M23.2338 20.3799C26.7729 20.3799 29.5385 17.79 29.5385 14.5674C29.5385 12.1065 28.1206 9.97364 25.8354 9.0127C25.8588 3.78614 22.0971 0.0126953 17.3042 0.0126953C14.1284 0.0126953 11.8667 1.71192 10.4604 3.7627C7.57764 2.91895 4.43702 5.11036 4.37842 8.39161C1.72998 8.81348 0.0776367 11.1807 0.0776367 14.04C0.0776367 17.4854 3.08936 20.3799 7.09717 20.3799H23.2338ZM23.2338 18.4932H7.09717C4.14405 18.4932 1.96436 16.4307 1.96436 14.04C1.96436 11.6963 3.38233 9.833 5.8667 9.833C6.03076 9.833 6.08936 9.75098 6.08936 9.59864C6.08936 5.98926 8.69092 4.92286 11.0932 5.70801C11.2338 5.75489 11.3159 5.71973 11.3862 5.59082C12.5229 3.56348 14.269 1.89942 17.3042 1.89942C21.1479 1.89942 23.8081 4.94629 24.0073 8.42675C24.0424 8.96581 24.0073 9.59863 23.9604 10.1494C23.9487 10.3018 24.0073 10.3838 24.1479 10.4189C26.2807 10.8877 27.6518 12.4463 27.6518 14.5674C27.6518 16.7471 25.7299 18.4932 23.2338 18.4932Z" fill="black" fill-opacity="0.85"/>
<path d="M15.0543 16.4073C17.6793 16.4073 19.7769 14.298 19.7769 11.6378C19.7769 9.28234 18.0074 7.39562 15.9097 7.05578V5.84875C15.9097 5.34484 15.3472 5.15734 14.9722 5.47375L12.7925 7.32531C12.441 7.61828 12.4293 8.08703 12.7925 8.40343L14.9722 10.2784C15.3472 10.6183 15.9097 10.419 15.9097 9.91515V8.53234C17.2925 8.90734 18.3238 10.1612 18.3238 11.673C18.3238 13.4894 16.8707 14.9542 15.0543 14.9542C13.2496 14.9542 11.7965 13.4894 11.7965 11.673C11.7965 11.2862 11.4683 10.9581 11.0699 10.9581C10.6715 10.9581 10.3433 11.2862 10.3433 11.673C10.3433 14.298 12.441 16.4073 15.0543 16.4073Z" fill="black" fill-opacity="0.85"/>
</g>
<defs>
<clipPath id="clip0_2207_8788">
<rect width="29.4609" height="22.2773" fill="white" transform="translate(0.0776367 0.0126953)"/>
</clipPath>
</defs>
</svg>
