<svg width="32" height="22" viewBox="0 0 32 22" fill="none" xmlns="http://www.w3.org/2000/svg">
<g clip-path="url(#clip0_2207_1513)">
<path d="M10.2974 21.8311C10.8247 21.8311 11.1411 21.5733 11.2583 21.1045C12.5239 17.1905 14.5395 15.8077 17.8677 15.8077L18.2895 15.8194V20.2959C18.2895 21.0811 18.8638 21.667 19.6606 21.667C20.2349 21.667 20.7036 21.4327 21.2661 20.9053L30.5239 12.1748C30.9692 11.753 31.1099 11.3077 31.1099 10.9209C31.1099 10.5225 30.9692 10.0772 30.5239 9.65527L21.2661 1.00684C20.645 0.420899 20.2583 0.163086 19.6841 0.163086C18.8638 0.163086 18.2895 0.819336 18.2895 1.60449V6.03418H17.9497C14.27 6.03418 11.0708 8.21387 10.3442 12.5967H10.2153C9.40674 7.74512 6.07861 6.03418 2.92627 6.03418C2.86768 6.03418 2.68018 6.03418 2.27002 6.03418C0.652832 6.03418 0.00830078 6.64355 0.00830078 8.38965V13.9913C0.00830078 15.3155 0.641113 15.878 2.16455 15.878C2.51611 15.878 2.83252 15.878 3.1958 15.878C6.39502 15.878 8.50439 18.0108 9.34814 21.0928C9.45361 21.5733 9.7583 21.8311 10.2974 21.8311Z" fill="black" fill-opacity="0.85"/>
</g>
<defs>
<clipPath id="clip0_2207_1513">
<rect width="31.1016" height="21.8086" fill="white" transform="translate(0.00830078 0.0224609)"/>
</clipPath>
</defs>
</svg>
