<svg width="32" height="22" viewBox="0 0 32 22" fill="none" xmlns="http://www.w3.org/2000/svg">
<g clip-path="url(#clip0_2207_1509)">
<path d="M10.2954 21.8311C10.8227 21.8311 11.1391 21.5733 11.2563 21.1045C12.5219 17.1905 14.5375 15.8077 17.8657 15.8077L18.2875 15.8194V20.2959C18.2875 21.0811 18.8618 21.667 19.6586 21.667C20.2329 21.667 20.7016 21.4327 21.2641 20.9053L30.5219 12.1748C30.9672 11.753 31.1079 11.3077 31.1079 10.9209C31.1079 10.5225 30.9672 10.0772 30.5219 9.65527L21.2641 1.00684C20.643 0.420899 20.2563 0.163086 19.6821 0.163086C18.8618 0.163086 18.2875 0.819336 18.2875 1.60449V6.03418H17.9477C14.268 6.03418 11.0688 8.21387 10.3422 12.5967H10.2133C9.40479 7.74512 6.07666 6.03418 2.92432 6.03418C2.86573 6.03418 2.67823 6.03418 2.26807 6.03418C0.650879 6.03418 0.00634766 6.64355 0.00634766 8.38965V13.9913C0.00634766 15.3155 0.63916 15.878 2.1626 15.878C2.51416 15.878 2.83057 15.878 3.19385 15.878C6.39307 15.878 8.50244 18.0108 9.34619 21.0928C9.45166 21.5733 9.75635 21.8311 10.2954 21.8311ZM9.67432 18.4678C8.36182 15.1397 5.98291 14.0616 3.05323 14.0381C2.81885 14.0381 2.57276 14.0381 2.3501 14.0381C2.05713 14.0381 1.89307 13.8623 1.89307 13.5225V8.38965C1.89307 8.0498 2.05713 7.8623 2.37354 7.8623C2.60791 7.8623 2.79541 7.8623 3.02979 7.8623C6.56885 7.90918 9.58057 10.4053 9.80323 18.4678H9.67432ZM20.3383 19.1475C20.2329 19.1475 20.1743 19.0772 20.1743 18.9717V14.4366C20.1743 14.167 20.0454 14.0498 19.7758 14.0498L17.8071 14.0381C14.3852 14.0381 12.1235 15.4092 10.9282 18.4678H10.7993C10.9868 11.2959 13.6001 7.80371 18.0063 7.80371H19.7758C20.0454 7.80371 20.1743 7.68652 20.1743 7.41699V2.76465C20.1743 2.6709 20.2446 2.60058 20.3383 2.60058C20.4204 2.60058 20.479 2.64746 20.5375 2.69434L28.8813 10.6983C28.9751 10.7803 29.0102 10.8506 29.0102 10.9209C29.0102 10.9913 28.9751 11.0498 28.8813 11.1436L20.5375 19.042C20.4672 19.1123 20.3969 19.1475 20.3383 19.1475Z" fill="black" fill-opacity="0.85"/>
</g>
<defs>
<clipPath id="clip0_2207_1509">
<rect width="31.1016" height="21.8086" fill="white" transform="translate(0.00634766 0.0224609)"/>
</clipPath>
</defs>
</svg>
