<svg width="29" height="22" viewBox="0 0 29 22" fill="none" xmlns="http://www.w3.org/2000/svg">
<g clip-path="url(#clip0_2207_766)">
<path d="M7.96973 21.6159H20.2744C22.583 21.6159 23.6025 20.5377 23.9541 18.2409L25.8408 5.49085L23.9541 5.60803L22.0791 18.2174C21.9033 19.3776 21.2822 19.8463 20.251 19.8463H8.00488C6.9502 19.8463 6.34082 19.3776 6.17676 18.2174L4.30176 5.60803L2.41504 5.49085L4.30176 18.2409C4.6416 20.5494 5.67285 21.6159 7.96973 21.6159ZM2.29785 6.48694H25.958C27.3994 6.48694 28.1846 5.5846 28.1846 4.15491V2.37366C28.1846 0.943969 27.3994 0.041626 25.958 0.041626H2.29785C0.926758 0.041626 0.0712891 0.943969 0.0712891 2.37366V4.15491C0.0712891 5.5846 0.856445 6.48694 2.29785 6.48694ZM2.77832 4.71741C2.19238 4.71741 1.95801 4.47131 1.95801 3.88538V2.64319C1.95801 2.05725 2.19238 1.81116 2.77832 1.81116H25.4893C26.0752 1.81116 26.2979 2.05725 26.2979 2.64319V3.88538C26.2979 4.47131 26.0752 4.71741 25.4893 4.71741H2.77832Z" fill="black" fill-opacity="0.85"/>
<path d="M15.0596 16.858V12.6393L14.9775 10.7409L15.9736 11.7604L17.0049 12.8151C17.169 12.9791 17.3916 13.0729 17.626 13.0729C18.0947 13.0729 18.458 12.7448 18.458 12.276C18.458 12.0065 18.3408 11.8073 18.1533 11.6432L14.8135 8.56116C14.5674 8.3385 14.3916 8.25647 14.1572 8.25647C13.9346 8.25647 13.7471 8.3385 13.501 8.56116L10.1611 11.6432C9.97362 11.8073 9.86816 12.0065 9.86816 12.276C9.86816 12.7448 10.2197 13.0729 10.7002 13.0729C10.9111 13.0729 11.1572 12.9791 11.3213 12.8151L12.3408 11.7604L13.3369 10.7409L13.2666 12.6393V16.858C13.2666 17.3385 13.6768 17.737 14.1572 17.737C14.6377 17.737 15.0596 17.3385 15.0596 16.858Z" fill="black" fill-opacity="0.85"/>
</g>
<defs>
<clipPath id="clip0_2207_766">
<rect width="28.1133" height="21.5977" fill="white" transform="translate(0.0712891 0.0181885)"/>
</clipPath>
</defs>
</svg>
