<svg width="23" height="28" viewBox="0 0 23 28" fill="none" xmlns="http://www.w3.org/2000/svg">
<g clip-path="url(#clip0_2207_23756)">
<path d="M22.3538 21.4724C22.8225 21.0154 22.8108 20.3357 22.3538 19.8904L16.3186 13.9842C16.1077 13.7849 15.803 13.656 15.5335 13.656C14.9124 13.656 14.5022 14.0779 14.5022 14.6873C14.5022 14.992 14.596 15.2263 14.7952 15.4138L17.3264 17.8631L19.5061 19.7498L16.7991 19.6326H1.14282C0.533447 19.6326 0.0881348 20.0662 0.0881348 20.6756C0.0881348 21.2966 0.533447 21.7302 1.14282 21.7302H16.7991L19.5061 21.6131L17.3264 23.4998L14.7952 25.9373C14.596 26.1365 14.5022 26.3709 14.5022 26.6756C14.5022 27.2849 14.9124 27.7068 15.5335 27.7068C15.803 27.7068 16.1077 27.5779 16.3186 27.3787L22.3538 21.4724Z" fill="black" fill-opacity="0.85"/>
<path d="M0.439752 6.26147C-0.0407162 6.7185 -0.0172792 7.39819 0.439752 7.83179L6.4749 13.7381C6.68584 13.949 6.99053 14.0779 7.24834 14.0779C7.86943 14.0779 8.29132 13.6443 8.29132 13.0349C8.29132 12.742 8.18584 12.5076 7.98662 12.3084L5.46709 9.87085L3.2874 7.98413L5.99443 8.10132H21.6507C22.26 8.10132 22.6936 7.66772 22.6936 7.04663C22.6936 6.43726 22.26 6.00366 21.6507 6.00366H5.99443L3.2874 6.10913L5.46709 4.23413L7.98662 1.78491C8.18584 1.58569 8.29132 1.36304 8.29132 1.05835C8.29132 0.448975 7.86943 0.0270996 7.24834 0.0270996C6.99053 0.0270996 6.68584 0.144287 6.4749 0.355225L0.439752 6.26147Z" fill="black" fill-opacity="0.85"/>
</g>
<defs>
<clipPath id="clip0_2207_23756">
<rect width="22.6129" height="27.6914" fill="white" transform="translate(0.0881348 0.0153809)"/>
</clipPath>
</defs>
</svg>
