<svg width="26" height="22" viewBox="0 0 26 22" fill="none" xmlns="http://www.w3.org/2000/svg">
<g clip-path="url(#clip0_2207_1423)">
<path d="M13.8899 21.5147C14.4641 21.5147 14.9329 21.2803 15.4954 20.753L24.7415 12.0225C25.1868 11.6006 25.3391 11.1553 25.3391 10.7686C25.3391 10.3702 25.1985 9.93652 24.7415 9.50293L15.4954 0.854492C14.8743 0.268555 14.4876 0.0224609 13.9133 0.0224609C13.093 0.0224609 12.5071 0.666992 12.5071 1.45215V5.88184H12.1673C3.74146 5.88184 0.0734863 11.2842 0.0734863 19.9444C0.0734863 20.9522 0.647705 21.5147 1.28052 21.5147C1.77271 21.5147 2.31177 21.3975 2.72193 20.6475C4.76099 16.8155 7.63208 15.667 12.1673 15.667H12.5071V20.1436C12.5071 20.9287 13.093 21.5147 13.8899 21.5147ZM14.5579 18.9952C14.4641 18.9952 14.3938 18.9248 14.3938 18.8194V14.2842C14.3938 14.0147 14.2766 13.8975 14.0071 13.8975H12.4368C6.87037 13.8975 3.31958 15.8311 1.93677 18.7725C1.90161 18.8545 1.87818 18.8897 1.81958 18.8897C1.77271 18.8897 1.73755 18.8545 1.73755 18.7608C1.97193 13.2295 4.38599 7.65137 12.4368 7.65137H14.0071C14.2766 7.65137 14.3938 7.53418 14.3938 7.26465V2.6123C14.3938 2.51855 14.4641 2.44824 14.5696 2.44824C14.6399 2.44824 14.7102 2.49512 14.7688 2.54199L23.1126 10.5459C23.1946 10.628 23.2297 10.6983 23.2297 10.7686C23.2297 10.8389 23.2063 10.8975 23.1126 10.9913L14.7571 18.8897C14.6985 18.96 14.6282 18.9952 14.5579 18.9952Z" fill="black" fill-opacity="0.85"/>
</g>
<defs>
<clipPath id="clip0_2207_1423">
<rect width="25.2656" height="21.5039" fill="white" transform="translate(0.0734863 0.0224609)"/>
</clipPath>
</defs>
</svg>
