<svg width="24" height="24" viewBox="0 0 24 24" fill="none" xmlns="http://www.w3.org/2000/svg">
<g clip-path="url(#clip0_2207_23717)">
<path d="M11.9719 23.9216C18.511 23.9216 23.925 18.4959 23.925 11.9685C23.925 5.42944 18.4993 0.0153809 11.9602 0.0153809C5.43286 0.0153809 0.0187988 5.42944 0.0187988 11.9685C0.0187988 18.4959 5.44458 23.9216 11.9719 23.9216Z" fill="black" fill-opacity="0.85"/>
<path d="M15.7571 8.9685C16.2844 8.9685 16.6477 9.36694 16.6477 9.94116V15.6365C16.6477 16.3513 16.2493 16.6326 15.6282 16.6326H9.90942C9.33521 16.6326 8.97192 16.281 8.97192 15.742C8.97192 15.2146 9.34692 14.8631 9.93286 14.8631H12.1126L13.9055 15.0506L12.0188 13.281L7.57739 8.86304C7.40161 8.68726 7.28442 8.44116 7.28442 8.20679C7.28442 7.656 7.64771 7.30444 8.17505 7.30444C8.46802 7.30444 8.69068 7.40991 8.87818 7.58569L13.2961 12.0154L15.0422 13.8787L14.8665 11.992V9.91772C14.8665 9.33179 15.218 8.9685 15.7571 8.9685Z" fill="white"/>
</g>
<defs>
<clipPath id="clip0_2207_23717">
<rect width="23.9062" height="23.918" fill="white" transform="translate(0.0187988 0.0153809)"/>
</clipPath>
</defs>
</svg>
