<svg width="24" height="25" viewBox="0 0 24 25" fill="none" xmlns="http://www.w3.org/2000/svg">
<g clip-path="url(#clip0_2207_23928)">
<path d="M11.9782 23.9272C18.5173 23.9272 23.9313 18.5132 23.9313 11.9741C23.9313 5.44678 18.5056 0.0209961 11.9665 0.0209961C5.43921 0.0209961 0.0251465 5.44678 0.0251465 11.9741C0.0251465 18.5132 5.45093 23.9272 11.9782 23.9272Z" fill="black" fill-opacity="0.85"/>
<path d="M17.9548 13.2983C17.9548 16.0874 16.0563 17.9155 13.2204 17.9155H11.6501C11.0876 17.9155 10.7126 17.5757 10.7126 17.0483C10.7126 16.5327 11.0759 16.1694 11.6267 16.1694H13.2204C15.0017 16.1694 16.2087 15.021 16.2087 13.2983C16.2087 11.6929 15.0251 10.6265 13.2321 10.6265H9.8103L8.61498 10.5679L9.16576 10.9663L10.5837 12.3257C10.7595 12.5015 10.8532 12.7241 10.8532 12.9702C10.8532 13.4741 10.4782 13.8726 9.9978 13.8726C9.72826 13.8726 9.51733 13.7788 9.35326 13.6148L6.28295 10.4741C6.0603 10.2632 5.96655 10.0054 5.96655 9.73584C5.96655 9.47803 6.07202 9.2085 6.28295 8.99756L9.34155 5.89209C9.51733 5.71631 9.71655 5.62256 9.98608 5.62256C10.4899 5.62256 10.8532 6.021 10.8532 6.52491C10.8532 6.771 10.7595 6.99366 10.5837 7.15772L9.40014 8.30616L8.60326 8.92725L9.8103 8.88038H13.2321C16.0681 8.88038 17.9548 10.6382 17.9548 13.2983Z" fill="white"/>
</g>
<defs>
<clipPath id="clip0_2207_23928">
<rect width="23.9062" height="24.1992" fill="white" transform="translate(0.0251465 0.0209961)"/>
</clipPath>
</defs>
</svg>
