<svg width="27" height="25" viewBox="0 0 27 25" fill="none" xmlns="http://www.w3.org/2000/svg">
<g id="arrow.up.message.fill" clip-path="url(#clip0_2201_213)">
<g id="Group">
<path id="Vector" d="M4.64062 24.4336C6.04688 24.4336 9.55078 22.8984 11.543 21.4688C11.7422 21.3281 11.9062 21.2695 12.0703 21.2695C12.2227 21.2812 12.375 21.293 12.5273 21.293C20.9766 21.293 26.5781 16.4883 26.5781 10.6523C26.5781 4.75781 20.6719 0 13.2891 0C5.90625 0 0 4.75781 0 10.6523C0 14.4023 2.30859 17.6953 6.07031 19.7109C6.24609 19.8047 6.30469 19.9805 6.21094 20.1562C5.55469 21.2344 4.38281 22.5234 3.9375 23.1094C3.48047 23.6953 3.73828 24.4336 4.64062 24.4336Z" fill="black" fill-opacity="0.85"/>
<path id="Vector_2" d="M13.3008 16.8047C12.7734 16.8047 12.3867 16.4297 12.3867 15.9023V9.87891L12.4922 7.32422L11.2852 8.76562L9.85547 10.207C9.69141 10.3828 9.45703 10.4766 9.21094 10.4766C8.70703 10.4766 8.33203 10.1016 8.33203 9.59766C8.33203 9.35156 8.40234 9.14062 8.56641 8.96484L12.5977 4.95703C12.8438 4.71094 13.043 4.60547 13.3008 4.60547C13.582 4.60547 13.7812 4.72266 14.0156 4.95703L18.0352 8.96484C18.1992 9.14062 18.293 9.35156 18.293 9.59766C18.293 10.1016 17.9062 10.4766 17.4023 10.4766C17.1445 10.4766 16.9219 10.3945 16.7578 10.207L15.3398 8.76562L14.1094 7.30078L14.2148 9.87891V15.9023C14.2148 16.4297 13.8398 16.8047 13.3008 16.8047Z" fill="white"/>
</g>
</g>
<defs>
<clipPath id="clip0_2201_213">
<rect width="26.5781" height="24.4336" fill="white"/>
</clipPath>
</defs>
</svg>
