<svg width="23" height="23" viewBox="0 0 23 23" fill="none" xmlns="http://www.w3.org/2000/svg">
<g clip-path="url(#clip0_2207_24354)">
<path d="M1.12646 9.49866C1.74756 9.49866 2.19287 9.02991 2.19287 8.40881V7.42444L1.9585 3.3346L5.04053 6.58069L8.6499 10.2135C8.84912 10.4244 9.10693 10.5182 9.38818 10.5182C10.0561 10.5182 10.5483 10.0846 10.5483 9.42835C10.5483 9.11194 10.4428 8.83069 10.2319 8.61975L6.61084 5.01038L3.36475 1.92835L7.46631 2.16272H8.43896C9.06006 2.16272 9.54053 1.72913 9.54053 1.09631C9.54053 0.4635 9.07178 0.0181885 8.43896 0.0181885H1.93506C0.739746 0.0181885 0.0483398 0.709594 0.0483398 1.90491V8.40881C0.0483398 9.01819 0.505371 9.49866 1.12646 9.49866ZM13.9819 22.3776H20.4858C21.6811 22.3776 22.3842 21.6862 22.3842 20.4909V13.987C22.3842 13.3776 21.9272 12.8971 21.2944 12.8971C20.685 12.8971 20.228 13.3659 20.228 13.987V14.9713L20.4741 19.0612L17.3803 15.8151L13.7827 12.1823C13.5835 11.9713 13.3139 11.8776 13.0327 11.8776C12.3764 11.8776 11.8725 12.3112 11.8725 12.9674C11.8725 13.2838 11.9897 13.5651 12.2006 13.776L15.81 17.3854L19.0678 20.4674L14.9663 20.233H13.9819C13.3608 20.233 12.8803 20.6666 12.8803 21.2994C12.8803 21.9323 13.3608 22.3776 13.9819 22.3776Z" fill="black" fill-opacity="0.85"/>
</g>
<defs>
<clipPath id="clip0_2207_24354">
<rect width="22.3359" height="22.3711" fill="white" transform="translate(0.0483398 0.0181885)"/>
</clipPath>
</defs>
</svg>
