<svg width="22" height="22" viewBox="0 0 22 22" fill="none" xmlns="http://www.w3.org/2000/svg">
<g clip-path="url(#clip0_2207_24769)">
<path d="M3.72583 21.6215H17.9406C20.4016 21.6215 21.6203 20.4027 21.6203 17.9886V3.68005C21.6203 1.26599 20.4016 0.0472412 17.9406 0.0472412H3.72583C1.27661 0.0472412 0.0461426 1.25427 0.0461426 3.68005V17.9886C0.0461426 20.4144 1.27661 21.6215 3.72583 21.6215Z" fill="black" fill-opacity="0.85"/>
<path d="M10.1828 15.3519L6.11641 8.47302C5.81172 7.95739 6.0461 7.26599 6.63204 7.26599H15.0461C15.6203 7.26599 15.8781 7.91052 15.55 8.47302L11.4953 15.3519C11.1906 15.891 10.4875 15.8558 10.1828 15.3519Z" fill="white"/>
</g>
<defs>
<clipPath id="clip0_2207_24769">
<rect width="21.5742" height="21.5977" fill="white" transform="translate(0.0461426 0.0238037)"/>
</clipPath>
</defs>
</svg>
