<svg width="22" height="22" viewBox="0 0 22 22" fill="none" xmlns="http://www.w3.org/2000/svg">
<g clip-path="url(#clip0_2207_6768)">
<path d="M20.2383 1.40246C19.043 0.207153 17.3555 0.0196533 15.3516 0.0196533H6.22266C4.25391 0.0196533 2.56641 0.207153 1.37109 1.40246C0.175781 2.59777 0 4.27356 0 6.24231V15.3713C0 17.3752 0.175781 19.0509 1.37109 20.2463C2.56641 21.4416 4.25391 21.6291 6.24609 21.6291H15.3516C17.3555 21.6291 19.043 21.4416 20.2383 20.2463C21.4336 19.0509 21.6094 17.3752 21.6094 15.3713V6.26574C21.6094 4.26184 21.4336 2.59777 20.2383 1.40246ZM19.7227 5.94934V15.6994C19.7227 16.9064 19.5703 18.1603 18.8555 18.8635C18.1523 19.5783 16.8867 19.7424 15.6797 19.7424H5.92969C4.72266 19.7424 3.45703 19.5783 2.74219 18.8635C2.03906 18.1603 1.88672 16.9064 1.88672 15.6994V5.98449C1.88672 4.74231 2.03906 3.4884 2.74219 2.77356C3.45703 2.07043 4.73438 1.90637 5.96484 1.90637H15.6797C16.8867 1.90637 18.1523 2.07043 18.8555 2.78527C19.5703 3.4884 19.7227 4.74231 19.7227 5.94934Z" fill="black" fill-opacity="0.85"/>
<path d="M14.4844 13.7306C15 13.7306 15.3398 13.3322 15.3398 12.7931V7.26184C15.3398 6.57043 14.9648 6.3009 14.3672 6.3009H8.80078C8.25 6.3009 7.89844 6.64074 7.89844 7.15637C7.89844 7.67199 8.26172 8.01184 8.82422 8.01184H10.957L12.6914 7.82434L10.8633 9.52356L6.55078 13.8478C6.38672 14.0119 6.26953 14.2463 6.26953 14.4806C6.26953 15.008 6.60938 15.3478 7.125 15.3478C7.40625 15.3478 7.62891 15.2424 7.79297 15.0783L12.1055 10.7658L13.793 8.96106L13.6172 10.7892V12.8166C13.6172 13.3674 13.957 13.7306 14.4844 13.7306Z" fill="black" fill-opacity="0.85"/>
</g>
<defs>
<clipPath id="clip0_2207_6768">
<rect width="21.6094" height="21.6211" fill="white" transform="translate(0 0.0196533)"/>
</clipPath>
</defs>
</svg>
