<svg width="24" height="24" viewBox="0 0 24 24" fill="none" xmlns="http://www.w3.org/2000/svg">
<g clip-path="url(#clip0_2207_1265)">
<path d="M11.9531 23.9287C18.4922 23.9287 23.9062 18.503 23.9062 11.9756C23.9062 5.43652 18.4805 0.0224609 11.9414 0.0224609C5.41406 0.0224609 0 5.43652 0 11.9756C0 18.503 5.42578 23.9287 11.9531 23.9287ZM11.9531 21.9366C6.42188 21.9366 2.00391 17.5069 2.00391 11.9756C2.00391 6.44434 6.41016 2.01465 11.9414 2.01465C17.4727 2.01465 21.9141 6.44434 21.9141 11.9756C21.9141 17.5069 17.4844 21.9366 11.9531 21.9366Z" fill="black" fill-opacity="0.85"/>
<path d="M4.78125 11.9756C4.78125 12.1748 4.86328 12.4209 5.10938 12.6553L10.1484 17.4131C10.4531 17.6827 10.6992 17.8116 11.0156 17.8116C11.4375 17.8116 11.7539 17.5069 11.7539 17.0733V14.4834H17.0625C17.9883 14.4834 18.5273 13.9678 18.5273 13.0655V10.8975C18.5273 9.9834 17.9883 9.46777 17.0625 9.46777H11.7539V6.90137C11.7539 6.47949 11.4375 6.13965 10.9922 6.13965C10.6875 6.13965 10.4883 6.26855 10.1484 6.58496L5.10938 11.2842C4.86328 11.5186 4.78125 11.7647 4.78125 11.9756Z" fill="black" fill-opacity="0.85"/>
</g>
<defs>
<clipPath id="clip0_2207_1265">
<rect width="23.9062" height="23.918" fill="white" transform="translate(0 0.0224609)"/>
</clipPath>
</defs>
</svg>
