<svg width="22" height="22" viewBox="0 0 22 22" fill="none" xmlns="http://www.w3.org/2000/svg">
<g clip-path="url(#clip0_2207_23626)">
<path d="M3.77002 21.6174H17.9848C20.4458 21.6174 21.6645 20.3986 21.6645 17.9845V3.6759C21.6645 1.26184 20.4458 0.0430908 17.9848 0.0430908H3.77002C1.3208 0.0430908 0.090332 1.25012 0.090332 3.6759V17.9845C0.090332 20.4103 1.3208 21.6174 3.77002 21.6174ZM3.79345 19.7306C2.62158 19.7306 1.97705 19.1095 1.97705 17.8908V3.76965C1.97705 2.5509 2.62158 1.92981 3.79345 1.92981H17.9614C19.1215 1.92981 19.7778 2.5509 19.7778 3.76965V17.8908C19.7778 19.1095 19.1215 19.7306 17.9614 19.7306H3.79345Z" fill="black" fill-opacity="0.85"/>
<path d="M14.5512 13.7189C15.0669 13.7189 15.4184 13.3205 15.4184 12.7814V7.25012C15.4184 6.55871 15.0317 6.28918 14.4341 6.28918H8.87939C8.32861 6.28918 7.97705 6.62903 7.97705 7.14465C7.97705 7.66027 8.34033 8.00012 8.90283 8.00012H11.0356L12.77 7.81262L10.9419 9.51185L6.61767 13.8361C6.45361 14.0002 6.34814 14.2345 6.34814 14.4689C6.34814 14.9963 6.68799 15.3361 7.20361 15.3361C7.48486 15.3361 7.70752 15.2306 7.87158 15.0666L12.1841 10.7541L13.8715 8.94935L13.6958 10.7775V12.8049C13.6958 13.3556 14.0356 13.7189 14.5512 13.7189Z" fill="black" fill-opacity="0.85"/>
</g>
<defs>
<clipPath id="clip0_2207_23626">
<rect width="21.5742" height="21.5977" fill="white" transform="translate(0.090332 0.0196533)"/>
</clipPath>
</defs>
</svg>
