<svg width="30" height="20" viewBox="0 0 30 20" fill="none" xmlns="http://www.w3.org/2000/svg">
<g clip-path="url(#clip0_2207_9672)">
<path d="M4.66699 19.2798H16.9131C19.7725 19.2798 21.4834 17.6158 21.4834 14.7564V4.52588C21.4834 1.67822 19.7725 0.0141602 16.9131 0.0141602H4.66699C1.93652 0.0141602 0.0966797 1.67822 0.0966797 4.52588V14.7564C0.0966797 17.6158 1.80762 19.2798 4.66699 19.2798ZM4.99512 17.5103C3.07324 17.5103 1.9834 16.5142 1.9834 14.4869V4.80713C1.9834 2.76807 3.07324 1.77197 4.99512 1.77197H16.585C18.4951 1.77197 19.5967 2.76807 19.5967 4.80713V14.4869C19.5967 16.5142 18.4951 17.5103 16.585 17.5103H4.99512ZM21.2139 6.36572V8.59228L26.792 3.98682C26.8975 3.90478 26.9678 3.84619 27.0733 3.84619C27.2139 3.84619 27.2725 3.96338 27.2725 4.12744V15.1665C27.2725 15.3306 27.2139 15.4361 27.0733 15.4361C26.9678 15.4361 26.8975 15.3775 26.792 15.3072L21.2139 10.7017V12.9165L25.9131 16.9009C26.3819 17.2876 26.8975 17.5572 27.3779 17.5572C28.4092 17.5572 29.0889 16.7954 29.0889 15.7056V3.58838C29.0889 2.49854 28.4092 1.73682 27.3779 1.73682C26.8975 1.73682 26.3819 2.00635 25.9131 2.39307L21.2139 6.36572Z" fill="black" fill-opacity="0.85"/>
<path d="M14.6983 4.92432C14.4522 4.92432 14.2647 5.00635 14.0889 5.18213L9.28418 9.98682L7.47949 11.9556L7.67871 8.604V7.02197C7.67871 6.56494 7.33887 6.18994 6.88184 6.18994C6.40137 6.18994 6.01465 6.5415 6.01465 7.02197V13.5376C6.01465 14.1587 6.30762 14.4634 6.94043 14.4634H13.4678C13.9483 14.4634 14.3115 14.0767 14.3115 13.5962C14.3115 13.1275 13.9248 12.7994 13.4678 12.7994H11.8623L8.51074 12.9986L10.4912 11.1939L15.2842 6.37744C15.4834 6.18994 15.5655 5.99072 15.5655 5.73291C15.5655 5.27588 15.1905 4.92432 14.6983 4.92432Z" fill="black" fill-opacity="0.85"/>
</g>
<defs>
<clipPath id="clip0_2207_9672">
<rect width="28.9922" height="19.2773" fill="white" transform="translate(0.0966797 0.0141602)"/>
</clipPath>
</defs>
</svg>
