<svg width="24" height="24" viewBox="0 0 24 24" fill="none" xmlns="http://www.w3.org/2000/svg">
<g clip-path="url(#clip0_2207_1283)">
<path d="M11.9992 23.9287C18.5383 23.9287 23.9523 18.503 23.9523 11.9756C23.9523 5.43652 18.5266 0.0224609 11.9875 0.0224609C5.4602 0.0224609 0.0461426 5.43652 0.0461426 11.9756C0.0461426 18.503 5.47192 23.9287 11.9992 23.9287ZM11.9992 21.9366C6.46802 21.9366 2.05005 17.5069 2.05005 11.9756C2.05005 6.44434 6.4563 2.01465 11.9875 2.01465C17.5188 2.01465 21.9602 6.44434 21.9602 11.9756C21.9602 17.5069 17.5305 21.9366 11.9992 21.9366Z" fill="black" fill-opacity="0.85"/>
<path d="M18.9016 11.9756C18.9016 11.7647 18.8195 11.5186 18.5852 11.2842L13.5344 6.58496C13.2063 6.26855 12.9953 6.13965 12.6906 6.13965C12.2453 6.13965 11.9289 6.47949 11.9289 6.90137V9.46777H6.63209C5.70631 9.46777 5.16724 9.9834 5.16724 10.8975V13.0655C5.16724 13.9678 5.70631 14.4834 6.63209 14.4834H11.9289V17.0733C11.9289 17.5069 12.2453 17.8116 12.6672 17.8116C12.9836 17.8116 13.2414 17.6827 13.5344 17.4131L18.5852 12.6553C18.8195 12.4209 18.9016 12.1748 18.9016 11.9756Z" fill="black" fill-opacity="0.85"/>
</g>
<defs>
<clipPath id="clip0_2207_1283">
<rect width="23.9062" height="23.918" fill="white" transform="translate(0.0461426 0.0224609)"/>
</clipPath>
</defs>
</svg>
