<svg width="22" height="22" viewBox="0 0 22 22" fill="none" xmlns="http://www.w3.org/2000/svg">
<g clip-path="url(#clip0_2207_23776)">
<path d="M3.77637 21.6131H17.9912C20.4522 21.6131 21.6709 20.3943 21.6709 17.9802V3.67163C21.6709 1.25757 20.4522 0.0388184 17.9912 0.0388184H3.77637C1.32715 0.0388184 0.0966797 1.24585 0.0966797 3.67163V17.9802C0.0966797 20.406 1.32715 21.6131 3.77637 21.6131Z" fill="black" fill-opacity="0.85"/>
<path d="M5.22949 6.61304L8.26465 3.67163C8.41699 3.50757 8.63965 3.41382 8.83887 3.41382C9.28418 3.41382 9.6123 3.73022 9.6123 4.18726C9.6123 4.39819 9.53027 4.59741 9.37793 4.74976L8.1123 5.99194L7.62012 6.42554L8.18262 6.41382H15.999C16.4561 6.41382 16.7842 6.74194 16.7842 7.19897C16.7842 7.64429 16.4444 7.99585 15.999 7.99585H8.1709L7.6084 7.96069L8.1123 8.42944L9.37793 9.65991C9.53027 9.81226 9.6123 9.99976 9.6123 10.2224C9.6123 10.6677 9.28418 10.9842 8.83887 10.9842C8.63965 10.9842 8.42871 10.8904 8.26465 10.7615L5.22949 7.78491C4.91309 7.48022 4.91309 6.92944 5.22949 6.61304ZM16.5264 15.0154L13.5029 17.992C13.3389 18.1443 13.1162 18.2381 12.9287 18.2381C12.4951 18.2381 12.1553 17.9099 12.1553 17.4646C12.1553 17.242 12.249 17.0662 12.4014 16.9021L13.667 15.6599L14.1709 15.2263L13.585 15.2381H5.76856C5.32324 15.2381 4.99512 14.8982 4.99512 14.4412C4.99512 13.9842 5.33496 13.656 5.76856 13.656H13.5967L14.1709 13.6912L13.667 13.2224L12.3779 11.992C12.2373 11.8396 12.1553 11.6521 12.1553 11.4295C12.1553 10.9842 12.4717 10.6677 12.9287 10.6677C13.1397 10.6677 13.3623 10.7615 13.5029 10.9021L16.5264 13.8787C16.8428 14.1951 16.8662 14.6873 16.5264 15.0154Z" fill="white"/>
</g>
<defs>
<clipPath id="clip0_2207_23776">
<rect width="21.5742" height="21.5977" fill="white" transform="translate(0.0966797 0.0153809)"/>
</clipPath>
</defs>
</svg>
