<svg width="20" height="26" viewBox="0 0 20 26" fill="none" xmlns="http://www.w3.org/2000/svg">
<g clip-path="url(#clip0_2207_882)">
<path d="M3.66015 25.1392H16.1054C18.5312 25.1392 19.7382 23.9087 19.7382 21.4712V10.8306C19.7382 9.31885 19.5625 8.6626 18.625 7.70166L12.1679 1.12744C11.2773 0.213379 10.539 0.0141602 9.22656 0.0141602H3.66015C1.24609 0.0141602 0.0273438 1.25635 0.0273438 3.69385V21.4712C0.0273438 23.9204 1.23437 25.1392 3.66015 25.1392ZM3.74218 23.2525C2.53515 23.2525 1.91406 22.608 1.91406 21.4361V3.729C1.91406 2.56885 2.53515 1.90088 3.7539 1.90088H8.96875V8.70947C8.96875 10.1861 9.70703 10.9126 11.1718 10.9126H17.8515V21.4361C17.8515 22.608 17.2304 23.2525 16.0117 23.2525H3.74218ZM11.3828 9.14307C10.914 9.14307 10.7382 8.95557 10.7382 8.48682V2.26416L17.4882 9.14307H11.3828Z" fill="black" fill-opacity="0.85"/>
<path d="M10.7734 13.1275C10.7734 12.647 10.3632 12.2603 9.88281 12.2603C9.40234 12.2603 8.99218 12.647 8.99218 13.1275V17.3814L9.0625 19.2915L8.0664 18.2603L7.01172 17.1822C6.84765 17.0064 6.60156 16.9126 6.3789 16.9126C5.89843 16.9126 5.55859 17.2525 5.55859 17.7212C5.55859 17.9908 5.66406 18.19 5.85156 18.354L9.22656 21.4595C9.47265 21.6822 9.66015 21.7642 9.88281 21.7642C10.1054 21.7642 10.2929 21.6822 10.539 21.4595L13.914 18.354C14.1015 18.19 14.207 17.9908 14.207 17.7212C14.207 17.2525 13.8554 16.9126 13.3867 16.9126C13.1523 16.9126 12.9179 17.0064 12.7539 17.1822L11.6992 18.2603L10.7031 19.2915L10.7734 17.3814V13.1275Z" fill="black" fill-opacity="0.85"/>
</g>
<defs>
<clipPath id="clip0_2207_882">
<rect width="19.7109" height="25.1367" fill="white" transform="translate(0.0273438 0.0141602)"/>
</clipPath>
</defs>
</svg>
