<svg width="24" height="24" viewBox="0 0 24 24" fill="none" xmlns="http://www.w3.org/2000/svg">
<g clip-path="url(#clip0_2207_23508)">
<path d="M12.0288 23.9244C18.5679 23.9244 23.9819 18.4987 23.9819 11.9713C23.9819 5.43225 18.5562 0.0181885 12.0171 0.0181885C5.48974 0.0181885 0.0756836 5.43225 0.0756836 11.9713C0.0756836 18.4987 5.50146 23.9244 12.0288 23.9244ZM12.0288 21.9323C6.49756 21.9323 2.07959 17.5026 2.07959 11.9713C2.07959 6.44007 6.48584 2.01038 12.0171 2.01038C17.5484 2.01038 21.9898 6.44007 21.9898 11.9713C21.9898 17.5026 17.5601 21.9323 12.0288 21.9323Z" fill="black" fill-opacity="0.85"/>
<path d="M12.0288 17.8307C12.5445 17.8307 12.9077 17.4674 12.9077 16.9518V11.0924L12.814 8.60803L14.0093 10.026L15.3921 11.4323C15.5445 11.5963 15.7554 11.6901 16.0132 11.6901C16.4937 11.6901 16.8687 11.3151 16.8687 10.8463C16.8687 10.6002 16.7749 10.3893 16.6226 10.237L12.7202 6.3346C12.4976 6.11194 12.2866 6.00647 12.0288 6.00647C11.7827 6.00647 11.5835 6.10022 11.3491 6.3346L7.43506 10.237C7.28271 10.3893 7.2124 10.6002 7.2124 10.8463C7.2124 11.3151 7.57568 11.6901 8.05615 11.6901C8.30224 11.6901 8.51318 11.5846 8.67724 11.4323L10.0718 10.026L11.2437 8.61975L11.1499 11.0924V16.9518C11.1499 17.4674 11.5249 17.8307 12.0288 17.8307Z" fill="black" fill-opacity="0.85"/>
</g>
<defs>
<clipPath id="clip0_2207_23508">
<rect width="23.9062" height="23.918" fill="white" transform="translate(0.0756836 0.0181885)"/>
</clipPath>
</defs>
</svg>
