<svg width="23" height="23" viewBox="0 0 23 23" fill="none" xmlns="http://www.w3.org/2000/svg">
<g clip-path="url(#clip0_2207_24402)">
<path d="M21.3447 9.49317C21.9775 9.49317 22.4345 9.0127 22.4345 8.40332V1.89942C22.4345 0.704101 21.7314 0.0126953 20.5361 0.0126953H14.0322C13.4111 0.0126953 12.9306 0.458007 12.9306 1.09082C12.9306 1.72364 13.4111 2.15723 14.0322 2.15723H15.0166L19.1181 1.92286L15.8603 5.00489L12.2509 8.61425C12.04 8.8252 11.9228 9.10645 11.9228 9.42286C11.9228 10.0791 12.4267 10.5127 13.083 10.5127C13.3642 10.5127 13.6338 10.4189 13.833 10.208L17.4306 6.5752L20.5244 3.32911L20.2783 7.41895V8.40332C20.2783 9.02442 20.7353 9.49317 21.3447 9.49317ZM8.48925 22.3721C9.12207 22.3721 9.59082 21.9268 9.59082 21.2939C9.59082 20.6611 9.11035 20.2275 8.48925 20.2275H7.5166L3.41504 20.4619L6.66113 17.3799L10.2822 13.7705C10.4931 13.5596 10.5986 13.2783 10.5986 12.9619C10.5986 12.3057 10.1064 11.8721 9.43847 11.8721C9.15722 11.8721 8.89941 11.9658 8.70019 12.1768L5.09082 15.8096L2.00879 19.0557L2.24316 14.9658V13.9815C2.24316 13.3604 1.79785 12.8916 1.17675 12.8916C0.555664 12.8916 0.0986328 13.3721 0.0986328 13.9815V20.4854C0.0986328 21.6807 0.790039 22.3721 1.98535 22.3721H8.48925Z" fill="black" fill-opacity="0.85"/>
</g>
<defs>
<clipPath id="clip0_2207_24402">
<rect width="22.3359" height="22.3711" fill="white" transform="translate(0.0986328 0.0126953)"/>
</clipPath>
</defs>
</svg>
