<svg width="28" height="22" viewBox="0 0 28 22" fill="none" xmlns="http://www.w3.org/2000/svg">
<g clip-path="url(#clip0_2207_7122)">
<path d="M3.69654 21.5884H23.9699C26.4309 21.5884 27.6496 20.3814 27.6496 17.9673V3.64697C27.6496 1.23291 26.4309 0.0141602 23.9699 0.0141602H3.69654C1.24732 0.0141602 0.0168457 1.23291 0.0168457 3.64697V17.9673C0.0168457 20.3814 1.24732 21.5884 3.69654 21.5884ZM3.71997 19.7017C2.5481 19.7017 1.90357 19.0806 1.90357 17.8619V3.75244C1.90357 2.53369 2.5481 1.90088 3.71997 1.90088H23.9465C25.1066 1.90088 25.7629 2.53369 25.7629 3.75244V17.8619C25.7629 19.0806 25.1066 19.7017 23.9465 19.7017H3.71997Z" fill="black" fill-opacity="0.85"/>
<path d="M16.5402 4.70166C16.0246 4.70166 15.6848 5.08838 15.6848 5.63916V10.9947C15.6848 11.6978 16.0598 11.9673 16.6574 11.9673H22.0598C22.5988 11.9673 22.9504 11.6275 22.9504 11.1119C22.9504 10.5962 22.5871 10.2564 22.0363 10.2564H20.0559L18.3215 10.4439L20.1496 8.73291L23.6887 5.19385C23.8527 5.02978 23.9699 4.80713 23.9699 4.57275C23.9699 4.04541 23.6301 3.69385 23.1145 3.69385C22.8215 3.69385 22.6106 3.79932 22.4465 3.96338L18.9074 7.50244L17.2199 9.30713L17.3957 7.479V5.61572C17.3957 5.05322 17.0559 4.70166 16.5402 4.70166Z" fill="black" fill-opacity="0.85"/>
</g>
<defs>
<clipPath id="clip0_2207_7122">
<rect width="27.6328" height="21.5742" fill="white" transform="translate(0.0168457 0.0141602)"/>
</clipPath>
</defs>
</svg>
