<svg width="22" height="22" viewBox="0 0 22 22" fill="none" xmlns="http://www.w3.org/2000/svg">
<g clip-path="url(#clip0_2207_24713)">
<path d="M3.73853 21.6215H17.9533C20.4143 21.6215 21.633 20.4027 21.633 17.9886V3.68005C21.633 1.26599 20.4143 0.0472412 17.9533 0.0472412H3.73853C1.28931 0.0472412 0.0588379 1.25427 0.0588379 3.68005V17.9886C0.0588379 20.4144 1.28931 21.6215 3.73853 21.6215Z" fill="black" fill-opacity="0.85"/>
<path d="M8.62524 15.5394C8.06274 15.8793 7.41821 15.6097 7.41821 15.0238V6.62144C7.41821 6.04722 8.10961 5.80112 8.62524 6.10581L15.5041 10.184C15.9963 10.4769 16.008 11.18 15.5041 11.4847L8.62524 15.5394Z" fill="white"/>
</g>
<defs>
<clipPath id="clip0_2207_24713">
<rect width="21.5742" height="21.5977" fill="white" transform="translate(0.0588379 0.0238037)"/>
</clipPath>
</defs>
</svg>
