<svg width="22" height="22" viewBox="0 0 22 22" fill="none" xmlns="http://www.w3.org/2000/svg">
<g clip-path="url(#clip0_2207_24148)">
<path d="M3.72168 21.6131H17.9365C20.3975 21.6131 21.6162 20.3943 21.6162 17.9802V3.67163C21.6162 1.25757 20.3975 0.0388184 17.9365 0.0388184H3.72168C1.27246 0.0388184 0.0419922 1.24585 0.0419922 3.67163V17.9802C0.0419922 20.406 1.27246 21.6131 3.72168 21.6131ZM3.74511 19.7263C2.57324 19.7263 1.92871 19.1052 1.92871 17.8865V3.76538C1.92871 2.54663 2.57324 1.92554 3.74511 1.92554H17.9131C19.0732 1.92554 19.7295 2.54663 19.7295 3.76538V17.8865C19.7295 19.1052 19.0732 19.7263 17.9131 19.7263H3.74511Z" fill="black" fill-opacity="0.85"/>
<path d="M10.8232 14.5701C11.0459 14.5701 11.2451 14.4646 11.4092 14.3006L15.3818 10.2693C15.5693 10.0935 15.6397 9.89429 15.6397 9.67163C15.6397 9.24976 15.3232 8.90991 14.8897 8.90991C14.6787 8.90991 14.4678 8.98022 14.3154 9.13257L13.5772 9.88257L11.4795 12.2498L11.6084 10.117V4.73804C11.6084 4.281 11.2803 3.95288 10.8232 3.95288C10.3545 3.95288 10.0381 4.281 10.0381 4.73804V10.117L10.167 12.2615L8.03418 9.87085L7.36621 9.13257C7.21387 8.98022 7.03808 8.90991 6.80371 8.90991C6.34668 8.90991 6.04199 9.22632 6.04199 9.67163C6.04199 9.85913 6.13574 10.1052 6.27637 10.2576L10.2373 14.3006C10.4014 14.4763 10.6123 14.5701 10.8232 14.5701ZM6.44043 17.031H15.2412C15.6982 17.031 16.0147 16.7029 16.0147 16.2459C16.0147 15.8006 15.6982 15.4724 15.2412 15.4724H6.44043C5.9834 15.4724 5.66699 15.8006 5.66699 16.2459C5.66699 16.7029 5.9834 17.031 6.44043 17.031Z" fill="black" fill-opacity="0.85"/>
</g>
<defs>
<clipPath id="clip0_2207_24148">
<rect width="21.5742" height="21.5977" fill="white" transform="translate(0.0419922 0.0153809)"/>
</clipPath>
</defs>
</svg>
