<svg width="24" height="24" viewBox="0 0 24 24" fill="none" xmlns="http://www.w3.org/2000/svg">
<g id="arrow.triangle.turn.up.right.circle.fill" clip-path="url(#clip0_2124_13778)">
<g id="Group">
<path id="Vector" d="M11.9531 23.9062C18.4922 23.9062 23.9062 18.4805 23.9062 11.9531C23.9062 5.41406 18.4805 0 11.9414 0C5.41406 0 0 5.41406 0 11.9531C0 18.4805 5.42578 23.9062 11.9531 23.9062Z" fill="black" fill-opacity="0.85"/>
<path id="Vector_2" d="M6.70312 15.3867V12.3047C6.70312 9.96096 7.82812 8.83596 10.1719 8.83596H13.5V7.28908C13.5 6.50393 14.3203 6.16408 14.9297 6.64455L17.7891 8.8594C18.5391 9.45705 18.5391 10.1719 17.7891 10.7695L14.9297 12.9961C14.3203 13.4766 13.5 13.1367 13.5 12.3516V10.793H10.207C9.17578 10.793 8.64845 11.3086 8.64845 12.3984V15.3867C8.64845 16.0781 8.28516 16.4648 7.67578 16.4766C7.05469 16.4883 6.70312 16.0781 6.70312 15.3867Z" fill="white"/>
</g>
</g>
<defs>
<clipPath id="clip0_2124_13778">
<rect width="23.9062" height="23.918" fill="white"/>
</clipPath>
</defs>
</svg>
