<svg width="24" height="23" viewBox="0 0 24 23" fill="none" xmlns="http://www.w3.org/2000/svg">
<g clip-path="url(#clip0_2207_7962)">
<path d="M11.6555 22.2502C11.9016 22.2502 12.2532 22.0861 12.511 21.9338C19.1204 17.715 23.304 12.8049 23.304 7.81262C23.304 3.66418 20.4563 0.734497 16.7649 0.734497C14.4797 0.734497 12.7219 2.00012 11.6555 3.93371C10.6126 2.01184 8.84302 0.734497 6.54614 0.734497C2.86646 0.734497 0.0187988 3.66418 0.0187988 7.81262C0.0187988 12.8049 4.20239 17.715 10.8118 21.9338C11.0579 22.0861 11.4211 22.2502 11.6555 22.2502Z" fill="black" fill-opacity="0.85"/>
<path d="M12.4993 15.8516C12.4993 16.3438 12.0657 16.754 11.5618 16.754C11.0579 16.754 10.636 16.3438 10.636 15.8516V11.5157L10.7063 9.55871L9.69849 10.6016L8.63208 11.6915C8.46802 11.8555 8.22192 11.961 7.98755 11.961C7.48364 11.961 7.13208 11.6212 7.13208 11.1173C7.13208 10.8477 7.24927 10.6485 7.43677 10.4727L10.8821 7.30871C11.1399 7.07434 11.3274 6.99231 11.5618 6.99231C11.7961 6.99231 11.9836 7.07434 12.2415 7.30871L15.6868 10.4727C15.8743 10.6485 15.9915 10.8477 15.9915 11.1173C15.9915 11.6212 15.6165 11.961 15.136 11.961C14.8899 11.961 14.6672 11.8555 14.4915 11.6915L13.425 10.6016L12.4172 9.55871L12.4993 11.5157V15.8516Z" fill="white"/>
</g>
<defs>
<clipPath id="clip0_2207_7962">
<rect width="23.2852" height="22.2305" fill="white" transform="translate(0.0187988 0.0196533)"/>
</clipPath>
</defs>
</svg>
