<svg width="28" height="23" viewBox="0 0 28 23" fill="none" xmlns="http://www.w3.org/2000/svg">
<g clip-path="url(#clip0_2207_23781)">
<path d="M21.2231 21.7052L27.1294 15.6466C27.3403 15.4474 27.4575 15.1427 27.4575 14.8732C27.4575 14.2521 27.0356 13.8419 26.4262 13.8419C26.1215 13.8419 25.8989 13.9357 25.6997 14.1349L23.2622 16.6544L21.3754 18.8459L21.4809 16.1388V1.0802C21.4809 0.470825 21.0473 0.0255127 20.4379 0.0255127C19.8168 0.0255127 19.3833 0.470825 19.3833 1.0802V16.1388L19.5004 18.8459L17.6137 16.6544L15.1762 14.1349C14.977 13.9357 14.7426 13.8419 14.4497 13.8419C13.8403 13.8419 13.4067 14.2521 13.4067 14.8732C13.4067 15.1427 13.5356 15.4474 13.7465 15.6466L19.6528 21.7052C20.0864 22.1623 20.7661 22.174 21.2231 21.7052Z" fill="black" fill-opacity="0.85"/>
<path d="M6.28173 0.37713L0.36377 6.41229C0.164551 6.62322 0.0356445 6.92791 0.0356445 7.18572C0.0356445 7.80682 0.45752 8.22869 1.06689 8.22869C1.37158 8.22869 1.60595 8.12322 1.80517 7.92401L4.24267 5.40447L6.12939 3.22479L6.0122 5.93182V20.9904C6.0122 21.6115 6.4458 22.0451 7.06689 22.0451C7.67626 22.0451 8.10986 21.6115 8.10986 20.9904V5.93182L8.00439 3.22479L9.87939 5.40447L12.3286 7.92401C12.5278 8.12322 12.7504 8.22869 13.0551 8.22869C13.6645 8.22869 14.0864 7.80682 14.0864 7.18572C14.0864 6.92791 13.9692 6.62322 13.7583 6.41229L7.85205 0.37713C7.41845 -0.0799013 6.72705 -0.103339 6.28173 0.37713Z" fill="black" fill-opacity="0.85"/>
</g>
<defs>
<clipPath id="clip0_2207_23781">
<rect width="27.4219" height="22.0342" fill="white" transform="translate(0.0356445 0.0181885)"/>
</clipPath>
</defs>
</svg>
