<svg width="24" height="24" viewBox="0 0 24 24" fill="none" xmlns="http://www.w3.org/2000/svg">
<g clip-path="url(#clip0_2207_23621)">
<path d="M12.0412 23.9259C18.5803 23.9259 23.9943 18.5002 23.9943 11.9728C23.9943 5.43371 18.5686 0.0196533 12.0295 0.0196533C5.50219 0.0196533 0.0881348 5.43371 0.0881348 11.9728C0.0881348 18.5002 5.51392 23.9259 12.0412 23.9259Z" fill="black" fill-opacity="0.85"/>
<path d="M15.8264 14.9728C15.2873 14.9728 14.9358 14.5978 14.9358 14.0236V11.9494L15.1115 10.0627L13.3654 11.9259L8.94752 16.3556C8.76002 16.5314 8.53736 16.6369 8.24439 16.6369C7.71705 16.6369 7.35376 16.2853 7.35376 15.7345C7.35376 15.5002 7.47095 15.2541 7.64673 15.0783L12.0881 10.6486L13.9748 8.89075L12.1819 9.07825H10.0022C9.41626 9.07825 9.04126 8.72669 9.04126 8.19935C9.04126 7.66028 9.40455 7.30872 9.97876 7.30872H15.6975C16.3186 7.30872 16.717 7.58997 16.717 8.30482V14.0002C16.717 14.5627 16.3537 14.9728 15.8264 14.9728Z" fill="white"/>
</g>
<defs>
<clipPath id="clip0_2207_23621">
<rect width="23.9062" height="23.918" fill="white" transform="translate(0.0881348 0.0196533)"/>
</clipPath>
</defs>
</svg>
