<svg width="22" height="22" viewBox="0 0 22 22" fill="none" xmlns="http://www.w3.org/2000/svg">
<g clip-path="url(#clip0_2207_23607)">
<path d="M3.74903 21.6159H17.9638C20.4248 21.6159 21.6435 20.3971 21.6435 17.983V3.67444C21.6435 1.26038 20.4248 0.041626 17.9638 0.041626H3.74903C1.29981 0.041626 0.0693359 1.24866 0.0693359 3.67444V17.983C0.0693359 20.4088 1.29981 21.6159 3.74903 21.6159Z" fill="black" fill-opacity="0.85"/>
<path d="M7.06542 13.8112C6.53808 13.8112 6.18652 13.401 6.18652 12.8385V7.14318C6.18652 6.42834 6.57324 6.14709 7.19433 6.14709H12.9131C13.4873 6.14709 13.8505 6.49865 13.8505 7.03771C13.8505 7.56506 13.4755 7.91662 12.8896 7.91662H10.7099L8.91699 7.72912L10.8037 9.48693L15.2451 13.9166C15.4209 14.0924 15.5381 14.3385 15.5381 14.5729C15.5381 15.1237 15.1748 15.4752 14.6474 15.4752C14.3545 15.4752 14.1318 15.3698 13.9443 15.194L9.52636 10.7643L7.78027 8.90099L7.95605 10.7877V12.862C7.95605 13.4362 7.60449 13.8112 7.06542 13.8112Z" fill="white"/>
</g>
<defs>
<clipPath id="clip0_2207_23607">
<rect width="21.5742" height="21.5977" fill="white" transform="translate(0.0693359 0.0181885)"/>
</clipPath>
</defs>
</svg>
