<svg width="22" height="22" viewBox="0 0 22 22" fill="none" xmlns="http://www.w3.org/2000/svg">
<g clip-path="url(#clip0_2207_23751)">
<path d="M3.7301 21.6119H17.9449C20.4059 21.6119 21.6246 20.3931 21.6246 17.979V3.67041C21.6246 1.25635 20.4059 0.0375977 17.9449 0.0375977H3.7301C1.28088 0.0375977 0.050415 1.24463 0.050415 3.67041V17.979C0.050415 20.4048 1.28088 21.6119 3.7301 21.6119Z" fill="black" fill-opacity="0.85"/>
<path d="M14.6285 7.80713C15.1559 7.80713 15.5192 8.20557 15.5192 8.77978V14.4751C15.5192 15.19 15.1207 15.4712 14.4996 15.4712H8.78088C8.20666 15.4712 7.84338 15.1197 7.84338 14.5806C7.84338 14.0533 8.21838 13.7017 8.80432 13.7017H10.984L12.777 13.8892L10.8902 12.1197L6.44885 7.70166C6.27307 7.52588 6.1676 7.27978 6.1676 7.04541C6.1676 6.49463 6.51916 6.14307 7.0465 6.14307C7.33947 6.14307 7.57385 6.24854 7.74963 6.42432L12.1676 10.854L13.9137 12.7173L13.7379 10.8306V8.75635C13.7379 8.17041 14.0895 7.80713 14.6285 7.80713Z" fill="white"/>
</g>
<defs>
<clipPath id="clip0_2207_23751">
<rect width="21.5742" height="21.5977" fill="white" transform="translate(0.050415 0.0141602)"/>
</clipPath>
</defs>
</svg>
