<svg width="22" height="22" viewBox="0 0 22 22" fill="none" xmlns="http://www.w3.org/2000/svg">
<g clip-path="url(#clip0_2207_24624)">
<path d="M3.75318 21.6215H17.968C20.429 21.6215 21.6477 20.4027 21.6477 17.9886V3.68005C21.6477 1.26599 20.429 0.0472412 17.968 0.0472412H3.75318C1.30396 0.0472412 0.0734863 1.25427 0.0734863 3.68005V17.9886C0.0734863 20.4144 1.30396 21.6215 3.75318 21.6215ZM3.77661 19.7347C2.60474 19.7347 1.96021 19.1136 1.96021 17.8949V3.7738C1.96021 2.55505 2.60474 1.93396 3.77661 1.93396H17.9446C19.1047 1.93396 19.761 2.55505 19.761 3.7738V17.8949C19.761 19.1136 19.1047 19.7347 17.9446 19.7347H3.77661Z" fill="black" fill-opacity="0.85"/>
<path d="M6.14381 11.4496L12.8118 15.3988C13.3626 15.7269 13.9837 15.4574 13.9837 14.8949V6.75038C13.9837 6.17616 13.3157 5.94179 12.8118 6.24648L6.14381 10.1957C5.66334 10.4769 5.65162 11.1683 6.14381 11.4496Z" fill="black" fill-opacity="0.85"/>
</g>
<defs>
<clipPath id="clip0_2207_24624">
<rect width="21.5742" height="21.5977" fill="white" transform="translate(0.0734863 0.0238037)"/>
</clipPath>
</defs>
</svg>
