<svg width="20" height="26" viewBox="0 0 20 26" fill="none" xmlns="http://www.w3.org/2000/svg">
<g clip-path="url(#clip0_2207_872)">
<path d="M3.71484 25.1432H16.1601C18.5859 25.1432 19.7929 23.9127 19.7929 21.4752V10.8346C19.7929 9.32288 19.6172 8.66663 18.6797 7.70569L12.2226 1.13147C11.332 0.217408 10.5937 0.0181885 9.28125 0.0181885H3.71484C1.30078 0.0181885 0.0820312 1.26038 0.0820312 3.69788V21.4752C0.0820312 23.9244 1.28906 25.1432 3.71484 25.1432ZM3.79687 23.2565C2.58984 23.2565 1.96875 22.612 1.96875 21.4401V3.73303C1.96875 2.57288 2.58984 1.90491 3.80859 1.90491H9.02344V8.7135C9.02344 10.1901 9.76172 10.9166 11.2265 10.9166H17.9062V21.4401C17.9062 22.612 17.2851 23.2565 16.0664 23.2565H3.79687ZM11.4375 9.1471C10.9687 9.1471 10.7929 8.9596 10.7929 8.49085V2.26819L17.5429 9.1471H11.4375Z" fill="black" fill-opacity="0.85"/>
<path d="M10.8281 20.901V16.6471L10.7578 14.737L11.7539 15.7682L12.8086 16.8463C12.9726 17.0221 13.207 17.1159 13.4414 17.1159C13.9101 17.1159 14.2617 16.776 14.2617 16.3073C14.2617 16.0377 14.1562 15.8385 13.9687 15.6744L10.5937 12.569C10.3476 12.3463 10.1601 12.2643 9.9375 12.2643C9.71484 12.2643 9.52734 12.3463 9.28125 12.569L5.90625 15.6744C5.71875 15.8385 5.61328 16.0377 5.61328 16.3073C5.61328 16.776 5.95312 17.1159 6.43359 17.1159C6.65625 17.1159 6.90234 17.0221 7.06641 16.8463L8.12109 15.7682L9.11719 14.737L9.04687 16.6471V20.901C9.04687 21.3815 9.45703 21.7682 9.9375 21.7682C10.4179 21.7682 10.8281 21.3815 10.8281 20.901Z" fill="black" fill-opacity="0.85"/>
</g>
<defs>
<clipPath id="clip0_2207_872">
<rect width="19.7109" height="25.1367" fill="white" transform="translate(0.0820312 0.0181885)"/>
</clipPath>
</defs>
</svg>
