<svg width="27" height="25" viewBox="0 0 27 25" fill="none" xmlns="http://www.w3.org/2000/svg">
<g id="arrow.down.message.fill" clip-path="url(#clip0_2201_223)">
<g id="Group">
<path id="Vector" d="M4.64062 24.4336C6.04688 24.4336 9.55078 22.8984 11.543 21.4688C11.7422 21.3281 11.9062 21.2695 12.0703 21.2695C12.2227 21.2812 12.375 21.293 12.5273 21.293C20.9766 21.293 26.5781 16.4883 26.5781 10.6523C26.5781 4.75781 20.6719 0 13.2891 0C5.90625 0 0 4.75781 0 10.6523C0 14.4023 2.30859 17.6953 6.07031 19.7109C6.24609 19.8047 6.30469 19.9805 6.21094 20.1562C5.55469 21.2344 4.38281 22.5234 3.9375 23.1094C3.48047 23.6953 3.73828 24.4336 4.64062 24.4336Z" fill="black" fill-opacity="0.85"/>
<path id="Vector_2" d="M13.3008 4.60547C13.8398 4.60547 14.2148 4.99219 14.2148 5.51953V11.543L14.1094 14.1094L15.3398 12.6445L16.7578 11.2148C16.9219 11.0273 17.1445 10.9453 17.4023 10.9453C17.9062 10.9453 18.293 11.3203 18.293 11.8242C18.293 12.0703 18.1992 12.2812 18.0352 12.4453L14.0156 16.4648C13.7812 16.6992 13.582 16.8047 13.3008 16.8047C13.043 16.8047 12.8438 16.7109 12.5977 16.4648L8.56641 12.4453C8.40234 12.2812 8.33203 12.0703 8.33203 11.8242C8.33203 11.3203 8.70703 10.9453 9.21094 10.9453C9.45703 10.9453 9.69141 11.0391 9.85547 11.2148L11.2852 12.6445L12.4922 14.0977L12.3867 11.543V5.51953C12.3867 4.99219 12.7734 4.60547 13.3008 4.60547Z" fill="white"/>
</g>
</g>
<defs>
<clipPath id="clip0_2201_223">
<rect width="26.5781" height="24.4336" fill="white"/>
</clipPath>
</defs>
</svg>
