<svg width="22" height="22" viewBox="0 0 22 22" fill="none" xmlns="http://www.w3.org/2000/svg">
<g clip-path="url(#clip0_2207_24325)">
<path d="M3.76367 21.6104H17.9785C20.4395 21.6104 21.6582 20.3916 21.6582 17.9775V3.66895C21.6582 1.25489 20.4395 0.0361328 17.9785 0.0361328H3.76367C1.31445 0.0361328 0.0839844 1.24317 0.0839844 3.66895V17.9775C0.0839844 20.4033 1.31445 21.6104 3.76367 21.6104Z" fill="black" fill-opacity="0.85"/>
<path d="M16.2676 11.3565C16.2676 14.3799 13.8652 16.8174 10.877 16.8174C7.88868 16.8174 5.49805 14.3799 5.49805 11.4033C5.49805 10.9463 5.87305 10.583 6.31837 10.583C6.78711 10.583 7.16211 10.9463 7.16211 11.4033C7.16211 13.4775 8.81446 15.1416 10.877 15.1416C12.9512 15.1416 14.6035 13.4775 14.6035 11.4033C14.6035 9.34081 12.9512 7.68847 10.877 7.68847C10.7246 7.68847 10.5723 7.68847 10.4551 7.71191L11.6152 8.87207C11.7676 9.01269 11.8496 9.21191 11.8496 9.42285C11.8496 9.85644 11.5215 10.1963 11.0762 10.1963C10.8887 10.1963 10.6778 10.0908 10.5488 9.96191L8.20508 7.61816C7.91211 7.33691 7.92383 6.79785 8.20508 6.50488L10.5254 4.13769C10.666 3.98535 10.8652 3.8916 11.0762 3.8916C11.5215 3.8916 11.8496 4.24316 11.8496 4.66503C11.8496 4.88769 11.7559 5.08691 11.6387 5.22753L10.7949 6.09472C10.877 6.083 11.0059 6.07128 11.1113 6.07128C13.8301 6.07128 16.2676 8.40331 16.2676 11.3565Z" fill="white"/>
</g>
<defs>
<clipPath id="clip0_2207_24325">
<rect width="21.5742" height="21.5977" fill="white" transform="translate(0.0839844 0.0126953)"/>
</clipPath>
</defs>
</svg>
