<svg width="25" height="28" viewBox="0 0 25 28" fill="none" xmlns="http://www.w3.org/2000/svg">
<g clip-path="url(#clip0_2207_24566)">
<path d="M6.67187 18.332C7.16406 18.2148 7.44531 17.7461 7.30468 17.2539L6.32031 13.3515C6.21484 12.9648 6.05078 12.6953 5.74609 12.5195C5.4414 12.332 5.13672 12.3203 4.73828 12.4375L0.882813 13.5273C0.367188 13.6679 0.109375 14.1484 0.25 14.6172C0.378906 15.1094 0.859375 15.4023 1.35156 15.2383L4.76172 14.2304L5.58203 17.6875C5.6875 18.1914 6.1914 18.4609 6.67187 18.332ZM3.26172 24.8828H9.54296C10.0937 24.8828 10.5039 24.4961 10.5039 23.9687C10.5039 23.4414 10.0937 23.0429 9.54296 23.0429H3.27343C2.46484 23.0429 1.92578 22.375 1.92578 21.6484C1.92578 21.4375 1.96093 21.1797 2.08984 20.957L6.15625 13.6797L4.5625 12.7422L0.460938 20.0547C0.179688 20.5703 0.0273438 21.1211 0.0273438 21.6484C0.0273438 23.4648 1.26953 24.8828 3.26172 24.8828ZM17.7226 12.4609L19.3164 11.5351L15.0625 3.92968C14.4648 2.85156 13.375 2.30078 12.2851 2.30078C11.1835 2.30078 10.1054 2.86328 9.49609 3.92968L6.26172 9.70703C5.95703 10.2344 6.12109 10.7383 6.57812 11.0078C7.04687 11.2656 7.59765 11.1015 7.86718 10.6328L11.1015 4.83203C11.3711 4.36328 11.8281 4.16406 12.2851 4.16406C12.7421 4.16406 13.1875 4.36328 13.4453 4.83203L17.7226 12.4609ZM17.8867 12.7422C18.2851 12.8476 18.5898 12.8476 18.8945 12.6601C19.1992 12.4726 19.3632 12.2265 19.4687 11.8281L20.4414 7.92578C20.582 7.43359 20.3125 6.96484 19.8203 6.84765C19.3398 6.71875 18.8359 6.98828 18.7304 7.49218L17.9101 10.9492L14.4882 9.9414C14.0078 9.78906 13.5273 10.0703 13.3867 10.5625C13.2578 11.0312 13.5156 11.5117 14.0195 11.6523L17.8867 12.7422ZM13 24.8828H21.2968C23.289 24.8828 24.5312 23.4648 24.5312 21.6484C24.5312 21.1211 24.3906 20.582 24.0976 20.0547L20.9921 14.5117C20.7226 14.0078 20.1718 13.8906 19.7265 14.1601C19.2695 14.4297 19.1171 14.9804 19.375 15.4492L22.457 20.957C22.5859 21.1797 22.6445 21.4375 22.6445 21.6484C22.6445 22.375 22.082 23.0429 21.2734 23.0429H13V24.8828ZM15.5312 27.6719C15.8945 28.0469 16.4453 28.0234 16.7851 27.6719C17.1484 27.332 17.1484 26.7695 16.7734 26.4062L14.1953 23.9687L16.7734 21.5312C17.1484 21.1679 17.1484 20.6054 16.7851 20.2656C16.4453 19.9023 15.8945 19.8906 15.5312 20.2656L12.6484 23.0547C12.3554 23.3359 12.2265 23.6172 12.2265 23.9687C12.2265 24.3203 12.3554 24.5898 12.6484 24.8711L15.5312 27.6719Z" fill="black" fill-opacity="0.85"/>
</g>
<defs>
<clipPath id="clip0_2207_24566">
<rect width="24.5039" height="27.9318" fill="white" transform="translate(0.0273438 0.0126953)"/>
</clipPath>
</defs>
</svg>
