<svg width="28" height="28" viewBox="0 0 28 28" fill="none" xmlns="http://www.w3.org/2000/svg">
<g id="arrow.up.and.down.and.arrow.left.and.right" clip-path="url(#clip0_2124_13755)">
<g id="Group">
<path id="Vector" d="M0.376578 14.3776L4.12658 17.9283C4.91173 18.6901 5.9547 18.0924 5.9547 17.0729V14.5885H12.4586V21.1158H9.96252C8.9547 21.1158 8.35705 22.1471 9.10705 22.9322L12.6578 26.6822C13.1617 27.2096 13.8766 27.1861 14.357 26.6705L17.8961 22.9322C18.6578 22.1471 18.0602 21.1158 17.0406 21.1158H14.5563V14.5885H21.0485V17.0729C21.0485 18.0924 22.0797 18.6901 22.8766 17.9283L26.6149 14.3893C27.1188 13.8971 27.1422 13.194 26.6266 12.6901L22.8766 9.13927C22.0797 8.38927 21.0485 8.98693 21.0485 9.99474V12.4908H14.5563V5.95177H17.0406C18.0602 5.95177 18.6578 4.92052 17.8961 4.13536L14.3453 0.385365C13.8531 -0.141979 13.1383 -0.118541 12.6461 0.397084L9.10705 4.13536C8.35705 4.92052 8.9547 5.95177 9.96252 5.95177H12.4586V12.4908H5.9547V9.99474C5.9547 8.98693 4.91173 8.38927 4.12658 9.13927L0.388297 12.6783C-0.115609 13.1705 -0.139047 13.8736 0.376578 14.3776Z" fill="black" fill-opacity="0.85"/>
</g>
</g>
<defs>
<clipPath id="clip0_2124_13755">
<rect width="27.0032" height="27.1028" fill="white"/>
</clipPath>
</defs>
</svg>
