<svg width="20" height="19" viewBox="0 0 20 19" fill="none" xmlns="http://www.w3.org/2000/svg">
<g clip-path="url(#clip0_2207_24606)">
<path d="M17.768 0.0355225C17.2993 0.0355225 16.9243 0.234742 16.4321 0.480835L1.37354 7.79333C0.377441 8.28552 0.0610352 8.73083 0.0610352 9.35192C0.0610352 9.97302 0.377441 10.43 1.37354 10.9222L16.4321 18.223C16.936 18.4691 17.311 18.6683 17.7798 18.6683C18.6469 18.6683 19.1743 18.0121 19.1743 16.9926V1.7113C19.1743 0.691773 18.6352 0.0355225 17.768 0.0355225ZM17.1704 2.26208C17.2407 2.26208 17.2876 2.32068 17.2876 2.40271L17.2993 16.3011C17.2993 16.3949 17.2524 16.4418 17.1821 16.4418C17.1352 16.4418 17.0883 16.4183 17.0415 16.3949L2.68604 9.48083C2.62745 9.45739 2.58057 9.41052 2.58057 9.35192C2.58057 9.29333 2.62745 9.24646 2.68604 9.22302L17.0298 2.32068C17.0766 2.28552 17.1235 2.26208 17.1704 2.26208Z" fill="black" fill-opacity="0.85"/>
</g>
<defs>
<clipPath id="clip0_2207_24606">
<rect width="19.1133" height="18.6445" fill="white" transform="translate(0.0610352 0.0238037)"/>
</clipPath>
</defs>
</svg>
