<svg width="22" height="22" viewBox="0 0 22 22" fill="none" xmlns="http://www.w3.org/2000/svg">
<g clip-path="url(#clip0_2207_24440)">
<path d="M3.69239 21.6131H17.9072C20.3682 21.6131 21.5869 20.3943 21.5869 17.9802V3.67163C21.5869 1.25757 20.3682 0.0388184 17.9072 0.0388184H3.69239C1.24317 0.0388184 0.0126953 1.24585 0.0126953 3.67163V17.9802C0.0126953 20.406 1.24317 21.6131 3.69239 21.6131ZM3.71582 19.7263C2.54395 19.7263 1.89942 19.1052 1.89942 17.8865V3.76538C1.89942 2.54663 2.54395 1.92554 3.71582 1.92554H17.8838C19.0439 1.92554 19.7002 2.54663 19.7002 3.76538V17.8865C19.7002 19.1052 19.0439 19.7263 17.8838 19.7263H3.71582Z" fill="black" fill-opacity="0.85"/>
<path d="M5.6377 10.656H9.69239C10.3018 10.656 10.665 10.3865 10.665 9.68337V5.60524C10.665 5.14821 10.29 4.78493 9.83301 4.78493C9.37598 4.78493 9.0127 5.14821 9.0127 5.60524V6.17946L9.12989 8.03102L6.07129 4.85524C5.73145 4.49196 5.16895 4.49196 4.82911 4.84352C4.48926 5.18337 4.50098 5.74587 4.84082 6.08571L8.00489 9.12087L6.21192 9.00368H5.6377C5.18067 9.00368 4.80567 9.36696 4.80567 9.82399C4.80567 10.281 5.18067 10.656 5.6377 10.656ZM11.7783 16.8201C12.2354 16.8201 12.5986 16.4568 12.5986 15.9998V15.4256L12.4815 13.574L15.54 16.7498C15.8799 17.1131 16.4424 17.1131 16.7822 16.7615C17.1221 16.4216 17.1104 15.8474 16.7705 15.5193L13.6065 12.4842L15.3994 12.6013H15.9736C16.4307 12.6013 16.8057 12.2381 16.8057 11.781C16.8057 11.3123 16.4307 10.949 15.9736 10.949H11.9189C11.3096 10.949 10.9463 11.2185 10.9463 11.9099V15.9998C10.9463 16.4568 11.3213 16.8201 11.7783 16.8201Z" fill="black" fill-opacity="0.85"/>
</g>
<defs>
<clipPath id="clip0_2207_24440">
<rect width="21.5742" height="21.5977" fill="white" transform="translate(0.0126953 0.0153809)"/>
</clipPath>
</defs>
</svg>
