<svg width="30" height="26" viewBox="0 0 30 26" fill="none" xmlns="http://www.w3.org/2000/svg">
<g clip-path="url(#clip0_2207_2405)">
<path d="M10.2516 21.4752C10.2516 23.9244 11.4703 25.1432 13.8844 25.1432H26.3297C28.7555 25.1432 29.9625 23.9244 29.9625 21.4752V3.69788C29.9625 1.26038 28.7555 0.0181885 26.3297 0.0181885H13.8844C11.4703 0.0181885 10.2516 1.26038 10.2516 3.69788V21.4752ZM12.1383 21.4401V3.73303C12.1383 2.56116 12.7711 1.90491 13.9898 1.90491H26.2359C27.4547 1.90491 28.0758 2.56116 28.0758 3.73303V21.4401C28.0758 22.612 27.4547 23.2565 26.2359 23.2565H13.9898C12.7711 23.2565 12.1383 22.612 12.1383 21.4401Z" fill="black" fill-opacity="0.85"/>
<path d="M25.7789 18.1705C26.2008 18.1705 26.5172 17.9362 26.5172 17.4791V6.76819C26.5172 6.29944 26.2008 6.07678 25.7789 6.07678C24.4898 6.07678 21.1617 8.01038 21.1617 12.1237C21.1617 16.237 24.4898 18.1705 25.7789 18.1705ZM16.9195 15.1237C18.7945 15.1237 20.2242 13.7877 20.2125 12.1237C20.2008 10.4479 18.7945 9.11194 16.9195 9.11194C15.1617 9.11194 13.7086 10.4479 13.7086 12.1237C13.7086 13.7877 15.1617 15.1237 16.9195 15.1237Z" fill="black" fill-opacity="0.85"/>
<path d="M0.31406 10.6002C-0.271877 11.2565 0.103123 12.1471 0.982029 12.1471H2.97421V17.2799C2.97421 17.7955 3.37265 18.194 3.89999 18.194C4.4039 18.194 4.80234 17.7955 4.80234 17.2799V12.1471H6.77109C7.69687 12.1471 8.01327 11.2213 7.45077 10.6002L4.54452 7.31897C4.15781 6.87366 3.60702 6.87366 3.20859 7.31897L0.31406 10.6002Z" fill="black" fill-opacity="0.85"/>
</g>
<defs>
<clipPath id="clip0_2207_2405">
<rect width="29.931" height="25.1367" fill="white" transform="translate(0.0314941 0.0181885)"/>
</clipPath>
</defs>
</svg>
