<svg width="22" height="22" viewBox="0 0 22 22" fill="none" xmlns="http://www.w3.org/2000/svg">
<g clip-path="url(#clip0_2207_24680)">
<path d="M3.77002 21.6215H17.9848C20.4458 21.6215 21.6645 20.4027 21.6645 17.9886V3.68005C21.6645 1.26599 20.4458 0.0472412 17.9848 0.0472412H3.77002C1.3208 0.0472412 0.090332 1.25427 0.090332 3.68005V17.9886C0.090332 20.4144 1.3208 21.6215 3.77002 21.6215ZM3.79345 19.7347C2.62158 19.7347 1.97705 19.1136 1.97705 17.8949V3.7738C1.97705 2.55505 2.62158 1.93396 3.79345 1.93396H17.9614C19.1215 1.93396 19.7778 2.55505 19.7778 3.7738V17.8949C19.7778 19.1136 19.1215 19.7347 17.9614 19.7347H3.79345Z" fill="black" fill-opacity="0.85"/>
<path d="M8.70361 15.3988L15.3715 11.4496C15.8637 11.1683 15.852 10.4886 15.3715 10.1957L8.70361 6.24644C8.19971 5.95347 7.53174 6.17612 7.53174 6.75034V14.8949C7.53174 15.4574 8.15283 15.7269 8.70361 15.3988Z" fill="black" fill-opacity="0.85"/>
</g>
<defs>
<clipPath id="clip0_2207_24680">
<rect width="21.5742" height="21.5977" fill="white" transform="translate(0.090332 0.0238037)"/>
</clipPath>
</defs>
</svg>
