<svg width="24" height="24" viewBox="0 0 24 24" fill="none" xmlns="http://www.w3.org/2000/svg">
<g clip-path="url(#clip0_2207_23736)">
<path d="M11.9972 23.9204C18.5363 23.9204 23.9503 18.4947 23.9503 11.9673C23.9503 5.42822 18.5246 0.0141602 11.9855 0.0141602C5.45813 0.0141602 0.0440674 5.42822 0.0440674 11.9673C0.0440674 18.4947 5.46985 23.9204 11.9972 23.9204ZM11.9972 21.9283C6.46595 21.9283 2.04798 17.4986 2.04798 11.9673C2.04798 6.43604 6.45423 2.00635 11.9855 2.00635C17.5168 2.00635 21.9582 6.43604 21.9582 11.9673C21.9582 17.4986 17.5285 21.9283 11.9972 21.9283Z" fill="black" fill-opacity="0.85"/>
<path d="M15.6535 9.06104C15.1379 9.06104 14.798 9.4126 14.798 9.9751V12.0025L14.9738 13.8306L13.2863 12.0259L8.97376 7.71338C8.79798 7.54932 8.58704 7.44385 8.30579 7.44385C7.79016 7.44385 7.4386 7.78369 7.4386 8.31104C7.4386 8.54541 7.55579 8.77978 7.71985 8.94385L12.0441 13.2564L13.8722 14.9673L12.1379 14.7798H10.005C9.44251 14.7798 9.07923 15.1197 9.07923 15.6353C9.07923 16.1509 9.43079 16.4908 9.98157 16.4908H15.5363C16.1339 16.4908 16.5207 16.2212 16.5207 15.5298V9.99854C16.5207 9.44775 16.1691 9.06104 15.6535 9.06104Z" fill="black" fill-opacity="0.85"/>
</g>
<defs>
<clipPath id="clip0_2207_23736">
<rect width="23.9062" height="23.918" fill="white" transform="translate(0.0440674 0.0141602)"/>
</clipPath>
</defs>
</svg>
