<svg width="27" height="27" viewBox="0 0 27 27" fill="none" xmlns="http://www.w3.org/2000/svg">
<g clip-path="url(#clip0_2207_24570)">
<path d="M1.39389 15.8973L10.7806 25.284C12.515 27.0184 14.2259 27.0301 15.9485 25.3191L25.3821 15.8738C27.0931 14.1629 27.0814 12.4402 25.347 10.7059L15.972 1.33091C14.2376 -0.403471 12.5267 -0.426909 10.804 1.29575L1.35873 10.7293C-0.363921 12.452 -0.340483 14.1629 1.39389 15.8973ZM2.75326 14.5965C1.92123 13.7527 1.89779 12.8738 2.76498 12.0066L12.0696 2.702C12.9368 1.83481 13.8157 1.84653 14.6595 2.69028L23.9876 12.0184C24.8196 12.8504 24.8431 13.741 23.9759 14.6082L14.6712 23.9129C13.804 24.7801 12.9017 24.7566 12.0814 23.9363L2.75326 14.5965Z" fill="black" fill-opacity="0.85"/>
<path d="M8.29614 16.9988C8.29614 17.6668 8.62427 18.0652 9.23364 18.0535C9.8313 18.0418 10.1711 17.6668 10.1711 16.9988V13.741C10.1711 12.6746 10.675 12.1824 11.6828 12.1824H14.7414V14.0223C14.7414 14.784 15.5969 15.1355 16.2414 14.5848L19.0422 12.159C19.7453 11.5496 19.7453 10.9285 19.0422 10.3191L16.2414 7.90512C15.5969 7.34262 14.7414 7.7059 14.7414 8.4559V10.2957H11.6594C9.37427 10.2957 8.29614 11.3855 8.29614 13.6473V16.9988Z" fill="black" fill-opacity="0.85"/>
</g>
<defs>
<clipPath id="clip0_2207_24570">
<rect width="26.5768" height="26.593" fill="white" transform="translate(0.079834 0.0168457)"/>
</clipPath>
</defs>
</svg>
