<svg width="22" height="22" viewBox="0 0 22 22" fill="none" xmlns="http://www.w3.org/2000/svg">
<g clip-path="url(#clip0_2207_24392)">
<path d="M3.74903 21.6119H17.9638C20.4248 21.6119 21.6435 20.3931 21.6435 17.979V3.67041C21.6435 1.25635 20.4248 0.0375977 17.9638 0.0375977H3.74903C1.29981 0.0375977 0.0693359 1.24463 0.0693359 3.67041V17.979C0.0693359 20.4048 1.29981 21.6119 3.74903 21.6119ZM3.77246 19.7251C2.60059 19.7251 1.95606 19.104 1.95606 17.8853V3.76416C1.95606 2.54541 2.60059 1.92432 3.77246 1.92432H17.9404C19.1005 1.92432 19.7568 2.54541 19.7568 3.76416V17.8853C19.7568 19.104 19.1005 19.7251 17.9404 19.7251H3.77246Z" fill="black" fill-opacity="0.85"/>
<path d="M15.9248 10.7954C16.3818 10.7954 16.7568 10.4322 16.7568 9.9751V5.89697C16.7568 5.19385 16.3935 4.92432 15.7841 4.92432H11.7295C11.2724 4.92432 10.8974 5.29932 10.8974 5.75635C10.8974 6.21338 11.2724 6.57666 11.7295 6.57666H12.3037L14.0966 6.45947L11.4482 8.979C11.1084 9.30713 11.0966 9.88135 11.4365 10.2212C11.7881 10.5728 12.3388 10.5845 12.6904 10.2095L15.2216 7.54932L15.1045 9.40088V9.9751C15.1045 10.4322 15.4677 10.7954 15.9248 10.7954ZM10.0068 16.7134C10.4638 16.7134 10.8271 16.3384 10.8271 15.8814C10.8271 15.4244 10.4638 15.0611 10.0068 15.0611H9.43261L7.63964 15.1783L10.2763 12.6587C10.6162 12.3306 10.6279 11.7564 10.2881 11.4165C9.94824 11.065 9.38574 11.0533 9.04589 11.4283L6.51464 14.0884L6.63183 12.2369V11.6626C6.63183 11.2056 6.25683 10.8423 5.7998 10.8423C5.34277 10.8423 4.97949 11.2056 4.97949 11.6626V15.7408C4.97949 16.4439 5.33105 16.7134 5.94042 16.7134H10.0068Z" fill="black" fill-opacity="0.85"/>
</g>
<defs>
<clipPath id="clip0_2207_24392">
<rect width="21.5742" height="21.5977" fill="white" transform="translate(0.0693359 0.0141602)"/>
</clipPath>
</defs>
</svg>
