<svg width="24" height="24" viewBox="0 0 24 24" fill="none" xmlns="http://www.w3.org/2000/svg">
<g clip-path="url(#clip0_2207_1475)">
<path d="M12.0097 23.9287C18.5488 23.9287 23.9628 18.503 23.9628 11.9756C23.9628 5.43652 18.5371 0.0224609 11.998 0.0224609C5.4707 0.0224609 0.0566406 5.43652 0.0566406 11.9756C0.0566406 18.503 5.48242 23.9287 12.0097 23.9287ZM12.0097 21.9366C6.47852 21.9366 2.06055 17.5069 2.06055 11.9756C2.06055 6.44434 6.4668 2.01465 11.998 2.01465C17.5293 2.01465 21.9707 6.44434 21.9707 11.9756C21.9707 17.5069 17.541 21.9366 12.0097 21.9366Z" fill="black" fill-opacity="0.85"/>
<path d="M9.33789 16.792C9.75976 16.792 10.0527 16.5225 10.0527 16.2647V15.96L6.19726 12.4209C5.82226 12.0694 5.62305 11.6358 5.62305 11.1787C5.62305 10.7217 5.81055 10.2998 6.19726 9.94824L10.0527 6.4209V6.12793C10.0527 5.83496 9.75976 5.57715 9.32617 5.57715C9.0332 5.57715 8.83398 5.69434 8.51758 5.99902L3.67773 10.5342C3.44336 10.7569 3.37305 10.9678 3.37305 11.1787C3.37305 11.3897 3.44336 11.6123 3.67773 11.835L8.51758 16.3819C8.82226 16.6631 9.04492 16.792 9.33789 16.792ZM12.4316 16.792C12.83 16.792 13.1347 16.4873 13.1347 16.0655V13.7217H13.3222C15.7011 13.7217 17.2363 14.3311 18.2675 16.335C18.4668 16.71 18.748 16.792 19.0175 16.792C19.3574 16.792 19.6386 16.4991 19.6386 15.9834C19.6386 11.4366 17.6933 8.65918 13.3222 8.65918H13.1347V6.32715C13.1347 5.91699 12.83 5.57715 12.4199 5.57715C12.1269 5.57715 11.9277 5.70605 11.6113 5.99902L6.7832 10.5342C6.53711 10.7686 6.45508 10.9678 6.45508 11.1787C6.45508 11.3897 6.53711 11.6006 6.7832 11.835L11.6113 16.3819C11.9043 16.6631 12.1504 16.792 12.4316 16.792Z" fill="black" fill-opacity="0.85"/>
</g>
<defs>
<clipPath id="clip0_2207_1475">
<rect width="23.9062" height="23.918" fill="white" transform="translate(0.0566406 0.0224609)"/>
</clipPath>
</defs>
</svg>
