<svg width="22" height="18" viewBox="0 0 22 18" fill="none" xmlns="http://www.w3.org/2000/svg">
<g clip-path="url(#clip0_2207_23432)">
<path d="M0.0294189 8.8955C0.0294189 9.18847 0.158325 9.458 0.3927 9.68067L8.17395 17.4502C8.40833 17.6729 8.65442 17.7783 8.93567 17.7783C9.50989 17.7783 9.96692 17.3565 9.96692 16.7705C9.96692 16.4893 9.86145 16.208 9.67395 16.0322L7.04895 13.3604L2.40833 9.12989L2.16223 9.70411L5.93567 9.93848H20.7599C21.3692 9.93848 21.7911 9.50488 21.7911 8.8955C21.7911 8.28613 21.3692 7.85254 20.7599 7.85254H5.93567L2.16223 8.08692L2.40833 8.67286L7.04895 4.43067L9.67395 1.75879C9.86145 1.57129 9.96692 1.30176 9.96692 1.02051C9.96692 0.43457 9.50989 0.0126953 8.93567 0.0126953C8.65442 0.0126953 8.40833 0.106445 8.15051 0.364257L0.3927 8.11036C0.158325 8.333 0.0294189 8.60254 0.0294189 8.8955Z" fill="black" fill-opacity="0.85"/>
</g>
<defs>
<clipPath id="clip0_2207_23432">
<rect width="21.7617" height="17.7773" fill="white" transform="translate(0.0294189 0.0126953)"/>
</clipPath>
</defs>
</svg>
