<svg width="24" height="24" viewBox="0 0 24 24" fill="none" xmlns="http://www.w3.org/2000/svg">
<g clip-path="url(#clip0_2207_23664)">
<path d="M12.0371 23.9204C18.5762 23.9204 23.9902 18.4947 23.9902 11.9673C23.9902 5.42822 18.5645 0.0141602 12.0254 0.0141602C5.49804 0.0141602 0.0839844 5.42822 0.0839844 11.9673C0.0839844 18.4947 5.50976 23.9204 12.0371 23.9204ZM12.0371 21.9283C6.50586 21.9283 2.08789 17.4986 2.08789 11.9673C2.08789 6.43604 6.49414 2.00635 12.0254 2.00635C17.5567 2.00635 21.9981 6.43604 21.9981 11.9673C21.9981 17.4986 17.5684 21.9283 12.0371 21.9283Z" fill="black" fill-opacity="0.85"/>
<path d="M8.34571 9.06104C7.83008 9.06104 7.47852 9.44775 7.47852 9.99854V15.5298C7.47852 16.2212 7.86524 16.4908 8.4629 16.4908H14.0176C14.5684 16.4908 14.9199 16.1509 14.9199 15.6353C14.9199 15.1197 14.5567 14.7798 13.9942 14.7798H11.8613L10.127 14.9673L11.9551 13.2564L16.2793 8.94385C16.4434 8.77978 16.5606 8.54541 16.5606 8.31104C16.5606 7.78369 16.209 7.44385 15.6934 7.44385C15.4121 7.44385 15.1895 7.54932 15.0254 7.71338L10.7129 12.0259L9.0254 13.8306L9.20118 12.0025V9.9751C9.20118 9.4126 8.86133 9.06104 8.34571 9.06104Z" fill="black" fill-opacity="0.85"/>
</g>
<defs>
<clipPath id="clip0_2207_23664">
<rect width="23.9062" height="23.918" fill="white" transform="translate(0.0839844 0.0141602)"/>
</clipPath>
</defs>
</svg>
