<svg width="35" height="25" viewBox="0 0 35 25" fill="none" xmlns="http://www.w3.org/2000/svg">
<g clip-path="url(#clip0_2207_22013)">
<path d="M0.570566 13.2777L10.4846 19.0199C11.2346 19.4535 12.1604 19.0199 12.1604 18.2113V6.44568C12.1604 5.62536 11.2229 5.15661 10.4846 5.59021L0.570566 11.4027C-0.0974025 11.7894 -0.109122 12.8676 0.570566 13.2777ZM17.5042 24.5511C17.9612 24.5511 18.3714 24.1879 18.3714 23.7308V0.855835C18.3714 0.398804 17.9612 0.0472412 17.5042 0.0472412C17.0471 0.0472412 16.6487 0.398804 16.6487 0.855835V23.7308C16.6487 24.1879 17.0471 24.5511 17.5042 24.5511ZM34.4495 13.2777C35.1292 12.8676 35.1175 11.7894 34.4495 11.4027L24.5354 5.59021C23.7971 5.15661 22.8596 5.62536 22.8596 6.44568V18.2113C22.8596 19.0199 23.7854 19.4535 24.5354 19.0199L34.4495 13.2777Z" fill="black" fill-opacity="0.85"/>
</g>
<defs>
<clipPath id="clip0_2207_22013">
<rect width="34.8897" height="24.5273" fill="white" transform="translate(0.0651855 0.0238037)"/>
</clipPath>
</defs>
</svg>
