<svg width="48" height="20" viewBox="0 0 48 20" fill="none" xmlns="http://www.w3.org/2000/svg">
<g clip-path="url(#clip0_2207_1351)">
<path d="M0.0356445 9.72558C0.0356445 10.1592 0.223145 10.5811 0.598145 10.9327L8.81298 18.6905C9.36376 19.2061 9.79736 19.417 10.3481 19.417C11.1333 19.417 11.7075 18.8311 11.7075 18.0577V14.0967H19.5239C21.2348 14.0967 22.2661 13.0537 22.2661 11.3897V8.07324C22.2661 6.38574 21.2465 5.37793 19.5239 5.37793H11.7075V1.44043C11.7075 0.655273 11.1098 0.0224609 10.3364 0.0224609C9.8208 0.0224609 9.46923 0.209961 8.81298 0.807617L0.598145 8.50684C0.199707 8.88184 0.0356445 9.29199 0.0356445 9.72558ZM47.4262 9.72558C47.4262 9.30371 47.2622 8.88184 46.8637 8.50684L38.6372 0.807617C37.9926 0.22168 37.6528 0.0341797 37.1254 0.0341797C36.352 0.0341797 35.7544 0.655273 35.7544 1.44043V5.37793H27.9379C26.2153 5.37793 25.1958 6.38574 25.1958 8.07324V11.3897C25.1958 13.0537 26.227 14.0967 27.9379 14.0967H35.7544V18.0577C35.7544 18.8311 36.3286 19.4053 37.1137 19.4053C37.6645 19.4053 38.0864 19.1944 38.6372 18.6905L46.8637 10.9327C47.2387 10.5811 47.4262 10.1475 47.4262 9.72558Z" fill="black" fill-opacity="0.85"/>
</g>
<defs>
<clipPath id="clip0_2207_1351">
<rect width="47.3906" height="19.418" fill="white" transform="translate(0.0356445 0.0224609)"/>
</clipPath>
</defs>
</svg>
