<svg width="26" height="22" viewBox="0 0 26 22" fill="none" xmlns="http://www.w3.org/2000/svg">
<g clip-path="url(#clip0_2207_1297)">
<path d="M25.295 10.7686C25.295 10.3702 25.1544 9.93652 24.6974 9.50293L15.4513 0.854492C14.8302 0.268555 14.4435 0.0224609 13.8692 0.0224609C13.0489 0.0224609 12.463 0.666992 12.463 1.45215V6.15137H2.72473C1.02551 6.15137 0.0294189 7.1123 0.0294189 8.78808V12.7608C0.0294189 14.4366 1.02551 15.3975 2.72473 15.3975H12.463V20.1436C12.463 20.9287 13.0489 21.5147 13.8458 21.5147C14.42 21.5147 14.8888 21.2803 15.4513 20.753L24.6974 12.0225C25.1427 11.6006 25.295 11.1553 25.295 10.7686Z" fill="black" fill-opacity="0.85"/>
</g>
<defs>
<clipPath id="clip0_2207_1297">
<rect width="25.2656" height="21.5039" fill="white" transform="translate(0.0294189 0.0224609)"/>
</clipPath>
</defs>
</svg>
