<svg width="22" height="22" viewBox="0 0 22 22" fill="none" xmlns="http://www.w3.org/2000/svg">
<g clip-path="url(#clip0_2207_23851)">
<path d="M3.72583 21.6174H17.9406C20.4016 21.6174 21.6203 20.3986 21.6203 17.9845V3.6759C21.6203 1.26184 20.4016 0.0430908 17.9406 0.0430908H3.72583C1.27661 0.0430908 0.0461426 1.25012 0.0461426 3.6759V17.9845C0.0461426 20.4103 1.27661 21.6174 3.72583 21.6174Z" fill="black" fill-opacity="0.85"/>
<path d="M17.8 11.8439C17.8 12.3009 17.4133 12.6877 16.9797 12.6759L12.7258 12.6291C12.5031 12.6174 12.2922 12.5236 12.1633 12.383C11.8352 12.0666 11.8352 11.6213 12.1516 11.3049C12.3156 11.1408 12.5031 11.0705 12.7141 11.0705L14.4953 11.0939L15.175 11.1174L14.7414 10.7306L9.22193 5.19934C8.90553 4.88293 8.89381 4.41418 9.22193 4.08606C9.52662 3.76965 10.0071 3.76965 10.3352 4.08606L15.8664 9.61731L16.2414 10.0275L16.2063 9.38293L16.1828 7.58996C16.1711 7.37903 16.2649 7.17981 16.4172 7.02746C16.7453 6.69934 17.2023 6.69934 17.5188 7.02746C17.6594 7.16809 17.7531 7.40246 17.7531 7.6134L17.8 11.8439ZM3.86646 9.79309C3.86646 9.32434 4.22974 8.98449 4.67506 8.98449L8.92895 9.01965C9.11645 9.01965 9.35083 9.12512 9.49145 9.25403C9.81958 9.59387 9.81959 10.0392 9.50318 10.3556C9.33912 10.508 9.15162 10.59 8.95239 10.59L7.14771 10.5549L6.46802 10.5314L6.90162 10.9064L12.4328 16.4494C12.7609 16.7658 12.7609 17.2228 12.4328 17.5509C12.1164 17.8674 11.6477 17.8791 11.3313 17.5509L5.78833 12.0314L5.38989 11.5978L5.43677 12.2658L5.46021 14.0588C5.46021 14.2697 5.38989 14.4572 5.23756 14.6213C4.92114 14.9377 4.45239 14.9377 4.13598 14.6213C3.99536 14.4924 3.92505 14.2697 3.91333 14.047L3.86646 9.79309Z" fill="white"/>
</g>
<defs>
<clipPath id="clip0_2207_23851">
<rect width="21.5742" height="21.5977" fill="white" transform="translate(0.0461426 0.0196533)"/>
</clipPath>
</defs>
</svg>
