<svg width="22" height="18" viewBox="0 0 22 18" fill="none" xmlns="http://www.w3.org/2000/svg">
<g clip-path="url(#clip0_2207_23480)">
<path d="M21.8078 8.89819C21.8078 8.60522 21.6906 8.33569 21.4563 8.11304L13.6867 0.366943C13.4289 0.109131 13.1828 0.0153809 12.9016 0.0153809C12.3273 0.0153809 11.882 0.437256 11.882 1.02319C11.882 1.30444 11.9758 1.57397 12.1633 1.76147L14.7883 4.43335L19.4406 8.67554L19.675 8.0896L15.9016 7.85522H1.07739C0.468018 7.85522 0.0461426 8.28882 0.0461426 8.89819C0.0461426 9.50757 0.468018 9.94116 1.07739 9.94116H15.9016L19.675 9.70679L19.4406 9.13257L14.7883 13.3631L12.1633 16.0349C11.9758 16.2107 11.882 16.492 11.882 16.7732C11.882 17.3592 12.3273 17.781 12.9016 17.781C13.1828 17.781 13.4289 17.6756 13.6633 17.4529L21.4563 9.68335C21.6906 9.46069 21.8078 9.19116 21.8078 8.89819Z" fill="black" fill-opacity="0.85"/>
</g>
<defs>
<clipPath id="clip0_2207_23480">
<rect width="21.7617" height="17.7773" fill="white" transform="translate(0.0461426 0.0153809)"/>
</clipPath>
</defs>
</svg>
