<svg width="13" height="24" viewBox="0 0 13 24" fill="none" xmlns="http://www.w3.org/2000/svg">
<g clip-path="url(#clip0_2207_24602)">
<path d="M3.60021 22.6589C4.25646 22.6589 4.61975 22.2722 4.61975 21.6042V12.5456H3.75256C4.72521 15.3581 7.51428 17.6784 11.2408 18.9206C11.9088 19.1667 12.4479 18.8269 12.6354 18.3698C12.8463 17.9128 12.694 17.3386 12.026 17.0339C7.67834 15.2527 4.61975 12.487 4.61975 8.23317V3.86208H2.56896V21.6042C2.56896 22.2722 2.93225 22.6589 3.60021 22.6589ZM0.904901 5.3738H6.28381C7.11584 5.3738 7.32678 4.79958 6.88146 4.15505L4.25646 0.41676C3.88146 -0.110583 3.31896 -0.122302 2.93225 0.41676L0.307245 4.14333C-0.149786 4.79958 0.0611515 5.3738 0.904901 5.3738Z" fill="black" fill-opacity="0.85"/>
</g>
<defs>
<clipPath id="clip0_2207_24602">
<rect width="12.6525" height="23.3819" fill="white" transform="translate(0.0712891 0.0168457)"/>
</clipPath>
</defs>
</svg>
