<svg width="22" height="22" viewBox="0 0 22 22" fill="none" xmlns="http://www.w3.org/2000/svg">
<g clip-path="url(#clip0_2207_23746)">
<path d="M3.72803 21.6119H17.9428C20.4038 21.6119 21.6225 20.3931 21.6225 17.979V3.67041C21.6225 1.25635 20.4038 0.0375977 17.9428 0.0375977H3.72803C1.27881 0.0375977 0.0483398 1.24463 0.0483398 3.67041V17.979C0.0483398 20.4048 1.27881 21.6119 3.72803 21.6119ZM3.75146 19.7251C2.57959 19.7251 1.93506 19.104 1.93506 17.8853V3.76416C1.93506 2.54541 2.57959 1.92432 3.75146 1.92432H17.9194C19.0795 1.92432 19.7358 2.54541 19.7358 3.76416V17.8853C19.7358 19.104 19.0795 19.7251 17.9194 19.7251H3.75146Z" fill="black" fill-opacity="0.85"/>
<path d="M14.5092 7.90088C13.9936 7.90088 13.6538 8.25244 13.6538 8.81494V10.8423L13.8295 12.6704L12.1421 10.8658L7.82959 6.55322C7.66553 6.38916 7.44287 6.28369 7.16162 6.28369C6.646 6.28369 6.30615 6.62354 6.30615 7.15088C6.30615 7.38525 6.41162 7.61963 6.57568 7.78369L10.8999 12.0962L12.728 13.8072L10.9936 13.6197H8.86084C8.29834 13.6197 7.93506 13.9595 7.93506 14.4751C7.93506 14.9908 8.28662 15.3306 8.8374 15.3306H14.3921C14.9897 15.3306 15.3764 15.0611 15.3764 14.3697V8.83838C15.3764 8.2876 15.0249 7.90088 14.5092 7.90088Z" fill="black" fill-opacity="0.85"/>
</g>
<defs>
<clipPath id="clip0_2207_23746">
<rect width="21.5742" height="21.5977" fill="white" transform="translate(0.0483398 0.0141602)"/>
</clipPath>
</defs>
</svg>
