<svg width="22" height="22" viewBox="0 0 22 22" fill="none" xmlns="http://www.w3.org/2000/svg">
<g clip-path="url(#clip0_2207_23727)">
<path d="M3.70288 21.6131H17.9177C20.3787 21.6131 21.5974 20.3943 21.5974 17.9802V3.67163C21.5974 1.25757 20.3787 0.0388184 17.9177 0.0388184H3.70288C1.25366 0.0388184 0.0231934 1.24585 0.0231934 3.67163V17.9802C0.0231934 20.406 1.25366 21.6131 3.70288 21.6131Z" fill="black" fill-opacity="0.85"/>
<path d="M14.6013 7.80835C15.1287 7.80835 15.492 8.20679 15.492 8.781V14.4763C15.492 15.1912 15.0935 15.4724 14.4724 15.4724H8.75366C8.17944 15.4724 7.81616 15.1209 7.81616 14.5818C7.81616 14.0545 8.19116 13.7029 8.7771 13.7029H10.9568L12.7498 13.8904L10.863 12.1209L6.42163 7.70288C6.24585 7.5271 6.14038 7.281 6.14038 7.04663C6.14038 6.49585 6.49194 6.14429 7.01928 6.14429C7.31225 6.14429 7.54663 6.24976 7.72241 6.42554L12.1404 10.8552L13.8865 12.7185L13.7107 10.8318V8.75757C13.7107 8.17163 14.0623 7.80835 14.6013 7.80835Z" fill="white"/>
</g>
<defs>
<clipPath id="clip0_2207_23727">
<rect width="21.5742" height="21.5977" fill="white" transform="translate(0.0231934 0.0153809)"/>
</clipPath>
</defs>
</svg>
