<svg width="24" height="24" viewBox="0 0 24 24" fill="none" xmlns="http://www.w3.org/2000/svg">
<g clip-path="url(#clip0_2207_24026)">
<path d="M11.9867 23.9272C18.5258 23.9272 23.9398 18.5015 23.9398 11.9741C23.9398 5.43506 18.5141 0.0209961 11.975 0.0209961C5.44763 0.0209961 0.0335693 5.43506 0.0335693 11.9741C0.0335693 18.5015 5.45935 23.9272 11.9867 23.9272ZM11.9867 21.9351C6.45545 21.9351 2.03748 17.5054 2.03748 11.9741C2.03748 6.44288 6.44373 2.01319 11.975 2.01319C17.5063 2.01319 21.9477 6.44288 21.9477 11.9741C21.9477 17.5054 17.518 21.9351 11.9867 21.9351Z" fill="black" fill-opacity="0.85"/>
<path d="M13.0766 5.95068C10.2524 5.95068 8.5531 7.97802 8.5531 10.7202V14.2124L8.58826 15.6069L7.86169 14.6812L6.68982 13.4624C6.53748 13.3101 6.32654 13.2046 6.08045 13.2046C5.59998 13.2046 5.22498 13.5679 5.22498 14.0366C5.22498 14.2827 5.30701 14.4819 5.48279 14.646L8.64685 17.7515C8.84607 17.9507 9.09216 18.0679 9.36169 18.0679C9.64295 18.0679 9.87732 17.9507 10.0766 17.7515L13.2641 14.6343C13.4281 14.4702 13.5102 14.271 13.5102 14.0249C13.5102 13.5679 13.1469 13.2046 12.6547 13.2046C12.432 13.2046 12.2094 13.2866 12.057 13.4507L10.6391 14.9272L10.1352 15.6069L10.1938 14.2124V10.7202C10.1938 8.99755 11.1781 7.67333 12.9828 7.67333C14.8344 7.67333 15.9711 8.9624 15.9711 10.7319C15.9711 10.8726 15.9711 12.314 15.9711 12.3608C15.9711 12.853 16.2641 13.2398 16.8031 13.2398C17.3539 13.2398 17.6469 12.853 17.6469 12.3374C17.6469 12.2788 17.6469 10.8726 17.6469 10.7319C17.6469 7.98974 15.8891 5.95068 13.0766 5.95068Z" fill="black" fill-opacity="0.85"/>
</g>
<defs>
<clipPath id="clip0_2207_24026">
<rect width="23.9062" height="23.918" fill="white" transform="translate(0.0335693 0.0209961)"/>
</clipPath>
</defs>
</svg>
