<svg width="25" height="19" viewBox="0 0 25 19" fill="none" xmlns="http://www.w3.org/2000/svg">
<g clip-path="url(#clip0_2207_24210)">
<path d="M13.2778 17.7824C13.559 17.7824 13.8051 17.6887 14.0395 17.466L21.8325 9.68482C22.0668 9.46216 22.184 9.19263 22.184 8.89966C22.184 8.61841 22.0668 8.34888 21.8325 8.11451L14.0395 0.344971C13.8051 0.122315 13.559 0.0168457 13.2778 0.0168457C12.7036 0.0168457 12.2583 0.45044 12.2583 1.02466C12.2583 1.30591 12.352 1.58716 12.5395 1.77466L15.1645 4.43482L19.77 8.64185L20.0044 7.9856L16.5122 7.85669H1.06689C0.45752 7.85669 0.0356445 8.29029 0.0356445 8.89966C0.0356445 9.50904 0.45752 9.95435 1.06689 9.95435H16.5122L20.0044 9.82544L19.77 9.18091L15.1645 13.3645L12.5395 16.0363C12.352 16.2238 12.2583 16.5051 12.2583 16.7746C12.2583 17.3606 12.7036 17.7824 13.2778 17.7824ZM23.227 17.7824C23.8364 17.7824 24.2817 17.3723 24.2817 16.7746V1.05982C24.2817 0.45044 23.8364 0.0168457 23.227 0.0168457C22.6176 0.0168457 22.184 0.45044 22.184 1.05982V16.7746C22.184 17.3723 22.6176 17.7824 23.227 17.7824Z" fill="black" fill-opacity="0.85"/>
</g>
<defs>
<clipPath id="clip0_2207_24210">
<rect width="24.2461" height="18.2227" fill="white" transform="translate(0.0356445 0.0168457)"/>
</clipPath>
</defs>
</svg>
