<svg width="30" height="26" viewBox="0 0 30 26" fill="none" xmlns="http://www.w3.org/2000/svg">
<g clip-path="url(#clip0_2207_2399)">
<path d="M10.2537 21.4752C10.2537 23.9244 11.4724 25.1432 13.8865 25.1432H26.3318C28.7576 25.1432 29.9646 23.9244 29.9646 21.4752V3.69788C29.9646 1.26038 28.7576 0.0181885 26.3318 0.0181885H13.8865C11.4724 0.0181885 10.2537 1.26038 10.2537 3.69788V21.4752ZM12.1404 21.4401V3.73303C12.1404 2.56116 12.7732 1.90491 13.9919 1.90491H26.238C27.4568 1.90491 28.0779 2.56116 28.0779 3.73303V21.4401C28.0779 22.612 27.4568 23.2565 26.238 23.2565H13.9919C12.7732 23.2565 12.1404 22.612 12.1404 21.4401Z" fill="black" fill-opacity="0.85"/>
<path d="M14.449 18.1705C15.7263 18.1705 19.0544 16.237 19.0544 12.1237C19.0544 8.01038 15.7263 6.07678 14.449 6.07678C14.0154 6.07678 13.7107 6.29944 13.7107 6.76819V17.4791C13.7107 17.9362 14.0154 18.1705 14.449 18.1705ZM23.2966 15.1237C25.0544 15.1237 26.5193 13.7877 26.5193 12.1237C26.5193 10.4479 25.0544 9.11194 23.2966 9.11194C21.4216 9.11194 20.0271 10.4479 20.0154 12.1237C20.0037 13.7877 21.4216 15.1237 23.2966 15.1237Z" fill="black" fill-opacity="0.85"/>
<path d="M0.316135 10.6002C-0.269802 11.2565 0.105198 12.1471 0.984104 12.1471H2.97629V17.2799C2.97629 17.7955 3.37473 18.194 3.90207 18.194C4.40598 18.194 4.80442 17.7955 4.80442 17.2799V12.1471H6.77317C7.69895 12.1471 8.01535 11.2213 7.45285 10.6002L4.5466 7.31897C4.15989 6.87366 3.6091 6.87366 3.21067 7.31897L0.316135 10.6002Z" fill="black" fill-opacity="0.85"/>
</g>
<defs>
<clipPath id="clip0_2207_2399">
<rect width="29.931" height="25.1367" fill="white" transform="translate(0.0335693 0.0181885)"/>
</clipPath>
</defs>
</svg>
