<svg width="22" height="22" viewBox="0 0 22 22" fill="none" xmlns="http://www.w3.org/2000/svg">
<g clip-path="url(#clip0_2207_24736)">
<path d="M3.68604 21.6228H17.9008C20.3618 21.6228 21.5805 20.404 21.5805 17.9899V3.6814C21.5805 1.26734 20.3618 0.048584 17.9008 0.048584H3.68604C1.23682 0.048584 0.00634766 1.25562 0.00634766 3.6814V17.9899C0.00634766 20.4157 1.23682 21.6228 3.68604 21.6228ZM3.70947 19.736C2.5376 19.736 1.89307 19.1149 1.89307 17.8962V3.77515C1.89307 2.5564 2.5376 1.93531 3.70947 1.93531H17.8774C19.0375 1.93531 19.6938 2.5564 19.6938 3.77515V17.8962C19.6938 19.1149 19.0375 19.736 17.8774 19.736H3.70947Z" fill="black" fill-opacity="0.85"/>
<path d="M6.72117 14.4275H14.8891C15.4516 14.4275 15.7094 13.8064 15.3696 13.2557L11.4438 6.57598C11.1508 6.07208 10.4594 6.09551 10.1782 6.57598L6.22899 13.2557C5.93602 13.7596 6.15867 14.4275 6.72117 14.4275Z" fill="black" fill-opacity="0.85"/>
</g>
<defs>
<clipPath id="clip0_2207_24736">
<rect width="21.5742" height="21.5977" fill="white" transform="translate(0.00634766 0.0251465)"/>
</clipPath>
</defs>
</svg>
