<svg width="32" height="22" viewBox="0 0 32 22" fill="none" xmlns="http://www.w3.org/2000/svg">
<g clip-path="url(#clip0_2207_1463)">
<path d="M12.875 20.1436V1.45215C12.875 0.666992 12.3008 0.0224609 11.4805 0.0224609C10.9063 0.0224609 10.5195 0.268555 9.89844 0.854492L0.640625 9.50293C0.195312 9.93652 0.0546875 10.3702 0.0546875 10.7686C0.0546875 11.1553 0.195312 11.6006 0.640625 12.0225L9.89844 20.753C10.4609 21.2803 10.9297 21.5147 11.5039 21.5147C12.3008 21.5147 12.875 20.9287 12.875 20.1436ZM2.15235 10.7686C2.15235 10.6983 2.1875 10.628 2.28125 10.5459L10.625 2.54199C10.6836 2.49512 10.7539 2.44824 10.8242 2.44824C10.9297 2.44824 10.9883 2.51855 10.9883 2.6123V18.8194C10.9883 18.9248 10.9297 18.9952 10.8242 18.9952C10.7656 18.9952 10.6953 18.96 10.625 18.8897L2.28125 10.9913C2.1875 10.8975 2.15235 10.8389 2.15235 10.7686Z" fill="black" fill-opacity="0.85"/>
<path d="M17.3399 21.5147C18.1367 21.5147 18.7109 20.9287 18.7109 20.1436V15.667H19.0508C23.5977 15.667 26.457 16.8155 28.5078 20.6475C28.918 21.3975 29.457 21.5147 29.9492 21.5147C30.5703 21.5147 31.1563 20.9522 31.1563 19.9444C31.1563 11.2842 27.4766 5.88184 19.0508 5.88184H18.7109V1.45215C18.7109 0.666992 18.1367 0.0224609 17.3164 0.0224609C16.7422 0.0224609 16.3555 0.268555 15.7344 0.854492L6.48828 9.50293C6.03125 9.93652 5.89062 10.3702 5.89062 10.7686C5.89062 11.1553 6.04297 11.6006 6.48828 12.0225L15.7344 20.753C16.2969 21.2803 16.7656 21.5147 17.3399 21.5147Z" fill="white"/>
<path d="M17.3399 21.5147C18.1367 21.5147 18.7109 20.9287 18.7109 20.1436V15.667H19.0508C23.5977 15.667 26.457 16.8155 28.5078 20.6475C28.918 21.3975 29.457 21.5147 29.9492 21.5147C30.5703 21.5147 31.1563 20.9522 31.1563 19.9444C31.1563 11.2842 27.4766 5.88184 19.0508 5.88184H18.7109V1.45215C18.7109 0.666992 18.1367 0.0224609 17.3164 0.0224609C16.7422 0.0224609 16.3555 0.268555 15.7344 0.854492L6.48828 9.50293C6.03125 9.93652 5.89062 10.3702 5.89062 10.7686C5.89062 11.1553 6.04297 11.6006 6.48828 12.0225L15.7344 20.753C16.2969 21.2803 16.7656 21.5147 17.3399 21.5147ZM16.6719 18.9952C16.6016 18.9952 16.5313 18.96 16.4609 18.8897L8.11719 10.9913C8.02344 10.8975 7.98828 10.8389 7.98828 10.7686C7.98828 10.6983 8.02344 10.628 8.11719 10.5459L16.4609 2.54199C16.5195 2.49512 16.5899 2.44824 16.6602 2.44824C16.7656 2.44824 16.8242 2.51855 16.8242 2.6123V7.26465C16.8242 7.53418 16.9531 7.65137 17.2227 7.65137H18.793C26.832 7.65137 29.2578 13.2295 29.4922 18.7608C29.4922 18.8545 29.457 18.8897 29.3985 18.8897C29.3516 18.8897 29.3281 18.8545 29.293 18.7725C27.9102 15.8311 24.3594 13.8975 18.793 13.8975H17.2227C16.9531 13.8975 16.8242 14.0147 16.8242 14.2842V18.8194C16.8242 18.9248 16.7656 18.9952 16.6719 18.9952Z" fill="black" fill-opacity="0.85"/>
</g>
<defs>
<clipPath id="clip0_2207_1463">
<rect width="31.1016" height="21.5039" fill="white" transform="translate(0.0546875 0.0224609)"/>
</clipPath>
</defs>
</svg>
