<svg width="19" height="23" viewBox="0 0 19 23" fill="none" xmlns="http://www.w3.org/2000/svg">
<g id="arrow.turn.left.down" clip-path="url(#clip0_2124_13751)">
<g id="Group">
<path id="Vector" d="M15.8086 0C10.3945 0 7.83984 2.15625 7.83984 7.60547V15.7266L7.92188 18.9023L5.58984 16.3359L1.74609 12.4922C1.57031 12.3047 1.28906 12.2109 1.00781 12.2109C0.421875 12.2109 0 12.6562 0 13.2305C0 13.5117 0.105469 13.7578 0.328125 13.9922L8.09766 21.7852C8.32031 22.0195 8.58984 22.1367 8.88281 22.1367C9.17578 22.1367 9.44531 22.0195 9.66797 21.7852L17.4492 13.9922C17.6719 13.7578 17.7656 13.5117 17.7656 13.2305C17.7656 12.6562 17.3438 12.2109 16.7578 12.2109C16.4766 12.2109 16.207 12.3047 16.0195 12.4922L12.1758 16.3359L9.83203 18.9141L9.92578 15.7266L9.91406 7.71094C9.90234 3.46875 11.7539 2.05078 15.9141 2.05078C16.4648 2.05078 16.8398 2.07422 17.25 2.07422C17.8477 2.07422 18.293 1.6875 18.293 1.07812C18.293 0.480469 17.8711 0.175781 17.4141 0.0820312C17.0508 0.0234375 16.4883 0 15.8086 0Z" fill="black" fill-opacity="0.85"/>
</g>
</g>
<defs>
<clipPath id="clip0_2124_13751">
<rect width="18.293" height="22.1367" fill="white"/>
</clipPath>
</defs>
</svg>
