<svg width="23" height="25" viewBox="0 0 23 25" fill="none" xmlns="http://www.w3.org/2000/svg">
<g clip-path="url(#clip0_2207_23888)">
<path d="M22.2009 16.7671C22.2009 12.2905 19.1658 9.19678 13.822 9.19678H5.94702L2.31421 9.36084L2.52515 9.89991L5.41968 7.42725L8.8064 4.12256C8.98218 3.93506 9.08765 3.7124 9.08765 3.40771C9.08765 2.79833 8.67749 2.37646 8.04468 2.37646C7.79858 2.37646 7.4939 2.50537 7.29468 2.70458L0.404052 9.4663C0.169678 9.68896 0.0524902 9.9585 0.0524902 10.2515C0.0524902 10.5327 0.169678 10.8022 0.404052 11.0249L7.29468 17.7866C7.4939 17.9976 7.79858 18.1148 8.04468 18.1148C8.67749 18.1148 9.08765 17.6929 9.08765 17.0835C9.08765 16.7788 8.98218 16.5562 8.8064 16.3687L5.41968 13.0757L2.52515 10.5913L2.31421 11.1304L5.94702 11.2944H13.9978C17.9939 11.2944 20.1033 13.4976 20.1033 16.6499C20.1033 19.814 17.9939 22.1577 13.9978 22.1577H11.3025C10.658 22.1577 10.2361 22.6265 10.2361 23.2007C10.2361 23.7749 10.658 24.2437 11.3025 24.2437H14.0095C19.2478 24.2437 22.2009 21.2554 22.2009 16.7671Z" fill="black" fill-opacity="0.85"/>
</g>
<defs>
<clipPath id="clip0_2207_23888">
<rect width="22.1484" height="24.2227" fill="white" transform="translate(0.0524902 0.0209961)"/>
</clipPath>
</defs>
</svg>
