<svg width="24" height="24" viewBox="0 0 24 24" fill="none" xmlns="http://www.w3.org/2000/svg">
<g clip-path="url(#clip0_2207_23573)">
<path d="M12.0078 23.9259C18.5469 23.9259 23.9609 18.5002 23.9609 11.9728C23.9609 5.43371 18.5352 0.0196533 11.9961 0.0196533C5.46875 0.0196533 0.0546875 5.43371 0.0546875 11.9728C0.0546875 18.5002 5.48047 23.9259 12.0078 23.9259Z" fill="black" fill-opacity="0.85"/>
<path d="M8.21094 14.9728C7.6836 14.9728 7.32031 14.5627 7.32031 14.0002V8.30482C7.32031 7.58997 7.71875 7.30872 8.33985 7.30872H14.0586C14.6328 7.30872 14.9961 7.66028 14.9961 8.19935C14.9961 8.72669 14.6211 9.07825 14.0352 9.07825H11.8555L10.0625 8.89075L11.9492 10.6486L16.3906 15.0783C16.5664 15.2541 16.6836 15.5002 16.6836 15.7345C16.6836 16.2853 16.3203 16.6369 15.793 16.6369C15.5 16.6369 15.2656 16.5314 15.0899 16.3556L10.6719 11.9259L8.92578 10.0627L9.10157 11.9494V14.0236C9.10157 14.5978 8.75 14.9728 8.21094 14.9728Z" fill="white"/>
</g>
<defs>
<clipPath id="clip0_2207_23573">
<rect width="23.9062" height="23.918" fill="white" transform="translate(0.0546875 0.0196533)"/>
</clipPath>
</defs>
</svg>
