<svg width="22" height="22" viewBox="0 0 22 22" fill="none" xmlns="http://www.w3.org/2000/svg">
<g clip-path="url(#clip0_2207_23518)">
<path d="M3.77832 21.6174H17.9931C20.4541 21.6174 21.6728 20.3986 21.6728 17.9845V3.6759C21.6728 1.26184 20.4541 0.0430908 17.9931 0.0430908H3.77832C1.3291 0.0430908 0.0986328 1.25012 0.0986328 3.6759V17.9845C0.0986328 20.4103 1.3291 21.6174 3.77832 21.6174ZM3.80175 19.7306C2.62988 19.7306 1.98535 19.1095 1.98535 17.8908V3.76965C1.98535 2.5509 2.62988 1.92981 3.80175 1.92981H17.9697C19.1298 1.92981 19.7861 2.5509 19.7861 3.76965V17.8908C19.7861 19.1095 19.1298 19.7306 17.9697 19.7306H3.80175Z" fill="black" fill-opacity="0.85"/>
<path d="M10.9033 16.672C11.4189 16.672 11.7822 16.3088 11.7822 15.7931V9.93372L11.6884 7.44935L12.8838 8.86732L14.2666 10.2736C14.4189 10.4377 14.6298 10.5314 14.8877 10.5314C15.3681 10.5314 15.7431 10.1564 15.7431 9.68763C15.7431 9.44154 15.6611 9.2306 15.497 9.07825L11.5947 5.17591C11.372 4.95325 11.1728 4.84778 10.9033 4.84778C10.6572 4.84778 10.458 4.94154 10.2236 5.17591L6.30957 9.07825C6.15722 9.2306 6.08691 9.44154 6.08691 9.68763C6.08691 10.1564 6.45019 10.5314 6.93066 10.5314C7.18847 10.5314 7.39941 10.4259 7.55175 10.2736L8.94629 8.86732L10.1181 7.46107L10.0244 9.93372V15.7931C10.0244 16.3088 10.3994 16.672 10.9033 16.672Z" fill="black" fill-opacity="0.85"/>
</g>
<defs>
<clipPath id="clip0_2207_23518">
<rect width="21.5742" height="21.5977" fill="white" transform="translate(0.0986328 0.0196533)"/>
</clipPath>
</defs>
</svg>
