<svg width="18" height="26" viewBox="0 0 18 26" fill="none" xmlns="http://www.w3.org/2000/svg">
<g clip-path="url(#clip0_2207_24562)">
<path d="M7.29761 25.259C11.6335 25.259 14.5046 22.3879 14.5046 18.0285V15.7082C14.5046 15.1809 14.0944 14.7707 13.5671 14.7707C13.0398 14.7707 12.6179 15.1809 12.6179 15.7082V18.0285C12.6179 21.2277 10.4733 23.3723 7.29761 23.3723C4.09839 23.3723 1.95386 21.2277 1.95386 18.0285V7.2356C1.95386 4.05982 4.09839 1.90357 7.29761 1.90357C10.4733 1.90357 12.6179 4.05982 12.6179 7.2356V8.59497H14.5046V7.2356C14.5046 2.88794 11.6335 0.0168457 7.29761 0.0168457C2.93823 0.0168457 0.0671387 2.88794 0.0671387 7.2356V18.0285C0.0671387 22.3879 2.93823 25.259 7.29761 25.259ZM16.2976 7.28247H10.9069C10.0866 7.28247 9.86402 7.85669 10.3093 8.50123L12.9343 12.2395C13.3093 12.7668 13.8718 12.7785 14.2585 12.2395L16.8952 8.51294C17.3523 7.85669 17.1413 7.28247 16.2976 7.28247Z" fill="black" fill-opacity="0.85"/>
</g>
<defs>
<clipPath id="clip0_2207_24562">
<rect width="17.0641" height="25.2773" fill="white" transform="translate(0.0671387 0.0168457)"/>
</clipPath>
</defs>
</svg>
