<svg width="22" height="22" viewBox="0 0 22 22" fill="none" xmlns="http://www.w3.org/2000/svg">
<g clip-path="url(#clip0_2207_24493)">
<path d="M3.75952 21.6174H17.9743C20.4353 21.6174 21.654 20.3986 21.654 17.9845V3.6759C21.654 1.26184 20.4353 0.0430908 17.9743 0.0430908H3.75952C1.3103 0.0430908 0.079834 1.25012 0.079834 3.6759V17.9845C0.079834 20.4103 1.3103 21.6174 3.75952 21.6174Z" fill="black" fill-opacity="0.85"/>
<path d="M16.2048 10.6603H12.0212C11.3884 10.6603 11.0251 10.3791 11.0251 9.65248V5.44545C11.0251 4.96498 11.4001 4.58998 11.8806 4.58998C12.3493 4.58998 12.736 4.96498 12.736 5.44545V6.03139L12.6071 7.94155L15.7595 4.67201C16.111 4.29701 16.6853 4.29701 17.0368 4.66029C17.4001 5.01186 17.3767 5.58608 17.0251 5.94936L13.7673 9.06655L15.6189 8.94937H16.2048C16.697 8.94937 17.072 9.32437 17.072 9.79312C17.072 10.2736 16.697 10.6603 16.2048 10.6603ZM9.86491 17.0236C9.39616 17.0236 9.02116 16.6486 9.02116 16.1681V15.5822L9.13834 13.672L5.986 16.9416C5.63444 17.3166 5.06022 17.3166 4.70866 16.9533C4.34537 16.6017 4.36881 16.0158 4.72037 15.6642L7.97819 12.547L6.12663 12.6642H5.54069C5.06022 12.6642 4.6735 12.2892 4.6735 11.8205C4.6735 11.3283 5.06022 10.9533 5.54069 10.9533H9.72429C10.3571 10.9533 10.7321 11.2345 10.7321 11.9494V16.1681C10.7321 16.6486 10.3454 17.0236 9.86491 17.0236Z" fill="white"/>
</g>
<defs>
<clipPath id="clip0_2207_24493">
<rect width="21.5742" height="21.5977" fill="white" transform="translate(0.079834 0.0196533)"/>
</clipPath>
</defs>
</svg>
