<svg width="24" height="24" viewBox="0 0 24 24" fill="none" xmlns="http://www.w3.org/2000/svg">
<g clip-path="url(#clip0_2207_24502)">
<path d="M12.0454 23.9244C18.5845 23.9244 23.9985 18.4987 23.9985 11.9713C23.9985 5.43225 18.5728 0.0181885 12.0337 0.0181885C5.50634 0.0181885 0.0922852 5.43225 0.0922852 11.9713C0.0922852 18.4987 5.51807 23.9244 12.0454 23.9244ZM12.0454 21.9323C6.51417 21.9323 2.0962 17.5026 2.0962 11.9713C2.0962 6.44007 6.50244 2.01038 12.0337 2.01038C17.565 2.01038 22.0064 6.44007 22.0064 11.9713C22.0064 17.5026 17.5767 21.9323 12.0454 21.9323Z" fill="black" fill-opacity="0.85"/>
<path d="M17.2018 11.819C17.6588 11.819 18.0338 11.444 18.0338 10.987C18.0338 10.5299 17.6588 10.1666 17.2018 10.1666H16.6276L14.8346 10.2838L17.9986 7.24868C18.3385 6.90883 18.3502 6.34633 18.0104 6.00649C17.6705 5.65493 17.108 5.65493 16.7682 6.01821L13.7096 9.19399L13.8268 7.34243V6.76821C13.8268 6.31118 13.4635 5.9479 13.0065 5.9479C12.5494 5.9479 12.1744 6.31118 12.1744 6.76821V10.8463C12.1744 11.5494 12.5377 11.819 13.1471 11.819H17.2018ZM11.0612 17.983C11.5182 17.983 11.8815 17.6198 11.8815 17.1627V13.0729C11.8815 12.3815 11.5299 12.112 10.9205 12.112H6.85408C6.39705 12.112 6.03377 12.4752 6.03377 12.944C6.03377 13.401 6.39705 13.7643 6.85408 13.7643H7.44002L9.23298 13.6471L6.06892 16.6823C5.72908 17.0104 5.71736 17.5846 6.0572 17.9244C6.39705 18.276 6.95955 18.276 7.29939 17.9127L10.358 14.737L10.2291 16.5885V17.1627C10.2291 17.6198 10.6041 17.983 11.0612 17.983Z" fill="black" fill-opacity="0.85"/>
</g>
<defs>
<clipPath id="clip0_2207_24502">
<rect width="23.9062" height="23.918" fill="white" transform="translate(0.0922852 0.0181885)"/>
</clipPath>
</defs>
</svg>
