<svg width="22" height="22" viewBox="0 0 22 22" fill="none" xmlns="http://www.w3.org/2000/svg">
<g clip-path="url(#clip0_2207_23446)">
<path d="M3.71533 21.6104H17.9301C20.3911 21.6104 21.6098 20.3916 21.6098 17.9775V3.66895C21.6098 1.25489 20.3911 0.0361328 17.9301 0.0361328H3.71533C1.26611 0.0361328 0.0356445 1.24317 0.0356445 3.66895V17.9775C0.0356445 20.4033 1.26611 21.6104 3.71533 21.6104ZM3.73876 19.7236C2.56689 19.7236 1.92236 19.1025 1.92236 17.8838V3.7627C1.92236 2.54395 2.56689 1.92286 3.73876 1.92286H17.9067C19.0668 1.92286 19.7231 2.54395 19.7231 3.7627V17.8838C19.7231 19.1025 19.0668 19.7236 17.9067 19.7236H3.73876Z" fill="black" fill-opacity="0.85"/>
<path d="M4.81689 10.7939C4.81689 11.0518 4.93408 11.2627 5.14502 11.4736L9.10595 15.4463C9.2583 15.5986 9.48096 15.6924 9.71533 15.6924C10.2075 15.6924 10.559 15.3174 10.559 14.8369C10.559 14.5791 10.477 14.3682 10.3012 14.2158L8.83642 12.7627L7.41845 11.5791L9.90283 11.6611H16.0083C16.5239 11.6611 16.8872 11.2979 16.8872 10.7939C16.8872 10.2783 16.5122 9.91504 16.0083 9.91504H9.90283L7.43017 10.0088L8.83642 8.8252L10.3012 7.37208C10.4653 7.20801 10.559 6.99708 10.559 6.73926C10.559 6.25879 10.2075 5.89551 9.71533 5.89551C9.48096 5.89551 9.2583 5.97754 9.10595 6.12989L5.14502 10.1143C4.91064 10.3486 4.81689 10.5361 4.81689 10.7939Z" fill="black" fill-opacity="0.85"/>
</g>
<defs>
<clipPath id="clip0_2207_23446">
<rect width="21.5742" height="21.5977" fill="white" transform="translate(0.0356445 0.0126953)"/>
</clipPath>
</defs>
</svg>
