<svg width="28" height="22" viewBox="0 0 28 22" fill="none" xmlns="http://www.w3.org/2000/svg">
<g clip-path="url(#clip0_2207_7142)">
<path d="M3.73853 21.5924H24.0119C26.4729 21.5924 27.6916 20.3854 27.6916 17.9713V3.651C27.6916 1.23694 26.4729 0.0181885 24.0119 0.0181885H3.73853C1.28931 0.0181885 0.0588379 1.23694 0.0588379 3.651V17.9713C0.0588379 20.3854 1.28931 21.5924 3.73853 21.5924ZM3.76196 19.7057C2.59009 19.7057 1.94556 19.0846 1.94556 17.8659V3.75647C1.94556 2.53772 2.59009 1.90491 3.76196 1.90491H23.9885C25.1486 1.90491 25.8049 2.53772 25.8049 3.75647V17.8659C25.8049 19.0846 25.1486 19.7057 23.9885 19.7057H3.76196Z" fill="black" fill-opacity="0.85"/>
<path d="M16.5822 16.9166C17.0979 16.9166 17.4377 16.5534 17.4377 16.0026V14.1276L17.2619 12.3112L18.9494 14.1159L22.4885 17.6432C22.6526 17.8073 22.8635 17.9127 23.1565 17.9127C23.6721 17.9127 24.0119 17.5729 24.0119 17.0455C24.0119 16.8112 23.8947 16.5768 23.7307 16.4127L20.1916 12.8737L18.3635 11.1744L20.0979 11.362H22.0783C22.6291 11.362 22.9924 11.0221 22.9924 10.5065C22.9924 9.99085 22.6408 9.651 22.1018 9.651H16.6994C16.1018 9.651 15.7268 9.92053 15.7268 10.612V15.9791C15.7268 16.5182 16.0666 16.9166 16.5822 16.9166Z" fill="black" fill-opacity="0.85"/>
</g>
<defs>
<clipPath id="clip0_2207_7142">
<rect width="27.6328" height="21.5742" fill="white" transform="translate(0.0588379 0.0181885)"/>
</clipPath>
</defs>
</svg>
