<svg width="24" height="24" viewBox="0 0 24 24" fill="none" xmlns="http://www.w3.org/2000/svg">
<g clip-path="url(#clip0_2207_23460)">
<path d="M11.9782 23.923C18.5173 23.923 23.9313 18.4973 23.9313 11.9699C23.9313 5.43091 18.5056 0.0168457 11.9665 0.0168457C5.43921 0.0168457 0.0251465 5.43091 0.0251465 11.9699C0.0251465 18.4973 5.45093 23.923 11.9782 23.923ZM11.9782 21.9309C6.44703 21.9309 2.02906 17.5012 2.02906 11.9699C2.02906 6.43873 6.43531 2.00904 11.9665 2.00904C17.4978 2.00904 21.9392 6.43873 21.9392 11.9699C21.9392 17.5012 17.5095 21.9309 11.9782 21.9309Z" fill="black" fill-opacity="0.85"/>
<path d="M17.9899 11.9582C17.9899 11.7004 17.8962 11.5129 17.6618 11.2785L13.7009 7.29418C13.5485 7.14184 13.3376 7.05981 13.0915 7.05981C12.611 7.05981 12.2478 7.42309 12.2478 7.90356C12.2478 8.16137 12.3532 8.37231 12.5056 8.53637L13.9704 9.9895L15.3884 11.173L12.9157 11.0793H6.79859C6.29468 11.0793 5.91968 11.4426 5.91968 11.9582C5.91968 12.4621 6.29468 12.8254 6.79859 12.8254H12.9157L15.3884 12.7434L13.9704 13.927L12.5056 15.3801C12.3415 15.5324 12.2478 15.7434 12.2478 16.0012C12.2478 16.4816 12.611 16.8566 13.0915 16.8566C13.3376 16.8566 13.5485 16.7629 13.7009 16.6106L17.6618 12.6379C17.8845 12.427 17.9899 12.216 17.9899 11.9582Z" fill="black" fill-opacity="0.85"/>
</g>
<defs>
<clipPath id="clip0_2207_23460">
<rect width="23.9062" height="23.918" fill="white" transform="translate(0.0251465 0.0168457)"/>
</clipPath>
</defs>
</svg>
