<svg width="15" height="24" viewBox="0 0 15 24" fill="none" xmlns="http://www.w3.org/2000/svg">
<g clip-path="url(#clip0_2207_24078)">
<path d="M7.24854 23.0924C7.52979 23.0924 7.79932 22.987 8.03369 22.7526L14.1625 16.4948C14.3618 16.2955 14.479 15.9791 14.479 15.733C14.479 15.1002 14.0571 14.6901 13.4477 14.6901C13.1547 14.6901 12.9204 14.7955 12.7329 14.983L10.0727 17.7252L8.17432 19.9166L8.29151 17.1979V5.91272L8.17432 3.19397L10.0727 5.38538L12.7329 8.12757C12.9204 8.31507 13.1547 8.42053 13.4477 8.42053C14.0571 8.42053 14.479 8.01038 14.479 7.37757C14.479 7.13147 14.3618 6.81507 14.1625 6.61585L8.03369 0.358032C7.79932 0.123657 7.52979 0.0181885 7.24854 0.0181885C6.95557 0.0181885 6.68604 0.123657 6.46338 0.358032L0.334473 6.61585C0.135254 6.81507 0.00634766 7.13147 0.00634766 7.37757C0.00634766 8.01038 0.428223 8.42053 1.0376 8.42053C1.34229 8.42053 1.57666 8.31507 1.75244 8.12757L4.42432 5.38538L6.31104 3.19397L6.20557 5.91272V17.1979L6.31104 19.9166L4.42432 17.7252L1.75244 14.983C1.57666 14.7955 1.34229 14.6901 1.0376 14.6901C0.428223 14.6901 0.00634766 15.1002 0.00634766 15.733C0.00634766 15.9791 0.135254 16.2955 0.334473 16.4948L6.46338 22.7526C6.68604 22.987 6.95557 23.0924 7.24854 23.0924Z" fill="black" fill-opacity="0.85"/>
</g>
<defs>
<clipPath id="clip0_2207_24078">
<rect width="14.4727" height="23.0742" fill="white" transform="translate(0.00634766 0.0181885)"/>
</clipPath>
</defs>
</svg>
