<svg width="24" height="24" viewBox="0 0 24 24" fill="none" xmlns="http://www.w3.org/2000/svg">
<g clip-path="url(#clip0_2207_23978)">
<path d="M11.9972 23.9272C18.5363 23.9272 23.9503 18.5015 23.9503 11.9741C23.9503 5.43506 18.5246 0.0209961 11.9855 0.0209961C5.45813 0.0209961 0.0440674 5.43506 0.0440674 11.9741C0.0440674 18.5015 5.46985 23.9272 11.9972 23.9272ZM11.9972 21.9351C6.46595 21.9351 2.04798 17.5054 2.04798 11.9741C2.04798 6.44288 6.45423 2.01319 11.9855 2.01319C17.5168 2.01319 21.9582 6.44288 21.9582 11.9741C21.9582 17.5054 17.5285 21.9351 11.9972 21.9351Z" fill="black" fill-opacity="0.85"/>
<path d="M5.91516 13.4038C5.91516 16.2163 7.96595 17.9741 10.6964 17.9741C10.8371 17.9741 12.2433 17.9741 12.3019 17.9741C12.8293 17.9741 13.216 17.6812 13.216 17.1421C13.216 16.5913 12.8293 16.2983 12.3253 16.2983C12.2785 16.2983 10.8371 16.2983 10.6964 16.2983C8.92688 16.2983 7.63782 15.1616 7.63782 13.3101C7.63782 11.5054 8.96204 10.521 10.6847 10.521H14.1886L15.5714 10.4624L14.8918 10.978L13.4269 12.3843C13.2511 12.5366 13.1691 12.771 13.1691 12.9819C13.1691 13.4741 13.5324 13.8374 14.0011 13.8374C14.2472 13.8374 14.4347 13.7554 14.5988 13.5913L17.7277 10.4038C17.9152 10.2046 18.0441 9.97021 18.0441 9.68896C18.0441 9.41943 17.9152 9.17333 17.7277 8.97411L14.6105 5.81005C14.4464 5.63427 14.2589 5.56396 14.0129 5.56396C13.5324 5.56396 13.1691 5.92724 13.1691 6.40771C13.1691 6.6538 13.2746 6.87646 13.4386 7.01708L14.6457 8.18896L15.5714 8.91552L14.1886 8.88037H10.6847C7.95423 8.88037 5.91516 10.5913 5.91516 13.4038Z" fill="black" fill-opacity="0.85"/>
</g>
<defs>
<clipPath id="clip0_2207_23978">
<rect width="23.9062" height="23.918" fill="white" transform="translate(0.0440674 0.0209961)"/>
</clipPath>
</defs>
</svg>
