<svg width="32" height="25" viewBox="0 0 32 25" fill="none" xmlns="http://www.w3.org/2000/svg">
<g clip-path="url(#clip0_2207_13648)">
<path d="M20.0185 24.8254H28.7021C30.6122 24.8254 31.8896 23.6066 31.8896 21.7785V3.06373C31.8896 1.2356 30.6122 0.0168457 28.7021 0.0168457H20.0185C18.1083 0.0168457 16.8193 1.2356 16.8193 3.06373V21.7785C16.8193 23.6066 18.1083 24.8254 20.0185 24.8254ZM20.2528 22.9387C19.2685 22.9387 18.706 22.4113 18.706 21.4738V3.36841C18.706 2.43091 19.2685 1.90357 20.2528 1.90357H28.456C29.4404 1.90357 30.0028 2.43091 30.0028 3.36841V21.4738C30.0028 22.4113 29.4404 22.9387 28.456 22.9387H20.2528Z" fill="black" fill-opacity="0.85"/>
<path d="M1.13965 22.0364C1.74902 22.0364 2.18262 21.6146 2.18262 21.0052V19.2239C2.18262 14.8646 4.84277 13.4583 8.25293 13.4583H9.02637L12.2725 13.3528V12.6966L9.08496 15.6028L7.7959 16.7044C7.52637 16.9271 7.45606 17.22 7.45606 17.5013C7.45606 18.0754 7.90137 18.5091 8.47559 18.5091C8.75684 18.5091 9.00293 18.4036 9.26074 18.1575L14.2178 13.2122C14.4522 12.9896 14.5811 12.72 14.5811 12.4271C14.5811 12.1341 14.4522 11.8646 14.2178 11.6419L9.2373 6.6731C9.00293 6.43873 8.75684 6.34497 8.47559 6.34497C7.90137 6.34497 7.45606 6.76685 7.45606 7.35279C7.45606 7.63404 7.52637 7.92701 7.7959 8.14966L9.08496 9.25123L12.2725 12.1575V11.5013L9.02637 11.3958H8.25293C4.09277 11.3958 0.0966797 13.306 0.0966797 19.2239V21.0052C0.0966797 21.6146 0.530274 22.0364 1.13965 22.0364Z" fill="black" fill-opacity="0.85"/>
</g>
<defs>
<clipPath id="clip0_2207_13648">
<rect width="31.793" height="24.832" fill="white" transform="translate(0.0966797 0.0168457)"/>
</clipPath>
</defs>
</svg>
