<svg width="22" height="22" viewBox="0 0 22 22" fill="none" xmlns="http://www.w3.org/2000/svg">
<g clip-path="url(#clip0_2207_23801)">
<path d="M3.72376 21.6159H17.9386C20.3996 21.6159 21.6183 20.3971 21.6183 17.983V3.67444C21.6183 1.26038 20.3996 0.041626 17.9386 0.041626H3.72376C1.27454 0.041626 0.0440674 1.24866 0.0440674 3.67444V17.983C0.0440674 20.4088 1.27454 21.6159 3.72376 21.6159Z" fill="black" fill-opacity="0.85"/>
<path d="M6.51282 5.17439C6.85266 4.83455 7.35657 4.85798 7.67298 5.17439L10.6379 8.20955C10.7785 8.35017 10.8839 8.57283 10.8839 8.77205C10.8839 9.22908 10.5558 9.5572 10.1105 9.5572C9.89954 9.5572 9.70032 9.47517 9.55969 9.33455L8.31751 8.03377L7.86048 7.54158L7.89563 8.1158V15.9439C7.89563 16.3775 7.55579 16.7056 7.08704 16.7056C6.64173 16.7056 6.3136 16.3775 6.3136 15.9439V8.12752L6.32532 7.54158L5.86829 8.03377L4.6261 9.31111C4.48548 9.46345 4.28626 9.5572 4.08704 9.5572C3.63001 9.5572 3.29016 9.21736 3.29016 8.77205C3.29016 8.59626 3.40735 8.37361 3.53626 8.20955L6.51282 5.17439ZM15.173 16.4712C14.8566 16.7876 14.3058 16.7876 14.0011 16.4712L11.0363 13.4478C10.8839 13.272 10.8019 13.0611 10.8019 12.8736C10.8019 12.4165 11.1066 12.1001 11.5636 12.1001C11.7863 12.1001 11.9738 12.1704 12.1261 12.3345L13.3683 13.6001L13.8136 14.104L13.7902 13.5415V5.70173C13.7902 5.25642 14.13 4.9283 14.5871 4.9283C15.0324 4.9283 15.3722 5.25642 15.3722 5.70173V13.5298L15.3488 14.0923L15.8058 13.6001L17.048 12.3345C17.1886 12.1939 17.3879 12.1001 17.5988 12.1001C18.0675 12.1001 18.3839 12.4165 18.3839 12.8736C18.3839 13.0728 18.2668 13.2837 18.1261 13.4478L15.173 16.4712Z" fill="white"/>
</g>
<defs>
<clipPath id="clip0_2207_23801">
<rect width="21.5742" height="21.5977" fill="white" transform="translate(0.0440674 0.0181885)"/>
</clipPath>
</defs>
</svg>
