<svg width="24" height="24" viewBox="0 0 24 24" fill="none" xmlns="http://www.w3.org/2000/svg">
<g clip-path="url(#clip0_2207_24310)">
<path d="M12.0266 23.9189C18.5657 23.9189 23.9797 18.4932 23.9797 11.9658C23.9797 5.42676 18.554 0.0126953 12.0149 0.0126953C5.48755 0.0126953 0.0734863 5.42676 0.0734863 11.9658C0.0734863 18.4932 5.49927 23.9189 12.0266 23.9189ZM12.0266 21.9268C6.49537 21.9268 2.0774 17.4971 2.0774 11.9658C2.0774 6.43458 6.48365 2.00489 12.0149 2.00489C17.5462 2.00489 21.9876 6.43458 21.9876 11.9658C21.9876 17.4971 17.5579 21.9268 12.0266 21.9268Z" fill="black" fill-opacity="0.85"/>
<path d="M17.2415 12.5049C17.2415 9.62208 14.8743 7.36036 12.2376 7.36036C12.1321 7.36036 12.0032 7.38379 11.9212 7.38379L12.7532 6.54004C12.8704 6.41114 12.9524 6.21192 12.9524 6.0127C12.9524 5.59082 12.636 5.2627 12.2141 5.2627C12.0032 5.2627 11.8157 5.35645 11.6751 5.49708L9.42505 7.78223C9.15552 8.06348 9.1438 8.59082 9.42505 8.87208L11.6985 11.1455C11.8274 11.2627 12.0266 11.3565 12.2141 11.3565C12.636 11.3565 12.9524 11.04 12.9524 10.6299C12.9524 10.4072 12.8704 10.2315 12.7297 10.0791L11.593 8.96582C11.7102 8.94239 11.8626 8.93067 12.0149 8.93067C14.0305 8.93067 15.6243 10.5361 15.6243 12.54C15.6243 14.5557 14.0305 16.1611 12.0149 16.1611C10.011 16.1611 8.40552 14.5439 8.40552 12.54C8.40552 12.1065 8.04224 11.7432 7.59693 11.7432C7.16333 11.7432 6.78833 12.1065 6.78833 12.54C6.78833 15.4346 9.12037 17.7783 12.0149 17.7783C14.9094 17.7783 17.2415 15.4346 17.2415 12.5049Z" fill="black" fill-opacity="0.85"/>
</g>
<defs>
<clipPath id="clip0_2207_24310">
<rect width="23.9062" height="23.918" fill="white" transform="translate(0.0734863 0.0126953)"/>
</clipPath>
</defs>
</svg>
