<svg width="22" height="22" viewBox="0 0 22 22" fill="none" xmlns="http://www.w3.org/2000/svg">
<g clip-path="url(#clip0_2207_23422)">
<path d="M3.68189 21.6145H17.8967C20.3577 21.6145 21.5764 20.3957 21.5764 17.9816V3.6731C21.5764 1.25904 20.3577 0.0402832 17.8967 0.0402832H3.68189C1.23267 0.0402832 0.00219727 1.24732 0.00219727 3.6731V17.9816C0.00219727 20.4074 1.23267 21.6145 3.68189 21.6145ZM3.70532 19.7277C2.53345 19.7277 1.88892 19.1066 1.88892 17.8879V3.76685C1.88892 2.5481 2.53345 1.92701 3.70532 1.92701H17.8733C19.0334 1.92701 19.6897 2.5481 19.6897 3.76685V17.8879C19.6897 19.1066 19.0334 19.7277 17.8733 19.7277H3.70532Z" fill="black" fill-opacity="0.85"/>
<path d="M4.78345 10.798C4.78345 11.0559 4.90064 11.2668 5.11158 11.4777L9.07251 15.4504C9.22486 15.6027 9.44751 15.6965 9.68189 15.6965C10.1741 15.6965 10.5256 15.3215 10.5256 14.841C10.5256 14.5832 10.4436 14.3723 10.2678 14.2199L8.80298 12.7668L7.38501 11.5832L9.86939 11.6652H15.9749C16.4905 11.6652 16.8538 11.302 16.8538 10.798C16.8538 10.2824 16.4788 9.91919 15.9749 9.91919H9.86939L7.39673 10.0129L8.80298 8.82935L10.2678 7.37623C10.4319 7.21216 10.5256 7.00123 10.5256 6.74341C10.5256 6.26294 10.1741 5.89966 9.68189 5.89966C9.44751 5.89966 9.22486 5.98169 9.07251 6.13404L5.11158 10.1184C4.8772 10.3527 4.78345 10.5402 4.78345 10.798Z" fill="black" fill-opacity="0.85"/>
</g>
<defs>
<clipPath id="clip0_2207_23422">
<rect width="21.5742" height="21.5977" fill="white" transform="translate(0.00219727 0.0168457)"/>
</clipPath>
</defs>
</svg>
