<svg width="24" height="24" viewBox="0 0 24 24" fill="none" xmlns="http://www.w3.org/2000/svg">
<g clip-path="url(#clip0_2207_1337)">
<path d="M11.9699 23.9287C18.509 23.9287 23.923 18.503 23.923 11.9756C23.923 5.43652 18.4973 0.0224609 11.9582 0.0224609C5.43091 0.0224609 0.0168457 5.43652 0.0168457 11.9756C0.0168457 18.503 5.44263 23.9287 11.9699 23.9287ZM11.9699 21.9366C6.43873 21.9366 2.02076 17.5069 2.02076 11.9756C2.02076 6.44434 6.42701 2.01465 11.9582 2.01465C17.4895 2.01465 21.9309 6.44434 21.9309 11.9756C21.9309 17.5069 17.5012 21.9366 11.9699 21.9366Z" fill="black" fill-opacity="0.85"/>
<path d="M11.9699 18.8428C12.1809 18.8428 12.427 18.7608 12.6613 18.5264L17.3606 13.4756C17.677 13.1475 17.8059 12.9366 17.8059 12.6319C17.8059 12.1866 17.466 11.8702 17.0441 11.8702H14.4777V6.57324C14.4777 5.64746 13.9504 5.1084 13.048 5.1084H10.8801C9.97779 5.1084 9.46216 5.64746 9.46216 6.57324V11.8702H6.87232C6.43873 11.8702 6.13404 12.1866 6.13404 12.6084C6.13404 12.9248 6.26294 13.1827 6.53247 13.4756L11.2902 18.5264C11.5129 18.7608 11.7707 18.8428 11.9699 18.8428Z" fill="black" fill-opacity="0.85"/>
</g>
<defs>
<clipPath id="clip0_2207_1337">
<rect width="23.9062" height="23.918" fill="white" transform="translate(0.0168457 0.0224609)"/>
</clipPath>
</defs>
</svg>
