<svg width="30" height="23" viewBox="0 0 30 23" fill="none" xmlns="http://www.w3.org/2000/svg">
<g clip-path="url(#clip0_2207_8803)">
<path d="M23.2192 20.384C26.7583 20.384 29.5239 17.7941 29.5239 14.5715C29.5239 12.1106 28.106 9.97779 25.8208 9.01685C25.8442 3.79029 22.0825 0.0168457 17.2896 0.0168457C14.1138 0.0168457 11.8521 1.71607 10.4458 3.76685C7.56299 2.9231 4.42237 5.11451 4.36377 8.39576C1.71533 8.81763 0.0629883 11.1848 0.0629883 14.0441C0.0629883 17.4895 3.07471 20.384 7.08252 20.384H23.2192Z" fill="black" fill-opacity="0.85"/>
<path d="M8.74652 11.595L10.2699 9.43873C10.5395 9.06373 10.9965 9.09888 11.2543 9.43873L12.7895 11.595C13.059 11.9349 12.9301 12.3685 12.4848 12.3685H11.4887C11.9223 14.0442 13.4926 15.2981 15.3559 15.2981C16.2817 15.2981 16.9613 15.0169 17.6293 14.4778C18.0395 14.1966 18.4613 14.1497 18.8012 14.4896C19.141 14.8646 19.0238 15.3567 18.5668 15.72C17.7348 16.4114 16.5512 16.8216 15.3559 16.8216C12.6606 16.8216 10.516 14.9935 10.0473 12.3685H9.05121C8.6059 12.3685 8.50043 11.9349 8.74652 11.595ZM11.9106 8.48951C11.5707 8.12623 11.6996 7.63404 12.1449 7.27076C12.9652 6.57935 14.1606 6.15747 15.3441 6.15747C18.0512 6.15747 20.1957 7.9856 20.6645 10.6224H21.602C22.0473 10.6224 22.1527 11.0441 21.9067 11.3958L20.3832 13.5403C20.1137 13.9153 19.6567 13.8802 19.3988 13.5403L17.8637 11.3958C17.5941 11.0441 17.7231 10.6224 18.1684 10.6224H19.2113C18.7895 8.94654 17.2309 7.68091 15.3441 7.68091C14.4301 7.68091 13.7387 7.95044 13.059 8.50123C12.684 8.78247 12.2387 8.82935 11.9106 8.48951Z" fill="white"/>
</g>
<defs>
<clipPath id="clip0_2207_8803">
<rect width="29.4609" height="22.2773" fill="white" transform="translate(0.0629883 0.0168457)"/>
</clipPath>
</defs>
</svg>
