<svg width="22" height="22" viewBox="0 0 22 22" fill="none" xmlns="http://www.w3.org/2000/svg">
<g clip-path="url(#clip0_2207_6758)">
<path d="M20.3286 1.39551C19.1333 0.200195 17.4458 0.0126953 15.4419 0.0126953H6.31299C4.34424 0.0126953 2.65674 0.200195 1.46142 1.39551C0.266113 2.59082 0.090332 4.26661 0.090332 6.23536V15.3643C0.090332 17.3682 0.266113 19.0439 1.46142 20.2393C2.65674 21.4346 4.34424 21.6221 6.33642 21.6221H15.4419C17.4458 21.6221 19.1333 21.4346 20.3286 20.2393C21.5239 19.0439 21.6997 17.3682 21.6997 15.3643V6.25879C21.6997 4.25489 21.5239 2.59082 20.3286 1.39551ZM19.813 5.94239V15.6924C19.813 16.8994 19.6606 18.1533 18.9458 18.8565C18.2426 19.5713 16.977 19.7354 15.77 19.7354H6.02002C4.81299 19.7354 3.54736 19.5713 2.83252 18.8565C2.12939 18.1533 1.97705 16.8994 1.97705 15.6924V5.97754C1.97705 4.73536 2.12939 3.48145 2.83252 2.76661C3.54736 2.06348 4.82471 1.89942 6.05517 1.89942H15.77C16.977 1.89942 18.2426 2.06348 18.9458 2.77832C19.6606 3.48145 19.813 4.73536 19.813 5.94239Z" fill="black" fill-opacity="0.85"/>
<path d="M10.9067 4.85254C10.4028 4.85254 10.0396 5.21582 10.0396 5.73145V11.5908L10.1215 14.0635L8.94971 12.6572L7.55517 11.251C7.40283 11.0869 7.19189 10.9932 6.93408 10.9932C6.45361 10.9932 6.09033 11.3565 6.09033 11.8369C6.09033 12.083 6.16064 12.2939 6.32471 12.4463L10.2387 16.3369C10.4731 16.5713 10.6606 16.6768 10.9067 16.6768C11.1762 16.6768 11.3755 16.5596 11.5981 16.3369L15.5122 12.4463C15.6645 12.2939 15.7465 12.083 15.7465 11.8369C15.7465 11.3565 15.3715 10.9932 14.8911 10.9932C14.6333 10.9932 14.4223 11.0752 14.27 11.251L12.8872 12.6572L11.7036 14.0752L11.7856 11.5908V5.73145C11.7856 5.21582 11.4223 4.85254 10.9067 4.85254Z" fill="black" fill-opacity="0.85"/>
</g>
<defs>
<clipPath id="clip0_2207_6758">
<rect width="21.6094" height="21.6211" fill="white" transform="translate(0.090332 0.0126953)"/>
</clipPath>
</defs>
</svg>
