<svg width="25" height="19" viewBox="0 0 25 19" fill="none" xmlns="http://www.w3.org/2000/svg">
<g clip-path="url(#clip0_2207_24186)">
<path d="M1.08289 17.7783C1.70398 17.7783 2.13758 17.3682 2.13758 16.7705V1.05567C2.13758 0.446289 1.70398 0.0126953 1.08289 0.0126953C0.473511 0.0126953 0.039917 0.446289 0.039917 1.05567V16.7705C0.039917 17.3682 0.473511 17.7783 1.08289 17.7783ZM11.0321 17.7783C11.618 17.7783 12.0633 17.3565 12.0633 16.7705C12.0633 16.501 11.9579 16.2197 11.7821 16.0322L9.15711 13.3604L4.55164 9.17675L4.31726 9.82129L7.80945 9.9502H23.2547C23.8524 9.9502 24.286 9.50488 24.286 8.8955C24.286 8.28613 23.8524 7.85254 23.2547 7.85254H7.80945L4.31726 7.98145L4.55164 8.6377L9.15711 4.43067L11.7821 1.77051C11.9579 1.58301 12.0633 1.30176 12.0633 1.02051C12.0633 0.446289 11.618 0.0126953 11.0321 0.0126953C10.7626 0.0126953 10.5165 0.118164 10.2821 0.34082L2.48914 8.11036C2.25476 8.34473 2.12586 8.61425 2.12586 8.8955C2.12586 9.18847 2.25476 9.458 2.48914 9.68067L10.2821 17.4619C10.5165 17.6846 10.7626 17.7783 11.0321 17.7783Z" fill="black" fill-opacity="0.85"/>
</g>
<defs>
<clipPath id="clip0_2207_24186">
<rect width="24.2461" height="18.2227" fill="white" transform="translate(0.039917 0.0126953)"/>
</clipPath>
</defs>
</svg>
