<svg width="22" height="22" viewBox="0 0 22 22" fill="none" xmlns="http://www.w3.org/2000/svg">
<g clip-path="url(#clip0_2207_23703)">
<path d="M3.69434 21.6119H17.9091C20.3701 21.6119 21.5888 20.3931 21.5888 17.979V3.67041C21.5888 1.25635 20.3701 0.0375977 17.9091 0.0375977H3.69434C1.24512 0.0375977 0.0146484 1.24463 0.0146484 3.67041V17.979C0.0146484 20.4048 1.24512 21.6119 3.69434 21.6119Z" fill="black" fill-opacity="0.85"/>
<path d="M7.01074 7.80713C7.54981 7.80713 7.90137 8.17041 7.90137 8.75635V10.8306L7.72559 12.7173L9.47168 10.854L13.8896 6.42432C14.0771 6.24854 14.2999 6.14307 14.5928 6.14307C15.1202 6.14307 15.4834 6.49463 15.4834 7.04541C15.4834 7.27978 15.3663 7.52588 15.1905 7.70166L10.749 12.1197L8.86231 13.8892L10.6553 13.7017H12.8349C13.4208 13.7017 13.7959 14.0533 13.7959 14.5806C13.7959 15.1197 13.4326 15.4712 12.8584 15.4712H7.13965C6.51856 15.4712 6.13184 15.19 6.13184 14.4751V8.77978C6.13184 8.20557 6.4834 7.80713 7.01074 7.80713Z" fill="white"/>
</g>
<defs>
<clipPath id="clip0_2207_23703">
<rect width="21.5742" height="21.5977" fill="white" transform="translate(0.0146484 0.0141602)"/>
</clipPath>
</defs>
</svg>
