<svg width="28" height="22" viewBox="0 0 28 22" fill="none" xmlns="http://www.w3.org/2000/svg">
<g clip-path="url(#clip0_2207_7177)">
<path d="M3.70703 21.5896H23.9804C26.4414 21.5896 27.6601 20.3826 27.6601 17.9685V3.64819C27.6601 1.23413 26.4414 0.0153809 23.9804 0.0153809H3.70703C1.25781 0.0153809 0.0273438 1.23413 0.0273438 3.64819V17.9685C0.0273438 20.3826 1.25781 21.5896 3.70703 21.5896Z" fill="black" fill-opacity="0.85"/>
<path d="M11.2421 4.59741C11.7695 4.59741 12.1328 4.99585 12.1328 5.57007V11.0896C12.1328 11.8162 11.7343 12.0974 11.1132 12.0974H5.55859C4.98438 12.0974 4.62109 11.7459 4.62109 11.2068C4.62109 10.6795 4.99609 10.3279 5.58203 10.3279H7.59766L9.39062 10.5154L7.50391 8.74585L3.87109 5.11304C3.69531 4.94897 3.57812 4.7146 3.57812 4.48022C3.57812 3.92944 3.92968 3.56616 4.46876 3.56616C4.76172 3.56616 4.98438 3.67163 5.16016 3.84741L8.78125 7.48022L10.5273 9.3435L10.3515 7.45679V5.54663C10.3515 4.96069 10.7031 4.59741 11.2421 4.59741Z" fill="white"/>
</g>
<defs>
<clipPath id="clip0_2207_7177">
<rect width="27.6328" height="21.5742" fill="white" transform="translate(0.0273438 0.0153809)"/>
</clipPath>
</defs>
</svg>
