<svg width="28" height="22" viewBox="0 0 28 22" fill="none" xmlns="http://www.w3.org/2000/svg">
<g clip-path="url(#clip0_2207_7187)">
<path d="M3.73438 21.5884H24.0078C26.4688 21.5884 27.6875 20.3814 27.6875 17.9673V3.64697C27.6875 1.23291 26.4688 0.0141602 24.0078 0.0141602H3.73438C1.28516 0.0141602 0.0546875 1.23291 0.0546875 3.64697V17.9673C0.0546875 20.3814 1.28516 21.5884 3.73438 21.5884Z" fill="black" fill-opacity="0.85"/>
<path d="M11.2695 4.59619C11.7969 4.59619 12.1602 4.99463 12.1602 5.56885V11.0884C12.1602 11.815 11.7617 12.0962 11.1406 12.0962H5.58594C5.01172 12.0962 4.64844 11.7447 4.64844 11.2056C4.64844 10.6783 5.02344 10.3267 5.60938 10.3267H7.625L9.41797 10.5142L7.53125 8.74463L3.89844 5.11182C3.72266 4.94775 3.60547 4.71338 3.60547 4.479C3.60547 3.92822 3.95703 3.56494 4.4961 3.56494C4.78907 3.56494 5.01172 3.67041 5.1875 3.84619L8.8086 7.479L10.5547 9.34228L10.3789 7.45557V5.54541C10.3789 4.95947 10.7305 4.59619 11.2695 4.59619Z" fill="white"/>
</g>
<defs>
<clipPath id="clip0_2207_7187">
<rect width="27.6328" height="21.5742" fill="white" transform="translate(0.0546875 0.0141602)"/>
</clipPath>
</defs>
</svg>
