<svg width="24" height="24" viewBox="0 0 24 24" fill="none" xmlns="http://www.w3.org/2000/svg">
<g clip-path="url(#clip0_2207_1386)">
<path d="M12.0224 23.9405C18.5615 23.9405 23.9755 18.5264 23.9755 11.9873C23.9755 5.45996 18.5498 0.0341797 12.0107 0.0341797C5.4834 0.0341797 0.0693359 5.45996 0.0693359 11.9873C0.0693359 18.5264 5.49512 23.9405 12.0224 23.9405Z" fill="black" fill-opacity="0.85"/>
<path d="M10.9091 17.2022C10.5927 17.2022 10.3466 17.0616 10.042 16.7803L4.89746 11.9522C4.65137 11.7178 4.56934 11.4834 4.56934 11.2491C4.56934 11.0264 4.65137 10.792 4.89746 10.5577L10.042 5.76465C10.3818 5.43652 10.581 5.30762 10.8974 5.30762C11.3545 5.30762 11.6826 5.65918 11.6826 6.09277V8.55371H11.8701C16.5224 8.55371 18.5732 11.5303 18.5732 16.3467C18.5732 16.9092 18.2334 17.2022 17.8935 17.2022C17.6123 17.2022 17.3193 17.1319 17.0966 16.7217C15.9716 14.6006 14.3779 13.9561 11.8701 13.9561H11.6826V16.4522C11.6826 16.8741 11.3545 17.2022 10.9091 17.2022Z" fill="white"/>
</g>
<defs>
<clipPath id="clip0_2207_1386">
<rect width="23.9062" height="23.918" fill="white" transform="translate(0.0693359 0.0224609)"/>
</clipPath>
</defs>
</svg>
