<svg width="19" height="23" viewBox="0 0 19 23" fill="none" xmlns="http://www.w3.org/2000/svg">
<g clip-path="url(#clip0_2207_23876)">
<path d="M15.8989 22.1535C16.5786 22.1535 17.1411 22.1418 17.5044 22.0715C17.9614 21.966 18.3833 21.673 18.3833 21.0754C18.3833 20.466 17.938 20.0793 17.3403 20.0793C16.9301 20.0793 16.5551 20.1027 16.0044 20.1027C11.8442 20.1027 9.99267 18.6848 10.0044 14.4426L10.0161 6.42701L9.92236 3.23951L12.2661 5.81763L16.1098 9.66138C16.2973 9.84888 16.5669 9.94263 16.8481 9.94263C17.4341 9.94263 17.8559 9.49732 17.8559 8.9231C17.8559 8.64185 17.7622 8.39576 17.5395 8.16138L9.7583 0.368408C9.53564 0.134034 9.26611 0.0168457 8.97314 0.0168457C8.68017 0.0168457 8.41064 0.134034 8.18799 0.368408L0.418457 8.16138C0.195801 8.39576 0.090332 8.64185 0.090332 8.9231C0.090332 9.49732 0.512207 9.94263 1.09814 9.94263C1.37939 9.94263 1.66064 9.84888 1.83642 9.66138L5.68017 5.81763L8.01221 3.25123L7.93017 6.42701V14.548C7.93017 19.9973 10.4848 22.1535 15.8989 22.1535Z" fill="black" fill-opacity="0.85"/>
</g>
<defs>
<clipPath id="clip0_2207_23876">
<rect width="18.293" height="22.1367" fill="white" transform="translate(0.090332 0.0168457)"/>
</clipPath>
</defs>
</svg>
