<svg width="22" height="22" viewBox="0 0 22 22" fill="none" xmlns="http://www.w3.org/2000/svg">
<g clip-path="url(#clip0_2207_23826)">
<path d="M3.76172 21.6119H17.9765C20.4375 21.6119 21.6562 20.3931 21.6562 17.979V3.67041C21.6562 1.25635 20.4375 0.0375977 17.9765 0.0375977H3.76172C1.3125 0.0375977 0.0820312 1.24463 0.0820312 3.67041V17.979C0.0820312 20.4048 1.3125 21.6119 3.76172 21.6119Z" fill="black" fill-opacity="0.85"/>
<path d="M3.91406 11.8384L3.96094 7.60791C3.96094 7.39697 4.05469 7.1626 4.19531 7.02197C4.51172 6.69385 4.96875 6.69385 5.29687 7.02197C5.44922 7.17432 5.54297 7.37354 5.53125 7.58447L5.50781 9.37744L5.47265 10.022L5.84765 9.61182L11.3789 4.08057C11.707 3.76416 12.1875 3.76416 12.4922 4.08057C12.8203 4.40869 12.8086 4.87744 12.4922 5.19385L6.97265 10.7251L6.53906 11.1119L7.21875 11.0884L9 11.065C9.21094 11.065 9.39844 11.1353 9.5625 11.2994C9.87891 11.6158 9.87891 12.0611 9.55078 12.3775C9.42187 12.5181 9.21094 12.6119 8.98828 12.6236L4.73437 12.6704C4.30078 12.6822 3.91406 12.2954 3.91406 11.8384ZM17.8476 9.7876L17.8008 14.0415C17.789 14.2642 17.7187 14.4869 17.5781 14.6158C17.2617 14.9322 16.7929 14.9322 16.4765 14.6158C16.3242 14.4517 16.2539 14.2642 16.2539 14.0533L16.2773 12.2603L16.3242 11.5923L15.9258 12.0259L10.3828 17.5454C10.0664 17.8736 9.59765 17.8619 9.28125 17.5454C8.95312 17.2173 8.95312 16.7603 9.28125 16.4439L14.8125 10.9009L15.2461 10.5259L14.5664 10.5494L12.7617 10.5845C12.5625 10.5845 12.375 10.5025 12.2109 10.3501C11.8945 10.0337 11.8945 9.58838 12.2226 9.24854C12.3632 9.11963 12.5976 9.01416 12.7851 9.01416L17.039 8.979C17.4843 8.979 17.8476 9.31885 17.8476 9.7876Z" fill="white"/>
</g>
<defs>
<clipPath id="clip0_2207_23826">
<rect width="21.5742" height="21.5977" fill="white" transform="translate(0.0820312 0.0141602)"/>
</clipPath>
</defs>
</svg>
