<svg width="22" height="22" viewBox="0 0 22 22" fill="none" xmlns="http://www.w3.org/2000/svg">
<g clip-path="url(#clip0_2207_23796)">
<path d="M3.72168 21.6159H17.9365C20.3975 21.6159 21.6162 20.3971 21.6162 17.983V3.67444C21.6162 1.26038 20.3975 0.041626 17.9365 0.041626H3.72168C1.27246 0.041626 0.0419922 1.24866 0.0419922 3.67444V17.983C0.0419922 20.4088 1.27246 21.6159 3.72168 21.6159ZM3.74511 19.7291C2.57324 19.7291 1.92871 19.108 1.92871 17.8893V3.76819C1.92871 2.54944 2.57324 1.92835 3.74511 1.92835H17.9131C19.0732 1.92835 19.7295 2.54944 19.7295 3.76819V17.8893C19.7295 19.108 19.0732 19.7291 17.9131 19.7291H3.74511Z" fill="black" fill-opacity="0.85"/>
<path d="M6.65137 5.33846L3.75683 8.29159C3.62793 8.44393 3.52246 8.66659 3.52246 8.83065C3.52246 9.26424 3.85058 9.59237 4.28418 9.59237C4.4834 9.59237 4.6709 9.49862 4.81152 9.35799L6.01855 8.10409L6.46387 7.62362L6.44043 8.19784V15.7915C6.44043 16.2134 6.76855 16.5298 7.20215 16.5298C7.64746 16.5298 7.97558 16.2134 7.97558 15.7915V8.18612L7.94043 7.62362L8.39746 8.10409L9.60449 9.36971C9.74511 9.51034 9.93261 9.59237 10.1318 9.59237C10.5654 9.59237 10.8818 9.27596 10.8818 8.83065C10.8818 8.64315 10.7764 8.42049 10.6475 8.29159L7.76465 5.33846C7.4834 5.04549 6.99121 4.99862 6.65137 5.33846ZM15.0303 16.3072L17.9014 13.3658C18.042 13.2134 18.1475 13.0025 18.1475 12.815C18.1475 12.3697 17.8428 12.065 17.3975 12.065C17.1865 12.065 16.9873 12.147 16.8584 12.2876L15.6514 13.5298L15.2061 14.0103L15.2295 13.4595V5.85409C15.2295 5.42049 14.9014 5.10409 14.4678 5.10409C14.0342 5.10409 13.7061 5.42049 13.7061 5.85409V13.4712L13.7295 14.022L13.2842 13.5298L12.0772 12.2876C11.9248 12.1353 11.749 12.065 11.5381 12.065C11.0928 12.065 10.7998 12.3697 10.7998 12.815C10.7998 12.9908 10.8818 13.2017 11.0225 13.3658L13.9053 16.3072C14.1748 16.5884 14.7139 16.6353 15.0303 16.3072Z" fill="black" fill-opacity="0.85"/>
</g>
<defs>
<clipPath id="clip0_2207_23796">
<rect width="21.5742" height="21.5977" fill="white" transform="translate(0.0419922 0.0181885)"/>
</clipPath>
</defs>
</svg>
