<svg width="22" height="22" viewBox="0 0 22 22" fill="none" xmlns="http://www.w3.org/2000/svg">
<g clip-path="url(#clip0_2207_24233)">
<path d="M3.72583 21.6145H17.9406C20.4016 21.6145 21.6203 20.3957 21.6203 17.9816V3.6731C21.6203 1.25904 20.4016 0.0402832 17.9406 0.0402832H3.72583C1.27661 0.0402832 0.0461426 1.24732 0.0461426 3.6731V17.9816C0.0461426 20.4074 1.27661 21.6145 3.72583 21.6145Z" fill="black" fill-opacity="0.85"/>
<path d="M3.55005 10.8215C3.55005 10.3645 3.90161 10.0246 4.37036 10.0246H9.90161L12.1164 10.1418L9.65552 7.96215L8.90552 7.23559C8.72973 7.07153 8.65942 6.86059 8.65942 6.63793C8.65942 6.1809 9.01098 5.8645 9.46802 5.8645C9.67895 5.8645 9.88989 5.92309 10.0539 6.11059L14.2258 10.2121C14.4016 10.3879 14.507 10.5988 14.507 10.8215C14.507 11.0559 14.425 11.2551 14.2258 11.4309L10.0656 15.4973C9.91333 15.6613 9.65552 15.7668 9.4563 15.7668C8.98755 15.7668 8.65942 15.4387 8.65942 14.9816C8.65942 14.7356 8.72973 14.5363 8.90552 14.3957L9.66723 13.6926L12.1281 11.5012L9.90161 11.6535H4.37036C3.90161 11.6535 3.55005 11.3137 3.55005 10.8215ZM16.2297 16.1535C15.7727 16.1535 15.4328 15.8254 15.4328 15.3566V6.27465C15.4328 5.8059 15.7727 5.46606 16.2297 5.46606C16.7102 5.46606 17.0617 5.8059 17.0617 6.27465V15.3566C17.0617 15.8254 16.7102 16.1535 16.2297 16.1535Z" fill="white"/>
</g>
<defs>
<clipPath id="clip0_2207_24233">
<rect width="21.5742" height="21.5977" fill="white" transform="translate(0.0461426 0.0168457)"/>
</clipPath>
</defs>
</svg>
