<svg width="24" height="25" viewBox="0 0 24 25" fill="none" xmlns="http://www.w3.org/2000/svg">
<g clip-path="url(#clip0_2207_23983)">
<path d="M11.9992 23.9272C18.5383 23.9272 23.9523 18.5132 23.9523 11.9741C23.9523 5.44678 18.5266 0.0209961 11.9875 0.0209961C5.4602 0.0209961 0.0461426 5.44678 0.0461426 11.9741C0.0461426 18.5132 5.47192 23.9272 11.9992 23.9272Z" fill="black" fill-opacity="0.85"/>
<path d="M5.98755 13.2983C5.98755 10.6382 7.87426 8.88038 10.6984 8.88038H14.132L15.3391 8.92725L14.5422 8.30616L13.3586 7.15772C13.1828 6.99366 13.0773 6.771 13.0773 6.52491C13.0773 6.021 13.4523 5.62256 13.9563 5.62256C14.2258 5.62256 14.425 5.71631 14.6008 5.89209L17.6594 8.99756C17.8703 9.2085 17.9758 9.47803 17.9758 9.73584C17.9758 10.0054 17.882 10.2632 17.6594 10.4741L14.5891 13.6148C14.425 13.7788 14.2141 13.8726 13.9445 13.8726C13.4641 13.8726 13.0773 13.4741 13.0773 12.9702C13.0773 12.7241 13.1828 12.5015 13.3586 12.3257L14.7766 10.9663L15.3273 10.5679L14.132 10.6265H10.6984C8.91723 10.6265 7.73364 11.6929 7.73364 13.2983C7.73364 15.021 8.94067 16.1694 10.7102 16.1694H12.3156C12.8664 16.1694 13.2297 16.5327 13.2297 17.0483C13.2297 17.5757 12.8547 17.9155 12.2922 17.9155H10.7102C7.88598 17.9155 5.98755 16.0874 5.98755 13.2983Z" fill="white"/>
</g>
<defs>
<clipPath id="clip0_2207_23983">
<rect width="23.9062" height="24.1992" fill="white" transform="translate(0.0461426 0.0209961)"/>
</clipPath>
</defs>
</svg>
