<svg width="22" height="22" viewBox="0 0 22 22" fill="none" xmlns="http://www.w3.org/2000/svg">
<g clip-path="url(#clip0_2207_23846)">
<path d="M3.72376 21.6174H17.9386C20.3996 21.6174 21.6183 20.3986 21.6183 17.9845V3.6759C21.6183 1.26184 20.3996 0.0430908 17.9386 0.0430908H3.72376C1.27454 0.0430908 0.0440674 1.25012 0.0440674 3.6759V17.9845C0.0440674 20.4103 1.27454 21.6174 3.72376 21.6174ZM3.74719 19.7306C2.57532 19.7306 1.93079 19.1095 1.93079 17.8908V3.76965C1.93079 2.5509 2.57532 1.92981 3.74719 1.92981H17.9152C19.0753 1.92981 19.7316 2.5509 19.7316 3.76965V17.8908C19.7316 19.1095 19.0753 19.7306 17.9152 19.7306H3.74719Z" fill="black" fill-opacity="0.85"/>
<path d="M17.5988 11.8205L17.5519 7.70715C17.5519 7.50793 17.4582 7.28527 17.3293 7.14465C17.0246 6.82824 16.5793 6.82824 16.2629 7.14465C16.1222 7.28527 16.0285 7.48449 16.0402 7.68371L16.0636 9.42981L16.0988 10.0627L15.7238 9.66418L10.3566 4.28527C10.0402 3.98059 9.57141 3.98059 9.27845 4.28527C8.96204 4.60168 8.97376 5.05871 9.27845 5.3634L14.6457 10.7424L15.0675 11.1174L14.3996 11.0939L12.6652 11.0705C12.466 11.0705 12.2785 11.1408 12.1261 11.2931C11.8214 11.5978 11.8214 12.0314 12.1379 12.3361C12.255 12.4767 12.466 12.5588 12.6769 12.5705L16.8019 12.6174C17.2238 12.6291 17.5988 12.2541 17.5988 11.8205ZM4.08704 9.81653L4.13391 13.9533C4.14563 14.1642 4.21595 14.3752 4.33313 14.5041C4.64954 14.8088 5.10657 14.8088 5.41126 14.5041C5.55188 14.3517 5.62219 14.1642 5.62219 13.965L5.59876 12.2189L5.55188 11.5627L5.95032 11.9845L11.3293 17.3517C11.6339 17.6681 12.091 17.6564 12.3957 17.3517C12.7121 17.0353 12.7121 16.59 12.3957 16.2853L7.01673 10.8947L6.59485 10.5314L7.26282 10.5549L9.02063 10.59C9.20813 10.59 9.39563 10.508 9.54798 10.3674C9.85266 10.0627 9.85266 9.62903 9.53626 9.3009C9.40735 9.17199 9.18469 9.07824 8.99719 9.07824L4.87219 9.04309C4.4386 9.04309 4.08704 9.37121 4.08704 9.81653Z" fill="black" fill-opacity="0.85"/>
</g>
<defs>
<clipPath id="clip0_2207_23846">
<rect width="21.5742" height="21.5977" fill="white" transform="translate(0.0440674 0.0196533)"/>
</clipPath>
</defs>
</svg>
