<svg width="23" height="23" viewBox="0 0 23 23" fill="none" xmlns="http://www.w3.org/2000/svg">
<g clip-path="url(#clip0_2207_24330)">
<path d="M1.10131 9.50012C1.72241 9.50012 2.16772 9.03137 2.16772 8.41027V7.4259L1.93335 3.33606L5.01538 6.58215L8.62475 10.215C8.82397 10.4259 9.08178 10.5197 9.36303 10.5197C10.031 10.5197 10.5232 10.0861 10.5232 9.42981C10.5232 9.1134 10.4177 8.83215 10.2068 8.62121L6.58569 5.01184L3.3396 1.92981L7.44116 2.16418H8.41381C9.03491 2.16418 9.51538 1.73059 9.51538 1.09777C9.51538 0.464965 9.04663 0.0196533 8.41381 0.0196533H1.90991C0.714599 0.0196533 0.0231934 0.711059 0.0231934 1.90637V8.41027C0.0231934 9.01965 0.480224 9.50012 1.10131 9.50012ZM13.9568 22.3791H20.4607C21.656 22.3791 22.3591 21.6877 22.3591 20.4924V13.9885C22.3591 13.3791 21.9021 12.8986 21.2693 12.8986C20.6599 12.8986 20.2029 13.3674 20.2029 13.9885V14.9728L20.449 19.0627L17.3552 15.8166L13.7576 12.1838C13.5584 11.9728 13.2888 11.8791 13.0076 11.8791C12.3513 11.8791 11.8474 12.3127 11.8474 12.9689C11.8474 13.2853 11.9646 13.5666 12.1755 13.7775L15.7849 17.3869L19.0427 20.4689L14.9412 20.2345H13.9568C13.3357 20.2345 12.8552 20.6681 12.8552 21.3009C12.8552 21.9338 13.3357 22.3791 13.9568 22.3791Z" fill="black" fill-opacity="0.85"/>
</g>
<defs>
<clipPath id="clip0_2207_24330">
<rect width="22.3359" height="22.3711" fill="white" transform="translate(0.0231934 0.0196533)"/>
</clipPath>
</defs>
</svg>
