<svg width="23" height="23" viewBox="0 0 23 23" fill="none" xmlns="http://www.w3.org/2000/svg">
<g clip-path="url(#clip0_2207_24050)">
<path d="M0.0335693 6.34777C0.0335693 7.37903 1.13513 7.63684 1.79138 6.96887L6.98279 1.77746C7.66248 1.10949 7.39295 0.0196533 6.36169 0.0196533H1.09998C0.443725 0.0196533 0.0335693 0.464965 0.0335693 1.09777V6.34777ZM3.05701 4.51965L17.9047 19.3791L19.393 17.9142L4.54529 3.04309L3.05701 4.51965ZM22.4281 16.0861C22.4281 15.0431 21.3266 14.797 20.6586 15.4533L15.4672 20.6447C14.7992 21.3244 15.0688 22.4142 16.1 22.4142H21.3617C22.018 22.4142 22.4281 21.9572 22.4281 21.3361V16.0861ZM22.4281 6.34777V1.09777C22.4281 0.464965 22.018 0.0196533 21.3617 0.0196533H16.1C15.0688 0.0196533 14.7992 1.10949 15.4672 1.77746L20.6586 6.96887C21.3266 7.63684 22.4281 7.37903 22.4281 6.34777ZM4.54529 19.3791L19.4047 4.51965L17.9164 3.04309L3.05701 17.9025L4.54529 19.3791ZM0.0335693 16.0861V21.3361C0.0335693 21.9572 0.443725 22.4142 1.09998 22.4142H6.36169C7.39295 22.4142 7.66248 21.3244 6.98279 20.6447L1.79138 15.4533C1.13513 14.797 0.0335693 15.0431 0.0335693 16.0861Z" fill="black" fill-opacity="0.85"/>
</g>
<defs>
<clipPath id="clip0_2207_24050">
<rect width="22.3945" height="22.418" fill="white" transform="translate(0.0335693 0.0196533)"/>
</clipPath>
</defs>
</svg>
