<svg width="19" height="23" viewBox="0 0 19 23" fill="none" xmlns="http://www.w3.org/2000/svg">
<g clip-path="url(#clip0_2207_23872)">
<path d="M2.56714 22.1535C7.99292 22.1535 10.5476 19.9973 10.5476 14.548V6.42701L10.4539 3.25123L12.7859 5.81763L16.6297 9.66138C16.8172 9.84888 17.0984 9.94263 17.3679 9.94263C17.9539 9.94263 18.3875 9.49732 18.3875 8.9231C18.3875 8.64185 18.282 8.39576 18.0593 8.16138L10.2781 0.368408C10.0554 0.134034 9.78589 0.0168457 9.49292 0.0168457C9.21167 0.0168457 8.94214 0.134034 8.71948 0.368408L0.938232 8.16138C0.715576 8.39576 0.610107 8.64185 0.610107 8.9231C0.610107 9.49732 1.0437 9.94263 1.61792 9.94263C1.89917 9.94263 2.18042 9.84888 2.36792 9.66138L6.19995 5.81763L8.55542 3.23951L8.44995 6.42701L8.46167 14.4426C8.47339 18.6848 6.63354 20.1027 2.46167 20.1027C1.9226 20.1027 1.53589 20.0793 1.13745 20.0793C0.528076 20.0793 0.0944824 20.466 0.0944824 21.0754C0.0944824 21.673 0.504638 21.966 0.973388 22.0715C1.32495 22.1418 1.89917 22.1535 2.56714 22.1535Z" fill="black" fill-opacity="0.85"/>
</g>
<defs>
<clipPath id="clip0_2207_23872">
<rect width="18.293" height="22.1367" fill="white" transform="translate(0.0944824 0.0168457)"/>
</clipPath>
</defs>
</svg>
