<svg width="26" height="28" viewBox="0 0 26 28" fill="none" xmlns="http://www.w3.org/2000/svg">
<g clip-path="url(#clip0_2207_22004)">
<path d="M25.5314 25.694V16.4479C25.5314 15.0534 24.8986 14.4205 23.5157 14.4205H9.50011C8.46886 14.4205 7.91808 15.194 7.91808 16.0143C7.91808 16.5885 8.1759 17.1276 8.72668 17.5026L22.7306 27.1002C23.1173 27.358 23.5392 27.4635 23.9493 27.4635C24.7931 27.4635 25.5314 26.901 25.5314 25.694ZM25.5314 1.78772C25.5314 0.580688 24.7931 0.0181885 23.9493 0.0181885C23.5392 0.0181885 23.1173 0.123657 22.7306 0.381469L8.72668 9.97913C8.1759 10.3541 7.91808 10.8932 7.91808 11.4557C7.91808 12.2877 8.46886 13.0612 9.50011 13.0612H23.5157C24.8986 13.0612 25.5314 12.4284 25.5314 11.0338V1.78772Z" fill="black" fill-opacity="0.85"/>
<path d="M5.19933 21.0651H3.68761V6.41664H5.19933C6.03136 6.41664 6.23058 5.76039 5.75011 5.10414L3.59386 2.15101C3.23058 1.64711 2.82043 1.65882 2.45715 2.15101L0.277457 5.10414C-0.203012 5.76039 -0.0155123 6.41664 0.851675 6.41664H2.32824V21.0651H0.851675C-0.00379354 21.0651 -0.203012 21.7213 0.289175 22.3659L2.45715 25.3307C2.82043 25.8229 3.23058 25.8346 3.59386 25.3307L5.76183 22.3659C6.23058 21.7213 6.04308 21.0651 5.19933 21.0651Z" fill="black" fill-opacity="0.85"/>
</g>
<defs>
<clipPath id="clip0_2207_22004">
<rect width="25.5126" height="27.457" fill="white" transform="translate(0.0187988 0.0181885)"/>
</clipPath>
</defs>
</svg>
