<svg width="22" height="26" viewBox="0 0 22 26" fill="none" xmlns="http://www.w3.org/2000/svg">
<g clip-path="url(#clip0_2207_1311)">
<path d="M10.7524 0.0355225C10.3657 0.0355225 9.92041 0.187866 9.49854 0.633179L0.768067 9.87927C0.240723 10.4418 0.00634766 10.9105 0.00634766 11.4847C0.00634766 12.2816 0.592286 12.8558 1.37744 12.8558H5.85401V22.3715C5.85401 24.223 6.90869 25.3011 8.7251 25.3011H12.768C14.5844 25.3011 15.6391 24.223 15.6391 22.3715V12.8558H20.0688C20.854 12.8558 21.5102 12.2816 21.5102 11.4613C21.5102 10.8871 21.2524 10.5004 20.6665 9.87927L12.018 0.633179C11.5961 0.176148 11.1508 0.0355225 10.7524 0.0355225ZM10.7524 2.13318C10.8227 2.13318 10.893 2.16833 10.9751 2.26208L18.979 10.6058C19.0375 10.6644 19.0727 10.7347 19.0727 10.805C19.0727 10.9105 19.0141 10.9691 18.9086 10.9691H14.2563C13.9868 10.9691 13.8696 11.098 13.8696 11.3676V22.348C13.8696 23.098 13.4477 23.5316 12.686 23.5316H8.81885C8.05713 23.5316 7.62354 23.098 7.62354 22.348V11.3676C7.62354 11.098 7.50635 10.9691 7.23682 10.9691H2.70166C2.59619 10.9691 2.52588 10.9105 2.52588 10.8168C2.52588 10.7465 2.56104 10.6761 2.63135 10.6058L10.5297 2.26208C10.6235 2.16833 10.6821 2.13318 10.7524 2.13318Z" fill="black" fill-opacity="0.85"/>
</g>
<defs>
<clipPath id="clip0_2207_1311">
<rect width="21.5039" height="25.2773" fill="white" transform="translate(0.00634766 0.0238037)"/>
</clipPath>
</defs>
</svg>
