<svg width="27" height="27" viewBox="0 0 27 27" fill="none" xmlns="http://www.w3.org/2000/svg">
<g clip-path="url(#clip0_2207_23831)">
<path d="M26.277 15.5251L26.1949 7.07582C26.1949 6.78285 26.066 6.47816 25.8785 6.29066C25.4449 5.85707 24.8356 5.86879 24.4137 6.29066C24.2027 6.5016 24.109 6.74769 24.109 7.01722L24.1676 10.5212L24.3785 13.404L22.5387 11.4118L11.4762 0.349257C11.0426 -0.0843357 10.4098 -0.0960546 9.98787 0.349257C9.54256 0.771132 9.55428 1.39222 9.98787 1.82582L21.0504 12.9001L23.0426 14.7282L20.1715 14.529L16.6676 14.4704C16.3863 14.4704 16.1402 14.5524 15.9293 14.7751C15.5074 15.197 15.4957 15.7946 15.9293 16.2399C16.1285 16.4157 16.4215 16.5446 16.7262 16.5446L25.1637 16.6384C25.7965 16.6618 26.3004 16.1696 26.277 15.5251Z" fill="black" fill-opacity="0.85"/>
<path d="M0.0386275 10.7906L0.132377 19.2281C0.132377 19.5328 0.261284 19.8258 0.437065 20.0133C0.882378 20.4586 1.48003 20.4469 1.90191 20.0133C2.11284 19.8023 2.20659 19.568 2.20659 19.2867L2.148 15.7711L1.94878 12.9L3.77691 14.9039L14.8511 25.9664C15.2847 26.4 15.8941 26.4 16.3276 25.9664C16.773 25.5328 16.7612 24.9117 16.3276 24.4781L5.26519 13.4156L3.273 11.5875L6.14409 11.7867L9.65972 11.8453C9.92925 11.8453 10.1636 11.7515 10.3745 11.5406C10.8081 11.1187 10.8198 10.5094 10.3745 10.0758C10.187 9.88829 9.89409 9.75939 9.60113 9.75939L1.15191 9.67735C0.519096 9.65391 0.01519 10.1226 0.0386275 10.7906Z" fill="black" fill-opacity="0.85"/>
</g>
<defs>
<clipPath id="clip0_2207_23831">
<rect width="26.2399" height="26.2881" fill="white" transform="translate(0.0378418 0.0196533)"/>
</clipPath>
</defs>
</svg>
