<svg width="24" height="30" viewBox="0 0 24 30" fill="none" xmlns="http://www.w3.org/2000/svg">
<g clip-path="url(#clip0_2207_928)">
<path d="M5.71301 3.69654V19.9738C5.71301 22.4113 6.92004 23.6535 9.34583 23.6535H20.3614C22.7755 23.6535 23.9942 22.4113 23.9942 19.9738V3.69654C23.9942 1.24732 22.7755 0.0168457 20.3614 0.0168457H9.34583C6.92004 0.0168457 5.71301 1.24732 5.71301 3.69654ZM11.9942 4.03638C11.4786 4.03638 11.2442 3.69654 11.2442 3.34497V3.09888C11.2442 2.7356 11.4786 2.40747 11.9942 2.40747H17.713C18.2169 2.40747 18.463 2.7356 18.463 3.09888V3.34497C18.463 3.69654 18.2169 4.03638 17.713 4.03638H11.9942Z" fill="black" fill-opacity="0.85"/>
<path d="M0.0294189 25.8215C0.0294189 28.2707 1.23645 29.5012 3.66223 29.5012H14.6778C17.1036 29.5012 18.3106 28.259 18.3106 25.8215V9.54418C18.3106 7.09496 17.1036 5.8645 14.6778 5.8645H3.66223C1.23645 5.8645 0.0294189 7.08325 0.0294189 9.54418V25.8215Z" fill="white"/>
<path d="M0.0294189 25.8215C0.0294189 28.2707 1.23645 29.5012 3.66223 29.5012H14.6778C17.1036 29.5012 18.3106 28.259 18.3106 25.8215V9.54418C18.3106 7.09496 17.1036 5.8645 14.6778 5.8645H3.66223C1.23645 5.8645 0.0294189 7.08325 0.0294189 9.54418V25.8215ZM1.91614 25.7863V9.56762C1.91614 8.40746 2.53723 7.75122 3.74426 7.75122H14.5841C15.7911 7.75122 16.4239 8.40746 16.4239 9.56762V25.7863C16.4239 26.9582 15.7911 27.6145 14.5841 27.6145H3.74426C2.53723 27.6145 1.91614 26.9582 1.91614 25.7863Z" fill="black" fill-opacity="0.85"/>
<path d="M4.04895 17.6653C4.04895 18.0989 4.35364 18.4153 4.77551 18.4153H9.84973L11.9591 18.3333L10.7286 19.3763L9.5802 20.5013C9.43958 20.6419 9.35754 20.8177 9.35754 21.0286C9.35754 21.4271 9.66223 21.7552 10.0724 21.7552C10.2716 21.7552 10.4474 21.6731 10.5763 21.5442L13.8575 18.2513C14.045 18.0638 14.1505 17.8997 14.1505 17.6653C14.1505 17.4661 14.0567 17.3021 13.8575 17.1028L10.5763 13.7981C10.4474 13.6692 10.2716 13.5989 10.0724 13.5989C9.66223 13.5989 9.35754 13.9153 9.35754 14.3138C9.35754 14.5247 9.4513 14.7005 9.5802 14.8411L10.7286 15.9778L11.9474 17.0091L9.84973 16.9388H4.77551C4.35364 16.9388 4.04895 17.2317 4.04895 17.6653Z" fill="black" fill-opacity="0.85"/>
</g>
<defs>
<clipPath id="clip0_2207_928">
<rect width="23.9648" height="29.5195" fill="white" transform="translate(0.0294189 0.0168457)"/>
</clipPath>
</defs>
</svg>
