<svg width="28" height="22" viewBox="0 0 28 22" fill="none" xmlns="http://www.w3.org/2000/svg">
<g clip-path="url(#clip0_2207_7167)">
<path d="M3.68604 21.5939H23.9594C26.4204 21.5939 27.6391 20.3869 27.6391 17.9728V3.65246C27.6391 1.2384 26.4204 0.0196533 23.9594 0.0196533H3.68604C1.23682 0.0196533 0.00634766 1.2384 0.00634766 3.65246V17.9728C0.00634766 20.3869 1.23682 21.5939 3.68604 21.5939Z" fill="black" fill-opacity="0.85"/>
<path d="M11.2211 17.0236C10.6821 17.0236 10.3305 16.6486 10.3305 16.0744V14.1524L10.5063 12.2774L8.76026 14.1407L5.13916 17.7619C4.96338 17.9377 4.74073 18.043 4.44776 18.043C3.90869 18.043 3.55713 17.6915 3.55713 17.1407C3.55713 16.9063 3.67432 16.6602 3.8501 16.4844L7.48291 12.8634L9.36963 11.1055L7.57666 11.293H5.56104C4.9751 11.293 4.6001 10.9415 4.6001 10.4024C4.6001 9.87512 4.96338 9.52356 5.5376 9.52356H11.0922C11.7133 9.52356 12.1118 9.80481 12.1118 10.5196V16.0508C12.1118 16.6135 11.7485 17.0236 11.2211 17.0236Z" fill="white"/>
</g>
<defs>
<clipPath id="clip0_2207_7167">
<rect width="27.6328" height="21.5742" fill="white" transform="translate(0.00634766 0.0196533)"/>
</clipPath>
</defs>
</svg>
