<svg width="19" height="23" viewBox="0 0 19 23" fill="none" xmlns="http://www.w3.org/2000/svg">
<g id="arrow.turn.right.down" clip-path="url(#clip0_2124_13747)">
<g id="Group">
<path id="Vector" d="M2.47266 0C1.80469 0 1.23047 0.0234375 0.878906 0.0820312C0.410156 0.175781 0 0.480469 0 1.07812C0 1.6875 0.433594 2.07422 1.04297 2.07422C1.44141 2.07422 1.82812 2.05078 2.36719 2.05078C6.53906 2.05078 8.37891 3.46875 8.36719 7.71094L8.35547 15.7266L8.46094 18.9141L6.10547 16.3359L2.27344 12.4922C2.08594 12.3047 1.80469 12.2109 1.52344 12.2109C0.949219 12.2109 0.515625 12.6562 0.515625 13.2305C0.515625 13.5117 0.621094 13.7578 0.84375 13.9922L8.625 21.7852C8.84766 22.0195 9.11719 22.1367 9.39844 22.1367C9.69141 22.1367 9.96094 22.0195 10.1836 21.7852L17.9648 13.9922C18.1875 13.7578 18.293 13.5117 18.293 13.2305C18.293 12.6562 17.8594 12.2109 17.2734 12.2109C17.0039 12.2109 16.7227 12.3047 16.5352 12.4922L12.6914 16.3359L10.3594 18.9023L10.4531 15.7266V7.60547C10.4531 2.15625 7.89844 0 2.47266 0Z" fill="black" fill-opacity="0.85"/>
</g>
</g>
<defs>
<clipPath id="clip0_2124_13747">
<rect width="18.293" height="22.1367" fill="white"/>
</clipPath>
</defs>
</svg>
