<svg width="23" height="29" viewBox="0 0 23 29" fill="none" xmlns="http://www.w3.org/2000/svg">
<g clip-path="url(#clip0_2207_329)">
<path d="M6.21607 5.37647H8.07935V2.86866C8.07935 2.20069 8.5481 1.76709 9.25123 1.76709H13.4465C14.1496 1.76709 14.6184 2.20069 14.6184 2.86866V5.37647H16.4816V2.75147C16.4816 1.05225 15.3801 0.0209961 13.5754 0.0209961H9.12232C7.31763 0.0209961 6.21607 1.05225 6.21607 2.75147V5.37647ZM0.895752 6.31397H21.8371C22.3176 6.31397 22.7043 5.90381 22.7043 5.42334C22.7043 4.94288 22.3176 4.54444 21.8371 4.54444H0.895752C0.427002 4.54444 0.0168457 4.94288 0.0168457 5.42334C0.0168457 5.91553 0.427002 6.31397 0.895752 6.31397ZM5.99341 26.1187H16.7395C18.4152 26.1187 19.5402 25.0288 19.6223 23.353L20.4426 6.06788H2.27857L3.1106 23.3648C3.19263 25.0405 4.29419 26.1187 5.99341 26.1187Z" fill="black" fill-opacity="0.85"/>
<path d="M11.3371 20.564C10.8918 20.564 10.5754 20.2358 10.5754 19.8022V14.5874L10.6574 12.4194L9.60279 13.6851L8.41919 14.8569C8.29029 14.9858 8.10279 15.0913 7.88013 15.0913C7.45826 15.0913 7.14185 14.7749 7.14185 14.353C7.14185 14.1421 7.21216 13.9546 7.35279 13.8257L10.7512 10.4507C10.9621 10.2398 11.1145 10.146 11.3371 10.146C11.5715 10.146 11.7473 10.2515 11.9348 10.4507L15.3215 13.8257C15.4621 13.9546 15.5441 14.1421 15.5441 14.353C15.5441 14.7749 15.216 15.0913 14.7941 15.0913C14.5715 15.0913 14.384 15.0093 14.2551 14.8569L13.0832 13.6851L12.0285 12.4077L12.0988 14.5874V19.8022C12.0988 20.2358 11.7824 20.564 11.3371 20.564Z" fill="white"/>
</g>
<defs>
<clipPath id="clip0_2207_329">
<rect width="22.6875" height="28.1836" fill="white" transform="translate(0.0168457 0.0209961)"/>
</clipPath>
</defs>
</svg>
