<svg width="22" height="22" viewBox="0 0 22 22" fill="none" xmlns="http://www.w3.org/2000/svg">
<g clip-path="url(#clip0_2207_24373)">
<path d="M3.73633 21.6159H17.9511C20.4121 21.6159 21.6308 20.3971 21.6308 17.983V3.67444C21.6308 1.26038 20.4121 0.041626 17.9511 0.041626H3.73633C1.28711 0.041626 0.0566406 1.24866 0.0566406 3.67444V17.983C0.0566406 20.4088 1.28711 21.6159 3.73633 21.6159Z" fill="black" fill-opacity="0.85"/>
<path d="M5.45898 10.8112C4.9668 10.8112 4.58008 10.4244 4.58008 9.93225V5.5846C4.58008 4.8346 4.95508 4.54163 5.61133 4.54163H9.94726C10.4394 4.54163 10.8261 4.94007 10.8261 5.43225C10.8261 5.92444 10.4394 6.31116 9.94726 6.31116H9.33789L7.43945 6.19397L10.2285 8.85413C10.5918 9.20569 10.6035 9.82678 10.2402 10.1901C9.87695 10.5651 9.26758 10.5768 8.9043 10.1784L6.23242 7.36585L6.34961 9.32288V9.93225C6.34961 10.4244 5.95117 10.8112 5.45898 10.8112ZM11.7636 17.1041C11.2714 17.1041 10.873 16.7057 10.873 16.2135C10.873 15.7213 11.2714 15.3346 11.7636 15.3346H12.373L14.2714 15.4518L11.4707 12.7916C11.1074 12.4401 11.0957 11.819 11.4589 11.4557C11.8339 11.0807 12.4316 11.069 12.8066 11.4674L15.4785 14.2799L15.3613 12.3229V11.7135C15.3613 11.2213 15.748 10.8346 16.2402 10.8346C16.7324 10.8346 17.1308 11.2213 17.1308 11.7135V16.0612C17.1308 16.8112 16.7441 17.1041 16.0878 17.1041H11.7636Z" fill="white"/>
</g>
<defs>
<clipPath id="clip0_2207_24373">
<rect width="21.5742" height="21.5977" fill="white" transform="translate(0.0566406 0.0181885)"/>
</clipPath>
</defs>
</svg>
