<svg width="22" height="22" viewBox="0 0 22 22" fill="none" xmlns="http://www.w3.org/2000/svg">
<g clip-path="url(#clip0_2207_23909)">
<path d="M3.74073 21.5952H17.9555C20.4165 21.5952 21.6352 20.3765 21.6352 17.9624V3.65381C21.6352 1.23975 20.4165 0.0209961 17.9555 0.0209961H3.74073C1.29151 0.0209961 0.0610352 1.22803 0.0610352 3.65381V17.9624C0.0610352 20.3882 1.29151 21.5952 3.74073 21.5952ZM3.76416 19.7085C2.59229 19.7085 1.94776 19.0874 1.94776 17.8687V3.74756C1.94776 2.54053 2.59229 1.90772 3.76416 1.90772H17.9321C19.0922 1.90772 19.7485 2.54053 19.7485 3.74756V17.8687C19.7485 19.0874 19.0922 19.7085 17.9321 19.7085H3.76416Z" fill="black" fill-opacity="0.85"/>
<path d="M16.9126 12.2202C16.9126 9.40771 14.8735 7.69677 12.143 7.69677H8.63915L7.25634 7.74365L8.18212 7.00537L9.38915 5.83349C9.55322 5.69287 9.65869 5.47021 9.65869 5.23583C9.65869 4.74365 9.29541 4.38037 8.81494 4.38037C8.56884 4.38037 8.38134 4.4624 8.21728 4.63818L5.10009 7.79052C4.91259 7.98974 4.79541 8.23583 4.79541 8.51708C4.79541 8.78661 4.91259 9.02099 5.10009 9.22021L8.229 12.4194C8.39306 12.5835 8.58056 12.6538 8.82665 12.6538C9.29541 12.6538 9.65869 12.2905 9.65869 11.8101C9.65869 11.5874 9.57665 11.353 9.40087 11.2007L7.93603 9.79443L7.25634 9.29052L8.63915 9.3374H12.143C13.8657 9.3374 15.1899 10.3218 15.1899 12.1265C15.1899 13.978 13.9008 15.1148 12.1313 15.1148C11.9907 15.1148 10.5493 15.1148 10.5024 15.1148C9.99853 15.1148 9.61181 15.4194 9.61181 15.9585C9.61181 16.4976 9.99853 16.7905 10.5258 16.7905C10.5844 16.7905 11.9907 16.7905 12.1313 16.7905C14.8618 16.7905 16.9126 15.0444 16.9126 12.2202Z" fill="black" fill-opacity="0.85"/>
</g>
<defs>
<clipPath id="clip0_2207_23909">
<rect width="21.5742" height="21.6211" fill="white" transform="translate(0.0610352 0.0209961)"/>
</clipPath>
</defs>
</svg>
