<svg width="32" height="23" viewBox="0 0 32 23" fill="none" xmlns="http://www.w3.org/2000/svg">
<g clip-path="url(#clip0_2207_14169)">
<path d="M14.8464 8.40881C14.8464 8.74866 15.1043 9.01819 15.4675 9.06507C20.9871 9.68616 21.7957 10.4596 22.5339 16.1549C22.5925 16.5065 22.8621 16.7409 23.1785 16.7409C23.5066 16.7409 23.7761 16.5065 23.8347 16.1549C24.573 10.4596 25.3699 9.68616 30.8894 9.06507C31.2644 9.01819 31.5105 8.74866 31.5105 8.40881C31.5105 8.06897 31.2644 7.79944 30.8894 7.75257C25.3816 7.13147 24.573 6.34631 23.8347 0.662719C23.7761 0.322876 23.5183 0.088501 23.1785 0.088501C22.8503 0.088501 22.5925 0.322876 22.5339 0.662719C21.7488 6.31116 20.9988 7.01428 15.4675 7.75257C15.1043 7.79944 14.8464 8.06897 14.8464 8.40881ZM13.7332 18.6159C13.7332 18.8502 13.8972 19.0494 14.155 19.108C17.1433 19.6705 17.2019 19.6354 17.5417 22.4479C17.5886 22.7174 17.7761 22.9166 18.0339 22.9166C18.3035 22.9166 18.491 22.7291 18.5378 22.4596C18.9128 19.5182 19.0417 19.5182 21.9011 19.108C22.1707 19.0612 22.3464 18.862 22.3464 18.6159C22.3464 18.3815 22.1824 18.1705 21.9128 18.1237C19.0066 17.5612 18.9246 17.6315 18.5378 14.7604C18.491 14.5026 18.2917 14.3151 18.0339 14.3151C17.7761 14.3151 17.5886 14.5143 17.5417 14.7838C17.2019 17.5963 17.1316 17.6432 14.2019 18.1237C13.9089 18.1705 13.7332 18.358 13.7332 18.6159Z" fill="black" fill-opacity="0.85"/>
<path d="M0.010498 16.5885C0.010498 16.8463 0.139404 17.151 0.338623 17.3502L5.50659 22.6471C5.72925 22.8815 5.99878 22.9987 6.29175 22.9987C6.573 22.9987 6.84253 22.8815 7.06519 22.6471L12.2449 17.3502C12.4441 17.151 12.5613 16.8463 12.5613 16.5885C12.5613 15.9674 12.1394 15.5573 11.53 15.5573C11.2253 15.5573 10.991 15.651 10.8152 15.8385L9.11597 17.6315L7.21753 19.8112L7.33472 17.1041V5.91272L7.21753 3.20569L9.11597 5.38538L10.8152 7.17835C10.991 7.36585 11.2253 7.4596 11.53 7.4596C12.1394 7.4596 12.5613 7.04944 12.5613 6.42835C12.5613 6.17053 12.4441 5.86585 12.2449 5.66663L7.06519 0.36975C6.84253 0.135376 6.573 0.0181885 6.29175 0.0181885C5.99878 0.0181885 5.72925 0.135376 5.50659 0.36975L0.338623 5.66663C0.139404 5.86585 0.010498 6.17053 0.010498 6.42835C0.010498 7.04944 0.432373 7.4596 1.04175 7.4596C1.34644 7.4596 1.59253 7.35413 1.75659 7.17835L3.46753 5.38538L5.35425 3.20569L5.23706 5.91272V17.1041L5.35425 19.8112L3.46753 17.6315L1.75659 15.8385C1.59253 15.6627 1.34644 15.5573 1.04175 15.5573C0.432373 15.5573 0.010498 15.9674 0.010498 16.5885Z" fill="black" fill-opacity="0.85"/>
</g>
<defs>
<clipPath id="clip0_2207_14169">
<rect width="31.5" height="22.9805" fill="white" transform="translate(0.010498 0.0181885)"/>
</clipPath>
</defs>
</svg>
