<svg width="27" height="27" viewBox="0 0 27 27" fill="none" xmlns="http://www.w3.org/2000/svg">
<g clip-path="url(#clip0_2207_23806)">
<path d="M26.3125 10.7853C26.3359 10.1173 25.832 9.64854 25.1992 9.67198L16.75 9.75401C16.457 9.75401 16.1641 9.88292 15.9766 10.0705C15.5312 10.5041 15.543 11.1134 15.9766 11.5353C16.1876 11.7462 16.4219 11.84 16.6915 11.84L20.2071 11.7814L23.0781 11.5822L21.086 13.4103L10.0234 24.4728C9.58986 24.9064 9.57814 25.5275 10.0234 25.9611C10.457 26.3947 11.0665 26.3947 11.5001 25.9611L22.5742 14.8986L24.4023 12.8947L24.2031 15.7658L24.1446 19.2814C24.1446 19.5627 24.2382 19.797 24.4492 20.008C24.8711 20.4416 25.4687 20.4533 25.914 20.008C26.0898 19.8205 26.2304 19.5275 26.2304 19.2228L26.3125 10.7853Z" fill="black" fill-opacity="0.85"/>
<path d="M0.074272 15.5196C0.0508345 16.1641 0.55474 16.6563 1.18756 16.6329L9.62506 16.5391C9.92974 16.5391 10.2227 16.4102 10.4219 16.2344C10.8555 15.7891 10.8438 15.1915 10.4219 14.7696C10.211 14.5469 9.9649 14.4649 9.68365 14.4649L6.17974 14.5235L3.30865 14.7227L5.30084 12.8946L16.3633 1.82033C16.7969 1.38673 16.8087 0.765639 16.3633 0.343764C15.9415 -0.101548 15.3087 -0.0898288 14.8751 0.343764L3.81256 11.4063L1.98443 13.3985L2.18365 10.5157L2.24224 7.01173C2.24224 6.7422 2.14849 6.49611 1.93756 6.28517C1.51568 5.8633 0.906303 5.85158 0.472709 6.28517C0.296928 6.47267 0.156303 6.77736 0.156303 7.07033L0.074272 15.5196Z" fill="black" fill-opacity="0.85"/>
</g>
<defs>
<clipPath id="clip0_2207_23806">
<rect width="26.2399" height="26.2881" fill="white" transform="translate(0.0734863 0.0141602)"/>
</clipPath>
</defs>
</svg>
