<svg width="24" height="24" viewBox="0 0 24 24" fill="none" xmlns="http://www.w3.org/2000/svg">
<g clip-path="url(#clip0_2207_1436)">
<path d="M12.0307 23.9405C18.5698 23.9405 23.9838 18.5264 23.9838 11.9873C23.9838 5.45996 18.5581 0.0341797 12.019 0.0341797C5.4917 0.0341797 0.0776367 5.45996 0.0776367 11.9873C0.0776367 18.5264 5.50342 23.9405 12.0307 23.9405Z" fill="black" fill-opacity="0.85"/>
<path d="M6.01904 17.2022C5.67919 17.2022 5.35107 16.9092 5.35107 16.3467C5.35107 11.5303 7.40185 8.55371 12.0542 8.55371H12.2417V6.09277C12.2417 5.65918 12.5581 5.30762 13.0151 5.30762C13.3432 5.30762 13.5424 5.43652 13.8823 5.76465L19.0151 10.5577C19.2729 10.792 19.3549 11.0264 19.3549 11.2491C19.3549 11.4834 19.2729 11.7178 19.0151 11.9522L13.8823 16.7803C13.5776 17.0616 13.3315 17.2022 13.0034 17.2022C12.5581 17.2022 12.2417 16.8741 12.2417 16.4522V13.9561H12.0542C9.53466 13.9561 7.95263 14.6006 6.81591 16.7217C6.60497 17.1319 6.30029 17.2022 6.01904 17.2022Z" fill="white"/>
</g>
<defs>
<clipPath id="clip0_2207_1436">
<rect width="23.9062" height="23.918" fill="white" transform="translate(0.0776367 0.0224609)"/>
</clipPath>
</defs>
</svg>
