<svg width="30" height="23" viewBox="0 0 30 23" fill="none" xmlns="http://www.w3.org/2000/svg">
<g clip-path="url(#clip0_2207_8778)">
<path d="M23.2192 20.3799C26.7583 20.3799 29.5239 17.79 29.5239 14.5674C29.5239 12.1065 28.106 9.97364 25.8208 9.0127C25.8442 3.78614 22.0825 0.0126953 17.2896 0.0126953C14.1138 0.0126953 11.8521 1.71192 10.4458 3.7627C7.56299 2.91895 4.42237 5.11036 4.36377 8.39161C1.71533 8.81348 0.0629883 11.1807 0.0629883 14.04C0.0629883 17.4854 3.07471 20.3799 7.08252 20.3799H23.2192ZM23.2192 18.4932H7.08252C4.1294 18.4932 1.94971 16.4307 1.94971 14.04C1.94971 11.6963 3.36768 9.833 5.85205 9.833C6.01611 9.833 6.07471 9.75098 6.07471 9.59864C6.07471 5.98926 8.67627 4.92286 11.0786 5.70801C11.2192 5.75489 11.3013 5.71973 11.3716 5.59082C12.5083 3.56348 14.2544 1.89942 17.2896 1.89942C21.1333 1.89942 23.7935 4.94629 23.9927 8.42675C24.0278 8.96581 23.9927 9.59863 23.9458 10.1494C23.9341 10.3018 23.9927 10.3838 24.1333 10.4189C26.2661 10.8877 27.6372 12.4463 27.6372 14.5674C27.6372 16.7471 25.7153 18.4932 23.2192 18.4932Z" fill="black" fill-opacity="0.85"/>
<path d="M15.3442 16.4073C17.9692 16.4073 20.0669 14.298 20.0669 11.673C20.0669 11.2862 19.7271 10.9581 19.3403 10.9581C18.9419 10.9581 18.6138 11.2862 18.6138 11.673C18.6138 13.4894 17.1607 14.9542 15.3442 14.9542C13.5396 14.9542 12.0864 13.4894 12.0864 11.673C12.0864 10.1612 13.1177 8.90734 14.5005 8.53234V9.91515C14.5005 10.419 15.0513 10.6183 15.438 10.2784L17.6177 8.40343C17.981 8.08703 17.9575 7.61828 17.6177 7.32531L15.438 5.47375C15.0513 5.15734 14.5005 5.34484 14.5005 5.84875V7.05578C12.4028 7.39562 10.6333 9.28234 10.6333 11.6378C10.6333 14.298 12.731 16.4073 15.3442 16.4073Z" fill="black" fill-opacity="0.85"/>
</g>
<defs>
<clipPath id="clip0_2207_8778">
<rect width="29.4609" height="22.2773" fill="white" transform="translate(0.0629883 0.0126953)"/>
</clipPath>
</defs>
</svg>
