<svg width="22" height="22" viewBox="0 0 22 22" fill="none" xmlns="http://www.w3.org/2000/svg">
<g clip-path="url(#clip0_2207_24181)">
<path d="M3.69654 21.6145H17.9113C20.3723 21.6145 21.591 20.3957 21.591 17.9816V3.6731C21.591 1.25904 20.3723 0.0402832 17.9113 0.0402832H3.69654C1.24732 0.0402832 0.0168457 1.24732 0.0168457 3.6731V17.9816C0.0168457 20.4074 1.24732 21.6145 3.69654 21.6145Z" fill="black" fill-opacity="0.85"/>
<path d="M5.50123 16.1535C5.00904 16.1535 4.66919 15.8254 4.66919 15.3566V6.27465C4.66919 5.8059 5.00904 5.46606 5.50123 5.46606C5.95826 5.46606 6.2981 5.8059 6.2981 6.27465V15.3566C6.2981 15.8254 5.95826 16.1535 5.50123 16.1535ZM18.1809 10.8215C18.1809 11.3137 17.8293 11.6535 17.3606 11.6535H11.8293L9.60279 11.5012L12.0637 13.6926L12.8254 14.3957C13.0012 14.5363 13.0715 14.7356 13.0715 14.9816C13.0715 15.4387 12.7316 15.7668 12.2629 15.7668C12.0754 15.7668 11.8176 15.6613 11.6535 15.4973L7.50513 11.4309C7.30591 11.2551 7.22388 11.0559 7.22388 10.8215C7.22388 10.5988 7.32935 10.3879 7.50513 10.2121L11.677 6.11059C11.841 5.92309 12.052 5.8645 12.2629 5.8645C12.7082 5.8645 13.0715 6.1809 13.0715 6.63793C13.0715 6.86059 13.0012 7.07153 12.8254 7.23559L12.0754 7.96215L9.61451 10.1418L11.8293 10.0246H17.3606C17.8293 10.0246 18.1809 10.3645 18.1809 10.8215Z" fill="white"/>
</g>
<defs>
<clipPath id="clip0_2207_24181">
<rect width="21.5742" height="21.5977" fill="white" transform="translate(0.0168457 0.0168457)"/>
</clipPath>
</defs>
</svg>
