<svg width="24" height="24" viewBox="0 0 24 24" fill="none" xmlns="http://www.w3.org/2000/svg">
<g clip-path="url(#clip0_2207_24247)">
<path d="M12.0141 23.9216C18.5532 23.9216 23.9672 18.4959 23.9672 11.9685C23.9672 5.42944 18.5415 0.0153809 12.0024 0.0153809C5.47509 0.0153809 0.0610352 5.42944 0.0610352 11.9685C0.0610352 18.4959 5.48682 23.9216 12.0141 23.9216Z" fill="black" fill-opacity="0.85"/>
<path d="M4.5376 11.9802C4.5376 11.5115 4.87745 11.1716 5.3462 11.1716H10.8774L13.0922 11.3006L10.6313 9.12085L9.88135 8.38257C9.70557 8.23022 9.63526 8.00757 9.63526 7.78491C9.63526 7.32788 9.99854 7.01147 10.4438 7.01147C10.6548 7.01147 10.8657 7.08179 11.0415 7.26929L15.2133 11.3592C15.3774 11.5466 15.4829 11.7459 15.4829 11.9802C15.4829 12.2029 15.4008 12.4138 15.2133 12.5896L11.0532 16.6443C10.8891 16.8084 10.6313 16.9138 10.4438 16.9138C9.9751 16.9138 9.63526 16.5974 9.63526 16.1287C9.63526 15.8826 9.70557 15.6834 9.88135 15.5427L10.643 14.8396L13.104 12.6599L10.8774 12.8006H5.3462C4.87745 12.8006 4.5376 12.4724 4.5376 11.9802ZM17.2055 17.3006C16.7485 17.3006 16.4087 16.9724 16.4087 16.5037V7.42163C16.4087 6.95288 16.7485 6.62476 17.2055 6.62476C17.6977 6.62476 18.0376 6.95288 18.0376 7.42163V16.5037C18.0376 16.9724 17.6977 17.3006 17.2055 17.3006Z" fill="white"/>
</g>
<defs>
<clipPath id="clip0_2207_24247">
<rect width="23.9062" height="23.918" fill="white" transform="translate(0.0610352 0.0153809)"/>
</clipPath>
</defs>
</svg>
