<svg width="24" height="24" viewBox="0 0 24 24" fill="none" xmlns="http://www.w3.org/2000/svg">
<g clip-path="url(#clip0_2207_24698)">
<path d="M12.0035 23.93C18.5426 23.93 23.9566 18.5043 23.9566 11.9769C23.9566 5.43786 18.5309 0.0238037 11.9918 0.0238037C5.46447 0.0238037 0.050415 5.43786 0.050415 11.9769C0.050415 18.5043 5.4762 23.93 12.0035 23.93ZM12.0035 21.9379C6.4723 21.9379 2.05433 17.5082 2.05433 11.9769C2.05433 6.44568 6.46057 2.01599 11.9918 2.01599C17.5231 2.01599 21.9645 6.44568 21.9645 11.9769C21.9645 17.5082 17.5348 21.9379 12.0035 21.9379Z" fill="black" fill-opacity="0.85"/>
<path d="M9.81214 16.559L16.4801 12.6097C16.9723 12.3285 16.9606 11.6488 16.4801 11.3558L9.81214 7.4066C9.30823 7.11363 8.64026 7.33629 8.64026 7.91051V16.055C8.64026 16.6176 9.26136 16.8871 9.81214 16.559Z" fill="black" fill-opacity="0.85"/>
</g>
<defs>
<clipPath id="clip0_2207_24698">
<rect width="23.9062" height="23.918" fill="white" transform="translate(0.050415 0.0238037)"/>
</clipPath>
</defs>
</svg>
