<svg width="24" height="24" viewBox="0 0 24 24" fill="none" xmlns="http://www.w3.org/2000/svg">
<g clip-path="url(#clip0_2207_23549)">
<path d="M11.9529 2.02978C12.5037 2.02978 12.9607 1.57275 12.9607 1.02197C12.9607 0.471191 12.5037 0.0141602 11.9529 0.0141602C11.4021 0.0141602 10.9451 0.471191 10.9451 1.02197C10.9451 1.57275 11.4021 2.02978 11.9529 2.02978ZM15.3044 2.58057C15.8552 2.58057 16.3123 2.12354 16.3123 1.57275C16.3123 1.02197 15.8552 0.564941 15.3044 0.564941C14.7537 0.564941 14.2966 1.02197 14.2966 1.57275C14.2966 2.12354 14.7537 2.58057 15.3044 2.58057ZM18.3513 4.11572C18.9021 4.11572 19.3591 3.65869 19.3591 3.10791C19.3591 2.55713 18.9021 2.1001 18.3513 2.1001C17.8005 2.1001 17.3435 2.55713 17.3435 3.10791C17.3435 3.65869 17.8005 4.11572 18.3513 4.11572ZM20.7537 6.52978C21.3044 6.52978 21.7615 6.07275 21.7615 5.52197C21.7615 4.97119 21.3044 4.51416 20.7537 4.51416C20.2029 4.51416 19.7459 4.97119 19.7459 5.52197C19.7459 6.07275 20.2029 6.52978 20.7537 6.52978ZM22.2888 9.52978C22.8396 9.52978 23.2966 9.07275 23.2966 8.52197C23.2966 7.97119 22.8396 7.51416 22.2888 7.51416C21.738 7.51416 21.281 7.97119 21.281 8.52197C21.281 9.07275 21.738 9.52978 22.2888 9.52978ZM22.863 12.8931C23.4138 12.8931 23.8709 12.4361 23.8709 11.8853C23.8709 11.3345 23.4138 10.8775 22.863 10.8775C22.3123 10.8775 21.8552 11.3345 21.8552 11.8853C21.8552 12.4361 22.3123 12.8931 22.863 12.8931ZM22.2888 16.2564C22.8396 16.2564 23.2966 15.7994 23.2966 15.2486C23.2966 14.6978 22.8396 14.2408 22.2888 14.2408C21.738 14.2408 21.281 14.6978 21.281 15.2486C21.281 15.7994 21.738 16.2564 22.2888 16.2564ZM20.7537 19.2681C21.3044 19.2681 21.7615 18.8111 21.7615 18.2603C21.7615 17.7095 21.3044 17.2525 20.7537 17.2525C20.2029 17.2525 19.7459 17.7095 19.7459 18.2603C19.7459 18.8111 20.2029 19.2681 20.7537 19.2681ZM18.3513 21.6704C18.9021 21.6704 19.3591 21.2134 19.3591 20.6626C19.3591 20.1119 18.9021 19.6548 18.3513 19.6548C17.8005 19.6548 17.3435 20.1119 17.3435 20.6626C17.3435 21.2134 17.8005 21.6704 18.3513 21.6704ZM15.3044 23.2056C15.8552 23.2056 16.3123 22.7486 16.3123 22.1978C16.3123 21.647 15.8552 21.19 15.3044 21.19C14.7537 21.19 14.2966 21.647 14.2966 22.1978C14.2966 22.7486 14.7537 23.2056 15.3044 23.2056ZM11.9529 23.7564C12.5037 23.7564 12.9607 23.2994 12.9607 22.7486C12.9607 22.1978 12.5037 21.7408 11.9529 21.7408C11.4021 21.7408 10.9451 22.1978 10.9451 22.7486C10.9451 23.2994 11.4021 23.7564 11.9529 23.7564ZM8.60131 23.2056C9.1521 23.2056 9.60913 22.7486 9.60913 22.1978C9.60913 21.647 9.1521 21.19 8.60131 21.19C8.03881 21.19 7.5935 21.647 7.5935 22.1978C7.5935 22.7486 8.03881 23.2056 8.60131 23.2056ZM5.55444 21.6704C6.10522 21.6704 6.56225 21.2134 6.56225 20.6626C6.56225 20.1119 6.10522 19.6548 5.55444 19.6548C4.99194 19.6548 4.54663 20.1119 4.54663 20.6626C4.54663 21.2134 4.99194 21.6704 5.55444 21.6704ZM3.14038 19.2681C3.69116 19.2681 4.14819 18.8111 4.14819 18.2603C4.14819 17.7095 3.69116 17.2525 3.14038 17.2525C2.5896 17.2525 2.13257 17.7095 2.13257 18.2603C2.13257 18.8111 2.5896 19.2681 3.14038 19.2681ZM1.60522 16.2564C2.156 16.2564 2.61303 15.7994 2.61303 15.2486C2.61303 14.6978 2.156 14.2408 1.60522 14.2408C1.05444 14.2408 0.597412 14.6978 0.597412 15.2486C0.597412 15.7994 1.05444 16.2564 1.60522 16.2564ZM1.031 12.8931C1.58178 12.8931 2.03881 12.4361 2.03881 11.8853C2.03881 11.3345 1.58178 10.8775 1.031 10.8775C0.480224 10.8775 0.0231934 11.3345 0.0231934 11.8853C0.0231934 12.4361 0.480224 12.8931 1.031 12.8931ZM1.60522 9.52978C2.156 9.52978 2.61303 9.07275 2.61303 8.52197C2.61303 7.97119 2.156 7.51416 1.60522 7.51416C1.05444 7.51416 0.597412 7.97119 0.597412 8.52197C0.597412 9.07275 1.05444 9.52978 1.60522 9.52978ZM3.14038 6.52978C3.69116 6.52978 4.14819 6.07275 4.14819 5.52197C4.14819 4.97119 3.69116 4.51416 3.14038 4.51416C2.5896 4.51416 2.13257 4.97119 2.13257 5.52197C2.13257 6.07275 2.5896 6.52978 3.14038 6.52978ZM5.55444 4.11572C6.10522 4.11572 6.56225 3.65869 6.56225 3.10791C6.56225 2.55713 6.10522 2.1001 5.55444 2.1001C4.99194 2.1001 4.54663 2.55713 4.54663 3.10791C4.54663 3.65869 4.99194 4.11572 5.55444 4.11572ZM8.60131 2.58057C9.1521 2.58057 9.60913 2.12354 9.60913 1.57275C9.60913 1.02197 9.1521 0.564941 8.60131 0.564941C8.03881 0.564941 7.5935 1.02197 7.5935 1.57275C7.5935 2.12354 8.03881 2.58057 8.60131 2.58057Z" fill="black" fill-opacity="0.85"/>
<path d="M11.9646 5.92041C11.449 5.92041 11.0857 6.28369 11.0857 6.79932V12.6587L11.1677 15.1314L9.99585 13.7251L8.60132 12.3189C8.44898 12.1548 8.23803 12.0611 7.98022 12.0611C7.49975 12.0611 7.13647 12.4244 7.13647 12.9048C7.13647 13.1509 7.2185 13.3619 7.37085 13.5142L11.2849 17.4048C11.5193 17.6392 11.7068 17.7447 11.9646 17.7447C12.2224 17.7447 12.4216 17.6275 12.656 17.4048L16.5584 13.5142C16.7107 13.3619 16.8044 13.1509 16.8044 12.9048C16.8044 12.4244 16.4177 12.0611 15.9373 12.0611C15.6912 12.0611 15.4802 12.1431 15.3162 12.3189L13.9334 13.7251L12.7498 15.1431L12.8318 12.6587V6.79932C12.8318 6.28369 12.4685 5.92041 11.9646 5.92041Z" fill="black" fill-opacity="0.85"/>
</g>
<defs>
<clipPath id="clip0_2207_23549">
<rect width="23.8477" height="23.7539" fill="white" transform="translate(0.0231934 0.0141602)"/>
</clipPath>
</defs>
</svg>
