<svg width="22" height="29" viewBox="0 0 22 29" fill="none" xmlns="http://www.w3.org/2000/svg">
<g clip-path="url(#clip0_2207_24277)">
<path d="M0.0273438 13.9752C0.0273438 14.5846 0.449219 15.0182 1.05859 15.0182H20.8632C21.4609 15.0182 21.8828 14.5846 21.8828 13.9752C21.8828 13.3659 21.4609 12.9205 20.8632 12.9205H1.05859C0.449219 12.9205 0.0273438 13.3659 0.0273438 13.9752Z" fill="black" fill-opacity="0.85"/>
<path d="M10.9609 11.7135C11.5703 11.7135 12.0039 11.2916 12.0039 10.6705V5.72522L11.9335 3.29944L15.039 6.61585C15.2382 6.8385 15.5078 6.90881 15.789 6.90881C16.375 6.90881 16.8085 6.4635 16.8085 5.88928C16.8085 5.59631 16.6914 5.35022 16.457 5.10413L11.7461 0.36975C11.5234 0.135376 11.2421 0.0181885 10.9609 0.0181885C10.6679 0.0181885 10.3984 0.135376 10.1757 0.36975L5.46484 5.10413C5.23046 5.35022 5.11328 5.59631 5.11328 5.88928C5.11328 6.4635 5.54687 6.90881 6.13281 6.90881C6.41406 6.90881 6.68359 6.8385 6.88281 6.61585L9.98828 3.29944L9.90625 5.72522V10.6705C9.90625 11.2916 10.3515 11.7135 10.9609 11.7135ZM10.9609 16.2252C10.3515 16.2252 9.90625 16.6471 9.90625 17.2682V22.2252L9.98828 24.6393L6.88281 21.3229C6.68359 21.112 6.41406 21.0299 6.13281 21.0299C5.54687 21.0299 5.11328 21.4752 5.11328 22.0494C5.11328 22.3424 5.23046 22.6002 5.46484 22.8463L10.1757 27.569C10.3984 27.8034 10.6679 27.9323 10.9609 27.9323C11.2421 27.9323 11.5234 27.8034 11.7461 27.569L16.457 22.8463C16.6914 22.6002 16.8085 22.3424 16.8085 22.0494C16.8085 21.4752 16.375 21.0299 15.789 21.0299C15.5078 21.0299 15.2382 21.112 15.039 21.3229L11.9335 24.6393L12.0039 22.2252V17.2682C12.0039 16.6471 11.5703 16.2252 10.9609 16.2252Z" fill="black" fill-opacity="0.85"/>
</g>
<defs>
<clipPath id="clip0_2207_24277">
<rect width="21.8555" height="28.3477" fill="white" transform="translate(0.0273438 0.0181885)"/>
</clipPath>
</defs>
</svg>
