<svg width="24" height="24" viewBox="0 0 24 24" fill="none" xmlns="http://www.w3.org/2000/svg">
<g clip-path="url(#clip0_2207_23669)">
<path d="M12.0393 23.9204C18.5784 23.9204 23.9924 18.4947 23.9924 11.9673C23.9924 5.42822 18.5667 0.0141602 12.0276 0.0141602C5.50024 0.0141602 0.0861816 5.42822 0.0861816 11.9673C0.0861816 18.4947 5.51196 23.9204 12.0393 23.9204Z" fill="black" fill-opacity="0.85"/>
<path d="M8.24244 8.96728C8.7815 8.96728 9.13307 9.33057 9.13307 9.9165V11.9908L8.95728 13.8775L10.7034 12.0142L15.1214 7.58447C15.2971 7.40869 15.5315 7.30322 15.8245 7.30322C16.3518 7.30322 16.7151 7.65478 16.7151 8.20557C16.7151 8.43994 16.5979 8.68604 16.4221 8.86182L11.9807 13.2798L10.094 15.0494L11.887 14.8619H14.0667C14.6526 14.8619 15.0276 15.2134 15.0276 15.7408C15.0276 16.2798 14.6643 16.6314 14.0901 16.6314H8.37135C7.75025 16.6314 7.35181 16.3501 7.35181 15.6353V9.93994C7.35181 9.36572 7.7151 8.96728 8.24244 8.96728Z" fill="white"/>
</g>
<defs>
<clipPath id="clip0_2207_23669">
<rect width="23.9062" height="23.918" fill="white" transform="translate(0.0861816 0.0141602)"/>
</clipPath>
</defs>
</svg>
