<svg width="26" height="22" viewBox="0 0 26 22" fill="none" xmlns="http://www.w3.org/2000/svg">
<g clip-path="url(#clip0_2207_1427)">
<path d="M13.8962 21.5147C14.4704 21.5147 14.9392 21.2803 15.5017 20.753L24.7478 12.0225C25.1931 11.6006 25.3454 11.1553 25.3454 10.7686C25.3454 10.3702 25.2048 9.93652 24.7478 9.50293L15.5017 0.854492C14.8806 0.268555 14.4939 0.0224609 13.9196 0.0224609C13.0993 0.0224609 12.5134 0.666992 12.5134 1.45215V5.88184H12.1736C3.7478 5.88184 0.079834 11.2842 0.079834 19.9444C0.079834 20.9522 0.654053 21.5147 1.28686 21.5147C1.77905 21.5147 2.31811 21.3975 2.72827 20.6475C4.76733 16.8155 7.63842 15.667 12.1736 15.667H12.5134V20.1436C12.5134 20.9287 13.0993 21.5147 13.8962 21.5147Z" fill="black" fill-opacity="0.85"/>
</g>
<defs>
<clipPath id="clip0_2207_1427">
<rect width="25.2656" height="21.5039" fill="white" transform="translate(0.079834 0.0224609)"/>
</clipPath>
</defs>
</svg>
