<svg width="24" height="24" viewBox="0 0 24 24" fill="none" xmlns="http://www.w3.org/2000/svg">
<g clip-path="url(#clip0_2207_1252)">
<path d="M11.993 23.9405C18.5321 23.9405 23.9461 18.5264 23.9461 11.9873C23.9461 5.45996 18.5204 0.0341797 11.9813 0.0341797C5.45398 0.0341797 0.039917 5.45996 0.039917 11.9873C0.039917 18.5264 5.4657 23.9405 11.993 23.9405Z" fill="black" fill-opacity="0.85"/>
<path d="M4.61023 11.9873C4.61023 11.7647 4.69226 11.5303 4.95008 11.2725L10.1415 6.43262C10.493 6.10449 10.6922 5.96387 11.0087 5.96387C11.4774 5.96387 11.8055 6.33887 11.8055 6.77246V9.39746H17.2665C18.2274 9.39746 18.7782 9.94824 18.7782 10.8741V13.1123C18.7782 14.0381 18.2274 14.5889 17.2665 14.5889H11.8055V17.2491C11.8055 17.7061 11.4774 18.0108 11.0321 18.0108C10.704 18.0108 10.4579 17.8702 10.1415 17.5889L4.95008 12.6905C4.69226 12.4561 4.61023 12.1983 4.61023 11.9873Z" fill="white"/>
</g>
<defs>
<clipPath id="clip0_2207_1252">
<rect width="23.9062" height="23.918" fill="white" transform="translate(0.039917 0.0224609)"/>
</clipPath>
</defs>
</svg>
