<svg width="22" height="22" viewBox="0 0 22 22" fill="none" xmlns="http://www.w3.org/2000/svg">
<g clip-path="url(#clip0_2207_24421)">
<path d="M3.68604 21.6119H17.9008C20.3618 21.6119 21.5805 20.3931 21.5805 17.979V3.67041C21.5805 1.25635 20.3618 0.0375977 17.9008 0.0375977H3.68604C1.23682 0.0375977 0.00634766 1.24463 0.00634766 3.67041V17.979C0.00634766 20.4048 1.23682 21.6119 3.68604 21.6119Z" fill="black" fill-opacity="0.85"/>
<path d="M16.1899 10.8072C15.6977 10.8072 15.311 10.4204 15.311 9.92822V9.31885L15.4282 7.36182L12.7563 10.1744C12.3813 10.5728 11.7836 10.5611 11.4086 10.1861C11.0454 9.82275 11.0571 9.20166 11.4204 8.8501L14.2211 6.18994L12.3227 6.30713H11.7133C11.2211 6.30713 10.8227 5.92041 10.8227 5.42822C10.8227 4.93604 11.2211 4.5376 11.7133 4.5376H16.0375C16.6938 4.5376 17.0805 4.83057 17.0805 5.58057V9.92822C17.0805 10.4204 16.6821 10.8072 16.1899 10.8072ZM9.89697 17.1001H5.56104C4.90479 17.1001 4.52979 16.8072 4.52979 16.0572V11.7095C4.52979 11.2173 4.91651 10.8306 5.40869 10.8306C5.90088 10.8306 6.29932 11.2173 6.29932 11.7095V12.3189L6.18213 14.2759L8.85401 11.4634C9.21729 11.065 9.82666 11.0767 10.1899 11.4517C10.5532 11.815 10.5415 12.4361 10.1782 12.7876L7.38916 15.4478L9.2876 15.3306H9.89697C10.3891 15.3306 10.7758 15.7173 10.7758 16.2095C10.7758 16.7017 10.3891 17.1001 9.89697 17.1001Z" fill="white"/>
</g>
<defs>
<clipPath id="clip0_2207_24421">
<rect width="21.5742" height="21.5977" fill="white" transform="translate(0.00634766 0.0141602)"/>
</clipPath>
</defs>
</svg>
