<svg width="27" height="27" viewBox="0 0 27 27" fill="none" xmlns="http://www.w3.org/2000/svg">
<g id="arrow.triangle.turn.up.right.diamond" clip-path="url(#clip0_2124_13763)">
<g id="Group">
<path id="Vector" d="M1.31406 15.8805L10.7008 25.2672C12.4352 27.0016 14.1461 27.0133 15.8687 25.3023L25.3023 15.857C27.0133 14.1461 27.0016 12.4234 25.2672 10.6891L15.8922 1.31406C14.1578 -0.420317 12.4469 -0.443755 10.7242 1.2789L1.2789 10.7125C-0.443755 12.4352 -0.420317 14.1461 1.31406 15.8805ZM2.67343 14.5797C1.8414 13.7359 1.81796 12.857 2.68515 11.9898L11.9898 2.68515C12.857 1.81796 13.7359 1.82968 14.5797 2.67343L23.9078 12.0016C24.7398 12.8336 24.7633 13.7242 23.8961 14.5914L14.5914 23.8961C13.7242 24.7633 12.8219 24.7398 12.0016 23.9195L2.67343 14.5797Z" fill="black" fill-opacity="0.85"/>
<path id="Vector_2" d="M8.21631 16.982C8.21631 17.65 8.54444 18.0484 9.15381 18.0367C9.75147 18.025 10.0913 17.65 10.0913 16.982V13.7242C10.0913 12.6578 10.5952 12.1656 11.603 12.1656H14.6616V14.0055C14.6616 14.7672 15.5171 15.1187 16.1616 14.568L18.9624 12.1422C19.6655 11.5328 19.6655 10.9117 18.9624 10.3023L16.1616 7.88828C15.5171 7.32578 14.6616 7.68906 14.6616 8.43906V10.2789H11.5796C9.29444 10.2789 8.21631 11.3687 8.21631 13.6305V16.982Z" fill="black" fill-opacity="0.85"/>
</g>
</g>
<defs>
<clipPath id="clip0_2124_13763">
<rect width="26.5768" height="26.593" fill="white"/>
</clipPath>
</defs>
</svg>
