<svg width="22" height="22" viewBox="0 0 22 22" fill="none" xmlns="http://www.w3.org/2000/svg">
<g clip-path="url(#clip0_2207_24368)">
<path d="M3.73438 21.6159H17.9492C20.4102 21.6159 21.6289 20.3971 21.6289 17.983V3.67444C21.6289 1.26038 20.4102 0.041626 17.9492 0.041626H3.73438C1.28516 0.041626 0.0546875 1.24866 0.0546875 3.67444V17.983C0.0546875 20.4088 1.28516 21.6159 3.73438 21.6159ZM3.75781 19.7291C2.58594 19.7291 1.94141 19.108 1.94141 17.8893V3.76819C1.94141 2.54944 2.58594 1.92835 3.75781 1.92835H17.9258C19.0859 1.92835 19.7422 2.54944 19.7422 3.76819V17.8893C19.7422 19.108 19.0859 19.7291 17.9258 19.7291H3.75781Z" fill="black" fill-opacity="0.85"/>
<path d="M5.78515 10.7994C6.24218 10.7994 6.61718 10.4362 6.61718 9.97913V9.4049L6.49999 7.55334L9.03124 10.2135C9.37109 10.5885 9.93359 10.5768 10.2735 10.2252C10.6133 9.88537 10.6016 9.31115 10.2617 8.98302L7.62499 6.46349L9.41796 6.58068H9.99218C10.4492 6.58068 10.8125 6.2174 10.8125 5.76037C10.8125 5.30334 10.4492 4.92834 9.99218 4.92834H5.92577C5.3164 4.92834 4.96484 5.19787 4.96484 5.90099V9.97913C4.96484 10.4362 5.32812 10.7994 5.78515 10.7994ZM11.7149 16.7174H15.7695C16.3789 16.7174 16.7422 16.4479 16.7422 15.7448V11.6666C16.7422 11.2096 16.3672 10.8463 15.9102 10.8463C15.4531 10.8463 15.0899 11.2096 15.0899 11.6666V12.2409L15.207 14.0924L12.6758 11.4323C12.3242 11.0573 11.7735 11.069 11.4219 11.4205C11.082 11.7604 11.0938 12.3346 11.4336 12.6627L14.082 15.1823L12.2891 15.0651H11.7149C11.2578 15.0651 10.8828 15.4284 10.8828 15.8854C10.8828 16.3424 11.2578 16.7174 11.7149 16.7174Z" fill="black" fill-opacity="0.85"/>
</g>
<defs>
<clipPath id="clip0_2207_24368">
<rect width="21.5742" height="21.5977" fill="white" transform="translate(0.0546875 0.0181885)"/>
</clipPath>
</defs>
</svg>
