<svg width="24" height="22" viewBox="0 0 24 22" fill="none" xmlns="http://www.w3.org/2000/svg">
<g clip-path="url(#clip0_2207_24594)">
<path d="M2.54773 15.698H4.64538V5.99489C4.64538 3.96755 5.87585 2.6902 7.56335 2.6902C9.26257 2.6902 10.5282 3.94411 10.5282 5.99489V14.0222C10.5282 17.4206 12.6493 19.5769 15.579 19.5769C18.497 19.5769 20.5946 17.4206 20.5946 14.0222V4.41286H18.497V14.1862C18.497 16.2019 17.2665 17.4792 15.579 17.4792C13.8798 17.4792 12.6141 16.2253 12.6141 14.1862V6.15895C12.6141 2.76051 10.493 0.60426 7.56335 0.60426C4.64538 0.60426 2.54773 2.76051 2.54773 6.15895V15.698ZM0.907098 14.8073C0.0633488 14.8073 -0.147589 15.3816 0.309442 16.0261L2.93445 19.7527C3.32116 20.3034 3.88366 20.2917 4.25866 19.7527L6.88366 16.0144C7.32898 15.3816 7.11804 14.8073 6.28601 14.8073H0.907098ZM16.868 5.3738H22.2352C23.0673 5.3738 23.2899 4.79958 22.8329 4.15505L20.2196 0.41676C19.8446 -0.110583 19.2821 -0.122302 18.8954 0.41676L16.2704 4.14333C15.8016 4.79958 16.0243 5.3738 16.868 5.3738Z" fill="black" fill-opacity="0.85"/>
</g>
<defs>
<clipPath id="clip0_2207_24594">
<rect width="22.9926" height="21.6006" fill="white" transform="translate(0.0734863 0.0168457)"/>
</clipPath>
</defs>
</svg>
