<svg width="26" height="22" viewBox="0 0 26 22" fill="none" xmlns="http://www.w3.org/2000/svg">
<g clip-path="url(#clip0_2207_1239)">
<path d="M0.0314941 10.7686C0.0314941 11.1553 0.183838 11.6006 0.62915 12.0225L9.87524 20.753C10.4377 21.2803 10.9065 21.5147 11.4807 21.5147C12.2776 21.5147 12.8518 20.9287 12.8518 20.1436V15.667H22.3674C24.219 15.667 25.2971 14.6123 25.2971 12.7959V8.75293C25.2971 6.93652 24.219 5.88184 22.3674 5.88184H12.8518V1.45215C12.8518 0.666992 12.2776 0.0224609 11.4573 0.0224609C10.8831 0.0224609 10.4963 0.268555 9.87524 0.854492L0.62915 9.50293C0.172119 9.93652 0.0314941 10.3702 0.0314941 10.7686ZM2.12915 10.7686C2.12915 10.6983 2.1643 10.628 2.25805 10.5459L10.6018 2.54199C10.6604 2.49512 10.7307 2.44824 10.801 2.44824C10.9065 2.44824 10.9651 2.51855 10.9651 2.6123V7.26465C10.9651 7.53418 11.094 7.65137 11.3635 7.65137H22.344C23.094 7.65137 23.5276 8.08496 23.5276 8.84668V12.7022C23.5276 13.4639 23.094 13.8975 22.344 13.8975H11.3635C11.094 13.8975 10.9651 14.0147 10.9651 14.2842V18.8194C10.9651 18.9248 10.9065 18.9952 10.8127 18.9952C10.7424 18.9952 10.6721 18.96 10.6135 18.8897L2.25805 10.9913C2.1643 10.8975 2.12915 10.8389 2.12915 10.7686Z" fill="black" fill-opacity="0.85"/>
</g>
<defs>
<clipPath id="clip0_2207_1239">
<rect width="25.2656" height="21.5039" fill="white" transform="translate(0.0314941 0.0224609)"/>
</clipPath>
</defs>
</svg>
