<svg width="24" height="24" viewBox="0 0 24 24" fill="none" xmlns="http://www.w3.org/2000/svg">
<g clip-path="url(#clip0_2207_1270)">
<path d="M11.9553 23.9405C18.4944 23.9405 23.9084 18.5264 23.9084 11.9873C23.9084 5.45996 18.4827 0.0341797 11.9436 0.0341797C5.41626 0.0341797 0.00219727 5.45996 0.00219727 11.9873C0.00219727 18.5264 5.42798 23.9405 11.9553 23.9405Z" fill="black" fill-opacity="0.85"/>
<path d="M4.57251 11.9873C4.57251 11.7647 4.65454 11.5303 4.91236 11.2725L10.1038 6.43262C10.4553 6.10449 10.6545 5.96387 10.971 5.96387C11.4397 5.96387 11.7678 6.33887 11.7678 6.77246V9.39746H17.2288C18.1897 9.39746 18.7405 9.94824 18.7405 10.8741V13.1123C18.7405 14.0381 18.1897 14.5889 17.2288 14.5889H11.7678V17.2491C11.7678 17.7061 11.4397 18.0108 10.9944 18.0108C10.6663 18.0108 10.4202 17.8702 10.1038 17.5889L4.91236 12.6905C4.65454 12.4561 4.57251 12.1983 4.57251 11.9873Z" fill="white"/>
</g>
<defs>
<clipPath id="clip0_2207_1270">
<rect width="23.9062" height="23.918" fill="white" transform="translate(0.00219727 0.0224609)"/>
</clipPath>
</defs>
</svg>
