<svg width="20" height="26" viewBox="0 0 20 26" fill="none" xmlns="http://www.w3.org/2000/svg">
<g clip-path="url(#clip0_2207_877)">
<path d="M3.71679 25.1432H16.1621C18.5879 25.1432 19.7949 23.9127 19.7949 21.4752V10.8346H11.3106C9.81054 10.8346 9.0957 10.1198 9.0957 8.61975V0.0181885H3.71679C1.30273 0.0181885 0.0839844 1.26038 0.0839844 3.69788V21.4752C0.0839844 23.9244 1.29101 25.1432 3.71679 25.1432ZM11.3457 9.22913H19.6543C19.584 8.74866 19.2442 8.27991 18.6817 7.70569L12.2246 1.13147C11.6738 0.56897 11.1934 0.229126 10.7012 0.147094V8.59631C10.7012 9.01819 10.9121 9.22913 11.3457 9.22913Z" fill="black" fill-opacity="0.85"/>
<path d="M9.93945 22.0963C9.4707 22.0963 9.08398 21.7213 9.08398 21.2643V17.1159L9.15429 15.2643L8.16992 16.2721L7.15039 17.3151C6.98632 17.4791 6.75195 17.5729 6.54101 17.5729C6.07226 17.5729 5.74414 17.2448 5.74414 16.7994C5.74414 16.5416 5.8496 16.3424 6.02539 16.1901L9.30664 13.1666C9.54101 12.9557 9.72851 12.8737 9.93945 12.8737C10.1504 12.8737 10.3379 12.9557 10.5723 13.1666L13.8535 16.1901C14.0293 16.3424 14.1348 16.5416 14.1348 16.7994C14.1348 17.2448 13.7949 17.5729 13.3379 17.5729C13.1152 17.5729 12.8926 17.4791 12.7285 17.3151L11.709 16.2721L10.7246 15.2643L10.8067 17.1159V21.2643C10.8067 21.7213 10.4082 22.0963 9.93945 22.0963Z" fill="white"/>
</g>
<defs>
<clipPath id="clip0_2207_877">
<rect width="19.7109" height="25.1367" fill="white" transform="translate(0.0839844 0.0181885)"/>
</clipPath>
</defs>
</svg>
