<svg width="24" height="24" viewBox="0 0 24 24" fill="none" xmlns="http://www.w3.org/2000/svg">
<g clip-path="url(#clip0_2207_23597)">
<path d="M12.0183 23.9244C18.5574 23.9244 23.9714 18.4987 23.9714 11.9713C23.9714 5.43225 18.5457 0.0181885 12.0066 0.0181885C5.47925 0.0181885 0.0651855 5.43225 0.0651855 11.9713C0.0651855 18.4987 5.49097 23.9244 12.0183 23.9244Z" fill="black" fill-opacity="0.85"/>
<path d="M8.22144 14.9713C7.6941 14.9713 7.33081 14.5612 7.33081 13.9987V8.30335C7.33081 7.5885 7.72925 7.30725 8.35035 7.30725H14.0691C14.6433 7.30725 15.0066 7.65881 15.0066 8.19788C15.0066 8.72522 14.6316 9.07678 14.0457 9.07678H11.866L10.073 8.88928L11.9597 10.6471L16.4011 15.0768C16.5769 15.2526 16.6941 15.4987 16.6941 15.733C16.6941 16.2838 16.3308 16.6354 15.8035 16.6354C15.5105 16.6354 15.2761 16.5299 15.1004 16.3541L10.6824 11.9244L8.93628 10.0612L9.11207 11.9479V14.0221C9.11207 14.5963 8.7605 14.9713 8.22144 14.9713Z" fill="white"/>
</g>
<defs>
<clipPath id="clip0_2207_23597">
<rect width="23.9062" height="23.918" fill="white" transform="translate(0.0651855 0.0181885)"/>
</clipPath>
</defs>
</svg>
