<svg width="24" height="24" viewBox="0 0 24 24" fill="none" xmlns="http://www.w3.org/2000/svg">
<g clip-path="url(#clip0_2207_24166)">
<path d="M11.9614 23.923C18.5005 23.923 23.9145 18.4973 23.9145 11.9699C23.9145 5.43091 18.4888 0.0168457 11.9497 0.0168457C5.42236 0.0168457 0.00830078 5.43091 0.00830078 11.9699C0.00830078 18.4973 5.43408 23.923 11.9614 23.923ZM11.9614 21.9309C6.43018 21.9309 2.01221 17.5012 2.01221 11.9699C2.01221 6.43873 6.41846 2.00904 11.9497 2.00904C17.481 2.00904 21.9224 6.43873 21.9224 11.9699C21.9224 17.5012 17.4927 21.9309 11.9614 21.9309Z" fill="black" fill-opacity="0.85"/>
<path d="M7.02783 17.1379C7.47314 17.1379 7.80127 16.8215 7.80127 16.3645V7.56372C7.80127 7.10668 7.47314 6.79028 7.02783 6.79028C6.5708 6.79028 6.23096 7.10668 6.23096 7.56372V16.3645C6.23096 16.8215 6.5708 17.1379 7.02783 17.1379ZM19.3208 11.9816C19.3208 11.5246 18.981 11.1965 18.5356 11.1965H13.1567L11.0122 11.3254L13.3911 9.21606L14.1294 8.4895C14.2935 8.33715 14.3638 8.12622 14.3638 7.91528C14.3638 7.46996 14.0239 7.16528 13.5903 7.16528C13.3794 7.16528 13.1802 7.23559 13.0161 7.41137L8.97314 11.384C8.79736 11.5598 8.70361 11.759 8.70361 11.9816C8.70361 12.1926 8.78564 12.4035 8.97314 12.5676L13.0044 16.5051C13.1567 16.6574 13.4028 16.7629 13.6021 16.7629C14.0474 16.7629 14.3638 16.4582 14.3638 16.0012C14.3638 15.7668 14.2935 15.5793 14.1294 15.4387L13.3794 14.7473L11.0005 12.6379L13.1567 12.7668H18.5356C18.981 12.7668 19.3208 12.4504 19.3208 11.9816Z" fill="black" fill-opacity="0.85"/>
</g>
<defs>
<clipPath id="clip0_2207_24166">
<rect width="23.9062" height="23.918" fill="white" transform="translate(0.00830078 0.0168457)"/>
</clipPath>
</defs>
</svg>
