<svg width="22" height="22" viewBox="0 0 22 22" fill="none" xmlns="http://www.w3.org/2000/svg">
<g clip-path="url(#clip0_2207_24200)">
<path d="M3.72583 21.6104H17.9406C20.4016 21.6104 21.6203 20.3916 21.6203 17.9775V3.66895C21.6203 1.25489 20.4016 0.0361328 17.9406 0.0361328H3.72583C1.27661 0.0361328 0.0461426 1.24317 0.0461426 3.66895V17.9775C0.0461426 20.4033 1.27661 21.6104 3.72583 21.6104ZM3.74926 19.7236C2.57739 19.7236 1.93286 19.1025 1.93286 17.8838V3.7627C1.93286 2.54395 2.57739 1.92286 3.74926 1.92286H17.9172C19.0773 1.92286 19.7336 2.54395 19.7336 3.7627V17.8838C19.7336 19.1025 19.0773 19.7236 17.9172 19.7236H3.74926Z" fill="black" fill-opacity="0.85"/>
<path d="M5.41333 15.9854C5.85864 15.9854 6.18677 15.6689 6.18677 15.2119V6.41114C6.18677 5.95411 5.85864 5.62598 5.41333 5.62598C4.94458 5.62598 4.61646 5.95411 4.61646 6.41114V15.2119C4.61646 15.6689 4.94458 15.9854 5.41333 15.9854ZM17.7063 10.8174C17.7063 10.3721 17.3664 10.0439 16.9211 10.0439H11.5422L9.3977 10.1611L11.7766 8.05176L12.5149 7.33692C12.6789 7.17286 12.7492 6.97364 12.7492 6.7627C12.7492 6.31739 12.3977 6.0127 11.9758 6.0127C11.7649 6.0127 11.5656 6.07129 11.3899 6.24708L7.34692 10.2315C7.18286 10.3955 7.08912 10.6065 7.08912 10.8174C7.08912 11.04 7.17114 11.2393 7.34692 11.4033L11.3781 15.3525C11.5422 15.5049 11.7883 15.6104 11.9758 15.6104C12.4211 15.6104 12.7492 15.2939 12.7492 14.8486C12.7492 14.6143 12.6789 14.4268 12.5149 14.2861L11.7649 13.5947L9.38598 11.4736L11.5422 11.6143H16.9211C17.3664 11.6143 17.7063 11.2861 17.7063 10.8174Z" fill="black" fill-opacity="0.85"/>
</g>
<defs>
<clipPath id="clip0_2207_24200">
<rect width="21.5742" height="21.5977" fill="white" transform="translate(0.0461426 0.0126953)"/>
</clipPath>
</defs>
</svg>
