<svg width="31" height="23" viewBox="0 0 31 23" fill="none" xmlns="http://www.w3.org/2000/svg">
<g clip-path="url(#clip0_2207_22348)">
<path d="M3.83204 21.6437L6.17579 18.5031C6.64454 17.8703 6.39844 17.0734 5.56641 17.0734H3.90235V4.8976H5.56641C6.37501 4.8976 6.66797 4.12416 6.17579 3.46791L3.83204 0.339004C3.51563 -0.0945896 2.90626 -0.0828706 2.60157 0.339004L0.257815 3.46791C-0.222654 4.12416 0.0703149 4.8976 0.86719 4.8976H2.54297V17.0734H0.86719C0.0703149 17.0734 -0.222654 17.8468 0.257815 18.5031L2.60157 21.6437C2.91797 22.0656 3.51563 22.0656 3.83204 21.6437Z" fill="black" fill-opacity="0.85"/>
<path d="M11.1563 2.67102H29.9883C30.4805 2.67102 30.879 2.2843 30.879 1.78039C30.879 1.2882 30.4805 0.901489 29.9883 0.901489H11.1563C10.6524 0.901489 10.2657 1.2882 10.2657 1.78039C10.2657 2.2843 10.6524 2.67102 11.1563 2.67102ZM11.1563 8.81164H29.9883C30.4805 8.81164 30.879 8.42492 30.879 7.92102C30.879 7.42883 30.4805 7.04211 29.9883 7.04211H11.1563C10.6524 7.04211 10.2657 7.42883 10.2657 7.92102C10.2657 8.42492 10.6524 8.81164 11.1563 8.81164ZM11.1563 14.9523H29.9883C30.4805 14.9523 30.879 14.5539 30.879 14.0617C30.879 13.5695 30.4805 13.1828 29.9883 13.1828H11.1563C10.6524 13.1828 10.2657 13.5695 10.2657 14.0617C10.2657 14.5539 10.6524 14.9523 11.1563 14.9523ZM11.1563 21.0812H22.4766C22.9688 21.0812 23.3672 20.6945 23.3672 20.2023C23.3672 19.7101 22.9688 19.3117 22.4766 19.3117H11.1563C10.6524 19.3117 10.2657 19.7101 10.2657 20.2023C10.2657 20.6945 10.6524 21.0812 11.1563 21.0812Z" fill="black" fill-opacity="0.85"/>
</g>
<defs>
<clipPath id="clip0_2207_22348">
<rect width="30.8538" height="22.0284" fill="white" transform="translate(0.0251465 0.0181885)"/>
</clipPath>
</defs>
</svg>
