<svg width="24" height="24" viewBox="0 0 24 24" fill="none" xmlns="http://www.w3.org/2000/svg">
<g clip-path="url(#clip0_2207_24286)">
<path d="M12.0078 23.9189C18.5469 23.9189 23.9609 18.4932 23.9609 11.9658C23.9609 5.42676 18.5352 0.0126953 11.9961 0.0126953C5.46875 0.0126953 0.0546875 5.42676 0.0546875 11.9658C0.0546875 18.4932 5.48047 23.9189 12.0078 23.9189ZM12.0078 21.9268C6.47657 21.9268 2.0586 17.4971 2.0586 11.9658C2.0586 6.43458 6.46485 2.00489 11.9961 2.00489C17.5274 2.00489 21.9688 6.43458 21.9688 11.9658C21.9688 17.4971 17.5391 21.9268 12.0078 21.9268Z" fill="black" fill-opacity="0.85"/>
<path d="M6.76953 12.5049C6.76953 15.4346 9.10157 17.7783 11.9961 17.7783C14.8906 17.7783 17.2227 15.4346 17.2227 12.54C17.2227 12.1065 16.8477 11.7432 16.4141 11.7432C15.9805 11.7432 15.6055 12.1065 15.6055 12.54C15.6055 14.5439 14 16.1611 11.9961 16.1611C9.99219 16.1611 8.38672 14.5557 8.38672 12.54C8.38672 10.5361 9.99219 8.93067 11.9961 8.93067C12.1485 8.93067 12.3125 8.94239 12.4297 8.96582L11.2813 10.0791C11.1406 10.2315 11.0586 10.4072 11.0586 10.6299C11.0586 11.04 11.3867 11.3565 11.7969 11.3565C11.9961 11.3565 12.1836 11.2627 12.3125 11.1455L14.5859 8.87208C14.8789 8.59082 14.8555 8.06348 14.5859 7.78223L12.3359 5.49708C12.207 5.35645 12.0078 5.2627 11.7969 5.2627C11.375 5.2627 11.0586 5.59082 11.0586 6.0127C11.0586 6.21192 11.1406 6.41114 11.2695 6.54004L12.1016 7.38379C12.0078 7.38379 11.8789 7.36036 11.7735 7.36036C9.13672 7.36036 6.76953 9.62208 6.76953 12.5049Z" fill="black" fill-opacity="0.85"/>
</g>
<defs>
<clipPath id="clip0_2207_24286">
<rect width="23.9062" height="23.918" fill="white" transform="translate(0.0546875 0.0126953)"/>
</clipPath>
</defs>
</svg>
