<svg width="29" height="22" viewBox="0 0 29 22" fill="none" xmlns="http://www.w3.org/2000/svg">
<g clip-path="url(#clip0_2207_1497)">
<path d="M17.2551 21.5277C17.8293 21.5277 18.298 21.2933 18.8606 20.766L28.1066 12.0355C28.5637 11.6136 28.7043 11.1683 28.7043 10.7816C28.7043 10.3832 28.5637 9.93786 28.1066 9.51599L18.8606 0.867554C18.2395 0.281616 17.8527 0.0238037 17.2785 0.0238037C16.4582 0.0238037 15.884 0.680054 15.884 1.46521V6.01208H8.27857C6.25123 6.01208 5.38404 6.85583 5.38404 8.84802V11.2972H2.91138C0.884034 11.2972 0.0168457 12.1293 0.0168457 14.1215V18.6215C0.0168457 20.6136 0.884034 21.4574 2.91138 21.4574H9.97779C12.0051 21.4574 12.8723 20.6136 12.8723 18.6215V15.9496H15.884V20.1566C15.884 20.9418 16.4582 21.5277 17.2551 21.5277ZM11.5363 18.7269L6.80201 16.7465C5.65357 16.266 5.23169 15.7621 5.1731 14.8363C5.16138 14.6019 5.40747 14.555 5.51294 14.7777C5.86451 15.5511 6.66138 15.9496 7.83326 15.9496H11.6887V18.6566C11.6887 18.7269 11.6066 18.7621 11.5363 18.7269Z" fill="black" fill-opacity="0.85"/>
</g>
<defs>
<clipPath id="clip0_2207_1497">
<rect width="28.6875" height="21.5273" fill="white" transform="translate(0.0168457 0.0238037)"/>
</clipPath>
</defs>
</svg>
