<svg width="22" height="23" viewBox="0 0 22 23" fill="none" xmlns="http://www.w3.org/2000/svg">
<g clip-path="url(#clip0_2207_24022)">
<path d="M14.4221 0.0209961C9.94555 0.0209961 6.8518 3.05616 6.8518 8.41162V16.3335L7.01587 19.9663L7.55493 19.7554L5.08227 16.8608L1.77758 13.4858C1.6018 13.2983 1.36743 13.1929 1.06274 13.1929C0.453369 13.1929 0.0314941 13.6148 0.0314941 14.2358C0.0314941 14.4937 0.1604 14.7983 0.359619 14.9976L7.12133 21.8882C7.34399 22.1226 7.61352 22.228 7.90649 22.228C8.18774 22.228 8.45727 22.1226 8.67993 21.8882L15.4417 14.9976C15.6526 14.7983 15.7698 14.4937 15.7698 14.2358C15.7698 13.6148 15.3479 13.1929 14.7385 13.1929C14.4338 13.1929 14.2112 13.2983 14.0237 13.4858L10.7307 16.8608L8.24633 19.7554L8.7854 19.9663L8.94946 16.3335V8.22412C8.94946 4.22803 11.1526 2.11866 14.3049 2.11866C17.469 2.11866 19.8127 4.22803 19.8127 8.22412V10.9194C19.8127 11.564 20.2815 11.9858 20.8557 11.9858C21.4299 11.9858 21.8987 11.564 21.8987 10.9194V8.22412C21.8987 2.97412 18.9104 0.0209961 14.4221 0.0209961Z" fill="black" fill-opacity="0.85"/>
</g>
<defs>
<clipPath id="clip0_2207_24022">
<rect width="21.8672" height="22.2773" fill="white" transform="translate(0.0314941 0.0209961)"/>
</clipPath>
</defs>
</svg>
