<svg width="24" height="24" viewBox="0 0 24 24" fill="none" xmlns="http://www.w3.org/2000/svg">
<g clip-path="url(#clip0_2207_24218)">
<path d="M11.9909 23.923C18.53 23.923 23.944 18.4973 23.944 11.9699C23.944 5.43091 18.5183 0.0168457 11.9792 0.0168457C5.4519 0.0168457 0.0378418 5.43091 0.0378418 11.9699C0.0378418 18.4973 5.46362 23.923 11.9909 23.923ZM11.9909 21.9309C6.45972 21.9309 2.04175 17.5012 2.04175 11.9699C2.04175 6.43873 6.448 2.00904 11.9792 2.00904C17.5105 2.00904 21.9519 6.43873 21.9519 11.9699C21.9519 17.5012 17.5222 21.9309 11.9909 21.9309Z" fill="black" fill-opacity="0.85"/>
<path d="M4.73706 11.9816C4.73706 12.4504 5.06518 12.7668 5.5105 12.7668H10.8894L13.0456 12.6379L10.6667 14.7473L9.91675 15.4387C9.75268 15.5793 9.68237 15.7668 9.68237 16.0012C9.68237 16.4582 10.0105 16.7629 10.4558 16.7629C10.6433 16.7629 10.8894 16.6574 11.0534 16.5051L15.0847 12.5676C15.2605 12.4035 15.3425 12.1926 15.3425 11.9816C15.3425 11.759 15.2487 11.5598 15.0847 11.384L11.0417 7.41137C10.8659 7.23559 10.6667 7.16528 10.4558 7.16528C10.0339 7.16528 9.68237 7.46996 9.68237 7.91528C9.68237 8.12622 9.75268 8.33715 9.91675 8.4895L10.655 9.21606L13.0339 11.3254L10.8894 11.1965H5.5105C5.06518 11.1965 4.73706 11.5246 4.73706 11.9816ZM17.0183 17.1379C17.487 17.1379 17.8151 16.8215 17.8151 16.3645V7.56372C17.8151 7.10668 17.487 6.79028 17.0183 6.79028C16.573 6.79028 16.2448 7.10668 16.2448 7.56372V16.3645C16.2448 16.8215 16.573 17.1379 17.0183 17.1379Z" fill="black" fill-opacity="0.85"/>
</g>
<defs>
<clipPath id="clip0_2207_24218">
<rect width="23.9062" height="23.918" fill="white" transform="translate(0.0378418 0.0168457)"/>
</clipPath>
</defs>
</svg>
