<svg width="24" height="24" viewBox="0 0 24 24" fill="none" xmlns="http://www.w3.org/2000/svg">
<g clip-path="url(#clip0_2207_23766)">
<path d="M12.0454 23.9216C18.5845 23.9216 23.9985 18.4959 23.9985 11.9685C23.9985 5.42944 18.5728 0.0153809 12.0337 0.0153809C5.50634 0.0153809 0.0922852 5.42944 0.0922852 11.9685C0.0922852 18.4959 5.51807 23.9216 12.0454 23.9216Z" fill="black" fill-opacity="0.85"/>
<path d="M6.38526 7.77319L9.42041 4.83179C9.57276 4.66772 9.79541 4.57397 9.98291 4.57397C10.44 4.57397 10.7681 4.89038 10.7681 5.34741C10.7681 5.55835 10.6861 5.75757 10.522 5.90991L9.25635 7.1521L8.77588 7.58569L9.33838 7.57397H17.1548C17.6118 7.57397 17.94 7.9021 17.94 8.35913C17.94 8.80444 17.6001 9.156 17.1548 9.156H9.32667L8.76417 9.12085L9.25635 9.5896L10.522 10.8201C10.6861 10.9724 10.7681 11.1599 10.7681 11.3826C10.7681 11.8279 10.44 12.1443 9.98291 12.1443C9.79541 12.1443 9.58448 12.0506 9.42041 11.9216L6.38526 8.94508C6.06885 8.64039 6.06885 8.0896 6.38526 7.77319ZM17.6821 16.1756L14.6587 19.1521C14.4829 19.3045 14.272 19.3982 14.0845 19.3982C13.6392 19.3982 13.3111 19.0701 13.3111 18.6248C13.3111 18.4021 13.4048 18.2263 13.5571 18.0623L14.8228 16.8201L15.3267 16.3865L14.7407 16.3982H6.9126C6.47901 16.3982 6.15088 16.0584 6.15088 15.6013C6.15088 15.1443 6.47901 14.8162 6.9126 14.8162H14.7525L15.3267 14.8513L14.8228 14.3826L13.5337 13.1521C13.3814 12.9998 13.3111 12.8123 13.3111 12.5896C13.3111 12.1443 13.6275 11.8279 14.0845 11.8279C14.2837 11.8279 14.5064 11.9216 14.6587 12.0623L17.6821 15.0388C17.9985 15.3552 18.022 15.8474 17.6821 16.1756Z" fill="white"/>
</g>
<defs>
<clipPath id="clip0_2207_23766">
<rect width="23.9062" height="23.918" fill="white" transform="translate(0.0922852 0.0153809)"/>
</clipPath>
</defs>
</svg>
