<svg width="32" height="22" viewBox="0 0 32 22" fill="none" xmlns="http://www.w3.org/2000/svg">
<g clip-path="url(#clip0_2207_1505)">
<path d="M10.3018 21.8311C10.8291 21.8311 11.1455 21.5733 11.2627 21.1045C12.5283 17.1905 14.5439 15.8077 17.8721 15.8077L18.2939 15.8194V20.2959C18.2939 21.0811 18.8682 21.667 19.665 21.667C20.2393 21.667 20.708 21.4327 21.2705 20.9053L30.5283 12.1748C30.9736 11.753 31.1143 11.3077 31.1143 10.9209C31.1143 10.5225 30.9736 10.0772 30.5283 9.65527L21.2705 1.00684C20.6494 0.420899 20.2627 0.163086 19.6885 0.163086C18.8682 0.163086 18.2939 0.819336 18.2939 1.60449V6.03418H17.9541C14.2744 6.03418 11.0752 8.21387 10.3486 12.5967H10.2197C9.41113 7.74512 6.083 6.03418 2.93067 6.03418C2.87208 6.03418 2.68458 6.03418 2.27442 6.03418C0.657226 6.03418 0.0126953 6.64355 0.0126953 8.38965V13.9913C0.0126953 15.3155 0.645507 15.878 2.16895 15.878C2.52051 15.878 2.83692 15.878 3.2002 15.878C6.39942 15.878 8.50879 18.0108 9.35254 21.0928C9.458 21.5733 9.7627 21.8311 10.3018 21.8311Z" fill="black" fill-opacity="0.85"/>
</g>
<defs>
<clipPath id="clip0_2207_1505">
<rect width="31.1016" height="21.8086" fill="white" transform="translate(0.0126953 0.0224609)"/>
</clipPath>
</defs>
</svg>
