<svg width="22" height="22" viewBox="0 0 22 22" fill="none" xmlns="http://www.w3.org/2000/svg">
<g clip-path="url(#clip0_2207_23650)">
<path d="M3.69239 21.6174H17.9072C20.3682 21.6174 21.5869 20.3986 21.5869 17.9845V3.6759C21.5869 1.26184 20.3682 0.0430908 17.9072 0.0430908H3.69239C1.24317 0.0430908 0.0126953 1.25012 0.0126953 3.6759V17.9845C0.0126953 20.4103 1.24317 21.6174 3.69239 21.6174ZM3.71582 19.7306C2.54395 19.7306 1.89942 19.1095 1.89942 17.8908V3.76965C1.89942 2.5509 2.54395 1.92981 3.71582 1.92981H17.8838C19.0439 1.92981 19.7002 2.5509 19.7002 3.76965V17.8908C19.7002 19.1095 19.0439 19.7306 17.8838 19.7306H3.71582Z" fill="black" fill-opacity="0.85"/>
<path d="M14.4736 13.7189C14.9893 13.7189 15.3408 13.3205 15.3408 12.7814V7.25012C15.3408 6.55871 14.9541 6.28918 14.3565 6.28918H8.80176C8.25098 6.28918 7.89942 6.62903 7.89942 7.14465C7.89942 7.66027 8.2627 8.00012 8.8252 8.00012H10.958L12.6924 7.81262L10.8643 9.51185L6.54004 13.8361C6.37598 14.0002 6.27051 14.2345 6.27051 14.4689C6.27051 14.9963 6.61036 15.3361 7.12598 15.3361C7.40723 15.3361 7.62989 15.2306 7.79395 15.0666L12.1065 10.7541L13.7939 8.94935L13.6182 10.7775V12.8049C13.6182 13.3556 13.958 13.7189 14.4736 13.7189Z" fill="black" fill-opacity="0.85"/>
</g>
<defs>
<clipPath id="clip0_2207_23650">
<rect width="21.5742" height="21.5977" fill="white" transform="translate(0.0126953 0.0196533)"/>
</clipPath>
</defs>
</svg>
