<svg width="24" height="24" viewBox="0 0 24 24" fill="none" xmlns="http://www.w3.org/2000/svg">
<g clip-path="url(#clip0_2207_1247)">
<path d="M11.9909 23.9287C18.53 23.9287 23.944 18.503 23.944 11.9756C23.944 5.43652 18.5183 0.0224609 11.9792 0.0224609C5.4519 0.0224609 0.0378418 5.43652 0.0378418 11.9756C0.0378418 18.503 5.46362 23.9287 11.9909 23.9287ZM11.9909 21.9366C6.45972 21.9366 2.04175 17.5069 2.04175 11.9756C2.04175 6.44434 6.448 2.01465 11.9792 2.01465C17.5105 2.01465 21.9519 6.44434 21.9519 11.9756C21.9519 17.5069 17.5222 21.9366 11.9909 21.9366Z" fill="black" fill-opacity="0.85"/>
<path d="M4.81909 11.9756C4.81909 12.1748 4.90112 12.4209 5.14722 12.6553L10.1862 17.4131C10.4909 17.6827 10.737 17.8116 11.0534 17.8116C11.4753 17.8116 11.7917 17.5069 11.7917 17.0733V14.4834H17.1003C18.0261 14.4834 18.5651 13.9678 18.5651 13.0655V10.8975C18.5651 9.9834 18.0261 9.46777 17.1003 9.46777H11.7917V6.90137C11.7917 6.47949 11.4753 6.13965 11.03 6.13965C10.7253 6.13965 10.5261 6.26855 10.1862 6.58496L5.14722 11.2842C4.90112 11.5186 4.81909 11.7647 4.81909 11.9756Z" fill="black" fill-opacity="0.85"/>
</g>
<defs>
<clipPath id="clip0_2207_1247">
<rect width="23.9062" height="23.918" fill="white" transform="translate(0.0378418 0.0224609)"/>
</clipPath>
</defs>
</svg>
