<svg width="24" height="24" viewBox="0 0 24 24" fill="none" xmlns="http://www.w3.org/2000/svg">
<g clip-path="url(#clip0_2207_24542)">
<path d="M12.0078 23.923C18.5469 23.923 23.9609 18.4973 23.9609 11.9699C23.9609 5.43091 18.5352 0.0168457 11.9961 0.0168457C5.46875 0.0168457 0.0546875 5.43091 0.0546875 11.9699C0.0546875 18.4973 5.48047 23.923 12.0078 23.923ZM12.0078 21.9309C6.47657 21.9309 2.0586 17.5012 2.0586 11.9699C2.0586 6.43873 6.46485 2.00904 11.9961 2.00904C17.5274 2.00904 21.9688 6.43873 21.9688 11.9699C21.9688 17.5012 17.5391 21.9309 12.0078 21.9309Z" fill="black" fill-opacity="0.85"/>
<path d="M12.043 18.509C13.5078 18.509 14.9727 17.9934 15.9922 17.1496C16.5547 16.7043 16.6836 16.0949 16.2852 15.6613C15.875 15.2277 15.3359 15.298 14.8672 15.6379C14.0235 16.3059 13.1797 16.6574 12.043 16.6574C9.71094 16.6574 7.77735 15.0871 7.26172 13.0129H8.49219C9.03125 13.0129 9.16016 12.4856 8.85547 12.0754L6.95703 9.427C6.64063 8.9934 6.10157 8.95825 5.77344 9.427L3.89844 12.0754C3.59375 12.4973 3.71094 13.0129 4.25 13.0129H5.49219C6.06641 16.259 8.70313 18.509 12.043 18.509ZM12.0195 5.38403C10.5664 5.38403 9.08985 5.88793 8.08203 6.73168C7.51953 7.177 7.39063 7.78637 7.78907 8.21996C8.19922 8.65356 8.73828 8.58325 9.19531 8.2434C10.0391 7.58715 10.8828 7.22387 12.0195 7.22387C14.3516 7.22387 16.2852 8.79418 16.8125 10.8684H15.5117C14.9609 10.8684 14.8438 11.3957 15.1367 11.8059L17.0469 14.4543C17.3633 14.8879 17.9024 14.923 18.2305 14.4543L20.1055 11.8059C20.4102 11.3957 20.293 10.8684 19.7422 10.8684H18.5703C18.0078 7.62231 15.3711 5.38403 12.0195 5.38403Z" fill="black" fill-opacity="0.85"/>
</g>
<defs>
<clipPath id="clip0_2207_24542">
<rect width="23.9062" height="23.918" fill="white" transform="translate(0.0546875 0.0168457)"/>
</clipPath>
</defs>
</svg>
