<svg width="24" height="24" viewBox="0 0 24 24" fill="none" xmlns="http://www.w3.org/2000/svg">
<g clip-path="url(#clip0_2207_24478)">
<path d="M12.0224 23.9259C18.5615 23.9259 23.9755 18.5002 23.9755 11.9728C23.9755 5.43371 18.5498 0.0196533 12.0107 0.0196533C5.4834 0.0196533 0.0693359 5.43371 0.0693359 11.9728C0.0693359 18.5002 5.49512 23.9259 12.0224 23.9259ZM12.0224 21.9338C6.49122 21.9338 2.07325 17.5041 2.07325 11.9728C2.07325 6.44153 6.4795 2.01184 12.0107 2.01184C17.542 2.01184 21.9834 6.44153 21.9834 11.9728C21.9834 17.5041 17.5537 21.9338 12.0224 21.9338Z" fill="black" fill-opacity="0.85"/>
<path d="M17.1788 11.8205C17.6358 11.8205 18.0108 11.4455 18.0108 10.9885C18.0108 10.5314 17.6358 10.1681 17.1788 10.1681H16.6046L14.8116 10.2853L17.9756 7.25014C18.3155 6.91029 18.3272 6.34779 17.9874 6.00795C17.6475 5.65639 17.085 5.65639 16.7452 6.01967L13.6866 9.19545L13.8038 7.34389V6.76967C13.8038 6.31264 13.4405 5.94936 12.9835 5.94936C12.5264 5.94936 12.1514 6.31264 12.1514 6.76967V10.8478C12.1514 11.5509 12.5147 11.8205 13.1241 11.8205H17.1788ZM11.0382 17.9845C11.4952 17.9845 11.8585 17.6213 11.8585 17.1642V13.0744C11.8585 12.383 11.5069 12.1135 10.8975 12.1135H6.83113C6.3741 12.1135 6.01082 12.4767 6.01082 12.9455C6.01082 13.4025 6.3741 13.7658 6.83113 13.7658H7.41707L9.21003 13.6486L6.04597 16.6838C5.70613 17.0119 5.69441 17.5861 6.03425 17.9259C6.3741 18.2775 6.9366 18.2775 7.27644 17.9142L10.335 14.7385L10.2061 16.59V17.1642C10.2061 17.6213 10.5811 17.9845 11.0382 17.9845Z" fill="black" fill-opacity="0.85"/>
</g>
<defs>
<clipPath id="clip0_2207_24478">
<rect width="23.9062" height="23.918" fill="white" transform="translate(0.0693359 0.0196533)"/>
</clipPath>
</defs>
</svg>
