<svg width="22" height="19" viewBox="0 0 22 19" fill="none" xmlns="http://www.w3.org/2000/svg">
<g clip-path="url(#clip0_2207_23860)">
<path d="M20.8945 18.5455C21.5156 18.5455 21.7969 18.1471 21.9023 17.6666C21.9727 17.3151 21.9961 16.7291 21.9961 16.0494C21.9961 10.3776 19.7344 7.94007 14.168 7.94007H5.97656L3.10547 8.10413L7.05469 4.49475L9.65625 1.84631C9.84375 1.65881 9.9375 1.38928 9.9375 1.10803C9.9375 0.522095 9.49219 0.10022 8.91797 0.10022C8.63672 0.10022 8.37891 0.19397 8.12109 0.451783L0.363281 8.19788C0.128906 8.42053 0 8.70178 0 8.98303C0 9.276 0.128906 9.54553 0.363281 9.77991L8.14453 17.5494C8.39062 17.7721 8.63672 17.8776 8.91797 17.8776C9.49219 17.8776 9.9375 17.4557 9.9375 16.8698C9.9375 16.5885 9.84375 16.3073 9.65625 16.1198L7.05469 13.4713L3.09375 9.86194L5.97656 10.0377H14.0625C18.3633 10.0377 19.875 11.8073 19.875 16.1549C19.875 16.7057 19.8516 17.0924 19.8516 17.5026C19.8516 18.1237 20.2852 18.5455 20.8945 18.5455Z" fill="black" fill-opacity="0.85"/>
</g>
<defs>
<clipPath id="clip0_2207_23860">
<rect width="21.9961" height="18.5273" fill="white" transform="translate(0 0.0181885)"/>
</clipPath>
</defs>
</svg>
