<svg width="29" height="24" viewBox="0 0 29 24" fill="none" xmlns="http://www.w3.org/2000/svg">
<g clip-path="url(#clip0_2207_8934)">
<path d="M3.7301 22.3645H25.152C27.5895 22.3645 28.8316 21.1457 28.8316 18.7316V6.46216C28.8316 4.0481 27.5895 2.84107 25.152 2.84107H21.8004C20.8746 2.84107 20.5934 2.65357 20.066 2.06763L19.1285 1.01294C18.5426 0.368408 17.9449 0.0168457 16.7379 0.0168457H12.0621C10.8551 0.0168457 10.2574 0.368408 9.6715 1.01294L8.734 2.06763C8.20667 2.64185 7.9137 2.84107 6.99964 2.84107H3.7301C1.28088 2.84107 0.050415 4.0481 0.050415 6.46216V18.7316C0.050415 21.1457 1.28088 22.3645 3.7301 22.3645ZM3.75354 20.4777C2.6051 20.4777 1.93713 19.8566 1.93713 18.6379V6.56763C1.93713 5.34888 2.6051 4.72779 3.75354 4.72779H7.46839C8.52308 4.72779 9.09729 4.52857 9.68322 3.87232L10.5973 2.84107C11.2652 2.09107 11.6168 1.90357 12.6481 1.90357H16.152C17.1832 1.90357 17.5348 2.09107 18.2027 2.84107L19.1168 3.87232C19.7027 4.52857 20.277 4.72779 21.3316 4.72779H25.1168C26.277 4.72779 26.9449 5.34888 26.9449 6.56763V18.6379C26.9449 19.8566 26.277 20.4777 25.1168 20.4777H3.75354Z" fill="black" fill-opacity="0.85"/>
<path d="M6.55435 12.0285C6.2731 12.4387 6.37856 12.9309 6.90591 12.9309H8.10122C8.66372 16.0832 11.2184 18.2629 14.4645 18.2629C15.8824 18.2629 17.3004 17.7707 18.2965 16.9504C18.8356 16.5285 18.9762 15.9309 18.566 15.509C18.1676 15.0871 17.6637 15.1574 17.2066 15.4856C16.3863 16.1301 15.566 16.4816 14.4645 16.4816C12.2027 16.4816 10.316 14.9582 9.80044 12.9309H11.0074C11.5348 12.9309 11.6637 12.4387 11.3707 12.0285L9.51919 9.47388C9.22622 9.05201 8.69888 9.01685 8.37075 9.47388L6.55435 12.0285ZM10.3395 8.29029C10.7262 8.71216 11.2418 8.65357 11.6871 8.31373C12.5074 7.65747 13.3395 7.32935 14.441 7.32935C16.7027 7.32935 18.5777 8.85279 19.0934 10.8684H17.816C17.3004 10.8684 17.1715 11.3723 17.4645 11.7707L19.3043 14.3371C19.609 14.759 20.1363 14.7941 20.4645 14.3371L22.2809 11.7707C22.5621 11.3606 22.4566 10.8684 21.9293 10.8684H20.7926C20.2301 7.71607 17.6754 5.53638 14.441 5.53638C13.0231 5.53638 11.5934 6.04029 10.609 6.8606C10.0699 7.28247 9.92935 7.86841 10.3395 8.29029Z" fill="black" fill-opacity="0.85"/>
</g>
<defs>
<clipPath id="clip0_2207_8934">
<rect width="28.7812" height="23.0977" fill="white" transform="translate(0.050415 0.0168457)"/>
</clipPath>
</defs>
</svg>
