<svg width="24" height="24" viewBox="0 0 24 24" fill="none" xmlns="http://www.w3.org/2000/svg">
<g clip-path="url(#clip0_2207_24223)">
<path d="M11.993 23.923C18.5321 23.923 23.9461 18.4973 23.9461 11.9699C23.9461 5.43091 18.5204 0.0168457 11.9813 0.0168457C5.45398 0.0168457 0.039917 5.43091 0.039917 11.9699C0.039917 18.4973 5.4657 23.923 11.993 23.923Z" fill="black" fill-opacity="0.85"/>
<path d="M4.51648 11.9816C4.51648 11.5129 4.85633 11.173 5.32508 11.173H10.8563L13.0711 11.302L10.6102 9.12231L9.86023 8.38403C9.68445 8.23168 9.61414 8.00903 9.61414 7.78637C9.61414 7.32934 9.97742 7.01293 10.4227 7.01293C10.6337 7.01293 10.8446 7.08325 11.0204 7.27075L15.1922 11.3606C15.3563 11.548 15.4618 11.7473 15.4618 11.9816C15.4618 12.2043 15.3797 12.4152 15.1922 12.591L11.0321 16.6457C10.868 16.8098 10.6102 16.9152 10.4227 16.9152C9.95398 16.9152 9.61414 16.5988 9.61414 16.1301C9.61414 15.884 9.68445 15.6848 9.86023 15.5441L10.6219 14.841L13.0829 12.6613L10.8563 12.802H5.32508C4.85633 12.802 4.51648 12.4738 4.51648 11.9816ZM17.1844 17.302C16.7274 17.302 16.3876 16.9738 16.3876 16.5051V7.42309C16.3876 6.95434 16.7274 6.62622 17.1844 6.62622C17.6766 6.62622 18.0165 6.95434 18.0165 7.42309V16.5051C18.0165 16.9738 17.6766 17.302 17.1844 17.302Z" fill="white"/>
</g>
<defs>
<clipPath id="clip0_2207_24223">
<rect width="23.9062" height="23.918" fill="white" transform="translate(0.039917 0.0168457)"/>
</clipPath>
</defs>
</svg>
