<svg width="22" height="18" viewBox="0 0 22 18" fill="none" xmlns="http://www.w3.org/2000/svg">
<g clip-path="url(#clip0_2207_23456)">
<path d="M21.7827 8.89966C21.7827 8.60669 21.6655 8.33716 21.4312 8.11451L13.6616 0.368408C13.4038 0.110596 13.1577 0.0168457 12.8765 0.0168457C12.3022 0.0168457 11.8569 0.438721 11.8569 1.02466C11.8569 1.30591 11.9507 1.57544 12.1382 1.76294L14.7632 4.43482L19.4155 8.67701L19.6499 8.09107L15.8765 7.85669H1.05225C0.442871 7.85669 0.0209961 8.29029 0.0209961 8.89966C0.0209961 9.50904 0.442871 9.94263 1.05225 9.94263H15.8765L19.6499 9.70826L19.4155 9.13404L14.7632 13.3645L12.1382 16.0363C11.9507 16.2121 11.8569 16.4934 11.8569 16.7746C11.8569 17.3606 12.3022 17.7824 12.8765 17.7824C13.1577 17.7824 13.4038 17.677 13.6382 17.4543L21.4312 9.68482C21.6655 9.46216 21.7827 9.19263 21.7827 8.89966Z" fill="black" fill-opacity="0.85"/>
</g>
<defs>
<clipPath id="clip0_2207_23456">
<rect width="21.7617" height="17.7773" fill="white" transform="translate(0.0209961 0.0168457)"/>
</clipPath>
</defs>
</svg>
