<svg width="32" height="22" viewBox="0 0 32 22" fill="none" xmlns="http://www.w3.org/2000/svg">
<g clip-path="url(#clip0_2207_1441)">
<path d="M12.9043 20.1436V1.45215C12.9043 0.666992 12.3301 0.0224609 11.5098 0.0224609C10.9356 0.0224609 10.5488 0.268555 9.92773 0.854492L0.669922 9.50293C0.224609 9.93652 0.0839844 10.3702 0.0839844 10.7686C0.0839844 11.1553 0.224609 11.6006 0.669922 12.0225L9.92773 20.753C10.4902 21.2803 10.959 21.5147 11.5332 21.5147C12.3301 21.5147 12.9043 20.9287 12.9043 20.1436ZM2.18164 10.7686C2.18164 10.6983 2.21679 10.628 2.31054 10.5459L10.6543 2.54199C10.7129 2.49512 10.7832 2.44824 10.8535 2.44824C10.959 2.44824 11.0176 2.51855 11.0176 2.6123V18.8194C11.0176 18.9248 10.959 18.9952 10.8535 18.9952C10.7949 18.9952 10.7246 18.96 10.6543 18.8897L2.31054 10.9913C2.21679 10.8975 2.18164 10.8389 2.18164 10.7686Z" fill="black" fill-opacity="0.85"/>
<path d="M17.3692 21.5147C18.166 21.5147 18.7402 20.9287 18.7402 20.1436V15.667H19.0801C23.627 15.667 26.4863 16.8155 28.5371 20.6475C28.9473 21.3975 29.4863 21.5147 29.9785 21.5147C30.5996 21.5147 31.1856 20.9522 31.1856 19.9444C31.1856 11.2842 27.5059 5.88184 19.0801 5.88184H18.7402V1.45215C18.7402 0.666992 18.166 0.0224609 17.3457 0.0224609C16.7715 0.0224609 16.3848 0.268555 15.7637 0.854492L6.51757 9.50293C6.06054 9.93652 5.91992 10.3702 5.91992 10.7686C5.91992 11.1553 6.07226 11.6006 6.51757 12.0225L15.7637 20.753C16.3262 21.2803 16.7949 21.5147 17.3692 21.5147Z" fill="white"/>
<path d="M17.3692 21.5147C18.166 21.5147 18.7402 20.9287 18.7402 20.1436V15.667H19.0801C23.627 15.667 26.4863 16.8155 28.5371 20.6475C28.9473 21.3975 29.4863 21.5147 29.9785 21.5147C30.5996 21.5147 31.1856 20.9522 31.1856 19.9444C31.1856 11.2842 27.5059 5.88184 19.0801 5.88184H18.7402V1.45215C18.7402 0.666992 18.166 0.0224609 17.3457 0.0224609C16.7715 0.0224609 16.3848 0.268555 15.7637 0.854492L6.51757 9.50293C6.06054 9.93652 5.91992 10.3702 5.91992 10.7686C5.91992 11.1553 6.07226 11.6006 6.51757 12.0225L15.7637 20.753C16.3262 21.2803 16.7949 21.5147 17.3692 21.5147ZM16.7012 18.9952C16.6309 18.9952 16.5606 18.96 16.4902 18.8897L8.14648 10.9913C8.05273 10.8975 8.01757 10.8389 8.01757 10.7686C8.01757 10.6983 8.05273 10.628 8.14648 10.5459L16.4902 2.54199C16.5488 2.49512 16.6192 2.44824 16.6895 2.44824C16.7949 2.44824 16.8535 2.51855 16.8535 2.6123V7.26465C16.8535 7.53418 16.9824 7.65137 17.252 7.65137H18.8223C26.8613 7.65137 29.2871 13.2295 29.5215 18.7608C29.5215 18.8545 29.4863 18.8897 29.4278 18.8897C29.3809 18.8897 29.3574 18.8545 29.3223 18.7725C27.9395 15.8311 24.3887 13.8975 18.8223 13.8975H17.252C16.9824 13.8975 16.8535 14.0147 16.8535 14.2842V18.8194C16.8535 18.9248 16.7949 18.9952 16.7012 18.9952Z" fill="black" fill-opacity="0.85"/>
</g>
<defs>
<clipPath id="clip0_2207_1441">
<rect width="31.1016" height="21.5039" fill="white" transform="translate(0.0839844 0.0224609)"/>
</clipPath>
</defs>
</svg>
