<svg width="22" height="22" viewBox="0 0 22 22" fill="none" xmlns="http://www.w3.org/2000/svg">
<g clip-path="url(#clip0_2207_23940)">
<path d="M3.70703 21.6187H17.9218C20.3828 21.6187 21.6015 20.3999 21.6015 17.9858V3.67725C21.6015 1.26319 20.3828 0.0444336 17.9218 0.0444336H3.70703C1.25781 0.0444336 0.0273438 1.25147 0.0273438 3.67725V17.9858C0.0273438 20.4116 1.25781 21.6187 3.70703 21.6187ZM3.73046 19.7319C2.55859 19.7319 1.91406 19.1108 1.91406 17.8921V3.771C1.91406 2.55225 2.55859 1.93116 3.73046 1.93116H17.8984C19.0585 1.93116 19.7148 2.55225 19.7148 3.771V17.8921C19.7148 19.1108 19.0585 19.7319 17.8984 19.7319H3.73046Z" fill="black" fill-opacity="0.85"/>
<path d="M16.8789 12.2437C16.8789 9.43116 14.8398 7.72022 12.1093 7.72022H8.60546L7.22265 7.75538L8.14843 7.02881L9.35546 5.85694C9.51953 5.71631 9.625 5.49366 9.625 5.24756C9.625 4.76709 9.26172 4.40381 8.78125 4.40381C8.53515 4.40381 8.34765 4.47412 8.18359 4.64991L5.0664 7.81397C4.8789 8.01319 4.76172 8.25928 4.76172 8.52881C4.76172 8.81006 4.8789 9.04444 5.0664 9.24366L8.19531 12.4312C8.35937 12.5952 8.54687 12.6772 8.79296 12.6772C9.26172 12.6772 9.625 12.314 9.625 11.8218C9.625 11.6108 9.54296 11.3765 9.36718 11.2241L7.90234 9.81788L7.22265 9.30225L8.60546 9.36084H12.1093C13.832 9.36084 15.1562 10.3452 15.1562 12.1499C15.1562 14.0015 13.8671 15.1382 12.0976 15.1382C11.957 15.1382 10.5156 15.1382 10.4687 15.1382C9.96484 15.1382 9.57812 15.4312 9.57812 15.9819C9.57812 16.521 9.96484 16.814 10.4921 16.814C10.5507 16.814 11.957 16.814 12.0976 16.814C14.8281 16.814 16.8789 15.0562 16.8789 12.2437Z" fill="black" fill-opacity="0.85"/>
</g>
<defs>
<clipPath id="clip0_2207_23940">
<rect width="21.5742" height="21.5977" fill="white" transform="translate(0.0273438 0.0209961)"/>
</clipPath>
</defs>
</svg>
