<svg width="22" height="22" viewBox="0 0 22 22" fill="none" xmlns="http://www.w3.org/2000/svg">
<g clip-path="url(#clip0_2207_24344)">
<path d="M3.70911 21.6174H17.9239C20.3849 21.6174 21.6036 20.3986 21.6036 17.9845V3.6759C21.6036 1.26184 20.3849 0.0430908 17.9239 0.0430908H3.70911C1.25989 0.0430908 0.0294189 1.25012 0.0294189 3.6759V17.9845C0.0294189 20.4103 1.25989 21.6174 3.70911 21.6174ZM3.73254 19.7306C2.56067 19.7306 1.91614 19.1095 1.91614 17.8908V3.76965C1.91614 2.5509 2.56067 1.92981 3.73254 1.92981H17.9005C19.0606 1.92981 19.7169 2.5509 19.7169 3.76965V17.8908C19.7169 19.1095 19.0606 19.7306 17.9005 19.7306H3.73254Z" fill="black" fill-opacity="0.85"/>
<path d="M5.75989 10.8008C6.21692 10.8008 6.59192 10.4376 6.59192 9.98059V9.40637L6.47473 7.55481L9.00597 10.2149C9.34582 10.5899 9.90832 10.5782 10.2482 10.2266C10.588 9.88684 10.5763 9.31262 10.2364 8.98449L7.59973 6.46496L9.3927 6.58215H9.96692C10.4239 6.58215 10.7872 6.21887 10.7872 5.76184C10.7872 5.30481 10.4239 4.92981 9.96692 4.92981H5.90051C5.29114 4.92981 4.93958 5.19934 4.93958 5.90246V9.98059C4.93958 10.4376 5.30286 10.8008 5.75989 10.8008ZM11.6896 16.7188H15.7442C16.3536 16.7188 16.7169 16.4493 16.7169 15.7462V11.668C16.7169 11.2111 16.3419 10.8477 15.8849 10.8477C15.4278 10.8477 15.0646 11.2111 15.0646 11.668V12.2423L15.1817 14.0938L12.6505 11.4337C12.2989 11.0587 11.7482 11.0704 11.3966 11.4219C11.0567 11.7618 11.0685 12.336 11.4083 12.6641L14.0567 15.1837L12.2638 15.0665H11.6896C11.2325 15.0665 10.8575 15.4298 10.8575 15.8868C10.8575 16.3438 11.2325 16.7188 11.6896 16.7188Z" fill="black" fill-opacity="0.85"/>
</g>
<defs>
<clipPath id="clip0_2207_24344">
<rect width="21.5742" height="21.5977" fill="white" transform="translate(0.0294189 0.0196533)"/>
</clipPath>
</defs>
</svg>
