<svg width="24" height="24" viewBox="0 0 24 24" fill="none" xmlns="http://www.w3.org/2000/svg">
<g clip-path="url(#clip0_2207_22629)">
<path d="M11.9804 23.9313C18.5195 23.9313 23.9335 18.5056 23.9335 11.9782C23.9335 5.43921 18.5078 0.0251465 11.9687 0.0251465C5.4414 0.0251465 0.0273438 5.43921 0.0273438 11.9782C0.0273438 18.5056 5.45312 23.9313 11.9804 23.9313ZM11.9804 21.9392C6.44922 21.9392 2.03125 17.5095 2.03125 11.9782C2.03125 6.44703 6.4375 2.01734 11.9687 2.01734C17.5 2.01734 21.9414 6.44703 21.9414 11.9782C21.9414 17.5095 17.5117 21.9392 11.9804 21.9392Z" fill="black" fill-opacity="0.85"/>
<path d="M12.1211 18.9978C13.1875 18.9978 14.2187 18.8689 14.8867 18.6462C15.3789 18.4939 15.6484 18.1892 15.6484 17.7907C15.6484 17.404 15.3554 17.111 14.9687 17.111C14.875 17.111 14.7343 17.1462 14.6054 17.1813C13.832 17.3571 13.1992 17.4743 12.3203 17.4743C8.875 17.4743 6.71875 15.3884 6.71875 12.0368C6.71875 8.69702 8.88672 6.4353 12.0859 6.4353C15.2148 6.4353 17.3125 8.39233 17.3125 11.3337C17.3125 13.1501 16.7265 14.3103 15.8711 14.3103C15.3085 14.3103 15.0273 14.0173 15.0273 13.4548V9.13061C15.0273 8.65014 14.7226 8.32202 14.2421 8.32202C13.8085 8.32202 13.5156 8.67358 13.5156 8.95483V9.1892C13.082 8.6853 12.3671 8.32202 11.6171 8.32202C9.82422 8.32202 8.54687 9.85717 8.54687 12.0134C8.54687 14.1931 9.82422 15.7399 11.6523 15.7399C12.5312 15.7399 13.2812 15.3298 13.7382 14.6149C14.0664 15.3063 14.7812 15.7399 15.707 15.7399C17.5937 15.7399 18.8476 13.9353 18.8476 11.2868C18.8476 7.51342 16.0937 4.92358 12.0976 4.92358C7.96093 4.92358 5.11328 7.80639 5.11328 12.0017C5.11328 16.197 7.92578 18.9978 12.1211 18.9978ZM11.9218 14.1696C10.9257 14.1696 10.3046 13.3376 10.3046 11.9782C10.3046 10.6306 10.9375 9.78686 11.9335 9.78686C12.9414 9.78686 13.5859 10.6071 13.5859 11.9431C13.5859 13.3142 12.9296 14.1696 11.9218 14.1696Z" fill="black" fill-opacity="0.85"/>
</g>
<defs>
<clipPath id="clip0_2207_22629">
<rect width="23.9062" height="23.918" fill="white" transform="translate(0.0273438 0.0251465)"/>
</clipPath>
</defs>
</svg>
