<svg width="24" height="24" viewBox="0 0 24 24" fill="none" xmlns="http://www.w3.org/2000/svg">
<g clip-path="url(#clip0_2207_26118)">
<path d="M11.9887 23.9313C18.5278 23.9313 23.9418 18.5056 23.9418 11.9782C23.9418 5.43921 18.5161 0.0251465 11.977 0.0251465C5.4497 0.0251465 0.0356445 5.43921 0.0356445 11.9782C0.0356445 18.5056 5.46142 23.9313 11.9887 23.9313ZM11.9887 21.9392C6.45752 21.9392 2.03955 17.5095 2.03955 11.9782C2.03955 6.44703 6.4458 2.01734 11.977 2.01734C17.5083 2.01734 21.9497 6.44703 21.9497 11.9782C21.9497 17.5095 17.52 21.9392 11.9887 21.9392Z" fill="black" fill-opacity="0.85"/>
<path d="M6.17628 17.3337C6.53957 17.3337 6.86769 17.1462 6.96144 16.7126L8.67238 8.66187H8.76613L10.5474 16.7126C10.6412 17.1462 10.9576 17.3337 11.3209 17.3337C11.7662 17.3337 12.1763 17.0056 12.0123 16.3142L9.8091 7.29077C9.68019 6.75171 9.30519 6.43531 8.77785 6.43531C8.26222 6.43531 7.85207 6.76343 7.72316 7.29077L5.438 16.3142C5.27394 17.0056 5.73097 17.3337 6.17628 17.3337ZM6.85597 14.4978H10.606V13.3024H6.85597V14.4978ZM15.3873 16.7946C17.0748 16.7946 18.2349 15.822 18.2349 14.2165C18.2349 13.0798 17.6255 12.2712 16.231 11.5446L15.188 10.9939C14.5787 10.6774 13.9459 10.279 13.9459 9.50562C13.9459 8.77906 14.4966 8.31031 15.3052 8.31031C16.1841 8.31031 16.6295 8.87281 16.688 9.66968C16.7232 10.0446 17.0162 10.2673 17.3443 10.2673C17.7427 10.2673 18.1295 9.96265 18.0357 9.31812C17.8716 8.04077 16.899 7.06812 15.3052 7.06812C13.688 7.06812 12.5162 8.05249 12.5162 9.56421C12.5162 10.8415 13.2427 11.6618 14.4732 12.2712L15.481 12.7751C16.149 13.1032 16.8052 13.6189 16.8052 14.322C16.8052 15.0603 16.2896 15.5524 15.3873 15.5524C14.3677 15.5524 13.9224 15.0368 13.8404 14.1813C13.7935 13.7829 13.524 13.5837 13.1959 13.5837C12.7974 13.5837 12.4224 13.9235 12.5162 14.5329C12.7037 15.8806 13.7349 16.7946 15.3873 16.7946ZM15.3755 18.0485C15.6216 18.0485 15.856 17.8259 15.856 17.5681V6.32984C15.856 6.06031 15.6216 5.83765 15.3755 5.83765C15.106 5.83765 14.8834 6.06031 14.8834 6.32984V17.5681C14.8834 17.8259 15.106 18.0485 15.3755 18.0485Z" fill="black" fill-opacity="0.85"/>
</g>
<defs>
<clipPath id="clip0_2207_26118">
<rect width="23.9062" height="23.918" fill="white" transform="translate(0.0356445 0.0251465)"/>
</clipPath>
</defs>
</svg>
