<svg width="18" height="22" viewBox="0 0 18 22" fill="none" xmlns="http://www.w3.org/2000/svg">
<g clip-path="url(#clip0_2207_25754)">
<path d="M2.03626 21.8806C2.59876 21.8806 2.95032 21.611 3.1261 21.0251L8.7511 3.00171H8.83313L14.4699 21.0368C14.6457 21.6228 14.9855 21.8806 15.5714 21.8806C16.216 21.8806 16.6847 21.4587 16.6847 20.8845C16.6847 20.7439 16.6496 20.5329 16.5558 20.2517L10.2277 1.17359C10.005 0.517334 9.55969 0.095459 8.80969 0.095459C8.02454 0.095459 7.57923 0.505615 7.35657 1.17359L1.02844 20.2634C0.934692 20.5446 0.911255 20.7439 0.911255 20.8845C0.911255 21.4587 1.38001 21.8806 2.03626 21.8806ZM0.0440674 11.404C0.0440674 11.8259 0.383911 12.1657 0.805786 12.1657H16.7785C17.2003 12.1657 17.5402 11.8259 17.5402 11.404C17.5402 10.9821 17.2003 10.6423 16.7785 10.6423H0.805786C0.383911 10.6423 0.0440674 10.9821 0.0440674 11.404ZM0.0440674 15.611C0.0440674 16.0329 0.383911 16.3728 0.805786 16.3728H16.7785C17.2003 16.3728 17.5402 16.0329 17.5402 15.611C17.5402 15.1892 17.2003 14.8493 16.7785 14.8493H0.805786C0.383911 14.8493 0.0440674 15.1892 0.0440674 15.611Z" fill="black" fill-opacity="0.85"/>
</g>
<defs>
<clipPath id="clip0_2207_25754">
<rect width="17.4961" height="21.8555" fill="white" transform="translate(0.0440674 0.0251465)"/>
</clipPath>
</defs>
</svg>
