<svg width="27" height="27" viewBox="0 0 27 27" fill="none" xmlns="http://www.w3.org/2000/svg">
<g clip-path="url(#clip0_2207_17312)">
<path d="M1.13647 13.0433C1.13647 16.9925 3.16381 20.4847 6.14037 22.7113C6.656 23.1097 7.31225 22.9808 7.5935 22.5004C7.88648 22.0199 7.74584 21.4574 7.26537 21.1058C4.75756 19.3129 3.14037 16.3832 3.12865 13.0433C3.10522 7.51208 7.57007 3.08239 13.0896 3.08239C18.6208 3.08239 23.0739 7.51208 23.0505 13.0433C23.0388 16.3832 21.4333 19.3129 18.9255 21.1058C18.445 21.4574 18.3044 22.0199 18.5974 22.5004C18.8786 22.9808 19.5349 23.1097 20.0505 22.7113C23.0271 20.4847 25.0427 16.9925 25.0427 13.0433C25.0427 6.50427 19.6286 1.09021 13.0896 1.09021C6.56225 1.09021 1.13647 6.50427 1.13647 13.0433ZM22.113 23.5199L18.4099 19.6527C17.8239 19.0433 17.2614 19.3011 17.1091 20.0629L16.2067 24.4691C16.0661 25.1254 16.4646 25.5238 17.1325 25.43L21.6325 24.7972C22.4411 24.68 22.6989 24.141 22.113 23.5199ZM9.24584 17.848C9.66772 17.848 9.96068 17.6371 10.1364 17.098L11.0036 14.6019H15.1872L16.0427 17.098C16.2302 17.6371 16.5232 17.848 16.945 17.848C17.4607 17.848 17.8122 17.5082 17.8122 17.0394C17.8122 16.8519 17.7771 16.6879 17.6833 16.43L14.4021 7.58239C14.1677 6.97302 13.7224 6.65661 13.0778 6.65661C12.4567 6.65661 12.0114 6.97302 11.7888 7.58239L8.49584 16.43C8.41382 16.6879 8.37865 16.8519 8.37865 17.0277C8.37865 17.5199 8.7185 17.848 9.24584 17.848ZM11.4724 13.1957L13.031 8.66052H13.1599L14.7185 13.1957H11.4724Z" fill="black" fill-opacity="0.85"/>
<path d="M22.2302 25.4182C23.1325 26.2971 24.5857 26.2971 25.4528 25.3831C26.3317 24.4924 26.32 23.0745 25.4411 22.1956L3.94898 0.691658C3.07007 -0.187249 1.62866 -0.198967 0.726319 0.691658C-0.152588 1.55885 -0.152588 3.03541 0.726319 3.9026L22.2302 25.4182Z" fill="white"/>
<path d="M23.2028 24.4456C23.5544 24.7971 24.1403 24.7854 24.4802 24.4339C24.8317 24.0823 24.8317 23.5081 24.4802 23.1565L2.98804 1.66432C2.63648 1.31276 2.05054 1.30104 1.69898 1.66432C1.34741 2.00417 1.34741 2.59011 1.69898 2.94167L23.2028 24.4456Z" fill="black" fill-opacity="0.85"/>
</g>
<defs>
<clipPath id="clip0_2207_17312">
<rect width="26.0391" height="26.048" fill="white" transform="translate(0.0671387 0.0251465)"/>
</clipPath>
</defs>
</svg>
