<svg width="33" height="24" viewBox="0 0 33 24" fill="none" xmlns="http://www.w3.org/2000/svg">
<g clip-path="url(#clip0_2207_15656)">
<path d="M0.0566406 5.32202C0.0566406 5.84936 0.490235 6.25952 0.994141 6.25952H12.8769C12.8769 5.34545 12.8769 4.86498 12.8769 4.38452H0.994141C0.490235 4.38452 0.0566406 4.81811 0.0566406 5.32202ZM0.0566406 9.66967C0.0566406 10.1853 0.501953 10.6071 0.994141 10.6071L12.8769 10.6189C12.8769 9.97436 12.8769 9.35326 12.8769 8.73217H0.994141C0.490235 8.73217 0.0566406 9.16576 0.0566406 9.66967ZM0.0566406 14.0407C0.0566406 14.5446 0.490235 14.9548 0.994141 14.9548H12.8769C12.8769 14.3454 12.8769 13.7243 12.8769 13.0915H0.994141C0.490235 13.0915 0.0566406 13.5251 0.0566406 14.0407ZM0.0566406 18.3884C0.0566406 18.8923 0.490235 19.3024 0.994141 19.3024L12.8769 19.3142C12.8769 18.8689 12.8769 17.9899 12.8769 17.4509L0.994141 17.4392C0.490235 17.4392 0.0566406 17.8728 0.0566406 18.3884Z" fill="black" fill-opacity="0.85"/>
<path d="M9.20898 11.861C9.20898 14.1813 9.39648 16.5485 10.0761 18.9392C11.0488 22.3024 13.2519 23.6735 16.9199 23.6735H17.5761C25.4394 23.6735 32.5996 18.4235 32.5996 11.861C32.5996 5.31031 25.4628 0.0251465 17.5761 0.0251465H16.9199C13.2636 0.0251465 11.0605 1.41968 10.0761 4.75953C9.39648 7.17359 9.20898 9.54077 9.20898 11.861Z" fill="white"/>
<path d="M11.3066 11.861C11.3066 14.0642 11.4824 16.197 12.0918 18.3649C12.7832 20.7321 14.1191 21.5759 16.9199 21.5759H17.5761C24.4199 21.5759 30.5019 17.111 30.5019 11.861C30.5019 6.61108 24.4199 2.1228 17.5761 2.1228H16.9199C14.1308 2.1228 12.7949 2.97826 12.0918 5.34545C11.4824 7.52514 11.3066 9.65795 11.3066 11.861ZM13.1933 11.861C13.1933 9.40014 13.3808 7.61889 13.8847 5.8728C14.2949 4.5017 15.1386 3.98608 16.9199 3.98608H17.5761C23.3418 3.98608 28.6269 7.67748 28.6269 11.861C28.6269 16.0329 23.3418 19.7126 17.5761 19.7126H16.9199C15.1035 19.7126 14.2949 19.2087 13.8847 17.8493C13.3808 16.0915 13.1933 14.322 13.1933 11.861Z" fill="black" fill-opacity="0.85"/>
<path d="M16.4747 16.2556C16.8614 16.2556 17.1309 16.0682 17.295 15.576L18.0684 13.3377H21.8301L22.5919 15.576C22.7559 16.0682 23.0255 16.2556 23.4122 16.2556C23.8809 16.2556 24.1973 15.9627 24.1973 15.5174C24.1973 15.3533 24.1622 15.2009 24.0919 14.9665L21.127 7.00953C20.9278 6.45874 20.5059 6.17749 19.9317 6.17749C19.3575 6.17749 18.9708 6.45874 18.7598 7.00953L15.8067 14.9665C15.7247 15.2009 15.6895 15.3533 15.6895 15.5174C15.6895 15.9627 15.9942 16.2556 16.4747 16.2556ZM18.4903 12.0604L19.8965 7.9939H20.002L21.3965 12.0604H18.4903Z" fill="black" fill-opacity="0.85"/>
</g>
<defs>
<clipPath id="clip0_2207_15656">
<rect width="32.543" height="23.6836" fill="white" transform="translate(0.0566406 0.0251465)"/>
</clipPath>
</defs>
</svg>
