<svg width="33" height="24" viewBox="0 0 33 24" fill="none" xmlns="http://www.w3.org/2000/svg">
<g clip-path="url(#clip0_2207_15682)">
<path d="M12.6469 6.8689V4.97046L0.846191 8.12281C0.354004 8.25171 0.0610352 8.61499 0.0610352 9.08374C0.0610352 9.70484 0.553223 10.1032 1.24463 9.92749L12.6469 6.8689ZM12.6469 11.0407V9.13062L0.846191 12.2946C0.354004 12.4353 0.0610352 12.7985 0.0610352 13.2673C0.0610352 13.8884 0.57666 14.2868 1.24463 14.111L12.6469 11.0407ZM12.6469 15.2478V13.3259L0.846191 16.4782C0.354004 16.6071 0.0610352 16.9821 0.0610352 17.4392C0.0610352 18.072 0.553223 18.4704 1.24463 18.2829L12.6469 15.2478ZM12.6469 19.4196V17.5095L0.846191 20.6618C0.354004 20.7907 0.0610352 21.154 0.0610352 21.6228C0.0610352 22.2556 0.564941 22.654 1.24463 22.4665L12.6469 19.4196Z" fill="black" fill-opacity="0.85"/>
<path d="M9.28369 11.861C9.28369 14.1813 9.47119 16.5485 10.1508 18.9392C11.1235 22.3024 13.3266 23.6735 16.9946 23.6735H17.6508C25.5141 23.6735 32.6743 18.4235 32.6743 11.861C32.6743 5.31031 25.5376 0.0251465 17.6508 0.0251465H16.9946C13.3383 0.0251465 11.1352 1.41968 10.1508 4.75953C9.47119 7.17359 9.28369 9.54077 9.28369 11.861Z" fill="white"/>
<path d="M11.3813 11.861C11.3813 14.0642 11.5337 16.2087 12.1548 18.3649C12.8579 20.7556 14.1821 21.611 16.9946 21.611H17.6626C24.518 21.611 30.6001 17.1228 30.6001 11.861C30.6001 6.61108 24.518 2.11108 17.6626 2.11108H16.9946C14.1938 2.11108 12.8696 2.96655 12.1548 5.35717C11.5337 7.52514 11.3813 9.66967 11.3813 11.861ZM13.2915 11.861C13.2915 9.4353 13.479 7.64233 13.9829 5.88452C14.393 4.52514 15.2251 4.02123 16.9946 4.02123H17.6626C23.4048 4.02123 28.6899 7.6892 28.6899 11.861C28.6899 16.0329 23.4048 19.7009 17.6626 19.7009H16.9946C15.1899 19.7009 14.393 19.197 13.9829 17.8493C13.479 16.0681 13.2915 14.2985 13.2915 11.861Z" fill="black" fill-opacity="0.85"/>
<path d="M16.5727 16.2556C16.9594 16.2556 17.229 16.0682 17.393 15.576L18.1665 13.3377H21.9282L22.6899 15.576C22.854 16.0682 23.1235 16.2556 23.5102 16.2556C23.979 16.2556 24.2954 15.9627 24.2954 15.5174C24.2954 15.3533 24.2602 15.2009 24.1899 14.9665L21.2251 7.00953C21.0258 6.45874 20.604 6.17749 20.0298 6.17749C19.4555 6.17749 19.0688 6.45874 18.8579 7.00953L15.9048 14.9665C15.811 15.2009 15.7876 15.3533 15.7876 15.5174C15.7876 15.9627 16.0922 16.2556 16.5727 16.2556ZM18.5883 12.0604L19.9946 7.9939H20.1001L21.4946 12.0604H18.5883Z" fill="black" fill-opacity="0.85"/>
</g>
<defs>
<clipPath id="clip0_2207_15682">
<rect width="32.6133" height="23.6836" fill="white" transform="translate(0.0610352 0.0251465)"/>
</clipPath>
</defs>
</svg>
