<svg width="33" height="24" viewBox="0 0 33 24" fill="none" xmlns="http://www.w3.org/2000/svg">
<g clip-path="url(#clip0_2207_15663)">
<path d="M0.0588379 5.32202C0.0588379 5.84936 0.492432 6.25952 0.996338 6.25952H12.8791C12.8791 5.34545 12.8791 4.86498 12.8791 4.38452H0.996338C0.492432 4.38452 0.0588379 4.81811 0.0588379 5.32202ZM0.0588379 9.66967C0.0588379 10.1853 0.50415 10.6071 0.996338 10.6071L12.8791 10.6189C12.8791 9.97436 12.8791 9.35326 12.8791 8.73217H0.996338C0.492432 8.73217 0.0588379 9.16576 0.0588379 9.66967ZM0.0588379 14.0407C0.0588379 14.5446 0.492432 14.9548 0.996338 14.9548H12.8791C12.8791 14.3454 12.8791 13.7243 12.8791 13.0915H0.996338C0.492432 13.0915 0.0588379 13.5251 0.0588379 14.0407ZM0.0588379 18.3884C0.0588379 18.8923 0.492432 19.3024 0.996338 19.3024L12.8791 19.3142C12.8791 18.8689 12.8791 17.9899 12.8791 17.4509L0.996338 17.4392C0.492432 17.4392 0.0588379 17.8728 0.0588379 18.3884Z" fill="black" fill-opacity="0.85"/>
<path d="M9.21118 11.861C9.21118 14.1813 9.39868 16.5485 10.0783 18.9392C11.051 22.3024 13.2541 23.6735 16.9221 23.6735H17.5783C25.4416 23.6735 32.6018 18.4235 32.6018 11.861C32.6018 5.31031 25.465 0.0251465 17.5783 0.0251465H16.9221C13.2658 0.0251465 11.0627 1.41968 10.0783 4.75953C9.39868 7.17359 9.21118 9.54077 9.21118 11.861Z" fill="white"/>
<path d="M11.3088 11.861C11.3088 14.0642 11.4846 16.197 12.094 18.3649C12.7854 20.7321 14.1213 21.5759 16.9221 21.5759H17.5783C24.4221 21.5759 30.5041 17.111 30.5041 11.861C30.5041 6.61108 24.4221 2.1228 17.5783 2.1228H16.9221C14.133 2.1228 12.7971 2.97826 12.094 5.34545C11.4846 7.52514 11.3088 9.65795 11.3088 11.861Z" fill="black" fill-opacity="0.85"/>
<path d="M16.3713 16.4196C15.8674 16.4196 15.551 16.1149 15.551 15.6462C15.551 15.4821 15.5861 15.3181 15.6799 15.0837L18.715 6.88062C18.9377 6.3064 19.3361 6.01343 19.9338 6.01343C20.5315 6.01343 20.965 6.3064 21.176 6.88062L24.2229 15.0837C24.3049 15.3181 24.34 15.4821 24.34 15.6462C24.34 16.1149 24.0119 16.4196 23.5197 16.4196C23.1213 16.4196 22.84 16.2204 22.676 15.7165L21.8908 13.4079H18.0119L17.215 15.7165C17.051 16.2204 16.7697 16.4196 16.3713 16.4196ZM18.4455 12.0837H21.4455L20.0041 7.90015H19.8986L18.4455 12.0837Z" fill="white"/>
</g>
<defs>
<clipPath id="clip0_2207_15663">
<rect width="32.543" height="23.6836" fill="white" transform="translate(0.0588379 0.0251465)"/>
</clipPath>
</defs>
</svg>
