<svg width="33" height="24" viewBox="0 0 33 24" fill="none" xmlns="http://www.w3.org/2000/svg">
<g clip-path="url(#clip0_2207_15689)">
<path d="M12.6489 6.8689V4.97046L0.848144 8.12281C0.355957 8.25171 0.0629883 8.61499 0.0629883 9.08374C0.0629883 9.70484 0.555176 10.1032 1.24658 9.92749L12.6489 6.8689ZM12.6489 11.0407V9.13062L0.848144 12.2946C0.355957 12.4353 0.0629883 12.7985 0.0629883 13.2673C0.0629883 13.8884 0.578613 14.2868 1.24658 14.111L12.6489 11.0407ZM12.6489 15.2478V13.3259L0.848144 16.4782C0.355957 16.6071 0.0629883 16.9821 0.0629883 17.4392C0.0629883 18.072 0.555176 18.4704 1.24658 18.2829L12.6489 15.2478ZM12.6489 19.4196V17.5095L0.848144 20.6618C0.355957 20.7907 0.0629883 21.154 0.0629883 21.6228C0.0629883 22.2556 0.566894 22.654 1.24658 22.4665L12.6489 19.4196Z" fill="black" fill-opacity="0.85"/>
<path d="M9.28564 11.861C9.28564 14.1813 9.47314 16.5485 10.1528 18.9392C11.1255 22.3024 13.3286 23.6735 16.9966 23.6735H17.6528C25.5161 23.6735 32.6763 18.4235 32.6763 11.861C32.6763 5.31031 25.5396 0.0251465 17.6528 0.0251465H16.9966C13.3403 0.0251465 11.1372 1.41968 10.1528 4.75953C9.47314 7.17359 9.28564 9.54077 9.28564 11.861Z" fill="white"/>
<path d="M11.3833 11.861C11.3833 14.0642 11.5357 16.2087 12.1568 18.3649C12.8599 20.7556 14.1841 21.611 16.9966 21.611H17.6646C24.52 21.611 30.6021 17.1228 30.6021 11.861C30.6021 6.61108 24.52 2.11108 17.6646 2.11108H16.9966C14.1958 2.11108 12.8716 2.96655 12.1568 5.35717C11.5357 7.52514 11.3833 9.66967 11.3833 11.861Z" fill="black" fill-opacity="0.85"/>
<path d="M16.4692 16.4196C15.9653 16.4196 15.6489 16.1149 15.6489 15.6462C15.6489 15.4821 15.6841 15.3181 15.7778 15.0837L18.813 6.88062C19.0357 6.3064 19.4341 6.01343 20.0318 6.01343C20.6294 6.01343 21.063 6.3064 21.2739 6.88062L24.3208 15.0837C24.4028 15.3181 24.438 15.4821 24.438 15.6462C24.438 16.1149 24.1099 16.4196 23.6177 16.4196C23.2192 16.4196 22.938 16.2204 22.7739 15.7165L21.9888 13.4079H18.1099L17.313 15.7165C17.1489 16.2204 16.8677 16.4196 16.4692 16.4196ZM18.5435 12.0837H21.5435L20.1021 7.90015H19.9966L18.5435 12.0837Z" fill="white"/>
</g>
<defs>
<clipPath id="clip0_2207_15689">
<rect width="32.6133" height="23.6836" fill="white" transform="translate(0.0629883 0.0251465)"/>
</clipPath>
</defs>
</svg>
