<svg width="22" height="26" viewBox="0 0 22 26" fill="none" xmlns="http://www.w3.org/2000/svg">
<g clip-path="url(#clip0_2207_17272)">
<path d="M1.16176 7.82911L2.04067 8.14552C2.95473 8.48536 3.8102 8.06349 4.15004 7.12599L5.80238 2.59083C6.14223 1.65333 5.75551 0.797859 4.84145 0.458015L3.96254 0.141609C3.04848 -0.198235 2.20473 0.22364 1.85317 1.17286L0.212545 5.6963C-0.139017 6.6338 0.247701 7.48927 1.16176 7.82911ZM16.5954 7.82911L17.486 8.14552C18.4001 8.48536 19.2438 8.06349 19.5837 7.12599L21.236 2.59083C21.5876 1.65333 21.1891 0.797859 20.2868 0.458015L19.3962 0.141609C18.4821 -0.198235 17.6501 0.22364 17.2985 1.17286L15.6462 5.6963C15.3063 6.6338 15.693 7.50099 16.5954 7.82911ZM2.53285 25.208H3.47035C4.44301 25.208 5.09926 24.5283 5.09926 23.5322V18.7158C5.09926 17.708 4.44301 17.0283 3.47035 17.0283H2.53285C1.57192 17.0283 0.91567 17.708 0.91567 18.7158V23.5322C0.91567 24.5283 1.57192 25.208 2.53285 25.208ZM17.9665 25.208H18.904C19.8766 25.208 20.5329 24.5283 20.5329 23.5322V18.7158C20.5329 17.708 19.8766 17.0283 18.904 17.0283H17.9665C17.0055 17.0283 16.3493 17.708 16.3493 18.7158V23.5322C16.3493 24.5283 17.0055 25.208 17.9665 25.208ZM4.17348 5.08693H8.72035V3.20021H4.17348V5.08693ZM12.8454 5.08693H17.2868V3.20021H12.8454V5.08693ZM9.77504 21.3642H11.6618V6.21193H9.77504V21.3642ZM4.17348 22.0673H17.2868V20.1806H4.17348V22.0673Z" fill="black" fill-opacity="0.85"/>
<path d="M10.7244 7.18457C12.4119 7.18457 13.7478 5.83692 13.7478 4.1377C13.7478 2.43848 12.4119 1.10254 10.7244 1.10254C9.02515 1.10254 7.67749 2.43848 7.67749 4.1377C7.67749 5.83692 9.02515 7.18457 10.7244 7.18457ZM10.7244 5.6377C9.88062 5.6377 9.21265 4.98145 9.21265 4.1377C9.21265 3.30567 9.88062 2.6377 10.7244 2.6377C11.5564 2.6377 12.2127 3.30567 12.2127 4.1377C12.2127 4.98145 11.5564 5.6377 10.7244 5.6377Z" fill="black" fill-opacity="0.85"/>
</g>
<defs>
<clipPath id="clip0_2207_17272">
<rect width="21.279" height="25.229" fill="white" transform="translate(0.0839844 0.0251465)"/>
</clipPath>
</defs>
</svg>
