<svg width="22" height="26" viewBox="0 0 22 26" fill="none" xmlns="http://www.w3.org/2000/svg">
<g clip-path="url(#clip0_2207_17282)">
<path d="M1.15761 7.82911L2.03652 8.14552C2.95058 8.48536 3.80605 8.06349 4.14589 7.12599L5.79823 2.59083C6.13808 1.65333 5.75136 0.797859 4.8373 0.458015L3.95839 0.141609C3.04433 -0.198235 2.20058 0.22364 1.84902 1.17286L0.208395 5.6963C-0.143167 6.6338 0.243551 7.48927 1.15761 7.82911ZM16.5912 7.82911L17.4818 8.14552C18.3959 8.48536 19.2396 8.06349 19.5795 7.12599L21.2318 2.59083C21.5834 1.65333 21.1849 0.797859 20.2826 0.458015L19.392 0.141609C18.4779 -0.198235 17.6459 0.22364 17.2943 1.17286L15.642 5.6963C15.3021 6.6338 15.6888 7.50099 16.5912 7.82911ZM4.16933 5.08693H8.7162V3.20021H4.16933V5.08693ZM12.8412 5.08693H17.2826V3.20021H12.8412V5.08693ZM9.77089 6.21193V18.8564H11.6576V6.21193H9.77089ZM2.5287 25.208H3.4662C4.43886 25.208 5.09511 24.5283 5.09511 23.5322V18.7158C5.09511 17.708 4.43886 17.0283 3.4662 17.0283H2.5287C1.56777 17.0283 0.91152 17.708 0.91152 18.7158V23.5322C0.91152 24.5283 1.56777 25.208 2.5287 25.208ZM17.9623 25.208H18.8998C19.8724 25.208 20.5287 24.5283 20.5287 23.5322V18.7158C20.5287 17.708 19.8724 17.0283 18.8998 17.0283H17.9623C17.0013 17.0283 16.3451 17.708 16.3451 18.7158V23.5322C16.3451 24.5283 17.0013 25.208 17.9623 25.208ZM4.16933 22.0673H8.44667V20.1806H4.16933V22.0673ZM12.9818 22.0673H17.2826V20.1806H12.9818V22.0673Z" fill="black" fill-opacity="0.85"/>
<path d="M10.7202 7.18457C12.4077 7.18457 13.7436 5.83692 13.7436 4.1377C13.7436 2.43848 12.4077 1.10254 10.7202 1.10254C9.021 1.10254 7.67334 2.43848 7.67334 4.1377C7.67334 5.83692 9.021 7.18457 10.7202 7.18457ZM10.7202 5.6377C9.87647 5.6377 9.2085 4.98145 9.2085 4.1377C9.2085 3.30567 9.87647 2.6377 10.7202 2.6377C11.5522 2.6377 12.2085 3.30567 12.2085 4.1377C12.2085 4.98145 11.5522 5.6377 10.7202 5.6377ZM10.7202 24.165C12.4077 24.165 13.7436 22.8291 13.7436 21.1298C13.7436 19.4306 12.4077 18.083 10.7202 18.083C9.021 18.083 7.67334 19.4306 7.67334 21.1298C7.67334 22.8291 9.021 24.165 10.7202 24.165ZM10.7202 22.6298C9.87647 22.6298 9.2085 21.9619 9.2085 21.1298C9.2085 20.2861 9.87647 19.6298 10.7202 19.6298C11.5522 19.6298 12.2085 20.2861 12.2085 21.1298C12.2085 21.9619 11.5522 22.6298 10.7202 22.6298Z" fill="black" fill-opacity="0.85"/>
</g>
<defs>
<clipPath id="clip0_2207_17282">
<rect width="21.279" height="25.229" fill="white" transform="translate(0.079834 0.0251465)"/>
</clipPath>
</defs>
</svg>
