<svg width="22" height="26" viewBox="0 0 22 26" fill="none" xmlns="http://www.w3.org/2000/svg">
<g clip-path="url(#clip0_2207_17277)">
<path d="M1.16591 7.82911L2.04482 8.14552C2.95888 8.48536 3.81435 8.06349 4.15419 7.12599L5.80653 2.59083C6.14638 1.65333 5.75967 0.797859 4.8456 0.458015L3.96669 0.141609C3.05263 -0.198235 2.20888 0.22364 1.85732 1.17286L0.216696 5.6963C-0.134866 6.6338 0.251852 7.48927 1.16591 7.82911ZM16.5995 7.82911L17.4901 8.14552C18.4042 8.48536 19.2479 8.06349 19.5878 7.12599L21.2401 2.59083C21.5917 1.65333 21.1932 0.797859 20.2909 0.458015L19.4003 0.141609C18.4862 -0.198235 17.6542 0.22364 17.3026 1.17286L15.6503 5.6963C15.3104 6.6338 15.6971 7.50099 16.5995 7.82911ZM2.537 25.208H3.4745C4.44716 25.208 5.10341 24.5283 5.10341 23.5322V18.7158C5.10341 17.708 4.44716 17.0283 3.4745 17.0283H2.537C1.57607 17.0283 0.919821 17.708 0.919821 18.7158V23.5322C0.919821 24.5283 1.57607 25.208 2.537 25.208ZM17.9706 25.208H18.9081C19.8807 25.208 20.537 24.5283 20.537 23.5322V18.7158C20.537 17.708 19.8807 17.0283 18.9081 17.0283H17.9706C17.0096 17.0283 16.3534 17.708 16.3534 18.7158V23.5322C16.3534 24.5283 17.0096 25.208 17.9706 25.208ZM4.17763 5.08693H17.2909V3.20021H4.17763V5.08693ZM9.77919 18.8564H11.6659V4.37208H9.77919V18.8564ZM4.17763 22.0673H8.45498V20.1806H4.17763V22.0673ZM12.9901 22.0673H17.2909V20.1806H12.9901V22.0673Z" fill="black" fill-opacity="0.85"/>
<path d="M10.7285 24.165C12.416 24.165 13.7519 22.8291 13.7519 21.1298C13.7519 19.4306 12.416 18.083 10.7285 18.083C9.0293 18.083 7.68164 19.4306 7.68164 21.1298C7.68164 22.8291 9.0293 24.165 10.7285 24.165ZM10.7285 22.6298C9.88477 22.6298 9.2168 21.9619 9.2168 21.1298C9.2168 20.2861 9.88477 19.6298 10.7285 19.6298C11.5605 19.6298 12.2168 20.2861 12.2168 21.1298C12.2168 21.9619 11.5605 22.6298 10.7285 22.6298Z" fill="black" fill-opacity="0.85"/>
</g>
<defs>
<clipPath id="clip0_2207_17277">
<rect width="21.279" height="25.229" fill="white" transform="translate(0.0881348 0.0251465)"/>
</clipPath>
</defs>
</svg>
