<svg width="22" height="26" viewBox="0 0 22 26" fill="none" xmlns="http://www.w3.org/2000/svg">
<g clip-path="url(#clip0_2207_17302)">
<path d="M1.16811 7.82911L2.04702 8.14552C2.96108 8.48536 3.81655 8.06349 4.15639 7.12599L5.80873 2.59083C6.14858 1.65333 5.76186 0.797859 4.8478 0.458015L3.96889 0.141609C3.05483 -0.198235 2.21108 0.22364 1.85952 1.17286L0.218893 5.6963C-0.132669 6.6338 0.254049 7.48927 1.16811 7.82911ZM16.6017 7.82911L17.4923 8.14552C18.4064 8.48536 19.2501 8.06349 19.59 7.12599L21.2423 2.59083C21.5939 1.65333 21.1954 0.797859 20.2931 0.458015L19.4025 0.141609C18.4884 -0.198235 17.6564 0.22364 17.3048 1.17286L15.6525 5.6963C15.3126 6.6338 15.6993 7.50099 16.6017 7.82911ZM4.17983 5.08693H17.2931V3.20021H4.17983V5.08693ZM9.75795 15.6455C10.0509 15.5634 10.3673 15.5166 10.7071 15.5166C11.047 15.5166 11.3517 15.5634 11.6446 15.6455V3.20021H9.75795V15.6455ZM2.5392 25.208H3.4767C4.44936 25.208 5.10561 24.5283 5.10561 23.5322V18.7158C5.10561 17.708 4.44936 17.0283 3.4767 17.0283H2.5392C1.57827 17.0283 0.922018 17.708 0.922018 18.7158V23.5322C0.922018 24.5283 1.57827 25.208 2.5392 25.208ZM17.9728 25.208H18.9103C19.8829 25.208 20.5392 24.5283 20.5392 23.5322V18.7158C20.5392 17.708 19.8829 17.0283 18.9103 17.0283H17.9728C17.0118 17.0283 16.3556 17.708 16.3556 18.7158V23.5322C16.3556 24.5283 17.0118 25.208 17.9728 25.208ZM4.17983 22.0673H6.62905V21.0595C6.62905 20.7314 6.67592 20.4384 6.79311 20.1806H4.17983V22.0673ZM14.7735 22.0673H17.2931V20.1806H14.6212C14.7267 20.4384 14.7735 20.7314 14.7735 21.0595V22.0673Z" fill="black" fill-opacity="0.85"/>
<path d="M8.71508 25.1142H12.6877C13.3322 25.1142 13.6486 24.7744 13.6486 24.1064V21.0595C13.6486 20.5322 13.4494 20.2275 13.0627 20.1103V19.3017C13.0627 17.7197 12.1135 16.6416 10.7072 16.6416C9.30102 16.6416 8.34008 17.7197 8.34008 19.3017V20.122C7.96508 20.2275 7.76587 20.5322 7.76587 21.0595V24.1064C7.76587 24.7744 8.08227 25.1142 8.71508 25.1142ZM9.51196 20.0517V19.1963C9.51196 18.3291 9.96899 17.7783 10.7072 17.7783C11.4221 17.7783 11.9026 18.3291 11.9026 19.1963V20.0517H9.51196Z" fill="black" fill-opacity="0.85"/>
</g>
<defs>
<clipPath id="clip0_2207_17302">
<rect width="21.279" height="25.229" fill="white" transform="translate(0.090332 0.0251465)"/>
</clipPath>
</defs>
</svg>
