<svg width="24" height="24" viewBox="0 0 24 24" fill="none" xmlns="http://www.w3.org/2000/svg">
<g clip-path="url(#clip0_2207_24851)">
<path d="M12.0476 23.9313C18.5867 23.9313 24.0007 18.5056 24.0007 11.9782C24.0007 5.43921 18.575 0.0251465 12.0359 0.0251465C5.50854 0.0251465 0.0944824 5.43921 0.0944824 11.9782C0.0944824 18.5056 5.52026 23.9313 12.0476 23.9313Z" fill="black" fill-opacity="0.85"/>
<path d="M9.16479 17.3923C8.4851 17.3923 8.07495 16.9821 8.07495 16.3142V7.43139C8.07495 6.73998 8.4851 6.34155 9.16479 6.34155H12.7156C14.7898 6.34155 16.1375 7.40795 16.1375 9.07202C16.1375 10.279 15.3992 11.2165 14.2039 11.5095V11.5798C15.8093 11.779 16.8054 12.8103 16.8054 14.2868C16.8054 16.1853 15.1883 17.3923 12.6922 17.3923H9.16479ZM9.96167 11.0407H11.7781C13.3953 11.0407 14.2742 10.4313 14.2742 9.3767C14.2742 8.38061 13.5476 7.77123 12.3289 7.77123H9.96167V11.0407ZM9.96167 15.9626H11.9187C13.9343 15.9626 14.8601 15.4118 14.8601 14.2048C14.8601 13.0446 14.0047 12.3767 12.5281 12.3767H9.96167V15.9626Z" fill="white"/>
</g>
<defs>
<clipPath id="clip0_2207_24851">
<rect width="23.9062" height="23.918" fill="white" transform="translate(0.0944824 0.0251465)"/>
</clipPath>
</defs>
</svg>
