<svg width="24" height="24" viewBox="0 0 24 24" fill="none" xmlns="http://www.w3.org/2000/svg">
<g clip-path="url(#clip0_2207_5236)">
<path d="M11.9741 23.9328C18.5132 23.9328 23.9272 18.5071 23.9272 11.9797C23.9272 5.44067 18.5015 0.0266113 11.9624 0.0266113C5.43506 0.0266113 0.0209961 5.44067 0.0209961 11.9797C0.0209961 18.5071 5.44678 23.9328 11.9741 23.9328ZM11.9741 21.9407C6.44288 21.9407 2.02491 17.511 2.02491 11.9797C2.02491 6.44849 6.43116 2.0188 11.9624 2.0188C17.4937 2.0188 21.9351 6.44849 21.9351 11.9797C21.9351 17.511 17.5054 21.9407 11.9741 21.9407Z" fill="black" fill-opacity="0.85"/>
<path d="M16.2749 16.2922C16.6968 16.2922 17.0483 15.9758 17.0483 15.3664V8.62817C17.0483 8.0188 16.6968 7.70239 16.2749 7.70239C16.0522 7.70239 15.853 7.7727 15.6421 7.90161L10.0522 11.1828C9.66552 11.4055 9.50146 11.6868 9.50146 11.9914C9.50146 12.3078 9.66552 12.5891 10.0522 12.8118L15.6421 16.093C15.853 16.2219 16.0522 16.2922 16.2749 16.2922ZM7.60302 16.4446H8.85694C9.32569 16.4446 9.58349 16.2102 9.58349 15.7297V8.24145C9.58349 7.74927 9.32569 7.51489 8.85694 7.51489H7.60302C7.13427 7.51489 6.87646 7.76099 6.87646 8.24145V15.7297C6.87646 16.2102 7.13427 16.4446 7.60302 16.4446Z" fill="black" fill-opacity="0.85"/>
</g>
<defs>
<clipPath id="clip0_2207_5236">
<rect width="23.9062" height="23.918" fill="white" transform="translate(0.0209961 0.0266113)"/>
</clipPath>
</defs>
</svg>
