<svg width="26" height="20" viewBox="0 0 26 20" fill="none" xmlns="http://www.w3.org/2000/svg">
<g clip-path="url(#clip0_2207_5284)">
<path d="M14.5042 18.7649C15.4182 18.7649 16.1917 18.0735 16.1917 16.761V2.37036C16.1917 1.05786 15.4182 0.354736 14.5042 0.354736C14.0237 0.354736 13.637 0.50708 13.1565 0.78833L1.21508 7.81958C0.383056 8.31177 0.0314941 8.88599 0.0314941 9.56567C0.0314941 10.2336 0.383056 10.8196 1.21508 11.3118L13.1565 18.3313C13.6253 18.6125 14.0237 18.7649 14.5042 18.7649ZM21.4065 19.1164H24.0667C25.0979 19.1164 25.637 18.5774 25.637 17.5461V1.5852C25.637 0.518799 25.0979 0.0266113 24.0667 0.0266113H21.4065C20.3753 0.0266113 19.8479 0.565673 19.8479 1.5852V17.5461C19.8479 18.5774 20.3753 19.1164 21.4065 19.1164Z" fill="black" fill-opacity="0.85"/>
</g>
<defs>
<clipPath id="clip0_2207_5284">
<rect width="25.6055" height="19.0898" fill="white" transform="translate(0.0314941 0.0266113)"/>
</clipPath>
</defs>
</svg>
