<svg width="19" height="20" viewBox="0 0 19 20" fill="none" xmlns="http://www.w3.org/2000/svg">
<g clip-path="url(#clip0_2207_5228)">
<path d="M1.01074 19.3977C1.57324 19.3977 2.01856 18.9758 2.01856 18.425V1.02271C2.01856 0.471923 1.57324 0.0383301 1.01074 0.0383301C0.45996 0.0383301 0.0146484 0.471923 0.0146484 1.02271V18.425C0.0146484 18.9758 0.45996 19.3977 1.01074 19.3977ZM16.4326 18.9289C17.3584 18.9289 18.1201 18.2258 18.1201 16.9133V2.5227C18.1201 1.2102 17.3584 0.50708 16.4326 0.50708C15.9521 0.50708 15.5654 0.659423 15.0849 0.940673L3.14356 7.97192C2.31153 8.46411 1.95996 9.05005 1.95996 9.71802C1.95996 10.386 2.31153 10.9719 3.14356 11.4641L15.0849 18.4954C15.5654 18.7766 15.9521 18.9289 16.4326 18.9289ZM15.9287 16.761C15.8466 16.761 15.7529 16.7258 15.6357 16.6555L4.50293 10.0461C4.33887 9.95239 4.24512 9.87036 4.24512 9.71802C4.24512 9.55395 4.32715 9.48364 4.50293 9.38989L15.6357 2.78052C15.7529 2.7102 15.8466 2.67505 15.9287 2.67505C16.0927 2.67505 16.2451 2.79223 16.2451 3.02661V16.4094C16.2451 16.6438 16.0927 16.761 15.9287 16.761Z" fill="black" fill-opacity="0.85"/>
</g>
<defs>
<clipPath id="clip0_2207_5228">
<rect width="18.1055" height="19.3711" fill="white" transform="translate(0.0146484 0.0266113)"/>
</clipPath>
</defs>
</svg>
