<svg width="24" height="24" viewBox="0 0 24 24" fill="none" xmlns="http://www.w3.org/2000/svg">
<g clip-path="url(#clip0_2207_10001)">
<path d="M12.0014 23.9446C18.5405 23.9446 23.9545 18.5305 23.9545 11.9914C23.9545 5.46411 18.5288 0.0383301 11.9897 0.0383301C5.4624 0.0383301 0.0483398 5.46411 0.0483398 11.9914C0.0483398 18.5305 5.47412 23.9446 12.0014 23.9446Z" fill="black" fill-opacity="0.85"/>
<path d="M8.40381 17.9328C7.07959 17.9328 6.41162 17.2883 6.41162 15.9993V9.47192C6.41162 8.17114 7.07959 7.53833 8.40381 7.53833H9.3999C9.42334 6.20239 10.5717 5.07739 12.0014 5.07739C13.4311 5.07739 14.5795 6.20239 14.603 7.53833H15.5991C16.9233 7.53833 17.5913 8.18286 17.5913 9.47192V15.9993C17.5913 17.2883 16.935 17.9328 15.7983 17.9328H8.40381ZM10.5717 7.53833H13.4311C13.396 6.71802 12.8569 6.19067 12.0014 6.19067C11.146 6.19067 10.6069 6.71802 10.5717 7.53833Z" fill="white"/>
</g>
<defs>
<clipPath id="clip0_2207_10001">
<rect width="23.9062" height="23.918" fill="white" transform="translate(0.0483398 0.0266113)"/>
</clipPath>
</defs>
</svg>
