<svg width="22" height="22" viewBox="0 0 22 22" fill="none" xmlns="http://www.w3.org/2000/svg">
<g clip-path="url(#clip0_2207_26056)">
<path d="M3.74488 21.6243H17.9597C20.4207 21.6243 21.6394 20.4055 21.6394 17.9914V3.68286C21.6394 1.2688 20.4207 0.0500488 17.9597 0.0500488H3.74488C1.29566 0.0500488 0.0651855 1.25708 0.0651855 3.68286V17.9914C0.0651855 20.4172 1.29566 21.6243 3.74488 21.6243ZM3.76831 19.7375C2.59644 19.7375 1.95191 19.1164 1.95191 17.8977V3.77661C1.95191 2.55786 2.59644 1.93677 3.76831 1.93677H17.9363C19.0964 1.93677 19.7527 2.55786 19.7527 3.77661V17.8977C19.7527 19.1164 19.0964 19.7375 17.9363 19.7375H3.76831Z" fill="black" fill-opacity="0.85"/>
<path d="M11.0457 17.7336C11.3738 17.7336 11.6199 17.4993 11.6199 17.1594V16.3743H11.7722C13.9519 16.3743 15.3347 15.1789 15.3347 13.2805C15.3347 11.9563 14.5496 10.9719 13.3308 10.6086C14.198 10.1868 14.8074 9.261 14.8074 8.2649C14.8074 6.64771 13.5769 5.47584 11.7722 5.47584H11.6199V4.58521C11.6199 4.25709 11.3738 4.02271 11.0457 4.02271C10.7293 4.02271 10.4832 4.25709 10.4832 4.58521V5.47584H8.72534C8.18627 5.47584 7.79956 5.85084 7.79956 6.40162V15.4602C7.79956 15.9993 8.17456 16.3743 8.72534 16.3743H10.4832V17.1594C10.4832 17.4993 10.7293 17.7336 11.0457 17.7336ZM9.31127 15.0032V11.4407H10.4832V14.9914L9.31127 15.0032ZM11.6199 14.9797V11.4524C13.0964 11.5344 13.8347 12.1321 13.8347 13.2219C13.8347 14.3235 13.0964 14.9211 11.6199 14.9797ZM9.31127 10.0813V6.83521H10.4832V10.0813H9.31127ZM11.6199 10.0227V6.85864C12.7097 6.95239 13.2957 7.47973 13.2957 8.38208C13.2957 9.29614 12.7332 9.87037 11.6199 10.0227Z" fill="black" fill-opacity="0.85"/>
</g>
<defs>
<clipPath id="clip0_2207_26056">
<rect width="21.5742" height="21.5977" fill="white" transform="translate(0.0651855 0.0266113)"/>
</clipPath>
</defs>
</svg>
