<svg width="16" height="33" viewBox="0 0 16 33" fill="none" xmlns="http://www.w3.org/2000/svg">
<g clip-path="url(#clip0_2207_12102)">
<path d="M7.63427 17.9797C11.8882 17.9797 15.2046 13.4563 15.2046 7.80786C15.2046 3.36645 12.1109 0.0266113 7.63427 0.0266113C3.15771 0.0266113 0.0756836 3.36645 0.0756836 7.80786C0.0756836 13.4563 3.38037 17.9797 7.63427 17.9797ZM5.99365 17.1711L5.44287 19.2805C5.32568 19.7493 5.57177 20.2532 6.16943 20.2532H9.11084C9.70849 20.2532 9.9663 19.7493 9.8374 19.2805L9.26318 17.1711H5.99365ZM7.49365 31.9133C7.95068 31.9133 8.32568 31.5266 8.32568 31.0696C8.32568 28.5032 10.6577 27.9055 10.6577 25.3039C10.6577 22.6321 8.40771 22.1282 8.43115 19.7961H6.76709C6.75537 22.9836 9.00537 23.4758 9.00537 25.3039C9.00537 27.1672 6.66162 27.4485 6.66162 31.0696C6.66162 31.5266 7.03662 31.9133 7.49365 31.9133Z" fill="black" fill-opacity="0.85"/>
</g>
<defs>
<clipPath id="clip0_2207_12102">
<rect width="15.1289" height="32.0508" fill="white" transform="translate(0.0756836 0.0266113)"/>
</clipPath>
</defs>
</svg>
