<svg width="23" height="33" viewBox="0 0 23 33" fill="none" xmlns="http://www.w3.org/2000/svg">
<g clip-path="url(#clip0_2207_12106)">
<path d="M6.36426 20.5227C9.92676 20.5227 12.6572 16.7493 12.6572 12.1204C12.6572 8.42895 10.0791 5.56958 6.36426 5.56958C2.64941 5.56958 0.0712891 8.42895 0.0712891 12.1204C0.0712891 16.7493 2.81348 20.5227 6.36426 20.5227ZM1.85254 12.1204C1.85254 9.47192 3.69238 7.33911 6.36426 7.33911C9.04785 7.33911 10.876 9.47192 10.876 12.1204C10.876 15.7766 8.93067 18.7414 6.36426 18.7414C3.79785 18.7414 1.85254 15.7766 1.85254 12.1204ZM4.6416 19.6907L4.14941 21.6125C4.02051 22.0344 4.2666 22.4797 4.80567 22.4797H7.46582C8.0166 22.4797 8.23926 22.0344 8.12207 21.6125L7.61817 19.6907H4.6416ZM6.02441 32.0774C6.44629 32.0774 6.78613 31.7375 6.78613 31.3391C6.78613 29.1008 8.75488 28.7961 8.75488 26.5696C8.75488 24.2141 6.84473 24.0969 6.86817 22.0344H5.3916C5.36817 24.8469 7.29004 24.9875 7.29004 26.5696C7.29004 28.1282 5.30957 28.1516 5.30957 31.3391C5.30957 31.7375 5.61426 32.0774 6.02441 32.0774Z" fill="black" fill-opacity="0.85"/>
<path d="M15.0361 17.9797C19.2901 17.9797 22.6182 13.4563 22.6182 7.80786C22.6182 3.36645 19.5127 0.0266113 15.0361 0.0266113C10.5596 0.0266113 7.47754 3.36645 7.47754 7.80786C7.47754 13.4563 10.794 17.9797 15.0361 17.9797Z" fill="white"/>
<path d="M15.0361 17.9797C19.2901 17.9797 22.6182 13.4563 22.6182 7.80786C22.6182 3.36645 19.5127 0.0266113 15.0361 0.0266113C10.5596 0.0266113 7.47754 3.36645 7.47754 7.80786C7.47754 13.4563 10.794 17.9797 15.0361 17.9797ZM15.0361 16.2219C11.7666 16.2219 9.24707 12.4016 9.24707 7.80786C9.24707 4.4563 11.6377 1.79614 15.0361 1.79614C18.4346 1.79614 20.8486 4.4563 20.8486 7.80786C20.8486 12.4016 18.294 16.2219 15.0361 16.2219ZM13.3955 17.1711L12.8447 19.2805C12.7041 19.7493 12.9736 20.2532 13.5713 20.2532H16.5127C17.1104 20.2532 17.3682 19.7493 17.2393 19.2805L16.6768 17.1711H13.3955ZM14.8955 31.9133C15.3525 31.9133 15.7393 31.5266 15.7393 31.0696C15.7393 28.5032 18.0713 27.9055 18.0713 25.3039C18.0713 22.6321 15.8096 22.1282 15.833 19.7961L14.169 19.8078C14.1572 22.9836 16.419 23.4758 16.419 25.3039C16.419 27.1672 14.0752 27.4485 14.0752 31.0696C14.0752 31.5266 14.4385 31.9133 14.8955 31.9133Z" fill="black" fill-opacity="0.85"/>
</g>
<defs>
<clipPath id="clip0_2207_12106">
<rect width="22.5469" height="32.0508" fill="white" transform="translate(0.0712891 0.0266113)"/>
</clipPath>
</defs>
</svg>
