<svg width="25" height="25" viewBox="0 0 25 25" fill="none" xmlns="http://www.w3.org/2000/svg">
<g clip-path="url(#clip0_2207_17877)">
<path d="M1.84904 22.3321C4.2631 24.7813 7.59122 24.6875 10.3451 22.1328L12.3724 20.2344C11.3529 20.5274 10.3217 20.3281 9.17326 19.1914L4.90763 14.9141C3.75919 13.7774 3.65372 12.8281 3.94669 11.8086L2.04826 13.836C-0.518148 16.6016 -0.565023 19.8946 1.84904 22.3321ZM10.2748 17.9961C11.4467 19.168 12.5834 19.2031 13.7787 17.9961L18.0443 13.7188C19.2631 12.5117 19.2396 11.3985 18.0678 10.2266L13.9545 6.11331C12.7826 4.94144 11.6693 4.918 10.4623 6.13675L6.18497 10.4024C4.98966 11.6094 5.0131 12.7344 6.18497 13.9063L10.2748 17.9961ZM8.86857 12.8516C8.42326 12.4063 8.42326 11.7266 8.86857 11.2813C9.31388 10.836 9.99357 10.8477 10.4389 11.293C10.849 11.7149 10.8607 12.4063 10.4389 12.8281C9.97013 13.2969 9.29044 13.2735 8.86857 12.8516ZM11.3529 10.3789C10.9076 9.93363 10.9076 9.24222 11.3295 8.80863C11.7748 8.36331 12.4545 8.36331 12.8998 8.80863C13.3334 9.24222 13.3451 9.92191 12.8881 10.3789C12.4662 10.7891 11.7631 10.7891 11.3529 10.3789ZM15.3724 12.8516C14.9389 13.2735 14.2474 13.2735 13.8021 12.8281C13.392 12.418 13.392 11.7149 13.8021 11.293C14.2592 10.836 14.9389 10.8477 15.3724 11.2813C15.8178 11.7266 15.8178 12.4063 15.3724 12.8516ZM11.3295 15.3125C10.9076 14.8906 10.8842 14.211 11.3529 13.7539C11.7748 13.3203 12.4662 13.3321 12.8881 13.7539C13.3334 14.1875 13.3451 14.8906 12.8998 15.3125C12.4428 15.7578 11.7748 15.7578 11.3295 15.3125ZM20.2943 12.3477L22.181 10.2969C24.7357 7.51956 24.806 4.23831 22.392 1.80081C19.9662 -0.648403 16.6498 -0.542934 13.8842 2.00003L11.8451 3.88675C12.8529 3.59378 13.9428 3.82816 15.0912 4.9766L19.3568 9.24222C20.5053 10.3789 20.5873 11.3281 20.2943 12.3477Z" fill="black" fill-opacity="0.85"/>
</g>
<defs>
<clipPath id="clip0_2207_17877">
<rect width="24.0715" height="24.0914" fill="white" transform="translate(0.079834 0.0266113)"/>
</clipPath>
</defs>
</svg>
