<svg width="24" height="24" viewBox="0 0 24 24" fill="none" xmlns="http://www.w3.org/2000/svg">
<g clip-path="url(#clip0_2207_10325)">
<path d="M12.0434 23.9328C18.5825 23.9328 23.9965 18.5071 23.9965 11.9797C23.9965 5.44067 18.5708 0.0266113 12.0317 0.0266113C5.50439 0.0266113 0.090332 5.44067 0.090332 11.9797C0.090332 18.5071 5.51611 23.9328 12.0434 23.9328ZM12.0434 21.9407C6.51221 21.9407 2.09424 17.511 2.09424 11.9797C2.09424 6.44849 6.50049 2.0188 12.0317 2.0188C17.563 2.0188 22.0044 6.44849 22.0044 11.9797C22.0044 17.511 17.5747 21.9407 12.0434 21.9407Z" fill="black" fill-opacity="0.85"/>
<path d="M12.0083 14.5813C13.438 14.5813 14.6098 13.4094 14.6098 11.9797C14.6098 10.5383 13.438 9.37817 12.0083 9.37817C10.5786 9.37817 9.40674 10.5383 9.40674 11.9797C9.40674 13.4094 10.5786 14.5813 12.0083 14.5813ZM12.0083 13.1047C11.3872 13.1047 10.8833 12.6008 10.8833 11.9797C10.8833 11.3469 11.3872 10.8547 12.0083 10.8547C12.6294 10.8547 13.1333 11.3469 13.1333 11.9797C13.1333 12.6008 12.6294 13.1047 12.0083 13.1047ZM11.4809 13.8782L10.145 12.5422L8.42236 14.2649C8.05908 14.6282 8.05908 15.2375 8.42236 15.6008C8.78564 15.9641 9.3833 15.9641 9.7583 15.6008L11.4809 13.8782ZM12.5942 10.1047L13.9301 11.4172L18.0786 7.2688C18.4536 6.90552 18.4536 6.30786 18.0786 5.93286C17.7153 5.56958 17.1176 5.56958 16.7544 5.93286L12.5942 10.1047Z" fill="black" fill-opacity="0.85"/>
</g>
<defs>
<clipPath id="clip0_2207_10325">
<rect width="23.9062" height="23.918" fill="white" transform="translate(0.090332 0.0266113)"/>
</clipPath>
</defs>
</svg>
