<svg width="24" height="24" viewBox="0 0 24 24" fill="none" xmlns="http://www.w3.org/2000/svg">
<g clip-path="url(#clip0_2207_3059)">
<path d="M9.36182 22.7727L10.5103 23.0539C11.5181 19.9368 11.2837 16.4211 9.52588 13.3977C7.77979 10.386 4.87354 8.40552 1.68604 7.72583L1.35791 8.85083C4.229 9.4602 6.85401 11.2532 8.45948 14.0188C10.0649 16.7961 10.2876 19.9602 9.36182 22.7727ZM4.5337 10.7258L5.61181 8.74536C5.75245 8.48755 5.67041 8.17114 5.4126 8.04223C5.14307 7.88989 4.81495 7.9602 4.67431 8.22973L3.60791 10.1985C3.45557 10.468 3.54932 10.7961 3.81885 10.925C4.07667 11.0774 4.38135 10.9954 4.5337 10.7258ZM6.67823 12.2844L8.24854 10.6789C8.4712 10.4563 8.45948 10.1282 8.24854 9.94067C8.0376 9.71802 7.70948 9.69458 7.48681 9.91723L5.91651 11.5227C5.69385 11.7336 5.70556 12.0852 5.92823 12.2727C6.13916 12.4836 6.45556 12.4954 6.67823 12.2844ZM8.34229 14.6868L10.2993 13.5852C10.5806 13.4328 10.6509 13.1047 10.4985 12.8586C10.3462 12.6008 10.0298 12.4954 9.77198 12.6477L7.81495 13.7375C7.54541 13.8899 7.46338 14.2297 7.62745 14.4758C7.77979 14.7336 8.07276 14.8274 8.34229 14.6868ZM9.2212 17.4055L11.4009 16.843C11.6821 16.761 11.8462 16.468 11.7759 16.1868C11.6939 15.8938 11.4243 15.718 11.1196 15.8L8.95166 16.3625C8.6587 16.4328 8.49463 16.7258 8.56495 17.0071C8.64698 17.3 8.92823 17.4758 9.2212 17.4055ZM9.38525 20.1594L11.6235 20.218C11.9282 20.2297 12.1626 19.9836 12.1626 19.6907C12.1743 19.4094 11.94 19.1633 11.647 19.1516L9.4087 19.093C9.104 19.0813 8.86963 19.3274 8.85791 19.6204C8.85791 19.9133 9.09229 20.1477 9.38525 20.1594ZM22.3696 16.2102L22.6861 15.0618C19.7915 14.4641 17.1665 12.6828 15.5611 9.91723C13.9673 7.12817 13.7329 3.95239 14.6587 1.15161L13.5103 0.893799C12.5025 3.99927 12.7485 7.49145 14.4946 10.5266C16.2407 13.5618 19.1587 15.5071 22.3696 16.2102ZM14.6587 4.86645C14.9634 4.87817 15.1861 4.65552 15.1861 4.35083C15.1978 4.05786 14.9634 3.81177 14.6704 3.80005L12.4321 3.72973C12.1275 3.74145 11.8931 3.97583 11.8931 4.28052C11.8814 4.57349 12.104 4.80786 12.4087 4.80786L14.6587 4.86645ZM14.94 7.51489C15.2329 7.43286 15.397 7.15161 15.3032 6.87036C15.2446 6.57739 14.9634 6.40161 14.6704 6.48364L12.4907 7.03442C12.1861 7.11645 12.0454 7.40942 12.1392 7.69067C12.1861 7.98364 12.4673 8.1477 12.7603 8.06567L14.94 7.51489ZM16.2056 10.1633C16.4751 10.011 16.5454 9.71802 16.4048 9.43677C16.2642 9.19067 15.9478 9.07349 15.69 9.23755L13.7212 10.3508C13.4634 10.4914 13.3931 10.8196 13.5454 11.0774C13.6626 11.3235 13.9907 11.4407 14.2485 11.2766L16.2056 10.1633ZM18.1392 12.2727C18.3618 12.0383 18.3501 11.7102 18.1275 11.4993C17.9282 11.3 17.5884 11.2883 17.3775 11.511L15.7954 13.1164C15.5845 13.3157 15.5962 13.6555 15.8189 13.8547C16.0181 14.0539 16.3462 14.0657 16.5571 13.8547L18.1392 12.2727ZM20.4478 13.7727C20.6001 13.5032 20.4946 13.1985 20.2368 13.0344C19.979 12.9055 19.6509 12.9875 19.522 13.2454L18.4439 15.2141C18.2915 15.4719 18.3853 15.8 18.6431 15.9407C18.8892 16.0813 19.2407 15.9993 19.3696 15.7297L20.4478 13.7727ZM12.0454 23.9328C18.5845 23.9328 23.9985 18.5071 23.9985 11.9797C23.9985 5.44067 18.5728 0.0266113 12.0337 0.0266113C5.50634 0.0266113 0.0922852 5.44067 0.0922852 11.9797C0.0922852 18.5071 5.51807 23.9328 12.0454 23.9328ZM12.0454 22.3391C6.38526 22.3391 1.68604 17.6399 1.68604 11.9797C1.68604 6.31958 6.37353 1.62036 12.0337 1.62036C17.6939 1.62036 22.4048 6.31958 22.4048 11.9797C22.4048 17.6399 17.7056 22.3391 12.0454 22.3391Z" fill="black" fill-opacity="0.85"/>
</g>
<defs>
<clipPath id="clip0_2207_3059">
<rect width="23.9062" height="23.918" fill="white" transform="translate(0.0922852 0.0266113)"/>
</clipPath>
</defs>
</svg>
