<svg width="25" height="24" viewBox="0 0 25 24" fill="none" xmlns="http://www.w3.org/2000/svg">
<g clip-path="url(#clip0_2207_3072)">
<path d="M12.0498 23.9328C18.5889 23.9328 24.0029 18.5071 24.0029 11.9797C24.0029 5.44067 18.5772 0.0266113 12.0381 0.0266113C5.51074 0.0266113 0.0966797 5.44067 0.0966797 11.9797C0.0966797 18.5071 5.52246 23.9328 12.0498 23.9328Z" fill="black" fill-opacity="0.85"/>
<path d="M5.58105 11.9797C5.58105 11.3704 5.67479 10.761 5.83886 10.1985C6.29589 10.3039 6.74121 10.4446 7.1748 10.6672L7.05761 10.8899C6.9287 11.1125 7.01073 11.3704 7.22167 11.4641C7.40917 11.5696 7.65526 11.511 7.77245 11.3L7.90136 11.0657C8.12401 11.1946 8.33495 11.3586 8.53417 11.5227L8.40526 11.6399C8.25292 11.8039 8.26464 12.0735 8.41698 12.2258C8.59276 12.3782 8.83886 12.3899 9.00292 12.2375L9.13183 12.1086C9.35449 12.3313 9.53026 12.5774 9.71776 12.8235L9.54198 12.9289C9.34276 13.0344 9.27245 13.3039 9.38964 13.4914C9.50683 13.7024 9.75292 13.761 9.94042 13.6555L10.1162 13.55C10.2569 13.8196 10.3623 14.0891 10.4678 14.3704L10.2217 14.4289C10.0107 14.4875 9.88183 14.7219 9.94042 14.9563C9.9873 15.1555 10.21 15.3078 10.4326 15.2493L10.6787 15.1789C10.7139 15.4719 10.749 15.7414 10.7608 16.011L10.5264 15.9993C10.2803 15.9993 10.1162 16.2102 10.1045 16.4328C10.1045 16.6438 10.2686 16.843 10.5029 16.8547L10.749 16.8664C10.6905 17.3352 10.6084 17.7922 10.4561 18.2493C7.6787 17.511 5.58105 14.9563 5.58105 11.9797ZM12.0615 18.4719C11.7686 18.4719 11.4873 18.4485 11.1944 18.4016C11.3584 17.9094 11.4522 17.3938 11.5225 16.8782L11.8155 16.8899C12.0498 16.8899 12.2256 16.7024 12.2256 16.4797C12.2256 16.2571 12.0615 16.0461 11.8272 16.0344H11.5459C11.5342 15.6946 11.499 15.3313 11.4405 14.9914L11.71 14.9211C11.9209 14.8625 12.0498 14.6282 12.0029 14.3938C11.9444 14.1828 11.7217 14.0422 11.499 14.1008L11.2412 14.1828C11.124 13.8313 10.9951 13.4914 10.8311 13.1633L11.1006 13.011C11.3115 12.8938 11.3701 12.6243 11.2529 12.4368C11.1358 12.2375 10.9014 12.1438 10.6905 12.2727L10.4092 12.425C10.1983 12.0969 9.95215 11.8157 9.69433 11.5344L9.92871 11.2883C10.0928 11.136 10.0928 10.8782 9.91698 10.7258C9.72948 10.5618 9.50683 10.55 9.34276 10.7141L9.08496 10.9485C8.83887 10.7493 8.56934 10.5383 8.27637 10.3743L8.40526 10.1516C8.52245 9.95239 8.44043 9.68286 8.24121 9.58911C8.04199 9.48364 7.79589 9.54223 7.6787 9.75317L7.5498 9.97583C7.08106 9.75317 6.60058 9.58911 6.09667 9.47192C7.08105 7.16333 9.40137 5.48755 12.0498 5.48755C12.3194 5.48755 12.6006 5.51099 12.8701 5.54614C12.7178 6.06177 12.6006 6.56567 12.5537 7.0813L12.3076 7.06958C12.0615 7.06958 11.874 7.2688 11.874 7.47973C11.874 7.71411 12.0381 7.91333 12.2725 7.92505H12.542C12.5537 8.25317 12.5772 8.59302 12.6475 8.92114L12.3076 9.00317C12.0615 9.06177 11.9561 9.29614 12.0147 9.50708C12.0733 9.72973 12.2842 9.87036 12.5069 9.80005L12.835 9.71802C12.9405 10.0813 13.0928 10.4328 13.2569 10.7844L12.9873 10.9368C12.7998 11.0305 12.7529 11.2883 12.8467 11.4993C12.9522 11.6868 13.1983 11.7688 13.4092 11.6516L13.667 11.4993C13.8779 11.8039 14.1006 12.0969 14.3584 12.3782L14.1592 12.5657C14.0069 12.7297 14.0303 12.9875 14.1944 13.1399C14.3584 13.2805 14.6162 13.3039 14.7686 13.1516L14.9678 12.9524C15.2373 13.175 15.5303 13.3977 15.835 13.5735L15.6944 13.8078C15.5889 14.0071 15.6592 14.2649 15.8584 14.3821C16.0576 14.4993 16.3155 14.4055 16.4209 14.2063L16.5615 13.9602C17.0303 14.1828 17.5225 14.3469 18.0498 14.4524C17.0537 16.7961 14.7217 18.4719 12.0615 18.4719ZM18.5537 11.9797C18.5537 12.5891 18.4717 13.175 18.2959 13.7258C17.8272 13.6438 17.3701 13.5032 16.9248 13.2922L17.042 13.0696C17.1592 12.8586 17.0889 12.6243 16.8779 12.5071C16.7022 12.3899 16.4326 12.4836 16.3272 12.6828L16.21 12.8938C15.9639 12.7532 15.7412 12.5774 15.5186 12.3899L15.6944 12.2141C15.8701 12.0383 15.835 11.7688 15.6944 11.6282C15.5069 11.4641 15.2842 11.4407 15.0967 11.6282L14.9209 11.8039C14.7217 11.5813 14.5459 11.3469 14.3701 11.1008L14.5459 10.9954C14.7451 10.8899 14.8037 10.6672 14.6983 10.4446C14.5928 10.2454 14.335 10.1633 14.1358 10.2805L13.9717 10.3743C13.8194 10.093 13.7139 9.81177 13.6084 9.53052L13.7842 9.47192C13.9951 9.41333 14.1358 9.20239 14.0655 8.97973C14.0069 8.74536 13.7959 8.61645 13.5615 8.67505L13.4092 8.7102C13.3623 8.45239 13.3389 8.19458 13.3155 7.94849L13.585 7.9602C13.8194 7.9602 13.9951 7.7727 13.9951 7.52661C14.0069 7.31567 13.8311 7.11645 13.6084 7.10473L13.3272 7.09302C13.3858 6.62427 13.4795 6.15552 13.6319 5.68677C16.4209 6.42505 18.5537 8.99145 18.5537 11.9797Z" fill="white"/>
</g>
<defs>
<clipPath id="clip0_2207_3072">
<rect width="23.9062" height="23.918" fill="white" transform="translate(0.0966797 0.0266113)"/>
</clipPath>
</defs>
</svg>
