<svg width="24" height="24" viewBox="0 0 24 24" fill="none" xmlns="http://www.w3.org/2000/svg">
<g clip-path="url(#clip0_2207_3063)">
<path d="M0 11.9812C0 17.5125 3.87891 22.2469 9.03516 23.5593C9.39844 22.575 9.63281 21.5086 9.70312 20.4422L9.21094 20.4187C8.90625 20.407 8.66016 20.1609 8.66016 19.8562C8.67188 19.5515 8.91797 19.3054 9.23438 19.3172L9.72656 19.3406C9.71484 18.7078 9.64453 18.0867 9.52734 17.4539L9.03516 17.5828C8.73047 17.6531 8.4375 17.4656 8.35547 17.1726C8.28516 16.8797 8.46094 16.575 8.75391 16.5047L9.24609 16.3758C9.05859 15.7664 8.82422 15.157 8.51953 14.5711L8.13281 14.782C7.85156 14.9226 7.54688 14.8289 7.39453 14.5593C7.21875 14.3015 7.3125 13.95 7.58203 13.7976L7.95703 13.5984C7.58203 13.0242 7.16016 12.4851 6.69141 12.0047L6.42188 12.2976C6.1875 12.5203 5.87109 12.5086 5.63672 12.2859C5.42578 12.0867 5.40234 11.7351 5.625 11.5125L5.89453 11.2312C5.44922 10.8328 4.96875 10.5047 4.46484 10.1883L4.20703 10.6922C4.05469 10.9734 3.73828 11.0554 3.46875 10.9031C3.1875 10.7625 3.09375 10.4226 3.24609 10.1414L3.50391 9.64917C2.55469 9.18042 1.51172 8.8523 0.480469 8.67652C0.164062 9.7312 0 10.8328 0 11.9812ZM11.9531 23.9343C16.9219 23.9343 21.2578 20.7937 23.0273 16.4226C21.9023 16.2234 20.8008 15.8484 19.7695 15.3562L19.5 15.8484C19.3711 16.1297 19.0078 16.2117 18.75 16.0711C18.4922 15.9187 18.3867 15.5789 18.5508 15.3093L18.8086 14.8406C18.1641 14.4539 17.5547 14.032 16.9805 13.5398L16.6055 13.9148C16.3945 14.1375 16.0547 14.1258 15.8438 13.9148C15.6094 13.7039 15.5977 13.3523 15.8203 13.1531L16.1953 12.7664C15.668 12.2273 15.1992 11.6179 14.7656 10.95L14.2266 11.2547C13.957 11.4304 13.6172 11.3015 13.5 11.0554C13.3477 10.7859 13.418 10.4461 13.6875 10.3054L14.2148 10.0007C13.8398 9.28589 13.5469 8.54761 13.3359 7.79761L12.6914 7.94996C12.3867 8.03199 12.0938 7.86792 12.0469 7.56324C11.9531 7.27027 12.0938 6.96558 12.4102 6.88355L13.0781 6.71949C12.9375 6.02808 12.8672 5.31324 12.8555 4.61011L12.3281 4.58667C12.0117 4.58667 11.7773 4.3523 11.8008 4.04761C11.8008 3.7312 12.0352 3.48511 12.3516 3.47339L12.8789 3.49683C12.9844 2.34839 13.1953 1.21167 13.6055 0.145264C13.0547 0.0749512 12.5039 0.0280762 11.9414 0.0280762C6.97266 0.0280762 2.67188 3.15699 0.878906 7.51636C1.99219 7.7273 3.08203 8.05542 4.10156 8.57105L4.35938 8.11402C4.5 7.83277 4.83984 7.76246 5.12109 7.92652C5.39062 8.05542 5.47266 8.38355 5.32031 8.65308L5.07422 9.09839C5.67188 9.46167 6.24609 9.86011 6.78516 10.3289L7.25391 9.84839C7.47656 9.62574 7.81641 9.64917 8.03906 9.88355C8.23828 10.0945 8.27344 10.4109 8.03906 10.6453L7.58203 11.1023C8.13281 11.6765 8.63672 12.2859 9.07031 12.9656L9.60938 12.6726C9.87891 12.5086 10.207 12.6258 10.3594 12.8836C10.5117 13.1414 10.4414 13.4812 10.1484 13.6336L9.62109 13.9265C9.98438 14.6179 10.2656 15.3328 10.4883 16.0476L10.9922 15.9187C11.3086 15.8367 11.5898 16.0125 11.6719 16.3172C11.7539 16.6101 11.5781 16.9148 11.2852 16.9969L10.7578 17.1375C10.8984 17.8758 10.9688 18.614 10.9805 19.3523L11.543 19.3758C11.8477 19.3875 12.0938 19.6336 12.082 19.9265C12.082 20.2312 11.8359 20.489 11.5195 20.4773L10.9453 20.4539C10.8633 21.6023 10.6289 22.7273 10.2305 23.8054C10.7812 23.8875 11.3672 23.9343 11.9531 23.9343ZM23.9062 11.9812C23.9062 6.42652 19.9805 1.68042 14.7891 0.379638C14.4375 1.37574 14.1914 2.45386 14.1211 3.52027L14.6602 3.5437C14.9648 3.55542 15.2109 3.81324 15.1992 4.11792C15.1992 4.43433 14.9648 4.65699 14.6484 4.64527L14.1094 4.62183C14.1211 5.20777 14.1797 5.80542 14.2969 6.39136L14.6602 6.30933C14.9648 6.2273 15.2344 6.40308 15.3164 6.70777C15.3867 7.00074 15.2461 7.2937 14.9414 7.37574L14.5664 7.45777C14.7656 8.1023 15.0117 8.73511 15.3281 9.3562L15.7148 9.14527C15.9844 8.9812 16.3125 9.09839 16.4531 9.3562C16.6055 9.64917 16.5234 9.95386 16.2539 10.1062L15.8672 10.3172C16.2422 10.8797 16.6406 11.3953 17.0742 11.864L17.4492 11.489C17.6719 11.2664 18.0234 11.2781 18.2344 11.4773C18.457 11.6883 18.4688 12.0398 18.2461 12.2859L17.8828 12.6492C18.3633 13.0711 18.8672 13.4461 19.418 13.7625L19.6641 13.282C19.793 13.0125 20.1328 12.9187 20.4023 13.0593C20.6719 13.2234 20.7773 13.5515 20.625 13.8328L20.3789 14.3015C21.3398 14.7703 22.3711 15.0867 23.4375 15.2508C23.7422 14.2078 23.9062 13.1179 23.9062 11.9812Z" fill="black" fill-opacity="0.85"/>
</g>
<defs>
<clipPath id="clip0_2207_3063">
<rect width="23.9062" height="23.918" fill="white" transform="translate(0 0.0280762)"/>
</clipPath>
</defs>
</svg>
