<svg width="28" height="27" viewBox="0 0 28 27" fill="none" xmlns="http://www.w3.org/2000/svg">
<g clip-path="url(#clip0_2207_10112)">
<path d="M0.00415039 10.4817C0.00415039 11.595 0.683838 12.2747 1.79712 12.2747H25.6448C26.7581 12.2747 27.4494 11.595 27.4494 10.4817V9.90747C27.4494 8.80591 26.7581 8.10279 25.6448 8.10279H1.79712C0.683838 8.10279 0.00415039 8.80591 0.00415039 9.90747V10.4817ZM7.45727 25.1419H19.9964C22.7034 25.1419 23.5471 23.5598 23.8869 21.8606L25.5159 13.8801H1.94946L3.56665 21.8606C3.90649 23.5598 4.75024 25.1419 7.45727 25.1419ZM8.21899 23.1262C7.77368 23.1966 7.44556 22.9622 7.37524 22.5637L6.36743 16.6692C6.29712 16.2708 6.55493 15.9544 7.00024 15.8723C7.44556 15.8137 7.7854 16.0364 7.85571 16.4348L8.85181 22.3294C8.9104 22.7278 8.67603 23.0442 8.21899 23.1262ZM11.9339 23.1145C11.4886 23.138 11.1604 22.8684 11.137 22.4583L10.7503 16.6341C10.7269 16.2239 11.0197 15.9309 11.4534 15.8958C11.9103 15.8606 12.2151 16.1419 12.2503 16.552L12.637 22.3762C12.6604 22.7864 12.3675 23.0911 11.9339 23.1145ZM15.5433 23.1145C15.0979 23.0911 14.8049 22.7864 14.8284 22.3762L15.2151 16.552C15.2503 16.1419 15.5549 15.8606 16.0119 15.8958C16.4455 15.9309 16.7386 16.2239 16.715 16.6341L16.3284 22.4583C16.305 22.8684 15.9769 23.138 15.5433 23.1145ZM19.2346 23.1262C18.7775 23.0442 18.5433 22.7278 18.6019 22.3294L19.5979 16.4348C19.6682 16.0364 20.0081 15.8137 20.4534 15.8723C20.8986 15.9544 21.1565 16.2942 21.0862 16.6926L20.0784 22.5637C20.0081 22.9622 19.6682 23.1966 19.2346 23.1262ZM3.77759 8.60669H6.12134L10.2464 1.44654C10.5627 0.884032 10.305 0.391844 9.87134 0.157469C9.44946 -0.0651869 8.88696 -0.0300307 8.57056 0.497313L3.77759 8.60669ZM21.3323 8.60669H23.6761L18.8831 0.497313C18.5784 -0.0183119 18.0159 -0.0534682 17.5823 0.157469C17.1604 0.391844 16.8909 0.884032 17.2073 1.44654L21.3323 8.60669Z" fill="black" fill-opacity="0.85"/>
</g>
<defs>
<clipPath id="clip0_2207_10112">
<rect width="27.4453" height="26.1689" fill="white" transform="translate(0.00415039 0.0280762)"/>
</clipPath>
</defs>
</svg>
