<svg width="24" height="24" viewBox="0 0 24 24" fill="none" xmlns="http://www.w3.org/2000/svg">
<g clip-path="url(#clip0_2207_3090)">
<path d="M11.9636 23.9343C18.5027 23.9343 23.9167 18.5086 23.9167 11.9812C23.9167 5.44214 18.491 0.0280762 11.9519 0.0280762C5.42456 0.0280762 0.010498 5.44214 0.010498 11.9812C0.010498 18.5086 5.43628 23.9343 11.9636 23.9343Z" fill="black" fill-opacity="0.85"/>
<path d="M5.49487 11.6883C5.5183 10.6101 5.97533 9.27416 6.6433 8.31323C7.11205 8.45385 7.40502 9.27416 7.41674 9.78979C6.69018 10.3523 6.05737 10.9734 5.49487 11.6883ZM8.1433 9.27416C8.0144 8.67651 7.67455 7.91479 7.11205 7.71557C7.60424 7.16479 8.16674 6.70776 8.79955 6.34448C8.65893 6.96557 8.61205 7.84448 8.74096 8.9226C8.53002 9.02807 8.34252 9.15698 8.1433 9.27416ZM9.46752 8.55932C9.33861 7.32885 9.47924 6.44995 9.60815 5.94604C10.241 5.71166 10.8972 5.5476 11.6003 5.51245C10.8503 6.05151 10.3933 6.8601 10.3933 7.7976C10.3933 7.93823 10.3933 8.06713 10.405 8.1726C10.0886 8.28979 9.76049 8.41869 9.46752 8.55932ZM11.2019 7.96166C11.1667 6.68432 11.8582 6.06323 13.1707 5.60619C14.8464 5.93432 16.3113 6.93041 17.2605 8.28979C16.1707 7.85619 14.9402 7.64526 13.698 7.64526C12.8425 7.64526 11.9988 7.73901 11.2019 7.96166ZM5.56518 12.9656C6.09252 12.157 6.7019 11.4539 7.40502 10.8211C7.29955 12.6726 6.8308 14.8172 7.42846 16.5633C6.46752 15.614 5.78783 14.3484 5.56518 12.9656ZM8.21361 10.1765C8.42455 10.0359 8.63549 9.89526 8.85815 9.76635C9.30346 12.2508 10.5105 15.4148 12.9246 18.4031C12.6082 18.45 12.2917 18.4617 11.9753 18.4617C11.1316 18.4617 10.3347 18.2625 9.63158 17.9226C6.97143 16.2937 8.22533 13.0476 8.21361 10.1765ZM9.56127 9.37963C9.91283 9.21557 10.2644 9.06323 10.616 8.94604C11.8113 11.6531 17.0378 12.6258 17.2722 15.6726C16.4285 16.8797 15.198 17.782 13.7683 18.2039C11.1902 15.0984 9.95971 11.7937 9.56127 9.37963ZM11.4011 8.71166C12.1394 8.52416 12.9128 8.43041 13.698 8.43041C15.2214 8.43041 16.5925 8.77026 17.9167 9.44995C18.2566 10.2351 18.4558 11.0906 18.4558 11.9812C18.4558 12.9422 18.2332 13.8328 17.8582 14.6531C16.78 11.7234 12.4207 10.7742 11.4011 8.71166Z" fill="white"/>
</g>
<defs>
<clipPath id="clip0_2207_3090">
<rect width="23.9062" height="23.918" fill="white" transform="translate(0.010498 0.0280762)"/>
</clipPath>
</defs>
</svg>
