<svg width="24" height="24" viewBox="0 0 24 24" fill="none" xmlns="http://www.w3.org/2000/svg">
<g clip-path="url(#clip0_2207_3077)">
<path d="M1.24854 12.8015C4.43604 8.45386 9.32276 5.71167 14.9711 5.71167C17.2446 5.71167 19.3774 6.14527 21.4047 7.01246L21.1469 5.50074C19.2368 4.79761 17.1157 4.41089 14.9711 4.41089C8.97119 4.41089 3.63916 7.38746 0.275879 11.9343L1.24854 12.8015ZM21.1704 17.5242L22.4125 17.1609C20.643 10.9617 10.4946 9.61402 10.4946 4.64527C10.4946 3.15699 11.2563 2.06714 12.6508 1.32886L11.8422 0.285888C10.2368 1.21167 9.19385 2.77027 9.19385 4.64527C9.19385 10.657 19.6235 12.2039 21.1704 17.5242ZM4.09619 20.2898L5.59619 20.4304C3.82666 17.0554 5.57276 12.1219 5.27979 7.87964C5.19776 6.75464 4.49463 4.7273 3.22901 4.42261L2.90088 5.68824C3.46338 5.75855 3.93213 7.19996 3.97901 7.98511C4.23682 11.7117 2.64307 16.5047 4.09619 20.2898ZM13.5415 23.0789L14.5844 22.2937C7.71729 13.7625 6.69776 4.45777 7.82276 1.92652L6.40479 2.12574C5.52588 5.77027 6.97901 14.8758 13.5415 23.0789ZM11.9594 23.9343C18.4985 23.9343 23.9125 18.5086 23.9125 11.9812C23.9125 5.44214 18.4868 0.0280762 11.9477 0.0280762C5.42041 0.0280762 0.00634766 5.44214 0.00634766 11.9812C0.00634766 18.5086 5.43213 23.9343 11.9594 23.9343ZM11.9594 22.3406C6.29932 22.3406 1.6001 17.6414 1.6001 11.9812C1.6001 6.32105 6.2876 1.62183 11.9477 1.62183C17.6079 1.62183 22.3188 6.32105 22.3188 11.9812C22.3188 17.6414 17.6196 22.3406 11.9594 22.3406Z" fill="black" fill-opacity="0.85"/>
</g>
<defs>
<clipPath id="clip0_2207_3077">
<rect width="23.9062" height="23.918" fill="white" transform="translate(0.00634766 0.0280762)"/>
</clipPath>
</defs>
</svg>
