<svg width="24" height="24" viewBox="0 0 24 24" fill="none" xmlns="http://www.w3.org/2000/svg">
<g clip-path="url(#clip0_2207_3081)">
<path d="M0.0244141 11.8289C1.05567 10.4109 2.35645 9.09839 3.77442 8.02027C3.7627 7.97339 3.7627 7.9148 3.75098 7.8562C3.70411 7.00074 3.15332 5.33667 2.15723 5.19605C0.879883 7.02417 0.0947265 9.21558 0.0126953 11.5711C0.0126953 11.6648 0.0126953 11.7469 0.0244141 11.8289ZM5.00489 7.15308C5.37989 6.90699 5.76661 6.67261 6.15332 6.46167C5.90723 4.34058 6.00098 2.61792 6.36426 1.43433C5.06348 2.13746 3.91504 3.06324 2.94239 4.1648C4.11425 4.4812 4.7705 5.9812 5.00489 7.15308ZM7.39551 5.84058C7.96973 5.57105 8.56738 5.33667 9.17675 5.13746C9.15331 4.89136 9.12989 4.65699 9.12989 4.41089C9.12989 2.53589 10.1377 0.977295 11.708 0.0280762C11.626 0.0280762 11.5674 0.0280762 11.4854 0.0280762C10.1729 0.0749512 8.8955 0.344482 7.72364 0.801514C7.40723 1.84449 7.17286 3.50855 7.39551 5.84058ZM10.501 4.73902C11.9658 4.36402 13.501 4.1648 15.0947 4.1648C17.4736 4.1648 19.8408 4.63355 21.9619 5.50074C20.2627 2.88746 17.5791 0.965576 14.4502 0.285888C11.9775 1.00073 10.4189 2.32496 10.4775 4.41089C10.4775 4.51636 10.4893 4.63355 10.501 4.73902ZM3.75098 9.76636C2.40332 10.9617 1.14942 12.3914 0.176757 13.95C0.633789 16.6219 2.01661 19.0242 3.97364 20.8054C2.55567 17.4773 3.5752 13.3289 3.75098 9.76636ZM5.13379 8.67652C5.16895 14.032 2.75489 20.1726 7.93458 23.1492C9.17675 23.6414 10.5479 23.9226 11.9658 23.9226C12.6221 23.9226 13.2666 23.8758 13.8877 23.7703C9.41113 18.3093 7.16114 12.4265 6.36426 7.87964C5.94239 8.12574 5.53223 8.38355 5.13379 8.67652ZM9.54004 6.4148C8.87208 6.64917 8.20411 6.9187 7.57129 7.23511C8.28614 11.6531 10.5361 17.7586 15.3525 23.4187C17.9072 22.657 20.1221 21.0398 21.6572 18.8953C21.4815 13.1297 11.6729 11.407 9.54004 6.4148ZM22.7119 17.1492C23.4854 15.5672 23.9189 13.8211 23.9189 11.9695C23.9189 10.3758 23.6025 8.84058 23.0049 7.45777C20.5088 6.15699 17.9307 5.51246 15.0947 5.51246C13.6299 5.51246 12.2119 5.68824 10.8643 6.02808C12.7275 9.88355 20.9775 11.6179 22.7119 17.1492Z" fill="black" fill-opacity="0.85"/>
</g>
<defs>
<clipPath id="clip0_2207_3081">
<rect width="23.9062" height="23.8945" fill="white" transform="translate(0.0126953 0.0280762)"/>
</clipPath>
</defs>
</svg>
