<svg width="24" height="24" viewBox="0 0 24 24" fill="none" xmlns="http://www.w3.org/2000/svg">
<g clip-path="url(#clip0_2207_3085)">
<path d="M11.9614 23.9343C18.5005 23.9343 23.9145 18.5086 23.9145 11.9812C23.9145 5.44214 18.4888 0.0280762 11.9497 0.0280762C5.42236 0.0280762 0.00830078 5.44214 0.00830078 11.9812C0.00830078 18.5086 5.43408 23.9343 11.9614 23.9343ZM11.9614 21.9422C6.43018 21.9422 2.01221 17.5125 2.01221 11.9812C2.01221 6.44996 6.41846 2.02027 11.9497 2.02027C17.481 2.02027 21.9224 6.44996 21.9224 11.9812C21.9224 17.5125 17.4927 21.9422 11.9614 21.9422Z" fill="black" fill-opacity="0.85"/>
<path d="M5.68018 11.7C6.21924 11.0086 6.84033 10.3992 7.54346 9.86011C7.53174 9.4148 7.25049 8.55933 6.79346 8.43042C6.13721 9.36792 5.70361 10.6453 5.68018 11.7ZM8.24658 9.3562C8.43408 9.23902 8.62158 9.12183 8.8208 9.01636C8.70361 7.97339 8.73877 7.11792 8.87939 6.52027C8.27002 6.87183 7.71924 7.31714 7.25049 7.84449C7.78955 8.0437 8.11768 8.78199 8.24658 9.3562ZM9.52392 8.6648C9.81689 8.52417 10.1333 8.40699 10.438 8.2898C10.4263 8.18433 10.4263 8.05542 10.4263 7.92652C10.4263 7.01246 10.8716 6.2273 11.5981 5.71167C11.0942 5.72339 10.2856 5.88746 9.66455 6.13355C9.53564 6.62574 9.40674 7.46949 9.52392 8.6648ZM11.2114 8.07886C11.9849 7.86792 12.8052 7.77417 13.6372 7.77417C14.8325 7.77417 16.0278 7.98511 17.0825 8.39527C16.1567 7.08277 14.7388 6.12183 13.1099 5.80542C11.8794 6.2273 11.1294 6.95386 11.2114 8.07886ZM5.75049 12.9304C5.96142 14.2781 6.61768 15.4969 7.55518 16.4226C6.95752 14.7234 7.42627 12.6492 7.53174 10.8562C6.85205 11.4656 6.25439 12.1453 5.75049 12.9304ZM8.31689 10.2351C8.32861 13.0125 7.10986 16.1531 9.67627 17.7351C10.356 18.0633 11.1411 18.2625 11.9614 18.2625C12.2661 18.2625 12.5708 18.2508 12.8755 18.2039C10.5435 15.3093 9.37158 12.239 8.93799 9.83667C8.72705 9.95386 8.51611 10.0945 8.31689 10.2351ZM9.61768 9.46167C10.0044 11.7937 11.1997 15.0047 13.6958 18.0164C15.0903 17.6062 16.2856 16.7273 17.0942 15.5554C16.8599 12.6023 11.7974 11.6648 10.6489 9.0398C10.2974 9.14527 9.95752 9.29761 9.61768 9.46167ZM11.3989 8.80542C12.395 10.8093 16.6138 11.7351 17.6685 14.5711C18.0317 13.7742 18.2427 12.907 18.2427 11.9812C18.2427 11.114 18.0552 10.282 17.7153 9.52027C16.438 8.86402 15.1138 8.53589 13.6372 8.53589C12.8755 8.53589 12.1255 8.62964 11.3989 8.80542Z" fill="black" fill-opacity="0.85"/>
</g>
<defs>
<clipPath id="clip0_2207_3085">
<rect width="23.9062" height="23.918" fill="white" transform="translate(0.00830078 0.0280762)"/>
</clipPath>
</defs>
</svg>
