<svg width="32" height="19" viewBox="0 0 32 19" fill="none" xmlns="http://www.w3.org/2000/svg">
<g clip-path="url(#clip0_2207_11998)">
<path d="M0.0146484 2.4187C0.0146484 3.76636 1.05762 4.79761 2.39356 4.79761H28.6669C30.0029 4.79761 31.0458 3.76636 31.0458 2.4187C31.0458 1.04761 30.0029 0.0280762 28.6669 0.0280762H2.39356C1.05762 0.0280762 0.0146484 1.04761 0.0146484 2.4187ZM1.87793 2.4187C1.87793 2.09058 2.12403 1.8562 2.47559 1.8562H28.5849C28.9365 1.8562 29.1826 2.09058 29.1826 2.4187C29.1826 2.73511 28.9365 2.96949 28.5849 2.96949H2.47559C2.12403 2.96949 1.87793 2.73511 1.87793 2.4187ZM8.76856 15.8367H22.3037C26.7099 15.8367 28.9951 13.6804 28.9951 9.48511V3.9187H27.1084V9.48511C27.1084 12.4265 25.4677 13.95 22.3037 13.95H8.76856C5.59277 13.95 3.95215 12.4265 3.95215 9.48511V3.9187H2.06543V9.48511C2.06543 13.6804 4.35059 15.8367 8.76856 15.8367ZM5.49903 18.45C5.97949 18.6375 6.53027 18.3679 6.70606 17.8875L7.70215 15.1336L5.93262 14.489L4.93653 17.2429C4.76074 17.7234 5.01856 18.2859 5.49903 18.45ZM25.5732 18.45C26.0537 18.2859 26.2998 17.7234 26.124 17.2429L25.1279 14.489L23.3584 15.1336L24.3544 17.8875C24.5302 18.3679 25.081 18.6375 25.5732 18.45Z" fill="black" fill-opacity="0.85"/>
</g>
<defs>
<clipPath id="clip0_2207_11998">
<rect width="31.0312" height="18.6211" fill="white" transform="translate(0.0146484 0.0280762)"/>
</clipPath>
</defs>
</svg>
