<svg width="35" height="16" viewBox="0 0 35 16" fill="none" xmlns="http://www.w3.org/2000/svg">
<g clip-path="url(#clip0_2207_22118)">
<path d="M6.26489 15.8836H24.6868C26.6907 15.8836 28.3782 15.6961 29.5735 14.5008C30.7688 13.3054 30.9446 11.6414 30.9446 9.63746V6.27417C30.9446 4.27027 30.7688 2.6062 29.5735 1.41089C28.3782 0.215576 26.6907 0.0280762 24.6868 0.0280762H6.24146C4.27271 0.0280762 2.58521 0.215576 1.38989 1.41089C0.19458 2.6062 0.0187988 4.28199 0.0187988 6.23902V9.63746C0.0187988 11.6414 0.19458 13.3054 1.38989 14.5008C2.58521 15.6961 4.27271 15.8836 6.26489 15.8836ZM5.94849 13.9969C4.74146 13.9969 3.47583 13.8328 2.76099 13.1297C2.05786 12.4148 1.90552 11.1609 1.90552 9.95386V5.9812C1.90552 4.75074 2.05786 3.49683 2.76099 2.78199C3.47583 2.06714 4.75318 1.9148 5.98364 1.9148H25.0149C26.2219 1.9148 27.4876 2.07886 28.1907 2.78199C28.9055 3.49683 29.0579 4.73902 29.0579 5.94605V9.95386C29.0579 11.1609 28.9055 12.4148 28.1907 13.1297C27.4876 13.8328 26.2219 13.9969 25.0149 13.9969H5.94849ZM32.5383 10.9851C33.4641 10.9265 34.7063 9.74292 34.7063 7.94996C34.7063 6.1687 33.4641 4.98511 32.5383 4.92652V10.9851Z" fill="black" fill-opacity="0.85"/>
</g>
<defs>
<clipPath id="clip0_2207_22118">
<rect width="34.6875" height="15.8555" fill="white" transform="translate(0.0187988 0.0280762)"/>
</clipPath>
</defs>
</svg>
