<svg width="28" height="22" viewBox="0 0 28 22" fill="none" xmlns="http://www.w3.org/2000/svg">
<g clip-path="url(#clip0_2207_17392)">
<path d="M3.71533 21.6023H23.9887C26.4497 21.6023 27.6684 20.3953 27.6684 17.9812V6.64917C27.6684 4.23511 26.4497 3.02808 23.9887 3.02808H22.3715V1.45777C22.3715 0.567138 21.8559 0.0280762 20.9536 0.0280762H17.4965C16.6059 0.0280762 16.0903 0.567138 16.0903 1.45777V3.02808H11.6254V1.45777C11.6254 0.567138 11.1098 0.0280762 10.2075 0.0280762H6.75048C5.84814 0.0280762 5.34423 0.567138 5.34423 1.45777V3.02808H3.71533C1.26611 3.02808 0.0356445 4.23511 0.0356445 6.64917V17.9812C0.0356445 20.3953 1.26611 21.6023 3.71533 21.6023ZM1.92236 17.8758V6.75464C1.92236 5.53589 2.56689 4.9148 3.73876 4.9148H23.9653C25.1254 4.9148 25.7817 5.53589 25.7817 6.75464V17.8758C25.7817 19.0945 25.1254 19.7156 23.9653 19.7156H3.73876C2.56689 19.7156 1.92236 19.0945 1.92236 17.8758Z" fill="black" fill-opacity="0.85"/>
</g>
<defs>
<clipPath id="clip0_2207_17392">
<rect width="27.6328" height="21.5977" fill="white" transform="translate(0.0356445 0.0280762)"/>
</clipPath>
</defs>
</svg>
