<svg width="28" height="22" viewBox="0 0 28 22" fill="none" xmlns="http://www.w3.org/2000/svg">
<g clip-path="url(#clip0_2207_17396)">
<path d="M3.71753 21.6023H23.9909C26.4519 21.6023 27.6706 20.3953 27.6706 17.9812V6.64917C27.6706 4.23511 26.4519 3.02808 23.9909 3.02808H22.3737V1.45777C22.3737 0.567138 21.8581 0.0280762 20.9558 0.0280762H17.4987C16.6081 0.0280762 16.0925 0.567138 16.0925 1.45777V3.02808H11.6276V1.45777C11.6276 0.567138 11.112 0.0280762 10.2097 0.0280762H6.75268C5.85034 0.0280762 5.34643 0.567138 5.34643 1.45777V3.02808H3.71753C1.26831 3.02808 0.0378418 4.23511 0.0378418 6.64917V17.9812C0.0378418 20.3953 1.26831 21.6023 3.71753 21.6023Z" fill="black" fill-opacity="0.85"/>
</g>
<defs>
<clipPath id="clip0_2207_17396">
<rect width="27.6328" height="21.5977" fill="white" transform="translate(0.0378418 0.0280762)"/>
</clipPath>
</defs>
</svg>
