<svg width="35" height="20" viewBox="0 0 35 20" fill="none" xmlns="http://www.w3.org/2000/svg">
<g clip-path="url(#clip0_2207_22122)">
<path d="M6.26928 17.488H24.6912C26.6951 17.488 28.3826 17.3005 29.5779 16.1052C30.7732 14.9099 30.949 13.2458 30.949 11.2419V7.87867C30.949 5.87476 30.7732 4.2107 29.5779 3.01539C28.3826 1.82007 26.6951 1.63257 24.6912 1.63257H6.24585C4.2771 1.63257 2.5896 1.82007 1.39428 3.01539C0.198974 4.2107 0.0231934 5.88648 0.0231934 7.84351V11.2419C0.0231934 13.2458 0.198974 14.9099 1.39428 16.1052C2.5896 17.3005 4.2771 17.488 6.26928 17.488ZM5.95288 15.6013C4.74585 15.6013 3.48022 15.4372 2.76538 14.7341C2.06225 14.0193 1.90991 12.7654 1.90991 11.5583V7.5857C1.90991 6.35523 2.06225 5.10132 2.76538 4.38648C3.48022 3.67164 4.75757 3.51929 5.98803 3.51929H25.0193C26.2263 3.51929 27.492 3.68336 28.1951 4.38648C28.9099 5.10132 29.0623 6.34351 29.0623 7.55054V11.5583C29.0623 12.7654 28.9099 14.0193 28.1951 14.7341C27.492 15.4372 26.2263 15.6013 25.0193 15.6013H5.95288ZM32.5427 12.5896C33.4685 12.531 34.7107 11.3474 34.7107 9.55445C34.7107 7.7732 33.4685 6.58961 32.5427 6.53101V12.5896Z" fill="black" fill-opacity="0.85"/>
<path d="M5.33179 14.242H25.6404C26.449 14.242 26.9177 14.1248 27.2459 13.7967C27.5623 13.4686 27.6912 12.9998 27.6912 12.1912V6.92956C27.6912 6.12097 27.5623 5.65222 27.2459 5.32409C26.9177 4.99597 26.4373 4.87878 25.6404 4.87878H5.36695C4.5232 4.87878 4.04273 4.99597 3.72632 5.32409C3.3982 5.65222 3.28101 6.13268 3.28101 6.953V12.1912C3.28101 12.9998 3.3982 13.4686 3.72632 13.7967C4.05445 14.1248 4.53492 14.242 5.33179 14.242Z" fill="black" fill-opacity="0.85"/>
<path d="M9.01147 10.4452C9.01147 11.617 9.97241 12.5545 11.156 12.5545H12.8201L11.5076 16.0936C10.6052 18.5311 13.6638 20.2069 15.2693 18.203L21.7029 10.117C22.0427 9.69513 22.242 9.20295 22.242 8.6756C22.242 7.50373 21.281 6.56623 20.0974 6.56623H18.4334L19.7459 3.02717C20.6482 0.589663 17.5896 -1.08612 15.9841 0.917788L9.55053 9.00373C9.21069 9.4256 9.01147 9.91779 9.01147 10.4452Z" fill="white"/>
<path d="M10.6052 10.4452C10.6052 10.7381 10.8396 10.9491 11.1443 10.9491H15.117L12.9959 16.6444C12.7263 17.3944 13.5232 17.8045 14.0037 17.2069L20.4255 9.13265C20.5427 8.98031 20.6248 8.82797 20.6248 8.67562C20.6248 8.38265 20.3904 8.17172 20.0857 8.17172H16.113L18.2341 2.4764C18.5037 1.7264 17.7068 1.31625 17.2263 1.9139L10.8044 9.9764C10.6755 10.1405 10.6052 10.2928 10.6052 10.4452Z" fill="black" fill-opacity="0.85"/>
</g>
<defs>
<clipPath id="clip0_2207_22122">
<rect width="34.6875" height="19.0646" fill="white" transform="translate(0.0231934 0.0280762)"/>
</clipPath>
</defs>
</svg>
