<svg width="35" height="16" viewBox="0 0 35 16" fill="none" xmlns="http://www.w3.org/2000/svg">
<g clip-path="url(#clip0_2207_22103)">
<path d="M6.27966 15.8836H24.7016C26.7055 15.8836 28.393 15.6961 29.5883 14.5008C30.7836 13.3054 30.9594 11.6414 30.9594 9.63746V6.27417C30.9594 4.27027 30.7836 2.6062 29.5883 1.41089C28.393 0.215576 26.7055 0.0280762 24.7016 0.0280762H6.25623C4.28748 0.0280762 2.59998 0.215576 1.40466 1.41089C0.20935 2.6062 0.0335693 4.28199 0.0335693 6.23902V9.63746C0.0335693 11.6414 0.20935 13.3054 1.40466 14.5008C2.59998 15.6961 4.28748 15.8836 6.27966 15.8836ZM5.96326 13.9969C4.75623 13.9969 3.4906 13.8328 2.77576 13.1297C2.07263 12.4148 1.92029 11.1609 1.92029 9.95386V5.9812C1.92029 4.75074 2.07263 3.49683 2.77576 2.78199C3.4906 2.06714 4.76795 1.9148 5.99841 1.9148H25.0297C26.2367 1.9148 27.5024 2.07886 28.2055 2.78199C28.9203 3.49683 29.0727 4.73902 29.0727 5.94605V9.95386C29.0727 11.1609 28.9203 12.4148 28.2055 13.1297C27.5024 13.8328 26.2367 13.9969 25.0297 13.9969H5.96326ZM32.5531 10.9851C33.4789 10.9265 34.7211 9.74292 34.7211 7.94996C34.7211 6.1687 33.4789 4.98511 32.5531 4.92652V10.9851Z" fill="black" fill-opacity="0.85"/>
<path d="M5.34216 12.6375H19.5453C20.3539 12.6375 20.8227 12.5203 21.1508 12.1922C21.4789 11.864 21.5961 11.3953 21.5961 10.5867V5.32496C21.5961 4.51636 21.4789 4.04761 21.1508 3.71949C20.8227 3.39136 20.3422 3.27417 19.5453 3.27417H5.37732C4.53357 3.27417 4.0531 3.39136 3.73669 3.71949C3.40857 4.04761 3.29138 4.52808 3.29138 5.34839V10.5867C3.29138 11.3953 3.40857 11.864 3.73669 12.1922C4.06482 12.5203 4.54529 12.6375 5.34216 12.6375Z" fill="black" fill-opacity="0.85"/>
</g>
<defs>
<clipPath id="clip0_2207_22103">
<rect width="34.6875" height="15.8555" fill="white" transform="translate(0.0335693 0.0280762)"/>
</clipPath>
</defs>
</svg>
