<svg width="35" height="16" viewBox="0 0 35 16" fill="none" xmlns="http://www.w3.org/2000/svg">
<g clip-path="url(#clip0_2207_22113)">
<path d="M6.27551 15.8836H24.6974C26.7013 15.8836 28.3888 15.6961 29.5841 14.5008C30.7794 13.3054 30.9552 11.6414 30.9552 9.63746V6.27417C30.9552 4.27027 30.7794 2.6062 29.5841 1.41089C28.3888 0.215576 26.7013 0.0280762 24.6974 0.0280762H6.25208C4.28333 0.0280762 2.59583 0.215576 1.40051 1.41089C0.2052 2.6062 0.0294189 4.28199 0.0294189 6.23902V9.63746C0.0294189 11.6414 0.2052 13.3054 1.40051 14.5008C2.59583 15.6961 4.28333 15.8836 6.27551 15.8836ZM5.95911 13.9969C4.75208 13.9969 3.48645 13.8328 2.77161 13.1297C2.06848 12.4148 1.91614 11.1609 1.91614 9.95386V5.9812C1.91614 4.75074 2.06848 3.49683 2.77161 2.78199C3.48645 2.06714 4.7638 1.9148 5.99426 1.9148H25.0255C26.2325 1.9148 27.4982 2.07886 28.2013 2.78199C28.9161 3.49683 29.0685 4.73902 29.0685 5.94605V9.95386C29.0685 11.1609 28.9161 12.4148 28.2013 13.1297C27.4982 13.8328 26.2325 13.9969 25.0255 13.9969H5.95911ZM32.5489 10.9851C33.4747 10.9265 34.7169 9.74292 34.7169 7.94996C34.7169 6.1687 33.4747 4.98511 32.5489 4.92652V10.9851Z" fill="black" fill-opacity="0.85"/>
<path d="M5.33801 12.6375H7.61145C8.42004 12.6375 8.8888 12.5203 9.2052 12.1922C9.53333 11.864 9.66223 11.3953 9.66223 10.5867V5.32496C9.66223 4.51636 9.53333 4.04761 9.21692 3.71949C8.8888 3.39136 8.40833 3.27417 7.61145 3.27417H5.37317C4.52942 3.27417 4.04895 3.39136 3.73254 3.71949C3.40442 4.04761 3.28723 4.52808 3.28723 5.34839V10.5867C3.28723 11.3953 3.40442 11.864 3.73254 12.1922C4.06067 12.5203 4.54114 12.6375 5.33801 12.6375Z" fill="black" fill-opacity="0.85"/>
</g>
<defs>
<clipPath id="clip0_2207_22113">
<rect width="34.6875" height="15.8555" fill="white" transform="translate(0.0294189 0.0280762)"/>
</clipPath>
</defs>
</svg>
