<svg width="24" height="28" viewBox="0 0 24 28" fill="none" xmlns="http://www.w3.org/2000/svg">
<g clip-path="url(#clip0_2207_5028)">
<path d="M13.3604 6.02209L15.2237 6.70178L17.1221 1.4635C17.3331 0.889283 17.0987 0.350221 16.5479 0.139283C15.9971 -0.0599355 15.4815 0.197877 15.2706 0.783814L13.3604 6.02209ZM13.5596 2.17834C6.7042 0.772096 1.62998 5.37756 0.12998 9.54944C-0.116113 10.2057 0.212012 10.7565 0.692481 10.944C1.0792 11.0846 1.41904 10.9206 1.72373 10.6745C2.81357 9.86584 3.8331 9.526 5.04013 9.97131C5.84873 10.2643 6.31748 10.8151 6.59873 11.3659C6.77451 11.7057 7.11435 11.7174 7.2081 11.3424C8.2042 7.44006 10.5948 4.17053 13.5596 2.17834ZM15.9151 1.75647C12.5753 4.01819 9.65732 7.97913 8.64951 12.151C8.55576 12.5495 8.86045 12.819 9.3292 12.6432C10.2667 12.2565 11.169 12.1276 12.0245 12.444C12.8799 12.7487 13.4893 13.4284 13.9698 14.3307C14.2042 14.7526 14.5909 14.7643 14.7901 14.3893C16.7003 10.5573 17.0167 5.62366 15.9151 1.75647ZM17.5088 3.60803C18.4932 7.02991 18.212 11.0612 16.4893 14.7291C16.3253 15.069 16.5713 15.2916 16.9346 15.1276C17.5206 14.8815 18.2237 14.7643 19.0206 15.0573C20.2393 15.5026 20.8018 16.4284 21.1182 17.7291C21.1885 18.1159 21.3643 18.4674 21.7276 18.5963C22.2198 18.7721 22.8292 18.5612 23.0635 17.8932C24.587 13.7331 23.6729 6.94788 17.5088 3.60803ZM5.90732 26.5065C5.71982 27.0221 5.97763 27.5846 6.49326 27.7721C6.99717 27.9479 7.5831 27.6666 7.75888 27.1745L13.1729 12.3268L11.3213 11.6471L5.90732 26.5065Z" fill="black" fill-opacity="0.85"/>
</g>
<defs>
<clipPath id="clip0_2207_5028">
<rect width="23.663" height="27.7966" fill="white" transform="translate(0.0461426 0.0280762)"/>
</clipPath>
</defs>
</svg>
