<svg width="40" height="19" viewBox="0 0 40 19" fill="none" xmlns="http://www.w3.org/2000/svg">
<g clip-path="url(#clip0_2207_14471)">
<path d="M8.28172 11.5358C9.85203 12.2038 11.6567 11.4421 12.3364 9.89521L14.5981 4.7624C15.2778 3.21552 14.5278 1.37568 12.9575 0.695987C11.3872 0.0397367 9.59422 0.766299 8.89109 2.34833L6.64109 7.48114C5.9614 9.05146 6.7114 10.8561 8.28172 11.5358ZM9.41843 10.6218C8.35203 10.6218 7.50828 9.77802 7.50828 8.6999C7.50828 7.63349 8.36375 6.77802 9.41843 6.77802C10.4965 6.77802 11.3403 7.63349 11.3403 8.6999C11.3403 9.77802 10.4965 10.6218 9.41843 10.6218ZM9.41843 9.8249C10.0747 9.8249 10.5434 9.33271 10.5434 8.6999C10.5434 8.09052 10.0747 7.5749 9.41843 7.5749C8.78562 7.5749 8.30515 8.09052 8.30515 8.6999C8.30515 9.33271 8.78562 9.8249 9.41843 9.8249ZM19.063 8.25458C18.4887 6.33271 17.0591 5.41864 15.8403 4.3874C15.7817 4.66864 15.6997 4.92646 15.5825 5.19599L13.3208 10.3288C12.395 12.4264 9.9575 13.4108 7.84812 12.5319C5.79734 11.6178 4.80125 9.29755 5.5864 7.24677C4.56687 8.47724 4.3325 10.3522 5.09422 12.4733C6.50047 16.3874 10.063 17.1257 13.5669 15.7546L15.6762 14.9225C18.5356 13.7858 19.9067 11.1257 19.063 8.25458ZM31.8012 11.5358C33.3598 10.8561 34.1215 9.05146 33.4419 7.48114L31.1919 2.34833C30.4887 0.766299 28.6958 0.0397367 27.1255 0.695987C25.5551 1.37568 24.8051 3.21552 25.4848 4.7624L27.7465 9.89521C28.4262 11.4421 30.2309 12.2038 31.8012 11.5358ZM30.6645 10.6218C29.5864 10.6218 28.7426 9.77802 28.7426 8.6999C28.7426 7.63349 29.5864 6.77802 30.6645 6.77802C31.7192 6.77802 32.5747 7.63349 32.5747 8.6999C32.5747 9.77802 31.7309 10.6218 30.6645 10.6218ZM30.6645 9.8249C31.2973 9.8249 31.7778 9.33271 31.7778 8.6999C31.7778 8.09052 31.2973 7.5749 30.6645 7.5749C30.0083 7.5749 29.5278 8.09052 29.5278 8.6999C29.5278 9.33271 30.0083 9.8249 30.6645 9.8249ZM21.0083 8.25458C20.1762 11.1257 21.5356 13.7858 24.4067 14.9225L26.5161 15.7546C30.02 17.1257 33.5825 16.3874 34.977 12.4733C35.7505 10.3522 35.5161 8.47724 34.4965 7.24677C35.2817 9.29755 34.2856 11.6178 32.2231 12.5319C30.1255 13.4108 27.688 12.4264 26.7622 10.3288L24.5005 5.19599C24.3833 4.92646 24.3012 4.66864 24.2426 4.3874C23.0122 5.41864 21.5942 6.33271 21.0083 8.25458Z" fill="black" fill-opacity="0.85"/>
<path d="M4.08642 12.8367C3.55908 11.407 3.44189 10.0007 3.73486 8.61792C1.64892 9.19214 0.090332 11.114 0.090332 13.3875C0.090332 16.1297 2.29345 18.3445 5.01221 18.3445C6.25439 18.3445 7.37939 17.8875 8.24658 17.1258C6.35986 16.5047 4.87158 15.0398 4.08642 12.8367ZM35.9965 12.8367C35.1997 15.0398 33.7231 16.5047 31.8364 17.1258C32.7036 17.8875 33.8286 18.3445 35.0708 18.3445C37.7895 18.3445 39.9926 16.1297 39.9926 13.3875C39.9926 11.114 38.4341 9.19214 36.3481 8.61792C36.6411 10.0007 36.5122 11.407 35.9965 12.8367Z" fill="black" fill-opacity="0.85"/>
<path d="M9.41845 10.6219C8.35205 10.6219 7.5083 9.77808 7.5083 8.69996C7.5083 7.63355 8.36377 6.77808 9.41845 6.77808C10.4965 6.77808 11.3403 7.63355 11.3403 8.69996C11.3403 9.77808 10.4965 10.6219 9.41845 10.6219ZM9.41845 9.82496C10.0747 9.82496 10.5434 9.33277 10.5434 8.69996C10.5434 8.09058 10.0747 7.57496 9.41845 7.57496C8.78564 7.57496 8.30517 8.09058 8.30517 8.69996C8.30517 9.33277 8.78564 9.82496 9.41845 9.82496ZM30.6645 10.6219C29.5864 10.6219 28.7426 9.77808 28.7426 8.69996C28.7426 7.63355 29.5864 6.77808 30.6645 6.77808C31.7192 6.77808 32.5747 7.63355 32.5747 8.69996C32.5747 9.77808 31.7309 10.6219 30.6645 10.6219ZM30.6645 9.82496C31.2973 9.82496 31.7778 9.33277 31.7778 8.69996C31.7778 8.09058 31.2973 7.57496 30.6645 7.57496C30.0083 7.57496 29.5278 8.09058 29.5278 8.69996C29.5278 9.33277 30.0083 9.82496 30.6645 9.82496Z" fill="black" fill-opacity="0.85"/>
</g>
<defs>
<clipPath id="clip0_2207_14471">
<rect width="39.9023" height="18.3164" fill="white" transform="translate(0.090332 0.0280762)"/>
</clipPath>
</defs>
</svg>
