<svg width="17" height="23" viewBox="0 0 17 23" fill="none" xmlns="http://www.w3.org/2000/svg">
<g clip-path="url(#clip0_2207_14428)">
<path d="M5.67187 0.0280762C1.98047 0.0280762 0.0820312 2.74683 0.0820312 7.05933V9.7898C0.0820312 12.8601 0.855469 14.3133 3.03515 15.5086L8.01562 18.2508C9.30469 18.9422 9.90234 19.1765 10.8047 19.1765C12.6679 19.1765 14.1914 17.6414 14.1914 15.7898C14.1914 14.5242 13.5234 13.3523 12.082 12.5906L2.17969 7.42261C2.17969 3.98902 3.30469 2.13746 5.78906 2.13746C9.94922 2.13746 13.5468 7.02417 13.9687 12.5906C14.8476 13.4578 15.3281 14.5593 15.3281 15.7898C15.3281 17.8406 13.9218 19.5867 12.0468 20.1375C12.1406 21.4148 12.9258 22.6804 13.875 22.6804C15.1054 22.6804 16.125 18.4851 16.125 14.6883C16.125 6.61402 11.4023 0.0280762 5.67187 0.0280762ZM10.8867 17.9109C9.72656 17.9109 8.76562 16.95 8.76562 15.7781C8.76562 14.6062 9.72656 13.6453 10.8867 13.6453C12.0703 13.6453 13.0312 14.6062 13.0312 15.7781C13.0312 16.95 12.0703 17.9109 10.8867 17.9109ZM10.8867 17.0789C11.6132 17.0789 12.1992 16.4929 12.1992 15.7781C12.1992 15.075 11.6132 14.4773 10.8867 14.4773C10.1836 14.4773 9.59765 15.075 9.59765 15.7781C9.59765 16.4929 10.1836 17.0789 10.8867 17.0789Z" fill="black" fill-opacity="0.85"/>
<path d="M10.8867 17.9109C9.72657 17.9109 8.76562 16.95 8.76562 15.7781C8.76562 14.6062 9.72657 13.6453 10.8867 13.6453C12.0703 13.6453 13.0312 14.6062 13.0312 15.7781C13.0312 16.95 12.0703 17.9109 10.8867 17.9109ZM10.8867 17.0789C11.6132 17.0789 12.1992 16.4929 12.1992 15.7781C12.1992 15.075 11.6132 14.4773 10.8867 14.4773C10.1836 14.4773 9.59766 15.075 9.59766 15.7781C9.59766 16.4929 10.1836 17.0789 10.8867 17.0789Z" fill="black" fill-opacity="0.85"/>
</g>
<defs>
<clipPath id="clip0_2207_14428">
<rect width="16.043" height="22.6758" fill="white" transform="translate(0.0820312 0.0280762)"/>
</clipPath>
</defs>
</svg>
