<svg width="29" height="23" viewBox="0 0 29 23" fill="none" xmlns="http://www.w3.org/2000/svg">
<g clip-path="url(#clip0_2207_14413)">
<path d="M8.57959 10.3992C11.4506 10.3992 13.771 8.0437 13.771 5.21949C13.771 2.36011 11.3921 0.0397949 8.57959 0.0397949C8.07568 0.0397949 7.61865 0.0866699 7.22022 0.215576V3.14527C7.61865 2.8523 8.0874 2.68824 8.57959 2.68824C9.92725 2.68824 11.0756 3.84839 11.0756 5.21949C11.0756 6.56714 9.95068 7.68042 8.57959 7.68042C7.18506 7.68042 6.09522 6.6023 6.09522 5.21949V0.64917C4.44287 1.58667 3.3999 3.28589 3.3999 5.21949C3.3999 8.1023 5.7085 10.3992 8.57959 10.3992ZM8.57959 6.59058C9.31787 6.59058 9.93896 5.94605 9.93896 5.21949C9.93896 4.51636 9.29443 3.86011 8.57959 3.86011C7.86475 3.86011 7.23193 4.49292 7.23193 5.21949C7.23193 5.95777 7.84131 6.59058 8.57959 6.59058ZM6.65772 9.25074V11.9929C6.65772 12.6843 7.11475 13.0359 7.80615 13.0359H9.35303C10.0678 13.0359 10.5131 12.6843 10.5131 11.9929V9.25074H6.65772ZM7.70068 22.8211H9.47022V11.8289H7.70068V22.8211ZM20.2163 10.3992C23.0874 10.3992 25.4077 8.0437 25.4077 5.21949C25.4077 2.36011 23.0288 0.0397949 20.2163 0.0397949C19.7124 0.0397949 19.2553 0.0866699 18.8569 0.215576V3.14527C19.2553 2.8523 19.7241 2.68824 20.2163 2.68824C21.5639 2.68824 22.7124 3.84839 22.7124 5.21949C22.7124 6.56714 21.5874 7.68042 20.2163 7.68042C18.8217 7.68042 17.7319 6.6023 17.7319 5.21949V0.64917C16.0795 1.58667 15.0366 3.28589 15.0366 5.21949C15.0366 8.1023 17.3452 10.3992 20.2163 10.3992ZM20.2163 6.59058C20.9545 6.59058 21.5756 5.94605 21.5756 5.21949C21.5756 4.51636 20.9311 3.86011 20.2163 3.86011C19.5014 3.86011 18.8686 4.49292 18.8686 5.21949C18.8686 5.95777 19.478 6.59058 20.2163 6.59058ZM22.1499 9.25074H18.2944V11.9929C18.2944 12.6843 18.728 13.0359 19.4428 13.0359H21.0014C21.6928 13.0359 22.1499 12.6843 22.1499 11.9929V9.25074ZM21.1069 22.8211V11.8289H19.3374V22.8211H21.1069Z" fill="black" fill-opacity="0.85"/>
<path d="M2.49756 5.2312C2.49756 3.18042 3.51709 1.37574 5.06396 0.27417C2.21631 0.321045 0.0483398 2.45386 0.0483398 5.2312C0.0483398 7.98511 2.18115 10.1297 5.06396 10.1883C3.51709 9.08667 2.49756 7.28199 2.49756 5.2312ZM26.31 5.2312C26.31 7.28199 25.2905 9.08667 23.7436 10.1883C26.5795 10.1297 28.7592 8.00855 28.7592 5.2312C28.7592 2.4773 26.6147 0.321045 23.7436 0.27417C25.2905 1.37574 26.31 3.18042 26.31 5.2312Z" fill="black" fill-opacity="0.85"/>
</g>
<defs>
<clipPath id="clip0_2207_14413">
<rect width="28.7109" height="22.793" fill="white" transform="translate(0.0483398 0.0280762)"/>
</clipPath>
</defs>
</svg>
