<svg width="15" height="25" viewBox="0 0 15 25" fill="none" xmlns="http://www.w3.org/2000/svg">
<g clip-path="url(#clip0_2207_14446)">
<path d="M9.53589 0.0280762C4.34448 0.0280762 0.0671387 5.99292 0.0671387 13.3172C0.0671387 16.7625 0.981201 20.5711 2.1062 20.5711C2.97339 20.5711 3.67652 19.4226 3.77026 18.2625C2.05933 17.7586 0.793701 16.1765 0.793701 14.325C0.793701 13.2 1.2273 12.2039 2.01245 11.407C2.39917 6.36792 5.6687 1.92652 9.43042 1.92652C11.6804 1.92652 12.7116 3.61402 12.7116 6.7312L3.73511 11.4187C2.42261 12.0984 1.82495 13.1765 1.82495 14.325C1.82495 16.0008 3.20776 17.3836 4.88355 17.3836C5.70386 17.3836 6.25464 17.1726 7.4148 16.5515L11.9499 14.0672C13.9187 12.9773 14.6218 11.6531 14.6218 8.87574V6.40308C14.6218 2.50074 12.8991 0.0280762 9.53589 0.0280762ZM4.81323 16.2469C3.73511 16.2469 2.86792 15.3679 2.86792 14.3133C2.86792 13.2469 3.73511 12.3797 4.81323 12.3797C5.86792 12.3797 6.73511 13.2469 6.73511 14.3133C6.73511 15.3679 5.86792 16.2469 4.81323 16.2469ZM4.81323 15.4969C5.44605 15.4969 5.98511 14.9578 5.98511 14.3133C5.98511 13.6687 5.44605 13.1297 4.81323 13.1297C4.15698 13.1297 3.62964 13.6687 3.62964 14.3133C3.62964 14.9578 4.15698 15.4969 4.81323 15.4969ZM1.62573 24.4265H2.70386V20.1258H1.62573V24.4265Z" fill="black" fill-opacity="0.85"/>
<path d="M4.81323 16.2468C3.73511 16.2468 2.86792 15.3678 2.86792 14.3132C2.86792 13.2468 3.73511 12.3796 4.81323 12.3796C5.86792 12.3796 6.73511 13.2468 6.73511 14.3132C6.73511 15.3678 5.86792 16.2468 4.81323 16.2468ZM4.81323 15.4968C5.44605 15.4968 5.98511 14.9577 5.98511 14.3132C5.98511 13.6686 5.44605 13.1296 4.81323 13.1296C4.15698 13.1296 3.62964 13.6686 3.62964 14.3132C3.62964 14.9577 4.15698 15.4968 4.81323 15.4968Z" fill="black" fill-opacity="0.85"/>
</g>
<defs>
<clipPath id="clip0_2207_14446">
<rect width="14.5547" height="24.4102" fill="white" transform="translate(0.0671387 0.0280762)"/>
</clipPath>
</defs>
</svg>
