<svg width="24" height="24" viewBox="0 0 24 24" fill="none" xmlns="http://www.w3.org/2000/svg">
<g clip-path="url(#clip0_2207_14437)">
<path d="M7.26342 23.3015H16.2634C21.0095 23.3015 23.4821 20.8406 23.4821 16.1179V7.21167C23.4821 2.48902 21.0095 0.0280762 16.2634 0.0280762H7.26342C2.54077 0.0280762 0.079834 2.48902 0.079834 7.21167V16.1179C0.079834 20.8406 2.54077 23.3015 7.26342 23.3015ZM11.7751 17.3836C8.6228 17.3836 6.06811 14.8406 6.06811 11.6648C6.06811 9.5437 7.21655 7.6687 9.03295 6.64917V11.6648C9.03295 13.1883 10.24 14.3836 11.7751 14.3836C13.2868 14.3836 14.529 13.1648 14.529 11.6648C14.529 10.1648 13.2634 8.88746 11.7751 8.88746C11.2478 8.88746 10.7087 9.06324 10.2634 9.39136V6.15699C10.7087 6.01636 11.2243 5.96949 11.7751 5.96949C14.8806 5.96949 17.4939 8.51246 17.4939 11.6648C17.4939 14.782 14.9392 17.3836 11.7751 17.3836ZM11.7751 13.1765C10.9665 13.1765 10.2868 12.4969 10.2868 11.6648C10.2868 10.8562 10.99 10.1765 11.7751 10.1765C12.5603 10.1765 13.2751 10.8914 13.2751 11.6648C13.2751 12.4617 12.5837 13.1765 11.7751 13.1765Z" fill="black" fill-opacity="0.85"/>
</g>
<defs>
<clipPath id="clip0_2207_14437">
<rect width="23.4023" height="23.2852" fill="white" transform="translate(0.079834 0.0280762)"/>
</clipPath>
</defs>
</svg>
