<svg width="38" height="20" viewBox="0 0 38 20" fill="none" xmlns="http://www.w3.org/2000/svg">
<g clip-path="url(#clip0_2207_14523)">
<path d="M13.7613 13.8914C15.1676 13.8914 16.691 13.0476 17.0309 11.2547L17.5934 8.16089C18.191 4.94996 15.7652 2.54761 11.8395 1.19996C9.53089 0.391357 7.25745 0.0280762 4.9723 0.0280762C4.28089 0.0280762 4.04651 0.27417 4.04651 0.731201C4.04651 1.83277 4.62073 2.6648 5.73401 2.82886C7.55042 3.09839 8.92151 3.47339 10.3746 4.15308C10.9606 4.42261 11.1715 4.82105 11.0777 5.40699L10.3746 9.63746C9.9762 12.0281 11.5934 13.8914 13.7613 13.8914ZM13.7613 12.239C12.7535 12.239 11.9684 11.4539 11.9684 10.4578C11.9684 9.44996 12.7535 8.65308 13.7613 8.65308C14.7574 8.65308 15.5543 9.44996 15.5543 10.4578C15.5543 11.4656 14.7574 12.239 13.7613 12.239ZM13.7613 11.4773C14.3473 11.4773 14.7926 11.032 14.7926 10.4578C14.7926 9.87183 14.3473 9.4148 13.7613 9.4148C13.1754 9.4148 12.7301 9.87183 12.7301 10.4578C12.7301 11.032 13.1754 11.4773 13.7613 11.4773ZM13.7613 14.9226C10.8785 14.9226 8.8512 12.4265 9.35511 9.46167L9.77698 6.93042C7.48011 7.51636 5.81604 8.50074 5.1012 9.98902C5.7223 12.7195 6.70667 15.239 8.08948 17.6648C8.76917 18.0047 9.48401 18.1219 10.4449 18.1219C14.1129 18.1219 17.3473 16.3406 17.5699 12.7664C16.8199 14.1023 15.402 14.9226 13.7613 14.9226ZM23.3121 13.8914C25.4801 13.8914 27.0856 12.0281 26.6988 9.63746L25.9957 5.40699C25.8902 4.82105 26.1129 4.42261 26.6871 4.15308C28.152 3.47339 29.5231 3.09839 31.3395 2.82886C32.4527 2.6648 33.0152 1.83277 33.0152 0.731201C33.0152 0.27417 32.7926 0.0280762 32.1012 0.0280762C29.816 0.0280762 27.5426 0.391357 25.2223 1.19996C21.3082 2.54761 18.8824 4.94996 19.4801 8.16089L20.0426 11.2547C20.3707 13.0476 21.9059 13.8914 23.3121 13.8914ZM23.3121 12.239C22.3043 12.239 21.5192 11.4656 21.5192 10.4578C21.5192 9.44996 22.3043 8.65308 23.3121 8.65308C24.3082 8.65308 25.1051 9.44996 25.1051 10.4578C25.1051 11.4539 24.3082 12.239 23.3121 12.239ZM23.3121 11.4773C23.8981 11.4773 24.3434 11.032 24.3434 10.4578C24.3434 9.87183 23.8981 9.4148 23.3121 9.4148C22.7262 9.4148 22.2809 9.87183 22.2809 10.4578C22.2809 11.032 22.7262 11.4773 23.3121 11.4773ZM23.3121 14.9226C21.6598 14.9226 20.2418 14.1023 19.5035 12.7664C19.7262 16.3406 22.9606 18.1219 26.6285 18.1219C27.5895 18.1219 28.3043 18.0047 28.9723 17.6648C30.3668 15.239 31.3395 12.7195 31.9606 9.98902C31.2574 8.50074 29.5934 7.51636 27.2965 6.93042L27.7184 9.46167C28.2223 12.4265 26.1832 14.9226 23.3121 14.9226Z" fill="black" fill-opacity="0.85"/>
<path d="M0.050415 14.489C0.050415 17.2195 1.86682 19.0593 4.59729 19.0593C5.68713 19.0593 6.65979 18.6961 7.25744 18.2742C5.76917 15.7312 4.71448 13.0125 4.05823 10.1062C2.03089 10.3054 0.050415 11.9695 0.050415 14.489ZM37.0231 14.489C37.0231 11.9695 35.0426 10.3054 33.0152 10.1062C32.3473 13.0125 31.3043 15.7312 29.8043 18.2742C30.402 18.6961 31.3863 19.0593 32.4762 19.0593C35.2066 19.0593 37.0231 17.2195 37.0231 14.489Z" fill="black" fill-opacity="0.85"/>
<path d="M13.7613 12.239C12.7535 12.239 11.9684 11.4539 11.9684 10.4578C11.9684 9.44996 12.7535 8.65308 13.7613 8.65308C14.7574 8.65308 15.5543 9.44996 15.5543 10.4578C15.5543 11.4656 14.7574 12.239 13.7613 12.239ZM13.7613 11.4773C14.3473 11.4773 14.7926 11.032 14.7926 10.4578C14.7926 9.87183 14.3473 9.4148 13.7613 9.4148C13.1754 9.4148 12.7301 9.87183 12.7301 10.4578C12.7301 11.032 13.1754 11.4773 13.7613 11.4773ZM23.3121 12.239C22.3043 12.239 21.5192 11.4656 21.5192 10.4578C21.5192 9.44996 22.3043 8.65308 23.3121 8.65308C24.3082 8.65308 25.1051 9.44996 25.1051 10.4578C25.1051 11.4539 24.3082 12.239 23.3121 12.239ZM23.3121 11.4773C23.8981 11.4773 24.3434 11.032 24.3434 10.4578C24.3434 9.87183 23.8981 9.4148 23.3121 9.4148C22.7262 9.4148 22.2809 9.87183 22.2809 10.4578C22.2809 11.032 22.7262 11.4773 23.3121 11.4773Z" fill="black" fill-opacity="0.85"/>
</g>
<defs>
<clipPath id="clip0_2207_14523">
<rect width="36.9727" height="19.043" fill="white" transform="translate(0.050415 0.0280762)"/>
</clipPath>
</defs>
</svg>
