<svg width="17" height="24" viewBox="0 0 17 24" fill="none" xmlns="http://www.w3.org/2000/svg">
<g clip-path="url(#clip0_2207_14466)">
<path d="M10.5985 18.2508C12.2274 18.2508 13.5399 16.9383 13.5399 15.3093C13.5399 13.6687 12.2274 12.3445 10.5985 12.3445H1.03596C0.426587 12.3445 0.0281497 12.7781 0.0750246 13.3875L0.461743 17.4422C0.520337 17.9461 0.895337 18.2508 1.37581 18.2508H10.5985ZM10.5985 16.4109C11.2196 16.4109 11.7118 15.9304 11.7118 15.3093C11.7118 14.6883 11.2196 14.1843 10.5985 14.1843C9.96565 14.1843 9.47346 14.6883 9.47346 15.3093C9.47346 15.9304 9.96565 16.4109 10.5985 16.4109ZM3.83674 23.7937L3.42659 19.8562H2.31331L2.72346 23.7937H3.83674ZM10.5985 17.2429C9.50862 17.2429 8.64143 16.3875 8.64143 15.3093C8.64143 14.2312 9.50862 13.3523 10.5985 13.3523C11.6766 13.3523 12.5438 14.2312 12.5438 15.3093C12.5438 16.3875 11.6766 17.2429 10.5985 17.2429ZM5.70003 0.0280762C2.03206 0.0280762 0.157056 2.51246 0.602368 6.96558L1.95003 20.3719C2.06721 21.5086 4.00081 21.5086 3.8719 20.2195L2.50081 7.04761C2.16096 3.87183 3.40315 1.98511 5.82893 1.98511C9.76643 1.98511 14.2196 6.30933 14.2196 11.7117C14.2196 12.1453 14.1844 12.7078 14.1024 13.2234C14.4657 13.8445 14.6649 14.5476 14.6649 15.3093C14.6649 17.3015 13.2352 18.9656 11.3485 19.3172C11.2547 19.9265 11.2313 20.3015 11.2313 20.7C11.2313 22.0828 11.6766 22.6922 12.2743 22.6922C14.7118 22.6687 16.1883 16.3758 16.1883 11.8054C16.1883 4.89136 11.1375 0.0280762 5.70003 0.0280762Z" fill="black" fill-opacity="0.85"/>
<path d="M10.5984 16.4109C11.2195 16.4109 11.7117 15.9304 11.7117 15.3093C11.7117 14.6883 11.2195 14.1843 10.5984 14.1843C9.96558 14.1843 9.47339 14.6883 9.47339 15.3093C9.47339 15.9304 9.96558 16.4109 10.5984 16.4109ZM10.5984 17.2429C9.50855 17.2429 8.64136 16.3875 8.64136 15.3093C8.64136 14.2312 9.50855 13.3523 10.5984 13.3523C11.6765 13.3523 12.5437 14.2312 12.5437 15.3093C12.5437 16.3875 11.6765 17.2429 10.5984 17.2429Z" fill="black" fill-opacity="0.85"/>
</g>
<defs>
<clipPath id="clip0_2207_14466">
<rect width="16.117" height="23.7773" fill="white" transform="translate(0.0712891 0.0280762)"/>
</clipPath>
</defs>
</svg>
