<svg width="20" height="21" viewBox="0 0 20 21" fill="none" xmlns="http://www.w3.org/2000/svg">
<g clip-path="url(#clip0_2207_14529)">
<path d="M15.0097 15.1453C16.5449 15.1453 18.2089 14.2312 18.5722 12.2625L19.1933 8.89917C19.8378 5.39527 17.1894 2.78199 12.9238 1.30542C10.3925 0.426514 7.91992 0.0280762 5.42383 0.0280762C4.67383 0.0280762 4.41602 0.297607 4.41602 0.789795C4.41602 1.99683 5.04883 2.89917 6.25586 3.07496C8.23633 3.37964 9.73633 3.77808 11.3183 4.52808C11.9511 4.82105 12.1972 5.25464 12.08 5.89917L11.3183 10.5047C10.8847 13.1179 12.6425 15.1453 15.0097 15.1453ZM15.0097 13.3523C13.9199 13.3523 13.0527 12.4851 13.0527 11.3953C13.0527 10.3054 13.9199 9.43824 15.0097 9.43824C16.0996 9.43824 16.9668 10.2937 16.9668 11.3953C16.9668 12.4969 16.0996 13.3523 15.0097 13.3523ZM15.0097 12.5203C15.6425 12.5203 16.1347 12.0281 16.1347 11.3953C16.1347 10.7742 15.6425 10.2703 15.0097 10.2703C14.3769 10.2703 13.8847 10.7742 13.8847 11.3953C13.8847 12.0281 14.3769 12.5203 15.0097 12.5203ZM15.0097 16.282C11.8691 16.282 9.6543 13.5515 10.205 10.3172L10.6621 7.55152C8.1543 8.19605 6.33789 9.26246 5.57617 10.8914C6.24414 13.8679 7.32226 16.6219 8.83398 19.2586C9.57226 19.6336 10.3457 19.7742 11.3886 19.7742C15.3964 19.7742 18.9238 17.8289 19.1699 13.9265C18.3496 15.3679 16.8027 16.282 15.0097 16.282Z" fill="black" fill-opacity="0.85"/>
<path d="M0.0566406 15.7898C0.0566406 18.7781 2.03711 20.782 5.01367 20.782C6.19726 20.782 7.27539 20.3953 7.91992 19.9383C6.30273 17.1609 5.1543 14.1843 4.42773 11.0203C2.21289 11.2429 0.0566406 13.0593 0.0566406 15.7898Z" fill="black" fill-opacity="0.85"/>
<path d="M15.0097 13.3523C13.9199 13.3523 13.0527 12.4851 13.0527 11.3953C13.0527 10.3054 13.9199 9.43823 15.0097 9.43823C16.0996 9.43823 16.9668 10.2937 16.9668 11.3953C16.9668 12.4969 16.0996 13.3523 15.0097 13.3523ZM15.0097 12.5203C15.6425 12.5203 16.1347 12.0281 16.1347 11.3953C16.1347 10.7742 15.6425 10.2703 15.0097 10.2703C14.3769 10.2703 13.8847 10.7742 13.8847 11.3953C13.8847 12.0281 14.3769 12.5203 15.0097 12.5203Z" fill="black" fill-opacity="0.85"/>
</g>
<defs>
<clipPath id="clip0_2207_14529">
<rect width="19.233" height="20.7773" fill="white" transform="translate(0.0566406 0.0280762)"/>
</clipPath>
</defs>
</svg>
