<svg width="21" height="20" viewBox="0 0 21 20" fill="none" xmlns="http://www.w3.org/2000/svg">
<g clip-path="url(#clip0_2207_14477)">
<path d="M8.6995 12.0867C10.3401 12.7898 12.2385 11.9812 12.9534 10.364L15.3206 4.97339C16.0354 3.34449 15.2503 1.42261 13.6096 0.707765C11.9573 0.00463971 10.0589 0.778077 9.33231 2.44214L6.97684 7.83277C6.25028 9.47339 7.04716 11.3719 8.6995 12.0867ZM9.8831 11.1258C8.7581 11.1258 7.87919 10.2351 7.87919 9.11011C7.87919 7.99683 8.76981 7.09449 9.8831 7.09449C11.0198 7.09449 11.9104 7.99683 11.9104 9.11011C11.9104 10.2351 11.0198 11.1258 9.8831 11.1258ZM9.8831 10.2937C10.5745 10.2937 11.0667 9.76636 11.0667 9.11011C11.0667 8.46558 10.5745 7.92652 9.8831 7.92652C9.21513 7.92652 8.71122 8.46558 8.71122 9.11011C8.71122 9.76636 9.21513 10.2937 9.8831 10.2937ZM20.0198 8.64136C19.4104 6.62574 17.9104 5.6648 16.6331 4.58667C16.5628 4.87964 16.4807 5.14917 16.3518 5.43042L13.9846 10.8211C13.012 13.0359 10.4573 14.0554 8.24247 13.1297C6.0745 12.1804 5.03153 9.74292 5.86356 7.58667C4.78544 8.87574 4.53934 10.8445 5.34794 13.0711C6.81278 17.1843 10.5628 17.9578 14.2424 16.5164L16.4573 15.6375C19.469 14.4539 20.8987 11.6648 20.0198 8.64136Z" fill="black" fill-opacity="0.85"/>
<path d="M4.28149 13.4578C3.73071 11.9578 3.6018 10.4812 3.91821 9.02808C1.71509 9.62574 0.0861816 11.6414 0.0861816 14.0437C0.0861816 16.9148 2.40649 19.2351 5.25415 19.2351C6.55493 19.2351 7.75024 18.7664 8.65259 17.9578C6.67212 17.3133 5.11352 15.7781 4.28149 13.4578Z" fill="black" fill-opacity="0.85"/>
<path d="M9.88306 11.1258C8.75806 11.1258 7.87915 10.2351 7.87915 9.1101C7.87915 7.99682 8.76977 7.09448 9.88306 7.09448C11.0198 7.09448 11.9104 7.99682 11.9104 9.1101C11.9104 10.2351 11.0198 11.1258 9.88306 11.1258ZM9.88306 10.2937C10.5745 10.2937 11.0667 9.76635 11.0667 9.1101C11.0667 8.46557 10.5745 7.92651 9.88306 7.92651C9.21509 7.92651 8.71118 8.46557 8.71118 9.1101C8.71118 9.76635 9.21509 10.2937 9.88306 10.2937Z" fill="black" fill-opacity="0.85"/>
</g>
<defs>
<clipPath id="clip0_2207_14477">
<rect width="20.1898" height="19.207" fill="white" transform="translate(0.0861816 0.0280762)"/>
</clipPath>
</defs>
</svg>
