<svg width="38" height="20" viewBox="0 0 38 20" fill="none" xmlns="http://www.w3.org/2000/svg">
<g clip-path="url(#clip0_2207_14545)">
<path d="M0.113281 8.92261H8.96094C9.17188 8.43042 9.65235 8.11402 10.2383 8.11402H26.9024C27.4883 8.11402 27.9805 8.43042 28.1914 8.92261H37.0391C36.4531 3.07496 32.1758 0.0280762 24.5703 0.0280762H12.582C4.98828 0.0280762 0.710938 3.07496 0.113281 8.92261ZM24.5703 19.8914C32.6211 19.8914 37.0039 16.4812 37.0977 10.1062H28.1914C27.9805 10.5984 27.4883 10.9148 26.9024 10.9148H10.2383C9.65235 10.9148 9.17188 10.5984 8.96094 10.1062H0.0546875C0.136719 16.2586 4.80078 19.8914 12.582 19.8914H24.5703ZM18.5703 14.8406C17.9141 14.8523 17.375 14.3015 17.375 13.657C17.375 13.0008 17.9141 12.4617 18.5703 12.4617C19.2266 12.4617 19.7656 13.0008 19.7656 13.657C19.7656 14.2664 19.2266 14.8172 18.5703 14.8406Z" fill="black" fill-opacity="0.85"/>
</g>
<defs>
<clipPath id="clip0_2207_14545">
<rect width="37.043" height="19.8867" fill="white" transform="translate(0.0546875 0.0280762)"/>
</clipPath>
</defs>
</svg>
