<svg width="33" height="22" viewBox="0 0 33 22" fill="none" xmlns="http://www.w3.org/2000/svg">
<g clip-path="url(#clip0_2207_14418)">
<path d="M10.0249 0.0397949C4.56396 0.0397949 0.0756836 6.29761 0.0756836 13.9851C0.0756836 17.6062 1.04834 21.6023 2.22021 21.6023C3.12256 21.6023 3.86084 20.3836 3.95459 19.1765C2.16162 18.6492 0.837403 16.9851 0.837403 15.0281C0.837403 13.8562 1.29443 12.8133 2.12646 11.9929C2.5249 6.68433 5.95849 2.03199 9.90771 2.03199C12.2749 2.03199 13.353 3.80152 13.353 7.07105L3.91943 11.9929C2.54834 12.7078 1.91552 13.8328 1.91552 15.0281C1.91552 16.7976 3.36865 18.2508 5.13818 18.2508C5.99365 18.2508 6.56787 18.0398 7.79834 17.3719L12.5327 14.7703C14.6069 13.6336 15.3452 12.2508 15.3452 9.32105V6.7312C15.3452 2.61792 13.5405 0.0397949 10.0249 0.0397949ZM5.05615 17.0554C3.93115 17.0554 3.01709 16.1414 3.01709 15.0281C3.01709 13.9148 3.93115 13.0008 5.05615 13.0008C6.16943 13.0008 7.08349 13.9148 7.08349 15.0281C7.08349 16.1414 6.16943 17.0554 5.05615 17.0554ZM5.05615 16.2703C5.73584 16.2703 6.28662 15.7078 6.28662 15.0281C6.28662 14.3484 5.73584 13.7859 5.05615 13.7859C4.36474 13.7859 3.81396 14.3484 3.81396 15.0281C3.81396 15.7078 4.36474 16.2703 5.05615 16.2703ZM22.1773 0.0397949C18.6616 0.0397949 16.8569 2.61792 16.8569 6.7312V9.32105C16.8569 12.2508 17.5952 13.6336 19.6577 14.7703L24.4038 17.3719C25.6343 18.0398 26.2085 18.2508 27.064 18.2508C28.8335 18.2508 30.2866 16.7976 30.2866 15.0281C30.2866 13.8328 29.6538 12.7078 28.271 11.9929L18.8491 7.07105C18.8491 3.80152 19.9273 2.03199 22.2945 2.03199C26.2437 2.03199 29.6773 6.68433 30.0757 11.9929C30.9077 12.8133 31.3648 13.8562 31.3648 15.0281C31.3648 16.9851 30.0288 18.6492 28.2359 19.1765C28.3296 20.3836 29.0796 21.6023 29.9819 21.6023C31.1538 21.6023 32.1265 17.6062 32.1265 13.9851C32.1265 6.29761 27.6382 0.0397949 22.1773 0.0397949ZM27.146 17.0554C26.0327 17.0554 25.1187 16.1414 25.1187 15.0281C25.1187 13.9148 26.0327 13.0008 27.146 13.0008C28.271 13.0008 29.1851 13.9148 29.1851 15.0281C29.1851 16.1414 28.271 17.0554 27.146 17.0554ZM27.146 16.2703C27.8374 16.2703 28.3882 15.7078 28.3882 15.0281C28.3882 14.3484 27.8374 13.7859 27.146 13.7859C26.4663 13.7859 25.9038 14.3484 25.9038 15.0281C25.9038 15.7078 26.4663 16.2703 27.146 16.2703Z" fill="black" fill-opacity="0.85"/>
<path d="M5.05615 17.0553C3.93115 17.0553 3.01709 16.1413 3.01709 15.028C3.01709 13.9147 3.93115 13.0007 5.05615 13.0007C6.16943 13.0007 7.08349 13.9147 7.08349 15.028C7.08349 16.1413 6.16943 17.0553 5.05615 17.0553ZM5.05615 16.2702C5.73584 16.2702 6.28662 15.7077 6.28662 15.028C6.28662 14.3483 5.73584 13.7858 5.05615 13.7858C4.36474 13.7858 3.81396 14.3483 3.81396 15.028C3.81396 15.7077 4.36474 16.2702 5.05615 16.2702ZM27.146 17.0553C26.0327 17.0553 25.1187 16.1413 25.1187 15.028C25.1187 13.9147 26.0327 13.0007 27.146 13.0007C28.271 13.0007 29.1851 13.9147 29.1851 15.028C29.1851 16.1413 28.271 17.0553 27.146 17.0553ZM27.146 16.2702C27.8374 16.2702 28.3882 15.7077 28.3882 15.028C28.3882 14.3483 27.8374 13.7858 27.146 13.7858C26.4663 13.7858 25.9038 14.3483 25.9038 15.028C25.9038 15.7077 26.4663 16.2702 27.146 16.2702Z" fill="black" fill-opacity="0.85"/>
</g>
<defs>
<clipPath id="clip0_2207_14418">
<rect width="32.0508" height="21.5742" fill="white" transform="translate(0.0756836 0.0280762)"/>
</clipPath>
</defs>
</svg>
