<svg width="34" height="24" viewBox="0 0 34 24" fill="none" xmlns="http://www.w3.org/2000/svg">
<g clip-path="url(#clip0_2207_14456)">
<path d="M5.65918 18.2508H14.8818C15.3623 18.2508 15.7373 17.9461 15.7959 17.4422L16.1826 13.3875C16.2295 12.7781 15.8193 12.3445 15.2216 12.3445H5.65918C4.03028 12.3445 2.71778 13.6687 2.71778 15.3093C2.71778 16.9383 4.03028 18.2508 5.65918 18.2508ZM5.65918 16.4109C6.28028 16.4109 6.78418 15.9304 6.78418 15.3093C6.78418 14.6883 6.28028 14.1843 5.65918 14.1843C5.03809 14.1843 4.5459 14.6883 4.5459 15.3093C4.5459 15.9304 5.03809 16.4109 5.65918 16.4109ZM12.4209 23.7937H13.5341L13.9443 19.8562H12.8193L12.4209 23.7937ZM5.65918 17.2429C4.58106 17.2429 3.71387 16.3875 3.71387 15.3093C3.71387 14.2312 4.58106 13.3523 5.65918 13.3523C6.74903 13.3523 7.61622 14.2312 7.61622 15.3093C7.61622 16.3875 6.74903 17.2429 5.65918 17.2429ZM10.5576 0.0280762C5.12012 0.0280762 0.0693359 4.89136 0.0693359 11.8054C0.0693359 16.3758 1.5459 22.6687 3.97168 22.6922C4.58106 22.6922 5.02637 22.0828 5.02637 20.7C5.02637 20.3015 5.00293 19.9265 4.90918 19.3172C3.02246 18.9656 1.58106 17.3015 1.58106 15.3093C1.58106 14.5476 1.792 13.8445 2.15528 13.2234C2.07325 12.7078 2.02637 12.1453 2.02637 11.7117C2.02637 6.30933 6.4795 1.98511 10.4287 1.98511C12.8545 1.98511 14.0849 3.87183 13.7568 7.04761L12.3857 20.2195C12.2568 21.5086 14.1904 21.5086 14.3076 20.3719L15.6552 6.96558C16.1005 2.51246 14.2255 0.0280762 10.5576 0.0280762ZM28.0302 18.2508C29.6709 18.2508 30.9834 16.9383 30.9834 15.3093C30.9834 13.6687 29.6709 12.3445 28.0302 12.3445H18.4795C17.8701 12.3445 17.4599 12.7781 17.5185 13.3875L17.9052 17.4422C17.9638 17.9461 18.3388 18.2508 18.8076 18.2508H28.0302ZM28.0302 16.4109C28.6631 16.4109 29.1435 15.9304 29.1435 15.3093C29.1435 14.6883 28.6631 14.1843 28.0302 14.1843C27.4091 14.1843 26.917 14.6883 26.917 15.3093C26.917 15.9304 27.4091 16.4109 28.0302 16.4109ZM21.2802 23.7937L20.8701 19.8562H19.7568L20.167 23.7937H21.2802ZM28.0302 17.2429C26.9521 17.2429 26.0732 16.3875 26.0732 15.3093C26.0732 14.2312 26.9521 13.3523 28.0302 13.3523C29.1201 13.3523 29.9755 14.2312 29.9755 15.3093C29.9755 16.3875 29.1201 17.2429 28.0302 17.2429ZM23.1435 0.0280762C19.4638 0.0280762 17.5888 2.51246 18.0459 6.96558L19.3935 20.3719C19.5107 21.5086 21.4443 21.5086 21.3037 20.2195L19.9443 7.04761C19.6045 3.87183 20.8466 1.98511 23.2724 1.98511C27.2099 1.98511 31.6631 6.30933 31.6631 11.7117C31.6631 12.1453 31.6162 12.7078 31.5459 13.2234C31.8974 13.8445 32.1084 14.5476 32.1084 15.3093C32.1084 17.3015 30.6787 18.9656 28.792 19.3172C28.6982 19.9265 28.6631 20.3015 28.6631 20.7C28.6631 22.0828 29.1084 22.6922 29.7177 22.6922C32.1552 22.6687 33.6318 16.3758 33.6318 11.8054C33.6318 4.89136 28.5693 0.0280762 23.1435 0.0280762Z" fill="black" fill-opacity="0.85"/>
<path d="M5.65918 16.4109C6.28028 16.4109 6.78418 15.9304 6.78418 15.3093C6.78418 14.6883 6.28028 14.1843 5.65918 14.1843C5.03809 14.1843 4.5459 14.6883 4.5459 15.3093C4.5459 15.9304 5.03809 16.4109 5.65918 16.4109ZM5.65918 17.2429C4.58106 17.2429 3.71387 16.3875 3.71387 15.3093C3.71387 14.2312 4.58106 13.3523 5.65918 13.3523C6.74903 13.3523 7.61622 14.2312 7.61622 15.3093C7.61622 16.3875 6.74903 17.2429 5.65918 17.2429ZM28.0302 16.4109C28.6631 16.4109 29.1435 15.9304 29.1435 15.3093C29.1435 14.6883 28.6631 14.1843 28.0302 14.1843C27.4091 14.1843 26.917 14.6883 26.917 15.3093C26.917 15.9304 27.4091 16.4109 28.0302 16.4109ZM28.0302 17.2429C26.9521 17.2429 26.0732 16.3875 26.0732 15.3093C26.0732 14.2312 26.9521 13.3523 28.0302 13.3523C29.1201 13.3523 29.9755 14.2312 29.9755 15.3093C29.9755 16.3875 29.1201 17.2429 28.0302 17.2429Z" fill="black" fill-opacity="0.85"/>
</g>
<defs>
<clipPath id="clip0_2207_14456">
<rect width="33.5625" height="23.7773" fill="white" transform="translate(0.0693359 0.0280762)"/>
</clipPath>
</defs>
</svg>
