<svg width="30" height="20" viewBox="0 0 30 20" fill="none" xmlns="http://www.w3.org/2000/svg">
<g clip-path="url(#clip0_2207_12158)">
<path d="M1.00244 19.7989H1.70557C2.30323 19.7989 2.70166 19.4122 2.70166 18.8028V17.0685C2.83057 17.1036 3.21729 17.1271 3.49854 17.1271H26.2094C26.4907 17.1271 26.8774 17.1036 27.0063 17.0685V18.8028C27.0063 19.4122 27.4047 19.7989 28.0024 19.7989H28.7055C29.3149 19.7989 29.7016 19.4122 29.7016 18.8028V10.7755C29.7016 8.53723 28.4829 7.3302 26.2446 7.3302H3.46338C1.2251 7.3302 0.00634766 8.53723 0.00634766 10.7755V18.8028C0.00634766 19.4122 0.393067 19.7989 1.00244 19.7989ZM2.3501 15.4161C2.10401 15.4161 1.95166 15.2403 1.95166 14.9591V10.506C1.95166 9.61536 2.5376 9.04114 3.45166 9.04114H26.268C27.1704 9.04114 27.7563 9.61536 27.7563 10.506V14.9591C27.7563 15.2403 27.604 15.4161 27.3579 15.4161H2.3501ZM3.05323 7.5763H6.13526V5.16223C6.13526 4.07239 6.74463 3.47473 7.85791 3.47473H11.9711C13.0727 3.47473 13.6821 4.07239 13.6821 5.16223V7.5763H16.0258V5.16223C16.0258 4.07239 16.6352 3.47473 17.7368 3.47473H21.8501C22.9633 3.47473 23.5727 4.07239 23.5727 5.16223V7.5763H26.6547V3.31067C26.6547 1.1427 25.4946 0.0294189 23.3852 0.0294189H6.32276C4.2251 0.0294189 3.05323 1.1427 3.05323 3.31067V7.5763Z" fill="black" fill-opacity="0.85"/>
</g>
<defs>
<clipPath id="clip0_2207_12158">
<rect width="29.6953" height="19.793" fill="white" transform="translate(0.00634766 0.0294189)"/>
</clipPath>
</defs>
</svg>
