<svg width="24" height="24" viewBox="0 0 24 24" fill="none" xmlns="http://www.w3.org/2000/svg">
<g clip-path="url(#clip0_2207_12172)">
<path d="M11.9636 23.9474C18.5027 23.9474 23.9167 18.5333 23.9167 11.9942C23.9167 5.46692 18.491 0.0411377 11.9519 0.0411377C5.42456 0.0411377 0.010498 5.46692 0.010498 11.9942C0.010498 18.5333 5.43628 23.9474 11.9636 23.9474Z" fill="black" fill-opacity="0.85"/>
<path d="M4.66284 16.3419V12.92C4.66284 11.8302 5.28394 11.2091 6.3855 11.2091H17.5417C18.6433 11.2091 19.2644 11.8302 19.2644 12.92V16.3419C19.2644 16.6466 19.0652 16.8341 18.7605 16.8341H18.4324C18.1394 16.8341 17.9402 16.6466 17.9402 16.3419V15.4982C17.8699 15.5099 17.6824 15.5099 17.5417 15.5099H6.3855C6.24488 15.5099 6.05738 15.5099 5.98706 15.4982V16.3419C5.98706 16.6466 5.78784 16.8341 5.49488 16.8341H5.16675C4.87378 16.8341 4.66284 16.6466 4.66284 16.3419ZM6.05738 10.3888V8.74817C6.05738 7.69348 6.61988 7.1427 7.65112 7.1427H16.2761C17.3074 7.1427 17.8816 7.69348 17.8816 8.74817V10.3888H16.4167V9.5802C16.4167 9.04114 16.1238 8.73645 15.5261 8.73645H13.5222C12.948 8.73645 12.655 9.04114 12.655 9.5802V10.3888H11.3425V9.5802C11.3425 9.04114 11.0496 8.73645 10.5105 8.73645H8.36597C7.80347 8.73645 7.52222 9.04114 7.52222 9.5802V10.3888H6.05738Z" fill="white"/>
</g>
<defs>
<clipPath id="clip0_2207_12172">
<rect width="23.9062" height="23.918" fill="white" transform="translate(0.010498 0.0294189)"/>
</clipPath>
</defs>
</svg>
