<svg width="24" height="24" viewBox="0 0 24 24" fill="none" xmlns="http://www.w3.org/2000/svg">
<g clip-path="url(#clip0_2207_15468)">
<path d="M12.0141 23.9474C18.5532 23.9474 23.9672 18.5333 23.9672 11.9942C23.9672 5.46692 18.5415 0.0411377 12.0024 0.0411377C5.47509 0.0411377 0.0610352 5.46692 0.0610352 11.9942C0.0610352 18.5333 5.48682 23.9474 12.0141 23.9474Z" fill="black" fill-opacity="0.85"/>
<path d="M3.24854 13.4591C3.24854 11.5724 4.77198 10.0724 6.64698 10.0724C7.33838 10.0724 7.97119 10.2716 8.51025 10.6232L9.37745 9.61536L8.5337 8.0802H7.84229C7.57276 8.0802 7.3501 7.86926 7.3501 7.61145C7.3501 7.31848 7.57276 7.10754 7.84229 7.10754H10.1157C10.3969 7.10754 10.6313 7.3302 10.6313 7.61145C10.6313 7.86926 10.3852 8.0802 10.1157 8.0802H9.63525L10.3501 9.36926L14.9555 8.77161L14.2172 6.94348H12.8696C12.5766 6.94348 12.3657 6.70911 12.3657 6.43958C12.3657 6.17004 12.5883 5.95911 12.8696 5.95911H14.3579C14.7094 5.95911 14.8852 6.06458 15.0141 6.35754L16.5727 10.1778C16.8305 10.0958 17.1235 10.0724 17.4048 10.0724C19.2798 10.0724 20.8032 11.5724 20.8032 13.4591C20.8032 15.3341 19.2798 16.8575 17.4048 16.8575C15.5298 16.8575 14.0063 15.3341 14.0063 13.4591C14.0063 12.2052 14.686 11.1271 15.6821 10.5411L15.3657 9.77942L12.3071 13.3536C12.0376 13.6466 11.7915 13.7638 11.2993 13.7638H10.0337C9.86963 15.4982 8.4165 16.8575 6.64698 16.8575C4.77198 16.8575 3.24854 15.3341 3.24854 13.4591ZM4.24463 13.4356C4.24463 14.795 5.32276 15.8497 6.6587 15.8497C7.98291 15.8497 9.06104 14.795 9.06104 13.4356C9.06104 12.9083 8.88525 12.4161 8.604 12.0177L7.44385 13.3067C7.44385 13.3185 7.45556 13.3888 7.45556 13.4474C7.45556 13.9161 7.10401 14.2677 6.6587 14.2677C6.18995 14.2677 5.83838 13.9161 5.83838 13.4474C5.83838 13.0021 6.20165 12.6153 6.74073 12.6505L7.85401 11.3614C7.50245 11.1622 7.09229 11.0333 6.6587 11.0333C5.32276 11.0333 4.24463 12.1114 4.24463 13.4356ZM15.0024 13.4356C15.0024 14.795 16.0805 15.8497 17.4282 15.8497C18.7524 15.8497 19.8305 14.795 19.8305 13.4356C19.8305 12.1114 18.7524 11.0333 17.4282 11.0333C17.2524 11.0333 17.1001 11.0567 16.9477 11.0919L17.5805 12.6505C17.9438 12.7325 18.2251 13.0489 18.2251 13.4474C18.2251 13.9161 17.8735 14.2677 17.4282 14.2677C16.9594 14.2677 16.6079 13.9161 16.6079 13.4474C16.6079 13.3185 16.643 13.1896 16.7016 13.0841L16.0454 11.4669C15.4243 11.9005 15.0024 12.6153 15.0024 13.4356ZM10.854 10.2833L11.979 12.2872L14.2055 9.70911L10.854 10.2833ZM9.27198 11.2911C9.62354 11.7247 9.88135 12.2521 9.98682 12.8263H11.1821L9.92823 10.5646L9.27198 11.2911Z" fill="white"/>
</g>
<defs>
<clipPath id="clip0_2207_15468">
<rect width="23.9062" height="23.918" fill="white" transform="translate(0.0610352 0.0294189)"/>
</clipPath>
</defs>
</svg>
