<svg width="24" height="24" viewBox="0 0 24 24" fill="none" xmlns="http://www.w3.org/2000/svg">
<g clip-path="url(#clip0_2207_15463)">
<path d="M12.0119 23.9356C18.551 23.9356 23.965 18.5099 23.965 11.9825C23.965 5.44348 18.5393 0.0294189 12.0002 0.0294189C5.4729 0.0294189 0.0588379 5.44348 0.0588379 11.9825C0.0588379 18.5099 5.48462 23.9356 12.0119 23.9356ZM12.0119 21.9435C6.48072 21.9435 2.06275 17.5138 2.06275 11.9825C2.06275 6.4513 6.469 2.02161 12.0002 2.02161C17.5315 2.02161 21.9729 6.4513 21.9729 11.9825C21.9729 17.5138 17.5432 21.9435 12.0119 21.9435Z" fill="black" fill-opacity="0.85"/>
<path d="M6.79712 16.67C8.61353 16.67 10.09 15.1935 10.09 13.3771C10.09 11.5606 8.61353 10.0841 6.79712 10.0841C4.98072 10.0841 3.50415 11.5606 3.50415 13.3771C3.50415 15.1935 4.98072 16.67 6.79712 16.67ZM6.80884 15.7091C5.50806 15.7091 4.46509 14.6661 4.46509 13.3536C4.46509 12.0646 5.50806 11.0333 6.80884 11.0333C8.0979 11.0333 9.14087 12.0646 9.14087 13.3536C9.14087 14.6661 8.0979 15.7091 6.80884 15.7091ZM6.80884 14.1622C7.24243 14.1622 7.58228 13.8106 7.58228 13.3653C7.58228 12.9317 7.24243 12.5919 6.80884 12.5919C6.35181 12.5919 6.01196 12.9317 6.01196 13.3653C6.01196 13.8106 6.35181 14.1622 6.80884 14.1622ZM17.2268 16.67C19.0549 16.67 20.5197 15.1935 20.5197 13.3771C20.5197 11.5606 19.0549 10.0841 17.2268 10.0841C15.4104 10.0841 13.9338 11.5606 13.9338 13.3771C13.9338 15.1935 15.4104 16.67 17.2268 16.67ZM17.2502 15.7091C15.9377 15.7091 14.8947 14.6661 14.8947 13.3536C14.8947 12.0646 15.9377 11.0333 17.2502 11.0333C18.5393 11.0333 19.5822 12.0646 19.5822 13.3536C19.5822 14.6661 18.5393 15.7091 17.2502 15.7091ZM17.2502 14.1622C17.6838 14.1622 18.0236 13.8106 18.0236 13.3653C18.0236 12.9317 17.6838 12.5919 17.2502 12.5919C16.7932 12.5919 16.4533 12.9317 16.4533 13.3653C16.4533 13.8106 16.7932 14.1622 17.2502 14.1622ZM7.95728 8.16223H10.1604C10.4182 8.16223 10.6526 7.9513 10.6526 7.7052C10.6526 7.43567 10.4299 7.21301 10.1604 7.21301H7.95728C7.68775 7.21301 7.47681 7.43567 7.47681 7.7052C7.47681 7.9513 7.68775 8.16223 7.95728 8.16223ZM6.6565 12.838L7.41822 13.3888L9.9729 10.5646L11.1916 12.7677H9.77368V13.67H11.3088C11.7893 13.67 12.0236 13.5528 12.2815 13.2716L15.2463 9.80286L16.6526 13.2833L17.508 12.8966L14.9065 6.49817C14.7776 6.2052 14.6135 6.09973 14.2736 6.09973H12.8322C12.5627 6.09973 12.34 6.31067 12.34 6.5802C12.34 6.8263 12.551 7.04895 12.8322 7.04895H14.133L14.8596 8.8302L10.383 9.40442L9.51587 7.83411L8.56665 8.06848L9.44556 9.65051L6.6565 12.838ZM10.8752 10.295L14.133 9.74426L11.965 12.2403L10.8752 10.295Z" fill="black" fill-opacity="0.85"/>
</g>
<defs>
<clipPath id="clip0_2207_15463">
<rect width="23.9062" height="23.918" fill="white" transform="translate(0.0588379 0.0294189)"/>
</clipPath>
</defs>
</svg>
