<svg width="24" height="24" viewBox="0 0 24 24" fill="none" xmlns="http://www.w3.org/2000/svg">
<g id="bicycle.circle.fill" clip-path="url(#clip0_2124_13591)">
<g id="Group">
<path id="Vector" d="M11.9531 23.918C18.4922 23.918 23.9062 18.5039 23.9062 11.9648C23.9062 5.4375 18.4805 0.0117188 11.9414 0.0117188C5.41406 0.0117188 0 5.4375 0 11.9648C0 18.5039 5.42578 23.918 11.9531 23.918Z" fill="black" fill-opacity="0.85"/>
<path id="Vector_2" d="M3.1875 13.4297C3.1875 11.543 4.71094 10.043 6.58594 10.043C7.27734 10.043 7.91016 10.2422 8.44922 10.5938L9.31641 9.58594L8.47266 8.05078H7.78125C7.51172 8.05078 7.28906 7.83984 7.28906 7.58203C7.28906 7.28906 7.51172 7.07812 7.78125 7.07812H10.0547C10.3359 7.07812 10.5703 7.30078 10.5703 7.58203C10.5703 7.83984 10.3242 8.05078 10.0547 8.05078H9.57422L10.2891 9.33984L14.8945 8.74219L14.1562 6.91406H12.8086C12.5156 6.91406 12.3047 6.67969 12.3047 6.41016C12.3047 6.14062 12.5273 5.92969 12.8086 5.92969H14.2969C14.6484 5.92969 14.8242 6.03516 14.9531 6.32812L16.5117 10.1484C16.7695 10.0664 17.0625 10.043 17.3438 10.043C19.2188 10.043 20.7422 11.543 20.7422 13.4297C20.7422 15.3047 19.2188 16.8281 17.3438 16.8281C15.4688 16.8281 13.9453 15.3047 13.9453 13.4297C13.9453 12.1758 14.625 11.0977 15.6211 10.5117L15.3047 9.75L12.2461 13.3242C11.9766 13.6172 11.7305 13.7344 11.2383 13.7344H9.97266C9.80859 15.4688 8.35547 16.8281 6.58594 16.8281C4.71094 16.8281 3.1875 15.3047 3.1875 13.4297ZM4.18359 13.4062C4.18359 14.7656 5.26172 15.8203 6.59766 15.8203C7.92188 15.8203 9 14.7656 9 13.4062C9 12.8789 8.82422 12.3867 8.54297 11.9883L7.38281 13.2773C7.38281 13.2891 7.39453 13.3594 7.39453 13.418C7.39453 13.8867 7.04297 14.2383 6.59766 14.2383C6.12891 14.2383 5.77734 13.8867 5.77734 13.418C5.77734 12.9727 6.14062 12.5859 6.67969 12.6211L7.79297 11.332C7.44141 11.1328 7.03125 11.0039 6.59766 11.0039C5.26172 11.0039 4.18359 12.082 4.18359 13.4062ZM14.9414 13.4062C14.9414 14.7656 16.0195 15.8203 17.3672 15.8203C18.6914 15.8203 19.7695 14.7656 19.7695 13.4062C19.7695 12.082 18.6914 11.0039 17.3672 11.0039C17.1914 11.0039 17.0391 11.0273 16.8867 11.0625L17.5195 12.6211C17.8828 12.7031 18.1641 13.0195 18.1641 13.418C18.1641 13.8867 17.8125 14.2383 17.3672 14.2383C16.8984 14.2383 16.5469 13.8867 16.5469 13.418C16.5469 13.2891 16.582 13.1602 16.6406 13.0547L15.9844 11.4375C15.3633 11.8711 14.9414 12.5859 14.9414 13.4062ZM10.793 10.2539L11.918 12.2578L14.1445 9.67969L10.793 10.2539ZM9.21094 11.2617C9.5625 11.6953 9.82031 12.2227 9.92578 12.7969H11.1211L9.86719 10.5352L9.21094 11.2617Z" fill="white"/>
</g>
</g>
<defs>
<clipPath id="clip0_2124_13591">
<rect width="23.9062" height="23.918" fill="white"/>
</clipPath>
</defs>
</svg>
