<svg width="24" height="24" viewBox="0 0 24 24" fill="none" xmlns="http://www.w3.org/2000/svg">
<g id="binoculars.circle.fill" clip-path="url(#clip0_2124_13718)">
<g id="Group">
<path id="Vector" d="M11.9531 23.9062C18.4922 23.9062 23.9062 18.4805 23.9062 11.9531C23.9062 5.41406 18.4805 0 11.9414 0C5.41406 0 0 5.41406 0 11.9531C0 18.4805 5.42578 23.9062 11.9531 23.9062Z" fill="black" fill-opacity="0.85"/>
<path id="Vector_2" d="M4.17188 14.6484C4.17188 14.2031 4.21875 13.793 4.46484 13.1953L7.00781 7.30078C7.34766 6.51562 8.07422 6.04688 8.98828 6.04688C10.1719 6.04688 10.9336 6.79688 10.9336 7.91016V8.53125C11.2383 8.42578 11.5898 8.37891 11.9414 8.37891C12.3164 8.37891 12.6562 8.41405 12.9492 8.5078V7.91016C12.9492 6.79688 13.7109 6.04688 14.8945 6.04688C15.8086 6.04688 16.5469 6.51562 16.8867 7.30078L19.418 13.1953C19.6523 13.793 19.7109 14.2031 19.7109 14.6484C19.7109 16.3477 18.1992 17.625 16.3242 17.625C14.4727 17.625 12.9492 16.3477 12.9492 14.6484V13.0312C12.6797 12.9375 12.3398 12.8906 11.9414 12.8906C11.5781 12.8906 11.2148 12.9609 10.9336 13.0781V14.6484C10.9336 16.3477 9.41016 17.625 7.54688 17.625C5.67188 17.625 4.17188 16.3477 4.17188 14.6484ZM5.42578 14.6484C5.42578 15.6797 6.28124 16.3945 7.54688 16.3945C8.83594 16.3945 9.70312 15.6797 9.70312 14.6484C9.70312 13.6055 8.83594 12.8906 7.54688 12.8906C6.28124 12.8906 5.42578 13.6055 5.42578 14.6484ZM14.168 14.6484C14.168 15.6797 15.0469 16.3945 16.3242 16.3945C17.5898 16.3945 18.457 15.6797 18.457 14.6484C18.457 13.6055 17.5898 12.8906 16.3242 12.8906C15.0469 12.8906 14.168 13.6055 14.168 14.6484ZM10.9336 11.2617C11.2148 11.1211 11.5781 11.0625 11.9414 11.0625C12.3398 11.0625 12.6797 11.1094 12.9492 11.1914V10.3359C12.6562 10.2539 12.3164 10.207 11.9414 10.207C11.5898 10.207 11.2266 10.2656 10.9336 10.3594V11.2617Z" fill="white"/>
</g>
</g>
<defs>
<clipPath id="clip0_2124_13718">
<rect width="23.9062" height="23.918" fill="white"/>
</clipPath>
</defs>
</svg>
