<svg width="24" height="24" viewBox="0 0 24 24" fill="none" xmlns="http://www.w3.org/2000/svg">
<g clip-path="url(#clip0_2207_18131)">
<path d="M12.0266 23.9356C18.5657 23.9356 23.9797 18.5099 23.9797 11.9825C23.9797 5.44348 18.554 0.0294189 12.0149 0.0294189C5.48755 0.0294189 0.0734863 5.44348 0.0734863 11.9825C0.0734863 18.5099 5.49927 23.9356 12.0266 23.9356ZM12.0266 21.9435C6.49537 21.9435 2.0774 17.5138 2.0774 11.9825C2.0774 6.4513 6.48365 2.02161 12.0149 2.02161C17.5462 2.02161 21.9876 6.4513 21.9876 11.9825C21.9876 17.5138 17.5579 21.9435 12.0266 21.9435Z" fill="black" fill-opacity="0.85"/>
<path d="M15.343 8.13885C14.4876 8.13885 13.8313 8.61931 13.3743 9.76775C11.7219 8.06853 9.07351 6.54509 6.42507 6.34588C5.87429 6.31072 5.80398 6.70916 5.79226 7.03728C5.59304 9.95525 7.90163 12.4865 10.9602 12.6975C10.1399 14.6662 8.80398 16.2248 7.49148 17.4553C7.28054 17.6311 7.33913 17.9006 7.46804 18.0998C8.14773 19.1193 10.2337 19.7287 11.6399 19.2483C11.9446 19.1311 12.0032 18.9787 12.0032 18.7326V16.5529C13.5618 16.4709 15.9876 15.4865 15.6477 12.2756L15.5891 11.8303C16.2923 11.6545 16.8547 11.3264 17.1946 10.9397L18.8821 11.1857C19.2571 11.2326 19.4563 10.6467 19.0579 10.4943L17.5579 9.8615C17.4407 8.99431 16.5032 8.13885 15.343 8.13885ZM10.3743 6.674C11.4173 7.18963 12.3665 7.82244 13.1751 8.50213C13.5735 7.96306 14.054 7.62322 14.593 7.47088C13.8547 6.14666 12.9055 5.16228 11.6985 4.47088C11.2532 4.21306 10.8079 4.41228 10.6907 4.88103C10.5266 5.47869 10.4094 6.07635 10.3743 6.674ZM15.5188 9.77947C15.5188 9.55681 15.718 9.36931 15.929 9.36931C16.1633 9.36931 16.3508 9.55681 16.3508 9.77947C16.3508 10.0138 16.1633 10.1897 15.929 10.1897C15.718 10.1897 15.5188 10.0138 15.5188 9.77947Z" fill="black" fill-opacity="0.85"/>
</g>
<defs>
<clipPath id="clip0_2207_18131">
<rect width="23.9062" height="23.918" fill="white" transform="translate(0.0734863 0.0294189)"/>
</clipPath>
</defs>
</svg>
