<svg width="28" height="27" viewBox="0 0 28 27" fill="none" xmlns="http://www.w3.org/2000/svg">
<g clip-path="url(#clip0_2207_21247)">
<path d="M13.5798 4.55284C14.4353 4.55284 15.115 3.79112 15.115 2.80674C15.115 1.79893 14.7986 1.14268 14.236 0.486436C13.861 0.017686 13.3571 0.00596726 12.9704 0.416124C12.4079 1.09581 12.0446 1.76378 12.0446 2.80674C12.0446 3.79112 12.736 4.55284 13.5798 4.55284ZM12.9118 9.95518H14.2126V3.29893H12.9118V9.95518ZM5.92749 15.6856H7.81421V12.8497C7.81421 11.7364 8.4353 11.1388 9.50171 11.1388H17.6462C18.7126 11.1388 19.3454 11.7364 19.3454 12.8497V15.6856H21.2321V12.756C21.2321 10.4356 20.0368 9.25206 17.6814 9.25206H9.47827C7.13452 9.25206 5.92749 10.4356 5.92749 12.756V15.6856ZM1.93139 25.8458H3.81811V18.7794C3.81811 17.6661 4.43921 17.0567 5.50561 17.0567H21.6423C22.7087 17.0567 23.3298 17.6661 23.3298 18.7794V25.8458H25.2165V18.6739C25.2165 16.3536 24.0212 15.17 21.6775 15.17H5.48217C3.13842 15.17 1.93139 16.3536 1.93139 18.6739V25.8458ZM13.5681 21.0646C14.5876 21.0646 15.3962 22.3771 17.1189 22.3771C18.7829 22.3771 19.5212 21.0646 20.4821 21.0646C21.4431 21.0646 22.1931 22.3771 24.0095 22.3771H24.3259V20.5489H24.0095C22.8962 20.5489 22.0993 19.2364 20.4821 19.2364C18.8532 19.2364 18.2439 20.5489 17.1189 20.5489C15.7712 20.5489 15.2204 19.2364 13.5681 19.2364C11.904 19.2364 11.365 20.5489 10.0173 20.5489C8.89233 20.5489 8.28295 19.2364 6.65405 19.2364C5.02514 19.2364 4.23999 20.5489 3.12671 20.5489H2.73999V22.3771H3.12671C4.94311 22.3771 5.69311 21.0646 6.65405 21.0646C7.60327 21.0646 8.35327 22.3771 10.0173 22.3771C11.74 22.3771 12.5368 21.0646 13.5681 21.0646ZM1.01733 26.6661H26.1306C26.6462 26.6661 27.0681 26.2325 27.0681 25.7169C27.0681 25.2013 26.6462 24.7794 26.1306 24.7794H1.01733C0.501709 24.7794 0.079834 25.2013 0.079834 25.7169C0.079834 26.2325 0.501709 26.6661 1.01733 26.6661Z" fill="black" fill-opacity="0.85"/>
</g>
<defs>
<clipPath id="clip0_2207_21247">
<rect width="26.9883" height="26.6367" fill="white" transform="translate(0.079834 0.0294189)"/>
</clipPath>
</defs>
</svg>
