<svg width="24" height="24" viewBox="0 0 24 24" fill="none" xmlns="http://www.w3.org/2000/svg">
<g clip-path="url(#clip0_2207_26099)">
<path d="M12.0412 23.9356C18.5803 23.9356 23.9943 18.5099 23.9943 11.9825C23.9943 5.44348 18.5686 0.0294189 12.0295 0.0294189C5.50219 0.0294189 0.0881348 5.44348 0.0881348 11.9825C0.0881348 18.5099 5.51392 23.9356 12.0412 23.9356Z" fill="black" fill-opacity="0.85"/>
<path d="M8.73657 16.6935V7.63489C8.73657 7.08411 9.12329 6.70911 9.66235 6.70911H10.1545V5.80676C10.1545 5.46692 10.3889 5.23254 10.717 5.23254C11.0451 5.23254 11.2795 5.46692 11.2795 5.80676V6.70911H12.0412V5.80676C12.0412 5.46692 12.2873 5.23254 12.6037 5.23254C12.9319 5.23254 13.1779 5.46692 13.1779 5.80676V6.75598C14.7365 6.99036 15.7326 8.04504 15.7326 9.49817C15.7326 10.4942 15.135 11.42 14.2678 11.8419C15.4748 12.2052 16.26 13.1896 16.26 14.5138C16.26 16.2364 15.1233 17.3614 13.1779 17.5724V18.5333C13.1779 18.8732 12.9319 19.1075 12.6037 19.1075C12.2873 19.1075 12.0412 18.8732 12.0412 18.5333V17.6075H11.2795V18.5333C11.2795 18.8732 11.0451 19.1075 10.717 19.1075C10.3889 19.1075 10.1545 18.8732 10.1545 18.5333V17.6075H9.66235C9.11157 17.6075 8.73657 17.2325 8.73657 16.6935ZM10.2365 16.2364L12.3459 16.2247C13.9279 16.213 14.76 15.6153 14.76 14.4552C14.76 13.2716 13.8928 12.6739 12.217 12.6739H10.2365V16.2364ZM10.2365 11.3028L11.9123 11.3146C13.4123 11.3263 14.2326 10.7169 14.2326 9.61536C14.2326 8.61926 13.5061 8.06848 12.2404 8.06848H10.2365V11.3028Z" fill="white"/>
</g>
<defs>
<clipPath id="clip0_2207_26099">
<rect width="23.9062" height="23.918" fill="white" transform="translate(0.0881348 0.0294189)"/>
</clipPath>
</defs>
</svg>
