<svg width="22" height="22" viewBox="0 0 22 22" fill="none" xmlns="http://www.w3.org/2000/svg">
<g clip-path="url(#clip0_2207_26104)">
<path d="M3.77002 21.6271H17.9848C20.4458 21.6271 21.6645 20.4083 21.6645 17.9942V3.68567C21.6645 1.27161 20.4458 0.0528564 17.9848 0.0528564H3.77002C1.3208 0.0528564 0.090332 1.25989 0.090332 3.68567V17.9942C0.090332 20.42 1.3208 21.6271 3.77002 21.6271ZM3.79345 19.7403C2.62158 19.7403 1.97705 19.1192 1.97705 17.9005V3.77942C1.97705 2.56067 2.62158 1.93958 3.79345 1.93958H17.9614C19.1215 1.93958 19.7778 2.56067 19.7778 3.77942V17.9005C19.7778 19.1192 19.1215 19.7403 17.9614 19.7403H3.79345Z" fill="black" fill-opacity="0.85"/>
<path d="M7.57861 15.5333C7.57861 16.0724 7.95361 16.4474 8.50439 16.4474H8.99658V17.3732C8.99658 17.713 9.24267 17.9474 9.55908 17.9474C9.88721 17.9474 10.1333 17.713 10.1333 17.3732V16.4474H10.8833V17.3732C10.8833 17.713 11.1294 17.9474 11.4575 17.9474C11.7739 17.9474 12.02 17.713 12.02 17.3732V16.4122C13.9653 16.2013 15.102 15.0763 15.102 13.3536C15.102 12.0294 14.3286 11.045 13.1098 10.6817C13.977 10.2599 14.5864 9.33411 14.5864 8.33801C14.5864 6.88489 13.5903 5.8302 12.02 5.59583V4.64661C12.02 4.30676 11.7739 4.07239 11.4575 4.07239C11.1294 4.07239 10.8833 4.30676 10.8833 4.64661V5.54895H10.1333V4.64661C10.1333 4.30676 9.88721 4.07239 9.55908 4.07239C9.24267 4.07239 8.99658 4.30676 8.99658 4.64661V5.54895H8.50439C7.96533 5.54895 7.57861 5.92395 7.57861 6.47473V15.5333ZM9.09033 15.0763V11.5138H11.0591C12.7348 11.5138 13.602 12.1114 13.602 13.295C13.602 14.4552 12.77 15.0528 11.1997 15.0646L9.09033 15.0763ZM9.09033 10.1427V6.90833H11.0942C12.3481 6.90833 13.0747 7.45911 13.0747 8.4552C13.0747 9.55676 12.2544 10.1661 10.7544 10.1544L9.09033 10.1427Z" fill="black" fill-opacity="0.85"/>
</g>
<defs>
<clipPath id="clip0_2207_26104">
<rect width="21.5742" height="21.5977" fill="white" transform="translate(0.090332 0.0294189)"/>
</clipPath>
</defs>
</svg>
