<svg width="24" height="24" viewBox="0 0 24 24" fill="none" xmlns="http://www.w3.org/2000/svg">
<g clip-path="url(#clip0_2207_26094)">
<path d="M12.0393 23.9356C18.5784 23.9356 23.9924 18.5099 23.9924 11.9825C23.9924 5.44348 18.5667 0.0294189 12.0276 0.0294189C5.50024 0.0294189 0.0861816 5.44348 0.0861816 11.9825C0.0861816 18.5099 5.51196 23.9356 12.0393 23.9356ZM12.0393 21.9435C6.50806 21.9435 2.09009 17.5138 2.09009 11.9825C2.09009 6.4513 6.49634 2.02161 12.0276 2.02161C17.5589 2.02161 22.0003 6.4513 22.0003 11.9825C22.0003 17.5138 17.5706 21.9435 12.0393 21.9435Z" fill="black" fill-opacity="0.85"/>
<path d="M8.7229 16.6935C8.7229 17.2325 9.0979 17.6075 9.64868 17.6075H10.1409V18.5333C10.1409 18.8732 10.3753 19.1075 10.7034 19.1075C11.0315 19.1075 11.2659 18.8732 11.2659 18.5333V17.6075H12.0276V18.5333C12.0276 18.8732 12.2737 19.1075 12.5901 19.1075C12.9182 19.1075 13.1643 18.8732 13.1643 18.5333V17.5724C15.1096 17.3614 16.2464 16.2364 16.2464 14.5138C16.2464 13.1896 15.4612 12.2052 14.2542 11.8419C15.1214 11.42 15.719 10.4942 15.719 9.49817C15.719 8.04504 14.7229 6.99036 13.1643 6.75598V5.80676C13.1643 5.46692 12.9182 5.23254 12.5901 5.23254C12.2737 5.23254 12.0276 5.46692 12.0276 5.80676V6.70911H11.2659V5.80676C11.2659 5.46692 11.0315 5.23254 10.7034 5.23254C10.3753 5.23254 10.1409 5.46692 10.1409 5.80676V6.70911H9.64868C9.10962 6.70911 8.7229 7.08411 8.7229 7.63489V16.6935ZM10.2229 16.2364V12.6739H12.2034C13.8792 12.6739 14.7464 13.2716 14.7464 14.4552C14.7464 15.6153 13.9143 16.213 12.3323 16.2247L10.2229 16.2364ZM10.2229 11.3028V8.06848H12.2268C13.4924 8.06848 14.219 8.61926 14.219 9.61536C14.219 10.7169 13.3987 11.3263 11.8987 11.3146L10.2229 11.3028Z" fill="black" fill-opacity="0.85"/>
</g>
<defs>
<clipPath id="clip0_2207_26094">
<rect width="23.9062" height="23.918" fill="white" transform="translate(0.0861816 0.0294189)"/>
</clipPath>
</defs>
</svg>
