<svg width="25" height="24" viewBox="0 0 25 24" fill="none" xmlns="http://www.w3.org/2000/svg">
<g clip-path="url(#clip0_2207_11790)">
<path d="M4.72755 23.9591H7.27052C7.77442 23.9591 8.10255 23.631 8.10255 23.1153V3.81458C8.10255 3.29895 7.77442 2.97083 7.27052 2.97083H4.72755C4.23536 2.97083 3.90723 3.29895 3.90723 3.81458V23.1153C3.90723 23.631 4.23536 23.9591 4.72755 23.9591ZM10.0361 23.9591H12.5908C13.0713 23.9591 13.3994 23.631 13.3994 23.1153V3.81458C13.3994 3.29895 13.0713 2.97083 12.5908 2.97083H10.0361C9.53223 2.97083 9.20411 3.29895 9.20411 3.81458V23.1153C9.20411 23.631 9.53223 23.9591 10.0361 23.9591ZM15.333 23.9591H17.8877C18.3916 23.9591 18.7197 23.631 18.7197 23.1153V3.81458C18.7197 3.29895 18.3916 2.97083 17.8877 2.97083H15.333C14.8525 2.97083 14.5244 3.29895 14.5244 3.81458V23.1153C14.5244 23.631 14.8525 23.9591 15.333 23.9591ZM20.6533 23.9591H23.1963C23.6884 23.9591 24.0166 23.631 24.0166 23.1153V3.81458C24.0166 3.29895 23.6884 2.97083 23.1963 2.97083H20.6533C20.1611 2.97083 19.8213 3.29895 19.8213 3.81458V23.1153C19.8213 23.631 20.1611 23.9591 20.6533 23.9591Z" fill="black" fill-opacity="0.85"/>
<path d="M0.0986328 0.966919C0.0986328 1.48254 0.532227 1.91614 1.04785 1.91614H24.0283C24.5439 1.91614 24.9775 1.48254 24.9775 0.966919C24.9775 0.451294 24.5439 0.0294189 24.0283 0.0294189H1.04785C0.532227 0.0294189 0.0986328 0.451294 0.0986328 0.966919ZM1.04785 4.63489C1.48144 4.63489 1.84472 4.27161 1.84472 3.83801C1.84472 3.3927 1.48144 3.04114 1.04785 3.04114C0.602539 3.04114 0.239258 3.3927 0.239258 3.83801C0.239258 4.27161 0.602539 4.63489 1.04785 4.63489ZM1.04785 7.35364C1.48144 7.35364 1.84472 6.97864 1.84472 6.54504C1.84472 6.11145 1.48144 5.74817 1.04785 5.74817C0.602539 5.74817 0.239258 6.11145 0.239258 6.54504C0.239258 6.97864 0.602539 7.35364 1.04785 7.35364ZM1.04785 10.0606C1.48144 10.0606 1.84472 9.69739 1.84472 9.2638C1.84472 8.81848 1.48144 8.46692 1.04785 8.46692C0.602539 8.46692 0.239258 8.81848 0.239258 9.2638C0.239258 9.69739 0.602539 10.0606 1.04785 10.0606ZM1.04785 12.7794C1.48144 12.7794 1.84472 12.4044 1.84472 11.9708C1.84472 11.5372 1.48144 11.1739 1.04785 11.1739C0.602539 11.1739 0.239258 11.5372 0.239258 11.9708C0.239258 12.4044 0.602539 12.7794 1.04785 12.7794ZM1.04785 15.4864C1.48144 15.4864 1.84472 15.1232 1.84472 14.6896C1.84472 14.2442 1.48144 13.8927 1.04785 13.8927C0.602539 13.8927 0.239258 14.2442 0.239258 14.6896C0.239258 15.1232 0.602539 15.4864 1.04785 15.4864ZM1.04785 18.2052C1.48144 18.2052 1.84472 17.8302 1.84472 17.3966C1.84472 16.963 1.48144 16.5997 1.04785 16.5997C0.602539 16.5997 0.239258 16.963 0.239258 17.3966C0.239258 17.8302 0.602539 18.2052 1.04785 18.2052ZM1.04785 23.9591C1.55175 23.9591 1.98535 23.5372 1.98535 23.0216V20.256C1.98535 19.7403 1.56347 19.3185 1.04785 19.3185C0.532227 19.3185 0.0986328 19.7403 0.0986328 20.256V23.0216C0.0986328 23.5372 0.532227 23.9591 1.04785 23.9591Z" fill="black" fill-opacity="0.85"/>
</g>
<defs>
<clipPath id="clip0_2207_11790">
<rect width="24.8789" height="23.9414" fill="white" transform="translate(0.0986328 0.0294189)"/>
</clipPath>
</defs>
</svg>
