<svg width="25" height="24" viewBox="0 0 25 24" fill="none" xmlns="http://www.w3.org/2000/svg">
<g clip-path="url(#clip0_2207_11795)">
<path d="M3.77642 5.57239H21.5889C22.1631 5.57239 22.5147 5.44348 22.8194 5.15051L23.8272 4.15442C24.1553 3.83801 24.0498 3.18176 23.4756 3.18176H5.66314C5.08892 3.18176 4.73735 3.31067 4.43267 3.60364L3.42485 4.59973C3.09673 4.91614 3.2022 5.57239 3.77642 5.57239ZM3.77642 11.6192H21.5889C22.1631 11.6192 22.5147 11.5021 22.8194 11.2091L23.8272 10.2013C24.1553 9.89661 24.0498 9.24036 23.4756 9.24036H5.66314C5.08892 9.24036 4.73735 9.36926 4.43267 9.66223L3.42485 10.6583C3.09673 10.9747 3.2022 11.6192 3.77642 11.6192ZM3.77642 17.6427H21.5889C22.1631 17.6427 22.5147 17.5138 22.8194 17.2091L23.8272 16.213C24.1553 15.9083 24.0498 15.2638 23.4756 15.2638H5.66314C5.08892 15.2638 4.73735 15.381 4.43267 15.6856L3.42485 16.6817C3.09673 16.9982 3.2022 17.6427 3.77642 17.6427ZM3.77642 23.7013H21.5889C22.1631 23.7013 22.5147 23.5606 22.8194 23.256L23.8272 22.2599C24.1553 21.9552 24.0498 21.2989 23.4756 21.2989H5.66314C5.08892 21.2989 4.73735 21.4278 4.43267 21.7325L3.42485 22.7286C3.09673 23.045 3.2022 23.7013 3.77642 23.7013Z" fill="black" fill-opacity="0.85"/>
<path d="M0.0966797 0.966919C0.0966797 1.48254 0.530274 1.91614 1.0459 1.91614H24.0264C24.542 1.91614 24.9756 1.48254 24.9756 0.966919C24.9756 0.451294 24.542 0.0294189 24.0264 0.0294189H1.0459C0.530274 0.0294189 0.0966797 0.451294 0.0966797 0.966919ZM1.0459 4.63489C1.47949 4.63489 1.84277 4.27161 1.84277 3.83801C1.84277 3.3927 1.47949 3.04114 1.0459 3.04114C0.600586 3.04114 0.237305 3.3927 0.237305 3.83801C0.237305 4.27161 0.600586 4.63489 1.0459 4.63489ZM1.0459 7.35364C1.47949 7.35364 1.84277 6.97864 1.84277 6.54504C1.84277 6.11145 1.47949 5.74817 1.0459 5.74817C0.600586 5.74817 0.237305 6.11145 0.237305 6.54504C0.237305 6.97864 0.600586 7.35364 1.0459 7.35364ZM1.0459 10.0606C1.47949 10.0606 1.84277 9.69739 1.84277 9.2638C1.84277 8.81848 1.47949 8.46692 1.0459 8.46692C0.600586 8.46692 0.237305 8.81848 0.237305 9.2638C0.237305 9.69739 0.600586 10.0606 1.0459 10.0606ZM1.0459 12.7794C1.47949 12.7794 1.84277 12.4044 1.84277 11.9708C1.84277 11.5372 1.47949 11.1739 1.0459 11.1739C0.600586 11.1739 0.237305 11.5372 0.237305 11.9708C0.237305 12.4044 0.600586 12.7794 1.0459 12.7794ZM1.0459 15.4864C1.47949 15.4864 1.84277 15.1232 1.84277 14.6896C1.84277 14.2442 1.47949 13.8927 1.0459 13.8927C0.600586 13.8927 0.237305 14.2442 0.237305 14.6896C0.237305 15.1232 0.600586 15.4864 1.0459 15.4864ZM1.0459 18.2052C1.47949 18.2052 1.84277 17.8302 1.84277 17.3966C1.84277 16.963 1.47949 16.5997 1.0459 16.5997C0.600586 16.5997 0.237305 16.963 0.237305 17.3966C0.237305 17.8302 0.600586 18.2052 1.0459 18.2052ZM1.0459 23.9591C1.5498 23.9591 1.9834 23.5372 1.9834 23.0216V20.256C1.9834 19.7403 1.56152 19.3185 1.0459 19.3185C0.530274 19.3185 0.0966797 19.7403 0.0966797 20.256V23.0216C0.0966797 23.5372 0.530274 23.9591 1.0459 23.9591Z" fill="black" fill-opacity="0.85"/>
</g>
<defs>
<clipPath id="clip0_2207_11795">
<rect width="24.8789" height="23.9414" fill="white" transform="translate(0.0966797 0.0294189)"/>
</clipPath>
</defs>
</svg>
