<svg width="45" height="25" viewBox="0 0 45 25" fill="none" xmlns="http://www.w3.org/2000/svg">
<g clip-path="url(#clip0_2207_22485)">
<path d="M31.9495 24.5816H44.2073C44.594 24.5816 44.9104 24.2886 44.9104 23.8902C44.9104 23.4917 44.594 23.187 44.2073 23.187H31.9495C31.5862 23.187 31.2581 23.4917 31.2581 23.8902C31.2581 24.2886 31.5862 24.5816 31.9495 24.5816Z" fill="black" fill-opacity="0.85"/>
<path d="M38.0784 20.9839C42.3089 20.9839 44.9104 18.4527 44.9104 14.773V4.72999C44.9104 4.07374 44.4769 3.65186 43.8206 3.65186C43.1526 3.65186 42.7425 4.07374 42.7425 4.72999V14.5972C42.7425 17.2105 41.0198 18.98 38.0784 18.98C35.1604 18.98 33.4261 17.2105 33.4261 14.5972V4.72999C33.4261 4.07374 32.9925 3.65186 32.3362 3.65186C31.68 3.65186 31.2581 4.07374 31.2581 4.72999V14.773C31.2581 18.4527 33.8714 20.9839 38.0784 20.9839Z" fill="black" fill-opacity="0.85"/>
<path d="M16.6096 20.6792H24.0158C24.5666 20.6792 24.9533 20.3394 24.9533 19.7886C24.9533 19.2613 24.5783 18.9214 24.0275 18.9214H21.3908L24.2385 5.67921H26.8635C27.4143 5.67921 27.801 5.33936 27.801 4.78858C27.801 4.26124 27.426 3.92139 26.8752 3.92139H19.4455C18.8947 3.92139 18.5197 4.26124 18.5197 4.78858C18.5197 5.33936 18.9064 5.67921 19.4572 5.67921H22.0705L19.2229 18.9214H16.5979C16.0471 18.9214 15.6603 19.2613 15.6603 19.7886C15.6603 20.3394 16.0588 20.6792 16.6096 20.6792Z" fill="black" fill-opacity="0.85"/>
<path d="M1.98462 20.6792H8.09009C11.6761 20.6792 13.9378 18.7925 13.9378 15.898C13.9378 13.6128 12.2854 11.9605 9.90649 11.8316V11.7378C11.8519 11.4683 13.1761 10.0034 13.1761 8.14015C13.1761 5.52686 11.1721 3.92139 7.92603 3.92139H1.98462C0.730712 3.92139 0.00415039 4.65968 0.00415039 5.94874V18.6636C0.00415039 19.941 0.730712 20.6792 1.98462 20.6792ZM3.87134 17.9722V13.3199H6.81274C8.86353 13.3199 10.012 14.1167 10.012 15.6167C10.012 17.1519 8.9104 17.9722 6.89477 17.9722H3.87134ZM3.87134 10.8824V6.6753H6.75415C8.39477 6.6753 9.36743 7.4253 9.36743 8.71436C9.36743 10.0738 8.28931 10.8824 6.46118 10.8824H3.87134Z" fill="black" fill-opacity="0.85"/>
</g>
<defs>
<clipPath id="clip0_2207_22485">
<rect width="44.9062" height="24.5508" fill="white" transform="translate(0.00415039 0.0307617)"/>
</clipPath>
</defs>
</svg>
