<svg width="28" height="22" viewBox="0 0 28 22" fill="none" xmlns="http://www.w3.org/2000/svg">
<g clip-path="url(#clip0_2207_17482)">
<path d="M3.70703 21.605H23.9804C26.4414 21.605 27.6601 20.398 27.6601 17.9839V6.65185C27.6601 4.23779 26.4414 3.03076 23.9804 3.03076H22.3632V1.46045C22.3632 0.569824 21.8476 0.0307617 20.9453 0.0307617H17.4882C16.5976 0.0307617 16.082 0.569824 16.082 1.46045V3.03076H11.6171V1.46045C11.6171 0.569824 11.1015 0.0307617 10.1992 0.0307617H6.74218C5.83984 0.0307617 5.33593 0.569824 5.33593 1.46045V3.03076H3.70703C1.25781 3.03076 0.0273438 4.23779 0.0273438 6.65185V17.9839C0.0273438 20.398 1.25781 21.605 3.70703 21.605ZM1.91406 17.8785V6.75732C1.91406 5.53857 2.55859 4.91748 3.73046 4.91748H23.957C25.1171 4.91748 25.7734 5.53857 25.7734 6.75732V17.8785C25.7734 19.0972 25.1171 19.7183 23.957 19.7183H3.73046C2.55859 19.7183 1.91406 19.0972 1.91406 17.8785Z" fill="black" fill-opacity="0.85"/>
<path d="M10.1289 13.0738C10.1289 13.2964 10.3046 13.4488 10.5273 13.4488H13.4335L11.875 17.6089C11.6757 18.1597 12.2734 18.4644 12.625 18.0074L17.3125 12.1246C17.4062 12.0191 17.4648 11.8902 17.4648 11.7847C17.4648 11.5738 17.2773 11.4097 17.0546 11.4097H14.1601L15.707 7.26125C15.9062 6.69875 15.3203 6.39406 14.9687 6.85109L10.2695 12.7456C10.1875 12.8628 10.1289 12.9683 10.1289 13.0738Z" fill="black" fill-opacity="0.85"/>
</g>
<defs>
<clipPath id="clip0_2207_17482">
<rect width="27.6328" height="21.5977" fill="white" transform="translate(0.0273438 0.0307617)"/>
</clipPath>
</defs>
</svg>
