<svg width="17" height="27" viewBox="0 0 17 27" fill="none" xmlns="http://www.w3.org/2000/svg">
<g clip-path="url(#clip0_2207_8506)">
<path d="M5.56299 25.7325L16.2153 12.0333C16.4145 11.7872 16.52 11.5528 16.52 11.2833C16.52 10.8379 16.1685 10.4981 15.6763 10.4981H9.05518L12.5474 1.38087C13.0161 0.173842 11.7271 -0.482408 10.9653 0.525405L0.312989 14.2129C0.11377 14.4708 0.00830078 14.7051 0.00830078 14.9629C0.00830078 15.42 0.359863 15.7598 0.852051 15.7598H7.47314L3.98096 24.8653C3.51221 26.0723 4.80127 26.7286 5.56299 25.7325ZM6.25439 22.5801L10.1802 14.0137H2.93799L10.5903 3.85353L10.2622 3.67775L6.34814 12.2442H13.5786L5.92627 22.4043L6.25439 22.5801Z" fill="black" fill-opacity="0.85"/>
</g>
<defs>
<clipPath id="clip0_2207_8506">
<rect width="16.5117" height="26.3838" fill="white" transform="translate(0.00830078 0.0307617)"/>
</clipPath>
</defs>
</svg>
