<svg width="34" height="23" viewBox="0 0 34 23" fill="none" xmlns="http://www.w3.org/2000/svg">
<g clip-path="url(#clip0_2207_16006)">
<path d="M0.0314941 11.4565C0.0314941 15.1713 1.23852 18.5815 3.27758 21.3588C3.64087 21.8627 4.26196 21.9096 4.73071 21.5346C5.15258 21.1713 5.21118 20.6088 4.87133 20.1401C3.09008 17.7143 2.0354 14.7026 2.0354 11.4565C2.0354 8.19869 3.09008 5.19869 4.87133 2.74947C5.21118 2.30416 5.1643 1.72994 4.73071 1.36666C4.26196 0.991656 3.64087 1.05025 3.27758 1.54244C1.23852 4.31978 0.0314941 7.74166 0.0314941 11.4565ZM33.4768 11.4565C33.4768 7.74166 32.2815 4.31978 30.2307 1.54244C29.8674 1.05025 29.2463 0.991656 28.7776 1.36666C28.344 1.72994 28.3088 2.30416 28.637 2.74947C30.4299 5.19869 31.4729 8.19869 31.4729 11.4565C31.4729 14.7026 30.4299 17.7143 28.637 20.1401C28.3088 20.6088 28.3557 21.1713 28.7776 21.5346C29.2463 21.9096 29.8674 21.8627 30.2307 21.3588C32.2815 18.5815 33.4768 15.1713 33.4768 11.4565Z" fill="black" fill-opacity="0.85"/>
<path d="M16.7542 22.8824C23.0003 22.8824 28.1917 17.7027 28.1917 11.4566C28.1917 5.21045 23.0003 0.0307617 16.7424 0.0307617C10.4963 0.0307617 5.32837 5.19873 5.32837 11.4566C5.32837 17.7027 10.5081 22.8824 16.7542 22.8824ZM16.7542 20.8902C11.5276 20.8902 7.33227 16.6949 7.33227 11.4566C7.33227 6.20654 11.5159 2.01123 16.7424 2.01123C21.9807 2.01123 26.1877 6.20654 26.1995 11.4566C26.2112 16.6831 22.0042 20.8902 16.7542 20.8902Z" fill="black" fill-opacity="0.85"/>
<path d="M11.8557 12.2183C11.8557 12.4996 12.0901 12.6988 12.3713 12.6988H16.1448L14.1292 18.1246C13.8596 18.8394 14.6213 19.2261 15.0901 18.6519L21.2073 10.9761C21.3362 10.8355 21.3948 10.6714 21.3948 10.5308C21.3948 10.2496 21.1721 10.0503 20.8792 10.0503H17.1057L19.1213 4.63625C19.3909 3.9214 18.6292 3.52297 18.1604 4.09719L12.0432 11.773C11.926 11.9253 11.8557 12.0777 11.8557 12.2183Z" fill="black" fill-opacity="0.85"/>
</g>
<defs>
<clipPath id="clip0_2207_16006">
<rect width="33.4453" height="22.8633" fill="white" transform="translate(0.0314941 0.0307617)"/>
</clipPath>
</defs>
</svg>
