<svg width="24" height="24" viewBox="0 0 24 24" fill="none" xmlns="http://www.w3.org/2000/svg">
<g clip-path="url(#clip0_2207_15315)">
<path d="M11.9887 23.937C18.5278 23.937 23.9418 18.5113 23.9418 11.9839C23.9418 5.44482 18.5161 0.0307617 11.977 0.0307617C5.4497 0.0307617 0.0356445 5.44482 0.0356445 11.9839C0.0356445 18.5113 5.46142 23.937 11.9887 23.937ZM11.9887 21.9449C6.45752 21.9449 2.03955 17.5152 2.03955 11.9839C2.03955 6.45264 6.4458 2.02295 11.977 2.02295C17.5083 2.02295 21.9497 6.45264 21.9497 11.9839C21.9497 17.5152 17.52 21.9449 11.9887 21.9449Z" fill="black" fill-opacity="0.85"/>
<path d="M5.55518 15.8628C5.55518 16.273 5.87159 16.5777 6.28174 16.5777H6.92627C7.32471 16.5777 7.64112 16.273 7.64112 15.8628V14.9605C8.84815 15.0308 10.5942 15.0894 11.9887 15.0894C13.3833 15.0894 15.1176 15.0308 16.3247 14.9605V15.8628C16.3247 16.273 16.6411 16.5777 17.0512 16.5777H17.6958C18.0942 16.5777 18.4106 16.273 18.4106 15.8628V12.7339C18.4106 11.8316 18.2231 11.316 17.7192 10.6597L17.2622 10.0738C17.0512 9.08935 16.6997 8.0581 16.5239 7.65967C16.2309 7.05029 15.6684 6.69873 14.9418 6.59326C14.5786 6.54638 13.3833 6.52295 11.9887 6.52295C10.5825 6.52295 9.39893 6.54638 9.02393 6.59326C8.30909 6.68701 7.74659 7.05029 7.45362 7.65967C7.26612 8.0581 6.91456 9.08935 6.71534 10.0738L6.24659 10.6597C5.7544 11.316 5.55518 11.8316 5.55518 12.7339V15.8628ZM10.0551 11.2339C10.0551 11.1636 10.0786 11.0933 10.1372 11.023L12.4926 8.01123C12.7153 7.71826 13.0668 7.90576 12.9379 8.2456L12.2114 10.2027H13.6762C13.8168 10.2027 13.9223 10.3081 13.9223 10.4488C13.9223 10.5074 13.8754 10.5894 13.8403 10.648L11.5083 13.6597C11.2856 13.9527 10.9106 13.7535 11.0395 13.4136L11.7661 11.4449H10.3012C10.1606 11.4449 10.0551 11.3511 10.0551 11.2339Z" fill="black" fill-opacity="0.85"/>
</g>
<defs>
<clipPath id="clip0_2207_15315">
<rect width="23.9062" height="23.918" fill="white" transform="translate(0.0356445 0.0307617)"/>
</clipPath>
</defs>
</svg>
