<svg width="24" height="23" viewBox="0 0 24 23" fill="none" xmlns="http://www.w3.org/2000/svg">
<g clip-path="url(#clip0_2207_7947)">
<path d="M0.0483398 7.82373C0.0483398 12.816 4.23193 17.7261 10.8413 21.9449C11.0874 22.0972 11.4506 22.2613 11.685 22.2613C11.9311 22.2613 12.2827 22.0972 12.5405 21.9449C19.1499 17.7261 23.3335 12.816 23.3335 7.82373C23.3335 3.67529 20.4858 0.745605 16.6772 0.745605C14.5092 0.745605 12.7514 1.77685 11.685 3.35888C10.6421 1.78857 8.87256 0.745605 6.69287 0.745605C2.896 0.745605 0.0483398 3.67529 0.0483398 7.82373ZM1.93506 7.82373C1.93506 4.70654 3.95068 2.63232 6.66943 2.63232C8.88428 2.63232 10.1381 4.00342 10.8999 5.17529C11.2163 5.64404 11.4155 5.77295 11.685 5.77295C11.9663 5.77295 12.1421 5.63232 12.4819 5.17529C13.2905 4.02685 14.5092 2.63232 16.7006 2.63232C19.4311 2.63232 21.4467 4.70654 21.4467 7.82373C21.4467 12.1831 16.8413 16.8824 11.9311 20.1402C11.8139 20.2222 11.7319 20.2808 11.685 20.2808C11.6499 20.2808 11.5678 20.2222 11.4506 20.1402C6.54053 16.8824 1.93506 12.1831 1.93506 7.82373Z" fill="black" fill-opacity="0.85"/>
<path d="M7.87646 12.6519C7.87646 12.8628 8.05225 13.0152 8.2749 13.0152H11.1811L9.62256 17.1753C9.42334 17.7261 10.0093 18.0308 10.3725 17.5855L15.06 11.691C15.1538 11.5855 15.2124 11.4566 15.2124 11.3511C15.2124 11.1402 15.0249 10.9761 14.8022 10.9761H11.9077L13.4545 6.8277C13.6538 6.2652 13.0678 5.97223 12.7163 6.41754L8.01709 12.312C7.93506 12.4292 7.87646 12.5347 7.87646 12.6519Z" fill="black" fill-opacity="0.85"/>
</g>
<defs>
<clipPath id="clip0_2207_7947">
<rect width="23.2852" height="22.2305" fill="white" transform="translate(0.0483398 0.0307617)"/>
</clipPath>
</defs>
</svg>
