<svg width="30" height="23" viewBox="0 0 30 23" fill="none" xmlns="http://www.w3.org/2000/svg">
<g clip-path="url(#clip0_2207_8739)">
<path d="M23.2172 20.398C26.7563 20.398 29.5219 17.8081 29.5219 14.5855C29.5219 12.1246 28.104 9.9917 25.8188 9.03076C25.8422 3.8042 22.0805 0.0307617 17.2876 0.0307617C14.1118 0.0307617 11.8501 1.72998 10.4438 3.78076C7.56104 2.93701 4.42041 5.12842 4.36181 8.40967C1.71338 8.83154 0.0610352 11.1988 0.0610352 14.0581C0.0610352 17.5035 3.07275 20.398 7.08056 20.398H23.2172ZM23.2172 18.5113H7.08056C4.12745 18.5113 1.94776 16.4488 1.94776 14.0581C1.94776 11.7144 3.36573 9.85107 5.8501 9.85107C6.01416 9.85107 6.07276 9.76904 6.07276 9.6167C6.07276 6.00732 8.67432 4.94092 11.0766 5.72607C11.2172 5.77295 11.2993 5.73779 11.3696 5.60888C12.5063 3.58154 14.2524 1.91748 17.2876 1.91748C21.1313 1.91748 23.7915 4.96435 23.9907 8.44482C24.0258 8.98388 23.9907 9.6167 23.9438 10.1675C23.9321 10.3199 23.9907 10.4019 24.1313 10.437C26.2641 10.9058 27.6352 12.4644 27.6352 14.5855C27.6352 16.7652 25.7133 18.5113 23.2172 18.5113Z" fill="black" fill-opacity="0.85"/>
<path d="M7.22114 13.3902C6.68207 14.0816 7.3852 14.7027 8.05317 14.3511L11.9321 12.2535L17.0298 14.9839C17.2524 15.1128 17.4751 15.1831 17.6626 15.1831C17.9321 15.1831 18.1899 15.0425 18.4243 14.7496L22.3852 9.62842C22.8774 8.98388 22.2563 8.31592 21.5532 8.69092L17.6508 10.7886L12.5649 8.04638C12.3422 7.9292 12.1196 7.84717 11.9204 7.84717C11.6508 7.84717 11.4048 7.98779 11.1704 8.29248L7.22114 13.3902Z" fill="black" fill-opacity="0.85"/>
</g>
<defs>
<clipPath id="clip0_2207_8739">
<rect width="29.4609" height="22.2773" fill="white" transform="translate(0.0610352 0.0307617)"/>
</clipPath>
</defs>
</svg>
