<svg width="24" height="23" viewBox="0 0 24 23" fill="none" xmlns="http://www.w3.org/2000/svg">
<g clip-path="url(#clip0_2207_7952)">
<path d="M11.6871 22.2613C11.9332 22.2613 12.2848 22.0972 12.5426 21.9449C19.152 17.7261 23.3356 12.816 23.3356 7.82373C23.3356 3.67529 20.4879 0.745605 16.7965 0.745605C14.5113 0.745605 12.7535 2.01123 11.6871 3.94482C10.6442 2.02295 8.87463 0.745605 6.57775 0.745605C2.89807 0.745605 0.050415 3.67529 0.050415 7.82373C0.050415 12.816 4.23401 17.7261 10.8434 21.9449C11.0895 22.0972 11.4527 22.2613 11.6871 22.2613Z" fill="black" fill-opacity="0.85"/>
<path d="M7.76135 12.6988C7.76135 12.5699 7.81994 12.4644 7.91369 12.3472L12.7535 6.2652C13.1168 5.80816 13.7262 6.11285 13.5152 6.68707L11.9215 10.9644H14.9098C15.1324 10.9644 15.3316 11.1402 15.3316 11.3511C15.3316 11.4683 15.2731 11.5972 15.1676 11.7027L10.3395 17.7847C9.96447 18.2417 9.3551 17.9253 9.56603 17.3628L11.1715 13.0738H8.1715C7.94885 13.0738 7.76135 12.9097 7.76135 12.6988Z" fill="white"/>
</g>
<defs>
<clipPath id="clip0_2207_7952">
<rect width="23.2852" height="22.2305" fill="white" transform="translate(0.050415 0.0307617)"/>
</clipPath>
</defs>
</svg>
