<svg width="20" height="26" viewBox="0 0 20 26" fill="none" xmlns="http://www.w3.org/2000/svg">
<g clip-path="url(#clip0_2207_1557)">
<path d="M3.60401 25.1455H18.7797C19.2954 25.1455 19.7172 24.7353 19.7172 24.208C19.7172 23.7978 19.436 23.4345 19.061 23.3056C17.5844 22.7197 17.2797 20.8095 18.7329 19.3447C19.1782 18.8994 19.7172 18.3252 19.7172 17.1533V3.71192C19.7172 1.27442 18.5102 0.0322266 16.0844 0.0322266H3.63916C1.21338 0.0322266 0.00634766 1.2627 0.00634766 3.71192V21.5244C0.00634766 23.9384 1.2251 25.1455 3.60401 25.1455ZM3.70947 23.2588C2.52588 23.2588 1.89307 22.626 1.89307 21.5127C1.89307 20.458 2.64307 19.7783 3.81494 19.7783H15.8383C15.9907 19.7783 16.1313 19.7666 16.2485 19.7431C15.6977 20.9619 15.7915 22.251 16.4125 23.2588H3.70947ZM3.35791 17.997C2.99463 17.997 2.68994 17.6924 2.68994 17.3174V2.51661C2.68994 2.14161 2.99463 1.84864 3.35791 1.84864C3.72119 1.84864 4.0376 2.14161 4.0376 2.51661V17.3174C4.0376 17.6924 3.72119 17.997 3.35791 17.997Z" fill="black" fill-opacity="0.85"/>
</g>
<defs>
<clipPath id="clip0_2207_1557">
<rect width="19.7109" height="25.1133" fill="white" transform="translate(0.00634766 0.0322266)"/>
</clipPath>
</defs>
</svg>
