<svg width="16" height="26" viewBox="0 0 16 26" fill="none" xmlns="http://www.w3.org/2000/svg">
<g clip-path="url(#clip0_2207_1637)">
<path d="M1.25684 25.1689C1.83106 25.1689 2.1709 24.8408 3.22559 23.8213L7.80762 19.3095C7.86621 19.251 7.97168 19.251 8.01856 19.3095L12.6005 23.8213C13.6552 24.8408 13.9951 25.1689 14.5693 25.1689C15.3544 25.1689 15.8115 24.6533 15.8115 23.7392V3.39551C15.8115 1.16895 14.6982 0.0322266 12.4951 0.0322266H3.33106C1.12793 0.0322266 0.0146484 1.16895 0.0146484 3.39551V23.7392C0.0146484 24.6533 0.471679 25.1689 1.25684 25.1689ZM2.21777 22.0049C2.05371 22.1689 1.86621 22.122 1.86621 21.8877V3.41895C1.86621 2.41114 2.39356 1.88379 3.42481 1.88379H12.413C13.4326 1.88379 13.9599 2.41114 13.9599 3.41895V21.8877C13.9599 22.122 13.7841 22.1689 13.6084 22.0049L8.53418 17.083C8.15918 16.7197 7.66699 16.7197 7.29199 17.083L2.21777 22.0049Z" fill="black" fill-opacity="0.85"/>
</g>
<defs>
<clipPath id="clip0_2207_1637">
<rect width="15.7969" height="25.1836" fill="white" transform="translate(0.0146484 0.0322266)"/>
</clipPath>
</defs>
</svg>
