<svg width="23" height="30" viewBox="0 0 23 30" fill="none" xmlns="http://www.w3.org/2000/svg">
<g clip-path="url(#clip0_2207_1051)">
<path d="M22.8035 24.4492V7.0235C22.8035 4.57428 21.5847 3.34381 19.1707 3.34381H7.76831C5.35425 3.34381 4.1355 4.57428 4.1355 7.0235V24.4492C4.1355 26.8985 5.35425 28.1172 7.76831 28.1172H19.1707C21.5847 28.1172 22.8035 26.8985 22.8035 24.4492Z" fill="black" fill-opacity="0.85"/>
<path d="M0.010498 24.086C0.010498 26.9688 1.95581 28.8321 5.13159 28.6446C9.11597 28.4336 12.7605 28.0586 17.366 26.7813C19.7449 26.1016 20.8347 24.5781 20.8347 21.8477V4.69146C20.8347 1.21099 18.5144 -0.546827 15.3621 0.203173C12.1277 0.929736 8.77612 1.48052 4.65112 1.7149C1.92066 1.89068 0.010498 3.64849 0.010498 6.63677V24.086Z" fill="white"/>
<path d="M1.60425 24.086C1.60425 26.125 2.86988 27.1797 5.03784 27.0508C8.97534 26.8399 12.4558 26.4766 16.9324 25.2461C18.5964 24.7774 19.241 23.8985 19.241 21.8477V4.69148C19.241 2.35945 17.9871 1.22273 15.7371 1.75007C12.4558 2.48835 8.97534 3.07429 4.75659 3.32038C2.85816 3.43757 1.60425 4.5157 1.60425 6.63679V24.086ZM3.49097 23.7461V6.58992C3.49097 5.60554 4.10034 5.21882 4.97925 5.17195C9.0105 4.96101 12.4207 4.37507 15.6316 3.64851C16.7214 3.40242 17.3543 3.96492 17.3543 5.0196V21.7774C17.3543 22.8555 16.991 23.336 16.0886 23.5703C12.4207 24.5899 9.0105 24.9649 5.11988 25.1641C4.10034 25.211 3.49097 24.6953 3.49097 23.7461Z" fill="black" fill-opacity="0.85"/>
<path d="M6.06908 9.32037C9.38549 9.10944 12.0574 8.65242 14.7878 8.04304C15.3269 7.92585 15.4558 7.65632 15.4558 7.3282C15.4558 6.96492 15.1746 6.64851 14.6589 6.75398C12.0574 7.3282 9.38549 7.79694 6.06908 8.00787C5.60033 8.04303 5.3894 8.32429 5.3894 8.68757C5.3894 9.06257 5.67065 9.34381 6.06908 9.32037ZM6.06908 13.0938C9.38549 12.8828 12.0574 12.4141 14.7878 11.8164C15.3269 11.6992 15.4558 11.4297 15.4558 11.1016C15.4558 10.7383 15.1746 10.4219 14.6589 10.5274C12.0574 11.1016 9.38549 11.5703 6.06908 11.7813C5.60033 11.8164 5.3894 12.0977 5.3894 12.4492C5.3894 12.8242 5.67065 13.1172 6.06908 13.0938ZM6.06908 16.8672C9.38549 16.6563 12.0574 16.1875 14.7878 15.5899C15.3269 15.4727 15.4558 15.2031 15.4558 14.875C15.4558 14.5117 15.1746 14.1953 14.6589 14.3008C12.0574 14.875 9.38549 15.3438 6.06908 15.5547C5.60033 15.5899 5.3894 15.8711 5.3894 16.2227C5.3894 16.5977 5.67065 16.8906 6.06908 16.8672ZM6.06908 20.6289C7.99096 20.5235 9.2683 20.336 10.5339 20.1367C10.9207 20.0664 11.1316 19.7617 11.1316 19.4571C11.1316 19.1055 10.8503 18.7656 10.323 18.8594C9.19799 19.0352 7.9558 19.211 6.06908 19.3164C5.60033 19.3516 5.3894 19.6328 5.3894 19.9844C5.3894 20.3594 5.67065 20.6524 6.06908 20.6289Z" fill="black" fill-opacity="0.85"/>
</g>
<defs>
<clipPath id="clip0_2207_1051">
<rect width="22.793" height="29.3224" fill="white" transform="translate(0.010498 0.0322266)"/>
</clipPath>
</defs>
</svg>
