<svg width="30" height="23" viewBox="0 0 30 23" fill="none" xmlns="http://www.w3.org/2000/svg">
<g clip-path="url(#clip0_2207_17592)">
<path d="M1.03198 21.7884C1.30151 21.7884 1.57104 21.7064 1.7937 21.5072C3.25854 20.2416 5.22729 19.5853 7.1726 19.5853C8.93042 19.5853 10.6179 20.1244 12.0711 21.3314C11.157 19.6791 11.45 17.722 12.8211 16.3275V3.63611C12.8211 3.33143 12.7976 3.26111 12.575 2.94471C11.4265 1.29236 9.17651 0.296265 6.71557 0.296265C4.12573 0.296265 1.44214 1.49158 0.235107 3.5658C0.106201 3.80018 0.0944824 3.95252 0.0944824 4.38611V20.9213C0.0944824 21.4603 0.446044 21.7884 1.03198 21.7884ZM14.3562 15.0736C15.8093 14.0306 17.5672 12.9759 18.6687 11.8627C19.7703 10.7845 18.364 8.10096 20.9773 5.60486C22.6062 4.05799 25.0437 3.67127 27.0828 4.5033C27.0828 3.95252 27.0828 3.78846 26.9539 3.5658C25.7351 1.49158 23.0633 0.296265 20.4734 0.296265C18.0007 0.296265 15.7625 1.29236 14.614 2.94471C14.3797 3.26111 14.3562 3.33143 14.3562 3.63611V15.0736ZM20.9187 19.6439C22.5593 19.8197 24.1648 20.4525 25.3953 21.5072C25.6179 21.7064 25.8757 21.7884 26.157 21.7884C26.7429 21.7884 27.0828 21.4603 27.0828 20.9213V15.3431C25.5242 15.9877 24.3875 15.4252 23.5789 16.2338C22.8054 17.0189 21.7859 18.4017 20.9187 19.6439Z" fill="black" fill-opacity="0.85"/>
<path d="M13.9695 21.2378C15.1062 22.3745 16.8054 22.4214 17.9187 21.0854C18.739 20.101 20.8015 16.7495 22.5711 14.98C23.5554 13.9956 24.8797 13.8784 25.6179 13.8784C28.3836 13.8784 29.4617 11.6518 29.1218 10.1167L25.6179 11.0425L25.2195 9.61275C25.0789 9.0854 25.3015 8.64009 25.8992 8.47603L28.489 7.78462C28.3953 7.55025 28.1726 7.2104 27.8914 6.91743C26.2976 5.30025 23.6609 5.26509 22.0906 6.76509C19.8054 8.93306 21.5515 11.2534 20.0398 12.7651C18.1414 14.6518 15.5164 16.0346 14.1218 17.2768C12.8093 18.4487 12.8211 20.0893 13.9695 21.2378ZM15.9148 20.1362C15.4461 20.1362 15.0593 19.7495 15.0593 19.2807C15.0593 18.812 15.4461 18.437 15.9148 18.437C16.3953 18.437 16.7703 18.812 16.7703 19.2807C16.7703 19.7495 16.3953 20.1362 15.9148 20.1362Z" fill="black" fill-opacity="0.85"/>
</g>
<defs>
<clipPath id="clip0_2207_17592">
<rect width="29.088" height="22.0585" fill="white" transform="translate(0.0944824 0.0307617)"/>
</clipPath>
</defs>
</svg>
