<svg width="24" height="24" viewBox="0 0 24 24" fill="none" xmlns="http://www.w3.org/2000/svg">
<g clip-path="url(#clip0_2207_1566)">
<path d="M11.9573 23.9502C18.4964 23.9502 23.9104 18.5361 23.9104 11.997C23.9104 5.46973 18.4846 0.0439453 11.9455 0.0439453C5.41821 0.0439453 0.00415039 5.46973 0.00415039 11.997C0.00415039 18.5361 5.42993 23.9502 11.9573 23.9502Z" fill="black" fill-opacity="0.85"/>
<path d="M8.78149 18.3838C7.56274 18.3838 6.94165 17.7627 6.94165 16.5205V7.52051C6.94165 6.24317 7.56274 5.62207 8.79321 5.62207H15.0979C16.34 5.62207 16.9612 6.25489 16.9612 7.52051V14.3174C16.9612 14.8916 16.6917 15.208 16.4573 15.4424C15.7425 16.1455 15.8831 17.0947 16.6214 17.3994C16.8089 17.458 16.9612 17.6689 16.9612 17.8799C16.9612 18.1611 16.7269 18.3838 16.4573 18.3838H8.78149ZM8.84009 17.376H15.1917C14.9222 16.8603 14.887 16.251 15.1214 15.6533C15.0745 15.665 15.0276 15.665 14.969 15.665H8.88696C8.32446 15.665 7.94946 16.0049 7.94946 16.5088C7.94946 17.0595 8.26587 17.376 8.84009 17.376ZM8.65259 14.6689C8.86353 14.6689 9.03931 14.5166 9.03931 14.3056V7.00489C9.03931 6.80567 8.86353 6.62989 8.65259 6.62989C8.45337 6.62989 8.30103 6.79395 8.30103 7.00489V14.3056C8.30103 14.5166 8.45337 14.6689 8.65259 14.6689Z" fill="white"/>
</g>
<defs>
<clipPath id="clip0_2207_1566">
<rect width="23.9062" height="23.918" fill="white" transform="translate(0.00415039 0.0322266)"/>
</clipPath>
</defs>
</svg>
