<svg width="24" height="24" viewBox="0 0 24 24" fill="none" xmlns="http://www.w3.org/2000/svg">
<g clip-path="url(#clip0_2207_1548)">
<path d="M11.9887 23.9502C18.5278 23.9502 23.9418 18.5361 23.9418 11.997C23.9418 5.46973 18.5161 0.0439453 11.977 0.0439453C5.4497 0.0439453 0.0356445 5.46973 0.0356445 11.997C0.0356445 18.5361 5.46142 23.9502 11.9887 23.9502Z" fill="black" fill-opacity="0.85"/>
<path d="M5.09814 17.2353V7.79004C5.09814 7.35645 5.35595 7.12207 5.81298 7.12207H6.85595C7.30126 7.12207 7.54736 7.35645 7.54736 7.79004V17.2353C7.54736 17.6689 7.30126 17.915 6.85595 17.915H5.81298C5.35595 17.915 5.09814 17.6689 5.09814 17.2353ZM8.35595 17.2353V9.7002C8.35595 9.27832 8.61376 9.00879 9.04736 9.00879H11.309C11.7661 9.00879 11.9887 9.27832 11.9887 9.7002V17.2353C11.9887 17.6689 11.7661 17.915 11.309 17.915H9.04736C8.61376 17.915 8.35595 17.6689 8.35595 17.2353ZM9.22314 16.2744C9.22314 16.4853 9.37548 16.6494 9.5747 16.6494H10.7934C11.0044 16.6494 11.1567 16.4853 11.1567 16.2744C11.1567 16.0752 11.0044 15.9111 10.7934 15.9111H9.5747C9.36376 15.9111 9.22314 16.0634 9.22314 16.2744ZM9.22314 10.6728C9.22314 10.8603 9.36376 11.0361 9.5747 11.0361H10.7934C11.0044 11.0361 11.1567 10.8486 11.1567 10.6728C11.1567 10.4619 11.0044 10.3095 10.7934 10.3095H9.5747C9.37548 10.3095 9.22314 10.4619 9.22314 10.6728ZM12.8208 17.2353V6.25489C12.8208 5.80957 13.0434 5.56348 13.5004 5.56348H14.8715C15.3168 5.56348 15.5629 5.80957 15.5629 6.25489V7.4502L16.4887 7.21582C16.9223 7.11035 17.2036 7.33301 17.2856 7.76661L19.184 16.8838C19.2544 17.3174 19.0668 17.6103 18.6333 17.7041L17.7544 17.915C17.3325 18.0205 17.0395 17.8095 16.9575 17.3877L15.5629 10.6377V17.2353C15.5629 17.6689 15.3168 17.915 14.8715 17.915H13.5004C13.0434 17.915 12.8208 17.6689 12.8208 17.2353Z" fill="white"/>
</g>
<defs>
<clipPath id="clip0_2207_1548">
<rect width="23.9062" height="23.918" fill="white" transform="translate(0.0356445 0.0322266)"/>
</clipPath>
</defs>
</svg>
