<svg width="27" height="22" viewBox="0 0 27 22" fill="none" xmlns="http://www.w3.org/2000/svg">
<g clip-path="url(#clip0_2207_1517)">
<path d="M0.090332 19.8472C0.090332 20.8081 0.723144 21.1831 1.41455 21.1831C1.81299 21.1831 2.15283 20.9488 2.59814 20.6792C3.88721 19.8003 5.48095 19.2613 7.10986 19.273C8.79736 19.2847 10.4731 19.9058 11.7856 21.1714C12.3012 21.6402 12.6762 21.7925 13.1098 21.7925C13.5317 21.7925 13.9184 21.6402 14.4223 21.1714C15.7348 19.9175 17.4106 19.2847 19.1098 19.273C20.7387 19.2613 22.3208 19.8003 23.6098 20.6792C24.0551 20.9488 24.395 21.1831 24.8051 21.1831C25.4848 21.1831 26.1176 20.8081 26.1176 19.8472V3.94482C26.1176 3.7456 26.1059 3.58154 25.977 3.38232C24.9341 1.56592 22.2856 0.0307617 19.063 0.0307617C16.5083 0.0307617 14.2934 1.05029 13.1098 2.4917C11.9262 1.05029 9.69971 0.0307617 7.15674 0.0307617C3.92236 0.0307617 1.27392 1.56592 0.230957 3.38232C0.11377 3.58154 0.090332 3.7456 0.090332 3.94482V19.8472ZM1.97705 18.8511V4.21435C2.92627 2.84326 4.98877 1.91748 7.15674 1.91748C9.3833 1.91748 11.3286 2.85498 12.1606 4.28467V19.0503C10.9653 18.1011 9.10205 17.3863 7.15674 17.3863C5.11767 17.3863 3.21924 17.9605 1.97705 18.8511ZM14.0473 19.0503V4.28467C14.8794 2.85498 16.8364 1.91748 19.063 1.91748C21.2192 1.91748 23.2817 2.84326 24.2309 4.21435V18.8511C22.9887 17.9605 21.0903 17.3863 19.063 17.3863C17.1059 17.3863 15.2426 18.1011 14.0473 19.0503Z" fill="black" fill-opacity="0.85"/>
</g>
<defs>
<clipPath id="clip0_2207_1517">
<rect width="26.0273" height="21.7852" fill="white" transform="translate(0.090332 0.0307617)"/>
</clipPath>
</defs>
</svg>
