<svg width="34" height="23" viewBox="0 0 34 23" fill="none" xmlns="http://www.w3.org/2000/svg">
<g clip-path="url(#clip0_2207_15941)">
<path d="M0.050415 11.458C0.050415 15.1728 1.25744 18.583 3.2965 21.3603C3.6598 21.8642 4.28089 21.9111 4.74964 21.5361C5.1715 21.1728 5.2301 20.6103 4.89025 20.1416C3.109 17.7158 2.05433 14.7041 2.05433 11.458C2.05433 8.20022 3.109 5.20021 4.89025 2.75099C5.2301 2.30568 5.18323 1.73146 4.74964 1.36818C4.28089 0.993182 3.6598 1.05177 3.2965 1.54396C1.25744 4.3213 0.050415 7.74319 0.050415 11.458ZM33.4957 11.458C33.4957 7.74319 32.3004 4.3213 30.2496 1.54396C29.8863 1.05177 29.2652 0.993182 28.7965 1.36818C28.3629 1.73146 28.3277 2.30568 28.6559 2.75099C30.4488 5.20021 31.4918 8.20022 31.4918 11.458C31.4918 14.7041 30.4488 17.7158 28.6559 20.1416C28.3277 20.6103 28.3746 21.1728 28.7965 21.5361C29.2652 21.9111 29.8863 21.8642 30.2496 21.3603C32.3004 18.583 33.4957 15.1728 33.4957 11.458Z" fill="black" fill-opacity="0.85"/>
<path d="M16.7731 22.8838C23.0192 22.8838 28.2106 17.7041 28.2106 11.458C28.2106 5.21192 23.0192 0.0322266 16.7613 0.0322266C10.5152 0.0322266 5.34729 5.2002 5.34729 11.458C5.34729 17.7041 10.527 22.8838 16.7731 22.8838ZM16.7731 20.8916C11.5465 20.8916 7.35119 16.6963 7.35119 11.458C7.35119 6.20801 11.5348 2.0127 16.7613 2.0127C21.9996 2.0127 26.2066 6.20801 26.2184 11.458C26.2301 16.6845 22.0231 20.8916 16.7731 20.8916Z" fill="black" fill-opacity="0.85"/>
</g>
<defs>
<clipPath id="clip0_2207_15941">
<rect width="33.4453" height="22.8633" fill="white" transform="translate(0.050415 0.0322266)"/>
</clipPath>
</defs>
</svg>
