<svg width="24" height="24" viewBox="0 0 24 24" fill="none" xmlns="http://www.w3.org/2000/svg">
<g clip-path="url(#clip0_2207_26267)">
<path d="M12.0119 23.9384C18.551 23.9384 23.965 18.5127 23.965 11.9853C23.965 5.44629 18.5393 0.0322266 12.0002 0.0322266C5.4729 0.0322266 0.0588379 5.44629 0.0588379 11.9853C0.0588379 18.5127 5.48462 23.9384 12.0119 23.9384Z" fill="black" fill-opacity="0.85"/>
<path d="M6.91431 17.4463C6.44556 17.4463 6.11743 17.1299 6.11743 16.6611V7.56739C6.11743 6.91114 6.44556 6.46582 7.04322 6.46582H9.00025C11.0393 6.46582 12.0002 7.57911 12.0002 9.52442C12.0002 10.79 11.4611 12.0674 10.4416 12.4541L12.0119 16.3564C12.2815 17.0595 11.7658 17.4463 11.2385 17.4463C10.9338 17.4463 10.6408 17.3056 10.5119 16.9541L8.9065 12.7588C8.81275 12.7705 8.74243 12.7705 8.6604 12.7705H7.71118V16.6611C7.71118 17.1299 7.38306 17.4463 6.91431 17.4463ZM7.71118 11.54H8.82446C9.91431 11.54 10.383 10.7314 10.383 9.58301C10.383 8.44629 9.89087 7.75489 8.81275 7.75489H7.71118V11.54ZM15.9611 18.2666C15.6799 18.2666 15.4572 18.0322 15.4572 17.751V16.9306C14.051 16.7666 13.1838 15.876 13.008 14.622C12.9143 14.001 13.301 13.6494 13.7229 13.6494C14.051 13.6494 14.3322 13.8603 14.3791 14.2588C14.4494 14.9853 14.7893 15.4775 15.4572 15.6064V12.5127L15.0354 12.3017C13.7697 11.6455 13.008 10.8252 13.008 9.5127C13.008 8.09473 14.0158 7.11035 15.4572 6.95801V6.16114C15.4572 5.89161 15.6799 5.65723 15.9611 5.65723C16.2307 5.65723 16.465 5.89161 16.465 6.16114V6.96973C17.7776 7.16895 18.5744 8.07129 18.715 9.24317C18.8205 9.92285 18.4104 10.2275 17.9885 10.2275C17.6604 10.2275 17.3557 10.0049 17.3205 9.60645C17.2736 8.98535 16.9807 8.49317 16.465 8.31739V11.3291L16.8635 11.5517C18.2697 12.3134 18.9143 13.1338 18.9143 14.2939C18.9143 15.7939 17.9299 16.7666 16.465 16.9424V17.751C16.465 18.0322 16.2307 18.2666 15.9611 18.2666ZM15.4572 8.27051C14.8713 8.41114 14.508 8.83301 14.508 9.45411C14.508 10.0986 14.9182 10.4736 15.3986 10.7549L15.4572 10.79V8.27051ZM16.465 15.6064C17.0861 15.4775 17.4377 15.0205 17.4377 14.3994C17.4377 13.8369 17.0276 13.4033 16.5002 13.0752L16.465 13.0634V15.6064Z" fill="white"/>
</g>
<defs>
<clipPath id="clip0_2207_26267">
<rect width="23.9062" height="23.918" fill="white" transform="translate(0.0588379 0.0322266)"/>
</clipPath>
</defs>
</svg>
