<svg width="22" height="22" viewBox="0 0 22 22" fill="none" xmlns="http://www.w3.org/2000/svg">
<g clip-path="url(#clip0_2207_26272)">
<path d="M3.74073 21.6299H17.9555C20.4165 21.6299 21.6352 20.4111 21.6352 17.997V3.68848C21.6352 1.27442 20.4165 0.0556641 17.9555 0.0556641H3.74073C1.29151 0.0556641 0.0610352 1.2627 0.0610352 3.68848V17.997C0.0610352 20.4228 1.29151 21.6299 3.74073 21.6299ZM3.76416 19.7431C2.59229 19.7431 1.94776 19.122 1.94776 17.9033V3.78223C1.94776 2.56348 2.59229 1.94239 3.76416 1.94239H17.9321C19.0922 1.94239 19.7485 2.56348 19.7485 3.78223V17.9033C19.7485 19.122 19.0922 19.7431 17.9321 19.7431H3.76416Z" fill="black" fill-opacity="0.85"/>
<path d="M5.69776 16.122C6.14307 16.122 6.45948 15.8056 6.45948 15.3486V11.5752H7.38526C7.46729 11.5752 7.5376 11.5752 7.63135 11.5752L9.18995 15.6299C9.31885 15.9814 9.6001 16.122 9.90479 16.122C10.3969 16.122 10.9008 15.7353 10.6313 15.0674L9.10792 11.2822C10.104 10.8955 10.6196 9.65332 10.6196 8.42285C10.6196 6.54785 9.69385 5.46973 7.71338 5.46973H5.81495C5.24073 5.46973 4.92432 5.90332 4.92432 6.53614V15.3486C4.92432 15.8056 5.24073 16.122 5.69776 16.122ZM6.45948 10.3799V6.71192H7.54932C8.58057 6.71192 9.06104 7.37989 9.06104 8.48145C9.06104 9.59473 8.60401 10.3799 7.56104 10.3799H6.45948ZM14.4751 15.6416C16.1626 15.6416 17.3227 14.6689 17.3227 13.0634C17.3227 11.9267 16.7133 11.1181 15.3305 10.3916L14.2876 9.84082C13.6782 9.52442 13.0454 9.12598 13.0454 8.35254C13.0454 7.62598 13.5844 7.15723 14.393 7.15723C15.2837 7.15723 15.729 7.71973 15.7876 8.51661C15.8227 8.89161 16.1157 9.11426 16.4321 9.11426C16.8422 9.11426 17.229 8.80957 17.1352 8.16504C16.9712 6.8877 15.9985 5.91504 14.393 5.91504C12.7876 5.91504 11.604 6.89942 11.604 8.41114C11.604 9.68848 12.3305 10.5088 13.5727 11.1181L14.5805 11.622C15.2485 11.9502 15.893 12.4658 15.893 13.1689C15.893 13.9072 15.3774 14.3994 14.4751 14.3994C13.4555 14.3994 13.0102 13.8838 12.9282 13.0283C12.8813 12.6299 12.6118 12.4306 12.2954 12.4306C11.8969 12.4306 11.5102 12.7705 11.604 13.3799C11.7915 14.7275 12.8227 15.6416 14.4751 15.6416ZM14.4633 16.8955C14.7212 16.8955 14.9438 16.6728 14.9438 16.415V5.17676C14.9438 4.90723 14.7212 4.68457 14.4633 4.68457C14.2055 4.68457 13.9712 4.90723 13.9712 5.17676V16.415C13.9712 16.6728 14.2055 16.8955 14.4633 16.8955Z" fill="black" fill-opacity="0.85"/>
</g>
<defs>
<clipPath id="clip0_2207_26272">
<rect width="21.5742" height="21.5977" fill="white" transform="translate(0.0610352 0.0322266)"/>
</clipPath>
</defs>
</svg>
