<svg width="28" height="23" viewBox="0 0 28 23" fill="none" xmlns="http://www.w3.org/2000/svg">
<g clip-path="url(#clip0_2207_10657)">
<path d="M1.36597 10.9306C5.05738 12.2314 9.21753 12.8642 13.6238 12.8642C18.0418 12.8642 22.2019 12.2314 25.8933 10.9306L25.8816 8.9502C22.284 10.3564 18.1472 11.0478 13.6238 11.0478C9.11207 11.0478 4.97535 10.3564 1.37769 8.93848L1.36597 10.9306ZM11.8074 14.9853H15.4519C16.2722 14.9853 16.7527 14.5283 16.7527 13.708V11.9033H10.5066V13.708C10.5066 14.5283 10.9871 14.9853 11.8074 14.9853ZM3.68628 22.7431H23.573C25.9988 22.7431 27.1941 21.5713 27.1941 19.1689V7.76661C27.1941 5.36426 25.9988 4.19239 23.573 4.19239H3.68628C1.27222 4.19239 0.0651855 5.36426 0.0651855 7.76661V19.1689C0.0651855 21.5713 1.27222 22.7431 3.68628 22.7431ZM3.70972 20.8681C2.56128 20.8681 1.95191 20.2822 1.95191 19.0752V7.86035C1.95191 6.66504 2.56128 6.06739 3.70972 6.06739H23.5496C24.698 6.06739 25.3074 6.66504 25.3074 7.86035V19.0752C25.3074 20.2822 24.698 20.8681 23.5496 20.8681H3.70972ZM7.68238 5.21192H9.49878V3.1377C9.49878 2.24707 10.0261 1.74317 10.9402 1.74317H16.3191C17.2332 1.74317 17.7488 2.24707 17.7488 3.1377V5.18848H19.5652V3.26661C19.5652 1.06348 18.405 0.0322266 16.284 0.0322266H10.9636C8.95972 0.0322266 7.68238 1.06348 7.68238 3.26661V5.21192Z" fill="black" fill-opacity="0.85"/>
</g>
<defs>
<clipPath id="clip0_2207_10657">
<rect width="27.1289" height="22.7227" fill="white" transform="translate(0.0651855 0.0322266)"/>
</clipPath>
</defs>
</svg>
