<svg width="28" height="23" viewBox="0 0 28 23" fill="none" xmlns="http://www.w3.org/2000/svg">
<g clip-path="url(#clip0_2207_10661)">
<path d="M11.8135 14.9502C10.9932 14.9502 10.5127 14.4931 10.5127 13.6728V12.7236C7.06738 12.4892 3.63379 11.7861 0.0712891 10.4384V8.50489C4.4541 10.4267 8.84863 11.1064 13.6299 11.1064C18.4229 11.1064 22.8174 10.4267 27.2002 8.50489V10.4384C23.6377 11.7861 20.2041 12.4892 16.7588 12.7236V13.6728C16.7588 14.4931 16.2783 14.9502 15.458 14.9502H11.8135ZM3.69238 22.7431H23.5791C26.0049 22.7431 27.2002 21.5713 27.2002 19.1689V7.76661C27.2002 5.36426 26.0049 4.19239 23.5791 4.19239H3.69238C1.27832 4.19239 0.0712891 5.36426 0.0712891 7.76661V19.1689C0.0712891 21.5713 1.27832 22.7431 3.69238 22.7431ZM7.68848 5.21192H9.50488V3.1377C9.50488 2.24707 10.0322 1.74317 10.9463 1.74317H16.3252C17.2393 1.74317 17.7549 2.24707 17.7549 3.1377V5.18848H19.5713V3.26661C19.5713 1.06348 18.4111 0.0322266 16.2901 0.0322266H10.9697C8.96582 0.0322266 7.68848 1.06348 7.68848 3.26661V5.21192Z" fill="black" fill-opacity="0.85"/>
</g>
<defs>
<clipPath id="clip0_2207_10661">
<rect width="27.1289" height="22.7227" fill="white" transform="translate(0.0712891 0.0322266)"/>
</clipPath>
</defs>
</svg>
