<svg width="24" height="24" viewBox="0 0 24 24" fill="none" xmlns="http://www.w3.org/2000/svg">
<g clip-path="url(#clip0_2207_10670)">
<path d="M12.0224 23.9502C18.5615 23.9502 23.9755 18.5361 23.9755 11.997C23.9755 5.46973 18.5498 0.0439453 12.0107 0.0439453C5.4834 0.0439453 0.0693359 5.46973 0.0693359 11.997C0.0693359 18.5361 5.49512 23.9502 12.0224 23.9502Z" fill="black" fill-opacity="0.85"/>
<path d="M5.15527 15.501V11.0478C6.95995 11.7041 8.65917 12.0205 10.3935 12.1377V12.6299C10.3935 13.0634 10.6396 13.3213 11.0615 13.3213H13.0068C13.4287 13.3213 13.6748 13.0634 13.6748 12.6299V12.1377C15.4091 12.0205 17.1084 11.7041 18.9248 11.0478V15.501C18.9248 16.7783 18.2802 17.3994 17.0146 17.3994H7.05371C5.78808 17.3994 5.15527 16.7783 5.15527 15.501ZM5.15527 9.96973V9.48926C5.15527 8.22364 5.78808 7.60254 7.05371 7.60254H8.34277V6.99317C8.34277 6.03223 8.97558 5.44629 9.95995 5.44629H14.1084C15.0927 5.44629 15.7255 6.03223 15.7255 6.99317V7.60254H17.0146C18.2802 7.60254 18.9248 8.22364 18.9248 9.48926V9.96973C16.6396 10.8955 14.4365 11.2236 12.0341 11.2236C9.63183 11.2236 7.42871 10.8955 5.15527 9.96973ZM9.50292 7.60254H14.5654V7.05176C14.5654 6.73535 14.3545 6.54785 14.0263 6.54785H10.042C9.70214 6.54785 9.50292 6.73535 9.50292 7.05176V7.60254Z" fill="white"/>
</g>
<defs>
<clipPath id="clip0_2207_10670">
<rect width="23.9062" height="23.918" fill="white" transform="translate(0.0693359 0.0322266)"/>
</clipPath>
</defs>
</svg>
