<svg width="26" height="27" viewBox="0 0 26 27" fill="none" xmlns="http://www.w3.org/2000/svg">
<g id="bubble.middle.top" clip-path="url(#clip0_2201_514)">
<g id="Group">
<path id="Vector" d="M12.8906 0C12.3633 0 11.8711 0.222656 11.4023 1.03125L9.23438 4.65234H5.36719C1.875 4.65234 0 6.57422 0 10.0195V18.9961C0 22.4414 1.875 24.3633 5.36719 24.3633H20.4609C23.9531 24.3633 25.8281 22.4297 25.8281 18.9961V10.0195C25.8281 6.58594 23.9531 4.65234 20.4609 4.65234H16.5469L14.3789 1.03125C13.9102 0.222656 13.418 0 12.8906 0ZM12.8906 1.92188L14.8477 5.58984C15.2344 6.35156 15.5156 6.53906 16.3477 6.53906H20.4609C22.8164 6.53906 23.9414 7.73438 23.9414 10.0195V18.9844C23.9414 21.2695 22.8164 22.4766 20.4609 22.4766H5.36719C3 22.4766 1.88672 21.2695 1.88672 18.9844V10.0195C1.88672 7.73438 3 6.53906 5.36719 6.53906H9.43359C10.2656 6.53906 10.5469 6.35156 10.9336 5.58984L12.8906 1.92188Z" fill="black" fill-opacity="0.85"/>
</g>
</g>
<defs>
<clipPath id="clip0_2201_514">
<rect width="25.8281" height="26.168" fill="white"/>
</clipPath>
</defs>
</svg>
