<svg width="26" height="27" viewBox="0 0 26 27" fill="none" xmlns="http://www.w3.org/2000/svg">
<g clip-path="url(#clip0_2207_9330)">
<path d="M12.8928 26.0141C13.4202 26.0141 13.9124 25.7914 14.3811 24.9828L16.5491 21.3617H20.4631C23.9553 21.3617 25.8303 19.4281 25.8303 15.9945V7.01795C25.8303 3.58435 23.9553 1.65076 20.4631 1.65076H5.36939C1.8772 1.65076 0.00219727 3.57263 0.00219727 7.01795V15.9945C0.00219727 19.4398 1.8772 21.3617 5.36939 21.3617H9.23658L11.4045 24.9828C11.8733 25.7914 12.3655 26.0141 12.8928 26.0141ZM12.8928 24.0922L10.9358 20.4242C10.5491 19.6625 10.2678 19.475 9.43579 19.475H5.36939C3.0022 19.475 1.88892 18.268 1.88892 15.9828V7.01795C1.88892 4.73279 3.0022 3.53748 5.36939 3.53748H20.4631C22.8186 3.53748 23.9436 4.73279 23.9436 7.01795V15.9828C23.9436 18.268 22.8186 19.475 20.4631 19.475H16.3499C15.5178 19.475 15.2366 19.6625 14.8499 20.4242L12.8928 24.0922Z" fill="black" fill-opacity="0.85"/>
</g>
<defs>
<clipPath id="clip0_2207_9330">
<rect width="25.8281" height="25.9805" fill="white" transform="translate(0.00219727 0.0335693)"/>
</clipPath>
</defs>
</svg>
