<svg width="26" height="26" viewBox="0 0 26 26" fill="none" xmlns="http://www.w3.org/2000/svg">
<g clip-path="url(#clip0_2207_9112)">
<path d="M7.28906 25.7783C7.86328 25.7783 8.26172 25.4736 8.97656 24.8408L13.0195 21.2431H20.5429C24.0351 21.2431 25.9101 19.3095 25.9101 15.876V6.89942C25.9101 3.46582 24.0351 1.53223 20.5429 1.53223H5.44922C1.95703 1.53223 0.0820312 3.45411 0.0820312 6.89942V15.876C0.0820312 19.3213 1.95703 21.2431 5.44922 21.2431H6.01172V24.29C6.01172 25.1924 6.46875 25.7783 7.28906 25.7783ZM7.76953 23.6338V20.2353C7.76953 19.6025 7.52344 19.3564 6.89062 19.3564H5.44922C3.08203 19.3564 1.96875 18.1494 1.96875 15.8642V6.89942C1.96875 4.61426 3.08203 3.41895 5.44922 3.41895H20.5429C22.8984 3.41895 24.0234 4.61426 24.0234 6.89942V15.8642C24.0234 18.1494 22.8984 19.3564 20.5429 19.3564H12.9492C12.2929 19.3564 11.9648 19.4502 11.5195 19.9072L7.76953 23.6338Z" fill="black" fill-opacity="0.85"/>
</g>
<defs>
<clipPath id="clip0_2207_9112">
<rect width="25.8281" height="25.7461" fill="white" transform="translate(0.0820312 0.0322266)"/>
</clipPath>
</defs>
</svg>
