<svg width="25" height="24" viewBox="0 0 25 24" fill="none" xmlns="http://www.w3.org/2000/svg">
<g clip-path="url(#clip0_2207_9120)">
<path d="M12.0498 23.9384C18.5889 23.9384 24.0029 18.5127 24.0029 11.9853C24.0029 5.44629 18.5772 0.0322266 12.0381 0.0322266C5.51074 0.0322266 0.0966797 5.44629 0.0966797 11.9853C0.0966797 18.5127 5.52246 23.9384 12.0498 23.9384ZM12.0498 21.9463C6.51856 21.9463 2.10059 17.5166 2.10059 11.9853C2.10059 6.45411 6.50684 2.02442 12.0381 2.02442C17.5694 2.02442 22.0108 6.45411 22.0108 11.9853C22.0108 17.5166 17.5811 21.9463 12.0498 21.9463Z" fill="black" fill-opacity="0.85"/>
<path d="M9.1084 18.747C9.34277 18.747 9.49512 18.6416 9.76465 18.3955L11.8623 16.497H15.7764C17.4756 16.497 18.4131 15.5478 18.4131 13.8486V9.43067C18.4131 7.75489 17.4756 6.79395 15.7764 6.79395H8.32324C6.62402 6.79395 5.68652 7.74317 5.68652 9.43067V13.8486C5.68652 15.5478 6.62402 16.497 8.32324 16.497H8.60449V18.1728C8.60449 18.5244 8.79199 18.747 9.1084 18.747Z" fill="black" fill-opacity="0.85"/>
</g>
<defs>
<clipPath id="clip0_2207_9120">
<rect width="23.9062" height="23.918" fill="white" transform="translate(0.0966797 0.0322266)"/>
</clipPath>
</defs>
</svg>
