<svg width="26" height="26" viewBox="0 0 26 26" fill="none" xmlns="http://www.w3.org/2000/svg">
<g clip-path="url(#clip0_2207_9094)">
<path d="M18.6316 25.7797C19.4519 25.7797 19.9089 25.1938 19.9089 24.2914V21.2445H20.4714C23.9636 21.2445 25.8386 19.3227 25.8386 15.8774V6.90076C25.8386 3.45545 23.9636 1.53357 20.4714 1.53357H5.37769C1.8855 1.53357 0.010498 3.46716 0.010498 6.90076V15.8774C0.010498 19.3109 1.8855 21.2445 5.37769 21.2445H12.9011L16.9441 24.8422C17.6589 25.475 18.0574 25.7797 18.6316 25.7797ZM18.1511 23.6352L14.4011 19.9086C13.9558 19.4516 13.6277 19.3578 12.9714 19.3578H5.37769C3.02222 19.3578 1.89722 18.1508 1.89722 15.8656V6.90076C1.89722 4.6156 3.02222 3.42029 5.37769 3.42029H20.4714C22.8386 3.42029 23.9519 4.6156 23.9519 6.90076V15.8656C23.9519 18.1508 22.8386 19.3578 20.4714 19.3578H19.03C18.3972 19.3578 18.1511 19.6039 18.1511 20.2367V23.6352Z" fill="black" fill-opacity="0.85"/>
</g>
<defs>
<clipPath id="clip0_2207_9094">
<rect width="25.8281" height="25.7461" fill="white" transform="translate(0.010498 0.0335693)"/>
</clipPath>
</defs>
</svg>
