<svg width="24" height="24" viewBox="0 0 24 24" fill="none" xmlns="http://www.w3.org/2000/svg">
<g clip-path="url(#clip0_2207_10862)">
<path d="M11.9909 23.9398C18.53 23.9398 23.944 18.5141 23.944 11.9867C23.944 5.44763 18.5183 0.0335693 11.9792 0.0335693C5.4519 0.0335693 0.0378418 5.44763 0.0378418 11.9867C0.0378418 18.5141 5.46362 23.9398 11.9909 23.9398Z" fill="black" fill-opacity="0.85"/>
<path d="M5.60425 8.71716C5.60425 8.54138 5.698 8.3656 5.93237 8.23669L11.2175 5.20154C11.4753 5.04919 11.7097 4.97888 11.9792 4.97888C12.2487 4.97888 12.4948 5.04919 12.7526 5.20154L18.0261 8.23669C18.2722 8.3656 18.3659 8.54138 18.3659 8.71716C18.3659 8.98669 18.1667 9.24451 17.8269 9.24451H6.14331C5.80346 9.24451 5.60425 8.98669 5.60425 8.71716ZM6.40112 15.7133V15.5609C6.40112 15.3266 6.55346 15.1508 6.823 15.1508H7.12768V10.9438H6.823C6.55346 10.9438 6.40112 10.8031 6.40112 10.5453V10.393C6.40112 10.1352 6.55346 9.98279 6.823 9.98279H8.40503C8.66284 9.98279 8.81518 10.1352 8.81518 10.393V10.5453C8.81518 10.8031 8.66284 10.9438 8.40503 10.9438H8.10034V15.1508H8.40503C8.66284 15.1508 8.81518 15.3266 8.81518 15.5609V15.7133C8.81518 15.9711 8.66284 16.1234 8.40503 16.1234H6.823C6.55346 16.1234 6.40112 15.9711 6.40112 15.7133ZM9.34253 15.7133V15.5609C9.34253 15.3266 9.49487 15.1508 9.74096 15.1508H10.0573V10.9438H9.74096C9.49487 10.9438 9.34253 10.8031 9.34253 10.5453V10.393C9.34253 10.1352 9.49487 9.98279 9.74096 9.98279H11.3347C11.5925 9.98279 11.7683 10.1352 11.7683 10.393V10.5453C11.7683 10.8031 11.6042 10.9438 11.3347 10.9438H11.0417V15.1508H11.3347C11.5925 15.1508 11.7683 15.3266 11.7683 15.5609V15.7133C11.7683 15.9711 11.6042 16.1234 11.3347 16.1234H9.74096C9.49487 16.1234 9.34253 15.9711 9.34253 15.7133ZM12.2839 15.7133V15.5609C12.2839 15.3266 12.4362 15.1508 12.7058 15.1508H12.9987V10.9438H12.7058C12.4362 10.9438 12.2839 10.8031 12.2839 10.5453V10.393C12.2839 10.1352 12.4362 9.98279 12.7058 9.98279H14.2878C14.5222 9.98279 14.7097 10.1352 14.7097 10.393V10.5453C14.7097 10.8031 14.5222 10.9438 14.2878 10.9438H13.9714V15.1508H14.2878C14.5222 15.1508 14.7097 15.3266 14.7097 15.5609V15.7133C14.7097 15.9711 14.5222 16.1234 14.2878 16.1234H12.7058C12.4362 16.1234 12.2839 15.9711 12.2839 15.7133ZM15.2136 15.7133V15.5609C15.2136 15.3266 15.3659 15.1508 15.6355 15.1508H15.9519V10.9438H15.6355C15.3659 10.9438 15.2136 10.8031 15.2136 10.5453V10.393C15.2136 10.1352 15.3659 9.98279 15.6355 9.98279H17.2175C17.4636 9.98279 17.6394 10.1352 17.6394 10.393V10.5453C17.6394 10.8031 17.4753 10.9438 17.2175 10.9438H16.9245V15.1508H17.2175C17.4636 15.1508 17.6394 15.3266 17.6394 15.5609V15.7133C17.6394 15.9711 17.4753 16.1234 17.2175 16.1234H15.6355C15.3659 16.1234 15.2136 15.9711 15.2136 15.7133ZM5.33472 17.3891C5.33472 17.0961 5.56909 16.8617 5.83862 16.8617H18.1316C18.4128 16.8617 18.6355 17.0961 18.6355 17.3891C18.6355 17.6703 18.4011 17.893 18.1316 17.893H5.83862C5.56909 17.893 5.33472 17.6703 5.33472 17.3891Z" fill="white"/>
</g>
<defs>
<clipPath id="clip0_2207_10862">
<rect width="23.9062" height="23.918" fill="white" transform="translate(0.0378418 0.0335693)"/>
</clipPath>
</defs>
</svg>
