<svg width="24" height="24" viewBox="0 0 24 24" fill="none" xmlns="http://www.w3.org/2000/svg">
<g clip-path="url(#clip0_2207_12581)">
<path d="M11.9825 23.9516C18.5216 23.9516 23.9356 18.5375 23.9356 11.9984C23.9356 5.47107 18.5099 0.0452881 11.9708 0.0452881C5.44348 0.0452881 0.0294189 5.47107 0.0294189 11.9984C0.0294189 18.5375 5.4552 23.9516 11.9825 23.9516Z" fill="black" fill-opacity="0.85"/>
<path d="M11.9825 21.9594C9.02942 21.9594 6.40442 20.7055 4.58801 18.6898V8.00232C4.58801 7.19373 5.05676 6.66638 5.81848 6.66638H13.6817C14.4552 6.66638 14.9122 7.19373 14.9122 8.00232V21.5258C13.9864 21.807 13.0021 21.9594 11.9825 21.9594ZM7.34192 19.475H8.61926C8.77161 19.475 8.90051 19.3695 8.90051 19.1938V17.9516C8.90051 17.7992 8.77161 17.6703 8.61926 17.6703H7.34192C7.17786 17.6703 7.07239 17.7992 7.07239 17.9516V19.1938C7.07239 19.3695 7.17786 19.475 7.34192 19.475ZM10.8575 19.475H12.1349C12.2989 19.475 12.4161 19.3695 12.4161 19.1938V17.9516C12.4161 17.7992 12.2989 17.6703 12.1349 17.6703H10.8575C10.6935 17.6703 10.588 17.7992 10.588 17.9516V19.1938C10.588 19.3695 10.6935 19.475 10.8575 19.475ZM7.34192 16.4984H8.61926C8.77161 16.4984 8.90051 16.3813 8.90051 16.2172V14.9867C8.90051 14.8227 8.77161 14.7055 8.61926 14.7055H7.34192C7.17786 14.7055 7.07239 14.8227 7.07239 14.9867V16.2172C7.07239 16.3813 7.17786 16.4984 7.34192 16.4984ZM10.8575 16.4984H12.1349C12.2989 16.4984 12.4161 16.3813 12.4161 16.2172V14.9867C12.4161 14.8227 12.2989 14.7055 12.1349 14.7055H10.8575C10.6935 14.7055 10.588 14.8227 10.588 14.9867V16.2172C10.588 16.3813 10.6935 16.4984 10.8575 16.4984ZM7.34192 13.5336H8.61926C8.77161 13.5336 8.90051 13.4047 8.90051 13.2524V12.0102C8.90051 11.8461 8.77161 11.7289 8.61926 11.7289H7.34192C7.17786 11.7289 7.07239 11.8461 7.07239 12.0102V13.2524C7.07239 13.4047 7.17786 13.5336 7.34192 13.5336ZM10.8575 13.5336H12.1349C12.2989 13.5336 12.4161 13.4047 12.4161 13.2524V12.0102C12.4161 11.8461 12.2989 11.7289 12.1349 11.7289H10.8575C10.6935 11.7289 10.588 11.8461 10.588 12.0102V13.2524C10.588 13.4047 10.6935 13.5336 10.8575 13.5336ZM7.34192 10.5805H8.61926C8.77161 10.5805 8.90051 10.4633 8.90051 10.2992V9.05701C8.90051 8.89295 8.77161 8.77576 8.61926 8.77576H7.34192C7.17786 8.77576 7.07239 8.89295 7.07239 9.05701V10.2992C7.07239 10.4633 7.17786 10.5805 7.34192 10.5805ZM10.8575 10.5805H12.1349C12.2989 10.5805 12.4161 10.4633 12.4161 10.2992V9.05701C12.4161 8.89295 12.2989 8.77576 12.1349 8.77576H10.8575C10.6935 8.77576 10.588 8.89295 10.588 9.05701V10.2992C10.588 10.4633 10.6935 10.5805 10.8575 10.5805ZM15.8263 21.1977V9.66638H19.2247C19.9864 9.66638 20.4552 10.1703 20.4552 10.9789V17.2367C19.3771 18.9945 17.7599 20.4008 15.8263 21.1977ZM17.5841 18.4789H18.6856C18.8028 18.4789 18.8966 18.3734 18.8966 18.2563V17.1898C18.8966 17.0727 18.8028 16.9672 18.6856 16.9672H17.5841C17.4435 16.9672 17.3497 17.0727 17.3497 17.1898V18.2563C17.3497 18.3734 17.4435 18.4789 17.5841 18.4789ZM17.5841 15.7953H18.6856C18.8028 15.7953 18.8966 15.7016 18.8966 15.5727V14.518C18.8966 14.3891 18.8028 14.2953 18.6856 14.2953H17.5841C17.4435 14.2953 17.3497 14.3891 17.3497 14.518V15.5727C17.3497 15.7016 17.4435 15.7953 17.5841 15.7953ZM17.5841 13.1234H18.6856C18.8028 13.1234 18.8966 13.0297 18.8966 12.9008V11.8344C18.8966 11.7172 18.8028 11.6117 18.6856 11.6117H17.5841C17.4435 11.6117 17.3497 11.7172 17.3497 11.8344V12.9008C17.3497 13.0297 17.4435 13.1234 17.5841 13.1234Z" fill="white"/>
</g>
<defs>
<clipPath id="clip0_2207_12581">
<rect width="23.9062" height="23.918" fill="white" transform="translate(0.0294189 0.0335693)"/>
</clipPath>
</defs>
</svg>
