<svg width="27" height="28" viewBox="0 0 27 28" fill="none" xmlns="http://www.w3.org/2000/svg">
<g clip-path="url(#clip0_2207_15337)">
<path d="M1.69104 21.1274C1.69104 21.8539 1.90198 22.4398 2.2887 22.8617V25.8266C2.2887 26.6938 2.95667 27.3734 3.83558 27.3734H5.21839C6.0973 27.3734 6.77698 26.6938 6.77698 25.8266V23.9398C8.71058 24.0688 10.8316 24.1391 13.0934 24.1391C15.3551 24.1391 17.4879 24.0688 19.4215 23.9398V25.8266C19.4215 26.6938 20.0895 27.3734 20.9684 27.3734H22.3512C23.2301 27.3734 23.9098 26.6938 23.9098 25.8266V22.8617C24.2965 22.4398 24.5074 21.8539 24.5074 21.1274V3.04529C24.5074 1.53357 23.6168 0.666381 22.0231 0.478881C19.5738 0.185913 16.316 0.0335693 13.0934 0.0335693C9.87073 0.0335693 6.60119 0.197631 4.16369 0.478881C2.56994 0.666381 1.69104 1.53357 1.69104 3.04529V21.1274ZM13.0934 22.6039C9.64808 22.6039 6.7301 22.4516 4.57385 22.1938C3.57775 22.0766 3.2262 21.5609 3.2262 20.6586V3.51404C3.2262 2.62341 3.69494 2.08435 4.57385 1.97888C6.68322 1.72107 9.80042 1.56873 13.0934 1.56873C16.3512 1.56873 19.4684 1.72107 21.6129 1.97888C22.609 2.09607 22.9723 2.61169 22.9723 3.51404V20.6586C22.9723 21.5609 22.609 22.0766 21.6129 22.1938C19.4215 22.4516 16.5035 22.6039 13.0934 22.6039ZM5.51135 16.0297C10.0816 16.7445 16.0816 16.7563 20.6871 16.0297C21.4254 15.9008 21.777 15.4906 21.777 14.7055V4.62732C21.777 3.74841 21.3785 3.26795 20.5348 3.18591C15.9059 2.71716 10.316 2.72888 5.67542 3.18591C4.84339 3.26795 4.4215 3.74841 4.4215 4.62732V14.7055C4.4215 15.4906 4.78479 15.9008 5.51135 16.0297ZM1.69104 11.2367V4.36951H1.1637C0.507446 4.36951 0.050415 4.77966 0.050415 5.40076V10.2172C0.050415 10.8383 0.507446 11.2367 1.1637 11.2367H1.69104ZM24.5074 11.2367H25.0231C25.6793 11.2367 26.1363 10.8383 26.1363 10.2172V5.40076C26.1363 4.77966 25.6793 4.36951 25.0231 4.36951H24.5074V11.2367ZM6.40198 20.7875C7.21058 20.7875 7.81994 20.1664 7.81994 19.3695C7.81994 18.5609 7.21058 17.9516 6.40198 17.9516C5.59339 17.9516 4.984 18.5609 4.984 19.3695C4.984 20.1664 5.59339 20.7875 6.40198 20.7875ZM10.3043 20.3656H15.8707C16.4684 20.3656 16.8902 19.9438 16.8902 19.3461C16.8902 18.7367 16.4684 18.3266 15.8707 18.3266H10.3043C9.69494 18.3266 9.27308 18.7367 9.27308 19.3461C9.27308 19.9438 9.69494 20.3656 10.3043 20.3656ZM19.7848 20.7875C20.5934 20.7875 21.2145 20.1664 21.2145 19.3695C21.2145 18.5609 20.5934 17.9516 19.7848 17.9516C18.9879 17.9516 18.3785 18.5609 18.3785 19.3695C18.3785 20.1664 18.9879 20.7875 19.7848 20.7875Z" fill="black" fill-opacity="0.85"/>
</g>
<defs>
<clipPath id="clip0_2207_15337">
<rect width="26.0859" height="27.3633" fill="white" transform="translate(0.050415 0.0335693)"/>
</clipPath>
</defs>
</svg>
