<svg width="26" height="28" viewBox="0 0 26 28" fill="none" xmlns="http://www.w3.org/2000/svg">
<g id="bus.fill" clip-path="url(#clip0_2124_13562)">
<g id="Group">
<path id="Vector" d="M3.1875 27.1289H4.57031C5.44922 27.1289 6.12891 26.4492 6.12891 25.582V23.6367C8.44922 23.8008 10.7461 23.8828 12.8086 23.8828C14.8711 23.8828 17.168 23.8125 19.5 23.6367V25.582C19.5 26.4492 20.168 27.1289 21.0469 27.1289H22.4297C23.3086 27.1289 23.9883 26.4492 23.9883 25.582V3.03516C23.9883 1.52344 23.0977 0.65625 21.5156 0.46875C19.0195 0.175781 15.8203 0.0234375 12.8086 0.0234375C9.82031 0.0234375 6.62109 0.175781 4.11328 0.46875C2.51953 0.65625 1.64062 1.52344 1.64062 3.03516V25.582C1.64062 26.4492 2.30859 27.1289 3.1875 27.1289ZM5.03906 15.8789C4.26562 15.75 3.87891 15.3164 3.87891 14.4844V4.07812C3.87891 3.14062 4.32422 2.63672 5.21484 2.54297C10.1016 2.02734 15.5508 2.02734 20.4258 2.54297C21.3281 2.63672 21.75 3.14062 21.75 4.07812V14.4844C21.75 15.3164 21.375 15.75 20.5898 15.8789C15.7266 16.5938 9.85547 16.5938 5.03906 15.8789ZM5.76562 21.1055C4.89844 21.1055 4.25391 20.4492 4.25391 19.5938C4.25391 18.7266 4.89844 18.082 5.76562 18.082C6.63281 18.082 7.27734 18.7266 7.27734 19.5938C7.27734 20.4492 6.63281 21.1055 5.76562 21.1055ZM10.2539 20.5898C9.64453 20.5898 9.22266 20.168 9.22266 19.5703C9.22266 18.9609 9.64453 18.5508 10.2539 18.5508H15.3516C15.9492 18.5508 16.3711 18.9609 16.3711 19.5703C16.3711 20.168 15.9492 20.5898 15.3516 20.5898H10.2539ZM19.8516 21.1055C18.9961 21.1055 18.3516 20.4492 18.3516 19.5938C18.3516 18.7266 18.9961 18.082 19.8516 18.082C20.7188 18.082 21.375 18.7266 21.375 19.5938C21.375 20.4492 20.7188 21.1055 19.8516 21.1055ZM1.64062 10.9922V4.35938H1.11328C0.457031 4.35938 0 4.76953 0 5.39062V9.97266C0 10.5938 0.457031 10.9922 1.11328 10.9922H1.64062ZM23.9883 10.9922H24.5039C25.1602 10.9922 25.6172 10.5938 25.6172 9.97266V5.39062C25.6172 4.76953 25.1602 4.35938 24.5039 4.35938H23.9883V10.9922Z" fill="black" fill-opacity="0.85"/>
</g>
</g>
<defs>
<clipPath id="clip0_2124_13562">
<rect width="25.6172" height="27.1289" fill="white"/>
</clipPath>
</defs>
</svg>
