<svg width="25" height="29" viewBox="0 0 25 29" fill="none" xmlns="http://www.w3.org/2000/svg">
<g id="bus.doubledecker.fill" clip-path="url(#clip0_2124_13574)">
<g id="Group">
<path id="Vector" d="M1.64062 26.8828C1.64062 27.75 2.30859 28.4297 3.1875 28.4297H4.57031C5.44922 28.4297 6.12891 27.75 6.12891 26.8828V24.9375C8.4375 25.0898 10.3477 25.1836 12.2461 25.1836C14.1445 25.1836 16.043 25.1016 18.3633 24.9375V26.8828C18.3633 27.75 19.0312 28.4297 19.9102 28.4297H21.293C22.1719 28.4297 22.8516 27.75 22.8516 26.8828V2.98828C22.8516 1.48828 21.9609 0.609375 20.3672 0.433594C17.8945 0.140625 15.0586 0 12.2461 0C9.44531 0 6.62109 0.140625 4.11328 0.433594C2.51953 0.609375 1.64062 1.48828 1.64062 2.98828V26.8828ZM3.78516 9.43359V3.9375C3.78516 3.14062 4.21875 2.63672 4.94531 2.54297C7.38281 2.27344 9.80859 2.13281 12.2461 2.13281C14.6719 2.13281 17.1211 2.28516 19.5469 2.54297C20.2734 2.63672 20.707 3.14062 20.707 3.9375V9.43359H3.78516ZM3.78516 11.1445H20.707V16.3945C20.707 17.1914 20.2734 17.6953 19.5469 17.7773C17.1914 18.0469 14.707 18.1875 12.2461 18.1875C9.77344 18.1875 7.30078 18.0586 4.94531 17.7773C4.21875 17.6953 3.78516 17.1914 3.78516 16.3945V11.1445ZM5.96484 22.7461C5.17969 22.7461 4.55859 22.125 4.55859 21.3398C4.55859 20.543 5.17969 19.9336 5.96484 19.9336C6.76172 19.9336 7.37109 20.543 7.37109 21.3398C7.37109 22.125 6.76172 22.7461 5.96484 22.7461ZM10.207 22.3125C9.64453 22.3125 9.22266 21.8906 9.22266 21.3281C9.22266 20.7539 9.63281 20.3438 10.207 20.3438H14.2734C14.8594 20.3438 15.2695 20.7539 15.2695 21.3281C15.2695 21.8906 14.8477 22.3125 14.2734 22.3125H10.207ZM18.5273 22.7461C17.7305 22.7461 17.1211 22.125 17.1211 21.3398C17.1211 20.543 17.7305 19.9336 18.5273 19.9336C19.3125 19.9336 19.9336 20.543 19.9336 21.3398C19.9336 22.125 19.3125 22.7461 18.5273 22.7461ZM2.40234 13.8633V7.81641H1.11328C0.457031 7.81641 0 8.22656 0 8.84766V12.8438C0 13.4531 0.457031 13.8633 1.11328 13.8633H2.40234ZM22.0898 13.8633H23.3789C24.0352 13.8633 24.4922 13.4531 24.4922 12.8438V8.84766C24.4922 8.22656 24.0352 7.81641 23.3789 7.81641H22.0898V13.8633Z" fill="black" fill-opacity="0.85"/>
</g>
</g>
<defs>
<clipPath id="clip0_2124_13574">
<rect width="24.4922" height="28.8398" fill="white"/>
</clipPath>
</defs>
</svg>
