<svg width="26" height="28" viewBox="0 0 26 28" fill="none" xmlns="http://www.w3.org/2000/svg">
<g clip-path="url(#clip0_2207_15341)">
<path d="M3.24414 27.1625H4.62695C5.50586 27.1625 6.18555 26.4828 6.18555 25.6156V23.6703C8.50586 23.8344 10.8027 23.9164 12.8652 23.9164C14.9277 23.9164 17.2246 23.8461 19.5566 23.6703V25.6156C19.5566 26.4828 20.2246 27.1625 21.1035 27.1625H22.4863C23.3652 27.1625 24.0449 26.4828 24.0449 25.6156V3.06873C24.0449 1.55701 23.1543 0.689819 21.5722 0.502319C19.0761 0.20935 15.8769 0.0570068 12.8652 0.0570068C9.87695 0.0570068 6.67773 0.20935 4.16992 0.502319C2.57617 0.689819 1.69726 1.55701 1.69726 3.06873V25.6156C1.69726 26.4828 2.36523 27.1625 3.24414 27.1625ZM5.0957 15.9125C4.32226 15.7836 3.93555 15.35 3.93555 14.518V4.11169C3.93555 3.17419 4.38086 2.67029 5.27148 2.57654C10.1582 2.06091 15.6074 2.06091 20.4824 2.57654C21.3847 2.67029 21.8066 3.17419 21.8066 4.11169V14.518C21.8066 15.35 21.4316 15.7836 20.6464 15.9125C15.7832 16.6274 9.91211 16.6274 5.0957 15.9125ZM5.82226 21.1391C4.95508 21.1391 4.31055 20.4828 4.31055 19.6274C4.31055 18.7602 4.95508 18.1156 5.82226 18.1156C6.68945 18.1156 7.33398 18.7602 7.33398 19.6274C7.33398 20.4828 6.68945 21.1391 5.82226 21.1391ZM10.3105 20.6234C9.70117 20.6234 9.2793 20.2016 9.2793 19.6039C9.2793 18.9945 9.70117 18.5844 10.3105 18.5844H15.4082C16.0058 18.5844 16.4277 18.9945 16.4277 19.6039C16.4277 20.2016 16.0058 20.6234 15.4082 20.6234H10.3105ZM19.9082 21.1391C19.0527 21.1391 18.4082 20.4828 18.4082 19.6274C18.4082 18.7602 19.0527 18.1156 19.9082 18.1156C20.7754 18.1156 21.4316 18.7602 21.4316 19.6274C21.4316 20.4828 20.7754 21.1391 19.9082 21.1391ZM1.69726 11.0258V4.39295H1.16992C0.513672 4.39295 0.0566406 4.8031 0.0566406 5.42419V10.0062C0.0566406 10.6274 0.513672 11.0258 1.16992 11.0258H1.69726ZM24.0449 11.0258H24.5605C25.2168 11.0258 25.6738 10.6274 25.6738 10.0062V5.42419C25.6738 4.8031 25.2168 4.39295 24.5605 4.39295H24.0449V11.0258Z" fill="black" fill-opacity="0.85"/>
</g>
<defs>
<clipPath id="clip0_2207_15341">
<rect width="25.6172" height="27.1289" fill="white" transform="translate(0.0566406 0.0335693)"/>
</clipPath>
</defs>
</svg>
