<svg width="28" height="21" viewBox="0 0 28 21" fill="none" xmlns="http://www.w3.org/2000/svg">
<g clip-path="url(#clip0_2207_20951)">
<path d="M9.92236 20.4711H17.2934C24.0903 20.4711 27.1255 17.3422 27.1255 10.9438V3.58435C27.1255 1.22888 25.9067 0.0335693 23.5278 0.0335693H3.68799C1.30908 0.0335693 0.090332 1.22888 0.090332 3.58435V10.9438C0.090332 17.3422 3.12549 20.4711 9.92236 20.4711ZM9.92236 18.5844C4.39111 18.5844 1.97705 16.182 1.97705 11.0609V3.68982C1.97705 2.51795 2.58642 1.92029 3.73486 1.92029H23.4809C24.6059 1.92029 25.2387 2.51795 25.2387 3.68982V11.0609C25.2387 16.182 22.8247 18.5844 17.2817 18.5844H9.92236Z" fill="black" fill-opacity="0.85"/>
</g>
<defs>
<clipPath id="clip0_2207_20951">
<rect width="27.0352" height="20.4492" fill="white" transform="translate(0.090332 0.0335693)"/>
</clipPath>
</defs>
</svg>
