<svg width="21" height="26" viewBox="0 0 21 26" fill="none" xmlns="http://www.w3.org/2000/svg">
<g clip-path="url(#clip0_2207_21047)">
<path d="M13.9346 25.2055C18.1768 25.2055 20.919 22.475 20.919 18.2328V12.4555C20.919 10.85 20.4151 9.56091 19.419 8.64685L12.0244 1.83826C10.5713 0.514038 9.03613 0.0335693 7.20801 0.0335693H3.58691C1.47754 0.0335693 0.0712891 1.46326 0.0712891 3.58435V21.6898C0.0712891 23.893 1.40723 25.2055 3.62207 25.2055H13.9346ZM13.8994 23.3188H3.66895C2.43848 23.3188 1.95801 22.8969 1.95801 21.6547V3.60779C1.95801 2.59998 2.61426 1.92029 3.63379 1.92029H7.16113C8.61426 1.92029 9.68067 2.27185 10.7236 3.22107L18.1065 10.0062C18.751 10.5922 19.0322 11.307 19.0322 12.4789V18.1977C19.0322 21.4789 17.169 23.3188 13.8994 23.3188Z" fill="black" fill-opacity="0.85"/>
</g>
<defs>
<clipPath id="clip0_2207_21047">
<rect width="20.8477" height="25.1836" fill="white" transform="translate(0.0712891 0.0335693)"/>
</clipPath>
</defs>
</svg>
