<svg width="31" height="22" viewBox="0 0 31 22" fill="none" xmlns="http://www.w3.org/2000/svg">
<g clip-path="url(#clip0_2207_21103)">
<path d="M0.0629883 11.9073C0.0629883 14.4151 0.473144 15.5636 2.33643 16.5245L8.93408 19.9112C11.3599 21.1651 13.0942 21.4815 15.813 20.6847L25.9614 17.7315C29.0903 16.8058 30.3911 14.9425 30.3911 11.9073V4.59479C30.3911 2.47369 28.9849 1.03229 26.8755 1.03229L3.60205 1.02057C1.49268 1.02057 0.0629883 2.45026 0.0629883 4.55963V11.9073ZM1.94971 11.9073V4.59479C1.94971 3.57526 2.61768 2.90729 3.63721 2.90729L26.8521 2.91901C27.8482 2.91901 28.5044 3.59869 28.5044 4.62994V11.9073C28.5044 14.0401 27.6255 15.3175 25.4224 15.962L15.813 18.8097C13.3755 19.5362 11.9575 19.3253 9.9419 18.3058L3.53174 15.0362C2.27783 14.4034 1.94971 13.6417 1.94971 11.9073Z" fill="black" fill-opacity="0.85"/>
</g>
<defs>
<clipPath id="clip0_2207_21103">
<rect width="30.3281" height="21.0873" fill="white" transform="translate(0.0629883 0.0335693)"/>
</clipPath>
</defs>
</svg>
