<svg width="24" height="24" viewBox="0 0 24 24" fill="none" xmlns="http://www.w3.org/2000/svg">
<g clip-path="url(#clip0_2207_24866)">
<path d="M11.9594 23.9411C18.4985 23.9411 23.9125 18.5154 23.9125 11.988C23.9125 5.44897 18.4868 0.0349121 11.9477 0.0349121C5.42041 0.0349121 0.00634766 5.44897 0.00634766 11.988C0.00634766 18.5154 5.43213 23.9411 11.9594 23.9411ZM11.9594 21.949C6.42823 21.949 2.01026 17.5193 2.01026 11.988C2.01026 6.45679 6.41651 2.0271 11.9477 2.0271C17.479 2.0271 21.9204 6.45679 21.9204 11.988C21.9204 17.5193 17.4907 21.949 11.9594 21.949Z" fill="black" fill-opacity="0.85"/>
<path d="M11.9594 17.4841C14.0336 17.4841 15.686 16.4997 16.2485 14.9177C16.3305 14.7068 16.354 14.5544 16.354 14.3787C16.354 13.8865 16.0375 13.5818 15.5454 13.5818C15.1938 13.5818 14.9594 13.7576 14.7719 14.156C14.2915 15.3044 13.3071 15.9372 11.9829 15.9372C10.1196 15.9372 8.86572 14.3083 8.86572 11.8826C8.86572 9.45679 10.1196 7.81616 11.9829 7.81616C13.3071 7.81616 14.2915 8.44897 14.7719 9.60913C14.9594 10.0076 15.1938 10.1716 15.5454 10.1716C16.0375 10.1716 16.354 9.86694 16.354 9.37475C16.354 9.18725 16.3305 9.04663 16.2485 8.83569C15.6743 7.26538 14.0336 6.26929 11.9594 6.26929C8.92431 6.26929 6.979 8.46069 6.979 11.8826C6.979 15.3044 8.91259 17.4841 11.9594 17.4841Z" fill="black" fill-opacity="0.85"/>
</g>
<defs>
<clipPath id="clip0_2207_24866">
<rect width="23.9062" height="23.918" fill="white" transform="translate(0.00634766 0.0349121)"/>
</clipPath>
</defs>
</svg>
