<svg width="22" height="22" viewBox="0 0 22 22" fill="none" xmlns="http://www.w3.org/2000/svg">
<g clip-path="url(#clip0_2207_24881)">
<path d="M3.69239 21.6326H17.9072C20.3682 21.6326 21.5869 20.4138 21.5869 17.9997V3.69116C21.5869 1.2771 20.3682 0.0583496 17.9072 0.0583496H3.69239C1.24317 0.0583496 0.0126953 1.26538 0.0126953 3.69116V17.9997C0.0126953 20.4255 1.24317 21.6326 3.69239 21.6326Z" fill="black" fill-opacity="0.85"/>
<path d="M10.8291 16.4997C7.67675 16.4997 5.68457 14.2497 5.68457 10.7224C5.68457 7.19507 7.68847 4.93335 10.8291 4.93335C12.9619 4.93335 14.6729 5.95288 15.2588 7.57007C15.3408 7.79272 15.3643 7.93335 15.3643 8.13257C15.3643 8.64819 15.0361 8.9646 14.5322 8.9646C14.1572 8.9646 13.9229 8.78882 13.7236 8.37866C13.2197 7.18335 12.2119 6.53882 10.8525 6.53882C8.93066 6.53882 7.6416 8.22632 7.6416 10.7224C7.6416 13.2185 8.93066 14.8943 10.8525 14.8943C12.2119 14.8943 13.2197 14.2497 13.7236 13.0661C13.9229 12.656 14.1572 12.4685 14.5322 12.4685C15.0361 12.4685 15.3643 12.7849 15.3643 13.3005C15.3643 13.4763 15.3408 13.6404 15.2588 13.863C14.6729 15.4919 12.9736 16.4997 10.8291 16.4997Z" fill="white"/>
</g>
<defs>
<clipPath id="clip0_2207_24881">
<rect width="21.5742" height="21.5977" fill="white" transform="translate(0.0126953 0.0349121)"/>
</clipPath>
</defs>
</svg>
