<svg width="8" height="27" viewBox="0 0 8 27" fill="none" xmlns="http://www.w3.org/2000/svg">
<g clip-path="url(#clip0_2207_14776)">
<path d="M2.86866 26.7771H4.82569V15.5271H2.86866V26.7771ZM1.46241 17.3083H6.22022C7.23975 17.3083 7.64991 16.8982 7.64991 15.8669V6.85522C7.64991 5.83569 7.23975 5.41382 6.22022 5.41382H1.46241C0.431152 5.41382 0.0209961 5.83569 0.0209961 6.85522V15.8669C0.0209961 16.8982 0.431152 17.3083 1.46241 17.3083Z" fill="black" fill-opacity="0.85"/>
<path d="M1.55615 4.04272H6.11474V1.47632C6.11474 0.445068 5.69287 0.0349121 4.67333 0.0349121H3.00927C1.97802 0.0349121 1.55615 0.445068 1.55615 1.47632V4.04272Z" fill="black" fill-opacity="0.85"/>
</g>
<defs>
<clipPath id="clip0_2207_14776">
<rect width="7.62891" height="26.7539" fill="white" transform="translate(0.0209961 0.0349121)"/>
</clipPath>
</defs>
</svg>
