<svg width="31" height="22" viewBox="0 0 31 22" fill="none" xmlns="http://www.w3.org/2000/svg">
<g clip-path="url(#clip0_2207_1229)">
<path d="M25.8455 17.9997V3.69116C25.8455 1.2771 24.6267 0.0583496 22.1658 0.0583496H6.15796C3.72046 0.0583496 2.47827 1.26538 2.47827 3.69116V17.9997C2.47827 20.4255 3.72046 21.6326 6.15796 21.6326H22.1658C24.6267 21.6326 25.8455 20.4138 25.8455 17.9997ZM23.9587 18.1052C23.9587 19.1951 23.3611 19.7458 22.3298 19.7458H5.9939C4.95093 19.7458 4.36499 19.1951 4.36499 18.1052V3.58569C4.36499 2.49585 4.95093 1.94507 5.9939 1.94507H22.3298C23.3611 1.94507 23.9587 2.49585 23.9587 3.58569V18.1052Z" fill="black" fill-opacity="0.85"/>
<path d="M29.2087 21.5271C29.9939 21.5271 30.6267 20.8826 30.6267 20.0974C30.6267 19.3122 29.9939 18.6794 29.2087 18.6794C28.4236 18.6794 27.7791 19.3122 27.7791 20.0974C27.7791 20.8826 28.4236 21.5271 29.2087 21.5271Z" fill="black" fill-opacity="0.85"/>
<path d="M29.2087 16.8747C29.9939 16.8747 30.6267 16.2419 30.6267 15.4568C30.6267 14.6599 29.9939 14.0271 29.2087 14.0271C28.4236 14.0271 27.7791 14.6599 27.7791 15.4568C27.7791 16.2419 28.4236 16.8747 29.2087 16.8747Z" fill="black" fill-opacity="0.85"/>
<path d="M29.2087 7.5935C29.9939 7.5935 30.6267 6.94897 30.6267 6.16382C30.6267 5.37866 29.9939 4.74585 29.2087 4.74585C28.4236 4.74585 27.7791 5.37866 27.7791 6.16382C27.7791 6.94897 28.4236 7.5935 29.2087 7.5935Z" fill="black" fill-opacity="0.85"/>
<path d="M29.2087 2.94116C29.9939 2.94116 30.6267 2.30835 30.6267 1.51147C30.6267 0.726318 29.9939 0.0935059 29.2087 0.0935059C28.4236 0.0935059 27.7791 0.726318 27.7791 1.51147C27.7791 2.30835 28.4236 2.94116 29.2087 2.94116Z" fill="black" fill-opacity="0.85"/>
<path d="M25.8455 13.2654C27.1814 13.2654 28.2713 12.1755 28.2713 10.8396C28.2713 9.50366 27.1814 8.41382 25.8455 8.41382H2.47827C1.14233 8.41382 0.0524902 9.50366 0.0524902 10.8396C0.0524902 12.1755 1.14233 13.2654 2.47827 13.2654H25.8455Z" fill="white"/>
<path d="M29.2087 12.4216C30.0877 12.4216 30.8025 11.7068 30.8025 10.8279C30.8025 9.94897 30.0877 9.23413 29.2087 9.23413C28.6345 9.23413 28.1189 9.53882 27.8377 10.0193H2.47827C2.02124 10.0193 1.65796 10.3826 1.65796 10.8396C1.65796 11.2966 2.02124 11.6716 2.47827 11.6716H27.8611C28.1423 12.1287 28.6345 12.4216 29.2087 12.4216Z" fill="black" fill-opacity="0.85"/>
</g>
<defs>
<clipPath id="clip0_2207_1229">
<rect width="30.75" height="21.5977" fill="white" transform="translate(0.0524902 0.0349121)"/>
</clipPath>
</defs>
</svg>
