<svg width="24" height="22" viewBox="0 0 24 22" fill="none" xmlns="http://www.w3.org/2000/svg">
<g clip-path="url(#clip0_2207_1145)">
<path d="M3.70911 21.6326H19.7169C22.1661 21.6326 23.3849 20.4138 23.3849 17.9997V3.69116C23.3849 1.2771 22.1661 0.0583496 19.7169 0.0583496H3.70911C1.25989 0.0583496 0.0294189 1.26538 0.0294189 3.69116V17.9997C0.0294189 20.4255 1.25989 21.6326 3.70911 21.6326ZM3.53333 19.7458C2.49036 19.7458 1.91614 19.1951 1.91614 18.1052V7.05444C1.91614 5.97632 2.49036 5.41382 3.53333 5.41382H19.8692C20.9122 5.41382 21.4982 5.97632 21.4982 7.05444V18.1052C21.4982 19.1951 20.9122 19.7458 19.8692 19.7458H3.53333ZM9.42786 9.62085H10.1192C10.5294 9.62085 10.6583 9.50366 10.6583 9.0935V8.4021C10.6583 7.99194 10.5294 7.86303 10.1192 7.86303H9.42786C9.0177 7.86303 8.87708 7.99194 8.87708 8.4021V9.0935C8.87708 9.50366 9.0177 9.62085 9.42786 9.62085ZM13.3185 9.62085H14.0099C14.42 9.62085 14.5606 9.50366 14.5606 9.0935V8.4021C14.5606 7.99194 14.42 7.86303 14.0099 7.86303H13.3185C12.9083 7.86303 12.7677 7.99194 12.7677 8.4021V9.0935C12.7677 9.50366 12.9083 9.62085 13.3185 9.62085ZM17.2091 9.62085H17.9005C18.3106 9.62085 18.4513 9.50366 18.4513 9.0935V8.4021C18.4513 7.99194 18.3106 7.86303 17.9005 7.86303H17.2091C16.7989 7.86303 16.67 7.99194 16.67 8.4021V9.0935C16.67 9.50366 16.7989 9.62085 17.2091 9.62085ZM5.53723 13.4529H6.21692C6.6388 13.4529 6.7677 13.3357 6.7677 12.9255V12.2341C6.7677 11.824 6.6388 11.7068 6.21692 11.7068H5.53723C5.11536 11.7068 4.98645 11.824 4.98645 12.2341V12.9255C4.98645 13.3357 5.11536 13.4529 5.53723 13.4529ZM9.42786 13.4529H10.1192C10.5294 13.4529 10.6583 13.3357 10.6583 12.9255V12.2341C10.6583 11.824 10.5294 11.7068 10.1192 11.7068H9.42786C9.0177 11.7068 8.87708 11.824 8.87708 12.2341V12.9255C8.87708 13.3357 9.0177 13.4529 9.42786 13.4529ZM13.3185 13.4529H14.0099C14.42 13.4529 14.5606 13.3357 14.5606 12.9255V12.2341C14.5606 11.824 14.42 11.7068 14.0099 11.7068H13.3185C12.9083 11.7068 12.7677 11.824 12.7677 12.2341V12.9255C12.7677 13.3357 12.9083 13.4529 13.3185 13.4529ZM17.2091 13.4529H17.9005C18.3106 13.4529 18.4513 13.3357 18.4513 12.9255V12.2341C18.4513 11.824 18.3106 11.7068 17.9005 11.7068H17.2091C16.7989 11.7068 16.67 11.824 16.67 12.2341V12.9255C16.67 13.3357 16.7989 13.4529 17.2091 13.4529ZM5.53723 17.2966H6.21692C6.6388 17.2966 6.7677 17.1677 6.7677 16.7576V16.0661C6.7677 15.656 6.6388 15.5388 6.21692 15.5388H5.53723C5.11536 15.5388 4.98645 15.656 4.98645 16.0661V16.7576C4.98645 17.1677 5.11536 17.2966 5.53723 17.2966ZM9.42786 17.2966H10.1192C10.5294 17.2966 10.6583 17.1677 10.6583 16.7576V16.0661C10.6583 15.656 10.5294 15.5388 10.1192 15.5388H9.42786C9.0177 15.5388 8.87708 15.656 8.87708 16.0661V16.7576C8.87708 17.1677 9.0177 17.2966 9.42786 17.2966ZM13.3185 17.2966H14.0099C14.42 17.2966 14.5606 17.1677 14.5606 16.7576V16.0661C14.5606 15.656 14.42 15.5388 14.0099 15.5388H13.3185C12.9083 15.5388 12.7677 15.656 12.7677 16.0661V16.7576C12.7677 17.1677 12.9083 17.2966 13.3185 17.2966Z" fill="black" fill-opacity="0.85"/>
</g>
<defs>
<clipPath id="clip0_2207_1145">
<rect width="23.3555" height="21.5977" fill="white" transform="translate(0.0294189 0.0349121)"/>
</clipPath>
</defs>
</svg>
