<svg width="29" height="24" viewBox="0 0 29 24" fill="none" xmlns="http://www.w3.org/2000/svg">
<g clip-path="url(#clip0_2207_8878)">
<path d="M3.73438 22.3826H25.1563C27.5938 22.3826 28.8359 21.1638 28.8359 18.7497V6.48022C28.8359 4.06616 27.5938 2.85913 25.1563 2.85913H21.8047C20.8789 2.85913 20.5977 2.67163 20.0703 2.08569L19.1328 1.03101C18.5469 0.386474 17.9492 0.0349121 16.7422 0.0349121H12.0664C10.8594 0.0349121 10.2617 0.386474 9.67578 1.03101L8.73828 2.08569C8.21094 2.65991 7.91797 2.85913 7.00391 2.85913H3.73438C1.28516 2.85913 0.0546875 4.06616 0.0546875 6.48022V18.7497C0.0546875 21.1638 1.28516 22.3826 3.73438 22.3826ZM3.75781 20.4958C2.60938 20.4958 1.94141 19.8747 1.94141 18.656V6.58569C1.94141 5.36694 2.60938 4.74585 3.75781 4.74585H7.47266C8.52735 4.74585 9.10157 4.54663 9.6875 3.89038L10.6016 2.85913C11.2695 2.10913 11.6211 1.92163 12.6524 1.92163H16.1563C17.1875 1.92163 17.5391 2.10913 18.207 2.85913L19.1211 3.89038C19.707 4.54663 20.2813 4.74585 21.3359 4.74585H25.1211C26.2813 4.74585 26.9492 5.36694 26.9492 6.58569V18.656C26.9492 19.8747 26.2813 20.4958 25.1211 20.4958H3.75781ZM14.4453 18.8083C17.9844 18.8083 20.832 15.9724 20.832 12.3982C20.832 8.83569 17.9961 5.99975 14.4453 5.99975C10.8945 5.99975 8.04688 8.83569 8.04688 12.3982C8.04688 15.9724 10.8945 18.8083 14.4453 18.8083ZM14.4453 17.0271C11.9024 17.0271 9.81641 14.9763 9.81641 12.3982C9.81641 9.83179 11.8906 7.76929 14.4453 7.76929C17 7.76929 19.0625 9.83179 19.0625 12.3982C19.0625 14.9763 17 17.0271 14.4453 17.0271ZM21.3125 8.08569C21.3125 8.906 21.9922 9.55053 22.7891 9.55053C23.5742 9.55053 24.2422 8.89429 24.2422 8.08569C24.2422 7.31225 23.5742 6.63257 22.7891 6.63257C21.9922 6.63257 21.3125 7.31225 21.3125 8.08569Z" fill="black" fill-opacity="0.85"/>
</g>
<defs>
<clipPath id="clip0_2207_8878">
<rect width="28.7812" height="23.0977" fill="white" transform="translate(0.0546875 0.0349121)"/>
</clipPath>
</defs>
</svg>
