<svg width="28" height="22" viewBox="0 0 28 22" fill="none" xmlns="http://www.w3.org/2000/svg">
<g clip-path="url(#clip0_2207_19059)">
<path d="M3.76367 21.6091H13.1152V19.7224H3.7871C2.61523 19.7224 1.9707 19.1013 1.9707 17.8826V11.6247H0.0839844V17.988C0.0839844 20.4021 1.31445 21.6091 3.76367 21.6091ZM14.7207 21.6091H24.0371C26.4981 21.6091 27.7168 20.4021 27.7168 17.988V11.6247H25.8301V17.8826C25.8301 19.1013 25.1738 19.7224 24.0137 19.7224H14.7207V21.6091ZM25.8301 10.031H27.7168V3.66772C27.7168 1.25366 26.4981 0.0349121 24.0371 0.0349121H14.7207V1.92163H24.0137C25.1738 1.92163 25.8301 2.55444 25.8301 3.77319V10.031ZM0.0839844 10.031H1.9707V3.77319C1.9707 2.55444 2.61523 1.92163 3.7871 1.92163H13.1152V0.0349121H3.76367C1.31445 0.0349121 0.0839844 1.25366 0.0839844 3.66772V10.031Z" fill="black" fill-opacity="0.85"/>
</g>
<defs>
<clipPath id="clip0_2207_19059">
<rect width="27.6328" height="21.5742" fill="white" transform="translate(0.0839844 0.0349121)"/>
</clipPath>
</defs>
</svg>
