<svg width="26" height="25" viewBox="0 0 26 25" fill="none" xmlns="http://www.w3.org/2000/svg">
<g clip-path="url(#clip0_2207_21930)">
<path d="M8.32349 24.656C12.8821 24.656 16.5735 20.9529 16.5735 16.3943C16.5735 11.8591 12.8704 8.15601 8.32349 8.15601C3.77661 8.15601 0.0734863 11.8591 0.0734863 16.3943C0.0734863 20.9529 3.77661 24.656 8.32349 24.656ZM8.32349 22.781C4.79615 22.781 1.94849 19.9333 1.94849 16.3943C1.94849 12.8904 4.79615 10.031 8.32349 10.031C11.8391 10.031 14.6985 12.8787 14.6985 16.3943C14.6985 19.9216 11.8391 22.781 8.32349 22.781Z" fill="black" fill-opacity="0.85"/>
<path d="M17.6751 24.656C22.2102 24.656 25.9133 20.9529 25.9133 16.3943C25.9133 11.8591 22.2102 8.15601 17.6751 8.15601C13.1165 8.15601 9.41333 11.8591 9.41333 16.3943C9.41333 20.9529 13.1165 24.656 17.6751 24.656ZM17.6751 22.781C14.1477 22.781 11.2883 19.9333 11.2883 16.3943C11.2883 12.8904 14.1477 10.031 17.6751 10.031C21.179 10.031 24.0383 12.8787 24.0383 16.3943C24.0383 19.9216 21.2024 22.781 17.6751 22.781Z" fill="black" fill-opacity="0.85"/>
<path d="M12.9993 16.6052C17.5462 16.6052 21.2376 12.9138 21.2376 8.35522C21.2376 3.80835 17.5462 0.105225 12.9993 0.105225C8.44068 0.105225 4.73755 3.80835 4.73755 8.35522C4.73755 12.9138 8.44068 16.6052 12.9993 16.6052ZM12.9993 14.7302C9.47193 14.7302 6.61255 11.8826 6.61255 8.35522C6.61255 4.8396 9.47193 1.98022 12.9993 1.98022C16.5032 1.98022 19.3626 4.8396 19.3626 8.35522C19.3626 11.8826 16.5149 14.7302 12.9993 14.7302Z" fill="black" fill-opacity="0.85"/>
</g>
<defs>
<clipPath id="clip0_2207_21930">
<rect width="25.8398" height="24.6211" fill="white" transform="translate(0.0734863 0.0349121)"/>
</clipPath>
</defs>
</svg>
