<svg width="24" height="24" viewBox="0 0 24 24" fill="none" xmlns="http://www.w3.org/2000/svg">
<g clip-path="url(#clip0_2207_18259)">
<path d="M12.0307 23.9411C18.5698 23.9411 23.9838 18.5154 23.9838 11.988C23.9838 5.44897 18.5581 0.0349121 12.019 0.0349121C5.4917 0.0349121 0.0776367 5.44897 0.0776367 11.988C0.0776367 18.5154 5.50342 23.9411 12.0307 23.9411ZM12.0307 21.949C6.49952 21.949 2.08155 17.5193 2.08155 11.988C2.08155 6.45679 6.4878 2.0271 12.019 2.0271C17.5503 2.0271 21.9917 6.45679 21.9917 11.988C21.9917 17.5193 17.562 21.949 12.0307 21.949Z" fill="black" fill-opacity="0.85"/>
<path d="M8.45649 6.58569C8.1518 7.2771 7.99946 7.95679 7.99946 8.62475C7.99946 10.8396 9.58149 12.656 12.0073 12.656C14.4565 12.656 16.0151 10.8396 16.0151 8.62475C16.0151 7.95679 15.8862 7.2771 15.5815 6.58569C15.4526 6.29272 15.0893 6.24585 14.8549 6.49194L13.519 7.87475L12.3706 6.37475C12.1831 6.11694 11.8549 6.11694 11.6674 6.37475L10.5073 7.87475L9.15961 6.49194C8.92524 6.24585 8.57367 6.29272 8.45649 6.58569ZM11.5034 18.7966C11.5034 19.0779 11.7378 19.2771 12.0073 19.2771C15.1245 19.2771 18.0073 17.3552 18.9565 14.6247C19.0971 14.2497 18.9448 13.9919 18.5464 13.9919C15.4526 13.9919 13.2026 15.8201 12.312 18.1404L12.5112 18.3513V12.0115H11.5034V18.7966ZM10.8003 16.5935C9.67524 15.0583 7.81196 13.9919 5.4682 13.9919C5.05805 13.9919 4.91742 14.2497 5.05805 14.6247C5.87836 17.0271 8.18696 18.7966 10.8706 19.1599C10.8237 19.0544 10.8003 18.9255 10.8003 18.7966V16.5935Z" fill="black" fill-opacity="0.85"/>
</g>
<defs>
<clipPath id="clip0_2207_18259">
<rect width="23.9062" height="23.918" fill="white" transform="translate(0.0776367 0.0349121)"/>
</clipPath>
</defs>
</svg>
