<svg width="28" height="22" viewBox="0 0 28 22" fill="none" xmlns="http://www.w3.org/2000/svg">
<g clip-path="url(#clip0_2207_19091)">
<path d="M3.77417 21.6091H13.1257V19.7224H3.7976C2.62573 19.7224 1.9812 19.1013 1.9812 17.8826V11.6247H0.0944824V17.988C0.0944824 20.4021 1.32495 21.6091 3.77417 21.6091ZM14.7312 21.6091H24.0476C26.5086 21.6091 27.7273 20.4021 27.7273 17.988V11.6247H25.8406V17.8826C25.8406 19.1013 25.1843 19.7224 24.0242 19.7224H14.7312V21.6091ZM25.8406 10.031H27.7273V3.66772C27.7273 1.25366 26.5086 0.0349121 24.0476 0.0349121H14.7312V1.92163H24.0242C25.1843 1.92163 25.8406 2.55444 25.8406 3.77319V10.031ZM0.0944824 10.031H1.9812V3.77319C1.9812 2.55444 2.62573 1.92163 3.7976 1.92163H13.1257V0.0349121H3.77417C1.32495 0.0349121 0.0944824 1.25366 0.0944824 3.66772V10.031Z" fill="black" fill-opacity="0.85"/>
<path d="M13.9461 14.6833C16.0554 14.6833 17.8133 12.9372 17.8133 10.8044C17.8133 8.69508 16.0554 6.93726 13.9461 6.93726C11.8133 6.93726 10.0554 8.69508 10.0554 10.8044C10.0554 12.9372 11.8133 14.6833 13.9461 14.6833Z" fill="black" fill-opacity="0.85"/>
</g>
<defs>
<clipPath id="clip0_2207_19091">
<rect width="27.6328" height="21.5742" fill="white" transform="translate(0.0944824 0.0349121)"/>
</clipPath>
</defs>
</svg>
