<svg width="25" height="25" viewBox="0 0 25 25" fill="none" xmlns="http://www.w3.org/2000/svg">
<g clip-path="url(#clip0_2207_3491)">
<path d="M8.70581 17.3684H15.948C17.5886 17.3684 18.4558 16.4075 18.4558 14.8606V12.8567H22.8972C23.8699 12.8567 24.6433 12.2825 24.6433 11.3802C24.6433 10.8294 24.3621 10.3958 23.8347 9.93872L13.78 1.06763C13.2878 0.645752 12.8543 0.364502 12.3269 0.364502C11.7996 0.364502 11.366 0.645752 10.8738 1.06763L0.819092 9.95044C0.26831 10.4309 0.010498 10.8294 0.010498 11.3802C0.010498 12.2825 0.783936 12.8567 1.75659 12.8567H6.198V14.8606C6.198 16.4075 7.06519 17.3684 8.70581 17.3684ZM8.89331 15.5989C8.45972 15.5989 8.15503 15.3059 8.15503 14.8606V11.4856C8.15503 11.2044 8.04956 11.0872 7.75659 11.0872H2.65894C2.57691 11.0872 2.53003 11.052 2.53003 10.9934C2.53003 10.9466 2.55347 10.8997 2.60034 10.8528L12.0808 2.62622C12.1746 2.53247 12.2449 2.49732 12.3269 2.49732C12.4089 2.49732 12.4793 2.53247 12.573 2.62622L22.0535 10.8528C22.1003 10.8997 22.1238 10.9466 22.1238 10.9934C22.1238 11.052 22.0769 11.0872 21.9949 11.0872H16.8972C16.616 11.0872 16.4988 11.2044 16.4988 11.4856V14.8606C16.4988 15.2942 16.1824 15.5989 15.7605 15.5989H8.89331ZM8.20191 24.8919H16.3464C17.7058 24.8919 18.4793 24.1419 18.4793 22.7825V21.1067C18.4793 19.7356 17.7058 18.9622 16.3464 18.9622H8.20191C6.85425 18.9622 6.08081 19.7473 6.08081 21.1067V22.7825C6.08081 24.1302 6.85425 24.8919 8.20191 24.8919ZM8.47144 23.2395C8.06128 23.2395 7.85034 23.0286 7.85034 22.6184V21.2708C7.85034 20.8606 8.06128 20.6145 8.47144 20.6145H16.0769C16.4871 20.6145 16.7097 20.8606 16.7097 21.2708V22.6184C16.7097 23.0286 16.4871 23.2395 16.0769 23.2395H8.47144Z" fill="black" fill-opacity="0.85"/>
</g>
<defs>
<clipPath id="clip0_2207_3491">
<rect width="24.6328" height="24.8555" fill="white" transform="translate(0.010498 0.036377)"/>
</clipPath>
</defs>
</svg>
