<svg width="23" height="31" viewBox="0 0 23 31" fill="none" xmlns="http://www.w3.org/2000/svg">
<g clip-path="url(#clip0_2207_16962)">
<path d="M13.6584 30.2956C19.5764 30.2956 22.0959 28.9948 22.0959 25.8073V5.46362C22.0959 2.04175 18.9904 0.0378418 13.6584 0.0378418C8.33813 0.0378418 5.22094 2.04175 5.22094 5.46362V25.8073C5.22094 28.9948 7.75219 30.2956 13.6584 30.2956ZM13.6701 12.5183C12.5217 12.5183 10.7639 12.6003 10.1428 12.6003C9.24047 12.6003 8.84204 12.2487 8.74829 11.3112L8.56079 9.03784C8.39672 7.29175 9.62719 6.58862 13.6701 6.58862C17.7014 6.58862 18.9319 7.29175 18.7678 9.03784L18.5803 11.3112C18.4865 12.2487 18.0998 12.6003 17.1858 12.6003C16.5764 12.6003 14.7483 12.5183 13.6701 12.5183ZM13.6701 25.4206C9.59204 25.4206 8.34986 24.8112 8.60767 23.03L8.76001 21.9284C8.95922 20.487 10.1662 19.9948 13.6701 19.9948C17.1623 19.9948 18.3693 20.487 18.5686 21.9284L18.7209 23.03C18.9787 24.8112 17.7365 25.4206 13.6701 25.4206ZM6.09985 8.20581L0.369385 13.9011C-0.00561523 14.2878 -0.00561523 14.9089 0.369385 15.2956C0.756104 15.6706 1.37719 15.6823 1.76391 15.2956L6.09985 10.9597V8.20581Z" fill="black" fill-opacity="0.85"/>
</g>
<defs>
<clipPath id="clip0_2207_16962">
<rect width="22.0078" height="30.2695" fill="white" transform="translate(0.0881348 0.0378418)"/>
</clipPath>
</defs>
</svg>
