<svg width="26" height="24" viewBox="0 0 26 24" fill="none" xmlns="http://www.w3.org/2000/svg">
<g clip-path="url(#clip0_2207_17228)">
<path d="M24.719 6.39087C25.1175 6.39087 25.4104 6.0979 25.4104 5.69947V0.730713C25.4104 0.332276 25.1175 0.0393066 24.719 0.0393066H24.0979C23.6995 0.0393066 23.4065 0.332276 23.4065 0.730713V5.69947C23.4065 6.0979 23.6995 6.39087 24.0979 6.39087H24.719ZM24.719 15.0745C25.1175 15.0745 25.4104 14.7815 25.4104 14.3831V9.42603C25.4104 9.03931 25.1175 8.74634 24.719 8.74634H24.0979C23.6995 8.74634 23.4065 9.03931 23.4065 9.42603V14.3831C23.4065 14.7815 23.6995 15.0745 24.0979 15.0745H24.719ZM24.719 23.7815C25.1175 23.7815 25.4104 23.4885 25.4104 23.0901V18.1213C25.4104 17.7229 25.1175 17.4299 24.719 17.4299H24.0979C23.6995 17.4299 23.4065 17.7229 23.4065 18.1213V23.0901C23.4065 23.4885 23.6995 23.7815 24.0979 23.7815H24.719ZM2.85181 6.37915C3.25024 6.37915 3.54321 6.08619 3.54321 5.69947V0.730713C3.54321 0.332276 3.25024 0.0393066 2.85181 0.0393066H2.23071C1.83227 0.0393066 1.53931 0.332276 1.53931 0.730713V5.69947C1.53931 6.08619 1.83227 6.37915 2.23071 6.37915H2.85181ZM2.85181 23.7698C3.25024 23.7698 3.54321 23.4768 3.54321 23.0901V18.1213C3.54321 17.7229 3.25024 17.4299 2.85181 17.4299H2.23071C1.83227 17.4299 1.53931 17.7229 1.53931 18.1213V23.0901C1.53931 23.4768 1.83227 23.7698 2.23071 23.7698H2.85181Z" fill="black" fill-opacity="0.85"/>
<path d="M14.3947 21.3088C17.9689 19.2463 19.1057 17.5002 17.9103 15.4377L10.9025 3.29714C9.6721 1.16433 6.9885 1.05886 3.76585 2.91042C0.519757 4.77371 -0.722431 7.16433 0.519757 9.29714L7.51585 21.4377C8.72288 23.5002 10.8088 23.3713 14.3947 21.3088ZM3.59007 12.801L2.47679 10.8674L1.29319 11.5471C0.824444 11.8166 0.695538 12.3674 0.941631 12.8127L1.14085 13.176C1.38694 13.6096 1.94944 13.762 2.40647 13.4924L3.59007 12.801Z" fill="white"/>
<path d="M14.3947 21.3088C17.9689 19.2463 19.1057 17.5002 17.9103 15.4377L10.9025 3.29714C9.6721 1.16433 6.9885 1.05886 3.76585 2.91042C0.519757 4.77371 -0.722431 7.16433 0.519757 9.29714L7.51585 21.4377C8.72288 23.5002 10.8088 23.3713 14.3947 21.3088ZM8.19554 10.5862C7.53929 10.9729 6.47288 11.676 6.12132 11.887C5.5471 12.2151 5.13694 12.1448 4.72679 11.5471L3.82444 10.2698C3.09788 9.21511 3.57835 8.37136 6.08616 6.92995C8.57054 5.48855 9.54319 5.48855 10.1057 6.66042L10.7502 8.07839C11.0432 8.69949 10.9377 9.09792 10.34 9.42605C9.97679 9.66042 8.88694 10.1877 8.19554 10.5862ZM12.6721 18.344C10.1877 19.7854 9.16819 19.8674 8.68772 18.6252L8.41819 17.9104C8.01975 16.9026 8.57054 16.2112 10.7267 14.9807C12.8596 13.7385 13.7619 13.5979 14.4182 14.4416L14.8986 15.0393C15.7307 16.094 15.1447 16.9143 12.6721 18.344ZM12.4025 7.71511L13.5978 7.03542C14.0432 6.77761 14.2072 6.20339 13.9494 5.7698L13.7385 5.41824C13.4807 4.97292 12.9299 4.8323 12.4728 5.10183L11.2892 5.79324L12.4025 7.71511ZM3.59007 12.801L2.47679 10.8674L1.29319 11.5471C0.824444 11.8166 0.695538 12.3674 0.941631 12.8127L1.14085 13.176C1.38694 13.6096 1.94944 13.762 2.40647 13.4924L3.59007 12.801Z" fill="black" fill-opacity="0.85"/>
</g>
<defs>
<clipPath id="clip0_2207_17228">
<rect width="25.3642" height="23.8008" fill="white" transform="translate(0.0461426 0.0393066)"/>
</clipPath>
</defs>
</svg>
