<svg width="17" height="33" viewBox="0 0 17 33" fill="none" xmlns="http://www.w3.org/2000/svg">
<g clip-path="url(#clip0_2207_17158)">
<path d="M8.10323 1.79712C10.1774 1.79712 12.0524 2.55884 13.4938 3.8479C13.9977 4.2815 14.5251 4.31665 14.8766 3.97681C15.2633 3.59009 15.2399 3.02759 14.8297 2.594C13.0836 0.847901 10.6579 0.0393066 8.10323 0.0393066C5.56026 0.0393066 3.13447 0.847901 1.38838 2.594C0.966507 3.02759 0.94307 3.59009 1.3415 3.97681C1.68135 4.31665 2.20869 4.2815 2.7126 3.8479C4.15401 2.55884 6.04073 1.79712 8.10323 1.79712Z" fill="black" fill-opacity="0.85"/>
<path d="M8.10322 5.9104C9.13447 5.9104 10.0368 6.22681 10.7282 6.80103C11.3258 7.2229 11.818 7.19947 12.1462 6.85962C12.5094 6.50806 12.486 5.99243 12.111 5.60572C11.3962 4.89087 9.81416 4.15259 8.10322 4.15259C6.404 4.15259 4.82197 4.89087 4.09541 5.60572C3.72041 5.99243 3.69697 6.50806 4.06025 6.85962C4.38838 7.19947 4.88056 7.2229 5.47822 6.80103C6.18135 6.22681 7.08369 5.9104 8.10322 5.9104Z" fill="black" fill-opacity="0.85"/>
<path d="M8.10327 32.1252C12.6033 32.1252 14.6306 31.1057 14.6306 28.5159V13.3049C14.6306 10.6331 12.158 9.05103 8.10327 9.05103C4.04858 9.05103 1.58765 10.6331 1.58765 13.3049V28.5159C1.58765 31.1057 3.60327 32.1252 8.10327 32.1252ZM8.10327 30.2971C4.75171 30.2971 3.43921 29.7815 3.43921 28.4573V13.3049C3.43921 11.7698 5.06811 10.9026 8.10327 10.9026C11.1502 10.9026 12.7791 11.7698 12.7791 13.3049V28.4573C12.7791 29.7815 11.4666 30.2971 8.10327 30.2971ZM2.58374 18.2854V15.8479H1.08374C0.509521 15.8479 0.0524902 16.2815 0.0524902 16.844V17.2893C0.0524902 17.8401 0.509521 18.2854 1.08374 18.2854H2.58374ZM13.6228 18.2854H15.1228C15.7087 18.2854 16.1541 17.8401 16.1541 17.2893V16.844C16.1541 16.2815 15.7087 15.8479 15.1228 15.8479H13.6228V18.2854ZM8.10327 18.7659C8.95874 18.7659 10.2361 18.8362 10.6697 18.8362C11.3845 18.8362 11.7009 18.5432 11.7713 17.8049L11.9119 16.1643C12.0291 14.8166 11.1267 14.301 8.10327 14.301C5.07983 14.301 4.18921 14.8166 4.3064 16.1643L4.44702 17.8049C4.51733 18.5432 4.83374 18.8362 5.53687 18.8362C5.98218 18.8362 7.3064 18.7659 8.10327 18.7659ZM8.10327 28.176C11.1267 28.176 12.0877 27.7307 11.8767 26.3362L11.7478 25.5393C11.572 24.426 10.7166 24.0745 8.10327 24.0745C5.50171 24.0745 4.63452 24.426 4.45874 25.5393L4.34155 26.3362C4.13061 27.7307 5.07983 28.176 8.10327 28.176Z" fill="black" fill-opacity="0.85"/>
</g>
<defs>
<clipPath id="clip0_2207_17158">
<rect width="16.1016" height="32.0977" fill="white" transform="translate(0.0524902 0.0393066)"/>
</clipPath>
</defs>
</svg>
