<svg width="23" height="29" viewBox="0 0 23 29" fill="none" xmlns="http://www.w3.org/2000/svg">
<g clip-path="url(#clip0_2207_15283)">
<path d="M11.4576 1.98169C13.9888 1.98169 16.274 2.8606 18.0201 4.43091C18.5006 4.8645 19.0513 4.96997 19.4732 4.60669C19.9185 4.21997 19.9185 3.57544 19.4146 3.11841C17.3052 1.1731 14.4927 0.0715332 11.4576 0.0715332C8.42246 0.0715332 5.60996 1.1731 3.50059 3.11841C3.0084 3.57544 3.0084 4.21997 3.44199 4.60669C3.87559 4.96997 4.41465 4.8645 4.89512 4.43091C6.64121 2.8606 8.9381 1.98169 11.4576 1.98169Z" fill="black" fill-opacity="0.85"/>
<path d="M11.4809 6.6809C12.6997 6.6809 13.8247 7.03246 14.7036 7.73559C15.2075 8.09887 15.7348 8.26293 16.1567 7.88793C16.5903 7.50121 16.602 6.79809 16.0747 6.37621C14.8091 5.35668 13.2036 4.77075 11.4809 4.77075C9.75829 4.77075 8.15282 5.35668 6.8872 6.37621C6.34813 6.79809 6.35985 7.50121 6.80516 7.88793C7.22704 8.26293 7.74266 8.09887 8.25829 7.73559C9.16063 7.0559 10.2622 6.6809 11.4809 6.6809Z" fill="black" fill-opacity="0.85"/>
<path d="M0.090332 23.4036C0.090332 24.7395 0.875488 25.7239 2.30517 25.7239H20.7153C22.1333 25.7239 22.9301 24.7395 22.9301 23.4036V20.5676C22.9301 18.9622 22.7075 17.9309 21.6762 16.8176L20.7387 15.7981L19.7661 12.9856C19.2036 11.3567 18.0669 10.6536 16.6958 10.5012C16.0512 10.4192 13.9536 10.3606 11.5044 10.3606C9.04345 10.3606 6.96924 10.4192 6.31299 10.5012C4.94189 10.6536 3.81689 11.3684 3.25439 12.9856L2.2583 15.7981L1.34424 16.8176C0.312988 17.9426 0.090332 18.9622 0.090332 20.5676V23.4036ZM1.70752 23.0286V20.5676C1.70752 19.2903 1.84814 18.7044 2.60986 17.8255L3.74658 16.5247L4.73095 13.677C5.10595 12.5872 5.66845 12.2473 6.51221 12.1419C7.10986 12.0716 9.0083 11.9895 11.5044 11.9895C14.0005 11.9895 15.9106 12.0716 16.5083 12.1419C17.352 12.2473 17.9145 12.5872 18.2895 13.677L19.2622 16.5247L20.4106 17.8255C21.1723 18.7044 21.313 19.2903 21.313 20.5676V23.0286C21.313 23.7317 21.0786 24.1067 20.3755 24.1067H2.64502C1.94189 24.1067 1.70752 23.7317 1.70752 23.0286ZM5.41064 16.2669H17.5981C18.0434 16.2669 18.1841 15.9505 18.0434 15.5637L17.4926 13.888C17.2817 13.2786 16.9419 13.0559 16.3911 12.9856C15.77 12.8919 14.0591 12.8216 11.5044 12.8216C8.94971 12.8216 7.23877 12.8919 6.61767 12.9856C6.07861 13.0559 5.73877 13.2786 5.52783 13.888L4.96533 15.5637C4.82471 15.9505 4.97705 16.2669 5.41064 16.2669ZM4.18017 21.7747C4.73095 21.7747 5.14111 21.3762 5.14111 20.8137V19.4192C5.14111 18.8567 4.73095 18.47 4.18017 18.47C3.62939 18.47 3.21924 18.8684 3.21924 19.4192V20.8137C3.21924 21.3645 3.62939 21.7747 4.18017 21.7747ZM9.47705 21.3528H13.5083C13.9536 21.3528 14.2583 21.0598 14.2583 20.5676V19.6536C14.2583 19.1848 13.9536 18.9036 13.5083 18.9036H9.47705C9.03174 18.9036 8.73877 19.1848 8.73877 19.6536V20.5676C8.73877 21.0598 9.03174 21.3528 9.47705 21.3528ZM18.9223 21.7747C19.4848 21.7747 19.895 21.3762 19.895 20.8137V19.4192C19.895 18.8567 19.4848 18.47 18.9223 18.47C18.395 18.47 17.9731 18.8802 17.9731 19.4192V20.8137C17.9731 21.3645 18.395 21.7747 18.9223 21.7747ZM2.01221 28.1731H3.13721C3.85205 28.1731 4.40283 27.6223 4.40283 26.9192V24.9622L0.746582 24.4348V26.9192C0.746582 27.6223 1.30908 28.1731 2.01221 28.1731ZM19.8715 28.1731H21.0083C21.7114 28.1731 22.2622 27.6223 22.2622 26.9192V24.4348L18.6176 24.9622V26.9192C18.6176 27.6223 19.1567 28.1731 19.8715 28.1731Z" fill="black" fill-opacity="0.85"/>
</g>
<defs>
<clipPath id="clip0_2207_15283">
<rect width="22.8398" height="28.1367" fill="white" transform="translate(0.090332 0.036377)"/>
</clipPath>
</defs>
</svg>
