<svg width="32" height="22" viewBox="0 0 32 22" fill="none" xmlns="http://www.w3.org/2000/svg">
<g clip-path="url(#clip0_2207_17334)">
<path d="M30.0884 18.6264C30.9205 18.6264 31.6236 17.9467 31.6236 17.1499C31.6236 16.3413 30.9322 15.6733 30.0884 15.6733C29.233 15.6733 28.5533 16.3413 28.5533 17.1499C28.5533 17.9467 29.2564 18.6264 30.0884 18.6264ZM30.0884 13.4233C30.6626 13.4233 31.0611 13.0249 31.0845 12.4272L31.3306 4.13036C31.3541 3.38036 30.8619 2.87646 30.0884 2.87646C29.315 2.87646 28.8111 3.38036 28.8345 4.13036L29.0806 12.4272C29.1041 13.0249 29.5142 13.4233 30.0884 13.4233Z" fill="black" fill-opacity="0.85"/>
<path d="M3.68604 21.4975H21.1586C23.643 21.4975 24.8383 20.3257 24.8383 17.8764V3.59131C24.8383 1.24756 23.6313 0.0522461 21.2641 0.0522461H15.5805C13.6704 0.0522461 12.4751 0.462402 10.9282 1.62256L1.82276 8.54834C0.475098 9.56787 0.00634766 10.4702 0.00634766 12.146V17.8764C0.00634766 20.3257 1.21338 21.4975 3.68604 21.4975ZM3.75635 10.6928C3.13526 10.6928 3.00635 10.0249 3.48682 9.67334L12.2172 2.99365C13.2133 2.19678 14.0805 1.93897 15.5805 1.93897H21.229C22.3188 1.93897 22.9516 2.54834 22.9516 3.68506V8.94678C22.9516 10.0717 22.3071 10.6928 21.229 10.6928H3.75635Z" fill="black" fill-opacity="0.85"/>
</g>
<defs>
<clipPath id="clip0_2207_17334">
<rect width="31.6172" height="21.457" fill="white" transform="translate(0.00634766 0.0405273)"/>
</clipPath>
</defs>
</svg>
