<svg width="27" height="28" viewBox="0 0 27 28" fill="none" xmlns="http://www.w3.org/2000/svg">
<g clip-path="url(#clip0_2207_15403)">
<path d="M1.58604 27.5872H1.64464C5.30089 27.5872 5.60557 25.2083 7.51573 25.2083C9.36728 25.2083 9.88292 27.5872 13.0821 27.5872C16.2696 27.5872 16.7852 25.2083 18.6368 25.2083C20.5469 25.2083 20.8516 27.5872 24.5079 27.5872H24.5665C25.0235 27.5872 25.3868 27.2239 25.3868 26.7669C25.3868 26.3098 25.0235 25.9348 24.5665 25.9348H24.5079C23.2423 25.9348 22.5391 25.4192 21.6485 24.7864C20.8868 24.2356 19.9376 23.5559 18.6368 23.5559C17.3008 23.5559 16.3399 24.2825 15.5782 24.845C14.7696 25.4661 14.1251 25.9348 13.0821 25.9348C12.0274 25.9348 11.3946 25.4661 10.586 24.845C9.82432 24.2825 8.85167 23.5559 7.51573 23.5559C6.21494 23.5559 5.26573 24.2356 4.504 24.7864C3.61338 25.4192 2.91026 25.9348 1.64464 25.9348H1.58604C1.12901 25.9348 0.765726 26.3098 0.765726 26.7669C0.765726 27.2239 1.12901 27.5872 1.58604 27.5872ZM0.578226 20.3802L3.14464 23.7903C3.27354 23.7083 3.41417 23.6028 3.56651 23.4973C4.90245 22.5247 6.05089 21.9622 7.51573 21.9622C9.02744 21.9622 10.1641 22.5598 11.5469 23.5676C12.3673 24.2005 12.6016 24.3411 13.0821 24.3411C13.5274 24.3411 13.7618 24.2005 14.4649 23.6848C15.9063 22.5833 17.0782 21.9622 18.6368 21.9622C20.1133 21.9622 21.2501 22.5247 22.586 23.4973C22.7383 23.6028 22.879 23.7083 23.0196 23.7903L25.5743 20.3802C26.6524 18.9739 25.9844 17.3567 24.1329 17.3567H2.01964C0.16807 17.3567 -0.499899 18.9739 0.578226 20.3802ZM6.47275 4.93482C6.68369 3.9856 7.09386 2.76685 7.37511 2.27466C7.60948 1.87622 7.86729 1.68872 8.32432 1.63013C8.98057 1.53638 10.4337 1.4895 13.0821 1.4895C15.7188 1.4895 17.1837 1.52466 17.8282 1.63013C18.2969 1.70044 18.543 1.87622 18.7774 2.27466C19.0704 2.75513 19.4571 3.9856 19.6798 4.93482C19.7618 5.25122 19.6212 5.36841 19.293 5.35669C17.8751 5.26294 16.1758 5.16919 13.0821 5.16919C9.97667 5.16919 8.28917 5.26294 6.85948 5.35669C6.53135 5.36841 6.40244 5.25122 6.47275 4.93482ZM6.89464 11.2512C6.1212 11.2512 5.52354 10.6653 5.52354 9.88013C5.52354 9.09497 6.1212 8.50904 6.89464 8.50904C7.67979 8.50904 8.26573 9.09497 8.26573 9.88013C8.26573 10.6653 7.67979 11.2512 6.89464 11.2512ZM10.8087 10.9231C10.2344 10.9231 9.82432 10.513 9.82432 9.927C9.82432 9.34107 10.2344 8.94263 10.8087 8.94263H15.3438C15.9298 8.94263 16.3282 9.34107 16.3282 9.927C16.3282 10.513 15.9298 10.9231 15.3438 10.9231H10.8087ZM19.2579 11.2512C18.4727 11.2512 17.8868 10.6653 17.8868 9.88013C17.8868 9.09497 18.4727 8.50904 19.2579 8.50904C20.043 8.50904 20.629 9.09497 20.629 9.88013C20.629 10.6653 20.043 11.2512 19.2579 11.2512ZM13.0821 13.5716C15.9532 13.5716 19.7852 13.4192 21.4024 13.2434C22.5626 13.1028 23.2071 12.47 23.2071 11.3684V9.85669C23.2071 8.41529 22.9141 7.60669 22.129 6.58716L21.4024 5.64966C21.086 4.10279 20.5118 2.4856 20.2188 1.85279C19.7618 0.880127 18.8712 0.317627 17.7344 0.165283C17.1719 0.083252 15.2852 0.036377 13.0821 0.036377C10.8673 0.036377 8.99228 0.0949707 8.41807 0.165283C7.28135 0.294189 6.39073 0.880127 5.9337 1.85279C5.64073 2.4856 5.06651 4.10279 4.75011 5.64966L4.03526 6.58716C3.23839 7.60669 2.94542 8.41529 2.94542 9.85669V11.3684C2.94542 12.47 3.58995 13.1028 4.75011 13.2434C6.37901 13.4192 10.1993 13.5716 13.0821 13.5716ZM4.08214 15.927H5.08995C5.73448 15.927 6.22667 15.4348 6.22667 14.802V12.6692L2.94542 11.0989V14.802C2.94542 15.4348 3.43761 15.927 4.08214 15.927ZM21.0626 15.927H22.0704C22.7149 15.927 23.2071 15.4348 23.2071 14.802V11.0989L19.9376 12.6692V14.802C19.9376 15.4348 20.4298 15.927 21.0626 15.927Z" fill="black" fill-opacity="0.85"/>
</g>
<defs>
<clipPath id="clip0_2207_15403">
<rect width="26.0305" height="27.7148" fill="white" transform="translate(0.0610352 0.036377)"/>
</clipPath>
</defs>
</svg>
