<svg width="23" height="31" viewBox="0 0 23 31" fill="none" xmlns="http://www.w3.org/2000/svg">
<g clip-path="url(#clip0_2207_16982)">
<path d="M8.45215 30.2971C14.3701 30.2971 16.8896 28.9963 16.8896 25.8088V5.46509C16.8896 2.04322 13.7841 0.0393066 8.45215 0.0393066C3.13184 0.0393066 0.0146484 2.04322 0.0146484 5.46509V25.8088C0.0146484 28.9963 2.5459 30.2971 8.45215 30.2971ZM8.45215 28.3518C3.92871 28.3518 1.97168 27.5901 1.97168 25.7151V5.46509C1.97168 3.27369 4.36231 1.99634 8.45215 1.99634C12.5537 1.99634 14.9326 3.27369 14.9326 5.46509V25.7151C14.9326 27.5901 12.9873 28.3518 8.45215 28.3518ZM8.46387 12.6252C9.50684 12.6252 11.288 12.7073 11.874 12.7073C12.7646 12.7073 13.1396 12.3674 13.2216 11.4534L13.4091 9.25025C13.5615 7.56275 12.3779 6.88306 8.46387 6.88306C4.53809 6.88306 3.35449 7.56275 3.50684 9.25025L3.69434 11.4534C3.77637 12.3674 4.16309 12.7073 5.04199 12.7073C5.63965 12.7073 7.35059 12.6252 8.46387 12.6252ZM8.46387 25.1291C12.4013 25.1291 13.6084 24.5432 13.3623 22.8205L13.2099 21.7541C13.0224 20.3479 11.8505 19.8791 8.46387 19.8791C5.06543 19.8791 3.89356 20.3479 3.70606 21.7541L3.55371 22.8205C3.30762 24.5432 4.51465 25.1291 8.46387 25.1291ZM16.0107 17.0666V19.8205L20.3584 24.1565C20.7451 24.5432 21.3544 24.5315 21.7412 24.1565C22.1162 23.7698 22.1162 23.137 21.7412 22.762L16.0107 17.0666Z" fill="black" fill-opacity="0.85"/>
</g>
<defs>
<clipPath id="clip0_2207_16982">
<rect width="22.0078" height="30.2695" fill="white" transform="translate(0.0146484 0.0393066)"/>
</clipPath>
</defs>
</svg>
