<svg width="44" height="19" viewBox="0 0 44 19" fill="none" xmlns="http://www.w3.org/2000/svg">
<g clip-path="url(#clip0_2207_16573)">
<path d="M34.9766 4.29175L36.3477 5.39331L39.5586 2.11206C39.8281 1.83081 40.1563 1.72534 40.5313 1.72534H42.3125C42.8516 1.72534 43.1914 1.3855 43.1914 0.881592C43.1914 0.377686 42.8516 0.0378418 42.3125 0.0378418H40.7305C39.7344 0.0378418 38.8672 0.319092 38.1992 1.0105L34.9766 4.29175ZM3.11328 16.4323H4.94141C4.8711 16.0808 4.8125 15.7175 4.8125 15.3308C4.8125 12.8112 6.80469 10.8308 9.3125 10.8308C11.832 10.8308 13.8125 12.8112 13.8125 15.3308C13.8125 15.7175 13.7656 16.0808 13.6836 16.4323H28.6133C28.543 16.0808 28.4844 15.7175 28.4844 15.3308C28.4844 12.8112 30.4766 10.8308 32.9844 10.8308C35.5039 10.8308 37.4844 12.8112 37.4844 15.3308C37.4844 15.7175 37.4375 16.0808 37.3555 16.4323H38.9024C40.5899 16.4323 41.6211 15.3659 41.6211 13.6316V8.92065C41.6211 7.28003 41.1289 5.8855 38.9492 5.20581L36.5352 4.46753C35.0117 2.65112 32.3516 0.0612793 27.5117 0.0612793H24.7578C19.9297 0.0612793 18.0078 0.53003 15.125 2.33472L10.4024 5.29956L5.19922 5.93237C1.96485 6.33081 0.0546875 8.19409 0.0546875 10.9831V13.3034C0.0546875 15.2956 1.16797 16.4323 3.11328 16.4323ZM9.3125 18.4597C11.0703 18.4597 12.4531 17.0769 12.4531 15.3308C12.4531 13.5847 11.0586 12.1901 9.3125 12.1901C7.57813 12.1901 6.1836 13.5847 6.1836 15.3308C6.1836 17.0651 7.57813 18.4597 9.3125 18.4597ZM32.9844 18.4597C34.7305 18.4597 36.125 17.0651 36.125 15.3308C36.125 13.5847 34.7305 12.1901 32.9844 12.1901C31.2617 12.1901 29.8555 13.5964 29.8555 15.3308C29.8555 17.0651 31.25 18.4597 32.9844 18.4597Z" fill="black" fill-opacity="0.85"/>
</g>
<defs>
<clipPath id="clip0_2207_16573">
<rect width="43.1367" height="18.6445" fill="white" transform="translate(0.0546875 0.0378418)"/>
</clipPath>
</defs>
</svg>
