<svg width="23" height="29" viewBox="0 0 23 29" fill="none" xmlns="http://www.w3.org/2000/svg">
<g clip-path="url(#clip0_2207_15289)">
<path d="M11.4362 1.95826C13.9557 1.95826 16.2526 2.83716 17.9986 4.40747C18.4791 4.84107 19.0299 4.94654 19.4518 4.58326C19.8854 4.19654 19.8854 3.552 19.3932 3.09497C17.2838 1.14966 14.4713 0.0480957 11.4362 0.0480957C8.40098 0.0480957 5.58848 1.14966 3.47911 3.09497C2.98692 3.552 2.98692 4.19654 3.42051 4.58326C3.84239 4.94654 4.39317 4.84107 4.87364 4.40747C6.61973 2.83716 8.91661 1.95826 11.4362 1.95826Z" fill="black" fill-opacity="0.85"/>
<path d="M11.4361 6.65746C12.6548 6.65746 13.7915 7.00903 14.6587 7.71215C15.1626 8.07543 15.69 8.23949 16.1118 7.86449C16.5571 7.47778 16.5689 6.77465 16.0298 6.35278C14.7642 5.33325 13.1587 4.74731 11.4361 4.74731C9.71336 4.74731 8.10789 5.33325 6.84227 6.35278C6.30321 6.77465 6.31493 7.47778 6.76024 7.86449C7.18211 8.23949 7.69774 8.07543 8.21336 7.71215C9.11571 7.03246 10.2173 6.65746 11.4361 6.65746Z" fill="black" fill-opacity="0.85"/>
<path d="M0.0922852 26.7669C0.0922852 27.5169 0.689941 28.1262 1.46338 28.1262H2.58838C3.3501 28.1262 3.94776 27.5169 3.94776 26.7669V25.5012H18.9243V26.7669C18.9243 27.5169 19.522 28.1262 20.2837 28.1262H21.4204C22.1821 28.1262 22.7798 27.5169 22.7798 26.7669V20.4856C22.7798 18.8684 22.5689 17.8723 21.5493 16.7708L20.6235 15.7512L19.6157 12.927C19.0532 11.3216 17.9634 10.6302 16.6157 10.4778C15.9829 10.3958 13.8853 10.3489 11.4361 10.3489C8.98681 10.3489 6.88917 10.3958 6.25635 10.4778C4.9087 10.6302 3.81885 11.3216 3.25635 12.927L2.24854 15.7512L1.32276 16.7708C0.303223 17.8723 0.0922852 18.8684 0.0922852 20.4856V26.7669ZM4.96729 15.7512C4.58056 15.7512 4.4751 15.5169 4.60401 15.1419L5.20166 13.3841C5.42431 12.763 5.68213 12.5989 6.23291 12.5169C6.90088 12.4231 8.729 12.3411 11.4361 12.3411C14.1431 12.3411 15.9712 12.4231 16.6275 12.5169C17.1782 12.5989 17.4478 12.763 17.6704 13.3841L18.2681 15.1419C18.397 15.5169 18.2798 15.7512 17.8931 15.7512H4.96729ZM3.64307 21.6809C3.10401 21.6809 2.74073 21.3176 2.74073 20.7903V19.302C2.74073 18.7747 3.10401 18.4231 3.64307 18.4231C4.18213 18.4231 4.5337 18.763 4.5337 19.302V20.7903C4.5337 21.3294 4.18213 21.6809 3.64307 21.6809ZM9.26807 21.2239C8.85791 21.2239 8.62354 20.9895 8.62354 20.5208V19.5598C8.62354 19.1145 8.85791 18.8802 9.26807 18.8802H13.5689C13.9907 18.8802 14.2251 19.1145 14.2251 19.5598V20.5208C14.2251 20.9895 13.9907 21.2239 13.5689 21.2239H9.26807ZM19.3228 21.6809C18.7954 21.6809 18.4321 21.3176 18.4321 20.7903V19.302C18.4321 18.7747 18.7954 18.4231 19.3228 18.4231C19.8618 18.4231 20.2251 18.763 20.2251 19.302V20.7903C20.2251 21.3294 19.8618 21.6809 19.3228 21.6809Z" fill="black" fill-opacity="0.85"/>
</g>
<defs>
<clipPath id="clip0_2207_15289">
<rect width="22.6875" height="28.0898" fill="white" transform="translate(0.0922852 0.036377)"/>
</clipPath>
</defs>
</svg>
