<svg width="22" height="31" viewBox="0 0 22 31" fill="none" xmlns="http://www.w3.org/2000/svg">
<g clip-path="url(#clip0_2207_17078)">
<path d="M1.00317 24.7073C1.61255 24.7073 1.98755 24.3323 1.98755 23.7112V13.5745C1.98755 12.9534 1.61255 12.5784 1.00317 12.5784C0.405518 12.5784 0.0187988 12.9534 0.0187988 13.5627V23.7229C0.0187988 24.3323 0.405518 24.7073 1.00317 24.7073ZM1.00317 16.5159H5.13989V14.9807H1.00317V16.5159ZM12.8157 30.2971C18.7336 30.2971 21.2532 28.9963 21.2532 25.8088V5.46509C21.2532 2.04322 18.1477 0.0393066 12.8157 0.0393066C7.48364 0.0393066 4.37818 2.04322 4.37818 5.46509V25.8088C4.37818 28.9963 6.89771 30.2971 12.8157 30.2971ZM12.8157 28.3518C8.29224 28.3518 6.33521 27.5901 6.33521 25.7151V5.46509C6.33521 3.27369 8.72583 1.99634 12.8157 1.99634C16.9172 1.99634 19.2961 3.27369 19.2961 5.46509V25.7151C19.2961 27.5901 17.3508 28.3518 12.8157 28.3518ZM12.8157 12.6252C13.8704 12.6252 15.6399 12.7073 16.2376 12.7073C17.1165 12.7073 17.5032 12.3674 17.5735 11.4534L17.7727 9.25025C17.925 7.56275 16.7297 6.88306 12.8157 6.88306C8.90161 6.88306 7.71802 7.56275 7.85864 9.25025L8.05786 11.4534C8.13989 12.3674 8.51489 12.7073 9.40552 12.7073C9.99146 12.7073 11.7024 12.6252 12.8157 12.6252ZM12.8157 25.1291C16.7649 25.1291 17.9602 24.5432 17.7258 22.8205L17.5735 21.7541C17.386 20.3479 16.2141 19.8791 12.8157 19.8791C9.42896 19.8791 8.25708 20.3479 8.06958 21.7541L7.91724 22.8205C7.67114 24.5432 8.87818 25.1291 12.8157 25.1291Z" fill="black" fill-opacity="0.85"/>
</g>
<defs>
<clipPath id="clip0_2207_17078">
<rect width="21.2344" height="30.2695" fill="white" transform="translate(0.0187988 0.0393066)"/>
</clipPath>
</defs>
</svg>
