<svg width="24" height="24" viewBox="0 0 24 24" fill="none" xmlns="http://www.w3.org/2000/svg">
<g id="car.circle.fill" clip-path="url(#clip0_2124_13553)">
<g id="Group">
<path id="Vector" d="M11.9531 23.918C18.4922 23.918 23.9062 18.5039 23.9062 11.9648C23.9062 5.4375 18.4805 0.0117188 11.9414 0.0117188C5.41406 0.0117188 0 5.4375 0 11.9648C0 18.5039 5.42578 23.918 11.9531 23.918Z" fill="black" fill-opacity="0.85"/>
<path id="Vector_2" d="M5.33203 15.9844V12.7617C5.33203 11.8359 5.51953 11.2969 6.04688 10.6289L6.52734 10.0195C6.73828 9 7.08984 7.94531 7.28906 7.53516C7.59375 6.90234 8.16797 6.52734 8.90625 6.43359C9.29297 6.38672 10.5117 6.35156 11.9648 6.35156C13.4062 6.35156 14.6367 6.38672 15.0117 6.43359C15.7617 6.53906 16.3359 6.90234 16.6289 7.53516C16.8281 7.94531 17.1797 9 17.4023 10.0195L17.8711 10.6289C18.3984 11.2969 18.5859 11.8359 18.5859 12.7617V15.9844C18.5859 16.3945 18.2578 16.7227 17.8477 16.7227H17.1797C16.7578 16.7227 16.4297 16.3945 16.4297 15.9844V15.0586C15.1875 15.1289 13.4062 15.1758 11.9648 15.1758C10.5234 15.1758 8.73047 15.1289 7.48828 15.0586V15.9844C7.48828 16.3945 7.16016 16.7227 6.75 16.7227H6.08203C5.66016 16.7227 5.33203 16.3945 5.33203 15.9844ZM7.95703 9.49219C7.91016 9.66797 7.98047 9.75 8.19141 9.73828C9.05859 9.66797 10.0781 9.62109 11.9648 9.62109C13.8398 9.62109 14.8711 9.66797 15.7266 9.73828C15.9375 9.75 16.0195 9.66797 15.9609 9.49219C15.8438 8.90625 15.5977 8.15625 15.4336 7.875C15.2695 7.61719 15.1289 7.51172 14.8359 7.47656C14.4375 7.40625 13.5469 7.39453 11.9648 7.39453C10.3711 7.39453 9.48047 7.41797 9.09375 7.47656C8.80078 7.51172 8.64844 7.61719 8.49609 7.875C8.33203 8.16797 8.08594 8.90625 7.95703 9.49219ZM7.01953 12.7734C7.01953 13.2773 7.41797 13.6758 7.92188 13.6758C8.42578 13.6758 8.82422 13.2773 8.82422 12.7734C8.82422 12.2695 8.42578 11.8828 7.92188 11.8828C7.41797 11.8828 7.01953 12.2695 7.01953 12.7734ZM9.83203 12.8086C9.83203 13.1953 10.1016 13.4648 10.4883 13.4648H13.4414C13.8164 13.4648 14.0859 13.1953 14.0859 12.8086C14.0859 12.4336 13.8164 12.1641 13.4414 12.1641H10.4883C10.1016 12.1641 9.83203 12.4336 9.83203 12.8086ZM15.1055 12.7734C15.1055 13.2773 15.4922 13.6758 15.9961 13.6758C16.5117 13.6758 16.9102 13.2773 16.9102 12.7734C16.9102 12.2695 16.5117 11.8828 15.9961 11.8828C15.4922 11.8828 15.1055 12.2695 15.1055 12.7734Z" fill="white"/>
</g>
</g>
<defs>
<clipPath id="clip0_2124_13553">
<rect width="23.9062" height="23.918" fill="white"/>
</clipPath>
</defs>
</svg>
