<svg width="23" height="29" viewBox="0 0 23 29" fill="none" xmlns="http://www.w3.org/2000/svg">
<g clip-path="url(#clip0_2207_15263)">
<path d="M11.4793 25.8817C14.7488 25.8817 18.9675 25.7176 20.7488 25.5067C22.1199 25.3543 22.905 24.5926 22.905 23.2801V21.5223C22.905 19.9051 22.5652 18.9442 21.6746 17.8075L20.9011 16.8231C20.5496 15.1239 19.9285 13.3543 19.6004 12.6629C19.073 11.5379 18.03 10.87 16.7293 10.7059C16.0964 10.6122 14.0222 10.5653 11.4793 10.5653C8.93628 10.5653 6.87378 10.6239 6.24097 10.7059C4.94019 10.8583 3.89722 11.5379 3.36988 12.6629C3.03003 13.3543 2.42066 15.1239 2.05738 16.8231L1.29566 17.8075C0.39331 18.9442 0.0651855 19.9051 0.0651855 21.5223V23.2801C0.0651855 24.5926 0.850342 25.3543 2.22144 25.5067C4.00269 25.7176 8.22144 25.8817 11.4793 25.8817ZM11.4793 24.2879C8.18628 24.2879 4.08472 24.1473 2.58472 23.9598C1.86988 23.8661 1.65894 23.5731 1.65894 22.9051V21.5223C1.65894 20.2684 1.83472 19.7059 2.54957 18.7801L3.53394 17.4911C3.78003 16.1434 4.41285 14.2333 4.79957 13.3778C5.09253 12.7567 5.60816 12.4051 6.41675 12.3114C7.02613 12.2411 8.91285 12.1473 11.4793 12.1473C14.0574 12.1473 15.991 12.2411 16.5183 12.3114C17.3621 12.4168 17.8777 12.7684 18.1707 13.3778C18.5691 14.2333 19.1785 16.1434 19.4246 17.4911L20.4207 18.7801C21.1355 19.7059 21.3113 20.2684 21.3113 21.5223V22.9051C21.3113 23.5731 21.1004 23.8778 20.3855 23.9598C18.8855 24.1356 14.784 24.2879 11.4793 24.2879ZM4.65894 16.659C4.58863 16.9872 4.71753 17.1278 5.08081 17.0926C6.58081 16.9872 8.37378 16.9051 11.4793 16.9051C14.5847 16.9051 16.3894 16.9872 17.8894 17.0926C18.241 17.1278 18.3816 16.9872 18.3113 16.659C18.0769 15.6512 17.655 14.3739 17.3504 13.8348C17.1043 13.4129 16.8347 13.2372 16.3425 13.1668C15.6511 13.0731 14.116 13.0028 11.4793 13.0028C8.85425 13.0028 7.30738 13.0731 6.61597 13.1668C6.1355 13.2372 5.85425 13.4129 5.61988 13.8348C5.32691 14.3739 4.89331 15.6512 4.65894 16.659ZM4.58863 23.0692C5.45581 23.0692 6.10035 22.4012 6.10035 21.5458C6.10035 20.6786 5.45581 20.034 4.58863 20.034C3.73316 20.034 3.07691 20.6786 3.07691 21.5458C3.07691 22.4012 3.73316 23.0692 4.58863 23.0692ZM8.88941 22.6942H14.0691C14.7254 22.6942 15.1707 22.2489 15.1707 21.5926C15.1707 20.9598 14.7254 20.5145 14.0691 20.5145H8.88941C8.24487 20.5145 7.79957 20.9598 7.79957 21.5926C7.79957 22.2489 8.24487 22.6942 8.88941 22.6942ZM18.3699 23.0692C19.2371 23.0692 19.8933 22.4012 19.8933 21.5458C19.8933 20.6786 19.2371 20.034 18.3699 20.034C17.5144 20.034 16.8699 20.6786 16.8699 21.5458C16.8699 22.4012 17.5144 23.0692 18.3699 23.0692ZM1.97535 28.4012H3.11207C3.81519 28.4012 4.36597 27.8504 4.36597 27.159V24.8973L0.744874 24.37V27.159C0.744874 27.8504 1.28394 28.4012 1.97535 28.4012ZM19.8347 28.4012H20.9714C21.6746 28.4012 22.2019 27.8504 22.2019 27.159V24.37L18.5808 24.8973V27.159C18.5808 27.8504 19.1316 28.4012 19.8347 28.4012Z" fill="black" fill-opacity="0.85"/>
<path d="M11.4324 6.1473C8.91283 6.1473 6.61595 5.2684 4.86986 3.69808C4.38939 3.27621 3.85033 3.15902 3.41673 3.53402C2.98314 3.90902 2.98314 4.56527 3.47533 5.01058C5.5847 6.96762 8.3972 8.05746 11.4324 8.05746C14.4675 8.05746 17.28 6.96762 19.3894 5.01058C19.8933 4.56527 19.8933 3.90902 19.448 3.53402C19.0261 3.15902 18.4754 3.27621 17.9949 3.69808C16.2488 5.2684 13.9636 6.1473 11.4324 6.1473Z" fill="black" fill-opacity="0.85"/>
<path d="M11.4558 1.44807C10.2371 1.44807 9.13548 1.07307 8.23314 0.405102C7.71751 0.0418207 7.20189 -0.122241 6.78001 0.252759C6.3347 0.639477 6.32298 1.34261 6.86205 1.75276C8.12767 2.77229 9.73314 3.35823 11.4558 3.35823C13.1785 3.35823 14.784 2.77229 16.0496 1.75276C16.5769 1.34261 16.5652 0.639477 16.1316 0.252759C15.7097 -0.122241 15.1824 0.0301019 14.6785 0.405102C13.7996 1.10823 12.6746 1.44807 11.4558 1.44807Z" fill="black" fill-opacity="0.85"/>
</g>
<defs>
<clipPath id="clip0_2207_15263">
<rect width="22.8398" height="28.5929" fill="white" transform="translate(0.0651855 0.036377)"/>
</clipPath>
</defs>
</svg>
