<svg width="42" height="20" viewBox="0 0 42 20" fill="none" xmlns="http://www.w3.org/2000/svg">
<g clip-path="url(#clip0_2207_16565)">
<path d="M0.892334 1.72534H4.63062C5.06421 1.72534 5.40406 1.83081 5.68531 2.11206L9.84546 6.2605L11.4392 5.38159L7.0564 0.99878C6.37671 0.319092 5.48609 0.0378418 4.41968 0.0378418H0.892334C0.353271 0.0378418 0.0251465 0.365967 0.0251465 0.869873C0.0251465 1.37378 0.353271 1.72534 0.892334 1.72534ZM3.08374 16.6198H4.91187C4.84156 16.2683 4.78296 15.905 4.78296 15.5183C4.78296 12.9987 6.77515 11.0183 9.28296 11.0183C11.8024 11.0183 13.7829 12.9987 13.7829 15.5183C13.7829 15.905 13.736 16.2683 13.654 16.6198H28.5837C28.5134 16.2683 28.4548 15.905 28.4548 15.5183C28.4548 12.9987 30.447 11.0183 32.9548 11.0183C35.4743 11.0183 37.4548 12.9987 37.4548 15.5183C37.4548 15.905 37.4079 16.2683 37.3259 16.6198H38.8728C40.5603 16.6198 41.5915 15.5534 41.5915 13.819V9.10815C41.5915 7.46753 41.0993 6.073 38.9196 5.39331L36.5056 4.65503C34.9821 2.83862 32.322 0.24878 27.4821 0.24878H24.7282C19.9001 0.24878 17.9782 0.71753 15.0954 2.52222L10.3728 5.48706L5.16968 6.11987C1.93531 6.51831 0.0251465 8.38159 0.0251465 11.1706V13.4909C0.0251465 15.4831 1.13843 16.6198 3.08374 16.6198ZM9.28296 18.6472C11.0407 18.6472 12.4235 17.2644 12.4235 15.5183C12.4235 13.7722 11.029 12.3776 9.28296 12.3776C7.54859 12.3776 6.15406 13.7722 6.15406 15.5183C6.15406 17.2526 7.54859 18.6472 9.28296 18.6472ZM32.9548 18.6472C34.7009 18.6472 36.0954 17.2526 36.0954 15.5183C36.0954 13.7722 34.7009 12.3776 32.9548 12.3776C31.2321 12.3776 29.8259 13.7839 29.8259 15.5183C29.8259 17.2526 31.2204 18.6472 32.9548 18.6472Z" fill="black" fill-opacity="0.85"/>
</g>
<defs>
<clipPath id="clip0_2207_16565">
<rect width="41.5664" height="19.0195" fill="white" transform="translate(0.0251465 0.0378418)"/>
</clipPath>
</defs>
</svg>
