<svg width="23" height="31" viewBox="0 0 23 31" fill="none" xmlns="http://www.w3.org/2000/svg">
<g clip-path="url(#clip0_2207_17010)">
<path d="M13.6501 30.2956C19.5681 30.2956 22.0876 28.9948 22.0876 25.8073V5.46362C22.0876 2.04175 18.9821 0.0378418 13.6501 0.0378418C8.32983 0.0378418 5.21264 2.04175 5.21264 5.46362V25.8073C5.21264 28.9948 7.74389 30.2956 13.6501 30.2956ZM13.6618 12.5183C12.5134 12.5183 10.7556 12.6003 10.1345 12.6003C9.23217 12.6003 8.83374 12.2487 8.73999 11.3112L8.55249 9.03784C8.38842 7.29175 9.61889 6.58862 13.6618 6.58862C17.6931 6.58862 18.9236 7.29175 18.7595 9.03784L18.572 11.3112C18.4782 12.2487 18.0915 12.6003 17.1775 12.6003C16.5681 12.6003 14.74 12.5183 13.6618 12.5183ZM13.6618 25.4206C9.58374 25.4206 8.34155 24.8112 8.59936 23.03L8.75171 21.9284C8.95092 20.487 10.1579 19.9948 13.6618 19.9948C17.154 19.9948 18.361 20.487 18.5603 21.9284L18.7126 23.03C18.9704 24.8112 17.7282 25.4206 13.6618 25.4206ZM6.09155 8.20581L0.361084 13.9011C-0.013916 14.2878 -0.013916 14.9089 0.361084 15.2956C0.747803 15.6706 1.36889 15.6823 1.75561 15.2956L6.09155 10.9597V8.20581ZM6.09155 17.0651L0.361084 22.7605C-0.013916 23.1355 -0.013916 23.7683 0.361084 24.155C0.747803 24.53 1.36889 24.5417 1.75561 24.155L6.09155 19.819V17.0651Z" fill="black" fill-opacity="0.85"/>
</g>
<defs>
<clipPath id="clip0_2207_17010">
<rect width="22.0078" height="30.2695" fill="white" transform="translate(0.079834 0.0378418)"/>
</clipPath>
</defs>
</svg>
