<svg width="34" height="18" viewBox="0 0 34 18" fill="none" xmlns="http://www.w3.org/2000/svg">
<g clip-path="url(#clip0_2207_17509)">
<path d="M1.04727 17.6028H2.5707C3.27383 17.6028 3.62539 17.263 3.82461 16.7591L10.2934 0.786377C10.4574 0.399658 10.2699 0.0598145 9.85976 0.0598145H9.09805C8.68789 0.0598145 8.43008 0.259033 8.2543 0.610596L0.226954 16.302C-0.101171 16.8997 0.133204 17.6028 1.04727 17.6028ZM31.3754 17.6028H32.9106C33.8129 17.6028 34.0473 16.8997 33.7192 16.302L25.7035 0.610596C25.516 0.259033 25.2582 0.0598145 24.8481 0.0598145H24.0863C23.6762 0.0598145 23.5004 0.399658 23.6528 0.786377L30.1215 16.7591C30.3207 17.263 30.6723 17.6028 31.3754 17.6028Z" fill="black" fill-opacity="0.85"/>
<path d="M9.53174 13.7239C9.53174 14.1809 9.89502 14.5442 10.3521 14.5442H11.0904C11.5591 14.5442 11.9107 14.1809 11.9107 13.7239V12.8216H21.8716V13.7239C21.8716 14.1809 22.2349 14.5442 22.7036 14.5442H23.4302C23.8989 14.5442 24.2622 14.1809 24.2622 13.7239V9.56372C24.2622 8.52076 24.1099 7.88794 23.4654 7.18482L22.8443 6.50513L22.188 4.63013C21.8364 3.6106 21.145 3.18872 20.2779 3.08326C19.8677 3.03638 18.5083 3.00122 16.8911 3.00122C15.2857 3.00122 13.9263 3.03638 13.5044 3.08326C12.6372 3.18872 11.9575 3.6106 11.5943 4.63013L10.9497 6.50513L10.3169 7.18482C9.67236 7.88794 9.53174 8.52076 9.53174 9.56372V13.7239ZM12.6489 6.54029C12.356 6.54029 12.2505 6.31763 12.3443 6.0481L12.731 4.88794C12.8716 4.45435 13.106 4.31372 13.481 4.26685C13.9146 4.20826 15.1216 4.16138 16.8911 4.16138C18.6724 4.16138 19.8677 4.20826 20.3013 4.26685C20.6763 4.31372 20.9107 4.45435 21.0513 4.88794L21.4497 6.0481C21.5435 6.31763 21.4263 6.54029 21.1333 6.54029H12.6489ZM11.7818 10.4309C11.395 10.4309 11.1138 10.1497 11.1138 9.76294V8.79029C11.1138 8.41529 11.395 8.13404 11.7818 8.13404C12.1685 8.13404 12.4497 8.40357 12.4497 8.79029V9.76294C12.4497 10.1497 12.1685 10.4309 11.7818 10.4309ZM15.4732 10.1262C15.1685 10.1262 14.9693 9.927 14.9693 9.59888V8.96607C14.9693 8.63794 15.1685 8.43872 15.4732 8.43872H18.2857C18.6021 8.43872 18.8013 8.63794 18.8013 8.96607V9.59888C18.8013 9.927 18.6021 10.1262 18.2857 10.1262H15.4732ZM22.0591 10.4309C21.6958 10.4309 21.4029 10.138 21.4029 9.76294V8.79029C21.4029 8.41529 21.6958 8.13404 22.0591 8.13404C22.4458 8.13404 22.7271 8.40357 22.7271 8.79029V9.76294C22.7271 10.1497 22.4458 10.4309 22.0591 10.4309Z" fill="black" fill-opacity="0.85"/>
</g>
<defs>
<clipPath id="clip0_2207_17509">
<rect width="33.774" height="17.5664" fill="white" transform="translate(0.0861816 0.036377)"/>
</clipPath>
</defs>
</svg>
