<svg width="22" height="31" viewBox="0 0 22 31" fill="none" xmlns="http://www.w3.org/2000/svg">
<g clip-path="url(#clip0_2207_17082)">
<path d="M1.00537 24.7073C1.61475 24.7073 1.98975 24.3323 1.98975 23.7112V13.5745C1.98975 12.9534 1.61475 12.5784 1.00537 12.5784C0.407715 12.5784 0.0209961 12.9534 0.0209961 13.5627V23.7229C0.0209961 24.3323 0.407715 24.7073 1.00537 24.7073ZM1.00537 16.5159H5.14209V14.9807H1.00537V16.5159ZM12.8179 30.2971C18.7358 30.2971 21.2554 28.9963 21.2554 25.8088V5.46509C21.2554 2.04322 18.1499 0.0393066 12.8179 0.0393066C7.48584 0.0393066 4.38038 2.04322 4.38038 5.46509V25.8088C4.38038 28.9963 6.89991 30.2971 12.8179 30.2971ZM12.8179 12.5198C11.6694 12.5198 9.91162 12.6018 9.30225 12.6018C8.38819 12.6018 8.00147 12.2502 7.90772 11.3127L7.7085 9.03931C7.55616 7.29322 8.78662 6.59009 12.8179 6.59009C16.8491 6.59009 18.0913 7.29322 17.9272 9.03931L17.728 11.3127C17.646 12.2502 17.2476 12.6018 16.3452 12.6018C15.7241 12.6018 13.9077 12.5198 12.8179 12.5198ZM12.8179 25.4221C8.75147 25.4221 7.50928 24.8127 7.76709 23.0315L7.91944 21.9299C8.11866 20.4885 9.32569 19.9963 12.8179 19.9963C16.3218 19.9963 17.5288 20.4885 17.728 21.9299L17.8804 23.0315C18.1265 24.8127 16.896 25.4221 12.8179 25.4221Z" fill="black" fill-opacity="0.85"/>
</g>
<defs>
<clipPath id="clip0_2207_17082">
<rect width="21.2344" height="30.2695" fill="white" transform="translate(0.0209961 0.0393066)"/>
</clipPath>
</defs>
</svg>
