<svg width="42" height="19" viewBox="0 0 42 19" fill="none" xmlns="http://www.w3.org/2000/svg">
<g clip-path="url(#clip0_2207_16593)">
<path d="M15.717 9.06128C14.0764 9.06128 12.9514 8.48706 11.9436 7.16284L8.79126 3.00268C8.13501 2.14722 7.64282 1.92456 6.34204 1.92456H3.45923C2.94361 1.92456 2.52173 1.49096 2.52173 0.975342C2.52173 0.459717 2.94361 0.0378418 3.45923 0.0378418H6.34204C8.12329 0.0378418 9.28345 0.553467 10.2678 1.85425L13.4436 5.99096C14.1702 6.92846 14.6155 7.17456 15.717 7.17456H18.2834V6.17846C18.2834 5.34643 19.01 5.10034 19.6311 5.5105L22.5608 7.39722C23.1467 7.77222 23.135 8.47534 22.5725 8.83862L19.6194 10.737C19.01 11.1355 18.2834 10.8894 18.2834 10.069V9.06128H15.717ZM3.06079 16.573H4.88892C4.81861 16.2214 4.76001 15.8581 4.76001 15.4714C4.76001 12.9519 6.7522 10.9714 9.26001 10.9714C11.7795 10.9714 13.76 12.9519 13.76 15.4714C13.76 15.8581 13.7131 16.2214 13.6311 16.573H28.5608C28.4905 16.2214 28.4319 15.8581 28.4319 15.4714C28.4319 12.9519 30.4241 10.9714 32.9319 10.9714C35.4514 10.9714 37.4319 12.9519 37.4319 15.4714C37.4319 15.8581 37.385 16.2214 37.303 16.573H38.8499C40.5374 16.573 41.5686 15.5066 41.5686 13.7722V9.06128C41.5686 7.42065 41.0764 6.02612 38.8967 5.34643L36.4827 4.60815C34.9592 2.79175 32.2991 0.201904 27.4592 0.201904H24.7053C19.8772 0.201904 17.9553 0.670654 15.0725 2.47534L10.3499 5.44018L5.14673 6.073C1.91236 6.47143 0.00219727 8.33472 0.00219727 11.1237V13.444C0.00219727 15.4362 1.11548 16.573 3.06079 16.573ZM9.26001 18.6003C11.0178 18.6003 12.4006 17.2175 12.4006 15.4714C12.4006 13.7253 11.0061 12.3308 9.26001 12.3308C7.52564 12.3308 6.13111 13.7253 6.13111 15.4714C6.13111 17.2058 7.52564 18.6003 9.26001 18.6003ZM32.9319 18.6003C34.678 18.6003 36.0725 17.2058 36.0725 15.4714C36.0725 13.7253 34.678 12.3308 32.9319 12.3308C31.2092 12.3308 29.803 13.737 29.803 15.4714C29.803 17.2058 31.1975 18.6003 32.9319 18.6003Z" fill="black" fill-opacity="0.85"/>
</g>
<defs>
<clipPath id="clip0_2207_16593">
<rect width="41.5664" height="18.9258" fill="white" transform="translate(0.00219727 0.0378418)"/>
</clipPath>
</defs>
</svg>
