<svg width="23" height="29" viewBox="0 0 23 29" fill="none" xmlns="http://www.w3.org/2000/svg">
<g clip-path="url(#clip0_2207_15257)">
<path d="M11.4503 1.98169C13.9816 1.98169 16.2667 2.8606 18.0128 4.43091C18.505 4.8645 19.0441 4.96997 19.4659 4.60669C19.9112 4.21997 19.9112 3.57544 19.4073 3.11841C17.298 1.1731 14.4855 0.0715332 11.4503 0.0715332C8.41514 0.0715332 5.61436 1.1731 3.49327 3.11841C3.00108 3.57544 3.00108 4.21997 3.43467 4.60669C3.86827 4.96997 4.40733 4.8645 4.8878 4.43091C6.64561 2.8606 8.93077 1.98169 11.4503 1.98169Z" fill="black" fill-opacity="0.85"/>
<path d="M11.4736 6.6809C12.6924 6.6809 13.8291 7.03246 14.6963 7.73559C15.2002 8.09887 15.7275 8.26293 16.1494 7.88793C16.5947 7.50121 16.6065 6.79809 16.0674 6.37621C14.8018 5.35668 13.1963 4.77075 11.4736 4.77075C9.75096 4.77075 8.14549 5.35668 6.87986 6.37621C6.3408 6.79809 6.35252 7.50121 6.79783 7.88793C7.21971 8.26293 7.73533 8.09887 8.25096 7.73559C9.1533 7.0559 10.2549 6.6809 11.4736 6.6809Z" fill="black" fill-opacity="0.85"/>
<path d="M11.4971 25.4778C13.8877 25.4778 16.9111 25.3958 19.0557 25.2669V26.9192C19.0557 27.6223 19.6065 28.1731 20.3213 28.1731H21.6455C22.3604 28.1731 22.9229 27.6223 22.9229 26.9192V21.3294C22.9229 19.7122 22.5947 18.7981 21.7041 17.6497L20.8955 16.6184C20.544 14.8841 19.9111 13.0794 19.583 12.3762C19.0557 11.2864 18.0713 10.6302 16.794 10.4778C16.1611 10.3958 13.9815 10.3372 11.4971 10.3372C9.0127 10.3372 6.83301 10.3958 6.2002 10.4778C4.92285 10.6302 3.92676 11.2864 3.41113 12.3762C3.08301 13.0794 2.4502 14.8841 2.09863 16.6184L1.29004 17.6497C0.399414 18.7981 0.0712891 19.7122 0.0712891 21.3294V26.9192C0.0712891 27.6223 0.633789 28.1731 1.34863 28.1731H2.67285C3.3877 28.1731 3.93848 27.6223 3.93848 26.9192V25.2669C6.08301 25.3958 9.10645 25.4778 11.4971 25.4778ZM4.11426 15.8216C4.33691 14.7669 4.80567 13.3958 5.12207 12.845C5.37988 12.388 5.66113 12.2005 6.17676 12.1184C6.90332 12.0247 8.53223 11.9661 11.4971 11.9661C14.4619 11.9661 16.0908 12.0012 16.8174 12.1184C17.333 12.2005 17.6025 12.388 17.8721 12.845C18.2002 13.3841 18.6221 14.7669 18.8799 15.8216C18.9736 16.1731 18.8213 16.3137 18.458 16.2786C16.8643 16.1731 14.9658 16.0794 11.4971 16.0794C8.02832 16.0794 6.12988 16.1731 4.53613 16.2786C4.17285 16.3137 4.03223 16.1731 4.11426 15.8216ZM4.58301 22.8997C3.71582 22.8997 3.03613 22.22 3.03613 21.3528C3.03613 20.4739 3.71582 19.8176 4.58301 19.8176C5.46191 19.8176 6.11817 20.4739 6.11817 21.3528C6.11817 22.22 5.46191 22.8997 4.58301 22.8997ZM8.96582 22.513C8.30957 22.513 7.85254 22.0559 7.85254 21.3997C7.85254 20.7434 8.30957 20.2981 8.96582 20.2981H14.0283C14.6846 20.2981 15.1416 20.7434 15.1416 21.3997C15.1416 22.0559 14.6846 22.513 14.0283 22.513H8.96582ZM18.4111 22.8997C17.5322 22.8997 16.876 22.22 16.876 21.3528C16.876 20.4739 17.5322 19.8176 18.4111 19.8176C19.2783 19.8176 19.9463 20.4739 19.9463 21.3528C19.9463 22.22 19.2783 22.8997 18.4111 22.8997Z" fill="black" fill-opacity="0.85"/>
</g>
<defs>
<clipPath id="clip0_2207_15257">
<rect width="22.8516" height="28.1367" fill="white" transform="translate(0.0712891 0.036377)"/>
</clipPath>
</defs>
</svg>
