<svg width="23" height="31" viewBox="0 0 23 31" fill="none" xmlns="http://www.w3.org/2000/svg">
<g clip-path="url(#clip0_2207_17018)">
<path d="M8.4375 30.2971C14.3555 30.2971 16.875 28.9963 16.875 25.8088V5.46509C16.875 2.04322 13.7695 0.0393066 8.4375 0.0393066C3.11719 0.0393066 0 2.04322 0 5.46509V25.8088C0 28.9963 2.53125 30.2971 8.4375 30.2971ZM8.44922 12.5198C7.30078 12.5198 5.54297 12.6018 4.92188 12.6018C4.01953 12.6018 3.62109 12.2502 3.52734 11.3127L3.33984 9.03931C3.17578 7.29322 4.40625 6.59009 8.44922 6.59009C12.4805 6.59009 13.7109 7.29322 13.5469 9.03931L13.3594 11.3127C13.2656 12.2502 12.8789 12.6018 11.9648 12.6018C11.3555 12.6018 9.52734 12.5198 8.44922 12.5198ZM8.44922 25.4221C4.37109 25.4221 3.12891 24.8127 3.38672 23.0315L3.53906 21.9299C3.73828 20.4885 4.94531 19.9963 8.44922 19.9963C11.9414 19.9963 13.1484 20.4885 13.3477 21.9299L13.5 23.0315C13.7578 24.8127 12.5156 25.4221 8.44922 25.4221ZM15.9961 8.20728V10.9612L20.3438 15.2971C20.7305 15.6838 21.3398 15.6721 21.7266 15.2971C22.1016 14.9104 22.1016 14.2893 21.7266 13.9026L15.9961 8.20728ZM15.9961 17.0666V19.8205L20.3438 24.1565C20.7305 24.5432 21.3398 24.5315 21.7266 24.1565C22.1016 23.7698 22.1016 23.137 21.7266 22.762L15.9961 17.0666Z" fill="black" fill-opacity="0.85"/>
</g>
<defs>
<clipPath id="clip0_2207_17018">
<rect width="22.0078" height="30.2695" fill="white" transform="translate(0 0.0393066)"/>
</clipPath>
</defs>
</svg>
