<svg width="23" height="31" viewBox="0 0 23 31" fill="none" xmlns="http://www.w3.org/2000/svg">
<g clip-path="url(#clip0_2207_16974)">
<path d="M13.5808 30.2971C19.4988 30.2971 22.0183 28.9963 22.0183 25.8088V5.46509C22.0183 2.04322 18.9128 0.0393066 13.5808 0.0393066C8.2605 0.0393066 5.14331 2.04322 5.14331 5.46509V25.8088C5.14331 28.9963 7.67456 30.2971 13.5808 30.2971ZM13.5808 28.3518C9.05738 28.3518 7.10034 27.5901 7.10034 25.7151V5.46509C7.10034 3.27369 9.49097 1.99634 13.5808 1.99634C17.6824 1.99634 20.0613 3.27369 20.0613 5.46509V25.7151C20.0613 27.5901 18.116 28.3518 13.5808 28.3518ZM13.5925 12.6252C14.6355 12.6252 16.4167 12.7073 17.0027 12.7073C17.8933 12.7073 18.2683 12.3674 18.3503 11.4534L18.5378 9.25025C18.6902 7.56275 17.5066 6.88306 13.5925 6.88306C9.66675 6.88306 8.48316 7.56275 8.6355 9.25025L8.823 11.4534C8.90503 12.3674 9.29175 12.7073 10.1707 12.7073C10.7683 12.7073 12.4793 12.6252 13.5925 12.6252ZM13.5925 25.1291C17.53 25.1291 18.7371 24.5432 18.491 22.8205L18.3386 21.7541C18.1511 20.3479 16.9793 19.8791 13.5925 19.8791C10.1941 19.8791 9.02222 20.3479 8.83472 21.7541L8.68238 22.8205C8.43628 24.5432 9.64331 25.1291 13.5925 25.1291ZM6.02222 17.0666L0.291748 22.762C-0.083252 23.137 -0.083252 23.7698 0.291748 24.1565C0.678467 24.5315 1.29956 24.5432 1.68628 24.1565L6.02222 19.8205V17.0666Z" fill="black" fill-opacity="0.85"/>
</g>
<defs>
<clipPath id="clip0_2207_16974">
<rect width="22.0078" height="30.2695" fill="white" transform="translate(0.010498 0.0393066)"/>
</clipPath>
</defs>
</svg>
