<svg width="23" height="31" viewBox="0 0 23 31" fill="none" xmlns="http://www.w3.org/2000/svg">
<g clip-path="url(#clip0_2207_17152)">
<path d="M3.00023 27.4729C4.7932 29.2776 7.07835 30.4143 9.56273 30.4143C10.1603 30.4143 10.5705 30.0276 10.5705 29.4768C10.5705 28.9729 10.1721 28.6448 9.50414 28.5979C7.58226 28.4807 5.70726 27.6838 4.24242 26.2307C2.78929 24.7659 1.99242 22.9026 1.87523 20.969C1.81664 20.219 1.51195 19.926 0.92601 19.926C0.468978 19.926 0.0236657 20.2541 0.0705407 20.8987C0.222885 23.3831 1.18382 25.6799 3.00023 27.4729Z" fill="black" fill-opacity="0.85"/>
<path d="M5.90649 24.5549C7.11352 25.762 8.75415 26.3596 9.76196 26.3596C10.3127 26.3596 10.6877 26.0081 10.6877 25.5041C10.6877 25.0354 10.3596 24.6604 9.63305 24.5549C8.73071 24.4612 7.88696 24.0393 7.14868 23.3127C6.44555 22.5979 6.0354 21.7307 5.90649 20.7346C5.80102 20.0784 5.54321 19.8088 4.96899 19.8088C4.45336 19.8088 4.04321 20.2073 4.12524 20.8401C4.27758 22.2698 4.88696 23.5354 5.90649 24.5549Z" fill="black" fill-opacity="0.85"/>
<path d="M14.93 23.1135C19.43 23.1135 21.4339 22.094 21.4339 19.5041V4.29322C21.4339 1.62134 18.9729 0.0393066 14.93 0.0393066C10.8636 0.0393066 8.40258 1.62134 8.40258 4.29322V19.5041C8.40258 22.094 10.4183 23.1135 14.93 23.1135ZM14.9183 9.68384C14.0979 9.68384 12.7269 9.75415 12.2698 9.75415C11.5433 9.75415 11.2151 9.44947 11.1448 8.68775L11.0042 7.00025C10.887 5.60572 11.8011 5.07837 14.9183 5.07837C18.0354 5.07837 18.9495 5.60572 18.8323 7.00025L18.68 8.68775C18.6214 9.44947 18.2815 9.75415 17.5667 9.75415C17.0979 9.75415 15.7854 9.68384 14.9183 9.68384ZM14.9183 19.3752C11.8011 19.3752 10.805 18.9182 11.0394 17.4768L11.1565 16.6565C11.344 15.5081 12.2347 15.1448 14.9183 15.1448C17.6019 15.1448 18.4925 15.5081 18.6683 16.6565L18.7972 17.4768C19.0198 18.9182 18.0354 19.3752 14.9183 19.3752ZM20.4378 9.27369H21.9378C22.5237 9.27369 22.969 8.82837 22.969 8.27759V7.83228C22.969 7.26978 22.5237 6.83619 21.9378 6.83619H20.4378V9.27369ZM9.39868 9.27369V6.83619H7.89868C7.31274 6.83619 6.86743 7.26978 6.86743 7.83228V8.27759C6.86743 8.82837 7.31274 9.27369 7.89868 9.27369H9.39868Z" fill="black" fill-opacity="0.85"/>
</g>
<defs>
<clipPath id="clip0_2207_17152">
<rect width="22.9018" height="30.3867" fill="white" transform="translate(0.0671387 0.0393066)"/>
</clipPath>
</defs>
</svg>
