<svg width="24" height="24" viewBox="0 0 24 24" fill="none" xmlns="http://www.w3.org/2000/svg">
<g clip-path="url(#clip0_2207_15246)">
<path d="M12.0097 23.9544C18.5488 23.9544 23.9628 18.5403 23.9628 12.0012C23.9628 5.47388 18.5371 0.0480957 11.998 0.0480957C5.4707 0.0480957 0.0566406 5.47388 0.0566406 12.0012C0.0566406 18.5403 5.48242 23.9544 12.0097 23.9544Z" fill="black" fill-opacity="0.85"/>
<path d="M5.38867 16.0208V12.7981C5.38867 11.8723 5.57617 11.3333 6.10352 10.6653L6.58398 10.0559C6.79492 9.03638 7.14648 7.98169 7.3457 7.57154C7.65039 6.93872 8.22461 6.56372 8.96289 6.46997C9.34961 6.4231 10.5683 6.38794 12.0214 6.38794C13.4628 6.38794 14.6933 6.4231 15.0683 6.46997C15.8183 6.57544 16.3925 6.93872 16.6855 7.57154C16.8847 7.98169 17.2363 9.03638 17.4589 10.0559L17.9277 10.6653C18.455 11.3333 18.6425 11.8723 18.6425 12.7981V16.0208C18.6425 16.4309 18.3144 16.7591 17.9043 16.7591H17.2363C16.8144 16.7591 16.4863 16.4309 16.4863 16.0208V15.095C15.2441 15.1653 13.4628 15.2122 12.0214 15.2122C10.58 15.2122 8.78711 15.1653 7.54492 15.095V16.0208C7.54492 16.4309 7.2168 16.7591 6.80664 16.7591H6.13867C5.7168 16.7591 5.38867 16.4309 5.38867 16.0208ZM8.01367 9.52857C7.9668 9.70435 8.03711 9.78638 8.24805 9.77466C9.11523 9.70435 10.1347 9.65747 12.0214 9.65747C13.8964 9.65747 14.9277 9.70435 15.7832 9.77466C15.9941 9.78638 16.0761 9.70435 16.0175 9.52857C15.9004 8.94263 15.6543 8.19263 15.4902 7.91138C15.3261 7.65357 15.1855 7.5481 14.8925 7.51294C14.4941 7.44263 13.6035 7.43091 12.0214 7.43091C10.4277 7.43091 9.53711 7.45435 9.15039 7.51294C8.85742 7.5481 8.70508 7.65357 8.55273 7.91138C8.38867 8.20435 8.14258 8.94263 8.01367 9.52857ZM7.07617 12.8098C7.07617 13.3137 7.47461 13.7122 7.97852 13.7122C8.48242 13.7122 8.88086 13.3137 8.88086 12.8098C8.88086 12.3059 8.48242 11.9192 7.97852 11.9192C7.47461 11.9192 7.07617 12.3059 7.07617 12.8098ZM9.88867 12.845C9.88867 13.2317 10.1582 13.5012 10.5449 13.5012H13.498C13.873 13.5012 14.1425 13.2317 14.1425 12.845C14.1425 12.47 13.873 12.2005 13.498 12.2005H10.5449C10.1582 12.2005 9.88867 12.47 9.88867 12.845ZM15.1621 12.8098C15.1621 13.3137 15.5488 13.7122 16.0527 13.7122C16.5683 13.7122 16.9668 13.3137 16.9668 12.8098C16.9668 12.3059 16.5683 11.9192 16.0527 11.9192C15.5488 11.9192 15.1621 12.3059 15.1621 12.8098Z" fill="white"/>
</g>
<defs>
<clipPath id="clip0_2207_15246">
<rect width="23.9062" height="23.918" fill="white" transform="translate(0.0566406 0.036377)"/>
</clipPath>
</defs>
</svg>
