<svg width="24" height="24" viewBox="0 0 24 24" fill="none" xmlns="http://www.w3.org/2000/svg">
<g clip-path="url(#clip0_2207_15241)">
<path d="M12.0078 23.9426C18.5469 23.9426 23.9609 18.5169 23.9609 11.9895C23.9609 5.45044 18.5352 0.036377 11.9961 0.036377C5.46875 0.036377 0.0546875 5.45044 0.0546875 11.9895C0.0546875 18.5169 5.48047 23.9426 12.0078 23.9426ZM12.0078 21.9505C6.47657 21.9505 2.0586 17.5208 2.0586 11.9895C2.0586 6.45826 6.46485 2.02857 11.9961 2.02857C17.5274 2.02857 21.9688 6.45826 21.9688 11.9895C21.9688 17.5208 17.5391 21.9505 12.0078 21.9505Z" fill="black" fill-opacity="0.85"/>
<path d="M5.57422 15.8684C5.57422 16.2786 5.89063 16.5833 6.30078 16.5833H6.94531C7.34375 16.5833 7.66016 16.2786 7.66016 15.8684V14.9661C8.86719 15.0364 10.6133 15.095 12.0078 15.095C13.4024 15.095 15.1367 15.0364 16.3438 14.9661V15.8684C16.3438 16.2786 16.6602 16.5833 17.0703 16.5833H17.7149C18.1133 16.5833 18.4297 16.2786 18.4297 15.8684V12.7395C18.4297 11.8372 18.2422 11.3216 17.7383 10.6653L17.2813 10.0794C17.0703 9.09496 16.7188 8.06371 16.543 7.66528C16.25 7.0559 15.6875 6.70434 14.9609 6.59887C14.5977 6.55199 13.4024 6.52856 12.0078 6.52856C10.6016 6.52856 9.41797 6.55199 9.04297 6.59887C8.32813 6.69262 7.76563 7.0559 7.47266 7.66528C7.28516 8.06371 6.9336 9.09496 6.73438 10.0794L6.26563 10.6653C5.76172 11.3216 5.57422 11.8372 5.57422 12.7395V15.8684ZM8.11719 9.56371C8.2461 9.00121 8.48047 8.28637 8.64453 7.9934C8.78516 7.74731 8.9375 7.64184 9.21875 7.60668C9.59375 7.54809 10.4609 7.52465 12.0078 7.52465C13.543 7.52465 14.4102 7.53637 14.7969 7.60668C15.0781 7.64184 15.2188 7.74731 15.3711 7.9934C15.5352 8.27465 15.7695 9.00121 15.8867 9.56371C15.9453 9.73949 15.8633 9.82153 15.6641 9.80981C14.832 9.7395 13.8242 9.70434 12.0078 9.70434C10.1797 9.70434 9.1836 9.7395 8.33985 9.80981C8.14063 9.82153 8.07031 9.73949 8.11719 9.56371ZM7.21485 12.763C7.21485 12.2591 7.60157 11.8841 8.08203 11.8841C8.57422 11.8841 8.96094 12.2591 8.96094 12.763C8.96094 13.2552 8.57422 13.6184 8.08203 13.6184C7.60157 13.6184 7.21485 13.2552 7.21485 12.763ZM9.94531 12.7981C9.94531 12.4231 10.2031 12.1653 10.5781 12.1653H13.4375C13.8008 12.1653 14.0586 12.4231 14.0586 12.7981C14.0586 13.1614 13.8008 13.4192 13.4375 13.4192H10.5781C10.2031 13.4192 9.94531 13.1614 9.94531 12.7981ZM15.0547 12.763C15.0547 12.2591 15.4297 11.8841 15.9219 11.8841C16.4141 11.8841 16.8008 12.2591 16.8008 12.763C16.8008 13.2552 16.4141 13.6184 15.9219 13.6184C15.4297 13.6184 15.0547 13.2552 15.0547 12.763Z" fill="black" fill-opacity="0.85"/>
</g>
<defs>
<clipPath id="clip0_2207_15241">
<rect width="23.9062" height="23.918" fill="white" transform="translate(0.0546875 0.036377)"/>
</clipPath>
</defs>
</svg>
