<svg width="26" height="24" viewBox="0 0 26 24" fill="none" xmlns="http://www.w3.org/2000/svg">
<g clip-path="url(#clip0_2207_17240)">
<path d="M0.741821 6.39087H1.37463C1.76135 6.39087 2.05433 6.0979 2.05433 5.69947V0.730713C2.05433 0.332276 1.76135 0.0393066 1.37463 0.0393066H0.741821C0.343384 0.0393066 0.050415 0.332276 0.050415 0.730713V5.69947C0.050415 6.0979 0.343384 6.39087 0.741821 6.39087ZM0.741821 15.0745H1.37463C1.76135 15.0745 2.05433 14.7815 2.05433 14.3831V9.42603C2.05433 9.03931 1.76135 8.74634 1.37463 8.74634H0.741821C0.343384 8.74634 0.050415 9.03931 0.050415 9.42603V14.3831C0.050415 14.7815 0.343384 15.0745 0.741821 15.0745ZM0.741821 23.7815H1.37463C1.76135 23.7815 2.05433 23.4885 2.05433 23.0901V18.1213C2.05433 17.7229 1.76135 17.4299 1.37463 17.4299H0.741821C0.343384 17.4299 0.050415 17.7229 0.050415 18.1213V23.0901C0.050415 23.4885 0.343384 23.7815 0.741821 23.7815ZM22.609 6.37915H23.2301C23.6285 6.37915 23.9215 6.08619 23.9215 5.69947V0.730713C23.9215 0.332276 23.6285 0.0393066 23.2301 0.0393066H22.609C22.2106 0.0393066 21.9176 0.332276 21.9176 0.730713V5.69947C21.9176 6.08619 22.2106 6.37915 22.609 6.37915ZM22.609 23.7698H23.2301C23.6285 23.7698 23.9215 23.4768 23.9215 23.0901V18.1213C23.9215 17.7229 23.6285 17.4299 23.2301 17.4299H22.609C22.2106 17.4299 21.9176 17.7229 21.9176 18.1213V23.0901C21.9176 23.4768 22.2106 23.7698 22.609 23.7698Z" fill="black" fill-opacity="0.85"/>
<path d="M11.066 21.3088C14.6637 23.3713 16.7496 23.5002 17.9449 21.4377L24.941 9.29714C26.1832 7.16433 24.941 4.77371 21.6949 2.91042C18.4723 1.05886 15.7887 1.16433 14.5582 3.29714L7.55039 15.4377C6.35508 17.5002 7.4918 19.2463 11.066 21.3088ZM21.8707 12.801L23.0543 13.4924C23.5113 13.762 24.0856 13.6096 24.3316 13.176L24.5309 12.8127C24.777 12.3674 24.6363 11.8166 24.1676 11.5471L22.984 10.8674L21.8707 12.801Z" fill="white"/>
<path d="M11.066 21.3088C14.6637 23.3713 16.7496 23.5002 17.9449 21.4377L24.941 9.29714C26.1832 7.16433 24.941 4.77371 21.6949 2.91042C18.4723 1.05886 15.7887 1.16433 14.5582 3.29714L7.55039 15.4377C6.35508 17.5002 7.4918 19.2463 11.066 21.3088ZM17.2652 10.5862C16.5738 10.1877 15.484 9.66042 15.1207 9.42605C14.5231 9.09792 14.4293 8.69949 14.7106 8.07839L15.3551 6.66042C15.9059 5.47683 16.8902 5.48855 19.3746 6.92995C21.8824 8.37136 22.3629 9.21511 21.6363 10.2698L20.734 11.5471C20.3121 12.1448 19.9137 12.2151 19.3512 11.887C18.9879 11.676 17.9215 10.9729 17.2652 10.5862ZM12.7887 18.344C10.316 16.9143 9.73008 16.094 10.5621 15.0393L11.0426 14.4416C11.7106 13.6096 12.6012 13.7385 14.734 14.9807C16.8902 16.2112 17.441 16.9026 17.0426 17.9104L16.7731 18.6252C16.3043 19.8674 15.2731 19.7854 12.7887 18.344ZM13.0582 7.71511L14.1715 5.79324L12.9879 5.10183C12.5309 4.8323 11.9801 4.97292 11.7223 5.41824L11.5113 5.7698C11.2535 6.20339 11.4176 6.77761 11.8629 7.03542L13.0582 7.71511ZM21.8707 12.801L23.0543 13.4924C23.5113 13.762 24.0856 13.6096 24.3316 13.176L24.5309 12.8127C24.777 12.3674 24.6363 11.8166 24.1676 11.5471L22.984 10.8674L21.8707 12.801Z" fill="black" fill-opacity="0.85"/>
</g>
<defs>
<clipPath id="clip0_2207_17240">
<rect width="25.3642" height="23.8008" fill="white" transform="translate(0.050415 0.0393066)"/>
</clipPath>
</defs>
</svg>
