<svg width="29" height="23" viewBox="0 0 29 23" fill="none" xmlns="http://www.w3.org/2000/svg">
<g id="carbon.dioxide.cloud.fill" clip-path="url(#clip0_2124_12991)">
<g id="Group">
<path id="Vector" d="M5.90625 22.1367H21.1641C25.1133 22.1367 28.1719 19.1484 28.1719 15.3281C28.1719 11.4727 25.0547 8.56641 20.7891 8.56641C19.2305 5.47266 16.3711 3.58594 12.9023 3.58594C8.35547 3.58594 4.5 7.11328 4.08984 11.7891C1.74609 12.457 0.164062 14.4258 0.164062 16.9102C0.164062 19.8047 2.26172 22.1367 5.90625 22.1367ZM1.64062 10.6641C2.54297 10.6641 3.26953 9.9375 3.26953 9.02344C3.26953 8.12109 2.54297 7.39453 1.64062 7.39453C0.726562 7.39453 0 8.12109 0 9.02344C0 9.9375 0.726562 10.6641 1.64062 10.6641ZM18.8203 3.08203C19.6641 3.08203 20.3555 2.39062 20.3555 1.54688C20.3555 0.703125 19.6641 0 18.8203 0C17.9766 0 17.2852 0.703125 17.2852 1.54688C17.2852 2.39062 17.9766 3.08203 18.8203 3.08203ZM23.7539 7.13672C25.0195 7.13672 26.0391 6.11719 26.0391 4.82812C26.0391 3.55078 25.0195 2.53125 23.7539 2.53125C22.4648 2.53125 21.4336 3.55078 21.4336 4.82812C21.4336 6.11719 22.4648 7.13672 23.7539 7.13672Z" fill="black" fill-opacity="0.85"/>
<path id="Vector_2" d="M10.0547 18.2109C7.96875 18.2109 7.14844 16.4062 7.14844 14.3438C7.14844 12.2461 8.03906 10.5234 10.0195 10.5234C11.5898 10.5234 12.5625 11.6484 12.5977 12.8789C12.6094 13.3125 12.3516 13.5938 11.9766 13.5938C11.6133 13.5938 11.4258 13.3945 11.3203 12.9727C11.1914 12.3633 10.8633 11.7305 10.043 11.7305C8.88281 11.7305 8.48438 13.043 8.48438 14.3438C8.48438 15.7266 8.85938 17.0039 10.0547 17.0039C10.875 17.0039 11.2266 16.3594 11.3555 15.75C11.4609 15.3281 11.6484 15.1289 12.0117 15.1289C12.3867 15.1289 12.6445 15.4219 12.6328 15.8438C12.5977 17.0742 11.625 18.2109 10.0547 18.2109ZM16.0195 18.2109C14.25 18.2109 13.1367 16.7109 13.1367 14.3672C13.1367 12.0117 14.25 10.5234 16.0078 10.5234C17.7773 10.5234 18.8789 12.0117 18.8789 14.3672C18.8789 16.7109 17.7773 18.2109 16.0195 18.2109ZM19.8047 18.668C19.5703 18.668 19.3945 18.4805 19.3945 18.2344C19.3945 18.0938 19.4648 17.9062 19.5703 17.8008L20.5078 16.8516C20.7656 16.582 21.0352 16.2656 21.0352 15.9961C21.0352 15.8203 20.9062 15.6914 20.7188 15.6914C20.5312 15.6914 20.4141 15.8086 20.3438 16.043C20.2617 16.207 20.1328 16.418 19.8398 16.418C19.5938 16.418 19.3828 16.2305 19.3828 15.9258C19.3828 15.4102 19.8867 14.7891 20.707 14.7891C21.4805 14.7891 22.043 15.293 22.043 15.9727C22.043 16.4531 21.7031 16.8984 21.2227 17.3672L20.8359 17.7773H21.7617C21.9961 17.7773 22.1953 17.9883 22.1953 18.2109C22.1953 18.457 22.0078 18.668 21.7617 18.668H19.8047ZM16.0195 17.0039C16.9688 17.0039 17.5547 16.0312 17.5547 14.3672C17.5547 12.7031 16.9688 11.7305 16.0078 11.7305C15.0586 11.7305 14.4727 12.7031 14.4727 14.3672C14.4727 16.0312 15.0586 17.0039 16.0195 17.0039Z" fill="white"/>
</g>
</g>
<defs>
<clipPath id="clip0_2124_12991">
<rect width="28.1719" height="22.1602" fill="white"/>
</clipPath>
</defs>
</svg>
