<svg width="27" height="25" viewBox="0 0 27 25" fill="none" xmlns="http://www.w3.org/2000/svg">
<g clip-path="url(#clip0_2207_16411)">
<path d="M26.416 19.8803C27.3769 16.3764 24.8223 14.853 18.5527 14.853C15.5996 14.853 12.623 15.0991 10.0567 15.5444L10.6074 16.2358C10.9824 11.2553 9.54103 7.09522 6.81056 5.16162L7.03322 6.29834C8.09963 2.65381 5.86134 0.0405273 3.10744 0.0405273C0.834005 0.0405273 -0.384745 1.68115 0.259787 4.28272L4.66603 22.1655C5.09963 23.9233 6.25978 24.8608 7.98244 24.8608H21.9043C24.3183 24.8608 25.3848 23.7007 26.416 19.8803ZM24.6113 19.3764C23.7558 22.5522 23.2168 22.9741 21.9043 22.9741H7.98244C7.209 22.9741 6.70509 22.5288 6.50588 21.7085L2.06447 3.79053C1.78322 2.64209 2.25197 1.92725 3.11916 1.92725C4.45509 1.92725 5.67384 3.146 5.34572 5.34912C5.22853 6.146 5.31056 6.38037 5.75588 6.74365C7.81838 8.27881 8.97853 11.8296 8.88478 16.2358C8.88478 16.9507 9.33009 17.4077 10.0449 17.396C11.3808 17.3022 14.3808 16.7397 18.5527 16.7397C23.6973 16.7397 25.1152 17.5014 24.6113 19.3764Z" fill="black" fill-opacity="0.85"/>
<path d="M13.7129 7.8335C13.7129 9.55615 15.2832 11.2905 16.7363 11.2905C18.0723 11.2905 18.7519 10.0952 19.5488 7.97412L19.8535 7.91553V10.2007C19.8535 11.185 20.3691 11.6889 21.3183 11.6889C23.0293 11.6889 24.7637 10.1303 24.7637 8.66553C24.7637 7.31787 23.5683 6.64991 21.4355 5.84131L21.3887 5.54834H23.6738C24.6582 5.54834 25.1504 5.04444 25.1504 4.09522C25.1504 2.37256 23.6035 0.626465 22.1387 0.626465C20.791 0.626465 20.123 1.84522 19.3144 3.97803L19.0215 4.01319V1.72803C19.0215 0.755371 18.5176 0.239746 17.5683 0.239746C15.8457 0.239746 14.0996 1.81006 14.0996 3.26319C14.0996 4.59912 15.3183 5.26709 17.4512 6.07569L17.4746 6.38037H15.2012C14.2285 6.38037 13.7129 6.896 13.7129 7.8335ZM18.2598 5.9585C18.2598 5.31397 18.7871 4.78662 19.4316 4.78662C20.0762 4.78662 20.6035 5.31397 20.6035 5.9585C20.6035 6.61475 20.0762 7.13037 19.4316 7.13037C18.7871 7.13037 18.2598 6.61475 18.2598 5.9585Z" fill="black" fill-opacity="0.85"/>
</g>
<defs>
<clipPath id="clip0_2207_16411">
<rect width="26.5244" height="24.8555" fill="white" transform="translate(0.0881348 0.0405273)"/>
</clipPath>
</defs>
</svg>
