<svg width="27" height="25" viewBox="0 0 27 25" fill="none" xmlns="http://www.w3.org/2000/svg">
<g clip-path="url(#clip0_2207_16355)">
<path d="M26.3931 19.8803C27.354 16.3764 24.7994 14.853 18.5298 14.853C15.5767 14.853 12.6001 15.0991 10.0337 15.5444L10.5845 16.2358C10.9595 11.2553 9.51809 7.09522 6.78762 5.16162L7.01028 6.29834C8.07668 2.65381 5.8384 0.0405273 3.0845 0.0405273C0.811056 0.0405273 -0.407695 1.68115 0.236838 4.28272L4.64309 22.1655C5.07669 23.9233 6.23684 24.8608 7.9595 24.8608H21.8814C24.2954 24.8608 25.3619 23.7007 26.3931 19.8803ZM24.5884 19.3764C23.7329 22.5522 23.1939 22.9741 21.8814 22.9741H7.9595C7.18606 22.9741 6.68215 22.5288 6.48294 21.7085L2.04153 3.79053C1.76028 2.64209 2.22903 1.92725 3.09622 1.92725C4.43215 1.92725 5.6509 3.146 5.32278 5.34912C5.20559 6.146 5.28762 6.38037 5.73294 6.74365C7.79544 8.27881 8.95559 11.8296 8.86184 16.2358C8.86184 16.9507 9.30715 17.4077 10.022 17.396C11.3579 17.3022 14.3579 16.7397 18.5298 16.7397C23.6744 16.7397 25.0923 17.5014 24.5884 19.3764Z" fill="black" fill-opacity="0.85"/>
</g>
<defs>
<clipPath id="clip0_2207_16355">
<rect width="26.5244" height="24.8555" fill="white" transform="translate(0.0651855 0.0405273)"/>
</clipPath>
</defs>
</svg>
