<svg width="27" height="29" viewBox="0 0 27 29" fill="none" xmlns="http://www.w3.org/2000/svg">
<g clip-path="url(#clip0_2207_16391)">
<path d="M26.4265 21.7473C27.3874 18.2434 24.8328 16.72 18.5632 16.72C15.6101 16.72 12.6335 16.9661 10.0672 17.4114L10.6179 18.1028C10.9929 13.1223 9.55153 8.96222 6.82106 7.02862L7.04372 8.16534C8.11013 4.52081 5.87184 1.90753 3.11794 1.90753C0.844503 1.90753 -0.374247 3.54815 0.270285 6.14972L4.67653 24.0325C5.11013 25.7903 6.27028 26.7278 7.99294 26.7278H21.9148C24.3288 26.7278 25.3953 25.5676 26.4265 21.7473ZM24.6218 21.2434C23.7663 24.4192 23.2273 24.8411 21.9148 24.8411H7.99294C7.2195 24.8411 6.71559 24.3958 6.51638 23.5755L2.07497 5.65753C1.79372 4.50909 2.26247 3.79425 3.12966 3.79425C4.46559 3.79425 5.68434 5.013 5.35622 7.21612C5.23903 8.013 5.32106 8.24737 5.76638 8.61065C7.82888 10.1458 8.98903 13.6966 8.89528 18.1028C8.89528 18.8176 9.34059 19.2747 10.0554 19.263C11.3913 19.1692 14.3913 18.6067 18.5632 18.6067C23.7078 18.6067 25.1257 19.3684 24.6218 21.2434Z" fill="black" fill-opacity="0.85"/>
<path d="M9.65704 4.13408C9.58673 4.48564 9.72735 4.76689 10.0438 4.8958C10.4305 5.02471 10.8289 4.82549 10.8993 4.41533C11.1571 2.65752 10.2899 0.852829 8.84845 0.137985C8.39142 -0.0963905 8.02813 0.126266 7.89923 0.442672C7.79376 0.74736 7.87579 1.08721 8.20392 1.26299C9.27032 1.75517 9.8211 2.90361 9.65704 4.13408ZM12.868 13.0755C12.7391 13.5325 12.9735 13.8255 13.2782 13.9075C13.6063 13.9895 14.0047 13.8372 14.1102 13.4387C14.7079 11.2005 13.7704 7.91924 11.3211 6.75908C10.8758 6.54814 10.536 6.71221 10.3836 6.98174C10.2313 7.26299 10.2782 7.66142 10.7 7.88408C12.7743 8.98564 13.3368 11.3645 12.868 13.0755Z" fill="black" fill-opacity="0.85"/>
</g>
<defs>
<clipPath id="clip0_2207_16391">
<rect width="26.5244" height="28.5894" fill="white" transform="translate(0.0986328 0.0405273)"/>
</clipPath>
</defs>
</svg>
