<svg width="34" height="25" viewBox="0 0 34 25" fill="none" xmlns="http://www.w3.org/2000/svg">
<g clip-path="url(#clip0_2207_16505)">
<path d="M0.238479 19.8803C1.26973 23.7007 2.33613 24.8608 4.7502 24.8608H18.6604C20.3947 24.8608 21.5549 23.9233 21.9885 22.1655L26.3947 4.28272C27.0393 1.68115 25.8205 0.0405273 23.5354 0.0405273C20.7815 0.0405273 18.5549 2.65381 19.6213 6.29834L19.844 5.16162C17.1135 7.09522 15.6721 11.2553 16.0471 16.2358L16.5861 15.5444C14.0315 15.0991 11.0549 14.853 8.10176 14.853C1.83223 14.853 -0.722459 16.3764 0.238479 19.8803ZM2.04316 19.3764C1.52754 17.5014 2.95723 16.7397 8.10176 16.7397C12.2736 16.7397 15.2736 17.3022 16.6096 17.396C17.3244 17.4077 17.7697 16.9507 17.758 16.2358C17.676 11.8296 18.8361 8.27881 20.8869 6.74365C21.3322 6.38037 21.426 6.146 21.2971 5.34912C20.9807 3.146 22.1994 1.92725 23.5354 1.92725C24.4025 1.92725 24.8713 2.64209 24.59 3.79053L20.1486 21.7085C19.9494 22.5288 19.4455 22.9741 18.6604 22.9741H4.7502C3.4377 22.9741 2.89863 22.5522 2.04316 19.3764Z" fill="black" fill-opacity="0.85"/>
<path d="M27.4377 11.5132C27.2736 12.1225 27.6955 12.521 28.3283 12.3335L32.9807 10.9389C33.59 10.7632 33.7424 10.1538 33.3088 9.72022L29.9455 6.18115C29.5002 5.71241 28.926 5.86475 28.7619 6.47412L27.4377 11.5132Z" fill="black" fill-opacity="0.85"/>
<path d="M14.6291 7.32959L15.9533 2.27881C16.1174 1.68115 15.6955 1.271 15.0861 1.4585L10.3986 2.86475C9.81271 3.04053 9.64864 3.63819 10.0822 4.0835L13.4572 7.59912C13.9025 8.06787 14.465 7.95069 14.6291 7.32959Z" fill="black" fill-opacity="0.85"/>
</g>
<defs>
<clipPath id="clip0_2207_16505">
<rect width="33.5144" height="24.8555" fill="white" transform="translate(0.0419922 0.0405273)"/>
</clipPath>
</defs>
</svg>
