<svg width="27" height="33" viewBox="0 0 27 33" fill="none" xmlns="http://www.w3.org/2000/svg">
<g clip-path="url(#clip0_2207_16541)">
<path d="M26.3301 19.8818C27.291 16.3779 24.7364 14.8545 18.4668 14.8545C15.5137 14.8545 12.5371 15.0889 9.97073 15.5459L10.5215 16.2373C10.8965 11.2451 9.4551 7.09668 6.72463 5.16308L6.94729 6.28808C8.0137 2.65527 5.77541 0.0419922 3.02151 0.0419922C0.748067 0.0419922 -0.470683 1.68261 0.173849 4.27246L4.5801 22.1553C5.0137 23.9248 6.17385 24.8623 7.89651 24.8623H21.8184C24.2324 24.8623 25.2989 23.7022 26.3301 19.8818ZM24.5254 19.3779C23.6699 22.5537 23.1309 22.9756 21.8184 22.9756H7.89651C7.12307 22.9756 6.61916 22.5303 6.41995 21.6982L1.97854 3.78027C1.69729 2.63183 2.16604 1.92871 3.03323 1.92871C4.36916 1.92871 5.58791 3.14746 5.25979 5.33886C5.1426 6.14746 5.22463 6.37011 5.66995 6.7334C7.73245 8.26855 8.8926 11.8311 8.79885 16.2373C8.79885 16.9522 9.24416 17.4092 9.95901 17.3975C11.2949 17.3037 14.2949 16.7412 18.4668 16.7412C23.6114 16.7412 25.0293 17.4912 24.5254 19.3779Z" fill="black" fill-opacity="0.85"/>
<path d="M20.1543 26.6553H14.9395C14.3184 26.6553 14.0254 27.1709 14.3653 27.7217L16.9199 31.8818C17.2364 32.3975 17.8457 32.4209 18.1856 31.8818L20.7168 27.7217C21.0449 27.1709 20.7871 26.6553 20.1543 26.6553Z" fill="black" fill-opacity="0.85"/>
<path d="M20.1543 13.0732C20.7871 13.0732 21.0567 12.5693 20.7168 12.0186L18.1856 7.85842C17.8574 7.31935 17.2364 7.33107 16.9199 7.85842L14.3653 12.0186C14.0254 12.5693 14.3184 13.0732 14.9395 13.0732H20.1543Z" fill="black" fill-opacity="0.85"/>
</g>
<defs>
<clipPath id="clip0_2207_16541">
<rect width="26.5244" height="32.4492" fill="white" transform="translate(0.00219727 0.0419922)"/>
</clipPath>
</defs>
</svg>
