<svg width="27" height="33" viewBox="0 0 27 33" fill="none" xmlns="http://www.w3.org/2000/svg">
<g clip-path="url(#clip0_2207_16535)">
<path d="M0.259475 19.8686C1.29073 23.6889 2.35713 24.8491 4.7712 24.8491H18.447C20.1814 24.8491 21.3415 23.9116 21.7751 22.1421L26.1814 4.25928C26.8962 1.35303 25.4431 0.0405273 23.7556 0.0405273C21.5173 0.0405273 19.0798 2.43115 20.4509 6.28662L20.7907 4.85694C17.2634 6.69678 15.6579 10.9975 16.3025 16.2358L16.7243 15.6499C14.3103 15.1342 11.1579 14.8413 8.12276 14.8413C1.85323 14.8413 -0.701463 16.3647 0.259475 19.8686Z" fill="black" fill-opacity="0.85"/>
<path d="M6.3064 26.6421C5.67359 26.6421 5.41578 27.1577 5.7439 27.7085L8.27515 31.8686C8.615 32.4077 9.22437 32.3843 9.54078 31.8686L12.0954 27.7085C12.4353 27.1577 12.1423 26.6421 11.5212 26.6421H6.3064Z" fill="black" fill-opacity="0.85"/>
<path d="M6.30631 13.06H11.5212C12.1423 13.06 12.4353 12.5561 12.0954 12.0053L9.54069 7.84523C9.22428 7.31788 8.60319 7.30616 8.27506 7.84523L5.74381 12.0053C5.40397 12.5561 5.6735 13.06 6.30631 13.06Z" fill="black" fill-opacity="0.85"/>
</g>
<defs>
<clipPath id="clip0_2207_16535">
<rect width="26.3049" height="32.4258" fill="white" transform="translate(0.0629883 0.0405273)"/>
</clipPath>
</defs>
</svg>
