<svg width="27" height="34" viewBox="0 0 27 34" fill="none" xmlns="http://www.w3.org/2000/svg">
<g clip-path="url(#clip0_2207_16493)">
<path d="M26.4224 19.8803C27.3833 16.3764 24.8287 14.853 18.5591 14.853C15.606 14.853 12.6294 15.0991 10.063 15.5561L10.6138 16.2358C10.9888 11.2553 9.54738 7.10694 6.81691 5.16162L7.03957 6.29834C8.10598 2.65381 5.86769 0.0405273 3.11379 0.0405273C0.840353 0.0405273 -0.378398 1.69287 0.266134 4.28272L4.67238 22.1655C5.10598 23.9233 6.26613 24.8725 7.98879 24.8725H21.9107C24.3247 24.8725 25.3912 23.7007 26.4224 19.8803ZM24.6177 19.3882C23.7622 22.5522 23.2232 22.9858 21.9107 22.9858H7.98879C7.21535 22.9858 6.71144 22.5288 6.51223 21.7085L2.07082 3.79053C1.78957 2.64209 2.25832 1.92725 3.12551 1.92725C4.46144 1.92725 5.68019 3.146 5.35207 5.34912C5.23488 6.146 5.31691 6.38037 5.76223 6.74365C7.82473 8.27881 8.98488 11.8296 8.89113 16.2475C8.89113 16.9624 9.33644 17.4077 10.0513 17.396C11.3872 17.3022 14.3872 16.7397 18.5591 16.7397C23.7037 16.7397 25.1216 17.5014 24.6177 19.3882Z" fill="black" fill-opacity="0.85"/>
<path d="M18.1255 33.0171C18.1255 33.6499 18.6294 33.9194 19.1802 33.5796L23.3404 31.0483C23.8794 30.7202 23.8677 30.0991 23.3404 29.7827L19.1802 27.228C18.6294 26.8882 18.1255 27.1811 18.1255 27.8022V33.0171Z" fill="black" fill-opacity="0.85"/>
<path d="M12.0435 33.0171V27.8022C12.0435 27.1811 11.5396 26.8882 10.9888 27.228L6.8169 29.7827C6.30128 30.0991 6.28956 30.7202 6.8169 31.0483L10.9771 33.5796C11.5279 33.9194 12.0435 33.6499 12.0435 33.0171Z" fill="black" fill-opacity="0.85"/>
</g>
<defs>
<clipPath id="clip0_2207_16493">
<rect width="26.5244" height="33.9023" fill="white" transform="translate(0.0944824 0.0405273)"/>
</clipPath>
</defs>
</svg>
