<svg width="27" height="25" viewBox="0 0 27 25" fill="none" xmlns="http://www.w3.org/2000/svg">
<g clip-path="url(#clip0_2207_16446)">
<path d="M0.227981 19.8686C1.25923 23.6889 2.32563 24.8491 4.7397 24.8491H18.4155C20.1499 24.8491 21.31 23.9116 21.7436 22.1538L26.1499 4.271C26.8647 1.35303 25.4116 0.0405273 23.7241 0.0405273C21.4858 0.0405273 19.0483 2.43115 20.4194 6.29834L20.7592 4.85694C17.2319 6.7085 15.6264 10.9975 16.271 16.2358L16.6928 15.6499C14.2788 15.146 11.1264 14.8413 8.09126 14.8413C1.82173 14.8413 -0.732957 16.3647 0.227981 19.8686Z" fill="black" fill-opacity="0.85"/>
<path d="M3.1225 10.9507H8.7475C9.18109 10.9507 9.4975 10.646 9.4975 10.2241C9.4975 9.79053 9.18109 9.48584 8.7475 9.48584H4.77484V9.45069L7.31781 6.7085C8.22015 5.74756 8.89984 4.90381 8.89984 3.69678C8.89984 2.03272 7.59906 0.931152 5.56 0.931152C4.04828 0.931152 2.6889 1.84522 2.33734 3.08741C2.30219 3.26319 2.27875 3.38037 2.27875 3.53272C2.27875 3.96631 2.56 4.25928 3.00531 4.25928C3.40375 4.25928 3.60297 4.01319 3.80219 3.68506C4.08344 3.04053 4.64594 2.37256 5.63031 2.37256C6.6264 2.37256 7.30609 2.9585 7.30609 3.81397C7.30609 4.57569 6.64984 5.22022 6.02875 5.88819L2.61859 9.55615C2.43109 9.75537 2.32562 9.96631 2.32562 10.2241C2.32562 10.6694 2.63031 10.9507 3.1225 10.9507Z" fill="black" fill-opacity="0.85"/>
</g>
<defs>
<clipPath id="clip0_2207_16446">
<rect width="26.3049" height="24.832" fill="white" transform="translate(0.0314941 0.0405273)"/>
</clipPath>
</defs>
</svg>
