<svg width="27" height="25" viewBox="0 0 27 25" fill="none" xmlns="http://www.w3.org/2000/svg">
<g clip-path="url(#clip0_2207_16421)">
<path d="M0.221633 19.8803C1.25289 23.7007 2.31929 24.8608 4.73336 24.8608H18.6435C20.3778 24.8608 21.538 23.9233 21.9716 22.1655L26.3778 4.28272C27.0224 1.68115 25.8036 0.0405273 23.5185 0.0405273C20.7646 0.0405273 18.538 2.65381 19.6044 6.29834L19.8271 5.16162C17.0966 7.09522 15.6552 11.2553 16.0302 16.2358L16.5692 15.5444C14.0146 15.0991 11.038 14.853 8.08492 14.853C1.81539 14.853 -0.739305 16.3764 0.221633 19.8803ZM2.02632 19.3764C1.5107 17.5014 2.94039 16.7397 8.08492 16.7397C12.2567 16.7397 15.2567 17.3022 16.5927 17.396C17.3075 17.4077 17.7528 16.9507 17.7411 16.2358C17.6591 11.8296 18.8192 8.27881 20.87 6.74365C21.3153 6.38037 21.4091 6.146 21.2802 5.34912C20.9638 3.146 22.1825 1.92725 23.5185 1.92725C24.3856 1.92725 24.8544 2.64209 24.5731 3.79053L20.1317 21.7085C19.9325 22.5288 19.4286 22.9741 18.6435 22.9741H4.73336C3.42086 22.9741 2.88179 22.5522 2.02632 19.3764Z" fill="black" fill-opacity="0.85"/>
<path d="M6.69037 11.2671C7.25287 11.2671 7.56927 10.9155 7.56927 10.3061V2.03272C7.56927 1.39991 7.24115 1.06006 6.65521 1.06006C6.23334 1.06006 5.97552 1.17725 5.50677 1.49365L3.50287 2.84131C3.25677 3.01709 3.17474 3.18115 3.17474 3.43897C3.17474 3.77881 3.45599 4.07178 3.7724 4.07178C3.93646 4.07178 4.05365 4.03662 4.32318 3.86084L5.74115 2.93506H5.85834V10.3061C5.85834 10.9038 6.17474 11.2671 6.69037 11.2671Z" fill="black" fill-opacity="0.85"/>
</g>
<defs>
<clipPath id="clip0_2207_16421">
<rect width="26.5243" height="24.8555" fill="white" transform="translate(0.0251465 0.0405273)"/>
</clipPath>
</defs>
</svg>
