<svg width="27" height="25" viewBox="0 0 27 25" fill="none" xmlns="http://www.w3.org/2000/svg">
<g clip-path="url(#clip0_2207_16451)">
<path d="M26.3992 19.8803C27.3601 16.3764 24.8055 14.853 18.5359 14.853C15.5828 14.853 12.6062 15.0991 10.0398 15.5444L10.5906 16.2358C10.9656 11.2553 9.52419 7.09522 6.79372 5.16162L7.01638 6.29834C8.08279 2.65381 5.8445 0.0405273 3.0906 0.0405273C0.817159 0.0405273 -0.401591 1.68115 0.242941 4.28272L4.64919 22.1655C5.08279 23.9233 6.24294 24.8608 7.9656 24.8608H21.8875C24.3015 24.8608 25.368 23.7007 26.3992 19.8803ZM24.5945 19.3764C23.739 22.5522 23.2 22.9741 21.8875 22.9741H7.9656C7.19216 22.9741 6.68825 22.5288 6.48904 21.7085L2.04763 3.79053C1.76638 2.64209 2.23513 1.92725 3.10232 1.92725C4.43825 1.92725 5.657 3.146 5.32888 5.34912C5.21169 6.146 5.29372 6.38037 5.73904 6.74365C7.80154 8.27881 8.96169 11.8296 8.86794 16.2358C8.86794 16.9507 9.31325 17.4077 10.0281 17.396C11.364 17.3022 14.364 16.7397 18.5359 16.7397C23.6805 16.7397 25.0984 17.5014 24.5945 19.3764Z" fill="black" fill-opacity="0.85"/>
<path d="M18.2664 10.9624H23.8797C24.325 10.9624 24.6297 10.6577 24.6297 10.2358C24.6297 9.80225 24.3133 9.49756 23.8797 9.49756H19.907V9.46241L22.45 6.72022C23.3523 5.75928 24.032 4.91553 24.032 3.7085C24.032 2.04444 22.7312 0.942871 20.7039 0.942871C19.1805 0.942871 17.8328 1.85694 17.4812 3.09912C17.4461 3.27491 17.4109 3.39209 17.4109 3.54444C17.4109 3.97803 17.6922 4.271 18.1492 4.271C18.5476 4.271 18.7469 4.02491 18.9461 3.69678C19.2156 3.05225 19.7781 2.38428 20.7742 2.38428C21.7703 2.38428 22.4383 2.97022 22.4383 3.82569C22.4383 4.58741 21.782 5.23194 21.1726 5.89991L17.7625 9.56787C17.5633 9.76709 17.4578 9.97803 17.4578 10.2358C17.4578 10.6811 17.7625 10.9624 18.2664 10.9624Z" fill="black" fill-opacity="0.85"/>
</g>
<defs>
<clipPath id="clip0_2207_16451">
<rect width="26.5244" height="24.8555" fill="white" transform="translate(0.0712891 0.0405273)"/>
</clipPath>
</defs>
</svg>
