<svg width="27" height="33" viewBox="0 0 27 33" fill="none" xmlns="http://www.w3.org/2000/svg">
<g clip-path="url(#clip0_2207_16529)">
<path d="M0.257522 19.8803C1.28877 23.7007 2.35517 24.8608 4.76924 24.8608H18.6794C20.4137 24.8608 21.5739 23.9233 22.0075 22.1538L26.4137 4.271C27.0583 1.68115 25.8395 0.0405273 23.5544 0.0405273C20.8005 0.0405273 18.5739 2.65381 19.6403 6.28662L19.863 5.16162C17.1325 7.09522 15.6911 11.2436 16.0661 16.2358L16.6051 15.5444C14.0505 15.0874 11.0739 14.853 8.1208 14.853C1.85127 14.853 -0.703416 16.3764 0.257522 19.8803ZM2.0622 19.3764C1.54658 17.4897 2.97627 16.7397 8.1208 16.7397C12.2926 16.7397 15.2926 17.3022 16.6286 17.396C17.3434 17.4077 17.7887 16.9507 17.777 16.2358C17.695 11.8296 18.8551 8.26709 20.9059 6.73194C21.3512 6.36865 21.445 6.146 21.3161 5.3374C20.9997 3.146 22.2184 1.92725 23.5544 1.92725C24.4215 1.92725 24.8903 2.63037 24.609 3.77881L20.1676 21.6967C19.9684 22.5288 19.4645 22.9741 18.6794 22.9741H4.76924C3.45674 22.9741 2.91767 22.5522 2.0622 19.3764Z" fill="black" fill-opacity="0.85"/>
<path d="M6.42164 26.6538C5.78883 26.6538 5.53101 27.1694 5.85914 27.7202L8.39039 31.8803C8.73023 32.4194 9.33961 32.396 9.65601 31.8803L12.2107 27.7202C12.5506 27.1694 12.2576 26.6538 11.6365 26.6538H6.42164Z" fill="black" fill-opacity="0.85"/>
<path d="M6.42155 13.0717H11.6364C12.2575 13.0717 12.5505 12.5678 12.2106 12.0171L9.65592 7.85695C9.33952 7.3296 8.71842 7.31788 8.3903 7.85695L5.85905 12.0171C5.51921 12.5678 5.78874 13.0717 6.42155 13.0717Z" fill="black" fill-opacity="0.85"/>
</g>
<defs>
<clipPath id="clip0_2207_16529">
<rect width="26.5243" height="32.4492" fill="white" transform="translate(0.0610352 0.0405273)"/>
</clipPath>
</defs>
</svg>
