<svg width="27" height="25" viewBox="0 0 27 25" fill="none" xmlns="http://www.w3.org/2000/svg">
<g clip-path="url(#clip0_2207_16436)">
<path d="M26.1777 19.8686C27.1387 16.3647 24.5957 14.8413 18.3145 14.8413C15.2793 14.8413 12.127 15.146 9.71294 15.6499L10.1348 16.2358C10.7793 10.9975 9.17388 6.7085 5.64653 4.85694L5.98638 6.29834C7.35747 2.43115 4.91997 0.0405273 2.68169 0.0405273C0.994187 0.0405273 -0.458938 1.35303 0.255905 4.271L4.66216 22.1538C5.09575 23.9116 6.25591 24.8491 7.99028 24.8491H21.666C24.0801 24.8491 25.1465 23.6889 26.1777 19.8686Z" fill="black" fill-opacity="0.85"/>
<path d="M21.4551 11.2553C22.0059 11.2553 22.3223 10.9038 22.3223 10.2944V2.021C22.3223 1.38819 21.9942 1.04834 21.4082 1.04834C20.9981 1.04834 20.7285 1.15381 20.2715 1.48194L18.2559 2.82959C18.0215 3.00537 17.9395 3.16944 17.9395 3.42725C17.9395 3.76709 18.209 4.06006 18.5371 4.06006C18.7012 4.06006 18.8184 4.03662 19.0879 3.84912L20.4942 2.92334H20.6113V10.2944C20.6113 10.8921 20.9395 11.2553 21.4551 11.2553Z" fill="black" fill-opacity="0.85"/>
</g>
<defs>
<clipPath id="clip0_2207_16436">
<rect width="26.3055" height="24.832" fill="white" transform="translate(0.0693359 0.0405273)"/>
</clipPath>
</defs>
</svg>
