<svg width="27" height="25" viewBox="0 0 27 25" fill="none" xmlns="http://www.w3.org/2000/svg">
<g clip-path="url(#clip0_2207_16466)">
<path d="M0.232131 19.8686C1.26338 23.6889 2.32978 24.8491 4.74385 24.8491H18.4196C20.154 24.8491 21.3141 23.9116 21.7477 22.1538L26.154 4.271C26.8688 1.35303 25.4157 0.0405273 23.7282 0.0405273C21.4899 0.0405273 19.0524 2.43115 20.4235 6.29834L20.7633 4.85694C17.236 6.7085 15.6305 10.9975 16.2751 16.2358L16.6969 15.6499C14.2829 15.146 11.1305 14.8413 8.09541 14.8413C1.82588 14.8413 -0.728807 16.3647 0.232131 19.8686Z" fill="black" fill-opacity="0.85"/>
<path d="M5.66962 10.7514C7.80243 10.7514 9.24384 9.62647 9.24384 7.93897C9.24384 6.73194 8.34149 5.771 7.0993 5.61865C8.10712 5.45459 8.91571 4.51709 8.91571 3.42725C8.91571 1.98584 7.60321 0.931152 5.75165 0.931152C4.07587 0.931152 2.81024 1.71631 2.51727 2.97022C2.48212 3.11084 2.4704 3.20459 2.4704 3.38037C2.4704 3.77881 2.76337 4.07178 3.20868 4.07178C3.57196 4.07178 3.80634 3.896 3.93524 3.521C4.16962 2.73584 4.83759 2.29053 5.72821 2.29053C6.71259 2.29053 7.3454 2.78272 7.3454 3.59131C7.3454 4.42334 6.63055 5.03272 5.68134 5.03272H5.0368C4.6618 5.03272 4.36884 5.30225 4.36884 5.68897C4.36884 6.07569 4.65009 6.35694 5.0368 6.35694H5.75165C6.88837 6.35694 7.67352 6.96631 7.67352 7.88037C7.67352 8.771 6.87665 9.38037 5.69305 9.38037C4.7204 9.38037 4.02899 8.94678 3.74774 8.14991C3.60712 7.78662 3.37274 7.62256 3.02118 7.62256C2.58759 7.62256 2.2829 7.91553 2.2829 8.33741C2.2829 8.48975 2.29462 8.56006 2.32977 8.70069C2.5993 9.90772 3.99384 10.7514 5.66962 10.7514Z" fill="black" fill-opacity="0.85"/>
</g>
<defs>
<clipPath id="clip0_2207_16466">
<rect width="26.3049" height="24.832" fill="white" transform="translate(0.0356445 0.0405273)"/>
</clipPath>
</defs>
</svg>
