<svg width="27" height="25" viewBox="0 0 27 25" fill="none" xmlns="http://www.w3.org/2000/svg">
<g clip-path="url(#clip0_2207_16372)">
<path d="M26.4077 19.8803C27.3686 16.3764 24.814 14.853 18.5444 14.853C15.5913 14.853 12.6147 15.0991 10.0484 15.5444L10.5991 16.2358C10.9741 11.2553 9.53273 7.09522 6.80226 5.16162L7.02492 6.29834C8.09133 2.65381 5.85304 0.0405273 3.09914 0.0405273C0.825704 0.0405273 -0.393046 1.68115 0.251486 4.28272L4.65773 22.1655C5.09133 23.9233 6.25148 24.8608 7.97414 24.8608H21.896C24.31 24.8608 25.3765 23.7007 26.4077 19.8803ZM24.603 19.3764C23.7475 22.5522 23.2085 22.9741 21.896 22.9741H7.97414C7.2007 22.9741 6.69679 22.5288 6.49758 21.7085L2.05617 3.79053C1.77492 2.64209 2.24367 1.92725 3.11086 1.92725C4.44679 1.92725 5.66554 3.146 5.33742 5.34912C5.22023 6.146 5.30226 6.38037 5.74758 6.74365C7.81008 8.27881 8.97023 11.8296 8.87648 16.2358C8.87648 16.9507 9.32179 17.4077 10.0366 17.396C11.3725 17.3022 14.3725 16.7397 18.5444 16.7397C23.689 16.7397 25.1069 17.5014 24.603 19.3764Z" fill="black" fill-opacity="0.85"/>
<path d="M15.2398 13.353C15.2398 11.8178 13.857 10.9624 13.857 9.9077C13.857 9.32176 14.0094 8.99363 14.4078 8.46629C14.9703 7.71629 13.9156 6.96629 13.3531 7.69285C12.7906 8.39598 12.5562 9.04051 12.5562 9.82567C12.5562 11.4194 13.9156 12.2046 13.9156 13.353C13.9156 14.4897 12.5562 15.2866 12.5562 16.8686C12.5562 17.6772 12.7906 18.3217 13.3414 19.0132C13.9039 19.728 14.9586 18.978 14.3961 18.228C14.0094 17.7124 13.857 17.396 13.857 16.7866C13.857 15.7553 15.2398 14.8999 15.2398 13.353ZM18.9898 13.353C18.9898 11.8178 17.607 10.9624 17.607 9.9077C17.607 9.32176 17.7711 8.99363 18.1578 8.46629C18.7203 7.71629 17.6773 6.96629 17.1148 7.69285C16.5523 8.39598 16.3062 9.04051 16.3062 9.82567C16.3062 11.4194 17.6656 12.2046 17.6656 13.353C17.6656 14.4897 16.3062 15.2866 16.3062 16.8686C16.3062 17.6772 16.5523 18.3217 17.1031 19.0132C17.6656 19.728 18.7086 18.978 18.1578 18.228C17.7711 17.7124 17.607 17.396 17.607 16.7866C17.607 15.7553 18.9898 14.8999 18.9898 13.353ZM22.7516 13.353C22.7516 11.8178 21.3687 10.9624 21.3687 9.9077C21.3687 9.32176 21.5211 8.99363 21.9195 8.46629C22.482 7.71629 21.4273 6.96629 20.8648 7.69285C20.3023 8.39598 20.068 9.04051 20.068 9.82567C20.068 11.4194 21.4273 12.2046 21.4273 13.353C21.4273 14.4897 20.068 15.2866 20.068 16.8686C20.068 17.6772 20.3023 18.3217 20.8648 19.0132C21.4156 19.728 22.4703 18.978 21.9078 18.228C21.5211 17.7124 21.3687 17.396 21.3687 16.7866C21.3687 15.7553 22.7516 14.8999 22.7516 13.353Z" fill="black" fill-opacity="0.85"/>
</g>
<defs>
<clipPath id="clip0_2207_16372">
<rect width="26.5244" height="24.8555" fill="white" transform="translate(0.079834 0.0405273)"/>
</clipPath>
</defs>
</svg>
