<svg width="27" height="25" viewBox="0 0 27 25" fill="none" xmlns="http://www.w3.org/2000/svg">
<g clip-path="url(#clip0_2207_16347)">
<path d="M0.21968 19.8803C1.25093 23.7007 2.31733 24.8608 4.7314 24.8608H18.6416C20.3759 24.8608 21.5361 23.9233 21.9697 22.1655L26.3759 4.28272C27.0205 1.68115 25.8017 0.0405273 23.5166 0.0405273C20.7627 0.0405273 18.5361 2.65381 19.6025 6.29834L19.8252 5.16162C17.0947 7.09522 15.6533 11.2553 16.0283 16.2358L16.5673 15.5444C14.0127 15.0991 11.0361 14.853 8.08296 14.853C1.81343 14.853 -0.741258 16.3764 0.21968 19.8803ZM2.02436 19.3764C1.50874 17.5014 2.93843 16.7397 8.08296 16.7397C12.2548 16.7397 15.2548 17.3022 16.5908 17.396C17.3056 17.4077 17.7509 16.9507 17.7392 16.2358C17.6572 11.8296 18.8173 8.27881 20.8681 6.74365C21.3134 6.38037 21.4072 6.146 21.2783 5.34912C20.9619 3.146 22.1806 1.92725 23.5166 1.92725C24.3837 1.92725 24.8525 2.64209 24.5712 3.79053L20.1298 21.7085C19.9306 22.5288 19.4267 22.9741 18.6416 22.9741H4.7314C3.4189 22.9741 2.87983 22.5522 2.02436 19.3764Z" fill="black" fill-opacity="0.85"/>
</g>
<defs>
<clipPath id="clip0_2207_16347">
<rect width="26.5243" height="24.8555" fill="white" transform="translate(0.0231934 0.0405273)"/>
</clipPath>
</defs>
</svg>
