<svg width="24" height="24" viewBox="0 0 24 24" fill="none" xmlns="http://www.w3.org/2000/svg">
<g clip-path="url(#clip0_2207_18100)">
<path d="M11.9887 23.96C18.5278 23.96 23.9418 18.5459 23.9418 12.0068C23.9418 5.47949 18.5161 0.0537109 11.977 0.0537109C5.4497 0.0537109 0.0356445 5.47949 0.0356445 12.0068C0.0356445 18.5459 5.46142 23.96 11.9887 23.96Z" fill="black" fill-opacity="0.85"/>
<path d="M7.60595 18.8858C7.14892 18.8858 6.83252 18.6279 6.70361 18.1123L5.98876 15.4639C5.73095 14.5967 6.5747 14.3154 6.5747 12.417C6.5747 12.2061 6.5747 11.9482 6.59814 11.6201C6.59814 11.3037 6.46923 11.0693 6.15283 10.9404C5.12158 10.5537 4.47705 9.56934 4.47705 8.31544C4.47705 6.62794 5.76611 5.44434 7.61767 5.44434C8.23876 5.44434 8.89502 5.56153 9.60986 5.8545C10.1723 6.08888 9.87939 6.90919 9.27002 6.66309C8.66064 6.417 8.1333 6.31153 7.61767 6.31153C6.28173 6.31153 5.33252 7.13184 5.33252 8.31544C5.33252 9.21778 5.8247 9.89747 6.52783 10.1787C6.90283 10.3076 7.05517 10.249 7.26611 9.99122C7.66455 9.53419 8.30908 9.18262 9.32861 9.18262C11.4848 9.18262 12.3403 9.51075 14.6606 9.51075C14.9184 9.51075 15.0942 9.27638 15.2934 8.87794L15.5278 8.50294C15.809 7.96388 16.1958 7.40138 16.6762 6.94434C16.8872 6.21778 17.3208 5.72559 17.5786 5.72559C17.8364 5.72559 18.1997 6.25294 18.3872 6.89747C19.2895 7.542 20.0747 8.31544 20.0747 9.06544C20.0747 9.58106 19.3129 10.2608 18.2583 10.3428C18.1879 14.2803 15.9145 13.3897 15.9145 16.5772V17.21C16.4184 17.2803 16.6528 17.5732 16.6528 18.0186C16.6528 18.5576 16.2895 18.8858 15.6684 18.8858H14.9887C14.3676 18.8858 14.0395 18.5811 14.0395 17.9834C14.0395 17.4443 14.1215 16.7529 14.1215 16.0615C14.1215 15.499 13.9809 14.9482 13.8403 14.4678C13.2895 14.6201 12.2465 14.7842 11.2856 14.7842C10.477 14.7842 9.80908 14.667 8.76611 14.2686C8.41455 14.8545 8.28564 15.2061 8.28564 15.7803V17.1865C8.8833 17.2803 9.21142 17.6318 9.21142 18.0186C9.21142 18.5811 8.84814 18.8858 8.22705 18.8858H7.60595ZM18.2231 8.59669C18.3637 8.63184 18.5161 8.56153 18.5512 8.40919C18.5864 8.26856 18.5044 8.1045 18.3637 8.06934C18.1997 8.02247 18.059 8.12794 18.0239 8.26856C17.9887 8.42091 18.059 8.54981 18.2231 8.59669Z" fill="white"/>
</g>
<defs>
<clipPath id="clip0_2207_18100">
<rect width="23.9062" height="23.918" fill="white" transform="translate(0.0356445 0.0419922)"/>
</clipPath>
</defs>
</svg>
