<svg width="24" height="24" viewBox="0 0 24 24" fill="none" xmlns="http://www.w3.org/2000/svg">
<g clip-path="url(#clip0_2207_18095)">
<path d="M11.9867 23.9482C18.5258 23.9482 23.9398 18.5225 23.9398 11.9951C23.9398 5.45605 18.5141 0.0419922 11.975 0.0419922C5.44763 0.0419922 0.0335693 5.45605 0.0335693 11.9951C0.0335693 18.5225 5.45935 23.9482 11.9867 23.9482ZM11.9867 21.9561C6.45545 21.9561 2.03748 17.5264 2.03748 11.9951C2.03748 6.46387 6.44373 2.03418 11.975 2.03418C17.5063 2.03418 21.9477 6.46387 21.9477 11.9951C21.9477 17.5264 17.518 21.9561 11.9867 21.9561Z" fill="black" fill-opacity="0.85"/>
<path d="M7.74451 18.6748H8.34216C8.95154 18.6748 9.3031 18.3701 9.3031 17.8311C9.3031 17.4561 8.98669 17.1162 8.40076 17.0225V15.6514C8.40076 15.0889 8.52966 14.749 8.86951 14.1865C9.87732 14.5732 10.5336 14.6904 11.3188 14.6904C12.2445 14.6904 13.2524 14.5381 13.7914 14.3858C13.932 14.8545 14.0609 15.3818 14.0609 15.9326C14.0609 16.5889 13.9789 17.2568 13.9789 17.7959C13.9789 18.3701 14.307 18.6748 14.9047 18.6748H15.5609C16.1586 18.6748 16.5219 18.3467 16.5219 17.8311C16.5219 17.3975 16.2875 17.1162 15.7953 17.0342V16.4365C15.7953 13.3311 18.0102 14.21 18.0688 10.3779C19.1 10.3076 19.8383 9.63966 19.8383 9.14747C19.8383 8.42091 19.0883 7.67091 18.1977 7.04981C18.0219 6.40528 17.6703 5.91309 17.4125 5.91309C17.1664 5.91309 16.7445 6.38184 16.5453 7.08497C16.0766 7.51856 15.7016 8.08106 15.4203 8.59669L15.1977 8.97169C14.9984 9.34669 14.8344 9.56934 14.5883 9.56934C12.3383 9.56934 11.5063 9.26466 9.42029 9.26466C8.42419 9.26466 7.8031 9.6045 7.41638 10.0381C7.20545 10.2959 7.06482 10.3545 6.70154 10.2139C6.02185 9.95606 5.54138 9.28809 5.54138 8.42091C5.54138 7.27247 6.45545 6.47559 7.75623 6.47559C8.26013 6.47559 8.76404 6.56934 9.36169 6.81544C9.94763 7.04981 10.2289 6.25294 9.68982 6.03028C8.99841 5.74903 8.35388 5.63184 7.75623 5.63184C5.96326 5.63184 4.70935 6.78028 4.70935 8.42091C4.70935 9.62794 5.34216 10.5889 6.33826 10.9639C6.64295 11.0928 6.77185 11.3037 6.77185 11.6201C6.74841 11.9248 6.74841 12.1943 6.74841 12.3936C6.74841 14.2334 5.9281 14.5147 6.17419 15.335L6.8656 17.9248C6.99451 18.417 7.29919 18.6748 7.74451 18.6748ZM18.0336 8.67872C17.8813 8.64356 17.8109 8.50294 17.8461 8.36231C17.8813 8.22169 18.0219 8.13966 18.1742 8.17481C18.3148 8.22169 18.3852 8.37403 18.35 8.51466C18.3148 8.65528 18.1742 8.72559 18.0336 8.67872Z" fill="black" fill-opacity="0.85"/>
</g>
<defs>
<clipPath id="clip0_2207_18095">
<rect width="23.9062" height="23.918" fill="white" transform="translate(0.0335693 0.0419922)"/>
</clipPath>
</defs>
</svg>
