<svg width="24" height="24" viewBox="0 0 24 24" fill="none" xmlns="http://www.w3.org/2000/svg">
<g clip-path="url(#clip0_2207_25883)">
<path d="M11.9972 23.9482C18.5363 23.9482 23.9503 18.5225 23.9503 11.9951C23.9503 5.45605 18.5246 0.0419922 11.9855 0.0419922C5.45813 0.0419922 0.0440674 5.45605 0.0440674 11.9951C0.0440674 18.5225 5.46985 23.9482 11.9972 23.9482Z" fill="black" fill-opacity="0.85"/>
<path d="M7.13391 12.0186C7.13391 8.76074 8.77454 6.59277 11.341 6.26465V5.30371C11.341 4.94043 11.5988 4.70605 11.9503 4.70605C12.2902 4.70605 12.5363 4.94043 12.5363 5.30371V6.25293C14.2589 6.41699 15.63 7.44824 16.1574 8.88965C16.2277 9.08887 16.2746 9.2998 16.2746 9.49902C16.2746 9.94433 15.9816 10.2373 15.5363 10.2373C15.1027 10.2373 14.8918 10.0732 14.7511 9.60449C14.4699 8.65527 13.6261 7.91699 12.5363 7.72949V16.3428C13.6964 16.1904 14.5636 15.4756 14.8332 14.4912C14.9621 14.0693 15.2082 13.8467 15.6183 13.8467C16.0753 13.8467 16.3566 14.1514 16.3566 14.585C16.3566 14.8076 16.3097 15.0068 16.2394 15.2061C15.7238 16.6475 14.3879 17.667 12.5363 17.8076V18.7686C12.5363 19.1318 12.2902 19.3779 11.9503 19.3779C11.6105 19.3779 11.341 19.1318 11.341 18.7686V17.7959C8.76282 17.4795 7.13391 15.3232 7.13391 12.0186ZM8.76282 12.0186C8.76282 14.3623 9.73548 15.9561 11.341 16.3076V7.76465C9.73548 8.10449 8.76282 9.70996 8.76282 12.0186Z" fill="white"/>
</g>
<defs>
<clipPath id="clip0_2207_25883">
<rect width="23.9062" height="23.918" fill="white" transform="translate(0.0440674 0.0419922)"/>
</clipPath>
</defs>
</svg>
