<svg width="22" height="22" viewBox="0 0 22 22" fill="none" xmlns="http://www.w3.org/2000/svg">
<g clip-path="url(#clip0_2207_25384)">
<path d="M3.73853 21.6397H17.9533C20.4143 21.6397 21.633 20.4209 21.633 18.0068V3.69824C21.633 1.28418 20.4143 0.0654297 17.9533 0.0654297H3.73853C1.28931 0.0654297 0.0588379 1.27246 0.0588379 3.69824V18.0068C0.0588379 20.4326 1.28931 21.6397 3.73853 21.6397ZM3.76196 19.7529C2.59009 19.7529 1.94556 19.1318 1.94556 17.9131V3.79199C1.94556 2.57324 2.59009 1.95215 3.76196 1.95215H17.9299C19.09 1.95215 19.7463 2.57324 19.7463 3.79199V17.9131C19.7463 19.1318 19.09 19.7529 17.9299 19.7529H3.76196Z" fill="black" fill-opacity="0.85"/>
<path d="M6.94946 10.835C6.94946 13.2608 8.25025 14.8545 10.2658 15.124V16.0029C10.2658 16.3428 10.5119 16.5772 10.84 16.5772C11.1799 16.5772 11.426 16.3428 11.426 16.0029V15.1358C12.9143 14.96 13.969 14.1162 14.3088 13.0732C14.344 12.9443 14.3791 12.8037 14.3791 12.6631C14.3791 12.2529 14.0861 11.9717 13.676 11.9717C13.3596 11.9717 13.1252 12.1592 12.9963 12.4639C12.7385 13.1318 12.2111 13.6006 11.426 13.7529V7.91699C12.1994 8.06933 12.7268 8.5498 12.9846 9.19433C13.1252 9.53418 13.3596 9.70996 13.6877 9.70996C14.0979 9.70996 14.3674 9.42871 14.3674 9.00683C14.3674 8.86621 14.3322 8.7373 14.2971 8.62011C13.9572 7.57715 12.9026 6.72168 11.426 6.5459V5.67871C11.426 5.33887 11.1799 5.09277 10.84 5.09277C10.5119 5.09277 10.2658 5.33887 10.2658 5.67871V6.55761C8.25025 6.82715 6.94946 8.43261 6.94946 10.835ZM8.43775 10.835C8.43775 9.25293 9.14087 8.22168 10.2658 7.94043V13.7295C9.14087 13.46 8.43775 12.4404 8.43775 10.835Z" fill="black" fill-opacity="0.85"/>
</g>
<defs>
<clipPath id="clip0_2207_25384">
<rect width="21.5742" height="21.5977" fill="white" transform="translate(0.0588379 0.0419922)"/>
</clipPath>
</defs>
</svg>
