<svg width="18" height="26" viewBox="0 0 18 26" fill="none" xmlns="http://www.w3.org/2000/svg">
<g clip-path="url(#clip0_2207_12193)">
<path d="M3.03955 8.7373H14.0318C15.4146 8.7373 16.0708 8.10449 16.0708 6.75683V2.02246C16.0708 0.674804 15.4146 0.0419922 14.0318 0.0419922H3.03955C1.65674 0.0419922 1.00049 0.674804 1.00049 2.02246V6.75683C1.00049 8.10449 1.65674 8.7373 3.03955 8.7373ZM3.6958 6.76855C3.22705 6.76855 2.96924 6.53418 2.96924 6.07715V2.69043C2.96924 2.25683 3.22705 2.01074 3.6958 2.01074H13.3755C13.8442 2.01074 14.1021 2.25683 14.1021 2.69043V6.07715C14.1021 6.53418 13.8442 6.76855 13.3755 6.76855H3.6958ZM3.40283 12.6865H5.64111V7.70605H3.40283V12.6865ZM11.4302 12.6865H13.6685V7.70605H11.4302V12.6865ZM1.99658 17.4678H15.0747C16.3638 17.4678 17.0083 16.8584 17.0083 15.6045V13.8232C17.0083 12.5693 16.3638 11.96 15.0747 11.96H1.99658C0.707519 11.96 0.0629883 12.5693 0.0629883 13.8232V15.6045C0.0629883 16.8584 0.707519 17.4678 1.99658 17.4678ZM2.53565 15.499C2.24268 15.499 2.03174 15.3115 2.03174 15.042V14.3858C2.03174 14.1162 2.24268 13.9287 2.53565 13.9287H14.5357C14.8286 13.9287 15.0396 14.1162 15.0396 14.3858V15.042C15.0396 15.3115 14.8286 15.499 14.5357 15.499H2.53565ZM2.27783 25.4131H2.64111C3.21533 25.4131 3.61377 25.0147 3.61377 24.4404V16.8584H1.30518V24.4404C1.30518 25.0147 1.70361 25.4131 2.27783 25.4131ZM3.0044 20.1982H14.0669V18.4287H3.0044V20.1982ZM14.4302 25.4131H14.7935C15.3677 25.4131 15.7661 25.0147 15.7661 24.4404V16.8584H13.4575V24.4404C13.4575 25.0147 13.856 25.4131 14.4302 25.4131Z" fill="black" fill-opacity="0.85"/>
</g>
<defs>
<clipPath id="clip0_2207_12193">
<rect width="16.9453" height="25.3945" fill="white" transform="translate(0.0629883 0.0419922)"/>
</clipPath>
</defs>
</svg>
