<svg width="24" height="24" viewBox="0 0 24 24" fill="none" xmlns="http://www.w3.org/2000/svg">
<g clip-path="url(#clip0_2207_22583)">
<path d="M12.0295 12.0537C15.3108 12.0537 18.0529 9.33496 18.0529 6.06543C18.0529 2.77246 15.3108 0.053711 12.0295 0.053711C8.73657 0.053711 6.01782 2.77246 6.01782 6.06543C6.01782 9.33496 8.76001 12.0537 12.0295 12.0537ZM12.0295 10.0732C9.7561 10.0732 7.99829 8.32715 7.99829 6.06543C7.99829 3.79199 9.7561 2.03418 12.0295 2.03418C14.3029 2.03418 16.0725 3.79199 16.0725 6.06543C16.0725 8.32715 14.3029 10.0732 12.0295 10.0732ZM12.0412 23.9482C18.5803 23.9482 23.9943 18.5225 23.9943 11.9951C23.9943 5.45605 18.5686 0.0419922 12.0295 0.0419922C5.50219 0.0419922 0.0881348 5.45605 0.0881348 11.9951C0.0881348 18.5225 5.51392 23.9482 12.0412 23.9482ZM12.0412 21.9561C6.51002 21.9561 2.09204 17.5264 2.09204 11.9951C2.09204 6.46387 6.49829 2.03418 12.0295 2.03418C17.5608 2.03418 22.0022 6.46387 22.0022 11.9951C22.0022 17.5264 17.5725 21.9561 12.0412 21.9561Z" fill="black" fill-opacity="0.85"/>
</g>
<defs>
<clipPath id="clip0_2207_22583">
<rect width="23.9062" height="23.918" fill="white" transform="translate(0.0881348 0.0419922)"/>
</clipPath>
</defs>
</svg>
