<svg width="24" height="24" viewBox="0 0 24 24" fill="none" xmlns="http://www.w3.org/2000/svg">
<g clip-path="url(#clip0_2207_21516)">
<path d="M11.9719 23.9615C18.511 23.9615 23.925 18.5474 23.925 12.0083C23.925 5.48096 18.4993 0.0551758 11.9602 0.0551758C5.43286 0.0551758 0.0187988 5.48096 0.0187988 12.0083C0.0187988 18.5474 5.44458 23.9615 11.9719 23.9615Z" fill="black" fill-opacity="0.85"/>
<path d="M5.4563 16.5669V6.84033C5.4563 6.47704 5.77271 6.16064 6.13599 6.16064C6.49927 6.16064 6.80396 6.47704 6.80396 6.84033V8.05907L9.17114 10.4497C9.25318 10.5201 9.28833 10.5201 9.35864 10.4497L11.468 8.28173C11.7493 7.98877 12.0657 7.84814 12.4055 7.84814C12.7571 7.84814 13.0735 8.00048 13.343 8.28173L15.6165 10.6021L16.4719 9.72315C16.7649 9.41846 17.2219 9.58251 17.3391 10.0395L18.218 13.5201C18.3235 13.9068 17.9719 14.2466 17.5735 14.1412L14.1047 13.274C13.6711 13.1568 13.4954 12.7115 13.8 12.4185L14.6555 11.563L12.4993 9.37157C12.4524 9.3247 12.3821 9.31298 12.3118 9.37157L10.1907 11.5513C9.90942 11.8443 9.60474 11.9849 9.26489 11.9849C8.90161 11.9849 8.60864 11.8326 8.32739 11.5513L6.80396 10.0044V16.063C6.80396 16.1451 6.83911 16.1802 6.90942 16.1802H17.925C18.2883 16.1802 18.593 16.4849 18.593 16.8599C18.593 17.2232 18.2883 17.5279 17.925 17.5279H6.40552C5.8313 17.5279 5.4563 17.1529 5.4563 16.5669Z" fill="white"/>
</g>
<defs>
<clipPath id="clip0_2207_21516">
<rect width="23.9062" height="23.918" fill="white" transform="translate(0.0187988 0.043457)"/>
</clipPath>
</defs>
</svg>
