<svg width="26" height="26" viewBox="0 0 26 26" fill="none" xmlns="http://www.w3.org/2000/svg">
<g clip-path="url(#clip0_2207_9183)">
<path d="M7.04492 25.9287C7.50195 25.9287 7.84179 25.6943 8.39257 25.1787L12.6231 21.3115H20.5449C24.0371 21.3115 25.9121 19.3897 25.9121 15.9561V6.97949C25.9121 3.5459 24.0371 1.6123 20.5449 1.6123H5.45117C1.95898 1.6123 0.0839844 3.53418 0.0839844 6.97949V15.9561C0.0839844 19.4014 1.95898 21.3115 5.45117 21.3115H6.00195V24.7217C6.00195 25.4482 6.37695 25.9287 7.04492 25.9287Z" fill="black" fill-opacity="0.85"/>
<path d="M9.03711 17.1162C8.48633 17.1162 8.13477 16.7764 8.13477 16.2842C8.13477 16.0967 8.15821 15.9209 8.26368 15.6514L11.6504 6.53418C11.8848 5.90137 12.3418 5.58496 12.9981 5.58496C13.6543 5.58496 14.1231 5.90137 14.3574 6.53418L17.7442 15.6514C17.8496 15.9209 17.8731 16.0967 17.8731 16.2842C17.8731 16.7764 17.5215 17.1162 16.9824 17.1162C16.5371 17.1162 16.2324 16.917 16.0332 16.3428L15.1543 13.7764H10.8535L9.97461 16.3428C9.7754 16.917 9.47071 17.1162 9.03711 17.1162ZM11.334 12.3115H14.6738L13.0684 7.64746H12.9395L11.334 12.3115Z" fill="white"/>
</g>
<defs>
<clipPath id="clip0_2207_9183">
<rect width="25.8281" height="25.8867" fill="white" transform="translate(0.0839844 0.0419922)"/>
</clipPath>
</defs>
</svg>
