<svg width="24" height="16" viewBox="0 0 24 16" fill="none" xmlns="http://www.w3.org/2000/svg">
<g clip-path="url(#clip0_2207_22587)">
<path d="M5.56495 15.9678C8.23682 15.9678 10.3345 14.6201 11.4712 12.3818H11.5884C12.5845 14.6318 14.647 15.9678 17.4009 15.9678C20.272 15.9678 22.4634 14.7373 23.3892 12.5342C23.4829 12.2998 23.5532 12.0537 23.5532 11.8662C23.5532 11.292 23.1665 10.917 22.5806 10.917C22.229 10.917 21.9712 11.0693 21.7603 11.3858C20.6939 13.249 19.3579 14.0693 17.3189 14.0693C14.3892 14.0693 12.5142 11.9014 12.5142 8.67871V8.52637H22.3814C23.1665 8.52637 23.6353 8.0459 23.6353 7.22558C23.6353 3.00683 21.0571 0.0537109 17.2954 0.0537109C14.7525 0.0537109 12.8657 1.2959 11.8696 3.38183H11.7759C11.1782 1.2959 9.15088 0.0537109 6.49073 0.0537109C3.95948 0.0537109 1.76807 1.2373 0.959473 3.04199C0.771973 3.39355 0.678223 3.75683 0.678223 4.06152C0.678223 4.64746 1.07666 5.03418 1.63917 5.03418C2.07276 5.03418 2.36573 4.8584 2.55323 4.47168C3.3501 2.72558 4.63916 1.97558 6.52588 1.97558C8.81104 1.97558 10.3462 3.42871 10.3462 5.52637V6.81543L5.76416 7.06152C2.09619 7.24902 0.0922852 8.81933 0.0922852 11.4326C0.0922852 14.1748 2.23682 15.9678 5.56495 15.9678ZM5.63526 14.0928C3.61963 14.0928 2.30713 12.9678 2.30713 11.3975C2.30713 9.82715 3.60791 8.91308 5.99854 8.77246L10.3462 8.52637V9.88574C10.3462 12.2061 8.2837 14.0928 5.63526 14.0928ZM12.5142 6.81543C12.69 3.94433 14.5181 1.95215 17.1314 1.95215C19.7095 1.95215 21.3501 3.89746 21.397 6.81543H12.5142Z" fill="black" fill-opacity="0.85"/>
</g>
<defs>
<clipPath id="clip0_2207_22587">
<rect width="23.543" height="15.9258" fill="white" transform="translate(0.0922852 0.0419922)"/>
</clipPath>
</defs>
</svg>
