<svg width="20" height="26" viewBox="0 0 20 26" fill="none" xmlns="http://www.w3.org/2000/svg">
<g clip-path="url(#clip0_2207_1575)">
<path d="M3.67749 25.1553H18.8532C19.3689 25.1553 19.7907 24.7451 19.7907 24.2178C19.7907 23.8076 19.5095 23.4443 19.1345 23.3154C17.6579 22.7295 17.3532 20.8193 18.8064 19.3545C19.2517 18.9092 19.7907 18.335 19.7907 17.1631V3.72168C19.7907 1.28418 18.5837 0.0419922 16.1579 0.0419922H3.71264C1.28686 0.0419922 0.079834 1.27246 0.079834 3.72168V21.5342C0.079834 23.9482 1.29858 25.1553 3.67749 25.1553ZM3.78295 23.2686C2.59936 23.2686 1.96655 22.6358 1.96655 21.5225C1.96655 20.4678 2.71655 19.7881 3.88842 19.7881H15.9118C16.0642 19.7881 16.2048 19.7764 16.322 19.7529C15.7712 20.9717 15.865 22.2608 16.486 23.2686H3.78295ZM3.43139 18.0068C3.06811 18.0068 2.76342 17.7022 2.76342 17.3272V2.52637C2.76342 2.15137 3.06811 1.8584 3.43139 1.8584C3.79467 1.8584 4.11108 2.15137 4.11108 2.52637V17.3272C4.11108 17.7022 3.79467 18.0068 3.43139 18.0068ZM8.00171 14.4912C7.53295 14.4912 7.22827 14.1982 7.22827 13.7647C7.22827 13.6123 7.25171 13.46 7.33374 13.2256L10.2634 5.33887C10.4743 4.7998 10.861 4.51855 11.4236 4.51855C11.9978 4.51855 12.3962 4.7998 12.6071 5.33887L15.5368 13.2256C15.6306 13.46 15.654 13.6123 15.654 13.7764C15.654 14.1982 15.3376 14.4912 14.8689 14.4912C14.4939 14.4912 14.2243 14.3154 14.0603 13.8232L13.2986 11.6084H9.57202L8.8103 13.8232C8.64624 14.3154 8.37671 14.4912 8.00171 14.4912ZM9.99389 10.3428H12.8767L11.4939 6.31152H11.3767L9.99389 10.3428Z" fill="black" fill-opacity="0.85"/>
</g>
<defs>
<clipPath id="clip0_2207_1575">
<rect width="19.7109" height="25.1133" fill="white" transform="translate(0.079834 0.0419922)"/>
</clipPath>
</defs>
</svg>
