<svg width="26" height="22" viewBox="0 0 26 22" fill="none" xmlns="http://www.w3.org/2000/svg">
<g clip-path="url(#clip0_2207_21506)">
<path d="M1.74903 3.68799L0.319336 5.10596L5.55762 10.4146C6.09668 10.9537 6.58887 11.188 7.13965 11.188C7.69043 11.188 8.20606 10.9419 8.72168 10.4146L13.0341 5.99658C13.1396 5.89112 13.2568 5.83252 13.3505 5.83252C13.456 5.83252 13.5732 5.89112 13.6787 5.99658L18.2958 10.6724L16.3623 12.606C15.9404 13.0279 16.1982 13.5669 16.7958 13.7193L23.6513 15.4537C24.1787 15.5943 24.6474 15.149 24.5068 14.6099L22.7724 7.74268C22.6201 7.14502 22.0693 6.88721 21.6474 7.30908L19.7255 9.24268L14.9443 4.43799C14.4169 3.91065 13.913 3.66455 13.3505 3.66455C12.7998 3.66455 12.2724 3.91065 11.7685 4.43799L7.45606 8.85596C7.35059 8.96143 7.24512 9.02002 7.13965 9.02002C7.03418 9.02002 6.92871 8.96143 6.82324 8.85596L1.74903 3.68799Z" fill="black" fill-opacity="0.85"/>
<path d="M0.0146484 20.9263C0.0146484 21.4888 0.389648 21.8521 0.952148 21.8521H24.2607C24.7763 21.8521 25.2099 21.4419 25.2099 20.9146C25.2099 20.399 24.7763 19.9771 24.2607 19.9771H2.22949C1.9834 19.9771 1.90137 19.8951 1.90137 19.649V1.12158C1.90137 0.617676 1.47949 0.184082 0.963867 0.184082C0.436523 0.184082 0.0146484 0.617676 0.0146484 1.12158V20.9263Z" fill="black" fill-opacity="0.85"/>
</g>
<defs>
<clipPath id="clip0_2207_21506">
<rect width="25.1953" height="21.8086" fill="white" transform="translate(0.0146484 0.043457)"/>
</clipPath>
</defs>
</svg>
