<svg width="27" height="24" viewBox="0 0 27 24" fill="none" xmlns="http://www.w3.org/2000/svg">
<g clip-path="url(#clip0_2207_22140)">
<path d="M13.6454 19.5787H25.411C25.9032 19.5787 26.3133 19.1919 26.3133 18.6997C26.3133 18.1958 25.9032 17.8091 25.411 17.8091H13.6454C13.1532 17.8091 12.7547 18.1958 12.7547 18.6997C12.7547 19.1919 13.1532 19.5787 13.6454 19.5787Z" fill="black" fill-opacity="0.85"/>
<path d="M5.0907 23.7505C7.84461 23.7505 10.1415 21.4537 10.1415 18.6997C10.1415 15.9224 7.84461 13.6373 5.0907 13.6373C2.32508 13.6373 0.039917 15.9341 0.039917 18.6997C0.039917 21.4537 2.3368 23.7505 5.0907 23.7505ZM5.0907 22.0396C3.2743 22.0396 1.75086 20.5044 1.75086 18.6997C1.75086 16.8833 3.28601 15.3482 5.0907 15.3482C6.89539 15.3482 8.43054 16.8833 8.43054 18.6997C8.43054 20.5044 6.89539 22.0396 5.0907 22.0396Z" fill="black" fill-opacity="0.85"/>
<path d="M13.6454 6.03174H25.411C25.9032 6.03174 26.3133 5.64502 26.3133 5.14112C26.3133 4.64893 25.9032 4.26221 25.411 4.26221H13.6454C13.1532 4.26221 12.7547 4.64893 12.7547 5.14112C12.7547 5.64502 13.1532 6.03174 13.6454 6.03174Z" fill="black" fill-opacity="0.85"/>
<path d="M5.0907 10.1802C7.84461 10.1802 10.1415 7.89502 10.1415 5.14112C10.1415 2.37549 7.84461 0.0786133 5.0907 0.0786133C2.32508 0.0786133 0.039917 2.37549 0.039917 5.14112C0.039917 7.89502 2.3368 10.1802 5.0907 10.1802ZM4.49304 7.84815C4.24695 7.84815 4.08289 7.71924 3.90711 7.52002L2.59461 5.93799C2.47742 5.80908 2.44226 5.66846 2.44226 5.48096C2.44226 5.14112 2.70008 4.87158 3.01648 4.87158C3.23914 4.87158 3.4032 4.96534 3.55554 5.16455L4.46961 6.32471L6.55554 2.97315C6.69617 2.76221 6.87195 2.64502 7.08289 2.64502C7.41101 2.64502 7.69226 2.90284 7.69226 3.1958C7.69226 3.35987 7.64539 3.50049 7.53992 3.67627L5.0907 7.52002C4.9618 7.73096 4.75086 7.84815 4.49304 7.84815Z" fill="black" fill-opacity="0.85"/>
</g>
<defs>
<clipPath id="clip0_2207_22140">
<rect width="26.2734" height="23.707" fill="white" transform="translate(0.039917 0.043457)"/>
</clipPath>
</defs>
</svg>
