<svg width="20" height="26" viewBox="0 0 20 26" fill="none" xmlns="http://www.w3.org/2000/svg">
<g clip-path="url(#clip0_2207_23199)">
<path d="M0.090332 21.5005C0.090332 23.9497 1.29736 25.1685 3.72314 25.1685H16.1684C18.5942 25.1685 19.8012 23.9497 19.8012 21.5005V3.72315C19.8012 1.28565 18.5942 0.043457 16.1684 0.043457H3.72314C1.29736 0.043457 0.090332 1.28565 0.090332 3.72315V21.5005Z" fill="black" fill-opacity="0.85"/>
<path d="M8.64502 18.3365C8.23486 18.3365 7.91845 18.1724 7.60205 17.7623L4.66064 14.1646C4.48486 13.9302 4.39111 13.6607 4.39111 13.4029C4.39111 12.8638 4.78955 12.4302 5.32861 12.4302C5.65674 12.4302 5.92627 12.5474 6.20752 12.9341L8.58642 15.9927L13.602 7.96534C13.813 7.60205 14.1176 7.42627 14.4341 7.42627C14.9497 7.42627 15.4301 7.77784 15.4301 8.3169C15.4301 8.57471 15.2778 8.85596 15.1255 9.09034L9.61767 17.7623C9.3833 18.149 9.04345 18.3365 8.64502 18.3365Z" fill="white"/>
</g>
<defs>
<clipPath id="clip0_2207_23199">
<rect width="19.7109" height="25.1367" fill="white" transform="translate(0.090332 0.043457)"/>
</clipPath>
</defs>
</svg>
