<svg width="24" height="24" viewBox="0 0 24 24" fill="none" xmlns="http://www.w3.org/2000/svg">
<g clip-path="url(#clip0_2207_23134)">
<path d="M12.0183 23.9497C18.5574 23.9497 23.9714 18.524 23.9714 11.9966C23.9714 5.45752 18.5457 0.043457 12.0066 0.043457C5.47925 0.043457 0.0651855 5.45752 0.0651855 11.9966C0.0651855 18.524 5.49097 23.9497 12.0183 23.9497Z" fill="black" fill-opacity="0.85"/>
<path d="M10.7058 17.7271C10.3074 17.7271 9.97924 17.563 9.67456 17.1529L6.73315 13.5435C6.55737 13.3091 6.4519 13.0513 6.4519 12.7818C6.4519 12.2544 6.86206 11.8208 7.3894 11.8208C7.72924 11.8208 7.98706 11.9263 8.28002 12.313L10.659 15.3833L15.6629 7.34424C15.8855 6.99268 16.1902 6.80518 16.4949 6.80518C17.0105 6.80518 17.491 7.15674 17.491 7.70752C17.491 7.96534 17.3386 8.23487 17.198 8.48096L11.6902 17.1529C11.4441 17.5396 11.1043 17.7271 10.7058 17.7271Z" fill="white"/>
</g>
<defs>
<clipPath id="clip0_2207_23134">
<rect width="23.9062" height="23.918" fill="white" transform="translate(0.0651855 0.043457)"/>
</clipPath>
</defs>
</svg>
