<svg width="22" height="22" viewBox="0 0 22 22" fill="none" xmlns="http://www.w3.org/2000/svg">
<g clip-path="url(#clip0_2207_23174)">
<path d="M3.68384 21.6426H17.8987C20.3597 21.6426 21.5784 20.4238 21.5784 18.0097V3.70117C21.5784 1.28711 20.3597 0.0683594 17.8987 0.0683594H3.68384C1.23462 0.0683594 0.00415039 1.27539 0.00415039 3.70117V18.0097C0.00415039 20.4355 1.23462 21.6426 3.68384 21.6426ZM3.70727 19.7558C2.5354 19.7558 1.89087 19.1347 1.89087 17.916V3.79492C1.89087 2.57617 2.5354 1.95508 3.70727 1.95508H17.8752C19.0354 1.95508 19.6917 2.57617 19.6917 3.79492V17.916C19.6917 19.1347 19.0354 19.7558 17.8752 19.7558H3.70727Z" fill="black" fill-opacity="0.85"/>
<path d="M9.51978 16.4043C9.9065 16.4043 10.2347 16.2168 10.469 15.8535L15.8245 7.42774C15.9651 7.19337 16.1058 6.93555 16.1058 6.67774C16.1058 6.1504 15.637 5.81055 15.1565 5.81055C14.8519 5.81055 14.5589 5.99805 14.3362 6.3379L9.47291 14.1426L7.16432 11.1543C6.88307 10.7793 6.62525 10.6855 6.30885 10.6855C5.79322 10.6855 5.39478 11.0957 5.39478 11.6113C5.39478 11.8691 5.50025 12.1152 5.66432 12.3379L8.52369 15.8535C8.81666 16.2402 9.13307 16.4043 9.51978 16.4043Z" fill="black" fill-opacity="0.85"/>
</g>
<defs>
<clipPath id="clip0_2207_23174">
<rect width="21.5742" height="21.5977" fill="white" transform="translate(0.00415039 0.0449219)"/>
</clipPath>
</defs>
</svg>
