<svg width="27" height="24" viewBox="0 0 27 24" fill="none" xmlns="http://www.w3.org/2000/svg">
<g clip-path="url(#clip0_2207_22133)">
<path d="M13.6496 19.5787H25.4152C25.9074 19.5787 26.3175 19.1919 26.3175 18.6997C26.3175 18.1958 25.9074 17.8091 25.4152 17.8091H13.6496C13.1574 17.8091 12.7589 18.1958 12.7589 18.6997C12.7589 19.1919 13.1574 19.5787 13.6496 19.5787Z" fill="black" fill-opacity="0.85"/>
<path d="M5.09485 23.7505C7.84876 23.7505 10.1457 21.4537 10.1457 18.6997C10.1457 15.9224 7.84876 13.6373 5.09485 13.6373C2.32923 13.6373 0.0440674 15.9341 0.0440674 18.6997C0.0440674 21.4537 2.34095 23.7505 5.09485 23.7505ZM5.09485 22.0396C3.27845 22.0396 1.75501 20.5044 1.75501 18.6997C1.75501 16.8833 3.29016 15.3482 5.09485 15.3482C6.89954 15.3482 8.43469 16.8833 8.43469 18.6997C8.43469 20.5044 6.89954 22.0396 5.09485 22.0396Z" fill="black" fill-opacity="0.85"/>
<path d="M13.6496 6.03174H25.4152C25.9074 6.03174 26.3175 5.64502 26.3175 5.14112C26.3175 4.64893 25.9074 4.26221 25.4152 4.26221H13.6496C13.1574 4.26221 12.7589 4.64893 12.7589 5.14112C12.7589 5.64502 13.1574 6.03174 13.6496 6.03174Z" fill="black" fill-opacity="0.85"/>
<path d="M5.09485 10.1919C7.84876 10.1919 10.1457 7.8833 10.1457 5.1294C10.1457 2.36377 7.84876 0.0786133 5.09485 0.0786133C2.32923 0.0786133 0.0440674 2.36377 0.0440674 5.1294C0.0440674 7.8833 2.34095 10.1919 5.09485 10.1919ZM5.09485 8.48096C3.27845 8.48096 1.75501 6.9458 1.75501 5.1294C1.75501 3.31299 3.29016 1.77784 5.09485 1.77784C6.89954 1.77784 8.43469 3.32471 8.43469 5.1294C8.43469 6.9458 6.89954 8.48096 5.09485 8.48096Z" fill="black" fill-opacity="0.85"/>
</g>
<defs>
<clipPath id="clip0_2207_22133">
<rect width="26.2734" height="23.707" fill="white" transform="translate(0.0440674 0.043457)"/>
</clipPath>
</defs>
</svg>
