<svg width="26" height="26" viewBox="0 0 26 26" fill="none" xmlns="http://www.w3.org/2000/svg">
<g id="checkmark.bubble.fill" clip-path="url(#clip0_2201_419)">
<g id="Group">
<path id="Vector" d="M6.96094 25.8867C7.41797 25.8867 7.75781 25.6523 8.30859 25.1367L12.5391 21.2695H20.4609C23.9531 21.2695 25.8281 19.3477 25.8281 15.9141V6.9375C25.8281 3.50391 23.9531 1.57031 20.4609 1.57031H5.36719C1.875 1.57031 0 3.49219 0 6.9375V15.9141C0 19.3594 1.875 21.2695 5.36719 21.2695H5.91797V24.6797C5.91797 25.4062 6.29297 25.8867 6.96094 25.8867Z" fill="black" fill-opacity="0.85"/>
<path id="Vector_2" d="M11.6133 17.1445C11.2031 17.1445 10.8867 16.9805 10.5703 16.5703L7.62891 12.9609C7.45312 12.7266 7.35938 12.4688 7.35938 12.1992C7.35938 11.6719 7.7578 11.2383 8.29688 11.2383C8.62499 11.2383 8.89453 11.3438 9.17578 11.7305L11.5547 14.8008L16.5703 6.76172C16.7812 6.41016 17.0859 6.22266 17.4023 6.22266C17.918 6.22266 18.3984 6.57422 18.3984 7.125C18.3984 7.38281 18.2461 7.66406 18.0938 7.89844L12.5859 16.5703C12.3516 16.957 12.0117 17.1445 11.6133 17.1445Z" fill="white"/>
</g>
</g>
<defs>
<clipPath id="clip0_2201_419">
<rect width="25.8281" height="25.8867" fill="white"/>
</clipPath>
</defs>
</svg>
