<svg width="30" height="23" viewBox="0 0 30 23" fill="none" xmlns="http://www.w3.org/2000/svg">
<g clip-path="url(#clip0_2207_8714)">
<path d="M23.2338 20.4107C26.7729 20.4107 29.5385 17.8208 29.5385 14.5982C29.5385 12.1373 28.1206 10.0044 25.8354 9.04346C25.8588 3.8169 22.0971 0.043457 17.3042 0.043457C14.1284 0.043457 11.8667 1.74268 10.4604 3.79346C7.57764 2.94971 4.43702 5.14112 4.37842 8.42237C1.72998 8.84424 0.0776367 11.2115 0.0776367 14.0708C0.0776367 17.5162 3.08936 20.4107 7.09717 20.4107H23.2338Z" fill="black" fill-opacity="0.85"/>
<path d="M13.9761 15.8052C13.5894 15.8052 13.273 15.6412 12.9918 15.2779L10.3668 11.9732C10.191 11.7388 10.0972 11.5044 10.0972 11.2583C10.0972 10.7076 10.5191 10.2857 11.0465 10.2857C11.398 10.2857 11.691 10.4497 11.9136 10.7544L13.9293 13.3912L17.9371 6.6997C18.1246 6.37157 18.441 6.17236 18.7691 6.17236C19.3199 6.17236 19.7652 6.55907 19.7652 7.0747C19.7652 7.34423 19.6129 7.61376 19.4957 7.80126L14.9136 15.2662C14.691 15.6177 14.3629 15.8052 13.9761 15.8052Z" fill="white"/>
</g>
<defs>
<clipPath id="clip0_2207_8714">
<rect width="29.4609" height="22.2773" fill="white" transform="translate(0.0776367 0.043457)"/>
</clipPath>
</defs>
</svg>
