<svg width="12" height="21" viewBox="0 0 12 21" fill="none" xmlns="http://www.w3.org/2000/svg">
<g clip-path="url(#clip0_2207_23248)">
<path d="M0.00830078 10.2168C0.00830078 10.5097 0.11377 10.7676 0.336426 10.9902L9.62939 20.0722C9.82861 20.2832 10.0864 20.3887 10.3911 20.3887C11.0005 20.3887 11.4692 19.9316 11.4692 19.3222C11.4692 19.0176 11.3403 18.7597 11.1528 18.5605L2.62158 10.2168L11.1528 1.87304C11.3403 1.67383 11.4692 1.4043 11.4692 1.11133C11.4692 0.501953 11.0005 0.0449219 10.3911 0.0449219C10.0864 0.0449219 9.82861 0.150391 9.62939 0.34961L0.336426 9.44336C0.11377 9.6543 0.00830078 9.92383 0.00830078 10.2168Z" fill="black" fill-opacity="0.85"/>
</g>
<defs>
<clipPath id="clip0_2207_23248">
<rect width="11.4609" height="20.3555" fill="white" transform="translate(0.00830078 0.0449219)"/>
</clipPath>
</defs>
</svg>
