<svg width="12" height="21" viewBox="0 0 12 21" fill="none" xmlns="http://www.w3.org/2000/svg">
<g clip-path="url(#clip0_2207_23224)">
<path d="M0.0566406 10.2168C0.0566406 10.5097 0.16211 10.7676 0.384766 10.9902L9.67773 20.0722C9.87695 20.2832 10.1347 20.3887 10.4394 20.3887C11.0488 20.3887 11.5175 19.9316 11.5175 19.3222C11.5175 19.0176 11.3886 18.7597 11.2011 18.5605L2.66992 10.2168L11.2011 1.87304C11.3886 1.67383 11.5175 1.4043 11.5175 1.11133C11.5175 0.501953 11.0488 0.0449219 10.4394 0.0449219C10.1347 0.0449219 9.87695 0.150391 9.67773 0.34961L0.384766 9.44336C0.16211 9.6543 0.0566406 9.92383 0.0566406 10.2168Z" fill="black" fill-opacity="0.85"/>
</g>
<defs>
<clipPath id="clip0_2207_23224">
<rect width="11.4609" height="20.3555" fill="white" transform="translate(0.0566406 0.0449219)"/>
</clipPath>
</defs>
</svg>
