<svg width="22" height="22" viewBox="0 0 22 22" fill="none" xmlns="http://www.w3.org/2000/svg">
<g clip-path="url(#clip0_2207_23262)">
<path d="M3.69654 21.6426H17.9113C20.3723 21.6426 21.591 20.4238 21.591 18.0097V3.70117C21.591 1.28711 20.3723 0.0683594 17.9113 0.0683594H3.69654C1.24732 0.0683594 0.0168457 1.27539 0.0168457 3.70117V18.0097C0.0168457 20.4355 1.24732 21.6426 3.69654 21.6426ZM3.71997 19.7558C2.5481 19.7558 1.90357 19.1347 1.90357 17.916V3.79492C1.90357 2.57617 2.5481 1.95508 3.71997 1.95508H17.8879C19.048 1.95508 19.7043 2.57617 19.7043 3.79492V17.916C19.7043 19.1347 19.048 19.7558 17.8879 19.7558H3.71997Z" fill="black" fill-opacity="0.85"/>
<path d="M13.1301 16.6387C13.4934 16.2754 13.4816 15.7129 13.1418 15.3847L8.32544 10.8379L13.1418 6.31446C13.4934 5.98634 13.4816 5.4004 13.1184 5.06055C12.7902 4.74415 12.2512 4.75587 11.8879 5.09571L7.01294 9.70118C6.34497 10.3105 6.34497 11.3887 7.01294 11.998L11.8879 16.6035C12.216 16.9082 12.8254 16.9316 13.1301 16.6387Z" fill="black" fill-opacity="0.85"/>
</g>
<defs>
<clipPath id="clip0_2207_23262">
<rect width="21.5742" height="21.5977" fill="white" transform="translate(0.0168457 0.0449219)"/>
</clipPath>
</defs>
</svg>
