<svg width="6" height="22" viewBox="0 0 6 22" fill="none" xmlns="http://www.w3.org/2000/svg">
<g clip-path="url(#clip0_2207_23400)">
<path d="M3.63453 20.1894C3.81031 20.6465 4.20874 20.9394 4.63062 20.9394C5.32203 20.9394 5.84937 20.4355 5.84937 19.7441C5.84937 19.3926 5.65015 18.9355 5.53296 18.6308L2.00562 9.6543V11.3183L5.53296 2.3418C5.65015 2.03711 5.84937 1.56836 5.84937 1.22851C5.84937 0.548828 5.32203 0.0449219 4.63062 0.0449219C4.20874 0.0449219 3.81031 0.326172 3.63453 0.783203L0.493896 8.77539C0.282958 9.31445 0.0251465 9.9707 0.0251465 10.4863C0.0251465 11.0019 0.282958 11.6582 0.493896 12.1972L3.63453 20.1894Z" fill="black" fill-opacity="0.85"/>
</g>
<defs>
<clipPath id="clip0_2207_23400">
<rect width="5.82422" height="20.9648" fill="white" transform="translate(0.0251465 0.0449219)"/>
</clipPath>
</defs>
</svg>
