<svg width="24" height="24" viewBox="0 0 24 24" fill="none" xmlns="http://www.w3.org/2000/svg">
<g clip-path="url(#clip0_2207_23281)">
<path d="M12.0329 23.9511C18.572 23.9511 23.986 18.5254 23.986 11.998C23.986 5.45898 18.5603 0.0449219 12.0212 0.0449219C5.49389 0.0449219 0.079834 5.45898 0.079834 11.998C0.079834 18.5254 5.50561 23.9511 12.0329 23.9511Z" fill="black" fill-opacity="0.85"/>
<path d="M9.25568 17.9863C8.8924 17.6113 8.8924 17.0254 9.25568 16.6855L14.2244 12.0097L9.25568 7.3457C8.88068 6.99414 8.8924 6.39648 9.2674 6.04492C9.61896 5.70508 10.1815 5.74023 10.5565 6.0918L15.5838 10.8144C16.2752 11.459 16.2635 12.5722 15.5838 13.2051L10.5565 17.9394C10.2166 18.2676 9.58381 18.291 9.25568 17.9863Z" fill="white"/>
</g>
<defs>
<clipPath id="clip0_2207_23281">
<rect width="23.9062" height="23.918" fill="white" transform="translate(0.079834 0.0449219)"/>
</clipPath>
</defs>
</svg>
