<svg width="22" height="21" viewBox="0 0 22 21" fill="none" xmlns="http://www.w3.org/2000/svg">
<g clip-path="url(#clip0_2207_23320)">
<path d="M20.1566 20.084C20.3558 20.2832 20.6253 20.4004 20.9183 20.4004C21.5277 20.4004 21.9964 19.9433 21.9964 19.334C21.9964 19.041 21.8675 18.7715 21.68 18.5722L12.5159 9.5957V10.8496L21.68 1.88476C21.8675 1.68554 21.9964 1.4043 21.9964 1.12304C21.9964 0.513672 21.5277 0.0449219 20.9183 0.0449219C20.6253 0.0449219 20.3675 0.16211 20.1566 0.361328L10.8753 9.44336C10.6527 9.63086 10.5237 9.92383 10.5237 10.2285C10.5237 10.5215 10.6527 10.791 10.8753 11.0137L20.1566 20.084Z" fill="black" fill-opacity="0.85"/>
<path d="M9.69165 20.084C9.89087 20.2832 10.1486 20.4004 10.4533 20.4004C11.0627 20.4004 11.5197 19.9433 11.5197 19.334C11.5197 19.041 11.4026 18.7715 11.215 18.5722L2.03931 9.5957V10.8496L11.215 1.88476C11.4026 1.68554 11.5197 1.4043 11.5197 1.12304C11.5197 0.513672 11.0627 0.0449219 10.4533 0.0449219C10.1486 0.0449219 9.89087 0.16211 9.69165 0.361328L0.4104 9.44336C0.187744 9.63086 0.0588379 9.92383 0.0588379 10.2285C0.0588379 10.5215 0.176026 10.791 0.398682 11.0137L9.69165 20.084Z" fill="black" fill-opacity="0.85"/>
</g>
<defs>
<clipPath id="clip0_2207_23320">
<rect width="21.9375" height="20.3789" fill="white" transform="translate(0.0588379 0.0449219)"/>
</clipPath>
</defs>
</svg>
