<svg width="33" height="23" viewBox="0 0 33 23" fill="none" xmlns="http://www.w3.org/2000/svg">
<g clip-path="url(#clip0_2207_22997)">
<path d="M13.284 22.1993C13.905 22.3633 14.4675 22.0235 14.655 21.4024L20.491 1.39851C20.655 0.836009 20.3855 0.273509 19.7644 0.109447C19.155 -0.0546156 18.6277 0.179759 18.4168 0.906322L12.616 20.8047C12.4285 21.4375 12.6277 22.0235 13.284 22.1993Z" fill="black" fill-opacity="0.85"/>
<path d="M0.0651855 11.1368C0.0651855 11.4649 0.205811 11.7813 0.475342 12.0157L8.30347 19.0821C8.79566 19.5274 9.45191 19.5274 9.86207 19.0704C10.2722 18.6016 10.2019 17.9454 9.73316 17.5235L2.69019 11.1368L9.73316 4.75008C10.2019 4.32821 10.2722 3.66024 9.86207 3.20321C9.45191 2.74617 8.79566 2.74617 8.30347 3.19149L0.475342 10.2461C0.205811 10.4922 0.0651855 10.8086 0.0651855 11.1368ZM32.9129 11.1368C32.9129 10.8086 32.784 10.4922 32.5144 10.2461L24.6863 3.19149C24.1824 2.74617 23.5379 2.74617 23.1277 3.20321C22.7175 3.66024 22.7761 4.32821 23.2449 4.75008L30.2996 11.1368L23.2449 17.5235C22.7761 17.9454 22.7175 18.6016 23.1277 19.0704C23.5379 19.5274 24.1824 19.5274 24.6863 19.0821L32.5144 12.0157C32.784 11.7813 32.9129 11.4649 32.9129 11.1368Z" fill="black" fill-opacity="0.85"/>
</g>
<defs>
<clipPath id="clip0_2207_22997">
<rect width="32.8477" height="22.1954" fill="white" transform="translate(0.0651855 0.0449219)"/>
</clipPath>
</defs>
</svg>
