<svg width="6" height="22" viewBox="0 0 6 22" fill="none" xmlns="http://www.w3.org/2000/svg">
<g clip-path="url(#clip0_2207_23404)">
<path d="M2.24218 20.1894L5.38281 12.1972C5.59375 11.6582 5.85156 11.0019 5.85156 10.4863C5.85156 9.9707 5.59375 9.31445 5.38281 8.77539L2.24218 0.783203C2.0664 0.326172 1.66796 0.0449219 1.23437 0.0449219C0.542969 0.0449219 0.0273438 0.548828 0.0273438 1.22851C0.0273438 1.56836 0.226563 2.03711 0.332032 2.3418L3.85937 11.3183V9.6543L0.332032 18.6308C0.226563 18.9355 0.0273438 19.3926 0.0273438 19.7441C0.0273438 20.4355 0.542969 20.9394 1.23437 20.9394C1.66796 20.9394 2.0664 20.6465 2.24218 20.1894Z" fill="black" fill-opacity="0.85"/>
</g>
<defs>
<clipPath id="clip0_2207_23404">
<rect width="5.82422" height="20.9648" fill="white" transform="translate(0.0273438 0.0449219)"/>
</clipPath>
</defs>
</svg>
