<svg width="14" height="21" viewBox="0 0 14 21" fill="none" xmlns="http://www.w3.org/2000/svg">
<g clip-path="url(#clip0_2207_3317)">
<path d="M0.0861816 19.334C0.0861816 19.9433 0.554932 20.4121 1.1643 20.4121C1.45727 20.4121 1.71509 20.3066 1.92602 20.084L11.2073 11.0137C11.43 10.791 11.5471 10.5332 11.5471 10.2285C11.5471 9.92383 11.43 9.6543 11.219 9.44336L1.92602 0.361328C1.70337 0.16211 1.45727 0.0449219 1.15259 0.0449219C0.554932 0.0449219 0.0861816 0.501953 0.0861816 1.12304C0.0861816 1.41601 0.191651 1.68554 0.402588 1.88476L9.67212 10.9433V9.50195L0.402588 18.5722C0.191651 18.7832 0.0861816 19.041 0.0861816 19.334ZM11.5237 19.3926C11.5237 19.9902 11.9573 20.4121 12.5667 20.4121C13.176 20.4121 13.6214 19.9902 13.6214 19.3926V1.08789C13.6214 0.478516 13.176 0.0449219 12.5667 0.0449219C11.9573 0.0449219 11.5237 0.478516 11.5237 1.08789V19.3926Z" fill="black" fill-opacity="0.85"/>
</g>
<defs>
<clipPath id="clip0_2207_3317">
<rect width="13.5352" height="20.3789" fill="white" transform="translate(0.0861816 0.0449219)"/>
</clipPath>
</defs>
</svg>
