<svg width="22" height="22" viewBox="0 0 22 22" fill="none" xmlns="http://www.w3.org/2000/svg">
<g clip-path="url(#clip0_2207_23286)">
<path d="M3.76172 21.6426H17.9765C20.4375 21.6426 21.6562 20.4238 21.6562 18.0097V3.70117C21.6562 1.28711 20.4375 0.0683594 17.9765 0.0683594H3.76172C1.3125 0.0683594 0.0820312 1.27539 0.0820312 3.70117V18.0097C0.0820312 20.4355 1.3125 21.6426 3.76172 21.6426ZM3.78515 19.7558C2.61328 19.7558 1.96875 19.1347 1.96875 17.916V3.79492C1.96875 2.57617 2.61328 1.95508 3.78515 1.95508H17.9531C19.1132 1.95508 19.7695 2.57617 19.7695 3.79492V17.916C19.7695 19.1347 19.1132 19.7558 17.9531 19.7558H3.78515Z" fill="black" fill-opacity="0.85"/>
<path d="M8.21484 16.6387C8.51953 16.9316 9.12891 16.9082 9.45703 16.6035L14.332 11.998C15 11.3887 15 10.3105 14.332 9.70118L9.45703 5.09571C9.09375 4.75587 8.55469 4.74415 8.22656 5.06055C7.86328 5.4004 7.85156 5.98634 8.20312 6.31446L13.0195 10.8379L8.20312 15.3847C7.86328 15.7129 7.85156 16.2754 8.21484 16.6387Z" fill="black" fill-opacity="0.85"/>
</g>
<defs>
<clipPath id="clip0_2207_23286">
<rect width="21.5742" height="21.5977" fill="white" transform="translate(0.0820312 0.0449219)"/>
</clipPath>
</defs>
</svg>
