<svg width="24" height="24" viewBox="0 0 24 24" fill="none" xmlns="http://www.w3.org/2000/svg">
<g clip-path="url(#clip0_2207_23305)">
<path d="M12.0014 23.9511C18.5405 23.9511 23.9545 18.5254 23.9545 11.998C23.9545 5.45898 18.5288 0.0449219 11.9897 0.0449219C5.4624 0.0449219 0.0483398 5.45898 0.0483398 11.998C0.0483398 18.5254 5.47412 23.9511 12.0014 23.9511Z" fill="black" fill-opacity="0.85"/>
<path d="M9.22407 17.9863C8.86079 17.6113 8.86079 17.0254 9.22407 16.6855L14.1928 12.0097L9.22407 7.3457C8.84907 6.99414 8.86079 6.39648 9.23579 6.04492C9.58735 5.70508 10.1499 5.74023 10.5249 6.0918L15.5522 10.8144C16.2436 11.459 16.2319 12.5722 15.5522 13.2051L10.5249 17.9394C10.185 18.2676 9.5522 18.291 9.22407 17.9863Z" fill="white"/>
</g>
<defs>
<clipPath id="clip0_2207_23305">
<rect width="23.9062" height="23.918" fill="white" transform="translate(0.0483398 0.0449219)"/>
</clipPath>
</defs>
</svg>
