<svg width="22" height="22" viewBox="0 0 22 22" fill="none" xmlns="http://www.w3.org/2000/svg">
<g clip-path="url(#clip0_2207_23267)">
<path d="M3.69849 21.6426H17.9133C20.3743 21.6426 21.593 20.4238 21.593 18.0097V3.70117C21.593 1.28711 20.3743 0.0683594 17.9133 0.0683594H3.69849C1.24927 0.0683594 0.0187988 1.27539 0.0187988 3.70117V18.0097C0.0187988 20.4355 1.24927 21.6426 3.69849 21.6426Z" fill="black" fill-opacity="0.85"/>
<path d="M13.1321 16.6387C12.8274 16.9316 12.218 16.9082 11.8899 16.6035L7.01489 11.998C6.34692 11.3887 6.34692 10.3105 7.01489 9.70118L11.8899 5.09571C12.2532 4.75587 12.7922 4.74415 13.1204 5.06055C13.4836 5.4004 13.4954 5.98634 13.1438 6.31446L8.32739 10.8379L13.1438 15.3847C13.4836 15.7129 13.4954 16.2754 13.1321 16.6387Z" fill="white"/>
</g>
<defs>
<clipPath id="clip0_2207_23267">
<rect width="21.5742" height="21.5977" fill="white" transform="translate(0.0187988 0.0449219)"/>
</clipPath>
</defs>
</svg>
