<svg width="24" height="24" viewBox="0 0 24 24" fill="none" xmlns="http://www.w3.org/2000/svg">
<g clip-path="url(#clip0_2207_26286)">
<path d="M11.9553 23.9523C18.4944 23.9523 23.9084 18.5266 23.9084 11.9992C23.9084 5.4602 18.4827 0.0461426 11.9436 0.0461426C5.41626 0.0461426 0.00219727 5.4602 0.00219727 11.9992C0.00219727 18.5266 5.42798 23.9523 11.9553 23.9523ZM11.9553 21.9602C6.42408 21.9602 2.00611 17.5305 2.00611 11.9992C2.00611 6.46802 6.41236 2.03833 11.9436 2.03833C17.4749 2.03833 21.9163 6.46802 21.9163 11.9992C21.9163 17.5305 17.4866 21.9602 11.9553 21.9602Z" fill="black" fill-opacity="0.85"/>
<path d="M11.9436 17.9289C12.3889 17.9289 12.6936 17.6242 12.6936 17.1555V15.4563H14.8616C15.2014 15.4563 15.4358 15.1984 15.4358 14.8703C15.4358 14.5422 15.2014 14.2961 14.8616 14.2961H12.6936V13.3938H14.8616C15.2014 13.3938 15.4358 13.1477 15.4358 12.8195C15.4358 12.4797 15.2014 12.2336 14.8616 12.2336H13.2327L16.0803 7.65161C16.1858 7.48755 16.221 7.34692 16.221 7.17114C16.221 6.78442 15.9045 6.47973 15.4827 6.47973C15.2014 6.47973 14.9788 6.59692 14.8264 6.86645L11.9553 11.6828L9.08423 6.85473C8.92017 6.5852 8.70923 6.46802 8.41626 6.46802C7.99439 6.46802 7.67798 6.7727 7.67798 7.15942C7.67798 7.3352 7.72486 7.47583 7.81861 7.63989L10.678 12.2336H9.07251C8.73267 12.2336 8.51001 12.4797 8.51001 12.8195C8.51001 13.1477 8.74439 13.3938 9.07251 13.3938H11.217V14.2961H9.07251C8.73267 14.2961 8.51001 14.5422 8.51001 14.8703C8.51001 15.1984 8.74439 15.4563 9.07251 15.4563H11.217V17.1438C11.217 17.6125 11.51 17.9289 11.9436 17.9289Z" fill="black" fill-opacity="0.85"/>
</g>
<defs>
<clipPath id="clip0_2207_26286">
<rect width="23.9062" height="23.918" fill="white" transform="translate(0.00219727 0.0461426)"/>
</clipPath>
</defs>
</svg>
