<svg width="24" height="24" viewBox="0 0 24 24" fill="none" xmlns="http://www.w3.org/2000/svg">
<g clip-path="url(#clip0_2207_26291)">
<path d="M11.9573 23.9523C18.4964 23.9523 23.9104 18.5266 23.9104 11.9992C23.9104 5.4602 18.4846 0.0461426 11.9455 0.0461426C5.41821 0.0461426 0.00415039 5.4602 0.00415039 11.9992C0.00415039 18.5266 5.42993 23.9523 11.9573 23.9523Z" fill="black" fill-opacity="0.85"/>
<path d="M11.9572 17.9055C11.5119 17.9055 11.2072 17.5773 11.2072 17.0852V15.3508H8.99243C8.65259 15.3508 8.40649 15.093 8.40649 14.7531C8.40649 14.4133 8.64087 14.1555 8.99243 14.1555H11.2072V13.2297H8.99243C8.65259 13.2297 8.40649 12.9719 8.40649 12.6203C8.40649 12.2805 8.64087 12.0227 8.99243 12.0227H10.6447L7.70337 7.28833C7.5979 7.11255 7.55103 6.97192 7.55103 6.78442C7.55103 6.38598 7.87915 6.06958 8.31274 6.06958C8.61743 6.06958 8.84009 6.18676 9.01587 6.46802L11.9689 11.4484L14.9221 6.47973C15.0861 6.2102 15.3205 6.0813 15.6135 6.0813C16.0471 6.0813 16.3752 6.3977 16.3752 6.79614C16.3752 6.98364 16.34 7.12426 16.2229 7.30005L13.2932 12.0227H14.9689C15.3205 12.0227 15.5666 12.2805 15.5666 12.6203C15.5666 12.9719 15.3205 13.2297 14.9689 13.2297H12.7307V14.1555H14.9689C15.3205 14.1555 15.5666 14.4133 15.5666 14.7531C15.5666 15.093 15.3205 15.3508 14.9689 15.3508H12.7307V17.0969C12.7307 17.5891 12.4143 17.9055 11.9572 17.9055Z" fill="white"/>
</g>
<defs>
<clipPath id="clip0_2207_26291">
<rect width="23.9062" height="23.918" fill="white" transform="translate(0.00415039 0.0461426)"/>
</clipPath>
</defs>
</svg>
