<svg width="22" height="22" viewBox="0 0 22 22" fill="none" xmlns="http://www.w3.org/2000/svg">
<g clip-path="url(#clip0_2207_26301)">
<path d="M3.68799 21.6438H17.9028C20.3638 21.6438 21.5825 20.425 21.5825 18.0109V3.70239C21.5825 1.28833 20.3638 0.0695801 17.9028 0.0695801H3.68799C1.23877 0.0695801 0.00830078 1.27661 0.00830078 3.70239V18.0109C0.00830078 20.4367 1.23877 21.6438 3.68799 21.6438Z" fill="black" fill-opacity="0.85"/>
<path d="M10.813 16.7453C10.3677 16.7453 10.0513 16.4172 10.0513 15.925V14.1906H7.83642C7.49658 14.1906 7.25049 13.9328 7.25049 13.593C7.25049 13.2531 7.48486 12.9953 7.83642 12.9953H10.0513V12.0695H7.83642C7.49658 12.0695 7.25049 11.8117 7.25049 11.4602C7.25049 11.1203 7.48486 10.8625 7.83642 10.8625H9.48877L6.54736 6.12817C6.44189 5.95239 6.39502 5.81176 6.39502 5.62426C6.39502 5.22583 6.73486 4.90942 7.16846 4.90942C7.46142 4.90942 7.68408 5.02661 7.85986 5.30786L10.813 10.2883L13.7661 5.31958C13.9419 5.05005 14.1645 4.92114 14.4575 4.92114C14.8911 4.92114 15.231 5.23755 15.231 5.63598C15.231 5.82348 15.1841 5.96411 15.0669 6.13989L12.1372 10.8625H13.8247C14.1763 10.8625 14.4106 11.1203 14.4106 11.4602C14.4106 11.8117 14.1763 12.0695 13.8247 12.0695H11.5747V12.9953H13.8247C14.1763 12.9953 14.4106 13.2531 14.4106 13.593C14.4106 13.9328 14.1763 14.1906 13.8247 14.1906H11.5747V15.9367C11.5747 16.4289 11.2583 16.7453 10.813 16.7453Z" fill="white"/>
</g>
<defs>
<clipPath id="clip0_2207_26301">
<rect width="21.5742" height="21.5977" fill="white" transform="translate(0.00830078 0.0461426)"/>
</clipPath>
</defs>
</svg>
