<svg width="33" height="24" viewBox="0 0 33 24" fill="none" xmlns="http://www.w3.org/2000/svg">
<g clip-path="url(#clip0_2207_21902)">
<path d="M0.0146484 11.9992C0.0146484 11.4953 0.424804 11.0734 0.916992 11.0734H31.9482C32.4404 11.0734 32.8505 11.4953 32.8505 11.9992C32.8505 12.5031 32.4404 12.9367 31.9482 12.9367H0.916992C0.424804 12.9367 0.0146484 12.5031 0.0146484 11.9992ZM16.4443 23.9523C22.9716 23.9523 28.3974 18.5266 28.3974 11.9992C28.3974 5.4602 22.9599 0.0461426 16.4326 0.0461426C9.89356 0.0461426 4.49121 5.4602 4.49121 11.9992C4.49121 18.5266 9.90527 23.9523 16.4443 23.9523Z" fill="black" fill-opacity="0.85"/>
</g>
<defs>
<clipPath id="clip0_2207_21902">
<rect width="32.8359" height="23.918" fill="white" transform="translate(0.0146484 0.0461426)"/>
</clipPath>
</defs>
</svg>
