<svg width="16" height="25" viewBox="0 0 16 25" fill="none" xmlns="http://www.w3.org/2000/svg">
<g clip-path="url(#clip0_2207_13715)">
<path d="M3.26733 24.8547H11.9626C13.8728 24.8547 15.1501 23.6359 15.1501 21.8078V3.09302C15.1501 1.26489 13.8728 0.0461426 11.9626 0.0461426H3.26733C1.35717 0.0461426 0.079834 1.26489 0.079834 3.09302V21.8078C0.079834 23.6359 1.35717 24.8547 3.26733 24.8547Z" fill="black" fill-opacity="0.85"/>
<path d="M7.62671 16.9445C5.15405 16.9445 3.12671 14.9172 3.12671 12.4445C3.12671 9.97192 5.15405 7.94458 7.62671 7.94458C10.0993 7.94458 12.1267 9.97192 12.1267 12.4445C12.1267 14.9172 10.0993 16.9445 7.62671 16.9445Z" fill="white"/>
</g>
<defs>
<clipPath id="clip0_2207_13715">
<rect width="15.0703" height="24.832" fill="white" transform="translate(0.079834 0.0461426)"/>
</clipPath>
</defs>
</svg>
