<svg width="25" height="23" viewBox="0 0 25 23" fill="none" xmlns="http://www.w3.org/2000/svg">
<g clip-path="url(#clip0_2207_6185)">
<path d="M7.89062 7.16089C9.83593 7.16089 11.4531 5.5437 11.4531 3.61011C11.4531 1.6648 9.83593 0.0476074 7.89062 0.0476074C5.94531 0.0476074 4.32812 1.6648 4.32812 3.61011C4.32812 5.53199 5.93359 7.16089 7.89062 7.16089ZM16.4804 7.16089C18.4257 7.16089 20.0546 5.5437 20.0546 3.61011C20.0546 1.6648 18.4257 0.0476074 16.4804 0.0476074C14.5351 0.0476074 12.9179 1.6648 12.9179 3.61011C12.9179 5.5437 14.5351 7.16089 16.4804 7.16089ZM3.58984 14.8718C5.54687 14.8718 7.16406 13.2546 7.16406 11.3093C7.16406 9.36402 5.54687 7.74683 3.58984 7.74683C1.64453 7.74683 0.0273438 9.36402 0.0273438 11.3093C0.0273438 13.2429 1.63281 14.8718 3.58984 14.8718ZM20.7812 14.8718C22.7265 14.8718 24.3437 13.2546 24.3437 11.3093C24.3437 9.36402 22.7265 7.74683 20.7812 7.74683C18.8359 7.74683 17.207 9.36402 17.207 11.3093C17.207 13.2546 18.8359 14.8718 20.7812 14.8718ZM7.89062 22.571C9.83593 22.571 11.4531 20.9538 11.4531 19.0085C11.4531 17.0632 9.83593 15.446 7.89062 15.446C5.94531 15.446 4.32812 17.0632 4.32812 19.0085C4.32812 20.9421 5.93359 22.571 7.89062 22.571ZM16.4804 22.571C18.4257 22.571 20.0546 20.9538 20.0546 19.0085C20.0546 17.0632 18.4257 15.446 16.4804 15.446C14.5351 15.446 12.9179 17.0632 12.9179 19.0085C12.9179 20.9538 14.5351 22.571 16.4804 22.571Z" fill="black" fill-opacity="0.85"/>
</g>
<defs>
<clipPath id="clip0_2207_6185">
<rect width="24.3164" height="22.5352" fill="white" transform="translate(0.0273438 0.0476074)"/>
</clipPath>
</defs>
</svg>
