<svg width="24" height="24" viewBox="0 0 24 24" fill="none" xmlns="http://www.w3.org/2000/svg">
<g clip-path="url(#clip0_2207_20629)">
<path d="M12.0014 23.9523C18.5405 23.9523 23.9545 18.5266 23.9545 11.9992C23.9545 5.4602 18.5288 0.0461426 11.9897 0.0461426C5.4624 0.0461426 0.0483398 5.4602 0.0483398 11.9992C0.0483398 18.5266 5.47412 23.9523 12.0014 23.9523ZM12.0014 21.9602C6.47022 21.9602 2.05225 17.5305 2.05225 11.9992C2.05225 6.46802 6.4585 2.03833 11.9897 2.03833C17.521 2.03833 21.9624 6.46802 21.9624 11.9992C21.9624 17.5305 17.5327 21.9602 12.0014 21.9602Z" fill="black" fill-opacity="0.85"/>
<path d="M11.9897 18.2922C15.4116 18.2922 18.271 15.4328 18.271 12.0109C18.271 8.60084 15.3999 5.72974 11.9897 5.72974C8.56786 5.72974 5.72021 8.58912 5.72021 12.0109C5.72021 15.4211 8.57958 18.2922 11.9897 18.2922ZM11.9897 16.4641C9.57567 16.4641 7.54834 14.4367 7.54834 12.0109C7.54834 9.57349 9.55224 7.55787 11.9897 7.55787C14.4155 7.55787 16.4311 9.58521 16.4311 12.0109C16.4311 14.4484 14.4272 16.4641 11.9897 16.4641Z" fill="black" fill-opacity="0.85"/>
</g>
<defs>
<clipPath id="clip0_2207_20629">
<rect width="23.9062" height="23.918" fill="white" transform="translate(0.0483398 0.0461426)"/>
</clipPath>
</defs>
</svg>
