<svg width="24" height="24" viewBox="0 0 24 24" fill="none" xmlns="http://www.w3.org/2000/svg">
<g clip-path="url(#clip0_2207_6209)">
<path d="M11.9719 23.9538C18.511 23.9538 23.925 18.5281 23.925 12.0007C23.925 5.46167 18.4993 0.0476074 11.9602 0.0476074C5.43286 0.0476074 0.0187988 5.46167 0.0187988 12.0007C0.0187988 18.5281 5.44458 23.9538 11.9719 23.9538ZM11.9719 21.9617C6.44068 21.9617 2.02271 17.532 2.02271 12.0007C2.02271 6.46949 6.42896 2.0398 11.9602 2.0398C17.4915 2.0398 21.9329 6.46949 21.9329 12.0007C21.9329 17.532 17.5032 21.9617 11.9719 21.9617Z" fill="black" fill-opacity="0.85"/>
<path d="M9.46411 9.5398C10.5657 9.5398 11.4915 8.61402 11.4915 7.51245C11.4915 6.38745 10.5657 5.46167 9.46411 5.46167C8.33911 5.46167 7.41333 6.38745 7.41333 7.51245C7.41333 8.61402 8.32739 9.5398 9.46411 9.5398ZM14.4563 9.5398C15.5813 9.5398 16.5071 8.61402 16.5071 7.51245C16.5071 6.38745 15.5813 5.46167 14.4563 5.46167C13.3547 5.46167 12.429 6.38745 12.429 7.51245C12.429 8.61402 13.3547 9.5398 14.4563 9.5398ZM6.9563 14.0398C8.06958 14.0398 8.99536 13.1023 8.99536 11.989C8.99536 10.8874 8.06958 9.94995 6.9563 9.94995C5.84302 9.94995 4.91724 10.8874 4.91724 11.989C4.91724 13.1023 5.8313 14.0398 6.9563 14.0398ZM11.9602 14.0398C13.0735 14.0398 14.011 13.1023 14.011 11.989C14.011 10.8874 13.0735 9.94995 11.9602 9.94995C10.8586 9.94995 9.92114 10.8874 9.92114 11.989C9.92114 13.1023 10.8586 14.0398 11.9602 14.0398ZM16.9641 14.0398C18.0891 14.0398 19.0149 13.1023 19.0149 11.989C19.0149 10.8874 18.0891 9.94995 16.9641 9.94995C15.8626 9.94995 14.9368 10.8874 14.9368 11.989C14.9368 13.1023 15.8626 14.0398 16.9641 14.0398ZM9.46411 18.5281C10.5657 18.5281 11.4915 17.6023 11.4915 16.4773C11.4915 15.3757 10.5657 14.4499 9.46411 14.4499C8.33911 14.4499 7.41333 15.3757 7.41333 16.4773C7.41333 17.5906 8.32739 18.5281 9.46411 18.5281ZM14.4563 18.5281C15.5813 18.5281 16.5071 17.6023 16.5071 16.4773C16.5071 15.3757 15.5813 14.4499 14.4563 14.4499C13.3547 14.4499 12.429 15.3757 12.429 16.4773C12.429 17.6023 13.3547 18.5281 14.4563 18.5281Z" fill="black" fill-opacity="0.85"/>
</g>
<defs>
<clipPath id="clip0_2207_6209">
<rect width="23.9062" height="23.918" fill="white" transform="translate(0.0187988 0.0476074)"/>
</clipPath>
</defs>
</svg>
