<svg width="22" height="22" viewBox="0 0 22 22" fill="none" xmlns="http://www.w3.org/2000/svg">
<g clip-path="url(#clip0_2207_6372)">
<path d="M3.73853 21.6453H17.9533C20.4143 21.6453 21.633 20.4265 21.633 18.0124V3.70386C21.633 1.2898 20.4143 0.0710449 17.9533 0.0710449H3.73853C1.28931 0.0710449 0.0588379 1.27808 0.0588379 3.70386V18.0124C0.0588379 20.4382 1.28931 21.6453 3.73853 21.6453Z" fill="black" fill-opacity="0.85"/>
<path d="M10.8869 16.6882C7.73461 16.6882 5.06274 14.0164 5.06274 10.8523C5.06274 7.67652 7.71117 5.01636 10.8869 5.01636C14.051 5.01636 16.7229 7.68823 16.7229 10.8523C16.7229 14.0281 14.0744 16.6882 10.8869 16.6882Z" fill="white"/>
</g>
<defs>
<clipPath id="clip0_2207_6372">
<rect width="21.5742" height="21.5977" fill="white" transform="translate(0.0588379 0.0476074)"/>
</clipPath>
</defs>
</svg>
