<svg width="24" height="24" viewBox="0 0 24 24" fill="none" xmlns="http://www.w3.org/2000/svg">
<g clip-path="url(#clip0_2207_6176)">
<path d="M11.9531 23.9538C18.4922 23.9538 23.9062 18.5281 23.9062 12.0007C23.9062 5.46167 18.4805 0.0476074 11.9414 0.0476074C5.41406 0.0476074 0 5.46167 0 12.0007C0 18.5281 5.42578 23.9538 11.9531 23.9538Z" fill="black" fill-opacity="0.85"/>
<path d="M7.73438 9.7273C6.82031 9.7273 6.07031 8.96558 6.07031 8.06323C6.07031 7.13745 6.82031 6.38745 7.73438 6.38745C8.64844 6.38745 9.38672 7.13745 9.38672 8.06323C9.38672 8.96558 8.64844 9.7273 7.73438 9.7273ZM11.9531 9.7273C11.0391 9.7273 10.2891 8.96558 10.2891 8.06323C10.2891 7.12573 11.0391 6.39917 11.9531 6.38745C12.8672 6.38745 13.6172 7.12573 13.6172 8.06323C13.6172 8.96558 12.8672 9.7273 11.9531 9.7273ZM16.1719 9.7273C15.2578 9.7273 14.5195 8.96558 14.5195 8.06323C14.5195 7.12573 15.2578 6.39917 16.1719 6.38745C17.0859 6.38745 17.8359 7.12573 17.8359 8.06323C17.8359 8.96558 17.0859 9.7273 16.1719 9.7273ZM7.73438 13.6648C6.82031 13.6648 6.07031 12.9031 6.07031 12.0007C6.07031 11.0867 6.82031 10.3367 7.73438 10.3367C8.64844 10.3249 9.38672 11.0867 9.38672 12.0007C9.38672 12.9031 8.64844 13.6648 7.73438 13.6648ZM11.9531 13.6648C11.0391 13.6648 10.2891 12.9031 10.2891 12.0007C10.2891 11.0867 11.0391 10.3367 11.9531 10.3367C12.8672 10.3249 13.6172 11.0867 13.6172 12.0007C13.6172 12.9031 12.8672 13.6648 11.9531 13.6648ZM16.1719 13.6648C15.2578 13.6648 14.5195 12.9031 14.5195 12.0007C14.5195 11.0867 15.2578 10.3367 16.1719 10.3367C17.0859 10.3249 17.8359 11.0867 17.8359 12.0007C17.8359 12.9031 17.0859 13.6648 16.1719 13.6648ZM7.73438 17.614C6.82031 17.614 6.07031 16.864 6.07031 15.9382C6.07031 15.0359 6.82031 14.2742 7.73438 14.2742C8.64844 14.2742 9.38672 15.0359 9.38672 15.9382C9.38672 16.8757 8.64844 17.614 7.73438 17.614ZM11.9531 17.614C11.0391 17.614 10.2891 16.864 10.2891 15.9382C10.2891 15.0359 11.0391 14.2742 11.9531 14.2742C12.8672 14.2742 13.6172 15.0359 13.6172 15.9382C13.6172 16.864 12.8672 17.614 11.9531 17.614ZM16.1719 17.614C15.2578 17.614 14.5195 16.864 14.5195 15.9382C14.5195 15.0359 15.2578 14.2742 16.1719 14.2742C17.0859 14.2742 17.8359 15.0359 17.8359 15.9382C17.8359 16.864 17.0859 17.614 16.1719 17.614Z" fill="white"/>
</g>
<defs>
<clipPath id="clip0_2207_6176">
<rect width="23.9062" height="23.918" fill="white" transform="translate(0 0.0476074)"/>
</clipPath>
</defs>
</svg>
