<svg width="24" height="24" viewBox="0 0 24 24" fill="none" xmlns="http://www.w3.org/2000/svg">
<g clip-path="url(#clip0_2207_5874)">
<path d="M11.9792 0.633545V1.64136H14.9089C13.9597 1.24292 12.9753 0.903076 11.9792 0.633545ZM11.9792 2.47339V3.69214H18.0261C17.8737 3.25855 17.698 2.84839 17.5105 2.47339H11.9792ZM11.9792 4.99292V6.19995H20.6511C20.569 5.7898 20.4753 5.37964 20.3698 4.99292H11.9792ZM11.9792 7.50073V8.71949H22.4909C22.4558 8.30933 22.4089 7.89917 22.3503 7.50073H11.9792ZM11.9792 10.0203V11.2273H22.573C22.5612 10.8288 22.5495 10.4187 22.5261 10.0203H11.9792ZM11.9792 12.5281V13.7468H22.5261C22.5495 13.3484 22.5612 12.9382 22.573 12.5281H11.9792ZM11.9792 15.0476V16.2664H22.3503C22.4089 15.8562 22.4558 15.4578 22.4909 15.0476H11.9792ZM11.9792 17.5671V18.7742H20.3698C20.4753 18.3874 20.569 17.9773 20.6511 17.5671H11.9792ZM11.9792 20.3093V21.5281H17.5105C17.698 21.1414 17.8737 20.7429 18.0261 20.3093H11.9792ZM11.9792 22.3601V23.3562C12.9753 23.0867 13.9597 22.7585 14.9089 22.3601H11.9792ZM11.9909 23.9538C18.53 23.9538 23.944 18.5281 23.944 12.0007C23.944 5.46167 18.5183 0.0476074 11.9792 0.0476074C5.4519 0.0476074 0.0378418 5.46167 0.0378418 12.0007C0.0378418 18.5281 5.46362 23.9538 11.9909 23.9538ZM11.9909 21.9617C6.45972 21.9617 2.04175 17.532 2.04175 12.0007C2.04175 6.46949 6.448 2.0398 11.9792 2.0398C17.5105 2.0398 21.9519 6.46949 21.9519 12.0007C21.9519 17.532 17.5222 21.9617 11.9909 21.9617Z" fill="black" fill-opacity="0.85"/>
</g>
<defs>
<clipPath id="clip0_2207_5874">
<rect width="23.9062" height="23.918" fill="white" transform="translate(0.0378418 0.0476074)"/>
</clipPath>
</defs>
</svg>
