<svg width="24" height="24" viewBox="0 0 24 24" fill="none" xmlns="http://www.w3.org/2000/svg">
<g clip-path="url(#clip0_2207_5878)">
<path d="M12.0047 0.633545C11.0087 0.903076 10.0243 1.24292 9.07508 1.64136H12.0047V0.633545ZM12.0047 2.47339H6.47351C6.28601 2.84839 6.11023 3.25855 5.95789 3.69214H12.0047V2.47339ZM12.0047 4.99292H3.61414C3.50867 5.37964 3.41492 5.7898 3.33289 6.19995H12.0047V4.99292ZM12.0047 7.50073H1.63367C1.57508 7.89917 1.5282 8.30933 1.49304 8.71949H12.0047V7.50073ZM12.0047 10.0203H1.45789C1.43445 10.4187 1.42273 10.8288 1.41101 11.2273H12.0047V10.0203ZM12.0047 12.5281H1.41101C1.42273 12.9382 1.43445 13.3484 1.45789 13.7468H12.0047V12.5281ZM12.0047 15.0476H1.49304C1.5282 15.4578 1.57508 15.8562 1.63367 16.2664H12.0047V15.0476ZM12.0047 17.5671H3.33289C3.41492 17.9773 3.50867 18.3874 3.61414 18.7742H12.0047V17.5671ZM12.0047 20.3093H5.95789C6.11023 20.7429 6.28601 21.1414 6.47351 21.5281H12.0047V20.3093ZM12.0047 22.3601H9.07508C10.0243 22.7585 11.0087 23.0867 12.0047 23.3562V22.3601ZM11.993 23.9538C18.5321 23.9538 23.9461 18.5281 23.9461 12.0007C23.9461 5.46167 18.5204 0.0476074 11.9813 0.0476074C5.45398 0.0476074 0.039917 5.46167 0.039917 12.0007C0.039917 18.5281 5.4657 23.9538 11.993 23.9538ZM11.993 21.9617C6.4618 21.9617 2.04383 17.532 2.04383 12.0007C2.04383 6.46949 6.45008 2.0398 11.9813 2.0398C17.5126 2.0398 21.954 6.46949 21.954 12.0007C21.954 17.532 17.5243 21.9617 11.993 21.9617Z" fill="black" fill-opacity="0.85"/>
</g>
<defs>
<clipPath id="clip0_2207_5878">
<rect width="23.9062" height="23.918" fill="white" transform="translate(0.039917 0.0476074)"/>
</clipPath>
</defs>
</svg>
