<svg width="24" height="24" viewBox="0 0 24 24" fill="none" xmlns="http://www.w3.org/2000/svg">
<g clip-path="url(#clip0_2207_6088)">
<path d="M2.0586 11.9992C2.0586 10.9328 2.22266 9.90161 2.52735 8.95239L0.6875 8.17895C0.289063 9.38598 0.0546875 10.6633 0.0546875 11.9992C0.0546875 13.3234 0.289062 14.6125 0.699219 15.8195L2.52735 15.0461C2.22266 14.0969 2.0586 13.0656 2.0586 11.9992ZM7.44922 3.11645L6.69922 1.31176C4.37891 2.47192 2.46875 4.38208 1.3086 6.70239L3.13672 7.46411C4.07422 5.60083 5.59766 4.07739 7.44922 3.11645ZM11.9961 2.03833C13.0625 2.03833 14.0938 2.20239 15.0664 2.5188L15.8164 0.690674C14.6094 0.280518 13.3203 0.0461426 11.9961 0.0461426C10.6719 0.0461426 9.3711 0.280518 8.16407 0.690674L8.9375 2.5188C9.89844 2.20239 10.9297 2.03833 11.9961 2.03833ZM20.8789 7.45239L22.6953 6.70239C21.5235 4.38208 19.6133 2.47192 17.293 1.30005L16.543 3.11645C18.3945 4.06567 19.9297 5.58911 20.8789 7.45239ZM21.9688 11.9992C21.9688 13.0656 21.8047 14.0969 21.5 15.0578L23.3164 15.8313C23.7266 14.6242 23.9609 13.3234 23.9609 11.9992C23.9609 10.6633 23.7266 9.37426 23.3164 8.16723L21.4883 8.94067C21.8047 9.90161 21.9688 10.9328 21.9688 11.9992ZM16.543 20.8703L17.293 22.6984C19.625 21.5266 21.5352 19.6164 22.6836 17.2961L20.8906 16.5461C19.9414 18.4094 18.4063 19.9211 16.543 20.8703ZM12.0078 21.9602C10.9297 21.9602 9.89844 21.7961 8.9375 21.4797L8.17578 23.3078C9.38281 23.718 10.6836 23.9523 12.0078 23.9523C13.332 23.9523 14.6211 23.718 15.8164 23.3195L15.0547 21.4914C14.0938 21.7961 13.0742 21.9602 12.0078 21.9602ZM3.13672 16.5461L1.32031 17.2961C2.49219 19.6164 4.37891 21.5266 6.69922 22.6867L7.44922 20.8586C5.59766 19.9094 4.07422 18.3977 3.13672 16.5461Z" fill="black" fill-opacity="0.85"/>
<path d="M11.9844 20.1789C16.543 20.1789 20.1758 16.5461 20.1641 11.9992C20.1524 7.45239 16.5195 3.81958 11.9727 3.81958C7.42578 3.81958 3.81641 7.44067 3.81641 11.9992C3.81641 16.5578 7.4375 20.1789 11.9844 20.1789Z" fill="black" fill-opacity="0.85"/>
</g>
<defs>
<clipPath id="clip0_2207_6088">
<rect width="23.9062" height="23.918" fill="white" transform="translate(0.0546875 0.0461426)"/>
</clipPath>
</defs>
</svg>
