<svg width="20" height="27" viewBox="0 0 20 27" fill="none" xmlns="http://www.w3.org/2000/svg">
<g clip-path="url(#clip0_2207_13852)">
<path d="M3.31738 26.4484H16.4072C18.3525 26.4484 19.6533 25.2063 19.6533 23.3547V3.15161C19.6533 1.30005 18.3525 0.0461426 16.4072 0.0461426H3.31738C1.37207 0.0461426 0.0712891 1.30005 0.0712891 3.15161V23.3547C0.0712891 25.2063 1.37207 26.4484 3.31738 26.4484Z" fill="black" fill-opacity="0.85"/>
<path d="M9.85645 19.2531C6.55176 19.2531 3.85645 16.5695 3.85645 13.2414C3.85645 9.93676 6.55176 7.25317 9.85645 7.25317C13.1729 7.25317 15.8682 9.93676 15.8682 13.2414C15.8682 16.5695 13.1729 19.2531 9.85645 19.2531Z" fill="white"/>
</g>
<defs>
<clipPath id="clip0_2207_13852">
<rect width="19.582" height="26.4258" fill="white" transform="translate(0.0712891 0.0461426)"/>
</clipPath>
</defs>
</svg>
