<svg width="24" height="23" viewBox="0 0 24 23" fill="none" xmlns="http://www.w3.org/2000/svg">
<g clip-path="url(#clip0_2207_6159)">
<path d="M20.3694 22.6999C22.221 22.6999 23.7327 21.1648 23.7327 19.3249C23.7327 17.4734 22.221 15.9617 20.3694 15.9617C18.5178 15.9617 17.0061 17.4734 17.0061 19.3249C17.0061 21.1648 18.5178 22.6999 20.3694 22.6999Z" fill="black" fill-opacity="0.85"/>
<path d="M11.8733 22.6999C13.7131 22.6999 15.2483 21.1648 15.2483 19.3249C15.2483 17.4734 13.7131 15.9617 11.8733 15.9617C10.0217 15.9617 8.48657 17.4734 8.48657 19.3249C8.48657 21.1648 10.0217 22.6999 11.8733 22.6999Z" fill="black" fill-opacity="0.85"/>
<path d="M3.36548 22.6999C5.21704 22.6999 6.72876 21.1882 6.72876 19.3249C6.72876 17.4851 5.20532 15.9617 3.36548 15.9617C1.51392 15.9617 0.00219727 17.4734 0.00219727 19.3249C0.00219727 21.1648 1.51392 22.6999 3.36548 22.6999Z" fill="black" fill-opacity="0.85"/>
<path d="M20.3694 14.7546C22.221 14.7546 23.7327 13.2195 23.7327 11.3796C23.7327 9.52808 22.221 8.00464 20.3694 8.01636C18.5178 8.02808 17.0061 9.52808 17.0061 11.3796C17.0061 13.2195 18.5178 14.7546 20.3694 14.7546Z" fill="black" fill-opacity="0.85"/>
<path d="M11.8733 14.7546C13.7131 14.7546 15.2483 13.2195 15.2483 11.3796C15.2483 9.52808 13.7131 8.00464 11.8733 8.01636C10.0217 8.02808 8.48657 9.52808 8.48657 11.3796C8.48657 13.2195 10.0217 14.7546 11.8733 14.7546Z" fill="black" fill-opacity="0.85"/>
<path d="M3.36548 14.7546C5.21704 14.7546 6.72876 13.2195 6.72876 11.3796C6.72876 9.52808 5.20532 8.00464 3.36548 8.01636C1.51392 8.02808 0.00219727 9.52808 0.00219727 11.3796C0.00219727 13.2195 1.51392 14.7546 3.36548 14.7546Z" fill="black" fill-opacity="0.85"/>
<path d="M20.3694 6.80933C22.221 6.80933 23.7327 5.27417 23.7327 3.43433C23.7327 1.57105 22.221 0.0476059 20.3694 0.0593247C18.5061 0.0710434 17.0061 1.55933 17.0061 3.43433C17.0061 5.27417 18.5178 6.80933 20.3694 6.80933Z" fill="black" fill-opacity="0.85"/>
<path d="M11.8733 6.80933C13.7131 6.80933 15.2483 5.27417 15.2483 3.43433C15.2483 1.57105 13.7131 0.0476059 11.8733 0.0593247C10.0217 0.0710434 8.48657 1.57105 8.48657 3.43433C8.48657 5.27417 10.0217 6.80933 11.8733 6.80933Z" fill="black" fill-opacity="0.85"/>
<path d="M3.36548 6.79761C5.21704 6.79761 6.72876 5.27417 6.72876 3.44605C6.72876 1.59449 5.21704 0.0593262 3.36548 0.0593262C1.51392 0.0593262 0.00219727 1.59449 0.00219727 3.44605C0.00219727 5.27417 1.51392 6.79761 3.36548 6.79761Z" fill="black" fill-opacity="0.85"/>
</g>
<defs>
<clipPath id="clip0_2207_6159">
<rect width="23.7305" height="22.6523" fill="white" transform="translate(0.00219727 0.0476074)"/>
</clipPath>
</defs>
</svg>
