<svg width="24" height="24" viewBox="0 0 24 24" fill="none" xmlns="http://www.w3.org/2000/svg">
<g clip-path="url(#clip0_2207_5891)">
<path d="M12.0183 23.9523C18.5574 23.9523 23.9714 18.5266 23.9714 11.9992C23.9714 5.4602 18.5457 0.0461426 12.0066 0.0461426C5.47925 0.0461426 0.0651855 5.4602 0.0651855 11.9992C0.0651855 18.5266 5.49097 23.9523 12.0183 23.9523Z" fill="black" fill-opacity="0.85"/>
<path d="M12.0183 7.45239C11.5261 7.45239 11.1629 7.08911 11.1629 6.59692C11.1629 6.10473 11.5261 5.74146 12.0183 5.74146C12.5105 5.74146 12.8738 6.10473 12.8738 6.59692C12.8738 7.08911 12.5105 7.45239 12.0183 7.45239ZM14.7254 8.17895C14.2332 8.17895 13.8699 7.81567 13.8699 7.32348C13.8699 6.81958 14.2332 6.45631 14.7254 6.45631C15.2293 6.45631 15.5808 6.81958 15.5808 7.32348C15.5808 7.81567 15.2293 8.17895 14.7254 8.17895ZM16.7058 10.1594C16.2136 10.1594 15.8504 9.79614 15.8504 9.30395C15.8504 8.81176 16.2136 8.44848 16.7058 8.44848C17.2097 8.44848 17.573 8.81176 17.573 9.30395C17.573 9.79614 17.2097 10.1594 16.7058 10.1594ZM17.4324 12.8664C16.9402 12.8664 16.5769 12.5031 16.5769 12.0109C16.5769 11.5188 16.9402 11.1555 17.4324 11.1555C17.9246 11.1555 18.2879 11.5188 18.2879 12.0109C18.2879 12.5031 17.9246 12.8664 17.4324 12.8664ZM16.7058 15.5852C16.2136 15.5852 15.8504 15.2219 15.8504 14.7297C15.8504 14.2258 16.2136 13.8625 16.7058 13.8625C17.2097 13.8625 17.573 14.2258 17.573 14.7297C17.573 15.2219 17.2097 15.5852 16.7058 15.5852ZM14.7254 17.5656C14.2332 17.5656 13.8699 17.2023 13.8699 16.6984C13.8699 16.2063 14.2332 15.843 14.7254 15.843C15.2293 15.843 15.5808 16.2063 15.5808 16.6984C15.5808 17.2023 15.2293 17.5656 14.7254 17.5656ZM12.0183 18.2805C11.5261 18.2805 11.1629 17.9172 11.1629 17.425C11.1629 16.9328 11.5261 16.5695 12.0183 16.5695C12.5105 16.5695 12.8738 16.9328 12.8738 17.425C12.8738 17.9172 12.5105 18.2805 12.0183 18.2805ZM9.31128 17.5656C8.8191 17.5656 8.45581 17.2023 8.45581 16.6984C8.45581 16.2063 8.8191 15.843 9.31128 15.843C9.80347 15.843 10.1668 16.2063 10.1668 16.6984C10.1668 17.2023 9.80347 17.5656 9.31128 17.5656ZM7.33081 15.5852C6.82691 15.5852 6.46363 15.2219 6.46363 14.7297C6.46363 14.2258 6.82691 13.8625 7.33081 13.8625C7.823 13.8625 8.18628 14.2258 8.18628 14.7297C8.18628 15.2219 7.823 15.5852 7.33081 15.5852ZM6.60425 12.8664C6.11207 12.8664 5.74878 12.5031 5.74878 12.0109C5.74878 11.5188 6.11207 11.1555 6.60425 11.1555C7.09644 11.1555 7.45972 11.5188 7.45972 12.0109C7.45972 12.5031 7.09644 12.8664 6.60425 12.8664ZM7.33081 10.1594C6.82691 10.1594 6.46363 9.79614 6.46363 9.30395C6.46363 8.81176 6.82691 8.44848 7.33081 8.44848C7.823 8.44848 8.18628 8.81176 8.18628 9.30395C8.18628 9.79614 7.823 10.1594 7.33081 10.1594ZM9.31128 8.17895C8.8191 8.17895 8.45581 7.81567 8.45581 7.32348C8.45581 6.81958 8.8191 6.45631 9.31128 6.45631C9.80347 6.45631 10.1668 6.81958 10.1668 7.32348C10.1668 7.81567 9.80347 8.17895 9.31128 8.17895Z" fill="white"/>
</g>
<defs>
<clipPath id="clip0_2207_5891">
<rect width="23.9062" height="23.918" fill="white" transform="translate(0.0651855 0.0461426)"/>
</clipPath>
</defs>
</svg>
