<svg width="24" height="24" viewBox="0 0 24 24" fill="none" xmlns="http://www.w3.org/2000/svg">
<g clip-path="url(#clip0_2207_5882)">
<path d="M22.7178 12.0007C22.7178 5.9773 18.0186 1.27808 12.0068 1.27808V22.7117C18.0186 22.7117 22.7178 18.0242 22.7178 12.0007ZM12.6045 2.47339V0.938232H8.43261V2.47339H12.6045ZM12.6045 4.99292V3.69214H4.12011V4.99292H12.6045ZM12.6045 7.50073V6.19995H2.44433V7.50073H12.6045ZM12.6045 10.0203V8.71949H1.19043V10.0203H12.6045ZM12.6045 12.5281V11.2273H1.19043V12.5281H12.6045ZM12.6045 15.0476V13.7468H1.19043V15.0476H12.6045ZM12.6045 17.5671V16.2664H2.44433V17.5671H12.6045ZM12.6045 20.3093V18.7742H4.12011V20.3093H12.6045ZM12.6045 23.0632V21.5281H8.43261V23.0632H12.6045ZM11.9951 23.9538C18.5342 23.9538 23.9482 18.5281 23.9482 12.0007C23.9482 5.46167 18.5225 0.0476074 11.9834 0.0476074C5.45605 0.0476074 0.0419922 5.46167 0.0419922 12.0007C0.0419922 18.5281 5.46777 23.9538 11.9951 23.9538ZM11.9951 21.9617C6.46387 21.9617 2.0459 17.532 2.0459 12.0007C2.0459 6.46949 6.45215 2.0398 11.9834 2.0398C17.5147 2.0398 21.9561 6.46949 21.9561 12.0007C21.9561 17.532 17.5264 21.9617 11.9951 21.9617Z" fill="black" fill-opacity="0.85"/>
</g>
<defs>
<clipPath id="clip0_2207_5882">
<rect width="23.9062" height="23.918" fill="white" transform="translate(0.0419922 0.0476074)"/>
</clipPath>
</defs>
</svg>
