<svg width="22" height="22" viewBox="0 0 22 22" fill="none" xmlns="http://www.w3.org/2000/svg">
<g clip-path="url(#clip0_2207_3433)">
<path d="M3.75318 21.6453H17.968C20.429 21.6453 21.6477 20.4265 21.6477 18.0124V3.70386C21.6477 1.2898 20.429 0.0710449 17.968 0.0710449H3.75318C1.30396 0.0710449 0.0734863 1.27808 0.0734863 3.70386V18.0124C0.0734863 20.4382 1.30396 21.6453 3.75318 21.6453ZM3.77661 19.7585C2.60474 19.7585 1.96021 19.1374 1.96021 17.9187V3.79761C1.96021 2.57886 2.60474 1.95777 3.77661 1.95777H17.9446C19.1047 1.95777 19.761 2.57886 19.761 3.79761V17.9187C19.761 19.1374 19.1047 19.7585 17.9446 19.7585H3.77661Z" fill="black" fill-opacity="0.85"/>
<path d="M6.87036 15.7976C7.13989 15.7976 7.37426 15.6921 7.55004 15.5046L10.8665 12.1765L14.2063 15.5046C14.3821 15.6804 14.6047 15.7976 14.8743 15.7976C15.4016 15.7976 15.8118 15.3757 15.8118 14.8484C15.8118 14.5788 15.718 14.3679 15.5305 14.1804L12.2024 10.8523L15.5423 7.50073C15.7415 7.30152 15.8235 7.1023 15.8235 6.84449C15.8235 6.32886 15.4133 5.90699 14.886 5.90699C14.6399 5.90699 14.4407 6.00073 14.2415 6.19995L10.8665 9.5398L7.5266 6.21167C7.35082 6.02417 7.13989 5.93042 6.87036 5.93042C6.35473 5.93042 5.93286 6.34058 5.93286 6.8562C5.93286 7.11402 6.03832 7.33667 6.2141 7.51245L9.54223 10.8523L6.2141 14.1921C6.03832 14.3679 5.93286 14.5906 5.93286 14.8484C5.93286 15.3757 6.35473 15.7976 6.87036 15.7976Z" fill="black" fill-opacity="0.85"/>
</g>
<defs>
<clipPath id="clip0_2207_3433">
<rect width="21.5742" height="21.5977" fill="white" transform="translate(0.0734863 0.0476074)"/>
</clipPath>
</defs>
</svg>
