<svg width="22" height="22" viewBox="0 0 22 22" fill="none" xmlns="http://www.w3.org/2000/svg">
<g clip-path="url(#clip0_2207_3438)">
<path d="M3.75537 21.6453H17.9702C20.4312 21.6453 21.6499 20.4265 21.6499 18.0124V3.70386C21.6499 1.2898 20.4312 0.0710449 17.9702 0.0710449H3.75537C1.30615 0.0710449 0.0756836 1.27808 0.0756836 3.70386V18.0124C0.0756836 20.4382 1.30615 21.6453 3.75537 21.6453Z" fill="black" fill-opacity="0.85"/>
<path d="M6.93116 15.7624C6.3921 15.7624 5.97021 15.3288 5.97021 14.7898C5.97021 14.532 6.06396 14.2859 6.25146 14.1101L9.49756 10.8523L6.25146 7.6062C6.06396 7.4187 5.97021 7.18433 5.97021 6.92652C5.97021 6.37573 6.3921 5.96558 6.93116 5.96558C7.20069 5.96558 7.41162 6.05933 7.59912 6.23511L10.8687 9.49292L14.1616 6.22339C14.3609 6.02417 14.5835 5.94214 14.8296 5.94214C15.3687 5.94214 15.8023 6.36402 15.8023 6.90308C15.8023 7.17261 15.7202 7.38355 15.521 7.59449L12.2515 10.8523L15.5093 14.0984C15.6968 14.2742 15.7905 14.5203 15.7905 14.7898C15.7905 15.3288 15.3569 15.7624 14.8062 15.7624C14.5484 15.7624 14.2905 15.6687 14.1148 15.4812L10.8687 12.2234L7.63427 15.4812C7.44677 15.6687 7.20069 15.7624 6.93116 15.7624Z" fill="white"/>
</g>
<defs>
<clipPath id="clip0_2207_3438">
<rect width="21.5742" height="21.5977" fill="white" transform="translate(0.0756836 0.0476074)"/>
</clipPath>
</defs>
</svg>
