<svg width="20" height="33" viewBox="0 0 20 33" fill="none" xmlns="http://www.w3.org/2000/svg">
<g clip-path="url(#clip0_2207_955)">
<path d="M19.7907 26.1218V8.34448C19.7907 5.88354 18.5837 4.66479 16.1579 4.66479H3.71264C1.28686 4.66479 0.079834 5.88354 0.079834 8.34448V26.1218C0.079834 28.5828 1.28686 29.8015 3.71264 29.8015H16.1579C18.5837 29.8015 19.7907 28.5828 19.7907 26.1218Z" fill="black" fill-opacity="0.85"/>
<path d="M6.31421 8.71949H13.5564C14.986 8.71949 16.0173 7.67652 16.0173 6.19995V4.96949C16.0173 3.4812 14.986 2.43823 13.5564 2.43823C13.3103 2.43823 13.0876 2.43823 12.8298 2.43823L13.7556 3.08277C13.4509 1.31323 11.7751 0.0476074 9.9353 0.0476074C8.09545 0.0476074 6.41967 1.31323 6.11499 3.08277L7.04077 2.43823C6.78295 2.43823 6.5603 2.43823 6.31421 2.43823C4.88452 2.43823 3.85327 3.4812 3.85327 4.96949V6.19995C3.85327 7.67652 4.88452 8.71949 6.31421 8.71949Z" fill="white"/>
<path d="M6.31422 7.36011H13.5564C14.236 7.36011 14.6462 6.92652 14.6462 6.19995V4.96949C14.6462 4.24292 14.236 3.80933 13.5564 3.80933H12.4782C12.3962 2.48511 11.2946 1.40699 9.93531 1.40699C8.57593 1.40699 7.47437 2.48511 7.39234 3.80933H6.31422C5.63453 3.80933 5.22437 4.24292 5.22437 4.96949V6.19995C5.22437 6.92652 5.63453 7.36011 6.31422 7.36011ZM9.93531 4.92261C9.37281 4.92261 8.91578 4.45386 8.91578 3.90308C8.91578 3.32886 9.37281 2.87183 9.93531 2.87183C10.4978 2.87183 10.9548 3.32886 10.9548 3.90308C10.9548 4.45386 10.4978 4.92261 9.93531 4.92261Z" fill="black" fill-opacity="0.85"/>
</g>
<defs>
<clipPath id="clip0_2207_955">
<rect width="19.7109" height="32.4727" fill="white" transform="translate(0.079834 0.0476074)"/>
</clipPath>
</defs>
</svg>
