<svg width="24" height="24" viewBox="0 0 24 24" fill="none" xmlns="http://www.w3.org/2000/svg">
<g clip-path="url(#clip0_2207_20108)">
<path d="M12.0351 23.9538C18.5742 23.9538 23.9882 18.5281 23.9882 12.0007C23.9882 5.46167 18.5625 0.0476074 12.0234 0.0476074C5.49609 0.0476074 0.0820312 5.46167 0.0820312 12.0007C0.0820312 18.5281 5.50781 23.9538 12.0351 23.9538ZM12.0351 21.9617C6.50391 21.9617 2.08594 17.532 2.08594 12.0007C2.08594 6.46949 6.49219 2.0398 12.0234 2.0398C17.5547 2.0398 21.9961 6.46949 21.9961 12.0007C21.9961 17.532 17.5664 21.9617 12.0351 21.9617Z" fill="black" fill-opacity="0.85"/>
<path d="M5.90625 13.2664H12.0234C12.4804 13.2664 12.8437 12.9148 12.8437 12.446V4.5476C12.8437 4.09057 12.4804 3.73901 12.0234 3.73901C11.5664 3.73901 11.2148 4.09057 11.2148 4.5476V11.6374H5.90625C5.4375 11.6374 5.08594 11.989 5.08594 12.446C5.08594 12.9148 5.4375 13.2664 5.90625 13.2664Z" fill="black" fill-opacity="0.85"/>
</g>
<defs>
<clipPath id="clip0_2207_20108">
<rect width="23.9062" height="23.918" fill="white" transform="translate(0.0820312 0.0476074)"/>
</clipPath>
</defs>
</svg>
