<svg width="36" height="34" viewBox="0 0 36 34" fill="none" xmlns="http://www.w3.org/2000/svg">
<g id="cloud.sun.rain.fill" clip-path="url(#clip0_2124_12596)">
<g id="Group">
<path id="Vector" d="M19.1484 32.5078L20.6836 29.8594C20.8945 29.5078 20.7773 29.0859 20.4258 28.8867C20.0742 28.6758 19.6758 28.793 19.4531 29.1562L17.918 31.8164C17.7188 32.1562 17.8242 32.5664 18.1875 32.7773C18.5273 32.9648 18.9609 32.8477 19.1484 32.5078Z" fill="black" fill-opacity="0.85"/>
<path id="Vector_2" d="M15.4922 29.2031L17.0156 26.5664C17.2266 26.2031 17.1094 25.793 16.7578 25.582C16.4062 25.3828 16.0078 25.5 15.7969 25.8516L14.2617 28.5234C14.0625 28.8516 14.1562 29.2734 14.5195 29.4727C14.8711 29.6719 15.293 29.5547 15.4922 29.2031Z" fill="black" fill-opacity="0.85"/>
<path id="Vector_3" d="M9.83202 32.5195L11.3555 29.8711C11.5664 29.5195 11.4492 29.0977 11.1094 28.8984C10.7461 28.6875 10.3477 28.8047 10.1367 29.168L8.60155 31.8281C8.40233 32.168 8.5078 32.5781 8.85937 32.7891C9.21093 32.9766 9.6328 32.8594 9.83202 32.5195Z" fill="black" fill-opacity="0.85"/>
<path id="Vector_4" d="M6.16405 29.2148L7.68749 26.5781C7.89843 26.2148 7.79296 25.8047 7.4414 25.5938C7.07811 25.3945 6.67968 25.5117 6.46874 25.8633L4.93358 28.5352C4.73437 28.8633 4.83983 29.2852 5.1914 29.4844C5.54296 29.6836 5.96483 29.5664 6.16405 29.2148Z" fill="black" fill-opacity="0.85"/>
<path id="Vector_5" d="M23.2031 4.47656C23.7305 4.47656 24.1758 4.04297 24.1758 3.51562V0.972656C24.1758 0.457031 23.7305 0 23.2031 0C22.6758 0 22.2305 0.457031 22.2305 0.972656V3.51562C22.2305 4.04297 22.6758 4.47656 23.2031 4.47656ZM28.6172 6.75C28.9922 7.125 29.6133 7.13672 30 6.75L31.8047 4.95703C32.1797 4.58203 32.1797 3.94922 31.8047 3.57422C31.4297 3.19922 30.8086 3.1875 30.4453 3.57422L28.6172 5.39062C28.2422 5.75391 28.2422 6.375 28.6172 6.75ZM30.8555 12.1641C30.8555 12.7031 31.3125 13.1367 31.8281 13.1367H34.3711C34.8984 13.1367 35.332 12.7031 35.332 12.1641C35.332 11.6367 34.8984 11.1914 34.3711 11.1914H31.8281C31.3125 11.1914 30.8555 11.6367 30.8555 12.1641ZM28.6172 17.5898C28.2422 17.9648 28.2422 18.5859 28.6172 18.9609L30.4453 20.7656C30.8086 21.1406 31.4297 21.1289 31.8047 20.7539C32.1797 20.3906 32.1797 19.7695 31.8047 19.3945L29.9883 17.5898C29.6133 17.2266 28.9922 17.2266 28.6172 17.5898ZM17.7891 17.5898C17.4141 17.2266 16.7812 17.2266 16.4062 17.5898L14.6133 19.3828C14.2266 19.7578 14.2383 20.3789 14.6016 20.7422C14.9766 21.1172 15.6094 21.1289 15.9727 20.7539L17.7773 18.9609C18.1523 18.5859 18.1523 17.9648 17.7891 17.5898ZM15.5391 12.1641C15.5391 11.6367 15.0938 11.1914 14.5664 11.1914H12.0352C11.5078 11.1914 11.0742 11.6367 11.0742 12.1641C11.0742 12.7031 11.5078 13.1367 12.0352 13.1367H14.5664C15.0938 13.1367 15.5391 12.7031 15.5391 12.1641ZM17.7773 6.75C18.1523 6.38672 18.1523 5.74219 17.7891 5.39062L15.9844 3.57422C15.6211 3.19922 15 3.19922 14.625 3.57422C14.25 3.94922 14.2383 4.58203 14.6133 4.94531L16.4062 6.75C16.7812 7.125 17.4023 7.125 17.7773 6.75ZM23.2031 17.9766C26.3672 17.9766 28.9922 15.3398 28.9922 12.1641C28.9922 8.97656 26.3672 6.35156 23.2031 6.35156C20.0273 6.35156 17.4023 8.97656 17.4023 12.1641C17.4023 15.3398 20.0273 17.9766 23.2031 17.9766Z" fill="black" fill-opacity="0.85"/>
<path id="Vector_6" d="M6.25781 24.9727H18.9375C23.0273 24.9727 26.2266 21.8438 26.2266 17.8125C26.2266 14.0508 23.3672 11.1562 19.5352 10.7812C17.8945 8.19141 15.2109 6.59766 12.0586 6.59766C7.82812 6.59766 4.20703 9.67969 3.41016 13.8047C1.37109 14.7539 0 16.7461 0 19.1484C0 22.5234 2.57812 24.9727 6.25781 24.9727Z" fill="white"/>
<path id="Vector_7" d="M6.25781 23.6016H18.9375C22.2773 23.6016 24.8672 21.0703 24.8672 17.8125C24.8672 14.5781 22.2305 12.1289 18.7266 12.1055C17.3789 9.53906 14.9531 7.96875 12.0586 7.96875C8.23828 7.96875 5.00391 10.9336 4.64062 14.7891C2.69531 15.375 1.37109 17.0391 1.37109 19.1484C1.37109 21.75 3.32812 23.6016 6.25781 23.6016Z" fill="black" fill-opacity="0.85"/>
</g>
</g>
<defs>
<clipPath id="clip0_2124_12596">
<rect width="35.332" height="33.0117" fill="white"/>
</clipPath>
</defs>
</svg>
