<svg width="28" height="25" viewBox="0 0 28 25" fill="none" xmlns="http://www.w3.org/2000/svg">
<g clip-path="url(#clip0_2207_4911)">
<path d="M26.3521 11.898C26.7739 11.898 27.1255 11.5464 27.1255 11.1245C27.1255 10.7026 26.7739 10.3628 26.3521 10.3628C22.5435 10.3628 19.4849 13.4331 19.4849 17.2417C19.4849 17.6753 19.813 18.0151 20.2349 18.0151C20.6685 18.0151 21.02 17.6753 21.02 17.2417C21.02 14.3003 23.3989 11.898 26.3521 11.898Z" fill="black" fill-opacity="0.85"/>
<path d="M26.3521 9.33155C26.7739 9.33155 27.1255 8.99171 27.1255 8.56983C27.1255 8.14796 26.7739 7.79639 26.3521 7.79639C21.1138 7.79639 16.9185 12.0034 16.9185 17.2417C16.9185 17.6753 17.2583 18.0151 17.6802 18.0151C18.1138 18.0151 18.4536 17.6753 18.4536 17.2417C18.4536 12.8823 21.9927 9.33155 26.3521 9.33155Z" fill="black" fill-opacity="0.85"/>
<path d="M26.3521 6.76513C26.7739 6.76513 27.1255 6.42529 27.1255 6.00341C27.1255 5.58154 26.7739 5.22998 26.3521 5.22998C19.7075 5.22998 14.3638 10.5972 14.3638 17.2417C14.3638 17.6753 14.6919 18.0151 15.1138 18.0151C15.5474 18.0151 15.8989 17.6753 15.8989 17.2417C15.8989 11.4761 20.5747 6.76513 26.3521 6.76513Z" fill="black" fill-opacity="0.85"/>
<path d="M26.3521 4.21045C26.7739 4.21045 27.1255 3.85888 27.1255 3.43701C27.1255 3.01513 26.7739 2.67529 26.3521 2.67529C18.2895 2.67529 11.7856 9.1792 11.7856 17.2417C11.7856 17.6753 12.1255 18.0151 12.5474 18.0151C12.981 18.0151 13.3208 17.6753 13.3208 17.2417C13.3208 10.0581 19.1567 4.21045 26.3521 4.21045Z" fill="black" fill-opacity="0.85"/>
<path d="M26.3521 1.64404C26.7739 1.64404 27.1255 1.3042 27.1255 0.882324C27.1255 0.448731 26.7739 0.108887 26.3521 0.108887C16.8716 0.108887 9.23096 7.76123 9.23096 17.2417C9.23096 17.6753 9.5708 18.0151 9.98096 18.0151C10.4145 18.0151 10.7661 17.6753 10.7661 17.2417C10.7661 8.64013 17.7388 1.64404 26.3521 1.64404Z" fill="black" fill-opacity="0.85"/>
<path d="M4.78955 24.3198H16.8833C20.1411 24.3198 22.6724 21.8472 22.6724 18.6831C22.6724 15.5308 20.1294 13.1519 16.7778 13.0815C15.4536 10.6441 13.0981 9.13232 10.3442 9.13232C6.61768 9.13232 3.51221 12.0034 3.12549 15.6948C1.27392 16.2808 0.00830078 17.9097 0.00830078 19.9487C0.00830078 22.5034 1.93018 24.3198 4.78955 24.3198Z" fill="black" fill-opacity="0.85"/>
</g>
<defs>
<clipPath id="clip0_2207_4911">
<rect width="27.1172" height="24.2695" fill="white" transform="translate(0.00830078 0.050293)"/>
</clipPath>
</defs>
</svg>
