<svg width="24" height="24" viewBox="0 0 24 24" fill="none" xmlns="http://www.w3.org/2000/svg">
<g clip-path="url(#clip0_2207_4318)">
<path d="M11.9531 23.9565C18.4922 23.9565 23.9062 18.5308 23.9062 12.0034C23.9062 5.46435 18.4805 0.050293 11.9414 0.050293C5.41406 0.050293 0 5.46435 0 12.0034C0 18.5308 5.42578 23.9565 11.9531 23.9565ZM11.9531 21.9644C6.42188 21.9644 2.00391 17.5347 2.00391 12.0034C2.00391 6.47217 6.41016 2.04248 11.9414 2.04248C17.4727 2.04248 21.9141 6.47217 21.9141 12.0034C21.9141 17.5347 17.4844 21.9644 11.9531 21.9644Z" fill="black" fill-opacity="0.85"/>
<path d="M8.17969 13.5737H15.1641C16.9805 13.5737 18.375 12.1675 18.375 10.4448C18.375 8.65185 16.9102 7.33935 15.0117 7.33935C14.2969 5.95654 12.9961 5.0542 11.3789 5.0542C9.26953 5.0542 7.52344 6.71826 7.32422 8.81591C6.31641 9.10888 5.54297 9.98779 5.54297 11.1714C5.54297 12.4956 6.50391 13.5737 8.17969 13.5737ZM8.03906 16.9019L8.87109 15.4605C9.01172 15.2144 8.92969 14.8745 8.67188 14.7339C8.41406 14.5815 8.09766 14.6753 7.94531 14.9331L7.11328 16.3628C6.96094 16.6206 7.04297 16.9605 7.3125 17.1011C7.57031 17.2534 7.88672 17.1597 8.03906 16.9019ZM9.69141 18.7065L11.5781 15.4605C11.7188 15.2026 11.6367 14.8745 11.3672 14.7339C11.1211 14.5815 10.8047 14.6636 10.6523 14.9331L8.76562 18.1792C8.625 18.4253 8.70703 18.7651 8.97656 18.9058C9.22266 19.0581 9.53906 18.9644 9.69141 18.7065ZM13.4297 16.9019L14.2617 15.4605C14.4141 15.2144 14.332 14.8745 14.0625 14.7339C13.8164 14.5815 13.4883 14.6753 13.3477 14.9331L12.5039 16.3628C12.3633 16.6206 12.4453 16.9605 12.7148 17.1011C12.9609 17.2534 13.2773 17.1597 13.4297 16.9019ZM15.082 18.7065L16.9688 15.4605C17.1211 15.2026 17.0273 14.8745 16.7695 14.7339C16.5117 14.5815 16.1953 14.6636 16.043 14.9331L14.168 18.1792C14.0156 18.4253 14.0977 18.7651 14.3672 18.9058C14.6133 19.0581 14.9414 18.9644 15.082 18.7065Z" fill="black" fill-opacity="0.85"/>
</g>
<defs>
<clipPath id="clip0_2207_4318">
<rect width="23.9062" height="23.918" fill="white" transform="translate(0 0.050293)"/>
</clipPath>
</defs>
</svg>
