<svg width="24" height="24" viewBox="0 0 24 24" fill="none" xmlns="http://www.w3.org/2000/svg">
<g id="cloud.sun.circle" clip-path="url(#clip0_2124_12570)">
<g id="Group">
<path id="Vector" d="M11.9531 23.9062C18.4922 23.9062 23.9062 18.4805 23.9062 11.9531C23.9062 5.41406 18.4805 0 11.9414 0C5.41406 0 0 5.41406 0 11.9531C0 18.4805 5.42578 23.9062 11.9531 23.9062ZM11.9531 21.9141C6.42188 21.9141 2.00391 17.4844 2.00391 11.9531C2.00391 6.42188 6.41016 1.99219 11.9414 1.99219C17.4727 1.99219 21.9141 6.42188 21.9141 11.9531C21.9141 17.4844 17.4844 21.9141 11.9531 21.9141Z" fill="black" fill-opacity="0.85"/>
<path id="Vector_2" d="M6.26953 16.8516H12.4102C14.0859 16.8516 15.3516 15.5977 15.3516 13.957C15.3516 12.3633 14.0742 11.1445 12.3516 11.1094C11.6836 9.86719 10.5117 9.09375 9.08203 9.09375C7.19531 9.09375 5.61328 10.5586 5.41406 12.4219C4.47656 12.7266 3.80859 13.5586 3.80859 14.6016C3.80859 15.9023 4.80469 16.8516 6.26953 16.8516ZM11.2266 8.58984C11.4375 8.8125 11.8125 8.78906 12.0352 8.57812C12.2227 8.36719 12.2344 8.00391 12.0352 7.79297L11.1328 6.91406C10.9102 6.70312 10.5586 6.70312 10.3477 6.91406C10.1484 7.11328 10.1484 7.47656 10.3477 7.69922L11.2266 8.58984ZM14.5664 7.52344C14.8828 7.52344 15.1289 7.26562 15.1289 6.96094V5.71875C15.1289 5.40234 14.8828 5.15625 14.5664 5.15625C14.2617 5.15625 13.9922 5.40234 13.9922 5.71875V6.96094C13.9922 7.26562 14.2617 7.52344 14.5664 7.52344ZM17.1094 8.57812C17.3203 8.78906 17.707 8.8125 17.918 8.58984L18.7969 7.69922C18.9961 7.47656 18.9961 7.11328 18.7969 6.91406C18.5742 6.70312 18.2109 6.69141 17.9883 6.91406L17.1094 7.79297C16.8984 8.00391 16.9102 8.36719 17.1094 8.57812ZM18.7383 11.6836H19.957C20.2734 11.6836 20.5195 11.4258 20.5195 11.1211C20.5195 10.8047 20.2734 10.5703 19.957 10.5703H18.7383C18.4219 10.5703 18.1641 10.8047 18.1641 11.1211C18.1641 11.4258 18.4219 11.6836 18.7383 11.6836ZM17.9883 15.3516C18.2109 15.5859 18.5742 15.5508 18.7969 15.3398C18.9961 15.1172 19.0078 14.7539 18.7969 14.5547L17.918 13.6875C17.6953 13.4648 17.332 13.4648 17.1094 13.6875C16.9102 13.8984 16.8984 14.25 17.1094 14.4727L17.9883 15.3516ZM17.4609 11.1211C17.4609 9.50391 16.1719 8.23828 14.5664 8.23828C13.5703 8.23828 12.6914 8.73047 12.1875 9.49219C12.4453 9.72656 12.668 9.98438 12.8555 10.2891C14.6367 10.5234 16.0078 11.8125 16.1836 13.5234C16.9805 12.9609 17.4609 12.0938 17.4609 11.1211Z" fill="black" fill-opacity="0.85"/>
</g>
</g>
<defs>
<clipPath id="clip0_2124_12570">
<rect width="23.9062" height="23.918" fill="white"/>
</clipPath>
</defs>
</svg>
