<svg width="24" height="24" viewBox="0 0 24 24" fill="none" xmlns="http://www.w3.org/2000/svg">
<g clip-path="url(#clip0_2207_4555)">
<path d="M12.0014 23.9683C18.5405 23.9683 23.9545 18.5542 23.9545 12.0151C23.9545 5.48779 18.5288 0.0620117 11.9897 0.0620117C5.4624 0.0620117 0.0483398 5.48779 0.0483398 12.0151C0.0483398 18.5542 5.47412 23.9683 12.0014 23.9683Z" fill="black" fill-opacity="0.85"/>
<path d="M6.30615 15.4253C4.87646 15.4253 3.91553 14.4995 3.91553 13.2339C3.91553 12.2026 4.56006 11.4058 5.4624 11.0894C5.67334 9.27295 7.22022 7.84326 9.04834 7.84326C10.4428 7.84326 11.5913 8.60498 12.2358 9.81201C13.9233 9.84717 15.1772 11.0425 15.1772 12.5894C15.1772 14.1831 13.935 15.4253 12.3061 15.4253H6.30615ZM11.1342 7.36279L10.2788 6.4956C10.0795 6.27295 10.0795 5.90967 10.2788 5.72217C10.5014 5.51123 10.8413 5.51123 11.0639 5.72217L11.9311 6.57763C12.1421 6.77685 12.1186 7.14013 11.9311 7.35107C11.7202 7.55029 11.3569 7.57373 11.1342 7.36279ZM14.3921 6.3081C14.0991 6.3081 13.8413 6.06201 13.8413 5.76904V4.56201C13.8413 4.25732 14.0991 4.01123 14.3921 4.01123C14.7085 4.01123 14.9545 4.25732 14.9545 4.56201V5.76904C14.9545 6.06201 14.7085 6.3081 14.3921 6.3081ZM16.8764 7.35107C16.6889 7.14013 16.6655 6.77685 16.8764 6.57763L17.7436 5.72217C17.9663 5.49951 18.3061 5.51123 18.5171 5.72217C18.7163 5.90967 18.728 6.27295 18.5171 6.4956L17.6733 7.36279C17.4624 7.57373 17.0874 7.55029 16.8764 7.35107ZM18.4585 10.3745C18.1772 10.3745 17.9194 10.1284 17.9194 9.82373C17.9194 9.50732 18.1772 9.27295 18.4585 9.27295H19.6538C19.9702 9.27295 20.2163 9.50732 20.2163 9.82373C20.2163 10.1284 19.9702 10.3745 19.6538 10.3745H18.4585ZM17.7436 13.9722L16.8764 13.1167C16.6655 12.8941 16.6889 12.5308 16.8764 12.3198C17.0991 12.1206 17.4624 12.1206 17.6733 12.3198L18.5171 13.1636C18.728 13.3628 18.7163 13.7261 18.5171 13.9605C18.3061 14.148 17.9663 14.1714 17.7436 13.9722ZM17.228 9.82373C17.228 10.773 16.7592 11.6284 15.9858 12.1792C15.81 10.5034 14.4741 9.23779 12.7397 9.02685C12.5405 8.72217 12.3413 8.46435 12.0835 8.22998C12.5756 7.4917 13.4428 7.01123 14.3921 7.01123C15.9741 7.01123 17.228 8.25341 17.228 9.82373ZM6.78662 17.9917C6.66943 18.1909 6.3999 18.2612 6.18896 18.1441C5.97803 18.0386 5.90772 17.7573 6.0249 17.5464L6.70459 16.3745C6.8335 16.1636 7.09131 16.0815 7.30225 16.2105C7.53662 16.3276 7.60693 16.5972 7.46631 16.8081L6.78662 17.9917ZM8.3335 19.2691C8.21631 19.48 7.93506 19.562 7.72412 19.4448C7.51318 19.3159 7.41943 19.0464 7.54834 18.8355L8.19287 17.7222C8.3335 17.5112 8.57959 17.4409 8.80225 17.5581C9.03662 17.6753 9.0835 17.9565 8.96631 18.1558L8.3335 19.2691ZM10.6889 17.98C10.5717 18.1909 10.3139 18.2495 10.0795 18.1441C9.86865 18.0269 9.82178 17.7456 9.92725 17.5347L10.5952 16.3511C10.7241 16.1519 10.9936 16.0933 11.2045 16.2105C11.4155 16.3394 11.4975 16.5972 11.3803 16.8198L10.6889 17.98ZM12.2241 19.2808C12.1069 19.48 11.8374 19.562 11.6264 19.4448C11.4038 19.3159 11.3217 19.0464 11.4506 18.8355L12.0952 17.7222C12.2358 17.523 12.4936 17.4409 12.6928 17.5581C12.9155 17.6636 12.9858 17.9565 12.8803 18.1558L12.2241 19.2808Z" fill="white"/>
</g>
<defs>
<clipPath id="clip0_2207_4555">
<rect width="23.9062" height="23.918" fill="white" transform="translate(0.0483398 0.050293)"/>
</clipPath>
</defs>
</svg>
