<svg width="24" height="24" viewBox="0 0 24 24" fill="none" xmlns="http://www.w3.org/2000/svg">
<g id="cloud.drizzle.circle.fill" clip-path="url(#clip0_2124_12353)">
<g id="Group">
<path id="Vector" d="M11.9531 23.918C18.4922 23.918 23.9062 18.5039 23.9062 11.9648C23.9062 5.4375 18.4805 0.0117188 11.9414 0.0117188C5.41406 0.0117188 0 5.4375 0 11.9648C0 18.5039 5.42578 23.918 11.9531 23.918Z" fill="black" fill-opacity="0.85"/>
<path id="Vector_2" d="M8.07422 13.582C6.35156 13.582 5.35547 12.4688 5.35547 11.1094C5.35547 9.89062 6.15234 8.97656 7.19531 8.67188C7.39453 6.51562 9.19922 4.80469 11.3672 4.80469C13.043 4.80469 14.3789 5.74219 15.1172 7.17188C17.0742 7.17188 18.5859 8.50781 18.5859 10.3594C18.5859 12.1523 17.1445 13.582 15.2695 13.582H8.07422ZM8.4375 17.0273C8.29688 17.2969 7.95703 17.3906 7.69922 17.2383C7.41797 17.0859 7.33594 16.7344 7.48828 16.4766L8.34375 15C8.49609 14.7305 8.83594 14.6484 9.09375 14.7891C9.36328 14.9531 9.45703 15.293 9.29297 15.5508L8.4375 17.0273ZM10.4531 18.832C10.3008 19.0781 9.97266 19.1836 9.71484 19.0312C9.43359 18.8789 9.35156 18.5391 9.50391 18.2695L10.3711 16.793C10.5117 16.5352 10.8516 16.4297 11.1094 16.582C11.3906 16.7344 11.4727 17.0742 11.3086 17.3438L10.4531 18.832ZM13.5469 17.0156C13.4062 17.2852 13.0664 17.3789 12.8086 17.2266C12.5273 17.0742 12.4453 16.7227 12.6094 16.4648L13.4648 14.9883C13.6055 14.7188 13.9453 14.6367 14.2031 14.7773C14.4844 14.9414 14.5664 15.2812 14.4023 15.5391L13.5469 17.0156ZM15.5625 18.832C15.4219 19.0781 15.082 19.1836 14.8242 19.0312C14.5547 18.8789 14.4609 18.5391 14.625 18.2695L15.4805 16.793C15.6211 16.5352 15.9609 16.4297 16.2188 16.582C16.5 16.7344 16.582 17.0742 16.4414 17.3438L15.5625 18.832Z" fill="white"/>
</g>
</g>
<defs>
<clipPath id="clip0_2124_12353">
<rect width="23.9062" height="23.918" fill="white"/>
</clipPath>
</defs>
</svg>
