<svg width="24" height="24" viewBox="0 0 24 24" fill="none" xmlns="http://www.w3.org/2000/svg">
<g clip-path="url(#clip0_2207_4292)">
<path d="M11.993 23.9553C18.5321 23.9553 23.9461 18.5296 23.9461 12.0022C23.9461 5.46313 18.5204 0.0490723 11.9813 0.0490723C5.45398 0.0490723 0.039917 5.46313 0.039917 12.0022C0.039917 18.5296 5.4657 23.9553 11.993 23.9553ZM11.993 21.9632C6.4618 21.9632 2.04383 17.5335 2.04383 12.0022C2.04383 6.47095 6.45008 2.04126 11.9813 2.04126C17.5126 2.04126 21.954 6.47095 21.954 12.0022C21.954 17.5335 17.5243 21.9632 11.993 21.9632Z" fill="black" fill-opacity="0.85"/>
<path d="M8.21961 13.5725H15.204C17.0204 13.5725 18.4149 12.1663 18.4149 10.4436C18.4149 8.65063 16.9501 7.33813 15.0516 7.33813C14.3368 5.95532 13.036 5.05298 11.4188 5.05298C9.30945 5.05298 7.56336 6.71704 7.36414 8.81469C6.35633 9.10766 5.58289 9.98657 5.58289 11.1702C5.58289 12.4944 6.54383 13.5725 8.21961 13.5725ZM8.57117 16.9124L9.4032 15.471C9.55554 15.2249 9.47351 14.885 9.20398 14.7444C8.95789 14.5921 8.62976 14.6858 8.48914 14.9436L7.65711 16.3733C7.50476 16.6311 7.5868 16.971 7.85633 17.1116C8.10242 17.2639 8.43054 17.1702 8.57117 16.9124ZM10.5282 18.6468L11.3602 17.2171C11.5126 16.9593 11.4305 16.6311 11.161 16.4788C10.9149 16.3382 10.5868 16.4319 10.4461 16.678L9.60242 18.1194C9.4618 18.3772 9.54383 18.7053 9.81336 18.8577C10.0594 18.9983 10.3758 18.9046 10.5282 18.6468ZM13.5282 16.9007L14.3602 15.4593C14.5126 15.2132 14.4305 14.8733 14.161 14.7327C13.9149 14.5803 13.5868 14.6741 13.4461 14.9319L12.6141 16.3616C12.4618 16.6194 12.5438 16.9593 12.8133 17.0999C13.0594 17.2522 13.3876 17.1585 13.5282 16.9007ZM15.4852 18.6468L16.329 17.2171C16.4696 16.9593 16.3876 16.6311 16.118 16.4788C15.8719 16.3382 15.5438 16.4319 15.4032 16.678L14.5711 18.1194C14.4188 18.3772 14.5008 18.7053 14.7704 18.8577C15.0165 18.9983 15.3446 18.9046 15.4852 18.6468Z" fill="black" fill-opacity="0.85"/>
</g>
<defs>
<clipPath id="clip0_2207_4292">
<rect width="23.9062" height="23.918" fill="white" transform="translate(0.039917 0.0490723)"/>
</clipPath>
</defs>
</svg>
