<svg width="27" height="27" viewBox="0 0 27 27" fill="none" xmlns="http://www.w3.org/2000/svg">
<g id="cloud.drizzle.fill" clip-path="url(#clip0_2124_12340)">
<g id="Group">
<path id="Vector" d="M18.8085 26.5695L20.3319 23.9327C20.5429 23.5695 20.4257 23.1593 20.0741 22.9601C19.7226 22.7491 19.3241 22.8663 19.1132 23.2296L17.5663 25.8898C17.3788 26.2296 17.4726 26.6398 17.8358 26.839C18.1874 27.0382 18.6093 26.921 18.8085 26.5695Z" fill="black" fill-opacity="0.85"/>
<path id="Vector_2" d="M15.1406 23.2765L16.6641 20.6281C16.875 20.2765 16.7578 19.8663 16.4062 19.6554C16.0547 19.4562 15.6562 19.5616 15.4453 19.9249L13.9102 22.5968C13.7109 22.9249 13.8047 23.3351 14.168 23.546C14.5195 23.7452 14.9414 23.6163 15.1406 23.2765Z" fill="black" fill-opacity="0.85"/>
<path id="Vector_3" d="M9.48046 26.5812L11.0039 23.9445C11.2148 23.5812 11.1094 23.171 10.7578 22.9718C10.3945 22.7609 9.99608 22.8781 9.78515 23.2413L8.24999 25.9015C8.05077 26.2413 8.15624 26.6515 8.5078 26.8507C8.85937 27.0499 9.28124 26.9327 9.48046 26.5812Z" fill="black" fill-opacity="0.85"/>
<path id="Vector_4" d="M5.81253 23.2882L7.33597 20.6398C7.55862 20.2882 7.44144 19.8781 7.08987 19.6671C6.73831 19.4679 6.33987 19.5734 6.11722 19.9366L4.58206 22.6085C4.38284 22.9366 4.48831 23.3468 4.85159 23.5577C5.19144 23.757 5.61331 23.6281 5.81253 23.2882Z" fill="black" fill-opacity="0.85"/>
<path id="Vector_5" d="M5.50781 17.8038H20.0508C23.8945 17.8038 26.7539 14.8859 26.7539 11.2765C26.7539 7.53821 23.707 4.80774 19.7344 4.80774C18.2695 1.91321 15.5508 0.0499268 12.1641 0.0499268C7.75781 0.0499268 4.125 3.50696 3.73828 7.85462C1.61719 8.47571 0 10.3156 0 12.7882C0 15.5656 2.01562 17.8038 5.50781 17.8038Z" fill="black" fill-opacity="0.85"/>
</g>
</g>
<defs>
<clipPath id="clip0_2124_12340">
<rect width="26.7539" height="26.9475" fill="white"/>
</clipPath>
</defs>
</svg>
