<svg width="33" height="23" viewBox="0 0 33 23" fill="none" xmlns="http://www.w3.org/2000/svg">
<g id="cloud.moon.fill" clip-path="url(#clip0_2124_12646)">
<g id="Group">
<path id="Vector" d="M25.1836 14.5898C29.8477 14.5898 32.0977 10.9688 32.0977 9.0352C32.0977 8.57816 31.8984 8.25003 31.5234 8.25003C30.9492 8.25003 30.0938 9.00004 28.4414 9.00004C25.5352 9.00004 23.8125 7.33597 23.8125 4.65237C23.8125 3.09378 24.6328 1.96878 24.6328 1.34769C24.6328 0.98441 24.3867 0.738316 23.918 0.750035C21.5273 0.843785 18.3164 3.70316 18.3164 7.66409C18.3164 11.543 21.3164 14.5898 25.1836 14.5898Z" fill="black" fill-opacity="0.85"/>
<path id="Vector_2" d="M6.31641 22.0195H18.9961C23.1211 22.0195 26.3555 18.8555 26.3555 14.8008C26.3555 11.0156 23.4844 8.10939 19.6406 7.71095C17.9531 5.05079 15.2344 3.51562 12.1289 3.51562C7.86328 3.51562 4.21875 6.59766 3.41016 10.7344C1.3125 11.7188 0 13.7461 0 16.1367C0 19.582 2.64844 22.0195 6.31641 22.0195Z" fill="white"/>
<path id="Vector_3" d="M6.31641 20.5664H18.9961C22.3242 20.5664 24.9023 18.0469 24.9023 14.8008C24.9023 11.5781 22.2773 9.14062 18.7734 9.11719C17.4023 6.49219 14.9531 4.96875 12.1289 4.96875C8.30859 4.96875 5.08595 7.93359 4.72267 11.7891C2.73048 12.3867 1.45312 14.0742 1.45312 16.1367C1.45312 18.7617 3.43359 20.5664 6.31641 20.5664Z" fill="black" fill-opacity="0.85"/>
</g>
</g>
<defs>
<clipPath id="clip0_2124_12646">
<rect width="32.0977" height="22.0195" fill="white"/>
</clipPath>
</defs>
</svg>
