<svg width="24" height="24" viewBox="0 0 24 24" fill="none" xmlns="http://www.w3.org/2000/svg">
<g clip-path="url(#clip0_2207_4550)">
<path d="M11.9992 23.9565C18.5383 23.9565 23.9523 18.5308 23.9523 12.0034C23.9523 5.46435 18.5266 0.050293 11.9875 0.050293C5.4602 0.050293 0.0461426 5.46435 0.0461426 12.0034C0.0461426 18.5308 5.47192 23.9565 11.9992 23.9565ZM11.9992 21.9644C6.46802 21.9644 2.05005 17.5347 2.05005 12.0034C2.05005 6.47217 6.4563 2.04248 11.9875 2.04248C17.5188 2.04248 21.9602 6.47217 21.9602 12.0034C21.9602 17.5347 17.5305 21.9644 11.9992 21.9644Z" fill="black" fill-opacity="0.85"/>
<path d="M6.47973 15.3081H12.2922C13.8742 15.3081 15.0813 14.1011 15.0813 12.5542C15.0813 11.0425 13.8625 9.88233 12.2336 9.84718C11.6008 8.6753 10.4875 7.94874 9.13989 7.94874C7.35864 7.94874 5.85864 9.33155 5.65942 11.1011C4.78052 11.3941 4.15942 12.1792 4.15942 13.1753C4.15942 14.3941 5.0852 15.3081 6.47973 15.3081ZM11.1672 7.46827C11.3781 7.67921 11.7297 7.65577 11.9289 7.46827C12.1164 7.26905 12.1399 6.91749 11.9289 6.71827L11.0852 5.88624C10.8742 5.68702 10.5461 5.68702 10.3352 5.88624C10.1359 6.07374 10.1359 6.41358 10.3352 6.62452L11.1672 7.46827ZM14.3195 6.46046C14.6242 6.46046 14.8586 6.22608 14.8586 5.93311V4.74952C14.8586 4.46827 14.6242 4.22218 14.3195 4.22218C14.0383 4.22218 13.7922 4.46827 13.7922 4.74952V5.93311C13.7922 6.22608 14.0383 6.46046 14.3195 6.46046ZM16.7336 7.45655C16.9328 7.65577 17.2961 7.67921 17.507 7.46827L18.3273 6.62452C18.5266 6.4253 18.5149 6.07374 18.3273 5.88624C18.1164 5.68702 17.7883 5.6753 17.5773 5.88624L16.7336 6.71827C16.5227 6.91749 16.5461 7.25733 16.7336 7.45655ZM18.2688 10.398H19.4289C19.7336 10.398 19.968 10.1636 19.968 9.87061C19.968 9.56592 19.7336 9.34327 19.4289 9.34327H18.2688C17.9875 9.34327 17.7414 9.56592 17.7414 9.87061C17.7414 10.1636 17.9875 10.398 18.2688 10.398ZM17.5773 13.8784C17.7883 14.0894 18.1164 14.0659 18.3273 13.8667C18.5149 13.6558 18.5266 13.3042 18.3273 13.1167L17.507 12.2964C17.2961 12.0972 16.9445 12.0972 16.7336 12.2964C16.5461 12.4956 16.5227 12.8472 16.7336 13.0464L17.5773 13.8784ZM17.0734 9.87061C17.0734 8.33546 15.8547 7.14014 14.3195 7.14014C13.3938 7.14014 12.5617 7.60889 12.0813 8.32374C12.3273 8.54639 12.5266 8.79249 12.7141 9.08546C14.4016 9.30811 15.6906 10.5269 15.8664 12.1441C16.6164 11.6167 17.0734 10.7964 17.0734 9.87061ZM6.93676 17.7925L7.60473 16.6441C7.73364 16.4331 7.66333 16.187 7.44067 16.0581C7.24145 15.9409 6.98364 16.023 6.86645 16.2222L6.19848 17.3706C6.09302 17.5581 6.15161 17.8394 6.36255 17.9331C6.56176 18.062 6.81958 17.9917 6.93676 17.7925ZM8.43676 19.0347L9.05786 17.9448C9.16333 17.7573 9.11645 17.4878 8.8938 17.3706C8.68286 17.2534 8.43676 17.3237 8.30786 17.5347L7.67505 18.6128C7.55786 18.812 7.63989 19.0815 7.85083 19.187C8.05005 19.3159 8.31958 19.2339 8.43676 19.0347ZM10.7219 17.7925L11.3899 16.6441C11.507 16.4448 11.425 16.187 11.2258 16.0698C11.0149 15.9409 10.757 16.0112 10.6399 16.2105L9.98364 17.3589C9.87817 17.5581 9.92505 17.8276 10.1359 17.9448C10.3586 18.0503 10.6047 17.98 10.7219 17.7925ZM12.2102 19.0347L12.843 17.9565C12.9484 17.7573 12.8781 17.4761 12.6672 17.3706C12.468 17.2651 12.2219 17.3237 12.093 17.5347L11.4602 18.6128C11.3313 18.8237 11.4133 19.0815 11.6359 19.1987C11.8352 19.3159 12.093 19.2339 12.2102 19.0347Z" fill="black" fill-opacity="0.85"/>
</g>
<defs>
<clipPath id="clip0_2207_4550">
<rect width="23.9062" height="23.918" fill="white" transform="translate(0.0461426 0.050293)"/>
</clipPath>
</defs>
</svg>
