<svg width="24" height="24" viewBox="0 0 24 24" fill="none" xmlns="http://www.w3.org/2000/svg">
<g clip-path="url(#clip0_2207_4366)">
<path d="M12.0035 23.9553C18.5426 23.9553 23.9566 18.5296 23.9566 12.0022C23.9566 5.46313 18.5309 0.0490723 11.9918 0.0490723C5.46447 0.0490723 0.050415 5.46313 0.050415 12.0022C0.050415 18.5296 5.4762 23.9553 12.0035 23.9553ZM12.0035 21.9632C6.4723 21.9632 2.05433 17.5335 2.05433 12.0022C2.05433 6.47095 6.46057 2.04126 11.9918 2.04126C17.5231 2.04126 21.9645 6.47095 21.9645 12.0022C21.9645 17.5335 17.5348 21.9632 12.0035 21.9632Z" fill="black" fill-opacity="0.85"/>
<path d="M8.32386 13.4905H15.2965C17.1246 13.4905 18.5074 12.096 18.5074 10.3616C18.5074 8.5686 17.0426 7.26782 15.1442 7.26782C14.441 5.88501 13.1402 4.97095 11.5231 4.97095C9.40198 4.97095 7.66761 6.63501 7.46839 8.73266C6.46058 9.02563 5.67542 9.90454 5.67542 11.0882C5.67542 12.4124 6.64808 13.4905 8.32386 13.4905ZM7.91369 15.9514H16.0934C16.3863 15.9514 16.6324 15.7171 16.6324 15.4124C16.6324 15.1194 16.3863 14.885 16.0934 14.885H7.91369C7.62072 14.885 7.38635 15.1194 7.38635 15.4124C7.38635 15.7171 7.62072 15.9514 7.91369 15.9514ZM7.91369 18.3303H16.0934C16.3863 18.3303 16.6324 18.096 16.6324 17.803C16.6324 17.51 16.3863 17.2757 16.0934 17.2757H7.91369C7.62072 17.2757 7.38635 17.51 7.38635 17.803C7.38635 18.096 7.62072 18.3303 7.91369 18.3303Z" fill="black" fill-opacity="0.85"/>
</g>
<defs>
<clipPath id="clip0_2207_4366">
<rect width="23.9062" height="23.918" fill="white" transform="translate(0.050415 0.0490723)"/>
</clipPath>
</defs>
</svg>
