<svg width="27" height="27" viewBox="0 0 27 27" fill="none" xmlns="http://www.w3.org/2000/svg">
<g clip-path="url(#clip0_2207_4354)">
<path d="M21.1655 24.4944H5.91943C5.50928 24.4944 5.18115 24.8108 5.18115 25.2327C5.18115 25.6546 5.50928 25.9827 5.91943 25.9827H21.1655C21.5756 25.9827 21.9038 25.6546 21.9038 25.2327C21.9038 24.8108 21.5756 24.4944 21.1655 24.4944Z" fill="black" fill-opacity="0.85"/>
<path d="M21.1655 20.5218H5.91943C5.50928 20.5218 5.18115 20.8382 5.18115 21.26C5.18115 21.6819 5.50928 21.9983 5.91943 21.9983H21.1655C21.5756 21.9983 21.9038 21.6819 21.9038 21.26C21.9038 20.8382 21.5756 20.5218 21.1655 20.5218Z" fill="black" fill-opacity="0.85"/>
<path d="M5.55615 17.803H20.0991C23.9428 17.803 26.8022 14.885 26.8022 11.2757C26.8022 7.53735 23.7553 4.80688 19.7827 4.80688C18.3178 1.91235 15.5991 0.0490723 12.2124 0.0490723C7.80615 0.0490723 4.17334 3.5061 3.78662 7.85376C1.66553 8.47485 0.0483398 10.3147 0.0483398 12.7874C0.0483398 15.5647 2.06396 17.803 5.55615 17.803ZM5.53272 15.928C3.13037 15.928 1.92334 14.5803 1.92334 12.846C1.92334 11.4397 2.74365 10.1741 4.73584 9.64673C5.38037 9.47095 5.61475 9.16626 5.67334 8.51001C5.94287 4.67798 8.81396 1.92407 12.2124 1.92407C14.8491 1.92407 16.9233 3.37719 18.1889 5.96704C18.4585 6.54126 18.81 6.74048 19.5014 6.74048C22.9702 6.74048 24.9272 8.82641 24.9272 11.3225C24.9272 13.8772 22.8881 15.928 20.2163 15.928H5.53272Z" fill="black" fill-opacity="0.85"/>
</g>
<defs>
<clipPath id="clip0_2207_4354">
<rect width="26.7539" height="26.8477" fill="white" transform="translate(0.0483398 0.0490723)"/>
</clipPath>
</defs>
</svg>
