<svg width="24" height="24" viewBox="0 0 24 24" fill="none" xmlns="http://www.w3.org/2000/svg">
<g id="cloud.moon.rain.circle" clip-path="url(#clip0_2124_12682)">
<g id="Group">
<path id="Vector" d="M11.9531 23.9062C18.4922 23.9062 23.9062 18.4805 23.9062 11.9531C23.9062 5.41406 18.4805 0 11.9414 0C5.41406 0 0 5.41406 0 11.9531C0 18.4805 5.42578 23.9062 11.9531 23.9062ZM11.9531 21.9141C6.42188 21.9141 2.00391 17.4844 2.00391 11.9531C2.00391 6.42188 6.41016 1.99219 11.9414 1.99219C17.4727 1.99219 21.9141 6.42188 21.9141 11.9531C21.9141 17.4844 17.4844 21.9141 11.9531 21.9141Z" fill="black" fill-opacity="0.85"/>
<path id="Vector_2" d="M6.90234 14.7773H12.7148C14.2969 14.7773 15.5039 13.5703 15.5039 12.0234C15.5039 10.5117 14.2852 9.36324 12.668 9.32808C12.0352 8.14449 10.9102 7.41793 9.5625 7.41793C7.78125 7.41793 6.28125 8.80074 6.09375 10.5703C5.20312 10.875 4.58203 11.6484 4.58203 12.6445C4.58203 13.875 5.51953 14.7773 6.90234 14.7773ZM7.35938 17.2617L8.02734 16.1133C8.15625 15.9141 8.08594 15.6562 7.86328 15.5391C7.66406 15.4102 7.40625 15.4922 7.30078 15.6914L6.63281 16.8398C6.51562 17.0391 6.57422 17.3086 6.78516 17.4141C6.98438 17.5312 7.25391 17.4609 7.35938 17.2617ZM8.85938 18.5039L9.48047 17.4258C9.59766 17.2266 9.53906 16.957 9.31641 16.8398C9.10547 16.7344 8.85938 16.793 8.73047 17.0039L8.09766 18.082C7.98047 18.293 8.0625 18.5508 8.28516 18.668C8.47266 18.7852 8.74219 18.7031 8.85938 18.5039ZM11.1445 17.2617L11.8125 16.125C11.9414 15.9141 11.8594 15.668 11.6484 15.5391C11.4375 15.4219 11.1797 15.4805 11.0625 15.6797L10.4062 16.8281C10.3008 17.0273 10.3477 17.2969 10.5703 17.4141C10.7812 17.5195 11.0273 17.4492 11.1445 17.2617ZM12.6328 18.5156L13.2656 17.4258C13.3711 17.2266 13.3125 16.9453 13.1016 16.8398C12.8906 16.7344 12.6445 16.8047 12.5156 17.0039L11.8828 18.082C11.7656 18.293 11.8477 18.5508 12.0586 18.668C12.2578 18.7852 12.5156 18.7031 12.6328 18.5156ZM19.3594 9.03512C19.3594 8.82418 19.2656 8.68355 19.0898 8.68355C18.832 8.68355 18.3984 9.01167 17.6484 9.01167C16.2773 9.01167 15.4102 8.2148 15.4102 6.94918C15.4102 6.22262 15.8203 5.69527 15.8203 5.39058C15.8203 5.22652 15.6797 5.10934 15.4688 5.12105C14.3555 5.16793 12.9727 6.48043 12.7852 8.09762C12.9141 8.23824 13.0195 8.39057 13.1367 8.54292C14.8711 8.75386 16.1484 10.043 16.3125 11.707C18.1992 11.5078 19.3594 10.0195 19.3594 9.03512Z" fill="black" fill-opacity="0.85"/>
</g>
</g>
<defs>
<clipPath id="clip0_2124_12682">
<rect width="23.9062" height="23.918" fill="white"/>
</clipPath>
</defs>
</svg>
