<svg width="24" height="24" viewBox="0 0 24 24" fill="none" xmlns="http://www.w3.org/2000/svg">
<g id="cloud.moon.bolt.circle" clip-path="url(#clip0_2124_12706)">
<g id="Group">
<path id="Vector" d="M11.9531 23.9062C18.4922 23.9062 23.9062 18.4805 23.9062 11.9531C23.9062 5.41406 18.4805 0 11.9414 0C5.41406 0 0 5.41406 0 11.9531C0 18.4805 5.42578 23.9062 11.9531 23.9062ZM11.9531 21.9141C6.42188 21.9141 2.00391 17.4844 2.00391 11.9531C2.00391 6.42188 6.41016 1.99219 11.9414 1.99219C17.4727 1.99219 21.9141 6.42188 21.9141 11.9531C21.9141 17.4844 17.4844 21.9141 11.9531 21.9141Z" fill="black" fill-opacity="0.85"/>
<path id="Vector_2" d="M6.90234 14.7773H12.7148C14.2969 14.7773 15.5039 13.5703 15.5039 12.0234C15.5039 10.5117 14.2852 9.36324 12.668 9.32808C12.0352 8.14449 10.9102 7.41793 9.5625 7.41793C7.78125 7.41793 6.28125 8.80074 6.09375 10.5703C5.20312 10.875 4.58203 11.6484 4.58203 12.6445C4.58203 13.875 5.51953 14.7773 6.90234 14.7773ZM19.3594 9.03512C19.3594 8.82418 19.2656 8.68355 19.0898 8.68355C18.832 8.68355 18.3984 9.01167 17.6484 9.01167C16.2773 9.01167 15.4102 8.2148 15.4102 6.94918C15.4102 6.22262 15.8203 5.69527 15.8203 5.39058C15.8203 5.22652 15.6797 5.10934 15.4688 5.12105C14.3555 5.16793 12.9727 6.48043 12.7852 8.09762C12.9141 8.23824 13.0195 8.39057 13.1367 8.54292C14.8711 8.75386 16.1484 10.043 16.3125 11.707C18.1992 11.5078 19.3594 10.0195 19.3594 9.03512ZM8.40234 17.3789C8.33203 17.5195 8.40234 17.6367 8.55469 17.6367H9.5625L8.77734 19.5352C8.71875 19.6875 8.89453 19.7812 9.02344 19.6523L11.6133 17.0156C11.7305 16.8867 11.6719 16.7109 11.4961 16.7109H10.3125L10.875 15.6445C10.9453 15.5156 10.8984 15.3984 10.7461 15.3984H9.48047C9.31641 15.3984 9.23438 15.457 9.17578 15.5859L8.40234 17.3789Z" fill="black" fill-opacity="0.85"/>
</g>
</g>
<defs>
<clipPath id="clip0_2124_12706">
<rect width="23.9062" height="23.918" fill="white"/>
</clipPath>
</defs>
</svg>
