<svg width="24" height="24" viewBox="0 0 24 24" fill="none" xmlns="http://www.w3.org/2000/svg">
<g id="cloud.rain.circle" clip-path="url(#clip0_2124_12374)">
<g id="Group">
<path id="Vector" d="M11.9531 23.9062C18.4922 23.9062 23.9062 18.4805 23.9062 11.9531C23.9062 5.41406 18.4805 0 11.9414 0C5.41406 0 0 5.41406 0 11.9531C0 18.4805 5.42578 23.9062 11.9531 23.9062ZM11.9531 21.9141C6.42188 21.9141 2.00391 17.4844 2.00391 11.9531C2.00391 6.42188 6.41016 1.99219 11.9414 1.99219C17.4727 1.99219 21.9141 6.42188 21.9141 11.9531C21.9141 17.4844 17.4844 21.9141 11.9531 21.9141Z" fill="black" fill-opacity="0.85"/>
<path id="Vector_2" d="M8.17969 13.5234H15.1641C16.9805 13.5234 18.375 12.1172 18.375 10.3945C18.375 8.60156 16.9102 7.28906 15.0117 7.28906C14.2969 5.90625 12.9961 5.00391 11.3789 5.00391C9.26953 5.00391 7.52344 6.66797 7.32422 8.76562C6.31641 9.05859 5.54297 9.9375 5.54297 11.1211C5.54297 12.4453 6.50391 13.5234 8.17969 13.5234ZM8.03906 16.8516L8.87109 15.4102C9.01172 15.1641 8.92969 14.8242 8.67188 14.6836C8.41406 14.5312 8.09766 14.625 7.94531 14.8828L7.11328 16.3125C6.96094 16.5703 7.04297 16.9102 7.3125 17.0508C7.57031 17.2031 7.88672 17.1094 8.03906 16.8516ZM9.69141 18.6562L11.5781 15.4102C11.7188 15.1523 11.6367 14.8242 11.3672 14.6836C11.1211 14.5312 10.8047 14.6133 10.6523 14.8828L8.76562 18.1289C8.625 18.375 8.70703 18.7148 8.97656 18.8555C9.22266 19.0078 9.53906 18.9141 9.69141 18.6562ZM13.4297 16.8516L14.2617 15.4102C14.4141 15.1641 14.332 14.8242 14.0625 14.6836C13.8164 14.5312 13.4883 14.625 13.3477 14.8828L12.5039 16.3125C12.3633 16.5703 12.4453 16.9102 12.7148 17.0508C12.9609 17.2031 13.2773 17.1094 13.4297 16.8516ZM15.082 18.6562L16.9688 15.4102C17.1211 15.1523 17.0273 14.8242 16.7695 14.6836C16.5117 14.5312 16.1953 14.6133 16.043 14.8828L14.168 18.1289C14.0156 18.375 14.0977 18.7148 14.3672 18.8555C14.6133 19.0078 14.9414 18.9141 15.082 18.6562Z" fill="black" fill-opacity="0.85"/>
</g>
</g>
<defs>
<clipPath id="clip0_2124_12374">
<rect width="23.9062" height="23.918" fill="white"/>
</clipPath>
</defs>
</svg>
