<svg width="31" height="21" viewBox="0 0 31 21" fill="none" xmlns="http://www.w3.org/2000/svg">
<g id="cloud.moon" clip-path="url(#clip0_2124_12640)">
<g id="Group">
<path id="Vector" d="M23.4492 14.3126C27.3164 14.3126 29.7891 12.0743 30.668 9.77746C31.0547 8.82824 30.5508 7.98449 29.6367 7.98449C28.9336 7.98449 28.3594 8.28918 27.1172 8.28918C24.1289 8.28918 22.5469 6.64856 22.5469 3.90637C22.5469 2.58215 22.957 1.85559 22.957 1.19934C22.957 0.2384 22.125 -0.242069 21.0938 0.121212C18.6094 0.929806 16.5 3.57824 16.5 6.91809C16.5 11.1017 19.5234 14.3126 23.4492 14.3126ZM23.4492 12.5665C20.3789 12.5665 18.2109 10.2111 18.2109 6.88293C18.2109 4.51574 19.5703 2.75793 21.1055 1.91418L21.2344 2.00793C21.0352 2.57043 20.8594 3.35559 20.8594 4.25793C20.8594 7.65637 23.3086 9.94152 26.7188 9.94152C27.5508 9.94152 28.3242 9.8009 28.8633 9.62512L28.9453 9.70715C28.1367 11.2306 26.0625 12.5665 23.4492 12.5665Z" fill="black" fill-opacity="0.85"/>
<path id="Vector_2" d="M4.96875 20.2657H17.6484C21.0352 20.2657 23.6719 17.6993 23.6719 14.3946C23.6719 11.1134 21.0117 8.64074 17.4961 8.59387C16.125 6.02746 13.6758 4.45715 10.7812 4.45715C6.90234 4.45715 3.65625 7.44543 3.26953 11.3009C1.32422 11.9103 0 13.5978 0 15.7306C0 18.3673 1.99219 20.2657 4.96875 20.2657Z" fill="white"/>
<path id="Vector_3" d="M4.96875 20.2657H17.6484C21.0352 20.2657 23.6719 17.6993 23.6719 14.3946C23.6719 11.1134 21.0117 8.64074 17.4961 8.59387C16.125 6.02746 13.6758 4.45715 10.7812 4.45715C6.90234 4.45715 3.65625 7.44543 3.26953 11.3009C1.32422 11.9103 0 13.5978 0 15.7306C0 18.3673 1.99219 20.2657 4.96875 20.2657ZM4.92188 18.3907C2.92969 18.3907 1.875 17.2423 1.875 15.7775C1.875 14.5353 2.60156 13.4454 4.32422 12.9767C4.88672 12.8361 5.09766 12.5782 5.14453 11.9806C5.41406 8.69934 7.85156 6.33215 10.7812 6.33215C13.0547 6.33215 14.8242 7.58606 15.9141 9.76574C16.1719 10.2696 16.4531 10.4454 17.0508 10.4454C20.0859 10.4454 21.7852 12.2736 21.7852 14.4532C21.7852 16.6329 20.0039 18.3907 17.6836 18.3907H4.92188Z" fill="black" fill-opacity="0.85"/>
</g>
</g>
<defs>
<clipPath id="clip0_2124_12640">
<rect width="30.7993" height="20.762" fill="white"/>
</clipPath>
</defs>
</svg>
