<svg width="24" height="24" viewBox="0 0 24 24" fill="none" xmlns="http://www.w3.org/2000/svg">
<g id="cloud.moon.circle" clip-path="url(#clip0_2124_12652)">
<g id="Group">
<path id="Vector" d="M11.9531 23.9062C18.4922 23.9062 23.9062 18.4805 23.9062 11.9531C23.9062 5.41406 18.4805 0 11.9414 0C5.41406 0 0 5.41406 0 11.9531C0 18.4805 5.42578 23.9062 11.9531 23.9062ZM11.9531 21.9141C6.42188 21.9141 2.00391 17.4844 2.00391 11.9531C2.00391 6.42188 6.41016 1.99219 11.9414 1.99219C17.4727 1.99219 21.9141 6.42188 21.9141 11.9531C21.9141 17.4844 17.4844 21.9141 11.9531 21.9141Z" fill="black" fill-opacity="0.85"/>
<path id="Vector_2" d="M6.65625 16.7578H12.8086C14.4727 16.7578 15.75 15.5039 15.75 13.8633C15.75 12.2578 14.4727 11.0508 12.7383 11.0039C12.082 9.76171 10.8984 9 9.48047 9C7.59375 9 6.01172 10.4648 5.80078 12.3164C4.86328 12.6328 4.20703 13.4648 4.20703 14.5078C4.20703 15.8086 5.20312 16.7578 6.65625 16.7578ZM19.7695 10.7461C19.7695 10.5117 19.6758 10.3594 19.4883 10.3594C19.207 10.3594 18.7734 10.7227 17.9766 10.7227C16.5352 10.7227 15.6211 9.86718 15.6211 8.54296C15.6211 7.76952 16.043 7.20703 16.043 6.90234C16.043 6.72656 15.9023 6.60938 15.6797 6.60938C14.5195 6.66796 13.0547 8.03906 12.8672 9.75C12.9961 9.89062 13.1133 10.0547 13.2305 10.2188C15.0469 10.4414 16.4062 11.7891 16.5586 13.5352C18.5625 13.3477 19.7695 11.7539 19.7695 10.7461Z" fill="black" fill-opacity="0.85"/>
</g>
</g>
<defs>
<clipPath id="clip0_2124_12652">
<rect width="23.9062" height="23.918" fill="white"/>
</clipPath>
</defs>
</svg>
