<svg width="27" height="28" viewBox="0 0 27 28" fill="none" xmlns="http://www.w3.org/2000/svg">
<g id="cloud.heavyrain.fill" clip-path="url(#clip0_2124_12392)">
<g id="Group">
<path id="Vector" d="M17.379 26.6636L20.8478 20.6636C21.047 20.3121 20.9415 19.8902 20.5899 19.7144C20.2501 19.5269 19.8399 19.6089 19.6407 19.9722L16.1954 25.9488C15.9845 26.3004 16.0899 26.7105 16.4298 26.9214C16.7579 27.1207 17.1915 27.0035 17.379 26.6636Z" fill="black" fill-opacity="0.85"/>
<path id="Vector_2" d="M12.7499 26.6519L16.1835 20.6871C16.3944 20.3121 16.289 19.9136 15.9374 19.7144C15.5741 19.5035 15.1757 19.6089 14.9647 19.9839L11.5194 25.9722C11.3319 26.3004 11.414 26.7105 11.7772 26.9214C12.1288 27.1207 12.5507 27.0035 12.7499 26.6519Z" fill="black" fill-opacity="0.85"/>
<path id="Vector_3" d="M8.08587 26.6519L11.5194 20.6871C11.7304 20.3121 11.6249 19.9136 11.2733 19.7144C10.9101 19.5035 10.5116 19.6089 10.3007 19.9839L6.8554 25.9722C6.6679 26.3004 6.74993 26.7105 7.11321 26.9214C7.46477 27.1207 7.88665 27.0035 8.08587 26.6519Z" fill="black" fill-opacity="0.85"/>
<path id="Vector_4" d="M3.41007 26.6519L6.85538 20.6871C7.06632 20.3121 6.94913 19.9136 6.59757 19.7144C6.246 19.5035 5.84757 19.6089 5.63663 19.9839L2.1796 25.9722C1.9921 26.3004 2.08585 26.7105 2.43741 26.9214C2.78897 27.1207 3.21085 27.0035 3.41007 26.6519Z" fill="black" fill-opacity="0.85"/>
<path id="Vector_5" d="M5.50781 17.8393H20.0508C23.8945 17.8393 26.7539 14.9213 26.7539 11.312C26.7539 7.57373 23.707 4.84326 19.7344 4.84326C18.2695 1.94873 15.5508 0.0854492 12.1641 0.0854492C7.75781 0.0854492 4.125 3.54248 3.73828 7.89014C1.61719 8.51123 0 10.351 0 12.8237C0 15.601 2.01562 17.8393 5.50781 17.8393Z" fill="black" fill-opacity="0.85"/>
</g>
</g>
<defs>
<clipPath id="clip0_2124_12392">
<rect width="26.7539" height="27.0187" fill="white"/>
</clipPath>
</defs>
</svg>
