<svg width="24" height="24" viewBox="0 0 24 24" fill="none" xmlns="http://www.w3.org/2000/svg">
<g clip-path="url(#clip0_2207_4344)">
<path d="M12.0202 23.9553C18.5593 23.9553 23.9733 18.5296 23.9733 12.0022C23.9733 5.46313 18.5476 0.0490723 12.0085 0.0490723C5.4812 0.0490723 0.0671387 5.46313 0.0671387 12.0022C0.0671387 18.5296 5.49292 23.9553 12.0202 23.9553ZM12.0202 21.9632C6.48902 21.9632 2.07105 17.5335 2.07105 12.0022C2.07105 6.47095 6.4773 2.04126 12.0085 2.04126C17.5398 2.04126 21.9812 6.47095 21.9812 12.0022C21.9812 17.5335 17.5515 21.9632 12.0202 21.9632Z" fill="black" fill-opacity="0.85"/>
<path d="M8.34058 13.1624H15.3249C17.1413 13.1624 18.5359 11.7561 18.5359 10.0335C18.5359 8.22876 17.071 6.92798 15.1726 6.92798C14.4577 5.54516 13.1569 4.64282 11.5398 4.64282C9.43042 4.64282 7.68433 6.30688 7.48511 8.39282C6.4773 8.69751 5.70386 9.56469 5.70386 10.76C5.70386 12.0843 6.6648 13.1624 8.34058 13.1624ZM9.95776 18.1546L11.7507 15.0491C11.9148 14.7796 11.821 14.4632 11.5515 14.3108C11.2937 14.1702 10.989 14.2522 10.8366 14.5218L9.03198 17.6155C8.87964 17.8733 8.96167 18.2014 9.2312 18.3538C9.48902 18.4944 9.80542 18.4124 9.95776 18.1546ZM15.278 18.1546L17.0827 15.0491C17.2468 14.7796 17.153 14.4632 16.8835 14.3108C16.6257 14.1702 16.321 14.2522 16.1569 14.5218L14.364 17.6155C14.2116 17.8733 14.2937 18.2014 14.5632 18.3538C14.821 18.4944 15.1374 18.4124 15.278 18.1546ZM12.6179 18.1546L14.4109 15.0491C14.5749 14.7796 14.4812 14.4632 14.2116 14.3108C13.9538 14.1702 13.6491 14.2522 13.4851 14.5218L11.6921 17.6155C11.5398 17.8733 11.6218 18.2014 11.8913 18.3538C12.1491 18.4944 12.4655 18.4124 12.6179 18.1546ZM7.28589 18.1546L9.07886 15.0491C9.24292 14.7796 9.14917 14.4632 8.87964 14.3108C8.63355 14.1702 8.31714 14.2522 8.1648 14.5218L6.36011 17.6155C6.20776 17.8733 6.2898 18.2014 6.55933 18.3538C6.81714 18.4944 7.13355 18.4124 7.28589 18.1546Z" fill="black" fill-opacity="0.85"/>
</g>
<defs>
<clipPath id="clip0_2207_4344">
<rect width="23.9062" height="23.918" fill="white" transform="translate(0.0671387 0.0490723)"/>
</clipPath>
</defs>
</svg>
