<svg width="24" height="24" viewBox="0 0 24 24" fill="none" xmlns="http://www.w3.org/2000/svg">
<g id="cloud.bolt.circle.fill" clip-path="url(#clip0_2124_12531)">
<g id="Group">
<path id="Vector" d="M11.9531 23.918C18.4922 23.918 23.9062 18.5039 23.9062 11.9648C23.9062 5.4375 18.4805 0.0117188 11.9414 0.0117188C5.41406 0.0117188 0 5.4375 0 11.9648C0 18.5039 5.42578 23.918 11.9531 23.918Z" fill="black" fill-opacity="0.85"/>
<path id="Vector_2" d="M8.0625 13.1602C6.33984 13.1602 5.34375 12.0469 5.34375 10.6875C5.34375 9.44531 6.14062 8.55469 7.18359 8.23828C7.38281 6.09375 9.1875 4.37109 11.3555 4.37109C13.0312 4.37109 14.3672 5.30859 15.1055 6.72656C17.0625 6.72656 18.5742 8.08594 18.5742 9.9375C18.5742 11.707 17.1328 13.1602 15.2578 13.1602H8.0625ZM9.91406 16.5938L10.8984 14.3203C10.9688 14.1562 11.0625 14.0977 11.2734 14.0977H12.8906C13.0664 14.0977 13.1133 14.2266 13.043 14.3906L12.3281 15.75H13.8047C14.0391 15.75 14.0977 15.9609 13.9453 16.1367L10.6758 19.4531C10.5938 19.5586 10.5117 19.5703 10.4414 19.5586C10.3711 19.5 10.3477 19.418 10.3945 19.3125L11.3672 16.9102H10.1133C9.90234 16.9102 9.82031 16.7578 9.91406 16.5938Z" fill="white"/>
</g>
</g>
<defs>
<clipPath id="clip0_2124_12531">
<rect width="23.9062" height="23.918" fill="white"/>
</clipPath>
</defs>
</svg>
