<svg width="24" height="24" viewBox="0 0 24 24" fill="none" xmlns="http://www.w3.org/2000/svg">
<g clip-path="url(#clip0_2207_4626)">
<path d="M12.0454 23.9553C18.5845 23.9553 23.9985 18.5296 23.9985 12.0022C23.9985 5.46313 18.5728 0.0490723 12.0337 0.0490723C5.50634 0.0490723 0.0922852 5.46313 0.0922852 12.0022C0.0922852 18.5296 5.51807 23.9553 12.0454 23.9553ZM12.0454 21.9632C6.51417 21.9632 2.0962 17.5335 2.0962 12.0022C2.0962 6.47095 6.50244 2.04126 12.0337 2.04126C17.565 2.04126 22.0064 6.47095 22.0064 12.0022C22.0064 17.5335 17.5767 21.9632 12.0454 21.9632Z" fill="black" fill-opacity="0.85"/>
<path d="M6.99463 14.8264H12.8071C14.3892 14.8264 15.5962 13.6194 15.5962 12.0725C15.5962 10.5608 14.3775 9.41235 12.7603 9.37719C12.1275 8.1936 11.0025 7.46704 9.65479 7.46704C7.87354 7.46704 6.37354 8.84985 6.18604 10.6194C5.29541 10.9241 4.67432 11.6975 4.67432 12.6936C4.67432 13.9241 5.61182 14.8264 6.99463 14.8264ZM7.45167 17.3108L8.11963 16.1624C8.24854 15.9632 8.17823 15.7053 7.95557 15.5882C7.75635 15.4593 7.49854 15.5413 7.39307 15.7405L6.7251 16.8889C6.60791 17.0882 6.66651 17.3577 6.87745 17.4632C7.07667 17.5803 7.3462 17.51 7.45167 17.3108ZM8.95167 18.553L9.57276 17.4749C9.68995 17.2757 9.63135 17.0061 9.4087 16.8889C9.19776 16.7835 8.95167 16.8421 8.82276 17.053L8.18995 18.1311C8.07276 18.3421 8.15479 18.5999 8.37745 18.7171C8.56495 18.8343 8.83448 18.7522 8.95167 18.553ZM11.2368 17.3108L11.9048 16.1741C12.0337 15.9632 11.9517 15.7171 11.7407 15.5882C11.5298 15.471 11.272 15.5296 11.1548 15.7288L10.4985 16.8772C10.3931 17.0764 10.44 17.346 10.6626 17.4632C10.8735 17.5686 11.1196 17.4983 11.2368 17.3108ZM12.7251 18.5647L13.3579 17.4749C13.4634 17.2757 13.4048 16.9944 13.1939 16.8889C12.9829 16.7835 12.7368 16.8538 12.6079 17.053L11.9751 18.1311C11.8579 18.3421 11.94 18.5999 12.1509 18.7171C12.3501 18.8343 12.6079 18.7522 12.7251 18.5647ZM19.4517 9.08423C19.4517 8.87329 19.3579 8.73266 19.1821 8.73266C18.9243 8.73266 18.4907 9.06079 17.7407 9.06079C16.3696 9.06079 15.5025 8.26391 15.5025 6.99829C15.5025 6.27173 15.9126 5.74438 15.9126 5.43969C15.9126 5.27563 15.772 5.15845 15.5611 5.17016C14.4478 5.21704 13.065 6.52954 12.8775 8.14673C13.0064 8.28735 13.1118 8.43969 13.229 8.59204C14.9634 8.80298 16.2407 10.0921 16.4048 11.7561C18.2915 11.5569 19.4517 10.0686 19.4517 9.08423Z" fill="black" fill-opacity="0.85"/>
</g>
<defs>
<clipPath id="clip0_2207_4626">
<rect width="23.9062" height="23.918" fill="white" transform="translate(0.0922852 0.0490723)"/>
</clipPath>
</defs>
</svg>
