<svg width="24" height="24" viewBox="0 0 24 24" fill="none" xmlns="http://www.w3.org/2000/svg">
<g clip-path="url(#clip0_2207_4579)">
<path d="M11.9867 23.9683C18.5258 23.9683 23.9398 18.5542 23.9398 12.0151C23.9398 5.48779 18.5141 0.0620117 11.975 0.0620117C5.44763 0.0620117 0.0335693 5.48779 0.0335693 12.0151C0.0335693 18.5542 5.45935 23.9683 11.9867 23.9683Z" fill="black" fill-opacity="0.85"/>
<path d="M6.29138 15.2612C4.86169 15.2612 3.90076 14.3355 3.90076 13.0581C3.90076 12.0386 4.54529 11.2417 5.44763 10.9253C5.65857 9.10889 7.20545 7.67921 9.03357 7.67921C10.4281 7.67921 11.5766 8.44092 12.2211 9.64796C13.9086 9.68311 15.1625 10.8784 15.1625 12.437C15.1625 14.0308 13.9203 15.2612 12.2914 15.2612H6.29138ZM11.1195 7.19874L10.2641 6.33155C10.0648 6.10889 10.0648 5.74561 10.2641 5.54639C10.4867 5.35889 10.8266 5.34718 11.0492 5.55811L11.9164 6.41358C12.1274 6.62452 12.1039 6.97608 11.9164 7.18702C11.7055 7.38624 11.3422 7.40968 11.1195 7.19874ZM14.3774 6.15577C14.0844 6.15577 13.8266 5.89796 13.8266 5.60499V4.39796C13.8266 4.09327 14.0844 3.84718 14.3774 3.84718C14.6938 3.84718 14.9398 4.09327 14.9398 4.39796V5.60499C14.9398 5.89796 14.6938 6.15577 14.3774 6.15577ZM16.8617 7.18702C16.6742 6.97608 16.6508 6.6128 16.8617 6.41358L17.7289 5.55811C17.9516 5.33546 18.2914 5.35889 18.5024 5.55811C18.7016 5.75733 18.7133 6.12061 18.5024 6.33155L17.6586 7.19874C17.4477 7.40968 17.0727 7.38624 16.8617 7.18702ZM18.4438 10.2105C18.1625 10.2105 17.9047 9.96436 17.9047 9.67139C17.9047 9.35499 18.1625 9.10889 18.4438 9.10889H19.6391C19.9555 9.10889 20.2016 9.35499 20.2016 9.67139C20.2016 9.96436 19.9555 10.2105 19.6391 10.2105H18.4438ZM17.7289 13.7964L16.8617 12.9409C16.6508 12.7417 16.6742 12.3667 16.8617 12.1558C17.0844 11.9565 17.4477 11.9565 17.6586 12.1558L18.5024 12.9995C18.7133 13.2105 18.7016 13.5737 18.5024 13.7847C18.2914 13.9839 17.9516 14.0191 17.7289 13.7964ZM17.2133 9.67139C17.2133 10.6089 16.7445 11.4644 15.9711 12.0151C15.7953 10.3276 14.4594 9.07374 12.725 8.85108C12.5258 8.55811 12.3266 8.3003 12.0688 8.06592C12.5609 7.32764 13.4281 6.84718 14.3774 6.84718C15.9594 6.84718 17.2133 8.08936 17.2133 9.67139ZM7.82654 17.9448L8.63513 16.0933C8.69373 15.9644 8.76404 15.9175 8.95154 15.9175H10.2641C10.4047 15.9175 10.4633 16.023 10.393 16.1636L9.80701 17.2651H11.0375C11.2133 17.2651 11.2719 17.4292 11.143 17.5815L8.45935 20.3003C8.34216 20.4175 8.16638 20.3237 8.22498 20.1714L9.03357 18.2026H7.9906C7.82654 18.2026 7.76795 18.0972 7.82654 17.9448Z" fill="white"/>
</g>
<defs>
<clipPath id="clip0_2207_4579">
<rect width="23.9062" height="23.918" fill="white" transform="translate(0.0335693 0.050293)"/>
</clipPath>
</defs>
</svg>
