<svg width="27" height="30" viewBox="0 0 27 30" fill="none" xmlns="http://www.w3.org/2000/svg">
<g id="cloud.bolt.rain.fill" clip-path="url(#clip0_2124_12545)">
<g id="Group">
<path id="Vector" d="M21.6211 28.0745C21.9727 28.262 22.3945 28.1448 22.5938 27.805L24.1172 25.1565C24.3281 24.805 24.2109 24.3948 23.8711 24.1839C23.5078 23.9729 23.1094 24.0901 22.8984 24.4534L21.3633 27.1136C21.1641 27.4534 21.2578 27.8636 21.6211 28.0745Z" fill="black" fill-opacity="0.85"/>
<path id="Vector_2" d="M19.3477 24.7933C19.6992 24.9925 20.1211 24.8753 20.3203 24.5237L21.8438 21.887C22.0547 21.5237 21.9375 21.1136 21.5977 20.9026C21.2344 20.7034 20.8359 20.8206 20.625 21.1722L19.0898 23.844C18.8906 24.1839 18.9844 24.594 19.3477 24.7933Z" fill="black" fill-opacity="0.85"/>
<path id="Vector_3" d="M16.1952 23.387H13.5351L13.5116 23.9144L14.9413 21.1722C15.0819 20.9144 14.9765 20.7151 14.7187 20.7151H12.1757C11.8358 20.7151 11.7187 20.8323 11.6132 21.0784L10.0194 24.7112C9.89054 25.0042 10.0194 25.18 10.3241 25.18H12.4921L12.6444 24.4886L10.7577 29.0706C10.6991 29.2229 10.7343 29.3519 10.8397 29.3987C10.9452 29.4456 11.0741 29.4104 11.203 29.2815L16.3827 23.9729C16.6288 23.7151 16.5351 23.387 16.1952 23.387Z" fill="black" fill-opacity="0.85"/>
<path id="Vector_4" d="M5.33198 28.0745C5.68354 28.262 6.10542 28.1448 6.30464 27.805L7.82807 25.1565C8.03901 24.805 7.92183 24.3948 7.57026 24.1839C7.2187 23.9729 6.82026 24.0901 6.60933 24.4534L5.06245 27.1136C4.87495 27.4534 4.9687 27.8636 5.33198 28.0745Z" fill="black" fill-opacity="0.85"/>
<path id="Vector_5" d="M3.0586 24.7933C3.41017 24.9925 3.83204 24.8753 4.03126 24.5237L5.5547 21.887C5.76563 21.5237 5.64845 21.1136 5.29689 20.9026C4.94531 20.7034 4.54689 20.8206 4.33595 21.1722L2.80079 23.844C2.60157 24.1839 2.69532 24.594 3.0586 24.7933Z" fill="black" fill-opacity="0.85"/>
<path id="Vector_6" d="M5.50781 19.0394H20.0508C23.8945 19.0394 26.7539 16.1214 26.7539 12.512C26.7539 8.77368 23.707 6.04321 19.7344 6.04321C18.2695 3.14868 15.5508 1.2854 12.1641 1.2854C7.75781 1.2854 4.125 4.74243 3.73828 9.09009C1.61719 9.71118 0 11.5511 0 14.0237C0 16.8011 2.01562 19.0394 5.50781 19.0394Z" fill="black" fill-opacity="0.85"/>
</g>
</g>
<defs>
<clipPath id="clip0_2124_12545">
<rect width="26.7539" height="29.4186" fill="white"/>
</clipPath>
</defs>
</svg>
