<svg width="24" height="24" viewBox="0 0 24 24" fill="none" xmlns="http://www.w3.org/2000/svg">
<g clip-path="url(#clip0_2207_4455)">
<path d="M11.9677 23.9683C18.5068 23.9683 23.9208 18.5542 23.9208 12.0151C23.9208 5.48779 18.4951 0.0620117 11.956 0.0620117C5.42871 0.0620117 0.0146484 5.48779 0.0146484 12.0151C0.0146484 18.5542 5.44043 23.9683 11.9677 23.9683Z" fill="black" fill-opacity="0.85"/>
<path d="M8.34668 13.187C6.62403 13.187 5.62793 12.0737 5.62793 10.7026C5.62793 9.48388 6.42481 8.58154 7.46777 8.27685C7.66699 6.10888 9.45996 4.39795 11.6396 4.39795C13.3154 4.39795 14.6514 5.32373 15.378 6.75341C17.335 6.75341 18.8467 8.10107 18.8467 9.95263C18.8467 11.7339 17.417 13.187 15.5303 13.187H8.34668ZM9.07324 16.2925C8.93262 16.5386 8.59277 16.6558 8.32324 16.5034C8.05371 16.3511 7.9834 15.9995 8.11231 15.7417L8.79199 14.5815C8.93262 14.3355 9.27246 14.2183 9.53027 14.3823C9.81153 14.523 9.88184 14.8862 9.75293 15.1323L9.07324 16.2925ZM12.3896 16.2925C12.249 16.5386 11.8974 16.6558 11.6396 16.5034C11.3702 16.3511 11.2881 15.9995 11.4405 15.7417L12.1084 14.5815C12.249 14.3355 12.6005 14.2183 12.8584 14.3823C13.1279 14.523 13.2099 14.8862 13.0577 15.1323L12.3896 16.2925ZM15.6943 16.2925C15.5537 16.5386 15.2138 16.6558 14.9443 16.5034C14.6748 16.3511 14.6045 15.9995 14.7334 15.7417L15.413 14.5815C15.5538 14.3355 15.8935 14.2183 16.163 14.3823C16.4326 14.523 16.5029 14.8862 16.3741 15.1323L15.6943 16.2925ZM7.62012 19.187C7.43262 19.187 7.32715 19.0464 7.32715 18.8706L7.33887 18.4019L6.96387 18.6714C6.82324 18.7534 6.62403 18.73 6.53027 18.5659C6.44824 18.4253 6.4834 18.2378 6.68262 18.1441L7.08106 17.9565L6.68262 17.7456C6.4834 17.6636 6.4834 17.4409 6.54199 17.3237C6.63574 17.1831 6.83496 17.1597 6.96387 17.2417L7.33887 17.5112L7.31543 17.0425C7.30371 16.8667 7.43262 16.7261 7.62012 16.7261C7.78418 16.7261 7.91309 16.855 7.90137 17.0425L7.86621 17.5112L8.25293 17.2534C8.38184 17.1597 8.60449 17.1948 8.68653 17.3355C8.74512 17.4878 8.70996 17.6519 8.53418 17.7456L8.12403 17.9565L8.53418 18.1441C8.7334 18.2378 8.74512 18.4487 8.66309 18.6011C8.58106 18.7065 8.38184 18.7534 8.25293 18.6714L7.86621 18.4019L7.90137 18.8706C7.91309 19.0581 7.78418 19.187 7.62012 19.187ZM10.9365 19.187C10.749 19.187 10.6435 19.0464 10.6435 18.8706L10.6669 18.4019L10.2685 18.6714C10.1396 18.7534 9.92871 18.73 9.84668 18.5659C9.77637 18.4253 9.81153 18.2378 9.98731 18.1441L10.3974 17.9565L9.98731 17.7456C9.81153 17.6636 9.79981 17.4409 9.87012 17.3237C9.95215 17.1831 10.1513 17.1597 10.2685 17.2417L10.6669 17.5112L10.6318 17.0425C10.6201 16.8667 10.749 16.7261 10.9365 16.7261C11.0888 16.7261 11.2294 16.855 11.206 17.0425L11.1827 17.5112L11.5577 17.2534C11.6983 17.1597 11.9208 17.1948 11.9912 17.3355C12.0615 17.4878 12.0381 17.6519 11.8506 17.7456L11.4405 17.9565L11.8506 18.1441C12.0498 18.2378 12.0733 18.4487 11.9678 18.6011C11.8974 18.7065 11.6983 18.7534 11.5577 18.6714L11.1827 18.4019L11.206 18.8706C11.2294 19.0581 11.0888 19.187 10.9365 19.187ZM14.2412 19.187C14.0537 19.187 13.9482 19.0464 13.9482 18.8706L13.9599 18.4019L13.5849 18.6714C13.4443 18.7534 13.2451 18.73 13.1513 18.5659C13.0693 18.4253 13.1044 18.2378 13.3037 18.1441L13.7022 17.9565L13.3037 17.7456C13.1044 17.6636 13.1045 17.4409 13.1631 17.3237C13.2569 17.1831 13.456 17.1597 13.5849 17.2417L13.9599 17.5112L13.9366 17.0425C13.9249 16.8667 14.0537 16.7261 14.2412 16.7261C14.4052 16.7261 14.5341 16.855 14.5224 17.0425L14.4991 17.5112L14.8741 17.2534C15.0029 17.1597 15.2255 17.1948 15.3076 17.3355C15.3663 17.4878 15.331 17.6519 15.167 17.7456L14.7451 17.9565L15.167 18.1441C15.3545 18.2378 15.3779 18.4487 15.2841 18.6011C15.2021 18.7065 15.0029 18.7534 14.8741 18.6714L14.4991 18.4019L14.5224 18.8706C14.5341 19.0581 14.4052 19.187 14.2412 19.187Z" fill="white"/>
</g>
<defs>
<clipPath id="clip0_2207_4455">
<rect width="23.9062" height="23.918" fill="white" transform="translate(0.0146484 0.050293)"/>
</clipPath>
</defs>
</svg>
