<svg width="24" height="24" viewBox="0 0 24 24" fill="none" xmlns="http://www.w3.org/2000/svg">
<g id="cloud.sleet.circle" clip-path="url(#clip0_2124_12506)">
<g id="Group">
<path id="Vector" d="M11.9531 23.9062C18.4922 23.9062 23.9062 18.4805 23.9062 11.9531C23.9062 5.41406 18.4805 0 11.9414 0C5.41406 0 0 5.41406 0 11.9531C0 18.4805 5.42578 23.9062 11.9531 23.9062ZM11.9531 21.9141C6.42188 21.9141 2.00391 17.4844 2.00391 11.9531C2.00391 6.42188 6.41016 1.99219 11.9414 1.99219C17.4727 1.99219 21.9141 6.42188 21.9141 11.9531C21.9141 17.4844 17.4844 21.9141 11.9531 21.9141Z" fill="black" fill-opacity="0.85"/>
<path id="Vector_2" d="M8.44922 13.0781H15.4219C17.25 13.0781 18.6328 11.6719 18.6328 9.94922C18.6328 8.14453 17.168 6.84375 15.2695 6.84375C14.5664 5.46094 13.2656 4.55859 11.6484 4.55859C9.52734 4.55859 7.79297 6.22266 7.59375 8.30859C6.58594 8.61328 5.8125 9.48047 5.8125 10.6758C5.8125 12 6.77344 13.0781 8.44922 13.0781ZM9.15234 16.0898L9.80859 14.9648C9.9375 14.7188 9.86719 14.3789 9.59766 14.2266C9.35156 14.0859 9.02344 14.1914 8.88281 14.4375L8.22656 15.5625C8.09766 15.7969 8.16797 16.1484 8.42578 16.2891C8.68359 16.4414 9.01172 16.3359 9.15234 16.0898ZM12.3633 16.0898L13.0195 14.9648C13.1602 14.7188 13.0898 14.3789 12.8203 14.2266C12.5742 14.0859 12.2344 14.1914 12.1055 14.4375L11.4492 15.5625C11.3086 15.7969 11.3789 16.1484 11.6484 16.2891C11.8945 16.4414 12.2344 16.3359 12.3633 16.0898ZM15.5742 16.0898L16.2305 14.9648C16.3594 14.7188 16.2891 14.3789 16.0312 14.2266C15.7734 14.0859 15.4453 14.1914 15.3047 14.4375L14.6484 15.5625C14.5195 15.7969 14.5898 16.1484 14.8477 16.2891C15.1055 16.4414 15.4336 16.3359 15.5742 16.0898ZM7.74609 18.9023C7.89844 18.9023 8.02734 18.7734 8.01562 18.5977L7.98047 18.1406L8.35547 18.3984C8.48438 18.4805 8.67188 18.4219 8.75391 18.3164C8.83594 18.1875 8.82422 17.9766 8.63672 17.8828L8.22656 17.707L8.63672 17.4961C8.80078 17.4141 8.83594 17.2383 8.77734 17.1094C8.69531 16.957 8.48438 16.9336 8.35547 17.0156L7.98047 17.2617L8.01562 16.8164C8.02734 16.6289 7.89844 16.5 7.74609 16.5C7.55859 16.5 7.44141 16.6406 7.45312 16.8164L7.47656 17.2617L7.10156 17.0156C6.98438 16.9336 6.78516 16.9453 6.70312 17.0977C6.64453 17.2031 6.64453 17.4258 6.83203 17.5078L7.21875 17.707L6.83203 17.8828C6.64453 17.9766 6.60938 18.1641 6.69141 18.293C6.77344 18.457 6.97266 18.4805 7.10156 18.3984L7.47656 18.1406L7.46484 18.5977C7.46484 18.7617 7.55859 18.9023 7.74609 18.9023ZM10.957 18.9023C11.1094 18.9023 11.2383 18.7734 11.2266 18.5977L11.2031 18.1406L11.5664 18.3984C11.6953 18.4805 11.8945 18.4219 11.9648 18.3164C12.0586 18.1875 12.0352 17.9766 11.8477 17.8828L11.4492 17.707L11.8477 17.4961C12.0234 17.4141 12.0469 17.2383 11.9883 17.1094C11.918 16.957 11.6953 16.9336 11.5664 17.0156L11.2031 17.2617L11.2266 16.8164C11.2383 16.6289 11.1094 16.5 10.957 16.5C10.7812 16.5 10.6523 16.6406 10.6641 16.8164L10.6992 17.2617L10.3125 17.0156C10.1953 16.9336 10.0078 16.9453 9.92578 17.0977C9.85547 17.2031 9.86719 17.4258 10.043 17.5078L10.4414 17.707L10.043 17.8828C9.86719 17.9766 9.83203 18.1641 9.90234 18.293C9.98438 18.457 10.1836 18.4805 10.3125 18.3984L10.6992 18.1406L10.6758 18.5977C10.6758 18.7617 10.7812 18.9023 10.957 18.9023ZM14.168 18.9023C14.3203 18.9023 14.4492 18.7734 14.4375 18.5977L14.4141 18.1406L14.7773 18.3984C14.9062 18.4805 15.0938 18.4219 15.1758 18.3164C15.2695 18.1875 15.2461 17.9766 15.0586 17.8828L14.6484 17.707L15.0586 17.4961C15.2227 17.4141 15.2578 17.2383 15.1992 17.1094C15.1172 16.957 14.9062 16.9336 14.7773 17.0156L14.4141 17.2617L14.4375 16.8164C14.4492 16.6289 14.3203 16.5 14.168 16.5C13.9805 16.5 13.8633 16.6406 13.875 16.8164L13.8984 17.2617L13.5234 17.0156C13.4062 16.9336 13.207 16.9453 13.125 17.0977C13.0664 17.2031 13.0664 17.4258 13.2539 17.5078L13.6406 17.707L13.2539 17.8828C13.0664 17.9766 13.0312 18.1641 13.1133 18.293C13.1953 18.457 13.3945 18.4805 13.5234 18.3984L13.8984 18.1406L13.8867 18.5977C13.8867 18.7617 13.9805 18.9023 14.168 18.9023Z" fill="black" fill-opacity="0.85"/>
</g>
</g>
<defs>
<clipPath id="clip0_2124_12506">
<rect width="23.9062" height="23.918" fill="white"/>
</clipPath>
</defs>
</svg>
