<svg width="29" height="19" viewBox="0 0 29 19" fill="none" xmlns="http://www.w3.org/2000/svg">
<g id="cloud" clip-path="url(#clip0_2124_12314)">
<g id="Group">
<path id="Vector" d="M5.74219 18.5508H21C24.9492 18.5508 28.0078 15.5625 28.0078 11.7422C28.0078 7.88672 24.8789 4.98047 20.625 4.98047C19.0664 1.88672 16.207 0 12.7266 0C8.17969 0 4.33594 3.52734 3.92578 8.20312C1.58203 8.87109 0 10.8398 0 13.3359C0 16.2188 2.09766 18.5508 5.74219 18.5508ZM5.71875 16.6641C3.31641 16.6641 1.88672 15.3633 1.88672 13.3945C1.88672 11.707 2.96484 10.4883 4.86328 9.98438C5.51953 9.82031 5.76562 9.51562 5.8125 8.83594C6.09375 4.86328 9.07031 1.88672 12.7266 1.88672C15.5508 1.88672 17.7305 3.45703 19.043 6.15234C19.3242 6.72656 19.6641 6.92578 20.3789 6.92578C24.0469 6.92578 26.1094 9.14062 26.1094 11.7891C26.1094 14.5195 23.9297 16.6641 21.1289 16.6641H5.71875Z" fill="black" fill-opacity="0.85"/>
</g>
</g>
<defs>
<clipPath id="clip0_2124_12314">
<rect width="28.0078" height="18.7148" fill="white"/>
</clipPath>
</defs>
</svg>
