<svg width="27" height="30" viewBox="0 0 27 30" fill="none" xmlns="http://www.w3.org/2000/svg">
<g clip-path="url(#clip0_2207_4489)">
<path d="M21.6526 28.1236C22.0042 28.3111 22.426 28.1939 22.6253 27.8541L24.1487 25.2056C24.3596 24.8541 24.2424 24.4439 23.9026 24.233C23.5393 24.022 23.1409 24.1392 22.9299 24.5025L21.3948 27.1627C21.1956 27.5025 21.2893 27.9127 21.6526 28.1236Z" fill="black" fill-opacity="0.85"/>
<path d="M19.3792 24.8424C19.7307 25.0416 20.1526 24.9244 20.3518 24.5728L21.8753 21.9361C22.0862 21.5728 21.969 21.1627 21.6292 20.9517C21.2659 20.7525 20.8674 20.8697 20.6565 21.2213L19.1213 23.8931C18.9221 24.233 19.0159 24.6431 19.3792 24.8424Z" fill="black" fill-opacity="0.85"/>
<path d="M16.2268 23.4361H13.5667L13.5432 23.9635L14.9729 21.2213C15.1135 20.9635 15.0081 20.7642 14.7503 20.7642H12.2073C11.8674 20.7642 11.7503 20.8814 11.6448 21.1275L10.051 24.7603C9.9221 25.0533 10.051 25.2291 10.3557 25.2291H12.5237L12.676 24.5377L10.7893 29.1197C10.7307 29.272 10.7659 29.401 10.8713 29.4478C10.9768 29.4947 11.1057 29.4595 11.2346 29.3306L16.4143 24.022C16.6604 23.7642 16.5667 23.4361 16.2268 23.4361Z" fill="black" fill-opacity="0.85"/>
<path d="M5.36354 28.1236C5.7151 28.3111 6.13698 28.1939 6.3362 27.8541L7.85963 25.2056C8.07057 24.8541 7.95339 24.4439 7.60182 24.233C7.25026 24.022 6.85182 24.1392 6.64089 24.5025L5.09401 27.1627C4.90651 27.5025 5.00026 27.9127 5.36354 28.1236Z" fill="black" fill-opacity="0.85"/>
<path d="M3.09009 24.8424C3.44166 25.0416 3.86353 24.9244 4.06275 24.5728L5.58619 21.9361C5.79712 21.5728 5.67994 21.1627 5.32838 20.9517C4.97681 20.7525 4.57838 20.8697 4.36744 21.2213L2.83228 23.8931C2.63306 24.233 2.72681 24.6431 3.09009 24.8424Z" fill="black" fill-opacity="0.85"/>
<path d="M5.5393 19.0885H20.0823C23.926 19.0885 26.7854 16.1705 26.7854 12.5611C26.7854 8.8228 23.7385 6.09233 19.7659 6.09233C18.301 3.1978 15.5823 1.33452 12.1956 1.33452C7.7893 1.33452 4.15649 4.79155 3.76977 9.13921C1.64868 9.7603 0.0314941 11.6002 0.0314941 14.0728C0.0314941 16.8502 2.04711 19.0885 5.5393 19.0885Z" fill="black" fill-opacity="0.85"/>
</g>
<defs>
<clipPath id="clip0_2207_4489">
<rect width="26.7539" height="29.4186" fill="white" transform="translate(0.0314941 0.0490723)"/>
</clipPath>
</defs>
</svg>
