<svg width="27" height="28" viewBox="0 0 27 28" fill="none" xmlns="http://www.w3.org/2000/svg">
<g id="cloud.hail" clip-path="url(#clip0_2124_12432)">
<g id="Group">
<path id="Vector" d="M19.3008 22.4297L20.0859 21.0469C20.2969 20.6953 20.1914 20.2734 19.8398 20.0625C19.4883 19.8633 19.0781 19.9922 18.8672 20.332L18.0703 21.75C17.8828 22.0781 17.9648 22.4883 18.3281 22.6992C18.6797 22.8984 19.1016 22.7695 19.3008 22.4297ZM17.2266 25.9219C17.918 25.9219 18.4922 25.3359 18.4922 24.6328C18.4922 23.9531 17.918 23.3672 17.2266 23.3672C16.5234 23.3672 15.9492 23.9531 15.9492 24.6328C15.9492 25.3359 16.5234 25.9219 17.2266 25.9219Z" fill="black" fill-opacity="0.85"/>
<path id="Vector_2" d="M12.1289 24.1758L13.957 21.0117C14.1562 20.6484 14.0508 20.2383 13.7109 20.0391C13.3477 19.8281 12.9375 19.9453 12.7383 20.3086L10.8984 23.4961C10.6992 23.8359 10.8047 24.2461 11.168 24.4453C11.5078 24.6445 11.9414 24.5273 12.1289 24.1758ZM10.0547 27.668C10.7461 27.668 11.332 27.082 11.332 26.3789C11.332 25.6992 10.7578 25.125 10.0547 25.125C9.36328 25.125 8.78906 25.6992 8.78906 26.3789C8.78906 27.082 9.36328 27.668 10.0547 27.668Z" fill="black" fill-opacity="0.85"/>
<path id="Vector_3" d="M7.01953 22.3827L7.80469 20.9999C8.01562 20.6483 7.91016 20.2265 7.55859 20.0155C7.20703 19.8163 6.79688 19.9452 6.58594 20.2851L5.78906 21.703C5.60156 22.0311 5.68359 22.4413 6.04688 22.6522C6.39844 22.8515 6.82031 22.7343 7.01953 22.3827ZM4.94531 25.8749C5.63672 25.8749 6.21094 25.289 6.21094 24.5858C6.21094 23.9061 5.63672 23.3319 4.94531 23.3319C4.24219 23.3319 3.66797 23.9061 3.66797 24.5858C3.66797 25.289 4.24219 25.8749 4.94531 25.8749Z" fill="black" fill-opacity="0.85"/>
<path id="Vector_4" d="M5.50781 18.1641H20.0508C23.8945 18.1641 26.7539 15.2461 26.7539 11.6367C26.7539 7.89844 23.707 5.16797 19.7344 5.16797C18.2695 2.27344 15.5508 0.410156 12.1641 0.410156C7.75781 0.410156 4.125 3.86719 3.73828 8.21484C1.61719 8.83594 0 10.6758 0 13.1484C0 15.9258 2.01562 18.1641 5.50781 18.1641ZM5.48438 16.2891C3.08203 16.2891 1.875 14.9414 1.875 13.207C1.875 11.8008 2.69531 10.5352 4.6875 10.0078C5.33203 9.83203 5.56641 9.52734 5.625 8.87109C5.89453 5.03906 8.76562 2.28516 12.1641 2.28516C14.8008 2.28516 16.875 3.73828 18.1406 6.32812C18.4102 6.90234 18.7617 7.10156 19.4531 7.10156C22.9219 7.10156 24.8789 9.1875 24.8789 11.6836C24.8789 14.2383 22.8398 16.2891 20.168 16.2891H5.48438Z" fill="black" fill-opacity="0.85"/>
</g>
</g>
<defs>
<clipPath id="clip0_2124_12432">
<rect width="26.7539" height="27.668" fill="white"/>
</clipPath>
</defs>
</svg>
