<svg width="29" height="19" viewBox="0 0 29 19" fill="none" xmlns="http://www.w3.org/2000/svg">
<g clip-path="url(#clip0_2207_4258)">
<path d="M5.75684 18.5999H21.0146C24.9638 18.5999 28.0224 15.6116 28.0224 11.7913C28.0224 7.93579 24.8935 5.02954 20.6396 5.02954C19.081 1.93579 16.2216 0.0490723 12.7412 0.0490723C8.19434 0.0490723 4.35059 3.57641 3.94043 8.25219C1.59668 8.92016 0.0146484 10.8889 0.0146484 13.385C0.0146484 16.2679 2.11231 18.5999 5.75684 18.5999ZM5.7334 16.7132C3.33106 16.7132 1.90137 15.4124 1.90137 13.4436C1.90137 11.7561 2.97949 10.5374 4.87793 10.0335C5.53418 9.86938 5.78027 9.56469 5.82715 8.88501C6.1084 4.91235 9.08496 1.93579 12.7412 1.93579C15.5654 1.93579 17.7451 3.5061 19.0576 6.20141C19.3388 6.77563 19.6787 6.97485 20.3935 6.97485C24.0615 6.97485 26.124 9.18969 26.124 11.8382C26.124 14.5686 23.9443 16.7132 21.1435 16.7132H5.7334Z" fill="black" fill-opacity="0.85"/>
</g>
<defs>
<clipPath id="clip0_2207_4258">
<rect width="28.0078" height="18.7148" fill="white" transform="translate(0.0146484 0.0490723)"/>
</clipPath>
</defs>
</svg>
