<svg width="24" height="24" viewBox="0 0 24 24" fill="none" xmlns="http://www.w3.org/2000/svg">
<g clip-path="url(#clip0_2207_4596)">
<path d="M12.0371 23.9553C18.5762 23.9553 23.9902 18.5296 23.9902 12.0022C23.9902 5.46313 18.5645 0.0490723 12.0254 0.0490723C5.49804 0.0490723 0.0839844 5.46313 0.0839844 12.0022C0.0839844 18.5296 5.50976 23.9553 12.0371 23.9553ZM12.0371 21.9632C6.50586 21.9632 2.08789 17.5335 2.08789 12.0022C2.08789 6.47095 6.49414 2.04126 12.0254 2.04126C17.5567 2.04126 21.9981 6.47095 21.9981 12.0022C21.9981 17.5335 17.5684 21.9632 12.0371 21.9632Z" fill="black" fill-opacity="0.85"/>
<path d="M6.74024 16.8069H12.8926C14.5567 16.8069 15.834 15.553 15.834 13.9124C15.834 12.3069 14.5567 11.0999 12.8223 11.053C12.166 9.81079 10.9824 9.04907 9.56446 9.04907C7.67774 9.04907 6.09571 10.5139 5.88477 12.3655C4.94727 12.6819 4.29102 13.5139 4.29102 14.5569C4.29102 15.8577 5.28711 16.8069 6.74024 16.8069ZM19.8535 10.7952C19.8535 10.5608 19.7598 10.4085 19.5723 10.4085C19.291 10.4085 18.8574 10.7718 18.0606 10.7718C16.6192 10.7718 15.7051 9.91626 15.7051 8.59204C15.7051 7.8186 16.127 7.2561 16.127 6.95141C16.127 6.77563 15.9863 6.65845 15.7637 6.65845C14.6035 6.71704 13.1387 8.08813 12.9512 9.79907C13.0801 9.93969 13.1973 10.1038 13.3145 10.2679C15.1309 10.4905 16.4902 11.8382 16.6426 13.5843C18.6465 13.3968 19.8535 11.803 19.8535 10.7952Z" fill="black" fill-opacity="0.85"/>
</g>
<defs>
<clipPath id="clip0_2207_4596">
<rect width="23.9062" height="23.918" fill="white" transform="translate(0.0839844 0.0490723)"/>
</clipPath>
</defs>
</svg>
