<svg width="24" height="24" viewBox="0 0 24 24" fill="none" xmlns="http://www.w3.org/2000/svg">
<g id="cloud.sun.bolt.circle" clip-path="url(#clip0_2124_12630)">
<g id="Group">
<path id="Vector" d="M11.9531 23.9062C18.4922 23.9062 23.9062 18.4805 23.9062 11.9531C23.9062 5.41406 18.4805 0 11.9414 0C5.41406 0 0 5.41406 0 11.9531C0 18.4805 5.42578 23.9062 11.9531 23.9062ZM11.9531 21.9141C6.42188 21.9141 2.00391 17.4844 2.00391 11.9531C2.00391 6.42188 6.41016 1.99219 11.9414 1.99219C17.4727 1.99219 21.9141 6.42188 21.9141 11.9531C21.9141 17.4844 17.4844 21.9141 11.9531 21.9141Z" fill="black" fill-opacity="0.85"/>
<path id="Vector_2" d="M6.43359 15.1055H12.2461C13.8281 15.1055 15.0352 13.8984 15.0352 12.3516C15.0352 10.8516 13.8164 9.69141 12.1875 9.65625C11.5547 8.48438 10.4414 7.74609 9.09375 7.74609C7.3125 7.74609 5.8125 9.12891 5.61328 10.8984C4.73438 11.2031 4.11328 11.9766 4.11328 12.9727C4.11328 14.2031 5.03906 15.1055 6.43359 15.1055ZM11.1211 7.26562C11.332 7.48828 11.6836 7.46484 11.8828 7.26562C12.0703 7.06641 12.0938 6.71484 11.8828 6.51562L11.0391 5.68359C10.8281 5.48438 10.5 5.48438 10.2891 5.68359C10.0898 5.87109 10.0898 6.22266 10.2891 6.43359L11.1211 7.26562ZM14.2734 6.25781C14.5781 6.25781 14.8125 6.02344 14.8125 5.73047V4.55859C14.8125 4.26562 14.5781 4.03125 14.2734 4.03125C13.9922 4.03125 13.7461 4.26562 13.7461 4.55859V5.73047C13.7461 6.02344 13.9922 6.25781 14.2734 6.25781ZM16.6875 7.25391C16.8867 7.46484 17.25 7.48828 17.4609 7.26562L18.2812 6.43359C18.4805 6.22266 18.4688 5.87109 18.2812 5.68359C18.0703 5.48438 17.7422 5.47266 17.5312 5.68359L16.6875 6.51562C16.4766 6.71484 16.5 7.06641 16.6875 7.25391ZM18.2227 10.1953H19.3828C19.6875 10.1953 19.9219 9.96094 19.9219 9.66797C19.9219 9.36328 19.6875 9.14062 19.3828 9.14062H18.2227C17.9414 9.14062 17.6953 9.36328 17.6953 9.66797C17.6953 9.96094 17.9414 10.1953 18.2227 10.1953ZM17.5312 13.6758C17.7422 13.8867 18.0703 13.8633 18.2812 13.6641C18.4688 13.4531 18.4805 13.1016 18.2812 12.9141L17.4609 12.0938C17.25 11.8945 16.8984 11.8945 16.6875 12.0938C16.5 12.293 16.4766 12.6445 16.6875 12.8555L17.5312 13.6758ZM17.0273 9.66797C17.0273 8.14453 15.8086 6.9375 14.2734 6.9375C13.3477 6.9375 12.5156 7.40625 12.0352 8.12109C12.2812 8.35547 12.4805 8.60156 12.668 8.89453C14.3555 9.10547 15.6445 10.3242 15.8203 11.9531C16.5703 11.4141 17.0273 10.5938 17.0273 9.66797ZM7.92188 17.707C7.86328 17.8477 7.92188 17.9648 8.08594 17.9648H9.09375L8.30859 19.8633C8.25 20.0156 8.42578 20.1094 8.54297 19.9805L11.1328 17.3438C11.2617 17.2148 11.2031 17.0391 11.0273 17.0391H9.84375L10.4062 15.9727C10.4766 15.8438 10.418 15.7266 10.2773 15.7266H9.01172C8.83594 15.7266 8.76562 15.7852 8.70703 15.9141L7.92188 17.707Z" fill="black" fill-opacity="0.85"/>
</g>
</g>
<defs>
<clipPath id="clip0_2124_12630">
<rect width="23.9062" height="23.918" fill="white"/>
</clipPath>
</defs>
</svg>
