<svg width="35" height="35" viewBox="0 0 35 35" fill="none" xmlns="http://www.w3.org/2000/svg">
<g id="cloud.sun.bolt" clip-path="url(#clip0_2124_12616)">
<g id="Group">
<path id="Vector" d="M14.6719 28.4144H12.1055L12.082 28.9183L13.418 26.3752C13.5469 26.1291 13.4414 25.9417 13.1836 25.9417H10.7344C10.418 25.9417 10.3125 26.0589 10.207 26.2933L8.70706 29.7034C8.58987 29.9728 8.70706 30.1487 9.01175 30.1487H11.1094L11.25 29.469L9.46878 33.7815C9.39847 33.9339 9.43362 34.0627 9.53909 34.1096C9.64456 34.1564 9.77347 34.1214 9.89065 33.9925L14.8477 28.9769C15.082 28.7308 15 28.4144 14.6719 28.4144Z" fill="black" fill-opacity="0.85"/>
<path id="Vector_2" d="M21.9258 18.5589C25.1484 18.5589 27.7148 15.969 27.7148 12.7464C27.7148 9.52368 25.1484 6.93384 21.9258 6.93384C18.7031 6.93384 16.125 9.52368 16.125 12.7464C16.125 15.969 18.7031 18.5589 21.9258 18.5589ZM21.9258 16.8362C19.6406 16.8362 17.8477 15.0433 17.8477 12.7464C17.8477 10.4495 19.6406 8.65649 21.9258 8.65649C24.2109 8.65649 26.0039 10.4495 26.0039 12.7464C26.0039 15.0433 24.2109 16.8362 21.9258 16.8362ZM21.9258 5.07056C22.4531 5.07056 22.8984 4.62524 22.8984 4.0979V1.56665C22.8984 1.02759 22.4531 0.593994 21.9258 0.593994C21.3867 0.593994 20.9414 1.02759 20.9414 1.56665V4.0979C20.9414 4.62524 21.3867 5.07056 21.9258 5.07056ZM27.3398 7.33227C27.7031 7.70727 28.3359 7.71899 28.7227 7.33227L30.5156 5.53931C30.8906 5.15259 30.8906 4.53149 30.5156 4.15649C30.1406 3.78149 29.5312 3.78149 29.1562 4.15649L27.3398 5.9729C26.9648 6.3479 26.9766 6.95727 27.3398 7.33227ZM29.5781 12.7464C29.5781 13.2854 30.0352 13.719 30.5508 13.719H33.0938C33.6211 13.719 34.0547 13.2854 34.0547 12.7464C34.0547 12.2073 33.6211 11.7737 33.0938 11.7737H30.5508C30.0352 11.7737 29.5781 12.2073 29.5781 12.7464ZM27.3398 18.1604C26.9766 18.5354 26.9648 19.1448 27.3398 19.5198L29.1562 21.3244C29.5312 21.7111 30.1406 21.6994 30.5156 21.3244C30.8906 20.9611 30.8906 20.34 30.5156 19.9534L28.7227 18.1604C28.3359 17.7737 27.7031 17.7854 27.3398 18.1604ZM16.5117 18.1604C16.1484 17.7854 15.5039 17.7737 15.1172 18.1604L13.3359 19.9534C12.9609 20.34 12.9609 20.9611 13.3359 21.3244C13.7109 21.6994 14.3203 21.7111 14.6953 21.3244L16.5117 19.5198C16.875 19.1448 16.8633 18.5354 16.5117 18.1604ZM14.2617 12.7464C14.2617 12.2073 13.8164 11.7737 13.2891 11.7737H10.7578C10.2305 11.7737 9.79688 12.2073 9.79688 12.7464C9.79688 13.2854 10.2305 13.719 10.7578 13.719H13.2891C13.8164 13.719 14.2617 13.2854 14.2617 12.7464ZM16.5117 7.33227C16.8633 6.95727 16.875 6.3479 16.5117 5.9729L14.6953 4.15649C14.3203 3.78149 13.7109 3.78149 13.3359 4.15649C12.9609 4.53149 12.9609 5.15259 13.3359 5.53931L15.1172 7.33227C15.5039 7.71899 16.1484 7.70727 16.5117 7.33227Z" fill="black" fill-opacity="0.85"/>
<path id="Vector_3" d="M4.96875 24.2776H17.6484C21.0352 24.2776 23.6719 21.7112 23.6719 18.4065C23.6719 15.1253 21.0117 12.6526 17.4961 12.6058C16.125 10.0394 13.6758 8.45728 10.7812 8.45728C6.90234 8.45728 3.65625 11.4573 3.26953 15.3011C1.32422 15.9222 0 17.6097 0 19.7425C0 22.3792 1.99219 24.2776 4.96875 24.2776Z" fill="white"/>
<path id="Vector_4" d="M4.96875 24.2776H17.6484C21.0352 24.2776 23.6719 21.7112 23.6719 18.4065C23.6719 15.1253 21.0117 12.6526 17.4961 12.6058C16.125 10.0394 13.6758 8.45728 10.7812 8.45728C6.90234 8.45728 3.65625 11.4573 3.26953 15.3011C1.32422 15.9222 0 17.6097 0 19.7425C0 22.3792 1.99219 24.2776 4.96875 24.2776ZM4.92188 22.4026C2.92969 22.4026 1.875 21.2542 1.875 19.7894C1.875 18.5472 2.60156 17.4456 4.32422 16.9886C4.88672 16.8362 5.09766 16.5784 5.14453 15.9925C5.41406 12.7112 7.85156 10.344 10.7812 10.344C13.0547 10.344 14.8242 11.5862 15.9141 13.7776C16.1719 14.2815 16.4531 14.4573 17.0508 14.4573C20.0859 14.4573 21.7852 16.2737 21.7852 18.4651C21.7852 20.6448 20.0039 22.4026 17.6836 22.4026H4.92188Z" fill="black" fill-opacity="0.85"/>
</g>
</g>
<defs>
<clipPath id="clip0_2124_12616">
<rect width="34.0547" height="34.1295" fill="white"/>
</clipPath>
</defs>
</svg>
