<svg width="31" height="30" viewBox="0 0 31 30" fill="none" xmlns="http://www.w3.org/2000/svg">
<g id="cloud.moon.rain" clip-path="url(#clip0_2124_12662)">
<g id="Group">
<path id="Vector" d="M17.7539 29.171L19.2891 26.5226C19.5 26.171 19.3828 25.7609 19.0312 25.5499C18.6797 25.3507 18.2812 25.4679 18.0586 25.8195L16.5234 28.4913C16.3242 28.8195 16.4297 29.2296 16.793 29.4406C17.1328 29.6398 17.5664 29.5226 17.7539 29.171Z" fill="black" fill-opacity="0.85"/>
<path id="Vector_2" d="M14.0977 25.8663L15.6211 23.2296C15.832 22.8663 15.7148 22.4562 15.3633 22.257C15.0117 22.046 14.6133 22.1632 14.4023 22.5265L12.8672 25.1866C12.668 25.5265 12.7617 25.9366 13.125 26.1476C13.4766 26.3351 13.8984 26.2179 14.0977 25.8663Z" fill="black" fill-opacity="0.85"/>
<path id="Vector_3" d="M8.43749 29.1827L9.96093 26.5343C10.1719 26.1827 10.0547 25.7726 9.71483 25.5616C9.35155 25.3624 8.95311 25.4796 8.74218 25.8312L7.20702 28.5031C7.0078 28.8312 7.11327 29.2413 7.46483 29.4523C7.8164 29.6515 8.23827 29.5343 8.43749 29.1827Z" fill="black" fill-opacity="0.85"/>
<path id="Vector_4" d="M4.76952 25.8781L6.29296 23.2413C6.5039 22.8781 6.39843 22.4679 6.04687 22.2687C5.68358 22.0577 5.28515 22.1749 5.07421 22.5382L3.53905 25.1984C3.33983 25.5382 3.4453 25.9484 3.79687 26.1593C4.14843 26.3468 4.5703 26.2296 4.76952 25.8781Z" fill="black" fill-opacity="0.85"/>
<path id="Vector_5" d="M23.4492 14.4288C27.3164 14.4288 29.7891 12.1906 30.668 9.89367C31.0547 8.95617 30.5508 8.1007 29.6367 8.1007C28.9336 8.1007 28.3594 8.40539 27.1172 8.40539C24.1289 8.40539 22.5469 6.77648 22.5469 4.0343C22.5469 2.69836 22.957 1.98351 22.957 1.32726C22.957 0.354607 22.125 -0.114143 21.0938 0.23742C18.6094 1.05773 16.5 3.70617 16.5 7.04601C16.5 11.2179 19.5234 14.4288 23.4492 14.4288ZM23.4492 12.6827C20.3789 12.6827 18.2109 10.339 18.2109 6.99914C18.2109 4.64367 19.5703 2.87414 21.1055 2.03039L21.2344 2.12414C21.0352 2.68664 20.8594 3.4718 20.8594 4.38586C20.8594 7.77258 23.3086 10.0695 26.7188 10.0695C27.5508 10.0695 28.3242 9.91711 28.8633 9.74133L28.9453 9.82336C28.1367 11.3468 26.0625 12.6827 23.4492 12.6827Z" fill="black" fill-opacity="0.85"/>
<path id="Vector_6" d="M4.96875 20.382H17.6484C21.0352 20.382 23.6719 17.8273 23.6719 14.5226C23.6719 11.2296 21.0117 8.76867 17.4961 8.71008C16.125 6.14367 13.6758 4.57336 10.7812 4.57336C6.90234 4.57336 3.65625 7.57336 3.26953 11.4171C1.32422 12.0265 0 13.714 0 15.8468C0 18.4952 1.99219 20.382 4.96875 20.382Z" fill="white"/>
<path id="Vector_7" d="M4.96875 20.382H17.6484C21.0352 20.382 23.6719 17.8273 23.6719 14.5226C23.6719 11.2296 21.0117 8.76867 17.4961 8.71008C16.125 6.14367 13.6758 4.57336 10.7812 4.57336C6.90234 4.57336 3.65625 7.57336 3.26953 11.4171C1.32422 12.0265 0 13.714 0 15.8468C0 18.4952 1.99219 20.382 4.96875 20.382ZM4.92188 18.507C2.92969 18.507 1.875 17.3585 1.875 15.8937C1.875 14.6632 2.60156 13.5616 4.32422 13.1046C4.88672 12.9523 5.09766 12.6945 5.14453 12.1085C5.41406 8.81555 7.85156 6.44836 10.7812 6.44836C13.0547 6.44836 14.8242 7.70226 15.9141 9.89367C16.1719 10.3976 16.4531 10.5616 17.0508 10.5616C20.0859 10.5616 21.7852 12.3898 21.7852 14.5695C21.7852 16.7609 20.0039 18.507 17.6836 18.507H4.92188Z" fill="black" fill-opacity="0.85"/>
</g>
</g>
<defs>
<clipPath id="clip0_2124_12662">
<rect width="30.7993" height="29.5491" fill="white"/>
</clipPath>
</defs>
</svg>
