<svg width="22" height="22" viewBox="0 0 22 22" fill="none" xmlns="http://www.w3.org/2000/svg">
<g clip-path="url(#clip0_2207_25864)">
<path d="M3.73853 21.648H17.9533C20.4143 21.648 21.633 20.4292 21.633 18.0151V3.70654C21.633 1.29248 20.4143 0.0737305 17.9533 0.0737305H3.73853C1.28931 0.0737305 0.0588379 1.28076 0.0588379 3.70654V18.0151C0.0588379 20.4409 1.28931 21.648 3.73853 21.648ZM3.76196 19.7612C2.59009 19.7612 1.94556 19.1401 1.94556 17.9214V3.80029C1.94556 2.58154 2.59009 1.96045 3.76196 1.96045H17.9299C19.09 1.96045 19.7463 2.58154 19.7463 3.80029V17.9214C19.7463 19.1401 19.09 19.7612 17.9299 19.7612H3.76196Z" fill="black" fill-opacity="0.85"/>
<path d="M6.08228 10.9487C6.08228 12.9995 6.72681 14.5933 7.85181 15.5659L7.41822 17.2651C7.39478 17.3589 7.38306 17.4409 7.38306 17.523C7.38306 17.8745 7.60572 18.1089 7.94556 18.1089C8.23853 18.1089 8.46118 17.9683 8.5315 17.6519L8.89478 16.2105C9.2229 16.3511 9.56275 16.4565 9.92603 16.5151L9.73853 17.2769C9.71509 17.3706 9.70337 17.4409 9.70337 17.523C9.70337 17.8745 9.91431 18.1089 10.2658 18.1089C10.5588 18.1089 10.7815 17.9683 10.8518 17.6519L11.133 16.5855C13.0197 16.4917 14.3908 15.5073 14.9065 14.0425C14.9768 13.855 15.0236 13.6441 15.0236 13.4448C15.0236 13.023 14.7424 12.7065 14.2971 12.7065C13.8986 12.7065 13.6643 12.9878 13.5471 13.3394C13.2893 14.2651 12.5276 14.9565 11.4963 15.1089L13.2658 8.1831C13.3713 8.28857 13.465 8.46435 13.5236 8.67529C13.6408 8.95654 13.8166 9.23779 14.2268 9.23779C14.6604 9.23779 14.9416 8.95654 14.9416 8.51123C14.9416 8.32373 14.8947 8.12451 14.8244 7.93701C14.6018 7.31591 14.215 6.77685 13.7229 6.35498L14.0979 4.85498C14.133 4.76123 14.1447 4.6792 14.1447 4.59717C14.1447 4.25732 13.9221 4.02295 13.5822 4.02295C13.2893 4.02295 13.0666 4.16357 12.9846 4.47998L12.6682 5.71045C12.3518 5.56982 12.0119 5.47607 11.6486 5.40576L11.7893 4.85498C11.8127 4.77295 11.8244 4.6792 11.8244 4.59717C11.8244 4.25732 11.6018 4.02295 11.2619 4.02295C10.969 4.02295 10.7463 4.16357 10.6643 4.47998L10.4416 5.35888C7.79322 5.54638 6.08228 7.69091 6.08228 10.9487ZM7.65259 10.9487C7.65259 8.76904 8.55493 7.2456 10.0549 6.8706L8.32056 13.7026C7.88696 12.9995 7.65259 12.0737 7.65259 10.9487ZM9.25806 14.7573L11.2971 6.80029C11.6604 6.84717 12.0002 6.97607 12.3049 7.15185L10.2776 15.1441C9.89087 15.0855 9.56275 14.9565 9.25806 14.7573Z" fill="black" fill-opacity="0.85"/>
</g>
<defs>
<clipPath id="clip0_2207_25864">
<rect width="21.5742" height="21.5977" fill="white" transform="translate(0.0588379 0.050293)"/>
</clipPath>
</defs>
</svg>
