<svg width="17" height="28" viewBox="0 0 17 28" fill="none" xmlns="http://www.w3.org/2000/svg">
<g clip-path="url(#clip0_2207_25850)">
<path d="M9.00561 24.412C12.8611 24.412 15.6384 22.5019 16.6697 19.6308C16.7986 19.2792 16.8572 18.9276 16.8689 18.5644C16.8806 17.955 16.4705 17.5331 15.8377 17.5331C15.2283 17.5331 14.9236 17.873 14.7244 18.4823C14.0681 20.8026 11.8533 22.3612 9.01733 22.3612C5.00952 22.3612 2.40796 19.0214 2.40796 13.6894C2.40796 8.43935 5.02124 5.14638 9.00561 5.14638C11.6892 5.14638 13.9158 6.79873 14.572 9.10732C14.783 9.78701 15.0759 10.0565 15.6853 10.0565C16.3181 10.0565 16.7283 9.63466 16.7166 9.01357C16.7048 8.66201 16.6463 8.33388 16.5291 8.00576C15.4627 5.04091 12.5213 3.0956 9.00561 3.0956C3.60327 3.0956 0.0524902 7.20888 0.0524902 13.6894C0.0524902 20.2519 3.57983 24.412 9.00561 24.412ZM7.17749 26.4042C6.88452 27.5409 8.44311 27.787 8.70093 26.7675L15.1111 1.5956C15.3806 0.529199 13.8455 0.189355 13.5759 1.23232L7.17749 26.4042ZM2.65405 26.3105C2.36108 27.4472 3.91968 27.6933 4.17749 26.6737L10.5877 1.50185C10.8572 0.435449 9.3103 0.0956047 9.05249 1.13857L2.65405 26.3105Z" fill="black" fill-opacity="0.85"/>
</g>
<defs>
<clipPath id="clip0_2207_25850">
<rect width="16.8167" height="27.3602" fill="white" transform="translate(0.0524902 0.050293)"/>
</clipPath>
</defs>
</svg>
