<svg width="27" height="29" viewBox="0 0 27 29" fill="none" xmlns="http://www.w3.org/2000/svg">
<g clip-path="url(#clip0_2207_18511)">
<path d="M1.31773 23.3618L6.59116 28.647C6.95445 29.0103 7.57554 29.0103 7.93882 28.647C8.3021 28.272 8.29038 27.6743 7.93882 27.311L4.49351 23.854L21.931 6.4165L25.3763 9.86181C25.7396 10.2251 26.3255 10.2368 26.6888 9.87353C27.0638 9.51025 27.0638 8.91259 26.6888 8.53759L21.4154 3.26416C19.7279 1.57666 17.5482 1.58838 15.849 3.29931L1.35288 17.7954C-0.34634 19.4946 -0.369779 21.6743 1.31773 23.3618ZM20.5365 7.44775L19.4349 8.58447L23.1498 12.2876C23.4662 12.6157 23.9701 12.6157 24.263 12.2993C24.5795 11.9946 24.5912 11.4907 24.2748 11.1743L20.5365 7.44775ZM18.2162 9.76806L17.1146 10.9048L20.8295 14.6079C21.1459 14.9243 21.6498 14.9243 21.9427 14.6196C22.2474 14.3149 22.2591 13.811 21.9545 13.5064L18.2162 9.76806ZM15.9076 12.0884L14.806 13.2251L18.5091 16.9399C18.8255 17.2446 19.3295 17.2446 19.6224 16.9517C19.9388 16.6353 19.9505 16.1314 19.6341 15.8267L15.9076 12.0884ZM13.599 14.4087L12.4857 15.522L16.2005 19.2485C16.517 19.5649 17.0209 19.5649 17.3138 19.2485C17.6185 18.9439 17.6302 18.4282 17.3255 18.1353L13.599 14.4087ZM11.2787 16.729L10.1654 17.8423L13.8802 21.5806C14.1849 21.8853 14.6888 21.8853 14.9935 21.5806C15.2982 21.2642 15.3099 20.7603 15.0052 20.4556L11.2787 16.729ZM8.95835 19.0493L7.84507 20.1626L11.5599 23.9009C11.8763 24.2056 12.3802 24.2056 12.6732 23.9009C12.9779 23.5845 12.9896 23.0806 12.6849 22.7759L8.95835 19.0493ZM6.63804 21.3696L5.52476 22.4829L9.2396 26.2212C9.54429 26.5259 10.0482 26.5259 10.3529 26.2212C10.6576 25.9048 10.6693 25.4009 10.3646 25.0962L6.63804 21.3696Z" fill="black" fill-opacity="0.85"/>
</g>
<defs>
<clipPath id="clip0_2207_18511">
<rect width="26.9049" height="28.8691" fill="white" transform="translate(0.0651855 0.050293)"/>
</clipPath>
</defs>
</svg>
