<svg width="17" height="26" viewBox="0 0 17 26" fill="none" xmlns="http://www.w3.org/2000/svg">
<g clip-path="url(#clip0_2207_14068)">
<path d="M8.28295 25.773C13.6736 25.773 16.4978 22.5737 16.4978 16.48C16.4978 12.7417 16.3454 9.41357 16.1345 7.15185C15.6892 2.15967 13.3806 0.0854492 8.28295 0.0854492C3.19702 0.0854492 0.888428 2.15967 0.431396 7.15185C0.220459 9.41357 0.079834 12.7417 0.079834 16.48C0.079834 22.5737 2.89233 25.773 8.28295 25.773ZM8.28295 23.8862C4.1228 23.8862 1.96655 21.355 1.96655 16.48C1.96655 12.9644 2.09545 9.65967 2.31811 7.32763C2.66967 3.33154 4.15795 1.97217 8.28295 1.97217C12.4079 1.97217 13.9079 3.33154 14.2595 7.32763C14.4704 9.65967 14.611 12.9644 14.611 16.48C14.611 21.355 12.4431 23.8862 8.28295 23.8862ZM1.4978 8.85107H15.0915V7.31591H1.4978V8.85107ZM7.53295 8.07763L9.06811 8.08935V1.29248L7.53295 1.28076V8.07763Z" fill="black" fill-opacity="0.85"/>
</g>
<defs>
<clipPath id="clip0_2207_14068">
<rect width="16.418" height="25.7227" fill="white" transform="translate(0.079834 0.050293)"/>
</clipPath>
</defs>
</svg>
