<svg width="21" height="32" viewBox="0 0 21 32" fill="none" xmlns="http://www.w3.org/2000/svg">
<g clip-path="url(#clip0_2207_12010)">
<path d="M3.77002 25.8198H9.46533V5.44091H3.77002C1.3208 5.44091 0.090332 6.65967 0.090332 9.07373V22.1987C0.090332 24.6128 1.3208 25.8198 3.77002 25.8198ZM17.0122 25.8198C19.4731 25.8198 20.6919 24.6011 20.6919 22.1987V9.07373C20.6919 6.65967 19.4731 5.44091 17.0122 5.44091H11.2934V25.8198H17.0122ZM10.3794 0.050293C9.86377 0.050293 9.46533 0.460449 9.46533 0.964355V5.44091H11.2934V0.964355C11.2934 0.460449 10.895 0.050293 10.3794 0.050293ZM10.3794 31.2105C10.895 31.2105 11.2934 30.812 11.2934 30.2964V25.8198H9.46533V30.2964C9.46533 30.812 9.86377 31.2105 10.3794 31.2105Z" fill="black" fill-opacity="0.85"/>
</g>
<defs>
<clipPath id="clip0_2207_12010">
<rect width="20.6016" height="31.1836" fill="white" transform="translate(0.090332 0.050293)"/>
</clipPath>
</defs>
</svg>
