<svg width="29" height="24" viewBox="0 0 29 24" fill="none" xmlns="http://www.w3.org/2000/svg">
<g clip-path="url(#clip0_2207_12311)">
<path d="M3.58887 23.0776H24.8819C27.2022 23.0776 28.374 21.8941 28.374 19.6206V3.51904C28.374 1.2456 27.2022 0.0620117 24.8819 0.0620117H3.58887C1.28027 0.0620117 0.0966797 1.2456 0.0966797 3.51904V19.6206C0.0966797 21.8941 1.28027 23.0776 3.58887 23.0776ZM3.60059 21.1909C2.56934 21.1909 1.9834 20.605 1.9834 19.5269V3.61279C1.9834 2.53467 2.56934 1.94873 3.60059 1.94873H24.8701C25.9014 1.94873 26.4873 2.53467 26.4873 3.61279V19.5269C26.4873 20.605 25.9014 21.1909 24.8701 21.1909H3.60059ZM7.64356 10.6792C9.57715 10.6792 11.1592 9.09717 11.1592 7.16357C11.1592 5.22998 9.57715 3.64795 7.64356 3.64795C5.70996 3.64795 4.12793 5.22998 4.12793 7.16357C4.12793 9.09717 5.70996 10.6792 7.64356 10.6792ZM7.64356 9.56591C6.31934 9.56591 5.25293 8.48779 5.25293 7.16357C5.25293 5.83935 6.31934 4.76123 7.64356 4.76123C8.96777 4.76123 10.0459 5.83935 10.0459 7.16357C10.0459 8.48779 8.96777 9.56591 7.64356 9.56591ZM7.64356 9.01513C8.68652 9.01513 9.4834 8.20654 9.4834 7.16357C9.4834 6.1206 8.68652 5.32373 7.64356 5.32373C6.6123 5.32373 5.80371 6.1206 5.80371 7.16357C5.80371 8.20654 6.6123 9.01513 7.64356 9.01513ZM16.7256 10.6792C18.6592 10.6792 20.2295 9.09717 20.2295 7.16357C20.2295 5.22998 18.6592 3.64795 16.7256 3.64795C14.7803 3.64795 13.21 5.22998 13.21 7.16357C13.21 9.09717 14.7803 10.6792 16.7256 10.6792ZM16.7256 9.56591C15.4014 9.56591 14.3233 8.48779 14.3233 7.16357C14.3233 5.83935 15.4014 4.76123 16.7256 4.76123C18.0498 4.76123 19.1162 5.83935 19.1162 7.16357C19.1162 8.48779 18.0498 9.56591 16.7256 9.56591ZM16.7256 9.01513C17.7569 9.01513 18.5655 8.20654 18.5655 7.16357C18.5655 6.1206 17.7569 5.32373 16.7256 5.32373C15.6826 5.32373 14.874 6.1206 14.874 7.16357C14.874 8.20654 15.6826 9.01513 16.7256 9.01513ZM7.64356 19.4565C9.57715 19.4565 11.1592 17.8862 11.1592 15.9409C11.1592 14.0073 9.57715 12.437 7.64356 12.437C5.70996 12.437 4.12793 14.0073 4.12793 15.9409C4.12793 17.8862 5.70996 19.4565 7.64356 19.4565ZM7.64356 18.3433C6.31934 18.3433 5.25293 17.2769 5.25293 15.9409C5.25293 14.6167 6.31934 13.5503 7.64356 13.5503C8.96777 13.5503 10.0459 14.6167 10.0459 15.9409C10.0459 17.2769 8.96777 18.3433 7.64356 18.3433ZM7.64356 17.7925C8.68652 17.7925 9.4834 16.9839 9.4834 15.9409C9.4834 14.9097 8.68652 14.1011 7.64356 14.1011C6.6123 14.1011 5.80371 14.9097 5.80371 15.9409C5.80371 16.9839 6.6123 17.7925 7.64356 17.7925ZM16.7256 19.4565C18.6592 19.4565 20.2295 17.8862 20.2295 15.9409C20.2295 14.0073 18.6592 12.437 16.7256 12.437C14.7803 12.437 13.21 14.0073 13.21 15.9409C13.21 17.8862 14.7803 19.4565 16.7256 19.4565ZM16.7256 18.3433C15.4014 18.3433 14.3233 17.2769 14.3233 15.9409C14.3233 14.6167 15.4014 13.5503 16.7256 13.5503C18.0498 13.5503 19.1162 14.6167 19.1162 15.9409C19.1162 17.2769 18.0498 18.3433 16.7256 18.3433ZM16.7256 17.7925C17.7569 17.7925 18.5655 16.9839 18.5655 15.9409C18.5655 14.9097 17.7569 14.1011 16.7256 14.1011C15.6826 14.1011 14.874 14.9097 14.874 15.9409C14.874 16.9839 15.6826 17.7925 16.7256 17.7925ZM23.8272 7.53857C24.4014 7.53857 24.8467 7.08154 24.8467 6.50732C24.8467 5.94482 24.4014 5.48779 23.8272 5.48779C23.2529 5.48779 22.7959 5.94482 22.7959 6.50732C22.7959 7.08154 23.2529 7.53857 23.8272 7.53857ZM23.8272 10.9019C24.4014 10.9019 24.8467 10.4565 24.8467 9.8706C24.8467 9.3081 24.4014 8.85107 23.8272 8.85107C23.2529 8.85107 22.7959 9.3081 22.7959 9.8706C22.7959 10.4565 23.2529 10.9019 23.8272 10.9019ZM23.8272 14.2769C24.4014 14.2769 24.8467 13.8198 24.8467 13.2456C24.8467 12.6714 24.4014 12.2261 23.8272 12.2261C23.2529 12.2261 22.7959 12.6714 22.7959 13.2456C22.7959 13.8198 23.2529 14.2769 23.8272 14.2769ZM23.8272 17.6401C24.4014 17.6401 24.8467 17.1831 24.8467 16.6089C24.8467 16.0464 24.4014 15.5894 23.8272 15.5894C23.2529 15.5894 22.7959 16.0464 22.7959 16.6089C22.7959 17.1831 23.2529 17.6401 23.8272 17.6401Z" fill="black" fill-opacity="0.85"/>
</g>
<defs>
<clipPath id="clip0_2207_12311">
<rect width="28.2773" height="23.0273" fill="white" transform="translate(0.0966797 0.050293)"/>
</clipPath>
</defs>
</svg>
