<svg width="24" height="24" viewBox="0 0 24 24" fill="none" xmlns="http://www.w3.org/2000/svg">
<g clip-path="url(#clip0_2207_10124)">
<path d="M11.9614 23.958C18.5005 23.958 23.9145 18.5323 23.9145 12.0049C23.9145 5.46582 18.4888 0.0517578 11.9497 0.0517578C5.42236 0.0517578 0.00830078 5.46582 0.00830078 12.0049C0.00830078 18.5323 5.43408 23.958 11.9614 23.958ZM11.9614 21.9659C6.43018 21.9659 2.01221 17.5362 2.01221 12.0049C2.01221 6.47364 6.41846 2.04395 11.9497 2.04395C17.481 2.04395 21.9224 6.47364 21.9224 12.0049C21.9224 17.5362 17.4927 21.9659 11.9614 21.9659Z" fill="black" fill-opacity="0.85"/>
<path d="M7.05127 16.8565H16.8481C18.02 16.8565 18.6177 16.2706 18.6177 15.0987V10.7393H5.28174V15.0987C5.28174 16.2706 5.87939 16.8565 7.05127 16.8565ZM7.60205 15.0987C7.27392 15.0987 7.05127 14.876 7.05127 14.5596V13.5049C7.05127 13.1885 7.27392 12.9659 7.60205 12.9659H8.99658C9.32471 12.9659 9.54736 13.1885 9.54736 13.5049V14.5596C9.54736 14.876 9.32471 15.0987 8.99658 15.0987H7.60205ZM5.28174 9.4502H18.6177V8.92285C18.6177 7.7627 18.02 7.17676 16.8481 7.17676H7.05127C5.87939 7.17676 5.28174 7.75098 5.28174 8.92285V9.4502Z" fill="black" fill-opacity="0.85"/>
</g>
<defs>
<clipPath id="clip0_2207_10124">
<rect width="23.9062" height="23.918" fill="white" transform="translate(0.00830078 0.0517578)"/>
</clipPath>
</defs>
</svg>
