<svg width="28" height="21" viewBox="0 0 28 21" fill="none" xmlns="http://www.w3.org/2000/svg">
<g clip-path="url(#clip0_2207_10120)">
<path d="M4.80567 16.4463C4.11426 16.4463 3.65723 15.9776 3.65723 15.3213V13.1534C3.65723 12.4854 4.11426 12.0284 4.80567 12.0284H7.67676C8.36817 12.0284 8.8252 12.4854 8.8252 13.1534V15.3213C8.8252 15.9776 8.36817 16.4463 7.67676 16.4463H4.80567ZM0.0126953 7.44629V4.78614H27.5518V7.44629H0.0126953ZM3.69239 20.0791H23.8721C26.333 20.0791 27.5518 18.8721 27.5518 16.458V3.69629C27.5518 1.28223 26.333 0.0634766 23.8721 0.0634766H3.69239C1.24317 0.0634766 0.0126953 1.28223 0.0126953 3.69629V16.458C0.0126953 18.8721 1.24317 20.0791 3.69239 20.0791Z" fill="black" fill-opacity="0.85"/>
</g>
<defs>
<clipPath id="clip0_2207_10120">
<rect width="27.5391" height="20.0273" fill="white" transform="translate(0.0126953 0.0517578)"/>
</clipPath>
</defs>
</svg>
