<svg width="24" height="24" viewBox="0 0 24 24" fill="none" xmlns="http://www.w3.org/2000/svg">
<g clip-path="url(#clip0_2207_10701)">
<path d="M11.9909 23.958C18.53 23.958 23.944 18.5323 23.944 12.0049C23.944 5.46582 18.5183 0.0517578 11.9792 0.0517578C5.4519 0.0517578 0.0378418 5.46582 0.0378418 12.0049C0.0378418 18.5323 5.46362 23.958 11.9909 23.958ZM11.9909 21.9659C6.45972 21.9659 2.04175 17.5362 2.04175 12.0049C2.04175 6.47364 6.448 2.04395 11.9792 2.04395C17.5105 2.04395 21.9519 6.47364 21.9519 12.0049C21.9519 17.5362 17.5222 21.9659 11.9909 21.9659Z" fill="black" fill-opacity="0.85"/>
<path d="M8.40503 8.24317H9.53003V7.17676C9.53003 6.87207 9.72925 6.68457 10.0573 6.68457H13.9245C14.2409 6.68457 14.4401 6.87207 14.4401 7.17676V8.24317H15.5534V7.11817C15.5534 6.19238 14.944 5.62988 13.9831 5.62988H9.97534C9.0144 5.62988 8.40503 6.19238 8.40503 7.11817V8.24317ZM7.15112 17.208H16.8073C18.0378 17.208 18.6589 16.6104 18.6589 15.3916V9.54395C18.6589 8.31348 18.0378 7.71582 16.8073 7.71582H7.15112C5.92065 7.71582 5.31128 8.31348 5.31128 9.54395V15.3916C5.31128 16.6104 5.92065 17.208 7.15112 17.208ZM9.21362 12.9776V11.9229C9.21362 11.6065 9.41284 11.3956 9.72925 11.3956H10.9362V10.212C10.9362 9.88379 11.1472 9.69629 11.4519 9.69629H12.5066C12.823 9.69629 13.0222 9.88379 13.0222 10.212V11.3956H14.2409C14.5456 11.3956 14.7448 11.6065 14.7448 11.9229V12.9776C14.7448 13.3057 14.5456 13.5049 14.2409 13.5049H13.0222V14.712C13.0222 15.0166 12.823 15.2276 12.5066 15.2276H11.4519C11.1472 15.2276 10.9362 15.0166 10.9362 14.712V13.5049H9.72925C9.41284 13.5049 9.21362 13.3057 9.21362 12.9776Z" fill="black" fill-opacity="0.85"/>
</g>
<defs>
<clipPath id="clip0_2207_10701">
<rect width="23.9062" height="23.918" fill="white" transform="translate(0.0378418 0.0517578)"/>
</clipPath>
</defs>
</svg>
