<svg width="24" height="24" viewBox="0 0 24 24" fill="none" xmlns="http://www.w3.org/2000/svg">
<g clip-path="url(#clip0_2207_10706)">
<path d="M11.993 23.9698C18.5321 23.9698 23.9461 18.5557 23.9461 12.0166C23.9461 5.48926 18.5204 0.0634766 11.9813 0.0634766C5.45398 0.0634766 0.039917 5.48926 0.039917 12.0166C0.039917 18.5557 5.4657 23.9698 11.993 23.9698Z" fill="black" fill-opacity="0.85"/>
<path d="M7.01258 17.4073C5.74695 17.4073 5.11414 16.7979 5.11414 15.5206V9.50879C5.11414 8.24317 5.74695 7.62207 7.01258 7.62207H8.30164V7.00098C8.30164 6.04004 8.93445 5.46582 9.93054 5.46582H14.0555C15.0516 5.46582 15.6844 6.04004 15.6844 7.00098V7.62207H16.9735C18.2391 7.62207 18.8837 8.24317 18.8837 9.50879V15.5206C18.8837 16.7979 18.2391 17.4073 16.9735 17.4073H7.01258ZM9.47351 7.62207H14.5243V7.05957C14.5243 6.74317 14.3251 6.55567 13.9969 6.55567H10.0126C9.67273 6.55567 9.47351 6.74317 9.47351 7.05957V7.62207ZM9.13367 13.0479C9.13367 13.376 9.34461 13.587 9.67273 13.587H10.9149V14.8291C10.9149 15.1456 11.1376 15.3565 11.454 15.3565H12.5321C12.8602 15.3565 13.0711 15.1456 13.0711 14.8291V13.587H14.3133C14.6415 13.587 14.8524 13.376 14.8524 13.0479V11.9463C14.8524 11.6299 14.6415 11.419 14.3133 11.419H13.0711V10.1768C13.0711 9.86035 12.8602 9.64942 12.5321 9.64942H11.454C11.1376 9.64942 10.9149 9.86035 10.9149 10.1768V11.419H9.67273C9.34461 11.419 9.13367 11.6299 9.13367 11.9463V13.0479Z" fill="white"/>
</g>
<defs>
<clipPath id="clip0_2207_10706">
<rect width="23.9062" height="23.918" fill="white" transform="translate(0.039917 0.0517578)"/>
</clipPath>
</defs>
</svg>
