<svg width="17" height="29" viewBox="0 0 17 29" fill="none" xmlns="http://www.w3.org/2000/svg">
<g clip-path="url(#clip0_2207_17989)">
<path d="M4.15405 5.43067H12.0056C13.283 5.43067 14.0447 4.65723 14.0447 3.35645V2.12598C14.0447 0.825196 13.283 0.0517578 12.0056 0.0517578H4.15405C2.88843 0.0517578 2.12671 0.825196 2.12671 2.12598V3.35645C2.12671 4.65723 2.88843 5.43067 4.15405 5.43067ZM4.3064 7.56348H11.865V4.78614H4.3064V7.56348ZM3.83765 28.1065H12.3337C14.6189 28.1065 16.1189 26.5948 16.1189 24.2627V10.9737C16.1189 8.6416 14.6189 7.12988 12.3337 7.12988H3.83765C1.55249 7.12988 0.0524902 8.6416 0.0524902 10.9737V24.2627C0.0524902 26.5948 1.55249 28.1065 3.83765 28.1065Z" fill="black" fill-opacity="0.85"/>
<path d="M3.56812 18.4737V16.7627C3.56812 16.2471 3.90797 15.9307 4.40016 15.9307H6.39234V13.9502C6.39234 13.4463 6.70875 13.1182 7.22438 13.1182H8.9353C9.45093 13.1182 9.76733 13.4463 9.76733 13.9502V15.9307H11.7595C12.24 15.9307 12.6033 16.2471 12.6033 16.7627V18.4737C12.6033 18.9893 12.24 19.3057 11.7595 19.3057H9.76733V21.2862C9.76733 21.7901 9.45093 22.1299 8.9353 22.1299H7.22438C6.70875 22.1299 6.39234 21.7901 6.39234 21.2862V19.3057H4.40016C3.90797 19.3057 3.56812 18.9893 3.56812 18.4737Z" fill="white"/>
</g>
<defs>
<clipPath id="clip0_2207_17989">
<rect width="16.0664" height="28.0898" fill="white" transform="translate(0.0524902 0.0517578)"/>
</clipPath>
</defs>
</svg>
