<svg width="26" height="26" viewBox="0 0 26 26" fill="none" xmlns="http://www.w3.org/2000/svg">
<g clip-path="url(#clip0_2207_17937)">
<path d="M0.0335693 14.5362C0.0335693 16.7393 1.09998 17.8174 3.26795 17.8174H7.4281V21.9776C7.4281 24.1456 8.50623 25.212 10.7094 25.212H14.5063C16.7094 25.212 17.7875 24.1456 17.7875 21.9776V17.8174H21.9477C24.1156 17.8174 25.182 16.7393 25.182 14.5362V10.7393C25.182 8.53614 24.1156 7.45801 21.9477 7.45801H17.7875V3.28614C17.7875 1.11817 16.7094 0.0517578 14.5063 0.0517578H10.7094C8.50623 0.0517578 7.4281 1.11817 7.4281 3.28614V7.45801H3.26795C1.09998 7.45801 0.0335693 8.53614 0.0335693 10.7393V14.5362ZM1.92029 14.501V10.7745C1.92029 9.8252 2.41248 9.34473 3.37341 9.34473H9.31482V3.3916C9.31482 2.43067 9.79529 1.93848 10.7445 1.93848H14.4711C15.4203 1.93848 15.9008 2.43067 15.9008 3.3916V9.34473H21.8422C22.8031 9.34473 23.2953 9.8252 23.2953 10.7745V14.501C23.2953 15.4502 22.8031 15.9307 21.8422 15.9307H15.9008V21.8838C15.9008 22.8448 15.4203 23.3252 14.4711 23.3252H10.7445C9.79529 23.3252 9.31482 22.8448 9.31482 21.8838V15.9307H3.37341C2.41248 15.9307 1.92029 15.4502 1.92029 14.501Z" fill="black" fill-opacity="0.85"/>
</g>
<defs>
<clipPath id="clip0_2207_17937">
<rect width="25.1484" height="25.1836" fill="white" transform="translate(0.0335693 0.0517578)"/>
</clipPath>
</defs>
</svg>
