<svg width="31" height="25" viewBox="0 0 31 25" fill="none" xmlns="http://www.w3.org/2000/svg">
<g clip-path="url(#clip0_2207_18294)">
<path d="M3.08985 10.9854C4.75391 10.9854 6.11328 9.62598 6.11328 7.93848C6.11328 6.28614 4.75391 4.91504 3.08985 4.91504C1.41407 4.91504 0.0546875 6.27442 0.0546875 7.93848C0.0546875 9.62598 1.42578 10.9854 3.08985 10.9854ZM3.08985 9.15723C2.4336 9.15723 1.88281 8.60645 1.88281 7.93848C1.88281 7.27051 2.4336 6.74317 3.08985 6.74317C3.73438 6.74317 4.28516 7.29395 4.28516 7.93848C4.28516 8.60645 3.75781 9.15723 3.08985 9.15723ZM15.0899 6.11035C16.7539 6.11035 18.1133 4.75098 18.1133 3.0752C18.1133 1.42285 16.7539 0.0517578 15.0899 0.0517578C13.4024 0.0517578 12.0547 1.41114 12.0547 3.0752C12.0547 4.75098 13.4141 6.11035 15.0899 6.11035ZM15.0899 4.28223C14.4336 4.28223 13.8828 3.73145 13.8828 3.0752C13.8828 2.40723 14.4336 1.87988 15.0899 1.87988C15.7344 1.87988 16.2852 2.43067 16.2852 3.0752C16.2852 3.73145 15.7578 4.28223 15.0899 4.28223ZM27.0781 10.9854C28.7422 10.9854 30.1133 9.62598 30.1133 7.93848C30.1133 6.27442 28.7539 4.91504 27.0781 4.91504C25.4141 4.91504 24.0547 6.28614 24.0547 7.93848C24.0547 9.62598 25.4141 10.9854 27.0781 10.9854ZM27.0781 9.15723C26.4102 9.15723 25.8828 8.60645 25.8828 7.93848C25.8828 7.29395 26.4336 6.74317 27.0781 6.74317C27.7344 6.74317 28.2852 7.27051 28.2852 7.93848C28.2852 8.60645 27.7344 9.15723 27.0781 9.15723ZM4.48438 10.212L8.19922 12.4971C8.94922 12.9541 10.1914 12.9776 10.9649 11.9346L15.3945 5.99317L13.7188 5.27832L9.67578 10.7041C9.46485 11.0088 9.24219 11.0674 8.84375 10.8213L5.42188 8.71192L4.48438 10.212ZM25.6836 10.2002L24.7461 8.7002L21.3477 10.7862C20.9258 11.0557 20.6914 10.9737 20.457 10.6573L16.4492 5.25488L14.7852 5.98145L19.2266 11.9463C19.9766 12.9541 21.207 12.9541 21.8867 12.5323L25.6836 10.2002ZM5.96094 18.8018H24.2188V17.0323H5.96094V18.8018ZM3.03125 10.4698L5.42188 20.208C5.86719 22.0479 6.83985 22.9737 8.77344 22.9737H21.3945C23.3399 22.9737 24.3008 22.0479 24.7578 20.208L27.1485 10.4698L25.4961 9.71973L23 19.9854C22.8008 20.8174 22.2969 21.2041 21.418 21.2041H8.76172C7.88281 21.2041 7.37891 20.8174 7.17969 19.9854L4.67188 9.71973L3.03125 10.4698Z" fill="black" fill-opacity="0.85"/>
</g>
<defs>
<clipPath id="clip0_2207_18294">
<rect width="30.0586" height="24.4102" fill="white" transform="translate(0.0546875 0.0517578)"/>
</clipPath>
</defs>
</svg>
