<svg width="24" height="24" viewBox="0 0 24 24" fill="none" xmlns="http://www.w3.org/2000/svg">
<g clip-path="url(#clip0_2207_25907)">
<path d="M12.0161 23.958C18.5552 23.958 23.9692 18.5323 23.9692 12.0049C23.9692 5.46582 18.5435 0.0517578 12.0044 0.0517578C5.47705 0.0517578 0.0629883 5.46582 0.0629883 12.0049C0.0629883 18.5323 5.48877 23.958 12.0161 23.958Z" fill="black" fill-opacity="0.85"/>
<path d="M7.11768 12.0166C7.11768 8.47754 9.06299 6.2041 12.0161 6.2041C13.9497 6.2041 15.5903 7.29395 16.1528 8.87598C16.2232 9.0752 16.2583 9.28614 16.2583 9.49707C16.2583 9.94238 15.9771 10.2354 15.52 10.2354C15.0864 10.2354 14.8755 9.97754 14.7466 9.60254C14.3599 8.48926 13.3169 7.68067 12.0044 7.68067C10.0239 7.68067 8.74658 9.37988 8.74658 12.0049C8.74658 14.2549 9.64893 15.8135 11.1489 16.2471V12.0049C11.1489 11.6416 11.395 11.3838 11.7466 11.3838C12.0864 11.3838 12.3442 11.6182 12.3442 12.0049V12.5088C12.7192 11.794 13.4107 11.419 14.1372 11.419C14.7935 11.419 15.2388 11.712 15.2388 12.1456C15.2388 12.462 14.9927 12.6846 14.6411 12.6846C14.5005 12.6846 14.3364 12.6377 14.0903 12.6377C13.0708 12.6377 12.356 13.4463 12.356 14.6065V16.3526C13.5747 16.2471 14.5239 15.5088 14.8286 14.4776C14.9575 14.0557 15.1919 13.8448 15.6021 13.8448C16.0591 13.8448 16.3521 14.1377 16.3521 14.5713C16.3403 14.7823 16.3052 14.9698 16.2349 15.1573C15.6724 16.7627 14.1489 17.8291 12.0161 17.8291C9.06299 17.8291 7.11768 15.6026 7.11768 12.0166Z" fill="white"/>
</g>
<defs>
<clipPath id="clip0_2207_25907">
<rect width="23.9062" height="23.918" fill="white" transform="translate(0.0629883 0.0517578)"/>
</clipPath>
</defs>
</svg>
