<svg width="24" height="24" viewBox="0 0 24 24" fill="none" xmlns="http://www.w3.org/2000/svg">
<g clip-path="url(#clip0_2207_25902)">
<path d="M12.0141 23.958C18.5532 23.958 23.9672 18.5323 23.9672 12.0049C23.9672 5.46582 18.5415 0.0517578 12.0024 0.0517578C5.47509 0.0517578 0.0610352 5.46582 0.0610352 12.0049C0.0610352 18.5323 5.48682 23.958 12.0141 23.958ZM12.0141 21.9659C6.48292 21.9659 2.06495 17.5362 2.06495 12.0049C2.06495 6.47364 6.47119 2.04395 12.0024 2.04395C17.5337 2.04395 21.9751 6.47364 21.9751 12.0049C21.9751 17.5362 17.5454 21.9659 12.0141 21.9659Z" fill="black" fill-opacity="0.85"/>
<path d="M7.25635 12.0166C7.25635 15.4854 9.14307 17.6416 12.0024 17.6416C14.0766 17.6416 15.5532 16.6104 16.0922 15.0518C16.1626 14.876 16.1977 14.6885 16.2094 14.4893C16.2094 14.0674 15.9165 13.7862 15.4829 13.7862C15.0844 13.7862 14.8618 13.9971 14.7329 14.3956C14.4399 15.4034 13.5141 16.1182 12.3305 16.2237V14.5245C12.3305 13.3995 13.0219 12.6143 14.018 12.6143C14.2524 12.6143 14.4165 12.6612 14.5571 12.6612C14.8969 12.6612 15.1313 12.4502 15.1313 12.1456C15.1313 11.7237 14.6977 11.4424 14.0649 11.4424C13.3618 11.4424 12.6821 11.8057 12.3188 12.4971V12.0049C12.3188 11.6299 12.0727 11.4073 11.7446 11.4073C11.4048 11.4073 11.1704 11.6534 11.1704 12.0049V16.1182C9.70557 15.708 8.82666 14.1846 8.82666 12.0049C8.82666 9.46192 10.0688 7.80957 11.9907 7.80957C13.268 7.80957 14.2876 8.59473 14.6508 9.68457C14.7798 10.0479 14.979 10.294 15.4008 10.294C15.8462 10.294 16.1157 10.0127 16.1157 9.5791C16.1157 9.37988 16.0805 9.16895 16.0102 8.98145C15.4712 7.44629 13.8774 6.3916 12.0024 6.3916C9.14307 6.3916 7.25635 8.58301 7.25635 12.0166Z" fill="black" fill-opacity="0.85"/>
</g>
<defs>
<clipPath id="clip0_2207_25902">
<rect width="23.9062" height="23.918" fill="white" transform="translate(0.0610352 0.0517578)"/>
</clipPath>
</defs>
</svg>
