<svg width="24" height="26" viewBox="0 0 24 26" fill="none" xmlns="http://www.w3.org/2000/svg">
<g clip-path="url(#clip0_2207_19878)">
<path d="M1.70996 20.337L10.9326 25.5635C11.5888 25.9385 12.2099 25.9385 12.8779 25.5635L22.0888 20.337C23.167 19.7276 23.7295 19.1065 23.7295 17.4307V8.14942C23.7295 6.93067 23.2841 6.16895 22.2998 5.60645L14.0029 0.895508C12.5849 0.0751953 11.2138 0.0751953 9.7959 0.895508L1.51075 5.60645C0.514648 6.16895 0.0693359 6.93067 0.0693359 8.14942V17.4307C0.0693359 19.1065 0.643555 19.7276 1.70996 20.337ZM2.76465 18.7901C2.08496 18.4151 1.85059 18.0166 1.85059 17.3721V8.52442L10.9795 13.7393V23.4659L2.76465 18.7901ZM21.0459 18.7901L12.8193 23.4659V13.7393L21.9482 8.52442V17.3721C21.9482 18.0166 21.7138 18.4151 21.0459 18.7901ZM11.9052 12.0987L2.8584 6.97754L10.581 2.57129C11.4834 2.05567 12.3154 2.04395 13.2295 2.57129L20.9521 6.97754L11.9052 12.0987Z" fill="black" fill-opacity="0.85"/>
</g>
<defs>
<clipPath id="clip0_2207_19878">
<rect width="23.6602" height="25.793" fill="white" transform="translate(0.0693359 0.0517578)"/>
</clipPath>
</defs>
</svg>
