<svg width="24" height="26" viewBox="0 0 24 26" fill="none" xmlns="http://www.w3.org/2000/svg">
<g clip-path="url(#clip0_2207_19886)">
<path d="M11.1008 4.29395H12.7063V1.49317H11.1008V4.29395ZM11.1008 8.58301H12.7063V5.47754H11.1008V8.58301ZM11.1008 12.5323H12.7063V9.77832H11.1008V12.5323ZM9.03833 15.626L11.5462 14.3721L10.8196 12.9307L8.32349 14.1846L9.03833 15.626ZM5.19458 17.5362L7.96021 16.1534L7.24537 14.712L4.47974 16.0948L5.19458 17.5362ZM1.65552 19.294L4.12818 18.0518L3.40161 16.6104L0.928955 17.8526L1.65552 19.294ZM12.261 14.3721L14.7688 15.626L15.4837 14.1846L12.9876 12.9307L12.261 14.3721ZM15.8469 16.1534L18.6243 17.5362L19.3391 16.0948L16.5618 14.712L15.8469 16.1534ZM19.679 18.0518L22.1516 19.294L22.8782 17.8526L20.4173 16.6104L19.679 18.0518ZM1.71411 20.337L10.9368 25.5635C11.593 25.9385 12.2141 25.9385 12.8821 25.5635L22.093 20.337C23.1712 19.7276 23.7337 19.1065 23.7337 17.4307V8.14942C23.7337 6.93067 23.2883 6.16895 22.304 5.60645L14.0071 0.895508C12.5891 0.0751953 11.218 0.0751953 9.80005 0.895508L1.5149 5.60645C0.518798 6.16895 0.0734863 6.93067 0.0734863 8.14942V17.4307C0.0734863 19.1065 0.647705 19.7276 1.71411 20.337ZM2.7688 18.7901C2.08911 18.4151 1.85474 18.0166 1.85474 17.3721V8.52442L10.9837 13.7393V23.4659L2.7688 18.7901ZM21.0501 18.7901L12.8235 23.4659V13.7393L21.9524 8.52442V17.3721C21.9524 18.0166 21.718 18.4151 21.0501 18.7901ZM11.9094 12.0987L2.86255 6.97754L10.5852 2.57129C11.4876 2.05567 12.3196 2.04395 13.2337 2.57129L20.9563 6.97754L11.9094 12.0987Z" fill="black" fill-opacity="0.85"/>
</g>
<defs>
<clipPath id="clip0_2207_19886">
<rect width="23.6602" height="25.793" fill="white" transform="translate(0.0734863 0.0517578)"/>
</clipPath>
</defs>
</svg>
