<svg width="24" height="26" viewBox="0 0 24 26" fill="none" xmlns="http://www.w3.org/2000/svg">
<g clip-path="url(#clip0_2207_19882)">
<path d="M11.9658 12.3916L23.0049 6.12207C22.8291 5.94629 22.6182 5.80567 22.3604 5.66504L14.0869 0.954102C13.3721 0.543946 12.6572 0.321289 11.9658 0.321289C11.2627 0.321289 10.5479 0.543946 9.83301 0.954102L1.57129 5.66504C1.31348 5.80567 1.10254 5.94629 0.915039 6.12207L11.9658 12.3916ZM11.1572 25.8213V13.7979L0.165039 7.5166C0.0947266 7.77442 0.0712891 8.05567 0.0712891 8.40723V17.5362C0.0712891 19.2354 0.668945 19.8682 1.74707 20.4893L10.9346 25.7159C11.0049 25.7627 11.0752 25.7979 11.1572 25.8213ZM12.7627 25.8213C12.8447 25.7979 12.9151 25.7627 12.9971 25.7159L22.1729 20.4893C23.2627 19.8682 23.8486 19.2354 23.8486 17.5362V8.40723C23.8486 8.05567 23.8252 7.77442 23.7549 7.5166L12.7627 13.7979V25.8213Z" fill="black" fill-opacity="0.85"/>
</g>
<defs>
<clipPath id="clip0_2207_19882">
<rect width="23.7773" height="25.7695" fill="white" transform="translate(0.0712891 0.0517578)"/>
</clipPath>
</defs>
</svg>
