<svg width="31" height="23" viewBox="0 0 31 23" fill="none" xmlns="http://www.w3.org/2000/svg">
<g clip-path="url(#clip0_2207_21209)">
<path d="M14.8337 17.2315H15.8884C21.7478 17.2315 25.697 13.2823 25.697 7.15332V4.77442C25.697 1.98535 21.5251 0.0869141 15.361 0.0869141C9.19702 0.0869141 5.02514 1.98535 5.02514 4.77442V7.15332C5.02514 13.0713 8.96264 17.2315 14.8337 17.2315ZM15.361 7.63379C10.4626 7.63379 6.85327 6.3916 6.85327 4.77442C6.85327 3.16895 10.4626 1.91504 15.361 1.91504C20.2712 1.91504 23.8806 3.16895 23.8806 4.77442C23.8806 6.3916 20.2712 7.63379 15.361 7.63379ZM24.4314 12.0518H25.3571C27.9704 12.0518 29.5407 10.6807 29.5407 8.40723C29.5407 6.14551 27.9587 4.7627 25.3571 4.7627H24.6071V6.5791H25.3571C26.8454 6.5791 27.7126 7.25879 27.7126 8.40723C27.7126 9.54395 26.8454 10.2354 25.3571 10.2354H24.4314V12.0518ZM15.3025 22.8448C24.2087 22.8448 30.5251 20.3135 30.5251 16.6338C30.5251 15.2041 29.5525 13.9502 27.8415 12.9424C27.1384 13.2354 26.365 13.3995 25.486 13.4229C23.6228 16.669 20.2126 18.6026 15.8884 18.6026H14.8337C10.0173 18.6026 6.25561 16.0479 4.57983 12.0518C1.73217 13.1534 0.079834 14.7471 0.079834 16.6338C0.079834 20.3135 6.40795 22.8448 15.3025 22.8448Z" fill="black" fill-opacity="0.85"/>
</g>
<defs>
<clipPath id="clip0_2207_21209">
<rect width="30.4453" height="22.793" fill="white" transform="translate(0.079834 0.0517578)"/>
</clipPath>
</defs>
</svg>
