<svg width="22" height="25" viewBox="0 0 22 25" fill="none" xmlns="http://www.w3.org/2000/svg">
<g clip-path="url(#clip0_2207_23006)">
<path d="M0.0820312 12.1573C0.0820312 12.837 0.46875 13.3174 1.27734 13.4463C2.73047 13.669 3.30469 14.4073 3.30469 16.294V19.587C3.30469 22.7745 4.75781 24.2745 7.92187 24.2745C8.10937 24.2745 8.30859 24.2393 8.44922 24.1924C8.8125 24.0401 9.01172 23.7471 9.01172 23.3604C9.01172 22.9034 8.8125 22.669 8.40234 22.5635C8.28515 22.5401 8.16797 22.5166 8.02734 22.5049C6.05859 22.3643 5.34375 21.5206 5.34375 19.3526V15.462C5.34375 13.4815 4.30078 12.3799 2.47265 12.2041C2.4375 12.2041 2.4375 12.1573 2.47265 12.1573C4.30078 11.9815 5.34375 10.8799 5.34375 8.89942V4.99707C5.34375 2.81738 6.05859 1.99707 8.02734 1.85645C8.21484 1.84473 8.37891 1.82129 8.49609 1.77442C8.83594 1.65723 9.01172 1.39942 9.01172 0.989258C9.01172 0.579102 8.80078 0.297852 8.40234 0.157227C8.22656 0.0986328 8.03906 0.0751953 7.80469 0.0751953C4.74609 0.0751953 3.30469 1.59864 3.30469 4.7627V8.06738C3.30469 9.93067 2.73047 10.6807 1.27734 10.9034C0.46875 11.0323 0.0820312 11.4893 0.0820312 12.1573ZM21.9023 12.1573C21.9023 11.4893 21.5039 11.0323 20.6953 10.9034C19.2539 10.6807 18.6679 9.93067 18.6679 8.06738V4.7627C18.6679 1.59864 17.2265 0.0751953 14.1679 0.0751953C13.9336 0.0751953 13.7578 0.0986328 13.582 0.157227C13.1601 0.297852 12.9609 0.579102 12.9609 0.989258C12.9609 1.39942 13.1601 1.64551 13.4882 1.77442C13.6054 1.82129 13.7578 1.84473 13.9453 1.85645C15.9023 1.9502 16.6406 2.81738 16.6406 4.99707V8.89942C16.6406 10.8916 17.6836 12.1573 19.5 12.1573C19.5351 12.1573 19.5351 12.2041 19.5 12.2041C17.6836 12.2041 16.6406 13.4698 16.6406 15.462V19.3526C16.6406 21.5206 15.914 22.3643 13.9453 22.5049C13.8047 22.5166 13.6992 22.5401 13.582 22.5635C13.1718 22.6456 12.9609 22.9034 12.9609 23.3604C12.9609 23.7706 13.1836 24.0752 13.5351 24.1924C13.6758 24.2393 13.8632 24.2745 14.0508 24.2745C17.2148 24.2745 18.6679 22.7745 18.6679 19.587V16.294C18.6679 14.4073 19.2539 13.669 20.6953 13.4463C21.5039 13.3174 21.9023 12.837 21.9023 12.1573Z" fill="black" fill-opacity="0.85"/>
</g>
<defs>
<clipPath id="clip0_2207_23006">
<rect width="21.8203" height="24.2227" fill="white" transform="translate(0.0820312 0.0517578)"/>
</clipPath>
</defs>
</svg>
