<svg width="21" height="25" viewBox="0 0 21 25" fill="none" xmlns="http://www.w3.org/2000/svg">
<g clip-path="url(#clip0_2207_21429)">
<path d="M10.1013 17.3032C14.1091 17.3032 18.0349 16.0844 19.9099 14.3149L19.031 12.9087C17.2498 14.4555 13.6755 15.5337 10.1013 15.5337C6.5271 15.5337 2.95288 14.4555 1.17163 12.9087L0.292724 14.3149C2.16772 16.0844 6.0935 17.3032 10.1013 17.3032ZM10.1013 24.7446C16.1482 24.7446 20.1794 22.4594 20.1794 19.2251V5.04541H18.2927V19.2251C18.2927 21.393 15.0115 22.9751 10.1013 22.9751C5.19116 22.9751 1.90991 21.393 1.90991 19.2251V5.04541H0.0231934V19.2251C0.0231934 22.4594 4.05444 24.7446 10.1013 24.7446ZM10.1013 10.0259C16.1482 10.0259 20.1794 7.99853 20.1794 5.04541C20.1794 2.09228 16.1482 0.0532227 10.1013 0.0532227C4.05444 0.0532227 0.0231934 2.09228 0.0231934 5.04541C0.0231934 7.99853 4.05444 10.0259 10.1013 10.0259ZM10.1013 8.25634C5.19116 8.25634 1.90991 6.93213 1.90991 5.04541C1.90991 3.07666 5.19116 1.70556 10.1013 1.70556C15.0115 1.70556 18.2927 3.07666 18.2927 5.04541C18.2927 6.93213 15.0115 8.25634 10.1013 8.25634Z" fill="black" fill-opacity="0.85"/>
</g>
<defs>
<clipPath id="clip0_2207_21429">
<rect width="20.1562" height="24.7148" fill="white" transform="translate(0.0231934 0.0532227)"/>
</clipPath>
</defs>
</svg>
