<svg width="24" height="24" viewBox="0 0 24 24" fill="none" xmlns="http://www.w3.org/2000/svg">
<g clip-path="url(#clip0_2207_24886)">
<path d="M11.9804 23.9594C18.5195 23.9594 23.9335 18.5337 23.9335 12.0063C23.9335 5.46728 18.5078 0.0532227 11.9687 0.0532227C5.4414 0.0532227 0.0273438 5.46728 0.0273438 12.0063C0.0273438 18.5337 5.45312 23.9594 11.9804 23.9594ZM11.9804 21.9673C6.44922 21.9673 2.03125 17.5376 2.03125 12.0063C2.03125 6.4751 6.4375 2.04541 11.9687 2.04541C17.5 2.04541 21.9414 6.4751 21.9414 12.0063C21.9414 17.5376 17.5117 21.9673 11.9804 21.9673Z" fill="black" fill-opacity="0.85"/>
<path d="M8.89844 17.2329H11.8867C15.2148 17.2329 17.0898 15.3344 17.0898 11.8657C17.0898 8.44384 15.2382 6.55713 11.8867 6.55713H8.89844C8.30079 6.55713 7.98438 6.979 7.98438 7.61181V16.1782C7.98438 16.811 8.30079 17.2329 8.89844 17.2329ZM9.78906 15.7798V8.01025H11.6757C13.9609 8.01025 15.2148 9.36963 15.2148 11.9009C15.2148 14.479 13.9726 15.7798 11.6757 15.7798H9.78906Z" fill="black" fill-opacity="0.85"/>
</g>
<defs>
<clipPath id="clip0_2207_24886">
<rect width="23.9062" height="23.918" fill="white" transform="translate(0.0273438 0.0532227)"/>
</clipPath>
</defs>
</svg>
