<svg width="23" height="33" viewBox="0 0 23 33" fill="none" xmlns="http://www.w3.org/2000/svg">
<g clip-path="url(#clip0_2207_11862)">
<path d="M3.67358 28.1782H14.2439C16.6345 28.1782 17.8533 26.9594 17.8533 24.604V6.25244C17.8533 3.88525 16.6111 2.68994 14.2439 2.68994H3.67358C1.3064 2.68994 0.0524902 3.88525 0.0524902 6.25244V24.604C0.0524902 26.9594 1.28296 28.1782 3.67358 28.1782ZM4.79858 9.18213C3.86108 9.18213 3.09937 8.40869 3.09937 7.45947C3.09937 6.53369 3.86108 5.77197 4.79858 5.77197C5.73608 5.77197 6.50952 6.53369 6.50952 7.45947C6.50952 8.40869 5.73608 9.18213 4.79858 9.18213ZM3.79077 18.9907C3.3689 18.9907 3.02905 18.6626 3.02905 18.229C3.02905 17.8071 3.3689 17.4673 3.79077 17.4673H7.3064C7.73999 17.4673 8.07983 17.8071 8.07983 18.229C8.07983 18.6626 7.73999 18.9907 7.3064 18.9907H3.79077ZM3.79077 22.0141C3.3689 22.0141 3.02905 21.686 3.02905 21.2524C3.02905 20.8188 3.3689 20.4907 3.79077 20.4907H7.3064C7.73999 20.4907 8.07983 20.8188 8.07983 21.2524C8.07983 21.686 7.73999 22.0141 7.3064 22.0141H3.79077ZM3.79077 25.0376C3.3689 25.0376 3.02905 24.6977 3.02905 24.2759C3.02905 23.8423 3.3689 23.5024 3.79077 23.5024H7.3064C7.73999 23.5024 8.07983 23.8423 8.07983 24.2759C8.07983 24.6977 7.73999 25.0376 7.3064 25.0376H3.79077ZM10.5994 18.9907C10.1658 18.9907 9.82593 18.6626 9.82593 18.229C9.82593 17.8071 10.1658 17.4673 10.5994 17.4673H14.115C14.5369 17.4673 14.8767 17.8071 14.8767 18.229C14.8767 18.6626 14.5369 18.9907 14.115 18.9907H10.5994ZM10.5994 22.0141C10.1658 22.0141 9.82593 21.686 9.82593 21.2524C9.82593 20.8188 10.1658 20.4907 10.5994 20.4907H14.115C14.5369 20.4907 14.8767 20.8188 14.8767 21.2524C14.8767 21.686 14.5369 22.0141 14.115 22.0141H10.5994ZM10.5994 25.0376C10.1658 25.0376 9.82593 24.6977 9.82593 24.2759C9.82593 23.8423 10.1658 23.5024 10.5994 23.5024H14.115C14.5369 23.5024 14.8767 23.8423 14.8767 24.2759C14.8767 24.6977 14.5369 25.0376 14.115 25.0376H10.5994ZM3.45093 30.2407C4.01343 30.2407 4.38843 29.854 4.38843 29.2915V26.9946H2.50171V29.2915C2.50171 29.854 2.88843 30.2407 3.45093 30.2407ZM14.4548 30.2407C15.0291 30.2407 15.4041 29.854 15.4041 29.2915V26.9946H13.5173V29.2915C13.5173 29.854 13.8923 30.2407 14.4548 30.2407Z" fill="black" fill-opacity="0.85"/>
<path d="M16.1658 15.8735C19.6345 15.8735 22.0955 13.4829 22.0955 10.0727C22.0955 8.42041 21.4158 7.02588 21.0525 6.229C20.3259 4.67041 19.1423 2.68994 18.158 1.17822C17.6541 0.451661 16.9509 0.0532227 16.1658 0.0532227C15.3806 0.0532227 14.6892 0.451661 14.1853 1.17822C13.2009 2.68994 12.0173 4.67041 11.2908 6.229C10.9275 7.02588 10.2361 8.42041 10.2361 10.0727C10.2361 13.4829 12.7087 15.8735 16.1658 15.8735Z" fill="white"/>
<path d="M16.1658 14.268C18.7556 14.268 20.5017 12.5923 20.5017 10.0727C20.5017 8.81884 19.9744 7.729 19.5994 6.88525C18.908 5.40869 17.7947 3.55713 16.822 2.06884C16.6228 1.7876 16.4236 1.65869 16.1658 1.65869C15.9197 1.65869 15.7087 1.7876 15.5213 2.06884C14.5486 3.55713 13.4236 5.40869 12.7322 6.88525C12.3689 7.729 11.8416 8.81884 11.8416 10.0727C11.8416 12.5923 13.5759 14.268 16.1658 14.268Z" fill="black" fill-opacity="0.85"/>
</g>
<defs>
<clipPath id="clip0_2207_11862">
<rect width="22.043" height="32.8477" fill="white" transform="translate(0.0524902 0.0532227)"/>
</clipPath>
</defs>
</svg>
