<svg width="26" height="22" viewBox="0 0 26 22" fill="none" xmlns="http://www.w3.org/2000/svg">
<g clip-path="url(#clip0_2207_3478)">
<path d="M3.74073 21.6509L13.9126 21.6391C15.2837 21.6391 16.4672 21.2173 17.4282 20.2094L24.3422 13.0727C25.1157 12.2876 25.4555 11.5727 25.4555 10.8462C25.4555 10.1079 25.1157 9.40478 24.3422 8.61963L17.4399 1.44775C16.479 0.428223 15.2954 0.0766602 13.9243 0.0766602H3.74073C1.30323 0.0766602 0.0610352 1.28369 0.0610352 3.70947V18.018C0.0610352 20.4438 1.30323 21.6509 3.74073 21.6509Z" fill="black" fill-opacity="0.85"/>
<path d="M6.69384 15.7798C6.15478 15.7798 5.73291 15.3462 5.73291 14.7954C5.73291 14.5376 5.82665 14.3032 6.01415 14.1157L9.26025 10.8696L6.01415 7.61181C5.82665 7.42431 5.73291 7.18994 5.73291 6.93213C5.73291 6.39306 6.15478 5.97119 6.69384 5.97119C6.96337 5.97119 7.17431 6.07666 7.36181 6.25244L10.6313 9.51025L13.9243 6.24072C14.1235 6.0415 14.3462 5.94775 14.5922 5.94775C15.1313 5.94775 15.5649 6.38134 15.5649 6.90869C15.5649 7.17822 15.4829 7.38916 15.2837 7.6001L12.0141 10.8696L15.2719 14.104C15.4594 14.2915 15.5532 14.5259 15.5532 14.7954C15.5532 15.3462 15.1196 15.7798 14.5688 15.7798C14.311 15.7798 14.0532 15.6743 13.8774 15.4985L10.6313 12.229L7.39697 15.4985C7.20947 15.6743 6.96337 15.7798 6.69384 15.7798Z" fill="white"/>
</g>
<defs>
<clipPath id="clip0_2207_3478">
<rect width="25.3945" height="21.5977" fill="white" transform="translate(0.0610352 0.0532227)"/>
</clipPath>
</defs>
</svg>
