<svg width="26" height="22" viewBox="0 0 26 22" fill="none" xmlns="http://www.w3.org/2000/svg">
<g clip-path="url(#clip0_2207_3463)">
<path d="M3.74683 21.6509L13.9187 21.6391C15.2898 21.6391 16.4733 21.2173 17.4343 20.2094L24.3483 13.0727C25.1218 12.2876 25.4616 11.5727 25.4616 10.8462C25.4616 10.1079 25.1218 9.40478 24.3483 8.61963L17.446 1.44775C16.4851 0.428223 15.3015 0.0766602 13.9304 0.0766602H3.74683C1.30933 0.0766602 0.0671387 1.28369 0.0671387 3.70947V18.018C0.0671387 20.4438 1.30933 21.6509 3.74683 21.6509ZM3.78198 19.7641C2.61011 19.7641 1.95386 19.143 1.95386 17.9243V3.80322C1.95386 2.58447 2.61011 1.96338 3.78198 1.96338H13.9655C14.8444 1.96338 15.4304 2.11572 16.028 2.73681L22.8835 9.8501C23.2702 10.2602 23.4109 10.5415 23.4109 10.8462C23.4109 11.1391 23.2819 11.4204 22.8835 11.8305L16.0163 18.9204C15.4069 19.5532 14.8444 19.7641 13.9538 19.7641H3.78198Z" fill="black" fill-opacity="0.85"/>
<path d="M6.62964 15.8149C6.89917 15.8149 7.13355 15.7094 7.30933 15.522L10.6257 12.1821L13.9655 15.522C14.1413 15.6977 14.364 15.8149 14.6335 15.8149C15.1609 15.8149 15.571 15.3813 15.571 14.8657C15.571 14.5962 15.4773 14.3735 15.2898 14.1977L11.9616 10.8696L15.3015 7.51807C15.5007 7.31885 15.5827 7.11964 15.5827 6.86182C15.5827 6.33448 15.1726 5.92432 14.6452 5.92432C14.3991 5.92432 14.1999 6.00635 14.0007 6.20557L10.6257 9.55714L7.28589 6.21729C7.11011 6.02979 6.89917 5.94776 6.62964 5.94776C6.11402 5.94776 5.69214 6.3462 5.69214 6.87354C5.69214 7.13135 5.79761 7.35401 5.97339 7.52979L9.30152 10.8696L5.97339 14.2094C5.79761 14.3735 5.69214 14.6079 5.69214 14.8657C5.69214 15.3813 6.11402 15.8149 6.62964 15.8149Z" fill="black" fill-opacity="0.85"/>
</g>
<defs>
<clipPath id="clip0_2207_3463">
<rect width="25.3945" height="21.5977" fill="white" transform="translate(0.0671387 0.0532227)"/>
</clipPath>
</defs>
</svg>
