<svg width="26" height="22" viewBox="0 0 26 22" fill="none" xmlns="http://www.w3.org/2000/svg">
<g clip-path="url(#clip0_2207_3473)">
<path d="M3.73853 21.6509L13.9104 21.6391C15.2815 21.6391 16.465 21.2173 17.426 20.2094L24.34 13.0727C25.1135 12.2876 25.4533 11.5727 25.4533 10.8462C25.4533 10.1079 25.1135 9.40478 24.34 8.61963L17.4377 1.44775C16.4768 0.428223 15.2932 0.0766602 13.9221 0.0766602H3.73853C1.30103 0.0766602 0.0588379 1.28369 0.0588379 3.70947V18.018C0.0588379 20.4438 1.30103 21.6509 3.73853 21.6509ZM3.77368 19.7641C2.60181 19.7641 1.94556 19.143 1.94556 17.9243V3.80322C1.94556 2.58447 2.60181 1.96338 3.77368 1.96338H13.9572C14.8361 1.96338 15.4221 2.11572 16.0197 2.73681L22.8752 9.8501C23.2619 10.2602 23.4026 10.5415 23.4026 10.8462C23.4026 11.1391 23.2736 11.4204 22.8752 11.8305L16.008 18.9204C15.3986 19.5532 14.8361 19.7641 13.9455 19.7641H3.77368Z" fill="black" fill-opacity="0.85"/>
<path d="M6.62134 15.8149C6.89087 15.8149 7.12525 15.7094 7.30103 15.522L10.6174 12.1821L13.9572 15.522C14.133 15.6977 14.3557 15.8149 14.6252 15.8149C15.1526 15.8149 15.5627 15.3813 15.5627 14.8657C15.5627 14.5962 15.469 14.3735 15.2815 14.1977L11.9533 10.8696L15.2932 7.51807C15.4924 7.31885 15.5744 7.11964 15.5744 6.86182C15.5744 6.33448 15.1643 5.92432 14.6369 5.92432C14.3908 5.92432 14.1916 6.00635 13.9924 6.20557L10.6174 9.55714L7.27759 6.21729C7.10181 6.02979 6.89087 5.94776 6.62134 5.94776C6.10572 5.94776 5.68384 6.3462 5.68384 6.87354C5.68384 7.13135 5.78931 7.35401 5.96509 7.52979L9.29322 10.8696L5.96509 14.2094C5.78931 14.3735 5.68384 14.6079 5.68384 14.8657C5.68384 15.3813 6.10572 15.8149 6.62134 15.8149Z" fill="black" fill-opacity="0.85"/>
</g>
<defs>
<clipPath id="clip0_2207_3473">
<rect width="25.3945" height="21.5977" fill="white" transform="translate(0.0588379 0.0532227)"/>
</clipPath>
</defs>
</svg>
