<svg width="26" height="22" viewBox="0 0 26 22" fill="none" xmlns="http://www.w3.org/2000/svg">
<g clip-path="url(#clip0_2207_3443)">
<path d="M21.7778 21.6509C24.2271 21.6509 25.4575 20.4438 25.4575 18.018V3.70947C25.4575 1.28369 24.2271 0.0766602 21.7778 0.0766602H11.5942C10.2232 0.0766602 9.03955 0.428223 8.07861 1.44775L1.17627 8.61963C0.41455 9.40478 0.0629883 10.1079 0.0629883 10.8462C0.0629883 11.5727 0.402832 12.2876 1.17627 13.0727L8.09033 20.2094C9.06299 21.2173 10.2349 21.6391 11.606 21.6391L21.7778 21.6509ZM21.7544 19.7641H11.5708C10.6802 19.7641 10.1294 19.5532 9.5083 18.9204L2.64111 11.8305C2.24268 11.4204 2.12549 11.1391 2.12549 10.8462C2.12549 10.5415 2.2544 10.2602 2.64111 9.8501L9.49658 2.73681C10.106 2.11572 10.6802 1.96338 11.5591 1.96338H21.7544C22.9263 1.96338 23.5708 2.58447 23.5708 3.80322V17.9243C23.5708 19.143 22.9263 19.7641 21.7544 19.7641Z" fill="black" fill-opacity="0.85"/>
<path d="M10.9146 15.8149C11.1724 15.8149 11.4068 15.7094 11.5825 15.522L14.9107 12.1821L18.2388 15.522C18.4146 15.6977 18.6489 15.8149 18.9185 15.8149C19.4341 15.8149 19.856 15.3813 19.856 14.8657C19.856 14.5962 19.7505 14.3735 19.5747 14.1977L16.2466 10.8696L19.5864 7.51807C19.7739 7.31885 19.8677 7.11964 19.8677 6.86182C19.8677 6.33448 19.4458 5.92432 18.9302 5.92432C18.6841 5.92432 18.4732 6.00635 18.2739 6.20557L14.9107 9.55714L11.5591 6.21729C11.3833 6.02979 11.1724 5.94776 10.9146 5.94776C10.3989 5.94776 9.97705 6.3462 9.97705 6.87354C9.97705 7.13135 10.0708 7.35401 10.2583 7.52979L13.5864 10.8696L10.2583 14.2094C10.0708 14.3735 9.97705 14.6079 9.97705 14.8657C9.97705 15.3813 10.3989 15.8149 10.9146 15.8149Z" fill="black" fill-opacity="0.85"/>
</g>
<defs>
<clipPath id="clip0_2207_3443">
<rect width="25.3945" height="21.5977" fill="white" transform="translate(0.0629883 0.0532227)"/>
</clipPath>
</defs>
</svg>
