<svg width="25" height="29" viewBox="0 0 25 29" fill="none" xmlns="http://www.w3.org/2000/svg">
<g id="deskview.fill" clip-path="url(#clip0_2201_873)">
<g id="Group">
<path id="Vector" d="M0.960938 28.3945H23.1094C23.6602 28.3945 24.0938 27.9609 24.0938 27.4219C24.0938 26.8711 23.6602 26.4492 23.1094 26.4492H0.960938C0.421875 26.4492 0 26.8711 0 27.4219C0 27.9609 0.421875 28.3945 0.960938 28.3945Z" fill="black" fill-opacity="0.85"/>
<path id="Vector_2" d="M7.86328 13.5938H16.2305C17.9062 13.5938 18.9141 12.6445 18.9141 10.9688V2.71875C18.9141 1.07812 17.9062 0 16.2305 0H7.86328C6.19922 0 5.17969 0.996094 5.17969 2.71875V10.8867C5.17969 12.5742 6.19922 13.5938 7.86328 13.5938ZM7.48828 20.0859H16.6055C17.2852 20.0859 17.7539 19.6406 17.7539 18.9844C17.7539 18.6914 17.6133 18.3281 17.3789 18.0352L14.707 14.9531H9.375L6.76172 18.0352C6.50391 18.3398 6.33984 18.6914 6.33984 18.9844C6.33984 19.6406 6.80859 20.0859 7.48828 20.0859Z" fill="black" fill-opacity="0.85"/>
</g>
</g>
<defs>
<clipPath id="clip0_2201_873">
<rect width="24.0938" height="28.4883" fill="white"/>
</clipPath>
</defs>
</svg>
