<svg width="27" height="27" viewBox="0 0 27 27" fill="none" xmlns="http://www.w3.org/2000/svg">
<g clip-path="url(#clip0_2207_7770)">
<path d="M25.2755 15.9352C27.0098 14.2008 27.0333 12.4899 25.3106 10.7672L15.8653 1.33359C14.1426 -0.389067 12.4317 -0.365629 10.6973 1.36875L1.32233 10.7438C-0.412049 12.4781 -0.423768 14.2008 1.28717 15.9117L10.7208 25.357C12.4434 27.068 14.1544 27.0563 15.8887 25.3219L25.2755 15.9352ZM13.3106 2.09531V24.5953C12.8653 24.5953 12.4317 24.3844 11.9981 23.9508L2.69342 14.6461C1.82624 13.7789 1.84967 12.8883 2.68171 12.0563L12.0098 2.72812C12.4317 2.30625 12.8653 2.08359 13.3106 2.09531Z" fill="black" fill-opacity="0.85"/>
</g>
<defs>
<clipPath id="clip0_2207_7770">
<rect width="26.5768" height="26.593" fill="white" transform="translate(0.0126953 0.0546875)"/>
</clipPath>
</defs>
</svg>
