<svg width="27" height="28" viewBox="0 0 27 28" fill="none" xmlns="http://www.w3.org/2000/svg">
<g clip-path="url(#clip0_2207_10357)">
<path d="M3.69849 20.7969H15.4641C17.9016 20.7969 19.1438 19.5781 19.1438 17.1641V5.30469C19.1438 2.89062 17.9016 1.67188 15.4641 1.67188H3.69849C1.24927 1.67188 0.0187988 2.89062 0.0187988 5.30469V17.1641C0.0187988 19.5781 1.24927 20.7969 3.69849 20.7969Z" fill="black" fill-opacity="0.85"/>
<path d="M9.38208 27.8164H21.1477C24.4758 27.8164 26.4211 25.8945 26.4211 22.5899V10.7305C26.4211 7.42578 24.4758 5.50391 21.1477 5.50391H9.38208C6.05396 5.50391 4.10864 7.41407 4.10864 10.7305V22.5899C4.10864 25.8945 6.05396 27.8164 9.38208 27.8164Z" fill="white"/>
<path d="M9.38208 26.2227H21.1477C23.5852 26.2227 24.8274 25.0039 24.8274 22.5899V10.7305C24.8274 8.31641 23.5852 7.09766 21.1477 7.09766H9.38208C6.93286 7.09766 5.70239 8.30469 5.70239 10.7305V22.5899C5.70239 25.0039 6.93286 26.2227 9.38208 26.2227Z" fill="black" fill-opacity="0.85"/>
<path d="M10.5305 13.6485C9.5813 13.6367 8.81958 12.8867 8.81958 11.9258C8.81958 10.9883 9.5813 10.2266 10.5305 10.2266C11.468 10.2266 12.2415 10.9883 12.2415 11.9258C12.2415 12.8867 11.468 13.6719 10.5305 13.6485ZM19.9876 13.6485C19.05 13.6367 18.2766 12.8867 18.2766 11.9258C18.2766 10.9883 19.05 10.2266 19.9876 10.2266C20.925 10.2266 21.6985 10.9883 21.6985 11.9258C21.6985 12.8867 20.925 13.6719 19.9876 13.6485ZM15.2532 18.3945C14.3157 18.3945 13.554 17.6211 13.554 16.6602C13.554 15.7227 14.3157 14.9727 15.2532 14.9727C16.1907 14.9727 16.9641 15.7227 16.9641 16.6602C16.9641 17.6211 16.1907 18.3945 15.2532 18.3945ZM10.5305 23.1289C9.5813 23.1289 8.8313 22.3555 8.8313 21.4063C8.8313 20.457 9.5813 19.707 10.5305 19.707C11.468 19.707 12.2297 20.457 12.2297 21.4063C12.2297 22.3555 11.468 23.1289 10.5305 23.1289ZM19.9876 23.1289C19.05 23.1289 18.2883 22.3555 18.2883 21.4063C18.2883 20.457 19.05 19.707 19.9876 19.707C20.925 19.707 21.6985 20.457 21.6985 21.4063C21.6985 22.3555 20.925 23.1289 19.9876 23.1289Z" fill="white"/>
</g>
<defs>
<clipPath id="clip0_2207_10357">
<rect width="26.4023" height="27.7617" fill="white" transform="translate(0.0187988 0.0546875)"/>
</clipPath>
</defs>
</svg>
