<svg width="22" height="22" viewBox="0 0 22 22" fill="none" xmlns="http://www.w3.org/2000/svg">
<g clip-path="url(#clip0_2207_10414)">
<path d="M3.72168 21.6524H17.9365C20.3975 21.6524 21.6162 20.4336 21.6162 18.0195V3.71094C21.6162 1.29688 20.3975 0.078125 17.9365 0.078125H3.72168C1.27246 0.078125 0.0419922 1.28516 0.0419922 3.71094V18.0195C0.0419922 20.4453 1.27246 21.6524 3.72168 21.6524ZM3.74511 19.7656C2.57324 19.7656 1.92871 19.1445 1.92871 17.9258V3.80469C1.92871 2.58594 2.57324 1.96485 3.74511 1.96485H17.9131C19.0732 1.96485 19.7295 2.58594 19.7295 3.80469V17.9258C19.7295 19.1445 19.0732 19.7656 17.9131 19.7656H3.74511Z" fill="black" fill-opacity="0.85"/>
<path d="M5.57325 7.4961C6.6045 7.50781 7.47169 6.64063 7.47169 5.57422C7.47169 4.53125 6.6045 3.6875 5.57325 3.6875C4.51856 3.6875 3.66309 4.53125 3.66309 5.57422C3.66309 6.64063 4.51856 7.47266 5.57325 7.4961ZM16.1084 7.4961C17.1397 7.50781 17.9951 6.64063 17.9951 5.57422C17.9951 4.53125 17.1397 3.6875 16.1084 3.6875C15.0537 3.6875 14.1865 4.53125 14.1865 5.57422C14.1865 6.64063 15.0537 7.47266 16.1084 7.4961ZM5.57325 12.7695C6.6045 12.7695 7.47169 11.9141 7.47169 10.8477C7.47169 9.80469 6.6045 8.96094 5.57325 8.96094C4.51856 8.96094 3.67481 9.80469 3.67481 10.8477C3.67481 11.9141 4.51856 12.7695 5.57325 12.7695ZM16.0967 12.7695C17.1397 12.7695 17.9951 11.9141 17.9951 10.8477C17.9951 9.80469 17.1397 8.96094 16.0967 8.96094C15.0537 8.96094 14.1982 9.80469 14.1982 10.8477C14.1982 11.9141 15.0537 12.7695 16.0967 12.7695ZM5.57325 18.043C6.6045 18.043 7.47169 17.1875 7.47169 16.1328C7.47169 15.0781 6.6045 14.2344 5.57325 14.2344C4.51856 14.2344 3.67481 15.0781 3.67481 16.1328C3.67481 17.1875 4.51856 18.043 5.57325 18.043ZM16.1084 18.043C17.1397 18.043 17.9951 17.1875 17.9951 16.1328C17.9951 15.0781 17.1397 14.2344 16.1084 14.2344C15.0537 14.2344 14.21 15.0781 14.21 16.1328C14.21 17.1875 15.0537 18.043 16.1084 18.043Z" fill="black" fill-opacity="0.85"/>
</g>
<defs>
<clipPath id="clip0_2207_10414">
<rect width="21.5742" height="21.5977" fill="white" transform="translate(0.0419922 0.0546875)"/>
</clipPath>
</defs>
</svg>
