<svg width="27" height="24" viewBox="0 0 27 24" fill="none" xmlns="http://www.w3.org/2000/svg">
<g clip-path="url(#clip0_2207_14174)">
<path d="M14.9279 11.9024C14.9279 19.0039 17.2014 23.75 20.6233 23.75C24.0451 23.75 26.3303 19.0039 26.3303 11.9024C26.3303 4.78907 24.0451 0.0546875 20.6233 0.0546875C17.2014 0.0546875 14.9279 4.78907 14.9279 11.9024ZM16.8147 11.9024C16.8147 5.92578 18.3498 1.94141 20.6233 1.94141C22.8967 1.94141 24.4436 5.92578 24.4436 11.9024C24.4436 17.8672 22.8967 21.8633 20.6233 21.8633C18.3498 21.8633 16.8147 17.8672 16.8147 11.9024ZM8.99829 11.9024C8.99829 19.2735 11.049 23.75 15.9592 23.75H20.6233V21.8633H15.9592C12.2326 21.8633 10.885 18.1016 10.885 11.9024C10.885 5.70313 12.2326 1.94141 15.9592 1.94141H20.6233V0.0546875H15.9592C11.049 0.0546875 8.99829 4.51953 8.99829 11.9024ZM14.5647 5.04688H16.7561V3.51172H14.5647C14.1428 3.51172 13.7912 3.86328 13.7912 4.28516C13.7912 4.70703 14.1428 5.04688 14.5647 5.04688ZM13.7678 8.64453H15.9592V7.10938H13.7678C13.3459 7.10938 12.9944 7.44922 12.9944 7.8711C12.9944 8.29297 13.3459 8.64453 13.7678 8.64453ZM13.4631 12.5235H15.6545V10.9883H13.4631C13.0412 10.9883 12.7014 11.3399 12.7014 11.7617C12.7014 12.1836 13.0412 12.5235 13.4631 12.5235ZM13.7678 16.4141H15.9592V14.8789H13.7678C13.3459 14.8789 12.9944 15.2305 12.9944 15.6524C12.9944 16.0742 13.3459 16.4141 13.7678 16.4141ZM14.5647 20.0117H16.7561V18.4766H14.5647C14.1428 18.4766 13.7912 18.8164 13.7912 19.2383C13.7912 19.6602 14.1428 20.0117 14.5647 20.0117Z" fill="black" fill-opacity="0.85"/>
<path d="M3.58423 21.2188C4.1233 21.2188 4.65064 20.7617 4.39283 20.0586C3.66627 17.9141 3.26783 15.4883 3.26783 12.9688C3.26783 10.4492 3.66627 8.02344 4.39283 5.87891L2.71705 5.30469C1.93189 7.63672 1.4983 10.2617 1.4983 12.9688C1.4983 15.6758 1.94361 18.3008 2.71705 20.6328C2.85767 21.0664 3.23267 21.2188 3.58423 21.2188ZM0.607675 6.27735L5.64673 8.10547C6.40845 8.38672 6.97095 7.63672 6.76002 7.00391L5.38892 2.90235C5.21314 2.35157 4.65064 2.15235 4.14673 2.45703L0.455331 4.73047C-0.118888 5.09375 -0.107169 6.00781 0.607675 6.27735Z" fill="black" fill-opacity="0.85"/>
</g>
<defs>
<clipPath id="clip0_2207_14174">
<rect width="26.2842" height="23.707" fill="white" transform="translate(0.0461426 0.0546875)"/>
</clipPath>
</defs>
</svg>
