<svg width="24" height="27" viewBox="0 0 24 27" fill="none" xmlns="http://www.w3.org/2000/svg">
<g clip-path="url(#clip0_2207_14221)">
<path d="M11.9087 10.8594C18.8344 10.8594 23.4516 8.66797 23.4516 5.45703C23.4516 2.2461 18.8344 0.0546875 11.9087 0.0546875C4.98292 0.0546875 0.365723 2.2461 0.365723 5.45703C0.365723 8.66797 4.98292 10.8594 11.9087 10.8594ZM11.9087 17.0938C19.2798 17.0938 23.7563 15.0313 23.7563 10.1328V8.79688C22.8891 9.79297 21.6235 10.6016 20.018 11.1992V12.793C20.018 13.2149 19.6665 13.5547 19.2446 13.5547C18.8227 13.5547 18.4829 13.2149 18.4829 12.793V11.7031C17.8032 11.8789 17.0766 12.0195 16.4204 12.125V13.5899C16.4204 14.0117 16.0805 14.3516 15.6587 14.3516C15.2368 14.3516 14.8852 14.0117 14.8852 13.5899V12.3242C14.1235 12.3945 13.2563 12.4531 12.5298 12.4649V13.8828C12.5298 14.3047 12.1899 14.6563 11.768 14.6563C11.3462 14.6563 10.9946 14.3047 10.9946 13.8828V12.4531C10.2212 12.4414 9.41259 12.3828 8.65088 12.3008V13.5899C8.65088 14.0117 8.29932 14.3516 7.87745 14.3516C7.45557 14.3516 7.11573 14.0117 7.11573 13.5899V12.0781C6.38915 11.9609 5.70948 11.8086 5.05323 11.6211V12.793C5.05323 13.2149 4.71338 13.5547 4.29151 13.5547C3.86963 13.5547 3.51807 13.2149 3.51807 12.793V11.0938C2.04151 10.5078 0.869629 9.73438 0.0610352 8.79688V10.1328C0.0610352 15.0313 4.52588 17.0938 11.9087 17.0938Z" fill="black" fill-opacity="0.85"/>
<path d="M2.26416 22.4024C2.26416 22.7539 2.42823 23.1172 2.83838 23.2578C5.22901 24.125 7.79542 24.582 10.5844 24.582C13.3618 24.582 15.9399 24.1367 18.3305 23.2578L17.7329 21.5938C15.5298 22.4024 13.1626 22.8125 10.5844 22.8125C7.99463 22.8125 5.63916 22.4024 3.43604 21.5938C2.7212 21.3242 2.26416 21.8633 2.26416 22.4024ZM17.311 25.4609C17.5688 26.1758 18.4829 26.1992 18.8462 25.6367L21.1665 21.9688C21.4829 21.4649 21.2837 20.9141 20.7329 20.7266L16.6548 19.2969C16.0219 19.0859 15.2719 19.6367 15.5415 20.4102L17.311 25.4609Z" fill="black" fill-opacity="0.85"/>
</g>
<defs>
<clipPath id="clip0_2207_14221">
<rect width="23.6953" height="26.0039" fill="white" transform="translate(0.0610352 0.0546875)"/>
</clipPath>
</defs>
</svg>
