<svg width="24" height="24" viewBox="0 0 24 24" fill="none" xmlns="http://www.w3.org/2000/svg">
<g clip-path="url(#clip0_2207_12285)">
<path d="M12.0288 23.9609C18.5679 23.9609 23.9819 18.5352 23.9819 12.0078C23.9819 5.46875 18.5562 0.0546875 12.0171 0.0546875C5.48974 0.0546875 0.0756836 5.46875 0.0756836 12.0078C0.0756836 18.5352 5.50146 23.9609 12.0288 23.9609ZM12.0288 21.9688C6.49756 21.9688 2.07959 17.5391 2.07959 12.0078C2.07959 6.47657 6.48584 2.04688 12.0171 2.04688C17.5484 2.04688 21.9898 6.47657 21.9898 12.0078C21.9898 17.5391 17.5601 21.9688 12.0288 21.9688Z" fill="black" fill-opacity="0.85"/>
<path d="M15.8726 5.5625H8.0913C7.24756 5.5625 6.68506 6.14844 6.68506 7.02735V8.67969H17.2788V7.02735C17.2788 6.14844 16.7163 5.5625 15.8726 5.5625ZM8.4663 7.53125C8.39599 7.28516 8.5249 7.03907 8.75927 6.95703C8.99365 6.88672 9.23974 7.01563 9.31006 7.26172C9.38037 7.48438 9.25146 7.74219 9.01709 7.8125C8.78271 7.89453 8.53662 7.75391 8.4663 7.53125ZM10.5054 7.95313C10.189 7.95313 9.95459 7.69531 9.95459 7.39063C9.95459 7.07422 10.189 6.82813 10.5054 6.82813C10.8101 6.82813 11.0562 7.07422 11.0562 7.39063C11.0562 7.69531 10.8101 7.95313 10.5054 7.95313ZM6.68506 15.9805H17.2788V9.51172H6.68506V15.9805ZM10.5054 11.3281C10.3062 11.3281 10.1773 11.1875 10.1773 10.9883C10.1773 10.7891 10.3062 10.6485 10.5054 10.6485H13.4819C13.6812 10.6485 13.8101 10.7891 13.8101 10.9883C13.8101 11.1875 13.6812 11.3281 13.4819 11.3281H10.5054ZM17.2788 16.8125H6.68506V16.9414C6.68506 17.8203 7.24756 18.3945 8.0913 18.3945H15.8726C16.7163 18.3945 17.2788 17.8203 17.2788 16.9414V16.8125Z" fill="black" fill-opacity="0.85"/>
</g>
<defs>
<clipPath id="clip0_2207_12285">
<rect width="23.9062" height="23.918" fill="white" transform="translate(0.0756836 0.0546875)"/>
</clipPath>
</defs>
</svg>
