<svg width="29" height="25" viewBox="0 0 29 25" fill="none" xmlns="http://www.w3.org/2000/svg">
<g clip-path="url(#clip0_2207_13116)">
<path d="M2.8125 18.4414C2.29687 18.4414 1.96875 18.1133 1.96875 17.5977V3.60547C1.96875 3.07813 2.29687 2.76172 2.8125 2.76172H25.289C25.8047 2.76172 26.1328 3.07813 26.1328 3.60547V17.5977C26.1328 18.1133 25.8047 18.4414 25.289 18.4414H2.8125Z" fill="black" fill-opacity="0.85"/>
<path d="M2.77734 20.3281H25.3125C27 20.3281 28.0195 19.3086 28.0195 17.6211V3.57031C28.0195 1.88281 27 0.875 25.3125 0.875H2.77734C1.10156 0.875 0.0820312 1.88281 0.0820312 3.57031V17.6211C0.0820312 19.3086 1.10156 20.3281 2.77734 20.3281ZM2.8125 18.4414C2.29687 18.4414 1.96875 18.1133 1.96875 17.5977V3.60547C1.96875 3.07813 2.29687 2.76172 2.8125 2.76172H25.289C25.8047 2.76172 26.1328 3.07813 26.1328 3.60547V17.5977C26.1328 18.1133 25.8047 18.4414 25.289 18.4414H2.8125ZM10.3476 23.1172H17.7539V20.1758H10.3476V23.1172ZM10.2773 24.4883H17.8242C18.3398 24.4883 18.7617 24.0664 18.7617 23.5391C18.7617 23.0117 18.3398 22.5899 17.8242 22.5899H10.2773C9.76172 22.5899 9.32812 23.0117 9.32812 23.5391C9.32812 24.0664 9.76172 24.4883 10.2773 24.4883Z" fill="black" fill-opacity="0.85"/>
</g>
<defs>
<clipPath id="clip0_2207_13116">
<rect width="27.9375" height="24.4336" fill="white" transform="translate(0.0820312 0.0546875)"/>
</clipPath>
</defs>
</svg>
