<svg width="24" height="28" viewBox="0 0 24 28" fill="none" xmlns="http://www.w3.org/2000/svg">
<g clip-path="url(#clip0_2207_19733)">
<path d="M3.9126 4.10938H5.63526V0.863281C5.63526 0.406249 5.23682 0.0546875 4.77979 0.0546875C4.32276 0.0546875 3.9126 0.406249 3.9126 0.863281V4.10938ZM4.77979 27.2188C5.23682 27.2188 5.63526 26.8672 5.63526 26.4102V23.3047H3.9126V26.4102C3.9126 26.8672 4.32276 27.2188 4.77979 27.2188ZM18.315 7.39063H20.0376V0.863281C20.0376 0.406249 19.6275 0.0546875 19.1704 0.0546875C18.7134 0.0546875 18.315 0.406249 18.315 0.863281V7.39063ZM19.1704 27.2188C19.6275 27.2188 20.0376 26.8672 20.0376 26.4102V19.9063H18.315V26.4102C18.315 26.8672 18.7134 27.2188 19.1704 27.2188Z" fill="black" fill-opacity="0.85"/>
<path d="M2.72901 24.2188H6.80713C8.51807 24.2188 9.44384 23.2695 9.44384 21.5235V5.75C9.44384 4.00391 8.51807 3.06641 6.80713 3.06641H2.72901C1.01807 3.06641 0.0922852 4.00391 0.0922852 5.75V21.5235C0.0922852 23.2695 1.01807 24.2188 2.72901 24.2188ZM17.1314 20.7383H21.2095C22.9204 20.7383 23.8462 19.8008 23.8462 18.0547V9.21875C23.8462 7.47266 22.9204 6.53516 21.2095 6.53516H17.1314C15.4204 6.53516 14.4946 7.47266 14.4946 9.21875V18.0547C14.4946 19.8008 15.4204 20.7383 17.1314 20.7383Z" fill="black" fill-opacity="0.85"/>
</g>
<defs>
<clipPath id="clip0_2207_19733">
<rect width="23.7539" height="27.1758" fill="white" transform="translate(0.0922852 0.0546875)"/>
</clipPath>
</defs>
</svg>
