<svg width="24" height="28" viewBox="0 0 24 28" fill="none" xmlns="http://www.w3.org/2000/svg">
<g clip-path="url(#clip0_2207_19728)">
<path d="M3.91064 4.10938H5.6333V0.863281C5.6333 0.406249 5.23486 0.0546875 4.77783 0.0546875C4.3208 0.0546875 3.91064 0.406249 3.91064 0.863281V4.10938ZM4.77783 27.2188C5.23486 27.2188 5.6333 26.8672 5.6333 26.4102V23.3047H3.91064V26.4102C3.91064 26.8672 4.3208 27.2188 4.77783 27.2188ZM18.313 7.39063H20.0356V0.863281C20.0356 0.406249 19.6255 0.0546875 19.1684 0.0546875C18.7114 0.0546875 18.313 0.406249 18.313 0.863281V7.39063ZM19.1684 27.2188C19.6255 27.2188 20.0356 26.8672 20.0356 26.4102V19.9063H18.313V26.4102C18.313 26.8672 18.7114 27.2188 19.1684 27.2188Z" fill="black" fill-opacity="0.85"/>
<path d="M2.72705 24.2188H6.80517C8.51611 24.2188 9.44189 23.2695 9.44189 21.5235V5.75C9.44189 4.00391 8.51611 3.06641 6.80517 3.06641H2.72705C1.01611 3.06641 0.090332 4.00391 0.090332 5.75V21.5235C0.090332 23.2695 1.01611 24.2188 2.72705 24.2188ZM2.83252 22.4492C2.19971 22.4492 1.85986 22.0977 1.85986 21.5V5.77344C1.85986 5.17578 2.19971 4.83594 2.83252 4.83594H6.71142C7.33252 4.83594 7.67236 5.17578 7.67236 5.77344V21.5C7.67236 22.0977 7.33252 22.4492 6.71142 22.4492H2.83252ZM17.1294 20.7383H21.2075C22.9184 20.7383 23.8442 19.8008 23.8442 18.0547V9.21875C23.8442 7.47266 22.9184 6.53516 21.2075 6.53516H17.1294C15.4184 6.53516 14.4926 7.47266 14.4926 9.21875V18.0547C14.4926 19.8008 15.4184 20.7383 17.1294 20.7383ZM17.2231 18.9688C16.602 18.9688 16.2622 18.6289 16.2622 18.0313V9.25391C16.2622 8.64453 16.602 8.30469 17.2231 8.30469H21.102C21.7348 8.30469 22.0747 8.64453 22.0747 9.25391V18.0313C22.0747 18.6289 21.7348 18.9688 21.102 18.9688H17.2231Z" fill="black" fill-opacity="0.85"/>
</g>
<defs>
<clipPath id="clip0_2207_19728">
<rect width="23.7539" height="27.1758" fill="white" transform="translate(0.090332 0.0546875)"/>
</clipPath>
</defs>
</svg>
