<svg width="29" height="25" viewBox="0 0 29 25" fill="none" xmlns="http://www.w3.org/2000/svg">
<g clip-path="url(#clip0_2207_19703)">
<path d="M0.828613 5.54053H8.21142V3.81787H0.828613C0.359863 3.81787 0.00830078 4.22803 0.00830078 4.68506C0.00830078 5.14209 0.359863 5.54053 0.828613 5.54053ZM0.828613 20.9272H4.28564V19.2046H0.828613C0.359863 19.2046 0.00830078 19.6031 0.00830078 20.0601C0.00830078 20.5171 0.359863 20.9272 0.828613 20.9272ZM20.3052 5.54053H27.2427C27.6997 5.54053 28.063 5.14209 28.063 4.68506C28.063 4.22803 27.6997 3.81787 27.2427 3.81787H20.3052V5.54053ZM24.2192 20.9272H27.688C28.145 20.9272 28.5083 20.5171 28.5083 20.0601C28.5083 19.6031 28.145 19.2046 27.688 19.2046H24.2192V20.9272Z" fill="black" fill-opacity="0.85"/>
<path d="M9.88721 9.30224H18.6294C20.3755 9.30224 21.313 8.37646 21.313 6.66553V2.69287C21.313 0.981933 20.3755 0.0561523 18.6294 0.0561523H9.88721C8.14111 0.0561523 7.20361 0.981933 7.20361 2.69287V6.66553C7.20361 8.37646 8.14111 9.30224 9.88721 9.30224ZM5.73877 24.689H22.7778C24.5239 24.689 25.4614 23.7515 25.4614 22.0523V18.0796C25.4614 16.3687 24.5239 15.4312 22.7778 15.4312H5.73877C3.99268 15.4312 3.05518 16.3687 3.05518 18.0796V22.0523C3.05518 23.7515 3.99268 24.689 5.73877 24.689Z" fill="black" fill-opacity="0.85"/>
</g>
<defs>
<clipPath id="clip0_2207_19703">
<rect width="28.5" height="24.6445" fill="white" transform="translate(0.00830078 0.0561523)"/>
</clipPath>
</defs>
</svg>
