<svg width="24" height="24" viewBox="0 0 24 24" fill="none" xmlns="http://www.w3.org/2000/svg">
<g clip-path="url(#clip0_2207_22910)">
<path d="M11.9719 23.9624C18.511 23.9624 23.925 18.5367 23.925 12.0093C23.925 5.47021 18.4993 0.0561523 11.9602 0.0561523C5.43286 0.0561523 0.0187988 5.47021 0.0187988 12.0093C0.0187988 18.5367 5.44458 23.9624 11.9719 23.9624Z" fill="black" fill-opacity="0.85"/>
<path d="M11.9485 9.00928C11.1399 9.00928 10.5071 8.42335 10.5071 7.67335C10.5071 6.81788 11.1399 6.2085 11.9485 6.2085C12.8391 6.2085 13.4368 6.80616 13.4368 7.67335C13.4368 8.42335 12.8274 9.00928 11.9485 9.00928ZM7.27271 13.0406C6.5813 13.0406 6.12427 12.6773 6.12427 12.0328C6.12427 11.3765 6.55786 11.0132 7.27271 11.0132H16.6829C17.386 11.0132 17.8196 11.3765 17.8196 12.0328C17.8196 12.6773 17.3626 13.0406 16.6829 13.0406H7.27271ZM11.9485 17.8335C11.1399 17.8335 10.5071 17.2359 10.5071 16.4859C10.5071 15.6304 11.1399 15.0328 11.9485 15.0328C12.8391 15.0328 13.4368 15.6304 13.4368 16.4859C13.4368 17.2359 12.8274 17.8335 11.9485 17.8335Z" fill="white"/>
</g>
<defs>
<clipPath id="clip0_2207_22910">
<rect width="23.9062" height="23.918" fill="white" transform="translate(0.0187988 0.0561523)"/>
</clipPath>
</defs>
</svg>
