<svg width="20" height="26" viewBox="0 0 20 26" fill="none" xmlns="http://www.w3.org/2000/svg">
<g clip-path="url(#clip0_2207_1013)">
<path d="M7.01172 11.939C8.4414 11.939 9.42578 10.9546 9.42578 9.54834C9.42578 8.17724 8.58203 7.26318 7.33984 7.26318C6.71875 7.26318 6.20312 7.4624 5.83984 7.91943H5.60546C5.69922 7.48584 5.96875 7.07568 6.3789 6.73584C6.74218 6.41943 7.1875 6.20849 7.70312 6.10303C8.13672 5.99756 8.26562 5.86865 8.26562 5.61084C8.26562 5.36474 8.08984 5.17724 7.76172 5.17724C7 5.17724 6.05078 5.64599 5.39453 6.34912C4.73828 7.06396 4.41015 7.97803 4.41015 8.97412C4.41015 10.8492 5.57031 11.939 7.01172 11.939ZM12.9531 11.9273C14.3711 11.9273 15.3671 10.9429 15.3671 9.53662C15.3671 8.16553 14.5234 7.25146 13.2812 7.25146C12.6484 7.25146 12.1445 7.45068 11.7812 7.90771H11.5351C11.6289 7.48584 11.8984 7.0874 12.2734 6.74756C12.6484 6.40771 13.1171 6.20849 13.6328 6.09131C14.0664 5.98584 14.207 5.85693 14.207 5.59912C14.207 5.35303 14.0312 5.16553 13.7031 5.16553C12.9414 5.16553 11.957 5.65771 11.3359 6.3374C10.6679 7.05224 10.3398 7.96631 10.3398 8.9624C10.3398 10.8374 11.5 11.9273 12.9531 11.9273ZM5.4414 15.8882H14.3359C14.7578 15.8882 15.0625 15.5601 15.0625 15.15C15.0625 14.7515 14.7578 14.4468 14.3359 14.4468H5.4414C5.01953 14.4468 4.70312 14.7515 4.70312 15.15C4.70312 15.5601 5.01953 15.8882 5.4414 15.8882ZM5.4414 19.9664H9.64843C10.0703 19.9664 10.375 19.6617 10.375 19.2632C10.375 18.8531 10.0703 18.525 9.64843 18.525H5.4414C5.01953 18.525 4.70312 18.8531 4.70312 19.2632C4.70312 19.6617 5.01953 19.9664 5.4414 19.9664ZM0.0273438 21.5132C0.0273438 23.9624 1.23437 25.1812 3.66015 25.1812H16.1054C18.5312 25.1812 19.7382 23.9624 19.7382 21.5132V3.73584C19.7382 1.29834 18.5312 0.0561523 16.1054 0.0561523H3.66015C1.23437 0.0561523 0.0273438 1.29834 0.0273438 3.73584V21.5132ZM1.91406 21.4781V3.77099C1.91406 2.59912 2.53515 1.94287 3.7539 1.94287H16.0117C17.2304 1.94287 17.8515 2.59912 17.8515 3.77099V21.4781C17.8515 22.65 17.2304 23.2945 16.0117 23.2945H3.7539C2.53515 23.2945 1.91406 22.65 1.91406 21.4781Z" fill="black" fill-opacity="0.85"/>
</g>
<defs>
<clipPath id="clip0_2207_1013">
<rect width="19.7109" height="25.1367" fill="white" transform="translate(0.0273438 0.0561523)"/>
</clipPath>
</defs>
</svg>
