<svg width="20" height="26" viewBox="0 0 20 26" fill="none" xmlns="http://www.w3.org/2000/svg">
<g clip-path="url(#clip0_2207_1028)">
<path d="M0.079834 21.5132C0.079834 23.9624 1.28686 25.1812 3.71264 25.1812H16.1579C18.5837 25.1812 19.7907 23.9624 19.7907 21.5132V3.73584C19.7907 1.29834 18.5837 0.0561523 16.1579 0.0561523H3.71264C1.28686 0.0561523 0.079834 1.29834 0.079834 3.73584V21.5132Z" fill="black" fill-opacity="0.85"/>
<path d="M4.60327 19.3452C4.60327 18.9233 4.91967 18.5952 5.35327 18.5952H9.68921C10.1345 18.5952 10.4392 18.9233 10.4392 19.3452C10.4392 19.7553 10.1345 20.0834 9.68921 20.0834H5.35327C4.91967 20.0834 4.60327 19.7553 4.60327 19.3452Z" fill="white"/>
<path d="M4.60327 15.1148C4.60327 14.7046 4.91967 14.3765 5.35327 14.3765H14.529C14.9509 14.3765 15.2673 14.7046 15.2673 15.1148C15.2673 15.5367 14.9509 15.8648 14.529 15.8648H5.35327C4.91967 15.8648 4.60327 15.5367 4.60327 15.1148Z" fill="white"/>
<path d="M4.60327 8.82177C4.60327 8.48193 4.88452 8.18896 5.23608 8.18896H6.86499L7.84936 4.12256C8.01342 3.46631 8.89233 3.48974 9.04467 4.13427L10.1345 9.57177L11.2712 5.78662C11.4821 5.15381 12.3259 5.14209 12.49 5.76318L13.1228 8.18896H14.6345C14.9978 8.18896 15.2673 8.47021 15.2673 8.82177C15.2673 9.16162 14.986 9.44287 14.6345 9.44287H12.736C12.3728 9.44287 12.1267 9.25537 12.0564 8.90381L11.8454 8.06006L10.6853 12.1381C10.4743 12.7944 9.59545 12.7944 9.45483 12.1147L8.41186 7.05224L7.95483 8.93896C7.8728 9.25537 7.63842 9.44287 7.27514 9.44287H5.23608C4.88452 9.44287 4.60327 9.16162 4.60327 8.82177Z" fill="white"/>
</g>
<defs>
<clipPath id="clip0_2207_1028">
<rect width="19.7109" height="25.1367" fill="white" transform="translate(0.079834 0.0561523)"/>
</clipPath>
</defs>
</svg>
