<svg width="20" height="26" viewBox="0 0 20 26" fill="none" xmlns="http://www.w3.org/2000/svg">
<g clip-path="url(#clip0_2207_1021)">
<path d="M0.0776367 21.5132C0.0776367 23.9624 1.28467 25.1812 3.71045 25.1812H16.1557C18.5815 25.1812 19.7885 23.9624 19.7885 21.5132V3.73584C19.7885 1.29834 18.5815 0.0561523 16.1557 0.0561523H3.71045C1.28467 0.0561523 0.0776367 1.29834 0.0776367 3.73584V21.5132ZM1.96436 21.4781V3.77099C1.96436 2.59912 2.58545 1.94287 3.8042 1.94287H16.062C17.2807 1.94287 17.9018 2.59912 17.9018 3.77099V21.4781C17.9018 22.65 17.2807 23.2945 16.062 23.2945H3.8042C2.58545 23.2945 1.96436 22.65 1.96436 21.4781Z" fill="black" fill-opacity="0.85"/>
<path d="M5.4917 19.8374H9.69873C10.1206 19.8374 10.4253 19.521 10.4253 19.1226C10.4253 18.7124 10.1206 18.396 9.69873 18.396H5.4917C5.06983 18.396 4.76514 18.7124 4.76514 19.1226C4.76514 19.521 5.06983 19.8374 5.4917 19.8374Z" fill="black" fill-opacity="0.85"/>
<path d="M5.4917 15.7476H14.3862C14.7964 15.7476 15.101 15.4312 15.101 15.021C15.101 14.6226 14.7964 14.3062 14.3862 14.3062H5.4917C5.06983 14.3062 4.76514 14.6226 4.76514 15.021C4.76514 15.4312 5.06983 15.7476 5.4917 15.7476Z" fill="black" fill-opacity="0.85"/>
<path d="M5.37452 9.51319H7.35498C7.70655 9.51319 7.9292 9.32569 8.01123 9.021L9.01905 4.9546H7.99952L9.47608 12.1148C9.60498 12.771 10.4604 12.771 10.6596 12.1382L12.3237 6.38428L11.3745 6.36085L11.9956 8.98585C12.0659 9.32569 12.3003 9.51319 12.6518 9.51319H14.4917C14.8315 9.51319 15.101 9.24366 15.101 8.91554C15.101 8.57569 14.8432 8.30616 14.4917 8.30616H12.769L13.0737 8.54054L12.4057 5.95069C12.2534 5.34132 11.4331 5.35304 11.2338 5.97413L9.53467 11.5289H10.519L9.06592 4.36866C8.9253 3.73585 8.06983 3.72413 7.91748 4.35694L6.8628 8.66944L7.21436 8.30616H5.37452C5.03467 8.30616 4.76514 8.58741 4.76514 8.91554C4.76514 9.24366 5.03467 9.51319 5.37452 9.51319Z" fill="black" fill-opacity="0.85"/>
</g>
<defs>
<clipPath id="clip0_2207_1021">
<rect width="19.7109" height="25.1367" fill="white" transform="translate(0.0776367 0.0561523)"/>
</clipPath>
</defs>
</svg>
