<svg width="20" height="26" viewBox="0 0 20 26" fill="none" xmlns="http://www.w3.org/2000/svg">
<g clip-path="url(#clip0_2207_1633)">
<path d="M5.30102 5.88037C4.85571 5.88037 4.5393 5.55224 4.5393 5.13037C4.5393 4.70849 4.85571 4.38037 5.30102 4.38037H15.0393C15.4729 4.38037 15.7893 4.70849 15.7893 5.13037C15.7893 5.55224 15.4729 5.88037 15.0393 5.88037H5.30102ZM5.30102 9.38427C4.85571 9.38427 4.5393 9.05615 4.5393 8.63427C4.5393 8.22412 4.85571 7.89599 5.30102 7.89599H11.0081C11.4417 7.89599 11.7698 8.22412 11.7698 8.63427C11.7698 9.05615 11.4417 9.38427 11.0081 9.38427H5.30102ZM5.48852 21.3374C4.45727 21.3374 3.87134 20.7867 3.87134 19.7203V13.0171C3.87134 11.9507 4.45727 11.4 5.48852 11.4H14.4065C15.4729 11.4 16.012 11.9507 16.012 13.0171V19.7203C16.012 20.7867 15.4729 21.3374 14.4065 21.3374H5.48852ZM0.0861816 21.5132C0.0861816 23.9624 1.29321 25.1812 3.71899 25.1812H16.1643C18.5901 25.1812 19.7971 23.9624 19.7971 21.5132V3.73584C19.7971 1.29834 18.5901 0.0561523 16.1643 0.0561523H3.71899C1.29321 0.0561523 0.0861816 1.29834 0.0861816 3.73584V21.5132Z" fill="black" fill-opacity="0.85"/>
</g>
<defs>
<clipPath id="clip0_2207_1633">
<rect width="19.7109" height="25.1367" fill="white" transform="translate(0.0861816 0.0561523)"/>
</clipPath>
</defs>
</svg>
