<svg width="26" height="33" viewBox="0 0 26 33" fill="none" xmlns="http://www.w3.org/2000/svg">
<g clip-path="url(#clip0_2207_910)">
<path d="M19.366 8.98585H25.4949C25.4246 8.61085 25.1785 8.28272 24.7566 7.87257L19.7996 2.82178C19.4011 2.39991 19.0613 2.1421 18.698 2.09522L18.7097 8.30616C18.7097 8.78663 18.8972 8.98585 19.366 8.98585ZM10.9754 25.2515H21.991C24.4168 25.2515 25.6238 24.0093 25.6238 21.5718V10.4507H19.1433C17.9246 10.4507 17.2214 9.75928 17.2214 8.54054V1.61475H10.9754C8.56128 1.61475 7.34253 2.90382 7.34253 5.20069V21.5718C7.34253 24.021 8.56128 25.2515 10.9754 25.2515Z" fill="black" fill-opacity="0.85"/>
<path d="M5.29175 32.6929H16.3074C19.6238 32.6929 21.5457 30.7359 21.5457 27.4195V18.1617C21.5574 16.4742 21.0418 15.1265 19.9636 14.025L13.7058 7.6499C12.5105 6.41943 11.2097 5.86865 9.3816 5.86865H5.29175C1.98707 5.86865 0.0651855 7.81396 0.0651855 11.1421V27.4195C0.0651855 30.7476 1.98707 32.6929 5.29175 32.6929Z" fill="white"/>
<path d="M11.7488 16.5562H19.741C19.6121 16.0992 19.3425 15.6773 18.8269 15.1382L12.5691 8.76318C12.0418 8.23584 11.5964 7.88427 11.1511 7.75537V15.9585C11.1511 16.357 11.3504 16.5562 11.7488 16.5562ZM5.29175 31.0992H16.3074C18.7332 31.0992 19.9402 29.857 19.9402 27.4195V18.1617H11.7605C10.2488 18.1617 9.54566 17.4468 9.54566 15.9468V7.4624H5.29175C2.87769 7.4624 1.65894 8.69287 1.65894 11.1421V27.4195C1.65894 29.8687 2.87769 31.0992 5.29175 31.0992Z" fill="black" fill-opacity="0.85"/>
</g>
<defs>
<clipPath id="clip0_2207_910">
<rect width="25.5586" height="32.6367" fill="white" transform="translate(0.0651855 0.0561523)"/>
</clipPath>
</defs>
</svg>
