<svg width="20" height="28" viewBox="0 0 20 28" fill="none" xmlns="http://www.w3.org/2000/svg">
<g clip-path="url(#clip0_2207_900)">
<path d="M0.0944824 22.65C0.0944824 25.0992 1.30151 26.3179 3.72729 26.3179H16.1726C18.5984 26.3179 19.8054 25.0992 19.8054 22.65V4.87256C19.8054 2.43506 18.5984 1.19287 16.1726 1.19287H3.72729C1.30151 1.19287 0.0944824 2.43506 0.0944824 4.87256V22.65ZM1.9812 22.6148V4.90771C1.9812 3.73584 2.60229 3.07959 3.82104 3.07959H16.0789C17.2976 3.07959 17.9187 3.73584 17.9187 4.90771V22.6148C17.9187 23.7867 17.2976 24.4312 16.0789 24.4312H3.82104C2.60229 24.4312 1.9812 23.7867 1.9812 22.6148ZM9.22339 25.4507H10.6765V8.81006H9.22339V25.4507ZM9.94995 9.25537C11.7312 9.25537 12.7859 8.22412 12.7859 6.5249C12.7859 6.19677 12.7507 5.86865 12.6804 5.54053L11.5789 0.73584C11.4734 0.325683 11.1218 0.0561523 10.6883 0.0561523H9.21167C8.77807 0.0561523 8.42651 0.325683 8.32104 0.73584L7.21948 5.54053C7.14917 5.86865 7.11401 6.19677 7.11401 6.5249C7.11401 8.22412 8.1687 9.25537 9.94995 9.25537ZM9.94995 7.69677C9.22339 7.69677 8.6726 7.13427 8.6726 6.40771C8.6726 5.69287 9.2351 5.13037 9.94995 5.13037C10.6648 5.13037 11.2273 5.69287 11.2273 6.40771C11.2273 7.13427 10.6883 7.69677 9.94995 7.69677ZM9.94995 11.9742H12.7156C13.1257 11.9742 13.4422 11.6578 13.4422 11.2476C13.4422 10.8492 13.1257 10.5328 12.7156 10.5328H9.94995V11.9742ZM7.18432 13.5679H9.94995V12.1265H7.18432C6.77417 12.1265 6.45776 12.4312 6.45776 12.8296C6.45776 13.2398 6.77417 13.5679 7.18432 13.5679ZM9.94995 15.15H12.7156C13.1257 15.15 13.4422 14.8335 13.4422 14.4234C13.4422 14.025 13.1257 13.7085 12.7156 13.7085H9.94995V15.15ZM7.18432 16.7437H9.94995V15.3023H7.18432C6.77417 15.3023 6.45776 15.607 6.45776 16.0054C6.45776 16.4156 6.77417 16.7437 7.18432 16.7437ZM9.94995 18.3257H12.7156C13.1257 18.3257 13.4422 18.0093 13.4422 17.5992C13.4422 17.2007 13.1257 16.8843 12.7156 16.8843H9.94995V18.3257ZM7.18432 19.9195H9.94995V18.4781H7.18432C6.77417 18.4781 6.45776 18.7828 6.45776 19.1812C6.45776 19.5914 6.77417 19.9195 7.18432 19.9195ZM9.94995 21.5015H12.7156C13.1257 21.5015 13.4422 21.1851 13.4422 20.775C13.4422 20.3765 13.1257 20.0601 12.7156 20.0601H9.94995V21.5015ZM7.18432 23.0953H9.94995V21.6539H7.18432C6.77417 21.6539 6.45776 21.9703 6.45776 22.3687C6.45776 22.7789 6.77417 23.0953 7.18432 23.0953Z" fill="black" fill-opacity="0.85"/>
</g>
<defs>
<clipPath id="clip0_2207_900">
<rect width="19.7109" height="27.4102" fill="white" transform="translate(0.0944824 0.0561523)"/>
</clipPath>
</defs>
</svg>
