<svg width="22" height="22" viewBox="0 0 22 22" fill="none" xmlns="http://www.w3.org/2000/svg">
<g clip-path="url(#clip0_2207_25365)">
<path d="M3.70069 21.6551H17.9155C20.3765 21.6551 21.5952 20.4363 21.5952 18.0222V3.71362C21.5952 1.29956 20.3765 0.0808105 17.9155 0.0808105H3.70069C1.25147 0.0808105 0.0209961 1.28784 0.0209961 3.71362V18.0222C0.0209961 20.448 1.25147 21.6551 3.70069 21.6551Z" fill="black" fill-opacity="0.85"/>
<path d="M10.814 17.7527C10.4858 17.7527 10.2398 17.5183 10.2398 17.1785V16.3113C8.62255 16.159 7.2749 15.2683 6.93505 13.8738C6.8999 13.7566 6.87646 13.6277 6.87646 13.4988C6.87646 13.0769 7.16943 12.784 7.57958 12.784C7.94287 12.784 8.20068 12.9715 8.32958 13.3933C8.5288 14.1902 9.16161 14.7996 10.2398 14.9519V11.3894L10.1577 11.366C8.14208 10.8855 7.11083 9.97143 7.11083 8.43628C7.11083 6.78393 8.41161 5.63549 10.2398 5.43628V4.60425C10.2398 4.2644 10.4858 4.03003 10.814 4.03003C11.1421 4.03003 11.3999 4.2644 11.3999 4.60425V5.43628C12.9468 5.61206 14.1772 6.5144 14.4937 7.81518C14.5171 7.94409 14.5522 8.07299 14.5522 8.19018C14.5522 8.61206 14.2476 8.90503 13.8374 8.90503C13.4507 8.90503 13.2163 8.67065 13.0991 8.30737C12.853 7.49878 12.2554 6.98315 11.3999 6.83081V10.1941L11.5522 10.2293C13.6499 10.6043 14.7163 11.6004 14.7163 13.241C14.7163 15.0691 13.2632 16.159 11.3999 16.3347V17.1785C11.3999 17.5183 11.1421 17.7527 10.814 17.7527ZM10.2398 9.8894V6.83081C9.22021 7.00659 8.61083 7.62768 8.61083 8.35425C8.61083 9.06909 9.0913 9.54956 10.1577 9.86596L10.2398 9.8894ZM11.3999 11.6707V14.9519C12.6304 14.8113 13.228 14.1668 13.228 13.323C13.228 12.5613 12.8179 12.0574 11.646 11.741L11.3999 11.6707Z" fill="white"/>
</g>
<defs>
<clipPath id="clip0_2207_25365">
<rect width="21.5742" height="21.5977" fill="white" transform="translate(0.0209961 0.057373)"/>
</clipPath>
</defs>
</svg>
