<svg width="15" height="27" viewBox="0 0 15 27" fill="none" xmlns="http://www.w3.org/2000/svg">
<g clip-path="url(#clip0_2207_25346)">
<path d="M7.45191 23.7762C11.4128 23.7762 14.7644 21.7136 14.7644 17.9519C14.7644 15.0574 12.9128 13.3347 8.77612 12.3386L6.54956 11.8113C3.93628 11.1902 2.72925 10.1004 2.72925 8.3894C2.72925 6.54956 4.47534 4.96753 7.44019 4.96753C9.86597 4.96753 11.53 6.10425 12.1746 8.2019C12.3621 8.81128 12.7605 9.12768 13.3464 9.12768C14.0378 9.12768 14.4246 8.68237 14.4246 8.00268C14.4246 7.81518 14.4011 7.61596 14.3425 7.40503C13.6394 4.69799 10.8972 2.89331 7.44019 2.89331C3.36206 2.89331 0.444092 5.19018 0.444092 8.53003C0.444092 11.2957 2.27222 13.0301 6.198 13.9793L8.42456 14.5066C11.3425 15.2097 12.4793 16.2176 12.4793 18.116C12.4793 20.3777 10.6277 21.7019 7.47534 21.7019C4.66284 21.7019 2.823 20.5183 2.2605 18.3269C2.06128 17.7058 1.67456 17.3894 1.08862 17.3894C0.408936 17.3894 0.010498 17.8465 0.010498 18.5379C0.010498 18.7136 0.0339355 18.9129 0.0925292 19.1238C0.83081 22.0652 3.93628 23.7762 7.45191 23.7762ZM7.39331 26.6004C7.8855 26.6004 8.28394 26.2019 8.28394 25.7097V1.03003C8.28394 0.537842 7.8855 0.151123 7.39331 0.151123C6.90112 0.151123 6.51441 0.537842 6.51441 1.03003V25.7097C6.51441 26.2019 6.90112 26.6004 7.39331 26.6004Z" fill="black" fill-opacity="0.85"/>
</g>
<defs>
<clipPath id="clip0_2207_25346">
<rect width="14.7539" height="26.543" fill="white" transform="translate(0.010498 0.057373)"/>
</clipPath>
</defs>
</svg>
