<svg width="24" height="24" viewBox="0 0 24 24" fill="none" xmlns="http://www.w3.org/2000/svg">
<g clip-path="url(#clip0_2207_25566)">
<path d="M11.9782 23.9636C18.5173 23.9636 23.9313 18.5379 23.9313 12.0105C23.9313 5.47143 18.5056 0.057373 11.9665 0.057373C5.43921 0.057373 0.0251465 5.47143 0.0251465 12.0105C0.0251465 18.5379 5.45093 23.9636 11.9782 23.9636ZM11.9782 21.9715C6.44703 21.9715 2.02906 17.5418 2.02906 12.0105C2.02906 6.47925 6.43531 2.04956 11.9665 2.04956C17.4978 2.04956 21.9392 6.47925 21.9392 12.0105C21.9392 17.5418 17.5095 21.9715 11.9782 21.9715Z" fill="black" fill-opacity="0.85"/>
<path d="M7.78296 12.4324C7.78296 14.5769 9.20093 16.0769 11.1228 16.0769C12.0837 16.0769 12.9274 15.7019 13.4548 15.034V15.5027C13.4548 15.9246 13.7478 16.2176 14.1696 16.2176C14.5798 16.2176 14.861 15.9246 14.861 15.5027V7.92065H15.611C15.9274 7.92065 16.1618 7.68628 16.1618 7.36987C16.1618 7.05346 15.9392 6.80737 15.611 6.80737H14.861V6.25659C14.861 5.79956 14.5681 5.50659 14.1228 5.50659C13.6892 5.50659 13.3962 5.79956 13.3962 6.25659V6.80737H11.2634C10.9353 6.80737 10.7126 7.05346 10.7126 7.36987C10.7126 7.68628 10.947 7.92065 11.2634 7.92065H13.3962V9.79565C12.8923 9.16284 12.072 8.78784 11.111 8.78784C9.18921 8.78784 7.78296 10.2762 7.78296 12.4324ZM9.28296 12.4441C9.28296 11.0613 10.1267 10.1472 11.3689 10.1472C12.5642 10.1472 13.4313 11.1199 13.4313 12.4441C13.4313 13.7801 12.5642 14.741 11.3689 14.741C10.1267 14.741 9.28296 13.8386 9.28296 12.4441ZM8.38062 17.4129C8.38062 17.7293 8.62671 17.9871 8.94312 17.9871H14.6618C14.9782 17.9871 15.2243 17.7293 15.2243 17.4129C15.2243 17.0847 14.9899 16.8504 14.6618 16.8504H8.94312C8.61499 16.8504 8.38062 17.0965 8.38062 17.4129Z" fill="black" fill-opacity="0.85"/>
</g>
<defs>
<clipPath id="clip0_2207_25566">
<rect width="23.9062" height="23.918" fill="white" transform="translate(0.0251465 0.057373)"/>
</clipPath>
</defs>
</svg>
