<svg width="29" height="25" viewBox="0 0 29 25" fill="none" xmlns="http://www.w3.org/2000/svg">
<g clip-path="url(#clip0_2207_11652)">
<path d="M1.00049 24.9246C1.52783 24.9246 1.94971 24.5027 1.94971 23.9871V2.56518C1.94971 2.19018 2.1958 1.94409 2.54737 1.94409H26.231C26.5825 1.94409 26.8286 2.19018 26.8286 2.56518V23.9871C26.8286 24.5027 27.2505 24.9246 27.7661 24.9246C28.2935 24.9246 28.7153 24.5027 28.7153 23.9871V2.44799C28.7153 1.01831 27.731 0.057373 26.2544 0.057373H2.51221C1.04736 0.057373 0.0629883 1.01831 0.0629883 2.44799V23.9871C0.0629883 24.5027 0.484863 24.9246 1.00049 24.9246Z" fill="black" fill-opacity="0.85"/>
<path d="M3.71924 24.5144H13.3052C13.5278 24.5144 13.7036 24.3269 13.7036 24.116V3.70191C13.7036 3.47926 13.5278 3.30347 13.3052 3.30347H3.71924C3.49658 3.30347 3.3208 3.47926 3.3208 3.70191V24.116C3.3208 24.3269 3.49658 24.5144 3.71924 24.5144ZM5.96924 15.7488C5.64111 15.7488 5.40674 15.5144 5.40674 15.1746V13.1238C5.40674 12.784 5.64111 12.5613 5.96924 12.5613C6.30908 12.5613 6.54346 12.784 6.54346 13.1238V15.1746C6.54346 15.5144 6.30908 15.7488 5.96924 15.7488ZM15.4614 24.5144H25.0591C25.2818 24.5144 25.4575 24.3269 25.4575 24.116V3.70191C25.4575 3.47926 25.2818 3.30347 25.0591 3.30347H15.4614C15.2505 3.30347 15.0747 3.47926 15.0747 3.70191V24.116C15.0747 24.3269 15.2505 24.5144 15.4614 24.5144Z" fill="black" fill-opacity="0.85"/>
</g>
<defs>
<clipPath id="clip0_2207_11652">
<rect width="28.6523" height="24.8789" fill="white" transform="translate(0.0629883 0.057373)"/>
</clipPath>
</defs>
</svg>
