<svg width="18" height="25" viewBox="0 0 18 25" fill="none" xmlns="http://www.w3.org/2000/svg">
<g clip-path="url(#clip0_2207_11637)">
<path d="M17.9204 23.9871V2.44799C17.9204 1.01831 16.9477 0.057373 15.4712 0.057373H2.51026C1.04541 0.057373 0.0610352 1.01831 0.0610352 2.44799V23.9871C0.0610352 24.5027 0.48291 24.9246 0.998535 24.9246C1.52588 24.9246 1.94776 24.5027 1.94776 23.9871V2.56518C1.94776 2.19018 2.19385 1.94409 2.54542 1.94409H15.436C15.7876 1.94409 16.0337 2.19018 16.0337 2.56518V23.9871C16.0337 24.5027 16.4555 24.9246 16.9829 24.9246C17.4985 24.9246 17.9204 24.5027 17.9204 23.9871Z" fill="black" fill-opacity="0.85"/>
<path d="M14.6626 24.2566V3.56127C14.6626 3.32689 14.4751 3.2097 14.2524 3.30345L10.561 4.94408C10.2798 5.06127 10.1626 5.16674 10.1626 5.4597V22.3465C10.1626 22.6512 10.2798 22.7449 10.5727 22.8738L14.2524 24.5027C14.4751 24.5965 14.6626 24.4793 14.6626 24.2566Z" fill="black" fill-opacity="0.85"/>
</g>
<defs>
<clipPath id="clip0_2207_11637">
<rect width="17.8594" height="24.8789" fill="white" transform="translate(0.0610352 0.057373)"/>
</clipPath>
</defs>
</svg>
