<svg width="29" height="25" viewBox="0 0 29 25" fill="none" xmlns="http://www.w3.org/2000/svg">
<g clip-path="url(#clip0_2207_11662)">
<path d="M27.7702 24.9246C28.2976 24.9246 28.7194 24.5027 28.7194 23.9871V2.44799C28.7194 1.01831 27.7351 0.057373 26.2585 0.057373H2.51636C1.05151 0.057373 0.0671387 1.01831 0.0671387 2.44799V23.9871C0.0671387 24.5027 0.489014 24.9246 1.00464 24.9246C1.53198 24.9246 1.95386 24.5027 1.95386 23.9871V2.56518C1.95386 2.19018 2.19995 1.94409 2.55152 1.94409H26.2351C26.5866 1.94409 26.8327 2.19018 26.8327 2.56518V23.9871C26.8327 24.5027 27.2546 24.9246 27.7702 24.9246Z" fill="black" fill-opacity="0.85"/>
<path d="M25.0632 24.5144C25.2859 24.5144 25.4616 24.3269 25.4616 24.116V3.70191C25.4616 3.47926 25.2859 3.30347 25.0632 3.30347H15.4655C15.2546 3.30347 15.0788 3.47926 15.0788 3.70191V24.116C15.0788 24.3269 15.2546 24.5144 15.4655 24.5144H25.0632ZM22.8132 15.7488C22.4733 15.7488 22.239 15.5144 22.239 15.1746V13.1238C22.239 12.784 22.4733 12.5613 22.8132 12.5613C23.1413 12.5613 23.3757 12.784 23.3757 13.1238V15.1746C23.3757 15.5144 23.1413 15.7488 22.8132 15.7488ZM13.3093 24.5144C13.5319 24.5144 13.7077 24.3269 13.7077 24.116V3.70191C13.7077 3.47926 13.5319 3.30347 13.3093 3.30347H3.72339C3.50073 3.30347 3.32495 3.47926 3.32495 3.70191V24.116C3.32495 24.3269 3.50073 24.5144 3.72339 24.5144H13.3093Z" fill="black" fill-opacity="0.85"/>
</g>
<defs>
<clipPath id="clip0_2207_11662">
<rect width="28.6523" height="24.8789" fill="white" transform="translate(0.0671387 0.057373)"/>
</clipPath>
</defs>
</svg>
