<svg width="20" height="24" viewBox="0 0 20 24" fill="none" xmlns="http://www.w3.org/2000/svg">
<g clip-path="url(#clip0_2207_14997)">
<path d="M13.3338 22.7186C13.6971 23.117 14.3299 23.1639 14.7752 22.6952C17.5643 19.7772 19.1697 15.8631 19.1697 11.5858C19.1697 7.30841 17.5877 3.35919 14.7752 0.464659C14.3299 -0.00409102 13.6971 0.042784 13.3338 0.441221C12.9705 0.851378 13.0526 1.42559 13.4744 1.87091C15.9237 4.39044 17.2596 7.82403 17.2596 11.5858C17.2596 15.3475 15.9002 18.7459 13.4744 21.2889C13.0526 21.7342 12.9705 22.3202 13.3338 22.7186Z" fill="black" fill-opacity="0.85"/>
<path d="M9.94693 19.6014C10.3219 20.035 10.9781 20.035 11.4352 19.5428C13.3805 17.4334 14.4703 14.6209 14.4703 11.5858C14.4703 8.5506 13.3922 5.72638 11.4352 3.62873C10.9781 3.12482 10.3219 3.12482 9.94693 3.57013C9.57193 3.99201 9.68912 4.54279 10.1109 5.02326C11.693 6.75763 12.5602 9.05451 12.5602 11.5858C12.5602 14.1053 11.6813 16.4022 10.1109 18.1483C9.68912 18.6287 9.57193 19.1678 9.94693 19.6014Z" fill="black" fill-opacity="0.85"/>
<path d="M6.66585 16.2616C7.05257 16.6952 7.75569 16.7069 8.16585 16.1795C9.18538 14.9139 9.78303 13.3084 9.78303 11.5858C9.78303 9.86311 9.18538 8.24593 8.16585 6.99202C7.75569 6.45296 7.05257 6.46468 6.66585 6.90999C6.29085 7.33186 6.45491 7.84749 6.81819 8.36311C7.5096 9.24202 7.87288 10.367 7.87288 11.5858C7.87288 12.8045 7.52132 13.9295 6.81819 14.8084C6.44319 15.3123 6.29085 15.8397 6.66585 16.2616Z" fill="black" fill-opacity="0.85"/>
<path d="M0.079834 11.5623C0.079834 12.6991 1.06421 13.66 2.22436 13.66C3.38452 13.66 4.34545 12.6991 4.34545 11.5389C4.34545 10.367 3.40795 9.40607 2.22436 9.40607C1.05249 9.40607 0.079834 10.3905 0.079834 11.5623Z" fill="black" fill-opacity="0.85"/>
</g>
<defs>
<clipPath id="clip0_2207_14997">
<rect width="19.0898" height="22.9747" fill="white" transform="translate(0.079834 0.057373)"/>
</clipPath>
</defs>
</svg>
