<svg width="20" height="24" viewBox="0 0 20 24" fill="none" xmlns="http://www.w3.org/2000/svg">
<g clip-path="url(#clip0_2207_14990)">
<path d="M13.3379 22.7186C13.7012 23.117 14.334 23.1639 14.7793 22.6952C17.5684 19.7772 19.1738 15.8631 19.1738 11.5858C19.1738 7.30841 17.5918 3.35919 14.7793 0.464659C14.334 -0.00409102 13.7012 0.042784 13.3379 0.441221C12.9746 0.851378 13.0567 1.42559 13.4785 1.87091C15.9278 4.39044 17.2637 7.82403 17.2637 11.5858C17.2637 15.3475 15.9043 18.7459 13.4785 21.2889C13.0567 21.7342 12.9746 22.3202 13.3379 22.7186Z" fill="black" fill-opacity="0.85"/>
<path d="M9.95108 19.6014C10.3261 20.035 10.9823 20.035 11.4394 19.5428C13.3847 17.4334 14.4745 14.6209 14.4745 11.5858C14.4745 8.5506 13.3964 5.72638 11.4394 3.62873C10.9823 3.12482 10.3261 3.12482 9.95108 3.57013C9.57608 3.99201 9.69327 4.54279 10.1151 5.02326C11.6972 6.75763 12.5644 9.05451 12.5644 11.5858C12.5644 14.1053 11.6855 16.4022 10.1151 18.1483C9.69327 18.6287 9.57608 19.1678 9.95108 19.6014Z" fill="black" fill-opacity="0.85"/>
<path d="M6.67 16.2616C7.05672 16.6952 7.75984 16.7069 8.17 16.1795C9.18953 14.9139 9.78718 13.3084 9.78718 11.5858C9.78718 9.86311 9.18953 8.24593 8.17 6.99202C7.75984 6.45296 7.05672 6.46468 6.67 6.90999C6.295 7.33186 6.45906 7.84749 6.82234 8.36311C7.51375 9.24202 7.87703 10.367 7.87703 11.5858C7.87703 12.8045 7.52547 13.9295 6.82234 14.8084C6.44734 15.3123 6.295 15.8397 6.67 16.2616Z" fill="black" fill-opacity="0.85"/>
<path d="M0.0839844 11.5623C0.0839844 12.6991 1.06836 13.66 2.22851 13.66C3.38867 13.66 4.3496 12.6991 4.3496 11.5389C4.3496 10.367 3.4121 9.40607 2.22851 9.40607C1.05664 9.40607 0.0839844 10.3905 0.0839844 11.5623Z" fill="black" fill-opacity="0.85"/>
</g>
<defs>
<clipPath id="clip0_2207_14990">
<rect width="19.0898" height="22.9747" fill="white" transform="translate(0.0839844 0.057373)"/>
</clipPath>
</defs>
</svg>
