<svg width="18" height="18" viewBox="0 0 18 18" fill="none" xmlns="http://www.w3.org/2000/svg">
<g clip-path="url(#clip0_2207_15084)">
<path d="M0.261963 0.994873C0.261963 1.51049 0.695557 1.94409 1.21118 1.94409C9.30884 1.94409 15.8948 8.53003 15.8948 16.6277C15.8948 17.1433 16.3284 17.5769 16.844 17.5769C17.3596 17.5769 17.7815 17.1433 17.7815 16.6277C17.7815 7.49878 10.3401 0.057373 1.21118 0.057373C0.695557 0.057373 0.261963 0.479248 0.261963 0.994873Z" fill="black" fill-opacity="0.85"/>
<path d="M0.261963 5.95191C0.261963 6.46754 0.695557 6.88941 1.21118 6.88941C6.59009 6.88941 10.9495 11.2488 10.9495 16.6277C10.9495 17.1433 11.3714 17.5769 11.887 17.5769C12.4026 17.5769 12.8362 17.1433 12.8362 16.6277C12.8362 10.2176 7.62134 5.00269 1.21118 5.00269C0.695557 5.00269 0.261963 5.43629 0.261963 5.95191Z" fill="black" fill-opacity="0.85"/>
<path d="M0.261963 10.6043C0.261963 11.1199 0.695557 11.5418 1.21118 11.5418C4.01196 11.5418 6.29712 13.8269 6.29712 16.6277C6.29712 17.1433 6.71899 17.5769 7.23462 17.5769C7.75024 17.5769 8.18384 17.1433 8.18384 16.6277C8.18384 12.784 5.04321 9.65503 1.21118 9.65503C0.695557 9.65503 0.261963 10.0886 0.261963 10.6043Z" fill="black" fill-opacity="0.85"/>
<path d="M1.76196 17.7527C2.67602 17.7527 3.4143 17.0027 3.4143 16.1004C3.4143 15.1746 2.68774 14.4363 1.76196 14.4363C0.847901 14.4363 0.0861816 15.2097 0.0861816 16.1355C0.0861816 17.0027 0.871338 17.7527 1.76196 17.7527Z" fill="black" fill-opacity="0.85"/>
</g>
<defs>
<clipPath id="clip0_2207_15084">
<rect width="17.6953" height="17.8242" fill="white" transform="translate(0.0861816 0.057373)"/>
</clipPath>
</defs>
</svg>
