<svg width="26" height="26" viewBox="0 0 26 26" fill="none" xmlns="http://www.w3.org/2000/svg">
<g clip-path="url(#clip0_2207_20588)">
<path d="M17.43 20.2619C17.43 18.9963 17.2776 18.5861 16.469 17.7776L14.1956 15.4924C13.3753 14.6838 12.2503 14.6838 11.43 15.4924L9.1565 17.7776C8.34791 18.5861 8.20728 18.9963 8.20728 20.2619V23.215C8.20728 24.715 9.07447 25.6643 10.4104 25.6643H15.2269C16.5628 25.6643 17.43 24.715 17.43 23.215V20.2619Z" fill="black" fill-opacity="0.85"/>
<path d="M20.219 8.26196C18.9417 8.26196 18.5315 8.40259 17.723 9.21118L15.4495 11.4846C14.6292 12.3049 14.6292 13.4299 15.4495 14.2502L17.723 16.5236C18.5315 17.3322 18.9417 17.4846 20.219 17.4846H23.1604C24.6604 17.4846 25.6214 16.6174 25.6214 15.2815V10.4533C25.6214 9.12915 24.6604 8.26196 23.1604 8.26196H20.219ZM20.219 9.93775H23.1136C23.6526 9.93775 23.9573 10.2424 23.9573 10.7815V14.9533C23.9573 15.4924 23.6526 15.8088 23.1136 15.8088H20.219C19.6097 15.8088 19.305 15.7268 18.9065 15.3283L16.7034 13.1369C16.5276 12.9494 16.5394 12.7736 16.7151 12.5979L18.9065 10.4065C19.305 10.0081 19.6097 9.93775 20.219 9.93775Z" fill="black" fill-opacity="0.85"/>
<path d="M5.40649 17.4729C6.68384 17.4729 7.09399 17.3322 7.90259 16.5236L10.1761 14.2502C10.9964 13.4299 10.9964 12.3049 10.1761 11.4846L7.90259 9.21117C7.09399 8.40258 6.68384 8.25024 5.40649 8.25024H2.46509C0.965088 8.25024 0.00415039 9.11742 0.00415039 10.4533V15.2815C0.00415039 16.6057 0.965088 17.4729 2.46509 17.4729H5.40649ZM5.40649 15.7971H2.51196C1.9729 15.7971 1.66821 15.4924 1.66821 14.9533V10.7815C1.66821 10.2424 1.9729 9.92602 2.51196 9.92602H5.40649C6.01587 9.92602 6.32056 10.0081 6.71899 10.4065L8.92212 12.5979C9.0979 12.7854 9.08618 12.9611 8.9104 13.1369L6.71899 15.3283C6.32056 15.7268 6.01587 15.7971 5.40649 15.7971Z" fill="black" fill-opacity="0.85"/>
<path d="M8.20728 5.4729C8.20728 6.73853 8.35962 7.14868 9.16821 7.95728L11.4417 10.2307C12.262 11.051 13.387 11.051 14.2073 10.2307L16.4808 7.95728C17.2894 7.14868 17.43 6.73853 17.43 5.4729V2.51978C17.43 1.01978 16.5628 0.0588379 15.2269 0.0588379H10.4104C9.07447 0.0588379 8.20728 1.01978 8.20728 2.51978V5.4729ZM9.88307 5.4729V2.56665C9.88307 2.03931 10.1995 1.7229 10.7386 1.7229H14.9104C15.4495 1.7229 15.7542 2.03931 15.7542 2.56665V5.4729C15.7542 6.07056 15.6839 6.37525 15.2854 6.77368L13.0823 8.97681C12.9065 9.15259 12.7308 9.15259 12.555 8.97681L10.3636 6.77368C9.96509 6.37525 9.88307 6.07056 9.88307 5.4729Z" fill="black" fill-opacity="0.85"/>
</g>
<defs>
<clipPath id="clip0_2207_20588">
<rect width="25.6172" height="25.6289" fill="white" transform="translate(0.00415039 0.0588379)"/>
</clipPath>
</defs>
</svg>
