<svg width="26" height="26" viewBox="0 0 26 26" fill="none" xmlns="http://www.w3.org/2000/svg">
<g clip-path="url(#clip0_2207_20574)">
<path d="M17.4385 20.2619C17.4385 18.9963 17.2861 18.5861 16.4775 17.7776L14.2041 15.4924C13.3838 14.6838 12.2588 14.6838 11.4385 15.4924L9.16504 17.7776C8.35645 18.5861 8.21582 18.9963 8.21582 20.2619V23.215C8.21582 24.715 9.08301 25.6643 10.4189 25.6643H15.2354C16.5713 25.6643 17.4385 24.715 17.4385 23.215V20.2619ZM15.7627 20.2619V23.1682C15.7627 23.6955 15.4463 24.0002 14.9072 24.0002H10.7354C10.1963 24.0002 9.89161 23.6955 9.89161 23.1682V20.2619C9.89161 19.6526 9.96192 19.3479 10.3604 18.9611L12.5635 16.758C12.7393 16.5705 12.915 16.5822 13.0908 16.758L15.2939 18.9611C15.6807 19.3479 15.7627 19.6526 15.7627 20.2619Z" fill="black" fill-opacity="0.85"/>
<path d="M20.2275 8.26196C18.9502 8.26196 18.54 8.40259 17.7315 9.21118L15.458 11.4846C14.6377 12.3049 14.6377 13.4299 15.458 14.2502L17.7315 16.5236C18.54 17.3322 18.9502 17.4846 20.2275 17.4846H23.1689C24.6689 17.4846 25.6299 16.6174 25.6299 15.2815V10.4533C25.6299 9.12915 24.6689 8.26196 23.1689 8.26196H20.2275ZM20.2275 9.93775H23.1221C23.6611 9.93775 23.9658 10.2424 23.9658 10.7815V14.9533C23.9658 15.4924 23.6611 15.8088 23.1221 15.8088H20.2275C19.6182 15.8088 19.3135 15.7268 18.915 15.3283L16.7119 13.1369C16.5361 12.9494 16.5479 12.7736 16.7236 12.5979L18.915 10.4065C19.3135 10.0081 19.6182 9.93775 20.2275 9.93775Z" fill="black" fill-opacity="0.85"/>
<path d="M5.41504 17.4729C6.69239 17.4729 7.10254 17.3322 7.91114 16.5236L10.1846 14.2502C11.0049 13.4299 11.0049 12.3049 10.1846 11.4846L7.91114 9.21117C7.10254 8.40258 6.69239 8.25024 5.41504 8.25024H2.47364C0.973633 8.25024 0.0126953 9.11742 0.0126953 10.4533V15.2815C0.0126953 16.6057 0.973633 17.4729 2.47364 17.4729H5.41504ZM5.41504 15.7971H2.52051C1.98145 15.7971 1.67676 15.4924 1.67676 14.9533V10.7815C1.67676 10.2424 1.98145 9.92602 2.52051 9.92602H5.41504C6.02442 9.92602 6.32911 10.0081 6.72754 10.4065L8.93067 12.5979C9.10645 12.7854 9.09473 12.9611 8.91895 13.1369L6.72754 15.3283C6.32911 15.7268 6.02442 15.7971 5.41504 15.7971Z" fill="black" fill-opacity="0.85"/>
<path d="M8.21582 5.4729C8.21582 6.73853 8.36817 7.14868 9.17676 7.95728L11.4502 10.2307C12.2705 11.051 13.3955 11.051 14.2158 10.2307L16.4893 7.95728C17.2979 7.14868 17.4385 6.73853 17.4385 5.4729V2.51978C17.4385 1.01978 16.5713 0.0588379 15.2354 0.0588379H10.4189C9.08301 0.0588379 8.21582 1.01978 8.21582 2.51978V5.4729Z" fill="black" fill-opacity="0.85"/>
</g>
<defs>
<clipPath id="clip0_2207_20574">
<rect width="25.6172" height="25.6289" fill="white" transform="translate(0.0126953 0.0588379)"/>
</clipPath>
</defs>
</svg>
