<svg width="26" height="26" viewBox="0 0 26 26" fill="none" xmlns="http://www.w3.org/2000/svg">
<g clip-path="url(#clip0_2207_20581)">
<path d="M17.4363 20.2619C17.4363 18.9963 17.2839 18.5861 16.4753 17.7776L14.2019 15.4924C13.3816 14.6838 12.2566 14.6838 11.4363 15.4924L9.16284 17.7776C8.35425 18.5861 8.21362 18.9963 8.21362 20.2619V23.215C8.21362 24.715 9.08081 25.6643 10.4167 25.6643H15.2332C16.5691 25.6643 17.4363 24.715 17.4363 23.215V20.2619ZM15.7605 20.2619V23.1682C15.7605 23.6955 15.4441 24.0002 14.905 24.0002H10.7332C10.1941 24.0002 9.88941 23.6955 9.88941 23.1682V20.2619C9.88941 19.6526 9.95972 19.3479 10.3582 18.9611L12.5613 16.758C12.7371 16.5705 12.9128 16.5822 13.0886 16.758L15.2917 18.9611C15.6785 19.3479 15.7605 19.6526 15.7605 20.2619Z" fill="black" fill-opacity="0.85"/>
<path d="M20.2253 8.26196C18.948 8.26196 18.5378 8.40259 17.7293 9.21118L15.4558 11.4846C14.6355 12.3049 14.6355 13.4299 15.4558 14.2502L17.7293 16.5236C18.5378 17.3322 18.948 17.4846 20.2253 17.4846H23.1667C24.6667 17.4846 25.6277 16.6174 25.6277 15.2815V10.4533C25.6277 9.12915 24.6667 8.26196 23.1667 8.26196H20.2253Z" fill="black" fill-opacity="0.85"/>
<path d="M5.41284 17.4729C6.69019 17.4729 7.10034 17.3322 7.90894 16.5236L10.1824 14.2502C11.0027 13.4299 11.0027 12.3049 10.1824 11.4846L7.90894 9.21117C7.10034 8.40258 6.69019 8.25024 5.41284 8.25024H2.47144C0.971436 8.25024 0.010498 9.11742 0.010498 10.4533V15.2815C0.010498 16.6057 0.971436 17.4729 2.47144 17.4729H5.41284ZM5.41284 15.7971H2.51831C1.97925 15.7971 1.67456 15.4924 1.67456 14.9533V10.7815C1.67456 10.2424 1.97925 9.92602 2.51831 9.92602H5.41284C6.02222 9.92602 6.32691 10.0081 6.72534 10.4065L8.92847 12.5979C9.10425 12.7854 9.09253 12.9611 8.91675 13.1369L6.72534 15.3283C6.32691 15.7268 6.02222 15.7971 5.41284 15.7971Z" fill="black" fill-opacity="0.85"/>
<path d="M8.21362 5.4729C8.21362 6.73853 8.36597 7.14868 9.17456 7.95728L11.448 10.2307C12.2683 11.051 13.3933 11.051 14.2136 10.2307L16.4871 7.95728C17.2957 7.14868 17.4363 6.73853 17.4363 5.4729V2.51978C17.4363 1.01978 16.5691 0.0588379 15.2332 0.0588379H10.4167C9.08081 0.0588379 8.21362 1.01978 8.21362 2.51978V5.4729ZM9.88941 5.4729V2.56665C9.88941 2.03931 10.2058 1.7229 10.7449 1.7229H14.9167C15.4558 1.7229 15.7605 2.03931 15.7605 2.56665V5.4729C15.7605 6.07056 15.6902 6.37525 15.2917 6.77368L13.0886 8.97681C12.9128 9.15259 12.7371 9.15259 12.5613 8.97681L10.3699 6.77368C9.97144 6.37525 9.88941 6.07056 9.88941 5.4729Z" fill="black" fill-opacity="0.85"/>
</g>
<defs>
<clipPath id="clip0_2207_20581">
<rect width="25.6172" height="25.6289" fill="white" transform="translate(0.010498 0.0588379)"/>
</clipPath>
</defs>
</svg>
