<svg width="26" height="26" viewBox="0 0 26 26" fill="none" xmlns="http://www.w3.org/2000/svg">
<g clip-path="url(#clip0_2207_20563)">
<path d="M5.40869 17.4729C6.68604 17.4729 7.09619 17.3322 7.90479 16.5236L10.1782 14.2502C10.9985 13.4299 10.9985 12.3049 10.1782 11.4846L7.90479 9.21118C7.09619 8.40259 6.68604 8.25025 5.40869 8.25025H2.46729C0.967286 8.25025 0.00634766 9.11743 0.00634766 10.4533V15.2815C0.00634766 16.6057 0.967286 17.4729 2.46729 17.4729H5.40869ZM8.20947 5.4729C8.20947 6.73853 8.36182 7.14868 9.17041 7.95728L11.4438 10.2307C12.2641 11.051 13.3891 11.051 14.2094 10.2307L16.4829 7.95728C17.2915 7.14868 17.4321 6.73853 17.4321 5.4729V2.51978C17.4321 1.01978 16.5649 0.0588379 15.229 0.0588379H10.4125C9.07666 0.0588379 8.20947 1.01978 8.20947 2.51978V5.4729ZM20.2211 8.26196C18.9438 8.26196 18.5336 8.40259 17.7251 9.21118L15.4516 11.4846C14.6313 12.3049 14.6313 13.4299 15.4516 14.2502L17.7251 16.5236C18.5336 17.3322 18.9438 17.4846 20.2211 17.4846H23.1625C24.6625 17.4846 25.6235 16.6174 25.6235 15.2815V10.4533C25.6235 9.12915 24.6625 8.26196 23.1625 8.26196H20.2211ZM17.4321 20.2619C17.4321 18.9963 17.2797 18.5861 16.4711 17.7776L14.1977 15.4924C13.3774 14.6838 12.2524 14.6838 11.4321 15.4924L9.15869 17.7776C8.3501 18.5861 8.20947 18.9963 8.20947 20.2619V23.215C8.20947 24.715 9.07666 25.6643 10.4125 25.6643H15.229C16.5649 25.6643 17.4321 24.715 17.4321 23.215V20.2619Z" fill="black" fill-opacity="0.85"/>
</g>
<defs>
<clipPath id="clip0_2207_20563">
<rect width="25.6172" height="25.6289" fill="white" transform="translate(0.00634766 0.0588379)"/>
</clipPath>
</defs>
</svg>
