<svg width="25" height="23" viewBox="0 0 25 23" fill="none" xmlns="http://www.w3.org/2000/svg">
<g clip-path="url(#clip0_2207_4996)">
<path d="M3.23914 22.3244H21.4032C23.3954 22.3244 24.6024 20.9416 24.6024 19.1486C24.6024 18.5979 24.4383 18.0236 24.1454 17.508L15.0516 1.66431C14.4422 0.5979 13.3993 0.0588379 12.3211 0.0588379C11.243 0.0588379 10.1883 0.5979 9.5907 1.66431L0.496948 17.508C0.180542 18.0354 0.039917 18.5979 0.039917 19.1486C0.039917 20.9416 1.24695 22.3244 3.23914 22.3244ZM3.25086 20.4846C2.43054 20.4846 1.93836 19.8518 1.93836 19.1369C1.93836 18.9143 1.98523 18.633 2.11414 18.3869L11.1961 2.55493C11.4422 2.12134 11.8876 1.93384 12.3211 1.93384C12.7547 1.93384 13.1883 2.12134 13.4344 2.55493L22.5165 18.3986C22.6454 18.6447 22.704 18.9143 22.704 19.1369C22.704 19.8518 22.1883 20.4846 21.3797 20.4846H3.25086Z" fill="black" fill-opacity="0.85"/>
<path d="M12.3329 17.801C14.3016 17.801 15.6141 16.5236 15.6141 14.6135C15.6141 13.6643 15.2274 12.8205 14.9344 12.1877C14.4071 11.051 13.5516 9.6565 12.8251 8.51978C12.6727 8.30884 12.5204 8.20337 12.3329 8.20337C12.1337 8.20337 11.9813 8.30884 11.8407 8.51978C11.1024 9.6565 10.2469 11.051 9.71961 12.1877C9.42664 12.8205 9.03992 13.6643 9.03992 14.6135C9.03992 16.5236 10.3524 17.801 12.3329 17.801Z" fill="black" fill-opacity="0.85"/>
</g>
<defs>
<clipPath id="clip0_2207_4996">
<rect width="24.5625" height="22.3945" fill="white" transform="translate(0.039917 0.0588379)"/>
</clipPath>
</defs>
</svg>
