<svg width="26" height="20" viewBox="0 0 26 20" fill="none" xmlns="http://www.w3.org/2000/svg">
<g clip-path="url(#clip0_2207_11946)">
<path d="M3.71326 19.0783H22.1234C24.5727 19.0783 25.7914 17.8596 25.7914 15.4455V3.71509C25.7914 1.30103 24.5727 0.0822754 22.1234 0.0822754H3.71326C1.26404 0.0822754 0.0335693 1.30103 0.0335693 3.71509V15.4455C0.0335693 17.8596 1.26404 19.0783 3.71326 19.0783ZM3.73669 17.1916C2.56482 17.1916 1.92029 16.5588 1.92029 15.34V3.82056C1.92029 2.60181 2.56482 1.969 3.73669 1.969H22.0883C23.2484 1.969 23.9047 2.60181 23.9047 3.82056V15.34C23.9047 16.5588 23.2484 17.1916 22.0883 17.1916H3.73669Z" fill="black" fill-opacity="0.85"/>
<path d="M8.52966 14.7424C10.6625 14.7424 12.0805 13.3596 12.0805 11.3088C12.0805 10.2658 11.6586 9.37525 11.3422 8.67212C10.7797 7.46509 9.8656 5.95337 9.06873 4.7229C8.90466 4.47681 8.7406 4.38306 8.52966 4.38306C8.31873 4.38306 8.15466 4.47681 7.9906 4.7229C7.20545 5.95337 6.29138 7.46509 5.71716 8.67212C5.40076 9.37525 4.96716 10.2658 4.96716 11.3088C4.96716 13.3596 6.40857 14.7424 8.52966 14.7424ZM15.8422 7.31275C16.5922 7.31275 17.2133 6.69165 17.2133 5.94165C17.2133 5.19165 16.5922 4.57056 15.8422 4.57056C15.0805 4.57056 14.4711 5.19165 14.4711 5.94165C14.4711 6.69165 15.0805 7.31275 15.8422 7.31275ZM19.8734 7.31275C20.6234 7.31275 21.2445 6.69165 21.2445 5.94165C21.2445 5.19165 20.6234 4.57056 19.8734 4.57056C19.1234 4.57056 18.5024 5.19165 18.5024 5.94165C18.5024 6.69165 19.1234 7.31275 19.8734 7.31275ZM15.8422 10.9338C16.5922 10.9338 17.2133 10.3127 17.2133 9.56275C17.2133 8.81275 16.5922 8.19165 15.8422 8.19165C15.0805 8.19165 14.4711 8.81275 14.4711 9.56275C14.4711 10.3127 15.0805 10.9338 15.8422 10.9338ZM19.8734 10.9338C20.6234 10.9338 21.2445 10.3127 21.2445 9.56275C21.2445 8.81275 20.6234 8.19165 19.8734 8.19165C19.1234 8.19165 18.5024 8.81275 18.5024 9.56275C18.5024 10.3127 19.1234 10.9338 19.8734 10.9338ZM15.8422 14.5549C16.5922 14.5549 17.2133 13.9338 17.2133 13.1838C17.2133 12.4338 16.5922 11.8127 15.8422 11.8127C15.0805 11.8127 14.4711 12.4338 14.4711 13.1838C14.4711 13.9338 15.0805 14.5549 15.8422 14.5549ZM19.8734 14.5549C20.6234 14.5549 21.2445 13.9338 21.2445 13.1838C21.2445 12.4338 20.6234 11.8127 19.8734 11.8127C19.1234 11.8127 18.5024 12.4338 18.5024 13.1838C18.5024 13.9338 19.1234 14.5549 19.8734 14.5549Z" fill="black" fill-opacity="0.85"/>
</g>
<defs>
<clipPath id="clip0_2207_11946">
<rect width="25.7578" height="19.0195" fill="white" transform="translate(0.0335693 0.0588379)"/>
</clipPath>
</defs>
</svg>
