<svg width="21" height="30" viewBox="0 0 21 30" fill="none" xmlns="http://www.w3.org/2000/svg">
<g clip-path="url(#clip0_2207_4980)">
<path d="M8.14428 26.6955C13.0193 26.6955 16.2654 23.5197 16.2654 18.7619C16.2654 16.4182 15.3513 14.0861 14.6599 12.5276C13.406 9.70337 11.4373 6.5979 9.72631 3.94946C9.31616 3.32837 8.83569 2.96509 8.14428 2.96509C7.45288 2.96509 6.97241 3.32837 6.56225 3.94946C4.85131 6.5979 2.88257 9.70337 1.62866 12.5276C0.948974 14.0861 0.0231934 16.4182 0.0231934 18.7619C0.0231934 23.5197 3.26928 26.6955 8.14428 26.6955ZM16.488 7.219C18.492 7.219 20.0623 5.64868 20.0623 3.64478C20.0623 1.62915 18.492 0.0588379 16.488 0.0588379C14.4724 0.0588379 12.9021 1.62915 12.9021 3.64478C12.9021 5.64868 14.4724 7.219 16.488 7.219ZM16.488 5.56665C15.4099 5.56665 14.5544 4.7229 14.5544 3.64478C14.5544 2.55493 15.4099 1.71118 16.488 1.71118C17.5662 1.71118 18.4099 2.55493 18.4099 3.64478C18.4099 4.7229 17.5662 5.56665 16.488 5.56665Z" fill="black" fill-opacity="0.85"/>
</g>
<defs>
<clipPath id="clip0_2207_4980">
<rect width="20.0391" height="29.5664" fill="white" transform="translate(0.0231934 0.0588379)"/>
</clipPath>
</defs>
</svg>
