<svg width="17" height="24" viewBox="0 0 17 24" fill="none" xmlns="http://www.w3.org/2000/svg">
<g clip-path="url(#clip0_2207_5858)">
<path d="M8.30493 22.1604C14.0003 22.1604 15.137 16.7932 14.8909 14.1447C13.8479 14.8713 12.7229 16.1252 10.6018 16.1252C7.43774 16.1252 6.46508 13.6994 3.14868 13.6994C2.67993 13.6994 2.19946 13.758 1.63696 13.9104C0.933838 17.4963 2.5979 22.1604 8.30493 22.1604ZM8.15258 23.7893C13.0276 23.7893 16.2737 20.6135 16.2737 15.8557C16.2737 13.5119 15.3596 11.1799 14.6682 9.62134C13.4143 6.79712 11.4456 3.69165 9.73461 1.04321C9.32446 0.422119 8.84399 0.0588379 8.15258 0.0588379C7.46118 0.0588379 6.98071 0.422119 6.57055 1.04321C4.85961 3.69165 2.89087 6.79712 1.63696 9.62134C0.957275 11.1799 0.0314941 13.5119 0.0314941 15.8557C0.0314941 20.6135 3.27758 23.7893 8.15258 23.7893ZM8.15258 21.8674C4.42602 21.8674 1.95337 19.465 1.95337 15.8557C1.95337 13.9338 2.69165 12.0705 3.3479 10.5471C4.6604 7.46509 6.39477 4.93384 8.0354 2.46118C8.11743 2.344 8.21118 2.344 8.28149 2.46118C9.9104 4.93384 11.6565 7.46509 12.9456 10.5354C13.6135 12.0705 14.3635 13.9338 14.3635 15.8557C14.3635 19.465 11.8792 21.8674 8.15258 21.8674Z" fill="black" fill-opacity="0.85"/>
</g>
<defs>
<clipPath id="clip0_2207_5858">
<rect width="16.2422" height="23.7539" fill="white" transform="translate(0.0314941 0.0588379)"/>
</clipPath>
</defs>
</svg>
