<svg width="24" height="30" viewBox="0 0 24 30" fill="none" xmlns="http://www.w3.org/2000/svg">
<g clip-path="url(#clip0_2207_4990)">
<path d="M10.8629 26.6955C15.7379 26.6955 18.984 23.5197 18.984 18.7619C18.984 16.4182 18.0582 14.0861 17.3786 12.5276C16.1246 9.70337 14.1559 6.5979 12.445 3.94946C12.0348 3.32837 11.5426 2.96509 10.8629 2.96509C10.1598 2.96509 9.6911 3.32837 9.28094 3.94946C7.57 6.5979 5.60125 9.70337 4.34735 12.5276C3.65594 14.0861 2.74188 16.4182 2.74188 18.7619C2.74188 23.5197 5.98797 26.6955 10.8629 26.6955ZM19.195 7.219C21.2106 7.219 22.7809 5.64868 22.7809 3.64478C22.7809 1.62915 21.2106 0.0588379 19.195 0.0588379C17.1911 0.0588379 15.6207 1.62915 15.6207 3.64478C15.6207 5.64868 17.1911 7.219 19.195 7.219ZM19.195 5.56665C18.1168 5.56665 17.2731 4.7229 17.2731 3.64478C17.2731 2.55493 18.1168 1.71118 19.195 1.71118C20.2848 1.71118 21.1286 2.55493 21.1286 3.64478C21.1286 4.7229 20.2848 5.56665 19.195 5.56665Z" fill="black" fill-opacity="0.85"/>
<path d="M19.3473 26.7776C20.2379 27.6682 21.6911 27.6682 22.57 26.7541C23.4371 25.8635 23.4371 24.4572 22.5582 23.5666L3.91375 4.93384C3.03485 4.04322 1.58172 4.04322 0.6911 4.92212C-0.164369 5.77759 -0.222962 7.23072 0.6911 8.14478L19.3473 26.7776Z" fill="white"/>
<path d="M20.3082 25.8166C20.6715 26.1682 21.2457 26.1682 21.5856 25.8166C21.9371 25.4533 21.9489 24.8908 21.5856 24.5393L2.94109 5.89477C2.58952 5.54321 2.0153 5.54321 1.65202 5.89477C1.31218 6.24633 1.30046 6.82055 1.65202 7.17211L20.3082 25.8166Z" fill="black" fill-opacity="0.85"/>
</g>
<defs>
<clipPath id="clip0_2207_4990">
<rect width="23.1916" height="29.5664" fill="white" transform="translate(0.0273438 0.0588379)"/>
</clipPath>
</defs>
</svg>
