<svg width="30" height="18" viewBox="0 0 30 18" fill="none" xmlns="http://www.w3.org/2000/svg">
<g clip-path="url(#clip0_2207_2945)">
<path d="M1.71875 14.8127C2.66797 14.8127 3.39453 14.0861 3.39453 13.1604V4.30103C3.39453 3.36353 2.66797 2.62525 1.71875 2.62525C0.78125 2.62525 0.0546875 3.36353 0.0546875 4.30103V13.1604C0.0546875 14.0861 0.78125 14.8127 1.71875 14.8127ZM7.28516 17.4026C8.84375 17.4026 9.9336 16.3596 9.9336 14.883V2.59009C9.9336 1.10181 8.84375 0.0588379 7.28516 0.0588379C5.73828 0.0588379 4.64844 1.10181 4.64844 2.59009V14.883C4.64844 16.3596 5.73828 17.4026 7.28516 17.4026ZM11.293 10.9924H18.5703V6.469H11.293V10.9924ZM22.5781 17.4026C24.1367 17.4026 25.2266 16.3596 25.2266 14.883V2.59009C25.2266 1.10181 24.1367 0.0588379 22.5781 0.0588379C21.0313 0.0588379 19.9414 1.10181 19.9414 2.59009V14.883C19.9414 16.3596 21.0313 17.4026 22.5781 17.4026ZM28.0274 14.8127C28.9649 14.8127 29.7031 14.0861 29.7031 13.1604V4.30103C29.7031 3.36353 28.9649 2.62525 28.0274 2.62525C27.0899 2.62525 26.3633 3.36353 26.3633 4.30103V13.1604C26.3633 14.0861 27.0899 14.8127 28.0274 14.8127Z" fill="black" fill-opacity="0.85"/>
</g>
<defs>
<clipPath id="clip0_2207_2945">
<rect width="29.6484" height="17.3555" fill="white" transform="translate(0.0546875 0.0588379)"/>
</clipPath>
</defs>
</svg>
