<svg width="24" height="24" viewBox="0 0 24 24" fill="none" xmlns="http://www.w3.org/2000/svg">
<g clip-path="url(#clip0_2207_3507)">
<path d="M12.0393 23.965C18.5784 23.965 23.9924 18.5393 23.9924 12.0119C23.9924 5.4729 18.5667 0.0588379 12.0276 0.0588379C5.50024 0.0588379 0.0861816 5.4729 0.0861816 12.0119C0.0861816 18.5393 5.51196 23.965 12.0393 23.965ZM12.0393 21.9729C6.50806 21.9729 2.09009 17.5432 2.09009 12.0119C2.09009 6.48072 6.49634 2.05103 12.0276 2.05103C17.5589 2.05103 22.0003 6.48072 22.0003 12.0119C22.0003 17.5432 17.5706 21.9729 12.0393 21.9729Z" fill="black" fill-opacity="0.85"/>
<path d="M7.44556 16.84H16.6096C17.3362 16.84 17.7581 16.4533 17.7581 15.7385V15.0002C17.7581 14.2854 17.3362 13.8986 16.6096 13.8986H7.44556C6.71899 13.8986 6.29712 14.2854 6.29712 15.0002V15.7385C6.29712 16.4533 6.71899 16.84 7.44556 16.84ZM7.1643 12.4221H16.8792C17.3596 12.4221 17.6409 12.176 17.6409 11.7424C17.6409 11.5432 17.5354 11.344 17.3714 11.1565L12.7659 6.07056C12.5667 5.83618 12.3206 5.69556 12.0276 5.69556C11.7346 5.69556 11.4768 5.85962 11.2893 6.07056L6.67212 11.1565C6.49634 11.3322 6.40259 11.5432 6.4143 11.7424C6.44946 12.176 6.67212 12.4221 7.1643 12.4221Z" fill="black" fill-opacity="0.85"/>
</g>
<defs>
<clipPath id="clip0_2207_3507">
<rect width="23.9062" height="23.918" fill="white" transform="translate(0.0861816 0.0588379)"/>
</clipPath>
</defs>
</svg>
