<svg width="23" height="22" viewBox="0 0 23 22" fill="none" xmlns="http://www.w3.org/2000/svg">
<g clip-path="url(#clip0_2207_3499)">
<path d="M2.04101 13.4416H20.7207C21.7988 13.4416 22.3613 12.8908 22.3848 11.9533C22.3965 11.508 22.1738 11.051 21.8106 10.6526L13.0098 0.984619C12.5762 0.515869 12.0371 0.164307 11.3809 0.164307C10.7129 0.164307 10.209 0.492432 9.74023 0.984619L0.951172 10.6526C0.58789 11.051 0.376953 11.508 0.376953 11.9533C0.376953 12.8908 0.96289 13.4416 2.04101 13.4416ZM3.2832 11.6721C3.06054 11.6721 2.95507 11.5666 2.95507 11.4026C2.95507 11.3205 2.99023 11.2385 3.04882 11.1799L10.9942 2.54322C11.1231 2.41431 11.2168 2.32056 11.3809 2.32056C11.5449 2.32056 11.6504 2.41431 11.7676 2.54322L19.7012 11.1799C19.7715 11.2502 19.8067 11.3205 19.8067 11.4026C19.8067 11.5666 19.6895 11.6721 19.4785 11.6721H3.2832ZM2.60351 21.9846H20.1348C21.752 21.9846 22.6543 21.1408 22.6543 19.5588V18.2111C22.6543 16.6291 21.752 15.7854 20.1348 15.7854H2.60351C0.986328 15.7854 0.0839844 16.6174 0.0839844 18.2111V19.5588C0.0839844 21.1526 0.986328 21.9846 2.60351 21.9846ZM2.75586 20.2619C2.24023 20.2619 1.9707 19.9572 1.9707 19.4416V18.3283C1.9707 17.8127 2.24023 17.508 2.75586 17.508H19.9824C20.5098 17.508 20.7676 17.8127 20.7676 18.3283V19.4416C20.7676 19.9572 20.5098 20.2619 19.9824 20.2619H2.75586Z" fill="black" fill-opacity="0.85"/>
</g>
<defs>
<clipPath id="clip0_2207_3499">
<rect width="22.5703" height="21.9258" fill="white" transform="translate(0.0839844 0.0588379)"/>
</clipPath>
</defs>
</svg>
