<svg width="26" height="17" viewBox="0 0 26 17" fill="none" xmlns="http://www.w3.org/2000/svg">
<g clip-path="url(#clip0_2207_9981)">
<path d="M0.010498 13.0913C0.010498 15.3062 1.22925 16.4781 3.43238 16.4781H21.9597C24.1746 16.4781 25.3933 15.3062 25.3933 13.0913V3.42334C25.3933 1.22022 24.1746 0.0600586 21.9597 0.0600586H3.43238C1.22925 0.0600586 0.010498 1.22022 0.010498 3.42334V13.0913Z" fill="black" fill-opacity="0.85"/>
<path d="M18.3621 10.0093C17.3894 10.0093 16.6043 9.22412 16.6043 8.25147C16.6043 7.27881 17.3894 6.49365 18.3621 6.49365C19.3113 6.49365 20.1199 7.27881 20.1199 8.25147C20.1199 9.22412 19.3113 10.0093 18.3621 10.0093Z" fill="white"/>
<path d="M12.7136 10.0093C11.741 10.0093 10.9558 9.22412 10.9558 8.25147C10.9558 7.27881 11.741 6.49365 12.7136 6.49365C13.6863 6.49365 14.4714 7.27881 14.4714 8.25147C14.4714 9.22412 13.6863 10.0093 12.7136 10.0093Z" fill="white"/>
<path d="M7.07691 10.0093C6.11597 10.0093 5.31909 9.22412 5.31909 8.25147C5.31909 7.27881 6.11597 6.49365 7.07691 6.49365C8.02612 6.49365 8.823 7.27881 8.823 8.25147C8.823 9.22412 8.03784 10.0093 7.07691 10.0093Z" fill="white"/>
</g>
<defs>
<clipPath id="clip0_2207_9981">
<rect width="25.3828" height="16.418" fill="white" transform="translate(0.010498 0.0600586)"/>
</clipPath>
</defs>
</svg>
