<svg width="26" height="26" viewBox="0 0 26 26" fill="none" xmlns="http://www.w3.org/2000/svg">
<g id="ellipsis.bubble" clip-path="url(#clip0_2201_434)">
<g id="Group">
<path id="Vector" d="M7.20703 25.7461C7.78125 25.7461 8.17969 25.4414 8.89453 24.8086L12.9375 21.2109H20.4609C23.9531 21.2109 25.8281 19.2773 25.8281 15.8438V6.86719C25.8281 3.43359 23.9531 1.5 20.4609 1.5H5.36719C1.875 1.5 0 3.42188 0 6.86719V15.8438C0 19.2891 1.875 21.2109 5.36719 21.2109H5.92969V24.2578C5.92969 25.1602 6.38672 25.7461 7.20703 25.7461ZM7.6875 23.6016V20.2031C7.6875 19.5703 7.44141 19.3242 6.80859 19.3242H5.36719C3 19.3242 1.88672 18.1172 1.88672 15.832V6.86719C1.88672 4.58203 3 3.38672 5.36719 3.38672H20.4609C22.8164 3.38672 23.9414 4.58203 23.9414 6.86719V15.832C23.9414 18.1172 22.8164 19.3242 20.4609 19.3242H12.8672C12.2109 19.3242 11.8828 19.418 11.4375 19.875L7.6875 23.6016Z" fill="black" fill-opacity="0.85"/>
<path id="Vector_2" d="M18.6562 13.0312C19.582 13.0312 20.332 12.2812 20.332 11.3555C20.332 10.4297 19.582 9.67969 18.6562 9.67969C17.7305 9.67969 16.9805 10.4297 16.9805 11.3555C16.9805 12.2812 17.7305 13.0312 18.6562 13.0312Z" fill="black" fill-opacity="0.85"/>
<path id="Vector_3" d="M12.9258 13.0312C13.8398 13.0312 14.6016 12.2812 14.6016 11.3555C14.6016 10.4297 13.8398 9.67969 12.9258 9.67969C12 9.67969 11.2383 10.4297 11.2383 11.3555C11.2383 12.2812 12 13.0312 12.9258 13.0312Z" fill="black" fill-opacity="0.85"/>
<path id="Vector_4" d="M7.18359 13.0312C8.10938 13.0312 8.85938 12.2812 8.85938 11.3555C8.85938 10.4297 8.10938 9.67969 7.18359 9.67969C6.25781 9.67969 5.50781 10.4297 5.50781 11.3555C5.50781 12.2812 6.25781 13.0312 7.18359 13.0312Z" fill="black" fill-opacity="0.85"/>
</g>
</g>
<defs>
<clipPath id="clip0_2201_434">
<rect width="25.8281" height="25.7461" fill="white"/>
</clipPath>
</defs>
</svg>
