<svg width="27" height="25" viewBox="0 0 27 25" fill="none" xmlns="http://www.w3.org/2000/svg">
<g clip-path="url(#clip0_2207_9069)">
<path d="M4.64697 24.4937C6.05323 24.4937 9.55713 22.9585 11.5493 21.5289C11.7485 21.3882 11.9125 21.3296 12.0766 21.3296C12.229 21.3413 12.3813 21.3531 12.5336 21.3531C20.9829 21.3531 26.5844 16.5484 26.5844 10.7124C26.5844 4.81787 20.6782 0.0600586 13.2954 0.0600586C5.9126 0.0600586 0.00634766 4.81787 0.00634766 10.7124C0.00634766 14.4624 2.31494 17.7554 6.07666 19.771C6.25244 19.8648 6.31104 20.0406 6.21729 20.2163C5.56104 21.2945 4.38916 22.5835 3.94385 23.1695C3.48682 23.7554 3.74463 24.4937 4.64697 24.4937Z" fill="black" fill-opacity="0.85"/>
<path d="M18.9438 12.5757C17.9711 12.5757 17.186 11.7906 17.186 10.8179C17.186 9.84522 17.9711 9.06006 18.9438 9.06006C19.893 9.06006 20.7016 9.84522 20.7016 10.8179C20.7016 11.7906 19.893 12.5757 18.9438 12.5757Z" fill="white"/>
<path d="M13.2954 12.5757C12.3227 12.5757 11.5375 11.7906 11.5375 10.8179C11.5375 9.84522 12.3227 9.06006 13.2954 9.06006C14.268 9.06006 15.0532 9.84522 15.0532 10.8179C15.0532 11.7906 14.268 12.5757 13.2954 12.5757Z" fill="white"/>
<path d="M7.65869 12.5757C6.69776 12.5757 5.90088 11.7906 5.90088 10.8179C5.90088 9.84522 6.69776 9.06006 7.65869 9.06006C8.60791 9.06006 9.40479 9.84522 9.40479 10.8179C9.40479 11.7906 8.61963 12.5757 7.65869 12.5757Z" fill="white"/>
</g>
<defs>
<clipPath id="clip0_2207_9069">
<rect width="26.5781" height="24.4336" fill="white" transform="translate(0.00634766 0.0600586)"/>
</clipPath>
</defs>
</svg>
