<svg width="30" height="25" viewBox="0 0 30 25" fill="none" xmlns="http://www.w3.org/2000/svg">
<g clip-path="url(#clip0_2207_23020)">
<path d="M0.00219727 12.1656C0.00219727 12.8453 0.388916 13.3257 1.19751 13.4546C2.65064 13.6773 3.22486 14.4156 3.22486 16.3023V19.5953C3.22486 22.7828 4.67798 24.2828 7.84204 24.2828C8.02954 24.2828 8.22876 24.2476 8.36939 24.2007C8.73267 24.0484 8.93189 23.7554 8.93189 23.3687C8.93189 22.9117 8.73267 22.6773 8.32251 22.5718C8.20532 22.5484 8.08814 22.5249 7.94751 22.5132C5.97876 22.3726 5.26392 21.5289 5.26392 19.3609V15.4703C5.26392 13.4898 4.22095 12.3882 2.39282 12.2124C2.35767 12.2124 2.35767 12.1656 2.39282 12.1656C4.22095 11.9898 5.26392 10.8882 5.26392 8.90772V5.00537C5.26392 2.82568 5.97876 2.00537 7.94751 1.86475C8.13501 1.85303 8.29908 1.82959 8.41626 1.78272C8.75611 1.66553 8.93189 1.40772 8.93189 0.997559C8.93189 0.587403 8.72095 0.306153 8.32251 0.165528C8.14673 0.106934 7.95923 0.0834961 7.72486 0.0834961C4.66626 0.0834961 3.22486 1.60694 3.22486 4.771V8.07568C3.22486 9.93897 2.65064 10.689 1.19751 10.9117C0.388916 11.0406 0.00219727 11.4976 0.00219727 12.1656ZM29.4514 12.1656C29.4514 11.4976 29.053 11.0406 28.2444 10.9117C26.803 10.689 26.217 9.93897 26.217 8.07568V4.771C26.217 1.60694 24.7756 0.0834961 21.717 0.0834961C21.4827 0.0834961 21.3069 0.106934 21.1311 0.165528C20.7327 0.306153 20.51 0.587403 20.51 0.997559C20.51 1.40772 20.6975 1.66553 21.0374 1.78272C21.1545 1.82959 21.3069 1.85303 21.4944 1.86475C23.4631 2.00537 24.1897 2.82568 24.1897 5.00537V8.90772C24.1897 10.8882 25.221 11.9898 27.0491 12.1656C27.0842 12.1656 27.0842 12.2124 27.0491 12.2124C25.221 12.3882 24.1897 13.4898 24.1897 15.4703V19.3609C24.1897 21.5289 23.4631 22.3726 21.4944 22.5132C21.3538 22.5249 21.2483 22.5484 21.1311 22.5718C20.721 22.6773 20.51 22.9117 20.51 23.3687C20.51 23.7554 20.721 24.0484 21.0842 24.2007C21.2249 24.2476 21.4124 24.2828 21.5999 24.2828C24.7639 24.2828 26.217 22.7828 26.217 19.5953V16.3023C26.217 14.4156 26.803 13.6773 28.2444 13.4546C29.053 13.3257 29.4514 12.8453 29.4514 12.1656Z" fill="black" fill-opacity="0.85"/>
<path d="M20.1819 13.853C21.1194 13.853 21.8811 13.0912 21.8811 12.1655C21.8811 11.228 21.1194 10.4662 20.1819 10.4662C19.2444 10.4662 18.4827 11.228 18.4827 12.1655C18.4827 13.0912 19.2444 13.853 20.1819 13.853Z" fill="black" fill-opacity="0.85"/>
<path d="M14.7092 13.853C15.6467 13.853 16.4084 13.0912 16.4084 12.1655C16.4084 11.228 15.6467 10.4662 14.7092 10.4662C13.7834 10.4662 13.0217 11.228 13.0217 12.1655C13.0217 13.0912 13.7834 13.853 14.7092 13.853Z" fill="black" fill-opacity="0.85"/>
<path d="M9.24828 13.853C10.1858 13.853 10.9475 13.0912 10.9475 12.1655C10.9475 11.228 10.1741 10.4662 9.24828 10.4662C8.31078 10.4662 7.54907 11.228 7.54907 12.1655C7.54907 13.0912 8.31078 13.853 9.24828 13.853Z" fill="black" fill-opacity="0.85"/>
</g>
<defs>
<clipPath id="clip0_2207_23020">
<rect width="29.4492" height="24.2227" fill="white" transform="translate(0.00219727 0.0600586)"/>
</clipPath>
</defs>
</svg>
