<svg width="26" height="26" viewBox="0 0 26 26" fill="none" xmlns="http://www.w3.org/2000/svg">
<g clip-path="url(#clip0_2207_9279)">
<path d="M6.97559 25.9468C7.43262 25.9468 7.77246 25.7124 8.32324 25.1968L12.5537 21.3296H20.4755C23.9677 21.3296 25.8427 19.4078 25.8427 15.9742V6.99756C25.8427 3.56397 23.9677 1.63037 20.4755 1.63037H5.38184C1.88965 1.63037 0.0146484 3.55225 0.0146484 6.99756V15.9742C0.0146484 19.4195 1.88965 21.3296 5.38184 21.3296H5.93262V24.7398C5.93262 25.4663 6.30762 25.9468 6.97559 25.9468Z" fill="black" fill-opacity="0.85"/>
<path d="M12.9404 8.15772C12.0146 8.15772 11.2763 7.40772 11.2763 6.49365C11.2763 5.57959 12.0146 4.82959 12.9404 4.82959C13.8662 4.82959 14.6044 5.57959 14.6044 6.49365C14.6044 7.40772 13.8662 8.15772 12.9404 8.15772Z" fill="white"/>
<path d="M12.9404 13.1499C12.0146 13.1499 11.2763 12.4117 11.2763 11.4859C11.2763 10.5601 12.0146 9.82178 12.9404 9.82178C13.8662 9.82178 14.6044 10.5601 14.6044 11.4859C14.6044 12.4117 13.8662 13.1499 12.9404 13.1499Z" fill="white"/>
<path d="M12.9404 18.1304C12.0146 18.1304 11.2763 17.3921 11.2763 16.4781C11.2763 15.5523 12.0146 14.814 12.9404 14.814C13.8662 14.814 14.6044 15.5523 14.6044 16.4781C14.6044 17.3921 13.8662 18.1304 12.9404 18.1304Z" fill="white"/>
</g>
<defs>
<clipPath id="clip0_2207_9279">
<rect width="25.8281" height="25.8867" fill="white" transform="translate(0.0146484 0.0600586)"/>
</clipPath>
</defs>
</svg>
