<svg width="27" height="25" viewBox="0 0 27 25" fill="none" xmlns="http://www.w3.org/2000/svg">
<g clip-path="url(#clip0_2207_9062)">
<path d="M5.09009 24.6109C6.67212 24.6109 9.90649 23.0171 12.2854 21.3179C20.4534 21.5406 26.5823 16.8531 26.5823 10.7124C26.5823 4.81787 20.6761 0.0600586 13.2933 0.0600586C5.9104 0.0600586 0.00415039 4.81787 0.00415039 10.7124C0.00415039 14.5562 2.46509 17.9663 6.16821 19.6773C5.64087 20.6968 4.65649 22.0796 4.12915 22.771C3.50806 23.5913 3.88306 24.6109 5.09009 24.6109ZM6.32056 22.6656C6.22681 22.7007 6.19165 22.6304 6.25024 22.5484C6.90649 21.7398 7.84399 20.521 8.24243 19.771C8.57056 19.1617 8.48853 18.6226 7.73853 18.271C4.05884 16.5601 1.94946 13.8296 1.94946 10.7124C1.94946 5.90772 6.97681 1.99365 13.2933 1.99365C19.6213 1.99365 24.6487 5.90772 24.6487 10.7124C24.6487 15.5054 19.6213 19.4195 13.2933 19.4195C13.0589 19.4195 12.6956 19.4078 12.2269 19.396C11.7347 19.396 11.3597 19.5484 10.9144 19.8999C9.4729 20.9429 7.38696 22.232 6.32056 22.6656Z" fill="black" fill-opacity="0.85"/>
<path d="M18.7659 12.5171C19.7034 12.5171 20.465 11.7554 20.465 10.8179C20.465 9.88037 19.7034 9.11865 18.7659 9.11865C17.8284 9.11865 17.0667 9.88037 17.0667 10.8179C17.0667 11.7554 17.8284 12.5171 18.7659 12.5171Z" fill="black" fill-opacity="0.85"/>
<path d="M13.2933 12.5171C14.2308 12.5171 14.9925 11.7554 14.9925 10.8179C14.9925 9.88037 14.2308 9.11865 13.2933 9.11865C12.3558 9.11865 11.594 9.88037 11.594 10.8179C11.594 11.7554 12.3558 12.5171 13.2933 12.5171Z" fill="black" fill-opacity="0.85"/>
<path d="M7.83227 12.5171C8.75806 12.5171 9.51977 11.7554 9.51977 10.8179C9.51977 9.88037 8.74634 9.11865 7.83227 9.11865C6.89477 9.11865 6.13306 9.88037 6.13306 10.8179C6.13306 11.7554 6.89477 12.5171 7.83227 12.5171Z" fill="black" fill-opacity="0.85"/>
</g>
<defs>
<clipPath id="clip0_2207_9062">
<rect width="26.5781" height="24.5508" fill="white" transform="translate(0.00415039 0.0600586)"/>
</clipPath>
</defs>
</svg>
