<svg width="24" height="24" viewBox="0 0 24 24" fill="none" xmlns="http://www.w3.org/2000/svg">
<g clip-path="url(#clip0_2207_9726)">
<path d="M12.0078 23.9663C18.5469 23.9663 23.9609 18.5406 23.9609 12.0132C23.9609 5.47412 18.5352 0.0600586 11.9961 0.0600586C5.46875 0.0600586 0.0546875 5.47412 0.0546875 12.0132C0.0546875 18.5406 5.48047 23.9663 12.0078 23.9663ZM12.0078 21.9742C6.47657 21.9742 2.0586 17.5445 2.0586 12.0132C2.0586 6.48194 6.46485 2.05225 11.9961 2.05225C17.5274 2.05225 21.9688 6.48194 21.9688 12.0132C21.9688 17.5445 17.5391 21.9742 12.0078 21.9742Z" fill="black" fill-opacity="0.85"/>
<path d="M11.9961 12.6343C12.1836 12.6343 12.3594 12.564 12.5352 12.3999L18.3125 7.31396C17.9844 7.11474 17.6328 7.03271 17.1641 7.03271H6.83985C6.34766 7.03271 6.00781 7.11474 5.69141 7.31396L11.457 12.3999C11.6328 12.564 11.8203 12.6343 11.9961 12.6343ZM5.17578 16.0445L9.41797 11.7789L5.15235 8.01708C5.09375 8.13427 5.02344 8.43896 5.02344 8.81396V15.2124C5.02344 15.564 5.08203 15.8218 5.17578 16.0445ZM6.66407 16.9937H17.3281C17.7383 16.9937 18.0547 16.8882 18.2774 16.7476L13.8945 12.3765L13.0742 13.1148C12.7344 13.4078 12.3594 13.5484 11.9961 13.5484C11.6328 13.5484 11.2578 13.4078 10.9297 13.1148L10.0977 12.3765L5.71485 16.7476C5.9375 16.8882 6.25391 16.9937 6.66407 16.9937ZM18.8281 16.0328C18.9102 15.8218 18.957 15.564 18.957 15.2124V8.81396C18.957 8.43896 18.8985 8.14599 18.8399 8.01708L14.5625 11.7789L18.8281 16.0328Z" fill="black" fill-opacity="0.85"/>
</g>
<defs>
<clipPath id="clip0_2207_9726">
<rect width="23.9062" height="23.918" fill="white" transform="translate(0.0546875 0.0600586)"/>
</clipPath>
</defs>
</svg>
