<svg width="24" height="24" viewBox="0 0 24 24" fill="none" xmlns="http://www.w3.org/2000/svg">
<g id="envelope.circle.fill" clip-path="url(#clip0_2201_907)">
<g id="Group">
<path id="Vector" d="M11.9531 23.918C18.4922 23.918 23.9062 18.5039 23.9062 11.9648C23.9062 5.4375 18.4805 0.0117188 11.9414 0.0117188C5.41406 0.0117188 0 5.4375 0 11.9648C0 18.5039 5.42578 23.918 11.9531 23.918Z" fill="black" fill-opacity="0.85"/>
<path id="Vector_2" d="M11.9531 12.5977C11.7773 12.5977 11.5781 12.5273 11.4023 12.3633L5.44922 7.11328C5.77734 6.91406 6.12891 6.83203 6.63281 6.83203H17.2852C17.7656 6.83203 18.1289 6.92578 18.4688 7.125L12.5039 12.3633C12.3281 12.5273 12.1406 12.5977 11.9531 12.5977ZM4.92188 16.125C4.81641 15.8906 4.75781 15.6328 4.75781 15.2578V8.67188C4.75781 8.28516 4.83984 7.98047 4.89844 7.85156L9.29297 11.7305L4.92188 16.125ZM6.45703 17.0977C6.03516 17.0977 5.70703 17.0039 5.47266 16.8516L9.99609 12.3398L10.8516 13.1016C11.1914 13.4062 11.5781 13.5586 11.9531 13.5586C12.3281 13.5586 12.7148 13.4062 13.0664 13.1016L13.9102 12.3398L18.4336 16.8516C18.1992 16.9922 17.8711 17.0977 17.4492 17.0977H6.45703ZM18.9961 16.125L14.6016 11.7305L19.0078 7.86328C19.0664 7.98047 19.1367 8.28516 19.1367 8.67188V15.2578C19.1367 15.6211 19.0898 15.8906 18.9961 16.125Z" fill="white"/>
</g>
</g>
<defs>
<clipPath id="clip0_2201_907">
<rect width="23.9062" height="23.918" fill="white"/>
</clipPath>
</defs>
</svg>
