<svg width="24" height="24" viewBox="0 0 24 24" fill="none" xmlns="http://www.w3.org/2000/svg">
<g clip-path="url(#clip0_2207_9731)">
<path d="M12.0097 23.9781C18.5488 23.9781 23.9628 18.564 23.9628 12.0249C23.9628 5.49756 18.5371 0.0717773 11.998 0.0717773C5.4707 0.0717773 0.0566406 5.49756 0.0566406 12.0249C0.0566406 18.564 5.48242 23.9781 12.0097 23.9781Z" fill="black" fill-opacity="0.85"/>
<path d="M12.0097 12.6578C11.8339 12.6578 11.6347 12.5874 11.4589 12.4234L5.50586 7.17334C5.83398 6.97412 6.18555 6.89209 6.68945 6.89209H17.3418C17.8222 6.89209 18.1855 6.98584 18.5254 7.18506L12.5605 12.4234C12.3847 12.5874 12.1972 12.6578 12.0097 12.6578ZM4.97852 16.1851C4.87305 15.9507 4.81445 15.6929 4.81445 15.3179V8.73194C4.81445 8.34522 4.89648 8.04053 4.95508 7.91162L9.34961 11.7906L4.97852 16.1851ZM6.51367 17.1578C6.0918 17.1578 5.76367 17.064 5.5293 16.9117L10.0527 12.3999L10.9082 13.1617C11.248 13.4663 11.6347 13.6187 12.0097 13.6187C12.3847 13.6187 12.7714 13.4663 13.123 13.1617L13.9668 12.3999L18.4902 16.9117C18.2558 17.0523 17.9277 17.1578 17.5058 17.1578H6.51367ZM19.0527 16.1851L14.6582 11.7906L19.0644 7.92334C19.123 8.04053 19.1933 8.34522 19.1933 8.73194V15.3179C19.1933 15.6812 19.1464 15.9507 19.0527 16.1851Z" fill="white"/>
</g>
<defs>
<clipPath id="clip0_2207_9731">
<rect width="23.9062" height="23.918" fill="white" transform="translate(0.0566406 0.0600586)"/>
</clipPath>
</defs>
</svg>
