<svg width="22" height="22" viewBox="0 0 22 22" fill="none" xmlns="http://www.w3.org/2000/svg">
<g clip-path="url(#clip0_2207_22939)">
<path d="M3.75318 21.6578H17.968C20.429 21.6578 21.6477 20.439 21.6477 18.0249V3.71631C21.6477 1.30225 20.429 0.0834961 17.968 0.0834961H3.75318C1.30396 0.0834961 0.0734863 1.29053 0.0734863 3.71631V18.0249C0.0734863 20.4507 1.30396 21.6578 3.75318 21.6578ZM3.77661 19.771C2.60474 19.771 1.96021 19.1499 1.96021 17.9312V3.81006C1.96021 2.59131 2.60474 1.97022 3.77661 1.97022H17.9446C19.1047 1.97022 19.761 2.59131 19.761 3.81006V17.9312C19.761 19.1499 19.1047 19.771 17.9446 19.771H3.77661Z" fill="black" fill-opacity="0.85"/>
<path d="M6.44848 13.9234H15.2727C15.8704 13.9234 16.2805 13.6304 16.2805 13.0445C16.2805 12.4468 15.8938 12.1421 15.2727 12.1421H6.44848C5.82739 12.1421 5.42896 12.4468 5.42896 13.0445C5.42896 13.6304 5.85082 13.9234 6.44848 13.9234ZM6.44848 9.59912H15.2727C15.8704 9.59912 16.2805 9.30615 16.2805 8.7085C16.2805 8.11084 15.8938 7.80615 15.2727 7.80615H6.44848C5.82739 7.80615 5.42896 8.11084 5.42896 8.7085C5.42896 9.30615 5.85082 9.59912 6.44848 9.59912Z" fill="black" fill-opacity="0.85"/>
</g>
<defs>
<clipPath id="clip0_2207_22939">
<rect width="21.5742" height="21.5977" fill="white" transform="translate(0.0734863 0.0600586)"/>
</clipPath>
</defs>
</svg>
