<svg width="24" height="24" viewBox="0 0 24 24" fill="none" xmlns="http://www.w3.org/2000/svg">
<g clip-path="url(#clip0_2207_22929)">
<path d="M12.0224 23.9663C18.5615 23.9663 23.9755 18.5406 23.9755 12.0132C23.9755 5.47412 18.5498 0.0600586 12.0107 0.0600586C5.4834 0.0600586 0.0693359 5.47412 0.0693359 12.0132C0.0693359 18.5406 5.49512 23.9663 12.0224 23.9663ZM12.0224 21.9742C6.49122 21.9742 2.07325 17.5445 2.07325 12.0132C2.07325 6.48194 6.4795 2.05225 12.0107 2.05225C17.542 2.05225 21.9834 6.48194 21.9834 12.0132C21.9834 17.5445 17.5537 21.9742 12.0224 21.9742Z" fill="black" fill-opacity="0.85"/>
<path d="M7.59277 15.0835H16.417C17.0146 15.0835 17.4248 14.7906 17.4248 14.2046C17.4248 13.607 17.0381 13.3023 16.417 13.3023H7.59277C6.95995 13.3023 6.57324 13.607 6.57324 14.2046C6.57324 14.7906 6.98339 15.0835 7.59277 15.0835ZM7.59277 10.7593H16.417C17.0146 10.7593 17.4248 10.4663 17.4248 9.86865C17.4248 9.271 17.0381 8.96631 16.417 8.96631H7.59277C6.95995 8.96631 6.57324 9.271 6.57324 9.86865C6.57324 10.4663 6.98339 10.7593 7.59277 10.7593Z" fill="black" fill-opacity="0.85"/>
</g>
<defs>
<clipPath id="clip0_2207_22929">
<rect width="23.9062" height="23.918" fill="white" transform="translate(0.0693359 0.0600586)"/>
</clipPath>
</defs>
</svg>
