<svg width="24" height="24" viewBox="0 0 24 24" fill="none" xmlns="http://www.w3.org/2000/svg">
<g clip-path="url(#clip0_2207_3329)">
<path d="M12.0276 23.9557C18.5667 23.9557 23.9807 18.5299 23.9807 12.0025C23.9807 5.46344 18.637 0.213441 12.3206 0.0610971C11.6409 0.0376596 11.1253 0.41266 11.1253 1.01032C11.1253 1.54938 11.5003 2.00641 12.18 2.02985C17.676 2.20563 21.9768 6.47125 21.9885 12.0025C22.0003 17.5338 17.5589 21.9635 12.0276 21.9635C6.26196 21.9635 2.07837 17.2994 2.07837 11.9674C2.07837 11.2877 1.5979 10.9127 1.05884 10.9127C0.461182 10.9127 0.0861816 11.4166 0.0861816 12.108C0.0979004 18.5065 5.50024 23.9557 12.0276 23.9557Z" fill="black" fill-opacity="0.85"/>
<path d="M11.1721 12.4479C11.7698 12.4479 12.2034 12.0025 12.2034 11.4166C12.2034 11.1471 12.0862 10.8658 11.8753 10.6549L5.75806 4.54938L3.50806 2.54547C4.80884 2.70954 6.44946 2.69782 7.02368 2.69782C7.55102 2.69782 7.9729 2.26422 7.9729 1.73688C7.9729 1.20954 7.55102 0.787659 7.02368 0.787659H1.76196C0.988525 0.787659 0.56665 1.19782 0.56665 1.97125V7.23297C0.56665 7.76032 1.00024 8.18219 1.51587 8.18219C2.03149 8.18219 2.45337 7.76032 2.45337 7.23297C2.45337 6.68219 2.45337 4.92438 2.33618 3.71735L4.31665 5.97907L10.4339 12.108C10.6565 12.3307 10.9026 12.4479 11.1721 12.4479Z" fill="black" fill-opacity="0.85"/>
</g>
<defs>
<clipPath id="clip0_2207_3329">
<rect width="23.8945" height="23.8966" fill="white" transform="translate(0.0861816 0.0600586)"/>
</clipPath>
</defs>
</svg>
