<svg width="22" height="22" viewBox="0 0 22 22" fill="none" xmlns="http://www.w3.org/2000/svg">
<g clip-path="url(#clip0_2207_26253)">
<path d="M3.69019 21.6592H17.905C20.366 21.6592 21.5847 20.4404 21.5847 18.0263V3.71777C21.5847 1.30371 20.366 0.0849609 17.905 0.0849609H3.69019C1.24097 0.0849609 0.010498 1.29199 0.010498 3.71777V18.0263C0.010498 20.4521 1.24097 21.6592 3.69019 21.6592Z" fill="black" fill-opacity="0.85"/>
<path d="M5.48316 15.7295C4.92066 15.7295 4.65112 15.3427 4.65112 14.8388V6.8584C4.65112 6.33105 4.93238 5.96777 5.48316 5.96777H9.11597C9.56128 5.96777 9.87769 6.2373 9.87769 6.6709C9.87769 7.1748 9.51441 7.39746 9.11597 7.39746H6.37378V10.1045H9.0105C9.40894 10.1045 9.67847 10.3154 9.67847 10.7842C9.67847 11.2295 9.39722 11.4521 9.0105 11.4521H6.37378V14.3115H9.11597C9.51441 14.3115 9.87769 14.5342 9.87769 15.0263C9.87769 15.4717 9.573 15.7295 9.11597 15.7295H5.48316ZM12.0339 15.7295C11.5417 15.7295 11.1785 15.4248 11.1785 14.9209C11.1785 14.6631 11.2722 14.3818 11.3543 14.2177L15.1394 7.45605V7.39746H11.9402C11.5066 7.39746 11.1902 7.11621 11.1902 6.68261C11.1902 6.26074 11.5066 5.96777 11.9402 5.96777H16.1472C16.6043 5.96777 17.0144 6.2373 17.0144 6.82324C17.0144 7.12793 16.9324 7.31543 16.8152 7.50293L13.1003 14.1826V14.3115H16.4753C16.9089 14.3115 17.1785 14.5927 17.1785 15.0146C17.1785 15.4248 16.9089 15.7295 16.4753 15.7295H12.0339Z" fill="white"/>
</g>
<defs>
<clipPath id="clip0_2207_26253">
<rect width="21.5742" height="21.5977" fill="white" transform="translate(0.010498 0.0615234)"/>
</clipPath>
</defs>
</svg>
