<svg width="27" height="20" viewBox="0 0 27 20" fill="none" xmlns="http://www.w3.org/2000/svg">
<g clip-path="url(#clip0_2207_26234)">
<path d="M1.17408 19.8545H9.55298C10.1975 19.8545 10.6428 19.4443 10.6428 18.8115C10.6428 18.1787 10.1741 17.7568 9.55298 17.7568H2.38111V10.749H9.20142C9.85767 10.749 10.2327 10.3037 10.2327 9.75293C10.2327 9.14355 9.81079 8.7334 9.20142 8.7334H2.38111V2.15918H9.55298C10.1741 2.15918 10.6428 1.76074 10.6428 1.11621C10.6428 0.471679 10.1975 0.0615234 9.55298 0.0615234H1.17408C0.529541 0.0615234 0.00219727 0.483398 0.00219727 1.31543V18.6123C0.00219727 19.4443 0.529541 19.8545 1.17408 19.8545ZM14.885 19.8545H25.1272C25.76 19.8545 26.1702 19.456 26.1702 18.8115C26.1702 18.167 25.76 17.7451 25.1272 17.7451H16.467V17.6396L25.5608 2.31152C25.7366 2.01855 25.9124 1.70214 25.9124 1.28027C25.9124 0.530273 25.4084 0.0615234 24.6467 0.0615234H14.8499C14.217 0.0615234 13.7717 0.506835 13.7717 1.11621C13.7717 1.7373 14.217 2.1709 14.8499 2.1709H23.135V2.25293L13.9827 17.6045C13.7717 17.956 13.6545 18.249 13.6545 18.6592C13.6545 19.374 14.1467 19.8545 14.885 19.8545Z" fill="black" fill-opacity="0.85"/>
</g>
<defs>
<clipPath id="clip0_2207_26234">
<rect width="26.168" height="19.8164" fill="white" transform="translate(0.00219727 0.0615234)"/>
</clipPath>
</defs>
</svg>
