<svg width="37" height="27" viewBox="0 0 37 27" fill="none" xmlns="http://www.w3.org/2000/svg">
<g clip-path="url(#clip0_2207_15602)">
<path d="M26.9824 25.3271V3.03808C26.9824 1.11621 25.9277 0.0615234 24.0059 0.0615234H13.377C11.4434 0.0615234 10.4238 1.11621 10.4238 3.03808V25.3271H12.3106V3.06152C12.3106 2.33496 12.6621 1.94824 13.4121 1.94824H23.9824C24.6973 1.94824 25.084 2.32324 25.084 3.06152V25.3271H26.9824ZM8.57232 25.2451C8.57232 25.7724 8.98248 26.206 9.4981 26.206H27.8848C28.4004 26.206 28.834 25.7724 28.834 25.2451C28.834 24.7412 28.4004 24.3193 27.8848 24.3193H9.4981C8.9942 24.3193 8.57232 24.7295 8.57232 25.2451ZM14.9473 12.9638H22.4473C23.2207 12.9638 23.7598 12.4951 23.7598 11.7803V4.67871C23.7598 3.96386 23.209 3.47168 22.4473 3.47168H14.9473C14.1738 3.47168 13.6465 3.96386 13.6465 4.67871V11.7803C13.6465 12.4951 14.1738 12.9638 14.9473 12.9638ZM30.3457 7.77246H31.6699L31.6816 5.15918C31.6816 4.7959 31.377 4.49121 31.0137 4.49121C30.6387 4.49121 30.3457 4.7959 30.3457 5.15918V7.77246ZM34.7637 7.77246V5.15918C34.7637 4.7959 34.4707 4.49121 34.084 4.49121C33.7324 4.49121 33.4277 4.7959 33.4277 5.15918V7.77246H34.7637ZM26.4435 15.4951H27.0996C27.6387 15.4951 27.9785 15.7998 27.9785 16.3857V20.2646C27.9785 21.9287 28.9746 22.9365 30.6387 22.9365C32.3027 22.9365 33.2988 21.9287 33.2988 20.2646V14.206C33.2988 13.0459 34.166 12.7177 34.7169 12.2959C35.5606 11.6631 36.0176 10.7842 36.0176 9.74121V7.9834C36.0176 7.70214 35.8535 7.53808 35.5957 7.53808H29.3496C29.0918 7.53808 28.9277 7.70214 28.9277 7.9834V9.74121C28.9277 10.7842 29.3848 11.6631 30.2285 12.2959C30.7794 12.7177 31.6465 13.0459 31.6465 14.206V20.2646C31.6465 20.8974 31.2598 21.2842 30.6387 21.2842C30.0059 21.2842 29.631 20.8974 29.631 20.2646V16.3857C29.631 14.7685 28.6699 13.8427 27.0996 13.8427H26.4435V15.4951Z" fill="black" fill-opacity="0.85"/>
<path d="M0.357478 12.5654C-0.0878346 12.8232 -0.111272 13.4443 0.357478 13.7138L6.38092 17.2646C6.8731 17.5576 7.44732 17.3232 7.44732 16.8193V9.43649C7.44732 8.9443 6.83795 8.72166 6.38092 8.99119L0.357478 12.5654Z" fill="black" fill-opacity="0.85"/>
</g>
<defs>
<clipPath id="clip0_2207_15602">
<rect width="36.003" height="26.1445" fill="white" transform="translate(0.0146484 0.0615234)"/>
</clipPath>
</defs>
</svg>
