<svg width="21" height="30" viewBox="0 0 21 30" fill="none" xmlns="http://www.w3.org/2000/svg">
<g clip-path="url(#clip0_2207_17768)">
<path d="M10.072 17.2529C15.0759 17.2529 19.0252 13.3154 19.0252 8.58105C19.0252 6.1084 17.9353 3.83496 16.3767 2.3584C15.7205 1.7373 14.9822 1.45605 13.9978 1.45605H6.13452C5.16187 1.45605 4.42358 1.7373 3.76733 2.3584C2.19702 3.83496 1.1189 6.1084 1.1189 8.58105C1.1189 13.3154 5.0564 17.2529 10.072 17.2529ZM5.9939 29.8857H14.1267C17.49 29.8857 20.0798 27.2607 20.0798 23.9326C20.0798 20.6045 17.49 17.9795 14.1267 17.9795H5.9939C2.64233 17.9795 0.0524902 20.6045 0.0524902 23.9326C0.0524902 27.2607 2.64233 29.8857 5.9939 29.8857Z" fill="black" fill-opacity="0.85"/>
<path d="M7.74 6.4834C6.96656 6.4834 6.34547 5.87402 6.34547 5.10058C6.34547 4.32714 6.96656 3.70605 7.74 3.70605C8.51343 3.70605 9.13453 4.32714 9.13453 5.10058C9.13453 5.87402 8.51343 6.4834 7.74 6.4834ZM12.4041 6.4834C11.6306 6.4834 11.0095 5.87402 11.0095 5.10058C11.0095 4.32714 11.6306 3.70605 12.4041 3.70605C13.1658 3.70605 13.7869 4.32714 13.7869 5.10058C13.7869 5.87402 13.1658 6.4834 12.4041 6.4834ZM5.40797 10.5498C4.30641 10.5498 3.41578 9.65918 3.41578 8.5459C3.41578 7.45605 4.30641 6.56543 5.40797 6.56543C6.50953 6.56543 7.40016 7.45605 7.40016 8.5459C7.40016 9.65918 6.50953 10.5498 5.40797 10.5498ZM10.072 10.5498C8.95875 10.5498 8.07983 9.65918 8.07983 8.5459C8.07983 7.45605 8.95875 6.56543 10.072 6.56543C11.1736 6.56543 12.0525 7.45605 12.0525 8.5459C12.0525 9.65918 11.1736 10.5498 10.072 10.5498ZM14.7244 10.5498C13.6228 10.5498 12.7439 9.65918 12.7439 8.5459C12.7439 7.45605 13.6228 6.56543 14.7244 6.56543C15.8377 6.56543 16.7166 7.45605 16.7166 8.5459C16.7166 9.65918 15.8377 10.5498 14.7244 10.5498ZM7.74 14.5693C6.63843 14.5693 5.74781 13.6904 5.74781 12.5771C5.74781 11.4756 6.63843 10.5967 7.74 10.5967C8.84156 10.5967 9.72046 11.4756 9.72046 12.5771C9.72046 13.6904 8.84156 14.5693 7.74 14.5693ZM12.4041 14.5693C11.2908 14.5693 10.4119 13.6904 10.4119 12.5771C10.4119 11.4756 11.2908 10.5967 12.4041 10.5967C13.5056 10.5967 14.3845 11.4756 14.3845 12.5771C14.3845 13.6904 13.5056 14.5693 12.4041 14.5693ZM5.85328 27.1553C4.07203 27.1553 2.63062 25.7256 2.63062 23.9326C2.63062 22.1396 4.07203 20.6982 5.85328 20.6982C7.64625 20.6982 9.09937 22.1396 9.09937 23.9326C9.09937 25.7256 7.64625 27.1553 5.85328 27.1553ZM14.2673 27.1553C12.4744 27.1553 11.033 25.7256 11.033 23.9326C11.033 22.1396 12.4744 20.6982 14.2673 20.6982C16.0603 20.6982 17.5017 22.1396 17.5017 23.9326C17.5017 25.7256 16.0603 27.1553 14.2673 27.1553Z" fill="white"/>
</g>
<defs>
<clipPath id="clip0_2207_17768">
<rect width="20.0273" height="29.8242" fill="white" transform="translate(0.0524902 0.0615234)"/>
</clipPath>
</defs>
</svg>
