<svg width="28" height="25" viewBox="0 0 28 25" fill="none" xmlns="http://www.w3.org/2000/svg">
<g id="ev.plug.ac.gb.t.fill" clip-path="url(#clip0_2124_13654)">
<g id="Group">
<path id="Vector" d="M13.8984 24.4805C21.6914 24.4805 27.7969 18.375 27.7969 11.0391C27.7969 7.16016 26.1094 3.65625 23.6836 1.37109C22.6758 0.421875 21.5859 0 20.0859 0H7.71094C6.21094 0 5.12109 0.421875 4.11328 1.37109C1.6875 3.65625 0 7.16016 0 11.0391C0 18.375 6.11719 24.4805 13.8984 24.4805Z" fill="black" fill-opacity="0.85"/>
<path id="Vector_2" d="M10.2188 7.73438C9.04688 7.73438 8.09766 6.77345 8.09766 5.62501C8.09766 4.46485 9.04688 3.51562 10.2188 3.51562C11.3789 3.51562 12.3164 4.46485 12.3164 5.62501C12.3164 6.77345 11.3789 7.73438 10.2188 7.73438ZM17.5898 7.73438C16.418 7.73438 15.4805 6.77345 15.4805 5.62501C15.4805 4.46485 16.418 3.51562 17.5898 3.51562C18.75 3.51562 19.6992 4.46485 19.6992 5.62501C19.6992 6.77345 18.75 7.73438 17.5898 7.73438ZM6.51562 13.9336C4.91016 13.9336 3.59766 12.6211 3.59766 11.0156C3.59766 9.39845 4.91016 8.09766 6.51562 8.09766C8.13281 8.09766 9.44531 9.39845 9.44531 11.0156C9.44531 12.6211 8.13281 13.9336 6.51562 13.9336ZM13.8984 13.9336C12.293 13.9336 10.9805 12.6211 10.9805 11.0156C10.9805 9.39845 12.293 8.09766 13.8984 8.09766C15.5039 8.09766 16.8164 9.39845 16.8164 11.0156C16.8164 12.6211 15.5039 13.9336 13.8984 13.9336ZM21.2812 13.9336C19.6758 13.9336 18.3516 12.6211 18.3516 11.0156C18.3516 9.39845 19.6758 8.09766 21.2812 8.09766C22.8867 8.09766 24.1992 9.39845 24.1992 11.0156C24.1992 12.6211 22.8867 13.9336 21.2812 13.9336ZM10.2188 20.2031C8.60156 20.2031 7.28906 18.9023 7.28906 17.2852C7.28906 15.6797 8.60156 14.3555 10.2188 14.3555C11.8242 14.3555 13.1367 15.6797 13.1367 17.2852C13.1367 18.9023 11.8242 20.2031 10.2188 20.2031ZM17.5898 20.2031C15.9844 20.2031 14.6719 18.9023 14.6719 17.2852C14.6719 15.6797 15.9844 14.3555 17.5898 14.3555C19.1953 14.3555 20.5078 15.6797 20.5078 17.2852C20.5078 18.9023 19.1953 20.2031 17.5898 20.2031Z" fill="white"/>
</g>
</g>
<defs>
<clipPath id="clip0_2124_13654">
<rect width="27.7969" height="24.5039" fill="white"/>
</clipPath>
</defs>
</svg>
