<svg width="27" height="23" viewBox="0 0 27 23" fill="none" xmlns="http://www.w3.org/2000/svg">
<g id="ev.plug.dc.nacs.fill" clip-path="url(#clip0_2124_13699)">
<g id="Group">
<path id="Vector" d="M13.2539 12.7734C17.6484 12.7734 21.5977 14.4023 24.5508 17.1445C25.793 15.1992 26.5078 12.832 26.5078 10.1719C26.5078 8.71875 26.3555 7.46484 26.0508 6.36328C25.7344 8.84766 23.6133 10.7695 21.0117 10.7695C18.1641 10.7695 15.8906 8.48438 15.8906 5.64844C15.8906 3.22266 17.5547 1.19531 19.8047 0.65625C18.0352 0.199219 15.8672 0 13.2539 0C10.6289 0 8.46094 0.199219 6.69141 0.65625C8.94141 1.19531 10.6172 3.22266 10.6172 5.64844C10.6172 8.48438 8.33203 10.7695 5.49609 10.7695C2.89453 10.7695 0.773438 8.84766 0.445312 6.36328C0.152344 7.46484 0 8.71875 0 10.1719C0 12.832 0.714844 15.1992 1.94531 17.1445C4.91016 14.4023 8.84766 12.7734 13.2539 12.7734ZM13.2539 22.8516C17.7891 22.8516 21.5742 21.0469 23.9297 18.0469C21.1172 15.3633 17.4492 13.8398 13.2539 13.8398C9.04688 13.8398 5.37891 15.3633 2.56641 18.0352C4.91016 21.0469 8.70703 22.8516 13.2539 22.8516Z" fill="black" fill-opacity="0.85"/>
<path id="Vector_2" d="M8.00391 19.0195C7.41797 19.0195 6.94922 18.5625 6.94922 17.9766C6.94922 17.3906 7.41797 16.9336 8.00391 16.9336C8.58984 16.9336 9.04688 17.3906 9.04688 17.9766C9.04688 18.5625 8.58984 19.0195 8.00391 19.0195ZM13.2539 19.7695C12.2695 19.7695 11.4609 18.9609 11.4609 17.9766C11.4609 16.9922 12.2695 16.1836 13.2539 16.1836C14.2383 16.1836 15.0469 16.9922 15.0469 17.9766C15.0469 18.9609 14.2383 19.7695 13.2539 19.7695ZM18.5039 19.0195C17.918 19.0195 17.4609 18.5625 17.4609 17.9766C17.4609 17.3906 17.918 16.9336 18.5039 16.9336C19.0898 16.9336 19.5469 17.3906 19.5469 17.9766C19.5469 18.5625 19.0898 19.0195 18.5039 19.0195Z" fill="white"/>
<path id="Vector_3" d="M5.49609 9.70312C7.74609 9.70312 9.55078 7.89844 9.55078 5.64844C9.55078 3.39844 7.74609 1.58203 5.49609 1.58203C3.24609 1.58203 1.44141 3.39844 1.44141 5.64844C1.44141 7.89844 3.24609 9.70312 5.49609 9.70312ZM5.49609 8.03906C4.17188 8.03906 3.10547 6.97266 3.10547 5.64844C3.10547 4.32422 4.17188 3.25781 5.49609 3.25781C6.82031 3.25781 7.88672 4.32422 7.88672 5.64844C7.88672 6.97266 6.82031 8.03906 5.49609 8.03906ZM5.49609 6.70312C6.08203 6.70312 6.55078 6.23438 6.55078 5.64844C6.55078 5.0625 6.08203 4.59375 5.49609 4.59375C4.91016 4.59375 4.44141 5.0625 4.44141 5.64844C4.44141 6.23438 4.91016 6.70312 5.49609 6.70312ZM21.0117 9.70312C23.2617 9.70312 25.0664 7.89844 25.0664 5.64844C25.0664 3.39844 23.2617 1.58203 21.0117 1.58203C18.7617 1.58203 16.957 3.39844 16.957 5.64844C16.957 7.89844 18.7617 9.70312 21.0117 9.70312ZM21.0117 8.03906C19.6875 8.03906 18.6211 6.97266 18.6211 5.64844C18.6211 4.32422 19.6875 3.25781 21.0117 3.25781C22.3359 3.25781 23.4023 4.32422 23.4023 5.64844C23.4023 6.97266 22.3359 8.03906 21.0117 8.03906ZM21.0117 6.70312C21.5977 6.70312 22.0664 6.23438 22.0664 5.64844C22.0664 5.0625 21.5977 4.59375 21.0117 4.59375C20.4258 4.59375 19.957 5.0625 19.957 5.64844C19.957 6.23438 20.4258 6.70312 21.0117 6.70312Z" fill="black" fill-opacity="0.85"/>
</g>
</g>
<defs>
<clipPath id="clip0_2124_13699">
<rect width="26.5078" height="22.8633" fill="white"/>
</clipPath>
</defs>
</svg>
