<svg width="21" height="30" viewBox="0 0 21 30" fill="none" xmlns="http://www.w3.org/2000/svg">
<g clip-path="url(#clip0_2207_17753)">
<path d="M10.0773 17.3349C14.7883 17.3349 18.7023 13.4092 18.7023 8.69824C18.7023 3.9873 14.7766 0.0615234 10.0539 0.0615234C5.34302 0.0615234 1.44067 3.9873 1.44067 8.69824C1.44067 13.4092 5.36645 17.3349 10.0773 17.3349ZM10.0773 15.624C6.2102 15.624 3.16333 12.5654 3.16333 8.69824C3.16333 4.84277 6.2102 1.77246 10.0539 1.77246C13.9211 1.77246 16.9914 4.84277 16.9914 8.69824C16.9914 12.5654 13.9328 15.624 10.0773 15.624ZM5.98755 29.9092H14.1203C17.4836 29.9092 20.0734 27.2842 20.0734 23.956C20.0734 20.6279 17.4836 18.0029 14.1203 18.0029H5.98755C2.63598 18.0029 0.0461426 20.6279 0.0461426 23.956C0.0461426 27.2842 2.63598 29.9092 5.98755 29.9092ZM5.98755 28.1982C3.5852 28.1982 1.73364 26.3584 1.73364 23.956C1.73364 21.5537 3.5852 19.7138 5.98755 19.7138H14.1203C16.5344 19.7138 18.3859 21.5537 18.3859 23.956C18.3859 26.3584 16.5344 28.1982 14.1203 28.1982H5.98755Z" fill="black" fill-opacity="0.85"/>
<path d="M7.06567 8.07714C8.13208 8.07714 8.98755 7.22168 8.98755 6.15527C8.98755 5.07714 8.13208 4.22168 7.06567 4.22168C5.98755 4.22168 5.13208 5.07714 5.13208 6.15527C5.13208 7.22168 5.98755 8.07714 7.06567 8.07714ZM13.0539 8.07714C14.132 8.07714 14.9875 7.22168 14.9875 6.15527C14.9875 5.07714 14.132 4.22168 13.0539 4.22168C11.9875 4.22168 11.132 5.07714 11.132 6.15527C11.132 7.22168 11.9875 8.07714 13.0539 8.07714ZM5.97583 12.0146C6.72583 12.0146 7.32348 11.417 7.32348 10.667C7.32348 9.91699 6.72583 9.31933 5.97583 9.31933C5.22583 9.31933 4.62817 9.91699 4.62817 10.667C4.62817 11.417 5.22583 12.0146 5.97583 12.0146ZM14.1438 12.0146C14.8938 12.0146 15.4914 11.417 15.4914 10.667C15.4914 9.91699 14.8938 9.31933 14.1438 9.31933C13.3938 9.31933 12.7961 9.91699 12.7961 10.667C12.7961 11.417 13.3938 12.0146 14.1438 12.0146ZM10.0539 14.8271C11.132 14.8271 11.9875 13.9717 11.9875 12.8935C11.9875 11.8271 11.132 10.9717 10.0539 10.9717C8.98755 10.9717 8.13208 11.8271 8.13208 12.8935C8.13208 13.9717 8.98755 14.8271 10.0539 14.8271ZM5.97583 27.0849C7.7102 27.0849 9.11645 25.6904 9.11645 23.956C9.11645 22.2217 7.7102 20.8154 5.97583 20.8154C4.24145 20.8154 2.84692 22.2217 2.84692 23.956C2.84692 25.6904 4.24145 27.0849 5.97583 27.0849ZM14.132 27.0849C15.8781 27.0849 17.2727 25.6904 17.2727 23.956C17.2727 22.2217 15.8781 20.8154 14.132 20.8154C12.3977 20.8154 11.0031 22.2217 11.0031 23.956C11.0031 25.6904 12.3977 27.0849 14.132 27.0849Z" fill="black" fill-opacity="0.85"/>
</g>
<defs>
<clipPath id="clip0_2207_17753">
<rect width="20.0273" height="29.8711" fill="white" transform="translate(0.0461426 0.0615234)"/>
</clipPath>
</defs>
</svg>
