<svg width="24" height="24" viewBox="0 0 24 24" fill="none" xmlns="http://www.w3.org/2000/svg">
<g id="ev.plug.dc.chademo.fill" clip-path="url(#clip0_2124_13679)">
<g id="Group">
<path id="Vector" d="M11.9531 23.9062C18.4922 23.9062 23.9062 18.4805 23.9062 11.9531C23.9062 5.41406 18.4805 0 11.9414 0C5.41406 0 0 5.41406 0 11.9531C0 18.4805 5.42578 23.9062 11.9531 23.9062Z" fill="black" fill-opacity="0.85"/>
<path id="Vector_2" d="M7.28907 15.5273C5.3086 15.5273 3.70312 13.9336 3.70312 11.9531C3.70312 9.97266 5.3086 8.37891 7.28907 8.37891C9.25782 8.37891 10.8633 9.97266 10.8633 11.9531C10.8633 13.9336 9.25782 15.5273 7.28907 15.5273ZM16.6289 15.5273C14.6484 15.5273 13.043 13.9336 13.043 11.9531C13.043 9.97266 14.6484 8.37891 16.6289 8.37891C18.5977 8.37891 20.2031 9.97266 20.2031 11.9531C20.2031 13.9336 18.5977 15.5273 16.6289 15.5273ZM10.125 7.53516C9.91406 7.3125 9.91406 6.96094 10.125 6.73828L11.1562 5.70703L10.125 4.6875C9.91406 4.46484 9.91406 4.11328 10.125 3.89062C10.3477 3.66797 10.6758 3.66797 10.9102 3.89062L11.9414 4.93359L12.9727 3.89062C13.207 3.66797 13.5352 3.66797 13.7578 3.89062C13.9805 4.11328 13.9805 4.45312 13.7578 4.6875L12.7266 5.70703L13.7578 6.73828C13.9805 6.97266 13.9805 7.3125 13.7578 7.53516C13.5352 7.74609 13.1953 7.74609 12.9727 7.53516L11.9414 6.49219L10.9102 7.53516C10.6875 7.74609 10.3477 7.74609 10.125 7.53516ZM10.125 20.0039C9.90234 19.7812 9.91406 19.4297 10.125 19.207L11.1562 18.1875L10.125 17.1562C9.91406 16.9336 9.90234 16.5938 10.125 16.3594C10.3477 16.1367 10.6875 16.1484 10.9102 16.3594L11.9414 17.4023L12.9727 16.3594C13.1953 16.1484 13.5352 16.1367 13.7578 16.3594C13.9805 16.5938 13.9688 16.9336 13.7578 17.1562L12.7266 18.1875L13.7578 19.207C13.9688 19.4297 13.9805 19.7812 13.7578 20.0039C13.5352 20.2266 13.1953 20.2148 12.9727 20.0039L11.9414 18.9609L10.9102 20.0039C10.6875 20.2148 10.3477 20.2266 10.125 20.0039Z" fill="white"/>
</g>
</g>
<defs>
<clipPath id="clip0_2124_13679">
<rect width="23.9062" height="23.918" fill="white"/>
</clipPath>
</defs>
</svg>
