<svg width="21" height="30" viewBox="0 0 21 30" fill="none" xmlns="http://www.w3.org/2000/svg">
<g clip-path="url(#clip0_2207_17758)">
<path d="M10.0795 17.3349C14.7905 17.3349 18.7045 13.4092 18.7045 8.69824C18.7045 3.9873 14.7788 0.0615234 10.0561 0.0615234C5.34522 0.0615234 1.44287 3.9873 1.44287 8.69824C1.44287 13.4092 5.36865 17.3349 10.0795 17.3349ZM5.98975 29.9092H14.1225C17.4858 29.9092 20.0756 27.2842 20.0756 23.956C20.0756 20.6279 17.4858 18.0029 14.1225 18.0029H5.98975C2.63818 18.0029 0.0483398 20.6279 0.0483398 23.956C0.0483398 27.2842 2.63818 29.9092 5.98975 29.9092Z" fill="black" fill-opacity="0.85"/>
<path d="M6.97412 8.03028C5.86084 8.03028 4.98193 7.15137 4.98193 6.04981C4.98193 4.93653 5.86084 4.05762 6.97412 4.05762C8.07569 4.05762 8.95459 4.93653 8.95459 6.04981C8.95459 7.15137 8.07569 8.03028 6.97412 8.03028ZM13.1499 8.03028C12.0483 8.03028 11.1694 7.15137 11.1694 6.04981C11.1694 4.93653 12.0483 4.05762 13.1499 4.05762C14.2631 4.05762 15.1421 4.93653 15.1421 6.04981C15.1421 7.15137 14.2631 8.03028 13.1499 8.03028ZM5.84912 12.0967C5.07568 12.0967 4.46632 11.4756 4.46632 10.7021C4.46632 9.92872 5.07568 9.30762 5.84912 9.30762C6.62256 9.30762 7.24366 9.92872 7.24366 10.7021C7.24366 11.4756 6.62256 12.0967 5.84912 12.0967ZM14.2749 12.0967C13.5014 12.0967 12.8803 11.4756 12.8803 10.7021C12.8803 9.92872 13.5014 9.30762 14.2749 9.30762C15.0483 9.30762 15.6577 9.92872 15.6577 10.7021C15.6577 11.4756 15.0483 12.0967 14.2749 12.0967ZM10.0561 14.9912C8.95459 14.9912 8.07568 14.1123 8.07568 12.999C8.07568 11.8974 8.95459 11.0185 10.0561 11.0185C11.1694 11.0185 12.0483 11.8974 12.0483 12.999C12.0483 14.1123 11.1694 14.9912 10.0561 14.9912ZM5.84912 27.1787C4.06787 27.1787 2.62646 25.749 2.62646 23.956C2.62646 22.1631 4.06787 20.7217 5.84912 20.7217C7.64209 20.7217 9.09522 22.1631 9.09522 23.956C9.09522 25.749 7.64209 27.1787 5.84912 27.1787ZM14.2631 27.1787C12.4702 27.1787 11.0288 25.749 11.0288 23.956C11.0288 22.1631 12.4702 20.7217 14.2631 20.7217C16.0561 20.7217 17.4975 22.1631 17.4975 23.956C17.4975 25.749 16.0561 27.1787 14.2631 27.1787Z" fill="white"/>
</g>
<defs>
<clipPath id="clip0_2207_17758">
<rect width="20.0273" height="29.8711" fill="white" transform="translate(0.0483398 0.0615234)"/>
</clipPath>
</defs>
</svg>
