<svg width="25" height="23" viewBox="0 0 25 23" fill="none" xmlns="http://www.w3.org/2000/svg">
<g clip-path="url(#clip0_2207_7730)">
<path d="M3.22022 22.3286H21.3843C23.3765 22.3286 24.5835 20.9458 24.5835 19.1528C24.5835 18.6021 24.4194 18.0278 24.1265 17.5122L15.0327 1.66846C14.4233 0.60205 13.3804 0.0629883 12.3022 0.0629883C11.2241 0.0629883 10.1694 0.60205 9.57178 1.66846L0.478027 17.5122C0.161621 18.0396 0.0209961 18.6021 0.0209961 19.1528C0.0209961 20.9458 1.22803 22.3286 3.22022 22.3286ZM3.23194 20.4888C2.41162 20.4888 1.91944 19.856 1.91944 19.1411C1.91944 18.9185 1.96631 18.6372 2.09522 18.3911L11.1772 2.55908C11.4233 2.12549 11.8687 1.93799 12.3022 1.93799C12.7358 1.93799 13.1694 2.12549 13.4155 2.55908L22.4976 18.4028C22.6265 18.6489 22.6851 18.9185 22.6851 19.1411C22.6851 19.856 22.1694 20.4888 21.3608 20.4888H3.23194Z" fill="black" fill-opacity="0.85"/>
<path d="M12.3022 14.4302C12.8648 14.4302 13.1929 14.1021 13.2046 13.4927L13.3687 7.3169C13.3804 6.71924 12.9116 6.27393 12.2905 6.27393C11.6577 6.27393 11.2124 6.70752 11.2241 7.30518L11.3765 13.4927C11.3882 14.0903 11.7163 14.4302 12.3022 14.4302ZM12.3022 18.2388C12.9819 18.2388 13.5679 17.6997 13.5679 17.02C13.5679 16.3286 12.9937 15.8013 12.3022 15.8013C11.6108 15.8013 11.0366 16.3403 11.0366 17.02C11.0366 17.688 11.6226 18.2388 12.3022 18.2388Z" fill="black" fill-opacity="0.85"/>
</g>
<defs>
<clipPath id="clip0_2207_7730">
<rect width="24.5625" height="22.3945" fill="white" transform="translate(0.0209961 0.0629883)"/>
</clipPath>
</defs>
</svg>
