<svg width="30" height="23" viewBox="0 0 30 23" fill="none" xmlns="http://www.w3.org/2000/svg">
<g clip-path="url(#clip0_2207_8699)">
<path d="M23.2507 20.4287C26.7898 20.4287 29.5554 17.8388 29.5554 14.6162C29.5554 12.1553 28.1375 10.0225 25.8523 9.06152C25.8757 3.83496 22.114 0.0615234 17.3211 0.0615234C14.1453 0.0615234 11.8836 1.76074 10.4773 3.81152C7.59448 2.96777 4.45386 5.15918 4.39526 8.44043C1.74682 8.8623 0.0944824 11.2295 0.0944824 14.0888C0.0944824 17.5342 3.1062 20.4287 7.11401 20.4287H23.2507ZM23.2507 18.542H7.11401C4.16089 18.542 1.9812 16.4795 1.9812 14.0888C1.9812 11.7451 3.39917 9.88183 5.88354 9.88183C6.0476 9.88183 6.1062 9.7998 6.1062 9.64746C6.1062 6.03808 8.70776 4.97168 11.1101 5.75683C11.2507 5.80371 11.3328 5.76855 11.4031 5.63964C12.5398 3.6123 14.2859 1.94824 17.3211 1.94824C21.1648 1.94824 23.825 4.99511 24.0242 8.47558C24.0593 9.01464 24.0242 9.64746 23.9773 10.1982C23.9656 10.3506 24.0242 10.4326 24.1648 10.4677C26.2976 10.9365 27.6687 12.4951 27.6687 14.6162C27.6687 16.7959 25.7468 18.542 23.2507 18.542Z" fill="black" fill-opacity="0.85"/>
<path d="M14.8367 12.4131C15.3992 12.4131 15.7156 12.0849 15.739 11.4756L15.9031 7.1748C15.9265 6.53027 15.4461 6.08496 14.825 6.08496C14.1922 6.08496 13.7351 6.51855 13.7586 7.16308L13.9226 11.4756C13.9461 12.0732 14.2507 12.4131 14.8367 12.4131ZM14.825 16.1513C15.5047 16.1513 16.0906 15.6123 16.0906 14.9326C16.0906 14.2529 15.5164 13.7138 14.825 13.7138C14.1336 13.7138 13.5593 14.2646 13.5593 14.9326C13.5593 15.6006 14.1453 16.1513 14.825 16.1513Z" fill="black" fill-opacity="0.85"/>
</g>
<defs>
<clipPath id="clip0_2207_8699">
<rect width="29.4609" height="22.2773" fill="white" transform="translate(0.0944824 0.0615234)"/>
</clipPath>
</defs>
</svg>
