<svg width="24" height="24" viewBox="0 0 24 24" fill="none" xmlns="http://www.w3.org/2000/svg">
<g clip-path="url(#clip0_2207_22712)">
<path d="M12.0454 23.9677C18.5845 23.9677 23.9985 18.542 23.9985 12.0146C23.9985 5.47558 18.5728 0.0615234 12.0337 0.0615234C5.50634 0.0615234 0.0922852 5.47558 0.0922852 12.0146C0.0922852 18.542 5.51807 23.9677 12.0454 23.9677Z" fill="black" fill-opacity="0.85"/>
<path d="M12.0454 14.1943C11.4361 14.1943 11.0962 13.8545 11.0845 13.2334L10.9321 6.84668C10.9204 6.22558 11.3775 5.78027 12.0337 5.78027C12.6782 5.78027 13.1587 6.2373 13.147 6.8584L12.9829 13.2334C12.9712 13.8662 12.6314 14.1943 12.0454 14.1943ZM12.0454 18.1201C11.3423 18.1201 10.7329 17.5576 10.7329 16.8662C10.7329 16.1748 11.3306 15.6006 12.0454 15.6006C12.7603 15.6006 13.3579 16.1631 13.3579 16.8662C13.3579 17.5693 12.7485 18.1201 12.0454 18.1201Z" fill="white"/>
</g>
<defs>
<clipPath id="clip0_2207_22712">
<rect width="23.9062" height="23.918" fill="white" transform="translate(0.0922852 0.0615234)"/>
</clipPath>
</defs>
</svg>
