<svg width="26" height="26" viewBox="0 0 26 26" fill="none" xmlns="http://www.w3.org/2000/svg">
<g id="exclamationmark.bubble.fill" clip-path="url(#clip0_2201_311)">
<g id="Group">
<path id="Vector" d="M6.96094 25.8867C7.41797 25.8867 7.75781 25.6523 8.30859 25.1367L12.5391 21.2695H20.4609C23.9531 21.2695 25.8281 19.3477 25.8281 15.9141V6.9375C25.8281 3.50391 23.9531 1.57031 20.4609 1.57031H5.36719C1.875 1.57031 0 3.49219 0 6.9375V15.9141C0 19.3594 1.875 21.2695 5.36719 21.2695H5.91797V24.6797C5.91797 25.4062 6.29297 25.8867 6.96094 25.8867Z" fill="black" fill-opacity="0.85"/>
<path id="Vector_2" d="M12.9258 13.5938C12.3164 13.5938 11.9766 13.2539 11.9648 12.6328L11.8125 6.25781C11.8008 5.63672 12.2578 5.17969 12.9141 5.17969C13.5586 5.17969 14.0391 5.64844 14.0273 6.26953L13.8516 12.6328C13.8398 13.2656 13.5 13.5938 12.9258 13.5938ZM12.9258 17.5195C12.2227 17.5195 11.6133 16.9688 11.6133 16.2656C11.6133 15.5742 12.2109 15.0117 12.9258 15.0117C13.6289 15.0117 14.2266 15.5625 14.2266 16.2656C14.2266 16.9805 13.6172 17.5195 12.9258 17.5195Z" fill="white"/>
</g>
</g>
<defs>
<clipPath id="clip0_2201_311">
<rect width="25.8281" height="25.8867" fill="white"/>
</clipPath>
</defs>
</svg>
