<svg width="22" height="22" viewBox="0 0 22 22" fill="none" xmlns="http://www.w3.org/2000/svg">
<g clip-path="url(#clip0_2207_22717)">
<path d="M3.69239 21.6607H17.9072C20.3682 21.6607 21.5869 20.4419 21.5869 18.0278V3.71924C21.5869 1.30518 20.3682 0.0864258 17.9072 0.0864258H3.69239C1.24317 0.0864258 0.0126953 1.29346 0.0126953 3.71924V18.0278C0.0126953 20.4536 1.24317 21.6607 3.69239 21.6607ZM3.71582 19.7739C2.54395 19.7739 1.89942 19.1528 1.89942 17.9341V3.81299C1.89942 2.59424 2.54395 1.97315 3.71582 1.97315H17.8838C19.0439 1.97315 19.7002 2.59424 19.7002 3.81299V17.9341C19.7002 19.1528 19.0439 19.7739 17.8838 19.7739H3.71582Z" fill="black" fill-opacity="0.85"/>
<path d="M10.8057 12.9653C11.3682 12.9653 11.6846 12.6489 11.6963 12.0396L11.8721 5.85205C11.8838 5.2544 11.415 4.80908 10.7939 4.80908C10.1611 4.80908 9.71582 5.24268 9.72754 5.84033L9.87989 12.0396C9.89161 12.6372 10.2197 12.9653 10.8057 12.9653ZM10.8057 16.7739C11.4736 16.7739 12.0596 16.2349 12.0596 15.5552C12.0596 14.8755 11.4854 14.3364 10.8057 14.3364C10.1143 14.3364 9.54004 14.8872 9.54004 15.5552C9.54004 16.2232 10.126 16.7739 10.8057 16.7739Z" fill="black" fill-opacity="0.85"/>
</g>
<defs>
<clipPath id="clip0_2207_22717">
<rect width="21.5742" height="21.5977" fill="white" transform="translate(0.0126953 0.0629883)"/>
</clipPath>
</defs>
</svg>
