<svg width="26" height="26" viewBox="0 0 26 26" fill="none" xmlns="http://www.w3.org/2000/svg">
<g id="exclamationmark.bubble" clip-path="url(#clip0_2124_13444)">
<g id="Group">
<path id="Vector" d="M7.20703 25.7461C7.78125 25.7461 8.17969 25.4414 8.89453 24.8086L12.9375 21.2109H20.4609C23.9531 21.2109 25.8281 19.2773 25.8281 15.8438V6.86719C25.8281 3.43359 23.9531 1.5 20.4609 1.5H5.36719C1.875 1.5 0 3.42188 0 6.86719V15.8438C0 19.2891 1.875 21.2109 5.36719 21.2109H5.92969V24.2578C5.92969 25.1602 6.38672 25.7461 7.20703 25.7461ZM7.6875 23.6016V20.2031C7.6875 19.5703 7.44141 19.3242 6.80859 19.3242H5.36719C3 19.3242 1.88672 18.1172 1.88672 15.832V6.86719C1.88672 4.58203 3 3.38672 5.36719 3.38672H20.4609C22.8164 3.38672 23.9414 4.58203 23.9414 6.86719V15.832C23.9414 18.1172 22.8164 19.3242 20.4609 19.3242H12.8672C12.2109 19.3242 11.8828 19.418 11.4375 19.875L7.6875 23.6016Z" fill="black" fill-opacity="0.85"/>
<path id="Vector_2" d="M12.9141 13.4648C13.4766 13.4648 13.8047 13.1484 13.8164 12.5391L13.9805 6.35156C13.9922 5.76562 13.5234 5.30859 12.9023 5.30859C12.2695 5.30859 11.8242 5.75391 11.8359 6.33984L11.9883 12.5391C12 13.1367 12.3281 13.4648 12.9141 13.4648ZM12.9141 17.2734C13.5938 17.2734 14.1797 16.7461 14.1797 16.0547C14.1797 15.375 13.6055 14.8477 12.9141 14.8477C12.2227 14.8477 11.6484 15.3867 11.6484 16.0547C11.6484 16.7344 12.2344 17.2734 12.9141 17.2734Z" fill="black" fill-opacity="0.85"/>
</g>
</g>
<defs>
<clipPath id="clip0_2124_13444">
<rect width="25.8281" height="25.7461" fill="white"/>
</clipPath>
</defs>
</svg>
