<svg width="27" height="24" viewBox="0 0 27 24" fill="none" xmlns="http://www.w3.org/2000/svg">
<g clip-path="url(#clip0_2207_20269)">
<path d="M14.3038 23.9677C20.8312 23.9677 26.257 18.542 26.257 12.0146C26.257 5.47558 20.8312 0.0615234 14.3038 0.0615234C7.76476 0.0615234 2.3507 5.46386 2.3507 12.0029H4.34289C4.34289 6.47168 8.77257 2.06543 14.3038 2.06543C19.8351 2.06543 24.2648 6.4834 24.2648 12.0146C24.2648 17.5459 19.8351 21.999 14.3038 21.9756C10.964 21.9638 8.03429 20.3467 6.24132 17.8506C5.87804 17.3701 5.32726 17.2177 4.83507 17.5107C4.36632 17.8037 4.23742 18.4482 4.63585 18.9638C6.86242 21.9521 10.3546 23.9677 14.3038 23.9677ZM0.909296 9.75293C0.065546 9.75293 -0.145391 10.3271 0.31164 10.9834L2.93664 14.7099C3.32335 15.249 3.88585 15.2373 4.26085 14.7099L6.88585 10.9717C7.33117 10.3271 7.12023 9.75293 6.2882 9.75293H0.909296Z" fill="black" fill-opacity="0.85"/>
<path d="M14.292 14.124C14.8545 14.124 15.1826 13.8076 15.1944 13.1982L15.3584 7.01074C15.3701 6.41308 14.9014 5.96777 14.2803 5.96777C13.6475 5.96777 13.2022 6.40136 13.2139 6.99902L13.378 13.1982C13.3897 13.7959 13.7061 14.124 14.292 14.124ZM14.292 17.9326C14.9717 17.9326 15.5576 17.3935 15.5576 16.7138C15.5576 16.0342 14.9834 15.4951 14.292 15.4951C13.6006 15.4951 13.0264 16.0459 13.0264 16.7138C13.0264 17.3818 13.6123 17.9326 14.292 17.9326Z" fill="black" fill-opacity="0.85"/>
</g>
<defs>
<clipPath id="clip0_2207_20269">
<rect width="26.1813" height="23.918" fill="white" transform="translate(0.0756836 0.0615234)"/>
</clipPath>
</defs>
</svg>
