<svg width="17" height="24" viewBox="0 0 17 24" fill="none" xmlns="http://www.w3.org/2000/svg">
<g clip-path="url(#clip0_2207_12715)">
<path d="M2.73535 23.042H13.458C15.1806 23.042 16.0947 22.1045 16.0947 20.2529V12.1787C16.0947 10.3388 15.1806 9.40136 13.458 9.40136H2.73535C1.01269 9.40136 0.0986328 10.3388 0.0986328 12.1787V20.2529C0.0986328 22.1045 1.01269 23.042 2.73535 23.042ZM2.79394 21.2724C2.29004 21.2724 1.99707 20.956 1.99707 20.3818V12.0498C1.99707 11.4756 2.29004 11.1709 2.79394 11.1709H13.3994C13.915 11.1709 14.1963 11.4756 14.1963 12.0498V20.3818C14.1963 20.956 13.915 21.2724 13.3994 21.2724H2.79394ZM2.14941 10.3037H4.01269V6.35449C4.01269 3.38964 5.89941 1.83105 8.09082 1.83105C10.2822 1.83105 12.1924 3.38964 12.1924 6.35449V10.3037H14.0439V6.60058C14.0439 2.19433 11.1611 0.0615234 8.09082 0.0615234C5.03222 0.0615234 2.14941 2.19433 2.14941 6.60058V10.3037Z" fill="black" fill-opacity="0.85"/>
<path d="M8.09083 17.4053C8.5127 17.4053 8.74708 17.1474 8.7588 16.7256L8.87598 12.9756C8.8877 12.542 8.54786 12.2138 8.09083 12.2138C7.62208 12.2138 7.29395 12.5303 7.30567 12.9638L7.42286 16.7256C7.43458 17.1474 7.66895 17.4053 8.09083 17.4053ZM8.09083 19.9834C8.60645 19.9834 9.02833 19.5732 9.02833 19.081C9.02833 18.5654 8.60645 18.167 8.09083 18.167C7.58692 18.167 7.17676 18.5771 7.17676 19.081C7.17676 19.5732 7.59864 19.9834 8.09083 19.9834Z" fill="black" fill-opacity="0.85"/>
</g>
<defs>
<clipPath id="clip0_2207_12715">
<rect width="15.9961" height="23.5898" fill="white" transform="translate(0.0986328 0.0615234)"/>
</clipPath>
</defs>
</svg>
