<svg width="25" height="24" viewBox="0 0 25 24" fill="none" xmlns="http://www.w3.org/2000/svg">
<g clip-path="url(#clip0_2207_22727)">
<path d="M8.48658 23.2427H15.5999C17.0881 23.2427 17.7913 22.7622 18.5647 21.9302L23.1116 16.9146C23.8733 16.0708 24.0842 15.4966 24.0842 14.3364V8.98096C24.0842 7.80908 23.8733 7.24658 23.1116 6.40283L18.5647 1.38721C17.7913 0.555176 17.0881 0.0629883 15.5999 0.0629883H8.48658C6.99829 0.0629883 6.28345 0.555176 5.52173 1.38721L0.974853 6.40283C0.201416 7.24658 0.00219727 7.80908 0.00219727 8.98096V14.3364C0.00219727 15.4966 0.201416 16.0708 0.974853 16.9146L5.52173 21.9302C6.28345 22.7622 6.99829 23.2427 8.48658 23.2427ZM9.11939 21.3677C7.94751 21.3677 7.60767 21.1099 6.96314 20.4068L2.73267 15.7778C2.27564 15.2622 2.17017 14.9692 2.17017 14.1138V9.20361C2.17017 8.34815 2.27564 8.05518 2.73267 7.53955L6.96314 2.91065C7.60767 2.1958 7.94751 1.94971 9.11939 1.94971H14.967C16.1389 1.94971 16.467 2.1958 17.1233 2.91065L21.342 7.53955C21.8108 8.05518 21.9163 8.34815 21.9163 9.20361V14.1138C21.9163 14.9692 21.8108 15.2622 21.342 15.7778L17.1233 20.4068C16.467 21.1099 16.1389 21.3677 14.967 21.3677H9.11939Z" fill="black" fill-opacity="0.85"/>
<path d="M12.0374 13.7622C12.5999 13.7622 12.928 13.4458 12.9397 12.8364L13.1038 6.64893C13.1155 6.05127 12.6467 5.60596 12.0256 5.60596C11.3928 5.60596 10.9475 6.03955 10.9592 6.63721L11.1233 12.8364C11.135 13.4341 11.4631 13.7622 12.0374 13.7622ZM12.0374 17.5708C12.717 17.5708 13.303 17.0318 13.303 16.3521C13.303 15.6724 12.7288 15.1333 12.0374 15.1333C11.3577 15.1333 10.7834 15.6841 10.7834 16.3521C10.7834 17.02 11.3694 17.5708 12.0374 17.5708Z" fill="black" fill-opacity="0.85"/>
</g>
<defs>
<clipPath id="clip0_2207_22727">
<rect width="24.082" height="23.1914" fill="white" transform="translate(0.00219727 0.0629883)"/>
</clipPath>
</defs>
</svg>
