<svg width="25" height="27" viewBox="0 0 25 27" fill="none" xmlns="http://www.w3.org/2000/svg">
<g clip-path="url(#clip0_2207_720)">
<path d="M0.0524902 13.27C0.0524902 16.0357 2.19702 18.0747 5.11499 18.0747H19.8337C22.7517 18.0747 24.8963 16.0357 24.8963 13.27C24.8963 12.4732 24.6853 11.7466 24.4041 11.0903L20.8767 2.64111C20.1853 0.965332 18.7673 0.0629883 16.8103 0.0629883H8.13843C6.19311 0.0629883 4.75171 0.965332 4.0603 2.64111L0.544678 11.0903C0.251709 11.77 0.0524902 12.4849 0.0524902 13.27ZM3.6853 8.67627L5.87671 3.15674C6.25171 2.1958 7.0603 1.70361 8.23218 1.70361H16.7283C17.9002 1.70361 18.7087 2.1958 19.0837 3.15674L21.2752 8.67627C20.8181 8.53565 20.3377 8.45361 19.8337 8.45361H5.11499C4.61108 8.45361 4.13061 8.53565 3.6853 8.67627ZM1.91577 13.27C1.91577 11.5474 3.22827 10.3286 5.11499 10.3286H19.8337C21.7205 10.3286 23.033 11.5474 23.033 13.27C23.033 15.1099 21.8377 16.2114 19.8337 16.2114H5.11499C3.22827 16.2114 1.91577 14.9927 1.91577 13.27ZM18.4275 13.27C18.4275 14.0318 19.0486 14.6646 19.822 14.6528C20.572 14.6411 21.2048 14.02 21.2048 13.27C21.2048 12.52 20.5603 11.8872 19.822 11.8872C19.072 11.8872 18.4275 12.52 18.4275 13.27ZM11.3259 23.2427H13.2127V16.8911H11.3259V23.2427ZM2.52515 24.1802H22.0134C22.5291 24.1802 22.9627 23.7583 22.9627 23.2427C22.9627 22.7271 22.5291 22.2935 22.0134 22.2935H2.52515C2.00952 22.2935 1.58765 22.7271 1.58765 23.2427C1.58765 23.7583 2.00952 24.1802 2.52515 24.1802ZM12.2752 25.9849C13.7634 25.9849 14.9939 24.7544 14.9939 23.2544C14.9939 21.7661 13.7634 20.5357 12.2752 20.5357C10.7752 20.5357 9.54468 21.7661 9.54468 23.2544C9.54468 24.7544 10.7752 25.9849 12.2752 25.9849Z" fill="black" fill-opacity="0.85"/>
</g>
<defs>
<clipPath id="clip0_2207_720">
<rect width="24.8438" height="26.168" fill="white" transform="translate(0.0524902 0.0629883)"/>
</clipPath>
</defs>
</svg>
