<svg width="24" height="24" viewBox="0 0 24 24" fill="none" xmlns="http://www.w3.org/2000/svg">
<g clip-path="url(#clip0_2207_18435)">
<path d="M12.0412 23.981C18.5803 23.981 23.9943 18.5669 23.9943 12.0278C23.9943 5.50049 18.5686 0.074707 12.0295 0.074707C5.50219 0.074707 0.0881348 5.50049 0.0881348 12.0278C0.0881348 18.5669 5.51392 23.981 12.0412 23.981Z" fill="black" fill-opacity="0.85"/>
<path d="M12.0412 16.9849C7.43579 16.9849 4.14282 13.2114 4.14282 12.0396C4.14282 10.856 7.40063 7.09424 12.0412 7.09424C16.6819 7.09424 19.9279 10.856 19.9279 12.0396C19.9279 13.2114 16.6936 16.9849 12.0412 16.9849ZM12.0412 15.2739C13.8342 15.2739 15.2873 13.7974 15.2873 12.0396C15.2873 10.2349 13.8342 8.80518 12.0412 8.80518C10.2365 8.80518 8.78344 10.2349 8.79516 12.0396C8.79516 13.7974 10.2365 15.2739 12.0412 15.2739ZM12.0529 13.4692C11.2795 13.4692 10.6115 12.7896 10.6115 12.0396C10.6115 11.2778 11.2795 10.6099 12.0529 10.6099C12.8147 10.6099 13.4709 11.2778 13.4709 12.0396C13.4709 12.7896 12.8147 13.4692 12.0529 13.4692Z" fill="white"/>
</g>
<defs>
<clipPath id="clip0_2207_18435">
<rect width="23.9062" height="23.918" fill="white" transform="translate(0.0881348 0.0629883)"/>
</clipPath>
</defs>
</svg>
