<svg width="24" height="24" viewBox="0 0 24 24" fill="none" xmlns="http://www.w3.org/2000/svg">
<g clip-path="url(#clip0_2207_18462)">
<path d="M12.0476 23.9692C18.5867 23.9692 24.0007 18.5435 24.0007 12.0161C24.0007 5.47705 18.575 0.0629883 12.0359 0.0629883C5.50854 0.0629883 0.0944824 5.47705 0.0944824 12.0161C0.0944824 18.5435 5.52026 23.9692 12.0476 23.9692ZM12.0476 21.9771C6.51636 21.9771 2.09839 17.5474 2.09839 12.0161C2.09839 6.48487 6.50464 2.05518 12.0359 2.05518C17.5672 2.05518 22.0086 6.48487 22.0086 12.0161C22.0086 17.5474 17.5789 21.9771 12.0476 21.9771Z" fill="black" fill-opacity="0.85"/>
<path d="M12.0359 16.9732C16.6883 16.9732 19.9226 13.1997 19.9226 12.0278C19.9226 10.8442 16.6765 7.0708 12.0359 7.0708C7.39526 7.0708 4.13745 10.8442 4.13745 12.0278C4.13745 13.1997 7.43042 16.9732 12.0359 16.9732ZM12.0359 15.2622C10.2312 15.2622 8.78979 13.7857 8.78979 12.0278C8.77807 10.2114 10.2312 8.78174 12.0359 8.78174C13.8289 8.78174 15.282 10.2114 15.282 12.0278C15.282 13.7857 13.8289 15.2622 12.0359 15.2622Z" fill="black" fill-opacity="0.85"/>
<path d="M16.7468 18.6372C17.2859 19.1646 18.1531 19.1763 18.6687 18.6372C19.2195 18.0982 19.2078 17.2661 18.6687 16.7271L7.32495 5.3833C6.78589 4.84424 5.93042 4.84424 5.40307 5.3833C4.86401 5.91065 4.86401 6.77783 5.40307 7.30518L16.7468 18.6372Z" fill="white"/>
<path d="M17.3328 18.063C17.532 18.2622 17.8836 18.2622 18.0828 18.063C18.2937 17.8403 18.2937 17.5239 18.0828 17.313L6.75077 5.96924C6.53983 5.7583 6.19999 5.7583 5.98905 5.96924C5.77811 6.16846 5.78983 6.52002 5.98905 6.71924L17.3328 18.063Z" fill="black" fill-opacity="0.85"/>
</g>
<defs>
<clipPath id="clip0_2207_18462">
<rect width="23.9062" height="23.918" fill="white" transform="translate(0.0944824 0.0629883)"/>
</clipPath>
</defs>
</svg>
