<svg width="24" height="24" viewBox="0 0 24 24" fill="none" xmlns="http://www.w3.org/2000/svg">
<g clip-path="url(#clip0_2207_18430)">
<path d="M12.0393 23.9692C18.5784 23.9692 23.9924 18.5435 23.9924 12.0161C23.9924 5.47705 18.5667 0.0629883 12.0276 0.0629883C5.50024 0.0629883 0.0861816 5.47705 0.0861816 12.0161C0.0861816 18.5435 5.51196 23.9692 12.0393 23.9692ZM12.0393 21.9771C6.50806 21.9771 2.09009 17.5474 2.09009 12.0161C2.09009 6.48487 6.49634 2.05518 12.0276 2.05518C17.5589 2.05518 22.0003 6.48487 22.0003 12.0161C22.0003 17.5474 17.5706 21.9771 12.0393 21.9771Z" fill="black" fill-opacity="0.85"/>
<path d="M12.0276 16.9732C16.68 16.9732 19.9143 13.1997 19.9143 12.0278C19.9143 10.8442 16.6682 7.0708 12.0276 7.0708C7.38696 7.0708 4.12915 10.8442 4.12915 12.0278C4.12915 13.1997 7.42212 16.9732 12.0276 16.9732ZM12.0276 15.2622C10.2229 15.2622 8.78149 13.7857 8.78149 12.0278C8.76977 10.2114 10.2229 8.78174 12.0276 8.78174C13.8206 8.78174 15.2737 10.2114 15.2737 12.0278C15.2737 13.7857 13.8206 15.2622 12.0276 15.2622ZM12.0393 13.4458C12.801 13.4458 13.4573 12.7778 13.4573 12.0278C13.4573 11.2661 12.801 10.5982 12.0393 10.5982C11.2659 10.5982 10.5979 11.2661 10.5979 12.0278C10.5979 12.7778 11.2659 13.4458 12.0393 13.4458Z" fill="black" fill-opacity="0.85"/>
</g>
<defs>
<clipPath id="clip0_2207_18430">
<rect width="23.9062" height="23.918" fill="white" transform="translate(0.0861816 0.0629883)"/>
</clipPath>
</defs>
</svg>
