<svg width="25" height="25" viewBox="0 0 25 25" fill="none" xmlns="http://www.w3.org/2000/svg">
<g clip-path="url(#clip0_2207_10520)">
<path d="M15.5986 10.7872L13.9111 12.4747C13.4893 12.8848 12.9619 13.0137 12.5518 12.5801C12.1182 12.1114 12.2119 11.6895 12.6807 11.209L14.333 9.49805L13.3252 8.50196L3.85645 17.9707C0.235351 21.5918 1.98145 21.0293 0.0126953 23.8067L1.06739 24.92C3.75098 22.9629 3.3877 24.8848 7.06739 21.2168L16.5713 11.7715L15.5986 10.7872ZM18.3877 12.9083L18.7158 12.545C19.29 11.9473 19.3252 11.2442 18.7041 10.6348L18.3525 10.295C20.1455 8.68946 22.1377 8.4668 23.3682 7.2129C25.1143 5.45508 24.5518 2.99415 23.3213 1.76368C22.1025 0.521489 19.665 -0.00585449 17.8721 1.7168C16.6065 2.93555 16.3955 4.93946 14.79 6.73243L14.4502 6.38087C13.8525 5.77149 13.1377 5.79493 12.54 6.36915L12.1885 6.69727C11.4619 7.38868 11.6025 7.99805 12.2119 8.61915L16.4658 12.8731C17.0869 13.4942 17.708 13.6231 18.3877 12.9083Z" fill="black" fill-opacity="0.85"/>
</g>
<defs>
<clipPath id="clip0_2207_10520">
<rect width="24.4597" height="24.8555" fill="white" transform="translate(0.0126953 0.0644531)"/>
</clipPath>
</defs>
</svg>
