<svg width="25" height="25" viewBox="0 0 25 25" fill="none" xmlns="http://www.w3.org/2000/svg">
<g clip-path="url(#clip0_2207_10516)">
<path d="M15.6005 10.7872L10.4794 15.9083C10.0693 16.3184 9.53027 16.4473 9.12012 16.0137C8.69824 15.545 8.79199 15.1114 9.24903 14.6426L14.3349 9.49805L13.3271 8.50196L3.8584 17.9707C0.237304 21.5918 1.9834 21.0293 0.0146484 23.8067L1.06934 24.92C3.75293 22.9629 3.38965 24.8848 7.06934 21.2168L16.5732 11.7715L15.6005 10.7872ZM18.3896 12.9083L18.7177 12.545C19.2919 11.9473 19.3271 11.2442 18.706 10.6348L18.3544 10.295C20.1474 8.68946 22.1396 8.4668 23.3701 7.2129C25.1162 5.45508 24.5537 2.99415 23.3232 1.76368C22.1044 0.521489 19.6669 -0.00585449 17.874 1.7168C16.6084 2.93555 16.3974 4.93946 14.7919 6.73243L14.4521 6.38087C13.8544 5.77149 13.1396 5.79493 12.5419 6.36915L12.1904 6.69727C11.4638 7.38868 11.6044 7.99805 12.2138 8.61915L16.4677 12.8731C17.0888 13.4942 17.7099 13.6231 18.3896 12.9083Z" fill="black" fill-opacity="0.85"/>
</g>
<defs>
<clipPath id="clip0_2207_10516">
<rect width="24.4597" height="24.8555" fill="white" transform="translate(0.0146484 0.0644531)"/>
</clipPath>
</defs>
</svg>
