<svg width="28" height="22" viewBox="0 0 28 22" fill="none" xmlns="http://www.w3.org/2000/svg">
<g clip-path="url(#clip0_2207_18486)">
<path d="M6.44288 21.4278C10.0054 21.4278 12.853 17.0918 12.853 10.7403C12.853 4.37695 10.0054 0.0644531 6.44288 0.0644531C2.86866 0.0644531 0.0209961 4.37695 0.0209961 10.7403C0.0209961 17.0918 2.86866 21.4278 6.44288 21.4278ZM6.44288 19.7754C3.87647 19.7872 1.7085 16.1075 1.7085 10.7403C1.7085 5.4082 3.87647 1.74023 6.44288 1.71679C9.03272 1.70507 11.2007 5.37304 11.2007 10.7403C11.2007 16.0723 9.03272 19.752 6.44288 19.7754ZM3.91162 14.877C5.86866 14.877 7.16944 13.5176 7.16944 11.4551C7.16944 9.42773 5.86866 8.05664 3.91162 8.05664C1.94288 8.05664 0.64209 9.42773 0.64209 11.4551C0.64209 13.5176 1.94288 14.877 3.91162 14.877ZM2.98584 11.0567C2.56397 10.9981 2.30616 10.4942 2.39991 9.97851C2.50538 9.47461 2.90381 9.09961 3.30225 9.18164C3.72412 9.26367 3.98194 9.74414 3.87647 10.2481C3.78272 10.7637 3.396 11.127 2.98584 11.0567ZM20.9976 21.4278C24.5718 21.4278 27.4194 17.0918 27.4194 10.7403C27.4194 4.37695 24.5718 0.0644531 20.9976 0.0644531C17.4351 0.0644531 14.5874 4.37695 14.5874 10.7403C14.5874 17.0918 17.4351 21.4278 20.9976 21.4278ZM20.9976 19.7637C18.4194 19.7637 16.2398 16.0957 16.2398 10.7403C16.2398 5.4082 18.4077 1.74023 20.9976 1.72851C23.564 1.72851 25.7437 5.39648 25.7437 10.7403C25.7437 16.084 23.564 19.752 20.9976 19.7637ZM18.4546 14.877C20.4116 14.877 21.7358 13.5176 21.7358 11.4551C21.7358 9.42773 20.4116 8.05664 18.4546 8.05664C16.4976 8.05664 15.1851 9.42773 15.1851 11.4551C15.1851 13.5176 16.4976 14.877 18.4546 14.877ZM17.5288 11.0567C17.1187 10.9864 16.8491 10.4942 16.9546 9.97851C17.0601 9.47461 17.4468 9.09961 17.8569 9.18164C18.2788 9.25195 18.5249 9.74414 18.4194 10.2481C18.3257 10.7637 17.939 11.127 17.5288 11.0567Z" fill="black" fill-opacity="0.85"/>
</g>
<defs>
<clipPath id="clip0_2207_18486">
<rect width="27.3984" height="21.3633" fill="white" transform="translate(0.0209961 0.0644531)"/>
</clipPath>
</defs>
</svg>
