<svg width="24" height="24" viewBox="0 0 24 24" fill="none" xmlns="http://www.w3.org/2000/svg">
<g clip-path="url(#clip0_2207_24926)">
<path d="M11.9782 23.9707C18.5173 23.9707 23.9313 18.545 23.9313 12.0176C23.9313 5.47851 18.5056 0.0644531 11.9665 0.0644531C5.43921 0.0644531 0.0251465 5.47851 0.0251465 12.0176C0.0251465 18.545 5.45093 23.9707 11.9782 23.9707ZM11.9782 21.9786C6.44703 21.9786 2.02906 17.5489 2.02906 12.0176C2.02906 6.48633 6.43531 2.05664 11.9665 2.05664C17.4978 2.05664 21.9392 6.48633 21.9392 12.0176C21.9392 17.5489 17.5095 21.9786 11.9782 21.9786Z" fill="black" fill-opacity="0.85"/>
<path d="M9.38843 17.3847C9.99781 17.3847 10.3259 16.9746 10.3259 16.33V12.6972H14.5563C15.0134 12.6972 15.3415 12.4511 15.3415 11.9824C15.3415 11.5019 15.0134 11.2324 14.5563 11.2324H10.3259V8.10351H15.0134C15.4704 8.10351 15.7985 7.79883 15.7985 7.33007C15.7985 6.84961 15.4704 6.56836 15.0134 6.56836H9.37671C8.77906 6.56836 8.46265 6.99023 8.46265 7.62304V16.33C8.46265 16.9511 8.77906 17.3847 9.38843 17.3847Z" fill="black" fill-opacity="0.85"/>
</g>
<defs>
<clipPath id="clip0_2207_24926">
<rect width="23.9062" height="23.918" fill="white" transform="translate(0.0251465 0.0644531)"/>
</clipPath>
</defs>
</svg>
