<svg width="24" height="24" viewBox="0 0 24 24" fill="none" xmlns="http://www.w3.org/2000/svg">
<g clip-path="url(#clip0_2207_24931)">
<path d="M11.9804 23.9825C18.5195 23.9825 23.9335 18.5684 23.9335 12.0293C23.9335 5.50195 18.5078 0.0761719 11.9687 0.0761719C5.4414 0.0761719 0.0273438 5.50195 0.0273438 12.0293C0.0273438 18.5684 5.45312 23.9825 11.9804 23.9825Z" fill="black" fill-opacity="0.85"/>
<path d="M9.32031 17.5723C8.6875 17.5723 8.35938 17.127 8.35938 16.4707V7.50587C8.35938 6.86134 8.6875 6.4043 9.30859 6.4043H15.1211C15.5898 6.4043 15.9296 6.70899 15.9296 7.2129C15.9296 7.68165 15.5898 7.99805 15.1211 7.99805H10.2929V11.2325H14.6523C15.1211 11.2325 15.4609 11.502 15.4609 11.9942C15.4609 12.4864 15.1211 12.7442 14.6523 12.7442H10.2929V16.4707C10.2929 17.1504 9.95312 17.5723 9.32031 17.5723Z" fill="white"/>
</g>
<defs>
<clipPath id="clip0_2207_24931">
<rect width="23.9062" height="23.918" fill="white" transform="translate(0.0273438 0.0644531)"/>
</clipPath>
</defs>
</svg>
