<svg width="24" height="24" viewBox="0 0 24 24" fill="none" xmlns="http://www.w3.org/2000/svg">
<g clip-path="url(#clip0_2207_22527)">
<path d="M11.9867 23.9707C18.5258 23.9707 23.9398 18.545 23.9398 12.0176C23.9398 5.47851 18.5141 0.0644531 11.975 0.0644531C5.44763 0.0644531 0.0335693 5.47851 0.0335693 12.0176C0.0335693 18.545 5.45935 23.9707 11.9867 23.9707Z" fill="black" fill-opacity="0.85"/>
<path d="M6.92419 17.8653C6.92419 17.3731 7.25232 17.0333 7.73279 17.0333C8.11951 17.0333 8.34216 17.127 9.06873 17.127C10.0062 17.127 10.4867 16.6114 10.6508 15.3575L11.0727 12.3457H8.57654C8.07263 12.3457 7.68591 11.9825 7.68591 11.502C7.68591 10.9864 8.07263 10.6231 8.56482 10.6231H11.3188L11.6352 8.36133C11.9047 6.28711 13.1117 5.15039 15.0336 5.15039C16.3461 5.15039 17.0727 5.49023 17.0727 6.1582C17.0727 6.63867 16.7445 6.96679 16.2641 6.96679C15.9125 6.96679 15.6781 6.88476 14.9281 6.88476C14.0024 6.88476 13.5219 7.40039 13.3578 8.66601L13.0883 10.6231H16.018C16.5453 10.6231 16.932 10.9864 16.932 11.502C16.932 11.9825 16.557 12.3457 16.0297 12.3457H12.8305L12.3734 15.6504C12.0922 17.7481 10.8852 18.8731 8.96326 18.8731C7.62732 18.8731 6.92419 18.5333 6.92419 17.8653Z" fill="white"/>
</g>
<defs>
<clipPath id="clip0_2207_22527">
<rect width="23.9062" height="23.918" fill="white" transform="translate(0.0335693 0.0644531)"/>
</clipPath>
</defs>
</svg>
