<svg width="15" height="21" viewBox="0 0 15 21" fill="none" xmlns="http://www.w3.org/2000/svg">
<g clip-path="url(#clip0_2207_22518)">
<path d="M2.75989 20.7715C5.42004 20.7715 7.17786 19.2481 7.59973 16.1895L9.0763 5.49023C9.36926 3.33398 10.2833 2.43164 11.8888 2.43164C13.0724 2.43164 13.4356 2.58398 13.9161 2.58398C14.42 2.58398 14.7716 2.26757 14.7716 1.71679C14.7716 0.814453 13.4005 0.568359 12.0411 0.568359C9.38098 0.568359 7.62317 2.09179 7.2013 5.15039L5.73645 15.8614C5.44348 18.0176 4.5177 18.9083 2.91223 18.9083C1.74036 18.9083 1.3888 18.7559 0.896607 18.7559C0.380981 18.7559 0.0294189 19.0723 0.0294189 19.6231C0.0294189 20.5372 1.40051 20.7715 2.75989 20.7715ZM2.16223 10.7989H13.5763C14.1388 10.7989 14.5372 10.4122 14.5372 9.87304C14.5372 9.33398 14.1271 8.93554 13.5646 8.93554H2.15051C1.58801 8.93554 1.18958 9.32226 1.18958 9.87304C1.18958 10.4122 1.59973 10.7989 2.16223 10.7989Z" fill="black" fill-opacity="0.85"/>
</g>
<defs>
<clipPath id="clip0_2207_22518">
<rect width="14.7422" height="20.707" fill="white" transform="translate(0.0294189 0.0644531)"/>
</clipPath>
</defs>
</svg>
