<svg width="24" height="24" viewBox="0 0 24 24" fill="none" xmlns="http://www.w3.org/2000/svg">
<g clip-path="url(#clip0_2207_18407)">
<path d="M11.9992 23.9707C18.5383 23.9707 23.9523 18.545 23.9523 12.0176C23.9523 5.47851 18.5266 0.0644531 11.9875 0.0644531C5.4602 0.0644531 0.0461426 5.47851 0.0461426 12.0176C0.0461426 18.545 5.47192 23.9707 11.9992 23.9707Z" fill="black" fill-opacity="0.85"/>
<path d="M11.9992 18.0528C9.46802 18.0528 7.7688 16.3653 7.7688 15.5684C7.7688 15.2754 8.06176 15.1465 8.30786 15.2637C9.19848 15.7325 10.2297 16.295 11.9992 16.295C13.757 16.295 14.8 15.7442 15.6789 15.2637C15.9367 15.1465 16.218 15.2754 16.218 15.5684C16.218 16.3653 14.5188 18.0528 11.9992 18.0528ZM8.41333 10.9161C7.65161 10.9161 6.99536 10.2247 6.99536 9.26367C6.99536 8.27929 7.65161 7.58789 8.41333 7.58789C9.18676 7.58789 9.86645 8.27929 9.86645 9.26367C9.86645 10.2247 9.18676 10.9161 8.41333 10.9161ZM15.5734 10.9161C14.8117 10.9161 14.1555 10.2247 14.1555 9.26367C14.1555 8.27929 14.8117 7.58789 15.5734 7.58789C16.3469 7.58789 17.0266 8.27929 17.0266 9.26367C17.0266 10.2247 16.3469 10.9161 15.5734 10.9161Z" fill="white"/>
</g>
<defs>
<clipPath id="clip0_2207_18407">
<rect width="23.9062" height="23.918" fill="white" transform="translate(0.0461426 0.0644531)"/>
</clipPath>
</defs>
</svg>
