<svg width="26" height="26" viewBox="0 0 26 26" fill="none" xmlns="http://www.w3.org/2000/svg">
<g clip-path="url(#clip0_2207_10974)">
<path d="M12.6524 17.1153C15.1016 17.1153 17.1055 15.1231 17.1055 12.6739C17.1055 10.2247 15.1016 8.2207 12.6524 8.2207C10.2031 8.2207 8.21094 10.2247 8.21094 12.6739C8.21094 15.1231 10.2031 17.1153 12.6524 17.1153ZM12.6524 15.3106C11.1992 15.3106 10.0156 14.127 10.0156 12.6739C10.0156 11.2207 11.1992 10.0254 12.6524 10.0254C14.1055 10.0254 15.3008 11.2207 15.3008 12.6739C15.3008 14.127 14.1055 15.3106 12.6524 15.3106ZM12.6524 14.3379C13.5899 14.3379 14.3281 13.5997 14.3281 12.6739C14.3281 11.7481 13.5781 10.9864 12.6524 10.9864C11.7149 10.9864 10.9766 11.7247 10.9766 12.6739C10.9766 13.6114 11.7149 14.3379 12.6524 14.3379ZM11.8086 9.07617V3.41601C11.8086 1.25976 10.6485 0.0644531 8.5625 0.0644531C4.8125 0.0761719 0.898438 3.46289 0.898438 6.77929C0.898438 9.80273 3.71094 11.4903 8.58594 13.0957L9.33594 11.3965C5.03516 9.96679 2.69141 8.86523 2.69141 6.77929C2.69141 4.43554 5.79688 1.85742 8.5625 1.85742C9.65235 1.85742 10.0156 2.25586 10.0156 3.41601V9.59179L11.8086 9.07617ZM16.25 11.8184H21.9219C24.0781 11.8184 25.2617 10.67 25.2617 8.58398C25.2617 4.83398 21.8633 0.908203 18.5469 0.908203C15.5235 0.908203 13.8359 3.73242 12.2305 8.61914L13.9297 9.36914C15.3594 5.06836 16.4609 2.70117 18.5469 2.70117C20.8906 2.70117 23.4688 5.81836 23.4688 8.58398C23.4688 9.67383 23.082 10.0254 21.9219 10.0254H15.7344L16.25 11.8184ZM13.5078 16.2715V21.9434C13.5078 24.0997 14.6563 25.2833 16.7422 25.2833C20.5039 25.2833 24.418 21.8848 24.418 18.5684C24.418 15.545 21.5938 13.8575 16.7188 12.252L15.9688 13.9512C20.2695 15.3809 22.625 16.4825 22.625 18.5684C22.625 20.9122 19.5195 23.4903 16.7422 23.4786C15.6524 23.4786 15.3008 23.1036 15.3008 21.9434V15.7559L13.5078 16.2715ZM9.05469 13.5176H3.38281C1.23828 13.5176 0.0546875 14.6778 0.0546875 16.7637C0.0546875 20.5254 3.44141 24.4395 6.75781 24.4395C9.78125 24.4395 11.4688 21.6153 13.0742 16.7403L11.375 15.9903C9.94531 20.2911 8.84375 22.6348 6.75781 22.6348C4.41407 22.6348 1.84766 19.5411 1.84766 16.7637C1.84766 15.6739 2.22266 15.3106 3.38281 15.3106H9.57031L9.05469 13.5176Z" fill="black" fill-opacity="0.85"/>
</g>
<defs>
<clipPath id="clip0_2207_10974">
<rect width="25.207" height="25.2305" fill="white" transform="translate(0.0546875 0.0644531)"/>
</clipPath>
</defs>
</svg>
