<svg width="25" height="29" viewBox="0 0 25 29" fill="none" xmlns="http://www.w3.org/2000/svg">
<g clip-path="url(#clip0_2207_10964)">
<path d="M12.1384 28.8339C19.0056 28.8339 24.2087 27.3691 24.2087 24.8613C24.2087 23.2792 22.1228 22.1074 18.7946 21.4628L17.7868 23.0449C20.6931 23.455 22.4392 24.1582 22.4392 24.8613C22.4392 25.9394 18.279 27.0644 12.1384 27.0644C6.00952 27.0644 1.84936 25.9394 1.84936 24.8613C1.84936 24.1582 3.59545 23.455 6.50171 23.0449L5.48217 21.4628C2.16577 22.1074 0.079834 23.2792 0.079834 24.8613C0.079834 27.3691 5.28295 28.8339 12.1384 28.8339ZM4.57983 20.9824L5.75171 23.7363C5.92749 24.1347 6.41967 24.2167 6.73608 23.748L8.18921 21.6269C8.47045 21.2167 8.36499 20.7363 7.82592 20.6308L5.2478 20.1855C4.67358 20.08 4.40405 20.5605 4.57983 20.9824ZM19.7087 20.9824C19.8845 20.5605 19.6032 20.08 19.0407 20.1855L16.4626 20.6308C15.9236 20.7363 15.8181 21.2167 16.0876 21.6269L17.5525 23.748C17.8689 24.2167 18.3493 24.1347 18.5251 23.7363L19.7087 20.9824Z" fill="black" fill-opacity="0.85"/>
<path d="M11.6228 7.02539V2.74804C11.6228 1.01367 10.7321 0.0878906 9.04467 0.0878906C6.20874 0.111328 3.23217 2.65429 3.23217 5.12695C3.23217 7.51757 5.52905 8.7832 9.19702 10.1309L9.9353 8.46679C6.73608 7.24804 5.00171 6.5332 5.00171 5.12695C5.00171 3.62695 7.14624 1.85742 9.04467 1.85742C9.73608 1.85742 9.84155 1.95117 9.84155 2.74804V7.55273L11.6228 7.02539ZM14.6579 8.99414H18.9236C20.6462 8.99414 21.5837 8.10351 21.5837 6.43945C21.5837 3.59179 19.0056 0.615234 16.5329 0.615234C14.154 0.615234 12.8767 2.91211 11.5525 6.58007L13.2165 7.33007C14.4118 4.11914 15.1267 2.38476 16.5329 2.38476C18.0446 2.38476 19.8025 4.51757 19.8025 6.43945C19.8025 7.13086 19.7321 7.21289 18.9236 7.21289H14.1189L14.6579 8.99414ZM12.6892 12.0411V16.3184C12.6892 18.0528 13.5681 18.9551 15.2439 18.9551C18.0915 18.9551 21.0681 16.4004 21.0681 13.9278C21.0681 11.5372 18.7712 10.2715 15.1032 8.93554L14.3532 10.5879C17.5525 11.8067 19.2986 12.5215 19.2986 13.9278C19.2986 15.4278 17.1423 17.1973 15.2439 17.1739C14.5407 17.1739 14.4704 17.1036 14.4704 16.3184V11.5137L12.6892 12.0411ZM9.63061 10.0488H5.36499C3.63061 10.0488 2.71655 10.9512 2.71655 12.6153C2.71655 15.4747 5.27124 18.4395 7.75561 18.4395C10.1462 18.4395 11.4118 16.1543 12.7478 12.4747L11.0837 11.7247C9.86499 14.9473 9.16186 16.6583 7.75561 16.6583C6.23217 16.6583 4.4978 14.5372 4.4978 12.6153C4.4978 11.9122 4.57983 11.8301 5.36499 11.8301H10.1696L9.63061 10.0488ZM12.1384 12.8497C13.9782 12.8497 15.49 11.3731 15.49 9.5332C15.49 7.68164 13.9782 6.19336 12.1384 6.19336C10.2986 6.19336 8.8103 7.68164 8.8103 9.5332C8.8103 11.3731 10.2986 12.8497 12.1384 12.8497ZM12.1384 11.1036C11.2595 11.1036 10.5564 10.4122 10.5564 9.5332C10.5564 8.64257 11.2595 7.93945 12.1384 7.93945C13.0173 7.93945 13.7439 8.64257 13.7439 9.5332C13.7439 10.4122 13.0173 11.1036 12.1384 11.1036Z" fill="black" fill-opacity="0.85"/>
</g>
<defs>
<clipPath id="clip0_2207_10964">
<rect width="24.1289" height="28.7695" fill="white" transform="translate(0.079834 0.0644531)"/>
</clipPath>
</defs>
</svg>
