<svg width="35" height="21" viewBox="0 0 35 21" fill="none" xmlns="http://www.w3.org/2000/svg">
<g clip-path="url(#clip0_2207_9702)">
<path d="M1.21104 11.877L14.922 19.295C16.0001 19.8809 16.6798 20.1973 17.4532 20.1973C18.2266 20.1973 18.9063 19.8809 19.9845 19.295L33.6954 11.877C34.8087 11.2793 35.1602 9.93164 34.4102 8.84179C30.6251 3.50976 24.3673 0.0644531 17.4532 0.0644531C10.5391 0.0644531 4.28136 3.50976 0.496202 8.84179C-0.253798 9.93164 0.0977643 11.2793 1.21104 11.877ZM2.39464 10.4004C2.10167 10.2247 2.03136 9.93164 2.26573 9.61523C5.7462 4.85742 11.172 1.95117 17.4532 1.95117C23.7462 1.95117 29.1954 4.86914 32.6641 9.63867C32.8751 9.94336 32.8048 10.2247 32.5118 10.4004L18.8946 17.7481C18.3087 18.0645 17.9102 18.2286 17.4532 18.2286C16.9962 18.2286 16.5977 18.0645 16.0118 17.7481L2.39464 10.4004Z" fill="black" fill-opacity="0.85"/>
</g>
<defs>
<clipPath id="clip0_2207_9702">
<rect width="34.7092" height="20.5898" fill="white" transform="translate(0.0986328 0.0644531)"/>
</clipPath>
</defs>
</svg>
