<svg width="35" height="21" viewBox="0 0 35 21" fill="none" xmlns="http://www.w3.org/2000/svg">
<g id="field.of.view.ultrawide" clip-path="url(#clip0_2201_878)">
<g id="Group">
<path id="Vector" d="M1.11241 11.8125L14.8234 19.2305C15.9015 19.8164 16.5812 20.1328 17.3546 20.1328C18.128 20.1328 18.8077 19.8164 19.8859 19.2305L33.5968 11.8125C34.7101 11.2148 35.0616 9.86719 34.3116 8.77734C30.5265 3.44531 24.2687 0 17.3546 0C10.4405 0 4.18273 3.44531 0.397569 8.77734C-0.352431 9.86719 -0.000868559 11.2148 1.11241 11.8125ZM2.29601 10.3359C2.00304 10.1602 1.93273 9.86719 2.1671 9.55078C5.64757 4.79297 11.0734 1.88672 17.3546 1.88672C23.6476 1.88672 29.0968 4.80469 32.5655 9.57422C32.7765 9.87891 32.7062 10.1602 32.4132 10.3359L18.796 17.6836C18.2101 18 17.8116 18.1641 17.3546 18.1641C16.8976 18.1641 16.4991 18 15.9132 17.6836L2.29601 10.3359Z" fill="black" fill-opacity="0.85"/>
</g>
</g>
<defs>
<clipPath id="clip0_2201_878">
<rect width="34.7092" height="20.5898" fill="white"/>
</clipPath>
</defs>
</svg>
