<svg width="24" height="29" viewBox="0 0 24 29" fill="none" xmlns="http://www.w3.org/2000/svg">
<g clip-path="url(#clip0_2207_2681)">
<path d="M10.938 5.1753C12.3443 5.1753 13.481 4.03858 13.481 2.60889C13.481 1.20264 12.3443 0.065918 10.938 0.065918C9.50836 0.065918 8.37165 1.20264 8.37165 2.60889C8.37165 4.03858 9.50836 5.1753 10.938 5.1753ZM0.461486 27.8862C0.953674 28.3081 1.7154 28.2847 2.17243 27.769L6.3443 22.9995C6.56696 22.7417 6.69586 22.4604 6.73102 22.1323L7.25836 16.9995C7.27008 16.8237 7.45758 16.7534 7.57477 16.894L10.938 20.7729V26.9721C10.938 27.6401 11.4771 28.1909 12.1568 28.1909C12.813 28.1909 13.3755 27.6401 13.3755 26.9721V20.3745C13.3755 20.0464 13.2701 19.8237 13.1177 19.6011L9.55524 14.3979L11.2896 9.21826C11.3833 8.93701 11.5708 8.83154 11.8521 8.83154H21.2271C21.8833 8.83154 22.4458 8.29248 22.4458 7.62451C22.4458 6.95654 21.8833 6.40576 21.2271 6.40576H7.10602C6.12165 6.40576 5.32477 6.68701 4.5279 7.47217L2.2193 9.8042C1.44586 10.5893 1.86774 11.8667 2.93415 11.8667H5.11383L4.64508 13.2612C4.39899 14.0112 4.2818 14.7847 4.2818 15.5464V21.687L0.344299 26.1753C-0.101014 26.6792 -0.0541383 27.4409 0.461486 27.8862ZM21.2271 10.062C22.2232 10.062 23.0435 9.2417 23.0435 8.22217C23.0435 7.22608 22.2232 6.40576 21.2271 6.40576C20.2076 6.40576 19.3873 7.22608 19.3873 8.22217C19.3873 9.2417 20.2076 10.062 21.2271 10.062Z" fill="black" fill-opacity="0.85"/>
</g>
<defs>
<clipPath id="clip0_2207_2681">
<rect width="23.0036" height="28.1602" fill="white" transform="translate(0.039917 0.065918)"/>
</clipPath>
</defs>
</svg>
