<svg width="20" height="30" viewBox="0 0 20 30" fill="none" xmlns="http://www.w3.org/2000/svg">
<g clip-path="url(#clip0_2207_2917)">
<path d="M6.82813 9.63086C8.23438 9.63086 9.39453 8.48242 9.39453 7.05274C9.39453 5.64648 8.23438 4.50977 6.82813 4.50977C5.41016 4.50977 4.27344 5.64648 4.27344 7.05274C4.27344 8.48242 5.41016 9.63086 6.82813 9.63086ZM0.0546875 15.3379C0.0546875 16.252 1.00391 16.6856 1.74219 16.3106L5.84375 14.2481C6.04297 14.1426 6.26563 14.2598 6.3125 14.4707L7.50781 19.252L5.63281 23.9395H1.21485C0.582031 23.9395 0.0546875 24.4551 0.0546875 25.0879C0.0546875 25.7207 0.582031 26.2364 1.21485 26.2364H6.34766C6.875 26.2364 7.20313 26.0254 7.46094 25.5567L9.95703 20.9395L11.3516 24.6192L6.92188 27.5957C6.39453 27.9473 6.24219 28.6856 6.59375 29.1895C6.94531 29.7051 7.61328 29.8809 8.1875 29.4942L13.4258 26.0137C13.8242 25.7559 14.0117 25.3692 13.8359 24.6661L10.7422 12.3028C10.6719 12.045 10.7422 11.8106 11.0352 11.6582L19.0274 7.66211C19.6016 7.39258 19.8359 6.68945 19.543 6.11524C19.25 5.54102 18.5703 5.31836 17.9961 5.59961L2.36328 13.4161V9.51367C2.36328 8.88086 1.85938 8.36524 1.21485 8.36524C0.582031 8.36524 0.0546875 8.88086 0.0546875 9.51367V15.3379ZM16.2149 4.60352C17.4688 4.60352 18.4766 3.5957 18.4766 2.3418C18.4766 1.09961 17.4688 0.0683594 16.2149 0.0683594C14.9492 0.0683594 13.9414 1.09961 13.9414 2.3418C13.9414 3.5957 14.9492 4.60352 16.2149 4.60352Z" fill="black" fill-opacity="0.85"/>
</g>
<defs>
<clipPath id="clip0_2207_2917">
<rect width="19.6147" height="29.8477" fill="white" transform="translate(0.0546875 0.0683594)"/>
</clipPath>
</defs>
</svg>
