<svg width="30" height="24" viewBox="0 0 30 24" fill="none" xmlns="http://www.w3.org/2000/svg">
<g clip-path="url(#clip0_2207_2837)">
<path d="M19.8168 5.18823C21.2348 5.18823 22.3833 4.0398 22.3833 2.62183C22.3833 1.20386 21.2348 0.0671387 19.8168 0.0671387C18.3989 0.0671387 17.2622 1.20386 17.2622 2.62183C17.2622 4.0398 18.3989 5.18823 19.8168 5.18823ZM11.5903 23.0241C12.1176 23.2116 12.7739 23.0827 13.1137 22.3913L16.1137 16.3913C16.3481 15.9343 16.2895 15.3952 15.8911 15.0085L12.27 11.3757L16.852 9.09058C17.0629 8.97339 17.309 9.03198 17.4731 9.19605L20.2036 11.903C20.4145 12.114 20.7192 12.2546 21.0356 12.2546H26.4497C27.1059 12.2546 27.645 11.7273 27.645 11.0476C27.645 10.3913 27.1059 9.8523 26.4497 9.8523H21.5278L16.477 4.7898C15.8794 4.19214 15.059 3.8523 14.2036 3.8523H4.23095C3.5747 3.8523 3.03564 4.39136 3.03564 5.04761C3.03564 5.71558 3.5747 6.25464 4.23095 6.25464H11.7544C11.8833 6.25464 11.9301 6.45386 11.8129 6.51245L9.5747 7.62573C8.39111 8.21167 7.79345 9.32495 7.79345 10.4499C7.79345 11.4226 8.22705 12.3835 9.11767 13.028L13.5122 16.2273L10.9692 21.3249C10.5708 22.1335 10.9926 22.7898 11.5903 23.0241ZM1.23095 18.2546H7.23095C7.6997 18.2546 8.10986 17.9851 8.3208 17.5983L9.68017 14.8444L8.46142 13.9421C8.02783 13.6257 7.65283 13.239 7.37158 12.8405L6.3872 15.8523H1.23095C0.574707 15.8523 0.0356445 16.3913 0.0356445 17.0476C0.0356445 17.7038 0.574707 18.2546 1.23095 18.2546ZM27.0122 0.664795C25.4184 0.664795 24.27 1.80152 24.27 3.39526C24.27 5.68042 26.3208 8.2937 26.5317 8.51636H27.4809C27.7036 8.2937 29.7544 5.68042 29.7544 3.39526C29.7544 1.80152 28.6059 0.664795 27.0122 0.664795ZM27.0122 1.96558C27.8559 1.96558 28.4536 2.57495 28.4536 3.39526C28.4536 4.53198 27.5864 6.05542 27.0122 6.9812C26.4379 6.05542 25.5708 4.53198 25.5708 3.39526C25.5708 2.57495 26.1684 1.96558 27.0122 1.96558ZM26.3559 11.0476H27.645V8.04761H26.3559V11.0476Z" fill="black" fill-opacity="0.85"/>
</g>
<defs>
<clipPath id="clip0_2207_2837">
<rect width="29.7188" height="23.0977" fill="white" transform="translate(0.0356445 0.0671387)"/>
</clipPath>
</defs>
</svg>
