<svg width="24" height="28" viewBox="0 0 24 28" fill="none" xmlns="http://www.w3.org/2000/svg">
<g clip-path="url(#clip0_2207_2677)">
<path d="M18.7995 5.1753C20.2058 5.1753 21.3425 4.03858 21.3425 2.60889C21.3425 1.20264 20.2058 0.065918 18.7995 0.065918C17.3698 0.065918 16.2331 1.20264 16.2331 2.60889C16.2331 4.03858 17.3698 5.1753 18.7995 5.1753ZM9.74096 15.0542L15.7058 19.6011L13.8542 25.3198C13.5847 26.1401 14.1003 26.7261 14.7214 26.8784C15.2722 27.0073 15.9167 26.7729 16.1628 25.9995L18.237 19.5893C18.3894 19.1206 18.3073 18.6167 17.9792 18.3003L13.9714 14.2925L18.5769 9.6753C18.7761 9.47608 19.0808 9.47608 19.28 9.6753L20.8737 11.2573L18.694 13.437C18.2136 13.9292 18.2253 14.6909 18.694 15.1597C19.1394 15.5932 19.9245 15.6401 20.405 15.1597L23.4401 12.1245C23.9206 11.644 23.9089 10.894 23.4401 10.4136L20.5105 7.46045C19.8073 6.75733 18.9636 6.40576 17.9558 6.40576H3.88159C3.22534 6.40576 2.67456 6.94483 2.67456 7.6128C2.67456 8.28076 3.22534 8.83154 3.88159 8.83154H11.9675C12.3776 8.83154 12.5651 9.25342 12.2722 9.54639L9.92846 11.8901C8.87378 12.9448 9.02612 14.5151 9.74096 15.0542ZM9.3894 16.2026L8.80346 19.7651H3.19018C2.49878 19.7651 1.95972 20.3042 1.95972 20.9839C1.95972 21.6518 2.49878 22.1909 3.19018 22.1909H9.77612C10.4089 22.1909 10.8308 21.8745 10.9948 21.312L11.944 18.1597L9.3894 16.2026ZM2.67456 12.8862C4.11596 12.8862 5.31128 11.7026 5.31128 10.2495C5.31128 8.80811 4.11596 7.6128 2.67456 7.6128C1.22143 7.6128 0.0378418 8.80811 0.0378418 10.2495C0.0378418 11.7026 1.22143 12.8862 2.67456 12.8862Z" fill="black" fill-opacity="0.85"/>
</g>
<defs>
<clipPath id="clip0_2207_2677">
<rect width="23.7583" height="26.9648" fill="white" transform="translate(0.0378418 0.065918)"/>
</clipPath>
</defs>
</svg>
