<svg width="26" height="30" viewBox="0 0 26 30" fill="none" xmlns="http://www.w3.org/2000/svg">
<g clip-path="url(#clip0_2207_2721)">
<path d="M19.2473 5.3418C20.6418 5.3418 21.802 4.19336 21.802 2.78711C21.802 1.38086 20.6418 0.220703 19.2473 0.220703C17.841 0.220703 16.6809 1.38086 16.6809 2.78711C16.6809 4.19336 17.841 5.3418 19.2473 5.3418ZM14.7004 21.7832C15.3801 21.7832 15.8957 21.2442 15.8957 20.5879V14.9395C15.8957 14.6114 15.7902 14.295 15.5676 14.0957L12.4621 11.002L15.2277 8.22461C15.4035 8.04883 15.6965 8.04883 15.8723 8.22461L17.8059 10.17C18.0168 10.3926 18.3332 10.5098 18.6379 10.5098H24.2863C24.9543 10.5098 25.4816 9.98242 25.4816 9.30274C25.4816 8.64648 24.9543 8.10742 24.2863 8.10742H19.1301L14.9348 3.88867C14.4074 3.34961 13.634 3.04492 12.884 3.04492H8.46607C7.27076 3.04492 6.91919 4.35742 7.66919 5.10742L9.63794 7.06445L8.05591 8.61133C7.05982 9.5957 7.05982 11.2715 8.05591 12.2442L10.1418 14.3067V20.8692C10.1418 21.5254 10.6574 22.0645 11.3371 22.0645C11.9934 22.0645 12.5324 21.5254 12.5324 20.8692V14.4707L13.5051 15.4317V20.5879C13.5051 21.2442 14.0441 21.7832 14.7004 21.7832ZM0.673096 8.40039H12.0285V7.09961H0.673096C0.309815 7.09961 0.0168457 7.39258 0.0168457 7.75586C0.0168457 8.10742 0.309815 8.40039 0.673096 8.40039ZM24.802 21.209C25.1535 21.209 25.4582 20.9043 25.4582 20.5528V9.33789H24.1574V20.5528C24.1574 20.9043 24.4504 21.209 24.802 21.209ZM19.2004 29.1895C19.5637 29.1895 19.8566 28.8965 19.8566 28.5332C19.8566 28.17 19.5637 27.8887 19.2004 27.8887C18.3918 27.8887 18.1691 27.7481 17.4895 27.0801L5.00904 14.5879C4.73951 14.3301 4.32935 14.3301 4.08326 14.5879C3.82544 14.834 3.82544 15.2442 4.08326 15.502L16.7512 28.17C17.4895 28.9082 18.298 29.1895 19.2004 29.1895ZM22.2356 28.5567C22.5988 28.5567 22.8801 28.2637 22.8801 27.9004C22.8801 27.5372 22.5988 27.2559 22.2356 27.2559C21.427 27.2559 21.1926 27.1153 20.5129 26.4473L8.03247 13.9668C7.76294 13.6973 7.36451 13.6973 7.10669 13.9551C6.8606 14.2129 6.8606 14.6114 7.10669 14.8692L19.7746 27.5372C20.5129 28.2754 21.3215 28.5567 22.2356 28.5567Z" fill="black" fill-opacity="0.85"/>
</g>
<defs>
<clipPath id="clip0_2207_2721">
<rect width="25.4648" height="29.1211" fill="white" transform="translate(0.0168457 0.0683594)"/>
</clipPath>
</defs>
</svg>
