<svg width="24" height="24" viewBox="0 0 24 24" fill="none" xmlns="http://www.w3.org/2000/svg">
<g id="figure.wave.circle.fill" clip-path="url(#clip0_2124_13363)">
<g id="Group">
<path id="Vector" d="M11.9531 23.9062C18.4922 23.9062 23.9062 18.4805 23.9062 11.9531C23.9062 5.41406 18.4805 0 11.9414 0C5.41406 0 0 5.41406 0 11.9531C0 18.4805 5.42578 23.9062 11.9531 23.9062Z" fill="black" fill-opacity="0.85"/>
<path id="Vector_2" d="M10.9452 20.0625C10.4647 20.0625 10.1835 19.7695 10.1835 19.2656V9.90235C10.1835 9.59767 10.0663 9.38673 9.8085 9.19923L8.05069 7.88673C7.66397 7.60548 7.48819 7.30079 7.46475 6.84376L7.30069 4.38282C7.26553 3.92579 7.51163 3.64454 7.92179 3.60939C8.34366 3.57423 8.61319 3.83204 8.63663 4.28907L8.81241 6.77345L9.91397 7.54689C10.3007 7.81642 10.5585 7.92189 11.0976 7.92189H12.0937C14.7069 7.92189 15.914 8.50782 15.914 10.6641V14.0625C15.914 14.5195 15.6561 14.8008 15.246 14.8008C14.8241 14.8008 14.5546 14.5195 14.5546 14.0625V10.4766C14.5546 10.2422 14.414 10.0781 14.2147 10.0781C14.0038 10.0781 13.8749 10.2305 13.8749 10.4766V19.2656C13.8749 19.7812 13.6171 20.0625 13.1366 20.0625C12.6561 20.0625 12.3632 19.7695 12.3632 19.2656V13.9922C12.3632 13.7695 12.2343 13.6055 12.0233 13.6055C11.8124 13.6055 11.6835 13.7578 11.6835 13.9922V19.2656C11.6835 19.7812 11.414 20.0625 10.9452 20.0625ZM12.0937 7.16017C11.2616 7.16017 10.5585 6.46876 10.5585 5.63673C10.5585 4.78126 11.2382 4.08985 12.0937 4.08985C12.9491 4.08985 13.6405 4.78126 13.6405 5.63673C13.6405 6.45704 12.9257 7.16017 12.0937 7.16017Z" fill="white"/>
</g>
</g>
<defs>
<clipPath id="clip0_2124_13363">
<rect width="23.9062" height="23.918" fill="white"/>
</clipPath>
</defs>
</svg>
