<svg width="23" height="24" viewBox="0 0 23 24" fill="none" xmlns="http://www.w3.org/2000/svg">
<g clip-path="url(#clip0_2207_16118)">
<path d="M19.3812 6.43042C21.139 6.43042 22.5335 4.96558 22.5335 3.26636C22.5335 1.49683 21.139 0.0671387 19.3812 0.0671387C17.6116 0.0671387 16.1937 1.49683 16.1937 3.26636C16.1937 5.01245 17.6116 6.43042 19.3812 6.43042ZM0.502287 23.1999C1.09994 23.8327 2.14291 23.7859 2.89291 23.0124L7.93198 17.8093C8.09604 17.6335 8.22494 17.5866 8.48276 17.6921L12.4202 19.1804C14.9515 20.153 17.3304 19.321 18.4437 17.3054L20.9749 12.6999C21.9593 10.9069 21.6429 9.05542 19.9319 8.14136C18.2796 7.23902 16.5687 7.9187 15.5608 9.75855L12.2796 15.7468L9.47885 14.7273C8.09604 14.2233 6.9476 14.3874 5.84604 15.5359L0.607756 20.9499C-0.130526 21.6999 -0.0602134 22.6374 0.502287 23.1999Z" fill="black" fill-opacity="0.85"/>
</g>
<defs>
<clipPath id="clip0_2207_16118">
<rect width="22.4664" height="23.7773" fill="white" transform="translate(0.0671387 0.0671387)"/>
</clipPath>
</defs>
</svg>
