<svg width="23" height="26" viewBox="0 0 23 26" fill="none" xmlns="http://www.w3.org/2000/svg">
<g clip-path="url(#clip0_2207_2757)">
<path d="M4.1895 5.18701C5.60747 5.18701 6.74419 4.0503 6.74419 2.63233C6.74419 1.21436 5.60747 0.065918 4.1895 0.065918C2.77153 0.065918 1.6231 1.21436 1.6231 2.63233C1.6231 4.0503 2.77153 5.18701 4.1895 5.18701ZM8.22075 24.9448C8.79497 25.1089 9.48638 24.8159 9.67388 24.1128L11.4434 17.6909C11.6661 16.8706 11.3262 16.2847 10.5059 16.0503L5.34966 14.5854L5.7481 10.062C5.77153 9.92139 5.9356 9.83936 6.04106 9.93311L8.43169 11.644C8.85356 11.9487 9.39263 11.9487 9.82622 11.644L13.9864 8.66748C14.5255 8.29248 14.6544 7.54248 14.2676 7.00342C13.8926 6.46436 13.1426 6.34717 12.6036 6.72217L9.13481 9.21826L6.27544 7.16748C5.67778 6.72217 4.95122 6.41748 4.04888 6.41748C2.53716 6.41748 1.40044 7.3667 1.30669 8.71436L0.908251 14.2925C0.791064 15.9565 1.59966 17.187 3.45122 17.4565L8.80669 18.23L7.377 23.48C7.1895 24.1831 7.57622 24.769 8.22075 24.9448ZM18.9551 10.4487C20.7012 10.4487 22.1426 9.00733 22.1426 7.24951C22.1426 5.4917 20.7012 4.07373 18.9551 4.07373C17.1856 4.07373 15.7559 5.4917 15.7559 7.24951C15.7559 9.00733 17.1856 10.4487 18.9551 10.4487ZM18.9551 9.14795C17.877 9.14795 17.0567 8.32764 17.0567 7.24951C17.0567 6.19483 17.877 5.37451 18.9551 5.37451C20.0216 5.37451 20.8419 6.19483 20.8419 7.24951C20.8419 8.32764 20.0216 9.14795 18.9551 9.14795ZM11.2091 25.0503H17.8067C18.4747 25.0503 18.6622 24.2065 18.1231 23.8432L15.8028 22.3081C16.0372 21.9331 16.1895 21.5229 16.295 21.0776L19.0255 10.1909L17.7247 9.88623L15.0059 20.7729C14.5723 22.5307 13.0372 23.7261 11.2091 23.7261C10.8341 23.7261 10.5528 24.0307 10.5528 24.394C10.5528 24.7456 10.8341 25.0503 11.2091 25.0503ZM2.49028 20.5971L4.83403 20.0932C5.127 20.0464 5.30278 19.7768 5.30278 19.4839C5.30278 19.1792 5.08013 18.9448 4.8106 18.9097L0.861376 18.23C0.205126 18.1245 0.00590795 18.687 0.205126 19.1206L0.427783 19.5542C0.83794 20.3979 1.50591 20.8081 2.49028 20.5971ZM0.779345 25.0503H5.85356C6.24028 25.0503 6.52153 24.7456 6.52153 24.394C6.52153 24.0307 6.24028 23.7261 5.85356 23.7261C5.09185 23.7261 4.52935 23.4214 4.33013 22.5073L3.63872 19.3901L2.34966 19.6714L2.90044 22.2026L0.416064 23.8432C-0.134717 24.2065 0.052783 25.0503 0.779345 25.0503Z" fill="black" fill-opacity="0.85"/>
</g>
<defs>
<clipPath id="clip0_2207_2757">
<rect width="22.0459" height="25.0664" fill="white" transform="translate(0.0966797 0.065918)"/>
</clipPath>
</defs>
</svg>
