<svg width="23" height="30" viewBox="0 0 23 30" fill="none" xmlns="http://www.w3.org/2000/svg">
<g clip-path="url(#clip0_2207_2857)">
<path d="M15.8093 5.18945C17.2272 5.18945 18.3757 4.04102 18.3757 2.62305C18.3757 1.20508 17.2272 0.0683594 15.8093 0.0683594C14.3913 0.0683594 13.2546 1.20508 13.2546 2.62305C13.2546 4.04102 14.3913 5.18945 15.8093 5.18945ZM7.68818 14.459L12.0593 18.8536V25.7325H14.4616V18.502C14.4616 18.1504 14.3796 17.8223 14.1452 17.5176L11.2038 13.7793L13.7116 9.93555C13.8757 9.68945 14.2272 9.68945 14.3561 9.9707L15.1882 11.6465C15.3991 12.045 15.8093 12.3145 16.2663 12.3145H21.0944C21.7507 12.3145 22.2897 11.7754 22.2897 11.1075C22.2897 10.4512 21.7507 9.91211 21.0944 9.91211H17.0046L15.739 7.3457C15.2351 6.33789 14.2038 5.69336 13.0554 5.69336H6.63349C6.23505 5.69336 5.84833 5.89258 5.62568 6.23242L3.22333 9.85352C2.86005 10.3926 3.01239 11.1426 3.56318 11.5059C4.10224 11.8809 4.85224 11.7286 5.22724 11.1661L7.27802 8.0957H9.25848C9.41082 8.0957 9.50458 8.23633 9.41083 8.38867L7.38349 11.4356C6.75068 12.3731 6.87958 13.6504 7.68818 14.459ZM0.434265 16.2286L5.15693 20.3653C5.90693 21.0332 6.73896 20.6817 7.10224 20.1075L8.91864 17.3067L6.92646 15.3145C6.90302 15.2793 6.87958 15.2559 6.84443 15.2207L5.66083 17.5996L2.00458 14.4122C1.51239 13.9903 0.750672 14.0254 0.317078 14.5293C-0.128235 15.0332 -0.08136 15.795 0.434265 16.2286ZM6.39911 26.6348H14.5788C15.8796 26.6348 16.946 26.3653 17.778 25.6504C18.1179 25.3692 18.1061 25.0059 17.9421 24.7598C17.7546 24.4786 17.3327 24.3379 16.946 24.6309C16.3249 25.1231 15.6686 25.334 14.5788 25.334H6.39911C5.29755 25.334 4.65302 25.1231 4.02021 24.6309C3.66864 24.3614 3.29364 24.4551 3.09443 24.6895C2.86005 24.9356 2.82489 25.334 3.18818 25.6504C4.02021 26.3653 5.08661 26.6348 6.39911 26.6348ZM6.39911 29.3301C6.94989 29.3301 7.41864 28.8731 7.41864 28.3223C7.41864 27.7715 6.94989 27.3028 6.39911 27.3028C5.84833 27.3028 5.37958 27.7715 5.37958 28.3223C5.37958 28.8731 5.84833 29.3301 6.39911 29.3301ZM14.5788 29.3301C15.1296 29.3301 15.5866 28.8731 15.5866 28.3223C15.5866 27.7715 15.1296 27.3028 14.5788 27.3028C14.028 27.3028 13.5593 27.7715 13.5593 28.3223C13.5593 28.8731 14.028 29.3301 14.5788 29.3301Z" fill="black" fill-opacity="0.85"/>
</g>
<defs>
<clipPath id="clip0_2207_2857">
<rect width="22.277" height="29.2617" fill="white" transform="translate(0.0126953 0.0683594)"/>
</clipPath>
</defs>
</svg>
