<svg width="24" height="24" viewBox="0 0 24 24" fill="none" xmlns="http://www.w3.org/2000/svg">
<g id="figure.walk.circle.fill" clip-path="url(#clip0_2124_13339)">
<g id="Group">
<path id="Vector" d="M11.9531 23.9062C18.4922 23.9062 23.9062 18.4805 23.9062 11.9531C23.9062 5.41406 18.4805 0 11.9414 0C5.41406 0 0 5.41406 0 11.9531C0 18.4805 5.42578 23.9062 11.9531 23.9062Z" fill="black" fill-opacity="0.85"/>
<path id="Vector_2" d="M14.8242 19.418C14.5078 19.418 14.2734 19.2656 14.1328 18.9492L12.5742 15.7734C12.4805 15.6328 12.4453 15.5625 12.3164 15.4102L10.8867 13.6172C10.4883 13.1133 10.1133 12.5391 10.1719 11.7305L10.3008 10.1133C10.3125 9.8672 10.0781 9.72656 9.87891 9.90234L9.17578 10.5234L9.03516 12.3164C9 12.7852 8.73047 13.0312 8.32031 13.0078C7.89844 12.9727 7.65234 12.6797 7.69922 12.2227L7.82812 10.582C7.875 10.125 8.00391 9.83204 8.34375 9.4922L9.48047 8.39062C10.2188 7.6875 10.8867 7.31251 11.6484 7.31251C12.7148 7.31251 13.3477 8.05078 13.2773 9.16406L13.1367 11.1328C13.0898 11.8477 12.9375 12.3281 12.7031 13.0898L12.6328 13.3359L13.5234 14.5898C13.6406 14.7539 13.793 14.9766 13.9336 15.2812L15.3867 18.2461C15.4805 18.4336 15.5391 18.5859 15.5391 18.75C15.5391 19.1367 15.2344 19.418 14.8242 19.418ZM8.12109 19.4297C7.74609 19.4297 7.48828 19.1602 7.48828 18.7734C7.48828 18.5156 7.62891 18.3398 7.80469 18.1289L9.90234 15.6445L10.2305 14.0156L11.3789 15.457L11.2617 15.9492C11.1914 16.1953 11.1797 16.1953 10.9336 16.5L8.67188 19.1836C8.54297 19.3477 8.33203 19.4297 8.12109 19.4297ZM15.2344 11.4961C14.8125 11.4961 14.625 11.4258 14.3906 11.1914L13.8984 10.6992L14.0156 8.96484L15.0938 10.1602H16.9805C17.4492 10.1602 17.7422 10.418 17.7422 10.8281C17.7422 11.2383 17.4609 11.4961 16.9805 11.4961H15.2344ZM12.5742 6.59767C11.7422 6.59767 11.0508 5.89454 11.0508 5.06251C11.0508 4.20704 11.7305 3.51562 12.5742 3.51562C13.4297 3.51562 14.1211 4.20704 14.1211 5.06251C14.1211 5.88281 13.418 6.59767 12.5742 6.59767Z" fill="white"/>
</g>
</g>
<defs>
<clipPath id="clip0_2124_13339">
<rect width="23.9062" height="23.918" fill="white"/>
</clipPath>
</defs>
</svg>
