<svg width="23" height="25" viewBox="0 0 23 25" fill="none" xmlns="http://www.w3.org/2000/svg">
<g clip-path="url(#clip0_2207_16101)">
<path d="M19.3871 6.62964C21.145 6.62964 22.5512 5.1648 22.5512 3.46558C22.5512 1.69605 21.145 0.254639 19.3871 0.254639C17.6176 0.254639 16.1996 1.69605 16.1996 3.46558C16.1996 5.19995 17.6176 6.62964 19.3871 6.62964ZM17.3481 18.7702C17.8637 18.3601 18.3559 17.6687 18.8246 16.8015L20.9809 12.8874C21.977 11.0827 21.6489 9.24292 19.9496 8.32886C18.2973 7.4148 16.5864 8.11792 15.5786 9.94605L13.352 13.9655L17.3481 18.7702ZM0.508219 23.3757C1.11759 24.0202 2.16056 23.9616 2.91056 23.1999L7.94962 17.9968C8.12541 17.821 8.23087 17.7741 8.48869 17.8796L12.7426 19.4851C13.6684 19.8366 14.6762 19.7663 15.4145 19.6257L12.4848 16.0046L9.4965 14.9148C8.11369 14.4109 6.96525 14.5749 5.85197 15.7233L0.613689 21.1374C-0.101155 21.8874 -0.0425615 22.8249 0.508219 23.3757ZM19.8793 23.5163C20.3598 23.1413 20.395 22.5554 19.9379 22.0046L17.3481 18.7702C16.7504 19.1921 16.0942 19.4851 15.4145 19.6257L18.4028 23.2937C18.8364 23.821 19.3871 23.9265 19.8793 23.5163Z" fill="black" fill-opacity="0.85"/>
<path d="M6.05103 11.9616C9.36743 11.9616 11.9455 9.2312 11.9455 6.05542C11.9455 2.73902 9.36743 0.0671387 6.05103 0.0671387C2.74634 0.0671387 0.0861816 2.73902 0.0861816 6.05542C0.0861816 9.2312 2.74634 11.9616 6.05103 11.9616ZM6.05103 10.4265C3.64868 10.4265 1.62134 8.43433 1.62134 6.05542C1.62134 3.58276 3.59009 1.6023 6.05103 1.6023C8.50025 1.6023 10.4104 3.55933 10.4104 6.05542C10.4104 8.46948 8.45337 10.4265 6.05103 10.4265ZM1.72681 0.641358C1.43384 0.348389 0.941651 0.348389 0.648682 0.641358C0.343994 0.934327 0.343994 1.4148 0.648682 1.7312L10.3284 11.3991C10.6213 11.6921 11.1018 11.6921 11.4065 11.3991C11.7112 11.1062 11.7112 10.614 11.4065 10.3093L1.72681 0.641358ZM0.648682 10.3093C0.343994 10.614 0.343994 11.1062 0.648682 11.3991C0.941651 11.6921 1.43384 11.6921 1.72681 11.3991L11.4065 1.7312C11.7112 1.4148 11.7112 0.934327 11.4065 0.641358C11.1018 0.348389 10.6213 0.348389 10.3284 0.641358L0.648682 10.3093Z" fill="black" fill-opacity="0.85"/>
</g>
<defs>
<clipPath id="clip0_2207_16101">
<rect width="22.465" height="23.9414" fill="white" transform="translate(0.0861816 0.0671387)"/>
</clipPath>
</defs>
</svg>
