<svg width="20" height="29" viewBox="0 0 20 29" fill="none" xmlns="http://www.w3.org/2000/svg">
<g clip-path="url(#clip0_2207_2733)">
<path d="M9.46118 5.87842C10.8674 5.87842 12.0159 4.7417 12.0159 3.3003C12.0159 1.90576 10.8674 0.757324 9.46118 0.757324C8.03149 0.757324 6.89477 1.90576 6.89477 3.3003C6.89477 4.7417 8.03149 5.87842 9.46118 5.87842ZM1.28149 28.3315C1.79712 28.6011 2.54712 28.4956 2.89868 27.8628L5.8518 22.5425L7.5979 18.6167C7.63306 18.5347 7.75024 18.4995 7.82056 18.5698L12.5081 21.9682V27.2768C12.5081 27.9448 13.0354 28.4721 13.6917 28.4721C14.3596 28.4721 14.8753 27.9448 14.8753 27.2768V21.4409C14.8753 21.1011 14.7815 20.7495 14.512 20.5034L9.62524 15.8862L10.0823 12.1714C10.094 12.0307 10.2815 12.019 10.3284 12.1362L11.4182 14.7261C11.6057 15.1831 12.0276 15.4526 12.5081 15.4526H17.5354C18.1917 15.4526 18.719 14.9253 18.719 14.269C18.719 13.6128 18.1917 13.0854 17.5354 13.0854H13.2815L11.594 9.1128C11.1487 8.08154 10.4924 7.49561 8.99243 7.08545L8.31274 6.89795C6.68384 6.44092 5.57056 6.37061 4.25806 6.94483L2.45337 7.71826V3.32373C2.45337 2.6792 1.9143 2.15186 1.26977 2.15186C0.613526 2.15186 0.0861816 2.6792 0.0861816 3.32373V9.66358C0.0861816 10.5073 0.965088 10.9643 1.73852 10.6245L5.09009 9.15967C5.24243 9.10108 5.38306 9.19483 5.35962 9.35889L3.67212 21.5932L0.812744 26.7261C0.508057 27.2768 0.707276 28.0386 1.28149 28.3315ZM16.7385 11.2807H18.0393V0.710449C18.0393 0.347168 17.7464 0.065918 17.3831 0.065918C17.0198 0.065918 16.7385 0.347168 16.7385 0.710449V11.2807ZM15.7659 11.9604H19.0003C19.387 11.9604 19.551 11.6323 19.4221 11.2807C19.1292 10.4018 18.3206 9.79248 17.3831 9.79248C16.4456 9.79248 15.637 10.4018 15.344 11.2807C15.2151 11.6323 15.3792 11.9604 15.7659 11.9604Z" fill="black" fill-opacity="0.85"/>
</g>
<defs>
<clipPath id="clip0_2207_2733">
<rect width="19.3793" height="28.5586" fill="white" transform="translate(0.0861816 0.065918)"/>
</clipPath>
</defs>
</svg>
