<svg width="28" height="27" viewBox="0 0 28 27" fill="none" xmlns="http://www.w3.org/2000/svg">
<g clip-path="url(#clip0_2207_2569)">
<path d="M4.99317 4.4043H11.7549C12.1651 4.4043 12.4932 4.06445 12.4932 3.64258C12.4932 3.2207 12.1651 2.86914 11.7549 2.86914H4.99317C4.57129 2.86914 4.25488 3.2207 4.25488 3.64258C4.25488 4.06445 4.57129 4.4043 4.99317 4.4043ZM0.797851 10.2754H8.8252C9.24707 10.2754 9.56348 9.93555 9.56348 9.51367C9.56348 9.0918 9.24707 8.74024 8.8252 8.74024H0.797851C0.387695 8.74024 0.0712891 9.10352 0.0712891 9.51367C0.0712891 9.92383 0.387695 10.2754 0.797851 10.2754ZM4.30176 16.1465H8.7666C9.17676 16.1465 9.49317 15.8067 9.49317 15.3848C9.49317 14.9629 9.17676 14.6114 8.7666 14.6114H4.30176C3.87988 14.6114 3.56348 14.9629 3.56348 15.3848C3.56348 15.8067 3.87988 16.1465 4.30176 16.1465ZM1.21973 21.9473H7.33691C7.74707 21.9473 8.06348 21.6075 8.06348 21.1856C8.06348 20.7637 7.74707 20.4122 7.33691 20.4122H1.21973C0.80957 20.4122 0.493164 20.7637 0.493164 21.1856C0.493164 21.6075 0.80957 21.9473 1.21973 21.9473Z" fill="black" fill-opacity="0.85"/>
<path d="M14.0869 25.3575L17.6025 21.1622C17.9541 20.752 18.001 20.6582 18.1416 20.2246L18.3994 19.4278L16.5127 17.0606L15.9385 19.709L12.4697 23.834C11.3682 25.1582 13.1729 26.4473 14.0869 25.3575ZM22.6533 25.0059C23.3799 26.4707 25.5479 25.5684 24.7627 23.9746L22.3721 19.1348C22.1846 18.7715 21.9268 18.3731 21.7041 18.0567L20.1924 15.9122L20.2979 15.5957C20.6963 14.377 20.8604 13.6504 20.9424 12.4434L21.1768 9.05664C21.294 7.45117 20.3447 6.23242 18.7041 6.23242C17.4619 6.23242 16.6299 6.85352 15.4815 7.9668L13.7002 9.73633C13.1143 10.3106 12.9268 10.7793 12.8682 11.5411L12.6455 14.3067C12.5869 15.0098 12.9736 15.502 13.6299 15.5254C14.2861 15.5723 14.6846 15.1856 14.7432 14.4356L15.001 11.4004L15.8565 10.627C16.1729 10.3457 16.583 10.5332 16.5596 10.8496L16.3721 13.4161C16.2666 14.7168 16.5713 15.3379 17.4619 16.4512L19.8408 19.4278C20.0752 19.7325 20.1104 19.8496 20.2041 20.0372L22.6533 25.0059ZM26.7315 10.8028H24.0361L22.3252 8.91602L22.126 11.7403L22.8057 12.42C23.1807 12.795 23.5205 12.9122 24.2119 12.9122H26.7315C27.4463 12.9122 27.9033 12.5137 27.9033 11.8575C27.9033 11.2246 27.4346 10.8028 26.7315 10.8028ZM20.0049 5.17774C21.4229 5.17774 22.5596 4.0293 22.5596 2.62305C22.5596 1.20508 21.4229 0.0683594 20.0049 0.0683594C18.5869 0.0683594 17.4502 1.20508 17.4502 2.62305C17.4502 4.0293 18.5869 5.17774 20.0049 5.17774Z" fill="black" fill-opacity="0.85"/>
</g>
<defs>
<clipPath id="clip0_2207_2569">
<rect width="27.832" height="26.3789" fill="white" transform="translate(0.0712891 0.0683594)"/>
</clipPath>
</defs>
</svg>
