<svg width="23" height="28" viewBox="0 0 23 28" fill="none" xmlns="http://www.w3.org/2000/svg">
<g clip-path="url(#clip0_2207_2905)">
<path d="M11.3942 8.97456C12.8121 8.97456 13.9606 7.82612 13.9606 6.40815C13.9606 4.99019 12.8121 3.85347 11.3942 3.85347C9.97619 3.85347 8.83947 4.99019 8.83947 6.40815C8.83947 7.82612 9.97619 8.97456 11.3942 8.97456ZM21.7535 27.9472C22.4098 27.9472 22.9371 27.4081 22.9371 26.7636V20.8222C22.9371 20.4003 22.7145 20.0839 22.4098 19.8261L17.8043 16.0292L16.8902 11.0839C16.8082 10.58 16.8668 10.0878 17.1129 9.59565L20.9918 1.84956C21.2848 1.26362 21.0387 0.548784 20.4527 0.255815C19.8668 -0.0371542 19.152 0.197221 18.859 0.77144L15.0504 8.41206C14.7809 8.95112 14.3942 9.30269 13.8199 9.53706L7.1051 12.3261L4.39808 10.1581C4.19885 10.0058 3.96447 9.94722 3.76525 9.94722V6.72456H2.46448V11.0371C2.46448 11.4355 2.58167 11.7753 2.88635 12.0214L6.19104 14.6464C6.6012 14.9628 7.0465 14.9394 7.56214 14.7285L11.2301 13.1933C11.7457 12.9706 12.0035 13.2636 12.0621 13.6152L13.8785 23.6347L8.83947 25.6503C8.24183 25.8847 7.93713 26.5761 8.1715 27.1972C8.45275 27.8886 9.13244 28.0761 9.71838 27.8417L15.6598 25.4745C16.1754 25.2636 16.4449 24.7597 16.4098 24.2206L16.0699 19.6035C16.0348 19.0878 16.5973 18.7949 16.9957 19.0644L20.5699 21.455V26.7636C20.5699 27.4081 21.0856 27.9472 21.7535 27.9472ZM3.12073 0.49019C1.39808 0.49019 0.050415 1.84956 0.050415 3.58393C0.050415 5.15425 1.38636 6.88862 3.12073 7.47456C4.85511 6.88862 6.17933 5.15425 6.17933 3.58393C6.17933 1.84956 4.83167 0.49019 3.12073 0.49019ZM3.12073 1.79097C4.10511 1.79097 4.87854 2.58784 4.87854 3.61909C4.87854 4.6269 4.14025 5.71675 3.12073 6.06831C2.1012 5.71675 1.3512 4.6269 1.3512 3.61909C1.3512 2.58784 2.12464 1.79097 3.12073 1.79097Z" fill="black" fill-opacity="0.85"/>
</g>
<defs>
<clipPath id="clip0_2207_2905">
<rect width="22.8867" height="27.8789" fill="white" transform="translate(0.050415 0.0683594)"/>
</clipPath>
</defs>
</svg>
