<svg width="22" height="22" viewBox="0 0 22 22" fill="none" xmlns="http://www.w3.org/2000/svg">
<g clip-path="url(#clip0_2207_2845)">
<path d="M7.27454 5.18823C8.70423 5.18823 9.84095 4.0398 9.84095 2.62183C9.84095 1.20386 8.70423 0.0671387 7.27454 0.0671387C5.85657 0.0671387 4.71985 1.20386 4.71985 2.62183C4.71985 4.0398 5.85657 5.18823 7.27454 5.18823ZM1.07532 14.0944C0.559692 16.028 1.79016 17.2585 3.30188 17.2585C3.78235 17.2585 4.28626 17.1413 4.77845 16.8718L11.1418 13.4851L18.1847 17.0124C19.0402 17.4343 19.7316 17.0944 20.0011 16.5437C20.2589 16.0046 20.0949 15.2663 19.2746 14.8562L11.9035 11.153C11.423 10.9069 10.8957 10.8835 10.3918 11.1062L5.63391 13.1687L6.59485 9.81714C6.77063 9.24292 7.29798 8.82105 7.90735 8.82105H17.3879C18.0558 8.82105 18.5949 8.28198 18.5949 7.61402C18.5949 6.95776 18.0558 6.40698 17.3879 6.40698H7.02845C4.68469 6.40698 2.77454 7.75464 2.23548 9.78198L1.07532 14.0944ZM0.700317 21.0085H21.3253C21.6886 21.0085 21.9816 20.7273 21.9816 20.364C21.9816 20.0007 21.6886 19.7077 21.3253 19.7077H0.700317C0.325317 19.7077 0.0440674 20.0007 0.0440674 20.364C0.0440674 20.7273 0.325317 21.0085 0.700317 21.0085Z" fill="black" fill-opacity="0.85"/>
</g>
<defs>
<clipPath id="clip0_2207_2845">
<rect width="21.9375" height="20.9648" fill="white" transform="translate(0.0440674 0.0671387)"/>
</clipPath>
</defs>
</svg>
