<svg width="24" height="24" viewBox="0 0 24 24" fill="none" xmlns="http://www.w3.org/2000/svg">
<g clip-path="url(#clip0_2207_2604)">
<path d="M12.0371 23.9721C18.5762 23.9721 23.9902 18.5464 23.9902 12.019C23.9902 5.47998 18.5645 0.065918 12.0254 0.065918C5.49804 0.065918 0.0839844 5.47998 0.0839844 12.019C0.0839844 18.5464 5.50976 23.9721 12.0371 23.9721Z" fill="black" fill-opacity="0.85"/>
<path d="M5.08781 11.6206C5.01749 11.1753 5.20499 10.8471 5.67374 10.6245L6.51749 10.2143C8.50968 9.27685 10.0566 8.59716 11.1581 8.16357L12.1894 7.74169L12.9277 5.21044C13.2206 4.17919 14.6503 4.57763 14.3456 5.6206L13.537 8.38622C13.4316 8.76122 13.0683 8.87841 12.7519 9.03075L11.5448 9.58153C11.4394 9.64013 11.4042 9.69872 11.4511 9.80419L12.8573 12.687C12.9277 12.8159 13.0683 12.8511 13.2206 12.769L14.8495 11.7847C15.2362 11.5503 15.623 11.5386 16.0448 11.7261L19.4784 13.2964C20.6269 13.8354 19.8183 15.2768 18.8808 14.8315L15.6816 13.3081L13.3144 14.6909C13.162 14.7729 13.162 14.9487 13.2909 15.0425L16.8183 17.7495C17.7558 18.4643 16.7714 19.6948 15.9042 19.062L11.2636 15.6753C10.9237 15.4175 10.5487 15.1362 10.1034 14.269L8.62687 11.3393C8.57999 11.2221 8.49796 11.187 8.35734 11.2339L6.66984 11.9018L7.03312 14.2221C7.18546 15.2768 5.74406 15.5229 5.57999 14.4565L5.08781 11.6206ZM8.22843 8.562C7.31437 8.562 6.56437 7.812 6.56437 6.88622C6.56437 5.92529 7.30265 5.16357 8.22843 5.16357C9.17765 5.16357 9.93937 5.92529 9.93937 6.88622C9.93937 7.80029 9.16593 8.562 8.22843 8.562Z" fill="white"/>
</g>
<defs>
<clipPath id="clip0_2207_2604">
<rect width="23.9062" height="23.918" fill="white" transform="translate(0.0839844 0.065918)"/>
</clipPath>
</defs>
</svg>
