<svg width="33" height="21" viewBox="0 0 33 21" fill="none" xmlns="http://www.w3.org/2000/svg">
<g clip-path="url(#clip0_2207_2825)">
<path d="M2.59583 14.6569C4.00208 14.6569 5.15051 13.5202 5.15051 12.1023C5.15051 10.6843 4.00208 9.53589 2.59583 9.53589C1.17786 9.53589 0.0294189 10.6843 0.0294189 12.1023C0.0294189 13.5202 1.17786 14.6569 2.59583 14.6569ZM5.38489 15.4773C4.92786 16.6491 5.37317 17.8562 6.34583 18.5359C7.92786 19.6374 9.40442 20.0476 11.7599 20.0476H15.4982C18.381 20.0476 19.1544 17.7859 18.17 15.8874L15.1583 10.0749V1.28589C15.1583 0.594483 14.6192 0.0671387 13.9161 0.0671387C13.2364 0.0671387 12.7208 0.594483 12.7208 1.28589V10.3679C12.7208 10.5319 12.7325 10.6609 12.7677 10.778L14.4669 15.6413H12.2638C10.8458 15.6413 10.0255 15.2429 8.91223 14.5749C8.61926 14.3991 8.53723 14.1296 8.66614 13.7898L11.3966 6.80542C11.6427 6.18433 11.3263 5.45776 10.6935 5.22339C10.0372 4.9773 9.35754 5.28198 9.11145 5.92652L5.38489 15.4773ZM19.7755 18.1491L24.1114 16.7312L31.0372 15.4773C31.7052 15.3601 32.1505 14.7507 32.0333 14.0593C31.9044 13.3913 31.2716 12.9577 30.6036 13.0749L23.3614 14.3874L19.1778 15.1491L19.2716 15.3132C19.8341 16.2507 19.9278 17.2819 19.7755 18.1491Z" fill="black" fill-opacity="0.85"/>
</g>
<defs>
<clipPath id="clip0_2207_2825">
<rect width="32.0226" height="19.9805" fill="white" transform="translate(0.0294189 0.0671387)"/>
</clipPath>
</defs>
</svg>
