<svg width="26" height="25" viewBox="0 0 26 25" fill="none" xmlns="http://www.w3.org/2000/svg">
<g clip-path="url(#clip0_2207_2741)">
<path d="M7.26419 5.18701C8.68216 5.18701 9.81888 4.03858 9.81888 2.60889C9.81888 1.20264 8.68216 0.065918 7.26419 0.065918C5.85794 0.065918 4.69779 1.20264 4.69779 2.60889C4.69779 4.03858 5.85794 5.18701 7.26419 5.18701ZM24.5962 21.5229L16.8735 17.3511L12.4087 14.2456C12.0806 14.0229 11.7642 13.73 11.5064 13.4018C11.9634 13.1206 12.1509 12.605 12.022 12.1011L11.1431 8.53858C10.8267 7.28467 9.68997 6.41748 8.40091 6.41748H5.61185C4.75638 6.41748 4.15872 6.62842 3.60794 7.1792L0.432164 10.355C0.045445 10.7417 -0.013149 11.3393 0.256383 11.8081L2.48294 15.7104V22.5776C2.48294 23.2221 3.02201 23.7729 3.67826 23.7729C4.33451 23.7729 4.87357 23.2221 4.87357 22.5776V16.6831L11.7056 17.1753L15.8423 19.519L23.4712 23.6206C24.1743 23.9956 24.854 23.644 25.1001 23.1518C25.3931 22.5659 25.1704 21.8276 24.5962 21.5229ZM2.78763 11.4097L4.85013 9.33545L6.4556 13.4721L5.18997 14.1987H4.38138L2.78763 11.4097Z" fill="black" fill-opacity="0.85"/>
</g>
<defs>
<clipPath id="clip0_2207_2741">
<rect width="25.1387" height="23.9414" fill="white" transform="translate(0.090332 0.065918)"/>
</clipPath>
</defs>
</svg>
