<svg width="25" height="27" viewBox="0 0 25 27" fill="none" xmlns="http://www.w3.org/2000/svg">
<g clip-path="url(#clip0_2207_2933)">
<path d="M16.5529 5.18945C17.9709 5.18945 19.0959 4.05274 19.0959 2.62305C19.0959 1.20508 17.9709 0.0683594 16.5529 0.0683594C15.1233 0.0683594 13.9748 1.20508 13.9748 2.62305C13.9748 4.05274 15.1233 5.18945 16.5529 5.18945ZM8.57251 26.1075C9.22875 26.1075 9.79125 25.5684 9.79125 24.9004V13.8965C12.4631 13.4629 14.7834 11.6934 15.8967 9.2793C15.9904 9.0332 16.2717 8.91602 16.7404 9.08008L22.6701 11.0723C23.4904 11.3418 24.0529 10.8965 24.2287 10.3223C24.4162 9.73633 24.2053 9.02148 23.4436 8.77539L5.67797 2.8457C4.85766 2.56445 4.28344 3.02148 4.10766 3.5957C3.92016 4.18164 4.14282 4.88477 4.90454 5.14258L11.2912 7.27539C11.5842 7.38086 11.7365 7.73242 11.549 8.03711C10.8693 9.10352 9.86157 9.74805 8.57251 9.74805H2.51391V3.66602C2.51391 2.95117 2.03344 2.45898 1.29516 2.45898C0.568604 2.45898 0.0881348 2.95117 0.0881348 3.66602V10.8614C0.0881348 11.6582 0.486573 12.0332 1.09594 12.1387L6.46313 13.0293L7.36547 18.3262V24.9004C7.36547 25.5684 7.90454 26.1075 8.57251 26.1075Z" fill="black" fill-opacity="0.85"/>
</g>
<defs>
<clipPath id="clip0_2207_2933">
<rect width="24.2049" height="26.0508" fill="white" transform="translate(0.0881348 0.0683594)"/>
</clipPath>
</defs>
</svg>
