<svg width="24" height="27" viewBox="0 0 24 27" fill="none" xmlns="http://www.w3.org/2000/svg">
<g clip-path="url(#clip0_2207_2564)">
<path d="M0.0651855 25.0879C0.0651855 25.627 0.510498 26.0606 1.03784 26.0606C1.57691 26.0606 2.02222 25.627 2.02222 25.0879V1.04102C2.02222 0.501953 1.57691 0.0683594 1.03784 0.0683594C0.510498 0.0683594 0.0651855 0.501953 0.0651855 1.04102V25.0879Z" fill="black" fill-opacity="0.85"/>
<path d="M9.27615 25.3926L12.7918 21.1973C13.1433 20.7872 13.1902 20.6934 13.3308 20.2598L13.5886 19.4629L11.7019 17.0957L11.1394 19.7442L7.65896 23.8692C6.5574 25.1934 8.36209 26.4825 9.27615 25.3926ZM17.8543 25.0411C18.5691 26.5059 20.7371 25.6036 19.9519 24.0098L17.5613 19.17C17.3738 18.8067 17.116 18.4082 16.8933 18.0918L15.3816 15.9473L15.4871 15.6309C15.8972 14.4122 16.0496 13.6856 16.1316 12.4786L16.366 9.0918C16.4832 7.48633 15.534 6.26758 13.8933 6.26758C12.6511 6.26758 11.8191 6.88867 10.6824 8.00195L8.88943 9.77148C8.30349 10.3457 8.11599 10.8145 8.0574 11.5762L7.83474 14.3418C7.77615 15.045 8.16287 15.5372 8.81912 15.5606C9.47537 15.6075 9.8738 15.2207 9.9324 14.4707L10.1902 11.4356L11.0574 10.6622C11.3621 10.3809 11.7722 10.5684 11.7488 10.8848L11.5613 13.4512C11.4558 14.752 11.7605 15.3731 12.6629 16.4864L15.03 19.4629C15.2761 19.7676 15.2996 19.8848 15.405 20.0723L17.8543 25.0411ZM21.9207 10.8379H19.2254L17.5144 8.95117L17.3152 11.7754L17.9949 12.4551C18.3699 12.8301 18.7097 12.9473 19.4011 12.9473H21.9207C22.6355 12.9473 23.0925 12.5489 23.0925 11.8926C23.0925 11.2598 22.6238 10.8379 21.9207 10.8379ZM15.1941 5.21289C16.6121 5.21289 17.7488 4.06445 17.7488 2.6582C17.7488 1.24024 16.6121 0.103516 15.1941 0.103516C13.7761 0.103516 12.6394 1.24024 12.6394 2.6582C12.6394 4.06445 13.7761 5.21289 15.1941 5.21289Z" fill="black" fill-opacity="0.85"/>
</g>
<defs>
<clipPath id="clip0_2207_2564">
<rect width="23.0273" height="26.4492" fill="white" transform="translate(0.0651855 0.0683594)"/>
</clipPath>
</defs>
</svg>
