<svg width="23" height="31" viewBox="0 0 23 31" fill="none" xmlns="http://www.w3.org/2000/svg">
<g clip-path="url(#clip0_2207_2885)">
<path d="M8.89087 5.18945C10.2854 5.18945 11.4456 4.0293 11.4456 2.63477C11.4456 1.22852 10.2854 0.0683594 8.89087 0.0683594C7.48461 0.0683594 6.32446 1.22852 6.32446 2.63477C6.32446 4.0293 7.48461 5.18945 8.89087 5.18945ZM10.4026 24.42C10.8596 24.5372 11.6331 24.3731 11.8557 23.6231L13.5549 17.9864C13.7307 17.377 13.4612 16.7559 12.8167 16.5332L8.21118 14.9395L8.7854 11.0137C8.80883 10.7793 9.11352 10.7207 9.21899 10.9434L10.2034 12.8536C10.426 13.2872 10.8127 13.4981 11.2581 13.4981H15.969C16.6135 13.4981 17.1526 12.9942 17.1526 12.3262C17.1526 11.6934 16.6135 11.1543 15.969 11.1543H11.9846L10.4495 8.11914C9.95727 7.13477 9.07837 6.44336 7.9768 6.23242L7.32055 6.10352C6.11352 5.86914 5.14087 6.12695 4.39087 6.5957L0.582275 8.96289C0.25415 9.18555 0.0314941 9.56055 0.0314941 9.98242V14.6817C0.0314941 15.3262 0.570556 15.877 1.21508 15.877C1.85961 15.877 2.39868 15.3262 2.39868 14.6817V10.6153L4.0393 9.5957C4.19165 9.51367 4.36743 9.60742 4.33227 9.7832L3.79321 14.1309C3.58227 15.795 4.13305 16.9317 6.04321 17.377L10.9299 18.5254L9.60571 22.9668C9.42993 23.5762 9.6643 24.209 10.4026 24.42ZM1.75415 28.6622C2.17602 28.9434 2.93774 28.9434 3.37133 28.3106L6.84008 23.1426C7.00415 22.8965 7.08618 22.709 7.13305 22.4161L7.62524 18.959L5.7854 18.5254C5.50415 18.4668 5.25805 18.3731 5.02368 18.2911L4.77758 22.0059L1.42602 27.0215C1.06274 27.5606 1.19165 28.2989 1.75415 28.6622ZM6.41821 30.502H10.1917C10.5549 30.502 10.8596 30.1973 10.8596 29.834V27.5723H13.9768C14.3284 27.5723 14.6213 27.2911 14.6213 26.9161V24.6426H17.762C18.1253 24.6426 18.4065 24.3614 18.4065 23.9981V21.7246H21.4065C21.7698 21.7246 22.0745 21.4317 22.0745 21.0684C22.0745 20.7168 21.7698 20.4122 21.4065 20.4122H17.762C17.3987 20.4122 17.1174 20.7168 17.1174 21.0684V23.3418H13.9768C13.6018 23.3418 13.3323 23.6465 13.3323 23.9981V26.2715H10.1917C9.84008 26.2715 9.55883 26.5528 9.55883 26.9161V29.2012H6.41821C6.04321 29.2012 5.77368 29.4825 5.77368 29.834C5.77368 30.1973 6.04321 30.502 6.41821 30.502Z" fill="black" fill-opacity="0.85"/>
</g>
<defs>
<clipPath id="clip0_2207_2885">
<rect width="22.043" height="30.457" fill="white" transform="translate(0.0314941 0.0683594)"/>
</clipPath>
</defs>
</svg>
