<svg width="28" height="21" viewBox="0 0 28 21" fill="none" xmlns="http://www.w3.org/2000/svg">
<g clip-path="url(#clip0_2207_2921)">
<path d="M13.8569 5.20117C15.2749 5.20117 16.4234 4.05274 16.4234 2.63477C16.4234 1.2168 15.2749 0.0683594 13.8569 0.0683594C12.439 0.0683594 11.3023 1.2168 11.3023 2.63477C11.3023 4.05274 12.439 5.20117 13.8569 5.20117ZM1.28271 3.44336L9.89599 8.06055C10.1773 8.21289 10.3413 8.50586 10.2476 8.82227L9.41552 11.8575C11.5952 12.3028 12.3335 13.6387 13.939 13.6387C14.3843 13.6387 14.7593 13.5215 15.1226 13.3457L16.2593 9.15039C16.3765 8.7168 16.4937 8.48242 16.939 8.25977L25.9624 3.44336C26.6069 3.0918 26.853 2.2832 26.5249 1.63867C26.1499 0.99414 25.3648 0.736328 24.7085 1.08789L15.7554 5.83398C14.3491 6.58398 13.0132 6.67774 11.3257 5.77539L2.53662 1.08789C1.88037 0.736328 1.07178 0.99414 0.731934 1.63867C0.380372 2.2832 0.638184 3.0918 1.28271 3.44336ZM0.731934 16.7325H1.91552C5.04443 16.7325 5.75927 14.7989 7.92724 14.7989C10.0952 14.7989 10.8101 16.7325 13.939 16.7325C17.0796 16.7325 17.7827 14.7989 19.9624 14.7989C22.1304 14.7989 22.8335 16.7325 25.9741 16.7325H27.1577C27.521 16.7325 27.814 16.4512 27.814 16.0879C27.814 15.7246 27.521 15.4317 27.1577 15.4317H25.9741C23.7241 15.4317 22.9624 13.4981 19.9624 13.4981C16.9507 13.4981 16.189 15.4317 13.939 15.4317C11.689 15.4317 10.939 13.4981 7.92724 13.4981C4.92724 13.4981 4.16552 15.4317 1.91552 15.4317H0.731934C0.356934 15.4317 0.0756836 15.7246 0.0756836 16.0879C0.0756836 16.4512 0.356934 16.7325 0.731934 16.7325ZM1.03662 19.9903C1.42334 19.9903 1.72802 19.6856 1.72802 19.2989C1.72802 18.9239 1.42334 18.6192 1.03662 18.6192C0.661622 18.6192 0.356934 18.9239 0.356934 19.2989C0.356934 19.6856 0.661622 19.9903 1.03662 19.9903ZM3.23974 19.5918C3.61474 19.5918 3.91943 19.2872 3.91943 18.9122C3.91943 18.5254 3.61474 18.2207 3.23974 18.2207C2.85302 18.2207 2.54834 18.5254 2.54834 18.9122C2.54834 19.2872 2.85302 19.5918 3.23974 19.5918ZM5.29052 18.6192C5.67724 18.6192 5.98193 18.3262 5.98193 17.9395C5.98193 17.5528 5.67724 17.2598 5.29052 17.2598C4.91552 17.2598 4.61084 17.5528 4.61084 17.9395C4.61084 18.3262 4.91552 18.6192 5.29052 18.6192ZM7.50537 18.1036C7.89209 18.1036 8.19677 17.7989 8.19677 17.4122C8.19677 17.0372 7.89209 16.7325 7.50537 16.7325C7.13037 16.7325 6.82568 17.0372 6.82568 17.4122C6.82568 17.7989 7.13037 18.1036 7.50537 18.1036ZM9.72021 18.6192C10.1069 18.6192 10.3999 18.3262 10.3999 17.9395C10.3999 17.5528 10.1069 17.2598 9.72021 17.2598C9.33349 17.2598 9.04052 17.5528 9.04052 17.9395C9.04052 18.3262 9.33349 18.6192 9.72021 18.6192ZM11.7945 19.5918C12.1812 19.5918 12.4859 19.2872 12.4859 18.9122C12.4859 18.5254 12.1812 18.2207 11.7945 18.2207C11.4195 18.2207 11.1148 18.5254 11.1148 18.9122C11.1148 19.2872 11.4195 19.5918 11.7945 19.5918ZM13.9624 19.9903C14.3374 19.9903 14.6421 19.6856 14.6421 19.2989C14.6421 18.9239 14.3374 18.6192 13.9624 18.6192C13.5757 18.6192 13.271 18.9239 13.271 19.2989C13.271 19.6856 13.5757 19.9903 13.9624 19.9903ZM16.1187 19.5918C16.5054 19.5918 16.7984 19.2872 16.7984 18.9122C16.7984 18.5254 16.5054 18.2207 16.1187 18.2207C15.7319 18.2207 15.439 18.5254 15.439 18.9122C15.439 19.2872 15.7319 19.5918 16.1187 19.5918ZM18.1929 18.6192C18.5796 18.6192 18.8843 18.3262 18.8843 17.9395C18.8843 17.5528 18.5796 17.2598 18.1929 17.2598C17.8179 17.2598 17.5132 17.5528 17.5132 17.9395C17.5132 18.3262 17.8179 18.6192 18.1929 18.6192ZM20.4077 18.1036C20.7945 18.1036 21.0874 17.7989 21.0874 17.4122C21.0874 17.0372 20.7945 16.7325 20.4077 16.7325C20.021 16.7325 19.728 17.0372 19.728 17.4122C19.728 17.7989 20.021 18.1036 20.4077 18.1036ZM22.6226 18.6192C23.0093 18.6192 23.3023 18.3262 23.3023 17.9395C23.3023 17.5528 23.0093 17.2598 22.6226 17.2598C22.2359 17.2598 21.9429 17.5528 21.9429 17.9395C21.9429 18.3262 22.2359 18.6192 22.6226 18.6192ZM24.6851 19.5918C25.0718 19.5918 25.3648 19.2872 25.3648 18.9122C25.3648 18.5254 25.0718 18.2207 24.6851 18.2207C24.2984 18.2207 24.0054 18.5254 24.0054 18.9122C24.0054 19.2872 24.2984 19.5918 24.6851 19.5918ZM26.8648 19.9903C27.2515 19.9903 27.5562 19.6856 27.5562 19.2989C27.5562 18.9239 27.2515 18.6192 26.8648 18.6192C26.4898 18.6192 26.1851 18.9239 26.1851 19.2989C26.1851 19.6856 26.4898 19.9903 26.8648 19.9903Z" fill="black" fill-opacity="0.85"/>
</g>
<defs>
<clipPath id="clip0_2207_2921">
<rect width="27.7383" height="19.957" fill="white" transform="translate(0.0756836 0.0683594)"/>
</clipPath>
</defs>
</svg>
