<svg width="23" height="23" viewBox="0 0 23 23" fill="none" xmlns="http://www.w3.org/2000/svg">
<g clip-path="url(#clip0_2207_2595)">
<path d="M4.68308 5.87451C6.10105 5.87451 7.23777 4.73779 7.23777 3.31983C7.23777 1.91358 6.10105 0.765136 4.68308 0.765136C3.26512 0.765136 2.1284 1.91358 2.1284 3.31983C2.1284 4.73779 3.26512 5.87451 4.68308 5.87451ZM0.112776 10.7964L0.792463 14.9917C1.062 16.5386 3.17137 16.2221 2.92527 14.687L2.32762 11.0659L4.70652 10.1401C5.0698 9.99951 5.38621 10.0464 5.53855 10.3862L7.72996 14.7221C8.38621 16.0229 8.92527 16.4214 9.46433 16.8081L16.5307 21.9995C17.7729 22.9136 19.2612 21.1089 17.8666 20.0776L12.3706 16.0464C12.101 15.8471 12.1245 15.4839 12.4174 15.3198L16.1557 13.1636L21.0541 15.5073C22.4604 16.1636 23.5737 14.2065 21.9331 13.4214L16.7065 10.937C16.062 10.6323 15.4643 10.7261 14.9487 11.0307L12.4877 12.4721C12.1596 12.6596 11.9252 12.5659 11.8081 12.3198L9.82762 8.28858C9.64012 7.91358 9.68699 7.55029 10.0971 7.35108L11.9018 6.53076C12.4995 6.24951 12.7221 6.05029 12.8862 5.47608L14.0346 1.50342C14.4565 0.00341666 12.4409 -0.547364 12.0073 0.952636L10.894 4.84326L0.909651 9.23779C0.229963 9.53076 -0.0161303 10.0464 0.112776 10.7964Z" fill="black" fill-opacity="0.85"/>
</g>
<defs>
<clipPath id="clip0_2207_2595">
<rect width="22.6694" height="22.2461" fill="white" transform="translate(0.079834 0.065918)"/>
</clipPath>
</defs>
</svg>
