<svg width="27" height="27" viewBox="0 0 27 27" fill="none" xmlns="http://www.w3.org/2000/svg">
<g clip-path="url(#clip0_2207_2549)">
<path d="M1.3812 15.9489L10.7679 25.3356C12.5023 27.07 14.2132 27.0817 15.9358 25.3707L25.3694 15.9254C27.0804 14.2145 27.0687 12.4918 25.3343 10.7575L15.9593 1.38242C14.2249 -0.351958 12.514 -0.375396 10.7913 1.34726L1.34604 10.7809C-0.376616 12.5036 -0.353178 14.2145 1.3812 15.9489ZM2.74057 14.6481C1.90854 13.8043 1.8851 12.9254 2.75229 12.0582L12.0569 2.75351C12.9241 1.88632 13.803 1.89804 14.6468 2.74179L23.9749 12.07C24.8069 12.902 24.8304 13.7926 23.9632 14.6598L14.6585 23.9645C13.7913 24.8317 12.889 24.8082 12.0687 23.9879L2.74057 14.6481Z" fill="black" fill-opacity="0.85"/>
<path d="M16.135 20.5075C16.4982 20.5075 16.8615 20.2614 16.8615 19.8161C16.8615 19.6403 16.8147 19.4879 16.7209 19.3004L15.3381 16.4762C15.1975 16.1832 15.0451 15.984 14.9279 15.82L14.1076 14.6364L14.1779 14.4371C14.424 13.7223 14.5412 13.2536 14.5881 12.5504L14.717 10.6754C14.7873 9.6676 14.2131 8.84729 13.0998 8.84729C12.3732 8.84729 11.7053 9.21057 11.0022 9.90198L9.92407 10.945C9.56079 11.2965 9.45532 11.5778 9.42016 12.0231L9.27954 13.5934C9.24438 14.0621 9.51391 14.3668 9.93579 14.402C10.3342 14.4254 10.6272 14.1911 10.674 13.6871L10.8029 11.9996L11.3889 11.4957C11.5647 11.3434 11.7756 11.4371 11.7522 11.695L11.6467 13.1246C11.5764 13.9098 11.9631 14.4723 12.3498 14.9528L13.6975 16.652C13.8264 16.8043 13.8498 16.8629 13.9201 16.9918L15.4084 20.027C15.5607 20.3551 15.8186 20.5075 16.135 20.5075ZM9.76 20.5075C9.98266 20.5075 10.1818 20.4254 10.3225 20.2614L12.467 17.7067C12.7014 17.4254 12.7248 17.4137 12.7834 17.1559L12.9006 16.652L11.7287 15.1754L11.3772 16.8278L9.39672 19.1715C9.24438 19.359 9.09204 19.5465 9.09204 19.8278C9.09204 20.2496 9.37329 20.5075 9.76 20.5075ZM16.5217 12.9606H18.1857C18.6779 12.9606 18.9592 12.6911 18.9592 12.2575C18.9592 11.8473 18.6779 11.5661 18.1857 11.5661H16.4162L15.3264 10.3473L15.1975 12.1754L15.6779 12.6559C15.9123 12.902 16.1232 12.9606 16.5217 12.9606ZM13.9904 8.29651C14.8225 8.29651 15.5139 7.6051 15.5139 6.78479C15.5139 5.92932 14.8225 5.26135 13.9904 5.26135C13.1467 5.26135 12.4787 5.92932 12.4787 6.78479C12.4787 7.6051 13.1467 8.29651 13.9904 8.29651Z" fill="black" fill-opacity="0.85"/>
</g>
<defs>
<clipPath id="clip0_2207_2549">
<rect width="26.5768" height="26.593" fill="white" transform="translate(0.0671387 0.0683594)"/>
</clipPath>
</defs>
</svg>
