<svg width="26" height="29" viewBox="0 0 26 29" fill="none" xmlns="http://www.w3.org/2000/svg">
<g clip-path="url(#clip0_2207_2657)">
<path d="M17.4675 5.16358C18.8854 5.16358 20.0222 4.02686 20.0222 2.62061C20.0222 1.20264 18.8854 0.065918 17.4675 0.065918C16.0495 0.065918 14.9128 1.20264 14.9128 2.62061C14.9128 4.02686 16.0495 5.16358 17.4675 5.16358ZM4.76438 17.3159H11.5143L17.7487 18.1948C20.0807 18.5229 21.7682 17.5034 21.7682 15.2768V11.0581C21.7682 10.8471 21.9909 10.7651 22.1315 10.9057L23.2917 12.0776V16.0854C23.2917 16.7651 23.8659 17.3159 24.5104 17.3159C25.1784 17.3159 25.7175 16.7651 25.7175 16.0854V11.562C25.7175 11.2456 25.6003 10.9292 25.3542 10.6948L22.4011 7.75342C21.5222 6.89795 20.3972 6.39404 19.1432 6.39404H7.57688C6.92063 6.39404 6.35813 6.95654 6.35813 7.6128C6.35813 8.29248 6.89719 8.83154 7.57688 8.83154H16.4714C16.8229 8.83154 17.0807 9.10108 17.0807 9.44092V14.8784H4.76438C4.07297 14.8784 3.53391 15.4175 3.53391 16.0854C3.53391 16.7651 4.09641 17.3159 4.76438 17.3159ZM19.7175 27.687C20.1862 28.1557 20.9479 28.1557 21.4167 27.687C21.8972 27.2182 21.8854 26.4565 21.4167 25.9761L17.5378 22.0503L18.9206 19.3667C18.5104 19.4018 18.0534 19.3667 17.5847 19.3081L15.9089 19.0737L14.8893 21.8862C14.7253 22.3198 14.8307 22.8003 15.1823 23.1518L19.7175 27.687ZM1.22532 12.1362C2.74876 13.6479 4.45969 13.4839 5.10422 12.8511C5.72532 12.1948 5.77219 10.6128 4.27219 9.08936C2.72532 7.5542 1.13157 7.60108 0.48704 8.25733C-0.157491 8.90186 -0.298116 10.5893 1.22532 12.1362Z" fill="black" fill-opacity="0.85"/>
</g>
<defs>
<clipPath id="clip0_2207_2657">
<rect width="25.6902" height="28.0898" fill="white" transform="translate(0.0273438 0.065918)"/>
</clipPath>
</defs>
</svg>
