<svg width="27" height="23" viewBox="0 0 27 23" fill="none" xmlns="http://www.w3.org/2000/svg">
<g clip-path="url(#clip0_2207_2729)">
<path d="M14.9018 5.18701C16.3081 5.18701 17.4565 4.0503 17.4565 2.62061C17.4565 1.21436 16.3081 0.065918 14.9018 0.065918C13.4721 0.065918 12.3354 1.21436 12.3354 2.62061C12.3354 4.0503 13.4721 5.18701 14.9018 5.18701ZM16.7417 13.2612C17.4331 13.2612 17.9838 12.7221 17.9838 12.0307C17.9838 11.3393 17.4331 10.8003 16.7417 10.8003H12.4409V6.39404C12.4409 4.9292 11.2104 3.9917 9.85108 4.27295L2.60889 5.77295C-0.0161133 6.31201 -0.730957 9.41748 1.16748 11.0932L5.6792 15.0542V21.2651C5.6792 21.9331 6.2417 22.4956 6.90967 22.4956C7.57764 22.4956 8.14014 21.9331 8.14014 21.2651V14.5854C8.14014 14.1518 8.04639 13.9175 7.77686 13.6245L4.30811 10.1323C4.10889 9.93311 4.21436 9.66358 4.44873 9.6167L9.32373 8.71436C9.8042 8.62061 9.97998 8.78467 9.97998 9.20654V12.0307C9.97998 12.7221 10.5424 13.2612 11.2104 13.2612H16.7417ZM23.3628 17.9136H25.0737C25.6596 17.9136 26.0464 17.5268 26.0464 16.9409V6.41748C26.0464 5.8667 25.6596 5.47998 25.0971 5.47998H23.3159C19.1323 5.47998 16.601 6.56983 13.9409 9.66358H15.6635C15.7104 9.66358 15.7456 9.66358 15.7924 9.66358C17.8901 7.60108 20.0464 6.82764 23.3159 6.82764H24.687V16.5425H23.3628C22.9292 16.5425 22.601 16.3315 22.4135 15.9682L21.3471 13.8354C21.1596 13.4839 20.8198 13.4018 20.5385 13.4956C20.187 13.6128 19.9174 13.9878 20.1401 14.4448L21.2065 16.5893C21.6167 17.3979 22.437 17.9136 23.3628 17.9136ZM9.27686 17.2573C10.4018 16.4487 11.3042 15.4409 12.1128 14.3979H11.2104C10.9526 14.3979 10.6948 14.3511 10.4487 14.2573C10.0854 14.7026 9.69873 15.1011 9.27686 15.4878V17.2573ZM0.769043 19.144H2.78467C3.40576 19.144 3.9917 19.1089 4.54248 19.0268V17.6675C4.00342 17.7495 3.40576 17.7964 2.78467 17.7964H0.769043C0.382325 17.7964 0.0776367 18.0776 0.0776367 18.4761C0.0776367 18.8276 0.382325 19.144 0.769043 19.144Z" fill="black" fill-opacity="0.85"/>
</g>
<defs>
<clipPath id="clip0_2207_2729">
<rect width="25.9688" height="22.4414" fill="white" transform="translate(0.0776367 0.065918)"/>
</clipPath>
</defs>
</svg>
