<svg width="30" height="23" viewBox="0 0 30 23" fill="none" xmlns="http://www.w3.org/2000/svg">
<g clip-path="url(#clip0_2207_2813)">
<path d="M14.8728 17.9616C15.5173 17.9616 16.0446 17.4343 16.0446 16.7898V10.8952C16.0446 10.614 15.9392 10.3562 15.7165 10.0983L12.6462 6.67652C12.4587 6.46558 12.5876 6.14917 12.8806 6.14917H16.6423C17.0993 6.14917 17.2399 6.4773 17.2399 6.7937V9.71167C17.2399 10.3562 17.7673 10.8718 18.4118 10.8718H23.1345C23.779 10.8718 24.2946 10.3562 24.2946 9.71167C24.2946 9.06714 23.779 8.5398 23.1345 8.5398H19.5837V4.39136C19.5837 3.07886 18.5407 2.03589 17.2282 2.03589H11.4743C10.279 2.03589 9.22437 2.76245 8.75562 3.8523C8.29859 4.96558 8.5564 6.20776 9.40015 7.06323L13.7009 11.3874V16.7898C13.7009 17.4343 14.2282 17.9616 14.8728 17.9616ZM6.38843 22.5788C9.92749 22.5788 12.7634 19.7429 12.7634 16.2038C12.7634 12.6765 9.92749 9.82886 6.38843 9.82886C2.86109 9.82886 0.0251465 12.6765 0.0251465 16.2038C0.0251465 19.7429 2.86109 22.5788 6.38843 22.5788ZM6.38843 20.9265C3.79859 20.9265 1.67749 18.8054 1.67749 16.2038C1.67749 13.6023 3.79859 11.4812 6.38843 11.4812C8.98999 11.4812 11.111 13.6023 11.111 16.2038C11.111 18.8054 8.98999 20.9265 6.38843 20.9265ZM26.486 12.6999C27.4353 13.5554 28.0563 14.8093 28.0563 16.2038C28.0563 18.8054 25.9353 20.9265 23.3454 20.9265C20.7439 20.9265 18.6228 18.8054 18.6228 16.2038C18.6228 15.5476 18.7517 14.903 18.9978 14.3405C19.2673 13.7077 18.9978 13.2624 18.5876 13.1218C18.2009 12.9694 17.7439 13.0983 17.5329 13.6023C17.1696 14.4109 16.9704 15.278 16.9704 16.2038C16.9704 19.7429 19.8063 22.5788 23.3454 22.5788C26.8728 22.5788 29.7087 19.7429 29.7087 16.2038C29.7087 14.2819 28.8767 12.5944 27.529 11.4109C27.0954 11.0359 26.6032 11.1296 26.3103 11.446C26.029 11.7624 25.9821 12.2546 26.486 12.6999ZM23.3454 5.18823C24.7517 5.18823 25.8884 4.0398 25.8884 2.62183C25.8884 1.21558 24.7517 0.0671387 23.3454 0.0671387C21.9157 0.0671387 20.7673 1.21558 20.7673 2.62183C20.7673 4.0398 21.9157 5.18823 23.3454 5.18823Z" fill="black" fill-opacity="0.85"/>
</g>
<defs>
<clipPath id="clip0_2207_2813">
<rect width="29.6836" height="22.6523" fill="white" transform="translate(0.0251465 0.0671387)"/>
</clipPath>
</defs>
</svg>
