<svg width="17" height="32" viewBox="0 0 17 32" fill="none" xmlns="http://www.w3.org/2000/svg">
<g clip-path="url(#clip0_2207_2749)">
<path d="M13.1116 8.33936C14.5178 8.33936 15.6545 7.19092 15.6545 5.76123C15.6545 4.3667 14.5178 3.21826 13.1116 3.21826C11.6819 3.21826 10.5335 4.3667 10.5335 5.76123C10.5335 7.19092 11.6819 8.33936 13.1116 8.33936ZM7.20532 31.5425C7.84984 31.5425 8.38891 31.0151 8.38891 30.3589V24.5112L11.1311 20.4682C11.2366 20.3042 11.471 20.3511 11.4944 20.562L11.9163 24.1714C11.9397 24.3706 11.9749 24.4761 12.0686 24.6987L14.3772 30.7807C14.6585 31.519 15.3381 31.6714 15.8889 31.4721C16.4397 31.2612 16.8616 30.6987 16.5803 29.9487L14.3069 23.9018V12.7456C14.3069 11.4917 13.7795 10.1909 12.5725 9.69873L11.8342 9.39404C10.4749 8.83154 9.1975 8.99561 8.04907 9.81592L5.27172 11.8198L2.16625 10.5073L8.33032 1.96436H10.3811C10.9085 1.96436 11.342 1.53076 11.342 1.01514C11.342 0.476074 10.9085 0.065918 10.3811 0.065918H8.43577C8.22484 0.065918 8.01391 0.159668 7.88499 0.335449L0.338123 10.7886C-0.0720338 11.3511 0.0217165 12.1714 0.689685 12.4526L4.95532 14.2807C5.14282 14.3511 5.27172 14.3628 5.54124 14.3628H8.36547C8.81077 14.3628 8.96313 14.6557 8.96313 14.9839V18.23L6.13891 23.5854C6.03343 23.7847 6.00999 23.937 6.00999 24.1597V30.3589C6.00999 31.0151 6.53734 31.5425 7.20532 31.5425Z" fill="black" fill-opacity="0.85"/>
</g>
<defs>
<clipPath id="clip0_2207_2749">
<rect width="16.5777" height="31.6055" fill="white" transform="translate(0.0922852 0.065918)"/>
</clipPath>
</defs>
</svg>
