<svg width="26" height="28" viewBox="0 0 26 28" fill="none" xmlns="http://www.w3.org/2000/svg">
<g clip-path="url(#clip0_2207_2673)">
<path d="M11.7673 5.1753C13.1736 5.1753 14.3103 4.03858 14.3103 2.60889C14.3103 1.20264 13.1736 0.065918 11.7673 0.065918C10.3376 0.065918 9.20095 1.20264 9.20095 2.60889C9.20095 4.03858 10.3376 5.1753 11.7673 5.1753ZM0.974388 26.6792C1.4197 27.1128 2.15798 27.1948 2.6736 26.6792L7.80641 21.5581C8.12282 21.2534 8.18141 21.0073 8.14626 20.5503L7.85329 17.2456C7.82985 17.0347 8.02907 16.9409 8.1697 17.0698L11.8493 20.2339L13.7595 26.1753C13.9822 26.8667 14.6853 27.1362 15.2829 26.9604C15.9626 26.7612 16.279 26.0815 16.0681 25.437L14.0876 19.1792C14.029 19.0034 13.9236 18.8042 13.7829 18.6753L9.82204 14.7612L12.365 9.6753C12.4704 9.46436 12.7282 9.41748 12.904 9.59326L15.7517 12.4643C15.8806 12.5932 16.0681 12.6987 16.2556 12.7573L21.9626 14.4682C22.4314 14.6089 23.2165 14.4214 23.4626 13.6362C23.6501 13.0034 23.2868 12.312 22.6423 12.1245L17.24 10.5307L14.1579 7.41358C13.4548 6.71045 12.6462 6.40576 11.6853 6.40576H3.52907C3.06032 6.40576 2.65016 6.66358 2.45095 7.07373L0.165795 11.6206C-0.127174 12.2065 0.0837631 12.9448 0.704856 13.2378C1.32595 13.5307 2.02907 13.3081 2.33376 12.687L4.26735 8.83154H6.68141C6.95095 8.83154 7.11501 9.08936 6.9861 9.34717L5.21657 12.8979C4.58376 14.1518 4.40798 15.6167 4.75954 16.9995L5.60329 20.3159L0.95095 24.9448C0.4822 25.4018 0.493919 26.1987 0.974388 26.6792ZM22.3025 21.3471C23.8493 21.3471 25.0915 20.0932 25.0915 18.5581C25.0915 17.0229 23.8493 15.7807 22.3025 15.7807C20.7673 15.7807 19.5251 17.0229 19.5251 18.5581C19.5251 20.0932 20.7673 21.3471 22.3025 21.3471Z" fill="black" fill-opacity="0.85"/>
</g>
<defs>
<clipPath id="clip0_2207_2673">
<rect width="25.0559" height="27.1289" fill="white" transform="translate(0.0356445 0.065918)"/>
</clipPath>
</defs>
</svg>
