<svg width="18" height="26" viewBox="0 0 18 26" fill="none" xmlns="http://www.w3.org/2000/svg">
<g clip-path="url(#clip0_2207_16207)">
<path d="M9.02974 5.81983C10.6352 5.81983 11.9008 4.54248 11.9008 2.94873C11.9008 1.35498 10.6235 0.065918 9.02974 0.065918C7.44771 0.065918 6.15864 1.35498 6.15864 2.94873C6.15864 4.54248 7.43599 5.81983 9.02974 5.81983ZM8.94771 16.0854C9.34614 16.0854 9.62739 16.3081 9.74458 16.7534L11.7016 24.2886C12.1469 25.9878 14.4672 25.4136 14.2212 23.7964C14.1274 23.1753 12.4399 16.8003 12.1938 15.3589C12.0063 14.2925 12.0883 11.6206 12.0883 10.4487C12.0883 10.0854 12.393 9.90967 12.7563 10.0503L16.0844 11.3862C16.9751 11.7495 17.6313 11.3042 17.8071 10.6948C17.9829 10.1323 17.7368 9.4292 16.9047 9.07764L13.2954 7.60108C12.4751 7.26123 11.7251 7.06201 10.9047 6.96826C10.3188 7.26123 9.65083 7.41358 8.94771 7.41358C8.2563 7.41358 7.58833 7.26123 7.00239 6.96826C6.17036 7.06201 5.43208 7.26123 4.61177 7.60108L1.0024 9.07764C0.170364 9.4292 -0.087448 10.1323 0.100052 10.6948C0.275833 11.3042 0.920364 11.7495 1.81099 11.3862L5.15083 10.0503C5.51411 9.90967 5.80708 10.0854 5.80708 10.4487C5.80708 11.6206 5.88911 14.2925 5.71333 15.3589C5.46724 16.8003 3.76802 23.1753 3.67427 23.7964C3.42817 25.4136 5.76021 25.9878 6.1938 24.2886L8.15083 16.7534C8.26802 16.3081 8.56099 16.0854 8.94771 16.0854Z" fill="black" fill-opacity="0.85"/>
</g>
<defs>
<clipPath id="clip0_2207_16207">
<rect width="17.8186" height="25.9336" fill="white" transform="translate(0.0419922 0.065918)"/>
</clipPath>
</defs>
</svg>
