<svg width="24" height="24" viewBox="0 0 24 24" fill="none" xmlns="http://www.w3.org/2000/svg">
<g id="figure.walk.circle" clip-path="url(#clip0_2124_13334)">
<g id="Group">
<path id="Vector" d="M11.9531 23.9062C18.4922 23.9062 23.9062 18.4805 23.9062 11.9531C23.9062 5.41406 18.4805 0 11.9414 0C5.41406 0 0 5.41406 0 11.9531C0 18.4805 5.42578 23.9062 11.9531 23.9062ZM11.9531 21.9141C6.42188 21.9141 2.00391 17.4844 2.00391 11.9531C2.00391 6.42188 6.41016 1.99219 11.9414 1.99219C17.4727 1.99219 21.9141 6.42188 21.9141 11.9531C21.9141 17.4844 17.4844 21.9141 11.9531 21.9141Z" fill="black" fill-opacity="0.85"/>
<path id="Vector_2" d="M14.707 19.1016C15.082 19.1016 15.4336 18.8555 15.4336 18.4102C15.4336 18.2344 15.3984 18.082 15.3047 17.8945L13.9219 15.0703C13.7695 14.7773 13.6289 14.5781 13.5117 14.4141L12.6797 13.2305L12.75 13.0312C12.9961 12.3164 13.1133 11.8477 13.1602 11.1445L13.2891 9.26953C13.3594 8.26172 12.7969 7.44141 11.6836 7.44141C10.9453 7.44141 10.2891 7.80469 9.57422 8.49609L8.49609 9.53906C8.13281 9.89062 8.03906 10.1719 7.99219 10.6172L7.86328 12.1875C7.81641 12.6562 8.08594 12.9609 8.51953 12.9961C8.90625 13.0195 9.19922 12.7852 9.24609 12.2812L9.38672 10.5938L9.96094 10.0898C10.1367 9.9375 10.3477 10.0312 10.3242 10.2891L10.2188 11.7188C10.1602 12.5039 10.5352 13.0664 10.9219 13.5469L12.2812 15.2461C12.3984 15.3984 12.4219 15.457 12.4922 15.5859L13.9922 18.6211C14.1445 18.9492 14.3906 19.1016 14.707 19.1016ZM8.33203 19.1016C8.55469 19.1016 8.76562 19.0195 8.89453 18.8555L11.0391 16.3008C11.2734 16.0195 11.3086 16.0078 11.3672 15.75L11.4844 15.2461L10.3008 13.7695L9.96094 15.4219L7.98047 17.7656C7.81641 17.9531 7.66406 18.1406 7.66406 18.4219C7.66406 18.8438 7.94531 19.1016 8.33203 19.1016ZM15.0938 11.5547H16.7578C17.25 11.5547 17.5312 11.2852 17.5312 10.8516C17.5312 10.4414 17.25 10.1602 16.7578 10.1602H15L13.8984 8.94141L13.7695 10.7695L14.25 11.25C14.4961 11.4961 14.6953 11.5547 15.0938 11.5547ZM12.5625 6.89062C13.4062 6.89062 14.0977 6.19922 14.0977 5.37891C14.0977 4.52344 13.4062 3.85547 12.5625 3.85547C11.7188 3.85547 11.0508 4.52344 11.0508 5.37891C11.0508 6.19922 11.7188 6.89062 12.5625 6.89062Z" fill="black" fill-opacity="0.85"/>
</g>
</g>
<defs>
<clipPath id="clip0_2124_13334">
<rect width="23.9062" height="23.918" fill="white"/>
</clipPath>
</defs>
</svg>
