<svg width="22" height="29" viewBox="0 0 22 29" fill="none" xmlns="http://www.w3.org/2000/svg">
<g clip-path="url(#clip0_2207_2873)">
<path d="M8.33374 10.3106C9.75171 10.3106 10.9001 9.16211 10.9001 7.74414C10.9001 6.32617 9.75171 5.18945 8.33374 5.18945C6.91577 5.18945 5.77906 6.32617 5.77906 7.74414C5.77906 9.16211 6.91577 10.3106 8.33374 10.3106ZM2.09937 25.709L9.14234 27.4786C10.1384 27.7246 10.8063 26.9981 10.6774 26.0723L10.0212 21.584H15.5993L19.9587 26.002C20.4157 26.459 21.1774 26.459 21.6345 26.002C22.1267 25.545 22.1032 24.7715 21.6345 24.3028L17.029 19.6739C16.7126 19.3575 16.5837 19.2637 16.0563 19.2051L11.0056 18.7012L9.72827 14.8457C9.63453 14.5762 9.84546 14.3067 10.1384 14.3653L19.3728 16.2051C19.9704 16.3223 20.6384 16.0059 20.7556 15.2911C20.861 14.6465 20.486 14.0254 19.8415 13.8965L7.07984 11.3536C5.95484 11.1309 5.35718 10.9668 4.85327 10.4746L2.39234 8.03711V2.58789C2.39234 1.93164 1.86499 1.4043 1.22046 1.4043C0.540771 1.4043 0.0251465 1.93164 0.0251465 2.58789V8.33008C0.0251465 8.82227 0.0837403 9.10352 0.435302 9.45508L3.17749 12.1856C3.73999 12.7598 3.81031 12.959 4.00953 13.5332L7.71265 24.6661L2.67359 23.4004C2.04077 23.2364 1.39624 23.6348 1.25562 24.2793C1.11499 24.9004 1.47827 25.545 2.09937 25.709ZM4.6189 2.99805C5.41577 2.99805 6.08374 2.35352 6.08374 1.5332C6.08374 0.724609 5.41577 0.0683594 4.6189 0.0683594C3.78687 0.0683594 3.16577 0.724609 3.16577 1.5332C3.16577 2.35352 3.78687 2.99805 4.6189 2.99805Z" fill="black" fill-opacity="0.85"/>
</g>
<defs>
<clipPath id="clip0_2207_2873">
<rect width="21.9698" height="28.1133" fill="white" transform="translate(0.0251465 0.0683594)"/>
</clipPath>
</defs>
</svg>
