<svg width="26" height="34" viewBox="0 0 26 34" fill="none" xmlns="http://www.w3.org/2000/svg">
<g clip-path="url(#clip0_2207_16147)">
<path d="M22.6392 11.3416C24.3853 11.3416 25.7916 9.87683 25.7916 8.17761C25.7916 6.40808 24.3853 4.97839 22.6392 4.97839C20.858 4.97839 19.4517 6.40808 19.4517 8.17761C19.4517 9.9237 20.858 11.3416 22.6392 11.3416ZM3.74862 28.1112C4.358 28.744 5.40097 28.6971 6.15097 27.9237L11.19 22.7205C11.3541 22.5448 11.4713 22.4979 11.7408 22.6034L15.6666 24.0916C18.1978 25.0643 20.5885 24.2323 21.69 22.2166L24.2213 17.6112C25.2057 15.8182 24.901 13.9666 23.19 13.0526C21.5377 12.1502 19.815 12.8299 18.8189 14.6698L15.5377 20.658L12.7369 19.6385C11.3541 19.1346 10.1939 19.2987 9.09237 20.4471L3.85409 25.8612C3.12753 26.6112 3.19784 27.5487 3.74862 28.1112Z" fill="black" fill-opacity="0.85"/>
<path d="M0.326679 7.53309C0.666523 7.87293 1.2173 7.87293 1.55715 7.53309L4.79152 4.28699L6.0923 5.58778C6.66652 6.16199 7.52199 5.83387 7.55715 5.00184L7.81496 0.947149C7.8384 0.396368 7.49855 0.0448053 6.93605 0.0682427L2.86965 0.314337C2.08449 0.361212 1.69777 1.16981 2.29543 1.77918L3.58449 3.07996L0.338398 6.31434C-0.00144556 6.65418 -0.00144555 7.20496 0.326679 7.53309ZM4.49855 9.65418C4.49855 10.1463 4.87355 10.533 5.36574 10.533H9.95949V12.3612C9.95949 13.1815 10.7915 13.5448 11.4126 12.994L14.4477 10.2987C14.8579 9.91199 14.8579 9.43153 14.4477 9.05653L11.4126 6.36121C10.8149 5.83387 9.95949 6.12684 9.95949 6.99403V8.81043H5.36574C4.87355 8.81043 4.49855 9.18543 4.49855 9.65418Z" fill="black" fill-opacity="0.85"/>
</g>
<defs>
<clipPath id="clip0_2207_16147">
<rect width="25.7095" height="33.5999" fill="white" transform="translate(0.0820312 0.0671387)"/>
</clipPath>
</defs>
</svg>
