<svg width="26" height="34" viewBox="0 0 26 34" fill="none" xmlns="http://www.w3.org/2000/svg">
<g clip-path="url(#clip0_2207_16142)">
<path d="M22.6412 11.3416C24.3873 11.3416 25.7936 9.87683 25.7936 8.17761C25.7936 6.40808 24.3873 4.97839 22.6412 4.97839C20.86 4.97839 19.4537 6.40808 19.4537 8.17761C19.4537 9.9237 20.86 11.3416 22.6412 11.3416ZM3.75058 28.1112C4.35996 28.744 5.40293 28.6971 6.15293 27.9237L11.192 22.7205C11.3561 22.5448 11.4733 22.4979 11.7428 22.6034L15.6686 24.0916C18.1998 25.0643 20.5905 24.2323 21.692 22.2166L24.2233 17.6112C25.2077 15.8182 24.903 13.9666 23.192 13.0526C21.5397 12.1502 19.817 12.8299 18.8209 14.6698L15.5397 20.658L12.7389 19.6385C11.3561 19.1346 10.1959 19.2987 9.09433 20.4471L3.85605 25.8612C3.12949 26.6112 3.1998 27.5487 3.75058 28.1112Z" fill="black" fill-opacity="0.85"/>
<path d="M0.328632 7.53309C0.668476 7.87293 1.21925 7.87293 1.5591 7.53309L4.79347 4.28699L6.09425 5.58778C6.66847 6.16199 7.52394 5.83387 7.5591 5.00184L7.81691 0.947149C7.84035 0.396368 7.5005 0.0448053 6.938 0.0682427L2.8716 0.314337C2.08644 0.361212 1.69972 1.16981 2.29738 1.77918L3.58644 3.07996L0.340351 6.31434C0.000507563 6.65418 0.000507578 7.20496 0.328632 7.53309ZM4.5005 9.65418C4.5005 10.1463 4.8755 10.533 5.36769 10.533H9.96144V12.3612C9.96144 13.1815 10.7935 13.5448 11.4146 12.994L14.4497 10.2987C14.8599 9.91199 14.8599 9.43153 14.4497 9.05653L11.4146 6.36121C10.8169 5.83387 9.96144 6.12684 9.96144 6.99403V8.81043H5.36769C4.8755 8.81043 4.5005 9.18543 4.5005 9.65418ZM0.328632 11.787C0.000507578 12.1151 0.000507563 12.6541 0.340351 13.0057L3.58644 16.2401L2.29738 17.5409C1.69972 18.1502 2.08644 18.9588 2.8716 19.0057L6.938 19.2401C7.5005 19.2752 7.84035 18.9237 7.81691 18.3729L7.5591 14.3182C7.52394 13.4862 6.66847 13.158 6.09425 13.7323L4.79347 15.033L1.5591 11.787C1.21925 11.4471 0.668476 11.4471 0.328632 11.787Z" fill="black" fill-opacity="0.85"/>
</g>
<defs>
<clipPath id="clip0_2207_16142">
<rect width="25.7095" height="33.5999" fill="white" transform="translate(0.0839844 0.0671387)"/>
</clipPath>
</defs>
</svg>
