<svg width="19" height="30" viewBox="0 0 19 30" fill="none" xmlns="http://www.w3.org/2000/svg">
<g clip-path="url(#clip0_2207_2769)">
<path d="M9.66579 5.18823C11.072 5.18823 12.2088 4.0398 12.2088 2.61011C12.2088 1.20386 11.072 0.0671387 9.66579 0.0671387C8.2361 0.0671387 7.08766 1.20386 7.08766 2.61011C7.08766 4.0398 8.2361 5.18823 9.66579 5.18823ZM14.0369 29.3288C14.6697 29.1413 14.9978 28.4382 14.7869 27.8054L12.9236 22.1921C12.865 22.0163 12.8064 21.946 12.7009 21.7937L9.57204 18.2077L10.2283 11.071C10.24 10.8366 10.5213 10.7663 10.6502 10.9655L12.1619 13.2976C12.3845 13.6257 12.7127 13.9187 13.0408 14.1062L16.8259 16.1452C17.4119 16.4499 18.1267 16.239 18.4549 15.6648C18.7478 15.0788 18.5486 14.3523 17.9744 14.0359L14.1775 12.0085L11.658 8.11792C10.9666 7.05152 9.95876 6.4187 8.56423 6.4187H6.06813L5.09548 15.6648C4.96657 16.8601 5.18923 17.6335 6.16188 18.6296L10.7322 23.2233L12.5252 28.5554C12.783 29.3288 13.4744 29.4812 14.0369 29.3288ZM3.61891 15.6648H5.54079C6.57204 15.6648 7.36891 14.903 7.36891 13.9187V6.92261C7.36891 5.93823 6.57204 5.1648 5.54079 5.1648H4.22829C2.74001 5.1648 1.87282 6.0437 1.87282 7.55542V13.9187C1.87282 14.9499 2.58766 15.6648 3.61891 15.6648ZM0.349379 29.0124C0.829848 29.5046 1.55641 29.4812 2.02516 29.0124L6.40798 24.653C6.49001 24.5593 6.58376 24.4773 6.63063 24.3718L7.83766 21.9226L5.74001 19.8249L4.52126 23.1648L0.349379 27.3601C-0.107652 27.8288 -0.119371 28.5554 0.349379 29.0124ZM17.3181 9.62964C16.9549 9.62964 16.6736 9.91089 16.6736 10.2741V12.0554L17.9744 12.7585V10.2741C17.9744 9.91089 17.6814 9.62964 17.3181 9.62964ZM17.3181 29.364C17.6814 29.364 17.9744 29.071 17.9744 28.7077V17.3405C17.5525 17.4577 17.1072 17.446 16.6736 17.3054V28.7077C16.6736 29.071 16.9549 29.364 17.3181 29.364Z" fill="black" fill-opacity="0.85"/>
</g>
<defs>
<clipPath id="clip0_2207_2769">
<rect width="18.5867" height="29.543" fill="white" transform="translate(0.00219727 0.0671387)"/>
</clipPath>
</defs>
</svg>
