<svg width="23" height="28" viewBox="0 0 23 28" fill="none" xmlns="http://www.w3.org/2000/svg">
<g clip-path="url(#clip0_2207_16227)">
<path d="M8.82495 24.8739H19.5593C21.2703 24.8739 22.1843 23.9364 22.1843 22.0848V14.0106C22.1843 12.1591 21.2703 11.2333 19.5593 11.2333H8.82495C7.10229 11.2333 6.18823 12.1591 6.18823 14.0106V22.0848C6.18823 23.9364 7.10229 24.8739 8.82495 24.8739ZM8.25073 12.1356H10.1023V8.17468C10.1023 5.22155 12.0007 3.65124 14.1921 3.65124C16.3836 3.65124 18.282 5.22155 18.282 8.17468V12.1356H20.1453V8.43249C20.1453 4.02624 17.2625 1.88171 14.1921 1.88171C11.1218 1.88171 8.25073 4.02624 8.25073 8.43249V12.1356Z" fill="black" fill-opacity="0.85"/>
<path d="M0.153126 16.3544C0.528126 17.6669 1.92265 18.4169 3.43437 17.8426L3.92656 17.6434C3.92656 18.1122 3.92656 18.4755 3.85625 18.7684L2.59062 24.0536C1.77031 27.452 6.46953 28.6356 7.31328 25.4364H7.93437C8.7664 28.6356 13.489 27.4403 12.657 24.0536L11.3679 18.7684C11.3093 18.4755 11.3211 18.1122 11.3211 17.6434L11.8132 17.8426C13.3132 18.4169 14.7195 17.6669 15.0945 16.3544C15.4578 15.1708 14.8836 13.8817 13.5593 13.3426L10.8054 12.2059C11.0281 11.7489 11.157 11.245 11.157 10.7059C11.157 8.76062 9.59844 7.16687 7.62969 7.16687C5.69609 7.16687 4.10234 8.74891 4.10234 10.7059C4.10234 11.245 4.23125 11.7489 4.4539 12.1942L1.68828 13.3426C0.364064 13.8934 -0.210156 15.1708 0.153126 16.3544Z" fill="white"/>
<path d="M7.62974 12.6278C8.71958 12.6278 9.56333 11.7723 9.56333 10.7059C9.56333 9.63953 8.71958 8.77234 7.62974 8.77234C6.57505 8.77234 5.69614 9.63953 5.69614 10.7059C5.69614 11.7723 6.57505 12.6278 7.62974 12.6278ZM7.61802 19.5184C7.87583 19.5184 8.08677 19.6708 8.15708 19.9637L9.4813 25.038C9.77427 26.163 11.3212 25.7645 11.1688 24.6981C11.0868 24.2762 9.96177 19.9872 9.7977 19.0262C9.68052 18.3231 9.73911 16.5301 9.73911 15.7216C9.73911 15.4989 9.93833 15.3466 10.1727 15.452L12.411 16.3544C13.0204 16.6005 13.4422 16.3075 13.5594 15.9091C13.6883 15.5106 13.5126 15.0419 12.9501 14.8192L10.5477 13.8231C9.97349 13.5887 9.4813 13.4716 8.9188 13.3895C8.52036 13.577 8.08677 13.6942 7.61802 13.6942C7.14927 13.6942 6.72739 13.577 6.32895 13.3895C5.76645 13.4716 5.26255 13.5887 4.70005 13.8231L2.28599 14.8192C1.7352 15.0419 1.55942 15.5106 1.68833 15.9091C1.7938 16.3075 2.22739 16.6005 2.83677 16.3544L5.07505 15.452C5.30942 15.3466 5.50864 15.4989 5.50864 15.7216C5.50864 16.5301 5.56724 18.3231 5.45005 19.0262C5.28599 19.9872 4.16099 24.2762 4.07895 24.6981C3.91489 25.7645 5.47349 26.163 5.76645 25.038L7.07895 19.9637C7.16099 19.6708 7.3602 19.5184 7.61802 19.5184Z" fill="black" fill-opacity="0.85"/>
</g>
<defs>
<clipPath id="clip0_2207_16227">
<rect width="22.1382" height="27.2449" fill="white" transform="translate(0.0461426 0.065918)"/>
</clipPath>
</defs>
</svg>
