<svg width="30" height="27" viewBox="0 0 30 27" fill="none" xmlns="http://www.w3.org/2000/svg">
<g clip-path="url(#clip0_2207_2476)">
<path d="M7.88815 5.1167C9.2944 5.1167 10.4194 4.00342 10.4194 2.59717C10.4194 1.19092 9.2944 0.065918 7.88815 0.065918C6.4819 0.065918 5.3569 1.19092 5.3569 2.59717C5.3569 4.00342 6.4819 5.1167 7.88815 5.1167ZM7.88815 16.4604C8.36862 16.4604 8.55612 16.7886 8.82565 17.6323C9.22408 18.8159 10.4077 23.7261 10.8061 25.1675C11.0053 25.894 11.3803 26.1987 11.9311 26.1987C12.6811 26.1987 13.1381 25.519 12.9272 24.7807C12.8452 24.4643 11.146 17.3628 10.8999 15.8979C10.7006 14.6089 10.6538 12.0073 10.6538 10.7768C10.6538 10.5893 10.8647 10.519 10.9819 10.6831C11.8608 11.9136 13.4663 14.2104 13.7827 14.5854C14.1342 14.9839 14.6967 15.0542 15.1538 14.7964C15.7514 14.48 15.8921 13.8354 15.646 13.3901C15.5522 13.2143 15.4233 13.0386 15.3061 12.8628L12.271 8.39795C11.31 6.97998 10.1147 6.34717 7.88815 6.34717C5.66158 6.34717 4.46627 6.97998 3.50533 8.39795L0.470173 12.8628C0.352986 13.0386 0.22408 13.2143 0.13033 13.3901C-0.115764 13.8354 0.0131423 14.48 0.622517 14.7964C1.07955 15.0542 1.64205 14.9839 1.9819 14.5854C2.2983 14.2104 3.91549 11.9253 4.7944 10.6831C4.89987 10.5307 5.12252 10.5893 5.12252 10.7886C5.12252 12.019 5.06393 14.6089 4.86471 15.8979C4.63033 17.3628 2.93112 24.4643 2.84908 24.7807C2.63814 25.519 3.09518 26.1987 3.84518 26.1987C4.39596 26.1987 4.77096 25.894 4.97018 25.1675C5.36862 23.7261 6.55221 18.8159 6.95065 17.6323C7.22018 16.7886 7.40768 16.4604 7.88815 16.4604ZM21.3647 5.1167C22.771 5.1167 23.896 4.00342 23.896 2.59717C23.896 1.19092 22.771 0.065918 21.3647 0.065918C19.9585 0.065918 18.8335 1.19092 18.8335 2.59717C18.8335 4.00342 19.9585 5.1167 21.3647 5.1167ZM21.3647 16.4604C21.8335 16.4604 22.0327 16.7886 22.3022 17.6323C22.6889 18.8159 23.8842 23.7261 24.2827 25.1675C24.4819 25.894 24.8569 26.1987 25.4077 26.1987C26.1577 26.1987 26.6147 25.519 26.4038 24.7807C26.31 24.4643 24.6108 17.3628 24.3764 15.8979C24.1772 14.6089 24.1186 12.0073 24.1186 10.7768C24.1186 10.5893 24.3413 10.519 24.4467 10.6831C25.3374 11.9136 26.9428 14.2104 27.2592 14.5854C27.6108 14.9839 28.1616 15.0542 28.6303 14.7964C29.228 14.48 29.3686 13.8354 29.1108 13.3901C29.0171 13.2143 28.8999 13.0386 28.771 12.8628L25.7475 8.39795C24.7749 6.97998 23.5913 6.34717 21.3647 6.34717C19.1381 6.34717 17.9428 6.97998 16.9819 8.39795L13.9467 12.8628C13.8178 13.0386 13.7006 13.2143 13.6069 13.3901C13.3608 13.8354 13.4897 14.48 14.0874 14.7964C14.5561 15.0542 15.1069 14.9839 15.4585 14.5854C15.7749 14.2104 17.3803 11.9253 18.271 10.6831C18.3764 10.5307 18.5991 10.5893 18.5991 10.7886C18.5991 12.019 18.5405 14.6089 18.3413 15.8979C18.1069 17.3628 16.4077 24.4643 16.3256 24.7807C16.103 25.519 16.5717 26.1987 17.3217 26.1987C17.8725 26.1987 18.2358 25.894 18.435 25.1675C18.8335 23.7261 20.0288 18.8159 20.4155 17.6323C20.685 16.7886 20.8842 16.4604 21.3647 16.4604Z" fill="black" fill-opacity="0.85"/>
</g>
<defs>
<clipPath id="clip0_2207_2476">
<rect width="29.2213" height="26.4727" fill="white" transform="translate(0.0126953 0.065918)"/>
</clipPath>
</defs>
</svg>
