<svg width="23" height="25" viewBox="0 0 23 25" fill="none" xmlns="http://www.w3.org/2000/svg">
<g clip-path="url(#clip0_2207_16096)">
<path d="M19.3912 6.62964C21.1491 6.62964 22.5553 5.1648 22.5553 3.46558C22.5553 1.69605 21.1491 0.254639 19.3912 0.254639C17.6217 0.254639 16.2037 1.69605 16.2037 3.46558C16.2037 5.19995 17.6217 6.62964 19.3912 6.62964ZM17.3522 18.7702C17.8678 18.3601 18.36 17.6687 18.8287 16.8015L20.985 12.8874C21.9811 11.0827 21.653 9.24292 19.9537 8.32886C18.3014 7.4148 16.5905 8.11792 15.5827 9.94605L13.3561 13.9655L17.3522 18.7702ZM0.51237 23.3757C1.12174 24.0202 2.16471 23.9616 2.91471 23.1999L7.95377 17.9968C8.12956 17.821 8.23502 17.7741 8.49284 17.8796L12.7467 19.4851C13.6725 19.8366 14.6803 19.7663 15.4186 19.6257L12.4889 16.0046L9.50065 14.9148C8.11784 14.4109 6.9694 14.5749 5.85612 15.7233L0.617839 21.1374C-0.0970051 21.8874 -0.0384111 22.8249 0.51237 23.3757ZM19.8834 23.5163C20.3639 23.1413 20.3991 22.5554 19.942 22.0046L17.3522 18.7702C16.7545 19.1921 16.0983 19.4851 15.4186 19.6257L18.4069 23.2937C18.8405 23.821 19.3912 23.9265 19.8834 23.5163Z" fill="black" fill-opacity="0.85"/>
<path d="M6.05518 11.9616C9.37158 11.9616 11.9497 9.2312 11.9497 6.05542C11.9497 2.73902 9.37158 0.0671387 6.05518 0.0671387C2.75049 0.0671387 0.090332 2.73902 0.090332 6.05542C0.090332 9.2312 2.75049 11.9616 6.05518 11.9616Z" fill="black" fill-opacity="0.85"/>
</g>
<defs>
<clipPath id="clip0_2207_16096">
<rect width="22.465" height="23.9414" fill="white" transform="translate(0.090332 0.0671387)"/>
</clipPath>
</defs>
</svg>
