<svg width="27" height="27" viewBox="0 0 27 27" fill="none" xmlns="http://www.w3.org/2000/svg">
<g id="figure.walk.diamond" clip-path="url(#clip0_2124_13344)">
<g id="Group">
<path id="Vector" d="M1.31406 15.8805L10.7008 25.2672C12.4352 27.0016 14.1461 27.0133 15.8687 25.3023L25.3023 15.857C27.0133 14.1461 27.0016 12.4234 25.2672 10.6891L15.8922 1.31406C14.1578 -0.420317 12.4469 -0.443755 10.7242 1.2789L1.2789 10.7125C-0.443755 12.4352 -0.420317 14.1461 1.31406 15.8805ZM2.67343 14.5797C1.8414 13.7359 1.81796 12.857 2.68515 11.9898L11.9898 2.68515C12.857 1.81796 13.7359 1.82968 14.5797 2.67343L23.9078 12.0016C24.7398 12.8336 24.7633 13.7242 23.8961 14.5914L14.5914 23.8961C13.7242 24.7633 12.8219 24.7398 12.0016 23.9195L2.67343 14.5797Z" fill="black" fill-opacity="0.85"/>
<path id="Vector_2" d="M16.0679 20.4391C16.4311 20.4391 16.7944 20.193 16.7944 19.7477C16.7944 19.5719 16.7476 19.4195 16.6538 19.232L15.271 16.4078C15.1304 16.1148 14.978 15.9156 14.8608 15.7516L14.0405 14.568L14.1108 14.3687C14.3569 13.6539 14.4741 13.1852 14.521 12.482L14.6499 10.607C14.7202 9.59924 14.146 8.77893 13.0327 8.77893C12.3061 8.77893 11.6382 9.14221 10.9351 9.83362L9.85693 10.8766C9.49365 11.2281 9.38818 11.5094 9.35302 11.9547L9.2124 13.525C9.17724 13.9937 9.44677 14.2984 9.86865 14.3336C10.2671 14.357 10.5601 14.1227 10.6069 13.6187L10.7358 11.9312L11.3218 11.4273C11.4976 11.275 11.7085 11.3687 11.6851 11.6266L11.5796 13.0562C11.5093 13.8414 11.896 14.4039 12.2827 14.8844L13.6304 16.5836C13.7593 16.7359 13.7827 16.7945 13.853 16.9234L15.3413 19.9586C15.4936 20.2867 15.7515 20.4391 16.0679 20.4391ZM9.69286 20.4391C9.91552 20.4391 10.1147 20.357 10.2554 20.193L12.3999 17.6383C12.6343 17.357 12.6577 17.3453 12.7163 17.0875L12.8335 16.5836L11.6616 15.107L11.3101 16.7594L9.32958 19.1031C9.17724 19.2906 9.0249 19.4781 9.0249 19.7594C9.0249 20.1812 9.30615 20.4391 9.69286 20.4391ZM16.4546 12.8922H18.1186C18.6108 12.8922 18.8921 12.6227 18.8921 12.1891C18.8921 11.7789 18.6108 11.4977 18.1186 11.4977H16.3491L15.2593 10.2789L15.1304 12.107L15.6108 12.5875C15.8452 12.8336 16.0561 12.8922 16.4546 12.8922ZM13.9233 8.22815C14.7554 8.22815 15.4468 7.53674 15.4468 6.71643C15.4468 5.86096 14.7554 5.19299 13.9233 5.19299C13.0796 5.19299 12.4116 5.86096 12.4116 6.71643C12.4116 7.53674 13.0796 8.22815 13.9233 8.22815Z" fill="black" fill-opacity="0.85"/>
</g>
</g>
<defs>
<clipPath id="clip0_2124_13344">
<rect width="26.5768" height="26.593" fill="white"/>
</clipPath>
</defs>
</svg>
