<svg width="36" height="13" viewBox="0 0 36 13" fill="none" xmlns="http://www.w3.org/2000/svg">
<g clip-path="url(#clip0_2207_2693)">
<path d="M4.75876 5.1753C6.17673 5.1753 7.31345 4.03858 7.31345 2.62061C7.31345 1.21436 6.17673 0.065918 4.75876 0.065918C3.35251 0.065918 2.21579 1.21436 2.21579 2.62061C2.21579 4.03858 3.35251 5.1753 4.75876 5.1753ZM12.4228 12.2417H15.7743C18.5517 12.2417 19.3368 10.6597 19.1025 8.84326L18.329 2.69092H24.3408C25.0204 2.69092 25.5478 2.15186 25.5478 1.47217C25.5478 0.804199 25.0204 0.276856 24.3408 0.276856H16.8408C16.1493 0.276856 15.622 0.757324 15.622 1.57764V7.78858H13.6181C12.5517 7.78858 11.6493 7.40186 11.1337 6.58154C11.0165 6.39404 11.0165 6.1128 11.2392 5.85498L14.2509 2.28076C14.954 1.46045 14.3915 0.276856 13.372 0.276856H9.14157C8.47361 0.276856 7.93454 0.804199 7.93454 1.47217C7.93454 2.16358 8.45017 2.69092 9.14157 2.69092H10.8525L9.0947 4.76514C7.84079 6.25342 6.72751 7.28467 4.85251 8.1167L3.02439 8.93701L3.59861 6.90967C3.78611 6.2417 3.35251 5.58545 2.73142 5.44483C2.07517 5.28076 1.41892 5.6792 1.25486 6.3003L0.118132 10.7417C-0.198274 11.937 0.856414 12.5464 1.89939 12.0893L5.68454 10.4136C6.07126 10.2612 6.29391 10.2729 6.58688 10.5073C7.80563 11.5386 9.75095 12.2417 12.4228 12.2417ZM25.3603 9.52295H34.0673C34.7353 9.52295 35.2743 8.98389 35.2743 8.3042C35.2743 7.63623 34.7353 7.09717 34.0673 7.09717H25.2431C25.1493 7.09717 25.0322 7.09717 24.9033 7.10889L20.0751 7.50733L20.2392 8.6792C20.3212 9.37061 20.3095 10.0034 20.1689 10.5659L25.3603 9.52295Z" fill="black" fill-opacity="0.85"/>
</g>
<defs>
<clipPath id="clip0_2207_2693">
<rect width="35.2133" height="12.5039" fill="white" transform="translate(0.0610352 0.065918)"/>
</clipPath>
</defs>
</svg>
