<svg width="35" height="24" viewBox="0 0 35 24" fill="none" xmlns="http://www.w3.org/2000/svg">
<g clip-path="url(#clip0_2207_16197)">
<path d="M31.3512 6.43164C33.1091 6.43164 34.5153 4.9668 34.5153 3.26758C34.5153 1.49805 33.1091 0.0683594 31.3512 0.0683594C29.5817 0.0683594 28.1637 1.49805 28.1637 3.26758C28.1637 5.01367 29.5817 6.43164 31.3512 6.43164ZM12.4723 23.2012C13.0817 23.834 14.1247 23.7872 14.863 23.0137L19.9137 17.8106C20.0778 17.6348 20.195 17.5879 20.4528 17.6934L24.3903 19.1817C26.9216 20.1543 29.3005 19.3223 30.4137 17.3067L32.945 12.7012C33.9294 10.9082 33.613 9.05664 31.9137 8.14258C30.2497 7.24024 28.5387 7.91992 27.5427 9.75977L24.2497 15.7481L21.4606 14.7286C20.0661 14.2246 18.9177 14.3887 17.8161 15.5372L12.5778 20.9512C11.8512 21.7012 11.9216 22.6387 12.4723 23.2012Z" fill="black" fill-opacity="0.85"/>
<path d="M0.202812 3.8418L3.39031 7.9082C3.53094 8.0957 3.75359 8.13086 3.95281 8.01367C4.71453 7.61524 5.80437 7.3457 6.65984 7.3457C7.52703 7.3457 8.61687 7.61524 9.35516 8.01367C9.57781 8.13086 9.80047 8.0957 9.92937 7.9082L13.1286 3.8418C13.445 3.43164 13.3864 3.02148 13.0114 2.7168C11.7106 1.7207 9.24969 0.958984 6.65984 0.958984C4.08172 0.958984 1.62078 1.7207 0.331719 2.7168C-0.0667191 3.02148 -0.101875 3.43164 0.202812 3.8418ZM3.5075 10.2872C3.14422 9.80664 2.99187 9.36133 2.99187 8.88086C2.99187 7.7793 3.8825 7.49805 3.8825 6.85352C3.8825 6.19727 2.99187 5.92774 2.99187 4.79102C2.99187 4.32227 3.14422 3.87695 3.5075 3.4082C3.91766 2.91602 4.65594 3.44336 4.2575 3.95898C3.99969 4.32227 3.92937 4.52148 3.92937 4.79102C3.92937 5.58789 4.80828 5.81055 4.80828 6.85352C4.80828 7.88477 3.92937 8.11914 3.92937 8.88086C3.92937 9.18555 3.99969 9.36133 4.2575 9.73633C4.64422 10.2403 3.91766 10.7793 3.5075 10.2872ZM6.26141 10.2872C5.92156 9.80664 5.7575 9.36133 5.7575 8.88086C5.7575 7.7793 6.64812 7.49805 6.64812 6.85352C6.64812 6.19727 5.7575 5.92774 5.7575 4.79102C5.7575 4.32227 5.90984 3.87695 6.26141 3.4082C6.67156 2.91602 7.42156 3.44336 7.03484 3.95898C6.76531 4.32227 6.695 4.52148 6.695 4.79102C6.695 5.58789 7.58562 5.81055 7.58562 6.85352C7.58562 7.88477 6.695 8.11914 6.695 8.88086C6.695 9.18555 6.76531 9.36133 7.02312 9.73633C7.40984 10.2403 6.67156 10.7793 6.26141 10.2872ZM9.05047 10.2872C8.68719 9.80664 8.52312 9.36133 8.52312 8.88086C8.52312 7.7793 9.42547 7.49805 9.42547 6.85352C9.42547 6.19727 8.52312 5.92774 8.52312 4.79102C8.52312 4.32227 8.67547 3.87695 9.06219 3.4082C9.46062 2.91602 10.1872 3.44336 9.80047 3.95898C9.54266 4.32227 9.46062 4.52148 9.46062 4.79102C9.46062 5.58789 10.3512 5.81055 10.3512 6.85352C10.3512 7.88477 9.46062 8.11914 9.46062 8.88086C9.46062 9.18555 9.54266 9.36133 9.78875 9.73633C10.1872 10.2403 9.44891 10.7793 9.05047 10.2872ZM14.1247 4.94336C14.1247 5.43555 14.5114 5.82227 15.0036 5.82227H19.5622V7.73242C19.5622 8.56445 20.4177 8.93945 21.0387 8.37695L24.1794 5.59961C24.6012 5.21289 24.6012 4.70898 24.1794 4.33398L21.0387 1.55664C20.4411 1.01758 19.5622 1.32227 19.5622 2.18945V4.09961H15.0036C14.5114 4.09961 14.1247 4.47461 14.1247 4.94336Z" fill="black" fill-opacity="0.85"/>
</g>
<defs>
<clipPath id="clip0_2207_16197">
<rect width="34.5153" height="23.7773" fill="white" transform="translate(0 0.0683594)"/>
</clipPath>
</defs>
</svg>
