<svg width="28" height="23" viewBox="0 0 28 23" fill="none" xmlns="http://www.w3.org/2000/svg">
<g clip-path="url(#clip0_2207_2925)">
<path d="M14.5854 8.21289C16.0034 8.21289 17.1518 7.07617 17.1518 5.6582C17.1518 4.24024 16.0034 3.0918 14.5854 3.0918C13.1674 3.0918 12.0307 4.24024 12.0307 5.6582C12.0307 7.07617 13.1674 8.21289 14.5854 8.21289ZM9.00733 13.8145C11.644 14.1426 11.9956 15.6661 13.9409 15.6661C14.0112 15.6661 14.0581 15.6661 14.1284 15.6543L15.2768 12.4317C15.4057 12.0567 15.6167 11.9161 16.0151 11.9161H26.4331C27.1128 11.9161 27.687 11.3418 27.687 10.6504C27.687 9.98242 27.1128 9.4082 26.4331 9.4082H6.8042L5.1753 4.08789C4.97608 3.4082 4.28467 3.0332 3.64014 3.23242C2.98389 3.44336 2.62061 4.14648 2.80811 4.76758L4.63623 10.8731C4.81202 11.4473 5.25733 11.9161 5.8667 11.9161H9.21826C9.46436 11.9161 9.62842 12.1153 9.54639 12.3614L9.00733 13.8145ZM7.62452 3.73633C8.63233 3.73633 9.45264 2.91602 9.45264 1.9082C9.45264 0.90039 8.63233 0.0683594 7.62452 0.0683594C6.6167 0.0683594 5.79639 0.90039 5.79639 1.9082C5.79639 2.91602 6.6167 3.73633 7.62452 3.73633ZM0.733887 18.7598H1.91748C5.04639 18.7598 5.76123 16.8379 7.9292 16.8379C10.0971 16.8379 10.812 18.7598 13.9409 18.7598C17.0815 18.7598 17.7846 16.8379 19.9643 16.8379C22.1323 16.8379 22.8354 18.7598 25.976 18.7598H27.1596C27.5229 18.7598 27.8159 18.4786 27.8159 18.1153C27.8159 17.752 27.5229 17.459 27.1596 17.459H25.976C23.726 17.459 22.9643 15.5372 19.9643 15.5372C16.9526 15.5372 16.1909 17.459 13.9409 17.459C11.6909 17.459 10.9409 15.5372 7.9292 15.5372C4.9292 15.5372 4.16748 17.459 1.91748 17.459H0.733887C0.358887 17.459 0.0776367 17.752 0.0776367 18.1153C0.0776367 18.4786 0.358887 18.7598 0.733887 18.7598ZM1.03857 22.0176C1.4253 22.0176 1.72998 21.7129 1.72998 21.3262C1.72998 20.9512 1.4253 20.6465 1.03857 20.6465C0.663575 20.6465 0.358887 20.9512 0.358887 21.3262C0.358887 21.7129 0.663575 22.0176 1.03857 22.0176ZM3.2417 21.6192C3.6167 21.6192 3.92139 21.3145 3.92139 20.9395C3.92139 20.5528 3.6167 20.2481 3.2417 20.2481C2.85498 20.2481 2.5503 20.5528 2.5503 20.9395C2.5503 21.3145 2.85498 21.6192 3.2417 21.6192ZM5.29248 20.6465C5.6792 20.6465 5.98389 20.3536 5.98389 19.9668C5.98389 19.5801 5.6792 19.2872 5.29248 19.2872C4.91748 19.2872 4.6128 19.5801 4.6128 19.9668C4.6128 20.3536 4.91748 20.6465 5.29248 20.6465ZM7.50733 20.1309C7.89405 20.1309 8.19873 19.8262 8.19873 19.4395C8.19873 19.0645 7.89405 18.7598 7.50733 18.7598C7.13233 18.7598 6.82764 19.0645 6.82764 19.4395C6.82764 19.8262 7.13233 20.1309 7.50733 20.1309ZM9.72217 20.6465C10.1088 20.6465 10.4018 20.3536 10.4018 19.9668C10.4018 19.5801 10.1088 19.2872 9.72217 19.2872C9.33545 19.2872 9.04248 19.5801 9.04248 19.9668C9.04248 20.3536 9.33545 20.6465 9.72217 20.6465ZM11.7964 21.6192C12.1831 21.6192 12.4878 21.3145 12.4878 20.9395C12.4878 20.5528 12.1831 20.2481 11.7964 20.2481C11.4214 20.2481 11.1167 20.5528 11.1167 20.9395C11.1167 21.3145 11.4214 21.6192 11.7964 21.6192ZM13.9643 22.0176C14.3393 22.0176 14.644 21.7129 14.644 21.3262C14.644 20.9512 14.3393 20.6465 13.9643 20.6465C13.5776 20.6465 13.2729 20.9512 13.2729 21.3262C13.2729 21.7129 13.5776 22.0176 13.9643 22.0176ZM16.1206 21.6192C16.5073 21.6192 16.8003 21.3145 16.8003 20.9395C16.8003 20.5528 16.5073 20.2481 16.1206 20.2481C15.7338 20.2481 15.4409 20.5528 15.4409 20.9395C15.4409 21.3145 15.7338 21.6192 16.1206 21.6192ZM18.1948 20.6465C18.5815 20.6465 18.8862 20.3536 18.8862 19.9668C18.8862 19.5801 18.5815 19.2872 18.1948 19.2872C17.8198 19.2872 17.5151 19.5801 17.5151 19.9668C17.5151 20.3536 17.8198 20.6465 18.1948 20.6465ZM20.4096 20.1309C20.7964 20.1309 21.0893 19.8262 21.0893 19.4395C21.0893 19.0645 20.7964 18.7598 20.4096 18.7598C20.0229 18.7598 19.7299 19.0645 19.7299 19.4395C19.7299 19.8262 20.0229 20.1309 20.4096 20.1309ZM22.6245 20.6465C23.0112 20.6465 23.3042 20.3536 23.3042 19.9668C23.3042 19.5801 23.0112 19.2872 22.6245 19.2872C22.2378 19.2872 21.9448 19.5801 21.9448 19.9668C21.9448 20.3536 22.2378 20.6465 22.6245 20.6465ZM24.687 21.6192C25.0737 21.6192 25.3667 21.3145 25.3667 20.9395C25.3667 20.5528 25.0737 20.2481 24.687 20.2481C24.3003 20.2481 24.0073 20.5528 24.0073 20.9395C24.0073 21.3145 24.3003 21.6192 24.687 21.6192ZM26.8667 22.0176C27.2534 22.0176 27.5581 21.7129 27.5581 21.3262C27.5581 20.9512 27.2534 20.6465 26.8667 20.6465C26.4917 20.6465 26.187 20.9512 26.187 21.3262C26.187 21.7129 26.4917 22.0176 26.8667 22.0176Z" fill="black" fill-opacity="0.85"/>
</g>
<defs>
<clipPath id="clip0_2207_2925">
<rect width="27.7383" height="21.9492" fill="white" transform="translate(0.0776367 0.0683594)"/>
</clipPath>
</defs>
</svg>
