<svg width="33" height="26" viewBox="0 0 33 26" fill="none" xmlns="http://www.w3.org/2000/svg">
<g clip-path="url(#clip0_2207_2761)">
<path d="M12.2041 3.66358C13.2002 3.66358 13.997 2.87842 13.997 1.87061C13.997 0.874512 13.2002 0.065918 12.2041 0.065918C11.208 0.065918 10.3994 0.874512 10.3994 1.87061C10.3994 2.87842 11.208 3.66358 12.2041 3.66358ZM1.28222 19.6362H7.69238C8.04394 19.6362 8.19629 19.6011 8.4541 19.5425L14.9463 17.9721C15.0517 17.9487 15.1455 18.0425 15.1338 18.1479L14.7002 21.687L12.1572 19.8706C11.6181 19.4839 10.8681 19.6128 10.4931 20.1518C10.0947 20.6909 10.2119 21.4409 10.7509 21.8276L14.6767 24.5932C15.5439 25.2026 16.5986 25.0034 16.8213 24.1128L20.0556 11.1401C20.1025 10.9878 20.2548 10.894 20.4072 10.9292L30.9775 13.0268C31.8798 13.2143 32.3955 12.5347 32.3955 11.8667C32.3955 11.3511 32.1025 10.8237 31.4463 10.6948L21.0283 8.59717C17.9345 7.9878 16.0127 7.69483 13.8095 7.69483H10.8681V4.69483C10.8681 4.01514 10.3291 3.49951 9.67285 3.49951C8.99316 3.49951 8.46582 4.01514 8.46582 4.69483V8.87842C8.46582 9.53467 8.99316 10.0737 9.67285 10.0737H14.6181C14.8408 10.0737 14.9931 10.2729 14.9345 10.4839L13.9736 14.187C13.8213 14.7847 13.4111 15.2417 12.8252 15.4526L7.66894 17.2456H1.28222C0.614258 17.2456 0.0986328 17.7847 0.0986328 18.4526C0.0986328 19.1206 0.614258 19.6362 1.28222 19.6362ZM18.8838 6.9917C20.29 6.9917 21.4384 5.84326 21.4384 4.41358C21.4384 3.00733 20.29 1.87061 18.8838 1.87061C17.4541 1.87061 16.3174 3.00733 16.3174 4.41358C16.3174 5.84326 17.4541 6.9917 18.8838 6.9917Z" fill="black" fill-opacity="0.85"/>
</g>
<defs>
<clipPath id="clip0_2207_2761">
<rect width="32.2969" height="25.1367" fill="white" transform="translate(0.0986328 0.065918)"/>
</clipPath>
</defs>
</svg>
