<svg width="16" height="30" viewBox="0 0 16 30" fill="none" xmlns="http://www.w3.org/2000/svg">
<g clip-path="url(#clip0_2207_2713)">
<path d="M1.78028 28.8471C2.45996 28.8471 2.96387 28.3315 2.96387 27.6987V22.0854L6.24512 18.5932C6.30372 18.5347 6.40918 18.5347 6.46778 18.605L9.6084 22.812L12.2802 28.1206C13.0185 29.6089 15.1045 28.5425 14.3896 27.1245L8.90528 16.1323C8.41309 15.1479 8.167 13.8237 8.04981 12.4761C8.01465 12.0425 8.2959 11.8315 8.6709 12.019L10.8388 13.1206L12.8427 17.1284C13.5576 18.5464 15.7021 17.5854 14.9404 16.0737L12.7607 11.7261C12.6435 11.4917 12.4677 11.3159 12.2334 11.1987L9.11622 9.64014C8.19043 9.17139 7.24122 8.99561 6.36231 8.77295C5.3545 8.52686 4.45215 8.21045 3.84278 7.34326L2.42481 5.28076V1.22608C2.42481 0.593262 1.88575 0.065918 1.24122 0.065918C0.59668 0.065918 0.0693359 0.593262 0.0693359 1.22608V5.65576C0.0693359 5.91358 0.12793 6.08936 0.280274 6.31201L2.76465 9.89795C2.98731 10.2261 3.12793 10.437 3.17481 10.9878C3.26856 12.2886 3.54981 14.7026 4.07715 16.4487L0.842774 20.937C0.69043 21.1714 0.631836 21.394 0.631836 21.6167V27.6987C0.631836 28.3315 1.13575 28.8471 1.78028 28.8471ZM7.1709 7.50733C8.57715 7.50733 9.71387 6.37061 9.71387 4.94092C9.71387 3.53467 8.57715 2.39795 7.1709 2.39795C5.74122 2.39795 4.6045 3.53467 4.6045 4.94092C4.6045 6.37061 5.74122 7.50733 7.1709 7.50733Z" fill="black" fill-opacity="0.85"/>
</g>
<defs>
<clipPath id="clip0_2207_2713">
<rect width="15.0324" height="29.543" fill="white" transform="translate(0.0693359 0.065918)"/>
</clipPath>
</defs>
</svg>
