<svg width="28" height="22" viewBox="0 0 28 22" fill="none" xmlns="http://www.w3.org/2000/svg">
<g clip-path="url(#clip0_2207_18354)">
<path d="M2.37891 21.6909H25.2539C26.707 21.6909 27.6328 20.7651 27.6328 19.3471V2.43701C27.6328 1.03076 26.707 0.10498 25.2539 0.10498H2.37891C0.9375 0.10498 0 1.03076 0 2.43701V19.3471C0 20.7651 0.9375 21.6909 2.37891 21.6909ZM2.39062 19.8042C2.01562 19.8042 1.76953 19.5464 1.76953 19.1948V17.8706C1.76953 17.5425 2.00391 17.3081 2.34375 17.3081H3.85547C4.19531 17.3081 4.41797 17.5425 4.41797 17.8706V19.23C4.41797 19.5581 4.19531 19.8042 3.85547 19.8042H2.39062ZM2.34375 15.9253C2.00391 15.9253 1.76953 15.6675 1.76953 15.3628V14.0268C1.76953 13.6753 1.99219 13.4526 2.34375 13.4526H3.85547C4.19531 13.4526 4.41797 13.6753 4.41797 14.0268V15.3628C4.41797 15.6675 4.19531 15.9253 3.85547 15.9253H2.34375ZM2.34375 12.1284C2.00391 12.1284 1.76953 11.8823 1.76953 11.5776V10.2417C1.76953 9.89013 1.99219 9.66748 2.34375 9.66748H3.85547C4.19531 9.66748 4.41797 9.89013 4.41797 10.2417V11.5776C4.41797 11.8823 4.19531 12.1284 3.85547 12.1284H2.34375ZM2.34375 8.3667C2.00391 8.3667 1.76953 8.10888 1.76953 7.81591V6.46826C1.76953 6.12841 1.99219 5.89404 2.34375 5.89404H3.85547C4.19531 5.89404 4.41797 6.12841 4.41797 6.46826V7.81591C4.41797 8.10888 4.19531 8.3667 3.85547 8.3667H2.34375ZM2.34375 4.48779C2.00391 4.48779 1.76953 4.2417 1.76953 3.93701V2.61279C1.76953 2.23779 2.01562 1.9917 2.39062 1.9917H3.85547C4.19531 1.9917 4.41797 2.22607 4.41797 2.56591V3.93701C4.41797 4.2417 4.19531 4.48779 3.85547 4.48779H2.34375ZM23.7773 19.8042C23.4375 19.8042 23.2148 19.5581 23.2148 19.23V17.8706C23.2148 17.5425 23.4375 17.3081 23.7773 17.3081H25.2891C25.6406 17.3081 25.8633 17.5425 25.8633 17.8706V19.1948C25.8633 19.5464 25.6289 19.8042 25.2422 19.8042H23.7773ZM23.7773 15.9253C23.4375 15.9253 23.2148 15.6675 23.2148 15.3628V14.0268C23.2148 13.6753 23.4375 13.4526 23.7773 13.4526H25.2891C25.6406 13.4526 25.8633 13.6753 25.8633 14.0268V15.3628C25.8633 15.6675 25.6406 15.9253 25.2891 15.9253H23.7773ZM23.7773 12.1284C23.4375 12.1284 23.2148 11.8823 23.2148 11.5776V10.2417C23.2148 9.89013 23.4375 9.66748 23.7773 9.66748H25.2891C25.6406 9.66748 25.8633 9.89013 25.8633 10.2417V11.5776C25.8633 11.8823 25.6406 12.1284 25.2891 12.1284H23.7773ZM23.7773 8.3667C23.4375 8.3667 23.2148 8.10888 23.2148 7.81591V6.46826C23.2148 6.12841 23.4375 5.89404 23.7773 5.89404H25.2891C25.6406 5.89404 25.8633 6.12841 25.8633 6.46826V7.81591C25.8633 8.10888 25.6406 8.3667 25.2891 8.3667H23.7773ZM5.73047 10.8979C5.73047 10.4057 6.11719 10.0073 6.60938 10.0073H21.0234C21.5156 10.0073 21.9141 10.4057 21.9141 10.8979C21.9141 11.3901 21.5156 11.7768 21.0234 11.7768H6.60938C6.11719 11.7768 5.73047 11.3901 5.73047 10.8979ZM23.7773 4.48779C23.4375 4.48779 23.2148 4.2417 23.2148 3.93701V2.56591C23.2148 2.22607 23.4375 1.9917 23.7773 1.9917H25.2422C25.6289 1.9917 25.8633 2.23779 25.8633 2.61279V3.93701C25.8633 4.2417 25.6406 4.48779 25.2891 4.48779H23.7773Z" fill="black" fill-opacity="0.85"/>
</g>
<defs>
<clipPath id="clip0_2207_18354">
<rect width="27.6328" height="21.6211" fill="white" transform="translate(0 0.0698242)"/>
</clipPath>
</defs>
</svg>
