<svg width="25" height="24" viewBox="0 0 25 24" fill="none" xmlns="http://www.w3.org/2000/svg">
<g clip-path="url(#clip0_2207_18358)">
<path d="M12.0498 23.9746C18.5889 23.9746 24.0029 18.5489 24.0029 12.0215C24.0029 5.48242 18.5772 0.0683594 12.0381 0.0683594C5.51074 0.0683594 0.0966797 5.48242 0.0966797 12.0215C0.0966797 18.5489 5.52246 23.9746 12.0498 23.9746ZM12.0498 21.9825C6.51856 21.9825 2.10059 17.5528 2.10059 12.0215C2.10059 6.49024 6.50684 2.06055 12.0381 2.06055C17.5694 2.06055 22.0108 6.49024 22.0108 12.0215C22.0108 17.5528 17.5811 21.9825 12.0498 21.9825Z" fill="black" fill-opacity="0.85"/>
<path d="M6.53027 17.2481H17.5811C18.2725 17.2481 18.7295 16.8028 18.7295 16.1231V7.95508C18.7295 7.26367 18.2725 6.83008 17.5811 6.83008H6.53027C5.82715 6.83008 5.38184 7.26367 5.38184 7.95508V16.1231C5.38184 16.8028 5.82715 17.2481 6.53027 17.2481ZM6.65918 16.2872C6.4248 16.2872 6.2959 16.1348 6.2959 15.9122V15.1387C6.2959 14.9278 6.4248 14.7989 6.64746 14.7989H7.53809C7.7373 14.7989 7.86621 14.9278 7.86621 15.1387V15.9356C7.86621 16.1348 7.7373 16.2872 7.53809 16.2872H6.65918ZM6.64746 13.8965C6.4248 13.8965 6.2959 13.7442 6.2959 13.5684V12.7832C6.2959 12.5606 6.4248 12.4317 6.64746 12.4317H7.53809C7.7373 12.4317 7.86621 12.5606 7.86621 12.7832V13.5684C7.86621 13.7442 7.7373 13.8965 7.53809 13.8965H6.64746ZM6.64746 11.5645C6.4248 11.5645 6.2959 11.4122 6.2959 11.2364V10.4395C6.2959 10.2286 6.4248 10.0879 6.64746 10.0879H7.53809C7.7373 10.0879 7.86621 10.2286 7.86621 10.4395V11.2364C7.86621 11.4122 7.7373 11.5645 7.53809 11.5645H6.64746ZM6.64746 9.24414C6.4248 9.24414 6.2959 9.0918 6.2959 8.91602V8.13086C6.2959 7.93164 6.4248 7.7793 6.64746 7.7793H7.53809C7.7373 7.7793 7.86621 7.93164 7.86621 8.13086V8.91602C7.86621 9.0918 7.7373 9.24414 7.53809 9.24414H6.64746ZM16.5615 16.2872C16.374 16.2872 16.2451 16.1348 16.2451 15.9356V15.1387C16.2451 14.9278 16.374 14.7989 16.5615 14.7989H17.4639C17.6865 14.7989 17.8155 14.9278 17.8155 15.1387V15.9122C17.8155 16.1348 17.6865 16.2872 17.4522 16.2872H16.5615ZM16.5615 13.8965C16.374 13.8965 16.2451 13.7442 16.2451 13.5684V12.7832C16.2451 12.5606 16.374 12.4317 16.5615 12.4317H17.4639C17.6865 12.4317 17.8155 12.5606 17.8155 12.7832V13.5684C17.8155 13.7442 17.6865 13.8965 17.4639 13.8965H16.5615ZM16.5615 11.5645C16.374 11.5645 16.2451 11.4122 16.2451 11.2364V10.4395C16.2451 10.2286 16.374 10.0879 16.5615 10.0879H17.4639C17.6865 10.0879 17.8155 10.2286 17.8155 10.4395V11.2364C17.8155 11.4122 17.6865 11.5645 17.4639 11.5645H16.5615ZM16.5615 9.24414C16.374 9.24414 16.2451 9.0918 16.2451 8.91602V8.13086C16.2451 7.93164 16.374 7.7793 16.5615 7.7793H17.4639C17.6865 7.7793 17.8155 7.93164 17.8155 8.13086V8.91602C17.8155 9.0918 17.6865 9.24414 17.4639 9.24414H16.5615ZM9.30762 11.5528C9.08496 11.5528 8.96777 11.4004 8.96777 11.2246V8.13086C8.96777 7.93164 9.08496 7.7793 9.30762 7.7793H14.8155C15.0029 7.7793 15.1319 7.93164 15.1319 8.13086V11.2246C15.1319 11.4004 15.0029 11.5528 14.8155 11.5528H9.30762ZM9.30762 16.2872C9.08496 16.2872 8.96777 16.1348 8.96777 15.959V12.8536C8.96777 12.6661 9.08496 12.502 9.30762 12.502H14.8155C15.0029 12.502 15.1319 12.6661 15.1319 12.8536V15.959C15.1319 16.1348 15.0029 16.2872 14.8155 16.2872H9.30762Z" fill="black" fill-opacity="0.85"/>
</g>
<defs>
<clipPath id="clip0_2207_18358">
<rect width="23.9062" height="23.918" fill="white" transform="translate(0.0966797 0.0683594)"/>
</clipPath>
</defs>
</svg>
