<svg width="34" height="27" viewBox="0 0 34 27" fill="none" xmlns="http://www.w3.org/2000/svg">
<g clip-path="url(#clip0_2207_18180)">
<path d="M13.7152 6.95687L15.391 6.61703C15.2035 5.38656 14.8988 4.37874 14.0316 3.06624C13.9261 2.90218 13.9495 2.73812 14.0902 2.69124C17.8167 1.4139 22.6331 3.23031 23.6644 7.08578L25.4222 6.87484C24.18 1.49593 17.137 -1.04704 12.262 1.64828C11.6761 1.96468 11.5589 2.58578 12.0394 3.21859C13.223 4.77718 13.4808 5.57406 13.7152 6.95687ZM19.2933 22.0154C24.7074 22.0154 33.0628 18.4647 33.0628 13.6482C33.0628 8.84359 24.7074 5.29281 19.2933 5.29281C15.473 5.29281 11.5824 6.61703 8.41835 9.68734C6.35585 7.35531 3.9535 6.05453 1.15272 6.00765C0.566779 5.99593 0.0980283 6.37093 0.0511533 6.96859C-0.19494 9.40609 0.906622 12.0428 2.59413 13.6482C0.906622 15.2654 -0.19494 17.9139 0.0511533 20.3397C0.0980283 20.9373 0.566779 21.3123 1.15272 21.3006C3.9535 21.2537 6.35585 19.9529 8.41835 17.6326C11.5824 20.6912 15.473 22.0154 19.2933 22.0154ZM19.2933 20.1287C15.5316 20.1287 11.9456 18.8045 9.00428 15.5232C8.61756 15.0897 8.0785 15.1014 7.69178 15.5701C5.98085 17.6912 4.31678 18.9451 2.27772 19.2967C2.0785 19.3318 1.91444 19.1678 1.9496 18.9568C2.14881 17.1287 3.22694 15.4412 4.5746 14.3748C5.18397 13.8592 5.19569 13.449 4.56288 12.9217C3.22694 11.8553 2.14881 10.1795 1.9496 8.3514C1.91444 8.15218 2.0785 7.9764 2.27772 8.01156C4.31678 8.36312 5.98085 9.61703 7.69178 11.7381C8.0785 12.2186 8.61756 12.2303 8.99256 11.7967C11.9456 8.50374 15.5316 7.17953 19.2933 7.17953C24.2855 7.17953 31.2113 10.4256 31.2113 13.6482C31.2113 16.8826 24.2855 20.1287 19.2933 20.1287ZM26.5706 14.3631C27.2503 14.3631 27.8128 13.8006 27.8128 13.1326C27.8128 12.4647 27.2503 11.9022 26.5706 11.9022C25.9027 11.9022 25.3402 12.4647 25.3402 13.1326C25.3402 13.8006 25.9027 14.3631 26.5706 14.3631ZM15.6019 20.6795L15.1097 24.7107C14.9925 25.6951 15.6253 26.3631 16.7738 26.1756C19.762 25.7068 23.1605 23.4803 24.8831 20.9256L22.4691 21.2186C20.9925 22.4959 19.3988 23.6561 17.4886 24.1834C17.2425 24.242 17.0785 24.1951 17.1136 23.867L17.4066 20.949L15.6019 20.6795Z" fill="black" fill-opacity="0.85"/>
</g>
<defs>
<clipPath id="clip0_2207_18180">
<rect width="33.046" height="26.1374" fill="white" transform="translate(0.0168457 0.0698242)"/>
</clipPath>
</defs>
</svg>
