<svg width="22" height="22" viewBox="0 0 22 22" fill="none" xmlns="http://www.w3.org/2000/svg">
<g clip-path="url(#clip0_2207_8179)">
<path d="M3.74903 21.6675H17.9638C20.4248 21.6675 21.6435 20.4487 21.6435 18.0346V3.72607C21.6435 1.31201 20.4248 0.0932617 17.9638 0.0932617H3.74903C1.29981 0.0932617 0.0693359 1.30029 0.0693359 3.72607V18.0346C0.0693359 20.4604 1.29981 21.6675 3.74903 21.6675Z" fill="black" fill-opacity="0.85"/>
<path d="M6.26855 17.355C5.97558 17.355 5.70605 17.0854 5.70605 16.7925V6.65576C5.70605 6.14013 5.95214 5.75341 6.44433 5.53076C6.87792 5.33154 7.26464 5.22607 8.20214 5.22607C10.3701 5.22607 11.7529 6.3042 13.792 6.3042C14.7881 6.3042 15.3154 6.04638 15.667 6.04638C16.1591 6.04638 16.3466 6.3042 16.3466 6.65576V12.6089C16.3466 13.1596 16.1123 13.5112 15.6084 13.7456C15.1631 13.9565 14.7763 14.0503 13.8505 14.0503C11.7646 14.0503 10.4052 12.9956 8.26074 12.9956C7.52245 12.9956 7.04199 13.1362 6.81933 13.23V16.7925C6.81933 17.0971 6.59667 17.355 6.26855 17.355Z" fill="white"/>
</g>
<defs>
<clipPath id="clip0_2207_8179">
<rect width="21.5742" height="21.5977" fill="white" transform="translate(0.0693359 0.0698242)"/>
</clipPath>
</defs>
</svg>
