<svg width="22" height="22" viewBox="0 0 22 22" fill="none" xmlns="http://www.w3.org/2000/svg">
<g clip-path="url(#clip0_2207_8174)">
<path d="M3.74683 21.6675H17.9616C20.4226 21.6675 21.6413 20.4487 21.6413 18.0346V3.72607C21.6413 1.31201 20.4226 0.0932617 17.9616 0.0932617H3.74683C1.29761 0.0932617 0.0671387 1.30029 0.0671387 3.72607V18.0346C0.0671387 20.4604 1.29761 21.6675 3.74683 21.6675ZM3.77026 19.7807C2.59839 19.7807 1.95386 19.1596 1.95386 17.9409V3.81982C1.95386 2.60107 2.59839 1.97998 3.77026 1.97998H17.9382C19.0983 1.97998 19.7546 2.60107 19.7546 3.81982V17.9409C19.7546 19.1596 19.0983 19.7807 17.9382 19.7807H3.77026Z" fill="black" fill-opacity="0.85"/>
<path d="M6.40698 17.1675C6.72339 17.1675 6.94605 16.9214 6.94605 16.6284V13.1714C7.15698 13.0776 7.62573 12.937 8.34058 12.937C10.4265 12.937 11.739 13.9682 13.7663 13.9682C14.6569 13.9682 15.0319 13.8745 15.4655 13.6636C15.9577 13.4409 16.1804 13.101 16.1804 12.5737V6.79638C16.1804 6.45654 16.0046 6.21044 15.5241 6.21044C15.1843 6.21044 14.6687 6.45654 13.7077 6.45654C11.7273 6.45654 10.3913 5.41357 8.28198 5.41357C7.37964 5.41357 7.00464 5.51904 6.58276 5.70654C6.1023 5.91748 5.86792 6.29248 5.86792 6.79638V16.6284C5.86792 16.9096 6.11402 17.1675 6.40698 17.1675Z" fill="black" fill-opacity="0.85"/>
</g>
<defs>
<clipPath id="clip0_2207_8174">
<rect width="21.5742" height="21.5977" fill="white" transform="translate(0.0671387 0.0698242)"/>
</clipPath>
</defs>
</svg>
