<svg width="24" height="24" viewBox="0 0 24 24" fill="none" xmlns="http://www.w3.org/2000/svg">
<g clip-path="url(#clip0_2207_5019)">
<path d="M12.0288 23.9878C18.5679 23.9878 23.9819 18.5737 23.9819 12.0346C23.9819 5.50732 18.5562 0.081543 12.0171 0.081543C5.48974 0.081543 0.0756836 5.50732 0.0756836 12.0346C0.0756836 18.5737 5.50146 23.9878 12.0288 23.9878Z" fill="black" fill-opacity="0.85"/>
<path d="M6.91943 15.0229C6.91943 12.6675 8.04443 11.8003 8.04443 10.3354C8.04443 10.0308 7.99756 9.63233 7.99756 9.46827C7.99756 9.1753 8.17334 8.97608 8.44287 8.97608C9.0288 8.97608 9.70849 9.46827 10.0718 10.2065C10.1187 10.0542 10.1421 9.91358 10.1421 9.74952C10.1304 8.46045 9.33349 7.35889 8.57177 6.43311C8.44287 6.28077 8.37256 6.10499 8.37256 5.94092C8.37256 5.51905 8.75927 5.29639 9.36865 5.29639C12.8374 5.29639 17.8413 7.74561 17.8413 13.6284C17.8413 17.144 15.5327 19.4995 12.064 19.4995C8.95849 19.4995 6.91943 17.7182 6.91943 15.0229ZM10.1655 15.8081C10.1655 16.9096 10.9976 17.6596 12.228 17.6596C13.7866 17.6596 14.5366 16.5112 14.5366 15.1987C14.5366 13.9331 13.8101 12.4917 12.3569 11.8237C12.2984 11.8003 12.2632 11.8237 12.2749 11.9175C12.3804 12.9604 12.228 13.9682 11.8765 14.437C11.689 14.0503 11.5132 13.7104 11.2085 13.4643C11.1616 13.4057 11.1148 13.4292 11.1148 13.5112C10.9976 14.2378 10.1655 14.6479 10.1655 15.8081Z" fill="white"/>
</g>
<defs>
<clipPath id="clip0_2207_5019">
<rect width="23.9062" height="23.918" fill="white" transform="translate(0.0756836 0.0698242)"/>
</clipPath>
</defs>
</svg>
