<svg width="24" height="24" viewBox="0 0 24 24" fill="none" xmlns="http://www.w3.org/2000/svg">
<g clip-path="url(#clip0_2207_8852)">
<path d="M12.0393 23.976C18.5784 23.976 23.9924 18.5503 23.9924 12.0229C23.9924 5.48388 18.5667 0.0698242 12.0276 0.0698242C5.50024 0.0698242 0.0861816 5.48388 0.0861816 12.0229C0.0861816 18.5503 5.51196 23.976 12.0393 23.976ZM12.0393 21.9839C6.50806 21.9839 2.09009 17.5542 2.09009 12.0229C2.09009 6.4917 6.49634 2.06201 12.0276 2.06201C17.5589 2.06201 22.0003 6.4917 22.0003 12.0229C22.0003 17.5542 17.5706 21.9839 12.0393 21.9839Z" fill="black" fill-opacity="0.85"/>
<path d="M8.9104 5.96435H15.1682V5.7417C15.1682 4.90966 14.7581 4.48779 13.926 4.48779H10.1409C9.32056 4.48779 8.9104 4.90966 8.9104 5.7417V5.96435ZM11.43 19.5581H12.637C13.4339 19.5581 13.8674 19.1245 13.8674 18.3042V10.9214C13.8674 10.2065 14.0198 9.72607 14.2776 9.32763L14.6409 8.76513C14.9573 8.27294 15.1682 7.83935 15.1682 7.27685V6.6792H8.9104V7.27685C8.9104 7.83935 9.12134 8.27294 9.43774 8.76513L9.80102 9.32763C10.0588 9.72607 10.2229 10.2065 10.2229 10.9214V18.3042C10.2229 19.1245 10.6448 19.5581 11.43 19.5581ZM10.9143 13.4409V11.519C10.9143 10.8979 11.4065 10.394 12.0393 10.394C12.6721 10.394 13.1643 10.8979 13.1643 11.519V13.4409C13.1643 14.0737 12.6721 14.5659 12.0393 14.5659C11.4065 14.5659 10.9143 14.0737 10.9143 13.4409ZM12.0393 10.8042C11.6292 10.8042 11.3245 11.1206 11.3245 11.519C11.3245 11.9175 11.6409 12.2456 12.0393 12.2456C12.4495 12.2456 12.7542 11.9175 12.7542 11.519C12.7542 11.1206 12.4729 10.8042 12.0393 10.8042Z" fill="black" fill-opacity="0.85"/>
</g>
<defs>
<clipPath id="clip0_2207_8852">
<rect width="23.9062" height="23.918" fill="white" transform="translate(0.0861816 0.0698242)"/>
</clipPath>
</defs>
</svg>
