<svg width="24" height="24" viewBox="0 0 24 24" fill="none" xmlns="http://www.w3.org/2000/svg">
<g clip-path="url(#clip0_2207_8857)">
<path d="M12.0412 23.9878C18.5803 23.9878 23.9943 18.5737 23.9943 12.0346C23.9943 5.50732 18.5686 0.081543 12.0295 0.081543C5.50219 0.081543 0.0881348 5.50732 0.0881348 12.0346C0.0881348 18.5737 5.51392 23.9878 12.0412 23.9878Z" fill="black" fill-opacity="0.85"/>
<path d="M8.8186 5.78858V5.55421C8.8186 4.69874 9.24047 4.26514 10.0842 4.26514H13.9865C14.842 4.26514 15.2639 4.69874 15.2639 5.55421V5.78858H8.8186ZM11.4084 19.8042C10.5998 19.8042 10.1662 19.3589 10.1662 18.5151V10.8979C10.1662 10.1596 10.0022 9.66749 9.73266 9.25733L9.35766 8.67139C9.02954 8.16749 8.8186 7.73389 8.8186 7.13624V6.52686H15.2639V7.13624C15.2639 7.73389 15.0529 8.16749 14.7248 8.67139L14.3498 9.25733C14.0803 9.66749 13.9279 10.1596 13.9279 10.8979V18.5151C13.9279 19.3589 13.4826 19.8042 12.6623 19.8042H11.4084ZM10.8811 13.4995C10.8811 14.1557 11.385 14.6596 12.0412 14.6596C12.6975 14.6596 13.2014 14.1557 13.2014 13.4995V11.519C13.2014 10.8979 12.6975 10.3589 12.0412 10.3589C11.385 10.3589 10.8811 10.8979 10.8811 11.519V13.4995ZM12.0412 10.7807C12.4865 10.7807 12.7795 11.1089 12.7795 11.519C12.7795 11.9409 12.4631 12.269 12.0412 12.269C11.6311 12.269 11.3029 11.9409 11.3029 11.519C11.3029 11.1089 11.6193 10.7807 12.0412 10.7807Z" fill="white"/>
</g>
<defs>
<clipPath id="clip0_2207_8857">
<rect width="23.9062" height="23.918" fill="white" transform="translate(0.0881348 0.0698242)"/>
</clipPath>
</defs>
</svg>
