<svg width="24" height="24" viewBox="0 0 24 24" fill="none" xmlns="http://www.w3.org/2000/svg">
<g clip-path="url(#clip0_2207_8868)">
<path d="M12.0476 23.976C18.5867 23.976 24.0007 18.5503 24.0007 12.0229C24.0007 5.48388 18.575 0.0698242 12.0359 0.0698242C5.50854 0.0698242 0.0944824 5.48388 0.0944824 12.0229C0.0944824 18.5503 5.52026 23.976 12.0476 23.976ZM12.0476 21.9839C6.51636 21.9839 2.09839 17.5542 2.09839 12.0229C2.09839 6.4917 6.50464 2.06201 12.0359 2.06201C17.5672 2.06201 22.0086 6.4917 22.0086 12.0229C22.0086 17.5542 17.5789 21.9839 12.0476 21.9839Z" fill="black" fill-opacity="0.85"/>
<path d="M8.9187 5.96435H15.1765V5.7417C15.1765 4.90966 14.7664 4.48779 13.9343 4.48779H10.1492C9.32886 4.48779 8.9187 4.90966 8.9187 5.7417V5.96435ZM11.4383 19.5581H12.6453C13.4422 19.5581 13.8757 19.1245 13.8757 18.3042V10.9214C13.8757 10.2065 14.0281 9.72607 14.2859 9.32763L14.6492 8.76513C14.9656 8.27294 15.1765 7.83935 15.1765 7.27685V6.6792H8.9187V7.27685C8.9187 7.83935 9.12964 8.27294 9.44604 8.76513L9.80932 9.32763C10.0671 9.72607 10.2312 10.2065 10.2312 10.9214V18.3042C10.2312 19.1245 10.6531 19.5581 11.4383 19.5581Z" fill="black" fill-opacity="0.85"/>
<path d="M16.7468 18.644C17.2859 19.1714 18.1531 19.1831 18.6687 18.644C19.2195 18.105 19.2078 17.2729 18.6687 16.7339L7.32495 5.39013C6.78589 4.85107 5.93042 4.85107 5.40307 5.39013C4.86401 5.91748 4.86401 6.78466 5.40307 7.31201L16.7468 18.644Z" fill="white"/>
<path d="M17.3328 18.0698C17.532 18.269 17.8836 18.269 18.0828 18.0698C18.2937 17.8471 18.2937 17.5307 18.0828 17.3198L6.75077 5.97608C6.53983 5.76514 6.19999 5.76514 5.98905 5.97608C5.77811 6.1753 5.78983 6.52686 5.98905 6.72608L17.3328 18.0698Z" fill="black" fill-opacity="0.85"/>
</g>
<defs>
<clipPath id="clip0_2207_8868">
<rect width="23.9062" height="23.918" fill="white" transform="translate(0.0944824 0.0698242)"/>
</clipPath>
</defs>
</svg>
