<svg width="22" height="28" viewBox="0 0 22 28" fill="none" xmlns="http://www.w3.org/2000/svg">
<g clip-path="url(#clip0_2207_8862)">
<path d="M5.22803 2.77685H16.7241V2.37841C16.7241 0.819824 15.9741 0.0698242 14.4741 0.0698242H7.48975C5.98975 0.0698242 5.22803 0.819824 5.22803 2.37841V2.77685ZM9.88038 27.7729H12.0718C13.5484 27.7729 14.3335 26.9878 14.3335 25.4643V11.8706C14.3335 10.5698 14.6265 9.69091 15.0952 8.96435L15.7632 7.92138C16.3374 7.01904 16.7241 6.2456 16.7241 5.20263V4.13623H5.22803V5.20263C5.22803 6.2456 5.61475 7.01904 6.18897 7.92138L6.85694 8.96435C7.32569 9.69091 7.63038 10.5698 7.63038 11.8706V25.4643C7.63038 26.9878 8.40381 27.7729 9.88038 27.7729ZM8.90772 16.5229V12.9839C8.90772 11.8354 9.82178 10.9214 10.9819 10.9214C12.1421 10.9214 13.0562 11.8354 13.0562 12.9839V16.5229C13.0562 17.6831 12.1421 18.5854 10.9819 18.5854C9.82178 18.5854 8.90772 17.6831 8.90772 16.5229Z" fill="black" fill-opacity="0.85"/>
<path d="M0.751465 7.55811L18.0249 24.7964C18.9155 25.687 20.3687 25.687 21.2476 24.7729C22.1148 23.8823 22.1265 22.4526 21.2359 21.5854L3.97413 4.34717C3.09522 3.45655 1.64209 3.44483 0.751465 4.34717C-0.127442 5.21436 -0.127442 6.67921 0.751465 7.55811Z" fill="white"/>
<path d="M1.72413 6.58544L18.9859 23.8237C19.3374 24.187 19.9234 24.187 20.2632 23.8237C20.6148 23.4721 20.6148 22.9096 20.2632 22.5581L3.01319 5.3081C2.66163 4.95654 2.07569 4.95654 1.72413 5.3081C1.38428 5.64794 1.38428 6.2456 1.72413 6.58544Z" fill="black" fill-opacity="0.85"/>
</g>
<defs>
<clipPath id="clip0_2207_8862">
<rect width="21.8086" height="27.7148" fill="white" transform="translate(0.0922852 0.0698242)"/>
</clipPath>
</defs>
</svg>
