<svg width="24" height="24" viewBox="0 0 24 24" fill="none" xmlns="http://www.w3.org/2000/svg">
<g clip-path="url(#clip0_2207_347)">
<path d="M11.9972 23.9893C18.5363 23.9893 23.9503 18.5752 23.9503 12.0361C23.9503 5.50879 18.5246 0.0830078 11.9855 0.0830078C5.45813 0.0830078 0.0440674 5.50879 0.0440674 12.0361C0.0440674 18.5752 5.46985 23.9893 11.9972 23.9893Z" fill="black" fill-opacity="0.85"/>
<path d="M7.09876 17.5205C5.86829 17.5205 5.24719 16.9111 5.24719 15.7158V10.6651H18.7707V15.7158C18.7707 16.9111 18.1613 17.5205 17.1066 17.5205H7.09876ZM5.24719 9.68067V8.11035C5.24719 6.93848 5.83313 6.35254 6.85266 6.35254H8.63391C9.18469 6.35254 9.47766 6.45801 9.8761 6.77441L10.2511 7.06738C10.5441 7.30176 10.755 7.41895 11.1769 7.41895H16.9191C18.1496 7.41895 18.7707 8.02832 18.7707 9.23535V9.68067H5.24719Z" fill="white"/>
</g>
<defs>
<clipPath id="clip0_2207_347">
<rect width="23.9062" height="23.918" fill="white" transform="translate(0.0440674 0.0712891)"/>
</clipPath>
</defs>
</svg>
