<svg width="24" height="24" viewBox="0 0 24 24" fill="none" xmlns="http://www.w3.org/2000/svg">
<g clip-path="url(#clip0_2207_3108)">
<path d="M12.0161 23.9775C18.5552 23.9775 23.9692 18.5518 23.9692 12.0244C23.9692 5.48535 18.5435 0.0712891 12.0044 0.0712891C5.47705 0.0712891 0.0629883 5.48535 0.0629883 12.0244C0.0629883 18.5518 5.48877 23.9775 12.0161 23.9775Z" fill="black" fill-opacity="0.85"/>
<path d="M7.16456 17.9893C6.47316 17.7666 6.26222 17.5557 6.05128 16.876C5.72316 15.751 5.688 14.4736 5.93409 13.2197L10.8208 18.0947C9.55519 18.3408 8.28956 18.3174 7.16456 17.9893ZM15.52 15.5283C14.5005 16.5596 13.3286 17.2979 12.0864 17.7315L6.29738 11.9424C6.74269 10.7119 7.46925 9.52835 8.5005 8.52054C9.50831 7.48929 10.6919 6.75101 11.9224 6.31741L17.7232 12.1065C17.2778 13.3486 16.5513 14.5205 15.52 15.5283ZM11.1724 14.5557C11.2661 14.4385 11.2661 14.2627 11.1724 14.1455L10.7388 13.7002L11.1724 13.2783L11.5825 13.7002C11.7114 13.8408 11.8989 13.8291 12.0044 13.7002C12.1333 13.5947 12.1333 13.3955 12.0044 13.2783L11.5708 12.8565L12.0161 12.4346L12.4497 12.8447C12.5552 12.9619 12.7544 12.9736 12.8599 12.8447C12.9888 12.751 12.9653 12.5401 12.8599 12.4346L12.4263 12.001L12.8599 11.5674L13.2935 11.9893C13.4224 12.1065 13.5982 12.1182 13.7153 12.001C13.8325 11.8838 13.8325 11.6846 13.7153 11.5908L13.2818 11.1572L13.7153 10.7236L14.1372 11.1455C14.2778 11.2627 14.4536 11.2627 14.5708 11.1572C14.6763 11.0283 14.688 10.8408 14.5708 10.7236L13.2935 9.45804C13.1763 9.34085 13.0122 9.35257 12.8716 9.45804C12.7661 9.57523 12.7778 9.76273 12.8716 9.89163L13.3052 10.3135L12.8599 10.7354L12.438 10.3135C12.3442 10.1963 12.1568 10.1963 12.0278 10.3135C11.9107 10.4307 11.9107 10.6299 12.0278 10.7354L12.4614 11.1572L12.0161 11.6025L11.5825 11.169C11.4771 11.0401 11.2896 11.0401 11.1841 11.1807C11.0552 11.2744 11.0669 11.4736 11.1841 11.5791L11.5942 12.001L11.1724 12.4463L10.7505 12.0127C10.6333 11.8955 10.4341 11.8955 10.3286 12.0244C10.1997 12.1299 10.1997 12.3408 10.3286 12.4463L10.7505 12.8565L10.3169 13.2901L9.89503 12.8682C9.77784 12.7627 9.60206 12.7627 9.47316 12.8682C9.35597 12.9971 9.35597 13.1846 9.47316 13.2901L10.7388 14.544C10.8677 14.6611 11.0435 14.6729 11.1724 14.5557ZM17.9692 7.17288C18.2974 8.29788 18.3325 9.56351 18.0747 10.8291L13.1997 5.95413C14.4653 5.70804 15.731 5.73148 16.856 6.0596C17.5357 6.28226 17.7466 6.4932 17.9692 7.17288Z" fill="white"/>
</g>
<defs>
<clipPath id="clip0_2207_3108">
<rect width="23.9062" height="23.918" fill="white" transform="translate(0.0629883 0.0712891)"/>
</clipPath>
</defs>
</svg>
