<svg width="24" height="24" viewBox="0 0 24 24" fill="none" xmlns="http://www.w3.org/2000/svg">
<g clip-path="url(#clip0_2207_3095)">
<path d="M18.6936 18.7061C23.2287 14.1475 24.8225 7.71386 23.3459 2.74511C22.9357 1.43261 22.5256 1.01073 21.2014 0.612292C16.2443 -0.87599 9.79906 0.71776 5.24047 5.25292C0.705309 9.81151 -0.888441 16.2568 0.599841 21.2139C0.998278 22.5264 1.42016 22.9482 2.73266 23.3467C7.70141 24.835 14.135 23.2412 18.6936 18.7061ZM17.3107 17.3232C13.3732 21.2842 8.20531 22.7725 3.38891 21.4951C2.75609 21.3311 2.61547 21.1904 2.43969 20.5225C1.1975 15.7295 2.66234 10.5732 6.62328 6.63573C10.5725 2.67479 15.717 1.19823 20.51 2.44042C21.1779 2.62792 21.3186 2.76854 21.4826 3.40136C22.7717 8.20604 21.2717 13.3857 17.3107 17.3232ZM13.924 1.03417L12.4357 2.52245L21.4475 11.5459L22.9475 10.0459L13.924 1.03417ZM1.03343 13.9365L10.0334 22.96L11.5334 21.46L2.52172 12.4482L1.03343 13.9365ZM7.31469 14.2998L9.65844 16.6318C9.85766 16.8428 10.174 16.8428 10.385 16.6318C10.5842 16.4326 10.5842 16.1045 10.385 15.8936L8.05297 13.5615C7.85375 13.3623 7.51391 13.3623 7.31469 13.5615C7.11547 13.7725 7.11547 14.0889 7.31469 14.2998ZM8.885 12.7178L11.2287 15.0615C11.4279 15.2607 11.7561 15.2607 11.9553 15.0615C12.1545 14.8623 12.1545 14.5225 11.9553 14.3232L9.62328 11.9912C9.42406 11.792 9.08422 11.792 8.885 11.9912C8.68578 12.1904 8.68578 12.5186 8.885 12.7178ZM10.4553 11.1475L12.799 13.4912C12.9982 13.6904 13.3264 13.6904 13.5256 13.4912C13.7248 13.2803 13.7248 12.9521 13.5256 12.7646L11.1818 10.4209C10.9943 10.2217 10.6545 10.2217 10.4553 10.4209C10.2561 10.6201 10.2561 10.9482 10.4553 11.1475ZM12.0256 9.58886L14.3576 11.9209C14.5686 12.1201 14.8967 12.1201 15.0959 11.9209C15.3068 11.71 15.3068 11.3936 15.0959 11.1943L12.7639 8.85057C12.5529 8.65136 12.2365 8.65136 12.0256 8.85057C11.8264 9.04979 11.8264 9.38964 12.0256 9.58886ZM13.6076 8.01854L15.9279 10.3389C16.1389 10.5498 16.467 10.5498 16.6662 10.3389C16.8771 10.1396 16.8771 9.82323 16.6662 9.61229L14.3342 7.26854C14.1232 7.06932 13.8068 7.06932 13.6076 7.26854C13.3967 7.47948 13.3967 7.80761 13.6076 8.01854ZM9.06078 15.6123L15.6115 9.07323L14.885 8.34667L8.33422 14.8975L9.06078 15.6123Z" fill="black" fill-opacity="0.85"/>
</g>
<defs>
<clipPath id="clip0_2207_3095">
<rect width="23.8215" height="23.8281" fill="white" transform="translate(0.0588379 0.0712891)"/>
</clipPath>
</defs>
</svg>
