<svg width="33" height="19" viewBox="0 0 33 19" fill="none" xmlns="http://www.w3.org/2000/svg">
<g clip-path="url(#clip0_2207_5214)">
<path d="M1.77979 18.5049C2.26026 18.5049 2.6587 18.3525 3.12745 18.0713L15.0689 11.0401C15.9009 10.5479 16.2642 9.97363 16.2642 9.29395C16.2642 8.62598 15.9009 8.05176 15.0689 7.55957L3.12745 0.52832C2.64698 0.24707 2.26026 0.0947266 1.77979 0.0947266C0.865723 0.0947266 0.0922852 0.797851 0.0922852 2.09863V16.501C0.0922852 17.8018 0.865723 18.5049 1.77979 18.5049ZM17.8814 18.5049C18.3618 18.5049 18.7603 18.3525 19.229 18.0713L31.1821 11.0401C32.0025 10.5479 32.3657 9.97363 32.3657 9.29395C32.3657 8.62598 32.0025 8.05176 31.1821 7.55957L19.229 0.52832C18.7603 0.24707 18.3618 0.0947266 17.8814 0.0947266C16.9673 0.0947266 16.1939 0.797851 16.1939 2.09863V16.501C16.1939 17.8018 16.9673 18.5049 17.8814 18.5049Z" fill="black" fill-opacity="0.85"/>
</g>
<defs>
<clipPath id="clip0_2207_5214">
<rect width="32.2734" height="18.4336" fill="white" transform="translate(0.0922852 0.0712891)"/>
</clipPath>
</defs>
</svg>
