<svg width="24" height="24" viewBox="0 0 24 24" fill="none" xmlns="http://www.w3.org/2000/svg">
<g clip-path="url(#clip0_2207_5254)">
<path d="M12.0393 23.9775C18.5784 23.9775 23.9924 18.5518 23.9924 12.0244C23.9924 5.48535 18.5667 0.0712891 12.0276 0.0712891C5.50024 0.0712891 0.0861816 5.48535 0.0861816 12.0244C0.0861816 18.5518 5.51196 23.9775 12.0393 23.9775ZM12.0393 21.9854C6.50806 21.9854 2.09009 17.5557 2.09009 12.0244C2.09009 6.49317 6.49634 2.06348 12.0276 2.06348C17.5589 2.06348 22.0003 6.49317 22.0003 12.0244C22.0003 17.5557 17.5706 21.9854 12.0393 21.9854Z" fill="black" fill-opacity="0.85"/>
<path d="M7.7268 16.3369C7.93774 16.3369 8.13696 16.2666 8.3479 16.1377L13.9378 12.8565C14.3245 12.6338 14.4885 12.3525 14.4885 12.0361C14.4885 11.7315 14.3245 11.4502 13.9378 11.2275L8.3479 7.94629C8.13696 7.81738 7.93774 7.74707 7.7268 7.74707C7.29321 7.74707 6.94165 8.06348 6.94165 8.67285V15.4111C6.94165 16.0205 7.29321 16.3369 7.7268 16.3369ZM16.387 16.4893C16.8557 16.4893 17.1135 16.2549 17.1135 15.7744V8.28613C17.1135 7.80567 16.8557 7.55957 16.387 7.55957H15.1331C14.6643 7.55957 14.4065 7.79395 14.4065 8.28613V15.7744C14.4065 16.2549 14.6643 16.4893 15.1331 16.4893H16.387Z" fill="black" fill-opacity="0.85"/>
</g>
<defs>
<clipPath id="clip0_2207_5254">
<rect width="23.9062" height="23.918" fill="white" transform="translate(0.0861816 0.0712891)"/>
</clipPath>
</defs>
</svg>
