<svg width="35" height="20" viewBox="0 0 35 20" fill="none" xmlns="http://www.w3.org/2000/svg">
<g clip-path="url(#clip0_2207_5272)">
<path d="M33.2929 19.4424C33.8437 19.4424 34.289 19.0205 34.289 18.4697V1.06738C34.289 0.516601 33.8437 0.0830078 33.2929 0.0830078C32.7422 0.0830078 32.2851 0.516601 32.2851 1.06738V18.4697C32.2851 19.0205 32.7422 19.4424 33.2929 19.4424ZM1.76953 18.9736C2.25 18.9736 2.63672 18.8213 3.11719 18.5401L15.0586 11.5088C15.8906 11.0166 16.2422 10.4307 16.2422 9.7627C16.2422 9.09473 15.8906 8.50879 15.0586 8.0166L3.11719 0.985351C2.63672 0.704101 2.25 0.551758 1.76953 0.551758C0.84375 0.551758 0.0820312 1.25488 0.0820312 2.56738V16.958C0.0820312 18.2705 0.84375 18.9736 1.76953 18.9736ZM2.28515 16.8057C2.10937 16.8057 1.95703 16.6885 1.95703 16.4541V3.07129C1.95703 2.83691 2.10937 2.71973 2.28515 2.71973C2.35547 2.71973 2.44922 2.75488 2.56641 2.8252L13.7109 9.43457C13.875 9.52832 13.957 9.59863 13.957 9.7627C13.957 9.91504 13.8632 9.99707 13.7109 10.0908L2.56641 16.7002C2.44922 16.7705 2.35547 16.8057 2.28515 16.8057ZM17.8711 18.9736C18.3515 18.9736 18.75 18.8213 19.2187 18.5401L31.1601 11.5088C31.9922 11.0166 32.3437 10.4307 32.3437 9.7627C32.3437 9.09473 31.9922 8.50879 31.1601 8.0166L19.2187 0.985351C18.7382 0.704101 18.3515 0.551758 17.8711 0.551758C16.957 0.551758 16.1836 1.25488 16.1836 2.56738V16.958C16.1836 18.2705 16.957 18.9736 17.8711 18.9736ZM18.3867 16.8057C18.2109 16.8057 18.0703 16.6885 18.0703 16.4541V3.07129C18.0703 2.83691 18.2109 2.71973 18.3867 2.71973C18.457 2.71973 18.5508 2.75488 18.6679 2.8252L29.8125 9.43457C29.9765 9.52832 30.0586 9.59863 30.0586 9.7627C30.0586 9.91504 29.9765 9.99707 29.8125 10.0908L18.6679 16.7002C18.5508 16.7705 18.457 16.8057 18.3867 16.8057Z" fill="black" fill-opacity="0.85"/>
</g>
<defs>
<clipPath id="clip0_2207_5272">
<rect width="34.207" height="19.3711" fill="white" transform="translate(0.0820312 0.0712891)"/>
</clipPath>
</defs>
</svg>
