<svg width="39" height="20" viewBox="0 0 39 20" fill="none" xmlns="http://www.w3.org/2000/svg">
<g clip-path="url(#clip0_2207_5276)">
<path d="M33.8574 19.1611H36.5176C37.5488 19.1611 38.0762 18.6221 38.0762 17.5908V1.62988C38.0762 0.563477 37.5488 0.0712891 36.5176 0.0712891H33.8574C32.8262 0.0712891 32.2871 0.610351 32.2871 1.62988V17.5908C32.2871 18.6221 32.8262 19.1611 33.8574 19.1611ZM17.8731 18.8096C18.3535 18.8096 18.752 18.6572 19.2207 18.376L31.1621 11.3565C31.9942 10.8643 32.3457 10.2783 32.3457 9.61035C32.3457 8.93067 31.9942 8.35645 31.1621 7.86426L19.2207 0.833008C18.7402 0.551758 18.3535 0.399414 17.8731 0.399414C16.959 0.399414 16.1856 1.10254 16.1856 2.41504V16.8057C16.1856 18.1182 16.959 18.8096 17.8731 18.8096ZM1.77148 18.8096C2.25195 18.8096 2.63867 18.6572 3.11914 18.376L15.0606 11.3565C15.8926 10.8643 16.2442 10.2783 16.2442 9.61035C16.2442 8.93067 15.8926 8.35645 15.0606 7.86426L3.11914 0.833008C2.63867 0.551758 2.25195 0.399414 1.77148 0.399414C0.845703 0.399414 0.0839844 1.10254 0.0839844 2.41504V16.8057C0.0839844 18.1182 0.845703 18.8096 1.77148 18.8096Z" fill="black" fill-opacity="0.85"/>
</g>
<defs>
<clipPath id="clip0_2207_5276">
<rect width="37.9922" height="19.0898" fill="white" transform="translate(0.0839844 0.0712891)"/>
</clipPath>
</defs>
</svg>
