<svg width="30" height="24" viewBox="0 0 30 24" fill="none" xmlns="http://www.w3.org/2000/svg">
<g clip-path="url(#clip0_2207_21806)">
<path d="M13.7509 23.2393C21.7314 23.2393 27.7666 17.7783 29.4072 10.4307C29.6064 9.5752 29.0556 8.94238 28.165 8.94238H17.4541V10.7471H28.3877L27.6611 10.1143C26.0674 16.8057 20.6416 21.4463 13.7509 21.4463C6.64941 21.4463 1.87988 17.0166 1.87988 10.6768C1.87988 5.55567 5.51269 1.87598 10.3174 1.87598C14.0322 1.87598 16.6806 4.29004 16.6806 7.68848C16.6806 10.501 14.9111 12.5401 12.4267 12.5401C10.3291 12.5401 8.87597 11.1572 8.87597 9.3877C8.87597 7.98145 9.80175 6.91504 11.1142 6.91504C12.1689 6.91504 12.79 7.54785 12.79 8.37988C12.79 9.02441 12.415 9.46973 11.8525 9.46973C11.3955 9.46973 11.2431 9.24707 11.1142 9.02441C10.997 8.81348 10.8213 8.68457 10.5166 8.68457C10.1533 8.68457 9.77832 8.97754 9.77832 9.5166C9.77832 10.2783 10.4697 11.2744 11.8408 11.2744C13.3759 11.2744 14.5947 10.126 14.5947 8.37988C14.5947 6.55176 13.0713 5.11035 11.1142 5.11035C8.91113 5.11035 7.07129 6.99707 7.07129 9.3877C7.07129 12.1533 9.33301 14.333 12.4267 14.333C16.8213 14.333 18.4736 10.4072 18.4736 7.68848C18.4736 3.27051 15.0517 0.0830078 10.3174 0.0830078C4.49316 0.0830078 0.0986328 4.52441 0.0986328 10.6768C0.0986328 18.0361 5.59472 23.2393 13.7509 23.2393ZM15.9775 2.2627L11.7705 6.48145L12.7314 7.44238L16.9384 3.23535L15.9775 2.2627ZM9.74316 0.469727V6.55176H11.0908V0.469727H9.74316ZM3.81347 3.15332L8.25488 7.60645L9.2041 6.63379L4.77441 2.18067L3.81347 3.15332ZM1.44629 10.0439H7.96191V8.68457H1.44629V10.0439ZM3.86035 18.0596L9.25097 12.6807L8.29004 11.7197L2.91113 17.0986L3.86035 18.0596ZM11.3838 22.1846H12.7431V13.7354H11.3838V22.1846ZM21.8134 19.8291L22.7627 18.8565L15.7666 11.8486L14.8056 12.8096L21.8134 19.8291Z" fill="black" fill-opacity="0.85"/>
</g>
<defs>
<clipPath id="clip0_2207_21806">
<rect width="29.3493" height="23.168" fill="white" transform="translate(0.0986328 0.0712891)"/>
</clipPath>
</defs>
</svg>
