<svg width="22" height="22" viewBox="0 0 22 22" fill="none" xmlns="http://www.w3.org/2000/svg">
<g clip-path="url(#clip0_2207_25461)">
<path d="M3.69019 21.6705H17.905C20.366 21.6705 21.5847 20.4517 21.5847 18.0376V3.729C21.5847 1.31494 20.366 0.0961914 17.905 0.0961914H3.69019C1.24097 0.0961914 0.010498 1.30322 0.010498 3.729V18.0376C0.010498 20.4634 1.24097 21.6705 3.69019 21.6705Z" fill="black" fill-opacity="0.85"/>
<path d="M8.68238 16.9244C8.22534 16.9244 7.8855 16.6197 7.8855 16.1509V14.8736H6.91284C6.56128 14.8736 6.33862 14.604 6.33862 14.2642C6.33862 13.9244 6.56128 13.6666 6.91284 13.6666H7.8855V6.18995C7.8855 5.69776 8.19019 5.38135 8.67066 5.38135H13.9441C14.366 5.38135 14.6941 5.6626 14.6941 6.11964C14.6941 6.55323 14.366 6.8462 13.9441 6.8462H9.46753V10.2564H13.4988C13.9324 10.2564 14.2488 10.5376 14.2488 10.983C14.2488 11.4166 13.9324 11.7095 13.4988 11.7095H9.46753V13.6666H11.9519C12.3035 13.6666 12.5496 13.9244 12.5496 14.2642C12.5496 14.604 12.3035 14.8736 11.9519 14.8736H9.46753V16.1392C9.46753 16.5962 9.15112 16.9244 8.68238 16.9244Z" fill="white"/>
</g>
<defs>
<clipPath id="clip0_2207_25461">
<rect width="21.5742" height="21.5977" fill="white" transform="translate(0.010498 0.0727539)"/>
</clipPath>
</defs>
</svg>
