<svg width="37" height="24" viewBox="0 0 37 24" fill="none" xmlns="http://www.w3.org/2000/svg">
<g clip-path="url(#clip0_2207_12128)">
<path d="M0.0126953 13.186C0.0126953 19.4438 5.8955 23.6157 14.79 23.6157C23.6963 23.6157 29.5791 19.4438 29.5791 13.186C29.5791 10.561 23.4971 8.42821 14.79 8.42821C6.09473 8.42821 0.0126953 10.561 0.0126953 13.186ZM1.89942 13.186C1.89942 11.9204 8.04004 10.1977 14.79 10.1977C21.54 10.1977 27.6924 11.9204 27.6924 13.186C27.6924 14.4047 21.9268 16.0219 14.79 16.0219C7.65332 16.0219 1.89942 14.4047 1.89942 13.186ZM2.2627 15.5415C4.57129 16.9125 9.5752 17.9086 14.79 17.9086C20.0166 17.9086 25.0205 16.9125 27.3291 15.5415C26.3565 19.268 21.376 21.7289 14.79 21.7289C8.21581 21.7289 3.23536 19.268 2.2627 15.5415ZM27.1299 12.1665L34.958 7.37352C38.4736 5.24071 35.2041 0.0844555 30.9971 3.09618L21.6338 9.83446L23.6143 10.3618L32.3447 4.40868C34.0557 3.22508 35.1338 5.04149 33.7979 5.87352L25.4775 11.0297L27.1299 12.1665ZM7.98145 16.3032L20.6025 16.35C20.6143 13.9125 18.6104 12.3188 16.3018 12.3188C14.7783 12.3188 13.4424 12.9985 12.6572 14.0532C12.2471 13.9125 11.8721 13.8539 11.415 13.8539C9.70411 13.8539 8.28614 14.9204 7.98145 16.3032Z" fill="black" fill-opacity="0.85"/>
</g>
<defs>
<clipPath id="clip0_2207_12128">
<rect width="36.4354" height="23.543" fill="white" transform="translate(0.0126953 0.0727539)"/>
</clipPath>
</defs>
</svg>
