<svg width="24" height="27" viewBox="0 0 24 27" fill="none" xmlns="http://www.w3.org/2000/svg">
<g clip-path="url(#clip0_2207_15516)">
<path d="M17.2504 25.3384V3.04931C17.2504 1.12744 16.1958 0.0727539 14.2856 0.0727539H4.84033C2.90673 0.0727539 1.8872 1.12744 1.8872 3.04931V25.3384H17.2504ZM5.22705 12.3072C4.37158 12.3072 3.85595 11.8384 3.85595 11.0533V3.31884C3.85595 2.53369 4.37158 2.05322 5.22705 2.05322H13.8989C14.7544 2.05322 15.2817 2.53369 15.2817 3.31884V11.0533C15.2817 11.8384 14.7544 12.3072 13.8989 12.3072H5.22705ZM0.0356445 25.2564C0.0356445 25.7837 0.445801 26.2173 0.961426 26.2173H18.1528C18.6684 26.2173 19.102 25.7837 19.102 25.2564C19.102 24.7525 18.6684 24.3306 18.1528 24.3306H0.961426C0.45752 24.3306 0.0356445 24.7408 0.0356445 25.2564ZM16.3481 15.5064H17.3676C17.9067 15.5064 18.2465 15.8111 18.2465 16.397V20.2759C18.2465 21.94 19.2544 22.9478 20.9184 22.9478C22.5708 22.9478 23.5668 21.94 23.5668 20.2759V5.92041C23.5668 5.21728 23.3794 4.67822 23.0395 4.13916L21.434 1.53759C20.8364 0.588379 19.4418 1.44384 20.0395 2.40478L21.4106 4.63134C21.5395 4.84228 21.5278 5.08837 21.3872 5.29931L19.852 7.44384C19.3481 8.13525 19.4184 8.7915 19.9458 9.41259L21.9145 11.6978V20.2759C21.9145 20.9087 21.5395 21.2955 20.9184 21.2955C20.2739 21.2955 19.8989 20.9087 19.8989 20.2759V16.397C19.8989 14.7798 18.9379 13.854 17.3676 13.854H16.3481V15.5064Z" fill="black" fill-opacity="0.85"/>
</g>
<defs>
<clipPath id="clip0_2207_15516">
<rect width="23.5312" height="26.1445" fill="white" transform="translate(0.0356445 0.0727539)"/>
</clipPath>
</defs>
</svg>
