<svg width="24" height="24" viewBox="0 0 24 24" fill="none" xmlns="http://www.w3.org/2000/svg">
<g id="fuelpump.circle" clip-path="url(#clip0_2124_13604)">
<g id="Group">
<path id="Vector" d="M11.9531 23.9062C18.4922 23.9062 23.9062 18.4805 23.9062 11.9531C23.9062 5.41406 18.4805 0 11.9414 0C5.41406 0 0 5.41406 0 11.9531C0 18.4805 5.42578 23.9062 11.9531 23.9062ZM11.9531 21.9141C6.42188 21.9141 2.00391 17.4844 2.00391 11.9531C2.00391 6.42188 6.41016 1.99219 11.9414 1.99219C17.4727 1.99219 21.9141 6.42188 21.9141 11.9531C21.9141 17.4844 17.4844 21.9141 11.9531 21.9141Z" fill="black" fill-opacity="0.85"/>
<path id="Vector_2" d="M15.2109 17.4961V6.53906C15.2109 5.57812 14.6953 5.05078 13.7227 5.05078H8.53125C7.57031 5.05078 7.04297 5.56641 7.04297 6.53906V17.4961H15.2109ZM9.19922 11.543C8.80078 11.543 8.55469 11.3086 8.55469 10.9453V7.17188C8.55469 6.80859 8.80078 6.59766 9.19922 6.59766H13.0664C13.4648 6.59766 13.7109 6.80859 13.7109 7.17188V10.9453C13.7109 11.3086 13.4648 11.543 13.0664 11.543H9.19922ZM6.30469 17.8711C6.30469 18.1406 6.55078 18.3867 6.82031 18.3867H15.4219C15.7266 18.3867 15.9492 18.1406 15.9492 17.8711C15.9492 17.6133 15.7266 17.3906 15.4219 17.3906H6.82031C6.55078 17.3906 6.30469 17.6133 6.30469 17.8711ZM13.7344 15.8438H16.9102C17.9062 15.8438 18.4102 15.3398 18.4102 14.3555V8.22656C18.4102 7.81641 18.3047 7.5 18.1055 7.19531L17.2852 5.84766C16.957 5.33203 16.1953 5.80078 16.5117 6.32812L17.3555 7.67578C17.4727 7.875 17.5078 7.98047 17.5078 8.22656V14.3555C17.5078 14.7422 17.2969 14.9414 16.9102 14.9414H13.7344V15.8438ZM16.5469 10.0664L17.5898 11.2734V7.35938L16.4883 8.90625C16.1836 9.32812 16.207 9.66797 16.5469 10.0664Z" fill="black" fill-opacity="0.85"/>
</g>
</g>
<defs>
<clipPath id="clip0_2124_13604">
<rect width="23.9062" height="23.918" fill="white"/>
</clipPath>
</defs>
</svg>
