<svg width="33" height="27" viewBox="0 0 33 27" fill="none" xmlns="http://www.w3.org/2000/svg">
<g clip-path="url(#clip0_2207_15557)">
<path d="M25.7935 25.3384V3.04931C25.7935 1.12744 24.7388 0.0727539 22.8287 0.0727539H13.3834C11.4498 0.0727539 10.4302 1.12744 10.4302 3.04931V25.3384H25.7935ZM13.7701 12.3072C12.9146 12.3072 12.4107 11.8384 12.4107 11.0533V3.31884C12.4107 2.53369 12.9146 2.05322 13.7701 2.05322H22.442C23.2974 2.05322 23.8248 2.53369 23.8248 3.31884V11.0533C23.8248 11.8384 23.2974 12.3072 22.442 12.3072H13.7701ZM8.57866 25.2564C8.57866 25.7837 9.00054 26.2173 9.50444 26.2173H26.7076C27.2115 26.2173 27.6451 25.7837 27.6451 25.2564C27.6451 24.7525 27.2115 24.3306 26.7076 24.3306H9.50444C9.01226 24.3306 8.57866 24.7408 8.57866 25.2564ZM24.9029 15.5064H25.9107C26.4498 15.5064 26.7896 15.8111 26.7896 16.397V20.2759C26.7896 21.94 27.7974 22.9478 29.4615 22.9478C31.1138 22.9478 32.1099 21.94 32.1099 20.2759V5.92041C32.1099 5.21728 31.9224 4.67822 31.5826 4.13916L29.9771 1.53759C29.3795 0.588379 27.9849 1.44384 28.5826 2.40478L29.9537 4.63134C30.0826 4.84228 30.0709 5.08837 29.9302 5.29931L28.3951 7.44384C27.9029 8.13525 27.9615 8.7915 28.4888 9.41259L30.4576 11.6978V20.2759C30.4576 20.9087 30.0826 21.2955 29.4615 21.2955C28.817 21.2955 28.442 20.9087 28.442 20.2759V16.397C28.442 14.7798 27.481 13.854 25.9107 13.854H24.9029V15.5064Z" fill="black" fill-opacity="0.85"/>
<path d="M0.363826 12.5767C-0.081487 12.8345 -0.104924 13.4556 0.363826 13.7251L6.38727 17.2759C6.87945 17.5689 7.45367 17.3345 7.45367 16.8306V9.44779C7.45367 8.9556 6.8443 8.73295 6.38727 9.00248L0.363826 12.5767Z" fill="black" fill-opacity="0.85"/>
</g>
<defs>
<clipPath id="clip0_2207_15557">
<rect width="32.0889" height="26.1445" fill="white" transform="translate(0.0209961 0.0727539)"/>
</clipPath>
</defs>
</svg>
