<svg width="24" height="25" viewBox="0 0 24 25" fill="none" xmlns="http://www.w3.org/2000/svg">
<g clip-path="url(#clip0_2207_15525)">
<path d="M11.9825 24.0142C18.5216 24.0142 23.9356 18.6001 23.9356 12.0611C23.9356 5.53369 18.5099 0.10791 11.9708 0.10791C5.44348 0.10791 0.0294189 5.53369 0.0294189 12.0611C0.0294189 18.6001 5.4552 24.0142 11.9825 24.0142Z" fill="black" fill-opacity="0.85"/>
<path d="M6.69739 18.7173C6.41614 18.7173 6.15833 18.4595 6.15833 18.1783C6.15833 17.897 6.41614 17.6861 6.69739 17.6861H6.92004V6.49463C6.92004 5.49853 7.47083 4.95947 8.4552 4.95947H13.8106C14.8067 4.95947 15.3458 5.49853 15.3458 6.49463V15.1431H17.0802C17.4786 15.1431 17.7013 14.9439 17.7013 14.5337V11.2876L16.7052 10.1275C16.3536 9.71728 16.3302 9.37744 16.6466 8.94384L17.5489 7.67822L16.67 6.28369C16.3536 5.74463 17.1388 5.25244 17.4786 5.7915L18.3224 7.16259C18.5099 7.49072 18.6388 7.81884 18.6388 8.229V14.5455C18.6388 15.5533 18.1114 16.0806 17.0802 16.0806H15.3458V17.6861H15.5567C15.8732 17.6861 16.1075 17.897 16.1075 18.1783C16.1075 18.4595 15.8732 18.7173 15.5567 18.7173H6.69739ZM8.47863 11.0416C8.47863 11.4166 8.73645 11.6626 9.14661 11.6626H13.131C13.5411 11.6626 13.7989 11.4166 13.7989 11.0416V7.15087C13.7989 6.77587 13.5411 6.5415 13.131 6.5415H9.14661C8.73645 6.5415 8.47863 6.77587 8.47863 7.15087V11.0416Z" fill="white"/>
</g>
<defs>
<clipPath id="clip0_2207_15525">
<rect width="23.9062" height="23.9414" fill="white" transform="translate(0.0294189 0.0727539)"/>
</clipPath>
</defs>
</svg>
