<svg width="32" height="27" viewBox="0 0 32 27" fill="none" xmlns="http://www.w3.org/2000/svg">
<g clip-path="url(#clip0_2207_15542)">
<path d="M30.0198 21.0025C30.8518 21.0025 31.5549 20.3228 31.5549 19.5259C31.5549 18.7173 30.8635 18.0494 30.0198 18.0494C29.1643 18.0494 28.4729 18.7173 28.4729 19.5259C28.4729 20.3228 29.176 21.0025 30.0198 21.0025ZM30.0198 15.7994C30.594 15.7994 30.9924 15.4009 31.0159 14.8033L31.262 6.50634C31.2854 5.75634 30.7815 5.25244 30.0198 5.25244C29.2463 5.25244 28.7424 5.75634 28.7659 6.50634L29.012 14.8033C29.0354 15.4009 29.4456 15.7994 30.0198 15.7994Z" fill="black" fill-opacity="0.85"/>
<path d="M18.4417 25.3384V3.04931C18.4417 1.12744 17.387 0.0727539 15.4651 0.0727539H4.83618C2.90258 0.0727539 1.88305 1.12744 1.88305 3.04931V25.3384H3.75805L3.76977 3.07275C3.76977 2.34619 4.12133 1.95947 4.87133 1.95947H15.4299C16.1565 1.95947 16.5432 2.33447 16.5432 3.07275V25.3384H18.4417ZM0.0314941 25.2564C0.0314941 25.7837 0.44165 26.2173 0.957275 26.2173H19.344C19.8596 26.2173 20.2815 25.7837 20.2815 25.2564C20.2815 24.7525 19.8596 24.3306 19.344 24.3306H0.957275C0.453369 24.3306 0.0314941 24.7408 0.0314941 25.2564ZM6.40649 12.9751H13.8948C14.6799 12.9751 15.219 12.5064 15.219 11.7916V4.68994C15.219 3.97509 14.6682 3.48291 13.8948 3.48291H6.40649C5.63305 3.48291 5.10571 3.97509 5.10571 4.68994V11.7916C5.10571 12.5064 5.63305 12.9751 6.40649 12.9751ZM17.5393 15.5064H18.5588C19.0979 15.5064 19.426 15.8111 19.426 16.397V20.2759C19.426 21.94 20.4338 22.9478 22.0979 22.9478C23.762 22.9478 24.7581 21.94 24.7581 20.2759V5.92041C24.7581 5.21728 24.5706 4.67822 24.2307 4.13916L22.6253 1.53759C22.0276 0.588379 20.6331 1.44384 21.219 2.40478L22.6018 4.63134C22.7307 4.84228 22.719 5.08837 22.5784 5.29931L21.0432 7.44384C20.5393 8.13525 20.6096 8.7915 21.137 9.41259L23.1057 11.6978V20.2759C23.1057 20.9087 22.719 21.2955 22.0979 21.2955C21.4651 21.2955 21.0901 20.9087 21.0901 20.2759V16.397C21.0901 14.7798 20.1292 13.854 18.5588 13.854H17.5393V15.5064Z" fill="black" fill-opacity="0.85"/>
</g>
<defs>
<clipPath id="clip0_2207_15542">
<rect width="31.5234" height="26.1445" fill="white" transform="translate(0.0314941 0.0727539)"/>
</clipPath>
</defs>
</svg>
