<svg width="34" height="27" viewBox="0 0 34 27" fill="none" xmlns="http://www.w3.org/2000/svg">
<g clip-path="url(#clip0_2207_15567)">
<path d="M17.2399 25.3384V3.04931C17.2399 1.12744 16.1853 0.0727539 14.2751 0.0727539H4.82984C2.89624 0.0727539 1.87671 1.12744 1.87671 3.04931V25.3384H17.2399ZM5.21656 12.3072C4.36109 12.3072 3.84546 11.8384 3.84546 11.0533V3.31884C3.84546 2.53369 4.36109 2.05322 5.21656 2.05322H13.8884C14.7439 2.05322 15.2712 2.53369 15.2712 3.31884V11.0533C15.2712 11.8384 14.7439 12.3072 13.8884 12.3072H5.21656ZM0.0251465 25.2564C0.0251465 25.7837 0.435302 26.2173 0.950927 26.2173H18.1423C18.6579 26.2173 19.0915 25.7837 19.0915 25.2564C19.0915 24.7525 18.6579 24.3306 18.1423 24.3306H0.950927C0.447021 24.3306 0.0251465 24.7408 0.0251465 25.2564ZM16.3376 15.5064H17.3571C17.8962 15.5064 18.236 15.8111 18.236 16.397V20.2759C18.236 21.94 19.2439 22.9478 20.9079 22.9478C22.5603 22.9478 23.5563 21.94 23.5563 20.2759V5.92041C23.5563 5.21728 23.3689 4.67822 23.029 4.13916L21.4235 1.53759C20.8259 0.588379 19.4313 1.44384 20.029 2.40478L21.4001 4.63134C21.529 4.84228 21.5173 5.08837 21.3767 5.29931L19.8415 7.44384C19.3376 8.13525 19.4079 8.7915 19.9353 9.41259L21.904 11.6978V20.2759C21.904 20.9087 21.529 21.2955 20.9079 21.2955C20.2634 21.2955 19.8884 20.9087 19.8884 20.2759V16.397C19.8884 14.7798 18.9274 13.854 17.3571 13.854H16.3376V15.5064Z" fill="black" fill-opacity="0.85"/>
<path d="M33.6229 12.5767L27.5994 9.00248C27.1424 8.73295 26.533 8.9556 26.533 9.44779V16.8306C26.533 17.3345 27.1072 17.5689 27.5994 17.2759L33.6229 13.7251C34.0916 13.4556 34.0682 12.8345 33.6229 12.5767Z" fill="black" fill-opacity="0.85"/>
</g>
<defs>
<clipPath id="clip0_2207_15567">
<rect width="33.9405" height="26.1445" fill="white" transform="translate(0.0251465 0.0727539)"/>
</clipPath>
</defs>
</svg>
