<svg width="32" height="18" viewBox="0 0 32 18" fill="none" xmlns="http://www.w3.org/2000/svg">
<g clip-path="url(#clip0_2207_22544)">
<path d="M15.6279 17.4048C16.0264 17.4048 16.3076 17.1822 16.3076 16.7837C16.3076 16.608 16.2725 16.5142 16.1436 16.2681C14.7139 14.0533 13.8936 11.5103 13.8936 8.75634C13.8936 6.09619 14.667 3.43603 16.1436 1.20947C16.2725 0.963379 16.3076 0.869629 16.3076 0.693848C16.3076 0.318848 16.0264 0.0727539 15.6279 0.0727539C15.2412 0.0727539 14.9365 0.248535 14.5615 0.76416C12.792 3.00244 11.9131 5.7915 11.9131 8.74463C11.9131 11.6978 12.7686 14.4048 14.5615 16.7134C14.9365 17.229 15.2412 17.4048 15.6279 17.4048ZM18.0889 14.2994C18.4639 14.2994 18.7334 14.1705 19.0264 13.7486L21.5928 10.0923H21.6397L24.2647 13.8072C24.5576 14.2173 24.8389 14.2994 25.1201 14.2994C25.6826 14.2994 26.0459 13.9009 26.0459 13.4205C26.0459 13.1978 25.9873 12.9869 25.835 12.7876L22.835 8.70947L25.835 4.68994C25.9756 4.49072 26.0576 4.27978 26.0576 4.03369C26.0576 3.52978 25.6358 3.17822 25.1553 3.17822C24.7334 3.17822 24.499 3.38916 24.2764 3.729L21.8037 7.35009H21.7451L19.2608 3.71728C19.0264 3.37744 18.7568 3.17822 18.3115 3.17822C17.7608 3.17822 17.3506 3.61181 17.3506 4.08056C17.3506 4.42041 17.4561 4.63134 17.6084 4.83056L20.4678 8.65087L17.4326 12.8345C17.2686 13.0572 17.2334 13.2564 17.2334 13.4908C17.2334 13.9478 17.6201 14.2994 18.0889 14.2994ZM27.6045 17.4048C27.9912 17.4048 28.2959 17.229 28.6709 16.7134C30.4639 14.4048 31.3193 11.6978 31.3193 8.74463C31.3193 5.7915 30.4404 3.00244 28.6709 0.76416C28.2959 0.248535 27.9912 0.0727539 27.6045 0.0727539C27.2061 0.0727539 26.9248 0.318848 26.9248 0.693848C26.9248 0.869629 26.96 0.963379 27.0889 1.20947C28.5654 3.43603 29.3389 6.09619 29.3389 8.75634C29.3389 11.5103 28.5186 14.0533 27.0889 16.2681C26.96 16.5142 26.9248 16.608 26.9248 16.7837C26.9248 17.1587 27.2061 17.4048 27.6045 17.4048Z" fill="black" fill-opacity="0.85"/>
<path d="M1.62402 17.3814C3.9209 17.3814 4.97558 16.397 5.53808 13.7603L6.87402 7.35009H8.99511C9.6748 7.35009 10.1084 6.98681 10.1084 6.40087C10.1084 5.89697 9.78027 5.58056 9.24121 5.58056H7.24902L7.57715 3.98681C7.89355 2.49853 8.3623 1.88916 9.65137 1.88916C9.85058 1.88916 10.0381 1.87744 10.167 1.86572C10.7412 1.80713 11.0108 1.53759 11.0108 1.03369C11.0108 0.377442 10.46 0.0844727 9.33496 0.0844727C7.09668 0.0844727 5.94824 1.19775 5.4209 3.70556L5.03418 5.58056H3.58105C2.88965 5.58056 2.45605 5.94384 2.45605 6.52978C2.45605 7.03369 2.78418 7.35009 3.33496 7.35009H4.65918L3.37011 13.479C3.04199 15.0142 2.56152 15.5767 1.30761 15.5767C1.14355 15.5767 0.979492 15.5884 0.874023 15.6001C0.334961 15.6705 0.0419922 15.9634 0.0419922 16.4556C0.0419922 17.0884 0.581054 17.3814 1.62402 17.3814Z" fill="black" fill-opacity="0.85"/>
</g>
<defs>
<clipPath id="clip0_2207_22544">
<rect width="31.2773" height="17.332" fill="white" transform="translate(0.0419922 0.0727539)"/>
</clipPath>
</defs>
</svg>
