<svg width="24" height="24" viewBox="0 0 24 24" fill="none" xmlns="http://www.w3.org/2000/svg">
<g clip-path="url(#clip0_2207_24951)">
<path d="M12.0014 23.979C18.5405 23.979 23.9545 18.5533 23.9545 12.0259C23.9545 5.48681 18.5288 0.0727539 11.9897 0.0727539C5.4624 0.0727539 0.0483398 5.48681 0.0483398 12.0259C0.0483398 18.5533 5.47412 23.979 12.0014 23.979Z" fill="black" fill-opacity="0.85"/>
<path d="M12.06 17.7564C8.86084 17.7564 6.8335 15.4947 6.8335 11.9205C6.8335 8.35791 8.86084 6.07275 12.0131 6.07275C14.2983 6.07275 15.9038 7.20947 16.4897 8.74463C16.56 8.94384 16.6069 9.09619 16.6069 9.30713C16.6069 9.82275 16.2788 10.1509 15.7631 10.1509C15.3881 10.1509 15.1538 9.96337 14.9545 9.55322C14.4506 8.34619 13.4311 7.68994 12.0483 7.68994C10.103 7.68994 8.80225 9.38916 8.80225 11.9205C8.80225 14.4634 10.1147 16.1509 12.0835 16.1509C13.9233 16.1509 14.8725 15.19 14.8725 13.7603V12.9634H12.6342C12.1889 12.9634 11.9194 12.6353 11.9194 12.2603C11.9194 11.8501 12.1889 11.5572 12.6342 11.5572H15.7749C16.4194 11.5572 16.8061 11.9439 16.8061 12.6119V13.5025C16.8061 16.0103 15.0483 17.7564 12.06 17.7564Z" fill="white"/>
</g>
<defs>
<clipPath id="clip0_2207_24951">
<rect width="23.9062" height="23.918" fill="white" transform="translate(0.0483398 0.0727539)"/>
</clipPath>
</defs>
</svg>
