<svg width="22" height="22" viewBox="0 0 22 22" fill="none" xmlns="http://www.w3.org/2000/svg">
<g clip-path="url(#clip0_2207_24956)">
<path d="M3.7301 21.6705H17.9449C20.4059 21.6705 21.6246 20.4517 21.6246 18.0376V3.729C21.6246 1.31494 20.4059 0.0961914 17.9449 0.0961914H3.7301C1.28088 0.0961914 0.050415 1.30322 0.050415 3.729V18.0376C0.050415 20.4634 1.28088 21.6705 3.7301 21.6705ZM3.75354 19.7837C2.58167 19.7837 1.93713 19.1626 1.93713 17.9439V3.82275C1.93713 2.604 2.58167 1.98291 3.75354 1.98291H17.9215C19.0816 1.98291 19.7379 2.604 19.7379 3.82275V17.9439C19.7379 19.1626 19.0816 19.7837 17.9215 19.7837H3.75354Z" fill="black" fill-opacity="0.85"/>
<path d="M10.8902 16.3619C13.7496 16.3619 15.4488 14.6861 15.4488 12.272V11.4166C15.4488 10.7837 15.0738 10.4087 14.4645 10.4087H11.4527C11.0192 10.4087 10.7613 10.69 10.7613 11.0884C10.7613 11.44 11.0192 11.7564 11.4527 11.7564H13.5856V12.5181C13.5856 13.9009 12.6832 14.815 10.9137 14.815C9.02697 14.815 7.77307 13.2095 7.77307 10.7603C7.77307 8.33447 9.01525 6.69384 10.8785 6.69384C12.2027 6.69384 13.1871 7.32666 13.6676 8.48681C13.8668 8.88525 14.0895 9.04931 14.4527 9.04931C14.9332 9.04931 15.2496 8.74463 15.2496 8.25244C15.2496 8.05322 15.2262 7.90087 15.1442 7.71337C14.5934 6.23681 13.0348 5.14697 10.8551 5.14697C7.81994 5.14697 5.87463 7.33837 5.87463 10.7603C5.87463 14.1939 7.81994 16.3619 10.8902 16.3619Z" fill="black" fill-opacity="0.85"/>
</g>
<defs>
<clipPath id="clip0_2207_24956">
<rect width="21.5742" height="21.5977" fill="white" transform="translate(0.050415 0.0727539)"/>
</clipPath>
</defs>
</svg>
