<svg width="24" height="24" viewBox="0 0 24 24" fill="none" xmlns="http://www.w3.org/2000/svg">
<g clip-path="url(#clip0_2207_10295)">
<path d="M12.0371 23.979C18.5762 23.979 23.9902 18.5533 23.9902 12.0259C23.9902 5.48681 18.5645 0.0727539 12.0254 0.0727539C5.49804 0.0727539 0.0839844 5.48681 0.0839844 12.0259C0.0839844 18.5533 5.50976 23.979 12.0371 23.979ZM12.0371 21.9869C6.50586 21.9869 2.08789 17.5572 2.08789 12.0259C2.08789 6.49463 6.49414 2.06494 12.0254 2.06494C17.5567 2.06494 21.9981 6.49463 21.9981 12.0259C21.9981 17.5572 17.5684 21.9869 12.0371 21.9869Z" fill="black" fill-opacity="0.85"/>
<path d="M18.3652 10.2212C18.916 10.2212 19.3731 9.76417 19.3731 9.21338C19.3731 8.65088 18.916 8.19385 18.3652 8.19385C17.8145 8.19385 17.3574 8.65088 17.3574 9.21338C17.3574 9.76417 17.8145 10.2212 18.3652 10.2212ZM15.7402 7.31495C16.291 7.31495 16.7481 6.85792 16.7481 6.30714C16.7481 5.75635 16.291 5.29932 15.7402 5.29932C15.1895 5.29932 14.7324 5.75635 14.7324 6.30714C14.7324 6.85792 15.1895 7.31495 15.7402 7.31495ZM12.0254 6.20167C12.5762 6.20167 13.0332 5.74464 13.0332 5.19385C13.0332 4.64307 12.5762 4.18604 12.0254 4.18604C11.4746 4.18604 11.0176 4.64307 11.0176 5.19385C11.0176 5.74464 11.4746 6.20167 12.0254 6.20167ZM8.31054 7.31495C8.86132 7.31495 9.31836 6.85792 9.31836 6.30714C9.31836 5.75635 8.86132 5.29932 8.31054 5.29932C7.75976 5.29932 7.30273 5.75635 7.30273 6.30714C7.30273 6.85792 7.75976 7.31495 8.31054 7.31495ZM5.68554 10.2212C6.23632 10.2212 6.69336 9.76417 6.69336 9.21338C6.69336 8.65088 6.23632 8.19385 5.68554 8.19385C5.13476 8.19385 4.67773 8.65088 4.67773 9.21338C4.67773 9.76417 5.13476 10.2212 5.68554 10.2212ZM12.0254 19.3501C13.0449 19.3501 13.5606 18.6939 13.9473 17.8267L16.5254 12.272C16.6543 11.9673 16.5723 11.6861 16.3731 11.5572C16.1621 11.4166 15.8809 11.4283 15.6348 11.6626L11.0528 15.7994C10.3848 16.4087 10.1504 16.854 10.1504 17.522C10.1504 18.5181 10.9824 19.3501 12.0254 19.3501Z" fill="black" fill-opacity="0.85"/>
</g>
<defs>
<clipPath id="clip0_2207_10295">
<rect width="23.9062" height="23.918" fill="white" transform="translate(0.0839844 0.0727539)"/>
</clipPath>
</defs>
</svg>
