<svg width="24" height="24" viewBox="0 0 24 24" fill="none" xmlns="http://www.w3.org/2000/svg">
<g clip-path="url(#clip0_2207_10276)">
<path d="M12.0393 23.979C18.5784 23.979 23.9924 18.5533 23.9924 12.0259C23.9924 5.48681 18.5667 0.0727539 12.0276 0.0727539C5.50024 0.0727539 0.0861816 5.48681 0.0861816 12.0259C0.0861816 18.5533 5.51196 23.979 12.0393 23.979ZM12.0393 21.9869C6.50806 21.9869 2.09009 17.5572 2.09009 12.0259C2.09009 6.49463 6.49634 2.06494 12.0276 2.06494C17.5589 2.06494 22.0003 6.49463 22.0003 12.0259C22.0003 17.5572 17.5706 21.9869 12.0393 21.9869Z" fill="black" fill-opacity="0.85"/>
<path d="M12.0393 19.3501C13.1292 19.3501 13.9143 18.565 13.9143 17.4869C13.9143 17.2759 13.844 16.9009 13.8089 16.6783L12.5784 9.86964C12.5198 9.5415 12.2854 9.37745 12.0393 9.37745C11.7932 9.37745 11.5706 9.5415 11.5003 9.86964L10.2815 16.6783C10.2346 16.9009 10.176 17.2759 10.176 17.4869C10.176 18.565 10.9612 19.3501 12.0393 19.3501ZM5.68774 10.2212C6.23852 10.2212 6.69556 9.76417 6.69556 9.21338C6.69556 8.65088 6.23852 8.19385 5.68774 8.19385C5.13696 8.19385 4.67993 8.65088 4.67993 9.21338C4.67993 9.76417 5.13696 10.2212 5.68774 10.2212ZM8.31274 7.31495C8.86352 7.31495 9.32056 6.85792 9.32056 6.30714C9.32056 5.75635 8.86352 5.29932 8.31274 5.29932C7.76196 5.29932 7.30493 5.75635 7.30493 6.30714C7.30493 6.85792 7.76196 7.31495 8.31274 7.31495ZM12.0276 6.20167C12.5784 6.20167 13.0354 5.74464 13.0354 5.19385C13.0354 4.64307 12.5784 4.18604 12.0276 4.18604C11.4768 4.18604 11.0198 4.64307 11.0198 5.19385C11.0198 5.74464 11.4768 6.20167 12.0276 6.20167ZM15.7424 7.31495C16.2932 7.31495 16.7503 6.85792 16.7503 6.30714C16.7503 5.75635 16.2932 5.29932 15.7424 5.29932C15.1917 5.29932 14.7346 5.75635 14.7346 6.30714C14.7346 6.85792 15.1917 7.31495 15.7424 7.31495ZM18.3674 10.2212C18.9182 10.2212 19.3753 9.76417 19.3753 9.21338C19.3753 8.65088 18.9182 8.19385 18.3674 8.19385C17.8167 8.19385 17.3596 8.65088 17.3596 9.21338C17.3596 9.76417 17.8167 10.2212 18.3674 10.2212Z" fill="black" fill-opacity="0.85"/>
</g>
<defs>
<clipPath id="clip0_2207_10276">
<rect width="23.9062" height="23.918" fill="white" transform="translate(0.0861816 0.0727539)"/>
</clipPath>
</defs>
</svg>
