<svg width="27" height="27" viewBox="0 0 27 27" fill="none" xmlns="http://www.w3.org/2000/svg">
<g clip-path="url(#clip0_2207_17568)">
<path d="M23.948 14.9658C23.948 8.43848 18.534 3.0127 12.0066 3.0127C5.46753 3.0127 0.0651855 8.43848 0.0651855 14.9658C0.0651855 18.0361 1.2605 20.8604 3.20581 22.9815C3.72144 23.5557 4.62378 23.6963 5.31519 23.0049L6.96753 21.3643C7.33081 21.001 7.33081 20.3916 6.96753 20.0283C6.60425 19.6651 5.99488 19.6651 5.6316 20.0283L4.34253 21.3174C2.91285 19.5947 2.0691 17.4033 2.0691 14.9658C2.0691 9.44629 6.47535 5.00488 12.0066 5.00488C17.5261 5.00488 21.9441 9.44629 21.9441 14.9658C21.9441 17.4033 21.0886 19.5947 19.659 21.3174L18.3699 20.0283C18.0183 19.6651 17.409 19.6651 17.034 20.0283C16.6824 20.3916 16.6707 21.001 17.034 21.3643L18.698 23.0049C19.3894 23.6963 20.2918 23.5557 20.8074 22.9815C22.7527 20.8604 23.948 18.0361 23.948 14.9658ZM20.0808 14.0283C19.5652 14.0283 19.1433 14.4502 19.1433 14.9658C19.1433 15.4815 19.5652 15.9151 20.0808 15.9151H22.9402V14.0283H20.0808ZM12.9441 6.86817V4.00879H11.0574V6.86817C11.0574 7.38379 11.491 7.81738 12.0066 7.81738C12.5222 7.81738 12.9441 7.38379 12.9441 6.86817ZM6.93238 8.5791L4.90503 6.55176L3.5691 7.8877L5.59644 9.91504C5.95972 10.2783 6.5691 10.2783 6.93238 9.91504C7.29566 9.54004 7.29566 8.94238 6.93238 8.5791ZM3.8855 14.0283H1.02612V15.9151H3.8855C4.40113 15.9151 4.83472 15.4815 4.83472 14.9658C4.83472 14.4502 4.40113 14.0283 3.8855 14.0283Z" fill="black" fill-opacity="0.85"/>
<path d="M10.5066 16.4658C11.28 17.2276 12.3816 17.2276 13.155 16.4658C13.2957 16.3135 13.5183 16.0088 13.6472 15.8213L17.5964 10.1377C17.784 9.85645 17.7371 9.58692 17.573 9.39942C17.3855 9.23535 17.116 9.17676 16.8347 9.37598L11.1511 13.3252C10.9636 13.4541 10.6472 13.6768 10.5066 13.8174C9.74488 14.5908 9.74488 15.6924 10.5066 16.4658Z" fill="black" fill-opacity="0.85"/>
<path d="M23.3855 0.270473C22.9988 -0.116246 22.5066 0.10641 22.4011 0.57516L21.5691 4.68844C21.4519 5.20406 21.7918 5.55563 22.3308 5.43844L26.4324 4.60641C26.9129 4.50094 27.1238 4.02047 26.7371 3.62203L23.3855 0.270473Z" fill="black" fill-opacity="0.85"/>
</g>
<defs>
<clipPath id="clip0_2207_17568">
<rect width="26.8725" height="26.5868" fill="white" transform="translate(0.0651855 0.0727539)"/>
</clipPath>
</defs>
</svg>
