<svg width="33" height="26" viewBox="0 0 33 26" fill="none" xmlns="http://www.w3.org/2000/svg">
<g clip-path="url(#clip0_2207_9908)">
<path d="M8.36377 18.4844H10.0747C10.813 18.4844 11.3872 18.039 11.5513 17.3359L11.8794 15.8476C11.9145 15.8359 11.9614 15.8125 11.9966 15.8008L13.3208 16.5976C13.9185 16.9492 14.6567 16.8789 15.1606 16.375L16.356 15.168C16.8833 14.6406 16.9536 13.914 16.5786 13.3164L15.77 12.039C15.7817 11.9922 15.8052 11.957 15.8169 11.9101L17.2817 11.5586C17.9731 11.3945 18.4302 10.8086 18.4302 10.0703V8.47656C18.4302 7.75 17.9849 7.16406 17.2817 6.98828L15.8169 6.63672C15.8052 6.58984 15.7817 6.55469 15.77 6.50781L16.5786 5.23047C16.9536 4.63281 16.8833 3.91797 16.356 3.37891L15.1606 2.1836C14.6567 1.67969 13.9185 1.59766 13.3208 1.96094L11.9966 2.7461C11.9497 2.73438 11.9145 2.72266 11.8677 2.71094L11.5513 1.21094C11.3989 0.519531 10.813 0.0742188 10.0747 0.0742188H8.36377C7.62549 0.0742188 7.05127 0.519531 6.88721 1.21094L6.55908 2.71094C6.51221 2.72266 6.47705 2.73438 6.43018 2.7461L5.11768 1.96094C4.52002 1.59766 3.78174 1.67969 3.27783 2.1836L2.08252 3.37891C1.55518 3.91797 1.49658 4.64453 1.85986 5.23047L2.66846 6.50781C2.65674 6.55469 2.6333 6.58984 2.62158 6.63672L1.14502 6.98828C0.453613 7.16406 0.00830078 7.75 0.00830078 8.47656V10.0703C0.00830078 10.8086 0.453613 11.3945 1.14502 11.5586L2.62158 11.9101C2.6333 11.957 2.65674 11.9922 2.66846 12.039L1.85986 13.3164C1.48486 13.914 1.55518 14.6406 2.08252 15.168L3.27783 16.375C3.78174 16.8789 4.5083 16.9492 5.10596 16.5976L6.44189 15.8008C6.47705 15.8125 6.52392 15.8359 6.55908 15.8476L6.88721 17.3359C7.05127 18.039 7.62549 18.4844 8.36377 18.4844ZM8.58642 16.8437C8.46924 16.8437 8.41064 16.7851 8.37549 16.668L7.87158 14.5703C7.30908 14.4414 6.79346 14.1836 6.3833 13.9609L4.55518 15.0742C4.43799 15.1445 4.35596 15.1328 4.27392 15.0508L3.3833 14.1719C3.30127 14.0898 3.28955 14.0195 3.35986 13.9023L4.46142 12.0859C4.3208 11.7344 4.01611 11.207 3.87549 10.5976L1.81299 10.1054C1.6958 10.082 1.63721 10.0117 1.63721 9.89453V8.65234C1.63721 8.53516 1.6958 8.47656 1.81299 8.45313L3.87549 7.96094C4.01611 7.33984 4.3208 6.82422 4.46142 6.46094L3.35986 4.64453C3.28955 4.53906 3.30127 4.46875 3.3833 4.375L4.27392 3.50781C4.35596 3.42578 4.43799 3.41406 4.55518 3.47266L6.3833 4.58594C6.79346 4.36328 7.30908 4.10547 7.87158 3.97656L8.37549 1.89063C8.41064 1.77344 8.46924 1.71484 8.58642 1.71484H9.85205C9.96924 1.71484 10.0278 1.77344 10.063 1.89063L10.5669 3.97656C11.1294 4.10547 11.645 4.36328 12.0552 4.58594L13.8833 3.47266C13.9888 3.41406 14.0825 3.42578 14.1645 3.50781L15.0552 4.375C15.1372 4.46875 15.1489 4.53906 15.0786 4.64453L13.9771 6.46094C14.1177 6.82422 14.4224 7.33984 14.563 7.96094L16.6255 8.45313C16.7427 8.47656 16.8013 8.53516 16.8013 8.65234V9.89453C16.8013 10.0117 16.7427 10.082 16.6255 10.1054L14.563 10.5976C14.4224 11.207 14.1177 11.7344 13.9771 12.0859L15.0786 13.9023C15.1489 14.0195 15.1372 14.0898 15.0552 14.1719L14.1645 15.0508C14.0825 15.1328 13.9888 15.1445 13.8833 15.0742L12.0552 13.9609C11.645 14.1836 11.1294 14.4414 10.5669 14.5703L10.063 16.668C10.0278 16.7851 9.96924 16.8437 9.85205 16.8437H8.58642ZM9.21924 12.8359C11.1528 12.8359 12.7466 11.2304 12.7466 9.27344C12.7466 7.33984 11.1528 5.7461 9.21924 5.7461C7.25049 5.7461 5.66846 7.33984 5.66846 9.27344C5.66846 11.2187 7.25049 12.8359 9.21924 12.8359ZM9.21924 11.1015C8.22314 11.1015 7.39111 10.293 7.39111 9.27344C7.39111 8.28906 8.22314 7.46875 9.21924 7.46875C10.2036 7.46875 11.0122 8.28906 11.0122 9.27344C11.0122 10.2812 10.2036 11.1015 9.21924 11.1015ZM23.7388 25.5508H25.0864C25.7544 25.5508 26.3169 25.164 26.4224 24.5547L26.645 23.3711C26.7036 23.3594 26.7388 23.3476 26.7739 23.3359L27.77 23.957C28.3091 24.2969 28.9771 24.2265 29.4458 23.7344L30.395 22.7851C30.8638 22.3047 30.9575 21.6367 30.5942 21.0976L29.9614 20.1367C29.9731 20.0898 29.9849 20.0664 30.0083 20.0195L31.1685 19.7734C31.7661 19.6445 32.1645 19.1054 32.1645 18.4375V17.125C32.1645 16.4687 31.7661 15.918 31.1685 15.789L30.0083 15.5547C29.9849 15.5078 29.9731 15.4726 29.9614 15.4258L30.5942 14.4648C30.9575 13.9258 30.8638 13.2695 30.395 12.789L29.4458 11.8281C28.9771 11.3476 28.3091 11.2656 27.77 11.6054L26.7739 12.2265C26.7388 12.2148 26.7036 12.2031 26.645 12.1914L26.4224 11.0195C26.3169 10.3984 25.7544 10.0117 25.0864 10.0117H23.7388C23.0708 10.0117 22.5083 10.3984 22.3911 11.0195L22.1685 12.1914C22.1216 12.2031 22.0864 12.2148 22.0395 12.2265L21.0435 11.6054C20.5044 11.2656 19.8481 11.3476 19.3794 11.8281L18.4302 12.789C17.9614 13.2695 17.8677 13.9258 18.2192 14.4648L18.8521 15.4258C18.8403 15.4726 18.8286 15.5078 18.8169 15.5547L17.6567 15.789C17.0474 15.918 16.6489 16.4687 16.6489 17.125V18.4375C16.6489 19.1054 17.0474 19.6445 17.6567 19.7734L18.8169 20.0195C18.8286 20.0664 18.8403 20.0898 18.8521 20.1367L18.2192 21.0976C17.8677 21.6367 17.9614 22.3047 18.4302 22.7851L19.3794 23.7344C19.8481 24.2265 20.5044 24.2969 21.0435 23.957L22.0395 23.3359C22.0864 23.3476 22.1216 23.3594 22.1685 23.3711L22.3911 24.5547C22.5083 25.164 23.0708 25.5508 23.7388 25.5508ZM24.0435 23.9922C23.9028 23.9922 23.8325 23.9219 23.7974 23.8047L23.3872 22.1172C22.9185 22.0117 22.4966 21.8476 22.0513 21.5547L20.5747 22.4804C20.481 22.539 20.3638 22.5273 20.27 22.4453L19.7427 21.8945C19.6372 21.789 19.6255 21.6953 19.6958 21.5898L20.5864 20.1484C20.4927 19.8672 20.1763 19.3633 20.0591 18.789L18.3833 18.4023C18.2661 18.3789 18.1958 18.2851 18.1958 18.168V17.3945C18.1958 17.2773 18.2661 17.1836 18.3833 17.1601L20.0591 16.7734C20.1763 16.1992 20.4927 15.707 20.5864 15.414L19.6958 13.9726C19.6255 13.8789 19.6372 13.7734 19.7427 13.668L20.27 13.1289C20.3638 13.0351 20.481 13.0234 20.5747 13.0937L22.0513 14.0078C22.4966 13.7265 22.9185 13.5508 23.3872 13.4453L23.7974 11.7578C23.8325 11.6406 23.9028 11.5703 24.0435 11.5703H24.77C24.9106 11.5703 24.981 11.6406 25.0161 11.7578L25.4263 13.4453C25.895 13.5508 26.3169 13.7265 26.7622 14.0078L28.2388 13.0937C28.3442 13.0234 28.4497 13.0351 28.5435 13.1289L29.0825 13.668C29.1763 13.7734 29.188 13.8789 29.1294 13.9726L28.2271 15.414C28.3325 15.707 28.6372 16.1992 28.7544 16.7734L30.4302 17.1601C30.5474 17.1836 30.6177 17.2773 30.6177 17.3945V18.168C30.6177 18.2851 30.5474 18.3789 30.4302 18.4023L28.7544 18.789C28.6372 19.3633 28.3325 19.8672 28.2271 20.1484L29.1294 21.5898C29.188 21.6953 29.1763 21.789 29.0825 21.8945L28.5435 22.4453C28.4497 22.5273 28.3442 22.539 28.2388 22.4804L26.7622 21.5547C26.3169 21.8476 25.895 22.0117 25.4263 22.1172L25.0161 23.8047C24.981 23.9219 24.9106 23.9922 24.77 23.9922H24.0435ZM24.4067 20.5351C25.9067 20.5351 27.1489 19.293 27.1489 17.7812C27.1489 16.2812 25.9067 15.0508 24.4067 15.0508C22.8833 15.0508 21.6528 16.2812 21.6528 17.7812C21.6528 19.2812 22.8833 20.5351 24.4067 20.5351ZM24.4067 19.0586C23.7036 19.0586 23.1411 18.4844 23.1411 17.7812C23.1411 17.0898 23.7036 16.539 24.4067 16.539C25.0747 16.539 25.6489 17.0898 25.6489 17.7812C25.6489 18.4726 25.0747 19.0586 24.4067 19.0586Z" fill="black" fill-opacity="0.85"/>
</g>
<defs>
<clipPath id="clip0_2207_9908">
<rect width="32.1562" height="25.4883" fill="white" transform="translate(0.00830078 0.0742188)"/>
</clipPath>
</defs>
</svg>
