<svg width="24" height="24" viewBox="0 0 24 24" fill="none" xmlns="http://www.w3.org/2000/svg">
<g clip-path="url(#clip0_2207_9903)">
<path d="M11.9699 23.9922C18.509 23.9922 23.923 18.5781 23.923 12.039C23.923 5.51172 18.4973 0.0859375 11.9582 0.0859375C5.43091 0.0859375 0.0168457 5.51172 0.0168457 12.039C0.0168457 18.5781 5.44263 23.9922 11.9699 23.9922Z" fill="black" fill-opacity="0.85"/>
<path d="M11.3371 19.1289C10.9973 19.1289 10.7395 18.918 10.6691 18.5664L10.3059 17.0781C10.048 16.9844 9.77856 16.8789 9.56762 16.7734L8.25512 17.5703C7.98559 17.7695 7.64575 17.7461 7.38793 17.5L6.53246 16.6328C6.27465 16.3867 6.2395 16.0351 6.45043 15.7422L7.23559 14.4414C7.1184 14.2187 7.02465 13.9726 6.94262 13.7148L5.44262 13.3633C5.09106 13.2812 4.90356 13.0351 4.90356 12.6836V11.4531C4.90356 11.1133 5.09106 10.8554 5.44262 10.7851L6.9309 10.4219C7.02465 10.1406 7.14184 9.8828 7.22387 9.68359L6.427 8.37109C6.2395 8.08983 6.25122 7.76172 6.50903 7.49219L7.38793 6.63671C7.64575 6.39062 7.93872 6.35546 8.2434 6.53124L9.5559 7.33984C9.77856 7.22266 10.048 7.11719 10.3059 7.02344L10.6691 5.53515C10.7395 5.18359 10.9973 4.98438 11.3371 4.98438H12.6027C12.9426 4.98438 13.2004 5.18359 13.2707 5.53515L13.634 7.03515C13.9035 7.1289 14.1613 7.2461 14.3723 7.33984L15.6965 6.53124C16.0129 6.35546 16.3059 6.40233 16.552 6.63671L17.4309 7.49219C17.6887 7.76172 17.7004 8.08983 17.5129 8.37109L16.716 9.68359C16.798 9.8828 16.9152 10.1406 17.009 10.4219L18.4973 10.7851C18.8488 10.8554 19.048 11.1133 19.048 11.4531V12.6836C19.048 13.0351 18.8488 13.2812 18.4973 13.3633L16.9973 13.7148C16.9152 13.9726 16.8215 14.2187 16.7043 14.4414L17.4895 15.7422C17.7004 16.0351 17.6652 16.3867 17.4074 16.6328L16.552 17.5C16.3059 17.7461 15.966 17.7695 15.6848 17.5703L14.3723 16.7734C14.1613 16.8789 13.8918 16.9844 13.634 17.0781L13.2707 18.5664C13.2004 18.918 12.9426 19.1289 12.6027 19.1289H11.3371ZM11.9699 14.4414C13.2824 14.4414 14.3606 13.3515 14.3606 12.039C14.3606 10.7383 13.2824 9.67188 11.9699 9.67188C10.6574 9.67188 9.57934 10.7383 9.57934 12.039C9.57934 13.3515 10.6574 14.4414 11.9699 14.4414Z" fill="white"/>
</g>
<defs>
<clipPath id="clip0_2207_9903">
<rect width="23.9062" height="23.918" fill="white" transform="translate(0.0168457 0.0742188)"/>
</clipPath>
</defs>
</svg>
