<svg width="28" height="23" viewBox="0 0 28 23" fill="none" xmlns="http://www.w3.org/2000/svg">
<g clip-path="url(#clip0_2207_21161)">
<path d="M1.07569 22.0469C1.66162 22.0469 2.14209 21.5664 2.14209 20.9922V12.1211H8.31788V20.9922C8.31788 21.5664 8.81006 22.0469 9.38428 22.0469C9.9585 22.0469 10.439 21.5664 10.439 20.9922V12.1211H16.6148V20.9922C16.6148 21.5664 17.1069 22.0469 17.6812 22.0469C18.2554 22.0469 18.7358 21.5664 18.7358 20.9922V12.1211H24.9116V20.9922C24.9116 21.5664 25.4038 22.0469 25.978 22.0469C26.5522 22.0469 27.0327 21.5664 27.0327 20.9922V11.0664C27.0327 10.4922 26.5522 10 25.978 10H18.7358V1.14063C18.7358 0.566407 18.2554 0.0742188 17.6812 0.0742188C17.1069 0.0742188 16.6148 0.566407 16.6148 1.14063V10H10.439V1.14063C10.439 0.566407 9.9585 0.0742188 9.38428 0.0742188C8.81006 0.0742188 8.31788 0.566407 8.31788 1.14063V10H2.14209V1.14063C2.14209 0.566407 1.66162 0.0742188 1.07569 0.0742188C0.501465 0.0742188 0.0209961 0.566407 0.0209961 1.14063V20.9922C0.0209961 21.5664 0.501465 22.0469 1.07569 22.0469Z" fill="black" fill-opacity="0.85"/>
</g>
<defs>
<clipPath id="clip0_2207_21161">
<rect width="27.0117" height="21.9961" fill="white" transform="translate(0.0209961 0.0742188)"/>
</clipPath>
</defs>
</svg>
