<svg width="26" height="26" viewBox="0 0 26 26" fill="none" xmlns="http://www.w3.org/2000/svg">
<g clip-path="url(#clip0_2207_9890)">
<path d="M11.3618 25.1289H13.729C14.6313 25.1289 15.3227 24.5781 15.5336 23.7109L16.0375 21.5195L16.4125 21.3906L18.3227 22.5625C19.0844 23.043 19.9633 22.9258 20.6079 22.2812L22.2485 20.6523C22.893 20.0078 23.0102 19.1172 22.5297 18.3672L21.3344 16.4687L21.4751 16.1172L23.6665 15.6015C24.5219 15.3906 25.0844 14.6875 25.0844 13.7969V11.4765C25.0844 10.5859 24.5336 9.88281 23.6665 9.67188L21.4985 9.14453L21.3461 8.76953L22.5415 6.8711C23.0219 6.1211 22.9047 5.24219 22.2602 4.58594L20.6196 2.94531C19.9868 2.3125 19.1079 2.19531 18.3461 2.66406L16.436 3.83594L16.0375 3.6836L15.5336 1.49219C15.3227 0.625 14.6313 0.0742188 13.729 0.0742188H11.3618C10.4594 0.0742188 9.76807 0.625 9.55713 1.49219L9.04151 3.6836L8.64307 3.83594L6.74463 2.66406C5.98291 2.19531 5.09229 2.3125 4.45947 2.94531L2.83057 4.58594C2.18604 5.24219 2.05713 6.1211 2.54932 6.8711L3.73291 8.76953L3.59229 9.14453L1.42432 9.67188C0.557129 9.88281 0.00634766 10.5859 0.00634766 11.4765V13.7969C0.00634766 14.6875 0.568848 15.3906 1.42432 15.6015L3.61573 16.1172L3.74463 16.4687L2.56104 18.3672C2.06885 19.1172 2.19776 20.0078 2.84229 20.6523L4.47119 22.2812C5.11573 22.9258 6.00635 23.043 6.76807 22.5625L8.66651 21.3906L9.04151 21.5195L9.55713 23.7109C9.76807 24.5781 10.4594 25.1289 11.3618 25.1289ZM11.5493 23.3008C11.3501 23.3008 11.2446 23.2187 11.2094 23.0312L10.5063 20.125C9.79151 19.9492 9.12354 19.668 8.61963 19.3515L6.06494 20.9219C5.92432 21.0273 5.77197 21.0039 5.63135 20.8633L4.24854 19.4804C4.11963 19.3515 4.10791 19.2109 4.20166 19.0469L5.77197 16.5156C5.50244 16.0234 5.19776 15.3554 5.01026 14.6406L2.10401 13.9492C1.91651 13.914 1.83447 13.8086 1.83447 13.6094V11.6523C1.83447 11.4414 1.90479 11.3476 2.10401 11.3125L4.99854 10.6094C5.18604 9.84766 5.5376 9.15625 5.74854 8.72266L4.18994 6.19141C4.08447 6.01563 4.09619 5.875 4.2251 5.73438L5.61963 4.375C5.76026 4.23438 5.88916 4.21094 6.06494 4.31641L8.59619 5.85156C9.1001 5.57031 9.81494 5.27734 10.518 5.07813L11.2094 2.17188C11.2446 1.98438 11.3501 1.90234 11.5493 1.90234H13.5415C13.7407 1.90234 13.8461 1.98438 13.8696 2.17188L14.5844 5.10156C15.311 5.28906 15.9438 5.58203 16.4711 5.86328L19.0141 4.31641C19.2016 4.21094 19.3188 4.23438 19.4711 4.375L20.854 5.73438C20.9946 5.875 20.9946 6.01563 20.8891 6.19141L19.3305 8.72266C19.5532 9.15625 19.893 9.84766 20.0805 10.6094L22.9868 11.3125C23.1743 11.3476 23.2563 11.4414 23.2563 11.6523V13.6094C23.2563 13.8086 23.1625 13.914 22.9868 13.9492L20.0688 14.6406C19.8813 15.3554 19.5883 16.0234 19.3071 16.5156L20.8774 19.0469C20.9711 19.2109 20.9711 19.3515 20.8305 19.4804L19.4594 20.8633C19.3071 21.0039 19.1665 21.0273 19.0141 20.9219L16.4594 19.3515C15.9555 19.668 15.2993 19.9492 14.5844 20.125L13.8696 23.0312C13.8461 23.2187 13.7407 23.3008 13.5415 23.3008H11.5493ZM12.5454 17.0781C14.9946 17.0781 17.0102 15.0625 17.0102 12.6015C17.0102 10.164 14.9946 8.14844 12.5454 8.14844C10.0961 8.14844 8.06885 10.164 8.06885 12.6015C8.06885 15.0508 10.0844 17.0781 12.5454 17.0781ZM12.5454 15.2617C11.0922 15.2617 9.89697 14.0664 9.89697 12.6015C9.89697 11.1601 11.0922 9.96484 12.5454 9.96484C13.9751 9.96484 15.1704 11.1601 15.1704 12.6015C15.1704 14.0547 13.9751 15.2617 12.5454 15.2617Z" fill="black" fill-opacity="0.85"/>
</g>
<defs>
<clipPath id="clip0_2207_9890">
<rect width="25.0781" height="25.0664" fill="white" transform="translate(0.00634766 0.0742188)"/>
</clipPath>
</defs>
</svg>
