<svg width="28" height="21" viewBox="0 0 28 21" fill="none" xmlns="http://www.w3.org/2000/svg">
<g clip-path="url(#clip0_2207_10156)">
<path d="M0.746338 9.89453V11.1836H11.9612C11.2698 12.6133 9.01977 14.7226 7.39087 14.8984C6.79321 14.957 6.45337 15.332 6.45337 15.8945C6.45337 16.4101 6.86352 16.8906 7.53149 16.7969C9.33618 16.5156 12.2307 14.418 13.0042 12.0039H13.0862V19.8437H14.5042V12.0039H14.5979C15.3713 14.418 18.2659 16.5156 20.0706 16.7969C20.7385 16.8906 21.1487 16.4101 21.1487 15.8945C21.1487 15.332 20.8088 14.957 20.1995 14.8984C18.5823 14.7226 16.3206 12.6133 15.6409 11.1836H26.7385V9.89453H18.4885C19.9768 9.22656 21.0081 8.00781 21.0081 6.53125C21.0081 4.82031 19.7542 3.56641 18.0667 3.56641C16.6018 3.56641 15.2776 4.49219 14.5042 5.99219V0.285157H13.0862V5.99219C12.3245 4.49219 11.0003 3.56641 9.52368 3.56641C7.8479 3.56641 6.58227 4.82031 6.58227 6.53125C6.58227 8.00781 7.62524 9.22656 9.1018 9.89453H0.746338ZM12.5237 9.71875C10.2151 9.71875 8.23461 8.13672 8.23461 6.66016C8.23461 5.76953 8.77368 5.23047 9.61743 5.23047C11.3518 5.23047 12.8753 7.16406 12.8753 9.39063V9.71875H12.5237ZM15.0667 9.71875H14.7151V9.39063C14.7151 7.16406 16.2385 5.23047 17.9729 5.23047C18.8284 5.23047 19.3557 5.76953 19.3557 6.66016C19.3557 8.13672 17.387 9.71875 15.0667 9.71875ZM3.71118 20.1015H23.8909C26.3518 20.1015 27.5706 18.8945 27.5706 16.4804V3.71875C27.5706 1.30469 26.3518 0.0859375 23.8909 0.0859375H3.71118C1.26196 0.0859375 0.0314941 1.30469 0.0314941 3.71875V16.4804C0.0314941 18.8945 1.26196 20.1015 3.71118 20.1015ZM3.73461 18.2148C2.56274 18.2148 1.91821 17.5937 1.91821 16.375V3.82422C1.91821 2.60547 2.56274 1.97266 3.73461 1.97266H23.8674C25.0159 1.97266 25.6838 2.60547 25.6838 3.82422V16.375C25.6838 17.5937 25.0159 18.2148 23.8674 18.2148H3.73461Z" fill="black" fill-opacity="0.85"/>
</g>
<defs>
<clipPath id="clip0_2207_10156">
<rect width="27.5391" height="20.0273" fill="white" transform="translate(0.0314941 0.0742188)"/>
</clipPath>
</defs>
</svg>
