<svg width="23" height="26" viewBox="0 0 23 26" fill="none" xmlns="http://www.w3.org/2000/svg">
<g clip-path="url(#clip0_2207_21818)">
<path d="M1.7052 21.6601C1.7052 23.6172 2.85364 24.6367 4.81067 24.6367H10.3185V14.1133H1.7052V21.6601ZM12.2403 24.6367H17.7599C19.7052 24.6367 20.8653 23.6172 20.8653 21.6601V14.1133H12.2403V24.6367ZM0.0294189 11.1133C0.0294189 12.3672 0.732544 12.8594 1.99817 12.8594H10.3185V6.51953H8.49036C6.65051 6.51953 5.57239 5.35938 5.57239 4.07031C5.57239 2.78125 6.50989 2.03125 7.79895 2.03125C9.19348 2.03125 10.3185 3.08594 10.3185 4.82031V6.51953H12.2403V4.82031C12.2403 3.08594 13.3653 2.03125 14.7599 2.03125C16.0489 2.03125 16.9864 2.78125 16.9864 4.07031C16.9864 5.35938 15.92 6.51953 14.0685 6.51953H12.2403V12.8594H20.5724C21.838 12.8594 22.5411 12.3672 22.5411 11.1133V8.26563C22.5411 7.01172 21.838 6.51953 20.5724 6.51953H17.8536C18.5333 5.875 18.9435 4.9961 18.9435 3.96484C18.9435 1.69141 17.1505 0.0742188 14.8771 0.0742188C13.2364 0.0742188 11.8771 0.976563 11.2794 2.54688C10.6817 0.976563 9.33411 0.0742188 7.68176 0.0742188C5.42004 0.0742188 3.61536 1.69141 3.61536 3.96484C3.61536 4.9961 4.02551 5.875 4.71692 6.51953H1.99817C0.791138 6.51953 0.0294189 7.01172 0.0294189 8.26563V11.1133Z" fill="black" fill-opacity="0.85"/>
</g>
<defs>
<clipPath id="clip0_2207_21818">
<rect width="22.5117" height="25.8867" fill="white" transform="translate(0.0294189 0.0742188)"/>
</clipPath>
</defs>
</svg>
