<svg width="23" height="27" viewBox="0 0 23 27" fill="none" xmlns="http://www.w3.org/2000/svg">
<g clip-path="url(#clip0_2207_21802)">
<path d="M5.89063 5.3711L7.22657 4.03516L3.5586 0.378907C3.19531 0.00390613 2.58594 0.00390613 2.22266 0.378907C1.85938 0.742188 1.85938 1.33984 2.22266 1.71484L5.89063 5.3711ZM20.9258 19.0586L19.6133 17.7109C17.75 19.5976 15.1602 20.7344 12.2656 20.7344C6.48828 20.7344 1.94141 16.1875 1.94141 10.4101C1.94141 7.52734 3.07813 4.9375 4.94141 3.08594L3.57031 1.79688C1.39063 3.98828 0.0546875 7.02344 0.0546875 10.4101C0.0546875 17.2187 5.45703 22.6211 12.2656 22.6211C15.6758 22.6211 18.7227 21.2617 20.9258 19.0586ZM18.5235 15.3437L17.1289 16.6094L21.2539 20.7344C21.6172 21.0976 22.2149 21.0976 22.5781 20.7344C22.9531 20.3711 22.9531 19.7617 22.5781 19.3984L18.5235 15.3437ZM11.3164 22.1289V25.2461H13.2031V22.1289H11.3164ZM8.0586 26.4531H16.4961C17.0117 26.4531 17.4336 26.0312 17.4336 25.5156C17.4336 25 17.0117 24.5664 16.4961 24.5664H8.0586C7.54297 24.5664 7.10938 25 7.10938 25.5156C7.10938 26.0312 7.54297 26.4531 8.0586 26.4531ZM12.2656 19.0234C17.0117 19.0234 20.8672 15.168 20.8672 10.4101C20.8672 5.66406 17.0117 1.8086 12.2656 1.8086C7.50781 1.8086 3.65235 5.66406 3.65235 10.4101C3.65235 15.168 7.50781 19.0234 12.2656 19.0234Z" fill="black" fill-opacity="0.85"/>
</g>
<defs>
<clipPath id="clip0_2207_21802">
<rect width="22.8047" height="26.3789" fill="white" transform="translate(0.0546875 0.0742188)"/>
</clipPath>
</defs>
</svg>
