<svg width="24" height="24" viewBox="0 0 24 24" fill="none" xmlns="http://www.w3.org/2000/svg">
<g clip-path="url(#clip0_2207_3786)">
<path d="M11.9887 23.3242C15.2465 23.3242 17.9067 18.5078 17.9067 12.0508C17.9067 5.5586 15.2583 0.742188 11.9887 0.742188C8.71923 0.742188 6.0708 5.5586 6.0708 12.0508C6.0708 18.5078 8.73096 23.3242 11.9887 23.3242ZM11.9887 2.16016C14.2856 2.16016 16.3364 6.73047 16.3364 12.0508C16.3364 17.2773 14.2856 21.8945 11.9887 21.8945C9.69189 21.8945 7.64111 17.2773 7.64111 12.0508C7.64111 6.73047 9.69189 2.16016 11.9887 2.16016ZM11.227 0.90625V23.1015H12.7622V0.90625H11.227ZM11.9887 16.4336C8.37939 16.4336 5.18017 17.3828 3.53955 18.8945L4.72314 19.8672C6.27002 18.6367 8.78955 17.9687 11.9887 17.9687C15.1879 17.9687 17.7075 18.6367 19.2544 19.8672L20.4379 18.8945C18.7973 17.3828 15.5981 16.4336 11.9887 16.4336ZM22.8051 11.2539H1.17236V12.789H22.8051V11.2539ZM11.9887 7.67969C15.5981 7.67969 18.7973 6.73047 20.4379 5.21875L19.2544 4.2461C17.7075 5.46484 15.1879 6.14453 11.9887 6.14453C8.78955 6.14453 6.27002 5.46484 4.72314 4.2461L3.53955 5.21875C5.18017 6.73047 8.37939 7.67969 11.9887 7.67969ZM11.9887 23.9804C18.5278 23.9804 23.9418 18.5547 23.9418 12.0273C23.9418 5.48828 18.5161 0.0742188 11.977 0.0742188C5.4497 0.0742188 0.0356445 5.48828 0.0356445 12.0273C0.0356445 18.5547 5.46142 23.9804 11.9887 23.9804ZM11.9887 22.3867C6.32861 22.3867 1.62939 17.6875 1.62939 12.0273C1.62939 6.36719 6.31689 1.66797 11.977 1.66797C17.6372 1.66797 22.3481 6.36719 22.3481 12.0273C22.3481 17.6875 17.6489 22.3867 11.9887 22.3867Z" fill="black" fill-opacity="0.85"/>
</g>
<defs>
<clipPath id="clip0_2207_3786">
<rect width="23.9062" height="23.918" fill="white" transform="translate(0.0356445 0.0742188)"/>
</clipPath>
</defs>
</svg>
