<svg width="24" height="24" viewBox="0 0 24 24" fill="none" xmlns="http://www.w3.org/2000/svg">
<g clip-path="url(#clip0_2207_3825)">
<path d="M12.5041 20.9219C14.6604 20.9219 16.5002 17.582 16.9807 16.7851C17.5783 15.8242 17.2971 14.8633 17.2971 14.2656C17.2971 13.8437 18.5393 12.9531 18.5393 11.9336C18.5393 10.9023 16.1369 10.082 16.1369 9.4961C16.1369 9.1211 16.4182 8.79297 16.7229 8.79297C17.2385 8.79297 18.5041 10.4219 19.219 10.4219C19.6877 10.4219 19.7229 10.0117 19.9807 10.0117C20.5783 10.0117 20.6721 13.375 22.5119 14.1719C23.0158 13.5859 23.3205 12.918 23.3205 12.0273C23.3205 5.92188 18.2463 0.707031 12.0002 0.71875C8.51978 0.730469 7.23072 2.06641 7.23072 3.23828C7.23072 4.77344 5.97681 5.125 5.97681 6.05078C5.97681 6.63672 6.38696 7.02344 7.01978 7.02344C8.37915 7.02344 8.36743 5.54688 9.05884 5.54688C9.57446 5.5586 10.0549 6.33203 10.9104 6.33203C11.2971 6.33203 11.4846 6.08594 11.508 5.73438C11.5315 5.58203 11.6018 5.51172 11.7424 5.51172C12.4924 5.51172 13.3244 6.35547 13.3244 6.8711C13.3244 7.36328 13.1369 7.73828 12.8322 7.73828C12.3049 7.73828 10.9924 7.11719 9.82056 7.11719C7.19556 7.11719 5.00415 8.98047 5.00415 11.207C5.00415 13.1406 6.14087 14.2656 8.13306 14.2656C9.34009 14.2656 10.2307 15.0859 10.2307 16.1992C10.2307 17.9336 10.0432 20.9219 12.5041 20.9219ZM15.4572 4.96094C15.0236 4.96094 14.8479 5.1836 14.4729 5.1836C14.1096 5.1836 13.84 4.92578 13.84 4.5625C13.84 4 14.4026 3.6836 15.3635 3.6836C16.1838 3.6836 16.8049 4.10547 16.8049 4.65625C16.8049 4.96094 16.6057 5.20703 16.3479 5.20703C15.926 5.20703 15.7033 4.96094 15.4572 4.96094ZM12.0119 23.9804C18.551 23.9804 23.965 18.5547 23.965 12.0273C23.965 5.48828 18.5393 0.0742188 12.0002 0.0742188C5.4729 0.0742188 0.0588379 5.48828 0.0588379 12.0273C0.0588379 18.5547 5.48462 23.9804 12.0119 23.9804ZM12.0119 22.3867C6.35181 22.3867 1.65259 17.6875 1.65259 12.0273C1.65259 6.36719 6.34009 1.66797 12.0002 1.66797C17.6604 1.66797 22.3713 6.36719 22.3713 12.0273C22.3713 17.6875 17.6721 22.3867 12.0119 22.3867Z" fill="black" fill-opacity="0.85"/>
</g>
<defs>
<clipPath id="clip0_2207_3825">
<rect width="23.9062" height="23.918" fill="white" transform="translate(0.0588379 0.0742188)"/>
</clipPath>
</defs>
</svg>
