<svg width="23" height="27" viewBox="0 0 23 27" fill="none" xmlns="http://www.w3.org/2000/svg">
<g clip-path="url(#clip0_2207_21798)">
<path d="M5.88843 5.3711L7.22437 4.03516L3.5564 0.378907C3.19311 0.00390613 2.58374 0.00390613 2.22046 0.378907C1.85718 0.742188 1.85718 1.33984 2.22046 1.71484L5.88843 5.3711ZM20.9236 19.0586L19.6111 17.7109C17.7478 19.5976 15.158 20.7344 12.2634 20.7344C6.48608 20.7344 1.93921 16.1875 1.93921 10.4101C1.93921 7.52734 3.07593 4.9375 4.93921 3.08594L3.56811 1.79688C1.38843 3.98828 0.0524902 7.02344 0.0524902 10.4101C0.0524902 17.2187 5.45483 22.6211 12.2634 22.6211C15.6736 22.6211 18.7205 21.2617 20.9236 19.0586ZM18.5213 15.3437L17.1267 16.6094L21.2517 20.7344C21.615 21.0976 22.2127 21.0976 22.5759 20.7344C22.9509 20.3711 22.9509 19.7617 22.5759 19.3984L18.5213 15.3437ZM11.3142 22.1289V25.2461H13.2009V22.1289H11.3142ZM8.0564 26.4531H16.4939C17.0095 26.4531 17.4314 26.0312 17.4314 25.5156C17.4314 25 17.0095 24.5664 16.4939 24.5664H8.0564C7.54077 24.5664 7.10718 25 7.10718 25.5156C7.10718 26.0312 7.54077 26.4531 8.0564 26.4531ZM12.2634 19.0234C17.0095 19.0234 20.865 15.168 20.865 10.4101C20.865 5.66406 17.0095 1.8086 12.2634 1.8086C7.50561 1.8086 3.65015 5.66406 3.65015 10.4101C3.65015 15.168 7.50561 19.0234 12.2634 19.0234ZM12.2634 17.2539C8.2439 17.2539 5.41968 14.4297 5.41968 10.4101C5.41968 6.39063 8.2439 3.57813 12.2634 3.57813C16.283 3.57813 19.0955 6.39063 19.0955 10.4101C19.0955 14.4297 16.283 17.2539 12.2634 17.2539Z" fill="black" fill-opacity="0.85"/>
</g>
<defs>
<clipPath id="clip0_2207_21798">
<rect width="22.8047" height="26.3789" fill="white" transform="translate(0.0524902 0.0742188)"/>
</clipPath>
</defs>
</svg>
