<svg width="24" height="24" viewBox="0 0 24 24" fill="none" xmlns="http://www.w3.org/2000/svg">
<g clip-path="url(#clip0_2207_3813)">
<path d="M12.4831 21.4023C14.1706 21.4023 18.4128 15.8008 18.4128 13.6445C18.4128 12.3437 15.7175 10.0117 14.2644 10.0117C13.5964 10.0117 12.6472 10.832 12.0612 10.832C11.5222 10.832 9.97534 9.60156 9.97534 9.15625C9.97534 8.98047 10.2566 8.75781 10.4792 8.75781C10.819 8.75781 12.0261 9.84766 12.7058 9.84766C13.6901 9.84766 14.3347 9.20313 14.3347 8.1836C14.3347 7.83203 14.194 7.49219 13.8894 7.0586C15.1901 6.40234 17.5339 5.11328 18.2605 3.50781L17.2058 2.95703C16.5847 4.4336 13.9714 5.66406 12.6237 6.36719C12.3659 6.4961 12.2253 6.78906 12.4597 7.11719C12.9401 7.78516 13.1511 8.07813 13.1511 8.33594C13.1511 8.52344 13.0105 8.66406 12.8112 8.66406C12.4245 8.66406 11.1472 7.57422 10.4792 7.57422C9.69409 7.57422 8.79175 8.40625 8.79175 9.15625C8.79175 10.2344 10.9597 12.0156 12.0612 12.0156C12.7175 12.0156 13.8894 11.1836 14.2644 11.1836C15.0378 11.1836 17.2292 13.0234 17.2292 13.6445C17.2292 15.0273 13.4675 20.2187 12.448 20.2187C12.1784 20.2187 11.8386 19.9609 11.8386 19.7383C11.8386 19.6094 11.8737 19.5156 12.0026 19.1054C12.1198 18.7304 12.2956 18.2148 12.2839 17.6523C12.2722 16.8906 11.6511 16.3515 10.28 15.3789C10.0339 15.2031 9.77612 15.0273 9.51831 14.8281C9.14331 14.5469 8.99096 14.3008 8.99096 14.0195C8.99096 13.8672 9.02612 13.7031 9.14331 13.3398C9.24878 12.9648 9.31909 12.6719 9.31909 12.4609C9.31909 11.9336 9.04956 11.582 8.48706 11.1015C8.40503 11.043 8.34643 10.9844 8.27612 10.9258L6.40112 9.25C4.05737 7.15234 4.06909 5.94531 5.01831 4.38672L3.86987 4.15234C2.89722 5.73438 2.76831 7.63281 5.61596 10.1406L7.47925 11.7812C7.91284 12.168 8.1355 12.3203 8.1355 12.4961C8.1355 12.7539 7.80737 13.3047 7.80737 14.0195C7.80737 14.6875 8.1355 15.2851 8.80346 15.7773C10.1745 16.8086 11.1003 17.3711 11.1003 17.6758C11.112 18.3906 10.655 18.9765 10.655 19.7851C10.655 20.5937 11.6276 21.4023 12.4831 21.4023ZM11.9909 23.9804C18.53 23.9804 23.944 18.5547 23.944 12.0273C23.944 5.48828 18.5183 0.0742188 11.9792 0.0742188C5.4519 0.0742188 0.0378418 5.48828 0.0378418 12.0273C0.0378418 18.5547 5.46362 23.9804 11.9909 23.9804ZM11.9909 22.3867C6.33081 22.3867 1.63159 17.6875 1.63159 12.0273C1.63159 6.36719 6.31909 1.66797 11.9792 1.66797C17.6394 1.66797 22.3503 6.36719 22.3503 12.0273C22.3503 17.6875 17.6511 22.3867 11.9909 22.3867Z" fill="black" fill-opacity="0.85"/>
</g>
<defs>
<clipPath id="clip0_2207_3813">
<rect width="23.9062" height="23.918" fill="white" transform="translate(0.0378418 0.0742188)"/>
</clipPath>
</defs>
</svg>
