<svg width="24" height="24" viewBox="0 0 24 24" fill="none" xmlns="http://www.w3.org/2000/svg">
<g clip-path="url(#clip0_2207_3841)">
<path d="M13.0699 19.293C14.0895 19.293 14.7106 18.3554 14.7106 16.1523C14.7106 14.3125 16.7379 12.6953 17.4996 12.6953C18.5543 12.6953 18.7887 16.082 22.234 16.2226C22.691 14.8515 23.0192 13.4336 22.9957 12.0273C22.8902 5.45313 17.4059 0.835938 11.9801 0.90625C9.84729 0.929688 7.7848 1.6211 5.93323 2.98047C6.58948 3.91797 6.71839 4 6.71839 4.35156C6.71839 4.78516 5.87463 4.92578 5.734 5.6875C5.64025 6.15625 5.31213 6.4961 4.91369 6.4961C4.46838 6.4961 3.859 6.03906 3.71838 4.87891C1.89025 6.64844 0.987915 9.17969 0.987915 12.0039C0.987915 13.9726 1.50354 15.9297 2.734 17.8281C4.64417 17.5 5.26525 16.75 5.26525 15.2851C5.26525 13.8437 6.40198 13.7969 6.40198 12.6133C6.40198 12.1094 5.89808 11.7344 4.92542 10.914L4.15198 10.2695C4.01136 10.1523 3.95275 10 3.95275 9.83594C3.95275 9.53125 4.17542 9.23828 4.51525 9.23828C4.73792 9.23828 4.87854 9.37891 5.46448 9.88281C6.2965 10.5859 6.68323 10.9258 7.15198 10.9258C7.64417 10.9258 7.8551 10.5976 8.18322 10.5976C8.45275 10.5976 8.61683 10.7617 8.734 11.0781L9.13245 12.1562C9.58948 13.4804 10.6559 13.3047 10.902 14.7226C11.4762 18.1914 11.9918 19.293 13.0699 19.293ZM12.0035 23.9804C18.5426 23.9804 23.9566 18.5547 23.9566 12.0273C23.9566 5.48828 18.5309 0.0742188 11.9918 0.0742188C5.46447 0.0742188 0.050415 5.48828 0.050415 12.0273C0.050415 18.5547 5.4762 23.9804 12.0035 23.9804ZM12.0035 22.3867C6.34339 22.3867 1.64417 17.6875 1.64417 12.0273C1.64417 6.36719 6.33166 1.66797 11.9918 1.66797C17.652 1.66797 22.3629 6.36719 22.3629 12.0273C22.3629 17.6875 17.6637 22.3867 12.0035 22.3867Z" fill="black" fill-opacity="0.85"/>
</g>
<defs>
<clipPath id="clip0_2207_3841">
<rect width="23.9062" height="23.918" fill="white" transform="translate(0.050415 0.0742188)"/>
</clipPath>
</defs>
</svg>
