<svg width="24" height="24" viewBox="0 0 24 24" fill="none" xmlns="http://www.w3.org/2000/svg">
<g clip-path="url(#clip0_2207_3817)">
<path d="M12.4618 20.8867C13.9618 20.8867 18.0633 15.4961 18.0633 13.4804C18.0633 12.3437 15.5321 10.1289 14.2079 10.1289C13.6337 10.1289 12.7079 10.9492 12.0399 10.9492C11.3719 10.9492 9.87195 9.63672 9.87195 9.0625C9.87195 8.73438 10.1532 8.54688 10.4813 8.54688C11.0555 8.54688 11.9579 9.50781 12.8719 9.50781C13.6337 9.50781 14.0438 8.98047 14.0438 8.21875C14.0438 7.82031 13.8211 7.42188 13.493 6.90625C14.7001 6.32031 17.1141 5.05469 17.8993 3.4375C17.0204 2.07813 14.6883 1.1875 11.9696 1.1875C7.95008 1.1875 3.98914 3.55469 3.63758 5.85156C3.50867 7.08203 4.44617 8.42969 6.0868 9.85938L7.79773 11.3476C8.3368 11.8281 8.6532 12.0508 8.6532 12.3554C8.6532 12.8594 8.0907 13.2109 8.0907 13.8554C8.0907 14.4414 8.37195 14.9453 8.98133 15.3906C10.8797 16.8203 11.3368 17.0195 11.3368 17.4531C11.3485 18.2265 10.8915 18.8125 10.8915 19.5273C10.8915 20.1719 11.7235 20.8867 12.4618 20.8867ZM11.993 23.9804C18.5321 23.9804 23.9461 18.5547 23.9461 12.0273C23.9461 5.48828 18.5204 0.0742188 11.9813 0.0742188C5.45398 0.0742188 0.039917 5.48828 0.039917 12.0273C0.039917 18.5547 5.4657 23.9804 11.993 23.9804ZM11.993 22.3867C6.33289 22.3867 1.63367 17.6875 1.63367 12.0273C1.63367 6.36719 6.32117 1.66797 11.9813 1.66797C17.6415 1.66797 22.3524 6.36719 22.3524 12.0273C22.3524 17.6875 17.6532 22.3867 11.993 22.3867Z" fill="black" fill-opacity="0.85"/>
</g>
<defs>
<clipPath id="clip0_2207_3817">
<rect width="23.9062" height="23.918" fill="white" transform="translate(0.039917 0.0742188)"/>
</clipPath>
</defs>
</svg>
