<svg width="24" height="24" viewBox="0 0 24 24" fill="none" xmlns="http://www.w3.org/2000/svg">
<g clip-path="url(#clip0_2207_3837)">
<path d="M2.6499 18.0273C4.43115 17.7461 5.43896 17.0898 5.43896 15.2851C5.43896 14.0195 6.57568 13.9258 6.57568 12.6133C6.57568 12.0273 6.01318 11.5586 5.02881 10.75L4.25537 10.1289C4.16162 10.0586 4.10303 9.94141 4.10303 9.83594C4.10303 9.61328 4.30225 9.41406 4.51318 9.41406C4.67725 9.41406 4.82959 9.56641 5.34522 10.0117C6.17725 10.7148 6.61084 11.1015 7.1499 11.1015C7.7124 11.1015 7.88818 10.7734 8.18115 10.7734C8.35693 10.7734 8.47412 10.8789 8.56787 11.1367L9.03662 12.4258C9.52881 13.8554 10.4428 13.7265 10.6069 14.7461C11.0991 18.1094 11.685 19.4687 13.0678 19.4687C14.4389 19.4687 14.8842 18.2148 14.8842 16.1523C14.8842 14.5469 16.7944 12.8711 17.4975 12.8711C18.3647 12.8711 18.7045 16.3398 22.3608 16.3984V15.2148C18.9272 15.168 19.7358 11.6875 17.4975 11.6875C16.1381 11.6875 13.7006 14.0078 13.7006 16.1523C13.7006 17.7344 13.56 18.2851 13.0678 18.2851C12.4585 18.2851 12.1421 17.0898 11.7671 14.5586C11.4975 12.8242 10.6303 13.2812 10.185 12.1094L9.52881 10.4336C9.271 9.74219 8.80225 9.48438 8.29834 9.48438C7.75928 9.48438 7.32568 9.88281 7.12646 9.88281C6.9624 9.88281 6.38818 9.36719 6.07178 9.08594C5.54443 8.61719 5.05225 8.23047 4.51318 8.23047C3.65772 8.23047 2.91943 9.0625 2.91943 9.8125C2.91943 10.9726 5.39209 12.0156 5.39209 12.7422C5.39209 13.6328 4.25537 13.5156 4.25537 15.25C4.25537 16.6445 3.49365 16.668 2.41553 16.8672L2.6499 18.0273ZM3.06006 5.26563C3.20068 6.36719 3.92725 7.23438 4.85303 7.23438C5.57959 7.23438 6.20068 6.75391 6.37646 6.02734C6.4585 5.72266 6.54053 5.59375 6.7749 5.45313C7.27881 5.17188 7.51318 4.85547 7.51318 4.30469C7.51318 3.73047 7.09131 3.14453 6.3999 2.41797L5.55615 3.22656C6.0835 3.80078 6.32959 3.96484 6.32959 4.25781C6.32959 4.65625 5.59131 4.60938 5.42725 5.45313C5.34522 5.86328 5.07568 6.05078 4.84131 6.05078C4.60693 6.05078 4.18506 5.76953 4.2085 5.10156L3.06006 5.26563ZM12.0014 23.9804C18.5405 23.9804 23.9545 18.5547 23.9545 12.0273C23.9545 5.48828 18.5288 0.0742188 11.9897 0.0742188C5.4624 0.0742188 0.0483398 5.48828 0.0483398 12.0273C0.0483398 18.5547 5.47412 23.9804 12.0014 23.9804ZM12.0014 22.3867C6.34131 22.3867 1.64209 17.6875 1.64209 12.0273C1.64209 6.36719 6.32959 1.66797 11.9897 1.66797C17.6499 1.66797 22.3608 6.36719 22.3608 12.0273C22.3608 17.6875 17.6616 22.3867 12.0014 22.3867Z" fill="black" fill-opacity="0.85"/>
</g>
<defs>
<clipPath id="clip0_2207_3837">
<rect width="23.9062" height="23.918" fill="white" transform="translate(0.0483398 0.0742188)"/>
</clipPath>
</defs>
</svg>
