<svg width="24" height="29" viewBox="0 0 24 29" fill="none" xmlns="http://www.w3.org/2000/svg">
<g clip-path="url(#clip0_2207_5645)">
<path d="M0.0712891 14.2996C0.0712891 20.8387 5.49707 26.2527 12.0244 26.2527C18.5635 26.2527 23.9775 20.8387 23.9775 14.2996C23.9775 8.53401 19.7705 3.64729 14.2861 2.56917V0.905105C14.2861 0.0730735 13.7119 -0.149582 13.0791 0.307449L9.34082 2.92073C8.80176 3.29573 8.79004 3.85823 9.34082 4.24495L13.0674 6.86995C13.7119 7.3387 14.2861 7.11604 14.2861 6.27229V4.60823C18.7158 5.61604 21.9736 9.55354 21.9736 14.2996C21.9736 19.8309 17.5557 24.2606 12.0244 24.2606C6.49317 24.2606 2.05176 19.8309 2.06348 14.2996C2.0752 10.9715 3.69238 8.03011 6.18848 6.24886C6.66895 5.88557 6.82129 5.33479 6.52832 4.84261C6.23535 4.36214 5.59082 4.23323 5.0752 4.63167C2.06348 6.82307 0.0712891 10.3621 0.0712891 14.2996Z" fill="black" fill-opacity="0.85"/>
<path d="M9.3877 19.1161C9.79785 19.1161 10.1611 18.8817 10.1611 18.3192V17.2411H10.6299C11.0869 17.2411 11.2861 16.9482 11.2861 16.5966C11.2861 16.2099 11.0635 15.9403 10.6299 15.9403H10.1611V11.1357C10.1611 10.3622 9.64551 9.95203 8.88379 9.95203C8.12207 9.95203 7.73535 10.3622 7.38379 11.0419C6.69238 12.2489 5.67285 14.1239 5.13379 15.2372C4.96973 15.6005 4.84082 15.9755 4.84082 16.3739C4.84082 16.8896 5.21582 17.2411 5.7666 17.2411H8.62598V18.3192C8.62598 18.87 8.98926 19.1161 9.3877 19.1161ZM8.64941 15.9872H6.23535V15.9052C6.86817 14.4872 7.84082 12.6825 8.60254 11.3232H8.64941V15.9872ZM15.5166 19.2099C17.3447 19.2099 18.4815 17.8505 18.4815 16.0224C18.4815 14.4521 17.5908 13.1044 16.044 13.1044C15.2588 13.1044 14.6143 13.456 14.2861 14.0653H14.2393L14.4502 11.3935H17.4385C17.8252 11.3935 18.083 11.1357 18.083 10.7372C18.083 10.3388 17.8252 10.081 17.4385 10.081H14.0283C13.419 10.081 13.1377 10.3974 13.1025 11.0185L12.8447 14.4286C12.8096 14.9442 13.0791 15.331 13.5947 15.331C13.9815 15.331 14.1455 15.1903 14.3799 14.9091C14.6611 14.5341 15.0596 14.2997 15.5283 14.2997C16.4424 14.2997 16.9111 15.1317 16.9111 16.0575C16.9111 17.0653 16.4072 17.8857 15.5049 17.8857C14.8135 17.8857 14.3447 17.4403 14.1104 16.831C13.9463 16.5028 13.7119 16.3388 13.4072 16.3388C12.9971 16.3388 12.7393 16.5966 12.7393 17.0185C12.7393 17.1474 12.751 17.288 12.7979 17.4286C13.0908 18.5419 14.3799 19.2099 15.5166 19.2099Z" fill="black" fill-opacity="0.85"/>
</g>
<defs>
<clipPath id="clip0_2207_5645">
<rect width="23.9062" height="28.4626" fill="white" transform="translate(0.0712891 0.0742188)"/>
</clipPath>
</defs>
</svg>
