<svg width="24" height="29" viewBox="0 0 24 29" fill="none" xmlns="http://www.w3.org/2000/svg">
<g clip-path="url(#clip0_2207_5675)">
<path d="M0.079834 14.2996C0.079834 20.8387 5.50561 26.2527 12.0329 26.2527C18.572 26.2527 23.986 20.8387 23.986 14.2996C23.986 8.53401 19.779 3.64729 14.2946 2.56917V0.905105C14.2946 0.0730735 13.7204 -0.149582 13.0876 0.307449L9.34936 2.92073C8.8103 3.29573 8.79858 3.85823 9.34936 4.24495L13.0759 6.86995C13.7204 7.3387 14.2946 7.11604 14.2946 6.27229V4.60823C18.7243 5.61604 21.9821 9.55354 21.9821 14.2996C21.9821 19.8309 17.5642 24.2606 12.0329 24.2606C6.50171 24.2606 2.0603 19.8309 2.07202 14.2996C2.08374 10.9715 3.70092 8.03011 6.19702 6.24886C6.67749 5.88557 6.82983 5.33479 6.53686 4.84261C6.24389 4.36214 5.59936 4.23323 5.08374 4.63167C2.07202 6.82307 0.079834 10.3621 0.079834 14.2996Z" fill="black" fill-opacity="0.85"/>
<path d="M8.27124 19.1864C10.7439 19.1864 11.5173 16.7958 11.5173 14.4169C11.5173 12.0732 10.6032 9.84656 8.31811 9.84656C6.58374 9.84656 5.37671 11.1708 5.37671 12.9872C5.37671 14.5692 6.32592 15.9052 7.8728 15.9052C8.95092 15.9052 9.70092 15.2372 9.95874 14.3583H9.97045C9.97045 14.3817 9.97045 14.4286 9.97045 14.4638C9.98217 15.9052 9.70092 17.8739 8.32983 17.8739C7.72045 17.8739 7.35717 17.5575 7.07592 17.0536C6.90014 16.7255 6.70092 16.5614 6.33764 16.5614C5.89233 16.5614 5.65795 16.8661 5.65795 17.2411C5.65795 17.5927 5.88061 17.9911 6.16186 18.2724C6.64233 18.8466 7.41577 19.1864 8.27124 19.1864ZM8.32983 14.663C7.43921 14.663 6.95874 13.8192 6.95874 12.9286C6.95874 12.038 7.45092 11.1708 8.35327 11.1708C9.23217 11.1708 9.75952 12.0497 9.75952 12.9638C9.75952 13.8778 9.20874 14.663 8.32983 14.663ZM16.0407 19.1864C18.3493 19.1864 19.1579 16.8192 19.1579 14.5107C19.1579 12.2021 18.3493 9.84656 16.0407 9.84656C13.7321 9.84656 12.9236 12.2138 12.9236 14.5107C12.9236 16.8427 13.7439 19.1864 16.0407 19.1864ZM16.0407 17.8622C15.0681 17.8622 14.5642 16.4208 14.5642 14.5107C14.5642 12.6122 15.0681 11.1825 16.0407 11.1825C17.0134 11.1825 17.5173 12.6122 17.5173 14.5107C17.5173 16.4208 17.0251 17.8622 16.0407 17.8622Z" fill="black" fill-opacity="0.85"/>
</g>
<defs>
<clipPath id="clip0_2207_5675">
<rect width="23.9062" height="28.4626" fill="white" transform="translate(0.079834 0.0742188)"/>
</clipPath>
</defs>
</svg>
