<svg width="24" height="29" viewBox="0 0 24 29" fill="none" xmlns="http://www.w3.org/2000/svg">
<g clip-path="url(#clip0_2207_5635)">
<path d="M0.0693359 14.2996C0.0693359 20.8387 5.49512 26.2527 12.0224 26.2527C18.5615 26.2527 23.9755 20.8387 23.9755 14.2996C23.9755 8.53401 19.7685 3.64729 14.2841 2.56917V0.905105C14.2841 0.0730735 13.7099 -0.149582 13.0771 0.307449L9.33887 2.92073C8.79981 3.29573 8.78809 3.85823 9.33887 4.24495L13.0654 6.86995C13.7099 7.3387 14.2841 7.11604 14.2841 6.27229V4.60823C18.7138 5.61604 21.9716 9.55354 21.9716 14.2996C21.9716 19.8309 17.5537 24.2606 12.0224 24.2606C6.49122 24.2606 2.04981 19.8309 2.06153 14.2996C2.07325 10.9715 3.69043 8.03011 6.18653 6.24886C6.667 5.88557 6.81934 5.33479 6.52637 4.84261C6.2334 4.36214 5.58887 4.23323 5.07325 4.63167C2.06153 6.82307 0.0693359 10.3621 0.0693359 14.2996Z" fill="black" fill-opacity="0.85"/>
<path d="M8.33106 19.1864C10.0537 19.1864 11.4248 18.1903 11.4248 16.5263C11.4248 15.1786 10.5341 14.4755 9.45606 14.37V14.3466C10.499 14.1122 11.1201 13.2802 11.1201 12.2607C11.1201 10.7372 9.86622 9.88172 8.2959 9.88172C6.9834 9.88172 5.8584 10.62 5.60059 11.6747C5.56543 11.8036 5.542 11.956 5.542 12.0966C5.542 12.4599 5.74122 12.7646 6.22168 12.7646C6.62012 12.7646 6.83106 12.6005 6.95996 12.2255C7.18262 11.5224 7.62793 11.1708 8.30762 11.1708C9.09278 11.1708 9.57325 11.6747 9.57325 12.4599C9.57325 13.3153 8.98731 13.8192 8.12012 13.8192H7.78028C7.38184 13.8192 7.14746 14.0536 7.14746 14.4169C7.14746 14.8036 7.39356 15.0146 7.78028 15.0146H8.14356C9.09278 15.0146 9.78418 15.4247 9.78418 16.456C9.78418 17.288 9.19825 17.8622 8.34278 17.8622C7.52246 17.8622 7.042 17.4403 6.83106 16.7958C6.67872 16.4794 6.4209 16.2802 6.1045 16.2802C5.65918 16.2802 5.37793 16.5497 5.37793 16.9833C5.37793 17.1239 5.40137 17.2646 5.43653 17.4052C5.7295 18.5888 7.08887 19.1864 8.33106 19.1864ZM15.8427 19.1864C18.1396 19.1864 18.9599 16.831 18.9599 14.5107C18.9599 12.2021 18.1396 9.84656 15.8427 9.84656C13.5224 9.84656 12.7138 12.2138 12.7138 14.5107C12.7138 16.8427 13.5341 19.1864 15.8427 19.1864ZM15.8427 17.8622C14.8584 17.8622 14.3662 16.4208 14.3662 14.5107C14.3662 12.6122 14.8584 11.1825 15.8427 11.1825C16.8154 11.1825 17.3076 12.6122 17.3076 14.5107C17.3076 16.4208 16.8154 17.8622 15.8427 17.8622Z" fill="black" fill-opacity="0.85"/>
</g>
<defs>
<clipPath id="clip0_2207_5635">
<rect width="23.9062" height="28.4626" fill="white" transform="translate(0.0693359 0.0742188)"/>
</clipPath>
</defs>
</svg>
