<svg width="24" height="29" viewBox="0 0 24 29" fill="none" xmlns="http://www.w3.org/2000/svg">
<g clip-path="url(#clip0_2207_5610)">
<path d="M0.0861816 14.2958C0.0861816 20.8349 5.51196 26.249 12.0393 26.249C18.5784 26.249 23.9924 20.8349 23.9924 14.2958C23.9924 10.3583 22.0003 6.81929 18.9885 4.62788C18.4729 4.22944 17.8284 4.35835 17.5354 4.83882C17.2424 5.331 17.3948 5.88179 17.8753 6.24507C20.3714 8.02632 21.9885 10.9677 22.0003 14.2958C22.012 19.8271 17.5706 24.2568 12.0393 24.2568C6.50806 24.2568 2.09009 19.8271 2.09009 14.2958C2.09009 9.54975 5.3479 5.61225 9.77759 4.60444V6.28022C9.77759 7.11225 10.3518 7.33491 10.9964 6.87788L14.7346 4.25288C15.262 3.8896 15.2737 3.3271 14.7346 2.94038L11.0081 0.315379C10.3518 -0.153371 9.77759 0.0692844 9.77759 0.913034V2.56538C4.29321 3.6435 0.0861816 8.53022 0.0861816 14.2958Z" fill="black" fill-opacity="0.85"/>
<path d="M8.9104 19.1123C9.42602 19.1123 9.73071 18.7491 9.73071 18.2451V10.8389C9.73071 10.2647 9.36743 9.9248 8.79321 9.9248C8.32446 9.9248 7.98462 10.1358 7.62134 10.417L6.29712 11.4014C6.06274 11.5655 5.92212 11.7647 5.92212 12.0459C5.92212 12.3858 6.16821 12.6436 6.49634 12.6436C6.67212 12.6436 6.7893 12.5967 6.91821 12.4912L8.07837 11.6241H8.1018V18.2451C8.1018 18.7491 8.40649 19.1123 8.9104 19.1123ZM14.8284 19.1826C17.137 19.1826 17.9456 16.8155 17.9456 14.5069C17.9456 12.1983 17.137 9.84277 14.8284 9.84277C12.5081 9.84277 11.7112 12.21 11.7112 14.5069C11.7112 16.8272 12.5315 19.1826 14.8284 19.1826ZM14.8284 17.8584C13.8557 17.8584 13.3635 16.417 13.3635 14.5069C13.3635 12.6084 13.8557 11.1787 14.8284 11.1787C15.8128 11.1787 16.2932 12.6201 16.2932 14.5069C16.2932 16.417 15.8128 17.8584 14.8284 17.8584Z" fill="black" fill-opacity="0.85"/>
</g>
<defs>
<clipPath id="clip0_2207_5610">
<rect width="23.9062" height="28.455" fill="white" transform="translate(0.0861816 0.0742188)"/>
</clipPath>
</defs>
</svg>
