<svg width="24" height="29" viewBox="0 0 24 29" fill="none" xmlns="http://www.w3.org/2000/svg">
<g clip-path="url(#clip0_2207_5670)">
<path d="M0 14.2973C0 20.8364 5.42578 26.2505 11.9531 26.2505C18.4922 26.2505 23.9062 20.8364 23.9062 14.2973C23.9062 10.3598 21.9141 6.82075 18.9023 4.62934C18.3867 4.2309 17.7422 4.35981 17.4492 4.84028C17.1562 5.33246 17.3086 5.88325 17.7891 6.24653C20.2852 8.02778 21.9023 10.9692 21.9141 14.2973C21.9258 19.8286 17.4844 24.2583 11.9531 24.2583C6.42188 24.2583 2.00391 19.8286 2.00391 14.2973C2.00391 9.55121 5.26172 5.61371 9.69141 4.6059V6.28168C9.69141 7.11371 10.2656 7.33637 10.9102 6.87934L14.6484 4.25434C15.1758 3.89106 15.1875 3.32856 14.6484 2.94184L10.9219 0.316843C10.2656 -0.151907 9.69141 0.0707492 9.69141 0.914499V2.56684C4.20703 3.64496 0 8.53168 0 14.2973Z" fill="black" fill-opacity="0.85"/>
<path d="M8.13281 19.184C10.6055 19.184 11.3789 16.7934 11.3789 14.4145C11.3789 12.0708 10.4648 9.84424 8.17969 9.84424C6.44531 9.84424 5.23828 11.1684 5.23828 12.9848C5.23828 14.5669 6.1875 15.9028 7.73438 15.9028C8.8125 15.9028 9.5625 15.2348 9.82031 14.3559H9.83203C9.83203 14.3794 9.83203 14.4262 9.83203 14.4614C9.84375 15.9028 9.5625 17.8715 8.19141 17.8715C7.58203 17.8715 7.21875 17.5551 6.9375 17.0512C6.76172 16.7231 6.5625 16.559 6.19922 16.559C5.75391 16.559 5.51953 16.8637 5.51953 17.2387C5.51953 17.5903 5.74219 17.9887 6.02344 18.27C6.50391 18.8442 7.27734 19.184 8.13281 19.184ZM8.19141 14.6606C7.30078 14.6606 6.82031 13.8169 6.82031 12.9262C6.82031 12.0356 7.3125 11.1684 8.21484 11.1684C9.09375 11.1684 9.62109 12.0473 9.62109 12.9614C9.62109 13.8755 9.07031 14.6606 8.19141 14.6606ZM15.9023 19.184C18.2109 19.184 19.0195 16.8169 19.0195 14.5083C19.0195 12.1997 18.2109 9.84424 15.9023 9.84424C13.5938 9.84424 12.7852 12.2114 12.7852 14.5083C12.7852 16.8403 13.6055 19.184 15.9023 19.184ZM15.9023 17.8598C14.9297 17.8598 14.4258 16.4184 14.4258 14.5083C14.4258 12.6098 14.9297 11.1801 15.9023 11.1801C16.875 11.1801 17.3789 12.6098 17.3789 14.5083C17.3789 16.4184 16.8867 17.8598 15.9023 17.8598Z" fill="black" fill-opacity="0.85"/>
</g>
<defs>
<clipPath id="clip0_2207_5670">
<rect width="23.9062" height="28.455" fill="white" transform="translate(0 0.0756836)"/>
</clipPath>
</defs>
</svg>
