<svg width="25" height="29" viewBox="0 0 25 29" fill="none" xmlns="http://www.w3.org/2000/svg">
<g clip-path="url(#clip0_2207_5660)">
<path d="M0.0986328 14.2958C0.0986328 20.8349 5.52441 26.249 12.0517 26.249C18.5908 26.249 24.0048 20.8349 24.0048 14.2958C24.0048 10.3583 22.0127 6.81929 19.0009 4.62788C18.4853 4.22944 17.8408 4.35835 17.5478 4.83882C17.2548 5.331 17.4072 5.88179 17.8877 6.24507C20.3838 8.02632 22.0009 10.9677 22.0127 14.2958C22.0244 19.8271 17.583 24.2568 12.0517 24.2568C6.52051 24.2568 2.10254 19.8271 2.10254 14.2958C2.10254 9.54975 5.36035 5.61225 9.79004 4.60444V6.28022C9.79004 7.11225 10.3642 7.33491 11.0088 6.87788L14.747 4.25288C15.2744 3.8896 15.2861 3.3271 14.747 2.94038L11.0205 0.315379C10.3642 -0.153371 9.79004 0.0692844 9.79004 0.913034V2.56538C4.30566 3.6435 0.0986328 8.53022 0.0986328 14.2958Z" fill="black" fill-opacity="0.85"/>
<path d="M7.15333 19.1122C7.52833 19.1122 7.72755 18.9365 7.87989 18.5849L10.7509 11.8818C10.8798 11.5771 10.9853 11.2724 10.9853 10.9443C10.9853 10.3583 10.5752 10.0771 10.083 10.0771H6.06348C5.67676 10.0771 5.40723 10.3466 5.40723 10.7333C5.40723 11.12 5.67676 11.3779 6.06348 11.3779H9.36817V11.4482L6.53223 17.8232C6.4502 18.0341 6.39161 18.2099 6.39161 18.4325C6.39161 18.8427 6.70802 19.1122 7.15333 19.1122ZM15.1572 19.206C16.9853 19.206 18.122 17.8466 18.122 16.0185C18.122 14.4482 17.2314 13.1005 15.6963 13.1005C14.8994 13.1005 14.2548 13.4521 13.9267 14.0615H13.8798L14.0908 11.3896H17.0791C17.4658 11.3896 17.7236 11.1318 17.7236 10.7333C17.7236 10.3349 17.4775 10.0771 17.0791 10.0771H13.6806C13.0713 10.0771 12.79 10.3935 12.7431 11.0146L12.497 14.4247C12.4502 14.9404 12.7314 15.3271 13.247 15.3271C13.622 15.3271 13.7861 15.1865 14.0205 14.9052C14.3017 14.5302 14.7002 14.2958 15.1806 14.2958C16.083 14.2958 16.5634 15.1279 16.5634 16.0536C16.5634 17.0615 16.0478 17.8818 15.1572 17.8818C14.4541 17.8818 13.9853 17.4365 13.7627 16.8271C13.5986 16.499 13.3642 16.3349 13.0595 16.3349C12.6377 16.3349 12.3798 16.5927 12.3798 17.0146C12.3798 17.1435 12.4033 17.2841 12.4384 17.4247C12.7314 18.538 14.0322 19.206 15.1572 19.206Z" fill="black" fill-opacity="0.85"/>
</g>
<defs>
<clipPath id="clip0_2207_5660">
<rect width="23.9062" height="28.455" fill="white" transform="translate(0.0986328 0.0742188)"/>
</clipPath>
</defs>
</svg>
