<svg width="24" height="24" viewBox="0 0 24 24" fill="none" xmlns="http://www.w3.org/2000/svg">
<g clip-path="url(#clip0_2207_1685)">
<path d="M11.9594 23.9819C18.4985 23.9819 23.9125 18.5562 23.9125 12.0288C23.9125 5.48974 18.4868 0.0756836 11.9477 0.0756836C5.42041 0.0756836 0.00634766 5.48974 0.00634766 12.0288C0.00634766 18.5562 5.43213 23.9819 11.9594 23.9819ZM11.9594 21.9898C6.42823 21.9898 2.01026 17.5601 2.01026 12.0288C2.01026 6.49756 6.41651 2.06787 11.9477 2.06787C17.479 2.06787 21.9204 6.49756 21.9204 12.0288C21.9204 17.5601 17.4907 21.9898 11.9594 21.9898Z" fill="black" fill-opacity="0.85"/>
<path d="M18.8032 9.31006L13.4125 6.86084C12.8618 6.61474 12.4047 6.48584 11.9477 6.49756C11.4907 6.48584 11.0454 6.61474 10.4829 6.86084L5.10401 9.31006C4.75244 9.47412 4.57666 9.76709 4.57666 10.0366C4.57666 10.3179 4.75244 10.5874 5.10401 10.7515L7.34229 11.771L10.7994 10.1655C10.7759 10.1187 10.7642 10.0835 10.7642 10.0366C10.7642 9.66162 11.3735 9.4038 11.9711 9.4038C12.5689 9.4038 13.1665 9.66162 13.1665 10.0366C13.1665 10.4234 12.5689 10.6929 11.9711 10.6929C11.7836 10.6929 11.608 10.6695 11.4439 10.6226L8.17432 12.1577L10.4829 13.2124C11.0454 13.4819 11.4907 13.5874 11.9477 13.5757C12.4047 13.5874 12.8618 13.4819 13.4125 13.2124L18.8032 10.7515C19.1547 10.5874 19.3188 10.3179 19.3188 10.0366C19.3188 9.76709 19.1547 9.47412 18.8032 9.31006ZM11.9477 17.1851C15.1938 17.1851 17.2563 15.7905 17.2563 14.1616V12.3101L13.729 13.9273C13.0844 14.2202 12.4985 14.3726 11.9477 14.3491C11.3969 14.3726 10.8111 14.2202 10.1666 13.9273L8.13916 13.0015V16.2945C9.06494 16.8452 10.3657 17.1851 11.9477 17.1851ZM6.63916 12.3101V14.1616C6.63916 14.6304 6.90869 15.2046 7.36573 15.6968V12.6382L6.63916 12.3101ZM7.36573 17.3609H8.13916V16.2945C7.84619 16.1187 7.6001 15.9195 7.36573 15.6968V17.3609ZM6.97901 17.3491V18.5327C6.97901 18.9546 7.24854 19.2359 7.68213 19.2359H7.82276C8.25635 19.2359 8.5376 18.9546 8.5376 18.5327V17.3491C8.5376 16.9155 8.25635 16.646 7.82276 16.646H7.68213C7.24854 16.646 6.97901 16.9155 6.97901 17.3491Z" fill="black" fill-opacity="0.85"/>
</g>
<defs>
<clipPath id="clip0_2207_1685">
<rect width="23.9062" height="23.918" fill="white" transform="translate(0.00634766 0.0756836)"/>
</clipPath>
</defs>
</svg>
