<svg width="24" height="24" viewBox="0 0 24 24" fill="none" xmlns="http://www.w3.org/2000/svg">
<g clip-path="url(#clip0_2207_22982)">
<path d="M11.9699 23.9819C18.509 23.9819 23.923 18.5562 23.923 12.0288C23.923 5.48974 18.4973 0.0756836 11.9582 0.0756836C5.43091 0.0756836 0.0168457 5.48974 0.0168457 12.0288C0.0168457 18.5562 5.44263 23.9819 11.9699 23.9819Z" fill="black" fill-opacity="0.85"/>
<path d="M8.84107 16.9859C8.26685 16.9859 7.83326 16.564 7.83326 16.0132C7.83326 15.5445 8.04419 15.2749 8.5481 15.0405L14.6652 12.0288V11.9585L8.5481 8.87646C8.05591 8.64209 7.83326 8.34912 7.83326 7.89209C7.83326 7.35302 8.25513 6.93115 8.81763 6.93115C9.08716 6.93115 9.23951 6.98974 9.42701 7.08349L16.634 10.9624C17.1145 11.2319 17.3606 11.5718 17.3606 12.0288C17.3606 12.5327 17.1379 12.8374 16.634 13.0952L9.42701 16.8452C9.25123 16.9273 9.08716 16.9859 8.84107 16.9859Z" fill="white"/>
</g>
<defs>
<clipPath id="clip0_2207_22982">
<rect width="23.9062" height="23.918" fill="white" transform="translate(0.0168457 0.0756836)"/>
</clipPath>
</defs>
</svg>
