<svg width="17" height="16" viewBox="0 0 17 16" fill="none" xmlns="http://www.w3.org/2000/svg">
<g clip-path="url(#clip0_2207_22973)">
<path d="M1.00879 15.6499C1.33692 15.6499 1.55958 15.5445 1.79395 15.4273L14.9658 9.50927C15.6455 9.19287 16.1611 8.67724 16.1611 7.92724C16.1611 7.18896 15.6455 6.6499 14.9658 6.34521L1.79395 0.286622C1.57129 0.169434 1.36036 0.0874023 1.05567 0.0874023C0.43457 0.0874023 0.0126953 0.509278 0.0126953 1.13037C0.0126953 1.66943 0.293945 1.97412 0.786133 2.20849L13.3955 7.7749V7.9038L0.786133 13.5171C0.293945 13.7515 0.0126953 14.0562 0.0126953 14.5952C0.0126953 15.2398 0.422851 15.6499 1.00879 15.6499Z" fill="black" fill-opacity="0.85"/>
</g>
<defs>
<clipPath id="clip0_2207_22973">
<rect width="16.1484" height="15.5742" fill="white" transform="translate(0.0126953 0.0756836)"/>
</clipPath>
</defs>
</svg>
