<svg width="19" height="27" viewBox="0 0 19 27" fill="none" xmlns="http://www.w3.org/2000/svg">
<g clip-path="url(#clip0_2207_1599)">
<path d="M2.23999 23.8227L15.0603 26.0844C17.3571 26.4946 18.7517 25.2055 18.7517 22.6977V8.55313C18.7517 6.25626 17.5798 5.42423 15.2946 5.01407L2.84937 2.82266C1.13843 2.5297 0.0251465 3.45548 0.0251465 5.13126V21.268C0.0251465 22.7094 0.763427 23.5649 2.23999 23.8227ZM3.04859 9.80704V7.33438C3.04859 6.47891 3.58765 6.0922 4.47827 6.24454L6.99781 6.68985C7.88843 6.85391 7.67749 8.35391 6.6814 8.17813L5.13453 7.89688C4.77124 7.83829 4.58374 7.97891 4.58374 8.29532V9.86563C4.58374 10.7914 3.04859 10.7914 3.04859 9.80704ZM14.0993 11.7172V10.2289C14.0993 9.87735 13.9939 9.45548 13.3024 9.33829L12.3298 9.16251C11.2634 8.97501 11.5212 7.48673 12.5876 7.67423L13.8063 7.88516C15.1071 8.11954 15.6345 8.67032 15.6345 9.76016V11.7172C15.6345 12.7954 14.0993 12.7016 14.0993 11.7172ZM4.58374 17.2719V18.7602C4.58374 19.1118 4.68921 19.5336 5.38062 19.6508L6.35327 19.8266C7.41968 20.0024 7.16187 21.5024 6.09546 21.3149L4.87671 21.1039C3.57593 20.8696 3.04859 20.3188 3.04859 19.2289V17.2719C3.04859 16.1938 4.58374 16.2875 4.58374 17.2719ZM15.6345 19.1821V21.6547C15.6345 22.5102 15.0954 22.8969 14.2048 22.7446L11.697 22.2993C10.8063 22.1352 11.0056 20.6352 12.0017 20.811L13.5485 21.0922C13.9118 21.1508 14.0993 21.0102 14.0993 20.6938V19.1235C14.0993 18.1977 15.6345 18.1977 15.6345 19.1821ZM5.43921 1.66251L15.5759 3.44376C16.572 3.61954 17.404 3.90079 18.0837 4.26407V3.36173C18.0837 0.889074 16.4313 -0.282801 13.654 0.209386L5.43921 1.66251Z" fill="black" fill-opacity="0.85"/>
</g>
<defs>
<clipPath id="clip0_2207_1599">
<rect width="18.7266" height="26.0838" fill="white" transform="translate(0.0251465 0.0756836)"/>
</clipPath>
</defs>
</svg>
