<svg width="24" height="24" viewBox="0 0 24 24" fill="none" xmlns="http://www.w3.org/2000/svg">
<g clip-path="url(#clip0_2207_22029)">
<path d="M11.9825 23.9819C18.5216 23.9819 23.9356 18.5562 23.9356 12.0288C23.9356 5.48974 18.5099 0.0756836 11.9708 0.0756836C5.44348 0.0756836 0.0294189 5.48974 0.0294189 12.0288C0.0294189 18.5562 5.4552 23.9819 11.9825 23.9819ZM11.9825 21.9898C6.4513 21.9898 2.03333 17.5601 2.03333 12.0288C2.03333 6.49756 6.43958 2.06787 11.9708 2.06787C17.5021 2.06787 21.9435 6.49756 21.9435 12.0288C21.9435 17.5601 17.5138 21.9898 11.9825 21.9898Z" fill="black" fill-opacity="0.85"/>
<path d="M5.2677 14.3257C5.2677 14.853 5.59583 15.1577 6.13489 15.1577H8.81848V17.853C8.81848 18.3921 9.13489 18.7085 9.65051 18.7085C10.1427 18.7085 10.4591 18.3921 10.4591 17.853V15.1577H13.4825V17.853C13.4825 18.3921 13.7872 18.7085 14.3028 18.7085C14.8067 18.7085 15.1232 18.3921 15.1232 17.853V15.1577H17.8067C18.3458 15.1577 18.6739 14.853 18.6739 14.3257C18.6739 13.8335 18.3458 13.5171 17.8067 13.5171H15.1232V10.5288H17.8067C18.3458 10.5288 18.6739 10.2007 18.6739 9.70849C18.6739 9.19287 18.3458 8.88818 17.8067 8.88818H15.1232V6.19287C15.1232 5.64209 14.8067 5.32568 14.3028 5.32568C13.7872 5.32568 13.4825 5.64209 13.4825 6.19287V8.88818H10.4591V6.19287C10.4591 5.64209 10.1427 5.32568 9.65051 5.32568C9.13489 5.32568 8.81848 5.64209 8.81848 6.19287V8.88818H6.13489C5.59583 8.88818 5.2677 9.19287 5.2677 9.70849C5.2677 10.2007 5.59583 10.5288 6.13489 10.5288H8.81848V13.5171H6.13489C5.59583 13.5171 5.2677 13.8335 5.2677 14.3257ZM10.4708 13.5171V10.5288H13.4942V13.5171H10.4708Z" fill="black" fill-opacity="0.85"/>
</g>
<defs>
<clipPath id="clip0_2207_22029">
<rect width="23.9062" height="23.918" fill="white" transform="translate(0.0294189 0.0756836)"/>
</clipPath>
</defs>
</svg>
