<svg width="24" height="24" viewBox="0 0 24 24" fill="none" xmlns="http://www.w3.org/2000/svg">
<g clip-path="url(#clip0_2207_22034)">
<path d="M11.9846 23.9819C18.5237 23.9819 23.9377 18.5562 23.9377 12.0288C23.9377 5.48974 18.512 0.0756836 11.9729 0.0756836C5.44555 0.0756836 0.0314941 5.48974 0.0314941 12.0288C0.0314941 18.5562 5.45727 23.9819 11.9846 23.9819Z" fill="black" fill-opacity="0.85"/>
<path d="M5.07056 14.4077C5.07056 13.9038 5.41041 13.5757 5.97291 13.5757H8.72681V10.4819H5.97291C5.41041 10.4819 5.07056 10.1538 5.07056 9.63819C5.07056 9.09912 5.41041 8.78272 5.97291 8.78272H8.72681V6.02881C8.72681 5.4546 9.05494 5.12646 9.594 5.12646C10.0979 5.12646 10.426 5.4546 10.426 6.02881V8.78272H13.5432V6.02881C13.5432 5.4546 13.8596 5.12646 14.387 5.12646C14.9143 5.12646 15.2424 5.4546 15.2424 6.02881V8.78272H17.9963C18.5588 8.78272 18.8987 9.09912 18.8987 9.63819C18.8987 10.1538 18.5588 10.4819 17.9963 10.4819H15.2424V13.5757H17.9963C18.5588 13.5757 18.8987 13.9038 18.8987 14.4077C18.8987 14.9468 18.5588 15.2749 17.9963 15.2749H15.2424V18.0288C15.2424 18.603 14.9143 18.9312 14.387 18.9312C13.8596 18.9312 13.5432 18.603 13.5432 18.0288V15.2749H10.426V18.0288C10.426 18.603 10.0979 18.9312 9.594 18.9312C9.05494 18.9312 8.72681 18.603 8.72681 18.0288V15.2749H5.97291C5.41041 15.2749 5.07056 14.9468 5.07056 14.4077ZM10.426 13.5757H13.5432V10.4819H10.426V13.5757Z" fill="white"/>
</g>
<defs>
<clipPath id="clip0_2207_22034">
<rect width="23.9062" height="23.918" fill="white" transform="translate(0.0314941 0.0756836)"/>
</clipPath>
</defs>
</svg>
