<svg width="22" height="22" viewBox="0 0 22 22" fill="none" xmlns="http://www.w3.org/2000/svg">
<g clip-path="url(#clip0_2207_25845)">
<path d="M3.72168 21.6734H17.9365C20.3975 21.6734 21.6162 20.4546 21.6162 18.0405V3.73193C21.6162 1.31787 20.3975 0.0991211 17.9365 0.0991211H3.72168C1.27246 0.0991211 0.0419922 1.30615 0.0419922 3.73193V18.0405C0.0419922 20.4663 1.27246 21.6734 3.72168 21.6734Z" fill="black" fill-opacity="0.85"/>
<path d="M11.0108 18.0991C10.6709 18.0991 10.4131 17.853 10.4131 17.4898V16.6695C7.82325 16.3648 6.18262 14.2085 6.18262 10.8804C6.18262 7.62256 7.84669 5.45459 10.4131 5.13818V4.32959C10.4131 3.9663 10.6709 3.73193 11.0108 3.73193C11.3506 3.73193 11.6084 3.9663 11.6084 4.32959V5.11474C13.3193 5.29052 14.6787 6.31006 15.2061 7.75146C15.2647 7.95068 15.3115 8.13818 15.3115 8.34912C15.3115 8.78271 15.0186 9.0874 14.5732 9.0874C14.1397 9.0874 13.9404 8.92334 13.7764 8.44287C13.5186 7.49365 12.6748 6.7788 11.6084 6.60302V10.5405H14.6787C15.1709 10.5405 15.4873 10.8452 15.4873 11.3609V11.9702C15.4873 14.7124 14.1162 16.4819 11.6084 16.6812V17.4898C11.6084 17.853 11.3506 18.0991 11.0108 18.0991ZM10.4131 15.1695V6.62646C8.81934 6.9663 7.81153 8.56006 7.81153 10.8804C7.81153 13.2359 8.80762 14.8296 10.4131 15.1695ZM11.6084 15.2163C13.0615 14.9937 13.917 13.8687 13.917 12.2398V11.9702H11.6084V15.2163Z" fill="white"/>
</g>
<defs>
<clipPath id="clip0_2207_25845">
<rect width="21.5742" height="21.5977" fill="white" transform="translate(0.0419922 0.0756836)"/>
</clipPath>
</defs>
</svg>
