<svg width="22" height="22" viewBox="0 0 22 22" fill="none" xmlns="http://www.w3.org/2000/svg">
<g clip-path="url(#clip0_2207_25840)">
<path d="M3.71961 21.6734H17.9344C20.3954 21.6734 21.6141 20.4546 21.6141 18.0405V3.73193C21.6141 1.31787 20.3954 0.0991211 17.9344 0.0991211H3.71961C1.27039 0.0991211 0.039917 1.30615 0.039917 3.73193V18.0405C0.039917 20.4663 1.27039 21.6734 3.71961 21.6734ZM3.74304 19.7866C2.57117 19.7866 1.92664 19.1655 1.92664 17.9468V3.82568C1.92664 2.60693 2.57117 1.98584 3.74304 1.98584H17.911C19.0711 1.98584 19.7274 2.60693 19.7274 3.82568V17.9468C19.7274 19.1655 19.0711 19.7866 17.911 19.7866H3.74304Z" fill="black" fill-opacity="0.85"/>
<path d="M11.0087 17.8765C11.3368 17.8765 11.5829 17.6421 11.5829 17.2905V16.5054C14.0087 16.3062 15.3329 14.5952 15.3329 11.9351V11.3491C15.3329 10.8452 15.0282 10.5523 14.5594 10.5523H11.5829V6.73193C12.6141 6.89599 13.4344 7.59912 13.6922 8.5249C13.8446 8.98193 14.0438 9.14599 14.454 9.14599C14.8876 9.14599 15.1688 8.85302 15.1688 8.43115C15.1688 8.22021 15.1219 8.04443 15.0633 7.85693C14.5594 6.45068 13.2352 5.4663 11.5829 5.29052V4.5288C11.5829 4.17724 11.3368 3.95459 11.0087 3.95459C10.6805 3.95459 10.4227 4.17724 10.4227 4.5288V5.31396C7.93836 5.61865 6.33289 7.72802 6.33289 10.8804C6.33289 14.103 7.91492 16.189 10.4227 16.4937V17.2905C10.4227 17.6421 10.6805 17.8765 11.0087 17.8765ZM10.4227 15.0405C8.86414 14.7124 7.9032 13.1655 7.9032 10.8804C7.9032 8.63037 8.87586 7.08349 10.4227 6.75537V15.0405ZM11.5829 15.0874V11.9351H13.8211V12.1929C13.8211 13.7749 12.9891 14.8765 11.5829 15.0874Z" fill="black" fill-opacity="0.85"/>
</g>
<defs>
<clipPath id="clip0_2207_25840">
<rect width="21.5742" height="21.5977" fill="white" transform="translate(0.039917 0.0756836)"/>
</clipPath>
</defs>
</svg>
