<svg width="17" height="27" viewBox="0 0 17 27" fill="none" xmlns="http://www.w3.org/2000/svg">
<g clip-path="url(#clip0_2207_25826)">
<path d="M8.98669 23.9234C14.1547 23.9234 16.9906 20.6187 16.9906 15.2632V14.1148C16.9906 13.3765 16.5453 12.9195 15.8305 12.9195H9.37341V14.8882H14.7524V15.7554C14.7524 19.4468 12.5844 21.8726 8.99841 21.8726C4.9906 21.8726 2.38904 18.5093 2.38904 13.189C2.38904 7.93896 4.9906 4.64599 8.98669 4.64599C11.6469 4.64599 13.8617 6.25146 14.4945 8.53662C14.7055 9.2163 14.9984 9.48584 15.6078 9.48584C16.2406 9.48584 16.6508 9.06396 16.6391 8.44287C16.6391 8.10302 16.5805 7.76318 16.4633 7.43506C15.432 4.55224 12.5141 2.59521 8.98669 2.59521C3.58435 2.59521 0.0335693 6.70849 0.0335693 13.189C0.0335693 19.7515 3.56091 23.9234 8.98669 23.9234ZM8.88123 26.3843C9.31482 26.3843 9.64295 26.0679 9.64295 25.6109V0.931153C9.64295 0.48584 9.31482 0.169434 8.88123 0.169434C8.44763 0.169434 8.11951 0.48584 8.11951 0.931153V25.6109C8.11951 26.0679 8.44763 26.3843 8.88123 26.3843Z" fill="black" fill-opacity="0.85"/>
</g>
<defs>
<clipPath id="clip0_2207_25826">
<rect width="16.957" height="26.3086" fill="white" transform="translate(0.0335693 0.0756836)"/>
</clipPath>
</defs>
</svg>
