<svg width="24" height="24" viewBox="0 0 24 24" fill="none" xmlns="http://www.w3.org/2000/svg">
<g clip-path="url(#clip0_2207_25835)">
<path d="M11.9909 23.9819C18.53 23.9819 23.944 18.5562 23.944 12.0288C23.944 5.48974 18.5183 0.0756836 11.9792 0.0756836C5.4519 0.0756836 0.0378418 5.48974 0.0378418 12.0288C0.0378418 18.5562 5.46362 23.9819 11.9909 23.9819Z" fill="black" fill-opacity="0.85"/>
<path d="M12.1667 19.2593C11.8269 19.2593 11.569 19.0132 11.569 18.6499V17.8296C8.97925 17.5249 7.33862 15.3687 7.33862 12.0405C7.33862 8.78271 9.00268 6.61474 11.569 6.29834V5.48974C11.569 5.12646 11.8151 4.89209 12.1667 4.89209C12.5066 4.89209 12.7644 5.12646 12.7644 5.48974V6.2749C14.4753 6.45068 15.8347 7.47021 16.362 8.91162C16.4206 9.11084 16.4675 9.29834 16.4675 9.50927C16.4675 9.94287 16.1745 10.2476 15.7292 10.2476C15.2956 10.2476 15.0964 10.0835 14.9323 9.60302C14.6745 8.6538 13.8308 7.93896 12.7644 7.76318V11.7007H15.8347C16.3269 11.7007 16.6433 12.0054 16.6433 12.521V13.1304C16.6433 15.8726 15.2722 17.6421 12.7644 17.8413V18.6499C12.7644 19.0132 12.5066 19.2593 12.1667 19.2593ZM11.569 16.3296V7.78662C9.96362 8.12646 8.96753 9.72021 8.96753 12.0405C8.96753 14.396 9.96362 15.9898 11.569 16.3296ZM12.7644 16.3765C14.2175 16.1538 15.073 15.0288 15.073 13.3999V13.1304H12.7644V16.3765Z" fill="white"/>
</g>
<defs>
<clipPath id="clip0_2207_25835">
<rect width="23.9062" height="23.918" fill="white" transform="translate(0.0378418 0.0756836)"/>
</clipPath>
</defs>
</svg>
