<svg width="24" height="24" viewBox="0 0 24 24" fill="none" xmlns="http://www.w3.org/2000/svg">
<g clip-path="url(#clip0_2207_10253)">
<path d="M12.0056 23.9819C18.5447 23.9819 23.9587 18.5562 23.9587 12.0288C23.9587 5.48974 18.5564 0.0756836 12.0173 0.0756836C5.48999 0.0756836 0.0524902 5.48974 0.0524902 12.0288C0.0524902 18.5562 5.47827 23.9819 12.0056 23.9819ZM12.0173 21.9898C6.48608 21.9898 2.0564 17.5601 2.0564 12.0288C2.0564 6.49756 6.4978 2.06787 12.0291 2.06787C17.5603 2.06787 21.9666 6.49756 21.9666 12.0288C21.9666 17.5601 17.5486 21.9898 12.0173 21.9898ZM4.69311 19.3648C6.70874 21.3804 10.9861 19.8101 15.3806 15.4155C19.7869 11.0093 21.3572 6.73193 19.3416 4.7163C17.2791 2.66552 13.0369 4.23584 8.6189 8.6538C4.21265 13.0718 2.63061 17.3023 4.69311 19.3648ZM5.95874 18.0874C4.69311 16.8218 6.27515 13.5523 9.88452 9.93115C13.5408 6.2749 16.8103 4.7163 18.0642 5.98193C19.3298 7.23584 17.7478 10.4937 14.1033 14.1499C10.4822 17.771 7.21265 19.353 5.95874 18.0874ZM19.3181 19.3648C21.3689 17.3023 19.7986 13.0718 15.3806 8.64209C10.9861 4.23584 6.73218 2.66552 4.66968 4.7163C2.65405 6.73193 4.23608 11.0093 8.63061 15.4038C13.0369 19.8101 17.3025 21.3687 19.3181 19.3648ZM18.0525 18.0874C16.7986 19.353 13.5291 17.771 9.88452 14.1265C6.25171 10.4937 4.69311 7.23584 5.94702 5.98193C7.20093 4.7163 10.4705 6.2749 14.1033 9.91943C17.7361 13.5523 19.3298 16.8218 18.0525 18.0874ZM20.4197 4.91552L23.408 1.92724C23.7478 1.57568 23.7478 0.989746 23.408 0.649903C23.0447 0.286622 22.4705 0.29834 22.1189 0.649903L19.072 3.68506L20.4197 4.91552ZM3.66187 19.0952L0.626709 22.1421C0.263428 22.4937 0.275146 23.0679 0.626709 23.4195C0.966552 23.771 1.54077 23.7827 1.90405 23.4312L5.09155 20.2437L3.66187 19.0952Z" fill="black" fill-opacity="0.85"/>
</g>
<defs>
<clipPath id="clip0_2207_10253">
<rect width="23.9062" height="23.918" fill="white" transform="translate(0.0524902 0.0756836)"/>
</clipPath>
</defs>
</svg>
