<svg width="24" height="24" viewBox="0 0 24 24" fill="none" xmlns="http://www.w3.org/2000/svg">
<g clip-path="url(#clip0_2207_24971)">
<path d="M12.0097 23.9819C18.5488 23.9819 23.9628 18.5562 23.9628 12.0288C23.9628 5.48974 18.5371 0.0756836 11.998 0.0756836C5.4707 0.0756836 0.0566406 5.48974 0.0566406 12.0288C0.0566406 18.5562 5.48242 23.9819 12.0097 23.9819Z" fill="black" fill-opacity="0.85"/>
<path d="M8.18945 17.5718C7.5918 17.5718 7.24023 17.1616 7.24023 16.4819V7.35302C7.24023 6.67334 7.5918 6.26318 8.18945 6.26318C8.82226 6.26318 9.17383 6.66162 9.17383 7.35302V10.9859H14.8222V7.35302C14.8222 6.67334 15.1855 6.26318 15.7832 6.26318C16.416 6.26318 16.7675 6.66162 16.7675 7.35302V16.4819C16.7675 17.1734 16.416 17.5718 15.7832 17.5718C15.1855 17.5718 14.8222 17.1616 14.8222 16.4819V12.5093H9.17383V16.4819C9.17383 17.1734 8.82226 17.5718 8.18945 17.5718Z" fill="white"/>
</g>
<defs>
<clipPath id="clip0_2207_24971">
<rect width="23.9062" height="23.918" fill="white" transform="translate(0.0566406 0.0756836)"/>
</clipPath>
</defs>
</svg>
