<svg width="25" height="25" viewBox="0 0 25 25" fill="none" xmlns="http://www.w3.org/2000/svg">
<g clip-path="url(#clip0_2207_6513)">
<path d="M21.1919 5.5249H9.42627C6.97705 5.5249 5.74658 6.74365 5.74658 9.15771V21.0171C5.74658 23.4312 6.97705 24.6499 9.42627 24.6499H21.1919C23.6411 24.6499 24.8599 23.4312 24.8599 21.0171V9.15771C24.8599 6.73193 23.6411 5.5249 21.1919 5.5249ZM21.1568 7.41162C22.3286 7.41162 22.9732 8.04443 22.9732 9.26318V20.9116C22.9732 22.1304 22.3286 22.7632 21.1568 22.7632H9.44971C8.30127 22.7632 7.6333 22.1304 7.6333 20.9116V9.26318C7.6333 8.04443 8.30127 7.41162 9.44971 7.41162H21.1568Z" fill="black" fill-opacity="0.85"/>
<path d="M15.5083 0.0991211H3.74268C1.29346 0.0991211 0.0629883 1.31787 0.0629883 3.73193V15.5913C0.0629883 18.0054 1.29346 19.2241 3.74268 19.2241H15.5083C17.9575 19.2241 19.1763 18.0054 19.1763 15.5913V3.73193C19.1763 1.31787 17.9575 0.0991211 15.5083 0.0991211Z" fill="white"/>
<path d="M15.5083 0.0991211H3.74268C1.29346 0.0991211 0.0629883 1.31787 0.0629883 3.73193V15.5913C0.0629883 18.0054 1.29346 19.2241 3.74268 19.2241H15.5083C17.9575 19.2241 19.1763 18.0054 19.1763 15.5913V3.73193C19.1763 1.31787 17.9575 0.0991211 15.5083 0.0991211ZM15.4732 1.98584C16.645 1.98584 17.2896 2.61865 17.2896 3.8374V15.4859C17.2896 16.7046 16.645 17.3374 15.4732 17.3374H3.76611C2.61768 17.3374 1.94971 16.7046 1.94971 15.4859V3.8374C1.94971 2.61865 2.61768 1.98584 3.76611 1.98584H15.4732Z" fill="black" fill-opacity="0.85"/>
<path d="M5.93408 15.0288C6.53174 15.0288 6.87158 14.6538 6.87158 13.9859V10.1187H12.356V13.9859C12.356 14.6421 12.7075 15.0288 13.2818 15.0288C13.8911 15.0288 14.231 14.6538 14.231 13.9859V5.11475C14.231 4.4585 13.8911 4.0835 13.2818 4.0835C12.7075 4.0835 12.356 4.47022 12.356 5.11475V8.66553H6.87158V5.11475C6.87158 4.4585 6.53174 4.0835 5.93408 4.0835C5.34815 4.0835 5.0083 4.47022 5.0083 5.11475V13.9859C5.0083 14.6421 5.34815 15.0288 5.93408 15.0288Z" fill="black" fill-opacity="0.85"/>
</g>
<defs>
<clipPath id="clip0_2207_6513">
<rect width="24.7969" height="24.5742" fill="white" transform="translate(0.0629883 0.0756836)"/>
</clipPath>
</defs>
</svg>
