<svg width="22" height="22" viewBox="0 0 22 22" fill="none" xmlns="http://www.w3.org/2000/svg">
<g clip-path="url(#clip0_2207_24981)">
<path d="M3.74073 21.6734H17.9555C20.4165 21.6734 21.6352 20.4546 21.6352 18.0405V3.73193C21.6352 1.31787 20.4165 0.0991211 17.9555 0.0991211H3.74073C1.29151 0.0991211 0.0610352 1.30615 0.0610352 3.73193V18.0405C0.0610352 20.4663 1.29151 21.6734 3.74073 21.6734Z" fill="black" fill-opacity="0.85"/>
<path d="M7.03369 16.4116C6.43603 16.4116 6.08447 16.0015 6.08447 15.3218V6.19288C6.08447 5.51319 6.43603 5.10303 7.03369 5.10303C7.6665 5.10303 8.01806 5.50147 8.01806 6.19288V9.82569H13.6665V6.19288C13.6665 5.51319 14.0298 5.10303 14.6274 5.10303C15.2602 5.10303 15.6118 5.50147 15.6118 6.19288V15.3218C15.6118 16.0132 15.2602 16.4116 14.6274 16.4116C14.0298 16.4116 13.6665 16.0015 13.6665 15.3218V11.3491H8.01806V15.3218C8.01806 16.0132 7.6665 16.4116 7.03369 16.4116Z" fill="white"/>
</g>
<defs>
<clipPath id="clip0_2207_24981">
<rect width="21.5742" height="21.5977" fill="white" transform="translate(0.0610352 0.0756836)"/>
</clipPath>
</defs>
</svg>
