<svg width="24" height="24" viewBox="0 0 24 24" fill="none" xmlns="http://www.w3.org/2000/svg">
<g clip-path="url(#clip0_2207_10499)">
<path d="M12.0244 23.9937C18.5635 23.9937 23.9775 18.5796 23.9775 12.0405C23.9775 5.51318 18.5518 0.0874023 12.0127 0.0874023C5.48535 0.0874023 0.0712891 5.51318 0.0712891 12.0405C0.0712891 18.5796 5.49707 23.9937 12.0244 23.9937Z" fill="black" fill-opacity="0.85"/>
<path d="M6.49324 18.439L5.4737 17.4195C4.9112 16.8569 4.9698 16.2359 5.60261 15.6734L12.1183 9.98977L13.9698 11.8179L8.25105 18.3335C7.70027 18.9546 7.05574 19.0015 6.49324 18.439ZM17.4855 13.1187L17.0284 12.6968C16.7941 12.4741 16.7472 12.2984 16.7823 12.0288L16.8526 11.314L16.3956 10.8452L15.4112 11.0445C15.0128 11.1148 14.7316 11.0679 14.4737 10.7984L13.1026 9.43899C12.7628 9.09915 12.6691 8.72415 12.8683 8.18509L13.337 6.93118C12.4464 6.40383 11.3917 6.46243 10.1964 6.81399C9.98542 6.90774 9.75105 6.82571 9.5987 6.6968C9.4112 6.47415 9.36433 6.15774 9.6573 5.85305C11.4152 4.09524 14.5909 4.28274 16.3019 5.98196L17.5323 7.21243C18.0011 7.65774 18.1534 8.10305 18.048 8.53665L17.837 9.40383L18.3058 9.84915L19.0206 9.77883C19.3019 9.7554 19.4308 9.79055 19.6769 10.0366L20.1339 10.4819C20.3917 10.7515 20.4034 11.0679 20.1573 11.3023L18.3058 13.1421C18.0362 13.3882 17.7433 13.3648 17.4855 13.1187Z" fill="white"/>
</g>
<defs>
<clipPath id="clip0_2207_10499">
<rect width="23.9062" height="23.918" fill="white" transform="translate(0.0712891 0.0756836)"/>
</clipPath>
</defs>
</svg>
