<svg width="24" height="24" viewBox="0 0 24 24" fill="none" xmlns="http://www.w3.org/2000/svg">
<g clip-path="url(#clip0_2207_18640)">
<path d="M11.9719 23.9833C18.511 23.9833 23.925 18.5576 23.925 12.0302C23.925 5.49121 18.4993 0.0771484 11.9602 0.0771484C5.43286 0.0771484 0.0187988 5.49121 0.0187988 12.0302C0.0187988 18.5576 5.44458 23.9833 11.9719 23.9833ZM11.9719 21.9912C6.44068 21.9912 2.02271 17.5615 2.02271 12.0302C2.02271 6.49903 6.42896 2.06934 11.9602 2.06934C17.4915 2.06934 21.9329 6.49903 21.9329 12.0302C21.9329 17.5615 17.5032 21.9912 11.9719 21.9912Z" fill="black" fill-opacity="0.85"/>
<path d="M7.28442 14.1162C7.28442 17.0927 9.21802 18.9209 11.9719 18.9209C14.0461 18.9209 15.4641 18.0888 16.4133 16.1435C16.929 15.1357 17.3274 13.9169 17.7493 12.5224C17.925 11.9482 18.1711 11.2451 18.1711 10.9287C18.1711 10.5537 17.8899 10.2959 17.5032 10.2959C17.0579 10.2959 16.8 10.5654 16.4836 11.1982L15.5344 13.2021C15.4407 13.413 15.3469 13.4951 15.2415 13.4951C15.1008 13.4951 15.0188 13.4013 15.0188 13.1904V6.05371C15.0188 5.65527 14.679 5.31543 14.2805 5.31543C13.8586 5.31543 13.5305 5.65527 13.5305 6.05371V11.1162C13.343 11.0693 13.1555 10.999 12.9563 10.9638V5.06934C12.9563 4.65918 12.6282 4.31934 12.2063 4.31934C11.7961 4.31934 11.468 4.65918 11.468 5.06934V10.8818C11.2571 10.9169 11.0579 10.9287 10.8704 10.9638V5.65527C10.8704 5.2334 10.5188 4.90527 10.1086 4.90527C9.69849 4.90527 9.35864 5.2334 9.35864 5.65527V11.4443C9.14771 11.538 8.97192 11.6552 8.79614 11.7607V7.77637C8.79614 7.36621 8.44458 7.02637 8.04614 7.02637C7.62427 7.02637 7.28442 7.36621 7.28442 7.77637V14.1162Z" fill="black" fill-opacity="0.85"/>
</g>
<defs>
<clipPath id="clip0_2207_18640">
<rect width="23.9062" height="23.918" fill="white" transform="translate(0.0187988 0.0771484)"/>
</clipPath>
</defs>
</svg>
