<svg width="28" height="34" viewBox="0 0 28 34" fill="none" xmlns="http://www.w3.org/2000/svg">
<g clip-path="url(#clip0_2207_18860)">
<path d="M17.6655 8.43262C17.853 8.43262 18.0054 8.30371 18.0171 8.09277C18.3569 5.33887 18.4859 5.26856 21.2866 4.79981C21.521 4.77637 21.6499 4.65918 21.6499 4.45996C21.6499 4.27246 21.521 4.15527 21.3335 4.12012C18.5093 3.58106 18.3569 3.59277 18.0171 0.838867C18.0054 0.627929 17.853 0.499023 17.6655 0.499023C17.4898 0.499023 17.3491 0.627929 17.3374 0.827148C16.9624 3.62793 16.8804 3.70996 14.0093 4.12012C13.8218 4.14356 13.6929 4.27246 13.6929 4.45996C13.6929 4.64746 13.8218 4.77637 14.0093 4.79981C16.8804 5.36231 16.9507 5.35059 17.3374 8.11621C17.3491 8.30371 17.4898 8.43262 17.6655 8.43262ZM9.82568 5.26856C9.95459 5.26856 10.0601 5.19824 10.0952 5.0459C10.4116 3.28809 10.4116 3.27637 12.1812 2.94824C12.3335 2.91309 12.4273 2.81934 12.4273 2.67871C12.4273 2.52637 12.3335 2.43262 12.1812 2.39746C10.4116 2.0459 10.4585 2.03418 10.0952 0.311523C10.0601 0.15918 9.9663 0.0771484 9.82568 0.0771484C9.68506 0.0771484 9.57959 0.170898 9.55615 0.311523C9.18115 2.03418 9.23974 2.0459 7.45849 2.39746C7.30615 2.43262 7.2124 2.53809 7.2124 2.67871C7.2124 2.80762 7.30615 2.91309 7.45849 2.94824C9.23974 3.29981 9.2163 3.28809 9.55615 5.0459C9.57959 5.18653 9.68506 5.26856 9.82568 5.26856ZM3.43896 31.3427C3.61474 31.3427 3.70849 31.2373 3.73193 31.0732C4.1538 28.7763 4.14209 28.7294 6.54443 28.2724C6.72021 28.2255 6.81396 28.1435 6.81396 27.9677C6.81396 27.7919 6.72021 27.7099 6.54443 27.6748C4.1538 27.1943 4.2124 27.1474 3.73193 24.8623C3.70849 24.6982 3.61474 24.5927 3.43896 24.5927C3.2749 24.5927 3.19287 24.6982 3.14599 24.8623C2.66552 27.1474 2.75927 27.1943 0.345215 27.6748C0.181153 27.7099 0.0756836 27.7919 0.0756836 27.9677C0.0756836 28.1435 0.181153 28.2255 0.345215 28.2724C2.75927 28.7412 2.7124 28.7763 3.14599 31.0732C3.19287 31.2373 3.2749 31.3427 3.43896 31.3427Z" fill="black" fill-opacity="0.85"/>
<path d="M24.4741 26.9365C27.3804 24.0185 27.8609 20.3974 25.8569 16.1787L23.2085 10.624C23.021 10.2373 22.8101 9.92084 22.564 9.67475C21.6734 8.79584 20.396 8.84271 19.5523 9.68647C18.978 10.2607 18.8023 11.1162 19.189 12.0419L19.9624 13.9169C19.9859 13.9638 19.9859 14.0107 19.9507 14.0459C19.9155 14.081 19.8569 14.0693 19.8218 14.0341L13.1655 7.37787C12.2046 6.41693 10.9859 6.41693 10.0601 7.34271C9.7202 7.67084 9.5327 8.10443 9.52098 8.54975C8.56005 7.81147 7.49364 7.8349 6.67333 8.65521C5.86473 9.46381 5.84129 10.5654 6.54442 11.5029C6.12255 11.5029 5.71239 11.6904 5.4077 11.9951C4.55223 12.8505 4.57567 14.0224 5.50145 14.9365L6.41551 15.8623C5.95848 15.8505 5.50145 16.0615 5.14989 16.413C4.29442 17.2802 4.32958 18.5107 5.26708 19.4365L12.3804 26.5615C16.2593 30.4404 20.9585 30.4404 24.4741 26.9365ZM23.2788 25.8349C20.3491 28.7646 16.6812 28.6709 13.3413 25.331L6.47411 18.4638C6.12255 18.1123 6.09911 17.6318 6.43895 17.2919C6.77879 16.9521 7.27098 16.9521 7.63426 17.3037L11.8648 21.5341C12.1695 21.8388 12.6265 21.8037 12.896 21.5341C13.1773 21.2529 13.2241 20.7959 12.9195 20.4912L6.57958 14.1513C6.22801 13.7998 6.20458 13.331 6.55614 12.9912C6.89598 12.6396 7.38817 12.6396 7.73973 12.9912L13.646 18.9091C13.9507 19.2138 14.4077 19.1669 14.6773 18.8974C14.9585 18.6162 15.0054 18.1591 14.7007 17.8544L7.76317 10.9169C7.41161 10.5654 7.39989 10.0732 7.73973 9.73334C8.07958 9.3935 8.57176 9.40521 8.92333 9.75678L15.8609 16.6943C16.1538 16.9873 16.6109 16.9755 16.8921 16.6943C17.1734 16.4013 17.2085 15.9326 16.9155 15.6513L10.9976 9.73334C10.646 9.38178 10.646 8.88959 10.9859 8.54975C11.3257 8.2099 11.8062 8.22162 12.1577 8.57318L20.314 16.7294C20.7241 17.1513 21.2163 17.1396 21.5562 16.7998C21.8609 16.5068 21.978 16.1201 21.7437 15.5107L20.2788 11.6669C20.0796 11.1396 20.2671 10.7177 20.6655 10.5302C21.1109 10.331 21.5093 10.5302 21.7671 11.0927L24.4859 16.8349C26.3023 20.6787 25.5991 23.5146 23.2788 25.8349Z" fill="black" fill-opacity="0.85"/>
<path d="M21.4623 27.9912C24.3803 25.0849 24.849 21.4521 22.8451 17.2451L20.2084 11.6787C20.0209 11.2919 19.81 10.9755 19.5522 10.7294C18.6733 9.85058 17.3959 9.89745 16.5522 10.7529C15.9779 11.3154 15.8022 12.1709 16.1889 13.1083L16.9623 14.9716C16.9858 15.0185 16.9858 15.0654 16.9506 15.1005C16.9154 15.1474 16.8568 15.1357 16.81 15.0888L10.1654 8.44433C9.20452 7.47167 7.98577 7.47167 7.06 8.39745C6.72015 8.7373 6.53265 9.15917 6.52093 9.60448C5.56 8.8662 4.49359 8.88964 3.67328 9.72167C2.86468 10.5185 2.84124 11.6201 3.54437 12.5576C3.11078 12.5576 2.71234 12.7451 2.40765 13.0498C1.55218 13.9052 1.57562 15.0771 2.5014 16.0029L3.41546 16.9169C2.95843 16.9052 2.5014 17.1162 2.14984 17.4794C1.28265 18.3349 1.32953 19.5654 2.26703 20.4912L9.38031 27.6162C13.2592 31.4951 17.9584 31.4951 21.4623 27.9912Z" fill="white"/>
<path d="M21.4623 27.9912C24.3803 25.0849 24.849 21.4521 22.8451 17.2451L20.2084 11.6787C20.0209 11.2919 19.81 10.9755 19.5522 10.7294C18.6733 9.85058 17.3959 9.89745 16.5522 10.7529C15.9779 11.3154 15.8022 12.1709 16.1889 13.1083L16.9623 14.9716C16.9858 15.0185 16.9858 15.0654 16.9506 15.1005C16.9154 15.1474 16.8568 15.1357 16.81 15.0888L10.1654 8.44433C9.20452 7.47167 7.98577 7.47167 7.06 8.39745C6.72015 8.7373 6.53265 9.15917 6.52093 9.60448C5.56 8.8662 4.49359 8.88964 3.67328 9.72167C2.86468 10.5185 2.84124 11.6201 3.54437 12.5576C3.11078 12.5576 2.71234 12.7451 2.40765 13.0498C1.55218 13.9052 1.57562 15.0771 2.5014 16.0029L3.41546 16.9169C2.95843 16.9052 2.5014 17.1162 2.14984 17.4794C1.28265 18.3349 1.32953 19.5654 2.26703 20.4912L9.38031 27.6162C13.2592 31.4951 17.9584 31.4951 21.4623 27.9912ZM20.2787 26.8896C17.349 29.8193 13.6811 29.7255 10.3412 26.3857L3.47406 19.5185C3.1225 19.1669 3.09906 18.6982 3.4389 18.3466C3.77874 18.0068 4.27093 18.0068 4.6225 18.3583L8.86468 22.6005C9.16936 22.9052 9.61467 22.8583 9.89592 22.5888C10.1772 22.3076 10.224 21.8505 9.91936 21.5459L3.57953 15.206C3.22796 14.8544 3.20453 14.3857 3.54437 14.0459C3.89593 13.706 4.38812 13.706 4.73968 14.0576L10.6459 19.9638C10.9506 20.2685 11.4076 20.2333 11.6772 19.9521C11.9584 19.6709 12.0053 19.2138 11.7006 18.9091L4.76312 11.9716C4.41156 11.6201 4.39984 11.1279 4.73968 10.788C5.06781 10.4482 5.57171 10.4716 5.92328 10.8232L12.8608 17.7607C13.1537 18.0419 13.599 18.0302 13.892 17.749C14.1733 17.456 14.1967 16.999 13.9154 16.706L7.9975 10.788C7.64593 10.4365 7.63421 9.95605 7.98578 9.6162C8.32562 9.26464 8.80609 9.27636 9.15765 9.63964L17.3139 17.7959C17.724 18.206 18.2162 18.206 18.5561 17.8544C18.849 17.5615 18.9779 17.1748 18.7436 16.5771L17.2787 12.7216C17.0795 12.206 17.267 11.7724 17.6654 11.5849C18.1108 11.3857 18.5092 11.5966 18.767 12.1474L21.4858 17.9013C23.3022 21.7333 22.5873 24.5693 20.2787 26.8896Z" fill="black" fill-opacity="0.85"/>
</g>
<defs>
<clipPath id="clip0_2207_18860">
<rect width="26.9974" height="33.3164" fill="white" transform="translate(0.0756836 0.0771484)"/>
</clipPath>
</defs>
</svg>
