<svg width="20" height="27" viewBox="0 0 20 27" fill="none" xmlns="http://www.w3.org/2000/svg">
<g clip-path="url(#clip0_2207_18632)">
<path d="M8.29346 25.5888C12.4067 25.5888 15.313 23.3623 16.8716 18.9677L18.9341 13.1669C19.0747 12.7685 19.145 12.3818 19.145 12.0302C19.145 10.788 18.2075 9.9209 17.0122 9.9209C16.2036 9.9209 15.4771 10.4013 15.0786 11.3271L14.3169 13.2021C14.2935 13.249 14.2583 13.2841 14.2114 13.2841C14.1528 13.2841 14.1294 13.2373 14.1294 13.1787V3.78027C14.1294 2.40918 13.2739 1.54199 11.9614 1.54199C11.481 1.54199 11.0474 1.71777 10.7192 2.02246C10.5669 0.815429 9.79346 0.0771484 8.6333 0.0771484C7.49658 0.0771484 6.69971 0.838867 6.52392 1.99903C6.23096 1.70606 5.80908 1.54199 5.38721 1.54199C4.16846 1.54199 3.35986 2.39746 3.35986 3.69824V4.99903C3.04346 4.6709 2.56299 4.49512 2.0708 4.49512C0.852051 4.49512 0.00830078 5.38574 0.00830078 6.70996V16.7763C0.00830078 22.2607 3.33642 25.5888 8.29346 25.5888ZM8.23486 23.9716C4.08642 23.9716 1.55518 21.2998 1.55518 16.5888V6.87403C1.55518 6.37012 1.87158 6.03027 2.36377 6.03027C2.84424 6.03027 3.1958 6.37012 3.1958 6.87403V12.8623C3.1958 13.2959 3.54736 13.5888 3.92236 13.5888C4.3208 13.5888 4.68408 13.2959 4.68408 12.8623V3.90918C4.68408 3.40527 5.00049 3.05371 5.48096 3.05371C5.97314 3.05371 6.31299 3.40527 6.31299 3.90918V12.2646C6.31299 12.6982 6.66455 12.9912 7.05127 12.9912C7.44971 12.9912 7.80127 12.6982 7.80127 12.2646V2.45606C7.80127 1.95215 8.14111 1.58887 8.6333 1.58887C9.10205 1.58887 9.44189 1.95215 9.44189 2.45606V12.2646C9.44189 12.6748 9.77002 12.9912 10.1802 12.9912C10.5786 12.9912 10.9302 12.6748 10.9302 12.2646V3.90918C10.9302 3.40527 11.27 3.05371 11.7505 3.05371C12.231 3.05371 12.5708 3.40527 12.5708 3.90918V15.4404C12.5708 16.0263 12.9106 16.3662 13.4028 16.3662C13.8247 16.3662 14.1763 16.1787 14.4458 15.5927L16.1333 11.831C16.356 11.3271 16.7895 11.1513 17.1997 11.3037C17.6567 11.4677 17.7974 11.9013 17.5864 12.4755L15.4419 18.4638C14.0122 22.4599 11.5044 23.9716 8.23486 23.9716Z" fill="black" fill-opacity="0.85"/>
</g>
<defs>
<clipPath id="clip0_2207_18632">
<rect width="19.1367" height="26.6836" fill="white" transform="translate(0.00830078 0.0771484)"/>
</clipPath>
</defs>
</svg>
