<svg width="24" height="24" viewBox="0 0 24 24" fill="none" xmlns="http://www.w3.org/2000/svg">
<g clip-path="url(#clip0_2207_18645)">
<path d="M11.9741 23.9833C18.5132 23.9833 23.9272 18.5576 23.9272 12.0302C23.9272 5.49121 18.5015 0.0771484 11.9624 0.0771484C5.43506 0.0771484 0.0209961 5.49121 0.0209961 12.0302C0.0209961 18.5576 5.44678 23.9833 11.9741 23.9833Z" fill="black" fill-opacity="0.85"/>
<path d="M7.12256 14.1982V7.6709C7.12256 7.24903 7.47412 6.88574 7.91944 6.88574C8.32959 6.88574 8.69288 7.24903 8.69288 7.6709V11.7724C8.86866 11.6669 9.04444 11.5498 9.26709 11.456V5.46777C9.26709 5.0459 9.61866 4.70606 10.0405 4.70606C10.4624 4.70606 10.8257 5.0459 10.8257 5.46777V10.9521C11.0249 10.9169 11.2241 10.8935 11.4351 10.8702V4.87012C11.4351 4.45996 11.7749 4.09668 12.2085 4.09668C12.6421 4.09668 12.9819 4.45996 12.9819 4.87012V10.9405C13.1812 10.9991 13.3804 11.0693 13.5679 11.1162V5.88965C13.5679 5.46777 13.9077 5.11621 14.3413 5.11621C14.7515 5.11621 15.103 5.46777 15.103 5.88965V13.2491C15.103 13.46 15.1851 13.5537 15.3374 13.5537C15.4429 13.5537 15.5366 13.4833 15.6304 13.2607L16.6148 11.1983C16.9429 10.5303 17.2007 10.249 17.6694 10.249C18.0679 10.249 18.3608 10.5185 18.3608 10.9053C18.3608 11.2334 18.103 11.9716 17.9155 12.5693C17.4819 14.0107 17.0718 15.2529 16.5327 16.2959C15.5601 18.288 14.0952 19.1436 11.9624 19.1436C9.11475 19.1436 7.12256 17.2568 7.12256 14.1982Z" fill="white"/>
</g>
<defs>
<clipPath id="clip0_2207_18645">
<rect width="23.9062" height="23.918" fill="white" transform="translate(0.0209961 0.0771484)"/>
</clipPath>
</defs>
</svg>
