<svg width="24" height="24" viewBox="0 0 24 24" fill="none" xmlns="http://www.w3.org/2000/svg">
<g clip-path="url(#clip0_2207_18716)">
<path d="M12.0014 23.9833C18.5405 23.9833 23.9545 18.5576 23.9545 12.0302C23.9545 5.49121 18.5288 0.0771484 11.9897 0.0771484C5.4624 0.0771484 0.0483398 5.49121 0.0483398 12.0302C0.0483398 18.5576 5.47412 23.9833 12.0014 23.9833ZM12.0014 21.9912C6.47022 21.9912 2.05225 17.5615 2.05225 12.0302C2.05225 6.49903 6.4585 2.06934 11.9897 2.06934C17.521 2.06934 21.9624 6.49903 21.9624 12.0302C21.9624 17.5615 17.5327 21.9912 12.0014 21.9912Z" fill="black" fill-opacity="0.85"/>
<path d="M18.5874 10.0616C18.5874 8.17487 17.4389 6.60455 15.8686 6.60455H14.7202C15.8803 7.43659 16.3725 8.67877 16.3491 10.1319C16.3256 11.7256 15.7045 12.8389 15.1772 13.5303H16.0913C17.5092 13.5303 18.5874 12.0069 18.5874 10.0616ZM15.5053 10.1202C15.5405 7.78815 13.6772 6.05377 10.7241 6.01862L9.85693 6.0069C9.04834 5.99518 8.43896 6.06549 8.09912 6.14752C7.59522 6.27643 7.10303 6.5694 7.10303 7.17877C7.10303 7.40143 7.17334 7.61237 7.24365 7.72955C7.29053 7.81159 7.27881 7.8819 7.2085 7.91705C6.8335 8.05768 6.48193 8.4444 6.48193 8.92487C6.48193 9.22955 6.57568 9.48737 6.72803 9.65143C6.79834 9.74518 6.78662 9.83893 6.68115 9.90924C6.37646 10.085 6.17725 10.4249 6.17725 10.8467C6.17725 11.128 6.271 11.4561 6.43506 11.6084C6.54053 11.7022 6.52881 11.7491 6.41162 11.8428C6.22412 12.0186 6.10693 12.3116 6.10693 12.6514C6.10693 13.2842 6.57568 13.7881 7.19678 13.7881H9.42334C10.0093 13.7881 10.3725 14.0694 10.3725 14.5499C10.3725 15.3936 9.31787 16.9522 9.31787 18.0538C9.31787 18.6397 9.70459 18.9913 10.1967 18.9913C10.6538 18.9913 10.8764 18.6866 11.0991 18.2061C12.06 16.378 13.3139 14.8897 14.2749 13.5889C15.0717 12.5342 15.4819 11.6084 15.5053 10.1202Z" fill="black" fill-opacity="0.85"/>
</g>
<defs>
<clipPath id="clip0_2207_18716">
<rect width="23.9062" height="23.918" fill="white" transform="translate(0.0483398 0.0771484)"/>
</clipPath>
</defs>
</svg>
