<svg width="23" height="23" viewBox="0 0 23 23" fill="none" xmlns="http://www.w3.org/2000/svg">
<g clip-path="url(#clip0_2207_18842)">
<path d="M8.20679 19.6328C11.8631 23.2773 16.4216 23.0429 19.7029 19.7734C22.3396 17.125 22.867 14.3828 21.7537 11.0781C21.156 9.22656 20.1716 7.26953 18.9763 5.03125C18.5076 4.11719 17.9216 2.92188 17.5232 2.53516C17.0779 2.08985 16.4685 2.11328 15.9881 2.58203C15.4607 3.10938 15.4841 3.74219 15.8826 4.92578L17.1599 8.48828C17.3006 8.86328 17.2771 9.09766 17.1365 9.23828C16.9724 9.40235 16.7498 9.42578 16.4568 9.13281L7.7732 0.4375C7.28101 -0.0429688 6.47242 -0.0429688 5.99195 0.4375C5.49976 0.929687 5.49976 1.72656 5.99195 2.21875L12.2029 8.42969C11.8982 8.57031 11.5818 8.75781 11.2654 8.96875L4.05835 1.76172C3.57789 1.26953 2.76929 1.26953 2.2771 1.76172C1.79664 2.25391 1.79664 3.05078 2.2771 3.54297L9.39039 10.6562C9.15601 10.9375 8.93335 11.2421 8.72242 11.5468L2.20679 5.01953C1.7146 4.52735 0.917724 4.52735 0.425537 5.01953C-0.0549317 5.51172 -0.0549317 6.3086 0.425537 6.80078L7.51539 13.8789C7.36304 14.2773 7.26928 14.6757 7.18725 15.0507L2.26539 10.1289C1.78492 9.63672 0.976318 9.63672 0.48413 10.1289C0.0036619 10.621 0.0036619 11.4179 0.48413 11.9101L8.20679 19.6328Z" fill="black" fill-opacity="0.85"/>
</g>
<defs>
<clipPath id="clip0_2207_18842">
<rect width="22.238" height="22.248" fill="white" transform="translate(0.0651855 0.0771484)"/>
</clipPath>
</defs>
</svg>
