<svg width="26" height="20" viewBox="0 0 26 20" fill="none" xmlns="http://www.w3.org/2000/svg">
<g clip-path="url(#clip0_2207_18800)">
<path d="M25.1409 11.2671C25.1409 7.3413 23.0901 4.03662 18.0862 2.3374L12.1331 0.356934C11.9339 0.274903 11.7112 0.216309 11.43 0.216309C10.7268 0.216309 10.1526 0.76709 10.1526 1.61084C10.1526 2.16162 10.4221 2.57177 11.055 2.8413L15.3206 4.65771C15.6721 4.79834 15.7893 4.97412 15.7893 5.17334C15.7893 5.39599 15.6018 5.60693 15.2737 5.60693H1.5979C0.683838 5.60693 0.0861816 6.18115 0.0861816 7.00146C0.0861816 7.7749 0.683838 8.37256 1.5979 8.37256H10.9378C11.43 8.37256 11.676 8.61865 11.676 8.94677C11.676 9.23974 11.43 9.49756 10.9378 9.49756H8.14868C7.73852 9.49756 7.51587 9.73193 7.51587 10.2124C7.51587 11.2671 8.19556 12.1109 9.61352 12.1109H10.9378C11.43 12.1109 11.676 12.3569 11.676 12.6851C11.676 12.978 11.43 13.2359 10.9378 13.2359H9.50806C9.08618 13.2359 8.88696 13.4585 8.88696 13.9507C8.88696 15.0523 9.71899 15.8609 10.9964 15.8609H11.676C12.18 15.8609 12.4143 16.1187 12.4143 16.4351C12.4143 16.728 12.18 16.9859 11.676 16.9859H10.6331C10.3753 16.9859 10.2346 17.1382 10.2346 17.396C10.2346 18.5679 11.5589 19.6109 13.7268 19.6109H16.0706C21.801 19.6109 25.1409 16.6109 25.1409 11.2671Z" fill="black" fill-opacity="0.85"/>
</g>
<defs>
<clipPath id="clip0_2207_18800">
<rect width="25.0547" height="19.5352" fill="white" transform="translate(0.0861816 0.0756836)"/>
</clipPath>
</defs>
</svg>
