<svg width="24" height="24" viewBox="0 0 24 24" fill="none" xmlns="http://www.w3.org/2000/svg">
<g clip-path="url(#clip0_2207_10647)">
<path d="M12.0224 23.9833C18.5615 23.9833 23.9755 18.5576 23.9755 12.0302C23.9755 5.49121 18.5498 0.0771484 12.0107 0.0771484C5.4834 0.0771484 0.0693359 5.49121 0.0693359 12.0302C0.0693359 18.5576 5.49512 23.9833 12.0224 23.9833ZM12.0224 21.9912C6.49122 21.9912 2.07325 17.5615 2.07325 12.0302C2.07325 6.49903 6.4795 2.06934 12.0107 2.06934C17.542 2.06934 21.9834 6.49903 21.9834 12.0302C21.9834 17.5615 17.5537 21.9912 12.0224 21.9912Z" fill="black" fill-opacity="0.85"/>
<path d="M8.27256 9.52246H9.26866V8.65527C9.26866 7.17871 10.4405 6.07715 11.9756 6.07715C13.5108 6.07715 14.6827 7.17871 14.6827 8.65527V9.52246H15.6788V8.65527C15.6788 6.62793 14.0733 5.09277 11.9756 5.09277C9.87803 5.09277 8.27256 6.62793 8.27256 8.65527V9.52246ZM11.9756 12.2764C13.9327 12.2764 15.6671 11.503 16.6632 9.48731C16.4053 9.34668 16.1006 9.28809 15.7374 9.28809H8.21397C7.85069 9.28809 7.546 9.34668 7.28819 9.48731C8.28428 11.503 10.0187 12.2764 11.9756 12.2764ZM18.0342 15.2647L17.5303 10.8936C17.4952 10.6241 17.4249 10.3897 17.3077 10.1905C16.3233 11.9834 14.8116 12.8858 13.171 13.1788V13.5655C13.171 13.9756 12.9249 14.2217 12.5147 14.2217H11.4366C11.0264 14.2217 10.7803 13.9756 10.7803 13.5655V13.1788C9.13975 12.8858 7.62803 11.9834 6.64366 10.1905C6.52647 10.3897 6.45616 10.6241 6.421 10.8936L5.9171 15.2647C5.74132 16.7999 6.421 17.6202 7.85069 17.6202H16.1006C17.5303 17.6202 18.21 16.7999 18.0342 15.2647Z" fill="black" fill-opacity="0.85"/>
</g>
<defs>
<clipPath id="clip0_2207_10647">
<rect width="23.9062" height="23.918" fill="white" transform="translate(0.0693359 0.0771484)"/>
</clipPath>
</defs>
</svg>
