<svg width="24" height="26" viewBox="0 0 24 26" fill="none" xmlns="http://www.w3.org/2000/svg">
<g clip-path="url(#clip0_2207_18708)">
<path d="M23.9172 8.30371C23.9172 4.50684 21.4445 1.33106 18.4563 1.33106H14.718C13.2297 0.545898 11.425 0.0771484 9.40942 0.0771484H7.83911C6.43286 0.0771484 5.21411 0.15918 4.40552 0.370117C2.8352 0.745117 1.85083 1.84668 1.85083 3.22949C1.85083 3.51074 1.8977 3.78027 1.96802 4.02637C1.19458 4.62403 0.760987 5.46777 0.760987 6.41699C0.760987 6.87403 0.843018 7.31934 1.0188 7.69434C0.491455 8.2334 0.186768 9.01856 0.186768 9.83887C0.186768 10.3662 0.327393 10.9287 0.550049 11.3388C0.233643 11.7959 0.0461426 12.4404 0.0461426 13.1083C0.0461426 14.8076 1.37036 16.1435 3.05786 16.1435H7.3352C7.59302 16.1435 7.75708 16.2607 7.75708 16.4833C7.75708 17.7021 5.8352 20.5615 5.8352 22.8583C5.8352 24.4404 6.93676 25.5654 8.44848 25.5654C9.56176 25.5654 10.3117 24.9912 11.0383 23.5849C12.4211 20.9365 14.0617 18.581 16.7336 15.3232H18.8781C21.6672 15.3232 23.9172 12.1709 23.9172 8.30371ZM17.3195 8.36231C17.3195 10.8115 16.7688 12.3701 15.2453 14.4209C13.5461 16.6826 11.1789 19.413 9.49145 22.788C9.05786 23.6318 8.78833 23.831 8.37817 23.831C7.8977 23.831 7.56958 23.4912 7.56958 22.8583C7.56958 21.0185 9.49145 18.2529 9.49145 16.4833C9.49145 15.1943 8.43676 14.4091 7.08911 14.4091H3.05786C2.3313 14.4091 1.78052 13.8583 1.78052 13.1083C1.78052 12.5693 1.94458 12.2294 2.38989 11.7959C2.60083 11.6083 2.62426 11.3623 2.44848 11.1513C2.0852 10.6123 1.92114 10.2841 1.92114 9.83887C1.92114 9.29981 2.17895 8.85449 2.69458 8.45606C2.97583 8.24512 3.09302 7.95215 2.91723 7.60059C2.63598 7.07324 2.49536 6.82715 2.49536 6.41699C2.49536 5.81934 2.88208 5.35059 3.70239 4.92871C3.9602 4.78809 4.0188 4.57715 3.90161 4.31934C3.63208 3.62793 3.59692 3.52246 3.59692 3.22949C3.59692 2.69043 3.98364 2.25684 4.80395 2.0459C5.47192 1.87012 6.53833 1.79981 7.82739 1.79981H9.28052C14.1086 1.81153 17.3195 4.55371 17.3195 8.36231ZM22.1828 8.30371C22.1828 11.2099 20.6125 13.5888 18.8781 13.5888C18.5383 13.5888 18.1984 13.5888 17.8586 13.5888C18.6906 12.0068 19.0539 10.3662 19.0539 8.39746C19.0539 6.29981 18.3039 4.47168 16.9563 3.07715C17.4484 3.07715 17.9523 3.07715 18.4563 3.07715C20.4367 3.07715 22.1828 5.45606 22.1828 8.30371Z" fill="black" fill-opacity="0.85"/>
</g>
<defs>
<clipPath id="clip0_2207_18708">
<rect width="23.8711" height="25.5352" fill="white" transform="translate(0.0461426 0.0771484)"/>
</clipPath>
</defs>
</svg>
