<svg width="19" height="25" viewBox="0 0 19 25" fill="none" xmlns="http://www.w3.org/2000/svg">
<g clip-path="url(#clip0_2207_18816)">
<path d="M10.622 24.0171C15.708 24.0171 18.5674 20.8296 18.5674 15.3921V13.1421C18.5674 11.0796 17.5713 9.82568 16.458 9.82568C16.2002 9.82568 16.0713 9.95459 16.0713 10.2007V11.1968C16.0713 11.6655 15.8252 11.8999 15.5439 11.8999C15.2392 11.8999 15.0048 11.6655 15.0048 11.1968V10.5405C15.0048 9.33349 14.2197 8.53662 13.1767 8.53662C12.6963 8.53662 12.4853 8.73584 12.4853 9.13427V10.4937C12.4853 10.9624 12.2509 11.1968 11.9697 11.1968C11.665 11.1968 11.4189 10.9624 11.4189 10.4937V9.23974C11.4189 7.88037 10.622 7.23584 9.61425 7.23584C9.15722 7.23584 8.92285 7.44677 8.92285 7.83349V10.4937C8.92285 10.9624 8.67675 11.1968 8.39551 11.1968C8.09082 11.1968 7.85644 10.9624 7.85644 10.4937V1.59912C7.85644 0.731934 7.28222 0.169434 6.55566 0.169434C5.77051 0.169434 5.21972 0.731934 5.21972 1.59912V14.6187C5.21972 14.9468 5.02051 15.1109 4.82129 15.1109C4.62207 15.1109 4.45801 14.9937 4.31738 14.6655L2.59472 10.5991C2.33691 10.0015 1.93847 9.74365 1.41113 9.74365C0.614258 9.74365 0.0986328 10.2945 0.0986328 10.9507C0.0986328 11.2202 0.157227 11.4429 0.215821 11.6304L2.11425 17.2905C3.73144 22.0601 6.88379 24.0171 10.622 24.0171Z" fill="black" fill-opacity="0.85"/>
</g>
<defs>
<clipPath id="clip0_2207_18816">
<rect width="18.4688" height="23.9414" fill="white" transform="translate(0.0986328 0.0756836)"/>
</clipPath>
</defs>
</svg>
