<svg width="27" height="26" viewBox="0 0 27 26" fill="none" xmlns="http://www.w3.org/2000/svg">
<g clip-path="url(#clip0_2207_18740)">
<path d="M0.827637 15.66C1.24952 15.66 1.53076 15.3319 1.54248 14.91C1.63623 11.0077 3.1128 7.3866 7.40186 4.85535C7.76514 4.63269 7.88233 4.21082 7.70655 3.84754C7.50733 3.49597 7.00342 3.34363 6.64014 3.578C2.01123 6.19129 0.0776367 10.41 0.0776367 14.8866C0.0776367 15.3084 0.417481 15.66 0.827637 15.66Z" fill="black" fill-opacity="0.85"/>
<path d="M20.6793 24.4492C26.3043 22.3984 28.2847 17.5117 26.1402 11.582L25.3785 9.46091C24.3004 6.46091 21.9683 5.45309 20.1988 6.12106C20.023 6.19138 19.8589 6.27341 19.7066 6.37888C18.3472 5.45309 16.7183 5.81638 15.9918 6.40231C14.9371 5.64059 13.7066 5.68747 12.7574 6.07419L11.3629 2.28903C10.7652 0.636685 9.12457 -0.125033 7.60113 0.425748C6.0191 0.988248 5.28081 2.62888 5.87847 4.2695L8.56207 11.6523L8.23394 11.3359C7.54253 10.9609 6.7691 10.914 6.03081 11.1835C4.48394 11.746 3.73394 13.3398 4.26128 14.8163C4.40191 15.2031 4.61285 15.5663 4.85894 15.871L8.5855 20.5351C12.1949 25.0585 16.5777 25.9374 20.6793 24.4492Z" fill="white"/>
<path d="M20.1285 22.9492C24.9097 21.2148 26.5035 17.2421 24.6402 12.121L23.8668 10.0117C23.1636 8.07809 21.8043 7.23434 20.7496 7.60934C20.5152 7.70309 20.4332 7.87888 20.5152 8.10153L20.855 9.03903C21.0191 9.48434 20.8668 9.77731 20.6089 9.88278C20.316 9.97653 20.0113 9.84763 19.8589 9.40231L19.6363 8.79294C19.2144 7.6445 18.2183 7.16403 17.2339 7.52731C16.7769 7.69138 16.648 7.94919 16.7886 8.32419L17.2574 9.60153C17.4097 10.0468 17.2691 10.3398 16.9996 10.4453C16.7183 10.5507 16.4136 10.4101 16.2496 9.96481L15.816 8.79294C15.3589 7.50388 14.3863 7.17575 13.4371 7.52731C13.0152 7.67966 12.8629 7.96091 12.9918 8.32419L13.9058 10.8203C14.0699 11.2656 13.9175 11.5585 13.648 11.664C13.3668 11.7695 13.0621 11.6288 12.898 11.1835L9.86282 2.82809C9.55813 2.00778 8.83157 1.67966 8.15188 1.92575C7.40188 2.19528 7.08547 2.91013 7.39016 3.73044L11.8433 15.9648C11.9488 16.2695 11.8199 16.4921 11.6207 16.5624C11.4449 16.6328 11.2457 16.5742 11.0113 16.3163L7.98782 13.082C7.5425 12.6132 7.08547 12.496 6.59328 12.6835C5.84328 12.9531 5.5386 13.6445 5.77297 14.2773C5.86672 14.5234 5.99563 14.7109 6.11282 14.8632L9.82766 19.539C12.98 23.4765 16.6129 24.2265 20.1285 22.9492Z" fill="black" fill-opacity="0.85"/>
</g>
<defs>
<clipPath id="clip0_2207_18740">
<rect width="26.9073" height="25.0399" fill="white" transform="translate(0.0776367 0.0756836)"/>
</clipPath>
</defs>
</svg>
