<svg width="24" height="24" viewBox="0 0 24 24" fill="none" xmlns="http://www.w3.org/2000/svg">
<g clip-path="url(#clip0_2207_18721)">
<path d="M12.0035 23.9833C18.5426 23.9833 23.9566 18.5576 23.9566 12.0302C23.9566 5.49121 18.5309 0.0771484 11.9918 0.0771484C5.46447 0.0771484 0.050415 5.49121 0.050415 12.0302C0.050415 18.5576 5.4762 23.9833 12.0035 23.9833Z" fill="black" fill-opacity="0.85"/>
<path d="M18.8004 10.003C18.8004 11.9952 17.6871 13.5772 16.2223 13.5772H15.2848C15.8238 12.8506 16.4684 11.7022 16.4918 10.0616C16.5152 8.5733 16.0113 7.28424 14.816 6.41705H15.9879C17.6168 6.41705 18.8004 8.04596 18.8004 10.003ZM15.6129 10.0499C15.5895 11.5967 15.1676 12.5342 14.3473 13.6358C13.3512 14.96 12.0621 16.5069 11.0777 18.3936C10.8434 18.8858 10.609 19.2022 10.1402 19.2022C9.63636 19.2022 9.23792 18.8389 9.23792 18.2413C9.23792 17.1045 10.3277 15.4991 10.3277 14.6084C10.3277 14.128 9.95276 13.8233 9.34339 13.8233H7.04651C6.4137 13.8233 5.92151 13.3077 5.92151 12.6631C5.92151 12.3233 6.05042 12.0069 6.23792 11.8194C6.35511 11.7374 6.37854 11.6788 6.26136 11.5967C6.0973 11.4327 6.00354 11.0928 6.00354 10.7999C6.00354 10.3545 6.20276 10.0147 6.51917 9.82721C6.62464 9.76862 6.63636 9.67487 6.56604 9.5694C6.4137 9.39362 6.31995 9.12409 6.31995 8.83112C6.31995 8.31549 6.67151 7.92877 7.05823 7.77643C7.12854 7.75299 7.14026 7.67096 7.09339 7.58893C7.02308 7.46002 6.95276 7.24909 6.95276 7.01471C6.95276 6.39362 7.45667 6.10065 7.98401 5.96002C8.33558 5.87799 8.95667 5.80768 9.7887 5.8194L10.691 5.83112C13.7262 5.86627 15.6481 7.65924 15.6129 10.0499Z" fill="white"/>
</g>
<defs>
<clipPath id="clip0_2207_18721">
<rect width="23.9062" height="23.918" fill="white" transform="translate(0.050415 0.0771484)"/>
</clipPath>
</defs>
</svg>
