<svg width="31" height="27" viewBox="0 0 31 27" fill="none" xmlns="http://www.w3.org/2000/svg">
<g clip-path="url(#clip0_2207_18756)">
<path d="M0.00219727 1.32801C0.00219727 1.7616 0.353759 2.12488 0.799072 2.12488H11.3928C11.8264 2.12488 12.178 1.7616 12.178 1.32801C12.178 0.89441 11.8264 0.542847 11.3928 0.542847H0.799072C0.353759 0.542847 0.00219727 0.89441 0.00219727 1.32801Z" fill="black" fill-opacity="0.85"/>
<path d="M0.00219727 5.73426C0.00219727 6.16785 0.353759 6.51941 0.799072 6.51941H11.3928C11.8264 6.51941 12.178 6.16785 12.178 5.73426C12.178 5.30066 11.8264 4.93738 11.3928 4.93738H0.799072C0.353759 4.93738 0.00219727 5.30066 0.00219727 5.73426Z" fill="black" fill-opacity="0.85"/>
<path d="M0.00219727 10.1405C0.00219727 10.5741 0.353759 10.9257 0.799072 10.9257H7.09204C7.52564 10.9257 7.8772 10.5741 7.8772 10.1405C7.8772 9.69519 7.52564 9.34363 7.09204 9.34363H0.799072C0.353759 9.34363 0.00219727 9.69519 0.00219727 10.1405Z" fill="black" fill-opacity="0.85"/>
<path d="M23.5803 25.4803C29.0647 23.4882 31.4788 18.3085 29.3108 12.3202L28.4319 9.90613C27.3655 6.98816 25.1975 5.41785 22.6545 5.82801C21.6233 5.12488 20.3342 5.01941 19.1858 5.53504C18.4358 5.07801 17.5569 4.91394 16.7131 5.07801L15.928 2.94519C15.1311 0.753785 12.9631 -0.289184 10.8069 0.472535C8.68578 1.26941 7.6311 3.42566 8.45141 5.66394L10.2913 10.7264C9.84594 10.5624 9.37719 10.5624 8.93188 10.7264C7.43188 11.2772 6.41235 12.6014 6.41235 14.1366C6.41235 15.121 6.86938 16.1405 7.53735 16.9491L11.4631 21.7069C14.8499 25.785 19.01 27.1327 23.5803 25.4803Z" fill="white"/>
<path d="M23.0295 23.9686C27.6936 22.2811 29.6741 18.0155 27.7991 12.8592L26.9202 10.4569C25.9944 7.91394 24.26 6.87098 22.1975 7.58582C21.6584 6.87098 20.803 6.62488 19.8889 6.95301C19.5491 7.08191 19.2561 7.25769 18.9866 7.46863C18.3772 6.69519 17.4514 6.41394 16.4905 6.75379C16.2444 6.84754 15.9866 6.98816 15.7639 7.15223L14.428 3.49598C13.9124 2.10144 12.6584 1.51551 11.3577 1.98426C10.0452 2.46473 9.44753 3.71863 9.96316 5.11316L13.303 14.3007C13.3264 14.3592 13.3147 14.4061 13.2561 14.4296C13.2092 14.453 13.1741 14.4296 13.1389 14.3944L11.7561 12.8944C11.0764 12.1678 10.2678 11.9452 9.48269 12.2264C8.41628 12.6249 7.71316 13.6444 8.15847 14.8514C8.27566 15.1913 8.51003 15.6014 8.77956 15.9413L12.7053 20.6874C15.6702 24.2733 19.1506 25.3866 23.0295 23.9686ZM22.5374 22.4335C19.4553 23.5585 16.5842 22.9842 13.8772 19.7147L9.95144 14.9921C9.82253 14.8514 9.7405 14.7225 9.67019 14.5233C9.54128 14.1483 9.70534 13.7147 10.1506 13.5507C10.5139 13.4217 10.8186 13.5624 11.1116 13.8788L13.8303 16.6796C14.2756 17.1483 14.6741 17.1952 15.0725 17.0546C15.5295 16.8905 15.7288 16.3983 15.5413 15.8944L11.3928 4.48035C11.217 4.0116 11.4163 3.56629 11.8733 3.40223C12.3303 3.23816 12.7522 3.46082 12.928 3.92957L15.8928 12.0741C16.0334 12.4608 16.467 12.6366 16.842 12.496C17.217 12.3553 17.428 11.9452 17.2874 11.5702L16.221 8.62879C16.3733 8.47644 16.6077 8.3241 16.8186 8.24207C17.3811 8.04285 17.8381 8.28894 18.0491 8.86316L18.9749 11.4296C19.1272 11.828 19.5608 11.9803 19.9358 11.8397C20.2991 11.7108 20.5217 11.3241 20.3811 10.9139L19.6194 8.82801C19.7717 8.67566 20.0061 8.52332 20.217 8.44129C20.7678 8.24207 21.2366 8.48816 21.4475 9.06238L22.0686 10.7733C22.221 11.1835 22.6545 11.3358 23.0295 11.1952C23.3811 11.0663 23.6155 10.6678 23.4631 10.2694L23.0061 9.00379C23.9905 8.65223 24.9163 9.4491 25.5491 11.2069L26.2756 13.2108C27.8928 17.6405 26.428 21.0155 22.5374 22.4335Z" fill="black" fill-opacity="0.85"/>
</g>
<defs>
<clipPath id="clip0_2207_18756">
<rect width="30.0992" height="26.0914" fill="white" transform="translate(0.00219727 0.0771484)"/>
</clipPath>
</defs>
</svg>
