<svg width="30" height="26" viewBox="0 0 30 26" fill="none" xmlns="http://www.w3.org/2000/svg">
<g clip-path="url(#clip0_2207_18290)">
<path d="M0.0839844 21.2763C0.0839844 22.5419 0.951172 23.6904 2.52148 23.6904H27.0606C28.6309 23.6904 29.4863 22.5419 29.4863 21.2763C29.4863 20.3388 28.9942 19.3427 27.9863 18.7802L14.791 11.374L1.58398 18.7802C0.576172 19.3427 0.0839844 20.3388 0.0839844 21.2763ZM1.98242 21.1709C1.98242 20.8662 2.13476 20.5966 2.5332 20.374L14.791 13.5185L27.0488 20.374C27.4473 20.5966 27.5996 20.8662 27.5996 21.1709C27.5996 21.5341 27.3652 21.8271 26.8613 21.8271H2.70898C2.21679 21.8271 1.98242 21.5341 1.98242 21.1709ZM13.877 12.2529H15.6934V11.0107C15.6934 9.95606 16.209 9.5459 17.1231 8.80762C18.0723 8.03418 19.584 6.95606 19.584 4.58887C19.584 1.88184 17.6856 0.0771484 14.8496 0.0771484C12.0371 0.0771484 10.1621 2.05762 10.1621 5.02246C10.1621 5.58496 10.5488 5.97168 11.0528 5.97168C11.5449 5.97168 11.9317 5.58496 11.9317 5.13965C11.9317 3.1709 13.1035 1.8584 14.8496 1.8584C16.6309 1.8584 17.8262 2.94824 17.8262 4.58887C17.8262 6.05371 17.041 6.70996 16.2442 7.35449C15.2012 8.19824 13.877 8.93653 13.877 11.0107V12.2529Z" fill="black" fill-opacity="0.85"/>
</g>
<defs>
<clipPath id="clip0_2207_18290">
<rect width="29.4023" height="25.6992" fill="white" transform="translate(0.0839844 0.0771484)"/>
</clipPath>
</defs>
</svg>
