<svg width="36" height="28" viewBox="0 0 36 28" fill="none" xmlns="http://www.w3.org/2000/svg">
<g clip-path="url(#clip0_2207_18036)">
<path d="M18.4907 24.4287C19.3111 24.4287 20.0376 24.0419 21.5728 24.0419C23.1196 24.0419 23.5415 24.4287 24.69 24.4287C26.4243 24.4287 27.3384 23.7138 27.3384 22.4951C27.3384 20.4326 25.1001 19.0498 21.5611 19.0498C19.8267 19.0498 19.0532 19.2138 18.0689 19.4599L16.8032 16.5771C15.5611 13.8115 13.5571 12.0068 10.7212 12.0068H9.33838C8.88134 12.0068 8.57666 11.8076 8.57666 11.3623C8.57666 10.6357 9.54932 10.4599 10.6157 10.4599C14.0493 10.4599 16.5806 12.3466 18.1275 16.1435L18.9361 18.1005C19.7212 17.9365 20.5767 17.8544 21.4439 17.8544C22.1353 17.8544 22.7681 17.9013 23.4361 17.9951C24.1509 17.4677 24.9595 16.9169 26.1431 16.4013C27.4556 17.2919 28.9556 17.8662 30.5142 17.8662C33.7485 17.8662 35.2017 17.163 35.2017 14.1044C35.2017 10.413 32.5298 7.64746 28.979 7.65918L25.8384 3.47559C24.0923 1.16699 21.9712 0.0771484 19.8853 0.0771484C18.1743 0.0771484 15.6314 1.06152 15.6314 2.44434C15.6314 3.38184 17.5298 4.69434 18.9946 5.59668L25.7446 9.72168C25.2173 10.2255 24.7485 10.4951 24.1626 10.4951C23.2603 10.4951 22.3111 9.94434 20.8931 9.12403C17.2837 7.03809 14.4946 5.08106 10.7446 5.08106C6.84229 5.08106 3.87745 7.31934 2.29541 11.6787C1.0415 11.6787 0.0922852 12.499 0.0922852 13.706C0.0922852 15.0654 1.17041 15.9209 2.64698 15.9209C4.3579 18.3115 7.1587 19.2724 10.4751 19.2724C10.6509 19.2724 10.8267 19.2607 11.0025 19.2607L15.7485 23.1982C16.9321 24.2529 17.6001 24.4287 18.4907 24.4287ZM10.0181 25.3544C12.2798 25.3544 13.6626 24.9209 14.7876 24.1474L11.1548 21.124C10.9907 21.1357 10.7915 21.1591 10.5454 21.1591C9.95948 21.1591 9.09229 20.9833 8.06104 20.9833C6.74854 20.9833 5.93995 21.6865 5.93995 22.7412C5.93995 24.3115 7.5337 25.3544 10.0181 25.3544ZM30.2446 13.5419C29.7173 13.5419 29.2954 13.0966 29.2954 12.581C29.2954 12.0537 29.729 11.5849 30.2564 11.5849C30.7954 11.5849 31.2173 12.0068 31.2173 12.5341C31.2173 13.0615 30.7837 13.5419 30.2446 13.5419Z" fill="black" fill-opacity="0.85"/>
</g>
<defs>
<clipPath id="clip0_2207_18036">
<rect width="35.1094" height="26.9648" fill="white" transform="translate(0.0922852 0.0771484)"/>
</clipPath>
</defs>
</svg>
