<svg width="24" height="24" viewBox="0 0 24 24" fill="none" xmlns="http://www.w3.org/2000/svg">
<g clip-path="url(#clip0_2207_18045)">
<path d="M12.0434 23.9833C18.5825 23.9833 23.9965 18.5576 23.9965 12.0302C23.9965 5.49121 18.5708 0.0771484 12.0317 0.0771484C5.50439 0.0771484 0.090332 5.49121 0.090332 12.0302C0.090332 18.5576 5.51611 23.9833 12.0434 23.9833Z" fill="black" fill-opacity="0.85"/>
<path d="M12.4419 17.21C12.0083 17.21 11.7153 17.128 11.1294 16.6241L8.83252 14.7256C8.76221 14.7256 8.66845 14.7374 8.58642 14.7374C6.99267 14.7374 5.6333 14.292 4.80127 13.1319C4.09814 13.1202 3.5708 12.71 3.5708 12.0655C3.5708 11.4795 4.02783 11.0928 4.63721 11.0811C5.39892 8.97168 6.84033 7.88184 8.71533 7.88184C10.52 7.88184 11.8676 8.85449 13.602 9.85059C14.2817 10.2491 14.7387 10.5069 15.1841 10.5069C15.4653 10.5069 15.688 10.378 15.9458 10.1319L12.6997 8.15137C11.9848 7.71777 11.0708 7.08496 11.0708 6.62793C11.0708 5.94824 12.2895 5.47949 13.1215 5.47949C14.1176 5.47949 15.1372 6.03027 15.9692 7.12012L17.5044 9.15918C19.2153 9.13574 20.5044 10.4717 20.5044 12.2413C20.5044 13.7178 19.8012 14.0694 18.2544 14.0694C17.4809 14.0694 16.7661 13.7881 16.1333 13.3545C15.5591 13.6006 15.1723 13.8702 14.8208 14.1163C14.5044 14.0811 14.2114 14.0577 13.8833 14.0577C13.4614 14.0577 13.0395 14.0928 12.6645 14.1631L12.2778 13.2256C11.5161 11.3975 10.2973 10.4952 8.64502 10.4952C8.14111 10.4952 7.67236 10.5772 7.67236 10.9288C7.67236 11.1514 7.81299 11.2334 8.03564 11.2334H8.70361C10.0747 11.2334 11.0473 12.0889 11.6333 13.4483L12.2309 14.8311C12.7114 14.7139 13.0981 14.6436 13.9301 14.6436C15.6294 14.6436 16.7075 15.2881 16.7075 16.296C16.7075 16.8936 16.2739 17.21 15.4419 17.21C14.8794 17.21 14.6801 17.0225 13.9419 17.0225C13.1919 17.0225 12.8403 17.21 12.4419 17.21ZM8.36377 17.667C7.15674 17.667 6.39502 17.1749 6.39502 16.4131C6.39502 15.8975 6.78174 15.5694 7.41455 15.5694C7.91845 15.5694 8.34033 15.6514 8.60986 15.6514C8.73877 15.6514 8.8208 15.628 8.91455 15.628L10.6606 17.0811C10.1098 17.4561 9.45361 17.667 8.36377 17.667ZM18.1137 11.9834C18.3598 11.9834 18.5708 11.7374 18.5708 11.4795C18.5708 11.2452 18.3715 11.0342 18.1255 11.0342C17.8676 11.0342 17.6567 11.2569 17.6567 11.5264C17.6567 11.7491 17.8559 11.9834 18.1137 11.9834Z" fill="white"/>
</g>
<defs>
<clipPath id="clip0_2207_18045">
<rect width="23.9062" height="23.918" fill="white" transform="translate(0.090332 0.0771484)"/>
</clipPath>
</defs>
</svg>
