<svg width="35" height="20" viewBox="0 0 35 20" fill="none" xmlns="http://www.w3.org/2000/svg">
<g clip-path="url(#clip0_2207_15721)">
<path d="M1.16236 4.80079C1.78345 4.80079 2.29908 4.28516 2.29908 3.64063C2.29908 3.01954 1.78345 2.50391 1.16236 2.50391C0.517822 2.50391 0.00219727 3.00782 0.00219727 3.64063C0.00219727 4.28516 0.517822 4.80079 1.16236 4.80079ZM1.16236 11.1758C1.78345 11.1758 2.29908 10.6601 2.29908 10.0156C2.29908 9.38282 1.78345 8.86719 1.16236 8.86719C0.517822 8.86719 0.00219727 9.38282 0.00219727 10.0156C0.00219727 10.6601 0.517822 11.1758 1.16236 11.1758ZM1.16236 17.539C1.78345 17.539 2.29908 17.0234 2.29908 16.3789C2.29908 15.7578 1.78345 15.2422 1.16236 15.2422C0.517822 15.2422 0.00219727 15.7578 0.00219727 16.3789C0.00219727 17.0234 0.517822 17.539 1.16236 17.539Z" fill="black" fill-opacity="0.85"/>
<path d="M5.31078 5.35156C6.24828 5.35156 7.01 4.58984 7.01 3.64062C7.01 2.71485 6.24828 1.95312 5.31078 1.95312C4.37328 1.95312 3.61157 2.71485 3.61157 3.64062C3.61157 4.58984 4.37328 5.35156 5.31078 5.35156ZM5.31078 11.7265C6.24828 11.7265 7.01 10.9648 7.01 10.0156C7.01 9.07812 6.24828 8.31641 5.31078 8.31641C4.37328 8.31641 3.61157 9.07812 3.61157 10.0156C3.61157 10.9648 4.37328 11.7265 5.31078 11.7265ZM5.31078 18.0898C6.24828 18.0898 7.01 17.3281 7.01 16.3789C7.01 15.4531 6.24828 14.6914 5.31078 14.6914C4.37328 14.6914 3.61157 15.4531 3.61157 16.3789C3.61157 17.3281 4.37328 18.0898 5.31078 18.0898Z" fill="black" fill-opacity="0.85"/>
<path d="M10.6194 5.93751C11.8733 5.93751 12.9045 4.91797 12.9045 3.64063C12.9045 2.38672 11.8733 1.36719 10.6194 1.36719C9.35376 1.36719 8.32251 2.38672 8.32251 3.64063C8.32251 4.91797 9.35376 5.93751 10.6194 5.93751ZM10.6194 12.3125C11.8733 12.3125 12.9045 11.2812 12.9045 10.0156C12.9045 8.76172 11.8733 7.73047 10.6194 7.73047C9.35376 7.73047 8.32251 8.76172 8.32251 10.0156C8.32251 11.2812 9.35376 12.3125 10.6194 12.3125ZM10.6194 18.6758C11.8733 18.6758 12.9045 17.6562 12.9045 16.3789C12.9045 15.125 11.8733 14.1054 10.6194 14.1054C9.35376 14.1054 8.32251 15.125 8.32251 16.3789C8.32251 17.6562 9.35376 18.6758 10.6194 18.6758Z" fill="black" fill-opacity="0.85"/>
<path d="M14.6272 10.0156C14.6038 12.2773 14.7913 14.4453 15.4124 16.6601C16.1272 19.0742 17.4866 19.9297 20.346 19.9297H21.0022C27.9866 19.9297 34.2092 15.3711 34.2092 10.0156C34.2092 4.66015 27.9866 0.078125 21.0022 0.078125H20.346C17.4983 0.078125 16.1389 0.945313 15.4124 3.35938C14.7913 5.58594 14.6038 7.75391 14.6272 10.0156Z" fill="black" fill-opacity="0.85"/>
</g>
<defs>
<clipPath id="clip0_2207_15721">
<rect width="34.207" height="19.8867" fill="white" transform="translate(0.00219727 0.078125)"/>
</clipPath>
</defs>
</svg>
