<svg width="35" height="20" viewBox="0 0 35 20" fill="none" xmlns="http://www.w3.org/2000/svg">
<g clip-path="url(#clip0_2207_15714)">
<path d="M1.16016 4.80079C1.78125 4.80079 2.29688 4.28516 2.29688 3.64063C2.29688 3.01954 1.78125 2.50391 1.16016 2.50391C0.515625 2.50391 0 3.00782 0 3.64063C0 4.28516 0.515625 4.80079 1.16016 4.80079ZM1.16016 11.1758C1.78125 11.1758 2.29688 10.6601 2.29688 10.0156C2.29688 9.38282 1.78125 8.86719 1.16016 8.86719C0.515625 8.86719 0 9.38282 0 10.0156C0 10.6601 0.515625 11.1758 1.16016 11.1758ZM1.16016 17.539C1.78125 17.539 2.29688 17.0234 2.29688 16.3789C2.29688 15.7578 1.78125 15.2422 1.16016 15.2422C0.515625 15.2422 0 15.7578 0 16.3789C0 17.0234 0.515625 17.539 1.16016 17.539Z" fill="black" fill-opacity="0.85"/>
<path d="M5.30858 5.35156C6.24608 5.35156 7.00781 4.58984 7.00781 3.64062C7.00781 2.71485 6.24608 1.95312 5.30858 1.95312C4.37108 1.95312 3.60938 2.71485 3.60938 3.64062C3.60938 4.58984 4.37108 5.35156 5.30858 5.35156ZM5.30858 11.7265C6.24608 11.7265 7.00781 10.9648 7.00781 10.0156C7.00781 9.07812 6.24608 8.31641 5.30858 8.31641C4.37108 8.31641 3.60938 9.07812 3.60938 10.0156C3.60938 10.9648 4.37108 11.7265 5.30858 11.7265ZM5.30858 18.0898C6.24608 18.0898 7.00781 17.3281 7.00781 16.3789C7.00781 15.4531 6.24608 14.6914 5.30858 14.6914C4.37108 14.6914 3.60938 15.4531 3.60938 16.3789C3.60938 17.3281 4.37108 18.0898 5.30858 18.0898Z" fill="black" fill-opacity="0.85"/>
<path d="M10.6172 5.93751C11.8711 5.93751 12.9023 4.91797 12.9023 3.64063C12.9023 2.38672 11.8711 1.36719 10.6172 1.36719C9.35156 1.36719 8.32031 2.38672 8.32031 3.64063C8.32031 4.91797 9.35156 5.93751 10.6172 5.93751ZM10.6172 12.3125C11.8711 12.3125 12.9023 11.2812 12.9023 10.0156C12.9023 8.76172 11.8711 7.73047 10.6172 7.73047C9.35156 7.73047 8.32031 8.76172 8.32031 10.0156C8.32031 11.2812 9.35156 12.3125 10.6172 12.3125ZM10.6172 18.6758C11.8711 18.6758 12.9023 17.6562 12.9023 16.3789C12.9023 15.125 11.8711 14.1054 10.6172 14.1054C9.35156 14.1054 8.32031 15.125 8.32031 16.3789C8.32031 17.6562 9.35156 18.6758 10.6172 18.6758Z" fill="black" fill-opacity="0.85"/>
<path d="M14.625 10.0156C14.6016 12.2773 14.7891 14.4453 15.4102 16.6601C16.125 19.0742 17.4844 19.9297 20.3438 19.9297H21C27.9844 19.9297 34.207 15.3711 34.207 10.0156C34.207 4.66015 27.9844 0.078125 21 0.078125H20.3438C17.4961 0.078125 16.1367 0.945313 15.4102 3.35938C14.7891 5.58594 14.6016 7.75391 14.625 10.0156ZM16.5117 10.0156C16.5 7.49609 16.7109 5.67968 17.2266 3.88671C17.6484 2.48046 18.5039 1.95312 20.3438 1.95312H21C26.8945 1.95312 32.3203 5.73829 32.3203 10.0156C32.3203 14.2929 26.8945 18.0547 21 18.0547H20.3438C18.4805 18.0547 17.6367 17.5273 17.2266 16.1445C16.7109 14.3515 16.5 12.5351 16.5117 10.0156Z" fill="black" fill-opacity="0.85"/>
</g>
<defs>
<clipPath id="clip0_2207_15714">
<rect width="34.207" height="19.8867" fill="white" transform="translate(0 0.078125)"/>
</clipPath>
</defs>
</svg>
