<svg width="24" height="24" viewBox="0 0 24 24" fill="none" xmlns="http://www.w3.org/2000/svg">
<g clip-path="url(#clip0_2207_14294)">
<path d="M11.9719 23.9843C18.511 23.9843 23.925 18.5586 23.925 12.0312C23.925 5.49219 18.4993 0.078125 11.9602 0.078125C5.43286 0.078125 0.0187988 5.49219 0.0187988 12.0312C0.0187988 18.5586 5.44458 23.9843 11.9719 23.9843ZM11.9719 21.9922C6.44068 21.9922 2.02271 17.5625 2.02271 12.0312C2.02271 6.50001 6.42896 2.07032 11.9602 2.07032C17.4915 2.07032 21.9329 6.50001 21.9329 12.0312C21.9329 17.5625 17.5032 21.9922 11.9719 21.9922Z" fill="black" fill-opacity="0.85"/>
<path d="M5.63208 12.0078C5.63208 14.2109 6.15942 15.9101 7.06177 17.4687C7.29614 17.8554 7.74146 17.9726 8.15161 17.75C8.52661 17.5508 8.6438 17.082 8.43286 16.6601C7.65942 15.2422 7.21411 13.9179 7.21411 12.0078C7.21411 8.86719 9.11255 6.79297 11.9719 6.79297C14.843 6.79297 16.7649 8.87891 16.7649 12.0078C16.7649 13.9062 16.3196 15.2539 15.5227 16.6601C15.3 17.0703 15.429 17.539 15.804 17.75C16.2024 17.9726 16.6594 17.8554 16.8938 17.4687C17.8079 15.8633 18.3469 14.1758 18.3469 12.0078C18.3469 7.94141 15.7805 5.21094 11.9719 5.21094C8.17505 5.21094 5.63208 7.92969 5.63208 12.0078ZM7.7063 17.2109C7.92896 17.9843 8.62036 18.3711 9.38208 18.125C10.1672 17.914 10.5422 17.2343 10.3079 16.4609L9.46411 13.5664C9.22974 12.7812 8.56177 12.4062 7.78833 12.6406C7.01489 12.8515 6.62818 13.5312 6.86255 14.2929L7.7063 17.2109ZM16.2376 17.2109L17.0813 14.2929C17.3157 13.5195 16.9407 12.8515 16.1555 12.6406C15.3938 12.4062 14.7258 12.7812 14.4915 13.5664L13.636 16.4726C13.4133 17.2578 13.7766 17.914 14.5618 18.125C15.3352 18.3593 16.0149 17.9843 16.2376 17.2109Z" fill="black" fill-opacity="0.85"/>
</g>
<defs>
<clipPath id="clip0_2207_14294">
<rect width="23.9062" height="23.918" fill="white" transform="translate(0.0187988 0.078125)"/>
</clipPath>
</defs>
</svg>
