<svg width="31" height="21" viewBox="0 0 31 21" fill="none" xmlns="http://www.w3.org/2000/svg">
<g clip-path="url(#clip0_2207_15701)">
<path d="M0.943848 5.11166C0.439942 5.11166 0.00634766 5.54525 0.00634766 6.06087C0.00634766 6.5765 0.45166 6.99837 0.943848 6.99837L9.86182 7.0101C9.94385 6.38901 10.0258 5.74448 10.1547 5.11166H0.943848ZM0.943848 9.56479C0.439942 9.56479 0.00634766 10.0218 0.00634766 10.5257C0.00634766 11.0413 0.439942 11.4515 0.943848 11.4515H9.70947C9.69776 11.1116 9.69776 9.91634 9.70947 9.56479H0.943848ZM0.943848 14.0296C0.439942 14.0296 0.00634766 14.4749 0.00634766 14.9788C0.00634766 15.4944 0.439942 15.9163 0.943848 15.9163L10.1547 15.928C10.0258 15.2835 9.94385 14.6507 9.86182 14.0413L0.943848 14.0296ZM4.06104 19.303C3.07666 20.2523 4.35401 21.553 5.36182 20.639C7.67041 18.471 8.13916 14.4398 6.60401 10.5726L6.38135 10.0101C5.09229 6.74056 5.31494 3.43587 7.00244 1.72494C7.98682 0.775722 6.72119 -0.525059 5.68994 0.389004C3.38135 2.5687 2.92432 6.5765 4.45947 10.4437L4.69385 11.0062C5.99463 14.2991 5.76026 17.5804 4.06104 19.303Z" fill="black" fill-opacity="0.85"/>
<path d="M11.2915 10.5141C11.268 12.7758 11.4555 14.9438 12.0766 17.1586C12.7915 19.5727 14.1508 20.4281 17.0102 20.4281H17.6665C24.6508 20.4281 30.8735 15.8695 30.8735 10.5141C30.8735 5.15857 24.6508 0.576538 17.6665 0.576538H17.0102C14.1625 0.576538 12.8032 1.44373 12.0766 3.85779C11.4555 6.08435 11.268 8.25232 11.2915 10.5141Z" fill="black" fill-opacity="0.85"/>
</g>
<defs>
<clipPath id="clip0_2207_15701">
<rect width="30.8672" height="20.8835" fill="white" transform="translate(0.00634766 0.078125)"/>
</clipPath>
</defs>
</svg>
