<svg width="27" height="26" viewBox="0 0 27 26" fill="none" xmlns="http://www.w3.org/2000/svg">
<g clip-path="url(#clip0_2207_18624)">
<path d="M8.01733 19.7656C8.01733 23.0117 10.0329 25.0742 13.197 25.0742C15.5407 25.0742 17.2985 24.0312 18.4118 22.039L19.4665 20.1523C21.9392 15.6406 26.0173 15.0429 26.0173 9.24218C26.0173 3.74609 22.4665 0.078125 17.1462 0.078125C11.697 0.078125 8.01733 3.76953 8.01733 9.27734V19.7656ZM11.4509 16.5312C11.4509 14.2695 13.9353 14.539 13.9353 13.25C13.9353 12.0664 11.4509 11.2109 11.4509 8.59766C11.4509 5.60938 13.736 3.47656 17.1345 3.47656C20.5446 3.47656 22.8181 5.75001 22.8181 9.16016C22.8181 9.66407 22.4079 10.0742 21.904 10.0742C21.4118 10.0742 20.9782 9.66407 20.9782 9.16016C20.9782 6.82812 19.4782 5.3164 17.1345 5.3164C14.8259 5.3164 13.2907 6.69922 13.2907 8.59766C13.2907 11.0469 16.8884 11.6211 16.8884 15.1133C16.8884 17.0469 15.6462 18.6054 13.8181 18.6172C12.4001 18.6172 11.4509 17.7851 11.4509 16.5312Z" fill="black" fill-opacity="0.85"/>
<path d="M1.9939 5.38672C3.07203 5.38672 3.95093 4.50782 3.95093 3.42969C3.95093 2.33985 3.07203 1.46094 1.9939 1.46094C0.904052 1.46094 0.0251465 2.33985 0.0251465 3.42969C0.0251465 4.50782 0.904052 5.38672 1.9939 5.38672Z" fill="black" fill-opacity="0.85"/>
<path d="M1.9939 11.4804C3.07203 11.4804 3.95093 10.6015 3.95093 9.52344C3.95093 8.4336 3.07203 7.55469 1.9939 7.55469C0.904052 7.55469 0.0251465 8.4336 0.0251465 9.52344C0.0251465 10.6015 0.904052 11.4804 1.9939 11.4804Z" fill="black" fill-opacity="0.85"/>
<path d="M1.9939 17.5976C3.07203 17.5976 3.95093 16.7187 3.95093 15.6406C3.95093 14.5508 3.07203 13.6719 1.9939 13.6719C0.904052 13.6719 0.0251465 14.5508 0.0251465 15.6406C0.0251465 16.7187 0.904052 17.5976 1.9939 17.5976Z" fill="black" fill-opacity="0.85"/>
<path d="M1.9939 23.6914C3.07203 23.6914 3.95093 22.8125 3.95093 21.7343C3.95093 20.6445 3.07203 19.7656 1.9939 19.7656C0.904052 19.7656 0.0251465 20.6445 0.0251465 21.7343C0.0251465 22.8125 0.904052 23.6914 1.9939 23.6914Z" fill="black" fill-opacity="0.85"/>
</g>
<defs>
<clipPath id="clip0_2207_18624">
<rect width="25.9922" height="25.0195" fill="white" transform="translate(0.0251465 0.078125)"/>
</clipPath>
</defs>
</svg>
