<svg width="26" height="27" viewBox="0 0 26 27" fill="none" xmlns="http://www.w3.org/2000/svg">
<g clip-path="url(#clip0_2207_7925)">
<path d="M2.50793 10.1797C2.50793 15.1719 6.69152 20.082 13.3009 24.3008C13.547 24.4531 13.9103 24.6172 14.1447 24.6172C14.3908 24.6172 14.7423 24.4531 15.0002 24.3008C21.6095 20.082 25.7931 15.1719 25.7931 10.1797C25.7931 6.03124 22.9455 3.10156 19.1369 3.10156C16.9689 3.10156 15.2111 4.13281 14.1447 5.71484C13.1017 4.14453 11.3322 3.10156 9.15246 3.10156C5.35558 3.10156 2.50793 6.03124 2.50793 10.1797ZM4.39465 10.1797C4.39465 7.0625 6.41027 4.98828 9.12902 4.98828C11.3439 4.98828 12.5978 6.35937 13.3595 7.53124C13.6759 8 13.8752 8.1289 14.1447 8.1289C14.4259 8.1289 14.6017 7.98828 14.9416 7.53124C15.7502 6.38281 16.9689 4.98828 19.1603 4.98828C21.8908 4.98828 23.9064 7.0625 23.9064 10.1797C23.9064 14.539 19.3009 19.2383 14.3908 22.4961C14.2736 22.5781 14.1916 22.6367 14.1447 22.6367C14.1095 22.6367 14.0275 22.5781 13.9103 22.4961C9.00011 19.2383 4.39465 14.539 4.39465 10.1797Z" fill="black" fill-opacity="0.85"/>
<path d="M21.8556 25.0859C22.7462 25.9765 24.1994 25.9765 25.0783 25.0625C25.9455 24.1719 25.9455 22.7539 25.0666 21.875L3.92591 0.746094C3.03528 -0.144531 1.58216 -0.144531 0.703248 0.746094C-0.175659 1.61328 -0.175659 3.07812 0.703248 3.95703L21.8556 25.0859Z" fill="white"/>
<path d="M22.8166 24.1133C23.1681 24.4765 23.7541 24.4765 24.0939 24.1133C24.4455 23.7617 24.4455 23.1992 24.0939 22.8359L2.95325 1.70704C2.60169 1.35547 2.02747 1.35547 1.66419 1.70704C1.32434 2.04688 1.32434 2.64454 1.66419 2.98438L22.8166 24.1133Z" fill="black" fill-opacity="0.85"/>
</g>
<defs>
<clipPath id="clip0_2207_7925">
<rect width="25.749" height="26.8477" fill="white" transform="translate(0.0440674 0.078125)"/>
</clipPath>
</defs>
</svg>
