<svg width="22" height="22" viewBox="0 0 22 22" fill="none" xmlns="http://www.w3.org/2000/svg">
<g clip-path="url(#clip0_2207_18012)">
<path d="M3.73633 21.6758H17.9511C20.4121 21.6758 21.6308 20.457 21.6308 18.0429V3.73438C21.6308 1.32031 20.4121 0.101562 17.9511 0.101562H3.73633C1.28711 0.101562 0.0566406 1.30859 0.0566406 3.73438V18.0429C0.0566406 20.4687 1.28711 21.6758 3.73633 21.6758ZM3.75976 19.789C2.58789 19.789 1.94336 19.1679 1.94336 17.9492V3.82812C1.94336 2.60938 2.58789 1.98828 3.75976 1.98828H17.9277C19.0878 1.98828 19.7441 2.60938 19.7441 3.82812V17.9492C19.7441 19.1679 19.0878 19.789 17.9277 19.789H3.75976Z" fill="black" fill-opacity="0.85"/>
<path d="M5.95117 3.95703C4.99023 3.95703 4.27539 4.70703 4.27539 5.73828C4.27539 7.26171 5.91602 8.59765 7.07617 9.40624C7.19336 9.48828 7.31055 9.54687 7.38086 9.54687C7.46289 9.54687 7.55664 9.47656 7.66211 9.40624C8.8457 8.67968 10.4511 7.26171 10.4511 5.73828C10.4511 4.70703 9.73633 3.95703 8.75195 3.95703C8.1543 3.95703 7.65039 4.32031 7.36914 4.85937C7.07617 4.32031 6.5957 3.95703 5.95117 3.95703ZM5.01367 13.2148H16.5566C16.9668 13.2148 17.2832 12.8984 17.2832 12.4883C17.2832 12.0898 16.9668 11.7734 16.5566 11.7734H5.01367C4.5918 11.7734 4.27539 12.0898 4.27539 12.4883C4.27539 12.8984 4.5918 13.2148 5.01367 13.2148ZM5.01367 17.2226H13.4746C13.8847 17.2226 14.2011 16.9062 14.2011 16.5078C14.2011 16.0976 13.8847 15.7812 13.4746 15.7812H5.01367C4.5918 15.7812 4.27539 16.0976 4.27539 16.5078C4.27539 16.9062 4.5918 17.2226 5.01367 17.2226Z" fill="black" fill-opacity="0.85"/>
</g>
<defs>
<clipPath id="clip0_2207_18012">
<rect width="21.5742" height="21.5977" fill="white" transform="translate(0.0566406 0.078125)"/>
</clipPath>
</defs>
</svg>
