<svg width="28" height="22" viewBox="0 0 28 22" fill="none" xmlns="http://www.w3.org/2000/svg">
<g clip-path="url(#clip0_2207_7915)">
<path d="M3.71961 21.6523H23.993C26.454 21.6523 27.6727 20.4453 27.6727 18.0312V3.71094C27.6727 1.29688 26.454 0.078125 23.993 0.078125H3.71961C1.27039 0.078125 0.039917 1.29688 0.039917 3.71094V18.0312C0.039917 20.4453 1.27039 21.6523 3.71961 21.6523ZM3.74304 19.7656C2.57117 19.7656 1.92664 19.1445 1.92664 17.9258V3.81641C1.92664 2.59766 2.57117 1.96484 3.74304 1.96484H23.9696C25.1297 1.96484 25.786 2.59766 25.786 3.81641V17.9258C25.786 19.1445 25.1297 19.7656 23.9696 19.7656H3.74304Z" fill="black" fill-opacity="0.85"/>
<path d="M11.0672 5.69141C9.07508 5.69141 7.64539 7.19141 7.64539 9.26563C7.64539 12.3476 10.8915 15.1836 13.2938 16.707C13.493 16.8242 13.7508 16.9883 13.9032 16.9883C14.0438 16.9883 14.2782 16.8359 14.454 16.707C16.8446 15.1484 20.1141 12.3476 20.1141 9.26563C20.1141 7.19141 18.6727 5.69141 16.6922 5.69141C15.4501 5.69141 14.454 6.40625 13.8797 7.47266C13.2938 6.40625 12.3211 5.69141 11.0672 5.69141Z" fill="black" fill-opacity="0.85"/>
</g>
<defs>
<clipPath id="clip0_2207_7915">
<rect width="27.6328" height="21.5742" fill="white" transform="translate(0.039917 0.078125)"/>
</clipPath>
</defs>
</svg>
