<svg width="19" height="28" viewBox="0 0 19 28" fill="none" xmlns="http://www.w3.org/2000/svg">
<g clip-path="url(#clip0_2207_18606)">
<path d="M0.0273438 19.7656C0.0273438 23 2.04296 25.0625 5.19531 25.0625C7.55078 25.0625 9.30859 24.0312 10.4218 22.039L11.4765 20.1523C13.9492 15.6289 18.0273 15.0429 18.0273 9.23046C18.0273 3.74609 14.4765 0.078125 9.15625 0.078125C3.70703 0.078125 0.0273438 3.76953 0.0273438 9.27734V19.7656ZM1.79687 19.6484V9.27734C1.79687 4.8125 4.73828 1.84766 9.15625 1.84766C13.4218 1.84766 16.2578 4.8125 16.2578 9.23046C16.2578 14.0937 12.4492 14.9375 9.89453 19.3554L8.875 21.1015C8.04296 22.5547 6.88281 23.2461 5.27734 23.2461C3.10937 23.2461 1.79687 21.8867 1.79687 19.6484Z" fill="black" fill-opacity="0.85"/>
<path d="M3.63672 16.3554C3.63672 17.5742 4.55078 18.3828 5.92187 18.3828C7.6914 18.3711 8.89843 16.8711 8.89843 14.9843C8.89843 11.6093 5.40625 11.0469 5.40625 8.66797C5.40625 6.82813 6.90625 5.46875 9.14453 5.46875C11.4179 5.46875 12.8828 6.94532 12.8828 9.20704C12.8828 9.68751 13.2812 10.0976 13.7617 10.0976C14.2421 10.0976 14.6523 9.68751 14.6523 9.20704C14.6523 5.91407 12.4492 3.69922 9.14453 3.69922C5.85156 3.69922 3.63672 5.77344 3.63672 8.66797C3.63672 11.2109 6.03906 12.0429 6.03906 13.1797C6.03906 14.4453 3.63672 14.164 3.63672 16.3554Z" fill="black" fill-opacity="0.85"/>
</g>
<defs>
<clipPath id="clip0_2207_18606">
<rect width="18" height="27.2461" fill="white" transform="translate(0.0273438 0.078125)"/>
</clipPath>
</defs>
</svg>
