<svg width="26" height="27" viewBox="0 0 26 27" fill="none" xmlns="http://www.w3.org/2000/svg">
<g clip-path="url(#clip0_2207_7931)">
<path d="M14.151 24.6172C14.3971 24.6172 14.7486 24.4531 15.0065 24.3008C21.6158 20.082 25.7994 15.1719 25.7994 10.1797C25.7994 6.03124 22.9518 3.10156 19.2604 3.10156C16.9752 3.10156 15.2174 4.36718 14.151 6.30078C13.108 4.3789 11.3385 3.10156 9.04162 3.10156C5.36193 3.10156 2.51428 6.03124 2.51428 10.1797C2.51428 15.1719 6.69787 20.082 13.3072 24.3008C13.5533 24.4531 13.9166 24.6172 14.151 24.6172Z" fill="black" fill-opacity="0.85"/>
<path d="M21.8619 25.0859C22.7525 25.9765 24.2057 25.9765 25.0846 25.0625C25.9518 24.1719 25.9518 22.7539 25.0729 21.875L3.93226 0.746094C3.04163 -0.144531 1.58851 -0.144531 0.709595 0.746094C-0.169312 1.61328 -0.169312 3.07812 0.709595 3.95703L21.8619 25.0859Z" fill="white"/>
<path d="M22.8229 24.1133C23.1744 24.4765 23.7604 24.4765 24.1002 24.1133C24.4518 23.7617 24.4518 23.1992 24.1002 22.8359L2.9596 1.70704C2.60804 1.35547 2.03382 1.35547 1.67054 1.70704C1.33069 2.04688 1.33069 2.64454 1.67054 2.98438L22.8229 24.1133Z" fill="black" fill-opacity="0.85"/>
</g>
<defs>
<clipPath id="clip0_2207_7931">
<rect width="25.749" height="26.8477" fill="white" transform="translate(0.050415 0.078125)"/>
</clipPath>
</defs>
</svg>
