<svg width="23" height="24" viewBox="0 0 23 24" fill="none" xmlns="http://www.w3.org/2000/svg">
<g clip-path="url(#clip0_2207_15799)">
<path d="M0.209779 4.01567C-0.130065 4.51957 0.139467 5.21098 0.819154 5.21098H2.24884V5.33988C2.24884 9.57035 4.46369 10.1328 4.46369 12.2891C4.46369 14.4571 1.67462 15.0196 1.67462 19.0742C1.67462 20.4453 2.04962 21.4766 3.02228 22.7188C3.86603 23.7735 5.53009 22.6953 4.63947 21.5117C3.92462 20.5625 3.69025 19.918 3.69025 18.9336C3.69025 16.1446 6.47931 15.3008 6.47931 12.2891C6.47931 9.27739 4.25275 8.58599 4.25275 5.33988V5.21098H5.68244C6.36212 5.21098 6.65509 4.53129 6.30353 4.01567L3.93634 0.593796C3.58478 0.0430143 2.95197 0.0195768 2.56525 0.593796L0.209779 4.01567ZM8.0965 3.98051C7.75666 4.48442 8.02619 5.1641 8.70587 5.1641H10.1356V5.30473C10.1356 9.52349 12.3504 10.086 12.3504 12.2422C12.3504 14.4102 9.56134 14.9727 9.56134 19.0391C9.56134 20.3985 9.93634 21.4297 10.909 22.6719C11.7528 23.7383 13.4168 22.6602 12.5262 21.4649C11.8114 20.5156 11.577 19.8711 11.577 18.8985C11.577 16.0977 14.366 15.2539 14.366 12.2422C14.366 9.23051 12.1395 8.55083 12.1395 5.30473V5.1641H13.5692C14.2489 5.1641 14.5418 4.49613 14.1903 3.98051L11.8231 0.546921C11.4715 -0.00386071 10.8387 -0.0272982 10.452 0.546921L8.0965 3.98051ZM15.9832 3.93363C15.6434 4.43754 15.9129 5.12895 16.5926 5.12895H18.034V5.25785C18.034 9.48833 20.2371 10.0508 20.2371 12.2071C20.2371 14.375 17.4481 14.9375 17.4481 18.9922C17.4481 20.3633 17.8231 21.3946 18.7957 22.6367C19.6395 23.6914 21.3035 22.6133 20.4129 21.418C19.6981 20.4805 19.4637 19.836 19.4637 18.8516C19.4637 16.0625 22.2528 15.2188 22.2528 12.2071C22.2528 9.19535 20.0379 8.50395 20.0379 5.25785V5.12895H21.4559C22.1356 5.12895 22.4285 4.44926 22.077 3.93363L19.7215 0.500046C19.3582 -0.0507352 18.7254 -0.0741732 18.3387 0.500046L15.9832 3.93363Z" fill="black" fill-opacity="0.85"/>
</g>
<defs>
<clipPath id="clip0_2207_15799">
<rect width="22.1898" height="23.8009" fill="white" transform="translate(0.0629883 0.078125)"/>
</clipPath>
</defs>
</svg>
