<svg width="24" height="26" viewBox="0 0 24 26" fill="none" xmlns="http://www.w3.org/2000/svg">
<g clip-path="url(#clip0_2207_7823)">
<path d="M21.9236 20.2388C23.0134 19.6059 23.5993 18.9848 23.5993 17.2856V8.16849C23.5993 6.51615 23.0017 5.91849 22.0056 5.34427L13.9665 0.703644C12.5486 -0.116668 11.1657 -0.140106 9.71264 0.703644L1.6853 5.34427C0.67749 5.91849 0.079834 6.51615 0.079834 8.16849V17.2856C0.079834 18.9848 0.67749 19.6059 1.75561 20.2388L9.77124 24.8559C11.1775 25.6645 12.5251 25.6528 13.9079 24.8559L21.9236 20.2388ZM11.8454 23.4497C11.4236 23.438 11.0134 23.3091 10.5564 23.0513L2.8103 18.563C2.17749 18.1997 1.96655 17.8833 1.96655 17.2388V8.21537C1.96655 7.62943 2.16577 7.33646 2.72827 7.02005L10.4978 2.49662C10.9782 2.22708 11.4118 2.08646 11.8454 2.08646V23.4497Z" fill="black" fill-opacity="0.85"/>
</g>
<defs>
<clipPath id="clip0_2207_7823">
<rect width="23.5195" height="25.3799" fill="white" transform="translate(0.079834 0.078125)"/>
</clipPath>
</defs>
</svg>
