<svg width="36" height="16" viewBox="0 0 36 16" fill="none" xmlns="http://www.w3.org/2000/svg">
<g clip-path="url(#clip0_2207_12062)">
<path d="M3.70727 13.7304H31.4104C33.8128 13.7304 35.0432 12.5117 35.0432 10.1562V3.65234C35.0432 1.29688 33.8128 0.078125 31.4104 0.078125H3.70727C1.32837 0.078125 0.0861816 1.29688 0.0861816 3.65234V10.1562C0.0861816 12.5117 1.32837 13.7304 3.70727 13.7304ZM6.73071 9.51171C5.26587 9.51171 4.09399 8.33984 4.09399 6.88671C4.09399 5.42188 5.26587 4.25 6.73071 4.25C8.17212 4.25 9.34399 5.42188 9.34399 6.88671C9.34399 8.33984 8.17212 9.51171 6.73071 9.51171ZM12.719 9.52343C12.1214 9.52343 11.7229 9.13671 11.7229 8.53907V5.28125C11.7229 4.6836 12.1214 4.28515 12.719 4.28515H22.3987C23.0081 4.28515 23.3948 4.6836 23.3948 5.28125V8.53907C23.3948 9.13671 23.0081 9.52343 22.3987 9.52343H12.719ZM28.3987 9.51171C26.9573 9.51171 25.7854 8.33984 25.7854 6.88671C25.7854 5.42188 26.9573 4.25 28.3987 4.25C29.8518 4.25 31.0237 5.42188 31.0237 6.88671C31.0237 8.33984 29.8518 9.51171 28.3987 9.51171ZM8.76977 13.0039H2.68774V14.7265C2.68774 15.3008 3.07446 15.6875 3.64868 15.6875H7.80884C8.39477 15.6875 8.76977 15.3008 8.76977 14.7265V13.0039ZM26.3596 13.0039V14.7265C26.3596 15.3008 26.7346 15.6875 27.3206 15.6875H31.469C32.055 15.6875 32.4417 15.3008 32.4417 14.7265V13.0039H26.3596Z" fill="black" fill-opacity="0.85"/>
</g>
<defs>
<clipPath id="clip0_2207_12062">
<rect width="34.957" height="15.6211" fill="white" transform="translate(0.0861816 0.078125)"/>
</clipPath>
</defs>
</svg>
