<svg width="18" height="25" viewBox="0 0 18 25" fill="none" xmlns="http://www.w3.org/2000/svg">
<g clip-path="url(#clip0_2207_14651)">
<path d="M0.00634766 3.4082V21.0098C0.00634766 23.2246 1.10791 24.3379 3.29932 24.3379H14.6899C16.8813 24.3379 17.9711 23.2246 17.9711 21.0098V3.4082C17.9711 1.19336 16.8813 0.0800781 14.6899 0.0800781H3.29932C1.10791 0.0800781 0.00634766 1.19336 0.00634766 3.4082ZM8.99463 20.9395C6.26416 20.9395 4.06104 18.7598 4.06104 16.0176C4.06104 13.2637 6.26416 11.0723 8.99463 11.084C11.7251 11.0957 13.9282 13.2637 13.9282 16.0176C13.9282 18.7598 11.7251 20.9395 8.99463 20.9395ZM8.99463 8.95117C7.47119 8.95117 6.25244 7.73242 6.25244 6.20899C6.25244 4.67383 7.47119 3.4668 8.99463 3.47852C10.5063 3.49024 11.7251 4.68555 11.7368 6.20899C11.7602 7.73242 10.5063 8.95117 8.99463 8.95117ZM8.99463 18.1035C10.1665 18.1035 11.0805 17.166 11.0805 16.0176C11.0805 14.8223 10.1665 13.9082 8.99463 13.9082C7.81104 13.9082 6.90869 14.8223 6.90869 16.0176C6.90869 17.166 7.84619 18.1035 8.99463 18.1035ZM8.99463 7.60352C9.76807 7.60352 10.3891 6.9707 10.3891 6.20899C10.3891 5.43555 9.75635 4.81446 8.99463 4.81446C8.20947 4.81446 7.6001 5.40039 7.6001 6.20899C7.6001 6.9707 8.20947 7.60352 8.99463 7.60352Z" fill="black" fill-opacity="0.85"/>
<path d="M8.99463 20.9394C6.26416 20.9394 4.06104 18.7597 4.06104 16.0175C4.06104 13.2636 6.26416 11.0722 8.99463 11.0839C11.7251 11.0956 13.9282 13.2636 13.9282 16.0175C13.9282 18.7597 11.7251 20.9394 8.99463 20.9394ZM8.99463 8.95113C7.47119 8.95113 6.25244 7.73238 6.25244 6.20895C6.25244 4.67379 7.47119 3.46676 8.99463 3.47848C10.5063 3.4902 11.7251 4.68551 11.7368 6.20895C11.7602 7.73238 10.5063 8.95113 8.99463 8.95113ZM8.99463 18.1034C10.1665 18.1034 11.0805 17.1659 11.0805 16.0175C11.0805 14.8222 10.1665 13.9081 8.99463 13.9081C7.81104 13.9081 6.90869 14.8222 6.90869 16.0175C6.90869 17.1659 7.84619 18.1034 8.99463 18.1034ZM8.99463 7.60348C9.76807 7.60348 10.3891 6.97066 10.3891 6.20895C10.3891 5.43551 9.75635 4.81442 8.99463 4.81442C8.20947 4.81442 7.6001 5.40035 7.6001 6.20895C7.6001 6.97066 8.20947 7.60348 8.99463 7.60348Z" fill="black" fill-opacity="0.85"/>
</g>
<defs>
<clipPath id="clip0_2207_14651">
<rect width="17.9648" height="24.2695" fill="white" transform="translate(0.00634766 0.0800781)"/>
</clipPath>
</defs>
</svg>
