<svg width="25" height="29" viewBox="0 0 25 29" fill="none" xmlns="http://www.w3.org/2000/svg">
<g clip-path="url(#clip0_2207_185)">
<path d="M0.945801 24.8127H23.3403C23.856 24.8127 24.2895 24.3791 24.2895 23.8635C24.2895 23.3479 23.856 22.926 23.3403 22.926H0.945801C0.430176 22.926 0.00830078 23.3479 0.00830078 23.8635C0.00830078 24.3791 0.430176 24.8127 0.945801 24.8127Z" fill="black" fill-opacity="0.85"/>
<path d="M5.75048 20.0432L9.6411 18.4377C9.93407 18.3205 10.0747 18.2151 10.2505 18.0393L21.4653 6.90646C22.5669 5.81662 22.5552 4.53927 21.4419 3.41427L18.981 0.929898C17.856 -0.183384 16.5786 -0.206821 15.4771 0.883023L4.25048 12.0159C4.0747 12.1799 3.96923 12.3088 3.85204 12.6018L2.21141 16.4924C1.96532 17.0784 2.02391 17.6643 2.46923 18.1096L4.13329 19.7854C4.56688 20.219 5.15282 20.301 5.75048 20.0432ZM5.5747 18.2268C5.34032 18.3088 5.16454 18.3088 4.9536 18.0979L4.15673 17.301C3.94579 17.0901 3.94579 16.9026 4.03954 16.6916L5.49267 13.2815L16.6606 2.19552C17.0005 1.87912 17.3989 1.85568 17.7153 2.17209L20.188 4.66818C20.5044 4.99631 20.481 5.39474 20.1528 5.72287L8.98485 16.8088L5.5747 18.2268ZM1.18017 20.6291H2.59813C2.92626 20.6291 3.06688 20.5705 3.3247 20.3596L4.42626 19.5159L2.73876 17.7932L0.840318 19.7971C0.488756 20.1604 0.664537 20.6291 1.18017 20.6291ZM4.42626 13.2815L9.21923 18.0979L10.3208 17.008L5.52782 12.1799L4.42626 13.2815ZM14.1528 3.63693L18.9458 8.45334L20.0474 7.37521L15.2544 2.54709L14.1528 3.63693Z" fill="black" fill-opacity="0.85"/>
</g>
<defs>
<clipPath id="clip0_2207_185">
<rect width="24.2812" height="28.0317" fill="white" transform="translate(0.00830078 0.0800781)"/>
</clipPath>
</defs>
</svg>
