<svg width="34" height="23" viewBox="0 0 34 23" fill="none" xmlns="http://www.w3.org/2000/svg">
<g clip-path="url(#clip0_2207_15994)">
<path d="M0.0187988 11.5058C0.0187988 15.2206 1.22583 18.6308 3.26489 21.4081C3.62818 21.912 4.24927 21.9589 4.71802 21.5839C5.13989 21.2206 5.19849 20.6581 4.85864 20.1894C3.07739 17.7636 2.02271 14.7519 2.02271 11.5058C2.02271 8.24801 3.07739 5.248 4.85864 2.79878C5.19849 2.35347 5.15161 1.77925 4.71802 1.41597C4.24927 1.04097 3.62818 1.09956 3.26489 1.59175C1.22583 4.36909 0.0187988 7.79098 0.0187988 11.5058ZM33.4641 11.5058C33.4641 7.79098 32.2688 4.36909 30.218 1.59175C29.8547 1.09956 29.2336 1.04097 28.7649 1.41597C28.3313 1.77925 28.2961 2.35347 28.6243 2.79878C30.4172 5.248 31.4602 8.24801 31.4602 11.5058C31.4602 14.7519 30.4172 17.7636 28.6243 20.1894C28.2961 20.6581 28.343 21.2206 28.7649 21.5839C29.2336 21.9589 29.8547 21.912 30.218 21.4081C32.2688 18.6308 33.4641 15.2206 33.4641 11.5058Z" fill="black" fill-opacity="0.85"/>
<path d="M16.7415 22.9317C22.9876 22.9317 28.179 17.752 28.179 11.5059C28.179 5.25977 22.9876 0.0800781 16.7297 0.0800781C10.4836 0.0800781 5.31568 5.24805 5.31568 11.5059C5.31568 17.752 10.4954 22.9317 16.7415 22.9317ZM16.7415 20.9395C11.5149 20.9395 7.31958 16.7442 7.31958 11.5059C7.31958 6.25586 11.5032 2.06055 16.7297 2.06055C21.968 2.06055 26.175 6.25586 26.1868 11.5059C26.1985 16.7324 21.9915 20.9395 16.7415 20.9395Z" fill="black" fill-opacity="0.85"/>
<path d="M13.0266 16.8731C13.636 16.8731 13.9758 16.4863 13.9758 15.8301V11.9629H19.4602V15.8301C19.4602 16.4746 19.8118 16.8731 20.386 16.8731C20.9954 16.8731 21.3352 16.4863 21.3352 15.8301V6.95899C21.3352 6.30274 20.9954 5.91602 20.386 5.91602C19.8118 5.91602 19.4602 6.31446 19.4602 6.95899V10.4981H13.9758V6.95899C13.9758 6.30274 13.636 5.91602 13.0266 5.91602C12.4524 5.91602 12.1126 6.31446 12.1126 6.95899V15.8301C12.1126 16.4746 12.4524 16.8731 13.0266 16.8731Z" fill="black" fill-opacity="0.85"/>
</g>
<defs>
<clipPath id="clip0_2207_15994">
<rect width="33.4453" height="22.8633" fill="white" transform="translate(0.0187988 0.0800781)"/>
</clipPath>
</defs>
</svg>
