<svg width="19" height="25" viewBox="0 0 19 25" fill="none" xmlns="http://www.w3.org/2000/svg">
<g clip-path="url(#clip0_2207_14611)">
<path d="M9.45972 24.162C15.9167 24.162 18.8933 21.8652 18.8933 16.6386V7.72066C18.8933 5.51754 18.3659 4.02926 17.5339 2.97457C17.2526 2.62301 16.7956 2.59957 16.4558 2.88082C15.3308 3.8652 12.3894 4.70895 9.45972 4.70895C6.53003 4.70895 3.58862 3.8652 2.47534 2.88082C2.12378 2.59957 1.67846 2.62301 1.39722 2.97457C0.565186 4.02926 0.0378418 5.51754 0.0378418 7.72066V16.6386C0.0378418 21.8652 3.00268 24.162 9.45972 24.162Z" fill="black" fill-opacity="0.85"/>
<path d="M9.45972 3.10352C12.5651 3.10352 14.8855 2.44727 14.8855 1.60352C14.8855 0.736328 12.5651 0.0917969 9.45972 0.0917969C6.35425 0.0917969 4.04565 0.736328 4.04565 1.60352C4.04565 2.44727 6.35425 3.10352 9.45972 3.10352Z" fill="black" fill-opacity="0.85"/>
</g>
<defs>
<clipPath id="clip0_2207_14611">
<rect width="18.8555" height="24.082" fill="white" transform="translate(0.0378418 0.0800781)"/>
</clipPath>
</defs>
</svg>
