<svg width="24" height="22" viewBox="0 0 24 22" fill="none" xmlns="http://www.w3.org/2000/svg">
<g clip-path="url(#clip0_2207_14554)">
<path d="M11.5934 21.3027C15.8473 21.3027 17.6402 20.7636 19.3395 19.1816C21.7301 17.0019 23.1246 13.8495 23.1246 10.498C23.1246 7.79096 22.2223 5.21283 20.359 3.09174C19.9254 2.55268 19.4801 2.5058 19.0113 2.84564C17.277 4.15814 15.2731 4.8144 11.5934 4.8144C7.90198 4.8144 5.89808 4.15814 4.17542 2.84564C3.70667 2.5058 3.24963 2.55268 2.81604 3.09174C0.964477 5.21283 0.050415 7.79096 0.050415 10.498C0.050415 13.8495 1.44495 17.0019 3.83558 19.1816C5.53479 20.7636 7.32776 21.3027 11.5934 21.3027Z" fill="black" fill-opacity="0.85"/>
<path d="M11.5934 3.2207C14.8512 3.2207 17.1246 2.56446 17.1246 1.7207C17.1246 0.865234 14.8512 0.232422 11.5934 0.232422C8.32386 0.232422 6.05042 0.865234 6.05042 1.7207C6.05042 2.56446 8.32386 3.2207 11.5934 3.2207Z" fill="black" fill-opacity="0.85"/>
</g>
<defs>
<clipPath id="clip0_2207_14554">
<rect width="23.0742" height="21.2227" fill="white" transform="translate(0.050415 0.0800781)"/>
</clipPath>
</defs>
</svg>
