<svg width="19" height="25" viewBox="0 0 19 25" fill="none" xmlns="http://www.w3.org/2000/svg">
<g clip-path="url(#clip0_2207_14606)">
<path d="M9.44507 24.162C15.9021 24.162 18.8787 21.8652 18.8787 16.6386V7.72066C18.8787 5.51754 18.3513 4.02926 17.5193 2.97457C17.238 2.62301 16.781 2.59957 16.4412 2.88082C15.3162 3.8652 12.3748 4.70895 9.44507 4.70895C6.51538 4.70895 3.57397 3.8652 2.46069 2.88082C2.10913 2.59957 1.66381 2.62301 1.38257 2.97457C0.550537 4.02926 0.0231934 5.51754 0.0231934 7.72066V16.6386C0.0231934 21.8652 2.98803 24.162 9.44507 24.162ZM9.44507 22.2753C4.031 22.2753 1.90991 20.4589 1.90991 16.4511V7.82613C1.90991 6.79488 2.08569 5.83395 2.51928 5.00192C3.91381 6.09176 6.55053 6.59566 9.44507 6.59566C12.3513 6.59566 14.988 6.09176 16.3709 5.00192C16.8162 5.83395 16.992 6.79488 16.992 7.82613V16.4511C16.992 20.4589 14.8709 22.2753 9.44507 22.2753Z" fill="black" fill-opacity="0.85"/>
<path d="M9.44508 3.10352C12.5505 3.10352 14.8709 2.44727 14.8709 1.60352C14.8709 0.736328 12.5505 0.0917969 9.44508 0.0917969C6.33961 0.0917969 4.03101 0.736328 4.03101 1.60352C4.03101 2.44727 6.33961 3.10352 9.44508 3.10352Z" fill="black" fill-opacity="0.85"/>
</g>
<defs>
<clipPath id="clip0_2207_14606">
<rect width="18.8555" height="24.082" fill="white" transform="translate(0.0231934 0.0800781)"/>
</clipPath>
</defs>
</svg>
