<svg width="22" height="22" viewBox="0 0 22 22" fill="none" xmlns="http://www.w3.org/2000/svg">
<g clip-path="url(#clip0_2207_25792)">
<path d="M3.68384 21.6788H17.8987C20.3597 21.6788 21.5784 20.46 21.5784 18.0459V3.7373C21.5784 1.32324 20.3597 0.104492 17.8987 0.104492H3.68384C1.23462 0.104492 0.00415039 1.31152 0.00415039 3.7373V18.0459C0.00415039 20.4717 1.23462 21.6788 3.68384 21.6788ZM3.70727 19.792C2.5354 19.792 1.89087 19.1709 1.89087 17.9522V3.83105C1.89087 2.6123 2.5354 1.99121 3.70727 1.99121H17.8752C19.0354 1.99121 19.6917 2.6123 19.6917 3.83105V17.9522C19.6917 19.1709 19.0354 19.792 17.8752 19.792H3.70727Z" fill="black" fill-opacity="0.85"/>
<path d="M6.29712 12.0108C6.29712 12.3506 6.53149 12.5967 6.87134 12.5967H7.64477C7.42212 12.9249 7.30493 13.3233 7.30493 13.6631C7.30493 15.4678 8.9104 16.5108 10.8322 16.5108C12.1096 16.5108 13.2697 16.0186 13.8791 15.0108C14.0549 14.753 14.1486 14.4717 14.1603 14.1788C14.1721 13.7686 13.9143 13.4639 13.4689 13.4639C13.176 13.4639 12.9533 13.5811 12.7775 13.9678C12.4729 14.7413 11.676 15.128 10.8088 15.128C9.70727 15.128 8.78149 14.6241 8.78149 13.6045C8.78149 13.2413 8.94556 12.8428 9.29712 12.5967H14.7111C15.0393 12.5967 15.2736 12.3506 15.2736 12.0108C15.2736 11.6944 15.0393 11.4366 14.7111 11.4366H6.87134C6.53149 11.4366 6.29712 11.6944 6.29712 12.0108ZM6.32056 9.66699C6.32056 9.98339 6.55493 10.2413 6.89477 10.2413H14.7346C15.0627 10.2413 15.2971 9.98339 15.2971 9.66699C15.2971 9.32714 15.0627 9.09277 14.7346 9.09277H13.9494C14.1838 8.75293 14.2893 8.35449 14.2893 8.01464C14.2893 6.20996 12.6838 5.16699 10.7619 5.16699C9.48462 5.16699 8.33618 5.65917 7.71509 6.67871C7.55103 6.93652 7.44556 7.20605 7.43384 7.51074C7.43384 7.90917 7.67993 8.21386 8.13696 8.21386C8.41821 8.21386 8.65259 8.09667 8.81665 7.70996C9.13306 6.93652 9.91821 6.5498 10.7971 6.5498C11.8869 6.5498 12.8244 7.06543 12.8244 8.07324C12.8244 8.43652 12.6486 8.83496 12.2971 9.09277H6.89477C6.55493 9.09277 6.32056 9.32714 6.32056 9.66699Z" fill="black" fill-opacity="0.85"/>
</g>
<defs>
<clipPath id="clip0_2207_25792">
<rect width="21.5742" height="21.5977" fill="white" transform="translate(0.00415039 0.0810547)"/>
</clipPath>
</defs>
</svg>
