<svg width="24" height="24" viewBox="0 0 24 24" fill="none" xmlns="http://www.w3.org/2000/svg">
<g clip-path="url(#clip0_2207_4764)">
<path d="M11.9763 23.9873C18.5154 23.9873 23.9294 18.5616 23.9294 12.0342C23.9294 5.49511 18.5037 0.0810547 11.9646 0.0810547C5.43725 0.0810547 0.0231934 5.49511 0.0231934 12.0342C0.0231934 18.5616 5.44897 23.9873 11.9763 23.9873ZM11.9763 21.9952C6.44507 21.9952 2.0271 17.5655 2.0271 12.0342C2.0271 6.50293 6.43335 2.07324 11.9646 2.07324C17.4959 2.07324 21.9373 6.50293 21.9373 12.0342C21.9373 17.5655 17.5076 21.9952 11.9763 21.9952Z" fill="black" fill-opacity="0.85"/>
<path d="M8.23803 12.0342C8.23803 14.085 9.93725 15.7842 11.9763 15.7842C12.5505 15.7842 13.0896 15.6319 13.5466 15.3623C12.4568 17.167 10.4412 18.2217 8.01538 18.2217C7.61694 18.2217 7.33569 18.5264 7.33569 18.8897C7.33569 19.253 7.61694 19.5577 8.01538 19.5577C12.3279 19.5577 15.7146 16.6045 15.7146 12.0342C15.7146 9.98339 14.0154 8.28417 11.9763 8.28417C11.4021 8.28417 10.863 8.43652 10.406 8.70605C11.4959 6.90136 13.5115 5.84667 15.949 5.84667C16.3357 5.84667 16.617 5.54199 16.617 5.16699C16.617 4.80371 16.324 4.51074 15.949 4.51074C11.6248 4.51074 8.23803 7.46386 8.23803 12.0342ZM10.8162 12.0342C10.8162 11.4014 11.3435 10.8741 11.9763 10.8741C12.6091 10.8741 13.1365 11.4014 13.1365 12.0342C13.1365 12.6553 12.6091 13.1944 11.9763 13.1944C11.3435 13.1944 10.8162 12.667 10.8162 12.0342Z" fill="black" fill-opacity="0.85"/>
</g>
<defs>
<clipPath id="clip0_2207_4764">
<rect width="23.9062" height="23.918" fill="white" transform="translate(0.0231934 0.0810547)"/>
</clipPath>
</defs>
</svg>
