<svg width="24" height="24" viewBox="0 0 24 24" fill="none" xmlns="http://www.w3.org/2000/svg">
<g clip-path="url(#clip0_2207_4769)">
<path d="M11.9782 23.9991C18.5173 23.9991 23.9313 18.585 23.9313 12.0459C23.9313 5.51855 18.5056 0.0927734 11.9665 0.0927734C5.43921 0.0927734 0.0251465 5.51855 0.0251465 12.0459C0.0251465 18.585 5.45093 23.9991 11.9782 23.9991Z" fill="black" fill-opacity="0.85"/>
<path d="M8.1228 12.0459C8.1228 7.33497 11.6149 4.28809 16.0681 4.28809C16.4665 4.28809 16.7595 4.59278 16.7595 4.9795C16.7595 5.3545 16.4782 5.6709 16.0681 5.6709C13.5603 5.6709 11.4978 6.76075 10.3728 8.62403C10.8415 8.33106 11.3923 8.17872 11.9782 8.17872C14.0759 8.17872 15.8337 9.92481 15.8337 12.0459C15.8337 16.7569 12.3415 19.8038 7.90014 19.8038C7.47826 19.8038 7.19702 19.4873 7.19702 19.1241C7.19702 18.7373 7.47826 18.4209 7.90014 18.4209C10.3962 18.4209 12.4587 17.3428 13.5837 15.4795C13.1149 15.7608 12.5642 15.9131 11.9782 15.9131C9.88061 15.9131 8.1228 14.167 8.1228 12.0459ZM10.7829 12.0459C10.7829 12.7022 11.322 13.2413 11.9782 13.2413C12.6345 13.2413 13.1735 12.6905 13.1735 12.0459C13.1735 11.3897 12.6345 10.8506 11.9782 10.8506C11.322 10.8506 10.7829 11.3897 10.7829 12.0459Z" fill="white"/>
</g>
<defs>
<clipPath id="clip0_2207_4769">
<rect width="23.9062" height="23.918" fill="white" transform="translate(0.0251465 0.0810547)"/>
</clipPath>
</defs>
</svg>
