<svg width="24" height="24" viewBox="0 0 24 24" fill="none" xmlns="http://www.w3.org/2000/svg">
<g clip-path="url(#clip0_2207_24986)">
<path d="M11.9804 23.9873C18.5195 23.9873 23.9335 18.5616 23.9335 12.0342C23.9335 5.49511 18.5078 0.0810547 11.9687 0.0810547C5.4414 0.0810547 0.0273438 5.49511 0.0273438 12.0342C0.0273438 18.5616 5.45312 23.9873 11.9804 23.9873ZM11.9804 21.9952C6.44922 21.9952 2.03125 17.5655 2.03125 12.0342C2.03125 6.50293 6.4375 2.07324 11.9687 2.07324C17.5 2.07324 21.9414 6.50293 21.9414 12.0342C21.9414 17.5655 17.5117 21.9952 11.9804 21.9952Z" fill="black" fill-opacity="0.85"/>
<path d="M11.9571 17.4014C12.5665 17.4014 12.9062 16.9913 12.9062 16.3467V7.49903C12.9062 6.8545 12.5665 6.44434 11.9571 6.44434C11.3477 6.44434 11.0312 6.87794 11.0312 7.49903V16.3467C11.0312 16.9678 11.3477 17.4014 11.9571 17.4014Z" fill="black" fill-opacity="0.85"/>
</g>
<defs>
<clipPath id="clip0_2207_24986">
<rect width="23.9062" height="23.918" fill="white" transform="translate(0.0273438 0.0810547)"/>
</clipPath>
</defs>
</svg>
