<svg width="22" height="22" viewBox="0 0 22 22" fill="none" xmlns="http://www.w3.org/2000/svg">
<g clip-path="url(#clip0_2207_25001)">
<path d="M3.71326 21.6788H17.9281C20.3891 21.6788 21.6078 20.46 21.6078 18.0459V3.7373C21.6078 1.32324 20.3891 0.104492 17.9281 0.104492H3.71326C1.26404 0.104492 0.0335693 1.31152 0.0335693 3.7373V18.0459C0.0335693 20.4717 1.26404 21.6788 3.71326 21.6788Z" fill="black" fill-opacity="0.85"/>
<path d="M10.8148 16.417C10.1938 16.417 9.85388 15.96 9.85388 15.3155V6.20997C9.85388 5.56544 10.1938 5.1084 10.8148 5.1084C11.4477 5.1084 11.7992 5.53028 11.7992 6.20997V15.3155C11.7992 15.9952 11.4477 16.417 10.8148 16.417Z" fill="white"/>
</g>
<defs>
<clipPath id="clip0_2207_25001">
<rect width="21.5742" height="21.5977" fill="white" transform="translate(0.0335693 0.0810547)"/>
</clipPath>
</defs>
</svg>
