<svg width="22" height="22" viewBox="0 0 22 22" fill="none" xmlns="http://www.w3.org/2000/svg">
<g clip-path="url(#clip0_2207_24996)">
<path d="M3.71118 21.6788H17.926C20.387 21.6788 21.6057 20.46 21.6057 18.0459V3.7373C21.6057 1.32324 20.387 0.104492 17.926 0.104492H3.71118C1.26196 0.104492 0.0314941 1.31152 0.0314941 3.7373V18.0459C0.0314941 20.4717 1.26196 21.6788 3.71118 21.6788ZM3.73461 19.792C2.56274 19.792 1.91821 19.1709 1.91821 17.9522V3.83105C1.91821 2.6123 2.56274 1.99121 3.73461 1.99121H17.9026C19.0627 1.99121 19.719 2.6123 19.719 3.83105V17.9522C19.719 19.1709 19.0627 19.792 17.9026 19.792H3.73461Z" fill="black" fill-opacity="0.85"/>
<path d="M10.8127 16.2413C11.4221 16.2413 11.762 15.8311 11.762 15.1866V6.33887C11.762 5.69434 11.4221 5.28418 10.8127 5.28418C10.2151 5.28418 9.88696 5.71778 9.88696 6.33887V15.1866C9.88696 15.8077 10.2151 16.2413 10.8127 16.2413Z" fill="black" fill-opacity="0.85"/>
</g>
<defs>
<clipPath id="clip0_2207_24996">
<rect width="21.5742" height="21.5977" fill="white" transform="translate(0.0314941 0.0810547)"/>
</clipPath>
</defs>
</svg>
