<svg width="22" height="22" viewBox="0 0 22 22" fill="none" xmlns="http://www.w3.org/2000/svg">
<g clip-path="url(#clip0_2207_25600)">
<path d="M3.75098 21.6788H17.9658C20.4268 21.6788 21.6455 20.46 21.6455 18.0459V3.7373C21.6455 1.32324 20.4268 0.104492 17.9658 0.104492H3.75098C1.30176 0.104492 0.0712891 1.31152 0.0712891 3.7373V18.0459C0.0712891 20.4717 1.30176 21.6788 3.75098 21.6788ZM3.77441 19.792C2.60254 19.792 1.95801 19.1709 1.95801 17.9522V3.83105C1.95801 2.6123 2.60254 1.99121 3.77441 1.99121H17.9424C19.1025 1.99121 19.7588 2.6123 19.7588 3.83105V17.9522C19.7588 19.1709 19.1025 19.792 17.9424 19.792H3.77441Z" fill="black" fill-opacity="0.85"/>
<path d="M12.294 16.7452C12.6807 16.7452 13.0088 16.4872 13.0088 16.0654C13.0088 15.8193 12.8682 15.6201 12.6924 15.456L9.23535 12.2217H9.54004C11.8486 12.2217 12.9854 10.9327 13.2315 9.45605H14.3213C14.6611 9.45605 14.8955 9.19824 14.8955 8.88183C14.8955 8.54199 14.6611 8.29589 14.3213 8.29589H13.2432C13.1611 7.68652 12.9385 7.14746 12.5518 6.72558H14.2627C14.6025 6.72558 14.8369 6.45605 14.8369 6.13964C14.8369 5.7998 14.6025 5.56543 14.2627 5.56543H11.8018C11.4268 5.56543 11.0518 5.56543 10.6768 5.56543H7.52441C7.14941 5.56543 6.83301 5.85839 6.83301 6.25683C6.83301 6.63183 7.14941 6.95996 7.52441 6.95996H9.63379C10.6768 6.95996 11.4033 7.45214 11.626 8.29589H7.5127C7.18457 8.29589 6.93848 8.54199 6.93848 8.88183C6.93848 9.19824 7.18457 9.45605 7.5127 9.45605H11.6494C11.4385 10.3702 10.6651 10.8272 9.48145 10.8272H7.77051C7.29004 10.8272 6.93848 11.1319 6.93848 11.6241C6.93848 12.0224 7.12598 12.2099 7.36035 12.4326L11.6025 16.4288C11.8604 16.6749 12.0479 16.7452 12.294 16.7452Z" fill="black" fill-opacity="0.85"/>
</g>
<defs>
<clipPath id="clip0_2207_25600">
<rect width="21.5742" height="21.5977" fill="white" transform="translate(0.0712891 0.0810547)"/>
</clipPath>
</defs>
</svg>
