<svg width="24" height="24" viewBox="0 0 24 24" fill="none" xmlns="http://www.w3.org/2000/svg">
<g clip-path="url(#clip0_2207_25590)">
<path d="M12.0202 23.9873C18.5593 23.9873 23.9733 18.5616 23.9733 12.0342C23.9733 5.49511 18.5476 0.0810547 12.0085 0.0810547C5.4812 0.0810547 0.0671387 5.49511 0.0671387 12.0342C0.0671387 18.5616 5.49292 23.9873 12.0202 23.9873ZM12.0202 21.9952C6.48902 21.9952 2.07105 17.5655 2.07105 12.0342C2.07105 6.50293 6.4773 2.07324 12.0085 2.07324C17.5398 2.07324 21.9812 6.50293 21.9812 12.0342C21.9812 17.5655 17.5515 21.9952 12.0202 21.9952Z" fill="black" fill-opacity="0.85"/>
<path d="M13.4382 17.9053C13.8249 17.9053 14.1413 17.6475 14.1413 17.2256C14.1413 16.9795 14.0124 16.7803 13.8366 16.6163L10.3679 13.3819H10.6843C12.9929 13.3819 14.1296 12.0928 14.3757 10.6163H15.4655C15.8054 10.6163 16.0398 10.3584 16.0398 10.042C16.0398 9.70215 15.8054 9.45606 15.4655 9.45606H14.3874C14.3054 8.84668 14.071 8.30762 13.696 7.88575H15.4069C15.7468 7.88575 15.9812 7.61622 15.9812 7.29981C15.9812 6.95997 15.7468 6.72559 15.4069 6.72559H12.946C12.571 6.72559 12.196 6.72559 11.821 6.72559H8.66869C8.28197 6.72559 7.97729 7.01856 7.97729 7.417C7.97729 7.792 8.28197 8.12012 8.66869 8.12012H10.778C11.821 8.12012 12.5476 8.61231 12.7702 9.45606H8.65697C8.32885 9.45606 8.08276 9.70215 8.08276 10.042C8.08276 10.3584 8.32885 10.6163 8.65697 10.6163H12.7937C12.5827 11.5303 11.8093 11.9873 10.6257 11.9873H8.91479C8.43432 11.9873 8.08276 12.292 8.08276 12.7842C8.08276 13.1827 8.27025 13.3702 8.50463 13.5928L12.7468 17.5889C13.0046 17.835 13.1921 17.9053 13.4382 17.9053Z" fill="black" fill-opacity="0.85"/>
</g>
<defs>
<clipPath id="clip0_2207_25590">
<rect width="23.9062" height="23.918" fill="white" transform="translate(0.0671387 0.0810547)"/>
</clipPath>
</defs>
</svg>
