<svg width="24" height="24" viewBox="0 0 24 24" fill="none" xmlns="http://www.w3.org/2000/svg">
<g clip-path="url(#clip0_2207_22610)">
<path d="M12.0434 23.9873C18.5825 23.9873 23.9965 18.5616 23.9965 12.0342C23.9965 5.49511 18.5708 0.0810547 12.0317 0.0810547C5.50439 0.0810547 0.090332 5.49511 0.090332 12.0342C0.090332 18.5616 5.51611 23.9873 12.0434 23.9873Z" fill="black" fill-opacity="0.85"/>
<path d="M9.93409 18.8194C9.43018 18.8194 9.04346 18.4561 9.04346 17.9522C9.04346 17.4834 9.43018 17.0967 9.93409 17.0967H11.4223V11.5889H10.1333C9.64112 11.5889 9.2544 11.2256 9.2544 10.7217C9.2544 10.253 9.64112 9.86621 10.1333 9.86621H12.4067C13.0278 9.86621 13.3559 10.3116 13.3559 10.9678V17.0967H14.8442C15.3481 17.0967 15.7348 17.4834 15.7348 17.9522C15.7348 18.4561 15.3481 18.8194 14.8442 18.8194H9.93409ZM11.938 7.87402C11.0591 7.87402 10.3559 7.17089 10.3559 6.28027C10.3559 5.38964 11.0591 4.68652 11.938 4.68652C12.8169 4.68652 13.5083 5.38964 13.5083 6.28027C13.5083 7.17089 12.8169 7.87402 11.938 7.87402Z" fill="white"/>
</g>
<defs>
<clipPath id="clip0_2207_22610">
<rect width="23.9062" height="23.918" fill="white" transform="translate(0.090332 0.0810547)"/>
</clipPath>
</defs>
</svg>
