<svg width="26" height="26" viewBox="0 0 26 26" fill="none" xmlns="http://www.w3.org/2000/svg">
<g clip-path="url(#clip0_2207_9213)">
<path d="M7.04712 25.9678C7.50415 25.9678 7.84399 25.7334 8.39477 25.2178L12.6253 21.3506H20.5471C24.0393 21.3506 25.9143 19.4288 25.9143 15.9952V7.01856C25.9143 3.58497 24.0393 1.65137 20.5471 1.65137H5.45337C1.96118 1.65137 0.0861816 3.57325 0.0861816 7.01856V15.9952C0.0861816 19.4405 1.96118 21.3506 5.45337 21.3506H6.00415V24.7608C6.00415 25.4873 6.37915 25.9678 7.04712 25.9678Z" fill="black" fill-opacity="0.85"/>
<path d="M11.055 17.7881C10.5862 17.7881 10.2346 17.4483 10.2346 16.9795C10.2346 16.5459 10.5862 16.1944 11.055 16.1944H12.4378V11.085H11.2424C10.7854 11.085 10.4221 10.7569 10.4221 10.2881C10.4221 9.85449 10.7854 9.50293 11.2424 9.50293H13.3518C13.9143 9.50293 14.219 9.91308 14.219 10.5108V16.1944H15.6018C16.0706 16.1944 16.4221 16.5459 16.4221 16.9795C16.4221 17.4483 16.0706 17.7881 15.6018 17.7881H11.055ZM12.9065 7.65136C12.0979 7.65136 11.4417 6.99511 11.4417 6.1748C11.4417 5.35449 12.0979 4.69824 12.9065 4.69824C13.7268 4.69824 14.3714 5.35449 14.3714 6.1748C14.3714 6.99511 13.7268 7.65136 12.9065 7.65136Z" fill="white"/>
</g>
<defs>
<clipPath id="clip0_2207_9213">
<rect width="25.8281" height="25.8867" fill="white" transform="translate(0.0861816 0.0810547)"/>
</clipPath>
</defs>
</svg>
