<svg width="10" height="20" viewBox="0 0 10 20" fill="none" xmlns="http://www.w3.org/2000/svg">
<g clip-path="url(#clip0_2207_22601)">
<path d="M0.0820312 17.2725C0.0820312 17.8467 0.492187 18.2334 1.11328 18.2334H8.53125C9.15234 18.2334 9.5625 17.8467 9.5625 17.2725C9.5625 16.71 9.15234 16.3233 8.53125 16.3233H6.17578V7.38183C6.17578 6.74902 5.76562 6.32714 5.15625 6.32714H1.44141C0.832031 6.32714 0.410156 6.70214 0.410156 7.26464C0.410156 7.85058 0.832031 8.2373 1.44141 8.2373H4.00781V16.3233H1.11328C0.492187 16.3233 0.0820312 16.71 0.0820312 17.2725ZM2.98828 1.78027C2.98828 2.71777 3.73828 3.46777 4.67578 3.46777C5.625 3.46777 6.35156 2.71777 6.35156 1.78027C6.35156 0.831055 5.625 0.0810547 4.67578 0.0810547C3.73828 0.0810547 2.98828 0.831055 2.98828 1.78027Z" fill="black" fill-opacity="0.85"/>
</g>
<defs>
<clipPath id="clip0_2207_22601">
<rect width="9.48047" height="19.6055" fill="white" transform="translate(0.0820312 0.0810547)"/>
</clipPath>
</defs>
</svg>
