<svg width="24" height="24" viewBox="0 0 24 24" fill="none" xmlns="http://www.w3.org/2000/svg">
<g clip-path="url(#clip0_2207_22605)">
<path d="M12.0412 23.9873C18.5803 23.9873 23.9943 18.5616 23.9943 12.0342C23.9943 5.49511 18.5686 0.0810547 12.0295 0.0810547C5.50219 0.0810547 0.0881348 5.49511 0.0881348 12.0342C0.0881348 18.5616 5.51392 23.9873 12.0412 23.9873ZM12.0412 21.9952C6.51002 21.9952 2.09204 17.5655 2.09204 12.0342C2.09204 6.50293 6.49829 2.07324 12.0295 2.07324C17.5608 2.07324 22.0022 6.50293 22.0022 12.0342C22.0022 17.5655 17.5725 21.9952 12.0412 21.9952Z" fill="black" fill-opacity="0.85"/>
<path d="M9.99047 18.5967H14.76C15.2404 18.5967 15.6154 18.2452 15.6154 17.7647C15.6154 17.3077 15.2404 16.9444 14.76 16.9444H13.3069V10.9795C13.3069 10.3467 12.9904 9.92481 12.3928 9.92481H10.1897C9.70922 9.92481 9.33422 10.2881 9.33422 10.7452C9.33422 11.2256 9.70922 11.5772 10.1897 11.5772H11.4436V16.9444H9.99047C9.51001 16.9444 9.13501 17.3077 9.13501 17.7647C9.13501 18.2452 9.51001 18.5967 9.99047 18.5967ZM11.9358 7.9795C12.7912 7.9795 13.4592 7.29981 13.4592 6.44434C13.4592 5.58887 12.7912 4.90918 11.9358 4.90918C11.092 4.90918 10.4123 5.58887 10.4123 6.44434C10.4123 7.29981 11.092 7.9795 11.9358 7.9795Z" fill="black" fill-opacity="0.85"/>
</g>
<defs>
<clipPath id="clip0_2207_22605">
<rect width="23.9062" height="23.918" fill="white" transform="translate(0.0881348 0.0810547)"/>
</clipPath>
</defs>
</svg>
