<svg width="26" height="26" viewBox="0 0 26 26" fill="none" xmlns="http://www.w3.org/2000/svg">
<g clip-path="url(#clip0_2207_9208)">
<path d="M7.29101 25.8272C7.86523 25.8272 8.26367 25.5225 8.97851 24.8897L13.0215 21.292H20.5449C24.0371 21.292 25.9121 19.3584 25.9121 15.9249V6.94824C25.9121 3.51464 24.0371 1.58105 20.5449 1.58105H5.45117C1.95898 1.58105 0.0839844 3.50293 0.0839844 6.94824V15.9249C0.0839844 19.3702 1.95898 21.292 5.45117 21.292H6.01367V24.3389C6.01367 25.2413 6.4707 25.8272 7.29101 25.8272ZM7.77148 23.6827V20.2842C7.77148 19.6514 7.52539 19.4053 6.89257 19.4053H5.45117C3.08398 19.4053 1.9707 18.1983 1.9707 15.9131V6.94824C1.9707 4.66308 3.08398 3.46777 5.45117 3.46777H20.5449C22.9004 3.46777 24.0254 4.66308 24.0254 6.94824V15.9131C24.0254 18.1983 22.9004 19.4053 20.5449 19.4053H12.9512C12.2949 19.4053 11.9668 19.4991 11.5215 19.9561L7.77148 23.6827Z" fill="black" fill-opacity="0.85"/>
<path d="M11.1113 17.5186H15.5293C15.9746 17.5186 16.3262 17.2022 16.3262 16.7569C16.3262 16.3233 15.9746 15.9952 15.5293 15.9952H14.1817V10.4639C14.1817 9.87794 13.8887 9.49122 13.3379 9.49122H11.2988C10.8535 9.49122 10.502 9.83106 10.502 10.253C10.502 10.6983 10.8535 11.0147 11.2988 11.0147H12.459V15.9952H11.1113C10.666 15.9952 10.3262 16.3233 10.3262 16.7569C10.3262 17.2022 10.666 17.5186 11.1113 17.5186ZM12.916 7.68653C13.7129 7.68653 14.334 7.05372 14.334 6.26856C14.334 5.47168 13.7129 4.85059 12.916 4.85059C12.1309 4.85059 11.4981 5.47168 11.4981 6.26856C11.4981 7.05372 12.1309 7.68653 12.916 7.68653Z" fill="black" fill-opacity="0.85"/>
</g>
<defs>
<clipPath id="clip0_2207_9208">
<rect width="25.8281" height="25.7461" fill="white" transform="translate(0.0839844 0.0810547)"/>
</clipPath>
</defs>
</svg>
