<svg width="27" height="20" viewBox="0 0 27 20" fill="none" xmlns="http://www.w3.org/2000/svg">
<g clip-path="url(#clip0_2207_708)">
<path d="M10.0312 16.3481V13.852C10.0312 13.4887 10.3242 13.1841 10.7109 13.1841C11.0742 13.1841 11.3789 13.4887 11.3789 13.852V16.3481C11.3789 16.7231 11.0742 17.0278 10.7109 17.0278C10.3242 17.0278 10.0312 16.7231 10.0312 16.3481ZM12.7969 16.3481V13.852C12.7969 13.4887 13.1016 13.1841 13.4883 13.1841C13.8516 13.1841 14.1562 13.4887 14.1562 13.852V16.3481C14.1562 16.7231 13.8516 17.0278 13.4883 17.0278C13.1016 17.0278 12.7969 16.7231 12.7969 16.3481ZM15.5742 16.3481V13.852C15.5742 13.4887 15.8789 13.1841 16.2539 13.1841C16.6289 13.1841 16.9336 13.4887 16.9336 13.852V16.3481C16.9336 16.7231 16.6289 17.0278 16.2539 17.0278C15.8789 17.0278 15.5742 16.7231 15.5742 16.3481ZM18.3516 16.3481V13.852C18.3516 13.4887 18.6445 13.1841 19.0312 13.1841C19.4062 13.1841 19.6992 13.4887 19.6992 13.852V16.3481C19.6992 16.7231 19.4062 17.0278 19.0312 17.0278C18.6445 17.0278 18.3516 16.7231 18.3516 16.3481ZM21.1406 16.3481V13.852C21.1406 13.4887 21.4336 13.1841 21.8203 13.1841C22.1836 13.1841 22.4766 13.4887 22.4766 13.852V16.3481C22.4766 16.7231 22.1836 17.0278 21.8203 17.0278C21.4336 17.0278 21.1406 16.7231 21.1406 16.3481ZM4.64062 19.7114H22.3242C25.0664 19.7114 26.9648 17.8247 26.9648 15.1059C26.9648 12.3872 25.0664 10.4887 22.3242 10.4887H4.64062C1.89844 10.4887 0 12.3872 0 15.1059C0 17.8247 1.89844 19.7114 4.64062 19.7114ZM4.64062 8.8833H22.3242C23.4258 8.8833 24.4336 9.1294 25.3008 9.57471L22.5 2.81299C21.7734 1.04346 20.2383 0.0942383 18.2109 0.0942383H8.75391C6.72656 0.0942383 5.19141 1.04346 4.46484 2.81299L1.65234 9.57471C2.53125 9.1294 3.53906 8.8833 4.64062 8.8833Z" fill="black" fill-opacity="0.85"/>
</g>
<defs>
<clipPath id="clip0_2207_708">
<rect width="26.9648" height="19.6289" fill="white" transform="translate(0 0.0825195)"/>
</clipPath>
</defs>
</svg>
