<svg width="24" height="30" viewBox="0 0 24 30" fill="none" xmlns="http://www.w3.org/2000/svg">
<g clip-path="url(#clip0_2207_13885)">
<path d="M0.0146484 24.6684C0.0146484 26.52 1.32715 27.7622 3.26074 27.7622H16.3505C18.2958 27.7622 19.5966 26.52 19.5966 24.6684V4.46533C19.5966 2.61377 18.2958 1.35986 16.3505 1.35986H3.26074C1.32715 1.35986 0.0146484 2.61377 0.0146484 4.46533V24.6684ZM8.28809 24.1763C7.86621 24.1763 7.52637 23.8247 7.52637 23.4028V5.73096C7.52637 5.30908 7.86621 4.95752 8.28809 4.95752C8.70996 4.95752 9.06153 5.30908 9.06153 5.73096V23.4028C9.06153 23.8247 8.70996 24.1763 8.28809 24.1763ZM14.2646 24.1763C13.8427 24.1763 13.4912 23.8247 13.4912 23.4028V5.73096C13.4912 5.30908 13.8427 4.95752 14.2646 4.95752C14.6865 4.95752 15.0263 5.30908 15.0263 5.73096V23.4028C15.0263 23.8247 14.6865 24.1763 14.2646 24.1763Z" fill="black" fill-opacity="0.85"/>
<path d="M14.1944 29.063H19.538C21.8232 29.063 23.1944 27.5864 23.1944 25.5005V13.8403C23.1944 11.7544 21.8232 10.2661 19.538 10.2661H14.1944C11.9092 10.2661 10.5499 11.7544 10.5499 13.8403V25.5005C10.5499 27.5747 11.9092 29.063 14.1944 29.063Z" fill="white"/>
<path d="M14.1943 27.6919H19.538C20.9912 27.6919 21.8232 26.895 21.8232 25.5005V13.8403C21.8232 12.4458 20.9794 11.6372 19.538 11.6372H14.1943C12.7412 11.6372 11.9091 12.4458 11.9091 13.8403V25.5005C11.9091 26.895 12.7412 27.6919 14.1943 27.6919ZM14.0537 16.2427C13.4794 16.2427 13.163 15.938 13.163 15.3989V13.8169C13.163 13.313 13.4794 12.9731 14.0537 12.9731H15.5302C16.0927 12.9731 16.4208 13.313 16.4208 13.8169V15.3989C16.4208 15.938 16.0927 16.2427 15.5302 16.2427H14.0537Z" fill="black" fill-opacity="0.85"/>
</g>
<defs>
<clipPath id="clip0_2207_13885">
<rect width="23.1797" height="28.9805" fill="white" transform="translate(0.0146484 0.0825195)"/>
</clipPath>
</defs>
</svg>
