<svg width="20" height="27" viewBox="0 0 20 27" fill="none" xmlns="http://www.w3.org/2000/svg">
<g clip-path="url(#clip0_2207_13778)">
<path d="M1.88892 23.0747V3.5044C1.88892 2.54346 2.47486 1.96924 3.48267 1.96924H16.1038C17.0999 1.96924 17.6975 2.54346 17.6975 3.5044V23.0747C17.6975 24.0356 17.0999 24.5981 16.1038 24.5981H3.48267C2.47486 24.5981 1.88892 24.0356 1.88892 23.0747Z" fill="black" fill-opacity="0.85"/>
<path d="M0.00219727 23.3911C0.00219727 25.2427 1.30298 26.4848 3.24829 26.4848H16.3381C18.2834 26.4848 19.5842 25.2427 19.5842 23.3911V3.18799C19.5842 1.33643 18.2834 0.0825195 16.3381 0.0825195H3.24829C1.30298 0.0825195 0.00219727 1.33643 0.00219727 3.18799V23.3911ZM1.88892 23.0747V3.5044C1.88892 2.54346 2.47486 1.96924 3.48267 1.96924H16.1038C17.0999 1.96924 17.6975 2.54346 17.6975 3.5044V23.0747C17.6975 24.0356 17.0999 24.5981 16.1038 24.5981H3.48267C2.47486 24.5981 1.88892 24.0356 1.88892 23.0747ZM6.47095 23.7075H13.1155C13.4436 23.7075 13.6663 23.4848 13.6663 23.1567C13.6663 22.8286 13.4436 22.6177 13.1155 22.6177H6.47095C6.15454 22.6177 5.93189 22.8286 5.93189 23.1567C5.93189 23.4848 6.15454 23.7075 6.47095 23.7075Z" fill="black" fill-opacity="0.85"/>
</g>
<defs>
<clipPath id="clip0_2207_13778">
<rect width="19.582" height="26.4258" fill="white" transform="translate(0.00219727 0.0825195)"/>
</clipPath>
</defs>
</svg>
