<svg width="20" height="27" viewBox="0 0 20 27" fill="none" xmlns="http://www.w3.org/2000/svg">
<g clip-path="url(#clip0_2207_13730)">
<path d="M1.90357 22.5122V4.0669H17.7121V22.5122H1.90357ZM9.82544 25.3247C9.25123 25.3247 8.80591 24.8677 8.80591 24.3052C8.80591 23.7544 9.25123 23.2973 9.82544 23.2973C10.3762 23.2973 10.8332 23.7544 10.8332 24.3052C10.8332 24.8677 10.3762 25.3247 9.82544 25.3247ZM9.80201 2.87158C9.45044 2.87158 9.16919 2.57861 9.16919 2.22705C9.16919 1.88721 9.45044 1.58252 9.80201 1.58252C10.1535 1.58252 10.4465 1.88721 10.4465 2.22705C10.4465 2.57861 10.1535 2.87158 9.80201 2.87158Z" fill="black" fill-opacity="0.85"/>
<path d="M3.26294 26.4848H16.3527C18.298 26.4848 19.5988 25.2427 19.5988 23.3911V3.18799C19.5988 1.33643 18.298 0.0825195 16.3527 0.0825195H3.26294C1.31763 0.0825195 0.0168457 1.33643 0.0168457 3.18799V23.3911C0.0168457 25.2427 1.31763 26.4848 3.26294 26.4848ZM1.90357 22.5122V4.0669H17.7121V22.5122H1.90357ZM9.82544 25.3247C9.25123 25.3247 8.80591 24.8677 8.80591 24.3052C8.80591 23.7544 9.25123 23.2973 9.82544 23.2973C10.3762 23.2973 10.8332 23.7544 10.8332 24.3052C10.8332 24.8677 10.3762 25.3247 9.82544 25.3247ZM9.80201 2.87158C9.45044 2.87158 9.16919 2.57861 9.16919 2.22705C9.16919 1.88721 9.45044 1.58252 9.80201 1.58252C10.1535 1.58252 10.4465 1.88721 10.4465 2.22705C10.4465 2.57861 10.1535 2.87158 9.80201 2.87158Z" fill="black" fill-opacity="0.85"/>
</g>
<defs>
<clipPath id="clip0_2207_13730">
<rect width="19.582" height="26.4258" fill="white" transform="translate(0.0168457 0.0825195)"/>
</clipPath>
</defs>
</svg>
