<svg width="26" height="30" viewBox="0 0 26 30" fill="none" xmlns="http://www.w3.org/2000/svg">
<g clip-path="url(#clip0_2207_13897)">
<path d="M0.039917 24.7387C0.039917 26.5903 1.35242 27.8325 3.28601 27.8325H16.3758C18.3211 27.8325 19.6219 26.5903 19.6219 24.7387V4.53564C19.6219 2.68408 18.3211 1.43018 16.3758 1.43018H3.28601C1.35242 1.43018 0.039917 2.68408 0.039917 4.53564V24.7387ZM1.92664 24.4223V4.85205C1.92664 3.89111 2.5243 3.3169 3.53211 3.3169H16.1415C17.1493 3.3169 17.7352 3.89111 17.7352 4.85205V24.4223C17.7352 25.3833 17.1493 25.9458 16.1415 25.9458H3.53211C2.5243 25.9458 1.92664 25.3833 1.92664 24.4223Z" fill="black" fill-opacity="0.85"/>
<path d="M5.73523 25.0903C5.73523 27.5044 7.51648 29.2036 9.9657 29.2036H20.9344C23.3837 29.2036 25.1649 27.5044 25.1649 25.0903V7.86377C25.1649 5.44971 23.3837 3.75049 20.9344 3.75049H9.9657C7.51648 3.75049 5.73523 5.44971 5.73523 7.86377V25.0903Z" fill="white"/>
<path d="M7.10632 25.0903C7.10632 26.7309 8.25475 27.8325 9.96569 27.8325H20.9344C22.6454 27.8325 23.7938 26.7309 23.7938 25.0903V7.86377C23.7938 6.22314 22.6454 5.12158 20.9344 5.12158H9.96569C8.25475 5.12158 7.10632 6.22314 7.10632 7.86377V25.0903ZM8.99303 24.6098V8.34424C8.99303 7.52393 9.50866 7.0083 10.3876 7.0083H20.5243C21.3797 7.0083 21.9071 7.52393 21.9071 8.34424V24.6098C21.9071 25.4419 21.3797 25.9458 20.5243 25.9458H10.3876C9.50866 25.9458 8.99303 25.4419 8.99303 24.6098Z" fill="black" fill-opacity="0.85"/>
</g>
<defs>
<clipPath id="clip0_2207_13897">
<rect width="25.125" height="29.1211" fill="white" transform="translate(0.039917 0.0825195)"/>
</clipPath>
</defs>
</svg>
