<svg width="24" height="25" viewBox="0 0 24 25" fill="none" xmlns="http://www.w3.org/2000/svg">
<g clip-path="url(#clip0_2207_13545)">
<path d="M11.9741 23.9902C18.5132 23.9902 23.9272 18.5645 23.9272 12.0371C23.9272 5.49804 18.5015 0.0839844 11.9624 0.0839844C5.43506 0.0839844 0.0209961 5.49804 0.0209961 12.0371C0.0209961 18.5645 5.44678 23.9902 11.9741 23.9902ZM11.9741 21.9981C6.44288 21.9981 2.02491 17.5684 2.02491 12.0371C2.02491 6.50586 6.43116 2.07617 11.9624 2.07617C17.4937 2.07617 21.9351 6.50586 21.9351 12.0371C21.9351 17.5684 17.5054 21.9981 11.9741 21.9981Z" fill="black" fill-opacity="0.85"/>
<path d="M9.40772 19.4317H14.5288C15.6772 19.4317 16.4507 18.6934 16.4507 17.5801V6.48243C16.4507 5.36915 15.6772 4.64258 14.5288 4.64258H9.40772C8.271 4.64258 7.49756 5.36915 7.49756 6.48243V17.5801C7.49756 18.6934 8.271 19.4317 9.40772 19.4317ZM9.56006 18.2832C8.96241 18.2832 8.63428 17.9785 8.63428 17.416V6.64649C8.63428 6.08399 8.96241 5.7793 9.56006 5.7793H14.3882C14.9858 5.7793 15.314 6.08399 15.314 6.64649V17.416C15.314 17.9785 14.9858 18.2832 14.3882 18.2832H9.56006ZM10.5093 17.7793H13.439C13.6382 17.7793 13.7788 17.6504 13.7788 17.4512C13.7788 17.2402 13.6382 17.0996 13.439 17.0996H10.5093C10.3101 17.0996 10.1694 17.2402 10.1694 17.4512C10.1694 17.6504 10.3101 17.7793 10.5093 17.7793ZM11.1187 7.34961H12.8179C13.0991 7.34961 13.3218 7.12696 13.3218 6.84571C13.3218 6.57618 13.0991 6.35352 12.8179 6.35352H11.1187C10.8374 6.35352 10.6148 6.57618 10.6148 6.84571C10.6148 7.12696 10.8374 7.34961 11.1187 7.34961Z" fill="black" fill-opacity="0.85"/>
<path d="M16.6733 18.6582C17.2124 19.1856 18.0796 19.1973 18.5952 18.6582C19.146 18.1192 19.1343 17.2871 18.5952 16.7481L7.25147 5.40429C6.71241 4.86524 5.85694 4.86524 5.32959 5.40429C4.79053 5.93165 4.79053 6.79882 5.32959 7.32617L16.6733 18.6582Z" fill="white"/>
<path d="M17.2593 18.084C17.4585 18.2832 17.8101 18.2832 18.0093 18.084C18.2202 17.8613 18.2202 17.5449 18.0093 17.334L6.67725 5.99024C6.46631 5.7793 6.12647 5.7793 5.91553 5.99024C5.70459 6.18946 5.71631 6.54102 5.91553 6.74024L17.2593 18.084Z" fill="black" fill-opacity="0.85"/>
</g>
<defs>
<clipPath id="clip0_2207_13545">
<rect width="23.9062" height="23.918" fill="white" transform="translate(0.0209961 0.0839844)"/>
</clipPath>
</defs>
</svg>
