<svg width="25" height="25" viewBox="0 0 25 25" fill="none" xmlns="http://www.w3.org/2000/svg">
<g clip-path="url(#clip0_2207_13412)">
<path d="M4.52954 21.8559C4.52954 23.6841 5.80689 24.9028 7.71704 24.9028H16.4006C18.3108 24.9028 19.5881 23.6841 19.5881 21.8559V3.1294C19.5881 1.30127 18.3108 0.0825195 16.4006 0.0825195H7.71704C5.80689 0.0825195 4.52954 1.30127 4.52954 3.1294V21.8559ZM6.41626 20.9302V4.05518H17.7014V20.9302H6.41626ZM12.0764 23.7427C11.5139 23.7427 11.0569 23.2856 11.0569 22.7231C11.0569 22.1723 11.5139 21.7153 12.0764 21.7153C12.6272 21.7153 13.0842 22.1723 13.0842 22.7231C13.0842 23.2856 12.6272 23.7427 12.0764 23.7427ZM9.83814 2.1333C9.83814 1.86377 10.0256 1.68799 10.2835 1.68799H13.846C14.1155 1.68799 14.2913 1.86377 14.2913 2.1333C14.2913 2.40283 14.1155 2.5669 13.846 2.5669H10.2835C10.0256 2.5669 9.83814 2.40283 9.83814 2.1333Z" fill="black" fill-opacity="0.85"/>
<path d="M20.1624 23.8598C21.053 24.7387 22.4944 24.7505 23.3733 23.8598C24.2639 22.9809 24.2639 21.5395 23.385 20.6489L3.95533 1.23097C3.07642 0.352057 1.62329 0.340338 0.732667 1.23097C-0.14624 2.10987 -0.14624 3.57472 0.732667 4.44191L20.1624 23.8598Z" fill="white"/>
<path d="M21.135 22.8872C21.4866 23.2505 22.0725 23.2387 22.4124 22.8872C22.7639 22.5473 22.7639 21.9731 22.4124 21.6098L2.99439 2.20363C2.64283 1.85207 2.05689 1.84035 1.70533 2.20363C1.36548 2.54348 1.36548 3.14113 1.70533 3.48098L21.135 22.8872Z" fill="black" fill-opacity="0.85"/>
</g>
<defs>
<clipPath id="clip0_2207_13412">
<rect width="23.9692" height="24.832" fill="white" transform="translate(0.0734863 0.0825195)"/>
</clipPath>
</defs>
</svg>
