<svg width="24" height="25" viewBox="0 0 24 25" fill="none" xmlns="http://www.w3.org/2000/svg">
<g clip-path="url(#clip0_2207_13533)">
<path d="M11.9699 24.002C18.509 24.002 23.923 18.5879 23.923 12.0488C23.923 5.52148 18.4973 0.0957031 11.9582 0.0957031C5.43091 0.0957031 0.0168457 5.52148 0.0168457 12.0488C0.0168457 18.5879 5.44263 24.002 11.9699 24.002Z" fill="black" fill-opacity="0.85"/>
<path d="M4.93873 15.6348C4.77466 15.8574 4.46997 15.8574 4.2356 15.6231C3.35669 14.6738 2.88794 13.3965 2.88794 12.0488C2.88794 10.7129 3.35669 9.43557 4.2356 8.47463C4.46997 8.24026 4.77466 8.24026 4.93873 8.46292C5.10279 8.66213 5.05591 8.90823 4.86841 9.1426C4.15357 9.93948 3.77857 10.9473 3.77857 12.0488C3.77857 13.1504 4.15357 14.1582 4.86841 14.9551C5.05591 15.1895 5.10279 15.4473 4.93873 15.6348ZM18.9895 15.6348C18.8254 15.4473 18.8723 15.1895 19.0715 14.9551C19.7746 14.1582 20.1613 13.1504 20.1613 12.0488C20.1613 10.9473 19.7746 9.93948 19.0715 9.1426C18.8723 8.90823 18.8254 8.66213 18.9895 8.46292C19.1652 8.24026 19.4699 8.24026 19.6926 8.47463C20.5715 9.43557 21.052 10.7129 21.052 12.0488C21.052 13.3965 20.5715 14.6738 19.6926 15.6231C19.4699 15.8574 19.1652 15.8574 18.9895 15.6348Z" fill="white"/>
<path d="M6.68481 14.1464C6.49731 14.3691 6.16918 14.3691 5.95825 14.123C5.50122 13.5487 5.2434 12.8339 5.2434 12.0487C5.2434 11.2753 5.50122 10.5487 5.95825 9.98628C6.16918 9.74019 6.49731 9.72847 6.68481 9.95113C6.84887 10.1503 6.79028 10.3847 6.60278 10.6308C6.30981 11.0058 6.15746 11.5097 6.15746 12.0487C6.15746 12.5878 6.30981 13.08 6.60278 13.4667C6.79028 13.7128 6.84887 13.9472 6.68481 14.1464ZM17.2434 14.1464C17.0793 13.9472 17.1379 13.7128 17.3254 13.4667C17.6184 13.08 17.7824 12.5878 17.7824 12.0487C17.7824 11.5097 17.6184 11.0058 17.3254 10.6308C17.1379 10.3847 17.0793 10.1503 17.2434 9.95113C17.4309 9.72847 17.7707 9.74019 17.9699 9.98628C18.427 10.5487 18.6965 11.2753 18.6965 12.0487C18.6965 12.8339 18.427 13.5487 17.9699 14.123C17.7707 14.3691 17.4309 14.3691 17.2434 14.1464Z" fill="white"/>
<path d="M9.59107 18.9629C8.51294 18.9629 7.78638 18.2715 7.78638 17.2285V6.86915C7.78638 5.81446 8.51294 5.13477 9.59107 5.13477H14.3723C15.4504 5.13477 16.177 5.81446 16.177 6.86915V17.2285C16.177 18.2715 15.4504 18.9629 14.3723 18.9629H9.59107ZM9.71997 17.8848H14.2434C14.7941 17.8848 15.0988 17.5918 15.0988 17.0762V7.00977C15.0988 6.49415 14.7941 6.2129 14.2434 6.2129H9.71997C9.16919 6.2129 8.86451 6.49415 8.86451 7.00977V17.0762C8.86451 17.5918 9.16919 17.8848 9.71997 17.8848ZM11.173 7.66602C10.9035 7.66602 10.716 7.45508 10.716 7.19727C10.716 6.93946 10.9035 6.72852 11.173 6.72852H12.7668C13.0363 6.72852 13.2356 6.93946 13.2356 7.19727C13.2356 7.45508 13.0363 7.66602 12.7668 7.66602H11.173ZM10.6223 17.4278C10.423 17.4278 10.2941 17.2871 10.2941 17.0996C10.2941 16.9004 10.423 16.7715 10.6223 16.7715H13.3645C13.552 16.7715 13.6691 16.9004 13.6691 17.0996C13.6691 17.2871 13.552 17.4278 13.3645 17.4278H10.6223Z" fill="white"/>
</g>
<defs>
<clipPath id="clip0_2207_13533">
<rect width="23.9062" height="23.918" fill="white" transform="translate(0.0168457 0.0839844)"/>
</clipPath>
</defs>
</svg>
