<svg width="25" height="16" viewBox="0 0 25 16" fill="none" xmlns="http://www.w3.org/2000/svg">
<g clip-path="url(#clip0_2207_13450)">
<path d="M23.0334 11.7192C23.0334 12.7036 22.5061 13.2661 21.5686 13.2661H3.46313C2.51391 13.2661 1.98657 12.7036 1.98657 11.7192V10.2075C1.98657 10.0317 2.09204 9.92627 2.26782 9.92627H2.53735C3.01782 9.92627 3.35766 9.60986 3.35766 9.1294V6.09424C3.35766 5.61377 3.01782 5.29736 2.53735 5.29736H2.26782C2.09204 5.29736 1.98657 5.1919 1.98657 5.01611V3.51611C1.98657 2.53174 2.51391 1.96924 3.46313 1.96924H21.5686C22.5061 1.96924 23.0334 2.53174 23.0334 3.51611V11.7192Z" fill="black" fill-opacity="0.85"/>
<path d="M24.9201 11.9536V3.27002C24.9201 1.35986 23.7014 0.0825195 21.8733 0.0825195H3.15844C1.33032 0.0825195 0.0881348 1.35986 0.0881348 3.27002V11.9536C0.0881348 13.8637 1.33032 15.1528 3.15844 15.1528H21.8733C23.7014 15.1528 24.9201 13.8637 24.9201 11.9536ZM23.0334 11.7192C23.0334 12.7036 22.5061 13.2661 21.5686 13.2661H3.46313C2.51391 13.2661 1.98657 12.7036 1.98657 11.7192V10.2075C1.98657 10.0317 2.09204 9.92627 2.26782 9.92627H2.53735C3.01782 9.92627 3.35766 9.60986 3.35766 9.1294V6.09424C3.35766 5.61377 3.01782 5.29736 2.53735 5.29736H2.26782C2.09204 5.29736 1.98657 5.1919 1.98657 5.01611V3.51611C1.98657 2.53174 2.51391 1.96924 3.46313 1.96924H21.5686C22.5061 1.96924 23.0334 2.53174 23.0334 3.51611V11.7192ZM9.39283 12.3989H15.6389C15.9553 12.3989 16.1779 12.1763 16.1779 11.8481C16.1779 11.52 15.9553 11.3091 15.6389 11.3091H9.39283C9.07642 11.3091 8.85375 11.52 8.85375 11.8481C8.85375 12.1763 9.07642 12.3989 9.39283 12.3989Z" fill="black" fill-opacity="0.85"/>
</g>
<defs>
<clipPath id="clip0_2207_13450">
<rect width="24.832" height="15.1055" fill="white" transform="translate(0.0881348 0.0825195)"/>
</clipPath>
</defs>
</svg>
