<svg width="16" height="25" viewBox="0 0 16 25" fill="none" xmlns="http://www.w3.org/2000/svg">
<g clip-path="url(#clip0_2207_13499)">
<path d="M3.43579 23.0059C2.4397 23.0059 1.88892 22.4785 1.88892 21.541V3.43554C1.88892 2.49804 2.4397 1.9707 3.43579 1.9707H11.6389C12.6233 1.9707 13.1741 2.49804 13.1741 3.43554V21.541C13.1741 22.4785 12.6233 23.0059 11.6389 23.0059H3.43579Z" fill="black" fill-opacity="0.85"/>
<path d="M3.1897 24.8926H11.8733C13.7834 24.8926 15.0608 23.6738 15.0608 21.8457V3.13086C15.0608 1.30273 13.7834 0.0839844 11.8733 0.0839844H3.1897C1.27954 0.0839844 0.00219727 1.30273 0.00219727 3.13086V21.8457C0.00219727 23.6738 1.27954 24.8926 3.1897 24.8926ZM3.43579 23.0059C2.4397 23.0059 1.88892 22.4785 1.88892 21.541V3.43554C1.88892 2.49804 2.4397 1.9707 3.43579 1.9707H11.6389C12.6233 1.9707 13.1741 2.49804 13.1741 3.43554V21.541C13.1741 22.4785 12.6233 23.0059 11.6389 23.0059H3.43579ZM5.05298 22.1504H10.0334C10.3499 22.1504 10.5725 21.9278 10.5725 21.5996C10.5725 21.2715 10.3499 21.0606 10.0334 21.0606H5.05298C4.73658 21.0606 4.5022 21.2715 4.5022 21.5996C4.5022 21.9278 4.73658 22.1504 5.05298 22.1504ZM6.11939 4.45507H8.95532C9.41236 4.45507 9.77564 4.09179 9.77564 3.62304C9.77564 3.16601 9.41236 2.80273 8.95532 2.80273H6.11939C5.65064 2.80273 5.28736 3.16601 5.28736 3.62304C5.28736 4.09179 5.65064 4.45507 6.11939 4.45507Z" fill="black" fill-opacity="0.85"/>
</g>
<defs>
<clipPath id="clip0_2207_13499">
<rect width="15.0586" height="24.832" fill="white" transform="translate(0.00219727 0.0839844)"/>
</clipPath>
</defs>
</svg>
