<svg width="24" height="24" viewBox="0 0 24 24" fill="none" xmlns="http://www.w3.org/2000/svg">
<g clip-path="url(#clip0_2207_13418)">
<path d="M12.0288 23.9887C18.5679 23.9887 23.9819 18.563 23.9819 12.0356C23.9819 5.49658 18.5562 0.0825195 12.0171 0.0825195C5.48974 0.0825195 0.0756836 5.49658 0.0756836 12.0356C0.0756836 18.563 5.50146 23.9887 12.0288 23.9887ZM12.0288 21.9966C6.49756 21.9966 2.07959 17.5669 2.07959 12.0356C2.07959 6.5044 6.48584 2.07471 12.0171 2.07471C17.5484 2.07471 21.9898 6.5044 21.9898 12.0356C21.9898 17.5669 17.5601 21.9966 12.0288 21.9966Z" fill="black" fill-opacity="0.85"/>
<path d="M7.55225 17.5903C7.55225 18.6919 8.31397 19.4302 9.46241 19.4302H14.5952C15.7437 19.4302 16.5054 18.6919 16.5054 17.5903V6.48096C16.5054 5.3794 15.7437 4.64111 14.5952 4.64111H9.46241C8.31397 4.64111 7.55225 5.3794 7.55225 6.48096V17.5903ZM8.70069 17.0395V7.03174H15.3569V17.0395H8.70069ZM12.0405 18.7153C11.7124 18.7153 11.4429 18.4458 11.4429 18.1177C11.4429 17.7895 11.7124 17.52 12.0405 17.52C12.3569 17.52 12.6148 17.7895 12.6148 18.1177C12.6148 18.4458 12.3569 18.7153 12.0405 18.7153ZM10.6929 5.8833C10.6929 5.70752 10.8101 5.60205 10.9741 5.60205H13.0952C13.2593 5.60205 13.3648 5.70752 13.3648 5.8833C13.3648 6.04736 13.2593 6.16455 13.0952 6.16455H10.9741C10.8101 6.16455 10.6929 6.04736 10.6929 5.8833Z" fill="black" fill-opacity="0.85"/>
<path d="M16.728 18.6567C17.2671 19.1841 18.1343 19.1958 18.6499 18.6567C19.2007 18.1177 19.189 17.2856 18.6499 16.7466L7.30616 5.40283C6.7671 4.86377 5.91163 4.86377 5.38428 5.40283C4.84522 5.93018 4.84522 6.79736 5.38428 7.32471L16.728 18.6567Z" fill="white"/>
<path d="M17.314 18.0825C17.5132 18.2817 17.8648 18.2817 18.064 18.0825C18.2749 17.8598 18.2749 17.5434 18.064 17.3325L6.73197 5.98877C6.52103 5.77783 6.18119 5.77783 5.97025 5.98877C5.75931 6.18799 5.77103 6.53955 5.97025 6.73877L17.314 18.0825Z" fill="black" fill-opacity="0.85"/>
</g>
<defs>
<clipPath id="clip0_2207_13418">
<rect width="23.9062" height="23.918" fill="white" transform="translate(0.0756836 0.0825195)"/>
</clipPath>
</defs>
</svg>
