<svg width="24" height="24" viewBox="0 0 24 24" fill="none" xmlns="http://www.w3.org/2000/svg">
<g clip-path="url(#clip0_2207_13405)">
<path d="M12.0244 24.0005C18.5635 24.0005 23.9775 18.5864 23.9775 12.0473C23.9775 5.52002 18.5518 0.0942383 12.0127 0.0942383C5.48535 0.0942383 0.0712891 5.52002 0.0712891 12.0473C0.0712891 18.5864 5.49707 24.0005 12.0244 24.0005Z" fill="black" fill-opacity="0.85"/>
<path d="M5.0752 15.6333C4.92285 15.8559 4.60645 15.8559 4.37207 15.6216C3.49317 14.6723 3.02441 13.395 3.02441 12.0473C3.02441 10.7114 3.49317 9.43411 4.37207 8.47317C4.60645 8.2388 4.92285 8.2388 5.0752 8.46146C5.25098 8.66067 5.2041 8.90677 5.00488 9.14114C4.29004 9.93802 3.91504 10.9458 3.91504 12.0473C3.91504 13.1489 4.29004 14.1567 5.00488 14.9536C5.2041 15.188 5.25098 15.4458 5.0752 15.6333ZM19.0088 15.6333C18.833 15.4458 18.8799 15.188 19.0908 14.9536C19.794 14.1567 20.1807 13.1489 20.1807 12.0473C20.1807 10.9458 19.794 9.93802 19.0908 9.14114C18.8799 8.90677 18.833 8.66067 19.0088 8.46146C19.1729 8.2388 19.4893 8.2388 19.7119 8.47317C20.5908 9.43411 21.0713 10.7114 21.0713 12.0473C21.0713 13.395 20.5908 14.6723 19.7119 15.6216C19.4893 15.8559 19.1729 15.8559 19.0088 15.6333Z" fill="white"/>
<path d="M6.82129 14.145C6.63379 14.3677 6.30567 14.3677 6.10645 14.1216C5.64941 13.5473 5.37988 12.8325 5.37988 12.0473C5.37988 11.2739 5.64941 10.5473 6.10645 9.98481C6.30567 9.73872 6.63379 9.727 6.82129 9.94966C6.98535 10.1489 6.92676 10.3833 6.75098 10.6294C6.44629 10.9927 6.29395 11.5083 6.29395 12.0473C6.29395 12.5864 6.44629 13.0786 6.75098 13.4653C6.92676 13.7114 6.98535 13.9458 6.82129 14.145ZM17.2627 14.145C17.0986 13.9458 17.1572 13.7114 17.333 13.4653C17.6377 13.0786 17.8018 12.5864 17.8018 12.0473C17.8018 11.5083 17.6377 10.9927 17.333 10.6294C17.1572 10.3833 17.0986 10.1489 17.2627 9.94966C17.4502 9.727 17.7901 9.73872 17.9775 9.98481C18.4346 10.5473 18.7158 11.2739 18.7158 12.0473C18.7158 12.8325 18.4346 13.5473 17.9775 14.1216C17.7901 14.3677 17.4502 14.3677 17.2627 14.145Z" fill="white"/>
<path d="M7.84082 17.2505V6.85596C7.84082 5.82471 8.55567 5.1333 9.63379 5.1333H14.4385C15.5166 5.1333 16.2315 5.82471 16.2315 6.85596V17.2505C16.2315 18.2817 15.5166 18.9731 14.4385 18.9731H9.63379C8.55567 18.9731 7.84082 18.2817 7.84082 17.2505ZM8.93067 16.7348H15.1416V7.37158H8.93067V16.7348ZM12.0479 18.2934C12.3525 18.2934 12.5752 18.0356 12.5752 17.7309C12.5752 17.438 12.3525 17.1919 12.0479 17.1919C11.7432 17.1919 11.4971 17.438 11.4971 17.7309C11.4971 18.0356 11.7432 18.2934 12.0479 18.2934ZM10.794 6.30518C10.794 6.45752 10.9111 6.55127 11.0401 6.55127H13.0322C13.1729 6.55127 13.2783 6.45752 13.2783 6.30518C13.2783 6.14111 13.1729 6.03564 13.0322 6.03564H11.0401C10.9111 6.03564 10.794 6.14111 10.794 6.30518Z" fill="white"/>
</g>
<defs>
<clipPath id="clip0_2207_13405">
<rect width="23.9062" height="23.918" fill="white" transform="translate(0.0712891 0.0825195)"/>
</clipPath>
</defs>
</svg>
