<svg width="25" height="16" viewBox="0 0 25 16" fill="none" xmlns="http://www.w3.org/2000/svg">
<g clip-path="url(#clip0_2207_13577)">
<path d="M3.38843 13.2676C2.43921 13.2676 1.91187 12.7051 1.91187 11.7207V3.51757C1.91187 2.5332 2.43921 1.9707 3.38843 1.9707H21.4939C22.4313 1.9707 22.9587 2.5332 22.9587 3.51757V11.7207C22.9587 12.7051 22.4313 13.2676 21.4939 13.2676H3.38843Z" fill="black" fill-opacity="0.85"/>
<path d="M3.08374 15.1543H21.7985C23.6267 15.1543 24.8454 13.8652 24.8454 11.9551V3.27148C24.8454 1.36132 23.6267 0.0839844 21.7985 0.0839844H3.08374C1.25562 0.0839844 0.0251465 1.36132 0.0251465 3.27148V11.9551C0.0251465 13.8652 1.25562 15.1543 3.08374 15.1543ZM3.38843 13.2676C2.43921 13.2676 1.91187 12.7051 1.91187 11.7207V3.51757C1.91187 2.5332 2.43921 1.9707 3.38843 1.9707H21.4939C22.4313 1.9707 22.9587 2.5332 22.9587 3.51757V11.7207C22.9587 12.7051 22.4313 13.2676 21.4939 13.2676H3.38843ZM9.31812 12.4004H15.5642C15.8806 12.4004 16.1032 12.1778 16.1032 11.8496C16.1032 11.5215 15.8806 11.3106 15.5642 11.3106H9.31812C9.00171 11.3106 8.77906 11.5215 8.77906 11.8496C8.77906 12.1778 9.00171 12.4004 9.31812 12.4004ZM3.57593 9.86914C4.04468 9.86914 4.40796 9.49414 4.40796 9.02539V6.18945C4.40796 5.73242 4.04468 5.36914 3.57593 5.36914C3.1189 5.36914 2.7439 5.73242 2.7439 6.18945V9.02539C2.7439 9.49414 3.1189 9.86914 3.57593 9.86914Z" fill="black" fill-opacity="0.85"/>
</g>
<defs>
<clipPath id="clip0_2207_13577">
<rect width="24.8203" height="15.1055" fill="white" transform="translate(0.0251465 0.0839844)"/>
</clipPath>
</defs>
</svg>
