<svg width="24" height="24" viewBox="0 0 24 24" fill="none" xmlns="http://www.w3.org/2000/svg">
<g clip-path="url(#clip0_2207_13440)">
<path d="M12.0371 23.9887C18.5762 23.9887 23.9902 18.563 23.9902 12.0356C23.9902 5.49658 18.5645 0.0825195 12.0254 0.0825195C5.49804 0.0825195 0.0839844 5.49658 0.0839844 12.0356C0.0839844 18.563 5.50976 23.9887 12.0371 23.9887ZM12.0371 21.9966C6.50586 21.9966 2.08789 17.5669 2.08789 12.0356C2.08789 6.5044 6.49414 2.07471 12.0254 2.07471C17.5567 2.07471 21.9981 6.5044 21.9981 12.0356C21.9981 17.5669 17.5684 21.9966 12.0371 21.9966Z" fill="black" fill-opacity="0.85"/>
<path d="M9.45899 19.4302H14.5801C15.7285 19.4302 16.502 18.6919 16.502 17.5786V6.48096C16.502 5.36768 15.7285 4.64111 14.5801 4.64111H9.45899C8.32227 4.64111 7.54883 5.36768 7.54883 6.48096V17.5786C7.54883 18.6919 8.32227 19.4302 9.45899 19.4302ZM9.61133 18.2817C9.01368 18.2817 8.68555 17.977 8.68555 17.4145V6.64502C8.68555 6.08252 9.01368 5.77783 9.61133 5.77783H10.4434C10.5606 5.77783 10.5957 5.82471 10.5957 5.93018V6.08252C10.5957 6.37549 10.7832 6.58643 11.0879 6.58643H12.9629C13.2559 6.58643 13.4551 6.37549 13.4551 6.08252V5.93018C13.4551 5.82471 13.502 5.77783 13.6074 5.77783H14.4395C15.0371 5.77783 15.3652 6.08252 15.3652 6.64502V17.4145C15.3652 17.977 15.0371 18.2817 14.4395 18.2817H9.61133ZM10.5606 17.7778H13.4902C13.6895 17.7778 13.8301 17.6489 13.8301 17.4497C13.8301 17.2387 13.6895 17.0981 13.4902 17.0981H10.5606C10.3613 17.0981 10.2207 17.2387 10.2207 17.4497C10.2207 17.6489 10.3613 17.7778 10.5606 17.7778Z" fill="black" fill-opacity="0.85"/>
</g>
<defs>
<clipPath id="clip0_2207_13440">
<rect width="23.9062" height="23.918" fill="white" transform="translate(0.0839844 0.0825195)"/>
</clipPath>
</defs>
</svg>
