<svg width="21" height="25" viewBox="0 0 21 25" fill="none" xmlns="http://www.w3.org/2000/svg">
<g clip-path="url(#clip0_2207_13642)">
<path d="M5.16516 3.1294V21.8442C5.16516 23.6723 6.44251 24.8911 8.35266 24.8911H17.0363C18.9464 24.8911 20.2238 23.6723 20.2238 21.8442V3.1294C20.2238 1.30127 18.9464 0.0825195 17.0363 0.0825195H8.35266C6.44251 0.0825195 5.16516 1.30127 5.16516 3.1294ZM7.05188 21.5395V3.43408C7.05188 2.49658 7.60266 1.96924 8.59876 1.96924H16.8019C17.7863 1.96924 18.3371 2.49658 18.3371 3.43408V21.5395C18.3371 22.477 17.7863 23.0044 16.8019 23.0044H8.59876C7.60266 23.0044 7.05188 22.477 7.05188 21.5395Z" fill="black" fill-opacity="0.85"/>
<path d="M2.49329 14.9184H12.6652C14.0714 14.9184 15.1144 13.7934 15.1144 12.4809C15.1144 11.1684 14.0714 10.0435 12.6652 10.0435H2.49329C1.08704 10.0435 0.0440674 11.1684 0.0440674 12.4809C0.0440674 13.7934 1.08704 14.9184 2.49329 14.9184Z" fill="white"/>
<path d="M2.49329 13.313H10.1339L12.6066 13.1958L10.0519 15.4927L9.38391 16.1606C9.23157 16.3247 9.1261 16.5473 9.1261 16.7934C9.1261 17.2739 9.47766 17.602 9.93469 17.602C10.1691 17.602 10.3918 17.5083 10.5558 17.3442L14.798 13.102C15.0089 12.9028 15.1144 12.6802 15.1144 12.4809C15.1144 12.2817 15.0089 12.0356 14.798 11.8481L10.5558 7.61768C10.3918 7.45361 10.1691 7.35986 9.93469 7.35986C9.47766 7.35986 9.1261 7.68799 9.1261 8.15674C9.1261 8.41455 9.23157 8.62549 9.38391 8.78955L10.0519 9.46924L12.6066 11.7544L10.1339 11.6372H2.49329C1.96595 11.6372 1.63782 12.0473 1.63782 12.4809C1.63782 12.9145 1.96595 13.313 2.49329 13.313Z" fill="black" fill-opacity="0.85"/>
</g>
<defs>
<clipPath id="clip0_2207_13642">
<rect width="20.1797" height="24.832" fill="white" transform="translate(0.0440674 0.0825195)"/>
</clipPath>
</defs>
</svg>
