<svg width="16" height="25" viewBox="0 0 16 25" fill="none" xmlns="http://www.w3.org/2000/svg">
<g clip-path="url(#clip0_2207_13725)">
<path d="M3.47766 21.4473C2.48157 21.4473 1.93079 20.9199 1.93079 19.9824V3.43554C1.93079 2.49804 2.48157 1.9707 3.47766 1.9707H11.6808C12.6652 1.9707 13.216 2.49804 13.216 3.43554V20.041C13.216 20.9902 12.6652 21.4473 11.6808 21.4473H3.47766Z" fill="black" fill-opacity="0.85"/>
<path d="M3.23157 24.8926H11.9152C13.8253 24.8926 15.1027 23.6738 15.1027 21.8457V3.13086C15.1027 1.30273 13.8253 0.0839844 11.9152 0.0839844H3.23157C1.32141 0.0839844 0.0440674 1.30273 0.0440674 3.13086V21.8457C0.0440674 23.6738 1.32141 24.8926 3.23157 24.8926ZM3.47766 21.4473C2.48157 21.4473 1.93079 20.9199 1.93079 19.9824V3.43554C1.93079 2.49804 2.48157 1.9707 3.47766 1.9707H11.6808C12.6652 1.9707 13.216 2.49804 13.216 3.43554V20.041C13.216 20.9902 12.6652 21.4473 11.6808 21.4473H3.47766ZM5.76282 21.7168H9.39563V21.0488C9.39563 20.5684 9.07923 20.2285 8.59876 20.2285H6.57141C6.07923 20.2285 5.76282 20.5684 5.76282 21.0488V21.7168Z" fill="black" fill-opacity="0.85"/>
</g>
<defs>
<clipPath id="clip0_2207_13725">
<rect width="15.0586" height="24.832" fill="white" transform="translate(0.0440674 0.0839844)"/>
</clipPath>
</defs>
</svg>
