<svg width="38" height="25" viewBox="0 0 38 25" fill="none" xmlns="http://www.w3.org/2000/svg">
<g clip-path="url(#clip0_2207_13519)">
<path d="M4.53614 20.5098C4.91114 20.0879 4.79395 19.5371 4.37208 19.0567C2.80175 17.3106 1.92286 15.0137 1.92286 12.4942C1.92286 9.97461 2.80175 7.67774 4.37208 5.93165C4.79395 5.45118 4.91114 4.9004 4.53614 4.47852C4.16114 4.03321 3.50489 4.04493 3.05958 4.53711C1.11426 6.64649 0.0126953 9.45899 0.0126953 12.4942C0.0126953 15.5293 1.11426 18.3301 3.05958 20.4512C3.50489 20.9434 4.16114 20.9434 4.53614 20.5098ZM32.9658 20.5098C33.3408 20.9434 33.9971 20.9434 34.4541 20.4512C36.3994 18.3301 37.4893 15.5293 37.4893 12.4942C37.4893 9.45899 36.3994 6.64649 34.4541 4.53711C33.9971 4.04493 33.3408 4.03321 32.9658 4.47852C32.5908 4.9004 32.708 5.45118 33.1299 5.93165C34.7002 7.67774 35.5791 9.97461 35.5791 12.4942C35.5791 15.0137 34.7002 17.3106 33.1299 19.0567C32.708 19.5371 32.5908 20.0879 32.9658 20.5098Z" fill="black" fill-opacity="0.85"/>
<path d="M7.81738 17.1698C8.19238 16.748 8.04003 16.2206 7.66503 15.7167C6.96191 14.8378 6.62207 13.7128 6.62207 12.4941C6.62207 11.2753 6.96191 10.1386 7.66503 9.2714C8.04003 8.76749 8.19238 8.24015 7.81738 7.81828C7.43066 7.37296 6.72753 7.37296 6.31738 7.90031C5.29785 9.16593 4.71191 10.7714 4.71191 12.4941C4.71191 14.2167 5.29785 15.8222 6.31738 17.0878C6.72753 17.6151 7.43066 17.6034 7.81738 17.1698ZM29.6846 17.1698C30.0713 17.6034 30.7744 17.6151 31.1846 17.0878C32.2041 15.8222 32.8018 14.2167 32.8018 12.4941C32.8018 10.7714 32.2041 9.16593 31.1846 7.90031C30.7744 7.37296 30.0713 7.37296 29.6846 7.81828C29.3096 8.24015 29.4736 8.76749 29.8369 9.2714C30.54 10.1386 30.8916 11.2753 30.8916 12.4941C30.8916 13.7128 30.54 14.8378 29.8369 15.7167C29.4736 16.2206 29.3096 16.748 29.6846 17.1698Z" fill="black" fill-opacity="0.85"/>
<path d="M14.6611 23.0059C13.665 23.0059 13.1143 22.4785 13.1143 21.541V3.43554C13.1143 2.49804 13.665 1.9707 14.6611 1.9707H22.8643C23.8486 1.9707 24.3994 2.49804 24.3994 3.43554V21.541C24.3994 22.4785 23.8486 23.0059 22.8643 23.0059H14.6611Z" fill="black" fill-opacity="0.85"/>
<path d="M14.415 24.8926H23.0986C25.0088 24.8926 26.2861 23.6738 26.2861 21.8457V3.13086C26.2861 1.30273 25.0088 0.0839844 23.0986 0.0839844H14.415C12.5049 0.0839844 11.2275 1.30273 11.2275 3.13086V21.8457C11.2275 23.6738 12.5049 24.8926 14.415 24.8926ZM14.6611 23.0059C13.665 23.0059 13.1143 22.4785 13.1143 21.541V3.43554C13.1143 2.49804 13.665 1.9707 14.6611 1.9707H22.8643C23.8486 1.9707 24.3994 2.49804 24.3994 3.43554V21.541C24.3994 22.4785 23.8486 23.0059 22.8643 23.0059H14.6611ZM16.2783 22.1504H21.2588C21.5752 22.1504 21.7979 21.9278 21.7979 21.5996C21.7979 21.2715 21.5752 21.0606 21.2588 21.0606H16.2783C15.9619 21.0606 15.7275 21.2715 15.7275 21.5996C15.7275 21.9278 15.9619 22.1504 16.2783 22.1504ZM17.3447 4.45507H20.1807C20.6377 4.45507 21.001 4.09179 21.001 3.62304C21.001 3.16601 20.6377 2.80273 20.1807 2.80273H17.3447C16.876 2.80273 16.5127 3.16601 16.5127 3.62304C16.5127 4.09179 16.876 4.45507 17.3447 4.45507Z" fill="black" fill-opacity="0.85"/>
</g>
<defs>
<clipPath id="clip0_2207_13519">
<rect width="37.4766" height="24.832" fill="white" transform="translate(0.0126953 0.0839844)"/>
</clipPath>
</defs>
</svg>
