<svg width="25" height="16" viewBox="0 0 25 16" fill="none" xmlns="http://www.w3.org/2000/svg">
<g clip-path="url(#clip0_2207_13358)">
<path d="M20.9087 13.8887H4.0337V2.60352H20.9087V13.8887ZM23.7212 8.22852C23.7212 8.79102 23.2758 9.24804 22.7016 9.24804C22.1508 9.24804 21.6938 8.79102 21.6938 8.22852C21.6938 7.67774 22.1508 7.22071 22.7016 7.22071C23.2758 7.22071 23.7212 7.67774 23.7212 8.22852ZM2.73292 8.22852C2.73292 8.61524 2.41651 8.91993 2.04151 8.91993C1.65479 8.91993 1.3501 8.61524 1.3501 8.22852C1.3501 7.8418 1.65479 7.54883 2.04151 7.54883C2.41651 7.54883 2.73292 7.8418 2.73292 8.22852Z" fill="black" fill-opacity="0.85"/>
<path d="M21.8344 15.7754C23.6626 15.7754 24.893 14.4981 24.893 12.5879V3.90429C24.893 1.99414 23.6626 0.716797 21.8344 0.716797H3.10792C1.27979 0.716797 0.0610352 1.99414 0.0610352 3.90429V12.5879C0.0610352 14.4981 1.27979 15.7754 3.10792 15.7754H21.8344ZM20.9087 13.8887H4.0337V2.60351H20.9087V13.8887ZM23.7212 8.22852C23.7212 8.79102 23.2758 9.24804 22.7016 9.24804C22.1508 9.24804 21.6938 8.79102 21.6938 8.22852C21.6938 7.67774 22.1508 7.22071 22.7016 7.22071C23.2758 7.22071 23.7212 7.67774 23.7212 8.22852ZM2.73292 8.22852C2.73292 8.61524 2.41651 8.91993 2.04151 8.91993C1.65479 8.91993 1.3501 8.61524 1.3501 8.22852C1.3501 7.84179 1.65479 7.54882 2.04151 7.54882C2.41651 7.54882 2.73292 7.84179 2.73292 8.22852Z" fill="black" fill-opacity="0.85"/>
</g>
<defs>
<clipPath id="clip0_2207_13358">
<rect width="24.832" height="15.6914" fill="white" transform="translate(0.0610352 0.0839844)"/>
</clipPath>
</defs>
</svg>
