<svg width="16" height="25" viewBox="0 0 16 25" fill="none" xmlns="http://www.w3.org/2000/svg">
<g clip-path="url(#clip0_2207_13347)">
<path d="M1.94556 20.9317V4.05665H13.2307V20.9317H1.94556ZM7.60572 23.7442C7.04322 23.7442 6.58618 23.2871 6.58618 22.7246C6.58618 22.1738 7.04322 21.7168 7.60572 21.7168C8.1565 21.7168 8.61353 22.1738 8.61353 22.7246C8.61353 23.2871 8.1565 23.7442 7.60572 23.7442ZM7.60572 2.75587C7.219 2.75587 6.90259 2.43946 6.90259 2.05274C6.90259 1.67774 7.219 1.37305 7.60572 1.37305C7.98072 1.37305 8.2854 1.67774 8.2854 2.05274C8.2854 2.43946 7.98072 2.75587 7.60572 2.75587Z" fill="black" fill-opacity="0.85"/>
<path d="M0.0588379 21.8574C0.0588379 23.6856 1.33618 24.9043 3.24634 24.9043H11.9299C13.84 24.9043 15.1174 23.6856 15.1174 21.8574V3.13086C15.1174 1.30273 13.84 0.0839844 11.9299 0.0839844H3.24634C1.33618 0.0839844 0.0588379 1.30273 0.0588379 3.13086V21.8574ZM1.94556 20.9317V4.05664H13.2307V20.9317H1.94556ZM7.60572 23.7442C7.04322 23.7442 6.58618 23.2871 6.58618 22.7246C6.58618 22.1738 7.04322 21.7168 7.60572 21.7168C8.1565 21.7168 8.61353 22.1738 8.61353 22.7246C8.61353 23.2871 8.1565 23.7442 7.60572 23.7442ZM7.60572 2.75586C7.219 2.75586 6.90259 2.43945 6.90259 2.05273C6.90259 1.67773 7.219 1.37304 7.60572 1.37304C7.98072 1.37304 8.2854 1.67773 8.2854 2.05273C8.2854 2.43945 7.98072 2.75586 7.60572 2.75586Z" fill="black" fill-opacity="0.85"/>
</g>
<defs>
<clipPath id="clip0_2207_13347">
<rect width="15.0586" height="24.832" fill="white" transform="translate(0.0588379 0.0839844)"/>
</clipPath>
</defs>
</svg>
