<svg width="18" height="32" viewBox="0 0 18 32" fill="none" xmlns="http://www.w3.org/2000/svg">
<g clip-path="url(#clip0_2207_17978)">
<path d="M3.30372 25.8301H14.2021C16.2529 25.8301 17.4365 24.6113 17.4365 22.5371V5.80273C17.4365 3.71679 16.2529 2.50976 14.2021 2.50976H11.1084V2.42773C11.1084 1.0332 10.1474 0.0839844 8.75293 0.0839844C7.3584 0.0839844 6.39746 1.0332 6.39746 2.42773V2.50976H3.30372C1.25293 2.50976 0.0693359 3.71679 0.0693359 5.80273V22.5371C0.0693359 24.6113 1.25293 25.8301 3.30372 25.8301ZM8.75293 3.30664C8.27246 3.30664 7.89746 2.91992 7.89746 2.43945C7.89746 1.9707 8.27246 1.58398 8.75293 1.58398C9.2334 1.58398 9.6084 1.9707 9.6084 2.43945C9.6084 2.91992 9.2334 3.30664 8.75293 3.30664ZM11.4834 30.9863H16.5927C17.0615 30.9863 17.4365 30.6113 17.4365 30.1426C17.4365 29.6621 17.0615 29.2754 16.5927 29.2754H11.4834C10.1357 29.2754 9.44434 28.7129 9.44434 27.3652V24.541H7.7334V27.3652C7.7334 29.6621 9.18653 30.9863 11.4834 30.9863Z" fill="black" fill-opacity="0.85"/>
<path d="M4.7334 22.4551C3.99512 22.4551 3.51465 21.9981 3.51465 21.2715V8.24023C3.51465 7.52539 3.99512 7.04492 4.7334 7.04492H12.7959C13.5341 7.04492 14.0146 7.52539 14.0146 8.24023V21.2715C14.0146 21.9981 13.5341 22.4551 12.7959 22.4551H4.7334Z" fill="white"/>
<path d="M7.27636 20.0996H10.2529C10.6045 20.0996 10.8623 19.8535 10.8623 19.5254C10.8623 19.1856 10.6045 18.9043 10.2529 18.9043H7.27636C6.91308 18.9043 6.66699 19.1856 6.66699 19.5254C6.66699 19.8535 6.91308 20.0996 7.27636 20.0996ZM6.35058 17.5801H11.2138C11.5537 17.5801 11.8115 17.3106 11.8115 16.9707C11.8115 16.6426 11.5537 16.3848 11.2138 16.3848H6.35058C5.9873 16.3848 5.74121 16.6426 5.74121 16.9707C5.74121 17.3106 5.9873 17.5801 6.35058 17.5801ZM8.75292 14.6973C9.79589 14.6973 10.6631 13.8887 10.6631 12.834C10.6631 12.2481 10.3584 11.6738 10.0771 11.1465L9.09277 9.34181C8.88183 8.94338 8.6123 8.95509 8.41308 9.34181L7.42871 11.1465C7.14745 11.6738 6.84277 12.2481 6.84277 12.834C6.84277 13.8887 7.72167 14.6973 8.75292 14.6973Z" fill="black" fill-opacity="0.85"/>
</g>
<defs>
<clipPath id="clip0_2207_17978">
<rect width="17.3672" height="31.0898" fill="white" transform="translate(0.0693359 0.0839844)"/>
</clipPath>
</defs>
</svg>
