<svg width="24" height="25" viewBox="0 0 24 25" fill="none" xmlns="http://www.w3.org/2000/svg">
<g clip-path="url(#clip0_2207_25011)">
<path d="M12.0266 23.9902C18.5657 23.9902 23.9797 18.5645 23.9797 12.0371C23.9797 5.49804 18.554 0.0839844 12.0149 0.0839844C5.48755 0.0839844 0.0734863 5.49804 0.0734863 12.0371C0.0734863 18.5645 5.49927 23.9902 12.0266 23.9902Z" fill="black" fill-opacity="0.85"/>
<path d="M11.4524 17.6973C9.77661 17.6973 8.47583 16.877 8.05396 15.6231C7.98365 15.4356 7.94849 15.2598 7.94849 15.0488C7.94849 14.5215 8.31177 14.1465 8.85083 14.1465C9.26099 14.1465 9.53052 14.3457 9.74146 14.8028C10.0344 15.5879 10.6438 16.0332 11.5462 16.0332C12.5423 16.0332 13.1633 15.3067 13.1633 14.0996V7.36132C13.1633 6.71679 13.5032 6.27148 14.1243 6.27148C14.7571 6.27148 15.1087 6.69336 15.1087 7.36132V14.1231C15.1087 16.4317 13.8196 17.6973 11.4524 17.6973Z" fill="white"/>
</g>
<defs>
<clipPath id="clip0_2207_25011">
<rect width="23.9062" height="23.918" fill="white" transform="translate(0.0734863 0.0839844)"/>
</clipPath>
</defs>
</svg>
