<svg width="25" height="25" viewBox="0 0 25 25" fill="none" xmlns="http://www.w3.org/2000/svg">
<g clip-path="url(#clip0_2207_6499)">
<path d="M21.2087 5.5332H9.44312C6.9939 5.5332 5.76343 6.75195 5.76343 9.16601V21.0254C5.76343 23.4395 6.9939 24.6582 9.44312 24.6582H21.2087C23.6579 24.6582 24.8767 23.4395 24.8767 21.0254V9.16601C24.8767 6.74023 23.6579 5.5332 21.2087 5.5332ZM21.1736 7.41992C22.3454 7.41992 22.99 8.05273 22.99 9.27148V20.9199C22.99 22.1387 22.3454 22.7715 21.1736 22.7715H9.46656C8.31812 22.7715 7.65015 22.1387 7.65015 20.9199V9.27148C7.65015 8.05273 8.31812 7.41992 9.46656 7.41992H21.1736Z" fill="black" fill-opacity="0.85"/>
<path d="M15.5251 0.107422H3.75952C1.3103 0.107422 0.079834 1.32617 0.079834 3.74023V15.5996C0.079834 18.0137 1.3103 19.2324 3.75952 19.2324H15.5251C17.9743 19.2324 19.1931 18.0137 19.1931 15.5996V3.74023C19.1931 1.32617 17.9743 0.107422 15.5251 0.107422Z" fill="white"/>
<path d="M15.5251 0.107422H3.75952C1.3103 0.107422 0.079834 1.32617 0.079834 3.74023V15.5996C0.079834 18.0137 1.3103 19.2324 3.75952 19.2324H15.5251C17.9743 19.2324 19.1931 18.0137 19.1931 15.5996V3.74023C19.1931 1.32617 17.9743 0.107422 15.5251 0.107422ZM15.49 1.99414C16.6618 1.99414 17.3064 2.62695 17.3064 3.8457V15.4942C17.3064 16.7129 16.6618 17.3457 15.49 17.3457H3.78295C2.63452 17.3457 1.96655 16.7129 1.96655 15.4942V3.8457C1.96655 2.62695 2.63452 1.99414 3.78295 1.99414H15.49Z" fill="black" fill-opacity="0.85"/>
<path d="M9.07984 15.1543C11.3884 15.1543 12.6189 13.9238 12.6189 11.709V5.13477C12.6189 4.49024 12.2907 4.0918 11.6696 4.0918C11.072 4.0918 10.7439 4.51368 10.7439 5.13477V11.6856C10.7439 12.8457 10.1462 13.5488 9.17359 13.5488C8.29468 13.5488 7.70875 13.1152 7.41578 12.3535C7.21656 11.9082 6.95875 11.7207 6.56031 11.7207C6.04468 11.7207 5.69312 12.084 5.69312 12.5879C5.69312 12.7871 5.72828 12.9629 5.78687 13.1387C6.19703 14.3574 7.46265 15.1543 9.07984 15.1543Z" fill="black" fill-opacity="0.85"/>
</g>
<defs>
<clipPath id="clip0_2207_6499">
<rect width="24.7969" height="24.5742" fill="white" transform="translate(0.079834 0.0839844)"/>
</clipPath>
</defs>
</svg>
