<svg width="22" height="22" viewBox="0 0 22 22" fill="none" xmlns="http://www.w3.org/2000/svg">
<g clip-path="url(#clip0_2207_25021)">
<path d="M3.75733 21.6817H17.9721C20.4331 21.6817 21.6518 20.4629 21.6518 18.0488V3.74023C21.6518 1.32617 20.4331 0.107422 17.9721 0.107422H3.75733C1.30811 0.107422 0.0776367 1.31445 0.0776367 3.74023V18.0488C0.0776367 20.4746 1.30811 21.6817 3.75733 21.6817Z" fill="black" fill-opacity="0.85"/>
<path d="M10.2964 16.5371C8.62061 16.5371 7.31983 15.7168 6.89795 14.4629C6.82764 14.2754 6.79248 14.0996 6.79248 13.8887C6.79248 13.3613 7.15576 12.9863 7.69483 12.9863C8.10498 12.9863 8.37452 13.1856 8.58545 13.6426C8.89014 14.4278 9.4878 14.8731 10.3901 14.8731C11.3862 14.8731 12.0073 14.1465 12.0073 12.9395V6.20118C12.0073 5.55665 12.3471 5.11133 12.9682 5.11133C13.6128 5.11133 13.9526 5.53321 13.9526 6.20118V12.9629C13.9526 15.2715 12.6635 16.5371 10.2964 16.5371Z" fill="white"/>
</g>
<defs>
<clipPath id="clip0_2207_25021">
<rect width="21.5742" height="21.5977" fill="white" transform="translate(0.0776367 0.0839844)"/>
</clipPath>
</defs>
</svg>
