<svg width="24" height="25" viewBox="0 0 24 25" fill="none" xmlns="http://www.w3.org/2000/svg">
<g clip-path="url(#clip0_2207_25026)">
<path d="M12.0393 23.9902C18.5784 23.9902 23.9924 18.5645 23.9924 12.0371C23.9924 5.49804 18.5667 0.0839844 12.0276 0.0839844C5.50024 0.0839844 0.0861816 5.49804 0.0861816 12.0371C0.0861816 18.5645 5.51196 23.9902 12.0393 23.9902ZM12.0393 21.9981C6.50806 21.9981 2.09009 17.5684 2.09009 12.0371C2.09009 6.50586 6.49634 2.07617 12.0276 2.07617C17.5589 2.07617 22.0003 6.50586 22.0003 12.0371C22.0003 17.5684 17.5706 21.9981 12.0393 21.9981Z" fill="black" fill-opacity="0.85"/>
<path d="M8.96899 17.4043C9.57837 17.4043 9.91821 17.0059 9.91821 16.3496V13.9121L11.3479 12.4356L14.7698 16.9473C15.0042 17.2637 15.2503 17.4043 15.5784 17.4043C16.1057 17.4043 16.4807 17.0293 16.4807 16.5254C16.4807 16.291 16.387 16.0332 16.2112 15.8106L12.719 11.2285L15.93 7.92383C16.1409 7.70118 16.2229 7.50196 16.2229 7.24415C16.2229 6.81055 15.8479 6.44727 15.3674 6.44727C15.0745 6.44727 14.8753 6.55274 14.6057 6.82227L9.98852 11.5332H9.91821V7.50196C9.91821 6.84571 9.57837 6.44727 8.96899 6.44727C8.39477 6.44727 8.04321 6.84571 8.04321 7.50196V16.3496C8.04321 17.0059 8.39477 17.4043 8.96899 17.4043Z" fill="black" fill-opacity="0.85"/>
</g>
<defs>
<clipPath id="clip0_2207_25026">
<rect width="23.9062" height="23.918" fill="white" transform="translate(0.0861816 0.0839844)"/>
</clipPath>
</defs>
</svg>
