<svg width="22" height="22" viewBox="0 0 22 22" fill="none" xmlns="http://www.w3.org/2000/svg">
<g clip-path="url(#clip0_2207_25036)">
<path d="M3.77002 21.6817H17.9848C20.4458 21.6817 21.6645 20.4629 21.6645 18.0488V3.74023C21.6645 1.32617 20.4458 0.107422 17.9848 0.107422H3.77002C1.3208 0.107422 0.090332 1.31445 0.090332 3.74023V18.0488C0.090332 20.4746 1.3208 21.6817 3.77002 21.6817ZM3.79345 19.7949C2.62158 19.7949 1.97705 19.1738 1.97705 17.9551V3.83398C1.97705 2.61523 2.62158 1.99414 3.79345 1.99414H17.9614C19.1215 1.99414 19.7778 2.61523 19.7778 3.83398V17.9551C19.7778 19.1738 19.1215 19.7949 17.9614 19.7949H3.79345Z" fill="black" fill-opacity="0.85"/>
<path d="M7.82472 16.2442C8.43409 16.2442 8.77393 15.8457 8.77393 15.1895V12.752L10.2036 11.2754L13.6255 15.7871C13.8598 16.1035 14.1059 16.2442 14.4341 16.2442C14.9614 16.2442 15.3364 15.8692 15.3364 15.3652C15.3364 15.1309 15.2426 14.8731 15.0786 14.6504L11.5747 10.0684L14.7973 6.76368C14.9965 6.54102 15.0786 6.3418 15.0786 6.08399C15.0786 5.6504 14.7036 5.28711 14.2231 5.28711C13.9301 5.28711 13.7309 5.39258 13.4614 5.66211L8.84425 10.3731H8.77393V6.3418C8.77393 5.68555 8.43409 5.28711 7.82472 5.28711C7.2505 5.28711 6.89893 5.68555 6.89893 6.3418V15.1895C6.89893 15.8457 7.2505 16.2442 7.82472 16.2442Z" fill="black" fill-opacity="0.85"/>
</g>
<defs>
<clipPath id="clip0_2207_25036">
<rect width="21.5742" height="21.5977" fill="white" transform="translate(0.090332 0.0839844)"/>
</clipPath>
</defs>
</svg>
