<svg width="16" height="30" viewBox="0 0 16 30" fill="none" xmlns="http://www.w3.org/2000/svg">
<g clip-path="url(#clip0_2207_12775)">
<path d="M7.58691 0.257812C3.41504 0.257812 0.0986328 3.57422 0.0986328 7.72266C0.0986328 10.8515 1.97363 13.6172 4.90332 14.7304V26.2968C4.90332 26.5898 4.99707 26.8125 5.20801 27.0351L7.16504 29.0039C7.36425 29.2031 7.76269 29.2617 8.00879 29.0156L11.7236 25.3008C11.9697 25.0429 11.958 24.7031 11.7236 24.457L9.41504 22.1836L12.5791 19.0312C12.8017 18.7968 12.8017 18.457 12.5556 18.1992L9.42675 15.0468C13.0478 13.6054 15.0634 10.9336 15.0634 7.72266C15.0634 3.59766 11.7236 0.257812 7.58691 0.257812ZM7.58691 7.125C6.49707 7.125 5.62988 6.24609 5.62988 5.16797C5.62988 4.07812 6.48535 3.21094 7.58691 3.21094C8.66504 3.21094 9.54394 4.07812 9.54394 5.16797C9.54394 6.24609 8.66504 7.125 7.58691 7.125Z" fill="black" fill-opacity="0.85"/>
</g>
<defs>
<clipPath id="clip0_2207_12775">
<rect width="14.9648" height="29.0939" fill="white" transform="translate(0.0986328 0.0839844)"/>
</clipPath>
</defs>
</svg>
