<svg width="23" height="24" viewBox="0 0 23 24" fill="none" xmlns="http://www.w3.org/2000/svg">
<g clip-path="url(#clip0_2207_18963)">
<path d="M0.954346 7.56201C1.57544 7.56201 1.90357 7.21045 1.90357 6.60107V3.83545C1.90357 2.6167 2.5481 1.99561 3.71997 1.99561H6.55591C7.17701 1.99561 7.51685 1.65576 7.51685 1.04639C7.51685 0.437011 7.17701 0.108887 6.55591 0.108887H3.69654C1.24732 0.108887 0.0168457 1.31592 0.0168457 3.72998V6.60107C0.0168457 7.21045 0.35669 7.56201 0.954346 7.56201ZM22.0129 7.56201C22.634 7.56201 22.9621 7.21045 22.9621 6.60107V3.72998C22.9621 1.31592 21.7316 0.108887 19.2824 0.108887H16.4113C15.802 0.108887 15.4621 0.437011 15.4621 1.04639C15.4621 1.65576 15.802 1.99561 16.4113 1.99561H19.2473C20.4074 1.99561 21.0754 2.6167 21.0754 3.83545V6.60107C21.0754 7.21045 21.4152 7.56201 22.0129 7.56201ZM3.69654 23.0424H6.55591C7.17701 23.0424 7.51685 22.7027 7.51685 22.1049C7.51685 21.4956 7.17701 21.1557 6.55591 21.1557H3.71997C2.5481 21.1557 1.90357 20.5346 1.90357 19.3159V16.5502C1.90357 15.9292 1.56373 15.5893 0.954346 15.5893C0.344971 15.5893 0.0168457 15.9292 0.0168457 16.5502V19.4096C0.0168457 21.8354 1.24732 23.0424 3.69654 23.0424ZM16.4113 23.0424H19.2824C21.7316 23.0424 22.9621 21.8237 22.9621 19.4096V16.5502C22.9621 15.9292 22.6223 15.5893 22.0129 15.5893C21.4035 15.5893 21.0754 15.9292 21.0754 16.5502V19.3159C21.0754 20.5346 20.4074 21.1557 19.2473 21.1557H16.4113C15.802 21.1557 15.4621 21.4956 15.4621 22.1049C15.4621 22.7027 15.802 23.0424 16.4113 23.0424Z" fill="black" fill-opacity="0.85"/>
<path d="M11.5012 4.42139C9.33326 4.42139 7.6106 6.15576 7.6106 8.30029C7.6106 9.94092 8.58326 11.3588 10.0832 11.9448V17.9565C10.0949 18.1088 10.1535 18.226 10.2707 18.3432L11.2785 19.3627C11.4074 19.4799 11.5715 19.4916 11.7004 19.3627L13.634 17.4409C13.7746 17.312 13.7746 17.1245 13.634 17.0073L12.4387 15.812L14.091 14.1831C14.2082 14.0776 14.1965 13.8901 14.0676 13.7495L12.4387 12.1088C14.3254 11.3588 15.3684 9.97607 15.3684 8.30029C15.3684 6.16748 13.634 4.42139 11.5012 4.42139ZM11.4895 6.24951C12.1457 6.24951 12.673 6.78857 12.673 7.44483C12.673 8.12451 12.1457 8.66357 11.4895 8.66357C10.8332 8.66357 10.2824 8.12451 10.2824 7.44483C10.2824 6.78857 10.8215 6.24951 11.4895 6.24951Z" fill="black" fill-opacity="0.85"/>
</g>
<defs>
<clipPath id="clip0_2207_18963">
<rect width="22.9453" height="22.957" fill="white" transform="translate(0.0168457 0.0854492)"/>
</clipPath>
</defs>
</svg>
