<svg width="30" height="19" viewBox="0 0 30 19" fill="none" xmlns="http://www.w3.org/2000/svg">
<g clip-path="url(#clip0_2207_3710)">
<path d="M3.71753 18.601H25.8542C28.2917 18.601 29.5339 17.3823 29.5339 14.9682V3.70654C29.5339 1.3042 28.2917 0.0854492 25.8542 0.0854492H3.71753C1.25659 0.0854492 0.0378418 1.29248 0.0378418 3.70654V14.9682C0.0378418 17.3823 1.25659 18.601 3.71753 18.601ZM4.47925 6.53076C4.15112 6.53076 3.9519 6.31983 3.9519 5.9917V4.87842C3.9519 4.55029 4.15112 4.33936 4.47925 4.33936H5.59253C5.93237 4.33936 6.14331 4.55029 6.14331 4.87842V5.9917C6.14331 6.31983 5.93237 6.53076 5.59253 6.53076H4.47925ZM8.36987 6.53076C8.03003 6.53076 7.83081 6.31983 7.83081 5.9917V4.87842C7.83081 4.55029 8.03003 4.33936 8.36987 4.33936H9.48315C9.81128 4.33936 10.0222 4.55029 10.0222 4.87842V5.9917C10.0222 6.31983 9.81128 6.53076 9.48315 6.53076H8.36987ZM12.2605 6.53076C11.9323 6.53076 11.7214 6.31983 11.7214 5.9917V4.87842C11.7214 4.55029 11.9323 4.33936 12.2605 4.33936H13.362C13.7019 4.33936 13.9128 4.55029 13.9128 4.87842V5.9917C13.9128 6.31983 13.7019 6.53076 13.362 6.53076H12.2605ZM16.1511 6.53076C15.823 6.53076 15.612 6.31983 15.612 5.9917V4.87842C15.612 4.55029 15.823 4.33936 16.1511 4.33936H17.2644C17.5925 4.33936 17.8034 4.55029 17.8034 4.87842V5.9917C17.8034 6.31983 17.5925 6.53076 17.2644 6.53076H16.1511ZM20.0417 6.53076C19.7019 6.53076 19.4909 6.31983 19.4909 5.9917V4.87842C19.4909 4.55029 19.7019 4.33936 20.0417 4.33936H21.155C21.4831 4.33936 21.6823 4.55029 21.6823 4.87842V5.9917C21.6823 6.31983 21.4831 6.53076 21.155 6.53076H20.0417ZM23.9323 6.53076C23.5925 6.53076 23.3816 6.31983 23.3816 5.9917V4.87842C23.3816 4.55029 23.5925 4.33936 23.9323 4.33936H25.0339C25.3737 4.33936 25.573 4.55029 25.573 4.87842V5.9917C25.573 6.31983 25.3737 6.53076 25.0339 6.53076H23.9323ZM4.47925 10.4213C4.15112 10.4213 3.9519 10.2104 3.9519 9.88233V8.76904C3.9519 8.44092 4.15112 8.22998 4.47925 8.22998H5.59253C5.93237 8.22998 6.14331 8.44092 6.14331 8.76904V9.88233C6.14331 10.2104 5.93237 10.4213 5.59253 10.4213H4.47925ZM8.36987 10.4213C8.03003 10.4213 7.83081 10.2104 7.83081 9.88233V8.76904C7.83081 8.44092 8.03003 8.22998 8.36987 8.22998H9.48315C9.81128 8.22998 10.0222 8.44092 10.0222 8.76904V9.88233C10.0222 10.2104 9.81128 10.4213 9.48315 10.4213H8.36987ZM12.2605 10.4213C11.9323 10.4213 11.7214 10.2104 11.7214 9.88233V8.76904C11.7214 8.44092 11.9323 8.22998 12.2605 8.22998H13.362C13.7019 8.22998 13.9128 8.44092 13.9128 8.76904V9.88233C13.9128 10.2104 13.7019 10.4213 13.362 10.4213H12.2605ZM16.1511 10.4213C15.823 10.4213 15.612 10.2104 15.612 9.88233V8.76904C15.612 8.44092 15.823 8.22998 16.1511 8.22998H17.2644C17.5925 8.22998 17.8034 8.44092 17.8034 8.76904V9.88233C17.8034 10.2104 17.5925 10.4213 17.2644 10.4213H16.1511ZM20.0417 10.4213C19.7019 10.4213 19.4909 10.2104 19.4909 9.88233V8.76904C19.4909 8.44092 19.7019 8.22998 20.0417 8.22998H21.155C21.4831 8.22998 21.6823 8.44092 21.6823 8.76904V9.88233C21.6823 10.2104 21.4831 10.4213 21.155 10.4213H20.0417ZM23.9323 10.4213C23.5925 10.4213 23.3816 10.2104 23.3816 9.88233V8.76904C23.3816 8.44092 23.5925 8.22998 23.9323 8.22998H25.0339C25.3737 8.22998 25.573 8.44092 25.573 8.76904V9.88233C25.573 10.2104 25.3737 10.4213 25.0339 10.4213H23.9323ZM4.47925 14.312C4.15112 14.312 3.9519 14.101 3.9519 13.7729V12.6596C3.9519 12.3315 4.15112 12.1206 4.47925 12.1206H5.59253C5.93237 12.1206 6.14331 12.3315 6.14331 12.6596V13.7729C6.14331 14.101 5.93237 14.312 5.59253 14.312H4.47925ZM8.49878 14.312C8.0769 14.312 7.83081 14.0659 7.83081 13.644V12.7768C7.83081 12.3666 8.0769 12.1206 8.49878 12.1206H21.0261C21.4362 12.1206 21.6823 12.3666 21.6823 12.7768V13.644C21.6823 14.0659 21.4362 14.312 21.0261 14.312H8.49878ZM23.9323 14.312C23.5925 14.312 23.3816 14.101 23.3816 13.7729V12.6596C23.3816 12.3315 23.5925 12.1206 23.9323 12.1206H25.0339C25.3737 12.1206 25.573 12.3315 25.573 12.6596V13.7729C25.573 14.101 25.3737 14.312 25.0339 14.312H23.9323Z" fill="black" fill-opacity="0.85"/>
</g>
<defs>
<clipPath id="clip0_2207_3710">
<rect width="29.4961" height="18.5273" fill="white" transform="translate(0.0378418 0.0854492)"/>
</clipPath>
</defs>
</svg>
