<svg width="38" height="19" viewBox="0 0 38 19" fill="none" xmlns="http://www.w3.org/2000/svg">
<g clip-path="url(#clip0_2207_3757)">
<path d="M11.9799 18.601H34.1167C36.5542 18.601 37.7963 17.3823 37.7963 14.9682V3.70654C37.7963 1.3042 36.5542 0.0854492 34.1167 0.0854492H11.9799C9.51904 0.0854492 8.30029 1.29248 8.30029 3.70654V14.9682C8.30029 17.3823 9.51904 18.601 11.9799 18.601ZM12.7534 6.53076C12.4135 6.53076 12.2143 6.31983 12.2143 5.9917V4.87842C12.2143 4.55029 12.4135 4.33936 12.7534 4.33936H13.8549C14.1948 4.33936 14.4057 4.55029 14.4057 4.87842V5.9917C14.4057 6.31983 14.1948 6.53076 13.8549 6.53076H12.7534ZM16.6323 6.53076C16.2924 6.53076 16.0932 6.31983 16.0932 5.9917V4.87842C16.0932 4.55029 16.2924 4.33936 16.6323 4.33936H17.7456C18.0854 4.33936 18.2963 4.55029 18.2963 4.87842V5.9917C18.2963 6.31983 18.0854 6.53076 17.7456 6.53076H16.6323ZM20.5229 6.53076C20.1948 6.53076 19.9838 6.31983 19.9838 5.9917V4.87842C19.9838 4.55029 20.1948 4.33936 20.5229 4.33936H21.6245C21.9643 4.33936 22.1752 4.55029 22.1752 4.87842V5.9917C22.1752 6.31983 21.9643 6.53076 21.6245 6.53076H20.5229ZM24.4252 6.53076C24.0854 6.53076 23.8745 6.31983 23.8745 5.9917V4.87842C23.8745 4.55029 24.0854 4.33936 24.4252 4.33936H25.5268C25.8549 4.33936 26.0659 4.55029 26.0659 4.87842V5.9917C26.0659 6.31983 25.8549 6.53076 25.5268 6.53076H24.4252ZM28.3042 6.53076C27.9643 6.53076 27.7534 6.31983 27.7534 5.9917V4.87842C27.7534 4.55029 27.9643 4.33936 28.3042 4.33936H29.4174C29.7456 4.33936 29.9565 4.55029 29.9565 4.87842V5.9917C29.9565 6.31983 29.7456 6.53076 29.4174 6.53076H28.3042ZM32.1948 6.53076C31.8549 6.53076 31.644 6.31983 31.644 5.9917V4.87842C31.644 4.55029 31.8549 4.33936 32.1948 4.33936H33.2963C33.6362 4.33936 33.8354 4.55029 33.8354 4.87842V5.9917C33.8354 6.31983 33.6362 6.53076 33.2963 6.53076H32.1948ZM12.7534 10.4213C12.4135 10.4213 12.2143 10.2104 12.2143 9.88233V8.76904C12.2143 8.44092 12.4135 8.22998 12.7534 8.22998H13.8549C14.1948 8.22998 14.4057 8.44092 14.4057 8.76904V9.88233C14.4057 10.2104 14.1948 10.4213 13.8549 10.4213H12.7534ZM16.6323 10.4213C16.2924 10.4213 16.0932 10.2104 16.0932 9.88233V8.76904C16.0932 8.44092 16.2924 8.22998 16.6323 8.22998H17.7456C18.0854 8.22998 18.2963 8.44092 18.2963 8.76904V9.88233C18.2963 10.2104 18.0854 10.4213 17.7456 10.4213H16.6323ZM20.5229 10.4213C20.1948 10.4213 19.9838 10.2104 19.9838 9.88233V8.76904C19.9838 8.44092 20.1948 8.22998 20.5229 8.22998H21.6245C21.9643 8.22998 22.1752 8.44092 22.1752 8.76904V9.88233C22.1752 10.2104 21.9643 10.4213 21.6245 10.4213H20.5229ZM24.4252 10.4213C24.0854 10.4213 23.8745 10.2104 23.8745 9.88233V8.76904C23.8745 8.44092 24.0854 8.22998 24.4252 8.22998H25.5268C25.8549 8.22998 26.0659 8.44092 26.0659 8.76904V9.88233C26.0659 10.2104 25.8549 10.4213 25.5268 10.4213H24.4252ZM28.3042 10.4213C27.9643 10.4213 27.7534 10.2104 27.7534 9.88233V8.76904C27.7534 8.44092 27.9643 8.22998 28.3042 8.22998H29.4174C29.7456 8.22998 29.9565 8.44092 29.9565 8.76904V9.88233C29.9565 10.2104 29.7456 10.4213 29.4174 10.4213H28.3042ZM32.1948 10.4213C31.8549 10.4213 31.644 10.2104 31.644 9.88233V8.76904C31.644 8.44092 31.8549 8.22998 32.1948 8.22998H33.2963C33.6362 8.22998 33.8354 8.44092 33.8354 8.76904V9.88233C33.8354 10.2104 33.6362 10.4213 33.2963 10.4213H32.1948ZM12.7534 14.312C12.4135 14.312 12.2143 14.101 12.2143 13.7729V12.6596C12.2143 12.3315 12.4135 12.1206 12.7534 12.1206H13.8549C14.1948 12.1206 14.4057 12.3315 14.4057 12.6596V13.7729C14.4057 14.101 14.1948 14.312 13.8549 14.312H12.7534ZM16.7612 14.312C16.3393 14.312 16.0932 14.0659 16.0932 13.644V12.7768C16.0932 12.3666 16.3393 12.1206 16.7612 12.1206H29.2885C29.6987 12.1206 29.9565 12.3666 29.9565 12.7768V13.644C29.9565 14.0659 29.6987 14.312 29.2885 14.312H16.7612ZM32.1948 14.312C31.8549 14.312 31.644 14.101 31.644 13.7729V12.6596C31.644 12.3315 31.8549 12.1206 32.1948 12.1206H33.2963C33.6362 12.1206 33.8354 12.3315 33.8354 12.6596V13.7729C33.8354 14.101 33.6362 14.312 33.2963 14.312H32.1948Z" fill="black" fill-opacity="0.85"/>
<path d="M3.64794 14.816C4.49169 15.9878 5.94482 14.8863 5.25341 13.9136L1.9956 9.33158L5.25341 4.77299C5.94482 3.81205 4.49169 2.69877 3.64794 3.87065L0.308106 8.51127C-0.0551758 9.0269 -0.0551758 9.65971 0.308106 10.1636L3.64794 14.816Z" fill="black" fill-opacity="0.85"/>
</g>
<defs>
<clipPath id="clip0_2207_3757">
<rect width="37.7607" height="18.5273" fill="white" transform="translate(0.0356445 0.0854492)"/>
</clipPath>
</defs>
</svg>
