<svg width="30" height="19" viewBox="0 0 30 19" fill="none" xmlns="http://www.w3.org/2000/svg">
<g clip-path="url(#clip0_2207_3772)">
<path d="M3.72583 18.601H25.8625C28.3 18.601 29.5422 17.3823 29.5422 14.9682V3.70654C29.5422 1.3042 28.3 0.0854492 25.8625 0.0854492H3.72583C1.26489 0.0854492 0.0461426 1.29248 0.0461426 3.70654V14.9682C0.0461426 17.3823 1.26489 18.601 3.72583 18.601ZM3.74926 16.7143C2.57739 16.7143 1.93286 16.0815 1.93286 14.8627V3.81201C1.93286 2.59326 2.57739 1.97217 3.74926 1.97217H25.8273C26.9875 1.97217 27.6555 2.59326 27.6555 3.81201V14.8627C27.6555 16.0815 26.9875 16.7143 25.8273 16.7143H3.74926Z" fill="black" fill-opacity="0.85"/>
<path d="M11.2023 6.58936H12.0695C12.2805 6.58936 12.4094 6.44873 12.4094 6.21436V4.90186C12.4094 4.66748 12.2805 4.52686 12.0695 4.52686H11.2023C10.9914 4.52686 10.8625 4.66748 10.8625 4.90186V6.21436C10.8625 6.44873 10.9914 6.58936 11.2023 6.58936ZM13.7805 6.58936H14.6359C14.8469 6.58936 14.9758 6.44873 14.9758 6.21436V4.90186C14.9758 4.66748 14.8469 4.52686 14.6359 4.52686H13.7805C13.5695 4.52686 13.4289 4.66748 13.4289 4.90186V6.21436C13.4289 6.44873 13.5695 6.58936 13.7805 6.58936ZM16.3586 6.58936H17.2141C17.4133 6.58936 17.5539 6.44873 17.5539 6.21436V4.90186C17.5539 4.66748 17.4133 4.52686 17.2141 4.52686H16.3586C16.1359 4.52686 16.007 4.66748 16.007 4.90186V6.21436C16.007 6.44873 16.1359 6.58936 16.3586 6.58936ZM18.925 6.58936H19.7688C19.9914 6.58936 20.1203 6.44873 20.1203 6.21436V4.90186C20.1203 4.66748 19.9914 4.52686 19.7688 4.52686H18.925C18.7023 4.52686 18.5734 4.66748 18.5734 4.90186V6.21436C18.5734 6.44873 18.7023 6.58936 18.925 6.58936ZM21.4797 6.58936H22.3586C22.5578 6.58936 22.6984 6.44873 22.6984 6.21436V4.90186C22.6984 4.66748 22.5578 4.52686 22.3586 4.52686H21.4797C21.2805 4.52686 21.1516 4.66748 21.1516 4.90186V6.21436C21.1516 6.44873 21.2805 6.58936 21.4797 6.58936ZM24.0695 6.58936H24.9133C25.136 6.58936 25.2649 6.44873 25.2649 6.21436V4.90186C25.2649 4.66748 25.136 4.52686 24.9133 4.52686H24.0695C23.8469 4.52686 23.718 4.66748 23.718 4.90186V6.21436C23.718 6.44873 23.8469 6.58936 24.0695 6.58936ZM11.2023 10.351H12.0695C12.2805 10.351 12.4094 10.2221 12.4094 9.97607V8.67529C12.4094 8.4292 12.2805 8.30029 12.0695 8.30029H11.2023C10.9914 8.30029 10.8625 8.4292 10.8625 8.67529V9.97607C10.8625 10.2221 10.9914 10.351 11.2023 10.351ZM13.7805 10.351H14.6359C14.8469 10.351 14.9758 10.2221 14.9758 9.97607V8.67529C14.9758 8.4292 14.8469 8.30029 14.6359 8.30029H13.7805C13.5695 8.30029 13.4289 8.4292 13.4289 8.67529V9.97607C13.4289 10.2221 13.5695 10.351 13.7805 10.351ZM16.3586 10.351H17.2141C17.4133 10.351 17.5539 10.2221 17.5539 9.97607V8.67529C17.5539 8.4292 17.4133 8.30029 17.2141 8.30029H16.3586C16.1359 8.30029 16.007 8.4292 16.007 8.67529V9.97607C16.007 10.2221 16.1359 10.351 16.3586 10.351ZM18.925 10.351H19.7688C19.9914 10.351 20.1203 10.2221 20.1203 9.97607V8.67529C20.1203 8.4292 19.9914 8.30029 19.7688 8.30029H18.925C18.7023 8.30029 18.5734 8.4292 18.5734 8.67529V9.97607C18.5734 10.2221 18.7023 10.351 18.925 10.351ZM21.4797 10.351H22.3586C22.5578 10.351 22.6984 10.2221 22.6984 9.97607V8.67529C22.6984 8.4292 22.5578 8.30029 22.3586 8.30029H21.4797C21.2805 8.30029 21.1516 8.4292 21.1516 8.67529V9.97607C21.1516 10.2221 21.2805 10.351 21.4797 10.351ZM24.0695 10.351H24.9133C25.136 10.351 25.2649 10.2221 25.2649 9.97607V8.67529C25.2649 8.4292 25.136 8.30029 24.9133 8.30029H24.0695C23.8469 8.30029 23.718 8.4292 23.718 8.67529V9.97607C23.718 10.2221 23.8469 10.351 24.0695 10.351ZM11.2023 14.1245H12.0695C12.2805 14.1245 12.4094 13.9838 12.4094 13.7495V12.437C12.4094 12.2026 12.2805 12.062 12.0695 12.062H11.2023C10.9914 12.062 10.8625 12.2026 10.8625 12.437V13.7495C10.8625 13.9838 10.9914 14.1245 11.2023 14.1245ZM13.7805 14.1245H22.3586C22.5578 14.1245 22.6984 13.9838 22.6984 13.7495V12.437C22.6984 12.2026 22.5578 12.062 22.3586 12.062H13.7805C13.5695 12.062 13.4289 12.2026 13.4289 12.437V13.7495C13.4289 13.9838 13.5695 14.1245 13.7805 14.1245ZM24.0695 14.1245H24.9133C25.136 14.1245 25.2649 13.9838 25.2649 13.7495V12.437C25.2649 12.2026 25.136 12.062 24.9133 12.062H24.0695C23.8469 12.062 23.718 12.2026 23.718 12.437V13.7495C23.718 13.9838 23.8469 14.1245 24.0695 14.1245ZM8.82349 8.68701L5.3899 5.41748C4.99146 5.04248 4.31177 5.19483 4.31177 5.81592V12.8588C4.31177 13.4916 4.99146 13.644 5.3899 13.269L8.82349 9.98779C9.25709 9.57764 9.25709 9.09717 8.82349 8.68701Z" fill="black" fill-opacity="0.85"/>
</g>
<defs>
<clipPath id="clip0_2207_3772">
<rect width="29.4961" height="18.5273" fill="white" transform="translate(0.0461426 0.0854492)"/>
</clipPath>
</defs>
</svg>
