<svg width="30" height="19" viewBox="0 0 30 19" fill="none" xmlns="http://www.w3.org/2000/svg">
<g clip-path="url(#clip0_2207_3762)">
<path d="M3.72168 18.601H25.8584C28.2959 18.601 29.5381 17.3823 29.5381 14.9682V3.70654C29.5381 1.3042 28.2959 0.0854492 25.8584 0.0854492H3.72168C1.26074 0.0854492 0.0419922 1.29248 0.0419922 3.70654V14.9682C0.0419922 17.3823 1.26074 18.601 3.72168 18.601ZM3.74511 16.7143C2.57324 16.7143 1.92871 16.0815 1.92871 14.8627V3.81201C1.92871 2.59326 2.57324 1.97217 3.74511 1.97217H25.8232C26.9834 1.97217 27.6514 2.59326 27.6514 3.81201V14.8627C27.6514 16.0815 26.9834 16.7143 25.8232 16.7143H3.74511Z" fill="black" fill-opacity="0.85"/>
<path d="M4.65919 6.58936H5.52638C5.72559 6.58936 5.8545 6.44873 5.8545 6.21436V4.90186C5.8545 4.66748 5.72559 4.52686 5.52638 4.52686H4.65919C4.44825 4.52686 4.30762 4.66748 4.30762 4.90186V6.21436C4.30762 6.44873 4.44825 6.58936 4.65919 6.58936ZM7.23731 6.58936H8.09278C8.30372 6.58936 8.43262 6.44873 8.43262 6.21436V4.90186C8.43262 4.66748 8.30372 4.52686 8.09278 4.52686H7.23731C7.01466 4.52686 6.88575 4.66748 6.88575 4.90186V6.21436C6.88575 6.44873 7.01466 6.58936 7.23731 6.58936ZM9.80372 6.58936H10.6709C10.8701 6.58936 10.999 6.44873 10.999 6.21436V4.90186C10.999 4.66748 10.8701 4.52686 10.6709 4.52686H9.80372C9.59278 4.52686 9.45216 4.66748 9.45216 4.90186V6.21436C9.45216 6.44873 9.59278 6.58936 9.80372 6.58936ZM12.3701 6.58936H13.2256C13.4365 6.58936 13.5772 6.44873 13.5772 6.21436V4.90186C13.5772 4.66748 13.4365 4.52686 13.2256 4.52686H12.3701C12.1592 4.52686 12.0303 4.66748 12.0303 4.90186V6.21436C12.0303 6.44873 12.1592 6.58936 12.3701 6.58936ZM14.9365 6.58936H15.8154C16.0147 6.58936 16.1436 6.44873 16.1436 6.21436V4.90186C16.1436 4.66748 16.0147 4.52686 15.8154 4.52686H14.9365C14.7256 4.52686 14.5967 4.66748 14.5967 4.90186V6.21436C14.5967 6.44873 14.7256 6.58936 14.9365 6.58936ZM17.5264 6.58936H18.3701C18.5811 6.58936 18.7217 6.44873 18.7217 6.21436V4.90186C18.7217 4.66748 18.5811 4.52686 18.3701 4.52686H17.5264C17.3037 4.52686 17.1748 4.66748 17.1748 4.90186V6.21436C17.1748 6.44873 17.3037 6.58936 17.5264 6.58936ZM4.65919 10.351H5.52638C5.72559 10.351 5.8545 10.2221 5.8545 9.97607V8.67529C5.8545 8.4292 5.72559 8.30029 5.52638 8.30029H4.65919C4.44825 8.30029 4.30762 8.4292 4.30762 8.67529V9.97607C4.30762 10.2221 4.44825 10.351 4.65919 10.351ZM7.23731 10.351H8.09278C8.30372 10.351 8.43262 10.2221 8.43262 9.97607V8.67529C8.43262 8.4292 8.30372 8.30029 8.09278 8.30029H7.23731C7.01466 8.30029 6.88575 8.4292 6.88575 8.67529V9.97607C6.88575 10.2221 7.01466 10.351 7.23731 10.351ZM9.80372 10.351H10.6709C10.8701 10.351 10.999 10.2221 10.999 9.97607V8.67529C10.999 8.4292 10.8701 8.30029 10.6709 8.30029H9.80372C9.59278 8.30029 9.45216 8.4292 9.45216 8.67529V9.97607C9.45216 10.2221 9.59278 10.351 9.80372 10.351ZM12.3701 10.351H13.2256C13.4365 10.351 13.5772 10.2221 13.5772 9.97607V8.67529C13.5772 8.4292 13.4365 8.30029 13.2256 8.30029H12.3701C12.1592 8.30029 12.0303 8.4292 12.0303 8.67529V9.97607C12.0303 10.2221 12.1592 10.351 12.3701 10.351ZM14.9365 10.351H15.8154C16.0147 10.351 16.1436 10.2221 16.1436 9.97607V8.67529C16.1436 8.4292 16.0147 8.30029 15.8154 8.30029H14.9365C14.7256 8.30029 14.5967 8.4292 14.5967 8.67529V9.97607C14.5967 10.2221 14.7256 10.351 14.9365 10.351ZM17.5264 10.351H18.3701C18.5811 10.351 18.7217 10.2221 18.7217 9.97607V8.67529C18.7217 8.4292 18.5811 8.30029 18.3701 8.30029H17.5264C17.3037 8.30029 17.1748 8.4292 17.1748 8.67529V9.97607C17.1748 10.2221 17.3037 10.351 17.5264 10.351ZM4.65919 14.1245H5.52638C5.72559 14.1245 5.8545 13.9838 5.8545 13.7495V12.437C5.8545 12.2026 5.72559 12.062 5.52638 12.062H4.65919C4.44825 12.062 4.30762 12.2026 4.30762 12.437V13.7495C4.30762 13.9838 4.44825 14.1245 4.65919 14.1245ZM7.23731 14.1245H15.8154C16.0147 14.1245 16.1436 13.9838 16.1436 13.7495V12.437C16.1436 12.2026 16.0147 12.062 15.8154 12.062H7.23731C7.01466 12.062 6.88575 12.2026 6.88575 12.437V13.7495C6.88575 13.9838 7.01466 14.1245 7.23731 14.1245ZM17.5264 14.1245H18.3701C18.5811 14.1245 18.7217 13.9838 18.7217 13.7495V12.437C18.7217 12.2026 18.5811 12.062 18.3701 12.062H17.5264C17.3037 12.062 17.1748 12.2026 17.1748 12.437V13.7495C17.1748 13.9838 17.3037 14.1245 17.5264 14.1245ZM20.7022 8.68701C20.2686 9.09717 20.2686 9.57764 20.7022 9.98779L24.1358 13.269C24.5342 13.644 25.2139 13.4916 25.2139 12.8588V5.81592C25.2139 5.19483 24.5342 5.04248 24.1358 5.41748L20.7022 8.68701Z" fill="black" fill-opacity="0.85"/>
</g>
<defs>
<clipPath id="clip0_2207_3762">
<rect width="29.4961" height="18.5273" fill="white" transform="translate(0.0419922 0.0854492)"/>
</clipPath>
</defs>
</svg>
