<svg width="30" height="19" viewBox="0 0 30 19" fill="none" xmlns="http://www.w3.org/2000/svg">
<g clip-path="url(#clip0_2207_3777)">
<path d="M3.72803 18.601H25.8647C28.3022 18.601 29.5444 17.3823 29.5444 14.9682V3.70654C29.5444 1.3042 28.3022 0.0854492 25.8647 0.0854492H3.72803C1.26709 0.0854492 0.0483398 1.29248 0.0483398 3.70654V14.9682C0.0483398 17.3823 1.26709 18.601 3.72803 18.601Z" fill="black" fill-opacity="0.85"/>
<path d="M11.0874 6.50733C10.8764 6.50733 10.7358 6.35498 10.7358 6.12061V4.76123C10.7358 4.51514 10.8764 4.37451 11.0874 4.37451H11.9897C12.2006 4.37451 12.3413 4.51514 12.3413 4.76123V6.12061C12.3413 6.35498 12.2006 6.50733 11.9897 6.50733H11.0874ZM13.7475 6.50733C13.5366 6.50733 13.3842 6.35498 13.3842 6.12061V4.76123C13.3842 4.51514 13.5366 4.37451 13.7475 4.37451H14.6381C14.8491 4.37451 14.9897 4.51514 14.9897 4.76123V6.12061C14.9897 6.35498 14.8491 6.50733 14.6381 6.50733H13.7475ZM16.4077 6.50733C16.1733 6.50733 16.0444 6.35498 16.0444 6.12061V4.76123C16.0444 4.51514 16.1733 4.37451 16.4077 4.37451H17.2983C17.4975 4.37451 17.6499 4.51514 17.6499 4.76123V6.12061C17.6499 6.35498 17.4975 6.50733 17.2983 6.50733H16.4077ZM19.0561 6.50733C18.8217 6.50733 18.6928 6.35498 18.6928 6.12061V4.76123C18.6928 4.51514 18.8217 4.37451 19.0561 4.37451H19.9233C20.1577 4.37451 20.2866 4.51514 20.2866 4.76123V6.12061C20.2866 6.35498 20.1577 6.50733 19.9233 6.50733H19.0561ZM21.6928 6.50733C21.4819 6.50733 21.353 6.35498 21.353 6.12061V4.76123C21.353 4.51514 21.4819 4.37451 21.6928 4.37451H22.5952C22.8061 4.37451 22.9467 4.51514 22.9467 4.76123V6.12061C22.9467 6.35498 22.8061 6.50733 22.5952 6.50733H21.6928ZM24.3647 6.50733C24.1303 6.50733 24.0014 6.35498 24.0014 6.12061V4.76123C24.0014 4.51514 24.1303 4.37451 24.3647 4.37451H25.2319C25.4663 4.37451 25.5952 4.51514 25.5952 4.76123V6.12061C25.5952 6.35498 25.4663 6.50733 25.2319 6.50733H24.3647ZM11.0874 10.3863C10.8764 10.3863 10.7358 10.2574 10.7358 9.99951V8.65186C10.7358 8.39404 10.8764 8.26514 11.0874 8.26514H11.9897C12.2006 8.26514 12.3413 8.39404 12.3413 8.65186V9.99951C12.3413 10.2574 12.2006 10.3863 11.9897 10.3863H11.0874ZM13.7475 10.3863C13.5366 10.3863 13.3842 10.2574 13.3842 9.99951V8.65186C13.3842 8.39404 13.5366 8.26514 13.7475 8.26514H14.6381C14.8491 8.26514 14.9897 8.39404 14.9897 8.65186V9.99951C14.9897 10.2574 14.8491 10.3863 14.6381 10.3863H13.7475ZM16.4077 10.3863C16.1733 10.3863 16.0444 10.2574 16.0444 9.99951V8.65186C16.0444 8.39404 16.1733 8.26514 16.4077 8.26514H17.2983C17.4975 8.26514 17.6499 8.39404 17.6499 8.65186V9.99951C17.6499 10.2574 17.4975 10.3863 17.2983 10.3863H16.4077ZM19.0561 10.3863C18.8217 10.3863 18.6928 10.2574 18.6928 9.99951V8.65186C18.6928 8.39404 18.8217 8.26514 19.0561 8.26514H19.9233C20.1577 8.26514 20.2866 8.39404 20.2866 8.65186V9.99951C20.2866 10.2574 20.1577 10.3863 19.9233 10.3863H19.0561ZM21.6928 10.3863C21.4819 10.3863 21.353 10.2574 21.353 9.99951V8.65186C21.353 8.39404 21.4819 8.26514 21.6928 8.26514H22.5952C22.8061 8.26514 22.9467 8.39404 22.9467 8.65186V9.99951C22.9467 10.2574 22.8061 10.3863 22.5952 10.3863H21.6928ZM24.3647 10.3863C24.1303 10.3863 24.0014 10.2574 24.0014 9.99951V8.65186C24.0014 8.39404 24.1303 8.26514 24.3647 8.26514H25.2319C25.4663 8.26514 25.5952 8.39404 25.5952 8.65186V9.99951C25.5952 10.2574 25.4663 10.3863 25.2319 10.3863H24.3647ZM11.0874 14.2769C10.8764 14.2769 10.7358 14.1363 10.7358 13.8902V12.5308C10.7358 12.2964 10.8764 12.1441 11.0874 12.1441H11.9897C12.2006 12.1441 12.3413 12.2964 12.3413 12.5308V13.8902C12.3413 14.1363 12.2006 14.2769 11.9897 14.2769H11.0874ZM13.7475 14.2769C13.5366 14.2769 13.3842 14.1363 13.3842 13.8902V12.5308C13.3842 12.2964 13.5366 12.1441 13.7475 12.1441H22.5952C22.8061 12.1441 22.9467 12.2964 22.9467 12.5308V13.8902C22.9467 14.1363 22.8061 14.2769 22.5952 14.2769H13.7475ZM24.3647 14.2769C24.1303 14.2769 24.0014 14.1363 24.0014 13.8902V12.5308C24.0014 12.2964 24.1303 12.1441 24.3647 12.1441H25.2319C25.4663 12.1441 25.5952 12.2964 25.5952 12.5308V13.8902C25.5952 14.1363 25.4663 14.2769 25.2319 14.2769H24.3647ZM8.63818 8.66357C9.0835 9.08545 9.0835 9.58936 8.63818 10.0112L5.09912 13.3863C4.68896 13.773 3.98584 13.6207 3.98584 12.9644V5.71045C3.98584 5.06592 4.68896 4.91357 5.09912 5.30029L8.63818 8.66357Z" fill="white"/>
</g>
<defs>
<clipPath id="clip0_2207_3777">
<rect width="29.4961" height="18.5273" fill="white" transform="translate(0.0483398 0.0854492)"/>
</clipPath>
</defs>
</svg>
