<svg width="24" height="25" viewBox="0 0 24 25" fill="none" xmlns="http://www.w3.org/2000/svg">
<g clip-path="url(#clip0_2207_25686)">
<path d="M12.0056 23.9916C18.5447 23.9916 23.9587 18.5659 23.9587 12.0385C23.9587 5.49951 18.533 0.0854492 11.9939 0.0854492C5.46655 0.0854492 0.0524902 5.49951 0.0524902 12.0385C0.0524902 18.5659 5.47827 23.9916 12.0056 23.9916ZM12.0056 21.9995C6.47437 21.9995 2.0564 17.5698 2.0564 12.0385C2.0564 6.50733 6.46265 2.07764 11.9939 2.07764C17.5252 2.07764 21.9666 6.50733 21.9666 12.0385C21.9666 17.5698 17.5369 21.9995 12.0056 21.9995Z" fill="black" fill-opacity="0.85"/>
<path d="M7.47046 12.1558C7.47046 12.4722 7.71655 12.7417 8.03296 12.7417H8.78296V17.0894C8.78296 17.5582 9.09937 17.8511 9.54468 17.8511C9.98999 17.8511 10.2947 17.5582 10.2947 17.0894V12.7417H10.8455L14.6306 17.4996C14.8298 17.7574 15.0291 17.8511 15.2517 17.8511C15.6502 17.8511 15.9666 17.5464 15.9666 17.1597C15.9666 17.0074 15.908 16.8199 15.7791 16.6441L12.6267 12.7417H15.6502C15.99 12.7417 16.2244 12.4722 16.2244 12.1558C16.2244 11.816 15.99 11.5816 15.6502 11.5816H12.615L15.7673 7.71436C15.8963 7.55029 15.9666 7.36279 15.9666 7.21045C15.9666 6.82373 15.6619 6.51904 15.2517 6.51904C15.0291 6.51904 14.8298 6.61279 14.6306 6.88233L10.8337 11.5816H10.2947V7.3042C10.2947 6.82373 10.0017 6.54248 9.54468 6.54248C9.08765 6.54248 8.78296 6.82373 8.78296 7.3042V11.5816H8.03296C7.71655 11.5816 7.47046 11.816 7.47046 12.1558Z" fill="black" fill-opacity="0.85"/>
</g>
<defs>
<clipPath id="clip0_2207_25686">
<rect width="23.9062" height="23.918" fill="white" transform="translate(0.0524902 0.0854492)"/>
</clipPath>
</defs>
</svg>
