<svg width="17" height="22" viewBox="0 0 17 22" fill="none" xmlns="http://www.w3.org/2000/svg">
<g clip-path="url(#clip0_2207_25682)">
<path d="M3.53088 21.8002C4.18713 21.8002 4.64417 21.3433 4.64417 20.6518V1.43311C4.64417 0.741699 4.18713 0.319824 3.53088 0.319824C2.85119 0.319824 2.40588 0.741699 2.40588 1.43311V20.6518C2.40588 21.3433 2.85119 21.8002 3.53088 21.8002ZM14.7223 21.8002C15.2848 21.8002 15.7535 21.3666 15.7535 20.8159C15.7535 20.5815 15.6598 20.3002 15.4488 20.0424L8.14808 10.9838L15.4488 2.0542C15.6481 1.80811 15.7418 1.52686 15.7418 1.3042C15.7418 0.753418 15.2965 0.319824 14.7223 0.319824C14.3824 0.319824 14.0895 0.472168 13.7731 0.870605L5.62854 10.9838L13.7848 21.2612C14.1012 21.6479 14.3824 21.8002 14.7223 21.8002ZM0.800415 11.7456H15.5074C15.941 11.7456 16.2692 11.4057 16.2692 10.9838C16.2692 10.5385 15.941 10.2221 15.5074 10.2221H0.800415C0.366821 10.2221 0.050415 10.5385 0.050415 10.9838C0.050415 11.4057 0.37854 11.7456 0.800415 11.7456Z" fill="black" fill-opacity="0.85"/>
</g>
<defs>
<clipPath id="clip0_2207_25682">
<rect width="16.2188" height="21.7148" fill="white" transform="translate(0.050415 0.0854492)"/>
</clipPath>
</defs>
</svg>
