<svg width="33" height="18" viewBox="0 0 33 18" fill="none" xmlns="http://www.w3.org/2000/svg">
<g clip-path="url(#clip0_2207_17643)">
<path d="M1.13916 17.9331C1.79542 17.9331 2.21729 17.5463 2.21729 16.8081V12.1088L3.62354 9.83545L7.50245 17.0777C7.7837 17.6166 8.04151 17.8745 8.59229 17.8745C9.1665 17.8745 9.58838 17.4527 9.58838 16.8902C9.58838 16.5972 9.41259 16.269 9.2837 16.0229L4.99463 8.10107L8.75634 1.97217C8.89697 1.73779 9.02588 1.50342 9.02588 1.18701C9.02588 0.565918 8.56885 0.16748 8.04151 0.16748C7.52588 0.16748 7.26807 0.472168 7.01026 0.894043L2.24073 8.92139H2.21729V1.23389C2.21729 0.530761 1.80713 0.120605 1.10401 0.120605C0.564941 0.120605 0.0610352 0.437011 0.0610352 1.23389V16.8081C0.0610352 17.5463 0.529785 17.9331 1.13916 17.9331ZM12.7993 17.8745C13.3969 17.8745 13.8774 17.5346 13.8774 16.7495V11.4292H16.0102C18.9048 11.4292 20.4751 8.89795 20.4751 5.88623C20.4751 3.03857 19.0219 0.35498 16.0922 0.35498H12.7876C12.1079 0.35498 11.7329 0.812011 11.7329 1.47998V16.7495C11.7329 17.4527 12.1079 17.8745 12.7993 17.8745ZM13.8774 9.56592V2.22998H15.5883C17.5454 2.22998 18.354 3.80029 18.354 5.88623C18.354 7.91357 17.5688 9.56592 15.5883 9.56592H13.8774ZM24.061 17.9331C24.811 17.9331 25.1274 17.394 25.1274 16.7377V9.78857H30.2602V16.7377C30.2602 17.4409 30.6235 17.9331 31.3266 17.9331C32.0298 17.9331 32.4165 17.4409 32.4165 16.7377V1.31592C32.4165 0.612793 32.0298 0.120605 31.3266 0.120605C30.6235 0.120605 30.2602 0.612793 30.2602 1.31592V7.87842H25.1274V1.31592C25.1274 0.659668 24.811 0.120605 24.061 0.120605C23.3579 0.120605 22.9829 0.612793 22.9829 1.31592V16.7377C22.9829 17.4409 23.3579 17.9331 24.061 17.9331Z" fill="black" fill-opacity="0.85"/>
</g>
<defs>
<clipPath id="clip0_2207_17643">
<rect width="32.3555" height="17.8477" fill="white" transform="translate(0.0610352 0.0854492)"/>
</clipPath>
</defs>
</svg>
