<svg width="24" height="25" viewBox="0 0 24 25" fill="none" xmlns="http://www.w3.org/2000/svg">
<g clip-path="url(#clip0_2207_25051)">
<path d="M12.0266 23.9916C18.5657 23.9916 23.9797 18.5659 23.9797 12.0385C23.9797 5.49951 18.554 0.0854492 12.0149 0.0854492C5.48755 0.0854492 0.0734863 5.49951 0.0734863 12.0385C0.0734863 18.5659 5.49927 23.9916 12.0266 23.9916Z" fill="black" fill-opacity="0.85"/>
<path d="M9.7766 17.4293C9.15551 17.4293 8.81567 16.9839 8.81567 16.3394V7.36279C8.81567 6.71826 9.15551 6.26123 9.7766 6.26123C10.4212 6.26123 10.761 6.69483 10.761 7.36279V15.8355H15.343C15.8118 15.8355 16.1516 16.1402 16.1516 16.6324C16.1516 17.1246 15.8118 17.4293 15.343 17.4293H9.7766Z" fill="white"/>
</g>
<defs>
<clipPath id="clip0_2207_25051">
<rect width="23.9062" height="23.918" fill="white" transform="translate(0.0734863 0.0854492)"/>
</clipPath>
</defs>
</svg>
