<svg width="27" height="31" viewBox="0 0 27 31" fill="none" xmlns="http://www.w3.org/2000/svg">
<g clip-path="url(#clip0_2207_20373)">
<path d="M13.5329 26.6987C16.3689 26.6987 18.0564 25.3627 18.0564 23.1127V19.1518C18.0564 16.9018 16.3689 15.5659 13.5329 15.5659C10.6853 15.5659 8.9978 16.9018 8.9978 19.1518V23.1127C8.9978 25.3627 10.6853 26.6987 13.5329 26.6987Z" fill="black" fill-opacity="0.85"/>
<path d="M13.5329 23.0894C21.5368 23.0894 26.9743 19.3511 26.9743 13.8199C26.9743 8.28857 21.5251 4.55029 13.5095 4.55029C5.51733 4.55029 0.079834 8.30029 0.079834 13.8199C0.079834 19.3511 5.51733 23.0894 13.5329 23.0894Z" fill="white"/>
<path d="M13.5329 21.7299C20.8454 21.7299 25.615 18.4956 25.615 13.8198C25.615 9.15576 20.8337 5.92139 13.5095 5.92139C6.20875 5.92139 1.45093 9.15576 1.45093 13.8198C1.45093 18.4956 6.20875 21.7299 13.5329 21.7299ZM13.5329 19.7143C7.56812 19.7143 3.57203 17.3237 3.57203 13.8198C3.57203 10.3159 7.56812 7.93701 13.5095 7.93701C19.4743 7.93701 23.4939 10.3159 23.4939 13.8198C23.4939 17.3237 19.486 19.7143 13.5329 19.7143Z" fill="black" fill-opacity="0.85"/>
<path d="M11.8923 17.4877H15.5017C15.9587 17.4877 16.2751 17.1713 16.2751 16.7377C16.2751 16.2807 15.9587 15.976 15.5017 15.976H12.7595V10.6909C12.7595 10.1049 12.4196 9.75342 11.8923 9.75342C11.3767 9.75342 11.0251 10.1166 11.0251 10.6909V16.5502C11.0251 17.1127 11.365 17.4877 11.8923 17.4877Z" fill="black" fill-opacity="0.85"/>
<path d="M10.5798 1.51514L12.9118 4.65576C13.2282 5.08936 13.8259 5.08936 14.1423 4.65576L16.4978 1.51514C16.9665 0.894043 16.7204 0.0854492 15.8767 0.0854492H11.1775C10.3806 0.0854492 10.0876 0.870605 10.5798 1.51514Z" fill="black" fill-opacity="0.85"/>
</g>
<defs>
<clipPath id="clip0_2207_20373">
<rect width="26.8945" height="30.293" fill="white" transform="translate(0.079834 0.0854492)"/>
</clipPath>
</defs>
</svg>
