<svg width="28" height="24" viewBox="0 0 28 24" fill="none" xmlns="http://www.w3.org/2000/svg">
<g clip-path="url(#clip0_2207_20352)">
<path d="M13.6714 23.019C16.5073 23.019 18.1948 21.6831 18.1948 19.4331V15.4721C18.1948 13.2221 16.5073 11.8862 13.6714 11.8862C10.8237 11.8862 9.13623 13.2221 9.13623 15.4721V19.4331C9.13623 21.6831 10.8237 23.019 13.6714 23.019Z" fill="black" fill-opacity="0.85"/>
<path d="M13.6714 19.2924C22.0268 19.2924 27.2534 15.2846 27.2534 10.1401C27.2534 4.99561 22.0268 0.987793 13.6479 0.987793C5.3042 0.987793 0.0776367 4.99561 0.0776367 10.1401C0.0776367 15.2846 5.3042 19.2924 13.6714 19.2924Z" fill="white"/>
<path d="M13.6714 17.6988C21.1596 17.6988 25.6596 14.3238 25.6596 10.1402C25.6596 5.96826 21.1596 2.59326 13.6479 2.59326C6.17139 2.59326 1.68311 5.96826 1.68311 10.1402C1.68311 14.3238 6.17139 17.6988 13.6714 17.6988Z" fill="black" fill-opacity="0.85"/>
<path d="M12.0659 13.937C11.5268 13.937 11.1753 13.5385 11.1753 12.9526V6.91747C11.1753 6.33153 11.5385 5.94482 12.0659 5.94482C12.6167 5.94482 12.9682 6.31982 12.9682 6.91747V12.3666H15.7924C16.2612 12.3666 16.5893 12.6831 16.5893 13.1518C16.5893 13.6088 16.2612 13.937 15.7924 13.937H12.0659Z" fill="white"/>
</g>
<defs>
<clipPath id="clip0_2207_20352">
<rect width="27.1758" height="22.9336" fill="white" transform="translate(0.0776367 0.0854492)"/>
</clipPath>
</defs>
</svg>
