<svg width="22" height="22" viewBox="0 0 22 22" fill="none" xmlns="http://www.w3.org/2000/svg">
<g clip-path="url(#clip0_2207_25061)">
<path d="M3.68189 21.6846H17.8967C20.3577 21.6846 21.5764 20.4658 21.5764 18.0517V3.74316C21.5764 1.3291 20.3577 0.110352 17.8967 0.110352H3.68189C1.23267 0.110352 0.00219727 1.31738 0.00219727 3.74316V18.0517C0.00219727 20.4775 1.23267 21.6846 3.68189 21.6846Z" fill="black" fill-opacity="0.85"/>
<path d="M8.54517 16.2705C7.92408 16.2705 7.58423 15.8252 7.58423 15.1807V6.20411C7.58423 5.55958 7.92408 5.10254 8.54517 5.10254C9.1897 5.10254 9.52954 5.53614 9.52954 6.20411V14.6767H14.1116C14.5803 14.6767 14.9202 14.9814 14.9202 15.4736C14.9202 15.9658 14.5803 16.2705 14.1116 16.2705H8.54517Z" fill="white"/>
</g>
<defs>
<clipPath id="clip0_2207_25061">
<rect width="21.5742" height="21.5977" fill="white" transform="translate(0.00219727 0.0869141)"/>
</clipPath>
</defs>
</svg>
