<svg width="22" height="22" viewBox="0 0 22 22" fill="none" xmlns="http://www.w3.org/2000/svg">
<g clip-path="url(#clip0_2207_25056)">
<path d="M3.67969 21.6846H17.8945C20.3555 21.6846 21.5742 20.4658 21.5742 18.0517V3.74316C21.5742 1.3291 20.3555 0.110352 17.8945 0.110352H3.67969C1.23047 0.110352 0 1.31738 0 3.74316V18.0517C0 20.4775 1.23047 21.6846 3.67969 21.6846ZM3.70312 19.7978C2.53125 19.7978 1.88672 19.1767 1.88672 17.958V3.83691C1.88672 2.61816 2.53125 1.99707 3.70312 1.99707H17.8711C19.0312 1.99707 19.6875 2.61816 19.6875 3.83691V17.958C19.6875 19.1767 19.0312 19.7978 17.8711 19.7978H3.70312Z" fill="black" fill-opacity="0.85"/>
<path d="M8.61328 16.1064H14.0156C14.4609 16.1064 14.7891 15.8135 14.7891 15.3447C14.7891 14.8642 14.4609 14.5713 14.0156 14.5713H9.5625V6.34473C9.5625 5.7002 9.23438 5.29004 8.61328 5.29004C8.01562 5.29004 7.6875 5.72364 7.6875 6.34473V15.0635C7.6875 15.6846 8.01562 16.1064 8.61328 16.1064Z" fill="black" fill-opacity="0.85"/>
</g>
<defs>
<clipPath id="clip0_2207_25056">
<rect width="21.5742" height="21.5977" fill="white" transform="translate(0 0.0869141)"/>
</clipPath>
</defs>
</svg>
