<svg width="24" height="25" viewBox="0 0 24 25" fill="none" xmlns="http://www.w3.org/2000/svg">
<g clip-path="url(#clip0_2207_20675)">
<path d="M11.9614 23.9931C18.5005 23.9931 23.9145 18.5674 23.9145 12.04C23.9145 5.50097 18.4888 0.0869141 11.9497 0.0869141C5.42236 0.0869141 0.00830078 5.50097 0.00830078 12.04C0.00830078 18.5674 5.43408 23.9931 11.9614 23.9931ZM11.9614 22.001C6.43018 22.001 2.01221 17.5713 2.01221 12.04C2.01221 6.50879 6.41846 2.0791 11.9497 2.0791C17.481 2.0791 21.9224 6.50879 21.9224 12.04C21.9224 17.5713 17.4927 22.001 11.9614 22.001Z" fill="black" fill-opacity="0.85"/>
<path d="M8.27002 16.7861H11.6333C12.02 16.7861 12.3481 16.4697 12.3481 16.0713C12.3481 15.6846 12.02 15.3681 11.6333 15.3681H9.12549V8.00879C9.12549 7.55175 8.73877 7.16503 8.28174 7.16503C7.82471 7.16503 7.42627 7.55175 7.42627 8.00879V15.9072C7.42627 16.458 7.73096 16.7861 8.27002 16.7861ZM15.4771 16.9033C15.9458 16.9033 16.3325 16.5166 16.3325 16.0478V8.10253C16.3325 7.50488 15.9575 7.15332 15.3481 7.15332C14.856 7.15332 14.4575 7.42285 14.1763 7.63379L12.8872 8.62988C12.688 8.79394 12.5239 9.0166 12.5239 9.32129C12.5239 9.68457 12.77 9.94238 13.1216 9.94238C13.3091 9.94238 13.4263 9.88379 13.5435 9.80175L14.6216 8.93457V16.0478C14.6216 16.5166 15.0083 16.9033 15.4771 16.9033Z" fill="black" fill-opacity="0.85"/>
</g>
<defs>
<clipPath id="clip0_2207_20675">
<rect width="23.9062" height="23.918" fill="white" transform="translate(0.00830078 0.0869141)"/>
</clipPath>
</defs>
</svg>
