<svg width="21" height="26" viewBox="0 0 21 26" fill="none" xmlns="http://www.w3.org/2000/svg">
<g clip-path="url(#clip0_2207_21032)">
<path d="M6.98731 25.2588H17.288C19.5146 25.2588 20.8505 23.9463 20.8505 21.7431L20.8623 3.63769C20.8623 1.5166 19.4326 0.0869141 17.3232 0.0869141H13.7255C11.8857 0.0869141 10.3505 0.567383 8.90918 1.8916L1.50293 8.70019C0.506836 9.61425 0.0146484 10.9033 0.0146484 12.5088V18.2861C0.0146484 22.5283 2.74512 25.2588 6.98731 25.2588Z" fill="black" fill-opacity="0.85"/>
<path d="M5.86231 19.9619C5.31153 19.9619 4.99512 19.6221 4.99512 19.0478V10.915C4.99512 10.4346 5.39356 10.0361 5.87403 10.0361C6.35449 10.0361 6.76465 10.4346 6.76465 10.915V18.4971H9.34277C9.74121 18.4971 10.081 18.8252 10.081 19.2236C10.081 19.6338 9.74121 19.9619 9.34277 19.9619H5.86231ZM11.8623 19.9502C11.3115 19.9502 11.0419 19.6455 11.0419 19.2471C11.0419 18.8721 11.2646 18.5674 11.499 18.2744L13.5966 15.6025C14.2294 14.7822 14.8974 13.7978 14.8974 12.8369C14.8974 11.9697 14.499 11.3252 13.7724 11.3252C13.081 11.3252 12.788 11.8408 12.5537 12.6494C12.4248 13.0478 12.1904 13.2353 11.7919 13.2353C11.3232 13.2353 11.0537 12.9189 11.0537 12.4736C11.0537 11.208 12.2373 9.93066 13.7841 9.93066C15.4482 9.93066 16.5615 11.1142 16.5615 12.7431C16.5615 13.8096 16.163 14.7002 14.956 16.2119L13.1982 18.4267V18.5322H16.0576C16.4794 18.5322 16.749 18.79 16.749 19.2471C16.749 19.6689 16.4912 19.9502 16.0576 19.9502H11.8623Z" fill="white"/>
</g>
<defs>
<clipPath id="clip0_2207_21032">
<rect width="20.8477" height="25.1836" fill="white" transform="translate(0.0146484 0.0869141)"/>
</clipPath>
</defs>
</svg>
