<svg width="24" height="25" viewBox="0 0 24 25" fill="none" xmlns="http://www.w3.org/2000/svg">
<g clip-path="url(#clip0_2207_20700)">
<path d="M11.9763 23.9931C18.5154 23.9931 23.9294 18.5674 23.9294 12.04C23.9294 5.50097 18.5037 0.0869141 11.9646 0.0869141C5.43725 0.0869141 0.0231934 5.50097 0.0231934 12.04C0.0231934 18.5674 5.44897 23.9931 11.9763 23.9931Z" fill="black" fill-opacity="0.85"/>
<path d="M7.25366 16.9385C6.69116 16.9385 6.38647 16.5986 6.38647 16.0244V7.89161C6.38647 7.41114 6.78491 7.0127 7.26538 7.0127C7.74585 7.0127 8.156 7.41114 8.156 7.89161V15.4736H10.7341C11.1326 15.4736 11.4607 15.8017 11.4607 16.2002C11.4607 16.6103 11.1326 16.9385 10.7341 16.9385H7.25366ZM13.2537 16.9267C12.6912 16.9267 12.4216 16.6338 12.4216 16.2236C12.4216 15.8486 12.656 15.5439 12.8904 15.251L14.9763 12.5791C15.6091 11.7588 16.2888 10.7744 16.2888 9.81348C16.2888 8.9463 15.8787 8.31348 15.1638 8.31348C14.4724 8.31348 14.1794 8.81739 13.9451 9.62598C13.8162 10.0244 13.5818 10.2119 13.1834 10.2119C12.7029 10.2119 12.4451 9.89551 12.4451 9.4502C12.4451 8.18458 13.6287 6.90723 15.1755 6.90723C16.8396 6.90723 17.9529 8.09083 17.9529 9.71973C17.9529 10.7861 17.5544 11.6767 16.3357 13.1885L14.5896 15.4033V15.5088H17.449C17.8591 15.5088 18.1404 15.7666 18.1404 16.2236C18.1404 16.6455 17.8709 16.9267 17.449 16.9267H13.2537Z" fill="white"/>
</g>
<defs>
<clipPath id="clip0_2207_20700">
<rect width="23.9062" height="23.918" fill="white" transform="translate(0.0231934 0.0869141)"/>
</clipPath>
</defs>
</svg>
