<svg width="28" height="22" viewBox="0 0 28 22" fill="none" xmlns="http://www.w3.org/2000/svg">
<g clip-path="url(#clip0_2207_20763)">
<path d="M9.2638 21.1221H18.4278C25.2247 21.1221 27.6622 18.6025 27.6622 12.333V8.88769C27.6622 2.61816 25.2247 0.0869141 18.4278 0.0869141H9.2638C2.46692 0.0869141 0.0294189 2.61816 0.0294189 8.88769V12.333C0.0294189 18.6025 2.46692 21.1221 9.2638 21.1221ZM9.2638 19.2353C3.73254 19.2353 1.91614 17.4424 1.91614 12.333V8.88769C1.91614 3.77832 3.73254 1.97363 9.2638 1.97363H18.4278C23.9591 1.97363 25.7755 3.77832 25.7755 8.88769V12.333C25.7755 17.4424 23.9591 19.2353 18.4278 19.2353H9.2638Z" fill="black" fill-opacity="0.85"/>
<path d="M8.8888 15.3564H12.2638C12.6505 15.3564 12.9786 15.04 12.9786 14.6416C12.9786 14.2549 12.6505 13.9385 12.2638 13.9385H9.75598V6.5791C9.75598 6.12207 9.36926 5.73535 8.90051 5.73535C8.44348 5.73535 8.05676 6.12207 8.05676 6.5791V14.4775C8.05676 15.0283 8.36145 15.3564 8.8888 15.3564ZM18.1935 15.4971C18.6388 15.4971 18.9903 15.2275 18.9903 14.665V13.4931H19.4122C19.8692 13.4931 20.0802 13.2002 20.0802 12.8017C20.0802 12.4267 19.881 12.1338 19.4122 12.1338H18.9903V6.98925C18.9903 6.18066 18.463 5.72363 17.7013 5.72363C16.8692 5.72363 16.4825 6.1455 16.1544 6.87207L14.0685 11.4189C13.8692 11.876 13.7989 12.1807 13.7989 12.5439C13.7989 13.1064 14.1856 13.4931 14.7599 13.4931H17.3849V14.665C17.3849 15.2861 17.8185 15.4971 18.1935 15.4971ZM17.42 12.1689H15.2403V12.0869L17.3732 7.20019H17.42V12.1689Z" fill="black" fill-opacity="0.85"/>
</g>
<defs>
<clipPath id="clip0_2207_20763">
<rect width="27.6328" height="21.0586" fill="white" transform="translate(0.0294189 0.0869141)"/>
</clipPath>
</defs>
</svg>
