<svg width="23" height="28" viewBox="0 0 23 28" fill="none" xmlns="http://www.w3.org/2000/svg">
<g clip-path="url(#clip0_2207_11076)">
<path d="M11.3549 6.77832C14.2143 6.77832 16.6049 5.12597 17.0619 2.72363C17.2377 1.75097 16.7572 1.02441 15.7963 0.754883C13.0307 0.0283203 9.67916 0.0283203 6.92525 0.754883C5.96431 1.02441 5.48384 1.75097 5.65962 2.72363C6.11666 5.12597 8.49556 6.77832 11.3549 6.77832ZM10.4174 11.5361H12.3041V5.84082H10.4174V11.5361ZM11.3432 27.8252C18.1518 27.8252 22.6752 25.7744 22.6401 22.7275V22.5752C22.558 19.5283 19.7807 15.8252 16.3236 14.126C15.6791 11.9111 13.6401 10.376 11.3432 10.376C9.04634 10.376 7.00728 11.9111 6.36275 14.126C2.92916 15.8135 0.175253 19.4931 0.0463461 22.5166V22.7275C0.0111898 25.7744 4.53462 27.8252 11.3432 27.8252ZM1.68697 22.7275C1.69869 20.6181 5.55416 19.2588 11.3432 19.2588C17.144 19.2588 20.9877 20.6181 20.9994 22.7275C20.9877 24.8252 17.144 26.1846 11.3432 26.1846C5.55416 26.1846 1.69869 24.8252 1.68697 22.7275ZM11.3432 23.6064C13.4643 23.6064 15.5151 22.2939 15.5151 20.7002C14.308 20.5127 12.8901 20.3955 11.3432 20.3955C9.79634 20.3955 8.37837 20.5127 7.17134 20.7002C7.17134 22.2939 9.22212 23.6064 11.3432 23.6064Z" fill="black" fill-opacity="0.85"/>
</g>
<defs>
<clipPath id="clip0_2207_11076">
<rect width="22.5942" height="27.7383" fill="white" transform="translate(0.0461426 0.0869141)"/>
</clipPath>
</defs>
</svg>
