<svg width="18" height="29" viewBox="0 0 18 29" fill="none" xmlns="http://www.w3.org/2000/svg">
<g clip-path="url(#clip0_2207_11060)">
<path d="M9.00633 16.001C11.5727 16.001 14.104 15.8486 16.1782 15.5439C17.7954 15.2978 18.2759 14.1142 17.7368 12.4385L14.6431 2.6416C14.0923 0.883789 12.686 0.0869141 10.7759 0.0869141H7.22508C5.31492 0.0869141 3.90867 0.883789 3.35789 2.6416L0.264139 12.4385C-0.274924 14.1142 0.205545 15.2978 1.82273 15.5439C3.89695 15.8486 6.4282 16.001 9.00633 16.001ZM9.00633 14.2783C6.85008 14.2783 4.76414 14.1611 2.47898 13.9033C1.84617 13.833 1.77586 13.458 1.97508 12.8017L4.9282 3.32129C5.24461 2.29003 6.08836 1.79785 7.22508 1.79785H10.7759C11.9126 1.79785 12.7563 2.29003 13.0845 3.32129L16.0259 12.8017C16.2251 13.458 16.1548 13.833 15.522 13.9033C13.2368 14.1611 11.1509 14.2783 9.00633 14.2783ZM8.05711 15.3564V28.0713H9.94383V15.3564H8.05711ZM3.73289 28.8799H14.2681C14.7016 28.8799 14.9946 28.5752 14.9946 28.1181C14.9946 27.2275 14.2681 26.6064 13.1548 26.6064H4.84617C3.73289 26.6064 3.01805 27.2275 3.01805 28.1181C3.01805 28.5752 3.2993 28.8799 3.73289 28.8799Z" fill="black" fill-opacity="0.85"/>
</g>
<defs>
<clipPath id="clip0_2207_11060">
<rect width="17.896" height="28.8633" fill="white" transform="translate(0.0524902 0.0869141)"/>
</clipPath>
</defs>
</svg>
