<svg width="20" height="27" viewBox="0 0 20 27" fill="none" xmlns="http://www.w3.org/2000/svg">
<g clip-path="url(#clip0_2207_26066)">
<path d="M1.09521 23.5478H17.0679C17.6421 23.5478 18.0288 23.1846 18.0288 22.6103C18.0288 22.0596 17.6421 21.6728 17.0679 21.6728H11.5835C6.4038 21.6728 2.32568 17.7236 2.31396 12.5557C2.31396 7.42285 5.87646 4.76269 9.94287 4.76269C13.939 4.76269 17.3843 7.55175 17.5015 11.7353C17.5249 12.415 17.8882 12.9072 18.5796 12.9072C19.2476 12.9072 19.6109 12.4033 19.6109 11.7471C19.5757 6.49707 15.146 2.73535 9.94287 2.73535C4.63427 2.73535 0.0756836 6.42675 0.0756836 12.2158C0.0756836 16.6338 2.4663 20.1728 5.70068 21.626V21.6728H1.09521C0.520996 21.6728 0.134277 22.0596 0.134277 22.6103C0.134277 23.1846 0.520996 23.5478 1.09521 23.5478ZM12.3687 12.6142C12.814 12.6142 13.1421 12.3096 13.1421 11.8408V0.860352C13.1421 0.40332 12.814 0.0869141 12.3687 0.0869141C11.9351 0.0869141 11.6069 0.40332 11.6069 0.860352V11.8408C11.6069 12.2978 11.9351 12.6142 12.3687 12.6142ZM7.57568 12.6142C8.02099 12.6142 8.34912 12.3096 8.34912 11.8408V0.860352C8.34912 0.40332 8.02099 0.0869141 7.57568 0.0869141C7.14209 0.0869141 6.81396 0.40332 6.81396 0.860352V11.8408C6.81396 12.3096 7.14209 12.6142 7.57568 12.6142Z" fill="black" fill-opacity="0.85"/>
</g>
<defs>
<clipPath id="clip0_2207_26066">
<rect width="19.5352" height="26.2617" fill="white" transform="translate(0.0756836 0.0869141)"/>
</clipPath>
</defs>
</svg>
