<svg width="22" height="22" viewBox="0 0 22 22" fill="none" xmlns="http://www.w3.org/2000/svg">
<g clip-path="url(#clip0_2207_26080)">
<path d="M3.76172 21.6846H17.9765C20.4375 21.6846 21.6562 20.4658 21.6562 18.0517V3.74316C21.6562 1.3291 20.4375 0.110352 17.9765 0.110352H3.76172C1.3125 0.110352 0.0820312 1.31738 0.0820312 3.74316V18.0517C0.0820312 20.4775 1.3125 21.6846 3.76172 21.6846ZM3.78515 19.7978C2.61328 19.7978 1.96875 19.1767 1.96875 17.958V3.83691C1.96875 2.61816 2.61328 1.99707 3.78515 1.99707H17.9531C19.1132 1.99707 19.7695 2.61816 19.7695 3.83691V17.958C19.7695 19.1767 19.1132 19.7978 17.9531 19.7978H3.78515Z" fill="black" fill-opacity="0.85"/>
<path d="M6.9375 16.458H14.1914C14.6015 16.458 14.8711 16.1767 14.8711 15.79C14.8711 15.415 14.5898 15.1455 14.1914 15.1455H12.3984C9.80859 15.1455 7.80469 13.2002 7.80469 10.6455C7.80469 9.04003 8.34375 7.91503 9.29297 7.3291V10.3057C9.29297 10.6338 9.52734 10.8681 9.85547 10.8681C10.1953 10.8681 10.4297 10.6338 10.4297 10.3057V6.93066C10.6289 6.90722 10.8398 6.88379 11.0273 6.88379C11.2031 6.88379 11.3672 6.90722 11.5078 6.93066V10.3057C11.5078 10.6338 11.7539 10.8681 12.082 10.8681C12.4101 10.8681 12.6445 10.6338 12.6445 10.3057V7.36425C13.4882 7.93847 14.0273 8.93457 14.0508 10.2353C14.0625 10.6924 14.3554 11.0088 14.789 11.0088C15.1992 11.0088 15.4922 10.6924 15.4922 10.2471C15.4804 8.18457 14.3554 6.45019 12.6445 5.79394V4.71582C12.6445 4.37597 12.4101 4.1416 12.082 4.1416C11.7539 4.1416 11.5078 4.37597 11.5078 4.71582V5.51269C11.3554 5.48925 11.1914 5.48925 11.039 5.48925C10.8398 5.48925 10.6289 5.50097 10.4297 5.52441V4.71582C10.4297 4.37597 10.1836 4.1416 9.85547 4.1416C9.52734 4.1416 9.29297 4.37597 9.29297 4.71582V5.75879C7.44141 6.42675 6.30469 8.14941 6.30469 10.4814C6.30469 12.4853 7.24219 14.2197 8.68359 15.1455H6.94922C6.5625 15.1455 6.28125 15.415 6.28125 15.79C6.28125 16.1885 6.53906 16.458 6.9375 16.458Z" fill="black" fill-opacity="0.85"/>
</g>
<defs>
<clipPath id="clip0_2207_26080">
<rect width="21.5742" height="21.5977" fill="white" transform="translate(0.0820312 0.0869141)"/>
</clipPath>
</defs>
</svg>
