<svg width="24" height="25" viewBox="0 0 24 25" fill="none" xmlns="http://www.w3.org/2000/svg">
<g clip-path="url(#clip0_2207_26075)">
<path d="M12.0329 23.9931C18.572 23.9931 23.986 18.5674 23.986 12.04C23.986 5.50097 18.5603 0.0869141 12.0212 0.0869141C5.49389 0.0869141 0.079834 5.50097 0.079834 12.04C0.079834 18.5674 5.50561 23.9931 12.0329 23.9931Z" fill="black" fill-opacity="0.85"/>
<path d="M7.96656 17.7939C7.5564 17.7939 7.27515 17.5127 7.27515 17.1025C7.27515 16.7158 7.57984 16.4346 7.97828 16.4346H9.75953C8.28296 15.4736 7.31031 13.6924 7.31031 11.6181C7.31031 9.21582 8.47046 7.43457 10.3923 6.74316V5.67675C10.3923 5.32519 10.6384 5.0791 10.9782 5.0791C11.3181 5.0791 11.5759 5.32519 11.5759 5.67675V6.50879C11.7751 6.48535 11.9978 6.47363 12.1853 6.47363C12.361 6.47363 12.5251 6.47363 12.6892 6.49707V5.67675C12.6892 5.32519 12.9353 5.0791 13.2751 5.0791C13.615 5.0791 13.861 5.32519 13.861 5.67675V6.77832C15.6306 7.458 16.7907 9.25097 16.8025 11.3838C16.8025 11.8408 16.486 12.1689 16.0642 12.1689C15.6071 12.1689 15.3142 11.8408 15.3025 11.3721C15.279 10.0244 14.7282 9.00488 13.861 8.40722V11.4424C13.861 11.7822 13.615 12.0283 13.2751 12.0283C12.9353 12.0283 12.6892 11.7822 12.6892 11.4424V7.96191C12.5368 7.93847 12.3728 7.91503 12.1736 7.91503C11.9978 7.91503 11.7751 7.93847 11.5759 7.96191V11.4424C11.5759 11.7822 11.3181 12.0283 10.9782 12.0283C10.6384 12.0283 10.3923 11.7822 10.3923 11.4424V8.37207C9.40796 8.98144 8.8689 10.1416 8.8689 11.7939C8.8689 14.4307 10.9314 16.4346 13.6032 16.4346H15.4548C15.865 16.4346 16.1579 16.7158 16.1579 17.1025C16.1579 17.501 15.8767 17.7939 15.4548 17.7939H7.96656Z" fill="white"/>
</g>
<defs>
<clipPath id="clip0_2207_26075">
<rect width="23.9062" height="23.918" fill="white" transform="translate(0.079834 0.0869141)"/>
</clipPath>
</defs>
</svg>
