<svg width="28" height="23" viewBox="0 0 28 23" fill="none" xmlns="http://www.w3.org/2000/svg">
<g clip-path="url(#clip0_2207_10683)">
<path d="M1.73291 11.7588H25.5806V9.98925H1.73291V11.7588ZM6.3501 13.3642H9.25634C10.0884 13.3642 10.5571 12.9072 10.5571 12.0869V9.68457C10.5571 8.86425 10.0884 8.3955 9.25634 8.3955H6.3501C5.52979 8.3955 5.06104 8.86425 5.06104 9.68457V12.0869C5.06104 12.9072 5.52979 13.3642 6.3501 13.3642ZM18.0454 13.3642H20.9517C21.7837 13.3642 22.2525 12.9072 22.2525 12.0869V9.68457C22.2525 8.86425 21.7837 8.3955 20.9517 8.3955H18.0454C17.2134 8.3955 16.7446 8.86425 16.7446 9.68457V12.0869C16.7446 12.9072 17.2134 13.3642 18.0454 13.3642ZM3.71338 22.7978H23.6001C26.0259 22.7978 27.2212 21.626 27.2212 19.2236V7.82129C27.2212 5.41894 26.0259 4.24707 23.6001 4.24707H3.71338C1.29931 4.24707 0.0922852 5.41894 0.0922852 7.82129V19.2236C0.0922852 21.626 1.29931 22.7978 3.71338 22.7978ZM3.73682 20.9228C2.58838 20.9228 1.97901 20.3369 1.97901 19.1299V7.91503C1.97901 6.71972 2.58838 6.12207 3.73682 6.12207H23.5767C24.7251 6.12207 25.3345 6.71972 25.3345 7.91503V19.1299C25.3345 20.3369 24.7251 20.9228 23.5767 20.9228H3.73682ZM7.70948 5.2666H9.52588V3.19238C9.52588 2.30175 10.0532 1.79785 10.9673 1.79785H16.3462C17.2603 1.79785 17.7759 2.30175 17.7759 3.19238V5.24316H19.5923V3.32129C19.5923 1.11816 18.4321 0.0869141 16.3111 0.0869141H10.9907C8.98682 0.0869141 7.70948 1.11816 7.70948 3.32129V5.2666Z" fill="black" fill-opacity="0.85"/>
</g>
<defs>
<clipPath id="clip0_2207_10683">
<rect width="27.1289" height="22.7227" fill="white" transform="translate(0.0922852 0.0869141)"/>
</clipPath>
</defs>
</svg>
