<svg width="24" height="25" viewBox="0 0 24 25" fill="none" xmlns="http://www.w3.org/2000/svg">
<g clip-path="url(#clip0_2207_20690)">
<path d="M11.9594 23.9941C18.4985 23.9941 23.9125 18.5684 23.9125 12.041C23.9125 5.50195 18.4868 0.0878906 11.9477 0.0878906C5.42041 0.0878906 0.00634766 5.50195 0.00634766 12.041C0.00634766 18.5684 5.43213 23.9941 11.9594 23.9941Z" fill="black" fill-opacity="0.85"/>
<path d="M7.16651 16.7051C6.63916 16.7051 6.34619 16.3652 6.34619 15.8262V8.10351C6.34619 7.64648 6.73291 7.27148 7.17823 7.27148C7.63526 7.27148 8.02197 7.64648 8.02197 8.10351V15.2871H10.4712C10.8462 15.2871 11.1744 15.6035 11.1744 16.002C11.1744 16.377 10.8462 16.7051 10.4712 16.7051H7.16651ZM13.19 16.7051C12.6509 16.7051 12.358 16.3535 12.358 15.8262V8.29101C12.358 7.78711 12.6392 7.41211 13.19 7.41211H15.5572C16.9048 7.41211 17.9009 8.25586 17.9009 9.73242C17.9009 10.6348 17.2916 11.6074 16.4244 11.7598V11.8301C17.5142 11.9356 18.1939 12.9668 18.1939 14.0801C18.1939 15.627 17.2447 16.7051 15.6275 16.7051H13.19ZM13.9986 11.3496H14.9361C15.7916 11.3496 16.2837 10.834 16.2837 9.99023C16.2837 9.25195 15.9439 8.70117 15.0767 8.70117H13.9986V11.3496ZM13.9986 15.4277H15.1119C16.0376 15.4277 16.4947 14.877 16.4947 13.9395C16.4947 12.9434 15.9087 12.4863 15.0767 12.4863H13.9986V15.4277Z" fill="white"/>
</g>
<defs>
<clipPath id="clip0_2207_20690">
<rect width="23.9062" height="23.918" fill="white" transform="translate(0.00634766 0.0878906)"/>
</clipPath>
</defs>
</svg>
