<svg width="26" height="23" viewBox="0 0 26 23" fill="none" xmlns="http://www.w3.org/2000/svg">
<g clip-path="url(#clip0_2207_18228)">
<path d="M0.35669 1.50574C0.110596 2.70105 0.0168457 4.25965 0.0168457 5.30261C0.0168457 14.0683 5.23169 19.8573 13.2004 19.8573C18.3332 19.8573 20.7473 16.8339 21.2746 15.8612L19.8098 15.8261C21.3332 17.4198 22.0129 19.1308 22.7863 21.5566C22.9621 22.119 23.3488 22.3183 23.759 22.3183C24.6262 22.3183 25.3176 21.5683 25.3176 20.537C25.3176 18.9198 22.9973 16.1073 21.7902 14.9706C16.6574 10.2362 8.84107 13.037 6.82544 7.81043C6.6731 7.41199 7.09497 7.06043 7.48169 7.45886C11.5246 11.5019 16.7277 8.09168 21.7902 12.7558C22.1887 13.1073 22.6574 12.9198 22.7277 12.498C22.7863 12.1581 22.8215 11.619 22.8215 11.1034C22.8215 5.38465 18.8371 2.63074 13.2356 2.63074C11.3606 2.63074 9.16919 3.08777 7.44654 3.08777C5.55982 3.08777 3.43873 2.93543 1.75123 1.13074C1.27076 0.638552 0.54419 0.708865 0.35669 1.50574Z" fill="black" fill-opacity="0.85"/>
</g>
<defs>
<clipPath id="clip0_2207_18228">
<rect width="25.3008" height="22.2305" fill="white" transform="translate(0.0168457 0.0878906)"/>
</clipPath>
</defs>
</svg>
