<svg width="30" height="20" viewBox="0 0 30 20" fill="none" xmlns="http://www.w3.org/2000/svg">
<g clip-path="url(#clip0_2207_17718)">
<path d="M3.72168 19.4356H26.0928C28.5537 19.4356 29.7725 18.2168 29.7725 15.8027V3.73242C29.7725 1.31836 28.5537 0.0996094 26.0928 0.0996094H3.72168C1.27246 0.0996094 0.0419922 1.30664 0.0419922 3.73242V15.8027C0.0419922 18.2168 1.27246 19.4356 3.72168 19.4356Z" fill="black" fill-opacity="0.85"/>
<path d="M3.66308 13.7754C3.19433 13.7754 2.95996 13.4707 2.95996 13.0723C2.95996 12.9434 2.99511 12.7793 3.01855 12.6738L4.4248 6.62695C4.55371 6.05273 4.90527 5.75977 5.4209 5.75977C6.01855 5.75977 6.37011 6.08789 6.47558 6.61523L7.89355 12.6856C7.91699 12.7793 7.92871 12.9551 7.92871 13.0723C7.92871 13.4707 7.65918 13.7754 7.24902 13.7754C6.83887 13.7754 6.59277 13.541 6.52246 13.1426L6.26465 11.8535H4.64746L4.37793 13.1309C4.31933 13.5059 4.06152 13.7754 3.66308 13.7754ZM4.81152 10.7168H6.08887L5.44433 7.64648L4.81152 10.7168ZM9.3584 13.7754C8.9248 13.7754 8.66699 13.5059 8.66699 13.0488V6.60351C8.66699 6.20508 8.90137 5.87695 9.3584 5.87695H10.9639C12.3701 5.87695 13.0615 7.18945 13.0615 8.51367C13.0615 10.002 12.2295 11.1387 10.8701 11.1387H10.0615V13.0488C10.0615 13.5059 9.79199 13.7754 9.3584 13.7754ZM10.0615 10.0254H10.6006C11.3623 10.0254 11.6436 9.32227 11.6436 8.51367C11.6436 7.7168 11.3858 7.00195 10.6006 7.00195H10.0615V10.0254ZM15.9092 13.752C15.4873 13.752 15.1943 13.4238 15.1943 12.9785V7.49414L14.6318 7.96289C14.5381 8.0332 14.3858 8.0918 14.2568 8.0918C13.9404 8.0918 13.6943 7.85742 13.6943 7.5293C13.6943 7.33008 13.8232 7.13086 14.0225 6.95508L14.9014 6.19336C15.2529 5.91211 15.5108 5.77148 15.8389 5.77148C16.3076 5.77148 16.6475 6.11133 16.6475 6.56836V12.9785C16.6475 13.4238 16.3428 13.752 15.9092 13.752ZM18.2178 13.6699C17.8428 13.6699 17.5498 13.4238 17.5498 13.0254C17.5498 12.8379 17.5967 12.6621 17.8311 12.334L19.2608 10.2012C19.8232 9.39258 20.1865 8.67773 20.1865 7.98633C20.1865 7.40039 19.999 6.94336 19.5303 6.94336C19.1201 6.94336 18.9443 7.31836 18.8389 7.83398C18.7451 8.26758 18.5342 8.4668 18.1709 8.4668C17.7842 8.4668 17.5381 8.17383 17.5381 7.81055C17.5381 6.94336 18.3232 5.70117 19.542 5.70117C20.8311 5.70117 21.5811 6.62695 21.5811 7.96289C21.5811 8.9707 21.0303 9.89648 20.4326 10.7402L19.2842 12.416H21.0889C21.4053 12.416 21.6865 12.6856 21.6865 13.0371C21.6865 13.377 21.4053 13.6699 21.0889 13.6699H18.2178ZM24.4639 13.8106C22.9287 13.8106 22.2725 12.5801 22.2725 11.8184C22.2725 11.5137 22.4834 11.1621 22.9404 11.1621C23.3272 11.1621 23.5029 11.4434 23.585 11.6777C23.7373 12.2871 24.042 12.5567 24.4639 12.5567C25.0147 12.5567 25.249 12.1113 25.249 11.4199C25.249 10.6465 24.9795 10.2598 24.2529 10.2598H24.042C23.7022 10.2598 23.4561 10.002 23.4561 9.66211C23.4561 9.33398 23.7022 9.08789 24.042 9.08789H24.2529C24.8623 9.08789 25.1084 8.53711 25.1084 7.97461C25.1084 7.35351 24.8506 6.95508 24.417 6.95508C24.0303 6.95508 23.8193 7.2832 23.6787 7.82227C23.5732 8.17383 23.3389 8.34961 22.999 8.34961C22.6358 8.34961 22.3779 8.08008 22.3779 7.7168C22.3779 6.60351 23.2568 5.72461 24.417 5.72461C25.8115 5.72461 26.4795 6.7793 26.4795 7.85742C26.4795 8.56055 26.1514 9.25195 25.6592 9.5918C26.3272 9.84961 26.667 10.6113 26.667 11.4551C26.667 12.791 25.7998 13.8106 24.4639 13.8106Z" fill="white"/>
</g>
<defs>
<clipPath id="clip0_2207_17718">
<rect width="29.7305" height="19.3477" fill="white" transform="translate(0.0419922 0.0878906)"/>
</clipPath>
</defs>
</svg>
