<svg width="24" height="25" viewBox="0 0 24 25" fill="none" xmlns="http://www.w3.org/2000/svg">
<g clip-path="url(#clip0_2207_11120)">
<path d="M11.7402 24.7441C18.7714 24.7441 23.4355 22.3418 23.4355 18.6152V6.66211C23.4355 2.66601 18.7597 0.0878906 11.7402 0.0878906C4.73242 0.0878906 0.0566406 2.66601 0.0566406 6.66211V18.6152C0.0566406 22.3418 4.7207 24.7441 11.7402 24.7441ZM11.7402 22.8574C5.9043 22.8574 1.94336 21.0762 1.94336 18.6152V6.66211C1.94336 3.91992 5.88086 1.97461 11.7402 1.97461C17.6113 1.97461 21.5488 3.91992 21.5488 6.66211V18.6152C21.5488 21.0762 17.5761 22.8574 11.7402 22.8574ZM11.7402 14.3731C17.5761 14.3731 21.5488 16.1543 21.5488 18.6152H23.4355C23.4355 14.8887 18.7714 12.4863 11.7402 12.4863C4.7207 12.4863 0.0566406 14.8887 0.0566406 18.6152H1.94336C1.94336 16.1543 5.9043 14.3731 11.7402 14.3731ZM11.7402 19.1777C14.4004 19.1777 16.5566 17.7598 16.6269 16.0371C15.2558 15.6973 13.5918 15.4981 11.7402 15.4981C9.90039 15.4981 8.22461 15.6973 6.86523 16.0371C6.93555 17.7598 9.08008 19.1777 11.7402 19.1777Z" fill="black" fill-opacity="0.85"/>
</g>
<defs>
<clipPath id="clip0_2207_11120">
<rect width="23.3789" height="24.668" fill="white" transform="translate(0.0566406 0.0878906)"/>
</clipPath>
</defs>
</svg>
