<svg width="22" height="22" viewBox="0 0 22 22" fill="none" xmlns="http://www.w3.org/2000/svg">
<g clip-path="url(#clip0_2207_11193)">
<path d="M3.7301 21.6875H17.9449C20.4059 21.6875 21.6246 20.4687 21.6246 18.0546V3.74609C21.6246 1.33203 20.4059 0.113281 17.9449 0.113281H3.7301C1.28088 0.113281 0.050415 1.32031 0.050415 3.74609V18.0546C0.050415 20.4804 1.28088 21.6875 3.7301 21.6875Z" fill="black" fill-opacity="0.85"/>
<path d="M7.62072 4.58984H14.0543C14.5699 4.58984 14.9449 4.96484 14.9449 5.49218V16.3086C14.9449 16.8242 14.5699 17.1992 14.0543 17.1992H7.62072C7.1051 17.1992 6.7301 16.8242 6.7301 16.3086V5.49218C6.7301 4.96484 7.1051 4.58984 7.62072 4.58984ZM8.49963 12.0195C8.26525 12.0195 8.10119 12.1836 8.10119 12.4296V15.4179C8.10119 15.664 8.26525 15.8281 8.49963 15.8281H13.1754C13.4098 15.8281 13.5738 15.664 13.5738 15.4179V12.4296C13.5738 12.1836 13.4098 12.0195 13.1754 12.0195H8.49963Z" fill="white"/>
</g>
<defs>
<clipPath id="clip0_2207_11193">
<rect width="21.5742" height="21.5977" fill="white" transform="translate(0.050415 0.0898438)"/>
</clipPath>
</defs>
</svg>
