<svg width="29" height="21" viewBox="0 0 29 21" fill="none" xmlns="http://www.w3.org/2000/svg">
<g clip-path="url(#clip0_2207_15762)">
<path d="M27.9549 1.92773C28.4471 1.91601 28.8689 1.50586 28.8689 1.01367C28.8689 0.533203 28.4588 0.0996094 27.9549 0.0996094L5.31428 0.0878906C4.81037 0.0878906 4.40022 0.521485 4.40022 1.01367C4.40022 1.50586 4.82209 1.91601 5.31428 1.91601L27.9549 1.92773ZM16.6463 10.0371C21.9431 10.0371 25.576 6.35742 25.5408 1.03711H23.7244C23.7596 5.2793 20.865 8.20898 16.6463 8.20898C12.4158 8.20898 9.52131 5.2793 9.55647 1.03711H7.74006C7.70491 6.35742 11.326 10.0371 16.6463 10.0371ZM10.1541 19.8926L18.6619 11.3731C17.6306 11.5606 17.1736 11.5254 15.9549 11.5254L8.85334 18.6035C8.47834 18.9785 8.47834 19.5059 8.85334 19.8926C9.24006 20.2676 9.76741 20.2676 10.1541 19.8926ZM7.31819 17.0567L13.2947 11.0684C12.6502 10.8809 12.0174 10.6348 11.4549 10.3301L6.01741 15.7559C5.65412 16.1426 5.64241 16.6582 6.01741 17.0567C6.40412 17.4317 6.93147 17.4317 7.31819 17.0567ZM4.48225 14.2207L9.61506 9.07617C9.15803 8.67773 8.74787 8.2207 8.37287 7.72851L3.18147 12.9199C2.81819 13.3067 2.79475 13.834 3.16975 14.209C3.56819 14.5957 4.09553 14.6191 4.48225 14.2207ZM1.63459 11.3848L7.201 5.81836C6.93147 5.20898 6.72053 4.56445 6.56819 3.86133L0.34553 10.084C-0.0177513 10.4707 -0.0294701 10.9981 0.333811 11.3731C0.732249 11.7598 1.24787 11.7715 1.63459 11.3848Z" fill="black" fill-opacity="0.85"/>
</g>
<defs>
<clipPath id="clip0_2207_15762">
<rect width="28.8018" height="20.2148" fill="white" transform="translate(0.0671387 0.0878906)"/>
</clipPath>
</defs>
</svg>
