<svg width="22" height="22" viewBox="0 0 22 22" fill="none" xmlns="http://www.w3.org/2000/svg">
<g clip-path="url(#clip0_2207_11168)">
<path d="M3.73633 21.6875H17.9511C20.4121 21.6875 21.6308 20.4687 21.6308 18.0546V3.74609C21.6308 1.33203 20.4121 0.113281 17.9511 0.113281H3.73633C1.28711 0.113281 0.0566406 1.32031 0.0566406 3.74609V18.0546C0.0566406 20.4804 1.28711 21.6875 3.73633 21.6875ZM3.75976 19.8007C2.58789 19.8007 1.94336 19.1796 1.94336 17.9609V3.83984C1.94336 2.62109 2.58789 2 3.75976 2H17.9277C19.0878 2 19.7441 2.62109 19.7441 3.83984V17.9609C19.7441 19.1796 19.0878 19.8007 17.9277 19.8007H3.75976Z" fill="black" fill-opacity="0.85"/>
<path d="M7.7207 17H13.9668C14.4589 17 14.8222 16.6367 14.8222 16.1445V5.65625C14.8222 5.14062 14.4589 4.78906 13.9668 4.78906H7.7207C7.22852 4.78906 6.86523 5.14062 6.86523 5.65625V16.1445C6.86523 16.6367 7.22852 17 7.7207 17ZM8.57617 9.8164C8.35352 9.8164 8.18945 9.64062 8.18945 9.40625V6.51172C8.18945 6.26562 8.35352 6.11328 8.57617 6.11328H13.1113C13.3457 6.11328 13.498 6.26562 13.498 6.51172V9.40625C13.498 9.64062 13.3457 9.8164 13.1113 9.8164H8.57617Z" fill="black" fill-opacity="0.85"/>
</g>
<defs>
<clipPath id="clip0_2207_11168">
<rect width="21.5742" height="21.5977" fill="white" transform="translate(0.0566406 0.0898438)"/>
</clipPath>
</defs>
</svg>
