<svg width="20" height="31" viewBox="0 0 20 31" fill="none" xmlns="http://www.w3.org/2000/svg">
<g clip-path="url(#clip0_2207_15387)">
<path d="M3.36804 27.0312H16.0477C17.911 27.0312 19.1297 25.7304 19.1297 23.7617V15.9921C19.1297 13.2617 18.8133 10.496 18.3563 8.59765C17.8876 6.5 16.5047 4.97656 14.3719 4.7539C13.8211 4.70703 11.9461 4.54296 9.70789 4.54296C7.41101 4.54296 5.59461 4.70703 5.04383 4.7539C2.91101 4.97656 1.53992 6.5 1.05945 8.59765C0.602417 10.5078 0.297729 13.2382 0.297729 15.957V23.7617C0.297729 25.7304 1.50476 27.0312 3.36804 27.0312ZM9.70789 19.3203C7.10633 19.3086 4.70398 19.1914 3.48523 19.039C2.80554 18.957 2.54773 18.5234 2.54773 17.8906V15.7929C2.54773 13.5429 2.77039 11.8789 2.94617 11.1171C3.06336 10.625 3.36804 10.2617 3.88367 10.2031C5.12586 10.0625 6.73133 9.96875 9.70789 9.95703C12.6844 9.94531 14.2899 10.0625 15.5321 10.2031C16.0477 10.2617 16.3641 10.625 16.4696 11.1171C16.6454 11.8789 16.868 13.5429 16.868 15.7929V17.8906C16.868 18.5351 16.6102 18.9687 15.9305 19.039C14.1141 19.2265 11.7235 19.332 9.70789 19.3203ZM4.56336 24.3125C3.67273 24.3125 3.03992 23.6562 3.03992 22.7539C3.03992 21.8632 3.67273 21.207 4.56336 21.207C5.4657 21.207 6.12195 21.8632 6.12195 22.7539C6.12195 23.6562 5.44226 24.3125 4.56336 24.3125ZM14.829 24.3242C13.9266 24.3242 13.2587 23.6445 13.2587 22.7539C13.2587 21.875 13.9266 21.1953 14.829 21.1953C15.7079 21.1953 16.3641 21.875 16.3641 22.7539C16.3641 23.6445 15.6961 24.3242 14.829 24.3242ZM6.86023 8.04687C6.45008 8.04687 6.16883 7.77734 6.16883 7.36718C6.16883 6.94531 6.45008 6.6875 6.86023 6.6875H12.5672C12.9657 6.6875 13.2469 6.94531 13.2469 7.36718C13.2469 7.77734 12.9657 8.04687 12.5672 8.04687H6.86023ZM0.039917 2.43359C0.039917 2.91406 0.391479 3.20703 0.836792 3.20703C1.07117 3.20703 1.30554 3.08984 1.50476 2.84375C2.16101 2.01172 2.87586 1.70703 4.22351 1.70703H15.204C16.5399 1.70703 17.2547 2.01172 17.911 2.84375C18.1102 3.08984 18.3563 3.20703 18.5907 3.20703C19.0243 3.20703 19.3758 2.91406 19.3758 2.43359C19.3758 2.08203 19.1297 1.71875 18.8016 1.40234C17.7938 0.429688 16.6454 0.101562 15.204 0.101562H4.22351C2.78211 0.101562 1.62195 0.429688 0.625855 1.40234C0.286011 1.71875 0.039917 2.08203 0.039917 2.43359ZM8.85242 5.14062L5.93445 1.5664H3.76648L6.69617 5.14062H8.85242ZM10.5633 5.14062H12.7196L15.6493 1.5664H13.4813L10.5633 5.14062ZM3.71961 26.8789L1.79773 29.9609C1.49304 30.4414 1.7743 30.9687 2.32508 30.9687H2.98133C3.29773 30.9687 3.48523 30.8632 3.66101 30.582L5.95789 26.8789H3.71961ZM13.4696 26.8789L15.7665 30.582C15.9422 30.8632 16.1297 30.9687 16.4579 30.9687H17.1141C17.6532 30.9687 17.8993 30.4296 17.6063 29.9609L15.7079 26.8789H13.4696Z" fill="black" fill-opacity="0.85"/>
</g>
<defs>
<clipPath id="clip0_2207_15387">
<rect width="19.3359" height="30.8789" fill="white" transform="translate(0.039917 0.0898438)"/>
</clipPath>
</defs>
</svg>
