<svg width="30" height="27" viewBox="0 0 30 27" fill="none" xmlns="http://www.w3.org/2000/svg">
<g clip-path="url(#clip0_2207_11146)">
<path d="M2.04908 15.1543C2.72877 16.3262 3.76002 16.5723 4.90846 15.9161L20.1546 7.11528C21.3147 6.44731 21.6194 5.41606 20.9397 4.24418L19.346 1.50199C18.6663 0.318402 17.6468 0.0723079 16.4983 0.751996L1.22877 9.56449C0.0686171 10.2208 -0.224352 11.2286 0.455335 12.4122L2.04908 15.1543ZM15.9241 5.31059C15.6663 4.86528 15.8186 4.29106 16.2639 4.03324C16.721 3.77543 17.2952 3.92778 17.553 4.38481C17.8108 4.83012 17.6585 5.40434 17.2014 5.66215C16.7561 5.91996 16.1819 5.76762 15.9241 5.31059ZM12.9007 7.05668C12.6429 6.61137 12.7952 6.03715 13.2405 5.77934C13.6975 5.52153 14.2718 5.67387 14.5296 6.11918C14.7874 6.56449 14.635 7.15043 14.178 7.40824C13.7327 7.66606 13.1585 7.50199 12.9007 7.05668ZM9.87721 8.80278C9.6194 8.35746 9.78346 7.78324 10.2288 7.51371C10.6741 7.2559 11.2483 7.41996 11.5061 7.86528C11.7639 8.31059 11.6116 8.88481 11.1663 9.14262C10.721 9.40043 10.1468 9.24809 9.87721 8.80278ZM6.86549 10.5372C6.60768 10.0918 6.76002 9.52934 7.21705 9.27153C7.66236 9.00199 8.2483 9.15434 8.50611 9.59965C8.76393 10.0567 8.59986 10.6192 8.15455 10.877C7.69752 11.1348 7.1233 10.9942 6.86549 10.5372ZM3.84205 12.2833C3.58424 11.8379 3.73658 11.2637 4.19361 11.0059C4.63893 10.7481 5.21315 10.9004 5.47096 11.3458C5.74049 11.8028 5.57643 12.3653 5.13111 12.6231C4.67408 12.8809 4.09986 12.7403 3.84205 12.2833ZM18.3616 1.32621L19.0179 2.45121L20.9983 1.31449C21.3264 1.12699 21.4202 0.740277 21.2327 0.423871C21.0569 0.107464 20.6585 -0.0097232 20.3421 0.177777L18.3616 1.32621ZM19.9554 4.0684L20.6116 5.20512L22.5804 4.0684C22.9436 3.86918 23.0257 3.52934 22.8147 3.16606C22.6272 2.83793 22.2522 2.74418 21.9241 2.93168L19.9554 4.0684ZM9.98268 25.127C10.6507 26.2872 11.7054 26.545 12.8655 25.8887L28.1116 17.0879C29.26 16.42 29.5413 15.377 28.885 14.2168L27.2913 11.4747C26.6116 10.2911 25.5921 10.045 24.4436 10.7247L9.17408 19.5372C8.02565 20.1934 7.72096 21.2012 8.40065 22.3848L9.98268 25.127ZM23.8694 15.2833C23.6116 14.8379 23.7522 14.2754 24.2093 14.0176C24.6663 13.7481 25.2288 13.9004 25.4866 14.3458C25.7444 14.8028 25.6038 15.3653 25.1468 15.6231C24.6897 15.8926 24.1272 15.7403 23.8694 15.2833ZM20.846 17.0293C20.5764 16.584 20.7405 16.0215 21.1975 15.7637C21.6429 15.4942 22.2171 15.6465 22.4749 16.0918C22.7327 16.5489 22.5804 17.1114 22.135 17.3692C21.678 17.6387 21.1038 17.4864 20.846 17.0293ZM17.8343 18.7754C17.5764 18.3301 17.7288 17.7559 18.1741 17.4981C18.6194 17.2286 19.2054 17.3926 19.4632 17.8379C19.721 18.2833 19.5569 18.8575 19.1116 19.1153C18.6663 19.3848 18.0921 19.2208 17.8343 18.7754ZM14.8108 20.5098C14.553 20.0645 14.7171 19.4903 15.1624 19.2325C15.6077 18.9747 16.1819 19.127 16.4397 19.584C16.6975 20.0293 16.5452 20.5918 16.0999 20.8614C15.6546 21.1192 15.0686 20.9668 14.8108 20.5098ZM11.7874 22.2559C11.5296 21.8106 11.6936 21.2364 12.1389 20.9668C12.5843 20.709 13.1585 20.8731 13.4163 21.3184C13.6741 21.7637 13.5218 22.3497 13.0764 22.6075C12.6311 22.8653 12.0452 22.7012 11.7874 22.2559ZM10.9788 25.3262L10.3225 24.1778L8.33033 25.3262C8.00221 25.5137 7.92018 25.8887 8.10768 26.2168C8.31861 26.5801 8.65846 26.6856 8.9983 26.4747L10.9788 25.3262ZM9.39674 22.5723L8.74049 21.4356L6.76002 22.5723C6.4319 22.7598 6.33815 23.1583 6.52565 23.4747C6.71315 23.7911 7.08815 23.8965 7.40455 23.709L9.39674 22.5723ZM6.16236 16.502H12.1507L22.8147 10.3379H16.8264L6.16236 16.502Z" fill="black" fill-opacity="0.85"/>
</g>
<defs>
<clipPath id="clip0_2207_11146">
<rect width="29.1381" height="26.5118" fill="white" transform="translate(0.0944824 0.0878906)"/>
</clipPath>
</defs>
</svg>
