<svg width="24" height="29" viewBox="0 0 24 29" fill="none" xmlns="http://www.w3.org/2000/svg">
<g clip-path="url(#clip0_2207_10886)">
<path d="M4.66101 7.75708C4.66101 12.2571 7.35632 13.3703 8.10632 21.1867C8.1532 21.6086 8.38757 21.8781 8.8446 21.8781H16.1689C16.6259 21.8781 16.8603 21.6086 16.9071 21.1867C17.6571 13.3703 20.3525 12.2571 20.3525 7.75708C20.3525 3.71411 16.8954 0.53833 12.5126 0.53833C8.12976 0.53833 4.66101 3.71411 4.66101 7.75708ZM6.43054 7.75708C6.43054 4.59301 9.2196 2.30786 12.5126 2.30786C15.8056 2.30786 18.5829 4.59301 18.5829 7.75708C18.5829 11.1203 16.3446 11.9172 15.29 20.1086H9.72351C8.66882 11.9172 6.43054 11.1203 6.43054 7.75708ZM8.79773 24.4094H16.2157C16.6025 24.4094 16.9071 24.1047 16.9071 23.718C16.9071 23.343 16.6025 23.0383 16.2157 23.0383H8.79773C8.41101 23.0383 8.11804 23.343 8.11804 23.718C8.11804 24.1047 8.41101 24.4094 8.79773 24.4094ZM12.5126 27.8078C14.3173 27.8078 15.8407 26.9172 15.9462 25.5696H9.06726C9.14929 26.9172 10.6845 27.8078 12.5126 27.8078Z" fill="black" fill-opacity="0.85"/>
<path d="M20.0243 23.3078C20.9267 24.2102 22.3564 24.1985 23.247 23.3078C24.1259 22.4289 24.1259 20.9758 23.247 20.0969L3.91102 0.749287C2.99696 -0.164775 1.53211 -0.0944633 0.688362 0.749287C-0.190545 1.62819 -0.178826 3.10475 0.688362 3.97194L20.0243 23.3078Z" fill="white"/>
<path d="M20.997 22.3353C21.3603 22.7103 21.9228 22.6986 22.2743 22.3353C22.6259 21.9837 22.6259 21.4212 22.2743 21.0579L2.93837 1.722C2.58681 1.35872 2.00087 1.38216 1.64931 1.722C1.30947 2.06184 1.32119 2.67122 1.64931 2.99934L20.997 22.3353Z" fill="black" fill-opacity="0.85"/>
</g>
<defs>
<clipPath id="clip0_2207_10886">
<rect width="23.8726" height="28.8931" fill="white" transform="translate(0.0335693 0.0898438)"/>
</clipPath>
</defs>
</svg>
