<svg width="34" height="21" viewBox="0 0 34 21" fill="none" xmlns="http://www.w3.org/2000/svg">
<g clip-path="url(#clip0_2207_11088)">
<path d="M16.6841 20.1387C26.5747 20.1387 33.313 15.6035 33.313 10.1191C33.313 4.63477 26.5747 0.0878906 16.6841 0.0878906C6.81689 0.0878906 0.090332 4.63477 0.090332 10.1191C0.090332 15.6035 6.81689 20.1387 16.6841 20.1387ZM16.6841 16.6113C10.4497 16.6113 5.70361 14.0098 5.70361 10.4356C5.70361 6.88477 10.4497 4.2832 16.6841 4.2832C22.9536 4.2832 27.7114 6.88477 27.7114 10.4356C27.7114 13.9981 22.9419 16.6113 16.6841 16.6113ZM16.6723 11.1504C20.2583 11.1504 23.3872 9.5332 24.5942 7.2832C22.8715 6.12305 20.1294 5.4082 16.6841 5.4082C13.227 5.4082 10.4614 6.13477 8.73877 7.33008C9.96924 9.56836 13.0864 11.1504 16.6723 11.1504Z" fill="black" fill-opacity="0.85"/>
</g>
<defs>
<clipPath id="clip0_2207_11088">
<rect width="33.2227" height="20.0742" fill="white" transform="translate(0.090332 0.0878906)"/>
</clipPath>
</defs>
</svg>
