<svg width="34" height="21" viewBox="0 0 34 21" fill="none" xmlns="http://www.w3.org/2000/svg">
<g clip-path="url(#clip0_2207_11080)">
<path d="M16.6736 20.1387C26.5642 20.1387 33.3025 15.6035 33.3025 10.1191C33.3025 4.63477 26.5642 0.0878906 16.6736 0.0878906C6.80639 0.0878906 0.079834 4.63477 0.079834 10.1191C0.079834 15.6035 6.80639 20.1387 16.6736 20.1387ZM16.6736 18.3809C7.88452 18.3809 1.83764 14.5606 1.83764 10.1191C1.83764 5.67773 7.88452 1.85742 16.6736 1.85742C25.486 1.85742 31.5446 5.67773 31.5446 10.1191C31.5446 14.5606 25.486 18.3809 16.6736 18.3809ZM16.6736 16.6113C22.9314 16.6113 27.7009 13.9981 27.7009 10.4356C27.7009 6.88477 22.9431 4.2832 16.6736 4.2832C10.4392 4.2832 5.69311 6.88477 5.69311 10.4356C5.69311 14.0098 10.4392 16.6113 16.6736 16.6113ZM16.6736 14.8418C11.529 14.8418 7.46264 12.8262 7.46264 10.4356C7.46264 8.04492 11.5173 6.05273 16.6736 6.05273C21.8532 6.05273 25.9314 8.04492 25.9314 10.4356C25.9314 12.8262 21.8298 14.8418 16.6736 14.8418ZM16.6618 11.1504C20.3298 11.1504 23.5056 9.46289 24.654 7.11914C22.3571 5.99414 19.4275 5.41992 16.6736 5.33789C13.861 5.41992 10.9314 5.99414 8.6228 7.13086C9.78295 9.47461 12.9587 11.1504 16.6618 11.1504Z" fill="black" fill-opacity="0.85"/>
</g>
<defs>
<clipPath id="clip0_2207_11080">
<rect width="33.2227" height="20.0742" fill="white" transform="translate(0.079834 0.0878906)"/>
</clipPath>
</defs>
</svg>
