<svg width="21" height="30" viewBox="0 0 21 30" fill="none" xmlns="http://www.w3.org/2000/svg">
<g clip-path="url(#clip0_2207_11137)">
<path d="M11.6064 24.3926C11.6064 25.9512 12.4853 26.8301 14.0439 26.8301H18.0517C19.6103 26.8301 20.5009 25.9512 20.5009 24.3809V5.10351C20.5009 3.5332 19.6103 2.6543 18.0517 2.6543H14.0439C12.4853 2.6543 11.6064 3.5332 11.6064 5.0918V24.3926ZM13.458 25.9629V28.5879C13.458 29.0215 13.7978 29.3496 14.2314 29.3496C14.665 29.3496 15.0048 29.0215 15.0048 28.5879V25.9629H13.458ZM17.1025 25.9629V28.5879C17.1025 29.0215 17.4306 29.3496 17.8642 29.3496C18.2978 29.3496 18.6494 29.0215 18.6494 28.5879V25.9629H17.1025ZM16.0478 8.12695C15.4384 8.12695 14.958 7.63477 14.958 7.02539C14.958 6.41601 15.4384 5.92383 16.0478 5.92383C16.6689 5.92383 17.1494 6.41601 17.1494 7.02539C17.1494 7.63477 16.6689 8.12695 16.0478 8.12695ZM16.0478 11.9824C15.4384 11.9824 14.958 11.4902 14.958 10.8809C14.958 10.2715 15.4384 9.7793 16.0478 9.7793C16.6689 9.7793 17.1494 10.2715 17.1494 10.8809C17.1494 11.4902 16.6689 11.9824 16.0478 11.9824ZM16.0478 15.8262C15.4384 15.8262 14.958 15.3457 14.958 14.7363C14.958 14.127 15.4384 13.6348 16.0478 13.6348C16.6689 13.6348 17.1494 14.127 17.1494 14.7363C17.1494 15.3457 16.6689 15.8262 16.0478 15.8262ZM16.0478 19.6817C15.4384 19.6817 14.958 19.1895 14.958 18.5801C14.958 17.9707 15.4384 17.4902 16.0478 17.4902C16.6689 17.4902 17.1494 17.9707 17.1494 18.5801C17.1494 19.1895 16.6689 19.6817 16.0478 19.6817ZM16.0478 23.5371C15.4384 23.5371 14.958 23.0449 14.958 22.4356C14.958 21.8262 15.4384 21.334 16.0478 21.334C16.6689 21.334 17.1494 21.8262 17.1494 22.4356C17.1494 23.0449 16.6689 23.5371 16.0478 23.5371Z" fill="black" fill-opacity="0.85"/>
<path d="M0.0986328 24.3574C0.0986328 25.916 0.977539 26.7949 2.52441 26.7949H6.54394C8.09082 26.7949 8.98144 25.916 8.98144 24.3457V5.06836C8.98144 3.49805 8.09082 2.61914 6.54394 2.61914H2.52441C0.977539 2.61914 0.0986328 3.49805 0.0986328 5.05664V24.3574ZM1.95019 3.48633H3.49707V0.861329C3.49707 0.427735 3.14551 0.0878906 2.71191 0.0878906C2.27832 0.0878906 1.95019 0.427735 1.95019 0.861329V3.48633ZM5.58301 3.48633H7.12988V0.861329C7.12988 0.427735 6.79004 0.0878906 6.35644 0.0878906C5.92285 0.0878906 5.58301 0.427735 5.58301 0.861329V3.48633ZM4.54004 8.11523C3.93066 8.11523 3.45019 7.62305 3.45019 7.01367C3.45019 6.4043 3.93066 5.91211 4.54004 5.91211C5.14941 5.91211 5.6416 6.4043 5.6416 7.01367C5.6416 7.62305 5.14941 8.11523 4.54004 8.11523ZM4.54004 11.959C3.93066 11.959 3.45019 11.4785 3.45019 10.8691C3.45019 10.2481 3.93066 9.76758 4.54004 9.76758C5.14941 9.76758 5.6416 10.2481 5.6416 10.8691C5.6416 11.4785 5.14941 11.959 4.54004 11.959ZM4.54004 15.8027C3.93066 15.8027 3.45019 15.3223 3.45019 14.7129C3.45019 14.1035 3.93066 13.6231 4.54004 13.6231C5.14941 13.6231 5.6416 14.1035 5.6416 14.7129C5.6416 15.3223 5.14941 15.8027 4.54004 15.8027ZM4.54004 19.6699C3.93066 19.6699 3.45019 19.1777 3.45019 18.5684C3.45019 17.959 3.93066 17.4668 4.54004 17.4668C5.14941 17.4668 5.6416 17.959 5.6416 18.5684C5.6416 19.1777 5.14941 19.6699 4.54004 19.6699ZM4.54004 23.5137C3.93066 23.5137 3.45019 23.0332 3.45019 22.4121C3.45019 21.8027 3.93066 21.3223 4.54004 21.3223C5.14941 21.3223 5.6416 21.8027 5.6416 22.4121C5.6416 23.0332 5.14941 23.5137 4.54004 23.5137Z" fill="black" fill-opacity="0.85"/>
</g>
<defs>
<clipPath id="clip0_2207_11137">
<rect width="20.4023" height="29.2852" fill="white" transform="translate(0.0986328 0.0878906)"/>
</clipPath>
</defs>
</svg>
