<svg width="16" height="29" viewBox="0 0 16 29" fill="none" xmlns="http://www.w3.org/2000/svg">
<g clip-path="url(#clip0_2207_10867)">
<path d="M0 7.30859C0 11.8086 2.69531 12.9218 3.44531 20.7382C3.49219 21.1601 3.72656 21.4296 4.17188 21.4296H11.5078C11.9648 21.4296 12.1992 21.1601 12.2461 20.7382C12.9961 12.9218 15.6797 11.8086 15.6797 7.30859C15.6797 3.26562 12.2227 0.0898438 7.83984 0.0898438C3.45703 0.0898438 0 3.26562 0 7.30859ZM1.76953 7.30859C1.76953 4.14453 4.54688 1.85937 7.83984 1.85937C11.1328 1.85937 13.9102 4.14453 13.9102 7.30859C13.9102 10.6718 11.6836 11.4687 10.6289 19.6601H5.0625C3.99609 11.4687 1.76953 10.6718 1.76953 7.30859ZM4.13672 23.9609H11.5547C11.9414 23.9609 12.2344 23.6562 12.2344 23.2695C12.2344 22.8945 11.9414 22.5898 11.5547 22.5898H4.13672C3.75 22.5898 3.44531 22.8945 3.44531 23.2695C3.44531 23.6562 3.75 23.9609 4.13672 23.9609ZM7.83984 27.3593C9.65625 27.3593 11.168 26.4687 11.2852 25.121H4.40625C4.48828 26.4687 6.01172 27.3593 7.83984 27.3593Z" fill="black" fill-opacity="0.85"/>
</g>
<defs>
<clipPath id="clip0_2207_10867">
<rect width="15.6797" height="27.9961" fill="white" transform="translate(0 0.0898438)"/>
</clipPath>
</defs>
</svg>
