<svg width="22" height="22" viewBox="0 0 22 22" fill="none" xmlns="http://www.w3.org/2000/svg">
<g clip-path="url(#clip0_2207_11188)">
<path d="M3.72803 21.6875H17.9428C20.4038 21.6875 21.6225 20.4687 21.6225 18.0546V3.74609C21.6225 1.33203 20.4038 0.113281 17.9428 0.113281H3.72803C1.27881 0.113281 0.0483398 1.32031 0.0483398 3.74609V18.0546C0.0483398 20.4804 1.27881 21.6875 3.72803 21.6875ZM3.75146 19.8007C2.57959 19.8007 1.93506 19.1796 1.93506 17.9609V3.83984C1.93506 2.62109 2.57959 2 3.75146 2H17.9194C19.0795 2 19.7358 2.62109 19.7358 3.83984V17.9609C19.7358 19.1796 19.0795 19.8007 17.9194 19.8007H3.75146Z" fill="black" fill-opacity="0.85"/>
<path d="M7.7124 4.78906C7.22022 4.78906 6.85693 5.14062 6.85693 5.65625V16.1445C6.85693 16.6367 7.22022 17 7.7124 17H13.9585C14.4506 17 14.8139 16.6367 14.8139 16.1445V5.65625C14.8139 5.14062 14.4506 4.78906 13.9585 4.78906H7.7124ZM8.56787 11.9843H13.103C13.3374 11.9843 13.4897 12.1484 13.4897 12.3828V15.2773C13.4897 15.5234 13.3374 15.6757 13.103 15.6757H8.56787C8.34522 15.6757 8.18115 15.5234 8.18115 15.2773V12.3828C8.18115 12.1484 8.34522 11.9843 8.56787 11.9843Z" fill="black" fill-opacity="0.85"/>
</g>
<defs>
<clipPath id="clip0_2207_11188">
<rect width="21.5742" height="21.5977" fill="white" transform="translate(0.0483398 0.0898438)"/>
</clipPath>
</defs>
</svg>
