<svg width="34" height="21" viewBox="0 0 34 21" fill="none" xmlns="http://www.w3.org/2000/svg">
<g clip-path="url(#clip0_2207_11084)">
<path d="M16.6936 20.1387C26.5725 20.1387 33.3108 15.6035 33.3108 10.1191C33.3108 4.63477 26.5725 0.0878906 16.6936 0.0878906C6.81469 0.0878906 0.0881348 4.63477 0.0881348 10.1191C0.0881348 15.6035 6.81469 20.1387 16.6936 20.1387ZM16.6936 16.8457C10.2483 16.8457 5.46704 14.127 5.46704 10.4356C5.46704 6.76758 10.26 4.04883 16.6936 4.04883C23.1389 4.04883 27.9436 6.76758 27.9436 10.4356C27.9436 14.1152 23.1272 16.8457 16.6936 16.8457ZM16.6936 15.3106C22.1779 15.3106 26.4084 13.1191 26.4084 10.4356C26.4084 9.33398 25.6936 8.31445 24.4631 7.50586C23.1623 9.65039 20.1272 11.1504 16.6467 11.1504C13.1779 11.1504 10.1779 9.67383 8.86547 7.55273C7.68188 8.36133 7.00219 9.3457 7.00219 10.4356C7.00219 13.1191 11.1858 15.3106 16.6936 15.3106Z" fill="black" fill-opacity="0.85"/>
</g>
<defs>
<clipPath id="clip0_2207_11084">
<rect width="33.2227" height="20.0742" fill="white" transform="translate(0.0881348 0.0878906)"/>
</clipPath>
</defs>
</svg>
