<svg width="22" height="22" viewBox="0 0 22 22" fill="none" xmlns="http://www.w3.org/2000/svg">
<g clip-path="url(#clip0_2207_11173)">
<path d="M3.73853 21.6875H17.9533C20.4143 21.6875 21.633 20.4687 21.633 18.0546V3.74609C21.633 1.33203 20.4143 0.113281 17.9533 0.113281H3.73853C1.28931 0.113281 0.0588379 1.32031 0.0588379 3.74609V18.0546C0.0588379 20.4804 1.28931 21.6875 3.73853 21.6875Z" fill="black" fill-opacity="0.85"/>
<path d="M7.62915 17.1992C7.11353 17.1992 6.73853 16.8242 6.73853 16.3086V5.49218C6.73853 4.96484 7.11353 4.58984 7.62915 4.58984H14.0627C14.5783 4.58984 14.9533 4.96484 14.9533 5.49218V16.3086C14.9533 16.8242 14.5783 17.1992 14.0627 17.1992H7.62915ZM8.50806 9.78125H13.1838C13.4182 9.78125 13.5822 9.60546 13.5822 9.35937V6.37109C13.5822 6.125 13.4182 5.96093 13.1838 5.96093H8.50806C8.27368 5.96093 8.10962 6.125 8.10962 6.37109V9.35937C8.10962 9.60546 8.27368 9.78125 8.50806 9.78125Z" fill="white"/>
</g>
<defs>
<clipPath id="clip0_2207_11173">
<rect width="21.5742" height="21.5977" fill="white" transform="translate(0.0588379 0.0898438)"/>
</clipPath>
</defs>
</svg>
