<svg width="24" height="26" viewBox="0 0 24 26" fill="none" xmlns="http://www.w3.org/2000/svg">
<g clip-path="url(#clip0_2207_10932)">
<path d="M0.00219727 7.78906C0.00219727 11.4921 2.18189 12.4062 2.79126 18.6289C2.8147 19.0039 3.03736 19.2734 3.47095 19.2734H9.52954C9.96314 19.2734 10.1741 19.0039 10.2092 18.6289C10.8069 12.4062 12.9866 11.4921 12.9866 7.78906C12.9866 4.44922 10.1506 1.82422 6.49439 1.82422C2.84986 1.82422 0.00219727 4.44922 0.00219727 7.78906ZM1.65454 7.78906C1.65454 5.29296 3.82251 3.47656 6.49439 3.47656C9.17798 3.47656 11.3342 5.29296 11.3342 7.78906C11.3342 10.4843 9.59986 10.9882 8.70923 17.6328H4.27954C3.40064 10.9882 1.65454 10.4843 1.65454 7.78906ZM3.43579 21.5H9.42408C9.79908 21.5 10.1038 21.2187 10.1038 20.8437C10.1038 20.457 9.79908 20.1757 9.42408 20.1757H3.43579C3.06079 20.1757 2.77954 20.4687 2.77954 20.8437C2.77954 21.207 3.06079 21.5 3.43579 21.5ZM6.43579 24.4296C7.98267 24.4296 9.31861 23.5976 9.34204 22.4023H3.54126C3.5647 23.5976 4.8772 24.4296 6.43579 24.4296Z" fill="black" fill-opacity="0.85"/>
<path d="M16.5022 0.0898438C12.3655 0.0898438 9.10767 3.10156 9.10767 6.93359C9.10767 11.1757 11.6506 12.2304 12.3538 19.5546C12.3889 19.9648 12.6116 20.2226 13.0452 20.2226H19.971C20.4045 20.2226 20.6272 19.9648 20.6624 19.5546C21.3655 12.2304 23.9202 11.1757 23.9202 6.93359C23.9202 3.10156 20.6506 0.0898438 16.5022 0.0898438Z" fill="white"/>
<path d="M16.5022 0.0898438C12.3655 0.0898438 9.10767 3.10156 9.10767 6.93359C9.10767 11.1757 11.6506 12.2304 12.3538 19.5546C12.3889 19.9648 12.6116 20.2226 13.0452 20.2226H19.971C20.4045 20.2226 20.6272 19.9648 20.6624 19.5546C21.3655 12.2304 23.9202 11.1757 23.9202 6.93359C23.9202 3.10156 20.6506 0.0898438 16.5022 0.0898438ZM16.5022 1.8125C19.5842 1.8125 22.1975 3.96875 22.1975 6.93359C22.1975 10.0859 20.1116 10.8007 19.092 18.5H13.9241C12.9045 10.8007 10.8303 10.0859 10.8303 6.93359C10.8303 3.96875 13.4319 1.8125 16.5022 1.8125ZM13.0217 22.6132H20.0061C20.3811 22.6132 20.6858 22.332 20.6858 21.9453C20.6858 21.5586 20.3811 21.2773 20.0061 21.2773H13.0217C12.635 21.2773 12.3538 21.5586 12.3538 21.9453C12.3538 22.332 12.635 22.6132 13.0217 22.6132ZM16.5139 25.8242C18.2366 25.8242 19.6897 24.957 19.7834 23.6679H13.2444C13.3147 24.957 14.7795 25.8242 16.5139 25.8242Z" fill="black" fill-opacity="0.85"/>
</g>
<defs>
<clipPath id="clip0_2207_10932">
<rect width="23.918" height="25.7461" fill="white" transform="translate(0.00219727 0.0898438)"/>
</clipPath>
</defs>
</svg>
