<svg width="25" height="38" viewBox="0 0 25 38" fill="none" xmlns="http://www.w3.org/2000/svg">
<g clip-path="url(#clip0_2207_10903)">
<path d="M1.25024 13.5078C1.92993 13.5078 2.46899 12.9687 2.46899 12.289C2.46899 11.621 1.92993 11.082 1.25024 11.082C0.570556 11.082 0.0314941 11.621 0.0314941 12.289C0.0314941 12.9687 0.570556 13.5078 1.25024 13.5078ZM4.01587 5.28125C4.69555 5.28125 5.23461 4.74218 5.23461 4.0625C5.23461 3.39453 4.69555 2.85546 4.01587 2.85546C3.3479 2.85546 2.79711 3.39453 2.79711 4.0625C2.79711 4.74218 3.3479 5.28125 4.01587 5.28125ZM12.2542 2.52734C12.9221 2.52734 13.4612 1.98828 13.4612 1.30859C13.4612 0.628906 12.9221 0.0898438 12.2542 0.0898438C11.5745 0.0898438 11.0354 0.628906 11.0354 1.30859C11.0354 1.98828 11.5745 2.52734 12.2542 2.52734ZM20.4807 5.28125C21.1604 5.28125 21.6995 4.74218 21.6995 4.0625C21.6995 3.39453 21.1604 2.85546 20.4807 2.85546C19.801 2.85546 19.262 3.39453 19.262 4.0625C19.262 4.74218 19.801 5.28125 20.4807 5.28125ZM23.2581 13.5078C23.926 13.5078 24.4651 12.9687 24.4651 12.289C24.4651 11.621 23.926 11.082 23.2581 11.082C22.5784 11.082 22.0393 11.621 22.0393 12.289C22.0393 12.9687 22.5784 13.5078 23.2581 13.5078Z" fill="black" fill-opacity="0.85"/>
<path d="M12.2542 4.88281C8.10571 4.88281 4.8479 7.89453 4.8479 11.7265C4.8479 15.9687 7.39087 17.0234 8.09399 24.3476C8.14087 24.7578 8.3518 25.0156 8.79711 25.0156H15.7112C16.1448 25.0156 16.3674 24.7578 16.4026 24.3476C17.1057 17.0234 19.6604 15.9687 19.6604 11.7265C19.6604 7.89453 16.3909 4.88281 12.2542 4.88281ZM8.76196 27.4062H15.7463C16.1331 27.4062 16.426 27.125 16.426 26.7382C16.426 26.3515 16.1331 26.0703 15.7463 26.0703H8.76196C8.37524 26.0703 8.09399 26.3515 8.09399 26.7382C8.09399 27.125 8.37524 27.4062 8.76196 27.4062ZM12.2542 30.6171C13.9768 30.6171 15.4417 29.75 15.5237 28.4609H8.98461C9.05493 29.75 10.5198 30.6171 12.2542 30.6171Z" fill="black" fill-opacity="0.85"/>
</g>
<defs>
<clipPath id="clip0_2207_10903">
<rect width="24.4336" height="37.582" fill="white" transform="translate(0.0314941 0.0898438)"/>
</clipPath>
</defs>
</svg>
