<svg width="29" height="21" viewBox="0 0 29 21" fill="none" xmlns="http://www.w3.org/2000/svg">
<g clip-path="url(#clip0_2207_15758)">
<path d="M0.97583 1.92773H3.41333C3.7649 6.74414 7.29224 10.0371 12.2962 10.0371C17.3118 10.0371 20.8274 6.74414 21.1673 1.91601H23.6282C24.1204 1.91601 24.5305 1.50586 24.5305 1.01367C24.5305 0.521485 24.1204 0.0878906 23.6282 0.0878906L0.97583 0.0996094C0.471924 0.0996094 0.0734863 0.533203 0.0734863 1.01367C0.0734863 1.50586 0.483642 1.91601 0.97583 1.92773ZM10.2688 11.3731L18.7766 19.8926C19.1751 20.2676 19.6907 20.2676 20.0774 19.8926C20.4524 19.5059 20.4641 18.9785 20.0774 18.6035L12.9758 11.5254C11.7571 11.5254 11.3001 11.5606 10.2688 11.3731ZM15.636 11.0684L21.6243 17.0567C22.011 17.4317 22.5266 17.4317 22.9251 17.0567C23.3001 16.6582 23.2883 16.1426 22.9251 15.7559L17.4876 10.3301C16.9133 10.6348 16.2923 10.8809 15.636 11.0684ZM19.3274 9.07617L24.4602 14.2207C24.8469 14.6191 25.3626 14.5957 25.761 14.209C26.136 13.834 26.1243 13.3067 25.7493 12.9199L20.5579 7.72851C20.1946 8.2207 19.7844 8.67773 19.3274 9.07617ZM21.7297 5.81836L27.2962 11.3848C27.6829 11.7715 28.2102 11.7598 28.6087 11.3731C28.9719 10.9981 28.9602 10.4707 28.5852 10.084L22.3743 3.86133C22.2219 4.56445 22.011 5.20898 21.7297 5.81836Z" fill="black" fill-opacity="0.85"/>
</g>
<defs>
<clipPath id="clip0_2207_15758">
<rect width="28.8004" height="20.2148" fill="white" transform="translate(0.0734863 0.0878906)"/>
</clipPath>
</defs>
</svg>
