<svg width="25" height="38" viewBox="0 0 25 38" fill="none" xmlns="http://www.w3.org/2000/svg">
<g clip-path="url(#clip0_2207_10898)">
<path d="M1.2439 13.5078C1.92359 13.5078 2.46265 12.9687 2.46265 12.289C2.46265 11.621 1.92359 11.082 1.2439 11.082C0.564209 11.082 0.0251465 11.621 0.0251465 12.289C0.0251465 12.9687 0.564209 13.5078 1.2439 13.5078ZM4.00953 5.28125C4.68921 5.28125 5.22827 4.74218 5.22827 4.0625C5.22827 3.39453 4.68921 2.85546 4.00953 2.85546C3.34156 2.85546 2.79077 3.39453 2.79077 4.0625C2.79077 4.74218 3.34156 5.28125 4.00953 5.28125ZM12.2478 2.52734C12.9157 2.52734 13.4548 1.98828 13.4548 1.30859C13.4548 0.628906 12.9157 0.0898438 12.2478 0.0898438C11.5681 0.0898438 11.029 0.628906 11.029 1.30859C11.029 1.98828 11.5681 2.52734 12.2478 2.52734ZM20.4743 5.28125C21.154 5.28125 21.6931 4.74218 21.6931 4.0625C21.6931 3.39453 21.154 2.85546 20.4743 2.85546C19.7946 2.85546 19.2556 3.39453 19.2556 4.0625C19.2556 4.74218 19.7946 5.28125 20.4743 5.28125ZM23.2517 13.5078C23.9196 13.5078 24.4587 12.9687 24.4587 12.289C24.4587 11.621 23.9196 11.082 23.2517 11.082C22.572 11.082 22.0329 11.621 22.0329 12.289C22.0329 12.9687 22.572 13.5078 23.2517 13.5078Z" fill="black" fill-opacity="0.85"/>
<path d="M12.2478 4.88281C8.09936 4.88281 4.84155 7.89453 4.84155 11.7265C4.84155 15.9687 7.38452 17.0234 8.08764 24.3476C8.13452 24.7578 8.34545 25.0156 8.79076 25.0156H15.7048C16.1384 25.0156 16.361 24.7578 16.3962 24.3476C17.0993 17.0234 19.654 15.9687 19.654 11.7265C19.654 7.89453 16.3845 4.88281 12.2478 4.88281ZM12.2478 6.60546C15.3181 6.60546 17.9313 8.75 17.9313 11.7265C17.9313 14.8671 15.8454 15.5937 14.8376 23.2929H9.65795C8.63842 15.5937 6.5642 14.8671 6.5642 11.7265C6.5642 8.75 9.16576 6.60546 12.2478 6.60546ZM8.75561 27.4062H15.7399C16.1267 27.4062 16.4196 27.125 16.4196 26.7382C16.4196 26.3515 16.1267 26.0703 15.7399 26.0703H8.75561C8.36889 26.0703 8.08764 26.3515 8.08764 26.7382C8.08764 27.125 8.36889 27.4062 8.75561 27.4062ZM12.2478 30.6171C13.9704 30.6171 15.4353 29.75 15.5173 28.4609H8.97826C9.04858 29.75 10.5134 30.6171 12.2478 30.6171Z" fill="black" fill-opacity="0.85"/>
</g>
<defs>
<clipPath id="clip0_2207_10898">
<rect width="24.4336" height="37.582" fill="white" transform="translate(0.0251465 0.0898438)"/>
</clipPath>
</defs>
</svg>
