<svg width="29" height="23" viewBox="0 0 29 23" fill="none" xmlns="http://www.w3.org/2000/svg">
<g clip-path="url(#clip0_2207_11115)">
<path d="M3.75733 22.002H25.2026C27.6635 22.002 28.8823 20.7832 28.8823 18.3691V3.7207C28.8823 1.30664 27.6635 0.0878906 25.2026 0.0878906H3.75733C1.30811 0.0878906 0.0776367 1.29492 0.0776367 3.7207V18.3691C0.0776367 20.7949 1.30811 22.002 3.75733 22.002ZM3.78076 20.1152C2.60889 20.1152 1.96436 19.4824 1.96436 18.2754V3.81445C1.96436 2.5957 2.60889 1.97461 3.78076 1.97461H25.1792C26.3393 1.97461 26.9956 2.5957 26.9956 3.81445V18.2754C26.9956 19.4824 26.3393 20.1152 25.1792 20.1152H3.78076Z" fill="black" fill-opacity="0.85"/>
<path d="M4.58935 18.5098H24.3706C25.0268 18.5098 25.4018 18.1231 25.4018 17.4668V4.62305C25.4018 3.95508 25.0268 3.56836 24.3706 3.56836H4.58935C3.9331 3.56836 3.56982 3.95508 3.56982 4.62305V17.4668C3.56982 18.1231 3.9331 18.5098 4.58935 18.5098Z" fill="black" fill-opacity="0.85"/>
</g>
<defs>
<clipPath id="clip0_2207_11115">
<rect width="28.8047" height="21.9258" fill="white" transform="translate(0.0776367 0.0878906)"/>
</clipPath>
</defs>
</svg>
