<svg width="22" height="31" viewBox="0 0 22 31" fill="none" xmlns="http://www.w3.org/2000/svg">
<g clip-path="url(#clip0_2207_15383)">
<path d="M4.25659 27.4179H16.9362C19.4792 27.4179 21.1667 25.6484 21.1667 22.9882V17.0703C21.1667 14.1992 20.8503 11.1523 20.323 8.97265C19.7136 6.3125 17.9089 4.57812 15.448 4.32031C14.8386 4.26172 12.8112 4.09765 10.5964 4.09765C8.11206 4.09765 6.36596 4.26172 5.75659 4.32031C3.29565 4.57812 1.49096 6.3125 0.881592 8.97265C0.354248 11.164 0.0378418 14.082 0.0378418 16.9296V22.9882C0.0378418 25.6484 1.72534 27.4179 4.25659 27.4179ZM4.54956 25.8828C2.58081 25.8828 1.573 24.7343 1.573 22.9882V16.9296C1.573 14.1875 1.86596 11.4101 2.36987 9.32422C2.85034 7.28515 4.12768 6.04296 5.90893 5.85546C6.48315 5.79687 8.15893 5.63281 10.5964 5.63281C12.7526 5.63281 14.7214 5.79687 15.2956 5.85546C17.0769 6.04296 18.3542 7.28515 18.8347 9.32422C19.3386 11.4101 19.6316 14.3046 19.6316 17.0703V22.9882C19.6316 24.7343 18.6237 25.8828 16.6433 25.8828H4.54956ZM10.5964 19.2734C13.5495 19.2617 15.7995 19.1328 17.0651 18.9804C17.7683 18.8984 18.0495 18.4414 18.0495 17.7851V16.1796C18.0495 13.8359 17.8034 12.1015 17.6276 11.3164C17.5105 10.8007 17.194 10.4257 16.655 10.3671C15.3659 10.2148 13.9362 10.121 10.5964 10.1093C7.26831 10.121 5.83862 10.2148 4.54956 10.3671C4.0105 10.4257 3.69409 10.8007 3.5769 11.3164C3.40112 12.1015 3.15503 13.8359 3.15503 16.1796V17.7851C3.15503 18.4414 3.42456 18.8984 4.1394 18.9804C5.40503 19.1328 7.65503 19.2617 10.5964 19.2734ZM5.2644 24.1132C6.17846 24.1132 6.86987 23.4336 6.86987 22.496C6.86987 21.5703 6.2019 20.8906 5.2644 20.8906C4.33862 20.8906 3.65893 21.5703 3.65893 22.496C3.65893 23.4336 4.33862 24.1132 5.2644 24.1132ZM15.9167 24.125C16.819 24.125 17.5339 23.4218 17.5339 22.496C17.5339 21.582 16.8308 20.8789 15.9167 20.8789C14.9909 20.8789 14.2878 21.582 14.2878 22.496C14.2878 23.4218 14.9909 24.125 15.9167 24.125ZM7.64331 8.71484H13.5612C13.9948 8.71484 14.2761 8.43359 14.2761 8C14.2761 7.5664 13.9948 7.29687 13.5612 7.29687H7.64331C7.20972 7.29687 6.92846 7.5664 6.92846 8C6.92846 8.43359 7.20972 8.71484 7.64331 8.71484ZM0.928467 2.43359C0.928467 2.91406 1.29175 3.20703 1.72534 3.20703C1.95972 3.20703 2.19409 3.08984 2.40503 2.84375C3.04956 2.01172 3.77612 1.70703 5.11206 1.70703H16.0925C17.4284 1.70703 18.1433 2.01172 18.7995 2.84375C18.9987 3.08984 19.2448 3.20703 19.4792 3.20703C19.9128 3.20703 20.2761 2.91406 20.2761 2.43359C20.2761 2.08203 20.0183 1.71875 19.6901 1.40234C18.6823 0.429688 17.5339 0.101562 16.0925 0.101562H5.11206C3.67065 0.101562 2.5105 0.429688 1.5144 1.40234C1.17456 1.71875 0.928467 2.08203 0.928467 2.43359ZM9.19018 4.44922L6.83472 1.5664H4.65503L7.02222 4.44922H9.19018ZM12.0144 4.44922H14.1823L16.5495 1.5664H14.3698L12.0144 4.44922ZM4.60815 26.8789L2.68628 29.9609C2.38159 30.4414 2.66284 30.9687 3.21362 30.9687H3.86987C4.198 30.9687 4.37378 30.8632 4.54956 30.582L6.84643 26.8789H4.60815ZM14.3698 26.8789L16.6667 30.582C16.8425 30.8632 17.0183 30.9687 17.3464 30.9687H18.0026C18.5534 30.9687 18.7995 30.4296 18.4948 29.9609L16.5964 26.8789H14.3698Z" fill="black" fill-opacity="0.85"/>
</g>
<defs>
<clipPath id="clip0_2207_15383">
<rect width="21.1289" height="30.8789" fill="white" transform="translate(0.0378418 0.0898438)"/>
</clipPath>
</defs>
</svg>
