<svg width="24" height="25" viewBox="0 0 24 25" fill="none" xmlns="http://www.w3.org/2000/svg">
<g clip-path="url(#clip0_2207_22395)">
<path d="M12.0141 23.996C18.5532 23.996 23.9672 18.5703 23.9672 12.0429C23.9672 5.5039 18.5415 0.0898438 12.0024 0.0898438C5.47509 0.0898438 0.0610352 5.5039 0.0610352 12.0429C0.0610352 18.5703 5.48682 23.996 12.0141 23.996ZM12.0141 22.0039C6.48292 22.0039 2.06495 17.5742 2.06495 12.0429C2.06495 6.51172 6.47119 2.08203 12.0024 2.08203C17.5337 2.08203 21.9751 6.51172 21.9751 12.0429C21.9751 17.5742 17.5454 22.0039 12.0141 22.0039Z" fill="black" fill-opacity="0.85"/>
<path d="M5.63916 11.3867H18.4126C18.9282 11.3867 19.3032 11.0468 19.3032 10.5546C19.3032 10.0625 18.9282 9.73438 18.4126 9.73438H5.63916C5.11182 9.73438 4.74854 10.0625 4.74854 10.5546C4.74854 11.0468 5.11182 11.3867 5.63916 11.3867ZM7.37354 15.2656H16.6782C17.1938 15.2656 17.5571 14.9257 17.5571 14.4336C17.5571 13.9414 17.1938 13.6132 16.6782 13.6132H7.37354C6.8462 13.6132 6.48291 13.9414 6.48291 14.4336C6.48291 14.9257 6.8462 15.2656 7.37354 15.2656Z" fill="black" fill-opacity="0.85"/>
</g>
<defs>
<clipPath id="clip0_2207_22395">
<rect width="23.9062" height="23.918" fill="white" transform="translate(0.0610352 0.0898438)"/>
</clipPath>
</defs>
</svg>
