<svg width="24" height="25" viewBox="0 0 24 25" fill="none" xmlns="http://www.w3.org/2000/svg">
<g clip-path="url(#clip0_2207_22400)">
<path d="M12.0161 23.996C18.5552 23.996 23.9692 18.5703 23.9692 12.0429C23.9692 5.5039 18.5435 0.0898438 12.0044 0.0898438C5.47705 0.0898438 0.0629883 5.5039 0.0629883 12.0429C0.0629883 18.5703 5.48877 23.996 12.0161 23.996Z" fill="black" fill-opacity="0.85"/>
<path d="M5.45361 11.3515C4.91455 11.3515 4.52783 11 4.52783 10.496C4.52783 9.98047 4.91455 9.64062 5.45361 9.64062H18.6255C19.1528 9.64062 19.5513 9.98047 19.5513 10.496C19.5513 11 19.1528 11.3515 18.6255 11.3515H5.45361ZM7.24658 15.3593C6.6958 15.3593 6.3208 15.0078 6.3208 14.4921C6.3208 13.9882 6.6958 13.6484 7.24658 13.6484H16.8325C17.3716 13.6484 17.7466 13.9882 17.7466 14.4921C17.7466 15.0078 17.3716 15.3593 16.8325 15.3593H7.24658Z" fill="white"/>
</g>
<defs>
<clipPath id="clip0_2207_22400">
<rect width="23.9062" height="23.918" fill="white" transform="translate(0.0629883 0.0898438)"/>
</clipPath>
</defs>
</svg>
