<svg width="30" height="23" viewBox="0 0 30 23" fill="none" xmlns="http://www.w3.org/2000/svg">
<g clip-path="url(#clip0_2207_8071)">
<path d="M0.090332 21.4296C0.090332 21.9453 0.512207 22.3789 1.02783 22.3789H28.5434C29.0591 22.3789 29.4809 21.9453 29.4809 21.4296C29.4809 20.914 29.0591 20.4921 28.5434 20.4921H1.02783C0.512207 20.4921 0.090332 20.914 0.090332 21.4296ZM0.090332 1.03906C0.090332 1.55468 0.512207 1.97656 1.02783 1.97656H28.5434C29.0591 1.97656 29.4809 1.55468 29.4809 1.03906C29.4809 0.523438 29.0591 0.0898438 28.5434 0.0898438H1.02783C0.512207 0.0898438 0.090332 0.523438 0.090332 1.03906Z" fill="black" fill-opacity="0.85"/>
<path d="M11.7623 16.6015L14.7974 14.3867L17.8209 16.6015C18.4068 17.0351 19.0982 16.6367 18.8404 15.8632L17.6568 12.3125L20.7506 10.0742C21.3834 9.6289 21.1021 8.89062 20.3873 8.89062H16.5552L15.4302 5.36328C15.2076 4.67187 14.3873 4.67187 14.1763 5.36328L13.0279 8.89062H9.18413C8.46929 8.89062 8.18804 9.6289 8.82085 10.0742L11.9381 12.3125L10.7427 15.8632C10.4849 16.6367 11.1763 17.0351 11.7623 16.6015Z" fill="black" fill-opacity="0.85"/>
</g>
<defs>
<clipPath id="clip0_2207_8071">
<rect width="29.3906" height="22.3008" fill="white" transform="translate(0.090332 0.0898438)"/>
</clipPath>
</defs>
</svg>
