<svg width="24" height="25" viewBox="0 0 24 25" fill="none" xmlns="http://www.w3.org/2000/svg">
<g clip-path="url(#clip0_2207_22380)">
<path d="M12.0371 23.996C18.5762 23.996 23.9902 18.5703 23.9902 12.0429C23.9902 5.5039 18.5645 0.0898438 12.0254 0.0898438C5.49804 0.0898438 0.0839844 5.5039 0.0839844 12.0429C0.0839844 18.5703 5.50976 23.996 12.0371 23.996Z" fill="black" fill-opacity="0.85"/>
<path d="M5.47461 9.64063C4.93555 9.64063 4.54883 9.30079 4.54883 8.78516C4.54883 8.26954 4.93555 7.92969 5.47461 7.92969H18.6465C19.1738 7.92969 19.5723 8.26954 19.5723 8.78516C19.5723 9.30079 19.1738 9.64063 18.6465 9.64063H5.47461ZM7.26758 13.6484C6.7168 13.6484 6.3418 13.3086 6.3418 12.7812C6.3418 12.2656 6.7168 11.9257 7.26758 11.9257H16.8535C17.3926 11.9257 17.7676 12.2656 17.7676 12.7812C17.7676 13.3086 17.3926 13.6484 16.8535 13.6484H7.26758ZM9.13087 17.6562C8.5918 17.6562 8.2168 17.3046 8.2168 16.789C8.2168 16.2851 8.5918 15.9453 9.13087 15.9453H14.9785C15.5176 15.9453 15.9043 16.2851 15.9043 16.789C15.9043 17.3046 15.5176 17.6562 14.9785 17.6562H9.13087Z" fill="white"/>
</g>
<defs>
<clipPath id="clip0_2207_22380">
<rect width="23.9062" height="23.918" fill="white" transform="translate(0.0839844 0.0898438)"/>
</clipPath>
</defs>
</svg>
