<svg width="25" height="26" viewBox="0 0 25 26" fill="none" xmlns="http://www.w3.org/2000/svg">
<g clip-path="url(#clip0_2207_1766)">
<path d="M12.6714 7.71435L11.1128 9.29639C12.6596 9.42529 13.6674 9.88232 14.4292 10.644C16.4799 12.6948 16.4682 15.601 14.4409 17.6284L10.6089 21.4487C8.56982 23.4878 5.68701 23.4995 3.63623 21.4604C1.58545 19.3979 1.59717 16.5151 3.63623 14.476L5.9331 12.1792C5.60498 11.4409 5.52295 10.562 5.65185 9.80029L2.20654 13.2338C-0.594236 16.0463 -0.617673 20.0307 2.21826 22.8667C5.06592 25.7143 9.05029 25.6909 11.851 22.8901L15.8589 18.8706C18.6714 16.0581 18.6948 12.0737 15.8471 9.23779C15.1089 8.49951 14.1714 7.97217 12.6714 7.71435ZM12.3784 17.3706L13.937 15.7885C12.3901 15.6713 11.3823 15.2026 10.6206 14.4409C8.56982 12.3901 8.58154 9.48389 10.6089 7.45654L14.4292 3.63623C16.4799 1.59717 19.3628 1.58545 21.4135 3.63623C23.4643 5.68701 23.4409 8.58154 21.4135 10.6088L19.1167 12.9057C19.4448 13.6557 19.5151 14.5229 19.3979 15.2846L22.8432 11.851C25.644 9.03857 25.6674 5.06592 22.8315 2.21826C19.9839 -0.629392 15.9995 -0.605955 13.187 2.20654L9.19092 6.21435C6.37842 9.02685 6.35498 13.0112 9.20264 15.8471C9.94092 16.5854 10.8784 17.1128 12.3784 17.3706Z" fill="black" fill-opacity="0.85"/>
</g>
<defs>
<clipPath id="clip0_2207_1766">
<rect width="24.8525" height="25.1045" fill="white" transform="translate(0.0986328 0.0898438)"/>
</clipPath>
</defs>
</svg>
