<svg width="30" height="23" viewBox="0 0 30 23" fill="none" xmlns="http://www.w3.org/2000/svg">
<g clip-path="url(#clip0_2207_8734)">
<path d="M23.1645 20.458C26.7036 20.458 29.4692 17.8681 29.4692 14.6455C29.4692 12.1846 28.0513 10.0518 25.7661 9.09082C25.7895 3.86426 22.0278 0.0908203 17.2349 0.0908203C14.0591 0.0908203 11.7974 1.79004 10.3911 3.84082C7.5083 2.99707 4.36768 5.18848 4.30908 8.46973C1.66064 8.8916 0.00830078 11.2588 0.00830078 14.1181C0.00830078 17.5635 3.02002 20.458 7.02783 20.458H23.1645Z" fill="black" fill-opacity="0.85"/>
<path d="M10.0395 15.5713C8.76222 14.2939 8.76222 12.4658 10.0395 11.1885L12.0435 9.1963C11.7974 9.84083 11.7739 10.4385 11.9263 10.9892L10.9302 11.9853C10.1333 12.7822 10.1216 13.8955 10.9302 14.6924C11.7271 15.4775 12.8403 15.4892 13.6372 14.6924L15.9106 12.4189C16.7192 11.5986 16.731 10.4736 15.9106 9.71192C15.4888 9.31349 15.0317 9.12599 14.5395 9.1963C14.7036 8.97364 14.8677 8.79786 14.9731 8.68067L15.5825 8.08302C15.9341 8.17677 16.3911 8.42286 16.8013 8.8213C18.1138 10.0869 18.0903 11.9385 16.8013 13.2158L14.4341 15.5713C13.145 16.8486 11.3286 16.8486 10.0395 15.5713ZM20.0474 5.58692C21.313 6.85255 21.3247 8.68067 20.0474 9.95802L18.0435 11.9619C18.2895 11.3174 18.313 10.7197 18.1606 10.1572L19.1567 9.17286C19.9536 8.38771 19.9653 7.26271 19.1567 6.46583C18.3599 5.68067 17.2583 5.66895 16.4497 6.47755L14.188 8.73927C13.3794 9.54786 13.356 10.6846 14.1763 11.4463C14.5747 11.8213 15.02 12.0088 15.4653 12.0088C15.3599 12.1846 15.3247 12.2431 15.1255 12.4775L14.5161 13.0752C14.188 12.9814 13.7192 12.7353 13.2974 12.3369C11.9966 11.0713 12.0083 9.21974 13.2856 7.94239L15.6528 5.57521C16.9419 4.29786 18.7583 4.29786 20.0474 5.58692Z" fill="white"/>
</g>
<defs>
<clipPath id="clip0_2207_8734">
<rect width="29.4609" height="22.2773" fill="white" transform="translate(0.00830078 0.0908203)"/>
</clipPath>
</defs>
</svg>
