<svg width="24" height="25" viewBox="0 0 24 25" fill="none" xmlns="http://www.w3.org/2000/svg">
<g clip-path="url(#clip0_2207_25739)">
<path d="M11.9677 23.997C18.5068 23.997 23.9208 18.5713 23.9208 12.0439C23.9208 5.50488 18.4951 0.0908203 11.956 0.0908203C5.42871 0.0908203 0.0146484 5.50488 0.0146484 12.0439C0.0146484 18.5713 5.44043 23.997 11.9677 23.997Z" fill="black" fill-opacity="0.85"/>
<path d="M7.56153 17.0244C7.56153 16.626 7.74903 16.3799 8.19434 16.2392C9.01465 16.0049 9.71777 15.29 9.83496 14.2236C9.84668 14.083 9.8584 13.9541 9.84668 13.8252H8.26465C7.87793 13.8252 7.58496 13.5556 7.58496 13.1689C7.58496 12.7822 7.87793 12.5244 8.26465 12.5244H9.65918C9.57715 12.1728 9.45996 11.833 9.38965 11.4814H8.26465C7.87793 11.4814 7.58496 11.2119 7.58496 10.8252C7.58496 10.4385 7.87793 10.1806 8.26465 10.1806H9.19043C9.17871 10.0869 9.16699 10.0166 9.16699 9.92285C9.16699 7.6377 10.6904 6.19629 13.1865 6.19629C13.9248 6.19629 14.6162 6.27832 15.1904 6.5127C15.6123 6.67676 15.7646 6.93457 15.7646 7.25098C15.7646 7.64941 15.5302 7.90723 15.0732 7.88379C14.6982 7.83691 14.1708 7.62598 13.2802 7.62598C11.6865 7.62598 10.749 8.5166 10.749 9.81738C10.749 9.94629 10.7607 10.0635 10.7724 10.1806H14.2763C14.6748 10.1806 14.956 10.4385 14.956 10.8252C14.956 11.2119 14.6748 11.4814 14.2763 11.4814H10.9951C11.0771 11.8213 11.1708 12.1611 11.2646 12.5244H14.2763C14.6748 12.5244 14.956 12.7822 14.956 13.1689C14.956 13.5556 14.6748 13.8252 14.2763 13.8252H11.3935C11.3935 14.0127 11.3818 14.1885 11.3584 14.3642C11.2412 15.1611 10.8896 15.8994 10.3623 16.3213H15.5888C16.0224 16.3213 16.3271 16.6025 16.3271 17.0244C16.3271 17.458 16.0224 17.7392 15.5888 17.7392H8.27637C7.84277 17.7392 7.56153 17.458 7.56153 17.0244Z" fill="white"/>
</g>
<defs>
<clipPath id="clip0_2207_25739">
<rect width="23.9062" height="23.918" fill="white" transform="translate(0.0146484 0.0908203)"/>
</clipPath>
</defs>
</svg>
