<svg width="24" height="25" viewBox="0 0 24 25" fill="none" xmlns="http://www.w3.org/2000/svg">
<g clip-path="url(#clip0_2207_25734)">
<path d="M11.9658 23.997C18.5049 23.997 23.9189 18.5713 23.9189 12.0439C23.9189 5.50488 18.4932 0.0908203 11.9541 0.0908203C5.42675 0.0908203 0.0126953 5.50488 0.0126953 12.0439C0.0126953 18.5713 5.43848 23.997 11.9658 23.997ZM11.9658 22.0049C6.43458 22.0049 2.01661 17.5752 2.01661 12.0439C2.01661 6.5127 6.42285 2.08301 11.9541 2.08301C17.4854 2.08301 21.9268 6.5127 21.9268 12.0439C21.9268 17.5752 17.4971 22.0049 11.9658 22.0049Z" fill="black" fill-opacity="0.85"/>
<path d="M7.68848 16.872C7.68848 17.2822 7.95801 17.5635 8.37989 17.5635H15.458C15.8799 17.5635 16.1729 17.2822 16.1729 16.872C16.1729 16.4619 15.8799 16.1924 15.458 16.1924H10.3955C10.8994 15.7822 11.251 15.0674 11.3565 14.3056C11.3799 14.1181 11.3916 13.9424 11.3916 13.7666H14.1924C14.5791 13.7666 14.8486 13.5088 14.8486 13.1338C14.8486 12.7588 14.5791 12.5127 14.1924 12.5127H11.2627C11.1807 12.1611 11.0869 11.8213 11.0049 11.4931H14.1924C14.5791 11.4931 14.8486 11.2353 14.8486 10.8603C14.8486 10.4853 14.5791 10.2392 14.1924 10.2392H10.7939C10.7822 10.122 10.7705 10.0049 10.7705 9.8877C10.7705 8.62207 11.6729 7.75488 13.2197 7.75488C14.0869 7.75488 14.6025 7.96582 14.9658 8.0127C15.3994 8.03613 15.6338 7.77832 15.6338 7.3916C15.6338 7.08691 15.4815 6.84082 15.0713 6.67676C14.5205 6.4541 13.8525 6.37207 13.1377 6.37207C10.7119 6.37207 9.23536 7.77832 9.23536 9.98144C9.23536 10.0752 9.24708 10.1455 9.25879 10.2392H8.36817C7.99317 10.2392 7.71192 10.4853 7.71192 10.8603C7.71192 11.2353 7.99317 11.4931 8.36817 11.4931H9.45801C9.52832 11.833 9.63379 12.1728 9.71582 12.5127H8.36817C7.99317 12.5127 7.71192 12.7588 7.71192 13.1338C7.71192 13.5088 7.99317 13.7666 8.36817 13.7666H9.90332C9.91504 13.8955 9.90332 14.0127 9.89161 14.1533C9.77442 15.1846 9.09473 15.8877 8.29786 16.1103C7.86426 16.251 7.68848 16.4853 7.68848 16.872Z" fill="black" fill-opacity="0.85"/>
</g>
<defs>
<clipPath id="clip0_2207_25734">
<rect width="23.9062" height="23.918" fill="white" transform="translate(0.0126953 0.0908203)"/>
</clipPath>
</defs>
</svg>
