<svg width="17" height="22" viewBox="0 0 17 22" fill="none" xmlns="http://www.w3.org/2000/svg">
<g clip-path="url(#clip0_2207_25730)">
<path d="M1.01831 21.3603H14.9988C15.5847 21.3603 16.0183 20.9736 16.0183 20.3877C16.0183 19.79 15.5847 19.4267 14.9988 19.4267H3.72534V19.3681C5.40112 18.8056 6.61988 16.7549 6.61988 14.2119C6.61988 11.2939 5.37769 9.61816 5.37769 6.65332C5.37769 3.93457 7.26441 2.08301 10.5339 2.08301C12.5261 2.08301 13.4285 2.62207 14.073 2.62207C14.6707 2.62207 14.9519 2.27051 14.9519 1.75488C14.9519 1.2627 14.6589 0.922851 14.0027 0.65332C12.9714 0.243164 11.7644 0.0908203 10.3582 0.0908203C5.85816 0.0908203 3.08081 2.71582 3.08081 6.81738C3.08081 9.4541 4.41675 12.1142 4.41675 14.3056C4.41675 16.9541 2.81128 18.6885 0.936279 19.2158C0.291748 19.415 0.010498 19.7549 0.010498 20.3525C0.010498 20.9385 0.432373 21.3603 1.01831 21.3603ZM0.186279 8.56348C0.186279 9.04394 0.572998 9.41894 1.04175 9.41894H12.4675C12.9363 9.41894 13.323 9.04394 13.323 8.56348C13.323 8.08301 12.9363 7.70801 12.4675 7.70801H1.04175C0.572998 7.70801 0.186279 8.08301 0.186279 8.56348ZM0.186279 13.0283C0.186279 13.5088 0.572998 13.8838 1.04175 13.8838H12.4675C12.9363 13.8838 13.323 13.5088 13.323 13.0283C13.323 12.5478 12.9363 12.1728 12.4675 12.1728H1.04175C0.572998 12.1728 0.186279 12.5478 0.186279 13.0283Z" fill="black" fill-opacity="0.85"/>
</g>
<defs>
<clipPath id="clip0_2207_25730">
<rect width="16.0078" height="21.3164" fill="white" transform="translate(0.010498 0.0908203)"/>
</clipPath>
</defs>
</svg>
