<svg width="28" height="22" viewBox="0 0 28 22" fill="none" xmlns="http://www.w3.org/2000/svg">
<g clip-path="url(#clip0_2207_1097)">
<path d="M3.73218 21.665H24.0056C26.4666 21.665 27.6853 20.458 27.6853 18.0439V3.72363C27.6853 1.30957 26.4666 0.0908203 24.0056 0.0908203H3.73218C1.28296 0.0908203 0.0524902 1.30957 0.0524902 3.72363V18.0439C0.0524902 20.458 1.28296 21.665 3.73218 21.665ZM3.75561 19.7783C2.58374 19.7783 1.93921 19.1572 1.93921 17.9385V3.8291C1.93921 2.61035 2.58374 1.97754 3.75561 1.97754H23.9822C25.1423 1.97754 25.7986 2.61035 25.7986 3.8291V17.9385C25.7986 19.1572 25.1423 19.7783 23.9822 19.7783H3.75561Z" fill="black" fill-opacity="0.85"/>
<path d="M5.91187 6.77051H7.32983C7.82202 6.77051 8.23218 6.36035 8.23218 5.86816C8.23218 5.37598 7.8103 4.96582 7.32983 4.96582H5.91187C5.40796 4.96582 5.02124 5.37598 5.02124 5.86816C5.02124 6.36035 5.41968 6.77051 5.91187 6.77051ZM5.91187 10.6728H7.32983C7.8103 10.6728 8.23218 10.2744 8.23218 9.78223C8.23218 9.29004 7.82202 8.8916 7.32983 8.8916H5.91187C5.40796 8.8916 5.02124 9.29004 5.02124 9.78223C5.02124 10.2744 5.40796 10.6728 5.91187 10.6728ZM10.6111 6.60644H21.9783C22.3884 6.60644 22.7048 6.27832 22.7048 5.86816C22.7048 5.45801 22.3884 5.1416 21.9783 5.1416H10.6111C10.2009 5.1416 9.88452 5.45801 9.88452 5.86816C9.88452 6.27832 10.2009 6.60644 10.6111 6.60644ZM10.6111 10.5205H21.9783C22.3884 10.5205 22.7048 10.2041 22.7048 9.78223C22.7048 9.37207 22.3884 9.04394 21.9783 9.04394H10.6111C10.2127 9.04394 9.88452 9.36035 9.88452 9.78223C9.88452 10.1924 10.2009 10.5205 10.6111 10.5205Z" fill="black" fill-opacity="0.85"/>
</g>
<defs>
<clipPath id="clip0_2207_1097">
<rect width="27.6328" height="21.5742" fill="white" transform="translate(0.0524902 0.0908203)"/>
</clipPath>
</defs>
</svg>
