<svg width="30" height="18" viewBox="0 0 30 18" fill="none" xmlns="http://www.w3.org/2000/svg">
<g clip-path="url(#clip0_2207_22196)">
<path d="M12.5396 16.6963H28.5591C29.0865 16.6963 29.4966 16.2861 29.4966 15.7588C29.4966 15.2197 29.0865 14.8096 28.5591 14.8096H12.5396C12.0123 14.8096 11.6021 15.2197 11.6021 15.7588C11.6021 16.2861 12.0123 16.6963 12.5396 16.6963Z" fill="black" fill-opacity="0.85"/>
<path d="M7.35986 17.2353C8.18017 17.2353 8.83642 16.5674 8.83642 15.7588C8.83642 14.9385 8.18017 14.2822 7.35986 14.2822C6.55126 14.2822 5.8833 14.9385 5.8833 15.7588C5.8833 16.5674 6.55126 17.2353 7.35986 17.2353Z" fill="black" fill-opacity="0.85"/>
<path d="M9.60986 9.61817H25.6294C26.1567 9.61817 26.5668 9.1963 26.5668 8.66895C26.5668 8.14161 26.1567 7.73145 25.6294 7.73145H9.60986C9.08252 7.73145 8.67236 8.14161 8.67236 8.66895C8.67236 9.1963 9.08252 9.61817 9.60986 9.61817Z" fill="black" fill-opacity="0.85"/>
<path d="M4.44189 10.1455C5.25048 10.1455 5.91845 9.48926 5.91845 8.66894C5.91845 7.84863 5.25048 7.19238 4.44189 7.19238C3.62158 7.19238 2.96533 7.84863 2.96533 8.66894C2.96533 9.48926 3.62158 10.1455 4.44189 10.1455Z" fill="black" fill-opacity="0.85"/>
<path d="M6.6919 2.52832H22.6997C23.227 2.52832 23.6489 2.11816 23.6489 1.59082C23.6489 1.05176 23.227 0.641602 22.6997 0.641602H6.6919C6.15284 0.641602 5.74268 1.05176 5.74268 1.59082C5.74268 2.11816 6.15284 2.52832 6.6919 2.52832Z" fill="black" fill-opacity="0.85"/>
<path d="M1.5122 3.05566C2.33252 3.05566 2.98876 2.39941 2.98876 1.59082C2.98876 0.770508 2.33252 0.114258 1.5122 0.114258C0.691895 0.114258 0.0356445 0.770508 0.0356445 1.59082C0.0356445 2.39941 0.691895 3.05566 1.5122 3.05566Z" fill="black" fill-opacity="0.85"/>
</g>
<defs>
<clipPath id="clip0_2207_22196">
<rect width="29.4609" height="17.1445" fill="white" transform="translate(0.0356445 0.0908203)"/>
</clipPath>
</defs>
</svg>
