<svg width="24" height="18" viewBox="0 0 24 18" fill="none" xmlns="http://www.w3.org/2000/svg">
<g clip-path="url(#clip0_2207_22159)">
<path d="M6.67944 16.6963H22.6873C23.2146 16.6963 23.6365 16.2861 23.6365 15.7588C23.6365 15.2197 23.2146 14.8096 22.6873 14.8096H6.67944C6.14038 14.8096 5.73022 15.2197 5.73022 15.7588C5.73022 16.2861 6.14038 16.6963 6.67944 16.6963Z" fill="black" fill-opacity="0.85"/>
<path d="M1.49975 17.2353C2.32007 17.2353 2.97631 16.5674 2.97631 15.7588C2.97631 14.9385 2.32007 14.2822 1.49975 14.2822C0.679443 14.2822 0.0231934 14.9385 0.0231934 15.7588C0.0231934 16.5674 0.679443 17.2353 1.49975 17.2353Z" fill="black" fill-opacity="0.85"/>
<path d="M6.67944 9.61817H22.6873C23.2146 9.61817 23.6365 9.1963 23.6365 8.66895C23.6365 8.14161 23.2146 7.73145 22.6873 7.73145H6.67944C6.14038 7.73145 5.73022 8.14161 5.73022 8.66895C5.73022 9.1963 6.14038 9.61817 6.67944 9.61817Z" fill="black" fill-opacity="0.85"/>
<path d="M1.49975 10.1455C2.32007 10.1455 2.97631 9.48926 2.97631 8.66894C2.97631 7.84863 2.32007 7.19238 1.49975 7.19238C0.679443 7.19238 0.0231934 7.84863 0.0231934 8.66894C0.0231934 9.48926 0.679443 10.1455 1.49975 10.1455Z" fill="black" fill-opacity="0.85"/>
<path d="M6.67944 2.52832H22.6873C23.2146 2.52832 23.6365 2.11816 23.6365 1.59082C23.6365 1.05176 23.2146 0.641602 22.6873 0.641602H6.67944C6.14038 0.641602 5.73022 1.05176 5.73022 1.59082C5.73022 2.11816 6.14038 2.52832 6.67944 2.52832Z" fill="black" fill-opacity="0.85"/>
<path d="M1.49975 3.05566C2.32007 3.05566 2.97631 2.39941 2.97631 1.59082C2.97631 0.770508 2.32007 0.114258 1.49975 0.114258C0.679443 0.114258 0.0231934 0.770508 0.0231934 1.59082C0.0231934 2.39941 0.679443 3.05566 1.49975 3.05566Z" fill="black" fill-opacity="0.85"/>
</g>
<defs>
<clipPath id="clip0_2207_22159">
<rect width="23.6133" height="17.1445" fill="white" transform="translate(0.0231934 0.0908203)"/>
</clipPath>
</defs>
</svg>
