<svg width="24" height="21" viewBox="0 0 24 21" fill="none" xmlns="http://www.w3.org/2000/svg">
<g clip-path="url(#clip0_2207_22205)">
<path d="M7.26172 18.2197H22.7188C23.2461 18.2197 23.668 17.8096 23.668 17.2822C23.668 16.7431 23.2461 16.333 22.7188 16.333H7.26172C6.73438 16.333 6.3125 16.7431 6.3125 17.2822C6.3125 17.8096 6.73438 18.2197 7.26172 18.2197Z" fill="black" fill-opacity="0.85"/>
<path d="M2.10547 19.8369C3.5 19.8369 4.32031 19.2158 4.32031 18.2314C4.32031 17.5869 3.875 17.1416 3.06641 17.0713V17.0361C3.65235 16.9306 4.1211 16.5322 4.1211 15.8525C4.1211 14.9619 3.25391 14.4697 2.09375 14.4697C1.17969 14.4697 0.183593 14.9033 0.183593 15.6767C0.183593 16.0049 0.417969 16.2392 0.78125 16.2392C1.03906 16.2392 1.15625 16.1338 1.32031 15.958C1.58985 15.665 1.80078 15.5713 2.09375 15.5713C2.45703 15.5713 2.72657 15.747 2.72657 16.0986C2.72657 16.4267 2.44531 16.5908 1.96485 16.5908H1.83594C1.50781 16.5908 1.29688 16.7549 1.29688 17.0947C1.29688 17.4111 1.4961 17.5986 1.83594 17.5986H1.98828C2.51563 17.5986 2.79688 17.7744 2.79688 18.1377C2.79688 18.4541 2.50391 18.6885 2.10547 18.6885C1.69531 18.6885 1.40235 18.4541 1.17969 18.2314C1.03906 18.1025 0.921875 18.0088 0.699219 18.0088C0.324219 18.0088 0.0546875 18.2314 0.0546875 18.5947C0.0546875 19.4033 1.15625 19.8369 2.10547 19.8369Z" fill="black" fill-opacity="0.85"/>
<path d="M7.26172 11.1416H22.7188C23.2461 11.1416 23.668 10.7197 23.668 10.1924C23.668 9.66504 23.2461 9.25488 22.7188 9.25488H7.26172C6.73438 9.25488 6.3125 9.66504 6.3125 10.1924C6.3125 10.7197 6.73438 11.1416 7.26172 11.1416Z" fill="black" fill-opacity="0.85"/>
<path d="M0.722656 12.5361H3.73438C4.05078 12.5361 4.29688 12.3135 4.29688 11.9853C4.29688 11.6338 4.0625 11.4111 3.73438 11.4111H2.0586V11.376L3.01953 10.6025C3.81641 9.94629 4.13281 9.57129 4.13281 8.87988C4.13281 7.94238 3.34766 7.30957 2.08203 7.30957C0.957031 7.30957 0.148438 7.89551 0.148438 8.64551C0.148438 9.02051 0.394532 9.21973 0.792969 9.21973C1.0625 9.21973 1.23828 9.1377 1.40235 8.86816C1.56641 8.58691 1.77735 8.43457 2.10547 8.43457C2.44531 8.43457 2.69141 8.65723 2.69141 8.98535C2.69141 9.2666 2.55078 9.5127 1.94141 9.99316L0.406249 11.2588C0.171875 11.4463 0.078125 11.6572 0.078125 11.915C0.078125 12.2783 0.335938 12.5361 0.722656 12.5361Z" fill="black" fill-opacity="0.85"/>
<path d="M7.26172 4.05176H22.7188C23.2461 4.05176 23.668 3.6416 23.668 3.11426C23.668 2.5752 23.2461 2.16504 22.7188 2.16504H7.26172C6.73438 2.16504 6.3125 2.5752 6.3125 3.11426C6.3125 3.6416 6.73438 4.05176 7.26172 4.05176Z" fill="black" fill-opacity="0.85"/>
<path d="M2.60938 5.46973C3.05469 5.46973 3.3711 5.21191 3.3711 4.68457V0.899414C3.3711 0.407226 3.01953 0.0908203 2.50391 0.0908203C2.09375 0.0908203 1.83594 0.231445 1.54297 0.430664L0.710937 1.00488C0.476562 1.16894 0.347656 1.32129 0.347656 1.56738C0.347656 1.87207 0.582031 2.08301 0.851562 2.08301C1.00391 2.08301 1.07422 2.05957 1.27344 1.91894L1.8125 1.55566H1.83594V4.68457C1.83594 5.21191 2.14063 5.46973 2.60938 5.46973Z" fill="black" fill-opacity="0.85"/>
</g>
<defs>
<clipPath id="clip0_2207_22205">
<rect width="23.6133" height="20.1914" fill="white" transform="translate(0.0546875 0.0908203)"/>
</clipPath>
</defs>
</svg>
