<svg width="28" height="22" viewBox="0 0 28 22" fill="none" xmlns="http://www.w3.org/2000/svg">
<g clip-path="url(#clip0_2207_1092)">
<path d="M3.71961 21.665H23.993C26.454 21.665 27.6727 20.458 27.6727 18.0439V3.72363C27.6727 1.30957 26.454 0.0908203 23.993 0.0908203H3.71961C1.27039 0.0908203 0.039917 1.30957 0.039917 3.72363V18.0439C0.039917 20.458 1.27039 21.665 3.71961 21.665Z" fill="black" fill-opacity="0.85"/>
<path d="M5.3368 6.38379C4.73914 6.38379 4.22351 5.85644 4.22351 5.25879C4.22351 4.6377 4.73914 4.13379 5.3368 4.13379C5.96961 4.13379 6.47351 4.62598 6.47351 5.25879C6.47351 5.86816 5.96961 6.38379 5.3368 6.38379ZM5.3368 10.0752C4.73914 10.0752 4.22351 9.55957 4.22351 8.9502C4.22351 8.3291 4.73914 7.8252 5.3368 7.8252C5.96961 7.8252 6.47351 8.31738 6.47351 8.9502C6.47351 9.57129 5.96961 10.0752 5.3368 10.0752ZM5.3368 13.7549C4.72742 13.7549 4.22351 13.2627 4.22351 12.6299C4.22351 12.0322 4.72742 11.5166 5.3368 11.5166C5.96961 11.5166 6.47351 12.0205 6.47351 12.6299C6.47351 13.2627 5.96961 13.7549 5.3368 13.7549ZM5.3368 17.6338C4.73914 17.6338 4.22351 17.1181 4.22351 16.5088C4.22351 15.8994 4.73914 15.372 5.3368 15.372C5.96961 15.372 6.47351 15.8877 6.47351 16.5088C6.47351 17.1299 5.96961 17.6338 5.3368 17.6338ZM8.98133 5.99707C8.54773 5.99707 8.21961 5.66894 8.21961 5.25879C8.21961 4.8252 8.55945 4.48535 8.98133 4.48535H22.7977C23.2196 4.48535 23.5594 4.8252 23.5594 5.25879C23.5594 5.66894 23.2313 5.99707 22.7977 5.99707H8.98133ZM8.98133 9.7002C8.55945 9.7002 8.21961 9.36035 8.21961 8.9502C8.21961 8.54004 8.55945 8.18848 8.98133 8.18848H16.6337C17.0438 8.18848 17.3837 8.54004 17.3837 8.9502C17.3837 9.36035 17.0438 9.7002 16.6337 9.7002H8.98133ZM8.98133 13.4033C8.54773 13.4033 8.21961 13.0752 8.21961 12.6299C8.21961 12.2197 8.54773 11.8916 8.98133 11.8916H22.7977C23.2313 11.8916 23.5594 12.2197 23.5594 12.6299C23.5594 13.0752 23.2313 13.4033 22.7977 13.4033H8.98133ZM8.98133 17.2705C8.55945 17.2705 8.21961 16.9306 8.21961 16.5088C8.21961 16.0869 8.54773 15.7588 8.98133 15.7588H16.6337C17.0555 15.7588 17.3837 16.0869 17.3837 16.5088C17.3837 16.9306 17.0438 17.2705 16.6337 17.2705H8.98133Z" fill="white"/>
</g>
<defs>
<clipPath id="clip0_2207_1092">
<rect width="27.6328" height="21.5742" fill="white" transform="translate(0.039917 0.0908203)"/>
</clipPath>
</defs>
</svg>
