<svg width="20" height="33" viewBox="0 0 20 33" fill="none" xmlns="http://www.w3.org/2000/svg">
<g clip-path="url(#clip0_2207_979)">
<path d="M19.757 26.165V8.39941C19.757 5.93848 18.55 4.71973 16.1242 4.71973H3.67895C1.25317 4.71973 0.0461426 5.93848 0.0461426 8.39941V26.165C0.0461426 28.626 1.25317 29.8447 3.67895 29.8447H16.1242C18.55 29.8447 19.757 28.626 19.757 26.165ZM1.93286 26.1416V8.42285C1.93286 7.2627 2.55395 6.60644 3.7727 6.60644H16.0305C17.2492 6.60644 17.8703 7.2627 17.8703 8.42285V26.1416C17.8703 27.3135 17.2492 27.958 16.0305 27.958H3.7727C2.55395 27.958 1.93286 27.3135 1.93286 26.1416Z" fill="black" fill-opacity="0.85"/>
<path d="M6.28052 8.7627H13.5227C14.9523 8.7627 15.9836 7.71973 15.9836 6.24316V5.0127C15.9836 3.52441 14.9523 2.48144 13.5227 2.48144C13.2766 2.48144 13.0422 2.48144 12.7961 2.48144L13.7219 3.12598C13.4172 1.35644 11.7414 0.0908203 9.90161 0.0908203C8.06176 0.0908203 6.38598 1.35644 6.0813 3.12598L7.00708 2.48144C6.76098 2.48144 6.52661 2.48144 6.28052 2.48144C4.85083 2.48144 3.81958 3.52441 3.81958 5.0127V6.24316C3.81958 7.71973 4.85083 8.7627 6.28052 8.7627Z" fill="white"/>
<path d="M6.28052 7.40332H13.5227C14.2023 7.40332 14.6125 6.96973 14.6125 6.24316V5.0127C14.6125 4.28613 14.2023 3.85254 13.5227 3.85254H12.4445C12.3625 2.52832 11.2609 1.4502 9.90161 1.4502C8.54223 1.4502 7.44067 2.52832 7.35864 3.85254H6.28052C5.60083 3.85254 5.19067 4.28613 5.19067 5.0127V6.24316C5.19067 6.96973 5.60083 7.40332 6.28052 7.40332ZM9.90161 4.96582C9.33911 4.96582 8.88208 4.49707 8.88208 3.94629C8.88208 3.37207 9.33911 2.91504 9.90161 2.91504C10.4641 2.91504 10.9211 3.37207 10.9211 3.94629C10.9211 4.49707 10.4641 4.96582 9.90161 4.96582Z" fill="black" fill-opacity="0.85"/>
<path d="M4.73364 22.4853H9.93676C10.3352 22.4853 10.6633 22.1572 10.6633 21.7588C10.6633 21.3603 10.3469 21.0322 9.93676 21.0322H4.73364C4.32348 21.0322 3.99536 21.3603 3.99536 21.7588C3.99536 22.1572 4.3352 22.4853 4.73364 22.4853Z" fill="black" fill-opacity="0.85"/>
<path d="M4.73364 18.1025H15.0695C15.4797 18.1025 15.8078 17.7744 15.8078 17.3642C15.8078 16.9658 15.4797 16.6494 15.0695 16.6494H4.73364C4.32348 16.6494 3.99536 16.9658 3.99536 17.3642C3.99536 17.7744 4.32348 18.1025 4.73364 18.1025Z" fill="black" fill-opacity="0.85"/>
<path d="M4.73364 13.9424H15.0695C15.468 13.9424 15.8078 13.6142 15.8078 13.2158C15.8078 12.8174 15.468 12.4775 15.0695 12.4775H4.73364C4.3352 12.4775 3.99536 12.8174 3.99536 13.2158C3.99536 13.6142 4.3352 13.9424 4.73364 13.9424Z" fill="black" fill-opacity="0.85"/>
</g>
<defs>
<clipPath id="clip0_2207_979">
<rect width="19.7109" height="32.4727" fill="white" transform="translate(0.0461426 0.0908203)"/>
</clipPath>
</defs>
</svg>
