<svg width="28" height="22" viewBox="0 0 28 22" fill="none" xmlns="http://www.w3.org/2000/svg">
<g clip-path="url(#clip0_2207_1087)">
<path d="M3.71753 21.665H23.9909C26.4519 21.665 27.6706 20.458 27.6706 18.0439V3.72363C27.6706 1.30957 26.4519 0.0908203 23.9909 0.0908203H3.71753C1.26831 0.0908203 0.0378418 1.30957 0.0378418 3.72363V18.0439C0.0378418 20.458 1.26831 21.665 3.71753 21.665ZM3.74096 19.7783C2.56909 19.7783 1.92456 19.1572 1.92456 17.9385V3.8291C1.92456 2.61035 2.56909 1.97754 3.74096 1.97754H23.9675C25.1276 1.97754 25.7839 2.61035 25.7839 3.8291V17.9385C25.7839 19.1572 25.1276 19.7783 23.9675 19.7783H3.74096Z" fill="black" fill-opacity="0.85"/>
<path d="M5.59254 6.50098C6.20191 6.50098 6.68238 6.00879 6.68238 5.41113C6.68238 4.80176 6.20191 4.32129 5.59254 4.32129C5.0066 4.32129 4.50269 4.81348 4.50269 5.41113C4.50269 5.99707 5.0066 6.50098 5.59254 6.50098ZM5.59254 10.0869C6.20191 10.0869 6.68238 9.59473 6.68238 8.99707C6.68238 8.3877 6.20191 7.90723 5.59254 7.90723C5.0066 7.90723 4.50269 8.39941 4.50269 8.99707C4.50269 9.58301 5.0066 10.0869 5.59254 10.0869ZM5.59254 13.6611C6.20191 13.6611 6.68238 13.1806 6.68238 12.5713C6.68238 11.9736 6.20191 11.4931 5.59254 11.4931C4.99488 11.4931 4.50269 11.9853 4.50269 12.5713C4.50269 13.1806 4.99488 13.6611 5.59254 13.6611ZM5.59254 17.4228C6.20191 17.4228 6.68238 16.9306 6.68238 16.333C6.68238 15.7236 6.20191 15.2314 5.59254 15.2314C5.0066 15.2314 4.50269 15.7353 4.50269 16.333C4.50269 16.9189 5.0066 17.4228 5.59254 17.4228ZM9.1316 6.12598H22.5378C22.9597 6.12598 23.2761 5.80957 23.2761 5.41113C23.2761 5.00098 22.948 4.67285 22.5378 4.67285H9.1316C8.72144 4.67285 8.39332 5.00098 8.39332 5.41113C8.39332 5.80957 8.70973 6.12598 9.1316 6.12598ZM9.1316 9.72363H16.5612C16.9597 9.72363 17.2878 9.39551 17.2878 8.99707C17.2878 8.59863 16.9597 8.25879 16.5612 8.25879H9.1316C8.72144 8.25879 8.39332 8.59863 8.39332 8.99707C8.39332 9.39551 8.72144 9.72363 9.1316 9.72363ZM9.1316 13.3096H22.5378C22.9597 13.3096 23.2761 12.9931 23.2761 12.5713C23.2761 12.1728 22.9597 11.8564 22.5378 11.8564H9.1316C8.70973 11.8564 8.39332 12.1728 8.39332 12.5713C8.39332 12.9931 8.70973 13.3096 9.1316 13.3096ZM9.1316 17.0596H16.5612C16.9597 17.0596 17.2878 16.7314 17.2878 16.333C17.2878 15.9228 16.9714 15.6064 16.5612 15.6064H9.1316C8.70973 15.6064 8.39332 15.9228 8.39332 16.333C8.39332 16.7314 8.72144 17.0596 9.1316 17.0596Z" fill="black" fill-opacity="0.85"/>
</g>
<defs>
<clipPath id="clip0_2207_1087">
<rect width="27.6328" height="21.5742" fill="white" transform="translate(0.0378418 0.0908203)"/>
</clipPath>
</defs>
</svg>
