<svg width="24" height="20" viewBox="0 0 24 20" fill="none" xmlns="http://www.w3.org/2000/svg">
<g clip-path="url(#clip0_2207_22214)">
<path d="M7.98084 17.8066H22.7347C23.2621 17.8066 23.6722 17.3965 23.6722 16.8691C23.6722 16.3301 23.2621 15.9199 22.7347 15.9199H7.98084C7.45349 15.9199 7.03162 16.3301 7.03162 16.8691C7.03162 17.3965 7.45349 17.8066 7.98084 17.8066Z" fill="black" fill-opacity="0.85"/>
<path d="M1.41837 18.791L2.42618 18.0527L3.39884 18.791C3.7504 19.0605 4.1254 18.7793 3.99649 18.3926L3.60977 17.1972L4.59415 16.459C4.89884 16.2246 4.78165 15.8027 4.39493 15.8027H3.16446L2.7543 14.5137C2.64884 14.1855 2.1918 14.1738 2.08634 14.5137L1.67618 15.8027H0.433993C0.0472741 15.8027 -0.0816323 16.2246 0.234774 16.459L1.23087 17.1972L0.844149 18.3926C0.715243 18.7793 1.07852 19.0371 1.41837 18.791Z" fill="black" fill-opacity="0.85"/>
<path d="M7.98084 10.7285H22.7347C23.2621 10.7285 23.6722 10.3066 23.6722 9.7793C23.6722 9.25195 23.2621 8.8418 22.7347 8.8418H7.98084C7.45349 8.8418 7.03162 9.25195 7.03162 9.7793C7.03162 10.3066 7.45349 10.7285 7.98084 10.7285Z" fill="black" fill-opacity="0.85"/>
<path d="M1.41837 11.6894L2.42618 10.9512L3.39884 11.6894C3.7504 11.959 4.1254 11.6777 3.99649 11.291L3.60977 10.0957L4.59415 9.35742C4.89884 9.12305 4.78165 8.70117 4.39493 8.70117H3.16446L2.7543 7.41211C2.64884 7.08398 2.1918 7.08398 2.08634 7.41211L1.67618 8.70117H0.433993C0.0472741 8.70117 -0.0816323 9.12305 0.234774 9.35742L1.23087 10.0957L0.844149 11.291C0.715243 11.6777 1.07852 11.9355 1.41837 11.6894Z" fill="black" fill-opacity="0.85"/>
<path d="M7.98084 3.63867H22.7347C23.2621 3.63867 23.6722 3.22852 23.6722 2.70117C23.6722 2.16211 23.2621 1.75195 22.7347 1.75195H7.98084C7.45349 1.75195 7.03162 2.16211 7.03162 2.70117C7.03162 3.22852 7.45349 3.63867 7.98084 3.63867Z" fill="black" fill-opacity="0.85"/>
<path d="M1.41837 4.62305L2.42618 3.88477L3.39884 4.62305C3.7504 4.88086 4.1254 4.61133 3.99649 4.22461L3.60977 3.0293L4.59415 2.29102C4.89884 2.05664 4.78165 1.62305 4.39493 1.62305H3.16446L2.7543 0.345703C2.64884 0.00585935 2.1918 0.00585935 2.08634 0.345703L1.67618 1.62305H0.433993C0.0472741 1.62305 -0.0816323 2.05664 0.234774 2.29102L1.23087 3.0293L0.844149 4.22461C0.703524 4.61133 1.07852 4.86914 1.41837 4.62305Z" fill="black" fill-opacity="0.85"/>
</g>
<defs>
<clipPath id="clip0_2207_22214">
<rect width="23.6156" height="19.3652" fill="white" transform="translate(0.0566406 0.0908203)"/>
</clipPath>
</defs>
</svg>
