<svg width="29" height="21" viewBox="0 0 29 21" fill="none" xmlns="http://www.w3.org/2000/svg">
<g clip-path="url(#clip0_2207_22358)">
<path d="M0.899902 1.86035H22.7319C23.2241 1.86035 23.6343 1.47363 23.6343 0.969726C23.6343 0.477539 23.2241 0.0908203 22.7319 0.0908203H0.899902C0.407715 0.0908203 0.0209961 0.477539 0.0209961 0.969726C0.0209961 1.47363 0.407715 1.86035 0.899902 1.86035ZM0.899902 8.00098H8.22412C8.72803 8.00098 9.12647 7.61426 9.12647 7.11035C9.12647 6.61816 8.72803 6.23144 8.22412 6.23144H0.899902C0.407715 6.23144 0.0209961 6.61816 0.0209961 7.11035C0.0209961 7.61426 0.407715 8.00098 0.899902 8.00098ZM0.899902 14.1416H8.22412C8.72803 14.1416 9.12647 13.7431 9.12647 13.251C9.12647 12.7588 8.72803 12.372 8.22412 12.372H0.899902C0.407715 12.372 0.0209961 12.7588 0.0209961 13.251C0.0209961 13.7431 0.407715 14.1416 0.899902 14.1416ZM0.899902 20.2705H8.22412C8.72803 20.2705 9.12647 19.8838 9.12647 19.3916C9.12647 18.8994 8.72803 18.501 8.22412 18.501H0.899902C0.407715 18.501 0.0209961 18.8994 0.0209961 19.3916C0.0209961 19.8838 0.407715 20.2705 0.899902 20.2705Z" fill="black" fill-opacity="0.85"/>
<path d="M12.9233 20.1533H26.7983C27.771 20.1533 28.3921 19.5439 28.3921 18.583V7.91894C28.3921 6.98144 27.771 6.36035 26.7983 6.36035H12.9233C11.9507 6.36035 11.3296 6.98144 11.3296 7.91894V18.583C11.3296 19.5439 11.9507 20.1533 12.9233 20.1533ZM13.0171 9.71191C12.7827 9.71191 12.6304 9.54785 12.6304 9.3252V8.03613C12.6304 7.80176 12.7827 7.6377 13.0171 7.6377H14.1187C14.3648 7.6377 14.5171 7.80176 14.5171 8.03613V9.3252C14.5171 9.54785 14.3648 9.71191 14.1187 9.71191H13.0171ZM13.0171 12.7588C12.7827 12.7588 12.6304 12.5947 12.6304 12.3955V11.0947C12.6304 10.8603 12.7827 10.6963 13.0171 10.6963H14.1187C14.3648 10.6963 14.5171 10.8603 14.5171 11.0947V12.3955C14.5171 12.5947 14.3648 12.7588 14.1187 12.7588H13.0171ZM13.0171 15.8056C12.7827 15.8056 12.6304 15.6533 12.6304 15.4424V14.1416C12.6304 13.9072 12.7827 13.7431 13.0171 13.7431H14.1187C14.3648 13.7431 14.5171 13.9072 14.5171 14.1416V15.4424C14.5171 15.6533 14.3648 15.8056 14.1187 15.8056H13.0171ZM13.0171 18.8642C12.7827 18.8642 12.6304 18.7119 12.6304 18.4892V17.1885C12.6304 16.9541 12.7827 16.79 13.0171 16.79H14.1187C14.3648 16.79 14.5171 16.9541 14.5171 17.1885V18.4892C14.5171 18.7119 14.3648 18.8642 14.1187 18.8642H13.0171ZM25.603 9.71191C25.3569 9.71191 25.2046 9.54785 25.2046 9.3252V8.03613C25.2046 7.80176 25.3569 7.6377 25.603 7.6377H26.7046C26.939 7.6377 27.0913 7.80176 27.0913 8.03613V9.3252C27.0913 9.54785 26.939 9.71191 26.7046 9.71191H25.603ZM25.603 12.7588C25.3569 12.7588 25.2046 12.5947 25.2046 12.3955V11.0947C25.2046 10.8603 25.3569 10.6963 25.603 10.6963H26.7046C26.939 10.6963 27.0913 10.8603 27.0913 11.0947V12.3955C27.0913 12.5947 26.939 12.7588 26.7046 12.7588H25.603ZM25.603 15.8056C25.3569 15.8056 25.2046 15.6533 25.2046 15.4424V14.1416C25.2046 13.9072 25.3569 13.7431 25.603 13.7431H26.7046C26.939 13.7431 27.0913 13.9072 27.0913 14.1416V15.4424C27.0913 15.6533 26.939 15.8056 26.7046 15.8056H25.603ZM25.603 18.8642C25.3569 18.8642 25.2046 18.7119 25.2046 18.4892V17.1885C25.2046 16.9541 25.3569 16.79 25.603 16.79H26.7046C26.939 16.79 27.0913 16.9541 27.0913 17.1885V18.4892C27.0913 18.7119 26.939 18.8642 26.7046 18.8642H25.603ZM16.146 18.3955C15.9233 18.3955 15.7827 18.2549 15.7827 18.0205V14.5283C15.7827 14.2822 15.9233 14.1416 16.146 14.1416H23.5757C23.7983 14.1416 23.939 14.2822 23.939 14.5283V18.0205C23.939 18.2549 23.7983 18.3955 23.5757 18.3955H16.146ZM16.146 12.3838C15.9233 12.3838 15.7827 12.2431 15.7827 12.0088V8.48144C15.7827 8.24707 15.9233 8.10644 16.146 8.10644H23.5757C23.7983 8.10644 23.939 8.24707 23.939 8.48144V12.0088C23.939 12.2431 23.7983 12.3838 23.5757 12.3838H16.146Z" fill="black" fill-opacity="0.85"/>
</g>
<defs>
<clipPath id="clip0_2207_22358">
<rect width="28.3711" height="20.2617" fill="white" transform="translate(0.0209961 0.0908203)"/>
</clipPath>
</defs>
</svg>
