<svg width="27" height="27" viewBox="0 0 27 27" fill="none" xmlns="http://www.w3.org/2000/svg">
<g clip-path="url(#clip0_2207_20079)">
<path d="M13.1599 1.37549C13.488 1.37549 13.7575 1.11767 13.7575 0.777832C13.7575 0.437988 13.488 0.180176 13.1599 0.180176C12.82 0.180176 12.5505 0.437988 12.5505 0.777832C12.5505 1.11767 12.82 1.37549 13.1599 1.37549ZM15.3161 1.5747C15.6442 1.5747 15.9138 1.30517 15.9138 0.977051C15.9138 0.637207 15.6442 0.367676 15.3161 0.367676C14.9763 0.367676 14.7185 0.637207 14.7185 0.977051C14.7185 1.30517 14.9763 1.5747 15.3161 1.5747ZM17.4021 2.12549C17.7302 2.12549 17.9997 1.86767 17.9997 1.52783C17.9997 1.18799 17.7302 0.930176 17.4021 0.930176C17.0622 0.930176 16.7927 1.18799 16.7927 1.52783C16.7927 1.86767 17.0622 2.12549 17.4021 2.12549ZM19.3591 3.06299C19.6989 3.06299 19.9685 2.79345 19.9685 2.46533C19.9685 2.12549 19.6989 1.85595 19.3591 1.85595C19.031 1.85595 18.7614 2.12549 18.7614 2.46533C18.7614 2.79345 19.031 3.06299 19.3591 3.06299ZM21.1286 4.29345C21.4685 4.29345 21.738 4.03564 21.738 3.6958C21.738 3.35595 21.4685 3.09814 21.1286 3.09814C20.8005 3.09814 20.531 3.35595 20.531 3.6958C20.531 4.03564 20.8005 4.29345 21.1286 4.29345ZM22.6638 5.82861C23.0036 5.82861 23.2732 5.55908 23.2732 5.23095C23.2732 4.89111 23.0036 4.62158 22.6638 4.62158C22.3357 4.62158 22.0661 4.89111 22.0661 5.23095C22.0661 5.55908 22.3357 5.82861 22.6638 5.82861ZM23.906 7.60986C24.2458 7.60986 24.5153 7.34033 24.5153 7.0122C24.5153 6.67236 24.2458 6.40283 23.906 6.40283C23.5778 6.40283 23.3083 6.67236 23.3083 7.0122C23.3083 7.34033 23.5778 7.60986 23.906 7.60986ZM24.82 9.56689C25.1599 9.56689 25.4177 9.29736 25.4177 8.95752C25.4177 8.62939 25.1599 8.35986 24.82 8.35986C24.4802 8.35986 24.2224 8.62939 24.2224 8.95752C24.2224 9.29736 24.4802 9.56689 24.82 9.56689ZM25.3708 11.6411C25.7107 11.6411 25.9685 11.3833 25.9685 11.0434C25.9685 10.7036 25.7107 10.4458 25.3708 10.4458C25.0427 10.4458 24.7732 10.7036 24.7732 11.0434C24.7732 11.3833 25.0427 11.6411 25.3708 11.6411ZM25.5583 13.7739C25.8982 13.7739 26.1677 13.5161 26.1677 13.1763C26.1677 12.8364 25.8982 12.5786 25.5583 12.5786C25.2302 12.5786 24.9607 12.8364 24.9607 13.1763C24.9607 13.5161 25.2302 13.7739 25.5583 13.7739ZM25.3708 15.9067C25.7107 15.9067 25.9685 15.6489 25.9685 15.3091C25.9685 14.9692 25.7107 14.7114 25.3708 14.7114C25.0427 14.7114 24.7732 14.9692 24.7732 15.3091C24.7732 15.6489 25.0427 15.9067 25.3708 15.9067ZM24.82 17.9927C25.1599 17.9927 25.4177 17.7231 25.4177 17.3833C25.4177 17.0552 25.1599 16.7856 24.82 16.7856C24.4802 16.7856 24.2224 17.0552 24.2224 17.3833C24.2224 17.7231 24.4802 17.9927 24.82 17.9927ZM23.906 19.938C24.2458 19.938 24.5153 19.6802 24.5153 19.3403C24.5153 19.0005 24.2458 18.7427 23.906 18.7427C23.5778 18.7427 23.3083 19.0005 23.3083 19.3403C23.3083 19.6802 23.5778 19.938 23.906 19.938ZM22.6638 21.7192C23.0036 21.7192 23.2732 21.4614 23.2732 21.1216C23.2732 20.7817 23.0036 20.5239 22.6638 20.5239C22.3357 20.5239 22.0661 20.7817 22.0661 21.1216C22.0661 21.4614 22.3357 21.7192 22.6638 21.7192ZM21.1286 23.2544C21.4685 23.2544 21.738 22.9849 21.738 22.6567C21.738 22.3169 21.4685 22.0474 21.1286 22.0474C20.8005 22.0474 20.531 22.3169 20.531 22.6567C20.531 22.9849 20.8005 23.2544 21.1286 23.2544ZM19.3591 24.4849C19.6989 24.4849 19.9685 24.227 19.9685 23.8872C19.9685 23.5474 19.6989 23.2895 19.3591 23.2895C19.031 23.2895 18.7614 23.5474 18.7614 23.8872C18.7614 24.227 19.031 24.4849 19.3591 24.4849ZM17.4021 25.4224C17.7302 25.4224 17.9997 25.1528 17.9997 24.8247C17.9997 24.4849 17.7302 24.2153 17.4021 24.2153C17.0622 24.2153 16.7927 24.4849 16.7927 24.8247C16.7927 25.1528 17.0622 25.4224 17.4021 25.4224ZM15.3161 25.9731C15.6442 25.9731 15.9138 25.7153 15.9138 25.3755C15.9138 25.0356 15.6442 24.7778 15.3161 24.7778C14.9763 24.7778 14.7185 25.0356 14.7185 25.3755C14.7185 25.7153 14.9763 25.9731 15.3161 25.9731ZM13.1599 26.1724C13.488 26.1724 13.7575 25.9028 13.7575 25.5747C13.7575 25.2349 13.488 24.9653 13.1599 24.9653C12.82 24.9653 12.5505 25.2349 12.5505 25.5747C12.5505 25.9028 12.82 26.1724 13.1599 26.1724ZM10.9919 25.9731C11.3317 25.9731 11.6013 25.7153 11.6013 25.3755C11.6013 25.0356 11.3317 24.7778 10.9919 24.7778C10.6638 24.7778 10.3942 25.0356 10.3942 25.3755C10.3942 25.7153 10.6638 25.9731 10.9919 25.9731ZM8.90601 25.4224C9.24585 25.4224 9.51538 25.1528 9.51538 24.8247C9.51538 24.4849 9.24585 24.2153 8.90601 24.2153C8.57788 24.2153 8.30835 24.4849 8.30835 24.8247C8.30835 25.1528 8.57788 25.4224 8.90601 25.4224ZM6.94898 24.4849C7.2771 24.4849 7.54663 24.227 7.54663 23.8872C7.54663 23.5474 7.2771 23.2895 6.94898 23.2895C6.60913 23.2895 6.35132 23.5474 6.35132 23.8872C6.35132 24.227 6.60913 24.4849 6.94898 24.4849ZM5.17944 23.2544C5.50757 23.2544 5.7771 22.9849 5.7771 22.6567C5.7771 22.3169 5.50757 22.0474 5.17944 22.0474C4.8396 22.0474 4.57007 22.3169 4.57007 22.6567C4.57007 22.9849 4.8396 23.2544 5.17944 23.2544ZM3.64429 21.7192C3.98413 21.7192 4.24194 21.4614 4.24194 21.1216C4.24194 20.7817 3.98413 20.5239 3.64429 20.5239C3.30444 20.5239 3.04663 20.7817 3.04663 21.1216C3.04663 21.4614 3.30444 21.7192 3.64429 21.7192ZM2.4021 19.938C2.73023 19.938 2.99976 19.6802 2.99976 19.3403C2.99976 19.0005 2.73023 18.7427 2.4021 18.7427C2.06226 18.7427 1.79273 19.0005 1.79273 19.3403C1.79273 19.6802 2.06226 19.938 2.4021 19.938ZM1.48804 17.9927C1.82788 17.9927 2.08569 17.7231 2.08569 17.3833C2.08569 17.0552 1.82788 16.7856 1.48804 16.7856C1.14819 16.7856 0.890381 17.0552 0.890381 17.3833C0.890381 17.7231 1.14819 17.9927 1.48804 17.9927ZM0.937256 15.9067C1.2771 15.9067 1.53491 15.6489 1.53491 15.3091C1.53491 14.9692 1.2771 14.7114 0.937256 14.7114C0.597412 14.7114 0.3396 14.9692 0.3396 15.3091C0.3396 15.6489 0.597412 15.9067 0.937256 15.9067ZM0.749756 13.7739C1.0896 13.7739 1.34741 13.5161 1.34741 13.1763C1.34741 12.8364 1.0896 12.5786 0.749756 12.5786C0.409912 12.5786 0.1521 12.8364 0.1521 13.1763C0.1521 13.5161 0.409912 13.7739 0.749756 13.7739ZM0.937256 11.6411C1.2771 11.6411 1.53491 11.3833 1.53491 11.0434C1.53491 10.7036 1.2771 10.4458 0.937256 10.4458C0.597412 10.4458 0.3396 10.7036 0.3396 11.0434C0.3396 11.3833 0.597412 11.6411 0.937256 11.6411ZM1.48804 9.56689C1.82788 9.56689 2.08569 9.29736 2.08569 8.95752C2.08569 8.62939 1.82788 8.35986 1.48804 8.35986C1.14819 8.35986 0.890381 8.62939 0.890381 8.95752C0.890381 9.29736 1.14819 9.56689 1.48804 9.56689ZM2.4021 7.60986C2.73023 7.60986 2.99976 7.34033 2.99976 7.0122C2.99976 6.67236 2.73023 6.40283 2.4021 6.40283C2.06226 6.40283 1.79273 6.67236 1.79273 7.0122C1.79273 7.34033 2.06226 7.60986 2.4021 7.60986ZM3.64429 5.82861C3.98413 5.82861 4.24194 5.55908 4.24194 5.23095C4.24194 4.89111 3.98413 4.62158 3.64429 4.62158C3.30444 4.62158 3.04663 4.89111 3.04663 5.23095C3.04663 5.55908 3.30444 5.82861 3.64429 5.82861ZM5.17944 4.29345C5.50757 4.29345 5.7771 4.03564 5.7771 3.6958C5.7771 3.35595 5.50757 3.09814 5.17944 3.09814C4.8396 3.09814 4.57007 3.35595 4.57007 3.6958C4.57007 4.03564 4.8396 4.29345 5.17944 4.29345ZM6.94898 3.06299C7.2771 3.06299 7.54663 2.79345 7.54663 2.46533C7.54663 2.12549 7.2771 1.85595 6.94898 1.85595C6.60913 1.85595 6.35132 2.12549 6.35132 2.46533C6.35132 2.79345 6.60913 3.06299 6.94898 3.06299ZM8.90601 2.12549C9.24585 2.12549 9.51538 1.86767 9.51538 1.52783C9.51538 1.18799 9.24585 0.930176 8.90601 0.930176C8.57788 0.930176 8.30835 1.18799 8.30835 1.52783C8.30835 1.86767 8.57788 2.12549 8.90601 2.12549ZM10.9919 1.5747C11.3317 1.5747 11.6013 1.30517 11.6013 0.977051C11.6013 0.637207 11.3317 0.367676 10.9919 0.367676C10.6638 0.367676 10.3942 0.637207 10.3942 0.977051C10.3942 1.30517 10.6638 1.5747 10.9919 1.5747Z" fill="black" fill-opacity="0.85"/>
<path d="M13.1599 22.6333C18.3864 22.6333 22.6169 18.4145 22.6169 13.1763C22.6169 7.97314 18.363 3.70752 13.1599 3.70752C7.89819 3.70752 3.69116 7.93799 3.69116 13.1763C3.69116 18.438 7.88648 22.6333 13.1599 22.6333ZM13.1599 21.4966C8.51929 21.4966 4.8396 17.8169 4.8396 13.1763C4.8396 8.5708 8.54273 4.85595 13.1599 4.85595C17.7419 4.85595 21.4685 8.58252 21.4685 13.1763C21.4685 17.7817 17.7653 21.4966 13.1599 21.4966Z" fill="black" fill-opacity="0.85"/>
<path d="M13.1599 18.0161C15.82 18.0161 17.9646 15.8599 17.9646 13.1997C17.9646 10.5395 15.82 8.3833 13.1599 8.3833C10.488 8.3833 8.34351 10.5278 8.34351 13.1997C8.34351 15.8716 10.4763 18.0161 13.1599 18.0161Z" fill="black" fill-opacity="0.85"/>
<path d="M22.3825 25.5981C23.2614 26.477 24.7263 26.4888 25.6052 25.5747C26.4724 24.6841 26.4841 23.2661 25.5935 22.3872L3.94898 0.754402C3.07007 -0.124504 1.61694 -0.136223 0.726319 0.754402C-0.152588 1.63331 -0.152588 3.08643 0.726319 3.96534L22.3825 25.5981Z" fill="white"/>
<path d="M23.3435 24.6255C23.6833 24.9653 24.281 24.977 24.6208 24.6255C24.9724 24.2739 24.9724 23.6997 24.6208 23.3481L2.98804 1.72707C2.63648 1.37551 2.05054 1.36379 1.69898 1.72707C1.35913 2.06691 1.35913 2.66457 1.69898 3.00441L23.3435 24.6255Z" fill="black" fill-opacity="0.85"/>
</g>
<defs>
<clipPath id="clip0_2207_20079">
<rect width="26.1914" height="26.1826" fill="white" transform="translate(0.0671387 0.0908203)"/>
</clipPath>
</defs>
</svg>
