<svg width="24" height="25" viewBox="0 0 24 25" fill="none" xmlns="http://www.w3.org/2000/svg">
<g clip-path="url(#clip0_2207_18113)">
<path d="M12.0244 23.997C18.5635 23.997 23.9775 18.5713 23.9775 12.0439C23.9775 5.50488 18.5518 0.0908203 12.0127 0.0908203C5.48535 0.0908203 0.0712891 5.50488 0.0712891 12.0439C0.0712891 18.5713 5.49707 23.997 12.0244 23.997ZM12.0244 22.0049C6.49317 22.0049 2.0752 17.5752 2.0752 12.0439C2.0752 6.5127 6.48145 2.08301 12.0127 2.08301C17.544 2.08301 21.9854 6.5127 21.9854 12.0439C21.9854 17.5752 17.5557 22.0049 12.0244 22.0049Z" fill="black" fill-opacity="0.85"/>
<path d="M12.9735 18.4542C16.7704 18.4542 18.6454 15.0323 18.6454 13.169C18.6454 12.5128 17.8485 12.4893 17.7665 13.0987C17.4853 15.3487 15.7157 16.9425 13.7353 16.9425C12.54 16.9425 11.4735 16.4268 10.8056 15.6182L11.4501 14.587L12.2118 14.8565L12.2704 15.9112C12.3173 16.3565 13.0204 16.2979 12.915 15.7589C12.8564 15.5011 13.1376 15.3487 13.3603 15.5128C13.7353 15.8057 14.0868 15.1261 13.6884 14.9503C13.4423 14.8448 13.4892 14.5284 13.7587 14.4347C14.1923 14.294 13.9579 13.6378 13.536 13.8487L12.6806 14.2354L11.6024 13.544C11.3095 13.3448 10.9228 13.4034 10.7118 13.6847L10.1493 14.4464C10.0673 14.1417 10.0087 13.8136 10.0087 13.4854C10.0087 12.4776 10.372 11.4581 10.9814 10.7081L10.9931 11.3878C10.9931 11.7628 11.2743 12.0089 11.6259 12.0323L12.8915 12.0909L13.3485 12.9347C13.5829 13.3565 14.1571 12.9581 13.8993 12.5831C13.7235 12.3487 13.8876 12.0792 14.1454 12.1378C14.5673 12.2198 14.6728 11.4698 14.1923 11.4815C13.9228 11.4815 13.7939 11.2003 13.9931 11.0011C14.4032 10.6378 13.8524 10.1807 13.5829 10.5206L12.8798 11.3292L12.1064 11.1065L12.2118 9.77058C12.5282 9.65339 12.8564 9.58308 13.2196 9.58308C13.8056 9.58308 13.7939 9.93464 14.4501 9.93464C15.3759 9.93464 17.3915 8.52839 17.3915 7.48542C17.3915 6.81745 16.3485 6.39558 14.6728 6.39558C13.4657 6.39558 13.0321 6.71198 12.9501 7.26277C12.9032 7.68464 12.6689 7.9073 12.2587 7.9073C11.9657 7.9073 11.6728 7.93073 11.3915 7.96589L10.079 7.33308L10.2431 6.54792L11.3095 6.36042C11.7431 6.29011 11.6142 5.57527 11.0985 5.75105C10.829 5.83308 10.6532 5.58698 10.7821 5.35261C11.0282 4.94245 10.3251 4.64948 10.1962 5.05964C10.1142 5.31745 9.79773 5.30573 9.68055 5.04792C9.49305 4.63777 8.86023 4.93073 9.11805 5.35261L9.59851 6.1612L9.03601 7.2862C8.87195 7.59089 8.94226 7.97761 9.27039 8.15339L9.80945 8.48151C8.14539 9.33698 7.00867 11.0245 7.00867 13.0401C7.00867 13.38 7.04383 13.6847 7.10242 14.0011L6.82117 13.837C6.50476 13.6612 6.14148 13.7667 5.94226 14.0831L5.26258 15.1261L4.31336 15.1143C3.80945 15.1026 3.87976 15.8057 4.33679 15.7589C4.61805 15.7237 4.78211 16.005 4.59461 16.1925C4.28992 16.5323 4.91101 17.0128 5.15711 16.5675C5.27429 16.3331 5.5907 16.3565 5.64929 16.6143C5.76648 17.1886 6.45789 16.9425 6.29383 16.5089L5.93055 15.5128L6.51648 14.9503L7.73523 15.7823C8.69617 17.4347 10.5946 18.4542 12.9735 18.4542Z" fill="black" fill-opacity="0.85"/>
</g>
<defs>
<clipPath id="clip0_2207_18113">
<rect width="23.9062" height="23.918" fill="white" transform="translate(0.0712891 0.0908203)"/>
</clipPath>
</defs>
</svg>
