<svg width="24" height="25" viewBox="0 0 24 25" fill="none" xmlns="http://www.w3.org/2000/svg">
<g clip-path="url(#clip0_2207_18118)">
<path d="M12.0266 24.0088C18.5657 24.0088 23.9797 18.5947 23.9797 12.0556C23.9797 5.52832 18.554 0.102539 12.0149 0.102539C5.48755 0.102539 0.0734863 5.52832 0.0734863 12.0556C0.0734863 18.5947 5.49927 24.0088 12.0266 24.0088Z" fill="black" fill-opacity="0.85"/>
<path d="M13.0345 18.6768C10.5853 18.6768 8.62828 17.6221 7.6439 15.9347L6.37828 15.0675L5.79234 15.6417L6.16734 16.6847C6.31968 17.1182 5.61656 17.3761 5.48765 16.7901C5.42906 16.5089 5.10093 16.4854 4.98375 16.7315C4.72593 17.1886 4.09312 16.6964 4.40953 16.3448C4.59703 16.1456 4.42125 15.8761 4.14 15.8995C3.67125 15.9464 3.60093 15.2198 4.11656 15.2315L5.10093 15.255L5.79234 14.1651C5.99156 13.8487 6.36656 13.7315 6.69468 13.919L6.98765 14.0831C6.92906 13.7667 6.8939 13.4386 6.8939 13.0987C6.8939 11.0245 8.06578 9.27841 9.78843 8.3995L9.22593 8.05966C8.88609 7.87216 8.81578 7.47372 8.97984 7.16903L9.55406 6.00888L9.06187 5.17685C8.80406 4.73153 9.44859 4.45029 9.64781 4.86044C9.77671 5.11825 10.0931 5.12997 10.1752 4.88388C10.3158 4.45029 11.0306 4.74325 10.7845 5.17685C10.6439 5.41122 10.8314 5.68075 11.1009 5.587C11.64 5.3995 11.7689 6.13779 11.3236 6.2081L10.2338 6.41903L10.058 7.21591L11.4056 7.87216C11.6986 7.82529 12.0033 7.80185 12.308 7.80185C12.7298 7.80185 12.9642 7.57919 13.0111 7.1456C13.0931 6.57138 13.5502 6.24325 14.8041 6.24325C16.515 6.24325 17.6048 6.67685 17.6048 7.36825C17.6048 8.44638 15.5189 9.8995 14.558 9.8995C13.8783 9.8995 13.89 9.53622 13.3041 9.53622C12.9174 9.53622 12.5775 9.60653 12.2611 9.72372L12.1439 11.1182L12.9408 11.3409L13.6674 10.4971C13.9486 10.1573 14.5111 10.6143 14.0892 11.0128C13.89 11.2003 14.0189 11.4932 14.3002 11.4932C14.8041 11.4815 14.6869 12.255 14.2416 12.1612C13.9838 12.1143 13.8197 12.3956 13.9955 12.6417C14.265 13.0167 13.6791 13.4268 13.433 12.9815L12.9525 12.1261L11.6517 12.0557C11.2884 12.044 10.9955 11.7745 10.9955 11.3995L10.9838 10.6964C10.3627 11.4698 9.99937 12.5128 9.99937 13.5557C9.99937 13.8956 10.0462 14.2237 10.14 14.5518L10.7259 13.7667C10.9252 13.462 11.3236 13.4151 11.6283 13.6143L12.7416 14.3409L13.6205 13.919C14.0541 13.7081 14.3002 14.3878 13.8548 14.5284C13.5736 14.6221 13.5384 14.9503 13.7963 15.0557C14.1947 15.2432 13.8314 15.9464 13.4447 15.6417C13.2103 15.4776 12.9174 15.63 12.9877 15.9112C13.0931 16.4503 12.3666 16.5089 12.3197 16.0636L12.2611 14.9737L11.4759 14.6925L10.808 15.7589C11.4994 16.5909 12.5892 17.13 13.8197 17.13C15.8588 17.13 17.6986 15.4893 17.9798 13.169C18.0619 12.5362 18.8822 12.5479 18.8822 13.2276C18.8822 15.1495 16.9486 18.6768 13.0345 18.6768Z" fill="white"/>
</g>
<defs>
<clipPath id="clip0_2207_18118">
<rect width="23.9062" height="23.918" fill="white" transform="translate(0.0734863 0.0908203)"/>
</clipPath>
</defs>
</svg>
