<svg width="24" height="25" viewBox="0 0 24 25" fill="none" xmlns="http://www.w3.org/2000/svg">
<g clip-path="url(#clip0_2207_8287)">
<path d="M12.0393 23.997C18.5784 23.997 23.9924 18.5713 23.9924 12.0439C23.9924 5.50488 18.5667 0.0908203 12.0276 0.0908203C5.50024 0.0908203 0.0861816 5.50488 0.0861816 12.0439C0.0861816 18.5713 5.51196 23.997 12.0393 23.997Z" fill="black" fill-opacity="0.85"/>
<path d="M5.42995 13.04C4.37526 13.04 4.24636 11.915 5.03151 11.54L16.4456 6.12601C17.3948 5.68069 18.1917 6.47757 17.7581 7.41507L12.3909 18.8525C12.0276 19.626 10.8792 19.5205 10.8792 18.4424V13.4385C10.8792 13.2041 10.7268 13.0517 10.4924 13.0517L5.42995 13.04Z" fill="white"/>
</g>
<defs>
<clipPath id="clip0_2207_8287">
<rect width="23.9062" height="23.918" fill="white" transform="translate(0.0861816 0.0908203)"/>
</clipPath>
</defs>
</svg>
