<svg width="17" height="31" viewBox="0 0 17 31" fill="none" xmlns="http://www.w3.org/2000/svg">
<g id="location.north.line" clip-path="url(#clip0_2124_13436)">
<g id="Group">
<path id="Vector" d="M1.40625 28.7344C1.95703 28.7344 2.53125 28.418 2.98828 27.9844L7.6875 23.5312C7.81641 23.4023 7.91016 23.3438 8.00391 23.3438C8.09766 23.3438 8.19141 23.4023 8.32031 23.5312L13.0195 27.9844C13.4766 28.418 14.0391 28.7344 14.6016 28.7344C15.3984 28.7344 16.0078 27.9961 16.0078 27.2109C16.0078 26.7422 15.8203 26.2266 15.5742 25.5703L9.62109 10.207C9.22266 9.1875 8.67188 8.75391 8.00391 8.75391C7.33594 8.75391 6.78516 9.1875 6.38672 10.207L0.433594 25.5703C0.1875 26.2266 0 26.7422 0 27.2109C0 27.9961 0.597656 28.7344 1.40625 28.7344ZM2.15625 26.1797C2.12109 26.1328 2.10938 26.0859 2.13281 26.0039L7.82812 11.4023C7.86328 11.3086 7.92188 11.2266 8.00391 11.2266C8.09766 11.2266 8.13281 11.3203 8.17969 11.4023L13.875 26.0039C13.8984 26.0859 13.8984 26.1445 13.8516 26.1797C13.8281 26.1914 13.7812 26.2266 13.7109 26.1562L8.91797 21.8086C8.57812 21.4922 8.29688 21.3164 8.00391 21.3164C7.71094 21.3164 7.42969 21.4922 7.08984 21.8086L2.29688 26.1562C2.26172 26.1914 2.19141 26.2266 2.15625 26.1797ZM8.00391 7.14844C8.56641 7.14844 8.94141 6.75 8.94141 6.12891V1.00781C8.94141 0.386719 8.56641 0 8.00391 0C7.44141 0 7.05469 0.386719 7.05469 1.00781V6.12891C7.05469 6.75 7.44141 7.14844 8.00391 7.14844Z" fill="black" fill-opacity="0.85"/>
</g>
</g>
<defs>
<clipPath id="clip0_2124_13436">
<rect width="16.0078" height="30.3398" fill="white"/>
</clipPath>
</defs>
</svg>
