<svg width="19" height="26" viewBox="0 0 19 26" fill="none" xmlns="http://www.w3.org/2000/svg">
<g clip-path="url(#clip0_2207_8328)">
<path d="M1.27734 24.4673C1.85156 24.4673 2.23828 24.2564 2.8125 23.6939L9.11719 17.4478C9.17578 17.3892 9.22266 17.3423 9.28125 17.3423C9.32812 17.3423 9.38672 17.3892 9.44531 17.4478L15.7383 23.6939C16.3242 24.2564 16.6992 24.4673 17.2734 24.4673C18.0703 24.4673 18.5508 23.8579 18.5508 23.0611C18.5508 22.6157 18.375 22.0884 18.1992 21.6079L10.875 1.59229C10.5 0.561035 9.94922 0.0922852 9.28125 0.0922852C8.60156 0.0922852 8.0625 0.561035 7.6875 1.59229L0.351562 21.6079C0.1875 22.0884 0 22.6157 0 23.0611C0 23.8579 0.480469 24.4673 1.27734 24.4673Z" fill="black" fill-opacity="0.85"/>
</g>
<defs>
<clipPath id="clip0_2207_8328">
<rect width="18.5508" height="25.1133" fill="white" transform="translate(0 0.0922852)"/>
</clipPath>
</defs>
</svg>
