<svg width="22" height="22" viewBox="0 0 22 22" fill="none" xmlns="http://www.w3.org/2000/svg">
<g clip-path="url(#clip0_2207_8292)">
<path d="M3.69434 21.69H17.9091C20.3701 21.69 21.5888 20.4712 21.5888 18.0571V3.74854C21.5888 1.33448 20.3701 0.115723 17.9091 0.115723H3.69434C1.24512 0.115723 0.0146484 1.32276 0.0146484 3.74854V18.0571C0.0146484 20.4829 1.24512 21.69 3.69434 21.69ZM3.71777 19.8032C2.5459 19.8032 1.90137 19.1821 1.90137 17.9634V3.84229C1.90137 2.62354 2.5459 2.00245 3.71777 2.00245H17.8857C19.0458 2.00245 19.7021 2.62354 19.7021 3.84229V17.9634C19.7021 19.1821 19.0458 19.8032 17.8857 19.8032H3.71777Z" fill="black" fill-opacity="0.85"/>
<path d="M4.65527 11.8695L9.56543 11.8813C9.78809 11.8813 9.94043 12.0219 9.94043 12.2563V17.1078C9.94043 18.1508 11.0419 18.2563 11.3935 17.5063L16.5966 6.40864C17.0302 5.50629 16.2451 4.73285 15.331 5.16645L4.26856 10.4164C3.50684 10.7797 3.62403 11.8695 4.65527 11.8695Z" fill="black" fill-opacity="0.85"/>
</g>
<defs>
<clipPath id="clip0_2207_8292">
<rect width="21.5742" height="21.5977" fill="white" transform="translate(0.0146484 0.0922852)"/>
</clipPath>
</defs>
</svg>
