<svg width="19" height="26" viewBox="0 0 19 26" fill="none" xmlns="http://www.w3.org/2000/svg">
<g id="location.north" clip-path="url(#clip0_2124_13418)">
<g id="Group">
<path id="Vector" d="M1.27734 24.375C1.85156 24.375 2.23828 24.1641 2.8125 23.6016L9.11719 17.3555C9.17578 17.2969 9.22266 17.25 9.28125 17.25C9.32812 17.25 9.38672 17.2969 9.44531 17.3555L15.7383 23.6016C16.3242 24.1641 16.6992 24.375 17.2734 24.375C18.0703 24.375 18.5508 23.7656 18.5508 22.9688C18.5508 22.5234 18.375 21.9961 18.1992 21.5156L10.875 1.5C10.5 0.46875 9.94922 0 9.28125 0C8.60156 0 8.0625 0.46875 7.6875 1.5L0.351562 21.5156C0.1875 21.9961 0 22.5234 0 22.9688C0 23.7656 0.480469 24.375 1.27734 24.375ZM2.08594 21.8203C2.05078 21.7969 2.03906 21.75 2.0625 21.6797L9.16406 2.54297C9.19922 2.44922 9.23438 2.41406 9.28125 2.41406C9.31641 2.41406 9.36328 2.44922 9.38672 2.54297L16.4883 21.6797C16.5117 21.75 16.5 21.7969 16.4766 21.8203C16.4531 21.832 16.4062 21.8203 16.3711 21.7969L9.86719 15.1992C9.65625 14.9883 9.44531 14.9414 9.28125 14.9414C9.10547 14.9414 8.89453 14.9883 8.69531 15.1992L2.19141 21.7969C2.15625 21.8203 2.10938 21.832 2.08594 21.8203Z" fill="black" fill-opacity="0.85"/>
</g>
</g>
<defs>
<clipPath id="clip0_2124_13418">
<rect width="18.5508" height="25.1133" fill="white"/>
</clipPath>
</defs>
</svg>
