<svg width="24" height="24" viewBox="0 0 24 24" fill="none" xmlns="http://www.w3.org/2000/svg">
<g id="location.slash.circle.fill" clip-path="url(#clip0_2124_13415)">
<g id="Group">
<path id="&#244;&#129;&#153;&#136;" d="M11.955 23.91C10.3219 23.91 8.78263 23.5975 7.33709 22.9724C5.89936 22.3473 4.62963 21.4838 3.5279 20.3821C2.42616 19.2804 1.56275 18.0106 0.937647 16.5729C0.312549 15.1274 0 13.5881 0 11.955C0 10.3219 0.312549 8.78653 0.937647 7.34881C1.56275 5.90327 2.42226 4.62963 3.51618 3.5279C4.61791 2.42616 5.88764 1.56275 7.32537 0.937647C8.77091 0.312549 10.3102 0 11.9433 0C13.5763 0 15.1157 0.312549 16.5612 0.937647C18.0067 1.56275 19.2804 2.42616 20.3821 3.5279C21.4838 4.62963 22.3473 5.90327 22.9724 7.34881C23.5975 8.78653 23.91 10.3219 23.91 11.955C23.91 13.5881 23.5975 15.1274 22.9724 16.5729C22.3473 18.0106 21.4838 19.2804 20.3821 20.3821C19.2804 21.4838 18.0067 22.3473 16.5612 22.9724C15.1235 23.5975 13.5881 23.91 11.955 23.91ZM15.1664 12.8926L17.8622 7.16128C18.0106 6.84092 18.0341 6.55181 17.9325 6.29396C17.8309 6.02829 17.6473 5.84467 17.3816 5.74309C17.1238 5.64151 16.8308 5.66886 16.5026 5.82513L10.7947 8.53259L15.1664 12.8926ZM5.16878 12.9747H10.7478L7.74731 9.97422L4.73512 11.4041C4.46164 11.537 4.29364 11.7284 4.23113 11.9784C4.17644 12.2285 4.22332 12.459 4.37178 12.67C4.52805 12.8731 4.79372 12.9747 5.16878 12.9747ZM12.3301 18.9522L13.7248 15.9634L10.7712 12.9981V18.5303C10.7712 18.9053 10.8728 19.1671 11.076 19.3155C11.2869 19.464 11.5174 19.507 11.7675 19.4445C12.0175 19.3819 12.205 19.2179 12.3301 18.9522ZM17.1707 17.8856C17.2801 17.995 17.4129 18.0497 17.5692 18.0497C17.7332 18.0497 17.87 17.995 17.9794 17.8856C18.0888 17.7684 18.1435 17.6317 18.1435 17.4754C18.1513 17.3191 18.0966 17.1863 17.9794 17.0769L6.8331 5.94234C6.70808 5.82513 6.56744 5.76653 6.41116 5.76653C6.2627 5.75872 6.13377 5.81732 6.02438 5.94234C5.90718 6.04392 5.84857 6.17284 5.84857 6.32912C5.84857 6.48539 5.90718 6.62213 6.02438 6.73934L17.1707 17.8856Z" fill="black" fill-opacity="0.85"/>
</g>
</g>
<defs>
<clipPath id="clip0_2124_13415">
<rect width="23.9062" height="23.918" fill="white"/>
</clipPath>
</defs>
</svg>
