<svg width="23" height="24" viewBox="0 0 23 24" fill="none" xmlns="http://www.w3.org/2000/svg">
<g clip-path="url(#clip0_2207_5732)">
<path d="M0.0922852 9.44238C0.0922852 14.5986 4.28759 18.7939 9.44384 18.7939C11.4829 18.7939 13.3462 18.1377 14.8814 17.0361L20.647 22.8135C20.9165 23.083 21.2681 23.2119 21.6431 23.2119C22.44 23.2119 22.9907 22.6142 22.9907 21.8291C22.9907 21.4541 22.8501 21.1142 22.604 20.8681L16.8735 15.1025C18.0806 13.5322 18.7954 11.5752 18.7954 9.44238C18.7954 4.28613 14.6001 0.0908203 9.44384 0.0908203C4.28759 0.0908203 0.0922852 4.28613 0.0922852 9.44238ZM2.0962 9.44238C2.0962 5.3877 5.38916 2.09473 9.44384 2.09473C13.4985 2.09473 16.7915 5.3877 16.7915 9.44238C16.7915 13.497 13.4985 16.79 9.44384 16.79C5.38916 16.79 2.0962 13.497 2.0962 9.44238ZM5.07276 10.1103H8.45948C8.61182 10.1103 8.70557 10.2158 8.70557 10.3681L8.71729 13.708C8.71729 14.4346 9.479 14.5049 9.71338 13.9892L13.2993 6.34863C13.5923 5.71582 13.065 5.18848 12.4321 5.48144L4.80323 9.10254C4.27588 9.34863 4.36963 10.1103 5.07276 10.1103Z" fill="black" fill-opacity="0.85"/>
</g>
<defs>
<clipPath id="clip0_2207_5732">
<rect width="22.8984" height="23.1211" fill="white" transform="translate(0.0922852 0.0908203)"/>
</clipPath>
</defs>
</svg>
