<svg width="19" height="26" viewBox="0 0 19 26" fill="none" xmlns="http://www.w3.org/2000/svg">
<g id="location.north.fill" clip-path="url(#clip0_2124_13422)">
<g id="Group">
<path id="Vector" d="M1.27734 24.375C1.85156 24.375 2.23828 24.1641 2.8125 23.6016L9.11719 17.3555C9.17578 17.2969 9.22266 17.25 9.28125 17.25C9.32812 17.25 9.38672 17.2969 9.44531 17.3555L15.7383 23.6016C16.3242 24.1641 16.6992 24.375 17.2734 24.375C18.0703 24.375 18.5508 23.7656 18.5508 22.9688C18.5508 22.5234 18.375 21.9961 18.1992 21.5156L10.875 1.5C10.5 0.46875 9.94922 0 9.28125 0C8.60156 0 8.0625 0.46875 7.6875 1.5L0.351562 21.5156C0.1875 21.9961 0 22.5234 0 22.9688C0 23.7656 0.480469 24.375 1.27734 24.375Z" fill="black" fill-opacity="0.85"/>
</g>
</g>
<defs>
<clipPath id="clip0_2124_13422">
<rect width="18.5508" height="25.1133" fill="white"/>
</clipPath>
</defs>
</svg>
