<svg width="24" height="26" viewBox="0 0 24 26" fill="none" xmlns="http://www.w3.org/2000/svg">
<g id="location.slash.fill" clip-path="url(#clip0_2124_13402)">
<g id="Group">
<path id="Vector" d="M1.54974 13.2568L10.0927 13.292C10.2685 13.292 10.3271 13.3506 10.3271 13.5264L10.3505 21.999C10.3505 23.7451 12.4482 24.1553 13.2333 22.4561L21.8935 3.83493C22.6786 2.12399 21.331 0.998996 19.6904 1.76071L0.9638 10.4443C-0.5362 11.1357 -0.243231 13.2451 1.54974 13.2568Z" fill="black" fill-opacity="0.85"/>
<path id="Vector_2" d="M19.9248 21.917C20.8272 22.8076 22.2803 22.8076 23.1475 21.8936C24.0147 21.0146 24.0147 19.5967 23.1358 18.7061L5.10059 0.65918C4.22168 -0.219727 2.75684 -0.219727 1.86621 0.65918C0.999025 1.53809 0.999025 3.00293 1.86621 3.88184L19.9248 21.917Z" fill="white"/>
<path id="Vector_3" d="M20.8975 20.9561C21.2491 21.3076 21.835 21.3076 22.1748 20.9561C22.5147 20.6045 22.5264 20.0303 22.1748 19.6787L4.12792 1.63184C3.77636 1.28027 3.19042 1.28027 2.83886 1.63184C2.49902 1.97168 2.49902 2.56934 2.83886 2.90918L20.8975 20.9561Z" fill="black" fill-opacity="0.85"/>
</g>
</g>
<defs>
<clipPath id="clip0_2124_13402">
<rect width="23.7963" height="25.002" fill="white"/>
</clipPath>
</defs>
</svg>
