<svg width="24" height="26" viewBox="0 0 24 26" fill="none" xmlns="http://www.w3.org/2000/svg">
<g clip-path="url(#clip0_2207_8308)">
<path d="M1.56244 13.3491L10.1054 13.3843C10.2812 13.3843 10.3398 13.4429 10.3398 13.6187L10.3632 22.0913C10.3632 23.8374 12.4609 24.2476 13.246 22.5484L21.9062 3.92722C22.6913 2.21628 21.3437 1.09128 19.7031 1.853L0.976496 10.5366C-0.523504 11.228 -0.230536 13.3374 1.56244 13.3491Z" fill="black" fill-opacity="0.85"/>
<path d="M19.9374 22.0093C20.8398 22.8999 22.2929 22.8999 23.1601 21.9859C24.0273 21.1069 24.0273 19.689 23.1484 18.7984L5.11322 0.751465C4.23431 -0.127442 2.76947 -0.127442 1.87884 0.751465C1.01166 1.63038 1.01166 3.09522 1.87884 3.97413L19.9374 22.0093Z" fill="white"/>
<path d="M20.9101 21.0484C21.2617 21.3999 21.8476 21.3999 22.1874 21.0484C22.5273 20.6968 22.539 20.1226 22.1874 19.771L4.14056 1.72413C3.789 1.37256 3.20306 1.37256 2.8515 1.72413C2.51166 2.06397 2.51166 2.66163 2.8515 3.00147L20.9101 21.0484Z" fill="black" fill-opacity="0.85"/>
</g>
<defs>
<clipPath id="clip0_2207_8308">
<rect width="23.7963" height="25.002" fill="white" transform="translate(0.0126953 0.0922852)"/>
</clipPath>
</defs>
</svg>
