<svg width="20" height="27" viewBox="0 0 20 27" fill="none" xmlns="http://www.w3.org/2000/svg">
<g clip-path="url(#clip0_2207_13816)">
<path d="M0.0524902 23.4009C0.0524902 25.2525 1.35327 26.4946 3.29858 26.4946H16.3884C18.3337 26.4946 19.6345 25.2525 19.6345 23.4009V3.19776C19.6345 1.3462 18.3337 0.0922852 16.3884 0.0922852H3.29858C1.35327 0.0922852 0.0524902 1.3462 0.0524902 3.19776V23.4009ZM1.93921 23.0845V3.51417C1.93921 2.55323 2.52515 1.97901 3.53296 1.97901H16.1541C17.1502 1.97901 17.7478 2.55323 17.7478 3.51417V23.0845C17.7478 24.0454 17.1502 24.6079 16.1541 24.6079H3.53296C2.52515 24.6079 1.93921 24.0454 1.93921 23.0845Z" fill="black" fill-opacity="0.85"/>
<path d="M7.8689 17.272H11.8416C12.4744 17.272 12.7908 16.9439 12.7908 16.2759V13.229C12.7908 12.7017 12.5916 12.397 12.2048 12.2681V11.4712C12.2048 9.88916 11.2556 8.81104 9.84937 8.81104C8.45483 8.81104 7.4939 9.88916 7.4939 11.4712V12.2798C7.1189 12.397 6.90796 12.7017 6.90796 13.229V16.2759C6.90796 16.9439 7.23608 17.272 7.8689 17.272ZM8.65405 12.2212V11.3657C8.65405 10.4985 9.1228 9.93604 9.84937 9.93604C10.5759 9.93604 11.0447 10.4985 11.0447 11.3657V12.2212H8.65405Z" fill="black" fill-opacity="0.85"/>
</g>
<defs>
<clipPath id="clip0_2207_13816">
<rect width="19.582" height="26.4258" fill="white" transform="translate(0.0524902 0.0922852)"/>
</clipPath>
</defs>
</svg>
