<svg width="22" height="22" viewBox="0 0 22 22" fill="none" xmlns="http://www.w3.org/2000/svg">
<g clip-path="url(#clip0_2207_6833)">
<path d="M1.39428 1.49854C0.245849 2.64698 0.0231934 4.24073 0.0231934 6.13916V6.25635H1.90991V6.06885C1.90991 4.83838 2.06225 3.57276 2.76538 2.86963C3.48022 2.15479 4.75757 2.00245 5.98803 2.00245H6.19897V0.115723H6.05835C4.15991 0.115723 2.55444 0.338379 1.39428 1.49854ZM7.80444 2.00245H13.8513V0.115723H7.80444V2.00245ZM20.2615 1.49854C19.1013 0.338379 17.4959 0.115723 15.5623 0.115723H15.4451V2.00245H15.7029C16.9099 2.00245 18.1755 2.16651 18.8787 2.86963C19.5935 3.58448 19.7459 4.82666 19.7459 6.0337V6.25635H21.6326V6.17431C21.6326 4.229 21.4099 2.63526 20.2615 1.49854ZM19.7459 13.8735H21.6326V7.86181H19.7459V13.8735ZM20.2615 20.2368C21.4099 19.0884 21.6326 17.5064 21.6326 15.5611V15.479H19.7459V15.69C19.7459 16.9087 19.5935 18.1509 18.8787 18.8657C18.1755 19.5689 16.9099 19.7329 15.7029 19.7329H15.4451V21.6196H15.5623C17.4959 21.6196 19.1013 21.397 20.2615 20.2368ZM7.80444 21.6196H13.8513V19.7329H7.80444V21.6196ZM1.39428 20.2368C2.55444 21.397 4.15991 21.6196 6.08178 21.6196H6.19897V19.7329H5.95288C4.74585 19.7329 3.48022 19.5689 2.76538 18.8657C2.06225 18.1509 1.90991 16.9087 1.90991 15.69V15.479H0.0231934V15.5611C0.0231934 17.5064 0.245849 19.0884 1.39428 20.2368ZM0.0231934 13.8735H1.90991V7.86181H0.0231934V13.8735Z" fill="black" fill-opacity="0.85"/>
<path d="M6.59741 15.4673C6.59741 16.3462 6.98413 16.7564 7.79272 16.7564H13.863C14.6834 16.7564 15.0701 16.3462 15.0701 15.4673V10.8032C15.0701 9.98291 14.7302 9.58448 14.0271 9.5376V8.14307C14.0271 5.98682 12.738 4.54541 10.8279 4.54541C8.92944 4.54541 7.62866 5.98682 7.62866 8.14307V9.5376C6.93725 9.58448 6.59741 9.98291 6.59741 10.8032V15.4673ZM8.84741 9.52588V8.01417C8.84741 6.64307 9.64428 5.72901 10.8279 5.72901C12.0232 5.72901 12.8084 6.64307 12.8084 8.01417V9.52588H8.84741Z" fill="black" fill-opacity="0.85"/>
</g>
<defs>
<clipPath id="clip0_2207_6833">
<rect width="21.6094" height="21.5273" fill="white" transform="translate(0.0231934 0.0922852)"/>
</clipPath>
</defs>
</svg>
