<svg width="34" height="20" viewBox="0 0 34 20" fill="none" xmlns="http://www.w3.org/2000/svg">
<g clip-path="url(#clip0_2207_13254)">
<path d="M0.0734863 17.8462C0.0734863 18.5845 0.671142 19.1821 1.39771 19.1821H32.5462C33.2727 19.1821 33.8704 18.5845 33.8704 17.8462C33.8704 17.1079 33.2727 16.5103 32.5462 16.5103H29.9797V2.6001C29.9797 0.959473 29.1008 0.115723 27.4719 0.115723H6.47193C4.92505 0.115723 3.96411 0.959473 3.96411 2.6001V16.5103H1.39771C0.671142 16.5103 0.0734863 17.1079 0.0734863 17.8462ZM5.85083 16.5103V3.12745C5.85083 2.37745 6.22583 2.00245 6.97583 2.00245H26.968C27.718 2.00245 28.093 2.37745 28.093 3.12745V16.5103H5.85083Z" fill="black" fill-opacity="0.85"/>
<path d="M12.7766 12.3501C12.7766 13.0181 13.093 13.3462 13.7258 13.3462H17.6985C18.3313 13.3462 18.6477 13.0181 18.6477 12.3501V9.30323C18.6477 8.63526 18.3313 8.29541 17.6985 8.29541H13.7258C13.093 8.29541 12.7766 8.63526 12.7766 9.30323V12.3501ZM16.7962 8.9751H17.9563V7.31104C17.9563 6.44385 18.4251 5.88135 19.2219 5.88135C20.0188 5.88135 20.4758 6.44385 20.4758 7.31104V8.14307C20.4758 8.45948 20.7454 8.72901 21.0618 8.72901C21.3782 8.72901 21.636 8.45948 21.636 8.14307V7.31104C21.636 5.83448 20.6868 4.75635 19.2219 4.75635C17.7454 4.75635 16.7962 5.83448 16.7962 7.41651V8.9751Z" fill="black" fill-opacity="0.85"/>
</g>
<defs>
<clipPath id="clip0_2207_13254">
<rect width="33.7969" height="19.0898" fill="white" transform="translate(0.0734863 0.0922852)"/>
</clipPath>
</defs>
</svg>
