<svg width="30" height="23" viewBox="0 0 30 23" fill="none" xmlns="http://www.w3.org/2000/svg">
<g clip-path="url(#clip0_2207_8763)">
<path d="M23.2066 20.4595C26.7457 20.4595 29.5113 17.8696 29.5113 14.647C29.5113 12.1861 28.0934 10.0532 25.8082 9.09229C25.8316 3.86573 22.0699 0.0922852 17.277 0.0922852C14.1012 0.0922852 11.8395 1.79151 10.4332 3.84229C7.55042 2.99854 4.40979 5.18995 4.35119 8.4712C1.70275 8.89307 0.050415 11.2603 0.050415 14.1196C0.050415 17.565 3.06213 20.4595 7.06994 20.4595H23.2066Z" fill="black" fill-opacity="0.85"/>
<path d="M10.8785 15.5142V11.19C10.8785 10.44 11.1949 10.0532 11.816 10.0181V8.74073C11.816 6.73682 13.0231 5.40088 14.7809 5.40088C16.5621 5.40088 17.7574 6.73682 17.7574 8.74073V10.0181C18.3902 10.0532 18.7066 10.44 18.7066 11.19V15.5142C18.7066 16.3228 18.3434 16.6861 17.5934 16.6861H11.9801C11.2301 16.6861 10.8785 16.3228 10.8785 15.5142ZM12.9527 10.0063H16.609V8.61182C16.609 7.3462 15.8824 6.49073 14.7809 6.49073C13.7027 6.49073 12.9527 7.3462 12.9527 8.61182V10.0063Z" fill="white"/>
</g>
<defs>
<clipPath id="clip0_2207_8763">
<rect width="29.4609" height="22.2773" fill="white" transform="translate(0.050415 0.0922852)"/>
</clipPath>
</defs>
</svg>
