<svg width="17" height="24" viewBox="0 0 17 24" fill="none" xmlns="http://www.w3.org/2000/svg">
<g clip-path="url(#clip0_2207_12590)">
<path d="M2.68286 23.0845H13.4055C15.1281 23.0845 16.0422 22.147 16.0422 20.2954V12.2212C16.0422 10.3696 15.1281 9.44384 13.4055 9.44384H2.68286C0.960204 9.44384 0.0461426 10.3696 0.0461426 12.2212V20.2954C0.0461426 22.147 0.960204 23.0845 2.68286 23.0845ZM2.09692 10.3462H3.9602V6.38526C3.9602 3.43213 5.84692 1.86182 8.03833 1.86182C10.2297 1.86182 12.1399 3.43213 12.1399 6.38526V10.3462H13.9914V6.64306C13.9914 2.23681 11.1086 0.0922852 8.03833 0.0922852C4.97973 0.0922852 2.09692 2.23681 2.09692 6.64306V10.3462Z" fill="black" fill-opacity="0.85"/>
</g>
<defs>
<clipPath id="clip0_2207_12590">
<rect width="15.9961" height="23.6133" fill="white" transform="translate(0.0461426 0.0922852)"/>
</clipPath>
</defs>
</svg>
