<svg width="25" height="24" viewBox="0 0 25 24" fill="none" xmlns="http://www.w3.org/2000/svg">
<g clip-path="url(#clip0_2207_12743)">
<path d="M2.70386 23.0611H13.4265C15.1491 23.0611 16.0632 22.1235 16.0632 20.272V12.1978C16.0632 10.3579 15.1491 9.42041 13.4265 9.42041H2.70386C0.981201 9.42041 0.0671387 10.3579 0.0671387 12.1978V20.272C0.0671387 22.1235 0.981201 23.0611 2.70386 23.0611ZM12.2898 10.3345H14.1413V6.38526C14.1413 3.42041 16.0398 1.86182 18.2312 1.86182C20.4226 1.86182 22.321 3.42041 22.321 6.38526V8.98682C22.321 9.67823 22.7312 10.0298 23.2585 10.0298C23.7624 10.0298 24.1843 9.71338 24.1843 8.98682V6.63135C24.1843 2.2251 21.2898 0.0922852 18.2312 0.0922852C15.1609 0.0922852 12.2898 2.2251 12.2898 6.63135V10.3345Z" fill="black" fill-opacity="0.85"/>
</g>
<defs>
<clipPath id="clip0_2207_12743">
<rect width="24.1172" height="23.5664" fill="white" transform="translate(0.0671387 0.0922852)"/>
</clipPath>
</defs>
</svg>
