<svg width="28" height="22" viewBox="0 0 28 22" fill="none" xmlns="http://www.w3.org/2000/svg">
<g clip-path="url(#clip0_2207_12637)">
<path d="M3.76172 21.6665H24.0351C26.4961 21.6665 27.7148 20.4595 27.7148 18.0454V3.7251C27.7148 1.31104 26.4961 0.0922852 24.0351 0.0922852H3.76172C1.3125 0.0922852 0.0820312 1.31104 0.0820312 3.7251V18.0454C0.0820312 20.4595 1.3125 21.6665 3.76172 21.6665ZM3.78515 19.7798C2.61328 19.7798 1.96875 19.1587 1.96875 17.94V3.83057C1.96875 2.61182 2.61328 1.97901 3.78515 1.97901H24.0117C25.1718 1.97901 25.8281 2.61182 25.8281 3.83057V17.94C25.8281 19.1587 25.1718 19.7798 24.0117 19.7798H3.78515Z" fill="black" fill-opacity="0.85"/>
<path d="M9.66797 15.4907C9.66797 16.3696 10.0547 16.7798 10.875 16.7798H16.9453C17.7539 16.7798 18.1406 16.3696 18.1406 15.4907V10.8267C18.1406 10.0063 17.8008 9.60791 17.1093 9.56104V8.16651C17.1093 6.01026 15.8203 4.56885 13.9101 4.56885C12 4.56885 10.7109 6.01026 10.7109 8.16651V9.56104C10.0078 9.60791 9.66797 10.0063 9.66797 10.8267V15.4907ZM11.9297 9.54932V8.0376C11.9297 6.66651 12.7148 5.75245 13.9101 5.75245C15.0937 5.75245 15.8906 6.66651 15.8906 8.0376V9.54932H11.9297Z" fill="black" fill-opacity="0.85"/>
</g>
<defs>
<clipPath id="clip0_2207_12637">
<rect width="27.6328" height="21.5742" fill="white" transform="translate(0.0820312 0.0922852)"/>
</clipPath>
</defs>
</svg>
