<svg width="30" height="24" viewBox="0 0 30 24" fill="none" xmlns="http://www.w3.org/2000/svg">
<g clip-path="url(#clip0_2207_12665)">
<path d="M3.76587 18.4087H19.7737C22.2112 18.4087 23.4534 17.19 23.4534 14.7759V3.7251C23.4534 1.31104 22.2112 0.0922852 19.7737 0.0922852H3.76587C1.30493 0.0922852 0.0861816 1.31104 0.0861816 3.7251V14.7759C0.0861816 17.2017 1.30493 18.4087 3.76587 18.4087ZM3.7893 16.522C2.61743 16.522 1.9729 15.9009 1.9729 14.6821V3.83057C1.9729 2.61182 2.61743 1.97901 3.7893 1.97901H19.7385C20.8987 1.97901 21.5667 2.61182 21.5667 3.83057V14.6821C21.5667 15.9009 20.8987 16.522 19.7385 16.522H3.7893Z" fill="black" fill-opacity="0.85"/>
<path d="M9.55493 23.8345H25.5628C28.0003 23.8345 29.2424 22.6157 29.2424 20.2017V9.15088C29.2424 6.73682 28.0003 5.51807 25.5628 5.51807H9.55493C7.09399 5.51807 5.87524 6.73682 5.87524 9.15088V20.2017C5.87524 22.6275 7.09399 23.8345 9.55493 23.8345Z" fill="white"/>
<path d="M9.55493 23.8345H25.5628C28.0003 23.8345 29.2424 22.6157 29.2424 20.2017V9.15088C29.2424 6.73682 28.0003 5.51807 25.5628 5.51807H9.55493C7.09399 5.51807 5.87524 6.73682 5.87524 9.15088V20.2017C5.87524 22.6275 7.09399 23.8345 9.55493 23.8345ZM9.57837 21.9478C8.40649 21.9478 7.76196 21.3267 7.76196 20.1079V9.25635C7.76196 8.0376 8.40649 7.40479 9.57837 7.40479H25.5276C26.6878 7.40479 27.3557 8.0376 27.3557 9.25635V20.1079C27.3557 21.3267 26.6878 21.9478 25.5276 21.9478H9.57837Z" fill="black" fill-opacity="0.85"/>
<path d="M13.3284 19.2993C13.3284 20.1782 13.7151 20.5884 14.5237 20.5884H20.594C21.4143 20.5884 21.801 20.1782 21.801 19.2993V14.6353C21.801 13.815 21.4612 13.4048 20.7581 13.3579V11.9751C20.7581 9.81884 19.469 8.37744 17.5589 8.37744C15.6604 8.37744 14.3596 9.81884 14.3596 11.9751V13.3579C13.6682 13.4048 13.3284 13.815 13.3284 14.6353V19.2993ZM15.5784 13.3462V11.8462C15.5784 10.4634 16.3753 9.56103 17.5589 9.56103C18.7542 9.56103 19.5393 10.4634 19.5393 11.8462V13.3462H15.5784Z" fill="black" fill-opacity="0.85"/>
</g>
<defs>
<clipPath id="clip0_2207_12665">
<rect width="29.1562" height="23.7539" fill="white" transform="translate(0.0861816 0.0922852)"/>
</clipPath>
</defs>
</svg>
