<svg width="17" height="24" viewBox="0 0 17 24" fill="none" xmlns="http://www.w3.org/2000/svg">
<g clip-path="url(#clip0_2207_12586)">
<path d="M2.65772 23.0728H13.3804C15.103 23.0728 16.0171 22.1353 16.0171 20.2837V12.2095C16.0171 10.3696 15.103 9.43213 13.3804 9.43213H2.65772C0.935058 9.43213 0.0209961 10.3696 0.0209961 12.2095V20.2837C0.0209961 22.1353 0.935058 23.0728 2.65772 23.0728ZM2.71631 21.3032C2.21241 21.3032 1.91944 20.9868 1.91944 20.4126V12.0806C1.91944 11.5064 2.21241 11.2017 2.71631 11.2017H13.3218C13.8374 11.2017 14.1187 11.5064 14.1187 12.0806V20.4126C14.1187 20.9868 13.8374 21.3032 13.3218 21.3032H2.71631ZM2.07178 10.3345H3.93506V6.38526C3.93506 3.42041 5.82178 1.86182 8.01319 1.86182C10.2046 1.86182 12.1148 3.42041 12.1148 6.38526V10.3345H13.9663V6.63135C13.9663 2.2251 11.0835 0.0922852 8.01319 0.0922852C4.95459 0.0922852 2.07178 2.2251 2.07178 6.63135V10.3345Z" fill="black" fill-opacity="0.85"/>
</g>
<defs>
<clipPath id="clip0_2207_12586">
<rect width="15.9961" height="23.5898" fill="white" transform="translate(0.0209961 0.0922852)"/>
</clipPath>
</defs>
</svg>
