<svg width="25" height="24" viewBox="0 0 25 24" fill="none" xmlns="http://www.w3.org/2000/svg">
<g clip-path="url(#clip0_2207_12739)">
<path d="M2.69556 23.0611H13.4182C15.1408 23.0611 16.0549 22.1235 16.0549 20.272V12.1978C16.0549 10.3579 15.1408 9.42041 13.4182 9.42041H2.69556C0.9729 9.42041 0.0588379 10.3579 0.0588379 12.1978V20.272C0.0588379 22.1235 0.9729 23.0611 2.69556 23.0611ZM2.75415 21.2915C2.25025 21.2915 1.95728 20.9751 1.95728 20.4009V12.0689C1.95728 11.4946 2.25025 11.19 2.75415 11.19H13.3596C13.8752 11.19 14.1565 11.4946 14.1565 12.0689V20.4009C14.1565 20.9751 13.8752 21.2915 13.3596 21.2915H2.75415ZM12.2815 10.3345H14.133V6.38526C14.133 3.42041 16.0315 1.86182 18.2229 1.86182C20.4143 1.86182 22.3127 3.42041 22.3127 6.38526V8.98682C22.3127 9.67823 22.7229 10.0298 23.2502 10.0298C23.7541 10.0298 24.176 9.71338 24.176 8.98682V6.63135C24.176 2.2251 21.2815 0.0922852 18.2229 0.0922852C15.1526 0.0922852 12.2815 2.2251 12.2815 6.63135V10.3345Z" fill="black" fill-opacity="0.85"/>
</g>
<defs>
<clipPath id="clip0_2207_12739">
<rect width="24.1172" height="23.5664" fill="white" transform="translate(0.0588379 0.0922852)"/>
</clipPath>
</defs>
</svg>
