<svg width="28" height="25" viewBox="0 0 28 25" fill="none" xmlns="http://www.w3.org/2000/svg">
<g clip-path="url(#clip0_2207_13126)">
<path d="M2.73523 20.3657H25.2704C26.9579 20.3657 27.9774 19.3462 27.9774 17.6587V3.60791C27.9774 1.92041 26.9579 0.912598 25.2704 0.912598H2.73523C1.05945 0.912598 0.039917 1.92041 0.039917 3.60791V17.6587C0.039917 19.3462 1.05945 20.3657 2.73523 20.3657ZM2.77039 18.479C2.25476 18.479 1.92664 18.1509 1.92664 17.6353V3.64307C1.92664 3.11573 2.25476 2.79932 2.77039 2.79932H25.2469C25.7626 2.79932 26.0907 3.11573 26.0907 3.64307V17.6353C26.0907 18.1509 25.7626 18.479 25.2469 18.479H2.77039ZM10.3055 23.1548H17.7118V20.2134H10.3055V23.1548ZM10.2352 24.5259H17.7821C18.2977 24.5259 18.7196 24.104 18.7196 23.5767C18.7196 23.0493 18.2977 22.6275 17.7821 22.6275H10.2352C9.71961 22.6275 9.28601 23.0493 9.28601 23.5767C9.28601 24.104 9.71961 24.5259 10.2352 24.5259Z" fill="black" fill-opacity="0.85"/>
<path d="M12.0282 14.6118H16.0008C16.6337 14.6118 16.9501 14.272 16.9501 13.604V10.5571C16.9501 10.0415 16.7508 9.73682 16.3758 9.5962V8.81104C16.3758 7.22901 15.4149 6.15088 14.0204 6.15088C12.6141 6.15088 11.6649 7.22901 11.6649 8.81104V9.61963C11.2782 9.73682 11.079 10.0415 11.079 10.5571V13.604C11.079 14.272 11.3954 14.6118 12.0282 14.6118ZM12.8251 9.56104V8.70557C12.8251 7.82667 13.2821 7.27588 14.0204 7.27588C14.7352 7.27588 15.2157 7.82667 15.2157 8.70557V9.56104H12.8251Z" fill="black" fill-opacity="0.85"/>
</g>
<defs>
<clipPath id="clip0_2207_13126">
<rect width="27.9375" height="24.4336" fill="white" transform="translate(0.039917 0.0922852)"/>
</clipPath>
</defs>
</svg>
