<svg width="18" height="26" viewBox="0 0 18 26" fill="none" xmlns="http://www.w3.org/2000/svg">
<g clip-path="url(#clip0_2207_14096)">
<path d="M0.0251465 17.3775C0.0251465 19.1939 0.739991 20.5298 2.06421 21.2564C2.70874 21.5962 3.08374 22.0298 3.31812 22.815L3.69312 24.0689C3.91577 24.8189 4.44312 25.1821 5.22827 25.1821H10.6423C11.4509 25.1821 11.9431 24.8306 12.1657 24.0689L12.5524 22.815C12.7868 22.0298 13.1618 21.5962 13.8063 21.2564C15.1306 20.5298 15.8454 19.1939 15.8454 17.3775V7.89698C15.8454 6.08056 15.1306 4.75635 13.8063 4.01807C13.1618 3.67823 12.7868 3.24463 12.5524 2.4712L12.1657 1.20557C11.9665 0.467285 11.4392 0.0922852 10.6423 0.0922852H5.22827C4.44312 0.0922852 3.91577 0.455566 3.69312 1.20557L3.31812 2.4712C3.09546 3.23291 2.72046 3.68995 2.06421 4.01807C0.751709 4.7212 0.0251465 6.05713 0.0251465 7.89698V17.3775ZM1.73609 17.1314V8.15479C1.73609 6.4087 2.75562 5.35401 4.46656 5.35401H11.404C13.1149 5.35401 14.1345 6.4087 14.1345 8.15479V17.1314C14.1345 18.8657 13.1149 19.9204 11.404 19.9204H4.46656C2.75562 19.9204 1.73609 18.8657 1.73609 17.1314ZM15.5876 11.8111H16.0095C16.6189 11.8111 17.0173 11.4009 17.0173 10.7329V9.15088C17.0173 8.48291 16.6189 8.07276 16.0095 8.07276H15.5876V11.8111Z" fill="black" fill-opacity="0.85"/>
<path d="M5.97826 16.6157H9.96264C10.6071 16.6157 10.9235 16.2759 10.9235 15.6079V12.5493C10.9235 12.0337 10.7243 11.7173 10.3376 11.5884V10.7915C10.3376 9.20948 9.3767 8.13135 7.97045 8.13135C6.5642 8.13135 5.61498 9.20948 5.61498 10.7915V11.6001C5.22826 11.7173 5.02905 12.0337 5.02905 12.5493V15.6079C5.02905 16.2759 5.34545 16.6157 5.97826 16.6157ZM6.77514 11.5532V10.6861C6.77514 9.81885 7.24389 9.25635 7.97045 9.25635C8.69702 9.25635 9.16576 9.81885 9.16576 10.6861V11.5532H6.77514Z" fill="black" fill-opacity="0.85"/>
</g>
<defs>
<clipPath id="clip0_2207_14096">
<rect width="16.9922" height="25.0898" fill="white" transform="translate(0.0251465 0.0922852)"/>
</clipPath>
</defs>
</svg>
