<svg width="16" height="25" viewBox="0 0 16 25" fill="none" xmlns="http://www.w3.org/2000/svg">
<g clip-path="url(#clip0_2207_13632)">
<path d="M0.0546875 21.854C0.0546875 23.6821 1.33203 24.9009 3.24219 24.9009H11.9258C13.8359 24.9009 15.1133 23.6821 15.1133 21.854V3.13917C15.1133 1.31104 13.8359 0.0922852 11.9258 0.0922852H3.24219C1.33203 0.0922852 0.0546875 1.31104 0.0546875 3.13917V21.854ZM1.94141 21.5493V3.44385C1.94141 2.50635 2.49219 1.97901 3.48828 1.97901H11.6914C12.6758 1.97901 13.2266 2.50635 13.2266 3.44385V21.5493C13.2266 22.4868 12.6758 23.0142 11.6914 23.0142H3.48828C2.49219 23.0142 1.94141 22.4868 1.94141 21.5493Z" fill="black" fill-opacity="0.85"/>
<path d="M5.60938 16.4751H9.58203C10.2149 16.4751 10.5313 16.147 10.5313 15.479V12.4321C10.5313 11.9048 10.332 11.6001 9.94531 11.4712V10.6743C9.94531 9.09228 8.9961 8.01416 7.58985 8.01416C6.1836 8.01416 5.23438 9.09228 5.23438 10.6743V11.4829C4.84766 11.6001 4.64844 11.9048 4.64844 12.4321V15.479C4.64844 16.147 4.96485 16.4751 5.60938 16.4751ZM6.39453 11.4243V10.5689C6.39453 9.70166 6.86328 9.13916 7.58985 9.13916C8.30469 9.13916 8.78516 9.70166 8.78516 10.5689V11.4243H6.39453Z" fill="black" fill-opacity="0.85"/>
</g>
<defs>
<clipPath id="clip0_2207_13632">
<rect width="15.0586" height="24.832" fill="white" transform="translate(0.0546875 0.0922852)"/>
</clipPath>
</defs>
</svg>
