<svg width="34" height="20" viewBox="0 0 34 20" fill="none" xmlns="http://www.w3.org/2000/svg">
<g clip-path="url(#clip0_2207_13249)">
<path d="M0.0566406 17.8462C0.0566406 18.5845 0.654297 19.1821 1.38086 19.1821H32.5293C33.2558 19.1821 33.8535 18.5845 33.8535 17.8462C33.8535 17.1079 33.2558 16.5103 32.5293 16.5103H29.9628V2.6001C29.9628 0.959473 29.0839 0.115723 27.455 0.115723H6.45508C4.9082 0.115723 3.94726 0.959473 3.94726 2.6001V16.5103H1.38086C0.654297 16.5103 0.0566406 17.1079 0.0566406 17.8462ZM5.83398 16.5103V3.12745C5.83398 2.37745 6.20898 2.00245 6.95898 2.00245H26.9511C27.7011 2.00245 28.0761 2.37745 28.0761 3.12745V16.5103H5.83398Z" fill="black" fill-opacity="0.85"/>
<path d="M14.9746 13.3462H18.9472C19.5918 13.3462 19.9082 13.0181 19.9082 12.3501V9.30322C19.9082 8.77587 19.7089 8.47119 19.3222 8.34228V7.5454C19.3222 5.96337 18.373 4.88525 16.9668 4.88525C15.5605 4.88525 14.6113 5.96337 14.6113 7.5454V8.354C14.2246 8.47119 14.0254 8.77587 14.0254 9.30322V12.3501C14.0254 13.0181 14.3418 13.3462 14.9746 13.3462ZM15.7714 8.2954V7.43994C15.7714 6.57275 16.2285 6.01025 16.9668 6.01025C17.6816 6.01025 18.1621 6.57275 18.1621 7.43994V8.2954H15.7714Z" fill="black" fill-opacity="0.85"/>
</g>
<defs>
<clipPath id="clip0_2207_13249">
<rect width="33.7969" height="19.0898" fill="white" transform="translate(0.0566406 0.0922852)"/>
</clipPath>
</defs>
</svg>
