<svg width="31" height="22" viewBox="0 0 31 22" fill="none" xmlns="http://www.w3.org/2000/svg">
<g clip-path="url(#clip0_2207_21093)">
<path d="M30.3469 11.9675V4.61987C30.3469 2.5105 28.929 1.08081 26.8079 1.08081L3.53442 1.09253C1.43677 1.09253 0.0187988 2.53393 0.0187988 4.65503V11.9675C0.0187988 15.0027 1.31958 16.866 4.44849 17.7917L14.5969 20.7449C17.3157 21.5417 19.0618 21.2253 21.4876 19.9714L28.0735 16.5847C29.9368 15.6238 30.3469 14.4753 30.3469 11.9675ZM28.4602 11.9675C28.4602 13.7019 28.1321 14.4636 26.8782 15.0964L20.4797 18.366C18.4641 19.3855 17.0344 19.5964 14.5969 18.8699L4.99927 16.0222C2.79614 15.3777 1.90552 14.1003 1.90552 11.9675V4.69018C1.90552 3.65893 2.56177 2.97925 3.56958 2.97925L26.7844 2.96753C27.7922 2.96753 28.4602 3.6355 28.4602 4.65503V11.9675Z" fill="black" fill-opacity="0.85"/>
<path d="M6.90942 14.4519H10.1438C10.5188 14.4519 10.8235 14.1355 10.8235 13.7605C10.8235 13.3972 10.5188 13.0808 10.1438 13.0808H7.72974V6.0144C7.72974 5.58081 7.35474 5.20581 6.92114 5.20581C6.47583 5.20581 6.10083 5.58081 6.10083 6.0144V13.5964C6.10083 14.1238 6.3938 14.4519 6.90942 14.4519ZM14.5383 14.6511C16.2844 14.6511 17.3626 13.655 17.3626 11.9441C17.3626 10.491 16.6243 9.81128 15.3118 9.30737L14.679 9.073C13.9407 8.79175 13.4133 8.40503 13.4133 7.61987C13.4133 6.92846 13.8352 6.448 14.4915 6.448C15.1946 6.448 15.5696 6.96362 15.6985 7.54956C15.8157 7.93628 16.0852 8.0769 16.4485 8.0769C16.8821 8.0769 17.1516 7.80737 17.1516 7.3855C17.1516 7.29175 17.1516 7.198 17.093 6.97534C16.7532 5.78003 15.7454 5.11206 14.4915 5.11206C12.9329 5.11206 11.8079 6.11987 11.8079 7.74878C11.8079 9.16675 12.675 9.91675 13.8235 10.362L14.4446 10.6081C15.1829 10.8894 15.7571 11.2527 15.7571 12.0847C15.7571 12.8113 15.3 13.3152 14.55 13.3152C13.8118 13.3152 13.3665 12.823 13.2376 12.2136C13.1438 11.8152 12.8626 11.6394 12.4876 11.6394C12.054 11.6394 11.7727 11.9558 11.7727 12.3894C11.7727 12.5886 11.7844 12.6589 11.843 12.8581C12.1829 14.0417 13.261 14.6511 14.5383 14.6511ZM19.5891 14.4519H21.9797C23.5735 14.4519 24.4876 13.3972 24.4876 11.8855C24.4876 10.7839 23.8196 9.77612 22.7532 9.67065V9.61206C23.6086 9.45971 24.2063 8.5105 24.2063 7.61987C24.2063 6.16675 23.2336 5.34643 21.9094 5.34643H19.5891C19.0618 5.34643 18.7688 5.70971 18.7688 6.2019V13.5964C18.7688 14.1238 19.0735 14.4519 19.5891 14.4519ZM20.386 9.21362V6.60034H21.4407C22.2961 6.60034 22.6243 7.1394 22.6243 7.86596C22.6243 8.698 22.1438 9.21362 21.3118 9.21362H20.386ZM20.386 13.2097V10.3152H21.4407C22.261 10.3152 22.8352 10.7605 22.8352 11.7566C22.8352 12.6589 22.3899 13.2097 21.4758 13.2097H20.386Z" fill="black" fill-opacity="0.85"/>
</g>
<defs>
<clipPath id="clip0_2207_21093">
<rect width="30.3281" height="21.0873" fill="white" transform="translate(0.0187988 0.09375)"/>
</clipPath>
</defs>
</svg>
