<svg width="31" height="22" viewBox="0 0 31 22" fill="none" xmlns="http://www.w3.org/2000/svg">
<g clip-path="url(#clip0_2207_21098)">
<path d="M30.3491 11.9675V4.61987C30.3491 2.5105 28.9312 1.08081 26.8101 1.08081L3.53662 1.09253C1.43897 1.09253 0.0209961 2.53393 0.0209961 4.65503V11.9675C0.0209961 15.0027 1.32178 16.866 4.45069 17.7917L14.5991 20.7449C17.3179 21.5417 19.064 21.2253 21.4898 19.9714L28.0757 16.5847C29.939 15.6238 30.3491 14.4753 30.3491 11.9675Z" fill="black" fill-opacity="0.85"/>
<path d="M6.63038 14.8386C6.11475 14.8386 5.81006 14.4988 5.81006 13.948V6.14331C5.81006 5.67456 6.19678 5.28784 6.65381 5.28784C7.11084 5.28784 7.49756 5.67456 7.49756 6.14331V13.4089H9.97022C10.3569 13.4089 10.6851 13.7253 10.6851 14.1238C10.6851 14.5105 10.3569 14.8386 9.97022 14.8386H6.63038ZM14.5171 15.0378C13.1929 15.0378 12.0796 14.405 11.7398 13.1745C11.6694 12.9753 11.6577 12.905 11.6577 12.6941C11.6577 12.2605 11.9507 11.9324 12.396 11.9324C12.7827 11.9324 13.0757 12.1081 13.1929 12.5066C13.3101 13.1511 13.7671 13.655 14.5288 13.655C15.3022 13.655 15.771 13.1277 15.771 12.3894C15.771 11.5339 15.1733 11.1589 14.4116 10.866L13.7788 10.6199C12.5835 10.1511 11.6929 9.37768 11.6929 7.91284C11.6929 6.23706 12.8648 5.20581 14.4702 5.20581C15.7593 5.20581 16.8022 5.8855 17.1538 7.11596C17.2007 7.35034 17.2124 7.45581 17.2124 7.54956C17.2124 7.97143 16.9429 8.2644 16.4858 8.2644C16.1108 8.2644 15.8296 8.11206 15.7124 7.71362C15.5718 7.10425 15.1851 6.58862 14.4702 6.58862C13.7905 6.58862 13.3569 7.08081 13.3569 7.78393C13.3569 8.59253 13.9077 8.99096 14.6577 9.28393L15.314 9.51831C16.6733 10.0457 17.4351 10.7488 17.4351 12.237C17.4351 14.0183 16.3101 15.0378 14.5171 15.0378ZM19.7202 14.8386C19.1929 14.8386 18.8882 14.487 18.8882 13.948V6.33081C18.8882 5.8269 19.1812 5.42846 19.7202 5.42846H22.1226C23.4937 5.42846 24.5015 6.29565 24.5015 7.78393C24.5015 8.698 23.8804 9.68237 22.9898 9.83471V9.89331C24.103 10.0105 24.7827 11.0417 24.7827 12.1785C24.7827 13.7488 23.8452 14.8386 22.1929 14.8386H19.7202ZM20.564 9.42456H21.5015C22.3569 9.42456 22.8491 8.89721 22.8491 8.04175C22.8491 7.29175 22.521 6.72925 21.6304 6.72925H20.564V9.42456ZM20.564 13.5495H21.689C22.6148 13.5495 23.0718 12.9753 23.0718 12.0378C23.0718 11.0183 22.4741 10.5613 21.6304 10.5613H20.564V13.5495Z" fill="white"/>
</g>
<defs>
<clipPath id="clip0_2207_21098">
<rect width="30.3281" height="21.0873" fill="white" transform="translate(0.0209961 0.09375)"/>
</clipPath>
</defs>
</svg>
