<svg width="28" height="21" viewBox="0 0 28 21" fill="none" xmlns="http://www.w3.org/2000/svg">
<g clip-path="url(#clip0_2207_20911)">
<path d="M9.85522 0.09375C3.05835 0.09375 0.0231934 3.22266 0.0231934 9.62109V16.9688C0.0231934 19.3359 1.24194 20.5312 3.62085 20.5312H23.4607C25.8396 20.5312 27.0584 19.3242 27.0584 16.9688V9.62109C27.0584 3.22266 24.0232 0.09375 17.2263 0.09375H9.85522ZM9.85522 1.98047H17.2146C22.7576 1.98047 25.1716 4.38281 25.1716 9.49219V16.875C25.1716 18.0469 24.5388 18.6446 23.4138 18.6446H3.66772C2.51928 18.6446 1.90991 18.0469 1.90991 16.875V9.49219C1.90991 4.38281 4.32397 1.98047 9.85522 1.98047Z" fill="black" fill-opacity="0.85"/>
<path d="M9.37475 15.0703H12.7498C13.1365 15.0703 13.4529 14.7421 13.4529 14.3554C13.4529 13.9688 13.1365 13.6406 12.7498 13.6406H10.242V6.29297C10.242 5.82422 9.85522 5.4375 9.38647 5.4375C8.92944 5.4375 8.54272 5.82422 8.54272 6.29297V14.1797C8.54272 14.7305 8.83569 15.0703 9.37475 15.0703ZM16.2302 15.2109C16.699 15.2109 17.074 14.8243 17.074 14.3438V6.99609H18.5037C18.8904 6.99609 19.1951 6.69141 19.1951 6.28125C19.1951 5.89453 18.8904 5.58984 18.5037 5.58984H13.9099C13.4998 5.58984 13.1951 5.89453 13.1951 6.28125C13.1951 6.69141 13.4998 6.99609 13.9099 6.99609H15.3748V14.3438C15.3748 14.8243 15.7498 15.2109 16.2302 15.2109Z" fill="black" fill-opacity="0.85"/>
</g>
<defs>
<clipPath id="clip0_2207_20911">
<rect width="27.0352" height="20.4492" fill="white" transform="translate(0.0231934 0.09375)"/>
</clipPath>
</defs>
</svg>
