<svg width="24" height="25" viewBox="0 0 24 25" fill="none" xmlns="http://www.w3.org/2000/svg">
<g clip-path="url(#clip0_2207_20710)">
<path d="M11.9825 24C18.5216 24 23.9356 18.5742 23.9356 12.0469C23.9356 5.50781 18.5099 0.09375 11.9708 0.09375C5.44348 0.09375 0.0294189 5.50781 0.0294189 12.0469C0.0294189 18.5742 5.4552 24 11.9825 24Z" fill="black" fill-opacity="0.85"/>
<path d="M7.88098 16.711C7.35364 16.711 7.06067 16.3711 7.06067 15.8321V8.10937C7.06067 7.65234 7.43567 7.27734 7.8927 7.27734C8.34973 7.27734 8.72473 7.65234 8.72473 8.10937V15.293H11.1856C11.5606 15.293 11.8888 15.6094 11.8888 15.9961C11.8888 16.3829 11.5606 16.711 11.1856 16.711H7.88098ZM14.6075 16.8399C14.1388 16.8399 13.7521 16.4649 13.7521 15.9844V8.80078H12.3224C11.9239 8.80078 11.6192 8.49609 11.6192 8.09766C11.6192 7.71094 11.9239 7.40625 12.3224 7.40625H16.8341C17.2091 7.40625 17.5138 7.71094 17.5138 8.09766C17.5138 8.49609 17.2091 8.80078 16.8341 8.80078H15.4396V15.9844C15.4396 16.4649 15.0646 16.8399 14.6075 16.8399Z" fill="white"/>
</g>
<defs>
<clipPath id="clip0_2207_20710">
<rect width="23.9062" height="23.918" fill="white" transform="translate(0.0294189 0.09375)"/>
</clipPath>
</defs>
</svg>
