<svg width="24" height="25" viewBox="0 0 24 25" fill="none" xmlns="http://www.w3.org/2000/svg">
<g clip-path="url(#clip0_2207_20705)">
<path d="M11.9804 24C18.5195 24 23.9335 18.5742 23.9335 12.0469C23.9335 5.50781 18.5078 0.09375 11.9687 0.09375C5.4414 0.09375 0.0273438 5.50781 0.0273438 12.0469C0.0273438 18.5742 5.45312 24 11.9804 24ZM11.9804 22.0079C6.44922 22.0079 2.03125 17.5781 2.03125 12.0469C2.03125 6.51563 6.4375 2.08594 11.9687 2.08594C17.5 2.08594 21.9414 6.51563 21.9414 12.0469C21.9414 17.5781 17.5117 22.0079 11.9804 22.0079Z" fill="black" fill-opacity="0.85"/>
<path d="M7.79687 16.793H11.1718C11.5585 16.793 11.875 16.4766 11.875 16.0782C11.875 15.6915 11.5585 15.375 11.1718 15.375H8.66406V8.01563C8.66406 7.55859 8.27734 7.17188 7.80859 7.17188C7.35156 7.17188 6.96484 7.55859 6.96484 8.01563V15.9141C6.96484 16.4649 7.25781 16.793 7.79687 16.793ZM14.6523 16.9336C15.1211 16.9336 15.4961 16.5586 15.4961 16.0782V8.73047H16.9257C17.3125 8.73047 17.6171 8.41406 17.6171 8.01563C17.6171 7.62891 17.3125 7.3125 16.9257 7.3125H12.332C11.9335 7.3125 11.6171 7.62891 11.6171 8.01563C11.6171 8.41406 11.9335 8.73047 12.332 8.73047H13.7968V16.0782C13.7968 16.5586 14.1718 16.9336 14.6523 16.9336Z" fill="black" fill-opacity="0.85"/>
</g>
<defs>
<clipPath id="clip0_2207_20705">
<rect width="23.9062" height="23.918" fill="white" transform="translate(0.0273438 0.09375)"/>
</clipPath>
</defs>
</svg>
