<svg width="22" height="22" viewBox="0 0 22 22" fill="none" xmlns="http://www.w3.org/2000/svg">
<g clip-path="url(#clip0_2207_25081)">
<path d="M3.72168 21.6915H17.9365C20.3975 21.6915 21.6162 20.4727 21.6162 18.0585V3.75C21.6162 1.33594 20.3975 0.117188 17.9365 0.117188H3.72168C1.27246 0.117188 0.0419922 1.32422 0.0419922 3.75V18.0585C0.0419922 20.4844 1.27246 21.6915 3.72168 21.6915Z" fill="black" fill-opacity="0.85"/>
<path d="M6.13574 16.5C5.59668 16.5 5.26855 16.125 5.26855 15.504V6.24609C5.26855 5.57813 5.72558 5.12109 6.40527 5.12109C6.99121 5.12109 7.37793 5.39063 7.58887 5.90625L10.8115 13.9336H10.8701L14.0693 5.90625C14.292 5.39063 14.6787 5.12109 15.2647 5.12109C15.9326 5.12109 16.4014 5.57813 16.4014 6.24609V15.504C16.4014 16.1368 16.0732 16.5 15.499 16.5C14.9717 16.5 14.6436 16.125 14.6436 15.504V8.55469H14.5381L11.749 15.4922C11.5732 15.9258 11.2686 16.125 10.8232 16.125C10.3779 16.125 10.085 15.9258 9.89746 15.4922L7.13183 8.55469H7.02637V15.504C7.02637 16.1368 6.68652 16.5 6.13574 16.5Z" fill="white"/>
</g>
<defs>
<clipPath id="clip0_2207_25081">
<rect width="21.5742" height="21.5977" fill="white" transform="translate(0.0419922 0.09375)"/>
</clipPath>
</defs>
</svg>
