<svg width="28" height="22" viewBox="0 0 28 22" fill="none" xmlns="http://www.w3.org/2000/svg">
<g clip-path="url(#clip0_2207_20838)">
<path d="M9.29322 21.129H18.4572C25.2541 21.129 27.6916 18.6094 27.6916 12.3399V8.89453C27.6916 2.625 25.2541 0.09375 18.4572 0.09375H9.29322C2.49634 0.09375 0.0588379 2.625 0.0588379 8.89453V12.3399C0.0588379 18.6094 2.49634 21.129 9.29322 21.129Z" fill="black" fill-opacity="0.85"/>
<path d="M6.63306 15.6796C6.15259 15.6796 5.8479 15.3515 5.8479 14.8359V6.83203C5.8479 6.05859 6.32837 5.58984 7.10181 5.58984C7.75806 5.58984 8.16822 5.92969 8.344 6.60937L9.99634 13.1835H10.0432L11.6838 6.60937C11.8596 5.92969 12.2463 5.58984 12.9494 5.58984C13.7111 5.58984 14.1916 6.03516 14.1916 6.83203V14.8359C14.1916 15.3515 13.9221 15.6796 13.3947 15.6796C12.9143 15.6796 12.6213 15.3515 12.6213 14.8359V8.3203H12.551L10.9104 14.6835C10.7932 15.1757 10.5354 15.5039 10.0315 15.5039C9.53931 15.5039 9.24634 15.164 9.14087 14.6953L7.50025 8.3203H7.42993V14.8359C7.42993 15.3515 7.11353 15.6796 6.63306 15.6796ZM20.2736 15.6562C19.8869 15.6562 19.4299 15.4335 19.4299 14.789V13.5937H16.7229C16.1369 13.5937 15.7268 13.1953 15.7268 12.6093C15.7268 12.2343 15.8088 11.9179 16.008 11.4492L18.1526 6.76172C18.4924 6.01172 18.8908 5.57812 19.758 5.57812C20.5432 5.57812 21.094 6.04686 21.094 6.89062V12.1875H21.5276C22.008 12.1875 22.219 12.4921 22.219 12.8789C22.219 13.289 21.9963 13.5937 21.5276 13.5937H21.094V14.789C21.094 15.3749 20.7307 15.6562 20.2736 15.6562ZM19.465 12.2226V7.10156H19.4182L17.2268 12.1406V12.2226H19.465Z" fill="white"/>
</g>
<defs>
<clipPath id="clip0_2207_20838">
<rect width="27.6328" height="21.0586" fill="white" transform="translate(0.0588379 0.09375)"/>
</clipPath>
</defs>
</svg>
