<svg width="38" height="23" viewBox="0 0 38 23" fill="none" xmlns="http://www.w3.org/2000/svg">
<g clip-path="url(#clip0_2207_13987)">
<path d="M0.0671387 19.371C0.0671387 20.1093 0.664795 20.707 1.39136 20.707H32.5515C33.278 20.707 33.864 20.1093 33.864 19.371C33.864 18.6328 33.278 18.0351 32.5515 18.0351H29.9851V4.12499C29.9851 2.48436 29.1062 1.64062 27.4773 1.64062H6.46558C4.9187 1.64062 3.95776 2.48436 3.95776 4.12499V18.0351H1.39136C0.664795 18.0351 0.0671387 18.6328 0.0671387 19.371ZM5.84448 18.0351V4.65233C5.84448 3.90233 6.21948 3.52733 6.9812 3.52733H26.9616C27.7116 3.52733 28.0983 3.90233 28.0983 4.65233V18.0351H5.84448Z" fill="black" fill-opacity="0.85"/>
<path d="M21.2898 22.2305H31.6843C35.0593 22.2305 37.6023 19.254 37.6023 15.4571C37.6023 9.17578 31.9304 8.50781 26.4812 8.50781C21.0319 8.50781 15.3835 9.1875 15.3835 15.4571C15.3835 19.254 17.9148 22.2305 21.2898 22.2305Z" fill="white"/>
<path d="M26.4812 18.6796C27.6648 18.6796 29.0124 20.8593 31.6843 20.8593C34.2741 20.8593 36.2312 18.5156 36.2312 15.457C36.2312 10.4296 31.7898 9.86719 26.4812 9.86719C21.1843 9.86719 16.7546 10.4414 16.7546 15.457C16.7546 18.5156 18.6999 20.8593 21.2898 20.8593C23.9616 20.8593 25.2976 18.6796 26.4812 18.6796ZM26.4812 17.1445C24.3718 17.1445 23.4929 19.3242 21.2898 19.3242C19.4499 19.3242 18.2898 17.9179 18.2898 15.457C18.2898 11.789 21.3483 11.4023 26.4812 11.4023C31.6257 11.4023 34.696 11.7773 34.696 15.457C34.696 17.9179 33.5241 19.3242 31.6843 19.3242C29.4812 19.3242 28.6023 17.1445 26.4812 17.1445Z" fill="black" fill-opacity="0.85"/>
</g>
<defs>
<clipPath id="clip0_2207_13987">
<rect width="37.5352" height="22.1367" fill="white" transform="translate(0.0671387 0.09375)"/>
</clipPath>
</defs>
</svg>
