<svg width="29" height="15" viewBox="0 0 29 15" fill="none" xmlns="http://www.w3.org/2000/svg">
<g clip-path="url(#clip0_2207_13299)">
<path d="M23.1126 9.98437C23.9212 9.96094 24.6008 9.29297 24.6008 8.48437C24.6008 7.66406 23.9212 6.97266 23.1126 6.97266C22.3157 6.97266 21.6243 7.66406 21.6243 8.48437C21.6243 9.29297 22.3157 9.99609 23.1126 9.98437ZM3.75318 13.9219H25.093C27.5423 13.9219 28.7727 12.7031 28.7727 10.2891V3.71484C28.7727 1.3125 27.5423 0.09375 25.093 0.09375H3.75318C1.29224 0.09375 0.0734863 1.30078 0.0734863 3.71484V10.2891C0.0734863 12.7149 1.29224 13.9219 3.75318 13.9219ZM3.77661 12.0351C2.60474 12.0351 1.96021 11.4141 1.96021 10.1953V3.82031C1.96021 2.60156 2.60474 1.98047 3.77661 1.98047H25.0696C26.2297 1.98047 26.886 2.60156 26.886 3.82031V10.1953C26.886 11.4141 26.2297 12.0351 25.0696 12.0351H3.77661Z" fill="black" fill-opacity="0.85"/>
</g>
<defs>
<clipPath id="clip0_2207_13299">
<rect width="28.6992" height="13.957" fill="white" transform="translate(0.0734863 0.09375)"/>
</clipPath>
</defs>
</svg>
