<svg width="30" height="19" viewBox="0 0 30 19" fill="none" xmlns="http://www.w3.org/2000/svg">
<g clip-path="url(#clip0_2207_13217)">
<path d="M5.02392 14.4257C5.52783 14.4257 5.92627 14.0157 5.92627 13.5V4.83984C5.92627 4.34766 5.52783 3.9375 5.02392 3.9375C4.5083 3.9375 4.10986 4.34766 4.10986 4.83984V13.5C4.10986 14.0157 4.5083 14.4257 5.02392 14.4257ZM8.69189 13.7226C9.21924 13.7226 9.64111 13.2891 9.64111 12.7618C9.64111 12.246 9.21924 11.8007 8.69189 11.8007C8.17627 11.8007 7.73095 12.246 7.73095 12.7618C7.73095 13.2891 8.17627 13.7226 8.69189 13.7226ZM11.8442 13.7226C12.3598 13.7226 12.7934 13.2891 12.7934 12.7618C12.7934 12.246 12.3598 11.8007 11.8442 11.8007C11.3169 11.8007 10.8833 12.246 10.8833 12.7618C10.8833 13.2891 11.3169 13.7226 11.8442 13.7226ZM14.9965 13.7226C15.5122 13.7226 15.9458 13.2891 15.9458 12.7618C15.9458 12.246 15.5122 11.8007 14.9965 11.8007C14.4692 11.8007 14.0356 12.246 14.0356 12.7618C14.0356 13.2891 14.4692 13.7226 14.9965 13.7226ZM18.1372 13.7226C18.6411 13.7226 19.0747 13.2891 19.0747 12.7618C19.0747 12.246 18.6411 11.8007 18.1372 11.8007C17.6098 11.8007 17.188 12.246 17.188 12.7618C17.188 13.2891 17.6098 13.7226 18.1372 13.7226ZM21.2661 13.7226C21.7817 13.7226 22.2153 13.2891 22.2153 12.7618C22.2153 12.246 21.7817 11.8007 21.2661 11.8007C20.7387 11.8007 20.3169 12.246 20.3169 12.7618C20.3169 13.2891 20.7387 13.7226 21.2661 13.7226ZM10.2622 10.1368C10.7895 10.1368 11.2114 9.70313 11.2114 9.17578C11.2114 8.64844 10.7895 8.21484 10.2622 8.21484C9.74658 8.21484 9.31299 8.64844 9.31299 9.17578C9.31299 9.70313 9.74658 10.1368 10.2622 10.1368ZM13.4145 10.1368C13.9419 10.1368 14.3637 9.70313 14.3637 9.17578C14.3637 8.64844 13.9419 8.21484 13.4145 8.21484C12.8872 8.21484 12.4536 8.64844 12.4536 9.17578C12.4536 9.70313 12.8872 10.1368 13.4145 10.1368ZM16.5551 10.1368C17.0708 10.1368 17.5044 9.70313 17.5044 9.17578C17.5044 8.64844 17.0708 8.21484 16.5551 8.21484C16.0395 8.21484 15.6059 8.64844 15.6059 9.17578C15.6059 9.70313 16.0395 10.1368 16.5551 10.1368ZM19.6958 10.1368C20.1997 10.1368 20.6333 9.70313 20.6333 9.17578C20.6333 8.64844 20.1997 8.21484 19.6958 8.21484C19.1684 8.21484 18.7465 8.64844 18.7465 9.17578C18.7465 9.70313 19.1684 10.1368 19.6958 10.1368ZM8.69189 6.55078C9.21924 6.55078 9.64111 6.11719 9.64111 5.60156C9.64111 5.07422 9.21924 4.64063 8.69189 4.64063C8.17627 4.64063 7.73095 5.07422 7.73095 5.60156C7.73095 6.11719 8.17627 6.55078 8.69189 6.55078ZM11.8442 6.55078C12.3598 6.55078 12.7934 6.11719 12.7934 5.60156C12.7934 5.07422 12.3598 4.64063 11.8442 4.64063C11.3169 4.64063 10.8833 5.07422 10.8833 5.60156C10.8833 6.11719 11.3169 6.55078 11.8442 6.55078ZM14.9965 6.55078C15.5122 6.55078 15.9458 6.11719 15.9458 5.60156C15.9458 5.07422 15.5122 4.64063 14.9965 4.64063C14.4692 4.64063 14.0356 5.07422 14.0356 5.60156C14.0356 6.11719 14.4692 6.55078 14.9965 6.55078ZM18.1372 6.55078C18.6411 6.55078 19.0747 6.11719 19.0747 5.60156C19.0747 5.07422 18.6411 4.64063 18.1372 4.64063C17.6098 4.64063 17.188 5.07422 17.188 5.60156C17.188 6.11719 17.6098 6.55078 18.1372 6.55078ZM21.2661 6.55078C21.7817 6.55078 22.2153 6.11719 22.2153 5.60156C22.2153 5.07422 21.7817 4.64063 21.2661 4.64063C20.7387 4.64063 20.3169 5.07422 20.3169 5.60156C20.3169 6.11719 20.7387 6.55078 21.2661 6.55078ZM24.9341 14.4257C25.438 14.4257 25.8481 14.0157 25.8481 13.5V4.83984C25.8481 4.34766 25.438 3.9375 24.9341 3.9375C24.4301 3.9375 24.02 4.34766 24.02 4.83984V13.5C24.02 14.0157 24.4301 14.4257 24.9341 14.4257ZM3.77002 18.2929H26.2231C28.6723 18.2929 29.9028 17.0742 29.9028 14.6601V3.72656C29.9028 1.3125 28.6723 0.09375 26.2231 0.09375H3.77002C1.30908 0.09375 0.090332 1.3125 0.090332 3.72656V14.6601C0.090332 17.0742 1.30908 18.2929 3.77002 18.2929ZM3.79345 16.4062C2.62158 16.4062 1.97705 15.7734 1.97705 14.5547V3.83203C1.97705 2.61328 2.62158 1.98047 3.79345 1.98047H26.1997C27.3715 1.98047 28.0161 2.61328 28.0161 3.83203V14.5547C28.0161 15.7734 27.3598 16.4062 26.1997 16.4062H3.79345Z" fill="black" fill-opacity="0.85"/>
</g>
<defs>
<clipPath id="clip0_2207_13217">
<rect width="29.8125" height="18.2227" fill="white" transform="translate(0.090332 0.09375)"/>
</clipPath>
</defs>
</svg>
