<svg width="18" height="28" viewBox="0 0 18 28" fill="none" xmlns="http://www.w3.org/2000/svg">
<g clip-path="url(#clip0_2207_13205)">
<path d="M0.0839844 22.371C0.0839844 25.8165 3.24804 27.8554 8.60351 27.8554C13.959 27.8554 17.1231 25.8165 17.1231 22.371V5.58984C17.1231 4.23047 16.6309 3.12891 15.8106 2.35547C15.3887 1.91016 14.8613 1.89844 14.627 2.32031C14.0176 3.66797 11.4746 4.47656 8.60351 4.47656C5.73242 4.47656 3.17773 3.66797 2.56836 2.32031C2.33398 1.89844 1.80664 1.91016 1.39648 2.35547C0.576172 3.12891 0.0839844 4.23047 0.0839844 5.58984V22.371ZM8.60351 3.11719C11.2754 3.11719 13.4434 2.44922 13.4434 1.60547C13.4434 0.785156 11.2754 0.105469 8.60351 0.105469C5.93164 0.105469 3.76367 0.785156 3.76367 1.60547C3.76367 2.44922 5.93164 3.11719 8.60351 3.11719Z" fill="black" fill-opacity="0.85"/>
</g>
<defs>
<clipPath id="clip0_2207_13205">
<rect width="17.0391" height="27.7617" fill="white" transform="translate(0.0839844 0.09375)"/>
</clipPath>
</defs>
</svg>
