<svg width="25" height="31" viewBox="0 0 25 31" fill="none" xmlns="http://www.w3.org/2000/svg">
<g clip-path="url(#clip0_2207_13213)">
<path d="M3.76782 26.0625H20.6193C23.0686 26.0625 24.299 24.8438 24.299 22.4415V7.05469C24.299 4.62891 23.0686 3.42187 20.6193 3.42187H3.76782C1.30688 3.42187 0.0881348 4.62891 0.0881348 7.05469V22.4415C0.0881348 24.8554 1.30688 26.0625 3.76782 26.0625ZM10.8693 18.8204C10.3069 18.8204 9.92016 18.2929 9.47485 17.6719C8.93579 16.9219 8.52563 15.7617 8.52563 14.6601C8.52563 12.8789 9.66236 11.9531 10.799 11.9531C11.3967 11.9531 11.8889 12.3516 12.2639 12.3516C12.6272 12.3516 13.1779 11.9297 13.8576 11.9297C14.1272 11.9297 15.0529 11.9532 15.674 12.8321C15.6154 12.8672 14.6897 13.4062 14.6897 14.5781C14.6897 15.9141 15.8733 16.3829 15.9084 16.4062C15.885 16.4415 15.7326 17.0626 15.2873 17.6954C14.9006 18.246 14.4904 18.8204 13.8576 18.8204C13.26 18.8204 13.0842 18.4571 12.3693 18.4571C11.7014 18.4571 11.4319 18.8204 10.8693 18.8204ZM12.3225 11.8594C12.2639 11.8594 12.2287 11.8359 12.2053 11.8125C12.1936 11.8007 12.1936 11.7304 12.1936 11.6601C12.1936 11.1914 12.3928 10.7109 12.6623 10.4179C13.0139 10.043 13.5529 9.76172 14.01 9.73828C14.0334 9.78516 14.0334 9.84375 14.0334 9.91406C14.0334 10.3945 13.8342 10.8516 13.5529 11.1915C13.26 11.5665 12.7209 11.8594 12.3225 11.8594ZM3.24047 29.5429H7.51782C8.01001 29.5429 8.39672 29.1446 8.39672 28.6523C8.39672 28.1601 8.01001 27.7617 7.51782 27.7617H3.24047C2.76001 27.7617 2.36157 28.1601 2.36157 28.6523C2.36157 29.1446 2.76001 29.5429 3.24047 29.5429ZM4.49438 28.5938H6.26391V25.0665H4.49438V28.5938ZM16.8693 29.5429H21.1467C21.6389 29.5429 22.0256 29.1446 22.0256 28.6523C22.0256 28.1601 21.6389 27.7617 21.1467 27.7617H16.8693C16.3889 27.7617 15.9904 28.1601 15.9904 28.6523C15.9904 29.1446 16.3889 29.5429 16.8693 29.5429ZM18.1233 28.5938H19.8928V25.0665H18.1233V28.5938ZM4.49438 4.33594H6.26391V0.972656C6.26391 0.492188 5.87719 0.09375 5.38501 0.09375C4.89282 0.09375 4.49438 0.492188 4.49438 0.972656V4.33594ZM18.1233 4.33594H19.8928V0.972656C19.8928 0.492188 19.5061 0.09375 19.0139 0.09375C18.51 0.09375 18.1233 0.492188 18.1233 0.972656V4.33594Z" fill="black" fill-opacity="0.85"/>
</g>
<defs>
<clipPath id="clip0_2207_13213">
<rect width="24.2109" height="30.7852" fill="white" transform="translate(0.0881348 0.09375)"/>
</clipPath>
</defs>
</svg>
