<svg width="28" height="22" viewBox="0 0 28 22" fill="none" xmlns="http://www.w3.org/2000/svg">
<g clip-path="url(#clip0_2207_9820)">
<path d="M5.59375 7.19677C5.125 7.19677 4.78515 6.82177 4.78515 6.36474C4.78515 5.90771 5.125 5.55615 5.59375 5.55615H13.1523C13.6093 5.55615 13.9726 5.90771 13.9726 6.36474C13.9726 6.82177 13.6093 7.19677 13.1523 7.19677H5.59375ZM5.59375 10.3257C5.125 10.3257 4.78515 9.96241 4.78515 9.50537C4.78515 9.04834 5.125 8.68505 5.59375 8.68505H11.125C11.582 8.68505 11.9453 9.04834 11.9453 9.50537C11.9453 9.96241 11.582 10.3257 11.125 10.3257H5.59375ZM20.1015 10.6421C18.5546 10.6421 17.289 9.38818 17.289 7.82959C17.289 6.27099 18.5546 5.01709 20.1015 5.01709C21.6484 5.01709 22.9023 6.27099 22.9023 7.82959C22.9023 9.38818 21.6484 10.6421 20.1015 10.6421ZM3.70703 21.6694H23.9804C26.4414 21.6694 27.6601 20.4624 27.6601 18.0483V3.72802C27.6601 1.31396 26.4414 0.0952148 23.9804 0.0952148H3.70703C1.25781 0.0952148 0.0273438 1.31396 0.0273438 3.72802V18.0483C0.0273438 20.4624 1.25781 21.6694 3.70703 21.6694Z" fill="black" fill-opacity="0.85"/>
</g>
<defs>
<clipPath id="clip0_2207_9820">
<rect width="27.6328" height="21.5742" fill="white" transform="translate(0.0273438 0.0952148)"/>
</clipPath>
</defs>
</svg>
