<svg width="22" height="22" viewBox="0 0 22 22" fill="none" xmlns="http://www.w3.org/2000/svg">
<g clip-path="url(#clip0_2207_26013)">
<path d="M3.72168 21.6929H17.9365C20.3975 21.6929 21.6162 20.4741 21.6162 18.06V3.75146C21.6162 1.3374 20.3975 0.118652 17.9365 0.118652H3.72168C1.27246 0.118652 0.0419922 1.32568 0.0419922 3.75146V18.06C0.0419922 20.4858 1.27246 21.6929 3.72168 21.6929Z" fill="black" fill-opacity="0.85"/>
<path d="M7.31933 16.478C6.85058 16.478 6.51074 16.1733 6.51074 15.6694V11.7202C6.51074 8.54444 7.95215 6.73975 10.167 6.4585V5.2046C10.167 4.78272 10.4482 4.54834 10.835 4.54834C11.1748 4.54834 11.4912 4.78272 11.4912 5.2046V6.44678C13.7061 6.72803 15.1709 8.53272 15.1709 11.7202V15.6694C15.1709 16.1733 14.8545 16.478 14.374 16.478C13.917 16.478 13.6006 16.1733 13.6006 15.6694V11.8257C13.6006 9.54053 12.792 8.25147 11.4912 7.9585V15.81C11.4912 16.2085 11.1748 16.478 10.835 16.478C10.4482 16.478 10.167 16.2085 10.167 15.81V7.97022C8.88965 8.29834 8.10449 9.57569 8.10449 11.8257V15.6694C8.10449 16.1733 7.78808 16.478 7.31933 16.478Z" fill="white"/>
</g>
<defs>
<clipPath id="clip0_2207_26013">
<rect width="21.5742" height="21.5977" fill="white" transform="translate(0.0419922 0.0952148)"/>
</clipPath>
</defs>
</svg>
