<svg width="24" height="25" viewBox="0 0 24 25" fill="none" xmlns="http://www.w3.org/2000/svg">
<g clip-path="url(#clip0_2207_26003)">
<path d="M11.9909 24.0014C18.53 24.0014 23.944 18.5757 23.944 12.0483C23.944 5.50927 18.5183 0.0952148 11.9792 0.0952148C5.4519 0.0952148 0.0378418 5.50927 0.0378418 12.0483C0.0378418 18.5757 5.46362 24.0014 11.9909 24.0014Z" fill="black" fill-opacity="0.85"/>
<path d="M8.47534 17.6382C8.00659 17.6382 7.66675 17.3335 7.66675 16.8296V12.8804C7.66675 9.7046 9.10815 7.89991 11.323 7.61866V6.36475C11.323 5.94288 11.6042 5.7085 11.9909 5.7085C12.3308 5.7085 12.6472 5.94288 12.6472 6.36475V7.60694C14.862 7.88819 16.3269 9.69288 16.3269 12.8804V16.8296C16.3269 17.3335 15.9987 17.6382 15.53 17.6382C15.073 17.6382 14.7566 17.3335 14.7566 16.8296V12.9858C14.7566 10.7007 13.948 9.41163 12.6472 9.11866V16.9702C12.6472 17.3686 12.3308 17.6382 11.9909 17.6382C11.6042 17.6382 11.323 17.3686 11.323 16.9702V9.13038C10.0339 9.4585 9.2605 10.7358 9.2605 12.9858V16.8296C9.2605 17.3335 8.94409 17.6382 8.47534 17.6382Z" fill="white"/>
</g>
<defs>
<clipPath id="clip0_2207_26003">
<rect width="23.9062" height="23.918" fill="white" transform="translate(0.0378418 0.0952148)"/>
</clipPath>
</defs>
</svg>
