<svg width="24" height="25" viewBox="0 0 24 25" fill="none" xmlns="http://www.w3.org/2000/svg">
<g clip-path="url(#clip0_2207_12986)">
<path d="M12.0014 24.0014C18.5405 24.0014 23.9545 18.5757 23.9545 12.0483C23.9545 5.50927 18.5288 0.0952148 11.9897 0.0952148C5.4624 0.0952148 0.0483398 5.50927 0.0483398 12.0483C0.0483398 18.5757 5.47412 24.0014 12.0014 24.0014Z" fill="black" fill-opacity="0.85"/>
<path d="M5.42725 17.2749V8.80225C5.42725 8.38038 5.59131 8.07569 5.96631 7.86475L8.95459 6.15381C9.0835 6.09522 9.2124 6.02491 9.31787 5.96631V16.4077L6.66943 17.8374C6.47022 17.9429 6.30615 18.0132 6.14209 18.0132C5.68506 18.0132 5.42725 17.7436 5.42725 17.2749ZM10.1733 16.2905V5.86084C10.3139 5.88428 10.4194 5.93116 10.5366 6.00147L13.6421 7.89991V18.189C13.56 18.1655 13.4545 18.1304 13.3491 18.0835L10.1733 16.2905ZM14.5092 18.1772V7.78272L17.2866 6.24756C17.4858 6.13038 17.6499 6.0835 17.8139 6.0835C18.2592 6.0835 18.5288 6.3296 18.5288 6.81006V15.2944C18.5288 15.7046 18.353 16.0093 17.978 16.2319L14.6967 18.0952C14.6264 18.1304 14.5678 18.1538 14.5092 18.1772Z" fill="white"/>
</g>
<defs>
<clipPath id="clip0_2207_12986">
<rect width="23.9062" height="23.918" fill="white" transform="translate(0.0483398 0.0952148)"/>
</clipPath>
</defs>
</svg>
