<svg width="24" height="25" viewBox="0 0 24 25" fill="none" xmlns="http://www.w3.org/2000/svg">
<g clip-path="url(#clip0_2207_12920)">
<path d="M12.0141 24.0014C18.5532 24.0014 23.9672 18.5757 23.9672 12.0483C23.9672 5.50927 18.5415 0.0952148 12.0024 0.0952148C5.47509 0.0952148 0.0610352 5.50927 0.0610352 12.0483C0.0610352 18.5757 5.48682 24.0014 12.0141 24.0014ZM12.0141 22.0093C6.48292 22.0093 2.06495 17.5796 2.06495 12.0483C2.06495 6.5171 6.47119 2.0874 12.0024 2.0874C17.5337 2.0874 21.9751 6.5171 21.9751 12.0483C21.9751 17.5796 17.5454 22.0093 12.0141 22.0093Z" fill="black" fill-opacity="0.85"/>
<path d="M9.33057 7.66552C9.33057 8.84912 10.1157 9.85693 11.1938 10.1968V16.0913C11.1938 17.8022 11.4751 19.3257 12.0024 19.3257C12.5415 19.3257 12.7993 17.8257 12.7993 16.0913V10.1968C13.8891 9.86865 14.6743 8.86083 14.6743 7.66552C14.6743 6.18896 13.479 4.99365 12.0024 4.99365C10.5376 4.99365 9.33057 6.18896 9.33057 7.66552ZM10.4672 6.97412C10.4555 6.51709 10.8657 6.11865 11.311 6.11865C11.7798 6.11865 12.1665 6.51709 12.1665 6.97412C12.1665 7.43115 11.7798 7.82959 11.311 7.82959C10.8657 7.82959 10.4672 7.43115 10.4672 6.97412Z" fill="black" fill-opacity="0.85"/>
</g>
<defs>
<clipPath id="clip0_2207_12920">
<rect width="23.9062" height="23.918" fill="white" transform="translate(0.0610352 0.0952148)"/>
</clipPath>
</defs>
</svg>
