<svg width="9" height="26" viewBox="0 0 9 26" fill="none" xmlns="http://www.w3.org/2000/svg">
<g clip-path="url(#clip0_2207_12915)">
<path d="M0.0524902 4.51319C0.0524902 6.57569 1.44702 8.29834 3.35718 8.7788V19.6538C3.35718 23.1108 3.97827 24.9975 4.44702 24.9975C4.92749 24.9975 5.53687 23.1225 5.53687 19.6538V8.7788C7.44702 8.31005 8.85327 6.57569 8.85327 4.51319C8.85327 2.0874 6.89624 0.0952148 4.44702 0.0952148C2.00952 0.0952148 0.0524902 2.0874 0.0524902 4.51319Z" fill="black" fill-opacity="0.85"/>
<path d="M3.19311 4.75928C2.38452 4.75928 1.6814 4.05616 1.6814 3.23584C1.6814 2.42725 2.38452 1.73584 3.19311 1.73584C4.01343 1.73584 4.69311 2.42725 4.69311 3.23584C4.69311 4.05616 4.01343 4.75928 3.19311 4.75928Z" fill="white"/>
</g>
<defs>
<clipPath id="clip0_2207_12915">
<rect width="8.80078" height="25.7461" fill="white" transform="translate(0.0524902 0.0952148)"/>
</clipPath>
</defs>
</svg>
