<svg width="22" height="22" viewBox="0 0 22 22" fill="none" xmlns="http://www.w3.org/2000/svg">
<g id="mappin.square" clip-path="url(#clip0_2124_13479)">
<g id="Group">
<path id="Vector" d="M3.67969 21.5977H17.8945C20.3555 21.5977 21.5742 20.3789 21.5742 17.9648V3.65625C21.5742 1.24219 20.3555 0.0234375 17.8945 0.0234375H3.67969C1.23047 0.0234375 0 1.23047 0 3.65625V17.9648C0 20.3906 1.23047 21.5977 3.67969 21.5977ZM3.70312 19.7109C2.53125 19.7109 1.88672 19.0898 1.88672 17.8711V3.75C1.88672 2.53125 2.53125 1.91016 3.70312 1.91016H17.8711C19.0312 1.91016 19.6875 2.53125 19.6875 3.75V17.8711C19.6875 19.0898 19.0312 19.7109 17.8711 19.7109H3.70312Z" fill="black" fill-opacity="0.85"/>
<path id="Vector_2" d="M8.12109 6.41016C8.12109 7.59375 8.90625 8.60156 9.98438 8.94141V14.8359C9.98438 16.5469 10.2656 18.0703 10.793 18.0703C11.332 18.0703 11.5898 16.5703 11.5898 14.8359V8.94141C12.6914 8.61328 13.4648 7.60547 13.4648 6.41016C13.4648 4.93359 12.2695 3.73828 10.793 3.73828C9.32812 3.73828 8.12109 4.93359 8.12109 6.41016ZM9.25781 5.71875C9.24609 5.26172 9.65625 4.86328 10.1016 4.86328C10.5703 4.86328 10.9688 5.26172 10.957 5.71875C10.957 6.17578 10.5703 6.57422 10.1016 6.57422C9.65625 6.57422 9.25781 6.17578 9.25781 5.71875Z" fill="black" fill-opacity="0.85"/>
</g>
</g>
<defs>
<clipPath id="clip0_2124_13479">
<rect width="21.5742" height="21.5977" fill="white"/>
</clipPath>
</defs>
</svg>
