<svg width="23" height="30" viewBox="0 0 23 30" fill="none" xmlns="http://www.w3.org/2000/svg">
<g clip-path="url(#clip0_2207_12956)">
<path d="M11.1992 27.7632C17.7031 27.7632 22.3086 25.6538 22.3086 22.6304C22.3086 19.6186 17.7031 17.5093 11.1992 17.5093C4.6836 17.5093 0.0546875 19.6186 0.0546875 22.6304C0.0546875 25.6538 4.6836 27.7632 11.1992 27.7632ZM11.1875 25.9116C6.26563 25.9116 2.44531 24.4819 2.44531 22.6304C2.44531 20.8022 6.26563 19.3725 11.1875 19.3725C16.0859 19.3725 19.9297 20.814 19.9297 22.6304C19.9297 24.4585 16.0859 25.9116 11.1875 25.9116Z" fill="black" fill-opacity="0.85"/>
<path d="M11.1875 24.189C13.168 24.189 14.1992 22.2905 14.1992 18.5991V12.0366C16.1797 10.9585 17.5156 8.86084 17.5156 6.44677C17.5156 2.96631 14.6914 0.0952148 11.1875 0.0952148C7.67188 0.0952148 4.84766 2.96631 4.84766 6.44677C4.84766 8.86084 6.17188 10.9468 8.15235 12.0366V18.5991C8.15235 22.2905 9.20703 24.189 11.1875 24.189Z" fill="white"/>
<path d="M6.78125 6.44678C6.78125 8.50928 8.1875 10.2319 10.0977 10.7124V18.1304C10.0977 21.5874 10.707 23.4741 11.1875 23.4741C11.6563 23.4741 12.2656 21.5991 12.2656 18.1304V10.7124C14.1758 10.2436 15.582 8.50928 15.582 6.44678C15.582 4.021 13.625 2.02881 11.1875 2.02881C8.73828 2.02881 6.78125 4.021 6.78125 6.44678ZM9.92188 6.69288C9.125 6.69288 8.42188 5.98975 8.42188 5.16944C8.42188 4.36084 9.125 3.66944 9.92188 3.66944C10.7539 3.66944 11.4336 4.36084 11.4336 5.16944C11.4336 5.98975 10.7539 6.69288 9.92188 6.69288Z" fill="black" fill-opacity="0.85"/>
<path d="M9.92188 6.69287C9.12499 6.69287 8.42188 5.98974 8.42188 5.16943C8.42188 4.36083 9.12499 3.66943 9.92188 3.66943C10.7539 3.66943 11.4336 4.36083 11.4336 5.16943C11.4336 5.98974 10.7539 6.69287 9.92188 6.69287Z" fill="white"/>
</g>
<defs>
<clipPath id="clip0_2207_12956">
<rect width="22.2539" height="29.6133" fill="white" transform="translate(0.0546875 0.0952148)"/>
</clipPath>
</defs>
</svg>
