<svg width="9" height="26" viewBox="0 0 9 26" fill="none" xmlns="http://www.w3.org/2000/svg">
<g id="mappin" clip-path="url(#clip0_2124_13459)">
<g id="Group">
<path id="Vector" d="M0 4.41797C0 6.48047 1.39453 8.20312 3.30469 8.68359V19.5586C3.30469 23.0156 3.92578 24.9023 4.39453 24.9023C4.875 24.9023 5.48438 23.0273 5.48438 19.5586V8.68359C7.39453 8.21484 8.80078 6.48047 8.80078 4.41797C8.80078 1.99219 6.84375 0 4.39453 0C1.95703 0 0 1.99219 0 4.41797Z" fill="black" fill-opacity="0.85"/>
<path id="Vector_2" d="M3.14062 4.66407C2.33203 4.66407 1.62891 3.96095 1.62891 3.14062C1.62891 2.33204 2.33203 1.64062 3.14062 1.64062C3.96094 1.64062 4.64062 2.33204 4.64062 3.14062C4.64062 3.96095 3.96094 4.66407 3.14062 4.66407Z" fill="white"/>
</g>
</g>
<defs>
<clipPath id="clip0_2124_13459">
<rect width="8.80078" height="25.7461" fill="white"/>
</clipPath>
</defs>
</svg>
