<svg width="24" height="24" viewBox="0 0 24 24" fill="none" xmlns="http://www.w3.org/2000/svg">
<g id="mappin.and.ellipse.circle" clip-path="url(#clip0_2124_13512)">
<g id="Group">
<path id="Vector" d="M11.9531 23.9062C18.4922 23.9062 23.9062 18.4805 23.9062 11.9531C23.9062 5.41406 18.4805 0 11.9414 0C5.41406 0 0 5.41406 0 11.9531C0 18.4805 5.42578 23.9062 11.9531 23.9062ZM11.9531 21.9141C6.42188 21.9141 2.00391 17.4844 2.00391 11.9531C2.00391 6.42188 6.41016 1.99219 11.9414 1.99219C17.4727 1.99219 21.9141 6.42188 21.9141 11.9531C21.9141 17.4844 17.4844 21.9141 11.9531 21.9141Z" fill="black" fill-opacity="0.85"/>
<path id="Vector_2" d="M9.50391 7.05469C9.50391 8.16797 10.2539 9.11719 11.2852 9.41016V13.3828C11.2852 15.2227 11.6016 16.2773 11.9414 16.2773C12.293 16.2773 12.6094 15.2461 12.6094 13.3828V9.41016C13.6289 9.11719 14.3789 8.16797 14.3789 7.05469C14.3789 5.70703 13.3008 4.61719 11.9414 4.61719C10.582 4.61719 9.50391 5.70703 9.50391 7.05469ZM11.2617 7.16016C10.8633 7.16016 10.4766 6.80859 10.4766 6.375C10.4766 5.94141 10.8633 5.58984 11.2617 5.58984C11.707 5.58984 12.0586 5.94141 12.0586 6.375C12.0586 6.80859 11.707 7.16016 11.2617 7.16016ZM11.9414 18.5742C15.75 18.5742 17.9883 17.2383 17.9883 15.7969C17.9883 14.0391 15.1992 13.0195 13.4414 13.0312V14.1094C14.6602 14.0977 16.5703 14.7539 16.5703 15.6445C16.5703 16.6758 14.6367 17.4258 11.9414 17.4258C9.23438 17.4258 7.32422 16.6758 7.32422 15.6445C7.32422 14.7539 9.22266 14.0977 10.4414 14.1094V13.0312C8.68359 13.0195 5.89453 14.0391 5.89453 15.7969C5.89453 17.2383 8.13281 18.5742 11.9414 18.5742Z" fill="black" fill-opacity="0.85"/>
</g>
</g>
<defs>
<clipPath id="clip0_2124_13512">
<rect width="23.9062" height="23.918" fill="white"/>
</clipPath>
</defs>
</svg>
