<svg width="24" height="24" viewBox="0 0 24 24" fill="none" xmlns="http://www.w3.org/2000/svg">
<g id="mappin.slash.circle.fill" clip-path="url(#clip0_2124_13502)">
<g id="Group">
<path id="&#244;&#129;&#135;&#176;" d="M11.955 23.91C10.3219 23.91 8.78263 23.5975 7.33709 22.9724C5.89936 22.3473 4.62963 21.4838 3.5279 20.3821C2.42616 19.2804 1.56275 18.0106 0.937647 16.5729C0.312549 15.1274 0 13.5881 0 11.955C0 10.3219 0.312549 8.78653 0.937647 7.34881C1.56275 5.90327 2.42226 4.62963 3.51618 3.5279C4.61791 2.42616 5.88764 1.56275 7.32537 0.937647C8.77091 0.312549 10.3102 0 11.9433 0C13.5763 0 15.1157 0.312549 16.5612 0.937647C18.0067 1.56275 19.2804 2.42616 20.3821 3.5279C21.4838 4.62963 22.3473 5.90327 22.9724 7.34881C23.5975 8.78653 23.91 10.3219 23.91 11.955C23.91 13.5881 23.5975 15.1274 22.9724 16.5729C22.3473 18.0106 21.4838 19.2804 20.3821 20.3821C19.2804 21.4838 18.0067 22.3473 16.5612 22.9724C15.1235 23.5975 13.5881 23.91 11.955 23.91ZM12.7403 10.1617C13.2872 9.98985 13.7365 9.66949 14.0881 9.20066C14.4476 8.73184 14.6273 8.1966 14.6273 7.59494C14.6273 7.09486 14.5062 6.64167 14.264 6.23535C14.0217 5.82904 13.6936 5.50477 13.2794 5.26254C12.8731 5.02032 12.4238 4.89921 11.9316 4.89921C11.3299 4.89921 10.7947 5.07892 10.3258 5.43835C9.85701 5.78997 9.54056 6.23926 9.37647 6.78622L12.7403 10.1617ZM10.3962 6.87999C10.3883 6.65339 10.4704 6.45414 10.6423 6.28224C10.822 6.11033 11.0213 6.02438 11.24 6.02438C11.4745 6.02438 11.6737 6.11033 11.8378 6.28224C12.0097 6.45414 12.0956 6.65339 12.0956 6.87999C12.0956 7.10658 12.0097 7.30583 11.8378 7.47774C11.6737 7.64964 11.4745 7.73559 11.24 7.73559C11.0213 7.73559 10.8259 7.64964 10.654 7.47774C10.4821 7.30583 10.3962 7.10658 10.3962 6.87999ZM11.1228 13.1505V15.9986C11.1228 16.569 11.1541 17.1003 11.2166 17.5926C11.2791 18.0849 11.369 18.4834 11.4862 18.7881C11.6034 19.085 11.7518 19.2335 11.9316 19.2335C12.1113 19.2335 12.2597 19.085 12.3769 18.7881C12.4941 18.4912 12.5801 18.0966 12.6348 17.6043C12.6973 17.1121 12.7286 16.5768 12.7286 15.9986V14.7562L11.1228 13.1505ZM17.4051 18.1669C17.5067 18.2685 17.6317 18.3193 17.7801 18.3193C17.9286 18.3193 18.0536 18.2685 18.1552 18.1669C18.2646 18.0575 18.3193 17.9325 18.3193 17.7919C18.3193 17.6512 18.2646 17.5262 18.1552 17.4168L6.48149 5.73137C6.37209 5.62979 6.24317 5.579 6.09471 5.579C5.95406 5.579 5.82904 5.62979 5.71965 5.73137C5.61807 5.84076 5.56728 5.96969 5.56728 6.11815C5.56728 6.26661 5.61807 6.38772 5.71965 6.48149L17.4051 18.1669Z" fill="black" fill-opacity="0.85"/>
</g>
</g>
<defs>
<clipPath id="clip0_2124_13502">
<rect width="23.9062" height="23.918" fill="white"/>
</clipPath>
</defs>
</svg>
