<svg width="23" height="27" viewBox="0 0 23 27" fill="none" xmlns="http://www.w3.org/2000/svg">
<g clip-path="url(#clip0_2207_3265)">
<path d="M11.2256 26.5327C15.3506 26.5327 18.6787 23.2046 18.6787 19.0913C18.6787 14.9663 15.3506 11.6382 11.2256 11.6382C7.11234 11.6382 3.78421 14.9663 3.78421 19.0913C3.78421 23.2046 7.11234 26.5327 11.2256 26.5327ZM9.10452 22.9233C8.65921 23.2514 8.19046 22.9116 8.36624 22.396L9.20999 19.8764L7.05374 18.3413C6.64359 18.0366 6.77249 17.4624 7.33499 17.4624L9.98343 17.4858L10.792 14.9546C10.956 14.439 11.5185 14.439 11.6826 14.9546L12.4912 17.4858L15.1396 17.4624C15.7021 17.4624 15.8193 18.0483 15.4209 18.3296L13.2646 19.8764L14.1084 22.396C14.2842 22.9116 13.8154 23.2514 13.3701 22.9233L11.2373 21.3647L9.10452 22.9233ZM4.0889 13.5132C5.23734 12.06 6.81937 10.9585 8.63577 10.4194L3.32718 0.880371L0.245146 5.57959C0.0342084 5.88427 0.0224896 6.22412 0.20999 6.5288L4.0889 13.5132ZM8.60062 6.42334H13.8623L17.4365 0.0952148H5.0264L8.60062 6.42334ZM13.8271 10.4194C15.6553 10.9585 17.2256 12.06 18.374 13.5132L22.2646 6.5288C22.4404 6.22412 22.4287 5.88427 22.2178 5.57959L19.1357 0.880371L13.8271 10.4194Z" fill="black" fill-opacity="0.85"/>
</g>
<defs>
<clipPath id="clip0_2207_3265">
<rect width="22.3095" height="26.4492" fill="white" transform="translate(0.0776367 0.0952148)"/>
</clipPath>
</defs>
</svg>
