<svg width="26" height="27" viewBox="0 0 26 27" fill="none" xmlns="http://www.w3.org/2000/svg">
<g clip-path="url(#clip0_2207_17864)">
<path d="M2.32035 21.561L4.54691 23.7876L5.87113 22.4516C8.85941 19.4282 12.5039 20.4595 15.668 17.2954L24.2813 8.68212C26.2148 6.73681 26.2148 3.74853 24.2813 1.82666C22.3594 -0.106935 19.3594 -0.106935 17.4258 1.82666L8.81254 10.4399C5.48441 13.7681 6.67972 17.2368 3.668 20.2251L2.32035 21.561ZM7.26566 17.1079C7.89847 15.3032 8.33207 13.4282 10.0664 11.6938L18.6797 3.08056C19.9102 1.83837 21.8086 1.85009 23.0391 3.06884C24.2578 4.29931 24.2695 6.18603 23.0273 7.42822L14.4141 16.0415C12.668 17.7876 10.8633 18.2681 9.1055 18.9477L7.26566 17.1079ZM0.609411 23.272C-0.105432 23.9868 -0.0819948 24.8306 0.609411 25.5102C1.27738 26.1899 2.14457 26.2016 2.84769 25.4985L3.45707 24.9009L1.20707 22.6743L0.609411 23.272ZM12.8789 13.2641C13.582 13.979 14.7422 13.9673 15.457 13.2524L18.9023 9.78369C19.6406 9.04541 19.6289 7.89697 18.9023 7.20556C18.1875 6.46728 17.0391 6.50244 16.3242 7.20556L12.8789 10.6626C12.1641 11.3657 12.1523 12.5376 12.8789 13.2641ZM13.6289 12.5024C13.3242 12.1977 13.3242 11.729 13.6289 11.4126L17.0742 7.95556C17.3438 7.68603 17.7539 7.66259 18.0469 7.89697C18.4453 8.1665 18.4922 8.69384 18.1523 9.03369L14.7188 12.4907C14.4023 12.7954 13.9219 12.7954 13.6289 12.5024ZM10.4063 14.3774L11.7305 15.6899C12.0352 15.9946 12.457 15.9477 12.7031 15.7016C12.9727 15.4321 13.0078 15.022 12.7031 14.7173L11.3789 13.4048C11.0859 13.1235 10.6641 13.1352 10.4063 13.4048C10.1602 13.6626 10.1133 14.0962 10.4063 14.3774ZM16.8164 2.98681L23.1211 9.2915L24.0234 8.37744L17.7188 2.06103L16.8164 2.98681Z" fill="black" fill-opacity="0.85"/>
</g>
<defs>
<clipPath id="clip0_2207_17864">
<rect width="25.6495" height="25.9277" fill="white" transform="translate(0.0820312 0.0952148)"/>
</clipPath>
</defs>
</svg>
