<svg width="27" height="26" viewBox="0 0 27 26" fill="none" xmlns="http://www.w3.org/2000/svg">
<g clip-path="url(#clip0_2207_5390)">
<path d="M4.99829 17.1694H7.51782V5.9663H4.99829C1.79907 5.9663 0.0881348 7.63037 0.0881348 10.7124V12.4233C0.0881348 15.4936 1.79907 17.1694 4.99829 17.1694ZM9.12329 17.1811C12.4397 17.5444 16.5881 18.5171 19.8108 20.0991C19.8108 19.9819 19.8108 19.853 19.8108 19.7358V3.43505C19.8108 3.29443 19.8108 3.17724 19.8108 3.03662C16.5529 4.63037 12.1467 5.63818 9.12329 5.9663V17.1811ZM23.7951 22.9585C25.2248 22.9585 26.1858 21.9858 26.1858 20.5796V2.48583C26.1858 1.06787 25.2248 0.0952148 23.7951 0.0952148C22.3889 0.0952148 21.4162 1.06787 21.4162 2.48583V20.5796C21.4162 21.9858 22.3889 22.9585 23.7951 22.9585ZM9.66235 25.103C11.1154 25.103 12.1819 24.0835 11.8069 22.2788L11.1506 19.1264C10.26 18.9741 8.93579 18.8686 5.97094 18.7866C5.76002 18.7866 5.39672 18.7632 5.02172 18.7632L6.99047 23.064C7.57641 24.3413 8.30297 25.103 9.66235 25.103Z" fill="black" fill-opacity="0.85"/>
</g>
<defs>
<clipPath id="clip0_2207_5390">
<rect width="26.0977" height="25.0195" fill="white" transform="translate(0.0881348 0.0952148)"/>
</clipPath>
</defs>
</svg>
