<svg width="26" height="21" viewBox="0 0 26 21" fill="none" xmlns="http://www.w3.org/2000/svg">
<g clip-path="url(#clip0_2207_13072)">
<path d="M3.77832 18.2007H21.5322C23.9931 18.2007 25.2119 16.9819 25.2119 14.5679V6.04834C25.2119 3.63427 23.9931 2.41552 21.5322 2.41552H3.77832C1.3291 2.41552 0.0986328 3.62256 0.0986328 6.04834V14.5679C0.0986328 16.9936 1.3291 18.2007 3.77832 18.2007ZM4.1416 3.18896H6.02832V1.05615C6.02832 0.493653 5.6416 0.118652 5.0791 0.118652C4.5166 0.118652 4.1416 0.493653 4.1416 1.05615V3.18896ZM7.92675 3.18896H9.81347V1.05615C9.81347 0.493653 9.42675 0.118652 8.86425 0.118652C8.30175 0.118652 7.92675 0.493653 7.92675 1.05615V3.18896ZM11.7119 3.18896H13.5986V1.05615C13.5986 0.493653 13.2119 0.118652 12.6494 0.118652C12.0869 0.118652 11.7119 0.493653 11.7119 1.05615V3.18896ZM15.497 3.18896H17.3838V1.05615C17.3838 0.493653 17.0088 0.118652 16.4463 0.118652C15.8838 0.118652 15.497 0.493653 15.497 1.05615V3.18896ZM19.2822 3.18896H21.1689V1.05615C21.1689 0.493653 20.7939 0.118652 20.2314 0.118652C19.6689 0.118652 19.2822 0.493653 19.2822 1.05615V3.18896ZM4.1416 17.4507V19.5483C4.1416 20.1108 4.5166 20.4975 5.0791 20.4975C5.6416 20.4975 6.02832 20.1108 6.02832 19.5483V17.4507H4.1416ZM7.92675 17.4507V19.5483C7.92675 20.1108 8.30175 20.4975 8.86425 20.4975C9.42675 20.4975 9.81347 20.1108 9.81347 19.5483V17.4507H7.92675ZM11.7119 17.4507V19.5483C11.7119 20.1108 12.0869 20.4975 12.6494 20.4975C13.2119 20.4975 13.5986 20.1108 13.5986 19.5483V17.4507H11.7119ZM15.497 17.4507V19.5483C15.497 20.1108 15.8838 20.4975 16.4463 20.4975C17.0088 20.4975 17.3838 20.1108 17.3838 19.5483V17.4507H15.497ZM19.2822 17.4507V19.5483C19.2822 20.1108 19.6689 20.4975 20.2314 20.4975C20.7939 20.4975 21.1689 20.1108 21.1689 19.5483V17.4507H19.2822Z" fill="black" fill-opacity="0.85"/>
</g>
<defs>
<clipPath id="clip0_2207_13072">
<rect width="25.1133" height="20.4023" fill="white" transform="translate(0.0986328 0.0952148)"/>
</clipPath>
</defs>
</svg>
