<svg width="28" height="22" viewBox="0 0 28 22" fill="none" xmlns="http://www.w3.org/2000/svg">
<g clip-path="url(#clip0_2207_19515)">
<path d="M1.25806 4.0459V5.69824H26.3831V4.0459H1.25806ZM3.68384 21.6709H23.9573C26.4183 21.6709 27.6369 20.4639 27.6369 18.0498V3.72949C27.6369 1.31543 26.4183 0.0966797 23.9573 0.0966797H3.68384C1.23462 0.0966797 0.00415039 1.31543 0.00415039 3.72949V18.0498C0.00415039 20.4639 1.23462 21.6709 3.68384 21.6709ZM3.70727 19.7842C2.5354 19.7842 1.89087 19.1631 1.89087 17.9444V3.83496C1.89087 2.61621 2.5354 1.9834 3.70727 1.9834H23.9339C25.094 1.9834 25.7502 2.61621 25.7502 3.83496V17.9444C25.7502 19.1631 25.094 19.7842 23.9339 19.7842H3.70727Z" fill="black" fill-opacity="0.85"/>
<path d="M5.04321 16.913C5.04321 17.5224 5.46509 17.9325 6.08618 17.9325H21.5901C22.2112 17.9325 22.6331 17.5224 22.6331 16.913V15.1552C22.6331 14.5458 22.2112 14.1357 21.5901 14.1357H6.08618C5.46509 14.1357 5.04321 14.5458 5.04321 15.1552V16.913Z" fill="black" fill-opacity="0.85"/>
</g>
<defs>
<clipPath id="clip0_2207_19515">
<rect width="27.6328" height="21.5742" fill="white" transform="translate(0.00415039 0.0966797)"/>
</clipPath>
</defs>
</svg>
