<svg width="19" height="27" viewBox="0 0 19 27" fill="none" xmlns="http://www.w3.org/2000/svg">
<g clip-path="url(#clip0_2207_1591)">
<path d="M2.22754 24.3597L15.0479 26.6214C17.3447 27.0316 18.7393 25.7542 18.7393 23.2347V9.09019C18.7393 6.79331 17.5674 5.96128 15.2822 5.56284L2.83692 3.35972C1.12598 3.06675 0.0126953 3.99253 0.0126953 5.68003V21.805C0.0126953 23.2581 0.750976 24.1019 2.22754 24.3597ZM4.33692 9.86362C3.93848 9.79331 3.70411 9.48862 3.70411 9.06675C3.70411 8.56284 4.09082 8.23472 4.65332 8.32847L13.9111 9.94565C14.333 10.0394 14.5674 10.2737 14.5674 10.7425C14.5674 11.2464 14.2158 11.598 13.6416 11.5042L4.33692 9.86362ZM4.33692 14.5745C3.93848 14.5042 3.70411 14.1995 3.70411 13.7777C3.70411 13.2855 4.09082 12.9573 4.65332 13.0511L13.9111 14.6683C14.333 14.7503 14.5674 14.9964 14.5674 15.4534C14.5674 15.9691 14.2158 16.3206 13.6416 16.2269L4.33692 14.5745ZM5.42676 2.19956L15.5635 3.98081C16.5596 4.16831 17.3916 4.43784 18.0713 4.81284V3.89878C18.0713 1.43784 16.4189 0.254246 13.6416 0.746434L5.42676 2.19956Z" fill="black" fill-opacity="0.85"/>
</g>
<defs>
<clipPath id="clip0_2207_1591">
<rect width="18.7266" height="26.6004" fill="white" transform="translate(0.0126953 0.0966797)"/>
</clipPath>
</defs>
</svg>
