<svg width="28" height="22" viewBox="0 0 28 22" fill="none" xmlns="http://www.w3.org/2000/svg">
<g clip-path="url(#clip0_2207_19531)">
<path d="M1.25391 4.0459V5.69824H26.3789V4.0459H1.25391ZM3.67969 21.6709H23.9531C26.4141 21.6709 27.6328 20.4639 27.6328 18.0498V3.72949C27.6328 1.31543 26.4141 0.0966797 23.9531 0.0966797H3.67969C1.23047 0.0966797 0 1.31543 0 3.72949V18.0498C0 20.4639 1.23047 21.6709 3.67969 21.6709ZM3.70312 19.7842C2.53125 19.7842 1.88672 19.1631 1.88672 17.9444V3.83496C1.88672 2.61621 2.53125 1.9834 3.70312 1.9834H23.9297C25.0898 1.9834 25.7461 2.61621 25.7461 3.83496V17.9444C25.7461 19.1631 25.0898 19.7842 23.9297 19.7842H3.70312Z" fill="black" fill-opacity="0.85"/>
<path d="M13.8281 7.95996C13.3242 7.95996 12.8906 8.37012 12.8906 8.8623V12.7295L12.9727 14.6983L11.9648 13.6436L10.4414 12.1201C10.2539 11.9444 10.0195 11.8389 9.78516 11.8389C9.29297 11.8389 8.94141 12.1787 8.94141 12.6709C8.94141 12.9405 9.04688 13.1397 9.24609 13.3272L13.1484 16.96C13.3945 17.1826 13.582 17.2764 13.8281 17.2764C14.0625 17.2764 14.2617 17.1826 14.5078 16.96L18.3984 13.3272C18.6094 13.1397 18.7148 12.9405 18.7148 12.6709C18.7148 12.1787 18.3516 11.8389 17.8477 11.8389C17.6133 11.8389 17.3906 11.9444 17.2148 12.1201L15.6914 13.6436L14.6836 14.6983L14.7539 12.7295V8.8623C14.7539 8.37012 14.332 7.95996 13.8281 7.95996Z" fill="black" fill-opacity="0.85"/>
</g>
<defs>
<clipPath id="clip0_2207_19531">
<rect width="27.6328" height="21.5742" fill="white" transform="translate(0 0.0966797)"/>
</clipPath>
</defs>
</svg>
