<svg width="23" height="27" viewBox="0 0 23 27" fill="none" xmlns="http://www.w3.org/2000/svg">
<g id="mic.slash" clip-path="url(#clip0_2201_66)">
<g id="Group">
<path id="Vector" d="M2.78027 12.3867C2.78027 16.9805 5.80371 20.2031 10.2803 20.5781V23.3086H5.9209C5.42871 23.3086 5.04199 23.707 5.04199 24.1992C5.04199 24.6914 5.42871 25.0781 5.9209 25.0781H16.3975C16.8896 25.0781 17.2764 24.6914 17.2764 24.1992C17.2764 23.707 16.8896 23.3086 16.3975 23.3086H12.0498V20.5781C16.5146 20.2031 19.5498 16.9805 19.5498 12.3867V10.0078C19.5498 9.51562 19.1514 9.12891 18.6592 9.12891C18.167 9.12891 17.7803 9.51562 17.7803 10.0078V12.3164C17.7803 16.3125 15.167 18.9609 11.1592 18.9609C7.15137 18.9609 4.5498 16.3125 4.5498 12.3164V10.0078C4.5498 9.51562 4.15137 9.12891 3.65918 9.12891C3.16699 9.12891 2.78027 9.51562 2.78027 10.0078V12.3867ZM6.89355 11.9648C6.89355 14.6602 8.63965 16.5586 11.1592 16.5586C13.6904 16.5586 15.4248 14.6602 15.4248 11.9648V4.59375C15.4248 1.88672 13.6904 0 11.1592 0C8.63965 0 6.89355 1.88672 6.89355 4.59375V11.9648ZM8.66309 11.9648V4.59375C8.66309 2.85938 9.65918 1.74609 11.1592 1.74609C12.6592 1.74609 13.6553 2.85938 13.6553 4.59375V11.9648C13.6553 13.6992 12.6592 14.8125 11.1592 14.8125C9.65918 14.8125 8.66309 13.6992 8.66309 11.9648Z" fill="black" fill-opacity="0.85"/>
<path id="Vector_2" d="M18.7998 22.6992C19.6904 23.5898 21.1553 23.5898 22.0225 22.6758C22.8896 21.7969 22.8896 20.3789 22.0107 19.4883L3.88184 1.38281C3.00293 0.492188 1.5498 0.492188 0.65918 1.38281C-0.219727 2.25 -0.219727 3.71484 0.65918 4.59375L18.7998 22.6992Z" fill="white"/>
<path id="Vector_3" d="M19.7725 21.7383C20.124 22.0898 20.6982 22.0898 21.0498 21.7383C21.3896 21.375 21.4014 20.8125 21.0498 20.4609L2.9209 2.34377C2.56934 2.00393 1.9834 1.99221 1.63184 2.34377C1.29199 2.69533 1.29199 3.28127 1.63184 3.62111L19.7725 21.7383Z" fill="black" fill-opacity="0.85"/>
</g>
</g>
<defs>
<clipPath id="clip0_2201_66">
<rect width="22.6714" height="26.7539" fill="white"/>
</clipPath>
</defs>
</svg>
