<svg width="22" height="22" viewBox="0 0 22 22" fill="none" xmlns="http://www.w3.org/2000/svg">
<g clip-path="url(#clip0_2207_5763)">
<path d="M3.75318 21.6944H17.968C20.429 21.6944 21.6477 20.4756 21.6477 18.0615V3.75293C21.6477 1.33887 20.429 0.120117 17.968 0.120117H3.75318C1.30396 0.120117 0.0734863 1.32715 0.0734863 3.75293V18.0615C0.0734863 20.4873 1.30396 21.6944 3.75318 21.6944Z" fill="black" fill-opacity="0.85"/>
<path d="M7.79614 18.1436C7.44457 18.1436 7.13989 17.8506 7.13989 17.499C7.13989 17.1475 7.44457 16.8428 7.79614 16.8428H10.2219V15.624C7.81957 15.3545 6.20239 13.5264 6.20239 11.0655V9.50684C6.20239 9.16699 6.50707 8.87402 6.84692 8.87402C7.19848 8.87402 7.47973 9.16699 7.47973 9.50684V11.0655C7.47973 13.0459 8.87426 14.4405 10.8665 14.4405C12.8704 14.4405 14.2649 13.0459 14.2649 11.0655V9.50684C14.2649 9.16699 14.5462 8.87402 14.8977 8.87402C15.2376 8.87402 15.5423 9.16699 15.5423 9.50684V11.0655C15.5423 13.5264 13.9368 15.3428 11.5344 15.624V16.8428H13.9485C14.3001 16.8428 14.6047 17.1475 14.6047 17.499C14.6047 17.8389 14.2883 18.1436 13.9485 18.1436H7.79614ZM10.8665 13.2217C9.68286 13.2217 8.86254 12.2959 8.86254 11.0655V5.88574C8.86254 4.66699 9.68286 3.76465 10.8665 3.76465C12.0501 3.76465 12.8704 4.66699 12.8704 5.88574V11.0655C12.8704 12.2959 12.0501 13.2217 10.8665 13.2217Z" fill="white"/>
</g>
<defs>
<clipPath id="clip0_2207_5763">
<rect width="21.5742" height="21.5977" fill="white" transform="translate(0.0734863 0.0966797)"/>
</clipPath>
</defs>
</svg>
