<svg width="22" height="22" viewBox="0 0 22 22" fill="none" xmlns="http://www.w3.org/2000/svg">
<g clip-path="url(#clip0_2207_5758)">
<path d="M3.75098 21.6944H17.9658C20.4268 21.6944 21.6455 20.4756 21.6455 18.0615V3.75293C21.6455 1.33887 20.4268 0.120117 17.9658 0.120117H3.75098C1.30176 0.120117 0.0712891 1.32715 0.0712891 3.75293V18.0615C0.0712891 20.4873 1.30176 21.6944 3.75098 21.6944ZM3.77441 19.8076C2.60254 19.8076 1.95801 19.1865 1.95801 17.9678V3.84668C1.95801 2.62793 2.60254 2.00684 3.77441 2.00684H17.9424C19.1025 2.00684 19.7588 2.62793 19.7588 3.84668V17.9678C19.7588 19.1865 19.1025 19.8076 17.9424 19.8076H3.77441Z" fill="black" fill-opacity="0.85"/>
<path d="M7.8877 17.9326H13.8525C14.1807 17.9326 14.4854 17.6279 14.4854 17.2998C14.4854 16.96 14.1924 16.667 13.8525 16.667H11.5088V15.4834C13.8408 15.2139 15.3994 13.4444 15.3994 11.0655V9.55371C15.3994 9.22559 15.1065 8.94434 14.7783 8.94434C14.4385 8.94434 14.1572 9.22559 14.1572 9.55371V11.0655C14.1572 12.9873 12.8096 14.335 10.8643 14.335C8.93067 14.335 7.58301 12.9873 7.58301 11.0655V9.55371C7.58301 9.22559 7.30176 8.94434 6.96191 8.94434C6.62207 8.94434 6.34082 9.22559 6.34082 9.55371V11.0655C6.34082 13.4444 7.91113 15.2256 10.2432 15.4834V16.667H7.8877C7.54785 16.667 7.25488 16.96 7.25488 17.2998C7.25488 17.6397 7.54785 17.9326 7.8877 17.9326ZM10.8643 13.1514C12.0127 13.1514 12.8096 12.2608 12.8096 11.0655V6.03809C12.8096 4.85449 12.0127 3.97559 10.8643 3.97559C9.71582 3.97559 8.91895 4.85449 8.91895 6.03809V11.0655C8.91895 12.2608 9.71582 13.1514 10.8643 13.1514Z" fill="black" fill-opacity="0.85"/>
</g>
<defs>
<clipPath id="clip0_2207_5758">
<rect width="21.5742" height="21.5977" fill="white" transform="translate(0.0712891 0.0966797)"/>
</clipPath>
</defs>
</svg>
