<svg width="17" height="27" viewBox="0 0 17 27" fill="none" xmlns="http://www.w3.org/2000/svg">
<g id="mic" clip-path="url(#clip0_2201_38)">
<g id="Group">
<path id="Vector" d="M0 12.3867C0 16.9805 3.03516 20.2031 7.5 20.5781V23.3086H3.15234C2.66016 23.3086 2.26172 23.707 2.26172 24.1992C2.26172 24.6914 2.66016 25.0781 3.15234 25.0781H13.6172C14.1094 25.0781 14.5078 24.6914 14.5078 24.1992C14.5078 23.707 14.1094 23.3086 13.6172 23.3086H9.26953V20.5781C13.7461 20.2031 16.7695 16.9805 16.7695 12.3867V10.0078C16.7695 9.51562 16.3828 9.12891 15.8906 9.12891C15.3984 9.12891 15 9.51562 15 10.0078V12.3164C15 16.3125 12.3984 18.9609 8.39062 18.9609C4.37109 18.9609 1.76953 16.3125 1.76953 12.3164V10.0078C1.76953 9.51562 1.38281 9.12891 0.878906 9.12891C0.386719 9.12891 0 9.51562 0 10.0078V12.3867ZM4.125 11.9648C4.125 14.6602 5.85938 16.5586 8.39062 16.5586C10.9102 16.5586 12.6445 14.6602 12.6445 11.9648V4.59375C12.6445 1.88672 10.9102 0 8.39062 0C5.85938 0 4.125 1.88672 4.125 4.59375V11.9648ZM5.89453 11.9648V4.59375C5.89453 2.85938 6.89062 1.74609 8.39062 1.74609C9.89062 1.74609 10.875 2.85938 10.875 4.59375V11.9648C10.875 13.6992 9.89062 14.8125 8.39062 14.8125C6.89062 14.8125 5.89453 13.6992 5.89453 11.9648Z" fill="black" fill-opacity="0.85"/>
</g>
</g>
<defs>
<clipPath id="clip0_2201_38">
<rect width="16.7695" height="26.7539" fill="white"/>
</clipPath>
</defs>
</svg>
