<svg width="25" height="25" viewBox="0 0 25 25" fill="none" xmlns="http://www.w3.org/2000/svg">
<g clip-path="url(#clip0_2207_17830)">
<path d="M12.3281 19.7959C16.4648 19.7959 19.7695 16.4912 19.7695 12.3662C19.7695 8.25293 16.4414 4.94824 12.3164 4.94824C8.20312 4.94824 4.92187 8.24121 4.92187 12.3662C4.92187 16.5029 8.21484 19.7959 12.3281 19.7959ZM12.3632 2.53418C13.0312 2.53418 13.5703 1.99512 13.5703 1.31543C13.5703 0.635742 13.0312 0.0966797 12.3632 0.0966797C11.6836 0.0966797 11.1445 0.635742 11.1445 1.31543C11.1445 1.99512 11.6836 2.53418 12.3632 2.53418ZM17.8828 4.02246C18.5508 4.02246 19.0898 3.4834 19.0898 2.80371C19.0898 2.12402 18.5508 1.58496 17.8828 1.58496C17.2031 1.58496 16.664 2.12402 16.664 2.80371C16.664 3.4834 17.2031 4.02246 17.8828 4.02246ZM21.9375 8.06543C22.6054 8.06543 23.1445 7.52637 23.1445 6.84668C23.1445 6.16699 22.6054 5.62793 21.9375 5.62793C21.2578 5.62793 20.7187 6.16699 20.7187 6.84668C20.7187 7.52637 21.2578 8.06543 21.9375 8.06543ZM23.4258 13.5967C24.0937 13.5967 24.6328 13.0576 24.6328 12.3779C24.6328 11.6983 24.0937 11.1592 23.4258 11.1592C22.7461 11.1592 22.207 11.6983 22.207 12.3779C22.207 13.0576 22.7461 13.5967 23.4258 13.5967ZM21.9375 19.1279C22.6054 19.1279 23.1445 18.5889 23.1445 17.9092C23.1445 17.2295 22.6054 16.6905 21.9375 16.6905C21.2578 16.6905 20.7187 17.2295 20.7187 17.9092C20.7187 18.5889 21.2578 19.1279 21.9375 19.1279ZM17.8828 23.1709C18.5508 23.1709 19.0898 22.6319 19.0898 21.9522C19.0898 21.2725 18.5508 20.7334 17.8828 20.7334C17.2031 20.7334 16.664 21.2725 16.664 21.9522C16.664 22.6319 17.2031 23.1709 17.8828 23.1709ZM12.3632 24.6592C13.0312 24.6592 13.5703 24.1084 13.5703 23.4405C13.5703 22.7608 13.0312 22.2217 12.3632 22.2217C11.6836 22.2217 11.1445 22.7608 11.1445 23.4405C11.1445 24.1084 11.6836 24.6592 12.3632 24.6592ZM6.84375 23.1709C7.51172 23.1709 8.0625 22.6319 8.0625 21.9522C8.0625 21.2725 7.51172 20.7334 6.84375 20.7334C6.16406 20.7334 5.625 21.2725 5.625 21.9522C5.625 22.6319 6.16406 23.1709 6.84375 23.1709ZM2.78906 19.1279C3.45703 19.1279 4.00781 18.5889 4.00781 17.9092C4.00781 17.2295 3.45703 16.6905 2.78906 16.6905C2.10937 16.6905 1.57031 17.2295 1.57031 17.9092C1.57031 18.5889 2.10937 19.1279 2.78906 19.1279ZM1.30078 13.5967C1.98047 13.5967 2.51953 13.0576 2.51953 12.3779C2.51953 11.6983 1.98047 11.1592 1.30078 11.1592C0.621093 11.1592 0.0820312 11.6983 0.0820312 12.3779C0.0820312 13.0576 0.621093 13.5967 1.30078 13.5967ZM2.78906 8.06543C3.45703 8.06543 4.00781 7.52637 4.00781 6.84668C4.00781 6.16699 3.45703 5.62793 2.78906 5.62793C2.10937 5.62793 1.57031 6.16699 1.57031 6.84668C1.57031 7.52637 2.10937 8.06543 2.78906 8.06543ZM6.84375 4.02246C7.51172 4.02246 8.0625 3.4834 8.0625 2.80371C8.0625 2.12402 7.51172 1.58496 6.84375 1.58496C6.16406 1.58496 5.625 2.12402 5.625 2.80371C5.625 3.4834 6.16406 4.02246 6.84375 4.02246Z" fill="black" fill-opacity="0.85"/>
</g>
<defs>
<clipPath id="clip0_2207_17830">
<rect width="24.5508" height="24.5742" fill="white" transform="translate(0.0820312 0.0966797)"/>
</clipPath>
</defs>
</svg>
