<svg width="25" height="25" viewBox="0 0 25 25" fill="none" xmlns="http://www.w3.org/2000/svg">
<g clip-path="url(#clip0_2207_17826)">
<path d="M12.3218 19.7959C16.4585 19.7959 19.7632 16.4912 19.7632 12.3662C19.7632 8.25293 16.4351 4.94824 12.3101 4.94824C8.19677 4.94824 4.91552 8.24121 4.91552 12.3662C4.91552 16.5029 8.20849 19.7959 12.3218 19.7959ZM12.3218 17.8389C9.28662 17.8389 6.86084 15.4248 6.86084 12.3662C6.86084 9.31934 9.2749 6.89356 12.3101 6.89356C15.3569 6.89356 17.8062 9.33106 17.8062 12.3662C17.8062 15.4131 15.3804 17.8389 12.3218 17.8389ZM12.3569 2.53418C13.0249 2.53418 13.564 1.99512 13.564 1.31543C13.564 0.635742 13.0249 0.0966797 12.3569 0.0966797C11.6773 0.0966797 11.1382 0.635742 11.1382 1.31543C11.1382 1.99512 11.6773 2.53418 12.3569 2.53418ZM17.8765 4.02246C18.5445 4.02246 19.0835 3.4834 19.0835 2.80371C19.0835 2.12402 18.5445 1.58496 17.8765 1.58496C17.1968 1.58496 16.6577 2.12402 16.6577 2.80371C16.6577 3.4834 17.1968 4.02246 17.8765 4.02246ZM21.9312 8.06543C22.5991 8.06543 23.1382 7.52637 23.1382 6.84668C23.1382 6.16699 22.5991 5.62793 21.9312 5.62793C21.2515 5.62793 20.7124 6.16699 20.7124 6.84668C20.7124 7.52637 21.2515 8.06543 21.9312 8.06543ZM23.4195 13.5967C24.0874 13.5967 24.6265 13.0576 24.6265 12.3779C24.6265 11.6983 24.0874 11.1592 23.4195 11.1592C22.7398 11.1592 22.2007 11.6983 22.2007 12.3779C22.2007 13.0576 22.7398 13.5967 23.4195 13.5967ZM21.9312 19.1279C22.5991 19.1279 23.1382 18.5889 23.1382 17.9092C23.1382 17.2295 22.5991 16.6905 21.9312 16.6905C21.2515 16.6905 20.7124 17.2295 20.7124 17.9092C20.7124 18.5889 21.2515 19.1279 21.9312 19.1279ZM17.8765 23.1709C18.5445 23.1709 19.0835 22.6319 19.0835 21.9522C19.0835 21.2725 18.5445 20.7334 17.8765 20.7334C17.1968 20.7334 16.6577 21.2725 16.6577 21.9522C16.6577 22.6319 17.1968 23.1709 17.8765 23.1709ZM12.3569 24.6592C13.0249 24.6592 13.564 24.1084 13.564 23.4405C13.564 22.7608 13.0249 22.2217 12.3569 22.2217C11.6773 22.2217 11.1382 22.7608 11.1382 23.4405C11.1382 24.1084 11.6773 24.6592 12.3569 24.6592ZM6.8374 23.1709C7.50537 23.1709 8.05615 22.6319 8.05615 21.9522C8.05615 21.2725 7.50537 20.7334 6.8374 20.7334C6.15771 20.7334 5.61865 21.2725 5.61865 21.9522C5.61865 22.6319 6.15771 23.1709 6.8374 23.1709ZM2.78271 19.1279C3.45068 19.1279 4.00146 18.5889 4.00146 17.9092C4.00146 17.2295 3.45068 16.6905 2.78271 16.6905C2.10302 16.6905 1.56396 17.2295 1.56396 17.9092C1.56396 18.5889 2.10302 19.1279 2.78271 19.1279ZM1.29443 13.5967C1.97412 13.5967 2.51318 13.0576 2.51318 12.3779C2.51318 11.6983 1.97412 11.1592 1.29443 11.1592C0.614746 11.1592 0.0756836 11.6983 0.0756836 12.3779C0.0756836 13.0576 0.614746 13.5967 1.29443 13.5967ZM2.78271 8.06543C3.45068 8.06543 4.00146 7.52637 4.00146 6.84668C4.00146 6.16699 3.45068 5.62793 2.78271 5.62793C2.10302 5.62793 1.56396 6.16699 1.56396 6.84668C1.56396 7.52637 2.10302 8.06543 2.78271 8.06543ZM6.8374 4.02246C7.50537 4.02246 8.05615 3.4834 8.05615 2.80371C8.05615 2.12402 7.50537 1.58496 6.8374 1.58496C6.15771 1.58496 5.61865 2.12402 5.61865 2.80371C5.61865 3.4834 6.15771 4.02246 6.8374 4.02246Z" fill="black" fill-opacity="0.85"/>
</g>
<defs>
<clipPath id="clip0_2207_17826">
<rect width="24.5508" height="24.5742" fill="white" transform="translate(0.0756836 0.0966797)"/>
</clipPath>
</defs>
</svg>
