<svg width="24" height="25" viewBox="0 0 24 25" fill="none" xmlns="http://www.w3.org/2000/svg">
<g clip-path="url(#clip0_2207_17839)">
<path d="M12.0329 24.0029C18.572 24.0029 23.986 18.5772 23.986 12.0498C23.986 5.51074 18.5603 0.0966797 12.0212 0.0966797C5.49389 0.0966797 0.079834 5.51074 0.079834 12.0498C0.079834 18.5772 5.50561 24.0029 12.0329 24.0029Z" fill="black" fill-opacity="0.85"/>
<path d="M12.0446 16.2217C9.7478 16.2217 7.8728 14.3467 7.8728 12.0498C7.8728 9.75293 9.7478 7.87793 12.0446 7.87793C14.3415 7.87793 16.2165 9.75293 16.2165 12.0498C16.2165 14.3467 14.3415 16.2217 12.0446 16.2217ZM12.0564 6.78809C11.5642 6.78809 11.2009 6.4248 11.2009 5.90918C11.2009 5.41699 11.5642 5.05371 12.0564 5.05371C12.5486 5.05371 12.9118 5.41699 12.9118 5.90918C12.9118 6.4248 12.5486 6.78809 12.0564 6.78809ZM15.1384 7.59668C14.6345 7.59668 14.2712 7.2334 14.2712 6.72949C14.2712 6.2373 14.6345 5.87402 15.1384 5.87402C15.6306 5.87402 15.9939 6.2373 15.9939 6.72949C15.9939 7.2334 15.6306 7.59668 15.1384 7.59668ZM17.3767 9.84668C16.8728 9.84668 16.5095 9.4834 16.5095 8.97949C16.5095 8.4873 16.8728 8.12402 17.3767 8.12402C17.8689 8.12402 18.2321 8.4873 18.2321 8.97949C18.2321 9.4834 17.8689 9.84668 17.3767 9.84668ZM18.197 12.9053C17.6931 12.9053 17.3298 12.542 17.3298 12.0498C17.3298 11.5576 17.6931 11.1944 18.197 11.1944C18.6892 11.1944 19.0525 11.5576 19.0525 12.0498C19.0525 12.542 18.6892 12.9053 18.197 12.9053ZM17.3767 15.9756C16.8728 15.9756 16.5095 15.6123 16.5095 15.1201C16.5095 14.6162 16.8728 14.2529 17.3767 14.2529C17.8689 14.2529 18.2321 14.6162 18.2321 15.1201C18.2321 15.6123 17.8689 15.9756 17.3767 15.9756ZM15.1384 18.2256C14.6345 18.2256 14.2712 17.8623 14.2712 17.3584C14.2712 16.8545 14.6345 16.4912 15.1384 16.4912C15.6306 16.4912 15.9939 16.8545 15.9939 17.3584C15.9939 17.8623 15.6306 18.2256 15.1384 18.2256ZM12.0564 19.0342C11.5642 19.0342 11.2009 18.6709 11.2009 18.1787C11.2009 17.6748 11.5642 17.3115 12.0564 17.3115C12.5486 17.3115 12.9118 17.6748 12.9118 18.1787C12.9118 18.6709 12.5486 19.0342 12.0564 19.0342ZM8.98608 18.2256C8.49389 18.2256 8.13061 17.8623 8.13061 17.3584C8.13061 16.8545 8.49389 16.4912 8.98608 16.4912C9.48999 16.4912 9.85327 16.8545 9.85327 17.3584C9.85327 17.8623 9.48999 18.2256 8.98608 18.2256ZM6.73608 15.9756C6.24389 15.9756 5.88061 15.6123 5.88061 15.1201C5.88061 14.6162 6.24389 14.2529 6.73608 14.2529C7.25171 14.2529 7.61499 14.6162 7.61499 15.1201C7.61499 15.6123 7.25171 15.9756 6.73608 15.9756ZM5.92749 12.9053C5.4353 12.9053 5.07202 12.542 5.07202 12.0498C5.07202 11.5576 5.4353 11.1944 5.92749 11.1944C6.43139 11.1944 6.79467 11.5576 6.79467 12.0498C6.79467 12.542 6.43139 12.9053 5.92749 12.9053ZM6.73608 9.84668C6.24389 9.84668 5.88061 9.4834 5.88061 8.97949C5.88061 8.4873 6.24389 8.12402 6.73608 8.12402C7.25171 8.12402 7.61499 8.4873 7.61499 8.97949C7.61499 9.4834 7.25171 9.84668 6.73608 9.84668ZM8.98608 7.59668C8.49389 7.59668 8.13061 7.2334 8.13061 6.72949C8.13061 6.2373 8.49389 5.87402 8.98608 5.87402C9.48999 5.87402 9.85327 6.2373 9.85327 6.72949C9.85327 7.2334 9.48999 7.59668 8.98608 7.59668Z" fill="white"/>
</g>
<defs>
<clipPath id="clip0_2207_17839">
<rect width="23.9062" height="23.918" fill="white" transform="translate(0.079834 0.0966797)"/>
</clipPath>
</defs>
</svg>
