<svg width="24" height="25" viewBox="0 0 24 25" fill="none" xmlns="http://www.w3.org/2000/svg">
<g clip-path="url(#clip0_2207_25955)">
<path d="M12.0454 24.0029C18.5845 24.0029 23.9985 18.5772 23.9985 12.0498C23.9985 5.51074 18.5728 0.0966797 12.0337 0.0966797C5.50634 0.0966797 0.0922852 5.51074 0.0922852 12.0498C0.0922852 18.5772 5.51807 24.0029 12.0454 24.0029Z" fill="black" fill-opacity="0.85"/>
<path d="M8.20166 16.4209C7.75634 16.4209 7.43994 16.1162 7.43994 15.6826V8.82714C7.43994 8.37011 7.74462 8.06542 8.1665 8.06542C8.57666 8.06542 8.88134 8.33496 8.88134 8.8623V9.00292C9.24462 8.33495 9.80712 8.03026 10.4868 8.03026C11.2603 8.03026 11.8579 8.3584 12.1978 9.0498L13.6743 5.45215C13.7915 5.18262 13.9673 5.01855 14.2368 5.01855C14.565 5.01855 14.8345 5.25292 14.8345 5.56933C14.8345 5.68651 14.7993 5.8037 14.7642 5.89745L13.8384 8.12401C14.0025 8.06542 14.1665 8.03026 14.3657 8.03026C15.772 8.03026 16.6743 9.01465 16.6743 10.6319V15.6475C16.6743 16.1162 16.3579 16.4209 15.9243 16.4209C15.4907 16.4209 15.1861 16.1162 15.1861 15.6475V10.749C15.1861 9.91698 14.7525 9.38964 14.0142 9.38964C13.2642 9.38964 12.8071 9.94042 12.8071 10.7959V15.6475C12.8071 16.1162 12.5025 16.4209 12.0571 16.4209C11.6235 16.4209 11.3189 16.1162 11.3189 15.6475V14.5928L9.854 18.6475C9.74853 18.9287 9.54931 19.0928 9.27978 19.0928C8.95166 19.0928 8.70556 18.8467 8.70556 18.5303C8.70556 18.4131 8.729 18.2959 8.77587 18.1905L11.3189 11.1592V10.667C11.3189 9.91699 10.8501 9.37792 10.1821 9.37792C9.40869 9.37792 8.93994 9.97558 8.93994 10.8545V15.6475C8.93994 16.1162 8.63525 16.4209 8.20166 16.4209Z" fill="white"/>
</g>
<defs>
<clipPath id="clip0_2207_25955">
<rect width="23.9062" height="23.918" fill="white" transform="translate(0.0922852 0.0966797)"/>
</clipPath>
</defs>
</svg>
