<svg width="35" height="22" viewBox="0 0 35 22" fill="none" xmlns="http://www.w3.org/2000/svg">
<g clip-path="url(#clip0_2207_17438)">
<path d="M32.8996 18.7539C33.7316 18.7539 34.4348 18.0743 34.4348 17.2774C34.4348 16.4688 33.7434 15.8008 32.8996 15.8008C32.0559 15.8008 31.3645 16.4688 31.3645 17.2774C31.3645 18.0743 32.0676 18.7539 32.8996 18.7539ZM32.8996 13.5508C33.4738 13.5508 33.884 13.1524 33.9074 12.5547L34.1418 4.25782C34.1652 3.50782 33.673 3.00391 32.8996 3.00391C32.1262 3.00391 31.634 3.50782 31.6574 4.25782L31.9035 12.5547C31.927 13.1524 32.3254 13.5508 32.8996 13.5508Z" fill="black" fill-opacity="0.85"/>
<path d="M6.00513 13.2461H10.8918C11.3723 13.2461 11.7473 12.8711 11.7473 12.3907C11.7473 11.8985 11.3723 11.5235 10.8918 11.5235H6.00513C5.52466 11.5235 5.13794 11.8985 5.13794 12.3907C5.13794 12.8711 5.52466 13.2461 6.00513 13.2461ZM19.2004 15.918C19.6809 15.918 20.0559 15.543 20.0559 15.0625V13.2461H21.8723C22.3527 13.2461 22.7395 12.8711 22.7395 12.3907C22.7395 11.8985 22.3527 11.5235 21.8723 11.5235H20.0559V9.70704C20.0559 9.22657 19.6809 8.83985 19.2004 8.83985C18.7199 8.83985 18.3332 9.22657 18.3332 9.70704V11.5235H16.5168C16.0363 11.5235 15.6613 11.8985 15.6613 12.3907C15.6613 12.8711 16.0363 13.2461 16.5168 13.2461H18.3332V15.0625C18.3332 15.543 18.7199 15.918 19.2004 15.918ZM3.69654 21.6719H23.9699C26.4309 21.6719 27.6496 20.4649 27.6496 18.0508V6.71875C27.6496 4.30469 26.4309 3.09766 23.9699 3.09766H22.3527V1.52735C22.3527 0.636718 21.8371 0.0976562 20.9348 0.0976562H17.4777C16.5871 0.0976562 16.0715 0.636718 16.0715 1.52735V3.09766H11.6066V1.52735C11.6066 0.636718 11.091 0.0976562 10.1887 0.0976562H6.73169C5.82935 0.0976562 5.32544 0.636718 5.32544 1.52735V3.09766H3.69654C1.24732 3.09766 0.0168457 4.30469 0.0168457 6.71875V18.0508C0.0168457 20.4649 1.24732 21.6719 3.69654 21.6719ZM1.90357 17.9454V6.82422C1.90357 5.60547 2.5481 4.98438 3.71997 4.98438H23.9465C25.1066 4.98438 25.7629 5.60547 25.7629 6.82422V17.9454C25.7629 19.1641 25.1066 19.7852 23.9465 19.7852H3.71997C2.5481 19.7852 1.90357 19.1641 1.90357 17.9454Z" fill="black" fill-opacity="0.85"/>
</g>
<defs>
<clipPath id="clip0_2207_17438">
<rect width="34.418" height="21.5977" fill="white" transform="translate(0.0168457 0.0976562)"/>
</clipPath>
</defs>
</svg>
