<svg width="24" height="25" viewBox="0 0 24 25" fill="none" xmlns="http://www.w3.org/2000/svg">
<g clip-path="url(#clip0_2207_22810)">
<path d="M11.9553 24.0039C18.4944 24.0039 23.9084 18.5782 23.9084 12.0508C23.9084 5.51172 18.4827 0.0976562 11.9436 0.0976562C5.41626 0.0976562 0.00219727 5.51172 0.00219727 12.0508C0.00219727 18.5782 5.42798 24.0039 11.9553 24.0039Z" fill="black" fill-opacity="0.85"/>
<path d="M7.23267 13.0821C6.54126 13.0821 6.07251 12.7188 6.07251 12.0743C6.07251 11.418 6.51782 11.043 7.23267 11.043H16.7014C17.4045 11.043 17.8381 11.418 17.8381 12.0743C17.8381 12.7188 17.3811 13.0821 16.7014 13.0821H7.23267Z" fill="white"/>
</g>
<defs>
<clipPath id="clip0_2207_22810">
<rect width="23.9062" height="23.918" fill="white" transform="translate(0.00219727 0.0976562)"/>
</clipPath>
</defs>
</svg>
