<svg width="34" height="27" viewBox="0 0 34 27" fill="none" xmlns="http://www.w3.org/2000/svg">
<g clip-path="url(#clip0_2207_17473)">
<path d="M31.7307 20.9454C32.5745 20.9454 33.2659 20.2657 33.2659 19.4688C33.2659 18.6602 32.5862 17.9922 31.7307 17.9922C30.887 17.9922 30.1956 18.6602 30.1956 19.4688C30.1956 20.2657 30.8987 20.9454 31.7307 20.9454ZM31.7307 15.7422C32.3049 15.7422 32.7151 15.3438 32.7385 14.7461L32.9846 6.44921C33.0081 5.69921 32.5042 5.19531 31.7307 5.19531C30.9573 5.19531 30.4651 5.69921 30.4885 6.44921L30.7346 14.7461C30.7581 15.3438 31.1565 15.7422 31.7307 15.7422Z" fill="black" fill-opacity="0.85"/>
<path d="M8.44555 14.4297C7.40258 14.4297 6.79321 15.0157 6.79321 16.0586V24.4375C6.79321 25.4688 7.40258 26.0547 8.44555 26.0547H19.9417C20.9846 26.0547 21.594 25.4688 21.594 24.4375V16.0586C21.594 15.0157 20.9846 14.4297 19.9417 14.4297H8.44555Z" fill="black" fill-opacity="0.85"/>
<path d="M6.6643 8.5C4.33227 8.5 2.7854 10.0234 2.7854 12.3321V20.7227C2.7854 23.043 4.33227 24.5547 6.6643 24.5547H21.7346C24.0667 24.5547 25.6018 23.043 25.6018 20.7227V12.3321C25.6018 10.0234 24.0667 8.5 21.7346 8.5H6.6643Z" fill="white"/>
<path d="M6.5354 10.0938C5.1643 10.0938 4.37915 10.8555 4.37915 12.2032V20.8516C4.37915 22.1993 5.1643 22.961 6.5354 22.961H21.8635C23.2346 22.961 24.0081 22.1993 24.0081 20.8516V12.2032C24.0081 10.8555 23.2346 10.0938 21.8635 10.0938H6.5354Z" fill="black" fill-opacity="0.85"/>
<path d="M5.5979 0.789062C2.10571 0.789062 0.0314941 2.82813 0.0314941 6.3086V15.7774C0.0314941 19.2579 2.10571 21.2969 5.5979 21.2969H22.7893C26.2815 21.2969 28.3557 19.2461 28.3557 15.7774V6.3086C28.3557 2.83985 26.2815 0.789062 22.7893 0.789062H5.5979Z" fill="white"/>
<path d="M5.5979 2.67578C3.14868 2.67578 1.91821 3.88282 1.91821 6.3086V15.7774C1.91821 18.2032 3.14868 19.4102 5.5979 19.4102H22.7893C25.2385 19.4102 26.469 18.1915 26.469 15.7774V6.3086C26.469 3.89454 25.2385 2.67578 22.7893 2.67578H21.7698V1.36328C21.7698 0.566406 21.3127 0.0976562 20.5042 0.0976562H17.4456C16.637 0.0976562 16.1799 0.566406 16.1799 1.36328V2.67578H12.219V1.36328C12.219 0.566406 11.762 0.0976562 10.9651 0.0976562H7.88305C7.0979 0.0976562 6.64087 0.566406 6.64087 1.36328V2.67578H5.5979ZM7.0979 11.8165C6.65258 11.8165 6.31274 11.4532 6.31274 11.0079C6.31274 10.5743 6.65258 10.2227 7.0979 10.2227H11.4456C11.8792 10.2227 12.2424 10.5743 12.2424 11.0079C12.2424 11.4532 11.8792 11.8165 11.4456 11.8165H7.0979ZM19.1213 14.2657C18.676 14.2657 18.3245 13.9141 18.3245 13.4571V11.8165H16.6721C16.2385 11.8165 15.8753 11.4532 15.8753 11.0079C15.8753 10.5743 16.2268 10.2227 16.6721 10.2227H18.3245V8.57032C18.3245 8.11328 18.676 7.77344 19.1213 7.77344C19.5784 7.77344 19.9182 8.11328 19.9182 8.57032V10.2227H21.5706C22.0042 10.2227 22.3674 10.5743 22.3674 11.0079C22.3674 11.4532 22.0042 11.8165 21.5706 11.8165H19.9182V13.4571C19.9182 13.9141 19.5784 14.2657 19.1213 14.2657Z" fill="black" fill-opacity="0.85"/>
</g>
<defs>
<clipPath id="clip0_2207_17473">
<rect width="33.2344" height="25.9805" fill="white" transform="translate(0.0314941 0.0976562)"/>
</clipPath>
</defs>
</svg>
