<svg width="28" height="22" viewBox="0 0 28 22" fill="none" xmlns="http://www.w3.org/2000/svg">
<g clip-path="url(#clip0_2207_17434)">
<path d="M6.00098 12.6133H10.8877C11.3682 12.6133 11.7432 12.2383 11.7432 11.7579C11.7432 11.2774 11.3682 10.8907 10.8877 10.8907H6.00098C5.5205 10.8907 5.13379 11.2774 5.13379 11.7579C5.13379 12.2383 5.5205 12.6133 6.00098 12.6133ZM19.1963 15.2852C19.6768 15.2852 20.0518 14.9102 20.0518 14.4297V12.6133H21.8682C22.3486 12.6133 22.7354 12.2383 22.7354 11.7579C22.7354 11.2774 22.3486 10.8907 21.8682 10.8907H20.0518V9.07422C20.0518 8.59375 19.6768 8.21875 19.1963 8.21875C18.7158 8.21875 18.3291 8.59375 18.3291 9.07422V10.8907H16.5127C16.0322 10.8907 15.6572 11.2774 15.6572 11.7579C15.6572 12.2383 16.0322 12.6133 16.5127 12.6133H18.3291V14.4297C18.3291 14.9102 18.7158 15.2852 19.1963 15.2852ZM3.03614 20.8165H24.6572C26.0635 20.8165 26.9893 19.8204 26.9893 18.3672V17.9571C25.7939 17.9336 24.7979 17.4649 24.1533 16.7383C23.8955 16.4336 23.6025 16.4454 23.3447 16.7383C22.6416 17.5235 21.5869 17.9688 20.4502 17.9688C19.3135 17.9688 18.2588 17.5235 17.5557 16.7383C17.2979 16.4454 17.0049 16.4336 16.7471 16.7383C16.0791 17.4883 15.0127 17.9688 13.8291 17.9688C12.6455 17.9688 11.5791 17.4883 10.9111 16.7383C10.6533 16.4336 10.3721 16.4454 10.1025 16.7383C9.39942 17.5235 8.34473 17.9688 7.20801 17.9688C6.07129 17.9688 5.02832 17.5235 4.31348 16.7383C4.05567 16.4454 3.7627 16.4336 3.50489 16.7383C2.86036 17.4649 1.87598 17.9336 0.668945 17.9571V18.3672C0.668945 19.8204 1.59473 20.8165 3.03614 20.8165ZM3.69239 21.6719H23.9658C26.4268 21.6719 27.6455 20.4649 27.6455 18.0508V6.71875C27.6455 4.30469 26.4268 3.09766 23.9658 3.09766H22.3486V1.52735C22.3486 0.636718 21.833 0.0976562 20.9307 0.0976562H17.4736C16.583 0.0976562 16.0674 0.636718 16.0674 1.52735V3.09766H11.6025V1.52735C11.6025 0.636718 11.0869 0.0976562 10.1846 0.0976562H6.72754C5.8252 0.0976562 5.32129 0.636718 5.32129 1.52735V3.09766H3.69239C1.24317 3.09766 0.0126953 4.30469 0.0126953 6.71875V18.0508C0.0126953 20.4649 1.24317 21.6719 3.69239 21.6719ZM1.89942 17.9454V6.82422C1.89942 5.60547 2.54395 4.98438 3.71582 4.98438H23.9424C25.1025 4.98438 25.7588 5.60547 25.7588 6.82422V17.9454C25.7588 19.1641 25.1025 19.7852 23.9424 19.7852H3.71582C2.54395 19.7852 1.89942 19.1641 1.89942 17.9454Z" fill="black" fill-opacity="0.85"/>
</g>
<defs>
<clipPath id="clip0_2207_17434">
<rect width="27.6328" height="21.5977" fill="white" transform="translate(0.0126953 0.0976562)"/>
</clipPath>
</defs>
</svg>
