<svg width="28" height="22" viewBox="0 0 28 22" fill="none" xmlns="http://www.w3.org/2000/svg">
<g clip-path="url(#clip0_2207_17417)">
<path d="M3.70069 21.6719H23.9741C26.4351 21.6719 27.6538 20.4649 27.6538 18.0508V6.71875C27.6538 4.30469 26.4351 3.09766 23.9741 3.09766H22.3569V1.52735C22.3569 0.636718 21.8413 0.0976562 20.939 0.0976562H17.4819C16.5913 0.0976562 16.0757 0.636718 16.0757 1.52735V3.09766H11.6108V1.52735C11.6108 0.636718 11.0952 0.0976562 10.1929 0.0976562H6.73584C5.8335 0.0976562 5.32959 0.636718 5.32959 1.52735V3.09766H3.70069C1.25147 3.09766 0.0209961 4.30469 0.0209961 6.71875V18.0508C0.0209961 20.4649 1.25147 21.6719 3.70069 21.6719Z" fill="black" fill-opacity="0.85"/>
<path d="M5.76319 13.2813C5.25928 13.2813 4.86084 12.8946 4.86084 12.3907C4.86084 11.875 5.25928 11.4883 5.76319 11.4883H10.7905C11.2944 11.4883 11.6812 11.875 11.6812 12.3907C11.6812 12.8946 11.2944 13.2813 10.7905 13.2813H5.76319ZM19.3687 16.0352C18.8765 16.0352 18.4663 15.6485 18.4663 15.1446V13.2813H16.603C16.0991 13.2813 15.7124 12.8946 15.7124 12.3907C15.7124 11.875 16.0991 11.4883 16.603 11.4883H18.4663V9.625C18.4663 9.1211 18.8765 8.72266 19.3687 8.72266C19.8726 8.72266 20.2593 9.1211 20.2593 9.625V11.4883H22.1226C22.6265 11.4883 23.0249 11.875 23.0249 12.3907C23.0249 12.8946 22.6265 13.2813 22.1226 13.2813H20.2593V15.1446C20.2593 15.6485 19.8726 16.0352 19.3687 16.0352Z" fill="white"/>
</g>
<defs>
<clipPath id="clip0_2207_17417">
<rect width="27.6328" height="21.5977" fill="white" transform="translate(0.0209961 0.0976562)"/>
</clipPath>
</defs>
</svg>
