<svg width="28" height="22" viewBox="0 0 28 22" fill="none" xmlns="http://www.w3.org/2000/svg">
<g clip-path="url(#clip0_2207_22825)">
<path d="M3.71533 21.6719H23.9887C26.4497 21.6719 27.6684 20.4649 27.6684 18.0508V3.73047C27.6684 1.31641 26.4497 0.0976562 23.9887 0.0976562H3.71533C1.26611 0.0976562 0.0356445 1.31641 0.0356445 3.73047V18.0508C0.0356445 20.4649 1.26611 21.6719 3.71533 21.6719ZM3.73876 19.7852C2.56689 19.7852 1.92236 19.1641 1.92236 17.9454V3.83594C1.92236 2.61719 2.56689 1.98438 3.73876 1.98438H23.9653C25.1254 1.98438 25.7817 2.61719 25.7817 3.83594V17.9454C25.7817 19.1641 25.1254 19.7852 23.9653 19.7852H3.73876Z" fill="black" fill-opacity="0.85"/>
<path d="M9.27002 11.875H18.4575C19.1137 11.875 19.5708 11.5235 19.5708 10.9024C19.5708 10.2696 19.1489 9.90625 18.4575 9.90625H9.27002C8.59033 9.90625 8.14502 10.2696 8.14502 10.9024C8.14502 11.5235 8.61376 11.875 9.27002 11.875Z" fill="black" fill-opacity="0.85"/>
</g>
<defs>
<clipPath id="clip0_2207_22825">
<rect width="27.6328" height="21.5742" fill="white" transform="translate(0.0356445 0.0976562)"/>
</clipPath>
</defs>
</svg>
