<svg width="33" height="19" viewBox="0 0 33 19" fill="none" xmlns="http://www.w3.org/2000/svg">
<g clip-path="url(#clip0_2207_15909)">
<path d="M0.0483398 9.84766C0.0483398 14.7813 2.93115 17.3711 7.94678 17.3711H25.7475C27.5522 17.3711 29.0874 17.5469 30.5171 17.9102C31.7475 18.2149 32.7202 17.711 32.7202 16.4571V10.8438C32.7202 10.0469 32.146 9.46094 31.3374 9.46094H28.3022C27.3295 9.46094 26.8491 9.03907 26.9428 8.125L27.2944 4.69141C27.5874 1.83204 25.9585 0.0976562 22.771 0.0976562C19.0795 0.109375 12.271 0.25 8.38037 0.707031C3.04834 1.36328 0.0483398 4.6211 0.0483398 9.84766ZM1.93506 9.84766C1.93506 5.71094 4.29053 3.09766 8.54443 2.60547C12.3881 2.17188 19.0913 1.98438 22.771 1.98438C24.7983 1.98438 25.6186 2.80469 25.4311 4.48047L24.5053 12.8008C24.2827 14.7696 23.4389 15.4844 21.2827 15.4844H7.91162C4.1499 15.4844 1.93506 13.5391 1.93506 9.84766Z" fill="black" fill-opacity="0.85"/>
<path d="M1.93506 9.84766C1.93506 5.71094 4.29053 3.09766 8.54443 2.60547C12.3881 2.17188 19.0913 1.98438 22.771 1.98438C24.7983 1.98438 25.6186 2.80469 25.4311 4.48047L24.5053 12.8008C24.2827 14.7696 23.4389 15.4844 21.2827 15.4844H7.91162C4.1499 15.4844 1.93506 13.5391 1.93506 9.84766Z" fill="white"/>
</g>
<defs>
<clipPath id="clip0_2207_15909">
<rect width="32.6719" height="18.1523" fill="white" transform="translate(0.0483398 0.0976562)"/>
</clipPath>
</defs>
</svg>
