<svg width="33" height="19" viewBox="0 0 33 19" fill="none" xmlns="http://www.w3.org/2000/svg">
<g clip-path="url(#clip0_2207_15914)">
<path d="M32.7266 9.84766C32.7266 4.6211 29.7149 1.36328 24.3945 0.707031C20.4922 0.25 13.6836 0.109375 10.0039 0.0976562C6.81641 0.0976562 5.1875 1.83204 5.46875 4.69141L5.82031 8.125C5.92578 9.03907 5.44531 9.46094 4.46094 9.46094H1.4375C0.628906 9.46094 0.0546875 10.0469 0.0546875 10.8438V16.4571C0.0546875 17.711 1.01563 18.2149 2.2461 17.9102C3.6875 17.5469 5.22266 17.3711 7.02735 17.3711H24.8281C29.7969 17.3711 32.7266 14.7344 32.7266 9.84766ZM30.8399 9.84766C30.8399 13.5039 28.5899 15.4844 24.8633 15.4844H11.4805C9.33594 15.4844 8.49219 14.7696 8.26953 12.8008L7.33203 4.48047C7.15625 2.80469 7.96485 1.98438 10.0039 1.98438C13.6836 1.98438 20.3867 2.17188 24.2305 2.60547C28.4844 3.09766 30.8399 5.71094 30.8399 9.84766Z" fill="black" fill-opacity="0.85"/>
<path d="M30.8399 9.84766C30.8399 13.5039 28.5899 15.4844 24.8633 15.4844H11.4805C9.336 15.4844 8.49225 14.7696 8.26959 12.8008L7.33209 4.48047C7.15631 2.80469 7.9649 1.98438 10.004 1.98438C13.6836 1.98438 20.3867 2.17188 24.2305 2.60547C28.4844 3.09766 30.8399 5.71094 30.8399 9.84766Z" fill="white"/>
</g>
<defs>
<clipPath id="clip0_2207_15914">
<rect width="32.6719" height="18.1523" fill="white" transform="translate(0.0546875 0.0976562)"/>
</clipPath>
</defs>
</svg>
