<svg width="24" height="25" viewBox="0 0 24 25" fill="none" xmlns="http://www.w3.org/2000/svg">
<g clip-path="url(#clip0_2207_4107)">
<path d="M21.9191 12.0527C21.9191 17.1855 18.0988 21.3691 13.1301 21.9316C9.81373 19.9394 7.95044 16.4707 7.95044 12.0527C7.95044 7.63477 9.82544 4.1543 13.1887 2.17383C18.1223 2.74805 21.9191 6.91992 21.9191 12.0527Z" fill="black" fill-opacity="0.85"/>
<path d="M23.923 12.0527C23.923 5.51367 18.5207 0.0996094 11.9816 0.0996094C5.45435 0.0996094 0.0168457 5.52539 0.0168457 12.0527C0.0168457 18.5801 5.44263 24.0058 11.9699 24.0058C18.509 24.0058 23.923 18.5801 23.923 12.0527ZM21.9191 12.0527C21.9191 17.1855 18.0988 21.3691 13.1301 21.9316C9.81373 19.9394 7.95044 16.4707 7.95044 12.0527C7.95044 7.63477 9.82544 4.1543 13.1887 2.17383C18.1223 2.74805 21.9191 6.91992 21.9191 12.0527Z" fill="black" fill-opacity="0.85"/>
</g>
<defs>
<clipPath id="clip0_2207_4107">
<rect width="23.9062" height="23.918" fill="white" transform="translate(0.0168457 0.0996094)"/>
</clipPath>
</defs>
</svg>
