<svg width="24" height="25" viewBox="0 0 24 25" fill="none" xmlns="http://www.w3.org/2000/svg">
<g clip-path="url(#clip0_2207_4129)">
<path d="M12.0183 24.0157C18.5574 24.0157 23.9714 18.6016 23.9714 12.0625C23.9714 5.53516 18.5457 0.109375 12.0066 0.109375C5.47925 0.109375 0.0651855 5.53516 0.0651855 12.0625C0.0651855 18.6016 5.49097 24.0157 12.0183 24.0157Z" fill="black" fill-opacity="0.85"/>
<path d="M12.3464 19.0938C8.38549 19.0938 5.33862 16.2579 5.33862 12.2735C5.33862 9.43749 7.0144 6.74218 9.52221 5.74609C9.67456 5.68749 9.83862 5.66406 9.92065 5.66406C10.1668 5.66406 10.3074 5.87499 10.3074 6.06249C10.3074 6.12109 10.3074 6.21484 10.2371 6.36718C10.0144 6.9414 9.81518 8.00781 9.81518 8.78124C9.81518 12.4375 12.1472 14.7344 15.8152 14.7344C16.6472 14.7344 17.5027 14.5469 18.0066 14.3829C18.1355 14.3477 18.2175 14.336 18.2996 14.336C18.4988 14.336 18.698 14.4883 18.698 14.7461C18.698 14.8047 18.6863 14.9688 18.616 15.1211C17.7605 17.3125 15.2644 19.0938 12.3464 19.0938Z" fill="white"/>
</g>
<defs>
<clipPath id="clip0_2207_4129">
<rect width="23.9062" height="23.918" fill="white" transform="translate(0.0651855 0.0976562)"/>
</clipPath>
</defs>
</svg>
