<svg width="24" height="24" viewBox="0 0 24 24" fill="none" xmlns="http://www.w3.org/2000/svg">
<g id="moon.haze.circle" clip-path="url(#clip0_2124_12278)">
<g id="Group">
<path id="Vector" d="M11.9531 23.9062C18.4922 23.9062 23.9062 18.4805 23.9062 11.9531C23.9062 5.41406 18.4805 0 11.9414 0C5.41406 0 0 5.41406 0 11.9531C0 18.4805 5.42578 23.9062 11.9531 23.9062ZM11.9531 21.9141C6.42188 21.9141 2.00391 17.4844 2.00391 11.9531C2.00391 6.42188 6.41016 1.99219 11.9414 1.99219C17.4727 1.99219 21.9141 6.42188 21.9141 11.9531C21.9141 17.4844 17.4844 21.9141 11.9531 21.9141Z" fill="black" fill-opacity="0.85"/>
<path id="Vector_2" d="M7.96875 12.9844H16.3125C16.5469 12.7031 16.7109 12.3984 16.8633 12.0586C16.9688 11.8008 16.9453 11.5781 16.8047 11.4258C16.6875 11.3203 16.5 11.2969 16.2656 11.3789C15.8203 11.5664 15.2695 11.6484 14.6367 11.6484C12.0352 11.6484 10.3828 10.043 10.3828 7.49999C10.3828 6.83202 10.4883 6.11718 10.6875 5.74218C10.8164 5.49608 10.793 5.28515 10.6875 5.1328C10.5586 4.98046 10.3125 4.9453 10.0312 5.06249C8.21484 5.81249 6.98438 7.69921 6.98438 9.89061C6.98438 11.0742 7.34766 12.1289 7.96875 12.9844ZM6.19922 14.6602H18.7852C19.0195 14.6602 19.1953 14.4844 19.1953 14.25C19.1953 14.0039 19.0195 13.8281 18.7852 13.8281H6.19922C5.96484 13.8281 5.78906 14.0156 5.78906 14.25C5.78906 14.4844 5.96484 14.6602 6.19922 14.6602ZM5.10938 16.2656H17.6836C17.918 16.2656 18.0938 16.0898 18.0938 15.8555C18.0938 15.6094 17.918 15.4336 17.6836 15.4336H5.10938C4.875 15.4336 4.6875 15.6211 4.6875 15.8555C4.6875 16.0898 4.875 16.2656 5.10938 16.2656ZM6.19922 17.8711H18.7852C19.0195 17.8711 19.1953 17.6953 19.1953 17.4609C19.1953 17.2148 19.0195 17.0391 18.7852 17.0391H6.19922C5.96484 17.0391 5.78906 17.2266 5.78906 17.4609C5.78906 17.6953 5.96484 17.8711 6.19922 17.8711Z" fill="black" fill-opacity="0.85"/>
</g>
</g>
<defs>
<clipPath id="clip0_2124_12278">
<rect width="23.9062" height="23.918" fill="white"/>
</clipPath>
</defs>
</svg>
