<svg width="31" height="25" viewBox="0 0 31 25" fill="none" xmlns="http://www.w3.org/2000/svg">
<g clip-path="url(#clip0_2207_4162)">
<path d="M6.62037 21.3105H22.382C22.8039 20.7715 23.1789 20.1738 23.4602 19.5058C23.6711 19.0137 23.6359 18.6035 23.3781 18.3457C23.1672 18.123 22.8039 18.0996 22.382 18.2519C21.5149 18.5801 20.4836 18.7441 19.2531 18.7441C14.2727 18.7441 11.1203 15.6855 11.1203 10.8105C11.1203 9.55662 11.3547 8.16209 11.7063 7.44725C11.9289 7.00193 11.9289 6.56834 11.6828 6.32225C11.4367 6.05271 11.0266 5.95897 10.5109 6.18162C7.04224 7.61131 4.69849 11.2207 4.69849 15.3808C4.69849 17.6426 5.3899 19.6934 6.62037 21.3105Z" fill="black" fill-opacity="0.85"/>
<path d="M1.06567 24.5566H29.0617C29.6125 24.5566 30.0813 24.1348 30.0813 23.6191C30.0813 23.1035 29.6125 22.6816 29.0617 22.6816H1.06567C0.514893 22.6816 0.0461426 23.1035 0.0461426 23.6191C0.0461426 24.1348 0.514893 24.5566 1.06567 24.5566Z" fill="black" fill-opacity="0.85"/>
<path d="M20.9992 0.0996094C20.4836 0.0996094 20.0383 0.568359 20.0383 1.14258V7.06055L20.1789 8.83008L19.4289 7.93945L17.8469 6.3457C17.6828 6.18164 17.4484 6.07617 17.2258 6.07617C16.757 6.07617 16.4172 6.4043 16.4172 6.86133C16.4172 7.10742 16.4992 7.29492 16.6984 7.48242L20.3547 10.8926C20.6125 11.1152 20.7766 11.1973 20.9992 11.1973C21.2102 11.1973 21.3859 11.1152 21.632 10.8926L25.2883 7.48242C25.4875 7.29492 25.5695 7.10742 25.5695 6.86133C25.5695 6.4043 25.2297 6.07617 24.7609 6.07617C24.5383 6.07617 24.3156 6.18164 24.1399 6.3457L22.675 7.82227L21.8078 8.83008L21.9484 7.06055V1.14258C21.9484 0.568359 21.5149 0.0996094 20.9992 0.0996094Z" fill="black" fill-opacity="0.85"/>
</g>
<defs>
<clipPath id="clip0_2207_4162">
<rect width="30.0352" height="24.4805" fill="white" transform="translate(0.0461426 0.0996094)"/>
</clipPath>
</defs>
</svg>
