<svg width="24" height="25" viewBox="0 0 24 25" fill="none" xmlns="http://www.w3.org/2000/svg">
<g clip-path="url(#clip0_2207_4063)">
<path d="M11.9594 22.0137C6.42822 22.0137 1.98681 17.584 1.99853 12.0527C2.01025 6.52149 6.43993 2.0918 11.9594 2.0918V22.0137Z" fill="black" fill-opacity="0.85"/>
<path d="M11.9594 24.0058C18.4985 24.0058 23.9125 18.5801 23.9125 12.0527C23.9125 5.51367 18.5102 0.0996094 11.9594 0.0996094C5.44385 0.0996094 0.00634766 5.51367 0.00634766 12.0527C0.00634766 18.5801 5.43213 24.0058 11.9594 24.0058ZM11.9594 22.0137C6.42823 22.0137 1.98682 17.584 1.99854 12.0527C2.01026 6.52149 6.43994 2.0918 11.9594 2.0918V22.0137Z" fill="black" fill-opacity="0.85"/>
</g>
<defs>
<clipPath id="clip0_2207_4063">
<rect width="23.9062" height="23.918" fill="white" transform="translate(0.00634766 0.0996094)"/>
</clipPath>
</defs>
</svg>
