<svg width="24" height="25" viewBox="0 0 24 25" fill="none" xmlns="http://www.w3.org/2000/svg">
<g clip-path="url(#clip0_2207_4078)">
<path d="M2.02905 12.0527C2.02905 6.91992 5.82592 2.74805 10.7712 2.17383C14.1228 4.1543 15.9978 7.63477 15.9978 12.0527C15.9978 16.4707 14.1345 19.9394 10.8181 21.9316C5.84936 21.3691 2.02905 17.1855 2.02905 12.0527Z" fill="black" fill-opacity="0.85"/>
<path d="M0.0251465 12.0527C0.0251465 18.5801 5.45093 24.0058 11.9782 24.0058C18.5173 24.0058 23.9313 18.5801 23.9313 12.0527C23.9313 5.52539 18.5056 0.0996094 11.9665 0.0996094C5.43921 0.0996094 0.0251465 5.51367 0.0251465 12.0527ZM2.02906 12.0527C2.02906 6.91992 5.82593 2.74805 10.7712 2.17383C14.1228 4.1543 15.9978 7.63477 15.9978 12.0527C15.9978 16.4707 14.1345 19.9394 10.8181 21.9316C5.84937 21.3691 2.02906 17.1855 2.02906 12.0527Z" fill="black" fill-opacity="0.85"/>
</g>
<defs>
<clipPath id="clip0_2207_4078">
<rect width="23.9062" height="23.918" fill="white" transform="translate(0.0251465 0.0996094)"/>
</clipPath>
</defs>
</svg>
