<svg width="31" height="25" viewBox="0 0 31 25" fill="none" xmlns="http://www.w3.org/2000/svg">
<g clip-path="url(#clip0_2207_4140)">
<path d="M6.61207 21.3105H22.3737C22.7956 20.7715 23.1706 20.1738 23.4519 19.5058C23.6628 19.0137 23.6276 18.6035 23.3698 18.3457C23.1589 18.123 22.7956 18.0996 22.3737 18.2519C21.5066 18.5801 20.4753 18.7441 19.2448 18.7441C14.2644 18.7441 11.112 15.6855 11.112 10.8105C11.112 9.55662 11.3464 8.16209 11.698 7.44725C11.9206 7.00193 11.9206 6.56834 11.6745 6.32225C11.4284 6.05271 11.0183 5.95897 10.5026 6.18162C7.03394 7.61131 4.69019 11.2207 4.69019 15.3808C4.69019 17.6426 5.3816 19.6934 6.61207 21.3105Z" fill="black" fill-opacity="0.85"/>
<path d="M1.05737 24.5566H29.0534C29.6042 24.5566 30.073 24.1348 30.073 23.6191C30.073 23.1035 29.6042 22.6816 29.0534 22.6816H1.05737C0.506592 22.6816 0.0378418 23.1035 0.0378418 23.6191C0.0378418 24.1348 0.506592 24.5566 1.05737 24.5566Z" fill="black" fill-opacity="0.85"/>
<path d="M20.9909 11.1973C21.5066 11.1973 21.9401 10.7285 21.9401 10.1543V4.23633L21.7995 2.4668L22.6667 3.46289L24.1316 4.95117C24.3073 5.11523 24.53 5.2207 24.7526 5.2207C25.2214 5.2207 25.5612 4.89258 25.5612 4.43555C25.5612 4.18945 25.4792 4.00195 25.28 3.81445L21.6237 0.404297C21.3776 0.181641 21.2019 0.0996094 20.9909 0.0996094C20.7683 0.0996094 20.6042 0.181641 20.3464 0.404297L16.6901 3.81445C16.4909 4.00195 16.4089 4.18945 16.4089 4.43555C16.4089 4.89258 16.7487 5.2207 17.2175 5.2207C17.4401 5.2207 17.6745 5.11523 17.8386 4.95117L19.4206 3.3457L20.1706 2.4668L20.03 4.23633V10.1543C20.03 10.7285 20.4753 11.1973 20.9909 11.1973Z" fill="black" fill-opacity="0.85"/>
</g>
<defs>
<clipPath id="clip0_2207_4140">
<rect width="30.0352" height="24.4805" fill="white" transform="translate(0.0378418 0.0996094)"/>
</clipPath>
</defs>
</svg>
