<svg width="24" height="25" viewBox="0 0 24 25" fill="none" xmlns="http://www.w3.org/2000/svg">
<g clip-path="url(#clip0_2207_4168)">
<path d="M11.9951 24.0058C18.5342 24.0058 23.9482 18.5801 23.9482 12.0527C23.9482 5.51367 18.5225 0.0996094 11.9834 0.0996094C5.45605 0.0996094 0.0419922 5.51367 0.0419922 12.0527C0.0419922 18.5801 5.46777 24.0058 11.9951 24.0058ZM11.9951 22.0137C6.46387 22.0137 2.0459 17.584 2.0459 12.0527C2.0459 6.52149 6.45215 2.0918 11.9834 2.0918C17.5147 2.0918 21.9561 6.52149 21.9561 12.0527C21.9561 17.584 17.5264 22.0137 11.9951 22.0137Z" fill="black" fill-opacity="0.85"/>
<path d="M14.8076 5.10352C14.4561 5.10352 14.1982 5.39649 14.1982 5.74805V8.34961L14.2217 8.74805L14.1631 8.67773L13.3662 7.9043C13.249 7.79883 13.0967 7.72852 12.9561 7.72852C12.6514 7.72852 12.417 7.95117 12.417 8.24414C12.417 8.39649 12.4639 8.53711 12.6045 8.66602L14.3975 10.3301C14.5381 10.459 14.6553 10.5293 14.8076 10.5293C14.9482 10.5293 15.0772 10.459 15.2061 10.3301L16.999 8.66602C17.1397 8.52539 17.1865 8.39649 17.1865 8.24414C17.1865 7.95117 16.9639 7.72852 16.6475 7.72852C16.5186 7.72852 16.3311 7.78711 16.2373 7.89258L15.5225 8.63086L15.3818 8.7832L15.4053 8.34961V5.74805C15.4053 5.39649 15.1475 5.10352 14.8076 5.10352ZM5.85449 17.4082H18.1123C18.4522 17.4082 18.7568 17.1387 18.7568 16.7988C18.7568 16.459 18.4639 16.2012 18.1123 16.2012H5.85449C5.51465 16.2012 5.20996 16.459 5.20996 16.7988C5.20996 17.1387 5.52637 17.4082 5.85449 17.4082ZM7.99902 15.3574H16.3428C16.5772 15.0762 16.7412 14.7598 16.8936 14.4199C16.999 14.1621 16.9756 13.9512 16.835 13.7871C16.7178 13.6934 16.5303 13.6582 16.2959 13.7519C15.8506 13.9277 15.2998 14.0215 14.667 14.0215C12.0654 14.0215 10.4131 12.416 10.4131 9.87305C10.4131 9.20508 10.5186 8.47852 10.7178 8.10352C10.8467 7.86914 10.8232 7.64649 10.7178 7.49414C10.5889 7.3418 10.3428 7.30664 10.0615 7.43555C8.24511 8.17383 7.01465 10.0723 7.01465 12.2637C7.01465 13.4473 7.37793 14.5019 7.99902 15.3574Z" fill="black" fill-opacity="0.85"/>
</g>
<defs>
<clipPath id="clip0_2207_4168">
<rect width="23.9062" height="23.918" fill="white" transform="translate(0.0419922 0.0996094)"/>
</clipPath>
</defs>
</svg>
