<svg width="24" height="25" viewBox="0 0 24 25" fill="none" xmlns="http://www.w3.org/2000/svg">
<g clip-path="url(#clip0_2207_4083)">
<path d="M11.9531 22.1191C6.4219 22.1191 1.98049 17.6894 1.99221 12.1582C2.00393 6.62695 6.43361 2.19727 11.9531 2.19727V22.1191Z" fill="black" fill-opacity="0.85"/>
<path d="M11.9531 24.1113C18.4922 24.1113 23.9062 18.6855 23.9062 12.1582C23.9062 5.61914 18.5039 0.205078 11.9531 0.205078C5.4375 0.205078 0 5.61914 0 12.1582C0 18.6855 5.42578 24.1113 11.9531 24.1113ZM11.9531 22.1191C6.42188 22.1191 1.98047 17.6894 1.99219 12.1582C2.00391 6.62695 6.43359 2.19727 11.9531 2.19727V22.1191Z" fill="black" fill-opacity="0.85"/>
</g>
<defs>
<clipPath id="clip0_2207_4083">
<rect width="23.9062" height="24.0117" fill="white" transform="translate(0 0.0996094)"/>
</clipPath>
</defs>
</svg>
