<svg width="24" height="24" viewBox="0 0 24 24" fill="none" xmlns="http://www.w3.org/2000/svg">
<g id="moon.circle" clip-path="url(#clip0_2124_12238)">
<g id="Group">
<path id="Vector" d="M11.9531 23.9062C18.4922 23.9062 23.9062 18.4805 23.9062 11.9531C23.9062 5.41406 18.4805 0 11.9414 0C5.41406 0 0 5.41406 0 11.9531C0 18.4805 5.42578 23.9062 11.9531 23.9062ZM11.9531 21.9141C6.42188 21.9141 2.00391 17.4844 2.00391 11.9531C2.00391 6.42188 6.41016 1.99219 11.9414 1.99219C17.4727 1.99219 21.9141 6.42188 21.9141 11.9531C21.9141 17.4844 17.4844 21.9141 11.9531 21.9141Z" fill="black" fill-opacity="0.85"/>
<path id="Vector_2" d="M12.2578 18.7852C15.082 18.7852 17.5078 17.0508 18.3398 14.918C18.4102 14.7773 18.4219 14.625 18.4219 14.5664C18.4219 14.3203 18.2227 14.1562 18.0352 14.1562C17.9531 14.1562 17.8711 14.168 17.7539 14.2148C17.2617 14.3789 16.4297 14.5547 15.6211 14.5547C12.0703 14.5547 9.79688 12.3281 9.79688 8.76562C9.79688 8.02734 9.99609 6.98438 10.207 6.43359C10.2773 6.28125 10.2773 6.1875 10.2773 6.12891C10.2773 5.95312 10.1484 5.75391 9.90234 5.75391C9.82031 5.75391 9.66797 5.76562 9.51562 5.83594C7.08984 6.79688 5.46094 9.42188 5.46094 12.1641C5.46094 16.0195 8.41406 18.7852 12.2578 18.7852Z" fill="black" fill-opacity="0.85"/>
</g>
</g>
<defs>
<clipPath id="clip0_2124_12238">
<rect width="23.9062" height="23.918" fill="white"/>
</clipPath>
</defs>
</svg>
