<svg width="24" height="25" viewBox="0 0 24 25" fill="none" xmlns="http://www.w3.org/2000/svg">
<g clip-path="url(#clip0_2207_4253)">
<path d="M12.0434 24.0157C18.5825 24.0157 23.9965 18.6016 23.9965 12.0625C23.9965 5.53516 18.5708 0.109375 12.0317 0.109375C5.50439 0.109375 0.090332 5.53516 0.090332 12.0625C0.090332 18.6016 5.51611 24.0157 12.0434 24.0157Z" fill="black" fill-opacity="0.85"/>
<path d="M11.8676 19.0586C8.15283 19.0586 5.31689 16.3985 5.31689 12.6719C5.31689 10.0234 6.88721 7.49218 9.23095 6.5664C9.7583 6.35546 10.0747 6.69531 9.87549 7.14062C9.68799 7.6914 9.48877 8.67577 9.48877 9.39062C9.48877 12.8243 11.6919 14.9805 15.1137 14.9805C15.8872 14.9805 16.6958 14.8165 17.1762 14.6524C17.6684 14.4883 17.938 14.8633 17.727 15.3438C16.9301 17.3946 14.5864 19.0586 11.8676 19.0586ZM15.477 11.3594C15.3364 11.3594 15.2309 11.2422 15.2075 11.1016C14.938 8.95703 14.8325 8.92187 12.5942 8.49999C12.4419 8.48827 12.3481 8.38281 12.3481 8.21874C12.3481 8.07812 12.4419 7.97265 12.5942 7.96093C14.8325 7.64453 14.9028 7.52734 15.2075 5.35937C15.2309 5.20703 15.3364 5.10156 15.477 5.10156C15.6176 5.10156 15.7231 5.20703 15.7465 5.35937C16.063 7.49218 16.145 7.52734 18.3598 7.96093C18.5005 7.97265 18.6059 8.07812 18.6059 8.21874C18.6059 8.39453 18.5005 8.48827 18.3364 8.49999C16.1333 8.82812 16.0161 8.93359 15.7465 11.1016C15.7231 11.2422 15.6176 11.3594 15.477 11.3594Z" fill="white"/>
</g>
<defs>
<clipPath id="clip0_2207_4253">
<rect width="23.9062" height="23.918" fill="white" transform="translate(0.090332 0.0976562)"/>
</clipPath>
</defs>
</svg>
