<svg width="24" height="24" viewBox="0 0 24 24" fill="none" xmlns="http://www.w3.org/2000/svg">
<g id="moon.stars.circle.fill" clip-path="url(#clip0_2124_12309)">
<g id="Group">
<path id="Vector" d="M11.9531 23.918C18.4922 23.918 23.9062 18.5039 23.9062 11.9648C23.9062 5.4375 18.4805 0.0117188 11.9414 0.0117188C5.41406 0.0117188 0 5.4375 0 11.9648C0 18.5039 5.42578 23.918 11.9531 23.918Z" fill="black" fill-opacity="0.85"/>
<path id="Vector_2" d="M11.7773 18.9609C8.0625 18.9609 5.22656 16.3008 5.22656 12.5742C5.22656 9.92578 6.79688 7.39453 9.14062 6.46875C9.66797 6.25781 9.98438 6.59766 9.78516 7.04297C9.59766 7.59375 9.39844 8.57812 9.39844 9.29297C9.39844 12.7266 11.6016 14.8828 15.0234 14.8828C15.7969 14.8828 16.6055 14.7188 17.0859 14.5547C17.5781 14.3906 17.8477 14.7656 17.6367 15.2461C16.8398 17.2969 14.4961 18.9609 11.7773 18.9609ZM15.3867 11.2617C15.2461 11.2617 15.1406 11.1445 15.1172 11.0039C14.8477 8.85938 14.7422 8.82422 12.5039 8.40234C12.3516 8.39062 12.2578 8.28516 12.2578 8.12109C12.2578 7.98047 12.3516 7.875 12.5039 7.86328C14.7422 7.54688 14.8125 7.42969 15.1172 5.26172C15.1406 5.10938 15.2461 5.00391 15.3867 5.00391C15.5273 5.00391 15.6328 5.10938 15.6562 5.26172C15.9727 7.39453 16.0547 7.42969 18.2695 7.86328C18.4102 7.875 18.5156 7.98047 18.5156 8.12109C18.5156 8.29688 18.4102 8.39062 18.2461 8.40234C16.043 8.73047 15.9258 8.83594 15.6562 11.0039C15.6328 11.1445 15.5273 11.2617 15.3867 11.2617Z" fill="white"/>
</g>
</g>
<defs>
<clipPath id="clip0_2124_12309">
<rect width="23.9062" height="23.918" fill="white"/>
</clipPath>
</defs>
</svg>
