<svg width="24" height="25" viewBox="0 0 24 25" fill="none" xmlns="http://www.w3.org/2000/svg">
<g clip-path="url(#clip0_2207_4068)">
<path d="M2.00684 12.0527C2.01856 6.52149 6.44824 2.0918 11.9795 2.0918C12.3545 2.0918 12.7295 2.11523 13.0928 2.16211C9.78809 4.14258 7.93653 7.63477 7.93653 12.0527C7.93653 16.459 9.77637 19.9394 13.0577 21.9434C12.6944 21.9902 12.3311 22.0137 11.9678 22.0137C6.43653 22.0137 1.99512 17.584 2.00684 12.0527Z" fill="black" fill-opacity="0.85"/>
<path d="M23.9208 12.0527C23.9208 5.51367 18.5185 0.0996094 11.9794 0.0996094C5.45215 0.0996094 0.0146484 5.51367 0.0146484 12.0527C0.0146484 18.5801 5.44043 24.0058 11.9677 24.0058C18.5068 24.0058 23.9208 18.5801 23.9208 12.0527ZM2.00684 12.0527C2.01856 6.52149 6.44824 2.0918 11.9794 2.0918C12.3544 2.0918 12.7294 2.11523 13.0927 2.16211C9.78809 4.14258 7.93653 7.63477 7.93653 12.0527C7.93653 16.459 9.77637 19.9394 13.0576 21.9434C12.6943 21.9902 12.331 22.0137 11.9677 22.0137C6.43653 22.0137 1.99512 17.584 2.00684 12.0527Z" fill="black" fill-opacity="0.85"/>
</g>
<defs>
<clipPath id="clip0_2207_4068">
<rect width="23.9062" height="23.918" fill="white" transform="translate(0.0146484 0.0996094)"/>
</clipPath>
</defs>
</svg>
