<svg width="24" height="25" viewBox="0 0 24 25" fill="none" xmlns="http://www.w3.org/2000/svg">
<g clip-path="url(#clip0_2207_4073)">
<path d="M11.9658 22.0137C6.43457 22.0137 2.0166 17.584 2.0166 12.0527C2.0166 6.52149 6.42285 2.0918 11.9541 2.0918C17.4854 2.0918 21.9268 6.52149 21.9268 12.0527C21.9268 17.584 17.4971 22.0137 11.9658 22.0137Z" fill="black" fill-opacity="0.85"/>
<path d="M11.9658 24.0058C18.5049 24.0058 23.9189 18.5801 23.9189 12.0527C23.9189 5.51367 18.4932 0.0996094 11.9541 0.0996094C5.42675 0.0996094 0.0126953 5.51367 0.0126953 12.0527C0.0126953 18.5801 5.43848 24.0058 11.9658 24.0058ZM11.9658 22.0137C6.43458 22.0137 2.01661 17.584 2.01661 12.0527C2.01661 6.52149 6.42285 2.0918 11.9541 2.0918C17.4854 2.0918 21.9268 6.52149 21.9268 12.0527C21.9268 17.584 17.4971 22.0137 11.9658 22.0137Z" fill="black" fill-opacity="0.85"/>
</g>
<defs>
<clipPath id="clip0_2207_4073">
<rect width="23.9062" height="23.918" fill="white" transform="translate(0.0126953 0.0996094)"/>
</clipPath>
</defs>
</svg>
