<svg width="24" height="24" viewBox="0 0 24 24" fill="none" xmlns="http://www.w3.org/2000/svg">
<g clip-path="url(#clip0_2207_4116)">
<path d="M18.4712 16.0118C12.0141 16.0118 8.00635 12.1211 8.00635 5.875C8.00635 4.09375 8.29931 2.52344 8.73291 1.67969C8.9087 1.33985 8.94384 1.17578 8.94384 0.941406C8.94384 0.554687 8.58057 0.0976562 8.08838 0.0976562C7.99463 0.0976562 7.77198 0.132812 7.44385 0.261718C3.10792 2.01954 0.0610352 6.58985 0.0610352 11.5118C0.0610352 18.625 5.22901 23.8047 12.3422 23.8047C17.4399 23.8047 21.5766 21.1329 23.4751 16.75C23.6157 16.4454 23.6391 16.1875 23.6391 16.0586C23.6391 15.5782 23.229 15.25 22.8657 15.25C22.6782 15.25 22.5376 15.2618 22.2563 15.3672C21.3071 15.7539 19.8774 16.0118 18.4712 16.0118ZM1.90088 11.4297C1.90088 7.78516 3.79931 4.31641 6.83448 2.40625C6.45948 3.4961 6.26026 4.70313 6.26026 6.03907C6.26026 13.3633 10.7251 17.7227 18.2016 17.7227C19.4087 17.7227 20.4282 17.5821 21.4008 17.2422C19.6196 20.1836 16.186 21.9766 12.4126 21.9766C6.33056 21.9766 1.90088 17.5469 1.90088 11.4297Z" fill="black" fill-opacity="0.85"/>
</g>
<defs>
<clipPath id="clip0_2207_4116">
<rect width="23.5781" height="23.7539" fill="white" transform="translate(0.0610352 0.0976562)"/>
</clipPath>
</defs>
</svg>
