<svg width="24" height="25" viewBox="0 0 24 25" fill="none" xmlns="http://www.w3.org/2000/svg">
<g clip-path="url(#clip0_2207_12544)">
<path d="M12.0141 24.0176C18.5532 24.0176 23.9672 18.6035 23.9672 12.0644C23.9672 5.53711 18.5415 0.111328 12.0024 0.111328C5.47509 0.111328 0.0610352 5.53711 0.0610352 12.0644C0.0610352 18.6035 5.48682 24.0176 12.0141 24.0176Z" fill="black" fill-opacity="0.85"/>
<path d="M10.7251 10.2246L12.893 7.38868C13.4087 6.72071 14.1587 6.73243 14.6626 7.38868L16.8188 10.2246C16.2446 10.3887 15.8579 10.8223 15.4946 10.8223C15.0376 10.8223 14.6274 10.1426 13.7719 10.1426C12.9165 10.1426 12.4946 10.8223 12.0376 10.8223C11.6626 10.8223 11.2876 10.3887 10.7251 10.2246ZM8.20555 15.9551C7.27977 15.9551 7.0454 15.0527 7.51414 14.4434L10.1977 10.9277C10.6313 10.7051 11.2172 11.5254 12.0376 11.5254C12.9516 11.5254 13.2915 10.8457 13.7719 10.8457C14.2524 10.8457 14.5922 11.5254 15.4946 11.5254C16.3032 11.5254 16.9126 10.7051 17.3344 10.9277L20.0063 14.4434C20.4868 15.0527 20.2524 15.9551 19.3383 15.9551H8.20555ZM4.71336 15.9551C3.75243 15.9551 3.51805 15.0293 4.05711 14.3496L7.9243 9.53321C8.45164 8.9004 9.14305 8.9004 9.65868 9.53321L9.91649 9.8379L6.78758 13.9043C6.30711 14.5488 6.27196 15.3574 6.58836 15.9551H4.71336Z" fill="white"/>
</g>
<defs>
<clipPath id="clip0_2207_12544">
<rect width="23.9062" height="23.918" fill="white" transform="translate(0.0610352 0.0996094)"/>
</clipPath>
</defs>
</svg>
