<svg width="23" height="28" viewBox="0 0 23 28" fill="none" xmlns="http://www.w3.org/2000/svg">
<g clip-path="url(#clip0_2207_3517)">
<path d="M1.8103 9.98145H20.8416C22.4587 9.98145 22.6111 8.17676 21.6384 7.4502L12.9548 0.793945C11.7244 -0.131836 10.9275 -0.131836 9.69702 0.793945L1.01343 7.4502C0.0407714 8.17676 0.193115 9.98145 1.8103 9.98145ZM3.6853 8.23535C3.40405 8.23535 3.32202 7.90723 3.54468 7.73145L10.6111 2.31738C10.9978 2.02441 11.6541 2.03613 12.0291 2.31738L19.1072 7.73145C19.3298 7.90723 19.2478 8.23535 18.9666 8.23535H3.6853ZM1.04858 14.8213H21.6033C22.1423 14.8213 22.5994 14.3525 22.5994 13.8017C22.5994 13.251 22.1423 12.7705 21.6033 12.7705H1.04858C0.509521 12.7705 0.0524902 13.251 0.0524902 13.8017C0.0524902 14.3525 0.509521 14.8213 1.04858 14.8213ZM1.8103 17.6221C0.193115 17.6221 0.0407714 19.415 1.01343 20.1533L9.69702 26.8096C10.9275 27.7353 11.7244 27.7353 12.9548 26.8096L21.6384 20.1533C22.6111 19.415 22.4587 17.6221 20.8416 17.6221H1.8103ZM3.6853 19.3682H18.9666C19.2478 19.3682 19.3298 19.6846 19.1072 19.8721L12.0291 25.2861C11.6541 25.5674 10.9978 25.5791 10.6111 25.2861L3.54468 19.8721C3.32202 19.6846 3.40405 19.3682 3.6853 19.3682Z" fill="black" fill-opacity="0.85"/>
</g>
<defs>
<clipPath id="clip0_2207_3517">
<rect width="22.5469" height="27.416" fill="white" transform="translate(0.0524902 0.0996094)"/>
</clipPath>
</defs>
</svg>
