<svg width="43" height="25" viewBox="0 0 43 25" fill="none" xmlns="http://www.w3.org/2000/svg">
<g clip-path="url(#clip0_2207_12533)">
<path d="M8.12316 14.1738C9.03722 14.1738 9.86925 12.7793 11.5568 12.7793C13.2325 12.7793 14.0646 14.1738 14.9786 14.1738C15.6466 14.1738 16.3146 13.2949 17.4513 12.9902L13.5724 8.17383C12.963 7.42383 12.2482 7.04883 11.5568 7.04883C10.8536 7.04883 10.1388 7.42383 9.54112 8.17383L5.6505 13.0019C6.7755 13.2832 7.44347 14.1738 8.12316 14.1738ZM2.22862 22.7988H20.8732C23.0997 22.7988 23.6271 20.6426 22.3732 19.084L18.3771 14.1387C17.2638 14.209 16.7599 15.4629 14.9786 15.4629C13.2208 15.4629 12.5177 14.0684 11.5568 14.0684C10.5841 14.0684 9.88097 15.4629 8.12316 15.4629C6.34191 15.4629 5.838 14.209 4.72472 14.1387L0.728622 19.084C-0.525284 20.6426 0.00206017 22.7988 2.22862 22.7988Z" fill="black" fill-opacity="0.85"/>
<path d="M13.7833 24.3925H39.1544C42.5997 24.3925 43.9005 20.7948 42.0138 18.3339L29.7794 2.25579C27.8458 -0.275461 24.8224 0.052664 23.1466 2.25579L10.9239 18.3456C9.03722 20.8065 10.338 24.3925 13.7833 24.3925Z" fill="white"/>
<path d="M22.5372 11.1855C23.5919 11.1855 24.5411 9.59181 26.4747 9.59181C28.3966 9.59181 29.3458 11.1855 30.4005 11.1855C31.2677 11.1855 32.0763 10.0723 33.4591 9.73243L28.5021 3.22853C27.3536 1.71681 25.5958 1.69337 24.4357 3.22853L19.4786 9.73243C20.8614 10.084 21.6818 11.1855 22.5372 11.1855ZM13.7833 22.7988H39.1661C41.2872 22.7988 41.8029 20.7012 40.7482 19.3184L34.4786 11.1035C33.0724 11.2324 32.3107 12.6504 30.4005 12.6504C28.3966 12.6504 27.588 11.0566 26.4747 11.0566C25.3497 11.0566 24.5411 12.6504 22.5372 12.6504C20.6271 12.6504 19.8654 11.2324 18.4708 11.1035L12.1896 19.3184C11.1349 20.7012 11.6505 22.7988 13.7833 22.7988Z" fill="black" fill-opacity="0.85"/>
</g>
<defs>
<clipPath id="clip0_2207_12533">
<rect width="42.8176" height="24.293" fill="white" transform="translate(0.0629883 0.0996094)"/>
</clipPath>
</defs>
</svg>
