<svg width="25" height="23" viewBox="0 0 25 23" fill="none" xmlns="http://www.w3.org/2000/svg">
<g clip-path="url(#clip0_2207_13001)">
<path d="M3.06097 18.0923L3.99847 19.7095L12.3539 15.5142L20.7094 19.7095L21.6586 18.0923L13.3031 13.897V4.00636H11.4164V13.897L3.06097 18.0923ZM0.201593 19.7446C-0.126532 20.4946 0.166436 20.9751 0.963311 21.0688L5.81488 21.5962C6.893 21.7251 7.52582 21.0571 6.9516 20.0728L4.05707 15.0571C3.50628 14.0962 2.60394 14.2954 2.18207 15.2798L0.201593 19.7446ZM24.5062 19.7446L22.5375 15.2798C22.1039 14.2954 21.2133 14.0962 20.6625 15.0571L17.7562 20.0728C17.182 21.0571 17.8266 21.7251 18.893 21.5962L23.7445 21.0688C24.5414 20.9751 24.8344 20.4946 24.5062 19.7446ZM11.5805 0.596201L8.70941 4.52198C8.06488 5.38917 8.33441 6.2798 9.45941 6.2798H15.2367C16.3852 6.2798 16.6312 5.40089 15.9867 4.52198L13.1039 0.596201C12.6117 -0.0600488 12.0727 -0.0717678 11.5805 0.596201Z" fill="black" fill-opacity="0.85"/>
</g>
<defs>
<clipPath id="clip0_2207_13001">
<rect width="24.5692" height="22.4033" fill="white" transform="translate(0.0693359 0.0996094)"/>
</clipPath>
</defs>
</svg>
