<svg width="24" height="25" viewBox="0 0 24 25" fill="none" xmlns="http://www.w3.org/2000/svg">
<g clip-path="url(#clip0_2207_17638)">
<path d="M12.0329 24.0058C18.572 24.0058 23.986 18.5801 23.986 12.0527C23.986 5.51367 18.5603 0.0996094 12.0212 0.0996094C5.49389 0.0996094 0.079834 5.51367 0.079834 12.0527C0.079834 18.5801 5.50561 24.0058 12.0329 24.0058Z" fill="black" fill-opacity="0.85"/>
<path d="M4.32202 15.9902C3.92358 15.9902 3.68921 15.7207 3.68921 15.3223V9.08789C3.68921 8.57227 3.99389 8.10352 4.70874 8.10352C5.21264 8.10352 5.56421 8.30273 5.69311 8.91211L6.7478 13.9863H6.75952L7.77905 8.91211C7.89624 8.34961 8.22436 8.10352 8.77514 8.10352C9.39624 8.10352 9.79467 8.4668 9.79467 9.08789V15.3223C9.79467 15.7324 9.57202 15.9902 9.17358 15.9902C8.77514 15.9902 8.56421 15.7207 8.56421 15.3223V10.2012H8.51733L7.47436 15.1465C7.39233 15.5566 7.16967 15.8496 6.7478 15.8496C6.33764 15.8496 6.10327 15.5566 6.02124 15.1465L4.98999 10.2012H4.94311V15.3223C4.94311 15.7324 4.72045 15.9902 4.32202 15.9902ZM11.4353 15.9668C11.0954 15.9668 10.7556 15.7793 10.7556 15.2402V8.94727C10.7556 8.44336 11.0486 8.2207 11.4353 8.2207H13.0407C14.3884 8.2207 15.0798 9.41602 15.0798 10.7871C15.0798 12.123 14.365 13.3535 12.947 13.3535H12.1501V15.2402C12.1501 15.7324 11.8571 15.9668 11.4353 15.9668ZM12.1501 12.2402H12.6657C13.4392 12.2402 13.7087 11.5605 13.7087 10.7871C13.7087 10.0137 13.4392 9.33399 12.6775 9.33399H12.1501V12.2402ZM16.4978 15.9902C16.0407 15.9902 15.8064 15.6738 15.8064 15.2285V8.8418C15.8064 8.39649 16.0407 8.10352 16.4978 8.10352C16.9548 8.10352 17.2009 8.39649 17.2009 8.8418V11.3965H19.0525V8.8418C19.0525 8.4082 19.2868 8.10352 19.7556 8.10352C20.1892 8.10352 20.447 8.37305 20.447 8.8418V15.2285C20.447 15.6973 20.2009 15.9902 19.7556 15.9902C19.2751 15.9902 19.0525 15.6269 19.0525 15.2285V12.5684H17.2009V15.2285C17.2009 15.6738 16.9548 15.9902 16.4978 15.9902Z" fill="white"/>
</g>
<defs>
<clipPath id="clip0_2207_17638">
<rect width="23.9062" height="23.918" fill="white" transform="translate(0.079834 0.0996094)"/>
</clipPath>
</defs>
</svg>
