<svg width="23" height="25" viewBox="0 0 23 25" fill="none" xmlns="http://www.w3.org/2000/svg">
<g clip-path="url(#clip0_2207_21213)">
<path d="M8.13281 24.873H10.3828C15.3398 24.873 18.4336 22.2715 18.4336 18.0996V3.3457C18.4336 1.24805 14.5195 0.0996094 9.25781 0.0996094C3.99609 0.0996094 0.0820312 1.24805 0.0820312 3.3457V18.0996C0.0820312 22.2715 3.1875 24.873 8.13281 24.873ZM8.13281 23.1035C4.26562 23.1035 1.85156 21.1816 1.85156 18.0996V4.70508C3.46875 5.36133 6.17578 5.64258 9.25781 5.64258C12.3398 5.64258 15.0468 5.36133 16.664 4.70508V18.0996C16.664 21.1816 14.25 23.1035 10.3828 23.1035H8.13281ZM9.25781 3.99023C5.15625 3.99023 2.32031 3.54492 2.32031 2.87695C2.32031 2.20899 5.15625 1.75195 9.25781 1.75195C13.3593 1.75195 16.1953 2.20899 16.1953 2.87695C16.1953 3.54492 13.3593 3.99023 9.25781 3.99023ZM17.1914 17.8887H19.1367C21.2226 17.8887 22.5586 16.4824 22.5586 14.3848V9.69727C22.5586 7.58789 21.2226 6.19336 19.1367 6.19336H17.1914V7.96289H19.1367C20.3203 7.96289 20.789 8.44336 20.789 9.69727V14.3848C20.789 15.6269 20.3203 16.1191 19.1367 16.1191H17.1914V17.8887Z" fill="black" fill-opacity="0.85"/>
</g>
<defs>
<clipPath id="clip0_2207_21213">
<rect width="22.4766" height="24.7852" fill="white" transform="translate(0.0820312 0.0996094)"/>
</clipPath>
</defs>
</svg>
