<svg width="30" height="24" viewBox="0 0 30 24" fill="none" xmlns="http://www.w3.org/2000/svg">
<g clip-path="url(#clip0_2207_14851)">
<path d="M3.02442 19.5537H26.2979C28.3018 19.5537 29.3096 18.5811 29.3096 16.542V3.11231C29.3096 1.07324 28.3018 0.100586 26.2979 0.100586H3.02442C1.03223 0.100586 0.0126953 1.07324 0.0126953 3.11231V16.542C0.0126953 18.5811 1.03223 19.5537 3.02442 19.5537ZM8.76661 23.5264H20.5557C21.0713 23.5264 21.5049 23.1045 21.5049 22.5772C21.5049 22.0498 21.0713 21.6279 20.5557 21.6279H8.76661C8.25098 21.6279 7.81739 22.0498 7.81739 22.5772C7.81739 23.1045 8.25098 23.5264 8.76661 23.5264Z" fill="black" fill-opacity="0.85"/>
<path d="M18.376 7.55366L15.4932 8.25679C15.2119 8.31538 15.1065 8.43257 15.1065 8.8896V13.1083C15.1065 14.8896 13.9111 16.1435 12.1533 16.1435C10.9229 16.1435 10.1377 15.3817 10.1377 14.3388C10.1377 13.1317 11.0752 12.4638 12.1885 12.1825L13.3252 11.8778C13.9346 11.7255 13.9815 11.6083 13.9815 11.0575V5.52632C13.9815 4.79976 14.1221 4.68257 14.7197 4.53023L18.3291 3.62788C18.9854 3.46382 19.1377 3.67476 19.1377 4.14351V6.56929C19.1377 7.28413 18.9736 7.41304 18.376 7.55366Z" fill="white"/>
</g>
<defs>
<clipPath id="clip0_2207_14851">
<rect width="29.2969" height="23.4492" fill="white" transform="translate(0.0126953 0.100586)"/>
</clipPath>
</defs>
</svg>
