<svg width="30" height="24" viewBox="0 0 30 24" fill="none" xmlns="http://www.w3.org/2000/svg">
<g clip-path="url(#clip0_2207_14846)">
<path d="M3.02222 19.5654H26.2957C28.1707 19.5654 29.3074 18.417 29.3074 16.5537V3.11231C29.3074 1.24903 28.1707 0.100586 26.2957 0.100586H3.02222C1.15894 0.100586 0.010498 1.24903 0.010498 3.11231V16.5537C0.010498 18.417 1.15894 19.5654 3.02222 19.5654ZM3.05738 17.6787C2.33081 17.6787 1.89722 17.2451 1.89722 16.5303V3.13575C1.89722 2.4209 2.33081 1.98731 3.05738 1.98731H26.2605C26.9871 1.98731 27.4207 2.4209 27.4207 3.13575V16.5303C27.4207 17.2451 26.9871 17.6787 26.2605 17.6787H3.05738ZM8.76441 23.5381H20.5535C21.0691 23.5381 21.5027 23.1162 21.5027 22.5889C21.5027 22.0615 21.0691 21.6397 20.5535 21.6397H8.76441C8.24878 21.6397 7.81519 22.0615 7.81519 22.5889C7.81519 23.1162 8.24878 23.5381 8.76441 23.5381Z" fill="black" fill-opacity="0.85"/>
<path d="M18.198 7.70616C18.7605 7.55381 18.9246 7.43663 18.9246 6.75694V4.46007C18.9246 4.01475 18.7722 3.81553 18.1511 3.96788L14.7175 4.82335C14.1433 4.96397 14.0144 5.08116 14.0144 5.77257V11.0577C14.0144 11.5734 13.9675 11.6671 13.3816 11.8312L12.3035 12.1124C11.2371 12.3937 10.3464 13.0265 10.3464 14.1749C10.3464 15.171 11.0964 15.8976 12.2683 15.8976C13.9441 15.8976 15.0808 14.6905 15.0808 12.9913V8.97178C15.0808 8.53819 15.1863 8.421 15.4441 8.36241L18.198 7.70616Z" fill="black" fill-opacity="0.85"/>
</g>
<defs>
<clipPath id="clip0_2207_14846">
<rect width="29.2969" height="23.4492" fill="white" transform="translate(0.010498 0.100586)"/>
</clipPath>
</defs>
</svg>
