<svg width="28" height="27" viewBox="0 0 28 27" fill="none" xmlns="http://www.w3.org/2000/svg">
<g clip-path="url(#clip0_2207_10811)">
<path d="M6.02759 24.7129H21.8831C23.5472 24.7129 24.5198 23.7637 24.5198 22.1231V9.17383L22.6331 7.88477V21.6426C22.6331 22.4043 22.2229 22.8262 21.4846 22.8262H6.42603C5.67603 22.8262 5.26587 22.4043 5.26587 21.6426V7.89649L3.37915 9.17383V22.1231C3.37915 23.7637 4.35181 24.7129 6.02759 24.7129ZM0.00415039 11.6699C0.00415039 12.1504 0.37915 12.6074 1.01196 12.6074C1.34009 12.6074 1.60962 12.4317 1.85571 12.2324L13.5862 2.38868C13.844 2.1543 14.1603 2.1543 14.4183 2.38868L26.1487 12.2324C26.3831 12.4317 26.6526 12.6074 26.9808 12.6074C27.5315 12.6074 27.9769 12.2676 27.9769 11.7051C27.9769 11.3535 27.8596 11.1192 27.6136 10.9082L15.4144 0.654297C14.5472 -0.0839843 13.469 -0.0839843 12.5901 0.654297L0.37915 10.9082C0.121338 11.1192 0.00415039 11.4004 0.00415039 11.6699ZM21.5784 6.38477L24.5198 8.86914V3.45508C24.5198 2.93946 24.1917 2.61133 23.6761 2.61133H22.4221C21.9182 2.61133 21.5784 2.93946 21.5784 3.45508V6.38477Z" fill="black" fill-opacity="0.85"/>
<path d="M17.2659 12.4083C17.8401 12.2677 18.0042 12.1388 18.0042 11.4474V9.12706C18.0042 8.68174 17.8519 8.48253 17.219 8.63487L13.762 9.49034C13.1761 9.63096 13.0472 9.75987 13.0472 10.463V15.795C13.0472 16.3224 13.012 16.4161 12.4026 16.5802L11.3245 16.8732C10.2464 17.1544 9.34399 17.7872 9.34399 18.9474C9.34399 19.9552 10.094 20.6818 11.2894 20.6818C12.9769 20.6818 14.1253 19.4747 14.1253 17.7521V13.6857C14.1253 13.2403 14.219 13.1349 14.4886 13.0763L17.2659 12.4083Z" fill="black" fill-opacity="0.85"/>
</g>
<defs>
<clipPath id="clip0_2207_10811">
<rect width="27.9727" height="26.5957" fill="white" transform="translate(0.00415039 0.100586)"/>
</clipPath>
</defs>
</svg>
