<svg width="22" height="22" viewBox="0 0 22 22" fill="none" xmlns="http://www.w3.org/2000/svg">
<g clip-path="url(#clip0_2207_25101)">
<path d="M3.70703 21.6983H17.9218C20.3828 21.6983 21.6015 20.4795 21.6015 18.0654V3.75684C21.6015 1.34278 20.3828 0.124023 17.9218 0.124023H3.70703C1.25781 0.124023 0.0273438 1.33106 0.0273438 3.75684V18.0654C0.0273438 20.4912 1.25781 21.6983 3.70703 21.6983Z" fill="black" fill-opacity="0.85"/>
<path d="M7.17579 16.4365C6.61329 16.4365 6.28516 16.0615 6.28516 15.4639V6.14747C6.28516 5.52637 6.62501 5.12793 7.22266 5.12793C7.6211 5.12793 7.89063 5.28028 8.19532 5.71387L13.457 13.249H13.539V6.10059C13.539 5.51465 13.8789 5.12793 14.4296 5.12793C15.0156 5.12793 15.3554 5.49121 15.3554 6.10059V15.4287C15.3554 16.0733 14.9921 16.4365 14.3945 16.4365C13.9961 16.4365 13.75 16.2959 13.4335 15.8506L8.17188 8.44434H8.08985V15.4639C8.08985 16.085 7.75001 16.4365 7.17579 16.4365Z" fill="white"/>
</g>
<defs>
<clipPath id="clip0_2207_25101">
<rect width="21.5742" height="21.5977" fill="white" transform="translate(0.0273438 0.100586)"/>
</clipPath>
</defs>
</svg>
