<svg width="24" height="25" viewBox="0 0 24 25" fill="none" xmlns="http://www.w3.org/2000/svg">
<g clip-path="url(#clip0_2207_25811)">
<path d="M11.9867 24.0068C18.5258 24.0068 23.9398 18.5811 23.9398 12.0537C23.9398 5.51465 18.5141 0.100586 11.975 0.100586C5.44763 0.100586 0.0335693 5.51465 0.0335693 12.0537C0.0335693 18.5811 5.45935 24.0068 11.9867 24.0068Z" fill="black" fill-opacity="0.85"/>
<path d="M6.91248 12.2412C6.91248 11.8897 7.17029 11.6318 7.49841 11.6318H8.16638V7.34278C8.16638 6.76856 8.5531 6.37012 9.15076 6.37012C9.65466 6.37012 9.99451 6.63965 10.2055 7.08497L12.5024 11.6436H14.225V7.17871C14.225 6.69825 14.5414 6.38184 14.9984 6.38184C15.4555 6.38184 15.7836 6.69825 15.7836 7.17871V11.6436H16.475C16.8031 11.6436 17.0609 11.8897 17.0609 12.2412C17.0609 12.5694 16.8031 12.8506 16.475 12.8506H15.7836V17.0928C15.7836 17.6787 15.3969 18.0772 14.7992 18.0772C14.2953 18.0772 13.9555 17.8076 13.7445 17.3623L11.4594 12.8389H9.72498V17.2686C9.72498 17.749 9.40857 18.0654 8.95154 18.0654C8.49451 18.0654 8.16638 17.749 8.16638 17.2686V12.8389H7.49841C7.15857 12.8389 6.91248 12.5694 6.91248 12.2412ZM9.72498 11.6318H10.8617L9.72498 9.19434V11.6318ZM13.1 12.8506L14.225 15.2764V12.8506H13.1Z" fill="white"/>
</g>
<defs>
<clipPath id="clip0_2207_25811">
<rect width="23.9062" height="23.918" fill="white" transform="translate(0.0335693 0.100586)"/>
</clipPath>
</defs>
</svg>
