<svg width="24" height="25" viewBox="0 0 24 25" fill="none" xmlns="http://www.w3.org/2000/svg">
<g clip-path="url(#clip0_2207_3797)">
<path d="M1.92664 7.08497C4.82117 10.167 8.8993 11.9483 13.2352 11.9365C16.6571 11.9248 19.9032 10.7881 22.5516 8.70215L21.8837 7.38965C19.4696 9.40528 16.4344 10.5068 13.2352 10.5186C9.0868 10.5303 5.20789 8.72559 2.58289 5.63184L1.92664 7.08497ZM0.672729 13.7764C6.76648 18.9795 15.4852 19.9522 22.5165 16.2725L22.4813 14.667C15.6493 18.6162 6.91883 17.6318 1.02429 12.1826L0.672729 13.7764ZM6.48523 21.8272L8.16101 22.2139C7.37586 20.3272 6.95398 18.335 6.91883 16.2842C6.5907 10.46 9.09851 4.90528 13.5751 1.23731L12.0751 0.651367C7.63367 4.58887 5.18445 10.3194 5.50086 16.3076C5.5243 18.1826 5.86414 20.0342 6.48523 21.8272ZM14.2079 22.9873L15.5321 22.4014C13.3407 19.3076 12.1454 15.6397 12.1454 11.8076C12.1454 8.17481 13.2001 4.70606 15.1805 1.75293L13.7977 1.26075C11.7938 4.40137 10.7274 8.0459 10.7274 11.8076C10.7274 15.8506 11.9461 19.7061 14.2079 22.9873ZM21.1102 18.6279L22.0594 17.5498C18.1219 15.2881 15.661 11.1514 15.6024 6.55762C15.579 4.917 15.8719 3.28809 16.4579 1.78809L15.0868 1.40137C14.4657 3.042 14.161 4.77637 14.1844 6.56934C14.243 11.5498 16.8797 16.0967 21.1102 18.6279ZM6.90711 11.7959C7.9032 11.7959 8.72351 10.9639 8.72351 9.95606C8.72351 8.94825 7.9032 8.12793 6.90711 8.12793C5.88758 8.12793 5.06726 8.94825 5.06726 9.95606C5.06726 10.9639 5.88758 11.7959 6.90711 11.7959ZM15.8837 12.7686C16.868 12.7686 17.6766 11.96 17.6766 10.9522C17.6766 9.96778 16.868 9.15918 15.8837 9.15918C14.8758 9.15918 14.0672 9.96778 14.0672 10.9522C14.0672 11.96 14.8758 12.7686 15.8837 12.7686ZM12.3915 19.542C13.3993 19.542 14.2079 18.7334 14.2079 17.7139C14.2079 16.7061 13.3993 15.8858 12.3915 15.8858C11.3719 15.8858 10.5516 16.7061 10.5516 17.7139C10.5516 18.7334 11.3719 19.542 12.3915 19.542ZM11.993 24.0068C18.5321 24.0068 23.9461 18.5811 23.9461 12.0537C23.9461 5.51465 18.5204 0.100586 11.9813 0.100586C5.45398 0.100586 0.039917 5.51465 0.039917 12.0537C0.039917 18.5811 5.4657 24.0068 11.993 24.0068ZM11.993 22.4131C6.33289 22.4131 1.63367 17.7139 1.63367 12.0537C1.63367 6.39356 6.32117 1.69434 11.9813 1.69434C17.6415 1.69434 22.3524 6.39356 22.3524 12.0537C22.3524 17.7139 17.6532 22.4131 11.993 22.4131Z" fill="black" fill-opacity="0.85"/>
</g>
<defs>
<clipPath id="clip0_2207_3797">
<rect width="23.9062" height="23.918" fill="white" transform="translate(0.039917 0.100586)"/>
</clipPath>
</defs>
</svg>
