<svg width="24" height="25" viewBox="0 0 24 25" fill="none" xmlns="http://www.w3.org/2000/svg">
<g clip-path="url(#clip0_2207_1624)">
<path d="M12.0035 24.0186C18.5426 24.0186 23.9566 18.6045 23.9566 12.0654C23.9566 5.53809 18.5309 0.112305 11.9918 0.112305C5.46447 0.112305 0.050415 5.53809 0.050415 12.0654C0.050415 18.6045 5.4762 24.0186 12.0035 24.0186Z" fill="black" fill-opacity="0.85"/>
<path d="M5.72229 11.5264C5.72229 10.8701 6.14416 10.4717 6.82385 10.4717H7.1051V16.5303C7.1051 16.9404 6.80041 17.21 6.41369 17.21C6.01525 17.21 5.72229 16.9522 5.72229 16.5303V11.5264ZM7.609 18.0772C8.05432 17.8311 8.19494 17.5147 8.19494 16.917V7.79981C8.19494 6.63965 8.76916 6.06543 9.94103 6.06543H16.4918C17.6637 6.06543 18.2496 6.63965 18.2496 7.79981V16.3428C18.2496 17.5147 17.6637 18.0772 16.4918 18.0772H7.609ZM10.4684 9.42871H15.9645C16.1988 9.42871 16.3512 9.26465 16.3512 9.042C16.3512 8.84278 16.1988 8.69043 15.9645 8.69043H10.4684C10.2457 8.69043 10.0934 8.84278 10.0934 9.042C10.0934 9.26465 10.2457 9.42871 10.4684 9.42871ZM10.4684 11.4092H15.9645C16.1988 11.4092 16.3512 11.2451 16.3512 11.0342C16.3512 10.8115 16.1988 10.6592 15.9645 10.6592H10.4684C10.2457 10.6592 10.0934 10.8115 10.0934 11.0342C10.0934 11.2451 10.2457 11.4092 10.4684 11.4092ZM13.9488 13.4131H15.9645C16.1988 13.4131 16.3512 13.249 16.3512 13.0498C16.3512 12.8389 16.1988 12.6748 15.9645 12.6748H13.9488C13.7262 12.6748 13.5738 12.8389 13.5738 13.0498C13.5738 13.249 13.7262 13.4131 13.9488 13.4131ZM13.9488 15.4053H15.9645C16.1988 15.4053 16.3512 15.2529 16.3512 15.0303C16.3512 14.8194 16.1988 14.6553 15.9645 14.6553H13.9488C13.7262 14.6553 13.5738 14.8194 13.5738 15.0303C13.5738 15.2529 13.7262 15.4053 13.9488 15.4053ZM10.7262 15.4053H12.1324C12.5543 15.4053 12.8121 15.1592 12.8121 14.7373V13.3428C12.8121 12.9209 12.5543 12.6748 12.1324 12.6748H10.7262C10.3277 12.6748 10.0816 12.9209 10.0816 13.3428V14.7373C10.0816 15.1592 10.3277 15.4053 10.7262 15.4053Z" fill="white"/>
</g>
<defs>
<clipPath id="clip0_2207_1624">
<rect width="23.9062" height="23.918" fill="white" transform="translate(0.050415 0.100586)"/>
</clipPath>
</defs>
</svg>
