<svg width="24" height="25" viewBox="0 0 24 25" fill="none" xmlns="http://www.w3.org/2000/svg">
<g clip-path="url(#clip0_2207_1619)">
<path d="M12.0014 24.0068C18.5405 24.0068 23.9545 18.5811 23.9545 12.0537C23.9545 5.51465 18.5288 0.100586 11.9897 0.100586C5.4624 0.100586 0.0483398 5.51465 0.0483398 12.0537C0.0483398 18.5811 5.47412 24.0068 12.0014 24.0068ZM12.0014 22.0147C6.47022 22.0147 2.05225 17.585 2.05225 12.0537C2.05225 6.52247 6.4585 2.09278 11.9897 2.09278C17.521 2.09278 21.9624 6.52247 21.9624 12.0537C21.9624 17.585 17.5327 22.0147 12.0014 22.0147Z" fill="black" fill-opacity="0.85"/>
<path d="M5.81396 11.5264V16.4483C5.81396 16.8701 6.10693 17.1162 6.49365 17.1162C6.88037 17.1045 7.18506 16.8584 7.18506 16.4483V10.4834H6.91553C6.24756 10.4834 5.81396 10.8701 5.81396 11.5264ZM7.67725 17.9717H16.4194C17.5795 17.9717 18.1538 17.4092 18.1538 16.2725V7.84667C18.1538 6.69824 17.5795 6.14746 16.4194 6.14746H9.98584C8.82568 6.14746 8.25146 6.69824 8.25146 7.84667V16.8233C8.25146 17.4092 8.11084 17.7373 7.67725 17.9717ZM10.5014 9.45214C10.2788 9.45214 10.1147 9.2998 10.1147 9.07714C10.1147 8.87792 10.2671 8.72558 10.5014 8.72558H15.9155C16.1264 8.72558 16.2788 8.87792 16.2788 9.07714C16.2788 9.2998 16.1264 9.45214 15.9155 9.45214H10.5014ZM10.5014 11.3975C10.2788 11.3975 10.1147 11.2451 10.1147 11.0342C10.1147 10.8233 10.2671 10.6709 10.5014 10.6709H15.9155C16.1264 10.6709 16.2788 10.8233 16.2788 11.0342C16.2788 11.2451 16.1264 11.3975 15.9155 11.3975H10.5014ZM13.9233 13.3779C13.7006 13.3779 13.5483 13.2256 13.5483 13.0264C13.5483 12.8154 13.7006 12.6397 13.9233 12.6397H15.9155C16.1264 12.6397 16.2788 12.8154 16.2788 13.0264C16.2788 13.2256 16.1264 13.3779 15.9155 13.3779H13.9233ZM13.9233 15.335C13.7006 15.335 13.5483 15.1826 13.5483 14.9717C13.5483 14.7608 13.7006 14.6084 13.9233 14.6084H15.9155C16.1264 14.6084 16.2788 14.7608 16.2788 14.9717C16.2788 15.1826 16.1264 15.335 15.9155 15.335H13.9233ZM10.7592 15.335C10.3491 15.335 10.1147 15.1006 10.1147 14.6904V13.2959C10.1147 12.8975 10.3491 12.6397 10.7592 12.6397H12.1421C12.5522 12.6397 12.7983 12.8975 12.7983 13.2959V14.6904C12.7983 15.1006 12.5522 15.335 12.1421 15.335H10.7592Z" fill="black" fill-opacity="0.85"/>
</g>
<defs>
<clipPath id="clip0_2207_1619">
<rect width="23.9062" height="23.918" fill="white" transform="translate(0.0483398 0.100586)"/>
</clipPath>
</defs>
</svg>
