<svg width="22" height="22" viewBox="0 0 22 22" fill="none" xmlns="http://www.w3.org/2000/svg">
<g clip-path="url(#clip0_2207_10261)">
<path d="M20.3096 1.4834C19.1143 0.288086 17.4268 0.100586 15.4229 0.100586H6.29395C4.3252 0.100586 2.6377 0.288086 1.44238 1.4834C0.24707 2.67871 0.0712891 4.3545 0.0712891 6.32325V15.4522C0.0712891 17.4561 0.24707 19.1318 1.44238 20.3272C2.6377 21.5225 4.3252 21.71 6.31738 21.71H15.4229C17.4268 21.71 19.1143 21.5225 20.3096 20.3272C21.5049 19.1318 21.6807 17.4561 21.6807 15.4522V6.34668C21.6807 4.34278 21.5049 2.67871 20.3096 1.4834ZM19.794 6.03028V15.7803C19.794 16.9873 19.6416 18.2412 18.9268 18.9444C18.2236 19.6592 16.958 19.8233 15.751 19.8233H6.00098C4.79395 19.8233 3.52832 19.6592 2.81348 18.9444C2.11035 18.2412 1.95801 16.9873 1.95801 15.7803V6.06543C1.95801 4.82325 2.11035 3.56934 2.81348 2.8545C3.52832 2.15137 4.80567 1.98731 6.03613 1.98731H15.751C16.958 1.98731 18.2236 2.15137 18.9268 2.86621C19.6416 3.56934 19.794 4.82325 19.794 6.03028Z" fill="black" fill-opacity="0.85"/>
<path d="M10.876 17.1983C14.3096 17.1983 17.1572 14.3389 17.1572 10.917C17.1572 7.50683 14.2861 4.63574 10.876 4.63574C7.4541 4.63574 4.60645 7.49511 4.60645 10.917C4.60645 14.3272 7.47754 17.1983 10.876 17.1983ZM10.876 15.4873C8.40332 15.4873 6.31738 13.4014 6.31738 10.917C6.31738 8.42089 8.3916 6.34667 10.876 6.34667C13.3604 6.34667 15.4463 8.43261 15.4463 10.917C15.4463 13.4131 13.3721 15.4873 10.876 15.4873ZM14.1338 15.4287L15.3877 14.1748L7.61817 6.40527L6.37598 7.65917L14.1338 15.4287Z" fill="black" fill-opacity="0.85"/>
</g>
<defs>
<clipPath id="clip0_2207_10261">
<rect width="21.6094" height="21.6211" fill="white" transform="translate(0.0712891 0.100586)"/>
</clipPath>
</defs>
</svg>
