<svg width="24" height="25" viewBox="0 0 24 25" fill="none" xmlns="http://www.w3.org/2000/svg">
<g clip-path="url(#clip0_2207_10257)">
<path d="M19.2177 20.5029L20.4599 19.2608L4.83887 3.63965L3.59668 4.88184L19.2177 20.5029ZM12.0224 24.0068C18.5615 24.0068 23.9755 18.5811 23.9755 12.0537C23.9755 5.51465 18.5498 0.100586 12.0107 0.100586C5.4834 0.100586 0.0693359 5.51465 0.0693359 12.0537C0.0693359 18.5811 5.49512 24.0068 12.0224 24.0068ZM12.0224 22.0147C6.49122 22.0147 2.07325 17.585 2.07325 12.0537C2.07325 6.52247 6.4795 2.09278 12.0107 2.09278C17.542 2.09278 21.9834 6.52247 21.9834 12.0537C21.9834 17.585 17.5537 22.0147 12.0224 22.0147Z" fill="black" fill-opacity="0.85"/>
</g>
<defs>
<clipPath id="clip0_2207_10257">
<rect width="23.9062" height="23.918" fill="white" transform="translate(0.0693359 0.100586)"/>
</clipPath>
</defs>
</svg>
