<svg width="24" height="22" viewBox="0 0 24 22" fill="none" xmlns="http://www.w3.org/2000/svg">
<g clip-path="url(#clip0_2207_1126)">
<path d="M3.75537 21.6983H19.7632C22.2124 21.6983 23.4312 20.4795 23.4312 18.0654V3.75684C23.4312 1.34278 22.2124 0.124023 19.7632 0.124023H3.75537C1.30615 0.124023 0.0756836 1.33106 0.0756836 3.75684V18.0654C0.0756836 20.4912 1.30615 21.6983 3.75537 21.6983ZM3.57959 19.8115C2.53662 19.8115 1.9624 19.2608 1.9624 18.1709V7.12012C1.9624 6.042 2.53662 5.4795 3.57959 5.4795H19.9155C20.9585 5.4795 21.5445 6.042 21.5445 7.12012V18.1709C21.5445 19.2608 20.9585 19.8115 19.9155 19.8115H3.57959Z" fill="black" fill-opacity="0.85"/>
</g>
<defs>
<clipPath id="clip0_2207_1126">
<rect width="23.3555" height="21.5977" fill="white" transform="translate(0.0756836 0.100586)"/>
</clipPath>
</defs>
</svg>
