<svg width="22" height="23" viewBox="0 0 22 23" fill="none" xmlns="http://www.w3.org/2000/svg">
<g clip-path="url(#clip0_2207_23027)">
<path d="M4.38281 22.9873C4.94531 22.9873 5.35547 22.6826 5.47265 22.1084L9.64453 1.43653C9.66797 1.36621 9.69141 1.21387 9.69141 1.06152C9.69141 0.487305 9.26953 0.15918 8.70703 0.15918C8.05078 0.15918 7.74609 0.522461 7.64062 1.07324L3.46875 21.7217C3.44531 21.8389 3.42187 21.9795 3.42187 22.0967C3.42187 22.6709 3.82031 22.9873 4.38281 22.9873ZM12 22.9873C12.5742 22.9873 12.9726 22.6826 13.0898 22.1084L17.2734 1.43653C17.2851 1.36621 17.3086 1.21387 17.3086 1.06152C17.3086 0.487305 16.8867 0.15918 16.3359 0.15918C15.6679 0.15918 15.375 0.522461 15.2695 1.07324L11.0859 21.7217C11.0625 21.8389 11.0508 21.9795 11.0508 22.0967C11.0508 22.6709 11.4492 22.9873 12 22.9873ZM2.54297 8.19825H20.0039C20.6484 8.19825 21.0937 7.7295 21.0937 7.09668C21.0937 6.58106 20.7422 6.15918 20.2148 6.15918H2.75391C2.12109 6.15918 1.66406 6.65137 1.66406 7.2959C1.66406 7.82325 2.02734 8.19825 2.54297 8.19825ZM0.960937 16.4248H18.4218C19.0547 16.4248 19.5117 15.9561 19.5117 15.3233C19.5117 14.8076 19.1484 14.3858 18.6328 14.3858H1.17187C0.527343 14.3858 0.0820312 14.8779 0.0820312 15.5225C0.0820312 16.0498 0.433593 16.4248 0.960937 16.4248Z" fill="black" fill-opacity="0.85"/>
</g>
<defs>
<clipPath id="clip0_2207_23027">
<rect width="21.0117" height="22.8867" fill="white" transform="translate(0.0820312 0.100586)"/>
</clipPath>
</defs>
</svg>
