<svg width="25" height="25" viewBox="0 0 25 25" fill="none" xmlns="http://www.w3.org/2000/svg">
<g clip-path="url(#clip0_2207_25111)">
<path d="M12.0498 24.0068C18.5889 24.0068 24.0029 18.5811 24.0029 12.0537C24.0029 5.51465 18.5772 0.100586 12.0381 0.100586C5.51074 0.100586 0.0966797 5.51465 0.0966797 12.0537C0.0966797 18.5811 5.52246 24.0068 12.0498 24.0068Z" fill="black" fill-opacity="0.85"/>
<path d="M12.0498 17.7256C8.96777 17.7256 6.82324 15.3584 6.82324 11.9483C6.82324 8.52637 8.96777 6.15918 12.0498 6.15918C15.1436 6.15918 17.2881 8.52637 17.2881 11.9483C17.2881 15.3584 15.1436 17.7256 12.0498 17.7256ZM12.0498 16.2022C14.042 16.2022 15.3428 14.5147 15.3428 11.9483C15.3428 9.37012 14.042 7.68262 12.0498 7.68262C10.0576 7.68262 8.75684 9.37012 8.75684 11.9483C8.75684 14.5147 10.0576 16.2022 12.0498 16.2022Z" fill="white"/>
</g>
<defs>
<clipPath id="clip0_2207_25111">
<rect width="23.9062" height="23.918" fill="white" transform="translate(0.0966797 0.100586)"/>
</clipPath>
</defs>
</svg>
