<svg width="25" height="24" viewBox="0 0 25 24" fill="none" xmlns="http://www.w3.org/2000/svg">
<g clip-path="url(#clip0_2207_7787)">
<path d="M8.48853 23.2822H15.6019C17.09 23.2822 17.7933 22.8017 18.5667 21.9697L23.1136 16.9541C23.8752 16.1103 24.0862 15.5361 24.0862 14.3759V9.02051C24.0862 7.84863 23.8752 7.28613 23.1136 6.44238L18.5667 1.42676C17.7933 0.594727 17.09 0.102539 15.6019 0.102539H8.48853C7.00024 0.102539 6.2854 0.594727 5.52368 1.42676L0.976806 6.44238C0.203369 7.28613 0.00415039 7.84863 0.00415039 9.02051V14.3759C0.00415039 15.5361 0.203369 16.1103 0.976806 16.9541L5.52368 21.9697C6.2854 22.8017 7.00024 23.2822 8.48853 23.2822ZM9.12134 21.4072C7.94946 21.4072 7.60962 21.1494 6.96509 20.4463L2.73462 15.8173C2.27759 15.3017 2.17212 15.0087 2.17212 14.1533V9.24316C2.17212 8.3877 2.27759 8.09473 2.73462 7.5791L6.96509 2.9502C7.60962 2.23535 7.94946 1.98926 9.12134 1.98926H14.969C16.1409 1.98926 16.469 2.23535 17.1252 2.9502L21.344 7.5791C21.8127 8.09473 21.9183 8.3877 21.9183 9.24316V14.1533C21.9183 15.0087 21.8127 15.3017 21.344 15.8173L17.1252 20.4463C16.469 21.1494 16.1409 21.4072 14.969 21.4072H9.12134Z" fill="black" fill-opacity="0.85"/>
</g>
<defs>
<clipPath id="clip0_2207_7787">
<rect width="24.082" height="23.1914" fill="white" transform="translate(0.00415039 0.102539)"/>
</clipPath>
</defs>
</svg>
