<svg width="42" height="19" viewBox="0 0 42 19" fill="none" xmlns="http://www.w3.org/2000/svg">
<g clip-path="url(#clip0_2207_16078)">
<path d="M0.688317 6.75879L6.70003 16.0048C7.41488 17.0947 8.37582 17.4814 9.81722 17.4814H19.9422C21.7235 17.4814 22.8719 17.0244 23.6922 15.9931L31.5789 5.87988L36.1258 4.68457L37.743 6.06738C38.7039 6.89942 39.9578 5.66895 38.9852 4.80176L37.2157 3.25488C36.8407 2.92676 36.5008 2.79785 35.7508 2.99707L21.6063 6.75879L19.6844 4.89551C19.1571 4.3916 18.5946 4.2627 17.8797 4.2627H9.81722C9.47738 4.2627 9.17269 4.28613 8.89144 4.34473L3.70003 2.3877C0.910973 1.33301 -1.08122 4.0752 0.688317 6.75879ZM1.82503 5.43457C1.2391 4.50879 1.91878 3.55957 2.95003 3.93457L6.89925 5.45801C6.4891 6.02051 6.26644 6.79395 6.26644 7.77832V12.2666L1.82503 5.43457ZM9.60628 0.958008C9.60628 1.42676 10.0047 1.81348 10.4735 1.81348H17.3993C17.868 1.81348 18.2664 1.42676 18.2664 0.958008C18.2664 0.489258 17.868 0.102539 17.3993 0.102539H10.4735C10.0047 0.102539 9.60628 0.489258 9.60628 0.958008ZM13.075 5.39942H14.786V0.793945H13.075V5.39942ZM38.5164 18.5713C40.0985 18.5713 41.411 17.3173 41.411 15.7236C41.411 14.8213 40.9657 13.9658 40.5203 13.1455L38.786 9.92285C38.7274 9.80566 38.6219 9.74707 38.5164 9.74707C38.3875 9.74707 38.3172 9.80566 38.2586 9.93457L36.5008 13.1455C36.0672 13.9658 35.6219 14.8213 35.6219 15.7236C35.6219 17.3173 36.9227 18.5713 38.5164 18.5713Z" fill="black" fill-opacity="0.85"/>
</g>
<defs>
<clipPath id="clip0_2207_16078">
<rect width="41.3922" height="18.4805" fill="white" transform="translate(0.0187988 0.102539)"/>
</clipPath>
</defs>
</svg>
