<svg width="29" height="21" viewBox="0 0 29 21" fill="none" xmlns="http://www.w3.org/2000/svg">
<g clip-path="url(#clip0_2207_13998)">
<path d="M14.3146 20.2119C21.9786 20.2119 28.5997 14.7744 28.5997 10.1572C28.5997 5.54004 21.9786 0.102539 14.3146 0.102539C6.66223 0.102539 0.0294189 5.54004 0.0294189 10.1572C0.0294189 14.7744 6.66223 20.2119 14.3146 20.2119ZM14.3146 18.4892C7.10754 18.4892 1.7638 13.4267 1.7638 10.1572C1.7638 6.87598 7.10754 1.8252 14.3146 1.8252C21.5216 1.8252 26.8888 6.87598 26.8888 10.1572C26.8888 13.4267 21.5216 18.4892 14.3146 18.4892Z" fill="black" fill-opacity="0.85"/>
<path d="M14.338 17.165C19.0021 17.165 21.2169 12.9697 21.2169 11.3994C21.2169 11.0478 20.9239 10.7314 20.5606 10.7314C20.2442 10.7314 19.9396 10.9775 19.8927 11.2705C19.3653 13.8837 17.0802 15.8056 14.338 15.8056C13.1896 15.8056 12.0997 15.5009 11.1856 14.8798C11.0685 14.8095 10.9513 14.7744 10.8224 14.7744C10.4356 14.7744 10.1544 15.0791 10.1544 15.4541C10.1544 15.665 10.2482 15.8759 10.4474 16.0048C11.5606 16.7548 12.9083 17.165 14.338 17.165ZM7.3302 10.1572C7.3302 11.5869 7.74036 12.9228 8.47864 14.0361C8.61926 14.2353 8.8302 14.3291 9.02942 14.3291C9.36926 14.3291 9.72083 14.0947 9.72083 13.6611C9.72083 13.5087 9.67395 13.3798 9.60364 13.2627C8.99426 12.3955 8.68958 11.3173 8.68958 10.1572C8.68958 8.99707 9.00598 7.93066 9.60364 7.04004C9.68567 6.92285 9.72083 6.77051 9.72083 6.6416C9.72083 6.25488 9.41614 5.97363 9.04114 5.97363C8.8302 5.97363 8.61926 6.06738 8.49036 6.2666C7.74036 7.3916 7.3302 8.71582 7.3302 10.1572ZM14.338 3.1377C12.9083 3.1377 11.5606 3.54785 10.4474 4.30957C10.2482 4.43848 10.1544 4.64942 10.1544 4.86035C10.1544 5.24707 10.4474 5.55176 10.8341 5.55176C10.963 5.55176 11.1036 5.5166 11.2325 5.43457C12.1114 4.83692 13.2013 4.49707 14.338 4.49707C17.0802 4.49707 19.3653 6.41895 19.8927 9.04395C19.9396 9.33692 20.2325 9.583 20.5606 9.583C20.9356 9.583 21.2169 9.27832 21.2169 8.91504C21.2169 7.34473 19.0021 3.1377 14.338 3.1377Z" fill="black" fill-opacity="0.85"/>
<path d="M14.338 14.6455C15.4513 14.6455 16.4474 14.2353 17.2208 13.5908C17.4083 13.4267 17.4903 13.2392 17.4903 13.04C17.4903 12.665 17.1856 12.372 16.8224 12.372C16.6583 12.372 16.4942 12.4189 16.3771 12.5478C15.8732 13.0166 15.17 13.2861 14.3966 13.2861C12.5567 13.2861 11.1974 11.8447 11.1974 10.1455C11.1974 8.77442 12.0646 7.6377 13.3067 7.19238C13.5646 7.11035 13.7638 6.8291 13.7638 6.58301C13.7638 6.18457 13.4356 5.8916 13.0841 5.8916C12.0177 5.8916 9.83801 7.69629 9.83801 10.1806C9.83801 12.6416 11.8067 14.6455 14.338 14.6455ZM18.8146 10.1572C18.8146 7.64942 16.6466 5.8916 15.6153 5.8916C15.2403 5.8916 14.9239 6.18457 14.9239 6.58301C14.9239 6.8291 15.1114 7.11035 15.381 7.19238C16.5997 7.6377 17.4669 8.77442 17.4669 10.1572C17.4669 10.3447 17.4083 10.6963 17.3966 10.8369C17.3966 11.3056 17.713 11.5283 18.088 11.5283C18.5333 11.5283 18.7091 11.2587 18.7677 10.9189C18.8146 10.708 18.8146 10.415 18.8146 10.1572Z" fill="black" fill-opacity="0.85"/>
<path d="M14.338 12.1025C15.4161 12.1025 16.2833 11.2353 16.2833 10.1572C16.2833 9.07909 15.4161 8.21191 14.338 8.21191C13.2599 8.21191 12.3927 9.07909 12.3927 10.1572C12.3927 11.2353 13.2599 12.1025 14.338 12.1025Z" fill="black" fill-opacity="0.85"/>
</g>
<defs>
<clipPath id="clip0_2207_13998">
<rect width="28.5703" height="20.1211" fill="white" transform="translate(0.0294189 0.102539)"/>
</clipPath>
</defs>
</svg>
