<svg width="28" height="21" viewBox="0 0 28 21" fill="none" xmlns="http://www.w3.org/2000/svg">
<g clip-path="url(#clip0_2207_712)">
<path d="M5.00562 14.8447C5.00562 15.3017 5.3689 15.6767 5.82593 15.6767H21.8923C22.3493 15.6767 22.7126 15.3017 22.7126 14.8447C22.7126 14.3877 22.3493 14.0244 21.8923 14.0244H5.82593C5.3689 14.0244 5.00562 14.3877 5.00562 14.8447ZM0.0251465 14.8447C0.0251465 17.8213 2.33374 20.1298 5.59156 20.1298H22.1267C25.3845 20.1298 27.6931 17.8213 27.6931 14.8447C27.6931 13.9658 27.4353 13.1806 27.1306 12.4423L23.1813 2.96192C22.4079 1.08691 20.8142 0.125977 18.7165 0.125977H9.00171C6.90406 0.125977 5.31031 1.08691 4.53687 2.96192L0.575927 12.4423C0.282959 13.1689 0.0251465 13.9658 0.0251465 14.8447ZM1.91187 14.8447C1.91187 12.9111 3.37671 11.4463 5.59156 11.4463H22.1267C24.3415 11.4463 25.8063 12.9111 25.8063 14.8447C25.8063 17.0127 24.3415 18.2431 22.1267 18.2431H5.59156C3.37671 18.2431 1.91187 16.7783 1.91187 14.8447ZM3.81031 9.86426L6.36499 3.44238C6.81031 2.3291 7.77124 1.7666 9.09546 1.7666H18.6228C19.947 1.7666 20.9196 2.3291 21.3532 3.44238L23.9079 9.86426C23.3571 9.66504 22.7712 9.55957 22.1267 9.55957H5.59156C4.94703 9.55957 4.34937 9.66504 3.81031 9.86426Z" fill="black" fill-opacity="0.85"/>
</g>
<defs>
<clipPath id="clip0_2207_712">
<rect width="27.668" height="20.0273" fill="white" transform="translate(0.0251465 0.102539)"/>
</clipPath>
</defs>
</svg>
