<svg width="24" height="25" viewBox="0 0 24 25" fill="none" xmlns="http://www.w3.org/2000/svg">
<g clip-path="url(#clip0_2207_13080)">
<path d="M8.82397 23.5517C9.83178 23.8447 10.8982 24.0087 11.9763 24.0087C18.5154 24.0087 23.9294 18.583 23.9294 12.0556C23.9294 10.9775 23.7771 9.94629 23.4959 8.96192L17.2615 10.9775C17.3435 11.3291 17.3787 11.6806 17.3787 12.0556C17.3787 15.0439 14.9646 17.458 11.988 17.4697C11.5896 17.4697 11.2146 17.4345 10.8396 17.3408L8.82397 23.5517ZM23.1677 8.00098C22.8513 7.09863 22.4177 6.25488 21.8904 5.46973L16.6404 9.36035C16.7693 9.57129 16.8748 9.79395 16.9451 10.0283L23.1677 8.00098ZM21.2927 4.66113C19.9802 2.97363 18.199 1.64942 16.1482 0.911133L14.1209 7.15723C14.8591 7.4502 15.5271 7.93066 16.031 8.55176L21.2927 4.66113ZM15.199 0.583008C14.1677 0.27832 13.0896 0.102539 11.9646 0.102539C5.43725 0.102539 0.0231934 5.5166 0.0231934 12.0556C0.0231934 13.1806 0.198974 14.2939 0.515381 15.3252L6.73803 13.2978C6.63257 12.8994 6.58569 12.4892 6.58569 12.0556C6.58569 9.11426 9.03491 6.68848 11.9998 6.68848C12.3982 6.68848 12.7849 6.74707 13.1599 6.8291L15.199 0.583008ZM0.855224 16.2744C1.18335 17.1533 1.61694 17.9853 2.13257 18.7587L7.38257 14.8798C7.26538 14.6806 7.17163 14.4697 7.07788 14.247L0.855224 16.2744ZM2.75366 19.5673C4.06616 21.2197 5.84741 22.5205 7.86303 23.2236L9.87866 17.0244C9.16381 16.7431 8.50757 16.2744 8.01538 15.6884L2.75366 19.5673ZM11.988 16.2744C14.3084 16.2744 16.1834 14.3759 16.1834 12.0556C16.1834 9.77051 14.2966 7.88379 11.988 7.88379C9.67944 7.88379 7.781 9.78223 7.781 12.0556C7.781 14.3994 9.66772 16.2744 11.988 16.2744ZM11.988 14.9267C10.4177 14.9267 9.12866 13.6377 9.12866 12.0791C9.12866 10.5205 10.4177 9.23145 11.988 9.23145C13.5466 9.23145 14.8357 10.5205 14.8357 12.0673C14.8357 13.6377 13.5466 14.9267 11.988 14.9267ZM11.988 13.6259C12.8318 13.6377 13.5232 12.9345 13.5232 12.0673C13.5232 11.2353 12.8318 10.5322 11.9998 10.5322C11.1209 10.5322 10.4412 11.247 10.4412 12.0673C10.4412 12.9345 11.1209 13.6142 11.988 13.6259Z" fill="black" fill-opacity="0.85"/>
</g>
<defs>
<clipPath id="clip0_2207_13080">
<rect width="23.9062" height="23.918" fill="white" transform="translate(0.0231934 0.102539)"/>
</clipPath>
</defs>
</svg>
