<svg width="29" height="21" viewBox="0 0 29 21" fill="none" xmlns="http://www.w3.org/2000/svg">
<g clip-path="url(#clip0_2207_14005)">
<path d="M14.3167 20.2119C21.9807 20.2119 28.6018 14.7744 28.6018 10.1572C28.6018 5.54004 21.9807 0.102539 14.3167 0.102539C6.6643 0.102539 0.0314941 5.54004 0.0314941 10.1572C0.0314941 14.7744 6.6643 20.2119 14.3167 20.2119Z" fill="black" fill-opacity="0.85"/>
<path d="M14.3401 17.3877C12.8635 17.3877 11.4807 16.9658 10.3323 16.1923C10.1213 16.0517 10.0276 15.8408 10.0276 15.6181C10.0276 15.2314 10.3206 14.915 10.719 14.915C10.8479 14.915 10.9768 14.9502 11.094 15.0205C12.0315 15.665 13.1565 15.9814 14.3401 15.9814C17.1643 15.9814 19.5198 14.0009 20.0706 11.3056C20.1174 11.0009 20.4338 10.7431 20.762 10.7431C21.137 10.7431 21.4417 11.0713 21.4417 11.4345C21.4417 13.0634 19.1565 17.3877 14.3401 17.3877ZM7.10962 10.1572C7.10962 8.66895 7.5315 7.29785 8.30494 6.1377C8.44556 5.93848 8.6565 5.84473 8.87916 5.84473C9.26588 5.84473 9.58228 6.12598 9.58228 6.53613C9.58228 6.66504 9.54712 6.81738 9.46509 6.94629C8.844 7.86035 8.51588 8.96192 8.51588 10.1572C8.51588 11.3525 8.83228 12.4658 9.46509 13.3564C9.53541 13.4853 9.58228 13.6142 9.58228 13.7666C9.58228 14.2236 9.219 14.458 8.86744 14.458C8.6565 14.458 8.44556 14.3642 8.29322 14.165C7.5315 13.0166 7.10962 11.6337 7.10962 10.1572ZM14.3401 2.91504C19.1565 2.91504 21.4417 7.25098 21.4417 8.87988C21.4417 9.25488 21.1487 9.57129 20.7503 9.57129C20.4221 9.57129 20.1174 9.31348 20.0706 9.00879C19.5198 6.30176 17.1643 4.32129 14.3401 4.32129C13.1682 4.32129 12.0432 4.67285 11.1409 5.29395C11.012 5.37598 10.8596 5.41113 10.7307 5.41113C10.3323 5.41113 10.0276 5.09473 10.0276 4.69629C10.0276 4.47363 10.1213 4.2627 10.3323 4.12207C11.4807 3.33692 12.8635 2.91504 14.3401 2.91504Z" fill="white"/>
<path d="M14.3401 14.7861C11.7268 14.7861 9.69946 12.7236 9.69946 10.1806C9.69946 7.61426 11.9495 5.75098 13.051 5.75098C13.4143 5.75098 13.7542 6.05566 13.7542 6.46582C13.7542 6.72363 13.5432 7.0166 13.2854 7.09863C11.9963 7.55566 11.1057 8.72754 11.1057 10.1455C11.1057 11.8916 12.512 13.3798 14.3987 13.3798C15.1956 13.3798 15.9221 13.0986 16.4377 12.6181C16.5667 12.4892 16.7307 12.4423 16.9065 12.4423C17.2815 12.4423 17.5979 12.747 17.5979 13.1337C17.5979 13.333 17.5159 13.5322 17.3167 13.6963C16.5198 14.3642 15.4885 14.7861 14.3401 14.7861ZM18.9573 10.1572C18.9573 10.4267 18.9573 10.7197 18.9104 10.9423C18.8518 11.2939 18.676 11.5752 18.2073 11.5752C17.8206 11.5752 17.4924 11.3408 17.4924 10.8603C17.4924 10.708 17.5627 10.3447 17.5627 10.1572C17.5627 8.72754 16.6721 7.55566 15.4182 7.09863C15.137 7.0166 14.9377 6.72363 14.9377 6.46582C14.9377 6.05566 15.2659 5.75098 15.6643 5.75098C16.719 5.75098 18.9573 7.56738 18.9573 10.1572Z" fill="white"/>
<path d="M14.3401 12.1611C13.2268 12.1611 12.3362 11.2705 12.3362 10.1572C12.3362 9.04395 13.2268 8.15332 14.3401 8.15332C15.4534 8.15332 16.3557 9.04395 16.3557 10.1572C16.3557 11.2705 15.4534 12.1611 14.3401 12.1611Z" fill="white"/>
</g>
<defs>
<clipPath id="clip0_2207_14005">
<rect width="28.5703" height="20.1211" fill="white" transform="translate(0.0314941 0.102539)"/>
</clipPath>
</defs>
</svg>
