<svg width="24" height="25" viewBox="0 0 24 25" fill="none" xmlns="http://www.w3.org/2000/svg">
<g clip-path="url(#clip0_2207_25131)">
<path d="M12.0244 24.0087C18.5635 24.0087 23.9775 18.583 23.9775 12.0556C23.9775 5.5166 18.5518 0.102539 12.0127 0.102539C5.48535 0.102539 0.0712891 5.5166 0.0712891 12.0556C0.0712891 18.583 5.49707 24.0087 12.0244 24.0087Z" fill="black" fill-opacity="0.85"/>
<path d="M9.43457 17.5986C8.81348 17.5986 8.47363 17.1416 8.47363 16.497V7.53223C8.47363 6.87598 8.80176 6.43066 9.42285 6.43066H12.7979C15.1416 6.43066 16.7354 7.93066 16.7354 10.1572C16.7354 12.3837 15.1533 13.8603 12.7861 13.8603H10.419V16.497C10.419 17.165 10.0791 17.5986 9.43457 17.5986ZM10.419 12.3837H12.5283C13.9463 12.3837 14.8135 11.5283 14.8135 10.1572C14.8135 8.77442 13.9346 7.91895 12.5283 7.91895H10.419V12.3837Z" fill="white"/>
</g>
<defs>
<clipPath id="clip0_2207_25131">
<rect width="23.9062" height="23.918" fill="white" transform="translate(0.0712891 0.102539)"/>
</clipPath>
</defs>
</svg>
