<svg width="28" height="22" viewBox="0 0 28 22" fill="none" xmlns="http://www.w3.org/2000/svg">
<g clip-path="url(#clip0_2207_20843)">
<path d="M9.31202 21.1377H18.476C25.2729 21.1377 27.7104 18.6181 27.7104 12.3486V8.90332C27.7104 2.63379 25.2729 0.102539 18.476 0.102539H9.31202C2.51514 0.102539 0.0776367 2.63379 0.0776367 8.90332V12.3486C0.0776367 18.6181 2.51514 21.1377 9.31202 21.1377ZM9.31202 19.2509C3.78076 19.2509 1.96436 17.458 1.96436 12.3486V8.90332C1.96436 3.79395 3.78076 1.98926 9.31202 1.98926H18.476C24.0073 1.98926 25.8237 3.79395 25.8237 8.90332V12.3486C25.8237 17.458 24.0073 19.2509 18.476 19.2509H9.31202Z" fill="black" fill-opacity="0.85"/>
<path d="M9.18311 15.4775C9.74561 15.4775 10.0386 15.1377 10.0386 14.5986V12.2197H11.269C13.062 12.2197 14.0932 10.8603 14.0932 9.05566C14.0932 7.27442 13.0854 5.86816 11.3745 5.86816H9.17139C8.6792 5.86816 8.32764 6.19629 8.32764 6.77051V14.5986C8.32764 15.1494 8.63233 15.4775 9.18311 15.4775ZM10.0386 10.872V7.25098H10.9409C11.9253 7.25098 12.394 7.9541 12.394 9.05566C12.394 10.0986 11.9721 10.872 10.9292 10.872H10.0386ZM18.019 15.4892C18.476 15.4892 18.8628 15.1025 18.8628 14.6337V6.68848C18.8628 6.09082 18.4878 5.73926 17.8784 5.73926C17.3862 5.73926 16.9878 6.00879 16.7182 6.21973L15.4292 7.21582C15.2182 7.37988 15.0542 7.60254 15.0542 7.90723C15.0542 8.27051 15.3003 8.52832 15.6518 8.52832C15.8393 8.52832 15.9565 8.46973 16.0737 8.3877L17.1518 7.52051V14.6337C17.1518 15.1025 17.5385 15.4892 18.019 15.4892Z" fill="black" fill-opacity="0.85"/>
</g>
<defs>
<clipPath id="clip0_2207_20843">
<rect width="27.6328" height="21.0586" fill="white" transform="translate(0.0776367 0.102539)"/>
</clipPath>
</defs>
</svg>
