<svg width="28" height="22" viewBox="0 0 28 22" fill="none" xmlns="http://www.w3.org/2000/svg">
<g clip-path="url(#clip0_2207_20848)">
<path d="M9.31421 21.1377H18.4782C25.2751 21.1377 27.7126 18.6181 27.7126 12.3486V8.90332C27.7126 2.63379 25.2751 0.102539 18.4782 0.102539H9.31421C2.51733 0.102539 0.079834 2.63379 0.079834 8.90332V12.3486C0.079834 18.6181 2.51733 21.1377 9.31421 21.1377Z" fill="black" fill-opacity="0.85"/>
<path d="M9.04467 15.6298C8.47045 15.6298 8.15405 15.29 8.15405 14.7158V6.65331C8.15405 6.05565 8.51733 5.71581 9.03295 5.71581H11.3064C13.0759 5.71581 14.1071 7.16894 14.1071 9.00878C14.1071 10.872 13.0525 12.2783 11.2009 12.2783H9.9353V14.7158C9.9353 15.2783 9.63061 15.6298 9.04467 15.6298ZM9.9353 10.8837H10.8493C11.9157 10.8837 12.3493 10.0869 12.3493 9.00878C12.3493 7.87206 11.8689 7.15722 10.861 7.15722H9.9353V10.8837ZM18.1618 15.6416C17.6696 15.6416 17.2595 15.2431 17.2595 14.7509V7.42675L16.1579 8.31737C16.0407 8.41112 15.9118 8.46972 15.7243 8.46972C15.361 8.46972 15.1032 8.20019 15.1032 7.82519C15.1032 7.50878 15.2673 7.27441 15.49 7.11034L16.8142 6.07909C17.0954 5.86815 17.5056 5.58691 18.0212 5.58691C18.654 5.58691 19.0407 5.95019 19.0407 6.57128V14.7509C19.0407 15.2431 18.6423 15.6416 18.1618 15.6416Z" fill="white"/>
</g>
<defs>
<clipPath id="clip0_2207_20848">
<rect width="27.6328" height="21.0586" fill="white" transform="translate(0.079834 0.102539)"/>
</clipPath>
</defs>
</svg>
