<svg width="18" height="32" viewBox="0 0 18 32" fill="none" xmlns="http://www.w3.org/2000/svg">
<g clip-path="url(#clip0_2207_20663)">
<path d="M0.0966797 18.2027C0.0966797 22.5152 0.975585 25.9019 3.02637 29.2887C4.1748 31.1402 6.12012 31.691 8.12402 30.7183L10.4444 29.5933C12.542 28.5855 13.5381 27.2496 13.5381 25.4215C13.5381 24.6012 13.2451 23.9683 13.2451 23.4293C13.2451 22.7965 13.6787 22.4097 14.4287 22.4097H16.6084C17.3467 22.4097 17.8858 21.8004 17.8858 21.0035V18.191C17.8858 17.3004 17.2647 16.6558 16.4209 16.6558H13.5381C12.4131 16.6558 11.874 16.0113 11.874 14.9449C11.874 12.3316 12.3428 9.2965 14.1826 5.11291C15.0615 3.109 14.4405 1.65588 12.3311 0.823846L11.1826 0.378534C9.40137 -0.324591 7.86621 0.41369 6.82324 1.49182C2.01856 6.5426 0.0966797 13.316 0.0966797 18.2027Z" fill="black" fill-opacity="0.85"/>
</g>
<defs>
<clipPath id="clip0_2207_20663">
<rect width="17.7891" height="31.1731" fill="white" transform="translate(0.0966797 0.102539)"/>
</clipPath>
</defs>
</svg>
