<svg width="26" height="25" viewBox="0 0 26 25" fill="none" xmlns="http://www.w3.org/2000/svg">
<g clip-path="url(#clip0_2207_10449)">
<path d="M0.367763 21.4942C2.54745 24.4356 7.11777 25.2324 9.9537 23.1231C12.3794 21.3301 12.8951 18.5059 11.1021 16.1387C9.42636 13.8887 6.94198 13.3379 4.99667 14.8027C3.16855 16.1738 3.81308 18.1426 2.79355 18.9043C1.90292 19.5723 1.07089 19.1973 0.426357 19.6895C-0.0423935 20.0645 -0.194737 20.7442 0.367763 21.4942ZM2.75839 21.3067C2.60605 21.1426 2.61777 20.9785 2.72323 20.8731C2.8873 20.7207 3.54355 20.6738 4.04745 20.1699C5.18417 19.0449 4.79745 17.3926 6.10995 16.3731C7.1998 15.5059 8.71152 15.8223 9.73105 17.1348C10.8794 18.6231 10.481 20.4395 8.89902 21.6582C7.12948 23.0527 4.39902 23.041 2.75839 21.3067ZM11.8287 18.7051C13.0943 18.5645 14.1607 17.9317 15.356 16.7363C19.1177 12.9863 24.8599 4.58401 25.3638 3.88088C26.8404 1.8301 24.3091 -0.677707 22.2466 0.7637C21.5552 1.25588 13.1412 6.98635 9.3912 10.7715C8.21933 11.9551 7.5748 13.0098 7.42245 14.252L9.2623 14.7559C9.28573 13.9004 9.74277 13.0684 10.7154 12.1074C14.4302 8.43948 22.6451 2.80276 23.149 2.42776C23.5474 2.13479 23.9927 2.55666 23.688 2.99026C23.3833 3.43557 17.6763 11.7559 14.0201 15.4121C13.0591 16.3731 12.3208 16.7598 11.5122 16.8535L11.8287 18.7051ZM13.9029 15.7637L15.4029 15.377C15.2388 13.1387 13.0474 10.9121 10.8443 10.7246L10.3404 12.2246C11.8404 12.1895 13.9029 14.252 13.9029 15.7637Z" fill="black" fill-opacity="0.85"/>
</g>
<defs>
<clipPath id="clip0_2207_10449">
<rect width="25.799" height="24.2071" fill="white" transform="translate(0.00634766 0.103516)"/>
</clipPath>
</defs>
</svg>
