<svg width="25" height="29" viewBox="0 0 25 29" fill="none" xmlns="http://www.w3.org/2000/svg">
<g clip-path="url(#clip0_2207_10445)">
<path d="M1.39588 26.5357C3.224 28.3755 5.59119 28.399 7.39588 26.5943C8.83729 25.1529 10.2318 21.8951 11.2982 20.2662L14.1341 23.1138C15.0013 23.9927 16.0561 23.9927 16.8764 23.149L17.8841 22.1412C18.7396 21.274 18.728 20.2896 17.8491 19.4107L8.5326 10.0826C7.64197 9.20369 6.64588 9.19197 5.79041 10.0474L4.7826 11.0552C3.93885 11.899 3.93885 12.9185 4.81775 13.7974L7.65369 16.6334C6.0365 17.6998 2.79041 19.0943 1.33729 20.5357C-0.455683 22.3404 -0.443965 24.7193 1.39588 26.5357ZM4.52479 25.0123C3.71619 25.0123 3.07166 24.356 3.07166 23.5591C3.07166 22.7623 3.71619 22.1177 4.52479 22.1177C5.32166 22.1177 5.96619 22.7623 5.96619 23.5591C5.96619 24.356 5.32166 25.0123 4.52479 25.0123ZM19.2436 18.8716L23.7905 14.3248C25.0912 13.024 25.056 11.4771 23.7318 10.1294L23.1341 9.52009C21.9154 11.1021 18.4349 12.9537 17.767 12.2857C17.6616 12.1802 17.6498 11.9693 17.8022 11.8052C19.2201 10.3873 20.1458 9.00447 20.3568 6.75447L14.3333 0.719307C13.22 -0.393974 11.2865 -0.0306933 10.7591 2.07869C10.0208 5.07869 9.35291 6.82478 8.62635 8.26619L19.2436 18.8716Z" fill="black" fill-opacity="0.85"/>
</g>
<defs>
<clipPath id="clip0_2207_10445">
<rect width="24.7417" height="28.0089" fill="white" transform="translate(0.00415039 0.103516)"/>
</clipPath>
</defs>
</svg>
