<svg width="24" height="25" viewBox="0 0 24 25" fill="none" xmlns="http://www.w3.org/2000/svg">
<g clip-path="url(#clip0_2207_1742)">
<path d="M11.9825 24.0215C18.5216 24.0215 23.9356 18.6074 23.9356 12.0683C23.9356 5.54102 18.5099 0.115234 11.9708 0.115234C5.44348 0.115234 0.0294189 5.54102 0.0294189 12.0683C0.0294189 18.6074 5.4552 24.0215 11.9825 24.0215Z" fill="black" fill-opacity="0.85"/>
<path d="M6.65051 18.1621C5.03333 16.5566 5.03333 14.084 6.69739 12.4199L13.4005 5.71683C14.6778 4.43949 16.4239 4.42777 17.6427 5.61136C18.838 6.81839 18.8028 8.55277 17.5138 9.83011L10.9747 16.3692C10.213 17.1308 9.09973 17.1777 8.39661 16.4394C7.7052 15.7246 7.72864 14.5644 8.46692 13.8379L13.0021 9.27933C13.2833 9.0098 13.67 8.98636 13.9513 9.26761C14.2442 9.53714 14.2091 9.92386 13.9278 10.2051L9.38098 14.7402C9.15833 14.9629 9.14661 15.2558 9.36926 15.4551C9.59192 15.6543 9.83801 15.6543 10.0724 15.4199L16.5763 8.92777C17.3028 8.18949 17.3614 7.21683 16.7052 6.5723C16.0724 5.93949 15.0646 5.97464 14.3497 6.70121L7.69348 13.3574C6.56848 14.4941 6.53333 16.0763 7.65833 17.1777C8.74817 18.2676 10.3419 18.2558 11.4669 17.1308L16.3419 12.2558C16.5997 11.998 17.0567 11.9864 17.3263 12.2442C17.5841 12.4785 17.5606 12.959 17.3146 13.2051L12.3692 18.1388C10.7169 19.7794 8.37317 19.8379 6.65051 18.1621Z" fill="white"/>
</g>
<defs>
<clipPath id="clip0_2207_1742">
<rect width="23.9062" height="23.918" fill="white" transform="translate(0.0294189 0.103516)"/>
</clipPath>
</defs>
</svg>
