<svg width="24" height="25" viewBox="0 0 24 25" fill="none" xmlns="http://www.w3.org/2000/svg">
<g clip-path="url(#clip0_2207_477)">
<path d="M11.9887 24.6308C18.5278 24.6308 23.9418 19.2051 23.9418 12.6777C23.9418 6.13868 18.5161 0.724609 11.977 0.724609C5.4497 0.724609 0.0356445 6.13868 0.0356445 12.6777C0.0356445 19.2051 5.46142 24.6308 11.9887 24.6308Z" fill="black" fill-opacity="0.85"/>
<path d="M12.2583 20.2832C11.6372 20.2832 11.4497 19.791 11.2387 19.1113L10.1489 15.5605C10.0317 15.0918 10.0551 14.8691 10.3247 14.5996L17.2036 7.18164C17.2856 7.0879 17.2856 6.98243 17.2036 6.91211C17.1333 6.86524 17.0395 6.8418 16.9458 6.92383L9.56298 13.8496C9.27002 14.1074 9.03564 14.1074 8.60205 13.9785L4.9458 12.8769C4.28955 12.6777 3.83252 12.4668 3.83252 11.8574C3.83252 11.3652 4.26611 11.0137 4.82861 10.8144L16.4418 6.36133C16.7583 6.24414 17.0161 6.17383 17.2504 6.17383C17.684 6.17383 17.9418 6.44336 17.9418 6.87696C17.9418 7.11133 17.8833 7.36914 17.7661 7.68555L13.3481 19.2402C13.102 19.8847 12.7504 20.2832 12.2583 20.2832Z" fill="white"/>
</g>
<defs>
<clipPath id="clip0_2207_477">
<rect width="23.9062" height="24.5273" fill="white" transform="translate(0.0356445 0.103516)"/>
</clipPath>
</defs>
</svg>
