<svg width="25" height="27" viewBox="0 0 25 27" fill="none" xmlns="http://www.w3.org/2000/svg">
<g clip-path="url(#clip0_2207_464)">
<path d="M14.7034 26.0137C15.5471 26.0137 16.1448 25.2871 16.5784 24.1621L24.2542 4.11132C24.4651 3.57226 24.5823 3.09179 24.5823 2.69335C24.5823 1.93163 24.1135 1.46289 23.3518 1.46289C22.9534 1.46289 22.4729 1.58007 21.9338 1.79101L1.77758 9.51367C0.793213 9.88867 0.0314941 10.4863 0.0314941 11.3418C0.0314941 12.4199 0.851806 12.7832 1.9768 13.123L10.4377 15.6074L12.8987 23.9629C13.2503 25.1465 13.6135 26.0137 14.7034 26.0137ZM10.9651 13.8262L2.87915 11.3535C2.69165 11.2949 2.63305 11.248 2.63305 11.166C2.63305 11.084 2.67993 11.0254 2.85571 10.9551L18.6995 4.95507C19.637 4.60351 20.5393 4.13476 21.4065 3.73632C20.6331 4.36913 19.6721 5.11913 19.0276 5.76367L10.9651 13.8262ZM14.8909 23.4355C14.7971 23.4355 14.7503 23.3535 14.6917 23.166L12.219 15.0801L20.2815 7.01757C20.9143 6.38476 21.6995 5.40039 22.3206 4.60351C21.9221 5.49413 21.4417 6.39648 21.0901 7.3457L15.0901 23.1894C15.0198 23.3652 14.9729 23.4355 14.8909 23.4355Z" fill="black" fill-opacity="0.85"/>
</g>
<defs>
<clipPath id="clip0_2207_464">
<rect width="24.5508" height="25.9102" fill="white" transform="translate(0.0314941 0.103516)"/>
</clipPath>
</defs>
</svg>
