<svg width="24" height="25" viewBox="0 0 24 25" fill="none" xmlns="http://www.w3.org/2000/svg">
<g clip-path="url(#clip0_2207_15489)">
<path d="M12.0078 24.0097C18.5469 24.0097 23.9609 18.584 23.9609 12.0566C23.9609 5.51758 18.5352 0.103516 11.9961 0.103516C5.46875 0.103516 0.0546875 5.51758 0.0546875 12.0566C0.0546875 18.584 5.48047 24.0097 12.0078 24.0097ZM12.0078 22.0176C6.47657 22.0176 2.0586 17.5879 2.0586 12.0566C2.0586 6.5254 6.46485 2.09571 11.9961 2.09571C17.5274 2.09571 21.9688 6.5254 21.9688 12.0566C21.9688 17.5879 17.5391 22.0176 12.0078 22.0176Z" fill="black" fill-opacity="0.85"/>
<path d="M9.47657 17.4238C10.0977 17.4238 10.4258 17.0137 10.4258 16.3691V13.8027H12.7344C15.0195 13.8027 16.5547 12.373 16.5547 10.2168C16.5547 8.06054 15.0078 6.60742 12.7461 6.60742H9.46485C8.86719 6.60742 8.55078 7.02929 8.55078 7.6621V16.3691C8.55078 16.9902 8.87891 17.4238 9.47657 17.4238ZM10.4258 12.373V8.0371H12.4766C13.8477 8.0371 14.7031 8.86913 14.7031 10.2168C14.7031 11.541 13.8594 12.373 12.4766 12.373H10.4258Z" fill="black" fill-opacity="0.85"/>
</g>
<defs>
<clipPath id="clip0_2207_15489">
<rect width="23.9062" height="23.918" fill="white" transform="translate(0.0546875 0.103516)"/>
</clipPath>
</defs>
</svg>
