<svg width="36" height="25" viewBox="0 0 36 25" fill="none" xmlns="http://www.w3.org/2000/svg">
<g clip-path="url(#clip0_2207_15499)">
<path d="M4.58228 16.4575C4.95728 16.0356 4.84009 15.4849 4.41822 15.0044C2.8479 13.2583 1.969 10.9614 1.969 8.44191C1.969 5.92237 2.8479 3.6255 4.41822 1.87941C4.84009 1.39894 4.95728 0.848151 4.58228 0.426276C4.20728 -0.0190364 3.55103 -0.00731835 3.10572 0.48487C1.1604 2.59425 0.0588379 5.40675 0.0588379 8.44191C0.0588379 11.477 1.1604 14.2895 3.10572 16.3989C3.55103 16.8911 4.20728 16.8911 4.58228 16.4575ZM31.465 16.4575C31.84 16.8911 32.4963 16.8911 32.9416 16.3989C34.8986 14.2895 35.9885 11.477 35.9885 8.44191C35.9885 5.40675 34.8986 2.59425 32.9416 0.48487C32.4963 -0.00731835 31.84 -0.0190364 31.465 0.426276C31.09 0.848151 31.2072 1.39894 31.6291 1.87941C33.1994 3.6255 34.0783 5.92237 34.0783 8.44191C34.0783 10.9614 33.1994 13.2583 31.6291 15.0044C31.2072 15.4849 31.09 16.0356 31.465 16.4575Z" fill="black" fill-opacity="0.85"/>
<path d="M7.86353 13.1176C8.23853 12.6957 8.08618 12.1683 7.71118 11.6644C7.00806 10.7855 6.66822 9.66057 6.66822 8.44182C6.66822 7.22307 7.00806 6.08635 7.71118 5.21916C8.08618 4.71525 8.23853 4.18791 7.86353 3.76603C7.47681 3.32072 6.77368 3.32072 6.36353 3.84807C5.344 5.11369 4.75806 6.71916 4.75806 8.44182C4.75806 10.1644 5.344 11.7699 6.36353 13.0355C6.77368 13.5629 7.47681 13.5512 7.86353 13.1176ZM28.1838 13.1176C28.5705 13.5512 29.2736 13.5629 29.6838 13.0355C30.7033 11.7699 31.2893 10.1644 31.2893 8.44182C31.2893 6.71916 30.7033 5.11369 29.6838 3.84807C29.2736 3.32072 28.5705 3.32072 28.1838 3.76603C27.8088 4.18791 27.9611 4.71525 28.3361 5.21916C29.0393 6.08635 29.3791 7.22307 29.3791 8.44182C29.3791 9.66057 29.0393 10.7855 28.3361 11.6644C27.9611 12.1683 27.8088 12.6957 28.1838 13.1176Z" fill="black" fill-opacity="0.85"/>
<path d="M12.3635 23.6059C13.2307 23.6059 13.8049 23.0083 13.8049 22.1177V15.4966H18.5861C22.8283 15.4966 25.758 12.5903 25.758 8.4419C25.758 4.27002 22.84 1.39893 18.5979 1.39893H12.3635C11.4963 1.39893 10.9221 1.98486 10.9221 2.88721V22.1177C10.9221 23.02 11.4963 23.6059 12.3635 23.6059ZM13.8049 12.8247V4.04736H18.0588C21.0822 4.04736 22.8049 5.64111 22.8049 8.4419C22.8049 11.2192 21.0705 12.8247 18.0588 12.8247H13.8049Z" fill="black" fill-opacity="0.85"/>
</g>
<defs>
<clipPath id="clip0_2207_15499">
<rect width="35.9297" height="24.7276" fill="white" transform="translate(0.0588379 0.103516)"/>
</clipPath>
</defs>
</svg>
