<svg width="24" height="25" viewBox="0 0 24 25" fill="none" xmlns="http://www.w3.org/2000/svg">
<g clip-path="url(#clip0_2207_5131)">
<path d="M12.0266 24.0097C18.5657 24.0097 23.9797 18.584 23.9797 12.0566C23.9797 5.51758 18.554 0.103516 12.0149 0.103516C5.48755 0.103516 0.0734863 5.51758 0.0734863 12.0566C0.0734863 18.584 5.49927 24.0097 12.0266 24.0097Z" fill="black" fill-opacity="0.85"/>
<path d="M8.61646 16.7676C8.0188 16.7676 7.74927 16.4394 7.74927 15.9707V8.11913C7.74927 7.6621 8.0188 7.33398 8.61646 7.33398H9.80005C10.4094 7.33398 10.679 7.6621 10.679 8.11913V15.9707C10.679 16.4394 10.4094 16.7676 9.80005 16.7676H8.61646ZM14.2766 16.7676C13.6673 16.7676 13.3977 16.4394 13.3977 15.9707V8.11913C13.3977 7.6621 13.6673 7.33398 14.2766 7.33398H15.4602C16.0462 7.33398 16.3157 7.6621 16.3157 8.11913V15.9707C16.3157 16.4394 16.0462 16.7676 15.4602 16.7676H14.2766Z" fill="white"/>
</g>
<defs>
<clipPath id="clip0_2207_5131">
<rect width="23.9062" height="23.918" fill="white" transform="translate(0.0734863 0.103516)"/>
</clipPath>
</defs>
</svg>
