<svg width="15" height="20" viewBox="0 0 15 20" fill="none" xmlns="http://www.w3.org/2000/svg">
<g clip-path="url(#clip0_2207_5122)">
<path d="M1.63427 19.1933H4.30615C5.32568 19.1933 5.86474 18.6543 5.86474 17.623V1.66211C5.86474 0.595704 5.32568 0.103516 4.30615 0.103516H1.63427C0.614746 0.103516 0.0756836 0.642578 0.0756836 1.66211V17.623C0.0756836 18.6543 0.614746 19.1933 1.63427 19.1933ZM10.1538 19.1933H12.814C13.8452 19.1933 14.3726 18.6543 14.3726 17.623V1.66211C14.3726 0.595704 13.8452 0.103516 12.814 0.103516H10.1538C9.12256 0.103516 8.58349 0.642578 8.58349 1.66211V17.623C8.58349 18.6543 9.12256 19.1933 10.1538 19.1933Z" fill="black" fill-opacity="0.85"/>
</g>
<defs>
<clipPath id="clip0_2207_5122">
<rect width="14.2969" height="19.0898" fill="white" transform="translate(0.0756836 0.103516)"/>
</clipPath>
</defs>
</svg>
