<svg width="24" height="25" viewBox="0 0 24 25" fill="none" xmlns="http://www.w3.org/2000/svg">
<g clip-path="url(#clip0_2207_5126)">
<path d="M12.0244 24.0097C18.5635 24.0097 23.9775 18.584 23.9775 12.0566C23.9775 5.51758 18.5518 0.103516 12.0127 0.103516C5.48535 0.103516 0.0712891 5.51758 0.0712891 12.0566C0.0712891 18.584 5.49707 24.0097 12.0244 24.0097ZM12.0244 22.0176C6.49317 22.0176 2.0752 17.5879 2.0752 12.0566C2.0752 6.5254 6.48145 2.09571 12.0127 2.09571C17.544 2.09571 21.9854 6.5254 21.9854 12.0566C21.9854 17.5879 17.5557 22.0176 12.0244 22.0176Z" fill="black" fill-opacity="0.85"/>
<path d="M8.70801 16.6269H9.85645C10.4424 16.6269 10.7119 16.3105 10.7119 15.8535V8.23633C10.7119 7.79102 10.4424 7.47461 9.85645 7.47461H8.70801C8.13379 7.47461 7.86426 7.79102 7.86426 8.23633V15.8535C7.86426 16.3105 8.13379 16.6269 8.70801 16.6269ZM14.1924 16.6269H15.3408C15.9033 16.6269 16.1729 16.3105 16.1729 15.8535V8.23633C16.1729 7.79102 15.9033 7.47461 15.3408 7.47461H14.1924C13.6065 7.47461 13.3369 7.79102 13.3369 8.23633V15.8535C13.3369 16.3105 13.6065 16.6269 14.1924 16.6269Z" fill="black" fill-opacity="0.85"/>
</g>
<defs>
<clipPath id="clip0_2207_5126">
<rect width="23.9062" height="23.918" fill="white" transform="translate(0.0712891 0.103516)"/>
</clipPath>
</defs>
</svg>
