<svg width="24" height="25" viewBox="0 0 24 25" fill="none" xmlns="http://www.w3.org/2000/svg">
<g clip-path="url(#clip0_2207_3782)">
<path d="M3.20948 18.7129L4.56885 20.0371L11.1079 14.084V22.9316H12.9946V14.1191L19.4985 20.0371L20.8579 18.7129L12.9946 11.4707V1.19336H11.1079V11.4355L3.20948 18.7129ZM12.0454 24.0097C18.5845 24.0097 23.9985 18.584 23.9985 12.0566C23.9985 5.51758 18.5728 0.103516 12.0337 0.103516C5.50634 0.103516 0.0922852 5.51758 0.0922852 12.0566C0.0922852 18.584 5.51807 24.0097 12.0454 24.0097ZM12.0454 22.0176C6.51417 22.0176 2.0962 17.5879 2.0962 12.0566C2.0962 6.5254 6.50244 2.09571 12.0337 2.09571C17.565 2.09571 22.0064 6.5254 22.0064 12.0566C22.0064 17.5879 17.5767 22.0176 12.0454 22.0176Z" fill="black" fill-opacity="0.85"/>
</g>
<defs>
<clipPath id="clip0_2207_3782">
<rect width="23.9062" height="23.918" fill="white" transform="translate(0.0922852 0.103516)"/>
</clipPath>
</defs>
</svg>
