<svg width="24" height="21" viewBox="0 0 24 21" fill="none" xmlns="http://www.w3.org/2000/svg">
<g clip-path="url(#clip0_2207_21141)">
<path d="M3.81347 20.8105H17.5244C21.4384 20.8105 22.7978 18.8769 23.2666 14.8105C23.5713 12.2324 23.5713 9.67771 23.1611 6.20896C22.6806 1.88474 20.2666 0.0800505 15.6494 0.572238L4.29394 1.8613C1.55175 2.16599 0.0986328 3.71287 0.0986328 6.27927V17.1308C0.0986328 19.4512 1.48144 20.8105 3.81347 20.8105ZM3.82519 18.9355C2.70019 18.9355 1.96191 18.2324 1.96191 17.1308V6.27927C1.96191 4.80271 2.85254 3.91208 4.48144 3.72458L15.8486 2.44724C19.2353 2.07224 20.9697 3.26755 21.2978 6.22068C21.708 9.68943 21.708 12.2324 21.4033 14.7988C21.0283 18.0097 20.5009 18.9355 17.5244 18.9355H3.82519Z" fill="black" fill-opacity="0.85"/>
<path d="M5.54785 8.17774H17.8642C18.2861 8.17774 18.6259 7.8379 18.6259 7.41602C18.6259 6.99414 18.2861 6.64258 17.8642 6.64258H5.54785C5.12597 6.64258 4.78613 6.99414 4.78613 7.41602C4.78613 7.8379 5.12597 8.17774 5.54785 8.17774ZM5.54785 12.0683H17.8642C18.2861 12.0683 18.6259 11.7285 18.6259 11.3066C18.6259 10.8847 18.2861 10.5332 17.8642 10.5332H5.54785C5.12597 10.5332 4.78613 10.8847 4.78613 11.3066C4.78613 11.7285 5.12597 12.0683 5.54785 12.0683ZM5.54785 15.959H17.8642C18.2861 15.959 18.6259 15.6191 18.6259 15.1855C18.6259 14.7637 18.2861 14.4238 17.8642 14.4238H5.54785C5.12597 14.4238 4.78613 14.7637 4.78613 15.1855C4.78613 15.6191 5.12597 15.959 5.54785 15.959Z" fill="black" fill-opacity="0.85"/>
</g>
<defs>
<clipPath id="clip0_2207_21141">
<rect width="23.3848" height="20.707" fill="white" transform="translate(0.0986328 0.103516)"/>
</clipPath>
</defs>
</svg>
