<svg width="20" height="26" viewBox="0 0 20 26" fill="none" xmlns="http://www.w3.org/2000/svg">
<g clip-path="url(#clip0_2207_21131)">
<path d="M6.91479 25.2754H16.4187C18.6453 25.2754 19.9812 23.9629 19.9812 21.7597L19.9929 3.6543C19.9929 1.54493 18.575 0.103516 16.4539 0.103516H5.15698C2.03979 0.103516 0.0944824 2.07227 0.0944824 5.17774V6.97071C0.0944824 10.0996 0.832763 12.1973 2.53198 14.4004L3.35229 15.4785V21.7597C3.35229 23.9629 4.68823 25.2754 6.91479 25.2754ZM6.91479 23.3887C5.90698 23.3887 5.23901 22.7441 5.23901 21.748V14.8457L4.02026 13.2402C2.61401 11.4004 1.9812 9.59571 1.9812 6.91211V5.18946C1.9812 3.23243 3.19995 1.99024 5.1687 1.99024H16.4539C17.45 1.99024 18.1062 2.64649 18.1062 3.6543L18.0945 21.748C18.0945 22.7441 17.4265 23.3887 16.4187 23.3887H6.91479Z" fill="black" fill-opacity="0.85"/>
<path d="M5.12183 7.49804H15.364C15.7859 7.49804 16.1257 7.1582 16.1257 6.73632C16.1257 6.31445 15.7859 5.96289 15.364 5.96289H5.12183C4.69996 5.96289 4.36011 6.31445 4.36011 6.73632C4.36011 7.1582 4.69996 7.49804 5.12183 7.49804ZM6.17652 11.8457H15.364C15.7859 11.8457 16.1257 11.4941 16.1257 11.0723C16.1257 10.6504 15.7859 10.3105 15.364 10.3105H6.17652C5.75465 10.3105 5.40308 10.6504 5.40308 11.0723C5.40308 11.4941 5.75465 11.8457 6.17652 11.8457ZM7.96949 16.1582H15.364C15.7859 16.1582 16.1257 15.8183 16.1257 15.3965C16.1257 14.9746 15.7859 14.623 15.364 14.623H7.96949C7.54761 14.623 7.19605 14.9746 7.19605 15.3965C7.19605 15.8183 7.54761 16.1582 7.96949 16.1582ZM7.96949 20.5058H15.364C15.7859 20.5058 16.1257 20.1543 16.1257 19.7324C16.1257 19.3105 15.7859 18.9707 15.364 18.9707H7.96949C7.54761 18.9707 7.19605 19.3105 7.19605 19.7324C7.19605 20.1543 7.54761 20.5058 7.96949 20.5058Z" fill="black" fill-opacity="0.85"/>
</g>
<defs>
<clipPath id="clip0_2207_21131">
<rect width="19.8984" height="25.1836" fill="white" transform="translate(0.0944824 0.103516)"/>
</clipPath>
</defs>
</svg>
