<svg width="20" height="26" viewBox="0 0 20 26" fill="none" xmlns="http://www.w3.org/2000/svg">
<g clip-path="url(#clip0_2207_21156)">
<path d="M5.4176 25.2652H16.3864C18.6012 25.2652 19.9372 23.9527 19.9372 21.7495L19.9489 5.42534C19.9489 3.28081 18.7067 1.85112 16.3747 1.27691C13.5856 0.585498 10.7497 0.198779 7.73791 0.128467C3.64806 0.0229982 1.01135 1.60503 0.507439 5.273C-0.137092 10.0425 -0.16053 16.6636 0.425408 20.9761C0.765252 23.6245 2.66369 25.2652 5.4176 25.2652Z" fill="black" fill-opacity="0.85"/>
<path d="M4.99572 10.312C4.55041 10.312 4.18713 9.96045 4.18713 9.52686C4.18713 9.08154 4.55041 8.71826 4.99572 8.71826H15.238C15.6833 8.71826 16.0466 9.08154 16.0466 9.52686C16.0466 9.96045 15.6833 10.312 15.238 10.312H4.99572ZM4.99572 14.3198C4.55041 14.3198 4.18713 13.9683 4.18713 13.5347C4.18713 13.1011 4.55041 12.7378 4.99572 12.7378H15.238C15.6833 12.7378 16.0466 13.1011 16.0466 13.5347C16.0466 13.9683 15.6833 14.3198 15.238 14.3198H4.99572ZM4.99572 18.3394C4.55041 18.3394 4.18713 17.9878 4.18713 17.5308C4.18713 17.0972 4.55041 16.7456 4.99572 16.7456H15.238C15.6833 16.7456 16.0466 17.0972 16.0466 17.5308C16.0466 17.9878 15.6833 18.3394 15.238 18.3394H4.99572Z" fill="white"/>
</g>
<defs>
<clipPath id="clip0_2207_21156">
<rect width="19.9447" height="25.1602" fill="white" transform="translate(0.00415039 0.10498)"/>
</clipPath>
</defs>
</svg>
