<svg width="29" height="25" viewBox="0 0 29 25" fill="none" xmlns="http://www.w3.org/2000/svg">
<g clip-path="url(#clip0_2207_11730)">
<path d="M0.95752 24.9722C1.47314 24.9722 1.89502 24.5503 1.89502 24.0347V1.04248C1.89502 0.526855 1.47314 0.10498 0.95752 0.10498C0.430176 0.10498 0.00830078 0.526855 0.00830078 1.04248V24.0347C0.00830078 24.5503 0.430176 24.9722 0.95752 24.9722ZM27.2075 24.9722C27.7231 24.9722 28.145 24.5503 28.145 24.0347V1.04248C28.145 0.526855 27.7231 0.10498 27.2075 0.10498C26.6802 0.10498 26.2583 0.526855 26.2583 1.04248V24.0347C26.2583 24.5503 26.6802 24.9722 27.2075 24.9722ZM24.0786 5.00342H27.2075V3.46826H24.0786V5.00342ZM24.0786 10.5581H27.2075V9.02295H24.0786V10.5581ZM24.0786 16.1011H27.2075V14.5659H24.0786V16.1011ZM24.0786 21.6441H27.2075V20.1089H24.0786V21.6441Z" fill="black" fill-opacity="0.85"/>
<path d="M12.6645 7.82768L24.0552 6.49174C24.5591 6.43314 24.8872 6.16361 24.8872 5.67143V2.7769C24.8872 2.27299 24.5591 1.8394 24.0552 1.95658L12.5122 4.51127C12.0435 4.61674 11.8325 4.92143 11.8325 5.28471V7.0894C11.8325 7.61674 12.1138 7.89799 12.6645 7.82768ZM12.5122 12.0581H24.0552C24.5591 12.0581 24.8872 11.73 24.8872 11.2378V8.3433C24.8872 7.8394 24.5708 7.4644 24.0552 7.52299L12.5122 8.87064C12.0903 8.91752 11.8325 9.23393 11.8325 9.66752V11.2964C11.8325 11.7652 12.1138 12.0581 12.5122 12.0581ZM12.5122 16.2652L24.0552 17.6128C24.5708 17.6714 24.8872 17.2964 24.8872 16.7925V13.898C24.8872 13.4058 24.5591 13.0777 24.0552 13.0777H12.5122C12.1138 13.0777 11.8325 13.3706 11.8325 13.8394V15.4683C11.8325 15.9019 12.0903 16.2066 12.5122 16.2652ZM12.5122 20.6245L24.0552 23.1792C24.5591 23.2847 24.8872 22.8628 24.8872 22.3589V19.4527C24.8872 18.9722 24.5591 18.7027 24.0552 18.6441L12.6645 17.3081C12.1138 17.2378 11.8325 17.5191 11.8325 18.0464V19.8511C11.8325 20.2144 12.0435 20.5191 12.5122 20.6245Z" fill="black" fill-opacity="0.85"/>
</g>
<defs>
<clipPath id="clip0_2207_11730">
<rect width="28.1367" height="24.8789" fill="white" transform="translate(0.00830078 0.10498)"/>
</clipPath>
</defs>
</svg>
