<svg width="20" height="21" viewBox="0 0 20 21" fill="none" xmlns="http://www.w3.org/2000/svg">
<g clip-path="url(#clip0_2207_113)">
<path d="M3.22512 18.5351L16.022 5.76172L13.9595 3.69922L1.17434 16.4726L0.0493463 19.0859C-0.0561225 19.3671 0.236847 19.6953 0.518097 19.5781L3.22512 18.5351ZM17.0415 4.75391L18.2251 3.59375C18.8345 2.9961 18.8696 2.35157 18.3188 1.8125L17.9321 1.41407C17.3931 0.886718 16.7485 0.933593 16.1626 1.51953L14.9673 2.69141L17.0415 4.75391Z" fill="black" fill-opacity="0.85"/>
<path d="M15.9985 18.7109C16.9009 19.6015 18.354 19.6015 19.2329 18.6875C20.0884 17.8085 20.0884 16.3789 19.2212 15.5L4.47903 0.769464C3.44778 -0.261786 1.64309 -0.0977236 0.89309 1.29681C0.412621 2.15228 0.541527 3.26556 1.25637 3.9804L15.9985 18.7109Z" fill="white"/>
<path d="M16.9712 17.7501C17.3227 18.1016 17.9087 18.1016 18.2485 17.7501C18.5884 17.3868 18.6001 16.8243 18.2485 16.4727L3.51809 1.7422C3.16653 1.39064 2.56887 1.37892 2.22903 1.7422C1.88919 2.08204 1.88919 2.6797 2.22903 3.01954L16.9712 17.7501Z" fill="black" fill-opacity="0.85"/>
</g>
<defs>
<clipPath id="clip0_2207_113">
<rect width="19.8457" height="20.3719" fill="white" transform="translate(0.0273438 0.10498)"/>
</clipPath>
</defs>
</svg>
