<svg width="24" height="25" viewBox="0 0 24 25" fill="none" xmlns="http://www.w3.org/2000/svg">
<g clip-path="url(#clip0_2207_108)">
<path d="M11.9763 24.023C18.5154 24.023 23.9294 18.6089 23.9294 12.0698C23.9294 5.54248 18.5037 0.116699 11.9646 0.116699C5.43725 0.116699 0.0231934 5.54248 0.0231934 12.0698C0.0231934 18.6089 5.44897 24.023 11.9763 24.023Z" fill="black" fill-opacity="0.85"/>
<path d="M8.10915 17.308L6.43337 17.9408C6.17555 18.0346 5.88258 17.7768 6.01148 17.4721L6.69118 15.8783L14.5896 7.97992L16.031 9.42133L8.10915 17.308ZM16.7576 8.69476L15.3162 7.26508L16.2068 6.37445C16.6052 5.99945 17.0505 5.95258 17.4138 6.31586L17.6834 6.59711C18.0584 6.96039 18.0349 7.41742 17.6365 7.81586L16.7576 8.69476Z" fill="white"/>
</g>
<defs>
<clipPath id="clip0_2207_108">
<rect width="23.9062" height="23.918" fill="white" transform="translate(0.0231934 0.10498)"/>
</clipPath>
</defs>
</svg>
