<svg width="21" height="27" viewBox="0 0 21 27" fill="none" xmlns="http://www.w3.org/2000/svg">
<g clip-path="url(#clip0_2207_1699)">
<path d="M0.0168457 3.10498H2.95826V1.4292C2.95826 0.585449 2.52466 0.10498 1.76294 0.10498H1.18873C0.438721 0.10498 0.0168457 0.608886 0.0168457 1.4292V3.10498ZM0.0168457 23.4136L1.08326 26.0386C1.20044 26.3081 1.63404 26.3316 1.76294 26.0503L2.95826 23.4136V4.47607H0.0168457V23.4136ZM11.6066 26.3081H17.4191C19.1184 26.3081 20.2902 25.1362 20.2902 23.4253V3.16357C20.2902 1.45264 19.1184 0.269042 17.4191 0.269042H11.6066C9.90747 0.269042 8.74732 1.45264 8.74732 3.17529V23.4253C8.74732 25.1362 9.90747 26.3081 11.6066 26.3081ZM18.5207 3.45654H13.5871C13.341 3.45654 13.1418 3.26904 13.1418 3.01123C13.1418 2.77686 13.3293 2.58936 13.5754 2.58936H18.5207V3.45654ZM18.5207 5.50732H15.4387C15.1926 5.50732 15.0168 5.33154 15.0168 5.07373C15.0168 4.82764 15.1809 4.64014 15.427 4.64014H18.5207V5.50732ZM18.5207 7.56982H15.4387C15.1926 7.56982 15.0168 7.39404 15.0168 7.13623C15.0168 6.89014 15.1809 6.70264 15.427 6.70264H18.5207V7.56982ZM18.5207 9.6206H15.4387C15.1926 9.6206 15.0168 9.45654 15.0168 9.18701C15.0168 8.94092 15.1809 8.7417 15.427 8.7417H18.5207V9.6206ZM18.5207 11.6714H15.4387C15.1926 11.6714 15.0168 11.5073 15.0168 11.2495C15.0168 11.0152 15.1809 10.8042 15.427 10.8042H18.5207V11.6714ZM18.5207 13.7339H13.5871C13.341 13.7339 13.1418 13.5581 13.1418 13.3003C13.1418 13.0659 13.3293 12.855 13.5754 12.855H18.5207V13.7339ZM18.5207 15.7964H15.4387C15.1926 15.7964 15.0168 15.6206 15.0168 15.3628C15.0168 15.1167 15.1809 14.9175 15.427 14.9175H18.5207V15.7964ZM18.5207 17.8589H15.4387C15.1926 17.8589 15.0168 17.6714 15.0168 17.4136C15.0168 17.1792 15.1809 16.9917 15.427 16.9917H18.5207V17.8589ZM18.5207 19.898H15.4387C15.1926 19.898 15.0168 19.7222 15.0168 19.4644C15.0168 19.2183 15.1809 19.0308 15.427 19.0308H18.5207V19.898ZM18.5207 21.9605H15.4387C15.1926 21.9605 15.0168 21.7847 15.0168 21.5152C15.0168 21.2808 15.1809 21.0933 15.427 21.0933H18.5207V21.9605ZM18.5207 23.9995H13.5871C13.341 23.9995 13.1418 23.8355 13.1418 23.5777C13.1418 23.3316 13.3293 23.1323 13.5754 23.1323H18.5207V23.9995Z" fill="black" fill-opacity="0.85"/>
</g>
<defs>
<clipPath id="clip0_2207_1699">
<rect width="20.2734" height="26.3789" fill="white" transform="translate(0.0168457 0.10498)"/>
</clipPath>
</defs>
</svg>
