<svg width="26" height="26" viewBox="0 0 26 26" fill="none" xmlns="http://www.w3.org/2000/svg">
<g clip-path="url(#clip0_2207_7835)">
<path d="M0.272408 11.8941L3.72944 22.6402C4.25678 24.3159 5.41694 25.1714 7.19819 25.1714H18.2841C20.0653 25.1714 21.2255 24.3159 21.7528 22.6402L25.1864 11.9409C25.7372 10.2066 25.3153 8.83545 23.9091 7.8042L14.9325 1.20654C13.456 0.1167 12.0263 0.1167 10.5497 1.20654L1.57319 7.8042C0.166939 8.83545 -0.266654 10.1948 0.272408 11.8941ZM2.05366 11.3198C1.76069 10.4292 1.94819 9.89014 2.70991 9.31592L11.6747 2.70654C12.4599 2.13232 13.0224 2.13232 13.7958 2.70654L22.7606 9.31592C23.5341 9.89014 23.7099 10.4409 23.4169 11.355L19.9833 22.0659C19.6903 22.9566 19.2333 23.2847 18.2841 23.2847H7.19819C6.24897 23.2847 5.79194 22.9566 5.49897 22.0659L2.05366 11.3198Z" fill="black" fill-opacity="0.85"/>
</g>
<defs>
<clipPath id="clip0_2207_7835">
<rect width="25.3718" height="25.0664" fill="white" transform="translate(0.0483398 0.10498)"/>
</clipPath>
</defs>
</svg>
