<svg width="26" height="26" viewBox="0 0 26 26" fill="none" xmlns="http://www.w3.org/2000/svg">
<g clip-path="url(#clip0_2207_7851)">
<path d="M0.282906 11.8941L3.73994 22.6402C4.26728 24.3159 5.42744 25.1714 7.20869 25.1714H18.2946C20.0758 25.1714 21.236 24.3159 21.7633 22.6402L25.1969 11.9409C25.7594 10.2066 25.3258 8.83545 23.9196 7.8042L14.943 1.20654C13.4782 0.1167 12.0251 0.1167 10.5602 1.20654L1.58369 7.8042C0.177437 8.83545 -0.256156 10.1948 0.282906 11.8941ZM2.82588 13.687H22.6774L19.9938 22.0659C19.7126 22.9566 19.2438 23.2847 18.2946 23.2847H7.20869C6.25947 23.2847 5.79072 22.9566 5.50947 22.0659L2.82588 13.687Z" fill="black" fill-opacity="0.85"/>
</g>
<defs>
<clipPath id="clip0_2207_7851">
<rect width="25.3769" height="25.0664" fill="white" transform="translate(0.0588379 0.10498)"/>
</clipPath>
</defs>
</svg>
