<svg width="26" height="26" viewBox="0 0 26 26" fill="none" xmlns="http://www.w3.org/2000/svg">
<g clip-path="url(#clip0_2207_7843)">
<path d="M0.278755 11.8941L3.73579 22.6402C4.26313 24.3159 5.42329 25.1714 7.20454 25.1714H18.2905C20.0717 25.1714 21.2319 24.3159 21.7592 22.6402L25.1928 11.9409C25.7436 10.2066 25.3217 8.83545 23.9155 7.8042L14.9389 1.20654C13.4624 0.1167 12.0327 0.1167 10.5561 1.20654L1.57954 7.8042C0.173287 8.83545 -0.260307 10.1948 0.278755 11.8941ZM12.7475 2.28467C13.0756 2.28467 13.4155 2.41357 13.8022 2.70654L22.767 9.31592C23.5405 9.89014 23.7163 10.4409 23.4233 11.355L19.9897 22.0659C19.6967 22.9566 19.2397 23.2847 18.2905 23.2847H12.7475V2.28467Z" fill="black" fill-opacity="0.85"/>
</g>
<defs>
<clipPath id="clip0_2207_7843">
<rect width="25.3718" height="25.0664" fill="white" transform="translate(0.0546875 0.10498)"/>
</clipPath>
</defs>
</svg>
