<svg width="26" height="26" viewBox="0 0 26 26" fill="none" xmlns="http://www.w3.org/2000/svg">
<g clip-path="url(#clip0_2207_9320)">
<path d="M7.23437 25.8525C7.80859 25.8525 8.20703 25.5478 8.92187 24.915L12.9648 21.3173H20.4882C23.9804 21.3173 25.8554 19.3837 25.8554 15.9502V6.97364C25.8554 3.54004 23.9804 1.60645 20.4882 1.60645H5.39453C1.90234 1.60645 0.0273438 3.52833 0.0273438 6.97364V15.9502C0.0273438 19.3955 1.90234 21.3173 5.39453 21.3173H5.95703V24.3642C5.95703 25.2666 6.41406 25.8525 7.23437 25.8525ZM7.71484 23.708V20.3095C7.71484 19.6767 7.46875 19.4306 6.83593 19.4306H5.39453C3.02734 19.4306 1.91406 18.2236 1.91406 15.9384V6.97364C1.91406 4.68848 3.02734 3.49317 5.39453 3.49317H20.4882C22.8437 3.49317 23.9687 4.68848 23.9687 6.97364V15.9384C23.9687 18.2236 22.8437 19.4306 20.4882 19.4306H12.8945C12.2382 19.4306 11.9101 19.5244 11.4648 19.9814L7.71484 23.708Z" fill="black" fill-opacity="0.85"/>
<path d="M7.99609 17.2626H17.8867C18.3203 17.2626 18.5312 16.9697 18.5312 16.5712C18.5312 15.3876 16.7382 12.3173 12.9414 12.3173C9.14453 12.3173 7.36328 15.3876 7.36328 16.5712C7.36328 16.9697 7.57422 17.2626 7.99609 17.2626ZM12.9414 11.4384C14.4882 11.4502 15.7187 10.1376 15.7187 8.40333C15.7187 6.77442 14.4882 5.42676 12.9414 5.42676C11.4062 5.42676 10.164 6.77442 10.164 8.40333C10.164 10.1376 11.4062 11.4267 12.9414 11.4384Z" fill="black" fill-opacity="0.85"/>
</g>
<defs>
<clipPath id="clip0_2207_9320">
<rect width="25.8281" height="25.7461" fill="white" transform="translate(0.0273438 0.106445)"/>
</clipPath>
</defs>
</svg>
