<svg width="20" height="26" viewBox="0 0 20 26" fill="none" xmlns="http://www.w3.org/2000/svg">
<g clip-path="url(#clip0_2207_2302)">
<path d="M0.0440674 24.3056C0.0440674 24.8681 0.419067 25.2314 0.981567 25.2314H18.8175C19.38 25.2314 19.755 24.8681 19.755 24.3056V1.04395C19.755 0.481445 19.38 0.106445 18.8175 0.106445H0.981567C0.419067 0.106445 0.0440674 0.481445 0.0440674 1.04395V24.3056ZM1.93079 23.0048V2.34473C1.93079 2.08692 2.02454 1.99317 2.27063 1.99317H17.5285C17.7746 1.99317 17.8683 2.08692 17.8683 2.34473V23.0048C17.8683 23.2626 17.7746 23.3447 17.5285 23.3447H2.27063C2.02454 23.3447 1.93079 23.2626 1.93079 23.0048Z" fill="black" fill-opacity="0.85"/>
<path d="M3.19641 21.3994C3.19641 21.833 3.44251 22.0908 3.8761 22.0908H15.923C16.3566 22.0908 16.6027 21.833 16.6027 21.3994V3.9502C16.6027 3.51661 16.3566 3.25879 15.923 3.25879H3.8761C3.44251 3.25879 3.19641 3.51661 3.19641 3.9502V21.3994ZM4.38001 20.6376V4.71192C4.38001 4.53614 4.46204 4.44239 4.63782 4.44239H15.1613C15.3371 4.44239 15.4191 4.53614 15.4191 4.71192V20.6376C15.4191 20.8134 15.3371 20.9072 15.1613 20.9072H4.63782C4.46204 20.9072 4.38001 20.8134 4.38001 20.6376ZM4.33313 21.4345H15.4425C15.923 21.4345 16.1457 21.1298 16.1457 20.6845C16.1457 19.3603 14.1535 15.9033 9.88782 15.9033C5.63391 15.9033 3.63001 19.3603 3.63001 20.6845C3.63001 21.1298 3.85266 21.4345 4.33313 21.4345ZM9.88782 14.9072C11.6222 14.9189 13.005 13.4541 13.005 11.5087C13.005 9.68067 11.6222 8.16895 9.88782 8.16895C8.16516 8.16895 6.77063 9.68067 6.77063 11.5087C6.77063 13.4541 8.16516 14.8955 9.88782 14.9072Z" fill="black" fill-opacity="0.85"/>
</g>
<defs>
<clipPath id="clip0_2207_2302">
<rect width="19.7109" height="25.1367" fill="white" transform="translate(0.0440674 0.106445)"/>
</clipPath>
</defs>
</svg>
