<svg width="45" height="25" viewBox="0 0 45 25" fill="none" xmlns="http://www.w3.org/2000/svg">
<g clip-path="url(#clip0_2207_2115)">
<path d="M8.68847 12.2691C10.8798 12.2691 12.7666 10.3003 12.7666 7.75732C12.7666 5.23779 10.8681 3.37451 8.68847 3.37451C6.52051 3.37451 4.61035 5.28467 4.61035 7.78076C4.61035 10.3003 6.50879 12.2691 8.68847 12.2691ZM2.16113 22.8511H15.2158C16.7041 22.8511 17.2783 22.2652 17.2783 21.2105C17.2783 17.9644 13.9736 14.062 8.68847 14.062C3.40332 14.062 0.0986328 17.9644 0.0986328 21.2105C0.0986328 22.2652 0.672852 22.8511 2.16113 22.8511Z" fill="black" fill-opacity="0.85"/>
<path d="M35.6884 12.2691C37.8798 12.2691 39.7666 10.3003 39.7666 7.75732C39.7666 5.23779 37.8681 3.37451 35.6884 3.37451C33.5088 3.37451 31.5986 5.28467 31.5986 7.78076C31.5986 10.3003 33.5088 12.2691 35.6884 12.2691ZM29.1611 22.8511H42.2041C43.6924 22.8511 44.2666 22.2652 44.2666 21.2105C44.2666 17.9644 40.9736 14.062 35.6884 14.062C30.3916 14.062 27.0986 17.9644 27.0986 21.2105C27.0986 22.2652 27.6728 22.8511 29.1611 22.8511Z" fill="black" fill-opacity="0.85"/>
<path d="M14.3252 24.4448H30.0517C32.3252 24.4448 33.6494 23.0503 33.6494 21.2925C33.6494 17.355 29.1377 12.5034 22.1884 12.5034C15.2509 12.5034 10.7275 17.355 10.7275 21.2925C10.7275 23.0503 12.0634 24.4448 14.3252 24.4448Z" fill="white"/>
<path d="M22.2002 11.9995C24.708 11.9995 26.8877 9.74951 26.8877 6.81982C26.8877 3.92529 24.708 1.78076 22.2002 1.78076C19.6924 1.78076 17.5127 3.97217 17.5127 6.84326C17.5127 9.74951 19.6806 11.9995 22.2002 11.9995ZM14.3252 22.8511H30.0517C31.3056 22.8511 32.0556 22.2652 32.0556 21.2925C32.0556 18.2691 28.2705 14.0972 22.1884 14.0972C16.1181 14.0972 12.333 18.2691 12.333 21.2925C12.333 22.2652 13.083 22.8511 14.3252 22.8511Z" fill="black" fill-opacity="0.85"/>
</g>
<defs>
<clipPath id="clip0_2207_2115">
<rect width="44.168" height="24.3398" fill="white" transform="translate(0.0986328 0.10498)"/>
</clipPath>
</defs>
</svg>
