<svg width="26" height="26" viewBox="0 0 26 26" fill="none" xmlns="http://www.w3.org/2000/svg">
<g id="person.bubble" clip-path="url(#clip0_2201_496)">
<g id="Group">
<path id="Vector" d="M7.20703 25.7461C7.78125 25.7461 8.17969 25.4414 8.89453 24.8086L12.9375 21.2109H20.4609C23.9531 21.2109 25.8281 19.2773 25.8281 15.8438V6.86719C25.8281 3.43359 23.9531 1.5 20.4609 1.5H5.36719C1.875 1.5 0 3.42188 0 6.86719V15.8438C0 19.2891 1.875 21.2109 5.36719 21.2109H5.92969V24.2578C5.92969 25.1602 6.38672 25.7461 7.20703 25.7461ZM7.6875 23.6016V20.2031C7.6875 19.5703 7.44141 19.3242 6.80859 19.3242H5.36719C3 19.3242 1.88672 18.1172 1.88672 15.832V6.86719C1.88672 4.58203 3 3.38672 5.36719 3.38672H20.4609C22.8164 3.38672 23.9414 4.58203 23.9414 6.86719V15.832C23.9414 18.1172 22.8164 19.3242 20.4609 19.3242H12.8672C12.2109 19.3242 11.8828 19.418 11.4375 19.875L7.6875 23.6016Z" fill="black" fill-opacity="0.85"/>
<path id="Vector_2" d="M7.96875 17.1562H17.8594C18.293 17.1562 18.5039 16.8633 18.5039 16.4648C18.5039 15.2812 16.7109 12.2109 12.9141 12.2109C9.11719 12.2109 7.33594 15.2812 7.33594 16.4648C7.33594 16.8633 7.54688 17.1562 7.96875 17.1562ZM12.9141 11.332C14.4609 11.3438 15.6914 10.0312 15.6914 8.29688C15.6914 6.66797 14.4609 5.32031 12.9141 5.32031C11.3789 5.32031 10.1367 6.66797 10.1367 8.29688C10.1367 10.0312 11.3789 11.3203 12.9141 11.332Z" fill="black" fill-opacity="0.85"/>
</g>
</g>
<defs>
<clipPath id="clip0_2201_496">
<rect width="25.8281" height="25.7461" fill="white"/>
</clipPath>
</defs>
</svg>
