<svg width="21" height="26" viewBox="0 0 21 26" fill="none" xmlns="http://www.w3.org/2000/svg">
<g clip-path="url(#clip0_2207_2323)">
<path d="M10.3323 8.60254C12.5588 8.60254 14.3049 6.70411 14.3049 4.29004C14.3049 1.95801 12.5471 0.106445 10.3323 0.106445C8.11743 0.106445 6.35961 1.96973 6.37133 4.31348C6.37133 6.71583 8.10571 8.60254 10.3323 8.60254ZM10.3323 6.9502C9.05493 6.9502 8.11743 5.84864 8.11743 4.31348C8.11743 2.83692 9.06665 1.75879 10.3323 1.75879C11.5979 1.75879 12.5588 2.83692 12.5588 4.29004C12.5588 5.83692 11.6096 6.9502 10.3323 6.9502ZM3.86352 17.0986H16.801C17.7737 17.0986 18.3362 16.5361 18.3362 15.6337C18.3362 13.2314 15.2893 9.73925 10.3323 9.73925C5.36352 9.73925 2.32837 13.2314 2.32837 15.6337C2.32837 16.5361 2.87915 17.0986 3.86352 17.0986ZM4.42602 15.4462C4.17993 15.4462 4.07446 15.3642 4.0979 15.1884C4.32055 13.8056 6.48852 11.3916 10.3323 11.3916C14.1643 11.3916 16.344 13.8056 16.5667 15.1884C16.5901 15.3642 16.4729 15.4462 16.2385 15.4462H4.42602ZM0.968994 25.2197H19.7073C20.2229 25.2197 20.6448 24.7978 20.6448 24.2822C20.6448 23.7666 20.2229 23.333 19.7073 23.333H18.9807V20.6025C18.9807 19.372 18.4065 18.7041 17.0823 18.7041H3.59399C2.28149 18.7041 1.69555 19.372 1.69555 20.6025V23.333H0.968994C0.453369 23.333 0.0314941 23.7666 0.0314941 24.2822C0.0314941 24.7978 0.453369 25.2197 0.968994 25.2197ZM8.0354 22.6767C7.63696 22.6767 7.35571 22.372 7.35571 21.9736C7.35571 21.5869 7.63696 21.2939 8.0354 21.2939H12.6643C13.051 21.2939 13.344 21.5869 13.344 21.9736C13.344 22.372 13.051 22.6767 12.6643 22.6767H8.0354Z" fill="black" fill-opacity="0.85"/>
</g>
<defs>
<clipPath id="clip0_2207_2323">
<rect width="20.6133" height="25.1133" fill="white" transform="translate(0.0314941 0.106445)"/>
</clipPath>
</defs>
</svg>
