<svg width="29" height="26" viewBox="0 0 29 26" fill="none" xmlns="http://www.w3.org/2000/svg">
<g clip-path="url(#clip0_2207_2451)">
<path d="M0.00830078 2.88379C0.00830078 3.39942 0.430176 3.82129 0.945801 3.82129H27.1724C27.688 3.82129 28.1099 3.39942 28.1099 2.88379C28.1099 2.36817 27.688 1.93457 27.1724 1.93457H0.945801C0.430176 1.93457 0.00830078 2.36817 0.00830078 2.88379ZM0.00830078 7.74707C0.00830078 8.2627 0.430176 8.68457 0.945801 8.68457H27.1724C27.688 8.68457 28.1099 8.2627 28.1099 7.74707C28.1099 7.23145 27.688 6.79786 27.1724 6.79786H0.945801C0.430176 6.79786 0.00830078 7.23145 0.00830078 7.74707ZM0.00830078 12.6103C0.00830078 13.1259 0.430176 13.5596 0.945801 13.5596H27.1724C27.688 13.5596 28.1099 13.1259 28.1099 12.6103C28.1099 12.0947 27.688 11.6728 27.1724 11.6728H0.945801C0.430176 11.6728 0.00830078 12.0947 0.00830078 12.6103ZM0.00830078 17.4737C0.00830078 17.9893 0.430176 18.4229 0.945801 18.4229H27.1724C27.688 18.4229 28.1099 17.9893 28.1099 17.4737C28.1099 16.9581 27.688 16.5362 27.1724 16.5362H0.945801C0.430176 16.5362 0.00830078 16.9581 0.00830078 17.4737ZM0.00830078 22.3487C0.00830078 22.8643 0.430176 23.2862 0.945801 23.2862H27.1724C27.688 23.2862 28.1099 22.8643 28.1099 22.3487C28.1099 21.8331 27.688 21.3995 27.1724 21.3995H0.945801C0.430176 21.3995 0.00830078 21.8331 0.00830078 22.3487Z" fill="black" fill-opacity="0.85"/>
<path d="M14.0591 16.3252C17.0942 16.3252 19.6958 13.6298 19.6958 10.2666C19.6958 6.85644 17.0474 4.36035 14.0591 4.36035C11.0474 4.36035 8.42236 6.91503 8.42236 10.29C8.42236 13.6298 11.0239 16.3252 14.0591 16.3252ZM8.05908 25.1962H20.0591C23.0474 25.1962 23.9145 23.7314 23.9145 22.2314C23.9145 18.7861 20.0239 14.6025 14.0591 14.6025C8.09424 14.6025 4.20361 18.7861 4.20361 22.2314C4.20361 23.7314 5.08252 25.1962 8.05908 25.1962Z" fill="white"/>
<path d="M14.0591 14.7197C16.2036 14.7197 18.1021 12.7626 18.1021 10.2666C18.1021 7.7705 16.2036 5.9541 14.0591 5.9541C11.9263 5.9541 10.0161 7.81738 10.0161 10.29C10.0161 12.7626 11.9263 14.7197 14.0591 14.7197ZM8.05908 23.5908H20.0591C21.7935 23.5908 22.3208 23.0986 22.3208 22.2314C22.3208 19.7002 19.1567 16.208 14.0591 16.208C8.96142 16.208 5.80908 19.7002 5.80908 22.2314C5.80908 23.0986 6.32471 23.5908 8.05908 23.5908Z" fill="black" fill-opacity="0.85"/>
</g>
<defs>
<clipPath id="clip0_2207_2451">
<rect width="28.1016" height="25.0898" fill="white" transform="translate(0.00830078 0.106445)"/>
</clipPath>
</defs>
</svg>
