<svg width="21" height="22" viewBox="0 0 21 22" fill="none" xmlns="http://www.w3.org/2000/svg">
<g clip-path="url(#clip0_2207_1801)">
<path d="M2.93408 21.8081H17.6646C19.6099 21.8081 20.5357 21.2222 20.5357 19.9331C20.5357 16.8628 16.6568 12.4214 10.3052 12.4214C3.9419 12.4214 0.0629883 16.8628 0.0629883 19.9331C0.0629883 21.2222 0.988769 21.8081 2.93408 21.8081ZM2.3833 20.0386C2.07861 20.0386 1.94971 19.9566 1.94971 19.7105C1.94971 17.7769 4.92627 14.1909 10.3052 14.1909C15.6724 14.1909 18.6489 17.7769 18.6489 19.7105C18.6489 19.9566 18.5318 20.0386 18.2271 20.0386H2.3833ZM10.3052 10.9566C13.0942 10.9566 15.3677 8.48389 15.3677 5.46045C15.3677 2.46045 13.106 0.10498 10.3052 0.10498C7.52783 0.10498 5.24268 2.50732 5.24268 5.48389C5.24268 8.4956 7.51611 10.9566 10.3052 10.9566ZM10.3052 9.18701C8.59424 9.18701 7.1294 7.5581 7.1294 5.48389C7.1294 3.44482 8.5708 1.87451 10.3052 1.87451C12.0513 1.87451 13.481 3.40967 13.481 5.46045C13.481 7.53467 12.0278 9.18701 10.3052 9.18701Z" fill="black" fill-opacity="0.85"/>
</g>
<defs>
<clipPath id="clip0_2207_1801">
<rect width="20.4727" height="21.7148" fill="white" transform="translate(0.0629883 0.10498)"/>
</clipPath>
</defs>
</svg>
