<svg width="23" height="24" viewBox="0 0 23 24" fill="none" xmlns="http://www.w3.org/2000/svg">
<g clip-path="url(#clip0_2207_18936)">
<path d="M0.971069 7.58447C1.59216 7.58447 1.92029 7.23291 1.92029 6.62353V3.85791C1.92029 2.63916 2.56482 2.01807 3.73669 2.01807H6.57263C7.19373 2.01807 7.53357 1.67822 7.53357 1.06885C7.53357 0.459472 7.19373 0.131348 6.57263 0.131348H3.71326C1.26404 0.131348 0.0335693 1.33838 0.0335693 3.75244V6.62353C0.0335693 7.23291 0.373413 7.58447 0.971069 7.58447ZM22.0297 7.58447C22.6508 7.58447 22.9789 7.23291 22.9789 6.62353V3.75244C22.9789 1.33838 21.7484 0.131348 19.2992 0.131348H16.4281C15.8188 0.131348 15.4789 0.459472 15.4789 1.06885C15.4789 1.67822 15.8188 2.01807 16.4281 2.01807H19.2641C20.4242 2.01807 21.0922 2.63916 21.0922 3.85791V6.62353C21.0922 7.23291 21.432 7.58447 22.0297 7.58447ZM3.71326 23.0649H6.57263C7.19373 23.0649 7.53357 22.7251 7.53357 22.1274C7.53357 21.5181 7.19373 21.1782 6.57263 21.1782H3.73669C2.56482 21.1782 1.92029 20.5571 1.92029 19.3384V16.5727C1.92029 15.9517 1.58045 15.6118 0.971069 15.6118C0.361694 15.6118 0.0335693 15.9517 0.0335693 16.5727V19.4321C0.0335693 21.8579 1.26404 23.0649 3.71326 23.0649ZM16.4281 23.0649H19.2992C21.7484 23.0649 22.9789 21.8462 22.9789 19.4321V16.5727C22.9789 15.9517 22.6391 15.6118 22.0297 15.6118C21.4203 15.6118 21.0922 15.9517 21.0922 16.5727V19.3384C21.0922 20.5571 20.4242 21.1782 19.2641 21.1782H16.4281C15.8188 21.1782 15.4789 21.5181 15.4789 22.1274C15.4789 22.7251 15.8188 23.0649 16.4281 23.0649Z" fill="black" fill-opacity="0.85"/>
<path d="M5.61169 18.1313H17.4008C17.9047 18.1313 18.1625 17.7915 18.1625 17.311C18.1625 15.9048 16.0297 12.2485 11.5063 12.2485C6.98279 12.2485 4.84998 15.9048 4.84998 17.311C4.84998 17.7915 5.10779 18.1313 5.61169 18.1313ZM11.5063 11.1938C13.3461 11.2056 14.8109 9.64697 14.8109 7.57275C14.8109 5.63916 13.3461 4.03369 11.5063 4.03369C9.66638 4.03369 8.20154 5.63916 8.20154 7.57275C8.20154 9.64697 9.66638 11.1821 11.5063 11.1938Z" fill="black" fill-opacity="0.85"/>
</g>
<defs>
<clipPath id="clip0_2207_18936">
<rect width="22.9453" height="22.957" fill="white" transform="translate(0.0335693 0.10791)"/>
</clipPath>
</defs>
</svg>
