<svg width="22" height="22" viewBox="0 0 22 22" fill="none" xmlns="http://www.w3.org/2000/svg">
<g clip-path="url(#clip0_2207_2293)">
<path d="M3.68604 21.7056H17.9008C20.3618 21.7056 21.5805 20.4868 21.5805 18.0727V3.76416C21.5805 1.3501 20.3618 0.131348 17.9008 0.131348H3.68604C1.23682 0.131348 0.00634766 1.33838 0.00634766 3.76416V18.0727C0.00634766 20.4985 1.23682 21.7056 3.68604 21.7056ZM3.70947 19.8188C2.5376 19.8188 1.89307 19.1977 1.89307 17.979V3.85791C1.89307 2.63916 2.5376 2.01807 3.70947 2.01807H17.8774C19.0375 2.01807 19.6938 2.63916 19.6938 3.85791V17.979C19.6938 19.1977 19.0375 19.8188 17.8774 19.8188H3.70947ZM2.73682 20.5102H18.8735C18.1821 17.2173 14.8774 14.8267 10.811 14.8267C6.73291 14.8267 3.42823 17.2173 2.73682 20.5102ZM10.7993 12.8696C13.0375 12.8931 14.8071 10.9829 14.8071 8.4751C14.8071 6.11963 13.0375 4.17432 10.7993 4.17432C8.56104 4.17432 6.77979 6.11963 6.79151 8.4751C6.80323 10.9829 8.56104 12.8462 10.7993 12.8696Z" fill="black" fill-opacity="0.85"/>
</g>
<defs>
<clipPath id="clip0_2207_2293">
<rect width="21.5742" height="21.5977" fill="white" transform="translate(0.00634766 0.10791)"/>
</clipPath>
</defs>
</svg>
