<svg width="34" height="20" viewBox="0 0 34 20" fill="none" xmlns="http://www.w3.org/2000/svg">
<g clip-path="url(#clip0_2207_1787)">
<path d="M6.86743 13.8423H7.81665C7.74634 13.2329 7.68775 12.5649 7.76978 11.9556H6.99634C4.11353 11.9556 2.06275 9.92822 2.06275 7.02197C2.06275 4.13916 4.12525 2.1001 6.99634 2.1001H17.3908C20.2619 2.1001 22.3244 4.13916 22.3244 7.02197C22.3244 9.92822 20.2619 11.9556 17.3908 11.9556H13.2776C13.1135 12.4126 13.1721 13.3032 13.5354 13.8423H17.5197C21.4924 13.8423 24.3283 11.0532 24.3283 7.02197C24.3283 3.00244 21.4924 0.213379 17.5197 0.213379H6.86743C2.89478 0.213379 0.0588379 3.00244 0.0588379 7.02197C0.0588379 11.0532 2.89478 13.8423 6.86743 13.8423ZM16.2658 19.2915H26.9182C30.8908 19.2915 33.7268 16.5024 33.7268 12.4712C33.7268 8.45166 30.8908 5.6626 26.9182 5.6626H25.9572C26.0276 6.26025 26.0861 6.93994 26.0158 7.54932H26.7776C29.6604 7.54932 31.7229 9.57666 31.7229 12.4712C31.7229 15.3657 29.6604 17.4048 26.7776 17.4048H16.3947C13.5236 17.4048 11.4611 15.3657 11.4611 12.4712C11.4611 9.57666 13.5119 7.54932 16.3947 7.54932H20.508C20.6721 7.09229 20.6135 6.20166 20.2385 5.6626H16.2658C12.2815 5.6626 9.45728 8.45166 9.45728 12.4712C9.45728 16.5024 12.2815 19.2915 16.2658 19.2915Z" fill="black" fill-opacity="0.85"/>
</g>
<defs>
<clipPath id="clip0_2207_1787">
<rect width="33.668" height="19.1836" fill="white" transform="translate(0.0588379 0.10791)"/>
</clipPath>
</defs>
</svg>
