<svg width="24" height="25" viewBox="0 0 24 25" fill="none" xmlns="http://www.w3.org/2000/svg">
<g clip-path="url(#clip0_2207_2146)">
<path d="M11.9992 24.0126C18.5383 24.0126 23.9523 18.5869 23.9523 12.0595C23.9523 5.52051 18.5266 0.106445 11.9875 0.106445C5.4602 0.106445 0.0461426 5.52051 0.0461426 12.0595C0.0461426 18.5869 5.47192 24.0126 11.9992 24.0126ZM11.9992 22.0205C6.46802 22.0205 2.05005 17.5908 2.05005 12.0595C2.05005 6.52833 6.4563 2.09864 11.9875 2.09864C17.5188 2.09864 21.9602 6.52833 21.9602 12.0595C21.9602 17.5908 17.5305 22.0205 11.9992 22.0205ZM20.0149 19.7822L19.9797 19.6533C19.4055 17.9306 16.3117 16.0439 11.9992 16.0439C7.69848 16.0439 4.60473 17.9306 4.0188 19.6416L3.98364 19.7822C6.09302 21.8681 9.71411 23.0869 11.9992 23.0869C14.2961 23.0869 17.882 21.8798 20.0149 19.7822ZM11.9992 14.0517C14.2609 14.0752 16.0188 12.1533 16.0188 9.63379C16.0188 7.26661 14.2492 5.30957 11.9992 5.30957C9.74926 5.30957 7.96802 7.26661 7.97973 9.63379C7.99145 12.1533 9.74926 14.0283 11.9992 14.0517Z" fill="black" fill-opacity="0.85"/>
</g>
<defs>
<clipPath id="clip0_2207_2146">
<rect width="23.9062" height="23.918" fill="white" transform="translate(0.0461426 0.106445)"/>
</clipPath>
</defs>
</svg>
