<svg width="28" height="22" viewBox="0 0 28 22" fill="none" xmlns="http://www.w3.org/2000/svg">
<g clip-path="url(#clip0_2207_2371)">
<path d="M3.77417 21.6806H24.0476C26.5086 21.6806 27.7273 20.4736 27.7273 18.0595V3.73926C27.7273 1.3252 26.5086 0.106445 24.0476 0.106445H3.77417C1.32495 0.106445 0.0944824 1.3252 0.0944824 3.73926V18.0595C0.0944824 20.4736 1.32495 21.6806 3.77417 21.6806ZM3.7976 19.7939C2.62573 19.7939 1.9812 19.1728 1.9812 17.9541V3.84473C1.9812 2.62598 2.62573 1.99317 3.7976 1.99317H24.0242C25.1843 1.99317 25.8406 2.62598 25.8406 3.84473V17.9541C25.8406 19.1728 25.1843 19.7939 24.0242 19.7939H3.7976ZM5.8601 20.497H21.9851C21.2937 17.2041 17.989 14.8134 13.9226 14.8134C9.84448 14.8134 6.53979 17.2041 5.8601 20.497ZM13.9226 12.8564C16.1609 12.8798 17.9304 10.9697 17.9304 8.46192C17.9304 6.10645 16.1609 4.16114 13.9226 4.16114C11.6843 4.16114 9.90307 6.10645 9.91479 8.46192C9.92651 10.9697 11.6843 12.833 13.9226 12.8564Z" fill="black" fill-opacity="0.85"/>
</g>
<defs>
<clipPath id="clip0_2207_2371">
<rect width="27.6328" height="21.5742" fill="white" transform="translate(0.0944824 0.106445)"/>
</clipPath>
</defs>
</svg>
