<svg width="22" height="22" viewBox="0 0 22 22" fill="none" xmlns="http://www.w3.org/2000/svg">
<g clip-path="url(#clip0_2207_25648)">
<path d="M3.75318 21.7056H17.968C20.429 21.7056 21.6477 20.4868 21.6477 18.0727V3.76416C21.6477 1.3501 20.429 0.131348 17.968 0.131348H3.75318C1.30396 0.131348 0.0734863 1.33838 0.0734863 3.76416V18.0727C0.0734863 20.4985 1.30396 21.7056 3.75318 21.7056ZM3.77661 19.8188C2.60474 19.8188 1.96021 19.1977 1.96021 17.979V3.85791C1.96021 2.63916 2.60474 2.01807 3.77661 2.01807H17.9446C19.1047 2.01807 19.761 2.63916 19.761 3.85791V17.979C19.761 19.1977 19.1047 19.8188 17.9446 19.8188H3.77661Z" fill="black" fill-opacity="0.85"/>
<path d="M6.57739 9.04932C6.57739 9.37744 6.82348 9.63525 7.1516 9.63525H7.86645V15.9985C7.86645 16.4556 8.20629 16.772 8.63989 16.772C9.0852 16.772 9.4016 16.4556 9.4016 15.9985V12.6938H11.4524C13.4094 12.6938 14.8274 11.4634 15.0501 9.63525H15.5891C15.929 9.63525 16.1633 9.37744 16.1633 9.04932C16.1633 8.70947 15.929 8.4751 15.5891 8.4751H15.0266C14.7571 6.71729 13.3743 5.56885 11.4524 5.56885H8.61645C8.15942 5.56885 7.86645 5.87353 7.86645 6.34229V8.4751H7.1516C6.82348 8.4751 6.57739 8.70947 6.57739 9.04932ZM9.41332 11.311V9.63525H13.4915C13.304 10.6899 12.4837 11.311 11.1946 11.311H9.41332ZM9.41332 8.4751V6.95166H11.1946C12.4251 6.95166 13.2337 7.50244 13.4563 8.4751H9.41332Z" fill="black" fill-opacity="0.85"/>
</g>
<defs>
<clipPath id="clip0_2207_25648">
<rect width="21.5742" height="21.5977" fill="white" transform="translate(0.0734863 0.10791)"/>
</clipPath>
</defs>
</svg>
