<svg width="18" height="22" viewBox="0 0 18 22" fill="none" xmlns="http://www.w3.org/2000/svg">
<g clip-path="url(#clip0_2207_25634)">
<path d="M2.37573 20.8032C2.37573 21.4243 2.87964 21.9165 3.50073 21.9165C4.12183 21.9165 4.61402 21.4243 4.61402 20.8032V13.854H8.83276C12.8171 13.854 15.5593 11.1587 15.5593 7.22119C15.5593 3.30713 13.0046 0.635254 8.94995 0.635254H3.50073C2.80933 0.635254 2.37573 1.09228 2.37573 1.79541V20.8032ZM4.61402 11.8852V2.62744H8.39917C11.6218 2.62744 13.2624 4.30322 13.2624 7.22119C13.2624 10.1509 11.4694 11.8852 8.30542 11.8852H4.61402ZM0.80542 7.86572H16.696C17.1296 7.86572 17.4577 7.51416 17.4577 7.09229C17.4577 6.65869 17.1296 6.33057 16.696 6.33057H0.80542C0.383545 6.33057 0.0671387 6.65869 0.0671387 7.09229C0.0671387 7.51416 0.383545 7.86572 0.80542 7.86572Z" fill="black" fill-opacity="0.85"/>
</g>
<defs>
<clipPath id="clip0_2207_25634">
<rect width="17.3906" height="21.8086" fill="white" transform="translate(0.0671387 0.10791)"/>
</clipPath>
</defs>
</svg>
