<svg width="24" height="25" viewBox="0 0 24 25" fill="none" xmlns="http://www.w3.org/2000/svg">
<g clip-path="url(#clip0_2207_25643)">
<path d="M12.0244 24.0141C18.5635 24.0141 23.9775 18.5884 23.9775 12.061C23.9775 5.52197 18.5518 0.10791 12.0127 0.10791C5.48535 0.10791 0.0712891 5.52197 0.0712891 12.061C0.0712891 18.5884 5.49707 24.0141 12.0244 24.0141Z" fill="black" fill-opacity="0.85"/>
<path d="M7.59473 10.1509C7.59473 9.79932 7.84082 9.56494 8.18067 9.56494H8.91895V7.36182C8.91895 6.88135 9.22363 6.56494 9.7041 6.56494H12.6221C14.6143 6.56494 16.0205 7.74853 16.3135 9.56494H16.8994C17.2393 9.56494 17.4854 9.79932 17.4854 10.1509C17.4854 10.4907 17.2393 10.7602 16.8994 10.7602H16.3369C16.1143 12.647 14.6494 13.9243 12.6221 13.9243H10.5127V17.3227C10.5127 17.7915 10.1846 18.1196 9.72754 18.1196C9.27051 18.1196 8.91895 17.7915 8.91895 17.3227V10.7602H8.18067C7.84082 10.7602 7.59473 10.4907 7.59473 10.1509ZM10.5244 12.4829H12.3643C13.6885 12.4829 14.5322 11.8501 14.7197 10.7602H10.5244V12.4829ZM10.5244 9.56494H14.6846C14.4502 8.55713 13.6299 7.99463 12.3643 7.99463H10.5244V9.56494Z" fill="white"/>
</g>
<defs>
<clipPath id="clip0_2207_25643">
<rect width="23.9062" height="23.918" fill="white" transform="translate(0.0712891 0.10791)"/>
</clipPath>
</defs>
</svg>
