<svg width="22" height="22" viewBox="0 0 22 22" fill="none" xmlns="http://www.w3.org/2000/svg">
<g clip-path="url(#clip0_2207_25653)">
<path d="M3.75537 21.7056H17.9702C20.4312 21.7056 21.6499 20.4868 21.6499 18.0727V3.76416C21.6499 1.3501 20.4312 0.131348 17.9702 0.131348H3.75537C1.30615 0.131348 0.0756836 1.33838 0.0756836 3.76416V18.0727C0.0756836 20.4985 1.30615 21.7056 3.75537 21.7056Z" fill="black" fill-opacity="0.85"/>
<path d="M6.43896 8.99072C6.43896 8.63915 6.68507 8.40479 7.02491 8.40479H7.76319V6.20166C7.76319 5.72119 8.06788 5.40479 8.54835 5.40479H11.4663C13.4585 5.40479 14.8765 6.58838 15.1577 8.40479H15.7437C16.0952 8.40479 16.3296 8.63915 16.3296 8.99072C16.3296 9.33056 16.0952 9.6001 15.7437 9.6001H15.1812C14.9585 11.4868 13.4937 12.7641 11.4663 12.7641H9.35694V16.1626C9.35694 16.6313 9.02881 16.9595 8.57177 16.9595C8.11474 16.9595 7.76319 16.6313 7.76319 16.1626V9.6001H7.02491C6.68507 9.6001 6.43896 9.33056 6.43896 8.99072ZM9.36865 11.3227H11.2085C12.5327 11.3227 13.3765 10.6899 13.564 9.6001H9.36865V11.3227ZM9.36865 8.40479H13.5288C13.3062 7.39697 12.4741 6.83447 11.2085 6.83447H9.36865V8.40479Z" fill="white"/>
</g>
<defs>
<clipPath id="clip0_2207_25653">
<rect width="21.5742" height="21.5977" fill="white" transform="translate(0.0756836 0.10791)"/>
</clipPath>
</defs>
</svg>
