<svg width="18" height="22" viewBox="0 0 18 22" fill="none" xmlns="http://www.w3.org/2000/svg">
<g clip-path="url(#clip0_2207_25658)">
<path d="M2.40967 20.8032C2.40967 21.4243 2.91358 21.9165 3.53467 21.9165C4.15576 21.9165 4.64795 21.4243 4.64795 20.8032V13.854H8.8667C12.851 13.854 15.5932 11.1587 15.5932 7.22119C15.5932 3.30713 13.0385 0.635254 8.98389 0.635254H3.53467C2.84326 0.635254 2.40967 1.09228 2.40967 1.79541V20.8032ZM4.64795 11.8852V2.62744H8.43311C11.6557 2.62744 13.2964 4.30322 13.2964 7.22119C13.2964 10.1509 11.5034 11.8852 8.33936 11.8852H4.64795ZM0.0776367 5.6626C0.0776367 6.08447 0.417481 6.42432 0.839356 6.42432H16.7299C17.1518 6.42432 17.5034 6.08447 17.5034 5.6626C17.5034 5.24072 17.1518 4.90088 16.7299 4.90088H0.839356C0.417481 4.90088 0.0776367 5.24072 0.0776367 5.6626ZM0.0776367 9.38916C0.0776367 9.81103 0.417481 10.1509 0.839356 10.1509H16.7299C17.1518 10.1509 17.5034 9.81103 17.5034 9.38916C17.5034 8.96729 17.1518 8.62744 16.7299 8.62744H0.839356C0.417481 8.62744 0.0776367 8.96729 0.0776367 9.38916Z" fill="black" fill-opacity="0.85"/>
</g>
<defs>
<clipPath id="clip0_2207_25658">
<rect width="17.4258" height="21.8086" fill="white" transform="translate(0.0776367 0.10791)"/>
</clipPath>
</defs>
</svg>
