<svg width="24" height="25" viewBox="0 0 24 25" fill="none" xmlns="http://www.w3.org/2000/svg">
<g clip-path="url(#clip0_2207_9468)">
<path d="M11.9531 24.0156C18.4922 24.0156 23.9062 18.5899 23.9062 12.0625C23.9062 5.52344 18.4805 0.109375 11.9414 0.109375C5.41406 0.109375 0 5.52344 0 12.0625C0 18.5899 5.42578 24.0156 11.9531 24.0156ZM11.9531 22.0235C6.42188 22.0235 2.00391 17.5938 2.00391 12.0625C2.00391 6.53126 6.41016 2.10157 11.9414 2.10157C17.4727 2.10157 21.9141 6.53126 21.9141 12.0625C21.9141 17.5938 17.4844 22.0235 11.9531 22.0235Z" fill="black" fill-opacity="0.85"/>
<path d="M8.27345 15.7422C11.0156 18.4727 14.4961 20.2188 16.5469 18.1563C16.6289 18.086 16.6875 18.0039 16.7578 17.9336C17.2852 17.3242 17.4258 16.5391 16.7461 16.0235C16.207 15.6367 15.6445 15.2266 14.6719 14.5586C13.9805 14.0782 13.5352 14.1953 13.0078 14.711L12.5391 15.1797C12.4102 15.3086 12.1758 15.2852 12.0234 15.1914C11.6133 14.9453 10.9219 14.4063 10.2656 13.75C9.6211 13.0938 9.04689 12.3789 8.81251 11.9922C8.7422 11.8633 8.6836 11.6524 8.83595 11.4883L9.3047 11.0078C9.83204 10.4453 9.93751 10.0234 9.44532 9.34375L8.00392 7.29296C7.52345 6.60156 6.79689 6.7539 6.01173 7.32812C5.95313 7.37499 5.90626 7.42188 5.85939 7.45704C3.79689 9.53126 5.54298 13.0117 8.27345 15.7422ZM12.4336 12.2617C12.5977 12.2617 12.7617 12.2149 12.8672 12.1094L15.7266 9.22657L16.4766 8.40625L16.3945 9.97657V10.961C16.3945 11.2891 16.6289 11.5469 16.957 11.5821C17.3086 11.5938 17.6016 11.3125 17.6016 10.961V7.14062C17.6016 6.71876 17.3672 6.48438 16.9453 6.48438H13.1016C12.75 6.48438 12.4805 6.76563 12.5039 7.11719C12.5156 7.44532 12.7617 7.6914 13.1016 7.6914H14.1328L15.6797 7.60938L14.8594 8.35938L12.0117 11.2188C11.8711 11.3477 11.8242 11.5 11.8242 11.6875C11.8242 12.0274 12.082 12.2617 12.4336 12.2617Z" fill="black" fill-opacity="0.85"/>
</g>
<defs>
<clipPath id="clip0_2207_9468">
<rect width="23.9062" height="23.918" fill="white" transform="translate(0 0.109375)"/>
</clipPath>
</defs>
</svg>
