<svg width="24" height="24" viewBox="0 0 24 24" fill="none" xmlns="http://www.w3.org/2000/svg">
<g id="phone.circle.fill" clip-path="url(#clip0_2201_573)">
<g id="Group">
<path id="Vector" d="M11.9531 23.918C18.4922 23.918 23.9062 18.5039 23.9062 11.9648C23.9062 5.4375 18.4805 0.0117188 11.9414 0.0117188C5.41406 0.0117188 0 5.4375 0 11.9648C0 18.5039 5.42578 23.918 11.9531 23.918Z" fill="black" fill-opacity="0.85"/>
<path id="Vector_2" d="M9.02342 14.7891C6.1992 11.9766 4.40623 8.39064 6.52732 6.25783C6.5742 6.21096 6.62107 6.16408 6.69139 6.11721C7.49998 5.51955 8.24998 5.37893 8.74217 6.09377L10.2305 8.19143C10.7344 8.90627 10.6289 9.33986 10.0664 9.91408L9.59764 10.418C9.44529 10.582 9.50389 10.793 9.5742 10.9336C9.82029 11.3438 10.4062 12.0703 11.0742 12.7383C11.7539 13.418 12.457 13.9805 12.8789 14.2383C13.043 14.332 13.2891 14.3555 13.418 14.2148L13.8984 13.7461C14.4375 13.207 14.9062 13.0898 15.6211 13.582C16.5938 14.2734 17.1914 14.6836 17.7539 15.0938C18.457 15.6211 18.3047 16.4414 17.7656 17.0508C17.6953 17.1328 17.6367 17.2148 17.5547 17.2969C15.4336 19.418 11.8359 17.625 9.02342 14.7891Z" fill="white"/>
</g>
</g>
<defs>
<clipPath id="clip0_2201_573">
<rect width="23.9062" height="23.918" fill="white"/>
</clipPath>
</defs>
</svg>
