<svg width="24" height="24" viewBox="0 0 24 24" fill="none" xmlns="http://www.w3.org/2000/svg">
<g clip-path="url(#clip0_2207_9478)">
<path d="M17.1294 23.1119C19.1801 23.1119 20.5278 22.5611 21.7114 21.2252C21.8051 21.1314 21.8989 21.026 21.9809 20.9322C22.6841 20.1471 23.0122 19.3736 23.0122 18.6353C23.0122 17.7916 22.52 17.0064 21.477 16.2799L18.0669 13.9127C17.0122 13.1861 15.7817 13.1041 14.7973 14.0768L13.895 14.9791C13.6255 15.2486 13.3911 15.2603 13.1333 15.0963C12.5005 14.6978 11.2231 13.5846 10.3559 12.7174C9.44189 11.815 8.56299 10.8072 8.09424 10.0689C7.94189 9.79937 7.95361 9.57671 8.22314 9.30718L9.11377 8.40484C10.0981 7.42046 10.0161 6.17827 9.28955 5.1353L6.92236 1.72515C6.1958 0.682178 5.41064 0.201709 4.56689 0.18999C3.82861 0.178271 3.05517 0.518115 2.27002 1.22124C2.16455 1.31499 2.0708 1.39702 1.97705 1.47905C0.641113 2.67437 0.090332 4.02202 0.090332 6.04937C0.090332 9.40093 2.15283 13.4791 5.93799 17.2642C9.69971 21.026 13.7895 23.1119 17.1294 23.1119ZM17.1411 21.3072C14.1528 21.3658 10.3208 19.0689 7.28564 16.0455C4.22705 12.9986 1.82471 9.03765 1.8833 6.04937C1.90674 4.7603 2.36377 3.64702 3.27783 2.85015C3.35986 2.77984 3.41845 2.72124 3.50049 2.66265C3.85205 2.35796 4.22705 2.1939 4.56689 2.1939C4.90674 2.1939 5.21142 2.3228 5.43408 2.67437L7.70752 6.08452C7.95361 6.4478 7.97705 6.85796 7.61377 7.22124L6.58252 8.25249C5.77392 9.06108 5.83252 10.0455 6.41845 10.8307C7.08642 11.733 8.24658 13.0455 9.14892 13.9361C10.0396 14.8385 11.4575 16.1041 12.3715 16.7838C13.1567 17.3697 14.1411 17.4283 14.9497 16.6197L15.9809 15.5885C16.3442 15.2252 16.7426 15.2486 17.1176 15.483L20.5278 17.7564C20.8794 17.9908 21.0083 18.2838 21.0083 18.6353C21.0083 18.9752 20.8442 19.3502 20.5395 19.7018C20.4692 19.7838 20.4223 19.8424 20.352 19.9244C19.5551 20.8385 18.4419 21.2838 17.1411 21.3072Z" fill="black" fill-opacity="0.85"/>
<path d="M22.2622 0.10791C22.0161 0.10791 21.8286 0.189941 21.6528 0.365722L16.602 5.42822L14.8091 7.37353L14.9965 3.93994V2.19385C14.9965 1.73682 14.6567 1.38525 14.1997 1.36182C13.7309 1.33838 13.3208 1.71338 13.3208 2.19385V8.979C13.3208 9.6001 13.6255 9.9165 14.2465 9.9165H21.0551C21.5356 9.9165 21.9223 9.51807 21.8989 9.0376C21.8755 8.58057 21.5122 8.24072 21.0551 8.24072H19.2856L15.8403 8.42822L17.8091 6.63525L22.8481 1.57275C23.0473 1.38525 23.1294 1.17432 23.1294 0.928222C23.1294 0.471191 22.7544 0.10791 22.2622 0.10791Z" fill="black" fill-opacity="0.85"/>
</g>
<defs>
<clipPath id="clip0_2207_9478">
<rect width="23.0391" height="23.0273" fill="white" transform="translate(0.090332 0.10791)"/>
</clipPath>
</defs>
</svg>
