<svg width="24" height="24" viewBox="0 0 24 24" fill="none" xmlns="http://www.w3.org/2000/svg">
<g clip-path="url(#clip0_2207_9384)">
<path d="M17.1272 23.0885C19.1779 23.0885 20.5256 22.5377 21.7092 21.2018C21.8029 21.108 21.8967 21.0025 21.9787 20.9088C22.6819 20.1236 23.01 19.3502 23.01 18.6119C23.01 17.7682 22.5178 16.983 21.4748 16.2564L18.0647 13.8892C17.0217 13.1627 15.7795 13.0807 14.7951 14.0533L13.8928 14.9557C13.6233 15.2252 13.3889 15.2369 13.1311 15.0728C12.4983 14.6744 11.2209 13.5611 10.3537 12.6939C9.4397 11.7916 8.56079 10.7838 8.09204 10.0455C7.93969 9.77593 7.95141 9.55327 8.22094 9.28374L9.11158 8.3814C10.0959 7.39702 10.0139 6.15484 9.28735 5.11187L6.92016 1.70171C6.1936 0.65874 5.40844 0.178271 4.56469 0.166553C3.82641 0.154834 3.05297 0.494678 2.26782 1.1978C2.16235 1.29155 2.0686 1.37358 1.97485 1.45562C0.638916 2.65093 0.0881348 3.99858 0.0881348 6.02593C0.0881348 9.37749 2.15063 13.4557 5.93579 17.2408C9.69751 21.0025 13.7873 23.0885 17.1272 23.0885ZM17.1389 21.2838C14.1506 21.3424 10.3186 19.0455 7.28344 16.0221C4.22485 12.9752 1.82251 9.01421 1.8811 6.02593C1.90454 4.73687 2.36157 3.62358 3.27563 2.82671C3.35766 2.7564 3.41625 2.6978 3.49829 2.63921C3.84985 2.33452 4.22485 2.17046 4.56469 2.17046C4.90454 2.17046 5.20922 2.29937 5.43188 2.65093L7.70532 6.06108C7.95141 6.42437 7.97485 6.83452 7.61157 7.1978L6.58032 8.22905C5.77172 9.03765 5.83033 10.022 6.41625 10.8072C7.08423 11.7096 8.24438 13.0221 9.14672 13.9127C10.0374 14.815 11.4553 16.0807 12.3693 16.7603C13.1545 17.3463 14.1389 17.4049 14.9475 16.5963L15.9787 15.565C16.342 15.2018 16.7404 15.2252 17.1154 15.4596L20.5256 17.733C20.8654 17.9674 21.0061 18.2603 21.0061 18.6119C21.0061 18.9518 20.842 19.3268 20.5373 19.6783C20.467 19.7603 20.4201 19.8189 20.3498 19.901C19.5529 20.815 18.4397 21.2603 17.1389 21.2838Z" fill="black" fill-opacity="0.85"/>
</g>
<defs>
<clipPath id="clip0_2207_9384">
<rect width="22.9219" height="22.9805" fill="white" transform="translate(0.0881348 0.10791)"/>
</clipPath>
</defs>
</svg>
