<svg width="29" height="12" viewBox="0 0 29 12" fill="none" xmlns="http://www.w3.org/2000/svg">
<g clip-path="url(#clip0_2207_9498)">
<path d="M0.0273438 9.42579C0.0273438 10.8086 0.859375 11.9571 2.32422 11.9571C2.60546 11.9571 3.03906 11.9336 3.64843 11.8282L7.79687 11.2071C9.50781 10.961 9.97656 10.2578 9.97656 8.79296C9.97656 8.34766 9.97656 7.92578 9.98828 7.48046C9.98828 7.11718 10.1523 6.96484 10.4218 6.89453C12.1445 6.50781 16.2695 6.50781 17.9921 6.89453C18.2617 6.96484 18.4257 7.11718 18.4257 7.48046C18.4375 7.92578 18.4375 8.34766 18.4375 8.79296C18.4375 10.2578 18.9062 10.961 20.6171 11.2071L24.7656 11.8282C25.375 11.9336 25.8085 11.9571 26.0898 11.9571C27.5546 11.9571 28.3867 10.8086 28.3867 9.42579C28.3867 9.09766 28.3867 8.78125 28.3867 8.46484C28.3867 3.01562 22.2929 0.308594 14.207 0.308594C6.13281 0.308594 0.0273438 3.01562 0.0273438 8.46484C0.0273438 8.78125 0.0273438 9.09766 0.0273438 9.42579ZM1.92578 9.14454C1.92578 8.94532 1.92578 8.75781 1.92578 8.55859C1.92578 3.84765 7.98437 2.07812 14.207 2.07812C20.4296 2.07812 26.4882 3.84765 26.4882 8.55859C26.4882 8.75781 26.4882 8.94532 26.4882 9.14454C26.4882 9.71875 26.2187 10.2227 25.6211 10.2227C25.457 10.2227 25.2812 10.1992 24.9531 10.1406L21.0156 9.40234C20.6289 9.32031 20.3359 9.12109 20.3359 8.54688C20.3359 8.0664 20.3359 7.56249 20.3359 7.08203C20.3359 5.92187 19.914 5.45312 19.3046 5.27734C17.4179 4.73828 10.9961 4.73828 9.10937 5.27734C8.5 5.45312 8.07812 5.92187 8.07812 7.08203C8.07812 7.56249 8.07812 8.0664 8.07812 8.54688C8.07812 9.12109 7.78515 9.32031 7.39843 9.40234L3.46093 10.1406C3.13281 10.1992 2.96875 10.2227 2.79296 10.2227C2.19531 10.2227 1.92578 9.71875 1.92578 9.14454Z" fill="black" fill-opacity="0.85"/>
</g>
<defs>
<clipPath id="clip0_2207_9498">
<rect width="28.3594" height="11.8477" fill="white" transform="translate(0.0273438 0.109375)"/>
</clipPath>
</defs>
</svg>
