<svg width="28" height="11" viewBox="0 0 28 11" fill="none" xmlns="http://www.w3.org/2000/svg">
<g clip-path="url(#clip0_2207_9502)">
<path d="M13.8092 0.109375C8.73498 0.109375 3.96545 1.17579 1.58654 3.55469C0.508417 4.63282 -0.0306449 5.93359 0.0396676 7.5039C0.0865426 8.45312 0.379511 9.29688 0.930292 9.84766C1.34045 10.2696 1.91467 10.5039 2.58264 10.3985L6.93029 9.66016C7.58654 9.55469 8.04357 9.35546 8.33654 9.05079C8.72326 8.67579 8.84045 8.11329 8.84045 7.375V6.1914C8.84045 6.0039 8.92248 5.86329 9.03967 5.7461C9.15686 5.60546 9.33264 5.54688 9.46154 5.51171C10.2584 5.32421 11.8756 5.14844 13.8092 5.14844C15.7428 5.14844 17.3483 5.28907 18.1569 5.52344C18.2741 5.5586 18.4381 5.62891 18.567 5.7461C18.6725 5.86329 18.7428 5.99219 18.7545 6.17969L18.7663 7.375C18.778 8.11329 18.8952 8.67579 19.2702 9.05079C19.5749 9.35546 20.0319 9.55469 20.6881 9.66016L24.9772 10.3867C25.6686 10.5039 26.2545 10.2578 26.7116 9.8125C27.2624 9.27344 27.567 8.45312 27.5905 7.49219C27.6256 5.91016 27.0163 4.60938 25.9616 3.55469C23.5827 1.17579 18.8834 0.109375 13.8092 0.109375Z" fill="black" fill-opacity="0.85"/>
</g>
<defs>
<clipPath id="clip0_2207_9502">
<rect width="27.5583" height="10.3477" fill="white" transform="translate(0.0335693 0.109375)"/>
</clipPath>
</defs>
</svg>
