<svg width="26" height="26" viewBox="0 0 26 26" fill="none" xmlns="http://www.w3.org/2000/svg">
<g id="phone.bubble.fill" clip-path="url(#clip0_2201_467)">
<g id="Group">
<path id="Vector" d="M6.96094 25.8867C7.41797 25.8867 7.75781 25.6523 8.30859 25.1367L12.5391 21.2695H20.4609C23.9531 21.2695 25.8281 19.3477 25.8281 15.9141V6.9375C25.8281 3.50391 23.9531 1.57031 20.4609 1.57031H5.36719C1.875 1.57031 0 3.49219 0 6.9375V15.9141C0 19.3594 1.875 21.2695 5.36719 21.2695H5.91797V24.6797C5.91797 25.4062 6.29297 25.8867 6.96094 25.8867Z" fill="black" fill-opacity="0.85"/>
<path id="Vector_2" d="M9.9844 14.2383C7.16018 11.4258 5.36721 7.83986 7.50002 5.70705C7.53518 5.66018 7.58205 5.6133 7.66408 5.56643C8.47268 4.96877 9.21096 4.82814 9.71486 5.54299L11.2031 7.64064C11.707 8.35549 11.5898 8.78908 11.0391 9.3633L10.5703 9.86721C10.4062 10.0312 10.4648 10.2422 10.5469 10.3711C10.7812 10.7812 11.3672 11.5195 12.0352 12.1875C12.7266 12.8672 13.418 13.4297 13.8398 13.6875C14.0156 13.7812 14.25 13.8047 14.3906 13.6641L14.8594 13.1953C15.3984 12.6445 15.8672 12.5273 16.582 13.0312C17.5664 13.7227 18.1523 14.1328 18.7266 14.5312C19.4297 15.0703 19.2773 15.8906 18.7266 16.5C18.668 16.582 18.6094 16.6641 18.5273 16.7461C16.3945 18.8555 12.8086 17.0742 9.9844 14.2383Z" fill="white"/>
</g>
</g>
<defs>
<clipPath id="clip0_2201_467">
<rect width="25.8281" height="25.8867" fill="white"/>
</clipPath>
</defs>
</svg>
