<svg width="24" height="24" viewBox="0 0 24 24" fill="none" xmlns="http://www.w3.org/2000/svg">
<g id="phone.arrow.up.right.circle" clip-path="url(#clip0_2201_644)">
<g id="Group">
<path id="Vector" d="M11.9531 23.9062C18.4922 23.9062 23.9062 18.4805 23.9062 11.9531C23.9062 5.41406 18.4805 0 11.9414 0C5.41406 0 0 5.41406 0 11.9531C0 18.4805 5.42578 23.9062 11.9531 23.9062ZM11.9531 21.9141C6.42188 21.9141 2.00391 17.4844 2.00391 11.9531C2.00391 6.42188 6.41016 1.99219 11.9414 1.99219C17.4727 1.99219 21.9141 6.42188 21.9141 11.9531C21.9141 17.4844 17.4844 21.9141 11.9531 21.9141Z" fill="black" fill-opacity="0.85"/>
<path id="Vector_2" d="M8.27345 15.6328C11.0156 18.3633 14.4961 20.1094 16.5469 18.0469C16.6289 17.9766 16.6875 17.8945 16.7578 17.8242C17.2852 17.2148 17.4258 16.4297 16.7461 15.9141C16.207 15.5273 15.6445 15.1172 14.6719 14.4492C13.9805 13.9688 13.5352 14.0859 13.0078 14.6016L12.5391 15.0703C12.4102 15.1992 12.1758 15.1758 12.0234 15.082C11.6133 14.8359 10.9219 14.2969 10.2656 13.6406C9.6211 12.9844 9.04689 12.2695 8.81251 11.8828C8.7422 11.7539 8.6836 11.543 8.83595 11.3789L9.3047 10.8984C9.83204 10.3359 9.93751 9.91406 9.44532 9.23438L8.00392 7.18359C7.52345 6.49219 6.79689 6.64453 6.01173 7.21875C5.95313 7.26562 5.90626 7.3125 5.85939 7.34766C3.79689 9.42188 5.54298 12.9023 8.27345 15.6328ZM12.4336 12.1523C12.5977 12.1523 12.7617 12.1055 12.8672 12L15.7266 9.11719L16.4766 8.29688L16.3945 9.86719V10.8516C16.3945 11.1797 16.6289 11.4375 16.957 11.4727C17.3086 11.4844 17.6016 11.2031 17.6016 10.8516V7.03125C17.6016 6.60938 17.3672 6.375 16.9453 6.375H13.1016C12.75 6.375 12.4805 6.65625 12.5039 7.00781C12.5156 7.33594 12.7617 7.58203 13.1016 7.58203H14.1328L15.6797 7.5L14.8594 8.25L12.0117 11.1094C11.8711 11.2383 11.8242 11.3906 11.8242 11.5781C11.8242 11.918 12.082 12.1523 12.4336 12.1523Z" fill="black" fill-opacity="0.85"/>
</g>
</g>
<defs>
<clipPath id="clip0_2201_644">
<rect width="23.9062" height="23.918" fill="white"/>
</clipPath>
</defs>
</svg>
