<svg width="25" height="26" viewBox="0 0 25 26" fill="none" xmlns="http://www.w3.org/2000/svg">
<g clip-path="url(#clip0_2207_9435)">
<path d="M5.96656 18.1944C9.35327 21.5811 13.4782 24.1944 16.8415 24.1944C18.3532 24.1944 19.6774 23.667 20.7439 22.4951C21.3649 21.8037 21.7517 20.9951 21.7517 20.1983C21.7517 19.6123 21.529 19.0498 20.9665 18.6514L17.3806 16.0967C16.8298 15.7217 16.3728 15.5342 15.9509 15.5342C15.4118 15.5342 14.9431 15.8389 14.404 16.3662L13.572 17.1865C13.4431 17.3155 13.279 17.374 13.1267 17.374C12.9392 17.374 12.7751 17.3037 12.6462 17.2451C11.9313 16.8584 10.6892 15.792 9.52906 14.6436C8.38062 13.4951 7.31421 12.253 6.93921 11.5264C6.8689 11.3975 6.81031 11.2334 6.81031 11.0576C6.81031 10.9053 6.85718 10.753 6.98609 10.624L7.8064 9.76856C8.33374 9.2295 8.63843 8.76075 8.63843 8.22168C8.63843 7.79981 8.45093 7.34278 8.06421 6.792L5.54468 3.24122C5.13453 2.67872 4.56031 2.43262 3.92749 2.43262C3.15406 2.43262 2.34546 2.78418 1.66577 3.45215C0.529052 4.542 0.0251465 5.88965 0.0251465 7.37793C0.0251465 10.7412 2.59156 14.8194 5.96656 18.1944Z" fill="black" fill-opacity="0.85"/>
<path d="M12.0252 12.2412C12.658 12.874 13.6658 12.874 14.2986 12.2412C14.9314 11.6084 14.9314 10.6006 14.2986 9.99121C13.6658 9.34667 12.658 9.34667 12.0252 9.96778C11.4041 10.6006 11.4041 11.6084 12.0252 12.2412ZM13.1854 5.74902C12.8104 6.1123 12.8104 6.72168 13.1854 7.08497L17.1814 11.0928C17.5447 11.4561 18.1541 11.4561 18.5174 11.0928C18.8807 10.7295 18.8807 10.1201 18.5174 9.75683L14.5096 5.74902C14.1463 5.38575 13.5486 5.38575 13.1854 5.74902ZM17.4041 6.88575C18.0369 7.4834 19.0447 7.49512 19.6658 6.86231C20.2869 6.24122 20.2869 5.2334 19.6658 4.61231C19.0447 3.9795 18.0252 3.9795 17.4041 4.60058C16.7713 5.2334 16.7713 6.2295 17.4041 6.88575ZM18.5643 0.381836C18.201 0.745117 18.201 1.34277 18.5643 1.71777L22.5604 5.71386C22.9236 6.08886 23.533 6.08886 23.8963 5.71386C24.2596 5.35058 24.2596 4.75292 23.8963 4.38965L19.9002 0.381836C19.5252 0.0185547 18.9158 0.0185547 18.5643 0.381836Z" fill="black" fill-opacity="0.85"/>
</g>
<defs>
<clipPath id="clip0_2207_9435">
<rect width="24.1436" height="25.5645" fill="white" transform="translate(0.0251465 0.109375)"/>
</clipPath>
</defs>
</svg>
