<svg width="23" height="27" viewBox="0 0 23 27" fill="none" xmlns="http://www.w3.org/2000/svg">
<g clip-path="url(#clip0_2207_9488)">
<path d="M0.0945638 13.3267C0.082845 17.7446 1.33675 22.104 3.868 24.6235C5.19222 25.9477 6.43441 26.5454 8.43831 26.5454C10.8407 26.5454 12.1415 25.2681 11.7547 22.8657L11.0282 18.7759C10.7938 17.5102 9.97347 16.5845 8.57894 16.5727H7.40706C6.79769 16.5727 6.52816 16.2446 6.46956 15.3657C6.44612 15.0141 6.42269 14.1938 6.42269 13.3267C6.42269 12.4595 6.44612 11.6391 6.46956 11.2876C6.52816 10.4087 6.79769 10.0806 7.40706 10.0806H8.57894C9.97347 10.0806 10.7938 9.14307 11.0282 7.87744L11.7547 3.79932C12.1415 1.40869 10.8758 0.10791 8.43831 0.10791C6.43441 0.10791 5.19222 0.705566 3.868 2.02979C1.33675 4.56103 0.082845 8.90869 0.0945638 13.3267ZM1.91097 13.3267C1.91097 9.34229 2.96566 5.40479 5.13362 3.29541C5.98909 2.4751 6.96175 1.99463 8.1805 1.99463C9.50472 1.99463 10.2665 2.43994 9.98519 3.67041L9.23519 7.44385C9.15316 7.87744 8.87191 8.17041 8.368 8.17041H7.02034C5.73128 8.17041 5.13362 8.96729 4.91097 10.0923C4.75862 10.8657 4.70003 12.0727 4.70003 13.3267C4.70003 14.5806 4.75862 15.7876 4.91097 16.5727C5.13362 17.686 5.73128 18.4829 7.02034 18.4829H8.368C8.87191 18.4829 9.15316 18.7759 9.23519 19.2095L9.98519 22.9829C10.2547 24.1899 9.52816 24.6587 8.1805 24.6587C6.96175 24.6587 5.98909 24.1782 5.13362 23.3579C2.96566 21.2485 1.91097 17.311 1.91097 13.3267Z" fill="black" fill-opacity="0.85"/>
<path d="M11.1218 14.1587H17.4265L19.8875 14.0415L17.3328 16.3384L16.1023 17.5688C15.9382 17.7329 15.8445 17.9556 15.8445 18.2017C15.8445 18.6821 16.196 19.0102 16.6531 19.0102C16.8875 19.0102 17.1101 18.9165 17.2742 18.7524L22.0789 13.9477C22.2898 13.7485 22.3953 13.5259 22.3953 13.3267C22.3953 13.1274 22.2898 12.8931 22.0789 12.6938L17.2742 7.90088C17.1101 7.73682 16.8875 7.64307 16.6531 7.64307C16.196 7.64307 15.8445 7.97119 15.8445 8.43994C15.8445 8.69775 15.9382 8.90869 16.1023 9.07275L17.3328 10.3149L19.8875 12.6001L17.4265 12.4829H11.1218C10.5945 12.4829 10.2781 12.8931 10.2781 13.3267C10.2781 13.7602 10.5945 14.1587 11.1218 14.1587Z" fill="black" fill-opacity="0.85"/>
</g>
<defs>
<clipPath id="clip0_2207_9488">
<rect width="22.3009" height="26.4492" fill="white" transform="translate(0.0944824 0.10791)"/>
</clipPath>
</defs>
</svg>
