<svg width="22" height="23" viewBox="0 0 22 23" fill="none" xmlns="http://www.w3.org/2000/svg">
<g clip-path="url(#clip0_2207_9388)">
<path d="M5.99096 16.7149C9.37768 20.1016 13.4909 22.7149 16.8542 22.7149C18.3659 22.7149 19.6901 22.1875 20.7566 21.0156C21.3776 20.3242 21.7644 19.5156 21.7644 18.7188C21.7644 18.1328 21.5417 17.5703 20.9909 17.1719L17.3933 14.6172C16.8542 14.2422 16.3855 14.0547 15.9636 14.0547C15.4362 14.0547 14.9558 14.3594 14.4167 14.8867L13.5847 15.7071C13.4558 15.836 13.2917 15.8946 13.1394 15.8946C12.9636 15.8946 12.7878 15.8242 12.6706 15.7656C11.944 15.3789 10.7019 14.3125 9.54175 13.1641C8.39331 12.0156 7.3269 10.7735 6.9519 10.0469C6.89331 9.91796 6.823 9.75391 6.823 9.57812C6.823 9.42579 6.86987 9.27343 6.99878 9.14454L7.83081 8.28907C8.34643 7.75 8.66284 7.28126 8.66284 6.74219C8.66284 6.32032 8.47534 5.86329 8.0769 5.3125L5.55737 1.76172C5.15893 1.19922 4.573 0.953125 3.94018 0.953125C3.16675 0.953125 2.36987 1.30469 1.67846 1.97266C0.541748 3.0625 0.0378418 4.41016 0.0378418 5.89844C0.0378418 9.26171 2.60425 13.3399 5.99096 16.7149Z" fill="black" fill-opacity="0.85"/>
</g>
<defs>
<clipPath id="clip0_2207_9388">
<rect width="21.7266" height="22.6055" fill="white" transform="translate(0.0378418 0.109375)"/>
</clipPath>
</defs>
</svg>
