<svg width="22" height="26" viewBox="0 0 22 26" fill="none" xmlns="http://www.w3.org/2000/svg">
<g clip-path="url(#clip0_2207_9493)">
<path d="M0.0966797 12.9178C0.0966797 17.3241 1.12793 21.66 3.44824 23.9921C4.5498 25.1053 5.93262 25.7616 7.67871 25.7264C9.35449 25.6913 10.6436 24.6249 10.3506 22.9842L9.63574 18.8241C9.40137 17.4296 8.81543 16.9139 7.33887 16.9139H6.56543C5.2998 16.9139 5.12402 15.7303 5.12402 12.9178C5.12402 10.1054 5.2998 8.92175 6.56543 8.92175H7.33887C8.79199 8.92175 9.38965 8.41785 9.63574 7.0116L10.3506 2.85144C10.6436 1.1991 9.35449 0.144411 7.67871 0.109255C5.93262 0.0740987 4.5498 0.730349 3.44824 1.83191C1.12793 4.16394 0.0966797 8.49988 0.0966797 12.9178Z" fill="black" fill-opacity="0.85"/>
<path d="M10.21 13.7498H16.5147L18.9756 13.6326L16.4209 15.9295L15.1905 17.1599C15.0264 17.324 14.9444 17.5466 14.9444 17.7927C14.9444 18.2732 15.2842 18.6013 15.7412 18.6013C15.9756 18.6013 16.1983 18.5076 16.3623 18.3435L21.1787 13.5388C21.3779 13.3396 21.4834 13.117 21.4834 12.9177C21.4834 12.7185 21.3779 12.4841 21.1787 12.2849L16.3623 7.49195C16.1983 7.32788 15.9756 7.23413 15.7412 7.23413C15.2842 7.23413 14.9444 7.56226 14.9444 8.03101C14.9444 8.28882 15.0264 8.49976 15.1905 8.66382L16.4209 9.90601L18.9756 12.1912L16.5147 12.074H10.21C9.68262 12.074 9.36621 12.4841 9.36621 12.9177C9.36621 13.3513 9.68262 13.7498 10.21 13.7498Z" fill="black" fill-opacity="0.85"/>
</g>
<defs>
<clipPath id="clip0_2207_9493">
<rect width="21.3867" height="25.6316" fill="white" transform="translate(0.0966797 0.10791)"/>
</clipPath>
</defs>
</svg>
