<svg width="24" height="24" viewBox="0 0 24 24" fill="none" xmlns="http://www.w3.org/2000/svg">
<g id="phone.arrow.up.right.circle.fill" clip-path="url(#clip0_2201_649)">
<g id="Group">
<path id="Vector" d="M11.9531 23.918C18.4922 23.918 23.9062 18.5039 23.9062 11.9648C23.9062 5.4375 18.4805 0.0117188 11.9414 0.0117188C5.41406 0.0117188 0 5.4375 0 11.9648C0 18.5039 5.42578 23.918 11.9531 23.918Z" fill="black" fill-opacity="0.85"/>
<path id="Vector_2" d="M8.19141 15.7383C5.37891 12.9141 3.57422 9.32812 5.70703 7.20703C5.75391 7.16016 5.80078 7.11328 5.85938 7.06641C6.66797 6.46875 7.40625 6.32812 7.91016 7.04297L9.39844 9.14062C9.91406 9.85547 9.78516 10.2891 9.24609 10.8516L8.77734 11.3672C8.61328 11.5195 8.66016 11.7422 8.75391 11.8711C8.98828 12.2695 9.58594 13.0195 10.2422 13.6875C10.9219 14.3555 11.625 14.9297 12.0586 15.1758C12.2109 15.2812 12.457 15.293 12.5859 15.1523L13.0781 14.6719C13.6172 14.1445 14.0742 14.0156 14.7773 14.5195C15.7734 15.1992 16.3711 15.6211 16.9219 16.0312C17.625 16.5586 17.4844 17.3789 16.9336 18C16.8633 18.082 16.8047 18.1523 16.7227 18.2344C14.6016 20.3555 11.0039 18.5625 8.19141 15.7383ZM12.4805 12.1523C12.1055 12.1523 11.8359 11.9062 11.8359 11.5547C11.8359 11.3555 11.8945 11.2148 12.0352 11.0742L14.9766 8.13281L15.8086 7.35938L14.2148 7.44141H13.1719C12.8203 7.44141 12.5508 7.18359 12.5391 6.84375C12.5156 6.49219 12.8086 6.1875 13.1719 6.1875H17.1328C17.5547 6.1875 17.8008 6.43359 17.8008 6.86719V10.8047C17.8008 11.168 17.5078 11.4609 17.1445 11.4492C16.8047 11.4141 16.5586 11.1445 16.5586 10.8047V9.79688L16.6289 8.17969L15.8555 9.03516L12.9141 11.9883C12.8203 12.1055 12.6562 12.1523 12.4805 12.1523Z" fill="white"/>
</g>
</g>
<defs>
<clipPath id="clip0_2201_649">
<rect width="23.9062" height="23.918" fill="white"/>
</clipPath>
</defs>
</svg>
