<svg width="23" height="23" viewBox="0 0 23 23" fill="none" xmlns="http://www.w3.org/2000/svg">
<g clip-path="url(#clip0_2207_9463)">
<path d="M5.95727 16.7149C9.34399 20.1016 13.4573 22.7149 16.8206 22.7149C18.3323 22.7149 19.6565 22.1875 20.7229 21.0156C21.344 20.3242 21.7308 19.5156 21.7308 18.7188C21.7308 18.1328 21.5081 17.5703 20.9573 17.1719L17.3596 14.6172C16.8088 14.2422 16.3519 14.0547 15.93 14.0547C15.4026 14.0547 14.9221 14.3594 14.383 14.8867L13.5511 15.7071C13.4222 15.836 13.258 15.8946 13.1058 15.8946C12.9299 15.8946 12.7542 15.8242 12.637 15.7656C11.9104 15.3789 10.6683 14.3125 9.50806 13.1641C8.35962 12.0156 7.29321 10.7735 6.91821 10.0469C6.85962 9.91796 6.78931 9.75391 6.78931 9.57812C6.78931 9.42579 6.83618 9.27343 6.96509 9.14454L7.79712 8.28907C8.31274 7.75 8.62915 7.28126 8.62915 6.74219C8.62915 6.32032 8.42993 5.86329 8.04321 5.3125L5.52368 1.76172C5.11353 1.19922 4.53931 0.953125 3.90649 0.953125C3.13306 0.953125 2.33618 1.30469 1.64477 1.97266C0.508056 3.0625 0.00415039 4.41016 0.00415039 5.89844C0.00415039 9.26171 2.57056 13.3399 5.95727 16.7149Z" fill="black" fill-opacity="0.85"/>
<path d="M13.3635 10.3047C13.5979 10.3047 13.7971 10.2344 13.9729 10.0586L19.0237 4.99609L20.8166 3.05078L20.6291 6.48437V8.23046C20.6291 8.68749 20.9689 9.03906 21.426 9.06249C21.8947 9.08593 22.3049 8.71093 22.3049 8.23046V1.44531C22.3049 0.824219 22.0002 0.507812 21.3791 0.507812H14.5705C14.09 0.507812 13.7033 0.90625 13.7268 1.38671C13.7502 1.84375 14.1135 2.18359 14.5705 2.18359H16.34L19.7853 1.99609L17.8166 3.78906L12.7775 8.85156C12.5783 9.03906 12.4846 9.24999 12.4846 9.49609C12.4846 9.95312 12.8713 10.3047 13.3635 10.3047Z" fill="black" fill-opacity="0.85"/>
</g>
<defs>
<clipPath id="clip0_2207_9463">
<rect width="22.3008" height="22.6055" fill="white" transform="translate(0.00415039 0.109375)"/>
</clipPath>
</defs>
</svg>
