<svg width="28" height="22" viewBox="0 0 28 22" fill="none" xmlns="http://www.w3.org/2000/svg">
<g clip-path="url(#clip0_2207_18985)">
<path d="M26.4699 17.4297L19.5089 10.8906C18.9933 10.4102 18.3722 10.1641 17.7394 10.1641C17.0949 10.1641 16.5207 10.3867 15.9816 10.8672L10.6847 15.6016L8.51673 13.6446C8.02454 13.1992 7.48548 12.9766 6.93469 12.9766C6.40735 12.9766 5.90345 13.1875 5.42298 13.6328L0.958129 17.6641C1.02844 19.7852 1.89563 20.8633 3.64173 20.8633H23.2824C25.4035 20.8633 26.4699 19.6797 26.4699 17.4297ZM3.72376 21.6836H23.9972C26.4582 21.6836 27.6769 20.4766 27.6769 18.0625V3.74219C27.6769 1.32812 26.4582 0.109375 23.9972 0.109375H3.72376C1.27454 0.109375 0.0440674 1.32812 0.0440674 3.74219V18.0625C0.0440674 20.4766 1.27454 21.6836 3.72376 21.6836ZM3.74719 19.7969C2.57532 19.7969 1.93079 19.1758 1.93079 17.9571V3.84766C1.93079 2.62891 2.57532 1.99609 3.74719 1.99609H23.9738C25.1339 1.99609 25.7902 2.62891 25.7902 3.84766V17.9571C25.7902 19.1758 25.1339 19.7969 23.9738 19.7969H3.74719Z" fill="black" fill-opacity="0.85"/>
<path d="M8.77454 11.0078C10.2863 11.0078 11.5285 9.76562 11.5285 8.24218C11.5285 6.73046 10.2863 5.47656 8.77454 5.47656C7.2511 5.47656 6.00891 6.73046 6.00891 8.24218C6.00891 9.76562 7.2511 11.0078 8.77454 11.0078Z" fill="black" fill-opacity="0.85"/>
</g>
<defs>
<clipPath id="clip0_2207_18985">
<rect width="27.6328" height="21.5742" fill="white" transform="translate(0.0440674 0.109375)"/>
</clipPath>
</defs>
</svg>
