<svg width="24" height="25" viewBox="0 0 24 25" fill="none" xmlns="http://www.w3.org/2000/svg">
<g clip-path="url(#clip0_2207_18995)">
<path d="M12.0183 24.0156C18.5574 24.0156 23.9714 18.5899 23.9714 12.0625C23.9714 5.52344 18.5457 0.109375 12.0066 0.109375C5.47925 0.109375 0.0651855 5.52344 0.0651855 12.0625C0.0651855 18.5899 5.49097 24.0156 12.0183 24.0156ZM12.0183 22.0235C6.48707 22.0235 2.0691 17.5938 2.0691 12.0625C2.0691 6.53126 6.47535 2.10157 12.0066 2.10157C17.5379 2.10157 21.9793 6.53126 21.9793 12.0625C21.9793 17.5938 17.5496 22.0235 12.0183 22.0235Z" fill="black" fill-opacity="0.85"/>
<path d="M7.11987 17.2774H16.8933C18.0652 17.2774 18.6511 16.6797 18.6511 15.5313V8.64062C18.6511 7.48046 18.0652 6.90625 16.8933 6.90625H7.11987C5.95971 6.90625 5.36206 7.48046 5.36206 8.64062V15.5313C5.36206 16.6914 5.95971 17.2774 7.11987 17.2774ZM7.16674 16.211C6.69799 16.211 6.42846 15.9297 6.42846 15.4727V14.9571L7.99877 13.6328C8.24487 13.4219 8.5144 13.3047 8.77221 13.3047C9.04174 13.3047 9.32299 13.4219 9.5808 13.6446L10.659 14.6172L13.3543 12.2266C13.6238 11.9922 13.9285 11.8633 14.2566 11.8633C14.5613 11.8633 14.8894 11.9922 15.1472 12.2383L17.5847 14.4532V15.4727C17.5847 15.9297 17.3152 16.211 16.8464 16.211H7.16674ZM9.59252 12.2266C8.81909 12.2266 8.18627 11.6055 8.18627 10.8321C8.18627 10.082 8.81909 9.44921 9.59252 9.44921C10.3425 9.44921 10.9636 10.082 10.9636 10.8321C10.9636 11.6055 10.3425 12.2266 9.59252 12.2266Z" fill="black" fill-opacity="0.85"/>
</g>
<defs>
<clipPath id="clip0_2207_18995">
<rect width="23.9062" height="23.918" fill="white" transform="translate(0.0651855 0.109375)"/>
</clipPath>
</defs>
</svg>
