<svg width="30" height="24" viewBox="0 0 30 24" fill="none" xmlns="http://www.w3.org/2000/svg">
<g clip-path="url(#clip0_2207_19233)">
<path d="M3.75318 18.4258H19.6321C22.0813 18.4258 23.3118 17.2188 23.3118 14.793V3.74219C23.3118 1.32812 22.0813 0.109375 19.6321 0.109375H3.75318C1.29224 0.109375 0.0734863 1.32812 0.0734863 3.74219V14.793C0.0734863 17.2188 1.29224 18.4258 3.75318 18.4258ZM1.96021 14.6992V3.84766C1.96021 2.62891 2.62818 1.99609 3.77661 1.99609H19.5969C20.7571 1.99609 21.4251 2.62891 21.4251 3.84766V14.6992C21.4251 15.918 20.7688 16.5391 19.5969 16.5391H3.77661C2.60474 16.5391 1.96021 15.918 1.96021 14.6992Z" fill="black" fill-opacity="0.85"/>
<path d="M9.54224 23.8516H25.5501C27.9876 23.8516 29.2297 22.6328 29.2297 20.2188V9.16797C29.2297 6.75391 27.9876 5.53516 25.5501 5.53516H9.54224C7.0813 5.53516 5.86255 6.75391 5.86255 9.16797V20.2188C5.86255 22.6446 7.0813 23.8516 9.54224 23.8516Z" fill="white"/>
<path d="M9.54224 23.8516H25.5501C27.9876 23.8516 29.2297 22.6328 29.2297 20.2188V9.16797C29.2297 6.75391 27.9876 5.53516 25.5501 5.53516H9.54224C7.0813 5.53516 5.86255 6.75391 5.86255 9.16797V20.2188C5.86255 22.6446 7.0813 23.8516 9.54224 23.8516ZM9.56568 21.9649C8.3938 21.9649 7.74927 21.3438 7.74927 20.125V9.27344C7.74927 8.05469 8.3938 7.42188 9.56568 7.42188H25.5149C26.6751 7.42188 27.343 8.05469 27.343 9.27344V20.125C27.343 21.3438 26.6751 21.9649 25.5149 21.9649H9.56568ZM9.5774 23.2305H25.2688C27.3079 23.2305 28.3977 22.1992 28.3977 20.1485V19.3985L22.9602 14.2656C22.5032 13.8438 21.9407 13.6328 21.3782 13.6328C20.7923 13.6328 20.2766 13.8203 19.7962 14.2539L15.0618 18.4492L13.1751 16.75C12.7297 16.3399 12.2493 16.1524 11.7454 16.1524C11.2883 16.1524 10.8547 16.3399 10.3977 16.7266L6.44849 20.1602C6.44849 22.1992 7.53833 23.2305 9.5774 23.2305Z" fill="black" fill-opacity="0.85"/>
<path d="M14.2179 14.5235C15.5773 14.5235 16.6906 13.3867 16.6906 12.0156C16.6906 10.668 15.5773 9.53125 14.2179 9.53125C12.8468 9.53125 11.7336 10.668 11.7336 12.0156C11.7336 13.3867 12.8468 14.5235 14.2179 14.5235Z" fill="black" fill-opacity="0.85"/>
</g>
<defs>
<clipPath id="clip0_2207_19233">
<rect width="29.1562" height="23.7539" fill="white" transform="translate(0.0734863 0.109375)"/>
</clipPath>
</defs>
</svg>
