<svg width="24" height="25" viewBox="0 0 24 25" fill="none" xmlns="http://www.w3.org/2000/svg">
<g clip-path="url(#clip0_2207_2313)">
<path d="M12.0014 24.0156C18.5405 24.0156 23.9545 18.5899 23.9545 12.0625C23.9545 5.52344 18.5288 0.109375 11.9897 0.109375C5.4624 0.109375 0.0483398 5.52344 0.0483398 12.0625C0.0483398 18.5899 5.47412 24.0156 12.0014 24.0156ZM12.0014 22.0235C6.47022 22.0235 2.05225 17.5938 2.05225 12.0625C2.05225 6.53126 6.4585 2.10157 11.9897 2.10157C17.521 2.10157 21.9624 6.53126 21.9624 12.0625C21.9624 17.5938 17.5327 22.0235 12.0014 22.0235Z" fill="black" fill-opacity="0.85"/>
<path d="M5.54443 6.55469C5.22803 6.55469 5.01709 6.78907 5.01709 7.10547V17.043C5.01709 17.3594 5.22803 17.5821 5.54443 17.5821H18.435C18.7631 17.5821 18.9741 17.3594 18.9741 17.043V7.10547C18.9741 6.78907 18.7631 6.55469 18.435 6.55469H5.54443ZM5.96631 16.4922V7.64454C5.96631 7.55079 5.98975 7.53907 6.0835 7.53907H17.896C18.0014 7.53907 18.0131 7.55079 18.0131 7.64454V16.4922C18.0131 16.5977 18.0014 16.6094 17.896 16.6094H6.0835C5.98975 16.6094 5.96631 16.5977 5.96631 16.4922ZM6.66943 15.4844C6.66943 15.7539 6.8335 15.918 7.09131 15.918H16.8881C17.1577 15.918 17.31 15.7539 17.31 15.4844V8.65235C17.31 8.39454 17.1577 8.23047 16.8881 8.23047H7.09131C6.8335 8.23047 6.66943 8.39454 6.66943 8.65235V15.4844ZM7.41943 14.125V9.02735C7.41943 8.98047 7.43115 8.98047 7.45459 8.98047H16.5249C16.5717 8.98047 16.56 8.98047 16.56 9.02735V14.1367L14.1928 11.9219C13.9819 11.7344 13.7241 11.6289 13.4663 11.6289C13.185 11.6289 12.9506 11.711 12.728 11.8985L10.7592 13.6797L9.97412 12.9766C9.78662 12.8008 9.54053 12.6953 9.31787 12.6953C9.0835 12.6953 8.88428 12.8008 8.68506 12.9649L7.41943 14.125ZM8.87256 10.9727C8.87256 11.5938 9.38818 12.1094 10.021 12.1094C10.6538 12.1094 11.1694 11.5938 11.1694 10.9727C11.1694 10.3282 10.6538 9.82422 10.021 9.82422C9.38818 9.82422 8.87256 10.3282 8.87256 10.9727Z" fill="black" fill-opacity="0.85"/>
</g>
<defs>
<clipPath id="clip0_2207_2313">
<rect width="23.9062" height="23.918" fill="white" transform="translate(0.0483398 0.109375)"/>
</clipPath>
</defs>
</svg>
