<svg width="28" height="22" viewBox="0 0 28 22" fill="none" xmlns="http://www.w3.org/2000/svg">
<g clip-path="url(#clip0_2207_18990)">
<path d="M3.77246 19.8086C2.63575 19.8086 1.95606 19.1289 1.95606 17.9805V17.2656L5.55372 14.125C6.06934 13.668 6.63184 13.4336 7.14746 13.4336C7.72168 13.4336 8.31934 13.668 8.83496 14.1485L11.0732 16.1641L16.6748 11.1953C17.249 10.6797 17.8935 10.4453 18.5615 10.4453C19.206 10.4453 19.874 10.6914 20.4248 11.2071L25.8154 16.1992V18.0039C25.8154 19.1289 25.124 19.8086 24.0107 19.8086H3.77246ZM3.74903 21.6836H24.0224C26.4834 21.6836 27.7021 20.4766 27.7021 18.0625V3.74219C27.7021 1.32812 26.4834 0.109375 24.0224 0.109375H3.74903C1.29981 0.109375 0.0693359 1.32812 0.0693359 3.74219V18.0625C0.0693359 20.4766 1.29981 21.6836 3.74903 21.6836Z" fill="black" fill-opacity="0.85"/>
<path d="M8.8584 11.1953C7.26465 11.1953 5.96387 9.89453 5.96387 8.30078C5.96387 6.71875 7.26465 5.40625 8.8584 5.40625C10.4404 5.40625 11.7412 6.71875 11.7412 8.30078C11.7412 9.89453 10.4404 11.1953 8.8584 11.1953Z" fill="white"/>
</g>
<defs>
<clipPath id="clip0_2207_18990">
<rect width="27.6328" height="21.5742" fill="white" transform="translate(0.0693359 0.109375)"/>
</clipPath>
</defs>
</svg>
