<svg width="28" height="22" viewBox="0 0 28 22" fill="none" xmlns="http://www.w3.org/2000/svg">
<g clip-path="url(#clip0_2207_10433)">
<path d="M5.27759 11.5469V0.132812H9.16821V11.5469C9.16821 12.4024 8.64087 12.7305 8.07837 12.7305H7.77368V21.7071H6.68384V12.7305H6.37915C5.81665 12.7305 5.27759 12.4024 5.27759 11.5469ZM11.9573 11.5469V0.132812H15.8479V11.5469C15.8479 12.4024 15.3206 12.7305 14.7581 12.7305H14.4534V21.7071H13.3635V12.7305H13.0471C12.4964 12.7305 11.9573 12.4024 11.9573 11.5469ZM18.637 11.5469V0.132812H22.5276V11.5469C22.5276 12.4024 22.0003 12.7305 21.4378 12.7305H21.1331V21.7071H20.0432V12.7305H19.7268C19.1643 12.7305 18.637 12.4024 18.637 11.5469ZM3.76587 21.6953H24.0393C26.5003 21.6953 27.719 20.4883 27.719 18.0742V3.75391C27.719 1.33984 26.5003 0.121094 24.0393 0.121094H3.76587C1.31665 0.121094 0.0861816 1.33984 0.0861816 3.75391V18.0742C0.0861816 20.4883 1.31665 21.6953 3.76587 21.6953Z" fill="black" fill-opacity="0.85"/>
</g>
<defs>
<clipPath id="clip0_2207_10433">
<rect width="27.6328" height="21.5977" fill="white" transform="translate(0.0861816 0.109375)"/>
</clipPath>
</defs>
</svg>
