<svg width="25" height="25" viewBox="0 0 25 25" fill="none" xmlns="http://www.w3.org/2000/svg">
<g clip-path="url(#clip0_2207_17927)">
<path d="M12.0517 24.0156C18.5908 24.0156 24.0048 18.5899 24.0048 12.0625C24.0048 5.52344 18.5791 0.109375 12.04 0.109375C5.51269 0.109375 0.0986328 5.52344 0.0986328 12.0625C0.0986328 18.5899 5.52441 24.0156 12.0517 24.0156ZM12.0517 22.0235C6.52051 22.0235 2.10254 17.5938 2.10254 12.0625C2.10254 6.53126 6.50879 2.10157 12.04 2.10157C17.5713 2.10157 22.0127 6.53126 22.0127 12.0625C22.0127 17.5938 17.583 22.0235 12.0517 22.0235Z" fill="black" fill-opacity="0.85"/>
<path d="M11.876 12.1446L13.7979 10.2461C14.9464 9.12113 14.9581 7.63285 13.8565 6.56644C12.7549 5.46488 11.2901 5.48832 10.1651 6.62503L8.2667 8.52347L11.876 12.1446ZM11.2081 12.8242L7.58701 9.20316L5.67685 11.125C4.55185 12.2735 4.5167 13.7383 5.59482 14.8282C6.69639 15.9063 8.16123 15.8711 9.28623 14.7461L11.2081 12.8242ZM18.8721 14.3711C18.6612 12.836 17.3253 11.6406 15.6964 11.6406C14.0909 11.6406 12.7549 12.836 12.5323 14.3711H18.8721ZM18.8721 15.3203H12.5323C12.7549 16.8438 14.0909 18.0391 15.6964 18.0391C17.337 18.0391 18.6612 16.8438 18.8721 15.3203Z" fill="black" fill-opacity="0.85"/>
</g>
<defs>
<clipPath id="clip0_2207_17927">
<rect width="23.9062" height="23.918" fill="white" transform="translate(0.0986328 0.109375)"/>
</clipPath>
</defs>
</svg>
