<svg width="28" height="25" viewBox="0 0 28 25" fill="none" xmlns="http://www.w3.org/2000/svg">
<g clip-path="url(#clip0_2207_17922)">
<path d="M27.6108 17.1376C27.2006 14.1611 24.6342 11.8525 21.5288 11.8525C18.4233 11.8525 15.8686 14.1611 15.4584 17.1376H27.6108ZM27.6108 18.8486H15.4584C15.8803 21.8369 18.4233 24.1455 21.5288 24.1455C24.6577 24.1455 27.2006 21.8369 27.6108 18.8486Z" fill="black" fill-opacity="0.85"/>
<path d="M13.5366 12.8837L17.2163 9.204C19.4077 7.02431 19.4428 4.20009 17.3569 2.12587C15.2592 0.0399377 12.4467 0.0985315 10.2788 2.2665L6.59907 5.94619L13.5366 12.8837ZM12.3061 14.1259L5.35688 7.17666L1.67719 10.8681C-0.514215 13.0478 -0.549371 15.872 1.53657 17.9461C3.63422 20.0322 6.44672 19.9853 8.61469 17.8173L12.3061 14.1259Z" fill="black" fill-opacity="0.85"/>
</g>
<defs>
<clipPath id="clip0_2207_17922">
<rect width="27.6086" height="24.0352" fill="white" transform="translate(0.00219727 0.110352)"/>
</clipPath>
</defs>
</svg>
