<svg width="24" height="25" viewBox="0 0 24 25" fill="none" xmlns="http://www.w3.org/2000/svg">
<g clip-path="url(#clip0_2207_17913)">
<path d="M12.0454 24.0274C18.5845 24.0274 23.9985 18.6133 23.9985 12.0742C23.9985 5.54688 18.5728 0.121094 12.0337 0.121094C5.50634 0.121094 0.0922852 5.54688 0.0922852 12.0742C0.0922852 18.6133 5.51807 24.0274 12.0454 24.0274Z" fill="black" fill-opacity="0.85"/>
<path d="M17.2368 6.88293C18.6431 8.23058 18.6196 10.0822 17.1665 11.5236L14.6704 14.0197L10.1001 9.43761L12.5845 6.95324C14.0025 5.50011 15.8423 5.51183 17.2368 6.88293ZM6.83054 17.2892C5.45945 15.9298 5.48288 14.0783 6.92429 12.6368L9.40867 10.1407L13.979 14.6993L11.4946 17.1954C10.0649 18.6251 8.21335 18.6486 6.83054 17.2892Z" fill="white"/>
</g>
<defs>
<clipPath id="clip0_2207_17913">
<rect width="23.9062" height="23.918" fill="white" transform="translate(0.0922852 0.109375)"/>
</clipPath>
</defs>
</svg>
