<svg width="24" height="25" viewBox="0 0 24 25" fill="none" xmlns="http://www.w3.org/2000/svg">
<g clip-path="url(#clip0_2207_17932)">
<path d="M11.9531 24.0284C18.4922 24.0284 23.9062 18.6143 23.9062 12.0752C23.9062 5.54785 18.4805 0.12207 11.9414 0.12207C5.41406 0.12207 0 5.54785 0 12.0752C0 18.6143 5.42578 24.0284 11.9531 24.0284Z" fill="black" fill-opacity="0.85"/>
<path d="M11.7891 12.1573L8.06251 8.43069L10.0078 6.46194C11.1797 5.29007 12.6914 5.26663 13.8281 6.40335C14.9648 7.50491 14.9531 9.04007 13.7695 10.2002L11.7891 12.1573ZM11.0977 12.8721L9.1172 14.8409C7.94532 16.001 6.44532 16.0362 5.3086 14.9229C4.19532 13.7979 4.23048 12.2862 5.40235 11.1143L7.35939 9.1221L11.0977 12.8721ZM19.0078 14.4424H12.4688C12.7031 12.8721 14.0742 11.6299 15.7266 11.6299C17.4023 11.6299 18.7852 12.8721 19.0078 14.4424ZM19.0078 15.4268C18.7852 16.9971 17.4141 18.2393 15.7266 18.2393C14.0625 18.2393 12.7031 16.9971 12.4688 15.4268H19.0078Z" fill="white"/>
</g>
<defs>
<clipPath id="clip0_2207_17932">
<rect width="23.9062" height="23.918" fill="white" transform="translate(0 0.110352)"/>
</clipPath>
</defs>
</svg>
