<svg width="24" height="24" viewBox="0 0 24 24" fill="none" xmlns="http://www.w3.org/2000/svg">
<g clip-path="url(#clip0_2207_17900)">
<path d="M1.92018 21.4371C4.40456 23.9098 7.88502 23.9332 10.6389 21.1793L21.174 10.6442C23.9162 7.90196 23.8928 4.4215 21.4201 1.93713C18.9358 -0.535532 15.4553 -0.547251 12.7131 2.19494L2.17799 12.7184C-0.575918 15.4723 -0.552481 18.9528 1.92018 21.4371ZM3.16237 20.2067C1.39284 18.4489 1.61549 15.9879 3.52565 14.0543L14.0373 3.5426C15.9358 1.63244 18.4084 1.4215 20.1897 3.17932C21.9592 4.92541 21.76 7.39806 19.8147 9.33165L9.3147 19.8434C7.41627 21.7418 4.9319 21.9645 3.16237 20.2067ZM7.60377 8.8629L14.5295 15.7887L15.7834 14.5348L8.84595 7.609L7.60377 8.8629Z" fill="black" fill-opacity="0.85"/>
</g>
<defs>
<clipPath id="clip0_2207_17900">
<rect width="23.1655" height="23.1907" fill="white" transform="translate(0.0881348 0.109375)"/>
</clipPath>
</defs>
</svg>
