<svg width="26" height="29" viewBox="0 0 26 29" fill="none" xmlns="http://www.w3.org/2000/svg">
<g clip-path="url(#clip0_2207_12909)">
<path d="M4.24805 17.7471C4.24805 18.7432 4.91602 19.3995 5.9707 19.3995H12.3222V24.8721C12.3222 26.6651 13.0605 28.1534 13.3535 28.1534C13.6464 28.1534 14.3847 26.6651 14.3847 24.8721V19.3995H20.7246C21.7792 19.3995 22.4472 18.7432 22.4472 17.7471C22.4472 15.2745 20.4667 12.6612 17.1738 11.4659L16.7871 6.08691C18.498 5.11426 19.9042 4.01269 20.5136 3.22754C20.83 2.8291 20.9707 2.43066 20.9707 2.0791C20.9707 1.36426 20.4199 0.836914 19.5996 0.836914H7.10742C6.27539 0.836914 5.73633 1.36426 5.73633 2.0791C5.73633 2.43066 5.87695 2.8291 6.19336 3.22754C6.79102 4.01269 8.19727 5.11426 9.9082 6.08691L9.5332 11.4659C6.22852 12.6612 4.24805 15.2745 4.24805 17.7471Z" fill="black" fill-opacity="0.85"/>
<path d="M0.673829 5.03223L21.873 26.2081C22.7636 27.0987 24.2167 27.0987 25.0957 26.1846C25.9628 25.294 25.9628 23.876 25.0839 22.9971L3.89649 1.82129C3.01758 0.930663 1.56445 0.930663 0.673829 1.82129C-0.205078 2.70019 -0.205078 4.16504 0.673829 5.03223Z" fill="white"/>
<path d="M1.64649 4.07131L22.8339 25.2354C23.1972 25.587 23.7715 25.587 24.1113 25.2354C24.4628 24.8838 24.4746 24.3096 24.1113 23.9581L2.93555 2.79396C2.58399 2.4424 1.99805 2.43068 1.64649 2.79396C1.30664 3.13381 1.30664 3.71975 1.64649 4.07131Z" fill="black" fill-opacity="0.85"/>
</g>
<defs>
<clipPath id="clip0_2207_12909">
<rect width="25.73" height="28.043" fill="white" transform="translate(0.0146484 0.110352)"/>
</clipPath>
</defs>
</svg>
