<svg width="31" height="25" viewBox="0 0 31 25" fill="none" xmlns="http://www.w3.org/2000/svg">
<g clip-path="url(#clip0_2207_15117)">
<path d="M3.70069 19.2588H20.7983C23.2476 19.2588 24.4663 18.0401 24.4663 15.626V3.7666C24.4663 1.35254 23.2476 0.133789 20.7983 0.133789H3.70069C1.23975 0.133789 0.0209961 1.35254 0.0209961 3.7666V15.626C0.0209961 18.0401 1.23975 19.2588 3.70069 19.2588ZM1.90772 15.5206V3.87207C1.90772 2.65332 2.55225 2.02051 3.72412 2.02051H20.7632C21.9233 2.02051 22.5796 2.65332 22.5796 3.87207V15.5206C22.5796 16.7393 21.9351 17.3721 20.7632 17.3721H3.72412C2.57569 17.3721 1.90772 16.7393 1.90772 15.5206Z" fill="black" fill-opacity="0.85"/>
<path d="M15.1968 24.6846H26.7163C29.1538 24.6846 30.3843 23.4659 30.3843 21.0518V13.4581C30.3843 11.044 29.1538 9.8252 26.7163 9.8252H15.1968C12.7476 9.8252 11.5171 11.0323 11.5171 13.4581V21.0518C11.5171 23.4659 12.7476 24.6846 15.1968 24.6846Z" fill="white"/>
<path d="M15.1968 24.6846H26.7163C29.1538 24.6846 30.3843 23.4659 30.3843 21.0518V13.4581C30.3843 11.044 29.1538 9.8252 26.7163 9.8252H15.1968C12.7476 9.8252 11.5171 11.0323 11.5171 13.4581V21.0518C11.5171 23.4659 12.7476 24.6846 15.1968 24.6846ZM15.2202 22.7979C14.0483 22.7979 13.4038 22.1651 13.4038 20.9463V13.5518C13.4038 12.3331 14.0483 11.712 15.2202 11.712H26.6812C27.8413 11.712 28.4976 12.3331 28.4976 13.5518V20.9463C28.4976 22.1651 27.8413 22.7979 26.6812 22.7979H15.2202Z" fill="black" fill-opacity="0.85"/>
</g>
<defs>
<clipPath id="clip0_2207_15117">
<rect width="30.3633" height="24.5742" fill="white" transform="translate(0.0209961 0.110352)"/>
</clipPath>
</defs>
</svg>
