<svg width="31" height="25" viewBox="0 0 31 25" fill="none" xmlns="http://www.w3.org/2000/svg">
<g clip-path="url(#clip0_2207_15151)">
<path d="M3.70911 19.2588H20.8067C23.256 19.2588 24.4747 18.0401 24.4747 15.626V3.7666C24.4747 1.35254 23.256 0.133789 20.8067 0.133789H3.70911C1.24817 0.133789 0.0294189 1.35254 0.0294189 3.7666V15.626C0.0294189 18.0401 1.24817 19.2588 3.70911 19.2588ZM1.91614 15.5206V3.87207C1.91614 2.65332 2.56067 2.02051 3.73254 2.02051H20.7716C21.9317 2.02051 22.588 2.65332 22.588 3.87207V15.5206C22.588 16.7393 21.9435 17.3721 20.7716 17.3721H3.73254C2.58411 17.3721 1.91614 16.7393 1.91614 15.5206Z" fill="black" fill-opacity="0.85"/>
<path d="M15.2052 24.6846H26.7247C29.1622 24.6846 30.3927 23.4659 30.3927 21.0518V13.4581C30.3927 11.044 29.1622 9.8252 26.7247 9.8252H15.2052C12.756 9.8252 11.5255 11.0323 11.5255 13.4581V21.0518C11.5255 23.4659 12.756 24.6846 15.2052 24.6846Z" fill="white"/>
<path d="M15.2052 24.6846H26.7247C29.1622 24.6846 30.3927 23.4659 30.3927 21.0518V13.4581C30.3927 11.044 29.1622 9.8252 26.7247 9.8252H15.2052C12.756 9.8252 11.5255 11.0323 11.5255 13.4581V21.0518C11.5255 23.4659 12.756 24.6846 15.2052 24.6846Z" fill="black" fill-opacity="0.85"/>
<path d="M17.7716 21.3799C17.2442 21.3799 16.8224 20.9581 16.8224 20.4307C16.8224 20.1846 16.9396 19.962 17.1153 19.7862L19.6232 17.2549L17.1153 14.7237C16.9396 14.5362 16.8224 14.3252 16.8224 14.0674C16.8224 13.5518 17.2442 13.1416 17.7716 13.1416C18.0294 13.1416 18.2286 13.2471 18.4161 13.4229L20.9474 15.9424L23.5021 13.4112C23.7013 13.2237 23.9122 13.1182 24.1583 13.1182C24.6739 13.1182 25.0958 13.5401 25.0958 14.0557C25.0958 14.3135 25.0021 14.5127 24.8146 14.712L22.2833 17.2549L24.8028 19.7745C24.9786 19.9502 25.0841 20.1729 25.0841 20.4307C25.0841 20.9581 24.6622 21.3799 24.1466 21.3799C23.8771 21.3799 23.6427 21.2745 23.4669 21.0987L20.9474 18.5792L18.4396 21.0987C18.2638 21.2862 18.0294 21.3799 17.7716 21.3799Z" fill="white"/>
</g>
<defs>
<clipPath id="clip0_2207_15151">
<rect width="30.3633" height="24.5742" fill="white" transform="translate(0.0294189 0.110352)"/>
</clipPath>
</defs>
</svg>
