<svg width="29" height="26" viewBox="0 0 29 26" fill="none" xmlns="http://www.w3.org/2000/svg">
<g clip-path="url(#clip0_2207_12046)">
<path d="M2.43591 14.2432H3.91248C5.50623 14.2432 6.3031 13.4698 6.3031 11.9112V4.03613C6.3031 2.47754 5.50623 1.7041 3.91248 1.7041H2.43591C0.830444 1.7041 0.0335693 2.47754 0.0335693 4.03613V11.9112C0.0335693 13.4698 0.830444 14.2432 2.43591 14.2432ZM2.43591 12.4737C2.01404 12.4737 1.8031 12.2627 1.8031 11.8292V4.11816C1.8031 3.68457 2.01404 3.47363 2.43591 3.47363H3.91248C4.32263 3.47363 4.53357 3.68457 4.53357 4.11816V11.8292C4.53357 12.2627 4.32263 12.4737 3.91248 12.4737H2.43591ZM24.4555 14.2432H25.9203C27.5375 14.2432 28.3227 13.4698 28.3227 11.9112V4.03613C28.3227 2.47754 27.5375 1.7041 25.9203 1.7041H24.4555C22.85 1.7041 22.0531 2.47754 22.0531 4.03613V11.9112C22.0531 13.4698 22.85 14.2432 24.4555 14.2432ZM24.4555 12.4737C24.0336 12.4737 23.8227 12.2627 23.8227 11.8292V4.11816C23.8227 3.68457 24.0336 3.47363 24.4555 3.47363H25.9203C26.3422 3.47363 26.5531 3.68457 26.5531 4.11816V11.8292C26.5531 12.2627 26.3422 12.4737 25.9203 12.4737H24.4555ZM5.43591 6.16894H22.932V4.45801H5.43591V6.16894ZM5.43591 11.419H22.932V9.70801H5.43591V11.419Z" fill="black" fill-opacity="0.85"/>
<path d="M14.1898 25.7392C17.975 25.7392 21.0336 22.7626 21.0336 19.0244C21.0336 17.0556 20.0727 15.2041 19.4047 13.9384L16.7445 9.02832C16.1703 7.93847 15.2914 7.36426 14.1898 7.36426C13.0766 7.36426 12.2211 7.95019 11.6234 9.02832L8.98669 13.9501C8.31873 15.2041 7.35779 17.0556 7.35779 19.0244C7.35779 22.7626 10.4164 25.7392 14.1898 25.7392Z" fill="white"/>
<path d="M14.1898 24.1455C17.1078 24.1455 19.4281 21.872 19.4281 19.0244C19.4281 17.4658 18.643 15.9189 17.9867 14.7001L15.35 9.79004C15.0453 9.22754 14.7055 8.96973 14.1898 8.96973C13.6742 8.96973 13.3344 9.22754 13.0297 9.77832L10.4047 14.7001C9.74841 15.9189 8.96326 17.4658 8.96326 19.0244C8.96326 21.872 11.2836 24.1455 14.1898 24.1455ZM14.1898 22.4814C12.2094 22.4814 10.6274 20.958 10.6274 19.0244C10.6274 17.8408 11.225 16.7041 11.8813 15.4736L14.0727 11.3837C14.143 11.2665 14.2602 11.2665 14.3305 11.3837L16.5102 15.4736C17.1547 16.7041 17.7641 17.8408 17.7641 19.0244C17.7641 20.958 16.182 22.4814 14.1898 22.4814Z" fill="black" fill-opacity="0.85"/>
</g>
<defs>
<clipPath id="clip0_2207_12046">
<rect width="28.2891" height="25.6289" fill="white" transform="translate(0.0335693 0.110352)"/>
</clipPath>
</defs>
</svg>
