<svg width="29" height="26" viewBox="0 0 29 26" fill="none" xmlns="http://www.w3.org/2000/svg">
<g clip-path="url(#clip0_2207_12052)">
<path d="M2.20361 14.2432H4.14892C5.53173 14.2432 6.30517 13.4932 6.30517 12.1456V3.80176C6.30517 2.4541 5.53173 1.7041 4.14892 1.7041H2.20361C0.809083 1.7041 0.0356445 2.4541 0.0356445 3.80176V12.1456C0.0356445 13.4932 0.809083 14.2432 2.20361 14.2432ZM5.43798 11.419H22.934V4.45801H5.43798V11.419ZM24.2231 14.2432H26.1567C27.5629 14.2432 28.3247 13.4932 28.3247 12.1456V3.80176C28.3247 2.4541 27.5629 1.7041 26.1567 1.7041H24.2231C22.8286 1.7041 22.0551 2.4541 22.0551 3.80176V12.1456C22.0551 13.4932 22.8286 14.2432 24.2231 14.2432Z" fill="black" fill-opacity="0.85"/>
<path d="M14.1918 25.7392C17.977 25.7392 21.0356 22.7626 21.0356 19.0244C21.0356 17.0556 20.0747 15.2041 19.4067 13.9384L16.7465 9.02832C16.1723 7.93847 15.2934 7.36426 14.1918 7.36426C13.0786 7.36426 12.2231 7.95019 11.6254 9.02832L8.98876 13.9501C8.3208 15.2041 7.35986 17.0556 7.35986 19.0244C7.35986 22.7626 10.4184 25.7392 14.1918 25.7392Z" fill="white"/>
<path d="M14.1918 24.1455C17.1098 24.1455 19.4301 21.872 19.4301 19.0244C19.4301 17.4658 18.645 15.9189 17.9887 14.7001L15.352 9.79004C15.0473 9.22754 14.7075 8.96973 14.1918 8.96973C13.6762 8.96973 13.3364 9.22754 13.0317 9.77832L10.4067 14.7001C9.75048 15.9189 8.96533 17.4658 8.96533 19.0244C8.96533 21.872 11.2856 24.1455 14.1918 24.1455Z" fill="black" fill-opacity="0.85"/>
</g>
<defs>
<clipPath id="clip0_2207_12052">
<rect width="28.2891" height="25.6289" fill="white" transform="translate(0.0356445 0.110352)"/>
</clipPath>
</defs>
</svg>
