<svg width="16" height="25" viewBox="0 0 16 25" fill="none" xmlns="http://www.w3.org/2000/svg">
<g clip-path="url(#clip0_2207_13695)">
<path d="M0.050415 21.8721C0.050415 23.7002 1.32776 24.919 3.23792 24.919H11.9215C13.8316 24.919 15.109 23.7002 15.109 21.8721V3.15723C15.109 1.3291 13.8316 0.110352 11.9215 0.110352H3.23792C1.32776 0.110352 0.050415 1.3291 0.050415 3.15723V21.8721ZM1.93713 21.5674V3.46191C1.93713 2.52441 2.48792 1.99707 3.484 1.99707H11.6871C12.6715 1.99707 13.2223 2.52441 13.2223 3.46191V21.5674C13.2223 22.5049 12.6715 23.0323 11.6871 23.0323H3.484C2.48792 23.0323 1.93713 22.5049 1.93713 21.5674Z" fill="black" fill-opacity="0.85"/>
<path d="M4.45666 13.9268C4.45666 14.0909 4.49182 14.2549 4.609 14.3721L7.09338 16.8331C7.234 16.9737 7.40979 17.0556 7.58557 17.0556C7.74963 17.0556 7.92541 16.9737 8.06603 16.8331L10.5504 14.3721C10.6676 14.2549 10.7145 14.0909 10.7145 13.9268C10.7145 13.5518 10.4566 13.3057 10.0934 13.3057C9.90588 13.294 9.76525 13.376 9.63635 13.4932L8.81603 14.3135L8.1715 15.1221L8.21838 13.6221V10.3174C8.21838 9.9541 7.96057 9.68457 7.58557 9.68457C7.21057 9.68457 6.94103 9.9541 6.94103 10.3174V13.6221L6.99963 15.1221L6.3551 14.3135L5.52307 13.4932C5.39416 13.376 5.25353 13.294 5.06603 13.3057C4.71447 13.3057 4.45666 13.5518 4.45666 13.9268ZM4.4801 21.544H10.691C11.3121 21.544 11.734 21.1221 11.734 20.4776V19.0831C11.734 18.4268 11.3121 18.0166 10.691 18.0166H4.4801C3.84729 18.0166 3.43713 18.4268 3.43713 19.0831V20.4776C3.43713 21.1221 3.84729 21.544 4.4801 21.544Z" fill="black" fill-opacity="0.85"/>
</g>
<defs>
<clipPath id="clip0_2207_13695">
<rect width="15.0586" height="24.832" fill="white" transform="translate(0.050415 0.110352)"/>
</clipPath>
</defs>
</svg>
