<svg width="22" height="23" viewBox="0 0 22 23" fill="none" xmlns="http://www.w3.org/2000/svg">
<g clip-path="url(#clip0_2207_14154)">
<path d="M5.31421 22.5284H14.2439C17.5369 22.5284 19.5056 20.5245 19.5056 17.1729V5.48926C19.5056 2.13769 17.5369 0.145508 14.2439 0.145508H5.31421C2.02124 0.145508 0.0524902 2.13769 0.0524902 5.48926V17.1729C0.0524902 20.5245 2.02124 22.5284 5.31421 22.5284ZM5.23218 20.6416C3.16968 20.6416 1.93921 19.3877 1.93921 17.2549V5.46582C1.93921 3.34473 3.16968 2.09082 5.23218 2.09082H14.3259C16.4002 2.09082 17.6189 3.34473 17.6189 5.46582V17.2549C17.6189 19.3877 16.4002 20.6416 14.3259 20.6416H5.23218ZM19.2947 10.1064H19.822C20.572 10.1064 21.0525 9.59082 21.0525 8.78223V6.82519C21.0525 5.99316 20.572 5.47754 19.822 5.47754H19.2947V10.1064Z" fill="black" fill-opacity="0.85"/>
<path d="M3.4978 17.4072C3.4978 18.4384 4.09546 19.0712 5.07983 19.0712H14.49C15.4627 19.0712 16.0603 18.4384 16.0603 17.4072V15.3447C16.0603 14.3369 15.4392 13.6689 14.49 13.6689H5.07983C4.1189 13.6689 3.4978 14.3369 3.4978 15.3447V17.4072Z" fill="black" fill-opacity="0.85"/>
</g>
<defs>
<clipPath id="clip0_2207_14154">
<rect width="21" height="22.418" fill="white" transform="translate(0.0524902 0.110352)"/>
</clipPath>
</defs>
</svg>
