<svg width="16" height="25" viewBox="0 0 16 25" fill="none" xmlns="http://www.w3.org/2000/svg">
<g clip-path="url(#clip0_2207_13685)">
<path d="M0.0546875 21.8721C0.0546875 23.7002 1.33203 24.919 3.24219 24.919H11.9258C13.8359 24.919 15.1133 23.7002 15.1133 21.8721V3.15723C15.1133 1.3291 13.8359 0.110352 11.9258 0.110352H3.24219C1.33203 0.110352 0.0546875 1.3291 0.0546875 3.15723V21.8721ZM1.94141 21.5674V3.46191C1.94141 2.52441 2.49219 1.99707 3.48828 1.99707H11.6914C12.6758 1.99707 13.2266 2.52441 13.2266 3.46191V21.5674C13.2266 22.5049 12.6758 23.0323 11.6914 23.0323H3.48828C2.49219 23.0323 1.94141 22.5049 1.94141 21.5674Z" fill="black" fill-opacity="0.85"/>
<path d="M4.48438 21.544H10.6953C11.3164 21.544 11.7383 21.1221 11.7383 20.4776V19.0831C11.7383 18.4268 11.3164 18.0166 10.6953 18.0166H4.48438C3.85157 18.0166 3.44141 18.4268 3.44141 19.0831V20.4776C3.44141 21.1221 3.85157 21.544 4.48438 21.544Z" fill="black" fill-opacity="0.85"/>
</g>
<defs>
<clipPath id="clip0_2207_13685">
<rect width="15.0586" height="24.832" fill="white" transform="translate(0.0546875 0.110352)"/>
</clipPath>
</defs>
</svg>
