<svg width="16" height="25" viewBox="0 0 16 25" fill="none" xmlns="http://www.w3.org/2000/svg">
<g clip-path="url(#clip0_2207_13680)">
<path d="M0.0610352 21.8721C0.0610352 23.7002 1.33838 24.919 3.24854 24.919H11.9321C13.8422 24.919 15.1196 23.7002 15.1196 21.8721V3.15723C15.1196 1.3291 13.8422 0.110352 11.9321 0.110352H3.24854C1.33838 0.110352 0.0610352 1.3291 0.0610352 3.15723V21.8721ZM1.94776 21.5674V3.46191C1.94776 2.52441 2.49854 1.99707 3.49463 1.99707H11.6977C12.6821 1.99707 13.2329 2.52441 13.2329 3.46191V21.5674C13.2329 22.5049 12.6821 23.0323 11.6977 23.0323H3.49463C2.49854 23.0323 1.94776 22.5049 1.94776 21.5674Z" fill="black" fill-opacity="0.85"/>
<path d="M4.49072 7.01269H10.7016C11.3227 7.01269 11.7446 6.60254 11.7446 5.94629V4.55176C11.7446 3.90723 11.3227 3.48535 10.7016 3.48535H4.49072C3.85791 3.48535 3.44775 3.90723 3.44775 4.55176V5.94629C3.44775 6.60254 3.85791 7.01269 4.49072 7.01269Z" fill="black" fill-opacity="0.85"/>
</g>
<defs>
<clipPath id="clip0_2207_13680">
<rect width="15.0586" height="24.832" fill="white" transform="translate(0.0610352 0.110352)"/>
</clipPath>
</defs>
</svg>
