<svg width="25" height="16" viewBox="0 0 25 16" fill="none" xmlns="http://www.w3.org/2000/svg">
<g clip-path="url(#clip0_2207_13705)">
<path d="M3.09302 15.1924H21.8078C23.6359 15.1924 24.8664 13.9034 24.8664 11.9932V3.29785C24.8664 1.38769 23.6477 0.110352 21.8195 0.110352H3.10473C1.27661 0.110352 0.0461426 1.38769 0.0461426 3.29785V11.9932C0.0461426 13.9034 1.26489 15.1924 3.09302 15.1924ZM3.3977 13.3057C2.4602 13.3057 1.93286 12.7432 1.93286 11.7588V3.54394C1.93286 2.55957 2.4602 1.99707 3.3977 1.99707H21.5149C22.4523 1.99707 22.9797 2.55957 22.9797 3.54394V11.7588C22.9797 12.7432 22.4523 13.3057 21.5031 13.3057H3.3977Z" fill="black" fill-opacity="0.85"/>
<path d="M5.24926 9.87207H10.4289C11.0617 9.87207 11.4719 9.46191 11.4719 8.80566V6.47363C11.4719 5.8291 11.0617 5.40723 10.4289 5.40723H5.24926C4.62817 5.40723 4.2063 5.8291 4.2063 6.47363V8.80566C4.2063 9.46191 4.62817 9.87207 5.24926 9.87207ZM14.4836 9.87207H19.6633C20.2844 9.87207 20.7063 9.46191 20.7063 8.80566V6.47363C20.7063 5.8291 20.2844 5.40723 19.6633 5.40723H14.4836C13.8625 5.40723 13.4406 5.8291 13.4406 6.47363V8.80566C13.4406 9.46191 13.8625 9.87207 14.4836 9.87207Z" fill="black" fill-opacity="0.85"/>
</g>
<defs>
<clipPath id="clip0_2207_13705">
<rect width="24.8203" height="15.1055" fill="white" transform="translate(0.0461426 0.110352)"/>
</clipPath>
</defs>
</svg>
