<svg width="28" height="22" viewBox="0 0 28 22" fill="none" xmlns="http://www.w3.org/2000/svg">
<g clip-path="url(#clip0_2207_13872)">
<path d="M3.72168 21.7081H23.9951C26.4561 21.7081 27.6748 20.4893 27.6748 18.0752V3.7666C27.6748 1.35254 26.4561 0.133789 23.9951 0.133789H3.72168C1.27246 0.133789 0.0419922 1.34082 0.0419922 3.7666V18.0752C0.0419922 20.501 1.27246 21.7081 3.72168 21.7081ZM3.74511 19.8213C2.57324 19.8213 1.92871 19.2002 1.92871 17.9815V3.86035C1.92871 2.6416 2.57324 2.02051 3.74511 2.02051H23.9717C25.1318 2.02051 25.7881 2.6416 25.7881 3.86035V17.9815C25.7881 19.2002 25.1318 19.8213 23.9717 19.8213H3.74511Z" fill="black" fill-opacity="0.85"/>
<path d="M5.19824 13.7042H11.667C12.2881 13.7042 12.71 13.2823 12.71 12.6377V9.20411C12.71 8.54786 12.2881 8.1377 11.667 8.1377H5.19824C4.56543 8.1377 4.15527 8.54786 4.15527 9.20411V12.6377C4.15527 13.2823 4.56543 13.7042 5.19824 13.7042ZM15.8154 13.7042H22.2959C22.917 13.7042 23.3389 13.2823 23.3389 12.6377V9.20411C23.3389 8.54786 22.917 8.1377 22.2959 8.1377H15.8154C15.1943 8.1377 14.7725 8.54786 14.7725 9.20411V12.6377C14.7725 13.2823 15.1943 13.7042 15.8154 13.7042Z" fill="black" fill-opacity="0.85"/>
</g>
<defs>
<clipPath id="clip0_2207_13872">
<rect width="27.6328" height="21.5977" fill="white" transform="translate(0.0419922 0.110352)"/>
</clipPath>
</defs>
</svg>
