<svg width="24" height="25" viewBox="0 0 24 25" fill="none" xmlns="http://www.w3.org/2000/svg">
<g clip-path="url(#clip0_2207_5058)">
<path d="M12.0202 24.0166C18.5593 24.0166 23.9733 18.5909 23.9733 12.0635C23.9733 5.52441 18.5476 0.110352 12.0085 0.110352C5.4812 0.110352 0.0671387 5.52441 0.0671387 12.0635C0.0671387 18.5909 5.49292 24.0166 12.0202 24.0166ZM12.0202 22.0245C6.48902 22.0245 2.07105 17.5948 2.07105 12.0635C2.07105 6.53223 6.4773 2.10254 12.0085 2.10254C17.5398 2.10254 21.9812 6.53223 21.9812 12.0635C21.9812 17.5948 17.5515 22.0245 12.0202 22.0245Z" fill="black" fill-opacity="0.85"/>
<path d="M9.82886 16.6455L16.4968 12.6962C16.989 12.415 16.9773 11.7353 16.4968 11.4423L9.82886 7.49314C9.32495 7.20017 8.65698 7.42283 8.65698 7.99705V16.1415C8.65698 16.7041 9.27808 16.9736 9.82886 16.6455Z" fill="black" fill-opacity="0.85"/>
</g>
<defs>
<clipPath id="clip0_2207_5058">
<rect width="23.9062" height="23.918" fill="white" transform="translate(0.0671387 0.110352)"/>
</clipPath>
</defs>
</svg>
