<svg width="24" height="25" viewBox="0 0 24 25" fill="none" xmlns="http://www.w3.org/2000/svg">
<g clip-path="url(#clip0_2207_5182)">
<path d="M11.9677 24.018C18.5068 24.018 23.9208 18.5923 23.9208 12.0649C23.9208 5.52588 18.4951 0.111816 11.956 0.111816C5.42871 0.111816 0.0146484 5.52588 0.0146484 12.0649C0.0146484 18.5923 5.44043 24.018 11.9677 24.018ZM11.9677 22.0259C6.43653 22.0259 2.01856 17.5962 2.01856 12.0649C2.01856 6.5337 6.42481 2.10401 11.956 2.10401C17.4873 2.10401 21.9287 6.5337 21.9287 12.0649C21.9287 17.5962 17.499 22.0259 11.9677 22.0259Z" fill="black" fill-opacity="0.85"/>
<path d="M5.62793 16.4711L11.4756 12.6859C11.9327 12.3695 11.9327 11.7719 11.4756 11.4789L5.62793 7.6703C5.14746 7.36562 4.50293 7.62343 4.50293 8.16249V15.9906C4.50293 16.5414 5.11231 16.7992 5.62793 16.4711ZM13.4912 16.4594H14.5928C15.1553 16.4594 15.4014 16.1547 15.4014 15.7211V8.40859C15.4014 7.96327 15.1553 7.6703 14.5928 7.6703H13.4912C12.9404 7.6703 12.6709 7.96327 12.6709 8.40859V15.7211C12.6709 16.1547 12.9404 16.4594 13.4912 16.4594ZM17.5576 16.4594H18.6592C19.1983 16.4594 19.4561 16.1547 19.4561 15.7211V8.40859C19.4561 7.96327 19.1983 7.6703 18.6592 7.6703H17.5576C17.0068 7.6703 16.7374 7.96327 16.7374 8.40859V15.7211C16.7374 16.1547 17.0068 16.4594 17.5576 16.4594Z" fill="black" fill-opacity="0.85"/>
</g>
<defs>
<clipPath id="clip0_2207_5182">
<rect width="23.9062" height="23.918" fill="white" transform="translate(0.0146484 0.111816)"/>
</clipPath>
</defs>
</svg>
