<svg width="28" height="22" viewBox="0 0 28 22" fill="none" xmlns="http://www.w3.org/2000/svg">
<g clip-path="url(#clip0_2207_5083)">
<path d="M3.76587 21.6846H24.0393C26.5003 21.6846 27.719 20.4776 27.719 18.0635V3.74316C27.719 1.3291 26.5003 0.110352 24.0393 0.110352H3.76587C1.31665 0.110352 0.0861816 1.3291 0.0861816 3.74316V18.0635C0.0861816 20.4776 1.31665 21.6846 3.76587 21.6846Z" fill="black" fill-opacity="0.85"/>
<path d="M11.676 15.6259C11.1253 15.9658 10.469 15.6962 10.469 15.1103V6.70799C10.469 6.13377 11.1721 5.88767 11.676 6.19236L18.5667 10.2705C19.0589 10.5634 19.0706 11.2665 18.5667 11.5712L11.676 15.6259Z" fill="white"/>
</g>
<defs>
<clipPath id="clip0_2207_5083">
<rect width="27.6328" height="21.5742" fill="white" transform="translate(0.0861816 0.110352)"/>
</clipPath>
</defs>
</svg>
