<svg width="24" height="25" viewBox="0 0 24 25" fill="none" xmlns="http://www.w3.org/2000/svg">
<g clip-path="url(#clip0_2207_7273)">
<path d="M12.0434 24.0166C18.5825 24.0166 23.9965 18.5909 23.9965 12.0635C23.9965 5.52441 18.5708 0.110352 12.0317 0.110352C5.50439 0.110352 0.090332 5.52441 0.090332 12.0635C0.090332 18.5909 5.51611 24.0166 12.0434 24.0166ZM12.0434 22.0245C6.51221 22.0245 2.09424 17.5948 2.09424 12.0635C2.09424 6.53223 6.50049 2.10254 12.0317 2.10254C17.563 2.10254 22.0044 6.53223 22.0044 12.0635C22.0044 17.5948 17.5747 22.0245 12.0434 22.0245Z" fill="black" fill-opacity="0.85"/>
<path d="M6.8169 15.0986H14.6567C15.7231 15.0986 16.2622 14.5712 16.2622 13.4931V8.00879C16.2622 6.96582 15.7231 6.42676 14.6567 6.42676H6.8169C5.73878 6.42676 5.21143 6.96582 5.21143 8.00879V13.4931C5.21143 14.5712 5.73878 15.0986 6.8169 15.0986Z" fill="black" fill-opacity="0.85"/>
<path d="M9.39502 18.2626H17.2231C18.6997 18.2626 19.5786 17.4189 19.5786 15.9306V10.4462C19.5786 8.98144 18.7114 8.11426 17.2231 8.11426H9.39502C7.89502 8.11426 7.03955 8.98144 7.03955 10.4462V15.9306C7.03955 17.4189 7.90674 18.2626 9.39502 18.2626Z" fill="white"/>
<path d="M9.39502 17.5244H17.2231C18.3012 17.5244 18.8286 16.997 18.8286 15.9306V10.4462C18.8286 9.40332 18.3012 8.85254 17.2231 8.85254H9.39502C8.31689 8.85254 7.77783 9.40332 7.77783 10.4462V15.9306C7.77783 16.997 8.31689 17.5244 9.39502 17.5244ZM11.7387 15.2041V11.1962C11.7387 10.9267 12.0083 10.8447 12.2309 10.9736L15.5825 12.9423C15.7817 13.0595 15.7934 13.3291 15.5942 13.4462L12.2309 15.4384C12.0083 15.5673 11.7387 15.4619 11.7387 15.2041Z" fill="black" fill-opacity="0.85"/>
</g>
<defs>
<clipPath id="clip0_2207_7273">
<rect width="23.9062" height="23.918" fill="white" transform="translate(0.090332 0.110352)"/>
</clipPath>
</defs>
</svg>
