<svg width="34" height="20" viewBox="0 0 34 20" fill="none" xmlns="http://www.w3.org/2000/svg">
<g clip-path="url(#clip0_2207_13244)">
<path d="M0.0820312 17.8643C0.0820312 18.6026 0.679687 19.2002 1.40625 19.2002H32.5547C33.2812 19.2002 33.8789 18.6026 33.8789 17.8643C33.8789 17.126 33.2812 16.5284 32.5547 16.5284H29.9882V2.61816C29.9882 0.97754 29.1093 0.133789 27.4804 0.133789H6.48047C4.93359 0.133789 3.97265 0.97754 3.97265 2.61816V16.5284H1.40625C0.679687 16.5284 0.0820312 17.126 0.0820312 17.8643ZM5.85937 16.5284V3.14551C5.85937 2.39551 6.23437 2.02051 6.98437 2.02051H26.9765C27.7265 2.02051 28.1015 2.39551 28.1015 3.14551V16.5284H5.85937Z" fill="black" fill-opacity="0.85"/>
<path d="M14.1094 13.0947C14.1094 13.5634 14.6133 13.7509 15.0001 13.5283L21.211 9.87203C21.586 9.63765 21.586 9.13375 21.1993 8.92281L15.0001 5.26656C14.6133 5.03219 14.1094 5.20797 14.1094 5.70015V13.0947Z" fill="black" fill-opacity="0.85"/>
</g>
<defs>
<clipPath id="clip0_2207_13244">
<rect width="33.7969" height="19.0898" fill="white" transform="translate(0.0820312 0.110352)"/>
</clipPath>
</defs>
</svg>
