<svg width="27" height="25" viewBox="0 0 27 25" fill="none" xmlns="http://www.w3.org/2000/svg">
<g id="plus.message.fill" clip-path="url(#clip0_2201_233)">
<g id="Group">
<path id="Vector" d="M4.64062 24.4336C6.04688 24.4336 9.55078 22.8984 11.543 21.4688C11.7422 21.3281 11.9062 21.2695 12.0703 21.2695C12.2227 21.2812 12.375 21.293 12.5273 21.293C20.9766 21.293 26.5781 16.4883 26.5781 10.6523C26.5781 4.75781 20.6719 0 13.2891 0C5.90625 0 0 4.75781 0 10.6523C0 14.4023 2.30859 17.6953 6.07031 19.7109C6.24609 19.8047 6.30469 19.9805 6.21094 20.1562C5.55469 21.2344 4.38281 22.5234 3.9375 23.1094C3.48047 23.6953 3.73828 24.4336 4.64062 24.4336Z" fill="black" fill-opacity="0.85"/>
<path id="Vector_2" d="M7.57031 10.7812C7.57031 10.1602 7.99219 9.73828 8.60156 9.73828H12.2695V6.08203C12.2695 5.47266 12.6797 5.03906 13.2773 5.03906C13.8867 5.03906 14.3086 5.46094 14.3086 6.08203V9.73828H17.9883C18.5859 9.73828 19.0195 10.1602 19.0195 10.7812C19.0195 11.3672 18.5859 11.7773 17.9883 11.7773H14.3086V15.457C14.3086 16.0547 13.8867 16.4883 13.2773 16.4883C12.6797 16.4883 12.2695 16.0547 12.2695 15.457V11.7773H8.60156C7.99219 11.7773 7.57031 11.3672 7.57031 10.7812Z" fill="white"/>
</g>
</g>
<defs>
<clipPath id="clip0_2201_233">
<rect width="26.5781" height="24.4336" fill="white"/>
</clipPath>
</defs>
</svg>
