<svg width="27" height="25" viewBox="0 0 27 25" fill="none" xmlns="http://www.w3.org/2000/svg">
<g clip-path="url(#clip0_2207_9057)">
<path d="M4.68896 24.5454C6.09522 24.5454 9.59912 23.0102 11.5913 21.5806C11.7905 21.4399 11.9545 21.3813 12.1186 21.3813C12.271 21.393 12.4233 21.4048 12.5756 21.4048C21.0249 21.4048 26.6264 16.6001 26.6264 10.7641C26.6264 4.86963 20.7202 0.111816 13.3374 0.111816C5.95459 0.111816 0.0483398 4.86963 0.0483398 10.7641C0.0483398 14.5141 2.35693 17.8071 6.11865 19.8227C6.29443 19.9165 6.35303 20.0923 6.25928 20.268C5.60303 21.3462 4.43115 22.6352 3.98584 23.2212C3.52881 23.8071 3.78662 24.5454 4.68896 24.5454Z" fill="black" fill-opacity="0.85"/>
<path d="M7.61865 10.893C7.61865 10.272 8.04053 9.8501 8.6499 9.8501H12.3178V6.19385C12.3178 5.58448 12.728 5.15088 13.3256 5.15088C13.935 5.15088 14.3569 5.57276 14.3569 6.19385V9.8501H18.0366C18.6342 9.8501 19.0678 10.272 19.0678 10.893C19.0678 11.479 18.6342 11.8891 18.0366 11.8891H14.3569V15.5688C14.3569 16.1665 13.935 16.6001 13.3256 16.6001C12.728 16.6001 12.3178 16.1665 12.3178 15.5688V11.8891H8.6499C8.04053 11.8891 7.61865 11.479 7.61865 10.893Z" fill="white"/>
</g>
<defs>
<clipPath id="clip0_2207_9057">
<rect width="26.5781" height="24.4336" fill="white" transform="translate(0.0483398 0.111816)"/>
</clipPath>
</defs>
</svg>
