<svg width="22" height="22" viewBox="0 0 22 22" fill="none" xmlns="http://www.w3.org/2000/svg">
<g clip-path="url(#clip0_2207_6347)">
<path d="M0.0693359 6.31104H1.95606V3.86182C1.95606 2.64307 2.60059 2.02198 3.77246 2.02198H6.19825V0.135254H3.74903C1.29981 0.135254 0.0693359 1.34229 0.0693359 3.76807V6.31104ZM7.80372 2.02198H13.9091V0.135254H7.80372V2.02198ZM19.7568 6.31104H21.6435V3.76807C21.6435 1.35401 20.4131 0.135254 17.9638 0.135254H15.5146V2.02198H17.9404C19.1005 2.02198 19.7568 2.64307 19.7568 3.86182V6.31104ZM19.7568 13.9282H21.6435V7.91651H19.7568V13.9282ZM15.5146 21.7095H17.9638C20.4131 21.7095 21.6435 20.4907 21.6435 18.0766V15.5337H19.7568V17.9829C19.7568 19.2016 19.1005 19.8227 17.9404 19.8227H15.5146V21.7095ZM7.80372 21.7095H13.9091V19.8227H7.80372V21.7095ZM3.74903 21.7095H6.19825V19.8227H3.77246C2.60059 19.8227 1.95606 19.2016 1.95606 17.9829V15.5337H0.0693359V18.0766C0.0693359 20.5024 1.29981 21.7095 3.74903 21.7095ZM0.0693359 13.9282H1.95606V7.91651H0.0693359V13.9282Z" fill="black" fill-opacity="0.85"/>
<path d="M5.43652 10.9048C5.43652 11.479 5.83495 11.8657 6.43261 11.8657H9.87792V15.3227C9.87792 15.9087 10.2763 16.3188 10.8505 16.3188C11.4365 16.3188 11.8466 15.9204 11.8466 15.3227V11.8657H15.3037C15.8896 11.8657 16.2998 11.479 16.2998 10.9048C16.2998 10.3188 15.8896 9.9087 15.3037 9.9087H11.8466V6.46338C11.8466 5.86573 11.4365 5.45557 10.8505 5.45557C10.2763 5.45557 9.87792 5.86573 9.87792 6.46338V9.9087H6.43261C5.83495 9.9087 5.43652 10.3188 5.43652 10.9048Z" fill="black" fill-opacity="0.85"/>
</g>
<defs>
<clipPath id="clip0_2207_6347">
<rect width="21.5742" height="21.5977" fill="white" transform="translate(0.0693359 0.111816)"/>
</clipPath>
</defs>
</svg>
