<svg width="26" height="26" viewBox="0 0 26 26" fill="none" xmlns="http://www.w3.org/2000/svg">
<g clip-path="url(#clip0_2207_9233)">
<path d="M6.99243 25.9985C7.44946 25.9985 7.7893 25.7641 8.34008 25.2485L12.5706 21.3813H20.4924C23.9846 21.3813 25.8596 19.4595 25.8596 16.0259V7.04932C25.8596 3.61573 23.9846 1.68213 20.4924 1.68213H5.39868C1.90649 1.68213 0.0314941 3.60401 0.0314941 7.04932V16.0259C0.0314941 19.4712 1.90649 21.3813 5.39868 21.3813H5.94946V24.7915C5.94946 25.518 6.32446 25.9985 6.99243 25.9985Z" fill="black" fill-opacity="0.85"/>
<path d="M7.22681 11.5376C7.22681 10.9282 7.66041 10.5063 8.26978 10.5063H11.9377V6.83838C11.9377 6.22901 12.3479 5.79541 12.9338 5.79541C13.5549 5.79541 13.9651 6.22901 13.9651 6.83838V10.5063H17.6448C18.2542 10.5063 18.676 10.9282 18.676 11.5376C18.676 12.1352 18.2424 12.5337 17.6448 12.5337H13.9651V16.2134C13.9651 16.8227 13.5549 17.2446 12.9338 17.2446C12.3479 17.2446 11.9377 16.811 11.9377 16.2134V12.5337H8.26978C7.66041 12.5337 7.22681 12.1352 7.22681 11.5376Z" fill="white"/>
</g>
<defs>
<clipPath id="clip0_2207_9233">
<rect width="25.8281" height="25.8867" fill="white" transform="translate(0.0314941 0.111816)"/>
</clipPath>
</defs>
</svg>
