<svg width="25" height="25" viewBox="0 0 25 25" fill="none" xmlns="http://www.w3.org/2000/svg">
<g clip-path="url(#clip0_2207_6459)">
<path d="M3.75537 19.2602H15.521C17.9585 19.2602 19.189 18.0415 19.189 15.6274V3.76807C19.189 1.35401 17.9585 0.135254 15.521 0.135254H3.75537C1.29443 0.135254 0.0756836 1.35401 0.0756836 3.76807V15.6274C0.0756836 18.0415 1.29443 19.2602 3.75537 19.2602ZM3.7788 17.3735C2.60693 17.3735 1.9624 16.7407 1.9624 15.522V3.87354C1.9624 2.65479 2.60693 2.02198 3.7788 2.02198H15.4859C16.646 2.02198 17.3023 2.65479 17.3023 3.87354V15.522C17.3023 16.7407 16.646 17.3735 15.4859 17.3735H3.7788Z" fill="black" fill-opacity="0.85"/>
<path d="M9.43897 24.686H21.2046C23.6421 24.686 24.8726 23.4673 24.8726 21.0532V9.19385C24.8726 6.77979 23.6421 5.56104 21.2046 5.56104H9.43897C6.97803 5.56104 5.75928 6.76807 5.75928 9.19385V21.0532C5.75928 23.4673 6.97803 24.686 9.43897 24.686Z" fill="white"/>
<path d="M9.43897 24.686H21.2046C23.6421 24.686 24.8726 23.4673 24.8726 21.0532V9.19385C24.8726 6.77979 23.6421 5.56104 21.2046 5.56104H9.43897C6.97803 5.56104 5.75928 6.76807 5.75928 9.19385V21.0532C5.75928 23.4673 6.97803 24.686 9.43897 24.686ZM9.46241 22.7993C8.30225 22.7993 7.646 22.1665 7.646 20.9477V9.29931C7.646 8.08056 8.30225 7.44775 9.46241 7.44775H21.1695C22.3296 7.44775 22.9859 8.08056 22.9859 9.29931V20.9477C22.9859 22.1665 22.3296 22.7993 21.1695 22.7993H9.46241Z" fill="black" fill-opacity="0.85"/>
<path d="M9.896 15.1235C9.896 15.6977 10.3062 16.0845 10.9038 16.0845H14.3491V19.5415C14.3491 20.1274 14.7359 20.5376 15.3101 20.5376C15.896 20.5376 16.3062 20.1391 16.3062 19.5415V16.0845H19.7632C20.3491 16.0845 20.7593 15.6977 20.7593 15.1235C20.7593 14.5376 20.3491 14.1274 19.7632 14.1274H16.3062V10.6821C16.3062 10.0845 15.896 9.67432 15.3101 9.67432C14.7359 9.67432 14.3491 10.0845 14.3491 10.6821V14.1274H10.9038C10.2945 14.1274 9.896 14.5376 9.896 15.1235Z" fill="black" fill-opacity="0.85"/>
</g>
<defs>
<clipPath id="clip0_2207_6459">
<rect width="24.7969" height="24.5742" fill="white" transform="translate(0.0756836 0.111816)"/>
</clipPath>
</defs>
</svg>
