<svg width="32" height="25" viewBox="0 0 32 25" fill="none" xmlns="http://www.w3.org/2000/svg">
<g clip-path="url(#clip0_2207_440)">
<path d="M3.73633 22.7993H23.3418C25.4394 22.7993 26.6699 21.5806 26.6699 19.1665V7.13134C26.6699 4.71728 25.4277 3.49853 22.9902 3.49853H11.7402C10.9433 3.49853 10.4628 3.31103 9.87695 2.80712L9.16211 2.22119C8.38867 1.56493 7.79102 1.354 6.63086 1.354H3.29102C1.24023 1.354 0.0566406 2.52587 0.0566406 4.88134V19.1665C0.0566406 21.5923 1.28711 22.7993 3.73633 22.7993ZM3.75976 20.9126C2.58789 20.9126 1.94336 20.2915 1.94336 19.0727V4.98681C1.94336 3.82665 2.55273 3.229 3.67773 3.229H6.15039C6.92383 3.229 7.39258 3.42822 7.99023 3.93212L8.70508 4.52978C9.4668 5.16259 10.0878 5.38525 11.248 5.38525H22.955C24.1152 5.38525 24.7832 6.01806 24.7832 7.23681V19.0845C24.7832 20.2915 24.1152 20.9126 22.955 20.9126H3.75976ZM1.20508 9.67431H25.5097V7.90478H1.20508V9.67431Z" fill="black" fill-opacity="0.85"/>
<path d="M17.9511 14.3266H28.0175C30.4668 14.3266 31.6972 13.1079 31.6972 10.6938V3.74463C31.6972 1.31885 30.4668 0.111816 28.0175 0.111816H17.9511C15.5019 0.111816 14.2832 1.31885 14.2832 3.74463V10.6938C14.2832 13.1079 15.5019 14.3266 17.9511 14.3266Z" fill="white"/>
<path d="M17.9511 14.3266H28.0175C30.4668 14.3266 31.6972 13.1079 31.6972 10.6938V3.74463C31.6972 1.31885 30.4668 0.111816 28.0175 0.111816H17.9511C15.5019 0.111816 14.2832 1.31885 14.2832 3.74463V10.6938C14.2832 13.1079 15.5019 14.3266 17.9511 14.3266ZM17.8925 12.5571C16.7089 12.5571 16.0527 11.9243 16.0527 10.6821V3.74463C16.0527 2.51416 16.7089 1.88135 17.8925 1.88135H28.0878C29.2597 1.88135 29.9277 2.51416 29.9277 3.74463V10.6821C29.9277 11.9243 29.2597 12.5571 28.1113 12.5571H17.8925Z" fill="black" fill-opacity="0.85"/>
<path d="M22.9903 10.9634C23.4239 10.9634 23.7051 10.6821 23.7051 10.2485V7.96337H25.9903C26.4239 7.96337 26.7169 7.68212 26.7169 7.23681C26.7169 6.80322 26.4239 6.52197 25.9903 6.52197H23.7051V4.23681C23.7051 3.80322 23.4239 3.51025 22.9903 3.51025C22.5567 3.51025 22.2755 3.80322 22.2755 4.23681V6.52197H19.9786C19.5567 6.52197 19.2637 6.80322 19.2637 7.23681C19.2637 7.68212 19.5567 7.96337 19.9786 7.96337H22.2755V10.2485C22.2755 10.6821 22.5567 10.9634 22.9903 10.9634Z" fill="black" fill-opacity="0.85"/>
</g>
<defs>
<clipPath id="clip0_2207_440">
<rect width="31.6406" height="24.082" fill="white" transform="translate(0.0566406 0.111816)"/>
</clipPath>
</defs>
</svg>
