<svg width="23" height="24" viewBox="0 0 23 24" fill="none" xmlns="http://www.w3.org/2000/svg">
<g clip-path="url(#clip0_2207_5708)">
<path d="M0.0440674 9.46338C0.0440674 14.6196 4.23938 18.8149 9.39563 18.8149C11.4347 18.8149 13.298 18.1587 14.8332 17.0571L20.5988 22.8345C20.8683 23.104 21.2199 23.2329 21.5949 23.2329C22.3918 23.2329 22.9425 22.6352 22.9425 21.8501C22.9425 21.4751 22.8019 21.1352 22.5558 20.8891L16.8253 15.1235C18.0324 13.5532 18.7472 11.5962 18.7472 9.46338C18.7472 4.30713 14.5519 0.111816 9.39563 0.111816C4.23938 0.111816 0.0440674 4.30713 0.0440674 9.46338ZM2.04798 9.46338C2.04798 5.4087 5.34095 2.11573 9.39563 2.11573C13.4503 2.11573 16.7433 5.4087 16.7433 9.46338C16.7433 13.518 13.4503 16.811 9.39563 16.811C5.34095 16.811 2.04798 13.518 2.04798 9.46338ZM5.52845 9.46338C5.52845 9.94385 5.90345 10.3188 6.38391 10.3188H8.54016V12.4751C8.54016 12.9556 8.91516 13.3306 9.39563 13.3306C9.8761 13.3306 10.2629 12.9556 10.2629 12.4751V10.3188H12.4074C12.8879 10.3188 13.2629 9.94385 13.2629 9.46338C13.2629 8.98291 12.8879 8.5962 12.4074 8.5962H10.2629V6.45166C10.2629 5.9712 9.8761 5.5962 9.39563 5.5962C8.91516 5.5962 8.54016 5.9712 8.54016 6.45166V8.5962H6.38391C5.90345 8.5962 5.52845 8.98291 5.52845 9.46338Z" fill="black" fill-opacity="0.85"/>
</g>
<defs>
<clipPath id="clip0_2207_5708">
<rect width="22.8984" height="23.1211" fill="white" transform="translate(0.0440674 0.111816)"/>
</clipPath>
</defs>
</svg>
