<svg width="20" height="26" viewBox="0 0 20 26" fill="none" xmlns="http://www.w3.org/2000/svg">
<g clip-path="url(#clip0_2207_22786)">
<path d="M0.0651855 21.5688C0.0651855 24.018 1.27222 25.2368 3.698 25.2368H16.1433C18.5691 25.2368 19.7761 24.018 19.7761 21.5688V3.79151C19.7761 1.35401 18.5691 0.111816 16.1433 0.111816H3.698C1.27222 0.111816 0.0651855 1.35401 0.0651855 3.79151V21.5688Z" fill="black" fill-opacity="0.85"/>
<path d="M4.2019 12.686C4.2019 12.0766 4.63549 11.6548 5.24487 11.6548H8.91284V7.98682C8.91284 7.37744 9.32299 6.95557 9.90893 6.95557C10.53 6.95557 10.9402 7.37744 10.9402 7.98682V11.6548H14.6199C15.2293 11.6548 15.6511 12.0766 15.6511 12.686C15.6511 13.2837 15.2175 13.6938 14.6199 13.6938H10.9402V17.3735C10.9402 17.9712 10.53 18.4048 9.90893 18.4048C9.32299 18.4048 8.91284 17.9712 8.91284 17.3735V13.6938H5.24487C4.63549 13.6938 4.2019 13.2837 4.2019 12.686Z" fill="white"/>
</g>
<defs>
<clipPath id="clip0_2207_22786">
<rect width="19.7109" height="25.1367" fill="white" transform="translate(0.0651855 0.111816)"/>
</clipPath>
</defs>
</svg>
