<svg width="26" height="26" viewBox="0 0 26 26" fill="none" xmlns="http://www.w3.org/2000/svg">
<g id="plus.bubble" clip-path="url(#clip0_2201_404)">
<g id="Group">
<path id="Vector" d="M7.20703 25.7461C7.78125 25.7461 8.17969 25.4414 8.89453 24.8086L12.9375 21.2109H20.4609C23.9531 21.2109 25.8281 19.2773 25.8281 15.8438V6.86719C25.8281 3.43359 23.9531 1.5 20.4609 1.5H5.36719C1.875 1.5 0 3.42188 0 6.86719V15.8438C0 19.2891 1.875 21.2109 5.36719 21.2109H5.92969V24.2578C5.92969 25.1602 6.38672 25.7461 7.20703 25.7461ZM7.6875 23.6016V20.2031C7.6875 19.5703 7.44141 19.3242 6.80859 19.3242H5.36719C3 19.3242 1.88672 18.1172 1.88672 15.832V6.86719C1.88672 4.58203 3 3.38672 5.36719 3.38672H20.4609C22.8164 3.38672 23.9414 4.58203 23.9414 6.86719V15.832C23.9414 18.1172 22.8164 19.3242 20.4609 19.3242H12.8672C12.2109 19.3242 11.8828 19.418 11.4375 19.875L7.6875 23.6016Z" fill="black" fill-opacity="0.85"/>
<path id="Vector_2" d="M7.48828 11.3555C7.48828 11.9297 7.89844 12.3164 8.49609 12.3164H11.9414V15.7734C11.9414 16.3594 12.3398 16.7695 12.9023 16.7695C13.5 16.7695 13.8984 16.3711 13.8984 15.7734V12.3164H17.3555C17.9414 12.3164 18.3516 11.9297 18.3516 11.3555C18.3516 10.7695 17.9531 10.3594 17.3555 10.3594H13.8984V6.91406C13.8984 6.31641 13.5 5.90625 12.9023 5.90625C12.3398 5.90625 11.9414 6.31641 11.9414 6.91406V10.3594H8.49609C7.89844 10.3594 7.48828 10.7695 7.48828 11.3555Z" fill="black" fill-opacity="0.85"/>
</g>
</g>
<defs>
<clipPath id="clip0_2201_404">
<rect width="25.8281" height="25.7461" fill="white"/>
</clipPath>
</defs>
</svg>
