<svg width="21" height="26" viewBox="0 0 21 26" fill="none" xmlns="http://www.w3.org/2000/svg">
<g clip-path="url(#clip0_2207_19774)">
<path d="M2.83691 8.14062C2.83691 10.4844 4.30175 12.125 7.09081 12.8985L12.9854 14.5625C14.9189 15.1133 15.9033 16.1094 15.9033 17.5156V18.336H17.79V17.5156C17.79 15.1836 16.3369 13.543 13.5479 12.7695L7.65331 11.1055C5.73144 10.5664 4.72363 9.54687 4.72363 8.14062V7.33203H2.83691V8.14062Z" fill="black" fill-opacity="0.85"/>
<path d="M3.78614 7.70703C5.87208 7.70703 7.55958 6.00781 7.55958 3.92187C7.55958 1.84766 5.87208 0.148438 3.78614 0.148438C1.7002 0.148438 0.0126953 1.84766 0.0126953 3.92187C0.0126953 6.00781 1.7002 7.70703 3.78614 7.70703ZM16.8525 17.961C14.7666 17.961 13.0674 19.6485 13.0674 21.7461C13.0674 23.8203 14.7666 25.5078 16.8525 25.5078C18.9385 25.5078 20.626 23.8203 20.626 21.7461C20.626 19.6485 18.9385 17.961 16.8525 17.961ZM16.8525 19.8008C17.9307 19.8008 18.7861 20.6563 18.7861 21.7461C18.7861 22.8242 17.9307 23.668 16.8525 23.668C15.751 23.668 14.9072 22.8242 14.9072 21.7461C14.9072 20.6563 15.751 19.8008 16.8525 19.8008Z" fill="black" fill-opacity="0.85"/>
</g>
<defs>
<clipPath id="clip0_2207_19774">
<rect width="20.6133" height="25.3945" fill="white" transform="translate(0.0126953 0.113281)"/>
</clipPath>
</defs>
</svg>
