<svg width="21" height="27" viewBox="0 0 21 27" fill="none" xmlns="http://www.w3.org/2000/svg">
<g clip-path="url(#clip0_2207_19784)">
<path d="M6.87891 13.7539L13.582 14.4571C17.0977 14.8203 18.8789 16.168 18.8789 18.1602C18.8789 20.1172 17.2266 21.3594 14.5898 21.3594H7.01953V23.2461H14.5898C18.375 23.2461 20.7656 21.2774 20.7656 18.1602C20.7656 14.9727 18.4102 12.8867 13.8633 12.4297L7.18359 11.7266C3.65625 11.3633 1.88672 10.0156 1.88672 8.02344C1.88672 6.0664 3.53906 4.82422 6.17578 4.82422H13.7344V2.9375H6.17578C2.39062 2.9375 0 4.90625 0 8.02344C0 11.211 2.34375 13.2969 6.87891 13.7539Z" fill="black" fill-opacity="0.85"/>
<path d="M3.78516 26.0703C5.87109 26.0703 7.55859 24.3711 7.55859 22.2852C7.55859 20.211 5.87109 18.5117 3.78516 18.5117C1.69922 18.5117 0.0117188 20.211 0.0117188 22.2852C0.0117188 24.3711 1.69922 26.0703 3.78516 26.0703ZM16.9805 7.67187C19.0781 7.67187 20.7656 5.97266 20.7656 3.88672C20.7656 1.8125 19.0781 0.113281 16.9805 0.113281C14.9062 0.113281 13.207 1.8125 13.207 3.88672C13.207 5.97266 14.9062 7.67187 16.9805 7.67187Z" fill="black" fill-opacity="0.85"/>
</g>
<defs>
<clipPath id="clip0_2207_19784">
<rect width="20.7656" height="25.957" fill="white" transform="translate(0 0.113281)"/>
</clipPath>
</defs>
</svg>
