<svg width="21" height="26" viewBox="0 0 21 26" fill="none" xmlns="http://www.w3.org/2000/svg">
<g clip-path="url(#clip0_2207_19769)">
<path d="M2.83472 8.14062C2.83472 10.4844 4.29956 12.125 7.08862 12.8985L12.9832 14.5625C14.9167 15.1133 15.9011 16.1094 15.9011 17.5156V18.336H17.7878V17.5156C17.7878 15.1836 16.3347 13.543 13.5457 12.7695L7.65112 11.1055C5.72925 10.5664 4.72144 9.54687 4.72144 8.14062V7.33203H2.83472V8.14062Z" fill="black" fill-opacity="0.85"/>
<path d="M3.78394 7.70703C5.86988 7.70703 7.55738 6.00781 7.55738 3.92187C7.55738 1.84766 5.86988 0.148438 3.78394 0.148438C1.698 0.148438 0.010498 1.84766 0.010498 3.92187C0.010498 6.00781 1.698 7.70703 3.78394 7.70703ZM3.78394 5.86719C2.70581 5.86719 1.85034 5.01172 1.85034 3.92187C1.85034 2.83203 2.70581 1.98828 3.78394 1.98828C4.87378 1.98828 5.71753 2.83203 5.71753 3.92187C5.71753 5.01172 4.8855 5.86719 3.78394 5.86719ZM16.8503 17.961C14.7644 17.961 13.0652 19.6485 13.0652 21.7461C13.0652 23.8203 14.7644 25.5078 16.8503 25.5078C18.9363 25.5078 20.6238 23.8203 20.6238 21.7461C20.6238 19.6485 18.9363 17.961 16.8503 17.961Z" fill="black" fill-opacity="0.85"/>
</g>
<defs>
<clipPath id="clip0_2207_19769">
<rect width="20.6133" height="25.3945" fill="white" transform="translate(0.010498 0.113281)"/>
</clipPath>
</defs>
</svg>
