<svg width="19" height="22" viewBox="0 0 19 22" fill="none" xmlns="http://www.w3.org/2000/svg">
<g clip-path="url(#clip0_2207_26138)">
<path d="M1.10449 21.0547H9.34277C9.8584 21.0547 10.2802 20.6445 10.2802 20.1289C10.2802 19.6133 9.8584 19.1914 9.34277 19.1914H2.76856V19.0508L9.88184 8.38672C10.081 8.08203 10.1982 7.73047 10.1982 7.3789C10.1982 6.71094 9.69434 6.23047 8.97949 6.23047H0.952148C0.436523 6.23047 0.0263672 6.65234 0.0263672 7.16797C0.0263672 7.68359 0.436523 8.09375 0.952148 8.09375H7.57324V8.25781L0.354492 18.9805C0.120117 19.3438 0.0146484 19.5547 0.0146484 19.9766C0.0146484 20.586 0.448242 21.0547 1.10449 21.0547ZM15.1787 21.3242C15.8115 21.3242 16.3388 20.7969 16.3388 20.1641V10.1328L17.8037 9.33594C19.0107 8.71484 18.1787 7.26172 17.124 7.8125L16.3388 8.24609V1.27344C16.3388 0.640625 15.8115 0.113281 15.1787 0.113281C14.5458 0.113281 14.0302 0.640625 14.0302 1.27344V9.46484L12.6943 10.1914C11.5927 10.7656 12.2724 12.2891 13.4794 11.6563L14.0302 11.3399V20.1641C14.0302 20.7969 14.5458 21.3242 15.1787 21.3242Z" fill="black" fill-opacity="0.85"/>
</g>
<defs>
<clipPath id="clip0_2207_26138">
<rect width="18.385" height="21.2227" fill="white" transform="translate(0.0146484 0.113281)"/>
</clipPath>
</defs>
</svg>
