<svg width="24" height="25" viewBox="0 0 24 25" fill="none" xmlns="http://www.w3.org/2000/svg">
<g clip-path="url(#clip0_2207_26142)">
<path d="M11.9699 24.0195C18.509 24.0195 23.923 18.5938 23.923 12.0664C23.923 5.52734 18.4973 0.113281 11.9582 0.113281C5.43091 0.113281 0.0168457 5.52734 0.0168457 12.0664C0.0168457 18.5938 5.44263 24.0195 11.9699 24.0195ZM11.9699 22.0274C6.43873 22.0274 2.02076 17.5977 2.02076 12.0664C2.02076 6.53516 6.42701 2.10547 11.9582 2.10547C17.4895 2.10547 21.9309 6.53516 21.9309 12.0664C21.9309 17.5977 17.5012 22.0274 11.9699 22.0274Z" fill="black" fill-opacity="0.85"/>
<path d="M7.70434 16.6836H11.6535C11.9934 16.6836 12.2512 16.4258 12.2512 16.0977C12.2512 15.7578 11.9934 15.5117 11.6535 15.5117H8.93481V15.4063L11.9348 10.6016C12.0871 10.3555 12.1809 10.1563 12.1809 9.91016C12.1809 9.48828 11.8527 9.20703 11.4074 9.20703H7.63403C7.28246 9.20703 7.02465 9.45312 7.02465 9.78125C7.02465 10.1211 7.28246 10.3789 7.63403 10.3789H10.4582V10.5078L7.24731 15.4531C7.10668 15.6758 7.02465 15.8399 7.02465 16.0977C7.02465 16.4375 7.3059 16.6836 7.70434 16.6836ZM14.8293 16.8125C15.298 16.8125 15.6027 16.4844 15.6027 16.0039V11.75L16.6223 11.211C17.4426 10.7774 16.8801 9.69922 16.0949 10.0977L15.6027 10.3672V6.94531C15.6027 6.45312 15.298 6.125 14.8293 6.125C14.3723 6.125 14.0559 6.45312 14.0559 6.94531V11.1758L13.2238 11.6328C12.427 12.043 12.9426 13.1328 13.7746 12.711L14.0559 12.5469V16.0039C14.0559 16.4844 14.3723 16.8125 14.8293 16.8125Z" fill="black" fill-opacity="0.85"/>
</g>
<defs>
<clipPath id="clip0_2207_26142">
<rect width="23.9062" height="23.918" fill="white" transform="translate(0.0168457 0.113281)"/>
</clipPath>
</defs>
</svg>
