<svg width="24" height="25" viewBox="0 0 24 25" fill="none" xmlns="http://www.w3.org/2000/svg">
<g clip-path="url(#clip0_2207_12153)">
<path d="M11.9825 24.0313C18.5216 24.0313 23.9356 18.6172 23.9356 12.0781C23.9356 5.55078 18.5099 0.125 11.9708 0.125C5.44348 0.125 0.0294189 5.55078 0.0294189 12.0781C0.0294189 18.6172 5.4552 24.0313 11.9825 24.0313Z" fill="black" fill-opacity="0.85"/>
<path d="M10.0255 9.66406C9.62709 9.18359 9.00599 8.90234 8.36146 8.90234C7.95131 8.90234 7.55287 9.01953 7.22474 9.19531C7.0724 8.92578 7.01381 8.66797 7.01381 8.375C7.01381 7.46094 7.75209 6.74609 8.65443 6.76953C8.65443 6.35937 9.02943 5.9375 9.48646 5.98437C9.60365 5.45703 10.1427 4.96484 10.9864 4.96484C11.6192 4.96484 12.1817 5.3164 12.4278 5.89062C12.6036 5.85547 12.8028 5.86719 12.9435 5.91406C13.2364 5.65625 13.5997 5.5039 14.0099 5.5039C14.6544 5.5039 15.1114 5.89062 15.3575 6.47656C16.295 6.48828 16.9513 7.21484 16.9513 8.23437C16.9513 8.57422 16.8458 8.91406 16.6583 9.19531C16.3302 9.00781 15.9435 8.90234 15.545 8.90234C14.9005 8.90234 14.2677 9.18359 13.8692 9.66406C13.4474 9.05469 12.6974 8.71484 11.9474 8.71484C11.2091 8.71484 10.4591 9.05469 10.0255 9.66406ZM9.63881 18.9688C8.78334 18.9688 8.3849 18.4766 8.22084 17.6445L7.04896 11.4922C6.83802 10.3555 7.58802 9.76953 8.36146 9.76953C8.99427 9.76953 9.60365 10.168 9.66224 10.9414L10.3888 18.9688H9.63881ZM11.2208 18.9688L10.506 11.0703C10.4239 9.99219 11.3028 9.57031 11.9474 9.57031C12.5919 9.57031 13.4825 9.99219 13.4005 11.0703L12.6856 18.9688H11.2208ZM14.2677 18.9688H13.5177L14.2442 10.9414C14.3028 10.168 14.9122 9.76953 15.545 9.76953C16.3185 9.76953 17.0685 10.3555 16.8575 11.4922L15.6856 17.6445C15.5216 18.4766 15.1232 18.9688 14.2677 18.9688Z" fill="white"/>
</g>
<defs>
<clipPath id="clip0_2207_12153">
<rect width="23.9062" height="23.918" fill="white" transform="translate(0.0294189 0.113281)"/>
</clipPath>
</defs>
</svg>
