<svg width="22" height="30" viewBox="0 0 22 30" fill="none" xmlns="http://www.w3.org/2000/svg">
<g clip-path="url(#clip0_2207_12136)">
<path d="M2.1912 9.92187L2.90605 8.33984C2.30839 8.16406 1.8748 7.58984 1.8748 6.89844C1.8748 5.79687 3.07011 5.05859 4.33574 5.45703C4.17167 4.26172 5.39042 3.37109 6.58574 3.95703C6.22245 2.58594 7.08964 1.8125 8.0623 1.8125C9.01152 1.8125 9.97245 2.53906 9.78495 3.93359C10.5466 3.42969 11.824 3.53516 12.4685 4.02734C12.7732 3.32422 13.406 2.91406 14.1443 2.91406C15.199 2.91406 15.7497 3.75781 15.7146 4.92969C17.1677 4.69531 18.2107 5.35156 18.2107 6.71094C18.2107 7.44922 17.6482 8.11719 16.9333 8.32812L17.8826 9.80469C19.0662 9.23047 19.8865 8 19.8865 6.59375C19.8865 4.57812 18.5974 3.16016 16.7341 3.11328C16.2419 1.97656 15.3396 1.21484 14.0622 1.21484C13.2654 1.21484 12.5271 1.49609 11.9646 2.01172C11.6716 1.92969 11.2732 1.90625 10.9333 1.97656C10.4294 0.839843 9.3162 0.113281 8.0623 0.113281C6.39824 0.113281 5.30839 1.13281 5.09745 2.15234C4.20683 2.07031 3.45683 2.89062 3.45683 3.6875C1.66386 3.6289 0.199014 5.10547 0.199014 6.89844C0.199014 8.25781 1.01933 9.4414 2.1912 9.92187ZM5.42558 27.875H14.6599C16.3357 27.875 17.1912 26.9258 17.5076 25.2383L19.9802 12.1485C20.4841 9.53516 18.5388 7.80078 16.1716 7.80078C15.1169 7.80078 14.1912 8.22266 13.5349 8.98437C12.8787 7.90625 11.613 7.20312 10.0427 7.20312C8.47245 7.20312 7.20683 7.90625 6.55058 8.98437C5.89433 8.22266 4.96855 7.80078 3.91386 7.80078C1.54667 7.80078 -0.398642 9.53516 0.105264 12.1485L2.57792 25.2383C2.89433 26.9258 3.7498 27.875 5.42558 27.875ZM8.98808 26.1289L7.65214 11.4688C7.51152 9.94531 8.46074 8.94922 10.0427 8.94922C11.6247 8.94922 12.574 9.94531 12.4333 11.4688L11.0974 26.1289H8.98808ZM12.8435 26.1289L14.156 11.5391C14.2732 10.2383 15.1287 9.54687 16.1716 9.54687C17.449 9.54687 18.574 10.4844 18.2693 12.0547L15.738 25.1563C15.6208 25.8008 15.2341 26.1289 14.6013 26.1289H12.8435ZM5.48417 26.1289C4.83964 26.1289 4.46464 25.8008 4.34745 25.1563L1.8162 12.0547C1.51152 10.4844 2.63652 9.54687 3.91386 9.54687C4.95683 9.54687 5.8123 10.2383 5.91777 11.5391L7.24199 26.1289H5.48417Z" fill="black" fill-opacity="0.85"/>
<path d="M16.2654 29.75C17.4021 29.75 18.4451 29.1055 18.949 28.1211C20.3435 27.793 21.2927 26.5625 21.2927 25.1328C21.2927 23.8438 20.5076 22.7539 19.4177 22.2031C19.3591 20.5156 17.9763 19.3906 16.2654 19.3906C14.5779 19.3906 13.2068 20.4688 13.113 22.086C11.7068 22.4024 10.6638 23.6563 10.6638 25.1211C10.6638 26.7735 11.9294 28.086 13.5349 28.2266C14.074 29.1289 15.1169 29.75 16.2654 29.75Z" fill="white"/>
<path d="M16.2654 29.75C17.4021 29.75 18.4451 29.1055 18.949 28.1211C20.3435 27.793 21.2927 26.5625 21.2927 25.1328C21.2927 23.8438 20.5076 22.7539 19.4177 22.2031C19.3591 20.5156 17.9763 19.3906 16.2654 19.3906C14.5779 19.3906 13.2068 20.4688 13.113 22.086C11.7068 22.4024 10.6638 23.6563 10.6638 25.1211C10.6638 26.7735 11.9294 28.086 13.5349 28.2266C14.074 29.1289 15.1169 29.75 16.2654 29.75ZM16.2654 28.2383C15.363 28.2383 14.5193 27.6758 14.5779 26.6211C13.3826 26.9961 12.1638 26.375 12.1638 25.1211C12.1638 23.8438 13.1716 23.1289 14.6365 23.375C14.2615 22.2852 14.8357 20.9024 16.2654 20.9024C17.6482 20.9024 18.3045 22.2266 17.9295 23.4571C19.0194 23.3399 19.7458 24.043 19.7458 25.1914C19.7458 26.1992 19.0427 26.7969 17.8591 26.6914C17.906 27.5938 17.0857 28.2383 16.2654 28.2383Z" fill="black" fill-opacity="0.85"/>
</g>
<defs>
<clipPath id="clip0_2207_12136">
<rect width="21.2676" height="29.6602" fill="white" transform="translate(0.0251465 0.113281)"/>
</clipPath>
</defs>
</svg>
