<svg width="23" height="22" viewBox="0 0 23 22" fill="none" xmlns="http://www.w3.org/2000/svg">
<g clip-path="url(#clip0_2207_11253)">
<path d="M3.74268 21.711H18.6958C21.145 21.711 22.3755 20.4922 22.3755 18.0781V3.76953C22.3755 1.35547 21.145 0.136719 18.6958 0.136719H3.74268C1.29346 0.136719 0.0629883 1.34375 0.0629883 3.76953V18.0781C0.0629883 20.5039 1.29346 21.711 3.74268 21.711ZM3.76611 19.8242C2.59424 19.8242 1.94971 19.2031 1.94971 17.9844V3.86328C1.94971 2.64453 2.59424 2.02344 3.76611 2.02344H18.6607C19.8208 2.02344 20.4888 2.64453 20.4888 3.86328V17.9844C20.4888 19.2031 19.8208 19.8242 18.6607 19.8242H3.76611Z" fill="black" fill-opacity="0.85"/>
<path d="M7.15283 10.8008C7.72705 10.8008 8.1958 10.3555 8.1958 9.75781V6.125C8.1958 5.55078 7.72705 5.08203 7.15283 5.08203C6.5669 5.08203 6.12158 5.55078 6.12158 6.125V9.75781C6.12158 10.3555 6.5669 10.8008 7.15283 10.8008ZM9.82471 17.4219H12.6138C12.9771 17.4219 13.1646 17.2461 13.1646 16.8828V15.5586C13.1646 14.4688 12.3091 13.6016 11.2192 13.6016C10.1177 13.6016 9.27393 14.4688 9.27393 15.5586V16.8828C9.27393 17.2461 9.46143 17.4219 9.82471 17.4219ZM15.2622 10.8008C15.8482 10.8008 16.3169 10.3555 16.3169 9.75781V6.125C16.3169 5.55078 15.8482 5.08203 15.2622 5.08203C14.6763 5.08203 14.231 5.55078 14.231 6.125V9.75781C14.231 10.3555 14.6763 10.8008 15.2622 10.8008Z" fill="black" fill-opacity="0.85"/>
</g>
<defs>
<clipPath id="clip0_2207_11253">
<rect width="22.3125" height="21.5977" fill="white" transform="translate(0.0629883 0.113281)"/>
</clipPath>
</defs>
</svg>
