<svg width="27" height="26" viewBox="0 0 27 26" fill="none" xmlns="http://www.w3.org/2000/svg">
<g clip-path="url(#clip0_2207_11333)">
<path d="M13.4209 25.0391C19.0459 25.0391 24.2373 21.3594 24.2373 17.3281V16.2149H25.2569C26.1475 16.2149 26.7451 15.6172 26.7451 14.7383V10.4258C26.7451 9.53516 26.1475 8.9375 25.2569 8.9375H24.2373V7.83594C24.2373 3.80469 19.0459 0.113281 13.4209 0.113281C7.7959 0.113281 2.60449 3.80469 2.60449 7.83594V8.9375H1.58496C0.694336 8.9375 0.0966797 9.53516 0.0966797 10.4258V14.7383C0.0966797 15.6172 0.694336 16.2149 1.58496 16.2149H2.60449V17.3281C2.60449 21.3594 7.7959 25.0391 13.4209 25.0391ZM13.4209 23.1524C8.75684 23.1524 4.49121 20.1992 4.49121 17.3281V7.83594C4.49121 4.96484 8.75684 2 13.4209 2C18.085 2 22.3506 4.96484 22.3506 7.83594V17.3281C22.3506 20.1992 18.085 23.1524 13.4209 23.1524Z" fill="black" fill-opacity="0.85"/>
<path d="M7.9834 14.7969C9.21387 14.7969 10.1983 13.8008 10.1983 12.5821C10.1983 11.3633 9.21387 10.3672 7.9834 10.3672C6.76465 10.3672 5.78027 11.3633 5.78027 12.5821C5.78027 13.8008 6.76465 14.7969 7.9834 14.7969ZM18.8467 14.7969C20.0772 14.7969 21.0615 13.8008 21.0615 12.5821C21.0615 11.3633 20.0772 10.3672 18.8467 10.3672C17.6279 10.3672 16.6436 11.3633 16.6436 12.5821C16.6436 13.8008 17.6279 14.7969 18.8467 14.7969Z" fill="black" fill-opacity="0.85"/>
</g>
<defs>
<clipPath id="clip0_2207_11333">
<rect width="26.6484" height="24.9492" fill="white" transform="translate(0.0966797 0.113281)"/>
</clipPath>
</defs>
</svg>
