<svg width="22" height="22" viewBox="0 0 22 22" fill="none" xmlns="http://www.w3.org/2000/svg">
<g clip-path="url(#clip0_2207_11503)">
<path d="M3.74683 21.7124H17.9616C20.4226 21.7124 21.6413 20.4936 21.6413 18.0795V3.771C21.6413 1.35694 20.4226 0.138184 17.9616 0.138184H3.74683C1.29761 0.138184 0.0671387 1.34522 0.0671387 3.771V18.0795C0.0671387 20.5053 1.29761 21.7124 3.74683 21.7124ZM3.77026 19.8256C2.59839 19.8256 1.95386 19.2045 1.95386 17.9858V3.86475C1.95386 2.646 2.59839 2.02491 3.77026 2.02491H17.9382C19.0983 2.02491 19.7546 2.646 19.7546 3.86475V17.9858C19.7546 19.2045 19.0983 19.8256 17.9382 19.8256H3.77026Z" fill="black" fill-opacity="0.85"/>
<path d="M6.88747 7.29834C6.14918 7.29834 5.86793 7.62647 5.48122 8.02491L3.39527 10.1226C2.98512 10.5445 2.9734 11.2475 3.39527 11.6694L5.48122 13.7906C5.86793 14.189 6.25465 14.517 6.88747 14.517H14.8211C15.4539 14.517 15.8406 14.189 16.2274 13.7906L18.3133 11.6694C18.7352 11.2475 18.7352 10.5445 18.3133 10.1226L16.2274 8.02491C15.8406 7.62647 15.5594 7.29834 14.8211 7.29834H6.88747ZM6.62965 9.74756C7.26247 9.74756 7.78981 10.2867 7.78981 10.9078C7.78981 11.5289 7.26247 12.0561 6.62965 12.0561C6.00856 12.0561 5.48122 11.5289 5.48122 10.9078C5.48122 10.2867 6.00856 9.74756 6.62965 9.74756ZM10.8602 10.5913C11.4813 10.5913 12.0086 11.1186 12.0086 11.7514C12.0086 12.3725 11.4813 12.9 10.8602 12.9C10.2274 12.9 9.69996 12.3725 9.69996 11.7514C9.69996 11.1186 10.2274 10.5913 10.8602 10.5913ZM15.0789 9.74756C15.7 9.74756 16.2274 10.2867 16.2274 10.9078C16.2274 11.5289 15.7 12.0561 15.0789 12.0561C14.4461 12.0561 13.9305 11.5289 13.9305 10.9078C13.9305 10.2867 14.4461 9.74756 15.0789 9.74756Z" fill="black" fill-opacity="0.85"/>
</g>
<defs>
<clipPath id="clip0_2207_11503">
<rect width="21.5742" height="21.5977" fill="white" transform="translate(0.0671387 0.114746)"/>
</clipPath>
</defs>
</svg>
