<svg width="31" height="19" viewBox="0 0 31 19" fill="none" xmlns="http://www.w3.org/2000/svg">
<g clip-path="url(#clip0_2207_11418)">
<path d="M8.31665 0.114746C6.71118 0.114746 5.64477 0.688965 4.62524 1.97803L0.828369 6.94678C-0.238037 8.32959 -0.226318 10.1577 0.81665 11.5288L4.61352 16.5444C5.55102 17.7749 6.81665 18.4311 8.31665 18.4311H22.5198C24.0198 18.4311 25.2854 17.7749 26.2229 16.5444L30.0198 11.5288C31.0627 10.1577 31.0745 8.32959 30.0081 6.94678L26.2112 1.97803C25.1917 0.688965 24.1253 0.114746 22.5198 0.114746H8.31665Z" fill="black" fill-opacity="0.85"/>
<path d="M7.37915 7.12256C8.52758 7.12256 9.4768 8.07178 9.4768 9.22022C9.4768 10.3686 8.52758 11.3295 7.37915 11.3295C6.21899 11.3295 5.28149 10.3686 5.28149 9.22022C5.28149 8.07178 6.21899 7.12256 7.37915 7.12256ZM15.4182 9.99366C16.5667 9.99366 17.5159 10.9428 17.5159 12.0913C17.5159 13.2514 16.5667 14.1889 15.4182 14.1889C14.2698 14.1889 13.3206 13.2514 13.3206 12.0913C13.3206 10.9428 14.2698 9.99366 15.4182 9.99366ZM23.4573 7.12256C24.6174 7.12256 25.5549 8.07178 25.5549 9.22022C25.5549 10.3686 24.6174 11.3295 23.4573 11.3295C22.3088 11.3295 21.3596 10.3686 21.3596 9.22022C21.3596 8.07178 22.3088 7.12256 23.4573 7.12256Z" fill="white"/>
</g>
<defs>
<clipPath id="clip0_2207_11418">
<rect width="30.7734" height="18.3398" fill="white" transform="translate(0.0314941 0.114746)"/>
</clipPath>
</defs>
</svg>
