<svg width="24" height="25" viewBox="0 0 24 25" fill="none" xmlns="http://www.w3.org/2000/svg">
<g clip-path="url(#clip0_2207_11378)">
<path d="M11.9677 24.0209C18.5068 24.0209 23.9208 18.5952 23.9208 12.0678C23.9208 5.52881 18.4951 0.114746 11.956 0.114746C5.42871 0.114746 0.0146484 5.52881 0.0146484 12.0678C0.0146484 18.5952 5.44043 24.0209 11.9677 24.0209Z" fill="black" fill-opacity="0.85"/>
<path d="M6.74121 13.7085C5.47559 13.7085 4.46777 12.6772 4.46777 11.4233C4.46777 10.1577 5.47559 9.13818 6.74121 9.13818C8.00684 9.13818 9.02637 10.1577 9.02637 11.4233C9.02637 12.6772 8.00684 13.7085 6.74121 13.7085ZM17.1944 13.7085C15.9288 13.7085 14.9091 12.6772 14.9091 11.4233C14.9091 10.1577 15.9288 9.13818 17.1944 9.13818C18.46 9.13818 19.4677 10.1577 19.4677 11.4233C19.4677 12.6772 18.46 13.7085 17.1944 13.7085ZM11.9677 19.3335C10.7138 19.3335 9.68262 18.3256 9.68262 17.06C9.68262 15.7944 10.7138 14.7749 11.9677 14.7749C13.2216 14.7749 14.2529 15.7944 14.2529 17.06C14.2529 18.3256 13.2216 19.3335 11.9677 19.3335Z" fill="white"/>
</g>
<defs>
<clipPath id="clip0_2207_11378">
<rect width="23.9062" height="23.918" fill="white" transform="translate(0.0146484 0.114746)"/>
</clipPath>
</defs>
</svg>
