<svg width="24" height="25" viewBox="0 0 24 25" fill="none" xmlns="http://www.w3.org/2000/svg">
<g clip-path="url(#clip0_2207_11313)">
<path d="M12.0412 24.0195C18.5803 24.0195 23.9943 18.5938 23.9943 12.0664C23.9943 5.52734 18.5686 0.113281 12.0295 0.113281C5.50219 0.113281 0.0881348 5.52734 0.0881348 12.0664C0.0881348 18.5938 5.51392 24.0195 12.0412 24.0195ZM12.0412 22.0274C6.51002 22.0274 2.09204 17.5977 2.09204 12.0664C2.09204 6.53516 6.49829 2.10547 12.0295 2.10547C17.5608 2.10547 22.0022 6.53516 22.0022 12.0664C22.0022 17.5977 17.5725 22.0274 12.0412 22.0274Z" fill="black" fill-opacity="0.85"/>
<path d="M12.0412 8.11719C12.8615 8.11719 13.5412 7.4375 13.5412 6.61719C13.5412 5.79687 12.8615 5.11719 12.0412 5.11719C11.2209 5.11719 10.5412 5.79687 10.5412 6.61719C10.5412 7.4375 11.2209 8.11719 12.0412 8.11719ZM6.90844 14.2813C8.13891 14.2813 9.12329 13.2852 9.12329 12.0664C9.12329 10.8477 8.13891 9.85156 6.90844 9.85156C5.68969 9.85156 4.70532 10.8477 4.70532 12.0664C4.70532 13.2852 5.68969 14.2813 6.90844 14.2813ZM17.174 14.2813C18.3928 14.2813 19.3772 13.2852 19.3772 12.0664C19.3772 10.8477 18.3928 9.85156 17.174 9.85156C15.9436 9.85156 14.9592 10.8477 14.9592 12.0664C14.9592 13.2852 15.9436 14.2813 17.174 14.2813Z" fill="black" fill-opacity="0.85"/>
</g>
<defs>
<clipPath id="clip0_2207_11313">
<rect width="23.9062" height="23.918" fill="white" transform="translate(0.0881348 0.113281)"/>
</clipPath>
</defs>
</svg>
