<svg width="22" height="22" viewBox="0 0 22 22" fill="none" xmlns="http://www.w3.org/2000/svg">
<g clip-path="url(#clip0_2207_11528)">
<path d="M3.75733 21.7124H17.9721C20.4331 21.7124 21.6518 20.4936 21.6518 18.0795V3.771C21.6518 1.35694 20.4331 0.138184 17.9721 0.138184H3.75733C1.30811 0.138184 0.0776367 1.34522 0.0776367 3.771V18.0795C0.0776367 20.5053 1.30811 21.7124 3.75733 21.7124Z" fill="black" fill-opacity="0.85"/>
<path d="M6.14795 16.5795C5.4917 16.5795 5.01123 16.0991 5.01123 15.4429V6.37256C5.01123 5.71631 5.4917 5.23584 6.14795 5.23584H15.5815C16.2378 5.23584 16.7182 5.71631 16.7182 6.37256V15.4429C16.7182 16.0991 16.2378 16.5795 15.5815 16.5795H6.14795ZM10.8823 10.0874C11.5503 10.0874 12.101 9.54834 12.101 8.86866C12.101 8.18897 11.5503 7.64991 10.8823 7.64991C10.2026 7.64991 9.65186 8.18897 9.65186 8.86866C9.65186 9.54834 10.2026 10.0874 10.8823 10.0874ZM8.23389 14.1656C8.91358 14.1656 9.46436 13.6264 9.46436 12.9467C9.46436 12.267 8.91358 11.7163 8.23389 11.7163C7.56592 11.7163 7.01514 12.267 7.01514 12.9467C7.01514 13.6264 7.56592 14.1656 8.23389 14.1656ZM13.519 14.1656C14.1987 14.1656 14.7378 13.6264 14.7378 12.9467C14.7378 12.267 14.1987 11.7163 13.519 11.7163C12.8393 11.7163 12.2885 12.267 12.2885 12.9467C12.2885 13.6264 12.8393 14.1656 13.519 14.1656Z" fill="white"/>
</g>
<defs>
<clipPath id="clip0_2207_11528">
<rect width="21.5742" height="21.5977" fill="white" transform="translate(0.0776367 0.114746)"/>
</clipPath>
</defs>
</svg>
