<svg width="24" height="26" viewBox="0 0 24 26" fill="none" xmlns="http://www.w3.org/2000/svg">
<g clip-path="url(#clip0_2207_3390)">
<path d="M11.9867 24.6992C18.5258 24.6992 23.9398 19.2735 23.9398 12.7461C23.9398 9.14844 22.2992 6.03125 20.0492 3.98047C19.018 3.04297 17.6938 4.4375 18.7133 5.41016C20.7055 7.22656 21.9359 9.82812 21.9477 12.7461C21.9594 18.2774 17.518 22.7071 11.9867 22.7071C6.45545 22.7071 2.03748 18.2774 2.03748 12.7461C2.04919 9.80469 3.27966 7.21484 5.26013 5.39844C6.29138 4.41406 4.95545 3.03125 3.92419 3.96875C1.66248 6.01953 0.0335693 9.14844 0.0335693 12.7461C0.0335693 19.2735 5.45935 24.6992 11.9867 24.6992ZM11.9867 12.6289C12.5492 12.6289 12.9359 12.2188 12.9359 11.6328V1.10938C12.9359 0.511719 12.5492 0.113281 11.9867 0.113281C11.4242 0.113281 11.0492 0.511719 11.0492 1.10938V11.6328C11.0492 12.2188 11.4242 12.6289 11.9867 12.6289Z" fill="black" fill-opacity="0.85"/>
</g>
<defs>
<clipPath id="clip0_2207_3390">
<rect width="23.9062" height="25.2773" fill="white" transform="translate(0.0335693 0.113281)"/>
</clipPath>
</defs>
</svg>
