<svg width="30" height="21" viewBox="0 0 30 21" fill="none" xmlns="http://www.w3.org/2000/svg">
<g clip-path="url(#clip0_2207_11547)">
<path d="M0.0820312 12.5835C0.0820312 14.2592 0.996093 15.1616 2.70703 15.1616H6.53906C8.14453 15.1616 8.95312 15.5835 10.0078 16.9311C11.8242 19.2866 14.625 20.5639 17.5195 20.5639H21.1992C22.0781 20.5639 22.664 19.9897 22.664 19.1108V1.54444C22.664 0.688965 22.0781 0.114746 21.1992 0.114746H17.5195C14.625 0.114746 11.8242 1.39209 10.0078 3.74756C8.95312 5.10694 8.14453 5.52881 6.53906 5.52881H2.70703C0.996093 5.52881 0.0820312 6.41944 0.0820312 8.10694V12.5835ZM21.4218 8.11866H27.8086C28.8515 8.11866 29.6718 7.29834 29.6718 6.26709C29.6718 5.23584 28.8515 4.40381 27.8086 4.40381H21.4218V8.11866ZM21.4218 16.2866H27.8086C28.8515 16.2866 29.6718 15.4545 29.6718 14.4233C29.6718 13.392 28.8515 12.5717 27.8086 12.5717H21.4218V16.2866Z" fill="black" fill-opacity="0.85"/>
</g>
<defs>
<clipPath id="clip0_2207_11547">
<rect width="29.5898" height="20.4727" fill="white" transform="translate(0.0820312 0.114746)"/>
</clipPath>
</defs>
</svg>
