<svg width="22" height="22" viewBox="0 0 22 22" fill="none" xmlns="http://www.w3.org/2000/svg">
<g clip-path="url(#clip0_2207_11443)">
<path d="M3.72168 21.7124H17.9365C20.3975 21.7124 21.6162 20.4936 21.6162 18.0795V3.771C21.6162 1.35694 20.3975 0.138184 17.9365 0.138184H3.72168C1.27246 0.138184 0.0419922 1.34522 0.0419922 3.771V18.0795C0.0419922 20.5053 1.27246 21.7124 3.72168 21.7124ZM3.74511 19.8256C2.57324 19.8256 1.92871 19.2045 1.92871 17.9858V3.86475C1.92871 2.646 2.57324 2.02491 3.74511 2.02491H17.9131C19.0732 2.02491 19.7295 2.646 19.7295 3.86475V17.9858C19.7295 19.2045 19.0732 19.8256 17.9131 19.8256H3.74511Z" fill="black" fill-opacity="0.85"/>
<path d="M10.835 17.0601C14.2451 17.0601 16.9756 14.3179 16.9756 10.9078C16.9756 7.49756 14.2451 4.75537 10.835 4.75537C7.41309 4.75537 4.68262 7.49756 4.68262 10.9078C4.68262 14.3179 7.41309 17.0601 10.835 17.0601ZM7.917 12.2789C7.167 12.2789 6.54591 11.6578 6.54591 10.9078C6.54591 10.1578 7.167 9.53663 7.917 9.53663C8.67872 9.53663 9.28809 10.1578 9.28809 10.9078C9.28809 11.6578 8.67872 12.2789 7.917 12.2789ZM13.7412 12.2789C12.9912 12.2789 12.3701 11.6578 12.3701 10.9078C12.3701 10.1578 12.9912 9.53663 13.7412 9.53663C14.4912 9.53663 15.1123 10.1578 15.1123 10.9078C15.1123 11.6578 14.4912 12.2789 13.7412 12.2789ZM10.8232 15.5484C10.1436 15.5484 9.62794 15.0445 9.62794 14.3531V13.8375C9.62794 13.6031 9.73341 13.4976 9.96778 13.4976H11.6904C11.9248 13.4976 12.0303 13.6031 12.0303 13.8375V14.3531C12.0303 15.0445 11.5029 15.5484 10.8232 15.5484Z" fill="black" fill-opacity="0.85"/>
</g>
<defs>
<clipPath id="clip0_2207_11443">
<rect width="21.5742" height="21.5977" fill="white" transform="translate(0.0419922 0.114746)"/>
</clipPath>
</defs>
</svg>
