<svg width="24" height="25" viewBox="0 0 24 25" fill="none" xmlns="http://www.w3.org/2000/svg">
<g clip-path="url(#clip0_2207_11273)">
<path d="M12.0244 24.0195C18.5635 24.0195 23.9775 18.5938 23.9775 12.0664C23.9775 5.52734 18.5518 0.113281 12.0127 0.113281C5.48535 0.113281 0.0712891 5.52734 0.0712891 12.0664C0.0712891 18.5938 5.49707 24.0195 12.0244 24.0195ZM12.0244 22.0274C6.49317 22.0274 2.0752 17.5977 2.0752 12.0664C2.0752 6.53516 6.48145 2.10547 12.0127 2.10547C17.544 2.10547 21.9854 6.53516 21.9854 12.0664C21.9854 17.5977 17.5557 22.0274 12.0244 22.0274Z" fill="black" fill-opacity="0.85"/>
<path d="M7.24317 14.2813C8.47363 14.2813 9.45801 13.2852 9.45801 12.0664C9.45801 10.8477 8.47363 9.85156 7.24317 9.85156C6.02441 9.85156 5.04004 10.8477 5.04004 12.0664C5.04004 13.2852 6.02441 14.2813 7.24317 14.2813ZM16.8057 14.2813C18.0244 14.2813 19.0088 13.2852 19.0088 12.0664C19.0088 10.8477 18.0244 9.85156 16.8057 9.85156C15.5752 9.85156 14.5908 10.8477 14.5908 12.0664C14.5908 13.2852 15.5752 14.2813 16.8057 14.2813Z" fill="black" fill-opacity="0.85"/>
</g>
<defs>
<clipPath id="clip0_2207_11273">
<rect width="23.9062" height="23.918" fill="white" transform="translate(0.0712891 0.113281)"/>
</clipPath>
</defs>
</svg>
