<svg width="23" height="22" viewBox="0 0 23 22" fill="none" xmlns="http://www.w3.org/2000/svg">
<g clip-path="url(#clip0_2207_11258)">
<path d="M3.74488 21.711H18.698C21.1472 21.711 22.3777 20.4922 22.3777 18.0781V3.76953C22.3777 1.35547 21.1472 0.136719 18.698 0.136719H3.74488C1.29566 0.136719 0.0651855 1.34375 0.0651855 3.76953V18.0781C0.0651855 20.5039 1.29566 21.711 3.74488 21.711Z" fill="black" fill-opacity="0.85"/>
<path d="M7.02613 10.7891C6.41675 10.7891 5.95972 10.3321 5.95972 9.71094V5.97266C5.95972 5.375 6.41675 4.88281 7.02613 4.88281C7.62378 4.88281 8.10425 5.375 8.10425 5.97266V9.71094C8.10425 10.3321 7.62378 10.7891 7.02613 10.7891ZM9.78003 17.6211C9.40503 17.6211 9.21753 17.4336 9.21753 17.0586V15.6992C9.21753 14.5742 10.0847 13.6719 11.2214 13.6719C12.3464 13.6719 13.2254 14.5742 13.2254 15.6992V17.0586C13.2254 17.4336 13.0379 17.6211 12.6629 17.6211H9.78003ZM15.3933 10.7891C14.784 10.7891 14.3269 10.3321 14.3269 9.71094V5.97266C14.3269 5.375 14.784 4.88281 15.3933 4.88281C16.0027 4.88281 16.4832 5.375 16.4832 5.97266V9.71094C16.4832 10.3321 16.0027 10.7891 15.3933 10.7891Z" fill="white"/>
</g>
<defs>
<clipPath id="clip0_2207_11258">
<rect width="22.3125" height="21.5977" fill="white" transform="translate(0.0651855 0.113281)"/>
</clipPath>
</defs>
</svg>
