<svg width="22" height="22" viewBox="0 0 22 22" fill="none" xmlns="http://www.w3.org/2000/svg">
<g clip-path="url(#clip0_2207_11343)">
<path d="M3.67969 21.7124H17.8945C20.3555 21.7124 21.5742 20.4936 21.5742 18.0795V3.771C21.5742 1.35694 20.3555 0.138184 17.8945 0.138184H3.67969C1.23047 0.138184 0 1.34522 0 3.771V18.0795C0 20.5053 1.23047 21.7124 3.67969 21.7124ZM3.70312 19.8256C2.53125 19.8256 1.88672 19.2045 1.88672 17.9858V3.86475C1.88672 2.646 2.53125 2.02491 3.70312 2.02491H17.8711C19.0312 2.02491 19.6875 2.646 19.6875 3.86475V17.9858C19.6875 19.2045 19.0312 19.8256 17.8711 19.8256H3.70312Z" fill="black" fill-opacity="0.85"/>
<path d="M4.08984 11.9975C4.08984 12.4428 4.39453 12.7358 4.83984 12.7358H5.35547V13.2983C5.35547 15.3139 7.96875 17.1655 10.793 17.1655C13.6055 17.1655 16.2188 15.3139 16.2188 13.2983V12.7358H16.7344C17.1797 12.7358 17.4844 12.4428 17.4844 11.9975V9.82958C17.4844 9.38427 17.1797 9.0913 16.7344 9.0913H16.2188V8.51708C16.2188 6.51318 13.6055 4.66162 10.793 4.66162C7.96875 4.66162 5.35547 6.51318 5.35547 8.51708V9.0913H4.83984C4.39453 9.0913 4.08984 9.38427 4.08984 9.82958V11.9975ZM7.875 12.2788C7.125 12.2788 6.50391 11.6694 6.50391 10.9077C6.50391 10.1577 7.125 9.54833 7.875 9.54833C8.63672 9.54833 9.24609 10.1577 9.24609 10.9077C9.24609 11.6694 8.63672 12.2788 7.875 12.2788ZM13.6992 12.2788C12.9492 12.2788 12.3281 11.6694 12.3281 10.9077C12.3281 10.1577 12.9492 9.54833 13.6992 9.54833C14.4492 9.54833 15.0703 10.1577 15.0703 10.9077C15.0703 11.6694 14.4492 12.2788 13.6992 12.2788Z" fill="black" fill-opacity="0.85"/>
</g>
<defs>
<clipPath id="clip0_2207_11343">
<rect width="21.5742" height="21.5977" fill="white" transform="translate(0 0.114746)"/>
</clipPath>
</defs>
</svg>
