<svg width="14" height="26" viewBox="0 0 14 26" fill="none" xmlns="http://www.w3.org/2000/svg">
<g clip-path="url(#clip0_2207_11453)">
<path d="M3.65552 25.685H9.44458C11.8234 25.685 13.0539 24.4663 13.0539 22.1225V3.68897C13.0539 1.34522 11.8234 0.114746 9.44458 0.114746H3.65552C1.28833 0.114746 0.0461426 1.34522 0.0461426 3.68897V22.1225C0.0461426 24.4663 1.28833 25.685 3.65552 25.685ZM3.69067 23.7983C2.58911 23.7983 1.93286 23.1655 1.93286 22.0288V3.78272C1.93286 2.63428 2.58911 2.00147 3.69067 2.00147H9.40942C10.5109 2.00147 11.1672 2.63428 11.1672 3.78272V22.0288C11.1672 23.1655 10.5109 23.7983 9.40942 23.7983H3.69067Z" fill="black" fill-opacity="0.85"/>
<path d="M6.56177 8.3413C7.52271 8.3413 8.31959 7.55615 8.31959 6.57177C8.31959 5.61083 7.52271 4.82568 6.56177 4.82568C5.58912 4.82568 4.79224 5.61083 4.79224 6.57177C4.79224 7.55615 5.58912 8.3413 6.56177 8.3413ZM6.56177 14.6577C7.52271 14.6577 8.31959 13.8725 8.31959 12.8999C8.31959 11.9389 7.52271 11.142 6.56177 11.142C5.58912 11.142 4.79224 11.9389 4.79224 12.8999C4.79224 13.8725 5.58912 14.6577 6.56177 14.6577ZM6.56177 20.9858C7.52271 20.9858 8.31959 20.1889 8.31959 19.2163C8.31959 18.2553 7.52271 17.4702 6.56177 17.4702C5.58912 17.4702 4.79224 18.2553 4.79224 19.2163C4.79224 20.1889 5.58912 20.9858 6.56177 20.9858Z" fill="black" fill-opacity="0.85"/>
</g>
<defs>
<clipPath id="clip0_2207_11453">
<rect width="13.0078" height="25.582" fill="white" transform="translate(0.0461426 0.114746)"/>
</clipPath>
</defs>
</svg>
