<svg width="23" height="22" viewBox="0 0 23 22" fill="none" xmlns="http://www.w3.org/2000/svg">
<g clip-path="url(#clip0_2207_11358)">
<path d="M3.68604 21.7124H18.6391C21.0883 21.7124 22.3188 20.4936 22.3188 18.0795V3.771C22.3188 1.35694 21.0883 0.138184 18.6391 0.138184H3.68604C1.23682 0.138184 0.00634766 1.34522 0.00634766 3.771V18.0795C0.00634766 20.5053 1.23682 21.7124 3.68604 21.7124Z" fill="black" fill-opacity="0.85"/>
<path d="M10.6704 9.48975C10.2719 9.48975 9.99073 9.2085 9.99073 8.79834V5.271C9.99073 4.86084 10.2719 4.59131 10.6704 4.59131H11.643C12.0532 4.59131 12.3227 4.86084 12.3227 5.271V8.79834C12.3227 9.2085 12.0532 9.48975 11.643 9.48975H10.6704ZM5.36182 16.6147C4.93994 16.6147 4.68213 16.3569 4.68213 15.9467V14.9624C4.68213 14.5639 4.93994 14.2827 5.36182 14.2827H8.50244C8.9126 14.2827 9.18213 14.5522 9.18213 14.9624V15.9467C9.18213 16.3569 8.9126 16.6147 8.50244 16.6147H5.36182ZM13.8227 16.6147C13.4125 16.6147 13.1313 16.3569 13.1313 15.9467V14.9624C13.1313 14.5522 13.4125 14.2827 13.8227 14.2827H16.9516C17.3735 14.2827 17.643 14.5639 17.643 14.9624V15.9467C17.643 16.3569 17.3852 16.6147 16.9516 16.6147H13.8227Z" fill="white"/>
</g>
<defs>
<clipPath id="clip0_2207_11358">
<rect width="22.3125" height="21.5977" fill="white" transform="translate(0.00634766 0.114746)"/>
</clipPath>
</defs>
</svg>
