<svg width="24" height="25" viewBox="0 0 24 25" fill="none" xmlns="http://www.w3.org/2000/svg">
<g clip-path="url(#clip0_2207_11433)">
<path d="M11.9909 24.0209C18.53 24.0209 23.944 18.5952 23.944 12.0678C23.944 5.52881 18.5183 0.114746 11.9792 0.114746C5.4519 0.114746 0.0378418 5.52881 0.0378418 12.0678C0.0378418 18.5952 5.46362 24.0209 11.9909 24.0209ZM11.9909 22.0288C6.45972 22.0288 2.04175 17.5991 2.04175 12.0678C2.04175 6.53663 6.448 2.10694 11.9792 2.10694C17.5105 2.10694 21.9519 6.53663 21.9519 12.0678C21.9519 17.5991 17.5222 22.0288 11.9909 22.0288Z" fill="black" fill-opacity="0.85"/>
<path d="M7.20972 14.2827C8.44018 14.2827 9.42456 13.2866 9.42456 12.0678C9.42456 10.8491 8.44018 9.85303 7.20972 9.85303C5.99096 9.85303 5.00659 10.8491 5.00659 12.0678C5.00659 13.2866 5.99096 14.2827 7.20972 14.2827ZM16.7722 14.2827C17.9909 14.2827 18.9753 13.2866 18.9753 12.0678C18.9753 10.8491 17.9909 9.85303 16.7722 9.85303C15.5417 9.85303 14.5573 10.8491 14.5573 12.0678C14.5573 13.2866 15.5417 14.2827 16.7722 14.2827ZM10.5964 16.4272C10.2331 16.4272 10.0456 16.603 10.0456 16.9663V17.8217C10.0456 18.9116 10.8894 19.767 11.9909 19.767C13.0808 19.767 13.9362 18.8999 13.9362 17.8217V16.9663C13.9362 16.603 13.7487 16.4272 13.3855 16.4272H10.5964Z" fill="black" fill-opacity="0.85"/>
</g>
<defs>
<clipPath id="clip0_2207_11433">
<rect width="23.9062" height="23.918" fill="white" transform="translate(0.0378418 0.114746)"/>
</clipPath>
</defs>
</svg>
