<svg width="22" height="22" viewBox="0 0 22 22" fill="none" xmlns="http://www.w3.org/2000/svg">
<g clip-path="url(#clip0_2207_11283)">
<path d="M3.75537 21.711H17.9702C20.4312 21.711 21.6499 20.4922 21.6499 18.0781V3.76953C21.6499 1.35547 20.4312 0.136719 17.9702 0.136719H3.75537C1.30615 0.136719 0.0756836 1.34375 0.0756836 3.76953V18.0781C0.0756836 20.5039 1.30615 21.711 3.75537 21.711ZM3.7788 19.8242C2.60693 19.8242 1.9624 19.2031 1.9624 17.9844V3.86328C1.9624 2.64453 2.60693 2.02344 3.7788 2.02344H17.9468C19.1069 2.02344 19.7632 2.64453 19.7632 3.86328V17.9844C19.7632 19.2031 19.1069 19.8242 17.9468 19.8242H3.7788Z" fill="black" fill-opacity="0.85"/>
<path d="M10.8687 17.0586C14.2788 17.0586 17.0093 14.3164 17.0093 10.9063C17.0093 7.4961 14.2788 4.75391 10.8687 4.75391C7.44678 4.75391 4.71631 7.4961 4.71631 10.9063C4.71631 14.3164 7.44678 17.0586 10.8687 17.0586ZM7.95069 12.2774C7.20069 12.2774 6.5796 11.6563 6.5796 10.9063C6.5796 10.1563 7.20069 9.53517 7.95069 9.53517C8.71241 9.53517 9.32178 10.1563 9.32178 10.9063C9.32178 11.6563 8.71241 12.2774 7.95069 12.2774ZM13.7749 12.2774C13.0249 12.2774 12.4038 11.6563 12.4038 10.9063C12.4038 10.1563 13.0249 9.53517 13.7749 9.53517C14.5249 9.53517 15.146 10.1563 15.146 10.9063C15.146 11.6563 14.5249 12.2774 13.7749 12.2774Z" fill="black" fill-opacity="0.85"/>
</g>
<defs>
<clipPath id="clip0_2207_11283">
<rect width="21.5742" height="21.5977" fill="white" transform="translate(0.0756836 0.113281)"/>
</clipPath>
</defs>
</svg>
