<svg width="24" height="25" viewBox="0 0 24 25" fill="none" xmlns="http://www.w3.org/2000/svg">
<g clip-path="url(#clip0_2207_3394)">
<path d="M11.9887 24.0195C18.5278 24.0195 23.9418 18.5938 23.9418 12.0664C23.9418 5.52734 18.5161 0.113281 11.977 0.113281C5.4497 0.113281 0.0356445 5.52734 0.0356445 12.0664C0.0356445 18.5938 5.46142 24.0195 11.9887 24.0195ZM11.9887 22.0274C6.45752 22.0274 2.03955 17.5977 2.03955 12.0664C2.03955 6.53516 6.4458 2.10547 11.977 2.10547C17.5083 2.10547 21.9497 6.53516 21.9497 12.0664C21.9497 17.5977 17.52 22.0274 11.9887 22.0274Z" fill="black" fill-opacity="0.85"/>
<path d="M11.9887 18.1836C15.3403 18.1836 18.1294 15.3945 18.1294 12.0547C18.1294 10.3789 17.3794 8.70312 16.1254 7.55469C15.3168 6.80469 14.227 7.95312 15.0473 8.72656C15.9731 9.58203 16.5004 10.7656 16.5122 12.0547C16.5122 14.5742 14.5083 16.5781 11.9887 16.5781C9.46923 16.5781 7.47705 14.5742 7.47705 12.0547C7.47705 10.7656 7.99267 9.58203 8.93017 8.71484C9.75048 7.9414 8.66064 6.79297 7.86376 7.55469C6.59814 8.6914 5.84814 10.3555 5.84814 12.0547C5.84814 15.3945 8.6372 18.1836 11.9887 18.1836ZM11.9887 12.3242C12.4458 12.3242 12.7739 11.9844 12.7739 11.5156V6.39453C12.7739 5.92578 12.4458 5.59766 11.9887 5.59766C11.5317 5.59766 11.2153 5.92578 11.2153 6.39453V11.5156C11.2153 11.9844 11.5317 12.3242 11.9887 12.3242Z" fill="black" fill-opacity="0.85"/>
</g>
<defs>
<clipPath id="clip0_2207_3394">
<rect width="23.9062" height="23.918" fill="white" transform="translate(0.0356445 0.113281)"/>
</clipPath>
</defs>
</svg>
