<svg width="22" height="22" viewBox="0 0 22 22" fill="none" xmlns="http://www.w3.org/2000/svg">
<g clip-path="url(#clip0_2207_11368)">
<path d="M3.69019 21.7124H17.905C20.366 21.7124 21.5847 20.4936 21.5847 18.0795V3.771C21.5847 1.35694 20.366 0.138184 17.905 0.138184H3.69019C1.24097 0.138184 0.010498 1.34522 0.010498 3.771V18.0795C0.010498 20.5053 1.24097 21.7124 3.69019 21.7124Z" fill="black" fill-opacity="0.85"/>
<path d="M6.18628 16.5913C5.53003 16.5913 5.04956 16.1108 5.04956 15.4545V6.38428C5.04956 5.72803 5.53003 5.24756 6.18628 5.24756H15.4793C16.1355 5.24756 16.616 5.72803 16.616 6.38428V15.4545C16.616 16.1108 16.1355 16.5913 15.4793 16.5913H6.18628ZM10.5457 10.0405H11.0964C11.3894 10.0405 11.6121 9.85303 11.6121 9.54834V7.56787C11.6121 7.27491 11.3894 7.07569 11.0964 7.07569H10.5457C10.2527 7.07569 10.0535 7.27491 10.0535 7.56787V9.54834C10.0535 9.85303 10.2527 10.0405 10.5457 10.0405ZM7.323 14.6577H9.20972C9.49097 14.6577 9.69019 14.4585 9.69019 14.1655V13.603C9.69019 13.31 9.49097 13.0991 9.20972 13.0991H7.323C7.01831 13.0991 6.81909 13.31 6.81909 13.603V14.1655C6.81909 14.4585 7.01831 14.6577 7.323 14.6577ZM12.4793 14.6577H14.3425C14.6472 14.6577 14.8464 14.4585 14.8464 14.1655V13.603C14.8464 13.31 14.6472 13.0991 14.3425 13.0991H12.4793C12.1746 13.0991 11.9753 13.31 11.9753 13.603V14.1655C11.9753 14.4585 12.1746 14.6577 12.4793 14.6577Z" fill="white"/>
</g>
<defs>
<clipPath id="clip0_2207_11368">
<rect width="21.5742" height="21.5977" fill="white" transform="translate(0.010498 0.114746)"/>
</clipPath>
</defs>
</svg>
