<svg width="22" height="22" viewBox="0 0 22 22" fill="none" xmlns="http://www.w3.org/2000/svg">
<g clip-path="url(#clip0_2207_11243)">
<path d="M3.73853 21.711H17.9533C20.4143 21.711 21.633 20.4922 21.633 18.0781V3.76953C21.633 1.35547 20.4143 0.136719 17.9533 0.136719H3.73853C1.28931 0.136719 0.0588379 1.34375 0.0588379 3.76953V18.0781C0.0588379 20.5039 1.28931 21.711 3.73853 21.711ZM3.76196 19.8242C2.59009 19.8242 1.94556 19.2031 1.94556 17.9844V3.86328C1.94556 2.64453 2.59009 2.02344 3.76196 2.02344H17.9299C19.09 2.02344 19.7463 2.64453 19.7463 3.86328V17.9844C19.7463 19.2031 19.09 19.8242 17.9299 19.8242H3.76196Z" fill="black" fill-opacity="0.85"/>
<path d="M7.13695 16.2735H14.5549C14.8947 16.2735 15.2229 16.168 15.469 15.9219C16.7697 14.7031 17.6604 12.8516 17.6604 10.918C17.6604 8.98437 16.7697 7.13281 15.469 5.92578C15.2229 5.67969 14.8947 5.57422 14.5549 5.57422H7.13695C6.79711 5.57422 6.48071 5.66797 6.23461 5.89062C4.93383 7.10937 4.03149 8.97266 4.03149 10.918C4.03149 12.8516 4.92211 14.7031 6.22289 15.9219C6.46899 16.168 6.79711 16.2735 7.13695 16.2735ZM7.99242 13.6485C7.62914 13.6485 7.33617 13.3555 7.33617 12.9805V8.84375C7.33617 8.46875 7.62914 8.1875 7.99242 8.1875C8.36742 8.1875 8.66039 8.46875 8.66039 8.84375V12.9805C8.66039 13.3555 8.36742 13.6485 7.99242 13.6485ZM13.6994 13.6485C13.3244 13.6485 13.0432 13.3555 13.0432 12.9805V8.84375C13.0432 8.46875 13.3244 8.1875 13.6994 8.1875C14.0744 8.1875 14.3557 8.46875 14.3557 8.84375V12.9805C14.3557 13.3555 14.0744 13.6485 13.6994 13.6485Z" fill="black" fill-opacity="0.85"/>
</g>
<defs>
<clipPath id="clip0_2207_11243">
<rect width="21.5742" height="21.5977" fill="white" transform="translate(0.0588379 0.113281)"/>
</clipPath>
</defs>
</svg>
