<svg width="23" height="22" viewBox="0 0 23 22" fill="none" xmlns="http://www.w3.org/2000/svg">
<g clip-path="url(#clip0_2207_11478)">
<path d="M3.73633 21.7124H18.6894C21.1386 21.7124 22.3691 20.4936 22.3691 18.0795V3.771C22.3691 1.35694 21.1386 0.138184 18.6894 0.138184H3.73633C1.28711 0.138184 0.0566406 1.34522 0.0566406 3.771V18.0795C0.0566406 20.5053 1.28711 21.7124 3.73633 21.7124Z" fill="black" fill-opacity="0.85"/>
<path d="M7.07617 16.6616C6.06836 16.6616 5.24805 15.8413 5.24805 14.8335C5.24805 13.8491 6.06836 13.017 7.07617 13.017C8.07226 13.017 8.88086 13.8491 8.88086 14.8335C8.88086 15.8413 8.07226 16.6616 7.07617 16.6616ZM15.3613 16.6616C14.3535 16.6616 13.5449 15.8413 13.5449 14.8335C13.5449 13.8491 14.3535 13.017 15.3613 13.017C16.3457 13.017 17.1777 13.8491 17.1777 14.8335C17.1777 15.8413 16.3457 16.6616 15.3613 16.6616ZM11.2128 8.78663C10.205 8.78663 9.38476 7.96631 9.38476 6.9585C9.38476 5.96241 10.205 5.15381 11.2128 5.15381C12.2089 5.15381 13.0293 5.96241 13.0293 6.9585C13.0293 7.96631 12.2089 8.78663 11.2128 8.78663Z" fill="white"/>
</g>
<defs>
<clipPath id="clip0_2207_11478">
<rect width="22.3125" height="21.5977" fill="white" transform="translate(0.0566406 0.114746)"/>
</clipPath>
</defs>
</svg>
