<svg width="22" height="22" viewBox="0 0 22 22" fill="none" xmlns="http://www.w3.org/2000/svg">
<g clip-path="url(#clip0_2207_11523)">
<path d="M3.75537 21.7124H17.9702C20.4312 21.7124 21.6499 20.4936 21.6499 18.0795V3.771C21.6499 1.35694 20.4312 0.138184 17.9702 0.138184H3.75537C1.30615 0.138184 0.0756836 1.34522 0.0756836 3.771V18.0795C0.0756836 20.5053 1.30615 21.7124 3.75537 21.7124ZM3.7788 19.8256C2.60693 19.8256 1.9624 19.2045 1.9624 17.9858V3.86475C1.9624 2.646 2.60693 2.02491 3.7788 2.02491H17.9468C19.1069 2.02491 19.7632 2.646 19.7632 3.86475V17.9858C19.7632 19.2045 19.1069 19.8256 17.9468 19.8256H3.7788Z" fill="black" fill-opacity="0.85"/>
<path d="M6.28662 16.4038H15.439C16.0718 16.4038 16.5405 15.935 16.5405 15.3022V6.51318C16.5405 5.88036 16.0718 5.41162 15.439 5.41162H6.28662C5.6538 5.41162 5.18506 5.88036 5.18506 6.51318V15.3022C5.18506 15.935 5.6538 16.4038 6.28662 16.4038ZM10.8804 10.1108C10.2241 10.1108 9.68506 9.58349 9.68506 8.92724C9.68506 8.27099 10.2241 7.75536 10.8804 7.75536C11.5249 7.75536 12.064 8.27099 12.064 8.92724C12.064 9.58349 11.5249 10.1108 10.8804 10.1108ZM8.31396 14.06C7.66943 14.06 7.13037 13.5444 7.13037 12.8881C7.13037 12.2202 7.66943 11.6928 8.31396 11.6928C8.97021 11.6928 9.50927 12.2202 9.50927 12.8881C9.50927 13.5444 8.97021 14.06 8.31396 14.06ZM13.4351 14.06C12.7788 14.06 12.2398 13.5444 12.2398 12.8881C12.2398 12.2202 12.7788 11.6928 13.4351 11.6928C14.0913 11.6928 14.6187 12.2202 14.6187 12.8881C14.6187 13.5444 14.0913 14.06 13.4351 14.06Z" fill="black" fill-opacity="0.85"/>
</g>
<defs>
<clipPath id="clip0_2207_11523">
<rect width="21.5742" height="21.5977" fill="white" transform="translate(0.0756836 0.114746)"/>
</clipPath>
</defs>
</svg>
