<svg width="22" height="22" viewBox="0 0 22 22" fill="none" xmlns="http://www.w3.org/2000/svg">
<g clip-path="url(#clip0_2207_11463)">
<path d="M3.7301 21.7124H17.9449C20.4059 21.7124 21.6246 20.4936 21.6246 18.0795V3.771C21.6246 1.35694 20.4059 0.138184 17.9449 0.138184H3.7301C1.28088 0.138184 0.050415 1.34522 0.050415 3.771V18.0795C0.050415 20.5053 1.28088 21.7124 3.7301 21.7124ZM3.75354 19.8256C2.58167 19.8256 1.93713 19.2045 1.93713 17.9858V3.86475C1.93713 2.646 2.58167 2.02491 3.75354 2.02491H17.9215C19.0816 2.02491 19.7379 2.646 19.7379 3.86475V17.9858C19.7379 19.2045 19.0816 19.8256 17.9215 19.8256H3.75354Z" fill="black" fill-opacity="0.85"/>
<path d="M8.79261 17.7164H12.8824C13.527 17.7164 13.984 17.2592 13.984 16.6147V5.20069C13.984 4.56787 13.527 4.11084 12.8824 4.11084H8.79261C8.14808 4.11084 7.69104 4.56787 7.69104 5.20069V16.6147C7.69104 17.2592 8.14808 17.7164 8.79261 17.7164ZM10.8434 8.271C10.1871 8.271 9.64808 7.74366 9.64808 7.08741C9.64808 6.43116 10.1871 5.90381 10.8434 5.90381C11.4879 5.90381 12.027 6.43116 12.027 7.08741C12.027 7.74366 11.4879 8.271 10.8434 8.271ZM10.8434 12.0913C10.1871 12.0913 9.64808 11.564 9.64808 10.9078C9.64808 10.2515 10.1871 9.72413 10.8434 9.72413C11.4879 9.72413 12.027 10.2515 12.027 10.9078C12.027 11.564 11.4879 12.0913 10.8434 12.0913ZM10.8434 15.9116C10.1871 15.9116 9.64808 15.3843 9.64808 14.7281C9.64808 14.0601 10.1871 13.5444 10.8434 13.5444C11.4879 13.5444 12.027 14.0601 12.027 14.7281C12.027 15.3843 11.4879 15.9116 10.8434 15.9116Z" fill="black" fill-opacity="0.85"/>
</g>
<defs>
<clipPath id="clip0_2207_11463">
<rect width="21.5742" height="21.5977" fill="white" transform="translate(0.050415 0.114746)"/>
</clipPath>
</defs>
</svg>
