<svg width="27" height="26" viewBox="0 0 27 26" fill="none" xmlns="http://www.w3.org/2000/svg">
<g clip-path="url(#clip0_2207_10567)">
<path d="M4.72681 5.48194H6.54322V3.67725C6.54322 2.69287 7.04713 2.21241 8.01978 2.21241H18.6253C19.6096 2.21241 20.1018 2.69287 20.1018 3.67725V5.4585H21.9182V3.80616C21.9182 1.521 20.7815 0.501465 18.6018 0.501465H8.04322C5.98072 0.501465 4.72681 1.521 4.72681 3.80616V5.48194Z" fill="black" fill-opacity="0.85"/>
<path d="M3.57837 22.2631H23.0784C25.3518 22.2631 26.5589 21.1147 26.5589 18.8295V7.86084C26.5589 5.58741 25.3518 4.42725 23.0784 4.42725H3.57837C1.4104 4.42725 0.0861816 5.58741 0.0861816 7.86084V18.8295C0.0861816 21.1147 1.29321 22.2631 3.57837 22.2631ZM1.98462 18.9233V7.76709C1.98462 6.73584 2.51196 6.19678 3.55493 6.19678H23.1018C24.1331 6.19678 24.6721 6.73584 24.6721 7.76709V18.9233C24.6721 19.9545 24.1331 20.4936 23.1018 20.4936H3.55493C2.51196 20.4936 1.98462 19.9545 1.98462 18.9233ZM20.4768 10.4389C21.262 10.4389 21.93 9.78272 21.93 8.97413C21.93 8.18897 21.262 7.521 20.4768 7.521C19.6682 7.521 19.012 8.18897 19.012 8.97413C19.012 9.78272 19.6682 10.4389 20.4768 10.4389Z" fill="black" fill-opacity="0.85"/>
<path d="M7.04712 25.7437H19.5979C21.0862 25.7437 21.8362 25.064 21.8362 23.5054V13.9429C21.8362 12.3843 21.0862 11.7046 19.5979 11.7046H7.04712C5.62915 11.7046 4.80884 12.3843 4.80884 13.9429V23.5054C4.80884 25.064 5.55884 25.7437 7.04712 25.7437Z" fill="white"/>
<path d="M7.04712 25.7437H19.5979C21.0862 25.7437 21.8362 25.064 21.8362 23.5054V13.9429C21.8362 12.3843 21.0862 11.7046 19.5979 11.7046H7.04712C5.62915 11.7046 4.80884 12.3843 4.80884 13.9429V23.5054C4.80884 25.064 5.55884 25.7437 7.04712 25.7437ZM7.63306 23.9742C7.01196 23.9742 6.69556 23.6695 6.69556 23.0367V14.4C6.69556 13.7671 7.01196 13.4742 7.63306 13.4742H19.0237C19.6565 13.4742 19.9495 13.7671 19.9495 14.4V23.0367C19.9495 23.6695 19.6565 23.9742 19.0237 23.9742H7.63306ZM9.26196 17.4H17.4065C17.8284 17.4 18.1331 17.0836 18.1331 16.6617C18.1331 16.2632 17.8284 15.9586 17.4065 15.9586H9.26196C8.84009 15.9586 8.52368 16.2632 8.52368 16.6617C8.52368 17.0836 8.84009 17.4 9.26196 17.4ZM9.26196 21.4898H17.4065C17.8284 21.4898 18.1331 21.1734 18.1331 20.775C18.1331 20.3648 17.8284 20.0484 17.4065 20.0484H9.26196C8.84009 20.0484 8.52368 20.3648 8.52368 20.775C8.52368 21.1734 8.84009 21.4898 9.26196 21.4898Z" fill="black" fill-opacity="0.85"/>
</g>
<defs>
<clipPath id="clip0_2207_10567">
<rect width="26.4727" height="25.6289" fill="white" transform="translate(0.0861816 0.114746)"/>
</clipPath>
</defs>
</svg>
