<svg width="30" height="26" viewBox="0 0 30 26" fill="none" xmlns="http://www.w3.org/2000/svg">
<g clip-path="url(#clip0_2207_10605)">
<path d="M6.32666 5.77491H23.3892V3.021C23.3892 1.28663 22.0532 0.501465 20.1431 0.501465H9.58447C7.76806 0.501465 6.32666 1.28663 6.32666 3.021V5.77491Z" fill="black" fill-opacity="0.85"/>
<path d="M5.17823 22.8608H24.5376C27.69 22.8608 29.6235 20.9975 29.6235 17.8217V8.28271C29.6235 5.10693 27.69 3.24365 24.5376 3.24365H5.17823C2.14306 3.24365 0.0922852 5.10693 0.0922852 8.28271V17.8217C0.0922852 20.9975 2.02588 22.8608 5.17823 22.8608Z" fill="white"/>
<path d="M5.17822 21.2553H24.5376C26.8111 21.2553 28.0181 20.1069 28.0181 17.8217V8.28271C28.0181 5.99755 26.8111 4.8374 24.5376 4.8374H5.17822C3.02197 4.8374 1.69775 5.99755 1.69775 8.28271V17.8217C1.69775 20.1069 2.90478 21.2553 5.17822 21.2553ZM22.0767 10.2163C21.2446 10.2163 20.565 9.54833 20.565 8.7163C20.565 7.89599 21.2446 7.20458 22.0767 7.20458C22.8853 7.20458 23.5767 7.89599 23.5767 8.7163C23.5767 9.53662 22.8853 10.2163 22.0767 10.2163Z" fill="black" fill-opacity="0.85"/>
<path d="M8.23682 25.7437H21.4907C22.979 25.7437 23.729 25.064 23.729 23.5054V13.9429C23.729 12.3843 22.979 11.7046 21.4907 11.7046H8.23682C6.81885 11.7046 5.98682 12.3843 5.98682 13.9429V23.5054C5.98682 25.064 6.74854 25.7437 8.23682 25.7437Z" fill="white"/>
<path d="M8.23682 25.7437H21.4907C22.979 25.7437 23.729 25.064 23.729 23.5054V13.9429C23.729 12.3843 22.979 11.7046 21.4907 11.7046H8.23682C6.81885 11.7046 5.98682 12.3843 5.98682 13.9429V23.5054C5.98682 25.064 6.74854 25.7437 8.23682 25.7437ZM8.82276 23.9742C8.18995 23.9742 7.88526 23.6695 7.88526 23.0367V14.4C7.88526 13.7671 8.18995 13.4742 8.82276 13.4742H20.9165C21.5376 13.4742 21.8306 13.7671 21.8306 14.4V23.0367C21.8306 23.6695 21.5376 23.9742 20.9165 23.9742H8.82276ZM11.1196 16.5445C11.7056 16.5445 12.1743 16.0875 12.1743 15.4898C12.1743 14.9039 11.7056 14.4468 11.1196 14.4468C10.5337 14.4468 10.0649 14.9039 10.0649 15.4898C10.0649 16.0875 10.5337 16.5445 11.1196 16.5445ZM11.1196 19.7671C11.7056 19.7671 12.1743 19.3101 12.1743 18.7242C12.1743 18.1382 11.7056 17.6695 11.1196 17.6695C10.5337 17.6695 10.0649 18.1382 10.0649 18.7242C10.0649 19.3101 10.5337 19.7671 11.1196 19.7671ZM11.1196 23.0015C11.7056 23.0015 12.1743 22.5445 12.1743 21.9468C12.1743 21.3609 11.7056 20.9039 11.1196 20.9039C10.5337 20.9039 10.0649 21.3609 10.0649 21.9468C10.0649 22.5445 10.5337 23.0015 11.1196 23.0015ZM18.6079 16.5445C19.2056 16.5445 19.6743 16.0875 19.6743 15.4898C19.6743 14.9039 19.2056 14.4468 18.6079 14.4468C18.0337 14.4468 17.565 14.9039 17.565 15.4898C17.565 16.0875 18.0337 16.5445 18.6079 16.5445ZM18.6079 19.7671C19.2056 19.7671 19.6743 19.3101 19.6743 18.7242C19.6743 18.1382 19.2056 17.6695 18.6079 17.6695C18.0337 17.6695 17.565 18.1382 17.565 18.7242C17.565 19.3101 18.0337 19.7671 18.6079 19.7671ZM18.6079 23.0015C19.2056 23.0015 19.6743 22.5445 19.6743 21.9468C19.6743 21.3609 19.2056 20.9039 18.6079 20.9039C18.0337 20.9039 17.565 21.3609 17.565 21.9468C17.565 22.5445 18.0337 23.0015 18.6079 23.0015Z" fill="black" fill-opacity="0.85"/>
</g>
<defs>
<clipPath id="clip0_2207_10605">
<rect width="29.5312" height="25.6289" fill="white" transform="translate(0.0922852 0.114746)"/>
</clipPath>
</defs>
</svg>
