<svg width="17" height="23" viewBox="0 0 17 23" fill="none" xmlns="http://www.w3.org/2000/svg">
<g clip-path="url(#clip0_2207_21879)">
<path d="M0 17.3193C0 17.6006 0.128906 17.8584 0.316406 18.0459L4.14844 21.8662C4.52344 22.2529 4.93359 22.4287 5.35547 22.4287C5.76562 22.4287 6.16406 22.2412 6.53906 21.8662L10.3828 18.0342C10.582 17.835 10.6992 17.5771 10.6992 17.3076C10.6992 16.7803 10.2773 16.3818 9.80859 16.3818C9.45703 16.3818 9.23438 16.5107 9.03516 16.6982L8.02734 17.706L6.23438 19.7568L6.35156 15.9717V7.07715C6.35156 4.1123 7.99219 2.12012 10.7109 2.12012C13.2539 2.12012 15.0234 3.88965 15.0234 6.5498C15.0234 9.11621 13.2891 10.9209 10.8984 10.9209C10.0664 10.9209 9.85547 10.7451 9.44531 10.7451C8.94141 10.7451 8.53125 11.085 8.53125 11.6123C8.53125 11.9639 8.70703 12.2334 8.96484 12.4326C9.41016 12.7842 10.1602 12.9131 10.8398 12.9131C14.5664 12.9131 16.9922 10.3115 16.9922 6.5498C16.9922 2.68262 14.4375 0.116211 10.7109 0.116211C6.91406 0.116211 4.33594 2.64746 4.33594 7.15918V15.9834L4.45312 19.7568L2.66016 17.7178L1.65234 16.71C1.46484 16.5224 1.24219 16.3935 0.890625 16.3935C0.410156 16.3935 0 16.792 0 17.3193Z" fill="black" fill-opacity="0.85"/>
</g>
<defs>
<clipPath id="clip0_2207_21879">
<rect width="16.9922" height="22.3242" fill="white" transform="translate(0 0.116211)"/>
</clipPath>
</defs>
</svg>
