<svg width="34" height="23" viewBox="0 0 34 23" fill="none" xmlns="http://www.w3.org/2000/svg">
<g clip-path="url(#clip0_2207_10783)">
<path d="M0.0126953 11.4014C0.0126953 13.792 1.7002 15.1045 3.59864 15.1045C4.3955 15.1045 4.99317 14.8818 5.70801 14.4365C6.37598 14.0264 6.85645 14.2724 6.85645 14.8467V19.1826C6.85645 21.4912 8.0752 22.6748 10.4072 22.6748H13.5361C14.0986 22.6748 14.3447 22.206 13.9463 21.5381C13.4893 20.8232 13.2666 20.2256 13.2666 19.4287C13.2666 17.5303 14.5908 15.8428 16.9815 15.8428C19.3721 15.8428 20.6846 17.5303 20.6846 19.4287C20.6846 20.2256 20.4619 20.8232 20.0166 21.5381C19.6182 22.206 19.8525 22.6748 20.4268 22.6748H23.5557C25.8877 22.6748 27.1065 21.4912 27.1065 19.1826V14.8467C27.1065 14.2724 27.5869 14.0264 28.2432 14.4365C28.9697 14.8818 29.5674 15.1045 30.3525 15.1045C32.2627 15.1045 33.9502 13.792 33.9502 11.4014C33.9502 8.99902 32.2627 7.68652 30.3525 7.68652C29.5674 7.68652 28.9697 7.90918 28.2432 8.35449C27.5869 8.76465 27.1065 8.51855 27.1065 7.94433V3.6084C27.1065 1.31152 25.8877 0.116211 23.5557 0.116211H20.4268C19.8525 0.116211 19.6182 0.59668 20.0166 1.26465C20.4619 1.97949 20.6846 2.57715 20.6846 3.37402C20.6846 5.27246 19.3721 6.95996 16.9815 6.95996C14.5908 6.95996 13.2666 5.27246 13.2666 3.37402C13.2666 2.57715 13.4893 1.97949 13.9463 1.26465C14.3447 0.59668 14.0986 0.116211 13.5361 0.116211H10.4072C8.0752 0.116211 6.85645 1.31152 6.85645 3.6084V7.94433C6.85645 8.51855 6.37598 8.76465 5.70801 8.35449C4.99317 7.90918 4.3955 7.68652 3.59864 7.68652C1.7002 7.68652 0.0126953 8.99902 0.0126953 11.4014Z" fill="black" fill-opacity="0.85"/>
</g>
<defs>
<clipPath id="clip0_2207_10783">
<rect width="33.9375" height="22.6055" fill="white" transform="translate(0.0126953 0.116211)"/>
</clipPath>
</defs>
</svg>
