<svg width="22" height="22" viewBox="0 0 22 22" fill="none" xmlns="http://www.w3.org/2000/svg">
<g clip-path="url(#clip0_2207_25156)">
<path d="M3.70288 21.7139H17.9177C20.3787 21.7139 21.5974 20.4951 21.5974 18.081V3.77246C21.5974 1.3584 20.3787 0.139648 17.9177 0.139648H3.70288C1.25366 0.139648 0.0231934 1.34668 0.0231934 3.77246V18.081C0.0231934 20.5068 1.25366 21.7139 3.70288 21.7139ZM3.72631 19.8271C2.55444 19.8271 1.90991 19.206 1.90991 17.9873V3.86621C1.90991 2.64746 2.55444 2.02637 3.72631 2.02637H17.8943C19.0544 2.02637 19.7107 2.64746 19.7107 3.86621V17.9873C19.7107 19.206 19.0544 19.8271 17.8943 19.8271H3.72631Z" fill="black" fill-opacity="0.85"/>
<path d="M10.8162 16.4053C11.4959 16.4053 12.1404 16.2881 12.6912 16.0654L13.5115 17.167C13.7341 17.4834 13.9568 17.5889 14.2498 17.5889C14.6599 17.5889 14.9529 17.3076 14.9529 16.8974C14.9529 16.6865 14.8826 16.5459 14.6599 16.2529L13.9568 15.3154C15.1638 14.3428 15.8904 12.749 15.8904 10.8037C15.8904 7.49902 13.8162 5.19043 10.8162 5.19043C7.81616 5.19043 5.74194 7.49902 5.74194 10.8037C5.74194 14.0967 7.81616 16.4053 10.8162 16.4053ZM10.8162 14.9287C8.88257 14.9287 7.61694 13.2998 7.61694 10.8037C7.61694 8.2959 8.88257 6.66699 10.8162 6.66699C12.7615 6.66699 14.0271 8.2959 14.0271 10.8037C14.0271 12.1631 13.6404 13.2764 12.9607 13.9795L12.2927 13.0771C12.1052 12.831 11.9294 12.749 11.6599 12.749C11.2732 12.749 10.9568 13.042 10.9568 13.417C10.9568 13.6162 11.0271 13.7803 11.1794 14.0029L11.7537 14.7881C11.4724 14.8818 11.1677 14.9287 10.8162 14.9287Z" fill="black" fill-opacity="0.85"/>
</g>
<defs>
<clipPath id="clip0_2207_25156">
<rect width="21.5742" height="21.5977" fill="white" transform="translate(0.0231934 0.116211)"/>
</clipPath>
</defs>
</svg>
