<svg width="29" height="20" viewBox="0 0 29 20" fill="none" xmlns="http://www.w3.org/2000/svg">
<g id="questionmark.video.fill" clip-path="url(#clip0_2201_863)">
<g id="Group">
<path id="Vector" d="M3.76172 19.0312H16.3477C18.7031 19.0312 20.1094 17.6719 20.1094 15.3164V3.70312C20.1094 1.35938 18.8203 0 16.4648 0H3.76172C1.51172 0 0 1.35938 0 3.70312V15.3164C0 17.6719 1.40625 19.0312 3.76172 19.0312ZM21.7031 12.9727L25.9688 16.6641C26.3672 17.0156 26.8359 17.2383 27.2578 17.2383C28.1719 17.2383 28.7695 16.5703 28.7695 15.6094V3.42188C28.7695 2.46094 28.1719 1.79297 27.2578 1.79297C26.8359 1.79297 26.3672 2.01562 25.9688 2.36719L21.7031 6.04688V12.9727Z" fill="black" fill-opacity="0.85"/>
<path id="Vector_2" d="M9.73828 11.8359C9.16406 11.8359 8.85938 11.543 8.85938 10.957C8.85938 10.9219 8.85938 10.8633 8.85938 10.8164C8.85938 9.75 9.44531 9.17578 10.2305 8.61328C11.1797 7.95703 11.6484 7.59375 11.6484 6.84375C11.6484 6.01172 11.0039 5.46094 10.0078 5.46094C9.28125 5.46094 8.75391 5.8125 8.39062 6.39844C8.03906 6.82031 7.93359 7.16016 7.3125 7.16016C6.94922 7.16016 6.55078 6.89062 6.55078 6.39844C6.55078 6.21094 6.58594 6.02344 6.64453 5.84766C6.97266 4.83984 8.17969 3.96094 10.0664 3.96094C11.9414 3.96094 13.5703 4.93359 13.5703 6.76172C13.5703 8.07422 12.8086 8.71875 11.7539 9.42188C10.9805 9.92578 10.6289 10.3008 10.6289 10.9219C10.6289 10.9688 10.6289 11.0156 10.6289 11.0508C10.6289 11.4961 10.2891 11.8359 9.73828 11.8359ZM9.70312 15.1055C9.07031 15.1055 8.53125 14.5898 8.53125 13.9688C8.53125 13.3359 9.05859 12.8203 9.70312 12.8203C10.3477 12.8203 10.8867 13.3359 10.8867 13.9688C10.8867 14.6016 10.3359 15.1055 9.70312 15.1055Z" fill="white"/>
</g>
</g>
<defs>
<clipPath id="clip0_2201_863">
<rect width="28.7695" height="19.043" fill="white"/>
</clipPath>
</defs>
</svg>
