<svg width="22" height="22" viewBox="0 0 22 22" fill="none" xmlns="http://www.w3.org/2000/svg">
<g clip-path="url(#clip0_2207_6828)">
<path d="M1.40673 1.52246C0.258301 2.6709 0.0356445 4.26465 0.0356445 6.16309V6.28027H1.92236V6.09277C1.92236 4.8623 2.0747 3.59668 2.77783 2.89355C3.49267 2.17871 4.77002 2.02637 6.00048 2.02637H6.21142V0.139648H6.0708C4.17236 0.139648 2.56689 0.362305 1.40673 1.52246ZM7.81689 2.02637H13.8637V0.139648H7.81689V2.02637ZM20.2739 1.52246C19.1137 0.362305 17.5083 0.139648 15.5747 0.139648H15.4575V2.02637H15.7153C16.9223 2.02637 18.1879 2.19043 18.8911 2.89355C19.6059 3.6084 19.7583 4.85059 19.7583 6.05762V6.28027H21.645V6.19824C21.645 4.25293 21.4223 2.65918 20.2739 1.52246ZM19.7583 13.8974H21.645V7.88574H19.7583V13.8974ZM20.2739 20.2607C21.4223 19.1123 21.645 17.5303 21.645 15.585V15.5029H19.7583V15.7139C19.7583 16.9326 19.6059 18.1748 18.8911 18.8896C18.1879 19.5928 16.9223 19.7568 15.7153 19.7568H15.4575V21.6435H15.5747C17.5083 21.6435 19.1137 21.4209 20.2739 20.2607ZM7.81689 21.6435H13.8637V19.7568H7.81689V21.6435ZM1.40673 20.2607C2.56689 21.4209 4.17236 21.6435 6.09423 21.6435H6.21142V19.7568H5.96533C4.7583 19.7568 3.49267 19.5928 2.77783 18.8896C2.0747 18.1748 1.92236 16.9326 1.92236 15.7139V15.5029H0.0356445V15.585C0.0356445 17.5303 0.258301 19.1123 1.40673 20.2607ZM0.0356445 13.8974H1.92236V7.88574H0.0356445V13.8974Z" fill="black" fill-opacity="0.85"/>
<path d="M10.6176 13.2998C11.2036 13.2998 11.5551 12.9248 11.5551 12.4678C11.5551 12.4209 11.5551 12.3623 11.5551 12.3271C11.5551 11.6709 11.9418 11.249 12.7504 10.71C13.8872 9.95996 14.6958 9.28027 14.6958 7.87402C14.6958 5.92871 12.9731 4.87402 10.9809 4.87402C8.96534 4.87402 7.64112 5.83496 7.31299 6.91309C7.2544 7.10059 7.21924 7.28809 7.21924 7.4873C7.21924 8.01465 7.6294 8.2959 8.02784 8.2959C8.42627 8.2959 8.67237 8.1084 8.88331 7.82715L9.09424 7.5459C9.5044 6.86621 10.1254 6.46777 10.8989 6.46777C11.9653 6.46777 12.6684 7.07715 12.6684 7.96777C12.6684 8.76465 12.1645 9.15137 11.145 9.86621C10.3012 10.4521 9.68018 11.0732 9.68018 12.2217C9.68018 12.2685 9.68018 12.3271 9.68018 12.374C9.68018 12.9834 10.0083 13.2998 10.6176 13.2998ZM10.5825 16.792C11.2622 16.792 11.8481 16.2529 11.8481 15.5732C11.8481 14.8935 11.2739 14.3545 10.5825 14.3545C9.89112 14.3545 9.3169 14.9053 9.3169 15.5732C9.3169 16.2412 9.90284 16.792 10.5825 16.792Z" fill="black" fill-opacity="0.85"/>
</g>
<defs>
<clipPath id="clip0_2207_6828">
<rect width="21.6094" height="21.5273" fill="white" transform="translate(0.0356445 0.116211)"/>
</clipPath>
</defs>
</svg>
