<svg width="22" height="22" viewBox="0 0 22 22" fill="none" xmlns="http://www.w3.org/2000/svg">
<g clip-path="url(#clip0_2207_22677)">
<path d="M3.74268 21.7139H17.9575C20.4185 21.7139 21.6372 20.4951 21.6372 18.081V3.77246C21.6372 1.3584 20.4185 0.139648 17.9575 0.139648H3.74268C1.29346 0.139648 0.0629883 1.34668 0.0629883 3.77246V18.081C0.0629883 20.5068 1.29346 21.7139 3.74268 21.7139Z" fill="black" fill-opacity="0.85"/>
<path d="M10.6099 13.417C9.98877 13.417 9.64893 13.0889 9.64893 12.456C9.64893 12.4092 9.64893 12.3506 9.64893 12.3037C9.64893 11.1084 10.2935 10.4756 11.1607 9.86621C12.2153 9.12793 12.7192 8.72949 12.7192 7.90918C12.7192 6.99512 12.0044 6.37402 10.9146 6.37402C10.1177 6.37402 9.48487 6.77246 9.05127 7.47559L8.84033 7.76855C8.61768 8.0498 8.35987 8.24902 7.93799 8.24902C7.53955 8.24902 7.10596 7.95605 7.10596 7.41699C7.10596 7.20605 7.15283 7.00683 7.21143 6.81933C7.55127 5.70605 8.91065 4.7334 10.9849 4.7334C13.0474 4.7334 14.8403 5.7998 14.8403 7.81543C14.8403 9.26855 13.9966 9.97168 12.8247 10.7451C11.9927 11.2959 11.5942 11.7295 11.5942 12.4092C11.5942 12.4443 11.5942 12.5029 11.5942 12.5498C11.5942 13.0303 11.231 13.417 10.6099 13.417ZM10.5864 17.0146C9.8833 17.0146 9.27393 16.4521 9.27393 15.7607C9.27393 15.0693 9.87158 14.4951 10.5864 14.4951C11.3013 14.4951 11.8989 15.0576 11.8989 15.7607C11.8989 16.4639 11.2896 17.0146 10.5864 17.0146Z" fill="white"/>
</g>
<defs>
<clipPath id="clip0_2207_22677">
<rect width="21.5742" height="21.5977" fill="white" transform="translate(0.0629883 0.116211)"/>
</clipPath>
</defs>
</svg>
