<svg width="27" height="27" viewBox="0 0 27 27" fill="none" xmlns="http://www.w3.org/2000/svg">
<g clip-path="url(#clip0_2207_22687)">
<path d="M1.36448 15.9967L10.7512 25.3834C12.4856 27.1178 14.1965 27.1295 15.9191 25.4185L25.3527 15.9732C27.0637 14.2623 27.052 12.5396 25.3176 10.8053L15.9426 1.43027C14.2082 -0.304106 12.4973 -0.327544 10.7746 1.39511L1.32932 10.8287C-0.39334 12.5514 -0.369902 14.2623 1.36448 15.9967Z" fill="black" fill-opacity="0.85"/>
<path d="M13.1066 15.9145C12.4738 15.9145 12.134 15.5864 12.134 14.9536C12.134 14.9067 12.134 14.8481 12.134 14.8013C12.134 13.6059 12.7902 12.9731 13.6457 12.3638C14.7121 11.6255 15.216 11.227 15.216 10.4067C15.216 9.49268 14.5012 8.87158 13.3996 8.87158C12.6027 8.87158 11.9816 9.27002 11.5481 9.97315L11.3371 10.2661C11.1145 10.5473 10.8449 10.7466 10.4348 10.7466C10.0247 10.7466 9.59106 10.4536 9.59106 9.91455C9.59106 9.70362 9.63794 9.5044 9.70825 9.3169C10.0364 8.20362 11.3957 7.23096 13.4816 7.23096C15.5441 7.23096 17.3371 8.29737 17.3371 10.313C17.3371 11.7661 16.4934 12.4692 15.3215 13.2427C14.4777 13.7934 14.0793 14.227 14.0793 14.9067C14.0793 14.9419 14.0793 15.0005 14.0793 15.0473C14.0793 15.5278 13.716 15.9145 13.1066 15.9145ZM13.0715 19.5122C12.3801 19.5122 11.7707 18.9497 11.7707 18.2583C11.7707 17.5669 12.3684 16.9927 13.0715 16.9927C13.7863 16.9927 14.384 17.5552 14.384 18.2583C14.384 18.9614 13.7746 19.5122 13.0715 19.5122Z" fill="white"/>
</g>
<defs>
<clipPath id="clip0_2207_22687">
<rect width="26.5768" height="26.593" fill="white" transform="translate(0.050415 0.116211)"/>
</clipPath>
</defs>
</svg>
