<svg width="24" height="25" viewBox="0 0 24 25" fill="none" xmlns="http://www.w3.org/2000/svg">
<g clip-path="url(#clip0_2207_22667)">
<path d="M11.9992 24.0224C18.5383 24.0224 23.9523 18.5967 23.9523 12.0693C23.9523 5.53027 18.5266 0.116211 11.9875 0.116211C5.4602 0.116211 0.0461426 5.53027 0.0461426 12.0693C0.0461426 18.5967 5.47192 24.0224 11.9992 24.0224Z" fill="black" fill-opacity="0.85"/>
<path d="M11.7531 14.5771C11.132 14.5771 10.7805 14.249 10.7805 13.6162C10.7805 13.5693 10.7805 13.5107 10.7805 13.4639C10.7805 12.2685 11.4367 11.6357 12.3039 11.0264C13.3586 10.2881 13.8625 9.88966 13.8625 9.06933C13.8625 8.15527 13.1477 7.53418 12.0578 7.53418C11.2492 7.53418 10.6281 7.93263 10.1945 8.63575L9.98365 8.92871C9.76099 9.20996 9.49146 9.40918 9.08131 9.40918C8.68287 9.40918 8.24927 9.11622 8.24927 8.57716C8.24927 8.36622 8.29615 8.16699 8.35474 7.97949C8.68287 6.86621 10.0422 5.89355 12.1281 5.89355C14.1906 5.89355 15.9836 6.95996 15.9836 8.97559C15.9836 10.4287 15.1399 11.1318 13.968 11.9053C13.1242 12.456 12.7375 12.8896 12.7375 13.5693C12.7375 13.6045 12.7375 13.6631 12.7375 13.71C12.7375 14.1904 12.3625 14.5771 11.7531 14.5771ZM11.7297 18.1748C11.0266 18.1748 10.4172 17.6123 10.4172 16.9209C10.4172 16.2295 11.0149 15.6553 11.7297 15.6553C12.4445 15.6553 13.0422 16.2178 13.0422 16.9209C13.0422 17.624 12.4328 18.1748 11.7297 18.1748Z" fill="white"/>
</g>
<defs>
<clipPath id="clip0_2207_22667">
<rect width="23.9062" height="23.918" fill="white" transform="translate(0.0461426 0.116211)"/>
</clipPath>
</defs>
</svg>
