<svg width="27" height="22" viewBox="0 0 27 22" fill="none" xmlns="http://www.w3.org/2000/svg">
<g clip-path="url(#clip0_2207_454)">
<path d="M3.73218 21.5615H23.3377C25.4353 21.5615 26.6658 20.3428 26.6658 17.9287V5.89355C26.6658 3.47949 25.4236 2.26074 22.9861 2.26074H11.7361C10.9392 2.26074 10.4587 2.07324 9.8728 1.56933L9.15796 0.983399C8.38452 0.327149 7.78687 0.116211 6.62671 0.116211H3.28687C1.23608 0.116211 0.0524902 1.28809 0.0524902 3.64355V17.9287C0.0524902 20.3545 1.28296 21.5615 3.73218 21.5615ZM3.75561 19.6748C2.58374 19.6748 1.93921 19.0537 1.93921 17.835V3.74902C1.93921 2.58887 2.54858 1.99121 3.67358 1.99121H6.14624C6.91968 1.99121 7.38843 2.19043 7.98608 2.69433L8.70093 3.29199C9.46265 3.9248 10.0837 4.14746 11.2439 4.14746H22.9509C24.1111 4.14746 24.7791 4.78027 24.7791 5.99902V17.8467C24.7791 19.0537 24.1111 19.6748 22.9509 19.6748H3.75561Z" fill="black" fill-opacity="0.85"/>
<path d="M13.1541 14.0967C13.7048 14.0967 14.033 13.7451 14.033 13.3232C14.033 13.2764 14.033 13.2295 14.033 13.1826C14.033 12.5732 14.3845 12.1982 15.1463 11.6943C16.2009 10.9912 16.9509 10.3584 16.9509 9.05762C16.9509 7.25293 15.3455 6.28027 13.4939 6.28027C11.6306 6.28027 10.4002 7.15918 10.0955 8.15527C10.0369 8.34277 10.0017 8.50683 10.0017 8.69433C10.0017 9.18652 10.3884 9.44433 10.7517 9.44433C11.1267 9.44433 11.3611 9.28027 11.5603 9.01074L11.7478 8.75293C12.1345 8.12012 12.7087 7.75683 13.4236 7.75683C14.4197 7.75683 15.0642 8.31933 15.0642 9.13965C15.0642 9.87793 14.6072 10.2412 13.6463 10.9092C12.8728 11.4482 12.2869 12.0224 12.2869 13.0889C12.2869 13.1357 12.2869 13.1826 12.2869 13.2295C12.2869 13.8037 12.6033 14.0967 13.1541 14.0967ZM13.1306 17.3428C13.7634 17.3428 14.3025 16.8389 14.3025 16.206C14.3025 15.5732 13.7752 15.081 13.1306 15.081C12.4978 15.081 11.9587 15.585 11.9587 16.206C11.9587 16.8271 12.5095 17.3428 13.1306 17.3428Z" fill="black" fill-opacity="0.85"/>
</g>
<defs>
<clipPath id="clip0_2207_454">
<rect width="26.6133" height="21.5977" fill="white" transform="translate(0.0524902 0.116211)"/>
</clipPath>
</defs>
</svg>
