<svg width="26" height="26" viewBox="0 0 26 26" fill="none" xmlns="http://www.w3.org/2000/svg">
<g clip-path="url(#clip0_2207_9158)">
<path d="M7.27637 25.8623C7.85059 25.8623 8.24903 25.5576 8.96387 24.9248L13.0068 21.3271H20.5302C24.0224 21.3271 25.8974 19.3935 25.8974 15.96V6.9834C25.8974 3.5498 24.0224 1.61621 20.5302 1.61621H5.43653C1.94434 1.61621 0.0693359 3.53809 0.0693359 6.9834V15.96C0.0693359 19.4053 1.94434 21.3271 5.43653 21.3271H5.99903V24.374C5.99903 25.2764 6.45606 25.8623 7.27637 25.8623ZM7.75684 23.7178V20.3193C7.75684 19.6865 7.51075 19.4404 6.87793 19.4404H5.43653C3.06934 19.4404 1.95606 18.2334 1.95606 15.9482V6.9834C1.95606 4.69824 3.06934 3.50293 5.43653 3.50293H20.5302C22.8857 3.50293 24.0107 4.69824 24.0107 6.9834V15.9482C24.0107 18.2334 22.8857 19.4404 20.5302 19.4404H12.9365C12.2802 19.4404 11.9521 19.5342 11.5068 19.9912L7.75684 23.7178Z" fill="black" fill-opacity="0.85"/>
<path d="M7.32324 10.2178C7.32324 11.5537 8.15527 12.585 9.47949 12.585C9.97167 12.585 10.4638 12.5029 10.7685 12.1162H10.8623C10.4287 13.0889 9.52636 13.71 8.76464 13.9092C8.33105 14.0264 8.20214 14.2139 8.20214 14.4951C8.20214 14.7881 8.44824 15.0342 8.77636 15.0342C9.95995 15.0342 12.3388 13.6279 12.3388 10.6514C12.3388 9.05762 11.3076 7.85059 9.78417 7.85059C8.37792 7.85059 7.32324 8.82324 7.32324 10.2178ZM13.6513 10.2178C13.6513 11.5537 14.4834 12.585 15.8076 12.585C16.2998 12.585 16.792 12.5029 17.0966 12.1162H17.1904C16.7568 13.0889 15.8545 13.71 15.0927 13.9092C14.6709 14.0264 14.5302 14.2139 14.5302 14.4951C14.5302 14.7881 14.7763 15.0342 15.1045 15.0342C16.2881 15.0342 18.667 13.6279 18.667 10.6514C18.667 9.05762 17.6357 7.85059 16.1123 7.85059C14.706 7.85059 13.6513 8.82324 13.6513 10.2178Z" fill="black" fill-opacity="0.85"/>
</g>
<defs>
<clipPath id="clip0_2207_9158">
<rect width="25.8281" height="25.7461" fill="white" transform="translate(0.0693359 0.116211)"/>
</clipPath>
</defs>
</svg>
