<svg width="26" height="26" viewBox="0 0 26 26" fill="none" xmlns="http://www.w3.org/2000/svg">
<g id="quote.bubble.fill" clip-path="url(#clip0_2201_339)">
<g id="Group">
<path id="Vector" d="M6.96094 25.8867C7.41797 25.8867 7.75781 25.6523 8.30859 25.1367L12.5391 21.2695H20.4609C23.9531 21.2695 25.8281 19.3477 25.8281 15.9141V6.9375C25.8281 3.50391 23.9531 1.57031 20.4609 1.57031H5.36719C1.875 1.57031 0 3.49219 0 6.9375V15.9141C0 19.3594 1.875 21.2695 5.36719 21.2695H5.91797V24.6797C5.91797 25.4062 6.29297 25.8867 6.96094 25.8867Z" fill="black" fill-opacity="0.85"/>
<path id="Vector_2" d="M7.07812 10.1484C7.07812 8.70703 8.16797 7.69922 9.62109 7.69922C11.1914 7.69922 12.2461 8.95312 12.2461 10.5938C12.2461 13.6641 9.79689 15.1172 8.57812 15.1172C8.23829 15.1172 7.98047 14.8594 7.98047 14.5547C7.98047 14.2617 8.10938 14.0742 8.56641 13.957C9.35156 13.7461 10.2773 13.1016 10.7227 12.1055H10.6289C10.3125 12.5039 9.8086 12.5859 9.3047 12.5859C7.9336 12.5859 7.07812 11.5195 7.07812 10.1484ZM13.6055 10.1484C13.6055 8.70703 14.6836 7.69922 16.1367 7.69922C17.707 7.69922 18.7734 8.95312 18.7734 10.5938C18.7734 13.6641 16.3242 15.1172 15.1055 15.1172C14.7656 15.1172 14.5078 14.8594 14.5078 14.5547C14.5078 14.2617 14.6484 14.0742 15.082 13.957C15.8789 13.7461 16.8047 13.1016 17.25 12.1055H17.1562C16.8398 12.5039 16.3359 12.5859 15.8203 12.5859C14.4609 12.5859 13.6055 11.5195 13.6055 10.1484Z" fill="white"/>
</g>
</g>
<defs>
<clipPath id="clip0_2201_339">
<rect width="25.8281" height="25.8867" fill="white"/>
</clipPath>
</defs>
</svg>
