<svg width="28" height="21" viewBox="0 0 28 21" fill="none" xmlns="http://www.w3.org/2000/svg">
<g clip-path="url(#clip0_2207_20984)">
<path d="M9.91406 20.5537H17.2851C24.082 20.5537 27.1172 17.4248 27.1172 11.0264V3.66699C27.1172 1.31152 25.8984 0.116211 23.5195 0.116211H3.67969C1.30078 0.116211 0.0820312 1.31152 0.0820312 3.66699V11.0264C0.0820312 17.4248 3.11719 20.5537 9.91406 20.5537Z" fill="black" fill-opacity="0.85"/>
<path d="M10.8984 15.3271C10.2773 15.3271 9.92578 14.8935 9.92578 14.249V6.28027C9.92578 5.63574 10.2656 5.16699 10.8984 5.16699H13.957C16.207 5.16699 17.6718 6.47949 17.6718 8.47168C17.6718 9.7959 16.8632 10.9443 15.6679 11.4131L17.1679 13.7685C17.332 13.9795 17.414 14.2139 17.414 14.46C17.414 14.9639 17.0039 15.3271 16.4531 15.3271C16.0312 15.3271 15.7265 15.1514 15.457 14.7178L13.6875 11.7295H11.9414V14.249C11.9414 14.9053 11.5547 15.3271 10.8984 15.3271ZM11.9414 10.1709H13.7226C14.9531 10.1709 15.6797 9.62012 15.6797 8.51855C15.6797 7.40527 14.9179 6.77246 13.7578 6.77246H11.9414V10.1709Z" fill="white"/>
</g>
<defs>
<clipPath id="clip0_2207_20984">
<rect width="27.0352" height="20.4492" fill="white" transform="translate(0.0820312 0.116211)"/>
</clipPath>
</defs>
</svg>
