<svg width="24" height="25" viewBox="0 0 24 25" fill="none" xmlns="http://www.w3.org/2000/svg">
<g clip-path="url(#clip0_2207_25166)">
<path d="M12.0371 24.0224C18.5762 24.0224 23.9902 18.5967 23.9902 12.0693C23.9902 5.53027 18.5645 0.116211 12.0254 0.116211C5.49804 0.116211 0.0839844 5.53027 0.0839844 12.0693C0.0839844 18.5967 5.50976 24.0224 12.0371 24.0224ZM12.0371 22.0303C6.50586 22.0303 2.08789 17.6006 2.08789 12.0693C2.08789 6.53809 6.49414 2.1084 12.0254 2.1084C17.5567 2.1084 21.9981 6.53809 21.9981 12.0693C21.9981 17.6006 17.5684 22.0303 12.0371 22.0303Z" fill="black" fill-opacity="0.85"/>
<path d="M9.0254 17.4365C9.63477 17.4365 9.97461 17.0381 9.97461 16.3935V13.4756H12.1543L14.1817 16.8154C14.4629 17.2724 14.709 17.4365 15.1192 17.4365C15.6231 17.4365 15.9746 17.1084 15.9746 16.6396C15.9746 16.3818 15.9043 16.1943 15.752 15.96L13.9942 13.206C15.377 12.749 16.2676 11.5185 16.2676 10.0654C16.2676 7.95605 14.7559 6.62012 12.377 6.62012H9.01368C8.41602 6.62012 8.09961 7.04199 8.09961 7.6748V16.3935C8.09961 17.0146 8.42774 17.4365 9.0254 17.4365ZM9.97461 12.1045V8.0498H12.1543C13.502 8.0498 14.416 8.7998 14.416 10.1123C14.416 11.3896 13.5254 12.1045 12.1074 12.1045H9.97461Z" fill="black" fill-opacity="0.85"/>
</g>
<defs>
<clipPath id="clip0_2207_25166">
<rect width="23.9062" height="23.918" fill="white" transform="translate(0.0839844 0.116211)"/>
</clipPath>
</defs>
</svg>
