<svg width="28" height="24" viewBox="0 0 28 24" fill="none" xmlns="http://www.w3.org/2000/svg">
<g clip-path="url(#clip0_2207_20366)">
<path d="M13.6841 23.0498C16.52 23.0498 18.2075 21.7139 18.2075 19.4639V15.5029C18.2075 13.2529 16.52 11.917 13.6841 11.917C10.8364 11.917 9.14893 13.2529 9.14893 15.5029V19.4639C9.14893 21.7139 10.8364 23.0498 13.6841 23.0498Z" fill="black" fill-opacity="0.85"/>
<path d="M13.6841 19.3232C22.0395 19.3232 27.2661 15.3154 27.2661 10.1709C27.2661 5.02637 22.0395 1.01855 13.6606 1.01855C5.31689 1.01855 0.090332 5.02637 0.090332 10.1709C0.090332 15.3154 5.31689 19.3232 13.6841 19.3232Z" fill="white"/>
<path d="M13.6841 17.7295C21.1723 17.7295 25.6723 14.3545 25.6723 10.1709C25.6723 5.99902 21.1723 2.62402 13.6606 2.62402C6.18408 2.62402 1.6958 5.99902 1.6958 10.1709C1.6958 14.3545 6.18408 17.7295 13.6841 17.7295Z" fill="black" fill-opacity="0.85"/>
<path d="M11.7622 13.7803C11.3169 13.7803 11.0356 13.4639 11.0356 12.9717V7.26465C11.0356 6.74902 11.3169 6.43262 11.7622 6.43262H13.9653C15.5708 6.43262 16.6255 7.37012 16.6255 8.82324C16.6255 9.77246 16.0864 10.581 15.2075 10.9326L16.2973 12.6318C16.4028 12.7959 16.4614 12.9482 16.4614 13.1474C16.4614 13.5342 16.145 13.8037 15.77 13.8037C15.4653 13.8037 15.2661 13.6748 15.0669 13.335L13.7426 11.1787H12.5122V12.9717C12.5122 13.4639 12.2192 13.7803 11.7622 13.7803ZM12.5122 10.0303H13.7895C14.6684 10.0303 15.1606 9.59668 15.1606 8.84668C15.1606 8.09668 14.6567 7.62793 13.813 7.62793H12.5122V10.0303Z" fill="white"/>
</g>
<defs>
<clipPath id="clip0_2207_20366">
<rect width="27.1758" height="22.9336" fill="white" transform="translate(0.090332 0.116211)"/>
</clipPath>
</defs>
</svg>
