<svg width="27" height="24" viewBox="0 0 27 24" fill="none" xmlns="http://www.w3.org/2000/svg">
<g clip-path="url(#clip0_2207_20359)">
<path d="M13.5412 23.0498C16.3772 23.0498 18.0647 21.7139 18.0647 19.4639V15.5029C18.0647 13.2529 16.3772 11.917 13.5412 11.917C10.6936 11.917 9.0061 13.2529 9.0061 15.5029V19.4639C9.0061 21.7139 10.6936 23.0498 13.5412 23.0498Z" fill="black" fill-opacity="0.85"/>
<path d="M13.5412 19.4404C21.5451 19.4404 26.9826 15.7021 26.9826 10.1709C26.9826 4.63965 21.5334 0.901367 13.5178 0.901367C5.52563 0.901367 0.0881348 4.65137 0.0881348 10.1709C0.0881348 15.7021 5.52563 19.4404 13.5412 19.4404Z" fill="white"/>
<path d="M13.5412 18.081C20.8537 18.081 25.6233 14.8467 25.6233 10.1709C25.6233 5.50683 20.842 2.27246 13.5178 2.27246C6.21705 2.27246 1.45923 5.50683 1.45923 10.1709C1.45923 14.8467 6.21705 18.081 13.5412 18.081ZM13.5412 16.0654C7.57642 16.0654 3.58033 13.6748 3.58033 10.1709C3.58033 6.66699 7.57642 4.28809 13.5178 4.28809C19.4826 4.28809 23.5022 6.66699 23.5022 10.1709C23.5022 13.6748 19.4943 16.0654 13.5412 16.0654Z" fill="black" fill-opacity="0.85"/>
<path d="M11.5842 13.6748C12.0295 13.6748 12.3108 13.3701 12.3108 12.8896V11.1435H13.5061L14.7951 13.2412C14.9943 13.5693 15.1819 13.6865 15.4748 13.6865C15.8381 13.6865 16.1428 13.4287 16.1428 13.0537C16.1428 12.8662 16.0842 12.7139 15.9787 12.5615L14.924 10.9092C15.7795 10.5693 16.2951 9.78419 16.2951 8.85841C16.2951 7.45216 15.2756 6.5498 13.7287 6.5498H11.5842C11.1623 6.5498 10.8928 6.85449 10.8928 7.34668V12.8896C10.8928 13.3701 11.1623 13.6748 11.5842 13.6748ZM12.3108 10.0303V7.69824H13.5764C14.3967 7.69824 14.8889 8.15527 14.8889 8.88183C14.8889 9.60841 14.4084 10.0303 13.5529 10.0303H12.3108Z" fill="black" fill-opacity="0.85"/>
</g>
<defs>
<clipPath id="clip0_2207_20359">
<rect width="26.8945" height="22.9336" fill="white" transform="translate(0.0881348 0.116211)"/>
</clipPath>
</defs>
</svg>
