<svg width="24" height="25" viewBox="0 0 24 25" fill="none" xmlns="http://www.w3.org/2000/svg">
<g clip-path="url(#clip0_2207_20720)">
<path d="M11.9804 24.0239C18.5195 24.0239 23.9335 18.5982 23.9335 12.0708C23.9335 5.53174 18.5078 0.117676 11.9687 0.117676C5.4414 0.117676 0.0273438 5.53174 0.0273438 12.0708C0.0273438 18.5982 5.45312 24.0239 11.9804 24.0239Z" fill="black" fill-opacity="0.85"/>
<path d="M7.51563 16.8755C6.96485 16.8755 6.64844 16.5239 6.64844 15.9849V8.32079C6.64844 7.77001 6.95313 7.44189 7.50391 7.44189H9.43751C11.2304 7.44189 12.3437 8.43798 12.3437 10.313C12.3437 11.356 11.9453 12.3521 11.0312 12.8325L12.1093 15.4341C12.2382 15.6919 12.2968 15.9263 12.2968 16.0552C12.2968 16.6411 11.8867 16.8755 11.5117 16.8755C11.0429 16.8755 10.7734 16.6177 10.6328 16.1841L9.42579 13.1724H8.34766V15.9849C8.34766 16.5357 8.03126 16.8755 7.51563 16.8755ZM8.34766 11.9419H9.29688C10.2226 11.9419 10.6445 11.2622 10.6445 10.3599C10.6445 9.43408 10.1757 8.78955 9.29688 8.78955H8.34766V11.9419ZM16.3046 16.8404C15.8359 16.8404 15.4609 16.4654 15.4609 15.9849V9.03564L14.3945 9.87939C14.289 9.97314 14.1718 10.02 13.9961 10.02C13.6445 10.02 13.3984 9.77392 13.3984 9.41064C13.3984 9.11767 13.5507 8.88329 13.7617 8.74267L15.0156 7.74658C15.2968 7.54736 15.6835 7.27783 16.1757 7.27783C16.7734 7.27783 17.1367 7.62939 17.1367 8.22705V15.9849C17.1367 16.4654 16.7617 16.8404 16.3046 16.8404Z" fill="white"/>
</g>
<defs>
<clipPath id="clip0_2207_20720">
<rect width="23.9062" height="23.918" fill="white" transform="translate(0.0273438 0.117676)"/>
</clipPath>
</defs>
</svg>
