<svg width="24" height="25" viewBox="0 0 24 25" fill="none" xmlns="http://www.w3.org/2000/svg">
<g clip-path="url(#clip0_2207_20715)">
<path d="M11.9782 24.0239C18.5173 24.0239 23.9313 18.5982 23.9313 12.0708C23.9313 5.53174 18.5056 0.117676 11.9665 0.117676C5.43921 0.117676 0.0251465 5.53174 0.0251465 12.0708C0.0251465 18.5982 5.45093 24.0239 11.9782 24.0239ZM11.9782 22.0318C6.44703 22.0318 2.02906 17.6021 2.02906 12.0708C2.02906 6.53956 6.43531 2.10987 11.9665 2.10987C17.4978 2.10987 21.9392 6.53956 21.9392 12.0708C21.9392 17.6021 17.5095 22.0318 11.9782 22.0318Z" fill="black" fill-opacity="0.85"/>
<path d="M7.40796 16.9693C7.93531 16.9693 8.26343 16.6294 8.26343 16.0786V13.1958H9.37671L10.5955 16.2661C10.7479 16.7115 11.0174 16.9693 11.4861 16.9693C11.8729 16.9693 12.2947 16.7466 12.2947 16.1372C12.2947 16.0083 12.2244 15.7739 12.1072 15.5044L10.994 12.8443C11.9432 12.3521 12.3416 11.3325 12.3416 10.2779C12.3416 8.36767 11.2166 7.34814 9.38843 7.34814H7.39624C6.84546 7.34814 6.54077 7.68798 6.54077 8.23876V16.0786C6.54077 16.6177 6.85718 16.9693 7.40796 16.9693ZM8.26343 11.9419V8.70751H9.22437C10.1268 8.70751 10.6072 9.37548 10.6072 10.313C10.6072 11.2388 10.1854 11.9419 9.22437 11.9419H8.26343ZM16.3729 16.9341C16.8416 16.9341 17.2283 16.5474 17.2283 16.0786V8.13329C17.2283 7.53564 16.8533 7.18408 16.244 7.18408C15.7518 7.18408 15.3533 7.45361 15.0838 7.66455L13.7947 8.66064C13.5838 8.8247 13.4197 9.04736 13.4197 9.35205C13.4197 9.71533 13.6658 9.97314 14.0174 9.97314C14.2049 9.97314 14.3221 9.91455 14.4393 9.83251L15.5174 8.96533V16.0786C15.5174 16.5474 15.9041 16.9341 16.3729 16.9341Z" fill="black" fill-opacity="0.85"/>
</g>
<defs>
<clipPath id="clip0_2207_20715">
<rect width="23.9062" height="23.918" fill="white" transform="translate(0.0251465 0.117676)"/>
</clipPath>
</defs>
</svg>
