<svg width="21" height="26" viewBox="0 0 21 26" fill="none" xmlns="http://www.w3.org/2000/svg">
<g clip-path="url(#clip0_2207_21060)">
<path d="M13.8948 25.2896C18.137 25.2896 20.8792 22.5591 20.8792 18.3169V12.5396C20.8792 10.9341 20.3753 9.64502 19.3792 8.73096L11.9846 1.92237C10.5315 0.598145 8.99633 0.117676 7.16821 0.117676H3.54711C1.43774 0.117676 0.0314941 1.54737 0.0314941 3.66846V21.7739C0.0314941 23.9771 1.36743 25.2896 3.58227 25.2896H13.8948Z" fill="black" fill-opacity="0.85"/>
<path d="M4.75416 20.145C4.17994 20.145 3.85181 19.77 3.85181 19.2193V11.145C3.85181 10.5825 4.16822 10.231 4.73072 10.231H6.79322C8.67994 10.231 9.84009 11.2739 9.84009 13.2544C9.84009 14.3325 9.42994 15.3872 8.44556 15.8911L9.594 18.6333C9.71119 18.9146 9.79322 19.1489 9.79322 19.2896C9.79322 19.9107 9.34791 20.145 8.94947 20.145C8.469 20.145 8.19947 19.8755 8.02369 19.4185L6.76978 16.2544H5.63306V19.2193C5.63306 19.7818 5.29322 20.145 4.75416 20.145ZM5.63306 14.9654H6.61744C7.60181 14.9654 8.03541 14.2388 8.03541 13.2896C8.03541 12.3169 7.54322 11.6372 6.61744 11.6372H5.63306V14.9654ZM11.9612 19.981C11.4221 19.981 11.1526 19.6763 11.1526 19.2779C11.1526 18.8911 11.387 18.5982 11.5979 18.3052L13.6956 15.6333C14.3401 14.813 15.0198 13.8286 15.0198 12.856C15.0198 12.0005 14.6096 11.356 13.8831 11.356C13.1917 11.356 12.887 11.8716 12.676 12.6802C12.5354 13.0786 12.2893 13.2661 11.8909 13.2661C11.4338 13.2661 11.1643 12.9497 11.1643 12.4927C11.1643 11.2388 12.3362 9.96143 13.8831 9.96143C15.5588 9.96143 16.6721 11.145 16.6721 12.7739C16.6721 13.8404 16.2737 14.731 15.0667 16.231L13.2971 18.4575V18.563H16.1682C16.5901 18.563 16.8479 18.8091 16.8479 19.2779C16.8479 19.6997 16.6018 19.981 16.1682 19.981H11.9612Z" fill="white"/>
</g>
<defs>
<clipPath id="clip0_2207_21060">
<rect width="20.8477" height="25.1836" fill="white" transform="translate(0.0314941 0.117676)"/>
</clipPath>
</defs>
</svg>
