<svg width="28" height="21" viewBox="0 0 28 21" fill="none" xmlns="http://www.w3.org/2000/svg">
<g clip-path="url(#clip0_2207_20906)">
<path d="M9.86767 0.117676C3.0708 0.117676 0.0356445 3.24659 0.0356445 9.64502V16.9927C0.0356445 19.3599 1.25439 20.5552 3.6333 20.5552H23.4731C25.852 20.5552 27.0708 19.3482 27.0708 16.9927V9.64502C27.0708 3.24659 24.0356 0.117676 17.2387 0.117676H9.86767Z" fill="black" fill-opacity="0.85"/>
<path d="M8.41455 15.1997C7.86376 15.1997 7.55908 14.8365 7.55908 14.2974V6.53955C7.55908 6.00048 7.86376 5.67236 8.40283 5.67236H10.3833C12.1879 5.67236 13.3129 6.66845 13.3129 8.56689C13.3129 9.60986 12.9145 10.6177 11.9653 11.1099L13.0786 13.7349C13.184 14.0044 13.2661 14.2388 13.2661 14.3794C13.2661 14.9771 12.8442 15.1997 12.4575 15.1997C12.0004 15.1997 11.7426 14.9419 11.5668 14.4966L10.3598 11.4615H9.27002V14.2974C9.27002 14.8482 8.94189 15.1997 8.41455 15.1997ZM9.27002 10.2075H10.2192C11.1567 10.2075 11.5786 9.51611 11.5786 8.60205C11.5786 7.66455 11.1098 7.02001 10.2192 7.02001H9.27002V10.2075ZM15.352 15.0474C14.8247 15.0474 14.5786 14.7544 14.5786 14.356C14.5786 13.981 14.7895 13.7115 15.0004 13.4302L17.0161 10.8521C17.6372 10.0669 18.2817 9.11767 18.2817 8.19189C18.2817 7.37158 17.895 6.75048 17.1918 6.75048C16.5356 6.75048 16.2426 7.25439 16.0317 8.02783C15.9028 8.40283 15.6684 8.59033 15.2817 8.59033C14.8481 8.59033 14.5903 8.27392 14.5903 7.84033C14.5903 6.63329 15.7153 5.40283 17.2036 5.40283C18.809 5.40283 19.8754 6.53955 19.8754 8.10986C19.8754 9.14111 19.5004 9.99658 18.3286 11.438L16.6294 13.5708V13.6763H19.3833C19.7934 13.6763 20.0512 13.9107 20.0512 14.356C20.0512 14.7661 19.8051 15.0474 19.3833 15.0474H15.352Z" fill="white"/>
</g>
<defs>
<clipPath id="clip0_2207_20906">
<rect width="27.0352" height="20.4492" fill="white" transform="translate(0.0356445 0.117676)"/>
</clipPath>
</defs>
</svg>
