<svg width="21" height="26" viewBox="0 0 21 26" fill="none" xmlns="http://www.w3.org/2000/svg">
<g clip-path="url(#clip0_2207_21055)">
<path d="M13.8927 25.2896C18.1349 25.2896 20.8771 22.5591 20.8771 18.3169V12.5396C20.8771 10.9341 20.3732 9.64502 19.3771 8.73096L11.9825 1.92237C10.5294 0.598145 8.99426 0.117676 7.16614 0.117676H3.54504C1.43567 0.117676 0.0294189 1.54737 0.0294189 3.66846V21.7739C0.0294189 23.9771 1.36536 25.2896 3.5802 25.2896H13.8927ZM13.8575 23.4029H3.62708C2.39661 23.4029 1.91614 22.981 1.91614 21.7388V3.6919C1.91614 2.68409 2.57239 2.0044 3.59192 2.0044H7.11926C8.57239 2.0044 9.6388 2.35596 10.6817 3.30518L18.0646 10.0903C18.7091 10.6763 18.9903 11.3911 18.9903 12.563V18.2818C18.9903 21.563 17.1271 23.4029 13.8575 23.4029Z" fill="black" fill-opacity="0.85"/>
<path d="M5.36145 19.6177C5.84192 19.6177 6.13489 19.2896 6.13489 18.7857V16.1372H7.16614L8.29114 18.9615C8.44348 19.3716 8.67786 19.6177 9.11145 19.6177C9.47473 19.6177 9.84973 19.395 9.84973 18.8443C9.84973 18.7271 9.79114 18.5044 9.68567 18.2583L8.65442 15.8091C9.53333 15.3521 9.90833 14.4146 9.90833 13.4419C9.90833 11.6841 8.85364 10.7466 7.17786 10.7466H5.33801C4.83411 10.7466 4.55286 11.0513 4.55286 11.5669V18.7857C4.55286 19.2779 4.83411 19.6177 5.36145 19.6177ZM6.13489 14.9771V11.9888H7.02551C7.85754 11.9888 8.30286 12.6099 8.30286 13.4771C8.30286 14.3325 7.91614 14.9771 7.02551 14.9771H6.13489ZM11.8067 19.4654H15.5567C15.9317 19.4654 16.1661 19.2075 16.1661 18.8325C16.1661 18.4224 15.92 18.1997 15.5567 18.1997H12.9903V18.106L14.5606 16.1138C15.6505 14.7661 16.0021 13.981 16.0021 13.02C16.0021 11.5669 15.0177 10.5005 13.5177 10.5005C12.1349 10.5005 11.0919 11.6489 11.0919 12.7739C11.0919 13.1724 11.3263 13.4536 11.7364 13.4536C12.0997 13.4536 12.3106 13.2896 12.4278 12.938C12.6271 12.2115 12.8966 11.7544 13.5177 11.7544C14.1622 11.7544 14.5255 12.3404 14.5255 13.0904C14.5255 13.9575 13.9278 14.8365 13.3536 15.563L11.4786 17.9771C11.2794 18.2232 11.0802 18.4927 11.0802 18.8325C11.0802 19.1958 11.3146 19.4654 11.8067 19.4654Z" fill="black" fill-opacity="0.85"/>
</g>
<defs>
<clipPath id="clip0_2207_21055">
<rect width="20.8477" height="25.1836" fill="white" transform="translate(0.0294189 0.117676)"/>
</clipPath>
</defs>
</svg>
