<svg width="24" height="25" viewBox="0 0 24 25" fill="none" xmlns="http://www.w3.org/2000/svg">
<g clip-path="url(#clip0_2207_20740)">
<path d="M11.993 24.0239C18.5321 24.0239 23.9461 18.5982 23.9461 12.0708C23.9461 5.53174 18.5204 0.117676 11.9813 0.117676C5.45398 0.117676 0.039917 5.53174 0.039917 12.0708C0.039917 18.5982 5.4657 24.0239 11.993 24.0239Z" fill="black" fill-opacity="0.85"/>
<path d="M6.89539 16.8755C6.35633 16.8755 6.05164 16.5239 6.05164 15.9849V8.3208C6.05164 7.78174 6.35633 7.45362 6.88367 7.45362H8.8407C10.6337 7.45362 11.7469 8.43799 11.7469 10.3247C11.7469 11.356 11.3485 12.3521 10.411 12.8325L11.5008 15.4341C11.6063 15.7036 11.6883 15.9263 11.6883 16.0552C11.6883 16.6529 11.2782 16.8755 10.8915 16.8755C10.4344 16.8755 10.1883 16.6177 10.0126 16.1841L8.81726 13.1724H7.73914V15.9849C7.73914 16.5357 7.42273 16.8755 6.89539 16.8755ZM7.73914 11.9419H8.67664C9.61414 11.9419 10.0243 11.2622 10.0243 10.3599C10.0243 9.43409 9.55554 8.78956 8.67664 8.78956H7.73914V11.9419ZM13.7626 16.7232C13.2352 16.7232 12.9891 16.4302 12.9891 16.0435C12.9891 15.6802 13.2001 15.3989 13.411 15.1294L15.4032 12.5747C16.0126 11.8013 16.6571 10.8638 16.6571 9.94971C16.6571 9.14112 16.2704 8.53174 15.579 8.53174C14.9227 8.53174 14.6415 9.01221 14.4305 9.78565C14.3016 10.1607 14.0672 10.3365 13.6922 10.3365C13.2587 10.3365 13.0008 10.0317 13.0008 9.60987C13.0008 8.41456 14.1141 7.1958 15.579 7.1958C17.1727 7.1958 18.2274 8.3208 18.2274 9.86768C18.2274 10.8872 17.8524 11.731 16.704 13.1489L15.0282 15.27V15.3638H17.7469C18.1454 15.3638 18.4032 15.6099 18.4032 16.0435C18.4032 16.4419 18.1571 16.7232 17.7469 16.7232H13.7626Z" fill="white"/>
</g>
<defs>
<clipPath id="clip0_2207_20740">
<rect width="23.9062" height="23.918" fill="white" transform="translate(0.039917 0.117676)"/>
</clipPath>
</defs>
</svg>
