<svg width="35" height="19" viewBox="0 0 35 19" fill="none" xmlns="http://www.w3.org/2000/svg">
<g clip-path="url(#clip0_2207_4893)">
<path d="M17.1758 0.117676C7.69531 0.117676 0.0546875 7.77001 0.0546875 17.2505C0.0546875 17.6841 0.394531 18.0239 0.816406 18.0239C1.25 18.0239 1.58985 17.6841 1.58985 17.2505C1.58985 8.64892 8.5625 1.65284 17.1758 1.65284C25.7891 1.65284 32.7735 8.64892 32.7735 17.2505C32.7735 17.6841 33.1133 18.0239 33.5469 18.0239C33.9688 18.0239 34.3086 17.6841 34.3086 17.2505C34.3086 7.77001 26.6563 0.117676 17.1758 0.117676Z" fill="black" fill-opacity="0.85"/>
<path d="M17.1758 2.68408C9.11327 2.68408 2.62109 9.18798 2.62109 17.2505C2.62109 17.6841 2.94921 18.0239 3.37109 18.0239C3.80468 18.0239 4.15624 17.6841 4.15624 17.2505C4.15624 10.0669 9.98046 4.21923 17.1758 4.21923C24.3711 4.21923 30.2188 10.0669 30.2188 17.2505C30.2188 17.6841 30.5469 18.0239 30.9805 18.0239C31.4024 18.0239 31.7539 17.6841 31.7539 17.2505C31.7539 9.18798 25.25 2.68408 17.1758 2.68408Z" fill="black" fill-opacity="0.85"/>
<path d="M17.1758 5.23877C10.5313 5.23877 5.1875 10.606 5.1875 17.2505C5.1875 17.6841 5.51563 18.0239 5.9375 18.0239C6.3711 18.0239 6.72266 17.6841 6.72266 17.2505C6.72266 11.4849 11.3985 6.77393 17.1758 6.77393C22.9649 6.77393 27.6524 11.4849 27.6524 17.2505C27.6524 17.6841 27.9805 18.0239 28.4141 18.0239C28.8359 18.0239 29.1875 17.6841 29.1875 17.2505C29.1875 10.606 23.8203 5.23877 17.1758 5.23877Z" fill="black" fill-opacity="0.85"/>
<path d="M17.1758 7.80518C11.9375 7.80518 7.74219 12.0122 7.74219 17.2505C7.74219 17.6841 8.08203 18.0239 8.50391 18.0239C8.9375 18.0239 9.27735 17.6841 9.27735 17.2505C9.27735 12.8911 12.8164 9.34034 17.1758 9.34034C21.5352 9.34034 25.0859 12.8911 25.0859 17.2505C25.0859 17.6841 25.4141 18.0239 25.8594 18.0239C26.2813 18.0239 26.6211 17.6841 26.6211 17.2505C26.6211 12.0122 22.4141 7.80518 17.1758 7.80518Z" fill="black" fill-opacity="0.85"/>
<path d="M17.1758 10.3716C13.3672 10.3716 10.3086 13.4419 10.3086 17.2505C10.3086 17.6841 10.6367 18.0239 11.0703 18.0239C11.5039 18.0239 11.8438 17.6841 11.8438 17.2505C11.8438 14.3091 14.2227 11.9068 17.1758 11.9068C20.1289 11.9068 22.5195 14.3091 22.5195 17.2505C22.5195 17.6841 22.8594 18.0239 23.293 18.0239C23.7149 18.0239 24.0547 17.6841 24.0547 17.2505C24.0547 13.4419 20.9961 10.3716 17.1758 10.3716Z" fill="black" fill-opacity="0.85"/>
</g>
<defs>
<clipPath id="clip0_2207_4893">
<rect width="34.2539" height="17.918" fill="white" transform="translate(0.0546875 0.117676)"/>
</clipPath>
</defs>
</svg>
