<svg width="28" height="21" viewBox="0 0 28 21" fill="none" xmlns="http://www.w3.org/2000/svg">
<g clip-path="url(#clip0_2207_21009)">
<path d="M9.89087 20.5552H17.2619C24.0588 20.5552 27.094 17.4263 27.094 11.0279V3.66846C27.094 1.31299 25.8752 0.117676 23.4963 0.117676H3.6565C1.27759 0.117676 0.0588379 1.31299 0.0588379 3.66846V11.0279C0.0588379 17.4263 3.094 20.5552 9.89087 20.5552ZM9.89087 18.6685C4.35962 18.6685 1.94556 16.2661 1.94556 11.145V3.77393C1.94556 2.60206 2.55493 2.0044 3.70337 2.0044H23.4494C24.5744 2.0044 25.2072 2.60206 25.2072 3.77393V11.145C25.2072 16.2661 22.7932 18.6685 17.2502 18.6685H9.89087Z" fill="black" fill-opacity="0.85"/>
<path d="M8.05103 15.2466C8.57837 15.2466 8.9065 14.895 8.9065 14.3443V11.4615H10.0081L11.2385 14.5318C11.4026 14.9771 11.6604 15.2466 12.1291 15.2466C12.5158 15.2466 12.9377 15.0122 12.9377 14.4146C12.9377 14.2739 12.8557 14.0396 12.7502 13.77L11.6369 11.1099C12.5744 10.6177 12.9846 9.60987 12.9846 8.54346C12.9846 6.6333 11.8479 5.61377 10.0198 5.61377H8.03931C7.48853 5.61377 7.18384 5.95362 7.18384 6.5044V14.3443C7.18384 14.8833 7.48853 15.2466 8.05103 15.2466ZM8.9065 10.2075V6.97315H9.86743C10.7697 6.97315 11.2502 7.64112 11.2502 8.57862C11.2502 9.51612 10.8283 10.2075 9.86743 10.2075H8.9065ZM15.3986 15.0943H17.883C19.5354 15.0943 20.4963 13.9927 20.4963 12.4224C20.4963 11.2739 19.8049 10.231 18.6916 10.1138V10.0552C19.5822 9.90284 20.2033 8.90674 20.2033 7.98096C20.2033 6.46924 19.1955 5.61377 17.8127 5.61377H15.3986C14.8479 5.61377 14.5549 6.00049 14.5549 6.5044V14.2036C14.5549 14.7427 14.8596 15.0943 15.3986 15.0943ZM16.2307 9.6333V6.91456H17.3205C18.2111 6.91456 18.5627 7.47706 18.5627 8.23877C18.5627 9.10596 18.0588 9.6333 17.1916 9.6333H16.2307ZM16.2307 13.7935V10.7818H17.3205C18.176 10.7818 18.7736 11.2505 18.7736 12.2818C18.7736 13.231 18.3049 13.7935 17.3674 13.7935H16.2307Z" fill="black" fill-opacity="0.85"/>
</g>
<defs>
<clipPath id="clip0_2207_21009">
<rect width="27.0352" height="20.4492" fill="white" transform="translate(0.0588379 0.117676)"/>
</clipPath>
</defs>
</svg>
