<svg width="15" height="22" viewBox="0 0 15 22" fill="none" xmlns="http://www.w3.org/2000/svg">
<g clip-path="url(#clip0_2207_21969)">
<path d="M3.74073 21.7193H10.479C12.9399 21.7193 14.1587 20.5005 14.1587 18.0864V3.77783C14.1587 1.36377 12.9399 0.14502 10.479 0.14502H3.74073C1.29151 0.14502 0.0610352 1.35205 0.0610352 3.77783V18.0864C0.0610352 20.5122 1.29151 21.7193 3.74073 21.7193ZM3.76416 19.8325C2.59229 19.8325 1.94776 19.2114 1.94776 17.9927V3.87158C1.94776 2.65283 2.59229 2.03174 3.76416 2.03174H10.4555C11.604 2.03174 12.2719 2.65283 12.2719 3.87158V17.9927C12.2719 19.2114 11.604 19.8325 10.4555 19.8325H3.76416Z" fill="black" fill-opacity="0.85"/>
</g>
<defs>
<clipPath id="clip0_2207_21969">
<rect width="14.0977" height="21.5977" fill="white" transform="translate(0.0610352 0.121582)"/>
</clipPath>
</defs>
</svg>
