<svg width="28" height="22" viewBox="0 0 28 22" fill="none" xmlns="http://www.w3.org/2000/svg">
<g clip-path="url(#clip0_2207_7092)">
<path d="M3.76367 21.6933H24.0371C26.4981 21.6933 27.7168 20.4863 27.7168 18.0722V3.75195C27.7168 1.33789 26.4981 0.119141 24.0371 0.119141H3.76367C1.31445 0.119141 0.0839844 1.33789 0.0839844 3.75195V18.0722C0.0839844 20.4863 1.31445 21.6933 3.76367 21.6933ZM3.7871 19.8066C2.61523 19.8066 1.9707 19.1855 1.9707 17.9668V3.85742C1.9707 2.63867 2.61523 2.00586 3.7871 2.00586H24.0137C25.1738 2.00586 25.8301 2.63867 25.8301 3.85742V17.9668C25.8301 19.1855 25.1738 19.8066 24.0137 19.8066H3.7871Z" fill="black" fill-opacity="0.85"/>
<path d="M14.9317 18.213H23.2051C23.9434 18.213 24.2363 17.9083 24.2363 17.1583V11.9551C24.2363 11.2051 23.9434 10.9004 23.2051 10.9004H14.9317C14.1934 10.9004 13.9004 11.2051 13.9004 11.9551V17.1583C13.9004 17.9083 14.1934 18.213 14.9317 18.213Z" fill="black" fill-opacity="0.85"/>
</g>
<defs>
<clipPath id="clip0_2207_7092">
<rect width="27.6328" height="21.5742" fill="white" transform="translate(0.0839844 0.119141)"/>
</clipPath>
</defs>
</svg>
