<svg width="28" height="26" viewBox="0 0 28 26" fill="none" xmlns="http://www.w3.org/2000/svg">
<g clip-path="url(#clip0_2207_94)">
<path d="M3.68323 25.2573H16.1285C18.5543 25.2573 19.7613 24.0268 19.7613 21.5776V13.8433H11.1012C10.4801 13.8433 9.95275 13.3159 9.95275 12.6831C9.95275 12.0503 10.4801 11.5112 11.1012 11.5112H19.7613V3.8003C19.7613 1.3628 18.5543 0.132324 16.1285 0.132324H3.68323C1.25745 0.132324 0.050415 1.3628 0.050415 3.8003V21.5776C0.050415 24.0268 1.25745 25.2573 3.68323 25.2573Z" fill="black" fill-opacity="0.85"/>
<path d="M18.8473 12.6831C18.8473 13.187 19.2574 13.6089 19.7496 13.6089H23.1598L24.9176 13.5386L24.0856 14.3354L22.1988 16.105C22.0113 16.269 21.9176 16.5151 21.9176 16.7378C21.9176 17.23 22.2574 17.5933 22.7379 17.5933C22.984 17.5933 23.1715 17.4995 23.359 17.3237L27.1793 13.3628C27.4137 13.1284 27.484 12.9175 27.484 12.6831C27.484 12.437 27.4137 12.2378 27.1793 12.0034L23.359 8.04249C23.1715 7.8667 22.984 7.76123 22.7379 7.76123C22.2574 7.76123 21.9176 8.1128 21.9176 8.60499C21.9176 8.83936 22.0113 9.08545 22.1988 9.24952L24.0856 11.0308L24.9176 11.8276L23.1598 11.7456H19.7496C19.2574 11.7456 18.8473 12.1792 18.8473 12.6831Z" fill="black" fill-opacity="0.85"/>
</g>
<defs>
<clipPath id="clip0_2207_94">
<rect width="27.4336" height="25.1367" fill="white" transform="translate(0.050415 0.120605)"/>
</clipPath>
</defs>
</svg>
