<svg width="28" height="22" viewBox="0 0 28 22" fill="none" xmlns="http://www.w3.org/2000/svg">
<g clip-path="url(#clip0_2207_6965)">
<path d="M0 15.791V13.9042H7.96875V7.96289H0V6.07617H7.96875V0.146484H9.85547V6.07617H17.7891V0.146484H19.6758V6.07617H27.6328V7.96289H19.6758V13.9042H27.6328V15.791H19.6758V21.7207H17.7891V15.791H9.85547V21.7207H7.96875V15.791H0ZM9.85547 13.9042H17.7891V7.96289H9.85547V13.9042ZM3.67969 21.7089H23.9531C26.4141 21.7089 27.6328 20.5019 27.6328 18.0878V3.76758C27.6328 1.35352 26.4141 0.134766 23.9531 0.134766H3.67969C1.23047 0.134766 0 1.35352 0 3.76758V18.0878C0 20.5019 1.23047 21.7089 3.67969 21.7089Z" fill="black" fill-opacity="0.85"/>
</g>
<defs>
<clipPath id="clip0_2207_6965">
<rect width="27.6328" height="21.5977" fill="white" transform="translate(0 0.123047)"/>
</clipPath>
</defs>
</svg>
