<svg width="28" height="22" viewBox="0 0 28 22" fill="none" xmlns="http://www.w3.org/2000/svg">
<g clip-path="url(#clip0_2207_7039)">
<path d="M3.75098 21.6958H24.0244C26.4854 21.6958 27.7041 20.4888 27.7041 18.0747V3.75439C27.7041 1.34033 26.4854 0.121582 24.0244 0.121582H3.75098C1.30176 0.121582 0.0712891 1.34033 0.0712891 3.75439V18.0747C0.0712891 20.4888 1.30176 21.6958 3.75098 21.6958ZM3.77441 19.8091C2.60254 19.8091 1.95801 19.188 1.95801 17.9693V3.85986C1.95801 2.64111 2.60254 2.0083 3.77441 2.0083H24.001C25.1611 2.0083 25.8174 2.64111 25.8174 3.85986V17.9693C25.8174 19.188 25.1611 19.8091 24.001 19.8091H3.77441Z" fill="black" fill-opacity="0.85"/>
<path d="M19.8876 18.2154H23.1923C23.9306 18.2154 24.2235 17.9107 24.2235 17.1607V4.66846C24.2235 3.91846 23.9306 3.61377 23.1923 3.61377H19.8876C19.1493 3.61377 18.8564 3.91846 18.8564 4.66846V17.1607C18.8564 17.9107 19.1493 18.2154 19.8876 18.2154Z" fill="black" fill-opacity="0.85"/>
</g>
<defs>
<clipPath id="clip0_2207_7039">
<rect width="27.6328" height="21.5742" fill="white" transform="translate(0.0712891 0.121582)"/>
</clipPath>
</defs>
</svg>
