<svg width="28" height="22" viewBox="0 0 28 22" fill="none" xmlns="http://www.w3.org/2000/svg">
<g clip-path="url(#clip0_2207_6969)">
<path d="M3.76782 21.6933H24.0412C26.5022 21.6933 27.7209 20.4863 27.7209 18.0722V3.75195C27.7209 1.33789 26.5022 0.119141 24.0412 0.119141H3.76782C1.3186 0.119141 0.0881348 1.33789 0.0881348 3.75195V18.0722C0.0881348 20.4863 1.3186 21.6933 3.76782 21.6933ZM3.79125 19.8066C2.61938 19.8066 1.97485 19.1855 1.97485 17.9668V3.85742C1.97485 2.63867 2.61938 2.00586 3.79125 2.00586H24.0178C25.1779 2.00586 25.8342 2.63867 25.8342 3.85742V17.9668C25.8342 19.1855 25.1779 19.8066 24.0178 19.8066H3.79125Z" fill="black" fill-opacity="0.85"/>
<path d="M4.59985 18.2129H23.2092C23.8654 18.2129 24.2404 17.8261 24.2404 17.1582V4.66602C24.2404 3.99805 23.8654 3.61133 23.2092 3.61133H4.59985C3.9436 3.61133 3.58032 3.99805 3.58032 4.66602V17.1582C3.58032 17.8261 3.9436 18.2129 4.59985 18.2129Z" fill="black" fill-opacity="0.85"/>
</g>
<defs>
<clipPath id="clip0_2207_6969">
<rect width="27.6328" height="21.5742" fill="white" transform="translate(0.0881348 0.119141)"/>
</clipPath>
</defs>
</svg>
