<svg width="28" height="22" viewBox="0 0 28 22" fill="none" xmlns="http://www.w3.org/2000/svg">
<g clip-path="url(#clip0_2207_7087)">
<path d="M3.76172 21.6933H24.0351C26.4961 21.6933 27.7148 20.4863 27.7148 18.0722V3.75195C27.7148 1.33789 26.4961 0.119141 24.0351 0.119141H3.76172C1.3125 0.119141 0.0820312 1.33789 0.0820312 3.75195V18.0722C0.0820312 20.4863 1.3125 21.6933 3.76172 21.6933ZM3.78515 19.8066C2.61328 19.8066 1.96875 19.1855 1.96875 17.9668V3.85742C1.96875 2.63867 2.61328 2.00586 3.78515 2.00586H24.0117C25.1718 2.00586 25.8281 2.63867 25.8281 3.85742V17.9668C25.8281 19.1855 25.1718 19.8066 24.0117 19.8066H3.78515Z" fill="black" fill-opacity="0.85"/>
<path d="M4.59375 18.213H12.8672C13.6054 18.213 13.8984 17.9083 13.8984 17.1583V11.9551C13.8984 11.2051 13.6054 10.9004 12.8672 10.9004H4.59375C3.86719 10.9004 3.57422 11.2051 3.57422 11.9551V17.1583C3.57422 17.9083 3.86719 18.213 4.59375 18.213Z" fill="black" fill-opacity="0.85"/>
</g>
<defs>
<clipPath id="clip0_2207_7087">
<rect width="27.6328" height="21.5742" fill="white" transform="translate(0.0820312 0.119141)"/>
</clipPath>
</defs>
</svg>
