<svg width="28" height="22" viewBox="0 0 28 22" fill="none" xmlns="http://www.w3.org/2000/svg">
<g clip-path="url(#clip0_2207_6923)">
<path d="M8.6726 20.4654H10.5593V1.36377H8.6726V20.4654ZM17.2625 20.4654H19.1492V1.36377H17.2625V20.4654ZM3.77417 21.6958H24.0476C26.5086 21.6958 27.7273 20.4888 27.7273 18.0747V3.75439C27.7273 1.34033 26.5086 0.121582 24.0476 0.121582H3.77417C1.32495 0.121582 0.0944824 1.34033 0.0944824 3.75439V18.0747C0.0944824 20.4888 1.32495 21.6958 3.77417 21.6958ZM3.7976 19.8091C2.62573 19.8091 1.9812 19.188 1.9812 17.9693V3.85986C1.9812 2.64111 2.62573 2.0083 3.7976 2.0083H24.0242C25.1843 2.0083 25.8406 2.64111 25.8406 3.85986V17.9693C25.8406 19.188 25.1843 19.8091 24.0242 19.8091H3.7976Z" fill="black" fill-opacity="0.85"/>
</g>
<defs>
<clipPath id="clip0_2207_6923">
<rect width="27.6328" height="21.5742" fill="white" transform="translate(0.0944824 0.121582)"/>
</clipPath>
</defs>
</svg>
