<svg width="27" height="22" viewBox="0 0 27 22" fill="none" xmlns="http://www.w3.org/2000/svg">
<g clip-path="url(#clip0_2207_7319)">
<path d="M16.3115 21.7169H23.8935C25.3818 21.7169 26.1318 20.9786 26.1318 19.4317V14.1817C26.1318 12.6465 25.3818 11.8965 23.8935 11.8965H16.3115C14.8232 11.8965 14.0732 12.6465 14.0732 14.1817V19.4317C14.0732 20.9786 14.8232 21.7169 16.3115 21.7169ZM16.3466 20.0645C15.9248 20.0645 15.7255 19.8536 15.7255 19.4317V14.1934C15.7255 13.7598 15.9248 13.5489 16.3466 13.5489H23.8701C24.2802 13.5489 24.4795 13.7598 24.4795 14.1934V19.4317C24.4795 19.8536 24.2802 20.0645 23.8701 20.0645H16.3466Z" fill="black" fill-opacity="0.85"/>
<path d="M2.30762 21.7169H9.88965C11.3779 21.7169 12.1279 20.9786 12.1279 19.4317V14.1817C12.1279 12.6465 11.3779 11.8965 9.88965 11.8965H2.30762C0.819336 11.8965 0.0693359 12.6465 0.0693359 14.1817V19.4317C0.0693359 20.9786 0.819336 21.7169 2.30762 21.7169ZM2.33106 20.0645C1.9209 20.0645 1.72168 19.8536 1.72168 19.4317V14.1934C1.72168 13.7598 1.9209 13.5489 2.33106 13.5489H9.8545C10.2646 13.5489 10.4755 13.7598 10.4755 14.1934V19.4317C10.4755 19.8536 10.2646 20.0645 9.8545 20.0645H2.33106Z" fill="black" fill-opacity="0.85"/>
<path d="M16.3115 9.96289H23.8935C25.3818 9.96289 26.1318 9.21289 26.1318 7.66602V2.42773C26.1318 0.88086 25.3818 0.142578 23.8935 0.142578H16.3115C14.8232 0.142578 14.0732 0.88086 14.0732 2.42773V7.66602C14.0732 9.21289 14.8232 9.96289 16.3115 9.96289ZM16.3466 8.31055C15.9248 8.31055 15.7255 8.09961 15.7255 7.66602V2.42773C15.7255 2.00586 15.9248 1.79492 16.3466 1.79492H23.8701C24.2802 1.79492 24.4795 2.00586 24.4795 2.42773V7.66602C24.4795 8.09961 24.2802 8.31055 23.8701 8.31055H16.3466Z" fill="black" fill-opacity="0.85"/>
<path d="M2.30762 9.96289H9.88965C11.3779 9.96289 12.1279 9.21289 12.1279 7.66602V2.42773C12.1279 0.88086 11.3779 0.142578 9.88965 0.142578H2.30762C0.819336 0.142578 0.0693359 0.88086 0.0693359 2.42773V7.66602C0.0693359 9.21289 0.819336 9.96289 2.30762 9.96289ZM2.33106 8.31055C1.9209 8.31055 1.72168 8.09961 1.72168 7.66602V2.42773C1.72168 2.00586 1.9209 1.79492 2.33106 1.79492H9.8545C10.2646 1.79492 10.4755 2.00586 10.4755 2.42773V7.66602C10.4755 8.09961 10.2646 8.31055 9.8545 8.31055H2.33106Z" fill="black" fill-opacity="0.85"/>
</g>
<defs>
<clipPath id="clip0_2207_7319">
<rect width="26.0625" height="21.5977" fill="white" transform="translate(0.0693359 0.119141)"/>
</clipPath>
</defs>
</svg>
