<svg width="20" height="26" viewBox="0 0 20 26" fill="none" xmlns="http://www.w3.org/2000/svg">
<g clip-path="url(#clip0_2207_7475)">
<path d="M0.0461426 21.5786C0.0461426 24.0278 1.25317 25.2466 3.67895 25.2466H16.1242C18.55 25.2466 19.757 24.0278 19.757 21.5786V3.80127C19.757 1.36377 18.55 0.121582 16.1242 0.121582H3.67895C1.25317 0.121582 0.0461426 1.36377 0.0461426 3.80127V21.5786ZM1.93286 21.5435V3.83642C1.93286 2.66455 2.55395 2.0083 3.7727 2.0083H16.0305C17.2492 2.0083 17.8703 2.66455 17.8703 3.83642V21.5435C17.8703 22.7154 17.2492 23.3599 16.0305 23.3599H3.7727C2.55395 23.3599 1.93286 22.7154 1.93286 21.5435Z" fill="black" fill-opacity="0.85"/>
<path d="M13.0773 21.7661H15.2219C15.9719 21.7661 16.2649 21.4732 16.2649 20.7349V4.64502C16.2649 3.90674 15.9719 3.61377 15.2219 3.61377H13.0773C12.3273 3.61377 12.0227 3.90674 12.0227 4.64502V20.7349C12.0227 21.4732 12.3273 21.7661 13.0773 21.7661Z" fill="black" fill-opacity="0.85"/>
</g>
<defs>
<clipPath id="clip0_2207_7475">
<rect width="19.7109" height="25.1367" fill="white" transform="translate(0.0461426 0.121582)"/>
</clipPath>
</defs>
</svg>
