<svg width="28" height="22" viewBox="0 0 28 22" fill="none" xmlns="http://www.w3.org/2000/svg">
<g clip-path="url(#clip0_2207_7067)">
<path d="M3.77637 21.9746H24.0498C26.5108 21.9746 27.7295 20.7558 27.7295 18.3418V4.0332C27.7295 1.61914 26.5108 0.400391 24.0498 0.400391H3.77637C1.32715 0.400391 0.0966797 1.60742 0.0966797 4.0332V18.3418C0.0966797 20.7675 1.32715 21.9746 3.77637 21.9746ZM3.7998 20.0879C2.62793 20.0879 1.9834 19.455 1.9834 18.248V4.12695C1.9834 2.9082 2.62793 2.28711 3.7998 2.28711H24.0264C25.1865 2.28711 25.8428 2.9082 25.8428 4.12695V18.248C25.8428 19.455 25.1865 20.0879 24.0264 20.0879H3.7998Z" fill="black" fill-opacity="0.85"/>
<path d="M4.6084 11.041H12.8819C13.6201 11.041 13.9131 10.7363 13.9131 9.98633V4.80664C13.9131 4.05664 13.6201 3.75195 12.8819 3.75195H4.6084C3.88184 3.75195 3.58887 4.05664 3.58887 4.80664V9.98633C3.58887 10.7363 3.88184 11.041 4.6084 11.041Z" fill="black" fill-opacity="0.85"/>
</g>
<defs>
<clipPath id="clip0_2207_7067">
<rect width="27.6328" height="21.8555" fill="white" transform="translate(0.0966797 0.119141)"/>
</clipPath>
</defs>
</svg>
