<svg width="22" height="17" viewBox="0 0 22 17" fill="none" xmlns="http://www.w3.org/2000/svg">
<g clip-path="url(#clip0_2207_21961)">
<path d="M0.0566406 3.80127V12.7661C0.0566406 15.2154 1.27539 16.4458 3.68945 16.4458H17.998C20.4121 16.4458 21.6308 15.2154 21.6308 12.7661V3.80127C21.6308 1.36377 20.4238 0.121582 17.998 0.121582H3.68945C1.26367 0.121582 0.0566406 1.36377 0.0566406 3.80127ZM1.94336 3.83642C1.94336 2.66455 2.56445 2.0083 3.7832 2.0083H17.9043C19.123 2.0083 19.7441 2.66455 19.7441 3.83642V12.731C19.7441 13.8911 19.123 14.5591 17.9043 14.5591H3.7832C2.56445 14.5591 1.94336 13.8911 1.94336 12.731V3.83642Z" fill="black" fill-opacity="0.85"/>
</g>
<defs>
<clipPath id="clip0_2207_21961">
<rect width="21.5742" height="16.3242" fill="white" transform="translate(0.0566406 0.121582)"/>
</clipPath>
</defs>
</svg>
