<svg width="22" height="15" viewBox="0 0 22 15" fill="none" xmlns="http://www.w3.org/2000/svg">
<g clip-path="url(#clip0_2207_21977)">
<path d="M0.0483398 3.8247V10.563C0.0483398 13.0239 1.26709 14.2427 3.68115 14.2427H17.9897C20.4038 14.2427 21.6225 13.0239 21.6225 10.563V3.8247C21.6225 1.37549 20.4155 0.14502 17.9897 0.14502H3.68115C1.25537 0.14502 0.0483398 1.37549 0.0483398 3.8247ZM1.93506 3.84814C1.93506 2.67627 2.55615 2.03174 3.7749 2.03174H17.896C19.1147 2.03174 19.7358 2.67627 19.7358 3.84814V10.5396C19.7358 11.688 19.1147 12.356 17.896 12.356H3.7749C2.55615 12.356 1.93506 11.688 1.93506 10.5396V3.84814Z" fill="black" fill-opacity="0.85"/>
</g>
<defs>
<clipPath id="clip0_2207_21977">
<rect width="21.5742" height="14.1211" fill="white" transform="translate(0.0483398 0.121582)"/>
</clipPath>
</defs>
</svg>
