<svg width="20" height="26" viewBox="0 0 20 26" fill="none" xmlns="http://www.w3.org/2000/svg">
<g clip-path="url(#clip0_2207_7480)">
<path d="M0.079834 21.5776C0.079834 24.0268 1.28686 25.2456 3.71264 25.2456H16.1579C18.5837 25.2456 19.7907 24.0268 19.7907 21.5776V3.8003C19.7907 1.3628 18.5837 0.120605 16.1579 0.120605H3.71264C1.28686 0.120605 0.079834 1.3628 0.079834 3.8003V21.5776ZM1.96655 21.5425V3.83545C1.96655 2.66358 2.58764 2.00733 3.80639 2.00733H16.0642C17.2829 2.00733 17.904 2.66358 17.904 3.83545V21.5425C17.904 22.7144 17.2829 23.3589 16.0642 23.3589H3.80639C2.58764 23.3589 1.96655 22.7144 1.96655 21.5425Z" fill="black" fill-opacity="0.85"/>
<path d="M5.37671 6.81202V18.5659C5.37671 19.3745 5.71655 19.7261 6.5603 19.7261H13.3103C14.154 19.7261 14.4939 19.3745 14.4939 18.5659V6.81202C14.4939 5.9917 14.154 5.65186 13.3103 5.65186H6.5603C5.71655 5.65186 5.37671 5.9917 5.37671 6.81202Z" fill="black" fill-opacity="0.85"/>
</g>
<defs>
<clipPath id="clip0_2207_7480">
<rect width="19.7109" height="25.1367" fill="white" transform="translate(0.079834 0.120605)"/>
</clipPath>
</defs>
</svg>
