<svg width="31" height="28" viewBox="0 0 31 28" fill="none" xmlns="http://www.w3.org/2000/svg">
<g clip-path="url(#clip0_2207_7198)">
<path d="M3.74073 20.0293H19.7485C22.1977 20.0293 23.4282 18.8105 23.4282 16.3964V5.3457C23.4282 2.93164 22.1977 1.71289 19.7485 1.71289H3.74073C1.29151 1.71289 0.0610352 2.93164 0.0610352 5.3457V16.3964C0.0610352 18.8222 1.29151 20.0293 3.74073 20.0293Z" fill="black" fill-opacity="0.85"/>
<path d="M9.52979 27.0605H25.5376C28.8657 27.0605 30.8227 25.1269 30.8227 21.8222V10.7714C30.8227 7.4668 28.8657 5.54492 25.5376 5.54492H9.52979C6.18995 5.54492 4.25635 7.4668 4.25635 10.7714V21.8222C4.25635 25.1386 6.18995 27.0605 9.52979 27.0605Z" fill="white"/>
<path d="M9.52979 25.455H25.5376C27.9868 25.455 29.2172 24.2363 29.2172 21.8222V10.7714C29.2172 8.35742 27.9868 7.13867 25.5376 7.13867H9.52979C7.08057 7.13867 5.8501 8.35742 5.8501 10.7714V21.8222C5.8501 24.248 7.08057 25.455 9.52979 25.455Z" fill="black" fill-opacity="0.85"/>
</g>
<defs>
<clipPath id="clip0_2207_7198">
<rect width="30.7617" height="26.9414" fill="white" transform="translate(0.0610352 0.119141)"/>
</clipPath>
</defs>
</svg>
