<svg width="20" height="26" viewBox="0 0 20 26" fill="none" xmlns="http://www.w3.org/2000/svg">
<g clip-path="url(#clip0_2207_7485)">
<path d="M0.0356445 21.5786C0.0356445 24.0278 1.24267 25.2466 3.66845 25.2466H16.1137C18.5395 25.2466 19.7465 24.0278 19.7465 21.5786V3.80127C19.7465 1.36377 18.5395 0.121582 16.1137 0.121582H3.66845C1.24267 0.121582 0.0356445 1.36377 0.0356445 3.80127V21.5786ZM1.92236 21.5435V3.83642C1.92236 2.66455 2.54345 2.0083 3.7622 2.0083H16.02C17.2387 2.0083 17.8598 2.66455 17.8598 3.83642V21.5435C17.8598 22.7154 17.2387 23.3599 16.02 23.3599H3.7622C2.54345 23.3599 1.92236 22.7154 1.92236 21.5435Z" fill="black" fill-opacity="0.85"/>
<path d="M4.5708 12.6841H8.83642C9.58642 12.6841 9.89111 12.3911 9.89111 11.6528V4.64502C9.89111 3.90674 9.58642 3.61377 8.83642 3.61377H4.5708C3.83252 3.61377 3.52783 3.90674 3.52783 4.64502V11.6528C3.52783 12.3911 3.83252 12.6841 4.5708 12.6841Z" fill="black" fill-opacity="0.85"/>
</g>
<defs>
<clipPath id="clip0_2207_7485">
<rect width="19.7109" height="25.1367" fill="white" transform="translate(0.0356445 0.121582)"/>
</clipPath>
</defs>
</svg>
