<svg width="28" height="22" viewBox="0 0 28 22" fill="none" xmlns="http://www.w3.org/2000/svg">
<g clip-path="url(#clip0_2207_6974)">
<path d="M3.70484 21.6972H23.9782C26.4392 21.6972 27.6579 20.4902 27.6579 18.0761V3.75586C27.6579 1.3418 26.4392 0.123047 23.9782 0.123047H3.70484C1.25562 0.123047 0.0251465 1.3418 0.0251465 3.75586V18.0761C0.0251465 20.4902 1.25562 21.6972 3.70484 21.6972ZM3.72827 19.8105C2.5564 19.8105 1.91187 19.1894 1.91187 17.9707V3.86133C1.91187 2.64258 2.5564 2.00977 3.72827 2.00977H23.9548C25.1149 2.00977 25.7712 2.64258 25.7712 3.86133V17.9707C25.7712 19.1894 25.1149 19.8105 23.9548 19.8105H3.72827Z" fill="black" fill-opacity="0.85"/>
<path d="M4.53686 10.8925H23.1462C23.8024 10.8925 24.1774 10.5058 24.1774 9.8496V4.66992C24.1774 4.00195 23.8024 3.61523 23.1462 3.61523H4.53686C3.88061 3.61523 3.51733 4.00195 3.51733 4.66992V9.8496C3.51733 10.5058 3.88061 10.8925 4.53686 10.8925Z" fill="black" fill-opacity="0.85"/>
</g>
<defs>
<clipPath id="clip0_2207_6974">
<rect width="27.6328" height="21.5742" fill="white" transform="translate(0.0251465 0.123047)"/>
</clipPath>
</defs>
</svg>
