<svg width="20" height="26" viewBox="0 0 20 26" fill="none" xmlns="http://www.w3.org/2000/svg">
<g clip-path="url(#clip0_2207_7430)">
<path d="M0.0922852 21.5776C0.0922852 24.0268 1.29932 25.2456 3.7251 25.2456H16.1704C18.5962 25.2456 19.8032 24.0268 19.8032 21.5776V3.8003C19.8032 1.3628 18.5962 0.120605 16.1704 0.120605H3.7251C1.29932 0.120605 0.0922852 1.3628 0.0922852 3.8003V21.5776ZM1.97901 21.5425V3.83545C1.97901 2.66358 2.6001 2.00733 3.81885 2.00733H16.0767C17.2954 2.00733 17.9165 2.66358 17.9165 3.83545V21.5425C17.9165 22.7144 17.2954 23.3589 16.0767 23.3589H3.81885C2.6001 23.3589 1.97901 22.7144 1.97901 21.5425Z" fill="black" fill-opacity="0.85"/>
<path d="M4.62744 21.7651H8.89306C9.64306 21.7651 9.94775 21.4722 9.94775 20.7339V4.64404C9.94775 3.90576 9.64306 3.61279 8.89306 3.61279H4.62744C3.88916 3.61279 3.58447 3.90576 3.58447 4.64404V20.7339C3.58447 21.4722 3.88916 21.7651 4.62744 21.7651Z" fill="black" fill-opacity="0.85"/>
</g>
<defs>
<clipPath id="clip0_2207_7430">
<rect width="19.7109" height="25.1367" fill="white" transform="translate(0.0922852 0.120605)"/>
</clipPath>
</defs>
</svg>
