<svg width="20" height="26" viewBox="0 0 20 26" fill="none" xmlns="http://www.w3.org/2000/svg">
<g clip-path="url(#clip0_2207_7510)">
<path d="M0.0734863 21.5776C0.0734863 24.0268 1.28052 25.2456 3.7063 25.2456H16.1516C18.5774 25.2456 19.7844 24.0268 19.7844 21.5776V3.8003C19.7844 1.3628 18.5774 0.120605 16.1516 0.120605H3.7063C1.28052 0.120605 0.0734863 1.3628 0.0734863 3.8003V21.5776ZM1.96021 21.5425V3.83545C1.96021 2.66358 2.5813 2.00733 3.80005 2.00733H16.0579C17.2766 2.00733 17.8977 2.66358 17.8977 3.83545V21.5425C17.8977 22.7144 17.2766 23.3589 16.0579 23.3589H3.80005C2.5813 23.3589 1.96021 22.7144 1.96021 21.5425Z" fill="black" fill-opacity="0.85"/>
<path d="M10.9837 21.7651H15.2493C15.9993 21.7651 16.2923 21.4722 16.2923 20.7339V13.7144C16.2923 12.9761 15.9993 12.6831 15.2493 12.6831H10.9837C10.2337 12.6831 9.92896 12.9761 9.92896 13.7144V20.7339C9.92896 21.4722 10.2337 21.7651 10.9837 21.7651Z" fill="black" fill-opacity="0.85"/>
</g>
<defs>
<clipPath id="clip0_2207_7510">
<rect width="19.7109" height="25.1367" fill="white" transform="translate(0.0734863 0.120605)"/>
</clipPath>
</defs>
</svg>
