<svg width="28" height="22" viewBox="0 0 28 22" fill="none" xmlns="http://www.w3.org/2000/svg">
<g clip-path="url(#clip0_2207_19125)">
<path d="M0.0378418 6.31836H1.92456V3.86914C1.92456 2.65039 2.56909 2.0293 3.74096 2.0293H6.16675V0.142578H3.71753C1.26831 0.142578 0.0378418 1.34961 0.0378418 3.77539V6.31836ZM0.0378418 13.9355H1.92456V7.92383H0.0378418V13.9355ZM3.71753 21.7168H6.16675V19.83H3.74096C2.56909 19.83 1.92456 19.2089 1.92456 17.9902V15.541H0.0378418V18.0839C0.0378418 20.5097 1.26831 21.7168 3.71753 21.7168ZM7.77222 21.7168H13.0573V19.83H7.77222V21.7168ZM14.6511 21.7168H19.9362V19.83H14.6511V21.7168ZM23.9909 21.7168C26.4401 21.7168 27.6706 20.5097 27.6706 18.0839V15.541H25.7839V17.9902C25.7839 19.2089 25.1394 19.83 23.9675 19.83H21.5417V21.7168H23.9909ZM27.6706 6.31836V3.77539C27.6706 1.34961 26.4401 0.142578 23.9909 0.142578H21.5417V2.0293H23.9675C25.1394 2.0293 25.7839 2.65039 25.7839 3.86914V6.31836H27.6706ZM27.6706 13.9355V7.92383H25.7839V13.9355H27.6706ZM7.77222 2.0293H13.0573V0.142578H7.77222V2.0293ZM14.6511 2.0293H19.9362V0.142578H14.6511V2.0293Z" fill="black" fill-opacity="0.85"/>
</g>
<defs>
<clipPath id="clip0_2207_19125">
<rect width="27.6328" height="21.5977" fill="white" transform="translate(0.0378418 0.119141)"/>
</clipPath>
</defs>
</svg>
