<svg width="26" height="33" viewBox="0 0 26 33" fill="none" xmlns="http://www.w3.org/2000/svg">
<g clip-path="url(#clip0_2207_7531)">
<path d="M18.3186 5.39502C18.3186 2.9458 17.1116 1.71533 14.6975 1.71533H3.63501C1.22095 1.71533 0.00219727 2.9458 0.00219727 5.39502V21.4028C0.00219727 23.8521 1.22095 25.0825 3.63501 25.0825H14.6975C17.1116 25.0825 18.3186 23.8521 18.3186 21.4028V5.39502Z" fill="black" fill-opacity="0.85"/>
<path d="M25.3499 11.1841C25.3499 7.84424 23.428 5.91064 20.1116 5.91064H9.06079C5.74439 5.91064 3.83423 7.84424 3.83423 11.1841V27.1919C3.83423 30.52 5.75611 32.4771 9.06079 32.4771H20.1116C23.4163 32.4771 25.3499 30.52 25.3499 27.1919V11.1841Z" fill="white"/>
<path d="M23.7444 11.1841C23.7444 8.73486 22.5374 7.50439 20.1116 7.50439H9.06079C6.63501 7.50439 5.42798 8.73486 5.42798 11.1841V27.1919C5.42798 29.6411 6.64673 30.8716 9.06079 30.8716H20.1116C22.5256 30.8716 23.7444 29.6411 23.7444 27.1919V11.1841Z" fill="black" fill-opacity="0.85"/>
</g>
<defs>
<clipPath id="clip0_2207_7531">
<rect width="25.3477" height="32.3555" fill="white" transform="translate(0.00219727 0.121582)"/>
</clipPath>
</defs>
</svg>
