<svg width="20" height="26" viewBox="0 0 20 26" fill="none" xmlns="http://www.w3.org/2000/svg">
<g clip-path="url(#clip0_2207_7435)">
<path d="M0.010498 21.5786C0.010498 24.0278 1.21753 25.2466 3.64331 25.2466H16.0886C18.5144 25.2466 19.7214 24.0278 19.7214 21.5786V3.80127C19.7214 1.36377 18.5144 0.121582 16.0886 0.121582H3.64331C1.21753 0.121582 0.010498 1.36377 0.010498 3.80127V21.5786ZM1.89722 21.5435V3.83642C1.89722 2.66455 2.51831 2.0083 3.73706 2.0083H15.9949C17.2136 2.0083 17.8347 2.66455 17.8347 3.83642V21.5435C17.8347 22.7154 17.2136 23.3599 15.9949 23.3599H3.73706C2.51831 23.3599 1.89722 22.7154 1.89722 21.5435Z" fill="black" fill-opacity="0.85"/>
<path d="M10.9207 21.7661H15.1863C15.9363 21.7661 16.2293 21.4732 16.2293 20.7349V4.64502C16.2293 3.90674 15.9363 3.61377 15.1863 3.61377H10.9207C10.1707 3.61377 9.86597 3.90674 9.86597 4.64502V20.7349C9.86597 21.4732 10.1707 21.7661 10.9207 21.7661Z" fill="black" fill-opacity="0.85"/>
</g>
<defs>
<clipPath id="clip0_2207_7435">
<rect width="19.7109" height="25.1367" fill="white" transform="translate(0.010498 0.121582)"/>
</clipPath>
</defs>
</svg>
