<svg width="20" height="26" viewBox="0 0 20 26" fill="none" xmlns="http://www.w3.org/2000/svg">
<g clip-path="url(#clip0_2207_7425)">
<path d="M0.0671387 21.5776C0.0671387 24.0268 1.27417 25.2456 3.69995 25.2456H16.1452C18.571 25.2456 19.778 24.0268 19.778 21.5776V3.8003C19.778 1.3628 18.571 0.120605 16.1452 0.120605H3.69995C1.27417 0.120605 0.0671387 1.3628 0.0671387 3.8003V21.5776ZM1.95386 21.5425V3.83545C1.95386 2.66358 2.57495 2.00733 3.7937 2.00733H16.0515C17.2702 2.00733 17.8913 2.66358 17.8913 3.83545V21.5425C17.8913 22.7144 17.2702 23.3589 16.0515 23.3589H3.7937C2.57495 23.3589 1.95386 22.7144 1.95386 21.5425Z" fill="black" fill-opacity="0.85"/>
<path d="M4.57886 21.7651H15.2194C15.9694 21.7651 16.2624 21.4722 16.2624 20.7339V13.7144C16.2624 12.9761 15.9694 12.6831 15.2194 12.6831H4.57886C3.84058 12.6831 3.53589 12.9761 3.53589 13.7144V20.7339C3.53589 21.4722 3.84058 21.7651 4.57886 21.7651Z" fill="black" fill-opacity="0.85"/>
</g>
<defs>
<clipPath id="clip0_2207_7425">
<rect width="19.7109" height="25.1367" fill="white" transform="translate(0.0671387 0.120605)"/>
</clipPath>
</defs>
</svg>
