<svg width="27" height="27" viewBox="0 0 27 27" fill="none" xmlns="http://www.w3.org/2000/svg">
<g clip-path="url(#clip0_2207_7573)">
<path d="M14.2312 24.9141V2.03906H12.3562V24.9141H14.2312ZM3.43823 22.2774C3.43823 24.7266 4.64526 25.9453 7.07104 25.9453H19.5163C21.9421 25.9453 23.1491 24.7266 23.1491 22.2774V4.5C23.1491 2.0625 21.9421 0.820312 19.5163 0.820312H7.07104C4.64526 0.820312 3.43823 2.0625 3.43823 4.5V22.2774ZM5.32494 22.2422V4.53515C5.32494 3.36328 5.94604 2.70703 7.16479 2.70703H19.4226C20.6413 2.70703 21.2624 3.36328 21.2624 4.53515V22.2422C21.2624 23.4141 20.6413 24.0586 19.4226 24.0586H7.16479C5.94604 24.0586 5.32494 23.4141 5.32494 22.2422Z" fill="black" fill-opacity="0.85"/>
<path d="M22.6804 25.9805C23.5593 26.836 25.0124 26.8711 25.8913 25.9571C26.7702 25.0664 26.7585 23.6367 25.8796 22.7461L3.90699 0.785163C3.02808 -0.0937425 1.58667 -0.105462 0.684327 0.785163C-0.19458 1.65235 -0.19458 3.12891 0.684327 3.9961L22.6804 25.9805Z" fill="white"/>
<path d="M23.6413 25.0078C24.0046 25.3594 24.5788 25.3594 24.9187 25.0078C25.2702 24.6446 25.2702 24.0703 24.9187 23.7188L2.94605 1.75783C2.59449 1.40627 2.00855 1.39455 1.65699 1.75783C1.30542 2.09767 1.30542 2.69533 1.65699 3.03517L23.6413 25.0078Z" fill="black" fill-opacity="0.85"/>
</g>
<defs>
<clipPath id="clip0_2207_7573">
<rect width="26.5196" height="26.5342" fill="white" transform="translate(0.0251465 0.121582)"/>
</clipPath>
</defs>
</svg>
