<svg width="28" height="22" viewBox="0 0 28 22" fill="none" xmlns="http://www.w3.org/2000/svg">
<g clip-path="url(#clip0_2207_7044)">
<path d="M3.69019 21.6948H23.9636C26.4246 21.6948 27.6433 20.4878 27.6433 18.0737V3.75342C27.6433 1.33936 26.4246 0.120605 23.9636 0.120605H3.69019C1.24097 0.120605 0.010498 1.33936 0.010498 3.75342V18.0737C0.010498 20.4878 1.24097 21.6948 3.69019 21.6948ZM3.71362 19.8081C2.54175 19.8081 1.89722 19.187 1.89722 17.9683V3.85889C1.89722 2.64014 2.54175 2.00733 3.71362 2.00733H23.9402C25.1003 2.00733 25.7566 2.64014 25.7566 3.85889V17.9683C25.7566 19.187 25.1003 19.8081 23.9402 19.8081H3.71362Z" fill="black" fill-opacity="0.85"/>
<path d="M4.52222 18.2144H7.83862C8.56519 18.2144 8.85816 17.9097 8.85816 17.1597V4.66748C8.85816 3.91748 8.56519 3.61279 7.83862 3.61279H4.52222C3.79566 3.61279 3.50269 3.91748 3.50269 4.66748V17.1597C3.50269 17.9097 3.79566 18.2144 4.52222 18.2144Z" fill="black" fill-opacity="0.85"/>
</g>
<defs>
<clipPath id="clip0_2207_7044">
<rect width="27.6328" height="21.5742" fill="white" transform="translate(0.010498 0.120605)"/>
</clipPath>
</defs>
</svg>
