<svg width="27" height="27" viewBox="0 0 27 27" fill="none" xmlns="http://www.w3.org/2000/svg">
<g clip-path="url(#clip0_2207_7579)">
<path d="M14.2334 25.9453H12.3584V0.820312H14.2334V25.9453ZM3.44043 22.2774C3.44043 24.7266 4.64746 25.9453 7.07324 25.9453H19.5185C21.9443 25.9453 23.1513 24.7266 23.1513 22.2774V4.5C23.1513 2.0625 21.9443 0.820312 19.5185 0.820312H7.07324C4.64746 0.820312 3.44043 2.0625 3.44043 4.5V22.2774Z" fill="black" fill-opacity="0.85"/>
<path d="M22.6826 25.9805C23.5615 26.836 25.0146 26.8711 25.8935 25.9571C26.7724 25.0664 26.7607 23.6367 25.8818 22.7461L3.90918 0.785163C3.03027 -0.0937425 1.58886 -0.105462 0.686524 0.785163C-0.192383 1.65235 -0.192383 3.12891 0.686524 3.9961L22.6826 25.9805Z" fill="white"/>
<path d="M23.6435 25.0078C24.0068 25.3594 24.581 25.3594 24.9209 25.0078C25.2724 24.6446 25.2724 24.0703 24.9209 23.7188L2.94825 1.75783C2.59669 1.40627 2.01075 1.39455 1.65919 1.75783C1.30762 2.09767 1.30762 2.69533 1.65919 3.03517L23.6435 25.0078Z" fill="black" fill-opacity="0.85"/>
</g>
<defs>
<clipPath id="clip0_2207_7579">
<rect width="26.5196" height="26.5342" fill="white" transform="translate(0.0273438 0.121582)"/>
</clipPath>
</defs>
</svg>
