<svg width="28" height="22" viewBox="0 0 28 22" fill="none" xmlns="http://www.w3.org/2000/svg">
<g clip-path="url(#clip0_2207_6984)">
<path d="M3.69434 21.6948H23.9677C26.4287 21.6948 27.6474 20.4878 27.6474 18.0737V3.75342C27.6474 1.33936 26.4287 0.120605 23.9677 0.120605H3.69434C1.24512 0.120605 0.0146484 1.33936 0.0146484 3.75342V18.0737C0.0146484 20.4878 1.24512 21.6948 3.69434 21.6948ZM3.71777 19.8081C2.5459 19.8081 1.90137 19.187 1.90137 17.9683V3.85889C1.90137 2.64014 2.5459 2.00733 3.71777 2.00733H23.9443C25.1045 2.00733 25.7607 2.64014 25.7607 3.85889V17.9683C25.7607 19.187 25.1045 19.8081 23.9443 19.8081H3.71777Z" fill="black" fill-opacity="0.85"/>
<path d="M4.52637 18.2144H12.8232C13.5616 18.2144 13.8545 17.9097 13.8545 17.1597V4.66748C13.8545 3.91748 13.5616 3.61279 12.8232 3.61279H4.52637C3.79981 3.61279 3.50684 3.91748 3.50684 4.66748V17.1597C3.50684 17.9097 3.79981 18.2144 4.52637 18.2144Z" fill="black" fill-opacity="0.85"/>
</g>
<defs>
<clipPath id="clip0_2207_6984">
<rect width="27.6328" height="21.5742" fill="white" transform="translate(0.0146484 0.120605)"/>
</clipPath>
</defs>
</svg>
