<svg width="26" height="22" viewBox="0 0 26 22" fill="none" xmlns="http://www.w3.org/2000/svg">
<g clip-path="url(#clip0_2207_7360)">
<path d="M20.4546 21.7169H23.0913C24.5796 21.7169 25.3296 20.9786 25.3296 19.4317V14.1817C25.3296 12.6465 24.5796 11.8965 23.0913 11.8965H20.4546C18.9546 11.8965 18.2046 12.6465 18.2046 14.1817V19.4317C18.2046 20.9786 18.9546 21.7169 20.4546 21.7169Z" fill="black" fill-opacity="0.85"/>
<path d="M11.3843 21.7169H14.0327C15.521 21.7169 16.271 20.9786 16.271 19.4317V14.1817C16.271 12.6465 15.521 11.8965 14.0327 11.8965H11.3843C9.896 11.8965 9.146 12.6465 9.146 14.1817V19.4317C9.146 20.9786 9.896 21.7169 11.3843 21.7169Z" fill="black" fill-opacity="0.85"/>
<path d="M2.31396 21.7169H4.9624C6.45068 21.7169 7.20068 20.9786 7.20068 19.4317V14.1817C7.20068 12.6465 6.45068 11.8965 4.9624 11.8965H2.31396C0.825684 11.8965 0.0756836 12.6465 0.0756836 14.1817V19.4317C0.0756836 20.9786 0.825684 21.7169 2.31396 21.7169Z" fill="black" fill-opacity="0.85"/>
<path d="M20.4546 9.96289H23.0913C24.5796 9.96289 25.3296 9.21289 25.3296 7.66602V2.42773C25.3296 0.88086 24.5796 0.142578 23.0913 0.142578H20.4546C18.9546 0.142578 18.2046 0.88086 18.2046 2.42773V7.66602C18.2046 9.21289 18.9546 9.96289 20.4546 9.96289Z" fill="black" fill-opacity="0.85"/>
<path d="M11.3843 9.96289H14.0327C15.521 9.96289 16.271 9.21289 16.271 7.66602V2.42773C16.271 0.88086 15.521 0.142578 14.0327 0.142578H11.3843C9.896 0.142578 9.146 0.88086 9.146 2.42773V7.66602C9.146 9.21289 9.896 9.96289 11.3843 9.96289Z" fill="black" fill-opacity="0.85"/>
<path d="M2.31396 9.96289H4.9624C6.45068 9.96289 7.20068 9.21289 7.20068 7.66602V2.42773C7.20068 0.88086 6.45068 0.142578 4.9624 0.142578H2.31396C0.825684 0.142578 0.0756836 0.88086 0.0756836 2.42773V7.66602C0.0756836 9.21289 0.825684 9.96289 2.31396 9.96289Z" fill="black" fill-opacity="0.85"/>
</g>
<defs>
<clipPath id="clip0_2207_7360">
<rect width="25.2539" height="21.5977" fill="white" transform="translate(0.0756836 0.119141)"/>
</clipPath>
</defs>
</svg>
