<svg width="26" height="22" viewBox="0 0 26 22" fill="none" xmlns="http://www.w3.org/2000/svg">
<g clip-path="url(#clip0_2207_7369)">
<path d="M2.7605 21.7169H22.6941C24.4871 21.7169 25.3894 20.8497 25.3894 19.045V14.5567C25.3894 12.7754 24.4871 11.8965 22.6941 11.8965H2.7605C0.96753 11.8965 0.0651855 12.7754 0.0651855 14.5567V19.045C0.0651855 20.8497 0.96753 21.7169 2.7605 21.7169ZM2.90113 19.9473C2.20972 19.9473 1.83472 19.584 1.83472 18.8575V14.7559C1.83472 14.0176 2.20972 13.6661 2.90113 13.6661H22.5418C23.2449 13.6661 23.6199 14.0176 23.6199 14.7559V18.8575C23.6199 19.584 23.2449 19.9473 22.5418 19.9473H2.90113Z" fill="black" fill-opacity="0.85"/>
<path d="M2.7605 9.96289H22.6941C24.4871 9.96289 25.3894 9.08398 25.3894 7.2793V2.80273C25.3894 1.00977 24.4871 0.142578 22.6941 0.142578H2.7605C0.96753 0.142578 0.0651855 1.00977 0.0651855 2.80273V7.2793C0.0651855 9.08398 0.96753 9.96289 2.7605 9.96289ZM2.90113 8.19336C2.20972 8.19336 1.83472 7.83008 1.83472 7.10352V3.00195C1.83472 2.26367 2.20972 1.91211 2.90113 1.91211H22.5418C23.2449 1.91211 23.6199 2.26367 23.6199 3.00195V7.10352C23.6199 7.83008 23.2449 8.19336 22.5418 8.19336H2.90113Z" fill="black" fill-opacity="0.85"/>
</g>
<defs>
<clipPath id="clip0_2207_7369">
<rect width="25.3242" height="21.5977" fill="white" transform="translate(0.0651855 0.119141)"/>
</clipPath>
</defs>
</svg>
