<svg width="24" height="30" viewBox="0 0 24 30" fill="none" xmlns="http://www.w3.org/2000/svg">
<g clip-path="url(#clip0_2207_7525)">
<path d="M18.4131 3.8003C18.4131 1.35108 17.2061 0.120605 14.7803 0.120605H3.72949C1.30371 0.120605 0.0966797 1.35108 0.0966797 3.8003V19.8081C0.0966797 22.2573 1.31543 23.4878 3.72949 23.4878H14.7803C17.1944 23.4878 18.4131 22.2573 18.4131 19.8081V3.8003ZM16.5264 3.83545V19.7847C16.5264 20.9331 15.9053 21.6011 14.6865 21.6011H3.82324C2.60449 21.6011 1.9834 20.9331 1.9834 19.7847V3.83545C1.9834 2.66358 2.60449 2.00733 3.82324 2.00733H14.6865C15.9053 2.00733 16.5264 2.66358 16.5264 3.83545Z" fill="black" fill-opacity="0.85"/>
<path d="M23.8389 9.58936C23.8389 7.14014 22.6319 5.90967 20.2061 5.90967H9.15527C6.72949 5.90967 5.52246 7.14014 5.52246 9.58936V25.5972C5.52246 28.0464 6.74121 29.2768 9.15527 29.2768H20.2061C22.6201 29.2768 23.8389 28.0464 23.8389 25.5972V9.58936Z" fill="white"/>
<path d="M23.8389 9.58936C23.8389 7.14014 22.6319 5.90967 20.2061 5.90967H9.15527C6.72949 5.90967 5.52246 7.14014 5.52246 9.58936V25.5972C5.52246 28.0464 6.74121 29.2768 9.15527 29.2768H20.2061C22.6201 29.2768 23.8389 28.0464 23.8389 25.5972V9.58936ZM21.9522 9.62452V25.5737C21.9522 26.7222 21.3311 27.3901 20.1123 27.3901H9.24902C8.03027 27.3901 7.40918 26.7222 7.40918 25.5737V9.62452C7.40918 8.45264 8.03027 7.79639 9.24902 7.79639H20.1123C21.3311 7.79639 21.9522 8.45264 21.9522 9.62452Z" fill="black" fill-opacity="0.85"/>
</g>
<defs>
<clipPath id="clip0_2207_7525">
<rect width="23.7422" height="29.168" fill="white" transform="translate(0.0966797 0.120605)"/>
</clipPath>
</defs>
</svg>
