<svg width="28" height="22" viewBox="0 0 28 22" fill="none" xmlns="http://www.w3.org/2000/svg">
<g clip-path="url(#clip0_2207_7097)">
<path d="M3.75952 21.6933H24.0329C26.4939 21.6933 27.7126 20.4863 27.7126 18.0722V3.75195C27.7126 1.33789 26.4939 0.119141 24.0329 0.119141H3.75952C1.3103 0.119141 0.079834 1.33789 0.079834 3.75195V18.0722C0.079834 20.4863 1.3103 21.6933 3.75952 21.6933ZM3.78295 19.8066C2.61108 19.8066 1.96655 19.1855 1.96655 17.9668V3.85742C1.96655 2.63867 2.61108 2.00586 3.78295 2.00586H24.0095C25.1696 2.00586 25.8259 2.63867 25.8259 3.85742V17.9668C25.8259 19.1855 25.1696 19.8066 24.0095 19.8066H3.78295Z" fill="black" fill-opacity="0.85"/>
<path d="M4.59155 18.213H12.865C13.6032 18.213 13.8962 17.9083 13.8962 17.1583V11.9551C13.8962 11.2051 13.6032 10.9004 12.865 10.9004H4.59155C3.86499 10.9004 3.57202 11.2051 3.57202 11.9551V17.1583C3.57202 17.9083 3.86499 18.213 4.59155 18.213Z" fill="black" fill-opacity="0.85"/>
</g>
<defs>
<clipPath id="clip0_2207_7097">
<rect width="27.6328" height="21.5742" fill="white" transform="translate(0.079834 0.119141)"/>
</clipPath>
</defs>
</svg>
