<svg width="20" height="26" viewBox="0 0 20 26" fill="none" xmlns="http://www.w3.org/2000/svg">
<g clip-path="url(#clip0_2207_7495)">
<path d="M0.0335693 21.5786C0.0335693 24.0278 1.2406 25.2466 3.66638 25.2466H16.1117C18.5375 25.2466 19.7445 24.0278 19.7445 21.5786V3.80127C19.7445 1.36377 18.5375 0.121582 16.1117 0.121582H3.66638C1.2406 0.121582 0.0335693 1.36377 0.0335693 3.80127V21.5786ZM1.92029 21.5435V3.83642C1.92029 2.66455 2.54138 2.0083 3.76013 2.0083H16.018C17.2367 2.0083 17.8578 2.66455 17.8578 3.83642V21.5435C17.8578 22.7154 17.2367 23.3599 16.018 23.3599H3.76013C2.54138 23.3599 1.92029 22.7154 1.92029 21.5435Z" fill="black" fill-opacity="0.85"/>
<path d="M4.56873 12.6841H8.83435C9.58435 12.6841 9.88904 12.3911 9.88904 11.6528V4.64502C9.88904 3.90674 9.58435 3.61377 8.83435 3.61377H4.56873C3.83045 3.61377 3.52576 3.90674 3.52576 4.64502V11.6528C3.52576 12.3911 3.83045 12.6841 4.56873 12.6841Z" fill="black" fill-opacity="0.85"/>
</g>
<defs>
<clipPath id="clip0_2207_7495">
<rect width="19.7109" height="25.1367" fill="white" transform="translate(0.0335693 0.121582)"/>
</clipPath>
</defs>
</svg>
