<svg width="28" height="22" viewBox="0 0 28 22" fill="none" xmlns="http://www.w3.org/2000/svg">
<g clip-path="url(#clip0_2207_7082)">
<path d="M3.67969 21.6948H23.9531C26.4141 21.6948 27.6328 20.4878 27.6328 18.0737V3.75342C27.6328 1.33936 26.4141 0.120605 23.9531 0.120605H3.67969C1.23047 0.120605 0 1.33936 0 3.75342V18.0737C0 20.4878 1.23047 21.6948 3.67969 21.6948ZM3.70312 19.8081C2.53125 19.8081 1.88672 19.187 1.88672 17.9683V3.85889C1.88672 2.64014 2.53125 2.00733 3.70312 2.00733H23.9297C25.0898 2.00733 25.7461 2.64014 25.7461 3.85889V17.9683C25.7461 19.187 25.0898 19.8081 23.9297 19.8081H3.70312Z" fill="black" fill-opacity="0.85"/>
<path d="M14.8477 10.9018H23.1211C23.8594 10.9018 24.1523 10.5972 24.1523 9.84716V4.66748C24.1523 3.91748 23.8594 3.61279 23.1211 3.61279H14.8477C14.1094 3.61279 13.8164 3.91748 13.8164 4.66748V9.84716C13.8164 10.5972 14.1094 10.9018 14.8477 10.9018Z" fill="black" fill-opacity="0.85"/>
</g>
<defs>
<clipPath id="clip0_2207_7082">
<rect width="27.6328" height="21.5742" fill="white" transform="translate(0 0.120605)"/>
</clipPath>
</defs>
</svg>
