<svg width="24" height="25" viewBox="0 0 24 25" fill="none" xmlns="http://www.w3.org/2000/svg">
<g clip-path="url(#clip0_2207_7247)">
<path d="M11.9887 24.0268C18.5278 24.0268 23.9418 18.6011 23.9418 12.0737C23.9418 5.53467 18.5161 0.120605 11.977 0.120605C5.4497 0.120605 0.0356445 5.53467 0.0356445 12.0737C0.0356445 18.6011 5.46142 24.0268 11.9887 24.0268ZM11.9887 22.0347C6.45752 22.0347 2.03955 17.605 2.03955 12.0737C2.03955 6.54249 6.4458 2.1128 11.977 2.1128C17.5083 2.1128 21.9497 6.54249 21.9497 12.0737C21.9497 17.605 17.52 22.0347 11.9887 22.0347Z" fill="black" fill-opacity="0.85"/>
<path d="M6.76221 15.1089H14.602C15.6684 15.1089 16.2075 14.5815 16.2075 13.5034V8.01904C16.2075 6.97607 15.6684 6.43701 14.602 6.43701H6.76221C5.68409 6.43701 5.15674 6.97607 5.15674 8.01904V13.5034C5.15674 14.5815 5.68409 15.1089 6.76221 15.1089Z" fill="black" fill-opacity="0.85"/>
<path d="M9.34033 18.2729H17.1684C18.645 18.2729 19.5239 17.4292 19.5239 15.9409V10.4565C19.5239 8.99169 18.6567 8.12451 17.1684 8.12451H9.34033C7.84033 8.12451 6.98486 8.99169 6.98486 10.4565V15.9409C6.98486 17.4292 7.85205 18.2729 9.34033 18.2729Z" fill="white"/>
<path d="M9.34033 17.5347H17.1684C18.2465 17.5347 18.7739 17.0073 18.7739 15.9409V10.4565C18.7739 9.41357 18.2465 8.86279 17.1684 8.86279H9.34033C8.2622 8.86279 7.72314 9.41357 7.72314 10.4565V15.9409C7.72314 17.0073 8.2622 17.5347 9.34033 17.5347Z" fill="black" fill-opacity="0.85"/>
<path d="M16.6879 18.6948C17.227 19.2222 18.0942 19.2339 18.6098 18.6948C19.1606 18.1558 19.1489 17.3237 18.6098 16.7847L7.26612 5.44092C6.72706 4.90186 5.87159 4.90186 5.34424 5.44092C4.80518 5.96827 4.80518 6.83545 5.34424 7.3628L16.6879 18.6948Z" fill="white"/>
<path d="M17.2739 18.1206C17.4731 18.3198 17.8247 18.3198 18.0239 18.1206C18.2348 17.8979 18.2348 17.5815 18.0239 17.3706L6.69187 6.02686C6.48093 5.81592 6.14109 5.81592 5.93015 6.02686C5.71921 6.22608 5.73093 6.57764 5.93015 6.77686L17.2739 18.1206Z" fill="black" fill-opacity="0.85"/>
</g>
<defs>
<clipPath id="clip0_2207_7247">
<rect width="23.9062" height="23.918" fill="white" transform="translate(0.0356445 0.120605)"/>
</clipPath>
</defs>
</svg>
