<svg width="17" height="27" viewBox="0 0 17 27" fill="none" xmlns="http://www.w3.org/2000/svg">
<g clip-path="url(#clip0_2207_12327)">
<path d="M2.74487 26.6425H14.194C15.823 26.6425 16.9128 25.5292 16.9128 23.8418V2.92383C16.9128 1.23633 15.823 0.123047 14.194 0.123047H2.74487C1.12768 0.123047 0.0378418 1.23633 0.0378418 2.92383V23.8418C0.0378418 25.5292 1.12768 26.6425 2.74487 26.6425ZM2.83862 24.7558C2.28784 24.7558 1.92456 24.3925 1.92456 23.83V2.94727C1.92456 2.38477 2.28784 2.00977 2.83862 2.00977H14.112C14.6511 2.00977 15.0261 2.38477 15.0261 2.94727V23.83C15.0261 24.3925 14.6511 24.7558 14.112 24.7558H2.83862ZM4.10425 7.16602C4.45581 7.16602 4.69018 6.91993 4.69018 6.56836V3.97852C4.69018 3.62696 4.45581 3.38086 4.10425 3.38086C3.75268 3.38086 3.50659 3.62696 3.50659 3.97852V6.56836C3.50659 6.91993 3.75268 7.16602 4.10425 7.16602ZM1.43237 10.5058H15.53V8.97071H1.43237V10.5058ZM4.10425 15.4042C4.45581 15.4042 4.69018 15.1699 4.69018 14.8183V12.2168C4.69018 11.8652 4.45581 11.6308 4.10425 11.6308C3.75268 11.6308 3.50659 11.8652 3.50659 12.2168V14.8183C3.50659 15.1699 3.75268 15.4042 4.10425 15.4042ZM1.43237 23.0449H15.53V21.5097H1.43237V23.0449Z" fill="black" fill-opacity="0.85"/>
</g>
<defs>
<clipPath id="clip0_2207_12327">
<rect width="16.875" height="26.543" fill="white" transform="translate(0.0378418 0.123047)"/>
</clipPath>
</defs>
</svg>
