<svg width="26" height="22" viewBox="0 0 26 22" fill="none" xmlns="http://www.w3.org/2000/svg">
<g clip-path="url(#clip0_2207_5343)">
<path d="M1.04016 11.3027C1.60266 11.3027 2.03626 10.8691 2.03626 10.3066V9.19336C2.03626 7.17774 3.40735 5.86524 5.52845 5.86524H12.1613V8.61914C12.1613 9.08789 12.4425 9.35743 12.923 9.35743C13.1339 9.35743 13.3449 9.27539 13.5207 9.13477L17.9503 5.4668C18.3371 5.15039 18.3488 4.68164 17.9503 4.35352L13.5207 0.673828C13.3449 0.533203 13.1339 0.462891 12.923 0.462891C12.4425 0.462891 12.1613 0.720703 12.1613 1.20117V3.91993H5.71595C2.28235 3.91993 0.0440674 5.87696 0.0440674 9.05274V10.3066C0.0440674 10.8691 0.465942 11.3027 1.04016 11.3027ZM24.0675 10.4707C23.4933 10.4707 23.0714 10.8925 23.0714 11.4668V12.58C23.0714 14.5957 21.7003 15.8964 19.5675 15.8964H10.4269V13.1777C10.4269 12.6972 10.1574 12.4394 9.67688 12.4394C9.45423 12.4394 9.24329 12.5097 9.06751 12.6503L4.63782 16.3183C4.26282 16.6464 4.2511 17.1152 4.63782 17.4316L9.06751 21.1113C9.24329 21.2519 9.45423 21.3339 9.67688 21.3339C10.1574 21.3339 10.4269 21.0644 10.4269 20.5957V17.8535H19.38C22.8253 17.8535 25.0636 15.8964 25.0636 12.7207V11.4668C25.0636 10.8925 24.63 10.4707 24.0675 10.4707Z" fill="black" fill-opacity="0.85"/>
<path d="M24.0793 7.93946C24.7238 7.93946 25.1105 7.54102 25.1105 6.88477V1.42383C25.1105 0.638672 24.5949 0.123047 23.8449 0.123047C23.2355 0.123047 22.8605 0.322266 22.38 0.697266L20.8097 1.89258C20.5636 2.0918 20.4933 2.26758 20.4933 2.50196C20.4933 2.85352 20.7629 3.12305 21.173 3.12305C21.3371 3.12305 21.5011 3.07617 21.6535 2.94727L22.9074 1.95117H23.0246V6.88477C23.0246 7.54102 23.423 7.93946 24.0793 7.93946Z" fill="black" fill-opacity="0.85"/>
</g>
<defs>
<clipPath id="clip0_2207_5343">
<rect width="25.0664" height="21.5039" fill="white" transform="translate(0.0440674 0.123047)"/>
</clipPath>
</defs>
</svg>
