<svg width="24" height="25" viewBox="0 0 24 25" fill="none" xmlns="http://www.w3.org/2000/svg">
<g clip-path="url(#clip0_2207_5353)">
<path d="M12.0014 24.0292C18.5405 24.0292 23.9545 18.6035 23.9545 12.0761C23.9545 5.53711 18.5288 0.123047 11.9897 0.123047C5.4624 0.123047 0.0483398 5.53711 0.0483398 12.0761C0.0483398 18.6035 5.47412 24.0292 12.0014 24.0292Z" fill="black" fill-opacity="0.85"/>
<path d="M4.23193 12.041V11.3261C4.23193 9.35742 5.61475 8.11523 7.771 8.11523H10.7124V6.63866C10.7124 6.2871 10.935 6.06445 11.2983 6.06445C11.4624 6.06445 11.6147 6.11132 11.7436 6.21679L14.3803 8.4082C14.6967 8.65429 14.6967 9.02929 14.3803 9.2871L11.7436 11.4785C11.6147 11.5722 11.4624 11.6308 11.2983 11.6308C10.935 11.6308 10.7124 11.4199 10.7124 11.0683V9.55663H7.63037C6.44678 9.55663 5.67334 10.3183 5.67334 11.4316V12.041C5.67334 12.4394 5.34522 12.7675 4.94678 12.7675C4.54834 12.7675 4.23193 12.4394 4.23193 12.041ZM18.6694 12.7675V13.4824C18.6694 15.4394 17.2866 16.6933 15.1186 16.6933H10.6772V18.1933C10.6772 18.5449 10.4663 18.7558 10.0913 18.7558C9.92725 18.7558 9.7749 18.7089 9.646 18.6035L7.00928 16.4238C6.70459 16.1777 6.69287 15.7792 6.99756 15.5449L9.646 13.3535C9.7749 13.248 9.92725 13.2011 10.0913 13.2011C10.4545 13.2011 10.6772 13.4121 10.6772 13.7636V15.2519H15.2592C16.4428 15.2519 17.2163 14.5019 17.2163 13.3769V12.7675C17.2163 12.3691 17.5444 12.0527 17.9428 12.0527C18.3413 12.0527 18.6694 12.3691 18.6694 12.7675ZM17.9428 10.7753C17.4741 10.7753 17.1694 10.4707 17.1694 10.002V7.49413H17.2749L16.56 8.06835C16.4428 8.1621 16.3139 8.19726 16.185 8.19726C15.8803 8.19726 15.6577 7.9746 15.6577 7.69335C15.6577 7.49413 15.7163 7.35351 15.8921 7.21288L16.8295 6.50976C17.1811 6.22851 17.4389 6.13476 17.8022 6.13476C18.3295 6.13476 18.6928 6.48632 18.6928 7.0371V10.002C18.6928 10.4707 18.3999 10.7753 17.9428 10.7753Z" fill="white"/>
</g>
<defs>
<clipPath id="clip0_2207_5353">
<rect width="23.9062" height="23.918" fill="white" transform="translate(0.0483398 0.123047)"/>
</clipPath>
</defs>
</svg>
