<svg width="24" height="25" viewBox="0 0 24 25" fill="none" xmlns="http://www.w3.org/2000/svg">
<g clip-path="url(#clip0_2207_5338)">
<path d="M12.0056 24.0292C18.5447 24.0292 23.9587 18.6035 23.9587 12.0761C23.9587 5.53711 18.533 0.123047 11.9939 0.123047C5.46655 0.123047 0.0524902 5.53711 0.0524902 12.0761C0.0524902 18.6035 5.47827 24.0292 12.0056 24.0292Z" fill="black" fill-opacity="0.85"/>
<path d="M4.4353 10.9747C4.4353 8.92383 5.90015 7.58789 8.15015 7.58789H12.7673V6.08789C12.7673 5.68946 13.0252 5.43164 13.4236 5.43164C13.5877 5.43164 13.7869 5.50196 13.9275 5.61914L16.658 7.9043C16.9978 8.18555 16.9978 8.61914 16.658 8.90039L13.9275 11.1739C13.7869 11.2911 13.5877 11.3497 13.4236 11.3497C13.0252 11.3497 12.7673 11.1036 12.7673 10.6817V9.19336H8.02124C6.84937 9.19336 6.05249 9.93164 6.05249 11.0567V11.7247C6.05249 12.1583 5.70093 12.5215 5.23218 12.5215C4.79858 12.5215 4.4353 12.1583 4.4353 11.7247V10.9747ZM19.5877 13.2129C19.5877 15.2754 18.1228 16.6114 15.8728 16.6114H11.2556V18.1114C11.2556 18.5215 11.0095 18.7793 10.5994 18.7793C10.4353 18.7793 10.2478 18.709 10.1072 18.5919L7.36499 16.3067C7.02515 16.0254 7.02515 15.5801 7.36499 15.2989L10.1072 13.0372C10.2361 12.9317 10.4353 12.8614 10.5994 12.8614C11.0095 12.8614 11.2556 13.1075 11.2556 13.5176V15.0059H16.0017C17.1736 15.0059 17.9705 14.2676 17.9705 13.1309V12.4747C17.9705 12.0176 18.3103 11.6778 18.7908 11.6778C19.2478 11.6778 19.5877 12.0176 19.5877 12.4747V13.2129Z" fill="white"/>
</g>
<defs>
<clipPath id="clip0_2207_5338">
<rect width="23.9062" height="23.918" fill="white" transform="translate(0.0524902 0.123047)"/>
</clipPath>
</defs>
</svg>
