<svg width="24" height="25" viewBox="0 0 24 25" fill="none" xmlns="http://www.w3.org/2000/svg">
<g clip-path="url(#clip0_2207_3343)">
<path d="M12.0119 24.041C18.551 24.041 23.965 18.6269 23.965 12.0878C23.965 5.56055 18.5393 0.134766 12.0002 0.134766C5.4729 0.134766 0.0588379 5.56055 0.0588379 12.0878C0.0588379 18.6269 5.48462 24.041 12.0119 24.041Z" fill="black" fill-opacity="0.85"/>
<path d="M6.51587 10.8222L13.7346 6.52139C14.6486 5.99404 15.9026 6.34561 15.9026 7.63467V16.5292C15.9026 17.8183 14.6486 18.1699 13.7346 17.6425L6.49243 13.3652C5.55493 12.791 5.5315 11.4199 6.51587 10.8222ZM8.39087 11.9941C8.32056 12.041 8.29712 12.1464 8.40259 12.205L13.7229 15.3457C13.8518 15.4277 13.9455 15.3691 13.9455 15.2519V8.91201C13.9455 8.79483 13.8518 8.74795 13.7229 8.81826L8.39087 11.9941Z" fill="white"/>
</g>
<defs>
<clipPath id="clip0_2207_3343">
<rect width="23.9062" height="23.918" fill="white" transform="translate(0.0588379 0.123047)"/>
</clipPath>
</defs>
</svg>
