<svg width="12" height="18" viewBox="0 0 12 18" fill="none" xmlns="http://www.w3.org/2000/svg">
<g clip-path="url(#clip0_2207_24812)">
<path d="M1.10889 17.455C1.72998 17.455 2.12842 17.0449 2.12842 16.4003V10.6347H5.87842C5.97217 10.6347 6.08936 10.6347 6.18311 10.6347L9.64014 16.8222C9.88623 17.2792 10.1792 17.455 10.6128 17.455C11.1987 17.455 11.6557 17.0566 11.6557 16.4941C11.6557 16.2714 11.5737 16.0605 11.4448 15.8144L8.29248 10.2949C10.4487 9.62696 11.726 7.81055 11.726 5.4668C11.726 2.37305 9.55811 0.404297 6.2417 0.404297H1.10889C0.511231 0.404297 0.0776367 0.837891 0.0776367 1.44727V16.4003C0.0776367 17.0449 0.476075 17.455 1.10889 17.455ZM2.12842 8.78321V2.26758H6.01905C8.3042 2.26758 9.6167 3.45117 9.6167 5.52539C9.6167 7.61133 8.3628 8.78321 6.08936 8.78321H2.12842Z" fill="black" fill-opacity="0.85"/>
</g>
<defs>
<clipPath id="clip0_2207_24812">
<rect width="11.6484" height="17.332" fill="white" transform="translate(0.0776367 0.123047)"/>
</clipPath>
</defs>
</svg>
