<svg width="23" height="25" viewBox="0 0 23 25" fill="none" xmlns="http://www.w3.org/2000/svg">
<g clip-path="url(#clip0_2207_5842)">
<path d="M1.74804 22.166H20.1113C21.5059 22.166 22.1387 21.5332 22.1387 20.1386V1.77539C22.1387 0.755859 21.4824 0.123047 20.4981 0.123047C19.877 0.123047 19.4317 0.404297 18.9746 0.861328L0.822265 19.0136C0.376953 19.4707 0.0839844 19.9042 0.0839844 20.5371C0.0839844 21.5214 0.716796 22.166 1.74804 22.166ZM2.75586 20.2558C2.6621 20.2558 2.59179 20.2089 2.59179 20.1269C2.59179 20.0918 2.60351 20.0449 2.67382 19.9863L19.9473 2.70117C20.0059 2.64258 20.0528 2.61914 20.0996 2.61914C20.1817 2.61914 20.2168 2.68946 20.2168 2.78321V19.9042C20.2168 20.1738 20.1465 20.2558 19.8652 20.2558H2.75586Z" fill="black" fill-opacity="0.85"/>
</g>
<defs>
<clipPath id="clip0_2207_5842">
<rect width="22.0547" height="24.4805" fill="white" transform="translate(0.0839844 0.123047)"/>
</clipPath>
</defs>
</svg>
