<svg width="27" height="25" viewBox="0 0 27 25" fill="none" xmlns="http://www.w3.org/2000/svg">
<g clip-path="url(#clip0_2207_11820)">
<path d="M1.43384 6.42921C1.43384 6.85108 1.79712 7.22608 2.23071 7.22608C2.67603 7.22608 3.03931 6.85108 3.03931 6.42921C3.03931 5.9839 2.67603 5.62061 2.23071 5.62061C1.79712 5.62061 1.43384 5.9839 1.43384 6.42921ZM1.43384 9.07764C1.43384 9.49952 1.79712 9.87452 2.23071 9.87452C2.67603 9.87452 3.03931 9.49952 3.03931 9.07764C3.03931 8.63233 2.67603 8.26905 2.23071 8.26905C1.79712 8.26905 1.43384 8.63233 1.43384 9.07764ZM1.29321 14.6206C1.29321 15.1362 1.72681 15.5698 2.23071 15.5698C2.74634 15.5698 3.17993 15.1362 3.17993 14.6206V11.8667C3.17993 11.3511 2.74634 10.9175 2.23071 10.9175C1.71509 10.9175 1.29321 11.3511 1.29321 11.8667V14.6206Z" fill="black" fill-opacity="0.85"/>
<path d="M0.00415039 2.35107C0.00415039 3.58154 1.00024 4.57763 2.23071 4.57763C3.46118 4.57763 4.45727 3.58154 4.45727 2.35107C4.45727 1.12061 3.46118 0.124512 2.23071 0.124512C1.00024 0.124512 0.00415039 1.12061 0.00415039 2.35107ZM8.05493 24.0542H23.9456C25.1644 24.0542 26.1721 23.0581 26.1721 21.8276V2.35107C26.1721 1.12061 25.1644 0.124512 23.9456 0.124512H5.05493C5.58227 0.663574 5.82837 1.3667 5.82837 2.35107V21.8276C5.82837 23.0581 6.82446 24.0542 8.05493 24.0542Z" fill="black" fill-opacity="0.85"/>
</g>
<defs>
<clipPath id="clip0_2207_11820">
<rect width="26.168" height="23.9414" fill="white" transform="translate(0.00415039 0.124512)"/>
</clipPath>
</defs>
</svg>
