<svg width="24" height="25" viewBox="0 0 24 25" fill="none" xmlns="http://www.w3.org/2000/svg">
<g clip-path="url(#clip0_2207_13017)">
<path d="M11.9699 24.0307C18.509 24.0307 23.923 18.605 23.923 12.0776C23.923 5.53857 18.4973 0.124512 11.9582 0.124512C5.43091 0.124512 0.0168457 5.53857 0.0168457 12.0776C0.0168457 18.605 5.44263 24.0307 11.9699 24.0307ZM11.9699 22.0386C6.43873 22.0386 2.02076 17.6089 2.02076 12.0776C2.02076 6.54639 6.42701 2.1167 11.9582 2.1167C17.4895 2.1167 21.9309 6.54639 21.9309 12.0776C21.9309 17.6089 17.5012 22.0386 11.9699 22.0386Z" fill="black" fill-opacity="0.85"/>
<path d="M9.47388 13.437C9.45044 12.9917 9.43873 12.5347 9.43873 12.0776C9.43873 9.14795 9.87232 6.75732 10.5637 5.42139C7.51685 6.07763 5.18482 8.83154 5.1731 12.0659C5.1731 12.7104 6.83716 13.2261 9.47388 13.437ZM10.552 13.4956C10.9973 13.4956 11.4777 13.519 11.9699 13.519C15.9895 13.519 18.7551 12.8862 18.7668 12.0776C18.7668 8.36279 15.673 5.28076 11.9582 5.28076C11.1379 5.29248 10.5285 8.0581 10.5285 12.0776C10.5285 12.5698 10.5402 13.0268 10.552 13.4956ZM9.54419 14.4917C7.72779 14.3276 6.26294 13.9526 5.31373 13.4722C5.87623 16.0854 7.96216 18.1714 10.5637 18.7339C10.0832 17.7847 9.70826 16.3081 9.54419 14.4917ZM10.6106 14.562C10.798 17.1987 11.3254 18.8745 11.9699 18.8745C15.216 18.8628 17.9582 16.5307 18.6262 13.4722C17.2902 14.1636 14.8996 14.5972 11.9699 14.5972C11.5012 14.5972 11.0441 14.5854 10.6106 14.562Z" fill="black" fill-opacity="0.85"/>
</g>
<defs>
<clipPath id="clip0_2207_13017">
<rect width="23.9062" height="23.918" fill="white" transform="translate(0.0168457 0.124512)"/>
</clipPath>
</defs>
</svg>
