<svg width="24" height="30" viewBox="0 0 24 30" fill="none" xmlns="http://www.w3.org/2000/svg">
<g clip-path="url(#clip0_2207_13036)">
<path d="M22.7713 10.5368C23.1697 10.5368 23.5096 10.2087 23.5096 9.81023V8.05242C23.5096 4.70085 21.2713 2.43914 17.908 2.43914H17.6619V0.962575C17.6619 0.0953876 17.0057 -0.103831 16.3494 0.388357L13.3963 2.55632C12.9041 2.9196 12.8924 3.34148 13.3963 3.70476L16.3494 5.86101C17.0057 6.34148 17.6619 6.14226 17.6619 5.29851V3.79851H17.8963C20.4393 3.79851 22.0447 5.55632 22.0447 8.05242V9.81023C22.0447 10.2087 22.3729 10.5368 22.7713 10.5368Z" fill="black" fill-opacity="0.85"/>
<path d="M3.03687 25.7475H14.6501C16.654 25.7475 17.6618 24.7983 17.6618 22.7475V11.1577C17.6618 9.10693 16.654 8.146 14.6501 8.146H3.03687C1.03296 8.146 0.0251465 9.10693 0.0251465 11.1577V22.7475C0.0251465 24.7983 1.03296 25.7475 3.03687 25.7475Z" fill="black" fill-opacity="0.85"/>
</g>
<defs>
<clipPath id="clip0_2207_13036">
<rect width="23.4844" height="29.6722" fill="white" transform="translate(0.0251465 0.124512)"/>
</clipPath>
</defs>
</svg>
