<svg width="24" height="30" viewBox="0 0 24 30" fill="none" xmlns="http://www.w3.org/2000/svg">
<g clip-path="url(#clip0_2207_13031)">
<path d="M22.7693 10.5368C23.1677 10.5368 23.5076 10.2087 23.5076 9.81023V8.05242C23.5076 4.70085 21.2693 2.43914 17.906 2.43914H17.6599V0.962575C17.6599 0.0953876 17.0037 -0.103831 16.3474 0.388357L13.3943 2.55632C12.9021 2.9196 12.8904 3.34148 13.3943 3.70476L16.3474 5.86101C17.0037 6.34148 17.6599 6.14226 17.6599 5.29851V3.79851H17.8943C20.4373 3.79851 22.0427 5.55632 22.0427 8.05242V9.81023C22.0427 10.2087 22.3709 10.5368 22.7693 10.5368Z" fill="black" fill-opacity="0.85"/>
<path d="M3.03491 25.7475H14.6482C16.6521 25.7475 17.6599 24.7983 17.6599 22.7475V11.1577C17.6599 9.10693 16.6521 8.146 14.6482 8.146H3.03491C1.031 8.146 0.0231934 9.10693 0.0231934 11.1577V22.7475C0.0231934 24.7983 1.031 25.7475 3.03491 25.7475ZM3.07007 23.8608C2.27319 23.8608 1.90991 23.5327 1.90991 22.7124V11.1811C1.90991 10.3608 2.27319 10.0327 3.07007 10.0327H14.613C15.4216 10.0327 15.7732 10.3608 15.7732 11.1811V22.7124C15.7732 23.5327 15.4216 23.8608 14.613 23.8608H3.07007Z" fill="black" fill-opacity="0.85"/>
</g>
<defs>
<clipPath id="clip0_2207_13031">
<rect width="23.4844" height="29.6722" fill="white" transform="translate(0.0231934 0.124512)"/>
</clipPath>
</defs>
</svg>
