<svg width="31" height="22" viewBox="0 0 31 22" fill="none" xmlns="http://www.w3.org/2000/svg">
<g clip-path="url(#clip0_2207_21121)">
<path d="M0.0314941 11.998C0.0314941 14.5058 0.44165 15.6543 2.30493 16.6152L8.90258 20.0019C11.3284 21.2558 13.0627 21.5722 15.7815 20.7754L25.9299 17.8222C29.0588 16.8965 30.3596 15.0332 30.3596 11.998V4.68555C30.3596 2.56445 28.9534 1.12305 26.844 1.12305L3.57055 1.11133C1.46118 1.11133 0.0314941 2.54102 0.0314941 4.65039V11.998ZM1.91821 11.998V4.68555C1.91821 3.66602 2.58618 2.99805 3.60571 2.99805L26.8206 3.00977C27.8167 3.00977 28.4729 3.68945 28.4729 4.7207V11.998C28.4729 14.1308 27.594 15.4082 25.3909 16.0527L15.7815 18.9004C13.344 19.6269 11.926 19.416 9.9104 18.3965L3.50024 15.1269C2.24633 14.4941 1.91821 13.7324 1.91821 11.998Z" fill="black" fill-opacity="0.85"/>
<path d="M6.71118 14.5996C7.2268 14.5996 7.53149 14.2597 7.53149 13.7324V10.9668H8.5979L9.76977 13.9199C9.93383 14.3418 10.1799 14.5996 10.637 14.5996C11.0003 14.5996 11.3987 14.3769 11.3987 13.791C11.3987 13.6738 11.3284 13.4394 11.2229 13.1816L10.1565 10.6269C11.0706 10.1582 11.4573 9.18555 11.4573 8.1543C11.4573 6.32617 10.3674 5.35352 8.60961 5.35352H6.69946C6.17211 5.35352 5.87915 5.66992 5.87915 6.19727V13.7324C5.87915 14.248 6.17211 14.5996 6.71118 14.5996ZM7.53149 9.75977V6.6543H8.45727C9.32446 6.6543 9.79321 7.28711 9.79321 8.18945C9.79321 9.0918 9.38305 9.75977 8.45727 9.75977H7.53149ZM15.4885 14.6465C17.2346 14.6465 18.3127 13.6621 18.3127 11.9394C18.3127 10.4863 17.5862 9.80664 16.262 9.31445L15.6409 9.06836C14.9026 8.78711 14.3753 8.40039 14.3753 7.61523C14.3753 6.93555 14.7854 6.45508 15.4534 6.45508C16.1565 6.45508 16.5198 6.95898 16.6604 7.54492C16.7659 7.93164 17.0354 8.08398 17.3987 8.08398C17.844 8.08398 18.1135 7.80273 18.1135 7.39258C18.1135 7.28711 18.1018 7.19336 18.0549 6.9707C17.7151 5.77539 16.6956 5.11914 15.4534 5.11914C13.8948 5.11914 12.7698 6.11523 12.7698 7.74414C12.7698 9.16211 13.6253 9.92383 14.7737 10.3691L15.3948 10.6035C16.1448 10.8965 16.7073 11.248 16.7073 12.08C16.7073 12.8066 16.262 13.3105 15.512 13.3105C14.7737 13.3105 14.3284 12.8183 14.1995 12.209C14.1057 11.8105 13.8127 11.6347 13.4495 11.6347C13.0042 11.6347 12.7229 11.9511 12.7229 12.3847C12.7229 12.584 12.7346 12.6543 12.8049 12.8535C13.1448 14.0371 14.2112 14.6465 15.4885 14.6465ZM20.5393 14.459H22.9299C24.5237 14.459 25.4495 13.3925 25.4495 11.8808C25.4495 10.7793 24.7815 9.77148 23.7151 9.66602V9.60742C24.5706 9.4668 25.1565 8.50586 25.1565 7.61523C25.1565 6.17383 24.1956 5.3418 22.8713 5.3418H20.5393C20.012 5.3418 19.7307 5.7168 19.7307 6.20898V13.6035C19.7307 14.1191 20.0237 14.459 20.5393 14.459ZM21.3479 9.20898V6.5957H22.4026C23.2463 6.5957 23.5862 7.13477 23.5862 7.86133C23.5862 8.70508 23.1057 9.20898 22.2737 9.20898H21.3479ZM21.3479 13.205V10.3105H22.3909C23.2229 10.3105 23.7971 10.7558 23.7971 11.7519C23.7971 12.6543 23.3401 13.205 22.4377 13.205H21.3479Z" fill="black" fill-opacity="0.85"/>
</g>
<defs>
<clipPath id="clip0_2207_21121">
<rect width="30.3281" height="21.0873" fill="white" transform="translate(0.0314941 0.124512)"/>
</clipPath>
</defs>
</svg>
