<svg width="24" height="25" viewBox="0 0 24 25" fill="none" xmlns="http://www.w3.org/2000/svg">
<g clip-path="url(#clip0_2207_20745)">
<path d="M11.993 24.0307C18.5321 24.0307 23.9461 18.605 23.9461 12.0776C23.9461 5.53857 18.5204 0.124512 11.9813 0.124512C5.45398 0.124512 0.039917 5.53857 0.039917 12.0776C0.039917 18.605 5.4657 24.0307 11.993 24.0307ZM11.993 22.0386C6.4618 22.0386 2.04383 17.6089 2.04383 12.0776C2.04383 6.54639 6.45008 2.1167 11.9813 2.1167C17.5126 2.1167 21.954 6.54639 21.954 12.0776C21.954 17.6089 17.5243 22.0386 11.993 22.0386Z" fill="black" fill-opacity="0.85"/>
<path d="M6.67272 16.9761C7.20007 16.9761 7.51647 16.6362 7.51647 16.0854V13.2026H8.62975L9.8485 16.2729C10.0243 16.7183 10.2821 16.9761 10.7508 16.9761C11.1376 16.9761 11.5477 16.7534 11.5477 16.144C11.5477 16.0151 11.4774 15.7807 11.3602 15.5112L10.2469 12.8511C11.1961 12.3589 11.6063 11.3393 11.6063 10.2847C11.6063 8.37451 10.4696 7.35498 8.64147 7.35498H6.661C6.0985 7.35498 5.79382 7.69482 5.79382 8.2456V16.0854C5.79382 16.6245 6.11022 16.9761 6.67272 16.9761ZM7.51647 11.9487V8.71435H8.48913C9.37975 8.71435 9.87194 9.38232 9.87194 10.3198C9.87194 11.2456 9.43835 11.9487 8.48913 11.9487H7.51647ZM15.6024 16.9643C16.0711 16.9643 16.4579 16.5893 16.4579 16.1089V8.76123H17.8758C18.2626 8.76123 18.579 8.44482 18.579 8.04639C18.579 7.65967 18.2626 7.34326 17.8758 7.34326H13.2821C12.8837 7.34326 12.5672 7.65967 12.5672 8.04639C12.5672 8.44482 12.8837 8.76123 13.2821 8.76123H14.7469V16.1089C14.7469 16.5893 15.1337 16.9643 15.6024 16.9643Z" fill="black" fill-opacity="0.85"/>
</g>
<defs>
<clipPath id="clip0_2207_20745">
<rect width="23.9062" height="23.918" fill="white" transform="translate(0.039917 0.124512)"/>
</clipPath>
</defs>
</svg>
