<svg width="22" height="22" viewBox="0 0 22 22" fill="none" xmlns="http://www.w3.org/2000/svg">
<g clip-path="url(#clip0_2207_25533)">
<path d="M3.73218 21.7222H17.947C20.408 21.7222 21.6267 20.5034 21.6267 18.0893V3.78076C21.6267 1.3667 20.408 0.147949 17.947 0.147949H3.73218C1.28296 0.147949 0.0524902 1.35498 0.0524902 3.78076V18.0893C0.0524902 20.5151 1.28296 21.7222 3.73218 21.7222Z" fill="black" fill-opacity="0.85"/>
<path d="M8.8064 16.9643C8.33765 16.9643 8.00952 16.6362 8.00952 16.1675V14.9487H6.94311C6.59155 14.9487 6.35718 14.7026 6.35718 14.3511C6.35718 14.0112 6.59155 13.7534 6.94311 13.7534H8.00952V12.5815H6.9314C6.57983 12.5815 6.33374 12.312 6.33374 11.9722C6.33374 11.6323 6.57983 11.3745 6.9314 11.3745H8.00952V6.1831C8.00952 5.70263 8.31421 5.37451 8.79468 5.37451H11.6658C13.9158 5.37451 15.3337 6.89795 15.3337 8.97217C15.3337 11.0698 13.9041 12.5698 11.6541 12.5698H9.59155V13.7534H12.4041C12.7556 13.7534 12.99 14.0112 12.99 14.3511C12.99 14.7026 12.7556 14.9487 12.4041 14.9487H9.59155V16.1675C9.59155 16.6362 9.26343 16.9643 8.8064 16.9643ZM9.60327 11.1518L11.3845 11.1753C12.9314 11.1753 13.74 10.3315 13.74 8.98389C13.74 7.65967 12.9431 6.82763 11.3845 6.82763H9.60327V11.1518Z" fill="white"/>
</g>
<defs>
<clipPath id="clip0_2207_25533">
<rect width="21.5742" height="21.5977" fill="white" transform="translate(0.0524902 0.124512)"/>
</clipPath>
</defs>
</svg>
