<svg width="24" height="25" viewBox="0 0 24 25" fill="none" xmlns="http://www.w3.org/2000/svg">
<g clip-path="url(#clip0_2207_25518)">
<path d="M11.9992 24.0307C18.5383 24.0307 23.9523 18.605 23.9523 12.0776C23.9523 5.53857 18.5266 0.124512 11.9875 0.124512C5.4602 0.124512 0.0461426 5.53857 0.0461426 12.0776C0.0461426 18.605 5.47192 24.0307 11.9992 24.0307ZM11.9992 22.0386C6.46802 22.0386 2.05005 17.6089 2.05005 12.0776C2.05005 6.54639 6.4563 2.1167 11.9875 2.1167C17.5188 2.1167 21.9602 6.54639 21.9602 12.0776C21.9602 17.6089 17.5305 22.0386 11.9992 22.0386Z" fill="black" fill-opacity="0.85"/>
<path d="M10.0071 17.937C10.4523 17.937 10.757 17.6206 10.757 17.1636V15.98H13.4992C13.8391 15.98 14.0617 15.7339 14.0617 15.394C14.0617 15.0659 13.8391 14.8198 13.4992 14.8198H10.757V13.6714H12.7609C14.9523 13.6714 16.3352 12.2183 16.3352 10.1909C16.3352 8.17529 14.9641 6.69873 12.7727 6.69873H9.99536C9.53833 6.69873 9.23364 7.01513 9.23364 7.48389V12.5229H8.19068C7.83912 12.5229 7.61646 12.769 7.61646 13.0972C7.61646 13.4253 7.83912 13.6831 8.19068 13.6831H9.23364V14.8198H8.20239C7.86255 14.8198 7.62817 15.0659 7.62817 15.394C7.62817 15.7339 7.86255 15.98 8.20239 15.98H9.23364V17.1636C9.23364 17.6206 9.56177 17.937 10.0071 17.937ZM10.7688 12.3003V8.10498H12.5031C14.0266 8.10498 14.8 8.91357 14.8 10.2026C14.8 11.5034 14.0149 12.3237 12.5031 12.3237L10.7688 12.3003Z" fill="black" fill-opacity="0.85"/>
</g>
<defs>
<clipPath id="clip0_2207_25518">
<rect width="23.9062" height="23.918" fill="white" transform="translate(0.0461426 0.124512)"/>
</clipPath>
</defs>
</svg>
