<svg width="17" height="22" viewBox="0 0 17 22" fill="none" xmlns="http://www.w3.org/2000/svg">
<g clip-path="url(#clip0_2207_25514)">
<path d="M0.0440674 12.8511C0.0440674 13.2729 0.383911 13.6128 0.805786 13.6128H3.23157V20.855C3.23157 21.4761 3.72376 21.98 4.34485 21.98C4.96595 21.98 5.46985 21.4761 5.46985 20.855V13.6128H9.78235C13.8371 13.6128 16.4152 10.9175 16.4152 7.15576C16.4152 3.40576 13.8605 0.675293 9.80579 0.675293H4.34485C3.66516 0.675293 3.23157 1.13232 3.23157 1.83545V12.0893H0.805786C0.383911 12.0893 0.0440674 12.4292 0.0440674 12.8511ZM5.46985 11.6675V2.66748H9.25501C12.4777 2.66748 14.1183 4.40185 14.1183 7.15576C14.1183 9.92139 12.4543 11.6675 9.25501 11.6675H5.46985ZM0.0440674 17.3862C0.0440674 17.8081 0.383911 18.1597 0.805786 18.1597H11.1652C11.5871 18.1597 11.9269 17.8081 11.9269 17.3862C11.9269 16.9761 11.5871 16.6245 11.1652 16.6245H0.805786C0.383911 16.6245 0.0440674 16.9761 0.0440674 17.3862Z" fill="black" fill-opacity="0.85"/>
</g>
<defs>
<clipPath id="clip0_2207_25514">
<rect width="16.3711" height="21.8555" fill="white" transform="translate(0.0440674 0.124512)"/>
</clipPath>
</defs>
</svg>
