<svg width="22" height="22" viewBox="0 0 22 22" fill="none" xmlns="http://www.w3.org/2000/svg">
<g clip-path="url(#clip0_2207_25528)">
<path d="M3.7301 21.7222H17.9449C20.4059 21.7222 21.6246 20.5034 21.6246 18.0893V3.78076C21.6246 1.3667 20.4059 0.147949 17.9449 0.147949H3.7301C1.28088 0.147949 0.050415 1.35498 0.050415 3.78076V18.0893C0.050415 20.5151 1.28088 21.7222 3.7301 21.7222ZM3.75354 19.8354C2.58167 19.8354 1.93713 19.2143 1.93713 17.9956V3.87451C1.93713 2.65576 2.58167 2.03467 3.75354 2.03467H17.9215C19.0816 2.03467 19.7379 2.65576 19.7379 3.87451V17.9956C19.7379 19.2143 19.0816 19.8354 17.9215 19.8354H3.75354Z" fill="black" fill-opacity="0.85"/>
<path d="M8.86291 16.7768C9.30822 16.7768 9.62463 16.4604 9.62463 16.0034V14.8198H12.3551C12.6949 14.8198 12.9176 14.5737 12.9176 14.2339C12.9176 13.9057 12.6949 13.6597 12.3551 13.6597H9.62463V12.5112H11.6285C13.8082 12.5112 15.191 11.0581 15.191 9.03076C15.191 7.01513 13.8199 5.53857 11.6402 5.53857H8.85119C8.39416 5.53857 8.10119 5.85498 8.10119 6.32373V11.3628H7.0465C6.70666 11.3628 6.47229 11.6089 6.47229 11.937C6.47229 12.2651 6.70666 12.5229 7.0465 12.5229H8.10119V13.6597H7.05822C6.71838 13.6597 6.49572 13.9057 6.49572 14.2339C6.49572 14.5737 6.71838 14.8198 7.05822 14.8198H8.10119V16.0034C8.10119 16.4604 8.4176 16.7768 8.86291 16.7768ZM9.63635 11.1401V6.94482H11.3707C12.8824 6.94482 13.6559 7.75342 13.6559 9.04248C13.6559 10.3433 12.8707 11.1636 11.3707 11.1636L9.63635 11.1401Z" fill="black" fill-opacity="0.85"/>
</g>
<defs>
<clipPath id="clip0_2207_25528">
<rect width="21.5742" height="21.5977" fill="white" transform="translate(0.050415 0.124512)"/>
</clipPath>
</defs>
</svg>
