<svg width="22" height="22" viewBox="0 0 22 22" fill="none" xmlns="http://www.w3.org/2000/svg">
<g clip-path="url(#clip0_2207_26037)">
<path d="M3.74683 21.7222H17.9616C20.4226 21.7222 21.6413 20.5034 21.6413 18.0893V3.78076C21.6413 1.3667 20.4226 0.147949 17.9616 0.147949H3.74683C1.29761 0.147949 0.0671387 1.35498 0.0671387 3.78076V18.0893C0.0671387 20.5151 1.29761 21.7222 3.74683 21.7222Z" fill="black" fill-opacity="0.85"/>
<path d="M7.15697 16.9526C6.74682 16.9526 6.47729 16.6362 6.47729 16.1323V6.01904C6.47729 5.51513 6.75854 5.21045 7.19213 5.21045H8.6101C10.3796 5.21045 11.2702 6.32373 11.2702 8.59717C11.2702 10.0386 10.7312 11.2925 9.75854 11.7847L11.1765 15.7807C11.2351 15.9683 11.2585 16.0854 11.2585 16.2495C11.2585 16.6479 10.989 16.9526 10.5905 16.9526C10.2741 16.9526 10.0398 16.8237 9.91088 16.4487L8.41088 12.0776H7.86011V16.1675C7.86011 16.6597 7.56713 16.9526 7.15697 16.9526ZM7.86011 10.6948H8.46947C9.44213 10.6948 9.86401 10.0034 9.86401 8.64404C9.86401 7.29639 9.44213 6.60498 8.51635 6.60498H7.86011V10.6948ZM13.8718 16.9643C12.6062 16.9643 11.821 16.1206 11.6804 14.8901C11.6569 14.7612 11.6569 14.6206 11.6569 14.48C11.6569 13.9995 11.903 13.6948 12.3249 13.6948C12.7233 13.6948 12.9577 13.9761 12.9929 14.4565C13.0515 15.2065 13.3093 15.6636 13.8835 15.6636C14.4226 15.6636 14.7155 15.2886 14.7155 14.5854C14.7155 13.9526 14.4577 13.5425 13.8483 13.2261L13.3679 12.9683C12.2429 12.3823 11.7741 11.6089 11.7741 10.437C11.7741 8.9956 12.6179 8.03467 13.8718 8.03467C15.1257 8.03467 15.8288 8.96045 15.9577 10.1675C15.9694 10.2964 15.9812 10.4018 15.9812 10.5307C15.9812 11.0112 15.7351 11.3159 15.3132 11.3159C14.903 11.3159 14.6921 11.0229 14.6569 10.5542C14.5866 9.76904 14.4226 9.35889 13.8601 9.35889C13.3913 9.35889 13.1335 9.7456 13.1335 10.3901C13.1335 10.9761 13.403 11.3276 14.0476 11.6675L14.5163 11.9253C15.6765 12.5698 16.0983 13.2847 16.0983 14.4917C16.0983 15.9917 15.2194 16.9643 13.8718 16.9643Z" fill="white"/>
</g>
<defs>
<clipPath id="clip0_2207_26037">
<rect width="21.5742" height="21.5977" fill="white" transform="translate(0.0671387 0.124512)"/>
</clipPath>
</defs>
</svg>
