<svg width="24" height="25" viewBox="0 0 24 25" fill="none" xmlns="http://www.w3.org/2000/svg">
<g clip-path="url(#clip0_2207_26027)">
<path d="M12.0161 24.0307C18.5552 24.0307 23.9692 18.605 23.9692 12.0776C23.9692 5.53857 18.5435 0.124512 12.0044 0.124512C5.47705 0.124512 0.0629883 5.53857 0.0629883 12.0776C0.0629883 18.605 5.48877 24.0307 12.0161 24.0307Z" fill="black" fill-opacity="0.85"/>
<path d="M8.31299 18.1128C7.90283 18.1128 7.6333 17.7964 7.6333 17.2925V7.17921C7.6333 6.6753 7.91455 6.37061 8.33643 6.37061H9.76611C11.5357 6.37061 12.4263 7.4839 12.4263 9.75733C12.4263 11.1987 11.8872 12.4526 10.9146 12.9448L12.3208 16.9409C12.3911 17.1284 12.4146 17.2456 12.4146 17.4097C12.4146 17.8081 12.1333 18.1128 11.7466 18.1128C11.4302 18.1128 11.1958 17.9839 11.0669 17.6089L9.5669 13.2378H9.01611V17.3276C9.01611 17.8198 8.72315 18.1128 8.31299 18.1128ZM9.01611 11.855H9.62549C10.5982 11.855 11.02 11.1636 11.02 9.80421C11.02 8.45655 10.5982 7.76514 9.67237 7.76514H9.01611V11.855ZM15.0278 18.1245C13.7622 18.1245 12.9771 17.2807 12.8364 16.0503C12.813 15.9214 12.813 15.7807 12.813 15.6401C12.813 15.1597 13.0591 14.855 13.4692 14.855C13.8677 14.855 14.1138 15.1362 14.1489 15.6167C14.1958 16.3667 14.4653 16.8237 15.0278 16.8237C15.5786 16.8237 15.8716 16.4487 15.8716 15.7456C15.8716 15.1128 15.6138 14.7026 15.0044 14.3862L14.5239 14.1284C13.3989 13.5425 12.9185 12.769 12.9185 11.5972C12.9185 10.1557 13.7739 9.19483 15.0278 9.19483C16.27 9.19483 16.9849 10.1206 17.1138 11.3276C17.1255 11.4565 17.1372 11.562 17.1372 11.6909C17.1372 12.1714 16.8911 12.4761 16.4692 12.4761C16.0591 12.4761 15.8482 12.1831 15.813 11.7143C15.7427 10.9292 15.5786 10.519 15.0161 10.519C14.5474 10.519 14.2896 10.9057 14.2896 11.5503C14.2896 12.1362 14.5591 12.4878 15.2036 12.8276L15.6607 13.0854C16.8325 13.73 17.2544 14.4448 17.2544 15.6518C17.2544 17.1518 16.3755 18.1245 15.0278 18.1245Z" fill="white"/>
</g>
<defs>
<clipPath id="clip0_2207_26027">
<rect width="23.9062" height="23.918" fill="white" transform="translate(0.0629883 0.124512)"/>
</clipPath>
</defs>
</svg>
