<svg width="24" height="25" viewBox="0 0 24 25" fill="none" xmlns="http://www.w3.org/2000/svg">
<g clip-path="url(#clip0_2207_25186)">
<path d="M12.0224 24.0307C18.5615 24.0307 23.9755 18.605 23.9755 12.0776C23.9755 5.53857 18.5498 0.124512 12.0107 0.124512C5.4834 0.124512 0.0693359 5.53857 0.0693359 12.0776C0.0693359 18.605 5.49512 24.0307 12.0224 24.0307ZM12.0224 22.0386C6.49122 22.0386 2.07325 17.6089 2.07325 12.0776C2.07325 6.54639 6.4795 2.1167 12.0107 2.1167C17.542 2.1167 21.9834 6.54639 21.9834 12.0776C21.9834 17.6089 17.5537 22.0386 12.0224 22.0386Z" fill="black" fill-opacity="0.85"/>
<path d="M11.8935 17.5737C14.5185 17.5737 16.2412 16.2964 16.2412 14.2807C16.2412 12.7339 15.1162 11.8784 13.0537 11.3276L11.4834 10.9057C10.3584 10.6128 9.88964 10.1792 9.88964 9.46436C9.88964 8.47999 10.6982 7.8589 11.9404 7.8589C13.124 7.8589 13.874 8.32764 14.2607 9.3003C14.4365 9.68702 14.6826 9.89796 15.1279 9.89796C15.6084 9.89796 15.9599 9.62843 15.9599 9.08936C15.9599 8.93702 15.9248 8.7378 15.8427 8.52686C15.4091 7.28468 14.0029 6.37061 12.0107 6.37061C9.62011 6.37061 7.94433 7.70655 7.94433 9.56983C7.94433 11.0464 8.90527 11.8901 10.7216 12.394L12.4209 12.8745C13.8154 13.2612 14.2959 13.6128 14.2959 14.4331C14.2959 15.4761 13.2998 16.0503 12.0107 16.0503C10.7802 16.0503 9.9248 15.5698 9.51464 14.6323C9.30371 14.1987 9.05761 13.9995 8.63574 13.9995C8.12011 13.9995 7.79199 14.3276 7.79199 14.8433C7.79199 15.019 7.82714 15.2065 7.92089 15.4175C8.34277 16.5425 9.76074 17.5737 11.8935 17.5737Z" fill="black" fill-opacity="0.85"/>
</g>
<defs>
<clipPath id="clip0_2207_25186">
<rect width="23.9062" height="23.918" fill="white" transform="translate(0.0693359 0.124512)"/>
</clipPath>
</defs>
</svg>
