<svg width="22" height="22" viewBox="0 0 22 22" fill="none" xmlns="http://www.w3.org/2000/svg">
<g clip-path="url(#clip0_2207_25196)">
<path d="M3.75318 21.7222H17.968C20.429 21.7222 21.6477 20.5034 21.6477 18.0893V3.78076C21.6477 1.3667 20.429 0.147949 17.968 0.147949H3.75318C1.30396 0.147949 0.0734863 1.35498 0.0734863 3.78076V18.0893C0.0734863 20.5151 1.30396 21.7222 3.75318 21.7222ZM3.77661 19.8354C2.60474 19.8354 1.96021 19.2143 1.96021 17.9956V3.87451C1.96021 2.65576 2.60474 2.03467 3.77661 2.03467H17.9446C19.1047 2.03467 19.761 2.65576 19.761 3.87451V17.9956C19.761 19.2143 19.1047 19.8354 17.9446 19.8354H3.77661Z" fill="black" fill-opacity="0.85"/>
<path d="M10.7493 16.4136C13.3743 16.4136 15.0969 15.1362 15.0969 13.1206C15.0969 11.5737 13.9719 10.7183 11.9094 10.1675L10.3391 9.7456C9.21411 9.45263 8.74536 9.01904 8.74536 8.3042C8.74536 7.31982 9.55396 6.69873 10.7962 6.69873C11.9797 6.69873 12.7297 7.16748 13.1282 8.14013C13.2923 8.52685 13.5383 8.73779 13.9954 8.73779C14.4641 8.73779 14.8157 8.46826 14.8157 7.9292C14.8157 7.77685 14.7805 7.57763 14.7102 7.3667C14.2649 6.12451 12.8587 5.21045 10.8782 5.21045C8.47582 5.21045 6.80005 6.54639 6.80005 8.40967C6.80005 9.88623 7.76099 10.73 9.57739 11.2339L11.2766 11.7143C12.6712 12.1011 13.1516 12.4526 13.1516 13.2729C13.1516 14.3159 12.1555 14.8901 10.8665 14.8901C9.63599 14.8901 8.78051 14.4097 8.37036 13.4722C8.15942 13.0386 7.91333 12.8393 7.49146 12.8393C6.98755 12.8393 6.64771 13.1675 6.64771 13.6831C6.64771 13.8589 6.69458 14.0464 6.77661 14.2573C7.19849 15.3823 8.61646 16.4136 10.7493 16.4136Z" fill="black" fill-opacity="0.85"/>
</g>
<defs>
<clipPath id="clip0_2207_25196">
<rect width="21.5742" height="21.5977" fill="white" transform="translate(0.0734863 0.124512)"/>
</clipPath>
</defs>
</svg>
