<svg width="22" height="22" viewBox="0 0 22 22" fill="none" xmlns="http://www.w3.org/2000/svg">
<g clip-path="url(#clip0_2207_25201)">
<path d="M3.75537 21.7222H17.9702C20.4312 21.7222 21.6499 20.5034 21.6499 18.0893V3.78076C21.6499 1.3667 20.4312 0.147949 17.9702 0.147949H3.75537C1.30615 0.147949 0.0756836 1.35498 0.0756836 3.78076V18.0893C0.0756836 20.5151 1.30615 21.7222 3.75537 21.7222Z" fill="black" fill-opacity="0.85"/>
<path d="M10.7515 16.5893C8.54835 16.5893 7.0835 15.5229 6.64991 14.3745C6.55616 14.1518 6.50928 13.9526 6.50928 13.7651C6.50928 13.2378 6.86085 12.8979 7.38819 12.8979C7.82178 12.8979 8.0796 13.1089 8.30225 13.5542C8.72413 14.5151 9.60303 15.0073 10.8687 15.0073C12.1929 15.0073 13.2124 14.4214 13.2124 13.355C13.2124 12.5112 12.7202 12.1479 11.2905 11.7495L9.53272 11.2456C7.65772 10.73 6.67335 9.86279 6.67335 8.33935C6.67335 6.40576 8.396 5.03467 10.8804 5.03467C12.9195 5.03467 14.3726 5.97217 14.8296 7.26123C14.9116 7.47217 14.9468 7.6831 14.9468 7.83545C14.9468 8.39795 14.5835 8.6792 14.0913 8.6792C13.6226 8.6792 13.3648 8.45654 13.2007 8.0581C12.7788 7.05029 12.0171 6.56982 10.7984 6.56982C9.521 6.56982 8.68897 7.21435 8.68897 8.22217C8.68897 8.96045 9.16944 9.40576 10.3296 9.71045L11.9468 10.144C14.0679 10.7065 15.2398 11.5972 15.2398 13.1909C15.2398 15.2768 13.4585 16.5893 10.7515 16.5893Z" fill="white"/>
</g>
<defs>
<clipPath id="clip0_2207_25201">
<rect width="21.5742" height="21.5977" fill="white" transform="translate(0.0756836 0.124512)"/>
</clipPath>
</defs>
</svg>
