<svg width="24" height="25" viewBox="0 0 24 25" fill="none" xmlns="http://www.w3.org/2000/svg">
<g clip-path="url(#clip0_2207_12996)">
<path d="M12.0329 24.0307C18.572 24.0307 23.986 18.605 23.986 12.0776C23.986 5.53857 18.5603 0.124512 12.0212 0.124512C5.49389 0.124512 0.079834 5.53857 0.079834 12.0776C0.079834 18.605 5.50561 24.0307 12.0329 24.0307Z" fill="black" fill-opacity="0.85"/>
<path d="M6.99384 18.1831C6.18525 18.5698 5.56416 17.937 5.93916 17.1401L9.33759 10.2026C9.53681 9.79248 9.79462 9.53467 10.1696 9.35889L17.0837 5.98389C17.9392 5.57373 18.5368 6.20654 18.1384 7.02685L14.7634 13.9526C14.5759 14.3276 14.3064 14.6089 13.9196 14.7847L6.99384 18.1831ZM12.0446 13.5776C12.865 13.5776 13.5329 12.9097 13.5329 12.0893C13.5329 11.269 12.865 10.6128 12.0446 10.6128C11.236 10.6128 10.5681 11.269 10.5681 12.0893C10.5681 12.9097 11.236 13.5776 12.0446 13.5776Z" fill="white"/>
</g>
<defs>
<clipPath id="clip0_2207_12996">
<rect width="23.9062" height="23.918" fill="white" transform="translate(0.079834 0.124512)"/>
</clipPath>
</defs>
</svg>
