<svg width="24" height="25" viewBox="0 0 24 25" fill="none" xmlns="http://www.w3.org/2000/svg">
<g clip-path="url(#clip0_2207_15415)">
<path d="M12.0371 24.0307C18.5762 24.0307 23.9902 18.605 23.9902 12.0776C23.9902 5.53857 18.5645 0.124512 12.0254 0.124512C5.49804 0.124512 0.0839844 5.53857 0.0839844 12.0776C0.0839844 18.605 5.50976 24.0307 12.0371 24.0307ZM12.0371 22.0386C6.50586 22.0386 2.08789 17.6089 2.08789 12.0776C2.08789 6.54639 6.49414 2.1167 12.0254 2.1167C17.5567 2.1167 21.9981 6.54639 21.9981 12.0776C21.9981 17.6089 17.5684 22.0386 12.0371 22.0386Z" fill="black" fill-opacity="0.85"/>
<path d="M7.65441 18.4878H15.7521C16.1505 18.4878 16.4435 18.3589 16.7013 18.0659L18.4943 16.0386C18.8927 15.5933 18.5997 14.9604 17.9669 14.9604H12.4357V13.4839H14.1935C15.9161 13.4839 16.9591 12.5581 16.9591 11.0698C16.9591 8.92529 14.7443 6.44092 12.4357 5.16357V4.58935C12.4357 4.29639 12.2013 4.06201 11.8966 4.06201C11.6036 4.06201 11.3693 4.29639 11.3693 4.58935V5.06982C11.3693 7.02685 9.58801 10.5542 7.0216 12.4057C6.47082 12.8159 6.77551 13.4839 7.32629 13.4839H11.3693V14.9604H6.58801C6.03722 14.9604 5.75598 15.3589 5.93176 15.9331L6.43566 17.6675C6.58801 18.1831 6.97472 18.4878 7.65441 18.4878ZM12.4239 12.4878V6.27685C13.1388 6.96826 13.7247 8.36279 13.7247 9.73389C13.7247 10.7886 13.3146 11.8667 12.4239 12.4878Z" fill="black" fill-opacity="0.85"/>
</g>
<defs>
<clipPath id="clip0_2207_15415">
<rect width="23.9062" height="23.918" fill="white" transform="translate(0.0839844 0.124512)"/>
</clipPath>
</defs>
</svg>
