<svg width="27" height="31" viewBox="0 0 27 31" fill="none" xmlns="http://www.w3.org/2000/svg">
<g clip-path="url(#clip0_2207_15407)">
<path d="M0.18046 24.0073L1.18827 27.4643C1.37577 28.062 1.62186 28.4956 1.94999 28.812L3.47343 27.8159C3.06327 27.6518 2.79374 27.3237 2.6414 26.7847L1.85624 23.8784C1.79765 23.6909 1.86796 23.562 2.06718 23.562H24.8015C25.0007 23.562 25.0593 23.7261 24.9187 23.8784L22.3875 26.7729C21.989 27.2183 21.6726 27.5933 20.9695 27.7925L22.3992 28.8472C23.0086 28.4253 23.4773 27.8393 24.0867 27.1479L26.6179 24.2417C27.45 23.269 26.8406 21.9683 25.4929 21.9683H1.66874C0.391397 21.9683 -0.159384 22.8354 0.18046 24.0073ZM11.3367 22.9526H12.9187V0.921387C12.9187 0.487793 12.5554 0.124512 12.1218 0.124512C11.6882 0.124512 11.3367 0.487793 11.3367 0.921387V22.9526ZM12.239 18.9214H17.0554C20.5828 18.9214 22.5398 17.1167 22.5398 14.1987C22.5398 9.22998 17.3836 3.64013 12.5789 1.13232L11.7703 2.50342C15.7546 4.23779 20.9578 9.44092 20.9578 13.9526C20.9578 15.9917 19.5281 17.3276 17.0671 17.3276H12.239V18.9214ZM13.2234 3.2417C17.114 8.81982 15.8601 15.605 12.1804 17.4683L12.5086 18.8511C17.5359 16.5425 18.7312 9.25342 14.5828 3.00732L13.2234 3.2417ZM3.0164 18.9214H11.9461V17.3276H4.53983C4.39921 17.3276 4.34061 17.187 4.4578 17.105C8.46561 14.0815 12.1687 7.1206 12.7781 2.35107L11.3367 1.35498C11.4304 5.3042 7.73905 12.8159 2.36015 16.7183C1.22343 17.5503 1.85624 18.9214 3.0164 18.9214ZM12.4968 30.0776C15.6843 30.0776 16.2 27.6987 18.0515 27.6987C19.9617 27.6987 20.2664 30.0776 23.9226 30.0776H25.1062C25.5632 30.0776 25.9382 29.7026 25.9382 29.2456C25.9382 28.7886 25.5632 28.4253 25.1062 28.4253H23.9226C22.657 28.4253 21.9539 27.8979 21.0632 27.2768C20.3015 26.7261 19.3523 26.0464 18.0515 26.0464C16.7156 26.0464 15.7546 26.7612 14.9812 27.3354C14.1843 27.9448 13.5398 28.4253 12.4968 28.4253C11.4421 28.4253 10.7976 27.9448 10.0008 27.3354C9.22733 26.7612 8.2664 26.0464 6.93046 26.0464C5.62968 26.0464 4.68046 26.7261 3.91874 27.2768C3.02811 27.8979 2.32499 28.4253 1.05937 28.4253H1.00077C0.543741 28.4253 0.18046 28.7886 0.18046 29.2456C0.18046 29.7026 0.543741 30.0776 1.00077 30.0776H1.05937C4.71561 30.0776 5.0203 27.6987 6.93046 27.6987C8.78202 27.6987 9.29765 30.0776 12.4968 30.0776Z" fill="black" fill-opacity="0.85"/>
</g>
<defs>
<clipPath id="clip0_2207_15407">
<rect width="26.9151" height="30.5273" fill="white" transform="translate(0.0820312 0.124512)"/>
</clipPath>
</defs>
</svg>
