<svg width="28" height="31" viewBox="0 0 28 31" fill="none" xmlns="http://www.w3.org/2000/svg">
<g clip-path="url(#clip0_2207_15411)">
<path d="M3.0225 18.9214H11.3428V22.9526H12.9248V18.9214H17.0615C20.5889 18.9214 22.5459 17.1167 22.5459 14.1987C22.5459 9.35889 17.6592 3.90967 12.9248 1.3081V0.921387C12.9248 0.487793 12.5615 0.124512 12.1279 0.124512C11.6943 0.124512 11.3428 0.487793 11.3428 0.921387V1.63623C11.3428 5.65576 7.62796 12.9097 2.36625 16.7183C1.22953 17.5503 1.86234 18.9214 3.0225 18.9214ZM12.9248 16.9643V3.08935C14.7998 5.23389 15.6084 8.09326 15.6084 10.5542C15.6084 13.3081 14.6123 15.7104 12.9248 16.9643ZM0.186563 24.0073L1.00688 26.7847C1.04203 26.8667 1.05375 26.937 1.0889 27.0073C1.76859 26.9722 2.30765 26.7378 3.12796 26.1636C3.9014 25.6011 5.16704 24.6753 6.93656 24.6753C8.47171 24.6753 9.65531 25.3901 10.5459 26.0464C11.6826 26.9018 11.9522 27.0542 12.5029 27.0542C13.042 27.0542 13.3115 26.9018 14.4482 26.0464C15.3272 25.4018 16.5225 24.6753 18.0576 24.6753C19.8272 24.6753 21.0928 25.6011 21.8662 26.1636C22.6865 26.7378 23.2842 26.9956 24.1631 27.019L26.624 24.2417C27.4561 23.269 26.8467 21.9683 25.499 21.9683H1.67484C0.397501 21.9683 -0.15328 22.8354 0.186563 24.0073ZM0.186563 29.2456C0.186563 29.7026 0.549845 30.0776 1.00688 30.0776H1.06547C4.72171 30.0776 5.0264 27.6987 6.93656 27.6987C8.78813 27.6987 9.30375 30.0776 12.5029 30.0776C15.6904 30.0776 16.2061 27.6987 18.0576 27.6987C19.9678 27.6987 20.2725 30.0776 23.9287 30.0776H25.1123C25.5693 30.0776 25.9443 29.7026 25.9443 29.2456C25.9443 28.7886 25.5693 28.4253 25.1123 28.4253H23.9287C22.6631 28.4253 21.96 27.8979 21.0693 27.2768C20.3076 26.7261 19.3584 26.0464 18.0576 26.0464C16.7217 26.0464 15.7607 26.7612 14.9873 27.3354C14.1904 27.9448 13.5459 28.4253 12.5029 28.4253C11.4482 28.4253 10.8037 27.9448 10.0069 27.3354C9.23343 26.7612 8.2725 26.0464 6.93656 26.0464C5.63579 26.0464 4.68656 26.7261 3.92484 27.2768C3.03421 27.8979 2.33109 28.4253 1.06547 28.4253H1.00688C0.549845 28.4253 0.186563 28.7886 0.186563 29.2456Z" fill="black" fill-opacity="0.85"/>
</g>
<defs>
<clipPath id="clip0_2207_15411">
<rect width="26.9151" height="30.5273" fill="white" transform="translate(0.0881348 0.124512)"/>
</clipPath>
</defs>
</svg>
