<svg width="28" height="22" viewBox="0 0 28 22" fill="none" xmlns="http://www.w3.org/2000/svg">
<g clip-path="url(#clip0_2207_10613)">
<path d="M0.0966797 18.0893C0.0966797 20.5034 1.32715 21.7104 3.77637 21.7104H23.9561C26.3936 21.7104 27.6358 20.4917 27.6358 18.0893V14.2456C27.6358 13.4722 27.4014 12.605 26.7803 11.937L22.3389 7.21435C21.2725 6.08935 20.4522 5.44482 18.8701 5.44482H8.63965C7.26856 5.44482 6.45996 6.08935 5.39356 7.21435L0.952149 11.937C0.331055 12.605 0.0966797 13.4722 0.0966797 14.2456V18.0893ZM1.9834 17.9839V15.6987H25.749V17.9839C25.749 19.2026 25.0811 19.8237 23.9209 19.8237H3.7998C2.62793 19.8237 1.9834 19.2026 1.9834 17.9839ZM2.70996 12.9097L6.94043 8.19873C7.53809 7.54248 7.97168 7.1792 8.6748 7.1792H19.0459C19.749 7.1792 20.1944 7.53076 20.792 8.19873L25.0225 12.9097C25.3389 13.2729 25.1631 13.812 24.5772 13.812H3.15527C2.56934 13.812 2.39356 13.2729 2.70996 12.9097ZM1.85449 1.80029L5.53418 5.51513C6.58887 6.59326 7.12793 6.94482 8.45215 6.94482H19.1748C20.5928 6.94482 21.1436 6.59326 22.1983 5.51513L25.8779 1.80029C26.4756 1.20263 26.1826 0.124512 25.1397 0.124512H2.59277C1.5498 0.124512 1.25684 1.20263 1.85449 1.80029ZM4.13965 1.82373H23.5928L20.4639 4.96435C20.1358 5.3042 19.8076 5.44482 19.2569 5.44482H8.47559C7.91309 5.44482 7.59668 5.3042 7.26856 4.96435L4.13965 1.82373ZM6.78809 12.1245C6.88184 12.4057 7.19824 12.5347 7.49121 12.4292L12.8819 10.4604C13.1865 10.355 13.3272 10.0737 13.2217 9.76904C13.1162 9.47607 12.8233 9.34717 12.5186 9.46435L7.12793 11.4331C6.82324 11.5386 6.68262 11.8198 6.78809 12.1245ZM6.96387 9.97998C7.06934 10.2847 7.37402 10.4018 7.66699 10.2964L11.3819 8.94873C11.6748 8.84326 11.8389 8.55029 11.7217 8.25732C11.6162 7.95263 11.3115 7.84717 11.0303 7.95263L7.30371 9.30029C6.99902 9.40576 6.8584 9.69873 6.96387 9.97998ZM18.8819 17.7612C18.8819 18.1245 19.1748 18.3706 19.5264 18.3706H22.667C23.0303 18.3706 23.2998 18.1245 23.2998 17.7612C23.2998 17.3979 23.0303 17.1401 22.667 17.1401H19.5264C19.1514 17.1401 18.8819 17.3979 18.8819 17.7612Z" fill="black" fill-opacity="0.85"/>
</g>
<defs>
<clipPath id="clip0_2207_10613">
<rect width="27.5391" height="21.5977" fill="white" transform="translate(0.0966797 0.124512)"/>
</clipPath>
</defs>
</svg>
