<svg width="28" height="22" viewBox="0 0 28 22" fill="none" xmlns="http://www.w3.org/2000/svg">
<g clip-path="url(#clip0_2207_10617)">
<path d="M0.0986328 18.1011C0.0986328 20.5151 1.3291 21.7222 3.77832 21.7222H23.958C26.3955 21.7222 27.6377 20.5034 27.6377 18.1011V14.2573C27.6377 13.4839 27.4033 12.6167 26.7822 11.9487L22.3408 7.22607C21.2744 6.10107 20.4541 5.45654 18.872 5.45654H8.6416C7.27051 5.45654 6.46191 6.10107 5.39551 7.22607L0.954102 11.9487C0.333008 12.6167 0.0986328 13.4839 0.0986328 14.2573V18.1011ZM2.71191 12.9214L6.94238 8.21045C7.54004 7.5542 7.97363 7.19092 8.67675 7.19092H19.0478C19.7509 7.19092 20.1963 7.54248 20.7939 8.21045L25.0244 12.9214C25.3408 13.2847 25.165 13.8237 24.5791 13.8237H3.15722C2.57129 13.8237 2.39551 13.2847 2.71191 12.9214ZM1.85644 1.81201L5.53613 5.52685C6.59082 6.60498 7.12988 6.95654 8.4541 6.95654H19.1767C20.5947 6.95654 21.1455 6.60498 22.2002 5.52685L25.8798 1.81201C26.4775 1.21435 26.1845 0.13623 25.1416 0.13623H2.59472C1.55175 0.13623 1.25879 1.21435 1.85644 1.81201ZM6.79004 12.1362C6.88379 12.4175 7.20019 12.5464 7.49316 12.4409L12.8838 10.4722C13.1884 10.3667 13.3291 10.0855 13.2236 9.78076C13.1181 9.48779 12.8252 9.35889 12.5205 9.47607L7.12988 11.4448C6.82519 11.5503 6.68457 11.8315 6.79004 12.1362ZM6.96582 9.9917C7.07129 10.2964 7.37597 10.4136 7.66894 10.3081L11.3838 8.96045C11.6767 8.85498 11.8408 8.56201 11.7236 8.26904C11.6181 7.96435 11.3134 7.85889 11.0322 7.96435L7.30566 9.31201C7.00097 9.41748 6.86035 9.71045 6.96582 9.9917ZM18.8134 17.7612C18.8134 17.3862 19.0947 17.1167 19.4814 17.1167H22.7158C23.0908 17.1167 23.372 17.3862 23.372 17.7612C23.372 18.1362 23.0908 18.394 22.7158 18.394H19.4814C19.1181 18.394 18.8134 18.1362 18.8134 17.7612Z" fill="black" fill-opacity="0.85"/>
</g>
<defs>
<clipPath id="clip0_2207_10617">
<rect width="27.5391" height="21.5977" fill="white" transform="translate(0.0986328 0.124512)"/>
</clipPath>
</defs>
</svg>
