<svg width="33" height="26" viewBox="0 0 33 26" fill="none" xmlns="http://www.w3.org/2000/svg">
<g clip-path="url(#clip0_2207_9929)">
<path d="M5.77734 1.86035C3.16406 1.86035 1.06641 3.98144 1.06641 6.61816C1.06641 9.24316 3.16406 11.3526 5.77734 11.3526C7.96875 11.3526 8.32031 10.4385 9.29297 10.4385C9.51562 10.4385 9.67969 10.4854 9.97266 10.626L11.8008 11.5987C12.7148 12.0674 12.9961 12.3721 13.1602 12.9815L13.3945 13.8369C13.7578 15.1377 14.3789 15.8174 15.7852 16.3213L25.793 19.919C28.7109 20.9502 30.6211 20.6572 31.1016 18.8994L11.2734 8.37597C10.5586 7.98925 10.5117 7.60253 10.5117 6.61816C10.5117 3.96972 8.40234 1.86035 5.77734 1.86035ZM5.77734 3.78222C7.35938 3.78222 8.60156 5.04785 8.60156 6.61816C8.60156 8.17675 7.35938 9.44238 5.77734 9.44238C4.24219 9.44238 2.98828 8.17675 2.98828 6.61816C2.98828 5.04785 4.24219 3.78222 5.77734 3.78222Z" fill="black" fill-opacity="0.85"/>
<path d="M5.77734 25.7551C8.98828 25.7551 11.5781 23.1653 11.5781 19.9309C11.5781 19.3567 11.6133 19.2043 11.8594 19.0754L32.2969 8.22381C31.9922 4.9074 29.1094 4.32146 25.4297 5.63396L15.4219 9.23162C13.6992 9.84099 12.8086 10.802 12.3633 12.4309L12.1289 13.2981C12.082 13.5324 11.8594 13.7317 11.3086 14.0129L9.65625 14.8918C9.46875 14.9973 9.375 15.0559 9.26953 15.0559C8.73047 15.0559 8.16797 14.1418 5.77734 14.1418C2.57812 14.1418 0 16.7317 0 19.9309C0 23.1535 2.57812 25.7551 5.77734 25.7551Z" fill="white"/>
<path d="M5.77734 24.6885C8.40234 24.6885 10.5117 22.5791 10.5117 19.9307C10.5117 18.958 10.5586 18.5713 11.2734 18.1846L31.1016 7.64945C30.6211 5.89163 28.7109 5.59867 25.793 6.62992L15.7852 10.2276C14.3789 10.7315 13.7461 11.4112 13.3945 12.7237L13.1602 13.5791C12.9961 14.1885 12.7148 14.4932 11.8008 14.9619L9.97266 15.9229C9.67969 16.0752 9.51562 16.1221 9.29297 16.1221C8.32031 16.1221 7.96875 15.208 5.77734 15.208C3.16406 15.208 1.06641 17.3174 1.06641 19.9307C1.06641 22.5674 3.16406 24.6885 5.77734 24.6885ZM5.77734 22.7666C4.24219 22.7666 2.98828 21.5127 2.98828 19.9307C2.98828 18.3838 4.24219 17.1182 5.77734 17.1182C7.35938 17.1182 8.60156 18.3838 8.60156 19.9307C8.60156 21.5127 7.35938 22.7666 5.77734 22.7666ZM16.0547 13.626C15.5273 13.626 15.0703 13.1924 15.0703 12.6533C15.0703 12.0908 15.5273 11.669 16.0547 11.669C16.5938 11.669 17.0508 12.0908 17.0508 12.6533C17.0508 13.1924 16.5938 13.626 16.0547 13.626Z" fill="black" fill-opacity="0.85"/>
</g>
<defs>
<clipPath id="clip0_2207_9929">
<rect width="32.2969" height="25.6289" fill="white" transform="translate(0 0.125977)"/>
</clipPath>
</defs>
</svg>
