<svg width="31" height="24" viewBox="0 0 31 24" fill="none" xmlns="http://www.w3.org/2000/svg">
<g clip-path="url(#clip0_2207_15473)">
<path d="M4.35596 23.669C6.74658 23.669 8.69189 21.7237 8.69189 19.333C8.69189 16.9307 6.74658 14.9854 4.35596 14.9854C1.95361 14.9854 0.00830078 16.9307 0.00830078 19.333C0.00830078 21.7237 1.95361 23.669 4.35596 23.669ZM4.35596 22.0869C2.8208 22.0869 1.59033 20.8565 1.59033 19.333C1.59033 17.7979 2.8208 16.5674 4.35596 16.5674C5.87939 16.5674 7.10986 17.7979 7.10986 19.333C7.09814 20.8682 5.87939 22.0752 4.35596 22.0869ZM4.35596 20.5635C5.03564 20.5635 5.58642 20.0127 5.58642 19.333C5.58642 18.6533 5.04736 18.0908 4.35596 18.0908C3.65283 18.0908 3.12549 18.6416 3.11377 19.333C3.10205 20.0127 3.64111 20.5635 4.35596 20.5635ZM25.7075 23.669C28.1099 23.669 30.0552 21.7237 30.0552 19.333C30.0552 16.9307 28.1099 14.9854 25.7075 14.9854C23.3169 14.9854 21.3599 16.9307 21.3599 19.333C21.3599 21.7237 23.3169 23.669 25.7075 23.669ZM25.7075 22.0869C24.1841 22.0869 22.9419 20.8565 22.9419 19.333C22.9419 17.7979 24.1841 16.5674 25.7075 16.5674C27.2427 16.5674 28.4731 17.7979 28.4731 19.333C28.4731 20.8565 27.2427 22.0869 25.7075 22.0869ZM25.7075 20.5635C26.3872 20.5635 26.9497 20.0127 26.9497 19.333C26.9497 18.6533 26.3989 18.0908 25.7075 18.0908C25.0161 18.0908 24.4771 18.6416 24.4653 19.333C24.4536 20.0127 25.0044 20.5635 25.7075 20.5635ZM4.70752 20.2119H17.0005C17.4927 20.2119 17.7974 20.0713 18.231 19.6026L24.02 13.251L23.4458 11.0713L17.0122 18.3018C16.9067 18.419 16.8481 18.4424 16.7192 18.4424H4.70752V20.2119ZM16.4028 1.04004C16.4028 1.53223 16.8013 1.91895 17.2935 1.91895H20.3286C20.4341 1.91895 20.481 1.9541 20.5044 2.03614L24.77 19.6494L26.4575 19.2158L21.8989 0.911133C21.77 0.407227 21.3833 0.149414 20.6567 0.149414H17.2935C16.8013 0.149414 16.4028 0.547852 16.4028 1.04004Z" fill="black" fill-opacity="0.85"/>
</g>
<defs>
<clipPath id="clip0_2207_15473">
<rect width="30.0469" height="23.543" fill="white" transform="translate(0.00830078 0.125977)"/>
</clipPath>
</defs>
</svg>
