<svg width="26" height="26" viewBox="0 0 26 26" fill="none" xmlns="http://www.w3.org/2000/svg">
<g clip-path="url(#clip0_2207_10544)">
<path d="M0.0209961 5.79786C0.0209961 6.50098 0.489746 6.95801 1.21631 6.95801H4.26319V21.3369C4.26319 23.7979 5.47022 25.0166 7.93116 25.0166H21.3257C23.5522 25.0166 25.0171 23.4932 25.0171 21.1846V17.9971C25.0171 17.294 24.5483 16.8369 23.8218 16.8369H22.8491V3.80567C22.8491 1.35645 21.6304 0.125977 19.2163 0.125977H3.09131C1.26319 0.125977 0.0209961 1.36817 0.0209961 3.3252V5.79786ZM6.14991 21.3487V3.3252C6.14991 2.84473 6.10303 2.39942 6.00928 2.0127H19.1108C20.3296 2.0127 20.9624 2.65723 20.9624 3.8291V16.8369H10.896C10.1694 16.8369 9.68897 17.294 9.68897 17.9971V21.3487C9.68897 22.4151 8.95069 23.1299 7.93116 23.1299C6.88819 23.1299 6.14991 22.3799 6.14991 21.3487ZM1.90772 5.07129V3.3252C1.90772 2.50489 2.41162 2.0127 3.09131 2.0127C3.79444 2.0127 4.26319 2.50489 4.26319 3.3252V5.07129H1.90772ZM11.1187 23.1299C11.4116 22.6143 11.5757 21.9815 11.5757 21.2198V18.7237H23.1304V21.1846C23.1304 22.3448 22.4038 23.1299 21.3257 23.1299H11.1187ZM9.52491 11.0596H13.7319C14.1538 11.0596 14.4585 10.7549 14.4585 10.3565C14.4585 9.94629 14.1538 9.61817 13.7319 9.61817H9.52491C9.10303 9.61817 8.78662 9.94629 8.78662 10.3565C8.78662 10.7549 9.10303 11.0596 9.52491 11.0596ZM9.52491 6.96973H17.5874C18.0093 6.96973 18.314 6.65332 18.314 6.24317C18.314 5.84473 18.0093 5.52832 17.5874 5.52832H9.52491C9.10303 5.52832 8.78662 5.84473 8.78662 6.24317C8.78662 6.65332 9.10303 6.96973 9.52491 6.96973Z" fill="black" fill-opacity="0.85"/>
</g>
<defs>
<clipPath id="clip0_2207_10544">
<rect width="24.9961" height="24.9023" fill="white" transform="translate(0.0209961 0.125977)"/>
</clipPath>
</defs>
</svg>
