<svg width="27" height="27" viewBox="0 0 27 27" fill="none" xmlns="http://www.w3.org/2000/svg">
<g clip-path="url(#clip0_2207_7863)">
<path d="M6.24097 23.5972H8.78395C9.01832 23.5972 9.19409 23.6675 9.36987 23.8433L11.1746 25.6363C12.6511 27.1245 14.0222 27.1128 15.4988 25.6363L17.3035 23.8433C17.491 23.6675 17.655 23.5972 17.9011 23.5972H20.4324C22.53 23.5972 23.5027 22.6363 23.5027 20.5269V17.9956C23.5027 17.7495 23.573 17.5855 23.7488 17.398L25.5418 15.5933C27.03 14.1167 27.0183 12.7456 25.5418 11.2691L23.7488 9.46436C23.573 9.28858 23.5027 9.1128 23.5027 8.87843V6.33546C23.5027 4.24952 22.5418 3.26514 20.4324 3.26514H17.9011C17.655 3.26514 17.491 3.20655 17.3035 3.03077L15.4988 1.2378C14.0222 -0.250484 12.6511 -0.238765 11.1746 1.2378L9.36987 3.03077C9.19409 3.20655 9.01832 3.26514 8.78395 3.26514H6.24097C4.14331 3.26514 3.17065 4.22608 3.17065 6.33546V8.87843C3.17065 9.1128 3.11206 9.28858 2.93628 9.46436L1.14331 11.2691C-0.344966 12.7456 -0.333247 14.1167 1.14331 15.5933L2.93628 17.398C3.11206 17.5855 3.17065 17.7495 3.17065 17.9956V20.5269C3.17065 22.6245 4.14331 23.5972 6.24097 23.5972Z" fill="black" fill-opacity="0.85"/>
</g>
<defs>
<clipPath id="clip0_2207_7863">
<rect width="26.6221" height="26.6338" fill="white" transform="translate(0.0314941 0.125977)"/>
</clipPath>
</defs>
</svg>
