<svg width="29" height="21" viewBox="0 0 29 21" fill="none" xmlns="http://www.w3.org/2000/svg">
<g clip-path="url(#clip0_2207_12020)">
<path d="M24.9987 13.4736C25.3151 13.8486 25.8776 13.8486 26.2526 13.4267C27.7175 11.7861 28.5144 9.66497 28.5144 7.34466C28.5144 5.02435 27.7175 2.89153 26.2526 1.25091C25.8894 0.840755 25.3386 0.840755 25.0222 1.19232C24.694 1.5556 24.7761 2.01263 25.1276 2.42279C26.2995 3.75872 26.9089 5.46966 26.9089 7.34466C26.9089 9.20794 26.2995 10.9306 25.1276 12.2548C24.7761 12.665 24.694 13.1103 24.9987 13.4736Z" fill="black" fill-opacity="0.85"/>
<path d="M22.3152 10.9422C22.6317 11.3055 23.2293 11.3289 23.5809 10.8602C24.3309 9.87576 24.7762 8.65701 24.7762 7.34451C24.7762 6.03201 24.3309 4.80154 23.5809 3.82888C23.2293 3.36014 22.6434 3.37185 22.327 3.73514C21.9871 4.0867 22.116 4.52029 22.4207 4.94217C22.9246 5.65701 23.1707 6.4656 23.1707 7.34451C23.1707 8.2117 22.9246 9.03201 22.4207 9.74685C22.1277 10.157 21.9871 10.5906 22.3152 10.9422Z" fill="black" fill-opacity="0.85"/>
<path d="M3.71753 20.4463H16.362C18.823 20.4463 20.0417 19.2276 20.0417 16.8135V3.75879C20.0417 1.34473 18.823 0.125977 16.362 0.125977H3.71753C1.26831 0.125977 0.0378418 1.33301 0.0378418 3.75879V16.8135C0.0378418 19.2276 1.26831 20.4463 3.71753 20.4463ZM9.40112 10.9424C8.97925 10.9424 8.66284 10.626 8.66284 10.2041V4.49707C8.66284 4.0752 8.97925 3.75879 9.40112 3.75879C9.81128 3.75879 10.1394 4.0752 10.1394 4.49707V10.2041C10.1394 10.626 9.81128 10.9424 9.40112 10.9424ZM12.4714 10.9424C12.0612 10.9424 11.7448 10.626 11.7448 10.2041V4.49707C11.7448 4.0752 12.0612 3.75879 12.4714 3.75879C12.8816 3.75879 13.2097 4.0752 13.2097 4.49707V10.2041C13.2097 10.626 12.8816 10.9424 12.4714 10.9424ZM15.5534 10.9424C15.1433 10.9424 14.8151 10.626 14.8151 10.2041V4.49707C14.8151 4.0752 15.1433 3.75879 15.5534 3.75879C15.9753 3.75879 16.2917 4.0752 16.2917 4.49707V10.2041C16.2917 10.626 15.9753 10.9424 15.5534 10.9424Z" fill="black" fill-opacity="0.85"/>
</g>
<defs>
<clipPath id="clip0_2207_12020">
<rect width="28.4766" height="20.332" fill="white" transform="translate(0.0378418 0.125977)"/>
</clipPath>
</defs>
</svg>
