<svg width="32" height="21" viewBox="0 0 32 21" fill="none" xmlns="http://www.w3.org/2000/svg">
<g clip-path="url(#clip0_2207_13090)">
<path d="M26.7608 18.4307C27.1475 18.8643 27.792 18.8643 28.249 18.3721C30.1943 16.251 31.2959 13.4502 31.2959 10.4151C31.2959 7.3799 30.1943 4.5674 28.249 2.45802C27.792 1.96583 27.1475 1.95411 26.7608 2.39943C26.3858 2.8213 26.5029 3.37208 26.9365 3.85255C28.5068 5.59865 29.3858 7.89552 29.3858 10.4151C29.3858 12.9346 28.5068 15.2315 26.9365 16.9776C26.5029 17.458 26.3858 18.0088 26.7608 18.4307Z" fill="black" fill-opacity="0.85"/>
<path d="M23.4795 15.0909C23.8662 15.5245 24.5693 15.5363 24.9912 15.0089C26.0108 13.7433 26.5967 12.1378 26.5967 10.4152C26.5967 8.69255 26.0108 7.08708 24.9912 5.82145C24.5693 5.29411 23.8662 5.29411 23.4795 5.73942C23.1045 6.1613 23.2686 6.68864 23.6318 7.19255C24.335 8.05973 24.6865 9.19645 24.6865 10.4152C24.6865 11.6339 24.335 12.7589 23.6318 13.6378C23.2686 14.1417 23.1045 14.6691 23.4795 15.0909Z" fill="black" fill-opacity="0.85"/>
<path d="M10.3311 20.6924C15.9326 20.6924 20.6084 16.0166 20.6084 10.4151C20.6084 4.80176 15.9209 0.125977 10.3076 0.125977C4.70605 0.125977 0.0419922 4.80176 0.0419922 10.4151C0.0419922 16.0166 4.71777 20.6924 10.3311 20.6924ZM10.3428 7.3916C9.28808 7.3916 8.43261 6.55957 8.43261 5.50489C8.43261 4.4502 9.28808 3.60645 10.3428 3.60645C11.3858 3.60645 12.2295 4.43848 12.2295 5.50489C12.2295 6.54786 11.3858 7.3916 10.3428 7.3916Z" fill="black" fill-opacity="0.85"/>
</g>
<defs>
<clipPath id="clip0_2207_13090">
<rect width="31.2539" height="20.5898" fill="white" transform="translate(0.0419922 0.125977)"/>
</clipPath>
</defs>
</svg>
