<svg width="17" height="20" viewBox="0 0 17 20" fill="none" xmlns="http://www.w3.org/2000/svg">
<g clip-path="url(#clip0_2207_22481)">
<path d="M0.0461426 18.3667L2.99926 19.1518C4.24145 19.4917 4.99145 18.9526 4.99145 17.7339V13.7378H10.2297V10.4682H1.1477V17.2768C1.1477 17.9448 0.714112 18.3667 0.0461426 18.3667ZM1.1477 8.52295H4.99145V3.81201C4.99145 2.71045 4.48755 2.19482 3.49145 1.92529L0.690674 1.17529C0.971924 1.36279 1.1477 1.66748 1.1477 2.08936V8.52295ZM11.2961 18.3667L14.2492 19.1518C15.4914 19.4917 16.2414 18.9526 16.2414 17.7339V3.81201C16.2414 2.71045 15.7258 2.18311 14.7297 1.91357L11.9406 1.17529C12.2219 1.36279 12.3977 1.66748 12.3977 2.08936V17.2768C12.3977 17.9448 11.9641 18.3667 11.2961 18.3667Z" fill="black" fill-opacity="0.85"/>
</g>
<defs>
<clipPath id="clip0_2207_22481">
<rect width="16.1953" height="19.1259" fill="white" transform="translate(0.0461426 0.125977)"/>
</clipPath>
</defs>
</svg>
