<svg width="24" height="25" viewBox="0 0 24 25" fill="none" xmlns="http://www.w3.org/2000/svg">
<g clip-path="url(#clip0_2207_14978)">
<path d="M12.0161 24.044C18.5552 24.044 23.9692 18.6299 23.9692 12.0908C23.9692 5.56348 18.5435 0.137695 12.0044 0.137695C5.47705 0.137695 0.0629883 5.56348 0.0629883 12.0908C0.0629883 18.6299 5.48877 24.044 12.0161 24.044Z" fill="black" fill-opacity="0.85"/>
<path d="M11.0668 7.00504C11.0434 7.02847 9.227 8.73941 8.2895 9.80582C7.84419 10.2863 7.60982 10.9191 7.66841 11.5753C7.71528 12.2667 8.03169 12.9113 8.58247 13.4152C9.34419 14.048 10.809 14.1886 11.7231 13.3683C12.2973 12.8761 12.9301 12.1495 12.9535 12.1495C13.4106 11.6339 14.1957 11.6105 14.6879 12.0909C15.1684 12.5363 15.2035 13.3097 14.7465 13.8136C14.7231 13.8253 13.9965 14.6105 13.352 15.173C12.4731 15.9933 11.3129 16.38 10.1293 16.38C8.99263 16.38 7.85591 16.005 7.00044 15.255C5.92232 14.3292 5.2895 13.0753 5.19575 11.7277C5.11372 10.4034 5.55903 9.12613 6.48482 8.13004C7.48091 7.02847 9.2856 5.31754 9.34419 5.22379C9.83638 4.76675 10.6098 4.81363 11.0785 5.28238C11.5707 5.76285 11.5473 6.51285 11.0668 7.00504ZM12.9535 17.423C12.9652 17.3995 14.7934 15.7003 15.7191 14.6573C16.1645 14.1534 16.4106 13.5206 16.3402 12.8761C16.3051 12.173 15.977 11.5284 15.4262 11.0245C14.6645 10.4034 13.1996 10.2511 12.2973 11.0714C11.7231 11.5402 11.0785 12.2902 11.0668 12.3019C10.6098 12.7941 9.82466 12.8292 9.33247 12.3488C8.84028 11.9152 8.80513 11.1417 9.27388 10.6261C9.2856 10.6144 10.0122 9.82925 10.6567 9.26675C11.5473 8.44644 12.6957 8.05972 13.8793 8.05972C15.0277 8.05972 16.1527 8.43472 17.0434 9.18472C18.0981 10.0871 18.7309 11.3644 18.8246 12.712C18.8949 14.048 18.4496 15.3136 17.5356 16.3097C16.5395 17.3995 14.7465 19.1222 14.6645 19.2159C14.1723 19.673 13.4106 19.6495 12.9301 19.1573C12.4496 18.6769 12.4613 17.9269 12.9535 17.423Z" fill="white"/>
</g>
<defs>
<clipPath id="clip0_2207_14978">
<rect width="23.9062" height="23.918" fill="white" transform="translate(0.0629883 0.125977)"/>
</clipPath>
</defs>
</svg>
