<svg width="22" height="22" viewBox="0 0 22 22" fill="none" xmlns="http://www.w3.org/2000/svg">
<g clip-path="url(#clip0_2207_25989)">
<path d="M3.75318 21.7237H17.968C20.429 21.7237 21.6477 20.5049 21.6477 18.0908V3.78223C21.6477 1.36817 20.429 0.149414 17.968 0.149414H3.75318C1.30396 0.149414 0.0734863 1.35645 0.0734863 3.78223V18.0908C0.0734863 20.5166 1.30396 21.7237 3.75318 21.7237Z" fill="black" fill-opacity="0.85"/>
<path d="M6.22583 16.2158V6.36036C6.22583 5.78614 6.61255 5.41114 7.18677 5.41114H9.63599C11.6516 5.41114 12.6243 6.36036 12.6243 8.54004V12.958C12.6243 13.4151 12.343 13.708 11.9094 13.708C11.4876 13.708 11.1829 13.4151 11.1829 12.958V8.75098C11.1829 7.35645 10.6087 6.96973 9.28443 6.96973H7.67896V16.2041C7.67896 16.6494 7.39771 16.9658 6.97583 16.9658C6.55396 16.9658 6.22583 16.6612 6.22583 16.2158ZM8.73365 15.8877V9.25489C8.73365 8.79786 9.03833 8.5166 9.47193 8.5166C9.88208 8.5166 10.1751 8.79786 10.1751 9.25489V15.2666H11.8743C13.2337 15.2666 13.6673 14.9971 13.6673 13.4502V6.03223C13.6673 5.5752 13.9602 5.28223 14.3938 5.28223C14.8274 5.28223 15.1087 5.58692 15.1087 6.03223V13.4502C15.1087 15.876 14.2297 16.8252 12.1673 16.8252H9.65943C9.08521 16.8252 8.73365 16.4619 8.73365 15.8877Z" fill="white"/>
</g>
<defs>
<clipPath id="clip0_2207_25989">
<rect width="21.5742" height="21.5977" fill="white" transform="translate(0.0734863 0.125977)"/>
</clipPath>
</defs>
</svg>
