<svg width="24" height="25" viewBox="0 0 24 25" fill="none" xmlns="http://www.w3.org/2000/svg">
<g clip-path="url(#clip0_2207_25979)">
<path d="M12.0224 24.0322C18.5615 24.0322 23.9755 18.6065 23.9755 12.0791C23.9755 5.54004 18.5498 0.125977 12.0107 0.125977C5.4834 0.125977 0.0693359 5.54004 0.0693359 12.0791C0.0693359 18.6065 5.49512 24.0322 12.0224 24.0322Z" fill="black" fill-opacity="0.85"/>
<path d="M7.38184 17.376V7.5205C7.38184 6.94628 7.76856 6.57128 8.34278 6.57128H10.792C12.8076 6.57128 13.7802 7.5205 13.7802 9.70019V14.1182C13.7802 14.5752 13.499 14.8682 13.0654 14.8682C12.6435 14.8682 12.3388 14.5752 12.3388 14.1182V9.91113C12.3388 8.51659 11.7646 8.12988 10.4404 8.12988H8.83496V17.3643C8.83496 17.8096 8.55372 18.126 8.13184 18.126C7.70996 18.126 7.38184 17.8213 7.38184 17.376ZM9.88965 17.0479V10.4151C9.88965 9.958 10.1943 9.67675 10.6279 9.67675C11.0381 9.67675 11.331 9.958 11.331 10.4151V16.4268H13.0302C14.3896 16.4268 14.8232 16.1572 14.8232 14.6104V7.19238C14.8232 6.73535 15.1162 6.44238 15.5498 6.44238C15.9834 6.44238 16.2646 6.74706 16.2646 7.19238V14.6104C16.2646 17.0362 15.374 17.9854 13.3232 17.9854H10.8154C10.2412 17.9854 9.88965 17.6221 9.88965 17.0479Z" fill="white"/>
</g>
<defs>
<clipPath id="clip0_2207_25979">
<rect width="23.9062" height="23.918" fill="white" transform="translate(0.0693359 0.125977)"/>
</clipPath>
</defs>
</svg>
