<svg width="22" height="22" viewBox="0 0 22 22" fill="none" xmlns="http://www.w3.org/2000/svg">
<g clip-path="url(#clip0_2207_25984)">
<path d="M3.75098 21.7237H17.9658C20.4268 21.7237 21.6455 20.5049 21.6455 18.0908V3.78223C21.6455 1.36817 20.4268 0.149414 17.9658 0.149414H3.75098C1.30176 0.149414 0.0712891 1.35645 0.0712891 3.78223V18.0908C0.0712891 20.5166 1.30176 21.7237 3.75098 21.7237ZM3.77441 19.8369C2.60254 19.8369 1.95801 19.2158 1.95801 17.9971V3.87598C1.95801 2.65723 2.60254 2.03614 3.77441 2.03614H17.9424C19.1025 2.03614 19.7588 2.65723 19.7588 3.87598V17.9971C19.7588 19.2158 19.1025 19.8369 17.9424 19.8369H3.77441Z" fill="black" fill-opacity="0.85"/>
<path d="M6.37598 16.0635C6.37598 16.4854 6.69238 16.7783 7.10254 16.7783C7.5127 16.7783 7.78223 16.4737 7.78223 16.0518V7.08692H9.34082C10.6182 7.08692 11.1807 7.47364 11.1807 8.82129V12.8994C11.1807 13.3448 11.4736 13.626 11.8838 13.626C12.294 13.626 12.5752 13.3448 12.5752 12.8994V8.62207C12.5752 6.5127 11.626 5.58692 9.68067 5.58692H7.30176C6.75098 5.58692 6.37598 5.9502 6.37598 6.50098V16.0635ZM8.80176 15.7471C8.80176 16.2979 9.1416 16.6494 9.7041 16.6494H12.1299C14.1221 16.6494 14.9775 15.7237 14.9775 13.3799V6.18457C14.9775 5.7627 14.708 5.46973 14.2861 5.46973C13.8643 5.46973 13.583 5.75098 13.583 6.18457V13.3799C13.583 14.8799 13.1611 15.1377 11.8486 15.1377H10.1963V9.31348C10.1963 8.86817 9.91504 8.59864 9.5166 8.59864C9.09473 8.59864 8.80176 8.86817 8.80176 9.31348V15.7471Z" fill="black" fill-opacity="0.85"/>
</g>
<defs>
<clipPath id="clip0_2207_25984">
<rect width="21.5742" height="21.5977" fill="white" transform="translate(0.0712891 0.125977)"/>
</clipPath>
</defs>
</svg>
