<svg width="24" height="25" viewBox="0 0 24 25" fill="none" xmlns="http://www.w3.org/2000/svg">
<g clip-path="url(#clip0_2207_25974)">
<path d="M12.0202 24.0322C18.5593 24.0322 23.9733 18.6065 23.9733 12.0791C23.9733 5.54004 18.5476 0.125977 12.0085 0.125977C5.4812 0.125977 0.0671387 5.54004 0.0671387 12.0791C0.0671387 18.6065 5.49292 24.0322 12.0202 24.0322ZM12.0202 22.0401C6.48902 22.0401 2.07105 17.6104 2.07105 12.0791C2.07105 6.54786 6.4773 2.11817 12.0085 2.11817C17.5398 2.11817 21.9812 6.54786 21.9812 12.0791C21.9812 17.6104 17.5515 22.0401 12.0202 22.0401Z" fill="black" fill-opacity="0.85"/>
<path d="M7.52026 17.2237C7.52026 17.6455 7.83667 17.9385 8.24683 17.9385C8.65698 17.9385 8.92652 17.6338 8.92652 17.2119V8.24706H10.4851C11.7624 8.24706 12.3249 8.63378 12.3249 9.98144V14.0596C12.3249 14.5049 12.6179 14.7862 13.028 14.7862C13.4382 14.7862 13.7194 14.5049 13.7194 14.0596V9.78222C13.7194 7.67285 12.7702 6.74706 10.8249 6.74706H8.44605C7.89526 6.74706 7.52026 7.11035 7.52026 7.66113V17.2237ZM9.94605 16.9072C9.94605 17.458 10.2859 17.8096 10.8483 17.8096H13.2741C15.2546 17.8096 16.1218 16.8838 16.1218 14.5401V7.34472C16.1218 6.92285 15.8523 6.62988 15.4304 6.62988C15.0085 6.62988 14.7273 6.91113 14.7273 7.34472V14.5401C14.7273 16.0401 14.3054 16.2979 12.9929 16.2979H11.3405V10.4737C11.3405 10.0283 11.0593 9.75878 10.6609 9.75878C10.239 9.75878 9.94605 10.0283 9.94605 10.4737V16.9072Z" fill="black" fill-opacity="0.85"/>
</g>
<defs>
<clipPath id="clip0_2207_25974">
<rect width="23.9062" height="23.918" fill="white" transform="translate(0.0671387 0.125977)"/>
</clipPath>
</defs>
</svg>
