<svg width="27" height="27" viewBox="0 0 27 27" fill="none" xmlns="http://www.w3.org/2000/svg">
<g clip-path="url(#clip0_2207_8126)">
<path d="M3.99438 15.8745C3.99438 20.1518 6.29126 21.7222 12.9476 25.4722C13.2405 25.6362 13.5452 25.7065 13.7327 25.7065C13.9202 25.7065 14.2132 25.6362 14.5179 25.4722C21.1858 21.7339 23.471 20.1518 23.471 15.8745V6.90967C23.471 5.6792 22.9319 5.29248 21.9476 4.87061C20.5647 4.29639 16.0999 2.69092 14.7054 2.21045C14.4007 2.10498 14.0608 2.03467 13.7327 2.03467C13.4046 2.03467 13.0647 2.12842 12.7483 2.21045C11.3655 2.60889 6.90063 4.30811 5.51782 4.87061C4.52173 5.28076 3.99438 5.6792 3.99438 6.90967V15.8745ZM13.9788 23.5386V3.95654C14.0374 3.96826 14.1077 3.9917 14.2015 4.02686C15.971 4.72998 19.3929 5.97217 21.2093 6.59326C21.5374 6.71045 21.6077 6.87451 21.6077 7.27295V15.4409C21.6077 19.062 19.8616 20.0112 14.4593 23.3042C14.2718 23.4214 14.1194 23.5034 13.9788 23.5386Z" fill="black" fill-opacity="0.85"/>
<path d="M22.639 25.8707C23.5296 26.7496 24.971 26.7613 25.8499 25.8707C26.7288 24.9918 26.7405 23.5621 25.8499 22.6598L3.97097 0.792547C3.09207 -0.0863593 1.66238 -0.0980783 0.760039 0.76911C-0.130586 1.6363 -0.142305 3.12458 0.74832 4.00349L22.639 25.8707Z" fill="white"/>
<path d="M23.6116 24.9097C23.9632 25.2612 24.5374 25.2612 24.889 24.9097C25.2288 24.5581 25.2405 23.9839 24.889 23.6323L2.99829 1.75342C2.64673 1.41357 2.07251 1.41357 1.70923 1.75342C1.36938 2.09326 1.36938 2.69092 1.70923 3.03076L23.6116 24.9097Z" fill="black" fill-opacity="0.85"/>
</g>
<defs>
<clipPath id="clip0_2207_8126">
<rect width="26.4273" height="26.8683" fill="white" transform="translate(0.0861816 0.125977)"/>
</clipPath>
</defs>
</svg>
