<svg width="20" height="24" viewBox="0 0 20 24" fill="none" xmlns="http://www.w3.org/2000/svg">
<g clip-path="url(#clip0_2207_8088)">
<path d="M9.66577 23.7862C9.85327 23.7862 10.1462 23.7158 10.4392 23.5635C17.1071 20.0713 19.2517 18.3252 19.2517 14.1182V5.28223C19.2517 4.0752 18.736 3.68848 17.7517 3.27832C16.3806 2.71582 11.9978 1.12207 10.6384 0.653321C10.322 0.547852 9.99389 0.489258 9.66577 0.489258C9.33764 0.489258 9.00952 0.559571 8.70483 0.653321C7.33374 1.09863 2.95092 2.72754 1.57983 3.27832C0.607178 3.67676 0.079834 4.0752 0.079834 5.28223V14.1182C0.079834 18.3252 2.34155 19.8721 8.89233 23.5635C9.19702 23.7276 9.47827 23.7862 9.66577 23.7862Z" fill="black" fill-opacity="0.85"/>
</g>
<defs>
<clipPath id="clip0_2207_8088">
<rect width="19.1719" height="23.6602" fill="white" transform="translate(0.079834 0.125977)"/>
</clipPath>
</defs>
</svg>
