<svg width="24" height="26" viewBox="0 0 24 26" fill="none" xmlns="http://www.w3.org/2000/svg">
<g clip-path="url(#clip0_2207_19894)">
<path d="M1.64062 20.4126L10.8633 25.6391C11.5195 26.0141 12.1406 26.0141 12.8086 25.6391L22.0195 20.4126C23.0977 19.8032 23.6602 19.1821 23.6602 17.5063V8.2251C23.6602 7.00635 23.2148 6.24463 22.2305 5.68213L13.9336 0.971191C12.5156 0.162598 11.1445 0.162598 9.72656 0.971191L1.44141 5.68213C0.445312 6.24463 0 7.00635 0 8.2251V17.5063C0 19.1821 0.574219 19.8032 1.64062 20.4126ZM2.69531 18.8657C2.01562 18.4907 1.78125 18.0922 1.78125 17.4477V8.6001L10.9102 13.8149V23.5415L2.69531 18.8657ZM20.9766 18.8657L12.75 23.5415V13.8149L21.8789 8.6001V17.4477C21.8789 18.0922 21.6445 18.4907 20.9766 18.8657ZM11.8359 12.1743L2.78906 7.05322L6.41016 4.979L15.457 10.1235L11.8359 12.1743ZM17.3438 9.05713L8.26172 3.92432L10.5117 2.64697C11.4141 2.13135 12.2461 2.11963 13.1602 2.64697L20.8828 7.05322L17.3438 9.05713Z" fill="black" fill-opacity="0.85"/>
</g>
<defs>
<clipPath id="clip0_2207_19894">
<rect width="23.6602" height="25.793" fill="white" transform="translate(0 0.127441)"/>
</clipPath>
</defs>
</svg>
