<svg width="36" height="26" viewBox="0 0 36 26" fill="none" xmlns="http://www.w3.org/2000/svg">
<g clip-path="url(#clip0_2207_19912)">
<path d="M13.6194 20.4126L22.842 25.6391C23.4983 26.0141 24.1194 26.0141 24.7874 25.6391L33.9983 20.4126C35.0764 19.8032 35.6389 19.1821 35.6389 17.5063V8.2251C35.6389 7.00635 35.1936 6.24463 34.2092 5.68213L25.9124 0.971191C24.4944 0.162598 23.1233 0.162598 21.7053 0.971191L13.4202 5.68213C12.4241 6.24463 11.9788 7.00635 11.9788 8.2251V17.5063C11.9788 19.1821 12.553 19.8032 13.6194 20.4126ZM14.6741 18.8657C13.9944 18.4907 13.76 18.0922 13.76 17.4477V8.6001L22.8889 13.8149V23.5415L14.6741 18.8657ZM32.9553 18.8657L24.7288 23.5415V13.8149L33.8577 8.6001V17.4477C33.8577 18.0922 33.6233 18.4907 32.9553 18.8657ZM23.8147 12.1743L14.7678 7.05322L18.3889 4.979L27.4358 10.1235L23.8147 12.1743ZM29.3225 9.05713L20.2405 3.92432L22.4905 2.64697C23.3928 2.13135 24.2249 2.11963 25.1389 2.64697L32.8616 7.05322L29.3225 9.05713Z" fill="black" fill-opacity="0.85"/>
<path d="M18.0139 14.354C18.0139 12.8657 16.8772 11.7055 15.3889 11.7055H8.99048L9.7522 10.9672C10.4084 10.4047 10.6545 9.65478 10.6545 8.95166C10.6545 7.48682 9.49439 6.33838 8.02954 6.33838C7.32642 6.33838 6.67017 6.60791 6.15454 7.12353L0.834228 12.4321C0.306885 12.9594 0.00219727 13.6391 0.00219727 14.354C0.00219727 15.0688 0.306885 15.7485 0.834228 16.2758L6.11939 21.561C6.67017 22.1118 7.32642 22.3696 8.02954 22.3696C9.49439 22.3696 10.6545 21.2212 10.6545 19.7563C10.6545 19.0532 10.4202 18.3149 9.7522 17.7407L8.99048 17.0024H15.3889C16.8772 17.0024 18.0139 15.8422 18.0139 14.354Z" fill="white"/>
<path d="M16.4202 14.354C16.4202 13.7446 15.9866 13.311 15.3889 13.311H7.51392L3.90454 13.4282V14.0844L7.10376 11.1782L8.72095 9.74853C8.97876 9.52588 9.06079 9.23291 9.06079 8.95166C9.06079 8.36572 8.61548 7.94385 8.02954 7.94385C7.76001 7.94385 7.51392 8.0376 7.27954 8.26025L1.95923 13.5688C1.72486 13.7915 1.59595 14.061 1.59595 14.354C1.59595 14.6469 1.72486 14.9165 1.95923 15.1391L7.24439 20.4126C7.5022 20.6704 7.76001 20.7641 8.02954 20.7641C8.61548 20.7641 9.06079 20.3422 9.06079 19.7563C9.06079 19.4751 8.99048 19.1821 8.72095 18.9594L7.10376 17.5297L3.90454 14.6235V15.2797L7.51392 15.3969H15.3889C15.9866 15.3969 16.4202 14.9633 16.4202 14.354Z" fill="black" fill-opacity="0.85"/>
</g>
<defs>
<clipPath id="clip0_2207_19912">
<rect width="35.6367" height="25.793" fill="white" transform="translate(0.00219727 0.127441)"/>
</clipPath>
</defs>
</svg>
