<svg width="24" height="25" viewBox="0 0 24 25" fill="none" xmlns="http://www.w3.org/2000/svg">
<g clip-path="url(#clip0_2207_19902)">
<path d="M11.9594 24.0336C18.4985 24.0336 23.9125 18.6079 23.9125 12.0805C23.9125 5.5415 18.4868 0.127441 11.9477 0.127441C5.42041 0.127441 0.00634766 5.5415 0.00634766 12.0805C0.00634766 18.6079 5.43213 24.0336 11.9594 24.0336ZM11.9594 22.0415C6.42823 22.0415 2.01026 17.6118 2.01026 12.0805C2.01026 6.54932 6.41651 2.11963 11.9477 2.11963C17.479 2.11963 21.9204 6.54932 21.9204 12.0805C21.9204 17.6118 17.4907 22.0415 11.9594 22.0415Z" fill="black" fill-opacity="0.85"/>
<path d="M12.3813 18.7368C12.4282 18.7251 12.4633 18.7016 12.4985 18.6782L17.3032 15.9477C17.854 15.6196 18.1821 15.2915 18.1821 14.4126V9.63135C18.1821 9.46728 18.1704 9.30322 18.1235 9.17432L12.3813 12.4555V18.7368ZM11.5375 18.7368V12.4555L5.7954 9.17432C5.76025 9.30322 5.76025 9.46728 5.76025 9.63135V14.4126C5.76025 15.2915 6.06493 15.6196 6.61572 15.9477L11.4204 18.6782C11.4555 18.7016 11.4907 18.7251 11.5375 18.7368ZM11.9594 11.729L14.5727 10.2407L8.78368 6.93603L6.53368 8.2251C6.39306 8.28369 6.27587 8.36572 6.19384 8.45947L11.9594 11.729ZM15.4282 9.76025L17.7251 8.45947C17.643 8.36572 17.5258 8.28369 17.3852 8.2251L13.0727 5.75244C12.6977 5.52978 12.3227 5.42432 11.9594 5.42432C11.6079 5.42432 11.2329 5.52978 10.8579 5.75244L9.604 6.45556L15.4282 9.76025Z" fill="black" fill-opacity="0.85"/>
</g>
<defs>
<clipPath id="clip0_2207_19902">
<rect width="23.9062" height="23.918" fill="white" transform="translate(0.00634766 0.127441)"/>
</clipPath>
</defs>
</svg>
