<svg width="36" height="26" viewBox="0 0 36 26" fill="none" xmlns="http://www.w3.org/2000/svg">
<g clip-path="url(#clip0_2207_19918)">
<path d="M24.6135 25.8969C24.6955 25.8735 24.7658 25.8383 24.8479 25.7915L34.0237 20.5649C35.1136 19.9438 35.6995 19.311 35.6995 17.6118V8.48291C35.6995 8.13135 35.6761 7.8501 35.6058 7.59228L24.6135 13.8735V25.8969ZM23.008 25.8969V13.8735L12.0158 7.59228C11.9455 7.8501 11.9221 8.13135 11.9221 8.48291V17.6118C11.9221 19.311 12.5197 19.9438 13.5979 20.5649L22.7853 25.7915C22.8558 25.8383 22.9261 25.8735 23.008 25.8969ZM23.8166 12.4672L28.8205 9.63135L17.7229 3.2915L13.4221 5.74072C13.1643 5.88135 12.9533 6.02197 12.7658 6.19775L23.8166 12.4672ZM30.4494 8.70556L34.8558 6.19775C34.68 6.02197 34.469 5.88135 34.1995 5.74072L25.9377 1.02979C25.2229 0.61963 24.508 0.396973 23.8166 0.396973C23.1135 0.396973 22.3987 0.61963 21.6839 1.02979L19.3049 2.37744L30.4494 8.70556Z" fill="black" fill-opacity="0.85"/>
<path d="M18.0159 14.4594C18.0159 12.9712 16.8792 11.811 15.3909 11.811H8.98071L9.75415 11.0727C10.4104 10.5102 10.6565 9.76025 10.6565 9.05713C10.6565 7.59228 9.49634 6.44385 8.03149 6.44385C7.32837 6.44385 6.67212 6.71338 6.15649 7.229L0.836181 12.5376C0.308838 13.0649 0.00415039 13.7446 0.00415039 14.4594C0.00415039 15.1743 0.308838 15.854 0.836181 16.3813L6.12134 21.6665C6.67212 22.2172 7.32837 22.4751 8.03149 22.4751C9.49634 22.4751 10.6565 21.3266 10.6565 19.8618C10.6565 19.1586 10.4222 18.4204 9.75415 17.8462L8.98071 17.1079H15.3909C16.8792 17.1079 18.0159 15.9477 18.0159 14.4594Z" fill="white"/>
<path d="M16.4221 14.4594C16.4221 13.8501 15.9886 13.4165 15.3909 13.4165H7.51587L3.90649 13.5336V14.1899L7.10571 11.2836L8.7229 9.854C8.98071 9.63135 9.06274 9.33838 9.06274 9.05713C9.06274 8.47119 8.61743 8.04932 8.03149 8.04932C7.76196 8.04932 7.51587 8.14306 7.28149 8.36572L1.96118 13.6743C1.72681 13.8969 1.5979 14.1665 1.5979 14.4594C1.5979 14.7524 1.72681 15.0219 1.96118 15.2446L7.24634 20.518C7.50415 20.7758 7.76196 20.8696 8.03149 20.8696C8.61743 20.8696 9.06274 20.4477 9.06274 19.8618C9.06274 19.5805 8.99243 19.2876 8.7229 19.0649L7.10571 17.6352L3.90649 14.729V15.3852L7.51587 15.5024H15.3909C15.9886 15.5024 16.4221 15.0688 16.4221 14.4594Z" fill="black" fill-opacity="0.85"/>
</g>
<defs>
<clipPath id="clip0_2207_19918">
<rect width="35.6953" height="25.7695" fill="white" transform="translate(0.00415039 0.127441)"/>
</clipPath>
</defs>
</svg>
