<svg width="42" height="22" viewBox="0 0 42 22" fill="none" xmlns="http://www.w3.org/2000/svg">
<g clip-path="url(#clip0_2207_18338)">
<path d="M4.64356 16.7679H6.33106V14.8812H4.63184C2.9209 14.8812 1.90137 14.3187 1.90137 11.7523V6.49058C1.90137 5.9398 2.37012 5.76402 2.80371 5.97496C3.95215 6.47886 5.19434 6.85386 6.84668 6.85386C8.82715 6.85386 10.8544 5.77574 12.4951 3.65464C13.6552 2.16636 14.4287 2.09605 16.0693 3.04527L22.3857 6.70152C23.8037 7.53355 24.4482 7.65074 25.7373 7.65074C26.9443 7.65074 29.8271 7.19371 30.9521 7.19371C32.7685 7.19371 33.6708 8.07261 33.6708 9.80699C33.6708 10.2171 33.5654 10.5921 33.3427 10.9437H35.3935C35.5107 10.5804 35.5693 10.1937 35.5693 9.80699C35.5693 7.13511 33.706 5.30699 30.9638 5.30699C29.6865 5.30699 26.8154 5.76402 25.7373 5.76402C24.6591 5.76402 24.4248 5.71714 23.3115 5.08433L17.0302 1.40464C14.7919 0.10386 12.7177 0.279641 11.0068 2.50621C9.65918 4.22886 8.27637 4.96714 6.84668 4.96714C5.58106 4.96714 4.71387 4.76792 3.77637 4.33433C1.97168 3.54918 0.0146484 4.35777 0.0146484 6.5023V11.7523C0.0146484 15.6898 2.38184 16.7679 4.64356 16.7679ZM3.88184 13.7328H6.33106V12.4203H3.88184C2.76856 12.4203 2.18262 12.2796 1.85449 11.9398V13.2992C2.44043 13.6156 3.00293 13.7328 3.88184 13.7328ZM22.7255 5.84605C20.4873 4.54527 18.4248 4.72105 16.7021 6.94761C15.3544 8.67027 13.9716 9.40855 12.5419 9.40855C11.2763 9.40855 10.4208 9.20933 9.47168 8.77574C7.67871 7.99058 5.72168 8.79918 5.72168 10.9437V16.1937C5.72168 20.1312 8.08887 21.2093 10.3505 21.2093H28.9834C32.7568 21.2093 34.9249 20.6351 37.8662 19.0062C40.1982 17.7054 41.2763 16.1 41.2763 14.2484C41.2763 11.5765 39.4013 9.74839 36.6591 9.74839C35.3936 9.74839 32.5224 10.2054 31.4326 10.2054C30.3662 10.2054 30.1201 10.1585 29.0185 9.52574L22.7255 5.84605ZM21.7763 7.48668L28.081 11.1429C29.5107 11.975 30.1435 12.0921 31.4326 12.0921C32.6396 12.0921 35.5224 11.6351 36.6474 11.6351C38.4755 11.6351 39.3779 12.5257 39.3779 14.2484C39.3779 15.4906 38.663 16.4164 36.9638 17.3656C34.2802 18.8539 32.499 19.3226 28.9834 19.3226H10.3388C8.61621 19.3226 7.6084 18.7601 7.6084 16.1937V10.932C7.6084 10.3812 8.07715 10.2054 8.51074 10.4164C9.65918 10.9203 10.8896 11.2953 12.5419 11.2953C14.5341 11.2953 16.5615 10.2171 18.2021 8.09605C19.3623 6.60777 20.1357 6.53746 21.7763 7.48668ZM7.54981 17.7406C8.14746 18.057 8.70996 18.1742 9.57715 18.1742H28.9834C31.9482 18.1742 33.4951 17.7757 35.3584 16.8031L37.4443 15.7484C39.413 14.7171 39.4834 13.9789 39.4599 12.2679L38.2412 12.2445C38.9326 12.6664 38.6982 13.5921 36.8232 14.5882L34.7255 15.6664C33.0966 16.5335 31.831 16.8617 28.9834 16.8617H9.57715C8.47559 16.8617 7.88965 16.7211 7.54981 16.3812V17.7406ZM22.8193 7.09996L20.7451 9.94761C20.5224 10.2289 20.5576 10.6507 20.8271 10.8617C21.1084 11.0843 21.5419 11.0609 21.7529 10.7796L23.8388 7.92027L22.8193 7.09996ZM25.4677 8.44761L23.4169 11.2601C23.1826 11.5765 23.2177 11.9632 23.499 12.1625C23.8154 12.432 24.2021 12.4085 24.4365 12.0804L26.4873 9.26792L25.4677 8.44761ZM28.1044 9.80699L26.0888 12.5726C25.8544 12.8773 25.8896 13.264 26.1591 13.475C26.4639 13.7328 26.8505 13.6976 27.0849 13.3929L29.124 10.6156L28.1044 9.80699Z" fill="black" fill-opacity="0.85"/>
</g>
<defs>
<clipPath id="clip0_2207_18338">
<rect width="41.2617" height="21.082" fill="white" transform="translate(0.0146484 0.127441)"/>
</clipPath>
</defs>
</svg>
