<svg width="24" height="25" viewBox="0 0 24 25" fill="none" xmlns="http://www.w3.org/2000/svg">
<g clip-path="url(#clip0_2207_18328)">
<path d="M11.9719 24.0336C18.511 24.0336 23.925 18.6079 23.925 12.0805C23.925 5.5415 18.4993 0.127441 11.9602 0.127441C5.43286 0.127441 0.0187988 5.5415 0.0187988 12.0805C0.0187988 18.6079 5.44458 24.0336 11.9719 24.0336ZM11.9719 22.0415C6.44068 22.0415 2.02271 17.6118 2.02271 12.0805C2.02271 6.54932 6.42896 2.11963 11.9602 2.11963C17.4915 2.11963 21.9329 6.54932 21.9329 12.0805C21.9329 17.6118 17.5032 22.0415 11.9719 22.0415Z" fill="black" fill-opacity="0.85"/>
<path d="M4.96411 14.2953L14.6321 14.2835C16.0149 14.2835 16.6243 14.1312 17.4211 13.7211L19.05 12.8773C19.9524 12.3968 20.2102 11.8109 19.8 11.3656C19.4954 11.0023 18.9446 10.6625 18.1829 10.6507C17.5735 10.6507 16.2258 10.8734 15.6985 10.8734C15.3586 10.8851 15.1946 10.8734 14.9368 10.7445L13.9993 12.0218C13.8821 12.1742 13.6711 12.1976 13.5188 12.0687C13.3782 11.9515 13.3547 11.764 13.4719 11.6L14.3391 10.4164L13.6711 10.0296L12.6985 11.3773C12.5813 11.5531 12.3821 11.5648 12.218 11.4359C12.0774 11.3187 12.0305 11.1195 12.1594 10.9554L13.0852 9.70153L12.4407 9.30309L11.3977 10.7445C11.2922 10.8968 11.0579 10.9085 10.929 10.7914C10.7766 10.6859 10.7649 10.4515 10.8586 10.3226L11.843 8.96325L11.3508 8.682C10.4133 8.14293 9.54614 8.28356 8.90161 9.12731C8.10474 10.1468 7.46021 10.4984 6.7688 10.4984C6.15942 10.4984 5.76099 10.3343 5.31568 10.1C4.3313 9.5609 3.54614 10.0648 3.54614 10.9906L3.55786 13.6859C3.55786 13.7211 3.54614 13.7679 3.54614 13.7914C3.90942 14.2015 4.27271 14.2953 4.96411 14.2953ZM5.72583 16.0531H14.5618C16.3313 16.0531 17.3508 15.7835 18.7336 15.0101C19.8469 14.4125 20.3508 13.6507 20.3391 12.7718C20.3508 12.6664 20.3391 12.5492 20.3274 12.4671C20.2219 12.8773 19.9758 13.1585 19.3547 13.4867L17.7258 14.3187C16.8118 14.7992 16.0618 14.975 14.6321 14.975H4.97583C4.46021 14.975 4.07349 14.9046 3.65161 14.6C3.96802 15.7132 4.85864 16.0531 5.72583 16.0531Z" fill="black" fill-opacity="0.85"/>
</g>
<defs>
<clipPath id="clip0_2207_18328">
<rect width="23.9062" height="23.918" fill="white" transform="translate(0.0187988 0.127441)"/>
</clipPath>
</defs>
</svg>
