<svg width="36" height="17" viewBox="0 0 36 17" fill="none" xmlns="http://www.w3.org/2000/svg">
<g clip-path="url(#clip0_2207_18320)">
<path d="M17.0283 1.41636C14.79 0.115579 12.7158 0.29136 11.0049 2.51792C9.65723 4.24058 8.27442 4.97886 6.84473 4.97886C5.57911 4.97886 4.71192 4.77964 3.77442 4.34605C1.96973 3.56089 0.0126953 4.36949 0.0126953 6.51402V11.764C0.0126953 15.7015 2.37989 16.7796 4.64161 16.7796H23.2861C27.0479 16.7796 29.2275 16.2054 32.1689 14.5765C34.4893 13.2757 35.5674 11.6703 35.5674 9.81871C35.5674 7.14683 33.7041 5.31871 30.9619 5.31871C29.6846 5.31871 26.8135 5.77574 25.7354 5.77574C24.6572 5.77574 24.4229 5.72886 23.3096 5.09605L17.0283 1.41636ZM16.0674 3.05699L22.3838 6.71324C23.8018 7.54527 24.4463 7.66246 25.7354 7.66246C26.9424 7.66246 29.8252 7.20542 30.9502 7.20542C32.7666 7.20542 33.6689 8.08433 33.6689 9.81871C33.6689 11.0609 32.9658 11.9867 31.2549 12.9359C28.583 14.4242 26.8018 14.8929 23.2861 14.8929H4.62989C2.91895 14.8929 1.89942 14.3304 1.89942 11.764V6.5023C1.89942 5.95152 2.36817 5.77574 2.80176 5.98668C3.9502 6.49058 5.19239 6.86558 6.84473 6.86558C8.8252 6.86558 10.8525 5.78746 12.4932 3.66636C13.6533 2.17808 14.4268 2.10777 16.0674 3.05699ZM1.85254 13.3109C2.43848 13.6273 3.00098 13.7445 3.87989 13.7445H23.2861C26.2393 13.7445 27.7979 13.3461 29.6494 12.3734L31.7354 11.3187C33.7158 10.2875 33.7861 9.54918 33.7627 7.83824L32.5439 7.8148C33.2354 8.23668 32.9893 9.16246 31.1143 10.1585L29.0283 11.2367C27.3994 12.1039 26.1221 12.432 23.2861 12.432H3.87989C2.76661 12.432 2.18067 12.2914 1.85254 11.9515V13.3109ZM17.1104 2.67027L15.0361 5.51792C14.8252 5.79918 14.8486 6.22105 15.1299 6.43199C15.3994 6.65464 15.833 6.63121 16.0439 6.34996L18.1299 3.49058L17.1104 2.67027ZM19.7705 4.01792L17.7197 6.83042C17.4854 7.14683 17.5088 7.53355 17.8018 7.73277C18.1065 8.0023 18.5049 7.96714 18.7393 7.65074L20.7783 4.83824L19.7705 4.01792ZM22.3955 5.3773L20.3916 8.14292C20.1572 8.44761 20.1807 8.83433 20.4619 9.04527C20.7549 9.30308 21.1533 9.26792 21.3877 8.96324L23.415 6.18589L22.3955 5.3773Z" fill="black" fill-opacity="0.85"/>
</g>
<defs>
<clipPath id="clip0_2207_18320">
<rect width="35.5547" height="16.6523" fill="white" transform="translate(0.0126953 0.127441)"/>
</clipPath>
</defs>
</svg>
