<svg width="20" height="26" viewBox="0 0 20 26" fill="none" xmlns="http://www.w3.org/2000/svg">
<g clip-path="url(#clip0_2207_11977)">
<path d="M3.65051 25.3344C4.10754 25.3344 4.48254 24.9594 4.48254 24.5024C4.48254 24.0454 4.10754 23.6704 3.65051 23.6704C3.19348 23.6704 2.81848 24.0454 2.81848 24.5024C2.81848 24.9594 3.19348 25.3344 3.65051 25.3344ZM7.56458 25.3344C8.02161 25.3344 8.39661 24.9594 8.39661 24.5024C8.39661 24.0454 8.02161 23.6704 7.56458 23.6704C7.10754 23.6704 6.73254 24.0454 6.73254 24.5024C6.73254 24.9594 7.10754 25.3344 7.56458 25.3344ZM11.4669 25.3344C11.9239 25.3344 12.2989 24.9594 12.2989 24.5024C12.2989 24.0454 11.9239 23.6704 11.4669 23.6704C11.0099 23.6704 10.6349 24.0454 10.6349 24.5024C10.6349 24.9594 11.0099 25.3344 11.4669 25.3344Z" fill="black" fill-opacity="0.85"/>
<path d="M3.65051 21.8422C4.10754 21.8422 4.48254 21.4672 4.48254 21.0102C4.48254 20.5532 4.10754 20.1782 3.65051 20.1782C3.19348 20.1782 2.81848 20.5532 2.81848 21.0102C2.81848 21.4672 3.19348 21.8422 3.65051 21.8422ZM7.56458 21.8422C8.02161 21.8422 8.39661 21.4672 8.39661 21.0102C8.39661 20.5532 8.02161 20.1782 7.56458 20.1782C7.10754 20.1782 6.73254 20.5532 6.73254 21.0102C6.73254 21.4672 7.10754 21.8422 7.56458 21.8422ZM11.4669 21.8422C11.9239 21.8422 12.2989 21.4672 12.2989 21.0102C12.2989 20.5532 11.9239 20.1782 11.4669 20.1782C11.0099 20.1782 10.6349 20.5532 10.6349 21.0102C10.6349 21.4672 11.0099 21.8422 11.4669 21.8422Z" fill="black" fill-opacity="0.85"/>
<path d="M3.65051 18.3383C4.10754 18.3383 4.48254 17.9751 4.48254 17.5063C4.48254 17.0493 4.10754 16.6743 3.65051 16.6743C3.19348 16.6743 2.81848 17.0493 2.81848 17.5063C2.81848 17.9751 3.19348 18.3383 3.65051 18.3383ZM7.56458 18.3383C8.02161 18.3383 8.39661 17.9751 8.39661 17.5063C8.39661 17.0493 8.02161 16.6743 7.56458 16.6743C7.10754 16.6743 6.73254 17.0493 6.73254 17.5063C6.73254 17.9751 7.10754 18.3383 7.56458 18.3383ZM11.4669 18.3383C11.9239 18.3383 12.2989 17.9751 12.2989 17.5063C12.2989 17.0493 11.9239 16.6743 11.4669 16.6743C11.0099 16.6743 10.6349 17.0493 10.6349 17.5063C10.6349 17.9751 11.0099 18.3383 11.4669 18.3383Z" fill="black" fill-opacity="0.85"/>
<path d="M13.1075 0.127441H9.93176C7.93958 0.127441 6.69739 1.34619 6.69739 3.2915V5.354H8.46692V3.2915C8.46692 2.43603 9.0177 1.90869 9.93176 1.90869H13.1075C15.6388 1.90869 17.2677 3.6665 17.2677 6.38525V24.5727C17.2677 25.1001 17.631 25.4751 18.1466 25.4751C18.6622 25.4751 19.0372 25.1001 19.0372 24.5727V6.38525C19.0372 2.57666 16.7286 0.127441 13.1075 0.127441ZM0.0294189 14.4477C0.0294189 14.8696 0.380981 15.2094 0.802857 15.2094H14.3614C14.7833 15.2094 15.1232 14.8696 15.1232 14.4477C15.1232 14.0258 14.795 13.6743 14.3849 13.6743H14.3146C14.2208 11.1547 12.6153 8.9751 10.4005 7.94385V7.0415C10.4005 5.42432 9.22864 4.229 7.5763 4.229C5.92395 4.229 4.75208 5.42432 4.75208 7.0415V7.94385C2.53723 8.9751 0.931763 11.1547 0.838013 13.6743H0.779419C0.369263 13.6743 0.0294189 14.0258 0.0294189 14.4477Z" fill="black" fill-opacity="0.85"/>
</g>
<defs>
<clipPath id="clip0_2207_11977">
<rect width="19.0078" height="25.3711" fill="white" transform="translate(0.0294189 0.127441)"/>
</clipPath>
</defs>
</svg>
