<svg width="29" height="17" viewBox="0 0 29 17" fill="none" xmlns="http://www.w3.org/2000/svg">
<g clip-path="url(#clip0_2207_11963)">
<path d="M26.077 1.7915C26.534 1.7915 26.909 1.4165 26.909 0.959472C26.909 0.502441 26.534 0.127441 26.077 0.127441C25.6199 0.127441 25.2449 0.502441 25.2449 0.959472C25.2449 1.4165 25.6199 1.7915 26.077 1.7915ZM27.3426 8.98682C27.7996 8.98682 28.1746 8.61182 28.1746 8.15478C28.1746 7.69775 27.7996 7.32275 27.3426 7.32275C26.8856 7.32275 26.5106 7.69775 26.5106 8.15478C26.5106 8.61182 26.8856 8.98682 27.3426 8.98682ZM26.0887 16.1821C26.5457 16.1821 26.9207 15.8071 26.9207 15.3383C26.9207 14.8813 26.5457 14.5063 26.0887 14.5063C25.6317 14.5063 25.2567 14.8813 25.2567 15.3383C25.2567 15.8071 25.6317 16.1821 26.0887 16.1821Z" fill="black" fill-opacity="0.85"/>
<path d="M23.2409 3.27978C23.698 3.27978 24.073 2.90478 24.073 2.44775C24.073 1.979 23.698 1.61572 23.2409 1.61572C22.7839 1.61572 22.4089 1.979 22.4089 2.44775C22.4089 2.90478 22.7839 3.27978 23.2409 3.27978ZM23.8503 8.98682C24.3073 8.98682 24.6823 8.61182 24.6823 8.15478C24.6823 7.69775 24.3073 7.32275 23.8503 7.32275C23.3933 7.32275 23.0183 7.69775 23.0183 8.15478C23.0183 8.61182 23.3933 8.98682 23.8503 8.98682ZM23.2526 14.6938C23.7097 14.6938 24.0847 14.3188 24.0847 13.8618C24.0847 13.4047 23.7097 13.0297 23.2526 13.0297C22.7956 13.0297 22.4206 13.4047 22.4206 13.8618C22.4206 14.3188 22.7956 14.6938 23.2526 14.6938Z" fill="black" fill-opacity="0.85"/>
<path d="M20.3934 4.76806C20.8621 4.76806 21.2254 4.39306 21.2254 3.93603C21.2254 3.479 20.8621 3.104 20.3934 3.104C19.9363 3.104 19.5613 3.479 19.5613 3.93603C19.5613 4.39306 19.9363 4.76806 20.3934 4.76806ZM20.3465 8.98682C20.8152 8.98682 21.1785 8.61182 21.1785 8.15478C21.1785 7.69775 20.8152 7.32275 20.3465 7.32275C19.8895 7.32275 19.5145 7.69775 19.5145 8.15478C19.5145 8.61182 19.8895 8.98682 20.3465 8.98682ZM20.4051 13.2055C20.8738 13.2055 21.2371 12.8305 21.2371 12.3735C21.2371 11.9165 20.8738 11.5415 20.4051 11.5415C19.9481 11.5415 19.5731 11.9165 19.5731 12.3735C19.5731 12.8305 19.9481 13.2055 20.4051 13.2055Z" fill="black" fill-opacity="0.85"/>
<path d="M2.20581 13.1118C4.0105 13.1118 5.01831 11.9633 5.01831 9.92432V6.40869C5.01831 4.36963 4.0105 3.22119 2.20581 3.22119H1.12768C0.43628 3.22119 0.0378418 3.61963 0.0378418 4.31103V12.0219C0.0378418 12.7133 0.43628 13.1118 1.12768 13.1118H2.20581ZM13.0808 15.3618C14.1237 15.3618 14.7917 14.6938 14.7917 13.6508V2.68213C14.7917 1.63916 14.1237 0.971191 13.0808 0.971191H11.4284C8.39331 0.971191 6.49487 2.88135 6.49487 5.9165V10.4282C6.49487 13.4633 8.39331 15.3618 11.4284 15.3618H13.0808ZM7.52612 10.4751V5.74072H4.37378V10.4751H7.52612ZM15.8581 13.3344C17.2058 13.311 18.0612 12.3383 18.0612 10.7915V5.55322C18.0612 3.99463 17.2058 3.02197 15.8581 2.98682V13.3344Z" fill="black" fill-opacity="0.85"/>
</g>
<defs>
<clipPath id="clip0_2207_11963">
<rect width="28.1367" height="16.0898" fill="white" transform="translate(0.0378418 0.127441)"/>
</clipPath>
</defs>
</svg>
