<svg width="24" height="25" viewBox="0 0 24 25" fill="none" xmlns="http://www.w3.org/2000/svg">
<g clip-path="url(#clip0_2207_5323)">
<path d="M11.9972 24.0336C18.5363 24.0336 23.9503 18.6079 23.9503 12.0805C23.9503 5.5415 18.5246 0.127441 11.9855 0.127441C5.45813 0.127441 0.0440674 5.5415 0.0440674 12.0805C0.0440674 18.6079 5.46985 24.0336 11.9972 24.0336Z" fill="black" fill-opacity="0.85"/>
<path d="M4.53235 15.3149C4.53235 14.9165 4.87219 14.6001 5.30579 14.6001H6.75891C7.35657 14.6001 7.73157 14.4126 8.23548 13.8032L9.71204 12.0805L8.23548 10.3579C7.74329 9.76025 7.35657 9.56103 6.75891 9.56103H5.30579C4.87219 9.56103 4.53235 9.24463 4.53235 8.84619C4.53235 8.42432 4.84876 8.13135 5.30579 8.13135H6.73548C7.8136 8.13135 8.49329 8.43603 9.29016 9.36182L10.6613 10.9672L12.0324 9.36182C12.841 8.43603 13.5089 8.13135 14.5988 8.13135H15.7238V6.79541C15.7238 6.43213 15.9464 6.20947 16.3097 6.20947C16.4738 6.20947 16.6379 6.26806 16.755 6.36182L19.1574 8.34228C19.4386 8.58838 19.4269 9.01025 19.1457 9.24463L16.7668 11.1899C16.673 11.3071 16.4855 11.3657 16.3097 11.3657C15.9582 11.3657 15.7238 11.1313 15.7238 10.768V9.56103H14.6457C13.9777 9.56103 13.6027 9.76025 13.0988 10.3579L11.6222 12.0805L13.0988 13.8032C13.6027 14.4008 13.9777 14.6001 14.6457 14.6001H15.7238V13.4282C15.7238 13.0649 15.9582 12.8305 16.3097 12.8305C16.4855 12.8305 16.673 12.8891 16.7668 13.0063L19.1574 14.9751C19.4386 15.2094 19.4386 15.6196 19.1457 15.8657L16.755 17.8344C16.6379 17.9282 16.4738 17.9868 16.3097 17.9868C15.9464 17.9868 15.7238 17.7641 15.7238 17.4008V16.0297H14.5988C13.5089 16.0297 12.841 15.7251 12.0324 14.7993L10.6613 13.1938L9.29016 14.7993C8.49329 15.7251 7.8136 16.0297 6.73548 16.0297H5.30579C4.84876 16.0297 4.53235 15.7251 4.53235 15.3149Z" fill="white"/>
</g>
<defs>
<clipPath id="clip0_2207_5323">
<rect width="23.9062" height="23.918" fill="white" transform="translate(0.0440674 0.127441)"/>
</clipPath>
</defs>
</svg>
