<svg width="27" height="22" viewBox="0 0 27 22" fill="none" xmlns="http://www.w3.org/2000/svg">
<g clip-path="url(#clip0_2207_5314)">
<path d="M0.039917 16.768C0.039917 17.354 0.473511 17.7407 1.11804 17.7407H3.78992C5.73523 17.7407 6.84851 17.1899 8.26648 15.5493L15.368 7.26416C16.3758 6.09228 17.2196 5.65869 18.5087 5.65869H20.8993V8.30713C20.8993 8.77588 21.1688 9.04541 21.6493 9.04541C21.8719 9.04541 22.0829 8.96338 22.2587 8.82275L26.6883 5.15478C27.0633 4.8501 27.0633 4.36963 26.6883 4.0415L22.2587 0.361816C22.0829 0.221191 21.8719 0.150879 21.6493 0.150879C21.1688 0.150879 20.8993 0.408691 20.8993 0.877441V3.70166H18.4501C16.493 3.70166 15.368 4.25244 13.9618 5.89306L6.87195 14.1782C5.85242 15.3618 5.04383 15.7954 3.84851 15.7954H1.11804C0.485229 15.7954 0.039917 16.1821 0.039917 16.768ZM0.039917 4.68603C0.039917 5.26025 0.485229 5.65869 1.11804 5.65869H3.84851C5.05554 5.65869 5.86414 6.09228 6.87195 7.27588L13.9618 15.561C15.368 17.1899 16.493 17.7407 18.4501 17.7407H20.8993V20.6469C20.8993 21.1157 21.1688 21.3735 21.6493 21.3735C21.8719 21.3735 22.0829 21.3032 22.2587 21.1626L26.6883 17.4946C27.0633 17.1782 27.0633 16.7094 26.6883 16.3813L22.2587 12.7016C22.0829 12.561 21.8719 12.479 21.6493 12.479C21.1688 12.479 20.8993 12.7485 20.8993 13.2172V15.7954H18.5087C17.2196 15.7954 16.3758 15.3618 15.368 14.1782L8.26648 5.89306C6.84851 4.26416 5.73523 3.71338 3.78992 3.71338H1.11804C0.473511 3.71338 0.039917 4.1001 0.039917 4.68603Z" fill="black" fill-opacity="0.85"/>
</g>
<defs>
<clipPath id="clip0_2207_5314">
<rect width="26.9297" height="21.2461" fill="white" transform="translate(0.039917 0.127441)"/>
</clipPath>
</defs>
</svg>
