<svg width="28" height="22" viewBox="0 0 28 22" fill="none" xmlns="http://www.w3.org/2000/svg">
<g clip-path="url(#clip0_2207_19444)">
<path d="M3.73633 21.7251H24.0097C26.4707 21.7251 27.6894 20.5063 27.6894 18.0922V3.78369C27.6894 1.36963 26.4707 0.150879 24.0097 0.150879H3.73633C1.28711 0.150879 0.0566406 1.35791 0.0566406 3.78369V18.0922C0.0566406 20.518 1.28711 21.7251 3.73633 21.7251ZM3.75976 19.8383C2.58789 19.8383 1.94336 19.2172 1.94336 17.9985V3.87744C1.94336 2.65869 2.58789 2.0376 3.75976 2.0376H23.9863C25.1464 2.0376 25.8027 2.65869 25.8027 3.87744V17.9985C25.8027 19.2172 25.1464 19.8383 23.9863 19.8383H3.75976ZM16.955 20.2016H18.7949V1.68603H16.955V20.2016ZM23.4121 7.63916C23.7285 7.63916 23.9511 7.42822 23.9511 7.11182V4.92041C23.9511 4.59228 23.7402 4.38135 23.4121 4.38135H21.1972C20.8925 4.38135 20.6699 4.59228 20.6699 4.92041V7.11182C20.6699 7.42822 20.9043 7.63916 21.1972 7.63916H23.4121ZM23.4121 12.561C23.7285 12.561 23.9511 12.3266 23.9511 12.0336V9.81885C23.9511 9.51416 23.7402 9.27978 23.4121 9.27978H21.1972C20.8925 9.27978 20.6699 9.51416 20.6699 9.81885V12.0336C20.6699 12.3266 20.9043 12.561 21.1972 12.561H23.4121ZM23.4121 17.4594C23.7285 17.4594 23.9511 17.2485 23.9511 16.9321V14.7407C23.9511 14.4243 23.7402 14.2016 23.4121 14.2016H21.1972C20.8925 14.2016 20.6699 14.4243 20.6699 14.7407V16.9321C20.6699 17.2485 20.9043 17.4594 21.1972 17.4594H23.4121Z" fill="black" fill-opacity="0.85"/>
</g>
<defs>
<clipPath id="clip0_2207_19444">
<rect width="27.6328" height="21.5977" fill="white" transform="translate(0.0566406 0.127441)"/>
</clipPath>
</defs>
</svg>
