<svg width="28" height="22" viewBox="0 0 28 22" fill="none" xmlns="http://www.w3.org/2000/svg">
<g clip-path="url(#clip0_2207_19436)">
<path d="M3.74073 21.7251H24.0141C26.4751 21.7251 27.6938 20.5063 27.6938 18.0922V3.78369C27.6938 1.36963 26.4751 0.150879 24.0141 0.150879H3.74073C1.29151 0.150879 0.0610352 1.35791 0.0610352 3.78369V18.0922C0.0610352 20.518 1.29151 21.7251 3.74073 21.7251ZM3.76416 19.8383C2.59229 19.8383 1.94776 19.2172 1.94776 17.9985V3.87744C1.94776 2.65869 2.59229 2.0376 3.76416 2.0376H23.9907C25.1508 2.0376 25.8071 2.65869 25.8071 3.87744V17.9985C25.8071 19.2172 25.1508 19.8383 23.9907 19.8383H3.76416ZM16.9594 20.2016H18.7993V1.68603H16.9594V20.2016ZM21.0493 6.38525H23.5571C23.9204 6.38525 24.2251 6.06885 24.2251 5.729C24.2251 5.37744 23.9204 5.07275 23.5571 5.07275H21.0493C20.6977 5.07275 20.3813 5.37744 20.3813 5.729C20.3813 6.06885 20.6977 6.38525 21.0493 6.38525ZM21.0493 9.42041H23.5571C23.9204 9.42041 24.2251 9.104 24.2251 8.75244C24.2251 8.40088 23.9204 8.10791 23.5571 8.10791H21.0493C20.6977 8.10791 20.3813 8.40088 20.3813 8.75244C20.3813 9.104 20.6977 9.42041 21.0493 9.42041ZM21.0493 12.4438H23.5571C23.9204 12.4438 24.2251 12.1508 24.2251 11.7993C24.2251 11.4477 23.9204 11.143 23.5571 11.143H21.0493C20.6977 11.143 20.3813 11.4477 20.3813 11.7993C20.3813 12.1508 20.6977 12.4438 21.0493 12.4438Z" fill="black" fill-opacity="0.85"/>
</g>
<defs>
<clipPath id="clip0_2207_19436">
<rect width="27.6328" height="21.5977" fill="white" transform="translate(0.0610352 0.127441)"/>
</clipPath>
</defs>
</svg>
