<svg width="24" height="25" viewBox="0 0 24 25" fill="none" xmlns="http://www.w3.org/2000/svg">
<g clip-path="url(#clip0_2207_12466)">
<path d="M12.0307 24.0454C18.5698 24.0454 23.9838 18.6313 23.9838 12.0922C23.9838 5.56494 18.5581 0.13916 12.019 0.13916C5.4917 0.13916 0.0776367 5.56494 0.0776367 12.0922C0.0776367 18.6313 5.50342 24.0454 12.0307 24.0454Z" fill="black" fill-opacity="0.85"/>
<path d="M16.3433 13.4047H12.7222V17.3071H14.3746C14.7496 17.3071 15.0543 17.6118 15.0543 17.9868C15.0543 18.3501 14.7496 18.6547 14.3746 18.6547H9.71049C9.34721 18.6547 9.04252 18.3501 9.04252 17.9868C9.04252 17.6118 9.34721 17.3071 9.71049 17.3071H11.3746V13.4047H8.45659C7.91752 13.4047 7.65971 13.2407 7.36674 12.9477L5.74956 11.4126C5.10502 10.7915 5.06987 10.1704 5.76127 9.53761L7.36674 8.01417C7.65971 7.70948 7.91752 7.55714 8.45659 7.55714H11.3746V6.20948C11.3746 5.82276 11.6793 5.51807 12.0425 5.51807C12.4293 5.51807 12.7222 5.82276 12.7222 6.20948V7.55714H16.3433C17.1754 7.55714 17.6324 7.99073 17.6324 8.78761V12.1626C17.6324 12.9594 17.1754 13.4047 16.3433 13.4047Z" fill="white"/>
</g>
<defs>
<clipPath id="clip0_2207_12466">
<rect width="23.9062" height="23.918" fill="white" transform="translate(0.0776367 0.127441)"/>
</clipPath>
</defs>
</svg>
