<svg width="22" height="25" viewBox="0 0 22 25" fill="none" xmlns="http://www.w3.org/2000/svg">
<g clip-path="url(#clip0_2207_12507)">
<path d="M9.68628 4.31103H11.573V1.07666C11.573 0.561035 11.1511 0.127441 10.6355 0.127441C10.1199 0.127441 9.68628 0.561035 9.68628 1.07666V4.31103ZM0.0651855 12.6196C0.0651855 14.1899 0.955811 15.0688 2.54957 15.0688H18.7214C20.3152 15.0688 21.2058 14.1899 21.2058 12.6196V5.38916C21.2058 3.81885 20.3152 2.95166 18.7214 2.95166H2.54957C0.955811 2.95166 0.0651855 3.81885 0.0651855 5.38916V12.6196ZM2.59644 4.83838H18.6746C19.0379 4.83838 19.2722 5.07275 19.2722 5.44775V12.561C19.2722 12.936 19.0379 13.1821 18.6746 13.1821H2.59644C2.23316 13.1821 1.99878 12.936 1.99878 12.561V5.44775C1.99878 5.07275 2.23316 4.83838 2.59644 4.83838ZM9.68628 14.4008V24.7368H11.573V14.4008H9.68628ZM5.17457 23.8579C5.17457 24.3735 5.60816 24.7954 6.12378 24.7954H15.1472C15.6746 24.7954 16.0964 24.3735 16.0964 23.8579C16.0964 23.3422 15.6746 22.9086 15.1472 22.9086H6.12378C5.60816 22.9086 5.17457 23.3422 5.17457 23.8579Z" fill="black" fill-opacity="0.85"/>
<path d="M7.905 11.5532H13.3894C14.2097 11.5532 14.4441 10.9672 13.9871 10.3227L11.3152 6.50244C10.9285 5.96338 10.3543 5.96338 9.97922 6.50244L7.30735 10.311C6.82688 10.979 7.04954 11.5532 7.905 11.5532Z" fill="black" fill-opacity="0.85"/>
</g>
<defs>
<clipPath id="clip0_2207_12507">
<rect width="21.1406" height="24.6914" fill="white" transform="translate(0.0651855 0.127441)"/>
</clipPath>
</defs>
</svg>
