<svg width="25" height="25" viewBox="0 0 25 25" fill="none" xmlns="http://www.w3.org/2000/svg">
<g clip-path="url(#clip0_2207_12475)">
<path d="M9.9873 5.13135H11.874V1.07666C11.874 0.561035 11.4405 0.127441 10.9248 0.127441C10.4092 0.127441 9.9873 0.561035 9.9873 1.07666V5.13135ZM2.58106 15.0688L17.874 15.0571C18.9405 15.0571 19.4209 14.7407 20.0186 14.1665L23.1475 11.1782C24.4131 9.97119 24.4483 8.7876 23.1358 7.52197L20.0186 4.55713C19.4209 3.97119 18.9405 3.65478 17.8858 3.65478H2.58106C0.987305 3.65478 0.0966797 4.52197 0.0966797 6.09228V12.6196C0.0966797 14.1899 0.987305 15.0688 2.58106 15.0688ZM9.9873 14.4008V24.7368H11.874V14.4008H9.9873ZM5.47559 23.8579C5.47559 24.3735 5.90918 24.7954 6.4248 24.7954H15.4483C15.9639 24.7954 16.3975 24.3735 16.3975 23.8579C16.3975 23.3422 15.9639 22.9086 15.4483 22.9086H6.4248C5.90918 22.9086 5.47559 23.3422 5.47559 23.8579Z" fill="black" fill-opacity="0.85"/>
</g>
<defs>
<clipPath id="clip0_2207_12475">
<rect width="24.0117" height="24.6914" fill="white" transform="translate(0.0966797 0.127441)"/>
</clipPath>
</defs>
</svg>
