<svg width="24" height="25" viewBox="0 0 24 25" fill="none" xmlns="http://www.w3.org/2000/svg">
<g clip-path="url(#clip0_2207_12522)">
<path d="M12.0224 24.0454C18.5615 24.0454 23.9755 18.6313 23.9755 12.0922C23.9755 5.56494 18.5498 0.13916 12.0107 0.13916C5.4834 0.13916 0.0693359 5.56494 0.0693359 12.0922C0.0693359 18.6313 5.49512 24.0454 12.0224 24.0454Z" fill="black" fill-opacity="0.85"/>
<path d="M5.97559 12.1743V8.04932C5.97559 7.14697 6.4795 6.65478 7.38184 6.65478H11.3427V5.55322C11.3427 5.18994 11.6474 4.88525 12.0107 4.88525C12.374 4.88525 12.6904 5.18994 12.6904 5.55322V6.65478H16.6396C17.542 6.65478 18.0576 7.14697 18.0576 8.04932V12.1743C18.0576 13.0532 17.542 13.5571 16.6396 13.5571H12.6904V17.9516H14.6005C14.9638 17.9516 15.2802 18.268 15.2802 18.6313C15.2802 18.9946 14.9638 19.2993 14.6005 19.2993H9.4209C9.05762 19.2993 8.74122 18.9946 8.74122 18.6313C8.74122 18.268 9.05762 17.9516 9.4209 17.9516H11.3427V13.5571H7.38184C6.4795 13.5571 5.97559 13.0532 5.97559 12.1743ZM10.042 10.8852C9.77246 11.2719 9.90137 11.6001 10.4052 11.6001H13.6513C14.1201 11.6001 14.2607 11.2719 13.9912 10.8852L12.4091 8.62353C12.1982 8.31885 11.8466 8.31885 11.6357 8.62353L10.042 10.8852Z" fill="white"/>
</g>
<defs>
<clipPath id="clip0_2207_12522">
<rect width="23.9062" height="23.918" fill="white" transform="translate(0.0693359 0.127441)"/>
</clipPath>
</defs>
</svg>
