<svg width="22" height="25" viewBox="0 0 22 25" fill="none" xmlns="http://www.w3.org/2000/svg">
<g clip-path="url(#clip0_2207_12512)">
<path d="M9.69238 4.31103H11.5791V1.07666C11.5791 0.561035 11.1572 0.127441 10.6416 0.127441C10.126 0.127441 9.69238 0.561035 9.69238 1.07666V4.31103ZM0.0712891 12.6196C0.0712891 14.1899 0.961914 15.0688 2.55567 15.0688H18.7275C20.3213 15.0688 21.2119 14.1899 21.2119 12.6196V5.38916C21.2119 3.81885 20.3213 2.95166 18.7275 2.95166H2.55567C0.961914 2.95166 0.0712891 3.81885 0.0712891 5.38916V12.6196ZM9.69238 14.4008V24.7368H11.5791V14.4008H9.69238ZM5.18067 23.8579C5.18067 24.3735 5.61426 24.7954 6.12988 24.7954H15.1533C15.6807 24.7954 16.1025 24.3735 16.1025 23.8579C16.1025 23.3422 15.6807 22.9086 15.1533 22.9086H6.12988C5.61426 22.9086 5.18067 23.3422 5.18067 23.8579Z" fill="black" fill-opacity="0.85"/>
<path d="M7.82918 11.6469C6.93856 11.6469 6.70418 11.0493 7.20809 10.3579L9.96199 6.43213C10.3487 5.86963 10.9464 5.86963 11.3448 6.43213L14.0987 10.3696C14.5792 11.0493 14.3331 11.6469 13.4776 11.6469H7.82918Z" fill="white"/>
</g>
<defs>
<clipPath id="clip0_2207_12512">
<rect width="21.1406" height="24.6914" fill="white" transform="translate(0.0712891 0.127441)"/>
</clipPath>
</defs>
</svg>
