<svg width="26" height="26" viewBox="0 0 26 26" fill="none" xmlns="http://www.w3.org/2000/svg">
<g clip-path="url(#clip0_2207_3199)">
<path d="M1.76831 24.2153C4.10034 26.5474 7.68628 26.5708 10.0066 24.2622L24.1043 10.1645C26.448 7.82081 26.448 4.21143 24.1043 1.8794C21.7722 -0.452634 18.1628 -0.452634 15.8308 1.86768L1.76831 15.9419C-0.575439 18.2739 -0.575439 21.8833 1.76831 24.2153ZM3.10425 22.8794C1.53394 21.3091 1.53394 18.8481 3.10425 17.2661L17.1667 3.20362C18.7371 1.63331 21.2097 1.64503 22.7683 3.21534C24.3386 4.78565 24.3386 7.24659 22.7683 8.82862L8.67066 22.9145C7.12378 24.4731 4.66284 24.4497 3.10425 22.8794ZM11.8582 4.00049L12.198 4.32862C12.6199 4.76221 13.2644 4.76221 13.698 4.32862L15.6433 2.39503C16.0886 1.96143 16.0886 1.3169 15.6433 0.883304L15.3035 0.543461C14.8816 0.121585 14.2371 0.121585 13.8035 0.555179L11.8582 2.48878C11.4246 2.92237 11.4246 3.5669 11.8582 4.00049ZM21.6433 13.7856L21.9714 14.1138C22.4167 14.5356 23.0496 14.5356 23.4832 14.1138L25.4285 12.1685C25.8621 11.7466 25.8621 11.102 25.4285 10.6685L25.1003 10.3286C24.6667 9.90674 24.0222 9.90674 23.6003 10.3286L21.6433 12.2739C21.2097 12.7075 21.2097 13.352 21.6433 13.7856ZM0.549561 15.3091L0.889405 15.6489C1.323 16.0708 1.95581 16.0708 2.38941 15.6489L4.33472 13.7036C4.75659 13.27 4.75659 12.6372 4.33472 12.1919L3.99488 11.8755C3.56128 11.4302 2.91675 11.4302 2.49488 11.8755L0.549561 13.7974C0.115968 14.231 0.115968 14.8872 0.549561 15.3091ZM10.323 25.106L10.6628 25.4341C11.0964 25.8677 11.741 25.8677 12.1628 25.4458L14.1082 23.5005C14.5417 23.0552 14.5417 22.4224 14.1082 21.9888L13.78 21.6489C13.3464 21.2153 12.7019 21.2153 12.2683 21.6489L10.323 23.5942C9.90112 24.0278 9.90112 24.6841 10.323 25.106ZM18.0339 5.89893C18.3621 6.23878 18.9128 6.23878 19.241 5.89893C19.5808 5.57081 19.5808 5.03174 19.241 4.70362C18.9128 4.36378 18.3621 4.36378 18.0339 4.70362C17.7058 5.03174 17.7058 5.57081 18.0339 5.89893ZM20.073 7.93799C20.4011 8.27784 20.9402 8.27784 21.28 7.93799C21.6082 7.60987 21.6082 7.05909 21.28 6.73096C20.9402 6.40284 20.4011 6.40284 20.073 6.73096C19.7449 7.05909 19.7449 7.60987 20.073 7.93799ZM16.0066 7.93799C16.3464 8.26612 16.8855 8.26612 17.2136 7.93799C17.5417 7.60987 17.5417 7.05909 17.2136 6.71924C16.8855 6.39112 16.3464 6.39112 16.0183 6.71924C15.6785 7.05909 15.6785 7.60987 16.0066 7.93799ZM18.0339 9.96534C18.3738 10.2935 18.9246 10.2935 19.2527 9.96534C19.5808 9.63721 19.5808 9.08643 19.2527 8.75831C18.9246 8.41846 18.3738 8.41846 18.0339 8.75831C17.7058 9.08643 17.7058 9.63721 18.0339 9.96534ZM6.72534 17.2192C7.05347 17.5591 7.59253 17.5591 7.92066 17.2192C8.2605 16.8911 8.2605 16.3403 7.92066 16.0122C7.59253 15.6841 7.05347 15.6841 6.72534 16.0122C6.39722 16.3403 6.39722 16.8911 6.72534 17.2192ZM8.75269 19.2583C9.08081 19.5864 9.63159 19.5864 9.95972 19.2583C10.2996 18.9185 10.2996 18.3794 9.95972 18.0395C9.63159 17.7114 9.08081 17.7114 8.75269 18.0395C8.42456 18.3794 8.42456 18.9185 8.75269 19.2583ZM4.68628 19.2466C5.01441 19.5747 5.56519 19.5747 5.90503 19.2466C6.23316 18.9185 6.23316 18.3794 5.90503 18.0395C5.56519 17.6997 5.02612 17.6997 4.68628 18.0395C4.35816 18.3794 4.35816 18.9185 4.68628 19.2466ZM6.72534 21.2856C7.05347 21.6138 7.60425 21.6138 7.93238 21.2856C8.2605 20.9575 8.2605 20.4067 7.93238 20.0786C7.60425 19.7388 7.05347 19.7388 6.72534 20.0786C6.39722 20.4067 6.39722 20.9575 6.72534 21.2856Z" fill="black" fill-opacity="0.85"/>
</g>
<defs>
<clipPath id="clip0_2207_3199">
<rect width="25.8516" height="25.8721" fill="white" transform="translate(0.010498 0.128906)"/>
</clipPath>
</defs>
</svg>
