<svg width="24" height="25" viewBox="0 0 24 25" fill="none" xmlns="http://www.w3.org/2000/svg">
<g clip-path="url(#clip0_2207_3357)">
<path d="M11.9825 24.0469C18.5216 24.0469 23.9356 18.6328 23.9356 12.0937C23.9356 5.56641 18.5099 0.140625 11.9708 0.140625C5.44348 0.140625 0.0294189 5.56641 0.0294189 12.0937C0.0294189 18.6328 5.4552 24.0469 11.9825 24.0469Z" fill="black" fill-opacity="0.85"/>
<path d="M4.52942 12.0937C4.52942 8.01563 7.91614 4.62891 11.9825 4.62891C16.0724 4.62891 19.4591 8.01563 19.4591 12.0937C19.4591 16.1836 16.0841 19.5586 11.9942 19.5586C7.91614 19.5586 4.52942 16.1836 4.52942 12.0937ZM6.28723 12.0937C6.28723 12.7734 6.40442 13.4297 6.62708 14.0273H17.3732C17.5958 13.4297 17.713 12.7734 17.713 12.0937C17.7013 8.90625 15.1583 6.375 11.9825 6.375C8.80676 6.375 6.28723 8.90625 6.28723 12.0937ZM7.5177 15.6328C8.54895 16.957 10.1661 17.8125 11.9942 17.8125C13.8224 17.8125 15.4513 16.957 16.4942 15.6328H7.5177Z" fill="white"/>
</g>
<defs>
<clipPath id="clip0_2207_3357">
<rect width="23.9062" height="23.918" fill="white" transform="translate(0.0294189 0.128906)"/>
</clipPath>
</defs>
</svg>
