<svg width="23" height="23" viewBox="0 0 23 23" fill="none" xmlns="http://www.w3.org/2000/svg">
<g clip-path="url(#clip0_2207_19854)">
<path d="M15.6886 22.1836C17.2355 22.1836 18.5011 20.918 18.5011 19.3711C18.5011 17.8125 17.2355 16.5469 15.6886 16.5469C14.13 16.5469 12.8644 17.8125 12.8644 19.3711C12.8644 20.918 14.13 22.1836 15.6886 22.1836ZM15.6886 20.7422C14.9152 20.7422 14.3175 20.1328 14.3175 19.3594C14.3175 18.5859 14.9152 17.9883 15.6886 17.9883C16.4621 17.9883 17.0597 18.5859 17.0597 19.3594C17.0597 20.1328 16.4621 20.7422 15.6886 20.7422ZM13.8253 18.4219H0.981567C0.454223 18.4219 0.0440674 18.8437 0.0440674 19.3711C0.0440674 19.8984 0.454223 20.3086 0.981567 20.3086H13.8253V18.4219ZM21.5011 18.4219H17.716V20.3086H21.5011C21.9816 20.3086 22.4035 19.8984 22.4035 19.3711C22.4035 18.8437 21.9816 18.4219 21.5011 18.4219Z" fill="black" fill-opacity="0.85"/>
<path d="M3.52454 14.9062H18.9113C21.1964 14.9062 22.4035 13.7461 22.4035 11.4727V3.5625C22.4035 1.28907 21.1964 0.128906 18.9113 0.128906H3.52454C1.36829 0.128906 0.0440674 1.28907 0.0440674 3.5625V11.4727C0.0440674 13.7461 1.2511 14.9062 3.52454 14.9062ZM3.5011 13.1367C2.46985 13.1367 1.93079 12.5977 1.93079 11.5664V3.46875C1.93079 2.4375 2.46985 1.89844 3.5011 1.89844H18.9347C19.9777 1.89844 20.5168 2.4375 20.5168 3.46875V11.5664C20.5168 12.5977 19.9777 13.1367 18.9347 13.1367H3.5011Z" fill="black" fill-opacity="0.85"/>
</g>
<defs>
<clipPath id="clip0_2207_19854">
<rect width="22.3594" height="22.3008" fill="white" transform="translate(0.0440674 0.128906)"/>
</clipPath>
</defs>
</svg>
