<svg width="29" height="22" viewBox="0 0 29 22" fill="none" xmlns="http://www.w3.org/2000/svg">
<g clip-path="url(#clip0_2207_19859)">
<path d="M18.0601 13.9453H25.7711C27.5992 13.9453 28.6422 12.9141 28.6422 11.1328V3.39844C28.6422 1.60547 27.5992 0.574219 25.7711 0.574219H18.0601C16.2437 0.574219 15.2007 1.60547 15.2007 3.39844V11.1328C15.2007 12.9141 16.2437 13.9453 18.0601 13.9453ZM18.0836 12.0937C17.3922 12.0937 17.0523 11.7539 17.0523 11.0508V3.46875C17.0523 2.76563 17.3922 2.42579 18.0836 2.42579H25.7476C26.4625 2.42579 26.7906 2.76563 26.7906 3.46875V11.0508C26.7906 11.7539 26.4625 12.0937 25.7476 12.0937H18.0836Z" fill="black" fill-opacity="0.85"/>
<path d="M2.82568 13.793H10.3842C12.1538 13.793 13.185 12.7851 13.185 11.0391V3.48047C13.185 1.73438 12.1538 0.726562 10.3842 0.726562H2.82568C1.06787 0.726562 0.0483398 1.72266 0.0483398 3.48047V11.0391C0.0483398 12.7969 1.06787 13.793 2.82568 13.793ZM0.938965 18.1758C0.458496 18.1758 0.0483398 18.5977 0.0483398 19.125C0.0483398 19.6523 0.458496 20.0625 0.938965 20.0625H4.72412V18.1758H0.938965ZM6.76318 21.9375C8.31006 21.9375 9.57568 20.6719 9.57568 19.125C9.57568 17.5664 8.31006 16.3008 6.76318 16.3008C5.21631 16.3008 3.95068 17.5664 3.95068 19.125C3.95068 20.6719 5.21631 21.9375 6.76318 21.9375ZM6.76318 20.4961C5.98975 20.4961 5.39209 19.8867 5.39209 19.1133C5.39209 18.3398 5.98975 17.7422 6.76318 17.7422C7.5249 17.7422 8.13428 18.3398 8.13428 19.1133C8.13428 19.8867 7.5249 20.4961 6.76318 20.4961ZM8.62646 18.1758V20.0625H27.6928C28.2202 20.0625 28.6421 19.6523 28.6421 19.125C28.6421 18.5977 28.2202 18.1758 27.6928 18.1758H8.62646Z" fill="black" fill-opacity="0.85"/>
</g>
<defs>
<clipPath id="clip0_2207_19859">
<rect width="28.5938" height="21.8086" fill="white" transform="translate(0.0483398 0.128906)"/>
</clipPath>
</defs>
</svg>
