<svg width="29" height="22" viewBox="0 0 29 22" fill="none" xmlns="http://www.w3.org/2000/svg">
<g clip-path="url(#clip0_2207_19864)">
<path d="M10.6281 13.9453C12.4445 13.9453 13.4875 12.9141 13.4875 11.1328V3.39844C13.4875 1.60547 12.4445 0.574219 10.6281 0.574219H2.90552C1.08911 0.574219 0.0461426 1.60547 0.0461426 3.39844V11.1328C0.0461426 12.9141 1.08911 13.9453 2.90552 13.9453H10.6281ZM10.6047 12.0937H2.92895C2.22583 12.0937 1.8977 11.7539 1.8977 11.0508V3.46875C1.8977 2.76563 2.22583 2.42579 2.92895 2.42579H10.6047C11.2961 2.42579 11.6359 2.76563 11.6359 3.46875V11.0508C11.6359 11.7539 11.2961 12.0937 10.6047 12.0937Z" fill="black" fill-opacity="0.85"/>
<path d="M25.8508 13.793C27.6203 13.793 28.6399 12.7969 28.6399 11.0391V3.48047C28.6399 1.72266 27.6203 0.726562 25.8508 0.726562H18.3039C16.5344 0.726562 15.5031 1.73438 15.5031 3.48047V11.0391C15.5031 12.7851 16.5344 13.793 18.3039 13.793H25.8508ZM0.936768 18.1758C0.456299 18.1758 0.0461426 18.5977 0.0461426 19.125C0.0461426 19.6523 0.456299 20.0625 0.936768 20.0625H4.72192V18.1758H0.936768ZM6.76098 21.9375C8.30786 21.9375 9.57348 20.6719 9.57348 19.125C9.57348 17.5664 8.30786 16.3008 6.76098 16.3008C5.21411 16.3008 3.94848 17.5664 3.94848 19.125C3.94848 20.6719 5.21411 21.9375 6.76098 21.9375ZM6.76098 20.4961C5.98755 20.4961 5.38989 19.8867 5.38989 19.1133C5.38989 18.3398 5.98755 17.7422 6.76098 17.7422C7.5227 17.7422 8.13208 18.3398 8.13208 19.1133C8.13208 19.8867 7.5227 20.4961 6.76098 20.4961ZM8.62426 18.1758V20.0625H27.6906C28.218 20.0625 28.6399 19.6523 28.6399 19.125C28.6399 18.5977 28.218 18.1758 27.6906 18.1758H8.62426Z" fill="black" fill-opacity="0.85"/>
</g>
<defs>
<clipPath id="clip0_2207_19864">
<rect width="28.5938" height="21.8086" fill="white" transform="translate(0.0461426 0.128906)"/>
</clipPath>
</defs>
</svg>
