<svg width="24" height="21" viewBox="0 0 24 21" fill="none" xmlns="http://www.w3.org/2000/svg">
<g clip-path="url(#clip0_2207_19825)">
<path d="M16.0498 20.1094C17.5967 20.1094 18.8623 18.8437 18.8623 17.2969C18.8623 15.75 17.5967 14.4844 16.0498 14.4844C14.5029 14.4844 13.2256 15.75 13.2256 17.2969C13.2256 18.8437 14.5029 20.1094 16.0498 20.1094ZM16.0498 18.668C15.2764 18.668 14.6787 18.0586 14.6787 17.2969C14.6787 16.5117 15.2764 15.9258 16.0498 15.9258C16.8232 15.9258 17.4209 16.5117 17.4209 17.2969C17.4209 18.0586 16.8232 18.668 16.0498 18.668ZM14.1865 16.3477H0.979492C0.452148 16.3477 0.0419922 16.7695 0.0419922 17.2969C0.0419922 17.8242 0.452148 18.2344 0.979492 18.2344H14.1865V16.3477ZM22.7529 16.3477H18.0889V18.2344H22.7529C23.2334 18.2344 23.6553 17.8242 23.6553 17.2969C23.6553 16.7695 23.2334 16.3477 22.7529 16.3477ZM7.77637 12.9609C9.32324 12.9609 10.5889 11.6836 10.5889 10.1367C10.5889 8.58985 9.32324 7.32422 7.77637 7.32422C6.22949 7.32422 4.96387 8.58985 4.96387 10.1367C4.96387 11.6836 6.22949 12.9609 7.77637 12.9609ZM7.77637 11.5078C7.01465 11.5078 6.40527 10.8984 6.40527 10.1367C6.40527 9.36329 7.01465 8.76563 7.77637 8.76563C8.5498 8.76563 9.14746 9.36329 9.14746 10.1367C9.14746 10.8984 8.5498 11.5078 7.77637 11.5078ZM0.932617 9.1875C0.452148 9.1875 0.0419922 9.60938 0.0419922 10.1367C0.0419922 10.6641 0.452148 11.0742 0.932617 11.0742H5.76074V9.1875H0.932617ZM22.7061 9.1875H9.63965V11.0742H22.7061C23.2334 11.0742 23.6553 10.6641 23.6553 10.1367C23.6553 9.60938 23.2334 9.1875 22.7061 9.1875ZM16.0498 5.78907C17.5967 5.78907 18.8623 4.52344 18.8623 2.97657C18.8623 1.42969 17.5967 0.152344 16.0498 0.152344C14.5029 0.152344 13.2256 1.42969 13.2256 2.97657C13.2256 4.52344 14.5029 5.78907 16.0498 5.78907ZM16.0498 4.34766C15.2764 4.34766 14.6787 3.73829 14.6787 2.96485C14.6787 2.19141 15.2764 1.59375 16.0498 1.59375C16.8232 1.59375 17.4209 2.19141 17.4209 2.96485C17.4209 3.73829 16.8232 4.34766 16.0498 4.34766ZM14.2451 2.03907H0.979492C0.452148 2.03907 0.0419922 2.44922 0.0419922 2.97657C0.0419922 3.50391 0.452148 3.92579 0.979492 3.92579H14.2451V2.03907ZM22.7529 2.03907H17.9248V3.92579H22.7529C23.2334 3.92579 23.6553 3.50391 23.6553 2.97657C23.6553 2.44922 23.2334 2.03907 22.7529 2.03907Z" fill="black" fill-opacity="0.85"/>
</g>
<defs>
<clipPath id="clip0_2207_19825">
<rect width="23.6133" height="19.9805" fill="white" transform="translate(0.0419922 0.128906)"/>
</clipPath>
</defs>
</svg>
