<svg width="29" height="21" viewBox="0 0 29 21" fill="none" xmlns="http://www.w3.org/2000/svg">
<g id="smoke" clip-path="url(#clip0_2124_12716)">
<g id="Group">
<path id="Vector" d="M19.3711 14.8594C22.043 14.8594 23.9883 12.9727 23.9883 10.3828C23.9883 8.05078 22.2188 6.1875 19.875 5.92969C19.4297 3.76172 17.543 2.15625 15.2695 2.14453C14.8125 2.14453 14.3438 2.22656 13.9336 2.32031C12.8555 0.878906 11.1914 0.0117188 9.36328 0.0117188C6.46875 0.0117188 4.06641 2.25 3.77344 5.12109C1.55859 5.70703 0 7.64062 0 9.9375C0 12.7031 2.08594 14.8594 5.23828 14.8594H19.3711ZM19.3711 13.0898H5.23828C3.17578 13.0898 1.76953 11.8242 1.76953 9.9375C1.76953 8.35547 2.95312 6.99609 4.5 6.82031C5.29688 6.73828 5.51953 6.46875 5.51953 5.66016C5.51953 3.52734 7.23047 1.78125 9.36328 1.78125C10.8633 1.78125 12.1992 2.57812 12.8086 3.79688C13.0664 4.3125 13.4297 4.42969 14.0742 4.17188C14.5547 3.98438 14.8242 3.91406 15.2695 3.91406C16.8516 3.91406 18.082 5.07422 18.2109 6.67969C18.2695 7.37109 18.5977 7.61719 19.418 7.64062C20.9883 7.66406 22.2188 8.87109 22.2188 10.3828C22.2188 12 21.0703 13.0898 19.3711 13.0898Z" fill="black" fill-opacity="0.85"/>
<path id="Vector_2" d="M8.84766 20.543H22.9805C26.1328 20.543 28.2188 18.375 28.2188 15.6211C28.2188 13.3242 26.6602 11.3906 24.4453 10.8047C24.1523 7.93359 21.75 5.69531 18.8555 5.69531C17.0273 5.69531 15.3633 6.5625 14.2852 8.00391C13.875 7.91016 13.4062 7.82812 12.9492 7.82812C10.6758 7.82812 8.78906 9.43359 8.34375 11.6133C6 11.8711 4.21875 13.7344 4.21875 16.0664C4.21875 18.6445 6.17578 20.543 8.84766 20.543Z" fill="white"/>
<path id="Vector_3" d="M8.84766 20.543H22.9805C26.1328 20.543 28.2188 18.375 28.2188 15.6211C28.2188 13.3242 26.6602 11.3906 24.4453 10.8047C24.1523 7.93359 21.75 5.69531 18.8555 5.69531C17.0273 5.69531 15.3633 6.5625 14.2852 8.00391C13.875 7.91016 13.4062 7.82812 12.9492 7.82812C10.6758 7.82812 8.78906 9.43359 8.34375 11.6133C6 11.8711 4.21875 13.7344 4.21875 16.0664C4.21875 18.6445 6.17578 20.543 8.84766 20.543ZM8.84766 18.7734C7.14844 18.7734 5.98828 17.6719 5.98828 16.0664C5.98828 14.543 7.23047 13.3477 8.80078 13.3242C9.62109 13.3008 9.94922 13.0547 10.0078 12.3633C10.1367 10.7578 11.3672 9.59766 12.9492 9.59766C13.3945 9.59766 13.6641 9.66797 14.1445 9.85547C14.7891 10.1016 15.1523 9.99609 15.4102 9.48047C16.0195 8.26172 17.3555 7.47656 18.8555 7.46484C20.9883 7.46484 22.6992 9.21094 22.6992 11.3438C22.6992 12.1523 22.9219 12.4102 23.7188 12.5039C25.2656 12.6797 26.4492 14.0391 26.4492 15.6211C26.4492 17.5078 25.043 18.7734 22.9805 18.7734H8.84766Z" fill="black" fill-opacity="0.85"/>
</g>
</g>
<defs>
<clipPath id="clip0_2124_12716">
<rect width="28.2188" height="20.543" fill="white"/>
</clipPath>
</defs>
</svg>
