<svg width="24" height="25" viewBox="0 0 24 25" fill="none" xmlns="http://www.w3.org/2000/svg">
<g clip-path="url(#clip0_2207_4721)">
<path d="M12.0371 24.0469C18.5762 24.0469 23.9902 18.6328 23.9902 12.0937C23.9902 5.56641 18.5645 0.140625 12.0254 0.140625C5.49804 0.140625 0.0839844 5.56641 0.0839844 12.0937C0.0839844 18.6328 5.50976 24.0469 12.0371 24.0469Z" fill="black" fill-opacity="0.85"/>
<path d="M12.0253 19.6523C11.6503 19.6523 11.3691 19.3711 11.3691 18.9609V17.625L10.3261 18.2227C9.95114 18.4219 9.61129 18.3398 9.41207 18.0117C9.23629 17.7187 9.3652 17.332 9.69333 17.1445L11.3691 16.207V15.3633L11.4862 13.043L9.52926 14.2969L8.8027 14.7305L8.81442 16.6406C8.81442 17.0273 8.55661 17.332 8.20504 17.332C7.81833 17.332 7.57223 17.0508 7.57223 16.6406L7.56051 15.4336L6.41207 16.1133C6.07223 16.3125 5.69723 16.2187 5.48629 15.8789C5.28707 15.5273 5.40426 15.1523 5.75583 14.9414L6.90426 14.2969L5.87301 13.6875C5.50973 13.4766 5.41598 13.1367 5.59176 12.7969C5.76754 12.4922 6.16598 12.4101 6.50583 12.5977L8.14645 13.582L8.86129 13.1484L10.9706 12.0937L8.86129 11.0508L8.14645 10.6289L6.50583 11.5898C6.16598 11.7773 5.76754 11.707 5.58004 11.4023C5.40426 11.0508 5.52145 10.7227 5.87301 10.5117L6.90426 9.90235L5.75583 9.2461C5.40426 9.03516 5.27536 8.66016 5.48629 8.3086C5.68551 7.98047 6.07223 7.88672 6.41207 8.08594L7.56051 8.75391L7.57223 7.54688C7.57223 7.13672 7.81833 6.86719 8.20504 6.86719C8.55661 6.86719 8.81442 7.16016 8.81442 7.54688L8.8027 9.46875L9.52926 9.89063L11.4862 11.1562L11.3691 8.82422V7.98047L9.69333 7.05469C9.3652 6.85547 9.23629 6.46875 9.41207 6.17579C9.61129 5.84766 9.95114 5.77735 10.3261 5.96485L11.3691 6.5625V5.22657C11.3691 4.82813 11.6503 4.53516 12.0253 4.53516C12.412 4.53516 12.6933 4.81641 12.6933 5.22657V6.55079L13.7128 5.96485C14.0878 5.76563 14.4394 5.84766 14.6386 6.17579C14.8027 6.46875 14.6855 6.85547 14.3456 7.05469L12.6816 7.98047V8.82422L12.5644 11.1562L14.5448 9.87891L15.248 9.46875L15.2362 7.54688C15.2362 7.16016 15.4941 6.86719 15.8573 6.86719C16.2206 6.86719 16.4784 7.14844 16.4784 7.54688L16.4901 8.76563L17.6386 8.08594C17.9784 7.88672 18.3651 7.96875 18.5644 8.3086C18.7519 8.67188 18.6464 9.03516 18.2948 9.2461L17.1464 9.90235L18.1659 10.5117C18.5175 10.7227 18.6464 11.0625 18.4706 11.3906C18.2831 11.6953 17.8847 11.7773 17.5448 11.5898L15.9042 10.6172L15.1894 11.0508L13.08 12.0937L15.1894 13.1484L15.9042 13.582L17.5448 12.5977C17.8847 12.4219 18.2714 12.4922 18.4706 12.8086C18.6464 13.1367 18.5175 13.4648 18.1659 13.6875L17.1464 14.2969L18.2948 14.9414C18.6464 15.1523 18.7519 15.5273 18.5644 15.8789C18.3417 16.2187 17.9784 16.3008 17.6386 16.1133L16.4901 15.4219L16.4784 16.6406C16.4784 17.0508 16.2206 17.332 15.8456 17.332C15.4941 17.332 15.2362 17.0273 15.2362 16.6406L15.248 14.7305L14.5448 14.2969L12.5644 13.043L12.6816 15.3633V16.207L14.3456 17.1328C14.6855 17.332 14.8027 17.7187 14.6386 18.0117C14.4394 18.3398 14.0878 18.4336 13.7128 18.2227L12.6933 17.6367V18.9609C12.6933 19.3828 12.412 19.6523 12.0253 19.6523Z" fill="white"/>
</g>
<defs>
<clipPath id="clip0_2207_4721">
<rect width="23.9062" height="23.918" fill="white" transform="translate(0.0839844 0.128906)"/>
</clipPath>
</defs>
</svg>
