<svg width="34" height="18" viewBox="0 0 34 18" fill="none" xmlns="http://www.w3.org/2000/svg">
<g clip-path="url(#clip0_2207_17524)">
<path d="M7.82217 3.26953H8.66593C9.19326 3.26953 9.41592 3.07032 9.5917 2.625L10.2831 0.878906C10.4471 0.492187 10.2714 0.152344 9.86123 0.152344H9.08779C8.68936 0.152344 8.44326 0.351562 8.25576 0.703125L7.32998 2.48438C7.14248 2.83594 7.32998 3.26953 7.82217 3.26953ZM4.61123 9.78516H5.91201C6.45109 9.78516 6.76748 9.59766 6.9667 9.09375L7.98623 6.58594C8.15029 6.17579 7.89248 5.77735 7.43545 5.77735H6.27529C5.87686 5.77735 5.54873 5.97657 5.36123 6.33985L4.06045 8.8711C3.82608 9.31641 4.10733 9.78516 4.61123 9.78516ZM1.03702 17.6953H2.57217C3.27529 17.6953 3.62686 17.3555 3.81436 16.8516L5.24404 13.3477C5.45498 12.832 5.12686 12.3281 4.56436 12.3281H3.24014C2.50186 12.3281 2.13858 12.6094 1.88076 13.1016L0.216706 16.3945C-0.0879823 16.9922 0.134674 17.6953 1.03702 17.6953ZM25.2714 3.26953H26.1151C26.6073 3.26953 26.7948 2.83594 26.6073 2.48438L25.6815 0.703125C25.5057 0.351562 25.2479 0.152344 24.8495 0.152344H24.076C23.6659 0.152344 23.4901 0.492187 23.6542 0.878906L24.3456 2.625C24.5214 3.07032 24.744 3.26953 25.2714 3.26953ZM28.037 9.78516H29.326C29.83 9.78516 30.1112 9.31641 29.8885 8.8711L28.5878 6.33985C28.3885 5.97657 28.0604 5.77735 27.662 5.77735H26.5018C26.0448 5.77735 25.787 6.17579 25.951 6.58594L26.9706 9.09375C27.1815 9.59766 27.4862 9.78516 28.037 9.78516ZM31.3651 17.6953H32.9003C33.8143 17.6953 34.0253 16.9922 33.7206 16.3945L32.0565 13.1016C31.7987 12.6094 31.4354 12.3281 30.6971 12.3281H29.3846C28.8104 12.3281 28.4823 12.832 28.6932 13.3477L30.1229 16.8516C30.3221 17.3555 30.662 17.6953 31.3651 17.6953Z" fill="black" fill-opacity="0.85"/>
<path d="M16.9747 16.8281C17.3497 16.8281 17.6074 16.5586 17.6074 16.1601V14.8711L18.6153 15.4453C18.9669 15.6445 19.3183 15.5625 19.4941 15.2461C19.6699 14.9531 19.5528 14.5898 19.2247 14.3906L17.6074 13.4883V12.668L17.4786 10.4062L19.4122 11.6367L20.0918 12.0469V13.9101C20.0918 14.2851 20.3262 14.5664 20.6778 14.5664C21.0411 14.5664 21.2755 14.3086 21.2755 13.9101L21.2872 12.7266L22.4122 13.3828C22.7403 13.582 23.1036 13.5 23.3028 13.1719C23.4903 12.832 23.3965 12.4687 23.0566 12.2695L21.9316 11.625L22.9278 11.0391C23.2677 10.8281 23.3966 10.5 23.2207 10.1953C23.0332 9.89063 22.6582 9.8086 22.3301 9.9961L20.7364 10.9336L20.0332 10.5234L17.9824 9.50391L20.0332 8.48438L20.7364 8.0625L22.3301 9.01172C22.6582 9.1875 23.0449 9.11719 23.2207 8.82422C23.3966 8.4961 23.2677 8.17969 22.9278 7.95703L21.9316 7.3711L23.0566 6.73829C23.3965 6.53907 23.4903 6.1875 23.3028 5.83594C23.127 5.50782 22.7403 5.42579 22.4122 5.61329L21.2872 6.26953L21.2755 5.09766C21.2755 4.71094 21.041 4.42969 20.6895 4.42969C20.3261 4.42969 20.0918 4.72266 20.0918 5.09766V6.94922L19.4122 7.35938L17.4786 8.60157L17.6074 6.33985V5.51953L19.2247 4.61719C19.5528 4.41797 19.6699 4.05469 19.4941 3.76172C19.3183 3.44532 18.9669 3.36329 18.6153 3.5625L17.6074 4.13672V2.84766C17.6074 2.4375 17.3497 2.17969 16.9747 2.17969C16.5997 2.17969 16.3301 2.44922 16.3301 2.84766V4.14844L15.3105 3.5625C14.959 3.375 14.6191 3.44532 14.4433 3.76172C14.2676 4.05469 14.3847 4.41797 14.7129 4.60547L16.3301 5.51953V6.33985L16.4591 8.60157L14.5489 7.3711L13.8457 6.94922L13.8575 5.09766C13.8575 4.72266 13.6114 4.42969 13.2598 4.42969C12.8966 4.42969 12.6622 4.69922 12.6622 5.09766L12.6504 6.26953L11.5254 5.61329C11.1855 5.41407 10.8106 5.51953 10.6348 5.83594C10.4356 6.17579 10.5527 6.53907 10.8808 6.73829L12.0058 7.3711L11.0098 7.95703C10.67 8.16797 10.5528 8.48438 10.7169 8.82422C10.8927 9.11719 11.2794 9.19922 11.6192 9.01172L13.2011 8.07422L13.916 8.48438L15.9552 9.50391L13.916 10.5234L13.2011 10.9336L11.6192 9.9961C11.2794 9.8086 10.8926 9.87891 10.7285 10.1719C10.5644 10.5 10.6583 10.8398 11.0098 11.0391L12.0058 11.625L10.8808 12.2695C10.5527 12.4687 10.4473 12.832 10.6348 13.1719C10.8223 13.5 11.1855 13.582 11.5254 13.3828L12.6504 12.7383L12.6622 13.9101C12.6622 14.3086 12.8966 14.5664 13.2598 14.5664C13.6114 14.5664 13.8575 14.2851 13.8575 13.9101L13.8457 12.0469L14.5489 11.6367L16.4591 10.4062L16.3301 12.668V13.4883L14.7129 14.4023C14.3847 14.5898 14.2676 14.9531 14.4433 15.2461C14.6191 15.5625 14.959 15.6328 15.3105 15.4453L16.3301 14.8594V16.1601C16.3301 16.5469 16.5997 16.8281 16.9747 16.8281Z" fill="black" fill-opacity="0.85"/>
</g>
<defs>
<clipPath id="clip0_2207_17524">
<rect width="33.763" height="17.5664" fill="white" transform="translate(0.0881348 0.128906)"/>
</clipPath>
</defs>
</svg>
