<svg width="24" height="25" viewBox="0 0 24 25" fill="none" xmlns="http://www.w3.org/2000/svg">
<g clip-path="url(#clip0_2207_4716)">
<path d="M12.0351 24.0351C18.5742 24.0351 23.9882 18.6094 23.9882 12.082C23.9882 5.54297 18.5625 0.128906 12.0234 0.128906C5.49609 0.128906 0.0820312 5.54297 0.0820312 12.082C0.0820312 18.6094 5.50781 24.0351 12.0351 24.0351ZM12.0351 22.043C6.50391 22.043 2.08594 17.6133 2.08594 12.082C2.08594 6.55079 6.49219 2.1211 12.0234 2.1211C17.5547 2.1211 21.9961 6.55079 21.9961 12.082C21.9961 17.6133 17.5664 22.043 12.0351 22.043Z" fill="black" fill-opacity="0.85"/>
<path d="M12.0117 19.4062C12.3984 19.4062 12.6562 19.1367 12.6562 18.7383V17.4492L13.664 18.0234C14.0156 18.2109 14.3672 18.1406 14.5429 17.8242C14.7187 17.5312 14.6015 17.168 14.2734 16.9687L12.6562 16.0664V15.2461L12.5273 12.9844L14.4609 14.2148L15.1406 14.625V16.4883C15.1406 16.8633 15.375 17.1445 15.7148 17.1445C16.0898 17.1445 16.3242 16.8867 16.3242 16.4883L16.3359 15.293L17.4609 15.9609C17.789 16.1601 18.1523 16.0781 18.3515 15.75C18.539 15.4101 18.4453 15.0469 18.1054 14.8477L16.9804 14.2031L17.9765 13.6172C18.3164 13.4062 18.4336 13.0781 18.2695 12.7734C18.082 12.4687 17.707 12.3867 17.3789 12.5742L15.7851 13.5117L15.082 13.0898L13.0312 12.082L15.082 11.0625L15.7851 10.6406L17.3789 11.5898C17.707 11.7656 18.0937 11.6953 18.2695 11.4023C18.4336 11.0742 18.3164 10.7578 17.9765 10.5351L16.9804 9.94921L18.1054 9.3164C18.4453 9.11718 18.539 8.76562 18.3515 8.41406C18.1758 8.08593 17.789 8.0039 17.4609 8.1914L16.3359 8.84765L16.3242 7.67578C16.3242 7.28906 16.0898 7.00781 15.7265 7.00781C15.375 7.00781 15.1406 7.30078 15.1406 7.67578V9.52734L14.4492 9.93749L12.5273 11.168L12.6562 8.91796V8.09765L14.2734 7.19531C14.6015 6.99609 14.7187 6.63281 14.5429 6.33984C14.3672 6.02343 14.0156 5.9414 13.664 6.14062L12.6562 6.71484V5.42578C12.6562 5.01562 12.3984 4.75781 12.0117 4.75781C11.6484 4.75781 11.3789 5.02734 11.3789 5.42578V6.72656L10.3593 6.14062C9.99605 5.95312 9.66793 6.02343 9.48043 6.33984C9.31637 6.63281 9.43355 6.99609 9.76168 7.18359L11.3789 8.09765V8.91796L11.5078 11.168L9.59761 9.94921L8.89449 9.52734L8.90621 7.67578C8.90621 7.30078 8.66011 7.00781 8.30855 7.00781C7.94527 7.00781 7.7109 7.27734 7.7109 7.67578L7.69918 8.84765L6.57418 8.1914C6.23433 7.99218 5.85933 8.09765 5.68355 8.41406C5.48433 8.7539 5.5898 9.11718 5.92965 9.3164L7.05465 9.94921L6.05855 10.5351C5.71871 10.7461 5.60152 11.0625 5.76558 11.4023C5.94137 11.6953 6.32808 11.7773 6.66793 11.5898L8.24996 10.6523L8.95308 11.0625L11.0039 12.082L8.95308 13.0898L8.24996 13.5117L6.66793 12.5742C6.32808 12.3867 5.94137 12.457 5.7773 12.75C5.61324 13.0781 5.70699 13.4062 6.05855 13.6172L7.05465 14.2031L5.92965 14.8477C5.5898 15.0469 5.49605 15.4101 5.68355 15.75C5.87105 16.0781 6.23433 16.1601 6.57418 15.9609L7.69918 15.3164L7.7109 16.4883C7.7109 16.8867 7.94527 17.1445 8.30855 17.1445C8.66011 17.1445 8.90621 16.8633 8.90621 16.4883L8.89449 14.625L9.59761 14.2148L11.5078 12.9844L11.3789 15.2461V16.0664L9.76168 16.9687C9.43355 17.168 9.31637 17.5312 9.48043 17.8242C9.66793 18.1406 9.99605 18.1992 10.3593 18.0234L11.3789 17.4375V18.7383C11.3789 19.125 11.6484 19.4062 12.0117 19.4062Z" fill="black" fill-opacity="0.85"/>
</g>
<defs>
<clipPath id="clip0_2207_4716">
<rect width="23.9062" height="23.918" fill="white" transform="translate(0.0820312 0.128906)"/>
</clipPath>
</defs>
</svg>
