<svg width="24" height="24" viewBox="0 0 24 24" fill="none" xmlns="http://www.w3.org/2000/svg">
<g id="snowflake.circle" clip-path="url(#clip0_2124_12772)">
<g id="Group">
<path id="Vector" d="M11.9531 23.9062C18.4922 23.9062 23.9062 18.4805 23.9062 11.9531C23.9062 5.41406 18.4805 0 11.9414 0C5.41406 0 0 5.41406 0 11.9531C0 18.4805 5.42578 23.9062 11.9531 23.9062ZM11.9531 21.9141C6.42188 21.9141 2.00391 17.4844 2.00391 11.9531C2.00391 6.42188 6.41016 1.99219 11.9414 1.99219C17.4727 1.99219 21.9141 6.42188 21.9141 11.9531C21.9141 17.4844 17.4844 21.9141 11.9531 21.9141Z" fill="black" fill-opacity="0.85"/>
<path id="Vector_2" d="M11.9297 19.2773C12.3164 19.2773 12.5742 19.0078 12.5742 18.6094V17.3203L13.582 17.8945C13.9336 18.082 14.2852 18.0117 14.4609 17.6953C14.6367 17.4023 14.5195 17.0391 14.1914 16.8398L12.5742 15.9375V15.1172L12.4453 12.8555L14.3789 14.0859L15.0586 14.4961V16.3594C15.0586 16.7344 15.293 17.0156 15.6328 17.0156C16.0078 17.0156 16.2422 16.7578 16.2422 16.3594L16.2539 15.1641L17.3789 15.832C17.707 16.0312 18.0703 15.9492 18.2695 15.6211C18.457 15.2812 18.3633 14.918 18.0234 14.7188L16.8984 14.0742L17.8945 13.4883C18.2344 13.2773 18.3516 12.9492 18.1875 12.6445C18 12.3398 17.625 12.2578 17.2969 12.4453L15.7031 13.3828L15 12.9609L12.9492 11.9531L15 10.9336L15.7031 10.5117L17.2969 11.4609C17.625 11.6367 18.0117 11.5664 18.1875 11.2734C18.3516 10.9453 18.2344 10.6289 17.8945 10.4062L16.8984 9.82031L18.0234 9.1875C18.3633 8.98828 18.457 8.63672 18.2695 8.28516C18.0938 7.95703 17.707 7.875 17.3789 8.0625L16.2539 8.71875L16.2422 7.54688C16.2422 7.16016 16.0078 6.87891 15.6445 6.87891C15.293 6.87891 15.0586 7.17188 15.0586 7.54688V9.39844L14.3672 9.80859L12.4453 11.0391L12.5742 8.78906V7.96875L14.1914 7.06641C14.5195 6.86719 14.6367 6.50391 14.4609 6.21094C14.2852 5.89453 13.9336 5.8125 13.582 6.01172L12.5742 6.58594V5.29688C12.5742 4.88672 12.3164 4.62891 11.9297 4.62891C11.5664 4.62891 11.2969 4.89844 11.2969 5.29688V6.59766L10.2773 6.01172C9.91402 5.82422 9.5859 5.89453 9.3984 6.21094C9.23434 6.50391 9.35152 6.86719 9.67965 7.05469L11.2969 7.96875V8.78906L11.4258 11.0391L9.51558 9.82031L8.81246 9.39844L8.82418 7.54688C8.82418 7.17188 8.57808 6.87891 8.22652 6.87891C7.86324 6.87891 7.62887 7.14844 7.62887 7.54688L7.61715 8.71875L6.49215 8.0625C6.1523 7.86328 5.7773 7.96875 5.60152 8.28516C5.4023 8.625 5.50777 8.98828 5.84762 9.1875L6.97262 9.82031L5.97652 10.4062C5.63668 10.6172 5.51949 10.9336 5.68355 11.2734C5.85934 11.5664 6.24605 11.6484 6.5859 11.4609L8.16793 10.5234L8.87105 10.9336L10.9219 11.9531L8.87105 12.9609L8.16793 13.3828L6.5859 12.4453C6.24605 12.2578 5.85934 12.3281 5.69527 12.6211C5.53121 12.9492 5.62496 13.2773 5.97652 13.4883L6.97262 14.0742L5.84762 14.7188C5.50777 14.918 5.41402 15.2812 5.60152 15.6211C5.78902 15.9492 6.1523 16.0312 6.49215 15.832L7.61715 15.1875L7.62887 16.3594C7.62887 16.7578 7.86324 17.0156 8.22652 17.0156C8.57808 17.0156 8.82418 16.7344 8.82418 16.3594L8.81246 14.4961L9.51558 14.0859L11.4258 12.8555L11.2969 15.1172V15.9375L9.67965 16.8398C9.35152 17.0391 9.23434 17.4023 9.3984 17.6953C9.5859 18.0117 9.91402 18.0703 10.2773 17.8945L11.2969 17.3086V18.6094C11.2969 18.9961 11.5664 19.2773 11.9297 19.2773Z" fill="black" fill-opacity="0.85"/>
</g>
</g>
<defs>
<clipPath id="clip0_2124_12772">
<rect width="23.9062" height="23.918" fill="white"/>
</clipPath>
</defs>
</svg>
