<svg width="24" height="25" viewBox="0 0 24 25" fill="none" xmlns="http://www.w3.org/2000/svg">
<g clip-path="url(#clip0_2207_3035)">
<path d="M11.9553 24.0366C18.4944 24.0366 23.9084 18.6109 23.9084 12.0835C23.9084 5.54443 18.4827 0.130371 11.9436 0.130371C5.41626 0.130371 0.00219727 5.54443 0.00219727 12.0835C0.00219727 18.6109 5.40454 24.0366 11.9553 24.0366ZM9.06079 22.021C6.65845 21.3179 4.59595 19.7476 3.26001 17.6851L7.22095 17.6265L8.86158 15.5288L7.60767 11.6616L4.56079 10.4312L1.57251 12.1187C1.58423 9.59912 2.46314 7.3374 3.92798 5.55615L5.04126 9.22412L7.99439 10.4195L11.2874 7.88818V4.80615L8.31079 2.39209C9.44751 1.95849 10.678 1.72412 11.9436 1.72412C13.2092 1.72412 14.4397 1.95849 15.5764 2.39209L12.6116 4.80615V7.88818L15.9045 10.4195L18.846 9.22412L19.9592 5.55615C21.4241 7.3374 22.303 9.59912 22.3147 12.1187L19.3264 10.4312L16.2795 11.6616L15.0256 15.5288L16.6663 17.6265L20.6272 17.6851C19.2913 19.7476 17.2288 21.3179 14.8264 22.021L15.6584 18.4351L14.1584 16.5249H9.72876L8.24048 18.4351L9.06079 22.021Z" fill="black" fill-opacity="0.85"/>
</g>
<defs>
<clipPath id="clip0_2207_3035">
<rect width="23.9062" height="23.918" fill="white" transform="translate(0.00219727 0.130371)"/>
</clipPath>
</defs>
</svg>
