<svg width="24" height="25" viewBox="0 0 24 25" fill="none" xmlns="http://www.w3.org/2000/svg">
<g clip-path="url(#clip0_2207_3044)">
<path d="M11.9531 24.0366C18.4922 24.0366 23.9062 18.6109 23.9062 12.0835C23.9062 5.54443 18.4805 0.130371 11.9414 0.130371C5.41406 0.130371 0 5.54443 0 12.0835C0 18.6109 5.42578 24.0366 11.9531 24.0366ZM11.9531 22.0445C6.42188 22.0445 2.00391 17.6148 2.00391 12.0835C2.00391 6.55225 6.41016 2.12256 11.9414 2.12256C17.4727 2.12256 21.9141 6.55225 21.9141 12.0835C21.9141 17.6148 17.4844 22.0445 11.9531 22.0445Z" fill="black" fill-opacity="0.85"/>
<path d="M11.9531 18.3531C15.3633 18.3531 18.2227 15.4937 18.2227 12.0835C18.2227 8.67335 15.3633 5.81396 11.9414 5.81396C8.53125 5.81396 5.69531 8.67335 5.69531 12.0835C5.69531 15.4937 8.54297 18.3531 11.9531 18.3531ZM11.9531 6.76319C12.6094 6.76319 13.2422 6.88037 13.8281 7.11475L12.3164 8.31007V9.95068L13.957 11.2046L15.5039 10.5835L16.0781 8.73193C16.8164 9.64599 17.2852 10.8062 17.2852 12.0952L15.7852 11.2632L14.1562 11.9195L13.5352 13.8179L14.4258 14.9312L16.418 14.9546C15.7266 16.0327 14.6719 16.8296 13.4414 17.1929L13.8516 15.3999L13.043 14.3687H10.8516L10.043 15.3999L10.4648 17.1929C9.22266 16.8296 8.16797 16.0327 7.47656 14.9546L9.48047 14.9312L10.3594 13.8296L9.73828 11.9195L8.10938 11.2632L6.60938 12.0952C6.60938 10.8062 7.07812 9.64599 7.82812 8.73193L8.39062 10.5835L9.9375 11.2046L11.5898 9.95068V8.31007L10.0664 7.11475C10.6523 6.88037 11.3086 6.76319 11.9531 6.76319Z" fill="black" fill-opacity="0.85"/>
</g>
<defs>
<clipPath id="clip0_2207_3044">
<rect width="23.9062" height="23.918" fill="white" transform="translate(0 0.130371)"/>
</clipPath>
</defs>
</svg>
