<svg width="21" height="21" viewBox="0 0 21 21" fill="none" xmlns="http://www.w3.org/2000/svg">
<g clip-path="url(#clip0_2207_5474)">
<path d="M18.2078 15.4703C18.5945 15.7399 19.1453 15.6578 19.4617 15.2008C20.3641 14.0172 20.9031 12.2711 20.9031 10.4782C20.9031 8.6852 20.3641 6.95081 19.4617 5.7555C19.1453 5.29847 18.5945 5.20473 18.2078 5.48598C17.7274 5.8141 17.657 6.40003 18.0203 6.8805C18.7 7.81801 19.0867 9.11879 19.0867 10.4782C19.0867 11.8375 18.6883 13.1266 18.0203 14.0758C17.6688 14.568 17.7274 15.1305 18.2078 15.4703Z" fill="black" fill-opacity="0.85"/>
<path d="M2.44605 15.2359H5.80933C5.9148 15.2359 6.00855 15.271 6.09058 15.3413L11.3757 20.0757C11.9265 20.5796 12.3718 20.814 12.9226 20.814C13.6843 20.814 14.2468 20.2632 14.2468 19.5015V1.5249C14.2468 0.763183 13.6843 0.14209 12.8991 0.14209C12.3483 0.14209 11.9851 0.399902 11.3757 0.950683L6.09058 5.63818C6.00855 5.70849 5.9148 5.74365 5.80933 5.74365H2.44605C0.852295 5.74365 0.0671387 6.55225 0.0671387 8.25146V12.7398C0.0671387 14.439 0.864014 15.2359 2.44605 15.2359ZM2.52808 13.5249C2.09448 13.5249 1.89526 13.3257 1.89526 12.8921V8.09912C1.89526 7.65381 2.09448 7.45459 2.52808 7.45459H6.27808C6.58276 7.45459 6.81714 7.39599 7.08667 7.1499L12.0788 2.61475C12.1374 2.55615 12.196 2.52099 12.278 2.52099C12.3601 2.52099 12.4304 2.57959 12.4304 2.68506V18.2593C12.4304 18.3648 12.3601 18.4351 12.278 18.4351C12.2194 18.4351 12.1491 18.3999 12.0788 18.3413L7.08667 13.8296C6.81714 13.5952 6.58276 13.5249 6.27808 13.5249H2.52808Z" fill="black" fill-opacity="0.85"/>
</g>
<defs>
<clipPath id="clip0_2207_5474">
<rect width="20.8359" height="20.6836" fill="white" transform="translate(0.0671387 0.130371)"/>
</clipPath>
</defs>
</svg>
