<svg width="25" height="27" viewBox="0 0 25 27" fill="none" xmlns="http://www.w3.org/2000/svg">
<g clip-path="url(#clip0_2207_5442)">
<path d="M6.1543 18.0922H9.50586C9.61133 18.0922 9.70508 18.1274 9.78711 18.1977L15.0723 22.9321C15.6348 23.436 16.0684 23.6704 16.6309 23.6704C17.3926 23.6704 17.9551 23.1196 17.9551 22.3579V4.38136C17.9551 3.61964 17.3926 2.99854 16.6074 2.99854C16.0449 2.99854 15.6934 3.25636 15.0723 3.80714L9.78711 8.49464C9.70508 8.56495 9.61133 8.60011 9.50586 8.60011H6.1543C4.56055 8.60011 3.76367 9.4087 3.76367 11.1079V15.5961C3.76367 17.2954 4.56055 18.0922 6.1543 18.0922ZM6.23633 16.3813C5.79102 16.3813 5.5918 16.1821 5.5918 15.7485V10.9555C5.5918 10.5102 5.79102 10.311 6.23633 10.311H9.98633C10.291 10.311 10.5137 10.2524 10.7832 10.0064L15.7754 5.47119C15.834 5.41261 15.9043 5.37744 15.9746 5.37744C16.0567 5.37744 16.127 5.43604 16.127 5.54151V21.1157C16.127 21.2211 16.0567 21.2915 15.9746 21.2915C15.916 21.2915 15.8457 21.2563 15.7871 21.1977L10.7832 16.686C10.5137 16.4516 10.291 16.3813 9.98633 16.3813H6.23633Z" fill="black" fill-opacity="0.85"/>
<path d="M20.791 25.8618C21.6934 26.7524 23.1465 26.7524 24.0137 25.8383C24.8809 24.9594 24.8809 23.5415 24.002 22.6508L3.93946 2.6001C3.04883 1.70947 1.59571 1.70947 0.705078 2.6001C-0.162109 3.46728 -0.162109 4.93213 0.705078 5.81103L20.791 25.8618Z" fill="white"/>
<path d="M21.7637 24.9008C22.1152 25.2524 22.6895 25.2524 23.041 24.9008C23.3809 24.5376 23.3926 23.9751 23.041 23.6235L2.9668 3.56103C2.61524 3.20947 2.0293 3.20947 1.67774 3.56103C1.33789 3.90088 1.33789 4.49853 1.67774 4.83838L21.7637 24.9008Z" fill="black" fill-opacity="0.85"/>
</g>
<defs>
<clipPath id="clip0_2207_5442">
<rect width="24.6079" height="26.3965" fill="white" transform="translate(0.0546875 0.130371)"/>
</clipPath>
</defs>
</svg>
