<svg width="32" height="23" viewBox="0 0 32 23" fill="none" xmlns="http://www.w3.org/2000/svg">
<g clip-path="url(#clip0_2207_5510)">
<path d="M26.9667 22.6056C27.3651 22.8986 27.9394 22.7814 28.2558 22.3127C30.3066 19.3478 31.537 15.5861 31.537 11.4494C31.537 7.30093 30.2714 3.56265 28.2558 0.586087C27.9394 0.105619 27.3651 0.00014998 26.9667 0.293119C26.5214 0.597806 26.4628 1.14859 26.7792 1.62906C28.5956 4.31265 29.7441 7.68765 29.7441 11.4494C29.7441 15.1994 28.5956 18.5978 26.7792 21.2697C26.4628 21.7502 26.5214 22.301 26.9667 22.6056Z" fill="black" fill-opacity="0.85"/>
<path d="M22.5723 19.5001C23.0059 19.793 23.5449 19.6876 23.8613 19.2423C25.3613 17.1798 26.2402 14.3438 26.2402 11.4493C26.2402 8.55474 25.3731 5.69536 23.8613 3.6563C23.5449 3.21099 23.0059 3.10552 22.5723 3.39849C22.1387 3.69146 22.0684 4.24224 22.4082 4.72271C23.6856 6.52739 24.4238 8.95317 24.4238 11.4493C24.4238 13.9454 23.6621 16.3477 22.4082 18.1759C22.0801 18.6563 22.1387 19.2071 22.5723 19.5001Z" fill="black" fill-opacity="0.85"/>
<path d="M18.2363 16.4416C18.6231 16.7111 19.1738 16.6291 19.4902 16.1721C20.3926 14.9885 20.9317 13.2424 20.9317 11.4494C20.9317 9.65639 20.3926 7.92201 19.4902 6.7267C19.1738 6.26967 18.6231 6.17592 18.2363 6.45717C17.7559 6.7853 17.6856 7.37123 18.0488 7.8517C18.7285 8.7892 19.1152 10.09 19.1152 11.4494C19.1152 12.8088 18.7168 14.0978 18.0488 15.0471C17.6973 15.5392 17.7559 16.1017 18.2363 16.4416Z" fill="black" fill-opacity="0.85"/>
<path d="M2.46289 16.2187H5.82617C5.93164 16.2187 6.02539 16.2539 6.10742 16.3242L11.3926 21.0586C11.9551 21.5625 12.3887 21.7969 12.9512 21.7969C13.7012 21.7969 14.2754 21.2461 14.2754 20.4844V2.50781C14.2754 1.74609 13.7012 1.125 12.9278 1.125C12.3652 1.125 12.002 1.38281 11.3926 1.93359L6.10742 6.62109C6.02539 6.69141 5.93164 6.72656 5.82617 6.72656H2.46289C0.86914 6.72656 0.0839844 7.53516 0.0839844 9.23437V13.7226C0.0839844 15.4219 0.880859 16.2187 2.46289 16.2187ZM2.54492 14.5078C2.11132 14.5078 1.9121 14.3086 1.9121 13.875V9.08203C1.9121 8.63672 2.11132 8.4375 2.54492 8.4375H6.29492C6.5996 8.4375 6.83398 8.37891 7.10351 8.13281L12.0957 3.59766C12.1543 3.53906 12.2129 3.50391 12.2949 3.50391C12.377 3.50391 12.4473 3.5625 12.4473 3.66797V19.2422C12.4473 19.3476 12.377 19.4179 12.2949 19.4179C12.2363 19.4179 12.166 19.3828 12.0957 19.3242L7.10351 14.8125C6.83398 14.5781 6.5996 14.5078 6.29492 14.5078H2.54492Z" fill="black" fill-opacity="0.85"/>
</g>
<defs>
<clipPath id="clip0_2207_5510">
<rect width="31.4531" height="22.6497" fill="white" transform="translate(0.0839844 0.130371)"/>
</clipPath>
</defs>
</svg>
