<svg width="29" height="21" viewBox="0 0 29 21" fill="none" xmlns="http://www.w3.org/2000/svg">
<g clip-path="url(#clip0_2207_5469)">
<path d="M27.7231 7.68896H24.9458V7.61865L27.8051 3.85693C28.063 3.52881 28.1567 3.32959 28.1567 3.10693C28.1567 2.72021 27.852 2.48584 27.4536 2.48584H23.5161C23.1294 2.48584 22.8598 2.73193 22.8598 3.11865C22.8598 3.51709 23.1294 3.76318 23.5161 3.76318H26.1411V3.81006L23.2465 7.57178C22.9887 7.8999 22.9067 8.09912 22.9067 8.35693C22.9067 8.70849 23.188 8.96631 23.5981 8.96631H27.7231C28.1098 8.96631 28.3794 8.72021 28.3794 8.32178C28.3794 7.94678 28.1098 7.68896 27.7231 7.68896ZM20.8325 12.3765H18.8755V12.3296L20.9028 9.68115C21.1372 9.37646 21.2426 9.17725 21.2426 8.95459C21.2426 8.59131 20.9497 8.38037 20.563 8.38037H17.5747C17.2114 8.38037 16.9653 8.61475 16.9653 8.96631C16.9653 9.36475 17.2114 9.5874 17.5747 9.5874H19.3325V9.63428L17.3169 12.271C17.0942 12.5757 17.0005 12.7632 17.0005 13.0093C17.0005 13.3492 17.2583 13.5952 17.6333 13.5952H20.8325C21.1958 13.5952 21.4419 13.3726 21.4419 12.9859C21.4419 12.6226 21.1958 12.3765 20.8325 12.3765ZM26.1294 16.689H24.4653V16.6421L26.1762 14.357C26.4106 14.0406 26.4926 13.8765 26.4926 13.6656C26.4926 13.314 26.2231 13.1031 25.8715 13.1031H23.2348C22.8833 13.1031 22.6489 13.3257 22.6489 13.6773C22.6489 14.0406 22.8833 14.2515 23.2348 14.2515H24.688V14.2984L22.9887 16.5835C22.7778 16.8765 22.6723 17.0523 22.6723 17.2749C22.6723 17.6031 22.9419 17.8374 23.2934 17.8374H26.1294C26.4575 17.8374 26.6919 17.6148 26.6919 17.2515C26.6919 16.9116 26.4575 16.689 26.1294 16.689Z" fill="black" fill-opacity="0.85"/>
<path d="M12.7231 20.814C13.4965 20.814 14.0473 20.2632 14.0473 19.5015V1.5249C14.0473 0.763183 13.4965 0.14209 12.6997 0.14209C12.1489 0.14209 11.7856 0.388183 11.188 0.950683L6.18408 5.63818C6.11377 5.70849 6.0083 5.74365 5.89111 5.74365H2.53955C0.945801 5.74365 0.090332 6.62256 0.090332 8.31006V12.6695C0.090332 14.3687 0.945801 15.2359 2.53955 15.2359H5.89111C6.0083 15.2359 6.11377 15.271 6.18408 15.3413L11.188 20.0757C11.7153 20.5913 12.1723 20.814 12.7231 20.814Z" fill="black" fill-opacity="0.85"/>
</g>
<defs>
<clipPath id="clip0_2207_5469">
<rect width="28.2891" height="20.6836" fill="white" transform="translate(0.090332 0.130371)"/>
</clipPath>
</defs>
</svg>
