<svg width="32" height="22" viewBox="0 0 32 22" fill="none" xmlns="http://www.w3.org/2000/svg">
<g clip-path="url(#clip0_2207_2953)">
<path d="M0.00219727 18.0966C0.00219727 20.5224 1.23267 21.7295 3.68189 21.7295H14.9788V16.4209C12.178 16.081 10.2795 13.9365 10.2795 10.9365C10.2795 7.91309 12.178 5.76856 14.9788 5.45215V0.155273H3.68189C1.23267 0.155273 0.00219727 1.36231 0.00219727 3.78809V5.25293H4.09204C5.63892 5.25293 6.54126 6.15528 6.54126 7.69043V14.1826C6.54126 15.7177 5.63892 16.6201 4.09204 16.6201H0.00219727V18.0966ZM0.00219727 14.9677H4.06861C4.58423 14.9677 4.88892 14.663 4.88892 14.1357V7.73731C4.88892 7.20996 4.58423 6.90528 4.06861 6.90528H0.00219727V14.9677ZM11.8381 10.9248C11.8381 12.9638 13.1155 14.4873 14.9788 14.8154V7.06934C13.1155 7.39746 11.8381 8.89746 11.8381 10.9248ZM16.6311 21.7295H27.9983C30.4475 21.7295 31.6663 20.5107 31.6663 18.0966V16.6201H27.5881C26.0295 16.6201 25.1389 15.7177 25.1389 14.1826V7.69043C25.1389 6.15528 26.0295 5.25293 27.5881 5.25293H31.6663V3.78809C31.6663 1.37403 30.4475 0.155273 27.9983 0.155273H16.6311V5.47559C19.4202 5.83887 21.3069 7.99512 21.3303 10.9365C21.3655 13.9365 19.467 16.0693 16.6311 16.4209V21.7295ZM16.6311 14.8154C18.4944 14.4873 19.76 12.9638 19.7717 10.9248C19.7834 8.89746 18.5061 7.38575 16.6311 7.06934V14.8154ZM26.7913 14.1357C26.7913 14.663 27.096 14.9677 27.5999 14.9677H31.6663V6.90528H27.5999C27.096 6.90528 26.7913 7.20996 26.7913 7.73731V14.1357Z" fill="black" fill-opacity="0.85"/>
</g>
<defs>
<clipPath id="clip0_2207_2953">
<rect width="31.6641" height="21.5977" fill="white" transform="translate(0.00219727 0.131836)"/>
</clipPath>
</defs>
</svg>
