<svg width="22" height="25" viewBox="0 0 22 25" fill="none" xmlns="http://www.w3.org/2000/svg">
<g clip-path="url(#clip0_2207_11932)">
<path d="M0.840332 10.749C1.29736 10.749 1.67236 10.374 1.67236 9.917C1.67236 9.45996 1.29736 9.08496 0.840332 9.08496C0.383301 9.08496 0.00830078 9.45996 0.00830078 9.917C0.00830078 10.374 0.383301 10.749 0.840332 10.749ZM3.28955 3.83496C3.74658 3.83496 4.12158 3.45996 4.12158 3.00293C4.12158 2.5459 3.74658 2.1709 3.28955 2.1709C2.83252 2.1709 2.45752 2.5459 2.45752 3.00293C2.45752 3.45996 2.83252 3.83496 3.28955 3.83496ZM10.5083 1.7959C10.9653 1.7959 11.3403 1.4209 11.3403 0.963867C11.3403 0.506836 10.9653 0.131836 10.5083 0.131836C10.0513 0.131836 9.67627 0.506836 9.67627 0.963867C9.67627 1.4209 10.0513 1.7959 10.5083 1.7959ZM17.7271 3.83496C18.1841 3.83496 18.5591 3.45996 18.5591 3.00293C18.5591 2.5459 18.1841 2.1709 17.7271 2.1709C17.27 2.1709 16.895 2.5459 16.895 3.00293C16.895 3.45996 17.27 3.83496 17.7271 3.83496ZM20.1763 10.749C20.6333 10.749 21.0083 10.374 21.0083 9.917C21.0083 9.45996 20.6333 9.08496 20.1763 9.08496C19.7192 9.08496 19.3442 9.45996 19.3442 9.917C19.3442 10.374 19.7192 10.749 20.1763 10.749Z" fill="black" fill-opacity="0.85"/>
<path d="M4.33252 10.749C4.78955 10.749 5.16455 10.374 5.16455 9.91699C5.16455 9.45995 4.78955 9.08495 4.33252 9.08495C3.87549 9.08495 3.50049 9.45995 3.50049 9.91699C3.50049 10.374 3.87549 10.749 4.33252 10.749ZM5.76221 6.30761C6.21924 6.30761 6.59424 5.93261 6.59424 5.47558C6.59424 5.01855 6.21924 4.64355 5.76221 4.64355C5.30518 4.64355 4.93018 5.01855 4.93018 5.47558C4.93018 5.93261 5.30518 6.30761 5.76221 6.30761ZM10.5083 5.2998C10.9653 5.2998 11.3403 4.9248 11.3403 4.46777C11.3403 4.01074 10.9653 3.63574 10.5083 3.63574C10.0513 3.63574 9.67627 4.01074 9.67627 4.46777C9.67627 4.9248 10.0513 5.2998 10.5083 5.2998ZM15.2544 6.30761C15.7114 6.30761 16.0864 5.93261 16.0864 5.47558C16.0864 5.01855 15.7114 4.64355 15.2544 4.64355C14.7856 4.64355 14.4224 5.01855 14.4224 5.47558C14.4224 5.93261 14.7856 6.30761 15.2544 6.30761ZM16.6724 10.749C17.1294 10.749 17.5044 10.374 17.5044 9.91699C17.5044 9.45995 17.1294 9.08495 16.6724 9.08495C16.2153 9.08495 15.8403 9.45995 15.8403 9.91699C15.8403 10.374 16.2153 10.749 16.6724 10.749Z" fill="black" fill-opacity="0.85"/>
<path d="M8.28174 11.5107H12.7231C13.4966 11.5107 14.0474 10.9599 14.0474 10.1865V9.36622C14.0474 8.10059 13.1216 7.20996 11.7856 7.20996H9.21924C7.89502 7.20996 6.96924 8.10059 6.96924 9.36622V10.1865C6.96924 10.9599 7.52002 11.5107 8.28174 11.5107ZM8.92627 13.7256H12.0903V10.7138H8.92627V13.7256ZM8.28174 17.124H12.7231C13.4966 17.124 14.0474 16.5849 14.0474 15.7998V14.0537C14.0474 13.2685 13.4966 12.7295 12.7231 12.7295H8.28174C7.52002 12.7295 6.96924 13.2685 6.96924 14.0537V15.7998C6.96924 16.5849 7.52002 17.124 8.28174 17.124ZM8.92627 22.1748H12.0903V16.5146H8.92627V22.1748ZM1.14502 23.1474H19.8716C20.3755 23.1474 20.7974 22.7256 20.7974 22.2216C20.7974 21.706 20.3755 21.2841 19.8716 21.2841H1.14502C0.641113 21.2841 0.20752 21.706 0.20752 22.2216C0.20752 22.7256 0.641113 23.1474 1.14502 23.1474Z" fill="black" fill-opacity="0.85"/>
</g>
<defs>
<clipPath id="clip0_2207_11932">
<rect width="21" height="23.9648" fill="white" transform="translate(0.00830078 0.131836)"/>
</clipPath>
</defs>
</svg>
