<svg width="21" height="32" viewBox="0 0 21 32" fill="none" xmlns="http://www.w3.org/2000/svg">
<g clip-path="url(#clip0_2207_8)">
<path d="M3.73438 28.374H17.1758C19.625 28.374 20.8555 27.1552 20.8555 24.7412V13.0459C20.8555 10.6318 19.625 9.41309 17.1758 9.41309H3.73438C1.28516 9.41309 0.0546875 10.6318 0.0546875 13.0459V24.7412C0.0546875 27.1552 1.28516 28.374 3.73438 28.374ZM1.94141 24.6357V13.1513C1.94141 11.9326 2.58594 11.2998 3.75781 11.2998H17.1406C18.3008 11.2998 18.9688 11.9326 18.9688 13.1513V24.6357C18.9688 25.8545 18.3008 26.4873 17.1406 26.4873H3.75781C2.58594 26.4873 1.94141 25.8545 1.94141 24.6357Z" fill="black" fill-opacity="0.85"/>
<path d="M13.6485 18.2841V3.30762C13.6485 1.56153 12.207 0.131836 10.4492 0.131836C8.70313 0.131836 7.26172 1.56153 7.26172 3.30762V18.2841C7.26172 20.0185 8.70313 21.4599 10.4492 21.4599C12.207 21.4599 13.6485 20.0185 13.6485 18.2841Z" fill="white"/>
<path d="M10.4492 19.1982C10.9531 19.1982 11.3867 18.7763 11.3867 18.2841V6.24902L11.3164 4.49121L12.1016 5.32324L13.8828 7.22167C14.0469 7.40917 14.2813 7.50292 14.5156 7.50292C14.9961 7.50292 15.3711 7.15136 15.3711 6.67089C15.3711 6.4248 15.2656 6.2373 15.0899 6.06152L11.1289 2.24121C10.8945 2.00683 10.6953 1.9248 10.4492 1.9248C10.2149 1.9248 10.0156 2.00683 9.76952 2.24121L5.80859 6.06152C5.6328 6.2373 5.53906 6.4248 5.53906 6.67089C5.53906 7.15136 5.89062 7.50292 6.3828 7.50292C6.60546 7.50292 6.86327 7.40917 7.02734 7.22167L8.79687 5.32324L9.59374 4.49121L9.52343 6.24902V18.2841C9.52343 18.7763 9.9453 19.1982 10.4492 19.1982Z" fill="black" fill-opacity="0.85"/>
</g>
<defs>
<clipPath id="clip0_2207_8">
<rect width="20.8008" height="31.7695" fill="white" transform="translate(0.0546875 0.131836)"/>
</clipPath>
</defs>
</svg>
