<svg width="34" height="22" viewBox="0 0 34 22" fill="none" xmlns="http://www.w3.org/2000/svg">
<g clip-path="url(#clip0_2207_7342)">
<path d="M25.7914 21.7306H31.1352C32.6234 21.7306 33.3734 20.9923 33.3734 19.4454V14.1954C33.3734 12.6602 32.6234 11.9102 31.1352 11.9102H25.7914C24.3031 11.9102 23.5531 12.6602 23.5531 14.1954V19.4454C23.5531 20.9923 24.3031 21.7306 25.7914 21.7306Z" fill="black" fill-opacity="0.85"/>
<path d="M14.0375 21.7306H19.3695C20.8578 21.7306 21.6078 20.9923 21.6078 19.4454V14.1954C21.6078 12.6602 20.8578 11.9102 19.3695 11.9102H14.0375C12.5375 11.9102 11.7875 12.6602 11.7875 14.1954V19.4454C11.7875 20.9923 12.5375 21.7306 14.0375 21.7306Z" fill="black" fill-opacity="0.85"/>
<path d="M2.27185 21.7306H7.6156C9.10388 21.7306 9.85388 20.9923 9.85388 19.4454V14.1954C9.85388 12.6602 9.10388 11.9102 7.6156 11.9102H2.27185C0.783569 11.9102 0.0335693 12.6602 0.0335693 14.1954V19.4454C0.0335693 20.9923 0.783569 21.7306 2.27185 21.7306Z" fill="black" fill-opacity="0.85"/>
<path d="M25.7914 9.97656H31.1352C32.6234 9.97656 33.3734 9.22656 33.3734 7.67969V2.4414C33.3734 0.894531 32.6234 0.15625 31.1352 0.15625H25.7914C24.3031 0.15625 23.5531 0.894531 23.5531 2.4414V7.67969C23.5531 9.22656 24.3031 9.97656 25.7914 9.97656Z" fill="black" fill-opacity="0.85"/>
<path d="M14.0375 9.97656H19.3695C20.8578 9.97656 21.6078 9.22656 21.6078 7.67969V2.4414C21.6078 0.894531 20.8578 0.15625 19.3695 0.15625H14.0375C12.5375 0.15625 11.7875 0.894531 11.7875 2.4414V7.67969C11.7875 9.22656 12.5375 9.97656 14.0375 9.97656Z" fill="black" fill-opacity="0.85"/>
<path d="M2.27185 9.97656H7.6156C9.10388 9.97656 9.85388 9.22656 9.85388 7.67969V2.4414C9.85388 0.894531 9.10388 0.15625 7.6156 0.15625H2.27185C0.783569 0.15625 0.0335693 0.894531 0.0335693 2.4414V7.67969C0.0335693 9.22656 0.783569 9.97656 2.27185 9.97656Z" fill="black" fill-opacity="0.85"/>
</g>
<defs>
<clipPath id="clip0_2207_7342">
<rect width="33.3398" height="21.5977" fill="white" transform="translate(0.0335693 0.132812)"/>
</clipPath>
</defs>
</svg>
