<svg width="25" height="25" viewBox="0 0 25 25" fill="none" xmlns="http://www.w3.org/2000/svg">
<g clip-path="url(#clip0_2207_6407)">
<path d="M3.69654 19.2812H15.4621C17.8996 19.2812 19.1301 18.0625 19.1301 15.6484V3.78906C19.1301 1.375 17.8996 0.15625 15.4621 0.15625H3.69654C1.2356 0.15625 0.0168457 1.375 0.0168457 3.78906V15.6484C0.0168457 18.0625 1.2356 19.2812 3.69654 19.2812ZM3.71997 17.3945C2.5481 17.3945 1.90357 16.7617 1.90357 15.543V3.89453C1.90357 2.67578 2.5481 2.04297 3.71997 2.04297H15.427C16.5871 2.04297 17.2434 2.67578 17.2434 3.89453V15.543C17.2434 16.7617 16.5871 17.3945 15.427 17.3945H3.71997Z" fill="black" fill-opacity="0.85"/>
<path d="M9.38013 24.707H21.1457C23.5832 24.707 24.8137 23.4883 24.8137 21.0742V9.21484C24.8137 6.80078 23.5832 5.58203 21.1457 5.58203H9.38013C6.91919 5.58203 5.70044 6.78906 5.70044 9.21484V21.0742C5.70044 23.4883 6.91919 24.707 9.38013 24.707Z" fill="white"/>
<path d="M9.38013 24.707H21.1457C23.5832 24.707 24.8137 23.4883 24.8137 21.0742V9.21484C24.8137 6.80078 23.5832 5.58203 21.1457 5.58203H9.38013C6.91919 5.58203 5.70044 6.78906 5.70044 9.21484V21.0742C5.70044 23.4883 6.91919 24.707 9.38013 24.707Z" fill="black" fill-opacity="0.85"/>
</g>
<defs>
<clipPath id="clip0_2207_6407">
<rect width="24.7969" height="24.5742" fill="white" transform="translate(0.0168457 0.132812)"/>
</clipPath>
</defs>
</svg>
