<svg width="22" height="22" viewBox="0 0 22 22" fill="none" xmlns="http://www.w3.org/2000/svg">
<g clip-path="url(#clip0_2207_6319)">
<path d="M3.77417 21.7305H17.989C20.45 21.7305 21.6687 20.5117 21.6687 18.0976V3.78906C21.6687 1.375 20.45 0.15625 17.989 0.15625H3.77417C1.32495 0.15625 0.0944824 1.36328 0.0944824 3.78906V18.0976C0.0944824 20.5234 1.32495 21.7305 3.77417 21.7305ZM3.7976 19.8437C2.62573 19.8437 1.9812 19.2226 1.9812 18.0039V3.88281C1.9812 2.66406 2.62573 2.04297 3.7976 2.04297H17.9656C19.1257 2.04297 19.782 2.66406 19.782 3.88281V18.0039C19.782 19.2226 19.1257 19.8437 17.9656 19.8437H3.7976Z" fill="black" fill-opacity="0.85"/>
<path d="M13.5242 4.66797V17.2187C13.5242 17.9453 13.8289 18.2383 14.5789 18.2383H17.1336C17.8836 18.2383 18.1883 17.9453 18.1883 17.2187V4.66797C18.1883 3.92969 17.8836 3.63672 17.1336 3.63672H14.5789C13.8289 3.63672 13.5242 3.92969 13.5242 4.66797Z" fill="black" fill-opacity="0.85"/>
</g>
<defs>
<clipPath id="clip0_2207_6319">
<rect width="21.5742" height="21.5977" fill="white" transform="translate(0.0944824 0.132812)"/>
</clipPath>
</defs>
</svg>
