<svg width="24" height="26" viewBox="0 0 24 26" fill="none" xmlns="http://www.w3.org/2000/svg">
<g clip-path="url(#clip0_2207_21316)">
<path d="M11.9934 25.128C12.4621 25.128 12.9191 24.9757 13.4816 24.6475L22.6457 19.3155C23.5949 18.7647 23.9699 18.3428 23.9699 17.6983C23.9699 17.0538 23.5949 16.6319 22.6457 16.0694L13.4816 10.7491C12.9191 10.421 12.4621 10.2686 11.9934 10.2686C11.5129 10.2686 11.0676 10.421 10.5051 10.7491L1.32935 16.0694C0.380127 16.6319 0.0168457 17.0538 0.0168457 17.6983C0.0168457 18.3428 0.380127 18.7647 1.32935 19.3155L10.5051 24.6475C11.0676 24.9757 11.5129 25.128 11.9934 25.128Z" fill="black" fill-opacity="0.85"/>
<path d="M11.9934 15.5185C12.4621 15.5185 12.9191 15.3662 13.4816 15.038L22.6457 9.71778C23.5949 9.15528 23.9699 8.7334 23.9699 8.08887C23.9699 7.44434 23.5949 7.02246 22.6457 6.47168L13.4816 1.13965C12.9191 0.811524 12.4621 0.65918 11.9934 0.65918C11.5129 0.65918 11.0676 0.811524 10.5051 1.13965L1.32935 6.47168C0.380127 7.02246 0.0168457 7.44434 0.0168457 8.08887C0.0168457 8.7334 0.380127 9.15528 1.32935 9.71778L10.5051 15.038C11.0676 15.3662 11.5129 15.5185 11.9934 15.5185Z" fill="white"/>
<path d="M11.9934 15.5185C12.4621 15.5185 12.9191 15.3662 13.4816 15.038L22.6457 9.71778C23.5949 9.15528 23.9699 8.7334 23.9699 8.08887C23.9699 7.44434 23.5949 7.02246 22.6457 6.47168L13.4816 1.13965C12.9191 0.811524 12.4621 0.65918 11.9934 0.65918C11.5129 0.65918 11.0676 0.811524 10.5051 1.13965L1.32935 6.47168C0.380127 7.02246 0.0168457 7.44434 0.0168457 8.08887C0.0168457 8.7334 0.380127 9.15528 1.32935 9.71778L10.5051 15.038C11.0676 15.3662 11.5129 15.5185 11.9934 15.5185ZM11.9934 13.4677C11.8293 13.4677 11.6652 13.4209 11.466 13.3037L2.5481 8.20606C2.50123 8.18262 2.46607 8.14746 2.46607 8.08887C2.46607 8.03028 2.50123 8.00684 2.5481 7.97168L11.466 2.87403C11.6652 2.76856 11.8293 2.70996 11.9934 2.70996C12.1574 2.70996 12.3215 2.76856 12.509 2.87403L21.427 7.97168C21.4856 8.00684 21.5207 8.03028 21.5207 8.08887C21.5207 8.14746 21.4856 8.18262 21.427 8.20606L12.509 13.3037C12.3215 13.4209 12.1574 13.4677 11.9934 13.4677Z" fill="black" fill-opacity="0.85"/>
</g>
<defs>
<clipPath id="clip0_2207_21316">
<rect width="23.9531" height="24.9961" fill="white" transform="translate(0.0168457 0.131836)"/>
</clipPath>
</defs>
</svg>
