<svg width="24" height="23" viewBox="0 0 24 23" fill="none" xmlns="http://www.w3.org/2000/svg">
<g clip-path="url(#clip0_2207_6615)">
<path d="M18.4095 22.6445H20.9993C22.2767 22.6445 23.0267 21.8945 23.0267 20.5703V18.0742C23.0267 16.75 22.2767 16 20.9993 16H18.4095C17.1321 16 16.3821 16.75 16.3821 18.0742V20.5703C16.3821 21.8945 17.1321 22.6445 18.4095 22.6445ZM18.6321 21.0273C18.2103 21.0273 17.9876 20.8047 17.9876 20.3711V18.2734C17.9876 17.8281 18.2103 17.6055 18.6321 17.6055H20.7767C21.1868 17.6055 21.4095 17.8281 21.4095 18.2734V20.3711C21.4095 20.8047 21.1868 21.0273 20.7767 21.0273H18.6321Z" fill="black" fill-opacity="0.85"/>
<path d="M10.2297 22.6445H12.8313C14.1086 22.6445 14.8469 21.8945 14.8469 20.5703V18.0742C14.8469 16.75 14.1086 16 12.8313 16H10.2297C8.95239 16 8.21411 16.75 8.21411 18.0742V20.5703C8.21411 21.8945 8.95239 22.6445 10.2297 22.6445ZM10.4523 21.0273C10.0305 21.0273 9.81958 20.8047 9.81958 20.3711V18.2734C9.81958 17.8281 10.0305 17.6055 10.4523 17.6055H12.6086C13.0188 17.6055 13.2414 17.8281 13.2414 18.2734V20.3711C13.2414 20.8047 13.0188 21.0273 12.6086 21.0273H10.4523Z" fill="black" fill-opacity="0.85"/>
<path d="M2.07348 22.6445H4.66333C5.94067 22.6445 6.69067 21.8945 6.69067 20.5703V18.0742C6.69067 16.75 5.94067 16 4.66333 16H2.07348C0.796142 16 0.0461426 16.75 0.0461426 18.0742V20.5703C0.0461426 21.8945 0.796142 22.6445 2.07348 22.6445ZM2.29614 21.0273C1.87426 21.0273 1.66333 20.8047 1.66333 20.3711V18.2734C1.66333 17.8281 1.87426 17.6055 2.29614 17.6055H4.44067C4.85083 17.6055 5.0852 17.8281 5.0852 18.2734V20.3711C5.0852 20.8047 4.85083 21.0273 4.44067 21.0273H2.29614Z" fill="black" fill-opacity="0.85"/>
<path d="M18.4095 14.7109H20.9993C22.2767 14.7109 23.0267 13.9726 23.0267 12.6484V10.1406C23.0267 8.81641 22.2767 8.06641 20.9993 8.06641H18.4095C17.1321 8.06641 16.3821 8.81641 16.3821 10.1406V12.6484C16.3821 13.9726 17.1321 14.7109 18.4095 14.7109ZM18.6321 13.1055C18.2103 13.1055 17.9876 12.8828 17.9876 12.4375V10.3281C17.9876 9.89454 18.2103 9.67188 18.6321 9.67188H20.7767C21.1868 9.67188 21.4095 9.89454 21.4095 10.3281V12.4375C21.4095 12.8828 21.1868 13.1055 20.7767 13.1055H18.6321Z" fill="black" fill-opacity="0.85"/>
<path d="M10.2297 14.7461H12.8195C14.0969 14.7461 14.8469 13.9961 14.8469 12.6719V10.1758C14.8469 8.85156 14.0969 8.08984 12.8195 8.08984H10.2297C8.95239 8.08984 8.20239 8.85156 8.20239 10.1758V12.6719C8.20239 13.9961 8.95239 14.7461 10.2297 14.7461Z" fill="black" fill-opacity="0.85"/>
<path d="M2.07348 14.7109H4.66333C5.94067 14.7109 6.69067 13.9726 6.69067 12.6484V10.1406C6.69067 8.81641 5.94067 8.06641 4.66333 8.06641H2.07348C0.796142 8.06641 0.0461426 8.81641 0.0461426 10.1406V12.6484C0.0461426 13.9726 0.796142 14.7109 2.07348 14.7109ZM2.29614 13.1055C1.87426 13.1055 1.66333 12.8828 1.66333 12.4375V10.3281C1.66333 9.89454 1.87426 9.67188 2.29614 9.67188H4.44067C4.85083 9.67188 5.0852 9.89454 5.0852 10.3281V12.4375C5.0852 12.8828 4.85083 13.1055 4.44067 13.1055H2.29614Z" fill="black" fill-opacity="0.85"/>
<path d="M18.4095 6.77734H20.9993C22.2767 6.77734 23.0267 6.02734 23.0267 4.70312V2.20703C23.0267 0.882812 22.2767 0.132812 20.9993 0.132812H18.4095C17.1321 0.132812 16.3821 0.882812 16.3821 2.20703V4.70312C16.3821 6.02734 17.1321 6.77734 18.4095 6.77734ZM18.6321 5.17187C18.2103 5.17187 17.9876 4.94922 17.9876 4.5039V2.40625C17.9876 1.97265 18.2103 1.75 18.6321 1.75H20.7767C21.1868 1.75 21.4095 1.97265 21.4095 2.40625V4.5039C21.4095 4.94922 21.1868 5.17187 20.7767 5.17187H18.6321Z" fill="black" fill-opacity="0.85"/>
<path d="M10.2297 6.77734H12.8313C14.1086 6.77734 14.8469 6.02734 14.8469 4.70312V2.20703C14.8469 0.882812 14.1086 0.132812 12.8313 0.132812H10.2297C8.95239 0.132812 8.21411 0.882812 8.21411 2.20703V4.70312C8.21411 6.02734 8.95239 6.77734 10.2297 6.77734ZM10.4523 5.17187C10.0305 5.17187 9.81958 4.94922 9.81958 4.5039V2.40625C9.81958 1.97265 10.0305 1.75 10.4523 1.75H12.6086C13.0188 1.75 13.2414 1.97265 13.2414 2.40625V4.5039C13.2414 4.94922 13.0188 5.17187 12.6086 5.17187H10.4523Z" fill="black" fill-opacity="0.85"/>
<path d="M2.07348 6.77734H4.66333C5.94067 6.77734 6.69067 6.02734 6.69067 4.70312V2.20703C6.69067 0.882812 5.94067 0.132812 4.66333 0.132812H2.07348C0.796142 0.132812 0.0461426 0.882812 0.0461426 2.20703V4.70312C0.0461426 6.02734 0.796142 6.77734 2.07348 6.77734ZM2.29614 5.17187C1.87426 5.17187 1.66333 4.94922 1.66333 4.5039V2.40625C1.66333 1.97265 1.87426 1.75 2.29614 1.75H4.44067C4.85083 1.75 5.0852 1.97265 5.0852 2.40625V4.5039C5.0852 4.94922 4.85083 5.17187 4.44067 5.17187H2.29614Z" fill="black" fill-opacity="0.85"/>
</g>
<defs>
<clipPath id="clip0_2207_6615">
<rect width="22.9805" height="22.5586" fill="white" transform="translate(0.0461426 0.132812)"/>
</clipPath>
</defs>
</svg>
