<svg width="22" height="22" viewBox="0 0 22 22" fill="none" xmlns="http://www.w3.org/2000/svg">
<g clip-path="url(#clip0_2207_21942)">
<path d="M1.09594 21.8008C1.64672 21.8008 2.10375 21.3437 2.10375 20.793C2.10375 20.2422 1.64672 19.7851 1.09594 19.7851C0.545166 19.7851 0.0881348 20.2422 0.0881348 20.793C0.0881348 21.3437 0.545166 21.8008 1.09594 21.8008ZM1.09594 18.5312C1.64672 18.5312 2.10375 18.0742 2.10375 17.5234C2.10375 16.9609 1.64672 16.5156 1.09594 16.5156C0.545166 16.5156 0.0881348 16.9609 0.0881348 17.5234C0.0881348 18.0742 0.545166 18.5312 1.09594 18.5312ZM1.09594 15.25C1.64672 15.25 2.10375 14.793 2.10375 14.2422C2.10375 13.6914 1.64672 13.2344 1.09594 13.2344C0.545166 13.2344 0.0881348 13.6914 0.0881348 14.2422C0.0881348 14.793 0.545166 15.25 1.09594 15.25ZM1.09594 11.9687C1.64672 11.9687 2.10375 11.5117 2.10375 10.9609C2.10375 10.4101 1.64672 9.95312 1.09594 9.95312C0.545166 9.95312 0.0881348 10.4101 0.0881348 10.9609C0.0881348 11.5117 0.545166 11.9687 1.09594 11.9687ZM4.37719 11.9687C4.92797 11.9687 5.38501 11.5117 5.38501 10.9609C5.38501 10.4101 4.92797 9.95312 4.37719 9.95312C3.82641 9.95312 3.36938 10.4101 3.36938 10.9609C3.36938 11.5117 3.82641 11.9687 4.37719 11.9687ZM7.64672 11.9687C8.19751 11.9687 8.65454 11.5117 8.65454 10.9609C8.65454 10.4101 8.19751 9.95312 7.64672 9.95312C7.09594 9.95312 6.63891 10.4101 6.63891 10.9609C6.63891 11.5117 7.09594 11.9687 7.64672 11.9687ZM10.9279 11.9687C11.4787 11.9687 11.9358 11.5117 11.9358 10.9609C11.9358 10.4101 11.4787 9.95312 10.9279 9.95312C10.3772 9.95312 9.92017 10.4101 9.92017 10.9609C9.92017 11.5117 10.3772 11.9687 10.9279 11.9687ZM10.9279 15.25C11.4787 15.25 11.9358 14.793 11.9358 14.2422C11.9358 13.6914 11.4787 13.2344 10.9279 13.2344C10.3772 13.2344 9.92017 13.6914 9.92017 14.2422C9.92017 14.793 10.3772 15.25 10.9279 15.25ZM10.9279 18.5312C11.4787 18.5312 11.9358 18.0742 11.9358 17.5234C11.9358 16.9609 11.4787 16.5156 10.9279 16.5156C10.3772 16.5156 9.92017 16.9609 9.92017 17.5234C9.92017 18.0742 10.3772 18.5312 10.9279 18.5312ZM10.9279 21.8008C11.4787 21.8008 11.9358 21.3437 11.9358 20.793C11.9358 20.2422 11.4787 19.7851 10.9279 19.7851C10.3772 19.7851 9.92017 20.2422 9.92017 20.793C9.92017 21.3437 10.3772 21.8008 10.9279 21.8008ZM7.64672 21.8008C8.19751 21.8008 8.65454 21.3437 8.65454 20.793C8.65454 20.2422 8.19751 19.7851 7.64672 19.7851C7.09594 19.7851 6.63891 20.2422 6.63891 20.793C6.63891 21.3437 7.09594 21.8008 7.64672 21.8008ZM4.37719 21.8008C4.92797 21.8008 5.38501 21.3437 5.38501 20.793C5.38501 20.2422 4.92797 19.7851 4.37719 19.7851C3.82641 19.7851 3.36938 20.2422 3.36938 20.793C3.36938 21.3437 3.82641 21.8008 4.37719 21.8008Z" fill="black" fill-opacity="0.85"/>
<path d="M13.2951 21.7656H20.7483C21.3108 21.7656 21.674 21.3906 21.674 20.8281V3.02734L19.7873 4.8789V19.539C19.7873 19.7851 19.7053 19.8789 19.4475 19.8789H13.2951V21.7656ZM0.0998535 8.59375H1.98657V2.41797C1.98657 2.16015 2.08032 2.07812 2.32641 2.07812H16.7404L18.6506 0.191406H1.03735C0.474854 0.191406 0.0998535 0.554687 0.0998535 1.11719V8.59375Z" fill="black" fill-opacity="0.85"/>
<path d="M21.1115 0.671963C20.8303 0.367276 20.385 0.390713 20.1154 0.671963L15.8733 4.84384L14.842 3.77743C14.467 3.40243 13.9045 3.61337 13.799 4.14071L12.9904 7.92587C12.8733 8.41806 13.2951 8.81649 13.7873 8.69931L17.5608 7.91415C18.1115 7.79696 18.299 7.26962 17.9358 6.89462L16.8693 5.82821L21.1115 1.66806C21.3928 1.38681 21.3811 0.953213 21.1115 0.671963Z" fill="black" fill-opacity="0.85"/>
</g>
<defs>
<clipPath id="clip0_2207_21942">
<rect width="21.5859" height="21.668" fill="white" transform="translate(0.0881348 0.132812)"/>
</clipPath>
</defs>
</svg>
