<svg width="27" height="27" viewBox="0 0 27 27" fill="none" xmlns="http://www.w3.org/2000/svg">
<g clip-path="url(#clip0_2207_6237)">
<path d="M6.24218 24.187H20.4687C22.9179 24.187 24.1484 22.9683 24.1484 20.5542V6.2456C24.1484 3.83154 22.9179 2.61279 20.4687 2.61279H6.24218C3.80468 2.61279 2.57422 3.81982 2.57422 6.2456V20.5542C2.57422 22.98 3.80468 24.187 6.24218 24.187Z" fill="black" fill-opacity="0.85"/>
<path d="M22.7304 25.9683C23.6328 26.8472 25.0859 26.8589 25.9531 25.9448C26.832 25.0542 26.8203 23.6362 25.9414 22.7573L3.98047 0.796394C3.10156 -0.0825121 1.66015 -0.0942311 0.757813 0.796394C-0.121094 1.66358 -0.121094 3.14014 0.757813 4.00733L22.7304 25.9683Z" fill="white"/>
<path d="M23.7031 24.9956C24.0547 25.3472 24.6406 25.3472 24.9804 24.9956C25.332 24.644 25.332 24.0698 24.9804 23.7183L3.01953 1.76906C2.66797 1.4175 2.08203 1.40578 1.73047 1.76906C1.3789 2.1089 1.3789 2.69484 1.73047 3.0464L23.7031 24.9956Z" fill="black" fill-opacity="0.85"/>
</g>
<defs>
<clipPath id="clip0_2207_6237">
<rect width="26.5078" height="26.5108" fill="white" transform="translate(0.0986328 0.132812)"/>
</clipPath>
</defs>
</svg>
