<svg width="24" height="25" viewBox="0 0 24 25" fill="none" xmlns="http://www.w3.org/2000/svg">
<g clip-path="url(#clip0_2207_153)">
<path d="M12.0329 24.038C18.572 24.038 23.986 18.6123 23.986 12.0849C23.986 5.5459 18.5603 0.131836 12.0212 0.131836C5.49389 0.131836 0.079834 5.5459 0.079834 12.0849C0.079834 18.6123 5.50561 24.038 12.0329 24.038ZM12.0329 22.0459C6.50171 22.0459 2.08374 17.6162 2.08374 12.0849C2.08374 6.55372 6.48999 2.12403 12.0212 2.12403C17.5525 2.12403 21.9939 6.55372 21.9939 12.0849C21.9939 17.6162 17.5642 22.0459 12.0329 22.0459Z" fill="black" fill-opacity="0.85"/>
<path d="M8.44702 17.663H15.3962C16.5212 17.663 17.2009 16.9951 17.2009 15.706V9.60052L15.9939 10.8193V15.6474C15.9939 16.1865 15.7243 16.4443 15.3845 16.4443H8.45874C7.95483 16.4443 7.6853 16.1865 7.6853 15.6474V8.93255C7.6853 8.39349 7.95483 8.12396 8.45874 8.12396H13.3689L14.5876 6.90521H8.44702C7.14624 6.90521 6.46655 7.59661 6.46655 8.88568V15.706C6.46655 16.9951 7.14624 17.663 8.44702 17.663ZM10.6618 13.8076L11.8454 13.3154L17.2243 7.93646L16.2048 6.94036L10.8376 12.3193L10.2986 13.4326C10.1931 13.667 10.4392 13.8896 10.6618 13.8076ZM17.7282 7.43255L18.2204 6.88177C18.4782 6.61224 18.4665 6.26068 18.2439 6.0263L18.0915 5.89739C17.8571 5.6513 17.4821 5.67474 17.2243 5.92083L16.7204 6.41302L17.7282 7.43255Z" fill="black" fill-opacity="0.85"/>
</g>
<defs>
<clipPath id="clip0_2207_153">
<rect width="23.9062" height="23.918" fill="white" transform="translate(0.079834 0.131836)"/>
</clipPath>
</defs>
</svg>
