<svg width="24" height="27" viewBox="0 0 24 27" fill="none" xmlns="http://www.w3.org/2000/svg">
<g clip-path="url(#clip0_2207_21366)">
<path d="M23.1484 8.37227C23.1484 7.15352 22.75 6.46212 21.707 5.85274L12.3203 0.426957C11.1601 -0.229293 9.68359 0.192582 9.68359 1.85665V12.7785C9.68359 14.0207 10 14.6886 11.1484 15.3449L20.3242 20.6418C21.9765 21.591 23.1484 20.9582 23.1484 18.9894V8.37227ZM20.7226 7.55196C21.0976 7.77462 21.2382 7.93868 21.2382 8.44259V18.7082C21.2382 18.8254 21.1679 18.8605 21.0625 18.8019L12.0976 13.634C11.6992 13.3996 11.5937 13.2004 11.5937 12.7433V2.50118C11.5937 2.38399 11.6757 2.3254 11.7929 2.39571L20.7226 7.55196Z" fill="black" fill-opacity="0.85"/>
<path d="M18.4726 11.0676C18.4726 9.86065 18.0859 9.16925 17.0312 8.54815L7.64453 3.13409C6.48437 2.46612 5.00781 2.89972 5.00781 4.55206V15.4739C5.00781 16.7161 5.33593 17.3841 6.48437 18.0403L15.6484 23.3489C17.3007 24.2864 18.4726 23.6536 18.4726 21.6966V11.0676Z" fill="white"/>
<path d="M18.4726 11.0676C18.4726 9.86065 18.0859 9.16925 17.0312 8.54815L7.64453 3.13409C6.48437 2.46612 5.00781 2.89972 5.00781 4.55206V15.4739C5.00781 16.7161 5.33593 17.3841 6.48437 18.0403L15.6484 23.3489C17.3007 24.2864 18.4726 23.6536 18.4726 21.6966V11.0676ZM16.0468 10.2473C16.4218 10.47 16.5625 10.6341 16.5625 11.138V21.4036C16.5625 21.5208 16.4921 21.5559 16.3867 21.4973L7.42187 16.3294C7.02343 16.095 6.91796 15.8958 6.91796 15.4387V5.19659C6.91796 5.09112 7.01172 5.02081 7.11718 5.09112L16.0468 10.2473Z" fill="black" fill-opacity="0.85"/>
<path d="M13.4921 13.9971C13.4921 12.7901 13.0937 12.0987 12.0507 11.4893L2.66406 6.0635C1.5039 5.40725 0.0273438 5.82912 0.0273438 7.48147V18.4034C0.0273438 19.6456 0.34375 20.3135 1.49218 20.9698L10.6679 26.2784C12.3203 27.2276 13.4921 26.5831 13.4921 24.626V13.9971Z" fill="white"/>
<path d="M13.4921 13.9971C13.4921 12.7901 13.0937 12.0987 12.0507 11.4893L2.66406 6.0635C1.5039 5.40725 0.0273438 5.82912 0.0273438 7.48147V18.4034C0.0273438 19.6456 0.34375 20.3135 1.49218 20.9698L10.6679 26.2784C12.3203 27.2276 13.4921 26.5831 13.4921 24.626V13.9971ZM11.0664 13.1768C11.4414 13.3995 11.582 13.5635 11.582 14.0674V24.3331C11.582 24.4503 11.5117 24.4971 11.4062 24.4385L2.4414 19.2589C2.04296 19.0245 1.9375 18.837 1.9375 18.3682V8.126C1.9375 8.02053 2.01953 7.96194 2.13672 8.02053L11.0664 13.1768Z" fill="black" fill-opacity="0.85"/>
</g>
<defs>
<clipPath id="clip0_2207_21366">
<rect width="23.1211" height="26.7348" fill="white" transform="translate(0.0273438 0.131836)"/>
</clipPath>
</defs>
</svg>
