<svg width="22" height="22" viewBox="0 0 22 22" fill="none" xmlns="http://www.w3.org/2000/svg">
<g clip-path="url(#clip0_2207_6712)">
<path d="M0.0756836 20.7827C0.0756836 21.3452 0.450684 21.7085 1.01318 21.7085H20.7241C21.2866 21.7085 21.6499 21.3452 21.6499 20.7827V1.07178C21.6499 0.509277 21.2866 0.134277 20.7241 0.134277H1.01318C0.450684 0.134277 0.0756836 0.509277 0.0756836 1.07178V20.7827ZM1.9624 19.482V2.36084C1.9624 2.11475 2.05615 2.021 2.30224 2.021H19.4234C19.6812 2.021 19.7632 2.11475 19.7632 2.36084V19.482C19.7632 19.7398 19.6812 19.8218 19.4234 19.8218H2.30224C2.05615 19.8218 1.9624 19.7398 1.9624 19.482Z" fill="black" fill-opacity="0.85"/>
</g>
<defs>
<clipPath id="clip0_2207_6712">
<rect width="21.5742" height="21.5977" fill="white" transform="translate(0.0756836 0.134277)"/>
</clipPath>
</defs>
</svg>
