<svg width="25" height="32" viewBox="0 0 25 32" fill="none" xmlns="http://www.w3.org/2000/svg">
<g clip-path="url(#clip0_2207_6527)">
<path d="M8.4392 13.6695H15.9392C16.9821 13.6695 17.5915 13.0835 17.5915 12.0523V3.66161C17.5915 2.63036 16.9821 2.04443 15.9392 2.04443H8.4392C7.39623 2.04443 6.78687 2.63036 6.78687 3.66161V12.0523C6.78687 13.0835 7.39623 13.6695 8.4392 13.6695Z" fill="black" fill-opacity="0.85"/>
<path d="M6.65795 23.4195H17.7321C20.0642 23.4195 21.5993 21.896 21.5993 19.5757V7.37646C21.5993 5.05615 20.0642 3.54443 17.7321 3.54443H6.65795C4.32592 3.54443 2.77905 5.05615 2.77905 7.37646V19.5757C2.77905 21.896 4.32592 23.4195 6.65795 23.4195Z" fill="white"/>
<path d="M6.52905 21.8257H17.861C19.2321 21.8257 20.0056 21.0523 20.0056 19.7046V7.24755C20.0056 5.89989 19.2321 5.13818 17.861 5.13818H6.52905C5.15795 5.13818 4.3728 5.89989 4.3728 7.24755V19.7046C4.3728 21.0523 5.15795 21.8257 6.52905 21.8257Z" fill="black" fill-opacity="0.85"/>
<path d="M5.59156 31.1304H18.7868C22.279 31.1304 24.3532 29.0796 24.3532 25.6109V12.3218C24.3532 8.85303 22.279 6.80225 18.7868 6.80225H5.59156C2.09937 6.80225 0.0251465 8.84131 0.0251465 12.3218V25.6109C0.0251465 29.0796 2.09937 31.1304 5.59156 31.1304Z" fill="white"/>
<path d="M5.59156 29.2437H18.7868C21.236 29.2437 22.4665 28.0249 22.4665 25.6109V12.3218C22.4665 9.90771 21.236 8.68896 18.7868 8.68896H5.59156C3.14234 8.68896 1.91187 9.89599 1.91187 12.3218V25.6109C1.91187 28.0249 3.14234 29.2437 5.59156 29.2437ZM5.62671 27.357C4.45484 27.357 3.79859 26.7241 3.79859 25.5054V12.4155C3.79859 11.2085 4.45484 10.5757 5.62671 10.5757H18.7634C19.9118 10.5757 20.5798 11.2085 20.5798 12.4155V25.5054C20.5798 26.7241 19.9118 27.357 18.7634 27.357H5.62671Z" fill="black" fill-opacity="0.85"/>
</g>
<defs>
<clipPath id="clip0_2207_6527">
<rect width="24.3281" height="30.9961" fill="white" transform="translate(0.0251465 0.134277)"/>
</clipPath>
</defs>
</svg>
