<svg width="28" height="22" viewBox="0 0 28 22" fill="none" xmlns="http://www.w3.org/2000/svg">
<g clip-path="url(#clip0_2207_2421)">
<path d="M3.74903 21.706H24.0224C26.4834 21.706 27.7021 20.499 27.7021 18.0849V3.76465C27.7021 1.35059 26.4834 0.131836 24.0224 0.131836H3.74903C1.29981 0.131836 0.0693359 1.35059 0.0693359 3.76465V18.0849C0.0693359 20.499 1.29981 21.706 3.74903 21.706ZM3.77246 19.8193C2.60059 19.8193 1.95606 19.1982 1.95606 17.9795V3.87012C1.95606 2.65137 2.60059 2.01856 3.77246 2.01856H23.999C25.1591 2.01856 25.8154 2.65137 25.8154 3.87012V17.9795C25.8154 19.1982 25.1591 19.8193 23.999 19.8193H3.77246Z" fill="black" fill-opacity="0.85"/>
<path d="M5.31933 15.8466H11.7998C12.9248 15.8466 13.4755 15.2959 13.4755 14.206V7.65528C13.4755 6.56543 12.9248 6.01465 11.7998 6.01465H5.31933C4.20605 6.01465 3.64355 6.55372 3.64355 7.65528V14.206C3.64355 15.2959 4.20605 15.8466 5.31933 15.8466ZM5.67089 14.3115C5.34277 14.3115 5.17871 14.1591 5.17871 13.8545V8.00684C5.17871 7.69043 5.34277 7.54981 5.67089 7.54981H11.4482C11.7763 7.54981 11.9404 7.70215 11.9404 8.00684V13.8545C11.9404 14.1591 11.7763 14.3115 11.4482 14.3115H5.67089ZM19.6631 15.7177C20.4248 15.7177 21.1396 15.6474 21.5966 15.4599C21.9131 15.331 22.1123 15.1318 22.1123 14.8271C22.1123 14.5341 21.8896 14.2998 21.5966 14.2998C21.4677 14.2998 21.374 14.3349 21.2216 14.3584C20.8701 14.4052 20.5185 14.5459 19.792 14.5459C17.5185 14.5459 16.1123 13.1748 16.1123 10.9482C16.1123 8.75684 17.542 7.25684 19.6279 7.25684C21.7021 7.25684 23.0966 8.56934 23.0966 10.5146C23.0966 11.6748 22.7451 12.4013 22.1826 12.4013C21.831 12.4013 21.7021 12.249 21.7021 11.9091V9.00293C21.7021 8.65137 21.4443 8.38184 21.1045 8.38184C20.8584 8.38184 20.6123 8.56934 20.542 8.80372V8.89746C20.2724 8.56934 19.874 8.38184 19.3232 8.38184C18.081 8.38184 17.2021 9.45996 17.2021 10.9482C17.2021 12.4834 18.081 13.5263 19.3584 13.5263C19.9091 13.5263 20.4131 13.2802 20.7412 12.8349C20.999 13.2802 21.4912 13.5263 22.0771 13.5263C23.3896 13.5263 24.2568 12.3076 24.2568 10.4443C24.2568 7.88965 22.3584 6.12012 19.6279 6.12012C16.8037 6.12012 14.8701 8.07715 14.8701 10.9365C14.8701 13.8076 16.792 15.7177 19.6631 15.7177ZM19.5341 12.3427C18.9013 12.3427 18.5029 11.8154 18.5029 10.9248C18.5029 10.0459 18.9013 9.53028 19.5459 9.53028C20.1787 9.53028 20.5771 10.0459 20.5771 10.8896C20.5771 11.792 20.1787 12.3427 19.5341 12.3427Z" fill="black" fill-opacity="0.85"/>
</g>
<defs>
<clipPath id="clip0_2207_2421">
<rect width="27.6328" height="21.5742" fill="white" transform="translate(0.0693359 0.131836)"/>
</clipPath>
</defs>
</svg>
