<svg width="24" height="26" viewBox="0 0 24 26" fill="none" xmlns="http://www.w3.org/2000/svg">
<g clip-path="url(#clip0_2207_21310)">
<path d="M11.9976 25.128C12.4663 25.128 12.9233 24.9757 13.4858 24.6475L22.6499 19.3155C23.5991 18.7647 23.9741 18.3428 23.9741 17.6983C23.9741 17.0538 23.5991 16.6319 22.6499 16.0694L13.4858 10.7491C12.9233 10.421 12.4663 10.2686 11.9976 10.2686C11.5171 10.2686 11.0718 10.421 10.5093 10.7491L1.3335 16.0694C0.384277 16.6319 0.0209961 17.0538 0.0209961 17.6983C0.0209961 18.3428 0.384277 18.7647 1.3335 19.3155L10.5093 24.6475C11.0718 24.9757 11.5171 25.128 11.9976 25.128ZM11.9976 23.0772C11.8335 23.0772 11.6694 23.0186 11.4702 22.9131L2.55225 17.8155C2.50538 17.7803 2.47022 17.7569 2.47022 17.6983C2.47022 17.6397 2.50538 17.6046 2.55225 17.5811L11.4702 12.4835C11.6694 12.3663 11.8335 12.3194 11.9976 12.3194C12.1616 12.3194 12.3257 12.3663 12.5132 12.4835L21.4312 17.5811C21.4898 17.6046 21.5249 17.6397 21.5249 17.6983C21.5249 17.7569 21.4898 17.7803 21.4312 17.8155L12.5132 22.9131C12.3257 23.0186 12.1616 23.0772 11.9976 23.0772Z" fill="black" fill-opacity="0.85"/>
<path d="M11.9976 15.5185C12.4663 15.5185 12.9233 15.3662 13.4858 15.038L22.6499 9.71778C23.5991 9.15528 23.9741 8.7334 23.9741 8.08887C23.9741 7.44434 23.5991 7.02246 22.6499 6.47168L13.4858 1.13965C12.9233 0.811524 12.4663 0.65918 11.9976 0.65918C11.5171 0.65918 11.0718 0.811524 10.5093 1.13965L1.3335 6.47168C0.384277 7.02246 0.0209961 7.44434 0.0209961 8.08887C0.0209961 8.7334 0.384277 9.15528 1.3335 9.71778L10.5093 15.038C11.0718 15.3662 11.5171 15.5185 11.9976 15.5185Z" fill="white"/>
<path d="M11.9976 15.5185C12.4663 15.5185 12.9233 15.3662 13.4858 15.038L22.6499 9.71778C23.5991 9.15528 23.9741 8.7334 23.9741 8.08887C23.9741 7.44434 23.5991 7.02246 22.6499 6.47168L13.4858 1.13965C12.9233 0.811524 12.4663 0.65918 11.9976 0.65918C11.5171 0.65918 11.0718 0.811524 10.5093 1.13965L1.3335 6.47168C0.384277 7.02246 0.0209961 7.44434 0.0209961 8.08887C0.0209961 8.7334 0.384277 9.15528 1.3335 9.71778L10.5093 15.038C11.0718 15.3662 11.5171 15.5185 11.9976 15.5185Z" fill="black" fill-opacity="0.85"/>
</g>
<defs>
<clipPath id="clip0_2207_21310">
<rect width="23.9531" height="24.9961" fill="white" transform="translate(0.0209961 0.131836)"/>
</clipPath>
</defs>
</svg>
