<svg width="22" height="22" viewBox="0 0 22 22" fill="none" xmlns="http://www.w3.org/2000/svg">
<g clip-path="url(#clip0_2207_21550)">
<path d="M1.08764 2.1499C1.63842 2.1499 2.09545 1.69287 2.09545 1.14209C2.09545 0.591308 1.63842 0.134277 1.08764 0.134277C0.536865 0.134277 0.079834 0.591308 0.079834 1.14209C0.079834 1.69287 0.536865 2.1499 1.08764 2.1499ZM4.35717 2.1499C4.91967 2.1499 5.36499 1.69287 5.36499 1.14209C5.36499 0.591308 4.91967 0.134277 4.35717 0.134277C3.80639 0.134277 3.34936 0.591308 3.34936 1.14209C3.34936 1.69287 3.80639 2.1499 4.35717 2.1499ZM7.63842 2.1499C8.18921 2.1499 8.64624 1.69287 8.64624 1.14209C8.64624 0.591308 8.18921 0.134277 7.63842 0.134277C7.08764 0.134277 6.63061 0.591308 6.63061 1.14209C6.63061 1.69287 7.08764 2.1499 7.63842 2.1499ZM10.9079 2.1499C11.4587 2.1499 11.9157 1.69287 11.9157 1.14209C11.9157 0.591308 11.4587 0.134277 10.9079 0.134277C10.3571 0.134277 9.90014 0.591308 9.90014 1.14209C9.90014 1.69287 10.3571 2.1499 10.9079 2.1499ZM14.1892 2.1499C14.74 2.1499 15.197 1.69287 15.197 1.14209C15.197 0.591308 14.74 0.134277 14.1892 0.134277C13.6384 0.134277 13.1814 0.591308 13.1814 1.14209C13.1814 1.69287 13.6384 2.1499 14.1892 2.1499ZM17.4587 2.1499C18.0095 2.1499 18.4665 1.69287 18.4665 1.14209C18.4665 0.591308 18.0095 0.134277 17.4587 0.134277C16.9079 0.134277 16.4509 0.591308 16.4509 1.14209C16.4509 1.69287 16.9079 2.1499 17.4587 2.1499ZM20.74 2.1499C21.2907 2.1499 21.7478 1.69287 21.7478 1.14209C21.7478 0.591308 21.2907 0.134277 20.74 0.134277C20.1892 0.134277 19.7321 0.591308 19.7321 1.14209C19.7321 1.69287 20.1892 2.1499 20.74 2.1499ZM20.74 5.41944C21.2907 5.41944 21.7478 4.9624 21.7478 4.41162C21.7478 3.86084 21.2907 3.40381 20.74 3.40381C20.1892 3.40381 19.7321 3.86084 19.7321 4.41162C19.7321 4.9624 20.1892 5.41944 20.74 5.41944ZM20.74 8.68897C21.2907 8.68897 21.7478 8.24366 21.7478 7.68116C21.7478 7.13037 21.2907 6.67334 20.74 6.67334C20.1892 6.67334 19.7321 7.13037 19.7321 7.68116C19.7321 8.24366 20.1892 8.68897 20.74 8.68897ZM20.74 11.9702C21.2907 11.9702 21.7478 11.5132 21.7478 10.9624C21.7478 10.4116 21.2907 9.95459 20.74 9.95459C20.1892 9.95459 19.7321 10.4116 19.7321 10.9624C19.7321 11.5132 20.1892 11.9702 20.74 11.9702ZM20.74 15.2398C21.2907 15.2398 21.7478 14.7827 21.7478 14.232C21.7478 13.6812 21.2907 13.2241 20.74 13.2241C20.1892 13.2241 19.7321 13.6812 19.7321 14.232C19.7321 14.7827 20.1892 15.2398 20.74 15.2398ZM20.74 18.521C21.2907 18.521 21.7478 18.064 21.7478 17.5132C21.7478 16.9624 21.2907 16.5054 20.74 16.5054C20.1892 16.5054 19.7321 16.9624 19.7321 17.5132C19.7321 18.064 20.1892 18.521 20.74 18.521ZM20.74 21.7905C21.2907 21.7905 21.7478 21.3335 21.7478 20.7827C21.7478 20.232 21.2907 19.7749 20.74 19.7749C20.1892 19.7749 19.7321 20.232 19.7321 20.7827C19.7321 21.3335 20.1892 21.7905 20.74 21.7905ZM17.4587 21.7905C18.0095 21.7905 18.4665 21.3335 18.4665 20.7827C18.4665 20.232 18.0095 19.7749 17.4587 19.7749C16.9079 19.7749 16.4509 20.232 16.4509 20.7827C16.4509 21.3335 16.9079 21.7905 17.4587 21.7905ZM14.1892 21.7905C14.74 21.7905 15.197 21.3335 15.197 20.7827C15.197 20.232 14.74 19.7749 14.1892 19.7749C13.6384 19.7749 13.1814 20.232 13.1814 20.7827C13.1814 21.3335 13.6384 21.7905 14.1892 21.7905ZM10.9079 21.7905C11.4587 21.7905 11.9157 21.3335 11.9157 20.7827C11.9157 20.232 11.4587 19.7749 10.9079 19.7749C10.3571 19.7749 9.90014 20.232 9.90014 20.7827C9.90014 21.3335 10.3571 21.7905 10.9079 21.7905ZM7.63842 21.7905C8.18921 21.7905 8.64624 21.3335 8.64624 20.7827C8.64624 20.232 8.18921 19.7749 7.63842 19.7749C7.08764 19.7749 6.63061 20.232 6.63061 20.7827C6.63061 21.3335 7.08764 21.7905 7.63842 21.7905ZM4.35717 21.7905C4.91967 21.7905 5.36499 21.3335 5.36499 20.7827C5.36499 20.232 4.91967 19.7749 4.35717 19.7749C3.80639 19.7749 3.34936 20.232 3.34936 20.7827C3.34936 21.3335 3.80639 21.7905 4.35717 21.7905ZM1.08764 21.7905C1.63842 21.7905 2.09545 21.3335 2.09545 20.7827C2.09545 20.232 1.63842 19.7749 1.08764 19.7749C0.536865 19.7749 0.079834 20.232 0.079834 20.7827C0.079834 21.3335 0.536865 21.7905 1.08764 21.7905ZM1.08764 18.521C1.63842 18.521 2.09545 18.064 2.09545 17.5132C2.09545 16.9624 1.63842 16.5054 1.08764 16.5054C0.536865 16.5054 0.079834 16.9624 0.079834 17.5132C0.079834 18.064 0.536865 18.521 1.08764 18.521ZM1.08764 15.2398C1.63842 15.2398 2.09545 14.7827 2.09545 14.232C2.09545 13.6812 1.63842 13.2241 1.08764 13.2241C0.536865 13.2241 0.079834 13.6812 0.079834 14.232C0.079834 14.7827 0.536865 15.2398 1.08764 15.2398ZM1.08764 11.9702C1.63842 11.9702 2.09545 11.5132 2.09545 10.9624C2.09545 10.4116 1.63842 9.95459 1.08764 9.95459C0.536865 9.95459 0.079834 10.4116 0.079834 10.9624C0.079834 11.5132 0.536865 11.9702 1.08764 11.9702ZM1.96655 7.82178C2.03686 7.34131 1.69702 6.88428 1.21655 6.80225C0.736084 6.73194 0.279053 7.07178 0.20874 7.55225C0.138428 8.03272 0.478272 8.48975 0.95874 8.56006C1.43921 8.63037 1.89624 8.29053 1.96655 7.82178ZM1.08764 5.41944C1.63842 5.41944 2.09545 4.9624 2.09545 4.41162C2.09545 3.86084 1.63842 3.40381 1.08764 3.40381C0.536865 3.40381 0.079834 3.86084 0.079834 4.41162C0.079834 4.9624 0.536865 5.41944 1.08764 5.41944ZM10.9079 5.41944C11.4587 5.41944 11.9157 4.9624 11.9157 4.41162C11.9157 3.86084 11.4587 3.40381 10.9079 3.40381C10.3571 3.40381 9.90014 3.86084 9.90014 4.41162C9.90014 4.9624 10.3571 5.41944 10.9079 5.41944ZM10.9079 8.68897C11.4587 8.68897 11.9157 8.24366 11.9157 7.68116C11.9157 7.13037 11.4587 6.67334 10.9079 6.67334C10.3571 6.67334 9.90014 7.13037 9.90014 7.68116C9.90014 8.24366 10.3571 8.68897 10.9079 8.68897ZM10.9079 11.9702C11.4587 11.9702 11.9157 11.5132 11.9157 10.9624C11.9157 10.4116 11.4587 9.95459 10.9079 9.95459C10.3571 9.95459 9.90014 10.4116 9.90014 10.9624C9.90014 11.5132 10.3571 11.9702 10.9079 11.9702ZM10.9079 15.2398C11.4587 15.2398 11.9157 14.7827 11.9157 14.232C11.9157 13.6812 11.4587 13.2241 10.9079 13.2241C10.3571 13.2241 9.90014 13.6812 9.90014 14.232C9.90014 14.7827 10.3571 15.2398 10.9079 15.2398ZM10.9079 18.521C11.4587 18.521 11.9157 18.064 11.9157 17.5132C11.9157 16.9624 11.4587 16.5054 10.9079 16.5054C10.3571 16.5054 9.90014 16.9624 9.90014 17.5132C9.90014 18.064 10.3571 18.521 10.9079 18.521ZM4.35717 11.9702C4.91967 11.9702 5.36499 11.5132 5.36499 10.9624C5.36499 10.4116 4.91967 9.95459 4.35717 9.95459C3.80639 9.95459 3.34936 10.4116 3.34936 10.9624C3.34936 11.5132 3.80639 11.9702 4.35717 11.9702ZM7.63842 11.9702C8.18921 11.9702 8.64624 11.5132 8.64624 10.9624C8.64624 10.4116 8.18921 9.95459 7.63842 9.95459C7.08764 9.95459 6.63061 10.4116 6.63061 10.9624C6.63061 11.5132 7.08764 11.9702 7.63842 11.9702ZM14.1892 11.9702C14.74 11.9702 15.197 11.5132 15.197 10.9624C15.197 10.4116 14.74 9.95459 14.1892 9.95459C13.6384 9.95459 13.1814 10.4116 13.1814 10.9624C13.1814 11.5132 13.6384 11.9702 14.1892 11.9702ZM17.4587 11.9702C18.0095 11.9702 18.4665 11.5132 18.4665 10.9624C18.4665 10.4116 18.0095 9.95459 17.4587 9.95459C16.9079 9.95459 16.4509 10.4116 16.4509 10.9624C16.4509 11.5132 16.9079 11.9702 17.4587 11.9702Z" fill="black" fill-opacity="0.85"/>
</g>
<defs>
<clipPath id="clip0_2207_21550">
<rect width="21.668" height="21.668" fill="white" transform="translate(0.079834 0.134277)"/>
</clipPath>
</defs>
</svg>
