<svg width="22" height="22" viewBox="0 0 22 22" fill="none" xmlns="http://www.w3.org/2000/svg">
<g clip-path="url(#clip0_2207_6288)">
<path d="M1.1438 19.271L2.47974 20.607L20.4094 2.67725L19.0735 1.34131L1.1438 19.271ZM19.0383 20.5132L20.3743 19.1773L2.53833 1.34131L1.20239 2.67725L19.0383 20.5132ZM3.69849 21.732H17.9133C20.3743 21.732 21.593 20.5132 21.593 18.0991V3.79053C21.593 1.37647 20.3743 0.157715 17.9133 0.157715H3.69849C1.24927 0.157715 0.0187988 1.36475 0.0187988 3.79053V18.0991C0.0187988 20.5249 1.24927 21.732 3.69849 21.732ZM3.72192 19.8452C2.55005 19.8452 1.90552 19.2241 1.90552 18.0054V3.88428C1.90552 2.66553 2.55005 2.04444 3.72192 2.04444H17.8899C19.05 2.04444 19.7063 2.66553 19.7063 3.88428V18.0054C19.7063 19.2241 19.05 19.8452 17.8899 19.8452H3.72192Z" fill="black" fill-opacity="0.85"/>
</g>
<defs>
<clipPath id="clip0_2207_6288">
<rect width="21.5742" height="21.5977" fill="white" transform="translate(0.0187988 0.134277)"/>
</clipPath>
</defs>
</svg>
