<svg width="25" height="25" viewBox="0 0 25 25" fill="none" xmlns="http://www.w3.org/2000/svg">
<g clip-path="url(#clip0_2207_6454)">
<path d="M3.76172 19.2812H6.72656V17.3945H3.78515C2.61328 17.3945 1.96875 16.7617 1.96875 15.543V3.89453C1.96875 2.67578 2.61328 2.04297 3.78515 2.04297H15.4922C16.6523 2.04297 17.3086 2.67578 17.3086 3.89453V6.46093H19.1953V3.78906C19.1953 1.375 17.9648 0.15625 15.5273 0.15625H3.76172C1.30078 0.15625 0.0820312 1.375 0.0820312 3.78906V15.6484C0.0820312 18.0625 1.30078 19.2812 3.76172 19.2812ZM17.3086 9.15625V13.2461H19.1953V9.15625H17.3086ZM14.5078 19.2812H15.5273C17.9765 19.2812 19.1953 18.0625 19.1953 15.6484V14.8516H17.3086V15.543C17.3086 16.7617 16.664 17.3945 15.4922 17.3945H14.5078V19.2812ZM9.33984 19.2812H12.9023V17.3945H9.33984V19.2812Z" fill="black" fill-opacity="0.85"/>
<path d="M9.44532 24.707H21.2109C23.6484 24.707 24.8789 23.4883 24.8789 21.0742V9.21484C24.8789 6.80078 23.6484 5.58203 21.2109 5.58203H9.44532C6.98438 5.58203 5.76562 6.78906 5.76562 9.21484V21.0742C5.76562 23.4883 6.98438 24.707 9.44532 24.707ZM9.46875 22.8203C8.30859 22.8203 7.65235 22.1875 7.65235 20.9687V9.32031C7.65235 8.10156 8.30859 7.46875 9.46875 7.46875H21.1758C22.3359 7.46875 22.9922 8.10156 22.9922 9.32031V20.9687C22.9922 22.1875 22.3359 22.8203 21.1758 22.8203H9.46875Z" fill="black" fill-opacity="0.85"/>
</g>
<defs>
<clipPath id="clip0_2207_6454">
<rect width="24.7969" height="24.5742" fill="white" transform="translate(0.0820312 0.132812)"/>
</clipPath>
</defs>
</svg>
