<svg width="22" height="22" viewBox="0 0 22 22" fill="none" xmlns="http://www.w3.org/2000/svg">
<g clip-path="url(#clip0_2207_7312)">
<path d="M14.0249 21.7306H19.3569C20.8452 21.7306 21.5952 20.9923 21.5952 19.4454V14.1954C21.5952 12.6602 20.8452 11.9102 19.3569 11.9102H14.0249C12.5249 11.9102 11.7749 12.6602 11.7749 14.1954V19.4454C11.7749 20.9923 12.5249 21.7306 14.0249 21.7306Z" fill="black" fill-opacity="0.85"/>
<path d="M2.25928 21.7306H7.60303C9.09131 21.7306 9.84131 20.9923 9.84131 19.4454V14.1954C9.84131 12.6602 9.09131 11.9102 7.60303 11.9102H2.25928C0.770996 11.9102 0.0209961 12.6602 0.0209961 14.1954V19.4454C0.0209961 20.9923 0.770996 21.7306 2.25928 21.7306Z" fill="black" fill-opacity="0.85"/>
<path d="M14.0249 9.97656H19.3569C20.8452 9.97656 21.5952 9.22656 21.5952 7.67969V2.4414C21.5952 0.894531 20.8452 0.15625 19.3569 0.15625H14.0249C12.5249 0.15625 11.7749 0.894531 11.7749 2.4414V7.67969C11.7749 9.22656 12.5249 9.97656 14.0249 9.97656Z" fill="black" fill-opacity="0.85"/>
<path d="M2.25928 9.97656H7.60303C9.09131 9.97656 9.84131 9.22656 9.84131 7.67969V2.4414C9.84131 0.894531 9.09131 0.15625 7.60303 0.15625H2.25928C0.770996 0.15625 0.0209961 0.894531 0.0209961 2.4414V7.67969C0.0209961 9.22656 0.770996 9.97656 2.25928 9.97656Z" fill="black" fill-opacity="0.85"/>
</g>
<defs>
<clipPath id="clip0_2207_7312">
<rect width="21.5742" height="21.5977" fill="white" transform="translate(0.0209961 0.132812)"/>
</clipPath>
</defs>
</svg>
