<svg width="22" height="22" viewBox="0 0 22 22" fill="none" xmlns="http://www.w3.org/2000/svg">
<g clip-path="url(#clip0_2207_18022)">
<path d="M3.73853 21.732H17.9533C20.4143 21.732 21.633 20.5132 21.633 18.0991V3.79053C21.633 1.37647 20.4143 0.157715 17.9533 0.157715H3.73853C1.28931 0.157715 0.0588379 1.36475 0.0588379 3.79053V18.0991C0.0588379 20.5249 1.28931 21.732 3.73853 21.732ZM3.76196 19.8452C2.59009 19.8452 1.94556 19.2241 1.94556 18.0054V3.88428C1.94556 2.66553 2.59009 2.04444 3.76196 2.04444H17.9299C19.09 2.04444 19.7463 2.66553 19.7463 3.88428V18.0054C19.7463 19.2241 19.09 19.8452 17.9299 19.8452H3.76196Z" fill="black" fill-opacity="0.85"/>
<path d="M5.02759 13.271H16.5705C16.9807 13.271 17.2854 12.9546 17.2854 12.5445C17.2854 12.146 16.9807 11.8296 16.5705 11.8296H5.02759C4.594 11.8296 4.28931 12.146 4.28931 12.5445C4.28931 12.9546 4.594 13.271 5.02759 13.271ZM5.02759 17.2788H13.4768C13.8986 17.2788 14.2033 16.9624 14.2033 16.564C14.2033 16.1538 13.8986 15.8374 13.4768 15.8374H5.02759C4.594 15.8374 4.28931 16.1538 4.28931 16.564C4.28931 16.9624 4.594 17.2788 5.02759 17.2788ZM4.32446 5.2085V8.06787C4.32446 8.79444 4.75806 9.22803 5.48462 9.22803H8.344C9.07056 9.22803 9.50415 8.79444 9.50415 8.06787V5.2085C9.50415 4.48194 9.07056 4.04834 8.344 4.04834H5.48462C4.75806 4.04834 4.32446 4.48194 4.32446 5.2085Z" fill="black" fill-opacity="0.85"/>
</g>
<defs>
<clipPath id="clip0_2207_18022">
<rect width="21.5742" height="21.5977" fill="white" transform="translate(0.0588379 0.134277)"/>
</clipPath>
</defs>
</svg>
