<svg width="22" height="22" viewBox="0 0 22 22" fill="none" xmlns="http://www.w3.org/2000/svg">
<g clip-path="url(#clip0_2207_6280)">
<path d="M9.85205 20.5015H11.7388V1.38819H9.85205V20.5015ZM1.23877 11.8882H20.3521V10.0015H1.23877V11.8882ZM3.68799 21.732H17.9028C20.3638 21.732 21.5825 20.5132 21.5825 18.0991V3.79053C21.5825 1.37647 20.3638 0.157715 17.9028 0.157715H3.68799C1.23877 0.157715 0.00830078 1.36475 0.00830078 3.79053V18.0991C0.00830078 20.5249 1.23877 21.732 3.68799 21.732ZM3.71142 19.8452C2.53955 19.8452 1.89502 19.2241 1.89502 18.0054V3.88428C1.89502 2.66553 2.53955 2.04444 3.71142 2.04444H17.8794C19.0395 2.04444 19.6958 2.66553 19.6958 3.88428V18.0054C19.6958 19.2241 19.0395 19.8452 17.8794 19.8452H3.71142Z" fill="black" fill-opacity="0.85"/>
</g>
<defs>
<clipPath id="clip0_2207_6280">
<rect width="21.5742" height="21.5977" fill="white" transform="translate(0.00830078 0.134277)"/>
</clipPath>
</defs>
</svg>
