<svg width="22" height="22" viewBox="0 0 22 22" fill="none" xmlns="http://www.w3.org/2000/svg">
<g clip-path="url(#clip0_2207_12549)">
<path d="M9.46973 20.9585H11.3565V12.8609C11.3565 11.9937 11.8838 11.5015 12.8213 11.5015H20.6963V9.61475H12.7861C10.7119 9.61475 9.46973 10.7984 9.46973 12.7788V20.9585ZM3.69239 21.732H17.9072C20.3682 21.732 21.5869 20.5132 21.5869 18.0991V3.79053C21.5869 1.37647 20.3682 0.157715 17.9072 0.157715H3.69239C1.24317 0.157715 0.0126953 1.36475 0.0126953 3.79053V18.0991C0.0126953 20.5249 1.24317 21.732 3.69239 21.732ZM3.71582 19.8452C2.54395 19.8452 1.89942 19.2241 1.89942 18.0054V3.88428C1.89942 2.66553 2.54395 2.04444 3.71582 2.04444H17.8838C19.0439 2.04444 19.7002 2.66553 19.7002 3.88428V18.0054C19.7002 19.2241 19.0439 19.8452 17.8838 19.8452H3.71582Z" fill="black" fill-opacity="0.85"/>
</g>
<defs>
<clipPath id="clip0_2207_12549">
<rect width="21.5742" height="21.5977" fill="white" transform="translate(0.0126953 0.134277)"/>
</clipPath>
</defs>
</svg>
