<svg width="30" height="21" viewBox="0 0 30 21" fill="none" xmlns="http://www.w3.org/2000/svg">
<g clip-path="url(#clip0_2207_19461)">
<path d="M11.6846 19.9273H25.9111C28.2901 19.9273 29.4736 18.7554 29.4736 16.4234V3.97803C29.4736 1.646 28.2901 0.474121 25.9111 0.474121H11.6846C9.3291 0.474121 8.13379 1.646 8.13379 3.97803V16.4234C8.13379 18.7554 9.3291 19.9273 11.6846 19.9273ZM11.708 18.064C10.6065 18.064 9.99707 17.4663 9.99707 16.3179V4.0835C9.99707 2.92334 10.6065 2.3374 11.708 2.3374H25.8877C26.9775 2.3374 27.6104 2.92334 27.6104 4.0835V16.3179C27.6104 17.4663 26.9775 18.064 25.8877 18.064H11.708Z" fill="black" fill-opacity="0.85"/>
<path d="M0.727539 4.71631H3.98535C4.40723 4.71631 4.65332 4.4585 4.65332 4.04834V0.813965C4.65332 0.380371 4.40723 0.134277 3.98535 0.134277H0.727539C0.329101 0.134277 0.0712891 0.403808 0.0712891 0.813965V4.04834C0.0712891 4.43506 0.329101 4.71631 0.727539 4.71631ZM0.727539 12.4859H3.98535C4.40723 12.4859 4.65332 12.2398 4.65332 11.8296V8.59522C4.65332 8.1499 4.40723 7.90381 3.98535 7.90381H0.727539C0.329101 7.90381 0.0712891 8.17334 0.0712891 8.59522V11.8296C0.0712891 12.2163 0.329101 12.4859 0.727539 12.4859ZM0.727539 20.2554H3.99707C4.40723 20.2554 4.65332 20.0093 4.65332 19.5991V16.3648C4.65332 15.9195 4.40723 15.6734 3.99707 15.6734H0.727539C0.329101 15.6734 0.0712891 15.9429 0.0712891 16.3648V19.5991C0.0712891 19.9859 0.329101 20.2554 0.727539 20.2554Z" fill="black" fill-opacity="0.85"/>
</g>
<defs>
<clipPath id="clip0_2207_19461">
<rect width="29.4023" height="20.1445" fill="white" transform="translate(0.0712891 0.134277)"/>
</clipPath>
</defs>
</svg>
