<svg width="24" height="23" viewBox="0 0 24 23" fill="none" xmlns="http://www.w3.org/2000/svg">
<g clip-path="url(#clip0_2207_6591)">
<path d="M18.4222 22.6445H21.012C22.2894 22.6445 23.0394 21.8945 23.0394 20.5703V18.0742C23.0394 16.75 22.2894 16 21.012 16H18.4222C17.1448 16 16.3948 16.75 16.3948 18.0742V20.5703C16.3948 21.8945 17.1448 22.6445 18.4222 22.6445ZM18.6448 21.0273C18.223 21.0273 18.0003 20.8047 18.0003 20.3711V18.2734C18.0003 17.8281 18.223 17.6055 18.6448 17.6055H20.7894C21.1995 17.6055 21.4222 17.8281 21.4222 18.2734V20.3711C21.4222 20.8047 21.1995 21.0273 20.7894 21.0273H18.6448Z" fill="black" fill-opacity="0.85"/>
<path d="M10.2424 22.6445H12.844C14.1213 22.6445 14.8596 21.8945 14.8596 20.5703V18.0742C14.8596 16.75 14.1213 16 12.844 16H10.2424C8.96509 16 8.22681 16.75 8.22681 18.0742V20.5703C8.22681 21.8945 8.96509 22.6445 10.2424 22.6445ZM10.465 21.0273C10.0432 21.0273 9.83228 20.8047 9.83228 20.3711V18.2734C9.83228 17.8281 10.0432 17.6055 10.465 17.6055H12.6213C13.0315 17.6055 13.2541 17.8281 13.2541 18.2734V20.3711C13.2541 20.8047 13.0315 21.0273 12.6213 21.0273H10.465Z" fill="black" fill-opacity="0.85"/>
<path d="M2.08618 22.6445H4.67603C5.95337 22.6445 6.70337 21.8945 6.70337 20.5703V18.0742C6.70337 16.75 5.95337 16 4.67603 16H2.08618C0.808838 16 0.0588379 16.75 0.0588379 18.0742V20.5703C0.0588379 21.8945 0.808838 22.6445 2.08618 22.6445ZM2.30884 21.0273C1.88696 21.0273 1.67603 20.8047 1.67603 20.3711V18.2734C1.67603 17.8281 1.88696 17.6055 2.30884 17.6055H4.45337C4.86353 17.6055 5.0979 17.8281 5.0979 18.2734V20.3711C5.0979 20.8047 4.86353 21.0273 4.45337 21.0273H2.30884Z" fill="black" fill-opacity="0.85"/>
<path d="M18.4222 14.7109H21.012C22.2894 14.7109 23.0394 13.9726 23.0394 12.6484V10.1406C23.0394 8.81641 22.2894 8.06641 21.012 8.06641H18.4222C17.1448 8.06641 16.3948 8.81641 16.3948 10.1406V12.6484C16.3948 13.9726 17.1448 14.7109 18.4222 14.7109ZM18.6448 13.1055C18.223 13.1055 18.0003 12.8828 18.0003 12.4375V10.3281C18.0003 9.89454 18.223 9.67188 18.6448 9.67188H20.7894C21.1995 9.67188 21.4222 9.89454 21.4222 10.3281V12.4375C21.4222 12.8828 21.1995 13.1055 20.7894 13.1055H18.6448Z" fill="black" fill-opacity="0.85"/>
<path d="M10.2424 14.7109H12.844C14.1213 14.7109 14.8596 13.9726 14.8596 12.6484V10.1406C14.8596 8.81641 14.1213 8.06641 12.844 8.06641H10.2424C8.96509 8.06641 8.22681 8.81641 8.22681 10.1406V12.6484C8.22681 13.9726 8.96509 14.7109 10.2424 14.7109ZM10.465 13.1055C10.0432 13.1055 9.83228 12.8828 9.83228 12.4375V10.3281C9.83228 9.89454 10.0432 9.67188 10.465 9.67188H12.6213C13.0315 9.67188 13.2541 9.89454 13.2541 10.3281V12.4375C13.2541 12.8828 13.0315 13.1055 12.6213 13.1055H10.465Z" fill="black" fill-opacity="0.85"/>
<path d="M2.08618 14.7109H4.67603C5.95337 14.7109 6.70337 13.9726 6.70337 12.6484V10.1406C6.70337 8.81641 5.95337 8.06641 4.67603 8.06641H2.08618C0.808838 8.06641 0.0588379 8.81641 0.0588379 10.1406V12.6484C0.0588379 13.9726 0.808838 14.7109 2.08618 14.7109ZM2.30884 13.1055C1.88696 13.1055 1.67603 12.8828 1.67603 12.4375V10.3281C1.67603 9.89454 1.88696 9.67188 2.30884 9.67188H4.45337C4.86353 9.67188 5.0979 9.89454 5.0979 10.3281V12.4375C5.0979 12.8828 4.86353 13.1055 4.45337 13.1055H2.30884Z" fill="black" fill-opacity="0.85"/>
<path d="M10.2424 6.77734H12.844C14.1213 6.77734 14.8596 6.02734 14.8596 4.70312V2.20703C14.8596 0.882812 14.1213 0.132812 12.844 0.132812H10.2424C8.96509 0.132812 8.22681 0.882812 8.22681 2.20703V4.70312C8.22681 6.02734 8.96509 6.77734 10.2424 6.77734ZM10.465 5.17187C10.0432 5.17187 9.83228 4.94922 9.83228 4.5039V2.40625C9.83228 1.97265 10.0432 1.75 10.465 1.75H12.6213C13.0315 1.75 13.2541 1.97265 13.2541 2.40625V4.5039C13.2541 4.94922 13.0315 5.17187 12.6213 5.17187H10.465Z" fill="black" fill-opacity="0.85"/>
<path d="M18.4222 6.77734H21.012C22.2894 6.77734 23.0394 6.02734 23.0394 4.70312V2.20703C23.0394 0.882812 22.2894 0.132812 21.012 0.132812H18.4222C17.1448 0.132812 16.3948 0.882812 16.3948 2.20703V4.70312C16.3948 6.02734 17.1448 6.77734 18.4222 6.77734Z" fill="black" fill-opacity="0.85"/>
<path d="M2.08618 6.77734H4.67603C5.95337 6.77734 6.70337 6.02734 6.70337 4.70312V2.20703C6.70337 0.882812 5.95337 0.132812 4.67603 0.132812H2.08618C0.808838 0.132812 0.0588379 0.882812 0.0588379 2.20703V4.70312C0.0588379 6.02734 0.808838 6.77734 2.08618 6.77734ZM2.30884 5.17187C1.88696 5.17187 1.67603 4.94922 1.67603 4.5039V2.40625C1.67603 1.97265 1.88696 1.75 2.30884 1.75H4.45337C4.86353 1.75 5.0979 1.97265 5.0979 2.40625V4.5039C5.0979 4.94922 4.86353 5.17187 4.45337 5.17187H2.30884Z" fill="black" fill-opacity="0.85"/>
</g>
<defs>
<clipPath id="clip0_2207_6591">
<rect width="22.9805" height="22.5586" fill="white" transform="translate(0.0588379 0.132812)"/>
</clipPath>
</defs>
</svg>
