<svg width="23" height="25" viewBox="0 0 23 25" fill="none" xmlns="http://www.w3.org/2000/svg">
<g clip-path="url(#clip0_2207_17994)">
<path d="M11.1209 24.9209H11.8826C13.7927 24.9209 14.7185 24.0771 14.7185 22.2959V18.0654L18.363 20.1865C18.9138 20.5029 19.4177 20.6552 19.8748 20.6552C20.7185 20.6552 21.4334 20.1279 22.0544 19.0615L22.4412 18.3935C22.8044 17.7607 22.992 17.1865 22.992 16.6709C22.992 15.8505 22.5115 15.1709 21.574 14.6318L17.9177 12.5224L21.5623 10.413C22.5115 9.87402 22.9802 9.19433 22.9802 8.37402C22.9802 7.87012 22.7927 7.2959 22.4294 6.66308L22.0544 6.00683C21.4216 4.92871 20.7068 4.40136 19.8513 4.40136C19.3943 4.40136 18.9021 4.55371 18.3513 4.87012L14.7185 6.96777V2.76074C14.7185 0.979492 13.7927 0.135742 11.8826 0.135742H11.1209C9.21069 0.135742 8.29663 0.979492 8.29663 2.76074V6.96777L4.66381 4.87012C4.12475 4.55371 3.62085 4.40136 3.16381 4.40136C2.30835 4.40136 1.5935 4.92871 0.960693 6.00683L0.585693 6.66308C0.222412 7.2959 0.0349122 7.87012 0.0349122 8.37402C0.0349122 9.19433 0.515381 9.87402 1.45288 10.413L5.09741 12.5224L1.45288 14.6318C0.503662 15.1709 0.0231934 15.8505 0.0231934 16.6709C0.0231934 17.1865 0.210693 17.7607 0.573974 18.3935L0.960693 19.0615C1.58178 20.1279 2.29663 20.6552 3.14038 20.6552C3.59741 20.6552 4.11303 20.5029 4.6521 20.1865L8.29663 18.0654V22.2959C8.29663 24.0771 9.21069 24.9209 11.1209 24.9209ZM11.4373 23.163C10.4763 23.163 10.1599 22.8818 10.1599 21.956V15.3349C10.1599 15.1591 10.0544 15.0419 9.9021 15.0419C9.85522 15.0419 9.80835 15.0537 9.74975 15.0888L4.01928 18.4052C3.7146 18.581 3.4685 18.663 3.24585 18.663C2.89428 18.663 2.63647 18.4169 2.3435 17.9013L2.26147 17.7841C2.07397 17.4443 1.9685 17.1748 1.9685 16.9404C1.9685 16.6005 2.17944 16.3427 2.67163 16.0732L8.49585 12.6982C8.60131 12.6396 8.65991 12.5459 8.65991 12.4521C8.65991 12.3466 8.60131 12.2529 8.48413 12.1943L2.68335 8.9834C2.20288 8.70215 1.98022 8.44433 1.98022 8.10449C1.98022 7.88183 2.07397 7.6123 2.26147 7.27246L2.3435 7.14355C2.63647 6.61621 2.906 6.38183 3.25757 6.38183C3.48022 6.38183 3.72631 6.46386 4.031 6.63965L9.72631 9.94433C9.78491 9.97949 9.83178 9.99121 9.89038 9.99121C10.0544 9.99121 10.1599 9.87402 10.1599 9.68652V3.10058C10.1599 2.1748 10.4763 1.89355 11.4373 1.89355H11.5779C12.5388 1.89355 12.8552 2.1748 12.8552 3.10058V9.68652C12.8552 9.8623 12.9607 9.99121 13.113 9.99121C13.1716 9.99121 13.2185 9.97949 13.2771 9.94433L18.9959 6.63965C19.3005 6.46386 19.5466 6.38183 19.7576 6.38183C20.1091 6.38183 20.3787 6.61621 20.6834 7.14355L20.7537 7.27246C20.9412 7.6123 21.0466 7.88183 21.0466 8.10449C21.0466 8.44433 20.824 8.70215 20.3435 8.9834L14.5427 12.1943C14.4255 12.2529 14.3552 12.3466 14.3552 12.4521C14.3552 12.5459 14.4255 12.6279 14.531 12.6982L20.3552 16.0732C20.8357 16.3427 21.0584 16.6005 21.0584 16.9404C21.0584 17.1748 20.9412 17.4443 20.7537 17.7841L20.6834 17.9013C20.3787 18.4169 20.1209 18.663 19.7693 18.663C19.5466 18.663 19.3005 18.5693 19.0076 18.4052L13.2654 15.0888C13.2068 15.0537 13.1716 15.0419 13.113 15.0419C12.9607 15.0419 12.8552 15.1591 12.8552 15.3349V21.956C12.8552 22.8818 12.5388 23.163 11.5779 23.163H11.4373Z" fill="black" fill-opacity="0.85"/>
</g>
<defs>
<clipPath id="clip0_2207_17994">
<rect width="22.9688" height="24.7852" fill="white" transform="translate(0.0231934 0.135742)"/>
</clipPath>
</defs>
</svg>
