<svg width="26" height="26" viewBox="0 0 26 26" fill="none" xmlns="http://www.w3.org/2000/svg">
<g clip-path="url(#clip0_2207_9168)">
<path d="M7.30566 25.8804C7.87988 25.8804 8.27832 25.5757 8.99316 24.9429L13.0361 21.3452H20.5595C24.0517 21.3452 25.9267 19.4116 25.9267 15.9781V7.00147C25.9267 3.56787 24.0517 1.63428 20.5595 1.63428H5.46582C1.97363 1.63428 0.0986328 3.55616 0.0986328 7.00147V15.9781C0.0986328 19.4234 1.97363 21.3452 5.46582 21.3452H6.02832V24.3921C6.02832 25.2945 6.48535 25.8804 7.30566 25.8804ZM7.78613 23.7359V20.3374C7.78613 19.7046 7.54004 19.4585 6.90722 19.4585H5.46582C3.09863 19.4585 1.98535 18.2515 1.98535 15.9663V7.00147C1.98535 4.71631 3.09863 3.521 5.46582 3.521H20.5595C22.915 3.521 24.04 4.71631 24.04 7.00147V15.9663C24.04 18.2515 22.915 19.4585 20.5595 19.4585H12.9658C12.3095 19.4585 11.9814 19.5523 11.5361 20.0093L7.78613 23.7359Z" fill="black" fill-opacity="0.85"/>
<path d="M10.5284 15.9077L13.0245 14.0796L15.5206 15.9077C16.001 16.271 16.5753 15.9429 16.3526 15.2984L15.3799 12.3687L17.9346 10.5288C18.4503 10.1538 18.2276 9.55615 17.6417 9.55615H14.4776L13.5401 6.63818C13.3643 6.07568 12.6846 6.07568 12.5089 6.63818L11.5596 9.55615H8.39558C7.80964 9.55615 7.57527 10.1538 8.10262 10.5288L10.669 12.3687L9.68465 15.2984C9.47371 15.9429 10.0362 16.271 10.5284 15.9077Z" fill="black" fill-opacity="0.85"/>
</g>
<defs>
<clipPath id="clip0_2207_9168">
<rect width="25.8281" height="25.7461" fill="white" transform="translate(0.0986328 0.134277)"/>
</clipPath>
</defs>
</svg>
