<svg width="24" height="25" viewBox="0 0 24 25" fill="none" xmlns="http://www.w3.org/2000/svg">
<g clip-path="url(#clip0_2207_18002)">
<path d="M11.9782 24.0419C18.5173 24.0419 23.9313 18.6162 23.9313 12.0888C23.9313 5.5498 18.5056 0.135742 11.9665 0.135742C5.43921 0.135742 0.0251465 5.5498 0.0251465 12.0888C0.0251465 18.6162 5.45093 24.0419 11.9782 24.0419ZM11.9782 22.0498C6.44703 22.0498 2.02906 17.6201 2.02906 12.0888C2.02906 6.55762 6.43531 2.12793 11.9665 2.12793C17.4978 2.12793 21.9392 6.55762 21.9392 12.0888C21.9392 17.6201 17.5095 22.0498 11.9782 22.0498Z" fill="black" fill-opacity="0.85"/>
<path d="M6.52906 9.00683C6.15406 9.72168 6.25953 10.0732 6.91577 10.4365L9.8689 12.0302L6.90406 13.7529C6.23609 14.1396 6.14234 14.4912 6.54077 15.1943L6.56421 15.2412C6.96265 15.956 7.32593 16.0498 7.9939 15.6396L10.8415 13.999V17.2919C10.8415 18.0888 11.111 18.3466 11.9431 18.3466H12.0134C12.822 18.3466 13.0915 18.0888 13.0915 17.2919V13.999L15.9392 15.6396C16.6423 16.0732 16.9939 15.9677 17.3689 15.2412L17.3923 15.1943C17.7556 14.4795 17.6735 14.1279 17.029 13.7529L14.0642 12.0302L17.0173 10.4365C17.6853 10.0732 17.779 9.72168 17.404 9.00683L17.3689 8.9248C17.0056 8.19824 16.6423 8.09277 15.9157 8.52636L13.0915 10.1669V6.87402C13.0915 6.10058 12.822 5.84277 12.0134 5.84277H11.9431C11.111 5.84277 10.8415 6.10058 10.8415 6.87402V10.1669L8.01734 8.52636C7.29077 8.10449 6.92749 8.19824 6.56421 8.9248L6.52906 9.00683Z" fill="black" fill-opacity="0.85"/>
</g>
<defs>
<clipPath id="clip0_2207_18002">
<rect width="23.9062" height="23.918" fill="white" transform="translate(0.0251465 0.135742)"/>
</clipPath>
</defs>
</svg>
