<svg width="24" height="25" viewBox="0 0 24 25" fill="none" xmlns="http://www.w3.org/2000/svg">
<g clip-path="url(#clip0_2207_8056)">
<path d="M11.9573 24.0419C18.4964 24.0419 23.9104 18.6162 23.9104 12.0888C23.9104 5.5498 18.4846 0.135742 11.9455 0.135742C5.41821 0.135742 0.00415039 5.5498 0.00415039 12.0888C0.00415039 18.6162 5.42993 24.0419 11.9573 24.0419Z" fill="black" fill-opacity="0.85"/>
<path d="M8.48854 18.3349C7.78541 18.874 7.03541 18.3232 7.31666 17.4912L8.67604 13.4013L5.17213 10.9052C4.51588 10.4248 4.73854 9.4873 5.62916 9.49902L9.92994 9.53418L11.2425 5.4209C11.5003 4.6123 12.4144 4.6123 12.6722 5.4209L13.9847 9.53418L18.2854 9.49902C19.1878 9.4873 19.387 10.4365 18.7425 10.8935L15.2386 13.4013L16.6097 17.4912C16.8792 18.3232 16.1409 18.874 15.4261 18.3349L11.9573 15.8037L8.48854 18.3349Z" fill="white"/>
</g>
<defs>
<clipPath id="clip0_2207_8056">
<rect width="23.9062" height="23.918" fill="white" transform="translate(0.00415039 0.135742)"/>
</clipPath>
</defs>
</svg>
