<svg width="26" height="26" viewBox="0 0 26 26" fill="none" xmlns="http://www.w3.org/2000/svg">
<g id="star.bubble.fill" clip-path="url(#clip0_2201_349)">
<g id="Group">
<path id="Vector" d="M6.96094 25.8867C7.41797 25.8867 7.75781 25.6523 8.30859 25.1367L12.5391 21.2695H20.4609C23.9531 21.2695 25.8281 19.3477 25.8281 15.9141V6.9375C25.8281 3.50391 23.9531 1.57031 20.4609 1.57031H5.36719C1.875 1.57031 0 3.49219 0 6.9375V15.9141C0 19.3594 1.875 21.2695 5.36719 21.2695H5.91797V24.6797C5.91797 25.4062 6.29297 25.8867 6.96094 25.8867Z" fill="black" fill-opacity="0.85"/>
<path id="Vector_2" d="M10.3477 15.9844C9.84373 16.3594 9.24607 16.0195 9.48045 15.3516L10.5 12.3281L7.85154 10.4414C7.31248 10.0547 7.54686 9.43359 8.15623 9.43359H11.4141L12.3867 6.43359C12.5859 5.83594 13.2773 5.83594 13.4648 6.43359L14.4258 9.43359H17.6836C18.293 9.43359 18.5273 10.0547 17.9883 10.4414L15.3633 12.3281L16.3711 15.3516C16.5938 16.0195 16.0078 16.3594 15.4922 15.9844L12.9258 14.0977L10.3477 15.9844Z" fill="white"/>
</g>
</g>
<defs>
<clipPath id="clip0_2201_349">
<rect width="25.8281" height="25.8867" fill="white"/>
</clipPath>
</defs>
</svg>
