<svg width="27" height="27" viewBox="0 0 27 27" fill="none" xmlns="http://www.w3.org/2000/svg">
<g clip-path="url(#clip0_2207_8027)">
<path d="M5.08999 24.7905C5.57046 25.1655 6.17984 25.0366 6.9064 24.5093L13.1056 19.9507L19.3166 24.5093C20.0431 25.0366 20.6408 25.1655 21.133 24.7905C21.6135 24.4273 21.7189 23.8296 21.426 22.9741L18.9767 15.6851L25.2345 11.1851C25.9611 10.6695 26.2541 10.1304 26.0666 9.54444C25.8791 8.98194 25.3283 8.70069 24.426 8.7124L16.7502 8.75928L14.4181 1.43506C14.1369 0.567871 13.715 0.134277 13.1056 0.134277C12.508 0.134277 12.0861 0.567871 11.8049 1.43506L9.47281 8.75928L1.79703 8.7124C0.894681 8.70069 0.3439 8.98194 0.1564 9.54444C-0.0428192 10.1304 0.261869 10.6695 0.988431 11.1851L7.24624 15.6851L4.79703 22.9741C4.50406 23.8296 4.60953 24.4273 5.08999 24.7905ZM6.77749 22.4702C6.75406 22.4468 6.76578 22.4351 6.77749 22.3648L9.10953 15.6616C9.27359 15.2046 9.17984 14.8413 8.76968 14.5601L2.93374 10.5288C2.87515 10.4937 2.86343 10.4702 2.87515 10.4351C2.88687 10.3999 2.91031 10.3999 2.98062 10.3999L10.0705 10.5288C10.551 10.5405 10.8556 10.3413 11.008 9.86084L13.047 3.07569C13.0588 3.00537 13.0822 2.98194 13.1056 2.98194C13.1408 2.98194 13.1642 3.00537 13.176 3.07569L15.215 9.86084C15.3674 10.3413 15.672 10.5405 16.1525 10.5288L23.2424 10.3999C23.3127 10.3999 23.3361 10.3999 23.3478 10.4351C23.3595 10.4702 23.3361 10.4937 23.2892 10.5288L17.4533 14.5601C17.0431 14.8413 16.9494 15.2046 17.1135 15.6616L19.4455 22.3648C19.4572 22.4351 19.4689 22.4468 19.4455 22.4702C19.422 22.5054 19.3869 22.482 19.34 22.4468L13.7033 18.146C13.3283 17.8531 12.8947 17.8531 12.5197 18.146L6.88296 22.4468C6.83609 22.482 6.80093 22.5054 6.77749 22.4702Z" fill="black" fill-opacity="0.85"/>
</g>
<defs>
<clipPath id="clip0_2207_8027">
<rect width="26.0251" height="26.543" fill="white" transform="translate(0.0966797 0.134277)"/>
</clipPath>
</defs>
</svg>
