<svg width="22" height="22" viewBox="0 0 22 22" fill="none" xmlns="http://www.w3.org/2000/svg">
<g clip-path="url(#clip0_2207_8066)">
<path d="M3.69654 21.7334H17.9113C20.3723 21.7334 21.591 20.5146 21.591 18.1005V3.79199C21.591 1.37793 20.3723 0.15918 17.9113 0.15918H3.69654C1.24732 0.15918 0.0168457 1.36621 0.0168457 3.79199V18.1005C0.0168457 20.5263 1.24732 21.7334 3.69654 21.7334Z" fill="black" fill-opacity="0.85"/>
<path d="M7.34107 17.1748C6.63794 17.7138 5.88794 17.163 6.16919 16.331L7.52857 12.2412L4.02466 9.74512C3.36841 9.26465 3.59107 8.32715 4.48169 8.33886L8.78247 8.37402L10.0949 4.26074C10.3527 3.45215 11.2668 3.45215 11.5246 4.26074L12.8371 8.37402L17.1379 8.33886C18.0402 8.32715 18.2395 9.27636 17.5949 9.7334L14.091 12.2412L15.4621 16.331C15.7316 17.163 14.9934 17.7138 14.2785 17.1748L10.8098 14.6435L7.34107 17.1748Z" fill="white"/>
</g>
<defs>
<clipPath id="clip0_2207_8066">
<rect width="21.5742" height="21.5977" fill="white" transform="translate(0.0168457 0.135742)"/>
</clipPath>
</defs>
</svg>
