<svg width="20" height="25" viewBox="0 0 20 25" fill="none" xmlns="http://www.w3.org/2000/svg">
<g clip-path="url(#clip0_2207_8136)">
<path d="M9.76977 24.4287C9.95727 24.4287 10.262 24.3584 10.5549 24.1943C17.2229 20.456 19.5081 18.874 19.5081 14.5966V5.63183C19.5081 4.40136 18.9807 4.01465 17.9846 3.59277C16.6018 3.01855 12.137 1.41308 10.7542 0.932617C10.4377 0.827148 10.0979 0.756836 9.76977 0.756836C9.44165 0.756836 9.1018 0.850586 8.79711 0.932617C7.4143 1.33105 2.93774 3.03027 1.55493 3.59277C0.570556 4.00293 0.0314941 4.40136 0.0314941 5.63183V14.5966C0.0314941 18.874 2.32837 20.4443 8.98461 24.1943C9.2893 24.3584 9.58227 24.4287 9.76977 24.4287ZM9.76977 22.3076C9.58227 22.3076 9.39477 22.2373 9.04321 22.0263C3.62915 18.7451 1.89477 17.7841 1.89477 14.163V5.99512C1.89477 5.59668 1.96508 5.44433 2.29321 5.31543C4.07446 4.6123 7.53149 3.45215 9.30102 2.74902C9.48852 2.66699 9.64087 2.64355 9.76977 2.64355C9.89868 2.64355 10.051 2.67871 10.2385 2.74902C12.0081 3.45215 15.4417 4.69433 17.2581 5.31543C17.5745 5.43262 17.6448 5.59668 17.6448 5.99512V14.163C17.6448 17.7841 15.9104 18.7334 10.4963 22.0263C10.1565 22.2373 9.95727 22.3076 9.76977 22.3076Z" fill="black" fill-opacity="0.85"/>
<path d="M4.33225 8.94824C3.95725 9.66308 4.06272 10.0146 4.73069 10.3662L7.67209 11.9716L4.70725 13.6943C4.03928 14.081 3.94553 14.4209 4.34397 15.1357L4.37913 15.1826C4.76585 15.8974 5.12913 15.9912 5.79709 15.581L8.64475 13.9404V17.2334C8.64475 18.0185 8.91428 18.2763 9.74631 18.2763H9.81663C10.6253 18.2763 10.8948 18.0185 10.8948 17.2334V13.9404L13.7424 15.581C14.4456 16.0146 14.7971 15.9091 15.1721 15.1826L15.1956 15.1357C15.5588 14.4091 15.4768 14.0576 14.8323 13.6943L11.8674 11.9716L14.8206 10.3662C15.4885 10.0146 15.5823 9.66308 15.2073 8.94824L15.1721 8.86621C14.8088 8.12793 14.4456 8.02246 13.719 8.46777L10.8948 10.1084V6.81543C10.8948 6.04199 10.6253 5.78418 9.81663 5.78418H9.74631C8.91428 5.78418 8.64475 6.04199 8.64475 6.81543V10.1084L5.82053 8.46777C5.09397 8.0459 4.73069 8.13965 4.37913 8.86621L4.33225 8.94824Z" fill="black" fill-opacity="0.85"/>
</g>
<defs>
<clipPath id="clip0_2207_8136">
<rect width="19.4766" height="24.293" fill="white" transform="translate(0.0314941 0.135742)"/>
</clipPath>
</defs>
</svg>
