<svg width="26" height="25" viewBox="0 0 26 25" fill="none" xmlns="http://www.w3.org/2000/svg">
<g clip-path="url(#clip0_2207_16329)">
<path d="M11.993 24.2983C14.6415 24.2983 17.1141 23.396 19.1063 21.896V19.8335C19.1063 19.646 19.1063 19.4585 19.1063 19.271C18.2508 20.1616 17.1961 20.9116 16.0126 21.4507C15.3797 21.7554 14.9344 21.3569 14.9227 20.7593C14.8641 18.7788 15.7079 16.9624 17.0672 15.6968C16.9149 15.2515 16.8329 14.7827 16.8329 14.2905C16.8329 11.4429 19.1415 9.13428 22.0126 9.13428C22.5633 9.13428 23.079 9.22803 23.5594 9.42725C22.2352 4.28271 17.5008 0.39209 11.9813 0.39209C5.44226 0.39209 0.039917 5.80615 0.039917 12.3452C0.039917 18.8726 5.45398 24.2983 11.993 24.2983ZM3.74304 6.82568C5.4657 4.15381 8.50086 2.38428 11.9696 2.38428C15.4266 2.38428 18.4618 4.15381 20.1961 6.81396C20.6649 7.48193 20.4422 8.23193 19.6454 8.23193H4.29383C3.50867 8.23193 3.2743 7.48193 3.74304 6.82568ZM11.9696 15.5327C10.5282 15.5327 9.36804 14.3726 9.36804 12.9194C9.36804 11.4898 10.5282 10.3296 11.9696 10.3296C13.411 10.3296 14.5711 11.4898 14.5711 12.9194C14.5711 14.3726 13.411 15.5327 11.9696 15.5327ZM2.37195 14.9585C2.17273 14.2319 2.58289 13.9038 3.19226 13.9858C6.54383 14.3726 9.14539 17.314 9.0282 20.7593C9.0282 21.3569 8.57117 21.7554 7.95008 21.4507C5.17273 20.2085 3.14539 17.8413 2.37195 14.9585Z" fill="black" fill-opacity="0.85"/>
<path d="M22.0126 10.728C20.0204 10.728 18.4383 12.3218 18.4383 14.2905C18.4383 15.814 19.329 17.103 20.7118 17.6421V23.1733C20.7118 23.3257 20.7704 23.4194 20.8758 23.5366L21.8133 24.4741C21.9188 24.5913 22.0829 24.603 22.2001 24.4741L23.9813 22.7046C24.0985 22.5874 24.0985 22.4233 23.9813 22.3062L22.8797 21.2046L24.4149 19.7046C24.5087 19.5991 24.5087 19.4351 24.3797 19.3062L22.8797 17.8062C24.6024 17.1148 25.5868 15.8491 25.5868 14.2905C25.5868 12.3335 23.9813 10.728 22.0126 10.728ZM22.0008 12.0874C22.6102 12.0874 23.1024 12.5913 23.1024 13.189C23.1024 13.8101 22.6102 14.3023 22.0008 14.3023C21.3915 14.3023 20.8993 13.8101 20.8993 13.189C20.8993 12.5913 21.3797 12.0874 22.0008 12.0874Z" fill="black" fill-opacity="0.85"/>
</g>
<defs>
<clipPath id="clip0_2207_16329">
<rect width="25.5469" height="24.4308" fill="white" transform="translate(0.039917 0.135742)"/>
</clipPath>
</defs>
</svg>
