<svg width="24" height="25" viewBox="0 0 24 25" fill="none" xmlns="http://www.w3.org/2000/svg">
<g clip-path="url(#clip0_2207_16281)">
<path d="M11.9887 24.0419C18.5278 24.0419 23.9418 18.6162 23.9418 12.0888C23.9418 5.5498 18.5161 0.135742 11.977 0.135742C5.4497 0.135742 0.0356445 5.5498 0.0356445 12.0888C0.0356445 18.6162 5.46142 24.0419 11.9887 24.0419ZM3.75048 6.56933C5.47314 3.89746 8.5083 2.12793 11.9653 2.12793C15.4223 2.12793 18.4575 3.89746 20.1918 6.55762C20.6723 7.22558 20.4379 7.97558 19.6528 7.97558H4.28955C3.51611 7.97558 3.27002 7.22558 3.75048 6.56933ZM11.977 15.2763C10.5239 15.2763 9.37548 14.1162 9.37548 12.663C9.37548 11.2334 10.5239 10.0732 11.977 10.0732C13.4184 10.0732 14.5786 11.2334 14.5786 12.663C14.5786 14.1162 13.4184 15.2763 11.977 15.2763ZM2.37939 14.7021C2.16845 13.9755 2.57861 13.6474 3.18798 13.7295C6.53955 14.1162 9.14111 17.0576 9.03564 20.5029C9.02392 21.1005 8.57861 21.499 7.9458 21.1943C5.18017 19.9521 3.14111 17.5849 2.37939 14.7021ZM21.5747 14.7021C20.8129 17.5849 18.7856 19.9521 16.0083 21.1943C15.3872 21.499 14.9301 21.1005 14.9184 20.5029C14.8129 17.0693 17.4028 14.1162 20.7661 13.7295C21.3754 13.6474 21.7856 13.9755 21.5747 14.7021Z" fill="black" fill-opacity="0.85"/>
</g>
<defs>
<clipPath id="clip0_2207_16281">
<rect width="23.9062" height="23.918" fill="white" transform="translate(0.0356445 0.135742)"/>
</clipPath>
</defs>
</svg>
