<svg width="35" height="25" viewBox="0 0 35 25" fill="none" xmlns="http://www.w3.org/2000/svg">
<g clip-path="url(#clip0_2207_16301)">
<path d="M22.432 24.0419C28.9593 24.0419 34.3851 18.6162 34.3851 12.0888C34.3851 5.5498 28.9476 0.135742 22.4203 0.135742C15.8812 0.135742 10.4789 5.5498 10.4789 12.0888C10.4789 18.6162 15.8929 24.0419 22.432 24.0419ZM14.182 6.56933C15.9047 3.89746 18.9398 2.12793 22.4086 2.12793C25.8656 2.12793 28.9007 3.89746 30.6351 6.55762C31.1039 7.22558 30.8812 7.97558 30.0843 7.97558H14.7328C13.9476 7.97558 13.7132 7.22558 14.182 6.56933ZM22.4086 15.2763C20.9672 15.2763 19.807 14.1162 19.807 12.663C19.807 11.2334 20.9672 10.0732 22.4086 10.0732C23.85 10.0732 25.0101 11.2334 25.0101 12.663C25.0101 14.1162 23.85 15.2763 22.4086 15.2763ZM12.8109 14.7021C12.6117 13.9755 13.0101 13.6474 13.6195 13.7295C16.9828 14.1162 19.5843 17.0576 19.4672 20.5029C19.4672 21.1005 19.0101 21.499 18.3773 21.1943C15.6117 19.9521 13.5726 17.5849 12.8109 14.7021ZM32.0179 14.7021C31.2562 17.5849 29.2172 19.9521 26.4515 21.1943C25.8187 21.499 25.3617 21.1005 25.3617 20.5029C25.2445 17.0693 27.8343 14.1162 31.2093 13.7295C31.8187 13.6474 32.2172 13.9755 32.0179 14.7021Z" fill="black" fill-opacity="0.85"/>
<path d="M0.388973 11.5264C-0.0563405 11.7842 -0.0797775 12.4053 0.388973 12.6749L6.41241 16.2256C6.90459 16.5186 7.47881 16.2842 7.47881 15.7803V8.39749C7.47881 7.9053 6.86944 7.68265 6.41241 7.95218L0.388973 11.5264Z" fill="black" fill-opacity="0.85"/>
</g>
<defs>
<clipPath id="clip0_2207_16301">
<rect width="34.3389" height="23.918" fill="white" transform="translate(0.0461426 0.135742)"/>
</clipPath>
</defs>
</svg>
