<svg width="31" height="25" viewBox="0 0 31 25" fill="none" xmlns="http://www.w3.org/2000/svg">
<g clip-path="url(#clip0_2207_16317)">
<path d="M29.2011 19.9521C30.0449 19.9521 30.7363 19.2724 30.7363 18.4755C30.7363 17.6669 30.0566 16.999 29.2011 16.999C28.3574 16.999 27.666 17.6669 27.666 18.4755C27.666 19.2724 28.3691 19.9521 29.2011 19.9521ZM29.2011 14.749C29.7754 14.749 30.1855 14.3505 30.2089 13.7529L30.455 5.45605C30.4785 4.70605 29.9746 4.20215 29.2011 4.20215C28.4277 4.20215 27.9355 4.70605 27.9589 5.45605L28.205 13.7529C28.2285 14.3505 28.6269 14.749 29.2011 14.749Z" fill="black" fill-opacity="0.85"/>
<path d="M12.0097 24.0419C18.5488 24.0419 23.9628 18.6162 23.9628 12.0888C23.9628 5.5498 18.5371 0.135742 11.998 0.135742C5.4707 0.135742 0.0566406 5.5498 0.0566406 12.0888C0.0566406 18.6162 5.48242 24.0419 12.0097 24.0419ZM3.77148 6.56933C5.49414 3.89746 8.5293 2.12793 11.9863 2.12793C15.4433 2.12793 18.4785 3.89746 20.2128 6.55762C20.6933 7.22558 20.4589 7.97558 19.6738 7.97558H4.31055C3.53711 7.97558 3.29102 7.22558 3.77148 6.56933ZM11.998 15.2763C10.5449 15.2763 9.39648 14.1162 9.39648 12.663C9.39648 11.2334 10.5449 10.0732 11.998 10.0732C13.4394 10.0732 14.5996 11.2334 14.5996 12.663C14.5996 14.1162 13.4394 15.2763 11.998 15.2763ZM2.40039 14.7021C2.18945 13.9755 2.59961 13.6474 3.20898 13.7295C6.56055 14.1162 9.16211 17.0576 9.05664 20.5029C9.04492 21.1005 8.59961 21.499 7.9668 21.1943C5.20117 19.9521 3.16211 17.5849 2.40039 14.7021ZM21.5957 14.7021C20.8339 17.5849 18.8066 19.9521 16.0293 21.1943C15.4082 21.499 14.9511 21.1005 14.9394 20.5029C14.8339 17.0693 17.4238 14.1162 20.7871 13.7295C21.3964 13.6474 21.8066 13.9755 21.5957 14.7021Z" fill="black" fill-opacity="0.85"/>
</g>
<defs>
<clipPath id="clip0_2207_16317">
<rect width="30.6797" height="23.918" fill="white" transform="translate(0.0566406 0.135742)"/>
</clipPath>
</defs>
</svg>
