<svg width="24" height="25" viewBox="0 0 24 25" fill="none" xmlns="http://www.w3.org/2000/svg">
<g clip-path="url(#clip0_2207_25422)">
<path d="M12.0202 24.0419C18.5593 24.0419 23.9733 18.6162 23.9733 12.0888C23.9733 5.5498 18.5476 0.135742 12.0085 0.135742C5.4812 0.135742 0.0671387 5.5498 0.0671387 12.0888C0.0671387 18.6162 5.49292 24.0419 12.0202 24.0419ZM12.0202 22.0498C6.48902 22.0498 2.07105 17.6201 2.07105 12.0888C2.07105 6.55762 6.4773 2.12793 12.0085 2.12793C17.5398 2.12793 21.9812 6.55762 21.9812 12.0888C21.9812 17.6201 17.5515 22.0498 12.0202 22.0498Z" fill="black" fill-opacity="0.85"/>
<path d="M8.30541 17.3974H15.4187C15.8405 17.3974 16.1335 17.1279 16.1335 16.706C16.1335 16.2959 15.8405 16.0263 15.4187 16.0263H10.3444C10.9421 15.5107 11.3523 14.5732 11.3523 13.5771C11.3523 13.1669 11.3054 12.8037 11.2233 12.4638H14.153C14.528 12.4638 14.7976 12.2177 14.7976 11.831C14.7976 11.456 14.528 11.2099 14.153 11.2099H10.9187C10.8132 10.7646 10.7194 10.2841 10.7194 9.72168C10.7194 8.45605 11.6218 7.58886 13.1569 7.58886C14.1648 7.58886 14.6335 7.8584 14.9616 7.8584C15.3952 7.8584 15.5944 7.6123 15.5944 7.2373C15.5944 6.9209 15.4421 6.6748 14.9968 6.51074C14.4577 6.2998 13.8015 6.20605 13.0749 6.20605C10.6609 6.20605 9.18432 7.6123 9.18432 9.81543C9.18432 10.2841 9.26635 10.7529 9.38354 11.2099H8.30541C7.93041 11.2099 7.64916 11.456 7.64916 11.831C7.64916 12.2177 7.93041 12.4638 8.30541 12.4638H9.68822C9.79369 12.8623 9.86401 13.2607 9.86401 13.6357C9.86401 14.8779 9.10229 15.6982 8.22338 15.9443C7.78979 16.0849 7.61401 16.3076 7.61401 16.706C7.61401 17.1162 7.88354 17.3974 8.30541 17.3974Z" fill="black" fill-opacity="0.85"/>
</g>
<defs>
<clipPath id="clip0_2207_25422">
<rect width="23.9062" height="23.918" fill="white" transform="translate(0.0671387 0.135742)"/>
</clipPath>
</defs>
</svg>
