<svg width="24" height="29" viewBox="0 0 24 29" fill="none" xmlns="http://www.w3.org/2000/svg">
<g clip-path="url(#clip0_2207_20231)">
<path d="M12.0454 26.4091C18.5845 26.4091 23.9985 20.9834 23.9985 14.456C23.9985 7.91699 18.5728 2.50293 12.0337 2.50293C5.50634 2.50293 0.0922852 7.91699 0.0922852 14.456C0.0922852 20.9834 5.51807 26.4091 12.0454 26.4091ZM12.0454 16.3545C10.9907 16.3545 10.1587 15.5107 10.1587 14.4677C10.1587 13.7295 10.5806 13.0966 11.2251 12.7568V6.94433C11.2251 6.4873 11.5767 6.13574 12.0337 6.13574C12.4907 6.13574 12.854 6.4873 12.854 6.94433V12.7685C13.5103 13.0849 13.9321 13.7295 13.9321 14.4677C13.9321 15.5107 13.0884 16.3545 12.0454 16.3545ZM10.7798 3.13574H13.2876V1.4248C13.2876 0.72168 12.7368 0.135742 12.0337 0.135742C11.354 0.135742 10.7798 0.72168 10.7798 1.4248V3.13574ZM19.3462 5.76074L21.0689 7.56543L22.3814 6.24121C22.6509 5.97168 22.8032 5.6084 22.8032 5.29199C22.8032 4.63574 22.2759 4.1084 21.5962 4.1084C21.1978 4.1084 20.9165 4.22558 20.6353 4.49512L19.3462 5.76074Z" fill="black" fill-opacity="0.85"/>
</g>
<defs>
<clipPath id="clip0_2207_20231">
<rect width="23.9062" height="28.6523" fill="white" transform="translate(0.0922852 0.135742)"/>
</clipPath>
</defs>
</svg>
