<svg width="26" height="26" viewBox="0 0 26 26" fill="none" xmlns="http://www.w3.org/2000/svg">
<g clip-path="url(#clip0_2207_10835)">
<path d="M4.08984 25.8359H21.7031C23.3789 25.8359 24.3398 24.8867 24.3398 23.2461V13.6133C23.6367 14 22.793 14.2461 21.9023 14.2461C20.7539 14.2461 19.7227 13.8594 18.9023 13.2265C18.0703 13.8594 17.0391 14.2461 15.8906 14.2461C14.7539 14.2461 13.7109 13.8594 12.8906 13.2383C12.082 13.8594 11.0391 14.2461 9.90234 14.2461C8.75391 14.2461 7.72266 13.8594 6.89062 13.2265C6.07031 13.8594 5.03906 14.2461 3.89062 14.2461C3 14.2461 2.16797 14.0351 1.44141 13.6836V23.2461C1.44141 24.8867 2.41406 25.8359 4.08984 25.8359ZM5.37891 23.9492V17.5625C5.37891 17.0234 5.74219 16.6719 6.28125 16.6719H10.8867C11.4258 16.6719 11.7773 17.0234 11.7773 17.5625V23.9492H5.37891ZM15.293 21.1133C14.7539 21.1133 14.3906 20.7617 14.3906 20.2226V17.0234C14.3906 16.4844 14.7539 16.1328 15.293 16.1328H20.0508C20.5898 16.1328 20.9414 16.4844 20.9414 17.0234V20.2226C20.9414 20.7617 20.5898 21.1133 20.0508 21.1133H15.293ZM2.84766 2.79688H22.8047V2.52734C22.8047 1.03906 21.8906 0.136719 20.3789 0.136719H5.28516C3.77344 0.136719 2.84766 1.03906 2.84766 2.52734V2.79688ZM0.1875 8.57422H25.4648C25.418 8.50391 25.3828 8.41016 25.3359 8.32813L23.0508 3.9336H2.60156L0.316406 8.32813C0.269531 8.41016 0.234375 8.50391 0.1875 8.57422ZM3.83203 13.1094C5.07422 13.1094 6.15234 12.5351 6.83203 11.6211C7.5 12.5351 8.58984 13.1094 9.83203 13.1094C11.0859 13.1094 12.1641 12.5234 12.832 11.6211C13.5 12.5234 14.5781 13.1094 15.832 13.1094C17.0859 13.1094 18.1641 12.5351 18.8438 11.6211C19.5117 12.5351 20.5898 13.1094 21.832 13.1094C23.9648 13.1094 25.6641 11.4336 25.6641 9.92188V9.71094H0V10.1562C0 11.6679 1.71094 13.1094 3.83203 13.1094Z" fill="black" fill-opacity="0.85"/>
</g>
<defs>
<clipPath id="clip0_2207_10835">
<rect width="25.6641" height="25.7227" fill="white" transform="translate(0 0.136719)"/>
</clipPath>
</defs>
</svg>
