<svg width="25" height="25" viewBox="0 0 25 25" fill="none" xmlns="http://www.w3.org/2000/svg">
<g clip-path="url(#clip0_2207_10839)">
<path d="M12.0498 24.0419C18.5889 24.0419 24.0029 18.6162 24.0029 12.0888C24.0029 5.5498 18.5772 0.135742 12.0381 0.135742C5.51074 0.135742 0.0966797 5.5498 0.0966797 12.0888C0.0966797 18.6162 5.52246 24.0419 12.0498 24.0419ZM12.0498 22.0498C6.51856 22.0498 2.10059 17.6201 2.10059 12.0888C2.10059 6.55762 6.50684 2.12793 12.0381 2.12793C17.5694 2.12793 22.0108 6.55762 22.0108 12.0888C22.0108 17.6201 17.5811 22.0498 12.0498 22.0498Z" fill="black" fill-opacity="0.85"/>
<path d="M5.46387 9.3584H18.5069L16.8076 6.22949C16.5498 5.74902 16.0694 5.46777 15.5303 5.46777H8.45215C7.90137 5.46777 7.4209 5.74902 7.16309 6.22949L5.46387 9.3584ZM7.33887 11.913C7.9834 11.913 8.5459 11.6201 8.89746 11.1396C9.22559 11.6201 9.78809 11.913 10.4444 11.913C11.0889 11.913 11.6397 11.6201 11.9912 11.1396C12.3428 11.6201 12.8819 11.913 13.5381 11.913C14.1944 11.913 14.7451 11.6201 15.085 11.1396C15.4365 11.6201 15.999 11.913 16.6436 11.913C17.7334 11.913 18.6123 11.0576 18.6123 10.2841V10.1669H5.37012V10.4013C5.37012 11.1748 6.24902 11.913 7.33887 11.913ZM7.47949 18.6982H16.5733C17.4287 18.6982 17.9209 18.2177 17.9209 17.374V12.4287C17.5694 12.6162 17.1358 12.7451 16.6787 12.7451C16.0811 12.7451 15.5537 12.5459 15.1319 12.2177C14.6983 12.5459 14.1592 12.7451 13.5733 12.7451C12.9873 12.7451 12.4483 12.5459 12.0264 12.2177C11.6045 12.5459 11.0655 12.7451 10.4795 12.7451C9.88184 12.7451 9.34277 12.5459 8.93262 12.2177C8.49902 12.5459 7.97168 12.7451 7.37402 12.7451C6.91699 12.7451 6.49512 12.6396 6.12012 12.4638V17.374C6.12012 18.2177 6.62402 18.6982 7.47949 18.6982ZM9.75293 17.5146V14.3623C9.75293 14.0927 9.94043 13.9052 10.2217 13.9052H13.8545C14.124 13.9052 14.2998 14.0927 14.2998 14.3623V17.5146H9.75293Z" fill="black" fill-opacity="0.85"/>
</g>
<defs>
<clipPath id="clip0_2207_10839">
<rect width="23.9062" height="23.918" fill="white" transform="translate(0.0966797 0.135742)"/>
</clipPath>
</defs>
</svg>
