<svg width="20" height="18" viewBox="0 0 20 18" fill="none" xmlns="http://www.w3.org/2000/svg">
<g clip-path="url(#clip0_2207_22476)">
<path d="M9.67432 17.5039C13.5649 17.5039 16.061 15.5 16.061 12.4414C16.061 10.0039 14.5727 8.71484 11.104 7.89453L9.19385 7.4375C6.81494 6.86328 5.80713 6.13672 5.80713 4.83594C5.80713 3.19531 7.42432 2.03516 9.6626 2.03516C11.6782 2.03516 13.1196 2.94922 13.6938 4.56641C13.8813 5.01172 14.1625 5.22266 14.6313 5.22266C15.2407 5.22266 15.6157 4.8711 15.6157 4.28516C15.6157 4.10938 15.5922 3.92188 15.5454 3.7461C15.018 1.61328 12.6743 0.136719 9.6626 0.136719C6.13526 0.136719 3.59229 2.15234 3.59229 4.98828C3.59229 7.29688 5.04541 8.64453 8.23291 9.39453L10.3891 9.91016C12.8266 10.4961 13.8461 11.2929 13.8461 12.6992C13.8461 14.3867 12.1235 15.6172 9.67432 15.6172C7.50635 15.6172 5.87744 14.6211 5.27979 12.957C5.06885 12.4531 4.81104 12.2305 4.31885 12.2305C3.68604 12.2305 3.29932 12.6172 3.29932 13.2265C3.29932 13.4375 3.33447 13.6601 3.39307 13.8828C4.01416 16.0976 6.45166 17.5039 9.67432 17.5039Z" fill="black" fill-opacity="0.85"/>
<path d="M0.486817 9.13672H18.8735C19.143 9.13672 19.354 8.92578 19.354 8.65625C19.354 8.38672 19.143 8.17578 18.8735 8.17578H0.486817C0.217286 8.17578 0.00634766 8.38672 0.00634766 8.65625C0.00634766 8.92578 0.217286 9.13672 0.486817 9.13672Z" fill="black" fill-opacity="0.85"/>
</g>
<defs>
<clipPath id="clip0_2207_22476">
<rect width="19.3477" height="17.3789" fill="white" transform="translate(0.00634766 0.136719)"/>
</clipPath>
</defs>
</svg>
