<svg width="26" height="26" viewBox="0 0 26 26" fill="none" xmlns="http://www.w3.org/2000/svg">
<g clip-path="url(#clip0_2207_15481)">
<path d="M13.3933 8.0586H24.1277C23.6941 4.29688 20.448 0.195312 14.905 0.195312C14.0144 0.195312 13.3933 0.839844 13.3933 1.77734V8.0586ZM10.405 17H17.8816C22.6863 17 23.9871 13.9648 24.1628 11.1172H24.4207C24.8777 11.1172 25.241 10.7422 25.241 10.2851C25.241 9.82813 24.8777 9.46484 24.4207 9.46484H3.84253C3.3855 9.46484 3.02222 9.82813 3.02222 10.2851C3.02222 10.7422 3.3855 11.1172 3.84253 11.1172H4.12378L4.62769 13.0976C5.23706 15.4883 7.10034 17 10.405 17ZM8.10816 10.3555H10.5925L4.36988 4.13281C4.10034 3.86328 3.80738 3.7461 3.43238 3.7461H0.889404C0.408936 3.7461 0.010498 4.14453 0.010498 4.625C0.010498 5.10547 0.408936 5.51563 0.889404 5.51563H3.26831L8.10816 10.3555ZM7.97925 19.9062L9.20972 21.1836L13.7214 16.6719L12.4558 15.4297L7.97925 19.9062ZM19.0769 21.3359L20.3543 20.1055L15.8894 15.6523L14.4832 16.7422L19.0769 21.3359ZM9.54956 23.0703H18.655V21.5351H9.54956V23.0703ZM6.92456 25.6484C8.78784 25.6484 10.2527 24.1836 10.2527 22.3086C10.2527 20.4453 8.78784 18.9805 6.92456 18.9805C5.04956 18.9805 3.59644 20.4453 3.59644 22.3086C3.59644 24.1836 5.04956 25.6484 6.92456 25.6484ZM6.92456 24.1133C5.92847 24.1133 5.13159 23.3164 5.13159 22.3086C5.13159 21.3008 5.92847 20.5156 6.92456 20.5156C7.93238 20.5156 8.71753 21.3008 8.71753 22.3086C8.71753 23.3164 7.93238 24.1133 6.92456 24.1133ZM21.198 25.414C22.9089 25.414 24.2917 24.0312 24.2917 22.3086C24.2917 20.5976 22.9089 19.2148 21.198 19.2148C19.4753 19.2148 18.0925 20.5976 18.0925 22.3086C18.0925 24.0312 19.4871 25.414 21.198 25.414ZM21.198 24.1133C20.2019 24.1133 19.3933 23.3164 19.3933 22.3086C19.3933 21.3008 20.2019 20.5156 21.198 20.5156C22.2058 20.5156 22.991 21.3008 22.991 22.3086C22.991 23.3164 22.2058 24.1133 21.198 24.1133Z" fill="black" fill-opacity="0.85"/>
</g>
<defs>
<clipPath id="clip0_2207_15481">
<rect width="25.2305" height="25.5117" fill="white" transform="translate(0.010498 0.136719)"/>
</clipPath>
</defs>
</svg>
