<svg width="28" height="23" viewBox="0 0 28 23" fill="none" xmlns="http://www.w3.org/2000/svg">
<g clip-path="url(#clip0_2207_10711)">
<path d="M4.98852 5.0586V21.6758H6.87524V5.0586H4.98852ZM20.3049 5.0586V21.6758H22.1917V5.0586H20.3049ZM3.65258 22.8476H23.5393C25.9651 22.8476 27.1604 21.6758 27.1604 19.2734V7.8711C27.1604 5.46875 25.9651 4.29688 23.5393 4.29688H3.65258C1.23852 4.29688 0.0314941 5.46875 0.0314941 7.8711V19.2734C0.0314941 21.6758 1.23852 22.8476 3.65258 22.8476ZM3.67602 20.9726C2.52758 20.9726 1.91821 20.3867 1.91821 19.1797V7.96484C1.91821 6.76953 2.52758 6.17188 3.67602 6.17188H23.5159C24.6643 6.17188 25.2737 6.76953 25.2737 7.96484V19.1797C25.2737 20.3867 24.6643 20.9726 23.5159 20.9726H3.67602ZM7.64868 5.31641H9.46508V3.24219C9.46508 2.35156 9.99243 1.84766 10.9065 1.84766H16.2854C17.1995 1.84766 17.7151 2.35156 17.7151 3.24219V5.29297H19.5315V3.3711C19.5315 1.16797 18.3713 0.136719 16.2503 0.136719H10.9299C8.92602 0.136719 7.64868 1.16797 7.64868 3.3711V5.31641Z" fill="black" fill-opacity="0.85"/>
</g>
<defs>
<clipPath id="clip0_2207_10711">
<rect width="27.1289" height="22.7227" fill="white" transform="translate(0.0314941 0.136719)"/>
</clipPath>
</defs>
</svg>
