<svg width="19" height="25" viewBox="0 0 19 25" fill="none" xmlns="http://www.w3.org/2000/svg">
<g clip-path="url(#clip0_2207_8015)">
<path d="M9.13819 24.1367C9.78272 24.1367 10.0991 23.7031 10.7671 22.8125L17.7632 13.4726C18.0796 13.039 18.2671 12.6055 18.2671 12.1367C18.2671 11.6562 18.0796 11.2344 17.7632 10.8008L10.7671 1.44922C10.0991 0.570313 9.78272 0.136719 9.13819 0.136719C8.49366 0.136719 8.17725 0.570313 7.521 1.44922L0.524902 10.8008C0.196777 11.2344 0.0209961 11.6562 0.0209961 12.1367C0.0209961 12.6055 0.196777 13.039 0.524902 13.4726L7.521 22.8125C8.17725 23.7031 8.49366 24.1367 9.13819 24.1367Z" fill="black" fill-opacity="0.85"/>
</g>
<defs>
<clipPath id="clip0_2207_8015">
<rect width="18.2461" height="24.0117" fill="white" transform="translate(0.0209961 0.136719)"/>
</clipPath>
</defs>
</svg>
