<svg width="23" height="24" viewBox="0 0 23 24" fill="none" xmlns="http://www.w3.org/2000/svg">
<g clip-path="url(#clip0_2207_8023)">
<path d="M0.0294189 14.0937C0.0294189 16.8828 2.19739 19.0508 4.98645 19.0508C6.54504 19.0508 8.15051 18.5351 8.8302 17.164H8.94739C8.95911 18.7226 7.24817 20.0117 6.54504 20.7383C5.7013 21.6172 6.21692 22.8359 7.30676 22.8359H14.7482C15.838 22.8359 16.3419 21.6172 15.5099 20.7383C14.8067 20.0117 13.0958 18.7226 13.1075 17.164H13.2247C13.9044 18.5351 15.5099 19.0508 17.0567 19.0508C19.8575 19.0508 22.0255 16.8828 22.0255 14.0937C22.0255 8.84375 15.0411 6.62891 12.2403 0.980469C12.006 0.5 11.6427 0.136719 11.0216 0.136719C10.4005 0.136719 10.0489 0.5 9.81458 0.980469C7.0138 6.62891 0.0294189 8.84375 0.0294189 14.0937Z" fill="black" fill-opacity="0.85"/>
</g>
<defs>
<clipPath id="clip0_2207_8023">
<rect width="21.9961" height="23.5195" fill="white" transform="translate(0.0294189 0.136719)"/>
</clipPath>
</defs>
</svg>
