<svg width="28" height="23" viewBox="0 0 28 23" fill="none" xmlns="http://www.w3.org/2000/svg">
<g clip-path="url(#clip0_2207_10715)">
<path d="M4.40893 4.29688H6.29565V22.8476H4.40893V4.29688ZM20.8972 4.29688H22.7839V22.8476H20.8972V4.29688ZM3.65893 22.8476H23.5456C25.9714 22.8476 27.1667 21.6758 27.1667 19.2734V7.8711C27.1667 5.46875 25.9714 4.29688 23.5456 4.29688H3.65893C1.24487 4.29688 0.0378418 5.46875 0.0378418 7.8711V19.2734C0.0378418 21.6758 1.24487 22.8476 3.65893 22.8476ZM7.65503 5.31641H9.47143V3.24219C9.47143 2.35156 9.99878 1.84766 10.9128 1.84766H16.2917C17.2058 1.84766 17.7214 2.35156 17.7214 3.24219V5.29297H19.5378V3.3711C19.5378 1.16797 18.3776 0.136719 16.2566 0.136719H10.9362C8.93237 0.136719 7.65503 1.16797 7.65503 3.3711V5.31641Z" fill="black" fill-opacity="0.85"/>
</g>
<defs>
<clipPath id="clip0_2207_10715">
<rect width="27.1289" height="22.7227" fill="white" transform="translate(0.0378418 0.136719)"/>
</clipPath>
</defs>
</svg>
