<svg width="23" height="24" viewBox="0 0 23 24" fill="none" xmlns="http://www.w3.org/2000/svg">
<g clip-path="url(#clip0_2207_8019)">
<path d="M0.0273438 13.8711C0.0273438 16.8476 2.01953 18.8398 5.00781 18.8398C6.55468 18.8398 7.99609 18.1953 8.8164 17.2812L8.59375 16.8476C8.27734 18.5469 7.1289 19.8125 6.50781 20.5273C5.78125 21.4297 6.13281 22.625 7.39843 22.625H14.6523C15.9179 22.625 16.2695 21.4297 15.5312 20.5273C14.9218 19.8125 13.7734 18.5469 13.457 16.8476L13.2343 17.2812C14.0546 18.1953 15.4961 18.8398 17.0429 18.8398C20.0312 18.8398 22.0234 16.8476 22.0234 13.8711C22.0234 8.92578 15.0156 6.5 12.1679 0.992188C11.9218 0.511719 11.6523 0.136719 11.0195 0.136719C10.3867 0.136719 10.1289 0.511719 9.88281 0.992188C7.03515 6.5 0.0273438 8.92578 0.0273438 13.8711ZM1.75 13.8476C1.75 9.89844 8.26562 7.96484 11.0195 2.04688C13.7734 7.96484 20.3007 9.89844 20.3007 13.8476C20.3007 15.875 18.9531 17.2109 16.9257 17.2109C15.5078 17.2109 14.3593 16.6015 13.5976 15.8984C12.8828 15.2773 11.875 15.5703 11.9218 16.6367C12.039 17.8437 12.8593 19.6484 13.6796 20.6445C13.8554 20.8437 13.75 21.0078 13.5742 21.0078H8.47656C8.30078 21.0078 8.19531 20.8437 8.37109 20.6445C9.1914 19.6484 10 17.8437 10.1289 16.6367C10.1757 15.5703 9.16796 15.2773 8.45312 15.8984C7.67968 16.6015 6.54296 17.2109 5.125 17.2109C3.09765 17.2109 1.75 15.875 1.75 13.8476Z" fill="black" fill-opacity="0.85"/>
</g>
<defs>
<clipPath id="clip0_2207_8019">
<rect width="21.9961" height="23.0977" fill="white" transform="translate(0.0273438 0.136719)"/>
</clipPath>
</defs>
</svg>
