<svg width="14" height="22" viewBox="0 0 14 22" fill="none" xmlns="http://www.w3.org/2000/svg">
<g clip-path="url(#clip0_2207_22536)">
<path d="M1.61438 21.7109H12.5246C13.1222 21.7109 13.5793 21.3359 13.5793 20.7265C13.5793 20.1289 13.1222 19.7305 12.5246 19.7305H2.51673V19.625L8.85657 11.9375C9.16126 11.5625 9.32532 11.1875 9.32532 10.8125C9.32532 10.4258 9.16126 10.0391 8.84485 9.67578L2.52845 2.22266V2.11719H12.5246C13.1339 2.11719 13.591 1.71875 13.591 1.12109C13.591 0.511719 13.1339 0.136719 12.5246 0.136719H1.6261C0.618286 0.136719 0.0557862 0.828125 0.0557862 1.60156C0.0557862 2 0.208129 2.42188 0.512817 2.77344L7.27454 10.7422V10.8711L0.489379 19.0742C0.196411 19.4258 0.0440674 19.8476 0.0440674 20.2461C0.0440674 21.0195 0.606567 21.7109 1.61438 21.7109Z" fill="black" fill-opacity="0.85"/>
</g>
<defs>
<clipPath id="clip0_2207_22536">
<rect width="13.5469" height="21.5742" fill="white" transform="translate(0.0440674 0.136719)"/>
</clipPath>
</defs>
</svg>
