<svg width="24" height="24" viewBox="0 0 24 24" fill="none" xmlns="http://www.w3.org/2000/svg">
<g clip-path="url(#clip0_2207_3845)">
<path d="M11.6856 2.57422C12.3535 2.57422 12.9043 2.03516 12.9043 1.35547C12.9043 0.675781 12.3535 0.136719 11.6856 0.136719C11.0059 0.136719 10.4668 0.675781 10.4668 1.35547C10.4668 2.03516 11.0059 2.57422 11.6856 2.57422ZM19.0332 5.60938C19.7012 5.60938 20.2402 5.07031 20.2402 4.39063C20.2402 3.71094 19.7012 3.17188 19.0332 3.17188C18.3535 3.17188 17.8145 3.71094 17.8145 4.39063C17.8145 5.07031 18.3535 5.60938 19.0332 5.60938ZM22.0684 12.957C22.7363 12.957 23.2754 12.4179 23.2754 11.7383C23.2754 11.0586 22.7363 10.5195 22.0684 10.5195C21.3887 10.5195 20.8496 11.0586 20.8496 11.7383C20.8496 12.4179 21.3887 12.957 22.0684 12.957ZM19.0332 20.3047C19.7012 20.3047 20.2402 19.7656 20.2402 19.0859C20.2402 18.4062 19.7012 17.8672 19.0332 17.8672C18.3535 17.8672 17.8145 18.4062 17.8145 19.0859C17.8145 19.7656 18.3535 20.3047 19.0332 20.3047ZM11.6856 23.3398C12.3535 23.3398 12.9043 22.8008 12.9043 22.1211C12.9043 21.4414 12.3535 20.9023 11.6856 20.9023C11.0059 20.9023 10.4668 21.4414 10.4668 22.1211C10.4668 22.8008 11.0059 23.3398 11.6856 23.3398ZM4.33789 20.3047C5.01757 20.3047 5.55664 19.7656 5.55664 19.0859C5.55664 18.4062 5.01757 17.8672 4.33789 17.8672C3.6582 17.8672 3.11914 18.4062 3.11914 19.0859C3.11914 19.7656 3.6582 20.3047 4.33789 20.3047ZM1.30273 12.957C1.98242 12.957 2.52148 12.4179 2.52148 11.7383C2.52148 11.0586 1.98242 10.5195 1.30273 10.5195C0.623046 10.5195 0.0839844 11.0586 0.0839844 11.7383C0.0839844 12.4179 0.623046 12.957 1.30273 12.957ZM4.33789 5.60938C5.01757 5.60938 5.55664 5.07031 5.55664 4.39063C5.55664 3.71094 5.01757 3.17188 4.33789 3.17188C3.6582 3.17188 3.11914 3.71094 3.11914 4.39063C3.11914 5.07031 3.6582 5.60938 4.33789 5.60938Z" fill="black" fill-opacity="0.85"/>
<path d="M11.6856 17.7031C14.9434 17.7031 17.6504 14.9961 17.6504 11.7383C17.6504 8.46875 14.9434 5.76172 11.6856 5.76172C8.41601 5.76172 5.70898 8.46875 5.70898 11.7383C5.70898 14.9961 8.41601 17.7031 11.6856 17.7031ZM11.6856 15.9219C9.38867 15.9219 7.49023 14.0234 7.49023 11.7383C7.49023 9.45313 9.38867 7.54297 11.6856 7.54297C13.9707 7.54297 15.8692 9.44141 15.8692 11.7383C15.8692 14.0234 13.9707 15.9219 11.6856 15.9219Z" fill="black" fill-opacity="0.85"/>
</g>
<defs>
<clipPath id="clip0_2207_3845">
<rect width="23.1914" height="23.2148" fill="white" transform="translate(0.0839844 0.136719)"/>
</clipPath>
</defs>
</svg>
