<svg width="28" height="29" viewBox="0 0 28 29" fill="none" xmlns="http://www.w3.org/2000/svg">
<g id="sun.dust" clip-path="url(#clip0_2124_12149)">
<g id="Group">
<path id="Vector" d="M8.63672 17.625H11.7188C10.1367 16.957 9 15.3633 9 13.5234C9 11.0391 11.0391 9 13.5234 9C16.0078 9 18.0469 11.0391 18.0469 13.5234C18.0469 15.3633 16.9102 16.957 15.3281 17.625H18.3984C19.3594 16.5234 19.9336 15.082 19.9336 13.5234C19.9336 10.0078 17.0156 7.10156 13.5234 7.10156C10.0195 7.10156 7.11328 10.0078 7.11328 13.5234C7.11328 15.082 7.6875 16.5234 8.63672 17.625ZM1.04297 14.168H3.92578C4.53516 14.168 4.99219 13.7461 4.98047 13.2188C4.96875 12.7031 4.53516 12.2695 3.92578 12.2695H1.04297C0.433594 12.2695 0 12.6914 0 13.2188C0 13.7461 0.433594 14.168 1.04297 14.168ZM7.47656 7.47656C7.83984 7.10156 7.83984 6.49219 7.40625 6.05859L5.36719 4.01953C4.93359 3.58594 4.33594 3.59766 3.96094 3.96094C3.58594 4.32422 3.58594 4.93359 4.01953 5.36719L6.05859 7.40625C6.49219 7.83984 7.11328 7.85156 7.47656 7.47656ZM13.5234 4.98047C14.0508 4.96875 14.4727 4.52344 14.4727 3.92578V1.04297C14.4727 0.433594 14.0508 0 13.5234 0C12.9961 0 12.5742 0.433594 12.5742 1.04297V3.92578C12.5742 4.52344 12.9961 4.99219 13.5234 4.98047ZM19.5703 7.47656C19.9336 7.83984 20.5547 7.83984 20.9883 7.40625L23.0273 5.36719C23.4609 4.93359 23.4492 4.33594 23.0742 3.96094C22.7227 3.58594 22.1133 3.58594 21.668 4.01953L19.6289 6.05859C19.207 6.49219 19.1953 7.11328 19.5703 7.47656ZM23.1211 14.168H26.0039C26.6133 14.168 27.0469 13.7461 27.0469 13.2188C27.0469 12.7031 26.6133 12.2695 26.0039 12.2695H23.1211C22.5117 12.2695 22.0547 12.6914 22.0664 13.2188C22.0781 13.7461 22.5117 14.168 23.1211 14.168Z" fill="black" fill-opacity="0.85"/>
<path id="Vector_2" d="M1.59375 18.7148H25.3945C25.8164 18.7148 26.1328 18.3984 26.1328 17.9766C26.1328 17.5547 25.8164 17.2383 25.3945 17.2383H1.59375C1.18359 17.2383 0.855469 17.5547 0.855469 17.9766C0.855469 18.3984 1.18359 18.7148 1.59375 18.7148ZM2.64844 22.5117C2.98828 22.5117 3.24609 22.2422 3.24609 21.9141C3.24609 21.5742 2.98828 21.3047 2.64844 21.3047C2.30859 21.3047 2.05078 21.5742 2.05078 21.9141C2.05078 22.2422 2.30859 22.5117 2.64844 22.5117ZM7.59375 22.5117C7.93359 22.5117 8.20312 22.2422 8.20312 21.9141C8.20312 21.5742 7.93359 21.3047 7.59375 21.3047C7.26562 21.3047 6.99609 21.5742 6.99609 21.9141C6.99609 22.2422 7.26562 22.5117 7.59375 22.5117ZM12.5508 22.5117C12.8906 22.5117 13.1484 22.2422 13.1484 21.9141C13.1484 21.5742 12.8906 21.3047 12.5508 21.3047C12.2109 21.3047 11.9531 21.5742 11.9531 21.9141C11.9531 22.2422 12.2109 22.5117 12.5508 22.5117ZM17.4961 22.5117C17.8359 22.5117 18.1055 22.2422 18.1055 21.9141C18.1055 21.5742 17.8359 21.3047 17.4961 21.3047C17.168 21.3047 16.8984 21.5742 16.8984 21.9141C16.8984 22.2422 17.168 22.5117 17.4961 22.5117ZM22.4531 22.5117C22.793 22.5117 23.0508 22.2422 23.0508 21.9141C23.0508 21.5742 22.793 21.3047 22.4531 21.3047C22.1133 21.3047 21.8555 21.5742 21.8555 21.9141C21.8555 22.2422 22.1133 22.5117 22.4531 22.5117ZM1.14844 25.3477C1.48828 25.3477 1.75781 25.0898 1.75781 24.75C1.75781 24.4102 1.48828 24.1523 1.14844 24.1523C0.820312 24.1523 0.550781 24.4102 0.550781 24.75C0.550781 25.0898 0.820312 25.3477 1.14844 25.3477ZM6.10547 25.3477C6.43359 25.3477 6.70312 25.0898 6.70312 24.75C6.70312 24.4102 6.43359 24.1523 6.10547 24.1523C5.76562 24.1523 5.49609 24.4102 5.49609 24.75C5.49609 25.0898 5.76562 25.3477 6.10547 25.3477ZM11.0508 25.3477C11.3906 25.3477 11.6602 25.0898 11.6602 24.75C11.6602 24.4102 11.3906 24.1523 11.0508 24.1523C10.7227 24.1523 10.4531 24.4102 10.4531 24.75C10.4531 25.0898 10.7227 25.3477 11.0508 25.3477ZM16.0078 25.3477C16.3359 25.3477 16.6055 25.0898 16.6055 24.75C16.6055 24.4102 16.3359 24.1523 16.0078 24.1523C15.668 24.1523 15.3984 24.4102 15.3984 24.75C15.3984 25.0898 15.668 25.3477 16.0078 25.3477ZM20.9531 25.3477C21.293 25.3477 21.5625 25.0898 21.5625 24.75C21.5625 24.4102 21.293 24.1523 20.9531 24.1523C20.625 24.1523 20.3555 24.4102 20.3555 24.75C20.3555 25.0898 20.625 25.3477 20.9531 25.3477ZM25.9102 25.3477C26.2383 25.3477 26.5078 25.0898 26.5078 24.75C26.5078 24.4102 26.2383 24.1523 25.9102 24.1523C25.5703 24.1523 25.3008 24.4102 25.3008 24.75C25.3008 25.0898 25.5703 25.3477 25.9102 25.3477ZM4.60547 28.1953C4.94531 28.1953 5.20312 27.9258 5.20312 27.5977C5.20312 27.2578 4.94531 26.9883 4.60547 26.9883C4.26562 26.9883 4.00781 27.2578 4.00781 27.5977C4.00781 27.9258 4.26562 28.1953 4.60547 28.1953ZM9.5625 28.1953C9.89062 28.1953 10.1602 27.9258 10.1602 27.5977C10.1602 27.2578 9.89062 26.9883 9.5625 26.9883C9.22266 26.9883 8.95312 27.2578 8.95312 27.5977C8.95312 27.9258 9.22266 28.1953 9.5625 28.1953ZM14.5078 28.1953C14.8477 28.1953 15.1055 27.9258 15.1055 27.5977C15.1055 27.2578 14.8477 26.9883 14.5078 26.9883C14.168 26.9883 13.9102 27.2578 13.9102 27.5977C13.9102 27.9258 14.168 28.1953 14.5078 28.1953ZM19.4648 28.1953C19.793 28.1953 20.0625 27.9258 20.0625 27.5977C20.0625 27.2578 19.793 26.9883 19.4648 26.9883C19.125 26.9883 18.8555 27.2578 18.8555 27.5977C18.8555 27.9258 19.125 28.1953 19.4648 28.1953ZM24.4102 28.1953C24.75 28.1953 25.0078 27.9258 25.0078 27.5977C25.0078 27.2578 24.75 26.9883 24.4102 26.9883C24.0703 26.9883 23.8125 27.2578 23.8125 27.5977C23.8125 27.9258 24.0703 28.1953 24.4102 28.1953Z" fill="black" fill-opacity="0.85"/>
</g>
</g>
<defs>
<clipPath id="clip0_2124_12149">
<rect width="27.0469" height="28.207" fill="white"/>
</clipPath>
</defs>
</svg>
