<svg width="24" height="24" viewBox="0 0 24 24" fill="none" xmlns="http://www.w3.org/2000/svg">
<g id="sun.max.circle.fill" clip-path="url(#clip0_2124_12066)">
<g id="Group">
<path id="Vector" d="M11.9531 23.918C18.4922 23.918 23.9062 18.5039 23.9062 11.9648C23.9062 5.4375 18.4805 0.0117188 11.9414 0.0117188C5.41406 0.0117188 0 5.4375 0 11.9648C0 18.5039 5.42578 23.918 11.9531 23.918Z" fill="black" fill-opacity="0.85"/>
<path id="Vector_2" d="M11.9531 15.6328C9.94922 15.6328 8.28516 13.957 8.28516 11.9648C8.28516 9.96094 9.94922 8.28516 11.9531 8.28516C13.9453 8.28516 15.6094 9.96094 15.6094 11.9648C15.6094 13.957 13.9453 15.6328 11.9531 15.6328ZM11.9531 4.3125C12.3516 4.3125 12.7031 4.66406 12.7031 5.07422V6.50391C12.7031 6.90234 12.3516 7.25391 11.9531 7.25391C11.5547 7.25391 11.2148 6.90234 11.2148 6.50391V5.07422C11.2148 4.66406 11.5547 4.3125 11.9531 4.3125ZM17.3555 6.55078C17.6367 6.84375 17.6484 7.32422 17.3555 7.60547L16.3242 8.63672C16.043 8.92969 15.5508 8.94141 15.2695 8.63672C14.9883 8.36719 14.9766 7.91016 15.2695 7.60547L16.3125 6.55078C16.582 6.26953 17.0625 6.25781 17.3555 6.55078ZM19.582 11.9648C19.582 12.3633 19.2422 12.7031 18.832 12.7031H17.3906C16.9922 12.7031 16.6523 12.3516 16.6523 11.9648C16.6523 11.5664 16.9922 11.2148 17.3906 11.2148H18.832C19.2422 11.2148 19.582 11.5547 19.582 11.9648ZM17.3555 17.3672C17.0625 17.6484 16.5938 17.6484 16.3125 17.3672L15.2695 16.3242C14.9766 16.043 14.9766 15.5742 15.2695 15.2812C15.5508 15 16.043 15 16.3125 15.2812L17.3555 16.3125C17.6484 16.582 17.6484 17.0625 17.3555 17.3672ZM11.9531 19.6055C11.5547 19.6055 11.2148 19.2539 11.2148 18.8555V17.4141C11.2148 17.0156 11.5547 16.6641 11.9531 16.6641C12.3516 16.6641 12.7031 17.0156 12.7031 17.4141V18.8555C12.7031 19.2539 12.3516 19.6055 11.9531 19.6055ZM6.53906 17.3555C6.25781 17.0625 6.25781 16.5938 6.53906 16.3125L7.58203 15.2812C7.85156 15 8.35547 15 8.63672 15.2812C8.91797 15.5859 8.91797 16.0547 8.63672 16.3242L7.59375 17.3672C7.3125 17.6484 6.83203 17.6484 6.53906 17.3555ZM4.33594 11.9648C4.33594 11.5547 4.66406 11.2148 5.07422 11.2148H6.51562C6.91406 11.2148 7.25391 11.5664 7.25391 11.9648C7.25391 12.3516 6.91406 12.7031 6.51562 12.7031H5.07422C4.66406 12.7031 4.33594 12.3633 4.33594 11.9648ZM6.5625 6.55078C6.85547 6.26953 7.32422 6.28125 7.59375 6.55078L8.63672 7.60547C8.91797 7.875 8.91797 8.36719 8.63672 8.63672C8.34375 8.92969 7.86328 8.94141 7.58203 8.63672L6.55078 7.60547C6.25781 7.32422 6.28125 6.84375 6.5625 6.55078Z" fill="white"/>
</g>
</g>
<defs>
<clipPath id="clip0_2124_12066">
<rect width="23.9062" height="23.918" fill="white"/>
</clipPath>
</defs>
</svg>
