<svg width="24" height="24" viewBox="0 0 24 24" fill="none" xmlns="http://www.w3.org/2000/svg">
<g id="sun.horizon.circle.fill" clip-path="url(#clip0_2124_12144)">
<g id="Group">
<path id="Vector" d="M11.9531 23.918C18.4922 23.918 23.9062 18.5039 23.9062 11.9648C23.9062 5.4375 18.4805 0.0117188 11.9414 0.0117188C5.41406 0.0117188 0 5.4375 0 11.9648C0 18.5039 5.42578 23.918 11.9531 23.918Z" fill="black" fill-opacity="0.85"/>
<path id="Vector_2" d="M5.19141 13.8516C4.78125 13.8516 4.46484 13.5469 4.46484 13.1719C4.46484 12.8086 4.78125 12.5039 5.19141 12.5039H6.73828C7.16016 12.5039 7.5 12.7969 7.5 13.1719C7.5 13.5586 7.17188 13.8516 6.73828 13.8516H5.19141ZM7.80469 10.1367L6.70312 9.03516C6.39844 8.73047 6.39844 8.33203 6.64453 8.05078C6.91406 7.80469 7.32422 7.75781 7.62891 8.07422L8.75391 9.19922C9.04688 9.48047 9.07031 9.91406 8.78906 10.1953C8.51953 10.4531 8.08594 10.4297 7.80469 10.1367ZM15.1055 10.1953C14.8242 9.91406 14.8242 9.50391 15.1289 9.19922L16.2539 8.07422C16.5352 7.76953 16.9805 7.78125 17.25 8.05078C17.4961 8.33203 17.4844 8.73047 17.1797 9.03516L16.0898 10.1367C15.7969 10.4414 15.375 10.4414 15.1055 10.1953ZM17.1445 13.8516C16.7227 13.8516 16.3945 13.5586 16.3945 13.1719C16.3945 12.7969 16.7227 12.5039 17.1445 12.5039H18.7031C19.1133 12.5039 19.418 12.8086 19.418 13.1719C19.418 13.5469 19.1133 13.8516 18.7031 13.8516H17.1445ZM15.5391 13.3359C15.5391 13.7109 15.457 14.0859 15.3398 14.4492H8.54297C8.42578 14.0859 8.34375 13.7109 8.34375 13.3359C8.34375 11.3555 9.98438 9.72656 11.9414 9.72656C13.9102 9.72656 15.5391 11.3555 15.5391 13.3359ZM5.17969 16.6406C4.81641 16.6406 4.46484 16.3594 4.46484 15.9727C4.46484 15.5977 4.80469 15.3164 5.17969 15.3164H18.7148C19.0898 15.3164 19.418 15.5977 19.418 15.9727C19.418 16.3594 19.0781 16.6406 18.7148 16.6406H5.17969ZM12.6211 7.74609C12.6211 8.15625 12.3164 8.49609 11.9414 8.49609C11.5664 8.49609 11.2734 8.15625 11.2734 7.74609V6.19922C11.2734 5.76562 11.5781 5.47266 11.9414 5.47266C12.3047 5.47266 12.6211 5.76562 12.6211 6.19922V7.74609Z" fill="white"/>
</g>
</g>
<defs>
<clipPath id="clip0_2124_12144">
<rect width="23.9062" height="23.918" fill="white"/>
</clipPath>
</defs>
</svg>
