<svg width="24" height="24" viewBox="0 0 24 24" fill="none" xmlns="http://www.w3.org/2000/svg">
<g id="sun.horizon.circle" clip-path="url(#clip0_2124_12139)">
<g id="Group">
<path id="Vector" d="M11.9531 23.9062C18.4922 23.9062 23.9062 18.4805 23.9062 11.9531C23.9062 5.41406 18.4805 0 11.9414 0C5.41406 0 0 5.41406 0 11.9531C0 18.4805 5.42578 23.9062 11.9531 23.9062ZM11.9531 21.9141C6.42188 21.9141 2.00391 17.4844 2.00391 11.9531C2.00391 6.42188 6.41016 1.99219 11.9414 1.99219C17.4727 1.99219 21.9141 6.42188 21.9141 11.9531C21.9141 17.4844 17.4844 21.9141 11.9531 21.9141Z" fill="black" fill-opacity="0.85"/>
<path id="Vector_2" d="M5.39062 13.7578H6.90234C7.3125 13.7578 7.61719 13.4766 7.61719 13.1016C7.61719 12.7383 7.30078 12.457 6.90234 12.457H5.39062C4.99219 12.457 4.6875 12.75 4.6875 13.1016C4.6875 13.4531 4.99219 13.7578 5.39062 13.7578ZM7.93359 10.1602C8.20312 10.4414 8.625 10.4648 8.88281 10.1953C9.15234 9.9375 9.12891 9.51562 8.84766 9.24609L7.75781 8.15625C7.46484 7.85156 7.06641 7.88672 6.80859 8.13281C6.5625 8.39062 6.5625 8.78906 6.85547 9.08203L7.93359 10.1602ZM15.0117 10.1953C15.2695 10.4531 15.6797 10.4531 15.9609 10.1602L17.0273 9.08203C17.3203 8.78906 17.332 8.39062 17.0859 8.13281C16.8281 7.86328 16.4062 7.86328 16.125 8.15625L15.0352 9.24609C14.7422 9.52734 14.7422 9.9375 15.0117 10.1953ZM16.9805 13.7578H18.5039C18.9023 13.7578 19.1953 13.4648 19.1953 13.1016C19.1953 12.75 18.9023 12.457 18.5039 12.457H16.9805C16.582 12.457 16.2656 12.7383 16.2656 13.1016C16.2656 13.4648 16.582 13.7578 16.9805 13.7578ZM15.4336 13.2539C15.4336 11.3438 13.8516 9.75 11.9414 9.75C10.043 9.75 8.44922 11.3438 8.44922 13.2539C8.44922 13.6289 8.53125 13.9922 8.64844 14.332H15.2344C15.3516 13.9922 15.4336 13.6289 15.4336 13.2539ZM5.37891 16.4648H18.5156C18.8672 16.4648 19.1953 16.1836 19.1953 15.8203C19.1953 15.457 18.8789 15.1875 18.5156 15.1875H5.37891C5.01562 15.1875 4.6875 15.457 4.6875 15.8203C4.6875 16.1836 5.02734 16.4648 5.37891 16.4648ZM12.5977 7.83984V6.32812C12.5977 5.91797 12.293 5.625 11.9414 5.625C11.5898 5.625 11.2969 5.91797 11.2969 6.32812V7.83984C11.2969 8.23828 11.5781 8.55469 11.9414 8.55469C12.3047 8.55469 12.5977 8.22656 12.5977 7.83984Z" fill="black" fill-opacity="0.85"/>
</g>
</g>
<defs>
<clipPath id="clip0_2124_12139">
<rect width="23.9062" height="23.918" fill="white"/>
</clipPath>
</defs>
</svg>
