<svg width="24" height="24" viewBox="0 0 24 24" fill="none" xmlns="http://www.w3.org/2000/svg">
<g id="sun.snow.circle" clip-path="url(#clip0_2124_12225)">
<g id="Group">
<path id="Vector" d="M11.9531 23.9062C18.4922 23.9062 23.9062 18.4805 23.9062 11.9531C23.9062 5.41406 18.4805 0 11.9414 0C5.41406 0 0 5.41406 0 11.9531C0 18.4805 5.42578 23.9062 11.9531 23.9062ZM11.9531 21.9141C6.42188 21.9141 2.00391 17.4844 2.00391 11.9531C2.00391 6.42188 6.41016 1.99219 11.9414 1.99219C17.4727 1.99219 21.9141 6.42188 21.9141 11.9531C21.9141 17.4844 17.4844 21.9141 11.9531 21.9141Z" fill="black" fill-opacity="0.85"/>
<path id="Vector_2" d="M15.4336 11.8477C15.4336 9.92578 13.8516 8.34375 11.9414 8.34375C10.043 8.34375 8.44922 9.92578 8.44922 11.8477C8.44922 12.2109 8.53125 12.5859 8.64844 12.9258H15.2344C15.3516 12.5859 15.4336 12.2109 15.4336 11.8477ZM5.39062 12.3398H6.90234C7.3125 12.3398 7.61719 12.0586 7.61719 11.6953C7.61719 11.332 7.30078 11.0391 6.90234 11.0391H5.39062C4.99219 11.0391 4.6875 11.3438 4.6875 11.6953C4.6875 12.0469 4.99219 12.3398 5.39062 12.3398ZM7.93359 8.74219C8.21484 9.02344 8.625 9.04688 8.88281 8.78906C9.15234 8.53125 9.12891 8.10938 8.84766 7.82812L7.75781 6.73828C7.46484 6.44531 7.06641 6.48047 6.80859 6.71484C6.5625 6.98438 6.5625 7.37109 6.85547 7.66406L7.93359 8.74219ZM12.5977 6.43359V4.91016C12.5977 4.51172 12.293 4.21875 11.9414 4.21875C11.5898 4.21875 11.2969 4.51172 11.2969 4.91016V6.43359C11.2969 6.83203 11.5781 7.14844 11.9414 7.14844C12.3047 7.14844 12.5977 6.82031 12.5977 6.43359ZM15.0117 8.78906C15.2695 9.03516 15.6797 9.03516 15.9609 8.74219L17.0273 7.66406C17.3203 7.37109 17.332 6.98438 17.0859 6.71484C16.8281 6.45703 16.4062 6.45703 16.125 6.73828L15.0352 7.82812C14.7422 8.12109 14.7422 8.53125 15.0117 8.78906ZM16.9805 12.3398H18.5039C18.9023 12.3398 19.1953 12.0469 19.1953 11.6953C19.1953 11.3438 18.9023 11.0391 18.5039 11.0391H16.9805C16.582 11.0391 16.2656 11.332 16.2656 11.6953C16.2656 12.0586 16.582 12.3398 16.9805 12.3398ZM5.37891 15.0586H18.5156C18.8672 15.0586 19.1953 14.7773 19.1953 14.4141C19.1953 14.0391 18.8789 13.7695 18.5156 13.7695H5.37891C5.01562 13.7695 4.6875 14.0391 4.6875 14.4141C4.6875 14.7773 5.02734 15.0586 5.37891 15.0586ZM8.07422 19.0195C8.26172 19.0195 8.40234 18.8438 8.39062 18.6562L8.34375 17.9531L8.92969 18.3516C9.07031 18.457 9.30469 18.4102 9.38672 18.2578C9.50391 18.1172 9.45703 17.8711 9.24609 17.7773L8.61328 17.4727L9.24609 17.1445C9.44531 17.0391 9.48047 16.8516 9.39844 16.6875C9.31641 16.5234 9.07031 16.4883 8.92969 16.582L8.34375 16.9922L8.39062 16.3008C8.40234 16.0898 8.26172 15.9258 8.07422 15.9258C7.86328 15.9258 7.73438 16.0898 7.74609 16.2891L7.78125 16.9922L7.19531 16.582C7.04297 16.4883 6.83203 16.5117 6.73828 16.6875C6.64453 16.8281 6.67969 17.0391 6.89062 17.1562L7.5 17.4727L6.89062 17.7773C6.67969 17.8711 6.64453 18.0938 6.72656 18.2461C6.80859 18.4219 7.04297 18.457 7.19531 18.3516L7.78125 17.9531L7.75781 18.6562C7.74609 18.8438 7.86328 19.0195 8.07422 19.0195ZM11.9414 19.0195C12.1289 19.0195 12.2695 18.8438 12.2578 18.6562L12.2109 17.9531L12.7969 18.3516C12.9375 18.457 13.1719 18.4102 13.2539 18.2578C13.3711 18.1172 13.3242 17.8711 13.1133 17.7773L12.4805 17.4727L13.1133 17.1445C13.3125 17.0391 13.3477 16.8516 13.2656 16.6875C13.1836 16.5234 12.9375 16.4883 12.7969 16.582L12.2109 16.9922L12.2578 16.3008C12.2695 16.0898 12.1289 15.9258 11.9414 15.9258C11.7305 15.9258 11.6016 16.0898 11.6133 16.2891L11.6484 16.9922L11.0625 16.582C10.9102 16.4883 10.6875 16.5117 10.6055 16.6875C10.5117 16.8281 10.5469 17.0391 10.7578 17.1562L11.3672 17.4727L10.7578 17.7773C10.5469 17.8711 10.5117 18.0938 10.5938 18.2461C10.6641 18.4219 10.9102 18.457 11.0625 18.3516L11.6484 17.9531L11.625 18.6562C11.6133 18.8438 11.7305 19.0195 11.9414 19.0195ZM15.8086 19.0195C15.9961 19.0195 16.125 18.8438 16.1133 18.6562L16.0781 17.9531L16.6641 18.3516C16.8047 18.457 17.0391 18.4102 17.1211 18.2578C17.2383 18.1172 17.1797 17.8711 16.9805 17.7773L16.3477 17.4727L16.9805 17.1445C17.168 17.0391 17.2148 16.8516 17.1328 16.6875C17.0508 16.5234 16.8047 16.4883 16.6641 16.582L16.0781 16.9922L16.1133 16.3008C16.125 16.0898 15.9961 15.9258 15.8086 15.9258C15.5977 15.9258 15.4688 16.0898 15.4805 16.2891L15.5156 16.9922L14.9297 16.582C14.7773 16.4883 14.5547 16.5117 14.4727 16.6875C14.3789 16.8281 14.4141 17.0391 14.6133 17.1562L15.2344 17.4727L14.6133 17.7773C14.4023 17.8711 14.3789 18.0938 14.4609 18.2461C14.5312 18.4219 14.7773 18.457 14.9297 18.3516L15.5156 17.9531L15.4922 18.6562C15.4805 18.8438 15.5977 19.0195 15.8086 19.0195Z" fill="black" fill-opacity="0.85"/>
</g>
</g>
<defs>
<clipPath id="clip0_2124_12225">
<rect width="23.9062" height="23.918" fill="white"/>
</clipPath>
</defs>
</svg>
