<svg width="24" height="25" viewBox="0 0 24 25" fill="none" xmlns="http://www.w3.org/2000/svg">
<g clip-path="url(#clip0_2207_3948)">
<path d="M12.0202 24.0547C18.5593 24.0547 23.9733 18.6406 23.9733 12.1015C23.9733 5.57422 18.5476 0.148438 12.0085 0.148438C5.4812 0.148438 0.0671387 5.57422 0.0671387 12.1015C0.0671387 18.6406 5.49292 24.0547 12.0202 24.0547Z" fill="black" fill-opacity="0.85"/>
<path d="M5.25855 13.9883C4.84839 13.9883 4.53198 13.6836 4.53198 13.3086C4.53198 12.9453 4.84839 12.6406 5.25855 12.6406H6.80542C7.2273 12.6406 7.56714 12.9336 7.56714 13.3086C7.56714 13.6953 7.23902 13.9883 6.80542 13.9883H5.25855ZM7.87183 10.2734L6.77026 9.17188C6.46558 8.86719 6.46558 8.46875 6.71167 8.1875C6.9812 7.94141 7.39136 7.89452 7.69605 8.21093L8.82105 9.33593C9.11402 9.61718 9.13745 10.0508 8.8562 10.332C8.58667 10.5898 8.15308 10.5664 7.87183 10.2734ZM15.1726 10.332C14.8913 10.0508 14.8913 9.64062 15.196 9.33593L16.321 8.21093C16.6023 7.90624 17.0476 7.91797 17.3171 8.1875C17.5632 8.46875 17.5515 8.86719 17.2468 9.17188L16.1569 10.2734C15.864 10.5781 15.4421 10.5781 15.1726 10.332ZM17.2116 13.9883C16.7898 13.9883 16.4616 13.6953 16.4616 13.3086C16.4616 12.9336 16.7898 12.6406 17.2116 12.6406H18.7702C19.1804 12.6406 19.4851 12.9453 19.4851 13.3086C19.4851 13.6836 19.1804 13.9883 18.7702 13.9883H17.2116ZM15.6062 13.4726C15.6062 13.8476 15.5241 14.2226 15.4069 14.5859H8.61011C8.49292 14.2226 8.41089 13.8476 8.41089 13.4726C8.41089 11.4922 10.0515 9.86327 12.0085 9.86327C13.9773 9.86327 15.6062 11.4922 15.6062 13.4726ZM5.24683 16.7773C4.88355 16.7773 4.53198 16.4961 4.53198 16.1094C4.53198 15.7344 4.87183 15.4531 5.24683 15.4531H18.7819C19.1569 15.4531 19.4851 15.7344 19.4851 16.1094C19.4851 16.4961 19.1452 16.7773 18.7819 16.7773H5.24683ZM12.6882 7.8828C12.6882 8.29296 12.3835 8.6328 12.0085 8.6328C11.6335 8.6328 11.3405 8.29296 11.3405 7.8828V6.33594C11.3405 5.90234 11.6452 5.60938 12.0085 5.60938C12.3718 5.60938 12.6882 5.90234 12.6882 6.33594V7.8828Z" fill="white"/>
</g>
<defs>
<clipPath id="clip0_2207_3948">
<rect width="23.9062" height="23.918" fill="white" transform="translate(0.0671387 0.136719)"/>
</clipPath>
</defs>
</svg>
