<svg width="24" height="24" viewBox="0 0 24 24" fill="none" xmlns="http://www.w3.org/2000/svg">
<g id="sun.rain.circle" clip-path="url(#clip0_2124_12200)">
<g id="Group">
<path id="Vector" d="M11.9531 23.9062C18.4922 23.9062 23.9062 18.4805 23.9062 11.9531C23.9062 5.41406 18.4805 0 11.9414 0C5.41406 0 0 5.41406 0 11.9531C0 18.4805 5.42578 23.9062 11.9531 23.9062ZM11.9531 21.9141C6.42188 21.9141 2.00391 17.4844 2.00391 11.9531C2.00391 6.42188 6.41016 1.99219 11.9414 1.99219C17.4727 1.99219 21.9141 6.42188 21.9141 11.9531C21.9141 17.4844 17.4844 21.9141 11.9531 21.9141Z" fill="black" fill-opacity="0.85"/>
<path id="Vector_2" d="M15.4336 11.25C15.4336 9.33984 13.8516 7.75781 11.9414 7.75781C10.043 7.75781 8.44922 9.33984 8.44922 11.25C8.44922 11.625 8.53125 11.9883 8.64844 12.3398H15.2344C15.3516 11.9883 15.4336 11.625 15.4336 11.25ZM5.39062 11.7539H6.90234C7.3125 11.7539 7.61719 11.4727 7.61719 11.0977C7.61719 10.7344 7.30078 10.4531 6.90234 10.4531H5.39062C4.99219 10.4531 4.6875 10.7461 4.6875 11.0977C4.6875 11.4609 4.99219 11.7539 5.39062 11.7539ZM7.93359 8.15625C8.21484 8.4375 8.625 8.46094 8.88281 8.20312C9.15234 7.93359 9.12891 7.52344 8.84766 7.24219L7.75781 6.15234C7.46484 5.84766 7.06641 5.89453 6.80859 6.12891C6.5625 6.39844 6.5625 6.78516 6.85547 7.07812L7.93359 8.15625ZM12.5977 5.83594V4.32422C12.5977 3.91406 12.293 3.62109 11.9414 3.62109C11.5898 3.62109 11.2969 3.91406 11.2969 4.32422V5.83594C11.2969 6.23438 11.5781 6.5625 11.9414 6.5625C12.3047 6.5625 12.5977 6.23438 12.5977 5.83594ZM15.0117 8.20312C15.2695 8.44922 15.6797 8.44922 15.9609 8.15625L17.0273 7.07812C17.3203 6.78516 17.332 6.39844 17.0859 6.12891C16.8281 5.87109 16.4062 5.85938 16.125 6.15234L15.0352 7.24219C14.7422 7.53516 14.7422 7.93359 15.0117 8.20312ZM16.9805 11.7539H18.5039C18.9023 11.7539 19.1953 11.4609 19.1953 11.0977C19.1953 10.7461 18.9023 10.4531 18.5039 10.4531H16.9805C16.582 10.4531 16.2656 10.7344 16.2656 11.0977C16.2656 11.4727 16.582 11.7539 16.9805 11.7539ZM5.37891 14.4609H18.5156C18.8672 14.4609 19.1953 14.1797 19.1953 13.8164C19.1953 13.4531 18.8789 13.1836 18.5156 13.1836H5.37891C5.01562 13.1836 4.6875 13.4531 4.6875 13.8164C4.6875 14.1797 5.02734 14.4609 5.37891 14.4609ZM8.01562 17.7891L8.85938 16.3594C9 16.1016 8.91797 15.7617 8.64844 15.6211C8.40234 15.4688 8.08594 15.5625 7.93359 15.8203L7.10156 17.2617C6.94922 17.5078 7.03125 17.8477 7.30078 17.9883C7.54688 18.1406 7.875 18.0469 8.01562 17.7891ZM9.67969 19.5938L11.5547 16.3594C11.707 16.0898 11.625 15.7617 11.3555 15.6211C11.1094 15.4688 10.7812 15.5508 10.6406 15.8203L8.75391 19.0664C8.60156 19.3242 8.68359 19.6523 8.95312 19.793C9.21094 19.9453 9.52734 19.8516 9.67969 19.5938ZM13.418 17.7891L14.25 16.3594C14.4023 16.1016 14.3086 15.7617 14.0508 15.6211C13.793 15.4688 13.4766 15.5625 13.3242 15.8203L12.4922 17.2617C12.3398 17.5078 12.4336 17.8477 12.6914 17.9883C12.9492 18.1406 13.2656 18.0469 13.418 17.7891ZM15.0703 19.5938L16.957 16.3594C17.0977 16.0898 17.0156 15.7617 16.7461 15.6211C16.5 15.4688 16.1836 15.5508 16.0312 15.8203L14.1445 19.0664C14.0039 19.3242 14.0859 19.6523 14.3555 19.793C14.6016 19.9453 14.918 19.8516 15.0703 19.5938Z" fill="black" fill-opacity="0.85"/>
</g>
</g>
<defs>
<clipPath id="clip0_2124_12200">
<rect width="23.9062" height="23.918" fill="white"/>
</clipPath>
</defs>
</svg>
