<svg width="28" height="29" viewBox="0 0 28 29" fill="none" xmlns="http://www.w3.org/2000/svg">
<g id="sun.haze" clip-path="url(#clip0_2124_12169)">
<g id="Group">
<path id="Vector" d="M8.63672 17.625H11.7188C10.1367 16.957 9 15.3633 9 13.5234C9 11.0391 11.0391 9 13.5234 9C16.0078 9 18.0469 11.0391 18.0469 13.5234C18.0469 15.3633 16.9102 16.957 15.3281 17.625H18.3984C19.3594 16.5234 19.9336 15.082 19.9336 13.5234C19.9336 10.0078 17.0156 7.10156 13.5234 7.10156C10.0195 7.10156 7.11328 10.0078 7.11328 13.5234C7.11328 15.082 7.6875 16.5234 8.63672 17.625ZM1.04297 14.168H3.92578C4.53516 14.168 4.99219 13.7461 4.98047 13.2188C4.96875 12.7031 4.53516 12.2695 3.92578 12.2695H1.04297C0.433594 12.2695 0 12.6914 0 13.2188C0 13.7461 0.433594 14.168 1.04297 14.168ZM7.47656 7.47656C7.83984 7.10156 7.83984 6.49219 7.40625 6.05859L5.36719 4.01953C4.93359 3.58594 4.33594 3.59766 3.96094 3.96094C3.58594 4.32422 3.58594 4.93359 4.01953 5.36719L6.05859 7.40625C6.49219 7.83984 7.11328 7.85156 7.47656 7.47656ZM13.5234 4.98047C14.0508 4.96875 14.4727 4.52344 14.4727 3.92578V1.04297C14.4727 0.433594 14.0508 0 13.5234 0C12.9961 0 12.5742 0.433594 12.5742 1.04297V3.92578C12.5742 4.52344 12.9961 4.99219 13.5234 4.98047ZM19.5703 7.47656C19.9336 7.83984 20.5547 7.83984 20.9883 7.40625L23.0273 5.36719C23.4609 4.93359 23.4492 4.33594 23.0742 3.96094C22.7227 3.58594 22.1133 3.58594 21.668 4.01953L19.6289 6.05859C19.207 6.49219 19.1953 7.11328 19.5703 7.47656ZM23.1211 14.168H26.0039C26.6133 14.168 27.0469 13.7461 27.0469 13.2188C27.0469 12.7031 26.6133 12.2695 26.0039 12.2695H23.1211C22.5117 12.2695 22.0547 12.6914 22.0664 13.2188C22.0781 13.7461 22.5117 14.168 23.1211 14.168Z" fill="black" fill-opacity="0.85"/>
<path id="Vector_2" d="M2.50781 18.7148H26.3086C26.7188 18.7148 27.0469 18.3984 27.0469 17.9766C27.0469 17.5547 26.7188 17.2383 26.3086 17.2383H2.50781C2.08594 17.2383 1.76953 17.5547 1.76953 17.9766C1.76953 18.3984 2.08594 18.7148 2.50781 18.7148ZM0.738281 23.2266H24.5391C24.9492 23.2266 25.2773 22.8984 25.2773 22.4766C25.2773 22.0547 24.9492 21.7383 24.5391 21.7383H0.738281C0.328125 21.7383 0 22.0547 0 22.4766C0 22.8984 0.328125 23.2266 0.738281 23.2266ZM2.50781 27.7266H26.3086C26.7188 27.7266 27.0469 27.4102 27.0469 26.9883C27.0469 26.5547 26.7188 26.2383 26.3086 26.2383H2.50781C2.08594 26.2383 1.76953 26.5547 1.76953 26.9883C1.76953 27.4102 2.08594 27.7266 2.50781 27.7266Z" fill="black" fill-opacity="0.85"/>
</g>
</g>
<defs>
<clipPath id="clip0_2124_12169">
<rect width="27.0469" height="28.207" fill="white"/>
</clipPath>
</defs>
</svg>
