<svg width="37" height="13" viewBox="0 0 37 13" fill="none" xmlns="http://www.w3.org/2000/svg">
<g clip-path="url(#clip0_2207_18541)">
<path d="M18.1214 4.52148C18.5198 4.52148 18.8714 4.75586 19.0706 5.18945L20.3362 7.99023C21.7425 11.0489 24.3089 12.3496 27.1331 12.3496C31.2581 12.3496 34.1643 9.80664 34.8322 5.33008L35.055 3.87695C35.2894 2.29492 36.2268 1.79101 36.2268 1.11133C36.2268 0.513672 35.7933 0.138672 34.9846 0.138672C31.2932 0.138672 27.9417 0.326172 25.9494 0.619141C21.7659 1.24023 20.1253 2.30664 18.1214 2.30664C16.1058 2.30664 14.465 1.24023 10.2815 0.619141C8.28931 0.326172 4.93774 0.138672 1.25806 0.138672C0.449462 0.138672 0.00415039 0.513672 0.00415039 1.11133C0.00415039 1.79101 0.953369 2.29492 1.18774 3.87695L1.4104 5.33008C2.06665 9.80664 4.9729 12.3496 9.10962 12.3496C11.9339 12.3496 14.5003 11.0489 15.8948 7.99023L17.1721 5.18945C17.3596 4.75586 17.7112 4.52148 18.1214 4.52148ZM9.12134 10.5801C5.25415 10.5801 3.12134 7.93164 3.12134 4.1582C3.12134 2.83398 4.23462 2.20117 6.70727 2.20117C11.9456 2.20117 14.5237 3.20898 14.5237 5.18945C14.5237 8.17773 12.5315 10.5801 9.12134 10.5801ZM27.1096 10.5801C23.7111 10.5801 21.7073 8.17773 21.7073 5.18945C21.7073 3.20898 24.2854 2.20117 29.5237 2.20117C32.0081 2.20117 33.1096 2.83398 33.1096 4.1582C33.1096 7.93164 30.9768 10.5801 27.1096 10.5801Z" fill="black" fill-opacity="0.85"/>
<path d="M9.12134 10.5801C5.25415 10.5801 3.12134 7.93164 3.12134 4.1582C3.12134 2.83398 4.23462 2.20117 6.70727 2.20117C11.9455 2.20117 14.5236 3.20898 14.5236 5.18945C14.5236 8.17773 12.5314 10.5801 9.12134 10.5801ZM27.1096 10.5801C23.7111 10.5801 21.7072 8.17773 21.7072 5.18945C21.7072 3.20898 24.2853 2.20117 29.5236 2.20117C32.008 2.20117 33.1096 2.83398 33.1096 4.1582C33.1096 7.93164 30.9768 10.5801 27.1096 10.5801Z" fill="white"/>
</g>
<defs>
<clipPath id="clip0_2207_18541">
<rect width="36.2227" height="12.2227" fill="white" transform="translate(0.00415039 0.138672)"/>
</clipPath>
</defs>
</svg>
