<svg width="31" height="25" viewBox="0 0 31 25" fill="none" xmlns="http://www.w3.org/2000/svg">
<g clip-path="url(#clip0_2207_3895)">
<path d="M1.03418 24.5957H29.0302C29.581 24.5957 30.0498 24.1739 30.0498 23.6582C30.0498 23.1426 29.581 22.7207 29.0302 22.7207H1.03418C0.483398 22.7207 0.0146484 23.1426 0.0146484 23.6582C0.0146484 24.1739 0.483398 24.5957 1.03418 24.5957Z" fill="black" fill-opacity="0.85"/>
<path d="M21.3779 18.9472C21.3779 15.4902 18.5068 12.5956 15.038 12.5956C11.5576 12.5956 8.68653 15.4902 8.68653 18.9472C8.68653 19.8027 8.86231 20.623 9.19043 21.3495H20.874C21.2021 20.623 21.3779 19.8027 21.3779 18.9472ZM2.55762 19.6152H5.44043C6.04981 19.6152 6.50684 19.1933 6.49512 18.6659C6.4834 18.1386 6.03809 17.7167 5.44043 17.7167H2.55762C1.94824 17.7167 1.51465 18.1386 1.51465 18.6659C1.51465 19.1933 1.94824 19.6152 2.55762 19.6152ZM7.57324 12.8534C7.99512 13.287 8.62793 13.2988 8.99121 12.9238C9.35449 12.5488 9.35449 11.9277 8.9209 11.5058L6.88184 9.4667C6.44824 9.03311 5.85059 9.04483 5.47559 9.40811C5.10059 9.77139 5.08887 10.3808 5.53418 10.8144L7.57324 12.8534ZM21.0732 12.9238C21.4482 13.287 22.0693 13.287 22.4912 12.8534L24.5302 10.8144C24.9755 10.3808 24.9521 9.78311 24.5888 9.40811C24.2255 9.03311 23.6162 9.03311 23.1826 9.4667L21.1435 11.5058C20.7099 11.9277 20.6982 12.5605 21.0732 12.9238ZM24.624 19.6152H27.5068C28.1162 19.6152 28.5498 19.1933 28.5498 18.6659C28.5498 18.1386 28.1162 17.7167 27.5068 17.7167H24.624C24.0263 17.7167 23.5576 18.1386 23.5693 18.6659C23.581 19.1933 24.0263 19.6152 24.624 19.6152Z" fill="black" fill-opacity="0.85"/>
<path d="M15.038 9.70117C15.5537 9.70117 15.9873 9.24414 15.9873 8.66992V4.27539L15.8466 2.50586L16.7138 3.50195L18.1787 4.99023C18.3544 5.15429 18.5771 5.25976 18.7998 5.25976C19.2685 5.25976 19.6084 4.93164 19.6084 4.47461C19.6084 4.22851 19.5263 4.04101 19.3271 3.85351L15.6708 0.44336C15.4248 0.220703 15.249 0.138672 15.038 0.138672C14.8154 0.138672 14.6396 0.220703 14.3935 0.44336L10.7373 3.85351C10.538 4.04101 10.456 4.22851 10.456 4.47461C10.456 4.93164 10.7958 5.25976 11.2646 5.25976C11.4873 5.25976 11.7099 5.15429 11.8857 4.99023L13.4677 3.38476L14.2177 2.50586L14.0771 4.27539V8.66992C14.0771 9.24414 14.5107 9.70117 15.038 9.70117Z" fill="black" fill-opacity="0.85"/>
</g>
<defs>
<clipPath id="clip0_2207_3895">
<rect width="30.0352" height="24.4805" fill="white" transform="translate(0.0146484 0.138672)"/>
</clipPath>
</defs>
</svg>
