<svg width="31" height="25" viewBox="0 0 31 25" fill="none" xmlns="http://www.w3.org/2000/svg">
<g id="sunset" clip-path="url(#clip0_2124_12107)">
<g id="Group">
<path id="Vector" d="M10.1367 22.9688H13.2188C11.625 22.3008 10.4883 20.707 10.4883 18.8672C10.4883 16.3828 12.5391 14.332 15.0234 14.332C17.4961 14.332 19.5469 16.3828 19.5469 18.8672C19.5469 20.707 18.4102 22.3008 16.8164 22.9688H19.8984C20.8477 21.8672 21.4219 20.4258 21.4219 18.8672C21.4219 15.3516 18.5156 12.4453 15.0234 12.4453C11.5195 12.4453 8.61328 15.3516 8.61328 18.8672C8.61328 20.4258 9.1875 21.8672 10.1367 22.9688ZM2.54297 19.5117H5.42578C6.03516 19.5117 6.49219 19.0898 6.48047 18.5625C6.46875 18.0352 6.02344 17.6133 5.42578 17.6133H2.54297C1.93359 17.6133 1.5 18.0352 1.5 18.5625C1.5 19.0898 1.93359 19.5117 2.54297 19.5117ZM8.97656 12.8203C9.33984 12.4453 9.33984 11.8242 8.90625 11.4023L6.86719 9.36331C6.43359 8.92972 5.83594 8.94144 5.46094 9.30472C5.08594 9.668 5.07422 10.2773 5.51953 10.7109L7.55859 12.75C7.98047 13.1836 8.61328 13.1953 8.97656 12.8203ZM21.0586 12.8203C21.4336 13.1836 22.0547 13.1836 22.4766 12.75L24.5156 10.7109C24.9609 10.2773 24.9375 9.67972 24.5742 9.30472C24.2109 8.92972 23.6016 8.92972 23.168 9.36331L21.1289 11.4023C20.6953 11.8242 20.6836 12.457 21.0586 12.8203ZM24.6094 19.5117H27.4922C28.1016 19.5117 28.5352 19.0898 28.5352 18.5625C28.5352 18.0352 28.1016 17.6133 27.4922 17.6133H24.6094C24.0117 17.6133 23.543 18.0352 23.5547 18.5625C23.5664 19.0898 24.0117 19.5117 24.6094 19.5117Z" fill="black" fill-opacity="0.85"/>
<path id="Vector_2" d="M1.01953 24.457H29.0156C29.5664 24.457 30.0352 24.0352 30.0352 23.5195C30.0352 23.0039 29.5664 22.582 29.0156 22.582H1.01953C0.46875 22.582 0 23.0039 0 23.5195C0 24.0352 0.46875 24.457 1.01953 24.457Z" fill="black" fill-opacity="0.85"/>
<path id="Vector_3" d="M15.0234 0C14.4961 0 14.0625 0.46875 14.0625 1.04297V5.42578L14.2031 7.19531L13.4531 6.31641L11.8711 4.72266C11.6953 4.54688 11.4727 4.45312 11.25 4.45312C10.7812 4.45312 10.4414 4.76953 10.4414 5.23828C10.4414 5.48438 10.5234 5.67188 10.7227 5.84766L14.3789 9.25781C14.625 9.48047 14.8008 9.5625 15.0234 9.5625C15.2344 9.5625 15.4102 9.48047 15.6562 9.25781L19.3125 5.84766C19.5117 5.67188 19.5938 5.48438 19.5938 5.23828C19.5938 4.76953 19.2539 4.45312 18.7852 4.45312C18.5625 4.45312 18.3398 4.54688 18.1641 4.72266L16.6992 6.19922L15.832 7.19531L15.9727 5.42578V1.04297C15.9727 0.46875 15.5391 0 15.0234 0Z" fill="black" fill-opacity="0.85"/>
</g>
</g>
<defs>
<clipPath id="clip0_2124_12107">
<rect width="30.0352" height="24.4805" fill="white"/>
</clipPath>
</defs>
</svg>
