<svg width="31" height="25" viewBox="0 0 31 25" fill="none" xmlns="http://www.w3.org/2000/svg">
<g clip-path="url(#clip0_2207_3911)">
<path d="M10.1535 23.1074H13.2356C11.6418 22.4394 10.5051 20.8456 10.5051 19.0058C10.5051 16.5214 12.5559 14.4706 15.0402 14.4706C17.5129 14.4706 19.5637 16.5214 19.5637 19.0058C19.5637 20.8456 18.427 22.4394 16.8332 23.1074H19.9152C20.8645 22.0058 21.4387 20.5644 21.4387 19.0058C21.4387 15.4902 18.5324 12.5839 15.0402 12.5839C11.5363 12.5839 8.63013 15.4902 8.63013 19.0058C8.63013 20.5644 9.20435 22.0058 10.1535 23.1074ZM2.55982 19.6503H5.44263C6.05201 19.6503 6.50904 19.2284 6.49732 18.7011C6.4856 18.1738 6.04029 17.7519 5.44263 17.7519H2.55982C1.95044 17.7519 1.51685 18.1738 1.51685 18.7011C1.51685 19.2284 1.95044 19.6503 2.55982 19.6503ZM8.99341 12.9589C9.35669 12.5839 9.35669 11.9628 8.9231 11.5409L6.88404 9.50186C6.45044 9.06827 5.85279 9.07999 5.47779 9.44327C5.10279 9.80655 5.09107 10.4159 5.53638 10.8495L7.57544 12.8886C7.99732 13.3222 8.63013 13.3339 8.99341 12.9589ZM21.0754 12.9589C21.4504 13.3222 22.0715 13.3222 22.4934 12.8886L24.5324 10.8495C24.9777 10.4159 24.9543 9.81827 24.591 9.44327C24.2277 9.06827 23.6184 9.06827 23.1848 9.50186L21.1457 11.5409C20.7121 11.9628 20.7004 12.5956 21.0754 12.9589ZM24.6262 19.6503H27.509C28.1184 19.6503 28.552 19.2284 28.552 18.7011C28.552 18.1738 28.1184 17.7519 27.509 17.7519H24.6262C24.0285 17.7519 23.5598 18.1738 23.5715 18.7011C23.5832 19.2284 24.0285 19.6503 24.6262 19.6503Z" fill="black" fill-opacity="0.85"/>
<path d="M1.03638 24.5957H29.0324C29.5832 24.5957 30.052 24.1739 30.052 23.6582C30.052 23.1426 29.5832 22.7207 29.0324 22.7207H1.03638C0.485596 22.7207 0.0168457 23.1426 0.0168457 23.6582C0.0168457 24.1739 0.485596 24.5957 1.03638 24.5957Z" fill="black" fill-opacity="0.85"/>
<path d="M15.0402 0.138672C14.5129 0.138672 14.0793 0.607422 14.0793 1.18164V5.56445L14.2199 7.33398L13.4699 6.45508L11.8879 4.86133C11.7121 4.68555 11.4895 4.59179 11.2668 4.59179C10.798 4.59179 10.4582 4.9082 10.4582 5.37695C10.4582 5.62305 10.5402 5.81055 10.7395 5.98633L14.3957 9.39648C14.6418 9.61914 14.8176 9.70117 15.0402 9.70117C15.2512 9.70117 15.427 9.61914 15.673 9.39648L19.3293 5.98633C19.5285 5.81055 19.6106 5.62305 19.6106 5.37695C19.6106 4.9082 19.2707 4.59179 18.802 4.59179C18.5793 4.59179 18.3566 4.68555 18.1809 4.86133L16.716 6.33789L15.8488 7.33398L15.9895 5.56445V1.18164C15.9895 0.607422 15.5559 0.138672 15.0402 0.138672Z" fill="black" fill-opacity="0.85"/>
</g>
<defs>
<clipPath id="clip0_2207_3911">
<rect width="30.0352" height="24.4805" fill="white" transform="translate(0.0168457 0.138672)"/>
</clipPath>
</defs>
</svg>
