<svg width="24" height="25" viewBox="0 0 24 25" fill="none" xmlns="http://www.w3.org/2000/svg">
<g clip-path="url(#clip0_2207_3923)">
<path d="M11.9719 24.0449C18.511 24.0449 23.925 18.6192 23.925 12.0918C23.925 5.55273 18.4993 0.138672 11.9602 0.138672C5.43286 0.138672 0.0187988 5.55273 0.0187988 12.0918C0.0187988 18.6192 5.44458 24.0449 11.9719 24.0449ZM11.9719 22.0528C6.44068 22.0528 2.02271 17.6231 2.02271 12.0918C2.02271 6.56055 6.42896 2.13086 11.9602 2.13086C17.4915 2.13086 21.9329 6.56055 21.9329 12.0918C21.9329 17.6231 17.5032 22.0528 11.9719 22.0528Z" fill="black" fill-opacity="0.85"/>
<path d="M5.84302 14.5176H7.27271C7.63599 14.5176 7.92896 14.2598 7.92896 13.9082C7.92896 13.5684 7.63599 13.3106 7.27271 13.3106H5.84302C5.46802 13.3106 5.18677 13.5801 5.18677 13.9082C5.18677 14.2364 5.46802 14.5176 5.84302 14.5176ZM8.22192 11.166C8.47974 11.4239 8.87818 11.4473 9.11255 11.2012C9.35864 10.9551 9.32349 10.5684 9.07739 10.3106L8.05786 9.29102C7.78833 9.02149 7.40161 9.04493 7.16724 9.26759C6.93286 9.51368 6.93286 9.87696 7.20239 10.1465L8.22192 11.166ZM11.9602 4.69727C11.6204 4.69727 11.3508 4.99024 11.3508 5.3418V7.48634L11.386 7.88477L11.3274 7.82618L10.5305 7.04102C10.4133 6.93556 10.2493 6.86524 10.1086 6.86524C9.80396 6.86524 9.5813 7.09962 9.5813 7.39259C9.5813 7.53321 9.62818 7.67384 9.7688 7.80274L11.55 9.47852C11.6907 9.60743 11.8196 9.66602 11.9602 9.66602C12.1008 9.66602 12.2297 9.60743 12.3704 9.47852L14.1516 7.80274C14.304 7.67384 14.3391 7.53321 14.3391 7.39259C14.3391 7.09962 14.1165 6.86524 13.8118 6.86524C13.6711 6.86524 13.4954 6.93556 13.4016 7.04102L12.6868 7.7793L12.5344 7.91993L12.5696 7.48634V5.3418C12.5696 4.99024 12.3 4.69727 11.9602 4.69727ZM14.8313 11.2012C15.0657 11.4356 15.4407 11.4356 15.7102 11.166L16.718 10.1465C16.9758 9.87696 16.9876 9.51368 16.7532 9.26759C16.5188 9.02149 16.1321 9.03321 15.8626 9.29102L14.8547 10.3106C14.5852 10.5801 14.5735 10.9551 14.8313 11.2012ZM16.6594 14.5176H18.0774C18.4641 14.5176 18.7336 14.2481 18.7336 13.9082C18.7336 13.5801 18.4641 13.3106 18.0774 13.3106H16.6594C16.2961 13.3106 15.9915 13.5684 15.9915 13.9082C15.9915 14.2598 16.2961 14.5176 16.6594 14.5176ZM15.218 14.0489C15.218 12.2676 13.7415 10.7793 11.9602 10.7793C10.1907 10.7793 8.70239 12.2676 8.70239 14.0489C8.70239 14.4004 8.77271 14.7403 8.88989 15.0801H15.0305C15.1477 14.7403 15.218 14.4004 15.218 14.0489ZM5.8313 16.9903H18.0891C18.429 16.9903 18.7336 16.7325 18.7336 16.3926C18.7336 16.0528 18.4407 15.7949 18.0891 15.7949H5.8313C5.49146 15.7949 5.18677 16.0528 5.18677 16.3926C5.18677 16.7325 5.50318 16.9903 5.8313 16.9903Z" fill="black" fill-opacity="0.85"/>
</g>
<defs>
<clipPath id="clip0_2207_3923">
<rect width="23.9062" height="23.918" fill="white" transform="translate(0.0187988 0.138672)"/>
</clipPath>
</defs>
</svg>
