<svg width="42" height="20" viewBox="0 0 42 20" fill="none" xmlns="http://www.w3.org/2000/svg">
<g clip-path="url(#clip0_2207_16687)">
<path d="M3.01977 16.5098H6.6643V14.6231H3.12524C2.36352 14.6231 1.91821 14.1075 1.91821 13.2168V11.4356C1.91821 9.33789 3.32446 8.15429 6.25415 7.77929L11.0237 7.18164L16.1096 4.01758C18.6995 2.40039 20.2346 2.02539 24.7346 2.02539H33.887C35.9143 2.02539 37.0862 2.58789 38.0471 3.95898L38.5745 4.7207C39.2893 5.75195 39.7112 7.01758 39.7112 8.13086V13.252C39.7112 14.1895 39.3479 14.6231 38.5159 14.6231H35.6331V16.5098H38.6213C40.6721 16.5098 41.5979 15.4551 41.5979 13.1348V8.13086C41.5979 6.66601 41.0588 4.99023 40.1331 3.65429L39.6057 2.88086C38.2581 0.923828 36.6057 0.138672 33.887 0.138672H24.7346C19.9065 0.138672 17.9729 0.607422 15.1018 2.40039L10.3792 5.36523L6.00805 5.90429C2.01196 6.39648 0.0314941 8.22461 0.0314941 11.4356V13.4512C0.0314941 15.3614 1.15649 16.5098 3.01977 16.5098ZM12.1604 16.5098H30.2424V14.6231H12.1604V16.5098ZM9.3479 19.1817C11.5979 19.1817 13.3557 17.4239 13.3557 15.1739C13.3557 12.9239 11.5979 11.166 9.3479 11.166C7.0979 11.166 5.34008 12.9239 5.34008 15.1739C5.34008 17.4239 7.0979 19.1817 9.3479 19.1817ZM9.3479 17.2949C8.15258 17.2949 7.2268 16.3692 7.2268 15.1739C7.2268 13.9785 8.15258 13.0528 9.3479 13.0528C10.5432 13.0528 11.469 13.9785 11.469 15.1739C11.469 16.3692 10.5432 17.2949 9.3479 17.2949ZM33.0198 19.1817C35.2698 19.1817 37.0276 17.4239 37.0276 15.1739C37.0276 12.9239 35.2698 11.166 33.0198 11.166C30.7698 11.166 29.012 12.9239 29.012 15.1739C29.012 17.4239 30.7698 19.1817 33.0198 19.1817ZM33.0198 17.2949C31.8245 17.2949 30.8987 16.3692 30.8987 15.1739C30.8987 13.9785 31.8245 13.0528 33.0198 13.0528C34.2151 13.0528 35.1409 13.9785 35.1409 15.1739C35.1409 16.3692 34.2151 17.2949 33.0198 17.2949Z" fill="black" fill-opacity="0.85"/>
<path d="M16.3909 8.02539C16.3909 10.0176 17.8557 11.3418 20.012 11.3418H24.676V12.4199C24.676 13.0762 25.1448 13.3106 25.719 12.9356L28.4495 11.1426C28.8831 10.8614 28.9065 10.3223 28.4495 10.0059L25.7307 8.22461C25.1565 7.83789 24.676 8.06055 24.676 8.74023V9.75976H20.012C18.8167 9.75976 18.0315 9.10351 18.0315 8.11914C18.0315 7.01758 18.8284 6.26758 20.0237 6.26758H26.8557C27.3479 6.26758 27.6877 5.95117 27.6877 5.48242C27.6877 5.01367 27.3479 4.67383 26.844 4.67383H20.0237C17.8557 4.67383 16.3909 6.0332 16.3909 8.02539Z" fill="black" fill-opacity="0.85"/>
</g>
<defs>
<clipPath id="clip0_2207_16687">
<rect width="41.5664" height="19.0664" fill="white" transform="translate(0.0314941 0.138672)"/>
</clipPath>
</defs>
</svg>
