<svg width="42" height="20" viewBox="0 0 42 20" fill="none" xmlns="http://www.w3.org/2000/svg">
<g clip-path="url(#clip0_2207_16692)">
<path d="M9.34998 18.7715C11.1078 18.7715 12.4906 17.3887 12.4906 15.6426C12.4906 13.8965 11.0961 12.502 9.34998 12.502C7.6156 12.502 6.22107 13.8965 6.22107 15.6426C6.22107 17.377 7.6156 18.7715 9.34998 18.7715ZM32.9633 18.7715C34.7094 18.7715 36.1039 17.377 36.1039 15.6426C36.1039 13.8965 34.7094 12.502 32.9633 12.502C31.2406 12.502 29.8344 13.9082 29.8344 15.6426C29.8344 17.377 31.2289 18.7715 32.9633 18.7715ZM40.1352 3.65429L39.6078 2.88086C38.2602 0.923828 36.6078 0.138672 33.8891 0.138672H24.7367C19.9086 0.138672 17.975 0.607422 15.1039 2.40039L10.3813 5.36523L6.01013 5.90429C2.01404 6.39648 0.0335693 8.22461 0.0335693 11.4356V13.4512C0.0335693 15.3614 1.15857 16.5098 3.02185 16.5098H4.93201C4.88513 16.2285 4.84998 15.9473 4.84998 15.6426C4.84998 13.1465 6.8656 11.1426 9.34998 11.1426C11.8461 11.1426 13.85 13.1465 13.85 15.6426C13.85 15.9473 13.8266 16.2285 13.768 16.5098H28.5453C28.4984 16.2285 28.4633 15.9473 28.4633 15.6426C28.4633 13.1582 30.4906 11.1426 32.9633 11.1426C35.4594 11.1426 37.4633 13.1465 37.4633 15.6426C37.4633 15.9473 37.4398 16.2285 37.3813 16.5098H38.6234C40.6742 16.5098 41.6 15.4551 41.6 13.1348V8.13086C41.6 6.66601 41.0609 4.99023 40.1352 3.65429Z" fill="black" fill-opacity="0.85"/>
<path d="M15.3734 8.00195C15.3734 5.93945 16.8852 4.5332 19.1234 4.5332H26.1664C26.682 4.5332 27.0336 4.89648 27.0336 5.37695C27.0336 5.85742 26.682 6.18555 26.1781 6.18555H19.1234C17.893 6.18555 17.0727 6.95898 17.0727 8.0957C17.0727 9.10351 17.8813 9.7832 19.1117 9.7832H23.9281V8.74023C23.9281 8.03711 24.4203 7.80273 25.018 8.20117L27.8188 10.041C28.2875 10.3692 28.2641 10.9317 27.8188 11.2129L25.0063 13.0645C24.4086 13.4512 23.9281 13.2051 23.9281 12.5254V11.4239H19.1117C16.8852 11.4239 15.3734 10.0527 15.3734 8.00195Z" fill="white"/>
</g>
<defs>
<clipPath id="clip0_2207_16692">
<rect width="41.5664" height="19.0664" fill="white" transform="translate(0.0335693 0.138672)"/>
</clipPath>
</defs>
</svg>
