<svg width="28" height="31" viewBox="0 0 28 31" fill="none" xmlns="http://www.w3.org/2000/svg">
<g clip-path="url(#clip0_2207_21197)">
<path d="M16.1291 13.1231L21.1447 21.8184L25.5275 19.2871C27.0744 18.3965 27.4845 16.8145 26.5588 15.2325L24.59 11.8106C23.6408 10.1582 22.0588 9.7129 20.5119 10.5918L16.1291 13.1231ZM7.92592 17.8575L12.9533 26.541L19.7619 22.6153L14.7345 13.9199L7.92592 17.8575ZM3.33217 24.0801L5.30092 27.5137C6.21499 29.1192 7.77358 29.541 9.33217 28.6387L11.5588 27.3496L6.54311 18.6543L4.31655 19.9317C2.76967 20.8223 2.37124 22.4395 3.33217 24.0801Z" fill="black" fill-opacity="0.85"/>
<path d="M11.3713 4.06434L2.20718 19.9902C0.882968 22.287 1.5275 24.8183 4.01187 26.2597L7.44547 28.2402C9.78921 29.5995 12.2853 29.0253 13.6681 26.6113L22.8322 10.6855C24.215 8.27137 23.4767 5.83387 21.133 4.48622L17.6994 2.49403C15.215 1.06434 12.6955 1.77918 11.3713 4.06434Z" fill="white"/>
<path d="M10.2228 9.256L18.9181 14.2833L21.4611 9.88881C22.3517 8.34193 21.9181 6.78334 20.3244 5.86928L16.9025 3.88881C15.2502 2.92787 13.6447 3.32631 12.7658 4.87319L10.2228 9.256ZM5.5002 17.4474L14.1955 22.4747L18.1213 15.6661L9.42598 10.6505L5.5002 17.4474ZM4.8088 24.8654L8.24239 26.8576C9.82442 27.7716 11.4181 27.3615 12.2853 25.8146L13.3869 23.8576L4.69161 18.8419L3.59005 20.7872C2.72286 22.3458 3.16817 23.9161 4.8088 24.8654Z" fill="black" fill-opacity="0.85"/>
<path d="M0.0861816 4.66211V25.8614C0.0861816 28.4512 1.90259 30.3848 4.77368 30.3848H8.74634C11.4534 30.3848 13.3167 28.5449 13.3167 25.8614V4.66211C13.3167 1.97851 11.4534 0.138672 8.74634 0.138672H4.77368C1.90259 0.138672 0.0861816 2.07226 0.0861816 4.66211Z" fill="white"/>
<path d="M1.67993 9.73633H11.7229V4.66211C11.7229 2.86914 10.5745 1.74414 8.74634 1.74414H4.77368C2.87524 1.74414 1.67993 2.86914 1.67993 4.66211V9.73633ZM1.67993 19.1934H11.7229V11.3301H1.67993V19.1934ZM4.77368 28.791H8.74634C10.5745 28.791 11.7229 27.6543 11.7229 25.8614V20.7989H1.67993V25.8614C1.67993 27.6543 2.87524 28.791 4.77368 28.791Z" fill="black" fill-opacity="0.85"/>
</g>
<defs>
<clipPath id="clip0_2207_21197">
<rect width="26.9624" height="30.2695" fill="white" transform="translate(0.0861816 0.138672)"/>
</clipPath>
</defs>
</svg>
