<svg width="27" height="24" viewBox="0 0 27 24" fill="none" xmlns="http://www.w3.org/2000/svg">
<g clip-path="url(#clip0_2207_5690)">
<path d="M0.0986328 15.0449C2.06738 18.2559 7.21191 23.2012 14.1377 23.2012C18.5556 23.2012 19.7627 21.1504 22.3291 21.1504C24.4619 21.1504 25.3056 22.5801 25.6338 23.1426C25.7275 23.3184 25.8798 23.4356 25.9853 23.0957C26.0439 22.8496 26.1025 22.5215 26.1025 22.1231C26.1025 20.9981 25.7627 18.8535 23.8877 16.4981C24.2978 15.3379 24.3447 14.0606 24.3447 13.3106C24.3447 9.90039 22.4228 3.9707 16.0595 0.138672C17.3838 2.01367 19.165 4.84961 19.165 8.79883C19.165 10.2285 18.7666 11.7989 18.4502 12.584C14.9931 10.5801 8.38379 5.07226 5.73535 2.25976C7.85644 5.51758 10.3759 8.4707 13.165 11.5645C9.41504 9.19726 5.92285 6.53711 2.66504 3.61914C5.78222 8.15429 9.73144 12.6192 14.9345 16.8262C13.4463 17.6465 11.9111 18.3028 9.29785 18.3028C6.11035 18.3028 2.21972 16.7559 0.0986328 15.0449Z" fill="black" fill-opacity="0.85"/>
</g>
<defs>
<clipPath id="clip0_2207_5690">
<rect width="26.0039" height="23.332" fill="white" transform="translate(0.0986328 0.138672)"/>
</clipPath>
</defs>
</svg>
