<svg width="24" height="25" viewBox="0 0 24 25" fill="none" xmlns="http://www.w3.org/2000/svg">
<g clip-path="url(#clip0_2207_5866)">
<path d="M11.9553 22.1133C14.592 22.1133 16.9592 19.9687 16.9592 17.1094C16.9592 14.8711 15.0256 12.9492 11.9553 12.0937C8.87329 11.2148 6.9397 9.28125 6.9397 7.07812C6.9397 4.32421 9.16626 2.07422 11.9553 2.07422C6.41236 2.07422 1.93579 6.55079 1.93579 12.0937C1.93579 17.625 6.41236 22.1133 11.9553 22.1133ZM11.9553 24.0468C18.4944 24.0468 23.9084 18.6211 23.9084 12.0937C23.9084 5.55469 18.4827 0.140625 11.9436 0.140625C5.41626 0.140625 0.00219727 5.55469 0.00219727 12.0937C0.00219727 18.6211 5.42798 24.0468 11.9553 24.0468ZM11.9553 22.0547C6.42408 22.0547 2.00611 17.625 2.00611 12.0937C2.00611 6.56251 6.41236 2.13282 11.9436 2.13282C17.4749 2.13282 21.9163 6.56251 21.9163 12.0937C21.9163 17.625 17.4866 22.0547 11.9553 22.0547Z" fill="black" fill-opacity="0.85"/>
</g>
<defs>
<clipPath id="clip0_2207_5866">
<rect width="23.9062" height="23.918" fill="white" transform="translate(0.00219727 0.140625)"/>
</clipPath>
</defs>
</svg>
