<svg width="23" height="23" viewBox="0 0 23 23" fill="none" xmlns="http://www.w3.org/2000/svg">
<g clip-path="url(#clip0_2207_19748)">
<path d="M5.01977 22.2656H17.3362C20.1136 22.2656 22.3519 20.3203 22.3519 17.4492C22.3519 14.5781 20.1136 12.6328 17.3362 12.6328H5.01977C2.24243 12.6328 0.00415039 14.5781 0.00415039 17.4492C0.00415039 20.3203 2.24243 22.2656 5.01977 22.2656ZM17.6409 20.4961C15.9417 20.4844 14.6058 19.125 14.6058 17.4375C14.6058 15.7617 15.9534 14.4023 17.6409 14.4023C19.3284 14.4023 20.6994 15.75 20.6877 17.4258C20.6761 19.125 19.3167 20.5078 17.6409 20.4961Z" fill="black" fill-opacity="0.85"/>
<path d="M5.50024 8.26171C7.04712 8.27343 8.27759 7.00781 8.28931 5.46093C8.30103 3.92578 7.04712 2.69531 5.50024 2.69531C3.95337 2.69531 2.7229 3.9375 2.7229 5.47265C2.7229 7.01953 3.95337 8.25 5.50024 8.26171Z" fill="black" fill-opacity="0.85"/>
<path d="M5.50024 10.8281H16.8558C19.8792 10.8281 22.3519 8.67188 22.3519 5.48438C22.3519 2.29688 19.8792 0.140625 16.8558 0.140625H5.50024C2.47681 0.140625 0.00415039 2.29688 0.00415039 5.48438C0.00415039 8.67188 2.47681 10.8281 5.50024 10.8281ZM5.50024 9.05859C3.53149 9.05859 1.77368 7.61719 1.77368 5.48438C1.77368 3.35156 3.53149 1.91016 5.50024 1.91016H16.8558C18.8245 1.91016 20.5823 3.35156 20.5823 5.48438C20.5823 7.61719 18.8245 9.05859 16.8558 9.05859H5.50024Z" fill="black" fill-opacity="0.85"/>
</g>
<defs>
<clipPath id="clip0_2207_19748">
<rect width="22.3477" height="22.1602" fill="white" transform="translate(0.00415039 0.140625)"/>
</clipPath>
</defs>
</svg>
