<svg width="22" height="22" viewBox="0 0 22 22" fill="none" xmlns="http://www.w3.org/2000/svg">
<g clip-path="url(#clip0_2207_11228)">
<path d="M3.69239 21.7383H17.9072C20.3682 21.7383 21.5869 20.5195 21.5869 18.1054V3.79688C21.5869 1.38281 20.3682 0.164062 17.9072 0.164062H3.69239C1.24317 0.164062 0.0126953 1.37109 0.0126953 3.79688V18.1054C0.0126953 20.5312 1.24317 21.7383 3.69239 21.7383Z" fill="black" fill-opacity="0.85"/>
<path d="M7.583 17.25C7.06738 17.25 6.69238 16.875 6.69238 16.3594V5.54296C6.69238 5.01562 7.06738 4.64062 7.583 4.64062H14.0166C14.5322 4.64062 14.9072 5.01562 14.9072 5.54296V16.3594C14.9072 16.875 14.5322 17.25 14.0166 17.25H7.583ZM8.46191 9.83204H13.1377C13.3721 9.83204 13.5361 9.65625 13.5361 9.41016V6.42188C13.5361 6.17579 13.3721 6.01171 13.1377 6.01171H8.46191C8.22753 6.01171 8.06347 6.17579 8.06347 6.42188V9.41016C8.06347 9.65625 8.22753 9.83204 8.46191 9.83204ZM8.46191 15.8789H13.1377C13.3721 15.8789 13.5361 15.7148 13.5361 15.4687V12.4804C13.5361 12.2344 13.3721 12.0703 13.1377 12.0703H8.46191C8.22753 12.0703 8.06347 12.2344 8.06347 12.4804V15.4687C8.06347 15.7148 8.22753 15.8789 8.46191 15.8789Z" fill="white"/>
</g>
<defs>
<clipPath id="clip0_2207_11228">
<rect width="21.5742" height="21.5977" fill="white" transform="translate(0.0126953 0.140625)"/>
</clipPath>
</defs>
</svg>
