<svg width="27" height="27" viewBox="0 0 27 27" fill="none" xmlns="http://www.w3.org/2000/svg">
<g clip-path="url(#clip0_2207_17881)">
<path d="M0.26082 26.3672C0.577227 26.6718 1.08113 26.6601 1.39754 26.3437L6.44832 21.2929L5.3116 20.1679L0.26082 25.2187C-0.0555856 25.5351 -0.0790231 26.0508 0.26082 26.3672ZM4.32723 20.0976L6.57723 22.3242C7.77254 23.5078 9.40145 23.4726 10.6553 22.2187L22.96 9.91407L21.6241 8.57812L9.33113 20.8828C8.8741 21.3398 8.25301 21.3164 7.77254 20.8359L5.80379 18.8789C5.32332 18.4101 5.32332 17.789 5.79207 17.3203L18.085 5.03906L16.7373 3.69141L4.4327 16.0078C3.15535 17.2968 3.1202 18.914 4.32723 20.0976ZM6.22567 14.7773L9.10848 17.6718C9.34285 17.9062 9.65926 17.8945 9.89363 17.6601C10.0928 17.4609 10.0811 17.1094 9.88192 16.8984L6.98738 14.0273L6.22567 14.7773ZM8.66317 12.3633L11.5459 15.2461C11.7686 15.4687 12.0967 15.4687 12.3194 15.2461C12.5303 15.0351 12.5069 14.6953 12.3076 14.4844L9.42488 11.6015L8.66317 12.3633ZM11.1006 9.91407L13.9834 12.8086C14.2061 13.0195 14.5342 13.0312 14.7569 12.8086C14.9678 12.5976 14.9678 12.2578 14.7451 12.0351L11.8623 9.15234L11.1006 9.91407ZM13.5381 7.48829L16.4209 10.3828C16.6436 10.5937 16.96 10.5937 17.1826 10.3828C17.3936 10.1836 17.3819 9.82032 17.1826 9.60938L14.2881 6.72656L13.5381 7.48829ZM14.792 3.16406L23.5108 11.8828C23.8741 12.2461 24.4717 12.2461 24.835 11.8828C25.21 11.5195 25.21 10.9101 24.835 10.5468L16.128 1.83984C15.7412 1.4414 15.1553 1.46484 14.792 1.83984C14.4287 2.20312 14.4053 2.77734 14.792 3.16406ZM17.0186 3.43359L23.2178 9.65625L24.0616 8.8125C24.4248 8.44921 24.4366 7.85156 24.0616 7.48829L22.3623 5.78906L23.8272 4.32421L25.2334 5.73046C25.5967 6.09374 26.1944 6.09374 26.5576 5.73046C26.9326 5.35546 26.9326 4.75781 26.5576 4.39454L22.585 0.421875C22.2217 0.046875 21.6241 0.046875 21.2491 0.421875C20.8858 0.785156 20.8858 1.38281 21.2491 1.74609L22.667 3.15234L21.2022 4.61719L19.1866 2.60156C18.8233 2.23828 18.2139 2.23828 17.8506 2.60156L17.0186 3.43359Z" fill="black" fill-opacity="0.85"/>
</g>
<defs>
<clipPath id="clip0_2207_17881">
<rect width="26.8243" height="26.4727" fill="white" transform="translate(0.0146484 0.140625)"/>
</clipPath>
</defs>
</svg>
