<svg width="22" height="22" viewBox="0 0 22 22" fill="none" xmlns="http://www.w3.org/2000/svg">
<g clip-path="url(#clip0_2207_25221)">
<path d="M3.70484 21.7383H17.9196C20.3806 21.7383 21.5993 20.5195 21.5993 18.1054V3.79688C21.5993 1.38281 20.3806 0.164062 17.9196 0.164062H3.70484C1.25562 0.164062 0.0251465 1.37109 0.0251465 3.79688V18.1054C0.0251465 20.5312 1.25562 21.7383 3.70484 21.7383Z" fill="black" fill-opacity="0.85"/>
<path d="M10.7946 16.5234C10.1618 16.5234 9.83373 16.0664 9.83373 15.4218V6.94922H6.86889C6.40014 6.94922 6.04858 6.63282 6.04858 6.15235C6.04858 5.64844 6.40014 5.35547 6.86889 5.35547H14.7673C15.236 5.35547 15.5876 5.64844 15.5876 6.15235C15.5876 6.63282 15.236 6.94922 14.7673 6.94922H11.7673V15.4218C11.7673 16.0898 11.4274 16.5234 10.7946 16.5234Z" fill="white"/>
</g>
<defs>
<clipPath id="clip0_2207_25221">
<rect width="21.5742" height="21.5977" fill="white" transform="translate(0.0251465 0.140625)"/>
</clipPath>
</defs>
</svg>
