<svg width="24" height="25" viewBox="0 0 24 25" fill="none" xmlns="http://www.w3.org/2000/svg">
<g clip-path="url(#clip0_2207_8479)">
<path d="M11.9972 24.0586C18.5363 24.0586 23.9503 18.6445 23.9503 12.1054C23.9503 5.57812 18.5246 0.152344 11.9855 0.152344C5.45813 0.152344 0.0440674 5.57812 0.0440674 12.1054C0.0440674 18.6445 5.46985 24.0586 11.9972 24.0586Z" fill="black" fill-opacity="0.85"/>
<path d="M9.50113 18.3867L5.90348 14.7656C5.17691 14.039 5.17691 13.3242 5.92691 12.5742L11.6925 6.72657C12.1613 6.26954 12.4894 5.91797 13.216 5.91797H15.5714C16.1222 5.91797 16.4386 6.15235 16.8019 6.52735L17.8566 7.5586C18.2316 7.92188 18.3722 8.23829 18.3722 8.80079V11.0508C18.3722 11.8008 18.0207 12.1172 17.5636 12.5859L11.716 18.375C10.966 19.1133 10.2394 19.1133 9.50113 18.3867ZM14.1535 10.1484C14.4816 10.4765 15.0089 10.4765 15.3605 10.1367C15.7003 9.79688 15.7003 9.25782 15.3605 8.91797C15.0207 8.57813 14.4816 8.57813 14.1535 8.91797C13.8136 9.26954 13.8136 9.8086 14.1535 10.1484Z" fill="white"/>
</g>
<defs>
<clipPath id="clip0_2207_8479">
<rect width="23.9062" height="23.918" fill="white" transform="translate(0.0440674 0.140625)"/>
</clipPath>
</defs>
</svg>
