<svg width="24" height="25" viewBox="0 0 24 25" fill="none" xmlns="http://www.w3.org/2000/svg">
<g clip-path="url(#clip0_2207_8474)">
<path d="M11.9951 24.0468C18.5342 24.0468 23.9482 18.6211 23.9482 12.0937C23.9482 5.55469 18.5225 0.140625 11.9834 0.140625C5.45605 0.140625 0.0419922 5.55469 0.0419922 12.0937C0.0419922 18.6211 5.46777 24.0468 11.9951 24.0468ZM11.9951 22.0547C6.46387 22.0547 2.0459 17.625 2.0459 12.0937C2.0459 6.56251 6.45215 2.13282 11.9834 2.13282C17.5147 2.13282 21.9561 6.56251 21.9561 12.0937C21.9561 17.625 17.5264 22.0547 11.9951 22.0547Z" fill="black" fill-opacity="0.85"/>
<path d="M9.56933 18.1875C10.2842 18.8906 10.9873 18.9023 11.7139 18.1758L17.374 12.5508C17.8311 12.1172 18.1592 11.8008 18.1592 11.0859V8.88282C18.1592 8.35547 18.0186 8.05079 17.667 7.68751L16.6475 6.67969C16.2842 6.32813 15.9795 6.10547 15.4522 6.10547H13.1787C12.4756 6.10547 12.1475 6.4336 11.7022 6.89063L6.08887 12.5625C5.3623 13.289 5.37402 13.9804 6.07715 14.6836L9.56933 18.1875ZM14.0693 10.1953C13.7412 9.87891 13.7412 9.33985 14.0693 9.01172C14.3858 8.6836 14.9248 8.6836 15.2412 9.01172C15.5693 9.32813 15.5693 9.85547 15.2412 10.1836C14.9131 10.5234 14.3975 10.5234 14.0693 10.1953Z" fill="black" fill-opacity="0.85"/>
</g>
<defs>
<clipPath id="clip0_2207_8474">
<rect width="23.9062" height="23.918" fill="white" transform="translate(0.0419922 0.140625)"/>
</clipPath>
</defs>
</svg>
