<svg width="24" height="25" viewBox="0 0 24 25" fill="none" xmlns="http://www.w3.org/2000/svg">
<g clip-path="url(#clip0_2207_9526)">
<path d="M12.0329 24.0468C18.572 24.0468 23.986 18.6211 23.986 12.0937C23.986 5.55469 18.5603 0.140625 12.0212 0.140625C5.49389 0.140625 0.079834 5.55469 0.079834 12.0937C0.079834 18.6211 5.50561 24.0468 12.0329 24.0468ZM12.0329 22.0547C6.50171 22.0547 2.08374 17.625 2.08374 12.0937C2.08374 6.56251 6.48999 2.13282 12.0212 2.13282C17.5525 2.13282 21.9939 6.56251 21.9939 12.0937C21.9939 17.625 17.5642 22.0547 12.0329 22.0547Z" fill="black" fill-opacity="0.85"/>
<path d="M12.0212 8.70704C14.0134 8.70704 14.6696 8.89454 14.6696 9.44532V9.60938C14.6696 10.2422 14.8337 10.664 15.6423 10.7461L17.8454 10.9804C18.6775 11.0625 19.1345 10.8515 19.1345 9.96093C19.1345 7.47656 16.0876 6.23438 12.0212 6.23438C7.96656 6.23438 4.91968 7.47656 4.91968 9.96093C4.91968 10.8515 5.38843 11.0625 6.23218 10.9804L8.41187 10.7461C9.22046 10.664 9.39625 10.2422 9.39625 9.60938V9.43359C9.39625 8.9414 10.2048 8.70704 12.0212 8.70704ZM6.66578 14.3906H7.7439C8.16578 14.3906 8.41187 14.1679 8.41187 13.7226V12.6094C8.41187 12.1992 8.16578 11.9531 7.7439 11.9531H6.66578C6.22046 11.9531 5.96265 12.1992 5.96265 12.6094V13.7226C5.96265 14.1679 6.22046 14.3906 6.66578 14.3906ZM9.865 14.3906H10.9665C11.3884 14.3906 11.6462 14.1679 11.6462 13.7226V12.6094C11.6462 12.1992 11.3884 11.9531 10.9665 11.9531H9.865C9.41968 11.9531 9.19703 12.1992 9.19703 12.6094V13.7226C9.19703 14.1679 9.41968 14.3906 9.865 14.3906ZM13.0759 14.3906H14.154C14.5993 14.3906 14.8454 14.1679 14.8454 13.7226V12.6094C14.8454 12.1992 14.5993 11.9531 14.154 11.9531H13.0759C12.654 11.9531 12.3962 12.1992 12.3962 12.6094V13.7226C12.3962 14.1679 12.654 14.3906 13.0759 14.3906ZM16.2868 14.3906H17.3767C17.7986 14.3906 18.0564 14.1679 18.0564 13.7226V12.6094C18.0564 12.1992 17.7986 11.9531 17.3767 11.9531H16.2868C15.8415 11.9531 15.6071 12.1992 15.6071 12.6094V13.7226C15.6071 14.1679 15.8415 14.3906 16.2868 14.3906ZM6.64234 17.6133H7.73218C8.16578 17.6133 8.41187 17.3672 8.41187 16.9336V15.832C8.41187 15.4101 8.16578 15.1523 7.73218 15.1523H6.64234C6.22046 15.1523 5.96265 15.4101 5.96265 15.832V16.9336C5.96265 17.3672 6.22046 17.6133 6.64234 17.6133ZM9.85328 17.6133H14.1892C14.611 17.6133 14.8454 17.3672 14.8454 16.9336V15.832C14.8454 15.4101 14.611 15.1523 14.1892 15.1523H9.85328C9.41968 15.1523 9.19703 15.4101 9.19703 15.832V16.9336C9.19703 17.3672 9.41968 17.6133 9.85328 17.6133ZM16.2986 17.6133H17.3884C17.822 17.6133 18.0564 17.3672 18.0564 16.9336V15.832C18.0564 15.4101 17.822 15.1523 17.3884 15.1523H16.2986C15.865 15.1523 15.6071 15.4101 15.6071 15.832V16.9336C15.6071 17.3672 15.865 17.6133 16.2986 17.6133Z" fill="black" fill-opacity="0.85"/>
</g>
<defs>
<clipPath id="clip0_2207_9526">
<rect width="23.9062" height="23.918" fill="white" transform="translate(0.079834 0.140625)"/>
</clipPath>
</defs>
</svg>
