<svg width="28" height="23" viewBox="0 0 28 23" fill="none" xmlns="http://www.w3.org/2000/svg">
<g id="teletype" clip-path="url(#clip0_2201_698)">
<g id="Group">
<path id="Vector" d="M13.7109 0C5.91797 0 0 2.41406 0 7.21875V7.23047C0 8.96484 0.925781 9.35156 2.53125 9.1875L6.75 8.73047C8.32031 8.56641 8.625 7.78125 8.625 6.52734V6.23438C8.625 5.25 10.1953 4.76953 13.7109 4.76953C17.5078 4.76953 18.7969 5.16797 18.7969 6.24609V6.52734C18.7969 7.74609 19.1133 8.56641 20.6836 8.73047L24.9023 9.1875C26.5078 9.35156 27.4336 8.96484 27.4336 7.21875C27.4336 2.41406 21.5156 0 13.7109 0ZM3.35156 15.7852H5.46094C6.29297 15.7852 6.75 15.3164 6.75 14.4844V12.3633C6.75 11.5312 6.29297 11.0625 5.46094 11.0625H3.35156C2.51953 11.0625 2.03906 11.5312 2.03906 12.3633V14.4844C2.03906 15.3164 2.51953 15.7852 3.35156 15.7852ZM9.55078 15.7852H11.6602C12.4805 15.7852 12.9609 15.3164 12.9609 14.4844V12.3633C12.9609 11.5312 12.4805 11.0625 11.6602 11.0625H9.55078C8.70703 11.0625 8.22656 11.5312 8.22656 12.3633V14.4844C8.22656 15.3164 8.70703 15.7852 9.55078 15.7852ZM15.7266 15.7852H17.8242C18.6562 15.7852 19.1484 15.3164 19.1484 14.4844V12.3633C19.1484 11.5312 18.6562 11.0625 17.8242 11.0625H15.7266C14.8945 11.0625 14.4258 11.5312 14.4258 12.3633V14.4844C14.4258 15.3164 14.8945 15.7852 15.7266 15.7852ZM21.9023 15.7852H24.0117C24.8555 15.7852 25.3477 15.3164 25.3477 14.4844V12.3633C25.3477 11.5312 24.8555 11.0625 24.0117 11.0625H21.9023C21.082 11.0625 20.6133 11.5312 20.6133 12.3633V14.4844C20.6133 15.3164 21.082 15.7852 21.9023 15.7852ZM3.32812 21.9844H5.4375C6.26953 21.9844 6.75 21.5156 6.75 20.6836V18.5508C6.75 17.7305 6.26953 17.25 5.4375 17.25H3.32812C2.50781 17.25 2.03906 17.7305 2.03906 18.5508V20.6836C2.03906 21.5156 2.50781 21.9844 3.32812 21.9844ZM9.51562 21.9844H17.8711C18.7031 21.9844 19.1602 21.5156 19.1602 20.6836V18.5508C19.1602 17.7305 18.7031 17.25 17.8711 17.25H9.51562C8.68359 17.25 8.22656 17.7305 8.22656 18.5508V20.6836C8.22656 21.5156 8.68359 21.9844 9.51562 21.9844ZM21.9492 21.9844H24.0586C24.8906 21.9844 25.3477 21.5156 25.3477 20.6836V18.5508C25.3477 17.7305 24.8906 17.25 24.0586 17.25H21.9492C21.1172 17.25 20.625 17.7305 20.625 18.5508V20.6836C20.625 21.5156 21.1172 21.9844 21.9492 21.9844Z" fill="black" fill-opacity="0.85"/>
</g>
</g>
<defs>
<clipPath id="clip0_2201_698">
<rect width="27.4336" height="22.9336" fill="white"/>
</clipPath>
</defs>
</svg>
