<svg width="24" height="25" viewBox="0 0 24 25" fill="none" xmlns="http://www.w3.org/2000/svg">
<g clip-path="url(#clip0_2207_9531)">
<path d="M12.0351 24.0586C18.5742 24.0586 23.9882 18.6445 23.9882 12.1054C23.9882 5.57812 18.5625 0.152344 12.0234 0.152344C5.49609 0.152344 0.0820312 5.57812 0.0820312 12.1054C0.0820312 18.6445 5.50781 24.0586 12.0351 24.0586Z" fill="black" fill-opacity="0.85"/>
<path d="M12.0351 8.61328C10.1601 8.61328 9.32812 8.87109 9.32812 9.36328V9.55078C9.32812 10.207 9.15234 10.6406 8.32031 10.7226L6.07031 10.957C5.20312 11.0508 4.71094 10.8398 4.71094 9.91406C4.71094 7.34765 7.86328 6.07031 12.0351 6.07031C16.2187 6.07031 19.3711 7.35937 19.3711 9.91406C19.3711 10.8398 18.8906 11.0508 18.0351 10.957L15.7617 10.7226C14.9297 10.6406 14.7656 10.207 14.7656 9.55078V9.375C14.7656 8.82421 14.0859 8.61328 12.0351 8.61328ZM6.51562 14.4844C6.05859 14.4844 5.78906 14.25 5.78906 13.7929V12.6562C5.78906 12.2226 6.05859 11.9648 6.51562 11.9648H7.62891C8.0625 11.9648 8.30859 12.2226 8.30859 12.6562V13.7929C8.30859 14.25 8.0625 14.4844 7.62891 14.4844H6.51562ZM9.80859 14.4844C9.35156 14.4844 9.11719 14.25 9.11719 13.7929V12.6562C9.11719 12.2226 9.35156 11.9648 9.80859 11.9648H10.9453C11.3789 11.9648 11.6484 12.2226 11.6484 12.6562V13.7929C11.6484 14.25 11.3789 14.4844 10.9453 14.4844H9.80859ZM13.125 14.4844C12.6914 14.4844 12.4218 14.25 12.4218 13.7929V12.6562C12.4218 12.2226 12.6914 11.9648 13.125 11.9648H14.2382C14.6953 11.9648 14.9414 12.2226 14.9414 12.6562V13.7929C14.9414 14.25 14.6953 14.4844 14.2382 14.4844H13.125ZM16.4297 14.4844C15.9726 14.4844 15.7265 14.25 15.7265 13.7929V12.6562C15.7265 12.2226 15.9726 11.9648 16.4297 11.9648H17.5547C17.9882 11.9648 18.2578 12.2226 18.2578 12.6562V13.7929C18.2578 14.25 17.9882 14.4844 17.5547 14.4844H16.4297ZM6.49219 17.8008C6.05859 17.8008 5.78906 17.5664 5.78906 17.1094V15.9609C5.78906 15.539 6.05859 15.2695 6.49219 15.2695H7.61719C8.0625 15.2695 8.30859 15.539 8.30859 15.9609V17.1094C8.30859 17.5664 8.0625 17.8008 7.61719 17.8008H6.49219ZM9.79687 17.8008C9.35156 17.8008 9.11719 17.5664 9.11719 17.1094V15.9609C9.11719 15.539 9.35156 15.2695 9.79687 15.2695H14.2734C14.707 15.2695 14.9414 15.539 14.9414 15.9609V17.1094C14.9414 17.5664 14.707 17.8008 14.2734 17.8008H9.79687ZM16.4414 17.8008C15.9961 17.8008 15.7265 17.5664 15.7265 17.1094V15.9609C15.7265 15.539 15.9961 15.2695 16.4414 15.2695H17.5664C18.0117 15.2695 18.2578 15.539 18.2578 15.9609V17.1094C18.2578 17.5664 18.0117 17.8008 17.5664 17.8008H16.4414Z" fill="white"/>
</g>
<defs>
<clipPath id="clip0_2207_9531">
<rect width="23.9062" height="23.918" fill="white" transform="translate(0.0820312 0.140625)"/>
</clipPath>
</defs>
</svg>
