<svg width="22" height="22" viewBox="0 0 22 22" fill="none" xmlns="http://www.w3.org/2000/svg">
<g clip-path="url(#clip0_2207_25629)">
<path d="M3.77198 21.7383H17.9868C20.4478 21.7383 21.6665 20.5195 21.6665 18.1054V3.79688C21.6665 1.38281 20.4478 0.164062 17.9868 0.164062H3.77198C1.32276 0.164062 0.0922852 1.37109 0.0922852 3.79688V18.1054C0.0922852 20.5312 1.32276 21.7383 3.77198 21.7383Z" fill="black" fill-opacity="0.85"/>
<path d="M6.57276 8.34374C6.57276 7.93359 6.84229 7.65234 7.27588 7.65234H14.4946C14.9282 7.65234 15.1978 7.93359 15.1978 8.34374C15.1978 8.77734 14.9282 9.05859 14.4946 9.05859H11.6704V16.2304C11.6704 16.7226 11.354 17.0273 10.897 17.0273C10.44 17.0273 10.1001 16.7226 10.1001 16.2304V9.05859H7.27588C6.84229 9.05859 6.57276 8.77734 6.57276 8.34374ZM6.54932 6.02343C6.54932 5.67187 6.79541 5.4375 7.12354 5.4375H14.6353C14.9751 5.4375 15.2095 5.67187 15.2095 6.02343C15.2095 6.36328 14.9751 6.63281 14.6353 6.63281H7.12354C6.79541 6.63281 6.54932 6.36328 6.54932 6.02343Z" fill="white"/>
</g>
<defs>
<clipPath id="clip0_2207_25629">
<rect width="21.5742" height="21.5977" fill="white" transform="translate(0.0922852 0.140625)"/>
</clipPath>
</defs>
</svg>
