<svg width="24" height="25" viewBox="0 0 24 25" fill="none" xmlns="http://www.w3.org/2000/svg">
<g clip-path="url(#clip0_2207_3171)">
<path d="M11.9553 24.0478C18.4944 24.0478 23.9084 18.6221 23.9084 12.0947C23.9084 5.55566 18.4827 0.141602 11.9436 0.141602C5.41626 0.141602 0.00219727 5.55566 0.00219727 12.0947C0.00219727 18.6221 5.42798 24.0478 11.9553 24.0478ZM11.9553 22.0557C6.42408 22.0557 2.00611 17.626 2.00611 12.0947C2.00611 6.56348 6.41236 2.13379 11.9436 2.13379C17.4749 2.13379 21.9163 6.56348 21.9163 12.0947C21.9163 17.626 17.4866 22.0557 11.9553 22.0557Z" fill="black" fill-opacity="0.85"/>
<path d="M5.74438 11.0752C6.08422 11.1689 6.45923 11.2158 6.85767 11.2158C9.0725 11.2158 10.76 9.54004 10.76 7.31348C10.76 6.84472 10.6897 6.41113 10.5374 6.00098C8.08814 6.56348 6.17797 8.5791 5.74438 11.0752ZM11.9319 18.4111C12.1077 18.4111 12.2952 18.4111 12.471 18.3877C12.3069 17.9189 12.2366 17.4268 12.2366 16.9111C12.2366 14.2627 14.3694 12.1064 17.0295 12.1064C17.4397 12.1064 17.8264 12.165 18.2249 12.2705C18.2249 12.2236 18.2249 12.1768 18.2249 12.1299C18.2249 8.68457 15.3655 5.83691 11.9319 5.83691C11.7561 5.83691 11.6038 5.84863 11.428 5.86035C11.5803 6.31738 11.6506 6.79785 11.6506 7.31348C11.6506 9.96191 9.5061 12.1064 6.85767 12.1064C6.44751 12.1064 6.03735 12.0596 5.65063 11.9541C5.65063 12.0127 5.65063 12.0713 5.65063 12.1299C5.65063 15.5635 8.49828 18.4111 11.9319 18.4111ZM13.3616 18.2471C15.7991 17.6611 17.721 15.6455 18.1311 13.1611C17.7795 13.0557 17.428 12.9971 17.0295 12.9971C14.803 12.9971 13.1272 14.6846 13.1272 16.9111C13.1272 17.3916 13.1975 17.8369 13.3616 18.2471Z" fill="black" fill-opacity="0.85"/>
</g>
<defs>
<clipPath id="clip0_2207_3171">
<rect width="23.9062" height="23.918" fill="white" transform="translate(0.00219727 0.141602)"/>
</clipPath>
</defs>
</svg>
