<svg width="36" height="25" viewBox="0 0 36 25" fill="none" xmlns="http://www.w3.org/2000/svg">
<g clip-path="url(#clip0_2207_12369)">
<path d="M7.17163 24.3408H28.031C29.4959 24.3408 29.906 23.0166 29.3435 21.9033L23.4724 10.126L33.2224 23.7549C33.5154 24.165 33.8787 24.3057 34.2185 24.3057C34.7224 24.3057 35.1912 24.0127 35.1912 23.3213V19.8174C35.1912 19.3838 34.8279 19.0205 34.3943 19.0205C33.9607 19.0205 33.6091 19.3838 33.6091 19.8174V21.6104L19.0193 1.23147C18.2576 0.153345 16.9451 0.176783 16.1834 1.23147L1.60522 21.6104V19.8174C1.60522 19.3838 1.25366 19.0205 0.820068 19.0205C0.374755 19.0205 0.0231934 19.3838 0.0231934 19.8174V23.3213C0.0231934 24.0127 0.491943 24.3057 0.995849 24.3057C1.33569 24.3057 1.69897 24.165 1.99194 23.7549L11.742 10.126L5.87085 21.9033C5.30835 23.0166 5.70678 24.3408 7.17163 24.3408ZM11.6951 22.5478L16.8513 11.708C17.0154 11.3682 17.3084 11.2041 17.6013 11.2041C17.8943 11.2041 18.1873 11.3682 18.3396 11.708L23.5076 22.5478H19.488L17.6013 14.251L15.7029 22.5478H11.6951Z" fill="black" fill-opacity="0.85"/>
</g>
<defs>
<clipPath id="clip0_2207_12369">
<rect width="35.168" height="24.1992" fill="white" transform="translate(0.0231934 0.141602)"/>
</clipPath>
</defs>
</svg>
