<svg width="11" height="13" viewBox="0 0 11 13" fill="none" xmlns="http://www.w3.org/2000/svg">
<g clip-path="url(#clip0_2207_22409)">
<path d="M0.976806 12.5996C1.45727 12.5996 1.77368 12.3535 1.96118 11.7793L2.93384 8.9082H7.51587L8.48853 11.7793C8.67603 12.377 8.99243 12.5996 9.48462 12.5996C10.0705 12.5996 10.469 12.2364 10.469 11.709C10.469 11.4746 10.4104 11.252 10.3167 11.0059L6.67212 1.32617C6.40259 0.611328 5.9104 0.236328 5.21899 0.236328C4.53931 0.236328 4.04712 0.58789 3.77759 1.32617L0.133056 11.0059C0.0393066 11.2285 0.00415039 11.4629 0.00415039 11.709C0.00415039 12.2481 0.37915 12.5996 0.976806 12.5996ZM3.44946 7.38477L5.09009 2.49805H5.35962L7.00024 7.38477H3.44946Z" fill="black" fill-opacity="0.85"/>
</g>
<defs>
<clipPath id="clip0_2207_22409">
<rect width="10.4648" height="12.457" fill="white" transform="translate(0.00415039 0.142578)"/>
</clipPath>
</defs>
</svg>
