<svg width="27" height="18" viewBox="0 0 27 18" fill="none" xmlns="http://www.w3.org/2000/svg">
<g clip-path="url(#clip0_2207_22422)">
<path d="M20.7717 17.6025C22.5764 17.6025 24.2639 16.6182 24.9904 15.0947H25.0373V16.6416C25.0373 17.2275 25.4358 17.6143 25.9865 17.6143C26.549 17.6143 26.9475 17.2275 26.9475 16.5947V8.77832C26.9475 6.22363 25.0725 4.57129 22.0959 4.57129C19.8928 4.57129 18.0529 5.54394 17.385 7.05566C17.2561 7.34863 17.1623 7.62988 17.1623 7.87598C17.1623 8.3916 17.549 8.73144 18.0529 8.73144C18.4162 8.73144 18.6975 8.59082 18.8733 8.26269C19.5295 6.90332 20.5256 6.27051 22.049 6.27051C23.8772 6.27051 24.967 7.29004 24.967 8.93066V9.93848L21.1819 10.1494C18.217 10.3135 16.5647 11.6846 16.5647 13.8643C16.5647 16.1025 18.2873 17.6025 20.7717 17.6025ZM21.2522 15.9736C19.6701 15.9736 18.592 15.1064 18.592 13.8174C18.592 12.5752 19.5881 11.7432 21.4279 11.626L24.967 11.4033V12.6455C24.967 14.5088 23.3147 15.9736 21.2522 15.9736Z" fill="black" fill-opacity="0.85"/>
<path d="M1.07251 17.5205C1.6936 17.5205 1.99829 17.2861 2.22094 16.6299L3.73266 12.4932H10.6467L12.1584 16.6299C12.3811 17.2861 12.6858 17.5205 13.2951 17.5205C13.9162 17.5205 14.3147 17.1455 14.3147 16.5596C14.3147 16.3604 14.2795 16.1728 14.1858 15.9268L8.68969 1.29004C8.42016 0.575196 7.93969 0.211914 7.18969 0.211914C6.46313 0.211914 5.97094 0.563477 5.71313 1.27832L0.217041 15.9385C0.123291 16.1846 0.0881348 16.3721 0.0881348 16.5713C0.0881348 17.1572 0.463135 17.5205 1.07251 17.5205ZM4.30688 10.7119L7.15454 2.82519H7.21313L10.0608 10.7119H4.30688Z" fill="black" fill-opacity="0.85"/>
</g>
<defs>
<clipPath id="clip0_2207_22422">
<rect width="26.8594" height="17.4727" fill="white" transform="translate(0.0881348 0.141602)"/>
</clipPath>
</defs>
</svg>
