<svg width="24" height="21" viewBox="0 0 24 21" fill="none" xmlns="http://www.w3.org/2000/svg">
<g clip-path="url(#clip0_2207_22302)">
<path d="M16.1814 1.92285H22.7907C23.2829 1.92285 23.6931 1.53613 23.6931 1.03223C23.6931 0.54004 23.2829 0.15332 22.7907 0.15332H16.1814C15.6892 0.15332 15.3025 0.54004 15.3025 1.03223C15.3025 1.53613 15.6892 1.92285 16.1814 1.92285ZM16.1814 8.06348H22.7907C23.2829 8.06348 23.6931 7.67676 23.6931 7.17285C23.6931 6.68066 23.2829 6.29394 22.7907 6.29394H16.1814C15.6892 6.29394 15.3025 6.68066 15.3025 7.17285C15.3025 7.67676 15.6892 8.06348 16.1814 8.06348ZM0.95874 14.2041H22.7907C23.2829 14.2041 23.6931 13.8057 23.6931 13.3135C23.6931 12.8213 23.2829 12.4346 22.7907 12.4346H0.95874C0.466553 12.4346 0.079834 12.8213 0.079834 13.3135C0.079834 13.8057 0.466553 14.2041 0.95874 14.2041ZM0.95874 20.333H22.7907C23.2829 20.333 23.6931 19.9463 23.6931 19.4541C23.6931 18.9619 23.2829 18.5635 22.7907 18.5635H0.95874C0.466553 18.5635 0.079834 18.9619 0.079834 19.4541C0.079834 19.9463 0.466553 20.333 0.95874 20.333Z" fill="black" fill-opacity="0.85"/>
<path d="M3.31421 8.82519C4.80249 8.82519 6.03295 7.8291 6.03295 6.24707C6.03295 4.74707 5.01342 3.76269 3.61889 3.76269C2.64624 3.76269 1.96655 4.27832 1.73217 5.28613L1.91967 5.30957C2.03686 3.23535 3.39624 1.84082 5.34155 1.74707C5.78686 1.72363 6.11499 1.40722 6.11499 0.961914C6.11499 0.422852 5.66967 0.141602 5.09545 0.141602C2.44702 0.141602 0.11499 2.3916 0.11499 5.35644C0.11499 7.46582 1.52124 8.82519 3.31421 8.82519ZM10.486 8.82519C11.9743 8.82519 13.2165 7.8291 13.2165 6.24707C13.2165 4.74707 12.197 3.76269 10.7907 3.76269C9.82983 3.76269 9.15014 4.27832 8.90405 5.28613L9.09155 5.30957C9.20874 3.23535 10.5681 1.8291 12.5017 1.74707C12.9587 1.72363 13.2986 1.40722 13.2986 0.961914C13.2986 0.422852 12.865 0.141602 12.2673 0.141602C9.64233 0.141602 7.28686 2.3916 7.28686 5.35644C7.28686 7.46582 8.70483 8.82519 10.486 8.82519Z" fill="black" fill-opacity="0.85"/>
</g>
<defs>
<clipPath id="clip0_2207_22302">
<rect width="23.6133" height="20.2852" fill="white" transform="translate(0.079834 0.141602)"/>
</clipPath>
</defs>
</svg>
