<svg width="24" height="21" viewBox="0 0 24 21" fill="none" xmlns="http://www.w3.org/2000/svg">
<g clip-path="url(#clip0_2207_22315)">
<path d="M0.9104 1.91113H22.7424C23.2346 1.91113 23.6448 1.52441 23.6448 1.02051C23.6448 0.528321 23.2346 0.141602 22.7424 0.141602H0.9104C0.418213 0.141602 0.0314941 0.528321 0.0314941 1.02051C0.0314941 1.52441 0.418213 1.91113 0.9104 1.91113ZM0.9104 14.1924H22.7424C23.2346 14.1924 23.6448 13.7939 23.6448 13.3018C23.6448 12.8096 23.2346 12.4228 22.7424 12.4228H0.9104C0.418213 12.4228 0.0314941 12.8096 0.0314941 13.3018C0.0314941 13.7939 0.418213 14.1924 0.9104 14.1924ZM9.57055 8.05176H22.7424C23.2346 8.05176 23.6448 7.66504 23.6448 7.16113C23.6448 6.66894 23.2346 6.28222 22.7424 6.28222H9.57055C9.06665 6.28222 8.67993 6.66894 8.67993 7.16113C8.67993 7.66504 9.06665 8.05176 9.57055 8.05176ZM9.57055 20.3213H22.7424C23.2346 20.3213 23.6448 19.9346 23.6448 19.4424C23.6448 18.9502 23.2346 18.5518 22.7424 18.5518H9.57055C9.06665 18.5518 8.67993 18.9502 8.67993 19.4424C8.67993 19.9346 9.06665 20.3213 9.57055 20.3213Z" fill="black" fill-opacity="0.85"/>
</g>
<defs>
<clipPath id="clip0_2207_22315">
<rect width="23.6133" height="20.2617" fill="white" transform="translate(0.0314941 0.141602)"/>
</clipPath>
</defs>
</svg>
