<svg width="26" height="26" viewBox="0 0 26 26" fill="none" xmlns="http://www.w3.org/2000/svg">
<g id="text.bubble" clip-path="url(#clip0_2201_364)">
<g id="Group">
<path id="Vector" d="M7.20703 25.7461C7.78125 25.7461 8.17969 25.4414 8.89453 24.8086L12.9375 21.2109H20.4609C23.9531 21.2109 25.8281 19.2773 25.8281 15.8438V6.86719C25.8281 3.43359 23.9531 1.5 20.4609 1.5H5.36719C1.875 1.5 0 3.42188 0 6.86719V15.8438C0 19.2891 1.875 21.2109 5.36719 21.2109H5.92969V24.2578C5.92969 25.1602 6.38672 25.7461 7.20703 25.7461ZM7.6875 23.6016V20.2031C7.6875 19.5703 7.44141 19.3242 6.80859 19.3242H5.36719C3 19.3242 1.88672 18.1172 1.88672 15.832V6.86719C1.88672 4.58203 3 3.38672 5.36719 3.38672H20.4609C22.8164 3.38672 23.9414 4.58203 23.9414 6.86719V15.832C23.9414 18.1172 22.8164 19.3242 20.4609 19.3242H12.8672C12.2109 19.3242 11.8828 19.418 11.4375 19.875L7.6875 23.6016Z" fill="black" fill-opacity="0.85"/>
<path id="Vector_2" d="M6.87891 8.12109H18.8086C19.1836 8.12109 19.4766 7.82812 19.4766 7.44141C19.4766 7.07812 19.1836 6.77344 18.8086 6.77344H6.87891C6.50391 6.77344 6.19922 7.07812 6.19922 7.44141C6.19922 7.82812 6.50391 8.12109 6.87891 8.12109ZM6.87891 11.9414H18.8086C19.1836 11.9414 19.4766 11.6367 19.4766 11.25C19.4766 10.8867 19.1836 10.582 18.8086 10.582H6.87891C6.50391 10.582 6.19922 10.8867 6.19922 11.25C6.19922 11.6367 6.50391 11.9414 6.87891 11.9414ZM6.87891 15.75H14.6367C15.0117 15.75 15.3047 15.457 15.3047 15.082C15.3047 14.6953 15.0117 14.3906 14.6367 14.3906H6.87891C6.50391 14.3906 6.19922 14.6953 6.19922 15.082C6.19922 15.457 6.50391 15.75 6.87891 15.75Z" fill="black" fill-opacity="0.85"/>
</g>
</g>
<defs>
<clipPath id="clip0_2201_364">
<rect width="25.8281" height="25.7461" fill="white"/>
</clipPath>
</defs>
</svg>
