<svg width="24" height="21" viewBox="0 0 24 21" fill="none" xmlns="http://www.w3.org/2000/svg">
<g clip-path="url(#clip0_2207_22331)">
<path d="M0.944092 1.91113H22.7761C23.2683 1.91113 23.6785 1.52441 23.6785 1.02051C23.6785 0.528321 23.2683 0.141602 22.7761 0.141602H0.944092C0.451905 0.141602 0.0651855 0.528321 0.0651855 1.02051C0.0651855 1.52441 0.451905 1.91113 0.944092 1.91113ZM0.944092 8.05176H22.7761C23.2683 8.05176 23.6785 7.66504 23.6785 7.16113C23.6785 6.66894 23.2683 6.28222 22.7761 6.28222H0.944092C0.451905 6.28222 0.0651855 6.66894 0.0651855 7.16113C0.0651855 7.66504 0.451905 8.05176 0.944092 8.05176ZM0.944092 14.1924H22.7761C23.2683 14.1924 23.6785 13.7939 23.6785 13.3018C23.6785 12.8096 23.2683 12.4228 22.7761 12.4228H0.944092C0.451905 12.4228 0.0651855 12.8096 0.0651855 13.3018C0.0651855 13.7939 0.451905 14.1924 0.944092 14.1924ZM0.944092 20.3213H13.4832C13.9754 20.3213 14.3738 19.9346 14.3738 19.4424C14.3738 18.9502 13.9754 18.5518 13.4832 18.5518H0.944092C0.451905 18.5518 0.0651855 18.9502 0.0651855 19.4424C0.0651855 19.9346 0.451905 20.3213 0.944092 20.3213Z" fill="black" fill-opacity="0.85"/>
</g>
<defs>
<clipPath id="clip0_2207_22331">
<rect width="23.6133" height="20.2617" fill="white" transform="translate(0.0651855 0.141602)"/>
</clipPath>
</defs>
</svg>
