<svg width="24" height="21" viewBox="0 0 24 21" fill="none" xmlns="http://www.w3.org/2000/svg">
<g clip-path="url(#clip0_2207_22335)">
<path d="M0.950195 1.91113H22.7822C23.2744 1.91113 23.6846 1.52441 23.6846 1.02051C23.6846 0.528321 23.2744 0.141602 22.7822 0.141602H0.950195C0.458008 0.141602 0.0712891 0.528321 0.0712891 1.02051C0.0712891 1.52441 0.458008 1.91113 0.950195 1.91113ZM0.950195 8.05176H22.7822C23.2744 8.05176 23.6846 7.66504 23.6846 7.16113C23.6846 6.66894 23.2744 6.28222 22.7822 6.28222H0.950195C0.458008 6.28222 0.0712891 6.66894 0.0712891 7.16113C0.0712891 7.66504 0.458008 8.05176 0.950195 8.05176ZM0.950195 14.1924H22.7822C23.2744 14.1924 23.6846 13.7939 23.6846 13.3018C23.6846 12.8096 23.2744 12.4228 22.7822 12.4228H0.950195C0.458008 12.4228 0.0712891 12.8096 0.0712891 13.3018C0.0712891 13.7939 0.458008 14.1924 0.950195 14.1924ZM10.2549 20.3213H22.7822C23.2744 20.3213 23.6846 19.9346 23.6846 19.4424C23.6846 18.9502 23.2744 18.5518 22.7822 18.5518H10.2549C9.7627 18.5518 9.37598 18.9502 9.37598 19.4424C9.37598 19.9346 9.7627 20.3213 10.2549 20.3213Z" fill="black" fill-opacity="0.85"/>
</g>
<defs>
<clipPath id="clip0_2207_22335">
<rect width="23.6133" height="20.2617" fill="white" transform="translate(0.0712891 0.141602)"/>
</clipPath>
</defs>
</svg>
