<svg width="18" height="22" viewBox="0 0 18 22" fill="none" xmlns="http://www.w3.org/2000/svg">
<g clip-path="url(#clip0_2207_22431)">
<path d="M0.992676 19.6778C1.61377 19.6778 1.91846 19.4434 2.14111 18.7871L3.65283 14.6504H10.5669L12.0786 18.7871C12.3013 19.4434 12.606 19.6778 13.2153 19.6778C13.8364 19.6778 14.2349 19.3028 14.2349 18.7168C14.2349 18.5176 14.1997 18.3301 14.106 18.084L8.60986 3.44727C8.34033 2.73242 7.85986 2.36914 7.10986 2.36914C6.3833 2.36914 5.89111 2.7207 5.6333 3.43555L0.137207 18.0957C0.043457 18.3418 0.00830078 18.5293 0.00830078 18.7285C0.00830078 19.3145 0.383301 19.6778 0.992676 19.6778ZM4.22705 12.8692L7.07471 4.98242H7.1333L9.98096 12.8692H4.22705Z" fill="black" fill-opacity="0.85"/>
<path d="M16.6138 9.93946C17.1294 9.93946 17.4692 9.59961 17.4692 9.10742V1.0918C17.4692 0.505859 17.1177 0.142578 16.5435 0.142578C16.0278 0.142578 15.77 0.341797 15.4302 0.576172L13.5552 1.86524C13.2153 2.08789 13.0864 2.29883 13.0864 2.54492C13.0864 2.94336 13.3794 3.23633 13.7427 3.23633C13.9771 3.23633 14.1177 3.16602 14.3521 3.00196L15.7231 2.08789H15.7583V9.10742C15.7583 9.59961 16.1099 9.93946 16.6138 9.93946Z" fill="black" fill-opacity="0.85"/>
</g>
<defs>
<clipPath id="clip0_2207_22431">
<rect width="17.4609" height="21.7852" fill="white" transform="translate(0.00830078 0.142578)"/>
</clipPath>
</defs>
</svg>
