<svg width="32" height="25" viewBox="0 0 32 25" fill="none" xmlns="http://www.w3.org/2000/svg">
<g clip-path="url(#clip0_2207_22297)">
<path d="M8.97021 22.7777H29.6187C30.603 22.7777 31.0952 22.2972 31.0952 21.3128V20.4456C31.0952 19.4847 30.603 18.9808 29.6187 18.9808H8.97021C7.98584 18.9808 7.49365 19.4847 7.49365 20.4456V21.3128C7.49365 22.2972 7.98584 22.7777 8.97021 22.7777ZM1.13037 24.0667L5.29052 21.5355C5.82959 21.2074 5.81787 20.5863 5.29052 20.2581L1.13037 17.7152C0.57959 17.3753 0.0756836 17.6683 0.0756836 18.2894V23.5042C0.0756836 24.137 0.57959 24.4066 1.13037 24.0667Z" fill="black" fill-opacity="0.85"/>
<path d="M8.37256 3.33643H30.2046C30.6968 3.33643 31.0952 2.94971 31.0952 2.45752C31.0952 1.95361 30.6968 1.56689 30.2046 1.56689H8.37256C7.88037 1.56689 7.49365 1.95361 7.49365 2.45752C7.49365 2.94971 7.88037 3.33643 8.37256 3.33643ZM8.37256 9.35986H30.2046C30.6968 9.35986 31.0952 8.97314 31.0952 8.48096C31.0952 7.97705 30.6968 7.59033 30.2046 7.59033H8.37256C7.88037 7.59033 7.49365 7.97705 7.49365 8.48096C7.49365 8.97314 7.88037 9.35986 8.37256 9.35986ZM8.37256 15.3833H30.2046C30.6968 15.3833 31.0952 14.9966 31.0952 14.5044C31.0952 14.0005 30.6968 13.6138 30.2046 13.6138H8.37256C7.88037 13.6138 7.49365 14.0005 7.49365 14.5044C7.49365 14.9966 7.88037 15.3833 8.37256 15.3833Z" fill="black" fill-opacity="0.85"/>
</g>
<defs>
<clipPath id="clip0_2207_22297">
<rect width="31.0195" height="24.0733" fill="white" transform="translate(0.0756836 0.141602)"/>
</clipPath>
</defs>
</svg>
