<svg width="36" height="18" viewBox="0 0 36 18" fill="none" xmlns="http://www.w3.org/2000/svg">
<g clip-path="url(#clip0_2207_22549)">
<path d="M29.7055 17.4854C33.2914 17.4854 35.8695 15.3877 35.8695 12.5283C35.8695 10.208 34.1938 8.68457 31.5336 8.50879V8.46191C33.7602 8.08691 35.143 6.59863 35.143 4.51269C35.143 1.98144 32.8461 0.141602 29.6469 0.141602C27.2328 0.141602 25.2875 1.20801 24.4555 2.9541C24.2328 3.38769 24.1391 3.78613 24.1391 4.24316C24.1391 4.79394 24.5141 5.16894 25.0531 5.16894C25.5805 5.16894 25.8149 4.94629 25.9906 4.40722C26.4945 2.87207 27.7953 1.99316 29.5766 1.99316C31.6742 1.99316 33.0219 3.09472 33.0219 4.78222C33.0219 6.54004 31.5805 7.70019 29.4828 7.70019H28.1938C27.6313 7.70019 27.268 8.04004 27.268 8.5791C27.268 9.10644 27.6313 9.45801 28.1938 9.45801H29.5063C32.1078 9.45801 33.6547 10.5596 33.6547 12.5166C33.6547 14.3213 32.0375 15.5869 29.7172 15.5869C27.6899 15.5869 26.2484 14.6963 25.7211 13.1494C25.5336 12.6455 25.2524 12.4111 24.7484 12.4111C24.1508 12.4111 23.7524 12.7978 23.7524 13.4072C23.7524 13.8174 23.8578 14.1924 24.0805 14.6025C25.0531 16.4541 27.0922 17.4854 29.7055 17.4854Z" fill="black" fill-opacity="0.85"/>
<path d="M11.4125 17.2275H21.1508C21.7367 17.2275 22.1234 16.8525 22.1234 16.29C22.1234 15.7275 21.7367 15.3408 21.1508 15.3408H13.3461V15.2822L17.9281 10.7939C20.6938 8.08691 21.5375 6.68066 21.5375 4.88769C21.5375 2.19238 19.1586 0.141602 15.9828 0.141602C13.4867 0.141602 11.3539 1.50098 10.6391 3.56348C10.4984 3.95019 10.4399 4.29004 10.4399 4.58301C10.4399 5.16894 10.7914 5.55566 11.3656 5.55566C11.9164 5.55566 12.1508 5.29785 12.3266 4.71191C12.4203 4.34863 12.5492 4.00879 12.7367 3.71582C13.3578 2.66113 14.518 2.00488 15.9828 2.00488C17.8695 2.00488 19.393 3.34082 19.393 5.00488C19.393 6.35254 18.8305 7.25488 16.5219 9.55176L11.0375 15.0361C10.5453 15.5166 10.3813 15.8213 10.3813 16.2432C10.3813 16.8525 10.7914 17.2275 11.4125 17.2275Z" fill="black" fill-opacity="0.85"/>
<path d="M6.06885 17.4619C6.71338 17.4619 7.13526 17.04 7.13526 16.3955V1.41894C7.13526 0.657227 6.65479 0.235352 5.92823 0.235352C5.38916 0.235352 5.0962 0.399414 4.60401 0.715821L0.70166 3.24707C0.244629 3.55176 0.0922852 3.82129 0.0922852 4.20801C0.0922852 4.68848 0.443847 5.04004 0.959473 5.04004C1.27588 5.04004 1.42823 4.94629 1.63917 4.80566L4.97901 2.70801H5.02588V16.3955C5.02588 17.04 5.42432 17.4619 6.06885 17.4619Z" fill="black" fill-opacity="0.85"/>
</g>
<defs>
<clipPath id="clip0_2207_22549">
<rect width="35.7773" height="17.3789" fill="white" transform="translate(0.0922852 0.141602)"/>
</clipPath>
</defs>
</svg>
