<svg width="37" height="25" viewBox="0 0 37 25" fill="none" xmlns="http://www.w3.org/2000/svg">
<g clip-path="url(#clip0_2207_22453)">
<path d="M1.52637 24.8447C2.31152 24.8447 2.94434 24.2002 2.94434 23.415C2.94434 22.6299 2.31152 21.9971 1.52637 21.9971C0.729492 21.9971 0.0966797 22.6299 0.0966797 23.415C0.0966797 24.2002 0.729492 24.8447 1.52637 24.8447ZM7.11621 24.8447C7.90137 24.8447 8.53418 24.2002 8.53418 23.415C8.53418 22.6299 7.90137 21.9971 7.11621 21.9971C6.31934 21.9971 5.68652 22.6299 5.68652 23.415C5.68652 24.2002 6.31934 24.8447 7.11621 24.8447ZM12.7061 24.8447C13.4912 24.8447 14.124 24.2002 14.124 23.415C14.124 22.6299 13.4912 21.9971 12.7061 21.9971C11.9209 21.9971 11.2764 22.6299 11.2764 23.415C11.2764 24.2002 11.9209 24.8447 12.7061 24.8447ZM18.2959 24.8447C19.0811 24.8447 19.7139 24.2002 19.7139 23.415C19.7139 22.6299 19.0811 21.9971 18.2959 21.9971C17.5108 21.9971 16.8662 22.6299 16.8662 23.415C16.8662 24.2002 17.5108 24.8447 18.2959 24.8447ZM23.8858 24.8447C24.6709 24.8447 25.3037 24.2002 25.3037 23.415C25.3037 22.6299 24.6709 21.9971 23.8858 21.9971C23.1006 21.9971 22.4561 22.6299 22.4561 23.415C22.4561 24.2002 23.1006 24.8447 23.8858 24.8447ZM29.4756 24.8447C30.2608 24.8447 30.8936 24.2002 30.8936 23.415C30.8936 22.6299 30.2608 21.9971 29.4756 21.9971C28.6905 21.9971 28.0459 22.6299 28.0459 23.415C28.0459 24.2002 28.6905 24.8447 29.4756 24.8447ZM35.0655 24.8447C35.8506 24.8447 36.4834 24.2002 36.4834 23.415C36.4834 22.6299 35.8506 21.9971 35.0655 21.9971C34.2803 21.9971 33.6358 22.6299 33.6358 23.415C33.6358 24.2002 34.2803 24.8447 35.0655 24.8447Z" fill="black" fill-opacity="0.85"/>
<path d="M4.31543 17.4385C6.09668 17.4385 7.78418 16.4658 8.4873 14.9541H8.53418V16.4775C8.53418 17.0635 8.93262 17.4502 9.4834 17.4502C10.0459 17.4502 10.4326 17.0635 10.4326 16.4307V8.67285C10.4326 6.1416 8.58106 4.51269 5.62793 4.51269C3.43652 4.51269 1.62012 5.47363 0.952149 6.96191C0.823242 7.25488 0.729492 7.53613 0.729492 7.78222C0.729492 8.29785 1.11621 8.63769 1.62012 8.63769C1.9834 8.63769 2.25293 8.49707 2.44043 8.16894C3.08496 6.82129 4.06934 6.20019 5.58106 6.20019C7.38574 6.20019 8.46387 7.20801 8.46387 8.83691V9.83301L4.71387 10.0439C1.77246 10.1963 0.131836 11.5674 0.131836 13.7236C0.131836 15.9502 1.84277 17.4385 4.31543 17.4385ZM4.78418 15.8096C3.22559 15.8096 2.15918 14.9541 2.15918 13.6768C2.15918 12.458 3.14356 11.6377 4.95996 11.5205L8.46387 11.2861V12.5166C8.46387 14.3682 6.82324 15.8096 4.78418 15.8096ZM13.7022 17.4385C14.2647 17.4385 14.6748 17.0518 14.6748 16.4424V14.7666H14.7217C15.4834 16.4189 17.0186 17.4385 18.9522 17.4385C22.1514 17.4385 24.249 14.8955 24.249 10.9814C24.249 7.05566 22.1397 4.51269 18.9756 4.51269C17.0772 4.51269 15.5186 5.54394 14.792 7.18457H14.7334V1.19629C14.7334 0.551758 14.335 0.141602 13.749 0.141602C13.1631 0.141602 12.7647 0.551758 12.7647 1.19629V16.4424C12.7647 17.0635 13.1397 17.4385 13.7022 17.4385ZM18.5069 15.7393C16.3037 15.7393 14.7451 13.8525 14.7451 10.9814C14.7451 8.12207 16.3037 6.23535 18.5069 6.23535C20.7803 6.23535 22.21 8.07519 22.21 10.9814C22.21 13.8994 20.7803 15.7393 18.5069 15.7393ZM31.374 17.4385C33.6826 17.4385 35.6514 16.1728 36.3194 14.3916C36.3897 14.1924 36.4248 14.0049 36.4248 13.8291C36.4248 13.3369 36.0733 12.9854 35.5811 12.9854C35.1358 12.9854 34.9131 13.1494 34.6436 13.665C34.0342 15.001 32.9678 15.7393 31.3858 15.7393C29.1006 15.7393 27.6006 13.9228 27.6006 10.9814C27.6006 8.07519 29.1006 6.22363 31.3858 6.22363C32.8975 6.22363 33.9873 6.92676 34.6201 8.30957C34.8779 8.80176 35.1123 8.97754 35.5459 8.97754C36.0498 8.97754 36.3897 8.64941 36.3897 8.13379C36.3897 7.99316 36.3545 7.81738 36.3076 7.65332C35.7217 5.86035 33.7295 4.51269 31.3389 4.51269C27.8467 4.51269 25.5733 7.0791 25.5733 11.0049C25.5733 14.9424 27.8701 17.4385 31.374 17.4385Z" fill="black" fill-opacity="0.85"/>
</g>
<defs>
<clipPath id="clip0_2207_22453">
<rect width="36.3867" height="24.7383" fill="white" transform="translate(0.0966797 0.141602)"/>
</clipPath>
</defs>
</svg>
