<svg width="24" height="25" viewBox="0 0 24 25" fill="none" xmlns="http://www.w3.org/2000/svg">
<g clip-path="url(#clip0_2207_10749)">
<path d="M11.9699 24.0488C18.509 24.0488 23.923 18.6231 23.923 12.0957C23.923 5.55664 18.4973 0.142578 11.9582 0.142578C5.43091 0.142578 0.0168457 5.55664 0.0168457 12.0957C0.0168457 18.6231 5.44263 24.0488 11.9699 24.0488ZM11.9699 22.0567C6.43873 22.0567 2.02076 17.627 2.02076 12.0957C2.02076 6.56446 6.42701 2.13477 11.9582 2.13477C17.4895 2.13477 21.9309 6.56446 21.9309 12.0957C21.9309 17.627 17.5012 22.0567 11.9699 22.0567Z" fill="black" fill-opacity="0.85"/>
<path d="M10.5168 16.338C12.9895 15.6583 14.0676 13.7482 13.3645 11.1583L12.4152 7.64273C12.1574 6.69351 11.5363 6.35367 10.5871 6.59976L5.59497 7.92398C4.63404 8.18179 4.28247 8.79117 4.54029 9.75211L5.47779 13.2794C6.15747 15.8575 8.04419 16.9825 10.5168 16.338ZM10.0363 14.5333C8.99341 14.8029 7.97388 14.4396 7.4231 13.5958C7.31763 13.4318 7.4231 13.2911 7.62232 13.2911C8.30201 13.3497 9.07544 13.2325 9.64966 13.0919C10.2121 12.9396 10.9504 12.6466 11.5129 12.2599C11.677 12.1427 11.8527 12.2247 11.8293 12.4239C11.7941 13.4318 11.1027 14.2521 10.0363 14.5333ZM7.50513 11.2404C7.13013 11.3458 7.08326 11.5802 6.91919 11.6154C6.83716 11.6271 6.75513 11.545 6.70826 11.4161C6.57935 10.9708 6.8606 10.5138 7.29419 10.42C7.72779 10.3029 8.16138 10.5607 8.29029 10.9708C8.33716 11.1232 8.30201 11.2404 8.20826 11.2755C8.02076 11.3224 7.84497 11.1349 7.50513 11.2404ZM10.5637 10.42C10.2004 10.5021 10.1418 10.7599 9.98951 10.7716C9.91919 10.8068 9.82544 10.7013 9.76685 10.5724C9.66138 10.1505 9.93091 9.68179 10.3527 9.57632C10.8098 9.47085 11.2434 9.70523 11.3488 10.1505C11.4074 10.3029 11.3488 10.42 11.2785 10.4435C11.1027 10.5021 10.9152 10.3029 10.5637 10.42ZM18.6379 9.23648L13.6457 7.88882C13.552 7.86539 13.4465 7.85367 13.3645 7.84195L14.2082 10.9239C14.5012 12.0021 14.5129 13.0216 14.2785 13.9005C14.4074 13.9239 14.5363 13.9357 14.6652 13.9708C15.5559 14.1935 16.1535 14.8732 16.1887 15.67C16.1887 15.8693 16.0012 15.9747 15.8488 15.8224C15.3566 15.3654 14.923 15.1427 14.384 14.9904C14.2199 14.9435 14.0324 14.8966 13.8684 14.8849C13.4582 15.6583 12.802 16.2911 11.923 16.7365C12.3918 17.1232 12.9895 17.4396 13.716 17.6271C16.177 18.2833 18.0637 17.1466 18.7434 14.5685L19.6926 11.0529C19.9504 10.1037 19.5988 9.48257 18.6379 9.23648ZM16.5168 13.0568C16.177 12.9865 15.966 12.6115 16.0715 12.2599C16.1418 11.92 16.5051 11.7208 16.8566 11.8146C17.1965 11.8966 17.4074 12.2599 17.3137 12.5997C17.2082 12.9396 16.8566 13.1505 16.5168 13.0568Z" fill="black" fill-opacity="0.85"/>
</g>
<defs>
<clipPath id="clip0_2207_10749">
<rect width="23.9062" height="23.918" fill="white" transform="translate(0.0168457 0.142578)"/>
</clipPath>
</defs>
</svg>
