<svg width="26" height="35" viewBox="0 0 26 35" fill="none" xmlns="http://www.w3.org/2000/svg">
<g clip-path="url(#clip0_2207_4781)">
<path d="M13.1264 18.0957C16.3491 18.0957 18.9155 15.5176 18.9155 12.2949C18.9155 9.06055 16.3491 6.48242 13.1264 6.48242C9.90381 6.48242 7.32568 9.06055 7.32568 12.2949C7.32568 15.5176 9.90381 18.0957 13.1264 18.0957ZM13.1264 4.61914C13.6655 4.61914 14.0991 4.17383 14.0991 3.64649V1.11523C14.0991 0.576172 13.6655 0.142578 13.1264 0.142578C12.5874 0.142578 12.1538 0.576172 12.1538 1.11523V3.64649C12.1538 4.17383 12.5874 4.61914 13.1264 4.61914ZM18.5405 6.88086C18.9038 7.25586 19.5366 7.26758 19.9233 6.88086L21.7045 5.07617C22.0913 4.70117 22.0795 4.08008 21.7045 3.70508C21.3413 3.33008 20.7319 3.33008 20.3452 3.70508L18.5405 5.52149C18.1655 5.89649 18.1772 6.50586 18.5405 6.88086ZM20.7671 12.2949C20.7671 12.8223 21.2124 13.2676 21.7397 13.2676H24.271C24.7983 13.2676 25.2319 12.8223 25.2319 12.2949C25.2319 11.7559 24.7983 11.3223 24.271 11.3223H21.7397C21.2124 11.3223 20.7671 11.7559 20.7671 12.2949ZM18.5405 17.7207C18.1655 18.0957 18.1655 18.7168 18.5405 19.0918L20.3452 20.8965C20.7319 21.2715 21.3413 21.2598 21.7045 20.8848C22.0795 20.5098 22.0913 19.8887 21.7045 19.5254L19.8999 17.7207C19.5249 17.3574 18.9155 17.3457 18.5405 17.7207Z" fill="black" fill-opacity="0.85"/>
<path d="M7.54834 31.6895C11.6733 31.6895 15.0249 28.3379 15.0249 24.2129C15.0249 22.1035 14.1694 20.2403 12.5874 18.752L12.5991 8.29883C12.5991 5.18164 10.5014 2.93164 7.54834 2.93164C4.57178 2.93164 2.47412 5.18164 2.47412 8.29883L2.48584 18.752C0.89209 20.2403 0.0483398 22.1153 0.0483398 24.2129C0.0483398 28.3379 3.3999 31.6895 7.54834 31.6895Z" fill="white"/>
<path d="M7.54834 30.3301C10.9233 30.3301 13.6538 27.5879 13.6538 24.2129C13.6538 22.4317 12.9272 20.8731 11.521 19.6074C11.2749 19.3731 11.2163 19.2442 11.2163 18.8926L11.228 8.29883C11.228 5.91992 9.72803 4.29102 7.54834 4.29102C5.34522 4.29102 3.83349 5.91992 3.83349 8.29883L3.84521 18.8926C3.84521 19.2442 3.79833 19.3731 3.54052 19.6074C2.14599 20.8731 1.40771 22.4317 1.40771 24.2129C1.40771 27.5879 4.1499 30.3301 7.54834 30.3301ZM7.54834 28.6309C5.09912 28.6309 3.13036 26.6387 3.13036 24.2129C3.13036 22.7481 3.82177 21.4238 5.06396 20.5918C5.42725 20.3457 5.56786 20.1231 5.56786 19.6426V8.36914C5.56786 6.96289 6.37646 6.01367 7.54834 6.01367C8.69677 6.01367 9.50537 6.96289 9.50537 8.36914V19.6426C9.50537 20.1231 9.646 20.3457 10.0093 20.5918C11.2514 21.4238 11.9428 22.7481 11.9428 24.2129C11.9428 26.6387 9.96239 28.6309 7.54834 28.6309Z" fill="black" fill-opacity="0.85"/>
<path d="M7.53662 27.0488C9.10693 27.0488 10.3725 25.7715 10.3725 24.2012C10.3725 23.0996 9.75146 22.1973 8.84912 21.7051C8.47412 21.5059 8.34522 21.3653 8.34522 20.791V9.36523C8.34522 8.80273 7.98193 8.43945 7.53662 8.43945C7.07959 8.43945 6.72803 8.80273 6.72803 9.36523V20.791C6.72803 21.3653 6.59912 21.5059 6.22412 21.7051C5.32178 22.1973 4.70068 23.0996 4.70068 24.2012C4.70068 25.7832 5.96631 27.0488 7.53662 27.0488Z" fill="black" fill-opacity="0.85"/>
</g>
<defs>
<clipPath id="clip0_2207_4781">
<rect width="25.1836" height="34.3477" fill="white" transform="translate(0.0483398 0.142578)"/>
</clipPath>
</defs>
</svg>
