<svg width="24" height="25" viewBox="0 0 24 25" fill="none" xmlns="http://www.w3.org/2000/svg">
<g clip-path="url(#clip0_2207_4805)">
<path d="M11.9909 24.0488C18.53 24.0488 23.944 18.6231 23.944 12.0957C23.944 5.55664 18.5183 0.142578 11.9792 0.142578C5.4519 0.142578 0.0378418 5.55664 0.0378418 12.0957C0.0378418 18.6231 5.46362 24.0488 11.9909 24.0488ZM11.9909 22.0567C6.45972 22.0567 2.04175 17.627 2.04175 12.0957C2.04175 6.56446 6.448 2.13477 11.9792 2.13477C17.5105 2.13477 21.9519 6.56446 21.9519 12.0957C21.9519 17.627 17.5222 22.0567 11.9909 22.0567Z" fill="black" fill-opacity="0.85"/>
<path d="M9.79956 19.877C11.6042 19.877 13.0573 18.4238 13.0573 16.6309C13.0573 15.6817 12.6589 14.8379 11.9089 14.1699C11.7917 14.0645 11.7683 13.9942 11.7683 13.8184L11.78 8.2168C11.78 6.93946 10.9714 6.06055 9.79956 6.06055C8.61596 6.06055 7.81909 6.93946 7.81909 8.2168V13.8184C7.81909 13.9942 7.79565 14.0645 7.65503 14.1699C6.91675 14.8379 6.53003 15.6817 6.53003 16.6309C6.53003 18.4238 7.98315 19.877 9.79956 19.877ZM9.79956 18.9278C8.5105 18.9278 7.50268 17.9082 7.50268 16.6309C7.50268 15.8574 7.85425 15.166 8.49878 14.7324C8.70972 14.6035 8.78003 14.4746 8.78003 14.2051V8.25196C8.78003 7.51367 9.17846 7.04492 9.79956 7.04492C10.3972 7.04492 10.7956 7.51367 10.7956 8.25196V14.2051C10.7956 14.4746 10.8659 14.6035 11.0769 14.7324C11.7214 15.166 12.0847 15.8574 12.0847 16.6309C12.0847 17.9082 11.0534 18.9278 9.79956 18.9278ZM9.78784 18.1543C10.6433 18.1543 11.323 17.4629 11.323 16.6192C11.323 16.0332 10.9831 15.541 10.4909 15.2715C10.3034 15.1778 10.2448 15.0957 10.2448 14.8145V13.6192C10.2448 13.3028 10.0456 13.1035 9.78784 13.1035C9.53003 13.1035 9.34253 13.3028 9.34253 13.6192V14.8145C9.34253 15.0957 9.28393 15.1778 9.073 15.2715C8.60425 15.541 8.2644 16.0332 8.2644 16.6192C8.2644 17.4746 8.94409 18.1543 9.78784 18.1543ZM14.2878 14.6621C14.5573 14.6621 14.7214 14.4278 14.7214 14.1582L14.7097 13.3145L15.3776 13.6895C15.6003 13.8184 15.8464 13.7598 15.9636 13.5606C16.0925 13.3262 15.987 13.1035 15.7761 12.9629L14.7097 12.3418L14.6862 10.2676L16.4675 11.3223V12.541C16.4675 12.8106 16.6316 12.9864 16.8894 12.9981C17.1237 12.9981 17.2878 12.7988 17.2878 12.5645L17.2995 11.8028L18.0495 12.2246C18.2956 12.3653 18.5651 12.3418 18.7058 12.1192C18.8347 11.8731 18.7292 11.6153 18.4948 11.4864L17.7331 11.041L18.3894 10.6543C18.5886 10.5254 18.6823 10.291 18.5651 10.0918C18.4362 9.86914 18.1784 9.83399 17.9675 9.96289L16.9011 10.5606L15.0964 9.55274L16.9128 8.5332L17.9792 9.14258C18.2019 9.27149 18.4597 9.24805 18.5769 9.02539C18.7175 8.81446 18.6003 8.58008 18.4011 8.46289L17.7566 8.06446L18.5066 7.64258C18.7526 7.49024 18.8347 7.23242 18.7058 7.00977C18.5651 6.78711 18.2956 6.7168 18.073 6.85742L17.3112 7.29102V6.54102C17.3112 6.2832 17.1472 6.0957 16.9128 6.0957C16.655 6.0957 16.4909 6.2832 16.4909 6.56446L16.4792 7.7832L14.6862 8.83789L14.7097 6.75196L15.7761 6.13086C16.0222 5.99024 16.0808 5.76758 15.9753 5.54492C15.8581 5.32227 15.6003 5.28711 15.3776 5.4043L14.7097 5.79102L14.7214 4.94727C14.7214 4.67774 14.5573 4.45508 14.2878 4.45508C14.0183 4.45508 13.8425 4.67774 13.8425 4.94727V5.79102L13.1862 5.4043C12.9636 5.27539 12.7175 5.33399 12.6003 5.54492C12.4714 5.76758 12.5651 5.99024 12.7878 6.13086L13.8542 6.75196L13.8776 8.83789L12.5769 8.06446C12.612 8.39258 12.6355 8.73242 12.6472 9.08399L13.4675 9.55274L12.6472 10.0098V11.0059L13.8776 10.2676L13.8542 12.3418L12.8347 12.9395C12.8816 13.1621 13.1394 13.4668 13.3503 13.6074L13.8425 13.3028V14.1582C13.8425 14.4395 14.0183 14.6621 14.2878 14.6621Z" fill="black" fill-opacity="0.85"/>
</g>
<defs>
<clipPath id="clip0_2207_4805">
<rect width="23.9062" height="23.918" fill="white" transform="translate(0.0378418 0.142578)"/>
</clipPath>
</defs>
</svg>
