<svg width="25" height="35" viewBox="0 0 25 35" fill="none" xmlns="http://www.w3.org/2000/svg">
<g clip-path="url(#clip0_2207_4774)">
<path d="M12.1592 18.0957C15.3818 18.0957 17.9482 15.5176 17.9482 12.2949C17.9482 9.06055 15.3818 6.48242 12.1592 6.48242C8.93653 6.48242 6.35841 9.06055 6.35841 12.2949C6.35841 15.5176 8.93653 18.0957 12.1592 18.0957ZM12.1592 16.3731C9.87403 16.3731 8.08106 14.5918 8.08106 12.2949C8.08106 9.98633 9.87403 8.20508 12.1592 8.20508C14.4443 8.20508 16.2256 9.98633 16.2256 12.2949C16.2256 14.5918 14.4443 16.3731 12.1592 16.3731ZM12.1592 4.61914C12.6982 4.61914 13.1318 4.17383 13.1318 3.64649V1.11523C13.1318 0.576172 12.6982 0.142578 12.1592 0.142578C11.6201 0.142578 11.1865 0.576172 11.1865 1.11523V3.64649C11.1865 4.17383 11.6201 4.61914 12.1592 4.61914ZM17.5732 6.88086C17.9365 7.25586 18.5693 7.26758 18.9561 6.88086L20.7373 5.07617C21.124 4.70117 21.1123 4.08008 20.7373 3.70508C20.374 3.33008 19.7647 3.33008 19.3779 3.70508L17.5732 5.52149C17.1982 5.89649 17.21 6.50586 17.5732 6.88086ZM19.7998 12.2949C19.7998 12.8223 20.2451 13.2676 20.7725 13.2676H23.3037C23.8311 13.2676 24.2647 12.8223 24.2647 12.2949C24.2647 11.7559 23.8311 11.3223 23.3037 11.3223H20.7725C20.2451 11.3223 19.7998 11.7559 19.7998 12.2949ZM17.5732 17.7207C17.1982 18.0957 17.1982 18.7168 17.5732 19.0918L19.3779 20.8965C19.7647 21.2715 20.374 21.2598 20.7373 20.8848C21.1123 20.5098 21.124 19.8887 20.7373 19.5254L18.9326 17.7207C18.5576 17.3574 17.9482 17.3457 17.5732 17.7207ZM6.74512 17.7207C6.37012 17.3457 5.76075 17.3574 5.38575 17.7207L3.56934 19.5254C3.19434 19.8887 3.19434 20.5098 3.56934 20.8848C3.94434 21.2598 4.55372 21.2715 4.92872 20.8965L6.74512 19.0918C7.12012 18.7168 7.12012 18.0957 6.74512 17.7207Z" fill="black" fill-opacity="0.85"/>
<path d="M6.58105 30.3301C9.95605 30.3301 12.6865 27.5879 12.6865 24.2129C12.6865 22.4317 11.96 20.8731 10.5537 19.6074C10.3076 19.3731 10.249 19.2442 10.249 18.8926L10.2608 8.29883C10.2608 5.91992 8.76074 4.29102 6.58105 4.29102C4.37793 4.29102 2.86621 5.91992 2.86621 8.29883L2.87793 18.8926C2.87793 19.2442 2.83105 19.3731 2.57324 19.6074C1.17871 20.8731 0.44043 22.4317 0.44043 24.2129C0.44043 27.5879 3.18261 30.3301 6.58105 30.3301Z" fill="white"/>
<path d="M6.58105 30.3301C9.95605 30.3301 12.6865 27.5879 12.6865 24.2129C12.6865 22.4317 11.96 20.8731 10.5537 19.6074C10.3076 19.3731 10.249 19.2442 10.249 18.8926L10.2608 8.29883C10.2608 5.91992 8.76074 4.29102 6.58105 4.29102C4.37793 4.29102 2.86621 5.91992 2.86621 8.29883L2.87793 18.8926C2.87793 19.2442 2.83105 19.3731 2.57324 19.6074C1.17871 20.8731 0.44043 22.4317 0.44043 24.2129C0.44043 27.5879 3.18261 30.3301 6.58105 30.3301ZM6.58105 28.6309C4.13183 28.6309 2.16308 26.6387 2.16308 24.2129C2.16308 22.7481 2.85449 21.4238 4.09668 20.5918C4.45996 20.3457 4.60058 20.1231 4.60058 19.6426V8.36914C4.60058 6.96289 5.40918 6.01367 6.58105 6.01367C7.72949 6.01367 8.53808 6.96289 8.53808 8.36914V19.6426C8.53808 20.1231 8.67871 20.3457 9.04199 20.5918C10.2842 21.4238 10.9756 22.7481 10.9756 24.2129C10.9756 26.6387 8.99511 28.6309 6.58105 28.6309Z" fill="black" fill-opacity="0.85"/>
<path d="M6.56933 27.0488C8.13965 27.0488 9.40527 25.7715 9.40527 24.2012C9.40527 23.0996 8.78418 22.1973 7.88183 21.7051C7.50683 21.5059 7.37793 21.3653 7.37793 20.791V9.36523C7.37793 8.80273 7.01465 8.43945 6.56933 8.43945C6.1123 8.43945 5.76074 8.80273 5.76074 9.36523V20.791C5.76074 21.3653 5.63183 21.5059 5.25683 21.7051C4.35449 22.1973 3.7334 23.0996 3.7334 24.2012C3.7334 25.7832 4.99902 27.0488 6.56933 27.0488Z" fill="black" fill-opacity="0.85"/>
</g>
<defs>
<clipPath id="clip0_2207_4774">
<rect width="24.2227" height="34.3477" fill="white" transform="translate(0.0419922 0.142578)"/>
</clipPath>
</defs>
</svg>
