<svg width="27" height="27" viewBox="0 0 27 27" fill="none" xmlns="http://www.w3.org/2000/svg">
<g clip-path="url(#clip0_2207_16060)">
<path d="M13.2457 24.6672C13.5504 24.6672 13.8434 24.632 14.1598 24.6086L14.8277 25.8976C14.9684 26.1554 15.2145 26.2961 15.5426 26.2492C15.8356 26.1906 16.0348 25.9797 16.0816 25.6633L16.2809 24.2453C16.8668 24.0929 17.441 23.8703 17.9918 23.6242L19.0465 24.5734C19.2692 24.7843 19.5504 24.8312 19.8434 24.6672C20.1012 24.5265 20.2066 24.2453 20.1481 23.9406L19.8551 22.5343C20.3473 22.1945 20.8277 21.8078 21.2613 21.3742L22.5621 21.925C22.8551 22.0539 23.1363 21.9836 23.359 21.714C23.5582 21.5031 23.5699 21.1984 23.4059 20.9406L22.6442 19.7218C22.9957 19.2297 23.277 18.7023 23.5465 18.1398L24.9879 18.2101C25.2926 18.2218 25.5387 18.0578 25.6442 17.7648C25.7379 17.4718 25.6559 17.1906 25.4098 17.0031L24.2848 16.1125C24.4371 15.55 24.5543 14.9406 24.6129 14.3078L25.9606 13.8859C26.2652 13.7804 26.441 13.5578 26.441 13.2414C26.441 12.9367 26.2652 12.7023 25.9606 12.6086L24.6129 12.175C24.5543 11.5422 24.4371 10.9562 24.2848 10.382L25.4098 9.47971C25.6442 9.30393 25.7379 9.03439 25.6442 8.74143C25.5387 8.44846 25.2926 8.28439 24.9879 8.29611L23.5465 8.35471C23.277 7.79221 22.9957 7.26486 22.6442 6.77268L23.4059 5.55393C23.5699 5.30783 23.5465 5.00314 23.359 4.79221C23.1363 4.52268 22.8551 4.46408 22.5621 4.58127L21.2613 5.10861C20.8277 4.69846 20.3473 4.30002 19.8551 3.96018L20.1481 2.56564C20.2184 2.24924 20.1012 1.96799 19.8434 1.82736C19.5504 1.67502 19.2692 1.69846 19.0465 1.93283L17.9918 2.85861C17.441 2.61252 16.8668 2.4133 16.2809 2.24924L16.0816 0.831267C16.0348 0.526579 15.8238 0.303923 15.5309 0.257048C15.2145 0.210173 14.9566 0.339079 14.8277 0.596892L14.1598 1.88596C13.8434 1.86252 13.5504 1.83908 13.2457 1.83908C12.9293 1.83908 12.6481 1.86252 12.3316 1.88596L11.652 0.596892C11.5231 0.339079 11.2652 0.210173 10.9488 0.257048C10.6559 0.303923 10.4449 0.526579 10.4098 0.831267L10.1988 2.23752C9.61292 2.4133 9.05042 2.61252 8.48792 2.85861L7.43323 1.93283C7.21058 1.69846 6.92933 1.67502 6.63635 1.82736C6.37853 1.96799 6.26135 2.24924 6.33167 2.56564L6.62464 3.96018C6.14417 4.30002 5.65198 4.69846 5.21839 5.10861L3.9176 4.58127C3.62463 4.46408 3.35511 4.52268 3.13245 4.79221C2.93323 5.00314 2.9215 5.30783 3.07385 5.54221L3.83558 6.77268C3.49573 7.26486 3.20276 7.79221 2.93323 8.35471L1.50354 8.29611C1.19886 8.28439 0.94104 8.44846 0.835571 8.74143C0.741821 9.03439 0.835571 9.29221 1.06995 9.47971L2.19495 10.382C2.04261 10.9562 1.92542 11.5422 1.89026 12.175L0.519165 12.6086C0.214477 12.7023 0.050415 12.925 0.050415 13.2414C0.050415 13.5578 0.214477 13.7804 0.519165 13.8859L1.89026 14.3195C1.92542 14.9406 2.04261 15.55 2.19495 16.1125L1.06995 17.0031C0.835571 17.1906 0.75354 17.4718 0.835571 17.7648C0.94104 18.0578 1.19886 18.2218 1.50354 18.2101L2.93323 18.1398C3.20276 18.7023 3.49573 19.2297 3.83558 19.7218L3.07385 20.9406C2.90979 21.1984 2.93323 21.5031 3.13245 21.714C3.35511 21.9836 3.62463 22.0539 3.9176 21.925L5.21839 21.3742C5.65198 21.8078 6.14417 22.1945 6.62464 22.5343L6.33167 23.9406C6.27308 24.2453 6.37853 24.5265 6.63635 24.6672C6.92933 24.8312 7.21058 24.7843 7.43323 24.5734L8.48792 23.6242C9.05042 23.8703 9.61292 24.0929 10.1988 24.2453L10.4098 25.6633C10.4449 25.9797 10.6559 26.1906 10.9488 26.2492C11.2652 26.2961 11.5113 26.1554 11.652 25.8976L12.3316 24.6086C12.6363 24.632 12.9293 24.6672 13.2457 24.6672ZM13.2457 22.8859C7.87854 22.8859 3.7301 18.6086 3.7301 13.2531C3.7301 7.89768 7.87854 3.62033 13.2457 3.62033C18.6129 3.62033 22.7613 7.89768 22.7613 13.2531C22.7613 18.6086 18.6129 22.8859 13.2457 22.8859Z" fill="black" fill-opacity="0.85"/>
<path d="M12.7887 19.5341C14.2887 19.5341 15.484 18.3388 15.484 16.8271C15.484 15.7841 14.8981 14.9287 14.0426 14.4599C13.7731 14.3193 13.6676 14.1435 13.6676 13.7099V8.04981C13.6676 7.56934 13.2809 7.1709 12.7887 7.1709C12.3082 7.1709 11.9215 7.56934 11.9215 8.04981V13.7099C11.9215 14.1435 11.8277 14.3193 11.5465 14.4599C10.691 14.9287 10.1051 15.7841 10.1051 16.8271C10.1051 18.3388 11.3004 19.5341 12.7887 19.5341ZM15.6129 9.6084H17.7574C18.0738 9.6084 18.3434 9.35059 18.3434 9.02247C18.3434 8.70606 18.0738 8.44825 17.7574 8.44825H15.6129C15.2965 8.44825 15.0387 8.70606 15.0387 9.02247C15.0387 9.35059 15.2965 9.6084 15.6129 9.6084ZM15.6129 11.6826H17.7574C18.0738 11.6826 18.3434 11.4131 18.3434 11.0966C18.3434 10.7802 18.0738 10.5224 17.7574 10.5224H15.6129C15.2965 10.5224 15.0387 10.7802 15.0387 11.0966C15.0387 11.4131 15.2965 11.6826 15.6129 11.6826ZM15.6129 13.7685H17.7574C18.0738 13.7685 18.3434 13.499 18.3434 13.1709C18.3434 12.8662 18.0738 12.6084 17.7574 12.6084H15.6129C15.2965 12.6084 15.0387 12.8662 15.0387 13.1709C15.0387 13.499 15.2965 13.7685 15.6129 13.7685Z" fill="black" fill-opacity="0.85"/>
</g>
<defs>
<clipPath id="clip0_2207_16060">
<rect width="26.3906" height="26.1155" fill="white" transform="translate(0.050415 0.142578)"/>
</clipPath>
</defs>
</svg>
