<svg width="24" height="29" viewBox="0 0 24 29" fill="none" xmlns="http://www.w3.org/2000/svg">
<g id="thermometer.snowflake" clip-path="url(#clip0_2124_12854)">
<g id="Group">
<path id="Vector" d="M22.8281 12.9375L21.2344 12.0234L22.6523 11.2031C22.957 11.0273 23.0742 10.6758 22.9102 10.3828C22.7344 10.0664 22.3711 10.0195 22.043 10.207L20.0508 11.3438L16.5586 9.36328L20.0859 7.37109L22.0781 8.51953C22.3945 8.70703 22.7461 8.64844 22.9453 8.34375C23.0977 8.03906 22.9805 7.6875 22.6875 7.52344L21.2695 6.70312L22.8398 5.8125C23.2031 5.60156 23.332 5.23828 23.1328 4.89844C22.957 4.57031 22.5586 4.5 22.2422 4.6875L20.6484 5.61328V3.99609C20.6484 3.63281 20.4023 3.36328 20.0742 3.36328C19.6992 3.36328 19.4766 3.63281 19.4766 4.03125L19.4648 6.30469L15.9727 8.35547L16.0078 4.27734L17.9883 3.12891C18.3164 2.92969 18.4453 2.60156 18.2695 2.28516C18.0938 1.99219 17.7422 1.92188 17.4375 2.09766L16.0195 2.91797L16.0312 1.13672C16.0312 0.738281 15.7852 0.421875 15.3984 0.421875C15 0.421875 14.7656 0.738281 14.7656 1.13672L14.7773 2.91797L13.3594 2.09766C13.0547 1.92188 12.6914 1.99219 12.5273 2.28516C12.3516 2.60156 12.4805 2.92969 12.8086 3.12891L14.7891 4.27734L14.8242 8.35547L11.3203 6.30469L11.3086 4.03125C11.3086 3.63281 11.0977 3.36328 10.7227 3.36328C10.3945 3.36328 10.1484 3.63281 10.1484 3.99609V5.61328L8.55471 4.6875C8.2383 4.5 7.83986 4.57031 7.66408 4.89844C7.46486 5.23828 7.59377 5.60156 7.95705 5.8125L9.52736 6.70312L8.1094 7.52344C7.81643 7.6875 7.68752 8.03906 7.85158 8.34375C8.0508 8.64844 8.40236 8.70703 8.71877 8.51953L10.7109 7.37109L14.2266 9.36328L10.7461 11.3438L8.75393 10.207C8.4258 10.0195 8.06252 10.0664 7.88674 10.3828C7.72268 10.6758 7.83986 11.0273 8.14455 11.2031L9.56252 12.0234L7.96877 12.9375C7.61721 13.125 7.46486 13.5 7.66408 13.8398C7.85158 14.1797 8.25002 14.2266 8.60158 14.0273L10.1719 13.1016L10.1836 14.7305C10.1836 15.0586 10.4297 15.3516 10.7578 15.3516C11.1211 15.3398 11.3438 15.0586 11.3438 14.6953V12.4102L14.8242 10.3711L14.7891 14.4258L12.8203 15.5742C12.4922 15.7734 12.3516 16.1016 12.5391 16.418C12.7031 16.7109 13.0664 16.7812 13.3711 16.6055L14.7773 15.7969L14.7656 17.5898C14.7656 17.9883 15 18.3047 15.3984 18.3047C15.7852 18.3047 16.0312 17.9883 16.0312 17.5898L16.0195 15.7969L17.4258 16.6055C17.7305 16.7812 18.082 16.7109 18.2578 16.418C18.4453 16.1016 18.3047 15.7734 17.9766 15.5742L16.0078 14.4258L15.9727 10.3711L19.4414 12.4102V14.6953C19.4414 15.0586 19.6758 15.3398 20.0391 15.3516C20.3672 15.3516 20.6133 15.0586 20.6133 14.7305L20.625 13.1016L22.1953 14.0273C22.5469 14.2266 22.9336 14.1797 23.1328 13.8398C23.332 13.5 23.1797 13.125 22.8281 12.9375Z" fill="black" fill-opacity="0.85"/>
<path id="Vector_2" d="M7.5 28.7695C11.625 28.7695 14.9766 25.4062 14.9766 21.2812C14.9766 19.1836 14.1328 17.3203 12.5391 15.8203L12.5508 5.36719C12.5508 2.25 10.4531 0 7.5 0C4.52344 0 2.42578 2.25 2.42578 5.36719L2.4375 15.8203C0.84375 17.3203 0 19.1836 0 21.2812C0 25.4062 3.35156 28.7695 7.5 28.7695Z" fill="white"/>
<path id="Vector_3" d="M7.5 27.3984C10.875 27.3984 13.6055 24.6562 13.6055 21.2812C13.6055 19.5 12.8789 17.9414 11.4727 16.6758C11.2266 16.4531 11.168 16.3125 11.168 15.9609L11.1797 5.36718C11.1797 2.98827 9.67969 1.35938 7.5 1.35938C5.29688 1.35938 3.78516 2.98827 3.78516 5.36718L3.79688 15.9609C3.79688 16.3125 3.74999 16.4531 3.49218 16.6758C2.09765 17.9414 1.35938 19.5 1.35938 21.2812C1.35938 24.6562 4.10156 27.3984 7.5 27.3984ZM7.5 25.6992C5.05078 25.6992 3.08203 23.707 3.08203 21.2812C3.08203 19.8164 3.77344 18.4922 5.01562 17.6602C5.37891 17.4141 5.51952 17.1914 5.51952 16.7109V5.4375C5.51952 4.03125 6.32812 3.08203 7.5 3.08203C8.64844 3.08203 9.45703 4.03125 9.45703 5.4375V16.7109C9.45703 17.1914 9.59766 17.4141 9.96094 17.6602C11.2031 18.4922 11.8945 19.8164 11.8945 21.2812C11.8945 23.707 9.91405 25.6992 7.5 25.6992Z" fill="black" fill-opacity="0.85"/>
<path id="Vector_4" d="M7.48828 24.1172C9.05859 24.1172 10.3242 22.8516 10.3242 21.2695C10.3242 20.168 9.70312 19.2656 8.80078 18.7734C8.42578 18.5742 8.29688 18.4336 8.29688 17.8594V15.5156C8.29688 14.9531 7.93359 14.5898 7.48828 14.5898C7.03125 14.5898 6.67969 14.9531 6.67969 15.5156V17.8594C6.67969 18.4336 6.55078 18.5742 6.17578 18.7734C5.27344 19.2656 4.65234 20.168 4.65234 21.2695C4.65234 22.8516 5.91797 24.1172 7.48828 24.1172Z" fill="black" fill-opacity="0.85"/>
</g>
</g>
<defs>
<clipPath id="clip0_2124_12854">
<rect width="23.2263" height="28.793" fill="white"/>
</clipPath>
</defs>
</svg>
