<svg width="24" height="24" viewBox="0 0 24 24" fill="none" xmlns="http://www.w3.org/2000/svg">
<g id="thermometer.sun.circle" clip-path="url(#clip0_2124_12844)">
<g id="Group">
<path id="Vector" d="M11.9531 23.9062C18.4922 23.9062 23.9062 18.4805 23.9062 11.9531C23.9062 5.41406 18.4805 0 11.9414 0C5.41406 0 0 5.41406 0 11.9531C0 18.4805 5.42578 23.9062 11.9531 23.9062ZM11.9531 21.9141C6.42188 21.9141 2.00391 17.4844 2.00391 11.9531C2.00391 6.42188 6.41016 1.99219 11.9414 1.99219C17.4727 1.99219 21.9141 6.42188 21.9141 11.9531C21.9141 17.4844 17.4844 21.9141 11.9531 21.9141Z" fill="black" fill-opacity="0.85"/>
<path id="Vector_2" d="M9.76172 19.7344C11.5664 19.7344 13.0195 18.2812 13.0195 16.4883C13.0195 15.5391 12.6211 14.6953 11.8711 14.0273C11.7539 13.9219 11.7305 13.8516 11.7305 13.6758L11.7422 8.07422C11.7422 6.79688 10.9336 5.91797 9.76172 5.91797C8.57812 5.91797 7.78125 6.79688 7.78125 8.07422V13.6758C7.78125 13.8516 7.75781 13.9219 7.61719 14.0273C6.87891 14.6953 6.49219 15.5391 6.49219 16.4883C6.49219 18.2812 7.94531 19.7344 9.76172 19.7344ZM9.76172 18.7852C8.47266 18.7852 7.46484 17.7656 7.46484 16.4883C7.46484 15.7148 7.81641 15.0234 8.46094 14.5898C8.67188 14.4609 8.74219 14.332 8.74219 14.0625V8.10938C8.74219 7.37109 9.14062 6.90234 9.76172 6.90234C10.3594 6.90234 10.7578 7.37109 10.7578 8.10938V14.0625C10.7578 14.332 10.8281 14.4609 11.0391 14.5898C11.6836 15.0234 12.0469 15.7148 12.0469 16.4883C12.0469 17.7656 11.0156 18.7852 9.76172 18.7852ZM9.75 18.0117C10.6055 18.0117 11.2852 17.3203 11.2852 16.4766C11.2852 15.8906 10.9453 15.3984 10.4531 15.1289C10.2656 15.0352 10.207 14.9531 10.207 14.6719V8.63672C10.207 8.32031 10.0078 8.12109 9.75 8.12109C9.49219 8.12109 9.30469 8.32031 9.30469 8.63672V14.6719C9.30469 14.9531 9.24609 15.0352 9.03516 15.1289C8.56641 15.3984 8.22656 15.8906 8.22656 16.4766C8.22656 17.332 8.90625 18.0117 9.75 18.0117ZM12.7031 6.23438C13.0547 6.23438 13.3125 5.94141 13.3125 5.625V4.27734C13.3125 3.94922 13.0547 3.67969 12.7031 3.67969C12.3633 3.67969 12.0938 3.94922 12.0938 4.27734V5.625C12.0938 5.95312 12.3633 6.23438 12.7031 6.23438ZM15.5039 7.39453C15.7266 7.62891 16.1367 7.62891 16.3711 7.39453L17.3086 6.44531C17.5312 6.21094 17.543 5.8125 17.2969 5.57812C17.0625 5.34375 16.6875 5.34375 16.4648 5.57812L15.5039 6.53906C15.2578 6.77344 15.2695 7.16016 15.5039 7.39453ZM17.25 10.793H18.5859C18.9258 10.793 19.1953 10.5 19.1953 10.1953C19.1953 9.85547 18.9258 9.57422 18.5859 9.57422H17.25C16.9219 9.57422 16.6523 9.85547 16.6523 10.1953C16.6523 10.5 16.9219 10.793 17.25 10.793ZM16.4648 14.8008C16.6875 15.0234 17.0625 15.0352 17.2969 14.8008C17.543 14.5664 17.543 14.1562 17.3086 13.9453L16.3594 12.9844C16.125 12.75 15.7383 12.75 15.5039 12.9844C15.2695 13.2188 15.2578 13.6172 15.5039 13.8398L16.4648 14.8008ZM12.5977 13.2656C14.3672 13.3242 15.7969 11.9648 15.7969 10.1953C15.7969 8.46094 14.4258 7.08984 12.7031 7.08984C12.6211 7.08984 12.5391 7.08984 12.457 7.11328C12.5625 7.41797 12.6094 7.73438 12.6094 8.07422L12.5977 13.2656Z" fill="black" fill-opacity="0.85"/>
</g>
</g>
<defs>
<clipPath id="clip0_2124_12844">
<rect width="23.9062" height="23.918" fill="white"/>
</clipPath>
</defs>
</svg>
