<svg width="24" height="25" viewBox="0 0 24 25" fill="none" xmlns="http://www.w3.org/2000/svg">
<g clip-path="url(#clip0_2207_4810)">
<path d="M11.993 24.0606C18.5321 24.0606 23.9461 18.6465 23.9461 12.1074C23.9461 5.58008 18.5204 0.154297 11.9813 0.154297C5.45398 0.154297 0.039917 5.58008 0.039917 12.1074C0.039917 18.6465 5.4657 24.0606 11.993 24.0606Z" fill="black" fill-opacity="0.85"/>
<path d="M9.7196 20.1348C7.8446 20.1348 6.3446 18.6348 6.3446 16.7715C6.3446 15.7988 6.74303 14.9199 7.50475 14.2403C7.64538 14.1231 7.66882 14.0528 7.66882 13.8887V8.09961C7.66882 6.78711 8.48914 5.87305 9.7196 5.87305C10.9266 5.87305 11.7587 6.78711 11.7587 8.09961L11.7469 13.8887C11.7469 14.0528 11.7704 14.1231 11.8876 14.2403C12.661 14.9199 13.0711 15.7988 13.0711 16.7715C13.0711 18.6348 11.5711 20.1348 9.7196 20.1348ZM9.7196 19.1387C11.0087 19.1387 12.0751 18.0957 12.0751 16.7715C12.0751 15.9746 11.7001 15.2715 11.0321 14.8262C10.8094 14.6856 10.7391 14.5567 10.7391 14.2754V8.13477C10.7391 7.38477 10.329 6.89258 9.7196 6.89258C9.07507 6.89258 8.66491 7.38477 8.66491 8.13477V14.2754C8.66491 14.5567 8.5946 14.6856 8.37194 14.8262C7.71569 15.2715 7.35241 15.9746 7.35241 16.7715C7.35241 18.0957 8.38367 19.1387 9.7196 19.1387ZM9.70788 18.3418C8.82897 18.3418 8.13757 17.6387 8.13757 16.7598C8.13757 16.1621 8.48914 15.6582 8.9696 15.3887C9.18054 15.2832 9.23913 15.2012 9.23913 14.9082V13.6778C9.23913 13.3496 9.43835 13.1387 9.70788 13.1387C9.96569 13.1387 10.1766 13.3496 10.1766 13.6778V14.9082C10.1766 15.2012 10.2352 15.2832 10.4227 15.3887C10.9266 15.6699 11.2782 16.1621 11.2782 16.7598C11.2782 17.627 10.5868 18.3418 9.70788 18.3418ZM14.3368 14.7559C14.0672 14.7559 13.8797 14.5215 13.8797 14.252V13.3496L13.3758 13.666C13.1649 13.5137 12.8954 13.2207 12.8485 12.9864L13.8915 12.377L13.9149 10.2324L12.661 10.9824V9.95117L13.493 9.49414L12.661 9.02539C12.6493 8.66211 12.6258 8.31055 12.5907 7.95899L13.9149 8.74414L13.8915 6.59961L12.7899 5.95508C12.5672 5.81446 12.4735 5.58008 12.6024 5.35742C12.7196 5.13477 12.9774 5.07617 13.2118 5.2168L13.8797 5.60352V4.73633C13.8797 4.45508 14.0672 4.23242 14.3368 4.23242C14.618 4.23242 14.7938 4.45508 14.7938 4.73633L14.7821 5.60352L15.4618 5.2168C15.6961 5.08789 15.9657 5.12305 16.0829 5.35742C16.1883 5.58008 16.1297 5.81446 15.8719 5.95508L14.7821 6.59961L14.7587 8.74414L16.5985 7.66602L16.6102 6.41211C16.6102 6.13086 16.786 5.93164 17.0438 5.93164C17.2899 5.93164 17.454 6.13086 17.454 6.37696V7.15039L18.2391 6.70508C18.4735 6.56446 18.7547 6.63477 18.8954 6.86914C19.036 7.10352 18.9422 7.36133 18.6961 7.51367L17.9227 7.94727L18.579 8.35742C18.7899 8.48633 18.9071 8.73242 18.7665 8.94336C18.6376 9.17774 18.3797 9.20117 18.1454 9.06055L17.0438 8.45117L15.1805 9.49414L17.0321 10.5254L18.1337 9.9043C18.3563 9.77539 18.6141 9.82227 18.7547 10.0566C18.8719 10.2442 18.7782 10.4903 18.5672 10.6192L17.8993 11.0176L18.6844 11.4864C18.9188 11.627 19.036 11.8731 18.8954 12.1309C18.7547 12.3653 18.4735 12.3887 18.2157 12.2598L17.4422 11.8028L17.4305 12.5879C17.4305 12.834 17.2665 13.0567 17.0204 13.0567C16.7626 13.0449 16.5868 12.8457 16.5868 12.5645V11.3106L14.7587 10.2324L14.7821 12.377L15.8719 13.0098C16.0946 13.1504 16.2001 13.3848 16.0711 13.6309C15.954 13.8418 15.6961 13.8887 15.4618 13.7481L14.7821 13.3614L14.7938 14.252C14.7938 14.5098 14.618 14.7559 14.3368 14.7559Z" fill="white"/>
</g>
<defs>
<clipPath id="clip0_2207_4810">
<rect width="23.9062" height="23.918" fill="white" transform="translate(0.039917 0.142578)"/>
</clipPath>
</defs>
</svg>
