<svg width="24" height="29" viewBox="0 0 24 29" fill="none" xmlns="http://www.w3.org/2000/svg">
<g clip-path="url(#clip0_2207_4798)">
<path d="M22.8638 13.0801L21.2701 12.166L22.688 11.3457C22.9927 11.1699 23.1099 10.8184 22.9459 10.5254C22.7701 10.209 22.4068 10.1621 22.0787 10.3496L20.0865 11.4864L16.5943 9.50586L20.1216 7.51367L22.1138 8.66211C22.4302 8.84961 22.7818 8.79102 22.981 8.48633C23.1334 8.18164 23.0162 7.83008 22.7232 7.66602L21.3052 6.8457L22.8755 5.95508C23.2388 5.74414 23.3677 5.38086 23.1685 5.04102C22.9927 4.71289 22.5943 4.64258 22.2779 4.83008L20.6841 5.75586V4.13867C20.6841 3.77539 20.438 3.50586 20.1099 3.50586C19.7349 3.50586 19.5123 3.77539 19.5123 4.17383L19.5005 6.44727L16.0084 8.49805L16.0435 4.41992L18.024 3.27149C18.3521 3.07227 18.481 2.74414 18.3052 2.42774C18.1295 2.13477 17.7779 2.06446 17.4732 2.24024L16.0552 3.06055L16.0669 1.2793C16.0669 0.880859 15.8209 0.564453 15.4341 0.564453C15.0357 0.564453 14.8013 0.880859 14.8013 1.2793L14.813 3.06055L13.3951 2.24024C13.0904 2.06446 12.7271 2.13477 12.563 2.42774C12.3873 2.74414 12.5162 3.07227 12.8443 3.27149L14.8248 4.41992L14.8599 8.49805L11.356 6.44727L11.3443 4.17383C11.3443 3.77539 11.1334 3.50586 10.7584 3.50586C10.4302 3.50586 10.1841 3.77539 10.1841 4.13867V5.75586L8.59036 4.83008C8.27395 4.64258 7.87551 4.71289 7.69973 5.04102C7.50051 5.38086 7.62942 5.74414 7.9927 5.95508L9.56301 6.8457L8.14505 7.66602C7.85208 7.83008 7.72317 8.18164 7.88723 8.48633C8.08645 8.79102 8.43801 8.84961 8.75442 8.66211L10.7466 7.51367L14.2623 9.50586L10.7818 11.4864L8.78958 10.3496C8.46145 10.1621 8.09817 10.209 7.92239 10.5254C7.75833 10.8184 7.87551 11.1699 8.1802 11.3457L9.59817 12.166L8.00442 13.0801C7.65286 13.2676 7.50051 13.6426 7.69973 13.9824C7.88723 14.3223 8.28567 14.3692 8.63723 14.1699L10.2076 13.2442L10.2193 14.8731C10.2193 15.2012 10.4654 15.4942 10.7935 15.4942C11.1568 15.4824 11.3795 15.2012 11.3795 14.8379V12.5528L14.8599 10.5137L14.8248 14.5684L12.856 15.7168C12.5279 15.916 12.3873 16.2442 12.5748 16.5606C12.7388 16.8535 13.1021 16.9238 13.4068 16.7481L14.813 15.9395L14.8013 17.7324C14.8013 18.1309 15.0357 18.4473 15.4341 18.4473C15.8209 18.4473 16.0669 18.1309 16.0669 17.7324L16.0552 15.9395L17.4615 16.7481C17.7662 16.9238 18.1177 16.8535 18.2935 16.5606C18.481 16.2442 18.3404 15.916 18.0123 15.7168L16.0435 14.5684L16.0084 10.5137L19.4771 12.5528V14.8379C19.4771 15.2012 19.7115 15.4824 20.0748 15.4942C20.4029 15.4942 20.649 15.2012 20.649 14.8731L20.6607 13.2442L22.231 14.1699C22.5826 14.3692 22.9693 14.3223 23.1685 13.9824C23.3677 13.6426 23.2154 13.2676 22.8638 13.0801Z" fill="black" fill-opacity="0.85"/>
<path d="M7.53564 28.9121C11.6606 28.9121 15.0122 25.5488 15.0122 21.4238C15.0122 19.3262 14.1684 17.4629 12.5747 15.9629L12.5864 5.50977C12.5864 2.39258 10.4887 0.142578 7.53564 0.142578C4.55908 0.142578 2.46142 2.39258 2.46142 5.50977L2.47314 15.9629C0.879395 17.4629 0.0356445 19.3262 0.0356445 21.4238C0.0356445 25.5488 3.3872 28.9121 7.53564 28.9121Z" fill="white"/>
<path d="M7.53564 27.541C10.9106 27.541 13.6411 24.7988 13.6411 21.4238C13.6411 19.6426 12.9145 18.084 11.5083 16.8184C11.2622 16.5957 11.2036 16.4551 11.2036 16.1035L11.2153 5.50976C11.2153 3.13085 9.71533 1.50195 7.53564 1.50195C5.33252 1.50195 3.8208 3.13085 3.8208 5.50976L3.83252 16.1035C3.83252 16.4551 3.78564 16.5957 3.52783 16.8184C2.1333 18.084 1.39502 19.6426 1.39502 21.4238C1.39502 24.7988 4.1372 27.541 7.53564 27.541ZM7.53564 25.8418C5.08642 25.8418 3.11767 23.8496 3.11767 21.4238C3.11767 19.959 3.80908 18.6348 5.05126 17.8028C5.41455 17.5567 5.55517 17.334 5.55517 16.8535V5.58007C5.55517 4.17382 6.36376 3.2246 7.53564 3.2246C8.68408 3.2246 9.49267 4.17382 9.49267 5.58007V16.8535C9.49267 17.334 9.6333 17.5567 9.99658 17.8028C11.2387 18.6348 11.9301 19.959 11.9301 21.4238C11.9301 23.8496 9.9497 25.8418 7.53564 25.8418Z" fill="black" fill-opacity="0.85"/>
<path d="M7.52393 24.2598C9.09424 24.2598 10.3598 22.9942 10.3598 21.4121C10.3598 20.3106 9.73877 19.4082 8.83643 18.916C8.46143 18.7168 8.33253 18.5762 8.33253 18.002V15.6582C8.33253 15.0957 7.96924 14.7324 7.52393 14.7324C7.0669 14.7324 6.71534 15.0957 6.71534 15.6582V18.002C6.71534 18.5762 6.58643 18.7168 6.21143 18.916C5.30909 19.4082 4.68799 20.3106 4.68799 21.4121C4.68799 22.9942 5.95362 24.2598 7.52393 24.2598Z" fill="black" fill-opacity="0.85"/>
</g>
<defs>
<clipPath id="clip0_2207_4798">
<rect width="23.2263" height="28.793" fill="white" transform="translate(0.0356445 0.142578)"/>
</clipPath>
</defs>
</svg>
