<svg width="24" height="24" viewBox="0 0 24 24" fill="none" xmlns="http://www.w3.org/2000/svg">
<g id="thermometer.sun.circle.fill" clip-path="url(#clip0_2124_12849)">
<g id="Group">
<path id="Vector" d="M11.9531 23.918C18.4922 23.918 23.9062 18.5039 23.9062 11.9648C23.9062 5.4375 18.4805 0.0117188 11.9414 0.0117188C5.41406 0.0117188 0 5.4375 0 11.9648C0 18.5039 5.42578 23.918 11.9531 23.918Z" fill="black" fill-opacity="0.85"/>
<path id="Vector_2" d="M9.66797 20.0039C7.79297 20.0039 6.29297 18.5039 6.29297 16.6406C6.29297 15.668 6.69141 14.8008 7.45312 14.1094C7.59375 14.0039 7.61719 13.9219 7.61719 13.7578V7.96875C7.61719 6.65625 8.4375 5.74219 9.66797 5.74219C10.875 5.74219 11.707 6.65625 11.707 7.96875L11.6953 13.7578C11.6953 13.9219 11.7188 14.0039 11.8477 14.1094C12.6211 14.8008 13.0312 15.668 13.0312 16.6406C13.0312 18.5039 11.5312 20.0039 9.66797 20.0039ZM9.66797 19.0078C10.957 19.0078 12.0234 17.9648 12.0234 16.6406C12.0234 15.8438 11.6484 15.1523 10.9805 14.6953C10.7578 14.5547 10.6875 14.4258 10.6875 14.1445V8.01562C10.6875 7.26562 10.2773 6.76172 9.66797 6.76172C9.02344 6.76172 8.61328 7.26562 8.61328 8.01562V14.1445C8.61328 14.4258 8.54297 14.5547 8.32031 14.6953C7.66406 15.1523 7.30078 15.8438 7.30078 16.6406C7.30078 17.9648 8.33203 19.0078 9.66797 19.0078ZM9.65625 18.2109C8.78906 18.2109 8.08594 17.5195 8.08594 16.6289C8.08594 16.0312 8.4375 15.5273 8.91797 15.2578C9.14062 15.1523 9.19922 15.082 9.19922 14.7773V8.55469C9.19922 8.22656 9.38672 8.02734 9.65625 8.02734C9.91406 8.02734 10.125 8.22656 10.125 8.55469V14.7773C10.125 15.082 10.1836 15.1523 10.3711 15.2578C10.8867 15.5391 11.2383 16.0312 11.2383 16.6289C11.2383 17.5078 10.5352 18.2109 9.65625 18.2109ZM12.7031 6.08203C12.3516 6.08203 12.0703 5.78906 12.0703 5.44922V4.06641C12.0703 3.73828 12.3516 3.44531 12.7031 3.44531C13.0664 3.44531 13.3359 3.73828 13.3359 4.06641V5.44922C13.3359 5.78906 13.0664 6.08203 12.7031 6.08203ZM15.5859 7.27734C15.3398 7.03125 15.3281 6.63281 15.5859 6.38672L16.5703 5.40234C16.8047 5.15625 17.1914 5.15625 17.4375 5.40234C17.6953 5.64844 17.6836 6.05859 17.4492 6.29297L16.4883 7.27734C16.2422 7.51172 15.8203 7.51172 15.5859 7.27734ZM17.3906 10.793C17.0508 10.793 16.7695 10.4883 16.7695 10.1602C16.7695 9.82031 17.0508 9.51562 17.3906 9.51562H18.7617C19.1133 9.51562 19.3945 9.82031 19.3945 10.1602C19.3945 10.4883 19.1133 10.793 18.7617 10.793H17.3906ZM16.5703 14.918L15.5859 13.9336C15.3281 13.6992 15.3398 13.2891 15.5859 13.0547C15.832 12.8086 16.2305 12.8086 16.4766 13.0547L17.4492 14.0273C17.6953 14.25 17.6953 14.6719 17.4375 14.918C17.1914 15.1523 16.8047 15.1406 16.5703 14.918ZM12.5977 13.3359L12.6094 7.96875C12.6094 7.62891 12.5625 7.30078 12.4453 6.98438C12.5391 6.97266 12.6211 6.96094 12.7031 6.96094C14.4727 6.96094 15.8906 8.39062 15.8906 10.1602C15.8906 11.9883 14.4141 13.3828 12.5977 13.3359Z" fill="white"/>
</g>
</g>
<defs>
<clipPath id="clip0_2124_12849">
<rect width="23.9062" height="23.918" fill="white"/>
</clipPath>
</defs>
</svg>
