<svg width="24" height="25" viewBox="0 0 24 25" fill="none" xmlns="http://www.w3.org/2000/svg">
<g clip-path="url(#clip0_2207_20240)">
<path d="M12.0202 24.0488C18.5593 24.0488 23.9733 18.6231 23.9733 12.0957C23.9733 5.55664 18.571 0.142578 12.0319 0.142578C11.4109 0.142578 11.1062 0.517578 11.1062 1.12695V5.66211C11.1062 6.17774 11.4577 6.57617 11.9616 6.57617C12.4773 6.57617 12.8288 6.17774 12.8288 5.66211V1.10352L12.0085 2.13477C17.5632 2.13477 21.9694 6.56446 21.9694 12.0957C21.9694 17.627 17.5515 22.0567 12.0202 22.0567C6.48902 22.0567 2.04761 17.627 2.05933 12.0957C2.07105 9.62305 2.94995 7.38477 4.42652 5.66211C4.77808 5.20508 4.80152 4.6543 4.4148 4.24414C4.02808 3.83399 3.38355 3.86914 2.94995 4.38477C1.1687 6.4707 0.0671387 9.17774 0.0671387 12.0957C0.0671387 18.6231 5.49292 24.0488 12.0202 24.0488Z" fill="black" fill-opacity="0.85"/>
<path d="M13.8951 13.7834C14.8209 12.8108 14.6334 11.51 13.5201 10.7366L7.32093 6.40058C6.73499 5.99043 6.12561 6.61152 6.53577 7.18574L10.86 13.385C11.6451 14.4983 12.9459 14.6975 13.8951 13.7834Z" fill="black" fill-opacity="0.85"/>
</g>
<defs>
<clipPath id="clip0_2207_20240">
<rect width="23.9062" height="23.918" fill="white" transform="translate(0.0671387 0.142578)"/>
</clipPath>
</defs>
</svg>
