<svg width="24" height="25" viewBox="0 0 24 25" fill="none" xmlns="http://www.w3.org/2000/svg">
<g clip-path="url(#clip0_2207_20245)">
<path d="M12.0224 24.0488C18.5615 24.0488 23.9755 18.6231 23.9755 12.0957C23.9755 5.55664 18.5498 0.142578 12.0107 0.142578C5.4834 0.142578 0.0693359 5.55664 0.0693359 12.0957C0.0693359 18.6231 5.49512 24.0488 12.0224 24.0488ZM12.0224 22.0567C6.49122 22.0567 2.07325 17.627 2.07325 12.0957C2.07325 6.56446 6.4795 2.13477 12.0107 2.13477C17.542 2.13477 21.9834 6.56446 21.9834 12.0957C21.9834 17.627 17.5537 22.0567 12.0224 22.0567Z" fill="black" fill-opacity="0.85"/>
<path d="M12.0224 18.752C15.667 18.752 18.6787 15.7403 18.6787 12.0957C18.6787 8.45116 15.667 5.43945 12.0341 5.43945C11.542 5.43945 11.2959 5.75585 11.2959 6.18945V8.04101C11.2959 8.43945 11.5771 8.76757 11.999 8.76757C12.4091 8.76757 12.7021 8.43945 12.7021 8.04101V7.02148C15.2451 7.33788 17.1318 9.44726 17.1318 12.0957C17.1318 14.9668 14.9052 17.2168 12.0224 17.2168C9.15136 17.2168 6.90136 14.9668 6.90136 12.0957C6.90136 10.8067 7.35839 9.68163 8.12011 8.77929C8.37792 8.46288 8.41308 8.01757 8.10839 7.71288C7.79199 7.38476 7.28808 7.41991 6.97167 7.79491C5.97558 8.94335 5.36621 10.4668 5.36621 12.0957C5.36621 15.7403 8.37792 18.752 12.0224 18.752ZM13.1357 13.1035C13.6982 12.5059 13.5927 11.709 12.9131 11.2403L9.85449 9.18945C9.39745 8.89648 8.91699 9.35351 9.22167 9.81054L11.2841 12.8692C11.7412 13.5606 12.5498 13.666 13.1357 13.1035Z" fill="black" fill-opacity="0.85"/>
</g>
<defs>
<clipPath id="clip0_2207_20245">
<rect width="23.9062" height="23.918" fill="white" transform="translate(0.0693359 0.142578)"/>
</clipPath>
</defs>
</svg>
