<svg width="41" height="22" viewBox="0 0 41 22" fill="none" xmlns="http://www.w3.org/2000/svg">
<g clip-path="url(#clip0_2207_15158)">
<path d="M11.3972 21.7403H29.0457C31.5066 21.7403 32.7254 20.5215 32.7254 18.1074V3.79883C32.7254 1.38477 31.5066 0.166016 29.0457 0.166016H11.3972C8.948 0.166016 7.71753 1.37305 7.71753 3.79883V18.1074C7.71753 20.5332 8.948 21.7403 11.3972 21.7403ZM9.8855 14.6973V7.20899C9.8855 6.82227 10.2019 6.50586 10.5886 6.50586C10.9754 6.50586 11.3035 6.82227 11.3035 7.20899V14.6973C11.3035 15.084 10.9754 15.4004 10.5886 15.4004C10.2019 15.4004 9.8855 15.084 9.8855 14.6973ZM13.4597 19.8535V2.05274H26.9832V19.8535H13.4597ZM29.1511 14.6973V7.20899C29.1511 6.82227 29.4675 6.50586 29.8543 6.50586C30.241 6.50586 30.5691 6.82227 30.5691 7.20899V14.6973C30.5691 15.084 30.241 15.4004 29.8543 15.4004C29.4675 15.4004 29.1511 15.084 29.1511 14.6973Z" fill="black" fill-opacity="0.85"/>
<path d="M0.0651855 13.5487C0.0651855 14.1816 0.58081 14.4511 1.1316 14.1113L5.29175 11.58C5.8191 11.2519 5.80738 10.6308 5.29175 10.3144L1.11988 7.75965C0.569092 7.4198 0.0651855 7.71277 0.0651855 8.33387V13.5487ZM40.366 13.5487V8.33387C40.366 7.71277 39.8621 7.4198 39.3113 7.75965L35.1511 10.3144C34.6238 10.6308 34.6121 11.2519 35.1511 11.58L39.3113 14.1113C39.8621 14.4511 40.366 14.1816 40.366 13.5487Z" fill="black" fill-opacity="0.85"/>
</g>
<defs>
<clipPath id="clip0_2207_15158">
<rect width="40.3008" height="21.5977" fill="white" transform="translate(0.0651855 0.142578)"/>
</clipPath>
</defs>
</svg>
