<svg width="24" height="25" viewBox="0 0 24 25" fill="none" xmlns="http://www.w3.org/2000/svg">
<g clip-path="url(#clip0_2207_12356)">
<path d="M12.0371 24.0606C18.5762 24.0606 23.9902 18.6465 23.9902 12.1074C23.9902 5.58008 18.5645 0.154297 12.0254 0.154297C5.49804 0.154297 0.0839844 5.58008 0.0839844 12.1074C0.0839844 18.6465 5.50976 24.0606 12.0371 24.0606Z" fill="black" fill-opacity="0.85"/>
<path d="M7.9004 5.88477C7.60743 5.88477 7.37305 5.65039 7.37305 5.35742C7.37305 5.07617 7.60743 4.8418 7.9004 4.8418H16.1738C16.4668 4.8418 16.7129 5.07617 16.7129 5.35742C16.7129 5.65039 16.4668 5.88477 16.1738 5.88477H7.9004ZM12.0371 9.4707C10.5606 9.4707 9.29493 9.68164 8.39258 10.0566L8.13477 6.62305H15.9395L15.6817 10.0566C14.791 9.68164 13.5137 9.4707 12.0371 9.4707ZM12.0371 13.3731C9.49415 13.3731 7.61915 12.7051 7.61915 11.7793C7.61915 10.8653 9.49415 10.209 12.0371 10.209C14.5918 10.209 16.4551 10.8653 16.4551 11.7793C16.4551 12.7051 14.6152 13.3731 12.0371 13.3731ZM11.8145 16.3731C9.7168 16.3731 8.09961 15.1778 7.7129 13.1387C8.5918 13.7364 10.1387 14.0879 12.0371 14.0879C13.9473 14.0879 15.4824 13.7364 16.3613 13.1387C15.9629 15.1778 14.3574 16.3731 12.2598 16.3731H11.8145ZM12.0371 20.1817C11.0059 20.1817 9.63477 19.9004 9.03711 19.3145C8.87305 19.1504 8.87305 18.9278 8.93165 18.7051L9.56446 16.6543C10.2324 16.959 11.0293 17.1114 11.791 17.1114H12.2598C13.0449 17.1114 13.8418 16.959 14.5098 16.6309L15.1426 18.7051C15.2012 18.9278 15.2012 19.1504 15.0488 19.3145C14.4395 19.9004 13.0684 20.1817 12.0371 20.1817Z" fill="white"/>
</g>
<defs>
<clipPath id="clip0_2207_12356">
<rect width="23.9062" height="23.918" fill="white" transform="translate(0.0839844 0.142578)"/>
</clipPath>
</defs>
</svg>
