<svg width="18" height="29" viewBox="0 0 18 29" fill="none" xmlns="http://www.w3.org/2000/svg">
<g clip-path="url(#clip0_2207_12343)">
<path d="M1.15899 2.0293H16.6511C17.1668 2.0293 17.5886 1.5957 17.5886 1.08008C17.5886 0.564453 17.1668 0.142578 16.6511 0.142578H1.15899C0.64337 0.142578 0.209776 0.564453 0.209776 1.08008C0.209776 1.5957 0.64337 2.0293 1.15899 2.0293ZM2.09649 10.959L3.97149 10.7598L3.3504 1.58399L1.45196 1.63086L2.09649 10.959ZM13.8269 10.7598L15.7136 10.959L16.3465 1.63086L14.4597 1.58399L13.8269 10.7598ZM8.90508 17.0176C14.1433 17.0176 17.7176 15.4356 17.7176 12.9864C17.7176 10.5371 14.1199 8.95508 8.90508 8.95508C3.69024 8.95508 0.08087 10.5371 0.08087 12.9864C0.08087 15.4356 3.70196 17.0176 8.90508 17.0176ZM8.90508 15.1309C4.86212 15.1309 1.99102 14.1817 1.99102 12.9864C1.99102 11.791 4.86212 10.8418 8.90508 10.8418C12.948 10.8418 15.8191 11.791 15.8191 12.9864C15.8191 14.1817 12.9832 15.1309 8.90508 15.1309ZM8.48321 21.541H9.32696C14.2722 21.541 17.7879 17.9785 17.7176 12.9864H15.8191C15.8894 16.959 13.2293 19.6543 9.32696 19.6543H8.48321C4.56915 19.6543 1.92071 16.9707 1.99102 12.9864H0.08087C0.0105575 17.9903 3.52618 21.541 8.48321 21.541ZM8.92852 28.4551C11.0613 28.4551 13.5926 27.9395 14.7058 26.8262C15.0105 26.5215 15.0222 26.1231 14.9051 25.7012L12.9597 19.3145L11.284 20.2754L13.2293 26.709L13.323 25.5137C12.5613 26.1934 10.7683 26.5684 8.92852 26.5684C7.08868 26.5684 5.28399 26.1934 4.53399 25.5137L4.61602 26.709L6.57305 20.2754L4.89727 19.3145L2.95196 25.7012C2.83477 26.1231 2.84649 26.5215 3.13946 26.8262C4.26446 27.9395 6.78399 28.4551 8.92852 28.4551Z" fill="black" fill-opacity="0.85"/>
</g>
<defs>
<clipPath id="clip0_2207_12343">
<rect width="17.6388" height="28.3477" fill="white" transform="translate(0.079834 0.142578)"/>
</clipPath>
</defs>
</svg>
