<svg width="26" height="26" viewBox="0 0 26 26" fill="none" xmlns="http://www.w3.org/2000/svg">
<g clip-path="url(#clip0_2207_21760)">
<path d="M1.35424 16.8086C1.69408 16.7031 1.85815 16.3515 1.7644 15.9531C1.47143 14.7695 1.29565 13.5156 1.35424 11.875C1.36596 11.4414 1.13158 11.207 0.780021 11.1836C0.32299 11.1484 0.0768964 11.4297 0.0417401 11.7929C-0.0637286 13.1172 0.0417401 14.6992 0.498771 16.3281C0.615958 16.7265 0.990958 16.9257 1.35424 16.8086ZM0.838615 9.82422C1.17846 9.95312 1.61205 9.80078 1.77611 9.35547C3.66283 4.08203 8.17455 1.45703 12.7566 1.45703C14.8426 1.45703 16.4832 1.87891 17.8777 2.67578C18.2762 2.91015 18.7215 2.91015 18.8973 2.52344C19.0848 2.11328 18.8738 1.85547 18.5809 1.66797C16.7996 0.554687 14.9949 0.144531 12.7566 0.144531C7.45971 0.144531 2.65502 2.96875 0.498771 8.71094C0.276115 9.29687 0.498771 9.70703 0.838615 9.82422ZM25.2136 14.0781C25.5886 14.0781 25.8582 13.7734 25.823 13.3633C25.2957 8.59375 23.7254 5.58203 21.0184 3.21484C20.6785 2.91015 20.2684 3.00391 20.069 3.23828C19.8464 3.48437 19.823 3.87109 20.1746 4.1875C22.4832 6.34375 24.159 9.13281 24.5574 13.3867C24.6042 13.7734 24.8386 14.0781 25.2136 14.0781Z" fill="black" fill-opacity="0.85"/>
<path d="M2.7136 20.207C2.93626 20.5117 3.38157 20.5937 3.7097 20.3125C4.55345 19.5976 4.97532 18.4492 4.97532 17.2539C4.97532 15.6367 4.2722 14.8164 4.2722 12.8007C4.2722 8.20703 8.09251 4.38672 12.6862 4.38672C18.2292 4.38672 21.8034 8.92187 21.8151 15.6133C21.8151 18.2265 21.3815 20.0781 20.9479 21.1445C20.7956 21.5078 20.9362 21.8945 21.2409 22.0586C21.569 22.1992 22.0261 22.082 22.1667 21.6953C22.6237 20.4531 23.1276 18.414 23.1276 15.6015C23.1276 8.13672 19.0143 3.07422 12.6862 3.07422C7.36595 3.07422 2.9597 7.49219 2.9597 12.8007C2.9597 14.7226 3.68626 16.0234 3.69798 17.2422C3.69798 18.039 3.40501 18.8007 2.85423 19.2812C2.57298 19.5156 2.5261 19.9375 2.7136 20.207Z" fill="black" fill-opacity="0.85"/>
<path d="M7.98705 16.0351C7.69408 15.2383 7.21361 14.2304 7.21361 12.8711C7.21361 9.75391 9.6394 7.32812 12.7566 7.32812C13.9519 7.32812 14.3269 7.45703 15.3699 7.96094C15.7332 8.125 16.0613 8.01953 16.1902 7.76172C16.366 7.43359 16.2723 7.03515 15.8738 6.80078C15.1004 6.34375 13.9168 6.00391 12.7566 6.00391C8.91283 6.00391 5.8894 9.02734 5.8894 12.8711C5.8894 14.3476 6.28783 15.5429 6.69799 16.539C6.86205 16.9257 7.21361 17.1133 7.63549 16.9375C7.98705 16.7968 8.11596 16.4218 7.98705 16.0351Z" fill="black" fill-opacity="0.85"/>
<path d="M5.47923 22.3867C6.34642 21.9414 7.53001 20.4179 7.85814 19.2109C7.95189 18.8828 7.79954 18.4843 7.43626 18.3672C7.10814 18.25 6.75657 18.4492 6.62767 18.8242C6.31126 19.8554 5.76048 20.6289 4.89329 21.2148C4.47142 21.5078 4.41282 21.8711 4.54173 22.1406C4.68235 22.4336 5.05735 22.5976 5.47923 22.3867ZM17.2097 9.53125C18.3464 11.1836 18.9089 13.4687 18.9089 16.2343C18.9089 19.1875 18.0886 21.9765 16.8112 23.5703C16.6003 23.8515 16.5768 24.25 16.8347 24.5078C17.1159 24.7656 17.5964 24.7539 17.8308 24.4375C19.2604 22.5039 20.1979 19.4336 20.1979 16.1875C20.1979 12.6367 19.4362 10.5273 18.3698 8.82812C18.1237 8.45312 17.7136 8.33594 17.3854 8.51172C17.0456 8.69922 16.9401 9.13281 17.2097 9.53125Z" fill="black" fill-opacity="0.85"/>
<path d="M7.94019 23.9336C9.86206 22.3867 10.9168 19.9257 10.9051 17.1953C10.8934 15.1328 10.1551 13.8554 10.1551 12.7304C10.1551 11.2539 11.198 10.2695 12.7215 10.2695C15.0652 10.2695 15.8269 12.9414 15.8973 16.1054C16.0027 19.7617 14.6785 22.8554 12.9441 24.3789C12.6629 24.6133 12.6043 24.9765 12.7918 25.2695C13.0144 25.5859 13.4715 25.6445 13.7762 25.3633C15.6043 23.6992 17.1512 20.0429 17.1277 16.0117C17.116 12.0742 16.0027 8.95703 12.7215 8.95703C10.5418 8.95703 8.86597 10.4101 8.86597 12.6133C8.86597 13.9375 9.56909 15.5664 9.58081 17.1953C9.59253 19.5156 8.72534 21.6015 7.11987 22.9023C6.80347 23.1601 6.75659 23.5351 6.95581 23.8281C7.20191 24.1679 7.62378 24.2031 7.94019 23.9336Z" fill="black" fill-opacity="0.85"/>
<path d="M10.6824 24.8712C11.6082 24.2032 12.7566 22.668 13.2019 21.168C13.284 20.9102 13.2254 20.4766 12.8504 20.3477C12.4519 20.2071 12.1121 20.4063 12.0066 20.711C11.409 22.2813 10.6707 23.2071 9.88549 23.8165C9.59252 24.0508 9.51049 24.4376 9.70971 24.7423C9.89721 25.0704 10.3543 25.1173 10.6824 24.8712ZM13.8699 18.4376C14.198 16.8555 14.0691 14.8282 13.4949 13.0704C13.3426 12.6368 13.0027 12.4493 12.6394 12.5665C12.2996 12.6837 12.0887 13.0001 12.2176 13.4102C12.7566 15.1094 12.8504 16.7852 12.5809 18.2618C12.5105 18.6134 12.6512 18.9532 13.0613 19.0118C13.4363 19.0821 13.7879 18.8594 13.8699 18.4376Z" fill="black" fill-opacity="0.85"/>
</g>
<defs>
<clipPath id="clip0_2207_21760">
<rect width="25.8219" height="25.418" fill="white" transform="translate(0.00415039 0.144531)"/>
</clipPath>
</defs>
</svg>
