<svg width="24" height="24" viewBox="0 0 24 24" fill="none" xmlns="http://www.w3.org/2000/svg">
<g clip-path="url(#clip0_2207_15783)">
<path d="M0.00634766 11.8398C0.00634766 14.5234 1.02588 16.6562 2.10401 18.332C2.68994 19.2461 3.02979 20.1367 3.02979 20.8164V22.539C3.02979 23.0195 3.43994 23.4414 3.93213 23.4414C4.42432 23.4414 4.84619 23.0195 4.84619 22.539V21.8828H6.31104V22.539C6.31104 23.0195 6.73291 23.4414 7.2251 23.4414C7.71729 23.4414 8.12744 23.0195 8.12744 22.539V21.8828H9.45166V22.539C9.45166 23.0195 9.88526 23.4414 10.3774 23.4414C10.8696 23.4414 11.2797 23.0195 11.2797 22.539V21.8828H12.5571V22.539C12.5571 23.0195 12.979 23.4414 13.4594 23.4414C13.9516 23.4414 14.3852 23.0195 14.3852 22.539V21.8828H15.7094V22.539C15.7094 23.0195 16.1196 23.4414 16.6118 23.4414C17.104 23.4414 17.5258 23.0195 17.5258 22.539V21.8828H18.9907V22.539C18.9907 23.0195 19.4125 23.4414 19.9047 23.4414C20.3969 23.4414 20.8188 23.0195 20.8188 22.539V20.8281C20.8188 20.1953 21.1938 19.2578 21.8501 18.1679C22.8579 16.5273 23.8422 14.4414 23.8422 11.8398C23.8422 8.86328 22.6938 6.35547 21.1118 4.35156C20.4672 3.50781 20.4321 3.28515 20.4321 2.73437V1.05859C20.4321 0.566406 19.9985 0.144531 19.5063 0.144531C19.0141 0.144531 18.604 0.566406 18.604 1.05859V2.86328C18.604 4.1875 18.8032 4.38672 19.5649 5.37109C20.8891 7.08203 21.9555 9.19141 21.9555 11.8398C21.9555 15.0742 20.3032 17.3945 17.8774 18.789H5.95947C3.54541 17.3945 1.89307 15.0742 1.89307 11.8398C1.89307 9.19141 2.95947 7.08203 4.27197 5.37109C5.04541 4.38672 5.24463 4.1875 5.24463 2.86328V1.05859C5.24463 0.566406 4.82276 0.144531 4.34229 0.144531C3.8501 0.144531 3.41651 0.566406 3.41651 1.05859V2.73437C3.41651 3.28515 3.38135 3.50781 2.7251 4.35156C1.15479 6.35547 0.00634766 8.86328 0.00634766 11.8398Z" fill="black" fill-opacity="0.85"/>
<path d="M8.58447 16.75C9.08838 16.75 9.38135 16.3867 9.38135 15.8828V8.2422H10.7993C11.2094 8.2422 11.5258 7.98438 11.5258 7.55079C11.5258 7.12892 11.2329 6.8711 10.7993 6.8711H6.38135C6.00635 6.8711 5.65479 7.08204 5.65479 7.55079C5.65479 7.97266 5.98291 8.2422 6.38135 8.2422H7.79932V15.8828C7.79932 16.3867 8.09229 16.75 8.58447 16.75ZM15.2993 16.8203C16.8344 16.8203 17.7485 15.7422 18.0532 14.6523C18.1352 14.3593 18.1821 14.1367 18.1821 13.9609C18.1821 13.4687 17.8188 13.2226 17.4438 13.2226C17.0454 13.2226 16.811 13.457 16.7407 13.8437C16.5883 14.7109 16.1547 15.4492 15.2758 15.4492C13.9751 15.4492 13.5649 13.6093 13.5649 11.7226C13.5649 9.47266 14.1274 8.04298 15.2641 8.04298C16.0844 8.04298 16.5532 8.72266 16.729 9.62501C16.7993 10.0469 17.0688 10.2812 17.4672 10.2812C17.9243 10.2812 18.1704 9.94142 18.1704 9.56642C18.1704 9.39063 18.1469 9.22657 18.1118 9.05079C17.8422 7.6797 16.6235 6.66016 15.2524 6.66016C12.7915 6.66016 11.9711 9.26173 11.9711 11.7226C11.9711 14.3476 12.8501 16.8203 15.2993 16.8203Z" fill="black" fill-opacity="0.85"/>
</g>
<defs>
<clipPath id="clip0_2207_15783">
<rect width="23.8359" height="23.332" fill="white" transform="translate(0.00634766 0.144531)"/>
</clipPath>
</defs>
</svg>
