<svg width="30" height="19" viewBox="0 0 30 19" fill="none" xmlns="http://www.w3.org/2000/svg">
<g clip-path="url(#clip0_2207_15433)">
<path d="M0.0168457 15.1562C0.0168457 17.5468 1.22388 18.7422 3.64966 18.7422H25.5988C28.0246 18.7422 29.2316 17.5468 29.2316 15.1562V3.73047C29.2316 1.33984 28.0246 0.144531 25.5988 0.144531H6.4856C4.48169 0.144531 3.32154 1.30469 2.72388 3.10937L0.415284 10.1172C0.134034 10.9375 0.0168457 11.6289 0.0168457 12.5547V15.1562ZM11.466 9.23828V5.62891C11.466 4.92578 11.8879 4.51562 12.5793 4.51562H23.4309C24.134 4.51562 24.5441 4.92578 24.5441 5.62891V9.23828C24.5441 9.90625 24.134 10.3164 23.4309 10.3164H12.5793C11.8879 10.3164 11.466 9.90625 11.466 9.23828ZM4.21216 10.3164C3.55591 10.3164 3.20435 9.78906 3.47388 8.95703L4.65747 5.35937C4.82154 4.84375 5.07935 4.51562 5.91138 4.51562H7.24732C7.93873 4.51562 8.3606 4.92578 8.3606 5.62891V9.23828C8.3606 9.90625 7.93873 10.3164 7.24732 10.3164H4.21216Z" fill="black" fill-opacity="0.85"/>
</g>
<defs>
<clipPath id="clip0_2207_15433">
<rect width="29.2148" height="18.5977" fill="white" transform="translate(0.0168457 0.144531)"/>
</clipPath>
</defs>
</svg>
