<svg width="33" height="19" viewBox="0 0 33 19" fill="none" xmlns="http://www.w3.org/2000/svg">
<g clip-path="url(#clip0_2207_15425)">
<path d="M0.0126953 15.1562C0.0126953 17.5468 1.21973 18.7422 3.64551 18.7422H26.2393C30.1299 18.7422 32.1572 16.4687 32.1572 13.7851C32.1572 12.1445 31.4189 10.3633 29.8369 8.80469L25.0439 4.04687C22.0088 1.04688 20.0518 0.144531 16.4658 0.144531H3.64551C1.21973 0.144531 0.0126953 1.33984 0.0126953 3.73047V15.1562ZM12.4111 9.58984V5.27734C12.4111 4.57422 12.8213 4.16406 13.5244 4.16406H16.7354C20.0752 4.16406 21.6455 4.59765 23.3096 6.23828L26.0049 8.92187C26.7432 9.66015 26.3096 10.6679 25.5127 10.6679H13.5244C12.8213 10.6679 12.4111 10.2578 12.4111 9.58984Z" fill="black" fill-opacity="0.85"/>
</g>
<defs>
<clipPath id="clip0_2207_15425">
<rect width="32.1445" height="18.5977" fill="white" transform="translate(0.0126953 0.144531)"/>
</clipPath>
</defs>
</svg>
