<svg width="24" height="25" viewBox="0 0 24 25" fill="none" xmlns="http://www.w3.org/2000/svg">
<g clip-path="url(#clip0_2207_15361)">
<path d="M11.9741 24.0507C18.5132 24.0507 23.9272 18.625 23.9272 12.0976C23.9272 5.55859 18.5015 0.144531 11.9624 0.144531C5.43506 0.144531 0.0209961 5.55859 0.0209961 12.0976C0.0209961 18.625 5.44678 24.0507 11.9741 24.0507ZM11.9741 22.0586C6.44288 22.0586 2.02491 17.6289 2.02491 12.0976C2.02491 6.56641 6.43116 2.13672 11.9624 2.13672C17.4937 2.13672 21.9351 6.56641 21.9351 12.0976C21.9351 17.6289 17.5054 22.0586 11.9741 22.0586Z" fill="black" fill-opacity="0.85"/>
<path d="M8.7749 16.7734H15.1499C16.1694 16.7734 16.7554 16.082 16.7554 15.1093V11.0312C16.7554 9.50782 16.5562 8.01954 16.3218 7.08204C16.0874 6.10938 15.4312 5.39454 14.4351 5.28907C14.0718 5.2422 13.1226 5.16016 11.9624 5.16016C10.8022 5.16016 9.85302 5.2422 9.48974 5.28907C8.49365 5.39454 7.8374 6.10938 7.60302 7.08204C7.36865 8.01954 7.16943 9.50782 7.16943 11.0312V15.1093C7.16943 16.082 7.75537 16.7734 8.7749 16.7734ZM11.9624 13.0117C10.6382 13 9.43115 12.9414 8.82177 12.8711C8.47021 12.8359 8.3413 12.6133 8.3413 12.2851V10.9726C8.3413 9.83595 8.47021 8.89845 8.55224 8.48829C8.61083 8.23048 8.7749 8.0547 9.00927 8.01954C9.6538 7.94923 10.4507 7.90235 11.9624 7.90235C13.4741 7.89063 14.271 7.94923 14.8921 8.01954C15.1499 8.0547 15.314 8.23048 15.3726 8.48829C15.4546 8.89845 15.5835 9.83595 15.5835 10.9726V12.2851C15.5835 12.6133 15.4546 12.8359 15.103 12.8711C14.189 12.9648 12.9819 13.0117 11.9624 13.0117ZM9.31396 15.5781C8.86865 15.5781 8.54052 15.2617 8.54052 14.7929C8.54052 14.3476 8.86865 14.0195 9.31396 14.0195C9.77099 14.0195 10.0991 14.3476 10.0991 14.7929C10.0991 15.2617 9.75927 15.5781 9.31396 15.5781ZM14.5991 15.5898C14.1538 15.5898 13.814 15.25 13.814 14.7929C13.814 14.3476 14.1538 14.0078 14.5991 14.0078C15.0444 14.0078 15.396 14.3476 15.396 14.7929C15.396 15.25 15.0327 15.5898 14.5991 15.5898ZM10.5093 6.94142C10.2983 6.94142 10.1577 6.80079 10.1577 6.58985C10.1577 6.39063 10.2983 6.25001 10.5093 6.25001H13.4155C13.6265 6.25001 13.7788 6.39063 13.7788 6.58985C13.7788 6.80079 13.6265 6.94142 13.4155 6.94142H10.5093ZM8.03661 19.2812H8.35302C8.51708 19.2812 8.61083 19.2226 8.69287 19.0937L10.3101 16.4804H9.22021L7.79052 18.7773C7.63818 19.0234 7.76708 19.2812 8.03661 19.2812ZM8.5288 18.5547H15.396V17.6992H8.5288V18.5547ZM15.5952 19.2812H15.9116C16.1812 19.2812 16.2983 19.0234 16.146 18.7773L14.728 16.4804H13.6382L15.2554 19.0937C15.3374 19.2226 15.4312 19.2812 15.5952 19.2812Z" fill="black" fill-opacity="0.85"/>
</g>
<defs>
<clipPath id="clip0_2207_15361">
<rect width="23.9062" height="23.918" fill="white" transform="translate(0.0209961 0.144531)"/>
</clipPath>
</defs>
</svg>
