<svg width="27" height="27" viewBox="0 0 27 27" fill="none" xmlns="http://www.w3.org/2000/svg">
<g clip-path="url(#clip0_2207_16051)">
<path d="M13.2247 24.6692C13.5294 24.6692 13.8224 24.634 14.1388 24.6106L14.8067 25.8996C14.9474 26.1574 15.1935 26.2981 15.5216 26.2512C15.8146 26.1926 16.0138 25.9817 16.0606 25.6653L16.2599 24.2473C16.8458 24.0949 17.42 23.8723 17.9708 23.6262L19.0255 24.5754C19.2482 24.7863 19.5294 24.8332 19.8224 24.6692C20.0802 24.5285 20.1856 24.2473 20.1271 23.9426L19.8341 22.5363C20.3263 22.1965 20.8067 21.8098 21.2403 21.3762L22.5411 21.927C22.8341 22.0559 23.1153 21.9856 23.338 21.716C23.5372 21.5051 23.5489 21.2004 23.3849 20.9426L22.6232 19.7238C22.9747 19.2317 23.256 18.7043 23.5255 18.1418L24.9669 18.2121C25.2716 18.2238 25.5177 18.0598 25.6232 17.7668C25.7169 17.4738 25.6349 17.1926 25.3888 17.0051L24.2638 16.1145C24.4161 15.552 24.5333 14.9426 24.5919 14.3098L25.9396 13.8879C26.2442 13.7824 26.42 13.5598 26.42 13.2434C26.42 12.9387 26.2442 12.7043 25.9396 12.6106L24.5919 12.177C24.5333 11.5442 24.4161 10.9582 24.2638 10.384L25.3888 9.48166C25.6232 9.30588 25.7169 9.03634 25.6232 8.74338C25.5177 8.45041 25.2716 8.28634 24.9669 8.29806L23.5255 8.35666C23.256 7.79416 22.9747 7.26681 22.6232 6.77463L23.3849 5.55588C23.5489 5.30978 23.5255 5.00509 23.338 4.79416C23.1153 4.52463 22.8341 4.46603 22.5411 4.58322L21.2403 5.11056C20.8067 4.70041 20.3263 4.30197 19.8341 3.96213L20.1271 2.56759C20.1974 2.25119 20.0802 1.96994 19.8224 1.82931C19.5294 1.67697 19.2482 1.70041 19.0255 1.93478L17.9708 2.86056C17.42 2.61447 16.8458 2.41525 16.2599 2.25119L16.0606 0.83322C16.0138 0.528532 15.8028 0.305876 15.5099 0.259001C15.1935 0.212126 14.9356 0.341032 14.8067 0.598845L14.1388 1.88791C13.8224 1.86447 13.5294 1.84103 13.2247 1.84103C12.9083 1.84103 12.6271 1.86447 12.3106 1.88791L11.631 0.598845C11.5021 0.341032 11.2442 0.212126 10.9278 0.259001C10.6349 0.305876 10.4239 0.528532 10.3888 0.83322L10.1778 2.23947C9.59192 2.41525 9.02942 2.61447 8.46692 2.86056L7.41223 1.93478C7.18958 1.70041 6.90833 1.67697 6.61536 1.82931C6.35754 1.96994 6.24036 2.25119 6.31067 2.56759L6.60364 3.96213C6.12317 4.30197 5.63098 4.70041 5.19739 5.11056L3.89661 4.58322C3.60364 4.46603 3.33411 4.52463 3.11145 4.79416C2.91223 5.00509 2.90051 5.30978 3.05286 5.54416L3.81458 6.77463C3.47473 7.26681 3.18176 7.79416 2.91223 8.35666L1.48254 8.29806C1.17786 8.28634 0.920044 8.45041 0.814575 8.74338C0.720825 9.03634 0.814575 9.29416 1.04895 9.48166L2.17395 10.384C2.02161 10.9582 1.90442 11.5442 1.86926 12.177L0.498169 12.6106C0.193481 12.7043 0.0294189 12.927 0.0294189 13.2434C0.0294189 13.5598 0.193481 13.7824 0.498169 13.8879L1.86926 14.3215C1.90442 14.9426 2.02161 15.552 2.17395 16.1145L1.04895 17.0051C0.814575 17.1926 0.732544 17.4738 0.814575 17.7668C0.920044 18.0598 1.17786 18.2238 1.48254 18.2121L2.91223 18.1418C3.18176 18.7043 3.47473 19.2317 3.81458 19.7238L3.05286 20.9426C2.8888 21.2004 2.91223 21.5051 3.11145 21.716C3.33411 21.9856 3.60364 22.0559 3.89661 21.927L5.19739 21.3762C5.63098 21.8098 6.12317 22.1965 6.60364 22.5363L6.31067 23.9426C6.25208 24.2473 6.35754 24.5285 6.61536 24.6692C6.90833 24.8332 7.18958 24.7863 7.41223 24.5754L8.46692 23.6262C9.02942 23.8723 9.59192 24.0949 10.1778 24.2473L10.3888 25.6653C10.4239 25.9817 10.6349 26.1926 10.9278 26.2512C11.2442 26.2981 11.4903 26.1574 11.631 25.8996L12.3106 24.6106C12.6153 24.634 12.9083 24.6692 13.2247 24.6692ZM13.2247 22.8879C7.85754 22.8879 3.70911 18.6106 3.70911 13.2551C3.70911 7.89963 7.85754 3.62228 13.2247 3.62228C18.5919 3.62228 22.7403 7.89963 22.7403 13.2551C22.7403 18.6106 18.5919 22.8879 13.2247 22.8879Z" fill="black" fill-opacity="0.85"/>
</g>
<defs>
<clipPath id="clip0_2207_16051">
<rect width="26.3906" height="26.1155" fill="white" transform="translate(0.0294189 0.144531)"/>
</clipPath>
</defs>
</svg>
