<svg width="24" height="29" viewBox="0 0 24 29" fill="none" xmlns="http://www.w3.org/2000/svg">
<g clip-path="url(#clip0_2207_21910)">
<path d="M2.64074 23.6523H21.379C23.3126 23.6523 24.3204 22.4922 23.8985 20.7343L20.5821 7.28125C20.1602 5.55859 19.0704 4.66797 17.3829 4.66797H6.64856C4.94934 4.66797 3.85949 5.55859 3.43762 7.28125L0.132933 20.7343C-0.288941 22.4922 0.718871 23.6523 2.64074 23.6523ZM12.0274 28.1757C11.4766 28.1757 11.1368 27.8125 11.1368 27.2383V1.08203C11.1368 0.496093 11.4766 0.144531 12.0274 0.144531C12.5665 0.144531 12.9063 0.496093 12.9063 1.08203V27.2383C12.9063 27.8125 12.5665 28.1757 12.0274 28.1757Z" fill="black" fill-opacity="0.85"/>
</g>
<defs>
<clipPath id="clip0_2207_21910">
<rect width="23.9558" height="28.1602" fill="white" transform="translate(0.0378418 0.144531)"/>
</clipPath>
</defs>
</svg>
