<svg width="24" height="29" viewBox="0 0 24 29" fill="none" xmlns="http://www.w3.org/2000/svg">
<g clip-path="url(#clip0_2207_21906)">
<path d="M0.154896 20.6054C-0.313854 22.4804 0.611927 23.6523 2.70958 23.6523H21.2838C23.3931 23.6523 24.3072 22.4804 23.8502 20.6054L20.5924 7.375C20.1588 5.60547 19.1744 4.66797 17.2759 4.66797H6.72911C4.81895 4.66797 3.8463 5.60547 3.40098 7.375L0.154896 20.6054ZM1.93614 20.6054L5.08848 7.62109C5.2877 6.8125 5.76817 6.4375 6.64708 6.4375H17.358C18.2369 6.4375 18.7174 6.8125 18.9166 7.62109L22.0572 20.6054C22.2564 21.3789 21.8697 21.8828 21.108 21.8828H2.88536C2.13536 21.8828 1.74864 21.3789 1.93614 20.6054ZM12.0142 28.1757C12.5533 28.1757 12.8931 27.8125 12.8931 27.2383V1.08203C12.8931 0.496093 12.5533 0.144531 12.0142 0.144531C11.4634 0.144531 11.1236 0.496093 11.1236 1.08203V27.2383C11.1236 27.8125 11.4634 28.1757 12.0142 28.1757Z" fill="black" fill-opacity="0.85"/>
</g>
<defs>
<clipPath id="clip0_2207_21906">
<rect width="23.9296" height="28.1602" fill="white" transform="translate(0.0356445 0.144531)"/>
</clipPath>
</defs>
</svg>
