<svg width="22" height="22" viewBox="0 0 22 22" fill="none" xmlns="http://www.w3.org/2000/svg">
<g clip-path="url(#clip0_2207_282)">
<path d="M3.74073 22H17.9555C20.4165 22 21.6352 20.7929 21.6352 18.3789V4.05859C21.6352 1.64453 20.4165 0.425781 17.9555 0.425781H3.74073C1.29151 0.425781 0.0610352 1.64453 0.0610352 4.05859V18.3789C0.0610352 20.7929 1.29151 22 3.74073 22ZM3.76416 20.1133C2.59229 20.1133 1.94776 19.4922 1.94776 18.2734V4.16406C1.94776 2.94531 2.59229 2.3125 3.76416 2.3125H17.9321C19.0922 2.3125 19.7485 2.94531 19.7485 4.16406V18.2734C19.7485 19.4922 19.0922 20.1133 17.9321 20.1133H3.76416Z" fill="black" fill-opacity="0.85"/>
<path d="M7.83056 18.0976H13.8891C14.6743 18.0976 15.1548 17.664 15.1899 16.8672L15.5883 7.60937H16.5141C16.7954 7.60937 17.0063 7.375 17.018 7.10547C17.0298 6.83594 16.7954 6.60156 16.5141 6.60156H13.7133V5.65234C13.7133 4.69141 13.0571 4.08203 12.0376 4.08203H9.67041C8.63915 4.08203 8.00634 4.69141 8.00634 5.65234V6.60156H5.18212C4.91259 6.60156 4.67822 6.83594 4.67822 7.10547C4.67822 7.375 4.91259 7.60937 5.18212 7.60937H6.14306L6.55322 16.8672C6.57665 17.664 7.03369 18.0976 7.83056 18.0976ZM8.83837 16.2929C8.604 16.2929 8.4165 16.1289 8.4165 15.8945L8.17041 9.05078C8.17041 8.79297 8.33447 8.62891 8.604 8.62891C8.83837 8.62891 9.02587 8.79297 9.02587 9.03906L9.24853 15.8828C9.24853 16.1172 9.10791 16.2929 8.83837 16.2929ZM10.8422 16.2812C10.5844 16.2812 10.4087 16.1172 10.4087 15.8828V9.03906C10.4087 8.79297 10.5727 8.62891 10.8422 8.62891C11.1001 8.62891 11.2758 8.79297 11.2758 9.03906V15.8828C11.2758 16.1172 11.1001 16.2812 10.8422 16.2812ZM12.8344 16.2929C12.5766 16.2929 12.4243 16.1172 12.4243 15.8828L12.6469 9.03906C12.6587 8.79297 12.8344 8.62891 13.0805 8.62891C13.3501 8.62891 13.5024 8.79297 13.5024 9.05078L13.2563 15.8945C13.2563 16.1289 13.0688 16.2929 12.8344 16.2929ZM9.18994 6.60156V5.72265C9.18994 5.41797 9.41259 5.21875 9.729 5.21875H11.9555C12.2719 5.21875 12.4946 5.41797 12.4946 5.72265V6.60156H9.18994Z" fill="black" fill-opacity="0.85"/>
</g>
<defs>
<clipPath id="clip0_2207_282">
<rect width="21.5742" height="21.8555" fill="white" transform="translate(0.0610352 0.144531)"/>
</clipPath>
</defs>
</svg>
