<svg width="24" height="25" viewBox="0 0 24 25" fill="none" xmlns="http://www.w3.org/2000/svg">
<g clip-path="url(#clip0_2207_304)">
<path d="M12.0035 24.0507C18.5426 24.0507 23.9566 18.625 23.9566 12.0976C23.9566 5.55859 18.5309 0.144531 11.9918 0.144531C5.46447 0.144531 0.050415 5.55859 0.050415 12.0976C0.050415 18.625 5.4762 24.0507 12.0035 24.0507ZM12.0035 22.0586C6.4723 22.0586 2.05433 17.6289 2.05433 12.0976C2.05433 6.56641 6.46057 2.13672 11.9918 2.13672C17.5231 2.13672 21.9645 6.56641 21.9645 12.0976C21.9645 17.6289 17.5348 22.0586 12.0035 22.0586Z" fill="black" fill-opacity="0.85"/>
<path d="M8.96839 19H15.027C15.8004 19 16.2926 18.5547 16.3277 17.7695L16.7145 8.50001H17.652C17.9332 8.50001 18.1442 8.27735 18.1559 8.00782C18.1676 7.72657 17.9332 7.50392 17.652 7.50392H14.8395V6.5547C14.8395 5.58204 14.1949 4.97266 13.1637 4.97266H10.7965C9.77698 4.97266 9.14417 5.58204 9.14417 6.5547V7.50392H7.01136C6.74183 7.50392 6.50745 7.72657 6.50745 8.00782C6.50745 8.27735 6.74183 8.50001 7.01136 8.50001H7.28089L7.67933 17.7695C7.71448 18.5547 8.17151 19 8.96839 19ZM9.9762 17.1836C9.74183 17.1836 9.55433 17.0195 9.55433 16.7851L9.30823 9.94142C9.30823 9.69532 9.46058 9.53126 9.74183 9.53126C9.9762 9.53126 10.152 9.6836 10.1637 9.94142L10.3863 16.7851C10.3863 17.0195 10.234 17.1836 9.9762 17.1836ZM11.9684 17.1836C11.7106 17.1836 11.5465 17.0195 11.5465 16.7851V9.94142C11.5465 9.69532 11.7106 9.53126 11.9684 9.53126C12.2379 9.53126 12.4137 9.69532 12.4137 9.94142V16.7851C12.4137 17.0195 12.2379 17.1836 11.9684 17.1836ZM13.9723 17.1836C13.7145 17.1836 13.5621 17.0195 13.5621 16.7851L13.7848 9.94142C13.7848 9.6836 13.9723 9.53126 14.2184 9.53126C14.4879 9.53126 14.6402 9.69532 14.6402 9.94142L14.3942 16.7851C14.3942 17.0195 14.2066 17.1836 13.9723 17.1836ZM10.3277 7.50392V6.61329C10.3277 6.3086 10.5504 6.10938 10.8668 6.10938H13.0934C13.4098 6.10938 13.6324 6.3086 13.6324 6.61329V7.50392H10.3277Z" fill="black" fill-opacity="0.85"/>
<path d="M16.5504 18.7187C17.0777 19.2461 17.9449 19.2578 18.4723 18.7187C19.0113 18.1797 18.9996 17.3476 18.4606 16.8086L7.12855 5.46484C6.57777 4.92578 5.73402 4.92578 5.19496 5.46484C4.6559 5.99219 4.66762 6.85937 5.19496 7.38672L16.5504 18.7187Z" fill="white"/>
<path d="M17.1246 18.1445C17.3238 18.3437 17.6754 18.3437 17.8746 18.1445C18.0856 17.9218 18.0856 17.6054 17.8746 17.3945L6.54264 6.05078C6.3317 5.83984 5.99186 5.83984 5.78092 6.05078C5.56998 6.25 5.5817 6.60156 5.78092 6.80078L17.1246 18.1445Z" fill="black" fill-opacity="0.85"/>
</g>
<defs>
<clipPath id="clip0_2207_304">
<rect width="23.9062" height="23.918" fill="white" transform="translate(0.050415 0.144531)"/>
</clipPath>
</defs>
</svg>
