<svg width="22" height="22" viewBox="0 0 22 22" fill="none" xmlns="http://www.w3.org/2000/svg">
<g clip-path="url(#clip0_2207_314)">
<path d="M3.73633 22H17.9511C20.4121 22 21.6308 20.7929 21.6308 18.3789V4.05859C21.6308 1.64453 20.4121 0.425781 17.9511 0.425781H3.73633C1.28711 0.425781 0.0566406 1.64453 0.0566406 4.05859V18.3789C0.0566406 20.7929 1.28711 22 3.73633 22ZM3.75976 20.1133C2.58789 20.1133 1.94336 19.4922 1.94336 18.2734V4.16406C1.94336 2.94531 2.58789 2.3125 3.75976 2.3125H17.9277C19.0878 2.3125 19.7441 2.94531 19.7441 4.16406V18.2734C19.7441 19.4922 19.0878 20.1133 17.9277 20.1133H3.75976Z" fill="black" fill-opacity="0.85"/>
<path d="M7.82617 18.0976H13.8847C14.6582 18.0976 15.1504 17.664 15.1738 16.8672L15.5722 7.60937H16.498C16.7793 7.60937 17.0019 7.375 17.0136 7.10547C17.0254 6.83594 16.7793 6.60156 16.498 6.60156H13.6972V5.65234C13.6972 4.69141 13.041 4.08203 12.0214 4.08203H9.6543C8.62305 4.08203 7.99023 4.69141 7.99023 5.65234V6.60156H5.64648C5.37695 6.60156 5.1543 6.83594 5.1543 7.10547C5.1543 7.375 5.37695 7.60937 5.64648 7.60937H6.12695L6.53711 16.8672C6.57226 17.664 7.0293 18.0976 7.82617 18.0976ZM8.82226 16.2929C8.58789 16.2929 8.41211 16.1289 8.40039 15.8945L8.16602 9.05078C8.1543 8.79297 8.31836 8.62891 8.59961 8.62891C8.83398 8.62891 9.00976 8.79297 9.00976 9.03906L9.23242 15.8828C9.24414 16.1172 9.0918 16.2929 8.82226 16.2929ZM10.8261 16.2812C10.5683 16.2812 10.4043 16.1172 10.4043 15.8828V9.03906C10.4043 8.79297 10.5566 8.62891 10.8261 8.62891C11.0957 8.62891 11.2714 8.79297 11.2714 9.03906V15.8828C11.2714 16.1172 11.0839 16.2812 10.8261 16.2812ZM12.83 16.2929C12.5605 16.2929 12.4082 16.1172 12.4199 15.8828L12.6425 9.03906C12.6425 8.79297 12.8183 8.62891 13.0761 8.62891C13.3339 8.62891 13.498 8.79297 13.4863 9.05078L13.2519 15.8945C13.2402 16.1289 13.0644 16.2929 12.83 16.2929ZM9.17383 6.60156V5.72265C9.17383 5.41797 9.39648 5.21875 9.71289 5.21875H11.9511C12.2675 5.21875 12.4902 5.41797 12.4902 5.72265V6.60156H9.17383Z" fill="black" fill-opacity="0.85"/>
<path d="M15.3379 17.8281C15.8653 18.3554 16.7325 18.3672 17.2598 17.8281C17.7989 17.289 17.7872 16.457 17.2481 15.9062L5.91603 4.57422C5.36524 4.02344 4.52149 4.02344 3.98243 4.57422C3.44337 5.08984 3.45509 5.96875 3.98243 6.48437L15.3379 17.8281Z" fill="white"/>
<path d="M15.9122 17.2422C16.1231 17.4414 16.4629 17.4531 16.6622 17.2422C16.8848 17.0312 16.8848 16.7031 16.6622 16.4922L5.33011 5.14844C5.11917 4.9375 4.77933 4.9375 4.56839 5.14844C4.35745 5.35937 4.36917 5.69922 4.56839 5.89844L15.9122 17.2422Z" fill="black" fill-opacity="0.85"/>
</g>
<defs>
<clipPath id="clip0_2207_314">
<rect width="21.5742" height="21.8555" fill="white" transform="translate(0.0566406 0.144531)"/>
</clipPath>
</defs>
</svg>
