<svg width="26" height="29" viewBox="0 0 26 29" fill="none" xmlns="http://www.w3.org/2000/svg">
<g clip-path="url(#clip0_2207_292)">
<path d="M7.62158 5.5H9.48486V2.99219C9.48486 2.32422 9.95361 1.89062 10.6567 1.89062H14.852C15.5551 1.89062 16.0239 2.32422 16.0239 2.99219V5.5H17.8872V2.875C17.8872 1.17578 16.7856 0.144531 14.9809 0.144531H10.5278C8.73486 0.144531 7.62158 1.17578 7.62158 2.875V5.5ZM3.61377 6.4375H23.2426C23.7231 6.4375 24.1098 6.02734 24.1098 5.54687C24.1098 5.06641 23.7231 4.66797 23.2426 4.66797H3.61377C3.14502 4.66797 2.73486 5.06641 2.73486 5.54687C2.73486 6.03906 3.14502 6.4375 3.61377 6.4375ZM7.39893 26.2422H18.145C19.8208 26.2422 20.9458 25.1523 21.0278 23.4765L21.8481 6.21484H19.9614L19.1762 23.2773C19.1528 23.9804 18.6489 24.4726 17.9575 24.4726H7.56299C6.89502 24.4726 6.39111 23.9687 6.35596 23.2773L5.52393 6.21484H3.6958L4.51611 23.4883C4.59814 25.164 5.69971 26.2422 7.39893 26.2422ZM9.29736 22.4687C9.74268 22.4687 10.0356 22.1875 10.0239 21.7773L9.67236 9.23828C9.66064 8.82812 9.35596 8.55859 8.93408 8.55859C8.48877 8.55859 8.1958 8.83984 8.20752 9.25L8.55908 21.7773C8.5708 22.1992 8.86377 22.4687 9.29736 22.4687ZM12.7661 22.4687C13.2114 22.4687 13.5278 22.1875 13.5278 21.7773V9.25C13.5278 8.83984 13.2114 8.55859 12.7661 8.55859C12.3208 8.55859 12.0161 8.83984 12.0161 9.25V21.7773C12.0161 22.1875 12.3208 22.4687 12.7661 22.4687ZM16.2465 22.4687C16.6684 22.4687 16.9614 22.1992 16.9731 21.7773L17.3247 9.25C17.3364 8.83984 17.0434 8.55859 16.5981 8.55859C16.1762 8.55859 15.8833 8.82812 15.8715 9.25L15.52 21.7773C15.5083 22.1875 15.8012 22.4687 16.2465 22.4687Z" fill="black" fill-opacity="0.85"/>
<path d="M21.602 25.2812C22.5044 26.1836 23.9575 26.1718 24.8247 25.2578C25.6919 24.3789 25.6919 22.9492 24.8129 22.0703L3.93018 1.17578C3.03955 0.296875 1.59814 0.296875 0.70752 1.17578C-0.171387 2.05469 -0.171387 3.51953 0.70752 4.39844L21.602 25.2812Z" fill="white"/>
<path d="M22.5629 24.3203C22.9262 24.6718 23.5004 24.6718 23.8403 24.3203C24.1919 23.957 24.2036 23.3945 23.8403 23.0429L2.96924 2.14844C2.61768 1.79687 2.03174 1.79687 1.68018 2.14844C1.34033 2.48828 1.34033 3.08594 1.68018 3.42578L22.5629 24.3203Z" fill="black" fill-opacity="0.85"/>
</g>
<defs>
<clipPath id="clip0_2207_292">
<rect width="25.4253" height="28.1836" fill="white" transform="translate(0.0483398 0.144531)"/>
</clipPath>
</defs>
</svg>
