<svg width="24" height="25" viewBox="0 0 24 25" fill="none" xmlns="http://www.w3.org/2000/svg">
<g clip-path="url(#clip0_2207_490)">
<path d="M12.0329 24.0507C18.572 24.0507 23.986 18.625 23.986 12.0976C23.986 5.55859 18.5603 0.144531 12.0212 0.144531C5.49389 0.144531 0.079834 5.55859 0.079834 12.0976C0.079834 18.625 5.50561 24.0507 12.0329 24.0507ZM12.0329 22.0586C6.50171 22.0586 2.08374 17.6289 2.08374 12.0976C2.08374 6.56641 6.48999 2.13672 12.0212 2.13672C17.5525 2.13672 21.9939 6.56641 21.9939 12.0976C21.9939 17.6289 17.5642 22.0586 12.0329 22.0586Z" fill="black" fill-opacity="0.85"/>
<path d="M6.99389 16.832H17.072C18.2907 16.832 18.9001 16.2226 18.9001 15.0273V11.8281C18.9001 11.289 18.8064 11.0547 18.5603 10.7148L16.4978 7.92578C15.8181 7 15.4196 6.77734 14.4001 6.77734H9.66577C8.64624 6.77734 8.23608 7 7.56811 7.92578L5.50561 10.7148C5.25952 11.0547 5.16577 11.289 5.16577 11.8281V15.0273C5.16577 16.2226 5.78686 16.832 6.99389 16.832ZM6.80639 11.4414C6.63061 11.4414 6.59545 11.289 6.67749 11.1718L8.70483 8.40625C8.93921 8.07812 9.1853 7.94922 9.59545 7.94922H14.4821C14.8923 7.94922 15.1384 8.08984 15.361 8.40625L17.4001 11.1718C17.4821 11.2773 17.4353 11.4414 17.2595 11.4414H13.8845C13.5798 11.4414 13.4392 11.6757 13.4392 11.9218V12.0625C13.4392 12.8711 12.8884 13.3867 12.0329 13.3867C11.1775 13.3867 10.6501 12.8711 10.6501 12.0625V11.9218C10.6501 11.6757 10.486 11.4414 10.1814 11.4414H6.80639Z" fill="black" fill-opacity="0.85"/>
</g>
<defs>
<clipPath id="clip0_2207_490">
<rect width="23.9062" height="23.918" fill="white" transform="translate(0.079834 0.144531)"/>
</clipPath>
</defs>
</svg>
