<svg width="28" height="21" viewBox="0 0 28 21" fill="none" xmlns="http://www.w3.org/2000/svg">
<g clip-path="url(#clip0_2207_482)">
<path d="M3.74488 20.1718H24.0183C26.4793 20.1718 27.698 18.9531 27.698 16.539V9.60156C27.698 8.54687 27.5574 8.01953 27.03 7.375L22.9871 2.37109C21.616 0.683593 21.0066 0.167969 18.9207 0.167969H8.84253C6.7566 0.167969 6.15894 0.683593 4.78785 2.37109L0.733155 7.375C0.21753 8.01953 0.0651855 8.54687 0.0651855 9.60156V16.539C0.0651855 18.9648 1.29566 20.1718 3.74488 20.1718ZM3.76831 18.2851C2.59644 18.2851 1.95191 17.664 1.95191 16.4453V10.6093H9.3816C9.66285 12.8007 11.5027 14.4179 13.8816 14.4179C16.2605 14.4179 18.1004 12.789 18.3816 10.6093H25.8113V16.4453C25.8113 17.664 25.155 18.2851 23.9949 18.2851H3.76831ZM13.8816 12.6836C12.2293 12.6836 11.1629 11.2422 11.1629 9.88281V9.84765C11.1629 9.35547 10.8699 8.89844 10.2605 8.89844H2.53785C2.15113 8.89844 2.0691 8.55859 2.26831 8.3125L6.61597 2.82812C7.19019 2.10156 7.84644 1.80859 8.70191 1.80859H19.0613C19.9168 1.80859 20.573 2.10156 21.1472 2.82812L25.5066 8.3125C25.6941 8.55859 25.6238 8.89844 25.2371 8.89844H17.5027C16.8933 8.89844 16.6121 9.35547 16.6121 9.84765V9.88281C16.6121 11.2422 15.5457 12.6836 13.8816 12.6836Z" fill="black" fill-opacity="0.85"/>
</g>
<defs>
<clipPath id="clip0_2207_482">
<rect width="27.6328" height="20.0273" fill="white" transform="translate(0.0651855 0.144531)"/>
</clipPath>
</defs>
</svg>
