<svg width="25" height="23" viewBox="0 0 25 23" fill="none" xmlns="http://www.w3.org/2000/svg">
<g clip-path="url(#clip0_2207_7717)">
<path d="M0.0146484 19.1182C0.0146484 20.9228 1.25684 22.3525 3.24903 22.3525H21.2841C23.2764 22.3525 24.5185 20.9228 24.5185 19.1182C24.5185 18.5791 24.3779 18.0283 24.0849 17.5244L15.0498 1.78613C14.4404 0.719727 13.3623 0.145508 12.2724 0.145508C11.1708 0.145508 10.0927 0.719727 9.4834 1.78613L0.448242 17.5361C0.155273 18.04 0.0146484 18.5791 0.0146484 19.1182ZM1.91309 19.1182C1.91309 18.9072 1.94824 18.6611 2.06543 18.415L5.5459 12.333H18.9521L22.4443 18.4267C22.5732 18.6611 22.6318 18.9072 22.6318 19.1182C22.6318 19.8447 22.0693 20.5127 21.2607 20.5127H3.26074C2.45215 20.5127 1.91309 19.8447 1.91309 19.1182Z" fill="black" fill-opacity="0.85"/>
</g>
<defs>
<clipPath id="clip0_2207_7717">
<rect width="24.5039" height="22.2773" fill="white" transform="translate(0.0146484 0.145508)"/>
</clipPath>
</defs>
</svg>
