<svg width="31" height="26" viewBox="0 0 31 26" fill="none" xmlns="http://www.w3.org/2000/svg">
<g clip-path="url(#clip0_2207_18306)">
<path d="M9.46706 25.7286H21.385C23.553 25.7286 24.6077 24.6857 24.6428 22.5294L24.7952 11.0216L27.6663 11.6778C28.7561 11.9239 29.4593 11.4786 29.7288 10.3536L30.7718 6.19349C31.053 5.0802 30.6311 4.30677 29.5647 3.86145L21.3147 0.345825C20.846 0.134888 20.4124 0.146606 19.9788 0.357544C18.4319 1.09583 17.178 1.47083 15.4319 1.47083C13.6741 1.47083 12.4202 1.09583 10.8733 0.357544C10.4397 0.146606 10.0061 0.134888 9.53738 0.345825L1.28738 3.86145C0.220971 4.30677 -0.189185 5.0802 0.0803458 6.19349L1.12331 10.3536C1.39285 11.4786 2.09597 11.9239 3.18581 11.6778L6.06863 11.0216L6.20925 22.5294C6.24441 24.6857 7.2991 25.7286 9.46706 25.7286ZM15.4319 5.12708C13.428 5.12708 12.0218 4.09583 11.4241 2.39661C12.6546 2.86536 14.0374 3.12317 15.4319 3.12317C16.8147 3.12317 18.2093 2.86536 19.428 2.39661C18.8421 4.07239 17.4593 5.12708 15.4319 5.12708Z" fill="black" fill-opacity="0.85"/>
</g>
<defs>
<clipPath id="clip0_2207_18306">
<rect width="30.8566" height="25.582" fill="white" transform="translate(0 0.146484)"/>
</clipPath>
</defs>
</svg>
