<svg width="25" height="25" viewBox="0 0 25 25" fill="none" xmlns="http://www.w3.org/2000/svg">
<g clip-path="url(#clip0_2207_18315)">
<path d="M12.0517 24.0517C18.5908 24.0517 24.0048 18.626 24.0048 12.0986C24.0048 5.55957 18.5791 0.145508 12.04 0.145508C5.51269 0.145508 0.0986328 5.55957 0.0986328 12.0986C0.0986328 18.626 5.52441 24.0517 12.0517 24.0517Z" fill="black" fill-opacity="0.85"/>
<path d="M9.087 18.5089C8.03231 18.5089 7.49325 18.005 7.48153 16.9503L7.41122 11.2784L5.99325 11.5948C5.46591 11.712 5.10263 11.4894 4.98544 10.9503L4.46981 8.9112C4.32919 8.37214 4.54013 7.98541 5.05575 7.76277L9.12216 6.02839C9.35653 5.92292 9.56747 5.93464 9.76669 6.02839C10.5284 6.39167 11.1612 6.57917 12.0167 6.57917C12.8721 6.57917 13.5167 6.39167 14.2667 6.02839C14.4776 5.93464 14.6885 5.92292 14.9112 6.02839L18.9893 7.76277C19.4932 7.98541 19.7159 8.37214 19.5753 8.9112L19.0596 10.9503C18.9307 11.4894 18.5792 11.712 18.0518 11.5948L16.6339 11.2784L16.5518 16.9503C16.5401 18.005 16.0128 18.5089 14.9464 18.5089H9.087ZM12.0167 8.31354C12.9425 8.31354 13.6104 7.89167 13.8917 7.14167C13.3175 7.35261 12.6729 7.44635 12.0167 7.44635C11.3604 7.44635 10.7159 7.35261 10.1417 7.14167C10.4346 7.90339 11.1143 8.31354 12.0167 8.31354Z" fill="white"/>
</g>
<defs>
<clipPath id="clip0_2207_18315">
<rect width="23.9062" height="23.918" fill="white" transform="translate(0.0986328 0.145508)"/>
</clipPath>
</defs>
</svg>
