<svg width="24" height="25" viewBox="0 0 24 25" fill="none" xmlns="http://www.w3.org/2000/svg">
<g clip-path="url(#clip0_2207_25926)">
<path d="M11.9573 24.0527C18.4964 24.0527 23.9104 18.627 23.9104 12.0996C23.9104 5.56054 18.4846 0.146484 11.9455 0.146484C5.41821 0.146484 0.00415039 5.56054 0.00415039 12.0996C0.00415039 18.627 5.42993 24.0527 11.9573 24.0527ZM11.9573 22.0606C6.42603 22.0606 2.00806 17.6309 2.00806 12.0996C2.00806 6.56836 6.41431 2.13867 11.9455 2.13867C17.4769 2.13867 21.9183 6.56836 21.9183 12.0996C21.9183 17.6309 17.4886 22.0606 11.9573 22.0606Z" fill="black" fill-opacity="0.85"/>
<path d="M11.9456 17.8887C12.3909 17.8887 12.7073 17.584 12.7073 17.1035V14.4785L14.6995 13.5879C14.969 13.459 15.098 13.2832 15.098 13.0254C15.098 12.6973 14.8636 12.4629 14.5354 12.4629C14.43 12.4629 14.3245 12.4981 14.2308 12.5332L12.7073 13.2363V12.1231L14.6995 11.2207C14.969 11.1035 15.098 10.9277 15.098 10.6699C15.098 10.3418 14.8753 10.0957 14.5354 10.0957C14.4417 10.0957 14.3362 10.1309 14.2425 10.166L12.7073 10.8809V8.13867H15.4964C15.93 8.13867 16.2347 7.8457 16.2347 7.42382C16.2347 7.00195 15.93 6.7207 15.4964 6.7207H8.38307C7.94947 6.7207 7.64478 7.00195 7.64478 7.42382C7.64478 7.8457 7.94947 8.13867 8.38307 8.13867H11.1722V11.5137L9.20337 12.3926C8.92212 12.5332 8.80494 12.6973 8.80494 12.9434C8.80494 13.2715 9.0276 13.5176 9.36744 13.5176C9.46119 13.5176 9.56666 13.4824 9.66041 13.4473L11.1722 12.7442V13.8692L9.20337 14.7598C8.92212 14.8887 8.80494 15.0527 8.80494 15.3106C8.80494 15.6387 9.0276 15.8731 9.36744 15.8731C9.46119 15.8731 9.56666 15.8496 9.66041 15.8027L11.1722 15.1113V17.1035C11.1722 17.584 11.4886 17.8887 11.9456 17.8887Z" fill="black" fill-opacity="0.85"/>
</g>
<defs>
<clipPath id="clip0_2207_25926">
<rect width="23.9062" height="23.918" fill="white" transform="translate(0.00415039 0.146484)"/>
</clipPath>
</defs>
</svg>
