<svg width="25" height="25" viewBox="0 0 25 25" fill="none" xmlns="http://www.w3.org/2000/svg">
<g clip-path="url(#clip0_2207_10437)">
<path d="M6.3877 12.4629V16.9043L1.73536 21.5684L3.41114 23.2324L7.98145 18.6738L12.5986 18.6621C13.3486 18.6621 14.1455 18.3926 14.6963 17.8535L24.3994 8.29101C24.8682 7.82226 24.8447 7.07226 24.3994 6.61523C23.9424 6.14648 23.1807 6.14648 22.7236 6.61523L13.3955 15.9551C13.0557 16.2832 12.6455 16.4824 12.165 16.4824H8.8955L8.71973 16.2715V12.7559C8.71973 12.2754 8.90723 11.8535 9.23536 11.5254L18.4463 2.33789C18.9033 1.86914 18.8916 1.11914 18.4463 0.65039C17.9893 0.193359 17.2275 0.181641 16.7705 0.662109L7.20801 10.3653C6.63379 10.9512 6.39942 11.7012 6.3877 12.4629ZM2.20411 24.9785C3.42286 24.9785 4.40723 23.9824 4.40723 22.7754C4.40723 21.5567 3.42286 20.5606 2.20411 20.5723C0.99707 20.5723 0.0126953 21.5567 0.0126953 22.7754C0.0126953 23.9824 0.99707 24.9785 2.20411 24.9785Z" fill="black" fill-opacity="0.85"/>
</g>
<defs>
<clipPath id="clip0_2207_10437">
<rect width="24.7295" height="24.832" fill="white" transform="translate(0.0126953 0.146484)"/>
</clipPath>
</defs>
</svg>
