<svg width="24" height="25" viewBox="0 0 24 25" fill="none" xmlns="http://www.w3.org/2000/svg">
<g clip-path="url(#clip0_2207_25499)">
<path d="M11.9719 24.0527C18.511 24.0527 23.925 18.627 23.925 12.0996C23.925 5.56054 18.4993 0.146484 11.9602 0.146484C5.43286 0.146484 0.0187988 5.56054 0.0187988 12.0996C0.0187988 18.627 5.44458 24.0527 11.9719 24.0527Z" fill="black" fill-opacity="0.85"/>
<path d="M10.6477 17.8418C9.9563 17.8418 9.61646 17.4317 9.61646 16.8809V13.0488L8.65552 13.4707C8.55005 13.5059 8.4563 13.5293 8.35083 13.5293C8.01099 13.5293 7.77661 13.2832 7.77661 12.9434C7.77661 12.6738 7.8938 12.4981 8.18677 12.3692L9.61646 11.7715V10.6231L8.65552 11.0332C8.55005 11.0801 8.4563 11.1035 8.35083 11.1035C8.01099 11.1035 7.77661 10.8692 7.77661 10.5293C7.77661 10.2481 7.8938 10.0723 8.18677 9.95507L9.61646 9.33398V7.18945C9.61646 6.69726 9.90942 6.38086 10.3782 6.38086C10.8235 6.38086 11.1165 6.69726 11.1165 7.18945V8.7246L13.1672 7.86914C13.261 7.82226 13.3665 7.7871 13.4719 7.7871C13.8118 7.7871 14.0344 8.04492 14.0344 8.38476C14.0344 8.65429 13.9172 8.81836 13.636 8.95898L11.1165 10.0019V11.1504L13.1672 10.2832C13.261 10.2481 13.3665 10.2246 13.4719 10.2246C13.8118 10.2246 14.0344 10.4707 14.0344 10.8106C14.0344 11.0684 13.9172 11.2559 13.636 11.3731L11.1165 12.4277V16.2832C13.0852 16.2832 14.468 14.6777 14.6907 12.9082C14.7727 12.3457 15.054 12.1231 15.4407 12.1231C15.8743 12.1231 16.1555 12.4395 16.1555 12.9317C16.1555 15.1113 14.1282 17.8418 10.6477 17.8418Z" fill="white"/>
</g>
<defs>
<clipPath id="clip0_2207_25499">
<rect width="23.9062" height="23.918" fill="white" transform="translate(0.0187988 0.146484)"/>
</clipPath>
</defs>
</svg>
