<svg width="24" height="25" viewBox="0 0 24 25" fill="none" xmlns="http://www.w3.org/2000/svg">
<g clip-path="url(#clip0_2207_14821)">
<path d="M11.993 24.0527C18.5321 24.0527 23.9461 18.627 23.9461 12.0996C23.9461 5.56054 18.5204 0.146484 11.9813 0.146484C5.45398 0.146484 0.039917 5.56054 0.039917 12.0996C0.039917 18.627 5.4657 24.0527 11.993 24.0527Z" fill="black" fill-opacity="0.85"/>
<path d="M6.57898 16.2949C5.59461 16.2949 4.89148 15.6035 4.89148 14.6192V8.39649C4.89148 7.4004 5.59461 6.69727 6.57898 6.69727H17.3837C18.368 6.69727 19.0829 7.4004 19.0829 8.39649V14.6192C19.0829 15.6035 18.368 16.2949 17.3837 16.2949H6.57898ZM6.73133 15.0762H17.243C17.5711 15.0762 17.8055 14.8418 17.8055 14.502V8.50196C17.8055 8.1504 17.5711 7.92774 17.243 7.92774H6.73133C6.4032 7.92774 6.16883 8.1504 6.16883 8.50196V14.502C6.16883 14.8418 6.4032 15.0762 6.73133 15.0762ZM8.86414 18.7559C8.5243 18.7559 8.24304 18.4863 8.24304 18.1465C8.24304 17.8067 8.5243 17.5254 8.86414 17.5254H15.1454C15.4852 17.5254 15.7665 17.8067 15.7665 18.1465C15.7665 18.4863 15.4852 18.7559 15.1454 18.7559H8.86414Z" fill="white"/>
</g>
<defs>
<clipPath id="clip0_2207_14821">
<rect width="23.9062" height="23.918" fill="white" transform="translate(0.039917 0.146484)"/>
</clipPath>
</defs>
</svg>
