<svg width="24" height="25" viewBox="0 0 24 25" fill="none" xmlns="http://www.w3.org/2000/svg">
<g clip-path="url(#clip0_2207_14816)">
<path d="M11.9909 24.0527C18.53 24.0527 23.944 18.627 23.944 12.0996C23.944 5.56054 18.5183 0.146484 11.9792 0.146484C5.4519 0.146484 0.0378418 5.56054 0.0378418 12.0996C0.0378418 18.627 5.46362 24.0527 11.9909 24.0527ZM11.9909 22.0606C6.45972 22.0606 2.04175 17.6309 2.04175 12.0996C2.04175 6.56836 6.448 2.13867 11.9792 2.13867C17.5105 2.13867 21.9519 6.56836 21.9519 12.0996C21.9519 17.6309 17.5222 22.0606 11.9909 22.0606Z" fill="black" fill-opacity="0.85"/>
<path d="M6.72925 16.1895H17.2058C18.1667 16.1895 18.8581 15.5215 18.8581 14.5606V8.5254C18.8581 7.56446 18.1667 6.88477 17.2058 6.88477H6.72925C5.76831 6.88477 5.08862 7.56446 5.08862 8.5254V14.5606C5.08862 15.5215 5.76831 16.1895 6.72925 16.1895ZM6.86987 15.0059C6.55346 15.0059 6.33081 14.7832 6.33081 14.4551V8.63087C6.33081 8.29102 6.55346 8.06837 6.86987 8.06837H17.0769C17.3933 8.06837 17.6159 8.29102 17.6159 8.63087V14.4551C17.6159 14.7832 17.3933 15.0059 17.0769 15.0059H6.86987ZM8.94409 18.5684H15.0378C15.3659 18.5684 15.6355 18.3106 15.6355 17.9824C15.6355 17.6543 15.3659 17.3848 15.0378 17.3848H8.94409C8.61596 17.3848 8.34643 17.6543 8.34643 17.9824C8.34643 18.3106 8.61596 18.5684 8.94409 18.5684Z" fill="black" fill-opacity="0.85"/>
</g>
<defs>
<clipPath id="clip0_2207_14816">
<rect width="23.9062" height="23.918" fill="white" transform="translate(0.0378418 0.146484)"/>
</clipPath>
</defs>
</svg>
