<svg width="24" height="25" viewBox="0 0 24 25" fill="none" xmlns="http://www.w3.org/2000/svg">
<g clip-path="url(#clip0_2207_25231)">
<path d="M12.0056 24.0527C18.5447 24.0527 23.9587 18.627 23.9587 12.0996C23.9587 5.56054 18.533 0.146484 11.9939 0.146484C5.46655 0.146484 0.0524902 5.56054 0.0524902 12.0996C0.0524902 18.627 5.47827 24.0527 12.0056 24.0527Z" fill="black" fill-opacity="0.85"/>
<path d="M12.0056 17.7715C9.16968 17.7715 7.27124 16.1426 7.27124 13.5996V7.42382C7.27124 6.74414 7.6228 6.33398 8.22046 6.33398C8.85327 6.33398 9.20483 6.74414 9.20483 7.42382V13.4121C9.20483 15.1113 10.3181 16.166 12.0056 16.166C13.6931 16.166 14.7947 15.1113 14.7947 13.4121V7.42382C14.7947 6.74414 15.158 6.33398 15.7556 6.33398C16.3884 6.33398 16.74 6.74414 16.74 7.42382V13.5996C16.74 16.1426 14.8416 17.7715 12.0056 17.7715Z" fill="white"/>
</g>
<defs>
<clipPath id="clip0_2207_25231">
<rect width="23.9062" height="23.918" fill="white" transform="translate(0.0524902 0.146484)"/>
</clipPath>
</defs>
</svg>
