<svg width="28" height="22" viewBox="0 0 28 22" fill="none" xmlns="http://www.w3.org/2000/svg">
<g clip-path="url(#clip0_2207_19550)">
<path d="M1.06665 8.81836H12.9377V20.8653H14.8244V8.81836H26.9182V7.04882H1.06665V8.81836ZM3.73853 21.7207H24.0119C26.4729 21.7207 27.6916 20.5137 27.6916 18.0996V3.77929C27.6916 1.36523 26.4729 0.146484 24.0119 0.146484H3.73853C1.28931 0.146484 0.0588379 1.36523 0.0588379 3.77929V18.0996C0.0588379 20.5137 1.28931 21.7207 3.73853 21.7207ZM3.76196 19.834C2.59009 19.834 1.94556 19.2129 1.94556 17.9942V3.88476C1.94556 2.66601 2.59009 2.0332 3.76196 2.0332H23.9885C25.1486 2.0332 25.8049 2.66601 25.8049 3.88476V17.9942C25.8049 19.2129 25.1486 19.834 23.9885 19.834H3.76196Z" fill="black" fill-opacity="0.85"/>
</g>
<defs>
<clipPath id="clip0_2207_19550">
<rect width="27.6328" height="21.5742" fill="white" transform="translate(0.0588379 0.146484)"/>
</clipPath>
</defs>
</svg>
