<svg width="26" height="28" viewBox="0 0 26 28" fill="none" xmlns="http://www.w3.org/2000/svg">
<g clip-path="url(#clip0_2207_5040)">
<path d="M10.7761 3.65039H12.7214V1.13086C12.7214 0.591796 12.2879 0.146484 11.7488 0.146484C11.2097 0.146484 10.7761 0.591796 10.7761 1.13086V3.65039ZM1.03784 15.0176C1.38941 15.0176 1.71753 14.7949 1.97535 14.4082C2.74878 13.2246 3.5691 12.7324 4.68238 12.7324C5.77222 12.7324 6.5105 13.2246 7.19019 14.3965C7.43628 14.8301 7.68238 15.0176 8.0105 15.0176C8.36207 15.0176 8.60816 14.8301 8.84253 14.3965C9.47535 13.3184 10.6238 12.6621 11.7488 12.6621C12.8738 12.6621 14.0222 13.3184 14.655 14.3965C14.8894 14.8301 15.1355 15.0176 15.4871 15.0176C15.8152 15.0176 16.0613 14.8301 16.3191 14.3965C16.9871 13.2246 17.7254 12.7324 18.8152 12.7324C19.9285 12.7324 20.7488 13.2246 21.534 14.4082C21.7918 14.7949 22.1082 15.0176 22.4597 15.0176C23.0457 15.0176 23.4324 14.5371 23.4324 13.9043C23.4324 9.25196 19.7644 2.7246 11.7488 2.7246C3.73316 2.7246 0.0651855 9.25196 0.0651855 13.9043C0.0651855 14.5371 0.451905 15.0176 1.03784 15.0176ZM11.7488 10.834C10.3425 10.834 8.97144 11.4668 8.11597 12.5098C8.05738 12.5918 8.0105 12.5918 7.96363 12.5098C7.17847 11.4434 6.08863 10.9043 4.68238 10.9043C3.18238 10.9043 1.94019 11.5137 0.897217 12.7793L1.97535 12.8731C2.50269 8.29101 6.44019 4.55273 11.7488 4.55273C17.0457 4.55273 20.9832 8.26757 21.534 12.8496L22.5886 12.7559C21.5574 11.5137 20.3152 10.9043 18.8152 10.9043C17.409 10.9043 16.3191 11.4434 15.5457 12.5098C15.4871 12.5918 15.4402 12.5801 15.3816 12.5098C14.5261 11.4668 13.155 10.834 11.7488 10.834ZM9.0066 27.2403C11.116 27.2403 12.7214 25.6348 12.7214 23.502V12.0996H10.7761V23.502C10.7761 24.5215 10.0378 25.2598 9.0066 25.2598C7.97535 25.2598 7.2605 24.5215 7.2605 23.502C7.2605 22.8223 6.83863 22.3653 6.24097 22.3653C5.65503 22.3653 5.28003 22.8223 5.28003 23.502C5.28003 25.6348 6.8855 27.2403 9.0066 27.2403Z" fill="black" fill-opacity="0.85"/>
<path d="M17.1746 22.5643C18.4285 22.5643 19.2371 21.5447 19.2371 19.9627C19.2371 18.3807 18.4285 17.3729 17.1746 17.3729C15.9207 17.3729 15.1121 18.3807 15.1121 19.9627C15.1121 21.5447 15.9207 22.5643 17.1746 22.5643ZM17.1746 21.1346C16.8347 21.1346 16.6355 20.701 16.6355 19.9627C16.6355 19.2361 16.8464 18.8025 17.1746 18.8025C17.491 18.8025 17.7136 19.2361 17.7136 19.9627C17.7136 20.701 17.5027 21.1346 17.1746 21.1346ZM16.8582 27.2049C17.2097 27.4158 17.7019 27.3104 17.948 26.9588L23.6316 18.5447C23.9129 18.1346 23.8074 17.619 23.409 17.3963C23.0574 17.1971 22.6121 17.3143 22.3543 17.6893L16.6355 26.0799C16.3425 26.5018 16.4363 26.9822 16.8582 27.2049ZM23.116 27.2518C24.3699 27.2518 25.1785 26.2205 25.1785 24.6385C25.1785 23.0565 24.3699 22.0486 23.116 22.0486C21.8621 22.0486 21.0535 23.0565 21.0535 24.6385C21.0535 26.2205 21.8621 27.2518 23.116 27.2518ZM23.116 25.8104C22.7761 25.8104 22.5769 25.3885 22.5769 24.6385C22.5769 23.9119 22.7879 23.4783 23.116 23.4783C23.4324 23.4783 23.655 23.9119 23.655 24.6385C23.655 25.3885 23.4558 25.8104 23.116 25.8104Z" fill="black" fill-opacity="0.85"/>
</g>
<defs>
<clipPath id="clip0_2207_5040">
<rect width="25.1133" height="27.7148" fill="white" transform="translate(0.0651855 0.146484)"/>
</clipPath>
</defs>
</svg>
