<svg width="24" height="28" viewBox="0 0 24 28" fill="none" xmlns="http://www.w3.org/2000/svg">
<g clip-path="url(#clip0_2207_5032)">
<path d="M10.7719 3.65039H12.7172V1.13086C12.7172 0.591796 12.2837 0.146484 11.7446 0.146484C11.2055 0.146484 10.7719 0.591796 10.7719 1.13086V3.65039ZM1.03369 15.0176C1.37354 15.0176 1.70166 14.7949 1.95948 14.4082C2.74463 13.2246 3.56494 12.7324 4.67823 12.7324C5.76806 12.7324 6.50634 13.2246 7.17431 14.3965C7.43213 14.8301 7.67823 15.0176 8.00635 15.0176C8.3462 15.0176 8.604 14.8301 8.83838 14.3965C9.4712 13.3184 10.6196 12.6621 11.7446 12.6621C12.8696 12.6621 14.018 13.3184 14.6508 14.3965C14.8852 14.8301 15.1313 15.0176 15.4829 15.0176C15.811 15.0176 16.0571 14.8301 16.3032 14.3965C16.9829 13.2246 17.7212 12.7324 18.811 12.7324C19.9243 12.7324 20.7446 13.2246 21.518 14.4082C21.7758 14.7949 22.104 15.0176 22.4555 15.0176C23.0415 15.0176 23.4282 14.5371 23.4282 13.9043C23.4282 9.25196 19.7602 2.7246 11.7446 2.7246C3.72901 2.7246 0.0610352 9.25196 0.0610352 13.9043C0.0610352 14.5371 0.447754 15.0176 1.03369 15.0176ZM11.7446 10.834C10.3266 10.834 8.96729 11.4668 8.11182 12.5098C8.05323 12.5918 8.00635 12.5918 7.94776 12.5098C7.17432 11.4434 6.08448 10.9043 4.67823 10.9043C3.17823 10.9043 1.92432 11.5137 0.893066 12.7793L1.95948 12.8731C2.49854 8.29101 6.43604 4.55273 11.7446 4.55273C17.0415 4.55273 20.979 8.26757 21.518 12.8496L22.5844 12.7559C21.5532 11.5137 20.311 10.9043 18.811 10.9043C17.4048 10.9043 16.3149 11.4434 15.5298 12.5098C15.4829 12.5918 15.436 12.5801 15.3774 12.5098C14.5219 11.4668 13.1508 10.834 11.7446 10.834ZM8.99073 27.2403C11.1118 27.2403 12.7172 25.6348 12.7172 23.502V12.0996H10.7719V23.502C10.7719 24.5215 10.0337 25.2598 8.99073 25.2598C7.9712 25.2598 7.24463 24.5215 7.24463 23.502C7.24463 22.8223 6.83448 22.3653 6.23681 22.3653C5.65088 22.3653 5.26416 22.8223 5.26416 23.502C5.26416 25.6348 6.88135 27.2403 8.99073 27.2403Z" fill="black" fill-opacity="0.85"/>
</g>
<defs>
<clipPath id="clip0_2207_5032">
<rect width="23.3672" height="27.7148" fill="white" transform="translate(0.0610352 0.146484)"/>
</clipPath>
</defs>
</svg>
