<svg width="14" height="25" viewBox="0 0 14 25" fill="none" xmlns="http://www.w3.org/2000/svg">
<g clip-path="url(#clip0_2207_22471)">
<path d="M0.760742 24.6973H13.0185C13.4052 24.6973 13.7216 24.4043 13.7216 24.0059C13.7216 23.6074 13.4052 23.3027 13.0185 23.3027H0.760742C0.385742 23.3027 0.0693359 23.6074 0.0693359 24.0059C0.0693359 24.4043 0.385742 24.6973 0.760742 24.6973Z" fill="black" fill-opacity="0.85"/>
<path d="M6.88965 21.0996C11.1084 21.0996 13.7216 18.5684 13.7216 14.8887V4.82226C13.7216 4.16601 13.2881 3.73242 12.6201 3.73242C11.9638 3.73242 11.5537 4.16601 11.5537 4.82226V14.7129C11.5537 17.3262 9.83106 19.1074 6.88965 19.1074C3.95996 19.1074 2.23731 17.3262 2.23731 14.7129V4.82226C2.23731 4.16601 1.80372 3.73242 1.13575 3.73242C0.479492 3.73242 0.0693359 4.16601 0.0693359 4.82226V14.8887C0.0693359 18.5684 2.6709 21.0996 6.88965 21.0996Z" fill="black" fill-opacity="0.85"/>
</g>
<defs>
<clipPath id="clip0_2207_22471">
<rect width="13.6523" height="24.5508" fill="white" transform="translate(0.0693359 0.146484)"/>
</clipPath>
</defs>
</svg>
