<svg width="24" height="24" viewBox="0 0 24 24" fill="none" xmlns="http://www.w3.org/2000/svg">
<g clip-path="url(#clip0_2207_18973)">
<path d="M1.01733 7.62304C1.63842 7.62304 1.96655 7.27148 1.96655 6.6621V3.89648C1.96655 2.67773 2.61108 2.05664 3.78295 2.05664H6.61889C7.23999 2.05664 7.57983 1.71679 7.57983 1.10742C7.57983 0.498046 7.23999 0.169922 6.61889 0.169922H3.75952C1.3103 0.169922 0.079834 1.37695 0.079834 3.79101V6.6621C0.079834 7.27148 0.419678 7.62304 1.01733 7.62304ZM22.0759 7.62304C22.697 7.62304 23.0251 7.27148 23.0251 6.6621V3.79101C23.0251 1.37695 21.7946 0.169922 19.3454 0.169922H16.4743C15.865 0.169922 15.5251 0.498046 15.5251 1.10742C15.5251 1.71679 15.865 2.05664 16.4743 2.05664H19.3103C20.4704 2.05664 21.1384 2.67773 21.1384 3.89648V6.6621C21.1384 7.27148 21.4782 7.62304 22.0759 7.62304ZM3.75952 23.1035H6.61889C7.23999 23.1035 7.57983 22.7637 7.57983 22.166C7.57983 21.5567 7.23999 21.2168 6.61889 21.2168H3.78295C2.61108 21.2168 1.96655 20.5957 1.96655 19.377V16.6113C1.96655 15.9903 1.62671 15.6504 1.01733 15.6504C0.407959 15.6504 0.079834 15.9903 0.079834 16.6113V19.4707C0.079834 21.8965 1.3103 23.1035 3.75952 23.1035ZM16.4743 23.1035H19.3454C21.7946 23.1035 23.0251 21.8848 23.0251 19.4707V16.6113C23.0251 15.9903 22.6853 15.6504 22.0759 15.6504C21.4665 15.6504 21.1384 15.9903 21.1384 16.6113V19.377C21.1384 20.5957 20.4704 21.2168 19.3103 21.2168H16.4743C15.865 21.2168 15.5251 21.5567 15.5251 22.166C15.5251 22.7637 15.865 23.1035 16.4743 23.1035Z" fill="black" fill-opacity="0.85"/>
<path d="M9.38452 6.88476H13.7321C14.4236 6.88476 14.8337 6.46289 14.8337 5.74804V5.06836C14.8337 4.35351 14.4236 3.93164 13.7321 3.93164H9.38452C8.69311 3.93164 8.28295 4.35351 8.28295 5.06836V5.74804C8.28295 6.46289 8.69311 6.88476 9.38452 6.88476ZM9.47827 8.05664H13.6384V6.52148H9.47827V8.05664ZM9.22045 19.3535H13.9079C15.1618 19.3535 15.9821 18.5332 15.9821 17.2442V9.91992C15.9821 8.64257 15.1618 7.82226 13.9079 7.82226H9.22045C7.95483 7.82226 7.13452 8.64257 7.13452 9.91992V17.2442C7.13452 18.5332 7.95483 19.3535 9.22045 19.3535Z" fill="black" fill-opacity="0.85"/>
</g>
<defs>
<clipPath id="clip0_2207_18973">
<rect width="22.9453" height="22.957" fill="white" transform="translate(0.079834 0.146484)"/>
</clipPath>
</defs>
</svg>
