<svg width="26" height="26" viewBox="0 0 26 26" fill="none" xmlns="http://www.w3.org/2000/svg">
<g clip-path="url(#clip0_2207_9296)">
<path d="M7.30151 25.8926C7.87573 25.8926 8.27417 25.5879 8.98901 24.9551L13.032 21.3574H20.5554C24.0476 21.3574 25.9226 19.4238 25.9226 15.9903V7.01367C25.9226 3.58007 24.0476 1.64648 20.5554 1.64648H5.46167C1.96948 1.64648 0.0944824 3.56836 0.0944824 7.01367V15.9903C0.0944824 19.4356 1.96948 21.3574 5.46167 21.3574H6.02417V24.4043C6.02417 25.3067 6.4812 25.8926 7.30151 25.8926ZM7.78198 23.7481V20.3496C7.78198 19.7168 7.53589 19.4707 6.90307 19.4707H5.46167C3.09448 19.4707 1.9812 18.2637 1.9812 15.9785V7.01367C1.9812 4.72851 3.09448 3.5332 5.46167 3.5332H20.5554C22.9109 3.5332 24.0359 4.72851 24.0359 7.01367V15.9785C24.0359 18.2637 22.9109 19.4707 20.5554 19.4707H12.9617C12.3054 19.4707 11.9773 19.5645 11.532 20.0215L7.78198 23.7481Z" fill="black" fill-opacity="0.85"/>
<path d="M8.11011 16.2363H14.3093C15.4812 16.2363 16.1726 15.5567 16.1726 14.3965V8.63086C16.1726 7.4707 15.5398 6.80273 14.3679 6.80273H8.11011C6.99683 6.80273 6.24683 7.4707 6.24683 8.63086V14.3965C6.24683 15.5567 6.94996 16.2363 8.11011 16.2363ZM16.8289 13.1192L19.114 15.0527C19.325 15.2285 19.5476 15.3457 19.7586 15.3457C20.2039 15.3457 20.5086 15.0176 20.5086 14.5371V8.49023C20.5086 8.00976 20.2039 7.68164 19.7586 7.68164C19.5476 7.68164 19.3133 7.79882 19.114 7.96289L16.8289 9.91992V13.1192Z" fill="black" fill-opacity="0.85"/>
</g>
<defs>
<clipPath id="clip0_2207_9296">
<rect width="25.8281" height="25.7461" fill="white" transform="translate(0.0944824 0.146484)"/>
</clipPath>
</defs>
</svg>
