<svg width="24" height="24" viewBox="0 0 24 24" fill="none" xmlns="http://www.w3.org/2000/svg">
<g id="video.slash.circle" clip-path="url(#clip0_2201_766)">
<g id="Group">
<path id="Vector" d="M11.9531 23.9062C18.4922 23.9062 23.9062 18.4805 23.9062 11.9531C23.9062 5.41406 18.4805 0 11.9414 0C5.41406 0 0 5.41406 0 11.9531C0 18.4805 5.42578 23.9062 11.9531 23.9062ZM11.9531 21.9141C6.42188 21.9141 2.00391 17.4844 2.00391 11.9531C2.00391 6.42188 6.41016 1.99219 11.9414 1.99219C17.4727 1.99219 21.9141 6.42188 21.9141 11.9531C21.9141 17.4844 17.4844 21.9141 11.9531 21.9141Z" fill="black" fill-opacity="0.85"/>
<path id="Vector_2" d="M7.03125 16.6875H13.2305C14.4023 16.6875 15.0938 16.0078 15.0938 14.8477V9.08203C15.0938 7.92188 14.4609 7.25391 13.2891 7.25391H7.03125C5.91797 7.25391 5.16797 7.92188 5.16797 9.08203V14.8477C5.16797 16.0078 5.87109 16.6875 7.03125 16.6875ZM15.75 13.5703L18.0352 15.5039C18.2461 15.6797 18.4688 15.7969 18.6797 15.7969C19.1367 15.7969 19.4297 15.4688 19.4297 14.9766V8.94141C19.4297 8.46094 19.1367 8.13281 18.6797 8.13281C18.4688 8.13281 18.2344 8.25 18.0352 8.41406L15.75 10.3594V13.5703Z" fill="black" fill-opacity="0.85"/>
<path id="Vector_3" d="M16.6523 18.5742C17.1914 19.1016 18.0586 19.1133 18.5742 18.5742C19.125 18.0352 19.1133 17.2031 18.5742 16.6641L7.23047 5.32031C6.69141 4.78125 5.83594 4.78125 5.30859 5.32031C4.76953 5.84766 4.76953 6.71484 5.30859 7.24219L16.6523 18.5742Z" fill="white"/>
<path id="Vector_4" d="M17.2383 18C17.4375 18.1992 17.7891 18.1992 17.9883 18C18.1992 17.7773 18.1992 17.4609 17.9883 17.25L6.65622 5.90625C6.44528 5.69531 6.10544 5.69531 5.8945 5.90625C5.68356 6.10547 5.69528 6.45703 5.8945 6.65625L17.2383 18Z" fill="black" fill-opacity="0.85"/>
</g>
</g>
<defs>
<clipPath id="clip0_2201_766">
<rect width="23.9062" height="23.918" fill="white"/>
</clipPath>
</defs>
</svg>
