<svg width="26" height="26" viewBox="0 0 26 26" fill="none" xmlns="http://www.w3.org/2000/svg">
<g id="video.bubble.fill" clip-path="url(#clip0_2201_477)">
<g id="Group">
<path id="Vector" d="M6.96094 25.8867C7.41797 25.8867 7.75781 25.6523 8.30859 25.1367L12.5391 21.2695H20.4609C23.9531 21.2695 25.8281 19.3477 25.8281 15.9141V6.9375C25.8281 3.50391 23.9531 1.57031 20.4609 1.57031H5.36719C1.875 1.57031 0 3.49219 0 6.9375V15.9141C0 19.3594 1.875 21.2695 5.36719 21.2695H5.91797V24.6797C5.91797 25.4062 6.29297 25.8867 6.96094 25.8867Z" fill="black" fill-opacity="0.85"/>
<path id="Vector_2" d="M7.875 16.2891C6.67969 16.2891 5.95312 15.5859 5.95312 14.3906V8.44922C5.95312 7.24219 6.72656 6.55078 7.875 6.55078H14.3203C15.5391 6.55078 16.1836 7.24219 16.1836 8.44922V14.3906C16.1836 15.5859 15.4688 16.2891 14.2617 16.2891H7.875ZM16.8633 13.0664V9.77344L19.2188 7.74609C19.418 7.58203 19.6758 7.47656 19.8867 7.47656C20.3555 7.47656 20.6602 7.80469 20.6602 8.29688V14.5312C20.6602 15.0352 20.3555 15.375 19.8867 15.375C19.6758 15.375 19.4414 15.2695 19.2188 15.082L16.8633 13.0664Z" fill="white"/>
</g>
</g>
<defs>
<clipPath id="clip0_2201_477">
<rect width="25.8281" height="25.8867" fill="white"/>
</clipPath>
</defs>
</svg>
