<svg width="24" height="24" viewBox="0 0 24 24" fill="none" xmlns="http://www.w3.org/2000/svg">
<g id="video.slash.circle.fill" clip-path="url(#clip0_2201_773)">
<g id="Group">
<path id="&#244;&#129;&#190;&#133;" d="M11.955 23.91C10.3219 23.91 8.78263 23.5975 7.33709 22.9724C5.89936 22.3473 4.62963 21.4838 3.5279 20.3821C2.42616 19.2804 1.56275 18.0106 0.937647 16.5729C0.312549 15.1274 0 13.5881 0 11.955C0 10.3219 0.312549 8.78653 0.937647 7.34881C1.56275 5.90327 2.42226 4.62963 3.51618 3.5279C4.61791 2.42616 5.88764 1.56275 7.32537 0.937647C8.77091 0.312549 10.3102 0 11.9433 0C13.5763 0 15.1157 0.312549 16.5612 0.937647C18.0067 1.56275 19.2804 2.42616 20.3821 3.5279C21.4838 4.62963 22.3473 5.90327 22.9724 7.34881C23.5975 8.78653 23.91 10.3219 23.91 11.955C23.91 13.5881 23.5975 15.1274 22.9724 16.5729C22.3473 18.0106 21.4838 19.2804 20.3821 20.3821C19.2804 21.4838 18.0067 22.3473 16.5612 22.9724C15.1235 23.5975 13.5881 23.91 11.955 23.91ZM4.93437 8.98969V14.9438C4.93437 15.5376 5.10236 16.0025 5.43835 16.3385C5.78216 16.6745 6.25489 16.8425 6.85654 16.8425H13.2443C13.76 16.8425 14.1702 16.7253 14.4749 16.4909L5.54384 7.55978C5.13752 7.86451 4.93437 8.34115 4.93437 8.98969ZM15.1664 13.2091V8.98969C15.1664 8.38803 15.0063 7.92312 14.6859 7.59494C14.3733 7.26677 13.9123 7.10268 13.3029 7.10268H9.06001L15.1664 13.2091ZM15.8462 10.3141V13.6193L18.2021 15.6235C18.3115 15.7095 18.4248 15.7837 18.542 15.8462C18.6592 15.9009 18.7686 15.9283 18.8701 15.9283C19.1046 15.9283 19.2921 15.8501 19.4327 15.6939C19.5734 15.5376 19.6437 15.3305 19.6437 15.0727V8.84904C19.6437 8.60682 19.5734 8.40757 19.4327 8.25129C19.2921 8.09502 19.1046 8.01688 18.8701 8.01688C18.7686 8.01688 18.6553 8.04423 18.5303 8.09893C18.413 8.15362 18.3037 8.22004 18.2021 8.29818L15.8462 10.3141ZM17.3934 18.1904C17.4949 18.2841 17.62 18.3349 17.7684 18.3427C17.9247 18.3427 18.0575 18.2919 18.1669 18.1904C18.2763 18.0731 18.331 17.9403 18.331 17.7919C18.331 17.6434 18.2763 17.5184 18.1669 17.4168L6.46976 5.71965C6.36819 5.61026 6.23926 5.55556 6.08299 5.55556C5.93452 5.55556 5.80169 5.61026 5.68449 5.71965C5.58291 5.82904 5.53212 5.96187 5.53212 6.11815C5.53212 6.26661 5.58291 6.39163 5.68449 6.49321L17.3934 18.1904Z" fill="black" fill-opacity="0.85"/>
</g>
</g>
<defs>
<clipPath id="clip0_2201_773">
<rect width="23.9062" height="23.918" fill="white"/>
</clipPath>
</defs>
</svg>
