<svg width="22" height="22" viewBox="0 0 22 22" fill="none" xmlns="http://www.w3.org/2000/svg">
<g clip-path="url(#clip0_2207_9573)">
<path d="M3.70484 21.7461H17.9196C20.3806 21.7461 21.5993 20.5273 21.5993 18.1132V3.80469C21.5993 1.39063 20.3806 0.171875 17.9196 0.171875H3.70484C1.25562 0.171875 0.0251465 1.37891 0.0251465 3.80469V18.1132C0.0251465 20.539 1.25562 21.7461 3.70484 21.7461Z" fill="black" fill-opacity="0.85"/>
<path d="M5.77906 15.8164C4.58374 15.8164 3.85718 15.1132 3.85718 13.9179V7.97656C3.85718 6.76953 4.63062 6.07812 5.77906 6.07812H12.2243C13.4431 6.07812 14.0876 6.76953 14.0876 7.97656V13.9179C14.0876 15.1132 13.3728 15.8164 12.1657 15.8164H5.77906ZM14.7673 12.5937V9.30078L17.1228 7.27344C17.3103 7.10938 17.5798 7.00391 17.7907 7.00391C18.2478 7.00391 18.5642 7.33202 18.5642 7.82421V14.0586C18.5642 14.5625 18.2478 14.9023 17.7907 14.9023C17.5798 14.9023 17.3337 14.7968 17.1228 14.6093L14.7673 12.5937Z" fill="white"/>
</g>
<defs>
<clipPath id="clip0_2207_9573">
<rect width="21.5742" height="21.5977" fill="white" transform="translate(0.0251465 0.148438)"/>
</clipPath>
</defs>
</svg>
