<svg width="35" height="16" viewBox="0 0 35 16" fill="none" xmlns="http://www.w3.org/2000/svg">
<g clip-path="url(#clip0_2207_12070)">
<path d="M17.4903 13.7773C21.3341 13.7773 24.2989 10.8007 24.2989 6.98047C24.2989 3.14844 21.3341 0.171875 17.4903 0.171875C13.67 0.171875 10.7052 3.14844 10.7052 6.98047C10.7052 10.8007 13.67 13.7773 17.4903 13.7773ZM17.4903 11.8086C14.795 11.8086 12.6622 9.67578 12.6622 6.98047C12.6622 4.27344 14.795 2.14063 17.4903 2.14063C20.2091 2.14063 22.3302 4.27344 22.3302 6.98047C22.3302 9.67578 20.2091 11.8086 17.4903 11.8086ZM17.4903 10.8242C19.6466 10.8242 21.3458 9.13672 21.3458 6.98047C21.3458 4.82422 19.6466 3.125 17.4903 3.125C15.3341 3.125 13.6466 4.82422 13.6466 6.98047C13.6466 9.13672 15.3341 10.8242 17.4903 10.8242ZM9.33411 6.98047C9.33411 4.08594 10.7638 1.58985 12.9669 0.148438H3.65051C1.27161 0.148438 0.0294189 1.35547 0.0294189 3.72266V10.2148C0.0294189 12.5703 1.27161 13.789 3.65051 13.789H12.9317C10.7521 12.3359 9.33411 9.85156 9.33411 6.98047ZM31.3536 0.148438H22.0372C24.2286 1.58985 25.67 4.08594 25.67 6.98047C25.67 9.85156 24.2521 12.3359 22.0606 13.789H31.3536C33.756 13.789 34.9864 12.5703 34.9864 10.2148V3.72266C34.9864 1.35547 33.756 0.148438 31.3536 0.148438ZM27.7911 4.60156C27.7911 4.1211 28.131 3.76953 28.6114 3.76953H31.5528C32.0333 3.76953 32.3849 4.1211 32.3849 4.60156C32.3849 5.08203 32.0333 5.42188 31.5528 5.42188H28.6114C28.131 5.42188 27.7911 5.08203 27.7911 4.60156ZM27.7911 7.44922C27.7911 6.96875 28.131 6.62891 28.6114 6.62891H31.5528C32.0333 6.62891 32.3849 6.96875 32.3849 7.44922C32.3849 7.92969 32.0333 8.28125 31.5528 8.28125H28.6114C28.131 8.28125 27.7911 7.92969 27.7911 7.44922ZM8.71301 13.0742H2.63098V14.7968C2.63098 15.3711 3.0177 15.7578 3.59192 15.7578H7.75208C8.33801 15.7578 8.71301 15.3711 8.71301 14.7968V13.0742ZM26.3028 13.0742V14.7968C26.3028 15.3711 26.6778 15.7578 27.2638 15.7578H31.4122C31.9982 15.7578 32.3849 15.3711 32.3849 14.7968V13.0742H26.3028Z" fill="black" fill-opacity="0.85"/>
</g>
<defs>
<clipPath id="clip0_2207_12070">
<rect width="34.957" height="15.6211" fill="white" transform="translate(0.0294189 0.148438)"/>
</clipPath>
</defs>
</svg>
