<svg width="29" height="20" viewBox="0 0 29 20" fill="none" xmlns="http://www.w3.org/2000/svg">
<g clip-path="url(#clip0_2207_9554)">
<path d="M3.76807 19.1796H16.354C18.7094 19.1796 20.1157 17.8203 20.1157 15.4648V3.85156C20.1157 1.50782 18.8266 0.148438 16.4711 0.148438H3.76807C1.51807 0.148438 0.00634766 1.50782 0.00634766 3.85156V15.4648C0.00634766 17.8203 1.4126 19.1796 3.76807 19.1796ZM21.7094 13.1211L25.9751 16.8125C26.3735 17.164 26.8422 17.3867 27.2641 17.3867C28.1782 17.3867 28.7758 16.7187 28.7758 15.7578V3.57032C28.7758 2.60938 28.1782 1.94141 27.2641 1.94141C26.8422 1.94141 26.3735 2.16406 25.9751 2.51563L21.7094 6.19532V13.1211Z" fill="black" fill-opacity="0.85"/>
</g>
<defs>
<clipPath id="clip0_2207_9554">
<rect width="28.7695" height="19.043" fill="white" transform="translate(0.00634766 0.148438)"/>
</clipPath>
</defs>
</svg>
