<svg width="25" height="25" viewBox="0 0 25 25" fill="none" xmlns="http://www.w3.org/2000/svg">
<g clip-path="url(#clip0_2207_9558)">
<path d="M12.0517 24.0527C18.5908 24.0527 24.0048 18.627 24.0048 12.0996C24.0048 5.56054 18.5791 0.146484 12.04 0.146484C5.51269 0.146484 0.0986328 5.56054 0.0986328 12.0996C0.0986328 18.627 5.52441 24.0527 12.0517 24.0527ZM12.0517 22.0606C6.52051 22.0606 2.10254 17.6309 2.10254 12.0996C2.10254 6.56836 6.50879 2.13867 12.04 2.13867C17.5713 2.13867 22.0127 6.56836 22.0127 12.0996C22.0127 17.6309 17.583 22.0606 12.0517 22.0606Z" fill="black" fill-opacity="0.85"/>
<path d="M7.12988 16.834H13.3291C14.5009 16.834 15.1924 16.1543 15.1924 14.9942V9.22851C15.1924 8.06836 14.5595 7.40039 13.3877 7.40039H7.12988C6.0166 7.40039 5.2666 8.06836 5.2666 9.22851V14.9942C5.2666 16.1543 5.96972 16.834 7.12988 16.834ZM15.8486 13.7168L18.1338 15.6504C18.3447 15.8262 18.5674 15.9434 18.7783 15.9434C19.2353 15.9434 19.5283 15.6153 19.5283 15.1231V9.08789C19.5283 8.60742 19.2353 8.27929 18.7783 8.27929C18.5674 8.27929 18.333 8.39648 18.1338 8.56054L15.8486 10.5059V13.7168Z" fill="black" fill-opacity="0.85"/>
</g>
<defs>
<clipPath id="clip0_2207_9558">
<rect width="23.9062" height="23.918" fill="white" transform="translate(0.0986328 0.146484)"/>
</clipPath>
</defs>
</svg>
