<svg width="24" height="25" viewBox="0 0 24 25" fill="none" xmlns="http://www.w3.org/2000/svg">
<g clip-path="url(#clip0_2207_18891)">
<path d="M11.993 24.0546C18.5321 24.0546 23.9461 18.6289 23.9461 12.1015C23.9461 5.5625 18.5204 0.148438 11.9813 0.148438C5.45398 0.148438 0.039917 5.5625 0.039917 12.1015C0.039917 18.6289 5.4657 24.0546 11.993 24.0546Z" fill="black" fill-opacity="0.85"/>
<path d="M8.19616 6.08984H9.78991C10.3172 6.08984 10.6688 6.4414 10.6688 6.98046C10.6688 7.48437 10.3172 7.84765 9.78991 7.84765H8.44225C7.89147 7.84765 7.64538 8.10546 7.64538 8.65624V9.96874C7.64538 10.5078 7.30553 10.8593 6.76647 10.8593C6.23913 10.8593 5.88757 10.4961 5.88757 9.96874V8.36327C5.88757 6.87499 6.67272 6.08984 8.19616 6.08984ZM15.6141 6.08984C17.1376 6.08984 17.9227 6.87499 17.9227 8.36327V9.96874C17.9227 10.4961 17.5711 10.8593 17.0438 10.8593C16.5047 10.8593 16.1649 10.5078 16.1649 9.96874V8.65624C16.1649 8.10546 15.9188 7.84765 15.368 7.84765H14.0204C13.493 7.84765 13.1415 7.48437 13.1415 6.98046C13.1415 6.4414 13.493 6.08984 14.0204 6.08984H15.6141ZM8.19616 18.125C6.67272 18.125 5.88757 17.3515 5.88757 15.8632V14.2578C5.88757 13.7187 6.23913 13.3672 6.76647 13.3672C7.30553 13.3672 7.64538 13.707 7.64538 14.2578V15.5586C7.64538 16.1211 7.89147 16.3672 8.44225 16.3672H9.78991C10.3172 16.3672 10.6688 16.7422 10.6688 17.2461C10.6688 17.7734 10.3172 18.125 9.78991 18.125H8.19616ZM15.6141 18.125H14.0204C13.493 18.125 13.1415 17.7734 13.1415 17.2461C13.1415 16.7422 13.493 16.3672 14.0204 16.3672H15.368C15.9188 16.3672 16.1649 16.1211 16.1649 15.5586V14.2578C16.1649 13.707 16.5047 13.3672 17.0438 13.3672C17.5711 13.3672 17.9227 13.7187 17.9227 14.2578V15.8632C17.9227 17.3515 17.1376 18.125 15.6141 18.125Z" fill="white"/>
</g>
<defs>
<clipPath id="clip0_2207_18891">
<rect width="23.9062" height="23.918" fill="white" transform="translate(0.039917 0.148438)"/>
</clipPath>
</defs>
</svg>
