<svg width="24" height="25" viewBox="0 0 24 25" fill="none" xmlns="http://www.w3.org/2000/svg">
<g clip-path="url(#clip0_2207_13917)">
<path d="M12.0141 24.0546C18.5532 24.0546 23.9672 18.6289 23.9672 12.1015C23.9672 5.5625 18.5415 0.148438 12.0024 0.148438C5.47509 0.148438 0.0610352 5.5625 0.0610352 12.1015C0.0610352 18.6289 5.48682 24.0546 12.0141 24.0546ZM12.0141 22.0625C6.48292 22.0625 2.06495 17.6328 2.06495 12.1015C2.06495 6.57032 6.47119 2.14063 12.0024 2.14063C17.5337 2.14063 21.9751 6.57032 21.9751 12.1015C21.9751 17.6328 17.5454 22.0625 12.0141 22.0625Z" fill="black" fill-opacity="0.85"/>
<path d="M12.0024 14.5039C13.0571 14.5039 14.1235 16.2617 16.1977 16.2617C18.2016 16.2617 19.7133 14.4336 19.7133 12.0312C19.7133 8.11719 16.268 7.67188 12.0024 7.67188C7.73681 7.67188 4.2915 8.11719 4.2915 12.0312C4.2915 14.4336 5.80322 16.2617 7.80712 16.2617C9.88134 16.2617 10.9594 14.5039 12.0024 14.5039Z" fill="black" fill-opacity="0.85"/>
</g>
<defs>
<clipPath id="clip0_2207_13917">
<rect width="23.9062" height="23.918" fill="white" transform="translate(0.0610352 0.148438)"/>
</clipPath>
</defs>
</svg>
