<svg width="39" height="20" viewBox="0 0 39 20" fill="none" xmlns="http://www.w3.org/2000/svg">
<g clip-path="url(#clip0_2207_13977)">
<path d="M22.0795 14.8437C24.3178 14.8437 26.6499 18.6172 31.103 18.6172C35.4272 18.6172 38.685 14.6914 38.685 9.53516C38.685 1.08594 31.2553 0.148438 22.0795 0.148438C12.9038 0.148438 5.4624 1.09766 5.4624 9.53516C5.4624 14.6914 8.73193 18.6172 13.0444 18.6172C17.5092 18.6172 19.8295 14.8437 22.0795 14.8437ZM22.0795 12.957C18.7045 12.957 17.146 16.7304 13.0444 16.7304C9.59912 16.7304 7.34912 13.9882 7.34912 9.53516C7.34912 2.73828 13.103 2.03516 22.0795 2.03516C31.0444 2.03516 36.7983 2.72656 36.7983 9.53516C36.7983 13.9882 34.56 16.7304 31.103 16.7304C27.0131 16.7304 25.4545 12.957 22.0795 12.957Z" fill="black" fill-opacity="0.85"/>
<path d="M11.8256 12.0664C13.0913 12.0664 14.1225 11.0351 14.1225 9.76953C14.1225 8.50391 13.0913 7.47266 11.8256 7.47266H2.34522C1.07959 7.47266 0.0483398 8.50391 0.0483398 9.76953C0.0483398 11.0351 1.07959 12.0664 2.34522 12.0664H11.8256Z" fill="white"/>
<path d="M2.35693 10.6955H11.8256L13.5952 10.6252L11.4389 12.6174C10.5483 13.4142 11.8022 14.6681 12.6108 13.8244L15.8686 10.4377C16.0913 10.2033 16.1733 10.0041 16.1733 9.76973C16.1733 9.53536 16.0913 9.32442 15.8686 9.09005L12.5991 5.69161C11.8022 4.84786 10.5014 6.05489 11.4389 6.91036L13.5952 8.90255L11.8256 8.83223H2.35693C1.86475 8.83223 1.45459 9.26583 1.45459 9.76973C1.45459 10.2736 1.86475 10.6955 2.35693 10.6955Z" fill="black" fill-opacity="0.85"/>
</g>
<defs>
<clipPath id="clip0_2207_13977">
<rect width="38.6367" height="18.9023" fill="white" transform="translate(0.0483398 0.148438)"/>
</clipPath>
</defs>
</svg>
