<svg width="24" height="25" viewBox="0 0 24 25" fill="none" xmlns="http://www.w3.org/2000/svg">
<g clip-path="url(#clip0_2207_3194)">
<path d="M12.0351 24.0546C18.5742 24.0546 23.9882 18.6289 23.9882 12.1015C23.9882 5.5625 18.5625 0.148438 12.0234 0.148438C5.49609 0.148438 0.0820312 5.5625 0.0820312 12.1015C0.0820312 18.6289 5.50781 24.0546 12.0351 24.0546Z" fill="black" fill-opacity="0.85"/>
<path d="M14.1679 8.8789C12.5976 7.67187 9.62109 6.79297 7.33594 7.64844C8.51953 6.40625 10.1953 5.60938 12.0351 5.60938C12.9258 5.60938 13.7695 5.8086 14.5547 6.125C14.9062 6.89844 14.7422 7.84765 14.1679 8.8789ZM11.6015 11.9843C9.59765 11.164 7.07812 10.6015 5.55469 11.6093C5.61328 10.7773 5.84765 9.96874 6.21094 9.2539C8.25 7.3789 11.9414 8.26953 13.6992 9.65235C13.1718 10.4257 12.4453 11.2109 11.6015 11.9843ZM7.62891 11.9257C7.6875 14.4922 8.89453 16.8828 10.0781 18.2773C7.62891 17.5039 5.80078 15.3007 5.56641 12.6757C6.01172 12.1132 6.75 11.9023 7.62891 11.9257ZM11.2968 12.8281C11.4023 14.7968 12.5625 17.2929 14.1328 18.2304C13.4648 18.4648 12.7734 18.5937 11.8945 18.5937C10.8398 18.2304 8.64844 15.3828 8.51953 12.0078C9.41015 12.125 10.3945 12.4296 11.2968 12.8281ZM15.2812 17.7148C14.6367 17.6562 13.9922 17.1406 13.4648 16.3906C16.3593 14.164 17.6953 11.6796 18.1406 9.96874C18.375 10.625 18.5156 11.3515 18.5156 12.1015C18.5156 14.4687 17.1914 16.5781 15.2812 17.7148ZM13.0078 15.6289C12.5273 14.7382 12.2109 13.6484 12.1758 12.6523C14.2265 10.8125 15.7734 8.55078 15.5508 6.6875C16.3008 7.16797 16.9453 7.80078 17.4375 8.55078C17.625 9.51171 16.7226 12.6992 13.0078 15.6289Z" fill="white"/>
</g>
<defs>
<clipPath id="clip0_2207_3194">
<rect width="23.9062" height="23.918" fill="white" transform="translate(0.0820312 0.148438)"/>
</clipPath>
</defs>
</svg>
