<svg width="24" height="25" viewBox="0 0 24 25" fill="none" xmlns="http://www.w3.org/2000/svg">
<g clip-path="url(#clip0_2207_3189)">
<path d="M12.0329 24.0546C18.572 24.0546 23.986 18.6289 23.986 12.1015C23.986 5.5625 18.5603 0.148438 12.0212 0.148438C5.49389 0.148438 0.079834 5.5625 0.079834 12.1015C0.079834 18.6289 5.50561 24.0546 12.0329 24.0546ZM12.0329 22.0625C6.50171 22.0625 2.08374 17.6328 2.08374 12.1015C2.08374 6.57032 6.48999 2.14063 12.0212 2.14063C17.5525 2.14063 21.9939 6.57032 21.9939 12.1015C21.9939 17.6328 17.5642 22.0625 12.0329 22.0625Z" fill="black" fill-opacity="0.85"/>
<path d="M14.1071 8.98437C14.6579 7.97655 14.822 7.06249 14.4821 6.31249C13.7204 5.99609 12.9001 5.80859 12.0329 5.80859C10.2517 5.80859 8.6228 6.58202 7.47436 7.78905C9.68921 6.95702 12.5837 7.81249 14.1071 8.98437ZM11.611 11.9843C12.4314 11.2343 13.1345 10.4726 13.6501 9.72265C11.9392 8.38671 8.36499 7.51952 6.38452 9.33593C6.03295 10.0391 5.8103 10.8242 5.75171 11.6328C7.22827 10.6484 9.66577 11.1875 11.611 11.9843ZM7.75561 11.9257C6.91186 11.914 6.19702 12.1132 5.76342 12.664C5.98608 15.207 7.76733 17.3398 10.1462 18.0898C8.9978 16.7422 7.81421 14.4218 7.75561 11.9257ZM11.3181 12.8046C10.4392 12.4179 9.48999 12.125 8.6228 12.0078C8.75171 15.289 10.8728 18.0429 11.8923 18.3945C12.7478 18.3945 13.4275 18.2656 14.072 18.0429C12.5486 17.1289 11.4236 14.7148 11.3181 12.8046ZM15.1853 17.539C17.0368 16.4375 18.3142 14.3984 18.3142 12.1015C18.3142 11.375 18.1736 10.6718 17.9509 10.0273C17.5173 11.6914 16.2282 14.0937 13.4157 16.2617C13.9314 16.9882 14.5525 17.4804 15.1853 17.539ZM12.9704 15.5234C16.5798 12.6875 17.447 9.59374 17.2712 8.65624C16.7907 7.92968 16.1696 7.32031 15.4431 6.85155C15.654 8.65624 14.154 10.8476 12.1736 12.6406C12.2087 13.6015 12.5134 14.6562 12.9704 15.5234Z" fill="black" fill-opacity="0.85"/>
</g>
<defs>
<clipPath id="clip0_2207_3189">
<rect width="23.9062" height="23.918" fill="white" transform="translate(0.079834 0.148438)"/>
</clipPath>
</defs>
</svg>
