<svg width="24" height="25" viewBox="0 0 24 25" fill="none" xmlns="http://www.w3.org/2000/svg">
<g clip-path="url(#clip0_2207_25271)">
<path d="M12.0412 24.0546C18.5803 24.0546 23.9943 18.6289 23.9943 12.1015C23.9943 5.5625 18.5686 0.148438 12.0295 0.148438C5.50219 0.148438 0.0881348 5.5625 0.0881348 12.1015C0.0881348 18.6289 5.51392 24.0546 12.0412 24.0546Z" fill="black" fill-opacity="0.85"/>
<path d="M8.78344 17.7617C8.16235 17.7617 7.74047 17.4218 7.58813 16.8007L5.19751 7.63672C5.16235 7.50782 5.15063 7.37891 5.15063 7.27344C5.15063 6.72266 5.51391 6.34766 6.07641 6.34766C6.65063 6.34766 6.90844 6.61719 7.06079 7.3086L8.86547 14.9843H8.94751L10.9631 7.16797C11.092 6.62891 11.4553 6.3711 12.0295 6.3711C12.6037 6.3711 12.9436 6.62891 13.0842 7.16797L15.1115 14.9843H15.1936L16.9983 7.3086C17.1506 6.61719 17.4201 6.34766 17.9943 6.34766C18.5451 6.34766 18.9201 6.72266 18.9201 7.27344C18.9201 7.37891 18.9084 7.50782 18.8615 7.63672L16.4709 16.8007C16.3186 17.4218 15.8967 17.7617 15.2522 17.7617C14.6193 17.7617 14.174 17.4336 14.0334 16.8242L12.0647 9.21875H11.9826L10.0256 16.8242C9.88501 17.4336 9.43969 17.7617 8.78344 17.7617Z" fill="white"/>
</g>
<defs>
<clipPath id="clip0_2207_25271">
<rect width="23.9062" height="23.918" fill="white" transform="translate(0.0881348 0.148438)"/>
</clipPath>
</defs>
</svg>
