<svg width="24" height="25" viewBox="0 0 24 25" fill="none" xmlns="http://www.w3.org/2000/svg">
<g clip-path="url(#clip0_2207_25266)">
<path d="M12.0393 24.0546C18.5784 24.0546 23.9924 18.6289 23.9924 12.1015C23.9924 5.5625 18.5667 0.148438 12.0276 0.148438C5.50024 0.148438 0.0861816 5.5625 0.0861816 12.1015C0.0861816 18.6289 5.51196 24.0546 12.0393 24.0546ZM12.0393 22.0625C6.50806 22.0625 2.09009 17.6328 2.09009 12.1015C2.09009 6.57032 6.49634 2.14063 12.0276 2.14063C17.5589 2.14063 22.0003 6.57032 22.0003 12.1015C22.0003 17.6328 17.5706 22.0625 12.0393 22.0625Z" fill="black" fill-opacity="0.85"/>
<path d="M8.87524 17.5859C9.50806 17.5859 9.92993 17.2695 10.0706 16.6836L11.969 9.28906H12.051L13.9612 16.6836C14.1018 17.2695 14.5237 17.5859 15.1448 17.5859C15.7659 17.5859 16.1643 17.2578 16.3167 16.6601L18.637 7.76563C18.6839 7.63672 18.6956 7.51953 18.6956 7.41406C18.6956 6.88672 18.3323 6.52344 17.7932 6.52344C17.2424 6.52344 16.9846 6.78125 16.8323 7.44922L15.0862 14.9023H15.0042L13.0354 7.32032C12.8948 6.79297 12.5667 6.54688 12.0159 6.54688C11.4651 6.54688 11.1135 6.79297 10.9846 7.32032L9.02759 14.9023H8.94556L7.19946 7.44922C7.04712 6.78125 6.80102 6.52344 6.25024 6.52344C5.69946 6.52344 5.3479 6.88672 5.3479 7.41406C5.3479 7.51953 5.35962 7.63672 5.39477 7.76563L7.71509 16.6601C7.86743 17.2578 8.26587 17.5859 8.87524 17.5859Z" fill="black" fill-opacity="0.85"/>
</g>
<defs>
<clipPath id="clip0_2207_25266">
<rect width="23.9062" height="23.918" fill="white" transform="translate(0.0861816 0.148438)"/>
</clipPath>
</defs>
</svg>
