<svg width="22" height="22" viewBox="0 0 22 22" fill="none" xmlns="http://www.w3.org/2000/svg">
<g clip-path="url(#clip0_2207_25276)">
<path d="M3.77002 21.7461H17.9848C20.4458 21.7461 21.6645 20.5273 21.6645 18.1132V3.80469C21.6645 1.39063 20.4458 0.171875 17.9848 0.171875H3.77002C1.3208 0.171875 0.090332 1.37891 0.090332 3.80469V18.1132C0.090332 20.539 1.3208 21.7461 3.77002 21.7461ZM3.79345 19.8593C2.62158 19.8593 1.97705 19.2382 1.97705 18.0195V3.89844C1.97705 2.67969 2.62158 2.0586 3.79345 2.0586H17.9614C19.1215 2.0586 19.7778 2.67969 19.7778 3.89844V18.0195C19.7778 19.2382 19.1215 19.8593 17.9614 19.8593H3.79345Z" fill="black" fill-opacity="0.85"/>
<path d="M7.74267 16.4257C8.36377 16.4257 8.78564 16.1093 8.92627 15.5234L10.8247 8.12891H10.9184L12.8169 15.5234C12.9575 16.1093 13.3794 16.4257 14.0005 16.4257C14.6215 16.4257 15.02 16.0976 15.1723 15.5L17.5044 6.60547C17.5395 6.47656 17.5512 6.35938 17.5512 6.25391C17.5512 5.72656 17.1997 5.36328 16.6489 5.36328C16.0981 5.36328 15.8403 5.6211 15.6997 6.28906L13.9419 13.7422H13.8598L11.8911 6.16016C11.7505 5.63282 11.4223 5.38672 10.8715 5.38672C10.3208 5.38672 9.98095 5.63282 9.85205 6.16016L7.8833 13.7422H7.80127L6.05517 6.28906C5.91455 5.6211 5.65674 5.36328 5.10595 5.36328C4.55517 5.36328 4.20361 5.72656 4.20361 6.25391C4.20361 6.35938 4.21533 6.47656 4.25049 6.60547L6.5708 15.5C6.72314 16.0976 7.12158 16.4257 7.74267 16.4257Z" fill="black" fill-opacity="0.85"/>
</g>
<defs>
<clipPath id="clip0_2207_25276">
<rect width="21.5742" height="21.5977" fill="white" transform="translate(0.090332 0.148438)"/>
</clipPath>
</defs>
</svg>
