<svg width="22" height="22" viewBox="0 0 22 22" fill="none" xmlns="http://www.w3.org/2000/svg">
<g clip-path="url(#clip0_2207_25281)">
<path d="M3.77198 21.7461H17.9868C20.4478 21.7461 21.6665 20.5273 21.6665 18.1132V3.80469C21.6665 1.39063 20.4478 0.171875 17.9868 0.171875H3.77198C1.32276 0.171875 0.0922852 1.37891 0.0922852 3.80469V18.1132C0.0922852 20.539 1.32276 21.7461 3.77198 21.7461Z" fill="black" fill-opacity="0.85"/>
<path d="M7.63917 16.6015C7.00635 16.6015 6.58448 16.2617 6.43213 15.6406L4.04151 6.47656C4.00635 6.34766 3.99463 6.21875 3.99463 6.11328C3.99463 5.5625 4.35791 5.1875 4.92041 5.1875C5.49463 5.1875 5.76417 5.45703 5.90479 6.14844L7.70948 13.8242H7.79151L9.81885 6.00782C9.94776 5.46875 10.2993 5.21094 10.8735 5.21094C11.4478 5.21094 11.7876 5.46875 11.9282 6.00782L13.9556 13.8242H14.0376L15.854 6.14844C15.9946 5.45703 16.2642 5.1875 16.8384 5.1875C17.4009 5.1875 17.7642 5.5625 17.7642 6.11328C17.7642 6.21875 17.7525 6.34766 17.7173 6.47656L15.315 15.6406C15.1626 16.2617 14.7407 16.6015 14.0962 16.6015C13.4634 16.6015 13.0181 16.2734 12.8775 15.664L10.9204 8.0586H10.8267L8.86963 15.664C8.72901 16.2734 8.2837 16.6015 7.63917 16.6015Z" fill="white"/>
</g>
<defs>
<clipPath id="clip0_2207_25281">
<rect width="21.5742" height="21.5977" fill="white" transform="translate(0.0922852 0.148438)"/>
</clipPath>
</defs>
</svg>
