<svg width="25" height="25" viewBox="0 0 25 25" fill="none" xmlns="http://www.w3.org/2000/svg">
<g clip-path="url(#clip0_2207_3371)">
<path d="M12.0517 24.0664C18.5908 24.0664 24.0048 18.6523 24.0048 12.1132C24.0048 5.58594 18.5791 0.160156 12.04 0.160156C5.51269 0.160156 0.0986328 5.58594 0.0986328 12.1132C0.0986328 18.6523 5.52441 24.0664 12.0517 24.0664Z" fill="black" fill-opacity="0.85"/>
<path d="M4.59863 12.1132C4.59863 8.03516 7.98535 4.64844 12.0634 4.64844C16.1533 4.64844 19.5283 8.03516 19.5283 12.1132C19.5283 16.2031 16.1416 19.5781 12.0517 19.5781C7.98535 19.5781 4.59863 16.2031 4.59863 12.1132ZM6.35644 12.1132C6.35644 15.3007 8.87597 17.832 12.0517 17.832C15.2275 17.832 17.7705 15.3007 17.7822 12.1132C17.7822 11.4336 17.665 10.789 17.4424 10.1796H6.69629C6.47363 10.789 6.35644 11.4336 6.35644 12.1132ZM7.58691 8.57422H16.5634C15.5205 7.25 13.8916 6.39453 12.0634 6.39453C10.2353 6.39453 8.61816 7.25 7.58691 8.57422Z" fill="white"/>
</g>
<defs>
<clipPath id="clip0_2207_3371">
<rect width="23.9062" height="23.918" fill="white" transform="translate(0.0986328 0.148438)"/>
</clipPath>
</defs>
</svg>
