<svg width="20" height="26" viewBox="0 0 20 26" fill="none" xmlns="http://www.w3.org/2000/svg">
<g clip-path="url(#clip0_2207_10164)">
<path d="M3.63281 25.2754H16.0781C18.4922 25.2754 19.7109 24.0449 19.7109 21.6074V3.83008C19.7109 1.38086 18.5039 0.150391 16.0781 0.150391H12.5977C12.1992 0.150391 11.9414 0.431641 11.9414 0.853516C11.9414 2.07227 11.0977 2.92773 9.85547 2.92773C8.61328 2.92773 7.75781 2.07227 7.75781 0.853516C7.75781 0.431641 7.5 0.150391 7.10156 0.150391H3.63281C1.20703 0.150391 0 1.38086 0 3.83008V21.6074C0 24.0449 1.21875 25.2754 3.63281 25.2754ZM3.72656 23.3887C2.50781 23.3887 1.88672 22.7324 1.88672 21.5723V3.86523C1.88672 2.69336 2.50781 2.03711 3.72656 2.03711H7.06641L5.97656 1.36914C6.1875 3.41992 7.71094 4.75586 9.85547 4.75586C12 4.75586 13.5234 3.41992 13.7461 1.36914L12.6445 2.03711H15.9844C17.2031 2.03711 17.8242 2.69336 17.8242 3.86523V21.5723C17.8242 22.7324 17.2031 23.3887 15.9844 23.3887H3.72656ZM5.41406 8.88086H14.3086C14.7188 8.88086 15.0234 8.56445 15.0234 8.14258C15.0234 7.74414 14.7188 7.42773 14.3086 7.42773H5.41406C4.99219 7.42773 4.6875 7.74414 4.6875 8.14258C4.6875 8.56445 4.99219 8.88086 5.41406 8.88086ZM5.41406 13.041H9.62109C10.043 13.041 10.3477 12.7246 10.3477 12.3262C10.3477 11.916 10.043 11.5996 9.62109 11.5996H5.41406C4.99219 11.5996 4.6875 11.916 4.6875 12.3262C4.6875 12.7246 4.99219 13.041 5.41406 13.041Z" fill="black" fill-opacity="0.85"/>
</g>
<defs>
<clipPath id="clip0_2207_10164">
<rect width="19.7109" height="25.1367" fill="white" transform="translate(0 0.150391)"/>
</clipPath>
</defs>
</svg>
