<svg width="25" height="26" viewBox="0 0 25 26" fill="none" xmlns="http://www.w3.org/2000/svg">
<g clip-path="url(#clip0_2207_10172)">
<path d="M21.9651 24.0215C22.4573 24.5254 23.3011 24.5254 23.7698 24.0215C24.262 23.5059 24.2503 22.709 23.7698 22.2168L12.637 11.0371C12.1448 10.5449 11.2894 10.5449 10.8206 11.0371C10.3401 11.5527 10.3519 12.3613 10.8206 12.8535L21.9651 24.0215ZM15.1565 15.9707L11.7112 12.5254C11.5003 12.3145 11.4417 12.0801 11.6409 11.8809C11.8167 11.6934 12.0745 11.7402 12.2854 11.9629L15.7308 15.4082L15.1565 15.9707Z" fill="black" fill-opacity="0.85"/>
<path d="M23.9456 13.6504C24.5081 13.6504 24.9769 13.1816 24.9769 12.6309C24.9769 12.0801 24.5081 11.6113 23.9456 11.6113H20.3362C19.7854 11.6113 19.3167 12.0801 19.3167 12.6309C19.3167 13.1816 19.7854 13.6504 20.3362 13.6504H23.9456Z" fill="black" fill-opacity="0.85"/>
<path d="M17.2894 6.39648C16.8909 6.7832 16.8909 7.43945 17.2894 7.83789C17.6761 8.22461 18.344 8.22461 18.7425 7.83789L21.2854 5.2832C21.6839 4.88477 21.6839 4.22851 21.2854 3.83008C20.8987 3.44336 20.2425 3.44336 19.8558 3.83008L17.2894 6.39648Z" fill="black" fill-opacity="0.85"/>
<path d="M13.5159 1.16992C13.5159 0.619141 13.0472 0.150391 12.4847 0.150391C11.9339 0.150391 11.4651 0.619141 11.4651 1.16992V4.7793C11.4651 5.3418 11.9339 5.81055 12.4847 5.81055C13.0472 5.81055 13.5159 5.3418 13.5159 4.7793V1.16992Z" fill="black" fill-opacity="0.85"/>
<path d="M6.23853 7.83795C6.62524 8.22468 7.28149 8.22468 7.67993 7.83795C8.06665 7.43952 8.06665 6.78326 7.67993 6.39654L5.13696 3.84187C4.75024 3.45515 4.09399 3.44342 3.69556 3.83014C3.30884 4.21686 3.30884 4.87311 3.69556 5.27154L6.23853 7.83795Z" fill="black" fill-opacity="0.85"/>
<path d="M1.02368 11.6113C0.4729 11.6113 0.00415039 12.0801 0.00415039 12.6309C0.00415039 13.1816 0.4729 13.6504 1.02368 13.6504H4.65649C5.20727 13.6504 5.67603 13.1816 5.67603 12.6309C5.67603 12.0801 5.20727 11.6113 4.65649 11.6113H1.02368Z" fill="black" fill-opacity="0.85"/>
<path d="M3.68383 19.9785C3.29711 20.3652 3.29711 21.0332 3.67211 21.4199C4.05883 21.8066 4.7268 21.8184 5.12523 21.4316L7.67992 18.877C8.06664 18.4902 8.06664 17.834 7.67992 17.4473C7.30492 17.0488 6.62523 17.0488 6.23852 17.4473L3.68383 19.9785Z" fill="black" fill-opacity="0.85"/>
<path d="M13.5159 20.4942C13.5159 19.9316 13.0472 19.4629 12.4847 19.4629C11.9339 19.4629 11.4651 19.9316 11.4651 20.4942V24.1035C11.4651 24.6543 11.9339 25.1231 12.4847 25.1231C13.0472 25.1231 13.5159 24.6543 13.5159 24.1035V20.4942Z" fill="black" fill-opacity="0.85"/>
</g>
<defs>
<clipPath id="clip0_2207_10172">
<rect width="24.9727" height="25.0664" fill="white" transform="translate(0.00415039 0.150391)"/>
</clipPath>
</defs>
</svg>
