<svg width="25" height="28" viewBox="0 0 25 28" fill="none" xmlns="http://www.w3.org/2000/svg">
<g clip-path="url(#clip0_2207_12231)">
<path d="M17.6482 1.25195H2.74194C1.11303 1.25195 0.0231934 2.37695 0.0231934 4.05273V7.16992H20.3552V4.05273C20.3552 2.37695 19.2654 1.25195 17.6482 1.25195ZM4.26538 5.83398C3.67944 5.83398 3.19897 5.3418 3.19897 4.76758C3.19897 4.16992 3.67944 3.68945 4.26538 3.68945C4.85131 3.68945 5.32007 4.16992 5.32007 4.76758C5.32007 5.3418 4.85131 5.83398 4.26538 5.83398ZM7.34741 5.83398C6.76147 5.83398 6.29272 5.3418 6.29272 4.76758C6.29272 4.16992 6.76147 3.68945 7.34741 3.68945C7.93335 3.68945 8.4021 4.16992 8.4021 4.76758C8.4021 5.3418 7.93335 5.83398 7.34741 5.83398ZM13.8982 5.37695C13.5349 5.37695 13.3005 5.13086 13.3005 4.76758C13.3005 4.39258 13.5349 4.14648 13.8982 4.14648H16.781C17.156 4.14648 17.3904 4.39258 17.3904 4.76758C17.3904 5.13086 17.156 5.37695 16.781 5.37695H13.8982ZM2.74194 25.8613H17.6482C19.2654 25.8613 20.3552 24.7481 20.3552 23.0723V8.76367H0.0231934V23.0723C0.0231934 24.7481 1.11303 25.8613 2.74194 25.8613ZM10.1951 23.2129C6.69116 23.2129 3.85522 20.377 3.85522 16.8848C3.85522 13.3926 6.69116 10.5449 10.1951 10.5449C13.6873 10.5449 16.5232 13.3926 16.5232 16.8848C16.5232 20.377 13.6873 23.2129 10.1951 23.2129ZM10.1951 21.9004C12.9841 21.9004 15.2107 19.6738 15.2107 16.8848C15.2107 14.084 12.9841 11.8574 10.1951 11.8574C7.39428 11.8574 5.16772 14.084 5.16772 16.8848C5.16772 19.6738 7.39428 21.9004 10.1951 21.9004Z" fill="black" fill-opacity="0.85"/>
<path d="M14.0974 27.2323H19.1951C20.3552 27.2323 21.3865 26.5526 21.8201 25.3925L24.199 18.9706C24.656 17.7753 24.0584 16.5683 22.9685 16.1698C22.2302 15.9003 21.3982 16.0526 20.8123 16.58C20.3318 16.4159 19.7927 16.3105 19.3357 16.3105C18.5037 16.3105 17.7185 16.5683 16.6521 17.1894C15.574 16.5683 14.7888 16.3105 13.9568 16.3105C13.4998 16.3105 12.9724 16.4159 12.492 16.58C11.8943 16.0526 11.074 15.9003 10.324 16.1698C9.24584 16.5683 8.64818 17.7753 9.09349 18.9706L11.4724 25.3925C11.906 26.5526 12.949 27.2323 14.0974 27.2323Z" fill="white"/>
<path d="M14.0974 25.8612H19.1951C19.7927 25.8612 20.3084 25.5331 20.5427 24.912L22.9216 18.5019C23.1091 17.9745 22.8513 17.5878 22.4998 17.4589C22.1365 17.3183 21.6794 17.4472 21.4802 17.9628L21.3162 18.3964C20.7302 18.0917 20.2029 17.6815 19.3357 17.6815C18.0115 17.6815 17.5779 18.5605 16.6521 18.5605C15.7263 18.5605 15.281 17.6815 13.9568 17.6815C13.0896 17.6815 12.574 18.0917 11.988 18.3964L11.8123 17.9628C11.6248 17.4472 11.156 17.3183 10.8044 17.4589C10.4412 17.5878 10.1951 17.9745 10.3826 18.5019L12.7615 24.912C12.9841 25.5331 13.5115 25.8612 14.0974 25.8612ZM14.4841 24.3261C14.2966 24.3261 14.156 24.2441 14.074 24.0214L12.3513 19.4159C12.9255 19.1112 13.324 18.7831 13.9568 18.7831C14.9998 18.7831 15.3044 19.662 16.6521 19.662C17.988 19.662 18.2927 18.7831 19.3357 18.7831C19.9802 18.7831 20.367 19.1112 20.9412 19.4159L19.2185 24.0214C19.1365 24.2441 18.9959 24.3261 18.8084 24.3261H14.4841Z" fill="black" fill-opacity="0.85"/>
</g>
<defs>
<clipPath id="clip0_2207_12231">
<rect width="24.3306" height="27.082" fill="white" transform="translate(0.0231934 0.150391)"/>
</clipPath>
</defs>
</svg>
