<svg width="22" height="23" viewBox="0 0 22 23" fill="none" xmlns="http://www.w3.org/2000/svg">
<g clip-path="url(#clip0_2207_14139)">
<path d="M5.28906 22.5684H14.2187C17.5117 22.5684 19.4804 20.5645 19.4804 17.2129V5.5293C19.4804 2.17773 17.5117 0.185547 14.2187 0.185547H5.28906C1.99609 0.185547 0.0273438 2.17773 0.0273438 5.5293V17.2129C0.0273438 20.5645 1.99609 22.5684 5.28906 22.5684ZM5.20703 20.6816C3.14453 20.6816 1.91406 19.4277 1.91406 17.2949V5.50586C1.91406 3.38477 3.14453 2.13086 5.20703 2.13086H14.3007C16.375 2.13086 17.5937 3.38477 17.5937 5.50586V17.2949C17.5937 19.4277 16.375 20.6816 14.3007 20.6816H5.20703ZM19.2695 10.1465H19.7968C20.5468 10.1465 21.0273 9.63086 21.0273 8.82227V6.86523C21.0273 6.0332 20.5468 5.51758 19.7968 5.51758H19.2695V10.1465Z" fill="black" fill-opacity="0.85"/>
<path d="M8.48828 12.1973C9.07422 12.6895 9.61328 12.6895 10.1757 12.1973L15.0156 7.97851C15.3671 7.66211 15.3671 7.11133 15.0273 6.75977C14.6875 6.41992 14.1718 6.41992 13.7851 6.75977L9.32031 10.627L6.60156 8.31836C6.25 8.01367 5.6875 8.07227 5.38281 8.42383C5.0664 8.79883 5.125 9.34961 5.5 9.66601L8.48828 12.1973Z" fill="black" fill-opacity="0.85"/>
</g>
<defs>
<clipPath id="clip0_2207_14139">
<rect width="21" height="22.418" fill="white" transform="translate(0.0273438 0.150391)"/>
</clipPath>
</defs>
</svg>
