<svg width="13" height="28" viewBox="0 0 13 28" fill="none" xmlns="http://www.w3.org/2000/svg">
<g clip-path="url(#clip0_2207_21243)">
<path d="M3.27637 3.16211H9.6748C10.2725 3.16211 10.7178 2.74023 10.7178 2.11914V1.19336C10.7178 0.583985 10.2725 0.150391 9.6748 0.150391H3.27637C2.65527 0.150391 2.2334 0.583985 2.2334 1.19336V2.11914C2.2334 2.74023 2.65527 3.16211 3.27637 3.16211ZM0.053711 8.8457H12.8858C12.8389 7.50977 12.6162 6.53711 11.8428 5.50586L11.585 5.14258C11.2686 4.7207 10.7412 4.41601 10.2139 4.41601H2.71387C2.18652 4.41601 1.6709 4.7207 1.35449 5.14258L1.08496 5.50586C0.311523 6.53711 0.100586 7.50977 0.053711 8.8457ZM0.0419922 10.3809V22.2754H12.8975V10.3809H0.0419922ZM6.46387 20.3652C4.76465 20.3652 3.65137 19.2871 3.65137 17.6465C3.65137 16.8027 4.03808 16.1231 4.22558 15.6777C4.6709 14.7285 5.40918 13.4863 6.03027 12.5371C6.15918 12.3496 6.31152 12.2442 6.46387 12.2442C6.62793 12.2442 6.78027 12.3496 6.89746 12.5371C7.51855 13.4863 8.28027 14.7285 8.70215 15.6777C8.91308 16.1231 9.28808 16.8027 9.28808 17.6465C9.28808 19.2871 8.1748 20.3652 6.46387 20.3652ZM0.0419922 23.8106V24.0098C0.0419922 26.541 1.2959 27.9121 3.59277 27.9121H9.34668C11.6318 27.9121 12.8975 26.541 12.8975 24.0098V23.8106H0.0419922Z" fill="black" fill-opacity="0.85"/>
</g>
<defs>
<clipPath id="clip0_2207_21243">
<rect width="12.8555" height="27.7852" fill="white" transform="translate(0.0419922 0.150391)"/>
</clipPath>
</defs>
</svg>
