<svg width="14" height="29" viewBox="0 0 14 29" fill="none" xmlns="http://www.w3.org/2000/svg">
<g clip-path="url(#clip0_2207_21239)">
<path d="M3.35633 3.16211H10.1766C10.7743 3.16211 11.2196 2.74023 11.2196 2.11914V1.19336C11.2196 0.583985 10.7743 0.150391 10.1766 0.150391H3.35633C2.73523 0.150391 2.31336 0.583985 2.31336 1.19336V2.11914C2.31336 2.74023 2.73523 3.16211 3.35633 3.16211ZM5.20789 2.89258L3.33289 2.3418L1.09461 5.45898C0.250855 6.64258 0.039917 7.76758 0.039917 9.36133V23.9863C0.039917 26.5645 1.32898 27.9942 3.67273 27.9942H9.84851C12.1805 27.9942 13.493 26.5645 13.493 23.9863V9.36133C13.493 7.76758 13.2587 6.64258 12.4149 5.45898L10.1883 2.3418L8.30164 2.89258L10.8094 6.44336C11.4891 7.42773 11.6063 8.02539 11.6063 9.36133V23.9863C11.6063 25.3809 10.9969 26.1074 9.84851 26.1074H3.67273C2.5243 26.1074 1.92664 25.3809 1.92664 23.9863V9.36133C1.92664 8.02539 2.02039 7.42773 2.7118 6.44336L5.20789 2.89258ZM1.20008 9.10351V10.5801H12.3094V9.10351H1.20008ZM6.75476 20.1309C8.40711 20.1309 9.47351 19.0762 9.47351 17.5059C9.47351 16.6738 9.13367 16.0176 8.92273 15.6074C8.51258 14.6582 7.78601 13.4629 7.17664 12.5488C7.05945 12.3613 6.91883 12.2676 6.75476 12.2676C6.60242 12.2676 6.4618 12.3613 6.33289 12.5488C5.72351 13.4629 5.02039 14.6582 4.5868 15.6074C4.3993 16.0176 4.03601 16.6738 4.03601 17.5059C4.03601 19.0762 5.11414 20.1309 6.75476 20.1309ZM1.20008 22.0762V23.5527H12.3094V22.0762H1.20008Z" fill="black" fill-opacity="0.85"/>
</g>
<defs>
<clipPath id="clip0_2207_21239">
<rect width="13.4531" height="27.8555" fill="white" transform="translate(0.039917 0.150391)"/>
</clipPath>
</defs>
</svg>
