<svg width="24" height="25" viewBox="0 0 24 25" fill="none" xmlns="http://www.w3.org/2000/svg">
<g clip-path="url(#clip0_2207_15010)">
<path d="M12.0119 24.0566C18.551 24.0566 23.965 18.6309 23.965 12.1035C23.965 5.56445 18.5393 0.150391 12.0002 0.150391C5.4729 0.150391 0.0588379 5.56445 0.0588379 12.1035C0.0588379 18.6309 5.48462 24.0566 12.0119 24.0566ZM12.0119 22.0645C6.48072 22.0645 2.06275 17.6348 2.06275 12.1035C2.06275 6.57227 6.469 2.14258 12.0002 2.14258C17.5315 2.14258 21.9729 6.57227 21.9729 12.1035C21.9729 17.6348 17.5432 22.0645 12.0119 22.0645Z" fill="black" fill-opacity="0.85"/>
<path d="M7.12524 12.0919C7.12524 14.7872 7.92211 17.3888 9.3518 19.4513C9.64477 19.8263 10.1252 19.9317 10.4885 19.6739C10.8635 19.4044 10.9221 18.9239 10.6408 18.5255C9.41039 16.7677 8.69555 14.4474 8.69555 12.0919C8.69555 9.71304 9.39867 7.42789 10.6408 5.65836C10.9221 5.27164 10.8635 4.77945 10.4885 4.50992C10.1135 4.2521 9.63305 4.34586 9.3518 4.7443C7.92211 6.81852 7.12524 9.42007 7.12524 12.0919Z" fill="black" fill-opacity="0.85"/>
<path d="M10.7932 12.092C10.7932 14.049 11.3674 15.9475 12.4104 17.4006C12.6916 17.7873 13.1604 17.8694 13.5354 17.6115C13.8869 17.3654 13.969 16.8733 13.6877 16.4631C12.8557 15.3147 12.3869 13.7326 12.3869 12.092C12.3869 10.4631 12.8557 8.88102 13.6877 7.73258C13.969 7.32243 13.8869 6.83024 13.5354 6.58414C13.1604 6.31461 12.6916 6.40836 12.4104 6.78336C11.3674 8.21305 10.7932 10.0998 10.7932 12.092Z" fill="black" fill-opacity="0.85"/>
<path d="M14.4612 12.0917C14.4612 13.3222 14.8245 14.5409 15.4456 15.3612C15.7034 15.7245 16.1956 15.83 16.5589 15.5839C16.9573 15.2909 17.0277 14.7987 16.723 14.3769C16.3011 13.8026 16.055 12.9472 16.055 12.0917C16.055 11.2128 16.3011 10.3573 16.723 9.81825C17.0394 9.39637 16.9691 8.88075 16.5589 8.5995C16.1956 8.36512 15.7151 8.47059 15.4456 8.82216C14.8245 9.68934 14.4612 10.8964 14.4612 12.0917Z" fill="black" fill-opacity="0.85"/>
</g>
<defs>
<clipPath id="clip0_2207_15010">
<rect width="23.9062" height="23.918" fill="white" transform="translate(0.0588379 0.150391)"/>
</clipPath>
</defs>
</svg>
