<svg width="32" height="25" viewBox="0 0 32 25" fill="none" xmlns="http://www.w3.org/2000/svg">
<g id="waveform.and.person.filled" clip-path="url(#clip0_2201_1051)">
<g id="Group">
<path id="Vector" d="M16.7109 22.0312C17.2383 22.0312 17.6602 21.6094 17.6602 21.0938V3.69141C17.6602 3.17578 17.2383 2.74219 16.7109 2.74219C16.1719 2.74219 15.7734 3.17578 15.7734 3.69141V21.0938C15.7734 21.6094 16.1719 22.0312 16.7109 22.0312Z" fill="black" fill-opacity="0.85"/>
<path id="Vector_2" d="M12.7734 18.4805C13.3008 18.4805 13.7109 18.0703 13.7109 17.543V7.24219C13.7109 6.71484 13.3008 6.29297 12.7734 6.29297C12.2227 6.29297 11.8242 6.71484 11.8242 7.24219V17.543C11.8242 18.0703 12.2227 18.4805 12.7734 18.4805Z" fill="black" fill-opacity="0.85"/>
<path id="Vector_3" d="M8.8125 24.6328C9.36328 24.6328 9.77344 24.2109 9.77344 23.6836V1.10156C9.77344 0.574219 9.36328 0.152344 8.8125 0.152344C8.28516 0.152344 7.88672 0.574219 7.88672 1.10156V23.6836C7.88672 24.2109 8.28516 24.6328 8.8125 24.6328Z" fill="black" fill-opacity="0.85"/>
<path id="Vector_4" d="M4.875 19.9102C5.41406 19.9102 5.83594 19.4883 5.83594 18.9609V5.82422C5.83594 5.29688 5.41406 4.86328 4.875 4.86328C4.34766 4.86328 3.94922 5.29688 3.94922 5.82422V18.9609C3.94922 19.4883 4.34766 19.9102 4.875 19.9102Z" fill="black" fill-opacity="0.85"/>
<path id="Vector_5" d="M0.9375 15.1172C1.47656 15.1172 1.88672 14.6953 1.88672 14.168V10.6172C1.88672 10.0898 1.47656 9.65625 0.9375 9.65625C0.398438 9.65625 0 10.0898 0 10.6172V14.168C0 14.6953 0.398438 15.1172 0.9375 15.1172Z" fill="black" fill-opacity="0.85"/>
<path id="Vector_6" d="M17.1445 24.7852H28.4531C30.1992 24.7852 31.4766 23.6836 31.4766 22.0664C31.4766 18.9844 28.043 15.2812 22.8047 15.2812C17.5547 15.2812 14.1094 18.9844 14.1094 22.0664C14.1094 23.6836 15.3984 24.7852 17.1445 24.7852Z" fill="white"/>
<path id="Vector_7" d="M17.1445 23.1797H28.4531C29.3438 23.1797 29.8828 22.7695 29.8828 22.0664C29.8828 19.8867 27.1758 16.8867 22.8047 16.8867C18.4219 16.8867 15.7148 19.8867 15.7148 22.0664C15.7148 22.7695 16.2539 23.1797 17.1445 23.1797ZM22.8047 15.3867C24.6094 15.3867 26.168 13.7695 26.168 11.6602C26.168 9.58594 24.5977 8.05078 22.8047 8.05078C21.0117 8.05078 19.4297 9.60938 19.4297 11.6836C19.4297 13.7695 21 15.3867 22.8047 15.3867Z" fill="black" fill-opacity="0.85"/>
</g>
</g>
<defs>
<clipPath id="clip0_2201_1051">
<rect width="31.4766" height="24.7852" fill="white"/>
</clipPath>
</defs>
</svg>
