<svg width="24" height="25" viewBox="0 0 24 25" fill="none" xmlns="http://www.w3.org/2000/svg">
<g clip-path="url(#clip0_2207_21634)">
<path d="M12.0393 24.0684C18.5784 24.0684 23.9924 18.6543 23.9924 12.1152C23.9924 5.58789 18.5667 0.162109 12.0276 0.162109C5.50024 0.162109 0.0861816 5.58789 0.0861816 12.1152C0.0861816 18.6543 5.51196 24.0684 12.0393 24.0684Z" fill="black" fill-opacity="0.85"/>
<path d="M18.18 14.377C17.7581 14.377 17.4417 14.0606 17.4417 13.6504V10.5684C17.4417 10.1582 17.7581 9.83008 18.18 9.83008C18.5901 9.83008 18.8948 10.1465 18.8948 10.5684V13.6504C18.8948 14.0723 18.5901 14.377 18.18 14.377Z" fill="white"/>
<path d="M15.719 17.1074C15.2971 17.1074 14.9807 16.791 14.9807 16.3926V7.82617C14.9807 7.42773 15.2971 7.09961 15.719 7.09961C16.1292 7.09961 16.4456 7.42773 16.4456 7.82617V16.3926C16.4456 16.791 16.1292 17.1074 15.719 17.1074Z" fill="white"/>
<path d="M13.2581 14.8574C12.8596 14.8574 12.5315 14.541 12.5315 14.1309V10.0762C12.5315 9.67773 12.8596 9.36133 13.2581 9.36133C13.6682 9.36133 13.9846 9.67773 13.9846 10.0762V14.1309C13.9846 14.541 13.6682 14.8574 13.2581 14.8574Z" fill="white"/>
<path d="M10.8206 18.7949C10.3987 18.7949 10.0823 18.4902 10.0823 18.0684V6.15039C10.0823 5.74023 10.4104 5.42383 10.8206 5.42383C11.219 5.42383 11.5354 5.74023 11.5354 6.15039V18.0684C11.5354 18.4785 11.219 18.7949 10.8206 18.7949Z" fill="white"/>
<path d="M8.35962 15.959C7.94946 15.959 7.63306 15.6426 7.63306 15.209V8.98633C7.63306 8.57617 7.94946 8.25977 8.35962 8.25977C8.78149 8.25977 9.0979 8.57617 9.0979 8.98633V15.209C9.0979 15.6426 8.78149 15.959 8.35962 15.959Z" fill="white"/>
<path d="M5.89868 13.8965C5.51196 13.8965 5.18384 13.5801 5.18384 13.1582V11.0371C5.18384 10.6387 5.50024 10.3223 5.89868 10.3223C6.32056 10.3223 6.63696 10.6387 6.63696 11.0371V13.1582C6.63696 13.5801 6.32056 13.8965 5.89868 13.8965Z" fill="white"/>
</g>
<defs>
<clipPath id="clip0_2207_21634">
<rect width="23.9062" height="23.918" fill="white" transform="translate(0.0861816 0.150391)"/>
</clipPath>
</defs>
</svg>
