<svg width="28" height="22" viewBox="0 0 28 22" fill="none" xmlns="http://www.w3.org/2000/svg">
<g clip-path="url(#clip0_2207_21583)">
<path d="M0.0986328 11.9746V10.4629H4.3291L6.42675 5.33008C6.70801 4.65039 7.65722 4.66211 7.86816 5.29492L10.5869 13.5449L11.4658 11.0957C11.6064 10.6856 11.8525 10.4629 12.333 10.4629H15.0869L17.1963 5.33008C17.4658 4.65039 18.4267 4.66211 18.6259 5.29492L21.3564 13.5449L22.2236 11.0957C22.3759 10.6856 22.622 10.4629 23.0908 10.4629H27.7314V11.9746H23.5127L22.0947 16.4395C21.8838 17.0957 20.8408 17.1192 20.6416 16.4746L17.9228 7.74414L16.3759 11.3418C16.2119 11.752 15.9892 11.9746 15.5088 11.9746H12.7431L11.3252 16.4395C11.1142 17.0957 10.083 17.1192 9.88379 16.4746L7.15332 7.74414L5.67675 11.3418C5.50097 11.752 5.27832 11.9746 4.57519 11.9746H0.0986328ZM3.77832 21.7246H24.0517C26.5127 21.7246 27.7314 20.5176 27.7314 18.1035V3.7832C27.7314 1.36914 26.5127 0.150391 24.0517 0.150391H3.77832C1.3291 0.150391 0.0986328 1.36914 0.0986328 3.7832V18.1035C0.0986328 20.5176 1.3291 21.7246 3.77832 21.7246Z" fill="black" fill-opacity="0.85"/>
</g>
<defs>
<clipPath id="clip0_2207_21583">
<rect width="27.6328" height="21.5742" fill="white" transform="translate(0.0986328 0.150391)"/>
</clipPath>
</defs>
</svg>
