<svg width="17" height="29" viewBox="0 0 17 29" fill="none" xmlns="http://www.w3.org/2000/svg">
<g clip-path="url(#clip0_2207_15044)">
<path d="M16.9852 14.0897C16.9852 9.13261 15.4383 4.51542 12.6844 0.69511C11.8407 -0.488484 10.118 0.542766 11.0321 1.77323C13.5985 5.30058 14.9696 9.55448 14.9696 14.0897C14.9696 18.6248 13.5868 22.867 11.0321 26.3943C10.1415 27.6131 11.8055 28.7029 12.6844 27.4842C15.4383 23.6522 16.9852 19.035 16.9852 14.0897Z" fill="black" fill-opacity="0.85"/>
<path d="M10.5986 14.0893C10.5986 10.4096 9.4384 6.95251 7.35247 4.15173C6.41497 2.89782 4.78606 4.10485 5.66497 5.25329C7.57512 7.7611 8.59465 10.8197 8.59465 14.0893C8.59465 17.3588 7.57512 20.4174 5.66497 22.9252C4.78606 24.0736 6.41497 25.2807 7.35247 24.015C9.4384 21.2143 10.5986 17.7689 10.5986 14.0893Z" fill="black" fill-opacity="0.85"/>
<path d="M4.23531 14.0896C4.23531 11.6755 3.40328 9.42548 1.92672 7.66766C0.954058 6.51923 -0.463911 7.82001 0.262652 8.75751C1.68062 10.5388 2.21968 12.0271 2.21968 14.0896C2.21968 16.1521 1.68062 17.6403 0.262652 19.4216C-0.452192 20.3474 0.965777 21.6364 1.92672 20.4997C3.40328 18.7536 4.23531 16.5036 4.23531 14.0896Z" fill="black" fill-opacity="0.85"/>
</g>
<defs>
<clipPath id="clip0_2207_15044">
<rect width="16.9223" height="27.8664" fill="white" transform="translate(0.0629883 0.150391)"/>
</clipPath>
</defs>
</svg>
