<svg width="19" height="24" viewBox="0 0 19 24" fill="none" xmlns="http://www.w3.org/2000/svg">
<g clip-path="url(#clip0_2207_11579)">
<path d="M9.42408 19.0069C14.6155 19.0069 18.8342 14.7881 18.8342 9.57325C18.8342 4.37012 14.6155 0.151367 9.42408 0.151367C4.22095 0.151367 0.00219727 4.37012 0.00219727 9.57325C0.00219727 14.7881 4.22095 19.0069 9.42408 19.0069ZM9.42408 17.1202C5.20532 17.1202 1.88892 13.8037 1.88892 9.57325C1.88892 5.34278 5.20532 2.03809 9.42408 2.03809C13.6428 2.03809 16.9475 5.34278 16.9475 9.57325C16.9475 13.8037 13.6428 17.1202 9.42408 17.1202ZM8.48658 22.8272H10.3733V18.1397H8.48658V22.8272ZM5.32251 23.7647H13.5256C14.0413 23.7647 14.4631 23.3428 14.4631 22.8272C14.4631 22.3116 14.0413 21.878 13.5256 21.878H5.33423C4.81861 21.878 4.38501 22.3116 4.38501 22.8272C4.38501 23.3428 4.80689 23.7647 5.32251 23.7647Z" fill="black" fill-opacity="0.85"/>
<path d="M9.42407 15.0459C12.4827 15.0459 14.8733 12.6319 14.8733 9.57324C14.8733 6.52636 12.4827 4.1123 9.42407 4.1123C6.37719 4.1123 3.96313 6.52636 3.96313 9.57324C3.96313 12.6319 6.37719 15.0459 9.42407 15.0459ZM9.42407 12.1162C8.0061 12.1162 6.8811 10.9912 6.8811 9.57324C6.8811 8.15527 8.0061 7.03027 9.42407 7.03027C10.842 7.03027 11.9553 8.15527 11.9553 9.57324C11.9553 10.9912 10.842 12.1162 9.42407 12.1162Z" fill="black" fill-opacity="0.85"/>
</g>
<defs>
<clipPath id="clip0_2207_11579">
<rect width="18.832" height="23.6367" fill="white" transform="translate(0.00219727 0.151367)"/>
</clipPath>
</defs>
</svg>
