<svg width="27" height="20" viewBox="0 0 27 20" fill="none" xmlns="http://www.w3.org/2000/svg">
<g clip-path="url(#clip0_2207_12816)">
<path d="M1.77767 8.36621C2.01204 8.58887 2.34017 8.58887 2.56282 8.35449C5.44563 5.2959 9.24251 3.67871 13.4964 3.67871C17.7737 3.67871 21.594 5.30762 24.4534 8.36621C24.6643 8.57715 24.9807 8.56543 25.2151 8.34278L26.8323 6.72559C27.0432 6.51465 27.0315 6.25684 26.8675 6.05762C24.1136 2.65918 18.9339 0.163086 13.4964 0.163086C8.07063 0.163086 2.86751 2.65918 0.12532 6.05762C-0.0387431 6.25684 -0.0387431 6.51465 0.160476 6.72559L1.77767 8.36621Z" fill="black" fill-opacity="0.85"/>
<path d="M6.64094 13.2647C6.89875 13.5108 7.21516 13.4756 7.44953 13.2178C8.85578 11.6592 11.1526 10.5225 13.4964 10.5342C15.8636 10.5225 18.1604 11.6944 19.5901 13.253C19.8011 13.4991 20.094 13.4873 20.3518 13.253L22.1682 11.4483C22.3557 11.2608 22.3792 11.003 22.2034 10.792C20.4339 8.62403 17.1526 6.99512 13.4964 6.99512C9.84016 6.99512 6.55891 8.62403 4.78937 10.792C4.61359 11.003 4.62531 11.2373 4.82453 11.4483L6.64094 13.2647Z" fill="black" fill-opacity="0.85"/>
<path d="M13.4965 19.6397C13.7543 19.6397 13.9769 19.5225 14.434 19.0772L17.2933 16.335C17.4691 16.1592 17.516 15.9014 17.3519 15.6905C16.5902 14.7061 15.1488 13.8506 13.4965 13.8506C11.7972 13.8506 10.3558 14.7412 9.59407 15.7608C9.47688 15.9483 9.52376 16.1592 9.71126 16.335L12.559 19.0772C13.016 19.5108 13.2387 19.6397 13.4965 19.6397Z" fill="black" fill-opacity="0.85"/>
</g>
<defs>
<clipPath id="clip0_2207_12816">
<rect width="26.9843" height="19.4883" fill="white" transform="translate(0.00634766 0.151367)"/>
</clipPath>
</defs>
</svg>
