<svg width="24" height="25" viewBox="0 0 24 25" fill="none" xmlns="http://www.w3.org/2000/svg">
<g clip-path="url(#clip0_2207_12829)">
<path d="M11.9636 24.0694C18.5027 24.0694 23.9167 18.6553 23.9167 12.1162C23.9167 5.58887 18.491 0.163086 11.9519 0.163086C5.42456 0.163086 0.010498 5.58887 0.010498 12.1162C0.010498 18.6553 5.43628 24.0694 11.9636 24.0694Z" fill="black" fill-opacity="0.85"/>
<path d="M5.26049 11.3311L4.36987 10.4053C4.21752 10.253 4.19408 10.0537 4.32299 9.87793C5.96361 7.86231 8.98705 6.52637 11.9753 6.52637C14.9519 6.52637 17.9753 7.87403 19.616 9.87793C19.7566 10.0537 19.7332 10.253 19.5808 10.4053L18.6785 11.3194C18.5027 11.5069 18.2566 11.5069 18.0808 11.3311C16.4988 9.62012 14.366 8.72949 11.9753 8.72949C9.57299 8.72949 7.46361 9.63184 5.88158 11.3194C5.69408 11.5186 5.41283 11.5303 5.26049 11.3311Z" fill="white"/>
<path d="M8.02612 14.0966L7.00659 13.0654C6.86597 12.913 6.84253 12.7255 6.97144 12.5615C8.073 11.2372 9.99488 10.3818 11.9753 10.3818C13.9441 10.3818 15.866 11.2255 16.9675 12.5615C17.1082 12.7138 17.0964 12.9247 16.9441 13.0654L15.9128 14.0966C15.7371 14.2841 15.5027 14.2958 15.3152 14.0849C14.4832 13.1708 13.1941 12.5849 11.9753 12.5966C10.7332 12.5849 9.46753 13.1708 8.64722 14.0732C8.448 14.3075 8.21362 14.2841 8.02612 14.0966Z" fill="white"/>
<path d="M11.9753 17.7411C11.7878 17.7411 11.6472 17.6708 11.3777 17.4013L9.7605 15.831C9.63159 15.7021 9.59644 15.538 9.69019 15.3857C10.1941 14.6943 11.0847 14.249 11.9753 14.249C12.8543 14.249 13.7449 14.6825 14.2253 15.3271C14.3543 15.4911 14.3191 15.7021 14.1902 15.831L12.5847 17.4013C12.2917 17.6825 12.1628 17.7411 11.9753 17.7411Z" fill="white"/>
</g>
<defs>
<clipPath id="clip0_2207_12829">
<rect width="23.9062" height="23.918" fill="white" transform="translate(0.010498 0.151367)"/>
</clipPath>
</defs>
</svg>
