<svg width="40" height="25" viewBox="0 0 40 25" fill="none" xmlns="http://www.w3.org/2000/svg">
<g clip-path="url(#clip0_2207_15855)">
<path d="M38.345 20.1084C39.177 20.1084 39.8802 19.4287 39.8802 18.6319C39.8802 17.8233 39.1888 17.1553 38.345 17.1553C37.4895 17.1553 36.8098 17.8233 36.8098 18.6319C36.8098 19.4287 37.5013 20.1084 38.345 20.1084ZM38.345 14.9053C38.9192 14.9053 39.3177 14.5069 39.3411 13.9092L39.5872 5.61231C39.6106 4.86231 39.1184 4.3584 38.345 4.3584C37.5716 4.3584 37.0677 4.86231 37.0911 5.61231L37.3372 13.9092C37.3606 14.5069 37.7708 14.9053 38.345 14.9053Z" fill="black" fill-opacity="0.85"/>
<path d="M17.0756 17.4366C19.3842 17.4366 22.0795 18.128 24.0834 19.1826C24.6224 19.4639 25.2201 19.3584 25.5717 18.9014L33.5404 8.72949C34.3373 7.72167 34.2084 6.65527 33.2123 5.88183C29.931 3.35058 23.6615 1.39355 17.0756 1.39355C10.4779 1.39355 4.20841 3.35058 0.927166 5.88183C-0.0689269 6.65527 -0.197834 7.72167 0.599041 8.72949L8.56779 18.9014C8.91935 19.3584 9.51701 19.4639 10.0561 19.1826C12.0599 18.128 14.767 17.4366 17.0756 17.4366ZM17.0756 15.5498C14.931 15.5498 12.4584 16.1123 10.0678 17.085C9.77482 17.2022 9.63419 17.1787 9.41154 16.8858L2.47404 8.06152C2.25138 7.75683 2.28654 7.4873 2.60294 7.26464C6.63419 4.72167 11.7904 3.28027 17.0756 3.28027C22.349 3.28027 27.5053 4.72167 31.5365 7.26464C31.8529 7.4873 31.8881 7.75683 31.6654 8.06152L24.7279 16.8858C24.5053 17.1787 24.3646 17.2022 24.0717 17.085C21.681 16.1123 19.2084 15.5498 17.0756 15.5498Z" fill="black" fill-opacity="0.85"/>
<path d="M17.0755 24.3508C18.5052 24.3508 19.7122 23.1555 19.7122 21.7141C19.7122 20.2493 18.5169 19.0657 17.0755 19.0657C15.6223 19.0657 14.427 20.2493 14.427 21.7141C14.427 23.1672 15.6106 24.3508 17.0755 24.3508ZM17.0755 22.7922C16.4661 22.7922 15.9856 22.3 15.9856 21.7141C15.9856 21.1047 16.4661 20.6008 17.0755 20.6008C17.6614 20.6008 18.1653 21.1047 18.1653 21.7141C18.1653 22.3 17.6614 22.7922 17.0755 22.7922ZM15.3294 20.6008L17.0052 19.7102L5.97783 0.737496C5.72002 0.303902 5.18096 0.128121 4.66533 0.397652C4.18486 0.632027 4.06768 1.2414 4.33721 1.68672L15.3294 20.6008Z" fill="black" fill-opacity="0.85"/>
</g>
<defs>
<clipPath id="clip0_2207_15855">
<rect width="39.8005" height="24.1992" fill="white" transform="translate(0.079834 0.151367)"/>
</clipPath>
</defs>
</svg>
