<svg width="31" height="20" viewBox="0 0 31 20" fill="none" xmlns="http://www.w3.org/2000/svg">
<g clip-path="url(#clip0_2207_11745)">
<path d="M3.52344 8.92871V2.36621C3.52344 2.17871 3.64063 2.03809 3.81641 2.03809H14.4102V8.92871H3.52344ZM15.9453 8.92871V2.03809H26.5508C26.7266 2.03809 26.8438 2.17871 26.8438 2.36621V8.92871H15.9453Z" fill="white"/>
<path d="M0.0546875 18.667C0.0546875 19.2061 0.5 19.6397 1.02734 19.6397H29.3633C29.9024 19.6397 30.3359 19.2061 30.3359 18.667C30.3359 18.128 29.9024 17.6944 29.3633 17.6944H28.7305V1.89746C28.7305 0.854492 28.0156 0.151367 26.9258 0.151367H3.42969C2.35157 0.151367 1.625 0.854492 1.625 1.89746V17.6944H1.02734C0.5 17.6944 0.0546875 18.128 0.0546875 18.667ZM3.52344 8.92871V2.36621C3.52344 2.17871 3.64063 2.03809 3.81641 2.03809H14.4102V8.92871H3.52344ZM15.9453 8.92871V2.03809H26.5508C26.7266 2.03809 26.8438 2.17871 26.8438 2.36621V8.92871H15.9453ZM3.52344 17.6944V10.8741H26.8438V17.6944H3.52344Z" fill="black" fill-opacity="0.85"/>
</g>
<defs>
<clipPath id="clip0_2207_11745">
<rect width="30.2812" height="19.5117" fill="white" transform="translate(0.0546875 0.151367)"/>
</clipPath>
</defs>
</svg>
