<svg width="24" height="24" viewBox="0 0 24 24" fill="none" xmlns="http://www.w3.org/2000/svg">
<g id="wind.snow.circle" clip-path="url(#clip0_2124_12758)">
<g id="Group">
<path id="Vector" d="M11.9531 23.9062C18.4922 23.9062 23.9062 18.4805 23.9062 11.9531C23.9062 5.41406 18.4805 0 11.9414 0C5.41406 0 0 5.41406 0 11.9531C0 18.4805 5.42578 23.9062 11.9531 23.9062ZM11.9531 21.9141C6.42188 21.9141 2.00391 17.4844 2.00391 11.9531C2.00391 6.42188 6.41016 1.99219 11.9414 1.99219C17.4727 1.99219 21.9141 6.42188 21.9141 11.9531C21.9141 17.4844 17.4844 21.9141 11.9531 21.9141Z" fill="black" fill-opacity="0.85"/>
<path id="Vector_2" d="M5.02722 10.6055C6.02332 10.2773 7.05457 10.1133 8.06238 10.1133C9.36316 10.1133 10.3241 10.3242 11.578 10.3242C12.914 10.3242 13.7811 9.39844 13.7811 8.20312C13.7811 6.97266 12.8202 6.09375 11.6718 6.09375C10.7929 6.09375 10.0311 6.63281 9.72644 7.35938C9.59754 7.64062 9.65613 8.01562 9.98426 8.16797C10.2655 8.30859 10.6171 8.20312 10.7929 7.85156C10.9452 7.52344 11.2616 7.27734 11.6718 7.27734C12.1874 7.27734 12.5858 7.60547 12.5858 8.20312C12.5858 8.78906 12.2108 9.14062 11.578 9.14062C10.3944 9.14062 9.43347 8.91797 8.06238 8.91797C6.90222 8.91797 5.71863 9.14062 4.66394 9.48047C4.27722 9.58594 4.1366 9.91406 4.24207 10.2305C4.3241 10.5469 4.65222 10.7344 5.02722 10.6055ZM16.0663 13.9336C17.8007 13.9336 19.0311 12.8203 19.0311 11.2734C19.0311 9.76172 17.8593 8.64844 16.4061 8.64844C15.0585 8.64844 14.039 9.58594 13.8749 10.8281C13.8046 11.2031 14.039 11.5078 14.3554 11.543C14.6835 11.5898 14.9765 11.3906 15.0585 10.9805C15.164 10.3008 15.703 9.84375 16.4061 9.84375C17.2147 9.84375 17.8358 10.4062 17.8358 11.2734C17.8358 12.1641 17.1679 12.7266 16.0663 12.7266C13.9452 12.7266 11.6132 11.4961 8.74207 11.4961C7.27722 11.4961 5.91785 11.7539 4.65222 12.1875C4.28894 12.3164 4.1366 12.6445 4.24207 12.9492C4.3241 13.2656 4.65222 13.4531 5.03894 13.3242C6.17566 12.8906 7.34754 12.6914 8.74207 12.6914C11.5429 12.6914 13.6522 13.9336 16.0663 13.9336ZM11.578 18.9141C12.7382 18.9141 13.6522 18.0469 13.6522 16.8164C13.6522 15.0469 11.8593 14.0742 8.66004 14.0742C7.33582 14.0742 5.87097 14.332 4.6405 14.7539C4.30066 14.8945 4.12488 15.2109 4.24207 15.5039C4.3241 15.8203 4.65222 16.0312 5.03894 15.9023C6.15222 15.4922 7.38269 15.2578 8.66004 15.2578C11.203 15.2578 12.4569 15.8672 12.4569 16.8164C12.4569 17.4023 12.0819 17.7188 11.578 17.7188C11.0741 17.7188 10.8046 17.4258 10.7108 16.8633C10.664 16.5586 10.4179 16.2656 10.0429 16.3008C9.62097 16.3242 9.45691 16.6992 9.50379 17.0391C9.63269 18.0703 10.4179 18.9141 11.578 18.9141ZM16.4061 7.78125C16.5937 7.78125 16.7226 7.60547 16.7108 7.41797L16.6757 6.71484L17.2499 7.11328C17.4022 7.21875 17.6249 7.17188 17.7187 7.01953C17.8358 6.87891 17.7772 6.63281 17.5663 6.53906L16.9452 6.23438L17.5663 5.90625C17.7655 5.80078 17.8124 5.61328 17.7304 5.44922C17.6483 5.28516 17.4022 5.25 17.2499 5.34375L16.6757 5.75391L16.7108 5.0625C16.7226 4.85156 16.5937 4.6875 16.4061 4.6875C16.1952 4.6875 16.0546 4.85156 16.0663 5.05078L16.1132 5.75391L15.5155 5.34375C15.3632 5.25 15.1522 5.27344 15.0702 5.44922C14.9765 5.58984 15.0116 5.80078 15.2108 5.91797L15.8319 6.23438L15.2108 6.53906C14.9999 6.63281 14.9765 6.85547 15.0468 7.00781C15.1288 7.18359 15.3632 7.21875 15.5155 7.11328L16.1132 6.71484L16.078 7.41797C16.0663 7.60547 16.1952 7.78125 16.4061 7.78125ZM16.1718 17.2969C16.289 17.2969 16.3827 17.1797 16.371 17.0625L16.3476 16.7461L16.6054 16.9453C16.6874 17.0156 16.8632 16.9688 16.9101 16.8867C16.9921 16.793 16.9687 16.6055 16.828 16.5469L16.5233 16.418L16.828 16.2656C16.9569 16.1953 16.9687 16.0664 16.9218 15.9727C16.8749 15.8555 16.6991 15.8203 16.6054 15.8789L16.3476 16.1016L16.371 15.7734C16.3827 15.6328 16.289 15.5391 16.1718 15.5391C16.0311 15.5391 15.9257 15.6328 15.9374 15.7617L15.9726 16.1016L15.6913 15.8789C15.6093 15.8203 15.4569 15.8438 15.3983 15.9727C15.3515 16.043 15.3397 16.1953 15.4921 16.2773L15.7851 16.418L15.4921 16.5469C15.3397 16.6172 15.3515 16.7695 15.3866 16.8633C15.4218 16.9805 15.6093 17.0156 15.6913 16.9453L15.9726 16.7461L15.9491 17.0625C15.9374 17.1797 16.0311 17.2969 16.1718 17.2969Z" fill="black" fill-opacity="0.85"/>
</g>
</g>
<defs>
<clipPath id="clip0_2124_12758">
<rect width="23.9062" height="23.918" fill="white"/>
</clipPath>
</defs>
</svg>
