<svg width="35" height="25" viewBox="0 0 35 25" fill="none" xmlns="http://www.w3.org/2000/svg">
<g clip-path="url(#clip0_2207_15813)">
<path d="M17.0693 17.4366C19.3779 17.4366 22.0732 18.128 24.0771 19.1826C24.6161 19.4639 25.2138 19.3584 25.5654 18.9014L33.5458 8.72949C34.331 7.72167 34.2021 6.65527 33.206 5.88183C29.9365 3.35058 23.6669 1.39355 17.0693 1.39355C10.4716 1.39355 4.20207 3.35058 0.920818 5.88183C-0.0752745 6.65527 -0.204182 7.72167 0.592693 8.72949L8.57317 18.9014C8.92473 19.3584 9.51067 19.4639 10.0497 19.1826C12.0536 18.128 14.7607 17.4366 17.0693 17.4366ZM17.0693 15.5498C14.9247 15.5498 12.4521 16.1123 10.0614 17.085C9.76848 17.2022 9.63957 17.1787 9.4052 16.8858L2.4677 8.06152C2.24504 7.75683 2.2802 7.4873 2.5966 7.26464C6.62785 4.72167 11.7958 3.28027 17.0693 3.28027C22.3427 3.28027 27.5107 4.72167 31.5419 7.26464C31.8583 7.4873 31.8935 7.75683 31.6591 8.06152L24.7333 16.8858C24.499 17.1787 24.3701 17.2022 24.0771 17.085C21.6865 16.1123 19.2021 15.5498 17.0693 15.5498Z" fill="black" fill-opacity="0.85"/>
<path d="M17.0694 24.3508C18.4991 24.3508 19.706 23.1555 19.706 21.7141C19.706 20.2493 18.5107 19.0657 17.0694 19.0657C15.6161 19.0657 14.4327 20.2493 14.4327 21.7141C14.4327 23.1672 15.6045 24.3508 17.0694 24.3508ZM17.0694 22.7922C16.46 22.7922 15.9795 22.3 15.9795 21.7141C15.9795 21.1047 16.46 20.6008 17.0694 20.6008C17.6553 20.6008 18.1708 21.1047 18.1708 21.7141C18.1708 22.3 17.6553 22.7922 17.0694 22.7922ZM15.335 20.6008L17.0108 19.7102L5.97166 0.737496C5.72557 0.303902 5.18651 0.128121 4.65916 0.397652C4.17869 0.632027 4.07323 1.2414 4.33104 1.68672L15.335 20.6008Z" fill="black" fill-opacity="0.85"/>
</g>
<defs>
<clipPath id="clip0_2207_15813">
<rect width="33.9819" height="24.1992" fill="white" transform="translate(0.0734863 0.151367)"/>
</clipPath>
</defs>
</svg>
