<svg width="21" height="26" viewBox="0 0 21 26" fill="none" xmlns="http://www.w3.org/2000/svg">
<g clip-path="url(#clip0_2207_11810)">
<path d="M0.0588379 22.628C0.0588379 24.0576 1.04321 25.0186 2.50806 25.0186H17.6604C19.1369 25.0186 20.1096 24.0576 20.1096 22.628V2.54199C20.1096 1.11231 19.1369 0.151367 17.6604 0.151367H2.50806C1.04321 0.151367 0.0588379 1.11231 0.0588379 2.54199V22.628ZM1.94556 22.5108V2.65918C1.94556 2.28418 2.19165 2.03809 2.54322 2.03809H17.6252C17.9885 2.03809 18.2229 2.28418 18.2229 2.65918V22.5108C18.2229 22.8858 17.9885 23.1319 17.6252 23.1319H2.54322C2.19165 23.1319 1.94556 22.8858 1.94556 22.5108Z" fill="black" fill-opacity="0.85"/>
<path d="M3.71509 21.7725H16.465C16.6877 21.7725 16.8635 21.585 16.8635 21.3741V3.7959C16.8635 3.57325 16.6877 3.39746 16.465 3.39746H3.71509C3.49243 3.39746 3.31665 3.57325 3.31665 3.7959V21.3741C3.31665 21.585 3.49243 21.7725 3.71509 21.7725ZM8.20337 20.3311C7.87525 20.3311 7.64087 20.0967 7.64087 19.7686C7.64087 19.4287 7.87525 19.1944 8.20337 19.1944H11.7776C12.1057 19.1944 12.34 19.4287 12.34 19.7686C12.34 20.0967 12.1057 20.3311 11.7776 20.3311H8.20337Z" fill="black" fill-opacity="0.85"/>
</g>
<defs>
<clipPath id="clip0_2207_11810">
<rect width="20.0508" height="24.8789" fill="white" transform="translate(0.0588379 0.151367)"/>
</clipPath>
</defs>
</svg>
