<svg width="25" height="26" viewBox="0 0 25 26" fill="none" xmlns="http://www.w3.org/2000/svg">
<g clip-path="url(#clip0_2207_11735)">
<path d="M3.53394 11.6123V2.35449C3.53394 2.16699 3.65113 2.03809 3.82691 2.03809H11.2566V11.6123H3.53394ZM12.7918 11.6123V2.03809H20.2097C20.3855 2.03809 20.5027 2.16699 20.5027 2.35449V11.6123H12.7918Z" fill="white"/>
<path d="M0.0651855 24.0459C0.0651855 24.5733 0.510498 25.0186 1.03784 25.0186H23.034C23.5613 25.0186 24.0066 24.5733 24.0066 24.0459C24.0066 23.5069 23.5613 23.0733 23.034 23.0733H22.4011V1.89746C22.4011 0.854492 21.6746 0.151367 20.5964 0.151367H3.44019C2.36207 0.151367 1.6355 0.854492 1.6355 1.89746V23.0733H1.03784C0.510498 23.0733 0.0651855 23.5069 0.0651855 24.0459ZM3.53394 11.6123V2.35449C3.53394 2.16699 3.65113 2.03809 3.82691 2.03809H11.2566V11.6123H3.53394ZM12.7918 11.6123V2.03809H20.2097C20.3855 2.03809 20.5027 2.16699 20.5027 2.35449V11.6123H12.7918ZM3.53394 23.0733V13.5576H20.5027V23.0733H3.53394Z" fill="black" fill-opacity="0.85"/>
</g>
<defs>
<clipPath id="clip0_2207_11735">
<rect width="23.9414" height="24.8789" fill="white" transform="translate(0.0651855 0.151367)"/>
</clipPath>
</defs>
</svg>
