<svg width="26" height="24" viewBox="0 0 26 24" fill="none" xmlns="http://www.w3.org/2000/svg">
<g clip-path="url(#clip0_2207_11760)">
<path d="M2.05576 20.753L4.35263 12.5381H11.6299L9.13388 21.4678H2.62998C2.13779 21.4678 1.92685 21.2217 2.05576 20.753ZM4.85654 10.6748L7.05966 2.81152C7.18857 2.33105 7.49326 2.07324 7.96201 2.07324H14.5479L12.1456 10.6748H4.85654ZM11.0792 21.4678L13.5635 12.5381H20.9112L18.626 20.7295C18.4971 21.1983 18.1924 21.4678 17.7237 21.4678H11.0792ZM14.0674 10.6748L16.4815 2.07324H23.0557C23.5479 2.07324 23.7588 2.31933 23.6299 2.78808L21.4268 10.6748H14.0674Z" fill="white"/>
<path d="M2.26664 23.3662H18.1338C19.2588 23.3662 20.0206 22.7334 20.3018 21.6905L25.5049 2.95215C25.9737 1.27637 25.1299 0.174805 23.419 0.174805H7.5518C6.4268 0.174805 5.6768 0.807617 5.38383 1.83887L0.180707 20.5889C-0.288043 22.253 0.555707 23.3662 2.26664 23.3662ZM2.05571 20.753L4.35258 12.5381H11.6299L9.13383 21.4678H2.62993C2.13774 21.4678 1.9268 21.2217 2.05571 20.753ZM4.85649 10.6748L7.05961 2.81153C7.18852 2.33106 7.49321 2.07325 7.96196 2.07325H14.5479L12.1456 10.6748H4.85649ZM11.0792 21.4678L13.5635 12.5381H20.9112L18.626 20.7295C18.4971 21.1983 18.1924 21.4678 17.7237 21.4678H11.0792ZM14.0674 10.6748L16.4815 2.07325H23.0557C23.5479 2.07325 23.7588 2.31934 23.6299 2.78809L21.4268 10.6748H14.0674Z" fill="black" fill-opacity="0.85"/>
</g>
<defs>
<clipPath id="clip0_2207_11760">
<rect width="25.5807" height="23.2148" fill="white" transform="translate(0.0524902 0.151367)"/>
</clipPath>
</defs>
</svg>
