<svg width="18" height="29" viewBox="0 0 18 29" fill="none" xmlns="http://www.w3.org/2000/svg">
<g clip-path="url(#clip0_2207_21231)">
<path d="M8.55469 17.3789C13.6992 17.3789 17.1328 14.3203 17.1328 9.67968C17.1328 7.26562 16.1133 4.08984 14.6367 1.82812C13.9453 0.75 11.707 0.152344 8.56641 0.152344C5.40234 0.152344 3.17578 0.75 2.47266 1.82812C0.996094 4.08984 0 7.26562 0 9.67968C0 14.3203 3.41016 17.3789 8.55469 17.3789ZM8.55469 15.6093C4.37109 15.6093 1.76953 13.3242 1.76953 9.67968C1.76953 7.93359 2.37891 5.67187 3.38672 3.77343C4.40625 4.32422 6.25781 4.64062 8.56641 4.64062C10.8516 4.64062 12.7031 4.32422 13.7227 3.77343C14.7422 5.67187 15.3633 7.93359 15.3633 9.67968C15.3633 13.3242 12.7383 15.6093 8.55469 15.6093ZM8.56641 2.98828C6.21094 2.98828 4.10156 2.66015 4.10156 2.39062C4.10156 2.14453 6.24609 1.8164 8.56641 1.8164C10.875 1.8164 13.0312 2.14453 13.0312 2.39062C13.0312 2.66015 10.8984 2.98828 8.56641 2.98828ZM8.55469 25.2304C9.03516 25.2304 9.44531 24.8203 9.44531 24.3515V16.4531H7.6875V24.3515C7.6875 24.832 8.08594 25.2304 8.55469 25.2304ZM8.55469 28.0664C12.7969 28.0546 15.3633 27.0117 15.3633 25.207C15.3633 23.414 12.7969 22.3593 8.55469 22.3593C4.32422 22.3593 1.76953 23.414 1.76953 25.207C1.76953 27.0117 4.3125 28.0546 8.55469 28.0664ZM8.55469 26.3437C5.56641 26.3437 3.65625 25.8632 3.65625 25.207C3.65625 24.5625 5.57812 24.0703 8.55469 24.0703C11.543 24.0703 13.4766 24.5625 13.4766 25.207C13.4766 25.8632 11.543 26.3437 8.55469 26.3437Z" fill="black" fill-opacity="0.85"/>
</g>
<defs>
<clipPath id="clip0_2207_21231">
<rect width="17.1328" height="27.9258" fill="white" transform="translate(0 0.152344)"/>
</clipPath>
</defs>
</svg>
