<svg width="27" height="22" viewBox="0 0 27 22" fill="none" xmlns="http://www.w3.org/2000/svg">
<g clip-path="url(#clip0_2207_25706)">
<path d="M7.01196 21.4804C7.77368 21.4804 8.33618 21.0117 8.52368 20.2851L12.9651 4.00781H13.0823L17.5237 20.2851C17.6995 21.0117 18.2737 21.4804 19.0237 21.4804C19.8089 21.4804 20.4183 21 20.5706 20.2382L24.3792 1.79296C24.4144 1.58203 24.4494 1.38281 24.4494 1.17187C24.4494 0.539063 23.9455 0.152344 23.3127 0.152344C22.7386 0.152344 22.3049 0.503906 22.1994 1.07812L18.965 18.3984H18.8714L14.219 1.17187C14.0667 0.574219 13.7034 0.199219 13.0354 0.199219C12.3558 0.199219 11.9808 0.609375 11.8167 1.21875L7.17603 18.3984H7.08227L3.8479 1.07812C3.74243 0.515625 3.30884 0.152344 2.7229 0.152344C2.09009 0.152344 1.5979 0.539063 1.5979 1.17187C1.5979 1.37109 1.62134 1.57031 1.65649 1.78125L5.47681 20.2382C5.62915 21 6.22681 21.4804 7.01196 21.4804ZM0.75415 11.4726H25.2933C25.7269 11.4726 26.055 11.1328 26.055 10.6992C26.055 10.2539 25.7269 9.9375 25.2933 9.9375H0.75415C0.332275 9.9375 0.00415039 10.2539 0.00415039 10.6992C0.00415039 11.1328 0.332275 11.4726 0.75415 11.4726Z" fill="black" fill-opacity="0.85"/>
</g>
<defs>
<clipPath id="clip0_2207_25706">
<rect width="26.0508" height="21.6445" fill="white" transform="translate(0.00415039 0.152344)"/>
</clipPath>
</defs>
</svg>
