<svg width="24" height="25" viewBox="0 0 24 25" fill="none" xmlns="http://www.w3.org/2000/svg">
<g clip-path="url(#clip0_2207_16265)">
<path d="M11.9763 24.0585C18.5154 24.0585 23.9294 18.6328 23.9294 12.1054C23.9294 5.5664 18.5037 0.152344 11.9646 0.152344C5.43725 0.152344 0.0231934 5.5664 0.0231934 12.1054C0.0231934 18.6328 5.44897 24.0585 11.9763 24.0585ZM11.9763 22.0664C6.44507 22.0664 2.0271 17.6367 2.0271 12.1054C2.0271 6.57422 6.43335 2.14453 11.9646 2.14453C17.4959 2.14453 21.9373 6.57422 21.9373 12.1054C21.9373 17.6367 17.5076 22.0664 11.9763 22.0664Z" fill="black" fill-opacity="0.85"/>
<path d="M6.07007 14.7773H17.8826C18.5037 14.7773 18.9607 14.3203 18.9607 13.6992V10.4882C18.9607 9.86719 18.5037 9.41016 17.8826 9.41016H6.07007C5.44897 9.41016 5.00366 9.86719 5.00366 10.4882V13.7109C5.00366 14.332 5.44897 14.7773 6.07007 14.7773Z" fill="black" fill-opacity="0.85"/>
</g>
<defs>
<clipPath id="clip0_2207_16265">
<rect width="23.9062" height="23.918" fill="white" transform="translate(0.0231934 0.152344)"/>
</clipPath>
</defs>
</svg>
