<svg width="25" height="25" viewBox="0 0 25 25" fill="none" xmlns="http://www.w3.org/2000/svg">
<g clip-path="url(#clip0_2207_21169)">
<path d="M4.81909 12.6445C6.14331 10.5234 7.35034 8.71875 8.83862 6.91406C8.86206 6.89062 8.86206 6.84375 8.83862 6.80859C8.14722 6.1289 7.5144 5.54296 6.97534 5.12109C6.16675 4.5 4.97143 3.58593 4.02222 3.58593C3.823 3.58593 3.71753 3.60937 3.65893 3.66796C2.56909 4.73437 1.64331 6.10546 1.0105 7.54687C0.365967 9.10546 0.0378418 10.6523 0.0378418 12.3046C0.0378418 15 0.858154 17.4492 2.5105 19.6523C2.53393 19.6875 2.59253 19.664 2.58081 19.6171C2.52222 19.4531 2.48706 19.1484 2.48706 18.8789C2.48706 18.2695 2.59253 17.6132 2.79175 17.0039C3.37768 15.3046 3.99878 13.9453 4.81909 12.6445ZM15.53 6.91406C17.0183 8.71875 18.2253 10.5234 19.5378 12.6445C20.3698 13.9453 20.9909 15.3046 21.5769 17.0039C21.7761 17.6132 21.8816 18.2695 21.8816 18.8789C21.8816 19.1484 21.8464 19.4531 21.7878 19.6171C21.7761 19.664 21.8347 19.6875 21.8581 19.6523C23.5105 17.4492 24.3308 15 24.3308 12.3046C24.3308 10.6523 24.0026 9.10546 23.3581 7.54687C22.7253 6.10546 21.7995 4.73437 20.7097 3.66796C20.6511 3.60937 20.5456 3.58593 20.3464 3.58593C19.3972 3.58593 18.2019 4.5 17.3933 5.12109C16.8542 5.54296 16.2214 6.1289 15.53 6.80859C15.5066 6.84375 15.5066 6.89062 15.53 6.91406ZM5.89722 1.91015C5.83862 1.93359 5.86206 2.02734 5.93237 2.01562C6.16675 1.96875 6.45972 1.93359 6.74096 1.93359C7.7605 1.93359 8.70972 2.20312 9.90503 2.67187C10.4206 2.85937 10.8542 3.05859 11.2761 3.28125C11.6394 3.46875 11.9323 3.63281 12.0964 3.71484C12.155 3.75 12.2136 3.75 12.2722 3.71484C12.4362 3.63281 12.7175 3.46875 13.0925 3.28125C13.5144 3.05859 13.948 2.85937 14.4519 2.67187C15.6589 2.20312 16.6081 1.93359 17.6276 1.93359C17.9089 1.93359 18.2019 1.96875 18.4362 2.01562C18.5066 2.02734 18.53 1.93359 18.4714 1.91015C17.5339 1.37109 16.5847 0.9375 15.5651 0.65625C14.5339 0.316406 13.4089 0.152344 12.1784 0.152344C10.9597 0.152344 9.83472 0.316406 8.80346 0.65625C7.78393 0.9375 6.823 1.37109 5.89722 1.91015ZM3.823 20.4843C3.823 20.8593 3.94018 21.1523 4.37378 21.5625C6.22534 23.2851 9.16675 24.4453 12.1784 24.4453C15.2019 24.4453 18.1316 23.2851 19.9948 21.5625C20.4284 21.1523 20.5456 20.8593 20.5456 20.4843C20.5456 20.039 20.405 19.5234 20.1237 18.9609C19.573 17.707 18.5417 16.2656 17.569 15.1171C15.905 13.1953 14.112 11.332 12.319 9.99609C12.2605 9.94922 12.2253 9.92578 12.1784 9.92578C12.1433 9.92578 12.1081 9.94922 12.0495 9.99609C10.2566 11.332 8.46362 13.1953 6.79956 15.1171C5.8269 16.2656 4.79565 17.707 4.24487 18.9609C3.9519 19.5234 3.823 20.039 3.823 20.4843Z" fill="black" fill-opacity="0.85"/>
</g>
<defs>
<clipPath id="clip0_2207_21169">
<rect width="24.293" height="24.3164" fill="white" transform="translate(0.0378418 0.152344)"/>
</clipPath>
</defs>
</svg>
