<svg width="22" height="22" viewBox="0 0 22 22" fill="none" xmlns="http://www.w3.org/2000/svg">
<g clip-path="url(#clip0_2207_23070)">
<path d="M3.77002 21.75H17.9848C20.4458 21.75 21.6645 20.5312 21.6645 18.1171V3.80859C21.6645 1.39453 20.4458 0.175781 17.9848 0.175781H3.77002C1.3208 0.175781 0.090332 1.38281 0.090332 3.80859V18.1171C0.090332 20.5429 1.3208 21.75 3.77002 21.75Z" fill="black" fill-opacity="0.85"/>
<path d="M6.9458 15.8671C6.40674 15.8671 5.98486 15.4335 5.98486 14.8945C5.98486 14.6367 6.07861 14.3906 6.26611 14.2148L9.51221 10.957L6.26611 7.71094C6.07861 7.52344 5.98486 7.28907 5.98486 7.03126C5.98486 6.48047 6.40674 6.07032 6.9458 6.07032C7.21533 6.07032 7.42627 6.16407 7.61377 6.33985L10.8833 9.59765L14.1762 6.32812C14.3755 6.1289 14.5981 6.04688 14.8442 6.04688C15.3833 6.04688 15.8169 6.46876 15.8169 7.00782C15.8169 7.27735 15.7348 7.48828 15.5356 7.69922L12.2661 10.957L15.5239 14.2031C15.7114 14.3789 15.8051 14.625 15.8051 14.8945C15.8051 15.4335 15.3715 15.8671 14.8208 15.8671C14.563 15.8671 14.3051 15.7734 14.1294 15.5859L10.8833 12.3281L7.64892 15.5859C7.46142 15.7734 7.21533 15.8671 6.9458 15.8671Z" fill="white"/>
</g>
<defs>
<clipPath id="clip0_2207_23070">
<rect width="21.5742" height="21.5977" fill="white" transform="translate(0.090332 0.152344)"/>
</clipPath>
</defs>
</svg>
