<svg width="30" height="23" viewBox="0 0 30 23" fill="none" xmlns="http://www.w3.org/2000/svg">
<g clip-path="url(#clip0_2207_8719)">
<path d="M23.2192 20.5195C26.7583 20.5195 29.5239 17.9296 29.5239 14.707C29.5239 12.2461 28.106 10.1133 25.8208 9.15234C25.8442 3.92578 22.0825 0.152344 17.2896 0.152344C14.1138 0.152344 11.8521 1.85156 10.4458 3.90234C7.56299 3.05859 4.42237 5.25 4.36377 8.53125C1.71533 8.95312 0.0629883 11.3203 0.0629883 14.1796C0.0629883 17.625 3.07471 20.5195 7.08252 20.5195H23.2192ZM23.2192 18.6328H7.08252C4.1294 18.6328 1.94971 16.5703 1.94971 14.1796C1.94971 11.8359 3.36768 9.97265 5.85205 9.97265C6.01611 9.97265 6.07471 9.89062 6.07471 9.73828C6.07471 6.1289 8.67627 5.0625 11.0786 5.84765C11.2192 5.89453 11.3013 5.85937 11.3716 5.73046C12.5083 3.70312 14.2544 2.03906 17.2896 2.03906C21.1333 2.03906 23.7935 5.08593 23.9927 8.5664C24.0278 9.10546 23.9927 9.73828 23.9458 10.289C23.9341 10.4414 23.9927 10.5234 24.1333 10.5585C26.2661 11.0273 27.6372 12.5859 27.6372 14.707C27.6372 16.8867 25.7153 18.6328 23.2192 18.6328Z" fill="black" fill-opacity="0.85"/>
<path d="M12.5435 15.2459L14.7935 12.9959L17.0435 15.2459C17.395 15.5857 17.8755 15.5154 18.1919 15.2224C18.4966 14.9177 18.5669 14.4255 18.2271 14.0857L15.9653 11.824L18.2271 9.56228C18.5669 9.22243 18.4966 8.74197 18.1919 8.42557C17.8989 8.12088 17.395 8.05056 17.0435 8.40212L14.7935 10.6521L12.5435 8.40212C12.2036 8.06228 11.7114 8.1326 11.4068 8.42557C11.0903 8.73024 11.0318 9.22243 11.3716 9.56228L13.6216 11.824L11.3716 14.0857C11.0318 14.4255 11.1021 14.906 11.395 15.2107C11.6997 15.5271 12.2036 15.5857 12.5435 15.2459Z" fill="black" fill-opacity="0.85"/>
</g>
<defs>
<clipPath id="clip0_2207_8719">
<rect width="29.4609" height="22.2773" fill="white" transform="translate(0.0629883 0.152344)"/>
</clipPath>
</defs>
</svg>
