<svg width="19" height="19" viewBox="0 0 19 19" fill="none" xmlns="http://www.w3.org/2000/svg">
<g clip-path="url(#clip0_2207_23051)">
<path d="M0.343156 18.4438C0.753312 18.8423 1.433 18.8423 1.83144 18.4438L9.33144 10.9438L16.8314 18.4438C17.2299 18.8423 17.9213 18.854 18.3197 18.4438C18.7181 18.0337 18.7181 17.3657 18.3197 16.9673L10.8197 9.45558L18.3197 1.95558C18.7181 1.55714 18.7299 0.877457 18.3197 0.479019C17.9095 0.0688631 17.2299 0.0688631 16.8314 0.479019L9.33144 7.97902L1.83144 0.479019C1.433 0.0688631 0.741593 0.0571444 0.343156 0.479019C-0.0552819 0.889175 -0.0552819 1.55714 0.343156 1.95558L7.84316 9.45558L0.343156 16.9673C-0.0552819 17.3657 -0.067001 18.0454 0.343156 18.4438Z" fill="black" fill-opacity="0.85"/>
</g>
<defs>
<clipPath id="clip0_2207_23051">
<rect width="18.583" height="18.5948" fill="white" transform="translate(0.039917 0.152344)"/>
</clipPath>
</defs>
</svg>
