<svg width="29" height="22" viewBox="0 0 29 22" fill="none" xmlns="http://www.w3.org/2000/svg">
<g clip-path="url(#clip0_2207_746)">
<path d="M7.94458 21.75H20.2492C22.5578 21.75 23.5773 20.6718 23.9289 18.375L25.8156 5.625L23.9289 5.74218L22.0539 18.3515C21.8781 19.5117 21.257 19.9804 20.2258 19.9804H7.97973C6.92505 19.9804 6.31567 19.5117 6.15161 18.3515L4.27661 5.74218L2.38989 5.625L4.27661 18.375C4.61645 20.6835 5.6477 21.75 7.94458 21.75ZM2.2727 6.62109H25.9328C27.3742 6.62109 28.1594 5.71875 28.1594 4.28906V2.50781C28.1594 1.07812 27.3742 0.175781 25.9328 0.175781H2.2727C0.901612 0.175781 0.0461426 1.07812 0.0461426 2.50781V4.28906C0.0461426 5.71875 0.831299 6.62109 2.2727 6.62109ZM2.75317 4.85156C2.16723 4.85156 1.93286 4.60546 1.93286 4.01953V2.77734C1.93286 2.1914 2.16723 1.94531 2.75317 1.94531H25.4641C26.05 1.94531 26.2727 2.1914 26.2727 2.77734V4.01953C26.2727 4.60546 26.05 4.85156 25.4641 4.85156H2.75317Z" fill="black" fill-opacity="0.85"/>
<path d="M10.7102 17.5312C10.9445 17.5312 11.1555 17.414 11.3313 17.25L14.0969 14.4726L16.8742 17.25C17.0383 17.4023 17.2492 17.5312 17.507 17.5312C17.9992 17.5312 18.4094 17.1093 18.4094 16.6171C18.4094 16.3476 18.2922 16.1601 18.1281 15.9843L15.3742 13.2187L18.1399 10.4179C18.3156 10.2304 18.4211 10.0547 18.4211 9.80859C18.4211 9.30468 18.0227 8.90625 17.507 8.90625C17.2844 8.90625 17.0852 9 16.8977 9.1875L14.0969 11.9648L11.3195 9.19922C11.132 9.02343 10.9445 8.92968 10.7102 8.92968C10.2063 8.92968 9.79614 9.3164 9.79614 9.80859C9.79614 10.0664 9.91333 10.2656 10.0773 10.4296L12.8313 13.2187L10.0773 15.9961C9.91333 16.1601 9.79614 16.3593 9.79614 16.6171C9.79614 17.1093 10.2063 17.5312 10.7102 17.5312Z" fill="black" fill-opacity="0.85"/>
</g>
<defs>
<clipPath id="clip0_2207_746">
<rect width="28.1133" height="21.5977" fill="white" transform="translate(0.0461426 0.152344)"/>
</clipPath>
</defs>
</svg>
