<svg width="22" height="22" viewBox="0 0 22 22" fill="none" xmlns="http://www.w3.org/2000/svg">
<g clip-path="url(#clip0_2207_6778)">
<path d="M20.2803 1.53515C19.085 0.339844 17.3975 0.152344 15.3936 0.152344H6.26465C4.2959 0.152344 2.6084 0.339844 1.41308 1.53515C0.217773 2.73046 0.0419922 4.40625 0.0419922 6.375V15.5039C0.0419922 17.5078 0.217773 19.1835 1.41308 20.3789C2.6084 21.5742 4.2959 21.7617 6.28808 21.7617H15.3936C17.3975 21.7617 19.085 21.5742 20.2803 20.3789C21.4756 19.1835 21.6514 17.5078 21.6514 15.5039V6.39843C21.6514 4.39453 21.4756 2.73046 20.2803 1.53515ZM19.7647 6.08203V15.832C19.7647 17.039 19.6123 18.2929 18.8975 18.9961C18.1943 19.7109 16.9287 19.875 15.7217 19.875H5.97168C4.76465 19.875 3.49902 19.7109 2.78418 18.9961C2.08105 18.2929 1.92871 17.039 1.92871 15.832V6.11718C1.92871 4.875 2.08105 3.62109 2.78418 2.90625C3.49902 2.20312 4.77637 2.03906 6.00683 2.03906H15.7217C16.9287 2.03906 18.1943 2.20312 18.8975 2.91796C19.6123 3.62109 19.7647 4.875 19.7647 6.08203Z" fill="black" fill-opacity="0.85"/>
<path d="M6.86231 15.914C7.12012 15.914 7.3545 15.8085 7.53028 15.6211L10.8467 12.2929L14.1865 15.6211C14.3623 15.7968 14.585 15.914 14.8545 15.914C15.3818 15.914 15.8037 15.4921 15.8037 14.9648C15.8037 14.6953 15.6982 14.4843 15.5108 14.2968L12.1826 10.9687L15.5225 7.61719C15.7217 7.41797 15.8154 7.21876 15.8154 6.96094C15.8154 6.44532 15.3936 6.02344 14.8662 6.02344C14.6201 6.02344 14.4209 6.11719 14.2217 6.31641L10.8467 9.65626L7.50684 6.32813C7.33106 6.14063 7.12012 6.04688 6.86231 6.04688C6.33497 6.04688 5.91309 6.45704 5.91309 6.97266C5.91309 7.23047 6.01856 7.45313 6.20606 7.62891L9.53419 10.9687L6.20606 14.3085C6.01856 14.4843 5.91309 14.707 5.91309 14.9648C5.91309 15.4921 6.33497 15.914 6.86231 15.914Z" fill="black" fill-opacity="0.85"/>
</g>
<defs>
<clipPath id="clip0_2207_6778">
<rect width="21.6094" height="21.6211" fill="white" transform="translate(0.0419922 0.152344)"/>
</clipPath>
</defs>
</svg>
