<svg width="25" height="25" viewBox="0 0 25 25" fill="none" xmlns="http://www.w3.org/2000/svg">
<g clip-path="url(#clip0_2207_25306)">
<path d="M12.0498 24.0585C18.5889 24.0585 24.0029 18.6328 24.0029 12.1054C24.0029 5.5664 18.5772 0.152344 12.0381 0.152344C5.51074 0.152344 0.0966797 5.5664 0.0966797 12.1054C0.0966797 18.6328 5.52246 24.0585 12.0498 24.0585ZM12.0498 22.0664C6.51856 22.0664 2.10059 17.6367 2.10059 12.1054C2.10059 6.57422 6.50684 2.14453 12.0381 2.14453C17.5694 2.14453 22.0108 6.57422 22.0108 12.1054C22.0108 17.6367 17.5811 22.0664 12.0498 22.0664Z" fill="black" fill-opacity="0.85"/>
<path d="M12.0381 17.4726C12.6475 17.4726 12.9873 17.0742 12.9873 16.4179V13.3593L16.2803 7.87501C16.3858 7.71094 16.4326 7.52343 16.4326 7.35938C16.4326 6.8789 16.0811 6.51562 15.5889 6.51562C15.1787 6.51562 14.9678 6.66797 14.7217 7.10157L12.085 11.6015H12.0147L9.38964 7.10157C9.14355 6.65626 8.92089 6.51562 8.49901 6.51562C8.01855 6.51562 7.64355 6.89063 7.64355 7.33594C7.64355 7.51173 7.69043 7.68751 7.7959 7.87501L11.1123 13.3828V16.4179C11.1123 17.0507 11.4405 17.4726 12.0381 17.4726Z" fill="black" fill-opacity="0.85"/>
</g>
<defs>
<clipPath id="clip0_2207_25306">
<rect width="23.9062" height="23.918" fill="white" transform="translate(0.0966797 0.152344)"/>
</clipPath>
</defs>
</svg>
