<svg width="22" height="22" viewBox="0 0 22 22" fill="none" xmlns="http://www.w3.org/2000/svg">
<g clip-path="url(#clip0_2207_25321)">
<path d="M3.68189 21.752H17.8967C20.3577 21.752 21.5764 20.5332 21.5764 18.1191V3.81055C21.5764 1.39649 20.3577 0.177734 17.8967 0.177734H3.68189C1.23267 0.177734 0.00219727 1.38477 0.00219727 3.81055V18.1191C0.00219727 20.5449 1.23267 21.752 3.68189 21.752Z" fill="black" fill-opacity="0.85"/>
<path d="M10.7952 16.4902C10.1741 16.4902 9.83423 16.0449 9.83423 15.3887V12.2715L6.42408 6.59961C6.30689 6.40039 6.26001 6.21289 6.26001 6.03711C6.26001 5.56836 6.64673 5.18164 7.15064 5.18164C7.58423 5.18164 7.81861 5.33399 8.07642 5.79102L10.7717 10.4316H10.8538L13.5608 5.79102C13.8069 5.34571 14.0413 5.18164 14.4514 5.18164C14.967 5.18164 15.3303 5.55664 15.3303 6.06055C15.3303 6.22461 15.2834 6.42383 15.1663 6.59961L11.7795 12.2481V15.3887C11.7795 16.0801 11.428 16.4902 10.7952 16.4902Z" fill="white"/>
</g>
<defs>
<clipPath id="clip0_2207_25321">
<rect width="21.5742" height="21.5977" fill="white" transform="translate(0.00219727 0.154297)"/>
</clipPath>
</defs>
</svg>
