<svg width="22" height="22" viewBox="0 0 22 22" fill="none" xmlns="http://www.w3.org/2000/svg">
<g clip-path="url(#clip0_2207_25408)">
<path d="M3.69019 21.752H17.905C20.366 21.752 21.5847 20.5332 21.5847 18.1191V3.81055C21.5847 1.39649 20.366 0.177734 17.905 0.177734H3.69019C1.24097 0.177734 0.010498 1.38477 0.010498 3.81055V18.1191C0.010498 20.5449 1.24097 21.752 3.69019 21.752ZM3.71362 19.8652C2.54175 19.8652 1.89722 19.2441 1.89722 18.0254V3.9043C1.89722 2.68555 2.54175 2.06446 3.71362 2.06446H17.8816C19.0417 2.06446 19.698 2.68555 19.698 3.9043V18.0254C19.698 19.2441 19.0417 19.8652 17.8816 19.8652H3.71362Z" fill="black" fill-opacity="0.85"/>
<path d="M10.8152 16.877C11.2488 16.877 11.5535 16.5723 11.5535 16.1035V14.4043H13.7332C14.073 14.4043 14.2957 14.1465 14.2957 13.8184C14.2957 13.4902 14.073 13.2441 13.7332 13.2441H11.5535V12.3418H13.7332C14.073 12.3418 14.2957 12.0957 14.2957 11.7676C14.2957 11.4277 14.073 11.1816 13.7332 11.1816H12.0925L14.9402 6.59961C15.0457 6.43555 15.0925 6.29492 15.0925 6.11914C15.0925 5.73242 14.7644 5.42774 14.3425 5.42774C14.0613 5.42774 13.8503 5.54492 13.6863 5.81446L10.8152 10.6309L7.94409 5.80274C7.78003 5.53321 7.56909 5.41602 7.28784 5.41602C6.86597 5.41602 6.53784 5.72071 6.53784 6.10742C6.53784 6.28321 6.58472 6.42383 6.67847 6.58789L9.53784 11.1816H7.93238C7.59253 11.1816 7.36988 11.4277 7.36988 11.7676C7.36988 12.0957 7.60425 12.3418 7.93238 12.3418H10.0769V13.2441H7.93238C7.59253 13.2441 7.36988 13.4902 7.36988 13.8184C7.36988 14.1465 7.60425 14.4043 7.93238 14.4043H10.0769V16.0918C10.0769 16.5605 10.3816 16.877 10.8152 16.877Z" fill="black" fill-opacity="0.85"/>
</g>
<defs>
<clipPath id="clip0_2207_25408">
<rect width="21.5742" height="21.5977" fill="white" transform="translate(0.010498 0.154297)"/>
</clipPath>
</defs>
</svg>
