<svg width="25" height="23" viewBox="0 0 25 23" fill="none" xmlns="http://www.w3.org/2000/svg">
<g clip-path="url(#clip0_2207_16260)">
<path d="M3.21607 0.154297C1.22388 0.154297 0.0168457 1.54883 0.0168457 3.3418C0.0168457 3.88086 0.157471 4.44336 0.473877 4.98242L9.56763 20.8262C10.1652 21.8809 11.2199 22.4199 12.298 22.4199C13.3762 22.4199 14.4191 21.8809 15.0285 20.8262L24.1223 4.98242C24.4152 4.45508 24.5793 3.88086 24.5793 3.3418C24.5793 1.54883 23.3723 0.154297 21.3801 0.154297H3.21607Z" fill="black" fill-opacity="0.85"/>
<path d="M4.68091 3.51758H19.9035C20.3957 3.51758 20.6652 3.98633 20.4191 4.43164L12.8137 17.709C12.5676 18.166 12.0168 18.166 11.7707 17.709L4.16529 4.43164C3.90747 3.97461 4.18873 3.51758 4.68091 3.51758Z" fill="white"/>
</g>
<defs>
<clipPath id="clip0_2207_16260">
<rect width="24.5625" height="22.3945" fill="white" transform="translate(0.0168457 0.154297)"/>
</clipPath>
</defs>
</svg>
