<svg width="24" height="25" viewBox="0 0 24 25" fill="none" xmlns="http://www.w3.org/2000/svg">
<g clip-path="url(#clip0_2207_25331)">
<path d="M11.9741 24.0605C18.5132 24.0605 23.9272 18.6348 23.9272 12.1074C23.9272 5.56836 18.5015 0.154297 11.9624 0.154297C5.43506 0.154297 0.0209961 5.56836 0.0209961 12.1074C0.0209961 18.6348 5.44678 24.0605 11.9741 24.0605Z" fill="black" fill-opacity="0.85"/>
<path d="M8.49366 17.4981C7.96631 17.4981 7.61475 17.1582 7.61475 16.6777C7.61475 16.4082 7.68506 16.2441 7.94288 15.8691L13.4976 8.18164V8.07618H8.38819C7.91944 8.07618 7.57959 7.78321 7.57959 7.2793C7.57959 6.79883 7.91944 6.49414 8.38819 6.49414H15.0913C15.6304 6.49414 15.9937 6.84571 15.9937 7.34961C15.9937 7.63086 15.9351 7.79492 15.7007 8.12305L10.1577 15.8105V15.916H15.5718C16.0405 15.916 16.3921 16.209 16.3921 16.7129C16.3921 17.1934 16.0405 17.4981 15.5718 17.4981H8.49366Z" fill="white"/>
</g>
<defs>
<clipPath id="clip0_2207_25331">
<rect width="23.9062" height="23.918" fill="white" transform="translate(0.0209961 0.154297)"/>
</clipPath>
</defs>
</svg>
