<svg width="20" height="25" viewBox="0 0 20 25" fill="none" xmlns="http://www.w3.org/2000/svg">
<g clip-path="url(#clip0_2207_4112)">
<path d="M4.64111 24.6582H9.3872C9.87939 24.6582 10.1723 24.3887 10.1723 23.9199C10.1723 23.4629 9.87939 23.2051 9.3872 23.2051H5.67236V23.1582L9.56298 18.4121C9.93798 17.9551 10.0551 17.6738 10.0551 17.3457C10.0551 16.7715 9.68017 16.4551 9.04736 16.4551H4.34814C3.84423 16.4551 3.56298 16.7363 3.56298 17.1934C3.56298 17.6621 3.84423 17.9199 4.34814 17.9199H8.10986V17.9668L4.04345 22.8887C3.75048 23.2402 3.66845 23.4277 3.66845 23.7676C3.66845 24.2832 4.04345 24.6582 4.64111 24.6582ZM13.102 18.1543H19.02C19.559 18.1543 19.8754 17.8613 19.8754 17.3574C19.8754 16.8652 19.559 16.584 19.02 16.584H14.2036V16.5371L19.2192 10.4902C19.6176 10.0098 19.7465 9.74024 19.7465 9.41211C19.7465 8.7793 19.3364 8.39258 18.5864 8.39258H12.8208C12.2817 8.39258 11.977 8.68555 11.977 9.17774C11.977 9.68164 12.2817 9.96289 12.8208 9.96289H17.6254V10.0098L12.4692 16.2441C12.1645 16.6074 12.0473 16.8418 12.0473 17.1699C12.0473 17.7559 12.4575 18.1543 13.102 18.1543ZM1.1958 11.8496H8.64892C9.21142 11.8496 9.52783 11.5449 9.52783 11.0176C9.52783 10.5137 9.21142 10.2207 8.64892 10.2207H2.39111V10.1738L8.95361 2.26368C9.32861 1.80664 9.42236 1.54883 9.42236 1.19727C9.42236 0.552735 8.97705 0.154297 8.20361 0.154297H0.914551C0.36377 0.154297 0.0356445 0.447266 0.0356445 0.962891C0.0356445 1.47852 0.36377 1.78321 0.914551 1.78321H7.17236V1.81836L0.45752 9.93946C0.187989 10.2559 0.117676 10.4902 0.117676 10.8301C0.117676 11.4395 0.53955 11.8496 1.1958 11.8496Z" fill="black" fill-opacity="0.85"/>
</g>
<defs>
<clipPath id="clip0_2207_4112">
<rect width="19.8398" height="24.5273" fill="white" transform="translate(0.0356445 0.154297)"/>
</clipPath>
</defs>
</svg>
