<svg width="24" height="24" viewBox="0 0 24 24" fill="none" xmlns="http://www.w3.org/2000/svg">
<g clip-path="url(#clip0_2207_26306)">
<path d="M11.9531 23.9062C18.4922 23.9062 23.9062 18.4805 23.9062 11.9531C23.9062 5.41406 18.4805 0 11.9414 0C5.41406 0 0 5.41406 0 11.9531C0 18.4805 5.42578 23.9062 11.9531 23.9062ZM11.9531 21.9141C6.42188 21.9141 2.00391 17.4844 2.00391 11.9531C2.00391 6.42188 6.41016 1.99219 11.9414 1.99219C17.4727 1.99219 21.9141 6.42188 21.9141 11.9531C21.9141 17.4844 17.4844 21.9141 11.9531 21.9141Z" fill="black" fill-opacity="0.85"/>
<path d="M11.9414 17.5312C14.4258 17.5312 16.0898 15.293 16.0898 11.9531C16.0898 8.61328 14.4258 6.375 11.9414 6.375C9.46875 6.375 7.80469 8.61328 7.80469 11.9531C7.80469 15.293 9.46875 17.5312 11.9414 17.5312ZM11.9414 16.0312C10.5352 16.0312 9.59766 14.4023 9.59766 11.9531C9.59766 9.50391 10.5352 7.875 11.9414 7.875C13.3477 7.875 14.2852 9.50391 14.2852 11.9531C14.2852 14.4023 13.3477 16.0312 11.9414 16.0312Z" fill="black" fill-opacity="0.85"/>
</g>
<defs>
<clipPath id="clip0_2207_26306">
<rect width="23.9062" height="23.918" fill="white"/>
</clipPath>
</defs>
</svg>
