<svg width="22" height="22" viewBox="0 0 22 22" fill="none" xmlns="http://www.w3.org/2000/svg">
<g clip-path="url(#clip0_2207_26321)">
<path d="M3.68604 21.5977H17.9008C20.3618 21.5977 21.5805 20.3789 21.5805 17.9648V3.65625C21.5805 1.24219 20.3618 0.0234375 17.9008 0.0234375H3.68604C1.23682 0.0234375 0.00634766 1.23047 0.00634766 3.65625V17.9648C0.00634766 20.3906 1.23682 21.5977 3.68604 21.5977Z" fill="black" fill-opacity="0.85"/>
<path d="M10.7994 16.5469C8.24463 16.5469 6.53369 14.2383 6.53369 10.793C6.53369 7.34766 8.24463 5.03906 10.7994 5.03906C13.3658 5.03906 15.0767 7.34766 15.0767 10.793C15.0767 14.2383 13.3658 16.5469 10.7994 16.5469ZM10.7994 14.9883C12.2408 14.9883 13.2134 13.3125 13.2134 10.793C13.2134 8.27344 12.2408 6.59766 10.7994 6.59766C9.36963 6.59766 8.38526 8.27344 8.38526 10.793C8.38526 13.3125 9.36963 14.9883 10.7994 14.9883Z" fill="white"/>
</g>
<defs>
<clipPath id="clip0_2207_26321">
<rect width="21.5742" height="21.5977" fill="white" transform="translate(0.00634766)"/>
</clipPath>
</defs>
</svg>
