<svg width="24" height="24" viewBox="0 0 24 24" fill="none" xmlns="http://www.w3.org/2000/svg">
<g clip-path="url(#clip0_2207_26571)">
<path d="M11.9636 23.9062C18.5027 23.9062 23.9167 18.4805 23.9167 11.9531C23.9167 5.41406 18.491 0 11.9519 0C5.42456 0 0.010498 5.41406 0.010498 11.9531C0.010498 18.4805 5.43628 23.9062 11.9636 23.9062Z" fill="black" fill-opacity="0.85"/>
<path d="M8.13159 17.0859C5.71753 17.0859 4.99097 14.3906 4.99097 11.9531C4.99097 9.51562 5.71753 6.82031 8.13159 6.82031C10.5339 6.82031 11.2605 9.51562 11.2605 11.9531C11.2605 14.3906 10.5339 17.0859 8.13159 17.0859ZM8.13159 15.6445C9.11597 15.6445 9.49097 14.0508 9.49097 11.9531C9.49097 9.84375 9.11597 8.26172 8.13159 8.26172C7.14722 8.26172 6.77222 9.84375 6.77222 11.9531C6.77222 14.0508 7.14722 15.6445 8.13159 15.6445ZM15.7957 17.0859C13.3933 17.0859 12.6667 14.3906 12.6667 11.9531C12.6667 9.51562 13.3933 6.82031 15.7957 6.82031C18.2097 6.82031 18.9363 9.51562 18.9363 11.9531C18.9363 14.3906 18.2097 17.0859 15.7957 17.0859ZM15.7957 15.6445C16.78 15.6445 17.155 14.0508 17.155 11.9531C17.155 9.84375 16.78 8.26172 15.7957 8.26172C14.8113 8.26172 14.4363 9.84375 14.4363 11.9531C14.4363 14.0508 14.8113 15.6445 15.7957 15.6445Z" fill="white"/>
</g>
<defs>
<clipPath id="clip0_2207_26571">
<rect width="23.9062" height="23.918" fill="white" transform="translate(0.010498)"/>
</clipPath>
</defs>
</svg>
