<svg width="24" height="24" viewBox="0 0 24 24" fill="none" xmlns="http://www.w3.org/2000/svg">
<g clip-path="url(#clip0_2207_26566)">
<path d="M11.9614 23.9062C18.5005 23.9062 23.9145 18.4805 23.9145 11.9531C23.9145 5.41406 18.4888 0 11.9497 0C5.42236 0 0.00830078 5.41406 0.00830078 11.9531C0.00830078 18.4805 5.43408 23.9062 11.9614 23.9062ZM11.9614 21.9141C6.43018 21.9141 2.01221 17.4844 2.01221 11.9531C2.01221 6.42188 6.41846 1.99219 11.9497 1.99219C17.481 1.99219 21.9224 6.42188 21.9224 11.9531C21.9224 17.4844 17.4927 21.9141 11.9614 21.9141Z" fill="black" fill-opacity="0.85"/>
<path d="M8.23486 16.9336C10.5669 16.9336 11.27 14.3086 11.27 11.9531C11.27 9.59766 10.5669 6.97266 8.23486 6.97266C5.90283 6.97266 5.19971 9.59766 5.19971 11.9531C5.19971 14.3086 5.90283 16.9336 8.23486 16.9336ZM8.23486 15.5391C7.27392 15.5391 6.91064 13.9805 6.91064 11.9531C6.91064 9.91406 7.27392 8.35547 8.23486 8.35547C9.1958 8.35547 9.55908 9.91406 9.55908 11.9531C9.55908 13.9805 9.1958 15.5391 8.23486 15.5391ZM15.6645 16.9336C17.9966 16.9336 18.6997 14.3086 18.6997 11.9531C18.6997 9.59766 17.9966 6.97266 15.6645 6.97266C13.3325 6.97266 12.6294 9.59766 12.6294 11.9531C12.6294 14.3086 13.3325 16.9336 15.6645 16.9336ZM15.6645 15.5391C14.7036 15.5391 14.3403 13.9805 14.3403 11.9531C14.3403 9.91406 14.7036 8.35547 15.6645 8.35547C16.6255 8.35547 16.9888 9.91406 16.9888 11.9531C16.9888 13.9805 16.6255 15.5391 15.6645 15.5391Z" fill="black" fill-opacity="0.85"/>
</g>
<defs>
<clipPath id="clip0_2207_26566">
<rect width="23.9062" height="23.918" fill="white" transform="translate(0.00830078)"/>
</clipPath>
</defs>
</svg>
