<svg width="22" height="22" viewBox="0 0 22 22" fill="none" xmlns="http://www.w3.org/2000/svg">
<g clip-path="url(#clip0_2207_26576)">
<path d="M3.69239 21.5977H17.9072C20.3682 21.5977 21.5869 20.3789 21.5869 17.9648V3.65625C21.5869 1.24219 20.3682 0.0234375 17.9072 0.0234375H3.69239C1.24317 0.0234375 0.0126953 1.23047 0.0126953 3.65625V17.9648C0.0126953 20.3906 1.24317 21.5977 3.69239 21.5977ZM3.71582 19.7109C2.54395 19.7109 1.89942 19.0898 1.89942 17.8711V3.75C1.89942 2.53125 2.54395 1.91016 3.71582 1.91016H17.8838C19.0439 1.91016 19.7002 2.53125 19.7002 3.75V17.8711C19.7002 19.0898 19.0439 19.7109 17.8838 19.7109H3.71582Z" fill="black" fill-opacity="0.85"/>
<path d="M7.09081 15.7734C9.42285 15.7734 10.126 13.1484 10.126 10.793C10.126 8.4375 9.42285 5.8125 7.09081 5.8125C4.75878 5.8125 4.05566 8.4375 4.05566 10.793C4.05566 13.1484 4.75878 15.7734 7.09081 15.7734ZM7.09081 14.3789C6.12988 14.3789 5.7666 12.8203 5.7666 10.793C5.7666 8.75391 6.12988 7.19531 7.09081 7.19531C8.05175 7.19531 8.41503 8.75391 8.41503 10.793C8.41503 12.8203 8.05175 14.3789 7.09081 14.3789ZM14.5205 15.7734C16.8643 15.7734 17.5557 13.1484 17.5557 10.793C17.5557 8.4375 16.8643 5.8125 14.5205 5.8125C12.1885 5.8125 11.4854 8.4375 11.4854 10.793C11.4854 13.1484 12.1885 15.7734 14.5205 15.7734ZM14.5205 14.3789C13.5596 14.3789 13.1963 12.8203 13.1963 10.793C13.1963 8.75391 13.5596 7.19531 14.5205 7.19531C15.4815 7.19531 15.8447 8.75391 15.8447 10.793C15.8447 12.8203 15.4815 14.3789 14.5205 14.3789Z" fill="black" fill-opacity="0.85"/>
</g>
<defs>
<clipPath id="clip0_2207_26576">
<rect width="21.5742" height="21.5977" fill="white" transform="translate(0.0126953)"/>
</clipPath>
</defs>
</svg>
