<svg width="22" height="22" viewBox="0 0 22 22" fill="none" xmlns="http://www.w3.org/2000/svg">
<g clip-path="url(#clip0_2207_26601)">
<path d="M3.70288 21.5977H17.9177C20.3787 21.5977 21.5974 20.3789 21.5974 17.9648V3.65625C21.5974 1.24219 20.3787 0.0234375 17.9177 0.0234375H3.70288C1.25366 0.0234375 0.0231934 1.23047 0.0231934 3.65625V17.9648C0.0231934 20.3906 1.25366 21.5977 3.70288 21.5977Z" fill="black" fill-opacity="0.85"/>
<path d="M7.85131 15.9258C5.44897 15.9258 4.72241 13.2305 4.72241 10.793C4.72241 8.35547 5.44897 5.66016 7.85131 5.66016C10.2654 5.66016 10.992 8.35547 10.992 10.793C10.992 13.2305 10.2654 15.9258 7.85131 15.9258ZM7.85131 14.4844C8.83569 14.4844 9.21069 12.8906 9.21069 10.793C9.21069 8.68359 8.83569 7.10156 7.85131 7.10156C6.86694 7.10156 6.49194 8.68359 6.49194 10.793C6.49194 12.8906 6.86694 14.4844 7.85131 14.4844ZM15.1287 15.8086C14.6248 15.8086 14.2263 15.4102 14.2263 14.918V7.59375L13.113 8.48438C12.9959 8.57812 12.8787 8.63672 12.6912 8.63672C12.3162 8.63672 12.0584 8.36719 12.0584 7.99219C12.0584 7.67578 12.2341 7.44141 12.4451 7.27734L13.781 6.24609C14.0505 6.03516 14.4724 5.75391 14.9763 5.75391C15.6091 5.75391 15.9959 6.11719 15.9959 6.73828V14.918C15.9959 15.4102 15.5974 15.8086 15.1287 15.8086Z" fill="white"/>
</g>
<defs>
<clipPath id="clip0_2207_26601">
<rect width="21.5742" height="21.5977" fill="white" transform="translate(0.0231934)"/>
</clipPath>
</defs>
</svg>
