<svg width="24" height="24" viewBox="0 0 24 24" fill="none" xmlns="http://www.w3.org/2000/svg">
<g clip-path="url(#clip0_2207_26611)">
<path d="M11.9804 23.9062C18.5195 23.9062 23.9335 18.4805 23.9335 11.9531C23.9335 5.41406 18.5078 0 11.9687 0C5.4414 0 0.0273438 5.41406 0.0273438 11.9531C0.0273438 18.4805 5.45312 23.9062 11.9804 23.9062Z" fill="black" fill-opacity="0.85"/>
<path d="M8.3125 17.0859C5.89843 17.0859 5.18359 14.3906 5.18359 11.9531C5.18359 9.51562 5.89843 6.82031 8.3125 6.82031C10.7265 6.82031 11.4414 9.51562 11.4414 11.9531C11.4414 14.3906 10.7265 17.0859 8.3125 17.0859ZM8.3125 15.6445C9.29687 15.6445 9.67187 14.0508 9.67187 11.9531C9.67187 9.84375 9.29687 8.26172 8.3125 8.26172C7.32812 8.26172 6.95312 9.84375 6.95312 11.9531C6.95312 14.0508 7.32812 15.6445 8.3125 15.6445ZM13.5625 16.8398C13.0117 16.8398 12.7421 16.5469 12.7421 16.1367C12.7421 15.75 12.9765 15.4453 13.1992 15.1641L15.2968 12.4805C15.9296 11.6719 16.6093 10.6875 16.6093 9.71484C16.6093 8.85938 16.1992 8.22656 15.4843 8.22656C14.7812 8.22656 14.4882 8.73047 14.2656 9.53906C14.1367 9.9375 13.8906 10.1133 13.4921 10.1133C13.0234 10.1133 12.7539 9.80859 12.7539 9.35156C12.7539 8.09766 13.9375 6.82031 15.4843 6.82031C17.1484 6.82031 18.2617 8.00391 18.2617 9.63281C18.2617 10.6992 17.8515 11.5898 16.6562 13.0898L14.8984 15.3164V15.4102H17.7578C18.1796 15.4102 18.4492 15.668 18.4492 16.1367C18.4492 16.5586 18.1914 16.8398 17.7578 16.8398H13.5625Z" fill="white"/>
</g>
<defs>
<clipPath id="clip0_2207_26611">
<rect width="23.9062" height="23.918" fill="white" transform="translate(0.0273438)"/>
</clipPath>
</defs>
</svg>
