<svg width="22" height="22" viewBox="0 0 22 22" fill="none" xmlns="http://www.w3.org/2000/svg">
<g clip-path="url(#clip0_2207_26656)">
<path d="M3.72583 21.5977H17.9406C20.4016 21.5977 21.6203 20.3789 21.6203 17.9648V3.65625C21.6203 1.24219 20.4016 0.0234375 17.9406 0.0234375H3.72583C1.27661 0.0234375 0.0461426 1.23047 0.0461426 3.65625V17.9648C0.0461426 20.3906 1.27661 21.5977 3.72583 21.5977ZM3.74926 19.7109C2.57739 19.7109 1.93286 19.0898 1.93286 17.8711V3.75C1.93286 2.53125 2.57739 1.91016 3.74926 1.91016H17.9172C19.0773 1.91016 19.7336 2.53125 19.7336 3.75V17.8711C19.7336 19.0898 19.0773 19.7109 17.9172 19.7109H3.74926Z" fill="black" fill-opacity="0.85"/>
<path d="M7.10083 15.7734C9.43286 15.7734 10.1242 13.1484 10.1242 10.793C10.1242 8.4375 9.43286 5.8125 7.10083 5.8125C4.75708 5.8125 4.06567 8.4375 4.06567 10.793C4.06567 13.1484 4.75708 15.7734 7.10083 15.7734ZM7.10083 14.3789C6.13989 14.3789 5.77661 12.8203 5.77661 10.793C5.77661 8.75391 6.13989 7.19531 7.10083 7.19531C8.06176 7.19531 8.42505 8.75391 8.42505 10.793C8.42505 12.8203 8.06176 14.3789 7.10083 14.3789ZM15.7961 15.6797C16.2414 15.6797 16.593 15.4102 16.593 14.8477V13.6758H17.0149C17.4719 13.6758 17.6828 13.3828 17.6828 12.9844C17.6828 12.6094 17.4836 12.3164 17.0149 12.3164H16.593V7.17188C16.593 6.36328 16.0656 5.90625 15.3039 5.90625C14.4719 5.90625 14.0852 6.32812 13.757 7.05469L11.6594 11.6016C11.4719 12.0586 11.4016 12.3633 11.4016 12.7266C11.4016 13.2891 11.7883 13.6758 12.3625 13.6758H14.9875V14.8477C14.9875 15.4688 15.4211 15.6797 15.7961 15.6797ZM15.0227 12.3516H12.843V12.2695L14.9758 7.38281H15.0227V12.3516Z" fill="black" fill-opacity="0.85"/>
</g>
<defs>
<clipPath id="clip0_2207_26656">
<rect width="21.5742" height="21.5977" fill="white" transform="translate(0.0461426)"/>
</clipPath>
</defs>
</svg>
