<svg width="24" height="24" viewBox="0 0 24 24" fill="none" xmlns="http://www.w3.org/2000/svg">
<g clip-path="url(#clip0_2207_26671)">
<path d="M12.0056 23.9062C18.5447 23.9062 23.9587 18.4805 23.9587 11.9531C23.9587 5.41406 18.533 0 11.9939 0C5.46655 0 0.0524902 5.41406 0.0524902 11.9531C0.0524902 18.4805 5.47827 23.9062 12.0056 23.9062Z" fill="black" fill-opacity="0.85"/>
<path d="M8.22046 17.0859C5.81811 17.0859 5.09155 14.3906 5.09155 11.9531C5.09155 9.51562 5.81811 6.82031 8.22046 6.82031C10.6345 6.82031 11.3611 9.51562 11.3611 11.9531C11.3611 14.3906 10.6345 17.0859 8.22046 17.0859ZM8.22046 15.6445C9.20483 15.6445 9.57983 14.0508 9.57983 11.9531C9.57983 9.84375 9.20483 8.26172 8.22046 8.26172C7.23608 8.26172 6.86108 9.84375 6.86108 11.9531C6.86108 14.0508 7.23608 15.6445 8.22046 15.6445ZM15.697 17.0859C14.6072 17.0859 13.5408 16.4531 13.1072 15.4688C13.0017 15.2344 12.9314 14.9648 12.9314 14.6836C12.9314 14.2383 13.2244 13.957 13.658 13.957C13.9861 13.957 14.2556 14.1445 14.3963 14.5312C14.6189 15.1875 15.0056 15.668 15.6736 15.668C16.5642 15.668 16.9158 14.6484 16.9158 13.6406C16.9158 12.75 16.5759 11.6836 15.697 11.6836C15.2048 11.6836 14.9002 11.9648 14.6306 12.3633C14.3728 12.6914 14.1853 12.8203 13.8572 12.8203C13.2947 12.8203 13.0603 12.4102 13.0603 11.9531C13.0603 11.7891 13.0603 11.6016 13.072 11.4141L13.283 8.10938C13.3181 7.48828 13.6111 7.06641 14.2322 7.06641H17.5603C17.9587 7.06641 18.24 7.38281 18.24 7.78125C18.24 8.21484 17.9705 8.50781 17.5603 8.50781H14.7244L14.5369 11.4375H14.5837C14.8884 10.7344 15.5447 10.4062 16.2595 10.4062C17.8181 10.4062 18.615 11.9297 18.615 13.5938C18.615 15.5039 17.5837 17.0859 15.697 17.0859Z" fill="white"/>
</g>
<defs>
<clipPath id="clip0_2207_26671">
<rect width="23.9062" height="23.918" fill="white" transform="translate(0.0524902)"/>
</clipPath>
</defs>
</svg>
