<svg width="22" height="22" viewBox="0 0 22 22" fill="none" xmlns="http://www.w3.org/2000/svg">
<g clip-path="url(#clip0_2207_26696)">
<path d="M3.74268 21.5977H17.9575C20.4185 21.5977 21.6372 20.3789 21.6372 17.9648V3.65625C21.6372 1.24219 20.4185 0.0234375 17.9575 0.0234375H3.74268C1.29346 0.0234375 0.0629883 1.23047 0.0629883 3.65625V17.9648C0.0629883 20.3906 1.29346 21.5977 3.74268 21.5977ZM3.76611 19.7109C2.59424 19.7109 1.94971 19.0898 1.94971 17.8711V3.75C1.94971 2.53125 2.59424 1.91016 3.76611 1.91016H17.9341C19.0942 1.91016 19.7505 2.53125 19.7505 3.75V17.8711C19.7505 19.0898 19.0942 19.7109 17.9341 19.7109H3.76611Z" fill="black" fill-opacity="0.85"/>
<path d="M7.00049 15.7734C9.33252 15.7734 10.0357 13.1484 10.0357 10.793C10.0357 8.4375 9.33252 5.8125 7.00049 5.8125C4.66846 5.8125 3.96533 8.4375 3.96533 10.793C3.96533 13.1484 4.66846 15.7734 7.00049 15.7734ZM7.00049 14.3789C6.03955 14.3789 5.67627 12.8203 5.67627 10.793C5.67627 8.75391 6.03955 7.19531 7.00049 7.19531C7.96143 7.19531 8.32471 8.75391 8.32471 10.793C8.32471 12.8203 7.96143 14.3789 7.00049 14.3789ZM14.4888 15.7734C16.27 15.7734 17.3013 14.2734 17.3013 12.4336C17.3013 10.8516 16.5396 9.35156 14.981 9.35156C14.0318 9.35156 13.3169 9.98438 13.0474 10.9922H13.0005C13.0005 10.9453 13.0005 10.8984 13.0005 10.8633C13.0005 9.5625 13.1646 7.20703 14.4653 7.20703C14.9927 7.20703 15.356 7.58203 15.5552 8.07422C15.7192 8.4375 15.9419 8.60156 16.3169 8.60156C16.7974 8.60156 16.9966 8.28516 16.9966 7.89844C16.9966 7.76953 16.9732 7.62891 16.938 7.47656C16.6919 6.46875 15.6724 5.83594 14.5005 5.83594C12.0982 5.83594 11.395 8.53125 11.395 10.9102C11.395 13.125 12.1099 15.7734 14.4888 15.7734ZM14.4653 14.4023C13.5747 14.4023 13.2232 13.3008 13.2232 12.457C13.2232 11.6016 13.6099 10.6289 14.4536 10.6289C15.3208 10.6289 15.6841 11.6367 15.6607 12.5039C15.6607 13.3594 15.2739 14.4023 14.4653 14.4023Z" fill="black" fill-opacity="0.85"/>
</g>
<defs>
<clipPath id="clip0_2207_26696">
<rect width="21.5742" height="21.5977" fill="white" transform="translate(0.0629883)"/>
</clipPath>
</defs>
</svg>
