<svg width="24" height="24" viewBox="0 0 24 24" fill="none" xmlns="http://www.w3.org/2000/svg">
<g clip-path="url(#clip0_2207_26711)">
<path d="M12.0224 23.9062C18.5615 23.9062 23.9755 18.4805 23.9755 11.9531C23.9755 5.41406 18.5498 0 12.0107 0C5.4834 0 0.0693359 5.41406 0.0693359 11.9531C0.0693359 18.4805 5.49512 23.9062 12.0224 23.9062Z" fill="black" fill-opacity="0.85"/>
<path d="M8.65917 17.0859C6.24511 17.0859 5.53027 14.3906 5.53027 11.9531C5.53027 9.51562 6.24511 6.82031 8.65917 6.82031C11.0732 6.82031 11.7998 9.51562 11.7998 11.9531C11.7998 14.3906 11.0732 17.0859 8.65917 17.0859ZM8.65917 15.6445C9.64355 15.6445 10.0186 14.0508 10.0186 11.9531C10.0186 9.84375 9.64355 8.26172 8.65917 8.26172C7.6748 8.26172 7.2998 9.84375 7.2998 11.9531C7.2998 14.0508 7.6748 15.6445 8.65917 15.6445ZM14.5537 17.0039C13.9677 17.0039 13.7568 16.6055 13.7568 16.2539C13.7568 15.9609 13.792 15.8086 13.8974 15.5391L16.5693 8.61328V8.50781H13.4638C13.0537 8.50781 12.7724 8.20312 12.7724 7.78125C12.7724 7.37109 13.0537 7.06641 13.4638 7.06641H17.3779C17.917 7.06641 18.3388 7.44141 18.3388 8.00391C18.3388 8.35547 18.2568 8.64844 18.1162 9.02344L15.3623 16.3828C15.1982 16.8281 14.999 17.0039 14.5537 17.0039Z" fill="white"/>
</g>
<defs>
<clipPath id="clip0_2207_26711">
<rect width="23.9062" height="23.918" fill="white" transform="translate(0.0693359)"/>
</clipPath>
</defs>
</svg>
