<svg width="22" height="22" viewBox="0 0 22 22" fill="none" xmlns="http://www.w3.org/2000/svg">
<g clip-path="url(#clip0_2207_26716)">
<path d="M3.75098 21.5977H17.9658C20.4268 21.5977 21.6455 20.3789 21.6455 17.9648V3.65625C21.6455 1.24219 20.4268 0.0234375 17.9658 0.0234375H3.75098C1.30176 0.0234375 0.0712891 1.23047 0.0712891 3.65625V17.9648C0.0712891 20.3906 1.30176 21.5977 3.75098 21.5977ZM3.77441 19.7109C2.60254 19.7109 1.95801 19.0898 1.95801 17.8711V3.75C1.95801 2.53125 2.60254 1.91016 3.77441 1.91016H17.9424C19.1025 1.91016 19.7588 2.53125 19.7588 3.75V17.8711C19.7588 19.0898 19.1025 19.7109 17.9424 19.7109H3.77441Z" fill="black" fill-opacity="0.85"/>
<path d="M7.60645 15.7734C9.93848 15.7734 10.6416 13.1484 10.6416 10.793C10.6416 8.4375 9.93848 5.8125 7.60645 5.8125C5.27441 5.8125 4.57129 8.4375 4.57129 10.793C4.57129 13.1484 5.27441 15.7734 7.60645 15.7734ZM7.60645 14.3789C6.64551 14.3789 6.28223 12.8203 6.28223 10.793C6.28223 8.75391 6.64551 7.19531 7.60645 7.19531C8.56738 7.19531 8.93067 8.75391 8.93067 10.793C8.93067 12.8203 8.56738 14.3789 7.60645 14.3789ZM13.3135 15.6914C13.7354 15.6914 13.9346 15.5156 14.0869 15.0938L16.7705 7.94531C16.8994 7.58203 16.9815 7.30078 16.9815 6.96094C16.9815 6.42188 16.5713 6.05859 16.0557 6.05859H12.2705C11.8604 6.05859 11.5908 6.35156 11.5908 6.75C11.5908 7.14844 11.8604 7.44141 12.2705 7.44141H15.2822V7.54688L12.6807 14.2734C12.5752 14.5312 12.5401 14.6836 12.5401 14.9648C12.5401 15.3047 12.751 15.6914 13.3135 15.6914Z" fill="black" fill-opacity="0.85"/>
</g>
<defs>
<clipPath id="clip0_2207_26716">
<rect width="21.5742" height="21.5977" fill="white" transform="translate(0.0712891)"/>
</clipPath>
</defs>
</svg>
