<svg width="24" height="24" viewBox="0 0 24 24" fill="none" xmlns="http://www.w3.org/2000/svg">
<g clip-path="url(#clip0_2207_26731)">
<path d="M12.0307 23.9062C18.5698 23.9062 23.9838 18.4805 23.9838 11.9531C23.9838 5.41406 18.5581 0 12.019 0C5.4917 0 0.0776367 5.41406 0.0776367 11.9531C0.0776367 18.4805 5.50342 23.9062 12.0307 23.9062Z" fill="black" fill-opacity="0.85"/>
<path d="M8.19873 17.0859C5.78467 17.0859 5.05811 14.3906 5.05811 11.9531C5.05811 9.51562 5.78467 6.82031 8.19873 6.82031C10.601 6.82031 11.3276 9.51562 11.3276 11.9531C11.3276 14.3906 10.601 17.0859 8.19873 17.0859ZM8.19873 15.6445C9.18311 15.6445 9.5581 14.0508 9.5581 11.9531C9.5581 9.84375 9.18311 8.26172 8.19873 8.26172C7.21436 8.26172 6.83936 9.84375 6.83936 11.9531C6.83936 14.0508 7.21436 15.6445 8.19873 15.6445ZM15.8393 17.0508C14.0815 17.0508 12.7221 15.9961 12.7221 14.2031C12.7221 12.8906 13.5073 11.9414 14.5503 11.707V11.6719C13.7651 11.4375 12.9917 10.7109 12.9917 9.48047C12.9917 7.78125 14.351 6.86719 15.8393 6.86719C17.562 6.86719 18.7221 7.92188 18.7221 9.49219C18.7221 10.6406 17.9956 11.4258 17.187 11.6719V11.707C18.1479 11.9297 18.9917 12.8789 18.9917 14.2031C18.9917 15.8555 17.7612 17.0508 15.8393 17.0508ZM15.851 11.1211C16.6128 11.1211 17.0112 10.4531 17.0112 9.65625C17.0112 8.88281 16.6362 8.16797 15.851 8.16797C15.101 8.16797 14.6909 8.88281 14.6909 9.65625C14.6909 10.3711 15.0776 11.1211 15.851 11.1211ZM15.851 15.7383C16.7299 15.7383 17.1635 14.9648 17.1635 14.0625C17.1635 13.1484 16.7065 12.4336 15.851 12.4336C14.9721 12.4336 14.5385 13.1953 14.5385 14.0625C14.5385 14.9648 14.9721 15.7383 15.851 15.7383Z" fill="white"/>
</g>
<defs>
<clipPath id="clip0_2207_26731">
<rect width="23.9062" height="23.918" fill="white" transform="translate(0.0776367)"/>
</clipPath>
</defs>
</svg>
