<svg width="24" height="24" viewBox="0 0 24 24" fill="none" xmlns="http://www.w3.org/2000/svg">
<g clip-path="url(#clip0_2207_26726)">
<path d="M12.0288 23.9062C18.5679 23.9062 23.9819 18.4805 23.9819 11.9531C23.9819 5.41406 18.5562 0 12.0171 0C5.48974 0 0.0756836 5.41406 0.0756836 11.9531C0.0756836 18.4805 5.50146 23.9062 12.0288 23.9062ZM12.0288 21.9141C6.49756 21.9141 2.07959 17.4844 2.07959 11.9531C2.07959 6.42188 6.48584 1.99219 12.0171 1.99219C17.5484 1.99219 21.9898 6.42188 21.9898 11.9531C21.9898 17.4844 17.5601 21.9141 12.0288 21.9141Z" fill="black" fill-opacity="0.85"/>
<path d="M8.30224 16.9336C10.6343 16.9336 11.3374 14.3086 11.3374 11.9531C11.3374 9.59766 10.6343 6.97266 8.30224 6.97266C5.97021 6.97266 5.26709 9.59766 5.26709 11.9531C5.26709 14.3086 5.97021 16.9336 8.30224 16.9336ZM8.30224 15.5391C7.3413 15.5391 6.97802 13.9805 6.97802 11.9531C6.97802 9.91406 7.3413 8.35547 8.30224 8.35547C9.26318 8.35547 9.62646 9.91406 9.62646 11.9531C9.62646 13.9805 9.26318 15.5391 8.30224 15.5391ZM15.7085 16.8984C17.5718 16.8984 18.7554 15.7383 18.7554 14.1328C18.7554 12.8555 17.9468 11.9297 17.0093 11.7188V11.6836C17.7945 11.4375 18.4976 10.6758 18.4976 9.5625C18.4976 8.05078 17.3726 7.01953 15.7085 7.01953C14.2671 7.01953 12.9546 7.91016 12.9546 9.55078C12.9546 10.7461 13.6929 11.4492 14.4546 11.6836V11.7188C13.4468 11.9414 12.6851 12.8672 12.6851 14.1328C12.6851 15.8672 13.9976 16.8984 15.7085 16.8984ZM15.7202 11.1445C14.9702 11.1445 14.5835 10.418 14.5835 9.72656C14.5835 8.97656 14.9937 8.27344 15.7202 8.27344C16.4819 8.27344 16.8452 8.97656 16.8452 9.72656C16.8452 10.5 16.4585 11.1445 15.7202 11.1445ZM15.7202 15.6328C14.8648 15.6328 14.4429 14.8711 14.4429 14.0039C14.4429 13.1602 14.8648 12.4102 15.7202 12.4102C16.5523 12.4102 16.9976 13.1133 16.9976 14.0039C16.9976 14.8711 16.5757 15.6328 15.7202 15.6328Z" fill="black" fill-opacity="0.85"/>
</g>
<defs>
<clipPath id="clip0_2207_26726">
<rect width="23.9062" height="23.918" fill="white" transform="translate(0.0756836)"/>
</clipPath>
</defs>
</svg>
