<svg width="22" height="22" viewBox="0 0 22 22" fill="none" xmlns="http://www.w3.org/2000/svg">
<g clip-path="url(#clip0_2207_26736)">
<path d="M3.75952 21.5977H17.9743C20.4353 21.5977 21.654 20.3789 21.654 17.9648V3.65625C21.654 1.24219 20.4353 0.0234375 17.9743 0.0234375H3.75952C1.3103 0.0234375 0.079834 1.23047 0.079834 3.65625V17.9648C0.079834 20.3906 1.3103 21.5977 3.75952 21.5977ZM3.78295 19.7109C2.61108 19.7109 1.96655 19.0898 1.96655 17.8711V3.75C1.96655 2.53125 2.61108 1.91016 3.78295 1.91016H17.9509C19.111 1.91016 19.7673 2.53125 19.7673 3.75V17.8711C19.7673 19.0898 19.111 19.7109 17.9509 19.7109H3.78295Z" fill="black" fill-opacity="0.85"/>
<path d="M7.15795 15.7734C9.48999 15.7734 10.1931 13.1484 10.1931 10.793C10.1931 8.4375 9.48999 5.8125 7.15795 5.8125C4.82592 5.8125 4.1228 8.4375 4.1228 10.793C4.1228 13.1484 4.82592 15.7734 7.15795 15.7734ZM7.15795 14.3789C6.19702 14.3789 5.83374 12.8203 5.83374 10.793C5.83374 8.75391 6.19702 7.19531 7.15795 7.19531C8.11889 7.19531 8.48217 8.75391 8.48217 10.793C8.48217 12.8203 8.11889 14.3789 7.15795 14.3789ZM14.5759 15.7383C16.4275 15.7383 17.611 14.5781 17.611 12.9727C17.611 11.6953 16.8025 10.7695 15.865 10.5586V10.5234C16.6501 10.2773 17.3532 9.51562 17.3532 8.40234C17.3532 6.89062 16.2282 5.85938 14.5759 5.85938C13.1228 5.85938 11.8103 6.75 11.8103 8.39062C11.8103 9.58594 12.5603 10.2891 13.3103 10.5234V10.5586C12.3025 10.7812 11.5407 11.707 11.5407 12.9727C11.5407 14.707 12.8532 15.7383 14.5759 15.7383ZM14.5759 9.98438C13.8259 9.98438 13.4392 9.25781 13.4392 8.56641C13.4392 7.81641 13.8493 7.11328 14.5759 7.11328C15.3376 7.11328 15.7009 7.81641 15.7009 8.56641C15.7009 9.33984 15.3142 9.98438 14.5759 9.98438ZM14.5759 14.4727C13.7204 14.4727 13.2986 13.7109 13.2986 12.8438C13.2986 12 13.7321 11.25 14.5759 11.25C15.4079 11.25 15.8532 11.9531 15.8532 12.8438C15.8532 13.7109 15.4314 14.4727 14.5759 14.4727Z" fill="black" fill-opacity="0.85"/>
</g>
<defs>
<clipPath id="clip0_2207_26736">
<rect width="21.5742" height="21.5977" fill="white" transform="translate(0.079834)"/>
</clipPath>
</defs>
</svg>
