<svg width="22" height="22" viewBox="0 0 22 22" fill="none" xmlns="http://www.w3.org/2000/svg">
<g clip-path="url(#clip0_2207_26756)">
<path d="M3.76782 21.5977H17.9826C20.4436 21.5977 21.6623 20.3789 21.6623 17.9648V3.65625C21.6623 1.24219 20.4436 0.0234375 17.9826 0.0234375H3.76782C1.3186 0.0234375 0.0881348 1.23047 0.0881348 3.65625V17.9648C0.0881348 20.3906 1.3186 21.5977 3.76782 21.5977ZM3.79125 19.7109C2.61938 19.7109 1.97485 19.0898 1.97485 17.8711V3.75C1.97485 2.53125 2.61938 1.91016 3.79125 1.91016H17.9592C19.1193 1.91016 19.7756 2.53125 19.7756 3.75V17.8711C19.7756 19.0898 19.1193 19.7109 17.9592 19.7109H3.79125Z" fill="black" fill-opacity="0.85"/>
<path d="M7.23658 15.7734C9.56861 15.7734 10.2717 13.1484 10.2717 10.793C10.2717 8.4375 9.56861 5.8125 7.23658 5.8125C4.90455 5.8125 4.20142 8.4375 4.20142 10.793C4.20142 13.1484 4.90455 15.7734 7.23658 15.7734ZM7.23658 14.3789C6.27564 14.3789 5.91236 12.8203 5.91236 10.793C5.91236 8.75391 6.27564 7.19531 7.23658 7.19531C8.19752 7.19531 8.5608 8.75391 8.5608 10.793C8.5608 12.8203 8.19752 14.3789 7.23658 14.3789ZM13.8928 12.2578C14.8537 12.2578 15.5686 11.625 15.8381 10.6172H15.885C15.885 10.6641 15.885 10.7109 15.885 10.7461C15.885 12.0469 15.7209 14.3906 14.4084 14.3906C13.8811 14.3906 13.5295 14.0273 13.3186 13.5234C13.1428 13.1367 12.9201 12.9844 12.5686 12.9844C12.0764 12.9844 11.8654 13.3125 11.8654 13.6992C11.8654 13.8398 11.9006 13.9805 11.9358 14.1211C12.1819 15.1406 13.2014 15.7617 14.3733 15.7617C16.7756 15.7617 17.4787 13.1016 17.4787 10.6992C17.4787 8.48438 16.7756 5.83594 14.3967 5.83594C12.6154 5.83594 11.5842 7.33594 11.5842 9.17578C11.5842 10.7578 12.3459 12.2578 13.8928 12.2578ZM14.4201 10.9688C13.5529 10.9688 13.2014 9.97266 13.2014 9.10547C13.2014 8.22656 13.5998 7.19531 14.4201 7.19531C15.299 7.19531 15.6623 8.22656 15.6623 9.10547C15.6623 10.0078 15.2639 10.9688 14.4201 10.9688Z" fill="black" fill-opacity="0.85"/>
</g>
<defs>
<clipPath id="clip0_2207_26756">
<rect width="21.5742" height="21.5977" fill="white" transform="translate(0.0881348)"/>
</clipPath>
</defs>
</svg>
