<svg width="34" height="23" viewBox="0 0 34 23" fill="none" xmlns="http://www.w3.org/2000/svg">
<g clip-path="url(#clip0_2207_15952)">
<path d="M0.0922852 11.4259C0.0922852 15.1407 1.29931 18.5509 3.33838 21.3282C3.70167 21.8321 4.32276 21.879 4.79151 21.504C5.21338 21.1407 5.27198 20.5782 4.93213 20.1095C3.15088 17.6837 2.0962 14.672 2.0962 11.4259C2.0962 8.16805 3.15088 5.16805 4.93213 2.71883C5.27198 2.27352 5.2251 1.6993 4.79151 1.33602C4.32276 0.961017 3.70167 1.01961 3.33838 1.5118C1.29931 4.28914 0.0922852 7.71102 0.0922852 11.4259ZM33.5376 11.4259C33.5376 7.71102 32.3423 4.28914 30.2915 1.5118C29.9282 1.01961 29.3071 0.961017 28.8384 1.33602C28.4048 1.6993 28.3696 2.27352 28.6978 2.71883C30.4907 5.16805 31.5337 8.16805 31.5337 11.4259C31.5337 14.672 30.4907 17.6837 28.6978 20.1095C28.3696 20.5782 28.4165 21.1407 28.8384 21.504C29.3071 21.879 29.9282 21.8321 30.2915 21.3282C32.3423 18.5509 33.5376 15.1407 33.5376 11.4259Z" fill="black" fill-opacity="0.85"/>
<path d="M16.815 22.8516C23.0611 22.8516 28.2525 17.6719 28.2525 11.4258C28.2525 5.17969 23.0611 0 16.8032 0C10.5571 0 5.38916 5.16797 5.38916 11.4258C5.38916 17.6719 10.5689 22.8516 16.815 22.8516ZM16.815 20.8594C11.5884 20.8594 7.39306 16.6641 7.39306 11.4258C7.39306 6.17578 11.5767 1.98047 16.8032 1.98047C22.0415 1.98047 26.2485 6.17578 26.2603 11.4258C26.272 16.6523 22.065 20.8594 16.815 20.8594Z" fill="black" fill-opacity="0.85"/>
<path d="M17.4126 17.0039C18.0103 17.0039 18.3618 16.6055 18.3618 15.9492V6.90234C18.3618 6.22266 17.9985 5.84766 17.3657 5.84766C16.9321 5.84766 16.6275 5.96484 16.1235 6.30469L14.0142 7.73438C13.7564 7.91016 13.6509 8.09766 13.6509 8.39062C13.6509 8.75391 13.9439 9.09375 14.3189 9.09375C14.4946 9.09375 14.6235 9.05859 14.8931 8.88281L16.4048 7.88672H16.4868V15.9492C16.4868 16.6055 16.8267 17.0039 17.4126 17.0039Z" fill="black" fill-opacity="0.85"/>
</g>
<defs>
<clipPath id="clip0_2207_15952">
<rect width="33.4453" height="22.8633" fill="white" transform="translate(0.0922852)"/>
</clipPath>
</defs>
</svg>
