<svg width="24" height="24" viewBox="0 0 24 24" fill="none" xmlns="http://www.w3.org/2000/svg">
<g clip-path="url(#clip0_2207_26326)">
<path d="M12.0476 23.9062C18.5867 23.9062 24.0007 18.4805 24.0007 11.9531C24.0007 5.41406 18.575 0 12.0359 0C5.50854 0 0.0944824 5.41406 0.0944824 11.9531C0.0944824 18.4805 5.52026 23.9062 12.0476 23.9062ZM12.0476 21.9141C6.51636 21.9141 2.09839 17.4844 2.09839 11.9531C2.09839 6.42188 6.50464 1.99219 12.0359 1.99219C17.5672 1.99219 22.0086 6.42188 22.0086 11.9531C22.0086 17.4844 17.5789 21.9141 12.0476 21.9141Z" fill="black" fill-opacity="0.85"/>
<path d="M12.6453 17.5312C13.2429 17.5312 13.5828 17.1328 13.5828 16.4766V7.42969C13.5828 6.75 13.2195 6.375 12.5984 6.375C12.1648 6.375 11.8601 6.49219 11.3562 6.83203L9.24683 8.26172C8.98902 8.4375 8.88354 8.625 8.88354 8.91797C8.88354 9.28125 9.17652 9.62109 9.55152 9.62109C9.7273 9.62109 9.85621 9.58594 10.1257 9.41016L11.6375 8.41406H11.7195V16.4766C11.7195 17.1328 12.0593 17.5312 12.6453 17.5312Z" fill="black" fill-opacity="0.85"/>
</g>
<defs>
<clipPath id="clip0_2207_26326">
<rect width="23.9062" height="23.918" fill="white" transform="translate(0.0944824)"/>
</clipPath>
</defs>
</svg>
