<svg width="22" height="22" viewBox="0 0 22 22" fill="none" xmlns="http://www.w3.org/2000/svg">
<g clip-path="url(#clip0_2207_26341)">
<path d="M3.68384 21.5992H17.8987C20.3597 21.5992 21.5784 20.3804 21.5784 17.9663V3.65771C21.5784 1.24365 20.3597 0.0249023 17.8987 0.0249023H3.68384C1.23462 0.0249023 0.00415039 1.23193 0.00415039 3.65771V17.9663C0.00415039 20.3921 1.23462 21.5992 3.68384 21.5992Z" fill="black" fill-opacity="0.85"/>
<path d="M11.4534 16.5484C10.844 16.5484 10.4925 16.1382 10.4925 15.4585V7.14991H10.4104L8.85181 8.18116C8.57056 8.36866 8.44165 8.39209 8.25415 8.39209C7.86743 8.39209 7.56274 8.04053 7.56274 7.66553C7.56274 7.36085 7.67993 7.18506 7.93774 6.98585L10.1175 5.50928C10.6331 5.15772 10.9495 5.04053 11.4065 5.04053C12.0628 5.04053 12.4378 5.42725 12.4378 6.13038V15.4585C12.4378 16.1382 12.0745 16.5484 11.4534 16.5484Z" fill="white"/>
</g>
<defs>
<clipPath id="clip0_2207_26341">
<rect width="21.5742" height="21.5977" fill="white" transform="translate(0.00415039 0.00146484)"/>
</clipPath>
</defs>
</svg>
