<svg width="24" height="24" viewBox="0 0 24 24" fill="none" xmlns="http://www.w3.org/2000/svg">
<g clip-path="url(#clip0_2207_26766)">
<path d="M11.9594 23.9077C18.4985 23.9077 23.9125 18.482 23.9125 11.9546C23.9125 5.41552 18.4868 0.00146484 11.9477 0.00146484C5.42041 0.00146484 0.00634766 5.41552 0.00634766 11.9546C0.00634766 18.482 5.43213 23.9077 11.9594 23.9077ZM11.9594 21.9156C6.42823 21.9156 2.01026 17.4859 2.01026 11.9546C2.01026 6.42335 6.41651 1.99365 11.9477 1.99365C17.479 1.99365 21.9204 6.42335 21.9204 11.9546C21.9204 17.4859 17.4907 21.9156 11.9594 21.9156Z" fill="black" fill-opacity="0.85"/>
<path d="M8.85401 16.8179C9.31104 16.8179 9.69776 16.4312 9.69776 15.9624V8.01708C9.69776 7.41943 9.32276 7.06787 8.7251 7.06787C8.23291 7.06787 7.83447 7.3374 7.55323 7.54834L6.26416 8.54443C6.06494 8.70849 5.90088 8.93115 5.90088 9.23584C5.90088 9.59912 6.14697 9.85693 6.49854 9.85693C6.68604 9.85693 6.80323 9.79834 6.92041 9.7163L7.99854 8.84912V15.9624C7.99854 16.4312 8.38526 16.8179 8.85401 16.8179ZM14.5961 16.9351C16.9282 16.9351 17.6313 14.3101 17.6313 11.9546C17.6313 9.59912 16.9282 6.97412 14.5961 6.97412C12.2641 6.97412 11.561 9.59912 11.561 11.9546C11.561 14.3101 12.2641 16.9351 14.5961 16.9351ZM14.5961 15.5406C13.6352 15.5406 13.2719 13.982 13.2719 11.9546C13.2719 9.91552 13.6352 8.35693 14.5961 8.35693C15.5571 8.35693 15.9204 9.91552 15.9204 11.9546C15.9204 13.982 15.5571 15.5406 14.5961 15.5406Z" fill="black" fill-opacity="0.85"/>
</g>
<defs>
<clipPath id="clip0_2207_26766">
<rect width="23.9062" height="23.918" fill="white" transform="translate(0.00634766 0.00146484)"/>
</clipPath>
</defs>
</svg>
