<svg width="22" height="22" viewBox="0 0 22 22" fill="none" xmlns="http://www.w3.org/2000/svg">
<g clip-path="url(#clip0_2207_26781)">
<path d="M3.69434 21.5992H17.9091C20.3701 21.5992 21.5888 20.3804 21.5888 17.9663V3.65771C21.5888 1.24365 20.3701 0.0249023 17.9091 0.0249023H3.69434C1.24512 0.0249023 0.0146484 1.23193 0.0146484 3.65771V17.9663C0.0146484 20.3921 1.24512 21.5992 3.69434 21.5992Z" fill="black" fill-opacity="0.85"/>
<path d="M7.62012 15.8101C7.12793 15.8101 6.72949 15.4117 6.72949 14.9195V7.59521L5.62793 8.48584C5.49903 8.57958 5.38184 8.63818 5.18262 8.63818C4.81934 8.63818 4.57324 8.36865 4.57324 7.99365C4.57324 7.67724 4.73731 7.44287 4.94824 7.2788L6.27246 6.24755C6.56543 6.03662 6.97559 5.75537 7.49121 5.75537C8.11231 5.75537 8.51074 6.11865 8.51074 6.73974V14.9195C8.51074 15.4117 8.10059 15.8101 7.62012 15.8101ZM13.5498 15.9273C11.1474 15.9273 10.4208 13.232 10.4208 10.7945C10.4208 8.35693 11.1474 5.66162 13.5498 5.66162C15.9521 5.66162 16.6787 8.35693 16.6787 10.7945C16.6787 13.232 15.9521 15.9273 13.5498 15.9273ZM13.5498 14.4859C14.5341 14.4859 14.9091 12.8921 14.9091 10.7945C14.9091 8.68505 14.5341 7.10302 13.5498 7.10302C12.5654 7.10302 12.1904 8.68505 12.1904 10.7945C12.1904 12.8921 12.5654 14.4859 13.5498 14.4859Z" fill="white"/>
</g>
<defs>
<clipPath id="clip0_2207_26781">
<rect width="21.5742" height="21.5977" fill="white" transform="translate(0.0146484 0.00146484)"/>
</clipPath>
</defs>
</svg>
