<svg width="22" height="22" viewBox="0 0 22 22" fill="none" xmlns="http://www.w3.org/2000/svg">
<g clip-path="url(#clip0_2207_26776)">
<path d="M3.69239 21.5992H17.9072C20.3682 21.5992 21.5869 20.3804 21.5869 17.9663V3.65771C21.5869 1.24365 20.3682 0.0249023 17.9072 0.0249023H3.69239C1.24317 0.0249023 0.0126953 1.23193 0.0126953 3.65771V17.9663C0.0126953 20.3921 1.24317 21.5992 3.69239 21.5992ZM3.71582 19.7124C2.54395 19.7124 1.89942 19.0913 1.89942 17.8726V3.75146C1.89942 2.53271 2.54395 1.91162 3.71582 1.91162H17.8838C19.0439 1.91162 19.7002 2.53271 19.7002 3.75146V17.8726C19.7002 19.0913 19.0439 19.7124 17.8838 19.7124H3.71582Z" fill="black" fill-opacity="0.85"/>
<path d="M7.71192 15.6577C8.18067 15.6577 8.56739 15.271 8.56739 14.8023V6.85694C8.56739 6.25928 8.19239 5.90771 7.58301 5.90771C7.09082 5.90771 6.69239 6.17725 6.41114 6.38819L5.12208 7.38427C4.92286 7.54834 4.75879 7.77099 4.75879 8.07568C4.75879 8.43896 5.00489 8.69677 5.35645 8.69677C5.54395 8.69677 5.66114 8.63819 5.77832 8.55616L6.85645 7.68896V14.8023C6.85645 15.271 7.24317 15.6577 7.71192 15.6577ZM13.4541 15.7749C15.7861 15.7749 16.4893 13.1499 16.4893 10.7945C16.4893 8.43897 15.7861 5.81396 13.4541 5.81396C11.1221 5.81396 10.4189 8.43897 10.4189 10.7945C10.4189 13.1499 11.1221 15.7749 13.4541 15.7749ZM13.4541 14.3804C12.4932 14.3804 12.1299 12.8218 12.1299 10.7945C12.1299 8.75538 12.4932 7.19677 13.4541 7.19677C14.415 7.19677 14.7783 8.75538 14.7783 10.7945C14.7783 12.8218 14.415 14.3804 13.4541 14.3804Z" fill="black" fill-opacity="0.85"/>
</g>
<defs>
<clipPath id="clip0_2207_26776">
<rect width="21.5742" height="21.5977" fill="white" transform="translate(0.0126953 0.00146484)"/>
</clipPath>
</defs>
</svg>
