<svg width="24" height="24" viewBox="0 0 24 24" fill="none" xmlns="http://www.w3.org/2000/svg">
<g clip-path="url(#clip0_2207_26791)">
<path d="M11.9719 23.9077C18.511 23.9077 23.925 18.482 23.925 11.9546C23.925 5.41552 18.4993 0.00146484 11.9602 0.00146484C5.43286 0.00146484 0.0187988 5.41552 0.0187988 11.9546C0.0187988 18.482 5.44458 23.9077 11.9719 23.9077Z" fill="black" fill-opacity="0.85"/>
<path d="M9.5813 16.9703C9.08911 16.9703 8.69067 16.5718 8.69067 16.0796V8.75538L7.57738 9.646C7.4602 9.73975 7.3313 9.79835 7.15552 9.79835C6.78052 9.79835 6.52271 9.52881 6.52271 9.15381C6.52271 8.83741 6.68677 8.60303 6.90942 8.43897L8.23363 7.40772C8.51488 7.19678 8.92504 6.91553 9.44067 6.91553C10.0735 6.91553 10.4602 7.27881 10.4602 7.89991V16.0796C10.4602 16.5718 10.0618 16.9703 9.5813 16.9703ZM15.1594 16.9703C14.6672 16.9703 14.2688 16.5718 14.2688 16.0796V8.75538L13.1555 9.646C13.0383 9.73975 12.9094 9.79835 12.7219 9.79835C12.3586 9.79835 12.1008 9.52881 12.1008 9.15381C12.1008 8.83741 12.2766 8.60303 12.4876 8.43897L13.8118 7.40772C14.093 7.19678 14.5032 6.91553 15.0188 6.91553C15.6516 6.91553 16.0383 7.27881 16.0383 7.89991V16.0796C16.0383 16.5718 15.6399 16.9703 15.1594 16.9703Z" fill="white"/>
</g>
<defs>
<clipPath id="clip0_2207_26791">
<rect width="23.9062" height="23.918" fill="white" transform="translate(0.0187988 0.00146484)"/>
</clipPath>
</defs>
</svg>
