<svg width="24" height="24" viewBox="0 0 24 24" fill="none" xmlns="http://www.w3.org/2000/svg">
<g clip-path="url(#clip0_2207_26786)">
<path d="M11.9699 23.9077C18.509 23.9077 23.923 18.482 23.923 11.9546C23.923 5.41552 18.4973 0.00146484 11.9582 0.00146484C5.43091 0.00146484 0.0168457 5.41552 0.0168457 11.9546C0.0168457 18.482 5.44263 23.9077 11.9699 23.9077ZM11.9699 21.9156C6.43873 21.9156 2.02076 17.4859 2.02076 11.9546C2.02076 6.42335 6.42701 1.99365 11.9582 1.99365C17.4895 1.99365 21.9309 6.42335 21.9309 11.9546C21.9309 17.4859 17.5012 21.9156 11.9699 21.9156Z" fill="black" fill-opacity="0.85"/>
<path d="M9.62623 16.8179C10.0832 16.8179 10.4699 16.4312 10.4699 15.9624V8.01708C10.4699 7.41943 10.0949 7.06787 9.4856 7.06787C8.99341 7.06787 8.59497 7.3374 8.32544 7.54834L7.03638 8.54443C6.82544 8.70849 6.66138 8.93115 6.66138 9.23584C6.66138 9.59912 6.90747 9.85693 7.27076 9.85693C7.44654 9.85693 7.56373 9.79834 7.68091 9.7163L8.75904 8.84912V15.9624C8.75904 16.4312 9.14576 16.8179 9.62623 16.8179ZM15.0285 16.8179C15.4856 16.8179 15.8723 16.4312 15.8723 15.9624V8.01708C15.8723 7.41943 15.4973 7.06787 14.8879 7.06787C14.3957 7.06787 13.9973 7.3374 13.7277 7.54834L12.4387 8.54443C12.2277 8.70849 12.0637 8.93115 12.0637 9.23584C12.0637 9.59912 12.3098 9.85693 12.6613 9.85693C12.8488 9.85693 12.966 9.79834 13.0832 9.7163L14.1613 8.84912V15.9624C14.1613 16.4312 14.548 16.8179 15.0285 16.8179Z" fill="black" fill-opacity="0.85"/>
</g>
<defs>
<clipPath id="clip0_2207_26786">
<rect width="23.9062" height="23.918" fill="white" transform="translate(0.0168457 0.00146484)"/>
</clipPath>
</defs>
</svg>
