<svg width="22" height="22" viewBox="0 0 22 22" fill="none" xmlns="http://www.w3.org/2000/svg">
<g clip-path="url(#clip0_2207_26796)">
<path d="M3.70288 21.5992H17.9177C20.3787 21.5992 21.5974 20.3804 21.5974 17.9663V3.65771C21.5974 1.24365 20.3787 0.0249023 17.9177 0.0249023H3.70288C1.25366 0.0249023 0.0231934 1.23193 0.0231934 3.65771V17.9663C0.0231934 20.3921 1.25366 21.5992 3.70288 21.5992ZM3.72631 19.7124C2.55444 19.7124 1.90991 19.0913 1.90991 17.8726V3.75146C1.90991 2.53271 2.55444 1.91162 3.72631 1.91162H17.8943C19.0544 1.91162 19.7107 2.53271 19.7107 3.75146V17.8726C19.7107 19.0913 19.0544 19.7124 17.8943 19.7124H3.72631Z" fill="black" fill-opacity="0.85"/>
<path d="M8.48414 15.6577C8.94117 15.6577 9.32789 15.271 9.32789 14.8023V6.85694C9.32789 6.25928 8.95289 5.90771 8.34351 5.90771C7.86304 5.90771 7.45289 6.17725 7.18336 6.38819L5.89429 7.38427C5.68336 7.54834 5.53101 7.77099 5.53101 8.07568C5.53101 8.43896 5.76539 8.69677 6.12867 8.69677C6.30445 8.69677 6.42164 8.63819 6.53882 8.55616L7.61695 7.68896V14.8023C7.61695 15.271 8.00367 15.6577 8.48414 15.6577ZM13.8865 15.6577C14.3435 15.6577 14.7302 15.271 14.7302 14.8023V6.85694C14.7302 6.25928 14.3552 5.90771 13.7459 5.90771C13.2537 5.90771 12.8552 6.17725 12.5857 6.38819L11.2966 7.38427C11.0857 7.54834 10.9216 7.77099 10.9216 8.07568C10.9216 8.43896 11.1677 8.69677 11.531 8.69677C11.7068 8.69677 11.824 8.63819 11.9412 8.55616L13.0193 7.68896V14.8023C13.0193 15.271 13.406 15.6577 13.8865 15.6577Z" fill="black" fill-opacity="0.85"/>
</g>
<defs>
<clipPath id="clip0_2207_26796">
<rect width="21.5742" height="21.5977" fill="white" transform="translate(0.0231934 0.00146484)"/>
</clipPath>
</defs>
</svg>
