<svg width="24" height="24" viewBox="0 0 24 24" fill="none" xmlns="http://www.w3.org/2000/svg">
<g clip-path="url(#clip0_2207_26806)">
<path d="M11.9804 23.9077C18.5195 23.9077 23.9335 18.482 23.9335 11.9546C23.9335 5.41552 18.5078 0.00146484 11.9687 0.00146484C5.4414 0.00146484 0.0273438 5.41552 0.0273438 11.9546C0.0273438 18.482 5.45312 23.9077 11.9804 23.9077ZM11.9804 21.9156C6.44922 21.9156 2.03125 17.4859 2.03125 11.9546C2.03125 6.42335 6.4375 1.99365 11.9687 1.99365C17.5 1.99365 21.9414 6.42335 21.9414 11.9546C21.9414 17.4859 17.5117 21.9156 11.9804 21.9156Z" fill="black" fill-opacity="0.85"/>
<path d="M8.91015 16.8179C9.3789 16.8179 9.76562 16.4312 9.76562 15.9624V8.01708C9.76562 7.41943 9.39062 7.06787 8.78125 7.06787C8.28906 7.06787 7.89062 7.3374 7.60937 7.54834L6.32031 8.54443C6.12109 8.70849 5.95703 8.93115 5.95703 9.23584C5.95703 9.59912 6.20312 9.85693 6.55468 9.85693C6.74218 9.85693 6.85937 9.79834 6.97656 9.7163L8.05468 8.84912V15.9624C8.05468 16.4312 8.4414 16.8179 8.91015 16.8179ZM12.332 16.689H16.3984C16.8203 16.689 17.0664 16.4195 17.0664 16.0093C17.0664 15.564 16.8085 15.3179 16.3984 15.3179H13.6211V15.2242L15.332 13.0562C16.5039 11.6031 16.8906 10.7359 16.8906 9.70458C16.8906 8.12255 15.8125 6.97412 14.1953 6.97412C12.6953 6.97412 11.5585 8.2163 11.5585 9.43505C11.5585 9.86865 11.8164 10.1734 12.2617 10.1734C12.6484 10.1734 12.8828 9.99755 13.0117 9.61084C13.2226 8.82568 13.5156 8.33349 14.1953 8.33349C14.8984 8.33349 15.2968 8.95458 15.2968 9.78662C15.2968 10.7242 14.6406 11.6734 14.0195 12.4703L11.9804 15.0718C11.7695 15.3531 11.5468 15.646 11.5468 16.0093C11.5468 16.4077 11.8046 16.689 12.332 16.689Z" fill="black" fill-opacity="0.85"/>
</g>
<defs>
<clipPath id="clip0_2207_26806">
<rect width="23.9062" height="23.918" fill="white" transform="translate(0.0273438 0.00146484)"/>
</clipPath>
</defs>
</svg>
