<svg width="28" height="22" viewBox="0 0 28 22" fill="none" xmlns="http://www.w3.org/2000/svg">
<g clip-path="url(#clip0_2207_22560)">
<path d="M3.71961 21.5757H23.993C26.454 21.5757 27.6727 20.3687 27.6727 17.9546V3.63427C27.6727 1.22021 26.454 0.00146484 23.993 0.00146484H3.71961C1.27039 0.00146484 0.039917 1.22021 0.039917 3.63427V17.9546C0.039917 20.3687 1.27039 21.5757 3.71961 21.5757Z" fill="black" fill-opacity="0.85"/>
<path d="M6.73132 15.7281C6.22741 15.7281 5.92272 15.3765 5.92272 14.814V7.53662H5.81725L4.44616 8.43896C4.18835 8.61474 4.07116 8.63818 3.9071 8.63818C3.61413 8.63818 3.3446 8.35693 3.3446 8.0288C3.3446 7.79443 3.42663 7.61865 3.661 7.4663L5.58288 6.1538C6.03991 5.84912 6.286 5.74365 6.69616 5.74365C7.24694 5.74365 7.56335 6.07178 7.56335 6.66944V14.814C7.56335 15.3882 7.25866 15.7281 6.73132 15.7281ZM10.1766 15.5757C9.70788 15.5757 9.40319 15.3062 9.40319 14.8726C9.40319 14.6265 9.50867 14.4273 9.68444 14.2398L13.0711 10.6187C13.6805 9.9624 14.3133 9.31787 14.3133 8.56787C14.3133 7.70068 13.6454 7.11474 12.661 7.11474C11.6532 7.11474 11.0907 7.79443 10.8329 8.43896C10.6454 8.74365 10.4461 8.97802 10.0594 8.97802C9.62585 8.97802 9.35632 8.69677 9.35632 8.28662C9.35632 8.13427 9.37975 8.0288 9.42663 7.86474C9.76647 6.64599 11.1024 5.73194 12.5907 5.73194C14.5477 5.73194 15.8368 6.81005 15.8368 8.43896C15.8368 9.59912 15.1688 10.4429 14.2313 11.4507L11.7352 14.1226V14.1695H15.5907C16.0126 14.1695 16.3055 14.4507 16.3055 14.8609C16.3055 15.271 16.0126 15.5757 15.5907 15.5757H10.1766ZM20.6415 15.7398C18.9305 15.7398 17.5008 14.8843 17.243 13.6538C17.2196 13.5132 17.2079 13.4429 17.2079 13.2906C17.2079 12.8687 17.4774 12.564 17.9344 12.564C18.2977 12.564 18.5204 12.7398 18.6727 13.1031C18.954 13.9234 19.6571 14.3804 20.6649 14.3804C21.8837 14.3804 22.6922 13.7476 22.6922 12.8218C22.6922 11.8726 21.8954 11.2515 20.7235 11.2515H19.9852C19.6102 11.2515 19.329 10.9703 19.329 10.5835C19.329 10.1851 19.6102 9.92725 19.9852 9.92725H20.6532C21.6376 9.92725 22.3758 9.29443 22.3758 8.43896C22.3758 7.60693 21.7196 7.0913 20.7001 7.0913C19.7743 7.0913 19.0829 7.54834 18.8485 8.35693C18.7313 8.73193 18.4969 8.90771 18.1219 8.90771C17.6883 8.90771 17.3954 8.61474 17.3954 8.2163C17.3954 8.04052 17.4071 7.94677 17.4305 7.79444C17.7235 6.54053 19.0126 5.72021 20.7235 5.72021C22.5985 5.72021 23.9344 6.78662 23.9344 8.26318C23.9344 9.37646 23.1258 10.3374 22.0829 10.5015V10.5249C23.3485 10.6656 24.2743 11.6382 24.2743 12.8804C24.2743 14.6031 22.8094 15.7398 20.6415 15.7398Z" fill="white"/>
</g>
<defs>
<clipPath id="clip0_2207_22560">
<rect width="27.6328" height="21.5742" fill="white" transform="translate(0.039917 0.00146484)"/>
</clipPath>
</defs>
</svg>
