<svg width="28" height="22" viewBox="0 0 28 22" fill="none" xmlns="http://www.w3.org/2000/svg">
<g clip-path="url(#clip0_2207_22555)">
<path d="M3.71753 21.5757H23.9909C26.4519 21.5757 27.6706 20.3687 27.6706 17.9546V3.63427C27.6706 1.22021 26.4519 0.00146484 23.9909 0.00146484H3.71753C1.26831 0.00146484 0.0378418 1.22021 0.0378418 3.63427V17.9546C0.0378418 20.3687 1.26831 21.5757 3.71753 21.5757ZM3.74096 19.689C2.56909 19.689 1.92456 19.0679 1.92456 17.8492V3.73974C1.92456 2.52099 2.56909 1.88818 3.74096 1.88818H23.9675C25.1276 1.88818 25.7839 2.52099 25.7839 3.73974V17.8492C25.7839 19.0679 25.1276 19.689 23.9675 19.689H3.74096Z" fill="black" fill-opacity="0.85"/>
<path d="M6.94019 15.5757C7.45582 15.5757 7.74879 15.2476 7.74879 14.6968V6.78663C7.74879 6.21241 7.43238 5.896 6.90504 5.896C6.51832 5.896 6.27223 5.98975 5.83863 6.29444L3.96363 7.56006C3.74097 7.71241 3.65894 7.87647 3.65894 8.11085C3.65894 8.42725 3.91676 8.69678 4.20973 8.69678C4.36207 8.69678 4.47926 8.67335 4.72535 8.49756L6.06129 7.61866H6.16676V14.6968C6.16676 15.2359 6.45973 15.5757 6.94019 15.5757ZM10.28 15.4351H15.5417C15.9401 15.4351 16.2214 15.1421 16.2214 14.7437C16.2214 14.3453 15.9401 14.0757 15.5417 14.0757H11.7917V14.0288L14.2175 11.4273C15.1316 10.4429 15.7761 9.63428 15.7761 8.50928C15.7761 6.92725 14.5222 5.88428 12.6237 5.88428C11.1823 5.88428 9.8816 6.76319 9.55347 7.94678C9.51832 8.11085 9.49488 8.21631 9.49488 8.35694C9.49488 8.75538 9.75269 9.02491 10.1745 9.02491C10.5378 9.02491 10.737 8.80225 10.9128 8.50928C11.1589 7.87647 11.7097 7.22022 12.694 7.22022C13.655 7.22022 14.2995 7.78272 14.2995 8.62647C14.2995 9.35303 13.6901 9.98585 13.0925 10.6187L9.81129 14.146C9.63551 14.3218 9.54176 14.5093 9.54176 14.7554C9.54176 15.1656 9.83473 15.4351 10.28 15.4351ZM20.4284 15.5874C22.5378 15.5874 23.9558 14.4859 23.9558 12.8218C23.9558 11.6148 23.0534 10.6656 21.823 10.5367V10.5132C22.8425 10.3492 23.6276 9.41163 23.6276 8.3335C23.6276 6.90381 22.3269 5.87256 20.5105 5.87256C18.8581 5.87256 17.6042 6.66944 17.323 7.87647C17.2995 8.02881 17.2878 8.12256 17.2878 8.28663C17.2878 8.67335 17.569 8.95459 17.9909 8.95459C18.3542 8.95459 18.5769 8.79053 18.694 8.42725C18.9167 7.64209 19.5847 7.19678 20.487 7.19678C21.4831 7.19678 22.1159 7.70069 22.1159 8.50928C22.1159 9.34131 21.4011 9.95069 20.4401 9.95069H19.7956C19.4323 9.95069 19.1628 10.2085 19.1628 10.5835C19.1628 10.9585 19.4323 11.2281 19.7956 11.2281H20.5105C21.6472 11.2281 22.4323 11.8374 22.4323 12.7632C22.4323 13.6656 21.6355 14.2749 20.4519 14.2749C19.4792 14.2749 18.7878 13.8296 18.5183 13.0327C18.3659 12.6812 18.155 12.5171 17.8034 12.5171C17.3698 12.5171 17.1003 12.8101 17.1003 13.2203C17.1003 13.3609 17.112 13.4312 17.1355 13.5718C17.3933 14.7554 18.7761 15.5874 20.4284 15.5874Z" fill="black" fill-opacity="0.85"/>
</g>
<defs>
<clipPath id="clip0_2207_22555">
<rect width="27.6328" height="21.5742" fill="white" transform="translate(0.0378418 0.00146484)"/>
</clipPath>
</defs>
</svg>
