<svg width="22" height="22" viewBox="0 0 22 22" fill="none" xmlns="http://www.w3.org/2000/svg">
<g clip-path="url(#clip0_2207_26841)">
<path d="M3.72803 21.5992H17.9428C20.4038 21.5992 21.6225 20.3804 21.6225 17.9663V3.65771C21.6225 1.24365 20.4038 0.0249023 17.9428 0.0249023H3.72803C1.27881 0.0249023 0.0483398 1.23193 0.0483398 3.65771V17.9663C0.0483398 20.3921 1.27881 21.5992 3.72803 21.5992Z" fill="black" fill-opacity="0.85"/>
<path d="M7.59522 15.8101C7.10303 15.8101 6.70459 15.4117 6.70459 14.9195V7.59522L5.59131 8.48585C5.47412 8.57959 5.34522 8.63819 5.16943 8.63819C4.80615 8.63819 4.54834 8.36866 4.54834 7.99366C4.54834 7.67725 4.70068 7.44288 4.92334 7.27881L6.24756 6.24756C6.54053 6.03663 6.95068 5.75538 7.45459 5.75538C8.0874 5.75538 8.47412 6.11866 8.47412 6.73975V14.9195C8.47412 15.4117 8.07568 15.8101 7.59522 15.8101ZM13.3608 15.8921C12.06 15.8921 10.8295 15.271 10.478 14.146C10.4194 13.9468 10.3842 13.7359 10.3842 13.5132C10.3842 13.0445 10.7006 12.7515 11.1811 12.7515C11.5678 12.7515 11.8256 12.9507 11.9428 13.3492C12.0952 13.8999 12.4936 14.4859 13.3608 14.4859C14.2631 14.4859 14.6967 13.771 14.6967 12.939C14.6967 11.896 14.1342 11.3335 13.103 11.3335H12.81C12.3999 11.3335 12.1421 11.0992 12.1421 10.7007C12.1421 10.3023 12.3881 10.0445 12.81 10.0445H13.0913C13.9936 10.0445 14.4858 9.39991 14.4858 8.521C14.4858 7.72413 14.1108 7.11475 13.3139 7.11475C12.6342 7.11475 12.2475 7.56006 12.06 8.27491C11.9428 8.69678 11.7085 8.84913 11.2866 8.84913C10.8061 8.84913 10.5366 8.53272 10.5366 8.13428C10.5366 7.92335 10.56 7.71241 10.6303 7.47803C10.9819 6.41163 12.06 5.7085 13.3139 5.7085C14.896 5.7085 16.1381 6.65772 16.1381 8.3335C16.1381 9.34131 15.6108 10.3257 14.5092 10.6187V10.6538C15.5405 10.7593 16.4311 11.4976 16.4311 12.9976C16.4311 14.8023 15.0835 15.8921 13.3608 15.8921Z" fill="white"/>
</g>
<defs>
<clipPath id="clip0_2207_26841">
<rect width="21.5742" height="21.5977" fill="white" transform="translate(0.0483398 0.00146484)"/>
</clipPath>
</defs>
</svg>
