<svg width="24" height="24" viewBox="0 0 24 24" fill="none" xmlns="http://www.w3.org/2000/svg">
<g clip-path="url(#clip0_2207_26871)">
<path d="M12.0141 23.9077C18.5532 23.9077 23.9672 18.482 23.9672 11.9546C23.9672 5.41552 18.5415 0.00146484 12.0024 0.00146484C5.47509 0.00146484 0.0610352 5.41552 0.0610352 11.9546C0.0610352 18.482 5.48682 23.9077 12.0141 23.9077Z" fill="black" fill-opacity="0.85"/>
<path d="M8.73291 16.9703C8.25244 16.9703 7.85401 16.5718 7.85401 16.0796V8.75538L6.74073 9.646C6.62354 9.73975 6.50635 9.79835 6.30713 9.79835C5.94385 9.79835 5.68604 9.52881 5.68604 9.15381C5.68604 8.83741 5.86182 8.60303 6.06104 8.43897L7.38526 7.40772C7.67823 7.19678 8.10009 6.91553 8.604 6.91553C9.22509 6.91553 9.61182 7.27881 9.61182 7.89991V16.0796C9.61182 16.5718 9.21337 16.9703 8.73291 16.9703ZM14.4985 17.0874C13.3969 17.0874 12.3188 16.4546 11.9087 15.4703C11.8032 15.2359 11.7329 14.9663 11.7329 14.6851C11.7329 14.2398 12.0141 13.9585 12.4594 13.9585C12.7876 13.9585 13.0571 14.1343 13.1977 14.521C13.4204 15.189 13.7954 15.6695 14.4751 15.6695C15.3657 15.6695 15.7172 14.6499 15.7172 13.6421C15.7172 12.7515 15.3774 11.6851 14.4868 11.6851C14.0063 11.6851 13.7016 11.9663 13.4321 12.3648C13.1743 12.6929 12.9751 12.8218 12.6469 12.8218C12.0962 12.8218 11.8618 12.4117 11.8618 11.9546C11.8618 11.7906 11.8618 11.6031 11.8735 11.4156L12.061 8.11085C12.1196 7.47803 12.3891 7.06788 13.0337 7.06788H16.3618C16.7602 7.06788 17.0298 7.38428 17.0298 7.78272C17.0298 8.21631 16.7719 8.49756 16.3618 8.49756H13.5258L13.3149 11.4273H13.3852C13.6899 10.7359 14.3462 10.4077 15.061 10.4077C16.6196 10.4077 17.4165 11.9312 17.4165 13.5953C17.4165 15.5054 16.3735 17.0874 14.4985 17.0874Z" fill="white"/>
</g>
<defs>
<clipPath id="clip0_2207_26871">
<rect width="23.9062" height="23.918" fill="white" transform="translate(0.0610352 0.00146484)"/>
</clipPath>
</defs>
</svg>
