<svg width="22" height="22" viewBox="0 0 22 22" fill="none" xmlns="http://www.w3.org/2000/svg">
<g clip-path="url(#clip0_2207_26881)">
<path d="M3.74488 21.5992H17.9597C20.4207 21.5992 21.6394 20.3804 21.6394 17.9663V3.65771C21.6394 1.24365 20.4207 0.0249023 17.9597 0.0249023H3.74488C1.29566 0.0249023 0.0651855 1.23193 0.0651855 3.65771V17.9663C0.0651855 20.3921 1.29566 21.5992 3.74488 21.5992Z" fill="black" fill-opacity="0.85"/>
<path d="M7.57691 15.8101C7.09644 15.8101 6.698 15.4117 6.698 14.9195V7.59521L5.58472 8.48584C5.46753 8.57958 5.35035 8.63818 5.15113 8.63818C4.78785 8.63818 4.53003 8.36865 4.53003 7.99365C4.53003 7.67724 4.70581 7.44287 4.90503 7.2788L6.22925 6.24755C6.52222 6.03662 6.9441 5.75537 7.448 5.75537C8.08081 5.75537 8.46753 6.11865 8.46753 6.73974V14.9195C8.46753 15.4117 8.0691 15.8101 7.57691 15.8101ZM13.3425 15.9273C12.241 15.9273 11.1746 15.2945 10.7527 14.3101C10.6472 14.0757 10.5769 13.8062 10.5769 13.5249C10.5769 13.0796 10.8582 12.7984 11.3035 12.7984C11.6316 12.7984 11.9011 12.9742 12.0418 13.3609C12.2644 14.0288 12.6394 14.5093 13.3191 14.5093C14.2097 14.5093 14.5613 13.4898 14.5613 12.482C14.5613 11.5913 14.2214 10.5249 13.3308 10.5249C12.8504 10.5249 12.5457 10.8062 12.2761 11.2046C12.0183 11.5327 11.8308 11.6617 11.491 11.6617C10.9402 11.6617 10.7058 11.2515 10.7058 10.7945C10.7058 10.6304 10.7058 10.4429 10.7175 10.2554L10.9168 6.95068C10.9636 6.31787 11.2449 5.90771 11.8777 5.90771H15.2058C15.6043 5.90771 15.8738 6.22412 15.8738 6.62255C15.8738 7.05615 15.616 7.3374 15.2058 7.3374H12.3699L12.1707 10.2671H12.2293C12.534 9.57568 13.1902 9.24755 13.905 9.24755C15.4636 9.24755 16.2605 10.771 16.2605 12.4351C16.2605 14.3453 15.2175 15.9273 13.3425 15.9273Z" fill="white"/>
</g>
<defs>
<clipPath id="clip0_2207_26881">
<rect width="21.5742" height="21.5977" fill="white" transform="translate(0.0651855 0.00146484)"/>
</clipPath>
</defs>
</svg>
