<svg width="22" height="22" viewBox="0 0 22 22" fill="none" xmlns="http://www.w3.org/2000/svg">
<g clip-path="url(#clip0_2207_26921)">
<path d="M3.76172 21.5992H17.9765C20.4375 21.5992 21.6562 20.3804 21.6562 17.9663V3.65771C21.6562 1.24365 20.4375 0.0249023 17.9765 0.0249023H3.76172C1.3125 0.0249023 0.0820312 1.23193 0.0820312 3.65771V17.9663C0.0820312 20.3921 1.3125 21.5992 3.76172 21.5992Z" fill="black" fill-opacity="0.85"/>
<path d="M8.16797 15.8101C7.67578 15.8101 7.27734 15.4117 7.27734 14.9195V7.59521L6.17578 8.48584C6.04687 8.57958 5.92969 8.63818 5.74219 8.63818C5.37891 8.63818 5.12109 8.36865 5.12109 7.99365C5.12109 7.67724 5.28515 7.44287 5.49609 7.2788L6.82031 6.24755C7.11328 6.03662 7.52344 5.75537 8.03906 5.75537C8.66015 5.75537 9.04687 6.11865 9.04687 6.73974V14.9195C9.04687 15.4117 8.64844 15.8101 8.16797 15.8101ZM12.5508 15.8453C11.9765 15.8453 11.7539 15.4468 11.7539 15.0953C11.7539 14.8023 11.789 14.6499 11.8945 14.3804L14.5781 7.45458V7.34912H11.4726C11.0625 7.34912 10.7695 7.04443 10.7695 6.62255C10.7695 6.2124 11.0625 5.90771 11.4726 5.90771H15.375C15.914 5.90771 16.3476 6.28271 16.3476 6.84521C16.3476 7.19677 16.2539 7.48974 16.125 7.86474L13.3711 15.2242C13.1953 15.6695 13.0078 15.8453 12.5508 15.8453Z" fill="white"/>
</g>
<defs>
<clipPath id="clip0_2207_26921">
<rect width="21.5742" height="21.5977" fill="white" transform="translate(0.0820312 0.00146484)"/>
</clipPath>
</defs>
</svg>
