<svg width="24" height="24" viewBox="0 0 24 24" fill="none" xmlns="http://www.w3.org/2000/svg">
<g clip-path="url(#clip0_2207_26931)">
<path d="M12.0393 23.9077C18.5784 23.9077 23.9924 18.482 23.9924 11.9546C23.9924 5.41552 18.5667 0.00146484 12.0276 0.00146484C5.50024 0.00146484 0.0861816 5.41552 0.0861816 11.9546C0.0861816 18.482 5.51196 23.9077 12.0393 23.9077Z" fill="black" fill-opacity="0.85"/>
<path d="M8.76977 16.9703C8.26587 16.9703 7.86743 16.5718 7.86743 16.0796V8.75537L6.76587 9.64599C6.63696 9.73974 6.53149 9.79834 6.33227 9.79834C5.96899 9.79834 5.7229 9.5288 5.7229 9.1538C5.7229 8.8374 5.88696 8.60302 6.0979 8.43896L7.42212 7.40771C7.71509 7.19677 8.12524 6.91552 8.62915 6.91552C9.25024 6.91552 9.64868 7.2788 9.64868 7.8999V16.0796C9.64868 16.5718 9.23852 16.9703 8.76977 16.9703ZM14.6643 17.0523C12.8948 17.0523 11.5354 15.9976 11.5354 14.2046C11.5354 12.8921 12.3323 11.9429 13.3635 11.7085V11.6734C12.5784 11.439 11.8167 10.7124 11.8167 9.48193C11.8167 7.78271 13.176 6.86865 14.6643 6.86865C16.3753 6.86865 17.5471 7.92334 17.5471 9.49365C17.5471 10.6421 16.8206 11.4273 16.012 11.6734V11.7085C16.9729 11.9312 17.805 12.8804 17.805 14.2046C17.805 15.857 16.5862 17.0523 14.6643 17.0523ZM14.676 11.1226C15.4378 11.1226 15.8362 10.4546 15.8362 9.65771C15.8362 8.88427 15.4612 8.16943 14.676 8.16943C13.926 8.16943 13.5042 8.88427 13.5042 9.65771C13.5042 10.3726 13.9026 11.1226 14.676 11.1226ZM14.676 15.7398C15.555 15.7398 15.9885 14.9546 15.9885 14.064C15.9885 13.1499 15.5315 12.4234 14.676 12.4234C13.7971 12.4234 13.3635 13.1968 13.3635 14.064C13.3635 14.9546 13.7971 15.7398 14.676 15.7398Z" fill="white"/>
</g>
<defs>
<clipPath id="clip0_2207_26931">
<rect width="23.9062" height="23.918" fill="white" transform="translate(0.0861816 0.00146484)"/>
</clipPath>
</defs>
</svg>
