<svg width="22" height="22" viewBox="0 0 22 22" fill="none" xmlns="http://www.w3.org/2000/svg">
<g clip-path="url(#clip0_2207_26936)">
<path d="M3.76782 21.5992H17.9826C20.4436 21.5992 21.6623 20.3804 21.6623 17.9663V3.65771C21.6623 1.24365 20.4436 0.0249023 17.9826 0.0249023H3.76782C1.3186 0.0249023 0.0881348 1.23193 0.0881348 3.65771V17.9663C0.0881348 20.3921 1.3186 21.5992 3.76782 21.5992ZM3.79125 19.7124C2.61938 19.7124 1.97485 19.0913 1.97485 17.8726V3.75146C1.97485 2.53271 2.61938 1.91162 3.79125 1.91162H17.9592C19.1193 1.91162 19.7756 2.53271 19.7756 3.75146V17.8726C19.7756 19.0913 19.1193 19.7124 17.9592 19.7124H3.79125Z" fill="black" fill-opacity="0.85"/>
<path d="M7.70533 15.6577C8.16236 15.6577 8.5608 15.271 8.5608 14.8023V6.85693C8.5608 6.25927 8.17408 5.90771 7.57642 5.90771C7.08423 5.90771 6.6858 6.17724 6.40455 6.38818L5.11548 7.38427C4.91626 7.54834 4.7522 7.77099 4.7522 8.07568C4.7522 8.43896 4.9983 8.69677 5.34986 8.69677C5.53736 8.69677 5.65455 8.63818 5.77173 8.55615L6.84986 7.68896V14.8023C6.84986 15.271 7.23658 15.6577 7.70533 15.6577ZM13.424 15.7398C15.2756 15.7398 16.4592 14.5796 16.4592 12.9742C16.4592 11.6968 15.6506 10.771 14.7131 10.5601V10.5249C15.4983 10.2788 16.2014 9.51708 16.2014 8.4038C16.2014 6.89208 15.0764 5.86084 13.424 5.86084C11.9709 5.86084 10.6584 6.75146 10.6584 8.39208C10.6584 9.5874 11.4084 10.2906 12.1584 10.5249V10.5601C11.1506 10.7827 10.3889 11.7085 10.3889 12.9742C10.3889 14.7085 11.7014 15.7398 13.424 15.7398ZM13.424 9.98584C12.674 9.98584 12.2873 9.25927 12.2873 8.56787C12.2873 7.81787 12.6975 7.11474 13.424 7.11474C14.1858 7.11474 14.549 7.81787 14.549 8.56787C14.549 9.3413 14.1623 9.98584 13.424 9.98584ZM13.424 14.4742C12.5686 14.4742 12.1467 13.7124 12.1467 12.8453C12.1467 12.0015 12.5803 11.2515 13.424 11.2515C14.2561 11.2515 14.7014 11.9546 14.7014 12.8453C14.7014 13.7124 14.2795 14.4742 13.424 14.4742Z" fill="black" fill-opacity="0.85"/>
</g>
<defs>
<clipPath id="clip0_2207_26936">
<rect width="21.5742" height="21.5977" fill="white" transform="translate(0.0881348 0.00146484)"/>
</clipPath>
</defs>
</svg>
