<svg width="22" height="22" viewBox="0 0 22 22" fill="none" xmlns="http://www.w3.org/2000/svg">
<g clip-path="url(#clip0_2207_26941)">
<path d="M3.77002 21.5992H17.9848C20.4458 21.5992 21.6645 20.3804 21.6645 17.9663V3.65771C21.6645 1.24365 20.4458 0.0249023 17.9848 0.0249023H3.77002C1.3208 0.0249023 0.090332 1.23193 0.090332 3.65771V17.9663C0.090332 20.3921 1.3208 21.5992 3.77002 21.5992Z" fill="black" fill-opacity="0.85"/>
<path d="M7.61377 15.8101C7.12158 15.8101 6.72314 15.4117 6.72314 14.9195V7.59522L5.62158 8.48585C5.49267 8.57959 5.37549 8.63819 5.17627 8.63819C4.81299 8.63819 4.56689 8.36866 4.56689 7.99366C4.56689 7.67725 4.73095 7.44288 4.94189 7.27881L6.26611 6.24756C6.55908 6.03663 6.96924 5.75538 7.48486 5.75538C8.09424 5.75538 8.50439 6.11866 8.50439 6.73975V14.9195C8.50439 15.4117 8.08252 15.8101 7.61377 15.8101ZM13.52 15.8921C11.7387 15.8921 10.3794 14.8374 10.3794 13.0445C10.3794 11.732 11.1762 10.7827 12.2075 10.5484V10.5132C11.4341 10.2788 10.6606 9.55225 10.6606 8.32178C10.6606 6.62256 12.02 5.7085 13.52 5.7085C15.2192 5.7085 16.3911 6.76319 16.3911 8.3335C16.3911 9.48194 15.6645 10.2671 14.8559 10.5132V10.5484C15.8169 10.771 16.6489 11.7203 16.6489 13.0445C16.6489 14.6968 15.4301 15.8921 13.52 15.8921ZM13.52 9.96241C14.2817 9.96241 14.6801 9.29444 14.6801 8.49756C14.6801 7.72413 14.3051 7.00928 13.52 7.00928C12.77 7.00928 12.3481 7.72413 12.3481 8.49756C12.3481 9.21241 12.7465 9.96241 13.52 9.96241ZM13.52 14.5796C14.3989 14.5796 14.8325 13.7945 14.8325 12.9038C14.8325 11.9898 14.3755 11.2632 13.52 11.2632C12.6528 11.2632 12.2075 12.0367 12.2075 12.9038C12.2075 13.7945 12.6411 14.5796 13.52 14.5796Z" fill="white"/>
</g>
<defs>
<clipPath id="clip0_2207_26941">
<rect width="21.5742" height="21.5977" fill="white" transform="translate(0.090332 0.00146484)"/>
</clipPath>
</defs>
</svg>
