<svg width="22" height="22" viewBox="0 0 22 22" fill="none" xmlns="http://www.w3.org/2000/svg">
<g clip-path="url(#clip0_2207_26956)">
<path d="M3.77637 21.5992H17.9912C20.4522 21.5992 21.6709 20.3804 21.6709 17.9663V3.65771C21.6709 1.24365 20.4522 0.0249023 17.9912 0.0249023H3.77637C1.32715 0.0249023 0.0966797 1.23193 0.0966797 3.65771V17.9663C0.0966797 20.3921 1.32715 21.5992 3.77637 21.5992ZM3.7998 19.7124C2.62793 19.7124 1.9834 19.0913 1.9834 17.8726V3.75146C1.9834 2.53271 2.62793 1.91162 3.7998 1.91162H17.9678C19.1279 1.91162 19.7842 2.53271 19.7842 3.75146V17.8726C19.7842 19.0913 19.1279 19.7124 17.9678 19.7124H3.7998Z" fill="black" fill-opacity="0.85"/>
<path d="M7.72559 15.6577C8.18262 15.6577 8.56934 15.271 8.56934 14.8023V6.85693C8.56934 6.25927 8.19434 5.90771 7.58496 5.90771C7.09277 5.90771 6.69434 6.17724 6.4248 6.38818L5.13574 7.38427C4.9248 7.54834 4.76074 7.77099 4.76074 8.07568C4.76074 8.43896 5.00684 8.69677 5.3584 8.69677C5.5459 8.69677 5.66309 8.63818 5.78027 8.55615L6.8584 7.68896V14.8023C6.8584 15.271 7.24512 15.6577 7.72559 15.6577ZM12.6826 12.2593C13.6319 12.2593 14.3584 11.6265 14.6162 10.6187H14.6631C14.6631 10.6656 14.6631 10.7124 14.6631 10.7476C14.6631 12.0484 14.5108 14.3921 13.1983 14.3921C12.6709 14.3921 12.3194 14.0288 12.1084 13.5249C11.9326 13.1382 11.6983 12.9859 11.3467 12.9859C10.8662 12.9859 10.6553 13.314 10.6553 13.7007C10.6553 13.8413 10.6787 13.982 10.7139 14.1226C10.9717 15.1421 11.9912 15.7632 13.1631 15.7632C15.5655 15.7632 16.2686 13.1031 16.2686 10.7007C16.2686 8.48584 15.5537 5.8374 13.1748 5.8374C11.3936 5.8374 10.3623 7.3374 10.3623 9.17724C10.3623 10.7593 11.124 12.2593 12.6826 12.2593ZM13.1983 10.9703C12.3428 10.9703 11.9912 9.97412 11.9912 9.10693C11.9912 8.22802 12.3897 7.19677 13.1983 7.19677C14.0889 7.19677 14.4405 8.22802 14.4405 9.10693C14.4405 10.0093 14.0537 10.9703 13.1983 10.9703Z" fill="black" fill-opacity="0.85"/>
</g>
<defs>
<clipPath id="clip0_2207_26956">
<rect width="21.5742" height="21.5977" fill="white" transform="translate(0.0966797 0.00146484)"/>
</clipPath>
</defs>
</svg>
