<svg width="34" height="23" viewBox="0 0 34 23" fill="none" xmlns="http://www.w3.org/2000/svg">
<g clip-path="url(#clip0_2207_15958)">
<path d="M0 11.4286C0 15.1434 1.20703 18.5536 3.24609 21.3309C3.60938 21.8348 4.23047 21.8817 4.69922 21.5067C5.12109 21.1434 5.17969 20.5809 4.83984 20.1122C3.05859 17.6864 2.00391 14.6747 2.00391 11.4286C2.00391 8.17074 3.05859 5.17073 4.83984 2.72151C5.17969 2.2762 5.13281 1.70198 4.69922 1.3387C4.23047 0.963702 3.60938 1.02229 3.24609 1.51448C1.20703 4.29182 0 7.71371 0 11.4286ZM33.4453 11.4286C33.4453 7.71371 32.25 4.29182 30.1992 1.51448C29.8359 1.02229 29.2148 0.963702 28.7461 1.3387C28.3125 1.70198 28.2773 2.2762 28.6055 2.72151C30.3984 5.17073 31.4414 8.17074 31.4414 11.4286C31.4414 14.6747 30.3984 17.6864 28.6055 20.1122C28.2773 20.5809 28.3242 21.1434 28.7461 21.5067C29.2148 21.8817 29.8359 21.8348 30.1992 21.3309C32.25 18.5536 33.4453 15.1434 33.4453 11.4286Z" fill="black" fill-opacity="0.85"/>
<path d="M16.7227 22.8543C22.9688 22.8543 28.1602 17.6746 28.1602 11.4285C28.1602 5.18238 22.9688 0.00268555 16.7109 0.00268555C10.4648 0.00268555 5.29688 5.17066 5.29688 11.4285C5.29688 17.6746 10.4766 22.8543 16.7227 22.8543ZM16.7227 20.8621C11.4961 20.8621 7.30078 16.6668 7.30078 11.4285C7.30078 6.17847 11.4844 1.98316 16.7109 1.98316C21.9492 1.98316 26.1562 6.17847 26.168 11.4285C26.1797 16.655 21.9727 20.8621 16.7227 20.8621Z" fill="black" fill-opacity="0.85"/>
<path d="M14.0508 16.7371H20.0742C20.5312 16.7371 20.8594 16.4441 20.8594 15.9754C20.8594 15.4832 20.5312 15.2019 20.0742 15.2019H15.7969V15.1199L18.5859 12.155C19.6172 11.0418 20.3438 10.116 20.3438 8.81518C20.3438 7.03393 18.9141 5.85034 16.7461 5.85034C15.082 5.85034 13.6172 6.85815 13.2305 8.17065C13.1836 8.34643 13.1719 8.48706 13.1719 8.6394C13.1719 9.09643 13.4766 9.3894 13.9336 9.3894C14.3438 9.3894 14.5547 9.13159 14.7656 8.80346C15.0703 8.08862 15.6914 7.33862 16.8281 7.33862C17.9414 7.33862 18.6914 7.98315 18.6914 8.9558C18.6914 9.81127 17.9648 10.5261 17.2734 11.2527L13.5352 15.2722C13.3242 15.4949 13.2188 15.7293 13.2188 15.9754C13.2188 16.4441 13.5352 16.7371 14.0508 16.7371Z" fill="black" fill-opacity="0.85"/>
</g>
<defs>
<clipPath id="clip0_2207_15958">
<rect width="33.4453" height="22.8633" fill="white" transform="translate(0 0.00268555)"/>
</clipPath>
</defs>
</svg>
