<svg width="24" height="24" viewBox="0 0 24 24" fill="none" xmlns="http://www.w3.org/2000/svg">
<g clip-path="url(#clip0_2207_26346)">
<path d="M11.9553 23.9089C18.4944 23.9089 23.9084 18.4832 23.9084 11.9558C23.9084 5.41675 18.4827 0.00268555 11.9436 0.00268555C5.41626 0.00268555 0.00219727 5.41675 0.00219727 11.9558C0.00219727 18.4832 5.42798 23.9089 11.9553 23.9089ZM11.9553 21.9168C6.42408 21.9168 2.00611 17.4871 2.00611 11.9558C2.00611 6.42457 6.41236 1.99488 11.9436 1.99488C17.4749 1.99488 21.9163 6.42457 21.9163 11.9558C21.9163 17.4871 17.4866 21.9168 11.9553 21.9168Z" fill="black" fill-opacity="0.85"/>
<path d="M9.28345 17.2644H15.3069C15.7639 17.2644 16.092 16.9715 16.092 16.5027C16.092 16.0105 15.7639 15.7293 15.3069 15.7293H11.0295V15.6472L13.8186 12.6824C14.8499 11.5691 15.5764 10.6433 15.5764 9.34253C15.5764 7.56128 14.1467 6.37769 11.9788 6.37769C10.3147 6.37769 8.84986 7.3855 8.46314 8.698C8.41626 8.87378 8.40454 9.01441 8.40454 9.16675C8.40454 9.62378 8.70923 9.91675 9.16626 9.91675C9.57642 9.91675 9.78736 9.65894 9.99829 9.33081C10.303 8.61597 10.9241 7.86597 12.0608 7.86597C13.1741 7.86597 13.9124 8.5105 13.9124 9.48316C13.9124 10.3386 13.1975 11.0535 12.5061 11.78L8.75611 15.7996C8.55689 16.0222 8.45142 16.2566 8.45142 16.5027C8.45142 16.9715 8.76782 17.2644 9.28345 17.2644Z" fill="black" fill-opacity="0.85"/>
</g>
<defs>
<clipPath id="clip0_2207_26346">
<rect width="23.9062" height="23.918" fill="white" transform="translate(0.00219727 0.00268555)"/>
</clipPath>
</defs>
</svg>
