<svg width="22" height="18" viewBox="0 0 22 18" fill="none" xmlns="http://www.w3.org/2000/svg">
<g clip-path="url(#clip0_2207_2976)">
<path d="M0.00634766 16.7371C0.00634766 17.2527 0.428223 17.6863 0.943848 17.6863C1.47119 17.6863 1.89307 17.2527 1.89307 16.7371V0.963624C1.89307 0.447998 1.47119 0.026123 0.943848 0.026123C0.428223 0.026123 0.00634766 0.447998 0.00634766 0.963624V16.7371ZM19.6938 16.7371C19.6938 17.2527 20.1274 17.6863 20.643 17.6863C21.1586 17.6863 21.5805 17.2527 21.5805 16.7371V0.963624C21.5805 0.447998 21.1586 0.026123 20.643 0.026123C20.1274 0.026123 19.6938 0.447998 19.6938 0.963624V16.7371Z" fill="black" fill-opacity="0.85"/>
<path d="M8.73682 13.6199H13.0375C13.4477 13.6199 13.6938 13.3738 13.6938 12.9636C13.6938 12.5535 13.4477 12.3074 13.0375 12.3074H10.0258V12.2254L11.7719 10.28C12.1938 9.81128 12.5219 9.40113 12.7797 9.06128C13.2251 8.44019 13.4829 7.84253 13.4829 7.0691C13.4829 5.46363 12.2875 4.49097 10.7172 4.49097C9.39307 4.49097 8.31494 5.36988 8.04541 6.37769C8.01026 6.51831 7.98682 6.67066 7.98682 6.81128C7.98682 7.23316 8.24463 7.51441 8.66651 7.51441C9.02979 7.51441 9.26416 7.31519 9.39307 6.97535C9.58057 6.24878 10.0141 5.78003 10.7055 5.78003C11.479 5.78003 11.9125 6.37769 11.9125 7.13941C11.9125 7.70191 11.7251 8.12378 11.3969 8.58081C11.1977 8.86207 10.9282 9.21363 10.5766 9.62378L8.39697 12.073C8.1626 12.3191 7.96338 12.5769 7.96338 12.9402C7.96338 13.2683 8.13916 13.6199 8.73682 13.6199Z" fill="black" fill-opacity="0.85"/>
</g>
<defs>
<clipPath id="clip0_2207_2976">
<rect width="21.5742" height="17.6836" fill="white" transform="translate(0.00634766 0.00268555)"/>
</clipPath>
</defs>
</svg>
