<svg width="22" height="22" viewBox="0 0 22 22" fill="none" xmlns="http://www.w3.org/2000/svg">
<g clip-path="url(#clip0_2207_26356)">
<path d="M3.68799 21.6004H17.9028C20.3638 21.6004 21.5825 20.3816 21.5825 17.9675V3.65894C21.5825 1.24488 20.3638 0.026123 17.9028 0.026123H3.68799C1.23877 0.026123 0.00830078 1.23316 0.00830078 3.65894V17.9675C0.00830078 20.3933 1.23877 21.6004 3.68799 21.6004ZM3.71142 19.7136C2.53955 19.7136 1.89502 19.0925 1.89502 17.8738V3.75269C1.89502 2.53394 2.53955 1.91285 3.71142 1.91285H17.8794C19.0395 1.91285 19.6958 2.53394 19.6958 3.75269V17.8738C19.6958 19.0925 19.0395 19.7136 17.8794 19.7136H3.71142Z" fill="black" fill-opacity="0.85"/>
<path d="M8.14111 16.1043H14.1645C14.6216 16.1043 14.9497 15.8113 14.9497 15.3425C14.9497 14.8504 14.6216 14.5691 14.1645 14.5691H9.88721V14.4871L12.6763 11.5222C13.7075 10.4089 14.4341 9.48316 14.4341 8.18238C14.4341 6.40113 13.0044 5.21753 10.8364 5.21753C9.17236 5.21753 7.70752 6.22535 7.3208 7.53785C7.27392 7.71363 7.26221 7.85425 7.26221 8.0066C7.26221 8.46363 7.56689 8.7566 8.02392 8.7566C8.4458 8.7566 8.64502 8.49878 8.85596 8.17066C9.16064 7.45581 9.78174 6.70581 10.9185 6.70581C12.0317 6.70581 12.7817 7.35035 12.7817 8.323C12.7817 9.17847 12.0552 9.89331 11.3638 10.6199L7.62549 14.6394C7.41455 14.8621 7.30908 15.0965 7.30908 15.3425C7.30908 15.8113 7.62549 16.1043 8.14111 16.1043Z" fill="black" fill-opacity="0.85"/>
</g>
<defs>
<clipPath id="clip0_2207_26356">
<rect width="21.5742" height="21.5977" fill="white" transform="translate(0.00830078 0.00268555)"/>
</clipPath>
</defs>
</svg>
