<svg width="22" height="22" viewBox="0 0 22 22" fill="none" xmlns="http://www.w3.org/2000/svg">
<g clip-path="url(#clip0_2207_26976)">
<path d="M3.69654 21.6004H17.9113C20.3723 21.6004 21.591 20.3816 21.591 17.9675V3.65894C21.591 1.24488 20.3723 0.026123 17.9113 0.026123H3.69654C1.24732 0.026123 0.0168457 1.23316 0.0168457 3.65894V17.9675C0.0168457 20.3933 1.24732 21.6004 3.69654 21.6004ZM3.71997 19.7136C2.5481 19.7136 1.90357 19.0925 1.90357 17.8738V3.75269C1.90357 2.53394 2.5481 1.91285 3.71997 1.91285H17.8879C19.048 1.91285 19.7043 2.53394 19.7043 3.75269V17.8738C19.7043 19.0925 19.048 19.7136 17.8879 19.7136H3.71997Z" fill="black" fill-opacity="0.85"/>
<path d="M5.32544 15.53H9.39185C9.81373 15.53 10.0598 15.2605 10.0598 14.8504C10.0598 14.405 9.80201 14.1589 9.39185 14.1589H6.61451V14.0652L8.32544 11.8972C9.49732 10.4441 9.88404 9.57691 9.88404 8.54566C9.88404 6.96363 8.80591 5.81519 7.18873 5.81519C5.68873 5.81519 4.55201 7.05738 4.55201 8.27613C4.55201 8.70972 4.80982 9.01441 5.25513 9.01441C5.64185 9.01441 5.87623 8.83863 6.00513 8.45191C6.21607 7.66675 6.50904 7.17457 7.17701 7.17457C7.89185 7.17457 8.27857 7.79566 8.27857 8.62769C8.27857 9.56519 7.63404 10.5144 7.01294 11.3113L4.97388 13.9129C4.75123 14.1941 4.54029 14.4871 4.54029 14.8504C4.54029 15.2488 4.7981 15.53 5.32544 15.53ZM14.3254 15.7761C16.6574 15.7761 17.3488 13.1511 17.3488 10.7957C17.3488 8.44019 16.6574 5.81519 14.3254 5.81519C11.9816 5.81519 11.2902 8.44019 11.2902 10.7957C11.2902 13.1511 11.9816 15.7761 14.3254 15.7761ZM14.3254 14.3816C13.3645 14.3816 13.0012 12.823 13.0012 10.7957C13.0012 8.7566 13.3645 7.198 14.3254 7.198C15.2863 7.198 15.6379 8.7566 15.6379 10.7957C15.6379 12.823 15.2863 14.3816 14.3254 14.3816Z" fill="black" fill-opacity="0.85"/>
</g>
<defs>
<clipPath id="clip0_2207_26976">
<rect width="21.5742" height="21.5977" fill="white" transform="translate(0.0168457 0.00268555)"/>
</clipPath>
</defs>
</svg>
