<svg width="24" height="24" viewBox="0 0 24 24" fill="none" xmlns="http://www.w3.org/2000/svg">
<g clip-path="url(#clip0_2207_26986)">
<path d="M11.9741 23.9089C18.5132 23.9089 23.9272 18.4832 23.9272 11.9558C23.9272 5.41675 18.5015 0.00268555 11.9624 0.00268555C5.43506 0.00268555 0.0209961 5.41675 0.0209961 11.9558C0.0209961 18.4832 5.44678 23.9089 11.9741 23.9089ZM11.9741 21.9168C6.44288 21.9168 2.02491 17.4871 2.02491 11.9558C2.02491 6.42457 6.43116 1.99488 11.9624 1.99488C17.4937 1.99488 21.9351 6.42457 21.9351 11.9558C21.9351 17.4871 17.5054 21.9168 11.9741 21.9168Z" fill="black" fill-opacity="0.85"/>
<path d="M7.3335 16.6902H11.3999C11.8101 16.6902 12.0679 16.4207 12.0679 16.0105C12.0679 15.5652 11.7983 15.3191 11.3999 15.3191H8.62256V15.2254L10.3335 13.0574C11.5054 11.6043 11.8921 10.7371 11.8921 9.7058C11.8921 8.12377 10.814 6.97534 9.19678 6.97534C7.69678 6.97534 6.56006 8.21752 6.56006 9.43627C6.56006 9.86987 6.81788 10.1746 7.26319 10.1746C7.64991 10.1746 7.88428 9.99877 8.00147 9.61206C8.22412 8.8269 8.51709 8.33471 9.18506 8.33471C9.89991 8.33471 10.2866 8.9558 10.2866 9.78784C10.2866 10.7254 9.64209 11.6746 9.021 12.4715L6.98194 15.073C6.75928 15.3543 6.54834 15.6472 6.54834 16.0105C6.54834 16.4089 6.80616 16.6902 7.3335 16.6902ZM15.9819 16.8191C16.4507 16.8191 16.8374 16.4324 16.8374 15.9636V8.0183C16.8374 7.42065 16.4624 7.06909 15.853 7.06909C15.3608 7.06909 14.9624 7.33862 14.6812 7.54956L13.3921 8.54565C13.1929 8.70971 13.0288 8.93237 13.0288 9.23706C13.0288 9.60034 13.2749 9.85815 13.6265 9.85815C13.814 9.85815 13.9312 9.79956 14.0483 9.71752L15.1265 8.85034V15.9636C15.1265 16.4324 15.5132 16.8191 15.9819 16.8191Z" fill="black" fill-opacity="0.85"/>
</g>
<defs>
<clipPath id="clip0_2207_26986">
<rect width="23.9062" height="23.918" fill="white" transform="translate(0.0209961 0.00268555)"/>
</clipPath>
</defs>
</svg>
