<svg width="22" height="22" viewBox="0 0 22 22" fill="none" xmlns="http://www.w3.org/2000/svg">
<g clip-path="url(#clip0_2207_27016)">
<path d="M3.71326 21.6004H17.9281C20.3891 21.6004 21.6078 20.3816 21.6078 17.9675V3.65894C21.6078 1.24488 20.3891 0.026123 17.9281 0.026123H3.71326C1.26404 0.026123 0.0335693 1.23316 0.0335693 3.65894V17.9675C0.0335693 20.3933 1.26404 21.6004 3.71326 21.6004ZM3.73669 19.7136C2.56482 19.7136 1.92029 19.0925 1.92029 17.8738V3.75269C1.92029 2.53394 2.56482 1.91285 3.73669 1.91285H17.9047C19.0648 1.91285 19.7211 2.53394 19.7211 3.75269V17.8738C19.7211 19.0925 19.0648 19.7136 17.9047 19.7136H3.73669Z" fill="black" fill-opacity="0.85"/>
<path d="M5.57654 15.53H9.64295C10.0531 15.53 10.2992 15.2605 10.2992 14.8504C10.2992 14.405 10.0414 14.1589 9.64295 14.1589H6.85388V14.0652L8.56482 11.8972C9.73669 10.4441 10.1234 9.57691 10.1234 8.54566C10.1234 6.96363 9.04529 5.81519 7.4281 5.81519C5.9281 5.81519 4.79138 7.05738 4.79138 8.27613C4.79138 8.70972 5.04919 9.01441 5.49451 9.01441C5.88123 9.01441 6.1156 8.83863 6.24451 8.45191C6.46716 7.66675 6.74841 7.17457 7.4281 7.17457C8.13123 7.17457 8.52966 7.79566 8.52966 8.62769C8.52966 9.56519 7.87341 10.5144 7.25232 11.3113L5.21326 13.9129C5.00232 14.1941 4.77966 14.4871 4.77966 14.8504C4.77966 15.2488 5.03748 15.53 5.57654 15.53ZM12.2914 15.53H16.3578C16.768 15.53 17.0258 15.2605 17.0258 14.8504C17.0258 14.405 16.7563 14.1589 16.3578 14.1589H13.5688V14.0652L15.2797 11.8972C16.4633 10.4441 16.8383 9.57691 16.8383 8.54566C16.8383 6.96363 15.7719 5.81519 14.1547 5.81519C12.6547 5.81519 11.518 7.05738 11.518 8.27613C11.518 8.70972 11.7641 9.01441 12.2094 9.01441C12.5961 9.01441 12.8422 8.83863 12.9594 8.45191C13.182 7.66675 13.475 7.17457 14.143 7.17457C14.8461 7.17457 15.2445 7.79566 15.2445 8.62769C15.2445 9.56519 14.5883 10.5144 13.9672 11.3113L11.9398 13.9129C11.7172 14.1941 11.4945 14.4871 11.4945 14.8504C11.4945 15.2488 11.7524 15.53 12.2914 15.53Z" fill="black" fill-opacity="0.85"/>
</g>
<defs>
<clipPath id="clip0_2207_27016">
<rect width="21.5742" height="21.5977" fill="white" transform="translate(0.0335693 0.00268555)"/>
</clipPath>
</defs>
</svg>
