<svg width="22" height="22" viewBox="0 0 22 22" fill="none" xmlns="http://www.w3.org/2000/svg">
<g clip-path="url(#clip0_2207_27041)">
<path d="M3.72376 21.6004H17.9386C20.3996 21.6004 21.6183 20.3816 21.6183 17.9675V3.65894C21.6183 1.24488 20.3996 0.026123 17.9386 0.026123H3.72376C1.27454 0.026123 0.0440674 1.23316 0.0440674 3.65894V17.9675C0.0440674 20.3933 1.27454 21.6004 3.72376 21.6004Z" fill="black" fill-opacity="0.85"/>
<path d="M5.18859 15.6824C4.63781 15.6824 4.38 15.3894 4.38 14.9793C4.38 14.5925 4.60265 14.2996 4.82531 14.0066L6.92298 11.323C7.56751 10.5144 8.24719 9.53002 8.24719 8.55737C8.24719 7.7019 7.83704 7.06909 7.11048 7.06909C6.40735 7.06909 6.11438 7.57299 5.89173 8.38159C5.76281 8.78002 5.51673 8.96752 5.11829 8.96752C4.64954 8.96752 4.39173 8.65112 4.39173 8.19409C4.39173 6.94018 5.5636 5.66284 7.11048 5.66284C8.77454 5.66284 9.89953 6.84643 9.89953 8.47534C9.89953 9.54174 9.48938 10.4324 8.28235 11.9324L6.52454 14.1589V14.2527H9.39562C9.80578 14.2527 10.0753 14.5105 10.0753 14.9793C10.0753 15.4011 9.8175 15.6824 9.39562 15.6824H5.18859ZM14.3175 15.8933C13.0285 15.8933 11.7863 15.2722 11.4464 14.1472C11.3761 13.948 11.3527 13.7371 11.3527 13.5144C11.3527 13.0457 11.6691 12.7527 12.1496 12.7527C12.5363 12.7527 12.7941 12.9519 12.9113 13.3504C13.0519 13.9011 13.4503 14.4871 14.3293 14.4871C15.2199 14.4871 15.6652 13.7839 15.6652 12.9519C15.6652 11.8972 15.1027 11.3347 14.0714 11.3347H13.7785C13.38 11.3347 13.0988 11.1004 13.0988 10.7019C13.0988 10.3035 13.3683 10.0457 13.7785 10.0457H14.0597C14.9738 10.0457 15.4543 9.40112 15.4543 8.52221C15.4543 7.72534 15.0793 7.11596 14.2824 7.11596C13.591 7.11596 13.2277 7.56127 13.0285 8.27612C12.9113 8.69799 12.6652 8.85034 12.255 8.85034C11.7746 8.85034 11.5168 8.53393 11.5168 8.13549C11.5168 7.93627 11.5402 7.71362 11.5988 7.47924C11.9503 6.41284 13.0285 5.70971 14.2824 5.70971C15.8527 5.70971 17.1066 6.65893 17.1066 8.33471C17.1066 9.34252 16.5675 10.3269 15.4777 10.6199V10.655C16.4972 10.7605 17.3879 11.4988 17.3879 12.9988C17.3879 14.8152 16.0636 15.8933 14.3175 15.8933Z" fill="white"/>
</g>
<defs>
<clipPath id="clip0_2207_27041">
<rect width="21.5742" height="21.5977" fill="white" transform="translate(0.0440674 0.00268555)"/>
</clipPath>
</defs>
</svg>
