<svg width="22" height="22" viewBox="0 0 22 22" fill="none" xmlns="http://www.w3.org/2000/svg">
<g clip-path="url(#clip0_2207_27061)">
<path d="M3.73218 21.6004H17.947C20.408 21.6004 21.6267 20.3816 21.6267 17.9675V3.65894C21.6267 1.24488 20.408 0.026123 17.947 0.026123H3.73218C1.28296 0.026123 0.0524902 1.23316 0.0524902 3.65894V17.9675C0.0524902 20.3933 1.28296 21.6004 3.73218 21.6004Z" fill="black" fill-opacity="0.85"/>
<path d="M5.1853 15.6824C4.6228 15.6824 4.35327 15.3894 4.35327 14.9793C4.35327 14.6043 4.58765 14.2996 4.8103 14.0066L6.90796 11.3347C7.54077 10.5144 8.22046 9.53002 8.22046 8.55737C8.22046 7.7019 7.8103 7.06909 7.09546 7.06909C6.39233 7.06909 6.09937 7.57299 5.87671 8.38159C5.7478 8.78002 5.50171 8.96752 5.09155 8.96752C4.63452 8.96752 4.36499 8.65112 4.36499 8.19409C4.36499 6.94018 5.5603 5.66284 7.09546 5.66284C8.75952 5.66284 9.8728 6.84643 9.8728 8.47534C9.8728 9.54174 9.47437 10.4324 8.26733 11.9324L6.50952 14.1589V14.2644H9.38061C9.79077 14.2644 10.0603 14.5105 10.0603 14.9793C10.0603 15.4011 9.80249 15.6824 9.38061 15.6824H5.1853ZM15.6384 15.8347C15.2517 15.8347 14.7947 15.6238 14.7947 14.9793V13.7722H12.0994C11.5134 13.7722 11.0916 13.3738 11.0916 12.7879C11.0916 12.4129 11.1736 12.0965 11.3728 11.6277L13.5291 6.9519C13.8689 6.19018 14.2673 5.75659 15.1228 5.75659C15.9197 5.75659 16.4705 6.23706 16.4705 7.06909V12.366H16.8923C17.3728 12.366 17.5837 12.6707 17.5837 13.0574C17.5837 13.4675 17.3611 13.7722 16.8923 13.7722H16.4705V14.9793C16.4705 15.5535 16.0955 15.8347 15.6384 15.8347ZM14.8298 12.4011V7.28002H14.7947L12.6033 12.3191V12.4011H14.8298Z" fill="white"/>
</g>
<defs>
<clipPath id="clip0_2207_27061">
<rect width="21.5742" height="21.5977" fill="white" transform="translate(0.0524902 0.00268555)"/>
</clipPath>
</defs>
</svg>
