<svg width="24" height="24" viewBox="0 0 24 24" fill="none" xmlns="http://www.w3.org/2000/svg">
<g clip-path="url(#clip0_2207_27066)">
<path d="M12.0078 23.9089C18.5469 23.9089 23.9609 18.4832 23.9609 11.9558C23.9609 5.41675 18.5352 0.00268555 11.9961 0.00268555C5.46875 0.00268555 0.0546875 5.41675 0.0546875 11.9558C0.0546875 18.4832 5.48047 23.9089 12.0078 23.9089ZM12.0078 21.9168C6.47657 21.9168 2.0586 17.4871 2.0586 11.9558C2.0586 6.42457 6.46485 1.99488 11.9961 1.99488C17.5274 1.99488 21.9688 6.42457 21.9688 11.9558C21.9688 17.4871 17.5391 21.9168 12.0078 21.9168Z" fill="black" fill-opacity="0.85"/>
<path d="M6.46485 16.6902H10.5313C10.9531 16.6902 11.1992 16.4207 11.1992 16.0105C11.1992 15.5652 10.9414 15.3191 10.5313 15.3191H7.75391V15.2254L9.46485 13.0574C10.6367 11.6043 11.0235 10.7371 11.0235 9.7058C11.0235 8.12377 9.94531 6.97534 8.32813 6.97534C6.82813 6.97534 5.69141 8.21752 5.69141 9.43627C5.69141 9.86987 5.94922 10.1746 6.39453 10.1746C6.78125 10.1746 7.01563 9.99877 7.13281 9.61206C7.35547 8.8269 7.64844 8.33471 8.31641 8.33471C9.03125 8.33471 9.41797 8.9558 9.41797 9.78784C9.41797 10.7254 8.77344 11.6746 8.15235 12.4715L6.11328 15.073C5.89063 15.3543 5.67969 15.6472 5.67969 16.0105C5.67969 16.4089 5.9375 16.6902 6.46485 16.6902ZM15.3242 16.9363C17.1524 16.9363 18.1485 15.4011 18.1485 13.5496C18.1485 11.9324 17.375 10.4558 15.8633 10.4558C15.1719 10.4558 14.5391 10.7722 14.2344 11.4519H14.1875L14.375 8.60424H17.1289C17.5274 8.60424 17.7852 8.32299 17.7852 7.91284C17.7852 7.52612 17.5156 7.22143 17.1289 7.22143H13.9063C13.2969 7.22143 13.0156 7.61987 12.9805 8.22924L12.7813 11.4402C12.7695 11.616 12.7695 11.8035 12.7695 11.9558C12.7695 12.4011 12.9922 12.7996 13.5313 12.7996C13.8594 12.7996 14.0352 12.6707 14.2813 12.3543C14.5508 11.9675 14.8438 11.6863 15.3242 11.6863C16.1797 11.6863 16.5078 12.7293 16.5078 13.5965C16.5078 14.5691 16.168 15.5652 15.3008 15.5652C14.6445 15.5652 14.2695 15.0965 14.0586 14.4519C13.918 14.0769 13.6602 13.9011 13.3438 13.9011C12.9219 13.9011 12.6406 14.1707 12.6406 14.6043C12.6406 14.8738 12.7109 15.1316 12.8164 15.366C13.2266 16.3152 14.2578 16.9363 15.3242 16.9363Z" fill="black" fill-opacity="0.85"/>
</g>
<defs>
<clipPath id="clip0_2207_27066">
<rect width="23.9062" height="23.918" fill="white" transform="translate(0.0546875 0.00268555)"/>
</clipPath>
</defs>
</svg>
