<svg width="24" height="24" viewBox="0 0 24 24" fill="none" xmlns="http://www.w3.org/2000/svg">
<g clip-path="url(#clip0_2207_27071)">
<path d="M12.0097 23.9089C18.5488 23.9089 23.9628 18.4832 23.9628 11.9558C23.9628 5.41675 18.5371 0.00268555 11.998 0.00268555C5.4707 0.00268555 0.0566406 5.41675 0.0566406 11.9558C0.0566406 18.4832 5.48242 23.9089 12.0097 23.9089Z" fill="black" fill-opacity="0.85"/>
<path d="M6.30273 16.8425C5.76367 16.8425 5.49414 16.5496 5.49414 16.1394C5.49414 15.7527 5.70508 15.448 5.93945 15.1668L8.03711 12.4832C8.68164 11.6746 9.34961 10.6902 9.34961 9.71753C9.34961 8.86207 8.95117 8.22925 8.21289 8.22925C7.5332 8.22925 7.22852 8.73316 6.99414 9.54175C6.87695 9.94019 6.63086 10.116 6.23242 10.116C5.77539 10.116 5.50586 9.81128 5.50586 9.35425C5.50586 8.10035 6.67773 6.823 8.22461 6.823C9.90039 6.823 11.0136 8.0066 11.0136 9.6355C11.0136 10.7019 10.6152 11.5925 9.39648 13.0925L7.63867 15.3191V15.4129H10.498C10.9199 15.4129 11.1894 15.6707 11.1894 16.1394C11.1894 16.5613 10.9316 16.8425 10.498 16.8425H6.30273ZM15.4433 17.0886C14.3535 17.0886 13.2871 16.4558 12.8652 15.4715C12.748 15.2371 12.6777 14.9675 12.6777 14.6863C12.6777 14.241 12.9707 13.9597 13.4043 13.9597C13.7324 13.9597 14.0019 14.1472 14.1425 14.5339C14.3652 15.1902 14.7519 15.6707 15.4199 15.6707C16.3105 15.6707 16.6621 14.6511 16.6621 13.6433C16.6621 12.7527 16.3222 11.6863 15.4433 11.6863C14.9511 11.6863 14.6582 11.9675 14.3769 12.366C14.1191 12.6941 13.9433 12.823 13.6035 12.823C13.041 12.823 12.8066 12.4129 12.8066 11.9558C12.8066 11.7918 12.8066 11.6043 12.8183 11.4168L13.0293 8.11207C13.0644 7.49097 13.3574 7.0691 13.9902 7.0691H17.3066C17.7168 7.0691 17.9863 7.3855 17.9863 7.78394C17.9863 8.21753 17.7285 8.5105 17.3066 8.5105H14.4707L14.2832 11.4402H14.33C14.6464 10.7371 15.291 10.4089 16.0058 10.4089C17.5644 10.4089 18.3613 11.9324 18.3613 13.5965C18.3613 15.5066 17.33 17.0886 15.4433 17.0886Z" fill="white"/>
</g>
<defs>
<clipPath id="clip0_2207_27071">
<rect width="23.9062" height="23.918" fill="white" transform="translate(0.0566406 0.00268555)"/>
</clipPath>
</defs>
</svg>
