<svg width="22" height="22" viewBox="0 0 22 22" fill="none" xmlns="http://www.w3.org/2000/svg">
<g clip-path="url(#clip0_2207_27081)">
<path d="M3.74073 21.6004H17.9555C20.4165 21.6004 21.6352 20.3816 21.6352 17.9675V3.65894C21.6352 1.24488 20.4165 0.026123 17.9555 0.026123H3.74073C1.29151 0.026123 0.0610352 1.23316 0.0610352 3.65894V17.9675C0.0610352 20.3933 1.29151 21.6004 3.74073 21.6004Z" fill="black" fill-opacity="0.85"/>
<path d="M5.14698 15.6824C4.60792 15.6824 4.33838 15.3894 4.33838 14.9793C4.33838 14.5925 4.56104 14.2879 4.7837 14.0066L6.88135 11.323C7.52588 10.5144 8.20557 9.53002 8.20557 8.55737C8.20557 7.7019 7.79542 7.06909 7.06885 7.06909C6.37745 7.06909 6.07276 7.57299 5.8501 8.38159C5.7212 8.78002 5.4751 8.9558 5.07666 8.9558C4.61963 8.9558 4.3501 8.65112 4.3501 8.19409C4.3501 6.94018 5.52198 5.66284 7.06885 5.66284C8.74463 5.66284 9.85792 6.84643 9.85792 8.47534C9.85792 9.54174 9.45948 10.4324 8.24073 11.9324L6.48292 14.1589V14.2527H9.34229C9.76416 14.2527 10.0337 14.5105 10.0337 14.9793C10.0337 15.4011 9.77588 15.6824 9.34229 15.6824H5.14698ZM14.2876 15.9285C13.1977 15.9285 12.1313 15.2957 11.7094 14.3113C11.5922 14.0769 11.5337 13.8074 11.5337 13.5261C11.5337 13.0808 11.8149 12.7996 12.2485 12.7996C12.5766 12.7996 12.8462 12.9871 12.9868 13.3738C13.2094 14.03 13.5962 14.5105 14.2641 14.5105C15.1548 14.5105 15.518 13.491 15.518 12.4832C15.518 11.5925 15.1665 10.5261 14.2876 10.5261C13.7954 10.5261 13.5024 10.8074 13.2212 11.2058C12.9633 11.5339 12.7876 11.6629 12.4594 11.6629C11.8852 11.6629 11.6508 11.2527 11.6508 10.7957C11.6508 10.6316 11.6508 10.4441 11.6743 10.2566L11.8735 6.9519C11.9087 6.3308 12.2016 5.90893 12.8344 5.90893H16.1508C16.561 5.90893 16.8305 6.22534 16.8305 6.62377C16.8305 7.05737 16.5844 7.35034 16.1508 7.35034H13.3149L13.1274 10.28H13.1743C13.4907 9.5769 14.1469 9.24877 14.8501 9.24877C16.4087 9.24877 17.2055 10.7722 17.2055 12.4363C17.2055 14.3465 16.1743 15.9285 14.2876 15.9285Z" fill="white"/>
</g>
<defs>
<clipPath id="clip0_2207_27081">
<rect width="21.5742" height="21.5977" fill="white" transform="translate(0.0610352 0.00268555)"/>
</clipPath>
</defs>
</svg>
