<svg width="22" height="22" viewBox="0 0 22 22" fill="none" xmlns="http://www.w3.org/2000/svg">
<g clip-path="url(#clip0_2207_27101)">
<path d="M3.74903 21.6004H17.9638C20.4248 21.6004 21.6435 20.3816 21.6435 17.9675V3.65894C21.6435 1.24488 20.4248 0.026123 17.9638 0.026123H3.74903C1.29981 0.026123 0.0693359 1.23316 0.0693359 3.65894V17.9675C0.0693359 20.3933 1.29981 21.6004 3.74903 21.6004Z" fill="black" fill-opacity="0.85"/>
<path d="M5.13183 15.6824C4.56933 15.6824 4.31152 15.3894 4.31152 14.9793C4.31152 14.5925 4.53417 14.2879 4.76855 14.0066L6.85449 11.323C7.4873 10.5144 8.16699 9.53002 8.16699 8.55737C8.16699 7.7019 7.75683 7.06909 7.04199 7.06909C6.35058 7.06909 6.05761 7.57299 5.82324 8.38159C5.70605 8.78002 5.44824 8.9558 5.0498 8.9558C4.58105 8.9558 4.33495 8.65112 4.33495 8.19409C4.33495 6.94018 5.50683 5.66284 7.05371 5.66284C8.71777 5.66284 9.81933 6.84643 9.81933 8.47534C9.81933 9.54174 9.43261 10.4324 8.21386 11.9324L6.45605 14.1589V14.2527H9.32714C9.7373 14.2527 10.0186 14.5105 10.0186 14.9793C10.0186 15.4011 9.74902 15.6824 9.32714 15.6824H5.13183ZM14.4716 15.9285C12.0107 15.9285 11.2841 13.198 11.2841 10.9129C11.2841 8.46362 12.0107 5.68627 14.4951 5.68627C15.7021 5.68627 16.7451 6.3308 17.0029 7.37377C17.0498 7.52612 17.0615 7.67846 17.0615 7.80737C17.0615 8.2058 16.8505 8.53393 16.3701 8.53393C15.9716 8.53393 15.749 8.36987 15.5615 7.99487C15.3623 7.49096 14.999 7.10424 14.4482 7.10424C13.1005 7.10424 12.9365 9.53002 12.9365 10.866C12.9365 10.9011 12.9365 10.948 12.9365 10.9949H12.9834C13.2646 9.96362 14.0029 9.30737 14.9755 9.30737C16.581 9.30737 17.3662 10.8543 17.3662 12.4832C17.3662 14.3816 16.3232 15.9285 14.4716 15.9285ZM14.4482 14.5105C15.292 14.5105 15.6787 13.4441 15.6787 12.5652C15.7021 11.6746 15.3388 10.6316 14.4482 10.6316C13.581 10.6316 13.1709 11.6277 13.1709 12.5183C13.1709 13.3738 13.5341 14.5105 14.4482 14.5105Z" fill="white"/>
</g>
<defs>
<clipPath id="clip0_2207_27101">
<rect width="21.5742" height="21.5977" fill="white" transform="translate(0.0693359 0.00268555)"/>
</clipPath>
</defs>
</svg>
