<svg width="24" height="24" viewBox="0 0 24 24" fill="none" xmlns="http://www.w3.org/2000/svg">
<g clip-path="url(#clip0_2207_27126)">
<path d="M12.0329 23.9089C18.572 23.9089 23.986 18.4832 23.986 11.9558C23.986 5.41675 18.5603 0.00268555 12.0212 0.00268555C5.49389 0.00268555 0.079834 5.41675 0.079834 11.9558C0.079834 18.4832 5.50561 23.9089 12.0329 23.9089ZM12.0329 21.9168C6.50171 21.9168 2.08374 17.4871 2.08374 11.9558C2.08374 6.42457 6.48999 1.99488 12.0212 1.99488C17.5525 1.99488 21.9939 6.42457 21.9939 11.9558C21.9939 17.4871 17.5642 21.9168 12.0329 21.9168Z" fill="black" fill-opacity="0.85"/>
<path d="M6.44311 16.6902H10.5095C10.9196 16.6902 11.1775 16.4207 11.1775 16.0105C11.1775 15.5652 10.9079 15.3191 10.5095 15.3191H7.73217V15.2254L9.43139 13.0574C10.615 11.6043 10.99 10.7371 10.99 9.7058C10.99 8.12377 9.92358 6.97534 8.30639 6.97534C6.80639 6.97534 5.66967 8.21752 5.66967 9.43627C5.66967 9.86987 5.91577 10.1746 6.36108 10.1746C6.75952 10.1746 6.99389 9.99877 7.11108 9.61206C7.33374 8.8269 7.62671 8.33471 8.29467 8.33471C8.9978 8.33471 9.39624 8.9558 9.39624 9.78784C9.39624 10.7254 8.73999 11.6746 8.11889 12.4715L6.09155 15.073C5.86889 15.3543 5.64624 15.6472 5.64624 16.0105C5.64624 16.4089 5.90405 16.6902 6.44311 16.6902ZM15.4196 16.9011C17.2829 16.9011 18.4665 15.741 18.4665 14.1355C18.4665 12.8582 17.6462 11.9324 16.7204 11.7215V11.6863C17.5056 11.4402 18.197 10.6785 18.197 9.56518C18.197 8.05346 17.072 7.02221 15.4196 7.02221C13.9665 7.02221 12.6657 7.91284 12.6657 9.55346C12.6657 10.7488 13.404 11.4519 14.154 11.6863V11.7215C13.1579 11.9441 12.3962 12.8699 12.3962 14.1355C12.3962 15.8699 13.7087 16.9011 15.4196 16.9011ZM15.4196 11.1472C14.6814 11.1472 14.2946 10.4207 14.2946 9.72924C14.2946 8.97924 14.6931 8.27612 15.4196 8.27612C16.1814 8.27612 16.5564 8.97924 16.5564 9.72924C16.5564 10.5027 16.1696 11.1472 15.4196 11.1472ZM15.4196 15.6355C14.5759 15.6355 14.154 14.8738 14.154 14.0066C14.154 13.1629 14.5759 12.4129 15.4196 12.4129C16.2517 12.4129 16.7087 13.116 16.7087 14.0066C16.7087 14.8738 16.2868 15.6355 15.4196 15.6355Z" fill="black" fill-opacity="0.85"/>
</g>
<defs>
<clipPath id="clip0_2207_27126">
<rect width="23.9062" height="23.918" fill="white" transform="translate(0.079834 0.00268555)"/>
</clipPath>
</defs>
</svg>
