<svg width="24" height="24" viewBox="0 0 24 24" fill="none" xmlns="http://www.w3.org/2000/svg">
<g clip-path="url(#clip0_2207_27131)">
<path d="M12.0351 23.9089C18.5742 23.9089 23.9882 18.4832 23.9882 11.9558C23.9882 5.41675 18.5625 0.00268555 12.0234 0.00268555C5.49609 0.00268555 0.0820312 5.41675 0.0820312 11.9558C0.0820312 18.4832 5.50781 23.9089 12.0351 23.9089Z" fill="black" fill-opacity="0.85"/>
<path d="M6.28125 16.8425C5.71875 16.8425 5.44922 16.5496 5.44922 16.1394C5.44922 15.7527 5.68359 15.4597 5.91797 15.1668L8.00391 12.4832C8.63672 11.6746 9.31641 10.6902 9.31641 9.71753C9.31641 8.86207 8.90625 8.22925 8.19141 8.22925C7.5 8.22925 7.19531 8.73316 6.97265 9.54175C6.84375 9.94019 6.60937 10.1277 6.19922 10.1277C5.73047 10.1277 5.47265 9.81128 5.47265 9.35425C5.47265 8.10035 6.65625 6.823 8.20312 6.823C9.86719 6.823 10.9687 8.0066 10.9687 9.6355C10.9687 10.7019 10.582 11.5925 9.36328 13.0925L7.61719 15.3191V15.4129H10.4765C10.8867 15.4129 11.1679 15.6707 11.1679 16.1394C11.1679 16.5613 10.8984 16.8425 10.4765 16.8425H6.28125ZM15.539 17.0535C13.7812 17.0535 12.4218 15.9988 12.4218 14.2058C12.4218 12.8933 13.207 11.9441 14.2382 11.7097V11.6746C13.4648 11.4402 12.7031 10.7136 12.7031 9.48316C12.7031 7.78394 14.039 6.86988 15.539 6.86988C17.25 6.86988 18.4101 7.93628 18.4101 9.49488C18.4101 10.6433 17.6953 11.4285 16.8867 11.6746V11.7097C17.8359 11.9324 18.6914 12.8816 18.6914 14.2058C18.6914 15.8582 17.4609 17.0535 15.539 17.0535ZM15.539 11.1238C16.3125 11.1238 16.7109 10.4558 16.7109 9.65894C16.7109 8.8855 16.3242 8.17066 15.539 8.17066C14.789 8.17066 14.3906 8.8855 14.3906 9.65894C14.3906 10.3738 14.7773 11.1238 15.539 11.1238ZM15.539 15.741C16.4297 15.741 16.8632 14.9675 16.8632 14.0652C16.8632 13.1511 16.3945 12.4363 15.539 12.4363C14.6718 12.4363 14.2382 13.198 14.2382 14.0652C14.2382 14.9675 14.6718 15.741 15.539 15.741Z" fill="white"/>
</g>
<defs>
<clipPath id="clip0_2207_27131">
<rect width="23.9062" height="23.918" fill="white" transform="translate(0.0820312 0.00268555)"/>
</clipPath>
</defs>
</svg>
