<svg width="22" height="22" viewBox="0 0 22 22" fill="none" xmlns="http://www.w3.org/2000/svg">
<g clip-path="url(#clip0_2207_27136)">
<path d="M3.76367 21.6004H17.9785C20.4395 21.6004 21.6582 20.3816 21.6582 17.9675V3.65894C21.6582 1.24488 20.4395 0.026123 17.9785 0.026123H3.76367C1.31445 0.026123 0.0839844 1.23316 0.0839844 3.65894V17.9675C0.0839844 20.3933 1.31445 21.6004 3.76367 21.6004ZM3.7871 19.7136C2.61523 19.7136 1.9707 19.0925 1.9707 17.8738V3.75269C1.9707 2.53394 2.61523 1.91285 3.7871 1.91285H17.9551C19.1152 1.91285 19.7715 2.53394 19.7715 3.75269V17.8738C19.7715 19.0925 19.1152 19.7136 17.9551 19.7136H3.7871Z" fill="black" fill-opacity="0.85"/>
<path d="M5.29882 15.53H9.36523C9.77539 15.53 10.0332 15.2605 10.0332 14.8504C10.0332 14.405 9.76367 14.1589 9.36523 14.1589H6.58789V14.0652L8.29882 11.8972C9.4707 10.4441 9.85742 9.57691 9.85742 8.54566C9.85742 6.96363 8.77929 5.81519 7.1621 5.81519C5.6621 5.81519 4.52539 7.05738 4.52539 8.27613C4.52539 8.70972 4.77148 9.01441 5.22851 9.01441C5.61523 9.01441 5.8496 8.83863 5.96679 8.45191C6.18945 7.66675 6.48242 7.17457 7.15039 7.17457C7.85351 7.17457 8.25195 7.79566 8.25195 8.62769C8.25195 9.56519 7.60742 10.5144 6.9746 11.3113L4.94726 13.9129C4.7246 14.1941 4.51367 14.4871 4.51367 14.8504C4.51367 15.2488 4.75976 15.53 5.29882 15.53ZM14.2754 15.741C16.1387 15.741 17.3223 14.5808 17.3223 12.9754C17.3223 11.698 16.5137 10.7722 15.5762 10.5613V10.5261C16.3613 10.28 17.0528 9.51831 17.0528 8.40503C17.0528 6.89331 15.9278 5.86207 14.2754 5.86207C12.834 5.86207 11.5215 6.75269 11.5215 8.39331C11.5215 9.58863 12.2598 10.2918 13.0098 10.5261V10.5613C12.0137 10.7839 11.252 11.7097 11.252 12.9754C11.252 14.7097 12.5645 15.741 14.2754 15.741ZM14.2871 9.98707C13.5371 9.98707 13.1504 9.2605 13.1504 8.5691C13.1504 7.8191 13.5606 7.11597 14.2871 7.11597C15.0371 7.11597 15.4121 7.8191 15.4121 8.5691C15.4121 9.34253 15.0254 9.98707 14.2871 9.98707ZM14.2871 14.4754C13.4317 14.4754 13.0098 13.7136 13.0098 12.8465C13.0098 12.0027 13.4317 11.2527 14.2871 11.2527C15.1192 11.2527 15.5645 11.9558 15.5645 12.8465C15.5645 13.7136 15.1426 14.4754 14.2871 14.4754Z" fill="black" fill-opacity="0.85"/>
</g>
<defs>
<clipPath id="clip0_2207_27136">
<rect width="21.5742" height="21.5977" fill="white" transform="translate(0.0839844 0.00268555)"/>
</clipPath>
</defs>
</svg>
