<svg width="22" height="22" viewBox="0 0 22 22" fill="none" xmlns="http://www.w3.org/2000/svg">
<g clip-path="url(#clip0_2207_27141)">
<path d="M3.76587 21.6004H17.9807C20.4417 21.6004 21.6604 20.3816 21.6604 17.9675V3.65894C21.6604 1.24488 20.4417 0.026123 17.9807 0.026123H3.76587C1.31665 0.026123 0.0861816 1.23316 0.0861816 3.65894V17.9675C0.0861816 20.3933 1.31665 21.6004 3.76587 21.6004Z" fill="black" fill-opacity="0.85"/>
<path d="M5.12524 15.6824C4.56274 15.6824 4.30493 15.3894 4.30493 14.9793C4.30493 14.5925 4.52759 14.2996 4.76196 14.0066L6.8479 11.323C7.49243 10.5144 8.1604 9.53002 8.1604 8.55737C8.1604 7.7019 7.75024 7.06909 7.0354 7.06909C6.34399 7.06909 6.0393 7.57299 5.81665 8.38159C5.68774 8.78002 5.45337 8.96752 5.04321 8.96752C4.58618 8.96752 4.31665 8.65112 4.31665 8.19409C4.31665 6.94018 5.50024 5.66284 7.04712 5.66284C8.71118 5.66284 9.82446 6.84643 9.82446 8.47534C9.82446 9.54174 9.42602 10.4324 8.21899 11.9324L6.46118 14.1589V14.2527H9.32056C9.73071 14.2527 10.012 14.5105 10.012 14.9793C10.012 15.4011 9.74243 15.6824 9.32056 15.6824H5.12524ZM14.3831 15.8933C12.6253 15.8933 11.2659 14.8386 11.2659 13.0457C11.2659 11.7332 12.051 10.7839 13.0823 10.5496V10.5144C12.3089 10.28 11.5471 9.55346 11.5471 8.32299C11.5471 6.62377 12.8948 5.70971 14.3831 5.70971C16.094 5.70971 17.2542 6.77612 17.2542 8.33471C17.2542 9.48315 16.5393 10.2683 15.7307 10.5144V10.5496C16.6917 10.7722 17.5354 11.7215 17.5354 13.0457C17.5354 14.698 16.305 15.8933 14.3831 15.8933ZM14.3948 9.96362C15.1565 9.96362 15.555 9.29565 15.555 8.49877C15.555 7.72534 15.1682 7.01049 14.3948 7.01049C13.6448 7.01049 13.2346 7.72534 13.2346 8.49877C13.2346 9.21362 13.6214 9.96362 14.3948 9.96362ZM14.3948 14.5808C15.2737 14.5808 15.7073 13.8074 15.7073 12.905C15.7073 11.991 15.2503 11.2761 14.3948 11.2761C13.5159 11.2761 13.0823 12.0379 13.0823 12.905C13.0823 13.8074 13.5159 14.5808 14.3948 14.5808Z" fill="white"/>
</g>
<defs>
<clipPath id="clip0_2207_27141">
<rect width="21.5742" height="21.5977" fill="white" transform="translate(0.0861816 0.00268555)"/>
</clipPath>
</defs>
</svg>
