<svg width="24" height="24" viewBox="0 0 24 24" fill="none" xmlns="http://www.w3.org/2000/svg">
<g clip-path="url(#clip0_2207_27146)">
<path d="M12.0412 23.9089C18.5803 23.9089 23.9943 18.4832 23.9943 11.9558C23.9943 5.41675 18.5686 0.00268555 12.0295 0.00268555C5.50219 0.00268555 0.0881348 5.41675 0.0881348 11.9558C0.0881348 18.4832 5.51392 23.9089 12.0412 23.9089ZM12.0412 21.9168C6.51002 21.9168 2.09204 17.4871 2.09204 11.9558C2.09204 6.42457 6.49829 1.99488 12.0295 1.99488C17.5608 1.99488 22.0022 6.42457 22.0022 11.9558C22.0022 17.4871 17.5725 21.9168 12.0412 21.9168Z" fill="black" fill-opacity="0.85"/>
<path d="M6.55688 16.6902H10.6233C11.0334 16.6902 11.2795 16.4207 11.2795 16.0105C11.2795 15.5652 11.0217 15.3191 10.6233 15.3191H7.83422V15.2254L9.54516 13.0574C10.7287 11.6043 11.1037 10.7371 11.1037 9.7058C11.1037 8.12377 10.0373 6.97534 8.40844 6.97534C6.92016 6.97534 5.78344 8.21752 5.78344 9.43627C5.78344 9.86987 6.02954 10.1746 6.47485 10.1746C6.86157 10.1746 7.10766 9.99877 7.22485 9.61206C7.44751 8.8269 7.72875 8.33471 8.40844 8.33471C9.11157 8.33471 9.51001 8.9558 9.51001 9.78784C9.51001 10.7254 8.85375 11.6746 8.23266 12.4715L6.20532 15.073C5.98266 15.3543 5.76001 15.6472 5.76001 16.0105C5.76001 16.4089 6.01782 16.6902 6.55688 16.6902ZM14.7951 13.4207C15.7561 13.4207 16.4709 12.7879 16.7404 11.78H16.7873C16.7873 11.8269 16.7873 11.8738 16.7873 11.9089C16.7873 13.2097 16.6233 15.5535 15.3108 15.5535C14.7834 15.5535 14.4319 15.1902 14.2209 14.6863C14.0569 14.2996 13.8225 14.1472 13.4709 14.1472C12.9787 14.1472 12.7678 14.4754 12.7678 14.8621C12.7678 15.0027 12.8029 15.1433 12.8381 15.2839C13.0842 16.3035 14.1037 16.9246 15.2756 16.9246C17.6779 16.9246 18.3811 14.2644 18.3811 11.8621C18.3811 9.64721 17.6779 6.99877 15.299 6.99877C13.5178 6.99877 12.4865 8.49877 12.4865 10.3386C12.4865 11.9207 13.2483 13.4207 14.7951 13.4207ZM15.3225 12.1316C14.4553 12.1316 14.1037 11.1355 14.1037 10.2683C14.1037 9.3894 14.5022 8.35815 15.3225 8.35815C16.2014 8.35815 16.5647 9.3894 16.5647 10.2683C16.5647 11.1707 16.1662 12.1316 15.3225 12.1316Z" fill="black" fill-opacity="0.85"/>
</g>
<defs>
<clipPath id="clip0_2207_27146">
<rect width="23.9062" height="23.918" fill="white" transform="translate(0.0881348 0.00268555)"/>
</clipPath>
</defs>
</svg>
