<svg width="22" height="22" viewBox="0 0 22 22" fill="none" xmlns="http://www.w3.org/2000/svg">
<g clip-path="url(#clip0_2207_27156)">
<path d="M3.77198 21.6004H17.9868C20.4478 21.6004 21.6665 20.3816 21.6665 17.9675V3.65894C21.6665 1.24488 20.4478 0.026123 17.9868 0.026123H3.77198C1.32276 0.026123 0.0922852 1.23316 0.0922852 3.65894V17.9675C0.0922852 20.3933 1.32276 21.6004 3.77198 21.6004ZM3.79541 19.7136C2.62354 19.7136 1.97901 19.0925 1.97901 17.8738V3.75269C1.97901 2.53394 2.62354 1.91285 3.79541 1.91285H17.9634C19.1235 1.91285 19.7798 2.53394 19.7798 3.75269V17.8738C19.7798 19.0925 19.1235 19.7136 17.9634 19.7136H3.79541Z" fill="black" fill-opacity="0.85"/>
<path d="M5.41259 15.53H9.479C9.88916 15.53 10.147 15.2605 10.147 14.8504C10.147 14.405 9.87744 14.1589 9.479 14.1589H6.70166V14.0652L8.40087 11.8972C9.58447 10.4441 9.95947 9.57691 9.95947 8.54566C9.95947 6.96363 8.89306 5.81519 7.27587 5.81519C5.77587 5.81519 4.63916 7.05738 4.63916 8.27613C4.63916 8.70972 4.88525 9.01441 5.33056 9.01441C5.729 9.01441 5.96337 8.83863 6.08056 8.45191C6.30322 7.66675 6.59619 7.17457 7.26416 7.17457C7.96728 7.17457 8.36572 7.79566 8.36572 8.62769C8.36572 9.56519 7.70947 10.5144 7.08837 11.3113L5.06103 13.9129C4.83837 14.1941 4.61572 14.4871 4.61572 14.8504C4.61572 15.2488 4.87353 15.53 5.41259 15.53ZM13.6626 12.2605C14.6118 12.2605 15.3267 11.6277 15.5962 10.6199H15.6431C15.6431 10.6668 15.6431 10.7136 15.6431 10.7488C15.6431 12.0496 15.479 14.3933 14.1665 14.3933C13.6392 14.3933 13.2876 14.03 13.0767 13.5261C12.9126 13.1394 12.6782 12.9871 12.3267 12.9871C11.8345 12.9871 11.6235 13.3152 11.6235 13.7019C11.6235 13.8425 11.6587 13.9832 11.6939 14.1238C11.94 15.1433 12.9595 15.7644 14.1314 15.7644C16.5454 15.7644 17.2368 13.1043 17.2368 10.7019C17.2368 8.48707 16.5337 5.83863 14.1548 5.83863C12.3735 5.83863 11.3423 7.33863 11.3423 9.17847C11.3423 10.7605 12.104 12.2605 13.6626 12.2605ZM14.1782 10.9715C13.3111 10.9715 12.9595 9.97535 12.9595 9.10816C12.9595 8.22925 13.3579 7.198 14.1782 7.198C15.0571 7.198 15.4204 8.22925 15.4204 9.10816C15.4204 10.0105 15.022 10.9715 14.1782 10.9715Z" fill="black" fill-opacity="0.85"/>
</g>
<defs>
<clipPath id="clip0_2207_27156">
<rect width="21.5742" height="21.5977" fill="white" transform="translate(0.0922852 0.00268555)"/>
</clipPath>
</defs>
</svg>
