<svg width="24" height="24" viewBox="0 0 24 24" fill="none" xmlns="http://www.w3.org/2000/svg">
<g clip-path="url(#clip0_2207_17666)">
<path d="M11.9531 23.9104C18.4922 23.9104 23.9062 18.4846 23.9062 11.9573C23.9062 5.41821 18.4805 0.00415039 11.9414 0.00415039C5.41406 0.00415039 0 5.41821 0 11.9573C0 18.4846 5.42578 23.9104 11.9531 23.9104Z" fill="black" fill-opacity="0.85"/>
<path d="M5.75391 16.844C5.20312 16.844 4.94531 16.5511 4.94531 16.1409C4.94531 15.7659 5.15625 15.4612 5.39062 15.1683L7.48828 12.4964C8.13281 11.6761 8.80078 10.6917 8.80078 9.71899C8.80078 8.86353 8.40234 8.23071 7.66406 8.23071C6.97266 8.23071 6.67969 8.73462 6.44531 9.54321C6.32812 9.94165 6.08203 10.1292 5.68359 10.1292C5.21484 10.1292 4.95703 9.81274 4.95703 9.35571C4.95703 8.10181 6.12891 6.82446 7.67578 6.82446C9.33984 6.82446 10.4648 8.00806 10.4648 9.63696C10.4648 10.7034 10.0664 11.594 8.84766 13.094L7.08984 15.3206V15.4261H9.94922C10.3711 15.4261 10.6406 15.6722 10.6406 16.1409C10.6406 16.5628 10.3828 16.844 9.94922 16.844H5.75391ZM13.0312 16.9964C12.5508 16.9964 12.1523 16.598 12.1523 16.1058V7.79712C12.1523 7.30493 12.5508 6.90649 13.0312 6.90649C13.5117 6.90649 13.9219 7.30493 13.9219 7.79712V11.137H16.8984V7.79712C16.8984 7.30493 17.2969 6.90649 17.7891 6.90649C18.2578 6.90649 18.6562 7.30493 18.6562 7.79712V16.1058C18.6562 16.598 18.2578 16.9964 17.7891 16.9964C17.2969 16.9964 16.8984 16.598 16.8984 16.1058V12.6136H13.9219V16.1058C13.9219 16.598 13.5117 16.9964 13.0312 16.9964Z" fill="white"/>
</g>
<defs>
<clipPath id="clip0_2207_17666">
<rect width="23.9062" height="23.918" fill="white" transform="translate(0 0.00415039)"/>
</clipPath>
</defs>
</svg>
