<svg width="24" height="24" viewBox="0 0 24 24" fill="none" xmlns="http://www.w3.org/2000/svg">
<g clip-path="url(#clip0_2207_26371)">
<path d="M11.9573 23.9104C18.4964 23.9104 23.9104 18.4846 23.9104 11.9573C23.9104 5.41821 18.4846 0.00415039 11.9455 0.00415039C5.41821 0.00415039 0.00415039 5.41821 0.00415039 11.9573C0.00415039 18.4846 5.42993 23.9104 11.9573 23.9104Z" fill="black" fill-opacity="0.85"/>
<path d="M11.9925 17.7111C10.012 17.7111 8.44165 16.7619 8.07837 15.3674C8.04321 15.1916 8.01978 15.0861 8.01978 14.9103C8.01978 14.4182 8.37134 14.0783 8.86353 14.0783C9.2854 14.0783 9.5315 14.2775 9.69557 14.6994C9.98854 15.5314 10.7151 16.1643 12.0276 16.1643C13.4339 16.1643 14.3831 15.4611 14.3831 14.3713C14.3831 13.2814 13.4456 12.5314 12.0862 12.5314H11.2659C10.8206 12.5314 10.5042 12.215 10.5042 11.7932C10.5042 11.3361 10.8206 11.0314 11.2659 11.0314H12.0276C13.1761 11.0314 14.0198 10.3049 14.0198 9.30884C14.0198 8.33618 13.2698 7.73853 12.0628 7.73853C10.9378 7.73853 10.1878 8.30103 9.91821 9.20337C9.77759 9.62524 9.51978 9.83618 9.08619 9.83618C8.60572 9.83618 8.26587 9.50806 8.26587 9.02759C8.26587 8.85181 8.2776 8.7229 8.31275 8.54712C8.64088 7.11743 10.1292 6.20337 12.098 6.20337C14.2659 6.20337 15.8128 7.4104 15.8128 9.0979C15.8128 10.3635 14.8753 11.4768 13.6565 11.6525V11.7463C15.1214 11.8869 16.1995 13.0236 16.1995 14.4416C16.1995 16.3518 14.594 17.7111 11.9925 17.7111Z" fill="white"/>
</g>
<defs>
<clipPath id="clip0_2207_26371">
<rect width="23.9062" height="23.918" fill="white" transform="translate(0.00415039 0.00415039)"/>
</clipPath>
</defs>
</svg>
