<svg width="22" height="22" viewBox="0 0 22 22" fill="none" xmlns="http://www.w3.org/2000/svg">
<g clip-path="url(#clip0_2207_26376)">
<path d="M3.68799 21.6019H17.9028C20.3638 21.6019 21.5825 20.3831 21.5825 17.969V3.6604C21.5825 1.24634 20.3638 0.0275879 17.9028 0.0275879H3.68799C1.23877 0.0275879 0.00830078 1.23462 0.00830078 3.6604V17.969C0.00830078 20.3948 1.23877 21.6019 3.68799 21.6019ZM3.71142 19.715C2.53955 19.715 1.89502 19.094 1.89502 17.8752V3.75415C1.89502 2.5354 2.53955 1.91431 3.71142 1.91431H17.8794C19.0395 1.91431 19.6958 2.5354 19.6958 3.75415V17.8752C19.6958 19.094 19.0395 19.715 17.8794 19.715H3.71142Z" fill="black" fill-opacity="0.85"/>
<path d="M10.8481 16.3753C13.356 16.3753 14.9145 15.0511 14.9145 13.2112C14.9145 11.8284 13.8716 10.7269 12.4536 10.598V10.5042C13.6255 10.3284 14.5395 9.25024 14.5395 8.01977C14.5395 6.39087 13.0395 5.21899 10.9419 5.21899C9.03174 5.21899 7.59033 6.10962 7.28564 7.49243C7.23877 7.65649 7.22705 7.7854 7.22705 7.96118C7.22705 8.41821 7.55518 8.73462 8.02392 8.73462C8.4458 8.73462 8.69189 8.5354 8.83252 8.12524C9.09033 7.24634 9.82861 6.69556 10.9067 6.69556C12.0786 6.69556 12.8052 7.28149 12.8052 8.23071C12.8052 9.19165 11.9849 9.90649 10.8716 9.90649H10.1333C9.71142 9.90649 9.39502 10.1995 9.39502 10.6331C9.39502 11.0433 9.71142 11.348 10.1333 11.348H10.9302C12.2544 11.348 13.1685 12.0745 13.1685 13.1409C13.1685 14.1956 12.2544 14.887 10.8833 14.887C9.60596 14.887 8.90283 14.2659 8.60986 13.4573C8.45752 13.0472 8.21142 12.8597 7.80127 12.8597C7.33252 12.8597 7.00439 13.1878 7.00439 13.6565C7.00439 13.8323 7.01611 13.9378 7.05127 14.1019C7.40283 15.4495 8.92627 16.3753 10.8481 16.3753Z" fill="black" fill-opacity="0.85"/>
</g>
<defs>
<clipPath id="clip0_2207_26376">
<rect width="21.5742" height="21.5977" fill="white" transform="translate(0.00830078 0.00415039)"/>
</clipPath>
</defs>
</svg>
