<svg width="24" height="24" viewBox="0 0 24 24" fill="none" xmlns="http://www.w3.org/2000/svg">
<g clip-path="url(#clip0_2207_27166)">
<path d="M11.9658 23.9104C18.5049 23.9104 23.9189 18.4846 23.9189 11.9573C23.9189 5.41821 18.4932 0.00415039 11.9541 0.00415039C5.42675 0.00415039 0.0126953 5.41821 0.0126953 11.9573C0.0126953 18.4846 5.43848 23.9104 11.9658 23.9104ZM11.9658 21.9183C6.43458 21.9183 2.01661 17.4886 2.01661 11.9573C2.01661 6.42603 6.42285 1.99634 11.9541 1.99634C17.4854 1.99634 21.9268 6.42603 21.9268 11.9573C21.9268 17.4886 17.4971 21.9183 11.9658 21.9183Z" fill="black" fill-opacity="0.85"/>
<path d="M8.32129 16.8908C9.99708 16.8908 11.2979 15.8361 11.2979 14.0783C11.2979 12.6252 10.4189 11.9103 9.43458 11.8049V11.758C10.501 11.4768 11.0166 10.5393 11.0166 9.55493C11.0166 7.93774 9.79786 7.01196 8.27442 7.01196C7.06739 7.01196 6.0127 7.69165 5.68458 8.73462C5.61426 8.95727 5.59082 9.16821 5.59082 9.36743C5.59082 9.74243 5.84864 10.0588 6.31739 10.0588C6.71582 10.0588 6.93848 9.89477 7.05567 9.49634C7.24317 8.80493 7.61817 8.35962 8.27442 8.35962C9.04786 8.35962 9.42286 8.96899 9.42286 9.74243C9.42286 10.5979 8.94239 11.2189 8.06348 11.2189H7.78223C7.38379 11.2189 7.1377 11.465 7.1377 11.84C7.1377 12.2268 7.39551 12.4611 7.78223 12.4611H8.0752C9.07129 12.4611 9.62208 13.0002 9.62208 14.0314C9.62208 14.84 9.2002 15.5197 8.32129 15.5197C7.46582 15.5197 7.09082 14.9455 6.9502 14.4182C6.83301 14.0432 6.58692 13.8439 6.2002 13.8439C5.74317 13.8439 5.43848 14.1135 5.43848 14.5822C5.43848 14.7932 5.47364 15.0041 5.53223 15.1916C5.87208 16.2814 7.05567 16.8908 8.32129 16.8908ZM15.5518 16.926C17.8955 16.926 18.5869 14.301 18.5869 11.9455C18.5869 9.59009 17.8955 6.96509 15.5518 6.96509C13.2197 6.96509 12.5283 9.59009 12.5283 11.9455C12.5283 14.301 13.2197 16.926 15.5518 16.926ZM15.5518 15.5314C14.6025 15.5314 14.2393 13.9729 14.2393 11.9455C14.2393 9.90649 14.6025 8.3479 15.5518 8.3479C16.5127 8.3479 16.876 9.90649 16.876 11.9455C16.876 13.9729 16.5127 15.5314 15.5518 15.5314Z" fill="black" fill-opacity="0.85"/>
</g>
<defs>
<clipPath id="clip0_2207_27166">
<rect width="23.9062" height="23.918" fill="white" transform="translate(0.0126953 0.00415039)"/>
</clipPath>
</defs>
</svg>
