<svg width="24" height="24" viewBox="0 0 24 24" fill="none" xmlns="http://www.w3.org/2000/svg">
<g clip-path="url(#clip0_2207_27191)">
<path d="M11.9763 23.9104C18.5154 23.9104 23.9294 18.4846 23.9294 11.9573C23.9294 5.41821 18.5037 0.00415039 11.9646 0.00415039C5.43725 0.00415039 0.0231934 5.41821 0.0231934 11.9573C0.0231934 18.4846 5.44897 23.9104 11.9763 23.9104Z" fill="black" fill-opacity="0.85"/>
<path d="M9.14039 17.0549C7.83961 17.0549 6.60914 16.4338 6.25758 15.3088C6.19898 15.1096 6.16382 14.8986 6.16382 14.676C6.16382 14.2072 6.48023 13.9143 6.9607 13.9143C7.34742 13.9143 7.60523 14.1135 7.72242 14.5119C7.87476 15.0627 8.26148 15.6486 9.14039 15.6486C10.031 15.6486 10.4763 14.9338 10.4763 14.1018C10.4763 13.0588 9.91382 12.4963 8.88258 12.4963H8.58961C8.19117 12.4963 7.92164 12.2619 7.92164 11.8635C7.92164 11.465 8.17945 11.2072 8.58961 11.2072H8.87086C9.78492 11.2072 10.2654 10.5627 10.2654 9.68384C10.2654 8.88696 9.89039 8.27759 9.09351 8.27759C8.41382 8.27759 8.03882 8.7229 7.83961 9.43774C7.72242 9.85962 7.47632 10.0119 7.06617 10.0119C6.5857 10.0119 6.32789 9.69556 6.32789 9.29712C6.32789 9.08618 6.35132 8.87524 6.42164 8.64087C6.76148 7.57446 7.85132 6.87134 9.09351 6.87134C10.6638 6.87134 11.9294 7.82056 11.9294 9.49634C11.9294 10.5041 11.3787 11.4885 10.2888 11.7814V11.8166C11.3084 11.9221 12.2107 12.6603 12.2107 14.1603C12.2107 15.965 10.8748 17.0549 9.14039 17.0549ZM16.2771 16.9729C15.7849 16.9729 15.3865 16.5744 15.3865 16.0822V8.75806L14.2732 9.64868C14.156 9.74243 14.0271 9.80103 13.8396 9.80103C13.4763 9.80103 13.2185 9.53149 13.2185 9.15649C13.2185 8.84009 13.3826 8.60571 13.6052 8.44165L14.9294 7.4104C15.2107 7.19946 15.6209 6.91821 16.1365 6.91821C16.7693 6.91821 17.156 7.28149 17.156 7.90259V16.0822C17.156 16.5744 16.7576 16.9729 16.2771 16.9729Z" fill="white"/>
</g>
<defs>
<clipPath id="clip0_2207_27191">
<rect width="23.9062" height="23.918" fill="white" transform="translate(0.0231934 0.00415039)"/>
</clipPath>
</defs>
</svg>
