<svg width="22" height="22" viewBox="0 0 22 22" fill="none" xmlns="http://www.w3.org/2000/svg">
<g clip-path="url(#clip0_2207_27201)">
<path d="M3.70703 21.6019H17.9218C20.3828 21.6019 21.6015 20.3831 21.6015 17.969V3.6604C21.6015 1.24634 20.3828 0.0275879 17.9218 0.0275879H3.70703C1.25781 0.0275879 0.0273438 1.23462 0.0273438 3.6604V17.969C0.0273438 20.3948 1.25781 21.6019 3.70703 21.6019Z" fill="black" fill-opacity="0.85"/>
<path d="M7.98437 15.8948C6.68359 15.8948 5.45312 15.2737 5.10156 14.1487C5.04296 13.9495 5.00781 13.7386 5.00781 13.5159C5.00781 13.0472 5.32422 12.7542 5.80468 12.7542C6.20312 12.7542 6.44922 12.9534 6.57812 13.3519C6.71875 13.9026 7.10546 14.4886 7.98437 14.4886C8.875 14.4886 9.32031 13.7737 9.32031 12.9417C9.32031 11.8987 8.75781 11.3362 7.72656 11.3362H7.43359C7.03515 11.3362 6.76562 11.1019 6.76562 10.7034C6.76562 10.305 7.02343 10.0472 7.43359 10.0472H7.71484C8.6289 10.0472 9.12109 9.40259 9.12109 8.52368C9.12109 7.72681 8.73437 7.11743 7.9375 7.11743C7.25781 7.11743 6.88281 7.56274 6.68359 8.27759C6.5664 8.69946 6.33203 8.85181 5.91015 8.85181C5.42968 8.85181 5.17187 8.5354 5.17187 8.13696C5.17187 7.92603 5.19531 7.71509 5.26562 7.48071C5.60546 6.41431 6.69531 5.71118 7.9375 5.71118C9.50781 5.71118 10.7734 6.6604 10.7734 8.33618C10.7734 9.34399 10.2343 10.3284 9.13281 10.6214V10.6565C10.1523 10.762 11.0546 11.5003 11.0546 13.0003C11.0546 14.805 9.71875 15.8948 7.98437 15.8948ZM15.1211 15.8128C14.6289 15.8128 14.2304 15.4144 14.2304 14.9222V7.5979L13.1171 8.48853C13 8.58227 12.8711 8.64087 12.6953 8.64087C12.3203 8.64087 12.0625 8.37134 12.0625 7.99634C12.0625 7.67993 12.2265 7.44556 12.4492 7.28149L13.7734 6.25024C14.0546 6.03931 14.4648 5.75806 14.9804 5.75806C15.6132 5.75806 16 6.12134 16 6.74243V14.9222C16 15.4144 15.6015 15.8128 15.1211 15.8128Z" fill="white"/>
</g>
<defs>
<clipPath id="clip0_2207_27201">
<rect width="21.5742" height="21.5977" fill="white" transform="translate(0.0273438 0.00415039)"/>
</clipPath>
</defs>
</svg>
