<svg width="24" height="24" viewBox="0 0 24 24" fill="none" xmlns="http://www.w3.org/2000/svg">
<g clip-path="url(#clip0_2207_27211)">
<path d="M11.9846 23.9104C18.5237 23.9104 23.9377 18.4846 23.9377 11.9573C23.9377 5.41821 18.512 0.00415039 11.9729 0.00415039C5.44555 0.00415039 0.0314941 5.41821 0.0314941 11.9573C0.0314941 18.4846 5.45727 23.9104 11.9846 23.9104Z" fill="black" fill-opacity="0.85"/>
<path d="M8.38696 17.055C7.07446 17.055 5.85571 16.4339 5.50415 15.3089C5.44555 15.1097 5.4104 14.8987 5.4104 14.6761C5.4104 14.2073 5.7268 13.9144 6.19555 13.9144C6.58227 13.9144 6.8518 14.1136 6.95727 14.512C7.12133 15.0628 7.50805 15.6487 8.38696 15.6487C9.27758 15.6487 9.7229 14.9456 9.7229 14.1136C9.7229 13.0589 9.14868 12.4964 8.12915 12.4964H7.82446C7.42602 12.4964 7.15649 12.262 7.15649 11.8636C7.15649 11.4651 7.4143 11.2073 7.82446 11.2073H8.11743C9.01977 11.2073 9.50024 10.5628 9.50024 9.68384C9.50024 8.88696 9.12524 8.27759 8.32837 8.27759C7.6604 8.27759 7.27368 8.7229 7.08618 9.43774C6.95727 9.85962 6.71118 10.012 6.30102 10.012C5.83227 10.012 5.56274 9.69556 5.56274 9.29712C5.56274 9.0979 5.58618 8.87524 5.64477 8.64087C5.99633 7.57446 7.08618 6.87134 8.32837 6.87134C9.9104 6.87134 11.1643 7.82056 11.1643 9.49634C11.1643 10.5042 10.6253 11.4886 9.5354 11.7815V11.8167C10.5432 11.9222 11.4456 12.6604 11.4456 14.1604C11.4456 15.9769 10.1096 17.055 8.38696 17.055ZM13.5081 16.844C12.969 16.844 12.6995 16.5511 12.6995 16.1409C12.6995 15.7542 12.9338 15.4612 13.1448 15.1683L15.2424 12.4847C15.887 11.6761 16.5667 10.6917 16.5667 9.71899C16.5667 8.86353 16.1565 8.23071 15.4182 8.23071C14.7385 8.23071 14.4338 8.73462 14.2229 9.54321C14.0823 9.94165 13.8362 10.1292 13.4377 10.1292C12.9807 10.1292 12.7112 9.81274 12.7112 9.35571C12.7112 8.10181 13.8831 6.82446 15.4299 6.82446C17.1057 6.82446 18.219 8.00806 18.219 9.63696C18.219 10.7034 17.8206 11.594 16.6135 13.094L14.844 15.3206V15.4144H17.7034C18.137 15.4144 18.3948 15.6722 18.3948 16.1409C18.3948 16.5628 18.1487 16.844 17.7034 16.844H13.5081Z" fill="white"/>
</g>
<defs>
<clipPath id="clip0_2207_27211">
<rect width="23.9062" height="23.918" fill="white" transform="translate(0.0314941 0.00415039)"/>
</clipPath>
</defs>
</svg>
