<svg width="24" height="24" viewBox="0 0 24 24" fill="none" xmlns="http://www.w3.org/2000/svg">
<g clip-path="url(#clip0_2207_27226)">
<path d="M11.9909 23.9104C18.53 23.9104 23.944 18.4846 23.944 11.9573C23.944 5.41821 18.5183 0.00415039 11.9792 0.00415039C5.4519 0.00415039 0.0378418 5.41821 0.0378418 11.9573C0.0378418 18.4846 5.46362 23.9104 11.9909 23.9104ZM11.9909 21.9183C6.45972 21.9183 2.04175 17.4886 2.04175 11.9573C2.04175 6.42603 6.448 1.99634 11.9792 1.99634C17.5105 1.99634 21.9519 6.42603 21.9519 11.9573C21.9519 17.4886 17.5222 21.9183 11.9909 21.9183Z" fill="black" fill-opacity="0.85"/>
<path d="M8.4519 16.9026C10.1276 16.9026 11.4284 15.848 11.4284 14.0901C11.4284 12.637 10.5495 11.9222 9.56518 11.8167V11.7815C10.6198 11.5003 11.1472 10.5511 11.1472 9.56665C11.1472 7.94946 9.92846 7.02368 8.40503 7.02368C7.198 7.02368 6.14331 7.70337 5.81518 8.74634C5.74487 8.96899 5.72143 9.17993 5.72143 9.37915C5.72143 9.76587 5.97925 10.0706 6.43628 10.0706C6.84643 10.0706 7.06909 9.91821 7.18628 9.50806C7.37378 8.81665 7.74878 8.38306 8.40503 8.38306C9.17846 8.38306 9.54175 8.98071 9.54175 9.75415C9.54175 10.6097 9.073 11.2308 8.19409 11.2308H7.91284C7.5144 11.2308 7.26831 11.4769 7.26831 11.8636C7.26831 12.2503 7.52612 12.473 7.91284 12.473H8.20581C9.2019 12.473 9.75268 13.0237 9.75268 14.0433C9.75268 14.8519 9.31909 15.5433 8.4519 15.5433C7.59643 15.5433 7.22143 14.969 7.06909 14.43C6.96362 14.055 6.70581 13.8558 6.33081 13.8558C5.87378 13.8558 5.56909 14.137 5.56909 14.594C5.56909 14.805 5.60425 15.0159 5.66284 15.2034C6.00268 16.2933 7.18628 16.9026 8.4519 16.9026ZM15.5417 16.9026C17.2292 16.9026 18.5183 15.848 18.5183 14.0901C18.5183 12.637 17.6511 11.9222 16.655 11.8167V11.7815C17.7214 11.5003 18.237 10.5511 18.237 9.56665C18.237 7.94946 17.03 7.02368 15.4948 7.02368C14.2878 7.02368 13.2448 7.70337 12.905 8.74634C12.8464 8.96899 12.8112 9.17993 12.8112 9.37915C12.8112 9.76587 13.069 10.0706 13.5378 10.0706C13.9362 10.0706 14.1706 9.91821 14.2878 9.50806C14.4636 8.81665 14.8386 8.38306 15.4948 8.38306C16.2683 8.38306 16.6433 8.98071 16.6433 9.75415C16.6433 10.6097 16.1628 11.2308 15.2839 11.2308H15.0026C14.6159 11.2308 14.3581 11.4769 14.3581 11.8636C14.3581 12.2503 14.6159 12.473 15.0026 12.473H15.3073C16.3034 12.473 16.8425 13.0237 16.8425 14.0433C16.8425 14.8519 16.4206 15.5433 15.5417 15.5433C14.698 15.5433 14.3112 14.969 14.1706 14.43C14.0534 14.055 13.8073 13.8558 13.4323 13.8558C12.9753 13.8558 12.6589 14.137 12.6589 14.594C12.6589 14.805 12.694 15.0159 12.7526 15.2034C13.0925 16.2933 14.2878 16.9026 15.5417 16.9026Z" fill="black" fill-opacity="0.85"/>
</g>
<defs>
<clipPath id="clip0_2207_27226">
<rect width="23.9062" height="23.918" fill="white" transform="translate(0.0378418 0.00415039)"/>
</clipPath>
</defs>
</svg>
