<svg width="22" height="22" viewBox="0 0 22 22" fill="none" xmlns="http://www.w3.org/2000/svg">
<g clip-path="url(#clip0_2207_27241)">
<path d="M3.72376 21.6019H17.9386C20.3996 21.6019 21.6183 20.3831 21.6183 17.969V3.6604C21.6183 1.24634 20.3996 0.0275879 17.9386 0.0275879H3.72376C1.27454 0.0275879 0.0440674 1.23462 0.0440674 3.6604V17.969C0.0440674 20.3948 1.27454 21.6019 3.72376 21.6019Z" fill="black" fill-opacity="0.85"/>
<path d="M7.1925 15.8948C5.89172 15.8948 4.66125 15.2737 4.30968 14.1487C4.25109 13.9495 4.21594 13.7386 4.21594 13.5159C4.21594 13.0472 4.53234 12.7542 5.01281 12.7542C5.41125 12.7542 5.65734 12.9534 5.78625 13.3519C5.92687 13.9026 6.31359 14.4886 7.1925 14.4886C8.09484 14.4886 8.52844 13.7737 8.52844 12.9417C8.52844 11.8987 7.96594 11.3362 6.93468 11.3362H6.64172C6.24328 11.3362 5.97375 11.1019 5.97375 10.7034C5.97375 10.305 6.23156 10.0472 6.64172 10.0472H6.92297C7.83703 10.0472 8.32922 9.40259 8.32922 8.52368C8.32922 7.72681 7.9425 7.11743 7.14562 7.11743C6.46594 7.11743 6.09094 7.56274 5.89172 8.27759C5.77453 8.69946 5.54015 8.85181 5.13 8.85181C4.63781 8.85181 4.38 8.5354 4.38 8.13696C4.38 7.92603 4.40344 7.71509 4.47375 7.48071C4.81359 6.41431 5.90344 5.71118 7.14562 5.71118C8.71594 5.71118 9.98156 6.6604 9.98156 8.33618C9.98156 9.34399 9.4425 10.3284 8.34094 10.6214V10.6565C9.36047 10.762 10.2629 11.5003 10.2629 13.0003C10.2629 14.805 8.92687 15.8948 7.1925 15.8948ZM14.5168 15.8948C13.216 15.8948 11.9855 15.2737 11.6339 14.1487C11.5753 13.9495 11.5402 13.7386 11.5402 13.5159C11.5402 13.0472 11.8683 12.7542 12.3371 12.7542C12.7238 12.7542 12.9933 12.9534 13.0988 13.3519C13.2511 13.9026 13.6496 14.4886 14.5285 14.4886C15.4191 14.4886 15.8644 13.7737 15.8644 12.9417C15.8644 11.8987 15.2902 11.3362 14.2707 11.3362H13.966C13.5558 11.3362 13.2863 11.1019 13.2863 10.7034C13.2863 10.305 13.5558 10.0472 13.966 10.0472H14.2472C15.1496 10.0472 15.6418 9.40259 15.6418 8.52368C15.6418 7.72681 15.2668 7.11743 14.4699 7.11743C13.7902 7.11743 13.4152 7.56274 13.2277 8.27759C13.0988 8.69946 12.8527 8.85181 12.4425 8.85181C11.9621 8.85181 11.7043 8.5354 11.7043 8.13696C11.7043 7.92603 11.7277 7.71509 11.7863 7.48071C12.1379 6.41431 13.216 5.71118 14.4699 5.71118C16.0519 5.71118 17.2941 6.6604 17.2941 8.33618C17.2941 9.34399 16.7668 10.3284 15.6652 10.6214V10.6565C16.6847 10.762 17.5871 11.5003 17.5871 13.0003C17.5871 14.805 16.2511 15.8948 14.5168 15.8948Z" fill="white"/>
</g>
<defs>
<clipPath id="clip0_2207_27241">
<rect width="21.5742" height="21.5977" fill="white" transform="translate(0.0440674 0.00415039)"/>
</clipPath>
</defs>
</svg>
