<svg width="22" height="22" viewBox="0 0 22 22" fill="none" xmlns="http://www.w3.org/2000/svg">
<g clip-path="url(#clip0_2207_27236)">
<path d="M3.72168 21.6019H17.9365C20.3975 21.6019 21.6162 20.3831 21.6162 17.969V3.6604C21.6162 1.24634 20.3975 0.0275879 17.9365 0.0275879H3.72168C1.27246 0.0275879 0.0419922 1.23462 0.0419922 3.6604V17.969C0.0419922 20.3948 1.27246 21.6019 3.72168 21.6019ZM3.74511 19.715C2.57324 19.715 1.92871 19.094 1.92871 17.8752V3.75415C1.92871 2.5354 2.57324 1.91431 3.74511 1.91431H17.9131C19.0732 1.91431 19.7295 2.5354 19.7295 3.75415V17.8752C19.7295 19.094 19.0732 19.715 17.9131 19.715H3.74511Z" fill="black" fill-opacity="0.85"/>
<path d="M7.30761 15.7424C8.9834 15.7424 10.2842 14.6877 10.2842 12.9299C10.2842 11.4768 9.40527 10.7619 8.4209 10.6564V10.6213C9.4873 10.34 10.0029 9.39087 10.0029 8.40649C10.0029 6.78931 8.78418 5.86353 7.26074 5.86353C6.05371 5.86353 4.99902 6.54321 4.6709 7.58618C4.60058 7.80884 4.57715 8.01977 4.57715 8.21899C4.57715 8.60571 4.83496 8.9104 5.29199 8.9104C5.70215 8.9104 5.9248 8.75806 6.04199 8.3479C6.22949 7.65649 6.60449 7.2229 7.26074 7.2229C8.03418 7.2229 8.40918 7.82056 8.40918 8.59399C8.40918 9.44946 7.92871 10.0705 7.0498 10.0705H6.76855C6.37011 10.0705 6.12402 10.3166 6.12402 10.7033C6.12402 11.09 6.38183 11.3127 6.76855 11.3127H7.06152C8.05761 11.3127 8.6084 11.8635 8.6084 12.883C8.6084 13.6916 8.1748 14.383 7.30761 14.383C6.45215 14.383 6.07715 13.8088 5.93652 13.2697C5.81933 12.8947 5.57324 12.6955 5.18652 12.6955C4.72949 12.6955 4.4248 12.9768 4.4248 13.4338C4.4248 13.6447 4.45996 13.8557 4.51855 14.0432C4.8584 15.133 6.04199 15.7424 7.30761 15.7424ZM14.3975 15.7424C16.085 15.7424 17.374 14.6877 17.374 12.9299C17.374 11.4768 16.5068 10.7619 15.5108 10.6564V10.6213C16.5772 10.34 17.0928 9.39087 17.0928 8.40649C17.0928 6.78931 15.8858 5.86353 14.3623 5.86353C13.1436 5.86353 12.1006 6.54321 11.7608 7.58618C11.7022 7.80884 11.6787 8.01977 11.6787 8.21899C11.6787 8.60571 11.9248 8.9104 12.3936 8.9104C12.792 8.9104 13.0264 8.75806 13.1436 8.3479C13.3311 7.65649 13.6943 7.2229 14.3623 7.2229C15.1358 7.2229 15.499 7.82056 15.499 8.59399C15.499 9.44946 15.0186 10.0705 14.1397 10.0705H13.8701C13.4717 10.0705 13.2139 10.3166 13.2139 10.7033C13.2139 11.09 13.4717 11.3127 13.8701 11.3127H14.1631C15.1592 11.3127 15.71 11.8635 15.71 12.883C15.71 13.6916 15.2764 14.383 14.4092 14.383C13.5537 14.383 13.167 13.8088 13.0264 13.2697C12.9209 12.8947 12.6631 12.6955 12.2881 12.6955C11.8311 12.6955 11.5147 12.9768 11.5147 13.4338C11.5147 13.6447 11.5498 13.8557 11.6084 14.0432C11.9482 15.133 13.1436 15.7424 14.3975 15.7424Z" fill="black" fill-opacity="0.85"/>
</g>
<defs>
<clipPath id="clip0_2207_27236">
<rect width="21.5742" height="21.5977" fill="white" transform="translate(0.0419922 0.00415039)"/>
</clipPath>
</defs>
</svg>
