<svg width="22" height="22" viewBox="0 0 22 22" fill="none" xmlns="http://www.w3.org/2000/svg">
<g clip-path="url(#clip0_2207_27281)">
<path d="M3.74073 21.6019H17.9555C20.4165 21.6019 21.6352 20.3831 21.6352 17.969V3.6604C21.6352 1.24634 20.4165 0.0275879 17.9555 0.0275879H3.74073C1.29151 0.0275879 0.0610352 1.23462 0.0610352 3.6604V17.969C0.0610352 20.3948 1.29151 21.6019 3.74073 21.6019Z" fill="black" fill-opacity="0.85"/>
<path d="M7.17431 15.8948C5.88525 15.8948 4.64306 15.2737 4.30322 14.1487C4.23291 13.9495 4.19775 13.7386 4.19775 13.5159C4.19775 13.0472 4.52587 12.7542 5.00634 12.7542C5.39306 12.7542 5.65087 12.9534 5.76806 13.3401C5.90869 13.9026 6.30712 14.4886 7.18603 14.4886C8.07665 14.4886 8.51025 13.7737 8.51025 12.9417C8.51025 11.8987 7.95947 11.3362 6.93994 11.3362H6.62353C6.22509 11.3362 5.95556 11.1019 5.95556 10.7034C5.95556 10.305 6.22509 10.0472 6.62353 10.0472H6.9165C7.81884 10.0472 8.31103 9.40259 8.31103 8.52368C8.31103 7.72681 7.93603 7.11743 7.12744 7.11743C6.45947 7.11743 6.07275 7.56274 5.88525 8.27759C5.76806 8.69946 5.52197 8.85181 5.11181 8.85181C4.61962 8.85181 4.36181 8.5354 4.36181 8.13696C4.36181 7.92603 4.39697 7.71509 4.45556 7.48071C4.80712 6.41431 5.88525 5.71118 7.12744 5.71118C8.70947 5.71118 9.96337 6.6604 9.96337 8.33618C9.96337 9.34399 9.42431 10.3284 8.33447 10.6097V10.6565C9.354 10.762 10.2563 11.5003 10.2563 13.0003C10.2563 14.805 8.92041 15.8948 7.17431 15.8948ZM14.5219 15.93C13.4321 15.93 12.354 15.2972 11.9321 14.3128C11.8383 14.0784 11.7563 13.8089 11.7563 13.5276C11.7563 13.0823 12.0376 12.8011 12.4946 12.8011C12.8227 12.8011 13.0805 12.9769 13.2329 13.3753C13.4438 14.0315 13.8305 14.512 14.4985 14.512C15.4008 14.512 15.7524 13.4925 15.7524 12.4847C15.7524 11.594 15.4126 10.5276 14.5219 10.5276C14.0415 10.5276 13.7368 10.8089 13.4555 11.2073C13.2094 11.5354 13.0102 11.6644 12.6821 11.6644C12.1196 11.6644 11.8969 11.2542 11.8969 10.7972C11.8969 10.6331 11.8969 10.4456 11.9087 10.2581L12.0962 6.95337C12.143 6.32056 12.4243 5.9104 13.0688 5.9104H16.3852C16.7954 5.9104 17.0649 6.22681 17.0649 6.62524C17.0649 7.05884 16.8071 7.35181 16.3852 7.35181H13.561L13.3501 10.2698H13.4087C13.7251 9.57837 14.3813 9.25024 15.0962 9.25024C16.6548 9.25024 17.4516 10.7737 17.4516 12.4378C17.4516 14.348 16.4087 15.93 14.5219 15.93Z" fill="white"/>
</g>
<defs>
<clipPath id="clip0_2207_27281">
<rect width="21.5742" height="21.5977" fill="white" transform="translate(0.0610352 0.00415039)"/>
</clipPath>
</defs>
</svg>
