<svg width="22" height="22" viewBox="0 0 22 22" fill="none" xmlns="http://www.w3.org/2000/svg">
<g clip-path="url(#clip0_2207_27276)">
<path d="M3.73853 21.6019H17.9533C20.4143 21.6019 21.633 20.3831 21.633 17.969V3.6604C21.633 1.24634 20.4143 0.0275879 17.9533 0.0275879H3.73853C1.28931 0.0275879 0.0588379 1.23462 0.0588379 3.6604V17.969C0.0588379 20.3948 1.28931 21.6019 3.73853 21.6019ZM3.76196 19.715C2.59009 19.715 1.94556 19.094 1.94556 17.8752V3.75415C1.94556 2.5354 2.59009 1.91431 3.76196 1.91431H17.9299C19.09 1.91431 19.7463 2.5354 19.7463 3.75415V17.8752C19.7463 19.094 19.09 19.715 17.9299 19.715H3.76196Z" fill="black" fill-opacity="0.85"/>
<path d="M7.2893 15.7424C8.9768 15.7424 10.2658 14.6877 10.2658 12.9299C10.2658 11.4768 9.39867 10.7619 8.40258 10.6564V10.6213C9.46899 10.34 9.98461 9.39087 9.98461 8.40649C9.98461 6.78931 8.77758 5.86353 7.24242 5.86353C6.03539 5.86353 4.99242 6.54321 4.65258 7.58618C4.59399 7.80884 4.55883 8.01977 4.55883 8.21899C4.55883 8.60571 4.81664 8.9104 5.28539 8.9104C5.68383 8.9104 5.91821 8.75806 6.03539 8.3479C6.21117 7.65649 6.58617 7.2229 7.24242 7.2229C8.02758 7.2229 8.39086 7.82056 8.39086 8.59399C8.39086 9.44946 7.91039 10.0705 7.03149 10.0705H6.75024C6.36352 10.0705 6.10571 10.3166 6.10571 10.7033C6.10571 11.09 6.36352 11.3127 6.75024 11.3127H7.05492C8.05102 11.3127 8.59008 11.8635 8.59008 12.883C8.59008 13.6916 8.16821 14.383 7.30102 14.383C6.44555 14.383 6.05883 13.8088 5.91821 13.2697C5.80102 12.8947 5.55492 12.6955 5.17992 12.6955C4.72289 12.6955 4.40649 12.9768 4.40649 13.4338C4.40649 13.6447 4.44164 13.8557 4.50024 14.0432C4.84008 15.133 6.03539 15.7424 7.2893 15.7424ZM14.4026 15.7775C16.2307 15.7775 17.2385 14.2424 17.2385 12.3908C17.2385 10.7736 16.465 9.29712 14.9533 9.29712C14.2619 9.29712 13.6291 9.61353 13.3244 10.2932H13.2658L13.465 7.44556H16.2072C16.6174 7.44556 16.8635 7.16431 16.8635 6.75415C16.8635 6.36743 16.6057 6.06274 16.2072 6.06274H12.9963C12.3752 6.06274 12.1057 6.46118 12.0588 7.07056L11.8713 10.2814C11.8596 10.4572 11.8596 10.6447 11.8596 10.7971C11.8596 11.2424 12.0822 11.6408 12.6213 11.6408C12.9377 11.6408 13.1252 11.5119 13.3713 11.1955C13.6408 10.8088 13.9338 10.5275 14.4026 10.5275C15.2697 10.5275 15.5979 11.5705 15.5979 12.4377C15.5979 13.4103 15.258 14.4064 14.3791 14.4064C13.7346 14.4064 13.3596 13.9377 13.1486 13.2932C13.008 12.9182 12.7502 12.7424 12.4338 12.7424C12.0002 12.7424 11.7307 13.0119 11.7307 13.4455C11.7307 13.715 11.801 13.9729 11.8947 14.2072C12.3049 15.1564 13.3479 15.7775 14.4026 15.7775Z" fill="black" fill-opacity="0.85"/>
</g>
<defs>
<clipPath id="clip0_2207_27276">
<rect width="21.5742" height="21.5977" fill="white" transform="translate(0.0588379 0.00415039)"/>
</clipPath>
</defs>
</svg>
