<svg width="24" height="24" viewBox="0 0 24 24" fill="none" xmlns="http://www.w3.org/2000/svg">
<g clip-path="url(#clip0_2207_27286)">
<path d="M12.0161 23.9104C18.5552 23.9104 23.9692 18.4846 23.9692 11.9573C23.9692 5.41821 18.5435 0.00415039 12.0044 0.00415039C5.47705 0.00415039 0.0629883 5.41821 0.0629883 11.9573C0.0629883 18.4846 5.48877 23.9104 12.0161 23.9104ZM12.0161 21.9183C6.48487 21.9183 2.0669 17.4886 2.0669 11.9573C2.0669 6.42603 6.47315 1.99634 12.0044 1.99634C17.5357 1.99634 21.9771 6.42603 21.9771 11.9573C21.9771 17.4886 17.5474 21.9183 12.0161 21.9183Z" fill="black" fill-opacity="0.85"/>
<path d="M8.32471 16.9026C10.0122 16.9026 11.3013 15.848 11.3013 14.0901C11.3013 12.637 10.4341 11.9222 9.44971 11.8167V11.7815C10.5044 11.5003 11.02 10.5511 11.02 9.56665C11.02 7.94946 9.81299 7.02368 8.28955 7.02368C7.0708 7.02368 6.02783 7.70337 5.68799 8.74634C5.6294 8.96899 5.60596 9.17993 5.60596 9.37915C5.60596 9.76587 5.85205 10.0706 6.3208 10.0706C6.71924 10.0706 6.95361 9.91821 7.0708 9.50806C7.2583 8.81665 7.62158 8.38306 8.28955 8.38306C9.06299 8.38306 9.42627 8.98071 9.42627 9.75415C9.42627 10.6097 8.9458 11.2308 8.0669 11.2308H7.79737C7.39893 11.2308 7.14111 11.4769 7.14111 11.8636C7.14111 12.2503 7.41065 12.473 7.79737 12.473H8.09033C9.08643 12.473 9.63721 13.0237 9.63721 14.0433C9.63721 14.8519 9.20361 15.5433 8.33643 15.5433C7.48096 15.5433 7.09424 14.969 6.95361 14.43C6.84815 14.055 6.59033 13.8558 6.21533 13.8558C5.7583 13.8558 5.45361 14.137 5.45361 14.594C5.45361 14.805 5.47705 15.0159 5.53565 15.2034C5.87549 16.2933 7.0708 16.9026 8.32471 16.9026ZM15.6372 16.9378C17.4302 16.9378 18.4497 15.4378 18.4497 13.598C18.4497 12.0159 17.688 10.5159 16.1411 10.5159C15.1919 10.5159 14.4653 11.1487 14.1958 12.1565H14.1607C14.1607 12.1097 14.1607 12.0628 14.1607 12.0276C14.1607 10.7269 14.313 8.37134 15.6255 8.37134C16.1528 8.37134 16.5044 8.74634 16.7153 9.23853C16.8794 9.60181 17.1021 9.76587 17.4771 9.76587C17.9458 9.76587 18.1568 9.44946 18.1568 9.06274C18.1568 8.93384 18.1333 8.79321 18.0982 8.64087C17.8521 7.63306 16.8325 7.00024 15.6607 7.00024C13.2583 7.00024 12.5552 9.69556 12.5552 12.0745C12.5552 14.2894 13.27 16.9378 15.6372 16.9378ZM15.6138 15.5667C14.7349 15.5667 14.3833 14.4651 14.3833 13.6214C14.3833 12.7659 14.77 11.7933 15.6138 11.7933C16.481 11.7933 16.8442 12.8011 16.8208 13.6683C16.8208 14.5237 16.4341 15.5667 15.6138 15.5667Z" fill="black" fill-opacity="0.85"/>
</g>
<defs>
<clipPath id="clip0_2207_27286">
<rect width="23.9062" height="23.918" fill="white" transform="translate(0.0629883 0.00415039)"/>
</clipPath>
</defs>
</svg>
