<svg width="24" height="24" viewBox="0 0 24 24" fill="none" xmlns="http://www.w3.org/2000/svg">
<g clip-path="url(#clip0_2207_27306)">
<path d="M12.0244 23.9104C18.5635 23.9104 23.9775 18.4846 23.9775 11.9573C23.9775 5.41821 18.5518 0.00415039 12.0127 0.00415039C5.48535 0.00415039 0.0712891 5.41821 0.0712891 11.9573C0.0712891 18.4846 5.49707 23.9104 12.0244 23.9104ZM12.0244 21.9183C6.49317 21.9183 2.0752 17.4886 2.0752 11.9573C2.0752 6.42603 6.48145 1.99634 12.0127 1.99634C17.544 1.99634 21.9854 6.42603 21.9854 11.9573C21.9854 17.4886 17.5557 21.9183 12.0244 21.9183Z" fill="black" fill-opacity="0.85"/>
<path d="M8.86035 16.9026C10.5479 16.9026 11.8369 15.848 11.8369 14.0901C11.8369 12.637 10.9697 11.9222 9.97363 11.8167V11.7815C11.0401 11.5003 11.5557 10.5511 11.5557 9.56665C11.5557 7.94946 10.3486 7.02368 8.81348 7.02368C7.60645 7.02368 6.56348 7.70337 6.22363 8.74634C6.16504 8.96899 6.12988 9.17993 6.12988 9.37915C6.12988 9.76587 6.3877 10.0706 6.85645 10.0706C7.25488 10.0706 7.48926 9.91821 7.60645 9.50806C7.79395 8.81665 8.15723 8.38306 8.81348 8.38306C9.59863 8.38306 9.96191 8.98071 9.96191 9.75415C9.96191 10.6097 9.48145 11.2308 8.60254 11.2308H8.32129C7.93457 11.2308 7.67676 11.4769 7.67676 11.8636C7.67676 12.2503 7.93457 12.473 8.32129 12.473H8.62598C9.62207 12.473 10.1729 13.0237 10.1729 14.0433C10.1729 14.8519 9.73926 15.5433 8.87207 15.5433C8.0166 15.5433 7.62988 14.969 7.48926 14.43C7.37207 14.055 7.12598 13.8558 6.75098 13.8558C6.29395 13.8558 5.97754 14.137 5.97754 14.594C5.97754 14.805 6.0127 15.0159 6.07129 15.2034C6.41113 16.2933 7.60645 16.9026 8.86035 16.9026ZM14.5908 16.8558C15.0127 16.8558 15.2119 16.68 15.3643 16.2581L18.0479 9.10962C18.1768 8.74634 18.2705 8.46509 18.2705 8.12524C18.2705 7.58618 17.8486 7.2229 17.333 7.2229H13.5479C13.1377 7.2229 12.8682 7.51587 12.8682 7.91431C12.8682 8.31274 13.1377 8.60571 13.5479 8.60571H16.5596V8.71118L13.958 15.4378C13.8525 15.6956 13.8174 15.848 13.8174 16.1292C13.8174 16.469 14.0283 16.8558 14.5908 16.8558Z" fill="black" fill-opacity="0.85"/>
</g>
<defs>
<clipPath id="clip0_2207_27306">
<rect width="23.9062" height="23.918" fill="white" transform="translate(0.0712891 0.00415039)"/>
</clipPath>
</defs>
</svg>
