<svg width="24" height="24" viewBox="0 0 24 24" fill="none" xmlns="http://www.w3.org/2000/svg">
<g clip-path="url(#clip0_2207_27331)">
<path d="M12.0351 23.9104C18.5742 23.9104 23.9882 18.4846 23.9882 11.9573C23.9882 5.41821 18.5625 0.00415039 12.0234 0.00415039C5.49609 0.00415039 0.0820312 5.41821 0.0820312 11.9573C0.0820312 18.4846 5.50781 23.9104 12.0351 23.9104Z" fill="black" fill-opacity="0.85"/>
<path d="M8.23828 17.0549C6.9375 17.0549 5.70703 16.4338 5.35547 15.3088C5.29687 15.1096 5.26172 14.8986 5.26172 14.676C5.26172 14.2072 5.58984 13.9143 6.05859 13.9143C6.44531 13.9143 6.70312 14.1135 6.82031 14.5119C6.97265 15.0627 7.37109 15.6486 8.25 15.6486C9.14062 15.6486 9.57422 14.9338 9.57422 14.1018C9.57422 13.0588 9.02344 12.4963 7.99219 12.4963H7.6875C7.27734 12.4963 7.01953 12.2619 7.01953 11.8635C7.01953 11.465 7.27734 11.2072 7.6875 11.2072H7.96875C8.87109 11.2072 9.36328 10.5627 9.36328 9.68384C9.36328 8.88696 9 8.27759 8.19141 8.27759C7.51172 8.27759 7.125 8.7229 6.94922 9.43774C6.82031 9.85962 6.58594 10.0119 6.16406 10.0119C5.68359 10.0119 5.41406 9.69556 5.41406 9.29712C5.41406 9.08618 5.44922 8.87524 5.50781 8.64087C5.85937 7.57446 6.9375 6.87134 8.19141 6.87134C9.77344 6.87134 11.0156 7.82056 11.0156 9.49634C11.0156 10.5041 10.4882 11.4885 9.38672 11.7814V11.8166C10.4179 11.9221 11.3086 12.6603 11.3086 14.1603C11.3086 15.965 9.97265 17.0549 8.23828 17.0549ZM15.7148 17.0549C13.9453 17.0549 12.5859 16.0002 12.5859 14.2072C12.5859 12.8947 13.3711 11.9455 14.4023 11.7111V11.676C13.6289 11.4416 12.8672 10.715 12.8672 9.48462C12.8672 7.7854 14.2148 6.87134 15.7148 6.87134C17.414 6.87134 18.5742 7.92603 18.5742 9.49634C18.5742 10.6447 17.8593 11.4299 17.0508 11.676V11.7111C18.0234 11.9338 18.8554 12.883 18.8554 14.2072C18.8554 15.8596 17.6367 17.0549 15.7148 17.0549ZM15.7148 11.1252C16.4882 11.1252 16.875 10.4572 16.875 9.6604C16.875 8.88696 16.5 8.17212 15.7148 8.17212C14.9648 8.17212 14.5547 8.88696 14.5547 9.6604C14.5547 10.3752 14.9531 11.1252 15.7148 11.1252ZM15.7148 15.7424C16.6054 15.7424 17.039 14.9572 17.039 14.0666C17.039 13.1525 16.582 12.426 15.7148 12.426C14.8476 12.426 14.414 13.1994 14.414 14.0666C14.414 14.9572 14.8476 15.7424 15.7148 15.7424Z" fill="white"/>
</g>
<defs>
<clipPath id="clip0_2207_27331">
<rect width="23.9062" height="23.918" fill="white" transform="translate(0.0820312 0.00415039)"/>
</clipPath>
</defs>
</svg>
