<svg width="22" height="22" viewBox="0 0 22 22" fill="none" xmlns="http://www.w3.org/2000/svg">
<g clip-path="url(#clip0_2207_27341)">
<path d="M3.76587 21.6019H17.9807C20.4417 21.6019 21.6604 20.3831 21.6604 17.969V3.6604C21.6604 1.24634 20.4417 0.0275879 17.9807 0.0275879H3.76587C1.31665 0.0275879 0.0861816 1.23462 0.0861816 3.6604V17.969C0.0861816 20.3948 1.31665 21.6019 3.76587 21.6019Z" fill="black" fill-opacity="0.85"/>
<path d="M7.08227 15.8948C5.78149 15.8948 4.55102 15.2737 4.19946 14.1487C4.14087 13.9495 4.11743 13.7386 4.11743 13.5159C4.11743 13.0472 4.43384 12.7542 4.90259 12.7542C5.2893 12.7542 5.55884 12.9534 5.6643 13.3519C5.81665 13.9026 6.21509 14.4886 7.09399 14.4886C7.98462 14.4886 8.42993 13.7737 8.42993 12.9417C8.42993 11.8987 7.86743 11.3362 6.83618 11.3362H6.54321C6.13306 11.3362 5.86352 11.1019 5.86352 10.7034C5.86352 10.305 6.12134 10.0472 6.54321 10.0472H6.82446C7.71509 10.0472 8.20727 9.40259 8.20727 8.52368C8.20727 7.72681 7.84399 7.11743 7.04712 7.11743C6.35571 7.11743 5.98071 7.56274 5.79321 8.27759C5.6643 8.69946 5.42993 8.85181 5.00806 8.85181C4.5393 8.85181 4.26977 8.5354 4.26977 8.13696C4.26977 7.92603 4.29321 7.71509 4.3518 7.48071C4.70337 6.41431 5.78149 5.71118 7.04712 5.71118C8.61743 5.71118 9.85962 6.6604 9.85962 8.33618C9.85962 9.34399 9.33227 10.3284 8.24243 10.6214V10.6565C9.26196 10.762 10.1526 11.5003 10.1526 13.0003C10.1526 14.805 8.81665 15.8948 7.08227 15.8948ZM14.5589 15.8948C12.7893 15.8948 11.43 14.8401 11.43 13.0472C11.43 11.7347 12.2151 10.7854 13.2464 10.5511V10.5159C12.4729 10.2815 11.7112 9.55493 11.7112 8.32446C11.7112 6.62524 13.0706 5.71118 14.5589 5.71118C16.2581 5.71118 17.4182 6.76587 17.4182 8.33618C17.4182 9.48462 16.7034 10.2698 15.8948 10.5159V10.5511C16.8674 10.7737 17.6995 11.723 17.6995 13.0472C17.6995 14.6995 16.4807 15.8948 14.5589 15.8948ZM14.5706 9.96509C15.3323 9.96509 15.719 9.29712 15.719 8.50024C15.719 7.72681 15.344 7.01196 14.5706 7.01196C13.8206 7.01196 13.3987 7.72681 13.3987 8.50024C13.3987 9.21509 13.7971 9.96509 14.5706 9.96509ZM14.5706 14.5823C15.4495 14.5823 15.8831 13.7972 15.8831 12.9065C15.8831 11.9925 15.426 11.2659 14.5706 11.2659C13.6917 11.2659 13.2581 12.0394 13.2581 12.9065C13.2581 13.7972 13.6917 14.5823 14.5706 14.5823Z" fill="white"/>
</g>
<defs>
<clipPath id="clip0_2207_27341">
<rect width="21.5742" height="21.5977" fill="white" transform="translate(0.0861816 0.00415039)"/>
</clipPath>
</defs>
</svg>
