<svg width="24" height="24" viewBox="0 0 24 24" fill="none" xmlns="http://www.w3.org/2000/svg">
<g clip-path="url(#clip0_2207_27346)">
<path d="M12.0412 23.9104C18.5803 23.9104 23.9943 18.4846 23.9943 11.9573C23.9943 5.41821 18.5686 0.00415039 12.0295 0.00415039C5.50219 0.00415039 0.0881348 5.41821 0.0881348 11.9573C0.0881348 18.4846 5.51392 23.9104 12.0412 23.9104ZM12.0412 21.9183C6.51002 21.9183 2.09204 17.4886 2.09204 11.9573C2.09204 6.42603 6.49829 1.99634 12.0295 1.99634C17.5608 1.99634 22.0022 6.42603 22.0022 11.9573C22.0022 17.4886 17.5725 21.9183 12.0412 21.9183Z" fill="black" fill-opacity="0.85"/>
<path d="M8.36158 16.9026C10.0374 16.9026 11.3264 15.848 11.3264 14.0901C11.3264 12.637 10.4592 11.9222 9.47486 11.8167V11.7815C10.5295 11.5003 11.0451 10.5511 11.0451 9.56665C11.0451 7.94946 9.83814 7.02368 8.3147 7.02368C7.09595 7.02368 6.05298 7.70337 5.71314 8.74634C5.65455 8.96899 5.63111 9.17993 5.63111 9.37915C5.63111 9.76587 5.88892 10.0706 6.34595 10.0706C6.74439 10.0706 6.97876 9.91821 7.09595 9.50806C7.28345 8.81665 7.64673 8.38306 8.3147 8.38306C9.08814 8.38306 9.45142 8.98071 9.45142 9.75415C9.45142 10.6097 8.98267 11.2308 8.10376 11.2308H7.82252C7.42408 11.2308 7.17798 11.4769 7.17798 11.8636C7.17798 12.2503 7.4358 12.473 7.82252 12.473H8.11548C9.11158 12.473 9.66236 13.0237 9.66236 14.0433C9.66236 14.8519 9.22876 15.5433 8.36158 15.5433C7.50611 15.5433 7.11939 14.969 6.97876 14.43C6.8733 14.055 6.61548 13.8558 6.24048 13.8558C5.78345 13.8558 5.47876 14.137 5.47876 14.594C5.47876 14.805 5.51392 15.0159 5.57252 15.2034C5.90064 16.2933 7.09595 16.9026 8.36158 16.9026ZM14.8537 13.4222C15.8029 13.4222 16.5178 12.7894 16.7873 11.7815H16.8342C16.8342 11.8284 16.8342 11.8753 16.8342 11.9104C16.8342 13.2112 16.6701 15.555 15.3576 15.555C14.8303 15.555 14.4787 15.1917 14.2678 14.6878C14.1037 14.3011 13.8693 14.1487 13.5178 14.1487C13.0256 14.1487 12.8147 14.4769 12.8147 14.8636C12.8147 15.0042 12.8498 15.1448 12.885 15.2854C13.1428 16.305 14.1506 16.9261 15.3342 16.9261C17.7365 16.9261 18.4279 14.2659 18.4279 11.8636C18.4279 9.64868 17.7248 7.00024 15.3459 7.00024C13.5647 7.00024 12.5334 8.50024 12.5334 10.3401C12.5334 11.9222 13.2951 13.4222 14.8537 13.4222ZM15.3693 12.1331C14.5022 12.1331 14.1506 11.137 14.1506 10.2698C14.1506 9.39087 14.549 8.35962 15.3693 8.35962C16.2483 8.35962 16.6115 9.39087 16.6115 10.2698C16.6115 11.1722 16.2131 12.1331 15.3693 12.1331Z" fill="black" fill-opacity="0.85"/>
</g>
<defs>
<clipPath id="clip0_2207_27346">
<rect width="23.9062" height="23.918" fill="white" transform="translate(0.0881348 0.00415039)"/>
</clipPath>
</defs>
</svg>
