<svg width="24" height="24" viewBox="0 0 24 24" fill="none" xmlns="http://www.w3.org/2000/svg">
<g clip-path="url(#clip0_2207_27351)">
<path d="M12.0434 23.9104C18.5825 23.9104 23.9965 18.4846 23.9965 11.9573C23.9965 5.41821 18.5708 0.00415039 12.0317 0.00415039C5.50439 0.00415039 0.090332 5.41821 0.090332 11.9573C0.090332 18.4846 5.51611 23.9104 12.0434 23.9104Z" fill="black" fill-opacity="0.85"/>
<path d="M8.2583 17.055C6.95752 17.055 5.71533 16.4339 5.37549 15.3089C5.31689 15.1097 5.28174 14.8987 5.28174 14.6761C5.28174 14.2073 5.59814 13.9144 6.07861 13.9144C6.46533 13.9144 6.72314 14.1136 6.84033 14.512C6.98095 15.0628 7.37939 15.6487 8.2583 15.6487C9.14892 15.6487 9.59424 14.9339 9.59424 14.1019C9.59424 13.0589 9.03174 12.4964 8.00049 12.4964H7.70752C7.30908 12.4964 7.03955 12.262 7.03955 11.8636C7.03955 11.4651 7.29736 11.2073 7.70752 11.2073H7.98877C8.90283 11.2073 9.3833 10.5628 9.3833 9.68384C9.3833 8.88696 9.0083 8.27759 8.21142 8.27759C7.52002 8.27759 7.15674 8.7229 6.95752 9.43774C6.84033 9.85962 6.59424 10.012 6.18408 10.012C5.70361 10.012 5.4458 9.69556 5.4458 9.29712C5.4458 9.08618 5.46924 8.87524 5.52783 8.64087C5.87939 7.57446 6.95752 6.87134 8.21142 6.87134C9.78174 6.87134 11.0356 7.82056 11.0356 9.49634C11.0356 10.5042 10.4965 11.4886 9.40674 11.7815V11.8167C10.4262 11.9222 11.3169 12.6604 11.3169 14.1604C11.3169 15.9651 9.99267 17.055 8.2583 17.055ZM14.9614 13.469C13.3559 13.469 12.5708 11.9222 12.5708 10.2933C12.5708 8.39477 13.6255 6.8479 15.4653 6.8479C17.9262 6.8479 18.6528 9.57837 18.6528 11.8636C18.6528 14.3362 17.938 17.0784 15.4536 17.0784C14.2348 17.0784 13.1919 16.4455 12.9341 15.3909C12.8872 15.2502 12.852 15.098 12.852 14.9573C12.852 14.5589 13.0747 14.219 13.5903 14.219C13.9536 14.219 14.188 14.3714 14.3637 14.7698C14.5747 15.2854 14.938 15.6604 15.477 15.6604C16.8364 15.6604 17.0005 13.2464 17.0005 11.9104C17.0005 11.8753 17.0005 11.8284 17.0005 11.7815H16.9536C16.6723 12.8128 15.9341 13.469 14.9614 13.469ZM15.4887 12.133C16.3559 12.133 16.7661 11.1487 16.7661 10.2112C16.7661 9.30884 16.4028 8.26587 15.4887 8.26587C14.6567 8.26587 14.2465 9.30884 14.2465 10.2112C14.2465 11.1019 14.5981 12.133 15.4887 12.133Z" fill="white"/>
</g>
<defs>
<clipPath id="clip0_2207_27351">
<rect width="23.9062" height="23.918" fill="white" transform="translate(0.090332 0.00415039)"/>
</clipPath>
</defs>
</svg>
