<svg width="25" height="24" viewBox="0 0 25 24" fill="none" xmlns="http://www.w3.org/2000/svg">
<g clip-path="url(#clip0_2207_26406)">
<path d="M12.0498 23.9104C18.5889 23.9104 24.0029 18.4846 24.0029 11.9573C24.0029 5.41821 18.5772 0.00415039 12.0381 0.00415039C5.51074 0.00415039 0.0966797 5.41821 0.0966797 11.9573C0.0966797 18.4846 5.52246 23.9104 12.0498 23.9104ZM12.0498 21.9183C6.51856 21.9183 2.10059 17.4886 2.10059 11.9573C2.10059 6.42603 6.50684 1.99634 12.0381 1.99634C17.5694 1.99634 22.0108 6.42603 22.0108 11.9573C22.0108 17.4886 17.5811 21.9183 12.0498 21.9183Z" fill="black" fill-opacity="0.85"/>
<path d="M7.57324 14.1252C7.57324 14.7111 7.95996 15.0979 8.60449 15.0979H13.0108V16.551C13.0108 17.1721 13.3272 17.5353 13.8545 17.5353C14.417 17.5353 14.7334 17.1838 14.7334 16.551V15.0979H15.5186C16.0342 15.0979 16.3623 14.7814 16.3623 14.2893C16.3623 13.8439 16.0342 13.551 15.5186 13.551H14.7334V11.0197C14.7334 10.3869 14.417 10.0353 13.8545 10.0353C13.3272 10.0353 13.0108 10.3986 13.0108 11.0197V13.551H9.75293C10.8076 11.5822 11.8389 9.80103 12.9287 7.79712C13.0225 7.60962 13.0928 7.43384 13.0928 7.24634C13.0928 6.78931 12.7998 6.39087 12.2608 6.39087C11.8975 6.39087 11.6397 6.56665 11.4287 6.95337C10.1865 9.14477 9.02637 11.1838 7.77246 13.3869C7.63184 13.6213 7.57324 13.8791 7.57324 14.1252Z" fill="black" fill-opacity="0.85"/>
</g>
<defs>
<clipPath id="clip0_2207_26406">
<rect width="23.9062" height="23.918" fill="white" transform="translate(0.0966797 0.00415039)"/>
</clipPath>
</defs>
</svg>
