<svg width="24" height="24" viewBox="0 0 24 24" fill="none" xmlns="http://www.w3.org/2000/svg">
<g clip-path="url(#clip0_2207_26391)">
<path d="M11.9594 23.9118C18.4985 23.9118 23.9125 18.4861 23.9125 11.9587C23.9125 5.41968 18.4868 0.00561523 11.9477 0.00561523C5.42041 0.00561523 0.00634766 5.41968 0.00634766 11.9587C0.00634766 18.4861 5.43213 23.9118 11.9594 23.9118Z" fill="black" fill-opacity="0.85"/>
<path d="M13.5415 17.4665C12.979 17.4665 12.6508 17.0798 12.6508 16.447V15.2165H8.31494C7.54151 15.2165 7.06104 14.7478 7.06104 14.0329C7.06104 13.6697 7.14307 13.3767 7.38916 12.9665C8.38526 11.3376 9.87354 9.13452 11.1274 7.23608C11.6079 6.50952 12.1469 6.20483 12.9907 6.20483C13.8579 6.20483 14.4438 6.72045 14.4438 7.48217V13.6228H15.3696C15.8501 13.6228 16.1665 13.9509 16.1665 14.4314C16.1665 14.9001 15.8383 15.2165 15.3696 15.2165H14.4438V16.447C14.4438 17.0915 14.1157 17.4665 13.5415 17.4665ZM12.6508 13.6228V7.77514H12.5688C11.3032 9.6853 9.76807 11.9704 8.84229 13.5525V13.6228H12.6508Z" fill="white"/>
</g>
<defs>
<clipPath id="clip0_2207_26391">
<rect width="23.9062" height="23.918" fill="white" transform="translate(0.00634766 0.00561523)"/>
</clipPath>
</defs>
</svg>
