<svg width="22" height="22" viewBox="0 0 22 22" fill="none" xmlns="http://www.w3.org/2000/svg">
<g clip-path="url(#clip0_2207_26401)">
<path d="M3.69239 21.6033H17.9072C20.3682 21.6033 21.5869 20.3845 21.5869 17.9704V3.66187C21.5869 1.24781 20.3682 0.0290527 17.9072 0.0290527H3.69239C1.24317 0.0290527 0.0126953 1.23609 0.0126953 3.66187V17.9704C0.0126953 20.3962 1.24317 21.6033 3.69239 21.6033Z" fill="black" fill-opacity="0.85"/>
<path d="M12.3877 16.3064C11.8369 16.3064 11.4971 15.9197 11.4971 15.2868V14.0564H7.16114C6.39942 14.0564 5.90723 13.5876 5.90723 12.8728C5.90723 12.5095 5.98926 12.2165 6.23536 11.8064C7.23145 10.1775 8.71973 7.97437 9.98536 6.07593C10.4541 5.34937 10.9932 5.04468 11.8369 5.04468C12.7041 5.04468 13.3018 5.56031 13.3018 6.32203V12.4626H14.2158C14.6963 12.4626 15.0127 12.7908 15.0127 13.2712C15.0127 13.74 14.6846 14.0564 14.2158 14.0564H13.3018V15.2868C13.3018 15.9314 12.9619 16.3064 12.3877 16.3064ZM11.4971 12.4626V6.615H11.415C10.1494 8.52515 8.61426 10.8103 7.68848 12.3923V12.4626H11.4971Z" fill="white"/>
</g>
<defs>
<clipPath id="clip0_2207_26401">
<rect width="21.5742" height="21.5977" fill="white" transform="translate(0.0126953 0.00561523)"/>
</clipPath>
</defs>
</svg>
