<svg width="24" height="24" viewBox="0 0 24 24" fill="none" xmlns="http://www.w3.org/2000/svg">
<g clip-path="url(#clip0_2207_27366)">
<path d="M11.9677 23.9118C18.5068 23.9118 23.9208 18.4861 23.9208 11.9587C23.9208 5.41968 18.4951 0.00561523 11.956 0.00561523C5.42871 0.00561523 0.0146484 5.41968 0.0146484 11.9587C0.0146484 18.4861 5.44043 23.9118 11.9677 23.9118ZM11.9677 21.9197C6.43653 21.9197 2.01856 17.49 2.01856 11.9587C2.01856 6.4275 6.42481 1.99781 11.956 1.99781C17.4873 1.99781 21.9287 6.4275 21.9287 11.9587C21.9287 17.49 17.499 21.9197 11.9677 21.9197Z" fill="black" fill-opacity="0.85"/>
<path d="M9.2959 16.8454C9.72949 16.8454 10.0927 16.5759 10.0927 16.0134V14.8415H10.5146C10.9599 14.8415 11.1826 14.5486 11.1826 14.1501C11.1826 13.7751 10.9834 13.4822 10.5146 13.4822H10.0927V8.33764C10.0927 7.52905 9.56543 7.07202 8.80371 7.07202C7.97168 7.07202 7.58496 7.49389 7.25684 8.22045L5.15918 12.7673C4.97168 13.2244 4.90137 13.529 4.90137 13.8923C4.90137 14.4548 5.28809 14.8415 5.86231 14.8415H8.48731V16.0134C8.48731 16.6345 8.9209 16.8454 9.2959 16.8454ZM8.52246 13.5173H6.34277V13.4353L8.47559 8.54858H8.52246V13.5173ZM15.413 16.9392C17.7451 16.9392 18.4482 14.3142 18.4482 11.9587C18.4482 9.60327 17.7451 6.97827 15.413 6.97827C13.081 6.97827 12.3779 9.60327 12.3779 11.9587C12.3779 14.3142 13.081 16.9392 15.413 16.9392ZM15.413 15.5447C14.4521 15.5447 14.0888 13.9861 14.0888 11.9587C14.0888 9.91967 14.4521 8.36108 15.413 8.36108C16.374 8.36108 16.7373 9.91967 16.7373 11.9587C16.7373 13.9861 16.374 15.5447 15.413 15.5447Z" fill="black" fill-opacity="0.85"/>
</g>
<defs>
<clipPath id="clip0_2207_27366">
<rect width="23.9062" height="23.918" fill="white" transform="translate(0.0146484 0.00561523)"/>
</clipPath>
</defs>
</svg>
