<svg width="22" height="22" viewBox="0 0 22 22" fill="none" xmlns="http://www.w3.org/2000/svg">
<g clip-path="url(#clip0_2207_27376)">
<path d="M3.69849 21.6033H17.9133C20.3743 21.6033 21.593 20.3845 21.593 17.9704V3.66187C21.593 1.24781 20.3743 0.0290527 17.9133 0.0290527H3.69849C1.24927 0.0290527 0.0187988 1.23609 0.0187988 3.66187V17.9704C0.0187988 20.3962 1.24927 21.6033 3.69849 21.6033ZM3.72192 19.7165C2.55005 19.7165 1.90552 19.0954 1.90552 17.8767V3.75562C1.90552 2.53687 2.55005 1.91578 3.72192 1.91578H17.8899C19.05 1.91578 19.7063 2.53687 19.7063 3.75562V17.8767C19.7063 19.0954 19.05 19.7165 17.8899 19.7165H3.72192Z" fill="black" fill-opacity="0.85"/>
<path d="M8.15161 15.6853C8.59692 15.6853 8.94849 15.4158 8.94849 14.8533V13.6814H9.37036C9.82739 13.6814 10.0383 13.3884 10.0383 12.99C10.0383 12.615 9.83911 12.322 9.37036 12.322H8.94849V7.1775C8.94849 6.36889 8.42114 5.91187 7.65942 5.91187C6.82739 5.91187 6.44068 6.33374 6.11255 7.06031L4.02661 11.6072C3.82739 12.0642 3.75708 12.3689 3.75708 12.7322C3.75708 13.2947 4.1438 13.6814 4.71802 13.6814H7.34302V14.8533C7.34302 15.4744 7.77661 15.6853 8.15161 15.6853ZM7.37818 12.3572H5.19849V12.2751L7.3313 7.38843H7.37818V12.3572ZM14.2688 15.779C16.6008 15.779 17.304 13.154 17.304 10.7986C17.304 8.44312 16.6008 5.81812 14.2688 5.81812C11.9368 5.81812 11.2336 8.44312 11.2336 10.7986C11.2336 13.154 11.9368 15.779 14.2688 15.779ZM14.2688 14.3845C13.3079 14.3845 12.9446 12.8259 12.9446 10.7986C12.9446 8.75953 13.3079 7.20093 14.2688 7.20093C15.2297 7.20093 15.593 8.75953 15.593 10.7986C15.593 12.8259 15.2297 14.3845 14.2688 14.3845Z" fill="black" fill-opacity="0.85"/>
</g>
<defs>
<clipPath id="clip0_2207_27376">
<rect width="21.5742" height="21.5977" fill="white" transform="translate(0.0187988 0.00561523)"/>
</clipPath>
</defs>
</svg>
