<svg width="22" height="22" viewBox="0 0 22 22" fill="none" xmlns="http://www.w3.org/2000/svg">
<g clip-path="url(#clip0_2207_27396)">
<path d="M3.70703 21.6033H17.9218C20.3828 21.6033 21.6015 20.3845 21.6015 17.9704V3.66187C21.6015 1.24781 20.3828 0.0290527 17.9218 0.0290527H3.70703C1.25781 0.0290527 0.0273438 1.23609 0.0273438 3.66187V17.9704C0.0273438 20.3962 1.25781 21.6033 3.70703 21.6033ZM3.73046 19.7165C2.55859 19.7165 1.91406 19.0954 1.91406 17.8767V3.75562C1.91406 2.53687 2.55859 1.91578 3.73046 1.91578H17.8984C19.0585 1.91578 19.7148 2.53687 19.7148 3.75562V17.8767C19.7148 19.0954 19.0585 19.7165 17.8984 19.7165H3.73046Z" fill="black" fill-opacity="0.85"/>
<path d="M9.02734 15.6853C9.46093 15.6853 9.82422 15.4158 9.82422 14.8533V13.6814H10.2461C10.6914 13.6814 10.9023 13.3884 10.9023 12.99C10.9023 12.615 10.7148 12.322 10.2461 12.322H9.82422V7.1775C9.82422 6.36889 9.29687 5.91187 8.52343 5.91187C7.70312 5.91187 7.3164 6.33374 6.98828 7.06031L4.89062 11.6072C4.6914 12.0642 4.63281 12.3689 4.63281 12.7322C4.63281 13.2947 5.01953 13.6814 5.59375 13.6814H8.21875V14.8533C8.21875 15.4744 8.65234 15.6853 9.02734 15.6853ZM8.2539 12.3572H6.07422V12.2751L8.20703 7.38843H8.2539V12.3572ZM14.7226 15.6618C15.1796 15.6618 15.5664 15.2751 15.5664 14.8064V6.86109C15.5664 6.26343 15.1914 5.91187 14.582 5.91187C14.0898 5.91187 13.6914 6.1814 13.4218 6.39234L12.1328 7.38843C11.9218 7.5525 11.7578 7.77514 11.7578 8.07983C11.7578 8.44311 12.0039 8.70092 12.3671 8.70092C12.5429 8.70092 12.6601 8.64234 12.7773 8.56031L13.8554 7.69312V14.8064C13.8554 15.2751 14.2421 15.6618 14.7226 15.6618Z" fill="black" fill-opacity="0.85"/>
</g>
<defs>
<clipPath id="clip0_2207_27396">
<rect width="21.5742" height="21.5977" fill="white" transform="translate(0.0273438 0.00561523)"/>
</clipPath>
</defs>
</svg>
