<svg width="22" height="22" viewBox="0 0 22 22" fill="none" xmlns="http://www.w3.org/2000/svg">
<g clip-path="url(#clip0_2207_27401)">
<path d="M3.70911 21.6033H17.9239C20.3849 21.6033 21.6036 20.3845 21.6036 17.9704V3.66187C21.6036 1.24781 20.3849 0.0290527 17.9239 0.0290527H3.70911C1.25989 0.0290527 0.0294189 1.23609 0.0294189 3.66187V17.9704C0.0294189 20.3962 1.25989 21.6033 3.70911 21.6033Z" fill="black" fill-opacity="0.85"/>
<path d="M8.99426 15.8376C8.60754 15.8376 8.15051 15.615 8.15051 14.9822V13.7751H5.4552C4.85754 13.7751 4.45911 13.3767 4.45911 12.7908C4.45911 12.4158 4.5177 12.0994 4.72864 11.6306L6.88489 6.94311C7.22473 6.19311 7.62317 5.75952 8.46692 5.75952C9.27551 5.75952 9.81458 6.22827 9.81458 7.07202V12.3689H10.2482C10.7403 12.3689 10.9278 12.6736 10.9278 13.0603C10.9278 13.4704 10.7169 13.7751 10.2482 13.7751H9.81458V14.9822C9.81458 15.5564 9.43958 15.8376 8.99426 15.8376ZM8.18567 12.404V7.28295H8.1388L5.94739 12.322V12.404H8.18567ZM14.8771 15.8142C14.3732 15.8142 13.9747 15.4158 13.9747 14.9236V7.59936L12.8614 8.48999C12.7442 8.58373 12.6271 8.64233 12.4396 8.64233C12.0646 8.64233 11.8067 8.3728 11.8067 7.9978C11.8067 7.68139 11.9825 7.44702 12.1935 7.28295L13.5294 6.2517C13.7989 6.04077 14.2208 5.75952 14.7247 5.75952C15.3575 5.75952 15.7442 6.1228 15.7442 6.74389V14.9236C15.7442 15.4158 15.3458 15.8142 14.8771 15.8142Z" fill="white"/>
</g>
<defs>
<clipPath id="clip0_2207_27401">
<rect width="21.5742" height="21.5977" fill="white" transform="translate(0.0294189 0.00561523)"/>
</clipPath>
</defs>
</svg>
