<svg width="24" height="24" viewBox="0 0 24 24" fill="none" xmlns="http://www.w3.org/2000/svg">
<g clip-path="url(#clip0_2207_27411)">
<path d="M11.9867 23.9118C18.5258 23.9118 23.9398 18.4861 23.9398 11.9587C23.9398 5.41968 18.5141 0.00561523 11.975 0.00561523C5.44763 0.00561523 0.0335693 5.41968 0.0335693 11.9587C0.0335693 18.4861 5.45935 23.9118 11.9867 23.9118Z" fill="black" fill-opacity="0.85"/>
<path d="M9.46716 16.9978C9.09216 16.9978 8.63513 16.7868 8.63513 16.1423V14.9353H5.9281C5.33045 14.9353 4.93201 14.5368 4.93201 13.9509C4.93201 13.5759 5.00232 13.2595 5.21326 12.7908L7.35779 8.115C7.69763 7.35328 8.09607 6.91968 8.96326 6.91968C9.74841 6.91968 10.2992 7.40015 10.2992 8.23218V13.529H10.7328C11.2133 13.529 11.4242 13.8337 11.4242 14.2204C11.4242 14.6306 11.2016 14.9353 10.7328 14.9353H10.2992V16.1423C10.2992 16.7165 9.93591 16.9978 9.46716 16.9978ZM8.67029 13.5642V8.44312H8.62341L6.43201 13.4822V13.5642H8.67029ZM13.4281 16.8454C12.8656 16.8454 12.6078 16.5525 12.6078 16.1423C12.6078 15.7673 12.8305 15.4626 13.0648 15.1697L15.1508 12.4978C15.7836 11.6775 16.4633 10.6931 16.4633 9.72046C16.4633 8.865 16.0531 8.23218 15.3383 8.23218C14.6469 8.23218 14.3539 8.73609 14.1195 9.54468C14.0024 9.94312 13.7563 10.1306 13.3578 10.1306C12.8774 10.1306 12.6313 9.81421 12.6313 9.35718C12.6313 8.10328 13.8031 6.82593 15.35 6.82593C17.0141 6.82593 18.1274 8.00953 18.1274 9.63843C18.1274 10.7048 17.7289 11.5954 16.5102 13.0954L14.7641 15.322V15.4275H17.6234C18.0336 15.4275 18.3148 15.6736 18.3148 16.1423C18.3148 16.5642 18.0453 16.8454 17.6234 16.8454H13.4281Z" fill="white"/>
</g>
<defs>
<clipPath id="clip0_2207_27411">
<rect width="23.9062" height="23.918" fill="white" transform="translate(0.0335693 0.00561523)"/>
</clipPath>
</defs>
</svg>
