<svg width="24" height="24" viewBox="0 0 24 24" fill="none" xmlns="http://www.w3.org/2000/svg">
<g clip-path="url(#clip0_2207_27406)">
<path d="M11.9846 23.9118C18.5237 23.9118 23.9377 18.4861 23.9377 11.9587C23.9377 5.41968 18.512 0.00561523 11.9729 0.00561523C5.44555 0.00561523 0.0314941 5.41968 0.0314941 11.9587C0.0314941 18.4861 5.45727 23.9118 11.9846 23.9118ZM11.9846 21.9197C6.45337 21.9197 2.0354 17.49 2.0354 11.9587C2.0354 6.4275 6.44165 1.99781 11.9729 1.99781C17.5042 1.99781 21.9456 6.4275 21.9456 11.9587C21.9456 17.49 17.5159 21.9197 11.9846 21.9197Z" fill="black" fill-opacity="0.85"/>
<path d="M9.52368 16.8454C9.96899 16.8454 10.3206 16.5759 10.3206 16.0134V14.8415H10.7424C11.1995 14.8415 11.4104 14.5486 11.4104 14.1501C11.4104 13.7751 11.2112 13.4822 10.7424 13.4822H10.3206V8.33764C10.3206 7.52905 9.79321 7.07202 9.03149 7.07202C8.19946 7.07202 7.81274 7.49389 7.48461 8.22045L5.39868 12.7673C5.19946 13.2244 5.12915 13.529 5.12915 13.8923C5.12915 14.4548 5.51587 14.8415 6.09008 14.8415H8.71508V16.0134C8.71508 16.6345 9.1604 16.8454 9.52368 16.8454ZM8.75024 13.5173H6.57055V13.4353L8.70337 8.54858H8.75024V13.5173ZM13.3557 16.6931H17.4221C17.8323 16.6931 18.0901 16.4236 18.0901 16.0134C18.0901 15.5681 17.8206 15.322 17.4221 15.322H14.6448V15.2283L16.344 13.0603C17.5276 11.6072 17.9143 10.74 17.9143 9.70873C17.9143 8.1267 16.8362 6.97827 15.219 6.97827C13.719 6.97827 12.5823 8.22045 12.5823 9.4392C12.5823 9.8728 12.8284 10.1775 13.2854 10.1775C13.6721 10.1775 13.9065 10.0017 14.0237 9.61499C14.2463 8.82983 14.5393 8.33764 15.2073 8.33764C15.9104 8.33764 16.3088 8.95873 16.3088 9.79077C16.3088 10.7283 15.6526 11.6775 15.0315 12.4744L13.0042 15.0759C12.7815 15.3572 12.5588 15.6501 12.5588 16.0134C12.5588 16.4118 12.8167 16.6931 13.3557 16.6931Z" fill="black" fill-opacity="0.85"/>
</g>
<defs>
<clipPath id="clip0_2207_27406">
<rect width="23.9062" height="23.918" fill="white" transform="translate(0.0314941 0.00561523)"/>
</clipPath>
</defs>
</svg>
