<svg width="22" height="22" viewBox="0 0 22 22" fill="none" xmlns="http://www.w3.org/2000/svg">
<g clip-path="url(#clip0_2207_27421)">
<path d="M3.71753 21.6033H17.9323C20.3933 21.6033 21.612 20.3845 21.612 17.9704V3.66187C21.612 1.24781 20.3933 0.0290527 17.9323 0.0290527H3.71753C1.26831 0.0290527 0.0378418 1.23609 0.0378418 3.66187V17.9704C0.0378418 20.3962 1.26831 21.6033 3.71753 21.6033Z" fill="black" fill-opacity="0.85"/>
<path d="M8.323 15.8376C7.93628 15.8376 7.47925 15.6267 7.47925 14.9822V13.7751H4.77222C4.18628 13.7751 3.77612 13.3767 3.77612 12.7908C3.77612 12.4158 3.84643 12.0994 4.05737 11.6306L6.21362 6.95483C6.55346 6.19311 6.9519 5.75952 7.80737 5.75952C8.59253 5.75952 9.15503 6.23999 9.15503 7.07202V12.3689H9.5769C10.0573 12.3689 10.2683 12.6736 10.2683 13.0603C10.2683 13.4704 10.0456 13.7751 9.5769 13.7751H9.15503V14.9822C9.15503 15.5564 8.78003 15.8376 8.323 15.8376ZM7.5144 12.404V7.28295H7.46753L5.27612 12.322V12.404H7.5144ZM12.2722 15.6853C11.7097 15.6853 11.4636 15.3923 11.4636 14.9822C11.4636 14.6072 11.6745 14.3025 11.9089 14.0095L13.9948 11.3376C14.6394 10.5173 15.3073 9.53295 15.3073 8.5603C15.3073 7.70483 14.9089 7.07202 14.1823 7.07202C13.4909 7.07202 13.198 7.57592 12.9636 8.38452C12.8464 8.78295 12.6003 8.97045 12.2019 8.97045C11.7331 8.97045 11.4753 8.65405 11.4753 8.19702C11.4753 6.94311 12.6472 5.66577 14.194 5.66577C15.8581 5.66577 16.9714 6.84936 16.9714 8.47827C16.9714 9.54467 16.573 10.4353 15.3659 11.9353L13.6081 14.1618V14.2673H16.4675C16.8776 14.2673 17.1589 14.5134 17.1589 14.9822C17.1589 15.404 16.8894 15.6853 16.4675 15.6853H12.2722Z" fill="white"/>
</g>
<defs>
<clipPath id="clip0_2207_27421">
<rect width="21.5742" height="21.5977" fill="white" transform="translate(0.0378418 0.00561523)"/>
</clipPath>
</defs>
</svg>
