<svg width="24" height="24" viewBox="0 0 24 24" fill="none" xmlns="http://www.w3.org/2000/svg">
<g clip-path="url(#clip0_2207_27451)">
<path d="M12.0035 23.9118C18.5426 23.9118 23.9566 18.4861 23.9566 11.9587C23.9566 5.41968 18.5309 0.00561523 11.9918 0.00561523C5.46447 0.00561523 0.050415 5.41968 0.050415 11.9587C0.050415 18.4861 5.4762 23.9118 12.0035 23.9118Z" fill="black" fill-opacity="0.85"/>
<path d="M9.26136 16.9978C8.87464 16.9978 8.41761 16.7751 8.41761 16.1306V14.9353H5.7223C5.12464 14.9353 4.7262 14.5368 4.7262 13.9509C4.7262 13.5759 4.7848 13.2595 4.99573 12.7908L7.15198 8.10328C7.49183 7.35328 7.89026 6.91968 8.74573 6.91968C9.54261 6.91968 10.0934 7.38843 10.0934 8.23218V13.529H10.5152C11.0074 13.529 11.2066 13.8337 11.2066 14.2204C11.2066 14.6306 10.984 14.9353 10.5152 14.9353H10.0934V16.1306C10.0934 16.7165 9.71839 16.9978 9.26136 16.9978ZM8.45276 13.5642V8.44312H8.41761L6.2262 13.4822V13.5642H8.45276ZM16.902 16.9978C16.5035 16.9978 16.0582 16.7751 16.0582 16.1306V14.9353H13.3512C12.7652 14.9353 12.3551 14.5368 12.3551 13.9509C12.3551 13.5759 12.4254 13.2595 12.6246 12.7908L14.7809 8.10328C15.1207 7.35328 15.5192 6.91968 16.3746 6.91968C17.1715 6.91968 17.7223 7.38843 17.7223 8.23218V13.529H18.1559C18.6363 13.529 18.8356 13.8337 18.8356 14.2204C18.8356 14.6306 18.6129 14.9353 18.1559 14.9353H17.7223V16.1306C17.7223 16.7165 17.3473 16.9978 16.902 16.9978ZM16.0816 13.5642V8.44312H16.0465L13.8551 13.4822V13.5642H16.0816Z" fill="white"/>
</g>
<defs>
<clipPath id="clip0_2207_27451">
<rect width="23.9062" height="23.918" fill="white" transform="translate(0.050415 0.00561523)"/>
</clipPath>
</defs>
</svg>
