<svg width="24" height="24" viewBox="0 0 24 24" fill="none" xmlns="http://www.w3.org/2000/svg">
<g clip-path="url(#clip0_2207_27446)">
<path d="M12.0014 23.9118C18.5405 23.9118 23.9545 18.4861 23.9545 11.9587C23.9545 5.41968 18.5288 0.00561523 11.9897 0.00561523C5.4624 0.00561523 0.0483398 5.41968 0.0483398 11.9587C0.0483398 18.4861 5.47412 23.9118 12.0014 23.9118ZM12.0014 21.9197C6.47022 21.9197 2.05225 17.49 2.05225 11.9587C2.05225 6.4275 6.4585 1.99781 11.9897 1.99781C17.521 1.99781 21.9624 6.4275 21.9624 11.9587C21.9624 17.49 17.5327 21.9197 12.0014 21.9197Z" fill="black" fill-opacity="0.85"/>
<path d="M9.32959 16.8454C9.76318 16.8454 10.1264 16.5759 10.1264 16.0134V14.8415H10.5366C10.9936 14.8415 11.2045 14.5486 11.2045 14.1501C11.2045 13.7751 11.0171 13.4822 10.5366 13.4822H10.1264V8.33764C10.1264 7.52905 9.59912 7.07202 8.82568 7.07202C8.00537 7.07202 7.61865 7.49389 7.29053 8.22045L5.19287 12.7673C4.99365 13.2244 4.93506 13.529 4.93506 13.8923C4.93506 14.4548 5.32178 14.8415 5.896 14.8415H8.50928V16.0134C8.50928 16.6345 8.95459 16.8454 9.32959 16.8454ZM8.54443 13.5173H6.37646V13.4353L8.50928 8.54858H8.54443V13.5173ZM16.7241 16.8454C17.1577 16.8454 17.521 16.5759 17.521 16.0134V14.8415H17.9428C18.3881 14.8415 18.5991 14.5486 18.5991 14.1501C18.5991 13.7751 18.4116 13.4822 17.9428 13.4822H17.521V8.33764C17.521 7.52905 16.9936 7.07202 16.2202 7.07202C15.3999 7.07202 15.0131 7.49389 14.685 8.22045L12.5874 12.7673C12.3881 13.2244 12.3295 13.529 12.3295 13.8923C12.3295 14.4548 12.7163 14.8415 13.2905 14.8415H15.9155V16.0134C15.9155 16.6345 16.3491 16.8454 16.7241 16.8454ZM15.9506 13.5173H13.771V13.4353L15.9038 8.54858H15.9506V13.5173Z" fill="black" fill-opacity="0.85"/>
</g>
<defs>
<clipPath id="clip0_2207_27446">
<rect width="23.9062" height="23.918" fill="white" transform="translate(0.0483398 0.00561523)"/>
</clipPath>
</defs>
</svg>
