<svg width="22" height="22" viewBox="0 0 22 22" fill="none" xmlns="http://www.w3.org/2000/svg">
<g clip-path="url(#clip0_2207_27461)">
<path d="M3.73438 21.6033H17.9492C20.4102 21.6033 21.6289 20.3845 21.6289 17.9704V3.66187C21.6289 1.24781 20.4102 0.0290527 17.9492 0.0290527H3.73438C1.28516 0.0290527 0.0546875 1.23609 0.0546875 3.66187V17.9704C0.0546875 20.3962 1.28516 21.6033 3.73438 21.6033Z" fill="black" fill-opacity="0.85"/>
<path d="M8.10547 15.8376C7.71875 15.8376 7.27344 15.615 7.27344 14.9704V13.7751H4.56641C3.96875 13.7751 3.57031 13.3767 3.57031 12.7908C3.57031 12.4158 3.64063 12.0994 3.83985 11.6306L5.9961 6.94311C6.33594 6.19311 6.73438 5.75952 7.58985 5.75952C8.38672 5.75952 8.9375 6.22827 8.9375 7.07202V12.3689H9.3711C9.85157 12.3689 10.0508 12.6736 10.0508 13.0603C10.0508 13.4704 9.82813 13.7751 9.3711 13.7751H8.9375V14.9704C8.9375 15.5564 8.5625 15.8376 8.10547 15.8376ZM7.3086 12.404V7.28295H7.26172L5.07031 12.322V12.404H7.3086ZM15.7461 15.8376C15.3477 15.8376 14.9024 15.615 14.9024 14.9704V13.7751H12.1953C11.6094 13.7751 11.1992 13.3767 11.1992 12.7908C11.1992 12.4158 11.2813 12.0994 11.4688 11.6306L13.625 6.94311C13.9649 6.19311 14.3633 5.75952 15.2188 5.75952C16.0156 5.75952 16.5664 6.22827 16.5664 7.07202V12.3689H17C17.4805 12.3689 17.6797 12.6736 17.6797 13.0603C17.6797 13.4704 17.457 13.7751 17 13.7751H16.5664V14.9704C16.5664 15.5564 16.1914 15.8376 15.7461 15.8376ZM14.9375 12.404V7.28295H14.8906L12.6992 12.322V12.404H14.9375Z" fill="white"/>
</g>
<defs>
<clipPath id="clip0_2207_27461">
<rect width="21.5742" height="21.5977" fill="white" transform="translate(0.0546875 0.00561523)"/>
</clipPath>
</defs>
</svg>
