<svg width="24" height="24" viewBox="0 0 24 24" fill="none" xmlns="http://www.w3.org/2000/svg">
<g clip-path="url(#clip0_2207_27471)">
<path d="M12.0119 23.9118C18.551 23.9118 23.965 18.4861 23.965 11.9587C23.965 5.41968 18.5393 0.00561523 12.0002 0.00561523C5.4729 0.00561523 0.0588379 5.41968 0.0588379 11.9587C0.0588379 18.4861 5.48462 23.9118 12.0119 23.9118Z" fill="black" fill-opacity="0.85"/>
<path d="M9.49243 16.9978C9.11743 16.9978 8.64868 16.7751 8.64868 16.1306V14.9353H5.95337C5.36743 14.9353 4.95728 14.5368 4.95728 13.9509C4.95728 13.5759 5.02759 13.2595 5.23853 12.7908L7.39478 8.10328C7.73462 7.35328 8.13306 6.91968 8.97681 6.91968C9.77367 6.91968 10.3244 7.38843 10.3244 8.23218V13.529H10.7463C11.2385 13.529 11.4377 13.8337 11.4377 14.2204C11.4377 14.6306 11.2268 14.9353 10.7463 14.9353H10.3244V16.1306C10.3244 16.7165 9.94946 16.9978 9.49243 16.9978ZM8.68384 13.5642V8.44312H8.63696L6.44556 13.4822V13.5642H8.68384ZM15.6447 17.0915C14.5666 17.0915 13.4885 16.4587 13.0549 15.4744C12.9611 15.24 12.8908 14.9704 12.8908 14.6892C12.8908 14.2439 13.1721 13.9626 13.6174 13.9626C13.9338 13.9626 14.215 14.1384 14.344 14.5251C14.5666 15.1931 14.9533 15.6736 15.6213 15.6736C16.5119 15.6736 16.8752 14.654 16.8752 13.6462C16.8752 12.7556 16.5354 11.6892 15.6447 11.6892C15.1643 11.6892 14.8596 11.9704 14.59 12.3689C14.3322 12.697 14.1447 12.8259 13.8166 12.8259C13.2541 12.8259 13.008 12.4158 13.008 11.9587C13.008 11.7947 13.0197 11.6072 13.0315 11.4197L13.2307 8.115C13.2776 7.48218 13.5588 7.07203 14.1916 7.07203H17.508C17.9182 7.07203 18.1877 7.38843 18.1877 7.78687C18.1877 8.22046 17.9299 8.50171 17.508 8.50171H14.6721L14.4846 11.4314H14.5432C14.8479 10.74 15.5041 10.4118 16.2072 10.4118C17.7658 10.4118 18.5627 11.9353 18.5627 13.5994C18.5627 15.5095 17.5315 17.0915 15.6447 17.0915Z" fill="white"/>
</g>
<defs>
<clipPath id="clip0_2207_27471">
<rect width="23.9062" height="23.918" fill="white" transform="translate(0.0588379 0.00561523)"/>
</clipPath>
</defs>
</svg>
