<svg width="22" height="22" viewBox="0 0 22 22" fill="none" xmlns="http://www.w3.org/2000/svg">
<g clip-path="url(#clip0_2207_27481)">
<path d="M3.74268 21.6033H17.9575C20.4185 21.6033 21.6372 20.3845 21.6372 17.9704V3.66187C21.6372 1.24781 20.4185 0.0290527 17.9575 0.0290527H3.74268C1.29346 0.0290527 0.0629883 1.23609 0.0629883 3.66187V17.9704C0.0629883 20.3962 1.29346 21.6033 3.74268 21.6033Z" fill="black" fill-opacity="0.85"/>
<path d="M8.34815 15.8376C7.96143 15.8376 7.49268 15.615 7.49268 14.9704V13.7751H4.79737C4.21143 13.7751 3.80127 13.3767 3.80127 12.7908C3.80127 12.4158 3.87158 12.0994 4.08252 11.6306L6.23877 6.94311C6.57861 6.19311 6.97705 5.75952 7.8208 5.75952C8.61768 5.75952 9.16846 6.22827 9.16846 7.07202V12.3689H9.59033C10.0825 12.3689 10.2818 12.6736 10.2818 13.0603C10.2818 13.4704 10.0708 13.7751 9.59033 13.7751H9.16846V14.9704C9.16846 15.5564 8.79346 15.8376 8.34815 15.8376ZM7.52783 12.404V7.28295H7.48096L5.30127 12.322V12.404H7.52783ZM14.4888 15.9314C13.4107 15.9314 12.3325 15.2986 11.8989 14.3142C11.8052 14.0798 11.7349 13.8103 11.7349 13.529C11.7349 13.0837 12.0161 12.8025 12.4614 12.8025C12.7778 12.8025 13.0591 12.9783 13.188 13.365C13.4224 14.0329 13.7974 14.5134 14.4653 14.5134C15.356 14.5134 15.7192 13.4939 15.7192 12.4861C15.7192 11.5954 15.3794 10.529 14.4888 10.529C14.0083 10.529 13.7153 10.8103 13.4341 11.2087C13.1763 11.5368 12.9888 11.6658 12.6607 11.6658C12.0982 11.6658 11.8521 11.2556 11.8521 10.7986C11.8521 10.6345 11.8638 10.447 11.8755 10.2595L12.0747 6.95483C12.1216 6.32202 12.4028 5.91186 13.0474 5.91186H16.3521C16.7622 5.91186 17.0318 6.22827 17.0318 6.6267C17.0318 7.0603 16.7739 7.34155 16.3521 7.34155H13.5278L13.3286 10.2712H13.3872C13.6919 9.57983 14.3482 9.2517 15.063 9.2517C16.6216 9.2517 17.4185 10.7751 17.4185 12.4392C17.4185 14.3494 16.3755 15.9314 14.4888 15.9314Z" fill="white"/>
</g>
<defs>
<clipPath id="clip0_2207_27481">
<rect width="21.5742" height="21.5977" fill="white" transform="translate(0.0629883 0.00561523)"/>
</clipPath>
</defs>
</svg>
