<svg width="24" height="24" viewBox="0 0 24 24" fill="none" xmlns="http://www.w3.org/2000/svg">
<g clip-path="url(#clip0_2207_27486)">
<path d="M12.0183 23.9118C18.5574 23.9118 23.9714 18.4861 23.9714 11.9587C23.9714 5.41968 18.5457 0.00561523 12.0066 0.00561523C5.47925 0.00561523 0.0651855 5.41968 0.0651855 11.9587C0.0651855 18.4861 5.49097 23.9118 12.0183 23.9118ZM12.0183 21.9197C6.48707 21.9197 2.0691 17.49 2.0691 11.9587C2.0691 6.4275 6.47535 1.99781 12.0066 1.99781C17.5379 1.99781 21.9793 6.4275 21.9793 11.9587C21.9793 17.49 17.5496 21.9197 12.0183 21.9197Z" fill="black" fill-opacity="0.85"/>
<path d="M9.33472 16.8454C9.78003 16.8454 10.1433 16.5759 10.1433 16.0134V14.8415H10.5535C11.0105 14.8415 11.2214 14.5486 11.2214 14.1501C11.2214 13.7751 11.0222 13.4822 10.5535 13.4822H10.1433V8.33765C10.1433 7.52906 9.60425 7.07203 8.84253 7.07203C8.02222 7.07203 7.6355 7.4939 7.30738 8.22046L5.20972 12.7673C5.0105 13.2244 4.94019 13.529 4.94019 13.8923C4.94019 14.4548 5.33863 14.8415 5.90113 14.8415H8.52613V16.0134C8.52613 16.6345 8.97144 16.8454 9.33472 16.8454ZM8.56128 13.5173H6.3816V13.4353L8.51441 8.54859H8.56128V13.5173ZM15.5222 16.9392C17.3035 16.9392 18.3347 15.4392 18.3347 13.5994C18.3347 12.0173 17.573 10.5173 16.0144 10.5173C15.0652 10.5173 14.3504 11.1501 14.0808 12.1579H14.034C14.034 12.1111 14.034 12.0642 14.034 12.029C14.034 10.7283 14.198 8.37281 15.4988 8.37281C16.0379 8.37281 16.3894 8.74781 16.5886 9.24C16.7527 9.60328 16.9754 9.76734 17.3621 9.76734C17.8308 9.76734 18.03 9.45093 18.03 9.06421C18.03 8.93531 18.0183 8.79468 17.9714 8.64234C17.7254 7.63453 16.7175 7.00171 15.534 7.00171C13.1316 7.00171 12.4402 9.69703 12.4402 12.0759C12.4402 14.2908 13.1433 16.9392 15.5222 16.9392ZM15.4988 15.5681C14.6082 15.5681 14.2566 14.4665 14.2566 13.6228C14.2566 12.7673 14.655 11.7947 15.4988 11.7947C16.366 11.7947 16.7293 12.8025 16.7058 13.6697C16.7058 14.5251 16.3191 15.5681 15.4988 15.5681Z" fill="black" fill-opacity="0.85"/>
</g>
<defs>
<clipPath id="clip0_2207_27486">
<rect width="23.9062" height="23.918" fill="white" transform="translate(0.0651855 0.00561523)"/>
</clipPath>
</defs>
</svg>
