<svg width="22" height="22" viewBox="0 0 22 22" fill="none" xmlns="http://www.w3.org/2000/svg">
<g clip-path="url(#clip0_2207_27496)">
<path d="M3.74903 21.6033H17.9638C20.4248 21.6033 21.6435 20.3845 21.6435 17.9704V3.66187C21.6435 1.24781 20.4248 0.0290527 17.9638 0.0290527H3.74903C1.29981 0.0290527 0.0693359 1.23609 0.0693359 3.66187V17.9704C0.0693359 20.3962 1.29981 21.6033 3.74903 21.6033ZM3.77246 19.7165C2.60059 19.7165 1.95606 19.0954 1.95606 17.8767V3.75562C1.95606 2.53687 2.60059 1.91578 3.77246 1.91578H17.9404C19.1005 1.91578 19.7568 2.53687 19.7568 3.75562V17.8767C19.7568 19.0954 19.1005 19.7165 17.9404 19.7165H3.77246Z" fill="black" fill-opacity="0.85"/>
<path d="M8.20215 15.6853C8.63575 15.6853 8.99903 15.4158 8.99903 14.8533V13.6814H9.40918C9.86622 13.6814 10.0771 13.3884 10.0771 12.99C10.0771 12.615 9.87793 12.322 9.40918 12.322H8.99903V7.17749C8.99903 6.36889 8.45996 5.91186 7.69825 5.91186C6.87793 5.91186 6.49122 6.33373 6.16309 7.0603L4.06543 11.6072C3.86622 12.0642 3.7959 12.3689 3.7959 12.7322C3.7959 13.2947 4.19434 13.6814 4.76856 13.6814H7.38184V14.8533C7.38184 15.4744 7.82715 15.6853 8.20215 15.6853ZM7.417 12.3572H5.24903V12.2751L7.37012 7.38842H7.417V12.3572ZM14.3779 15.779C16.1709 15.779 17.1904 14.279 17.1904 12.4392C17.1904 10.8572 16.4287 9.35717 14.8701 9.35717C13.9209 9.35717 13.206 9.98999 12.9365 10.9978H12.8896C12.8896 10.9509 12.8896 10.904 12.8896 10.8689C12.8896 9.56811 13.0537 7.21264 14.3545 7.21264C14.8935 7.21264 15.2451 7.58764 15.4443 8.07983C15.6084 8.44311 15.8427 8.60717 16.2177 8.60717C16.6865 8.60717 16.8857 8.29077 16.8857 7.90405C16.8857 7.77514 16.874 7.63452 16.8388 7.48217C16.581 6.47436 15.5732 5.84155 14.4013 5.84155C11.999 5.84155 11.2959 8.53686 11.2959 10.9158C11.2959 13.1306 11.999 15.779 14.3779 15.779ZM14.3545 14.4079C13.4755 14.4079 13.1123 13.3064 13.1123 12.4626C13.1123 11.6072 13.5107 10.6345 14.3545 10.6345C15.2216 10.6345 15.5849 11.6423 15.5615 12.5095C15.5615 13.365 15.1748 14.4079 14.3545 14.4079Z" fill="black" fill-opacity="0.85"/>
</g>
<defs>
<clipPath id="clip0_2207_27496">
<rect width="21.5742" height="21.5977" fill="white" transform="translate(0.0693359 0.00561523)"/>
</clipPath>
</defs>
</svg>
