<svg width="22" height="22" viewBox="0 0 22 22" fill="none" xmlns="http://www.w3.org/2000/svg">
<g clip-path="url(#clip0_2207_27541)">
<path d="M3.76782 21.6033H17.9826C20.4436 21.6033 21.6623 20.3845 21.6623 17.9704V3.66187C21.6623 1.24781 20.4436 0.0290527 17.9826 0.0290527H3.76782C1.3186 0.0290527 0.0881348 1.23609 0.0881348 3.66187V17.9704C0.0881348 20.3962 1.3186 21.6033 3.76782 21.6033Z" fill="black" fill-opacity="0.85"/>
<path d="M8.13892 15.8376C7.7522 15.8376 7.30689 15.615 7.30689 14.9704V13.7751H4.59986C4.01392 13.7751 3.60376 13.3767 3.60376 12.7908C3.60376 12.4158 3.6858 12.0994 3.8733 11.6306L6.02955 6.94312C6.36939 6.19312 6.76783 5.75953 7.6233 5.75953C8.42017 5.75953 8.97095 6.22828 8.97095 7.07203V12.3689H9.40455C9.88502 12.3689 10.0842 12.6736 10.0842 13.0603C10.0842 13.4704 9.86158 13.7751 9.40455 13.7751H8.97095V14.9704C8.97095 15.5564 8.59595 15.8376 8.13892 15.8376ZM7.34205 12.404V7.28296H7.29517L5.10376 12.322V12.404H7.34205ZM14.4319 15.8962C12.6623 15.8962 11.3029 14.8415 11.3029 13.0486C11.3029 11.7361 12.0998 10.7868 13.1311 10.5525V10.5173C12.3576 10.2829 11.5725 9.5564 11.5725 8.32593C11.5725 6.62671 12.9319 5.71265 14.4319 5.71265C16.1428 5.71265 17.3029 6.76734 17.3029 8.33765C17.3029 9.48609 16.5764 10.2712 15.7678 10.5173V10.5525C16.7287 10.7751 17.5725 11.7244 17.5725 13.0486C17.5725 14.7009 16.342 15.8962 14.4319 15.8962ZM14.4319 9.96656C15.1936 9.96656 15.592 9.29859 15.592 8.50171C15.592 7.72828 15.217 7.01343 14.4319 7.01343C13.6819 7.01343 13.2834 7.72828 13.2834 8.50171C13.2834 9.21656 13.6584 9.96656 14.4319 9.96656ZM14.4319 14.5837C15.3225 14.5837 15.7561 13.7986 15.7561 12.9079C15.7561 11.9939 15.2873 11.2673 14.4319 11.2673C13.5647 11.2673 13.1193 12.0408 13.1193 12.9079C13.1193 13.7986 13.5529 14.5837 14.4319 14.5837Z" fill="white"/>
</g>
<defs>
<clipPath id="clip0_2207_27541">
<rect width="21.5742" height="21.5977" fill="white" transform="translate(0.0881348 0.00561523)"/>
</clipPath>
</defs>
</svg>
