<svg width="24" height="24" viewBox="0 0 24 24" fill="none" xmlns="http://www.w3.org/2000/svg">
<g clip-path="url(#clip0_2207_27546)">
<path d="M12.0434 23.9118C18.5825 23.9118 23.9965 18.4861 23.9965 11.9587C23.9965 5.41968 18.5708 0.00561523 12.0317 0.00561523C5.50439 0.00561523 0.090332 5.41968 0.090332 11.9587C0.090332 18.4861 5.51611 23.9118 12.0434 23.9118ZM12.0434 21.9197C6.51221 21.9197 2.09424 17.49 2.09424 11.9587C2.09424 6.4275 6.50049 1.99781 12.0317 1.99781C17.563 1.99781 22.0044 6.4275 22.0044 11.9587C22.0044 17.49 17.5747 21.9197 12.0434 21.9197Z" fill="black" fill-opacity="0.85"/>
<path d="M9.54736 16.8454C9.99267 16.8454 10.3442 16.5759 10.3442 16.0134V14.8415H10.7661C11.2231 14.8415 11.4341 14.5486 11.4341 14.1501C11.4341 13.7751 11.2348 13.4822 10.7661 13.4822H10.3442V8.33765C10.3442 7.52906 9.81689 7.07203 9.05517 7.07203C8.22314 7.07203 7.83642 7.4939 7.5083 8.22046L5.42236 12.7673C5.22314 13.2244 5.15283 13.529 5.15283 13.8923C5.15283 14.4548 5.53955 14.8415 6.11377 14.8415H8.73877V16.0134C8.73877 16.6345 9.18408 16.8454 9.54736 16.8454ZM8.77392 13.5173H6.59424V13.4353L8.72705 8.54859H8.77392V13.5173ZM14.9028 13.4236C15.8637 13.4236 16.5786 12.7908 16.8481 11.7829H16.895C16.895 11.8298 16.895 11.8767 16.895 11.9118C16.895 13.2126 16.7309 15.5564 15.4184 15.5564C14.8911 15.5564 14.5395 15.1931 14.3286 14.6892C14.1645 14.3025 13.9301 14.1501 13.5786 14.1501C13.0864 14.1501 12.8755 14.4783 12.8755 14.865C12.8755 15.0056 12.9106 15.1462 12.9458 15.2868C13.1919 16.3064 14.2114 16.9275 15.3833 16.9275C17.7856 16.9275 18.4887 14.2673 18.4887 11.865C18.4887 9.65015 17.7856 7.00171 15.4067 7.00171C13.6255 7.00171 12.5942 8.50171 12.5942 10.3415C12.5942 11.9236 13.3559 13.4236 14.9028 13.4236ZM15.4301 12.1345C14.563 12.1345 14.2114 11.1384 14.2114 10.2712C14.2114 9.39234 14.6098 8.36109 15.4301 8.36109C16.3091 8.36109 16.6723 9.39234 16.6723 10.2712C16.6723 11.1736 16.2739 12.1345 15.4301 12.1345Z" fill="black" fill-opacity="0.85"/>
</g>
<defs>
<clipPath id="clip0_2207_27546">
<rect width="23.9062" height="23.918" fill="white" transform="translate(0.090332 0.00561523)"/>
</clipPath>
</defs>
</svg>
