<svg width="22" height="22" viewBox="0 0 22 22" fill="none" xmlns="http://www.w3.org/2000/svg">
<g clip-path="url(#clip0_2207_27556)">
<path d="M3.77417 21.6033H17.989C20.45 21.6033 21.6687 20.3845 21.6687 17.9704V3.66187C21.6687 1.24781 20.45 0.0290527 17.989 0.0290527H3.77417C1.32495 0.0290527 0.0944824 1.23609 0.0944824 3.66187V17.9704C0.0944824 20.3962 1.32495 21.6033 3.77417 21.6033ZM3.7976 19.7165C2.62573 19.7165 1.9812 19.0954 1.9812 17.8767V3.75562C1.9812 2.53687 2.62573 1.91578 3.7976 1.91578H17.9656C19.1257 1.91578 19.782 2.53687 19.782 3.75562V17.8767C19.782 19.0954 19.1257 19.7165 17.9656 19.7165H3.7976Z" fill="black" fill-opacity="0.85"/>
<path d="M8.40307 15.6853C8.84839 15.6853 9.21168 15.4158 9.21168 14.8533V13.6814H9.62182C10.0789 13.6814 10.2898 13.3884 10.2898 12.99C10.2898 12.615 10.0906 12.322 9.62182 12.322H9.21168V7.17749C9.21168 6.36889 8.67261 5.91186 7.91089 5.91186C7.09057 5.91186 6.70386 6.33373 6.37573 7.0603L4.27807 11.6072C4.07886 12.0642 4.00854 12.3689 4.00854 12.7322C4.00854 13.2947 4.40698 13.6814 4.96948 13.6814H7.59448V14.8533C7.59448 15.4744 8.03979 15.6853 8.40307 15.6853ZM7.62964 12.3572H5.44995V12.2751L7.58276 7.38842H7.62964V12.3572ZM13.7703 12.2634C14.7195 12.2634 15.4343 11.6306 15.7039 10.6228H15.7507C15.7507 10.6697 15.7507 10.7165 15.7507 10.7517C15.7507 12.0525 15.5867 14.3962 14.2742 14.3962C13.7468 14.3962 13.3953 14.0329 13.1843 13.529C13.0203 13.1423 12.7859 12.99 12.4343 12.99C11.9422 12.99 11.7312 13.3181 11.7312 13.7048C11.7312 13.8454 11.7664 13.9861 11.8015 14.1267C12.0593 15.1462 13.0672 15.7673 14.2507 15.7673C16.6531 15.7673 17.3445 13.1072 17.3445 10.7048C17.3445 8.48999 16.6414 5.84155 14.2625 5.84155C12.4812 5.84155 11.45 7.34155 11.45 9.18139C11.45 10.7634 12.2117 12.2634 13.7703 12.2634ZM14.2859 10.9744C13.4187 10.9744 13.0672 9.97827 13.0672 9.11108C13.0672 8.23217 13.4656 7.20092 14.2859 7.20092C15.1765 7.20092 15.5281 8.23217 15.5281 9.11108C15.5281 10.0134 15.1297 10.9744 14.2859 10.9744Z" fill="black" fill-opacity="0.85"/>
</g>
<defs>
<clipPath id="clip0_2207_27556">
<rect width="21.5742" height="21.5977" fill="white" transform="translate(0.0944824 0.00561523)"/>
</clipPath>
</defs>
</svg>
