<svg width="24" height="24" viewBox="0 0 24 24" fill="none" xmlns="http://www.w3.org/2000/svg">
<g clip-path="url(#clip0_2207_17708)">
<path d="M11.9553 23.9133C18.4944 23.9133 23.9084 18.4876 23.9084 11.9602C23.9084 5.42114 18.4827 0.00708008 11.9436 0.00708008C5.41626 0.00708008 0.00219727 5.42114 0.00219727 11.9602C0.00219727 18.4876 5.42798 23.9133 11.9553 23.9133Z" fill="black" fill-opacity="0.85"/>
<path d="M8.87328 16.9993C8.49828 16.9993 8.02953 16.7766 8.02953 16.1321V14.9368H5.33422C4.74828 14.9368 4.33813 14.5383 4.33813 13.9524C4.33813 13.5774 4.40845 13.261 4.60767 12.7923L6.75219 8.10474C7.10375 7.35474 7.51391 6.92114 8.35766 6.92114C9.15453 6.92114 9.70532 7.38989 9.70532 8.23364V13.5305H10.1272C10.6194 13.5305 10.8186 13.8352 10.8186 14.2219C10.8186 14.6321 10.596 14.9368 10.1272 14.9368H9.70532V16.1321C9.70532 16.718 9.33031 16.9993 8.87328 16.9993ZM8.06469 13.5657V8.44458H8.01782L5.82642 13.4837V13.5657H8.06469ZM12.7405 17.011C12.2366 17.011 11.9084 16.6712 11.9084 16.179C11.9084 16.0266 11.9553 15.7688 11.9905 15.6282L14.0178 8.0227C14.2053 7.30786 14.6389 6.93286 15.3538 6.93286C16.0452 6.93286 16.5374 7.26099 16.7249 8.0227L18.7522 15.6165C18.7991 15.804 18.8342 15.9563 18.8342 16.179C18.8342 16.6477 18.4944 17.011 18.0256 17.011C17.6038 17.011 17.2405 16.8469 17.1116 16.2259L16.7131 14.5618H14.0061L13.6194 16.2141C13.5256 16.7766 13.2092 17.011 12.7405 17.011ZM14.3225 13.2259H16.3967L15.3889 8.94849H15.2952L14.3225 13.2259Z" fill="white"/>
</g>
<defs>
<clipPath id="clip0_2207_17708">
<rect width="23.9062" height="23.918" fill="white" transform="translate(0.00219727 0.00708008)"/>
</clipPath>
</defs>
</svg>
