<svg width="24" height="24" viewBox="0 0 24 24" fill="none" xmlns="http://www.w3.org/2000/svg">
<g clip-path="url(#clip0_2207_17680)">
<path d="M11.9614 23.9133C18.5005 23.9133 23.9145 18.4876 23.9145 11.9602C23.9145 5.42114 18.4888 0.00708008 11.9497 0.00708008C5.42236 0.00708008 0.00830078 5.42114 0.00830078 11.9602C0.00830078 18.4876 5.43408 23.9133 11.9614 23.9133Z" fill="black" fill-opacity="0.85"/>
<path d="M8.72705 16.9993C8.34033 16.9993 7.8833 16.7766 7.8833 16.1438V14.9368H5.18799C4.59033 14.9368 4.19189 14.5383 4.19189 13.9524C4.19189 13.5774 4.26221 13.261 4.46142 12.7923L6.60596 8.10474C6.9458 7.35474 7.35596 6.92114 8.21142 6.92114C9.0083 6.92114 9.54736 7.38989 9.54736 8.23364V13.5305H9.98096C10.4731 13.5305 10.6724 13.8352 10.6724 14.2219C10.6724 14.6321 10.4497 14.9368 9.98096 14.9368H9.54736V16.1438C9.54736 16.718 9.18408 16.9993 8.72705 16.9993ZM7.91846 13.5657V8.44458H7.87158L5.68018 13.4837V13.5657H7.91846ZM13.0395 16.9993C12.5591 16.9993 12.1606 16.6009 12.1606 16.0969V7.80005C12.1606 7.30786 12.5591 6.90942 13.0395 6.90942C13.5317 6.90942 13.9302 7.30786 13.9302 7.80005V11.1399H16.9067V7.80005C16.9067 7.30786 17.3052 6.90942 17.7974 6.90942C18.2661 6.90942 18.6763 7.30786 18.6763 7.80005V16.0969C18.6763 16.6009 18.2661 16.9993 17.7974 16.9993C17.3052 16.9993 16.9067 16.6009 16.9067 16.0969V12.6165H13.9302V16.0969C13.9302 16.6009 13.5317 16.9993 13.0395 16.9993Z" fill="white"/>
</g>
<defs>
<clipPath id="clip0_2207_17680">
<rect width="23.9062" height="23.918" fill="white" transform="translate(0.00830078 0.00708008)"/>
</clipPath>
</defs>
</svg>
