<svg width="30" height="24" viewBox="0 0 30 24" fill="none" xmlns="http://www.w3.org/2000/svg">
<g clip-path="url(#clip0_2207_14841)">
<path d="M3.02442 19.4602H26.2979C28.3018 19.4602 29.3096 18.4876 29.3096 16.4485V3.0188C29.3096 0.979736 28.3018 0.00708008 26.2979 0.00708008H3.02442C1.03223 0.00708008 0.0126953 0.979736 0.0126953 3.0188V16.4485C0.0126953 18.4876 1.03223 19.4602 3.02442 19.4602ZM8.76661 23.4329H20.5557C21.0713 23.4329 21.5049 23.011 21.5049 22.4837C21.5049 21.9563 21.0713 21.5344 20.5557 21.5344H8.76661C8.25098 21.5344 7.81739 21.9563 7.81739 22.4837C7.81739 23.011 8.25098 23.4329 8.76661 23.4329Z" fill="black" fill-opacity="0.85"/>
<path d="M11.4268 14.7844C11.04 14.7844 10.583 14.5501 10.583 13.9055V12.7102H7.88769C7.29003 12.7102 6.8916 12.3118 6.8916 11.7259C6.8916 11.3509 6.96191 11.0344 7.16113 10.5774L9.31738 5.88989C9.65722 5.13989 10.0557 4.7063 10.9111 4.7063C11.708 4.7063 12.2471 5.16333 12.2471 6.00708V11.304H12.6807C13.1729 11.304 13.3721 11.6087 13.3721 12.0071C13.3721 12.4055 13.1494 12.7102 12.6807 12.7102H12.2471V13.9055C12.2471 14.4915 11.8721 14.7844 11.4268 14.7844ZM10.6182 11.3391V6.22974H10.5713L8.37988 11.2688V11.3391H10.6182ZM15.7275 14.7962C15.1768 14.7962 14.8486 14.4212 14.8486 13.8704V5.6438C14.8486 5.0813 15.165 4.71802 15.7275 4.71802C16.3135 4.71802 16.6182 5.11646 16.6182 5.6438V9.42896H16.7002L19.4307 5.23364C19.583 4.98755 19.7588 4.74146 20.2158 4.74146C20.7315 4.74146 21.0244 5.13989 21.0244 5.53833C21.0244 5.8313 20.9307 6.0188 20.79 6.2063L18.7158 9.30005L21.083 13.2376C21.2354 13.5188 21.2822 13.6829 21.2822 13.9524C21.2822 14.4212 20.9775 14.7727 20.4971 14.7727C20.0166 14.7727 19.7939 14.5501 19.5479 14.1282L17.415 10.4954L16.6299 11.7141V13.8704C16.6299 14.3743 16.3486 14.7962 15.7275 14.7962Z" fill="white"/>
</g>
<defs>
<clipPath id="clip0_2207_14841">
<rect width="29.2969" height="23.4492" fill="white" transform="translate(0.0126953 0.00708008)"/>
</clipPath>
</defs>
</svg>
