<svg width="24" height="24" viewBox="0 0 24 24" fill="none" xmlns="http://www.w3.org/2000/svg">
<g clip-path="url(#clip0_2207_17689)">
<path d="M11.9699 23.9133C18.509 23.9133 23.923 18.4876 23.923 11.9602C23.923 5.42114 18.4973 0.00708008 11.9582 0.00708008C5.43091 0.00708008 0.0168457 5.42114 0.0168457 11.9602C0.0168457 18.4876 5.44263 23.9133 11.9699 23.9133ZM11.9699 21.9212C6.43873 21.9212 2.02076 17.4915 2.02076 11.9602C2.02076 6.42896 6.42701 1.99927 11.9582 1.99927C17.4895 1.99927 21.9309 6.42896 21.9309 11.9602C21.9309 17.4915 17.5012 21.9212 11.9699 21.9212Z" fill="black" fill-opacity="0.85"/>
<path d="M9.69654 16.8469C10.1301 16.8469 10.4934 16.5774 10.4934 16.0149V14.843H10.9152C11.3606 14.843 11.5832 14.5501 11.5832 14.1516C11.5832 13.7766 11.384 13.4837 10.9152 13.4837H10.4934V8.33911C10.4934 7.53052 9.96607 7.07349 9.19263 7.07349C8.37232 7.07349 7.9856 7.49536 7.65747 8.22192L5.55982 12.7688C5.37232 13.2259 5.30201 13.5305 5.30201 13.8938C5.30201 14.4563 5.68873 14.843 6.26294 14.843H8.88794V16.0149C8.88794 16.636 9.32154 16.8469 9.69654 16.8469ZM8.9231 13.5188H6.74341V13.4368L8.87623 8.55005H8.9231V13.5188ZM13.8449 16.6946H17.1848C17.6066 16.6946 17.923 16.4485 17.923 15.9798C17.923 15.5227 17.6066 15.2766 17.1848 15.2766H14.7121V7.98755C14.7121 7.47192 14.466 7.07349 13.8566 7.07349C13.3059 7.07349 13.0129 7.42505 13.0129 7.98755V15.8157C13.0129 16.3665 13.3059 16.6946 13.8449 16.6946Z" fill="black" fill-opacity="0.85"/>
</g>
<defs>
<clipPath id="clip0_2207_17689">
<rect width="23.9062" height="23.918" fill="white" transform="translate(0.0168457 0.00708008)"/>
</clipPath>
</defs>
</svg>
