<svg width="24" height="24" viewBox="0 0 24 24" fill="none" xmlns="http://www.w3.org/2000/svg">
<g clip-path="url(#clip0_2207_26431)">
<path d="M11.9763 23.9133C18.5154 23.9133 23.9294 18.4876 23.9294 11.9602C23.9294 5.42114 18.5037 0.00708008 11.9646 0.00708008C5.43725 0.00708008 0.0231934 5.42114 0.0231934 11.9602C0.0231934 18.4876 5.44897 23.9133 11.9763 23.9133Z" fill="black" fill-opacity="0.85"/>
<path d="M11.906 17.7141C9.97242 17.7141 8.56617 16.9407 8.0857 15.7102C8.00367 15.5227 7.95679 15.3352 7.95679 15.1243C7.95679 14.6555 8.28492 14.3157 8.77711 14.3157C9.12867 14.3157 9.42164 14.5149 9.63258 14.9016C10.031 15.6985 10.8748 16.1907 11.8709 16.1907C13.2068 16.1907 14.2029 15.2063 14.2029 13.8821C14.2029 12.5462 13.3474 11.6555 12.0701 11.6555C11.4607 11.6555 11.0037 11.843 10.4294 12.3352C9.93726 12.6985 9.66773 12.7923 9.22242 12.7923C8.55445 12.7923 8.14429 12.3352 8.19117 11.6321L8.53101 7.62427C8.57789 6.92114 9.09351 6.47583 9.89039 6.47583H14.8943C15.3162 6.47583 15.6091 6.78052 15.6091 7.22583C15.6091 7.65942 15.3044 7.97583 14.8943 7.97583H10.0662L9.78492 11.2454H9.86695C10.3005 10.6477 11.3084 10.2141 12.2927 10.2141C14.5076 10.2141 16.0427 11.7024 16.0427 13.8352C16.0427 16.179 14.3552 17.7141 11.906 17.7141Z" fill="white"/>
</g>
<defs>
<clipPath id="clip0_2207_26431">
<rect width="23.9062" height="23.918" fill="white" transform="translate(0.0231934 0.00708008)"/>
</clipPath>
</defs>
</svg>
