<svg width="22" height="18" viewBox="0 0 22 18" fill="none" xmlns="http://www.w3.org/2000/svg">
<g clip-path="url(#clip0_2207_2991)">
<path d="M0.0251465 16.7415C0.0251465 17.2571 0.447021 17.6907 0.962646 17.6907C1.48999 17.6907 1.91187 17.2571 1.91187 16.7415V0.968018C1.91187 0.452392 1.48999 0.0305176 0.962646 0.0305176C0.447021 0.0305176 0.0251465 0.452392 0.0251465 0.968018V16.7415ZM19.7126 16.7415C19.7126 17.2571 20.1462 17.6907 20.6618 17.6907C21.1774 17.6907 21.5993 17.2571 21.5993 16.7415V0.968018C21.5993 0.452392 21.1774 0.0305176 20.6618 0.0305176C20.1462 0.0305176 19.7126 0.452392 19.7126 0.968018V16.7415Z" fill="black" fill-opacity="0.85"/>
<path d="M10.8532 13.7532C12.6813 13.7532 13.8181 12.3938 13.8181 10.5657C13.8181 8.99536 12.9274 7.6477 11.3806 7.6477C10.6071 7.6477 9.95093 8.01099 9.63453 8.60864H9.58765L9.79859 5.93677H12.7751C13.1618 5.93677 13.4196 5.67896 13.4196 5.28052C13.4196 4.88208 13.1735 4.62427 12.7751 4.62427H9.37671C8.76734 4.62427 8.48609 4.95239 8.45093 5.56177L8.19312 8.98364C8.15796 9.49927 8.42749 9.88599 8.94312 9.88599C9.31812 9.88599 9.48218 9.73364 9.71656 9.46411C9.99781 9.07739 10.3962 8.84302 10.8649 8.84302C11.7907 8.84302 12.2478 9.67505 12.2478 10.6126C12.2478 11.6087 11.7439 12.4407 10.8532 12.4407C10.1501 12.4407 9.6814 11.9837 9.44703 11.3743C9.29468 11.0462 9.06031 10.8821 8.7439 10.8821C8.33374 10.8821 8.07593 11.1399 8.07593 11.5501C8.07593 11.6907 8.09937 11.8313 8.13453 11.9602C8.42749 13.0852 9.71656 13.7532 10.8532 13.7532Z" fill="black" fill-opacity="0.85"/>
</g>
<defs>
<clipPath id="clip0_2207_2991">
<rect width="21.5742" height="17.6836" fill="white" transform="translate(0.0251465 0.00708008)"/>
</clipPath>
</defs>
</svg>
