<svg width="24" height="24" viewBox="0 0 24 24" fill="none" xmlns="http://www.w3.org/2000/svg">
<g clip-path="url(#clip0_2207_27571)">
<path d="M11.9867 23.9133C18.5258 23.9133 23.9398 18.4876 23.9398 11.9602C23.9398 5.42114 18.5141 0.00708008 11.975 0.00708008C5.44763 0.00708008 0.0335693 5.42114 0.0335693 11.9602C0.0335693 18.4876 5.45935 23.9133 11.9867 23.9133Z" fill="black" fill-opacity="0.85"/>
<path d="M8.33045 17.1048C7.2406 17.1048 6.16248 16.4719 5.7406 15.4876C5.63513 15.2532 5.56482 14.9837 5.56482 14.7024C5.56482 14.2571 5.84607 13.9759 6.29138 13.9759C6.61951 13.9759 6.88904 14.1633 7.04138 14.5501C7.25232 15.2063 7.62732 15.6868 8.30701 15.6868C9.19763 15.6868 9.54919 14.6673 9.54919 13.6594C9.54919 12.7688 9.22107 11.7024 8.33045 11.7024C7.83826 11.7024 7.54529 11.9837 7.26404 12.3821C7.00623 12.7219 6.81873 12.8391 6.4906 12.8391C5.9281 12.8391 5.69373 12.4407 5.69373 11.9719C5.69373 11.8079 5.70545 11.6204 5.71716 11.4329L5.90466 8.12817C5.95154 7.5188 6.23279 7.09692 6.87732 7.09692H10.1938C10.6039 7.09692 10.8734 7.40161 10.8734 7.80005C10.8734 8.23364 10.6156 8.52661 10.1938 8.52661H7.35779L7.15857 11.468H7.21716C7.52185 10.7532 8.1781 10.4251 8.89295 10.4251C10.4516 10.4251 11.2484 11.9602 11.2484 13.6243C11.2484 15.5344 10.2172 17.1048 8.33045 17.1048ZM15.725 17.1048C13.3227 17.1048 12.6078 14.4094 12.6078 11.9719C12.6078 9.53442 13.3227 6.83911 15.725 6.83911C18.1508 6.83911 18.8656 9.53442 18.8656 11.9719C18.8656 14.4094 18.1508 17.1048 15.725 17.1048ZM15.725 15.6633C16.7094 15.6633 17.0844 14.0813 17.0844 11.9719C17.0844 9.87427 16.7094 8.28052 15.725 8.28052C14.7524 8.28052 14.3774 9.87427 14.3774 11.9719C14.3774 14.0813 14.7524 15.6633 15.725 15.6633Z" fill="white"/>
</g>
<defs>
<clipPath id="clip0_2207_27571">
<rect width="23.9062" height="23.918" fill="white" transform="translate(0.0335693 0.00708008)"/>
</clipPath>
</defs>
</svg>
