<svg width="24" height="24" viewBox="0 0 24 24" fill="none" xmlns="http://www.w3.org/2000/svg">
<g clip-path="url(#clip0_2207_27566)">
<path d="M11.9846 23.9133C18.5237 23.9133 23.9377 18.4876 23.9377 11.9602C23.9377 5.42114 18.512 0.00708008 11.9729 0.00708008C5.44555 0.00708008 0.0314941 5.42114 0.0314941 11.9602C0.0314941 18.4876 5.45727 23.9133 11.9846 23.9133ZM11.9846 21.9212C6.45337 21.9212 2.0354 17.4915 2.0354 11.9602C2.0354 6.42896 6.44165 1.99927 11.9729 1.99927C17.5042 1.99927 21.9456 6.42896 21.9456 11.9602C21.9456 17.4915 17.5159 21.9212 11.9846 21.9212Z" fill="black" fill-opacity="0.85"/>
<path d="M8.43383 16.9524C10.262 16.9524 11.2698 15.429 11.2698 13.5774C11.2698 11.9602 10.4963 10.4719 8.98461 10.4719C8.29321 10.4719 7.64868 10.7883 7.35571 11.4798H7.29711L7.49633 8.62036H10.2385C10.6487 8.62036 10.8948 8.33911 10.8948 7.92896C10.8948 7.54224 10.637 7.24927 10.2385 7.24927H7.02758C6.40649 7.24927 6.13696 7.6477 6.09008 8.24536L5.90258 11.4563C5.89087 11.6321 5.87915 11.8196 5.87915 11.9719C5.87915 12.429 6.11352 12.8157 6.65258 12.8157C6.96899 12.8157 7.15649 12.6985 7.40258 12.3704C7.67211 11.9837 7.96508 11.7024 8.43383 11.7024C9.30102 11.7024 9.62915 12.7454 9.62915 13.6126C9.62915 14.5852 9.27758 15.5813 8.4104 15.5813C7.75415 15.5813 7.39087 15.1126 7.17993 14.468C7.0393 14.093 6.78149 13.9173 6.46508 13.9173C6.03149 13.9173 5.76196 14.1868 5.76196 14.6204C5.76196 14.8899 5.83227 15.1477 5.92602 15.3821C6.33618 16.3313 7.37915 16.9524 8.43383 16.9524ZM15.6057 16.9524C17.9495 16.9524 18.6409 14.3274 18.6409 11.9719C18.6409 9.61646 17.9495 6.99146 15.6057 6.99146C13.2737 6.99146 12.5823 9.61646 12.5823 11.9719C12.5823 14.3274 13.2737 16.9524 15.6057 16.9524ZM15.6057 15.5696C14.6565 15.5696 14.2932 14.011 14.2932 11.9719C14.2932 9.94458 14.6565 8.38599 15.6057 8.38599C16.5667 8.38599 16.9299 9.94458 16.9299 11.9719C16.9299 14.011 16.5667 15.5696 15.6057 15.5696Z" fill="black" fill-opacity="0.85"/>
</g>
<defs>
<clipPath id="clip0_2207_27566">
<rect width="23.9062" height="23.918" fill="white" transform="translate(0.0314941 0.00708008)"/>
</clipPath>
</defs>
</svg>
