<svg width="22" height="22" viewBox="0 0 22 22" fill="none" xmlns="http://www.w3.org/2000/svg">
<g clip-path="url(#clip0_2207_26476)">
<path d="M3.72376 21.6048H17.9386C20.3996 21.6048 21.6183 20.386 21.6183 17.9719V3.66333C21.6183 1.24927 20.3996 0.0305176 17.9386 0.0305176H3.72376C1.27454 0.0305176 0.0440674 1.23755 0.0440674 3.66333V17.9719C0.0440674 20.3977 1.27454 21.6048 3.72376 21.6048ZM3.74719 19.718C2.57532 19.718 1.93079 19.0969 1.93079 17.8782V3.75708C1.93079 2.53833 2.57532 1.91724 3.74719 1.91724H17.9152C19.0753 1.91724 19.7316 2.53833 19.7316 3.75708V17.8782C19.7316 19.0969 19.0753 19.718 17.9152 19.718H3.74719Z" fill="black" fill-opacity="0.85"/>
<path d="M10.8722 16.3782C13.2746 16.3782 14.9386 14.8313 14.9386 12.6516C14.9386 10.718 13.4855 9.27661 11.4347 9.27661C10.6379 9.27661 9.82923 9.5813 9.43079 9.97974L9.32532 9.94458C9.43079 9.74536 9.59485 9.53442 9.95813 9.06567C10.5441 8.29224 11.3293 7.3313 11.9035 6.59302C12.0793 6.35864 12.173 6.17114 12.173 5.94849C12.173 5.59692 11.9386 5.23364 11.3761 5.23364C11.0011 5.23364 10.7785 5.47974 10.591 5.71411C9.81751 6.72192 9.11438 7.62427 8.50501 8.43286C7.29798 10.0266 6.78235 11.3157 6.78235 12.5813C6.78235 14.8313 8.43469 16.3782 10.8722 16.3782ZM10.8722 14.9016C9.47766 14.9016 8.43469 13.9641 8.43469 12.7219C8.43469 11.5032 9.46595 10.6009 10.8605 10.6009C12.2668 10.6009 13.298 11.5032 13.298 12.7454C13.298 13.9641 12.2668 14.9016 10.8722 14.9016Z" fill="black" fill-opacity="0.85"/>
</g>
<defs>
<clipPath id="clip0_2207_26476">
<rect width="21.5742" height="21.5977" fill="white" transform="translate(0.0440674 0.00708008)"/>
</clipPath>
</defs>
</svg>
