<svg width="24" height="24" viewBox="0 0 24 24" fill="none" xmlns="http://www.w3.org/2000/svg">
<g clip-path="url(#clip0_2207_26446)">
<path d="M12.0014 23.9133C18.5405 23.9133 23.9545 18.4876 23.9545 11.9602C23.9545 5.42114 18.5288 0.00708008 11.9897 0.00708008C5.4624 0.00708008 0.0483398 5.42114 0.0483398 11.9602C0.0483398 18.4876 5.47412 23.9133 12.0014 23.9133ZM12.0014 21.9212C6.47022 21.9212 2.05225 17.4915 2.05225 11.9602C2.05225 6.42896 6.4585 1.99927 11.9897 1.99927C17.521 1.99927 21.9624 6.42896 21.9624 11.9602C21.9624 17.4915 17.5327 21.9212 12.0014 21.9212Z" fill="black" fill-opacity="0.85"/>
<path d="M12.0835 17.5383C14.4389 17.5383 16.103 16.1673 16.103 13.7649C16.103 11.5383 14.4155 10.2962 12.5639 10.2962C10.9936 10.2962 10.0795 11.093 9.70459 11.9368C9.68115 11.9368 9.63428 11.9368 9.61084 11.9368C9.61084 11.8899 9.61084 11.8548 9.61084 11.8196C9.61084 9.41724 10.7006 7.87036 12.3178 7.87036C13.1264 7.87036 13.5952 8.23364 13.9233 8.6438C14.2983 9.0188 14.5327 9.21802 14.9311 9.21802C15.3295 9.21802 15.6342 8.93677 15.6342 8.52661C15.6342 8.33911 15.5991 8.17505 15.5288 8.01099C15.1655 7.1438 13.8881 6.38208 12.3764 6.38208C9.61084 6.38208 7.88818 8.31567 7.88818 12.218C7.88818 13.8352 8.18115 15.0071 8.67334 15.7923C9.42334 17.0344 10.7006 17.5383 12.0835 17.5383ZM12.0014 16.1321C10.7006 16.1321 9.76318 15.1712 9.76318 13.8352C9.76318 12.5462 10.6889 11.6321 12.0131 11.6321C13.3491 11.6321 14.2631 12.5344 14.2631 13.8469C14.2631 15.2298 13.3842 16.1321 12.0014 16.1321Z" fill="black" fill-opacity="0.85"/>
</g>
<defs>
<clipPath id="clip0_2207_26446">
<rect width="23.9062" height="23.918" fill="white" transform="translate(0.0483398 0.00708008)"/>
</clipPath>
</defs>
</svg>
