<svg width="22" height="18" viewBox="0 0 22 18" fill="none" xmlns="http://www.w3.org/2000/svg">
<g clip-path="url(#clip0_2207_2996)">
<path d="M0.0524902 16.7415C0.0524902 17.2571 0.474365 17.6907 0.98999 17.6907C1.51733 17.6907 1.93921 17.2571 1.93921 16.7415V0.968018C1.93921 0.452392 1.51733 0.0305176 0.98999 0.0305176C0.474365 0.0305176 0.0524902 0.452392 0.0524902 0.968018V16.7415ZM19.74 16.7415C19.74 17.2571 20.1736 17.6907 20.6892 17.6907C21.2048 17.6907 21.6267 17.2571 21.6267 16.7415V0.968018C21.6267 0.452392 21.2048 0.0305176 20.6892 0.0305176C20.1736 0.0305176 19.74 0.452392 19.74 0.968018V16.7415Z" fill="black" fill-opacity="0.85"/>
<path d="M10.9978 13.7415C12.7205 13.7415 13.9392 12.4407 13.9392 10.6009C13.9392 8.94849 12.99 7.69458 11.4666 7.69458C10.4119 7.69458 9.67364 8.32739 9.38067 9.22974H9.34552C9.34552 8.42114 9.40411 7.82349 9.5213 7.30786C9.72052 6.48755 10.1423 5.71411 10.9862 5.71411C11.5603 5.71411 11.9587 6.0188 12.2166 6.53442C12.3923 6.82739 12.615 7.02661 12.9666 7.02661C13.447 7.02661 13.6345 6.68677 13.6345 6.35864C13.6345 6.1477 13.5877 5.93677 13.4939 5.74927C13.1189 4.94067 12.1345 4.40161 11.0095 4.40161C8.79474 4.40161 7.97443 6.48755 7.86896 8.62036C7.77521 9.5813 7.86896 10.6243 8.13849 11.4446C8.5838 12.7805 9.53302 13.7415 10.9978 13.7415ZM10.9627 12.429C10.072 12.429 9.56817 11.5149 9.56817 10.6126C9.56817 9.68677 10.1189 8.91333 10.9744 8.91333C11.8767 8.91333 12.3572 9.73364 12.3572 10.6594C12.3572 11.5618 11.8416 12.429 10.9627 12.429Z" fill="black" fill-opacity="0.85"/>
</g>
<defs>
<clipPath id="clip0_2207_2996">
<rect width="21.5742" height="17.6836" fill="white" transform="translate(0.0524902 0.00708008)"/>
</clipPath>
</defs>
</svg>
