<svg width="22" height="22" viewBox="0 0 22 22" fill="none" xmlns="http://www.w3.org/2000/svg">
<g clip-path="url(#clip0_2207_26501)">
<path d="M3.74683 21.6048H17.9616C20.4226 21.6048 21.6413 20.386 21.6413 17.9719V3.66333C21.6413 1.24927 20.4226 0.0305176 17.9616 0.0305176H3.74683C1.29761 0.0305176 0.0671387 1.23755 0.0671387 3.66333V17.9719C0.0671387 20.3977 1.29761 21.6048 3.74683 21.6048Z" fill="black" fill-opacity="0.85"/>
<path d="M9.2312 16.5423C8.70386 16.5423 8.27026 16.179 8.27026 15.6633C8.27026 15.4173 8.32886 15.2532 8.44605 15.0423L12.8757 6.90942V6.81567H7.75464C7.33276 6.81567 7.02808 6.49927 7.02808 6.06567C7.02808 5.62036 7.32105 5.31567 7.75464 5.31567H13.6609C14.4577 5.31567 14.9851 5.81958 14.9851 6.48755C14.9851 6.74536 14.9265 6.99146 14.6921 7.43677L10.1921 15.8743C9.94605 16.343 9.65308 16.5423 9.2312 16.5423Z" fill="white"/>
</g>
<defs>
<clipPath id="clip0_2207_26501">
<rect width="21.5742" height="21.5977" fill="white" transform="translate(0.0671387 0.00708008)"/>
</clipPath>
</defs>
</svg>
