<svg width="22" height="18" viewBox="0 0 22 18" fill="none" xmlns="http://www.w3.org/2000/svg">
<g clip-path="url(#clip0_2207_3006)">
<path d="M0.0734863 16.7415C0.0734863 17.2571 0.495361 17.6907 1.01099 17.6907C1.53833 17.6907 1.96021 17.2571 1.96021 16.7415V0.968018C1.96021 0.452392 1.53833 0.0305176 1.01099 0.0305176C0.495361 0.0305176 0.0734863 0.452392 0.0734863 0.968018V16.7415ZM19.761 16.7415C19.761 17.2571 20.1946 17.6907 20.7102 17.6907C21.2258 17.6907 21.6477 17.2571 21.6477 16.7415V0.968018C21.6477 0.452392 21.2258 0.0305176 20.7102 0.0305176C20.1946 0.0305176 19.761 0.452392 19.761 0.968018V16.7415Z" fill="black" fill-opacity="0.85"/>
<path d="M10.8547 13.718C12.5305 13.718 14.0071 12.8157 14.0071 11.1165C14.0071 9.94458 13.2454 9.06567 12.179 8.84302V8.81958C13.0813 8.55005 13.7258 7.78833 13.7258 6.82739C13.7258 5.33911 12.4602 4.42505 10.8547 4.42505C9.28443 4.42505 7.98365 5.33911 7.98365 6.82739C7.98365 7.80005 8.6399 8.55005 9.55396 8.81958V8.84302C8.51099 9.05396 7.71411 9.94458 7.71411 11.1165C7.71411 12.7688 9.1438 13.718 10.8547 13.718ZM10.8547 8.30396C10.093 8.30396 9.60083 7.74146 9.60083 6.97974C9.60083 6.2063 10.093 5.63208 10.8665 5.63208C11.6868 5.63208 12.1321 6.24146 12.1321 6.97974C12.1321 7.74146 11.6282 8.30396 10.8547 8.30396ZM10.8547 12.511C9.97583 12.511 9.41333 11.8548 9.41333 10.9993C9.41333 10.1555 9.97583 9.5227 10.8547 9.5227C11.7454 9.5227 12.3079 10.1321 12.3079 10.9993C12.3079 11.8665 11.7454 12.511 10.8547 12.511Z" fill="black" fill-opacity="0.85"/>
</g>
<defs>
<clipPath id="clip0_2207_3006">
<rect width="21.5742" height="17.6836" fill="white" transform="translate(0.0734863 0.00708008)"/>
</clipPath>
</defs>
</svg>
