<svg width="24" height="24" viewBox="0 0 24 24" fill="none" xmlns="http://www.w3.org/2000/svg">
<g clip-path="url(#clip0_2207_26551)">
<path d="M12.0351 23.9133C18.5742 23.9133 23.9882 18.4876 23.9882 11.9602C23.9882 5.42114 18.5625 0.00708008 12.0234 0.00708008C5.49609 0.00708008 0.0820312 5.42114 0.0820312 11.9602C0.0820312 18.4876 5.50781 23.9133 12.0351 23.9133Z" fill="black" fill-opacity="0.85"/>
<path d="M7.83984 10.0501C7.83984 7.78833 9.5625 6.2063 12.0703 6.2063C14.5781 6.2063 16.3008 7.80005 16.3008 10.1438C16.3008 11.4563 15.7734 12.6868 14.6601 14.1751C14.0039 15.0305 13.1015 16.2024 12.4687 16.9876C12.1289 17.4212 11.9414 17.7024 11.4726 17.7024C10.9804 17.7024 10.664 17.3509 10.664 16.9876C10.664 16.7532 10.7578 16.5305 10.957 16.2962C11.6718 15.4173 12.4687 14.4563 13.1367 13.6009C13.4062 13.2844 13.5937 13.0266 13.6875 12.8509H13.5351C13.125 13.2727 12.2695 13.554 11.4726 13.554C9.375 13.554 7.83984 12.0774 7.83984 10.0501ZM9.55078 9.97974C9.55078 11.2571 10.6406 12.1946 12.082 12.1946C13.5 12.1946 14.5781 11.2688 14.5781 9.97974C14.5781 8.71411 13.4882 7.75317 12.0703 7.75317C10.6406 7.75317 9.55078 8.70239 9.55078 9.97974Z" fill="white"/>
</g>
<defs>
<clipPath id="clip0_2207_26551">
<rect width="23.9062" height="23.918" fill="white" transform="translate(0.0820312 0.00708008)"/>
</clipPath>
</defs>
</svg>
