<svg width="22" height="18" viewBox="0 0 22 18" fill="none" xmlns="http://www.w3.org/2000/svg">
<g clip-path="url(#clip0_2207_3011)">
<path d="M0.0922852 16.7415C0.0922852 17.2571 0.51416 17.6907 1.02979 17.6907C1.55713 17.6907 1.97901 17.2571 1.97901 16.7415V0.968018C1.97901 0.452392 1.55713 0.0305176 1.02979 0.0305176C0.51416 0.0305176 0.0922852 0.452392 0.0922852 0.968018V16.7415ZM19.7798 16.7415C19.7798 17.2571 20.2134 17.6907 20.729 17.6907C21.2446 17.6907 21.6665 17.2571 21.6665 16.7415V0.968018C21.6665 0.452392 21.2446 0.0305176 20.729 0.0305176C20.2134 0.0305176 19.7798 0.452392 19.7798 0.968018V16.7415Z" fill="black" fill-opacity="0.85"/>
<path d="M10.6978 13.7298C13.1704 13.7298 13.9439 11.3391 13.9439 8.9602C13.9439 6.61646 13.0415 4.40161 10.7446 4.40161C8.99853 4.40161 7.80322 5.71411 7.80322 7.54224C7.80322 9.11255 8.75244 10.4485 10.2993 10.4485C11.3775 10.4485 12.1157 9.7688 12.3735 8.90161H12.397C12.397 8.93677 12.397 8.97192 12.397 9.0188C12.4087 10.4485 12.1275 12.4173 10.7564 12.4173C10.147 12.4173 9.77197 12.1009 9.50244 11.5969C9.32666 11.2688 9.11572 11.1048 8.75244 11.1048C8.31884 11.1048 8.08447 11.4094 8.08447 11.7844C8.08447 12.1243 8.30712 12.5344 8.58837 12.8157C9.06884 13.4016 9.83056 13.7298 10.6978 13.7298ZM10.7564 9.2063C9.854 9.2063 9.37353 8.36255 9.37353 7.47192C9.37353 6.5813 9.87744 5.71411 10.7798 5.71411C11.6587 5.71411 12.1743 6.60474 12.1743 7.50708C12.1743 8.42114 11.6353 9.2063 10.7564 9.2063Z" fill="black" fill-opacity="0.85"/>
</g>
<defs>
<clipPath id="clip0_2207_3011">
<rect width="21.5742" height="17.6836" fill="white" transform="translate(0.0922852 0.00708008)"/>
</clipPath>
</defs>
</svg>
