<svg width="46" height="18" viewBox="0 0 46 18" fill="none" xmlns="http://www.w3.org/2000/svg">
<g clip-path="url(#clip0_2207_22441)">
<path d="M38.7175 17.3403C41.7058 17.3403 44.0496 16.0513 45.198 13.813C45.4324 13.3677 45.573 12.8989 45.573 12.4771C45.573 11.9028 45.1628 11.5161 44.5886 11.5161C44.1199 11.5161 43.8621 11.7036 43.5925 12.2895C42.7957 14.2817 41.1082 15.3833 38.7175 15.3833C35.3074 15.3833 33.1277 12.8052 33.1277 8.6333C33.1277 4.53174 35.3074 1.96533 38.7175 1.96533C40.9675 1.96533 42.7839 3.27783 43.5457 5.30518C43.8152 5.89111 44.1316 6.13721 44.6355 6.13721C45.2214 6.13721 45.6082 5.75049 45.6082 5.17627C45.6082 4.87158 45.5496 4.53174 45.4089 4.16846C44.4832 1.59033 41.7996 0.00830078 38.7175 0.00830078C33.948 0.00830078 30.9128 3.32471 30.9128 8.64502C30.9128 14.0122 33.9246 17.3403 38.7175 17.3403Z" fill="black" fill-opacity="0.85"/>
<path d="M17.4128 17.0591H23.1082C26.823 17.0591 29.0613 15.231 29.0613 12.4536C29.0613 10.1216 27.3738 8.49268 24.9714 8.22314V8.14111C26.823 7.83642 28.1824 6.21924 28.1824 4.33252C28.1824 1.97705 26.1316 0.289551 23.0496 0.289551H17.4128C16.7566 0.289551 16.3347 0.711426 16.3347 1.39111V15.9575C16.3347 16.6255 16.7566 17.0591 17.4128 17.0591ZM18.5496 7.54346V2.16455H22.5457C24.6902 2.16455 25.9793 3.16064 25.9793 4.64892C25.9793 6.47705 24.5378 7.54346 22.0652 7.54346H18.5496ZM18.5496 15.1958V9.28955H22.4988C25.2878 9.28955 26.7996 10.356 26.7996 12.3247C26.7996 14.106 25.3347 15.1958 22.698 15.1958H18.5496Z" fill="black" fill-opacity="0.85"/>
<path d="M0.994873 17.3989C1.61597 17.3989 1.92066 17.1294 2.14331 16.4849L3.65503 12.3364H10.5691L12.0808 16.4849C12.3035 17.1294 12.6082 17.3989 13.2175 17.3989C13.8386 17.3989 14.2371 16.9888 14.2371 16.4028C14.2371 16.2036 14.2019 16.0278 14.1082 15.77L8.61206 1.14502C8.34253 0.418457 7.86206 0.0200195 7.11206 0.0200195C6.3855 0.0200195 5.89331 0.418457 5.6355 1.1333L0.139404 15.7817C0.0456542 16.0395 0.010498 16.2153 0.010498 16.4145C0.010498 17.0005 0.385498 17.3989 0.994873 17.3989ZM4.22925 10.5669L7.07691 2.68018H7.1355L9.98316 10.5669H4.22925Z" fill="black" fill-opacity="0.85"/>
</g>
<defs>
<clipPath id="clip0_2207_22441">
<rect width="45.5977" height="17.4023" fill="white" transform="translate(0.010498 0.00830078)"/>
</clipPath>
</defs>
</svg>
