<svg width="34" height="23" viewBox="0 0 34 23" fill="none" xmlns="http://www.w3.org/2000/svg">
<g clip-path="url(#clip0_2207_15982)">
<path d="M0.0146484 11.4342C0.0146484 15.149 1.22168 18.5592 3.26074 21.3365C3.62403 21.8404 4.24512 21.8873 4.71387 21.5123C5.13574 21.149 5.19434 20.5865 4.85449 20.1178C3.07324 17.692 2.01856 14.6803 2.01856 11.4342C2.01856 8.17635 3.07324 5.17635 4.85449 2.72713C5.19434 2.28182 5.14746 1.7076 4.71387 1.34432C4.24512 0.969318 3.62403 1.02791 3.26074 1.5201C1.22168 4.29744 0.0146484 7.71932 0.0146484 11.4342ZM33.4599 11.4342C33.4599 7.71932 32.2646 4.29744 30.2138 1.5201C29.8505 1.02791 29.2294 0.969318 28.7607 1.34432C28.3271 1.7076 28.2919 2.28182 28.6201 2.72713C30.413 5.17635 31.456 8.17635 31.456 11.4342C31.456 14.6803 30.413 17.692 28.6201 20.1178C28.2919 20.5865 28.3388 21.149 28.7607 21.5123C29.2294 21.8873 29.8505 21.8404 30.2138 21.3365C32.2646 18.5592 33.4599 15.149 33.4599 11.4342Z" fill="black" fill-opacity="0.85"/>
<path d="M16.7373 22.8599C22.9834 22.8599 28.1748 17.6802 28.1748 11.4341C28.1748 5.18799 22.9834 0.00830078 16.7255 0.00830078C10.4794 0.00830078 5.31153 5.17627 5.31153 11.4341C5.31153 17.6802 10.4912 22.8599 16.7373 22.8599ZM16.7373 20.8677C11.5107 20.8677 7.31543 16.6724 7.31543 11.4341C7.31543 6.18408 11.499 1.98877 16.7255 1.98877C21.9638 1.98877 26.1708 6.18408 26.1826 11.4341C26.1943 16.6606 21.9873 20.8677 16.7373 20.8677Z" fill="black" fill-opacity="0.85"/>
<path d="M9.77637 15.2544C10.163 15.2544 10.374 15.02 10.4326 14.645L10.6787 13.4614H12.4248L12.6708 14.6567C12.7646 15.0903 12.999 15.2544 13.3505 15.2544C13.7021 15.2544 13.9716 14.9731 13.9716 14.6216C13.9716 14.5513 13.9365 14.2935 13.913 14.188L12.5771 8.45752C12.4482 7.8833 12.1084 7.60205 11.5341 7.60205C10.9951 7.60205 10.6669 7.87158 10.5263 8.45752L9.21387 14.188C9.17871 14.3403 9.14356 14.481 9.14356 14.6216C9.14356 15.0552 9.43653 15.2544 9.77637 15.2544ZM10.8662 12.4419L11.5107 9.18408H11.5576L12.2255 12.4419H10.8662ZM15.6123 15.1372H17.3701C18.624 15.1372 19.2451 14.188 19.2451 13.0395C19.2451 12.1958 18.7412 11.2935 17.9443 11.2349V11.188C18.6943 11.0122 19.0341 10.2271 19.0341 9.55908C19.0341 8.45752 18.4248 7.71924 17.3232 7.71924H15.6123C15.2255 7.71924 14.956 7.93018 14.956 8.42236V14.4341C14.956 14.8794 15.1787 15.1372 15.6123 15.1372ZM16.2802 14.1177V11.7739H16.913C17.5927 11.7739 17.9091 12.2544 17.9091 12.9341C17.9091 13.6138 17.6396 14.1177 16.9365 14.1177H16.2802ZM16.2802 10.8599V8.73877H16.9248C17.5458 8.73877 17.7685 9.14892 17.7685 9.7583C17.7685 10.4145 17.4873 10.8599 16.8427 10.8599H16.2802ZM22.1513 15.3013C23.5224 15.3013 24.2607 14.4224 24.2607 13.1216C24.2607 11.9263 23.6279 11.3872 22.7724 10.9653L22.3505 10.7661C21.7998 10.4849 21.4248 10.1802 21.4248 9.54736C21.4248 9.05518 21.6591 8.64502 22.1279 8.64502C22.6201 8.64502 22.8193 9.04346 22.9365 9.52392C23.0068 9.79346 23.2529 9.95752 23.5576 9.95752C23.8974 9.95752 24.1084 9.72314 24.1084 9.40674C24.1084 9.25439 24.0732 9.09033 24.0146 8.92627C23.7451 8.10596 23.0771 7.53174 22.1279 7.53174C21.0263 7.53174 20.124 8.28174 20.124 9.66455C20.124 10.8364 20.8037 11.3989 21.5888 11.8091L21.999 12.0083C22.5849 12.313 22.9482 12.5942 22.9482 13.2505C22.9482 13.8013 22.6669 14.2114 22.163 14.2114C21.6591 14.2114 21.4248 13.8364 21.3076 13.3325C21.2138 13.0161 21.0146 12.8521 20.6865 12.8521C20.3232 12.8521 20.1123 13.1099 20.1123 13.4614C20.1123 13.5786 20.1357 13.7075 20.1591 13.8247C20.4052 14.7388 21.1084 15.3013 22.1513 15.3013Z" fill="black" fill-opacity="0.85"/>
</g>
<defs>
<clipPath id="clip0_2207_15982">
<rect width="33.4453" height="22.8633" fill="white" transform="translate(0.0146484 0.00830078)"/>
</clipPath>
</defs>
</svg>
