<svg width="24" height="24" viewBox="0 0 24 24" fill="none" xmlns="http://www.w3.org/2000/svg">
<g clip-path="url(#clip0_2207_2502)">
<path d="M11.9804 23.9145C18.5195 23.9145 23.9335 18.4888 23.9335 11.9614C23.9335 5.42236 18.5078 0.00830078 11.9687 0.00830078C5.4414 0.00830078 0.0273438 5.42236 0.0273438 11.9614C0.0273438 18.4888 5.45312 23.9145 11.9804 23.9145Z" fill="black" fill-opacity="0.85"/>
<path d="M11.9804 7.8833C13.7031 7.8833 16.1406 7.59033 17.3007 7.40283C17.4062 7.39111 17.5117 7.35596 17.6289 7.35596C17.9218 7.35596 18.25 7.61377 18.25 8.04736C18.25 8.37549 18.0507 8.65674 17.7343 8.73877C17.3476 8.85596 14.5937 9.17236 14.2539 9.23096C13.9023 9.30127 13.7031 9.59424 13.7031 10.0044C13.7031 10.6372 13.7031 12.6411 13.8437 13.5552C13.9843 14.4692 15.0507 18.8286 15.0859 19.0161C15.2148 19.4849 14.9453 19.9067 14.4648 19.9067C14.1367 19.9067 13.8906 19.7192 13.7734 19.2622C13.5625 18.3833 12.7773 15.3599 12.5781 14.6333C12.4023 14.106 12.2734 13.9185 11.9804 13.9185C11.6757 13.9185 11.5468 14.106 11.4062 14.6333C11.1601 15.3599 10.3984 18.3833 10.1875 19.2622C10.0585 19.7192 9.82423 19.9067 9.4961 19.9067C9.01563 19.9067 8.73438 19.4849 8.86329 19.0161C8.91016 18.8286 9.96485 14.4692 10.1054 13.5552C10.2695 12.6411 10.2812 10.6372 10.2695 10.0044C10.2578 9.59424 10.0468 9.30127 9.70704 9.23096C9.35547 9.17236 6.61329 8.85596 6.21485 8.73877C5.91016 8.65674 5.71094 8.37549 5.71094 8.04736C5.71094 7.61377 6.02735 7.35596 6.32032 7.35596C6.44923 7.35596 6.54297 7.39111 6.64844 7.40283C7.82032 7.59033 10.2695 7.8833 11.9804 7.8833ZM11.9804 7.08642C11.1132 7.08642 10.4101 6.37158 10.4101 5.51611C10.4101 4.63721 11.1132 3.93408 11.9804 3.93408C12.8476 3.93408 13.5507 4.63721 13.5507 5.51611C13.5507 6.37158 12.8476 7.08642 11.9804 7.08642Z" fill="white"/>
</g>
<defs>
<clipPath id="clip0_2207_2502">
<rect width="23.9062" height="23.918" fill="white" transform="translate(0.0273438 0.00830078)"/>
</clipPath>
</defs>
</svg>
