<svg width="23" height="28" viewBox="0 0 23 28" fill="none" xmlns="http://www.w3.org/2000/svg">
<g clip-path="url(#clip0_2207_11850)">
<path d="M3.66101 25.4966H14.2313C16.6219 25.4966 17.8407 24.2778 17.8407 21.9224V3.5708C17.8407 1.20361 16.5985 0.00830078 14.2313 0.00830078H3.66101C1.29383 0.00830078 0.039917 1.20361 0.039917 3.5708V21.9224C0.039917 24.2778 1.27039 25.4966 3.66101 25.4966ZM4.78601 6.50049C3.84851 6.50049 3.0868 5.72705 3.0868 4.77783C3.0868 3.85205 3.84851 3.09033 4.78601 3.09033C5.72351 3.09033 6.49695 3.85205 6.49695 4.77783C6.49695 5.72705 5.72351 6.50049 4.78601 6.50049ZM3.7782 16.3091C3.35633 16.3091 3.01648 15.981 3.01648 15.5474C3.01648 15.1255 3.35633 14.7856 3.7782 14.7856H7.29383C7.72742 14.7856 8.06726 15.1255 8.06726 15.5474C8.06726 15.981 7.72742 16.3091 7.29383 16.3091H3.7782ZM3.7782 19.3325C3.35633 19.3325 3.01648 19.0044 3.01648 18.5708C3.01648 18.1372 3.35633 17.8091 3.7782 17.8091H7.29383C7.72742 17.8091 8.06726 18.1372 8.06726 18.5708C8.06726 19.0044 7.72742 19.3325 7.29383 19.3325H3.7782ZM3.7782 22.356C3.35633 22.356 3.01648 22.0161 3.01648 21.5942C3.01648 21.1606 3.35633 20.8208 3.7782 20.8208H7.29383C7.72742 20.8208 8.06726 21.1606 8.06726 21.5942C8.06726 22.0161 7.72742 22.356 7.29383 22.356H3.7782ZM10.5868 16.3091C10.1532 16.3091 9.81336 15.981 9.81336 15.5474C9.81336 15.1255 10.1532 14.7856 10.5868 14.7856H14.1024C14.5243 14.7856 14.8641 15.1255 14.8641 15.5474C14.8641 15.981 14.5243 16.3091 14.1024 16.3091H10.5868ZM10.5868 19.3325C10.1532 19.3325 9.81336 19.0044 9.81336 18.5708C9.81336 18.1372 10.1532 17.8091 10.5868 17.8091H14.1024C14.5243 17.8091 14.8641 18.1372 14.8641 18.5708C14.8641 19.0044 14.5243 19.3325 14.1024 19.3325H10.5868ZM10.5868 22.356C10.1532 22.356 9.81336 22.0161 9.81336 21.5942C9.81336 21.1606 10.1532 20.8208 10.5868 20.8208H14.1024C14.5243 20.8208 14.8641 21.1606 14.8641 21.5942C14.8641 22.0161 14.5243 22.356 14.1024 22.356H10.5868ZM3.43836 27.5591C4.00086 27.5591 4.37586 27.1724 4.37586 26.6099V24.313H2.48914V26.6099C2.48914 27.1724 2.87586 27.5591 3.43836 27.5591ZM14.4422 27.5591C15.0165 27.5591 15.3915 27.1724 15.3915 26.6099V24.313H13.5047V26.6099C13.5047 27.1724 13.8797 27.5591 14.4422 27.5591Z" fill="white"/>
<path d="M12.5204 6.12549C11.6297 6.12549 10.7743 5.92627 10.0008 5.4458C9.50865 5.16455 9.48521 4.64892 9.69615 4.3208C9.88365 4.01611 10.2821 3.86377 10.6805 4.08642C11.3602 4.47314 11.8876 4.61377 12.5204 4.61377C15.204 4.61377 16.8329 2.05908 20.0087 2.05908C20.8993 2.05908 21.743 2.28174 22.5282 2.73877C23.0438 3.03174 23.0555 3.54736 22.8329 3.88721C22.6454 4.15674 22.2704 4.3208 21.8485 4.08642C21.1688 3.71142 20.6415 3.58252 20.0087 3.58252C17.2782 3.58252 15.6493 6.12549 12.5204 6.12549ZM12.5321 9.39502C11.6415 9.39502 10.786 9.18408 10.0126 8.71533C9.50865 8.43408 9.48521 7.91846 9.69615 7.59033C9.88365 7.28564 10.2938 7.12158 10.6922 7.35596C11.3602 7.73096 11.8876 7.8833 12.5321 7.8833C15.2157 7.8833 16.8446 5.31689 20.0087 5.31689C20.8993 5.31689 21.7547 5.53955 22.5516 5.99658C23.0555 6.28955 23.0555 6.81689 22.8446 7.14502C22.6571 7.42627 22.2704 7.59033 21.8602 7.35596C21.1805 6.96924 20.6532 6.84033 20.0087 6.84033C17.2899 6.84033 15.6493 9.39502 12.5321 9.39502ZM12.5204 12.6528C11.6297 12.6528 10.7743 12.4536 10.0008 11.9731C9.50865 11.6919 9.48521 11.1763 9.69615 10.8481C9.88365 10.5435 10.2821 10.3911 10.6805 10.6138C11.3602 11.0005 11.8876 11.1411 12.5204 11.1411C15.204 11.1411 16.8329 8.58642 20.0087 8.58642C20.8993 8.58642 21.743 8.80908 22.5282 9.26611C23.0438 9.55908 23.0555 10.0747 22.8329 10.4145C22.6454 10.6841 22.2704 10.8481 21.8485 10.6138C21.1688 10.2388 20.6415 10.1099 20.0087 10.1099C17.2782 10.1099 15.6493 12.6528 12.5204 12.6528Z" fill="white"/>
<path d="M3.66101 25.4966H14.2313C16.6219 25.4966 17.8407 24.2778 17.8407 21.9224V3.5708C17.8407 1.20361 16.5985 0.00830078 14.2313 0.00830078H3.66101C1.29383 0.00830078 0.039917 1.20361 0.039917 3.5708V21.9224C0.039917 24.2778 1.27039 25.4966 3.66101 25.4966ZM4.78601 6.50049C3.84851 6.50049 3.0868 5.72705 3.0868 4.77783C3.0868 3.85205 3.84851 3.09033 4.78601 3.09033C5.72351 3.09033 6.49695 3.85205 6.49695 4.77783C6.49695 5.72705 5.72351 6.50049 4.78601 6.50049ZM3.7782 16.3091C3.35633 16.3091 3.01648 15.981 3.01648 15.5474C3.01648 15.1255 3.35633 14.7856 3.7782 14.7856H7.29383C7.72742 14.7856 8.06726 15.1255 8.06726 15.5474C8.06726 15.981 7.72742 16.3091 7.29383 16.3091H3.7782ZM3.7782 19.3325C3.35633 19.3325 3.01648 19.0044 3.01648 18.5708C3.01648 18.1372 3.35633 17.8091 3.7782 17.8091H7.29383C7.72742 17.8091 8.06726 18.1372 8.06726 18.5708C8.06726 19.0044 7.72742 19.3325 7.29383 19.3325H3.7782ZM3.7782 22.356C3.35633 22.356 3.01648 22.0161 3.01648 21.5942C3.01648 21.1606 3.35633 20.8208 3.7782 20.8208H7.29383C7.72742 20.8208 8.06726 21.1606 8.06726 21.5942C8.06726 22.0161 7.72742 22.356 7.29383 22.356H3.7782ZM10.5868 16.3091C10.1532 16.3091 9.81336 15.981 9.81336 15.5474C9.81336 15.1255 10.1532 14.7856 10.5868 14.7856H14.1024C14.5243 14.7856 14.8641 15.1255 14.8641 15.5474C14.8641 15.981 14.5243 16.3091 14.1024 16.3091H10.5868ZM10.5868 19.3325C10.1532 19.3325 9.81336 19.0044 9.81336 18.5708C9.81336 18.1372 10.1532 17.8091 10.5868 17.8091H14.1024C14.5243 17.8091 14.8641 18.1372 14.8641 18.5708C14.8641 19.0044 14.5243 19.3325 14.1024 19.3325H10.5868ZM10.5868 22.356C10.1532 22.356 9.81336 22.0161 9.81336 21.5942C9.81336 21.1606 10.1532 20.8208 10.5868 20.8208H14.1024C14.5243 20.8208 14.8641 21.1606 14.8641 21.5942C14.8641 22.0161 14.5243 22.356 14.1024 22.356H10.5868ZM12.5204 6.12549C11.6297 6.12549 10.7743 5.92627 10.0009 5.4458C9.50867 5.16455 9.48523 4.64892 9.69617 4.3208C9.88367 4.01611 10.2821 3.86377 10.6805 4.08642C11.3602 4.47314 11.8876 4.61377 12.5204 4.61377C15.204 4.61377 16.8329 2.05908 20.0087 2.05908C20.8993 2.05908 21.743 2.28174 22.5282 2.73877C23.0438 3.03174 23.0555 3.54736 22.8329 3.88721C22.6454 4.15674 22.2704 4.3208 21.8485 4.08642C21.1688 3.71142 20.6415 3.58252 20.0087 3.58252C17.2782 3.58252 15.6493 6.12549 12.5204 6.12549ZM12.5321 9.39502C11.6415 9.39502 10.786 9.18408 10.0126 8.71533C9.50867 8.43408 9.48523 7.91846 9.69617 7.59033C9.88367 7.28564 10.2938 7.12158 10.6922 7.35596C11.3602 7.73096 11.8876 7.8833 12.5321 7.8833C15.2157 7.8833 16.8446 5.31689 20.0087 5.31689C20.8993 5.31689 21.7547 5.53955 22.5516 5.99658C23.0555 6.28955 23.0555 6.81689 22.8446 7.14502C22.6571 7.42627 22.2704 7.59033 21.8602 7.35596C21.1805 6.96924 20.6532 6.84033 20.0087 6.84033C17.2899 6.84033 15.6493 9.39502 12.5321 9.39502ZM12.5204 12.6528C11.6297 12.6528 10.7743 12.4536 10.0009 11.9731C9.50867 11.6919 9.48523 11.1763 9.69617 10.8481C9.88367 10.5435 10.2821 10.3911 10.6805 10.6138C11.3602 11.0005 11.8876 11.1411 12.5204 11.1411C15.204 11.1411 16.8329 8.58642 20.0087 8.58642C20.8993 8.58642 21.743 8.80908 22.5282 9.26611C23.0438 9.55908 23.0555 10.0747 22.8329 10.4145C22.6454 10.6841 22.2704 10.8481 21.8485 10.6138C21.1688 10.2388 20.6415 10.1099 20.0087 10.1099C17.2782 10.1099 15.6493 12.6528 12.5204 12.6528ZM3.43836 27.5591C4.00086 27.5591 4.37586 27.1724 4.37586 26.6099V24.313H2.48914V26.6099C2.48914 27.1724 2.87586 27.5591 3.43836 27.5591ZM14.4422 27.5591C15.0165 27.5591 15.3915 27.1724 15.3915 26.6099V24.313H13.5047V26.6099C13.5047 27.1724 13.8797 27.5591 14.4422 27.5591Z" fill="black" fill-opacity="0.85"/>
</g>
<defs>
<clipPath id="clip0_2207_11850">
<rect width="22.9379" height="27.5742" fill="white" transform="translate(0.039917 0.00830078)"/>
</clipPath>
</defs>
</svg>
