<svg width="23" height="28" viewBox="0 0 23 28" fill="none" xmlns="http://www.w3.org/2000/svg">
<g clip-path="url(#clip0_2207_11845)">
<path d="M3.65893 25.4966H14.2292C16.6198 25.4966 17.8386 24.2778 17.8386 21.9224V3.5708C17.8386 1.20361 16.5964 0.00830078 14.2292 0.00830078H3.65893C1.29175 0.00830078 0.0378418 1.20361 0.0378418 3.5708V21.9224C0.0378418 24.2778 1.26831 25.4966 3.65893 25.4966ZM1.92456 21.8286V3.67627C1.92456 2.51611 2.58081 1.89502 3.68237 1.89502H14.194C15.2956 1.89502 15.9519 2.51611 15.9519 3.67627V21.8286C15.9519 22.9771 15.2956 23.6099 14.194 23.6099H3.68237C2.58081 23.6099 1.92456 22.9771 1.92456 21.8286ZM5.03003 6.80518C5.93237 6.80518 6.68237 6.05518 6.68237 5.14111C6.68237 4.23877 5.93237 3.50049 5.03003 3.50049C4.11596 3.50049 3.37768 4.23877 3.37768 5.14111C3.37768 6.05518 4.11596 6.80518 5.03003 6.80518ZM4.04565 16.0864H7.45581C7.87768 16.0864 8.20581 15.77 8.20581 15.3481C8.20581 14.938 7.87768 14.6099 7.45581 14.6099H4.04565C3.6355 14.6099 3.30737 14.938 3.30737 15.3481C3.30737 15.77 3.6355 16.0864 4.04565 16.0864ZM4.04565 19.0161H7.45581C7.87768 19.0161 8.20581 18.6997 8.20581 18.2778C8.20581 17.856 7.87768 17.5395 7.45581 17.5395H4.04565C3.6355 17.5395 3.30737 17.856 3.30737 18.2778C3.30737 18.6997 3.6355 19.0161 4.04565 19.0161ZM4.04565 21.9458H7.45581C7.87768 21.9458 8.20581 21.6177 8.20581 21.2075C8.20581 20.7856 7.87768 20.4575 7.45581 20.4575H4.04565C3.6355 20.4575 3.30737 20.7856 3.30737 21.2075C3.30737 21.6177 3.6355 21.9458 4.04565 21.9458ZM10.4206 16.0864H13.8308C14.2409 16.0864 14.569 15.77 14.569 15.3481C14.569 14.938 14.2409 14.6099 13.8308 14.6099H10.4206C9.99878 14.6099 9.67065 14.938 9.67065 15.3481C9.67065 15.77 9.99878 16.0864 10.4206 16.0864ZM10.4206 19.0161H13.8308C14.2409 19.0161 14.569 18.6997 14.569 18.2778C14.569 17.856 14.2409 17.5395 13.8308 17.5395H10.4206C9.99878 17.5395 9.67065 17.856 9.67065 18.2778C9.67065 18.6997 9.99878 19.0161 10.4206 19.0161ZM10.4206 21.9458H13.8308C14.2409 21.9458 14.569 21.6177 14.569 21.2075C14.569 20.7856 14.2409 20.4575 13.8308 20.4575H10.4206C9.99878 20.4575 9.67065 20.7856 9.67065 21.2075C9.67065 21.6177 9.99878 21.9458 10.4206 21.9458ZM3.43628 27.5591C3.99878 27.5591 4.37378 27.1724 4.37378 26.6099V24.313H2.48706V26.6099C2.48706 27.1724 2.87378 27.5591 3.43628 27.5591ZM14.4401 27.5591C15.0144 27.5591 15.3894 27.1724 15.3894 26.6099V24.313H13.5026V26.6099C13.5026 27.1724 13.8776 27.5591 14.4401 27.5591Z" fill="black" fill-opacity="0.85"/>
<path d="M12.5183 6.14892C15.6472 6.14892 17.2761 3.60596 20.0066 3.60596C20.6394 3.60596 21.1667 3.73486 21.8464 4.12158C22.2683 4.34424 22.6433 4.18018 22.8308 3.91064C23.0534 3.5708 23.0417 3.05518 22.5261 2.76221C21.7409 2.30518 20.8972 2.08252 20.0066 2.08252C16.8308 2.08252 15.2019 4.63721 12.5183 4.63721C11.8855 4.63721 11.3581 4.49658 10.6784 4.12158C10.28 3.88721 9.88157 4.03955 9.69407 4.34424C9.48313 4.67236 9.50657 5.19971 9.99876 5.46924C10.7722 5.94971 11.6276 6.14892 12.5183 6.14892ZM12.53 9.39502C15.6472 9.39502 17.2878 6.84033 20.0066 6.84033C20.6511 6.84033 21.1784 6.96924 21.8581 7.35596C22.2683 7.59033 22.655 7.42627 22.8425 7.14502C23.0534 6.81689 23.0534 6.28955 22.5495 5.99658C21.7526 5.53955 20.8972 5.31689 20.0066 5.31689C16.8425 5.31689 15.2136 7.8833 12.53 7.8833C11.8855 7.8833 11.3581 7.73096 10.6901 7.35596C10.2917 7.12158 9.88157 7.28564 9.69407 7.59033C9.48313 7.91846 9.50657 8.43408 10.0105 8.71533C10.7839 9.18408 11.6394 9.39502 12.53 9.39502ZM12.5183 12.6294C15.6472 12.6294 17.2761 10.0864 20.0066 10.0864C20.6394 10.0864 21.1667 10.2153 21.8464 10.5903C22.2683 10.8247 22.6433 10.6606 22.8308 10.3911C23.0534 10.0513 23.0417 9.52392 22.5261 9.24268C21.7409 8.78564 20.8972 8.55127 20.0066 8.55127C16.8308 8.55127 15.2019 11.1177 12.5183 11.1177C11.8855 11.1177 11.3581 10.9771 10.6784 10.5903C10.28 10.3677 9.88157 10.52 9.69407 10.8247C9.48313 11.1528 9.50657 11.6685 9.99876 11.9497C10.7722 12.4185 11.6276 12.6294 12.5183 12.6294Z" fill="black" fill-opacity="0.85"/>
</g>
<defs>
<clipPath id="clip0_2207_11845">
<rect width="22.9379" height="27.5742" fill="white" transform="translate(0.0378418 0.00830078)"/>
</clipPath>
</defs>
</svg>
