<svg width="49" height="21" viewBox="0 0 49 21" fill="none" xmlns="http://www.w3.org/2000/svg">
<g clip-path="url(#clip0_2207_14387)">
<path d="M4.53174 18.2442C4.90674 17.8223 4.78955 17.2715 4.36768 16.791C2.79736 15.045 1.91846 12.7481 1.91846 10.2286C1.91846 7.70899 2.79736 5.41211 4.36768 3.66602C4.78955 3.18555 4.90674 2.63477 4.53174 2.21289C4.15674 1.76758 3.50049 1.7793 3.05518 2.27149C1.10986 4.38086 0.00830078 7.19336 0.00830078 10.2286C0.00830078 13.2637 1.10986 16.0645 3.05518 18.1856C3.50049 18.6778 4.15674 18.6778 4.53174 18.2442ZM43.7075 18.2442C44.0825 18.6778 44.7388 18.6778 45.1958 18.1856C47.1411 16.0645 48.231 13.2637 48.231 10.2286C48.231 7.19336 47.1411 4.38086 45.1958 2.27149C44.7388 1.7793 44.0825 1.76758 43.7075 2.21289C43.3325 2.63477 43.4497 3.18555 43.8716 3.66602C45.4419 5.41211 46.3208 7.70899 46.3208 10.2286C46.3208 12.7481 45.4419 15.045 43.8716 16.791C43.4497 17.2715 43.3325 17.8223 43.7075 18.2442Z" fill="black" fill-opacity="0.85"/>
<path d="M7.81299 14.9042C8.18799 14.4824 8.03564 13.955 7.66064 13.4511C6.95752 12.5722 6.61768 11.4472 6.61768 10.2285C6.61768 9.00968 6.95752 7.87296 7.66064 7.00577C8.03564 6.50187 8.18799 5.97452 7.81299 5.55265C7.42627 5.10734 6.72314 5.10734 6.31299 5.63468C5.29346 6.9003 4.70752 8.50577 4.70752 10.2285C4.70752 11.9511 5.29346 13.5566 6.31299 14.8222C6.72314 15.3495 7.42627 15.3378 7.81299 14.9042ZM40.4263 14.9042C40.813 15.3378 41.5161 15.3495 41.9263 14.8222C42.9458 13.5566 43.5435 11.9511 43.5435 10.2285C43.5435 8.50577 42.9458 6.9003 41.9263 5.63468C41.5161 5.10734 40.813 5.10734 40.4263 5.55265C40.0513 5.97452 40.2036 6.50187 40.5786 7.00577C41.2817 7.87296 41.6333 9.00968 41.6333 10.2285C41.6333 11.4472 41.2817 12.5722 40.5786 13.4511C40.2036 13.955 40.0513 14.4824 40.4263 14.9042Z" fill="black" fill-opacity="0.85"/>
<path d="M17.9614 20.4473H30.2778C35.0708 20.4473 37.3911 18.1504 37.3911 13.3809V7.81446H30.1372C29.9263 8.3418 29.4341 8.68165 28.813 8.68165H19.4263C18.8169 8.68165 18.313 8.3418 18.1255 7.81446H10.8481V13.3809C10.8481 18.1504 13.1685 20.4473 17.9614 20.4473ZM24.1255 13.1465C23.5278 13.1582 23.0474 12.666 23.0474 12.0918C23.0474 11.5059 23.5278 11.0137 24.1255 11.0137C24.7114 11.0137 25.1919 11.5059 25.1919 12.0918C25.1919 12.6426 24.7114 13.1348 24.1255 13.1465ZM10.8481 6.74805H18.1021C18.2895 6.20899 18.7935 5.88086 19.4028 5.88086H28.8013C29.4106 5.88086 29.9145 6.20899 30.1138 6.74805H37.356V6.37305C37.356 2.09571 34.813 0.00976562 30.2427 0.00976562H17.9614C13.3911 0.00976562 10.8481 2.09571 10.8481 6.37305V6.74805Z" fill="black" fill-opacity="0.85"/>
</g>
<defs>
<clipPath id="clip0_2207_14387">
<rect width="48.2227" height="20.4492" fill="white" transform="translate(0.00830078 0.00976562)"/>
</clipPath>
</defs>
</svg>
