<svg width="24" height="24" viewBox="0 0 24 24" fill="none" xmlns="http://www.w3.org/2000/svg">
<g clip-path="url(#clip0_2207_15213)">
<path d="M11.9992 23.9145C18.5383 23.9145 23.9523 18.4888 23.9523 11.9614C23.9523 5.42236 18.5266 0.00830078 11.9875 0.00830078C5.4602 0.00830078 0.0461426 5.42236 0.0461426 11.9614C0.0461426 18.4888 5.47192 23.9145 11.9992 23.9145ZM11.9992 21.9224C6.46802 21.9224 2.05005 17.4927 2.05005 11.9614C2.05005 6.43018 6.4563 2.00049 11.9875 2.00049C17.5188 2.00049 21.9602 6.43018 21.9602 11.9614C21.9602 17.4927 17.5305 21.9224 11.9992 21.9224Z" fill="black" fill-opacity="0.85"/>
<path d="M19.6164 11.9731C19.6164 11.188 18.5852 10.5903 17.3078 10.5903H14.8C14.4953 10.5903 14.4016 10.5552 14.2023 10.3442L10.0305 5.79736C9.87817 5.62158 9.69067 5.53955 9.47973 5.53955H8.75317C8.50708 5.53955 8.36645 5.76221 8.47192 6.0083L10.5578 10.6138L7.63989 10.9536L6.55005 8.96142C6.44458 8.77392 6.28052 8.68018 6.0227 8.68018H5.75317C5.53052 8.68018 5.37817 8.83252 5.37817 9.05518V14.8794C5.37817 15.1021 5.53052 15.2544 5.75317 15.2544H6.0227C6.28052 15.2544 6.44458 15.1606 6.55005 14.9849L7.63989 12.9927L10.5578 13.3208L8.47192 17.9263C8.36645 18.1724 8.50708 18.395 8.75317 18.395H9.47973C9.69067 18.395 9.87817 18.313 10.0305 18.1489L14.2023 13.6021C14.4016 13.3911 14.4953 13.3442 14.8 13.3442H17.3078C18.5852 13.3442 19.6164 12.7466 19.6164 11.9731Z" fill="black" fill-opacity="0.85"/>
</g>
<defs>
<clipPath id="clip0_2207_15213">
<rect width="23.9062" height="23.918" fill="white" transform="translate(0.0461426 0.00830078)"/>
</clipPath>
</defs>
</svg>
