<svg width="11" height="23" viewBox="0 0 11 23" fill="none" xmlns="http://www.w3.org/2000/svg">
<g clip-path="url(#clip0_2207_14329)">
<path d="M5.13638 9.51221C7.65591 9.47705 9.23794 7.95361 9.94107 6.86377C10.1755 6.48877 10.2926 6.07861 10.2926 5.62158V3.89892C10.2926 3.44189 10.1872 3.03174 9.94107 2.65674C9.2145 1.56689 7.65591 0.00830078 5.13638 0.00830078C2.39419 0.00830078 0.109031 2.14111 0.0738749 4.74268C0.0387186 7.37939 2.39419 9.53564 5.13638 9.51221ZM8.15982 6.61768C7.84341 6.61768 7.59732 6.37158 7.59732 6.05518V3.45361C7.59732 3.13721 7.84341 2.89111 8.15982 2.89111C8.47622 2.89111 8.7106 3.13721 8.7106 3.45361V6.05518C8.7106 6.37158 8.47622 6.61768 8.15982 6.61768ZM4.53872 18.9692V10.6138C3.30825 10.52 2.15982 10.0513 1.23403 9.33642V18.9692H4.53872ZM3.39028 22.8364C4.09341 22.8364 4.53872 22.4849 4.53872 21.7935V20.1411H1.23403V21.7935C1.23403 22.4849 1.67935 22.8364 2.39419 22.8364H3.39028Z" fill="black" fill-opacity="0.85"/>
</g>
<defs>
<clipPath id="clip0_2207_14329">
<rect width="10.2191" height="22.8633" fill="white" transform="translate(0.0734863 0.00830078)"/>
</clipPath>
</defs>
</svg>
