<svg width="27" height="21" viewBox="0 0 27 21" fill="none" xmlns="http://www.w3.org/2000/svg">
<g clip-path="url(#clip0_2207_14373)">
<path d="M7.10376 20.4473H19.4319C24.2249 20.4473 26.5334 18.1504 26.5334 13.3809V7.07618C26.5334 2.30665 24.2249 0.00976562 19.4319 0.00976562H7.10376C2.32251 0.00976562 0.00219727 2.30665 0.00219727 7.07618V13.3809C0.00219727 18.1504 2.32251 20.4473 7.10376 20.4473ZM7.10376 18.5606C3.50611 18.5606 1.88892 16.9551 1.88892 13.3809V7.07618C1.88892 3.50196 3.50611 1.89649 7.10376 1.89649H19.4319C23.0413 1.89649 24.6467 3.50196 24.6467 7.07618V13.3809C24.6467 16.9551 23.0413 18.5606 19.4319 18.5606H7.10376ZM0.951416 7.87305H25.5842V6.68946H0.951416V7.87305ZM8.58032 8.68165H17.967C18.7874 8.68165 19.3733 8.10743 19.3733 7.27539C19.3733 6.45508 18.7874 5.88086 17.967 5.88086H8.58032C7.78345 5.88086 7.16236 6.45508 7.16236 7.27539C7.16236 8.10743 7.78345 8.68165 8.58032 8.68165ZM13.2678 12.6778C13.8889 12.666 14.4045 12.1504 14.4045 11.5645C14.4045 10.9434 13.8889 10.4278 13.2678 10.4278C12.6467 10.4278 12.1428 10.9434 12.1428 11.5645C12.1428 12.1739 12.6467 12.6895 13.2678 12.6778Z" fill="black" fill-opacity="0.85"/>
</g>
<defs>
<clipPath id="clip0_2207_14373">
<rect width="26.5312" height="20.4492" fill="white" transform="translate(0.00219727 0.00976562)"/>
</clipPath>
</defs>
</svg>
