<svg width="20" height="24" viewBox="0 0 20 24" fill="none" xmlns="http://www.w3.org/2000/svg">
<g clip-path="url(#clip0_2207_14337)">
<path d="M5.99243 23.2817H13.2346C17.219 23.2817 19.1409 21.3599 19.1409 17.3755V7.81299H14.1839C13.9729 8.28174 13.4807 8.60986 12.8596 8.60986H6.36743C5.76977 8.60986 5.26587 8.28174 5.05493 7.81299H0.0861816V17.3755C0.0861816 21.3599 2.00806 23.2817 5.99243 23.2817ZM0.0861816 6.62939H5.05493C5.26587 6.14892 5.76977 5.8208 6.36743 5.8208H12.8596C13.4807 5.8208 13.9729 6.14892 14.1839 6.62939H19.1409V5.91455C19.1409 1.93018 17.219 0.00830078 13.2346 0.00830078H5.99243C2.00806 0.00830078 0.0861816 1.93018 0.0861816 5.91455V6.62939Z" fill="black" fill-opacity="0.85"/>
</g>
<defs>
<clipPath id="clip0_2207_14337">
<rect width="19.0547" height="23.2852" fill="white" transform="translate(0.0861816 0.00830078)"/>
</clipPath>
</defs>
</svg>
