<svg width="20" height="24" viewBox="0 0 20 24" fill="none" xmlns="http://www.w3.org/2000/svg">
<g clip-path="url(#clip0_2207_14345)">
<path d="M9.61767 13.3911C9.03174 13.4028 8.53955 12.8989 8.53955 12.3247C8.53955 11.7388 9.03174 11.2466 9.61767 11.2466C10.2036 11.2466 10.6958 11.7388 10.6958 12.3247C10.6958 12.8755 10.2036 13.3794 9.61767 13.3911ZM5.99658 23.2817H13.2387C17.2231 23.2817 19.145 21.3599 19.145 17.3755V7.81299H14.188C13.977 8.28174 13.4848 8.60986 12.8637 8.60986H6.37158C5.77392 8.60986 5.27002 8.28174 5.05908 7.81299H0.090332V17.3755C0.090332 21.3599 2.01221 23.2817 5.99658 23.2817ZM0.090332 6.62939H5.05908C5.27002 6.14892 5.77392 5.8208 6.37158 5.8208H12.8637C13.4848 5.8208 13.977 6.14892 14.188 6.62939H19.145V5.91455C19.145 1.93018 17.2231 0.00830078 13.2387 0.00830078H5.99658C2.01221 0.00830078 0.090332 1.93018 0.090332 5.91455V6.62939Z" fill="black" fill-opacity="0.85"/>
</g>
<defs>
<clipPath id="clip0_2207_14345">
<rect width="19.0547" height="23.2852" fill="white" transform="translate(0.090332 0.00830078)"/>
</clipPath>
</defs>
</svg>
