<svg width="24" height="24" viewBox="0 0 24 24" fill="none" xmlns="http://www.w3.org/2000/svg">
<g clip-path="url(#clip0_2207_14913)">
<path d="M12.0183 23.9145C18.5574 23.9145 23.9714 18.4888 23.9714 11.9614C23.9714 5.42236 18.5457 0.00830078 12.0066 0.00830078C5.47925 0.00830078 0.0651855 5.42236 0.0651855 11.9614C0.0651855 18.4888 5.49097 23.9145 12.0183 23.9145ZM12.0183 21.9224C6.48707 21.9224 2.0691 17.4927 2.0691 11.9614C2.0691 6.43018 6.47535 2.00049 12.0066 2.00049C17.5379 2.00049 21.9793 6.43018 21.9793 11.9614C21.9793 17.4927 17.5496 21.9224 12.0183 21.9224Z" fill="black" fill-opacity="0.85"/>
<path d="M15.4168 17.8911C15.8035 17.8911 15.9793 17.4692 15.7214 17.188L12.3464 13.3677C12.1824 13.1685 11.8425 13.1685 11.655 13.3677L8.2683 17.188C8.01049 17.4692 8.20971 17.8911 8.57299 17.8911H15.4168ZM17.0105 7.02783H6.97924C6.00659 7.02783 5.33862 7.70752 5.33862 8.66846V14.1763C5.33862 15.1372 6.00659 15.8052 6.97924 15.8052H8.22143L9.27612 14.6216H7.11987C6.80346 14.6216 6.5808 14.3989 6.5808 14.0708V8.77392C6.5808 8.43408 6.80346 8.21142 7.11987 8.21142H16.8816C17.2097 8.21142 17.4324 8.43408 17.4324 8.77392V14.0708C17.4324 14.3989 17.2097 14.6216 16.8816 14.6216H14.7254L15.7683 15.8052H17.0105C17.9832 15.8052 18.6746 15.1372 18.6746 14.1763V8.66846C18.6746 7.70752 17.9832 7.02783 17.0105 7.02783Z" fill="black" fill-opacity="0.85"/>
</g>
<defs>
<clipPath id="clip0_2207_14913">
<rect width="23.9062" height="23.918" fill="white" transform="translate(0.0651855 0.00830078)"/>
</clipPath>
</defs>
</svg>
