<svg width="16" height="28" viewBox="0 0 16 28" fill="none" xmlns="http://www.w3.org/2000/svg">
<g clip-path="url(#clip0_2207_13323)">
<path d="M11.3701 23.7403C11.9208 23.7403 12.3779 23.2832 12.3779 22.709C12.3779 22.1582 11.9208 21.7012 11.3701 21.7012C10.7958 21.7012 10.3505 22.1582 10.3505 22.709C10.3505 23.2832 10.7958 23.7403 11.3701 23.7403ZM0.0146484 23.4825C0.0146484 25.9082 1.24512 27.1153 3.69434 27.1153H12.0849C14.5224 27.1153 15.7529 25.9082 15.7529 23.4825V5.86915C15.7529 4.95508 15.5537 4.35743 15.0029 3.68946L13.1865 1.47461C12.4365 0.560547 11.663 0.103516 10.7138 0.103516H5.05371C4.10449 0.103516 3.34277 0.560547 2.58106 1.47461L0.764648 3.68946C0.213867 4.35743 0.0146484 4.95508 0.0146484 5.86915V23.4825ZM1.90137 23.3887V6.85352C2.21777 7.0293 2.55762 7.08789 2.96777 7.08789H12.7998C13.2216 7.08789 13.5615 7.0293 13.8662 6.85352V23.3887C13.8662 24.6075 13.2216 25.2286 12.0498 25.2286H3.71777C2.5459 25.2286 1.90137 24.6075 1.90137 23.3887ZM2.47559 4.34571L3.95215 2.54102C4.47949 1.91993 4.76074 1.58008 5.5459 1.58008H10.2216C11.0185 1.58008 11.2998 1.91993 11.8154 2.54102L13.2919 4.34571C13.538 4.63868 13.4912 5.20118 12.8584 5.20118H2.90918C2.27637 5.20118 2.24121 4.63868 2.47559 4.34571Z" fill="black" fill-opacity="0.85"/>
</g>
<defs>
<clipPath id="clip0_2207_13323">
<rect width="15.7383" height="27.1055" fill="white" transform="translate(0.0146484 0.00976562)"/>
</clipPath>
</defs>
</svg>
