<svg width="18" height="24" viewBox="0 0 18 24" fill="none" xmlns="http://www.w3.org/2000/svg">
<g clip-path="url(#clip0_2207_14357)">
<path d="M10.111 21.9342H11.0251C11.7517 21.9342 12.2204 21.5592 12.2204 20.8326V11.1646L8.89233 12.067V20.8326C8.89233 21.5592 9.3728 21.9342 10.111 21.9342Z" fill="black" fill-opacity="0.85"/>
<path d="M11.8104 0.00839137C9.4549 -0.00332742 6.85334 1.12167 5.11897 3.53573C4.56819 4.23886 3.47834 6.04355 3.54865 7.68417L5.88068 13.7662C10.1229 13.9537 12.0213 13.356 13.6268 12.442C15.8299 11.1881 17.6815 9.03183 17.6815 5.91464C17.6815 2.22323 14.9744 0.0318289 11.8104 0.00839137Z" fill="white"/>
<path d="M11.7986 1.20378C9.78296 1.18035 7.5564 2.16472 6.0564 4.25066C5.63453 4.778 4.76734 6.23113 4.72046 7.43816L7.68531 12.5944C10.4743 12.5593 11.8337 12.1022 13.0407 11.4226C14.9626 10.3093 16.486 8.50456 16.486 5.91472C16.486 2.92644 14.3767 1.22722 11.7986 1.20378ZM12.2439 6.23113C12.0095 6.43035 11.6579 6.40691 11.4587 6.16081C11.2595 5.91472 11.2829 5.56316 11.529 5.36394L13.2517 3.91081C13.486 3.7116 13.8493 3.74675 14.0368 3.99285C14.236 4.22722 14.2243 4.57878 13.9782 4.778L12.2439 6.23113Z" fill="black" fill-opacity="0.85"/>
<path d="M5.47045 15.0669C7.81421 15.0669 10.0291 13.5083 10.0291 10.5317C10.0291 7.90674 7.65014 5.23486 4.50952 5.23486C1.69702 5.23486 0.079834 7.49658 0.079834 9.72314C0.079834 12.9575 2.83374 15.0669 5.47045 15.0669Z" fill="white"/>
<path d="M5.47045 13.9302C7.29858 13.9302 8.90405 12.8052 8.90405 10.5317C8.90405 8.50439 6.99389 6.35986 4.50952 6.35986C2.41186 6.35986 1.20483 8.02393 1.20483 9.72314C1.20483 12.2661 3.3728 13.9302 5.47045 13.9302ZM4.89624 12.1489C4.55639 12.4419 4.00561 12.1489 3.30249 11.3169C2.6228 10.4849 2.44702 9.91064 2.77514 9.62939C3.12671 9.32471 3.66577 9.60596 4.36889 10.4497C5.03686 11.3052 5.22436 11.8677 4.89624 12.1489Z" fill="black" fill-opacity="0.85"/>
</g>
<defs>
<clipPath id="clip0_2207_14357">
<rect width="17.6016" height="23.1213" fill="white" transform="translate(0.079834 0.00830078)"/>
</clipPath>
</defs>
</svg>
