<svg width="32" height="21" viewBox="0 0 32 21" fill="none" xmlns="http://www.w3.org/2000/svg">
<g clip-path="url(#clip0_2207_13102)">
<path d="M26.8357 18.3731C27.2107 18.8067 27.867 18.8067 28.3123 18.3145C30.2693 16.1934 31.3591 13.3926 31.3591 10.3575C31.3591 7.32227 30.2693 4.50977 28.3123 2.40039C27.867 1.90821 27.2107 1.89649 26.8357 2.3418C26.4607 2.76368 26.5779 3.31446 26.9998 3.79493C28.5701 5.54102 29.449 7.83789 29.449 10.3575C29.449 12.877 28.5701 15.1739 26.9998 16.92C26.5779 17.4004 26.4607 17.9512 26.8357 18.3731Z" fill="black" fill-opacity="0.85"/>
<path d="M23.5544 15.0331C23.9412 15.4667 24.6443 15.4785 25.0544 14.9511C26.074 13.6855 26.6716 12.08 26.6716 10.3574C26.6716 8.63468 26.074 7.02921 25.0544 5.76359C24.6443 5.23624 23.9412 5.23624 23.5544 5.68156C23.1794 6.10343 23.3318 6.63077 23.7068 7.13468C24.4099 8.00187 24.7615 9.13859 24.7615 10.3574C24.7615 11.5761 24.4099 12.7011 23.7068 13.58C23.3318 14.0839 23.1794 14.6113 23.5544 15.0331Z" fill="black" fill-opacity="0.85"/>
<path d="M10.3709 20.7051C16.0193 20.7051 20.7185 16.0059 20.7185 10.3575C20.7185 4.70899 16.031 0.00976562 10.3826 0.00976562C4.73413 0.00976562 0.0231934 4.70899 0.0231934 10.3575C0.0231934 16.0059 4.72241 20.7051 10.3709 20.7051ZM10.4763 13.8731C9.77319 13.8731 9.5271 14.2481 8.9646 14.2481C8.37866 14.2481 7.99194 13.7442 7.53491 13.0996C7.01928 12.3379 6.58569 11.1778 6.58569 10.0645C6.58569 8.29493 7.73413 7.34571 8.88257 7.34571C9.48022 7.34571 9.98413 7.75586 10.3591 7.75586C10.7224 7.75586 11.2849 7.33399 11.9646 7.33399C12.2341 7.33399 13.1716 7.34571 13.781 8.22461C13.7224 8.28321 12.7966 8.79883 12.7966 9.98243C12.7966 11.3301 13.9802 11.8106 14.0154 11.834C14.0154 11.8575 13.8396 12.4903 13.3943 13.1231C13.0076 13.6739 12.5857 14.2364 11.9646 14.2364C11.3435 14.2364 11.1912 13.8731 10.4763 13.8731ZM11.6482 6.57227C11.3435 6.94727 10.8279 7.22852 10.406 7.22852C10.3591 7.22852 10.324 7.2168 10.2771 7.2168C10.2771 7.19336 10.2654 7.12305 10.2654 7.05274C10.2654 6.57227 10.5232 6.11524 10.7693 5.81055C11.1091 5.42383 11.6482 5.13086 12.117 5.11915C12.1287 5.16602 12.1287 5.23633 12.1287 5.29493C12.1287 5.77539 11.9294 6.23243 11.6482 6.57227Z" fill="black" fill-opacity="0.85"/>
</g>
<defs>
<clipPath id="clip0_2207_13102">
<rect width="31.3359" height="20.707" fill="white" transform="translate(0.0231934 0.00976562)"/>
</clipPath>
</defs>
</svg>
