<svg width="24" height="24" viewBox="0 0 24 24" fill="none" xmlns="http://www.w3.org/2000/svg">
<g clip-path="url(#clip0_2207_13108)">
<path d="M11.9699 23.916C18.509 23.916 23.923 18.4903 23.923 11.9629C23.923 5.42383 18.4973 0.00976562 11.9582 0.00976562C5.43091 0.00976562 0.0168457 5.42383 0.0168457 11.9629C0.0168457 18.4903 5.44263 23.916 11.9699 23.916ZM11.9699 21.8536C6.4856 21.8536 2.09107 17.4473 2.09107 11.9629C2.09107 6.4668 6.47388 2.06055 11.9582 2.06055C17.4426 2.06055 21.8606 6.4668 21.8723 11.9629C21.884 17.4473 17.4543 21.8536 11.9699 21.8536ZM11.9699 20.7286C16.8332 20.7286 20.7473 16.8145 20.7356 11.9629C20.7238 7.09961 16.8215 3.19727 11.9582 3.19727C7.10669 3.19727 3.21607 7.09961 3.21607 11.9629C3.21607 16.8262 7.11841 20.7286 11.9699 20.7286ZM11.9699 19.6621C7.70435 19.6621 4.28247 16.2403 4.28247 11.9629C4.28247 7.68555 7.69263 4.26368 11.9582 4.26368C16.2356 4.26368 19.6574 7.68555 19.6691 11.9629C19.6809 16.2286 16.2473 19.6621 11.9699 19.6621ZM12.0637 15.127C12.7316 15.127 12.8723 15.4668 13.4582 15.4668C14.0324 15.4668 14.4191 14.9395 14.7824 14.4239C15.1926 13.8379 15.3566 13.252 15.3566 13.2286C15.3215 13.2168 14.2316 12.7715 14.2316 11.5059C14.2316 10.416 15.0871 9.93555 15.134 9.88868C14.5715 9.06836 13.7043 9.05665 13.4582 9.05665C12.8137 9.05665 12.298 9.44336 11.9582 9.44336C11.6066 9.44336 11.1496 9.06836 10.5871 9.06836C9.53247 9.06836 8.45435 9.94727 8.45435 11.5879C8.45435 12.6309 8.86451 13.709 9.34497 14.4004C9.76685 14.9981 10.1301 15.4786 10.6691 15.4786C11.1848 15.4786 11.4191 15.127 12.0637 15.127ZM13.1652 8.35352C13.423 8.03711 13.6106 7.60352 13.6106 7.15821C13.6106 7.09961 13.6106 7.04102 13.5988 6.99415C13.1652 7.00586 12.6496 7.27539 12.3449 7.63868C12.1106 7.93165 11.8762 8.35352 11.8762 8.79883C11.8762 8.85743 11.8879 8.92774 11.8879 8.95118C11.923 8.95118 11.9582 8.96289 12.0051 8.96289C12.3918 8.96289 12.8723 8.70508 13.1652 8.35352Z" fill="black" fill-opacity="0.85"/>
</g>
<defs>
<clipPath id="clip0_2207_13108">
<rect width="23.9062" height="23.918" fill="white" transform="translate(0.0168457 0.00976562)"/>
</clipPath>
</defs>
</svg>
