<svg width="43" height="27" viewBox="0 0 43 27" fill="none" xmlns="http://www.w3.org/2000/svg">
<g clip-path="url(#clip0_2207_20220)">
<path d="M4.55493 21.1387C4.92993 20.7168 4.81274 20.166 4.39087 19.6856C2.82055 17.9395 1.94165 15.6426 1.94165 13.1231C1.94165 10.6036 2.82055 8.30665 4.39087 6.56055C4.81274 6.08008 4.92993 5.5293 4.55493 5.10743C4.17993 4.66211 3.52368 4.67383 3.07837 5.16602C1.13305 7.27539 0.0314941 10.0879 0.0314941 13.1231C0.0314941 16.1582 1.13305 18.959 3.07837 21.0801C3.52368 21.5723 4.17993 21.5723 4.55493 21.1387ZM37.5315 21.1387C37.9182 21.5723 38.5627 21.5723 39.0198 21.0801C40.9651 18.959 42.0667 16.1582 42.0667 13.1231C42.0667 10.0879 40.9651 7.27539 39.0198 5.16602C38.5627 4.67383 37.9182 4.66211 37.5315 5.10743C37.1682 5.5293 37.2737 6.08008 37.7073 6.56055C39.2776 8.30665 40.1565 10.6036 40.1565 13.1231C40.1565 15.6426 39.2776 17.9395 37.7073 19.6856C37.2737 20.166 37.1682 20.7168 37.5315 21.1387Z" fill="black" fill-opacity="0.85"/>
<path d="M7.83618 17.7988C8.21118 17.3769 8.05883 16.8495 7.68383 16.3456C6.98071 15.4667 6.64087 14.3417 6.64087 13.123C6.64087 11.9042 6.98071 10.7675 7.68383 9.9003C8.05883 9.3964 8.21118 8.86906 7.83618 8.44718C7.44946 8.00187 6.74633 8.00187 6.33618 8.52921C5.31665 9.79484 4.73071 11.4003 4.73071 13.123C4.73071 14.8456 5.31665 16.4511 6.33618 17.7167C6.74633 18.2441 7.44946 18.2324 7.83618 17.7988ZM34.2503 17.7988C34.637 18.2324 35.3401 18.2441 35.762 17.7167C36.7815 16.4511 37.3674 14.8456 37.3674 13.123C37.3674 11.4003 36.7815 9.79484 35.762 8.52921C35.3401 8.00187 34.637 8.00187 34.2503 8.44718C33.8753 8.86906 34.0393 9.3964 34.4026 9.9003C35.1057 10.7675 35.4573 11.9042 35.4573 13.123C35.4573 14.3417 35.1057 15.4667 34.4026 16.3456C34.0393 16.8495 33.8753 17.3769 34.2503 17.7988Z" fill="black" fill-opacity="0.85"/>
<path d="M21.0432 24.3028C27.2424 24.3028 32.2463 19.2871 32.2463 13.0996C32.2463 6.91211 27.2424 1.89649 21.0432 1.89649C14.8557 1.89649 9.84009 6.91211 9.84009 13.0996C9.84009 19.2871 14.8557 24.3028 21.0432 24.3028ZM15.7112 14.4004C15.2542 14.4004 14.9026 14.0371 14.9026 13.5801C14.9026 13.1231 15.2542 12.7715 15.7112 12.7715H20.2229V6.47852C20.2229 6.02149 20.5862 5.66993 21.0315 5.66993C21.5003 5.66993 21.8518 6.02149 21.8518 6.47852V13.5801C21.8518 14.0371 21.5003 14.4004 21.0315 14.4004H15.7112ZM11.4221 4.90821C11.5979 4.90821 11.7268 4.87305 11.8909 4.74415L15.8167 1.79102C16.0042 1.63868 16.1096 1.46289 16.1096 1.26368C16.1096 1.01758 15.9924 0.81836 15.7932 0.63086C15.3479 0.220704 14.551 0.00976562 13.8596 0.00976562C12.0198 0.00976562 10.5549 1.47461 10.5549 3.29102C10.5549 3.73633 10.637 4.16993 10.7542 4.43946C10.8831 4.72071 11.1292 4.90821 11.4221 4.90821ZM30.676 4.90821C30.9573 4.90821 31.2034 4.70899 31.344 4.43946C31.4729 4.18165 31.5315 3.73633 31.5315 3.29102C31.5315 1.47461 30.0784 0.00976562 28.2385 0.00976562C27.5354 0.00976562 26.7503 0.220704 26.3049 0.63086C26.094 0.81836 25.9768 1.01758 25.9768 1.26368C25.9768 1.46289 26.0823 1.63868 26.2815 1.79102L30.2073 4.74415C30.3713 4.87305 30.5003 4.90821 30.676 4.90821ZM11.2463 23.9746C11.5979 24.3262 12.1721 24.3262 12.5354 23.9629L14.7503 21.7598L13.4846 20.4942L11.2581 22.709C10.8948 23.0606 10.9065 23.6348 11.2463 23.9746ZM30.8518 23.9746C31.1917 23.6348 31.2034 23.0606 30.8401 22.709L28.6135 20.4942L27.3479 21.7598L29.551 23.9629C29.9143 24.3262 30.4885 24.3262 30.8518 23.9746Z" fill="black" fill-opacity="0.85"/>
</g>
<defs>
<clipPath id="clip0_2207_20220">
<rect width="42.0352" height="26.2383" fill="white" transform="translate(0.0314941 0.00976562)"/>
</clipPath>
</defs>
</svg>
