<svg width="24" height="22" viewBox="0 0 24 22" fill="none" xmlns="http://www.w3.org/2000/svg">
<g clip-path="url(#clip0_2207_3301)">
<path d="M1.16455 21.4903H6.81299C7.8208 21.4903 8.66455 20.9395 9.06299 20.0254L16.7505 2.69336C16.938 2.30665 17.231 2.13086 17.6997 2.13086H22.8911C23.5005 2.13086 23.9927 1.65039 23.9927 1.06446C23.9927 0.478516 23.5005 0.00976562 22.8911 0.00976562H17.1724C16.0942 0.00976562 15.3794 0.466797 14.9458 1.45118L7.22315 18.795C7.04737 19.1817 6.74268 19.3692 6.3208 19.3692H1.16455C0.543457 19.3692 0.0629883 19.8379 0.0629883 20.4356C0.0629883 21.0332 0.543457 21.4903 1.16455 21.4903ZM15.3091 21.4903H22.8911C23.5122 21.4903 23.981 21.045 23.981 20.4473C23.981 19.8496 23.5122 19.3926 22.8911 19.3926H15.3091C14.688 19.3926 14.2075 19.8496 14.2075 20.4473C14.2075 21.045 14.688 21.4903 15.3091 21.4903Z" fill="black" fill-opacity="0.85"/>
</g>
<defs>
<clipPath id="clip0_2207_3301">
<rect width="23.9297" height="21.4805" fill="white" transform="translate(0.0629883 0.00976562)"/>
</clipPath>
</defs>
</svg>
