<svg width="24" height="24" viewBox="0 0 24 24" fill="none" xmlns="http://www.w3.org/2000/svg">
<g clip-path="url(#clip0_2207_18154)">
<path d="M12.0288 23.9278C18.5679 23.9278 23.9819 18.5137 23.9819 11.9746C23.9819 5.44727 18.5562 0.0214844 12.0171 0.0214844C5.48974 0.0214844 0.0756836 5.44727 0.0756836 11.9746C0.0756836 18.5137 5.50146 23.9278 12.0288 23.9278Z" fill="black" fill-opacity="0.85"/>
<path d="M6.56799 15.209C6.43908 14.4356 6.75549 14.002 7.61096 13.791L10.4703 13.1348C10.2477 13.0176 10.0016 12.7598 9.89611 12.3848L8.00939 12.1153C7.17736 11.9981 6.80236 11.541 6.80236 10.7207V8.44726C6.80236 8.10742 7.00158 7.9082 7.34142 7.9082C7.65783 7.9082 7.85705 8.10742 7.85705 8.44726V10.5098C7.85705 10.9551 8.10314 11.0957 8.5133 11.1543L9.91955 11.3536C9.97814 11.1309 10.1188 10.9434 10.2477 10.8262C9.16955 10.6153 8.61877 9.94727 8.61877 8.93946C8.61877 8.13086 8.91174 7.35742 9.41564 6.75976L9.38049 6.7246C8.73596 6.26757 8.63049 5.57617 9.04064 4.82617L9.40392 4.20507C9.53283 3.95898 9.69689 3.86523 9.91955 3.86523C10.2125 3.86523 10.4117 4.07617 10.4117 4.3457C10.4117 4.46288 10.4 4.55664 10.318 4.67382L10.0016 5.18945C9.81408 5.49414 9.74377 5.76367 9.96642 5.95117L10.1305 6.08007C10.693 5.71679 11.4078 5.50585 12.0406 5.50585C12.6617 5.50585 13.3766 5.71679 13.9391 6.08007L14.1031 5.95117C14.3375 5.76367 14.2672 5.49414 14.0797 5.18945L13.7516 4.67382C13.6813 4.55664 13.6578 4.46288 13.6578 4.3457C13.6578 4.06445 13.8688 3.86523 14.15 3.86523C14.3844 3.86523 14.525 3.9707 14.6656 4.20507L15.0289 4.82617C15.4625 5.56445 15.3336 6.26757 14.6891 6.7246L14.6539 6.75976C15.1578 7.35742 15.4508 8.13086 15.4508 8.93946C15.4508 9.94727 14.9117 10.627 13.8336 10.8262C13.9625 10.9434 14.0914 11.1426 14.15 11.3536L15.5563 11.1543C15.9664 11.084 16.2125 10.9551 16.2125 10.5098V8.44726C16.2125 8.10742 16.4117 7.9082 16.7281 7.9082C17.0797 7.9082 17.2789 8.10742 17.2789 8.44726V10.7207C17.2789 11.541 16.8922 11.9981 16.0719 12.1153L14.1852 12.3848C14.068 12.7598 13.8219 13.0293 13.611 13.1348L16.4703 13.791C17.3141 14.0137 17.6422 14.4356 17.5133 15.209L16.9742 18.6192C16.9274 18.959 16.7633 19.1817 16.4352 19.1817C16.0953 19.1817 15.8492 18.9239 15.9078 18.5371L16.3883 15.4082C16.4469 15.0332 16.3297 14.8575 15.8961 14.7403C15.732 14.6934 15.568 14.6582 15.4156 14.6114C15.4977 14.834 15.5328 15.1036 15.5328 15.4082C15.5328 17.5528 13.9156 19.5567 12.0406 19.5567C10.1539 19.5567 8.54846 17.5528 8.54846 15.4082C8.54846 15.1036 8.58361 14.834 8.66564 14.6114C8.50158 14.6582 8.33752 14.6934 8.18518 14.7403C7.75158 14.8575 7.62268 15.0332 7.69299 15.4082L8.16174 18.5371C8.22033 18.9239 7.97424 19.1817 7.64611 19.1817C7.31799 19.1817 7.15392 18.959 7.09533 18.6192L6.56799 15.209Z" fill="white"/>
</g>
<defs>
<clipPath id="clip0_2207_18154">
<rect width="23.9062" height="23.918" fill="white" transform="translate(0.0756836 0.00976562)"/>
</clipPath>
</defs>
</svg>
