<svg width="21" height="22" viewBox="0 0 21 22" fill="none" xmlns="http://www.w3.org/2000/svg">
<g clip-path="url(#clip0_2207_6838)">
<path d="M1.6958 1.69873C0.828613 2.56592 0.184082 3.90185 0.148926 4.9917C0.137207 5.39014 0.371582 5.67139 0.758301 5.67139C1.10986 5.67139 1.34424 5.47217 1.41455 5.12061C1.59033 4.12451 1.91846 3.3042 2.59814 2.60107C3.3833 1.85107 4.12158 1.6167 5.17627 1.39404C5.50439 1.31201 5.70361 1.08935 5.70361 0.784668C5.70361 0.409668 5.43408 0.151855 5.04736 0.151855C4.02783 0.163574 2.6333 0.76123 1.6958 1.69873ZM13.52 0.0112305H7.48486C7.1333 0.0112305 6.84033 0.315918 6.84033 0.66748C6.84033 1.01904 7.1333 1.32373 7.48486 1.32373H13.52C13.8716 1.32373 14.1645 1.01904 14.1645 0.66748C14.1645 0.315918 13.8716 0.0112305 13.52 0.0112305ZM19.2974 1.69873C18.3716 0.76123 16.9771 0.163574 15.9575 0.151855C15.5591 0.151855 15.3013 0.409668 15.3013 0.784668C15.3013 1.08935 15.4888 1.31201 15.8169 1.39404C16.8364 1.60498 17.6099 1.83935 18.4067 2.60107C19.0864 3.3042 19.4028 4.12451 19.5903 5.12061C19.6606 5.47217 19.8833 5.67139 20.2466 5.67139C20.6216 5.67139 20.8677 5.39014 20.856 4.9917C20.8208 3.90185 20.1763 2.56592 19.2974 1.69873ZM20.9966 13.5464V7.49951C20.9966 7.14795 20.6919 6.85498 20.3403 6.85498C19.9888 6.85498 19.6958 7.14795 19.6958 7.49951V13.5464C19.6958 13.8979 19.9888 14.2026 20.3403 14.2026C20.6919 14.2026 20.9966 13.8979 20.9966 13.5464ZM19.2974 19.3237C20.1763 18.4565 20.8208 17.1206 20.856 16.0307C20.8677 15.6206 20.6216 15.351 20.2466 15.351C19.8833 15.351 19.6606 15.5385 19.5903 15.9018C19.4028 16.8979 19.0864 17.7065 18.4067 18.4214C17.6216 19.1596 16.8716 19.4057 15.8169 19.6167C15.4888 19.6987 15.3013 19.9331 15.3013 20.2378C15.3013 20.6128 15.5591 20.8589 15.9575 20.8589C16.9771 20.8589 18.3716 20.2612 19.2974 19.3237ZM7.48486 20.9995H13.52C13.8716 20.9995 14.1645 20.7065 14.1645 20.355C14.1645 20.0034 13.8716 19.6987 13.52 19.6987H7.48486C7.1333 19.6987 6.84033 20.0034 6.84033 20.355C6.84033 20.7065 7.1333 20.9995 7.48486 20.9995ZM1.6958 19.3237C2.6333 20.2612 4.02783 20.8589 5.04736 20.8589C5.43408 20.8589 5.70361 20.6128 5.70361 20.2378C5.70361 19.9331 5.50439 19.6987 5.17627 19.6167C4.15674 19.4174 3.39502 19.1714 2.59814 18.4214C1.91846 17.7065 1.59033 16.8979 1.41455 15.9018C1.34424 15.5385 1.10986 15.351 0.758301 15.351C0.371582 15.351 0.137207 15.6206 0.148926 16.0307C0.184082 17.1206 0.828613 18.4565 1.6958 19.3237ZM0.00830078 7.49951V13.5464C0.00830078 13.8979 0.30127 14.2026 0.664551 14.2026C1.01611 14.2026 1.30908 13.8979 1.30908 13.5464V7.49951C1.30908 7.14795 1.01611 6.85498 0.664551 6.85498C0.30127 6.85498 0.00830078 7.14795 0.00830078 7.49951Z" fill="black" fill-opacity="0.85"/>
<path d="M7.21533 18.3393H13.7895C15.2427 18.3393 16.4614 18.1987 17.3286 17.3432C18.2075 16.4643 18.3247 15.2456 18.3247 13.7924V7.21826C18.3247 5.76514 18.2075 4.55811 17.3286 3.69092C16.4614 2.82373 15.2427 2.68311 13.7895 2.68311H7.19189C5.76221 2.68311 4.54346 2.82373 3.67627 3.69092C2.80908 4.55811 2.68018 5.77685 2.68018 7.19482V13.7924C2.68018 15.2456 2.80908 16.4643 3.67627 17.3432C4.54346 18.1987 5.76221 18.3393 7.21533 18.3393Z" fill="black" fill-opacity="0.85"/>
</g>
<defs>
<clipPath id="clip0_2207_6838">
<rect width="20.9883" height="21.0117" fill="white" transform="translate(0.00830078 0.0112305)"/>
</clipPath>
</defs>
</svg>
