<svg width="21" height="30" viewBox="0 0 21 30" fill="none" xmlns="http://www.w3.org/2000/svg">
<g clip-path="url(#clip0_2207_10536)">
<path d="M0.0364266 12.5503C0.012989 13.7807 0.516896 14.9057 1.47783 15.8667L6.55205 20.9526C4.54814 22.2885 3.72783 23.5424 3.72783 25.1831C3.72783 27.5971 5.66142 29.062 7.70048 29.0971C8.87236 29.1206 9.93877 28.6753 10.6536 27.9487L18.9622 19.6167C20.8958 17.6831 20.7551 15.3862 18.5989 13.2417L13.9231 8.56592L15.5286 6.94873C16.3254 6.15185 16.7942 5.12061 16.7825 4.10107C16.8176 1.8042 15.0481 0.0229493 12.7278 0.0112305C11.427 0.0112305 10.4192 0.47998 9.30595 1.6167L1.24345 9.65576C0.470021 10.4174 0.0481453 11.437 0.0364266 12.5503ZM4.87627 8.69482L10.6301 2.94092C11.4036 2.16748 11.9309 1.89795 12.7278 1.89795C14.0051 1.89795 14.9192 2.81201 14.9192 4.07764C14.9192 4.60498 14.6497 5.16748 14.2044 5.62451L7.98173 11.8354C7.78252 10.1362 6.6458 8.97607 4.87627 8.69482ZM1.99345 12.7143C1.99345 11.355 2.82548 10.4409 4.06767 10.4409C5.35673 10.4409 6.24736 11.3784 6.24736 12.7964C6.24736 12.9604 6.24736 13.4526 6.03642 14.0151C5.7083 14.9995 6.90361 15.5971 7.61845 14.8589L12.5872 9.90185L17.2747 14.5659C18.7044 15.9956 18.7981 17.1206 17.6379 18.2924L11.6028 24.3276C11.427 23.355 10.8528 22.605 9.66923 21.4214L3.23564 14.9526C2.28642 14.0034 1.99345 13.4526 1.99345 12.7143ZM5.61455 25.2885C5.61455 24.1635 6.2708 23.3315 7.92314 22.3237L8.34502 22.7456C9.52861 23.9409 9.85674 24.4682 9.86845 25.2885C9.86845 26.3432 8.90753 27.1987 7.70048 27.1987C6.61064 27.1987 5.61455 26.4253 5.61455 25.2885Z" fill="black" fill-opacity="0.85"/>
</g>
<defs>
<clipPath id="clip0_2207_10536">
<rect width="20.2844" height="29.1211" fill="white" transform="translate(0.0356445 0.0112305)"/>
</clipPath>
</defs>
</svg>
