<svg width="30" height="24" viewBox="0 0 30 24" fill="none" xmlns="http://www.w3.org/2000/svg">
<g clip-path="url(#clip0_2207_1112)">
<path d="M3.69654 18.3276H19.7043C22.1418 18.3276 23.384 17.1089 23.384 14.6948V3.64404C23.384 1.22998 22.1418 0.0112305 19.7043 0.0112305H3.69654C1.2356 0.0112305 0.0168457 1.22998 0.0168457 3.64404V14.6948C0.0168457 17.1206 1.2356 18.3276 3.69654 18.3276ZM3.71997 16.4409C2.5481 16.4409 1.90357 15.8198 1.90357 14.601V3.74951C1.90357 2.53076 2.5481 1.89795 3.71997 1.89795H19.6691C20.8293 1.89795 21.4973 2.53076 21.4973 3.74951V14.601C21.4973 15.8198 20.8293 16.4409 19.6691 16.4409H3.71997Z" fill="black" fill-opacity="0.85"/>
<path d="M9.4856 23.7534H25.4934C27.9309 23.7534 29.173 22.5346 29.173 20.1206V9.06982C29.173 6.65576 27.9309 5.43701 25.4934 5.43701H9.4856C7.02466 5.43701 5.80591 6.65576 5.80591 9.06982V20.1206C5.80591 22.5464 7.02466 23.7534 9.4856 23.7534Z" fill="white"/>
<path d="M9.4856 23.7534H25.4934C27.9309 23.7534 29.173 22.5346 29.173 20.1206V9.06982C29.173 6.65576 27.9309 5.43701 25.4934 5.43701H9.4856C7.02466 5.43701 5.80591 6.65576 5.80591 9.06982V20.1206C5.80591 22.5464 7.02466 23.7534 9.4856 23.7534ZM9.50904 21.8667C8.33716 21.8667 7.69263 21.2456 7.69263 20.0268V9.17529C7.69263 7.95654 8.33716 7.32373 9.50904 7.32373H25.4582C26.6184 7.32373 27.2863 7.95654 27.2863 9.17529V20.0268C27.2863 21.2456 26.6184 21.8667 25.4582 21.8667H9.50904Z" fill="black" fill-opacity="0.85"/>
<path d="M10.259 13.0893C9.41529 13.605 10.1418 14.9057 11.0676 14.3081L13.8098 12.5971C14.4191 12.2104 14.384 11.3198 13.8098 10.9565L11.0676 9.23384C10.1418 8.6479 9.40357 9.93696 10.259 10.4526L12.427 11.7768L10.259 13.0893ZM14.2434 14.226C14.2434 14.6128 14.548 14.9409 14.9582 14.9409H18.6027C18.9895 14.9409 19.2941 14.6128 19.2941 14.226C19.2941 13.8276 18.9895 13.5229 18.6027 13.5229H14.9582C14.548 13.5229 14.2434 13.8276 14.2434 14.226Z" fill="black" fill-opacity="0.85"/>
</g>
<defs>
<clipPath id="clip0_2207_1112">
<rect width="29.1562" height="23.7539" fill="white" transform="translate(0.0168457 0.0112305)"/>
</clipPath>
</defs>
</svg>
