<svg width="12" height="26" viewBox="0 0 12 26" fill="none" xmlns="http://www.w3.org/2000/svg">
<g clip-path="url(#clip0_2207_14729)">
<path d="M0.0483398 23.3667C0.0483398 24.9135 1.07959 25.8979 2.72022 25.8979H9.14209C10.771 25.8979 11.8139 24.9135 11.8139 23.3667V2.54248C11.8139 1.00732 10.771 0.0112305 9.14209 0.0112305H2.72022C1.07959 0.0112305 0.0483398 1.00732 0.0483398 2.54248V23.3667ZM1.78272 23.1206V2.78857C1.78272 2.13232 2.21631 1.72217 2.91943 1.72217H8.94287C9.646 1.72217 10.0795 2.13232 10.0795 2.78857V23.1206C10.0795 23.7768 9.646 24.187 8.94287 24.187H2.91943C2.21631 24.187 1.78272 23.7768 1.78272 23.1206ZM4.05615 13.9096C4.80615 13.9096 5.41553 13.2885 5.41553 12.5385C5.41553 11.7885 4.80615 11.1674 4.05615 11.1674C3.29443 11.1674 2.67334 11.7885 2.67334 12.5385C2.67334 13.2885 3.29443 13.9096 4.05615 13.9096ZM7.82959 13.9096C8.57959 13.9096 9.18896 13.2885 9.18896 12.5385C9.18896 11.7885 8.57959 11.1674 7.82959 11.1674C7.06787 11.1674 6.44678 11.7885 6.44678 12.5385C6.44678 13.2885 7.06787 13.9096 7.82959 13.9096ZM5.93115 9.70264C7.73584 9.70264 9.18896 8.24951 9.18896 6.44482C9.18896 4.64014 7.73584 3.18701 5.93115 3.18701C4.13818 3.18701 2.67334 4.64014 2.67334 6.44482C2.67334 8.24951 4.13818 9.70264 5.93115 9.70264ZM5.94287 7.75732C5.21631 7.75732 4.61865 7.17139 4.61865 6.44482C4.61865 5.71826 5.21631 5.13232 5.94287 5.13232C6.66943 5.13232 7.25537 5.71826 7.25537 6.44482C7.25537 7.17139 6.66943 7.75732 5.94287 7.75732Z" fill="black" fill-opacity="0.85"/>
</g>
<defs>
<clipPath id="clip0_2207_14729">
<rect width="11.7656" height="25.957" fill="white" transform="translate(0.0483398 0.0112305)"/>
</clipPath>
</defs>
</svg>
