<svg width="18" height="26" viewBox="0 0 18 26" fill="none" xmlns="http://www.w3.org/2000/svg">
<g clip-path="url(#clip0_2207_14081)">
<path d="M1.77197 17.0503V8.07373C1.77197 6.32764 2.7915 5.27295 4.50244 5.27295H11.4399C13.1508 5.27295 14.1704 6.32764 14.1704 8.07373V17.0503C14.1704 18.7846 13.1508 19.8393 11.4399 19.8393H4.50244C2.7915 19.8393 1.77197 18.7846 1.77197 17.0503Z" fill="black" fill-opacity="0.85"/>
<path d="M0.0610352 17.2964C0.0610352 19.1128 0.775879 20.4487 2.1001 21.1753C2.74463 21.5151 3.11963 21.9487 3.35401 22.7339L3.72901 23.9878C3.95166 24.7378 4.47901 25.101 5.26416 25.101H10.6782C11.4868 25.101 11.979 24.7495 12.2016 23.9878L12.5883 22.7339C12.8227 21.9487 13.1977 21.5151 13.8422 21.1753C15.1665 20.4487 15.8813 19.1128 15.8813 17.2964V7.81592C15.8813 5.99951 15.1665 4.67529 13.8422 3.93701C13.1977 3.59717 12.8227 3.16357 12.5883 2.39014L12.2016 1.12451C12.0024 0.386231 11.4751 0.0112305 10.6782 0.0112305H5.26416C4.47901 0.0112305 3.95166 0.374512 3.72901 1.12451L3.35401 2.39014C3.13135 3.15185 2.75635 3.60889 2.1001 3.93701C0.787597 4.64014 0.0610352 5.97607 0.0610352 7.81592V17.2964ZM1.77198 17.0503V8.07373C1.77198 6.32764 2.79151 5.27295 4.50245 5.27295H11.4399C13.1508 5.27295 14.1704 6.32764 14.1704 8.07373V17.0503C14.1704 18.7846 13.1508 19.8393 11.4399 19.8393H4.50245C2.79151 19.8393 1.77198 18.7846 1.77198 17.0503ZM15.6235 11.73H16.0454C16.6548 11.73 17.0532 11.3198 17.0532 10.6518V9.06982C17.0532 8.40185 16.6548 7.9917 16.0454 7.9917H15.6235V11.73Z" fill="black" fill-opacity="0.85"/>
</g>
<defs>
<clipPath id="clip0_2207_14081">
<rect width="16.9922" height="25.0898" fill="white" transform="translate(0.0610352 0.0112305)"/>
</clipPath>
</defs>
</svg>
