<svg width="24" height="24" viewBox="0 0 24 24" fill="none" xmlns="http://www.w3.org/2000/svg">
<g clip-path="url(#clip0_2207_14670)">
<path d="M6.28601 23.3432H17.1844C19.1883 23.3432 20.8758 23.1557 22.0711 21.9604C23.2665 20.7651 23.4422 19.0893 23.4422 17.0854V6.28076C23.4422 4.27685 23.2665 2.61279 22.0711 1.41748C20.8758 0.222168 19.1883 0.034668 17.1844 0.034668H6.26258C4.29383 0.034668 2.60633 0.222168 1.41101 1.41748C0.215698 2.61279 0.039917 4.28857 0.039917 6.25732V17.0854C0.039917 19.0893 0.215698 20.7651 1.41101 21.9604C2.60633 23.1557 4.29383 23.3432 6.28601 23.3432ZM5.96961 21.4565C4.76258 21.4565 3.49695 21.2924 2.78211 20.5776C2.07898 19.8745 1.92664 18.6206 1.92664 17.4135V5.99951C1.92664 4.75732 2.07898 3.50342 2.78211 2.78857C3.49695 2.08545 4.7743 1.92139 6.00476 1.92139H17.5126C18.7196 1.92139 19.9852 2.08545 20.6883 2.80029C21.4032 3.50342 21.5555 4.75732 21.5555 5.96435V17.4135C21.5555 18.6206 21.4032 19.8745 20.6883 20.5776C19.9852 21.2924 18.7196 21.4565 17.5126 21.4565H5.96961Z" fill="black" fill-opacity="0.85"/>
<path d="M6.47351 9.1167C7.42273 9.22217 8.16101 8.1792 8.10242 7.34717C7.1532 7.38232 6.45008 8.22607 6.47351 9.1167ZM9.70789 13.1714C9.26258 12.9721 8.96961 12.6792 8.80554 12.2573C8.62976 11.8003 8.6532 11.3315 8.80554 10.9331C8.88758 10.6635 9.06336 10.3354 9.52039 10.0659C9.18054 9.56201 8.64148 9.3042 8.00867 9.3042C7.29383 9.3042 6.88367 9.6792 6.52039 9.6792C6.2157 9.6792 5.87586 9.31592 5.30164 9.31592C4.68054 9.31592 4.17664 9.57373 3.84851 9.99561C3.45008 10.4878 3.28601 11.0854 3.28601 11.7065C3.28601 12.726 3.73133 13.9214 4.3993 14.6714C4.76258 15.0581 5.03211 15.2573 5.34851 15.2573C5.82898 15.2573 6.0868 14.9057 6.66101 14.9057C6.91883 14.9057 7.12976 15.0112 7.28211 15.0581C7.51648 15.1401 7.68054 15.2456 7.95008 15.2456C8.24304 15.2456 8.47742 15.1284 8.62976 14.9878C9.13367 14.4839 9.54383 13.769 9.70789 13.1714ZM12.9188 7.92139H11.7001V9.3042H10.8563V10.2417H11.7001V13.6401C11.7001 14.8237 12.1688 15.2456 13.3641 15.2456C13.6219 15.2456 13.9149 15.2104 14.0204 15.1987V14.2026C13.9618 14.2378 13.7508 14.2378 13.6219 14.2378C13.1415 14.2378 12.9188 14.0385 12.9188 13.4995V10.2417H14.0438V9.3042H12.9188V7.92139ZM18.0165 15.1987L20.1493 9.3042H18.8251L17.3954 14.0385L15.8719 9.3042H14.5829L16.7508 15.1987H18.0165Z" fill="black" fill-opacity="0.85"/>
</g>
<defs>
<clipPath id="clip0_2207_14670">
<rect width="23.4023" height="23.332" fill="white" transform="translate(0.039917 0.0112305)"/>
</clipPath>
</defs>
</svg>
