<svg width="23" height="26" viewBox="0 0 23 26" fill="none" xmlns="http://www.w3.org/2000/svg">
<g clip-path="url(#clip0_2207_14128)">
<path d="M3.50781 17.2964C3.50781 19.1128 4.22266 20.4487 5.54688 21.1753C6.19141 21.5151 6.56641 21.9487 6.80078 22.7339L7.17578 23.9878C7.39844 24.7378 7.92578 25.101 8.71094 25.101H14.125C14.9336 25.101 15.4258 24.7495 15.6484 23.9878L16.0352 22.7339C16.2695 21.9487 16.6445 21.5151 17.2891 21.1753C18.6133 20.4487 19.3281 19.1128 19.3281 17.2964V7.81592C19.3281 5.99951 18.6133 4.67529 17.2891 3.93701C16.6445 3.59717 16.2695 3.16357 16.0352 2.39014L15.6484 1.12451C15.4492 0.386231 14.9219 0.0112305 14.125 0.0112305H8.71094C7.92578 0.0112305 7.39844 0.374512 7.17578 1.12451L6.80078 2.39014C6.57813 3.15185 6.20313 3.60889 5.54688 3.93701C4.23438 4.64014 3.50781 5.97607 3.50781 7.81592V17.2964ZM5.21875 17.0503V8.07373C5.21875 6.32764 6.23828 5.27295 7.94922 5.27295H14.8867C16.5977 5.27295 17.6172 6.32764 17.6172 8.07373V17.0503C17.6172 18.7846 16.5977 19.8393 14.8867 19.8393H7.94922C6.23828 19.8393 5.21875 18.7846 5.21875 17.0503ZM19.0703 11.73H19.4922C20.1016 11.73 20.5 11.3198 20.5 10.6518V9.06982C20.5 8.40185 20.1016 7.9917 19.4922 7.9917H19.0703V11.73Z" fill="black" fill-opacity="0.85"/>
<path d="M18.9414 23.2612C19.8438 24.1518 21.2969 24.1518 22.1641 23.2378C23.0313 22.3589 23.0313 20.9292 22.1524 20.0503L3.95313 1.85108C3.07422 0.972176 1.62109 0.960457 0.730469 1.85108C-0.148438 2.72999 -0.148438 4.19483 0.730469 5.07374L18.9414 23.2612Z" fill="white"/>
<path d="M19.9141 22.2885C20.2656 22.6518 20.8399 22.6518 21.1914 22.2885C21.5313 21.937 21.543 21.3745 21.1914 21.0112L2.99219 2.82375C2.64063 2.47219 2.05469 2.46047 1.70313 2.82375C1.36328 3.16359 1.36328 3.76125 1.70313 4.10109L19.9141 22.2885Z" fill="black" fill-opacity="0.85"/>
</g>
<defs>
<clipPath id="clip0_2207_14128">
<rect width="22.7417" height="25.0898" fill="white" transform="translate(0.0712891 0.0112305)"/>
</clipPath>
</defs>
</svg>
