<svg width="22" height="23" viewBox="0 0 22 23" fill="none" xmlns="http://www.w3.org/2000/svg">
<g clip-path="url(#clip0_2207_14144)">
<path d="M5.32691 22.4292H14.2566C17.5496 22.4292 19.5183 20.4253 19.5183 17.0737V5.39014C19.5183 2.03857 17.5496 0.0463867 14.2566 0.0463867H5.32691C2.03394 0.0463867 0.0651855 2.03857 0.0651855 5.39014V17.0737C0.0651855 20.4253 2.03394 22.4292 5.32691 22.4292ZM5.24488 20.5424C3.18238 20.5424 1.95191 19.2885 1.95191 17.1557V5.3667C1.95191 3.24561 3.18238 1.9917 5.24488 1.9917H14.3386C16.4129 1.9917 17.6316 3.24561 17.6316 5.3667V17.1557C17.6316 19.2885 16.4129 20.5424 14.3386 20.5424H5.24488ZM19.3074 10.0073H19.8347C20.5847 10.0073 21.0652 9.4917 21.0652 8.68311V6.72607C21.0652 5.89404 20.5847 5.37842 19.8347 5.37842H19.3074V10.0073Z" fill="black" fill-opacity="0.85"/>
<path d="M3.5105 17.3081C3.5105 18.3393 4.10816 18.9721 5.09253 18.9721H14.5027C15.4754 18.9721 16.073 18.3393 16.073 17.3081V5.15576C16.073 4.14795 15.4519 3.47998 14.5027 3.47998H5.09253C4.1316 3.47998 3.5105 4.14795 3.5105 5.15576V17.3081Z" fill="black" fill-opacity="0.85"/>
</g>
<defs>
<clipPath id="clip0_2207_14144">
<rect width="21" height="22.418" fill="white" transform="translate(0.0651855 0.0112305)"/>
</clipPath>
</defs>
</svg>
