<svg width="30" height="23" viewBox="0 0 30 23" fill="none" xmlns="http://www.w3.org/2000/svg">
<g clip-path="url(#clip0_2207_14042)">
<path d="M0.228449 15.1035C-0.591863 17.1074 1.2597 18.0566 2.85345 16.9082C4.14251 15.959 5.44329 15.0097 6.73235 14.0254L6.2636 13.7793C5.09173 15.373 4.59954 16.7676 4.59954 17.8691C4.59954 20.4941 7.27141 21.7246 10.037 20.3418C10.7636 19.9785 10.5057 18.2324 9.15813 18.8301C7.40032 19.6035 6.2636 19.2168 6.2636 17.7871C6.2636 16.4512 7.24798 14.1894 9.46282 11.2597C10.1659 10.334 9.04095 9.13862 8.06829 10.1699C6.19329 12.0683 3.60345 13.9668 1.37688 15.8418L1.72845 16.1347L7.0136 3.25581C7.36516 2.38862 5.78313 1.58003 5.27923 2.78706L0.228449 15.1035Z" fill="black" fill-opacity="0.85"/>
<path d="M11.4198 17.5527C11.244 17.8926 11.6073 18.1972 11.9003 18.0449L13.6464 17.1308L12.369 15.8535L11.4198 17.5527ZM12.9081 14.8691L14.6542 16.6152L15.3456 16.2519L29.1503 2.49415C29.7245 1.93165 29.7245 1.00587 29.1503 0.443371C28.5761 -0.130848 27.6503 -0.130848 27.0878 0.431652L13.2831 14.1894L12.9081 14.8691Z" fill="black" fill-opacity="0.85"/>
</g>
<defs>
<clipPath id="clip0_2207_14042">
<rect width="29.5536" height="22.1338" fill="white" transform="translate(0.0273438 0.0112305)"/>
</clipPath>
</defs>
</svg>
