<svg width="19" height="25" viewBox="0 0 19 25" fill="none" xmlns="http://www.w3.org/2000/svg">
<g clip-path="url(#clip0_2207_27586)">
<path d="M13.6863 5.61279C11.9402 5.61279 10.5105 6.6792 9.59644 6.6792C8.62378 6.6792 7.35816 5.68311 5.83472 5.68311C2.94019 5.68311 0.010498 8.07373 0.010498 12.5737C0.010498 15.3862 1.08862 18.351 2.43628 20.2612C3.58472 21.8784 4.59253 23.2026 6.04566 23.2026C7.47534 23.2026 8.10816 22.2534 9.88941 22.2534C11.6941 22.2534 12.1043 23.1792 13.6863 23.1792C15.2566 23.1792 16.2996 21.7378 17.2957 20.3198C18.3972 18.6909 18.866 17.1089 18.8777 17.0268C18.7839 17.0034 15.7839 15.7729 15.7839 12.3393C15.7839 9.36279 18.1394 8.02685 18.28 7.92139C16.7214 5.68311 14.3425 5.61279 13.6863 5.61279ZM12.866 3.71435C13.5808 2.84717 14.0847 1.66357 14.0847 0.468261C14.0847 0.304199 14.073 0.140136 14.0496 0.0112305C12.8777 0.0581055 11.4714 0.784668 10.6394 1.76904C9.97144 2.51904 9.36206 3.71435 9.36206 4.90967C9.36206 5.09717 9.39722 5.27295 9.40894 5.33154C9.47925 5.34326 9.59644 5.3667 9.72534 5.3667C10.7683 5.3667 12.0808 4.66357 12.866 3.71435Z" fill="black" fill-opacity="0.85"/>
</g>
<defs>
<clipPath id="clip0_2207_27586">
<rect width="18.8672" height="24.4805" fill="white" transform="translate(0.010498 0.0112305)"/>
</clipPath>
</defs>
</svg>
