<svg width="12" height="26" viewBox="0 0 12 26" fill="none" xmlns="http://www.w3.org/2000/svg">
<g clip-path="url(#clip0_2207_14733)">
<path d="M0.050415 23.3667C0.050415 24.9135 1.08167 25.8979 2.7223 25.8979H8.69886C10.3277 25.8979 11.3707 24.9135 11.3707 23.3667V2.54248C11.3707 1.00732 10.3277 0.0112305 8.69886 0.0112305H2.7223C1.08167 0.0112305 0.050415 1.00732 0.050415 2.54248V23.3667ZM3.58948 14.7417C2.78089 14.7417 2.12463 14.0854 2.12463 13.2885C2.12463 12.48 2.78089 11.8354 3.58948 11.8354C4.39808 11.8354 5.03089 12.48 5.03089 13.2885C5.03089 14.0854 4.39808 14.7417 3.58948 14.7417ZM7.8551 14.7417C7.03479 14.7417 6.39025 14.0854 6.39025 13.2885C6.39025 12.48 7.03479 11.8354 7.8551 11.8354C8.65197 11.8354 9.2965 12.48 9.2965 13.2885C9.2965 14.0854 8.65197 14.7417 7.8551 14.7417ZM5.71058 10.3354C3.62464 10.3354 1.89026 8.62451 1.89026 6.51514C1.89026 4.40576 3.62464 2.69482 5.71058 2.69482C7.80823 2.69482 9.53088 4.40576 9.53088 6.51514C9.53088 8.62451 7.80823 10.3354 5.71058 10.3354ZM5.72229 8.05029C6.57775 8.05029 7.26917 7.37061 7.26917 6.51514C7.26917 5.65967 6.57775 4.96826 5.72229 4.96826C4.86682 4.96826 4.16369 5.65967 4.16369 6.51514C4.16369 7.37061 4.86682 8.05029 5.72229 8.05029Z" fill="black" fill-opacity="0.85"/>
</g>
<defs>
<clipPath id="clip0_2207_14733">
<rect width="11.3203" height="25.957" fill="white" transform="translate(0.050415 0.0112305)"/>
</clipPath>
</defs>
</svg>
