<svg width="25" height="16" viewBox="0 0 25 16" fill="none" xmlns="http://www.w3.org/2000/svg">
<g clip-path="url(#clip0_2207_13675)">
<path d="M3.13086 15.0932H21.8457C23.6738 15.0932 24.9043 13.8042 24.9043 11.894V3.19873C24.9043 1.28857 23.6856 0.0112305 21.8574 0.0112305H3.14257C1.31445 0.0112305 0.0839844 1.28857 0.0839844 3.19873V11.894C0.0839844 13.8042 1.30273 15.0932 3.13086 15.0932ZM3.43554 13.2065C2.49804 13.2065 1.9707 12.644 1.9707 11.6596V3.44482C1.9707 2.46045 2.49804 1.89795 3.43554 1.89795H21.5528C22.4902 1.89795 23.0176 2.46045 23.0176 3.44482V11.6596C23.0176 12.644 22.4902 13.2065 21.541 13.2065H3.43554Z" fill="black" fill-opacity="0.85"/>
<path d="M4.06836 5.57764H5.20507C5.45117 5.57764 5.62695 5.40185 5.62695 5.14404V4.04248C5.62695 3.77295 5.45117 3.58545 5.20507 3.58545H4.06836C3.82226 3.58545 3.64648 3.77295 3.64648 4.04248V5.14404C3.64648 5.40185 3.82226 5.57764 4.06836 5.57764ZM7.25586 5.57764H8.38086C8.62695 5.57764 8.81445 5.40185 8.81445 5.14404V4.04248C8.81445 3.77295 8.63867 3.58545 8.38086 3.58545H7.25586C6.99804 3.58545 6.82226 3.77295 6.82226 4.04248V5.14404C6.82226 5.40185 6.99804 5.57764 7.25586 5.57764ZM10.4317 5.57764H11.5567C11.8145 5.57764 11.9902 5.40185 11.9902 5.14404V4.04248C11.9902 3.77295 11.8145 3.58545 11.5567 3.58545H10.4317C10.1738 3.58545 9.99804 3.77295 9.99804 4.04248V5.14404C9.99804 5.40185 10.1738 5.57764 10.4317 5.57764ZM13.6074 5.57764H14.7442C14.9902 5.57764 15.166 5.40185 15.166 5.14404V4.04248C15.166 3.77295 14.9902 3.58545 14.7442 3.58545H13.6074C13.3613 3.58545 13.1856 3.77295 13.1856 4.04248V5.14404C13.1856 5.40185 13.3613 5.57764 13.6074 5.57764ZM4.06836 8.5542H5.20507C5.45117 8.5542 5.62695 8.37842 5.62695 8.12061V7.01904C5.62695 6.74951 5.45117 6.56201 5.20507 6.56201H4.06836C3.82226 6.56201 3.64648 6.74951 3.64648 7.01904V8.12061C3.64648 8.37842 3.82226 8.5542 4.06836 8.5542ZM7.25586 8.5542H8.38086C8.62695 8.5542 8.81445 8.37842 8.81445 8.12061V7.01904C8.81445 6.74951 8.63867 6.56201 8.38086 6.56201H7.25586C6.99804 6.56201 6.82226 6.74951 6.82226 7.01904V8.12061C6.82226 8.37842 6.99804 8.5542 7.25586 8.5542ZM10.4434 8.5542H11.5567C11.8262 8.5542 12.002 8.37842 12.002 8.12061V7.01904C12.002 6.74951 11.8262 6.56201 11.5567 6.56201H10.4434C10.1738 6.56201 9.99804 6.74951 9.99804 7.01904V8.12061C9.99804 8.37842 10.1738 8.5542 10.4434 8.5542ZM19.8652 5.57764H20.9902C21.2481 5.57764 21.4238 5.40185 21.4238 5.14404V4.04248C21.4238 3.77295 21.2481 3.58545 21.002 3.58545H19.8652C19.6192 3.58545 19.4434 3.77295 19.4434 4.04248V5.14404C19.4434 5.40185 19.6074 5.57764 19.8652 5.57764ZM19.8652 8.5542H21.002C21.2481 8.5542 21.4238 8.37842 21.4238 8.12061V7.01904C21.4238 6.74951 21.2481 6.56201 21.002 6.56201H19.8652C19.6192 6.56201 19.4434 6.74951 19.4434 7.01904V8.12061C19.4434 8.37842 19.6192 8.5542 19.8652 8.5542ZM19.8652 11.519H20.9902C21.2481 11.519 21.4238 11.3432 21.4238 11.0971V9.99561C21.4238 9.72607 21.2481 9.53857 21.002 9.53857H19.8652C19.6192 9.53857 19.4434 9.72607 19.4434 9.99561V11.0971C19.4434 11.3432 19.6192 11.519 19.8652 11.519Z" fill="black" fill-opacity="0.85"/>
</g>
<defs>
<clipPath id="clip0_2207_13675">
<rect width="24.8203" height="15.1055" fill="white" transform="translate(0.0839844 0.0112305)"/>
</clipPath>
</defs>
</svg>
