<svg width="28" height="22" viewBox="0 0 28 22" fill="none" xmlns="http://www.w3.org/2000/svg">
<g clip-path="url(#clip0_2207_7107)">
<path d="M3.76587 21.5854H24.0393C26.5003 21.5854 27.719 20.3784 27.719 17.9643V3.64404C27.719 1.22998 26.5003 0.0112305 24.0393 0.0112305H3.76587C1.31665 0.0112305 0.0861816 1.22998 0.0861816 3.64404V17.9643C0.0861816 20.3784 1.31665 21.5854 3.76587 21.5854ZM3.7893 19.6987C2.61743 19.6987 1.9729 19.0776 1.9729 17.8589V3.74951C1.9729 2.53076 2.61743 1.89795 3.7893 1.89795H24.0159C25.176 1.89795 25.8323 2.53076 25.8323 3.74951V17.8589C25.8323 19.0776 25.176 19.6987 24.0159 19.6987H3.7893Z" fill="black" fill-opacity="0.85"/>
<path d="M1.43384 18.105H16.6682C17.3245 18.105 17.6995 17.7182 17.6995 17.0503V4.55811C17.6995 3.89014 17.3245 3.50342 16.6682 3.50342H1.42212C1.19946 3.50342 1.02368 3.6792 1.02368 3.89014V17.7065C1.02368 17.9292 1.21118 18.105 1.43384 18.105ZM20.3245 18.105H26.4534C26.6643 18.105 26.8401 17.9292 26.8401 17.7065V3.89014C26.8401 3.6792 26.6643 3.50342 26.4534 3.50342H20.3245C19.68 3.50342 19.305 3.89014 19.305 4.55811V17.0503C19.305 17.7182 19.68 18.105 20.3245 18.105Z" fill="black" fill-opacity="0.85"/>
</g>
<defs>
<clipPath id="clip0_2207_7107">
<rect width="27.6328" height="21.5742" fill="white" transform="translate(0.0861816 0.0112305)"/>
</clipPath>
</defs>
</svg>
