<svg width="25" height="29" viewBox="0 0 25 29" fill="none" xmlns="http://www.w3.org/2000/svg">
<g clip-path="url(#clip0_2207_4862)">
<path d="M12.5259 2.49561C13.229 2.49561 13.7564 1.95654 13.7564 1.25342C13.7564 0.562011 13.2173 0.0112305 12.5259 0.0112305C11.8462 0.0112305 11.2837 0.57373 11.2837 1.25342C11.2837 1.94482 11.8345 2.49561 12.5259 2.49561ZM6.92431 5.71826C7.62745 5.71826 8.1665 5.1792 8.1665 4.47607C8.1665 3.78467 7.61573 3.23389 6.92431 3.23389C6.25634 3.23389 5.68213 3.79639 5.68213 4.47607C5.68213 5.16748 6.2329 5.71826 6.92431 5.71826ZM18.1157 5.71826C18.8189 5.71826 19.3579 5.1792 19.3579 4.47607C19.3579 3.78467 18.8071 3.23389 18.1157 3.23389C17.4478 3.23389 16.8735 3.79639 16.8735 4.47607C16.8735 5.16748 17.4243 5.71826 18.1157 5.71826ZM1.33448 8.98779C2.0376 8.98779 2.56495 8.44873 2.56495 7.74561C2.56495 7.06592 2.02588 6.51514 1.33448 6.51514C0.654785 6.51514 0.0922852 7.07764 0.0922852 7.74561C0.0922852 8.43701 0.643066 8.98779 1.33448 8.98779ZM23.6704 8.98779C24.3735 8.98779 24.9126 8.44873 24.9126 7.74561C24.9126 7.0542 24.3618 6.51514 23.6704 6.51514C22.9907 6.51514 22.4282 7.07764 22.4282 7.74561C22.4282 8.43701 22.979 8.98779 23.6704 8.98779ZM1.33448 15.4917C2.02588 15.4917 2.56495 14.9409 2.56495 14.2495C2.56495 13.5581 2.02588 13.0073 1.33448 13.0073C0.654785 13.0073 0.0922852 13.5698 0.0922852 14.2495C0.0922852 14.9409 0.643066 15.4917 1.33448 15.4917ZM23.6704 15.4917C24.3735 15.4917 24.9126 14.9526 24.9126 14.2495C24.9126 13.5581 24.3618 13.0073 23.6704 13.0073C22.9907 13.0073 22.4282 13.5698 22.4282 14.2495C22.4282 14.9409 22.979 15.4917 23.6704 15.4917ZM1.33448 21.9839C2.0376 21.9839 2.56495 21.4448 2.56495 20.7417C2.56495 20.062 2.02588 19.5112 1.33448 19.5112C0.654785 19.5112 0.0922852 20.0737 0.0922852 20.7417C0.0922852 21.4331 0.643066 21.9839 1.33448 21.9839ZM23.6704 21.9839C24.3735 21.9839 24.9126 21.4565 24.9126 20.7417C24.9126 20.062 24.3618 19.5112 23.6704 19.5112C22.9907 19.5112 22.4282 20.0737 22.4282 20.7417C22.4282 21.4331 22.979 21.9839 23.6704 21.9839ZM6.92431 25.2534C7.62745 25.2534 8.1665 24.726 8.1665 24.0229C8.1665 23.3315 7.61573 22.7807 6.92431 22.7807C6.25634 22.7807 5.68213 23.3432 5.68213 24.0229C5.68213 24.7143 6.2329 25.2534 6.92431 25.2534ZM18.1157 25.2534C18.8189 25.2534 19.3579 24.726 19.3579 24.0229C19.3579 23.3315 18.8071 22.7807 18.1157 22.7807C17.4478 22.7807 16.8735 23.3432 16.8735 24.0229C16.8735 24.7143 17.4243 25.2534 18.1157 25.2534ZM12.5259 28.4878C13.229 28.4878 13.7564 27.9487 13.7564 27.2456C13.7564 26.5542 13.2173 26.0034 12.5259 26.0034C11.8462 26.0034 11.2837 26.5659 11.2837 27.2456C11.2837 27.937 11.8345 28.4878 12.5259 28.4878Z" fill="black" fill-opacity="0.85"/>
<path d="M12.5259 9.42139C13.4517 9.42139 14.19 8.68311 14.19 7.74561C14.19 6.83154 13.44 6.08154 12.5259 6.08154C11.6118 6.08154 10.8501 6.84326 10.8501 7.74561C10.8501 8.67139 11.6001 9.42139 12.5259 9.42139ZM6.92431 12.6674C7.86181 12.6674 8.60009 11.9292 8.60009 10.9917C8.60009 10.0659 7.85009 9.31592 6.92431 9.31592C6.02197 9.31592 5.26025 10.0893 5.26025 10.9917C5.26025 11.9174 6.01025 12.6674 6.92431 12.6674ZM18.1157 12.6674C19.0532 12.6674 19.7915 11.9292 19.7915 10.9917C19.7915 10.0659 19.0415 9.31592 18.1157 9.31592C17.2134 9.31592 16.4517 10.0893 16.4517 10.9917C16.4517 11.9174 17.2017 12.6674 18.1157 12.6674ZM6.92431 19.1831C7.86181 19.1831 8.60009 18.4448 8.60009 17.5073C8.60009 16.5815 7.85009 15.8315 6.92431 15.8315C6.02197 15.8315 5.26025 16.5932 5.26025 17.5073C5.26025 18.4214 6.01025 19.1831 6.92431 19.1831ZM18.1157 19.1831C19.0532 19.1831 19.7915 18.4448 19.7915 17.5073C19.7915 16.5815 19.0415 15.8315 18.1157 15.8315C17.2134 15.8315 16.4517 16.5932 16.4517 17.5073C16.4517 18.4214 17.2017 19.1831 18.1157 19.1831ZM12.5259 22.4174C13.4517 22.4174 14.19 21.6792 14.19 20.7417C14.19 19.8276 13.44 19.0776 12.5259 19.0776C11.6235 19.0776 10.8501 19.8393 10.8501 20.7417C10.8501 21.6674 11.6001 22.4174 12.5259 22.4174Z" fill="black" fill-opacity="0.85"/>
<path d="M12.5258 16.2066C13.6156 16.2066 14.4828 15.3394 14.4828 14.2496C14.4828 13.1715 13.5922 12.2925 12.5258 12.2925C11.4594 12.2925 10.5688 13.1832 10.5688 14.2496C10.5688 15.316 11.4477 16.2066 12.5258 16.2066Z" fill="black" fill-opacity="0.85"/>
</g>
<defs>
<clipPath id="clip0_2207_4862">
<rect width="24.8203" height="28.4883" fill="white" transform="translate(0.0922852 0.0112305)"/>
</clipPath>
</defs>
</svg>
