<svg width="23" height="25" viewBox="0 0 23 25" fill="none" xmlns="http://www.w3.org/2000/svg">
<g clip-path="url(#clip0_2207_20315)">
<path d="M6.83838 24.6689C10.6704 24.6689 13.6469 22.1494 13.6469 18.915C13.6469 15.6689 10.6704 13.1494 6.83838 13.1494C2.98291 13.1494 0.00634766 15.6689 0.00634766 18.915C0.00634766 22.1494 2.98291 24.6689 6.83838 24.6689ZM6.83838 22.7822C4.04932 22.7822 1.89307 21.0947 1.89307 18.915C1.89307 16.7236 4.04932 15.0361 6.83838 15.0361C9.62744 15.0361 11.7602 16.7236 11.7602 18.915C11.7602 21.0947 9.62744 22.7822 6.83838 22.7822Z" fill="black" fill-opacity="0.85"/>
<path d="M6.79151 21.4111C8.27979 21.4111 9.49854 20.4971 9.49854 19.1963V5.73145H4.09619V19.1963C4.09619 20.4971 5.32666 21.4111 6.79151 21.4111Z" fill="white"/>
<path d="M6.7915 20.04C7.52978 20.04 8.13915 19.6885 8.13915 19.1963V7.10254H5.46728V19.1963C5.46728 19.6885 6.05322 20.04 6.7915 20.04ZM6.7915 10.0791C9.56884 10.0791 11.8071 7.81739 11.8071 5.02832C11.8071 2.2627 9.5454 0.0126953 6.7915 0.0126953C4.01415 0.0126953 1.74072 2.28614 1.74072 5.02832C1.74072 7.84082 4.01415 10.0791 6.7915 10.0791Z" fill="black" fill-opacity="0.85"/>
<path d="M19.6118 10.501C20.1157 10.501 20.5258 10.1025 20.5258 9.58693V6.32912H22.0727C22.9165 6.32912 23.1625 5.52052 22.6938 4.89943L20.2211 1.6299C19.893 1.20802 19.3071 1.1963 18.979 1.6299L16.518 4.89943C16.0258 5.54396 16.3188 6.32912 17.1274 6.32912H18.6977V9.58693C18.6977 10.1025 19.0961 10.501 19.6118 10.501ZM19.6118 14.1807C19.0961 14.1807 18.6977 14.5791 18.6977 15.0947V18.3525H17.1274C16.3188 18.3525 16.0258 19.1377 16.518 19.7822L18.979 23.0518C19.3071 23.4736 19.893 23.4736 20.2211 23.0518L22.6938 19.7822C23.1625 19.1611 22.9165 18.3525 22.0727 18.3525H20.5258V15.0947C20.5258 14.5791 20.1157 14.1807 19.6118 14.1807Z" fill="black" fill-opacity="0.85"/>
</g>
<defs>
<clipPath id="clip0_2207_20315">
<rect width="22.9223" height="24.668" fill="white" transform="translate(0.00634766 0.0126953)"/>
</clipPath>
</defs>
</svg>
