<svg width="34" height="22" viewBox="0 0 34 22" fill="none" xmlns="http://www.w3.org/2000/svg">
<g clip-path="url(#clip0_2207_20284)">
<path d="M4.8705 21.0947H28.3432C31.7885 21.0947 33.5814 18.8799 33.1361 15.2002L31.8705 4.64161C31.5189 1.65332 29.7963 0.0126953 27.0658 0.0126953H6.14785C3.41738 0.0126953 1.69472 1.65332 1.34316 4.64161L0.0775336 15.2002C-0.367779 18.8799 1.42519 21.0947 4.8705 21.0947ZM8.65566 13.9697C8.19863 13.9697 7.83535 13.7588 7.83535 13.4541V10.0791C6.558 9.70411 5.60879 8.53223 5.60879 7.1377C5.60879 5.47364 6.96816 4.10254 8.65566 4.10254C10.3197 4.10254 11.6908 5.46192 11.6908 7.1377C11.6908 8.5205 10.7416 9.70411 9.47597 10.0439V13.4541C9.47597 13.7588 9.10097 13.9697 8.65566 13.9697ZM8.65566 16.5361C6.19472 16.5361 4.46035 15.2236 4.46035 13.3604C4.46035 12.0479 5.3041 11.0166 6.66347 10.5127V12.0947C6.20644 12.3994 5.93691 12.833 5.93691 13.3604C5.93691 14.4619 7.05019 15.2354 8.65566 15.2354C10.2494 15.2354 11.351 14.4619 11.351 13.3604C11.351 12.8447 11.0932 12.4111 10.6478 12.1065V10.5127C11.9838 11.0283 12.8275 12.0479 12.8275 13.3604C12.8275 15.2236 11.1049 16.5361 8.65566 16.5361ZM15.7103 9.79786C14.7377 9.79786 13.9525 9.0127 13.9525 8.04004C13.9525 7.05567 14.7377 6.27051 15.7103 6.27051C16.6947 6.27051 17.4799 7.05567 17.4799 8.04004C17.4799 9.0127 16.6947 9.79786 15.7103 9.79786ZM20.8197 9.79786C19.8471 9.79786 19.0619 9.0127 19.0619 8.04004C19.0619 7.05567 19.8471 6.27051 20.8197 6.27051C21.7924 6.27051 22.5893 7.05567 22.5893 8.04004C22.5893 9.0127 21.7924 9.79786 20.8197 9.79786ZM25.9174 9.79786C24.9447 9.79786 24.1478 9.0127 24.1478 8.04004C24.1478 7.05567 24.9447 6.27051 25.9174 6.27051C26.8783 6.27051 27.6752 7.05567 27.6752 8.04004C27.6752 9.0127 26.8783 9.79786 25.9174 9.79786ZM17.4213 14.8838C16.4369 14.8838 15.6518 14.0986 15.6518 13.126C15.6518 12.1533 16.4369 11.3565 17.4213 11.3565C18.3822 11.3565 19.1674 12.1533 19.1674 13.126C19.1674 14.0986 18.3822 14.8838 17.4213 14.8838ZM22.5189 14.8838C21.5463 14.8838 20.7611 14.0986 20.7611 13.126C20.7611 12.1533 21.5463 11.3565 22.5189 11.3565C23.4916 11.3565 24.2885 12.1533 24.2885 13.126C24.2885 14.0986 23.4916 14.8838 22.5189 14.8838ZM27.6166 14.8838C26.6439 14.8838 25.8588 14.0986 25.8588 13.126C25.8588 12.1533 26.6439 11.3565 27.6166 11.3565C28.601 11.3565 29.3861 12.1533 29.3861 13.126C29.3861 14.0986 28.601 14.8838 27.6166 14.8838Z" fill="black" fill-opacity="0.85"/>
</g>
<defs>
<clipPath id="clip0_2207_20284">
<rect width="33.1927" height="21.082" fill="white" transform="translate(0.010498 0.0126953)"/>
</clipPath>
</defs>
</svg>
