<svg width="23" height="25" viewBox="0 0 23 25" fill="none" xmlns="http://www.w3.org/2000/svg">
<g clip-path="url(#clip0_2207_20308)">
<path d="M6.83423 24.6689C10.6663 24.6689 13.6428 22.1494 13.6428 18.915C13.6428 15.6689 10.6663 13.1494 6.83423 13.1494C2.97876 13.1494 0.00219727 15.6689 0.00219727 18.915C0.00219727 22.1494 2.97876 24.6689 6.83423 24.6689ZM6.83423 22.7822C4.04517 22.7822 1.88892 21.0947 1.88892 18.915C1.88892 16.7236 4.04517 15.0361 6.83423 15.0361C9.62329 15.0361 11.7561 16.7236 11.7561 18.915C11.7561 21.0947 9.62329 22.7822 6.83423 22.7822Z" fill="black" fill-opacity="0.85"/>
<path d="M6.78736 21.4111C8.27564 21.4111 9.49439 20.4971 9.49439 19.1963V5.73145H4.09204V19.1963C4.09204 20.4971 5.32251 21.4111 6.78736 21.4111Z" fill="white"/>
<path d="M6.78735 20.04C7.52563 20.04 8.135 19.6885 8.135 19.1963V7.10254H5.46313V19.1963C5.46313 19.6885 6.04907 20.04 6.78735 20.04ZM6.78735 10.0791C9.56469 10.0791 11.803 7.81739 11.803 5.02832C11.803 2.2627 9.54125 0.0126953 6.78735 0.0126953C4.01 0.0126953 1.73657 2.28614 1.73657 5.02832C1.73657 7.84082 4.01 10.0791 6.78735 10.0791Z" fill="black" fill-opacity="0.85"/>
<path d="M13.1155 10.4071C13.1155 10.9228 13.5256 11.3329 14.0413 11.3329H17.2874V12.9032C17.2874 13.7118 18.0725 14.0048 18.717 13.5126L21.9866 11.0517C22.4202 10.7235 22.4084 10.1259 21.9866 9.80951L18.717 7.33685C18.096 6.8681 17.2874 7.11419 17.2874 7.94622V9.50482H14.0413C13.5256 9.50482 13.1155 9.90325 13.1155 10.4071Z" fill="black" fill-opacity="0.85"/>
</g>
<defs>
<clipPath id="clip0_2207_20308">
<rect width="22.3052" height="24.668" fill="white" transform="translate(0.00219727 0.0126953)"/>
</clipPath>
</defs>
</svg>
