<svg width="32" height="25" viewBox="0 0 32 25" fill="none" xmlns="http://www.w3.org/2000/svg">
<g clip-path="url(#clip0_2207_20294)">
<path d="M15.5625 24.6689C19.3945 24.6689 22.3711 22.1494 22.3711 18.915C22.3711 15.6689 19.3945 13.1494 15.5625 13.1494C11.707 13.1494 8.73047 15.6689 8.73047 18.915C8.73047 22.1494 11.707 24.6689 15.5625 24.6689ZM15.5625 22.7822C12.7734 22.7822 10.6172 21.0947 10.6172 18.915C10.6172 16.7236 12.7734 15.0361 15.5625 15.0361C18.3516 15.0361 20.4844 16.7236 20.4844 18.915C20.4844 21.0947 18.3516 22.7822 15.5625 22.7822Z" fill="black" fill-opacity="0.85"/>
<path d="M15.5156 21.4111C17.0039 21.4111 18.2227 20.4971 18.2227 19.1963V5.73145H12.8203V19.1963C12.8203 20.4971 14.0508 21.4111 15.5156 21.4111Z" fill="white"/>
<path d="M15.5156 20.04C16.2539 20.04 16.8633 19.6885 16.8633 19.1963V7.10254H14.1914V19.1963C14.1914 19.6885 14.7773 20.04 15.5156 20.04ZM15.5156 10.0791C18.3047 10.0791 20.5312 7.81739 20.5312 5.02832C20.5312 2.2627 18.2812 0.0126953 15.5156 0.0126953C12.7383 0.0126953 10.4766 2.28614 10.4766 5.02832C10.4766 7.84082 12.7383 10.0791 15.5156 10.0791Z" fill="black" fill-opacity="0.85"/>
<path d="M9.1875 10.4071C9.1875 9.90325 8.78906 9.50482 8.27344 9.50482H5.01562V7.94622C5.01562 7.11419 4.20703 6.8681 3.58594 7.33685L0.316406 9.80951C-0.105469 10.1259 -0.105469 10.7235 0.316406 11.0517L3.58594 13.5126C4.23047 14.0048 5.01562 13.7118 5.01562 12.9032V11.3329H8.27344C8.78906 11.3329 9.1875 10.9228 9.1875 10.4071ZM21.8438 10.4071C21.8438 10.9228 22.2539 11.3329 22.7695 11.3329H26.0156V12.9032C26.0156 13.7118 26.8008 14.0048 27.4453 13.5126L30.7148 11.0517C31.1484 10.7235 31.1367 10.1259 30.7148 9.80951L27.4453 7.33685C26.8242 6.8681 26.0156 7.11419 26.0156 7.94622V9.50482H22.7695C22.2539 9.50482 21.8438 9.90325 21.8438 10.4071Z" fill="black" fill-opacity="0.85"/>
</g>
<defs>
<clipPath id="clip0_2207_20294">
<rect width="31.0357" height="24.668" fill="white" transform="translate(0 0.0126953)"/>
</clipPath>
</defs>
</svg>
