<svg width="24" height="24" viewBox="0 0 24 24" fill="none" xmlns="http://www.w3.org/2000/svg">
<g clip-path="url(#clip0_2207_736)">
<path d="M11.9677 23.9189C18.5068 23.9189 23.9208 18.4932 23.9208 11.9658C23.9208 5.42676 18.4951 0.0126953 11.956 0.0126953C5.42871 0.0126953 0.0146484 5.42676 0.0146484 11.9658C0.0146484 18.4932 5.44043 23.9189 11.9677 23.9189ZM11.9677 21.9268C6.43653 21.9268 2.01856 17.4971 2.01856 11.9658C2.01856 6.43458 6.42481 2.00489 11.956 2.00489C17.4873 2.00489 21.9287 6.43458 21.9287 11.9658C21.9287 17.4971 17.499 21.9268 11.9677 21.9268Z" fill="black" fill-opacity="0.85"/>
<path d="M8.53418 17.8955H15.378C16.6085 17.8955 17.2647 17.2627 17.2647 16.0322V10.1494H6.64746V16.0322C6.64746 17.2744 7.30371 17.8955 8.53418 17.8955ZM9.89356 12.3994C9.63574 12.3994 9.44824 12.2236 9.44824 11.9541V11.7549C9.44824 11.4736 9.63574 11.3096 9.89356 11.3096H14.0185C14.288 11.3096 14.4639 11.4736 14.4639 11.7549V11.9541C14.4639 12.2236 14.288 12.3994 14.0185 12.3994H9.89356ZM6.77637 9.20019H17.1357C17.8505 9.20019 18.2022 8.79003 18.2022 8.09863V7.52441C18.2022 6.82128 17.8505 6.39941 17.1357 6.39941H6.77637C6.12012 6.39941 5.72168 6.82128 5.72168 7.52441V8.09863C5.72168 8.79003 6.07324 9.20019 6.77637 9.20019Z" fill="black" fill-opacity="0.85"/>
</g>
<defs>
<clipPath id="clip0_2207_736">
<rect width="23.9062" height="23.918" fill="white" transform="translate(0.0146484 0.0126953)"/>
</clipPath>
</defs>
</svg>
