<svg width="24" height="22" viewBox="0 0 24 22" fill="none" xmlns="http://www.w3.org/2000/svg">
<g clip-path="url(#clip0_2207_732)">
<path d="M5.30396 21.6104H18.1594C20.468 21.6104 21.6985 20.415 21.6985 18.1182V6.90332H1.76489V18.1182C1.76489 20.4268 2.99536 21.6104 5.30396 21.6104ZM7.87036 11.1338C7.37818 11.1338 7.03833 10.7939 7.03833 10.2783V9.91504C7.03833 9.39942 7.37818 9.07129 7.87036 9.07129H15.6047C16.0969 9.07129 16.4485 9.39942 16.4485 9.91504V10.2783C16.4485 10.7939 16.0969 11.1338 15.6047 11.1338H7.87036ZM2.01099 5.29786H21.4524C22.7766 5.29786 23.4446 4.5127 23.4446 3.2002V2.13379C23.4446 0.821289 22.7766 0.0361328 21.4524 0.0361328H2.01099C0.75708 0.0361328 0.0187988 0.821289 0.0187988 2.13379V3.2002C0.0187988 4.5127 0.686768 5.29786 2.01099 5.29786Z" fill="black" fill-opacity="0.85"/>
</g>
<defs>
<clipPath id="clip0_2207_732">
<rect width="23.4258" height="21.5977" fill="white" transform="translate(0.0187988 0.0126953)"/>
</clipPath>
</defs>
</svg>
