<svg width="24" height="27" viewBox="0 0 24 27" fill="none" xmlns="http://www.w3.org/2000/svg">
<g clip-path="url(#clip0_2207_19924)">
<path d="M10.9077 25.7061C11.6108 26.0928 12.2202 26.0928 12.9233 25.7061L16.1694 23.8545C16.7319 23.5264 16.8726 22.9639 16.603 22.46C16.3452 21.9678 15.7124 21.8389 15.1616 22.1553L12.8882 23.4561V21.0772C12.8882 20.4443 12.478 19.9756 11.9155 19.9756C11.3413 19.9756 10.9312 20.4443 10.9312 21.0772V23.4561L8.65772 22.1553C8.11866 21.8389 7.48584 21.9678 7.21631 22.46C6.94678 22.9639 7.08741 23.5264 7.66162 23.8545L10.9077 25.7061ZM3.22022 21.335C3.78272 21.6514 4.40381 21.5342 4.67334 21.0303C4.93116 20.5381 4.73194 19.9287 4.21631 19.6357L2.95069 18.9326L4.75538 17.8897C5.32959 17.5732 5.54053 16.9404 5.23584 16.4717C4.91944 15.9912 4.34522 15.8506 3.80616 16.1436L1.91944 17.21V15.6865C1.91944 15.0537 1.50928 14.585 0.970215 14.585C0.407715 14.585 0.0209961 15.0537 0.0209961 15.6865V17.5264C0.0209961 19.2607 0.595215 19.8584 1.69678 20.4795L3.22022 21.335ZM0.970215 12.0537C1.53272 12.0537 1.91944 11.585 1.91944 10.9522V8.72558L4.08741 9.96778C4.60303 10.2607 5.18897 10.1318 5.51709 9.65137C5.82178 9.18262 5.59912 8.54981 5.01319 8.2334L2.98584 7.07325L4.96631 5.94825C5.56397 5.6084 5.75147 4.96387 5.44678 4.4834C5.13038 4.01465 4.54444 3.9209 4.05225 4.20215L1.49756 5.65528C0.536621 6.20606 0.0209961 6.94433 0.0209961 8.24512V10.9522C0.0209961 11.585 0.431152 12.0537 0.970215 12.0537ZM11.9155 5.80762C12.478 5.80762 12.8882 5.35059 12.8882 4.71778V2.53809L14.5405 3.48731C15.0679 3.792 15.7241 3.67481 15.9819 3.18262C16.2515 2.69043 16.0991 2.11622 15.5366 1.78809L12.9937 0.346679C12.2202 -0.0986327 11.5991 -0.0986327 10.8257 0.346679L8.28272 1.78809C7.72022 2.11622 7.57959 2.69043 7.83741 3.18262C8.09522 3.67481 8.75147 3.792 9.27881 3.48731L10.9312 2.53809V4.71778C10.9312 5.35059 11.3413 5.80762 11.9155 5.80762ZM22.8491 12.0537C23.3999 12.0537 23.7983 11.585 23.7983 10.9522V8.24512C23.7983 6.82715 23.4233 6.27637 22.3335 5.65528L19.7671 4.20215C19.2749 3.9209 18.689 4.01465 18.3843 4.4834C18.0679 4.96387 18.2671 5.6084 18.8648 5.94825L20.8452 7.07325L18.8062 8.2334C18.2319 8.54981 17.9976 9.18262 18.314 9.65137C18.6304 10.1318 19.228 10.2607 19.7319 9.96778L21.8999 8.72558V10.9522C21.8999 11.585 22.2983 12.0537 22.8491 12.0537ZM20.5991 21.335L22.1226 20.4795C23.2241 19.8584 23.7983 19.2607 23.7983 17.5264V15.6865C23.7983 15.0537 23.4116 14.585 22.8491 14.585C22.3101 14.585 21.8999 15.0537 21.8999 15.6865V17.2217L20.0132 16.1436C19.4858 15.8506 18.8999 15.9912 18.5952 16.4717C18.2788 16.9404 18.5015 17.5732 19.064 17.8897L20.8569 18.9326L19.603 19.6357C19.0991 19.9287 18.8882 20.5381 19.1577 21.0303C19.4155 21.5342 20.0483 21.6514 20.5991 21.335ZM11.9155 17.5615C12.478 17.5615 12.8882 17.0928 12.8882 16.46V13.8701L15.3022 12.4873C15.8648 12.1709 16.0757 11.5381 15.7593 11.0693C15.4546 10.5889 14.8804 10.4482 14.353 10.7412L11.9155 12.124L9.47803 10.7412C8.95069 10.4482 8.37647 10.5889 8.06006 11.0693C7.74366 11.5381 7.95459 12.1709 8.52881 12.4873L10.9312 13.8701V16.46C10.9312 17.0928 11.3413 17.5615 11.9155 17.5615Z" fill="black" fill-opacity="0.85"/>
</g>
<defs>
<clipPath id="clip0_2207_19924">
<rect width="23.7773" height="26.0625" fill="white" transform="translate(0.0209961 0.0126953)"/>
</clipPath>
</defs>
</svg>
