<svg width="22" height="22" viewBox="0 0 22 22" fill="none" xmlns="http://www.w3.org/2000/svg">
<g clip-path="url(#clip0_2207_24176)">
<path d="M3.69434 21.6145H17.9091C20.3701 21.6145 21.5888 20.3957 21.5888 17.9816V3.6731C21.5888 1.25904 20.3701 0.0402832 17.9091 0.0402832H3.69434C1.24512 0.0402832 0.0146484 1.24732 0.0146484 3.6731V17.9816C0.0146484 20.4074 1.24512 21.6145 3.69434 21.6145ZM3.71777 19.7277C2.5459 19.7277 1.90137 19.1066 1.90137 17.8879V3.76685C1.90137 2.5481 2.5459 1.92701 3.71777 1.92701H17.8857C19.0458 1.92701 19.7021 2.5481 19.7021 3.76685V17.8879C19.7021 19.1066 19.0458 19.7277 17.8857 19.7277H3.71777Z" fill="black" fill-opacity="0.85"/>
<path d="M5.38184 15.9895C5.82715 15.9895 6.15527 15.673 6.15527 15.216V6.41529C6.15527 5.95826 5.82715 5.63013 5.38184 5.63013C4.91309 5.63013 4.58496 5.95826 4.58496 6.41529V15.216C4.58496 15.673 4.91309 15.9895 5.38184 15.9895ZM17.6748 10.8215C17.6748 10.3762 17.3349 10.048 16.8896 10.048H11.5107L9.36621 10.1652L11.7451 8.05591L12.4834 7.34107C12.6474 7.17701 12.7177 6.97779 12.7177 6.76685C12.7177 6.32154 12.3662 6.01685 11.9443 6.01685C11.7334 6.01685 11.5341 6.07544 11.3584 6.25123L7.31543 10.2356C7.15137 10.3996 7.05762 10.6106 7.05762 10.8215C7.05762 11.0441 7.13965 11.2434 7.31543 11.4074L11.3466 15.3566C11.5107 15.509 11.7568 15.6145 11.9443 15.6145C12.3896 15.6145 12.7177 15.298 12.7177 14.8527C12.7177 14.6184 12.6474 14.4309 12.4834 14.2902L11.7334 13.5988L9.35449 11.4777L11.5107 11.6184H16.8896C17.3349 11.6184 17.6748 11.2902 17.6748 10.8215Z" fill="black" fill-opacity="0.85"/>
</g>
<defs>
<clipPath id="clip0_2207_24176">
<rect width="21.5742" height="21.5977" fill="white" transform="translate(0.0146484 0.0168457)"/>
</clipPath>
</defs>
</svg>
