<svg width="22" height="22" viewBox="0 0 22 22" fill="none" xmlns="http://www.w3.org/2000/svg">
<g clip-path="url(#clip0_2207_23451)">
<path d="M3.71753 21.6104H17.9323C20.3933 21.6104 21.612 20.3916 21.612 17.9775V3.66895C21.612 1.25489 20.3933 0.0361328 17.9323 0.0361328H3.71753C1.26831 0.0361328 0.0378418 1.24317 0.0378418 3.66895V17.9775C0.0378418 20.4033 1.26831 21.6104 3.71753 21.6104Z" fill="black" fill-opacity="0.85"/>
<path d="M4.63159 10.7939C4.63159 10.5244 4.72534 10.3369 4.97143 10.0908L9.04956 5.98925C9.21362 5.82519 9.43628 5.74316 9.68237 5.74316C10.198 5.74316 10.5612 6.11816 10.5612 6.62207C10.5612 6.87988 10.4558 7.10253 10.2917 7.27831L8.79175 8.7666L7.33862 9.98535L9.89331 9.87988H16.1628C16.6901 9.87988 17.0769 10.2549 17.0769 10.7939C17.0769 11.3213 16.7019 11.6963 16.1628 11.6963H9.89331L7.3269 11.6025L8.79175 12.8213L10.2917 14.3096C10.4675 14.4736 10.5612 14.6963 10.5612 14.9541C10.5612 15.458 10.198 15.8447 9.68237 15.8447C9.43628 15.8447 9.21362 15.751 9.04956 15.5869L4.97143 11.4971C4.74878 11.2744 4.63159 11.0635 4.63159 10.7939Z" fill="white"/>
</g>
<defs>
<clipPath id="clip0_2207_23451">
<rect width="21.5742" height="21.5977" fill="white" transform="translate(0.0378418 0.0126953)"/>
</clipPath>
</defs>
</svg>
