<svg width="22" height="22" viewBox="0 0 22 22" fill="none" xmlns="http://www.w3.org/2000/svg">
<g clip-path="url(#clip0_2207_24073)">
<path d="M3.76367 21.6131H17.9785C20.4395 21.6131 21.6582 20.3943 21.6582 17.9802V3.67163C21.6582 1.25757 20.4395 0.0388184 17.9785 0.0388184H3.76367C1.31445 0.0388184 0.0839844 1.24585 0.0839844 3.67163V17.9802C0.0839844 20.406 1.31445 21.6131 3.76367 21.6131Z" fill="black" fill-opacity="0.85"/>
<path d="M18.3887 10.8084C18.3887 11.0662 18.2832 11.2654 18.0488 11.5115L14.5567 15.0154C14.4043 15.1795 14.1817 15.2615 13.9238 15.2615C13.4317 15.2615 13.0567 14.8865 13.0567 14.3826C13.0567 14.1131 13.1621 13.9021 13.3145 13.7381L14.2285 12.8357L15.6934 11.617L13.1387 11.7224H8.61524L6.06055 11.617L7.51368 12.8357L8.42774 13.7381C8.58008 13.9021 8.68554 14.1131 8.68554 14.3826C8.68554 14.8865 8.31054 15.2615 7.81837 15.2615C7.56054 15.2615 7.3379 15.1795 7.18555 15.0154L3.69337 11.5115C3.45899 11.2654 3.35352 11.0662 3.35352 10.8084C3.35352 10.5388 3.45899 10.3396 3.69337 10.0935L7.18555 6.60133C7.3379 6.43727 7.56054 6.34351 7.81837 6.34351C8.31054 6.34351 8.68554 6.74195 8.68554 7.23414C8.68554 7.50367 8.5918 7.71461 8.42774 7.89039L7.51368 8.78101L6.04883 9.99977L8.61524 9.90601H13.1387L15.7051 9.99977L14.2285 8.78101L13.3145 7.89039C13.1504 7.71461 13.0567 7.50367 13.0567 7.23414C13.0567 6.74195 13.4317 6.34351 13.9238 6.34351C14.1817 6.34351 14.4043 6.43727 14.5567 6.60133L18.0488 10.0935C18.2832 10.3396 18.3887 10.5388 18.3887 10.8084Z" fill="white"/>
</g>
<defs>
<clipPath id="clip0_2207_24073">
<rect width="21.5742" height="21.5977" fill="white" transform="translate(0.0839844 0.0153809)"/>
</clipPath>
</defs>
</svg>
