<svg width="24" height="24" viewBox="0 0 24 24" fill="none" xmlns="http://www.w3.org/2000/svg">
<g clip-path="url(#clip0_2207_24411)">
<path d="M11.9553 23.9204C18.4944 23.9204 23.9084 18.4947 23.9084 11.9673C23.9084 5.42822 18.4827 0.0141602 11.9436 0.0141602C5.41626 0.0141602 0.00219727 5.42822 0.00219727 11.9673C0.00219727 18.4947 5.42798 23.9204 11.9553 23.9204Z" fill="black" fill-opacity="0.85"/>
<path d="M17.346 11.9673C16.8538 11.9673 16.467 11.5806 16.467 11.0884V10.479L16.5842 8.52197L13.9124 11.3345C13.5374 11.733 12.9397 11.7212 12.5647 11.3462C12.2014 10.983 12.2131 10.3619 12.5764 10.0103L15.3772 7.3501L13.4788 7.46728H12.8694C12.3772 7.46728 11.9788 7.08057 11.9788 6.58838C11.9788 6.09619 12.3772 5.69775 12.8694 5.69775H17.1936C17.8499 5.69775 18.2366 5.99072 18.2366 6.74072V11.0884C18.2366 11.5806 17.8381 11.9673 17.346 11.9673ZM11.053 18.2603H6.71704C6.06079 18.2603 5.68579 17.9673 5.68579 17.2173V12.8697C5.68579 12.3775 6.07251 11.9908 6.5647 11.9908C7.05689 11.9908 7.45532 12.3775 7.45532 12.8697V13.479L7.32642 15.4361L10.01 12.6236C10.3733 12.2251 10.9827 12.2369 11.346 12.6119C11.7092 12.9751 11.6975 13.5962 11.3342 13.9478L8.54517 16.608L10.4436 16.4908H11.053C11.5452 16.4908 11.9319 16.8775 11.9319 17.3697C11.9319 17.8619 11.5452 18.2603 11.053 18.2603Z" fill="white"/>
</g>
<defs>
<clipPath id="clip0_2207_24411">
<rect width="23.9062" height="23.918" fill="white" transform="translate(0.00219727 0.0141602)"/>
</clipPath>
</defs>
</svg>
