<svg width="24" height="24" viewBox="0 0 24 24" fill="none" xmlns="http://www.w3.org/2000/svg">
<g clip-path="url(#clip0_2207_24387)">
<path d="M12.0202 23.9204C18.5593 23.9204 23.9733 18.4947 23.9733 11.9673C23.9733 5.42822 18.5476 0.0141602 12.0085 0.0141602C5.4812 0.0141602 0.0671387 5.42822 0.0671387 11.9673C0.0671387 18.4947 5.49292 23.9204 12.0202 23.9204Z" fill="black" fill-opacity="0.85"/>
<path d="M17.4109 11.9673C16.9187 11.9673 16.5319 11.5806 16.5319 11.0884V10.479L16.6491 8.52197L13.9773 11.3345C13.6023 11.733 13.0046 11.7212 12.6296 11.3462C12.2663 10.983 12.278 10.3619 12.6413 10.0103L15.4421 7.3501L13.5437 7.46728H12.9343C12.4421 7.46728 12.0437 7.08057 12.0437 6.58838C12.0437 6.09619 12.4421 5.69775 12.9343 5.69775H17.2585C17.9148 5.69775 18.3015 5.99072 18.3015 6.74072V11.0884C18.3015 11.5806 17.903 11.9673 17.4109 11.9673ZM11.1179 18.2603H6.78198C6.12573 18.2603 5.75073 17.9673 5.75073 17.2173V12.8697C5.75073 12.3775 6.13745 11.9908 6.62964 11.9908C7.12183 11.9908 7.52026 12.3775 7.52026 12.8697V13.479L7.39136 15.4361L10.0749 12.6236C10.4382 12.2251 11.0476 12.2369 11.4109 12.6119C11.7741 12.9751 11.7624 13.5962 11.3991 13.9478L8.61011 16.608L10.5085 16.4908H11.1179C11.6101 16.4908 11.9968 16.8775 11.9968 17.3697C11.9968 17.8619 11.6101 18.2603 11.1179 18.2603Z" fill="white"/>
</g>
<defs>
<clipPath id="clip0_2207_24387">
<rect width="23.9062" height="23.918" fill="white" transform="translate(0.0671387 0.0141602)"/>
</clipPath>
</defs>
</svg>
