<svg width="22" height="22" viewBox="0 0 22 22" fill="none" xmlns="http://www.w3.org/2000/svg">
<g clip-path="url(#clip0_2207_24068)">
<path d="M3.76172 21.6131H17.9765C20.4375 21.6131 21.6562 20.3943 21.6562 17.9802V3.67163C21.6562 1.25757 20.4375 0.0388184 17.9765 0.0388184H3.76172C1.3125 0.0388184 0.0820312 1.24585 0.0820312 3.67163V17.9802C0.0820312 20.406 1.3125 21.6131 3.76172 21.6131ZM3.78515 19.7263C2.61328 19.7263 1.96875 19.1052 1.96875 17.8865V3.76538C1.96875 2.54663 2.61328 1.92554 3.78515 1.92554H17.9531C19.1132 1.92554 19.7695 2.54663 19.7695 3.76538V17.8865C19.7695 19.1052 19.1132 19.7263 17.9531 19.7263H3.78515Z" fill="black" fill-opacity="0.85"/>
<path d="M18.1523 10.8201C18.1523 10.5506 18.0468 10.3513 17.8242 10.1287L14.4375 6.74194C14.2851 6.57788 14.0742 6.49585 13.8281 6.49585C13.3476 6.49585 12.9843 6.87085 12.9843 7.35132C12.9843 7.59741 13.0781 7.82007 13.2422 7.97241L14.1328 8.8396L15.5625 10.0349L13.0781 9.94116H8.67187L6.1875 10.0349L7.60547 8.8396L8.49609 7.97241C8.66015 7.82007 8.75391 7.59741 8.75391 7.35132C8.75391 6.87085 8.39062 6.49585 7.91015 6.49585C7.66406 6.49585 7.45312 6.57788 7.30078 6.74194L3.91406 10.1287C3.69141 10.3513 3.58594 10.5506 3.58594 10.8201C3.58594 11.0662 3.69141 11.2537 3.91406 11.4881L7.30078 14.8982C7.45312 15.0506 7.66406 15.1326 7.91015 15.1326C8.39062 15.1326 8.75391 14.7576 8.75391 14.2888C8.75391 14.031 8.64844 13.8201 8.49609 13.656L7.60547 12.7771L6.19922 11.6052L8.67187 11.6873H13.0781L15.5508 11.6052L14.1328 12.7771L13.2422 13.656C13.0898 13.8201 12.9843 14.031 12.9843 14.2888C12.9843 14.7576 13.3476 15.1326 13.8281 15.1326C14.0742 15.1326 14.2851 15.0506 14.4375 14.8982L17.8242 11.4881C18.0468 11.2537 18.1523 11.0662 18.1523 10.8201Z" fill="black" fill-opacity="0.85"/>
</g>
<defs>
<clipPath id="clip0_2207_24068">
<rect width="21.5742" height="21.5977" fill="white" transform="translate(0.0820312 0.0153809)"/>
</clipPath>
</defs>
</svg>
