<svg width="18" height="25" viewBox="0 0 18 25" fill="none" xmlns="http://www.w3.org/2000/svg">
<g clip-path="url(#clip0_2207_24102)">
<path d="M17.7678 11.0718C17.7678 10.7905 17.6741 10.5444 17.4514 10.3101L9.67017 2.51709C9.44751 2.28272 9.17798 2.16553 8.88501 2.16553C8.59204 2.16553 8.32251 2.28272 8.09986 2.51709L0.330322 10.3101C0.107666 10.5444 0.00219727 10.7905 0.00219727 11.0718C0.00219727 11.646 0.424072 12.0913 1.01001 12.0913C1.29126 12.0913 1.57251 11.9976 1.74829 11.8101L4.42017 9.18506L8.6272 4.57959L7.95923 4.34522L7.84204 7.83741V23.2827C7.84204 23.8921 8.27564 24.314 8.88501 24.314C9.49439 24.314 9.92798 23.8921 9.92798 23.2827V7.83741L9.81079 4.34522L9.15454 4.57959L13.3499 9.18506L16.0217 11.8101C16.2092 11.9976 16.4788 12.0913 16.76 12.0913C17.346 12.0913 17.7678 11.646 17.7678 11.0718ZM17.7678 1.12256C17.7678 0.513184 17.3577 0.0678711 16.76 0.0678711H1.03345C0.424072 0.0678711 0.00219727 0.513184 0.00219727 1.12256C0.00219727 1.73194 0.424072 2.16553 1.03345 2.16553H16.76C17.3577 2.16553 17.7678 1.73194 17.7678 1.12256Z" fill="black" fill-opacity="0.85"/>
</g>
<defs>
<clipPath id="clip0_2207_24102">
<rect width="17.7656" height="24.293" fill="white" transform="translate(0.00219727 0.0209961)"/>
</clipPath>
</defs>
</svg>
