<svg width="27" height="25" viewBox="0 0 27 25" fill="none" xmlns="http://www.w3.org/2000/svg">
<g clip-path="url(#clip0_2207_9032)">
<path d="M5.14698 24.5705C6.729 24.5705 9.96338 22.9767 12.3422 21.2775C20.5102 21.5002 26.6391 16.8127 26.6391 10.672C26.6391 4.77746 20.7329 0.0196533 13.3501 0.0196533C5.96728 0.0196533 0.0610352 4.77746 0.0610352 10.672C0.0610352 14.5158 2.52198 17.9259 6.2251 19.6369C5.69776 20.6564 4.71338 22.0392 4.18604 22.7306C3.56495 23.5509 3.93994 24.5705 5.14698 24.5705ZM6.37745 22.6252C6.2837 22.6603 6.24854 22.59 6.30713 22.508C6.96338 21.6994 7.90088 20.4806 8.29932 19.7306C8.62745 19.1213 8.54541 18.5822 7.79541 18.2306C4.11573 16.5197 2.00635 13.7892 2.00635 10.672C2.00635 5.86731 7.03369 1.95324 13.3501 1.95324C19.6782 1.95324 24.7055 5.86731 24.7055 10.672C24.7055 15.465 19.6782 19.3791 13.3501 19.3791C13.1157 19.3791 12.7524 19.3674 12.2837 19.3556C11.7915 19.3556 11.4165 19.508 10.9712 19.8595C9.52979 20.9025 7.44385 22.1916 6.37745 22.6252Z" fill="black" fill-opacity="0.85"/>
<path d="M13.3618 16.6369C13.8774 16.6369 14.2407 16.2736 14.2407 15.7697V9.89856L14.1469 7.41418L15.3422 8.83215L16.7251 10.2385C16.8774 10.4142 17.0883 10.4963 17.3462 10.4963C17.8266 10.4963 18.2016 10.133 18.2016 9.65246C18.2016 9.41809 18.1079 9.20715 17.9555 9.04309L14.0532 5.15246C13.8305 4.92981 13.6313 4.81262 13.3618 4.81262C13.1157 4.81262 12.9165 4.91809 12.6821 5.15246L8.76806 9.04309C8.61572 9.20715 8.54541 9.41809 8.54541 9.65246C8.54541 10.133 8.90869 10.4963 9.38915 10.4963C9.63525 10.4963 9.85791 10.4025 10.0103 10.2385L11.4048 8.83215L12.5766 7.43762L12.4829 9.89856V15.7697C12.4829 16.2736 12.8579 16.6369 13.3618 16.6369Z" fill="black" fill-opacity="0.85"/>
</g>
<defs>
<clipPath id="clip0_2207_9032">
<rect width="26.5781" height="24.5508" fill="white" transform="translate(0.0610352 0.0196533)"/>
</clipPath>
</defs>
</svg>
