<svg width="22" height="22" viewBox="0 0 22 22" fill="none" xmlns="http://www.w3.org/2000/svg">
<g clip-path="url(#clip0_2207_23554)">
<path d="M3.70911 21.6131H17.9239C20.3849 21.6131 21.6036 20.3943 21.6036 17.9802V3.67163C21.6036 1.25757 20.3849 0.0388184 17.9239 0.0388184H3.70911C1.25989 0.0388184 0.0294189 1.24585 0.0294189 3.67163V17.9802C0.0294189 20.406 1.25989 21.6131 3.70911 21.6131ZM3.73254 19.7263C2.56067 19.7263 1.91614 19.1052 1.91614 17.8865V3.76538C1.91614 2.54663 2.56067 1.92554 3.73254 1.92554H17.9005C19.0606 1.92554 19.7169 2.54663 19.7169 3.76538V17.8865C19.7169 19.1052 19.0606 19.7263 17.9005 19.7263H3.73254Z" fill="black" fill-opacity="0.85"/>
<path d="M10.8341 4.84351C10.3302 4.84351 9.9552 5.2068 9.9552 5.72242V11.5818L10.0489 14.0545L8.87708 12.6482L7.48254 11.242C7.3302 11.0779 7.11926 10.9842 6.86145 10.9842C6.38098 10.9842 6.0177 11.3474 6.0177 11.8279C6.0177 12.074 6.08801 12.2849 6.24036 12.4373L10.1544 16.3279C10.3888 16.5623 10.588 16.6677 10.8341 16.6677C11.1036 16.6677 11.3028 16.5506 11.5255 16.3279L15.4278 12.4373C15.5919 12.2849 15.6739 12.074 15.6739 11.8279C15.6739 11.3474 15.2989 10.9842 14.8185 10.9842C14.5606 10.9842 14.3497 11.0662 14.1974 11.242L12.8146 12.6482L11.6192 14.0662L11.713 11.5818V5.72242C11.713 5.2068 11.3497 4.84351 10.8341 4.84351Z" fill="black" fill-opacity="0.85"/>
</g>
<defs>
<clipPath id="clip0_2207_23554">
<rect width="21.5742" height="21.5977" fill="white" transform="translate(0.0294189 0.0153809)"/>
</clipPath>
</defs>
</svg>
