<svg width="26" height="22" viewBox="0 0 26 22" fill="none" xmlns="http://www.w3.org/2000/svg">
<g clip-path="url(#clip0_2207_1261)">
<path d="M0.00415039 10.7686C0.00415039 11.1553 0.156494 11.6006 0.601806 12.0225L9.8479 20.753C10.4104 21.2803 10.8792 21.5147 11.4534 21.5147C12.2502 21.5147 12.8245 20.9287 12.8245 20.1436V15.3975H22.5744C24.2736 15.3975 25.2698 14.4366 25.2698 12.7608V8.78808C25.2698 7.1123 24.2736 6.15137 22.5744 6.15137H12.8245V1.45215C12.8245 0.666992 12.2503 0.0224609 11.43 0.0224609C10.8558 0.0224609 10.469 0.268555 9.8479 0.854492L0.601806 9.50293C0.144775 9.93652 0.00415039 10.3702 0.00415039 10.7686Z" fill="black" fill-opacity="0.85"/>
</g>
<defs>
<clipPath id="clip0_2207_1261">
<rect width="25.2656" height="21.5039" fill="white" transform="translate(0.00415039 0.0224609)"/>
</clipPath>
</defs>
</svg>
