<svg width="22" height="22" viewBox="0 0 22 22" fill="none" xmlns="http://www.w3.org/2000/svg">
<g clip-path="url(#clip0_2207_23969)">
<path d="M3.75318 21.5952H17.968C20.429 21.5952 21.6477 20.3765 21.6477 17.9624V3.65381C21.6477 1.23975 20.429 0.0209961 17.968 0.0209961H3.75318C1.30396 0.0209961 0.0734863 1.22803 0.0734863 3.65381V17.9624C0.0734863 20.3882 1.30396 21.5952 3.75318 21.5952Z" fill="black" fill-opacity="0.85"/>
<path d="M4.85474 12.103C4.85474 9.44287 6.74146 7.68505 9.5774 7.68505H12.9993L14.2063 7.74365L13.4094 7.11083L12.2258 5.9624C12.0501 5.81005 11.9563 5.57568 11.9563 5.3413C11.9563 4.82568 12.3196 4.43896 12.8235 4.43896C13.093 4.43896 13.2923 4.52099 13.468 4.69677L16.5266 7.80224C16.7376 8.0249 16.843 8.28271 16.843 8.55224C16.843 8.81005 16.7493 9.06787 16.5266 9.29052L13.4563 12.4312C13.2923 12.5952 13.0813 12.689 12.8118 12.689C12.3313 12.689 11.9563 12.2905 11.9563 11.7866C11.9563 11.5288 12.0501 11.3179 12.2258 11.1421L13.6438 9.77099L14.1946 9.38427L12.9993 9.43115H9.5774C7.78443 9.43115 6.60083 10.4976 6.60083 12.103C6.60083 13.8374 7.80787 14.9858 9.58911 14.9858H11.1829C11.7337 14.9858 12.0969 15.3374 12.0969 15.853C12.0969 16.3804 11.7219 16.7319 11.1594 16.7319H9.58911C6.75318 16.7319 4.85474 14.9038 4.85474 12.103Z" fill="white"/>
</g>
<defs>
<clipPath id="clip0_2207_23969">
<rect width="21.5742" height="21.8789" fill="white" transform="translate(0.0734863 0.0209961)"/>
</clipPath>
</defs>
</svg>
