<svg width="18" height="26" viewBox="0 0 18 26" fill="none" xmlns="http://www.w3.org/2000/svg">
<g clip-path="url(#clip0_2207_14111)">
<path d="M0.0944824 17.2979C0.0944824 19.1143 0.809327 20.4502 2.13354 21.1768C2.77807 21.5166 3.15307 21.9502 3.38745 22.7354L3.76245 23.9893C3.9851 24.7393 4.51245 25.1025 5.2976 25.1025H10.7117C11.5203 25.1025 12.0125 24.751 12.2351 23.9893L12.6218 22.7354C12.8562 21.9502 13.2312 21.5166 13.8757 21.1768C15.2 20.4502 15.9148 19.1143 15.9148 17.2979V7.81739C15.9148 6.00098 15.2 4.67676 13.8757 3.93848C13.2312 3.59864 12.8562 3.16504 12.6218 2.39161L12.2351 1.12598C12.0359 0.387695 11.5086 0.0126953 10.7117 0.0126953H5.2976C4.51245 0.0126953 3.9851 0.375976 3.76245 1.12598L3.38745 2.39161C3.16479 3.15332 2.78979 3.61036 2.13354 3.93848C0.821045 4.64161 0.0944824 5.97754 0.0944824 7.81739V17.2979ZM1.80542 17.0518V8.0752C1.80542 6.32911 2.82495 5.27442 4.53589 5.27442H11.4734C13.1843 5.27442 14.2039 6.32911 14.2039 8.0752V17.0518C14.2039 18.7861 13.1843 19.8408 11.4734 19.8408H4.53589C2.82495 19.8408 1.80542 18.7861 1.80542 17.0518ZM15.657 11.7315H16.0789C16.6883 11.7315 17.0867 11.3213 17.0867 10.6533V9.07129C17.0867 8.40332 16.6883 7.99317 16.0789 7.99317H15.657V11.7315Z" fill="black" fill-opacity="0.85"/>
<path d="M8.05152 7.77051C7.62965 7.77051 7.33668 8.0752 7.33668 8.49708V13.126L7.39527 15.0713L6.49293 13.9815L5.40308 12.8682C5.27418 12.751 5.08668 12.6572 4.88746 12.6572C4.48902 12.6572 4.18433 12.9619 4.18433 13.3604C4.18433 13.5479 4.24293 13.7354 4.37183 13.8643L7.48902 16.958C7.67652 17.1455 7.8523 17.2393 8.05152 17.2393C8.26246 17.2393 8.43824 17.1455 8.62574 16.958L11.7195 13.8643C11.8484 13.7354 11.9304 13.5479 11.9304 13.3604C11.9304 12.9619 11.6257 12.6572 11.2273 12.6572C11.0047 12.6572 10.8289 12.7393 10.7117 12.8682L9.62183 13.9815L8.69605 15.083L8.76637 13.126L8.77808 8.49708C8.77808 8.0752 8.46168 7.77051 8.05152 7.77051Z" fill="black" fill-opacity="0.85"/>
</g>
<defs>
<clipPath id="clip0_2207_14111">
<rect width="16.9922" height="25.0898" fill="white" transform="translate(0.0944824 0.0126953)"/>
</clipPath>
</defs>
</svg>
