<svg width="22" height="22" viewBox="0 0 22 22" fill="none" xmlns="http://www.w3.org/2000/svg">
<g clip-path="url(#clip0_2207_6773)">
<path d="M20.2405 1.40246C19.0452 0.207153 17.3577 0.0196533 15.3538 0.0196533H6.22486C4.25611 0.0196533 2.56861 0.207153 1.37329 1.40246C0.177978 2.59777 0.00219727 4.27356 0.00219727 6.24231V15.3713C0.00219727 17.3752 0.177978 19.0509 1.37329 20.2463C2.56861 21.4416 4.25611 21.6291 6.24829 21.6291H15.3538C17.3577 21.6291 19.0452 21.4416 20.2405 20.2463C21.4358 19.0509 21.6116 17.3752 21.6116 15.3713V6.26574C21.6116 4.26184 21.4358 2.59777 20.2405 1.40246Z" fill="black" fill-opacity="0.85"/>
<path d="M14.5803 13.8244C14.0295 13.8244 13.678 13.4494 13.678 12.8752V10.8009L13.8538 8.91419L12.1077 10.7775L7.6897 15.2072C7.51392 15.383 7.27954 15.4885 6.98658 15.4885C6.45923 15.4885 6.10767 15.1369 6.10767 14.5861C6.10767 14.3517 6.22486 14.1056 6.40064 13.9299L10.8303 9.50013L12.717 7.74232L10.9241 7.92982H8.74439C8.15845 7.92982 7.78345 7.57825 7.78345 7.05091C7.78345 6.51185 8.14673 6.16028 8.72095 6.16028H14.4514C15.0725 6.16028 15.4592 6.44154 15.4592 7.15638V12.8517C15.4592 13.4142 15.1077 13.8244 14.5803 13.8244Z" fill="white"/>
</g>
<defs>
<clipPath id="clip0_2207_6773">
<rect width="21.6094" height="21.6211" fill="white" transform="translate(0.00219727 0.0196533)"/>
</clipPath>
</defs>
</svg>
