<svg width="24" height="24" viewBox="0 0 24 24" fill="none" xmlns="http://www.w3.org/2000/svg">
<g clip-path="url(#clip0_2207_23568)">
<path d="M12.0056 23.9259C18.5447 23.9259 23.9587 18.5002 23.9587 11.9728C23.9587 5.43371 18.533 0.0196533 11.9939 0.0196533C5.46655 0.0196533 0.0524902 5.43371 0.0524902 11.9728C0.0524902 18.5002 5.47827 23.9259 12.0056 23.9259ZM12.0056 21.9338C6.47437 21.9338 2.0564 17.5041 2.0564 11.9728C2.0564 6.44153 6.46265 2.01184 11.9939 2.01184C17.5252 2.01184 21.9666 6.44153 21.9666 11.9728C21.9666 17.5041 17.5369 21.9338 12.0056 21.9338Z" fill="black" fill-opacity="0.85"/>
<path d="M8.31421 14.8791C8.82983 14.8791 9.16968 14.5158 9.16968 13.965V11.9377L8.9939 10.1095L10.6814 11.9142L14.9939 16.2267C15.158 16.3908 15.3806 16.4963 15.6619 16.4963C16.1775 16.4963 16.5291 16.1564 16.5291 15.6291C16.5291 15.3947 16.4119 15.1603 16.2478 14.9963L11.9236 10.672L10.0955 8.97277L11.8298 9.16027H13.9627C14.5252 9.16027 14.8884 8.82043 14.8884 8.30481C14.8884 7.78918 14.5369 7.44934 13.9861 7.44934H8.4314C7.83374 7.44934 7.44702 7.71887 7.44702 8.41027V13.9416C7.44702 14.4806 7.79858 14.8791 8.31421 14.8791Z" fill="black" fill-opacity="0.85"/>
</g>
<defs>
<clipPath id="clip0_2207_23568">
<rect width="23.9062" height="23.918" fill="white" transform="translate(0.0524902 0.0196533)"/>
</clipPath>
</defs>
</svg>
