<svg width="24" height="24" viewBox="0 0 24 24" fill="none" xmlns="http://www.w3.org/2000/svg">
<g clip-path="url(#clip0_2207_1413)">
<path d="M11.9531 23.93C18.4922 23.93 23.9062 18.5043 23.9062 11.9769C23.9062 5.43786 18.4805 0.0238037 11.9414 0.0238037C5.41406 0.0238037 0 5.43786 0 11.9769C0 18.5043 5.42578 23.93 11.9531 23.93ZM11.9531 21.9379C6.42188 21.9379 2.00391 17.5082 2.00391 11.9769C2.00391 6.44568 6.41016 2.01599 11.9414 2.01599C17.4727 2.01599 21.9141 6.44568 21.9141 11.9769C21.9141 17.5082 17.4844 21.9379 11.9531 21.9379Z" fill="black" fill-opacity="0.85"/>
<path d="M6.11719 17.016C6.38672 17.016 6.67969 16.9457 6.89062 16.5472C7.99219 14.4847 9.52734 13.8636 11.9766 13.8636H12.1641V16.2777C12.1641 16.6996 12.4688 17.016 12.8906 17.016C13.207 17.016 13.4531 16.8754 13.7461 16.6058L18.7266 11.9183C18.9727 11.6957 19.0547 11.4496 19.0547 11.2386C19.0547 11.0277 18.9727 10.7816 18.7266 10.559L13.7461 5.90661C13.418 5.60192 13.2188 5.4613 12.9023 5.4613C12.4688 5.4613 12.1641 5.81286 12.1641 6.23474V8.62536H11.9766C7.46484 8.62536 5.47266 11.5082 5.47266 16.1722C5.47266 16.723 5.78906 17.016 6.11719 17.016Z" fill="black" fill-opacity="0.85"/>
</g>
<defs>
<clipPath id="clip0_2207_1413">
<rect width="23.9062" height="23.918" fill="white" transform="translate(0 0.0238037)"/>
</clipPath>
</defs>
</svg>
