<svg width="23" height="24" viewBox="0 0 23 24" fill="none" xmlns="http://www.w3.org/2000/svg">
<g clip-path="url(#clip0_2207_24426)">
<path d="M2.11573 10.6326H8.61963C9.81494 10.6326 10.5063 9.92944 10.5063 8.73413V2.24194C10.5063 1.63257 10.0493 1.1521 9.42823 1.1521C8.80713 1.1521 8.36182 1.62085 8.36182 2.24194V3.22632L8.60791 7.31616L5.51416 4.07007L1.91651 0.437256C1.71729 0.226319 1.44776 0.12085 1.16651 0.12085C0.498536 0.12085 0.00634766 0.566162 0.00634766 1.22241C0.00634766 1.5271 0.123536 1.82007 0.334473 2.031L3.94385 5.64038L7.18994 8.72241L3.1001 8.48804H2.11573C1.49463 8.48804 1.01416 8.92163 1.01416 9.55444C1.01416 10.1756 1.48291 10.6326 2.11573 10.6326ZM13.354 22.5271C13.9751 22.5271 14.4204 22.0701 14.4204 21.4373V20.324L14.1743 16.2459L17.268 19.492L20.9477 23.1951C21.1469 23.406 21.4047 23.5115 21.6977 23.5115C22.354 23.5115 22.8461 23.0662 22.8461 22.4099C22.8461 22.1052 22.7407 21.8123 22.5297 21.6013L18.8383 17.9099L15.5805 14.8279L19.6821 15.0623H20.7954C21.4165 15.0623 21.8969 14.6287 21.8969 14.0076C21.8969 13.3748 21.4282 12.9295 20.7954 12.9295H14.1625C12.9672 12.9295 12.2758 13.6209 12.2758 14.8162V21.4373C12.2758 22.0584 12.7211 22.5271 13.354 22.5271Z" fill="black" fill-opacity="0.85"/>
</g>
<defs>
<clipPath id="clip0_2207_24426">
<rect width="22.8398" height="23.4961" fill="white" transform="translate(0.00634766 0.0153809)"/>
</clipPath>
</defs>
</svg>
