<svg width="24" height="24" viewBox="0 0 24 24" fill="none" xmlns="http://www.w3.org/2000/svg">
<g clip-path="url(#clip0_2207_1301)">
<path d="M11.9782 23.9287C18.5173 23.9287 23.9313 18.503 23.9313 11.9756C23.9313 5.43652 18.5056 0.0224609 11.9665 0.0224609C5.43921 0.0224609 0.0251465 5.43652 0.0251465 11.9756C0.0251465 18.503 5.45093 23.9287 11.9782 23.9287ZM11.9782 21.9366C6.44703 21.9366 2.02906 17.5069 2.02906 11.9756C2.02906 6.44434 6.43531 2.01465 11.9665 2.01465C17.4978 2.01465 21.9392 6.44434 21.9392 11.9756C21.9392 17.5069 17.5095 21.9366 11.9782 21.9366Z" fill="black" fill-opacity="0.85"/>
<path d="M18.8806 11.9756C18.8806 11.7647 18.7986 11.5186 18.5643 11.2842L13.5135 6.58496C13.1854 6.26855 12.9743 6.13965 12.6697 6.13965C12.2243 6.13965 11.908 6.47949 11.908 6.90137V9.46777H6.61109C5.68531 9.46777 5.14624 9.9834 5.14624 10.8975V13.0655C5.14624 13.9678 5.68531 14.4834 6.61109 14.4834H11.908V17.0733C11.908 17.5069 12.2244 17.8116 12.6463 17.8116C12.9627 17.8116 13.2205 17.6827 13.5135 17.4131L18.5643 12.6553C18.7986 12.4209 18.8806 12.1748 18.8806 11.9756Z" fill="black" fill-opacity="0.85"/>
</g>
<defs>
<clipPath id="clip0_2207_1301">
<rect width="23.9062" height="23.918" fill="white" transform="translate(0.0251465 0.0224609)"/>
</clipPath>
</defs>
</svg>
