<svg width="22" height="22" viewBox="0 0 22 22" fill="none" xmlns="http://www.w3.org/2000/svg">
<g clip-path="url(#clip0_2207_23698)">
<path d="M3.69239 21.6119H17.9072C20.3682 21.6119 21.5869 20.3931 21.5869 17.979V3.67041C21.5869 1.25635 20.3682 0.0375977 17.9072 0.0375977H3.69239C1.24317 0.0375977 0.0126953 1.24463 0.0126953 3.67041V17.979C0.0126953 20.4048 1.24317 21.6119 3.69239 21.6119ZM3.71582 19.7251C2.54395 19.7251 1.89942 19.104 1.89942 17.8853V3.76416C1.89942 2.54541 2.54395 1.92432 3.71582 1.92432H17.8838C19.0439 1.92432 19.7002 2.54541 19.7002 3.76416V17.8853C19.7002 19.104 19.0439 19.7251 17.8838 19.7251H3.71582Z" fill="black" fill-opacity="0.85"/>
<path d="M7.12598 7.90088C6.61036 7.90088 6.27051 8.2876 6.27051 8.83838V14.3697C6.27051 15.0611 6.64551 15.3306 7.24317 15.3306H12.7979C13.3486 15.3306 13.7002 14.9908 13.7002 14.4751C13.7002 13.9595 13.3369 13.6197 12.7744 13.6197H10.6416L8.90723 13.8072L10.7354 12.0962L15.0596 7.78369C15.2236 7.61963 15.3408 7.38525 15.3408 7.15088C15.3408 6.62354 14.9893 6.28369 14.4736 6.28369C14.1924 6.28369 13.9815 6.38916 13.8057 6.55322L9.49317 10.8658L7.80567 12.6704L7.98145 10.8423V8.81494C7.98145 8.25244 7.64161 7.90088 7.12598 7.90088Z" fill="black" fill-opacity="0.85"/>
</g>
<defs>
<clipPath id="clip0_2207_23698">
<rect width="21.5742" height="21.5977" fill="white" transform="translate(0.0126953 0.0141602)"/>
</clipPath>
</defs>
</svg>
