<svg width="24" height="24" viewBox="0 0 24 24" fill="none" xmlns="http://www.w3.org/2000/svg">
<g clip-path="url(#clip0_2207_24726)">
<path d="M11.9531 23.9313C18.4922 23.9313 23.9062 18.5056 23.9062 11.9782C23.9062 5.43921 18.4805 0.0251465 11.9414 0.0251465C5.41406 0.0251465 0 5.43921 0 11.9782C0 18.5056 5.42578 23.9313 11.9531 23.9313ZM11.9531 21.9392C6.42188 21.9392 2.00391 17.5095 2.00391 11.9782C2.00391 6.44703 6.41016 2.01734 11.9414 2.01734C17.4727 2.01734 21.9141 6.44703 21.9141 11.9782C21.9141 17.5095 17.4844 21.9392 11.9531 21.9392Z" fill="black" fill-opacity="0.85"/>
<path d="M7.86331 15.5877H16.0312C16.5938 15.5877 16.8398 14.9666 16.5117 14.4158L12.5859 7.73614C12.2812 7.23223 11.6016 7.25567 11.3203 7.73614L7.37112 14.4158C7.06644 14.9197 7.30081 15.5877 7.86331 15.5877Z" fill="black" fill-opacity="0.85"/>
</g>
<defs>
<clipPath id="clip0_2207_24726">
<rect width="23.9062" height="23.918" fill="white" transform="translate(0 0.0251465)"/>
</clipPath>
</defs>
</svg>
