<svg width="22" height="22" viewBox="0 0 22 22" fill="none" xmlns="http://www.w3.org/2000/svg">
<g clip-path="url(#clip0_2207_24708)">
<path d="M3.73633 21.6215H17.9511C20.4121 21.6215 21.6308 20.4027 21.6308 17.9886V3.68005C21.6308 1.26599 20.4121 0.0472412 17.9511 0.0472412H3.73633C1.28711 0.0472412 0.0566406 1.25427 0.0566406 3.68005V17.9886C0.0566406 20.4144 1.28711 21.6215 3.73633 21.6215ZM3.75976 19.7347C2.58789 19.7347 1.94336 19.1136 1.94336 17.8949V3.7738C1.94336 2.55505 2.58789 1.93396 3.75976 1.93396H17.9277C19.0878 1.93396 19.7441 2.55505 19.7441 3.7738V17.8949C19.7441 19.1136 19.0878 19.7347 17.9277 19.7347H3.75976Z" fill="black" fill-opacity="0.85"/>
<path d="M8.66992 15.3988L15.3378 11.4496C15.83 11.1683 15.8183 10.4886 15.3378 10.1957L8.66992 6.24644C8.16602 5.95347 7.49805 6.17612 7.49805 6.75034V14.8949C7.49805 15.4574 8.11914 15.7269 8.66992 15.3988Z" fill="black" fill-opacity="0.85"/>
</g>
<defs>
<clipPath id="clip0_2207_24708">
<rect width="21.5742" height="21.5977" fill="white" transform="translate(0.0566406 0.0238037)"/>
</clipPath>
</defs>
</svg>
