<svg width="22" height="22" viewBox="0 0 22 22" fill="none" xmlns="http://www.w3.org/2000/svg">
<g clip-path="url(#clip0_2207_24464)">
<path d="M3.71961 21.6119H17.9344C20.3954 21.6119 21.6141 20.3931 21.6141 17.979V3.67041C21.6141 1.25635 20.3954 0.0375977 17.9344 0.0375977H3.71961C1.27039 0.0375977 0.039917 1.24463 0.039917 3.67041V17.979C0.039917 20.4048 1.27039 21.6119 3.71961 21.6119ZM3.74304 19.7251C2.57117 19.7251 1.92664 19.104 1.92664 17.8853V3.76416C1.92664 2.54541 2.57117 1.92432 3.74304 1.92432H17.911C19.0711 1.92432 19.7274 2.54541 19.7274 3.76416V17.8853C19.7274 19.104 19.0711 19.7251 17.911 19.7251H3.74304Z" fill="black" fill-opacity="0.85"/>
<path d="M5.66493 10.6548H9.71962C10.329 10.6548 10.6922 10.3853 10.6922 9.68215V5.60402C10.6922 5.14699 10.3172 4.78371 9.86024 4.78371C9.40321 4.78371 9.03993 5.14699 9.03993 5.60402V6.17824L9.15712 8.0298L6.09852 4.85402C5.75868 4.49074 5.19618 4.49074 4.85634 4.8423C4.51649 5.18215 4.52821 5.74465 4.86805 6.08449L8.03212 9.11965L6.23915 9.00246H5.66493C5.2079 9.00246 4.8329 9.36574 4.8329 9.82277C4.8329 10.2798 5.2079 10.6548 5.66493 10.6548ZM11.8055 16.8189C12.2626 16.8189 12.6258 16.4556 12.6258 15.9986V15.4244L12.5087 13.5728L15.5672 16.7486C15.9071 17.1119 16.4696 17.1119 16.8094 16.7603C17.1493 16.4204 17.1376 15.8462 16.7977 15.5181L13.6337 12.483L15.4266 12.6001H16.0008C16.4579 12.6001 16.8329 12.2369 16.8329 11.7798C16.8329 11.3111 16.4579 10.9478 16.0008 10.9478H11.9461C11.3368 10.9478 10.9735 11.2173 10.9735 11.9087V15.9986C10.9735 16.4556 11.3485 16.8189 11.8055 16.8189Z" fill="black" fill-opacity="0.85"/>
</g>
<defs>
<clipPath id="clip0_2207_24464">
<rect width="21.5742" height="21.5977" fill="white" transform="translate(0.039917 0.0141602)"/>
</clipPath>
</defs>
</svg>
