<svg width="30" height="20" viewBox="0 0 30 20" fill="none" xmlns="http://www.w3.org/2000/svg">
<g clip-path="url(#clip0_2207_9662)">
<path d="M4.66479 19.2853H16.9109C19.7703 19.2853 21.4812 17.6213 21.4812 14.7619V4.53137C21.4812 1.68371 19.7703 0.0196533 16.9109 0.0196533H4.66479C1.93432 0.0196533 0.0944824 1.68371 0.0944824 4.53137V14.7619C0.0944824 17.6213 1.80542 19.2853 4.66479 19.2853ZM4.99292 17.5158C3.07104 17.5158 1.9812 16.5197 1.9812 14.4924V4.81262C1.9812 2.77356 3.07104 1.77746 4.99292 1.77746H16.5828C18.4929 1.77746 19.5945 2.77356 19.5945 4.81262V14.4924C19.5945 16.5197 18.4929 17.5158 16.5828 17.5158H4.99292ZM21.2117 6.37121V8.59777L26.7898 3.99231C26.8953 3.91027 26.9656 3.85168 27.0711 3.85168C27.2117 3.85168 27.2703 3.96887 27.2703 4.13293V15.172C27.2703 15.3361 27.2117 15.4416 27.0711 15.4416C26.9656 15.4416 26.8953 15.383 26.7898 15.3127L21.2117 10.7072V12.922L25.9109 16.9064C26.3797 17.2931 26.8953 17.5627 27.3757 17.5627C28.407 17.5627 29.0867 16.8009 29.0867 15.7111V3.59387C29.0867 2.50403 28.407 1.74231 27.3757 1.74231C26.8953 1.74231 26.3797 2.01184 25.9109 2.39856L21.2117 6.37121Z" fill="black" fill-opacity="0.85"/>
<path d="M6.87964 14.4688C7.13745 14.4688 7.32495 14.3868 7.48901 14.211L12.2937 9.40637L14.1101 7.43762L13.8992 10.7891V12.3712C13.8992 12.8282 14.239 13.2032 14.6961 13.2032C15.1765 13.2032 15.5633 12.8516 15.5633 12.3712V5.85559C15.5633 5.23449 15.2703 4.92981 14.6492 4.92981H8.1101C7.62964 4.92981 7.27807 5.31653 7.27807 5.79699C7.27807 6.25403 7.65307 6.59387 8.1101 6.59387H9.71557L13.0789 6.38293L11.0867 8.19934L6.2937 13.0157C6.1062 13.2032 6.01245 13.4024 6.01245 13.6602C6.01245 14.1173 6.38745 14.4688 6.87964 14.4688Z" fill="black" fill-opacity="0.85"/>
</g>
<defs>
<clipPath id="clip0_2207_9662">
<rect width="28.9922" height="19.2773" fill="white" transform="translate(0.0944824 0.0196533)"/>
</clipPath>
</defs>
</svg>
