<svg width="24" height="24" viewBox="0 0 24 24" fill="none" xmlns="http://www.w3.org/2000/svg">
<g clip-path="url(#clip0_2207_24435)">
<path d="M11.9636 23.9216C18.5027 23.9216 23.9167 18.4959 23.9167 11.9685C23.9167 5.42944 18.491 0.0153809 11.9519 0.0153809C5.42456 0.0153809 0.010498 5.42944 0.010498 11.9685C0.010498 18.4959 5.43628 23.9216 11.9636 23.9216Z" fill="black" fill-opacity="0.85"/>
<path d="M6.63158 11.8162C6.15111 11.8162 5.7644 11.4295 5.7644 10.949C5.7644 10.4802 6.15111 10.1052 6.63158 10.1052H7.21752L9.06908 10.2224L5.81127 7.10524C5.45971 6.74196 5.43627 6.16774 5.79955 5.81618C6.15111 5.4529 6.72533 5.4529 7.0769 5.8279L10.2293 9.09743L10.1121 7.18728V6.60134C10.1121 6.12087 10.4871 5.74587 10.9558 5.74587C11.4363 5.74587 11.823 6.12087 11.823 6.60134V10.8084C11.823 11.5349 11.448 11.8162 10.8152 11.8162H6.63158ZM12.9714 18.1795C12.491 18.1795 12.1043 17.8045 12.1043 17.324V13.1052C12.1043 12.3904 12.4793 12.1092 13.1121 12.1092H17.2957C17.7761 12.1092 18.1628 12.4842 18.1628 12.9763C18.1628 13.4451 17.7761 13.8201 17.2957 13.8201H16.7097L14.8582 13.7029L18.116 16.8201C18.4675 17.1716 18.491 17.7576 18.1277 18.1092C17.7761 18.4724 17.2019 18.4724 16.8503 18.0974L13.698 14.8279L13.8152 16.7381V17.324C13.8152 17.8045 13.4402 18.1795 12.9714 18.1795Z" fill="white"/>
</g>
<defs>
<clipPath id="clip0_2207_24435">
<rect width="23.9062" height="23.918" fill="white" transform="translate(0.010498 0.0153809)"/>
</clipPath>
</defs>
</svg>
