<svg width="24" height="24" viewBox="0 0 24 24" fill="none" xmlns="http://www.w3.org/2000/svg">
<g clip-path="url(#clip0_2207_23484)">
<path d="M12.0014 23.9216C18.5405 23.9216 23.9545 18.4959 23.9545 11.9685C23.9545 5.42944 18.5288 0.0153809 11.9897 0.0153809C5.4624 0.0153809 0.0483398 5.42944 0.0483398 11.9685C0.0483398 18.4959 5.47412 23.9216 12.0014 23.9216ZM12.0014 21.9295C6.47022 21.9295 2.05225 17.4998 2.05225 11.9685C2.05225 6.43726 6.4585 2.00757 11.9897 2.00757C17.521 2.00757 21.9624 6.43726 21.9624 11.9685C21.9624 17.4998 17.5327 21.9295 12.0014 21.9295Z" fill="black" fill-opacity="0.85"/>
<path d="M18.0131 11.9568C18.0131 11.699 17.9194 11.5115 17.685 11.2771L13.7241 7.29272C13.5717 7.14038 13.3608 7.05835 13.1147 7.05835C12.6342 7.05835 12.271 7.42163 12.271 7.9021C12.271 8.15991 12.3764 8.37085 12.5288 8.53491L13.9936 9.98804L15.4116 11.1716L12.9389 11.0779H6.82178C6.31787 11.0779 5.94287 11.4412 5.94287 11.9568C5.94287 12.4607 6.31787 12.824 6.82178 12.824H12.9389L15.4116 12.742L13.9936 13.9256L12.5288 15.3787C12.3647 15.531 12.271 15.742 12.271 15.9998C12.271 16.4802 12.6342 16.8552 13.1147 16.8552C13.3608 16.8552 13.5717 16.7615 13.7241 16.6092L17.685 12.6365C17.9077 12.4256 18.0131 12.2146 18.0131 11.9568Z" fill="black" fill-opacity="0.85"/>
</g>
<defs>
<clipPath id="clip0_2207_23484">
<rect width="23.9062" height="23.918" fill="white" transform="translate(0.0483398 0.0153809)"/>
</clipPath>
</defs>
</svg>
