<svg width="24" height="25" viewBox="0 0 24 25" fill="none" xmlns="http://www.w3.org/2000/svg">
<g clip-path="url(#clip0_2207_24031)">
<path d="M11.9887 23.9272C18.5278 23.9272 23.9418 18.5132 23.9418 11.9741C23.9418 5.44678 18.5161 0.0209961 11.977 0.0209961C5.4497 0.0209961 0.0356445 5.44678 0.0356445 11.9741C0.0356445 18.5132 5.46142 23.9272 11.9887 23.9272Z" fill="black" fill-opacity="0.85"/>
<path d="M13.2544 5.8335C16.0551 5.8335 17.8833 7.74366 17.8833 10.5679V12.1382C17.8833 12.7007 17.5317 13.0874 17.0044 13.0874C16.4887 13.0874 16.1372 12.7124 16.1372 12.1616V10.5679C16.1372 8.79834 14.9887 7.59131 13.2544 7.59131C11.6489 7.59131 10.5825 8.77491 10.5825 10.5562V13.978L10.5239 15.1851L10.9223 14.6343L12.2934 13.2046C12.4575 13.0405 12.6801 12.9351 12.9379 12.9351C13.4418 12.9351 13.8403 13.3101 13.8403 13.8022C13.8403 14.0601 13.7465 14.2827 13.5825 14.4351L10.4418 17.5171C10.2192 17.7398 9.96142 17.8335 9.70361 17.8335C9.43408 17.8335 9.17626 17.728 8.95361 17.5171L5.84814 14.4468C5.67236 14.2827 5.59033 14.0718 5.59033 13.814C5.59033 13.3101 5.98876 12.9351 6.48095 12.9351C6.72705 12.9351 6.96142 13.0405 7.11376 13.2046L8.2622 14.3999L8.89502 15.1968L8.83642 13.978V10.5562C8.83642 7.73194 10.5942 5.8335 13.2544 5.8335Z" fill="white"/>
</g>
<defs>
<clipPath id="clip0_2207_24031">
<rect width="23.9062" height="24.1992" fill="white" transform="translate(0.0356445 0.0209961)"/>
</clipPath>
</defs>
</svg>
