<svg width="29" height="22" viewBox="0 0 29 22" fill="none" xmlns="http://www.w3.org/2000/svg">
<g clip-path="url(#clip0_2207_1489)">
<path d="M17.2593 21.5277C17.8335 21.5277 18.3022 21.2933 18.8648 20.766L28.1108 12.0355C28.5679 11.6136 28.7085 11.1683 28.7085 10.7816C28.7085 10.3832 28.5679 9.93786 28.1108 9.51599L18.8648 0.867554C18.2437 0.281616 17.8569 0.0238037 17.2827 0.0238037C16.4624 0.0238037 15.8882 0.680054 15.8882 1.46521V6.01208H8.28272C6.25538 6.01208 5.38819 6.85583 5.38819 8.84802V11.2972H2.91553C0.888184 11.2972 0.0209961 12.1293 0.0209961 14.1215V18.6215C0.0209961 20.6136 0.888184 21.4574 2.91553 21.4574H9.98194C12.0093 21.4574 12.8765 20.6136 12.8765 18.6215V15.9496H15.8882V20.1566C15.8882 20.9418 16.4624 21.5277 17.2593 21.5277ZM11.5405 18.7269L6.80616 16.7465C5.65772 16.266 5.23584 15.7621 5.17725 14.8363C5.16553 14.6019 5.41162 14.555 5.51709 14.7777C5.86866 15.5511 6.66553 15.9496 7.83741 15.9496H11.6929V18.6566C11.6929 18.7269 11.6108 18.7621 11.5405 18.7269Z" fill="black" fill-opacity="0.85"/>
</g>
<defs>
<clipPath id="clip0_2207_1489">
<rect width="28.6875" height="21.5273" fill="white" transform="translate(0.0209961 0.0238037)"/>
</clipPath>
</defs>
</svg>
