<svg width="24" height="24" viewBox="0 0 24 24" fill="none" xmlns="http://www.w3.org/2000/svg">
<g clip-path="url(#clip0_2207_24459)">
<path d="M11.9909 23.9204C18.53 23.9204 23.944 18.4947 23.944 11.9673C23.944 5.42822 18.5183 0.0141602 11.9792 0.0141602C5.4519 0.0141602 0.0378418 5.42822 0.0378418 11.9673C0.0378418 18.4947 5.46362 23.9204 11.9909 23.9204Z" fill="black" fill-opacity="0.85"/>
<path d="M6.65891 11.815C6.17844 11.815 5.79173 11.4283 5.79173 10.9478C5.79173 10.479 6.17844 10.104 6.65891 10.104H7.24485L9.09641 10.2212L5.8386 7.10402C5.48704 6.74074 5.4636 6.16652 5.82688 5.81496C6.17844 5.45168 6.75266 5.45168 7.10423 5.82668L10.2566 9.09621L10.1394 7.18606V6.60012C10.1394 6.11965 10.5144 5.74465 10.9831 5.74465C11.4636 5.74465 11.8503 6.11965 11.8503 6.60012V10.8072C11.8503 11.5337 11.4753 11.815 10.8425 11.815H6.65891ZM12.9987 18.1783C12.5183 18.1783 12.1316 17.8033 12.1316 17.3228V13.104C12.1316 12.3892 12.5066 12.108 13.1394 12.108H17.323C17.8034 12.108 18.1901 12.483 18.1901 12.9751C18.1901 13.4439 17.8034 13.8189 17.323 13.8189H16.737L14.8855 13.7017L18.1433 16.8189C18.4948 17.1704 18.5183 17.7564 18.155 18.108C17.8034 18.4712 17.2292 18.4712 16.8776 18.0962L13.7253 14.8267L13.8425 16.7369V17.3228C13.8425 17.8033 13.4675 18.1783 12.9987 18.1783Z" fill="white"/>
</g>
<defs>
<clipPath id="clip0_2207_24459">
<rect width="23.9062" height="23.918" fill="white" transform="translate(0.0378418 0.0141602)"/>
</clipPath>
</defs>
</svg>
