<svg width="24" height="24" viewBox="0 0 24 24" fill="none" xmlns="http://www.w3.org/2000/svg">
<g clip-path="url(#clip0_2207_23688)">
<path d="M11.9614 23.9204C18.5005 23.9204 23.9145 18.4947 23.9145 11.9673C23.9145 5.42822 18.4888 0.0141602 11.9497 0.0141602C5.42236 0.0141602 0.00830078 5.42822 0.00830078 11.9673C0.00830078 18.4947 5.43408 23.9204 11.9614 23.9204ZM11.9614 21.9283C6.43018 21.9283 2.01221 17.4986 2.01221 11.9673C2.01221 6.43604 6.41846 2.00635 11.9497 2.00635C17.481 2.00635 21.9224 6.43604 21.9224 11.9673C21.9224 17.4986 17.4927 21.9283 11.9614 21.9283Z" fill="black" fill-opacity="0.85"/>
<path d="M8.27002 9.06104C7.75439 9.06104 7.40283 9.44775 7.40283 9.99854V15.5298C7.40283 16.2212 7.78955 16.4908 8.38721 16.4908H13.9419C14.4927 16.4908 14.8442 16.1509 14.8442 15.6353C14.8442 15.1197 14.481 14.7798 13.9185 14.7798H11.7856L10.0513 14.9673L11.8794 13.2564L16.2036 8.94385C16.3677 8.77978 16.4849 8.54541 16.4849 8.31104C16.4849 7.78369 16.1333 7.44385 15.6177 7.44385C15.3364 7.44385 15.1138 7.54932 14.9497 7.71338L10.6372 12.0259L8.94971 13.8306L9.12549 12.0025V9.9751C9.12549 9.4126 8.78564 9.06104 8.27002 9.06104Z" fill="black" fill-opacity="0.85"/>
</g>
<defs>
<clipPath id="clip0_2207_23688">
<rect width="23.9062" height="23.918" fill="white" transform="translate(0.00830078 0.0141602)"/>
</clipPath>
</defs>
</svg>
