<svg width="24" height="24" viewBox="0 0 24 24" fill="none" xmlns="http://www.w3.org/2000/svg">
<g clip-path="url(#clip0_2207_24642)">
<path d="M11.9782 23.93C18.5173 23.93 23.9313 18.5043 23.9313 11.9769C23.9313 5.43786 18.5056 0.0238037 11.9665 0.0238037C5.43921 0.0238037 0.0251465 5.43786 0.0251465 11.9769C0.0251465 18.5043 5.45093 23.93 11.9782 23.93ZM11.9782 21.9379C6.44703 21.9379 2.02906 17.5082 2.02906 11.9769C2.02906 6.44568 6.43531 2.01599 11.9665 2.01599C17.4978 2.01599 21.9392 6.44568 21.9392 11.9769C21.9392 17.5082 17.5095 21.9379 11.9782 21.9379Z" fill="black" fill-opacity="0.85"/>
<path d="M7.24391 12.6097L13.9119 16.559C14.4627 16.8871 15.0838 16.6176 15.0838 16.055V7.91055C15.0838 7.33633 14.4158 7.10195 13.9119 7.40664L7.24391 11.3558C6.75172 11.6371 6.74 12.3285 7.24391 12.6097Z" fill="black" fill-opacity="0.85"/>
</g>
<defs>
<clipPath id="clip0_2207_24642">
<rect width="23.9062" height="23.918" fill="white" transform="translate(0.0251465 0.0238037)"/>
</clipPath>
</defs>
</svg>
