<svg width="22" height="22" viewBox="0 0 22 22" fill="none" xmlns="http://www.w3.org/2000/svg">
<g clip-path="url(#clip0_2207_23914)">
<path d="M3.74268 21.5952H17.9575C20.4185 21.5952 21.6372 20.3765 21.6372 17.9624V3.65381C21.6372 1.23975 20.4185 0.0209961 17.9575 0.0209961H3.74268C1.29346 0.0209961 0.0629883 1.22803 0.0629883 3.65381V17.9624C0.0629883 20.3882 1.29346 21.5952 3.74268 21.5952Z" fill="black" fill-opacity="0.85"/>
<path d="M16.8325 12.103C16.8325 14.9038 14.9341 16.7319 12.1099 16.7319H10.5278C9.96533 16.7319 9.59033 16.3804 9.59033 15.8648C9.59033 15.3374 9.95361 14.9858 10.5044 14.9858H12.1099C13.8794 14.9858 15.0864 13.8374 15.0864 12.103C15.0864 10.5093 13.9028 9.43115 12.1216 9.43115H8.69971L7.49268 9.38427L8.04346 9.77099L9.46143 11.1421C9.63721 11.3179 9.74268 11.5288 9.74268 11.7866C9.74268 12.2905 9.35596 12.689 8.87549 12.689C8.60596 12.689 8.39502 12.5952 8.23096 12.4312L5.16065 9.29052C4.93799 9.06787 4.84424 8.81005 4.84424 8.55224C4.84424 8.29443 4.94971 8.0249 5.16065 7.81396L8.21924 4.70849C8.39502 4.53271 8.59424 4.43896 8.86377 4.43896C9.36768 4.43896 9.74268 4.8374 9.74268 5.3413C9.74268 5.57568 9.63721 5.81005 9.46143 5.9624L8.27783 7.11083L7.48096 7.74365L8.69971 7.68505H12.1216C14.9458 7.68505 16.8325 9.45458 16.8325 12.103Z" fill="white"/>
</g>
<defs>
<clipPath id="clip0_2207_23914">
<rect width="21.5742" height="21.6211" fill="white" transform="translate(0.0629883 0.0209961)"/>
</clipPath>
</defs>
</svg>
