<svg width="20" height="19" viewBox="0 0 20 19" fill="none" xmlns="http://www.w3.org/2000/svg">
<g clip-path="url(#clip0_2207_24690)">
<path d="M1.46631 18.6683C1.93506 18.6683 2.31006 18.4691 2.80225 18.223L17.8608 10.9222C18.8569 10.43 19.1733 9.97302 19.1733 9.35192C19.1733 8.73083 18.8569 8.28552 17.8608 7.79333L2.80225 0.480835C2.29834 0.234742 1.92334 0.0355225 1.45459 0.0355225C0.587402 0.0355225 0.0483398 0.691773 0.0483398 1.7113L0.0600586 16.9926C0.0600586 18.0121 0.599121 18.6683 1.46631 18.6683ZM2.05225 16.4418C1.98193 16.4418 1.93506 16.3949 1.93506 16.3011V2.40271C1.93506 2.30896 1.98193 2.26208 2.05225 2.26208C2.09912 2.26208 2.146 2.28552 2.19287 2.32068L16.5483 9.22302C16.6069 9.24646 16.6538 9.29333 16.6538 9.35192C16.6538 9.41052 16.6069 9.45739 16.5483 9.48083L2.19287 16.3949C2.146 16.4183 2.09912 16.4418 2.05225 16.4418Z" fill="black" fill-opacity="0.85"/>
</g>
<defs>
<clipPath id="clip0_2207_24690">
<rect width="19.125" height="18.6445" fill="white" transform="translate(0.0483398 0.0238037)"/>
</clipPath>
</defs>
</svg>
