<svg width="28" height="22" viewBox="0 0 28 22" fill="none" xmlns="http://www.w3.org/2000/svg">
<g clip-path="url(#clip0_2207_771)">
<path d="M7.85474 21.6159H20.1594C22.468 21.6159 23.3938 20.3971 23.7337 18.1237L25.3977 6.96741H2.61646L4.29224 18.1237C4.63208 20.4088 5.55787 21.6159 7.85474 21.6159ZM2.06568 5.37366H25.9602C27.2844 5.37366 27.9524 4.5885 27.9524 3.276V2.13928C27.9524 0.826782 27.2844 0.041626 25.9602 0.041626H2.06568C0.811767 0.041626 0.0734863 0.826782 0.0734863 2.13928V3.276C0.0734863 4.5885 0.741455 5.37366 2.06568 5.37366Z" fill="black" fill-opacity="0.85"/>
<path d="M14.9446 18.0299C14.9446 18.5221 14.5227 18.9323 14.0188 18.9323C13.5149 18.9323 13.0813 18.5221 13.0813 18.0299V13.7057L13.1633 11.737L12.1555 12.7916L11.0891 13.8698C10.9133 14.0455 10.679 14.151 10.4446 14.151C9.94068 14.151 9.58911 13.7994 9.58911 13.3073C9.58911 13.026 9.7063 12.8268 9.8938 12.651L13.3391 9.48694C13.5969 9.25257 13.7844 9.17053 14.0188 9.17053C14.2532 9.17053 14.4407 9.25257 14.6985 9.48694L18.1438 12.651C18.3313 12.8268 18.4485 13.026 18.4485 13.3073C18.4485 13.7994 18.0735 14.151 17.593 14.151C17.3469 14.151 17.1126 14.0455 16.9485 13.8698L15.8821 12.7916L14.8743 11.737L14.9446 13.7057V18.0299Z" fill="white"/>
</g>
<defs>
<clipPath id="clip0_2207_771">
<rect width="27.8789" height="21.5977" fill="white" transform="translate(0.0734863 0.0181885)"/>
</clipPath>
</defs>
</svg>
