<svg width="22" height="22" viewBox="0 0 22 22" fill="none" xmlns="http://www.w3.org/2000/svg">
<g clip-path="url(#clip0_2207_24764)">
<path d="M3.72376 21.6215H17.9386C20.3996 21.6215 21.6183 20.4027 21.6183 17.9886V3.68005C21.6183 1.26599 20.3996 0.0472412 17.9386 0.0472412H3.72376C1.27454 0.0472412 0.0440674 1.25427 0.0440674 3.68005V17.9886C0.0440674 20.4144 1.27454 21.6215 3.72376 21.6215ZM3.74719 19.7347C2.57532 19.7347 1.93079 19.1136 1.93079 17.8949V3.7738C1.93079 2.55505 2.57532 1.93396 3.74719 1.93396H17.9152C19.0753 1.93396 19.7316 2.55505 19.7316 3.7738V17.8949C19.7316 19.1136 19.0753 19.7347 17.9152 19.7347H3.74719Z" fill="black" fill-opacity="0.85"/>
<path d="M10.216 15.2347C10.4972 15.7269 11.1886 15.7504 11.4816 15.2347L15.4074 8.56678C15.7472 8.016 15.4894 7.3949 14.9269 7.3949H6.75896C6.19646 7.3949 5.97381 8.06287 6.26678 8.56678L10.216 15.2347Z" fill="black" fill-opacity="0.85"/>
</g>
<defs>
<clipPath id="clip0_2207_24764">
<rect width="21.5742" height="21.5977" fill="white" transform="translate(0.0440674 0.0238037)"/>
</clipPath>
</defs>
</svg>
