<svg width="24" height="24" viewBox="0 0 24 24" fill="none" xmlns="http://www.w3.org/2000/svg">
<g clip-path="url(#clip0_2207_24171)">
<path d="M11.9636 23.923C18.5027 23.923 23.9167 18.4973 23.9167 11.9699C23.9167 5.43091 18.491 0.0168457 11.9519 0.0168457C5.42456 0.0168457 0.010498 5.43091 0.010498 11.9699C0.010498 18.4973 5.43628 23.923 11.9636 23.923Z" fill="black" fill-opacity="0.85"/>
<path d="M6.72534 17.302C6.24488 17.302 5.90503 16.9738 5.90503 16.5051V7.42309C5.90503 6.95434 6.24488 6.62622 6.72534 6.62622C7.19409 6.62622 7.53394 6.95434 7.53394 7.42309V16.5051C7.53394 16.9738 7.19409 17.302 6.72534 17.302ZM19.405 11.9816C19.405 12.4738 19.0652 12.802 18.5964 12.802H13.0652L10.8386 12.6613L13.2996 14.841L14.0613 15.5441C14.2371 15.6848 14.2957 15.884 14.2957 16.1301C14.2957 16.5988 13.9675 16.9152 13.4988 16.9152C13.2996 16.9152 13.0535 16.8098 12.8894 16.6457L8.72925 12.591C8.54175 12.4152 8.448 12.2043 8.448 11.9816C8.448 11.7473 8.56519 11.548 8.72925 11.3606L12.9011 7.27075C13.0769 7.08325 13.2878 7.01293 13.4988 7.01293C13.9441 7.01293 14.2957 7.32934 14.2957 7.78637C14.2957 8.00903 14.2371 8.23168 14.0613 8.38403L13.3113 9.12231L10.8503 11.302L13.0652 11.173H18.5964C19.0652 11.173 19.405 11.5129 19.405 11.9816Z" fill="white"/>
</g>
<defs>
<clipPath id="clip0_2207_24171">
<rect width="23.9062" height="23.918" fill="white" transform="translate(0.010498 0.0168457)"/>
</clipPath>
</defs>
</svg>
