<svg width="27" height="25" viewBox="0 0 27 25" fill="none" xmlns="http://www.w3.org/2000/svg">
<g clip-path="url(#clip0_2207_9047)">
<path d="M4.64282 24.449C6.04908 24.449 9.55298 22.9138 11.5452 21.4842C11.7444 21.3435 11.9084 21.2849 12.0725 21.2849C12.2249 21.2966 12.3772 21.3084 12.5295 21.3084C20.9788 21.3084 26.5803 16.5037 26.5803 10.6677C26.5803 4.77319 20.6741 0.0153809 13.2913 0.0153809C5.90845 0.0153809 0.00219727 4.77319 0.00219727 10.6677C0.00219727 14.4177 2.31079 17.7107 6.07251 19.7263C6.24829 19.8201 6.30689 19.9959 6.21314 20.1716C5.55689 21.2498 4.38501 22.5388 3.9397 23.1248C3.48267 23.7107 3.74048 24.449 4.64282 24.449Z" fill="black" fill-opacity="0.85"/>
<path d="M13.303 4.62085C13.842 4.62085 14.217 5.00757 14.217 5.53491V11.5584L14.1116 14.1248L15.342 12.6599L16.76 11.2302C16.9241 11.0427 17.1467 10.9607 17.4045 10.9607C17.9084 10.9607 18.2952 11.3357 18.2952 11.8396C18.2952 12.0857 18.2014 12.2966 18.0374 12.4607L14.0178 16.4802C13.7834 16.7146 13.5842 16.8201 13.303 16.8201C13.0452 16.8201 12.846 16.7263 12.5999 16.4802L8.56861 12.4607C8.40454 12.2966 8.33423 12.0857 8.33423 11.8396C8.33423 11.3357 8.70923 10.9607 9.21314 10.9607C9.45923 10.9607 9.69361 11.0545 9.85767 11.2302L11.2874 12.6599L12.4944 14.1131L12.3889 11.5584V5.53491C12.3889 5.00757 12.7756 4.62085 13.303 4.62085Z" fill="white"/>
</g>
<defs>
<clipPath id="clip0_2207_9047">
<rect width="26.5781" height="24.4336" fill="white" transform="translate(0.00219727 0.0153809)"/>
</clipPath>
</defs>
</svg>
