<svg width="25" height="24" viewBox="0 0 25 24" fill="none" xmlns="http://www.w3.org/2000/svg">
<g clip-path="url(#clip0_2207_23412)">
<path d="M12.0517 23.9216C18.5908 23.9216 24.0048 18.4959 24.0048 11.9685C24.0048 5.42944 18.5791 0.0153809 12.04 0.0153809C5.51269 0.0153809 0.0986328 5.42944 0.0986328 11.9685C0.0986328 18.4959 5.52441 23.9216 12.0517 23.9216ZM12.0517 21.9295C6.52051 21.9295 2.10254 17.4998 2.10254 11.9685C2.10254 6.43726 6.50879 2.00757 12.04 2.00757C17.5713 2.00757 22.0127 6.43726 22.0127 11.9685C22.0127 17.4998 17.583 21.9295 12.0517 21.9295Z" fill="black" fill-opacity="0.85"/>
<path d="M6.02832 11.9568C6.02832 12.2146 6.14551 12.4256 6.35644 12.6365L10.3174 16.6092C10.4697 16.7615 10.6806 16.8552 10.9267 16.8552C11.4072 16.8552 11.7705 16.4802 11.7705 15.9998C11.7705 15.742 11.6767 15.531 11.5127 15.3787L10.0479 13.9256L8.62988 12.742L11.1142 12.824H17.2197C17.7353 12.824 18.0986 12.4607 18.0986 11.9568C18.0986 11.4412 17.7236 11.0779 17.2197 11.0779H11.1142L8.6416 11.1716L10.0479 9.98804L11.5127 8.53491C11.665 8.37085 11.7705 8.15991 11.7705 7.9021C11.7705 7.42163 11.4072 7.05835 10.9267 7.05835C10.6806 7.05835 10.4697 7.14038 10.3174 7.29272L6.35644 11.2771C6.12207 11.5115 6.02832 11.699 6.02832 11.9568Z" fill="black" fill-opacity="0.85"/>
</g>
<defs>
<clipPath id="clip0_2207_23412">
<rect width="23.9062" height="23.918" fill="white" transform="translate(0.0986328 0.0153809)"/>
</clipPath>
</defs>
</svg>
