<svg width="26" height="22" viewBox="0 0 26 22" fill="none" xmlns="http://www.w3.org/2000/svg">
<g clip-path="url(#clip0_2207_1243)">
<path d="M0.0419922 10.7686C0.0419922 11.1553 0.194336 11.6006 0.639648 12.0225L9.88574 20.753C10.4482 21.2803 10.917 21.5147 11.4912 21.5147C12.2881 21.5147 12.8623 20.9287 12.8623 20.1436V15.3975H22.6123C24.3115 15.3975 25.3076 14.4366 25.3076 12.7608V8.78808C25.3076 7.1123 24.3115 6.15137 22.6123 6.15137H12.8623V1.45215C12.8623 0.666992 12.2881 0.0224609 11.4678 0.0224609C10.8936 0.0224609 10.5068 0.268555 9.88574 0.854492L0.639648 9.50293C0.182617 9.93652 0.0419922 10.3702 0.0419922 10.7686Z" fill="black" fill-opacity="0.85"/>
</g>
<defs>
<clipPath id="clip0_2207_1243">
<rect width="25.2656" height="21.5039" fill="white" transform="translate(0.0419922 0.0224609)"/>
</clipPath>
</defs>
</svg>
