<svg width="25" height="30" viewBox="0 0 25 30" fill="none" xmlns="http://www.w3.org/2000/svg">
<g clip-path="url(#clip0_2207_942)">
<path d="M5.74243 3.69654V19.9738C5.74243 22.4113 6.94946 23.6535 9.37525 23.6535H20.3908C22.8049 23.6535 24.0236 22.423 24.0236 19.9738V3.69654C24.0236 1.25904 22.8049 0.0168457 20.3908 0.0168457H9.37525C6.94946 0.0168457 5.74243 1.24732 5.74243 3.69654ZM11.2736 3.34497V3.09888C11.2736 2.7356 11.508 2.40747 12.0236 2.40747H17.7424C18.2463 2.40747 18.4924 2.7356 18.4924 3.09888V3.34497C18.4924 3.69654 18.2463 4.03638 17.7424 4.03638H12.0236C11.508 4.03638 11.2736 3.69654 11.2736 3.34497Z" fill="black" fill-opacity="0.85"/>
<path d="M0.0588379 25.8215C0.0588379 28.2707 1.26587 29.5012 3.69165 29.5012H14.7072C17.133 29.5012 18.34 28.259 18.34 25.8215V9.54418C18.34 7.09496 17.133 5.8645 14.7072 5.8645H3.69165C1.26587 5.8645 0.0588379 7.08325 0.0588379 9.54418V25.8215Z" fill="white"/>
<path d="M0.0588379 25.8215C0.0588379 28.2707 1.26587 29.5012 3.69165 29.5012H14.7072C17.133 29.5012 18.34 28.259 18.34 25.8215V9.54418C18.34 7.09496 17.133 5.8645 14.7072 5.8645H3.69165C1.26587 5.8645 0.0588379 7.08325 0.0588379 9.54418V25.8215ZM1.94556 25.7863V9.56762C1.94556 8.40746 2.56665 7.75122 3.77368 7.75122H14.6135C15.8205 7.75122 16.4533 8.40746 16.4533 9.56762V25.7863C16.4533 26.9582 15.8205 27.6145 14.6135 27.6145H3.77368C2.56665 27.6145 1.94556 26.9582 1.94556 25.7863Z" fill="black" fill-opacity="0.85"/>
<path d="M9.23461 22.7864C10.3947 22.7864 11.5432 22.388 12.3518 21.7083C12.7736 21.3685 12.8674 20.9114 12.5627 20.5833C12.258 20.2435 11.8479 20.3021 11.4963 20.5599C10.8166 21.0989 10.1369 21.3802 9.23461 21.3802C7.39477 21.3802 5.87133 20.138 5.46117 18.4857H6.43383C6.84399 18.4857 6.93774 18.0872 6.71508 17.7708L5.23852 15.6966C4.99242 15.3567 4.57055 15.3333 4.31274 15.6966L2.85961 17.7708C2.62524 18.0872 2.71899 18.4857 3.12914 18.4857H4.11352C4.55883 21.0403 6.62133 22.7864 9.23461 22.7864ZM9.22289 12.5208C8.07445 12.5208 6.9143 12.931 6.10571 13.5989C5.68383 13.9388 5.59008 14.4075 5.89477 14.7357C6.19945 15.0638 6.60961 15.0169 6.96117 14.7474C7.64086 14.2083 8.32055 13.9271 9.22289 13.9271C11.0627 13.9271 12.5979 15.1692 12.9963 16.8333H11.9768C11.5549 16.8333 11.4611 17.2317 11.6955 17.5481L13.1721 19.6107C13.4182 19.9505 13.8283 19.9739 14.0861 19.6107L15.551 17.5481C15.7854 17.22 15.6916 16.8333 15.2697 16.8333H14.344C13.8986 14.2786 11.8361 12.5208 9.22289 12.5208Z" fill="black" fill-opacity="0.85"/>
</g>
<defs>
<clipPath id="clip0_2207_942">
<rect width="23.9648" height="29.5195" fill="white" transform="translate(0.0588379 0.0168457)"/>
</clipPath>
</defs>
</svg>
