<svg width="18" height="18" viewBox="0 0 18 18" fill="none" xmlns="http://www.w3.org/2000/svg">
<g clip-path="url(#clip0_2207_23612)">
<path d="M17.3738 12.9806L17.3621 1.19153C17.3621 0.523559 16.9285 0.0548096 16.2254 0.0548096H4.43628C3.78003 0.0548096 3.33472 0.558715 3.33472 1.12121C3.33472 1.68371 3.83863 2.16418 4.38941 2.16418H8.46753L14.1863 1.97668L12.0066 3.88684L0.393311 15.5236C0.182374 15.7345 0.0651855 16.0041 0.0651855 16.2619C0.0651855 16.8244 0.569092 17.3517 1.15503 17.3517C1.42457 17.3517 1.68238 17.258 1.89331 17.0353L13.53 5.41027L15.4636 3.21887L15.2527 8.69153V13.0275C15.2527 13.5783 15.7332 14.0939 16.3074 14.0939C16.8699 14.0939 17.3738 13.6135 17.3738 12.9806Z" fill="black" fill-opacity="0.85"/>
</g>
<defs>
<clipPath id="clip0_2207_23612">
<rect width="17.3086" height="17.332" fill="white" transform="translate(0.0651855 0.0196533)"/>
</clipPath>
</defs>
</svg>
