<svg width="22" height="22" viewBox="0 0 22 22" fill="none" xmlns="http://www.w3.org/2000/svg">
<g clip-path="url(#clip0_2207_24445)">
<path d="M3.69434 21.6131H17.9091C20.3701 21.6131 21.5888 20.3943 21.5888 17.9802V3.67163C21.5888 1.25757 20.3701 0.0388184 17.9091 0.0388184H3.69434C1.24512 0.0388184 0.0146484 1.24585 0.0146484 3.67163V17.9802C0.0146484 20.406 1.24512 21.6131 3.69434 21.6131Z" fill="black" fill-opacity="0.85"/>
<path d="M5.47559 10.656C4.99512 10.656 4.6084 10.2693 4.6084 9.78884C4.6084 9.32009 4.99512 8.94509 5.47559 8.94509H6.06153L7.91309 9.06228L4.65527 5.94509C4.30371 5.58181 4.28027 5.00759 4.64356 4.65602C4.99512 4.29274 5.56934 4.29274 5.9209 4.66774L9.07324 7.93728L8.95606 6.02712V5.44118C8.95606 4.96071 9.33106 4.58571 9.79981 4.58571C10.2802 4.58571 10.6669 4.96071 10.6669 5.44118V9.64821C10.6669 10.3748 10.2919 10.656 9.65918 10.656H5.47559ZM11.8154 17.0193C11.3349 17.0193 10.9599 16.6443 10.9599 16.1638V11.9451C10.9599 11.2302 11.3232 10.949 11.956 10.949H16.1396C16.6318 10.949 17.0069 11.324 17.0069 11.8162C17.0069 12.2849 16.6318 12.6599 16.1396 12.6599H15.5537L13.7021 12.5427L16.9599 15.6599C17.3115 16.0115 17.335 16.5974 16.9717 16.949C16.6202 17.3123 16.0458 17.3123 15.6943 16.9373L12.5419 13.6677L12.6708 15.5779V16.1638C12.6708 16.6443 12.2841 17.0193 11.8154 17.0193Z" fill="white"/>
</g>
<defs>
<clipPath id="clip0_2207_24445">
<rect width="21.5742" height="21.5977" fill="white" transform="translate(0.0146484 0.0153809)"/>
</clipPath>
</defs>
</svg>
