<svg width="36" height="23" viewBox="0 0 36 23" fill="none" xmlns="http://www.w3.org/2000/svg">
<g clip-path="url(#clip0_2207_24262)">
<path d="M17.9053 22.2927C18.5147 22.2927 18.9483 21.8592 18.9483 21.2498V1.03491C18.9483 0.437256 18.5147 0.0153809 17.9053 0.0153809C17.296 0.0153809 16.8506 0.437256 16.8506 1.03491V21.2498C16.8506 21.8592 17.296 22.2927 17.9053 22.2927Z" fill="black" fill-opacity="0.85"/>
<path d="M14.7998 11.1482C14.7998 10.5388 14.3779 10.1052 13.7685 10.1052H5.77637L3.44434 10.1756L7.31153 6.43726C7.51075 6.24976 7.6045 5.9685 7.6045 5.68726C7.6045 5.10132 7.15918 4.66772 6.57325 4.66772C6.292 4.66772 6.02246 4.78491 5.78809 5.01929L0.432617 10.3631C0.209961 10.5857 0.0693359 10.8552 0.0693359 11.1482C0.0693359 11.4412 0.209961 11.7107 0.432617 11.9334L5.78809 17.2771C6.02246 17.5115 6.292 17.6287 6.57325 17.6287C7.15918 17.6287 7.6045 17.1951 7.6045 16.6092C7.6045 16.3279 7.51075 16.0466 7.31153 15.8592L3.44434 12.1209L5.77637 12.2029H13.7685C14.3779 12.2029 14.7998 11.7576 14.7998 11.1482ZM21.0107 11.1482C21.0107 11.7576 21.4326 12.2029 22.042 12.2029H30.0224L32.3662 12.1209L28.499 15.8592C28.2998 16.0466 28.206 16.3279 28.206 16.6092C28.206 17.1951 28.6513 17.6287 29.2255 17.6287C29.5185 17.6287 29.7881 17.5115 30.0224 17.2771L35.3779 11.9334C35.6005 11.7107 35.7412 11.4412 35.7412 11.1482C35.7412 10.8552 35.6005 10.5857 35.3779 10.3631L30.0224 5.01929C29.7881 4.78491 29.5185 4.66772 29.2255 4.66772C28.6513 4.66772 28.206 5.10132 28.206 5.68726C28.206 5.9685 28.2998 6.24976 28.499 6.43726L32.3662 10.1756L30.0224 10.1052H22.042C21.4326 10.1052 21.0107 10.5388 21.0107 11.1482Z" fill="black" fill-opacity="0.85"/>
</g>
<defs>
<clipPath id="clip0_2207_24262">
<rect width="35.6719" height="22.2773" fill="white" transform="translate(0.0693359 0.0153809)"/>
</clipPath>
</defs>
</svg>
