<svg width="22" height="22" viewBox="0 0 22 22" fill="none" xmlns="http://www.w3.org/2000/svg">
<g clip-path="url(#clip0_2207_24120)">
<path d="M3.69019 21.6187H17.905C20.366 21.6187 21.5847 20.3999 21.5847 17.9858V3.67725C21.5847 1.26319 20.366 0.0444336 17.905 0.0444336H3.69019C1.24097 0.0444336 0.010498 1.25147 0.010498 3.67725V17.9858C0.010498 20.4116 1.24097 21.6187 3.69019 21.6187ZM3.71362 19.7319C2.54175 19.7319 1.89722 19.1108 1.89722 17.8921V3.771C1.89722 2.55225 2.54175 1.93116 3.71362 1.93116H17.8816C19.0417 1.93116 19.698 2.55225 19.698 3.771V17.8921C19.698 19.1108 19.0417 19.7319 17.8816 19.7319H3.71362Z" fill="black" fill-opacity="0.85"/>
<path d="M10.7917 17.728C11.2488 17.728 11.5769 17.3882 11.5769 16.9429V11.564L11.448 9.41943L13.5105 11.7632L14.2839 12.5366C14.4363 12.7007 14.6472 12.771 14.8582 12.771C15.2917 12.771 15.6082 12.4194 15.6082 11.9976C15.6082 11.7866 15.5378 11.5874 15.3503 11.3999L11.3777 7.38037C11.2136 7.20458 11.0144 7.11083 10.7917 7.11083C10.5808 7.11083 10.3699 7.19287 10.2058 7.38037L6.24488 11.4116C6.10425 11.5757 6.0105 11.8101 6.0105 11.9976C6.0105 12.4429 6.31519 12.771 6.77222 12.771C7.00659 12.771 7.18238 12.7007 7.33472 12.5366L8.00269 11.7983L10.1355 9.40771L10.0066 11.564V16.9429C10.0066 17.3882 10.323 17.728 10.7917 17.728ZM6.40894 6.20849H15.2097C15.6667 6.20849 15.9832 5.88037 15.9832 5.43505C15.9832 4.9663 15.6667 4.63818 15.2097 4.63818H6.40894C5.95191 4.63818 5.6355 4.9663 5.6355 5.43505C5.6355 5.88037 5.95191 6.20849 6.40894 6.20849Z" fill="black" fill-opacity="0.85"/>
</g>
<defs>
<clipPath id="clip0_2207_24120">
<rect width="21.5742" height="21.5977" fill="white" transform="translate(0.010498 0.0209961)"/>
</clipPath>
</defs>
</svg>
