<svg width="24" height="24" viewBox="0 0 24 24" fill="none" xmlns="http://www.w3.org/2000/svg">
<g clip-path="url(#clip0_2207_23892)">
<path d="M12.0078 23.9272C18.5469 23.9272 23.9609 18.5015 23.9609 11.9741C23.9609 5.43506 18.5352 0.0209961 11.9961 0.0209961C5.46875 0.0209961 0.0546875 5.43506 0.0546875 11.9741C0.0546875 18.5015 5.48047 23.9272 12.0078 23.9272ZM12.0078 21.9351C6.47657 21.9351 2.0586 17.5054 2.0586 11.9741C2.0586 6.44288 6.46485 2.01319 11.9961 2.01319C17.5274 2.01319 21.9688 6.44288 21.9688 11.9741C21.9688 17.5054 17.5391 21.9351 12.0078 21.9351Z" fill="black" fill-opacity="0.85"/>
<path d="M18.0547 13.4038C18.0547 10.5913 16.0156 8.88037 13.2852 8.88037H9.78125L8.39844 8.91552L9.32422 8.18896L10.5313 7.01708C10.6953 6.87646 10.8008 6.6538 10.8008 6.40771C10.8008 5.92724 10.4375 5.56396 9.95703 5.56396C9.71094 5.56396 9.52344 5.63427 9.35938 5.81005L6.24219 8.97411C6.05469 9.17333 5.92578 9.41943 5.92578 9.68896C5.92578 9.97021 6.05469 10.2046 6.24219 10.4038L9.3711 13.5913C9.53516 13.7554 9.72266 13.8374 9.96875 13.8374C10.4375 13.8374 10.8008 13.4741 10.8008 12.9819C10.8008 12.771 10.7188 12.5366 10.543 12.3843L9.07813 10.978L8.39844 10.4624L9.78125 10.521H13.2852C15.0078 10.521 16.332 11.5054 16.332 13.3101C16.332 15.1616 15.043 16.2983 13.2735 16.2983C13.1328 16.2983 11.6914 16.2983 11.6445 16.2983C11.1406 16.2983 10.7539 16.5913 10.7539 17.1421C10.7539 17.6812 11.1406 17.9741 11.668 17.9741C11.7266 17.9741 13.1328 17.9741 13.2735 17.9741C16.0039 17.9741 18.0547 16.2163 18.0547 13.4038Z" fill="black" fill-opacity="0.85"/>
</g>
<defs>
<clipPath id="clip0_2207_23892">
<rect width="23.9062" height="23.918" fill="white" transform="translate(0.0546875 0.0209961)"/>
</clipPath>
</defs>
</svg>
