<svg width="22" height="22" viewBox="0 0 22 22" fill="none" xmlns="http://www.w3.org/2000/svg">
<g clip-path="url(#clip0_2207_24397)">
<path d="M3.75098 21.6119H17.9658C20.4268 21.6119 21.6455 20.3931 21.6455 17.979V3.67041C21.6455 1.25635 20.4268 0.0375977 17.9658 0.0375977H3.75098C1.30176 0.0375977 0.0712891 1.24463 0.0712891 3.67041V17.979C0.0712891 20.4048 1.30176 21.6119 3.75098 21.6119Z" fill="black" fill-opacity="0.85"/>
<path d="M16.2549 10.8072C15.7627 10.8072 15.376 10.4204 15.376 9.92822V9.31885L15.4932 7.36182L12.8213 10.1744C12.4463 10.5728 11.8486 10.5611 11.4736 10.1861C11.1104 9.82275 11.1221 9.20166 11.4854 8.8501L14.2861 6.18994L12.3877 6.30713H11.7783C11.2861 6.30713 10.8877 5.92041 10.8877 5.42822C10.8877 4.93604 11.2861 4.5376 11.7783 4.5376H16.1025C16.7588 4.5376 17.1455 4.83057 17.1455 5.58057V9.92822C17.1455 10.4204 16.7471 10.8072 16.2549 10.8072ZM9.96191 17.1001H5.62598C4.96973 17.1001 4.59473 16.8072 4.59473 16.0572V11.7095C4.59473 11.2173 4.98145 10.8306 5.47363 10.8306C5.96582 10.8306 6.36426 11.2173 6.36426 11.7095V12.3189L6.24707 14.2759L8.91895 11.4634C9.28223 11.065 9.8916 11.0767 10.2549 11.4517C10.6182 11.815 10.6065 12.4361 10.2432 12.7876L7.4541 15.4478L9.35254 15.3306H9.96191C10.4541 15.3306 10.8408 15.7173 10.8408 16.2095C10.8408 16.7017 10.4541 17.1001 9.96191 17.1001Z" fill="white"/>
</g>
<defs>
<clipPath id="clip0_2207_24397">
<rect width="21.5742" height="21.5977" fill="white" transform="translate(0.0712891 0.0141602)"/>
</clipPath>
</defs>
</svg>
