<svg width="26" height="22" viewBox="0 0 26 22" fill="none" xmlns="http://www.w3.org/2000/svg">
<g clip-path="url(#clip0_2207_1409)">
<path d="M13.8205 21.516C14.3947 21.516 14.8636 21.2816 15.4261 20.7543L24.6721 12.0238C25.1174 11.6019 25.2698 11.1566 25.2698 10.7699C25.2698 10.3715 25.1292 9.93786 24.6721 9.50427L15.4261 0.855835C14.8049 0.269898 14.4183 0.0238037 13.844 0.0238037C13.0237 0.0238037 12.4378 0.668335 12.4378 1.45349V5.88318H12.0979C3.67212 5.88318 0.00415039 11.2855 0.00415039 19.9457C0.00415039 20.9535 0.578369 21.516 1.21118 21.516C1.70337 21.516 2.24243 21.3988 2.65259 20.6488C4.69165 16.8168 7.56274 15.6683 12.0979 15.6683H12.4378V20.1449C12.4378 20.93 13.0237 21.516 13.8205 21.516Z" fill="black" fill-opacity="0.85"/>
</g>
<defs>
<clipPath id="clip0_2207_1409">
<rect width="25.2656" height="21.5039" fill="white" transform="translate(0.00415039 0.0238037)"/>
</clipPath>
</defs>
</svg>
