<svg width="22" height="22" viewBox="0 0 22 22" fill="none" xmlns="http://www.w3.org/2000/svg">
<g clip-path="url(#clip0_2207_23499)">
<path d="M3.73438 21.6131H17.9492C20.4102 21.6131 21.6289 20.3943 21.6289 17.9802V3.67163C21.6289 1.25757 20.4102 0.0388184 17.9492 0.0388184H3.73438C1.28516 0.0388184 0.0546875 1.24585 0.0546875 3.67163V17.9802C0.0546875 20.406 1.28516 21.6131 3.73438 21.6131Z" fill="black" fill-opacity="0.85"/>
<path d="M17.0703 10.7966C17.0703 11.0662 16.9531 11.2771 16.7188 11.4998L12.6406 15.5896C12.4766 15.7537 12.2656 15.8474 12.0078 15.8474C11.5039 15.8474 11.1289 15.4607 11.1289 14.9568C11.1289 14.699 11.2344 14.4763 11.3985 14.3123L12.9102 12.824L14.3633 11.6052L11.8086 11.699H5.52735C5 11.699 4.625 11.324 4.625 10.7966C4.625 10.2576 5 9.88257 5.52735 9.88257H11.8086L14.3633 9.98804L12.9102 8.76929L11.3985 7.281C11.2461 7.10522 11.1289 6.88257 11.1289 6.62476C11.1289 6.12085 11.5039 5.74585 12.0078 5.74585C12.2656 5.74585 12.4766 5.82788 12.6406 5.99194L16.7188 10.0935C16.9649 10.3396 17.0703 10.5271 17.0703 10.7966Z" fill="white"/>
</g>
<defs>
<clipPath id="clip0_2207_23499">
<rect width="21.5742" height="21.5977" fill="white" transform="translate(0.0546875 0.0153809)"/>
</clipPath>
</defs>
</svg>
