<svg width="18" height="18" viewBox="0 0 18 18" fill="none" xmlns="http://www.w3.org/2000/svg">
<g clip-path="url(#clip0_2207_23684)">
<path d="M0.0966797 4.43067L0.108398 16.2197C0.108398 16.8877 0.541992 17.3447 1.24512 17.3447H13.0342C13.6905 17.3447 14.1358 16.8525 14.1358 16.29C14.1358 15.7275 13.6319 15.2471 13.0811 15.2471H9.00293L3.28418 15.4346L5.46387 13.5127L17.0772 1.8877C17.2881 1.67676 17.4053 1.39551 17.4053 1.14942C17.4053 0.586914 16.8897 0.0478516 16.3037 0.0478516C16.0459 0.0478516 15.7881 0.15332 15.5655 0.364257L3.94043 12.001L2.00684 14.1807L2.21777 8.708V4.38379C2.21777 3.82129 1.7373 3.31739 1.16309 3.31739C0.588868 3.31739 0.0966797 3.78614 0.0966797 4.43067Z" fill="black" fill-opacity="0.85"/>
</g>
<defs>
<clipPath id="clip0_2207_23684">
<rect width="17.3086" height="17.332" fill="white" transform="translate(0.0966797 0.0126953)"/>
</clipPath>
</defs>
</svg>
