<svg width="28" height="22" viewBox="0 0 28 22" fill="none" xmlns="http://www.w3.org/2000/svg">
<g clip-path="url(#clip0_2207_7182)">
<path d="M3.73218 21.5884H24.0056C26.4666 21.5884 27.6853 20.3814 27.6853 17.9673V3.64697C27.6853 1.23291 26.4666 0.0141602 24.0056 0.0141602H3.73218C1.28296 0.0141602 0.0524902 1.23291 0.0524902 3.64697V17.9673C0.0524902 20.3814 1.28296 21.5884 3.73218 21.5884ZM3.75561 19.7017C2.58374 19.7017 1.93921 19.0806 1.93921 17.8619V3.75244C1.93921 2.53369 2.58374 1.90088 3.75561 1.90088H23.9822C25.1423 1.90088 25.7986 2.53369 25.7986 3.75244V17.8619C25.7986 19.0806 25.1423 19.7017 23.9822 19.7017H3.75561Z" fill="black" fill-opacity="0.85"/>
<path d="M11.1619 4.70166C10.6463 4.70166 10.3064 5.05322 10.3064 5.61572V7.479L10.4822 9.30713L8.79468 7.50244L5.25561 3.96338C5.09155 3.79932 4.88061 3.69385 4.59937 3.69385C4.07202 3.69385 3.73218 4.04541 3.73218 4.57275C3.73218 4.80713 3.84937 5.02978 4.01343 5.19385L7.55249 8.73291L9.38061 10.4439L7.64624 10.2564H5.67749C5.11499 10.2564 4.75171 10.5962 4.75171 11.1119C4.75171 11.6275 5.10327 11.9673 5.65405 11.9673H11.0447C11.6423 11.9673 12.0291 11.6978 12.0291 10.9947V5.63916C12.0291 5.08838 11.6775 4.70166 11.1619 4.70166Z" fill="black" fill-opacity="0.85"/>
</g>
<defs>
<clipPath id="clip0_2207_7182">
<rect width="27.6328" height="21.5742" fill="white" transform="translate(0.0524902 0.0141602)"/>
</clipPath>
</defs>
</svg>
