<svg width="18" height="23" viewBox="0 0 18 23" fill="none" xmlns="http://www.w3.org/2000/svg">
<g clip-path="url(#clip0_2207_23535)">
<path d="M8.96899 0.0126953C8.35962 0.0126953 7.92602 0.43457 7.92602 1.04395V16.4775L8.04321 19.9697L8.69946 19.7354L4.50415 15.1299L1.83227 12.5049C1.65649 12.3174 1.37524 12.2236 1.09399 12.2236C0.508057 12.2236 0.0861816 12.6689 0.0861816 13.2432C0.0861816 13.5244 0.191651 13.7705 0.414307 14.0049L8.18384 21.7979C8.40649 22.0322 8.67602 22.1494 8.96899 22.1494C9.26196 22.1494 9.53149 22.0322 9.75415 21.7979L17.5354 14.0049C17.7581 13.7705 17.8518 13.5244 17.8518 13.2432C17.8518 12.6689 17.43 12.2236 16.844 12.2236C16.5628 12.2236 16.2932 12.3174 16.1057 12.5049L13.4339 15.1299L9.2268 19.7354L9.89477 19.9697L10.012 16.4775V1.04395C10.012 0.43457 9.57837 0.0126953 8.96899 0.0126953Z" fill="black" fill-opacity="0.85"/>
</g>
<defs>
<clipPath id="clip0_2207_23535">
<rect width="17.7656" height="22.1367" fill="white" transform="translate(0.0861816 0.0126953)"/>
</clipPath>
</defs>
</svg>
