<svg width="24" height="24" viewBox="0 0 24 24" fill="none" xmlns="http://www.w3.org/2000/svg">
<g clip-path="url(#clip0_2207_23539)">
<path d="M11.9741 23.9204C18.5132 23.9204 23.9272 18.4947 23.9272 11.9673C23.9272 5.42822 18.5015 0.0141602 11.9624 0.0141602C5.43506 0.0141602 0.0209961 5.42822 0.0209961 11.9673C0.0209961 18.4947 5.44678 23.9204 11.9741 23.9204ZM11.9741 21.9283C6.44288 21.9283 2.02491 17.4986 2.02491 11.9673C2.02491 6.43604 6.43116 2.00635 11.9624 2.00635C17.4937 2.00635 21.9351 6.43604 21.9351 11.9673C21.9351 17.4986 17.5054 21.9283 11.9741 21.9283Z" fill="black" fill-opacity="0.85"/>
<path d="M11.9741 6.00244C11.4702 6.00244 11.0952 6.36572 11.0952 6.88135V12.7408L11.189 15.2134L10.0171 13.8072L8.62255 12.4009C8.45849 12.2369 8.24755 12.1431 8.00146 12.1431C7.52099 12.1431 7.15771 12.5064 7.15771 12.9869C7.15771 13.233 7.22802 13.4439 7.38037 13.5962L11.2944 17.4869C11.5288 17.7212 11.728 17.8267 11.9741 17.8267C12.2319 17.8267 12.4429 17.7095 12.6655 17.4869L16.5679 13.5962C16.7202 13.4439 16.814 13.233 16.814 12.9869C16.814 12.5064 16.439 12.1431 15.9585 12.1431C15.7007 12.1431 15.4898 12.2251 15.3374 12.4009L13.9546 13.8072L12.7593 15.2251L12.853 12.7408V6.88135C12.853 6.36572 12.4898 6.00244 11.9741 6.00244Z" fill="black" fill-opacity="0.85"/>
</g>
<defs>
<clipPath id="clip0_2207_23539">
<rect width="23.9062" height="23.918" fill="white" transform="translate(0.0209961 0.0141602)"/>
</clipPath>
</defs>
</svg>
