<svg width="28" height="22" viewBox="0 0 28 22" fill="none" xmlns="http://www.w3.org/2000/svg">
<g clip-path="url(#clip0_2207_9839)">
<path d="M3.75318 21.5939H24.0266C26.4876 21.5939 27.7063 20.3869 27.7063 17.9728V3.65246C27.7063 1.2384 26.4876 0.0196533 24.0266 0.0196533H3.75318C1.30396 0.0196533 0.0734863 1.2384 0.0734863 3.65246V17.9728C0.0734863 20.3869 1.30396 21.5939 3.75318 21.5939ZM3.77661 19.7072C2.60474 19.7072 1.96021 19.0861 1.96021 17.8674V3.75793C1.96021 2.53918 2.60474 1.90637 3.77661 1.90637H24.0032C25.1633 1.90637 25.8196 2.53918 25.8196 3.75793V17.8674C25.8196 19.0861 25.1633 19.7072 24.0032 19.7072H3.77661Z" fill="black" fill-opacity="0.85"/>
<path d="M4.32739 12.547C4.32739 12.9924 4.72582 13.3908 5.18286 13.3908C5.38207 13.3908 5.58129 13.297 5.80395 13.0744L10.761 8.12903L11.593 7.21496L11.4876 9.95715V11.0939C11.4876 11.6095 11.8157 11.9494 12.3079 11.9494C12.8001 11.9494 13.1399 11.6095 13.1399 11.0939V5.44543C13.1399 4.94153 12.7883 4.60168 12.2727 4.60168H6.4602C5.94457 4.60168 5.60473 4.92981 5.60473 5.42199C5.60473 5.91418 5.96801 6.25403 6.4602 6.25403H7.60864L10.4915 6.13684L9.5891 6.96887L4.64379 11.9142C4.42114 12.1369 4.32739 12.3361 4.32739 12.547ZM23.6165 9.06653C23.6165 8.62121 23.2297 8.22277 22.7727 8.22277C22.5735 8.22277 22.3743 8.31653 22.1399 8.53919L17.1946 13.4845L16.3626 14.3986L16.468 11.6564V10.5197C16.468 10.004 16.1399 9.66419 15.6477 9.66419C15.1555 9.66419 14.8157 10.004 14.8157 10.5197V16.1681C14.8157 16.672 15.1673 17.0236 15.6829 17.0236H21.4954C21.9993 17.0236 22.3508 16.6838 22.3508 16.1916C22.3508 15.6994 21.9758 15.3713 21.4954 15.3713H20.3469L17.4641 15.4767L18.3547 14.6564L23.3118 9.69935C23.5344 9.47669 23.6165 9.27746 23.6165 9.06653Z" fill="black" fill-opacity="0.85"/>
</g>
<defs>
<clipPath id="clip0_2207_9839">
<rect width="27.6328" height="21.5742" fill="white" transform="translate(0.0734863 0.0196533)"/>
</clipPath>
</defs>
</svg>
