<svg width="24" height="24" viewBox="0 0 24 24" fill="none" xmlns="http://www.w3.org/2000/svg">
<g clip-path="url(#clip0_2207_23954)">
<path d="M12.0202 23.9272C18.5593 23.9272 23.9733 18.5015 23.9733 11.9741C23.9733 5.43506 18.5476 0.0209961 12.0085 0.0209961C5.4812 0.0209961 0.0671387 5.43506 0.0671387 11.9741C0.0671387 18.5015 5.49292 23.9272 12.0202 23.9272ZM12.0202 21.9351C6.48902 21.9351 2.07105 17.5054 2.07105 11.9741C2.07105 6.44288 6.4773 2.01319 12.0085 2.01319C17.5398 2.01319 21.9812 6.44288 21.9812 11.9741C21.9812 17.5054 17.5515 21.9351 12.0202 21.9351Z" fill="black" fill-opacity="0.85"/>
<path d="M5.93823 13.4038C5.93823 16.2163 7.98902 17.9741 10.7194 17.9741C10.8601 17.9741 12.2663 17.9741 12.3249 17.9741C12.8523 17.9741 13.239 17.6812 13.239 17.1421C13.239 16.5913 12.8523 16.2983 12.3483 16.2983C12.3015 16.2983 10.8601 16.2983 10.7194 16.2983C8.94995 16.2983 7.66089 15.1616 7.66089 13.3101C7.66089 11.5054 8.98511 10.521 10.7077 10.521H14.2116L15.5944 10.4624L14.9148 10.978L13.4499 12.3843C13.2741 12.5366 13.1921 12.771 13.1921 12.9819C13.1921 13.4741 13.5554 13.8374 14.0241 13.8374C14.2702 13.8374 14.4577 13.7554 14.6218 13.5913L17.7507 10.4038C17.9382 10.2046 18.0671 9.97021 18.0671 9.68896C18.0671 9.41943 17.9382 9.17333 17.7507 8.97411L14.6335 5.81005C14.4694 5.63427 14.2819 5.56396 14.0359 5.56396C13.5554 5.56396 13.1921 5.92724 13.1921 6.40771C13.1921 6.6538 13.2976 6.87646 13.4616 7.01708L14.6687 8.18896L15.5944 8.91552L14.2116 8.88037H10.7077C7.9773 8.88037 5.93823 10.5913 5.93823 13.4038Z" fill="black" fill-opacity="0.85"/>
</g>
<defs>
<clipPath id="clip0_2207_23954">
<rect width="23.9062" height="23.918" fill="white" transform="translate(0.0671387 0.0209961)"/>
</clipPath>
</defs>
</svg>
