<svg width="22" height="22" viewBox="0 0 22 22" fill="none" xmlns="http://www.w3.org/2000/svg">
<g clip-path="url(#clip0_2207_23722)">
<path d="M3.70069 21.6131H17.9155C20.3765 21.6131 21.5952 20.3943 21.5952 17.9802V3.67163C21.5952 1.25757 20.3765 0.0388184 17.9155 0.0388184H3.70069C1.25147 0.0388184 0.0209961 1.24585 0.0209961 3.67163V17.9802C0.0209961 20.406 1.25147 21.6131 3.70069 21.6131ZM3.72412 19.7263C2.55225 19.7263 1.90772 19.1052 1.90772 17.8865V3.76538C1.90772 2.54663 2.55225 1.92554 3.72412 1.92554H17.8921C19.0522 1.92554 19.7085 2.54663 19.7085 3.76538V17.8865C19.7085 19.1052 19.0522 19.7263 17.8921 19.7263H3.72412Z" fill="black" fill-opacity="0.85"/>
<path d="M14.4819 7.9021C13.9663 7.9021 13.6265 8.25366 13.6265 8.81616V10.8435L13.8022 12.6716L12.1148 10.867L7.80225 6.55444C7.63819 6.39038 7.41553 6.28491 7.13428 6.28491C6.61866 6.28491 6.27881 6.62476 6.27881 7.1521C6.27881 7.38647 6.38428 7.62085 6.54834 7.78491L10.8726 12.0974L12.7007 13.8084L10.9663 13.6209H8.8335C8.271 13.6209 7.90772 13.9607 7.90772 14.4763C7.90772 14.992 8.25928 15.3318 8.81006 15.3318H14.3648C14.9624 15.3318 15.3491 15.0623 15.3491 14.3709V8.8396C15.3491 8.28882 14.9976 7.9021 14.4819 7.9021Z" fill="black" fill-opacity="0.85"/>
</g>
<defs>
<clipPath id="clip0_2207_23722">
<rect width="21.5742" height="21.5977" fill="white" transform="translate(0.0209961 0.0153809)"/>
</clipPath>
</defs>
</svg>
