<svg width="24" height="24" viewBox="0 0 24 24" fill="none" xmlns="http://www.w3.org/2000/svg">
<g clip-path="url(#clip0_2207_23465)">
<path d="M11.9804 23.923C18.5195 23.923 23.9335 18.4973 23.9335 11.9699C23.9335 5.43091 18.5078 0.0168457 11.9687 0.0168457C5.4414 0.0168457 0.0273438 5.43091 0.0273438 11.9699C0.0273438 18.4973 5.45312 23.923 11.9804 23.923Z" fill="black" fill-opacity="0.85"/>
<path d="M18.1914 11.9583C18.1914 12.2277 18.0859 12.4388 17.8515 12.6614L13.7734 16.7513C13.6093 16.9152 13.3984 17.0091 13.1406 17.0091C12.6367 17.0091 12.2617 16.6224 12.2617 16.1185C12.2617 15.8607 12.3671 15.6379 12.5312 15.4739L14.0312 13.9857L15.4961 12.7669L12.9414 12.8607H6.66015C6.13281 12.8607 5.74609 12.4857 5.74609 11.9583C5.74609 11.4191 6.13281 11.0442 6.66015 11.0442H12.9414L15.4961 11.1497L14.0312 9.93091L12.5312 8.44263C12.3789 8.26685 12.2617 8.04419 12.2617 7.78638C12.2617 7.28247 12.6367 6.90747 13.1406 6.90747C13.3984 6.90747 13.6093 6.98951 13.7734 7.15357L17.8515 11.2552C18.0976 11.5013 18.1914 11.6888 18.1914 11.9583Z" fill="white"/>
</g>
<defs>
<clipPath id="clip0_2207_23465">
<rect width="23.9062" height="23.918" fill="white" transform="translate(0.0273438 0.0168457)"/>
</clipPath>
</defs>
</svg>
