<svg width="24" height="24" viewBox="0 0 24 24" fill="none" xmlns="http://www.w3.org/2000/svg">
<g clip-path="url(#clip0_2207_24058)">
<path d="M12.0266 23.9216C18.5657 23.9216 23.9797 18.4959 23.9797 11.9685C23.9797 5.42944 18.554 0.0153809 12.0149 0.0153809C5.48755 0.0153809 0.0734863 5.42944 0.0734863 11.9685C0.0734863 18.4959 5.49927 23.9216 12.0266 23.9216ZM12.0266 21.9295C6.49537 21.9295 2.0774 17.4998 2.0774 11.9685C2.0774 6.43726 6.48365 2.00757 12.0149 2.00757C17.5462 2.00757 21.9876 6.43726 21.9876 11.9685C21.9876 17.4998 17.5579 21.9295 12.0266 21.9295Z" fill="black" fill-opacity="0.85"/>
<path d="M19.2923 11.9802C19.2923 11.7107 19.1868 11.5115 18.9641 11.2888L15.5774 7.90211C15.4251 7.73805 15.2141 7.65601 14.968 7.65601C14.4876 7.65601 14.1243 8.03101 14.1243 8.51148C14.1243 8.75758 14.218 8.98023 14.3821 9.13258L15.2727 9.99977L16.6907 11.1951L14.2063 11.1013H9.80005L7.31568 11.1951L8.74537 9.99977L9.63599 9.13258C9.80005 8.98023 9.8938 8.75758 9.8938 8.51148C9.8938 8.03101 9.53052 7.65601 9.05005 7.65601C8.80396 7.65601 8.59302 7.73805 8.44068 7.90211L5.05396 11.2888C4.8313 11.5115 4.72583 11.7107 4.72583 11.9802C4.72583 12.2263 4.8313 12.4138 5.05396 12.6482L8.44068 16.0584C8.59302 16.2107 8.80396 16.2927 9.05005 16.2927C9.53052 16.2927 9.8938 15.9177 9.8938 15.449C9.8938 15.1912 9.78833 14.9802 9.63599 14.8162L8.74537 13.9373L7.3274 12.7654L9.80005 12.8474H14.2063L16.679 12.7654L15.2727 13.9373L14.3821 14.8162C14.2297 14.9802 14.1243 15.1912 14.1243 15.449C14.1243 15.9177 14.4876 16.2927 14.968 16.2927C15.2141 16.2927 15.4251 16.2107 15.5774 16.0584L18.9641 12.6482C19.1868 12.4138 19.2923 12.2263 19.2923 11.9802Z" fill="black" fill-opacity="0.85"/>
</g>
<defs>
<clipPath id="clip0_2207_24058">
<rect width="23.9062" height="23.918" fill="white" transform="translate(0.0734863 0.0153809)"/>
</clipPath>
</defs>
</svg>
