<svg width="26" height="22" viewBox="0 0 26 22" fill="none" xmlns="http://www.w3.org/2000/svg">
<g clip-path="url(#clip0_2207_1373)">
<path d="M11.5017 21.5147C12.2986 21.5147 12.8728 20.9287 12.8728 20.1436V15.667H13.2127C17.7595 15.667 20.6189 16.8155 22.6697 20.6475C23.0798 21.3975 23.6189 21.5147 24.1111 21.5147C24.7322 21.5147 25.3181 20.9522 25.3181 19.9444C25.3181 11.2842 21.6502 5.88184 13.2127 5.88184H12.8728V1.45215C12.8728 0.666992 12.2986 0.0224609 11.4783 0.0224609C10.9041 0.0224609 10.5173 0.268555 9.89624 0.854492L0.650146 9.50293C0.193115 9.93652 0.0524902 10.3702 0.0524902 10.7686C0.0524902 11.1553 0.204834 11.6006 0.650146 12.0225L9.89624 20.753C10.4587 21.2803 10.9275 21.5147 11.5017 21.5147ZM10.8337 18.9952C10.7634 18.9952 10.6931 18.96 10.6345 18.8897L2.27905 10.9913C2.1853 10.8975 2.15015 10.8389 2.15015 10.7686C2.15015 10.6983 2.1853 10.628 2.27905 10.5459L10.6228 2.54199C10.6814 2.49512 10.7517 2.44824 10.822 2.44824C10.9275 2.44824 10.9861 2.51855 10.9861 2.6123V7.26465C10.9861 7.53418 11.115 7.65137 11.3845 7.65137H12.9548C20.9939 7.65137 23.4197 13.2295 23.6541 18.7608C23.6541 18.8545 23.6189 18.8897 23.5603 18.8897C23.5134 18.8897 23.49 18.8545 23.4548 18.7725C22.072 15.8311 18.5213 13.8975 12.9548 13.8975H11.3845C11.115 13.8975 10.9861 14.0147 10.9861 14.2842V18.8194C10.9861 18.9248 10.9275 18.9952 10.8337 18.9952Z" fill="black" fill-opacity="0.85"/>
</g>
<defs>
<clipPath id="clip0_2207_1373">
<rect width="25.2656" height="21.5039" fill="white" transform="translate(0.0524902 0.0224609)"/>
</clipPath>
</defs>
</svg>
