<svg width="24" height="24" viewBox="0 0 24 24" fill="none" xmlns="http://www.w3.org/2000/svg">
<g clip-path="url(#clip0_2207_23544)">
<path d="M11.9782 23.9204C18.5173 23.9204 23.9313 18.4947 23.9313 11.9673C23.9313 5.42822 18.5056 0.0141602 11.9665 0.0141602C5.43921 0.0141602 0.0251465 5.42822 0.0251465 11.9673C0.0251465 18.4947 5.45093 23.9204 11.9782 23.9204Z" fill="black" fill-opacity="0.85"/>
<path d="M11.99 5.81494C12.5291 5.81494 12.904 6.18994 12.904 6.729V12.7408L12.7986 15.3189L14.029 13.854L15.4471 12.4126C15.611 12.2251 15.8338 12.1431 16.0916 12.1431C16.5955 12.1431 16.9822 12.5181 16.9822 13.022C16.9822 13.2798 16.8884 13.4908 16.7243 13.6548L12.7049 17.6626C12.4705 17.897 12.2596 18.0142 11.99 18.0142C11.7322 18.0142 11.5329 17.9087 11.2868 17.6626L7.25562 13.6548C7.09156 13.4908 7.02124 13.2798 7.02124 13.022C7.02124 12.5181 7.39624 12.1431 7.90015 12.1431C8.14624 12.1431 8.38062 12.2369 8.54468 12.4126L9.97437 13.854L11.1814 15.3072L11.076 12.7408V6.729C11.076 6.18994 11.4627 5.81494 11.99 5.81494Z" fill="white"/>
</g>
<defs>
<clipPath id="clip0_2207_23544">
<rect width="23.9062" height="23.918" fill="white" transform="translate(0.0251465 0.0141602)"/>
</clipPath>
</defs>
</svg>
