<svg width="18" height="18" viewBox="0 0 18 18" fill="none" xmlns="http://www.w3.org/2000/svg">
<g clip-path="url(#clip0_2207_23660)">
<path d="M0.0610352 4.43213L0.072754 16.2212C0.072754 16.8892 0.506347 17.3462 1.20948 17.3462H12.9985C13.6548 17.3462 14.1001 16.854 14.1001 16.2915C14.1001 15.729 13.5962 15.2486 13.0454 15.2486H8.96729L3.24854 15.4361L5.42823 13.5142L17.0415 1.88916C17.2524 1.67822 17.3696 1.39697 17.3696 1.15088C17.3696 0.588379 16.854 0.0493164 16.268 0.0493164C16.0102 0.0493164 15.7524 0.154785 15.5298 0.365722L3.90479 12.0025L1.9712 14.1822L2.18213 8.70947V4.38525C2.18213 3.82275 1.70166 3.31885 1.12745 3.31885C0.553223 3.31885 0.0610352 3.7876 0.0610352 4.43213Z" fill="black" fill-opacity="0.85"/>
</g>
<defs>
<clipPath id="clip0_2207_23660">
<rect width="17.3086" height="17.332" fill="white" transform="translate(0.0610352 0.0141602)"/>
</clipPath>
</defs>
</svg>
