<svg width="22" height="22" viewBox="0 0 22 22" fill="none" xmlns="http://www.w3.org/2000/svg">
<g clip-path="url(#clip0_2207_24228)">
<path d="M3.72376 21.6145H17.9386C20.3996 21.6145 21.6183 20.3957 21.6183 17.9816V3.6731C21.6183 1.25904 20.3996 0.0402832 17.9386 0.0402832H3.72376C1.27454 0.0402832 0.0440674 1.24732 0.0440674 3.6731V17.9816C0.0440674 20.4074 1.27454 21.6145 3.72376 21.6145ZM3.74719 19.7277C2.57532 19.7277 1.93079 19.1066 1.93079 17.8879V3.76685C1.93079 2.5481 2.57532 1.92701 3.74719 1.92701H17.9152C19.0753 1.92701 19.7316 2.5481 19.7316 3.76685V17.8879C19.7316 19.1066 19.0753 19.7277 17.9152 19.7277H3.74719Z" fill="black" fill-opacity="0.85"/>
<path d="M4.005 10.8215C4.005 11.2902 4.33312 11.6184 4.77844 11.6184H10.1574L12.3136 11.4777L9.93469 13.5988L9.18469 14.2902C9.02063 14.4309 8.95031 14.6184 8.95031 14.8527C8.95031 15.298 9.27845 15.6145 9.72376 15.6145C9.91126 15.6145 10.1574 15.509 10.3214 15.3566L14.3527 11.4074C14.5285 11.2434 14.6222 11.0441 14.6222 10.8215C14.6222 10.6106 14.5168 10.3996 14.3527 10.2356L10.3097 6.25123C10.1339 6.07544 9.93469 6.01685 9.72376 6.01685C9.30188 6.01685 8.95031 6.32154 8.95031 6.76685C8.95031 6.97779 9.02063 7.17701 9.18469 7.34107L9.92298 8.05591L12.3019 10.1652L10.1574 10.048H4.77844C4.33312 10.048 4.005 10.3762 4.005 10.8215ZM16.2863 15.9895C16.755 15.9895 17.0832 15.673 17.0832 15.216V6.41529C17.0832 5.95826 16.755 5.63013 16.2863 5.63013C15.841 5.63013 15.5129 5.95826 15.5129 6.41529V15.216C15.5129 15.673 15.841 15.9895 16.2863 15.9895Z" fill="black" fill-opacity="0.85"/>
</g>
<defs>
<clipPath id="clip0_2207_24228">
<rect width="21.5742" height="21.5977" fill="white" transform="translate(0.0440674 0.0168457)"/>
</clipPath>
</defs>
</svg>
