<svg width="24" height="24" viewBox="0 0 24 24" fill="none" xmlns="http://www.w3.org/2000/svg">
<g clip-path="url(#clip0_2207_24363)">
<path d="M12.0056 23.9244C18.5447 23.9244 23.9587 18.4987 23.9587 11.9713C23.9587 5.43225 18.533 0.0181885 11.9939 0.0181885C5.46655 0.0181885 0.0524902 5.43225 0.0524902 11.9713C0.0524902 18.4987 5.47827 23.9244 12.0056 23.9244Z" fill="black" fill-opacity="0.85"/>
<path d="M6.61499 11.9713C6.1228 11.9713 5.73608 11.5846 5.73608 11.0924V6.74475C5.73608 5.99475 6.11108 5.70178 6.76733 5.70178H11.1033C11.5955 5.70178 11.9822 6.10022 11.9822 6.59241C11.9822 7.0846 11.5955 7.47131 11.1033 7.47131H10.4939L8.59546 7.35413L11.3845 10.0143C11.7478 10.3659 11.7595 10.987 11.3963 11.3502C11.033 11.7252 10.4236 11.737 10.0603 11.3385L7.37671 8.526L7.50561 10.483V11.0924C7.50561 11.5846 7.10718 11.9713 6.61499 11.9713ZM12.9197 18.2643C12.4275 18.2643 12.0291 17.8659 12.0291 17.3737C12.0291 16.8815 12.4275 16.4948 12.9197 16.4948H13.5291L15.4275 16.612L12.6267 13.9518C12.2634 13.6002 12.2517 12.9791 12.615 12.6159C12.99 12.2409 13.5877 12.2291 13.9627 12.6276L16.6345 15.4401L16.5173 13.483V12.8737C16.5173 12.3815 16.9041 11.9948 17.3963 11.9948C17.8884 11.9948 18.2869 12.3815 18.2869 12.8737V17.2213C18.2869 17.9713 17.9002 18.2643 17.2439 18.2643H12.9197Z" fill="white"/>
</g>
<defs>
<clipPath id="clip0_2207_24363">
<rect width="23.9062" height="23.918" fill="white" transform="translate(0.0524902 0.0181885)"/>
</clipPath>
</defs>
</svg>
