<svg width="26" height="22" viewBox="0 0 26 22" fill="none" xmlns="http://www.w3.org/2000/svg">
<g clip-path="url(#clip0_2207_1275)">
<path d="M25.3097 10.7686C25.3097 10.3702 25.1691 9.93652 24.7121 9.50293L15.466 0.854492C14.8449 0.268555 14.4582 0.0224609 13.8839 0.0224609C13.0636 0.0224609 12.4777 0.666992 12.4777 1.45215V5.88184H2.97376C1.12219 5.88184 0.0440674 6.93652 0.0440674 8.75293V12.7959C0.0440674 14.6123 1.12219 15.667 2.97376 15.667H12.4777V20.1436C12.4777 20.9287 13.0636 21.5147 13.8605 21.5147C14.4347 21.5147 14.9035 21.2803 15.466 20.753L24.7121 12.0225C25.1574 11.6006 25.3097 11.1553 25.3097 10.7686ZM23.2003 10.7686C23.2003 10.8389 23.1769 10.8975 23.0832 10.9913L14.7277 18.8897C14.6691 18.96 14.5988 18.9952 14.5285 18.9952C14.4347 18.9952 14.3644 18.9248 14.3644 18.8194V14.2842C14.3644 14.0147 14.2472 13.8975 13.9777 13.8975H2.99719C2.24719 13.8975 1.8136 13.4639 1.8136 12.7022V8.84668C1.8136 8.08496 2.24719 7.65137 2.99719 7.65137H13.9777C14.2472 7.65137 14.3644 7.53418 14.3644 7.26465V2.6123C14.3644 2.51855 14.4347 2.44824 14.5402 2.44824C14.6105 2.44824 14.6808 2.49512 14.7394 2.54199L23.0832 10.5459C23.1652 10.628 23.2003 10.6983 23.2003 10.7686Z" fill="black" fill-opacity="0.85"/>
</g>
<defs>
<clipPath id="clip0_2207_1275">
<rect width="25.2656" height="21.5039" fill="white" transform="translate(0.0440674 0.0224609)"/>
</clipPath>
</defs>
</svg>
