<svg width="22" height="22" viewBox="0 0 22 22" fill="none" xmlns="http://www.w3.org/2000/svg">
<g clip-path="url(#clip0_2207_23427)">
<path d="M3.68384 21.6145H17.8987C20.3597 21.6145 21.5784 20.3957 21.5784 17.9816V3.6731C21.5784 1.25904 20.3597 0.0402832 17.8987 0.0402832H3.68384C1.23462 0.0402832 0.00415039 1.24732 0.00415039 3.6731V17.9816C0.00415039 20.4074 1.23462 21.6145 3.68384 21.6145Z" fill="black" fill-opacity="0.85"/>
<path d="M4.5979 10.798C4.5979 10.5285 4.69165 10.341 4.93774 10.0949L9.01587 5.9934C9.17993 5.82934 9.40259 5.74731 9.64868 5.74731C10.1644 5.74731 10.5276 6.12231 10.5276 6.62622C10.5276 6.88403 10.4222 7.10668 10.258 7.28246L8.75806 8.77075L7.30493 9.9895L9.85962 9.88403H16.1292C16.6565 9.88403 17.0433 10.259 17.0433 10.798C17.0433 11.3254 16.6683 11.7004 16.1292 11.7004H9.85962L7.29321 11.6066L8.75806 12.8254L10.258 14.3137C10.4338 14.4777 10.5276 14.7004 10.5276 14.9582C10.5276 15.4621 10.1644 15.8488 9.64868 15.8488C9.40259 15.8488 9.17993 15.7551 9.01587 15.591L4.93774 11.5012C4.71509 11.2785 4.5979 11.0676 4.5979 10.798Z" fill="white"/>
</g>
<defs>
<clipPath id="clip0_2207_23427">
<rect width="21.5742" height="21.5977" fill="white" transform="translate(0.00415039 0.0168457)"/>
</clipPath>
</defs>
</svg>
