<svg width="30" height="23" viewBox="0 0 30 23" fill="none" xmlns="http://www.w3.org/2000/svg">
<g clip-path="url(#clip0_2207_8783)">
<path d="M23.2214 20.3799C26.7605 20.3799 29.5261 17.79 29.5261 14.5674C29.5261 12.1065 28.1082 9.97364 25.823 9.0127C25.8464 3.78614 22.0847 0.0126953 17.2918 0.0126953C14.116 0.0126953 11.8543 1.71192 10.448 3.7627C7.56519 2.91895 4.42457 5.11036 4.36597 8.39161C1.71753 8.81348 0.0651855 11.1807 0.0651855 14.04C0.0651855 17.4854 3.07691 20.3799 7.08472 20.3799H23.2214Z" fill="black" fill-opacity="0.85"/>
<path d="M15.3464 16.5831C12.6511 16.5831 10.4832 14.4034 10.4832 11.6612C10.4832 9.23541 12.3113 7.27837 14.4793 6.93853V5.69634C14.4793 5.169 15.0418 4.96978 15.4519 5.29791L17.6902 7.20806C18.0418 7.51275 18.0652 8.00494 17.6902 8.33306L15.4519 10.2667C15.0418 10.6183 14.4793 10.4073 14.4793 9.89166V8.46197C13.0496 8.84869 11.9949 10.1378 11.9949 11.6964C11.9949 13.5714 13.4832 15.0831 15.3464 15.0831C17.2214 15.0831 18.7097 13.5714 18.7097 11.6964C18.7097 11.298 19.0496 10.9581 19.4714 10.9581C19.8699 10.9581 20.2214 11.298 20.2214 11.6964C20.2214 14.4034 18.0535 16.5831 15.3464 16.5831Z" fill="white"/>
</g>
<defs>
<clipPath id="clip0_2207_8783">
<rect width="29.4609" height="22.2773" fill="white" transform="translate(0.0651855 0.0126953)"/>
</clipPath>
</defs>
</svg>
