<svg width="33" height="25" viewBox="0 0 33 25" fill="none" xmlns="http://www.w3.org/2000/svg">
<g clip-path="url(#clip0_2207_22017)">
<path d="M11.3181 13.6761C12.4665 12.9613 12.5017 11.6371 11.3181 10.9222L2.4353 5.48474C1.3103 4.79333 0.079834 5.30896 0.079834 6.70349V17.8832C0.079834 19.3129 1.33374 19.7933 2.4353 19.1136L11.3181 13.6761ZM10.0642 12.5394L2.20092 17.4144C2.0603 17.4965 1.77905 17.5082 1.77905 17.2152V7.38318C1.77905 7.06677 2.08374 7.10192 2.20092 7.18396L10.0525 12.0472C10.3454 12.2347 10.24 12.434 10.0642 12.5394ZM16.0759 24.5511C16.5329 24.5511 16.9431 24.1879 16.9431 23.7308V0.855835C16.9431 0.398804 16.5329 0.0472412 16.0759 0.0472412C15.6189 0.0472412 15.2204 0.398804 15.2204 0.855835V23.7308C15.2204 24.1879 15.6189 24.5511 16.0759 24.5511ZM29.7165 19.1136C30.8298 19.7933 32.0837 19.3129 32.0837 17.8832V6.70349C32.0837 5.30896 30.8532 4.79333 29.7165 5.48474L20.8337 10.9222C19.6618 11.6371 19.6853 12.9613 20.8337 13.6761L29.7165 19.1136ZM29.9509 17.4144L22.0993 12.5394C21.9118 12.434 21.8181 12.2347 22.0993 12.0472L29.9509 7.18396C30.0798 7.10192 30.3728 7.06677 30.3728 7.38318V17.2152C30.3728 17.5082 30.1032 17.4965 29.9509 17.4144Z" fill="black" fill-opacity="0.85"/>
</g>
<defs>
<clipPath id="clip0_2207_22017">
<rect width="32.0039" height="24.5273" fill="white" transform="translate(0.079834 0.0238037)"/>
</clipPath>
</defs>
</svg>
