<svg width="22" height="22" viewBox="0 0 22 22" fill="none" xmlns="http://www.w3.org/2000/svg">
<g clip-path="url(#clip0_2207_6763)">
<path d="M20.3306 1.39551C19.1353 0.200195 17.4478 0.0126953 15.4439 0.0126953H6.31495C4.3462 0.0126953 2.6587 0.200195 1.46338 1.39551C0.268066 2.59082 0.0922852 4.26661 0.0922852 6.23536V15.3643C0.0922852 17.3682 0.268066 19.0439 1.46338 20.2393C2.6587 21.4346 4.3462 21.6221 6.33838 21.6221H15.4439C17.4478 21.6221 19.1353 21.4346 20.3306 20.2393C21.5259 19.0439 21.7017 17.3682 21.7017 15.3643V6.25879C21.7017 4.25489 21.5259 2.59082 20.3306 1.39551Z" fill="black" fill-opacity="0.85"/>
<path d="M10.8853 4.66504C11.4243 4.66504 11.7993 5.04004 11.7993 5.57911V11.5908L11.7056 14.1689L12.9243 12.7041L14.3423 11.2627C14.5064 11.0752 14.729 10.9932 14.9868 10.9932C15.4907 10.9932 15.8775 11.3682 15.8775 11.8721C15.8775 12.1299 15.7954 12.3408 15.6314 12.5049L11.6001 16.5127C11.3657 16.7471 11.1665 16.8643 10.8853 16.8643C10.6275 16.8643 10.44 16.7588 10.1939 16.5127L6.16259 12.5049C5.98681 12.3408 5.9165 12.1299 5.9165 11.8721C5.9165 11.3682 6.2915 10.9932 6.7954 10.9932C7.05322 10.9932 7.27587 11.0869 7.43994 11.2627L8.86962 12.7041L10.0767 14.1572L9.9829 11.5908V5.57911C9.9829 5.04004 10.3579 4.66504 10.8853 4.66504Z" fill="white"/>
</g>
<defs>
<clipPath id="clip0_2207_6763">
<rect width="21.6094" height="21.6211" fill="white" transform="translate(0.0922852 0.0126953)"/>
</clipPath>
</defs>
</svg>
