<svg width="24" height="24" viewBox="0 0 24 24" fill="none" xmlns="http://www.w3.org/2000/svg">
<g clip-path="url(#clip0_2207_24291)">
<path d="M12.0097 23.9307C18.5488 23.9307 23.9628 18.5166 23.9628 11.9775C23.9628 5.4502 18.5371 0.0244141 11.998 0.0244141C5.4707 0.0244141 0.0566406 5.4502 0.0566406 11.9775C0.0566406 18.5166 5.48242 23.9307 12.0097 23.9307Z" fill="black" fill-opacity="0.85"/>
<path d="M6.61914 12.5283C6.61914 9.56348 9.05664 7.24317 11.7754 7.24317C11.8808 7.24317 12.0097 7.25489 12.1035 7.26661L11.2597 6.39942C11.1308 6.25879 11.0371 6.04786 11.0371 5.83692C11.0371 5.40332 11.3652 5.06348 11.8105 5.06348C12.0214 5.06348 12.2324 5.15723 12.3613 5.30958L14.6816 7.66504C14.9628 7.96973 14.9863 8.49708 14.6816 8.79004L12.3378 11.1338C12.2089 11.2627 12.0097 11.3682 11.8105 11.3682C11.3769 11.3682 11.0371 11.0283 11.0371 10.5947C11.0371 10.3838 11.1308 10.1846 11.2714 10.0439L12.4433 8.88379C12.3261 8.86036 12.1621 8.84864 12.0097 8.84864C9.94726 8.84864 8.29492 10.5127 8.29492 12.5752C8.29492 14.6494 9.94726 16.3135 12.0097 16.3135C14.0722 16.3135 15.7246 14.6494 15.7246 12.5752C15.7246 12.1182 16.1113 11.7432 16.5683 11.7432C17.0136 11.7432 17.4004 12.1182 17.4004 12.5752C17.4004 15.5518 14.998 17.9775 12.0097 17.9775C9.02148 17.9775 6.61914 15.5518 6.61914 12.5283Z" fill="white"/>
</g>
<defs>
<clipPath id="clip0_2207_24291">
<rect width="23.9062" height="23.918" fill="white" transform="translate(0.0566406 0.0126953)"/>
</clipPath>
</defs>
</svg>
