<svg width="22" height="22" viewBox="0 0 22 22" fill="none" xmlns="http://www.w3.org/2000/svg">
<g clip-path="url(#clip0_2207_24041)">
<path d="M3.71961 21.5952H17.9344C20.3954 21.5952 21.6141 20.3765 21.6141 17.9624V3.65381C21.6141 1.23975 20.3954 0.0209961 17.9344 0.0209961H3.71961C1.27039 0.0209961 0.039917 1.22803 0.039917 3.65381V17.9624C0.039917 20.3882 1.27039 21.5952 3.71961 21.5952Z" fill="black" fill-opacity="0.85"/>
<path d="M12.0985 4.6499C14.8993 4.6499 16.7274 6.54833 16.7274 9.37255V10.9546C16.7274 11.5171 16.3758 11.8921 15.8602 11.8921C15.3329 11.8921 14.9813 11.5288 14.9813 10.978V9.37255C14.9813 7.60302 13.8329 6.39599 12.0985 6.39599C10.493 6.39599 9.42664 7.57958 9.42664 9.36083V12.7944L9.37976 13.9898L9.76648 13.439L11.1376 12.021C11.3016 11.8452 11.5243 11.7398 11.7821 11.7398C12.286 11.7398 12.6844 12.1265 12.6844 12.6069C12.6844 12.8765 12.5907 13.0874 12.4266 13.2515L9.28601 16.3218C9.06336 16.5444 8.80554 16.6382 8.54773 16.6382C8.2782 16.6382 8.02039 16.5327 7.79773 16.3218L4.69226 13.2632C4.51648 13.0874 4.43445 12.8882 4.43445 12.6187C4.43445 12.1265 4.83289 11.7398 5.3368 11.7398C5.57117 11.7398 5.80554 11.8452 5.95789 12.021L7.10633 13.2046L7.73914 14.0015L7.68054 12.7944V9.36083C7.68054 6.53661 9.45008 4.6499 12.0985 4.6499Z" fill="white"/>
</g>
<defs>
<clipPath id="clip0_2207_24041">
<rect width="21.5742" height="21.8789" fill="white" transform="translate(0.039917 0.0209961)"/>
</clipPath>
</defs>
</svg>
