<svg width="24" height="24" viewBox="0 0 24 24" fill="none" xmlns="http://www.w3.org/2000/svg">
<g clip-path="url(#clip0_2207_24614)">
<path d="M12.0202 23.93C18.5593 23.93 23.9733 18.5043 23.9733 11.9769C23.9733 5.43786 18.5476 0.0238037 12.0085 0.0238037C5.4812 0.0238037 0.0671387 5.43786 0.0671387 11.9769C0.0671387 18.5043 5.49292 23.93 12.0202 23.93ZM12.0202 21.9379C6.48902 21.9379 2.07105 17.5082 2.07105 11.9769C2.07105 6.44568 6.4773 2.01599 12.0085 2.01599C17.5398 2.01599 21.9812 6.44568 21.9812 11.9769C21.9812 17.5082 17.5515 21.9379 12.0202 21.9379Z" fill="black" fill-opacity="0.85"/>
<path d="M7.2859 12.6097L13.9539 16.559C14.5047 16.8871 15.1258 16.6176 15.1258 16.055V7.91055C15.1258 7.33633 14.4578 7.10195 13.9539 7.40664L7.2859 11.3558C6.79371 11.6371 6.78199 12.3285 7.2859 12.6097Z" fill="black" fill-opacity="0.85"/>
</g>
<defs>
<clipPath id="clip0_2207_24614">
<rect width="23.9062" height="23.918" fill="white" transform="translate(0.0671387 0.0238037)"/>
</clipPath>
</defs>
</svg>
