<svg width="36" height="23" viewBox="0 0 36 23" fill="none" xmlns="http://www.w3.org/2000/svg">
<g clip-path="url(#clip0_2207_24267)">
<path d="M17.8591 22.2941C18.4685 22.2941 18.9021 21.8606 18.9021 21.2512V1.03638C18.9021 0.438721 18.4685 0.0168457 17.8591 0.0168457C17.2498 0.0168457 16.8044 0.438721 16.8044 1.03638V21.2512C16.8044 21.8606 17.2498 22.2941 17.8591 22.2941Z" fill="black" fill-opacity="0.85"/>
<path d="M0.0231934 11.1496C0.0231934 11.759 0.445068 12.2043 1.05444 12.2043H9.04663L11.3787 12.1223L7.51147 15.8606C7.31225 16.048 7.2185 16.3293 7.2185 16.6106C7.2185 17.1965 7.66381 17.6301 8.24975 17.6301C8.54272 17.6301 8.80053 17.5129 9.03491 17.2785L14.3904 11.9348C14.613 11.7121 14.7537 11.4426 14.7537 11.1496C14.7537 10.8566 14.613 10.5871 14.3904 10.3645L9.03491 5.02076C8.80053 4.78638 8.54272 4.66919 8.24975 4.66919C7.66381 4.66919 7.2185 5.10279 7.2185 5.68873C7.2185 5.96997 7.31225 6.25123 7.51147 6.43873L11.3787 10.177L9.04663 10.1066H1.05444C0.445068 10.1066 0.0231934 10.5402 0.0231934 11.1496ZM35.6951 11.1496C35.6951 10.5402 35.2615 10.1066 34.6521 10.1066H26.6716L24.3279 10.177L28.1951 6.43873C28.3943 6.25123 28.488 5.96997 28.488 5.68873C28.488 5.10279 28.0427 4.66919 27.4685 4.66919C27.1755 4.66919 26.906 4.78638 26.6716 5.02076L21.3162 10.3645C21.0935 10.5871 20.9646 10.8566 20.9646 11.1496C20.9646 11.4426 21.0935 11.7121 21.3162 11.9348L26.6716 17.2785C26.906 17.5129 27.1755 17.6301 27.4685 17.6301C28.0427 17.6301 28.488 17.1965 28.488 16.6106C28.488 16.3293 28.3943 16.048 28.1951 15.8606L24.3279 12.1223L26.6716 12.2043H34.6521C35.2615 12.2043 35.6951 11.759 35.6951 11.1496Z" fill="black" fill-opacity="0.85"/>
</g>
<defs>
<clipPath id="clip0_2207_24267">
<rect width="35.6719" height="22.2773" fill="white" transform="translate(0.0231934 0.0168457)"/>
</clipPath>
</defs>
</svg>
