<svg width="22" height="22" viewBox="0 0 22 22" fill="none" xmlns="http://www.w3.org/2000/svg">
<g clip-path="url(#clip0_2207_24652)">
<path d="M3.71118 21.6215H17.926C20.387 21.6215 21.6057 20.4027 21.6057 17.9886V3.68005C21.6057 1.26599 20.387 0.0472412 17.926 0.0472412H3.71118C1.26196 0.0472412 0.0314941 1.25427 0.0314941 3.68005V17.9886C0.0314941 20.4144 1.26196 21.6215 3.71118 21.6215ZM3.73461 19.7347C2.56274 19.7347 1.91821 19.1136 1.91821 17.8949V3.7738C1.91821 2.55505 2.56274 1.93396 3.73461 1.93396H17.9026C19.0627 1.93396 19.719 2.55505 19.719 3.7738V17.8949C19.719 19.1136 19.0627 19.7347 17.9026 19.7347H3.73461Z" fill="black" fill-opacity="0.85"/>
<path d="M6.10182 11.4496L12.7698 15.3988C13.3206 15.7269 13.9417 15.4574 13.9417 14.8949V6.75038C13.9417 6.17616 13.2737 5.94179 12.7698 6.24648L6.10182 10.1957C5.62135 10.4769 5.60963 11.1683 6.10182 11.4496Z" fill="black" fill-opacity="0.85"/>
</g>
<defs>
<clipPath id="clip0_2207_24652">
<rect width="21.5742" height="21.5977" fill="white" transform="translate(0.0314941 0.0238037)"/>
</clipPath>
</defs>
</svg>
