<svg width="24" height="24" viewBox="0 0 24 24" fill="none" xmlns="http://www.w3.org/2000/svg">
<g clip-path="url(#clip0_2207_24110)">
<path d="M11.9573 23.9272C18.4964 23.9272 23.9104 18.5015 23.9104 11.9741C23.9104 5.43506 18.4846 0.0209961 11.9455 0.0209961C5.41821 0.0209961 0.00415039 5.43506 0.00415039 11.9741C0.00415039 18.5015 5.42993 23.9272 11.9573 23.9272ZM11.9573 21.9351C6.42603 21.9351 2.00806 17.5054 2.00806 11.9741C2.00806 6.44288 6.41431 2.01319 11.9455 2.01319C17.4769 2.01319 21.9183 6.44288 21.9183 11.9741C21.9183 17.5054 17.4886 21.9351 11.9573 21.9351Z" fill="black" fill-opacity="0.85"/>
<path d="M11.9338 18.8882C12.3791 18.8882 12.7189 18.5483 12.7189 18.103V12.7241L12.59 10.5796L14.6525 12.9233L15.4143 13.6968C15.5783 13.8608 15.7893 13.9312 16.0002 13.9312C16.4339 13.9312 16.7385 13.5796 16.7385 13.1577C16.7385 12.9468 16.6799 12.7476 16.4924 12.5601L12.5197 8.54053C12.3557 8.36475 12.1447 8.271 11.9338 8.271C11.7229 8.271 11.5119 8.35303 11.3479 8.54053L7.38696 12.5718C7.24634 12.7358 7.15259 12.9702 7.15259 13.1577C7.15259 13.603 7.45727 13.9312 7.90259 13.9312C8.14868 13.9312 8.32446 13.8608 8.47681 13.6968L9.14477 12.9585L11.2775 10.5679L11.1486 12.7241V18.103C11.1486 18.5483 11.465 18.8882 11.9338 18.8882ZM7.55103 7.36866H16.3518C16.8088 7.36866 17.1252 7.04053 17.1252 6.59522C17.1252 6.12647 16.8088 5.79834 16.3518 5.79834H7.55103C7.09399 5.79834 6.76587 6.12647 6.76587 6.59522C6.76587 7.04053 7.09399 7.36866 7.55103 7.36866Z" fill="black" fill-opacity="0.85"/>
</g>
<defs>
<clipPath id="clip0_2207_24110">
<rect width="23.9062" height="23.918" fill="white" transform="translate(0.00415039 0.0209961)"/>
</clipPath>
</defs>
</svg>
