<svg width="24" height="24" viewBox="0 0 24 24" fill="none" xmlns="http://www.w3.org/2000/svg">
<g clip-path="url(#clip0_2207_1342)">
<path d="M11.9719 23.9405C18.511 23.9405 23.925 18.5264 23.925 11.9873C23.925 5.45996 18.4993 0.0341797 11.9602 0.0341797C5.43286 0.0341797 0.0187988 5.45996 0.0187988 11.9873C0.0187988 18.5264 5.44458 23.9405 11.9719 23.9405Z" fill="black" fill-opacity="0.85"/>
<path d="M11.9719 19.0772C11.761 19.0772 11.5032 18.9952 11.2688 18.7491L6.37036 13.5577C6.08911 13.2413 5.94849 12.9834 5.94849 12.667C5.94849 12.21 6.26489 11.8936 6.72192 11.8936H9.38208V6.43262C9.38208 5.47168 9.92114 4.9209 10.8469 4.9209H13.0852C14.011 4.9209 14.5618 5.47168 14.5618 6.43262V11.8936H17.1985C17.6321 11.8936 17.9954 12.21 17.9954 12.6905C17.9954 12.9952 17.8547 13.2061 17.5266 13.5577L12.6868 18.7491C12.4407 18.9952 12.1946 19.0772 11.9719 19.0772Z" fill="white"/>
</g>
<defs>
<clipPath id="clip0_2207_1342">
<rect width="23.9062" height="23.918" fill="white" transform="translate(0.0187988 0.0224609)"/>
</clipPath>
</defs>
</svg>
