<svg width="22" height="22" viewBox="0 0 22 22" fill="none" xmlns="http://www.w3.org/2000/svg">
<g clip-path="url(#clip0_2207_23523)">
<path d="M3.67969 21.6187H17.8945C20.3555 21.6187 21.5742 20.3999 21.5742 17.9858V3.67725C21.5742 1.26319 20.3555 0.0444336 17.8945 0.0444336H3.67969C1.23047 0.0444336 0 1.25147 0 3.67725V17.9858C0 20.4116 1.23047 21.6187 3.67969 21.6187Z" fill="black" fill-opacity="0.85"/>
<path d="M10.8047 16.8608C10.2773 16.8608 9.89062 16.4858 9.89062 15.9468V9.93506L9.99609 7.36866L8.78906 8.82178L7.35938 10.2632C7.19531 10.4272 6.97266 10.5327 6.71484 10.5327C6.21094 10.5327 5.83594 10.146 5.83594 9.65381C5.83594 9.396 5.90625 9.18506 6.07031 9.021L10.1016 5.00147C10.3477 4.75538 10.5469 4.66162 10.8047 4.66162C11.0859 4.66162 11.2852 4.76709 11.5195 5.00147L15.5391 9.021C15.7148 9.18506 15.7969 9.396 15.7969 9.65381C15.7969 10.146 15.4102 10.5327 14.9062 10.5327C14.6484 10.5327 14.4258 10.439 14.2617 10.2632L12.8438 8.82178L11.6133 7.35694L11.7188 9.93506V15.9468C11.7188 16.4858 11.3438 16.8608 10.8047 16.8608Z" fill="white"/>
</g>
<defs>
<clipPath id="clip0_2207_23523">
<rect width="21.5742" height="21.5977" fill="white" transform="translate(0 0.0209961)"/>
</clipPath>
</defs>
</svg>
