<svg width="24" height="24" viewBox="0 0 24 24" fill="none" xmlns="http://www.w3.org/2000/svg">
<g clip-path="url(#clip0_2207_23693)">
<path d="M11.9636 23.9204C18.5027 23.9204 23.9167 18.4947 23.9167 11.9673C23.9167 5.42822 18.491 0.0141602 11.9519 0.0141602C5.42456 0.0141602 0.010498 5.42822 0.010498 11.9673C0.010498 18.4947 5.43628 23.9204 11.9636 23.9204Z" fill="black" fill-opacity="0.85"/>
<path d="M8.16675 8.96728C8.70581 8.96728 9.05738 9.33057 9.05738 9.9165V11.9908L8.88159 13.8775L10.6277 12.0142L15.0457 7.58447C15.2214 7.40869 15.4558 7.30322 15.7488 7.30322C16.2761 7.30322 16.6394 7.65478 16.6394 8.20557C16.6394 8.43994 16.5222 8.68604 16.3464 8.86182L11.905 13.2798L10.0183 15.0494L11.8113 14.8619H13.991C14.5769 14.8619 14.9519 15.2134 14.9519 15.7408C14.9519 16.2798 14.5886 16.6314 14.0144 16.6314H8.29566C7.67456 16.6314 7.27612 16.3501 7.27612 15.6353V9.93994C7.27612 9.36572 7.63941 8.96728 8.16675 8.96728Z" fill="white"/>
</g>
<defs>
<clipPath id="clip0_2207_23693">
<rect width="23.9062" height="23.918" fill="white" transform="translate(0.010498 0.0141602)"/>
</clipPath>
</defs>
</svg>
