<svg width="35" height="25" viewBox="0 0 35 25" fill="none" xmlns="http://www.w3.org/2000/svg">
<g clip-path="url(#clip0_2207_22009)">
<path d="M0.941917 13.6761L9.81301 19.1136C10.9263 19.7933 12.1802 19.3129 12.1802 17.8832V6.70349C12.1802 5.30896 10.9497 4.79333 9.81301 5.48474L0.941917 10.9222C-0.241677 11.6371 -0.218239 12.9613 0.941917 13.6761ZM2.19582 12.5394C2.02004 12.4222 1.91457 12.2347 2.19582 12.0472L10.0591 7.18396C10.1763 7.10192 10.4693 7.06677 10.4693 7.38318V17.2152C10.4693 17.5082 10.1997 17.5082 10.0591 17.4144L2.19582 12.5394ZM17.524 24.5511C17.981 24.5511 18.3911 24.1879 18.3911 23.7308V0.855835C18.3911 0.398804 17.981 0.0472412 17.524 0.0472412C17.0669 0.0472412 16.6685 0.398804 16.6685 0.855835V23.7308C16.6685 24.1879 17.0669 24.5511 17.524 24.5511ZM25.2349 19.1136L34.1177 13.6761C35.2661 12.9613 35.2896 11.6371 34.1177 10.9222L25.2349 5.48474C24.0982 4.79333 22.8677 5.30896 22.8677 6.70349V17.8832C22.8677 19.3129 24.1216 19.7933 25.2349 19.1136ZM24.9888 17.4144C24.8482 17.4965 24.5786 17.5082 24.5786 17.2152V7.38318C24.5786 7.06677 24.8716 7.10192 24.9888 7.18396L32.8521 12.0472C33.1333 12.2347 33.0396 12.434 32.8521 12.5394L24.9888 17.4144Z" fill="black" fill-opacity="0.85"/>
</g>
<defs>
<clipPath id="clip0_2207_22009">
<rect width="34.9248" height="24.5273" fill="white" transform="translate(0.0629883 0.0238037)"/>
</clipPath>
</defs>
</svg>
