<svg width="30" height="26" viewBox="0 0 30 26" fill="none" xmlns="http://www.w3.org/2000/svg">
<g clip-path="url(#clip0_2207_2393)">
<path d="M10.2495 21.4752C10.2495 23.9244 11.4682 25.1432 13.8823 25.1432H26.3276C28.7534 25.1432 29.9604 23.9244 29.9604 21.4752V3.69788C29.9604 1.26038 28.7534 0.0181885 26.3276 0.0181885H13.8823C11.4682 0.0181885 10.2495 1.26038 10.2495 3.69788V21.4752ZM12.1362 21.4401V3.73303C12.1362 2.56116 12.769 1.90491 13.9877 1.90491H26.2338C27.4526 1.90491 28.0737 2.56116 28.0737 3.73303V21.4401C28.0737 22.612 27.4526 23.2565 26.2338 23.2565H13.9877C12.769 23.2565 12.1362 22.612 12.1362 21.4401Z" fill="black" fill-opacity="0.85"/>
<path d="M14.7495 18.5221H25.4604C25.9292 18.5221 26.1518 18.2174 26.1518 17.7838C26.1518 16.5065 24.2182 13.1784 20.1049 13.1784C15.9917 13.1784 14.0581 16.5065 14.0581 17.7838C14.0581 18.2174 14.2924 18.5221 14.7495 18.5221ZM20.1049 12.2174C21.7807 12.2291 23.1167 10.8112 23.1167 8.93616C23.1167 7.17835 21.7807 5.7135 20.1049 5.7135C18.4409 5.7135 17.1049 7.17835 17.1049 8.93616C17.1049 10.8112 18.4409 12.2057 20.1049 12.2174Z" fill="black" fill-opacity="0.85"/>
<path d="M0.311985 10.6002C-0.273952 11.2565 0.101048 12.1471 0.979954 12.1471H2.97214V17.2799C2.97214 17.7955 3.37058 18.194 3.89792 18.194C4.40183 18.194 4.80027 17.7955 4.80027 17.2799V12.1471H6.76902C7.6948 12.1471 8.0112 11.2213 7.4487 10.6002L4.54245 7.31897C4.15574 6.87366 3.60495 6.87366 3.20652 7.31897L0.311985 10.6002Z" fill="black" fill-opacity="0.85"/>
</g>
<defs>
<clipPath id="clip0_2207_2393">
<rect width="29.931" height="25.1367" fill="white" transform="translate(0.0294189 0.0181885)"/>
</clipPath>
</defs>
</svg>
