<svg width="22" height="22" viewBox="0 0 22 22" fill="none" xmlns="http://www.w3.org/2000/svg">
<g clip-path="url(#clip0_2207_24125)">
<path d="M3.69239 21.6187H17.9072C20.3682 21.6187 21.5869 20.3999 21.5869 17.9858V3.67725C21.5869 1.26319 20.3682 0.0444336 17.9072 0.0444336H3.69239C1.24317 0.0444336 0.0126953 1.25147 0.0126953 3.67725V17.9858C0.0126953 20.4116 1.24317 21.6187 3.69239 21.6187Z" fill="black" fill-opacity="0.85"/>
<path d="M10.7939 17.7046C10.3018 17.7046 9.97363 17.353 9.97363 16.8843V11.353L10.1143 9.12646L7.91113 11.5991L7.23144 12.3491C7.0791 12.5249 6.8916 12.5952 6.6455 12.5952C6.17675 12.5952 5.86035 12.2554 5.86035 11.7866C5.86035 11.5991 5.9541 11.3413 6.10644 11.189L10.1846 7.0288C10.3604 6.82958 10.5713 6.74755 10.7939 6.74755C11.0283 6.74755 11.2275 6.85302 11.4033 7.0288L15.4932 11.1772C15.6924 11.3648 15.7627 11.5757 15.7627 11.7866C15.7627 12.2319 15.4346 12.5952 14.9893 12.5952C14.7666 12.5952 14.5439 12.5249 14.3916 12.3491L13.6416 11.5874L11.4736 9.13818L11.6025 11.353V16.8843C11.6025 17.353 11.2627 17.7046 10.7939 17.7046ZM6.2705 5.82177C5.80175 5.82177 5.47363 5.48193 5.47363 5.0249C5.47363 4.53271 5.80175 4.19287 6.2705 4.19287H15.3525C15.8213 4.19287 16.1494 4.53271 16.1494 5.0249C16.1494 5.48193 15.8213 5.82177 15.3525 5.82177H6.2705Z" fill="white"/>
</g>
<defs>
<clipPath id="clip0_2207_24125">
<rect width="21.5742" height="21.5977" fill="white" transform="translate(0.0126953 0.0209961)"/>
</clipPath>
</defs>
</svg>
