<svg width="22" height="22" viewBox="0 0 22 22" fill="none" xmlns="http://www.w3.org/2000/svg">
<g clip-path="url(#clip0_2207_23583)">
<path d="M3.73853 21.6174H17.9533C20.4143 21.6174 21.633 20.3986 21.633 17.9845V3.6759C21.633 1.26184 20.4143 0.0430908 17.9533 0.0430908H3.73853C1.28931 0.0430908 0.0588379 1.25012 0.0588379 3.6759V17.9845C0.0588379 20.4103 1.28931 21.6174 3.73853 21.6174Z" fill="black" fill-opacity="0.85"/>
<path d="M7.05493 13.8126C6.52759 13.8126 6.17603 13.4024 6.17603 12.8399V7.14465C6.17603 6.42981 6.56275 6.14856 7.18384 6.14856H12.9026C13.4768 6.14856 13.84 6.50012 13.84 7.03918C13.84 7.56653 13.465 7.91809 12.8791 7.91809H10.6994L8.9065 7.73059L10.7932 9.4884L15.2346 13.918C15.4104 14.0938 15.5276 14.3399 15.5276 14.5743C15.5276 15.1251 15.1643 15.4766 14.6369 15.4766C14.344 15.4766 14.1213 15.3713 13.9338 15.1954L9.51587 10.7657L7.76978 8.90246L7.94556 10.7891V12.8634C7.94556 13.4376 7.594 13.8126 7.05493 13.8126Z" fill="white"/>
</g>
<defs>
<clipPath id="clip0_2207_23583">
<rect width="21.5742" height="21.5977" fill="white" transform="translate(0.0588379 0.0196533)"/>
</clipPath>
</defs>
</svg>
