<svg width="21" height="29" viewBox="0 0 21 29" fill="none" xmlns="http://www.w3.org/2000/svg">
<g clip-path="url(#clip0_2207_24282)">
<path d="M0.0524902 14.8721C0.0524902 20.626 4.66968 25.2432 10.4119 25.2432C16.1541 25.2432 20.7595 20.626 20.7595 14.8721C20.7595 14.3096 20.3611 13.8994 19.7869 13.8994C19.2361 13.8994 18.8728 14.3096 18.8728 14.8721C18.8728 19.583 15.1111 23.3565 10.4119 23.3565C5.71265 23.3565 1.93921 19.583 1.93921 14.8721C1.93921 10.1729 5.71265 6.41114 10.4119 6.41114C11.3025 6.41114 12.1345 6.48145 12.8259 6.64551L9.32202 10.1143C9.14624 10.3018 9.05249 10.5361 9.05249 10.7822C9.05249 11.3213 9.45093 11.7197 9.97827 11.7197C10.2713 11.7197 10.4939 11.626 10.658 11.4502L15.4861 6.59864C15.697 6.39942 15.7791 6.16504 15.7791 5.89551C15.7791 5.6377 15.6736 5.37989 15.4861 5.19239L10.658 0.293945C10.4939 0.106445 10.2595 0.0126953 9.97827 0.0126953C9.45093 0.0126953 9.05249 0.43457 9.05249 0.973633C9.05249 1.21973 9.14624 1.45411 9.3103 1.64161L12.4275 4.72364C11.8181 4.60645 11.1267 4.52442 10.4119 4.52442C4.66968 4.52442 0.0524902 9.12988 0.0524902 14.8721Z" fill="black" fill-opacity="0.85"/>
</g>
<defs>
<clipPath id="clip0_2207_24282">
<rect width="20.707" height="28.043" fill="white" transform="translate(0.0524902 0.0126953)"/>
</clipPath>
</defs>
</svg>
