<svg width="24" height="24" viewBox="0 0 24 24" fill="none" xmlns="http://www.w3.org/2000/svg">
<g clip-path="url(#clip0_2207_23712)">
<path d="M11.9699 23.9216C18.509 23.9216 23.923 18.4959 23.923 11.9685C23.923 5.42944 18.4973 0.0153809 11.9582 0.0153809C5.43091 0.0153809 0.0168457 5.42944 0.0168457 11.9685C0.0168457 18.4959 5.44263 23.9216 11.9699 23.9216ZM11.9699 21.9295C6.43873 21.9295 2.02076 17.4998 2.02076 11.9685C2.02076 6.43726 6.42701 2.00757 11.9582 2.00757C17.4895 2.00757 21.9309 6.43726 21.9309 11.9685C21.9309 17.4998 17.5012 21.9295 11.9699 21.9295Z" fill="black" fill-opacity="0.85"/>
<path d="M15.6262 9.06226C15.1106 9.06226 14.7707 9.41382 14.7707 9.97632V12.0037L14.9465 13.8318L13.259 12.0271L8.94654 7.7146C8.77076 7.55054 8.55982 7.44507 8.27857 7.44507C7.76294 7.44507 7.41138 7.78491 7.41138 8.31226C7.41138 8.54663 7.52857 8.781 7.69263 8.94507L12.0168 13.2576L13.8449 14.9685L12.1106 14.781H9.97779C9.41529 14.781 9.05201 15.1209 9.05201 15.6365C9.05201 16.1521 9.40357 16.492 9.95435 16.492H15.509C16.1066 16.492 16.4934 16.2224 16.4934 15.531V9.99976C16.4934 9.44897 16.1418 9.06226 15.6262 9.06226Z" fill="black" fill-opacity="0.85"/>
</g>
<defs>
<clipPath id="clip0_2207_23712">
<rect width="23.9062" height="23.918" fill="white" transform="translate(0.0168457 0.0153809)"/>
</clipPath>
</defs>
</svg>
