<svg width="24" height="25" viewBox="0 0 24 25" fill="none" xmlns="http://www.w3.org/2000/svg">
<g clip-path="url(#clip0_2207_23959)">
<path d="M12.0224 23.9272C18.5615 23.9272 23.9755 18.5132 23.9755 11.9741C23.9755 5.44678 18.5498 0.0209961 12.0107 0.0209961C5.4834 0.0209961 0.0693359 5.44678 0.0693359 11.9741C0.0693359 18.5132 5.49512 23.9272 12.0224 23.9272Z" fill="black" fill-opacity="0.85"/>
<path d="M6.01074 13.2983C6.01074 10.6382 7.89745 8.88038 10.7216 8.88038H14.1552L15.3623 8.92725L14.5654 8.30616L13.3818 7.15772C13.206 6.99366 13.1005 6.771 13.1005 6.52491C13.1005 6.021 13.4755 5.62256 13.9795 5.62256C14.249 5.62256 14.4482 5.71631 14.624 5.89209L17.6826 8.99756C17.8935 9.2085 17.999 9.47803 17.999 9.73584C17.999 10.0054 17.9052 10.2632 17.6826 10.4741L14.6123 13.6148C14.4482 13.7788 14.2373 13.8726 13.9677 13.8726C13.4873 13.8726 13.1005 13.4741 13.1005 12.9702C13.1005 12.7241 13.206 12.5015 13.3818 12.3257L14.7998 10.9663L15.3505 10.5679L14.1552 10.6265H10.7216C8.94042 10.6265 7.75683 11.6929 7.75683 13.2983C7.75683 15.021 8.96386 16.1694 10.7334 16.1694H12.3388C12.8896 16.1694 13.2529 16.5327 13.2529 17.0483C13.2529 17.5757 12.8779 17.9155 12.3154 17.9155H10.7334C7.90917 17.9155 6.01074 16.0874 6.01074 13.2983Z" fill="white"/>
</g>
<defs>
<clipPath id="clip0_2207_23959">
<rect width="23.9062" height="24.1992" fill="white" transform="translate(0.0693359 0.0209961)"/>
</clipPath>
</defs>
</svg>
