<svg width="18" height="21" viewBox="0 0 18 21" fill="none" xmlns="http://www.w3.org/2000/svg">
<g clip-path="url(#clip0_2207_24106)">
<path d="M8.93799 20.6812C9.54736 20.6812 9.98096 20.2476 9.98096 19.6382V7.80225L9.89892 5.29444L13.4263 9.14991L16.0513 11.7398C16.2388 11.9272 16.52 12.0327 16.8013 12.0327C17.3872 12.0327 17.8208 11.5874 17.8208 11.0015C17.8208 10.7202 17.7036 10.4624 17.4692 10.2163L9.72314 2.4585C9.50049 2.22412 9.21924 2.09522 8.93799 2.09522C8.64502 2.09522 8.37549 2.22412 8.15283 2.4585L0.39502 10.2163C0.172363 10.4624 0.0551758 10.7202 0.0551758 11.0015C0.0551758 11.5874 0.477051 12.0327 1.07471 12.0327C1.35596 12.0327 1.62549 11.9272 1.82471 11.7398L4.44971 9.14991L7.97705 5.28272L7.8833 7.80225V19.6382C7.8833 20.2476 8.31689 20.6812 8.93799 20.6812ZM1.01611 2.11866H16.8247C17.4341 2.11866 17.856 1.68506 17.856 1.07569C17.856 0.466308 17.4341 0.0209961 16.8247 0.0209961H1.01611C0.418457 0.0209961 0.00830078 0.466308 0.00830078 1.07569C0.00830078 1.68506 0.418457 2.11866 1.01611 2.11866Z" fill="black" fill-opacity="0.85"/>
</g>
<defs>
<clipPath id="clip0_2207_24106">
<rect width="17.8477" height="20.6602" fill="white" transform="translate(0.00830078 0.0209961)"/>
</clipPath>
</defs>
</svg>
