<svg width="24" height="24" viewBox="0 0 24 24" fill="none" xmlns="http://www.w3.org/2000/svg">
<g clip-path="url(#clip0_2207_23640)">
<path d="M11.9614 23.9259C18.5005 23.9259 23.9145 18.5002 23.9145 11.9728C23.9145 5.43371 18.4888 0.0196533 11.9497 0.0196533C5.42236 0.0196533 0.00830078 5.43371 0.00830078 11.9728C0.00830078 18.5002 5.43408 23.9259 11.9614 23.9259ZM11.9614 21.9338C6.43018 21.9338 2.01221 17.5041 2.01221 11.9728C2.01221 6.44153 6.41846 2.01184 11.9497 2.01184C17.481 2.01184 21.9224 6.44153 21.9224 11.9728C21.9224 17.5041 17.4927 21.9338 11.9614 21.9338Z" fill="black" fill-opacity="0.85"/>
<path d="M15.6177 14.8791C16.1333 14.8791 16.4849 14.4806 16.4849 13.9416V8.41027C16.4849 7.71887 16.0981 7.44934 15.5005 7.44934H9.9458C9.39502 7.44934 9.04346 7.78918 9.04346 8.30481C9.04346 8.82043 9.40674 9.16027 9.96924 9.16027H12.1021L13.8364 8.97277L12.0083 10.672L7.68408 14.9963C7.52002 15.1603 7.40283 15.3947 7.40283 15.6291C7.40283 16.1564 7.75439 16.4963 8.27002 16.4963C8.55127 16.4963 8.76221 16.3908 8.93799 16.2267L13.2505 11.9142L14.938 10.1095L14.7622 11.9377V13.965C14.7622 14.5158 15.1021 14.8791 15.6177 14.8791Z" fill="black" fill-opacity="0.85"/>
</g>
<defs>
<clipPath id="clip0_2207_23640">
<rect width="23.9062" height="23.918" fill="white" transform="translate(0.00830078 0.0196533)"/>
</clipPath>
</defs>
</svg>
