<svg width="24" height="24" viewBox="0 0 24 24" fill="none" xmlns="http://www.w3.org/2000/svg">
<g clip-path="url(#clip0_2207_23791)">
<path d="M11.993 23.9244C18.5321 23.9244 23.9461 18.4987 23.9461 11.9713C23.9461 5.43225 18.5204 0.0181885 11.9813 0.0181885C5.45398 0.0181885 0.039917 5.43225 0.039917 11.9713C0.039917 18.4987 5.4657 23.9244 11.993 23.9244Z" fill="black" fill-opacity="0.85"/>
<path d="M7.66883 6.33455C8.00867 5.9947 8.51258 6.01814 8.82898 6.33455L11.7938 9.3697C11.9344 9.51033 12.0282 9.73298 12.0282 9.9322C12.0282 10.3892 11.7118 10.7173 11.2665 10.7173C11.0555 10.7173 10.8563 10.6353 10.7157 10.4947L9.4618 9.19393L9.01648 8.70173L9.03992 9.27595V17.104C9.03992 17.5376 8.7118 17.8658 8.24304 17.8658C7.79773 17.8658 7.45789 17.5376 7.45789 17.104V9.28768L7.48133 8.70173L7.0243 9.19393L5.78211 10.4712C5.64148 10.6236 5.44226 10.7173 5.24304 10.7173C4.78601 10.7173 4.44617 10.3775 4.44617 9.9322C4.44617 9.75642 4.56336 9.53376 4.69226 9.3697L7.66883 6.33455ZM16.329 17.6314C16.0126 17.9478 15.4618 17.9478 15.1454 17.6314L12.1805 14.6079C12.0399 14.4322 11.9579 14.2212 11.9579 14.0337C11.9579 13.5767 12.2626 13.2603 12.7196 13.2603C12.9422 13.2603 13.1297 13.3306 13.2821 13.4947L14.5243 14.7603L14.9696 15.2642L14.9461 14.7017V6.86189C14.9461 6.41658 15.286 6.08845 15.743 6.08845C16.1883 6.08845 16.5282 6.41658 16.5282 6.86189V14.69L16.5047 15.2525L16.9618 14.7603L18.204 13.4947C18.3446 13.354 18.5438 13.2603 18.7547 13.2603C19.2118 13.2603 19.5399 13.5767 19.5399 14.0337C19.5399 14.2329 19.4227 14.4439 19.2821 14.6079L16.329 17.6314Z" fill="white"/>
</g>
<defs>
<clipPath id="clip0_2207_23791">
<rect width="23.9062" height="23.918" fill="white" transform="translate(0.039917 0.0181885)"/>
</clipPath>
</defs>
</svg>
