<svg width="24" height="24" viewBox="0 0 24 24" fill="none" xmlns="http://www.w3.org/2000/svg">
<g clip-path="url(#clip0_2207_1480)">
<path d="M12.0119 23.9405C18.551 23.9405 23.965 18.5264 23.965 11.9873C23.965 5.45996 18.5393 0.0341797 12.0002 0.0341797C5.4729 0.0341797 0.0588379 5.45996 0.0588379 11.9873C0.0588379 18.5264 5.48462 23.9405 12.0119 23.9405Z" fill="black" fill-opacity="0.85"/>
<path d="M9.2815 16.9795C8.97681 16.9795 8.75415 16.8389 8.43775 16.5577L3.44556 11.8702C3.21118 11.6358 3.14087 11.4131 3.14087 11.2022C3.14087 10.9678 3.21118 10.7569 3.44556 10.5225L8.43775 5.85841C8.76587 5.55372 8.96509 5.41309 9.26978 5.41309C9.72681 5.41309 10.0198 5.69435 10.0198 5.98731V6.28028L6.04712 9.92481C5.64868 10.2764 5.44946 10.7334 5.44946 11.2022C5.44946 11.6709 5.6604 12.1163 6.04712 12.4678L10.0198 16.1358V16.4287C10.0198 16.71 9.72681 16.9795 9.2815 16.9795ZM12.469 16.9795C12.1877 16.9795 11.9299 16.8389 11.6252 16.5577L6.64478 11.8702C6.39868 11.6241 6.32837 11.4131 6.32837 11.2022C6.32837 10.9678 6.39868 10.7686 6.64478 10.5225L11.6252 5.85841C11.9533 5.55372 12.1643 5.41309 12.4572 5.41309C12.8908 5.41309 13.2072 5.77638 13.2072 6.18653V8.58888H13.3947C17.9065 8.58888 19.8986 11.46 19.8986 16.1358C19.8986 16.6748 19.6174 16.9795 19.2658 16.9795C18.9846 16.9795 18.6916 16.8975 18.4807 16.5108C17.4143 14.4483 15.844 13.8272 13.3947 13.8272H13.2072V16.2295C13.2072 16.6748 12.8908 16.9795 12.469 16.9795Z" fill="white"/>
</g>
<defs>
<clipPath id="clip0_2207_1480">
<rect width="23.9062" height="23.918" fill="white" transform="translate(0.0588379 0.0224609)"/>
</clipPath>
</defs>
</svg>
