<svg width="23" height="28" viewBox="0 0 23 28" fill="none" xmlns="http://www.w3.org/2000/svg">
<g clip-path="url(#clip0_2207_22353)">
<path d="M0.402588 4.05833L3.54321 6.40208C4.17602 6.87083 4.9729 6.62474 4.9729 5.78098V4.12864H18.0862V5.78098C18.0862 6.6013 18.8596 6.89427 19.5159 6.40208L22.6565 4.05833C23.0784 3.7302 23.0667 3.12083 22.6565 2.81614L19.5159 0.484106C18.8596 -0.0080817 18.0862 0.284887 18.0862 1.09348V2.76927H4.9729V1.09348C4.9729 0.284887 4.19946 -0.0080817 3.54321 0.484106L0.402588 2.81614C-0.0192871 3.13255 -0.0192871 3.7302 0.402588 4.05833Z" fill="black" fill-opacity="0.85"/>
<path d="M19.8557 10.4685V26.3123C19.8557 26.8162 20.2424 27.2146 20.7346 27.2146C21.2385 27.2146 21.6253 26.8162 21.6253 26.3123V10.4685C21.6253 9.97632 21.2385 9.5896 20.7346 9.5896C20.2424 9.5896 19.8557 9.97632 19.8557 10.4685ZM13.7151 10.4685V26.3123C13.7151 26.8162 14.1018 27.2146 14.594 27.2146C15.0979 27.2146 15.4846 26.8162 15.4846 26.3123V10.4685C15.4846 9.97632 15.0979 9.5896 14.594 9.5896C14.1018 9.5896 13.7151 9.97632 13.7151 10.4685ZM7.57446 10.4685V26.3123C7.57446 26.8162 7.96118 27.2146 8.46509 27.2146C8.95727 27.2146 9.34399 26.8162 9.34399 26.3123V10.4685C9.34399 9.97632 8.95727 9.5896 8.46509 9.5896C7.96118 9.5896 7.57446 9.97632 7.57446 10.4685ZM1.43384 10.4685V18.8006C1.43384 19.3045 1.82056 19.7029 2.32446 19.7029C2.81665 19.7029 3.20337 19.3045 3.20337 18.8006V10.4685C3.20337 9.97632 2.81665 9.5896 2.32446 9.5896C1.82056 9.5896 1.43384 9.97632 1.43384 10.4685Z" fill="black" fill-opacity="0.85"/>
</g>
<defs>
<clipPath id="clip0_2207_22353">
<rect width="22.8823" height="27.1992" fill="white" transform="translate(0.0861816 0.0153809)"/>
</clipPath>
</defs>
</svg>
