<svg width="22" height="22" viewBox="0 0 22 22" fill="none" xmlns="http://www.w3.org/2000/svg">
<g clip-path="url(#clip0_2207_23494)">
<path d="M3.73218 21.6131H17.947C20.408 21.6131 21.6267 20.3943 21.6267 17.9802V3.67163C21.6267 1.25757 20.408 0.0388184 17.947 0.0388184H3.73218C1.28296 0.0388184 0.0524902 1.24585 0.0524902 3.67163V17.9802C0.0524902 20.406 1.28296 21.6131 3.73218 21.6131ZM3.75561 19.7263C2.58374 19.7263 1.93921 19.1052 1.93921 17.8865V3.76538C1.93921 2.54663 2.58374 1.92554 3.75561 1.92554H17.9236C19.0837 1.92554 19.74 2.54663 19.74 3.76538V17.8865C19.74 19.1052 19.0837 19.7263 17.9236 19.7263H3.75561Z" fill="black" fill-opacity="0.85"/>
<path d="M16.8806 10.7966C16.8806 10.5388 16.7752 10.3513 16.5408 10.117L12.5798 6.13257C12.4275 5.98022 12.2166 5.89819 11.9705 5.89819C11.49 5.89819 11.1267 6.26147 11.1267 6.74194C11.1267 6.99976 11.2322 7.21069 11.3845 7.37476L12.8611 8.82788L14.2673 10.0115L11.7947 9.91772H5.67749C5.17358 9.91772 4.8103 10.281 4.8103 10.7966C4.8103 11.3006 5.17358 11.6638 5.67749 11.6638H11.7947L14.2673 11.5818L12.8611 12.7654L11.3845 14.2185C11.2205 14.3709 11.1267 14.5818 11.1267 14.8396C11.1267 15.3201 11.49 15.6951 11.9705 15.6951C12.2166 15.6951 12.4275 15.6013 12.5798 15.449L16.5408 11.4763C16.7634 11.2654 16.8806 11.0545 16.8806 10.7966Z" fill="black" fill-opacity="0.85"/>
</g>
<defs>
<clipPath id="clip0_2207_23494">
<rect width="21.5742" height="21.5977" fill="white" transform="translate(0.0524902 0.0153809)"/>
</clipPath>
</defs>
</svg>
