<svg width="22" height="22" viewBox="0 0 22 22" fill="none" xmlns="http://www.w3.org/2000/svg">
<g clip-path="url(#clip0_2207_23945)">
<path d="M3.70911 21.6187H17.9239C20.3849 21.6187 21.6036 20.3999 21.6036 17.9858V3.67725C21.6036 1.26319 20.3849 0.0444336 17.9239 0.0444336H3.70911C1.25989 0.0444336 0.0294189 1.25147 0.0294189 3.67725V17.9858C0.0294189 20.4116 1.25989 21.6187 3.70911 21.6187Z" fill="black" fill-opacity="0.85"/>
<path d="M16.7989 12.1265C16.7989 14.9272 14.9005 16.7554 12.0763 16.7554H10.4942C9.93176 16.7554 9.55676 16.4038 9.55676 15.8765C9.55676 15.3608 9.92004 15.0093 10.4708 15.0093H12.0763C13.8458 15.0093 15.0528 13.8608 15.0528 12.1265C15.0528 10.521 13.8692 9.45458 12.088 9.45458H8.66614L7.45911 9.40771L8.00989 9.79443L9.42786 11.1655C9.60364 11.3413 9.70911 11.5522 9.70911 11.8101C9.70911 12.314 9.32239 12.7124 8.84192 12.7124C8.57239 12.7124 8.36145 12.6187 8.19739 12.4546L5.12708 9.31396C4.90442 9.0913 4.81067 8.83349 4.81067 8.57568C4.81067 8.30615 4.91614 8.04833 5.12708 7.82568L8.18567 4.72021C8.36145 4.54443 8.56067 4.4624 8.8302 4.4624C9.33411 4.4624 9.70911 4.84911 9.70911 5.36474C9.70911 5.59911 9.60364 5.83349 9.42786 5.98583L8.24426 7.13427L7.44739 7.76708L8.66614 7.70849H12.088C14.9122 7.70849 16.7989 9.4663 16.7989 12.1265Z" fill="white"/>
</g>
<defs>
<clipPath id="clip0_2207_23945">
<rect width="21.5742" height="21.5977" fill="white" transform="translate(0.0294189 0.0209961)"/>
</clipPath>
</defs>
</svg>
