<svg width="24" height="24" viewBox="0 0 24 24" fill="none" xmlns="http://www.w3.org/2000/svg">
<g clip-path="url(#clip0_2207_23441)">
<path d="M11.9867 23.9189C18.5258 23.9189 23.9398 18.4932 23.9398 11.9658C23.9398 5.42676 18.5141 0.0126953 11.975 0.0126953C5.44763 0.0126953 0.0335693 5.42676 0.0335693 11.9658C0.0335693 18.4932 5.45935 23.9189 11.9867 23.9189Z" fill="black" fill-opacity="0.85"/>
<path d="M5.78748 11.9541C5.78748 11.6846 5.88123 11.4971 6.12732 11.251L10.2055 7.14942C10.3695 6.98536 10.5805 6.90332 10.8383 6.90332C11.3422 6.90332 11.7172 7.27832 11.7172 7.78223C11.7172 8.04004 11.6 8.2627 11.4477 8.43848L9.94763 9.92676L8.49451 11.1455L11.0492 11.04H17.3188C17.8461 11.04 18.2328 11.415 18.2328 11.9541C18.2328 12.4815 17.8578 12.8565 17.3188 12.8565H11.0492L8.48279 12.7627L9.94763 13.9815L11.4477 15.4697C11.6117 15.6338 11.7172 15.8565 11.7172 16.1143C11.7172 16.6182 11.3422 17.0049 10.8383 17.0049C10.5805 17.0049 10.3695 16.9111 10.2055 16.7471L6.12732 12.6572C5.90466 12.4346 5.78748 12.2236 5.78748 11.9541Z" fill="white"/>
</g>
<defs>
<clipPath id="clip0_2207_23441">
<rect width="23.9062" height="23.918" fill="white" transform="translate(0.0335693 0.0126953)"/>
</clipPath>
</defs>
</svg>
