<svg width="24" height="22" viewBox="0 0 24 22" fill="none" xmlns="http://www.w3.org/2000/svg">
<g clip-path="url(#clip0_2207_7982)">
<path d="M11.6977 21.8916C11.9438 21.8916 12.2954 21.7275 12.5532 21.5752C19.1626 17.3565 23.3462 12.4463 23.3462 7.45411C23.3462 3.30567 20.4985 0.375977 16.8071 0.375977C14.5219 0.375977 12.7641 1.64161 11.6977 3.5752C10.6548 1.65332 8.88525 0.375977 6.58838 0.375977C2.90869 0.375977 0.0610352 3.30567 0.0610352 7.45411C0.0610352 12.4463 4.24463 17.3565 10.854 21.5752C11.1001 21.7275 11.4633 21.8916 11.6977 21.8916Z" fill="black" fill-opacity="0.85"/>
<path d="M7.43213 11.8838C7.43213 9.8565 8.95557 8.11041 10.854 7.82916V6.84477C10.854 6.38774 11.3462 6.22369 11.686 6.51666L13.643 8.18071C13.9712 8.46196 13.9712 8.84869 13.643 9.14166L11.686 10.8291C11.3462 11.1221 10.854 10.9463 10.854 10.501V9.34087C9.74073 9.669 8.92042 10.6885 8.92042 11.9072C8.92042 13.3955 10.1157 14.5908 11.604 14.5908C13.0922 14.5908 14.2876 13.3955 14.2876 11.9072C14.2876 11.4971 14.6274 11.1572 15.0376 11.1572C15.436 11.1572 15.7758 11.4971 15.7758 11.9072C15.7758 14.2275 13.9243 16.1025 11.604 16.1025C9.2837 16.1025 7.43213 14.2275 7.43213 11.8838Z" fill="white"/>
</g>
<defs>
<clipPath id="clip0_2207_7982">
<rect width="23.2852" height="21.8789" fill="white" transform="translate(0.0610352 0.0126953)"/>
</clipPath>
</defs>
</svg>
