<svg width="30" height="23" viewBox="0 0 30 23" fill="none" xmlns="http://www.w3.org/2000/svg">
<g clip-path="url(#clip0_2207_8793)">
<path d="M23.236 20.3799C26.7751 20.3799 29.5407 17.79 29.5407 14.5674C29.5407 12.1065 28.1228 9.97364 25.8376 9.0127C25.861 3.78614 22.0993 0.0126953 17.3064 0.0126953C14.1306 0.0126953 11.8689 1.71192 10.4626 3.7627C7.57983 2.91895 4.43921 5.11036 4.38061 8.39161C1.73217 8.81348 0.079834 11.1807 0.079834 14.04C0.079834 17.4854 3.09155 20.3799 7.09936 20.3799H23.236Z" fill="black" fill-opacity="0.85"/>
<path d="M15.0564 16.5831C12.361 16.5831 10.1931 14.4034 10.1931 11.6964C10.1931 11.298 10.5329 10.9581 10.9431 10.9581C11.365 10.9581 11.7048 11.298 11.7048 11.6964C11.7048 13.5714 13.1931 15.0831 15.0564 15.0831C16.9314 15.0831 18.4196 13.5714 18.4196 11.6964C18.4196 10.1378 17.365 8.84869 15.9353 8.46197V9.89166C15.9353 10.4073 15.361 10.6183 14.9626 10.2667L12.7243 8.33306C12.3493 8.00494 12.361 7.51275 12.7243 7.20806L14.9626 5.29791C15.361 4.96978 15.9353 5.169 15.9353 5.69634V6.93853C18.1032 7.27837 19.9314 9.23541 19.9314 11.6612C19.9314 14.4034 17.7634 16.5831 15.0564 16.5831Z" fill="white"/>
</g>
<defs>
<clipPath id="clip0_2207_8793">
<rect width="29.4609" height="22.2773" fill="white" transform="translate(0.079834 0.0126953)"/>
</clipPath>
</defs>
</svg>
