<svg width="24" height="24" viewBox="0 0 24 24" fill="none" xmlns="http://www.w3.org/2000/svg">
<g clip-path="url(#clip0_2207_24115)">
<path d="M11.9594 23.939C18.4985 23.939 23.9125 18.5249 23.9125 11.9858C23.9125 5.4585 18.4868 0.0327148 11.9477 0.0327148C5.42041 0.0327148 0.00634766 5.4585 0.00634766 11.9858C0.00634766 18.5249 5.43213 23.939 11.9594 23.939Z" fill="black" fill-opacity="0.85"/>
<path d="M11.9477 19.1108C11.4555 19.1108 11.1274 18.771 11.1274 18.2905V12.7593L11.268 10.5444L9.06493 13.0054L8.38525 13.7554C8.2329 13.9312 8.0454 14.0015 7.78759 14.0015C7.33056 14.0015 7.01415 13.6733 7.01415 13.1929C7.01415 13.0171 7.1079 12.7593 7.26025 12.6069L11.3383 8.43506C11.5141 8.23584 11.7251 8.15381 11.9477 8.15381C12.1704 8.15381 12.3813 8.25928 12.5571 8.43506L16.6469 12.5952C16.8461 12.771 16.9047 12.9819 16.9047 13.2046C16.9047 13.6499 16.5883 14.0015 16.143 14.0015C15.9086 14.0015 15.6977 13.9312 15.5336 13.7554L14.7954 13.0054L12.6274 10.5562L12.7563 12.7593V18.2905C12.7563 18.771 12.4047 19.1108 11.9477 19.1108ZM7.42431 7.22803C6.95556 7.22803 6.61572 6.88819 6.61572 6.43116C6.61572 5.95069 6.95556 5.59912 7.42431 5.59912H16.5063C16.9751 5.59912 17.3032 5.95069 17.3032 6.43116C17.3032 6.88819 16.9751 7.22803 16.5063 7.22803H7.42431Z" fill="white"/>
</g>
<defs>
<clipPath id="clip0_2207_24115">
<rect width="23.9062" height="23.918" fill="white" transform="translate(0.00634766 0.0209961)"/>
</clipPath>
</defs>
</svg>
