<svg width="33" height="25" viewBox="0 0 33 25" fill="none" xmlns="http://www.w3.org/2000/svg">
<g clip-path="url(#clip0_2207_1469)">
<path d="M11.5102 23.1319C12.3071 23.1319 12.8813 22.5459 12.8813 21.7608V3.06934C12.8813 2.28418 12.3071 1.63965 11.4868 1.63965C10.9126 1.63965 10.5258 1.88574 9.90479 2.47168L0.646973 11.1202C0.225097 11.5186 0.0610352 11.9639 0.0610352 12.3858C0.0610352 12.7842 0.225097 13.2413 0.646973 13.6397L9.90479 22.3702C10.4672 22.8975 10.936 23.1319 11.5102 23.1319Z" fill="black" fill-opacity="0.85"/>
<path d="M17.2758 24.7256C18.9399 24.7256 20.2407 23.4248 20.2407 21.7491V18.9014C23.6391 19.0655 25.479 20.0733 27.0258 23.0264C27.6938 24.2334 28.7251 24.7256 29.8735 24.7256C31.3969 24.7256 32.686 23.4366 32.686 21.5498C32.686 12.6202 28.8188 6.47949 20.2407 5.94043V3.05762C20.2407 1.39355 18.9399 0.0224609 17.2524 0.0224609C16.268 0.0224609 15.518 0.385742 14.5688 1.28808L5.31103 9.94824C4.56103 10.6514 4.22119 11.5303 4.22119 12.3741C4.22119 13.2061 4.56103 14.085 5.32275 14.7881L14.5688 23.5186C15.5298 24.4092 16.3852 24.7256 17.2758 24.7256Z" fill="white"/>
<path d="M17.2758 23.1202C18.061 23.1202 18.6469 22.5342 18.6469 21.7491V17.2725H18.9868C23.5219 17.2725 26.393 18.4209 28.4321 22.253C28.8422 23.003 29.3813 23.1202 29.8735 23.1202C30.5063 23.1202 31.0805 22.5577 31.0805 21.5498C31.0805 12.8897 27.4126 7.4873 18.9868 7.4873H18.6469V3.05762C18.6469 2.27246 18.061 1.62793 17.2524 1.62793C16.6665 1.62793 16.2798 1.87402 15.6587 2.45996L6.41259 11.1084C5.99072 11.5069 5.81494 11.9522 5.81494 12.3741C5.81494 12.7725 5.99072 13.2295 6.41259 13.628L15.6587 22.3584C16.2212 22.8858 16.6899 23.1202 17.2758 23.1202Z" fill="black" fill-opacity="0.85"/>
</g>
<defs>
<clipPath id="clip0_2207_1469">
<rect width="32.625" height="24.7383" fill="white" transform="translate(0.0610352 0.0224609)"/>
</clipPath>
</defs>
</svg>
