<svg width="24" height="24" viewBox="0 0 24 24" fill="none" xmlns="http://www.w3.org/2000/svg">
<g clip-path="url(#clip0_2207_1458)">
<path d="M12.0412 23.9405C18.5803 23.9405 23.9943 18.5264 23.9943 11.9873C23.9943 5.45996 18.5686 0.0341797 12.0295 0.0341797C5.50219 0.0341797 0.0881348 5.45996 0.0881348 11.9873C0.0881348 18.5264 5.51392 23.9405 12.0412 23.9405Z" fill="black" fill-opacity="0.85"/>
<path d="M9.3108 16.9795C9.00611 16.9795 8.78345 16.8389 8.46705 16.5577L3.47486 11.8702C3.24048 11.6358 3.17017 11.4131 3.17017 11.2022C3.17017 10.9678 3.24048 10.7569 3.47486 10.5225L8.46705 5.85841C8.79517 5.55372 8.99439 5.41309 9.29908 5.41309C9.75611 5.41309 10.0491 5.69435 10.0491 5.98731V6.28028L6.07642 9.92481C5.67798 10.2764 5.47876 10.7334 5.47876 11.2022C5.47876 11.6709 5.6897 12.1163 6.07642 12.4678L10.0491 16.1358V16.4287C10.0491 16.71 9.75611 16.9795 9.3108 16.9795ZM12.4983 16.9795C12.217 16.9795 11.9592 16.8389 11.6545 16.5577L6.67408 11.8702C6.42798 11.6241 6.35767 11.4131 6.35767 11.2022C6.35767 10.9678 6.42798 10.7686 6.67408 10.5225L11.6545 5.85841C11.9826 5.55372 12.1936 5.41309 12.4865 5.41309C12.9201 5.41309 13.2365 5.77638 13.2365 6.18653V8.58888H13.424C17.9358 8.58888 19.9279 11.46 19.9279 16.1358C19.9279 16.6748 19.6467 16.9795 19.2951 16.9795C19.0139 16.9795 18.7209 16.8975 18.51 16.5108C17.4436 14.4483 15.8733 13.8272 13.424 13.8272H13.2365V16.2295C13.2365 16.6748 12.9201 16.9795 12.4983 16.9795Z" fill="white"/>
</g>
<defs>
<clipPath id="clip0_2207_1458">
<rect width="23.9062" height="23.918" fill="white" transform="translate(0.0881348 0.0224609)"/>
</clipPath>
</defs>
</svg>
