<svg width="22" height="22" viewBox="0 0 22 22" fill="none" xmlns="http://www.w3.org/2000/svg">
<g clip-path="url(#clip0_2207_24741)">
<path d="M3.68799 21.6228H17.9028C20.3638 21.6228 21.5825 20.404 21.5825 17.9899V3.6814C21.5825 1.26734 20.3638 0.048584 17.9028 0.048584H3.68799C1.23877 0.048584 0.00830078 1.25562 0.00830078 3.6814V17.9899C0.00830078 20.4157 1.23877 21.6228 3.68799 21.6228Z" fill="black" fill-opacity="0.85"/>
<path d="M6.59425 14.5563C6.02003 14.5563 5.77393 13.8649 6.07862 13.3493L10.145 6.45873C10.4497 5.96655 11.1528 5.93139 11.4575 6.45873L15.5122 13.3493C15.8403 13.9118 15.5825 14.5563 15.0083 14.5563H6.59425Z" fill="white"/>
</g>
<defs>
<clipPath id="clip0_2207_24741">
<rect width="21.5742" height="21.5977" fill="white" transform="translate(0.00830078 0.0251465)"/>
</clipPath>
</defs>
</svg>
