<svg width="22" height="22" viewBox="0 0 22 22" fill="none" xmlns="http://www.w3.org/2000/svg">
<g clip-path="url(#clip0_2207_24017)">
<path d="M3.76367 21.5952H17.9785C20.4395 21.5952 21.6582 20.3765 21.6582 17.9624V3.65381C21.6582 1.23975 20.4395 0.0209961 17.9785 0.0209961H3.76367C1.31445 0.0209961 0.0839844 1.22803 0.0839844 3.65381V17.9624C0.0839844 20.3882 1.31445 21.5952 3.76367 21.5952Z" fill="black" fill-opacity="0.85"/>
<path d="M9.64649 16.6382C6.85743 16.6382 5.01758 14.7398 5.01758 11.9038V10.3335C5.01758 9.77099 5.36915 9.39599 5.89649 9.39599C6.41211 9.39599 6.76368 9.75927 6.76368 10.3101V11.9038C6.76368 13.6851 7.92383 14.8921 9.64649 14.8921C11.252 14.8921 12.3184 13.7085 12.3184 11.9155V8.49365L12.377 7.29833L11.9785 7.84911L10.6074 9.26708C10.4434 9.44287 10.2207 9.53661 9.9629 9.53661C9.45899 9.53661 9.07227 9.16161 9.07227 8.68115C9.07227 8.41161 9.1543 8.20068 9.33008 8.03661L12.459 4.9663C12.6817 4.74365 12.9395 4.6499 13.209 4.6499C13.4668 4.6499 13.7246 4.75537 13.9473 4.9663L17.0528 8.0249C17.2285 8.20068 17.3223 8.3999 17.3223 8.66943C17.3223 9.16161 16.9238 9.53661 16.4199 9.53661C16.1738 9.53661 15.9512 9.44287 15.7871 9.26708L14.6387 8.08349L14.0176 7.28661L14.0645 8.49365V11.9155C14.0645 14.7515 12.3067 16.6382 9.64649 16.6382Z" fill="white"/>
</g>
<defs>
<clipPath id="clip0_2207_24017">
<rect width="21.5742" height="21.6211" fill="white" transform="translate(0.0839844 0.0209961)"/>
</clipPath>
</defs>
</svg>
