<svg width="19" height="20" viewBox="0 0 19 20" fill="none" xmlns="http://www.w3.org/2000/svg">
<g clip-path="url(#clip0_2207_24718)">
<path d="M18.739 17.7426C18.739 17.2738 18.5281 16.8988 18.282 16.4066L10.9812 1.35974C10.489 0.351929 10.032 0.0355225 9.41089 0.0355225C8.78979 0.0355225 8.34448 0.351929 7.85229 1.35974L0.539794 16.4066C0.30542 16.9105 0.0944824 17.2855 0.0944824 17.7543C0.0944824 18.6215 0.750732 19.1605 1.77026 19.1605L17.0515 19.1488C18.0711 19.1488 18.739 18.6097 18.739 17.7426ZM16.5007 17.1566C16.5007 17.2269 16.4539 17.2738 16.3601 17.2738H2.46167C2.36792 17.2738 2.33276 17.2269 2.33276 17.1566C2.33276 17.1097 2.3562 17.0629 2.37964 17.016L9.28198 2.66052C9.31714 2.60192 9.35229 2.55505 9.41089 2.55505C9.4812 2.55505 9.51636 2.60192 9.55151 2.66052L16.4539 17.016C16.4773 17.0629 16.5007 17.1097 16.5007 17.1566Z" fill="black" fill-opacity="0.85"/>
</g>
<defs>
<clipPath id="clip0_2207_24718">
<rect width="18.6445" height="19.1367" fill="white" transform="translate(0.0944824 0.0238037)"/>
</clipPath>
</defs>
</svg>
