<svg width="22" height="22" viewBox="0 0 22 22" fill="none" xmlns="http://www.w3.org/2000/svg">
<g clip-path="url(#clip0_2207_24517)">
<path d="M3.77832 21.6159H17.9931C20.4541 21.6159 21.6728 20.3971 21.6728 17.983V3.67444C21.6728 1.26038 20.4541 0.041626 17.9931 0.041626H3.77832C1.3291 0.041626 0.0986328 1.24866 0.0986328 3.67444V17.983C0.0986328 20.4088 1.3291 21.6159 3.77832 21.6159Z" fill="black" fill-opacity="0.85"/>
<path d="M16.2236 10.6588H12.04C11.4072 10.6588 11.0439 10.3776 11.0439 9.65102V5.44399C11.0439 4.96352 11.4189 4.58852 11.8994 4.58852C12.3681 4.58852 12.7548 4.96352 12.7548 5.44399V6.02993L12.6259 7.94009L15.7783 4.67055C16.1298 4.29555 16.7041 4.29555 17.0556 4.65883C17.4189 5.0104 17.3955 5.58462 17.0439 5.9479L13.7861 9.06509L15.6377 8.9479H16.2236C16.7158 8.9479 17.0908 9.3229 17.0908 9.79165C17.0908 10.2721 16.7158 10.6588 16.2236 10.6588ZM9.88371 17.0221C9.41496 17.0221 9.03996 16.6471 9.03996 16.1666V15.5807L9.15714 13.6705L6.0048 16.9401C5.65324 17.3151 5.07902 17.3151 4.72746 16.9518C4.36417 16.6002 4.38761 16.0143 4.73917 15.6627L7.99699 12.5455L6.14543 12.6627H5.55949C5.07902 12.6627 4.6923 12.2877 4.6923 11.819C4.6923 11.3268 5.07902 10.9518 5.55949 10.9518H9.74308C10.3759 10.9518 10.7509 11.233 10.7509 11.9479V16.1666C10.7509 16.6471 10.3642 17.0221 9.88371 17.0221Z" fill="white"/>
</g>
<defs>
<clipPath id="clip0_2207_24517">
<rect width="21.5742" height="21.5977" fill="white" transform="translate(0.0986328 0.0181885)"/>
</clipPath>
</defs>
</svg>
