<svg width="24" height="24" viewBox="0 0 24 24" fill="none" xmlns="http://www.w3.org/2000/svg">
<g clip-path="url(#clip0_2207_23417)">
<path d="M11.9531 23.923C18.4922 23.923 23.9062 18.4973 23.9062 11.9699C23.9062 5.43091 18.4805 0.0168457 11.9414 0.0168457C5.41406 0.0168457 0 5.43091 0 11.9699C0 18.4973 5.42578 23.923 11.9531 23.923Z" fill="black" fill-opacity="0.85"/>
<path d="M5.75391 11.9583C5.75391 11.6888 5.84766 11.5013 6.09375 11.2552L10.1719 7.15357C10.3359 6.98951 10.5469 6.90747 10.8047 6.90747C11.3086 6.90747 11.6836 7.28247 11.6836 7.78638C11.6836 8.04419 11.5664 8.26685 11.4141 8.44263L9.91406 9.93091L8.46094 11.1497L11.0156 11.0442H17.2852C17.8125 11.0442 18.1992 11.4191 18.1992 11.9583C18.1992 12.4857 17.8242 12.8607 17.2852 12.8607H11.0156L8.44922 12.7669L9.91406 13.9857L11.4141 15.4739C11.5781 15.6379 11.6836 15.8607 11.6836 16.1185C11.6836 16.6224 11.3086 17.0091 10.8047 17.0091C10.5469 17.0091 10.3359 16.9152 10.1719 16.7513L6.09375 12.6614C5.87109 12.4388 5.75391 12.2277 5.75391 11.9583Z" fill="white"/>
</g>
<defs>
<clipPath id="clip0_2207_23417">
<rect width="23.9062" height="23.918" fill="white" transform="translate(0 0.0168457)"/>
</clipPath>
</defs>
</svg>
