<svg width="21" height="19" viewBox="0 0 21 19" fill="none" xmlns="http://www.w3.org/2000/svg">
<g clip-path="url(#clip0_2207_24214)">
<path d="M0.0419922 8.94654C0.0419922 9.55591 0.463867 9.98951 1.07324 9.98951H12.9209L15.4287 9.90747L11.5732 13.423L8.9834 16.048C8.78418 16.2473 8.69043 16.5285 8.69043 16.8098C8.69043 17.3957 9.13574 17.8176 9.70996 17.8176C10.0029 17.8176 10.2608 17.7121 10.4951 17.4777L18.2647 9.73169C18.499 9.50904 18.6279 9.22779 18.6279 8.94654C18.6279 8.65357 18.499 8.38404 18.2647 8.14966L10.4951 0.403565C10.2608 0.16919 10.0029 0.0520019 9.70996 0.0520019C9.13574 0.0520019 8.69043 0.485596 8.69043 1.07154C8.69043 1.35279 8.78418 1.63404 8.9834 1.82154L11.5732 4.45826L15.417 7.9856L12.9209 7.89185H1.07324C0.463867 7.89185 0.0419922 8.32544 0.0419922 8.94654ZM18.5928 16.8566C18.5928 17.4543 19.0264 17.8645 19.6475 17.8645C20.2568 17.8645 20.6904 17.4543 20.6904 16.8566V1.0481C20.6904 0.438721 20.2568 0.0168457 19.6475 0.0168457C19.0264 0.0168457 18.5928 0.438721 18.5928 1.0481V16.8566Z" fill="black" fill-opacity="0.85"/>
</g>
<defs>
<clipPath id="clip0_2207_24214">
<rect width="20.6484" height="18.293" fill="white" transform="translate(0.0419922 0.0168457)"/>
</clipPath>
</defs>
</svg>
