<svg width="24" height="24" viewBox="0 0 24 24" fill="none" xmlns="http://www.w3.org/2000/svg">
<g clip-path="url(#clip0_2207_24190)">
<path d="M11.9951 23.9189C18.5342 23.9189 23.9482 18.4932 23.9482 11.9658C23.9482 5.42676 18.5225 0.0126953 11.9834 0.0126953C5.45605 0.0126953 0.0419922 5.42676 0.0419922 11.9658C0.0419922 18.4932 5.46777 23.9189 11.9951 23.9189ZM11.9951 21.9268C6.46387 21.9268 2.0459 17.4971 2.0459 11.9658C2.0459 6.43458 6.45215 2.00489 11.9834 2.00489C17.5147 2.00489 21.9561 6.43458 21.9561 11.9658C21.9561 17.4971 17.5264 21.9268 11.9951 21.9268Z" fill="black" fill-opacity="0.85"/>
<path d="M7.06152 17.1338C7.50683 17.1338 7.83496 16.8174 7.83496 16.3604V7.55957C7.83496 7.10253 7.50683 6.78613 7.06152 6.78613C6.60449 6.78613 6.26465 7.10253 6.26465 7.55957V16.3604C6.26465 16.8174 6.60449 17.1338 7.06152 17.1338ZM19.3545 11.9775C19.3545 11.5205 19.0147 11.1924 18.5693 11.1924H13.1904L11.0459 11.3213L13.4248 9.21191L14.1631 8.48535C14.3272 8.333 14.3975 8.12207 14.3975 7.91113C14.3975 7.46581 14.0576 7.16113 13.624 7.16113C13.4131 7.16113 13.2139 7.23144 13.0498 7.40722L9.00683 11.3799C8.83105 11.5557 8.7373 11.7549 8.7373 11.9775C8.7373 12.1885 8.81933 12.3994 9.00683 12.5635L13.0381 16.501C13.1904 16.6533 13.4365 16.7588 13.6358 16.7588C14.0811 16.7588 14.3975 16.4541 14.3975 15.9971C14.3975 15.7627 14.3272 15.5752 14.1631 15.4346L13.4131 14.7432L11.0342 12.6338L13.1904 12.7627H18.5693C19.0147 12.7627 19.3545 12.4463 19.3545 11.9775Z" fill="black" fill-opacity="0.85"/>
</g>
<defs>
<clipPath id="clip0_2207_24190">
<rect width="23.9062" height="23.918" fill="white" transform="translate(0.0419922 0.0126953)"/>
</clipPath>
</defs>
</svg>
