<svg width="22" height="26" viewBox="0 0 22 26" fill="none" xmlns="http://www.w3.org/2000/svg">
<g clip-path="url(#clip0_2207_1329)">
<path d="M10.7607 25.2998C11.1591 25.2998 11.6044 25.1475 12.0263 24.7022L20.6748 15.4561C21.2607 14.835 21.5185 14.4483 21.5185 13.8741C21.5185 13.0537 20.8623 12.4678 20.0771 12.4678H15.6474V2.96387C15.6474 1.10058 14.5927 0.0341797 12.7763 0.0341797H8.7334C6.91699 0.0341797 5.86231 1.10058 5.86231 2.96387V12.4678H1.38574C0.600586 12.4678 0.0146484 13.0537 0.0146484 13.8506C0.0146484 14.4248 0.249023 14.8936 0.776367 15.4561L9.50684 24.7022C9.92871 25.1475 10.374 25.2998 10.7607 25.2998ZM10.7607 23.1905C10.6904 23.1905 10.6318 23.167 10.538 23.0733L2.63965 14.7178C2.56934 14.6475 2.53418 14.5889 2.53418 14.5186C2.53418 14.4248 2.60449 14.3545 2.70996 14.3545H7.24512C7.51465 14.3545 7.63184 14.2373 7.63184 13.9678V2.9873C7.63184 2.2373 8.06543 1.80371 8.82715 1.80371H12.6943C13.456 1.80371 13.8779 2.2373 13.8779 2.9873V13.9678C13.8779 14.2373 13.9951 14.3545 14.2646 14.3545H18.9169C19.0224 14.3545 19.081 14.4248 19.081 14.5186C19.081 14.6006 19.0458 14.6709 18.9873 14.7295L10.9834 23.0733C10.9013 23.1553 10.831 23.1905 10.7607 23.1905Z" fill="black" fill-opacity="0.85"/>
</g>
<defs>
<clipPath id="clip0_2207_1329">
<rect width="21.5039" height="25.2773" fill="white" transform="translate(0.0146484 0.0224609)"/>
</clipPath>
</defs>
</svg>
