<svg width="19" height="23" viewBox="0 0 19 23" fill="none" xmlns="http://www.w3.org/2000/svg">
<g clip-path="url(#clip0_2207_23884)">
<path d="M15.8967 0.0168457C10.4826 0.0168457 7.92797 2.1731 7.92797 7.62232V15.7434L8.01001 18.9191L5.67797 16.3527L1.83422 12.509C1.65844 12.3215 1.37719 12.2277 1.09594 12.2277C0.51001 12.2277 0.0881348 12.673 0.0881348 13.2473C0.0881348 13.5285 0.193604 13.7746 0.41626 14.009L8.18579 21.802C8.40844 22.0363 8.67797 22.1535 8.97094 22.1535C9.26391 22.1535 9.53344 22.0363 9.7561 21.802L17.5373 14.009C17.76 13.7746 17.8537 13.5285 17.8537 13.2473C17.8537 12.673 17.4319 12.2277 16.8459 12.2277C16.5647 12.2277 16.2951 12.3215 16.1076 12.509L12.2639 16.3527L9.92017 18.9309L10.0139 15.7434L10.0022 7.72779C9.99047 3.4856 11.842 2.06763 16.0022 2.06763C16.5529 2.06763 16.9279 2.09107 17.3381 2.09107C17.9358 2.09107 18.3811 1.70435 18.3811 1.09497C18.3811 0.497315 17.9592 0.192627 17.5022 0.0988769C17.1389 0.0402832 16.5764 0.0168457 15.8967 0.0168457Z" fill="black" fill-opacity="0.85"/>
</g>
<defs>
<clipPath id="clip0_2207_23884">
<rect width="18.293" height="22.1367" fill="white" transform="translate(0.0881348 0.0168457)"/>
</clipPath>
</defs>
</svg>
