<svg width="29" height="22" viewBox="0 0 29 22" fill="none" xmlns="http://www.w3.org/2000/svg">
<g clip-path="url(#clip0_2207_1485)">
<path d="M2.91333 21.4574H9.97974C12.0071 21.4574 12.8743 20.6136 12.8743 18.6215V15.9496H15.886V20.1566C15.886 20.9418 16.4602 21.5277 17.2571 21.5277C17.8313 21.5277 18.3 21.2933 18.8626 20.766L28.1086 12.0355C28.5657 11.6136 28.7063 11.1683 28.7063 10.7816C28.7063 10.3832 28.5657 9.93786 28.1086 9.51599L18.8626 0.867554C18.2415 0.281616 17.8547 0.0238037 17.2805 0.0238037C16.4602 0.0238037 15.886 0.680054 15.886 1.46521V6.01208H8.28052C6.25318 6.01208 5.38599 6.85583 5.38599 8.84802V11.2972H2.91333C0.885987 11.2972 0.0187988 12.1293 0.0187988 14.1215V18.6215C0.0187988 20.6136 0.885987 21.4574 2.91333 21.4574ZM3.05396 19.6176C2.28052 19.6176 1.90552 19.1957 1.90552 18.3402V14.4027C1.90552 13.5472 2.28052 13.1371 3.05396 13.1371H5.40942V13.6996C5.40942 14.4144 5.63208 14.93 6.28833 15.3402L10.9876 18.2113V18.3402C10.9876 19.1957 10.6126 19.6176 9.83911 19.6176H3.05396ZM17.9368 19.0082C17.8313 19.0082 17.7727 18.9379 17.7727 18.8324V14.2972C17.7727 14.0277 17.6438 13.9105 17.3743 13.9105H8.42114C7.64771 13.9105 7.27271 13.4886 7.27271 12.6332V8.94177C7.27271 8.07458 7.64771 7.66442 8.42114 7.66442H17.3743C17.6438 7.66442 17.7727 7.54724 17.7727 7.27771V2.62536C17.7727 2.53161 17.8313 2.4613 17.9368 2.4613C18.0071 2.4613 18.0774 2.50818 18.136 2.55505L26.4797 10.559C26.5735 10.641 26.6086 10.7113 26.6086 10.7816C26.6086 10.8519 26.5735 10.9105 26.4797 11.0043L18.136 18.9027C18.0657 18.973 17.9954 19.0082 17.9368 19.0082Z" fill="black" fill-opacity="0.85"/>
</g>
<defs>
<clipPath id="clip0_2207_1485">
<rect width="28.6875" height="21.5273" fill="white" transform="translate(0.0187988 0.0238037)"/>
</clipPath>
</defs>
</svg>
