<svg width="22" height="22" viewBox="0 0 22 22" fill="none" xmlns="http://www.w3.org/2000/svg">
<g clip-path="url(#clip0_2207_23674)">
<path d="M3.76782 21.6119H17.9826C20.4436 21.6119 21.6623 20.3931 21.6623 17.979V3.67041C21.6623 1.25635 20.4436 0.0375977 17.9826 0.0375977H3.76782C1.3186 0.0375977 0.0881348 1.24463 0.0881348 3.67041V17.979C0.0881348 20.4048 1.3186 21.6119 3.76782 21.6119ZM3.79125 19.7251C2.61938 19.7251 1.97485 19.104 1.97485 17.8853V3.76416C1.97485 2.54541 2.61938 1.92432 3.79125 1.92432H17.9592C19.1193 1.92432 19.7756 2.54541 19.7756 3.76416V17.8853C19.7756 19.104 19.1193 19.7251 17.9592 19.7251H3.79125Z" fill="black" fill-opacity="0.85"/>
<path d="M7.20142 7.90088C6.6858 7.90088 6.34595 8.2876 6.34595 8.83838V14.3697C6.34595 15.0611 6.72095 15.3306 7.31861 15.3306H12.8733C13.424 15.3306 13.7756 14.9908 13.7756 14.4751C13.7756 13.9595 13.4123 13.6197 12.8498 13.6197H10.717L8.98267 13.8072L10.8108 12.0962L15.135 7.78369C15.299 7.61963 15.4162 7.38525 15.4162 7.15088C15.4162 6.62354 15.0647 6.28369 14.549 6.28369C14.2678 6.28369 14.0569 6.38916 13.8811 6.55322L9.56861 10.8658L7.88111 12.6704L8.05689 10.8423V8.81494C8.05689 8.25244 7.71705 7.90088 7.20142 7.90088Z" fill="black" fill-opacity="0.85"/>
</g>
<defs>
<clipPath id="clip0_2207_23674">
<rect width="21.5742" height="21.5977" fill="white" transform="translate(0.0881348 0.0141602)"/>
</clipPath>
</defs>
</svg>
