<svg width="24" height="24" viewBox="0 0 24 24" fill="none" xmlns="http://www.w3.org/2000/svg">
<g clip-path="url(#clip0_2207_1306)">
<path d="M11.9804 23.9405C18.5195 23.9405 23.9335 18.5264 23.9335 11.9873C23.9335 5.45996 18.5078 0.0341797 11.9687 0.0341797C5.4414 0.0341797 0.0273438 5.45996 0.0273438 11.9873C0.0273438 18.5264 5.45312 23.9405 11.9804 23.9405Z" fill="black" fill-opacity="0.85"/>
<path d="M19.3164 11.9873C19.3164 12.1983 19.2343 12.4795 18.9882 12.7139L13.6211 17.7647C13.3046 18.0577 13.0234 18.1983 12.6835 18.1983C12.2382 18.1983 11.8984 17.8819 11.8984 17.4131V14.6709H6.27343C5.28906 14.6709 4.71484 14.1084 4.71484 13.1475V10.8389C4.71484 9.87793 5.28906 9.31543 6.27343 9.31543H11.8984V6.6084C11.8984 6.15137 12.2382 5.77637 12.7187 5.77637C13.0351 5.77637 13.2695 5.91699 13.6211 6.25684L18.9882 11.2491C19.2343 11.5069 19.3164 11.7647 19.3164 11.9873Z" fill="white"/>
</g>
<defs>
<clipPath id="clip0_2207_1306">
<rect width="23.9062" height="23.918" fill="white" transform="translate(0.0273438 0.0224609)"/>
</clipPath>
</defs>
</svg>
