<svg width="22" height="22" viewBox="0 0 22 22" fill="none" xmlns="http://www.w3.org/2000/svg">
<g clip-path="url(#clip0_2207_23602)">
<path d="M3.74683 21.6159H17.9616C20.4226 21.6159 21.6413 20.3971 21.6413 17.983V3.67444C21.6413 1.26038 20.4226 0.041626 17.9616 0.041626H3.74683C1.29761 0.041626 0.0671387 1.24866 0.0671387 3.67444V17.983C0.0671387 20.4088 1.29761 21.6159 3.74683 21.6159ZM3.77026 19.7291C2.59839 19.7291 1.95386 19.108 1.95386 17.8893V3.76819C1.95386 2.54944 2.59839 1.92835 3.77026 1.92835H17.9382C19.0983 1.92835 19.7546 2.54944 19.7546 3.76819V17.8893C19.7546 19.108 19.0983 19.7291 17.9382 19.7291H3.77026Z" fill="black" fill-opacity="0.85"/>
<path d="M7.18042 13.7174C7.69605 13.7174 8.03589 13.3541 8.03589 12.8034V10.776L7.86011 8.94788L9.54761 10.7526L13.8601 15.0651C14.0359 15.2291 14.2468 15.3346 14.528 15.3346C15.0437 15.3346 15.3952 14.9948 15.3952 14.4674C15.3952 14.233 15.278 13.9987 15.114 13.8346L10.7898 9.51038L8.96167 7.81116L10.696 7.99866H12.8288C13.3913 7.99866 13.7546 7.65881 13.7546 7.14319C13.7546 6.62757 13.403 6.28772 12.8523 6.28772H7.29761C6.69995 6.28772 6.32495 6.55725 6.32495 7.24866V12.7799C6.32495 13.319 6.6648 13.7174 7.18042 13.7174Z" fill="black" fill-opacity="0.85"/>
</g>
<defs>
<clipPath id="clip0_2207_23602">
<rect width="21.5742" height="21.5977" fill="white" transform="translate(0.0671387 0.0181885)"/>
</clipPath>
</defs>
</svg>
