<svg width="28" height="22" viewBox="0 0 28 22" fill="none" xmlns="http://www.w3.org/2000/svg">
<g clip-path="url(#clip0_2207_9844)">
<path d="M3.75537 21.5939H24.0288C26.4898 21.5939 27.7085 20.3869 27.7085 17.9728V3.65246C27.7085 1.2384 26.4898 0.0196533 24.0288 0.0196533H3.75537C1.30615 0.0196533 0.0756836 1.2384 0.0756836 3.65246V17.9728C0.0756836 20.3869 1.30615 21.5939 3.75537 21.5939Z" fill="black" fill-opacity="0.85"/>
<path d="M4.0249 12.6174C4.0249 12.3947 4.11865 12.1838 4.35302 11.9611L9.45068 6.8634L10.3765 6.00793L7.41162 6.12512H6.22802C5.72412 6.12512 5.3374 5.77356 5.3374 5.26965C5.3374 4.75403 5.70068 4.41418 6.22802 4.41418H12.2163C12.7554 4.41418 13.1187 4.76574 13.1187 5.29309V11.1174C13.1187 11.6564 12.7671 12.008 12.2632 12.008C11.7476 12.008 11.4077 11.6564 11.4077 11.1174V9.94544L11.5132 7.12121L10.6695 8.05871L5.56006 13.1564C5.32568 13.3908 5.11474 13.4845 4.91552 13.4845C4.43506 13.4845 4.0249 13.0744 4.0249 12.6174ZM23.9234 9.01965C23.9234 9.24231 23.8413 9.45324 23.6069 9.6759L18.4976 14.7853L17.5835 15.6291L20.5484 15.5236H21.7319C22.2241 15.5236 22.6226 15.8635 22.6226 16.3674C22.6226 16.883 22.2476 17.2345 21.7319 17.2345H15.7437C15.2046 17.2345 14.8413 16.8713 14.8413 16.3439V10.5197C14.8413 9.98059 15.1929 9.62903 15.6968 9.62903C16.2124 9.62903 16.5523 9.98059 16.5523 10.5197V11.6916L16.4468 14.5158L17.2905 13.5783L22.3882 8.4806C22.6343 8.24622 22.8452 8.15246 23.0445 8.15246C23.5249 8.15246 23.9234 8.56262 23.9234 9.01965Z" fill="white"/>
</g>
<defs>
<clipPath id="clip0_2207_9844">
<rect width="27.6328" height="21.5742" fill="white" transform="translate(0.0756836 0.0196533)"/>
</clipPath>
</defs>
</svg>
