<svg width="28" height="22" viewBox="0 0 28 22" fill="none" xmlns="http://www.w3.org/2000/svg">
<g clip-path="url(#clip0_2207_7172)">
<path d="M3.70484 21.5896H23.9782C26.4392 21.5896 27.6579 20.3826 27.6579 17.9685V3.64819C27.6579 1.23413 26.4392 0.0153809 23.9782 0.0153809H3.70484C1.25562 0.0153809 0.0251465 1.23413 0.0251465 3.64819V17.9685C0.0251465 20.3826 1.25562 21.5896 3.70484 21.5896ZM3.72827 19.7029C2.5564 19.7029 1.91187 19.0818 1.91187 17.8631V3.75366C1.91187 2.53491 2.5564 1.9021 3.72827 1.9021H23.9548C25.1149 1.9021 25.7712 2.53491 25.7712 3.75366V17.8631C25.7712 19.0818 25.1149 19.7029 23.9548 19.7029H3.72827Z" fill="black" fill-opacity="0.85"/>
<path d="M11.1345 4.70288C10.6189 4.70288 10.279 5.05444 10.279 5.61694V7.48022L10.4548 9.30835L8.76733 7.50366L5.22826 3.9646C5.0642 3.80054 4.85326 3.69507 4.57202 3.69507C4.04467 3.69507 3.70483 4.04663 3.70483 4.57397C3.70483 4.80835 3.82202 5.031 3.98608 5.19507L7.52514 8.73413L9.35326 10.4451L7.61889 10.2576H5.65014C5.08764 10.2576 4.72436 10.5974 4.72436 11.1131C4.72436 11.6287 5.07592 11.9685 5.6267 11.9685H11.0173C11.6149 11.9685 12.0017 11.699 12.0017 10.9959V5.64038C12.0017 5.0896 11.6501 4.70288 11.1345 4.70288Z" fill="black" fill-opacity="0.85"/>
</g>
<defs>
<clipPath id="clip0_2207_7172">
<rect width="27.6328" height="21.5742" fill="white" transform="translate(0.0251465 0.0153809)"/>
</clipPath>
</defs>
</svg>
