<svg width="24" height="24" viewBox="0 0 24 24" fill="none" xmlns="http://www.w3.org/2000/svg">
<g clip-path="url(#clip0_2207_1363)">
<path d="M12.0454 23.9287C18.5845 23.9287 23.9985 18.503 23.9985 11.9756C23.9985 5.43652 18.5728 0.0224609 12.0337 0.0224609C5.50634 0.0224609 0.0922852 5.43652 0.0922852 11.9756C0.0922852 18.503 5.51807 23.9287 12.0454 23.9287ZM12.0454 21.9366C6.51417 21.9366 2.0962 17.5069 2.0962 11.9756C2.0962 6.44434 6.50244 2.01465 12.0337 2.01465C17.565 2.01465 22.0064 6.44434 22.0064 11.9756C22.0064 17.5069 17.5767 21.9366 12.0454 21.9366Z" fill="black" fill-opacity="0.85"/>
<path d="M10.9439 17.0147C11.3657 17.0147 11.6821 16.6983 11.6821 16.2764V13.8623H11.8696C14.3071 13.8623 15.854 14.4834 16.9439 16.5459C17.1665 16.9444 17.4478 17.0147 17.7173 17.0147C18.0454 17.0147 18.3735 16.7217 18.3735 16.1709C18.3735 11.5069 16.3814 8.62402 11.8696 8.62402H11.6821V6.2334C11.6821 5.81152 11.3657 5.45996 10.9321 5.45996C10.6275 5.45996 10.4282 5.60058 10.1001 5.90527L5.1079 10.5577C4.87353 10.7803 4.7915 11.0264 4.7915 11.2373C4.7915 11.4483 4.87353 11.6944 5.1079 11.917L10.1001 16.6045C10.3931 16.8741 10.6392 17.0147 10.9439 17.0147Z" fill="black" fill-opacity="0.85"/>
</g>
<defs>
<clipPath id="clip0_2207_1363">
<rect width="23.9062" height="23.918" fill="white" transform="translate(0.0922852 0.0224609)"/>
</clipPath>
</defs>
</svg>
