<svg width="24" height="24" viewBox="0 0 24 24" fill="none" xmlns="http://www.w3.org/2000/svg">
<g clip-path="url(#clip0_2207_24580)">
<path d="M12.0288 23.923C18.5679 23.923 23.9819 18.4973 23.9819 11.9699C23.9819 5.43091 18.5562 0.0168457 12.0171 0.0168457C5.48974 0.0168457 0.0756836 5.43091 0.0756836 11.9699C0.0756836 18.4973 5.50146 23.923 12.0288 23.923ZM12.0288 21.9309C6.49756 21.9309 2.07959 17.5012 2.07959 11.9699C2.07959 6.43873 6.48584 2.00904 12.0171 2.00904C17.5484 2.00904 21.9898 6.43873 21.9898 11.9699C21.9898 17.5012 17.5601 21.9309 12.0288 21.9309Z" fill="black" fill-opacity="0.85"/>
<path d="M6.93115 15.6613C6.93115 16.3293 7.27099 16.7277 7.86865 16.716C8.4663 16.7043 8.80615 16.3293 8.80615 15.6613V12.4035C8.80615 11.3371 9.32177 10.8449 10.3296 10.8449H13.3882V12.6848C13.3882 13.4465 14.2437 13.798 14.8882 13.2473L17.6773 10.8215C18.3804 10.2121 18.3804 9.59104 17.6773 8.98166L14.8882 6.5676C14.2437 6.0051 13.3882 6.36838 13.3882 7.11838V8.95823H10.2945C8.02099 8.95823 6.93115 10.048 6.93115 12.3098V15.6613Z" fill="black" fill-opacity="0.85"/>
</g>
<defs>
<clipPath id="clip0_2207_24580">
<rect width="23.9062" height="23.918" fill="white" transform="translate(0.0756836 0.0168457)"/>
</clipPath>
</defs>
</svg>
