<svg width="25" height="19" viewBox="0 0 25 19" fill="none" xmlns="http://www.w3.org/2000/svg">
<g clip-path="url(#clip0_2207_24238)">
<path d="M13.2988 17.781C13.58 17.781 13.8261 17.6873 14.0605 17.4646L21.8535 9.68335C22.0878 9.46069 22.205 9.19116 22.205 8.89819C22.205 8.61694 22.0878 8.34741 21.8535 8.11304L14.0605 0.343506C13.8261 0.12085 13.58 0.0153809 13.2988 0.0153809C12.7246 0.0153809 12.2793 0.448975 12.2793 1.02319C12.2793 1.30444 12.373 1.58569 12.5605 1.77319L15.1855 4.43335L19.791 8.64038L20.0254 7.98413L16.5332 7.85522H1.08789C0.478516 7.85522 0.0566406 8.28882 0.0566406 8.89819C0.0566406 9.50757 0.478516 9.95288 1.08789 9.95288H16.5332L20.0254 9.82397L19.791 9.17944L15.1855 13.3631L12.5605 16.0349C12.373 16.2224 12.2793 16.5037 12.2793 16.7732C12.2793 17.3592 12.7246 17.781 13.2988 17.781ZM23.248 17.781C23.8574 17.781 24.3027 17.3709 24.3027 16.7732V1.05835C24.3027 0.448975 23.8574 0.0153809 23.248 0.0153809C22.6386 0.0153809 22.205 0.448975 22.205 1.05835V16.7732C22.205 17.3709 22.6386 17.781 23.248 17.781Z" fill="black" fill-opacity="0.85"/>
</g>
<defs>
<clipPath id="clip0_2207_24238">
<rect width="24.2461" height="18.2227" fill="white" transform="translate(0.0566406 0.0153809)"/>
</clipPath>
</defs>
</svg>
