<svg width="28" height="22" viewBox="0 0 28 22" fill="none" xmlns="http://www.w3.org/2000/svg">
<g clip-path="url(#clip0_2207_7162)">
<path d="M3.68384 21.5939H23.9573C26.4183 21.5939 27.6369 20.3869 27.6369 17.9728V3.65246C27.6369 1.2384 26.4183 0.0196533 23.9573 0.0196533H3.68384C1.23462 0.0196533 0.00415039 1.2384 0.00415039 3.65246V17.9728C0.00415039 20.3869 1.23462 21.5939 3.68384 21.5939ZM3.70727 19.7072C2.5354 19.7072 1.89087 19.0861 1.89087 17.8674V3.75793C1.89087 2.53918 2.5354 1.90637 3.70727 1.90637H23.9339C25.094 1.90637 25.7502 2.53918 25.7502 3.75793V17.8674C25.7502 19.0861 25.094 19.7072 23.9339 19.7072H3.70727Z" fill="black" fill-opacity="0.85"/>
<path d="M11.1135 16.9181C11.6291 16.9181 11.9807 16.5197 11.9807 15.9806V10.6135C11.9807 9.922 11.5939 9.65247 10.9963 9.65247H5.60571C5.05493 9.65247 4.70337 9.99232 4.70337 10.508C4.70337 11.0236 5.06665 11.3635 5.62915 11.3635H7.5979L9.33227 11.1759L7.50415 12.8752L3.96509 16.4142C3.80103 16.5783 3.68384 16.8127 3.68384 17.047C3.68384 17.5744 4.02368 17.9142 4.55103 17.9142C4.83227 17.9142 5.04321 17.8088 5.20727 17.6447L8.74634 14.1174L10.4338 12.3127L10.258 14.1291V16.0041C10.258 16.5549 10.5979 16.9181 11.1135 16.9181Z" fill="black" fill-opacity="0.85"/>
</g>
<defs>
<clipPath id="clip0_2207_7162">
<rect width="27.6328" height="21.5742" fill="white" transform="translate(0.00415039 0.0196533)"/>
</clipPath>
</defs>
</svg>
