<svg width="20" height="19" viewBox="0 0 20 19" fill="none" xmlns="http://www.w3.org/2000/svg">
<g clip-path="url(#clip0_2207_24634)">
<path d="M17.7302 0.0355225C17.2615 0.0355225 16.8865 0.234742 16.3943 0.480835L1.33569 7.79333C0.339599 8.28552 0.0231934 8.73083 0.0231934 9.35192C0.0231934 9.97302 0.339599 10.43 1.33569 10.9222L16.3943 18.223C16.8982 18.4691 17.2732 18.6683 17.742 18.6683C18.6091 18.6683 19.1365 18.0121 19.1365 16.9926V1.7113C19.1365 0.691773 18.5974 0.0355225 17.7302 0.0355225ZM17.1326 2.26208C17.2029 2.26208 17.2498 2.32068 17.2498 2.40271L17.2615 16.3011C17.2615 16.3949 17.2146 16.4418 17.1443 16.4418C17.0974 16.4418 17.0505 16.4183 17.0037 16.3949L2.64819 9.48083C2.5896 9.45739 2.54272 9.41052 2.54272 9.35192C2.54272 9.29333 2.5896 9.24646 2.64819 9.22302L16.992 2.32068C17.0388 2.28552 17.0857 2.26208 17.1326 2.26208Z" fill="black" fill-opacity="0.85"/>
</g>
<defs>
<clipPath id="clip0_2207_24634">
<rect width="19.1133" height="18.6445" fill="white" transform="translate(0.0231934 0.0238037)"/>
</clipPath>
</defs>
</svg>
