<svg width="29" height="24" viewBox="0 0 29 24" fill="none" xmlns="http://www.w3.org/2000/svg">
<g clip-path="url(#clip0_2207_8939)">
<path d="M3.73218 22.3645H25.1541C27.5916 22.3645 28.8337 21.1457 28.8337 18.7316V6.46216C28.8337 4.0481 27.5916 2.84107 25.1541 2.84107H21.8025C20.8767 2.84107 20.5955 2.65357 20.0681 2.06763L19.1306 1.01294C18.5447 0.368408 17.947 0.0168457 16.74 0.0168457H12.0642C10.8572 0.0168457 10.2595 0.368408 9.67358 1.01294L8.73608 2.06763C8.20874 2.64185 7.91577 2.84107 7.00171 2.84107H3.73218C1.28296 2.84107 0.0524902 4.0481 0.0524902 6.46216V18.7316C0.0524902 21.1457 1.28296 22.3645 3.73218 22.3645Z" fill="black" fill-opacity="0.85"/>
<path d="M6.31031 12.0285L8.18531 9.39185C8.52516 8.9231 9.06422 8.95826 9.36891 9.39185L11.2791 12.0285C11.5837 12.4504 11.4548 12.966 10.9041 12.966H9.67359C10.2009 15.052 12.1345 16.6223 14.4666 16.6223C15.6033 16.6223 16.447 16.259 17.2908 15.591C17.7595 15.2512 18.2869 15.1809 18.697 15.6262C19.1189 16.0598 18.9783 16.6809 18.4158 17.1145C17.3963 17.9582 15.9314 18.4621 14.4666 18.4621C11.1267 18.4621 8.49 16.2238 7.91578 12.966H6.67359C6.12281 12.966 6.01734 12.4504 6.31031 12.0285ZM10.2127 8.1731C9.79078 7.73951 9.93141 7.13013 10.4939 6.69654C11.5134 5.85279 12.9783 5.33716 14.4431 5.33716C17.783 5.33716 20.4197 7.57544 20.9939 10.8332H22.1658C22.7166 10.8332 22.822 11.3488 22.5291 11.7707L20.6541 14.4191C20.3142 14.8879 19.7752 14.8527 19.4587 14.4191L17.5603 11.7707C17.2556 11.3606 17.3845 10.8332 17.9236 10.8332H19.2361C18.7087 8.75904 16.7752 7.18873 14.4431 7.18873C13.3064 7.18873 12.4509 7.52857 11.6189 8.20826C11.1502 8.55982 10.6345 8.61841 10.2127 8.1731Z" fill="white"/>
</g>
<defs>
<clipPath id="clip0_2207_8939">
<rect width="28.7812" height="23.0977" fill="white" transform="translate(0.0524902 0.0168457)"/>
</clipPath>
</defs>
</svg>
