<svg width="26" height="28" viewBox="0 0 26 28" fill="none" xmlns="http://www.w3.org/2000/svg">
<g clip-path="url(#clip0_2207_21999)">
<path d="M25.5294 25.694V16.4479C25.5294 15.0534 24.8966 14.4205 23.5137 14.4205H9.49816C8.46691 14.4205 7.91613 15.194 7.91613 16.0143C7.91613 16.5885 8.17395 17.1276 8.72473 17.5026L22.7286 27.1002C23.1153 27.358 23.5372 27.4635 23.9473 27.4635C24.7911 27.4635 25.5294 26.901 25.5294 25.694ZM23.6192 24.9557C23.6192 25.108 23.4786 25.1315 23.3731 25.0612L10.4942 16.5416C10.377 16.4713 10.4122 16.3424 10.5411 16.3424H23.2794C23.5489 16.3424 23.6192 16.4127 23.6192 16.694V24.9557ZM25.5294 1.78772C25.5294 0.580688 24.7911 0.0181885 23.9473 0.0181885C23.5372 0.0181885 23.1153 0.123657 22.7286 0.381469L8.72473 9.97913C8.17395 10.3541 7.91613 10.8932 7.91613 11.4557C7.91613 12.2877 8.46691 13.0612 9.49816 13.0612H23.5137C24.8966 13.0612 25.5294 12.4284 25.5294 11.0338V1.78772ZM23.6192 2.526V10.7877C23.6192 11.0573 23.5489 11.1393 23.2794 11.1393H10.5411C10.4122 11.1393 10.377 10.9987 10.4942 10.9401L23.3731 2.42053C23.4786 2.3385 23.6192 2.36194 23.6192 2.526Z" fill="black" fill-opacity="0.85"/>
<path d="M5.19738 21.0651H3.68566V6.41664H5.19738C6.02941 6.41664 6.22863 5.76039 5.74816 5.10414L3.59191 2.15101C3.22863 1.64711 2.81848 1.65882 2.4552 2.15101L0.275504 5.10414C-0.204965 5.76039 -0.0174655 6.41664 0.849722 6.41664H2.32629V21.0651H0.849722C-0.00574666 21.0651 -0.204965 21.7213 0.287222 22.3659L2.4552 25.3307C2.81848 25.8229 3.22863 25.8346 3.59191 25.3307L5.75988 22.3659C6.22863 21.7213 6.04113 21.0651 5.19738 21.0651Z" fill="black" fill-opacity="0.85"/>
</g>
<defs>
<clipPath id="clip0_2207_21999">
<rect width="25.5126" height="27.457" fill="white" transform="translate(0.0168457 0.0181885)"/>
</clipPath>
</defs>
</svg>
