<svg width="23" height="24" viewBox="0 0 23 24" fill="none" xmlns="http://www.w3.org/2000/svg">
<g clip-path="url(#clip0_2207_24498)">
<path d="M20.8325 10.6354C21.4536 10.6354 21.9341 10.1784 21.9341 9.55725C21.9223 8.92444 21.4536 8.49085 20.8325 8.49085H19.8481L15.7465 8.72522L18.9926 5.64319L22.6137 2.03381C22.8247 1.82288 22.9301 1.52991 22.9301 1.22522C22.9301 0.568969 22.438 0.123657 21.7817 0.123657C21.4887 0.123657 21.2309 0.229126 21.0317 0.440063L17.4341 4.07288L14.3403 7.31897L14.5747 3.22913V2.24475C14.5747 1.62366 14.1294 1.15491 13.52 1.15491C12.8872 1.15491 12.4301 1.63538 12.4301 2.24475V8.73694C12.4301 9.93225 13.1215 10.6354 14.3169 10.6354H20.8325ZM9.58252 22.5299C10.2153 22.5299 10.6723 22.0612 10.6723 21.4401V14.819C10.6723 13.6237 9.98095 12.9323 8.78564 12.9323H2.14111C1.52002 12.9323 1.03955 13.3776 1.03955 14.0104C1.05127 14.6315 1.52002 15.0651 2.14111 15.0651H3.25439L7.35595 14.8307L4.10986 17.9127L0.418457 21.6041C0.20752 21.8151 0.090332 22.108 0.090332 22.4127C0.090332 23.069 0.58252 23.5143 1.25049 23.5143C1.53174 23.5143 1.80127 23.4088 2.00049 23.1979L5.66845 19.4948L8.76221 16.2487L8.52783 20.3268V21.4401C8.52783 22.0729 8.97314 22.5299 9.58252 22.5299Z" fill="black" fill-opacity="0.85"/>
</g>
<defs>
<clipPath id="clip0_2207_24498">
<rect width="22.8398" height="23.4961" fill="white" transform="translate(0.090332 0.0181885)"/>
</clipPath>
</defs>
</svg>
