<svg width="24" height="24" viewBox="0 0 24 24" fill="none" xmlns="http://www.w3.org/2000/svg">
<g clip-path="url(#clip0_2207_24547)">
<path d="M12.0097 23.923C18.5488 23.923 23.9628 18.509 23.9628 11.9699C23.9628 5.44263 18.5371 0.0168457 11.998 0.0168457C5.4707 0.0168457 0.0566406 5.44263 0.0566406 11.9699C0.0566406 18.509 5.48242 23.923 12.0097 23.923Z" fill="black" fill-opacity="0.85"/>
<path d="M12.0683 18.7199C8.62304 18.7199 5.89257 16.4113 5.30663 13.048H4.02929C3.45507 13.048 3.3496 12.509 3.65429 12.0754L5.58788 9.34497C5.93944 8.87623 6.50194 8.89966 6.81835 9.34497L8.7871 12.0754C9.09179 12.509 8.9746 13.048 8.40038 13.048H7.13475C7.67382 15.1809 9.66601 16.798 12.0683 16.798C13.2402 16.798 14.1074 16.4348 14.9746 15.7668C15.455 15.4035 16.0058 15.3332 16.4277 15.7902C16.8613 16.2356 16.7207 16.8684 16.1347 17.3254C15.0918 18.1926 13.58 18.7199 12.0683 18.7199ZM12.0449 5.1731C15.4902 5.1731 18.2089 7.48169 18.8066 10.8449H20.0136C20.5878 10.8449 20.6933 11.384 20.3886 11.8176L18.455 14.5363C18.1035 15.0168 17.541 14.9816 17.2128 14.5363L15.2558 11.8176C14.9511 11.384 15.0683 10.8449 15.6308 10.8449H16.9785C16.4394 8.70044 14.4472 7.08326 12.0449 7.08326C10.873 7.08326 10.0059 7.45826 9.13866 8.12623C8.65819 8.47779 8.09569 8.55982 7.68554 8.10279C7.26366 7.65747 7.39257 7.02466 7.97851 6.55591C9.02147 5.70044 10.5332 5.1731 12.0449 5.1731Z" fill="white"/>
</g>
<defs>
<clipPath id="clip0_2207_24547">
<rect width="23.9062" height="23.918" fill="white" transform="translate(0.0566406 0.0168457)"/>
</clipPath>
</defs>
</svg>
