<svg width="20" height="19" viewBox="0 0 20 19" fill="none" xmlns="http://www.w3.org/2000/svg">
<g clip-path="url(#clip0_2207_24662)">
<path d="M1.49561 18.6683C1.96436 18.6683 2.33936 18.4691 2.83155 18.223L17.8901 10.9222C18.8862 10.43 19.2026 9.97302 19.2026 9.35192C19.2026 8.73083 18.8862 8.28552 17.8901 7.79333L2.83155 0.480835C2.32764 0.234742 1.95264 0.0355225 1.48389 0.0355225C0.616699 0.0355225 0.0776367 0.691773 0.0776367 1.7113L0.0893555 16.9926C0.0893555 18.0121 0.628418 18.6683 1.49561 18.6683ZM2.08155 16.4418C2.01123 16.4418 1.96436 16.3949 1.96436 16.3011V2.40271C1.96436 2.30896 2.01123 2.26208 2.08155 2.26208C2.12842 2.26208 2.1753 2.28552 2.22217 2.32068L16.5776 9.22302C16.6362 9.24646 16.6831 9.29333 16.6831 9.35192C16.6831 9.41052 16.6362 9.45739 16.5776 9.48083L2.22217 16.3949C2.1753 16.4183 2.12842 16.4418 2.08155 16.4418Z" fill="black" fill-opacity="0.85"/>
</g>
<defs>
<clipPath id="clip0_2207_24662">
<rect width="19.125" height="18.6445" fill="white" transform="translate(0.0776367 0.0238037)"/>
</clipPath>
</defs>
</svg>
