<svg width="24" height="25" viewBox="0 0 24 25" fill="none" xmlns="http://www.w3.org/2000/svg">
<g clip-path="url(#clip0_2207_24007)">
<path d="M12.0329 23.9272C18.572 23.9272 23.986 18.5132 23.986 11.9741C23.986 5.44678 18.5603 0.0209961 12.0212 0.0209961C5.49389 0.0209961 0.079834 5.44678 0.079834 11.9741C0.079834 18.5132 5.50561 23.9272 12.0329 23.9272Z" fill="black" fill-opacity="0.85"/>
<path d="M10.8025 17.8335C8.01342 17.8335 6.17358 15.9351 6.17358 13.0991V11.5288C6.17358 10.9663 6.52514 10.5796 7.05249 10.5796C7.56811 10.5796 7.91967 10.9546 7.91967 11.5054V13.0991C7.91967 14.8687 9.07983 16.0757 10.8025 16.0757C12.4079 16.0757 13.4743 14.8921 13.4743 13.1108V9.68897L13.5329 8.48194L13.1345 9.03272L11.7634 10.4624C11.5993 10.6265 11.3767 10.7319 11.1189 10.7319C10.615 10.7319 10.2282 10.3569 10.2282 9.86475C10.2282 9.60694 10.3103 9.38428 10.4743 9.23194L13.615 6.14991C13.8376 5.93897 14.0954 5.8335 14.365 5.8335C14.6228 5.8335 14.8806 5.95069 15.1032 6.14991L18.2087 9.22022C18.3845 9.38428 18.4665 9.59522 18.4665 9.85303C18.4665 10.3569 18.0681 10.7319 17.5759 10.7319C17.3298 10.7319 17.0954 10.6265 16.9431 10.4624L15.7946 9.26709L15.1736 8.47022L15.2204 9.68897V13.1108C15.2204 15.9468 13.4626 17.8335 10.8025 17.8335Z" fill="white"/>
</g>
<defs>
<clipPath id="clip0_2207_24007">
<rect width="23.9062" height="23.9883" fill="white" transform="translate(0.079834 0.0209961)"/>
</clipPath>
</defs>
</svg>
