<svg width="25" height="22" viewBox="0 0 25 22" fill="none" xmlns="http://www.w3.org/2000/svg">
<g clip-path="url(#clip0_2207_17362)">
<path d="M21.249 21.4808C23.7217 21.4808 24.9287 20.309 24.9287 17.8597V12.1293C24.9287 10.4535 24.46 9.55114 23.1123 8.53161L14.0069 1.60583C12.46 0.445679 11.2647 0.0355225 9.35449 0.0355225H3.6709C1.30371 0.0355225 0.0966797 1.23083 0.0966797 3.57458V17.8597C0.0966797 20.309 1.29199 21.4808 3.77637 21.4808H21.249ZM21.1787 10.6761H3.70606C2.62793 10.6761 1.9834 10.055 1.9834 8.93005V3.66833C1.9834 2.53161 2.61621 1.92224 3.70606 1.92224H9.35449C10.8545 1.92224 11.7217 2.18005 12.7178 2.97692L21.4483 9.65661C21.9287 10.0082 21.7998 10.6761 21.1787 10.6761Z" fill="black" fill-opacity="0.85"/>
<path d="M5.42859 8.94179H10.6435C11.2763 8.94179 11.5458 8.43788 11.206 7.8871L8.67469 3.72694C8.34657 3.18788 7.72547 3.1996 7.40906 3.72694L4.85437 7.8871C4.51453 8.43788 4.8075 8.94179 5.42859 8.94179Z" fill="black" fill-opacity="0.85"/>
<path d="M5.42859 12.8558H10.6435C11.2763 12.8558 11.5458 13.3597 11.206 13.9105L8.67469 18.0707C8.34657 18.6097 7.72547 18.598 7.40906 18.0707L4.85437 13.9105C4.51453 13.3597 4.8075 12.8558 5.42859 12.8558Z" fill="white"/>
</g>
<defs>
<clipPath id="clip0_2207_17362">
<rect width="24.832" height="21.457" fill="white" transform="translate(0.0966797 0.0238037)"/>
</clipPath>
</defs>
</svg>
