<svg width="27" height="25" viewBox="0 0 27 25" fill="none" xmlns="http://www.w3.org/2000/svg">
<g clip-path="url(#clip0_2207_9037)">
<path d="M4.70361 24.4533C6.10987 24.4533 9.61377 22.9181 11.606 21.4885C11.8052 21.3478 11.9692 21.2892 12.1333 21.2892C12.2857 21.3009 12.438 21.3127 12.5903 21.3127C21.0396 21.3127 26.6411 16.508 26.6411 10.672C26.6411 4.77746 20.7349 0.0196533 13.3521 0.0196533C5.96924 0.0196533 0.0629883 4.77746 0.0629883 10.672C0.0629883 14.422 2.37158 17.715 6.1333 19.7306C6.30908 19.8244 6.36768 20.0002 6.27393 20.1759C5.61768 21.2541 4.4458 22.5431 4.00049 23.1291C3.54346 23.715 3.80127 24.4533 4.70361 24.4533Z" fill="black" fill-opacity="0.85"/>
<path d="M13.3638 16.8244C12.8364 16.8244 12.4497 16.4494 12.4497 15.922V9.89856L12.5552 7.34387L11.3482 8.78527L9.91846 10.2267C9.7544 10.4025 9.52002 10.4963 9.27393 10.4963C8.77002 10.4963 8.39502 10.1213 8.39502 9.61731C8.39502 9.37121 8.46533 9.16027 8.6294 8.98449L12.6607 4.97668C12.9068 4.73059 13.106 4.62512 13.3638 4.62512C13.645 4.62512 13.8442 4.74231 14.0786 4.97668L18.0982 8.98449C18.2622 9.16027 18.356 9.37121 18.356 9.61731C18.356 10.1213 17.9692 10.4963 17.4653 10.4963C17.2075 10.4963 16.9849 10.4142 16.8208 10.2267L15.4028 8.78527L14.1724 7.32043L14.2778 9.89856V15.922C14.2778 16.4494 13.9028 16.8244 13.3638 16.8244Z" fill="white"/>
</g>
<defs>
<clipPath id="clip0_2207_9037">
<rect width="26.5781" height="24.4336" fill="white" transform="translate(0.0629883 0.0196533)"/>
</clipPath>
</defs>
</svg>
