<svg width="22" height="22" viewBox="0 0 22 22" fill="none" xmlns="http://www.w3.org/2000/svg">
<g clip-path="url(#clip0_2207_23771)">
<path d="M3.77417 21.6131H17.989C20.45 21.6131 21.6687 20.3943 21.6687 17.9802V3.67163C21.6687 1.25757 20.45 0.0388184 17.989 0.0388184H3.77417C1.32495 0.0388184 0.0944824 1.24585 0.0944824 3.67163V17.9802C0.0944824 20.406 1.32495 21.6131 3.77417 21.6131ZM3.7976 19.7263C2.62573 19.7263 1.9812 19.1052 1.9812 17.8865V3.76538C1.9812 2.54663 2.62573 1.92554 3.7976 1.92554H17.9656C19.1257 1.92554 19.782 2.54663 19.782 3.76538V17.8865C19.782 19.1052 19.1257 19.7263 17.9656 19.7263H3.7976Z" fill="black" fill-opacity="0.85"/>
<path d="M5.40307 6.74194C5.08667 7.04663 5.09839 7.58569 5.40307 7.87866L8.34448 10.7615C8.49682 10.8904 8.71948 10.9842 8.89526 10.9842C9.34057 10.9842 9.64526 10.6795 9.64526 10.2459C9.64526 10.0349 9.56323 9.84741 9.4226 9.70679L8.18042 8.49976L7.68823 8.04272L8.23901 8.07788H15.8562C16.2898 8.07788 16.6062 7.73804 16.6062 7.30444C16.6062 6.87085 16.2898 6.55444 15.8562 6.55444H8.25073L7.69995 6.56616L8.18042 6.13257L9.4226 4.92554C9.56323 4.78491 9.64526 4.58569 9.64526 4.38647C9.64526 3.94116 9.34057 3.63647 8.89526 3.63647C8.70776 3.63647 8.4851 3.73022 8.34448 3.88257L5.40307 6.74194ZM16.3718 14.8865C16.6883 14.5701 16.6765 14.0896 16.3718 13.7849L13.4187 10.9021C13.2898 10.7615 13.0672 10.6677 12.8679 10.6677C12.4226 10.6677 12.1179 10.9724 12.1179 11.406C12.1179 11.617 12.2 11.8045 12.3406 11.9451L13.6062 13.1521L14.0867 13.6092L13.5242 13.574H5.9187C5.49682 13.574 5.1687 13.8904 5.1687 14.3357C5.1687 14.7693 5.4851 15.0974 5.9187 15.0974H13.5125L14.0867 15.0857L13.6062 15.5193L12.3523 16.7263C12.2117 16.8787 12.1179 17.0545 12.1179 17.2654C12.1179 17.699 12.4461 18.0154 12.8679 18.0154C13.0437 18.0154 13.2664 17.9216 13.4187 17.781L16.3718 14.8865Z" fill="black" fill-opacity="0.85"/>
</g>
<defs>
<clipPath id="clip0_2207_23771">
<rect width="21.5742" height="21.5977" fill="white" transform="translate(0.0944824 0.0153809)"/>
</clipPath>
</defs>
</svg>
