<svg width="22" height="22" viewBox="0 0 22 22" fill="none" xmlns="http://www.w3.org/2000/svg">
<g clip-path="url(#clip0_2207_24629)">
<path d="M3.75537 21.6215H17.9702C20.4312 21.6215 21.6499 20.4027 21.6499 17.9886V3.68005C21.6499 1.26599 20.4312 0.0472412 17.9702 0.0472412H3.75537C1.30615 0.0472412 0.0756836 1.25427 0.0756836 3.68005V17.9886C0.0756836 20.4144 1.30615 21.6215 3.75537 21.6215Z" fill="black" fill-opacity="0.85"/>
<path d="M6.02882 11.473C5.5132 11.18 5.52492 10.4652 6.02882 10.1722L12.9077 6.10582C13.4234 5.78941 14.1148 6.03551 14.1148 6.62145V15.0238C14.1148 15.598 13.4702 15.8793 12.9077 15.5394L6.02882 11.473Z" fill="white"/>
</g>
<defs>
<clipPath id="clip0_2207_24629">
<rect width="21.5742" height="21.5977" fill="white" transform="translate(0.0756836 0.0238037)"/>
</clipPath>
</defs>
</svg>
