<svg width="24" height="24" viewBox="0 0 24 24" fill="none" xmlns="http://www.w3.org/2000/svg">
<g clip-path="url(#clip0_2207_24002)">
<path d="M12.0307 23.9272C18.5698 23.9272 23.9838 18.5015 23.9838 11.9741C23.9838 5.43506 18.5581 0.0209961 12.019 0.0209961C5.4917 0.0209961 0.0776367 5.43506 0.0776367 11.9741C0.0776367 18.5015 5.50342 23.9272 12.0307 23.9272ZM12.0307 21.9351C6.49952 21.9351 2.08155 17.5054 2.08155 11.9741C2.08155 6.44288 6.4878 2.01319 12.019 2.01319C17.5503 2.01319 21.9917 6.44288 21.9917 11.9741C21.9917 17.5054 17.562 21.9351 12.0307 21.9351Z" fill="black" fill-opacity="0.85"/>
<path d="M10.3784 18.0093C13.2026 18.0093 14.9135 15.9819 14.9135 13.2398V9.74756L14.8667 8.35303L15.5932 9.29053L16.7651 10.4976C16.9174 10.6499 17.1284 10.7671 17.3745 10.7671C17.8549 10.7671 18.2299 10.3921 18.2299 9.92334C18.2299 9.67725 18.1479 9.47803 17.9721 9.31397L14.8081 6.2085C14.6206 6.00928 14.3628 5.89209 14.0932 5.89209C13.8237 5.89209 13.5776 6.00928 13.3901 6.2085L10.1909 9.32569C10.0269 9.48975 9.94483 9.68897 9.94483 9.93506C9.94483 10.3921 10.3198 10.7671 10.8003 10.7671C11.0229 10.7671 11.2456 10.6733 11.4096 10.5093L12.8159 9.04444L13.3198 8.35303L13.2729 9.74756V13.2398C13.2729 14.9624 12.2768 16.2866 10.4721 16.2866C8.63233 16.2866 7.48389 14.9976 7.48389 13.228C7.48389 13.0991 7.48389 11.646 7.48389 11.5991C7.48389 11.1069 7.19092 10.7202 6.65186 10.7202C6.1128 10.7202 5.80811 11.1069 5.80811 11.6226C5.80811 11.6812 5.80811 13.0991 5.80811 13.228C5.80811 15.9702 7.56592 18.0093 10.3784 18.0093Z" fill="black" fill-opacity="0.85"/>
</g>
<defs>
<clipPath id="clip0_2207_24002">
<rect width="23.9062" height="23.918" fill="white" transform="translate(0.0776367 0.0209961)"/>
</clipPath>
</defs>
</svg>
