<svg width="21" height="29" viewBox="0 0 21 29" fill="none" xmlns="http://www.w3.org/2000/svg">
<g clip-path="url(#clip0_2207_24306)">
<path d="M0.0712891 14.8721C0.0712891 20.626 4.68848 25.2432 10.4307 25.2432C16.1729 25.2432 20.7783 20.626 20.7783 14.8721C20.7783 9.12988 16.1729 4.52442 10.4307 4.52442C9.7041 4.52442 9.0127 4.60645 8.40332 4.72364L11.5205 1.64161C11.6963 1.45411 11.7783 1.21973 11.7783 0.973633C11.7783 0.43457 11.3799 0.0126953 10.8643 0.0126953C10.5713 0.0126953 10.3369 0.106445 10.1729 0.293945L5.34473 5.19239C5.15723 5.37989 5.05176 5.6377 5.05176 5.89551C5.05176 6.16504 5.14551 6.39942 5.34473 6.59864L10.1729 11.4502C10.3486 11.626 10.5713 11.7197 10.8525 11.7197C11.3799 11.7197 11.7783 11.3213 11.7783 10.7822C11.7783 10.5361 11.6963 10.3018 11.5088 10.1143L8.0166 6.64551C8.69629 6.48145 9.52832 6.41114 10.4307 6.41114C15.1299 6.41114 18.8916 10.1729 18.8916 14.8721C18.8916 19.583 15.1299 23.3565 10.4307 23.3565C5.73145 23.3565 1.95801 19.583 1.95801 14.8721C1.95801 14.3096 1.60645 13.8994 1.04395 13.8994C0.469727 13.8994 0.0712891 14.3096 0.0712891 14.8721Z" fill="black" fill-opacity="0.85"/>
</g>
<defs>
<clipPath id="clip0_2207_24306">
<rect width="20.707" height="28.043" fill="white" transform="translate(0.0712891 0.0126953)"/>
</clipPath>
</defs>
</svg>
