<svg width="24" height="24" viewBox="0 0 24 24" fill="none" xmlns="http://www.w3.org/2000/svg">
<g clip-path="url(#clip0_2207_23436)">
<path d="M11.9846 23.9189C18.5237 23.9189 23.9377 18.4932 23.9377 11.9658C23.9377 5.42676 18.512 0.0126953 11.9729 0.0126953C5.44555 0.0126953 0.0314941 5.42676 0.0314941 11.9658C0.0314941 18.4932 5.45727 23.9189 11.9846 23.9189ZM11.9846 21.9268C6.45337 21.9268 2.0354 17.4971 2.0354 11.9658C2.0354 6.43458 6.44165 2.00489 11.9729 2.00489C17.5042 2.00489 21.9456 6.43458 21.9456 11.9658C21.9456 17.4971 17.5159 21.9268 11.9846 21.9268Z" fill="black" fill-opacity="0.85"/>
<path d="M5.96118 11.9541C5.96118 12.2119 6.07837 12.4229 6.2893 12.6338L10.2503 16.6065C10.4026 16.7588 10.6135 16.8525 10.8596 16.8525C11.3401 16.8525 11.7034 16.4775 11.7034 15.9971C11.7034 15.7393 11.6096 15.5283 11.4456 15.376L9.98071 13.9229L8.56274 12.7393L11.0471 12.8213H17.1526C17.6682 12.8213 18.0315 12.458 18.0315 11.9541C18.0315 11.4385 17.6565 11.0752 17.1526 11.0752H11.0471L8.57446 11.1689L9.98071 9.98535L11.4456 8.53222C11.5979 8.36816 11.7034 8.15722 11.7034 7.89941C11.7034 7.41894 11.3401 7.05566 10.8596 7.05566C10.6135 7.05566 10.4026 7.13769 10.2503 7.29003L6.2893 11.2744C6.05493 11.5088 5.96118 11.6963 5.96118 11.9541Z" fill="black" fill-opacity="0.85"/>
</g>
<defs>
<clipPath id="clip0_2207_23436">
<rect width="23.9062" height="23.918" fill="white" transform="translate(0.0314941 0.0126953)"/>
</clipPath>
</defs>
</svg>
