<svg width="24" height="23" viewBox="0 0 24 23" fill="none" xmlns="http://www.w3.org/2000/svg">
<g clip-path="url(#clip0_2207_7972)">
<path d="M11.6955 22.2447C11.9416 22.2447 12.2932 22.0806 12.551 21.9283C19.1604 17.7095 23.344 12.7994 23.344 7.80713C23.344 3.65869 20.4963 0.729004 16.8049 0.729004C14.5197 0.729004 12.7619 1.99463 11.6955 3.92822C10.6526 2.00635 8.88306 0.729004 6.58618 0.729004C2.9065 0.729004 0.0588379 3.65869 0.0588379 7.80713C0.0588379 12.7994 4.24243 17.7095 10.8518 21.9283C11.0979 22.0806 11.4611 22.2447 11.6955 22.2447Z" fill="black" fill-opacity="0.85"/>
<path d="M12.5393 7.77197V12.1314L12.4572 14.1001L13.465 13.0454L14.5315 11.9673C14.7072 11.7915 14.9299 11.6861 15.176 11.6861C15.6565 11.6861 16.0315 12.0376 16.0315 12.5298C16.0315 12.8111 15.9143 13.0103 15.7268 13.1861L12.2815 16.3384C12.0236 16.5845 11.8361 16.6548 11.6018 16.6548C11.3674 16.6548 11.1799 16.5845 10.9221 16.3384L7.47681 13.1861C7.28931 13.0103 7.17212 12.8111 7.17212 12.5298C7.17212 12.0376 7.52368 11.6861 8.02759 11.6861C8.26196 11.6861 8.50806 11.7915 8.67212 11.9673L9.73853 13.0454L10.7463 14.1001L10.676 12.1314V7.77197C10.676 7.27978 11.0979 6.86963 11.6018 6.86963C12.1057 6.86963 12.5393 7.27978 12.5393 7.77197Z" fill="white"/>
</g>
<defs>
<clipPath id="clip0_2207_7972">
<rect width="23.2852" height="22.2305" fill="white" transform="translate(0.0588379 0.0141602)"/>
</clipPath>
</defs>
</svg>
