<svg width="22" height="23" viewBox="0 0 22 23" fill="none" xmlns="http://www.w3.org/2000/svg">
<g clip-path="url(#clip0_2207_24598)">
<path d="M10.8669 22.2942C11.5231 22.2942 11.8864 21.8607 11.8864 21.0521V14.3255C11.8864 11.513 15.0036 7.43485 17.8864 5.595L18.8239 4.98563C19.152 4.78641 19.3278 4.42313 19.3278 4.07157C19.3278 3.49735 18.9294 3.09891 18.3317 3.09891C18.0388 3.09891 17.7224 3.20438 17.4411 3.39188L16.82 3.80204C13.9724 5.70047 11.2419 9.29813 10.8786 11.1146H10.8435C10.4802 9.28641 7.76141 5.70047 4.91375 3.80204L4.29266 3.39188C3.99969 3.20438 3.695 3.09891 3.39032 3.09891C2.79266 3.09891 2.40594 3.5325 2.40594 4.05985C2.40594 4.41141 2.58172 4.78641 2.90985 4.98563L3.84735 5.595C6.71844 7.43485 9.84735 11.513 9.84735 14.3255V21.0521C9.84735 21.8607 10.2106 22.2942 10.8669 22.2942ZM2.80438 7.02469L6.08563 2.77079C6.58954 2.11454 6.27313 1.58719 5.48797 1.55204L0.929375 1.35282C0.273125 1.31766 -0.0784383 1.75126 0.120781 2.39579L1.46844 6.74344C1.70282 7.51688 2.28875 7.69266 2.80438 7.02469ZM18.7888 7.01297C19.281 7.69266 19.8786 7.54032 20.1247 6.7786L21.6013 2.4661C21.8122 1.83329 21.4724 1.38797 20.8278 1.39969L16.2575 1.47C15.4724 1.48172 15.1442 1.99735 15.6247 2.66532L18.7888 7.01297Z" fill="black" fill-opacity="0.85"/>
</g>
<defs>
<clipPath id="clip0_2207_24598">
<rect width="21.5985" height="22.2773" fill="white" transform="translate(0.0651855 0.0168457)"/>
</clipPath>
</defs>
</svg>
