<svg width="28" height="22" viewBox="0 0 28 22" fill="none" xmlns="http://www.w3.org/2000/svg">
<g clip-path="url(#clip0_2207_7137)">
<path d="M3.7301 21.5939H24.0035C26.4645 21.5939 27.6832 20.3869 27.6832 17.9728V3.65246C27.6832 1.2384 26.4645 0.0196533 24.0035 0.0196533H3.7301C1.28088 0.0196533 0.050415 1.2384 0.050415 3.65246V17.9728C0.050415 20.3869 1.28088 21.5939 3.7301 21.5939Z" fill="black" fill-opacity="0.85"/>
<path d="M16.4684 17.0236C15.941 17.0236 15.5895 16.6135 15.5895 16.0508V10.5196C15.5895 9.80481 15.9762 9.52356 16.5973 9.52356H22.1637C22.7262 9.52356 23.0895 9.87512 23.0895 10.4024C23.0895 10.9415 22.7145 11.293 22.1402 11.293H20.1129L18.3199 11.1055L20.2066 12.8634L23.8395 16.4844C24.0152 16.6602 24.1324 16.9063 24.1324 17.1407C24.1324 17.6915 23.7809 18.043 23.2535 18.043C22.9488 18.043 22.7262 17.9377 22.5504 17.7619L18.9293 14.1407L17.1832 12.2774L17.359 14.1524V16.0744C17.359 16.6486 17.0074 17.0236 16.4684 17.0236Z" fill="white"/>
</g>
<defs>
<clipPath id="clip0_2207_7137">
<rect width="27.6328" height="21.5742" fill="white" transform="translate(0.050415 0.0196533)"/>
</clipPath>
</defs>
</svg>
