<svg width="22" height="22" viewBox="0 0 22 22" fill="none" xmlns="http://www.w3.org/2000/svg">
<g clip-path="url(#clip0_2207_24657)">
<path d="M3.71326 21.6215H17.9281C20.3891 21.6215 21.6078 20.4027 21.6078 17.9886V3.68005C21.6078 1.26599 20.3891 0.0472412 17.9281 0.0472412H3.71326C1.26404 0.0472412 0.0335693 1.25427 0.0335693 3.68005V17.9886C0.0335693 20.4144 1.26404 21.6215 3.71326 21.6215Z" fill="black" fill-opacity="0.85"/>
<path d="M5.9867 11.473C5.47108 11.18 5.4828 10.4652 5.9867 10.1722L12.8656 6.10582C13.3813 5.78941 14.0727 6.03551 14.0727 6.62145V15.0238C14.0727 15.598 13.4281 15.8793 12.8656 15.5394L5.9867 11.473Z" fill="white"/>
</g>
<defs>
<clipPath id="clip0_2207_24657">
<rect width="21.5742" height="21.5977" fill="white" transform="translate(0.0335693 0.0238037)"/>
</clipPath>
</defs>
</svg>
