<svg width="18" height="18" viewBox="0 0 18 18" fill="none" xmlns="http://www.w3.org/2000/svg">
<g clip-path="url(#clip0_2207_23732)">
<path d="M17.3401 4.43213C17.3401 3.7876 16.8362 3.31885 16.2737 3.31885C15.6995 3.31885 15.219 3.82275 15.219 4.38525V8.70947L15.4299 14.1822L13.4963 12.0025L1.85961 0.365722C1.64868 0.154785 1.39087 0.0493164 1.12133 0.0493164C0.5354 0.0493164 0.0314941 0.588379 0.0314941 1.15088C0.0314941 1.39697 0.148682 1.67822 0.359619 1.88916L11.9729 13.5142L14.1526 15.4361L8.43383 15.2486H4.35571C3.80493 15.2486 3.30102 15.729 3.30102 16.2915C3.30102 16.854 3.74633 17.3462 4.40258 17.3462H16.1917C16.8948 17.3462 17.3284 16.8892 17.3284 16.2212L17.3401 4.43213Z" fill="black" fill-opacity="0.85"/>
</g>
<defs>
<clipPath id="clip0_2207_23732">
<rect width="17.3086" height="17.332" fill="white" transform="translate(0.0314941 0.0141602)"/>
</clipPath>
</defs>
</svg>
