<svg width="28" height="22" viewBox="0 0 28 22" fill="none" xmlns="http://www.w3.org/2000/svg">
<g clip-path="url(#clip0_2207_7117)">
<path d="M3.77417 21.5884H24.0476C26.5086 21.5884 27.7273 20.3814 27.7273 17.9673V3.64697C27.7273 1.23291 26.5086 0.0141602 24.0476 0.0141602H3.77417C1.32495 0.0141602 0.0944824 1.23291 0.0944824 3.64697V17.9673C0.0944824 20.3814 1.32495 21.5884 3.77417 21.5884Z" fill="black" fill-opacity="0.85"/>
<path d="M16.6413 12.0962C16.0202 12.0962 15.6335 11.815 15.6335 11.0884V5.56885C15.6335 4.99463 15.985 4.59619 16.5124 4.59619C17.0514 4.59619 17.403 4.95947 17.403 5.54541V7.45557L17.2272 9.34228L18.9733 7.479L22.5944 3.84619C22.7702 3.67041 22.9928 3.56494 23.2975 3.56494C23.8249 3.56494 24.1764 3.92822 24.1764 4.479C24.1764 4.71338 24.0592 4.94775 23.8835 5.11182L20.2506 8.74463L18.3639 10.5142L20.1569 10.3267H22.1842C22.7585 10.3267 23.1335 10.6783 23.1335 11.2056C23.1335 11.7447 22.7702 12.0962 22.2077 12.0962H16.6413Z" fill="white"/>
</g>
<defs>
<clipPath id="clip0_2207_7117">
<rect width="27.6328" height="21.5742" fill="white" transform="translate(0.0944824 0.0141602)"/>
</clipPath>
</defs>
</svg>
