<svg width="22" height="22" viewBox="0 0 22 22" fill="none" xmlns="http://www.w3.org/2000/svg">
<g clip-path="url(#clip0_2207_24685)">
<path d="M3.77198 21.6215H17.9868C20.4478 21.6215 21.6665 20.4027 21.6665 17.9886V3.68005C21.6665 1.26599 20.4478 0.0472412 17.9868 0.0472412H3.77198C1.32276 0.0472412 0.0922852 1.25427 0.0922852 3.68005V17.9886C0.0922852 20.4144 1.32276 21.6215 3.77198 21.6215Z" fill="black" fill-opacity="0.85"/>
<path d="M8.65869 15.5394C8.09619 15.8793 7.45166 15.6097 7.45166 15.0238V6.62144C7.45166 6.04722 8.14306 5.80112 8.65869 6.10581L15.5376 10.184C16.0298 10.4769 16.0415 11.18 15.5376 11.4847L8.65869 15.5394Z" fill="white"/>
</g>
<defs>
<clipPath id="clip0_2207_24685">
<rect width="21.5742" height="21.5977" fill="white" transform="translate(0.0922852 0.0238037)"/>
</clipPath>
</defs>
</svg>
