<svg width="29" height="22" viewBox="0 0 29 22" fill="none" xmlns="http://www.w3.org/2000/svg">
<g clip-path="url(#clip0_2207_1493)">
<path d="M2.90918 21.4574H9.97559C12.0029 21.4574 12.8701 20.6136 12.8701 18.6215V15.9496H15.8818V20.1566C15.8818 20.9418 16.456 21.5277 17.2529 21.5277C17.8271 21.5277 18.2958 21.2933 18.8584 20.766L28.1044 12.0355C28.5615 11.6136 28.7021 11.1683 28.7021 10.7816C28.7021 10.3832 28.5615 9.93786 28.1044 9.51599L18.8584 0.867554C18.2373 0.281616 17.8505 0.0238037 17.2763 0.0238037C16.456 0.0238037 15.8818 0.680054 15.8818 1.46521V6.01208H8.27637C6.24903 6.01208 5.38184 6.85583 5.38184 8.84802V11.2972H2.90918C0.881836 11.2972 0.0146484 12.1293 0.0146484 14.1215V18.6215C0.0146484 20.6136 0.881836 21.4574 2.90918 21.4574ZM3.04981 19.6176C2.27637 19.6176 1.90137 19.1957 1.90137 18.3402V14.4027C1.90137 13.5472 2.27637 13.1371 3.04981 13.1371H5.40527V13.6996C5.40527 14.4144 5.62793 14.93 6.28418 15.3402L10.9834 18.2113V18.3402C10.9834 19.1957 10.6084 19.6176 9.83496 19.6176H3.04981ZM17.9326 19.0082C17.8271 19.0082 17.7685 18.9379 17.7685 18.8324V14.2972C17.7685 14.0277 17.6396 13.9105 17.3701 13.9105H8.41699C7.64356 13.9105 7.26856 13.4886 7.26856 12.6332V8.94177C7.26856 8.07458 7.64356 7.66442 8.41699 7.66442H17.3701C17.6396 7.66442 17.7685 7.54724 17.7685 7.27771V2.62536C17.7685 2.53161 17.8271 2.4613 17.9326 2.4613C18.0029 2.4613 18.0732 2.50818 18.1318 2.55505L26.4755 10.559C26.5693 10.641 26.6044 10.7113 26.6044 10.7816C26.6044 10.8519 26.5693 10.9105 26.4755 11.0043L18.1318 18.9027C18.0616 18.973 17.9912 19.0082 17.9326 19.0082Z" fill="black" fill-opacity="0.85"/>
</g>
<defs>
<clipPath id="clip0_2207_1493">
<rect width="28.6875" height="21.5273" fill="white" transform="translate(0.0146484 0.0238037)"/>
</clipPath>
</defs>
</svg>
