<svg width="28" height="22" viewBox="0 0 28 22" fill="none" xmlns="http://www.w3.org/2000/svg">
<g clip-path="url(#clip0_2207_21922)">
<path d="M21.0808 20.7439V9.47046C21.0808 7.59546 20.073 6.59937 18.1628 6.59937H1.01831V8.27515H18.0457C18.9011 8.27515 19.405 8.79077 19.405 9.65796V20.7439H21.0808ZM14.7175 7.15015H13.0417V20.7439H14.7175V7.15015ZM3.69019 21.5993H23.9636C26.4246 21.5993 27.6433 20.3923 27.6433 17.9782V3.65796C27.6433 1.2439 26.4246 0.0251465 23.9636 0.0251465H3.69019C1.24097 0.0251465 0.010498 1.2439 0.010498 3.65796V17.9782C0.010498 20.3923 1.24097 21.5993 3.69019 21.5993ZM3.71362 19.7126C2.54175 19.7126 1.89722 19.0915 1.89722 17.8728V3.76343C1.89722 2.54468 2.54175 1.91187 3.71362 1.91187H23.9402C25.1003 1.91187 25.7566 2.54468 25.7566 3.76343V17.8728C25.7566 19.0915 25.1003 19.7126 23.9402 19.7126H3.71362Z" fill="black" fill-opacity="0.85"/>
</g>
<defs>
<clipPath id="clip0_2207_21922">
<rect width="27.6328" height="21.5742" fill="white" transform="translate(0.010498 0.0251465)"/>
</clipPath>
</defs>
</svg>
