<svg width="24" height="24" viewBox="0 0 24 24" fill="none" xmlns="http://www.w3.org/2000/svg">
<g clip-path="url(#clip0_2207_22634)">
<path d="M11.9825 23.9313C18.5216 23.9313 23.9356 18.5056 23.9356 11.9782C23.9356 5.43921 18.5099 0.0251465 11.9708 0.0251465C5.44348 0.0251465 0.0294189 5.43921 0.0294189 11.9782C0.0294189 18.5056 5.4552 23.9313 11.9825 23.9313Z" fill="black" fill-opacity="0.85"/>
<path d="M12.1349 19.2204C7.81067 19.2204 4.91614 16.3259 4.91614 12.0017C4.91614 7.67749 7.84583 4.70093 12.1114 4.70093C16.2364 4.70093 19.0724 7.37281 19.0724 11.2634C19.0724 13.9939 17.7833 15.8571 15.838 15.8571C14.8771 15.8571 14.1388 15.4118 13.7989 14.697C13.3302 15.4353 12.5567 15.8571 11.6544 15.8571C9.7677 15.8571 8.4552 14.2634 8.4552 12.0134C8.4552 9.78687 9.7677 8.20484 11.6192 8.20484C12.3927 8.20484 13.1192 8.57984 13.5763 9.09546V8.86109C13.5763 8.56812 13.881 8.20484 14.3263 8.20484C14.8185 8.20484 15.1349 8.54468 15.1349 9.04859V13.5017C15.1349 14.0759 15.4278 14.3806 16.0021 14.3806C16.881 14.3806 17.4903 13.1853 17.4903 11.3103C17.4903 8.28687 15.3224 6.27124 12.0997 6.27124C8.80676 6.27124 6.5802 8.60327 6.5802 12.0368C6.5802 15.4939 8.79504 17.6384 12.3458 17.6384C13.2482 17.6384 13.9044 17.5212 14.7013 17.3337C14.8419 17.2985 14.9825 17.2634 15.0763 17.2634C15.4747 17.2634 15.7794 17.5681 15.7794 17.9665C15.7794 18.3767 15.4982 18.6931 14.9942 18.8571C14.3028 19.0798 13.2364 19.2204 12.1349 19.2204ZM11.9356 14.2282C12.9669 14.2282 13.6466 13.3493 13.6466 11.9431C13.6466 10.572 12.9786 9.72827 11.9474 9.72827C10.9278 9.72827 10.2716 10.5954 10.2716 11.9782C10.2716 13.3728 10.9161 14.2282 11.9356 14.2282Z" fill="white"/>
</g>
<defs>
<clipPath id="clip0_2207_22634">
<rect width="23.9062" height="23.918" fill="white" transform="translate(0.0294189 0.0251465)"/>
</clipPath>
</defs>
</svg>
