<svg width="22" height="22" viewBox="0 0 22 22" fill="none" xmlns="http://www.w3.org/2000/svg">
<g clip-path="url(#clip0_2207_26128)">
<path d="M3.71961 21.6228H17.9344C20.3954 21.6228 21.6141 20.404 21.6141 17.9899V3.6814C21.6141 1.26734 20.3954 0.048584 17.9344 0.048584H3.71961C1.27039 0.048584 0.039917 1.25562 0.039917 3.6814V17.9899C0.039917 20.4157 1.27039 21.6228 3.71961 21.6228ZM3.74304 19.736C2.57117 19.736 1.92664 19.1149 1.92664 17.8962V3.77515C1.92664 2.5564 2.57117 1.93531 3.74304 1.93531H17.911C19.0711 1.93531 19.7274 2.5564 19.7274 3.77515V17.8962C19.7274 19.1149 19.0711 19.736 17.911 19.736H3.74304Z" fill="black" fill-opacity="0.85"/>
<path d="M5.0321 16.1735C5.39538 16.1735 5.7235 15.9861 5.81725 15.5525L7.53991 7.50171H7.62194L9.40319 15.5525C9.49694 15.9861 9.81335 16.1735 10.1766 16.1735C10.6219 16.1735 11.0321 15.8454 10.868 15.154L8.66491 6.13062C8.536 5.59156 8.161 5.27515 7.63366 5.27515C7.11803 5.27515 6.70788 5.60327 6.57897 6.13062L4.30553 15.154C4.12975 15.8454 4.58679 16.1735 5.0321 16.1735ZM5.7235 13.3377H9.46179V12.1424H5.7235V13.3377ZM14.243 15.6346C15.9305 15.6346 17.0907 14.6619 17.0907 13.0564C17.0907 11.9197 16.4813 11.1111 15.0868 10.3846L14.0438 9.83374C13.4344 9.51734 12.8016 9.1189 12.8016 8.34546C12.8016 7.6189 13.3524 7.15015 14.161 7.15015C15.0399 7.15015 15.4852 7.71265 15.5438 8.50953C15.579 8.88453 15.8837 9.10718 16.2001 9.10718C16.5985 9.10718 16.9852 8.80249 16.8915 8.15796C16.7274 6.88062 15.7665 5.90796 14.161 5.90796C12.5555 5.90796 11.3719 6.89234 11.3719 8.40406C11.3719 9.6814 12.0985 10.5018 13.329 11.1111L14.3368 11.615C15.0047 11.9432 15.661 12.4587 15.661 13.1618C15.661 13.9002 15.1454 14.3924 14.243 14.3924C13.2235 14.3924 12.7782 13.8768 12.6961 13.0213C12.6493 12.6229 12.3797 12.4236 12.0633 12.4236C11.6532 12.4236 11.2782 12.7635 11.3719 13.3729C11.5594 14.7205 12.5907 15.6346 14.243 15.6346ZM14.2313 16.8885C14.4774 16.8885 14.7118 16.6657 14.7118 16.4079V5.16968C14.7118 4.90015 14.4774 4.67749 14.2313 4.67749C13.9618 4.67749 13.7391 4.90015 13.7391 5.16968V16.4079C13.7391 16.6657 13.9618 16.8885 14.2313 16.8885Z" fill="black" fill-opacity="0.85"/>
</g>
<defs>
<clipPath id="clip0_2207_26128">
<rect width="21.5742" height="21.5977" fill="white" transform="translate(0.039917 0.0251465)"/>
</clipPath>
</defs>
</svg>
