<svg width="24" height="24" viewBox="0 0 24 24" fill="none" xmlns="http://www.w3.org/2000/svg">
<g clip-path="url(#clip0_2207_26123)">
<path d="M11.9909 23.9313C18.53 23.9313 23.944 18.5056 23.944 11.9782C23.944 5.43921 18.5183 0.0251465 11.9792 0.0251465C5.4519 0.0251465 0.0378418 5.43921 0.0378418 11.9782C0.0378418 18.5056 5.46362 23.9313 11.9909 23.9313Z" fill="black" fill-opacity="0.85"/>
<path d="M5.26441 16.4548L7.59644 7.15015C7.73707 6.59937 8.15894 6.25953 8.70973 6.25953C9.23707 6.25953 9.63551 6.58765 9.76441 7.15015L12.0378 16.4548C12.2019 17.1696 11.78 17.5095 11.3112 17.5095C10.9362 17.5095 10.6081 17.3103 10.5144 16.8649L9.99879 14.5798H7.31519L6.82301 16.8649C6.72926 17.3103 6.38941 17.5095 6.01441 17.5095C5.55738 17.5095 5.07691 17.1696 5.26441 16.4548ZM7.57301 13.3493H9.75269L8.68629 8.56812H8.59254L7.57301 13.3493ZM15.5066 18.2478C15.2253 18.2478 14.9909 18.0134 14.9909 17.7439V16.9118C13.5847 16.7478 12.7175 15.8571 12.5534 14.6149C12.448 13.9821 12.8464 13.6306 13.2683 13.6306C13.5964 13.6306 13.8776 13.8415 13.9245 14.2517C13.9831 14.9782 14.323 15.4587 14.9909 15.5993V12.4939L14.569 12.2829C13.3034 11.6384 12.5534 10.8063 12.5534 9.4939C12.5534 8.08765 13.5612 7.10327 14.9909 6.93921V6.15406C14.9909 5.87281 15.2253 5.63843 15.5066 5.63843C15.7644 5.63843 15.9987 5.87281 15.9987 6.15406V6.95093C17.323 7.16187 18.0964 8.06421 18.2487 9.23609C18.3425 9.90406 17.944 10.2204 17.5339 10.2204C17.2058 10.2204 16.8894 9.98609 16.8542 9.59937C16.8073 8.96656 16.5261 8.48609 15.9987 8.29859V11.322L16.3855 11.5329C17.8151 12.3063 18.448 13.1149 18.448 14.2868C18.448 15.7868 17.4636 16.7478 15.9987 16.9235V17.7439C15.9987 18.0134 15.7644 18.2478 15.5066 18.2478ZM14.0417 9.43531C14.0417 10.0681 14.4284 10.4196 14.8972 10.7126L14.9909 10.7712V8.26343C14.405 8.39234 14.0417 8.82593 14.0417 9.43531ZM16.9714 14.3923C16.9714 13.8298 16.6081 13.3962 16.069 13.0798L15.9987 13.0329V15.5993C16.6198 15.4587 16.9714 15.0134 16.9714 14.3923Z" fill="white"/>
</g>
<defs>
<clipPath id="clip0_2207_26123">
<rect width="23.9062" height="23.918" fill="white" transform="translate(0.0378418 0.0251465)"/>
</clipPath>
</defs>
</svg>
