<svg width="22" height="22" viewBox="0 0 22 22" fill="none" xmlns="http://www.w3.org/2000/svg">
<g clip-path="url(#clip0_2207_25768)">
<path d="M3.7301 21.6228H17.9449C20.4059 21.6228 21.6246 20.404 21.6246 17.9899V3.6814C21.6246 1.26734 20.4059 0.048584 17.9449 0.048584H3.7301C1.28088 0.048584 0.050415 1.25562 0.050415 3.6814V17.9899C0.050415 20.4157 1.28088 21.6228 3.7301 21.6228ZM3.75354 19.736C2.58167 19.736 1.93713 19.1149 1.93713 17.8962V3.77515C1.93713 2.5564 2.58167 1.93531 3.75354 1.93531H17.9215C19.0816 1.93531 19.7379 2.5564 19.7379 3.77515V17.8962C19.7379 19.1149 19.0816 19.736 17.9215 19.736H3.75354Z" fill="black" fill-opacity="0.85"/>
<path d="M6.07385 13.2321C6.07385 13.5603 6.2965 13.8063 6.64807 13.8063H7.28088L6.70666 15.529C6.64807 15.7048 6.63635 15.822 6.63635 15.9157C6.63635 16.3142 6.95275 16.6071 7.39807 16.6071C7.76135 16.6071 8.01916 16.4313 8.13635 16.0329L8.83947 13.8063H12.8356L13.5387 16.0446C13.6559 16.4431 13.8902 16.6071 14.277 16.6071C14.7223 16.6071 15.0387 16.3142 15.0387 15.9157C15.0387 15.822 15.0152 15.7048 14.9566 15.529L14.3824 13.8063H15.027C15.3785 13.8063 15.6012 13.5603 15.6012 13.2321C15.6012 12.904 15.3785 12.6462 15.027 12.6462H14.0074L13.6793 11.6618H15.027C15.3785 11.6618 15.6012 11.404 15.6012 11.0759C15.6012 10.7478 15.3785 10.5017 15.027 10.5017H13.2926L11.734 5.8142C11.5934 5.39233 11.3121 5.13452 10.8316 5.13452C10.3512 5.13452 10.0582 5.38061 9.9176 5.8142L8.37072 10.5017H6.64807C6.2965 10.5017 6.07385 10.7478 6.07385 11.0759C6.07385 11.404 6.2965 11.6618 6.64807 11.6618H7.984L7.65588 12.6462H6.64807C6.2965 12.6462 6.07385 12.904 6.07385 13.2321ZM9.19103 12.6462L9.49572 11.6618H12.1676L12.484 12.6462H9.19103ZM9.84729 10.5017L10.8316 7.36108L11.816 10.5017H9.84729Z" fill="black" fill-opacity="0.85"/>
</g>
<defs>
<clipPath id="clip0_2207_25768">
<rect width="21.5742" height="21.5977" fill="white" transform="translate(0.050415 0.0251465)"/>
</clipPath>
</defs>
</svg>
