<svg width="24" height="24" viewBox="0 0 24 24" fill="none" xmlns="http://www.w3.org/2000/svg">
<g clip-path="url(#clip0_2207_25758)">
<path d="M11.9992 23.9313C18.5383 23.9313 23.9523 18.5056 23.9523 11.9782C23.9523 5.43921 18.5266 0.0251465 11.9875 0.0251465C5.4602 0.0251465 0.0461426 5.43921 0.0461426 11.9782C0.0461426 18.5056 5.47192 23.9313 11.9992 23.9313ZM11.9992 21.9392C6.46802 21.9392 2.05005 17.5095 2.05005 11.9782C2.05005 6.44703 6.4563 2.01734 11.9875 2.01734C17.5188 2.01734 21.9602 6.44703 21.9602 11.9782C21.9602 17.5095 17.5305 21.9392 11.9992 21.9392Z" fill="black" fill-opacity="0.85"/>
<path d="M7.21802 14.3923C7.21802 14.7204 7.44067 14.9665 7.79223 14.9665H8.42505L7.83911 16.6892C7.79223 16.8649 7.78052 16.9821 7.78052 17.0759C7.78052 17.4743 8.0852 17.7673 8.53052 17.7673C8.90552 17.7673 9.16333 17.5915 9.28052 17.1931L9.98364 14.9665H13.9797L14.6828 17.2048C14.8 17.6032 15.0344 17.7673 15.4211 17.7673C15.8664 17.7673 16.1828 17.4743 16.1828 17.0759C16.1828 16.9821 16.1594 16.8649 16.1008 16.6892L15.5149 14.9665H16.1711C16.5227 14.9665 16.7453 14.7204 16.7453 14.3923C16.7453 14.0642 16.5227 13.8063 16.1711 13.8063H15.1516L14.8234 12.822H16.1711C16.5227 12.822 16.7453 12.5642 16.7453 12.236C16.7453 11.9079 16.5227 11.6618 16.1711 11.6618H14.4367L12.8781 6.97437C12.7375 6.55249 12.4563 6.29468 11.9758 6.29468C11.4836 6.29468 11.2023 6.54077 11.0617 6.97437L9.51489 11.6618H7.79223C7.44067 11.6618 7.21802 11.9079 7.21802 12.236C7.21802 12.5642 7.44067 12.822 7.79223 12.822H9.12817L8.80005 13.8063H7.79223C7.44067 13.8063 7.21802 14.0642 7.21802 14.3923ZM10.3234 13.8063L10.6399 12.822H13.3117L13.6281 13.8063H10.3234ZM10.9914 11.6618L11.9758 8.52124L12.9602 11.6618H10.9914Z" fill="black" fill-opacity="0.85"/>
</g>
<defs>
<clipPath id="clip0_2207_25758">
<rect width="23.9062" height="23.918" fill="white" transform="translate(0.0461426 0.0251465)"/>
</clipPath>
</defs>
</svg>
