<svg width="22" height="22" viewBox="0 0 22 22" fill="none" xmlns="http://www.w3.org/2000/svg">
<g clip-path="url(#clip0_2207_26133)">
<path d="M3.72168 21.6228H17.9365C20.3975 21.6228 21.6162 20.404 21.6162 17.9899V3.6814C21.6162 1.26734 20.3975 0.048584 17.9365 0.048584H3.72168C1.27246 0.048584 0.0419922 1.25562 0.0419922 3.6814V17.9899C0.0419922 20.4157 1.27246 21.6228 3.72168 21.6228Z" fill="black" fill-opacity="0.85"/>
<path d="M4.10841 15.2947L6.45216 5.98999C6.59278 5.43921 7.00294 5.09937 7.55372 5.09937C8.08106 5.09937 8.4795 5.42749 8.62012 5.98999L10.8818 15.2947C11.0459 16.0096 10.624 16.3494 10.1553 16.3494C9.78028 16.3494 9.45216 16.1502 9.35841 15.7049L8.8545 13.4197H6.15919L5.667 15.7049C5.57325 16.1502 5.23341 16.3494 4.87012 16.3494C4.41309 16.3494 3.92091 16.0096 4.10841 15.2947ZM6.417 12.1893H8.59669L7.53028 7.40796H7.43653L6.417 12.1893ZM14.3506 17.0877C14.0693 17.0877 13.835 16.8533 13.835 16.5838V15.7518C12.4287 15.5877 11.5615 14.6971 11.3975 13.4549C11.292 12.8221 11.7022 12.4705 12.1123 12.4705C12.4404 12.4705 12.7217 12.6814 12.7686 13.0916C12.8272 13.8182 13.167 14.2986 13.835 14.4393V11.3338L13.4131 11.1229C12.1475 10.4783 11.3975 9.64624 11.3975 8.33374C11.3975 6.92749 12.4053 5.94312 13.835 5.77906V4.9939C13.835 4.71265 14.0693 4.47827 14.3506 4.47827C14.6084 4.47827 14.8428 4.71265 14.8428 4.9939V5.79077C16.167 6.00171 16.9522 6.90406 17.1045 8.07593C17.1982 8.7439 16.7881 9.06031 16.3779 9.06031C16.0498 9.06031 15.7451 8.82593 15.71 8.43921C15.6631 7.8064 15.3818 7.32593 14.8428 7.13843V10.1619L15.2412 10.3729C16.6592 11.1463 17.292 11.9549 17.292 13.1268C17.292 14.6268 16.3193 15.5877 14.8428 15.7635V16.5838C14.8428 16.8533 14.6084 17.0877 14.3506 17.0877ZM12.8858 8.27515C12.8858 8.90796 13.2725 9.25953 13.7412 9.55249L13.835 9.61109V7.10327C13.249 7.23218 12.8858 7.66577 12.8858 8.27515ZM15.8154 13.2322C15.8154 12.6697 15.4522 12.2361 14.9248 11.9197L14.8428 11.8729V14.4393C15.4639 14.2986 15.8154 13.8533 15.8154 13.2322Z" fill="white"/>
</g>
<defs>
<clipPath id="clip0_2207_26133">
<rect width="21.5742" height="21.5977" fill="white" transform="translate(0.0419922 0.0251465)"/>
</clipPath>
</defs>
</svg>
