<svg width="33" height="26" viewBox="0 0 33 26" fill="none" xmlns="http://www.w3.org/2000/svg">
<g clip-path="url(#clip0_2207_26114)">
<path d="M1.12341 23.2165C1.66248 23.2165 1.9906 22.9587 2.18982 22.3728L4.19373 16.8181H12.6898L14.682 22.3728C14.9047 22.9587 15.2094 23.2165 15.7719 23.2165C16.4047 23.2165 16.8617 22.8181 16.8617 22.2439C16.8617 22.0798 16.8383 21.904 16.7211 21.611L9.83045 3.17749C9.57263 2.46265 9.12732 2.13453 8.47107 2.13453C7.74451 2.13453 7.29919 2.47437 7.04138 3.18921L0.162475 21.6228C0.0570068 21.904 0.0335693 22.0798 0.0335693 22.2556C0.0335693 22.8181 0.478881 23.2165 1.12341 23.2165ZM4.84998 14.9548L8.41248 5.01734H8.49451L12.0336 14.9548H4.84998ZM25.8617 25.3962C26.2953 25.3962 26.6 25.0798 26.6 24.6345V22.6774C30.1274 22.4548 32.9281 20.4978 32.9281 17.1345C32.9281 14.1931 30.9125 12.6462 27.1859 11.7673L26.6 11.6384V4.57203C28.5922 4.77124 29.9633 5.87281 30.5141 7.67749C30.6898 8.21656 31.0297 8.5564 31.6039 8.5564C32.1898 8.5564 32.6117 8.16968 32.6117 7.58374C32.6117 7.37281 32.5766 7.18531 32.5297 6.97437C31.9086 4.52515 29.5531 2.87281 26.6 2.65015V0.786865C26.6 0.341552 26.2953 0.0251465 25.8617 0.0251465C25.4281 0.0251465 25.1234 0.341552 25.1234 0.786865V2.66187C21.7016 2.9314 19.1938 4.9939 19.1938 8.02906C19.1938 10.7829 21.057 12.5642 24.7016 13.2556L25.1234 13.3376V20.7673C22.6742 20.5563 21.3031 19.2673 20.8461 17.5329C20.6469 16.9353 20.2836 16.6423 19.768 16.6423C19.1938 16.6423 18.7719 17.0642 18.7719 17.6501C18.7719 17.8493 18.807 18.0485 18.8539 18.2595C19.4984 20.861 22.0531 22.4548 25.1234 22.6657V24.6345C25.1234 25.0798 25.4281 25.3962 25.8617 25.3962ZM25.1234 11.2634L24.9008 11.2165C22.3227 10.6071 21.3031 9.44703 21.3031 7.90015C21.3031 6.25953 22.7328 4.82984 25.1234 4.58374V11.2634ZM26.6 13.7009L26.8578 13.7478C29.8813 14.4743 30.8188 15.5642 30.8188 17.3103C30.8188 19.1618 29.4945 20.5915 26.6 20.7673V13.7009Z" fill="black" fill-opacity="0.85"/>
</g>
<defs>
<clipPath id="clip0_2207_26114">
<rect width="32.8945" height="25.3711" fill="white" transform="translate(0.0335693 0.0251465)"/>
</clipPath>
</defs>
</svg>
