<svg width="22" height="22" viewBox="0 0 22 22" fill="none" xmlns="http://www.w3.org/2000/svg">
<g clip-path="url(#clip0_2207_25773)">
<path d="M3.73218 21.6228H17.947C20.408 21.6228 21.6267 20.404 21.6267 17.9899V3.6814C21.6267 1.26734 20.408 0.048584 17.947 0.048584H3.73218C1.28296 0.048584 0.0524902 1.25562 0.0524902 3.6814V17.9899C0.0524902 20.4157 1.28296 21.6228 3.73218 21.6228Z" fill="black" fill-opacity="0.85"/>
<path d="M5.92358 13.3142C5.92358 12.9743 6.14624 12.7048 6.50952 12.7048H7.55249L7.89233 11.6853H6.50952C6.14624 11.6853 5.92358 11.4274 5.92358 11.0876C5.92358 10.7478 6.14624 10.4899 6.50952 10.4899H8.29077L9.88452 5.65014C10.0369 5.20483 10.3298 4.94702 10.8337 4.94702C11.3259 4.94702 11.6189 5.21655 11.7713 5.65014L13.3767 10.4899H15.1697C15.533 10.4899 15.7556 10.7478 15.7556 11.0876C15.7556 11.4274 15.533 11.6853 15.1697 11.6853H13.7752L14.115 12.7048H15.1697C15.533 12.7048 15.7556 12.9743 15.7556 13.3142C15.7556 13.654 15.533 13.9001 15.1697 13.9001H14.5017L15.0877 15.6696C15.1463 15.8571 15.1814 15.9743 15.1814 16.0798C15.1814 16.4899 14.8533 16.7946 14.3845 16.7946C13.9861 16.7946 13.74 16.6189 13.6228 16.2087L12.8963 13.9001H8.78296L8.0564 16.197C7.93921 16.6071 7.66968 16.7946 7.29468 16.7946C6.82593 16.7946 6.4978 16.4899 6.4978 16.0798C6.4978 15.9743 6.50952 15.8571 6.57983 15.6696L7.16577 13.9001H6.50952C6.14624 13.9001 5.92358 13.654 5.92358 13.3142ZM9.14624 12.7048H12.533L12.2048 11.6853H9.46265L9.14624 12.7048ZM9.82593 10.4899H11.8416L10.8337 7.25561L9.82593 10.4899Z" fill="white"/>
</g>
<defs>
<clipPath id="clip0_2207_25773">
<rect width="21.5742" height="21.5977" fill="white" transform="translate(0.0524902 0.0251465)"/>
</clipPath>
</defs>
</svg>
