<svg width="14" height="28" viewBox="0 0 14 28" fill="none" xmlns="http://www.w3.org/2000/svg">
<g clip-path="url(#clip0_2207_14753)">
<path d="M3.12988 27.4821H10.3955C12.2705 27.4821 13.4541 26.3337 13.4541 24.5642V2.9314C13.4541 1.16187 12.2705 0.0251465 10.3955 0.0251465H3.12988C1.25488 0.0251465 0.0712891 1.16187 0.0712891 2.9314V24.5642C0.0712891 26.3337 1.25488 27.4821 3.12988 27.4821ZM3.3291 25.7712C2.3916 25.7712 1.80567 25.2087 1.80567 24.3181V3.18921C1.80567 2.29859 2.3916 1.73609 3.3291 1.73609H10.1963C11.1338 1.73609 11.7197 2.29859 11.7197 3.18921V24.3181C11.7197 25.2087 11.1338 25.7712 10.1963 25.7712H3.3291ZM7.47754 4.52515H9.97363C10.3838 4.52515 10.7119 4.20874 10.7119 3.79859C10.7119 3.37671 10.3838 3.06031 9.97363 3.06031H7.47754C7.06738 3.06031 6.73926 3.37671 6.73926 3.79859C6.73926 4.20874 7.06738 4.52515 7.47754 4.52515ZM3.90332 8.88453C4.53613 8.88453 5.04004 8.39234 5.04004 7.74781C5.04004 7.12671 4.53613 6.61109 3.90332 6.61109C3.27051 6.61109 2.7666 7.12671 2.7666 7.74781C2.7666 8.39234 3.27051 8.88453 3.90332 8.88453ZM6.7627 8.88453C7.39551 8.88453 7.89941 8.39234 7.89941 7.74781C7.89941 7.12671 7.39551 6.61109 6.7627 6.61109C6.12988 6.61109 5.62598 7.12671 5.62598 7.74781C5.62598 8.39234 6.12988 8.88453 6.7627 8.88453ZM9.63379 8.88453C10.2666 8.88453 10.7705 8.39234 10.7705 7.74781C10.7705 7.12671 10.2666 6.61109 9.63379 6.61109C9.00098 6.61109 8.49707 7.12671 8.49707 7.74781C8.49707 8.39234 9.00098 8.88453 9.63379 8.88453ZM3.90332 12.1657C4.53613 12.1657 5.04004 11.6618 5.04004 11.029C5.04004 10.4079 4.53613 9.89234 3.90332 9.89234C3.27051 9.89234 2.7666 10.4079 2.7666 11.029C2.7666 11.6618 3.27051 12.1657 3.90332 12.1657ZM6.7627 12.1657C7.39551 12.1657 7.89941 11.6618 7.89941 11.029C7.89941 10.4079 7.39551 9.89234 6.7627 9.89234C6.12988 9.89234 5.62598 10.4079 5.62598 11.029C5.62598 11.6618 6.12988 12.1657 6.7627 12.1657ZM9.63379 12.1657C10.2666 12.1657 10.7705 11.6618 10.7705 11.029C10.7705 10.4079 10.2666 9.89234 9.63379 9.89234C9.00098 9.89234 8.49707 10.4079 8.49707 11.029C8.49707 11.6618 9.00098 12.1657 9.63379 12.1657ZM3.90332 15.4353C4.53613 15.4353 5.04004 14.9431 5.04004 14.2985C5.04004 13.6774 4.53613 13.1618 3.90332 13.1618C3.27051 13.1618 2.7666 13.6774 2.7666 14.2985C2.7666 14.9431 3.27051 15.4353 3.90332 15.4353ZM6.7627 15.4353C7.39551 15.4353 7.89941 14.9196 7.89941 14.2985C7.89941 13.6657 7.39551 13.1618 6.7627 13.1618C6.12988 13.1618 5.62598 13.6657 5.62598 14.2985C5.62598 14.9196 6.12988 15.4353 6.7627 15.4353ZM9.63379 15.4353C10.2666 15.4353 10.7705 14.9196 10.7705 14.2985C10.7705 13.6657 10.2666 13.1618 9.63379 13.1618C9.00098 13.1618 8.49707 13.6657 8.49707 14.2985C8.49707 14.9196 9.00098 15.4353 9.63379 15.4353ZM3.64551 23.2165C4.1377 23.2165 4.52441 22.8181 4.52441 22.3376V18.1892C4.52441 17.697 4.1377 17.3103 3.64551 17.3103C3.16504 17.3103 2.7666 17.697 2.7666 18.1892V22.3376C2.7666 22.8181 3.16504 23.2165 3.64551 23.2165ZM6.18848 19.8181H7.3252C7.72363 19.8181 7.94629 19.5837 7.94629 19.2087V18.447C7.94629 18.0603 7.72363 17.8259 7.3252 17.8259H6.18848C5.81348 17.8259 5.5791 18.0603 5.5791 18.447V19.2087C5.5791 19.5837 5.81348 19.8181 6.18848 19.8181ZM6.18848 22.6892H7.3252C7.72363 22.6892 7.94629 22.4665 7.94629 22.0798V21.3181C7.94629 20.9313 7.72363 20.7087 7.3252 20.7087H6.18848C5.81348 20.7087 5.5791 20.9313 5.5791 21.3181V22.0798C5.5791 22.4665 5.81348 22.6892 6.18848 22.6892ZM9.8916 23.2165C10.3721 23.2165 10.7705 22.8181 10.7705 22.3376V18.1892C10.7705 17.697 10.3721 17.3103 9.8916 17.3103C9.39941 17.3103 9.0127 17.697 9.0127 18.1892V22.3376C9.0127 22.8181 9.39941 23.2165 9.8916 23.2165Z" fill="black" fill-opacity="0.85"/>
</g>
<defs>
<clipPath id="clip0_2207_14753">
<rect width="13.3828" height="27.457" fill="white" transform="translate(0.0712891 0.0251465)"/>
</clipPath>
</defs>
</svg>
