<svg width="22" height="26" viewBox="0 0 22 26" fill="none" xmlns="http://www.w3.org/2000/svg">
<g clip-path="url(#clip0_2207_17292)">
<path d="M1.16396 7.82911L2.04287 8.14552C2.95693 8.48536 3.8124 8.06349 4.15224 7.12599L5.80458 2.59083C6.14443 1.65333 5.75771 0.797859 4.84365 0.458015L3.96474 0.141609C3.05068 -0.198235 2.20693 0.22364 1.85537 1.17286L0.214743 5.6963C-0.136819 6.6338 0.249899 7.48927 1.16396 7.82911ZM16.5976 7.82911L17.4882 8.14552C18.4023 8.48536 19.246 8.06349 19.5859 7.12599L21.2382 2.59083C21.5898 1.65333 21.1913 0.797859 20.289 0.458015L19.3984 0.141609C18.4843 -0.198235 17.6523 0.22364 17.3007 1.17286L15.6484 5.6963C15.3085 6.6338 15.6952 7.50099 16.5976 7.82911ZM2.53505 25.208H3.47255C4.44521 25.208 5.10146 24.5283 5.10146 23.5322V18.7158C5.10146 17.708 4.44521 17.0283 3.47255 17.0283H2.53505C1.57412 17.0283 0.917868 17.708 0.917868 18.7158V23.5322C0.917868 24.5283 1.57412 25.208 2.53505 25.208ZM17.9687 25.208H18.9062C19.8788 25.208 20.5351 24.5283 20.5351 23.5322V18.7158C20.5351 17.708 19.8788 17.0283 18.9062 17.0283H17.9687C17.0077 17.0283 16.3515 17.708 16.3515 18.7158V23.5322C16.3515 24.5283 17.0077 25.208 17.9687 25.208ZM4.17568 5.08693H17.289V3.20021H4.17568V5.08693ZM9.77724 3.20021V17.708C9.89443 17.79 9.9999 17.8603 10.1054 17.9658L10.6679 18.5166L11.3241 17.8486C11.4296 17.7314 11.5468 17.6494 11.664 17.5791V3.20021H9.77724ZM4.17568 22.0673H7.17568C7.23427 21.9502 7.32802 21.8447 7.42177 21.7509L8.10146 21.083L7.53896 20.5205C7.44521 20.415 7.35146 20.2978 7.28115 20.1806H4.17568V22.0673ZM17.289 22.0673V20.1806H14.2187C14.1601 20.2861 14.0663 20.4033 13.9726 20.497L13.3046 21.1533L13.8554 21.7275C13.9491 21.833 14.0429 21.9384 14.1132 22.0673H17.289Z" fill="black" fill-opacity="0.85"/>
<path d="M8.14831 23.6728C8.41785 23.9423 8.85144 24.0009 9.14441 23.708L10.7382 22.1259L12.2265 23.6025C12.496 23.8603 12.9179 23.8486 13.1874 23.6025C13.4452 23.3564 13.4452 22.9111 13.1874 22.6533L11.6991 21.1533L13.2929 19.5713C13.5859 19.2783 13.5273 18.8447 13.2577 18.5634C12.9765 18.2939 12.5429 18.2353 12.2499 18.5283L10.6679 20.1103L9.16785 18.6338C8.89831 18.3759 8.47644 18.3877 8.20691 18.6338C7.9491 18.8798 7.9491 19.3134 8.20691 19.5947L9.69519 21.083L8.11316 22.665C7.82019 22.9697 7.86706 23.4033 8.14831 23.6728Z" fill="black" fill-opacity="0.85"/>
</g>
<defs>
<clipPath id="clip0_2207_17292">
<rect width="21.279" height="25.229" fill="white" transform="translate(0.0861816 0.0251465)"/>
</clipPath>
</defs>
</svg>
