<svg width="24" height="24" viewBox="0 0 24 24" fill="none" xmlns="http://www.w3.org/2000/svg">
<g clip-path="url(#clip0_2207_1724)">
<path d="M11.9573 23.9446C18.4964 23.9446 23.9104 18.5305 23.9104 11.9914C23.9104 5.46411 18.4846 0.0383301 11.9455 0.0383301C5.41821 0.0383301 0.00415039 5.46411 0.00415039 11.9914C0.00415039 18.5305 5.42993 23.9446 11.9573 23.9446Z" fill="black" fill-opacity="0.85"/>
<path d="M10.0589 19.3508C7.93775 19.3508 6.88307 18.2727 6.89478 16.1047C6.92994 13.6321 6.94166 11.8391 7.00025 10.5032C7.14088 7.38599 7.85572 6.00318 9.95338 5.56959C10.0823 4.60865 10.8675 3.92896 11.9456 3.92896C13.0237 3.92896 13.8089 4.60865 13.9378 5.56959C16.0354 6.00318 16.7503 7.38599 16.8909 10.5032C16.9495 11.8391 16.9612 13.6321 16.9964 16.1047C17.0081 18.2727 15.9534 19.3508 13.8323 19.3508H10.0589ZM10.9378 5.42896C11.2542 5.40553 11.5823 5.39381 11.9456 5.39381C12.3089 5.39381 12.637 5.40553 12.9534 5.42896C12.7776 5.0774 12.4144 4.84303 11.9456 4.84303C11.4769 4.84303 11.1136 5.0774 10.9378 5.42896ZM9.0276 13.6672H14.8636V12.8821C14.8636 12.3664 14.5354 12.0266 13.9964 12.0266H9.9065C9.36744 12.0266 9.0276 12.3664 9.0276 12.8821V13.6672ZM9.9065 16.9133H13.9964C14.5354 16.9133 14.8636 16.5735 14.8636 16.0461V14.4289H9.0276V16.0461C9.0276 16.5735 9.36744 16.9133 9.9065 16.9133Z" fill="white"/>
</g>
<defs>
<clipPath id="clip0_2207_1724">
<rect width="23.9062" height="23.918" fill="white" transform="translate(0.00415039 0.0266113)"/>
</clipPath>
</defs>
</svg>
