<svg width="20" height="31" viewBox="0 0 20 31" fill="none" xmlns="http://www.w3.org/2000/svg">
<g clip-path="url(#clip0_2207_1715)">
<path d="M6.0654 29.4172H13.2255C17.3036 29.4172 19.3193 27.3547 19.2841 23.2297C19.2372 18.5188 19.2138 15.0969 19.0966 12.5305C18.7568 4.98364 16.6357 2.7688 9.65133 2.7688C2.66696 2.7688 0.534144 4.98364 0.1943 12.5305C0.0771122 15.0969 0.0536747 18.5188 0.00679966 23.2297C-0.0283565 27.3547 1.98727 29.4172 6.0654 29.4172ZM5.72555 24.7649C4.71774 24.7649 4.07321 24.1086 4.07321 23.1243V17.0774C4.07321 16.0813 4.71774 15.425 5.72555 15.425H13.5771C14.5732 15.425 15.2177 16.0813 15.2177 17.0774V23.1243C15.2177 24.1086 14.5732 24.7649 13.5771 24.7649H5.72555ZM4.07321 19.9368H15.2177V18.5422H4.07321V19.9368ZM9.65133 0.0266113C7.40133 0.0266113 5.8193 1.55005 5.8193 3.62427H7.47165C7.47165 2.48755 8.36227 1.67895 9.65133 1.67895C10.9286 1.67895 11.831 2.48755 11.831 3.62427H13.4833C13.4833 1.55005 11.8896 0.0266113 9.65133 0.0266113Z" fill="black" fill-opacity="0.85"/>
</g>
<defs>
<clipPath id="clip0_2207_1715">
<rect width="19.2782" height="30.5977" fill="white" transform="translate(0.00634766 0.0266113)"/>
</clipPath>
</defs>
</svg>
