<svg width="22" height="20" viewBox="0 0 22 20" fill="none" xmlns="http://www.w3.org/2000/svg">
<g clip-path="url(#clip0_2207_5232)">
<path d="M1.58374 19.1164H4.25562C5.27515 19.1164 5.81421 18.5774 5.81421 17.5461V1.5852C5.81421 0.518799 5.27515 0.0266113 4.25562 0.0266113H1.58374C0.564209 0.0266113 0.0251465 0.565673 0.0251465 1.5852V17.5461C0.0251465 18.5774 0.564209 19.1164 1.58374 19.1164ZM20.2282 18.7649C21.154 18.7649 21.9157 18.0735 21.9157 16.761V2.37036C21.9157 1.05786 21.154 0.354736 20.2282 0.354736C19.7478 0.354736 19.361 0.50708 18.8806 0.78833L6.93921 7.81958C6.10718 8.31177 5.75562 8.88599 5.75562 9.56567C5.75562 10.2336 6.10718 10.8196 6.93921 11.3118L18.8806 18.3313C19.361 18.6125 19.7478 18.7649 20.2282 18.7649Z" fill="black" fill-opacity="0.85"/>
</g>
<defs>
<clipPath id="clip0_2207_5232">
<rect width="21.8906" height="19.0898" fill="white" transform="translate(0.0251465 0.0266113)"/>
</clipPath>
</defs>
</svg>
