<svg width="21" height="24" viewBox="0 0 21 24" fill="none" xmlns="http://www.w3.org/2000/svg">
<g clip-path="url(#clip0_2207_9988)">
<path d="M3.71753 23.6047H17.5105C19.6081 23.6047 20.8386 22.386 20.8386 19.9719V7.84302C20.8386 5.42895 19.5964 4.2102 17.1589 4.2102H3.71753C1.26831 4.2102 0.0378418 5.41723 0.0378418 7.84302V19.9719C0.0378418 22.3977 1.26831 23.6047 3.71753 23.6047ZM3.74096 21.718C2.56909 21.718 1.92456 21.0969 1.92456 19.8782V7.93677C1.92456 6.71802 2.56909 6.09692 3.74096 6.09692H17.1237C18.2839 6.09692 18.9519 6.71802 18.9519 7.93677V19.8782C18.9519 21.0969 18.2839 21.718 17.4753 21.718H3.74096ZM5.81518 4.66723L7.7019 4.67895C7.7019 3.00317 8.80346 1.80786 10.4323 1.80786C12.0612 1.80786 13.1745 3.00317 13.1745 4.67895L15.0612 4.66723C15.0612 2.07739 13.0573 0.0266113 10.4323 0.0266113C7.80737 0.0266113 5.81518 2.07739 5.81518 4.66723Z" fill="black" fill-opacity="0.85"/>
</g>
<defs>
<clipPath id="clip0_2207_9988">
<rect width="20.8008" height="23.5898" fill="white" transform="translate(0.0378418 0.0266113)"/>
</clipPath>
</defs>
</svg>
