<svg width="24" height="24" viewBox="0 0 24 24" fill="none" xmlns="http://www.w3.org/2000/svg">
<g clip-path="url(#clip0_2207_9996)">
<path d="M11.9992 23.9328C18.5383 23.9328 23.9523 18.5071 23.9523 11.9797C23.9523 5.44067 18.5266 0.0266113 11.9875 0.0266113C5.4602 0.0266113 0.0461426 5.44067 0.0461426 11.9797C0.0461426 18.5071 5.47192 23.9328 11.9992 23.9328ZM11.9992 21.9407C6.46802 21.9407 2.05005 17.511 2.05005 11.9797C2.05005 6.44849 6.4563 2.0188 11.9875 2.0188C17.5188 2.0188 21.9602 6.44849 21.9602 11.9797C21.9602 17.511 17.5305 21.9407 11.9992 21.9407Z" fill="black" fill-opacity="0.85"/>
<path d="M8.50709 17.7219H15.6789C16.7805 17.7219 17.4133 17.0891 17.4133 15.8469V9.5188C17.4133 8.26489 16.7688 7.6438 15.4914 7.6438H14.5188C14.4953 6.35473 13.382 5.26489 11.9992 5.26489C10.6164 5.26489 9.50317 6.35473 9.47973 7.6438H8.50709C7.22974 7.6438 6.58521 8.26489 6.58521 9.5188V15.8469C6.58521 17.1008 7.22974 17.7219 8.50709 17.7219ZM10.6047 7.6438C10.6399 6.8352 11.1672 6.3313 11.9992 6.3313C12.8313 6.3313 13.3586 6.8352 13.3938 7.6438H10.6047Z" fill="black" fill-opacity="0.85"/>
</g>
<defs>
<clipPath id="clip0_2207_9996">
<rect width="23.9062" height="23.918" fill="white" transform="translate(0.0461426 0.0266113)"/>
</clipPath>
</defs>
</svg>
