<svg width="21" height="24" viewBox="0 0 21 24" fill="none" xmlns="http://www.w3.org/2000/svg">
<g clip-path="url(#clip0_2207_9992)">
<path d="M3.7301 23.6047H17.5231C19.6207 23.6047 20.8512 22.386 20.8512 19.9719V7.84302C20.8512 5.42895 19.609 4.2102 17.1715 4.2102H3.7301C1.28088 4.2102 0.050415 5.41723 0.050415 7.84302V19.9719C0.050415 22.3977 1.28088 23.6047 3.7301 23.6047ZM5.82775 4.66723L7.71448 4.67895C7.71448 3.00317 8.81603 1.80786 10.4449 1.80786C12.0738 1.80786 13.1871 3.00317 13.1871 4.67895L15.0738 4.66723C15.0738 2.07739 13.0699 0.0266113 10.4449 0.0266113C7.81994 0.0266113 5.82775 2.07739 5.82775 4.66723Z" fill="black" fill-opacity="0.85"/>
</g>
<defs>
<clipPath id="clip0_2207_9992">
<rect width="20.8008" height="23.5898" fill="white" transform="translate(0.050415 0.0266113)"/>
</clipPath>
</defs>
</svg>
