<svg width="22" height="22" viewBox="0 0 22 22" fill="none" xmlns="http://www.w3.org/2000/svg">
<g clip-path="url(#clip0_2207_26061)">
<path d="M3.74683 21.6243H17.9616C20.4226 21.6243 21.6413 20.4055 21.6413 17.9914V3.68286C21.6413 1.2688 20.4226 0.0500488 17.9616 0.0500488H3.74683C1.29761 0.0500488 0.0671387 1.25708 0.0671387 3.68286V17.9914C0.0671387 20.4172 1.29761 21.6243 3.74683 21.6243Z" fill="black" fill-opacity="0.85"/>
<path d="M11.0593 17.9563C10.7312 17.9563 10.4733 17.7102 10.4733 17.3586V16.55H8.65698C8.09448 16.55 7.70776 16.1633 7.70776 15.6008V6.26099C7.70776 5.68677 8.1062 5.30005 8.65698 5.30005H10.4733V4.38599C10.4733 4.04614 10.7312 3.80005 11.0593 3.80005C11.3991 3.80005 11.6452 4.04614 11.6452 4.38599V5.30005H11.8093C13.6726 5.30005 14.9382 6.50708 14.9382 8.18286C14.9382 9.21411 14.3054 10.1633 13.4148 10.5969C14.6687 10.9719 15.4773 11.9914 15.4773 13.3625C15.4773 15.3196 14.0593 16.55 11.8093 16.55H11.6452V17.3586C11.6452 17.7102 11.3991 17.9563 11.0593 17.9563ZM9.26636 15.1321L10.4733 15.1204V11.4641H9.26636V15.1321ZM11.6452 15.1086C13.1687 15.05 13.9304 14.4289 13.9304 13.2922C13.9304 12.1789 13.1687 11.5578 11.6452 11.4758V15.1086ZM9.26636 10.0578H10.4733V6.7063H9.26636V10.0578ZM11.6452 9.98755C12.7937 9.8352 13.3679 9.24927 13.3679 8.30005C13.3679 7.37427 12.7702 6.8352 11.6452 6.74145V9.98755Z" fill="white"/>
</g>
<defs>
<clipPath id="clip0_2207_26061">
<rect width="21.5742" height="21.5977" fill="white" transform="translate(0.0671387 0.0266113)"/>
</clipPath>
</defs>
</svg>
