<svg width="24" height="24" viewBox="0 0 24 24" fill="none" xmlns="http://www.w3.org/2000/svg">
<g clip-path="url(#clip0_2207_26051)">
<path d="M12.0161 23.9328C18.5552 23.9328 23.9692 18.5071 23.9692 11.9797C23.9692 5.44067 18.5435 0.0266113 12.0044 0.0266113C5.47705 0.0266113 0.0629883 5.44067 0.0629883 11.9797C0.0629883 18.5071 5.48877 23.9328 12.0161 23.9328Z" fill="black" fill-opacity="0.85"/>
<path d="M12.2153 19.1164C11.8872 19.1164 11.6294 18.8704 11.6294 18.5188V17.7102H9.81299C9.25049 17.7102 8.86377 17.3235 8.86377 16.761V7.42114C8.86377 6.84693 9.26221 6.46021 9.81299 6.46021H11.6294V5.54614C11.6294 5.2063 11.8872 4.96021 12.2153 4.96021C12.5552 4.96021 12.8013 5.2063 12.8013 5.54614V6.46021H12.9653C14.8286 6.46021 16.0825 7.66724 16.0825 9.34303C16.0825 10.3743 15.4497 11.3235 14.5708 11.7571C15.8247 12.1321 16.6333 13.1516 16.6333 14.5227C16.6333 16.4797 15.2153 17.7102 12.9653 17.7102H12.8013V18.5188C12.8013 18.8704 12.5552 19.1164 12.2153 19.1164ZM10.4224 16.2922L11.6294 16.2805V12.6243H10.4224V16.2922ZM12.8013 16.2688C14.3247 16.2102 15.0864 15.5891 15.0864 14.4524C15.0864 13.3391 14.3247 12.718 12.8013 12.636V16.2688ZM10.4107 11.218H11.6294V7.86646H10.4224L10.4107 11.218ZM12.8013 11.1477C13.9497 10.9954 14.5239 10.4094 14.5239 9.46021C14.5239 8.53443 13.9263 7.99537 12.8013 7.90162V11.1477Z" fill="white"/>
</g>
<defs>
<clipPath id="clip0_2207_26051">
<rect width="23.9062" height="23.918" fill="white" transform="translate(0.0629883 0.0266113)"/>
</clipPath>
</defs>
</svg>
