<svg width="24" height="24" viewBox="0 0 24 24" fill="none" xmlns="http://www.w3.org/2000/svg">
<g clip-path="url(#clip0_2207_26046)">
<path d="M12.0141 23.9328C18.5532 23.9328 23.9672 18.5071 23.9672 11.9797C23.9672 5.44067 18.5415 0.0266113 12.0024 0.0266113C5.47509 0.0266113 0.0610352 5.44067 0.0610352 11.9797C0.0610352 18.5071 5.48682 23.9328 12.0141 23.9328ZM12.0141 21.9407C6.48292 21.9407 2.06495 17.511 2.06495 11.9797C2.06495 6.44849 6.47119 2.0188 12.0024 2.0188C17.5337 2.0188 21.9751 6.44849 21.9751 11.9797C21.9751 17.511 17.5454 21.9407 12.0141 21.9407Z" fill="black" fill-opacity="0.85"/>
<path d="M12.1899 18.8938C12.518 18.8938 12.7641 18.6594 12.7641 18.3196V17.5344H12.9165C15.0962 17.5344 16.479 16.3391 16.479 14.4407C16.479 13.1164 15.6938 12.1321 14.4751 11.7688C15.3305 11.3469 15.9399 10.4211 15.9399 9.42505C15.9399 7.80786 14.7212 6.63599 12.9165 6.63599H12.7641V5.74536C12.7641 5.41723 12.518 5.18286 12.1899 5.18286C11.8735 5.18286 11.6274 5.41723 11.6274 5.74536V6.63599H9.86963C9.33057 6.63599 8.94385 7.01099 8.94385 7.56177V16.6204C8.94385 17.1594 9.31885 17.5344 9.86963 17.5344H11.6274V18.3196C11.6274 18.6594 11.8735 18.8938 12.1899 18.8938ZM10.4555 16.1633V12.6008H11.6274V16.1516L10.4555 16.1633ZM12.7641 16.1399V12.6125C14.2407 12.6946 14.979 13.2922 14.979 14.3821C14.979 15.4836 14.2407 16.0813 12.7641 16.1399ZM10.4438 11.2414L10.4555 7.99536H11.6274V11.2414H10.4438ZM12.7641 11.1828V8.0188C13.854 8.11255 14.4399 8.63989 14.4399 9.54223C14.4399 10.4563 13.8774 11.0305 12.7641 11.1828Z" fill="black" fill-opacity="0.85"/>
</g>
<defs>
<clipPath id="clip0_2207_26046">
<rect width="23.9062" height="23.918" fill="white" transform="translate(0.0610352 0.0266113)"/>
</clipPath>
</defs>
</svg>
