<svg width="25" height="36" viewBox="0 0 25 36" fill="none" xmlns="http://www.w3.org/2000/svg">
<g clip-path="url(#clip0_2207_12112)">
<path d="M4.6438 21.2844L4.15161 23.2063C4.04615 23.6282 4.2688 24.0735 4.80787 24.0735H7.46802C8.03052 24.0735 8.22974 23.6282 8.12427 23.2063L7.63208 21.2844H4.6438ZM6.02661 33.6711C6.44849 33.6711 6.78833 33.3313 6.78833 32.9328C6.78833 30.6946 8.7688 30.3899 8.7688 28.1633C8.7688 25.8078 6.84693 25.6907 6.87037 23.6282H5.3938C5.38208 26.4407 7.30396 26.5813 7.30396 28.1633C7.30396 29.7219 5.31177 29.7454 5.31177 32.9328C5.31177 33.3313 5.62818 33.6711 6.02661 33.6711ZM0.0734863 13.7141C0.0734863 18.343 2.81568 22.1164 6.36646 22.1164C9.92896 22.1164 12.6712 18.343 12.6712 13.7141C12.6712 10.1282 10.2688 7.13989 6.36646 7.13989C2.47583 7.13989 0.0734863 10.1282 0.0734863 13.7141Z" fill="black" fill-opacity="0.85"/>
<path d="M15.0501 21.1789C20.3235 21.1789 24.2141 15.8 24.2141 9.40161C24.2141 4.10473 20.4407 0.0266113 15.0501 0.0266113C9.64771 0.0266113 5.88599 4.10473 5.88599 9.40161C5.88599 15.8 9.77661 21.1789 15.0501 21.1789Z" fill="white"/>
<path d="M15.0501 19.5735C19.2923 19.5735 22.6204 15.05 22.6204 9.40161C22.6204 4.9602 19.5149 1.62036 15.0501 1.62036C10.5735 1.62036 7.49146 4.9602 7.49146 9.40161C7.49146 15.05 10.7962 19.5735 15.0501 19.5735ZM13.4094 18.7649L12.8469 20.8743C12.7297 21.343 12.9876 21.8469 13.5735 21.8469H16.5149C17.1126 21.8469 17.3821 21.343 17.2415 20.8743L16.679 18.7649H13.4094ZM14.8977 33.5071C15.3547 33.5071 15.7415 33.1204 15.7415 32.6633C15.7415 30.0969 18.0735 29.4993 18.0735 26.8977C18.0735 24.2258 15.8118 23.7219 15.8352 21.3899L14.1712 21.4016C14.1594 24.5774 16.4212 25.0696 16.4212 26.8977C16.4212 28.761 14.0774 29.0422 14.0774 32.6633C14.0774 33.1204 14.4407 33.5071 14.8977 33.5071Z" fill="black" fill-opacity="0.85"/>
</g>
<defs>
<clipPath id="clip0_2207_12112">
<rect width="24.1406" height="35.2383" fill="white" transform="translate(0.0734863 0.0266113)"/>
</clipPath>
</defs>
</svg>
