<svg width="24" height="23" viewBox="0 0 24 23" fill="none" xmlns="http://www.w3.org/2000/svg">
<g clip-path="url(#clip0_2207_18896)">
<path d="M1.02563 7.50317C1.64672 7.50317 1.97485 7.15161 1.97485 6.54223V3.77661C1.97485 2.55786 2.61938 1.93677 3.79125 1.93677H6.62719C7.24829 1.93677 7.58813 1.59692 7.58813 0.987549C7.58813 0.378173 7.24829 0.0500488 6.62719 0.0500488H3.76782C1.3186 0.0500488 0.0881348 1.25708 0.0881348 3.67114V6.54223C0.0881348 7.15161 0.427979 7.50317 1.02563 7.50317ZM22.0842 7.50317C22.7053 7.50317 23.0334 7.15161 23.0334 6.54223V3.67114C23.0334 1.25708 21.8029 0.0500488 19.3537 0.0500488H16.4826C15.8733 0.0500488 15.5334 0.378173 15.5334 0.987549C15.5334 1.59692 15.8733 1.93677 16.4826 1.93677H19.3186C20.4787 1.93677 21.1467 2.55786 21.1467 3.77661V6.54223C21.1467 7.15161 21.4865 7.50317 22.0842 7.50317ZM3.76782 22.9836H6.62719C7.24829 22.9836 7.58813 22.6438 7.58813 22.0461C7.58813 21.4368 7.24829 21.0969 6.62719 21.0969H3.79125C2.61938 21.0969 1.97485 20.4758 1.97485 19.2571V16.4914C1.97485 15.8704 1.63501 15.5305 1.02563 15.5305C0.41626 15.5305 0.0881348 15.8704 0.0881348 16.4914V19.3508C0.0881348 21.7766 1.3186 22.9836 3.76782 22.9836ZM16.4826 22.9836H19.3537C21.8029 22.9836 23.0334 21.7649 23.0334 19.3508V16.4914C23.0334 15.8704 22.6936 15.5305 22.0842 15.5305C21.4748 15.5305 21.1467 15.8704 21.1467 16.4914V19.2571C21.1467 20.4758 20.4787 21.0969 19.3186 21.0969H16.4826C15.8733 21.0969 15.5334 21.4368 15.5334 22.0461C15.5334 22.6438 15.8733 22.9836 16.4826 22.9836Z" fill="black" fill-opacity="0.85"/>
<path d="M6.20532 16.2805H7.04907V6.75317H6.20532V16.2805ZM8.10375 16.2805H9.68579V6.75317H8.10375V16.2805ZM10.3889 16.2805H11.385V6.75317H10.3889V16.2805ZM12.2756 16.2805H13.8108V6.75317H12.2756V16.2805ZM14.4436 16.2805H15.674V6.75317H14.4436V16.2805ZM16.1193 16.2805H16.9045V6.75317H16.1193V16.2805Z" fill="black" fill-opacity="0.85"/>
</g>
<defs>
<clipPath id="clip0_2207_18896">
<rect width="22.9453" height="22.957" fill="white" transform="translate(0.0881348 0.0266113)"/>
</clipPath>
</defs>
</svg>
