<svg width="24" height="24" viewBox="0 0 24 24" fill="none" xmlns="http://www.w3.org/2000/svg">
<g clip-path="url(#clip0_2207_22098)">
<path d="M11.9804 23.9343C18.5195 23.9343 23.9335 18.5086 23.9335 11.9812C23.9335 5.44214 18.5078 0.0280762 11.9687 0.0280762C5.4414 0.0280762 0.0273438 5.44214 0.0273438 11.9812C0.0273438 18.5086 5.45312 23.9343 11.9804 23.9343Z" fill="black" fill-opacity="0.85"/>
<path d="M7.55078 15.7429C6.63672 15.7429 5.80468 15.6609 5.19531 15.075C4.62109 14.4773 4.52734 13.6453 4.52734 12.7547V11.2078C4.52734 10.3172 4.62109 9.4851 5.19531 8.88745C5.80468 8.30151 6.64843 8.20776 7.55078 8.20776H15.6718C16.5625 8.20776 17.4062 8.30151 17.9921 8.88745C18.5781 9.4851 18.6835 10.3172 18.6835 11.2078V12.7547C18.6835 13.6453 18.5781 14.4773 17.9921 15.075C17.4062 15.6609 16.5742 15.7429 15.6718 15.7429H7.55078ZM7.38672 14.3953H15.8242C16.3984 14.3953 16.8085 14.2898 17.0195 14.0789C17.207 13.8914 17.3359 13.4812 17.3359 12.8953V11.0554C17.3359 10.4812 17.207 10.0711 17.0195 9.88354C16.8085 9.66088 16.3867 9.55541 15.8242 9.55541H7.38672C6.8125 9.55541 6.40234 9.66088 6.1914 9.87182C5.99218 10.0593 5.91015 10.4578 5.91015 11.0554V12.8953C5.91015 13.4929 5.99218 13.8914 6.1914 14.0789C6.40234 14.2898 6.80078 14.3953 7.38672 14.3953ZM7.44531 13.6804C7.1289 13.6804 6.91796 13.6453 6.78906 13.5164C6.67187 13.3875 6.61328 13.1883 6.61328 12.8601V11.0789C6.61328 10.7508 6.67187 10.5633 6.78906 10.4226C6.91796 10.3054 7.1289 10.2586 7.44531 10.2586H15.7773C16.1054 10.2586 16.2929 10.3054 16.4218 10.4226C16.5625 10.5633 16.6211 10.7625 16.6211 11.0789V12.8601C16.6211 13.1765 16.5625 13.3758 16.4218 13.5164C16.2929 13.6453 16.1054 13.6804 15.7773 13.6804H7.44531ZM19.2109 13.4109V10.5515C19.6328 10.5867 20.2304 11.1492 20.2304 11.9812C20.2304 12.8133 19.6328 13.3758 19.2109 13.4109Z" fill="white"/>
</g>
<defs>
<clipPath id="clip0_2207_22098">
<rect width="23.9062" height="23.918" fill="white" transform="translate(0.0273438 0.0280762)"/>
</clipPath>
</defs>
</svg>
