<svg width="35" height="16" viewBox="0 0 35 16" fill="none" xmlns="http://www.w3.org/2000/svg">
<g clip-path="url(#clip0_2207_22088)">
<path d="M6.26709 15.8836H24.689C26.6929 15.8836 28.3804 15.6961 29.5757 14.5008C30.771 13.3054 30.9468 11.6414 30.9468 9.63746V6.27417C30.9468 4.27027 30.771 2.6062 29.5757 1.41089C28.3804 0.215576 26.6929 0.0280762 24.689 0.0280762H6.24366C4.27491 0.0280762 2.58741 0.215576 1.39209 1.41089C0.196777 2.6062 0.0209961 4.28199 0.0209961 6.23902V9.63746C0.0209961 11.6414 0.196777 13.3054 1.39209 14.5008C2.58741 15.6961 4.27491 15.8836 6.26709 15.8836ZM5.95069 13.9969C4.74366 13.9969 3.47803 13.8328 2.76319 13.1297C2.06006 12.4148 1.90772 11.1609 1.90772 9.95386V5.9812C1.90772 4.75074 2.06006 3.49683 2.76319 2.78199C3.47803 2.06714 4.75538 1.9148 5.98584 1.9148H25.0171C26.2241 1.9148 27.4898 2.07886 28.1929 2.78199C28.9077 3.49683 29.0601 4.73902 29.0601 5.94605V9.95386C29.0601 11.1609 28.9077 12.4148 28.1929 13.1297C27.4898 13.8328 26.2241 13.9969 25.0171 13.9969H5.95069ZM32.5405 10.9851C33.4663 10.9265 34.7085 9.74292 34.7085 7.94996C34.7085 6.1687 33.4663 4.98511 32.5405 4.92652V10.9851Z" fill="black" fill-opacity="0.85"/>
<path d="M5.32959 12.6375H25.6382C26.4468 12.6375 26.9155 12.5203 27.2437 12.1922C27.5601 11.864 27.689 11.3953 27.689 10.5867V5.32496C27.689 4.51636 27.5601 4.04761 27.2437 3.71949C26.9155 3.39136 26.4351 3.27417 25.6382 3.27417H5.36475C4.521 3.27417 4.04053 3.39136 3.72412 3.71949C3.396 4.04761 3.27881 4.52808 3.27881 5.34839V10.5867C3.27881 11.3953 3.396 11.864 3.72412 12.1922C4.05225 12.5203 4.53272 12.6375 5.32959 12.6375Z" fill="black" fill-opacity="0.85"/>
</g>
<defs>
<clipPath id="clip0_2207_22088">
<rect width="34.6875" height="15.8555" fill="white" transform="translate(0.0209961 0.0280762)"/>
</clipPath>
</defs>
</svg>
