<svg width="24" height="28" viewBox="0 0 24 28" fill="none" xmlns="http://www.w3.org/2000/svg">
<g clip-path="url(#clip0_2207_5024)">
<path d="M0.122941 9.52721C-0.111434 10.1952 0.204972 10.746 0.697159 10.9217C1.07216 11.0624 1.43544 10.8866 1.74013 10.6405C2.80654 9.85534 3.82607 9.50377 5.04482 9.94909C6.26357 10.3827 6.75576 11.285 6.96669 12.5389C7.02529 12.9491 7.16591 13.2772 7.51747 13.4061C7.89247 13.5467 8.20888 13.3827 8.52529 13.1131C9.22841 12.5155 10.1777 12.2108 11.08 12.2577L5.88857 26.4842C5.70107 26.9881 5.9706 27.5624 6.48622 27.7499C6.97841 27.9256 7.56435 27.6561 7.75185 27.1522L12.9316 12.9256C13.6464 13.4764 14.162 14.3202 14.3144 15.2342C14.3964 15.621 14.5253 15.9608 14.8886 16.0897C15.2519 16.2186 15.5683 16.0428 15.8847 15.785C16.8573 14.9647 17.7948 14.5897 19.0136 15.0233C20.2323 15.4803 20.7948 16.3944 21.0995 17.7069C21.1933 18.0819 21.3456 18.4452 21.7206 18.5741C22.2128 18.7499 22.8339 18.5389 23.0566 17.871C24.6503 13.4999 23.5605 6.2108 16.5058 3.09362L17.1152 1.44127C17.3144 0.855331 17.0917 0.327988 16.5292 0.11705C15.9902 -0.0821689 15.4628 0.187363 15.2519 0.761581L14.6542 2.42565C7.24794 0.269394 1.71669 5.13268 0.122941 9.52721ZM2.86513 8.16784C4.85732 5.10924 8.60732 3.17565 12.8027 3.89049C10.9159 5.13268 9.09951 7.31237 7.91591 10.1249C7.44716 9.22252 6.68544 8.60143 5.67763 8.24987C4.72841 7.91002 3.80263 7.87487 2.86513 8.16784ZM9.33388 10.7108C10.6698 7.53502 12.9198 5.24987 14.9589 4.42955C16.0136 6.37487 16.2714 9.56237 15.2519 12.8788C14.6894 11.9061 13.7402 11.121 12.6738 10.7225C11.6073 10.3358 10.3769 10.3358 9.33388 10.7108ZM16.705 13.3241C17.6191 10.4061 17.6308 7.5819 16.9863 5.41393C20.6425 7.57018 22.2714 11.4608 21.8261 15.0702C21.2988 14.2499 20.5605 13.6756 19.6347 13.3241C18.6269 12.9608 17.6425 12.9374 16.705 13.3241Z" fill="black" fill-opacity="0.85"/>
</g>
<defs>
<clipPath id="clip0_2207_5024">
<rect width="23.6538" height="27.7755" fill="white" transform="translate(0.0440674 0.0280762)"/>
</clipPath>
</defs>
</svg>
