<svg width="30" height="22" viewBox="0 0 30 22" fill="none" xmlns="http://www.w3.org/2000/svg">
<g clip-path="url(#clip0_2207_14519)">
<path d="M13.2891 21.6036H16.7109C20.0039 21.6036 22.3828 21.2052 24.2344 20.3028C28.125 18.4278 30 14.7599 30 10.8106C30 9.22864 29.6953 7.69348 29.0859 6.29895H0.914062C0.304688 7.69348 0 9.22864 0 10.8106C0 14.7599 1.875 18.4278 5.76562 20.3028C7.61719 21.2052 9.99609 21.6036 13.2891 21.6036ZM15.0117 15.1114C13.6172 15.1114 12.5625 14.0567 12.5625 12.7091V9.17004L13.6641 8.68958V10.6466C14.0859 10.3419 14.5195 10.213 15.0117 10.213C16.3359 10.213 17.4727 11.338 17.4727 12.7091C17.4727 14.0216 16.3711 15.1114 15.0117 15.1114ZM15.0117 14.0216C15.7383 14.0216 16.3359 13.4122 16.3359 12.7091C16.3359 11.9825 15.7383 11.3614 15.0117 11.3614C14.2852 11.3614 13.6641 11.9708 13.6641 12.7091C13.6641 13.4122 14.2734 14.0216 15.0117 14.0216ZM1.53516 5.11536H28.4648C27.5156 3.54504 26.1094 2.22083 24.2344 1.3302C22.3828 0.416138 20.0039 0.0294189 16.7109 0.0294189H13.2891C9.99609 0.0294189 7.61719 0.416138 5.76562 1.3302C3.89062 2.22083 2.48438 3.54504 1.53516 5.11536Z" fill="black" fill-opacity="0.85"/>
</g>
<defs>
<clipPath id="clip0_2207_14519">
<rect width="30" height="21.5742" fill="white" transform="translate(0 0.0294189)"/>
</clipPath>
</defs>
</svg>
