<svg width="31" height="22" viewBox="0 0 31 22" fill="none" xmlns="http://www.w3.org/2000/svg">
<g clip-path="url(#clip0_2207_14515)">
<path d="M0.0986328 10.8093C0.0986328 14.7586 1.97363 18.4265 5.86425 20.3015C7.71582 21.2039 10.0947 21.6023 13.3877 21.6023H16.8095C20.1025 21.6023 22.4814 21.2039 24.333 20.3015C28.2236 18.4265 30.0986 14.7586 30.0986 10.8093C30.0986 7.28199 28.2002 3.62574 24.333 1.76246C22.4814 0.860107 20.1025 0.46167 16.8095 0.46167H13.3877C10.0947 0.46167 7.71582 0.860107 5.86425 1.76246C1.98535 3.62574 0.0986328 7.28199 0.0986328 10.8093ZM1.98535 10.8093C1.98535 7.01246 4.57519 3.75464 8.57129 2.80542C9.84863 2.50074 11.4189 2.34839 13.3877 2.34839H16.8095C19.8798 2.34839 21.9541 2.69996 23.5127 3.46167C26.4189 4.86792 28.2119 7.6687 28.2119 10.8093C28.2119 15.6726 24.9658 19.1531 19.6806 19.575C18.8252 19.6687 17.8759 19.7156 16.8095 19.7156H13.3877C10.3174 19.7156 8.24316 19.364 6.68457 18.6023C3.69629 17.1609 1.98535 14.3367 1.98535 10.8093ZM2.2666 6.53199H27.9424V5.34839H2.2666V6.53199ZM15.1103 14.8992C16.4228 14.8992 17.5009 13.8328 17.5009 12.5672C17.5009 11.2312 16.3994 10.1414 15.1103 10.1414C14.6298 10.1414 14.208 10.2703 13.8095 10.5633V8.6648L12.7314 9.13355V12.5672C12.7314 13.8679 13.7627 14.8992 15.1103 14.8992ZM15.1103 13.8328C14.3955 13.8328 13.8095 13.2469 13.8095 12.5672C13.8095 11.8523 14.4072 11.2547 15.1103 11.2547C15.8134 11.2547 16.3994 11.864 16.3994 12.5672C16.3994 13.2469 15.8134 13.8328 15.1103 13.8328Z" fill="black" fill-opacity="0.85"/>
</g>
<defs>
<clipPath id="clip0_2207_14515">
<rect width="30" height="21.5742" fill="white" transform="translate(0.0986328 0.0280762)"/>
</clipPath>
</defs>
</svg>
