<svg width="15" height="25" viewBox="0 0 15 25" fill="none" xmlns="http://www.w3.org/2000/svg">
<g clip-path="url(#clip0_2207_14451)">
<path d="M5.13941 0.0280762C1.78785 0.0280762 0.0651855 2.50074 0.0651855 6.40308V8.87574C0.0651855 11.6531 0.768311 12.9773 2.73707 14.0672L7.27222 16.5515C8.42066 17.1726 8.98316 17.3836 9.80347 17.3836C11.4793 17.3836 12.8621 16.0008 12.8621 14.325C12.8621 13.1765 12.2644 12.0984 10.9519 11.4187L1.97535 6.7312C1.97535 3.61402 2.99488 1.92652 5.2566 1.92652C9.0066 1.92652 12.2879 6.36792 12.6629 11.407C13.4597 12.2039 13.8933 13.2 13.8933 14.325C13.8933 16.1765 12.6277 17.7586 10.9168 18.2625C10.9988 19.4226 11.7136 20.5711 12.5808 20.5711C13.6941 20.5711 14.6199 16.7625 14.6199 13.3172C14.6199 5.99292 10.3425 0.0280762 5.13941 0.0280762ZM9.87378 16.2469C8.8191 16.2469 7.94019 15.3679 7.94019 14.3133C7.94019 13.2469 8.8191 12.3797 9.87378 12.3797C10.9519 12.3797 11.8191 13.2469 11.8191 14.3133C11.8191 15.3679 10.9519 16.2469 9.87378 16.2469ZM9.87378 15.4969C10.53 15.4969 11.0574 14.9578 11.0574 14.3133C11.0574 13.6687 10.53 13.1297 9.87378 13.1297C9.22925 13.1297 8.69019 13.6687 8.69019 14.3133C8.69019 14.9578 9.22925 15.4969 9.87378 15.4969ZM13.0613 24.4265V20.1258H11.9832V24.4265H13.0613Z" fill="black" fill-opacity="0.85"/>
<path d="M9.87378 16.2468C8.8191 16.2468 7.94019 15.3678 7.94019 14.3132C7.94019 13.2468 8.8191 12.3796 9.87378 12.3796C10.9519 12.3796 11.8191 13.2468 11.8191 14.3132C11.8191 15.3678 10.9519 16.2468 9.87378 16.2468ZM9.87378 15.4968C10.53 15.4968 11.0574 14.9577 11.0574 14.3132C11.0574 13.6686 10.53 13.1296 9.87378 13.1296C9.22925 13.1296 8.69019 13.6686 8.69019 14.3132C8.69019 14.9577 9.22925 15.4968 9.87378 15.4968Z" fill="black" fill-opacity="0.85"/>
</g>
<defs>
<clipPath id="clip0_2207_14451">
<rect width="14.5547" height="24.4102" fill="white" transform="translate(0.0651855 0.0280762)"/>
</clipPath>
</defs>
</svg>
