<svg width="21" height="20" viewBox="0 0 21 20" fill="none" xmlns="http://www.w3.org/2000/svg">
<g clip-path="url(#clip0_2207_14483)">
<path d="M11.6646 12.0867C13.317 11.3719 14.1021 9.47339 13.3873 7.83277L11.0318 2.44214C10.2935 0.778077 8.40685 0.00463971 6.75449 0.707765C5.11387 1.42261 4.32871 3.34449 5.04356 4.97339L7.41074 10.364C8.1256 11.9812 10.024 12.7898 11.6646 12.0867ZM10.481 11.1258C9.34435 11.1258 8.45371 10.2351 8.45371 9.11011C8.45371 7.99683 9.34435 7.09449 10.481 7.09449C11.5943 7.09449 12.4849 7.99683 12.4849 9.11011C12.4849 10.2351 11.606 11.1258 10.481 11.1258ZM10.481 10.2937C11.149 10.2937 11.6529 9.76636 11.6529 9.11011C11.6529 8.46558 11.149 7.92652 10.481 7.92652C9.78966 7.92652 9.28574 8.46558 9.28574 9.11011C9.28574 9.76636 9.78966 10.2937 10.481 10.2937ZM0.344343 8.64136C-0.534563 11.6648 0.895124 14.4539 3.90684 15.6375L6.12168 16.5164C9.80137 17.9578 13.5396 17.1843 15.0162 13.0711C15.8248 10.8445 15.5787 8.87574 14.5006 7.58667C15.3326 9.74292 14.2779 12.1804 12.1217 13.1297C9.90685 14.0554 7.35215 13.0359 6.37949 10.8211L4.01231 5.43042C3.8834 5.14917 3.78965 4.87964 3.73106 4.58667C2.44199 5.6648 0.941999 6.62574 0.344343 8.64136Z" fill="black" fill-opacity="0.85"/>
<path d="M16.0825 13.4578C15.2505 15.7781 13.6919 17.3133 11.7114 17.9578C12.6137 18.7664 13.7973 19.2351 15.0981 19.2351C17.9575 19.2351 20.2778 16.9148 20.2778 14.0437C20.2778 11.6414 18.6489 9.62574 16.4458 9.02808C16.7505 10.4812 16.6333 11.9578 16.0825 13.4578Z" fill="black" fill-opacity="0.85"/>
<path d="M10.4809 11.1258C9.34424 11.1258 8.45361 10.2351 8.45361 9.1101C8.45361 7.99682 9.34424 7.09448 10.4809 7.09448C11.5942 7.09448 12.4848 7.99682 12.4848 9.1101C12.4848 10.2351 11.6059 11.1258 10.4809 11.1258ZM10.4809 10.2937C11.1489 10.2937 11.6528 9.76635 11.6528 9.1101C11.6528 8.46557 11.1489 7.92651 10.4809 7.92651C9.78955 7.92651 9.28564 8.46557 9.28564 9.1101C9.28564 9.76635 9.78955 10.2937 10.4809 10.2937Z" fill="black" fill-opacity="0.85"/>
</g>
<defs>
<clipPath id="clip0_2207_14483">
<rect width="20.1898" height="19.207" fill="white" transform="translate(0.0881348 0.0280762)"/>
</clipPath>
</defs>
</svg>
