<svg width="31" height="22" viewBox="0 0 31 22" fill="none" xmlns="http://www.w3.org/2000/svg">
<g clip-path="url(#clip0_2207_14489)">
<path d="M0.0922852 10.8093C0.0922852 14.7586 1.96729 18.4265 5.85791 20.3015C7.70948 21.2039 10.0884 21.6023 13.3814 21.6023H16.8032C20.0962 21.6023 22.4751 21.2039 24.3267 20.3015C28.2173 18.4265 30.0923 14.7586 30.0923 10.8093C30.0923 7.28199 28.1939 3.62574 24.3267 1.76246C22.4751 0.860107 20.0962 0.46167 16.8032 0.46167H13.3814C10.0884 0.46167 7.70948 0.860107 5.85791 1.76246C1.97901 3.62574 0.0922852 7.28199 0.0922852 10.8093ZM1.97901 10.8093C1.97901 7.01246 4.56885 3.75464 8.56495 2.80542C9.84229 2.50074 11.4126 2.34839 13.3814 2.34839H16.8032C19.8735 2.34839 21.9478 2.69996 23.5064 3.46167C26.4126 4.86792 28.2056 7.6687 28.2056 10.8093C28.2056 15.6726 24.9595 19.1531 19.6743 19.575C18.8189 19.6687 17.8696 19.7156 16.8032 19.7156H13.3814C10.3111 19.7156 8.23682 19.364 6.67823 18.6023C3.68994 17.1609 1.97901 14.3367 1.97901 10.8093ZM2.26026 6.53199H27.9361V5.34839H2.26026V6.53199ZM15.104 14.8992C16.4165 14.8992 17.4946 13.8328 17.4946 12.5672C17.4946 11.2312 16.3931 10.1414 15.104 10.1414C14.6235 10.1414 14.2017 10.2703 13.8032 10.5633V8.6648L12.7251 9.13355V12.5672C12.7251 13.8679 13.7564 14.8992 15.104 14.8992ZM15.104 13.8328C14.3892 13.8328 13.8032 13.2469 13.8032 12.5672C13.8032 11.8523 14.4009 11.2547 15.104 11.2547C15.8071 11.2547 16.3931 11.864 16.3931 12.5672C16.3931 13.2469 15.8071 13.8328 15.104 13.8328Z" fill="black" fill-opacity="0.85"/>
</g>
<defs>
<clipPath id="clip0_2207_14489">
<rect width="30" height="21.5742" fill="white" transform="translate(0.0922852 0.0280762)"/>
</clipPath>
</defs>
</svg>
