<svg width="31" height="25" viewBox="0 0 31 25" fill="none" xmlns="http://www.w3.org/2000/svg">
<g clip-path="url(#clip0_2207_14441)">
<path d="M9.53174 0.0280762C4.34033 0.0280762 0.0629883 5.99292 0.0629883 13.3172C0.0629883 16.7625 0.97705 20.5711 2.10205 20.5711C2.96924 20.5711 3.67237 19.4226 3.76611 18.2625C2.05518 17.7586 0.78955 16.1765 0.78955 14.325C0.78955 13.2 1.22315 12.2039 2.0083 11.407C2.39502 6.36792 5.66455 1.92652 9.42627 1.92652C11.6763 1.92652 12.7075 3.61402 12.7075 6.7312L3.73096 11.4187C2.41846 12.0984 1.8208 13.1765 1.8208 14.325C1.8208 16.0008 3.20361 17.3836 4.8794 17.3836C5.69971 17.3836 6.25049 17.1726 7.41065 16.5515L11.9458 14.0672C13.9146 12.9773 14.6177 11.6531 14.6177 8.87574V6.40308C14.6177 2.50074 12.895 0.0280762 9.53174 0.0280762ZM4.80908 16.2469C3.73096 16.2469 2.86377 15.3679 2.86377 14.3133C2.86377 13.2469 3.73096 12.3797 4.80908 12.3797C5.86377 12.3797 6.73096 13.2469 6.73096 14.3133C6.73096 15.3679 5.86377 16.2469 4.80908 16.2469ZM4.80908 15.4969C5.4419 15.4969 5.98096 14.9578 5.98096 14.3133C5.98096 13.6687 5.4419 13.1297 4.80908 13.1297C4.15283 13.1297 3.62549 13.6687 3.62549 14.3133C3.62549 14.9578 4.15283 15.4969 4.80908 15.4969ZM1.62158 24.4265H2.69971V20.1258H1.62158V24.4265ZM21.1216 0.0280762C17.7583 0.0280762 16.0357 2.50074 16.0357 6.40308V8.87574C16.0357 11.6531 16.7388 12.9773 18.7075 14.0672L23.2427 16.5515C24.4028 17.1726 24.9536 17.3836 25.7739 17.3836C27.4497 17.3836 28.8325 16.0008 28.8325 14.325C28.8325 13.1765 28.2349 12.0984 26.9224 11.4187L17.9458 6.7312C17.9458 3.61402 18.9771 1.92652 21.2271 1.92652C24.9771 1.92652 28.2583 6.36792 28.645 11.407C29.4302 12.2039 29.8638 13.2 29.8638 14.325C29.8638 16.1765 28.5982 17.7586 26.8872 18.2625C26.9692 19.4226 27.6841 20.5711 28.5513 20.5711C29.6646 20.5711 30.5903 16.7625 30.5903 13.3172C30.5903 5.99292 26.313 0.0280762 21.1216 0.0280762ZM25.8442 16.2469C24.7896 16.2469 23.9107 15.3679 23.9107 14.3133C23.9107 13.2469 24.7896 12.3797 25.8442 12.3797C26.9224 12.3797 27.7896 13.2469 27.7896 14.3133C27.7896 15.3679 26.9224 16.2469 25.8442 16.2469ZM25.8442 15.4969C26.5005 15.4969 27.0278 14.9578 27.0278 14.3133C27.0278 13.6687 26.5005 13.1297 25.8442 13.1297C25.1997 13.1297 24.6607 13.6687 24.6607 14.3133C24.6607 14.9578 25.1997 15.4969 25.8442 15.4969ZM29.0318 24.4265V20.1258H27.9536V24.4265H29.0318Z" fill="black" fill-opacity="0.85"/>
<path d="M4.80908 16.2468C3.73096 16.2468 2.86377 15.3678 2.86377 14.3132C2.86377 13.2468 3.73096 12.3796 4.80908 12.3796C5.86377 12.3796 6.73096 13.2468 6.73096 14.3132C6.73096 15.3678 5.86377 16.2468 4.80908 16.2468ZM4.80908 15.4968C5.4419 15.4968 5.98096 14.9577 5.98096 14.3132C5.98096 13.6686 5.4419 13.1296 4.80908 13.1296C4.15283 13.1296 3.62549 13.6686 3.62549 14.3132C3.62549 14.9577 4.15283 15.4968 4.80908 15.4968ZM25.8442 16.2468C24.7896 16.2468 23.9107 15.3678 23.9107 14.3132C23.9107 13.2468 24.7896 12.3796 25.8442 12.3796C26.9224 12.3796 27.7896 13.2468 27.7896 14.3132C27.7896 15.3678 26.9224 16.2468 25.8442 16.2468ZM25.8442 15.4968C26.5005 15.4968 27.0278 14.9577 27.0278 14.3132C27.0278 13.6686 26.5005 13.1296 25.8442 13.1296C25.1997 13.1296 24.6607 13.6686 24.6607 14.3132C24.6607 14.9577 25.1997 15.4968 25.8442 15.4968Z" fill="black" fill-opacity="0.85"/>
</g>
<defs>
<clipPath id="clip0_2207_14441">
<rect width="30.5273" height="24.4102" fill="white" transform="translate(0.0629883 0.0280762)"/>
</clipPath>
</defs>
</svg>
