<svg width="24" height="24" viewBox="0 0 24 24" fill="none" xmlns="http://www.w3.org/2000/svg">
<g clip-path="url(#clip0_2207_14433)">
<path d="M7.26123 23.3015H16.2612C21.0073 23.3015 23.4799 20.8406 23.4799 16.1179V7.21167C23.4799 2.48902 21.0073 0.0280762 16.2612 0.0280762H7.26123C2.53858 0.0280762 0.0776367 2.48902 0.0776367 7.21167V16.1179C0.0776367 20.8406 2.53858 23.3015 7.26123 23.3015ZM7.00342 21.4148C3.68702 21.4148 1.96436 19.6804 1.96436 16.3758V6.95386C1.96436 3.63746 3.68702 1.9148 7.00342 1.9148H16.5893C19.8706 1.9148 21.5932 3.62574 21.5932 6.88355V16.4461C21.5932 19.7039 19.8706 21.4148 16.5893 21.4148H7.00342ZM11.7729 17.2078C14.8432 17.2078 17.3159 14.6883 17.3159 11.6648C17.3159 8.6062 14.7846 6.14527 11.7729 6.14527C11.2338 6.14527 10.7417 6.19214 10.3081 6.32105V9.46167C10.7417 9.14527 11.2573 8.96949 11.7729 8.96949C13.2143 8.96949 14.4448 10.2117 14.4448 11.6648C14.4448 13.1179 13.2378 14.3015 11.7729 14.3015C10.2846 14.3015 9.1128 13.1414 9.1128 11.6648V6.80152C7.35498 7.78589 6.2417 9.61402 6.2417 11.6648C6.2417 14.7469 8.71436 17.2078 11.7729 17.2078ZM11.7729 13.1297C12.5581 13.1297 13.226 12.4383 13.226 11.6648C13.226 10.9148 12.5346 10.2234 11.7729 10.2234C11.0112 10.2234 10.3315 10.8797 10.3315 11.6648C10.3315 12.4734 10.9878 13.1297 11.7729 13.1297Z" fill="black" fill-opacity="0.85"/>
</g>
<defs>
<clipPath id="clip0_2207_14433">
<rect width="23.4023" height="23.2852" fill="white" transform="translate(0.0776367 0.0280762)"/>
</clipPath>
</defs>
</svg>
