<svg width="24" height="25" viewBox="0 0 24 25" fill="none" xmlns="http://www.w3.org/2000/svg">
<g clip-path="url(#clip0_2207_14285)">
<path d="M0.0610352 11.8054C0.0610352 13.8445 0.57666 15.9539 1.5376 17.9226C1.2212 18.2625 1.15088 18.907 1.47901 19.5633L3.75245 24.1804C3.95166 24.5906 4.42042 24.8133 4.87745 24.8133C5.36963 24.8133 5.83838 24.5437 5.9087 23.9343L3.34229 18.6961C2.5337 17.0554 1.83057 14.3836 1.83057 11.8172C1.83057 5.96949 5.82665 2.02027 11.7329 2.02027C17.6274 2.02027 21.6352 5.96949 21.6352 11.8172C21.6352 14.3836 20.9321 17.0554 20.1235 18.6961L17.5454 23.9343C17.6274 24.5437 18.0962 24.8133 18.5883 24.8133C19.0337 24.8133 19.5024 24.5906 19.7133 24.1804L21.9751 19.5633C22.3032 18.907 22.2446 18.2625 21.9282 17.9226C22.8891 15.9539 23.4048 13.8445 23.4048 11.8054C23.4048 5.24292 18.8813 0.0280762 11.7329 0.0280762C4.58448 0.0280762 0.0610352 5.24292 0.0610352 11.8054Z" fill="black" fill-opacity="0.85"/>
<path d="M6.08449 16.071C5.66261 15.2038 4.86574 15.0163 4.25636 15.2624C3.56496 15.5319 3.08449 16.3522 3.60011 17.4069L6.58839 23.4889C7.04543 24.4147 7.86574 24.7428 8.66261 24.3444C9.35402 24.0163 9.61183 23.2311 9.21339 22.3991L6.08449 16.071ZM17.3696 16.071L14.2524 22.3991C13.854 23.2311 14.1118 24.0163 14.7915 24.3444C15.5883 24.7428 16.4204 24.4147 16.8774 23.4889L19.8657 17.4069C20.3813 16.3522 19.8891 15.5319 19.2094 15.2624C18.5883 15.0163 17.8032 15.2038 17.3696 16.071Z" fill="black" fill-opacity="0.85"/>
</g>
<defs>
<clipPath id="clip0_2207_14285">
<rect width="23.3438" height="24.9492" fill="white" transform="translate(0.0610352 0.0280762)"/>
</clipPath>
</defs>
</svg>
