<svg width="20" height="21" viewBox="0 0 20 21" fill="none" xmlns="http://www.w3.org/2000/svg">
<g clip-path="url(#clip0_2207_14535)">
<path d="M4.3504 15.1453C6.70587 15.1453 8.46368 13.1179 8.03009 10.5047L7.26837 5.89917C7.1629 5.25464 7.39728 4.82105 8.03009 4.52808C9.62384 3.77808 11.1238 3.37964 13.0925 3.07496C14.3113 2.89917 14.9324 1.99683 14.9324 0.789795C14.9324 0.297607 14.6863 0.0280762 13.9246 0.0280762C11.4285 0.0280762 8.95587 0.426514 6.42462 1.30542C2.15899 2.78199 -0.489445 5.39527 0.155086 8.89917L0.77618 12.2625C1.13946 14.2312 2.80353 15.1453 4.3504 15.1453ZM4.3504 13.3523C3.24884 13.3523 2.38165 12.4969 2.38165 11.3953C2.38165 10.2937 3.24884 9.43824 4.3504 9.43824C5.44024 9.43824 6.29571 10.3054 6.29571 11.3953C6.29571 12.4851 5.44024 13.3523 4.3504 13.3523ZM4.3504 12.5203C4.97149 12.5203 5.46368 12.0281 5.46368 11.3953C5.46368 10.7742 4.97149 10.2703 4.3504 10.2703C3.70587 10.2703 3.21368 10.7742 3.21368 11.3953C3.21368 12.0281 3.70587 12.5203 4.3504 12.5203ZM4.3504 16.282C2.54571 16.282 0.998836 15.3679 0.190242 13.9265C0.436336 17.8289 3.96368 19.7742 7.95978 19.7742C9.01446 19.7742 9.7879 19.6336 10.5261 19.2586C12.0379 16.6219 13.1043 13.8679 13.784 10.8914C13.0105 9.26246 11.1941 8.19605 8.68634 7.55152L9.15509 10.3172C9.69415 13.5515 7.47931 16.282 4.3504 16.282Z" fill="black" fill-opacity="0.85"/>
<path d="M19.2919 15.7898C19.2919 13.0593 17.1356 11.2429 14.9208 11.0203C14.2059 14.1843 13.0575 17.1609 11.4286 19.9383C12.0848 20.3953 13.1512 20.782 14.3348 20.782C17.3114 20.782 19.2919 18.7781 19.2919 15.7898Z" fill="black" fill-opacity="0.85"/>
<path d="M4.35034 13.3523C3.24878 13.3523 2.38159 12.4969 2.38159 11.3953C2.38159 10.2937 3.24878 9.43823 4.35034 9.43823C5.44018 9.43823 6.29565 10.3054 6.29565 11.3953C6.29565 12.4851 5.44018 13.3523 4.35034 13.3523ZM4.35034 12.5203C4.97143 12.5203 5.46362 12.0281 5.46362 11.3953C5.46362 10.7742 4.97143 10.2703 4.35034 10.2703C3.70581 10.2703 3.21362 10.7742 3.21362 11.3953C3.21362 12.0281 3.70581 12.5203 4.35034 12.5203Z" fill="black" fill-opacity="0.85"/>
</g>
<defs>
<clipPath id="clip0_2207_14535">
<rect width="19.233" height="20.7773" fill="white" transform="translate(0.0588379 0.0280762)"/>
</clipPath>
</defs>
</svg>
