<svg width="21" height="20" viewBox="0 0 21 20" fill="none" xmlns="http://www.w3.org/2000/svg">
<g clip-path="url(#clip0_2207_14503)">
<path d="M8.61546 12.088C10.2561 12.7911 12.1545 11.9825 12.8694 10.3653L15.2366 4.97473C15.9514 3.34583 15.1663 1.42395 13.5256 0.709108C11.8733 0.00598249 9.97484 0.77942 9.24827 2.44348L6.8928 7.83411C6.16624 9.47473 6.96312 11.3732 8.61546 12.088ZM9.79906 11.1271C8.67406 11.1271 7.79515 10.2364 7.79515 9.11145C7.79515 7.99817 8.68577 7.09583 9.79906 7.09583C10.9358 7.09583 11.8264 7.99817 11.8264 9.11145C11.8264 10.2364 10.9358 11.1271 9.79906 11.1271ZM9.79906 10.295C10.4905 10.295 10.9827 9.7677 10.9827 9.11145C10.9827 8.46692 10.4905 7.92786 9.79906 7.92786C9.13109 7.92786 8.62718 8.46692 8.62718 9.11145C8.62718 9.7677 9.13109 10.295 9.79906 10.295ZM19.9358 8.6427C19.3264 6.62708 17.8264 5.66614 16.5491 4.58801C16.4788 4.88098 16.3967 5.15051 16.2678 5.43176L13.9006 10.8224C12.928 13.0372 10.3733 14.0567 8.15843 13.131C5.99046 12.1817 4.94749 9.74426 5.77952 7.58801C4.7014 8.87708 4.4553 10.8458 5.2639 13.0724C6.72874 17.1856 10.4788 17.9591 14.1584 16.5177L16.3733 15.6388C19.385 14.4552 20.8147 11.6661 19.9358 8.6427Z" fill="black" fill-opacity="0.85"/>
<path d="M4.19751 13.4591C3.64673 11.9591 3.51782 10.4825 3.83423 9.02942C1.63111 9.62708 0.00219727 11.6427 0.00219727 14.045C0.00219727 16.9161 2.32251 19.2364 5.17017 19.2364C6.47095 19.2364 7.66626 18.7677 8.56861 17.9591C6.58814 17.3146 5.02954 15.7794 4.19751 13.4591Z" fill="black" fill-opacity="0.85"/>
<path d="M9.79908 11.1271C8.67408 11.1271 7.79517 10.2364 7.79517 9.11145C7.79517 7.99817 8.68579 7.09583 9.79908 7.09583C10.9358 7.09583 11.8264 7.99817 11.8264 9.11145C11.8264 10.2364 10.9358 11.1271 9.79908 11.1271ZM9.79908 10.295C10.4905 10.295 10.9827 9.7677 10.9827 9.11145C10.9827 8.46692 10.4905 7.92786 9.79908 7.92786C9.13111 7.92786 8.6272 8.46692 8.6272 9.11145C8.6272 9.7677 9.13111 10.295 9.79908 10.295Z" fill="black" fill-opacity="0.85"/>
</g>
<defs>
<clipPath id="clip0_2207_14503">
<rect width="20.1898" height="19.207" fill="white" transform="translate(0.00219727 0.0294189)"/>
</clipPath>
</defs>
</svg>
