<svg width="23" height="25" viewBox="0 0 23 25" fill="none" xmlns="http://www.w3.org/2000/svg">
<g clip-path="url(#clip0_2207_8350)">
<path d="M0.0146484 18.5802C0.0146484 19.4356 0.670898 19.9982 1.78418 19.9982H6.72949C6.82324 22.2599 8.59277 24.2403 11.0654 24.2403C13.5498 24.2403 15.3193 22.2716 15.413 19.9982H20.3584C21.4599 19.9982 22.1279 19.4356 22.1279 18.5802C22.1279 17.4083 20.9326 16.3536 19.9248 15.3106C19.1513 14.5021 18.9404 12.838 18.8466 11.4903C18.7646 6.87317 17.5693 3.89661 14.4521 2.77161C14.0537 1.23645 12.7998 0.0294189 11.0654 0.0294189C9.34277 0.0294189 8.07715 1.23645 7.69043 2.77161C4.57324 3.89661 3.37793 6.87317 3.2959 11.4903C3.20215 12.838 2.99121 14.5021 2.21777 15.3106C1.19824 16.3536 0.0146484 17.4083 0.0146484 18.5802ZM2.28809 18.2286V18.088C2.49903 17.7482 3.20215 17.0567 3.81153 16.3771C4.65527 15.4396 5.05371 13.9278 5.15918 11.6427C5.25293 6.52161 6.77637 4.8927 8.78027 4.34192C9.07324 4.27161 9.23731 4.13098 9.24903 3.8263C9.28418 2.60754 9.98731 1.75208 11.0654 1.75208C12.1552 1.75208 12.8466 2.60754 12.8935 3.8263C12.9052 4.13098 13.0576 4.27161 13.3505 4.34192C15.3662 4.8927 16.8896 6.52161 16.9834 11.6427C17.0888 13.9278 17.4873 15.4396 18.3193 16.3771C18.9404 17.0567 19.6318 17.7482 19.8427 18.088V18.2286H2.28809ZM8.55762 19.9982H13.5849C13.4912 21.5919 12.4834 22.588 11.0654 22.588C9.65918 22.588 8.63965 21.5919 8.55762 19.9982Z" fill="black" fill-opacity="0.85"/>
</g>
<defs>
<clipPath id="clip0_2207_8350">
<rect width="22.1133" height="24.2227" fill="white" transform="translate(0.0146484 0.0294189)"/>
</clipPath>
</defs>
</svg>
