<svg width="22" height="22" viewBox="0 0 22 22" fill="none" xmlns="http://www.w3.org/2000/svg">
<g clip-path="url(#clip0_2207_8373)">
<path d="M3.73438 21.6271H17.9492C20.4102 21.6271 21.6289 20.4083 21.6289 17.9942V3.68567C21.6289 1.27161 20.4102 0.0528564 17.9492 0.0528564H3.73438C1.28516 0.0528564 0.0546875 1.25989 0.0546875 3.68567V17.9942C0.0546875 20.42 1.28516 21.6271 3.73438 21.6271Z" fill="black" fill-opacity="0.85"/>
<path d="M5.55078 15.1817C4.91797 15.1817 4.55469 14.8536 4.55469 14.3849C4.55469 13.7052 5.23438 13.1192 5.8086 12.5099C6.25391 12.0411 6.35938 11.0919 6.40625 10.3419C6.45313 7.75208 7.14453 5.98254 8.91407 5.3263C9.19531 4.47083 9.875 3.7677 10.8594 3.7677C11.8438 3.7677 12.5352 4.47083 12.8047 5.3263C14.5742 5.98254 15.2774 7.75208 15.3242 10.3419C15.3711 11.0919 15.4531 12.0411 15.9102 12.5099C16.5078 13.1075 17.1641 13.7052 17.1641 14.3849C17.1641 14.8536 16.8008 15.1817 16.1797 15.1817H5.55078ZM10.8594 17.9825C9.72266 17.9825 8.90235 17.1622 8.82031 16.1896H12.9102C12.8281 17.1622 11.9961 17.9825 10.8594 17.9825Z" fill="white"/>
</g>
<defs>
<clipPath id="clip0_2207_8373">
<rect width="21.5742" height="21.5977" fill="white" transform="translate(0.0546875 0.0294189)"/>
</clipPath>
</defs>
</svg>
