<svg width="26" height="26" viewBox="0 0 26 26" fill="none" xmlns="http://www.w3.org/2000/svg">
<g clip-path="url(#clip0_2207_8384)">
<path d="M3.20569 20.5328H21.7799C22.8932 20.5328 23.5494 19.9703 23.5494 19.1149C23.5494 17.943 22.3658 16.8883 21.3463 15.8453C20.5729 15.0367 20.3619 13.3727 20.2799 12.025C20.1861 7.52502 19.0025 4.43127 15.8854 3.30627C15.44 1.77112 14.2213 0.564087 12.4986 0.564087C10.7643 0.564087 9.55726 1.77112 9.11194 3.30627C5.99476 4.43127 4.79944 7.52502 4.71741 12.025C4.62366 13.3727 4.42444 15.0367 3.65101 15.8453C2.63147 16.8883 1.43616 17.943 1.43616 19.1149C1.43616 19.9703 2.10413 20.5328 3.20569 20.5328ZM12.4986 25.232C14.4791 25.232 15.9322 23.7789 16.0963 22.1383H8.90101C9.05335 23.7789 10.5065 25.232 12.4986 25.232Z" fill="black" fill-opacity="0.85"/>
<path d="M0.709595 3.91566L21.7565 24.9391C22.6471 25.8297 24.1119 25.8297 24.9791 24.9156C25.8463 24.025 25.8463 22.607 24.9674 21.7281L3.93226 0.693C3.05335 -0.185906 1.60022 -0.197625 0.709595 0.693C-0.169312 1.57191 -0.169312 3.03675 0.709595 3.91566Z" fill="white"/>
<path d="M1.67054 2.94299L22.7291 23.9664C23.0807 24.3297 23.6549 24.3297 24.0065 23.9664C24.3463 23.6149 24.358 23.0524 24.0065 22.6891L2.9596 1.66565C2.60804 1.31409 2.03382 1.31409 1.67054 1.66565C1.33069 2.00549 1.33069 2.60315 1.67054 2.94299Z" fill="black" fill-opacity="0.85"/>
</g>
<defs>
<clipPath id="clip0_2207_8384">
<rect width="25.5776" height="25.7373" fill="white" transform="translate(0.050415 0.0294189)"/>
</clipPath>
</defs>
</svg>
