<svg width="23" height="25" viewBox="0 0 23 25" fill="none" xmlns="http://www.w3.org/2000/svg">
<g clip-path="url(#clip0_2207_8354)">
<path d="M1.81152 19.9982H20.3858C21.4873 19.9982 22.1553 19.4356 22.1553 18.5802C22.1553 17.4083 20.96 16.3536 19.9522 15.3106C19.1787 14.5021 18.9678 12.838 18.874 11.4903C18.792 6.99036 17.5967 3.89661 14.4795 2.77161C14.0342 1.23645 12.8272 0.0294189 11.0928 0.0294189C9.37011 0.0294189 8.15137 1.23645 7.71777 2.77161C4.60058 3.89661 3.40527 6.99036 3.32324 11.4903C3.22949 12.838 3.01855 14.5021 2.24511 15.3106C1.22558 16.3536 0.0419922 17.4083 0.0419922 18.5802C0.0419922 19.4356 0.698242 19.9982 1.81152 19.9982ZM11.0928 24.6974C13.085 24.6974 14.5381 23.2442 14.6904 21.6036H7.50683C7.65918 23.2442 9.1123 24.6974 11.0928 24.6974Z" fill="black" fill-opacity="0.85"/>
</g>
<defs>
<clipPath id="clip0_2207_8354">
<rect width="22.1133" height="24.668" fill="white" transform="translate(0.0419922 0.0294189)"/>
</clipPath>
</defs>
</svg>
