<svg width="39" height="24" viewBox="0 0 39 24" fill="none" xmlns="http://www.w3.org/2000/svg">
<g clip-path="url(#clip0_2207_15459)">
<path d="M7.52148 23.5724C11.6347 23.5724 14.9746 20.2325 14.9746 16.1192C14.9746 11.9942 11.6464 8.66614 7.52148 8.66614C3.39648 8.66614 0.0566406 11.9942 0.0566406 16.1192C0.0566406 20.2442 3.39648 23.5724 7.52148 23.5724ZM7.52148 21.7325C4.4043 21.7325 1.9082 19.2364 1.9082 16.1192C1.9082 13.0138 4.41602 10.506 7.52148 10.506C10.6269 10.506 13.1347 13.0138 13.1347 16.1192C13.1347 19.2247 10.6269 21.7325 7.52148 21.7325ZM30.5957 23.5724C34.7089 23.5724 38.0488 20.2325 38.0488 16.1192C38.0488 11.9942 34.7089 8.66614 30.5957 8.66614C26.4707 8.66614 23.1191 11.9942 23.1191 16.1192C23.1191 20.2442 26.4707 23.5724 30.5957 23.5724ZM30.5957 21.7325C27.4785 21.7325 24.9707 19.2364 24.9707 16.1192C24.9707 13.0138 27.4785 10.506 30.5957 10.506C33.6894 10.506 36.2089 13.0372 36.2089 16.1192C36.2089 19.2247 33.6894 21.7325 30.5957 21.7325ZM20.0371 0.943481C20.0371 1.44739 20.4472 1.84583 20.9511 1.84583H23.9863C24.08 1.84583 24.1035 1.86926 24.1386 1.92786L29.7168 16.4591L31.416 15.8732L25.58 0.814575C25.3691 0.252075 24.9824 0.0294189 24.3027 0.0294189H20.9511C20.4472 0.0294189 20.0371 0.439575 20.0371 0.943481ZM27.3613 8.05676V6.36926L14.9277 8.19739V9.88489L27.3613 8.05676ZM17.7519 17.1856V15.4982H7.63867V17.1856H17.7519ZM19.041 18.6153C20.4004 18.6153 21.5019 17.5138 21.5019 16.1661C21.5019 14.8067 20.4004 13.7169 19.041 13.7169C17.6699 13.7169 16.5918 14.795 16.58 16.1661C16.5566 17.5021 17.6582 18.6153 19.041 18.6153ZM19.0527 17.0099C18.5722 17.0099 18.1972 16.6232 18.1972 16.1778C18.1972 15.7091 18.5722 15.3224 19.0527 15.3224C19.5214 15.3224 19.8847 15.6974 19.8847 16.1778C19.8847 16.6349 19.5214 17.0099 19.0527 17.0099ZM7.52148 17.6427C8.36523 17.6427 9.05664 16.963 9.05664 16.1192C9.05664 15.2638 8.37695 14.5841 7.52148 14.5841C6.66602 14.5841 6.00976 15.2521 5.99805 16.1192C5.98633 16.963 6.6543 17.6427 7.52148 17.6427ZM30.5957 17.6544C31.4511 17.6544 32.1191 16.963 32.1191 16.1192C32.1191 15.2638 31.4628 14.5958 30.5957 14.5958C29.7402 14.5958 29.0722 15.2521 29.0605 16.1192C29.0488 16.963 29.7285 17.6544 30.5957 17.6544ZM18.6425 14.3263L20.1543 15.1817L27.4433 7.36536L25.3222 7.29504L18.6425 14.3263ZM6.83008 15.5333L8.33008 16.3888L15.3027 9.2638L13.8613 8.23254L6.83008 15.5333ZM17.4121 15.4161L18.9121 14.338L13.7441 4.54114L11.9863 4.91614L17.4121 15.4161ZM9.79492 4.30676C9.79492 4.81067 10.205 5.20911 10.7089 5.20911H15.3144C15.8183 5.20911 16.2285 4.81067 16.2285 4.30676C16.2285 3.81458 15.8066 3.3927 15.3144 3.3927H10.7089C10.2168 3.3927 9.79492 3.81458 9.79492 4.30676Z" fill="black" fill-opacity="0.85"/>
</g>
<defs>
<clipPath id="clip0_2207_15459">
<rect width="37.9922" height="23.543" fill="white" transform="translate(0.0566406 0.0294189)"/>
</clipPath>
</defs>
</svg>
