<svg width="24" height="24" viewBox="0 0 24 24" fill="none" xmlns="http://www.w3.org/2000/svg">
<g clip-path="url(#clip0_2207_22078)">
<path d="M12.0183 23.9356C18.5574 23.9356 23.9714 18.5099 23.9714 11.9825C23.9714 5.44348 18.5457 0.0294189 12.0066 0.0294189C5.47925 0.0294189 0.0651855 5.44348 0.0651855 11.9825C0.0651855 18.5099 5.49097 23.9356 12.0183 23.9356ZM12.0183 21.9435C6.48707 21.9435 2.0691 17.5138 2.0691 11.9825C2.0691 6.4513 6.47535 2.02161 12.0066 2.02161C17.5379 2.02161 21.9793 6.4513 21.9793 11.9825C21.9793 17.5138 17.5496 21.9435 12.0183 21.9435Z" fill="black" fill-opacity="0.85"/>
<path d="M4.47144 14.5958C4.47144 16.2364 5.92457 17.4786 7.74097 17.4786C9.54566 17.4786 11.0222 16.2364 11.0222 14.5958V13.0606C11.3035 12.9552 11.655 12.8849 12.0066 12.8849C12.3933 12.8849 12.7214 12.9317 12.991 13.0255V14.5958C12.991 16.2364 14.4675 17.4786 16.2605 17.4786C18.0769 17.4786 19.5418 16.2364 19.5418 14.5958C19.5418 14.1622 19.4949 13.7638 19.2605 13.1896L16.7996 7.47083C16.4714 6.70911 15.7566 6.25208 14.866 6.25208C13.7293 6.25208 12.991 6.97864 12.991 8.05676V8.6427C12.698 8.54895 12.3699 8.50208 12.0066 8.50208C11.6668 8.50208 11.3269 8.56066 11.0222 8.66613V8.05676C11.0222 6.97864 10.284 6.25208 9.14722 6.25208C8.2566 6.25208 7.54175 6.70911 7.22535 7.47083L4.75269 13.1896C4.51831 13.7638 4.47144 14.1622 4.47144 14.5958ZM5.67847 14.5958C5.67847 13.5763 6.5105 12.8849 7.74097 12.8849C8.99488 12.8849 9.83863 13.5763 9.83863 14.5958C9.83863 15.5919 8.99488 16.295 7.74097 16.295C6.5105 16.295 5.67847 15.5919 5.67847 14.5958ZM14.1629 14.5958C14.1629 13.5763 15.0183 12.8849 16.2605 12.8849C17.491 12.8849 18.3347 13.5763 18.3347 14.5958C18.3347 15.5919 17.491 16.295 16.2605 16.295C15.0183 16.295 14.1629 15.5919 14.1629 14.5958ZM11.0222 11.3028V10.4356C11.3152 10.3419 11.6668 10.2833 12.0066 10.2833C12.3699 10.2833 12.698 10.3302 12.991 10.4122V11.2442C12.7214 11.1622 12.3933 11.1153 12.0066 11.1153C11.655 11.1153 11.3035 11.1739 11.0222 11.3028Z" fill="black" fill-opacity="0.85"/>
</g>
<defs>
<clipPath id="clip0_2207_22078">
<rect width="23.9062" height="23.918" fill="white" transform="translate(0.0651855 0.0294189)"/>
</clipPath>
</defs>
</svg>
