<svg width="30" height="24" viewBox="0 0 30 24" fill="none" xmlns="http://www.w3.org/2000/svg">
<g clip-path="url(#clip0_2207_22070)">
<path d="M0.0629883 17.5255C0.0629883 20.795 2.99268 23.2442 6.57861 23.2442C10.1528 23.2442 13.0708 20.795 13.0708 17.5255V4.5763C13.0708 2.43176 11.606 1.00208 9.35596 1.00208C7.59815 1.00208 6.1919 1.8927 5.53565 3.41614L0.660644 14.7599C0.180176 15.8732 0.0629883 16.67 0.0629883 17.5255ZM3.55518 12.5099L7.1294 4.2013C7.52783 3.2638 8.32471 2.71301 9.28565 2.71301C10.5278 2.71301 11.3247 3.53333 11.3247 4.7638V13.67C10.1528 12.5099 8.41846 11.8067 6.57861 11.8067C5.53565 11.8067 4.46924 12.0646 3.55518 12.5099ZM1.90283 17.5255C1.90283 15.17 3.93018 13.5646 6.57861 13.5646C9.21533 13.5646 11.313 15.17 11.313 17.5255C11.313 19.881 9.21533 21.4864 6.57861 21.4864C3.93018 21.4864 1.90283 19.881 1.90283 17.5255ZM29.981 17.5255C29.981 16.67 29.8521 15.8732 29.3716 14.7599L24.5083 3.41614C23.8403 1.8927 22.4458 1.00208 20.688 1.00208C18.438 1.00208 16.9732 2.43176 16.9732 4.5763V17.5255C16.9732 20.795 19.8911 23.2442 23.4653 23.2442C27.0396 23.2442 29.981 20.795 29.981 17.5255ZM26.4888 12.5099C25.5747 12.0646 24.5083 11.8067 23.4653 11.8067C21.6255 11.8067 19.8794 12.5099 18.7075 13.67V4.7638C18.7075 3.53333 19.5161 2.71301 20.7583 2.71301C21.7075 2.71301 22.5044 3.2638 22.9028 4.2013L26.4888 12.5099ZM28.1294 17.5255C28.1294 19.881 26.1021 21.4864 23.4653 21.4864C20.8169 21.4864 18.731 19.881 18.731 17.5255C18.731 15.17 20.8169 13.5646 23.4653 13.5646C26.1021 13.5646 28.1294 15.17 28.1294 17.5255ZM12.2857 14.8888C12.9653 14.4552 13.9732 14.1739 15.0278 14.1739C16.3286 14.1739 17.1724 14.3732 17.8403 14.8653V13.1192C17.0669 12.7911 16.1411 12.6388 15.0278 12.6388C14.0552 12.6388 13.106 12.838 12.2857 13.1778V14.8888ZM12.2857 11.3146C12.9653 10.8692 13.9732 10.5997 15.0278 10.5997C16.3286 10.5997 17.1724 10.7872 17.8403 11.2911V9.54504C17.0669 9.21692 16.1411 9.06458 15.0278 9.06458C14.0552 9.06458 13.106 9.2638 12.2857 9.60364V11.3146ZM12.2857 7.72864C12.9653 7.29504 13.9732 7.0138 15.0278 7.0138C16.3286 7.0138 17.1724 7.21301 17.8403 7.7052V5.97083C17.0669 5.6427 16.1411 5.47864 15.0278 5.47864C14.0552 5.47864 13.106 5.68958 12.2857 6.02942V7.72864Z" fill="black" fill-opacity="0.85"/>
</g>
<defs>
<clipPath id="clip0_2207_22070">
<rect width="29.918" height="23.2148" fill="white" transform="translate(0.0629883 0.0294189)"/>
</clipPath>
</defs>
</svg>
