<svg width="28" height="27" viewBox="0 0 28 27" fill="none" xmlns="http://www.w3.org/2000/svg">
<g clip-path="url(#clip0_2207_21251)">
<path d="M13.582 4.55284C14.4375 4.55284 15.1172 3.79112 15.1172 2.80674C15.1172 1.79893 14.8008 1.14268 14.2382 0.486436C13.8632 0.017686 13.3593 0.00596726 12.9726 0.416124C12.4101 1.09581 12.0468 1.76378 12.0468 2.80674C12.0468 3.79112 12.7382 4.55284 13.582 4.55284ZM12.914 9.95518H14.2148V3.29893H12.914V9.95518ZM5.92969 13.5763H21.2343V12.756C21.2343 10.4356 20.039 9.25206 17.6836 9.25206H9.48047C7.13672 9.25206 5.92969 10.4356 5.92969 12.756V13.5763ZM1.93359 25.8458H25.2187V18.6739C25.2187 16.3536 24.0234 15.17 21.6797 15.17H5.48437C3.14062 15.17 1.93359 16.3536 1.93359 18.6739V25.8458ZM13.5703 20.9005C12.4101 20.9005 11.5898 22.2599 9.91406 22.2599C8.29687 22.2599 7.52344 20.9005 6.44531 20.9005C5.34375 20.9005 4.57031 22.2599 2.37891 22.2599H1.93359V20.713H2.37891C4.04297 20.713 4.85156 19.3536 6.44531 19.3536C8.00391 19.3536 8.63672 20.713 9.91406 20.713C11.414 20.713 11.9765 19.3536 13.5703 19.3536C15.164 19.3536 15.7265 20.713 17.2382 20.713C18.5156 20.713 19.1367 19.3536 20.707 19.3536C22.2773 19.3536 23.0976 20.713 24.75 20.713H25.2187V22.2599H24.75C22.5703 22.2599 21.7851 20.9005 20.707 20.9005C19.6054 20.9005 18.8437 22.2599 17.2382 22.2599C15.5508 22.2599 14.7187 20.9005 13.5703 20.9005ZM1.01953 26.6661H26.1328C26.6484 26.6661 27.0703 26.2325 27.0703 25.7169C27.0703 25.2013 26.6484 24.7794 26.1328 24.7794H1.01953C0.503906 24.7794 0.0820312 25.2013 0.0820312 25.7169C0.0820312 26.2325 0.503906 26.6661 1.01953 26.6661Z" fill="black" fill-opacity="0.85"/>
</g>
<defs>
<clipPath id="clip0_2207_21251">
<rect width="26.9883" height="26.6367" fill="white" transform="translate(0.0820312 0.0294189)"/>
</clipPath>
</defs>
</svg>
