<svg width="22" height="22" viewBox="0 0 22 22" fill="none" xmlns="http://www.w3.org/2000/svg">
<g clip-path="url(#clip0_2207_26109)">
<path d="M3.77198 21.6271H17.9868C20.4478 21.6271 21.6665 20.4083 21.6665 17.9942V3.68567C21.6665 1.27161 20.4478 0.0528564 17.9868 0.0528564H3.77198C1.32276 0.0528564 0.0922852 1.25989 0.0922852 3.68567V17.9942C0.0922852 20.42 1.32276 21.6271 3.77198 21.6271Z" fill="black" fill-opacity="0.85"/>
<path d="M7.58057 15.5333V6.47473C7.58057 5.92395 7.96729 5.54895 8.50635 5.54895H8.99854V4.64661C8.99854 4.30676 9.24463 4.07239 9.56104 4.07239C9.88917 4.07239 10.1353 4.30676 10.1353 4.64661V5.54895H10.8853V4.64661C10.8853 4.30676 11.1314 4.07239 11.4595 4.07239C11.7759 4.07239 12.022 4.30676 12.022 4.64661V5.59583C13.5923 5.8302 14.5884 6.88489 14.5884 8.33801C14.5884 9.33411 13.979 10.2599 13.1118 10.6817C14.3306 11.045 15.104 12.0294 15.104 13.3536C15.104 15.0763 13.9673 16.2013 12.022 16.4122V17.3732C12.022 17.713 11.7759 17.9474 11.4595 17.9474C11.1314 17.9474 10.8853 17.713 10.8853 17.3732V16.4474H10.1353V17.3732C10.1353 17.713 9.88917 17.9474 9.56104 17.9474C9.24463 17.9474 8.99854 17.713 8.99854 17.3732V16.4474H8.50635C7.95557 16.4474 7.58057 16.0724 7.58057 15.5333ZM9.09229 15.0763L11.2017 15.0646C12.772 15.0528 13.604 14.4552 13.604 13.295C13.604 12.1114 12.7368 11.5138 11.0611 11.5138H9.09229V15.0763ZM9.09229 10.1427L10.7564 10.1544C12.2564 10.1661 13.0767 9.55676 13.0767 8.4552C13.0767 7.45911 12.3501 6.90833 11.0962 6.90833H9.09229V10.1427Z" fill="white"/>
</g>
<defs>
<clipPath id="clip0_2207_26109">
<rect width="21.5742" height="21.5977" fill="white" transform="translate(0.0922852 0.0294189)"/>
</clipPath>
</defs>
</svg>
