<svg width="15" height="27" viewBox="0 0 15 27" fill="none" xmlns="http://www.w3.org/2000/svg">
<g clip-path="url(#clip0_2207_26090)">
<path d="M1.5371 23.9591H7.17382C11.5567 23.9591 14.1934 21.8146 14.1934 18.2286C14.1934 15.4044 12.2598 13.4474 9.40039 13.0958V13.0021C11.5332 12.6153 13.127 10.6232 13.127 8.38489C13.127 5.30286 10.7246 3.25208 7.15039 3.25208H1.5371C0.658203 3.25208 0.0839844 3.8263 0.0839844 4.7052V22.506C0.0839844 23.3849 0.658203 23.9591 1.5371 23.9591ZM2.32226 12.2989V5.22083H6.63476C9.29492 5.22083 10.8887 6.43958 10.8887 8.61926C10.8887 10.9982 9.0957 12.2989 5.99023 12.2989H2.32226ZM2.32226 21.9903V14.2794H6.55273C10.0215 14.2794 11.9199 15.6036 11.9199 18.1349C11.9199 20.6544 10.0801 21.9903 6.82226 21.9903H2.32226ZM4.4082 4.58801V1.16614C4.4082 0.744263 4.06836 0.3927 3.64648 0.3927C3.21289 0.3927 2.87304 0.744263 2.87304 1.16614V4.58801H4.4082ZM8.0996 4.58801V1.16614C8.0996 0.744263 7.75976 0.3927 7.32617 0.3927C6.90429 0.3927 6.56445 0.744263 6.56445 1.16614V4.58801H8.0996ZM4.4082 22.6349H2.87304V26.1388C2.87304 26.5606 3.21289 26.9005 3.64648 26.9005C4.06836 26.9005 4.4082 26.5606 4.4082 26.1388V22.6349ZM8.0996 22.6349H6.56445V26.1388C6.56445 26.5606 6.90429 26.9005 7.32617 26.9005C7.75976 26.9005 8.0996 26.5606 8.0996 26.1388V22.6349Z" fill="black" fill-opacity="0.85"/>
</g>
<defs>
<clipPath id="clip0_2207_26090">
<rect width="14.1094" height="26.8711" fill="white" transform="translate(0.0839844 0.0294189)"/>
</clipPath>
</defs>
</svg>
