<svg width="25" height="24" viewBox="0 0 25 24" fill="none" xmlns="http://www.w3.org/2000/svg">
<g clip-path="url(#clip0_2207_11785)">
<path d="M3.80859 21.5581C3.80859 22.1206 3.9375 22.4839 4.23047 22.7769L5.22656 23.7964C5.54297 24.1128 6.19922 24.0074 6.19922 23.4331V5.398C6.19922 4.82378 6.07031 4.47222 5.77734 4.16753L4.78125 3.15972C4.46484 2.83159 3.80859 2.93706 3.80859 3.51128V21.5581ZM9.72656 21.5581C9.72656 22.1206 9.84375 22.4839 10.1484 22.7769L11.1445 23.7964C11.4609 24.1128 12.1055 24.0074 12.1055 23.4331V5.398C12.1055 4.82378 11.9883 4.47222 11.6836 4.16753L10.6875 3.15972C10.3711 2.83159 9.72656 2.93706 9.72656 3.51128V21.5581ZM15.6328 21.5581C15.6328 22.1206 15.7617 22.4839 16.0547 22.7769L17.0508 23.7964C17.3672 24.1128 18.0234 24.0074 18.0234 23.4331V5.398C18.0234 4.82378 17.8945 4.47222 17.6016 4.16753L16.6055 3.15972C16.2891 2.83159 15.6328 2.93706 15.6328 3.51128V21.5581ZM21.5508 21.5581C21.5508 22.1206 21.668 22.4839 21.9727 22.7769L22.9688 23.7964C23.2852 24.1128 23.9297 24.0074 23.9297 23.4331V5.398C23.9297 4.82378 23.8125 4.47222 23.5078 4.16753L22.5117 3.15972C22.1953 2.83159 21.5508 2.93706 21.5508 3.51128V21.5581Z" fill="black" fill-opacity="0.85"/>
<path d="M0 0.968262C0 1.48388 0.433594 1.91748 0.949219 1.91748H23.9297C24.4453 1.91748 24.8789 1.48388 24.8789 0.968262C24.8789 0.452637 24.4453 0.0307617 23.9297 0.0307617H0.949219C0.433594 0.0307617 0 0.452637 0 0.968262ZM0.949219 4.63623C1.38281 4.63623 1.74609 4.27295 1.74609 3.83935C1.74609 3.39404 1.38281 3.04248 0.949219 3.04248C0.503906 3.04248 0.140625 3.39404 0.140625 3.83935C0.140625 4.27295 0.503906 4.63623 0.949219 4.63623ZM0.949219 7.35498C1.38281 7.35498 1.74609 6.97998 1.74609 6.54638C1.74609 6.11279 1.38281 5.74951 0.949219 5.74951C0.503906 5.74951 0.140625 6.11279 0.140625 6.54638C0.140625 6.97998 0.503906 7.35498 0.949219 7.35498ZM0.949219 10.062C1.38281 10.062 1.74609 9.69873 1.74609 9.26514C1.74609 8.81982 1.38281 8.46826 0.949219 8.46826C0.503906 8.46826 0.140625 8.81982 0.140625 9.26514C0.140625 9.69873 0.503906 10.062 0.949219 10.062ZM0.949219 12.7808C1.38281 12.7808 1.74609 12.4058 1.74609 11.9722C1.74609 11.5386 1.38281 11.1753 0.949219 11.1753C0.503906 11.1753 0.140625 11.5386 0.140625 11.9722C0.140625 12.4058 0.503906 12.7808 0.949219 12.7808ZM0.949219 15.4878C1.38281 15.4878 1.74609 15.1246 1.74609 14.691C1.74609 14.2456 1.38281 13.8941 0.949219 13.8941C0.503906 13.8941 0.140625 14.2456 0.140625 14.691C0.140625 15.1246 0.503906 15.4878 0.949219 15.4878ZM0.949219 18.2066C1.38281 18.2066 1.74609 17.8316 1.74609 17.398C1.74609 16.9644 1.38281 16.6011 0.949219 16.6011C0.503906 16.6011 0.140625 16.9644 0.140625 17.398C0.140625 17.8316 0.503906 18.2066 0.949219 18.2066ZM0.949219 23.9605C1.45312 23.9605 1.88672 23.5386 1.88672 23.023V20.2574C1.88672 19.7417 1.46484 19.3199 0.949219 19.3199C0.433594 19.3199 0 19.7417 0 20.2574V23.023C0 23.5386 0.433594 23.9605 0.949219 23.9605Z" fill="black" fill-opacity="0.85"/>
</g>
<defs>
<clipPath id="clip0_2207_11785">
<rect width="24.8789" height="23.9414" fill="white" transform="translate(0 0.0307617)"/>
</clipPath>
</defs>
</svg>
