<svg width="25" height="24" viewBox="0 0 25 24" fill="none" xmlns="http://www.w3.org/2000/svg">
<g clip-path="url(#clip0_2207_11800)">
<path d="M3.25854 4.00208V6.70911C3.25854 7.20129 3.6101 7.52942 4.11401 7.52942H23.1804C23.7078 7.52942 24.0242 7.18958 24.0242 6.69739V3.99036C24.0242 3.49817 23.6961 3.15833 23.1804 3.15833H4.11401C3.59839 3.15833 3.25854 3.50989 3.25854 4.00208ZM3.25854 9.46301V12.1935C3.25854 12.6739 3.59839 13.0021 4.11401 13.0021H23.1922C23.6961 13.0021 24.0242 12.6622 24.0242 12.1935V9.45129C24.0242 8.97082 23.6961 8.6427 23.1922 8.6427H4.12573C3.6101 8.6427 3.25854 8.97083 3.25854 9.46301ZM3.25854 14.9356V17.6544C3.25854 18.1466 3.59839 18.4864 4.11401 18.4864H23.1804C23.7078 18.4864 24.0242 18.1466 24.0242 17.6544V14.9239C24.0242 14.4552 23.7078 14.1271 23.1804 14.1271H4.11401C3.6101 14.1271 3.25854 14.4552 3.25854 14.9356ZM3.25854 20.4083V23.1271C3.25854 23.6192 3.58667 23.9474 4.10229 23.9474H23.1687C23.6843 23.9474 24.0242 23.6192 24.0242 23.1271V20.4083C24.0242 19.9044 23.6961 19.588 23.1804 19.588H4.11401C3.58667 19.588 3.25854 19.9161 3.25854 20.4083Z" fill="black" fill-opacity="0.85"/>
<path d="M0.0944824 0.966919C0.0944824 1.48254 0.528076 1.91614 1.0437 1.91614H24.0242C24.5398 1.91614 24.9734 1.48254 24.9734 0.966919C24.9734 0.451294 24.5398 0.0294189 24.0242 0.0294189H1.0437C0.528076 0.0294189 0.0944824 0.451294 0.0944824 0.966919ZM1.0437 4.63489C1.47729 4.63489 1.84057 4.27161 1.84057 3.83801C1.84057 3.3927 1.47729 3.04114 1.0437 3.04114C0.598388 3.04114 0.235107 3.3927 0.235107 3.83801C0.235107 4.27161 0.598388 4.63489 1.0437 4.63489ZM1.0437 7.35364C1.47729 7.35364 1.84057 6.97864 1.84057 6.54504C1.84057 6.11145 1.47729 5.74817 1.0437 5.74817C0.598388 5.74817 0.235107 6.11145 0.235107 6.54504C0.235107 6.97864 0.598388 7.35364 1.0437 7.35364ZM1.0437 10.0606C1.47729 10.0606 1.84057 9.69739 1.84057 9.2638C1.84057 8.81848 1.47729 8.46692 1.0437 8.46692C0.598388 8.46692 0.235107 8.81848 0.235107 9.2638C0.235107 9.69739 0.598388 10.0606 1.0437 10.0606ZM1.0437 12.7794C1.47729 12.7794 1.84057 12.4044 1.84057 11.9708C1.84057 11.5372 1.47729 11.1739 1.0437 11.1739C0.598388 11.1739 0.235107 11.5372 0.235107 11.9708C0.235107 12.4044 0.598388 12.7794 1.0437 12.7794ZM1.0437 15.4864C1.47729 15.4864 1.84057 15.1232 1.84057 14.6896C1.84057 14.2442 1.47729 13.8927 1.0437 13.8927C0.598388 13.8927 0.235107 14.2442 0.235107 14.6896C0.235107 15.1232 0.598388 15.4864 1.0437 15.4864ZM1.0437 18.2052C1.47729 18.2052 1.84057 17.8302 1.84057 17.3966C1.84057 16.963 1.47729 16.5997 1.0437 16.5997C0.598388 16.5997 0.235107 16.963 0.235107 17.3966C0.235107 17.8302 0.598388 18.2052 1.0437 18.2052ZM1.0437 23.9591C1.5476 23.9591 1.9812 23.5372 1.9812 23.0216V20.256C1.9812 19.7403 1.55932 19.3185 1.0437 19.3185C0.528076 19.3185 0.0944824 19.7403 0.0944824 20.256V23.0216C0.0944824 23.5372 0.528076 23.9591 1.0437 23.9591Z" fill="black" fill-opacity="0.85"/>
</g>
<defs>
<clipPath id="clip0_2207_11800">
<rect width="24.8789" height="23.9414" fill="white" transform="translate(0.0944824 0.0294189)"/>
</clipPath>
</defs>
</svg>
