<svg width="32" height="25" viewBox="0 0 32 25" fill="none" xmlns="http://www.w3.org/2000/svg">
<g clip-path="url(#clip0_2207_22492)">
<path d="M18.4047 24.5816H30.6625C31.0375 24.5816 31.354 24.2886 31.354 23.8902C31.354 23.4917 31.0375 23.187 30.6625 23.187H18.4047C18.0297 23.187 17.7133 23.4917 17.7133 23.8902C17.7133 24.2886 18.0297 24.5816 18.4047 24.5816Z" fill="black" fill-opacity="0.85"/>
<path d="M24.5336 20.9839C28.7524 20.9839 31.354 18.4527 31.354 14.773V4.72999C31.354 4.07374 30.9204 3.65186 30.2641 3.65186C29.6079 3.65186 29.186 4.07374 29.186 4.72999V14.5972C29.186 17.2105 27.4633 18.98 24.5336 18.98C21.604 18.98 19.8813 17.2105 19.8813 14.5972V4.72999C19.8813 4.07374 19.436 3.65186 18.7797 3.65186C18.1235 3.65186 17.7133 4.07374 17.7133 4.72999V14.773C17.7133 18.4527 20.3149 20.9839 24.5336 20.9839Z" fill="black" fill-opacity="0.85"/>
<path d="M1.98682 20.6792H8.09229C11.6782 20.6792 13.9399 18.7925 13.9399 15.898C13.9399 13.6128 12.2875 11.9605 9.90869 11.8316V11.7378C11.854 11.4683 13.1782 10.0034 13.1782 8.14015C13.1782 5.52686 11.1743 3.92139 7.92823 3.92139H1.98682C0.73291 3.92139 0.00634766 4.65968 0.00634766 5.94874V18.6636C0.00634766 19.941 0.73291 20.6792 1.98682 20.6792ZM3.87354 17.9722V13.3199H6.81494C8.86573 13.3199 10.0141 14.1167 10.0141 15.6167C10.0141 17.1519 8.9126 17.9722 6.89697 17.9722H3.87354ZM3.87354 10.8824V6.6753H6.75635C8.39697 6.6753 9.36963 7.4253 9.36963 8.71436C9.36963 10.0738 8.29151 10.8824 6.46338 10.8824H3.87354Z" fill="black" fill-opacity="0.85"/>
</g>
<defs>
<clipPath id="clip0_2207_22492">
<rect width="31.3477" height="24.5508" fill="white" transform="translate(0.00634766 0.0307617)"/>
</clipPath>
</defs>
</svg>
