<svg width="14" height="17" viewBox="0 0 14 17" fill="none" xmlns="http://www.w3.org/2000/svg">
<g clip-path="url(#clip0_2207_22463)">
<path d="M1.98267 16.7886H8.08814C11.6741 16.7886 13.9358 14.9019 13.9358 12.0074C13.9358 9.72217 12.2834 8.06982 9.90454 7.94092V7.84717C11.8499 7.57764 13.1741 6.11279 13.1741 4.24951C13.1741 1.63623 11.1702 0.0307617 7.92408 0.0307617H1.98267C0.728759 0.0307617 0.00219727 0.769043 0.00219727 2.0581V14.773C0.00219727 16.0503 0.728759 16.7886 1.98267 16.7886ZM3.86939 14.0816V9.4292H6.81079C8.86158 9.4292 10.01 10.2261 10.01 11.7261C10.01 13.2613 8.90845 14.0816 6.89282 14.0816H3.86939ZM3.86939 6.9917V2.78467H6.7522C8.39282 2.78467 9.36548 3.53467 9.36548 4.82373C9.36548 6.1831 8.28736 6.9917 6.45923 6.9917H3.86939Z" fill="black" fill-opacity="0.85"/>
</g>
<defs>
<clipPath id="clip0_2207_22463">
<rect width="13.9336" height="16.7695" fill="white" transform="translate(0.00219727 0.0307617)"/>
</clipPath>
</defs>
</svg>
