<svg width="24" height="24" viewBox="0 0 24 24" fill="none" xmlns="http://www.w3.org/2000/svg">
<g clip-path="url(#clip0_2207_15320)">
<path d="M11.9909 23.9488C18.53 23.9488 23.944 18.5347 23.944 11.9956C23.944 5.46826 18.5183 0.0424805 11.9792 0.0424805C5.4519 0.0424805 0.0378418 5.46826 0.0378418 11.9956C0.0378418 18.5347 5.46362 23.9488 11.9909 23.9488Z" fill="black" fill-opacity="0.85"/>
<path d="M5.35815 16.0035V12.7925C5.35815 11.855 5.55737 11.316 6.073 10.6597L6.55346 10.0386C6.7644 9.01904 7.11596 7.96435 7.31518 7.5542C7.61987 6.92138 8.19409 6.54638 8.93237 6.45264C9.31909 6.40576 10.5378 6.38232 11.9909 6.38232C13.4323 6.38232 14.6628 6.40576 15.0378 6.45264C15.7878 6.5581 16.362 6.92138 16.655 7.5542C16.8542 7.96435 17.2058 9.01904 17.4284 10.0386L17.8972 10.6597C18.4245 11.316 18.612 11.855 18.612 12.7925V16.0035C18.612 16.4253 18.2839 16.7535 17.8737 16.7535H17.2058C16.7839 16.7535 16.4558 16.4253 16.4558 16.0035V15.0777C15.2136 15.1597 13.4323 15.2066 11.9909 15.2066C10.5495 15.2066 8.75659 15.1597 7.5144 15.0777V16.0035C7.5144 16.4253 7.18628 16.7535 6.77612 16.7535H6.10815C5.68628 16.7535 5.35815 16.4253 5.35815 16.0035ZM9.99878 11.2339C9.99878 11.3628 10.1042 11.4683 10.2448 11.4683H11.7566L11.0183 13.4839C10.8776 13.8472 11.2644 14.0464 11.4987 13.7535L13.9011 10.648C13.9362 10.5777 13.9831 10.4956 13.9831 10.4253C13.9831 10.2847 13.8776 10.1792 13.737 10.1792L12.2253 10.191L12.9753 8.16357C13.1042 7.80029 12.7409 7.62451 12.5066 7.91748L10.0808 11.023C10.0222 11.0933 9.99878 11.1636 9.99878 11.2339Z" fill="white"/>
</g>
<defs>
<clipPath id="clip0_2207_15320">
<rect width="23.9062" height="23.918" fill="white" transform="translate(0.0378418 0.0307617)"/>
</clipPath>
</defs>
</svg>
