<svg width="24" height="24" viewBox="0 0 24 24" fill="none" xmlns="http://www.w3.org/2000/svg">
<g clip-path="url(#clip0_2207_8514)">
<path d="M11.9951 23.937C18.5342 23.937 23.9482 18.5113 23.9482 11.9839C23.9482 5.44482 18.5225 0.0307617 11.9834 0.0307617C5.45605 0.0307617 0.0419922 5.44482 0.0419922 11.9839C0.0419922 18.5113 5.46777 23.937 11.9951 23.937ZM11.9951 21.9449C6.46387 21.9449 2.0459 17.5152 2.0459 11.9839C2.0459 6.45264 6.45215 2.02295 11.9834 2.02295C17.5147 2.02295 21.9561 6.45264 21.9561 11.9839C21.9561 17.5152 17.5264 21.9449 11.9951 21.9449Z" fill="black" fill-opacity="0.85"/>
<path d="M6.85059 12.7924C6.85059 13.0854 7.08497 13.2963 7.38966 13.2963H11.3623L9.24122 18.9916C8.95997 19.7416 9.75684 20.1518 10.249 19.5424L16.6709 11.4799C16.7998 11.3393 16.8701 11.1752 16.8701 11.0229C16.8701 10.7299 16.6358 10.519 16.3311 10.519H12.3584L14.4795 4.82369C14.7608 4.07369 13.9639 3.66353 13.4717 4.26119L7.04981 12.3237C6.92091 12.476 6.85059 12.6401 6.85059 12.7924Z" fill="black" fill-opacity="0.85"/>
</g>
<defs>
<clipPath id="clip0_2207_8514">
<rect width="23.9062" height="23.918" fill="white" transform="translate(0.0419922 0.0307617)"/>
</clipPath>
</defs>
</svg>
