<svg width="22" height="22" viewBox="0 0 22 22" fill="none" xmlns="http://www.w3.org/2000/svg">
<g clip-path="url(#clip0_2207_8524)">
<path d="M3.75952 21.6285H17.9743C20.4353 21.6285 21.654 20.4097 21.654 17.9956V3.68701C21.654 1.27295 20.4353 0.0541992 17.9743 0.0541992H3.75952C1.3103 0.0541992 0.079834 1.26123 0.079834 3.68701V17.9956C0.079834 20.4214 1.3103 21.6285 3.75952 21.6285ZM3.78295 19.7417C2.61108 19.7417 1.96655 19.1206 1.96655 17.9019V3.78076C1.96655 2.56201 2.61108 1.94092 3.78295 1.94092H17.9509C19.111 1.94092 19.7673 2.56201 19.7673 3.78076V17.9019C19.7673 19.1206 19.111 19.7417 17.9509 19.7417H3.78295Z" fill="black" fill-opacity="0.85"/>
<path d="M5.73999 11.6323C5.73999 11.9252 5.98608 12.1362 6.27905 12.1362H10.2517L8.13061 17.8315C7.84936 18.5815 8.64624 18.9916 9.13842 18.3823L15.572 10.3198C15.6892 10.1791 15.7595 10.0151 15.7595 9.86275C15.7595 9.56978 15.5251 9.35884 15.2204 9.35884H11.2595L13.3689 3.66353C13.6618 2.91353 12.8532 2.50338 12.361 3.10103L5.93921 11.1635C5.8103 11.3159 5.73999 11.4799 5.73999 11.6323Z" fill="black" fill-opacity="0.85"/>
</g>
<defs>
<clipPath id="clip0_2207_8524">
<rect width="21.5742" height="21.5977" fill="white" transform="translate(0.079834 0.0307617)"/>
</clipPath>
</defs>
</svg>
