<svg width="23" height="27" viewBox="0 0 23 27" fill="none" xmlns="http://www.w3.org/2000/svg">
<g clip-path="url(#clip0_2207_8544)">
<path d="M8.50732 25.7325L19.148 12.0333C19.3472 11.7872 19.4527 11.5528 19.4527 11.2833C19.4527 10.8379 19.1128 10.4981 18.6206 10.4981H11.9878L15.4917 1.38087C15.9487 0.173842 14.6714 -0.482408 13.898 0.525405L3.25732 14.2129C3.04639 14.4708 2.94092 14.7051 2.94092 14.9629C2.94092 15.42 3.29248 15.7598 3.78467 15.7598H10.4175L6.91357 24.8653C6.44482 26.0723 7.73389 26.7286 8.50732 25.7325ZM9.19873 22.5801L13.1128 14.0137H5.8706L13.523 3.85353L13.1948 3.67775L9.28076 12.2442H16.523L8.8706 22.4043L9.19873 22.5801Z" fill="black" fill-opacity="0.85"/>
<path d="M18.4214 23.5762C19.312 24.4668 20.7652 24.4668 21.6323 23.5762C22.523 22.709 22.523 21.2442 21.6323 20.3653L3.94874 2.68164C3.05811 1.79102 1.60499 1.79102 0.726082 2.69336C-0.152825 3.56055 -0.141106 5.01367 0.726082 5.89258L18.4214 23.5762Z" fill="white"/>
<path d="M19.3941 22.6035C19.7456 22.955 20.3316 22.955 20.6714 22.6035C21.023 22.2636 21.023 21.6894 20.6714 21.3261L2.98779 3.64258C2.63623 3.29102 2.03857 3.29102 1.69873 3.64258C1.35889 3.98242 1.35889 4.58008 1.69873 4.91992L19.3941 22.6035Z" fill="black" fill-opacity="0.85"/>
</g>
<defs>
<clipPath id="clip0_2207_8544">
<rect width="22.229" height="26.3838" fill="white" transform="translate(0.0712891 0.0307617)"/>
</clipPath>
</defs>
</svg>
