<svg width="24" height="24" viewBox="0 0 24 24" fill="none" xmlns="http://www.w3.org/2000/svg">
<g clip-path="url(#clip0_2207_8519)">
<path d="M11.9972 23.9488C18.5363 23.9488 23.9503 18.5347 23.9503 11.9956C23.9503 5.46826 18.5246 0.0424805 11.9855 0.0424805C5.45813 0.0424805 0.0440674 5.46826 0.0440674 11.9956C0.0440674 18.5347 5.46985 23.9488 11.9972 23.9488Z" fill="black" fill-opacity="0.85"/>
<path d="M6.71204 12.8276C6.71204 12.6752 6.78235 12.4995 6.91126 12.3588L13.5324 4.03855C14.0363 3.41746 14.8683 3.83933 14.5753 4.61277L12.3839 10.4838H16.4855C16.8019 10.4838 17.0363 10.7065 17.0363 11.0112C17.0363 11.1635 16.966 11.3393 16.8371 11.4916L10.216 19.8002C9.71204 20.4213 8.88001 19.9995 9.17298 19.226L11.3644 13.3549H7.26282C6.94641 13.3549 6.71204 13.1323 6.71204 12.8276Z" fill="white"/>
</g>
<defs>
<clipPath id="clip0_2207_8519">
<rect width="23.9062" height="23.918" fill="white" transform="translate(0.0440674 0.0307617)"/>
</clipPath>
</defs>
</svg>
