<svg width="28" height="22" viewBox="0 0 28 22" fill="none" xmlns="http://www.w3.org/2000/svg">
<g clip-path="url(#clip0_2207_15305)">
<path d="M13.8969 18.5464C17.8344 18.5464 23.0727 18.3472 25.2875 18.0894C26.8813 17.9136 27.7602 17.0347 27.7602 15.5347V13.4722C27.7602 11.4917 27.3617 10.3902 26.2836 8.98388L25.2875 7.70654C24.8656 5.59717 24.0805 3.38232 23.682 2.51514C23.0492 1.19092 21.8422 0.405762 20.2836 0.194824C19.4984 0.0893555 16.932 0.0307617 13.8969 0.0307617C10.8734 0.0307617 8.30701 0.101074 7.52185 0.194824C5.96326 0.382324 4.74451 1.19092 4.12341 2.51514C3.71326 3.38232 2.93982 5.59717 2.50623 7.70654L1.52185 8.98388C0.432007 10.3902 0.0335693 11.4917 0.0335693 13.4722V15.5347C0.0335693 17.0347 0.924194 17.9136 2.50623 18.0894C4.73279 18.3472 9.95935 18.5464 13.8969 18.5464ZM13.8969 17.0113C9.91248 17.0113 4.8031 16.8238 2.91638 16.5894C1.92029 16.4722 1.56873 15.9566 1.56873 15.066V13.4722C1.56873 11.8667 1.82654 11.1167 2.7406 9.92138L3.93591 8.35107C4.25232 6.65185 5.01404 4.28467 5.51795 3.20654C5.89295 2.39795 6.63123 1.89404 7.69763 1.76514C8.44763 1.67138 10.8266 1.56592 13.8969 1.56592C16.9789 1.56592 19.393 1.67138 20.0727 1.76514C21.1742 1.90576 21.9008 2.40967 22.2875 3.20654C22.7914 4.28467 23.5531 6.65185 23.8578 8.35107L25.0648 9.92138C25.9672 11.1167 26.225 11.8667 26.225 13.4722V15.066C26.225 15.9566 25.8734 16.4722 24.8774 16.5894C23.0024 16.8238 17.8813 17.0113 13.8969 17.0113ZM2.18982 21.7691H3.56091C4.43982 21.7691 5.11951 21.0894 5.11951 20.2222V17.4331L0.631225 16.7886V20.2222C0.631225 21.0894 1.31091 21.7691 2.18982 21.7691ZM24.2328 21.7691H25.6156C26.4945 21.7691 27.1625 21.0894 27.1625 20.2222V16.7886L22.6859 17.4331V20.2222C22.6859 21.0894 23.3539 21.7691 24.2328 21.7691Z" fill="black" fill-opacity="0.85"/>
<path d="M10.1938 9.99164C10.1938 10.2026 10.3695 10.3549 10.5922 10.3549H13.4984L11.9398 14.5151C11.7289 15.0659 12.3266 15.3705 12.6898 14.9252L17.3656 9.0307C17.4711 8.92523 17.5297 8.79632 17.5297 8.69086C17.5297 8.47992 17.3422 8.31586 17.1195 8.31586H14.225L15.7719 4.16742C15.9711 3.60492 15.3852 3.31195 15.0336 3.75726L10.3344 9.65179C10.2524 9.76898 10.1938 9.87445 10.1938 9.99164Z" fill="black" fill-opacity="0.85"/>
</g>
<defs>
<clipPath id="clip0_2207_15305">
<rect width="27.7266" height="21.7852" fill="white" transform="translate(0.0335693 0.0307617)"/>
</clipPath>
</defs>
</svg>
