<svg width="22" height="22" viewBox="0 0 22 22" fill="none" xmlns="http://www.w3.org/2000/svg">
<g clip-path="url(#clip0_2207_8529)">
<path d="M3.76172 21.6285H17.9765C20.4375 21.6285 21.6562 20.4097 21.6562 17.9956V3.68701C21.6562 1.27295 20.4375 0.0541992 17.9765 0.0541992H3.76172C1.3125 0.0541992 0.0820312 1.26123 0.0820312 3.68701V17.9956C0.0820312 20.4214 1.3125 21.6285 3.76172 21.6285Z" fill="black" fill-opacity="0.85"/>
<path d="M5.58984 11.6557C5.58984 11.5034 5.66015 11.3276 5.78906 11.1752L12.4101 2.86668C12.914 2.24558 13.7578 2.66746 13.4531 3.4409L11.2734 9.31199H15.3632C15.6797 9.31199 15.914 9.53465 15.914 9.83933C15.914 9.99168 15.8437 10.1674 15.7265 10.308L9.09375 18.6166C8.58984 19.2495 7.75781 18.8276 8.05078 18.0541L10.2422 12.183H6.14062C5.83594 12.183 5.58984 11.9604 5.58984 11.6557Z" fill="white"/>
</g>
<defs>
<clipPath id="clip0_2207_8529">
<rect width="21.5742" height="21.5977" fill="white" transform="translate(0.0820312 0.0307617)"/>
</clipPath>
</defs>
</svg>
