<svg width="24" height="24" viewBox="0 0 24 24" fill="none" xmlns="http://www.w3.org/2000/svg">
<g clip-path="url(#clip0_2207_8556)">
<path d="M12.0266 23.937C18.5657 23.937 23.9797 18.5113 23.9797 11.9839C23.9797 5.44482 18.554 0.0307617 12.0149 0.0307617C5.48755 0.0307617 0.0734863 5.44482 0.0734863 11.9839C0.0734863 18.5113 5.49927 23.937 12.0266 23.937ZM12.0266 21.9449C6.49537 21.9449 2.0774 17.5152 2.0774 11.9839C2.0774 6.45264 6.48365 2.02295 12.0149 2.02295C17.5462 2.02295 21.9876 6.45264 21.9876 11.9839C21.9876 17.5152 17.5579 21.9449 12.0266 21.9449Z" fill="black" fill-opacity="0.85"/>
<path d="M6.88208 12.7924C6.88208 13.0854 7.11646 13.2963 7.42115 13.2963H11.3938L9.27271 18.9916C8.99146 19.7416 9.78833 20.1518 10.2805 19.5424L16.7024 11.4799C16.8313 11.3393 16.9016 11.1752 16.9016 11.0229C16.9016 10.7299 16.6673 10.519 16.3626 10.519H12.3899L14.511 4.82369C14.7923 4.07369 13.9954 3.66353 13.5032 4.26119L7.0813 12.3237C6.9524 12.476 6.88208 12.6401 6.88208 12.7924Z" fill="black" fill-opacity="0.85"/>
<path d="M16.7258 18.605C17.2649 19.1324 18.1321 19.1441 18.6477 18.605C19.1985 18.066 19.1868 17.2339 18.6477 16.6949L7.30396 5.35107C6.7649 4.81201 5.90943 4.81201 5.38208 5.35107C4.84302 5.87842 4.84302 6.7456 5.38208 7.27295L16.7258 18.605Z" fill="white"/>
<path d="M17.3118 18.0308C17.511 18.23 17.8626 18.23 18.0618 18.0308C18.2727 17.8081 18.2727 17.4917 18.0618 17.2808L6.72977 5.93701C6.51883 5.72607 6.17899 5.72607 5.96805 5.93701C5.75711 6.13623 5.76883 6.48779 5.96805 6.68701L17.3118 18.0308Z" fill="black" fill-opacity="0.85"/>
</g>
<defs>
<clipPath id="clip0_2207_8556">
<rect width="23.9062" height="23.918" fill="white" transform="translate(0.0734863 0.0307617)"/>
</clipPath>
</defs>
</svg>
