<svg width="28" height="22" viewBox="0 0 28 22" fill="none" xmlns="http://www.w3.org/2000/svg">
<g clip-path="url(#clip0_2207_17487)">
<path d="M3.70911 21.605H23.9825C26.4435 21.605 27.6622 20.398 27.6622 17.9839V6.65185C27.6622 4.23779 26.4435 3.03076 23.9825 3.03076H22.3653V1.46045C22.3653 0.569824 21.8497 0.0307617 20.9474 0.0307617H17.4903C16.5997 0.0307617 16.0841 0.569824 16.0841 1.46045V3.03076H11.6192V1.46045C11.6192 0.569824 11.1036 0.0307617 10.2013 0.0307617H6.74426C5.84192 0.0307617 5.33801 0.569824 5.33801 1.46045V3.03076H3.70911C1.25989 3.03076 0.0294189 4.23779 0.0294189 6.65185V17.9839C0.0294189 20.398 1.25989 21.605 3.70911 21.605Z" fill="black" fill-opacity="0.85"/>
<path d="M10.0138 13.0972C10.0138 12.98 10.0724 12.8746 10.1661 12.7574L15.006 6.67531C15.3692 6.20656 15.9786 6.52297 15.7677 7.09719L14.1739 11.3746H17.1622C17.3849 11.3746 17.5841 11.5503 17.5841 11.7613C17.5841 11.8785 17.5255 12.0074 17.42 12.1128L12.5919 18.1831C12.2286 18.6519 11.6075 18.3355 11.8185 17.773L13.4239 13.4839H10.4239C10.2013 13.4839 10.0138 13.3199 10.0138 13.0972Z" fill="white"/>
</g>
<defs>
<clipPath id="clip0_2207_17487">
<rect width="27.6328" height="21.5977" fill="white" transform="translate(0.0294189 0.0307617)"/>
</clipPath>
</defs>
</svg>
