<svg width="23" height="30" viewBox="0 0 23 30" fill="none" xmlns="http://www.w3.org/2000/svg">
<g clip-path="url(#clip0_2207_1058)">
<path d="M22.8057 24.4492V7.0235C22.8057 4.57428 21.5869 3.34381 19.1729 3.34381H7.77051C5.35645 3.34381 4.1377 4.57428 4.1377 7.0235V24.4492C4.1377 26.8985 5.35645 28.1172 7.77051 28.1172H19.1729C21.5869 28.1172 22.8057 26.8985 22.8057 24.4492Z" fill="black" fill-opacity="0.85"/>
<path d="M0.0126953 24.086C0.0126953 26.9688 1.95801 28.8321 5.13379 28.6446C9.11817 28.4336 12.7627 28.0586 17.3682 26.7813C19.7471 26.1016 20.8369 24.5781 20.8369 21.8477V4.69146C20.8369 1.21099 18.5166 -0.546827 15.3643 0.203173C12.1299 0.929736 8.77832 1.48052 4.65332 1.7149C1.92286 1.89068 0.0126953 3.64849 0.0126953 6.63677V24.086Z" fill="white"/>
<path d="M1.60645 24.086C1.60645 26.125 2.87208 27.1797 5.04004 27.0508C8.97754 26.8399 12.458 26.4766 16.9346 25.2461C18.5986 24.7774 19.2432 23.8985 19.2432 21.8477V4.69148C19.2432 2.35945 17.9893 1.22273 15.7393 1.75007C12.458 2.48835 8.97754 3.07429 4.75879 3.32038C2.86036 3.43757 1.60645 4.5157 1.60645 6.63679V24.086Z" fill="black" fill-opacity="0.85"/>
<path d="M5.94239 9.19143C5.52051 9.21487 5.23926 8.9219 5.23926 8.53518C5.23926 8.16018 5.4502 7.86721 5.94239 7.83205C9.36426 7.6094 12.1065 7.12893 14.79 6.54299C15.3291 6.4258 15.6104 6.75393 15.6104 7.12893C15.6104 7.46877 15.4815 7.75002 14.9189 7.86721C12.1065 8.50002 9.36426 8.96877 5.94239 9.19143ZM5.94239 13.0821C5.52051 13.1055 5.23926 12.8008 5.23926 12.4141C5.23926 12.0508 5.4502 11.7578 5.94239 11.7227C9.36426 11.5 12.1065 11.0196 14.79 10.4219C15.3291 10.3164 15.6104 10.6446 15.6104 11.0196C15.6104 11.3594 15.4815 11.6406 14.9189 11.7578C12.1065 12.3789 9.36426 12.8594 5.94239 13.0821ZM5.94239 16.9727C5.52051 16.9961 5.23926 16.6914 5.23926 16.3047C5.23926 15.9414 5.4502 15.6485 5.94239 15.6133C9.36426 15.3906 12.1065 14.9102 14.79 14.3125C15.3291 14.2071 15.6104 14.5352 15.6104 14.9102C15.6104 15.25 15.4815 15.5313 14.9189 15.6485C12.1065 16.2696 9.36426 16.75 5.94239 16.9727ZM5.94239 20.8516C5.52051 20.875 5.23926 20.5703 5.23926 20.1836C5.23926 19.8086 5.4502 19.5274 5.94239 19.4805C7.8877 19.375 9.16504 19.1992 10.3252 19.0117C10.8643 18.918 11.1572 19.2696 11.1572 19.6328C11.1572 19.9492 10.9463 20.2656 10.5479 20.336C9.23536 20.5469 7.92286 20.7344 5.94239 20.8516Z" fill="white"/>
</g>
<defs>
<clipPath id="clip0_2207_1058">
<rect width="22.793" height="29.3224" fill="white" transform="translate(0.0126953 0.0322266)"/>
</clipPath>
</defs>
</svg>
