<svg width="29" height="23" viewBox="0 0 29 23" fill="none" xmlns="http://www.w3.org/2000/svg">
<g clip-path="url(#clip0_2207_17587)">
<path d="M1.41651 21.3197C1.81495 21.3197 2.16651 21.0853 2.61182 20.8158C3.90088 19.9369 5.4829 19.3978 7.11181 19.4095C8.63525 19.4213 10.1353 19.9134 11.3892 20.9447C11.0493 20.1713 10.9556 19.3275 11.1548 18.5072C10.0298 17.9095 8.62354 17.5228 7.1587 17.5228C5.11963 17.5228 3.2212 18.097 1.97901 18.9877V4.35096C2.92823 2.97986 4.99073 2.05408 7.1587 2.05408C9.38526 2.05408 11.3306 2.99158 12.1626 4.42127V16.5267C12.5376 16.0697 13.5571 15.2963 14.0493 14.9564V4.42127C14.8931 2.99158 16.8384 2.05408 19.065 2.05408C21.0571 2.05408 22.979 2.85096 23.9868 4.04627C24.7017 3.96424 25.4282 4.02283 26.1196 4.23377C26.1196 3.88221 26.1079 3.71814 25.9907 3.51893C24.9361 1.70252 22.2993 0.167358 19.065 0.167358C16.5103 0.167358 14.2954 1.18689 13.1118 2.6283C11.9282 1.18689 9.71338 0.167358 7.1587 0.167358C3.92432 0.167358 1.2876 1.70252 0.23291 3.51893C0.115723 3.71814 0.0922852 3.88221 0.0922852 4.08143V19.9838C0.0922852 20.9447 0.725097 21.3197 1.41651 21.3197ZM24.8071 21.3197C25.4985 21.3197 26.1196 20.9447 26.1196 19.9838V15.5072C25.3462 15.7299 24.69 15.683 24.2329 15.8002V18.9877C23.6118 18.5072 22.7329 18.1088 21.7017 17.9095C21.2915 18.4486 20.8696 19.0228 20.4946 19.5736C21.6548 19.7377 22.7446 20.183 23.6118 20.8158C24.0571 21.0853 24.397 21.3197 24.8071 21.3197Z" fill="black" fill-opacity="0.85"/>
<path d="M13.4868 21.2378C14.6235 22.3745 16.3228 22.4214 17.4361 21.0854C18.2564 20.101 20.3189 16.7495 22.0884 14.98C23.0728 13.9956 24.397 13.8784 25.1353 13.8784C27.9009 13.8784 28.979 11.6518 28.6392 10.1167L25.1353 11.0425L24.7368 9.61275C24.5962 9.0854 24.8189 8.64009 25.4165 8.47603L28.0064 7.78462C27.9126 7.55025 27.69 7.2104 27.4087 6.91743C25.815 5.30025 23.1782 5.26509 21.6079 6.76509C19.3228 8.93306 21.0689 11.2534 19.5571 12.7651C17.6587 14.6518 15.0337 16.0346 13.6392 17.2768C12.3267 18.4487 12.3384 20.0893 13.4868 21.2378ZM15.4321 20.1362C14.9634 20.1362 14.5767 19.7495 14.5767 19.2807C14.5767 18.812 14.9634 18.437 15.4321 18.437C15.9126 18.437 16.2876 18.812 16.2876 19.2807C16.2876 19.7495 15.9126 20.1362 15.4321 20.1362Z" fill="black" fill-opacity="0.85"/>
</g>
<defs>
<clipPath id="clip0_2207_17587">
<rect width="28.6075" height="22.0585" fill="white" transform="translate(0.0922852 0.0307617)"/>
</clipPath>
</defs>
</svg>
