<svg width="24" height="24" viewBox="0 0 24 24" fill="none" xmlns="http://www.w3.org/2000/svg">
<g clip-path="url(#clip0_2207_1543)">
<path d="M11.9867 23.9384C18.5258 23.9384 23.9398 18.5127 23.9398 11.9853C23.9398 5.44629 18.5141 0.0322266 11.975 0.0322266C5.44763 0.0322266 0.0335693 5.44629 0.0335693 11.9853C0.0335693 18.5127 5.45935 23.9384 11.9867 23.9384ZM11.9867 21.9463C6.45545 21.9463 2.03748 17.5166 2.03748 11.9853C2.03748 6.45411 6.44373 2.02442 11.975 2.02442C17.5063 2.02442 21.9477 6.45411 21.9477 11.9853C21.9477 17.5166 17.518 21.9463 11.9867 21.9463Z" fill="black" fill-opacity="0.85"/>
<path d="M6.01013 17.7158H7.01795C7.45154 17.7158 7.68591 17.4814 7.68591 17.0595V7.89551C7.68591 7.47364 7.45154 7.23926 7.01795 7.23926H6.01013C5.56482 7.23926 5.31873 7.47364 5.31873 7.89551V17.0595C5.31873 17.4814 5.56482 17.7158 6.01013 17.7158ZM9.13904 17.7158H11.3305C11.7758 17.7158 11.9984 17.4814 11.9984 17.0595V9.74707C11.9984 9.3252 11.7758 9.06739 11.3305 9.06739H9.13904C8.71716 9.06739 8.47107 9.3252 8.47107 9.74707V17.0595C8.47107 17.4814 8.71716 17.7158 9.13904 17.7158ZM9.65466 11.0361C9.44373 11.0361 9.31482 10.8603 9.31482 10.6845C9.31482 10.4853 9.45545 10.333 9.65466 10.333H10.8383C11.0375 10.333 11.1898 10.4853 11.1898 10.6845C11.1898 10.8603 11.0375 11.0361 10.8383 11.0361H9.65466ZM9.65466 16.4853C9.45545 16.4853 9.31482 16.333 9.31482 16.122C9.31482 15.9228 9.44373 15.7705 9.65466 15.7705H10.8383C11.0375 15.7705 11.1898 15.9228 11.1898 16.122C11.1898 16.333 11.0375 16.4853 10.8383 16.4853H9.65466ZM13.4633 17.7158H14.7875C15.2211 17.7158 15.4555 17.4814 15.4555 17.0595V6.40723C15.4555 5.97364 15.2211 5.73926 14.7875 5.73926H13.4633C13.018 5.73926 12.7953 5.97364 12.7953 6.40723V17.0595C12.7953 17.4814 13.018 17.7158 13.4633 17.7158ZM17.5766 17.7158L18.432 17.5049C18.8539 17.4228 19.0297 17.1416 18.9594 16.7197L17.1313 7.88379C17.0492 7.4502 16.7797 7.23926 16.3578 7.34473L15.5024 7.55567C15.0922 7.64942 14.893 7.91895 14.975 8.34082L16.8031 17.2002C16.8852 17.6103 17.1664 17.8095 17.5766 17.7158Z" fill="black" fill-opacity="0.85"/>
</g>
<defs>
<clipPath id="clip0_2207_1543">
<rect width="23.9062" height="23.918" fill="white" transform="translate(0.0335693 0.0322266)"/>
</clipPath>
</defs>
</svg>
