<svg width="29" height="27" viewBox="0 0 29 27" fill="none" xmlns="http://www.w3.org/2000/svg">
<g clip-path="url(#clip0_2207_1535)">
<path d="M0.0314941 23.2705C0.0314941 25.0752 0.898682 25.9658 2.70337 25.9658H18.7112C20.5042 25.9658 21.3831 25.0752 21.3831 23.2705V2.73926C21.3831 0.934571 20.5042 0.0322266 18.7112 0.0322266H16.4143C14.6213 0.0322266 13.7424 0.934571 13.7424 2.73926V7.39161C13.4846 7.33301 13.1799 7.28614 12.8518 7.28614H7.74243C7.40258 7.28614 7.10961 7.33301 6.84008 7.39161V5.98535C6.84008 4.18067 5.9729 3.27832 4.17993 3.27832H2.70337C0.898682 3.27832 0.0314941 4.18067 0.0314941 5.98535V23.2705ZM1.80102 23.1299V6.11426C1.80102 5.42285 2.1643 5.04785 2.89087 5.04785H3.99243C4.71899 5.04785 5.07055 5.42285 5.07055 6.11426V24.1963H2.89087C2.1643 24.1963 1.80102 23.8213 1.80102 23.1299ZM6.84008 24.1963V10.122C6.84008 9.43067 7.20337 9.05567 7.92993 9.05567H12.6643C13.3909 9.05567 13.7424 9.43067 13.7424 10.122V24.1963H6.84008ZM15.512 24.1963V2.86817C15.512 2.17676 15.8753 1.80176 16.6018 1.80176H18.5237C19.262 1.80176 19.6135 2.17676 19.6135 2.86817V23.1299C19.6135 23.8213 19.262 24.1963 18.5237 24.1963H15.512ZM7.90649 11.3291C7.90649 11.7392 8.21118 12.0556 8.64477 12.0556H11.9729C12.3831 12.0556 12.6995 11.7392 12.6995 11.3291C12.6995 10.9306 12.3831 10.6142 11.9729 10.6142H8.64477C8.21118 10.6142 7.90649 10.9306 7.90649 11.3291ZM7.90649 21.9228C7.90649 22.333 8.21118 22.6494 8.64477 22.6494H11.9729C12.3831 22.6494 12.6995 22.333 12.6995 21.9228C12.6995 21.5244 12.3831 21.208 11.9729 21.208H8.64477C8.21118 21.208 7.90649 21.5244 7.90649 21.9228ZM22.4377 23.5986C22.6604 25.3799 23.6096 26.2119 25.4026 25.9658L26.6213 25.8017C28.4143 25.5556 29.1526 24.6064 28.9534 22.8252L26.9377 5.30567C26.7268 3.52442 25.7659 2.68067 23.9729 2.93848L22.7542 3.10254C20.9495 3.36035 20.1995 4.29785 20.4104 6.07911L22.4377 23.5986ZM24.1721 23.247L22.1917 6.00879C22.1096 5.31739 22.426 4.93067 23.1526 4.8252L23.9963 4.71973C24.7229 4.61426 25.1213 4.96582 25.2034 5.64551L27.1838 22.8838C27.2659 23.5869 26.9495 23.9619 26.2346 24.0674L25.3674 24.1845C24.6526 24.29 24.2542 23.9502 24.1721 23.247Z" fill="black" fill-opacity="0.85"/>
</g>
<defs>
<clipPath id="clip0_2207_1535">
<rect width="28.9535" height="26.7539" fill="white" transform="translate(0.0314941 0.0322266)"/>
</clipPath>
</defs>
</svg>
