<svg width="26" height="26" viewBox="0 0 26 26" fill="none" xmlns="http://www.w3.org/2000/svg">
<g clip-path="url(#clip0_2207_1665)">
<path d="M5.92066 25.2275C6.49488 25.2275 6.83472 24.8994 7.88941 23.8799L12.4714 19.3681C12.53 19.3095 12.6355 19.3095 12.6941 19.3681L17.2644 23.8799C18.3308 24.8994 18.6589 25.2275 19.2332 25.2275C20.0183 25.2275 20.4753 24.7119 20.4753 23.7978V3.45411C20.4753 1.22754 19.3621 0.0908203 17.1589 0.0908203H7.99488C5.80347 0.0908203 4.67847 1.22754 4.67847 3.45411V23.7978C4.67847 24.7119 5.1355 25.2275 5.92066 25.2275ZM6.8816 22.0634C6.71754 22.2275 6.53004 22.1806 6.53004 21.9463V3.47754C6.53004 2.46973 7.05738 1.94239 8.08863 1.94239H17.0769C18.0964 1.94239 18.6238 2.46973 18.6238 3.47754V21.9463C18.6238 22.1806 18.448 22.2275 18.2839 22.0634L13.2097 17.1416C12.823 16.7783 12.3308 16.7783 11.9558 17.1416L6.8816 22.0634Z" fill="black" fill-opacity="0.85"/>
<path d="M21.4011 24.6416C22.3035 25.5439 23.7566 25.5322 24.6355 24.6181C25.491 23.7392 25.491 22.3095 24.6238 21.4306L3.90503 0.700195C3.0144 -0.19043 1.56128 -0.19043 0.682374 0.700195C-0.196533 1.57911 -0.196533 3.04395 0.682374 3.91114L21.4011 24.6416Z" fill="white"/>
<path d="M22.3738 23.6806C22.7253 24.0322 23.3113 24.0322 23.6511 23.6806C24.0027 23.3174 24.0027 22.7549 23.6511 22.4033L2.93238 1.67287C2.58082 1.32131 2.0066 1.30959 1.64332 1.67287C1.30347 2.01272 1.30347 2.61037 1.64332 2.95022L22.3738 23.6806Z" fill="black" fill-opacity="0.85"/>
</g>
<defs>
<clipPath id="clip0_2207_1665">
<rect width="25.2524" height="25.3008" fill="white" transform="translate(0.0231934 0.0322266)"/>
</clipPath>
</defs>
</svg>
