<svg width="24" height="24" viewBox="0 0 24 24" fill="none" xmlns="http://www.w3.org/2000/svg">
<g clip-path="url(#clip0_2207_1650)">
<path d="M11.9719 23.9502C18.511 23.9502 23.925 18.5361 23.925 11.997C23.925 5.46973 18.4993 0.0439453 11.9602 0.0439453C5.43286 0.0439453 0.0187988 5.46973 0.0187988 11.997C0.0187988 18.5361 5.44458 23.9502 11.9719 23.9502Z" fill="black" fill-opacity="0.85"/>
<path d="M8.39771 18.4072C7.99927 18.4072 7.74146 18.1142 7.74146 17.6338V7.4502C7.74146 6.27832 8.35083 5.65723 9.52271 5.65723H14.4211C15.593 5.65723 16.2024 6.27832 16.2024 7.4502V17.6338C16.2024 18.1142 15.9446 18.4072 15.5461 18.4072C15.2297 18.4072 15.054 18.2197 14.5032 17.6806L12.0305 15.2549C11.9954 15.2197 11.9485 15.2197 11.9133 15.2549L9.45238 17.6806C8.88988 18.2197 8.71411 18.4072 8.39771 18.4072Z" fill="white"/>
</g>
<defs>
<clipPath id="clip0_2207_1650">
<rect width="23.9062" height="23.918" fill="white" transform="translate(0.0187988 0.0322266)"/>
</clipPath>
</defs>
</svg>
