<svg width="24" height="29" viewBox="0 0 24 29" fill="none" xmlns="http://www.w3.org/2000/svg">
<g clip-path="url(#clip0_2207_18560)">
<path d="M13.5207 27.9463C17.8449 27.9463 20.505 26.4111 20.505 23.7627V18.0439C22.3449 16.4384 23.4113 13.8603 23.4113 11.0361C23.4113 4.43848 19.0988 0.0322266 12.6886 0.0322266C6.30188 0.0322266 2.02454 4.33301 2.02454 10.79C2.02454 11.1533 2.03626 11.458 2.07141 11.7627L0.641723 14.3408C0.231567 15.0439 0.0440674 15.7353 0.0440674 16.3681C0.0440674 17.5752 0.782348 18.5713 2.03626 18.8994V21.1494C2.03626 23.2588 3.53626 24.3134 5.44641 24.1025L7.97766 23.8447L6.64173 22.4033V23.7627C6.64173 26.3994 9.25501 27.9463 13.5207 27.9463ZM13.5207 26.0595C10.3566 26.0595 8.43469 25.0517 8.43469 23.4345V22.0986C8.43469 21.9345 8.35266 21.876 8.21204 21.8877L5.20032 22.2275C4.38001 22.3095 3.92298 21.9463 3.92298 21.0088V17.5049C3.92298 17.3994 3.85266 17.3291 3.70032 17.3291H3.16126C2.39954 17.3291 1.95423 16.9424 1.95423 16.3447C1.95423 16.0283 2.05969 15.6533 2.27063 15.2783L4.01673 12.1377C3.94641 11.6806 3.91126 11.2236 3.91126 10.7549C3.91126 5.45801 7.41516 1.91895 12.6886 1.91895C17.9855 1.91895 21.5246 5.55176 21.5246 11.0361C21.5246 13.6611 20.423 15.958 18.6066 17.1181L18.6183 23.4345C18.6183 25.0517 16.6964 26.0595 13.5207 26.0595Z" fill="black" fill-opacity="0.85"/>
<path d="M8.78626 12.3838C10.1691 12.3838 11.1418 11.4814 11.1418 10.2041C11.1418 9.75878 11.0011 9.3955 10.7668 9.14941C10.5675 8.96191 10.4972 8.77441 10.4972 8.62206C10.4972 8.34081 10.7433 8.11816 11.048 8.11816C11.1652 8.11816 11.341 8.1416 11.4582 8.2705C11.5285 8.3291 11.5988 8.458 11.6222 8.52831C12.5363 8.39941 12.9933 7.86034 12.9933 6.98144C12.9933 6.67675 13.2394 6.43066 13.5324 6.43066C13.8253 6.43066 14.0832 6.68847 14.0832 6.98144C14.0949 8.3291 13.4152 9.17284 12.1379 9.46581C12.2082 9.71191 12.2316 9.96972 12.2316 10.2275C12.2316 11.376 11.6574 12.29 10.7199 12.8056C11.2472 13.0986 11.88 13.2392 12.5597 13.2392C12.8644 13.2392 13.1808 13.2041 13.4972 13.1455C13.4386 12.9814 13.4152 12.8056 13.4152 12.6299C13.4152 9.65331 17.8214 9.12597 17.8214 6.44238C17.8214 5.11816 16.7902 4.08691 15.5011 4.08691C15.0324 4.08691 14.9035 4.09863 14.7746 4.13378C14.2941 3.583 13.591 3.2666 12.9464 3.2666C11.8097 3.2666 11.0011 3.96972 10.9894 5.04784C10.9894 5.37597 10.755 5.59863 10.4386 5.59863C10.1105 5.59863 9.8761 5.34081 9.89954 5.01269C9.89954 4.53222 10.0402 4.2041 10.1691 3.89941C9.96985 3.86425 9.78235 3.84081 9.59485 3.84081C8.1886 3.84081 7.11048 4.71972 7.11048 5.84472C7.11048 6.57128 7.61438 7.12206 8.28235 7.12206C8.59876 7.12206 8.85657 7.36816 8.85657 7.66113C8.85657 7.96581 8.58704 8.22363 8.28235 8.22363C7.33313 8.22363 6.58313 7.7666 6.24329 7.05175C5.85657 7.62597 5.64563 8.30566 5.64563 8.98534C5.64563 10.9072 6.88782 12.3838 8.78626 12.3838ZM17.5519 15.5478C18.7941 15.5478 19.6847 14.1181 19.6847 12.1377C19.6847 11.9853 19.6847 11.8095 19.673 11.6338C19.216 11.8447 18.6652 11.9384 18.0441 11.9033C17.7394 11.8681 17.5168 11.6338 17.5168 11.3408C17.5168 11.0361 17.7746 10.7783 18.0675 10.8017C19.3449 10.8838 20.1769 10.1806 20.1769 9.04394C20.1769 8.00097 19.6613 7.12206 18.8175 6.6416C18.5011 9.87597 14.3761 10.3095 14.3761 12.6064C14.3761 13.2744 14.8332 13.7431 15.6066 13.7431H15.7941C15.9933 14.8095 16.6847 15.5478 17.5519 15.5478Z" fill="black" fill-opacity="0.85"/>
</g>
<defs>
<clipPath id="clip0_2207_18560">
<rect width="23.3672" height="27.9961" fill="white" transform="translate(0.0440674 0.0322266)"/>
</clipPath>
</defs>
</svg>
