<svg width="31" height="26" viewBox="0 0 31 26" fill="none" xmlns="http://www.w3.org/2000/svg">
<g clip-path="url(#clip0_2207_18569)">
<path d="M6.58105 19.0634C9.42871 19.0634 11.1748 17.165 11.1748 14.7041C11.1748 13.9306 10.8467 13.0517 10.3897 12.6064C9.8623 12.1025 9.52246 11.9619 9.52246 11.376C9.52246 10.8955 9.88574 10.5674 10.4365 10.5674C10.835 10.5674 11.0928 10.6845 11.5147 11.0478C11.8779 11.3642 12.1943 11.7627 12.417 12.2314C14.2217 11.8095 14.9014 10.708 14.9014 8.93848C14.9014 8.42285 15.335 7.98926 15.8506 7.98926C16.3662 7.98926 16.7881 8.42285 16.7881 8.93848C16.7998 11.5283 15.6045 13.333 12.9795 14.001C13.0029 14.2353 13.0264 14.4814 13.0264 14.7392C13.0264 16.9306 12.0772 18.7002 10.4248 19.8134C11.5967 20.54 13.0967 20.9502 14.6318 20.9502C14.9248 20.9502 15.2529 20.9267 15.874 20.9033C15.7451 20.3174 15.6748 19.7666 15.6748 19.2392C15.6748 12.2783 25.542 13.04 25.542 6.41895C25.542 3.66504 22.8701 1.77832 20.2686 1.77832C20.0342 1.77832 19.7061 1.8252 19.3779 1.89551C18.4404 0.735352 16.9404 0.0322266 15.5342 0.0322266C13.0498 0.0322266 11.3975 1.64942 11.3154 3.8877C11.292 4.48535 10.8936 4.8252 10.3779 4.8252C9.83887 4.8252 9.42871 4.41504 9.45215 3.80567C9.4873 2.96192 9.66308 2.18848 9.96777 1.50879C9.41699 1.35645 8.86621 1.28614 8.31543 1.28614C5.47949 1.28614 3.3584 3.07911 3.3584 5.27051C3.3584 6.73535 4.44824 7.94239 6.03027 7.94239C6.5459 7.94239 6.96777 8.37598 6.96777 8.87989C6.96777 9.39551 6.5459 9.82911 6.03027 9.82911C3.97949 9.82911 2.47949 8.87989 1.78808 7.39161C0.686523 8.66895 0.0419922 10.3564 0.0419922 12.1025C0.0419922 16.122 2.63183 19.0634 6.58105 19.0634ZM25.4717 25.9541C28.4014 25.9541 29.8311 22.3916 29.8311 18.9228C29.8311 18.3955 29.8076 17.9033 29.7959 17.4463C28.7647 17.9736 27.5108 18.208 26.0693 18.1142C25.542 18.0791 25.1201 17.7041 25.1201 17.1767C25.1201 16.6611 25.542 16.1924 26.0693 16.2392C28.9522 16.4619 30.8858 14.8447 30.8858 12.208C30.8858 9.86426 29.6201 7.94239 27.5811 6.96973C26.0928 14.6806 17.667 13.6494 17.4092 18.8994C17.3272 20.6689 18.6748 22.0634 20.5967 22.0634C21.2764 22.0634 21.6162 22.04 21.9209 22.0283C22.1904 24.0205 23.4443 25.9541 25.4717 25.9541Z" fill="black" fill-opacity="0.85"/>
</g>
<defs>
<clipPath id="clip0_2207_18569">
<rect width="30.8438" height="25.9336" fill="white" transform="translate(0.0419922 0.0322266)"/>
</clipPath>
</defs>
</svg>
