<svg width="31" height="26" viewBox="0 0 31 26" fill="none" xmlns="http://www.w3.org/2000/svg">
<g clip-path="url(#clip0_2207_18565)">
<path d="M0.039917 12.1025C0.039917 16.3799 2.96961 19.2158 7.36414 19.2158C11.6883 19.2158 14.5829 16.6728 14.5829 12.8408C14.5829 11.247 14.0204 9.95801 13.0829 9.14942C12.6493 8.79785 12.4032 8.66895 11.993 8.66895C11.454 8.66895 11.079 8.99707 11.079 9.47754C11.079 10.0634 11.4188 10.2158 11.9579 10.708C12.4501 11.1884 12.7313 11.915 12.7313 12.8056C12.7313 15.5244 10.5985 17.3408 7.3993 17.3408C4.11804 17.3408 1.92664 15.2431 1.92664 12.0908C1.92664 10.2861 2.8407 8.58692 4.3407 7.61426L3.4032 5.98535C1.31726 7.28614 0.039917 9.61817 0.039917 12.1025ZM3.20398 5.99707C3.20398 8.62207 5.02039 10.4736 7.89148 10.4736C8.39539 10.4736 8.82898 10.0517 8.82898 9.53614C8.82898 9.02051 8.39539 8.58692 7.89148 8.58692C6.15711 8.58692 5.0907 7.49707 5.0907 5.99707C5.0907 4.33301 6.4618 3.17285 8.30164 3.17285C9.15711 3.17285 10.0711 3.43067 10.9149 4.00489L12.0165 2.46973C10.8446 1.64942 9.54383 1.28614 8.31336 1.28614C5.47742 1.28614 3.20398 3.21973 3.20398 5.99707ZM9.45008 5.68067C9.42664 6.29004 9.8368 6.7002 10.3758 6.7002C10.8915 6.7002 11.2899 6.36035 11.3133 5.7627C11.3954 3.53614 13.0126 1.90723 15.286 1.90723C16.6571 1.90723 17.8524 2.63379 18.3329 3.71192C18.4266 3.8877 18.5555 3.89942 18.7782 3.82911C19.1649 3.72364 19.5985 3.66504 20.0204 3.66504C22.118 3.68848 24.1102 5.27051 24.1102 7.79004C24.1102 13.2978 16.3758 12.5361 16.3758 17.9033C16.3758 20.458 18.4032 22.0634 21.0282 22.0634C21.3094 22.0634 21.6141 22.04 21.9188 22.0283C22.1883 24.0205 23.4422 25.9541 25.4696 25.9541C28.3993 25.9541 29.829 22.3916 29.829 18.9228C29.829 17.4111 29.7469 16.3916 29.6415 15.4306L27.7547 15.958C27.8602 16.8955 27.954 17.7744 27.954 18.8994C27.954 21.747 26.8758 24.0674 25.4696 24.0674C24.0165 24.0674 23.4305 22.1338 23.4305 20.5986C23.4305 20.4697 23.3602 20.3877 23.1961 20.3994C22.868 20.3994 22.4227 20.4111 22.1297 20.4111C19.7977 20.4111 18.2626 19.6845 18.2626 17.8681C18.2626 13.5908 25.9969 14.5517 25.9969 7.79004C25.9969 4.18067 23.3251 1.77832 20.2665 1.77832C20.0321 1.77832 19.704 1.8252 19.3758 1.89551C18.4383 0.735352 16.9383 0.0322266 15.2977 0.0322266C11.9696 0.0322266 9.5907 2.36426 9.45008 5.68067ZM23.2313 17.1767C23.2313 17.7041 23.6532 18.0791 24.1805 18.1142C28.2001 18.372 30.8837 16.0166 30.8837 12.208C30.8837 9.09082 28.6688 6.71192 25.3407 6.26661L25.0477 8.14161C27.4149 8.17676 28.9969 9.79395 28.9969 12.208C28.9969 14.8447 27.0633 16.4619 24.1805 16.2392C23.6532 16.1924 23.2313 16.6611 23.2313 17.1767ZM17.2079 18.7002C16.5165 18.9463 15.7079 19.0634 14.9461 19.0634C12.9657 19.0634 10.9501 18.29 10.1766 17.0947L8.61804 18.3603C9.84851 19.8955 12.0751 20.9502 14.7469 20.9502C15.7079 20.9502 16.786 20.8095 17.8524 20.5049L17.2079 18.7002ZM13.4461 10.4267L14.079 12.2197C17.0321 11.6338 18.3563 9.78223 18.3563 7.04004C18.3563 6.52442 17.9227 6.10254 17.4071 6.10254C16.8915 6.10254 16.4696 6.52442 16.4696 7.04004C16.4696 8.97364 15.6493 10.1103 13.4461 10.4267Z" fill="black" fill-opacity="0.85"/>
</g>
<defs>
<clipPath id="clip0_2207_18565">
<rect width="30.8438" height="25.9336" fill="white" transform="translate(0.039917 0.0322266)"/>
</clipPath>
</defs>
</svg>
