<svg width="34" height="23" viewBox="0 0 34 23" fill="none" xmlns="http://www.w3.org/2000/svg">
<g clip-path="url(#clip0_2207_16046)">
<path d="M1.82202 6.67677C2.36108 6.82912 2.85327 6.58302 3.07593 6.04396C3.54468 4.87208 4.15405 3.7588 4.89233 2.75099C5.23218 2.30568 5.1853 1.73146 4.75171 1.36818C4.28296 0.993182 3.66187 1.05177 3.29858 1.54396C2.4314 2.70412 1.72827 3.99318 1.20093 5.35255C0.966552 5.93849 1.25952 6.48927 1.82202 6.67677ZM1.4353 14.7861C1.98608 14.6689 2.30249 14.1884 2.22046 13.6142C2.10327 12.9228 2.0564 12.1845 2.0564 11.458C2.0564 10.708 2.10327 9.99319 2.22046 9.27833C2.30249 8.71583 1.98608 8.24708 1.42358 8.11818C0.861084 8.00099 0.33374 8.32912 0.23999 8.95021C0.111084 9.78224 0.0524902 10.6142 0.0524902 11.458C0.0524902 12.3134 0.111084 13.1455 0.23999 13.9658C0.33374 14.5752 0.872802 14.915 1.4353 14.7861ZM4.75171 21.5361C5.1853 21.1611 5.23218 20.5986 4.89233 20.1416C4.15405 19.1338 3.54468 18.0205 3.07593 16.8486C2.85327 16.3095 2.36108 16.0634 1.82202 16.2275C1.25952 16.415 0.966552 16.9541 1.20093 17.54C1.72827 18.8994 2.4314 20.1884 3.29858 21.3486C3.66187 21.8525 4.28296 21.9111 4.75171 21.5361ZM31.7283 6.67677C32.2908 6.48927 32.5837 5.93849 32.3611 5.35255C31.8337 3.99318 31.1306 2.70412 30.2517 1.54396C29.8884 1.05177 29.2673 0.993182 28.7986 1.36818C28.365 1.73146 28.3298 2.30568 28.658 2.75099C29.408 3.7588 30.0173 4.87208 30.4861 6.04396C30.697 6.58302 31.2009 6.82912 31.7283 6.67677ZM32.115 14.7861C32.6892 14.915 33.2283 14.5752 33.3103 13.9658C33.4392 13.1455 33.4978 12.3134 33.4978 11.458C33.4978 10.6142 33.4392 9.78224 33.3103 8.95021C33.2283 8.32912 32.7009 8.00099 32.1267 8.11818C31.5642 8.24708 31.2595 8.71583 31.3298 9.27833C31.447 9.99319 31.4939 10.708 31.4939 11.458C31.4939 12.1845 31.447 12.9228 31.3298 13.6142C31.2595 14.1884 31.5642 14.6689 32.115 14.7861ZM28.7986 21.5361C29.2673 21.9111 29.8884 21.8525 30.2517 21.3486C31.1306 20.1884 31.8337 18.8994 32.3611 17.54C32.5837 16.9541 32.2908 16.415 31.7283 16.2275C31.2009 16.0634 30.697 16.3095 30.4861 16.8486C30.0173 18.0205 29.408 19.1338 28.658 20.1416C28.3298 20.5986 28.365 21.1611 28.7986 21.5361Z" fill="black" fill-opacity="0.85"/>
<path d="M16.7752 22.8838C23.0213 22.8838 28.2127 17.7041 28.2127 11.458C28.2127 5.21192 23.0213 0.0322266 16.7634 0.0322266C10.5173 0.0322266 5.34937 5.2002 5.34937 11.458C5.34937 17.7041 10.5291 22.8838 16.7752 22.8838ZM16.7752 20.8916C11.5486 20.8916 7.35327 16.6963 7.35327 11.458C7.35327 6.20801 11.5369 2.0127 16.7634 2.0127C22.0017 2.0127 26.2087 6.20801 26.2205 11.458C26.2322 16.6845 22.0252 20.8916 16.7752 20.8916Z" fill="black" fill-opacity="0.85"/>
</g>
<defs>
<clipPath id="clip0_2207_16046">
<rect width="33.4453" height="22.8633" fill="white" transform="translate(0.0524902 0.0322266)"/>
</clipPath>
</defs>
</svg>
