<svg width="24" height="24" viewBox="0 0 24 24" fill="none" xmlns="http://www.w3.org/2000/svg">
<g clip-path="url(#clip0_2207_10665)">
<path d="M12.0202 23.9384C18.5593 23.9384 23.9733 18.5127 23.9733 11.9853C23.9733 5.44629 18.5476 0.0322266 12.0085 0.0322266C5.4812 0.0322266 0.0671387 5.44629 0.0671387 11.9853C0.0671387 18.5127 5.49292 23.9384 12.0202 23.9384ZM12.0202 21.9463C6.48902 21.9463 2.07105 17.5166 2.07105 11.9853C2.07105 6.45411 6.4773 2.02442 12.0085 2.02442C17.5398 2.02442 21.9812 6.45411 21.9812 11.9853C21.9812 17.5166 17.5515 21.9463 12.0202 21.9463Z" fill="black" fill-opacity="0.85"/>
<path d="M7.19213 17.1884H16.8483C18.0788 17.1884 18.6999 16.5908 18.6999 15.372V9.52442C18.6999 8.29395 18.0788 7.69629 16.8483 7.69629H7.19213C5.96166 7.69629 5.35229 8.29395 5.35229 9.52442V15.372C5.35229 16.5908 5.96166 17.1884 7.19213 17.1884ZM11.0827 13.2392C10.6726 13.2392 10.4265 13.0049 10.4265 12.5713V12.0908C8.75072 11.9736 7.09838 11.6689 5.35229 11.0361V9.99317C7.55541 10.9072 9.68822 11.2119 12.0202 11.2119C14.3523 11.2119 16.4851 10.9072 18.6999 9.99317V11.0361C16.9421 11.6689 15.2898 11.9736 13.614 12.0908V12.5713C13.614 13.0049 13.3679 13.2392 12.9577 13.2392H11.0827ZM8.44604 8.22364H9.57104V7.15723C9.57104 6.85254 9.77026 6.66504 10.0983 6.66504H13.9655C14.2819 6.66504 14.4812 6.85254 14.4812 7.15723V8.22364H15.5944V7.09864C15.5944 6.17285 14.9851 5.61035 14.0241 5.61035H10.0164C9.05541 5.61035 8.44604 6.17285 8.44604 7.09864V8.22364Z" fill="black" fill-opacity="0.85"/>
</g>
<defs>
<clipPath id="clip0_2207_10665">
<rect width="23.9062" height="23.918" fill="white" transform="translate(0.0671387 0.0322266)"/>
</clipPath>
</defs>
</svg>
