<svg width="24" height="24" viewBox="0 0 24 24" fill="none" xmlns="http://www.w3.org/2000/svg">
<g clip-path="url(#clip0_2207_9107)">
<path d="M11.9677 23.9516C18.5068 23.9516 23.9208 18.5375 23.9208 11.9984C23.9208 5.47107 18.4951 0.0452881 11.956 0.0452881C5.42871 0.0452881 0.0146484 5.47107 0.0146484 11.9984C0.0146484 18.5375 5.44043 23.9516 11.9677 23.9516Z" fill="black" fill-opacity="0.85"/>
<path d="M14.9912 18.9594C14.7568 18.9594 14.5927 18.8539 14.3232 18.5844L12.1669 16.6274H8.12403C6.37793 16.6274 5.40527 15.643 5.40527 13.8969V9.33826C5.40527 7.6156 6.37793 6.63123 8.12403 6.63123H15.8115C17.5576 6.63123 18.5302 7.6156 18.5302 9.33826V13.8969C18.5302 15.643 17.5576 16.6274 15.8115 16.6274H15.5185V18.35C15.5185 18.7133 15.3193 18.9594 14.9912 18.9594Z" fill="white"/>
</g>
<defs>
<clipPath id="clip0_2207_9107">
<rect width="23.9062" height="23.918" fill="white" transform="translate(0.0146484 0.0335693)"/>
</clipPath>
</defs>
</svg>
