<svg width="26" height="27" viewBox="0 0 26 27" fill="none" xmlns="http://www.w3.org/2000/svg">
<g clip-path="url(#clip0_2207_9338)">
<path d="M12.8969 0.0335693C12.3696 0.0335693 11.8774 0.256225 11.4086 1.06482L9.24073 4.68591H5.37354C1.88135 4.68591 0.00634766 6.60779 0.00634766 10.0531V19.0297C0.00634766 22.475 1.88135 24.3969 5.37354 24.3969H20.4672C23.9594 24.3969 25.8344 22.4633 25.8344 19.0297V10.0531C25.8344 6.61951 23.9594 4.68591 20.4672 4.68591H16.5532L14.3852 1.06482C13.9165 0.256225 13.4243 0.0335693 12.8969 0.0335693ZM12.8969 1.95545L14.854 5.62341C15.2407 6.38513 15.5219 6.57263 16.354 6.57263H20.4672C22.8227 6.57263 23.9477 7.76795 23.9477 10.0531V19.018C23.9477 21.3031 22.8227 22.5102 20.4672 22.5102H5.37354C3.00635 22.5102 1.89307 21.3031 1.89307 19.018V10.0531C1.89307 7.76795 3.00635 6.57263 5.37354 6.57263H9.43994C10.2719 6.57263 10.5532 6.38513 10.9399 5.62341L12.8969 1.95545Z" fill="black" fill-opacity="0.85"/>
</g>
<defs>
<clipPath id="clip0_2207_9338">
<rect width="25.8281" height="26.168" fill="white" transform="translate(0.00634766 0.0335693)"/>
</clipPath>
</defs>
</svg>
