<svg width="24" height="24" viewBox="0 0 24 24" fill="none" xmlns="http://www.w3.org/2000/svg">
<g clip-path="url(#clip0_2207_9084)">
<path d="M12.0288 23.9384C18.5679 23.9384 23.9819 18.5127 23.9819 11.9853C23.9819 5.44629 18.5562 0.0322266 12.0171 0.0322266C5.48974 0.0322266 0.0756836 5.44629 0.0756836 11.9853C0.0756836 18.5127 5.50146 23.9384 12.0288 23.9384ZM12.0288 21.9463C6.49756 21.9463 2.07959 17.5166 2.07959 11.9853C2.07959 6.45411 6.48584 2.02442 12.0171 2.02442C17.5484 2.02442 21.9898 6.45411 21.9898 11.9853C21.9898 17.5166 17.5601 21.9463 12.0288 21.9463Z" fill="black" fill-opacity="0.85"/>
<path d="M9.08741 18.747C9.32178 18.747 9.47413 18.6416 9.74366 18.3955L11.8413 16.497H15.7554C17.4546 16.497 18.3921 15.5478 18.3921 13.8486V9.43067C18.3921 7.75489 17.4546 6.79395 15.7554 6.79395H8.30225C6.60303 6.79395 5.66553 7.74317 5.66553 9.43067V13.8486C5.66553 15.5478 6.60303 16.497 8.30225 16.497H8.5835V18.1728C8.5835 18.5244 8.771 18.747 9.08741 18.747Z" fill="black" fill-opacity="0.85"/>
</g>
<defs>
<clipPath id="clip0_2207_9084">
<rect width="23.9062" height="23.918" fill="white" transform="translate(0.0756836 0.0322266)"/>
</clipPath>
</defs>
</svg>
