<svg width="34" height="27" viewBox="0 0 34 27" fill="none" xmlns="http://www.w3.org/2000/svg">
<g clip-path="url(#clip0_2207_9358)">
<path d="M5.45532 19.7783H6.01782V22.8369C6.01782 23.7392 6.47485 24.3134 7.29516 24.3134C7.86938 24.3134 8.26783 24.0088 8.98267 23.3877L13.0256 19.7783H20.549C24.0412 19.7783 25.9162 17.8564 25.9162 14.4228V5.43457C25.9162 2.00098 24.0412 0.0673828 20.549 0.0673828H5.45532C1.96313 0.0673828 0.0881348 2.00098 0.0881348 5.43457V14.4228C0.0881348 17.8564 1.96313 19.7783 5.45532 19.7783ZM5.45532 17.8916C3.08813 17.8916 1.97485 16.6963 1.97485 14.4111V5.44629C1.97485 3.16114 3.08813 1.95411 5.45532 1.95411H20.549C22.9045 1.95411 24.0295 3.16114 24.0295 5.44629V14.4111C24.0295 16.6963 22.9045 17.8916 20.549 17.8916H12.9553C12.299 17.8916 11.9709 17.997 11.5256 18.4541L7.77563 22.1689V18.7822C7.77563 18.1377 7.52954 17.8916 6.89672 17.8916H5.45532Z" fill="black" fill-opacity="0.85"/>
<path d="M17.7131 22.6025H21.51L25.424 25.9541C26.1389 26.5634 26.5256 26.8799 27.0881 26.8799C27.8967 26.8799 28.3537 26.3056 28.3537 25.415V22.6025H28.5998C31.9748 22.6025 33.7443 20.7861 33.7443 17.4697V11.1299C33.7443 7.80176 31.9748 5.98535 28.5998 5.98535H17.7131C14.3381 5.98535 12.5686 7.80176 12.5686 11.1299V17.4697C12.5686 20.7978 14.3381 22.6025 17.7131 22.6025Z" fill="white"/>
<path d="M17.7131 22.6025H21.51L25.424 25.9541C26.1389 26.5634 26.5256 26.8799 27.0881 26.8799C27.8967 26.8799 28.3537 26.3056 28.3537 25.415V22.6025H28.5998C31.9748 22.6025 33.7443 20.7861 33.7443 17.4697V11.1299C33.7443 7.80176 31.9748 5.98535 28.5998 5.98535H17.7131C14.3381 5.98535 12.5686 7.80176 12.5686 11.1299V17.4697C12.5686 20.7978 14.3381 22.6025 17.7131 22.6025ZM17.7483 20.7158C15.4514 20.7158 14.467 19.6377 14.467 17.4463V11.1533C14.467 8.96192 15.4514 7.87207 17.7483 7.87207H28.5764C30.8615 7.87207 31.8576 8.96192 31.8576 11.1533V17.4345C31.8576 19.6377 30.8615 20.7158 28.5764 20.7158H27.4983C26.9943 20.7158 26.5959 21.0205 26.5959 21.6767V24.747L22.635 21.208C22.2483 20.8447 21.9201 20.7158 21.4397 20.7158H17.7483Z" fill="black" fill-opacity="0.85"/>
<path d="M23.174 15.6767C23.7014 15.6767 24.0061 15.372 24.0295 14.7978L24.1819 10.6963C24.2053 10.0869 23.7483 9.66504 23.1623 9.66504C22.5647 9.66504 22.1193 10.0752 22.1428 10.6963L22.2951 14.7978C22.3186 15.3603 22.6115 15.6767 23.174 15.6767ZM23.1623 19.2392C23.8069 19.2392 24.3693 18.7353 24.3693 18.0791C24.3693 17.4345 23.8186 16.9306 23.1623 16.9306C22.5061 16.9306 21.9553 17.4463 21.9553 18.0791C21.9553 18.7236 22.5178 19.2392 23.1623 19.2392Z" fill="black" fill-opacity="0.85"/>
</g>
<defs>
<clipPath id="clip0_2207_9358">
<rect width="33.6562" height="26.8477" fill="white" transform="translate(0.0881348 0.0322266)"/>
</clipPath>
</defs>
</svg>
