<svg width="26" height="25" viewBox="0 0 26 25" fill="none" xmlns="http://www.w3.org/2000/svg">
<g clip-path="url(#clip0_2207_10849)">
<path d="M0.0335693 23.518C0.0335693 24.0336 0.455444 24.4672 0.971069 24.4672H24.2914C24.807 24.4672 25.2406 24.0336 25.2406 23.518C25.2406 23.0024 24.807 22.5805 24.2914 22.5805H0.971069C0.455444 22.5805 0.0335693 23.0024 0.0335693 23.518ZM2.08435 10.1C2.08435 10.5805 2.35388 10.85 2.83435 10.85H5.83435C6.31482 10.85 6.59607 10.5805 6.59607 10.1V9.81873C6.59607 9.36169 6.31482 9.08045 5.83435 9.08045H2.83435C2.35388 9.08045 2.08435 9.36169 2.08435 9.81873V10.1ZM3.45545 20.1195H5.22498V10.2172H3.45545V20.1195ZM2.08435 20.7992C2.08435 21.2797 2.35388 21.5492 2.83435 21.5492H5.83435C6.31482 21.5492 6.59607 21.2797 6.59607 20.7992V20.518C6.59607 20.0609 6.31482 19.7797 5.83435 19.7797H2.83435C2.35388 19.7797 2.08435 20.0609 2.08435 20.518V20.7992ZM7.65076 10.1C7.65076 10.5805 7.93201 10.85 8.40076 10.85H11.4125C11.8813 10.85 12.1625 10.5805 12.1625 10.1V9.81873C12.1625 9.36169 11.8813 9.08045 11.4125 9.08045H8.40076C7.93201 9.08045 7.65076 9.36169 7.65076 9.81873V10.1ZM9.03357 20.1195H10.8031V10.2172H9.03357V20.1195ZM7.65076 20.7992C7.65076 21.2797 7.93201 21.5492 8.40076 21.5492H11.4125C11.8813 21.5492 12.1625 21.2797 12.1625 20.7992V20.518C12.1625 20.0609 11.8813 19.7797 11.4125 19.7797H8.40076C7.93201 19.7797 7.65076 20.0609 7.65076 20.518V20.7992ZM13.2289 10.1C13.2289 10.5805 13.5102 10.85 13.9789 10.85H16.9906C17.4594 10.85 17.7406 10.5805 17.7406 10.1V9.81873C17.7406 9.36169 17.4594 9.08045 16.9906 9.08045H13.9789C13.5102 9.08045 13.2289 9.36169 13.2289 9.81873V10.1ZM14.6117 20.1195H16.3813V10.2172H14.6117V20.1195ZM13.2289 20.7992C13.2289 21.2797 13.5102 21.5492 13.9789 21.5492H16.9906C17.4594 21.5492 17.7406 21.2797 17.7406 20.7992V20.518C17.7406 20.0609 17.4594 19.7797 16.9906 19.7797H13.9789C13.5102 19.7797 13.2289 20.0609 13.2289 20.518V20.7992ZM18.807 10.1C18.807 10.5805 19.0766 10.85 19.557 10.85H22.557C23.0375 10.85 23.307 10.5805 23.307 10.1V9.81873C23.307 9.36169 23.0375 9.08045 22.557 9.08045H19.557C19.0766 9.08045 18.807 9.36169 18.807 9.81873V10.1ZM20.1781 20.1195H21.9477V10.2172H20.1781V20.1195ZM18.807 20.7992C18.807 21.2797 19.0766 21.5492 19.557 21.5492H22.557C23.0375 21.5492 23.307 21.2797 23.307 20.7992V20.518C23.307 20.0609 23.0375 19.7797 22.557 19.7797H19.557C19.0766 19.7797 18.807 20.0609 18.807 20.518V20.7992ZM1.58045 8.06091H23.682C24.3266 8.06091 24.7016 7.59216 24.7016 7.11169C24.7016 6.76013 24.5141 6.45545 24.0805 6.20935L14.0727 0.443725C13.6039 0.174194 13.1117 0.0335693 12.6313 0.0335693C12.1508 0.0335693 11.6586 0.174194 11.1898 0.443725L1.18201 6.20935C0.748413 6.45545 0.560913 6.76013 0.560913 7.11169C0.560913 7.59216 0.924194 8.06091 1.58045 8.06091ZM5.09607 6.17419L12.1742 2.20154C12.3148 2.11951 12.4789 2.07263 12.6313 2.07263C12.7836 2.07263 12.9477 2.11951 13.0883 2.20154L20.1664 6.17419H5.09607Z" fill="black" fill-opacity="0.85"/>
</g>
<defs>
<clipPath id="clip0_2207_10849">
<rect width="25.207" height="24.4336" fill="white" transform="translate(0.0335693 0.0335693)"/>
</clipPath>
</defs>
</svg>
