<svg width="28" height="26" viewBox="0 0 28 26" fill="none" xmlns="http://www.w3.org/2000/svg">
<g clip-path="url(#clip0_2207_12565)">
<path d="M13.6657 25.0297H25.654C26.8376 25.0297 27.5876 24.1977 27.5876 22.8969V7.94373C27.5876 6.64295 26.8376 5.81091 25.654 5.81091H13.6657C12.4704 5.81091 11.7321 6.64295 11.7321 7.94373V22.8969C11.7321 24.1977 12.4704 25.0297 13.6657 25.0297ZM14.2868 23.143C13.8298 23.143 13.6189 22.9203 13.6189 22.4633V8.37732C13.6189 7.92029 13.8298 7.69763 14.2868 7.69763H25.0329C25.4899 7.69763 25.7009 7.92029 25.7009 8.37732V22.4633C25.7009 22.9203 25.4899 23.143 25.0329 23.143H14.2868ZM21.2478 12.2563H23.1345C23.3689 12.2563 23.5329 12.0922 23.5329 11.8578V10.0297C23.5329 9.79529 23.3689 9.63123 23.1345 9.63123H21.2478C21.0017 9.63123 20.861 9.79529 20.861 10.0297V11.8578C20.861 12.0922 21.0017 12.2563 21.2478 12.2563ZM21.2478 16.7328H23.1345C23.3689 16.7328 23.5329 16.5688 23.5329 16.3344V14.5063C23.5329 14.2719 23.3689 14.1078 23.1345 14.1078H21.2478C21.0017 14.1078 20.861 14.2719 20.861 14.5063V16.3344C20.861 16.5688 21.0017 16.7328 21.2478 16.7328ZM21.2478 21.2094H23.1345C23.3689 21.2094 23.5329 21.0453 23.5329 20.8109V18.9828C23.5329 18.7484 23.3689 18.5844 23.1345 18.5844H21.2478C21.0017 18.5844 20.861 18.7484 20.861 18.9828V20.8109C20.861 21.0453 21.0017 21.2094 21.2478 21.2094ZM16.1853 12.2563H18.072C18.3181 12.2563 18.4587 12.0922 18.4587 11.8578V10.0297C18.4587 9.79529 18.3181 9.63123 18.072 9.63123H16.1853C15.9509 9.63123 15.7868 9.79529 15.7868 10.0297V11.8578C15.7868 12.0922 15.9509 12.2563 16.1853 12.2563ZM16.1853 16.7328H18.072C18.3181 16.7328 18.4587 16.5688 18.4587 16.3344V14.5063C18.4587 14.2719 18.3181 14.1078 18.072 14.1078H16.1853C15.9509 14.1078 15.7868 14.2719 15.7868 14.5063V16.3344C15.7868 16.5688 15.9509 16.7328 16.1853 16.7328ZM16.1853 21.2094H18.072C18.3181 21.2094 18.4587 21.0453 18.4587 20.8109V18.9828C18.4587 18.7484 18.3181 18.5844 18.072 18.5844H16.1853C15.9509 18.5844 15.7868 18.7484 15.7868 18.9828V20.8109C15.7868 21.0453 15.9509 21.2094 16.1853 21.2094Z" fill="black" fill-opacity="0.85"/>
<path d="M0.0251465 22.8969C0.0251465 24.1977 0.775146 25.0297 1.97046 25.0297H16.7478C17.9313 25.0297 18.6813 24.1977 18.6813 22.8969V2.1781C18.6813 0.877319 17.9313 0.0452881 16.7478 0.0452881H1.97046C0.775146 0.0452881 0.0251465 0.877319 0.0251465 2.1781V22.8969Z" fill="white"/>
<path d="M0.0251465 22.8969C0.0251465 24.1977 0.775146 25.0297 1.97046 25.0297H16.7478C17.9313 25.0297 18.6813 24.1977 18.6813 22.8969V2.1781C18.6813 0.877319 17.9313 0.0452881 16.7478 0.0452881H1.97046C0.775146 0.0452881 0.0251465 0.877319 0.0251465 2.1781V22.8969ZM1.91187 22.4633V2.61169C1.91187 2.14295 2.12281 1.93201 2.59156 1.93201H16.1267C16.5837 1.93201 16.7946 2.14295 16.7946 2.61169V22.4633C16.7946 22.9203 16.5837 23.143 16.1267 23.143H2.59156C2.12281 23.143 1.91187 22.9203 1.91187 22.4633ZM5.27515 24.0336H6.81031V20.1195C6.81031 19.8734 6.93921 19.7445 7.18531 19.7445H11.5212C11.779 19.7445 11.8962 19.8734 11.8962 20.1195V24.0336H13.4313V19.6859C13.4313 18.6781 12.986 18.2094 12.0251 18.2094H6.6814C5.72046 18.2094 5.27515 18.6781 5.27515 19.6859V24.0336ZM5.46265 7.0531H7.74781C8.02906 7.0531 8.22827 6.8656 8.22827 6.57263V4.35779C8.22827 4.07654 8.02906 3.87732 7.74781 3.87732H5.46265C5.1814 3.87732 5.00562 4.07654 5.00562 4.35779V6.57263C5.00562 6.8656 5.1814 7.0531 5.46265 7.0531ZM10.9587 7.0531H13.2321C13.5134 7.0531 13.7126 6.8656 13.7126 6.57263V4.35779C13.7126 4.07654 13.5134 3.87732 13.2321 3.87732H10.9587C10.6657 3.87732 10.4899 4.07654 10.4899 4.35779V6.57263C10.4899 6.8656 10.6657 7.0531 10.9587 7.0531ZM5.46265 11.6938H7.74781C8.02906 11.6938 8.22827 11.5063 8.22827 11.2133V8.99841C8.22827 8.71716 8.02906 8.51795 7.74781 8.51795H5.46265C5.1814 8.51795 5.00562 8.71716 5.00562 8.99841V11.2133C5.00562 11.5063 5.1814 11.6938 5.46265 11.6938ZM10.9587 11.6938H13.2321C13.5134 11.6938 13.7126 11.5063 13.7126 11.2133V8.99841C13.7126 8.71716 13.5134 8.51795 13.2321 8.51795H10.9587C10.6657 8.51795 10.4899 8.71716 10.4899 8.99841V11.2133C10.4899 11.5063 10.6657 11.6938 10.9587 11.6938ZM5.46265 16.3344H7.74781C8.02906 16.3344 8.22827 16.1352 8.22827 15.8539V13.6391C8.22827 13.3461 8.02906 13.1586 7.74781 13.1586H5.46265C5.1814 13.1586 5.00562 13.3461 5.00562 13.6391V15.8539C5.00562 16.1352 5.1814 16.3344 5.46265 16.3344ZM10.9587 16.3344H13.2321C13.5134 16.3344 13.7126 16.1352 13.7126 15.8539V13.6391C13.7126 13.3461 13.5134 13.1586 13.2321 13.1586H10.9587C10.6657 13.1586 10.4899 13.3461 10.4899 13.6391V15.8539C10.4899 16.1352 10.6657 16.3344 10.9587 16.3344Z" fill="black" fill-opacity="0.85"/>
</g>
<defs>
<clipPath id="clip0_2207_12565">
<rect width="27.5625" height="24.9961" fill="white" transform="translate(0.0251465 0.0335693)"/>
</clipPath>
</defs>
</svg>
