<svg width="24" height="24" viewBox="0 0 24 24" fill="none" xmlns="http://www.w3.org/2000/svg">
<g clip-path="url(#clip0_2207_22039)">
<path d="M0.0440674 11.9867C0.0440674 18.5141 5.46985 23.9398 11.9972 23.9398C18.5363 23.9398 23.9503 18.5141 23.9503 11.9867C23.9503 5.44763 18.5246 0.0335693 11.9855 0.0335693C5.45813 0.0335693 0.0440674 5.44763 0.0440674 11.9867ZM2.04798 11.9867H11.9738L7.00501 3.34998C8.45813 2.49451 10.1691 2.02576 11.9855 2.02576C13.8019 2.02576 15.5129 2.49451 16.966 3.34998L11.9738 11.9867H21.9582C21.9699 15.7016 19.966 18.9242 16.9777 20.6234L11.9738 11.9867L7.00501 20.6117C4.02845 18.9008 2.04798 15.6898 2.04798 11.9867Z" fill="black" fill-opacity="0.85"/>
</g>
<defs>
<clipPath id="clip0_2207_22039">
<rect width="23.9062" height="23.918" fill="white" transform="translate(0.0440674 0.0335693)"/>
</clipPath>
</defs>
</svg>
