<svg width="26" height="30" viewBox="0 0 26 30" fill="none" xmlns="http://www.w3.org/2000/svg">
<g clip-path="url(#clip0_2207_15345)">
<path d="M12.533 25.1117C15.2166 25.1117 18.5095 24.9477 20.9002 24.6664C22.4822 24.4789 23.3728 23.6117 23.3728 22.1V3.03357C23.3728 1.53357 22.4822 0.654663 20.9002 0.478881C18.5095 0.197631 15.2166 0.0335693 12.533 0.0335693C9.83765 0.0335693 6.54468 0.197631 4.16577 0.478881C2.57202 0.654663 1.69311 1.53357 1.69311 3.03357V22.1C1.69311 23.6117 2.57202 24.4789 4.16577 24.6664C6.54468 24.9359 9.83765 25.1117 12.533 25.1117ZM12.533 23.5766C9.73218 23.5766 6.61499 23.4125 4.57593 23.1664C3.57983 23.0492 3.22827 22.5336 3.22827 21.6313V3.50232C3.22827 2.61169 3.57983 2.09607 4.57593 1.97888C6.61499 1.72107 9.73218 1.56873 12.533 1.56873C15.2869 1.56873 18.4041 1.72107 20.49 1.97888C21.4861 2.09607 21.8377 2.61169 21.8377 3.50232V21.6313C21.8377 22.5336 21.4861 23.0492 20.49 23.1664C18.4041 23.4125 15.2869 23.5766 12.533 23.5766ZM3.83765 28.3461H5.22046C6.09937 28.3461 6.77905 27.6664 6.77905 26.7992V24.268L2.29077 23.5883V26.7992C2.29077 27.6664 2.95874 28.3461 3.83765 28.3461ZM19.8455 28.3461H21.2166C22.0955 28.3461 22.7752 27.6664 22.7752 26.7992V23.5883L18.2869 24.268V26.7992C18.2869 27.6664 18.9666 28.3461 19.8455 28.3461ZM2.45483 14.0141V7.96716H1.16577C0.509521 7.96716 0.0524902 8.37732 0.0524902 8.99841V12.9945C0.0524902 13.6039 0.509521 14.0141 1.16577 14.0141H2.45483ZM22.6111 14.0141H23.9002C24.5564 14.0141 25.0134 13.6039 25.0134 12.9945V8.99841C25.0134 8.37732 24.5564 7.96716 23.9002 7.96716H22.6111V14.0141ZM4.4353 9.53748H20.6306V4.74451C20.6306 3.85388 20.2205 3.38513 19.2713 3.26795C15.2283 2.83435 9.83765 2.83435 5.8064 3.26795C4.85718 3.38513 4.4353 3.85388 4.4353 4.74451V9.53748ZM4.4353 11.1313V15.7953C4.4353 16.5805 4.79858 16.9789 5.52515 17.1078C9.08765 17.7172 15.8494 17.7524 19.5408 17.1078C20.1853 16.9906 20.6306 16.5805 20.6306 15.7953V11.1313H4.4353ZM6.25171 21.7602C7.00171 21.7602 7.57593 21.1742 7.57593 20.4359C7.57593 19.6859 7.00171 19.1117 6.25171 19.1117C5.51343 19.1117 4.92749 19.6859 4.92749 20.4359C4.92749 21.1742 5.51343 21.7602 6.25171 21.7602ZM10.2595 21.4086H14.783C15.3455 21.4086 15.7673 20.9867 15.7673 20.4242C15.7673 19.85 15.3572 19.4398 14.783 19.4398H10.2595C9.6853 19.4398 9.27515 19.85 9.27515 20.4242C9.27515 20.9867 9.69702 21.4086 10.2595 21.4086ZM18.8142 21.7602C19.5525 21.7602 20.1384 21.1742 20.1384 20.4359C20.1384 19.6859 19.5525 19.1117 18.8142 19.1117C18.0642 19.1117 17.49 19.6859 17.49 20.4359C17.49 21.1742 18.0642 21.7602 18.8142 21.7602Z" fill="black" fill-opacity="0.85"/>
</g>
<defs>
<clipPath id="clip0_2207_15345">
<rect width="24.9609" height="29.3086" fill="white" transform="translate(0.0524902 0.0335693)"/>
</clipPath>
</defs>
</svg>
