<svg width="24" height="24" viewBox="0 0 24 24" fill="none" xmlns="http://www.w3.org/2000/svg">
<g clip-path="url(#clip0_2207_11198)">
<path d="M12.0371 23.9398C18.5762 23.9398 23.9902 18.5141 23.9902 11.9867C23.9902 5.44763 18.5645 0.0335693 12.0254 0.0335693C5.49804 0.0335693 0.0839844 5.44763 0.0839844 11.9867C0.0839844 18.5141 5.50976 23.9398 12.0371 23.9398ZM12.0371 21.9477C6.50586 21.9477 2.08789 17.518 2.08789 11.9867C2.08789 6.45545 6.49414 2.02576 12.0254 2.02576C17.5567 2.02576 21.9981 6.45545 21.9981 11.9867C21.9981 17.518 17.5684 21.9477 12.0371 21.9477Z" fill="black" fill-opacity="0.85"/>
<path d="M12.0137 20.1664C16.5723 20.1664 20.2051 16.5219 20.1934 11.975C20.1817 7.43982 16.5488 3.79529 12.002 3.79529C7.45507 3.79529 3.8457 7.4281 3.8457 11.975C3.8457 16.5336 7.46679 20.1664 12.0137 20.1664Z" fill="black" fill-opacity="0.85"/>
</g>
<defs>
<clipPath id="clip0_2207_11198">
<rect width="23.9062" height="23.918" fill="white" transform="translate(0.0839844 0.0335693)"/>
</clipPath>
</defs>
</svg>
