<svg width="28" height="22" viewBox="0 0 28 22" fill="none" xmlns="http://www.w3.org/2000/svg">
<g clip-path="url(#clip0_2207_20755)">
<path d="M9.31006 21.0688H18.4741C25.271 21.0688 27.7085 18.5492 27.7085 12.2797V8.83435C27.7085 2.56482 25.271 0.0335693 18.4741 0.0335693H9.31006C2.51318 0.0335693 0.0756836 2.56482 0.0756836 8.83435V12.2797C0.0756836 18.5492 2.51318 21.0688 9.31006 21.0688ZM9.31006 19.182C3.7788 19.182 1.9624 17.3891 1.9624 12.2797V8.83435C1.9624 3.72498 3.7788 1.92029 9.31006 1.92029H18.4741C24.0054 1.92029 25.8218 3.72498 25.8218 8.83435V12.2797C25.8218 17.3891 24.0054 19.182 18.4741 19.182H9.31006Z" fill="black" fill-opacity="0.85"/>
</g>
<defs>
<clipPath id="clip0_2207_20755">
<rect width="27.6328" height="21.0586" fill="white" transform="translate(0.0756836 0.0335693)"/>
</clipPath>
</defs>
</svg>
