<svg width="21" height="26" viewBox="0 0 21 26" fill="none" xmlns="http://www.w3.org/2000/svg">
<g clip-path="url(#clip0_2207_21019)">
<path d="M7.0398 25.2055H17.3405C19.5671 25.2055 20.903 23.893 20.903 21.6898L20.9148 3.58435C20.9148 1.46326 19.4851 0.0335693 17.3757 0.0335693H13.778C11.9382 0.0335693 10.403 0.514038 8.96167 1.83826L1.55542 8.64685C0.559327 9.56091 0.0671387 10.85 0.0671387 12.4555V18.2328C0.0671387 22.475 2.79761 25.2055 7.0398 25.2055ZM7.08667 23.3188C3.80542 23.3188 1.95386 21.4789 1.95386 18.1977V12.4789C1.95386 11.307 2.22339 10.5922 2.86792 10.0062L10.2624 3.22107C11.3054 2.27185 12.3718 1.92029 13.8249 1.92029H17.3405C18.3601 1.92029 19.028 2.59998 19.028 3.60779L19.0163 21.6547C19.0163 22.8969 18.5241 23.3188 17.3054 23.3188H7.08667Z" fill="black" fill-opacity="0.85"/>
</g>
<defs>
<clipPath id="clip0_2207_21019">
<rect width="20.8477" height="25.1836" fill="white" transform="translate(0.0671387 0.0335693)"/>
</clipPath>
</defs>
</svg>
