<svg width="28" height="21" viewBox="0 0 28 21" fill="none" xmlns="http://www.w3.org/2000/svg">
<g clip-path="url(#clip0_2207_20883)">
<path d="M9.92651 0.0335693C3.12964 0.0335693 0.0944824 3.16248 0.0944824 9.56091V16.9086C0.0944824 19.2758 1.31323 20.4711 3.69214 20.4711H23.532C25.9109 20.4711 27.1297 19.2641 27.1297 16.9086V9.56091C27.1297 3.16248 24.0945 0.0335693 17.2976 0.0335693H9.92651ZM9.92651 1.92029H17.2859C22.8289 1.92029 25.2429 4.32263 25.2429 9.43201V16.8148C25.2429 17.9867 24.6101 18.5844 23.4851 18.5844H3.73901C2.59057 18.5844 1.9812 17.9867 1.9812 16.8148V9.43201C1.9812 4.32263 4.39526 1.92029 9.92651 1.92029Z" fill="black" fill-opacity="0.85"/>
</g>
<defs>
<clipPath id="clip0_2207_20883">
<rect width="27.0352" height="20.4492" fill="white" transform="translate(0.0944824 0.0335693)"/>
</clipPath>
</defs>
</svg>
