<svg width="22" height="22" viewBox="0 0 22 22" fill="none" xmlns="http://www.w3.org/2000/svg">
<g clip-path="url(#clip0_2207_11203)">
<path d="M3.76587 21.6313H17.9807C20.4417 21.6313 21.6604 20.4125 21.6604 17.9984V3.68982C21.6604 1.27576 20.4417 0.0570068 17.9807 0.0570068H3.76587C1.31665 0.0570068 0.0861816 1.26404 0.0861816 3.68982V17.9984C0.0861816 20.4242 1.31665 21.6313 3.76587 21.6313ZM3.7893 19.7445C2.61743 19.7445 1.9729 19.1234 1.9729 17.9047V3.78357C1.9729 2.56482 2.61743 1.94373 3.7893 1.94373H17.9573C19.1174 1.94373 19.7737 2.56482 19.7737 3.78357V17.9047C19.7737 19.1234 19.1174 19.7445 17.9573 19.7445H3.7893Z" fill="black" fill-opacity="0.85"/>
<path d="M10.9143 17.518C14.5706 17.518 17.594 14.4828 17.594 10.8383C17.594 7.20545 14.5471 4.15857 10.9143 4.15857C7.26977 4.15857 4.24634 7.19373 4.24634 10.8383C4.24634 14.4711 7.29321 17.518 10.9143 17.518ZM10.9143 15.8656C8.19556 15.8656 5.88696 13.5688 5.88696 10.8383C5.88696 8.09607 8.18384 5.81091 10.9143 5.81091C13.6448 5.81091 15.9534 8.10779 15.9534 10.8383C15.9534 13.5805 13.6565 15.8656 10.9143 15.8656ZM10.9143 14.6586C13.0003 14.6586 14.7346 12.9125 14.7346 10.8383C14.7346 8.77576 12.9885 7.01795 10.9143 7.01795C8.84009 7.01795 7.10571 8.76404 7.10571 10.8383C7.10571 12.9008 8.8518 14.6586 10.9143 14.6586Z" fill="black" fill-opacity="0.85"/>
</g>
<defs>
<clipPath id="clip0_2207_11203">
<rect width="21.5742" height="21.5977" fill="white" transform="translate(0.0861816 0.0335693)"/>
</clipPath>
</defs>
</svg>
