<svg width="24" height="24" viewBox="0 0 24 24" fill="none" xmlns="http://www.w3.org/2000/svg">
<g clip-path="url(#clip0_2207_24871)">
<path d="M11.9614 23.9411C18.5005 23.9411 23.9145 18.5154 23.9145 11.988C23.9145 5.44897 18.4888 0.0349121 11.9497 0.0349121C5.42236 0.0349121 0.00830078 5.44897 0.00830078 11.988C0.00830078 18.5154 5.43408 23.9411 11.9614 23.9411Z" fill="black" fill-opacity="0.85"/>
<path d="M11.9849 17.6599C8.83252 17.6599 6.84033 15.4099 6.84033 11.8826C6.84033 8.35523 8.84424 6.09351 11.9849 6.09351C14.1177 6.09351 15.8169 7.11304 16.4145 8.73023C16.4966 8.95289 16.52 9.09351 16.52 9.29273C16.52 9.80836 16.1919 10.1247 15.6763 10.1247C15.313 10.1247 15.0786 9.94898 14.8794 9.53883C14.3755 8.34351 13.3677 7.69898 12.0083 7.69898C10.0864 7.69898 8.79736 9.38648 8.79736 11.8826C8.79736 14.3787 10.0864 16.0544 12.0083 16.0544C13.3677 16.0544 14.3755 15.4099 14.8794 14.2263C15.0786 13.8161 15.313 13.6287 15.6763 13.6287C16.1919 13.6287 16.52 13.9451 16.52 14.4607C16.52 14.6365 16.4966 14.8005 16.4145 15.0232C15.8286 16.6521 14.1177 17.6599 11.9849 17.6599Z" fill="white"/>
</g>
<defs>
<clipPath id="clip0_2207_24871">
<rect width="23.9062" height="23.918" fill="white" transform="translate(0.00830078 0.0349121)"/>
</clipPath>
</defs>
</svg>
