<svg width="20" height="28" viewBox="0 0 20 28" fill="none" xmlns="http://www.w3.org/2000/svg">
<g clip-path="url(#clip0_2207_12213)">
<path d="M2.72388 25.1951H8.7356V0.0349121H2.72388C1.10669 0.0349121 0.0168457 1.14819 0.0168457 2.83569V22.3943C0.0168457 24.0818 1.10669 25.1951 2.72388 25.1951ZM5.87623 14.2849C5.19654 14.2849 4.63404 13.7341 4.63404 13.0544C4.63404 12.363 5.19654 11.8122 5.87623 11.8122C6.55591 11.8122 7.11841 12.363 7.11841 13.0544C7.11841 13.7341 6.55591 14.2849 5.87623 14.2849ZM16.3527 25.1951C17.9699 25.1951 19.0598 24.0818 19.0598 22.3943V2.83569C19.0598 1.14819 17.9699 0.0349121 16.3527 0.0349121H10.341V25.1951H16.3527ZM13.1887 14.2849C12.509 14.2849 11.9465 13.7341 11.9465 13.0544C11.9465 12.363 12.509 11.8122 13.1887 11.8122C13.8684 11.8122 14.4309 12.363 14.4309 13.0544C14.4309 13.7341 13.8684 14.2849 13.1887 14.2849ZM3.45044 27.363C4.03638 27.363 4.4231 26.9646 4.4231 26.3787V24.0232H2.47779V26.3787C2.47779 26.9646 2.86451 27.363 3.45044 27.363ZM15.6262 27.363C16.2121 27.363 16.5988 26.9646 16.5988 26.3787V24.0232H14.6535V26.3787C14.6535 26.9646 15.0402 27.363 15.6262 27.363Z" fill="black" fill-opacity="0.85"/>
</g>
<defs>
<clipPath id="clip0_2207_12213">
<rect width="19.043" height="27.3398" fill="white" transform="translate(0.0168457 0.0349121)"/>
</clipPath>
</defs>
</svg>
