<svg width="30" height="9" viewBox="0 0 30 9" fill="none" xmlns="http://www.w3.org/2000/svg">
<g clip-path="url(#clip0_2207_14781)">
<path d="M0.0231934 5.16772H12.199V3.22241H0.0231934V5.16772ZM11.7068 8.36694H21.7498C22.781 8.36694 23.1912 7.94507 23.1912 6.92553V1.4646C23.1912 0.445068 22.781 0.0349121 21.7498 0.0349121H11.7068C10.6755 0.0349121 10.2654 0.445068 10.2654 1.4646V6.92553C10.2654 7.94507 10.6755 8.36694 11.7068 8.36694Z" fill="black" fill-opacity="0.85"/>
<path d="M24.5505 6.69116H27.5857C28.6052 6.69116 29.0154 6.26929 29.0154 5.23803V3.1521C29.0154 2.13257 28.6052 1.71069 27.5857 1.71069H24.5505V6.69116Z" fill="black" fill-opacity="0.85"/>
</g>
<defs>
<clipPath id="clip0_2207_14781">
<rect width="28.9922" height="8.33203" fill="white" transform="translate(0.0231934 0.0349121)"/>
</clipPath>
</defs>
</svg>
