<svg width="25" height="29" viewBox="0 0 25 29" fill="none" xmlns="http://www.w3.org/2000/svg">
<g clip-path="url(#clip0_2207_15375)">
<path d="M1.37281 22.3826H2.88453V6.74975C2.88453 5.906 3.29468 5.43725 4.16187 5.32007C6.09546 5.05053 9.08374 4.93335 12.2126 4.93335C15.3298 4.93335 18.3181 5.05053 20.2751 5.32007C21.154 5.42553 21.5407 5.83569 21.5407 6.74975V22.3826H23.0642V6.29272C23.0642 4.86303 22.2321 4.01929 20.6735 3.83179C18.4001 3.55053 15.2243 3.39819 12.2126 3.39819C9.20093 3.39819 6.02515 3.55053 3.73999 3.83179C2.19312 4.01929 1.37281 4.86303 1.37281 6.29272V22.3826ZM0.0251465 23.1326C0.0251465 23.6482 0.447021 24.0818 0.962646 24.0818H23.4743C23.9899 24.0818 24.4118 23.6482 24.4118 23.1326C24.4118 22.6169 23.9899 22.1951 23.4743 22.1951H0.962646C0.447021 22.1951 0.0251465 22.6169 0.0251465 23.1326ZM4.65406 1.33569C4.65406 1.86303 5.09937 2.36694 5.65015 2.29663C7.39624 2.08569 9.81031 1.99194 12.2126 1.99194C14.6149 1.99194 17.0407 2.08569 18.7868 2.29663C19.3259 2.36694 19.7712 1.86303 19.7712 1.33569C19.7712 0.80835 19.3493 0.421631 18.7868 0.351318C17.0173 0.140381 14.5798 0.0349121 12.2126 0.0349121C9.85718 0.0349121 7.41968 0.140381 5.63843 0.351318C5.08765 0.421631 4.65406 0.80835 4.65406 1.33569ZM5.98999 1.03101V4.24194H7.52515V1.03101H5.98999ZM16.9118 1.03101V4.24194H18.447V1.03101H16.9118ZM12.2126 20.8591C13.279 20.8591 14.1228 20.0622 14.1228 18.9958C14.1228 17.906 13.279 17.0622 12.2126 17.0622C11.1228 17.0622 10.3259 17.906 10.3259 18.9958C10.3259 20.0622 11.1228 20.8591 12.2126 20.8591ZM4.13843 14.7888C4.13843 15.1404 4.37281 15.3747 4.74781 15.3747H7.90015C8.27515 15.3747 8.50953 15.1404 8.50953 14.7888V9.05835C8.50953 7.82788 7.54859 6.87866 6.32984 6.87866C5.08765 6.87866 4.13843 7.82788 4.13843 9.05835V14.7888ZM9.75171 14.7888C9.75171 15.1404 9.98609 15.3747 10.361 15.3747H14.0524C14.4392 15.3747 14.6735 15.1404 14.6735 14.7888V8.78882C14.6735 7.32397 13.6892 6.3396 12.2126 6.3396C10.736 6.3396 9.75171 7.32397 9.75171 8.78882V14.7888ZM15.904 14.7888C15.904 15.1404 16.1501 15.3747 16.5251 15.3747H19.6774C20.0524 15.3747 20.2868 15.1404 20.2868 14.7888V9.05835C20.2868 7.82788 19.3259 6.87866 18.1071 6.87866C16.8649 6.87866 15.904 7.82788 15.904 9.05835V14.7888ZM3.92749 28.6169H4.58374C4.90015 28.6169 5.08765 28.5115 5.26343 28.2302L8.59156 22.8513H6.35327L3.40015 27.5974C3.09546 28.0896 3.37671 28.6169 3.92749 28.6169ZM19.4431 28.6169H20.0993C20.6384 28.6169 20.9196 28.0896 20.6149 27.5974L17.6618 22.8513H15.4235L18.7517 28.2302C18.9274 28.5115 19.1149 28.6169 19.4431 28.6169Z" fill="black" fill-opacity="0.85"/>
</g>
<defs>
<clipPath id="clip0_2207_15375">
<rect width="24.3867" height="28.6055" fill="white" transform="translate(0.0251465 0.0349121)"/>
</clipPath>
</defs>
</svg>
