<svg width="31" height="22" viewBox="0 0 31 22" fill="none" xmlns="http://www.w3.org/2000/svg">
<g clip-path="url(#clip0_2207_1219)">
<path d="M5.01489 17.9997C5.01489 20.4138 6.23364 21.6326 8.68286 21.6326H24.6906C27.1399 21.6326 28.3703 20.4255 28.3703 17.9997V3.69116C28.3703 1.26538 27.1399 0.0583496 24.6906 0.0583496H8.68286C6.23364 0.0583496 5.01489 1.2771 5.01489 3.69116V17.9997ZM6.90161 18.1052V3.58569C6.90161 2.49585 7.48755 1.94507 8.53052 1.94507H24.8664C25.9094 1.94507 26.4836 2.49585 26.4836 3.58569V18.1052C26.4836 19.1951 25.9094 19.7458 24.8664 19.7458H8.53052C7.48755 19.7458 6.90161 19.1951 6.90161 18.1052Z" fill="black" fill-opacity="0.85"/>
<path d="M1.65161 21.5271C2.43676 21.5271 3.06958 20.8826 3.06958 20.0974C3.06958 19.3122 2.43676 18.6794 1.65161 18.6794C0.866455 18.6794 0.221924 19.3122 0.221924 20.0974C0.221924 20.8826 0.866455 21.5271 1.65161 21.5271Z" fill="black" fill-opacity="0.85"/>
<path d="M1.65161 16.8747C2.43676 16.8747 3.06958 16.2419 3.06958 15.4568C3.06958 14.6599 2.43676 14.0271 1.65161 14.0271C0.866455 14.0271 0.221924 14.6599 0.221924 15.4568C0.221924 16.2419 0.866455 16.8747 1.65161 16.8747Z" fill="black" fill-opacity="0.85"/>
<path d="M1.65161 7.5935C2.43676 7.5935 3.06958 6.94897 3.06958 6.16382C3.06958 5.37866 2.43676 4.74585 1.65161 4.74585C0.866455 4.74585 0.221924 5.37866 0.221924 6.16382C0.221924 6.94897 0.866455 7.5935 1.65161 7.5935Z" fill="black" fill-opacity="0.85"/>
<path d="M1.65161 2.94116C2.43676 2.94116 3.06958 2.30835 3.06958 1.51147C3.06958 0.726318 2.43676 0.0935059 1.65161 0.0935059C0.866455 0.0935059 0.221924 0.726318 0.221924 1.51147C0.221924 2.30835 0.866455 2.94116 1.65161 2.94116Z" fill="black" fill-opacity="0.85"/>
<path d="M5.01489 13.2654H28.3703C29.7063 13.2654 30.7961 12.1755 30.7961 10.8396C30.7961 9.50366 29.7063 8.41382 28.3703 8.41382H5.01489C3.66723 8.41382 2.58911 9.50366 2.58911 10.8396C2.58911 12.1755 3.66723 13.2654 5.01489 13.2654Z" fill="white"/>
<path d="M1.65161 12.4216C2.21411 12.4216 2.71802 12.1287 2.98755 11.6716H28.3703C28.8273 11.6716 29.2023 11.2966 29.2023 10.8396C29.2023 10.3826 28.8273 10.0193 28.3703 10.0193H3.01098C2.74145 9.53882 2.21411 9.23413 1.65161 9.23413C0.772705 9.23413 0.0461426 9.94897 0.0461426 10.8279C0.0461426 11.7068 0.772705 12.4216 1.65161 12.4216Z" fill="black" fill-opacity="0.85"/>
</g>
<defs>
<clipPath id="clip0_2207_1219">
<rect width="30.75" height="21.5977" fill="white" transform="translate(0.0461426 0.0349121)"/>
</clipPath>
</defs>
</svg>
