<svg width="24" height="24" viewBox="0 0 24 24" fill="none" xmlns="http://www.w3.org/2000/svg">
<g clip-path="url(#clip0_2207_1149)">
<path d="M11.9951 23.9411C18.5342 23.9411 23.9482 18.5154 23.9482 11.988C23.9482 5.44897 18.5225 0.0349121 11.9834 0.0349121C5.45605 0.0349121 0.0419922 5.44897 0.0419922 11.988C0.0419922 18.5154 5.46777 23.9411 11.9951 23.9411ZM11.9951 21.949C6.46387 21.949 2.0459 17.5193 2.0459 11.988C2.0459 6.45679 6.45215 2.0271 11.9834 2.0271C17.5147 2.0271 21.9561 6.45679 21.9561 11.988C21.9561 17.5193 17.5264 21.949 11.9951 21.949Z" fill="black" fill-opacity="0.85"/>
<path d="M7.69434 17.7771H16.2725C17.585 17.7771 18.2412 17.1208 18.2412 15.8318V8.14429C18.2412 6.85522 17.585 6.19897 16.2725 6.19897H7.69434C6.38184 6.19897 5.72559 6.8435 5.72559 8.14429V15.8318C5.72559 17.1208 6.38184 17.7771 7.69434 17.7771ZM7.61231 16.699C7.08497 16.699 6.80372 16.4411 6.80372 15.8787V9.94897C6.80372 9.37475 7.10841 9.08179 7.67091 9.08179H16.2959C16.8467 9.08179 17.1631 9.37475 17.1631 9.94897V15.8787C17.1631 16.4411 16.8936 16.699 16.3428 16.699H7.61231ZM10.7178 11.4255H11.1514C11.4209 11.4255 11.5147 11.3552 11.5147 11.0857V10.6521C11.5147 10.3826 11.4209 10.2888 11.1514 10.2888H10.7178C10.4482 10.2888 10.3662 10.3826 10.3662 10.6521V11.0857C10.3662 11.3552 10.4482 11.4255 10.7178 11.4255ZM12.8154 11.4255H13.249C13.5186 11.4255 13.6006 11.3552 13.6006 11.0857V10.6521C13.6006 10.3826 13.5186 10.2888 13.249 10.2888H12.8154C12.5459 10.2888 12.4639 10.3826 12.4639 10.6521V11.0857C12.4639 11.3552 12.5459 11.4255 12.8154 11.4255ZM14.9014 11.4255H15.3232C15.5928 11.4255 15.6865 11.3552 15.6865 11.0857V10.6521C15.6865 10.3826 15.5928 10.2888 15.3232 10.2888H14.9014C14.6201 10.2888 14.5381 10.3826 14.5381 10.6521V11.0857C14.5381 11.3552 14.6201 11.4255 14.9014 11.4255ZM8.64356 13.4763H9.07716C9.34669 13.4763 9.42872 13.406 9.42872 13.1365V12.7029C9.42872 12.4333 9.34669 12.3396 9.07716 12.3396H8.64356C8.37403 12.3396 8.28028 12.4333 8.28028 12.7029V13.1365C8.28028 13.406 8.37403 13.4763 8.64356 13.4763ZM10.7178 13.4763H11.1514C11.4209 13.4763 11.5147 13.406 11.5147 13.1365V12.7029C11.5147 12.4333 11.4209 12.3396 11.1514 12.3396H10.7178C10.4482 12.3396 10.3662 12.4333 10.3662 12.7029V13.1365C10.3662 13.406 10.4482 13.4763 10.7178 13.4763ZM12.8154 13.4763H13.249C13.5186 13.4763 13.6006 13.406 13.6006 13.1365V12.7029C13.6006 12.4333 13.5186 12.3396 13.249 12.3396H12.8154C12.5459 12.3396 12.4639 12.4333 12.4639 12.7029V13.1365C12.4639 13.406 12.5459 13.4763 12.8154 13.4763ZM14.9014 13.4763H15.3232C15.5928 13.4763 15.6865 13.406 15.6865 13.1365V12.7029C15.6865 12.4333 15.5928 12.3396 15.3232 12.3396H14.9014C14.6201 12.3396 14.5381 12.4333 14.5381 12.7029V13.1365C14.5381 13.406 14.6201 13.4763 14.9014 13.4763ZM8.64356 15.5388H9.07716C9.34669 15.5388 9.42872 15.4568 9.42872 15.1872V14.7419C9.42872 14.4841 9.34669 14.4021 9.07716 14.4021H8.64356C8.37403 14.4021 8.28028 14.4841 8.28028 14.7419V15.1872C8.28028 15.4568 8.37403 15.5388 8.64356 15.5388ZM10.7178 15.5388H11.1514C11.4209 15.5388 11.5147 15.4568 11.5147 15.1872V14.7419C11.5147 14.4841 11.4209 14.4021 11.1514 14.4021H10.7178C10.4482 14.4021 10.3662 14.4841 10.3662 14.7419V15.1872C10.3662 15.4568 10.4482 15.5388 10.7178 15.5388ZM12.8154 15.5388H13.249C13.5186 15.5388 13.6006 15.4568 13.6006 15.1872V14.7419C13.6006 14.4841 13.5186 14.4021 13.249 14.4021H12.8154C12.5459 14.4021 12.4639 14.4841 12.4639 14.7419V15.1872C12.4639 15.4568 12.5459 15.5388 12.8154 15.5388Z" fill="black" fill-opacity="0.85"/>
</g>
<defs>
<clipPath id="clip0_2207_1149">
<rect width="23.9062" height="23.918" fill="white" transform="translate(0.0419922 0.0349121)"/>
</clipPath>
</defs>
</svg>
