<svg width="24" height="24" viewBox="0 0 24 24" fill="none" xmlns="http://www.w3.org/2000/svg">
<g clip-path="url(#clip0_2207_8891)">
<path d="M12.0224 23.9529C18.5615 23.9529 23.9755 18.5388 23.9755 11.9997C23.9755 5.47241 18.5498 0.0466309 12.0107 0.0466309C5.4834 0.0466309 0.0693359 5.47241 0.0693359 11.9997C0.0693359 18.5388 5.49512 23.9529 12.0224 23.9529Z" fill="black" fill-opacity="0.85"/>
<path d="M6.63184 17.4724C5.3545 17.4724 4.70996 16.8396 4.70996 15.5857V9.19897C4.70996 7.92163 5.3545 7.30053 6.63184 7.30053H8.15528C8.62403 7.30053 8.76465 7.18335 9.03418 6.9021L9.53809 6.35132C9.84278 6.01147 10.1591 5.83569 10.7802 5.83569H13.2177C13.8505 5.83569 14.167 6.01147 14.4599 6.35132L14.9521 6.9021C15.2216 7.20679 15.3857 7.30053 15.8545 7.30053H17.4131C18.6787 7.30053 19.3349 7.92163 19.3349 9.19897V15.5857C19.3349 16.8396 18.6787 17.4724 17.4131 17.4724H6.63184ZM12.0341 15.949C14.0381 15.949 15.6435 14.3904 15.6435 12.3279C15.6435 10.324 14.0381 8.70679 12.0341 8.70679C10.0303 8.70679 8.41309 10.324 8.41309 12.3279C8.41309 14.3552 10.0303 15.949 12.0341 15.949ZM12.0224 14.906C10.6045 14.906 9.44434 13.7576 9.44434 12.3279C9.44434 10.8982 10.6045 9.74975 12.0224 9.74975C13.4404 9.74975 14.6005 10.9099 14.6005 12.3279C14.6005 13.7576 13.4404 14.906 12.0224 14.906ZM16.8623 10.5935C17.3076 10.5935 17.6826 10.2302 17.6709 9.77319C17.6709 9.31616 17.3076 8.95288 16.8623 8.95288C16.4052 8.95288 16.0302 9.31616 16.0302 9.77319C16.0302 10.2302 16.4052 10.5935 16.8623 10.5935Z" fill="white"/>
</g>
<defs>
<clipPath id="clip0_2207_8891">
<rect width="23.9062" height="23.918" fill="white" transform="translate(0.0693359 0.0349121)"/>
</clipPath>
</defs>
</svg>
