<svg width="23" height="23" viewBox="0 0 23 23" fill="none" xmlns="http://www.w3.org/2000/svg">
<g clip-path="url(#clip0_2207_18911)">
<path d="M0.943848 7.51294C1.56494 7.51294 1.89307 7.16138 1.89307 6.552V3.78638C1.89307 2.56763 2.5376 1.94654 3.70947 1.94654H6.54541C7.16651 1.94654 7.50635 1.60669 7.50635 0.997315C7.50635 0.387939 7.16651 0.0598145 6.54541 0.0598145H3.68604C1.23682 0.0598145 0.00634766 1.26685 0.00634766 3.68091V6.552C0.00634766 7.16138 0.346192 7.51294 0.943848 7.51294ZM22.0024 7.51294C22.6235 7.51294 22.9516 7.16138 22.9516 6.552V3.68091C22.9516 1.26685 21.7211 0.0598145 19.2719 0.0598145H16.4008C15.7915 0.0598145 15.4516 0.387939 15.4516 0.997315C15.4516 1.60669 15.7915 1.94654 16.4008 1.94654H19.2368C20.3969 1.94654 21.0649 2.56763 21.0649 3.78638V6.552C21.0649 7.16138 21.4047 7.51294 22.0024 7.51294ZM3.68604 22.9934H6.54541C7.16651 22.9934 7.50635 22.6536 7.50635 22.0559C7.50635 21.4466 7.16651 21.1067 6.54541 21.1067H3.70947C2.5376 21.1067 1.89307 20.4856 1.89307 19.2669V16.5012C1.89307 15.8802 1.55323 15.5403 0.943848 15.5403C0.334473 15.5403 0.00634766 15.8802 0.00634766 16.5012V19.3606C0.00634766 21.7864 1.23682 22.9934 3.68604 22.9934ZM16.4008 22.9934H19.2719C21.7211 22.9934 22.9516 21.7747 22.9516 19.3606V16.5012C22.9516 15.8802 22.6118 15.5403 22.0024 15.5403C21.393 15.5403 21.0649 15.8802 21.0649 16.5012V19.2669C21.0649 20.4856 20.3969 21.1067 19.2368 21.1067H16.4008C15.7915 21.1067 15.4516 21.4466 15.4516 22.0559C15.4516 22.6536 15.7915 22.9934 16.4008 22.9934Z" fill="black" fill-opacity="0.85"/>
<path d="M6.25244 16.8176H16.7172C17.9477 16.8176 18.5805 16.2083 18.5805 14.9895V8.802C18.5805 7.55982 17.9477 6.95044 16.7172 6.95044H15.1938C14.7368 6.95044 14.5962 6.86841 14.3267 6.56372L13.8461 6.03638C13.5532 5.70826 13.2486 5.54419 12.6509 5.54419H10.2836C9.67432 5.54419 9.36963 5.70826 9.07666 6.03638L8.59619 6.56372C8.32666 6.85669 8.18604 6.95044 7.72901 6.95044H6.25244C5.01026 6.95044 4.38916 7.55982 4.38916 8.802V14.9895C4.38916 16.2083 5.01026 16.8176 6.25244 16.8176ZM11.5025 15.3528C9.54541 15.3528 7.9751 13.7942 7.9751 11.8255C7.9751 9.88013 9.54541 8.32154 11.5025 8.32154C13.4361 8.32154 14.9946 9.88013 14.9946 11.8255C14.9946 13.8294 13.4361 15.3528 11.5025 15.3528ZM11.4907 14.3333C12.8618 14.3333 13.9869 13.2317 13.9869 11.8255C13.9869 10.4426 12.8618 9.32935 11.4907 9.32935C10.1079 9.32935 8.98291 10.4426 8.98291 11.8255C8.98291 13.2317 10.1079 14.3333 11.4907 14.3333ZM16.1665 10.1497C15.7329 10.1497 15.3813 9.7981 15.3813 9.35279C15.3813 8.90747 15.7329 8.55591 16.1665 8.55591C16.6002 8.55591 16.9634 8.90747 16.9634 9.35279C16.9634 9.7981 16.6002 10.1497 16.1665 10.1497Z" fill="black" fill-opacity="0.85"/>
</g>
<defs>
<clipPath id="clip0_2207_18911">
<rect width="22.9453" height="22.957" fill="white" transform="translate(0.00634766 0.036377)"/>
</clipPath>
</defs>
</svg>
