<svg width="24" height="24" viewBox="0 0 24 24" fill="none" xmlns="http://www.w3.org/2000/svg">
<g clip-path="url(#clip0_2207_8886)">
<path d="M12.0202 23.9411C18.5593 23.9411 23.9733 18.5154 23.9733 11.988C23.9733 5.44897 18.5476 0.0349121 12.0085 0.0349121C5.4812 0.0349121 0.0671387 5.44897 0.0671387 11.988C0.0671387 18.5154 5.49292 23.9411 12.0202 23.9411ZM12.0202 21.949C6.48902 21.949 2.07105 17.5193 2.07105 11.988C2.07105 6.45679 6.4773 2.0271 12.0085 2.0271C17.5398 2.0271 21.9812 6.45679 21.9812 11.988C21.9812 17.5193 17.5515 21.949 12.0202 21.949Z" fill="black" fill-opacity="0.85"/>
<path d="M6.78198 17.2849H17.2351C18.4655 17.2849 19.0983 16.6755 19.0983 15.4568V9.25758C19.0983 8.02711 18.4655 7.41773 17.2351 7.41773H15.7233C15.2663 7.41773 15.114 7.32398 14.8444 7.03101L14.3757 6.49195C14.0827 6.17554 13.778 5.99976 13.1687 5.99976H10.8015C10.2038 5.99976 9.89917 6.17554 9.59448 6.49195L9.11402 7.03101C8.84448 7.31226 8.71558 7.41773 8.24683 7.41773H6.78198C5.5398 7.41773 4.9187 8.02711 4.9187 9.25758V15.4568C4.9187 16.6755 5.5398 17.2849 6.78198 17.2849ZM12.0202 15.8083C10.0749 15.8083 8.50464 14.2497 8.50464 12.2927C8.50464 10.3474 10.0749 8.78883 12.0202 8.78883C13.9655 8.78883 15.5241 10.3474 15.5241 12.2927C15.5241 14.2849 13.9655 15.8083 12.0202 15.8083ZM12.0085 14.8005C13.3913 14.8005 14.5163 13.6872 14.5163 12.2927C14.5163 10.9099 13.3913 9.79664 12.0085 9.79664C10.6257 9.79664 9.50073 10.9099 9.50073 12.2927C9.50073 13.6872 10.6257 14.8005 12.0085 14.8005ZM16.696 10.6052C16.2624 10.6052 15.8991 10.2654 15.8991 9.80836C15.8991 9.37476 16.2624 9.0232 16.696 9.0232C17.1296 9.0232 17.4812 9.37476 17.4812 9.80836C17.4929 10.2654 17.1296 10.6052 16.696 10.6052Z" fill="black" fill-opacity="0.85"/>
</g>
<defs>
<clipPath id="clip0_2207_8886">
<rect width="23.9062" height="23.918" fill="white" transform="translate(0.0671387 0.0349121)"/>
</clipPath>
</defs>
</svg>
