<svg width="24" height="24" viewBox="0 0 24 24" fill="none" xmlns="http://www.w3.org/2000/svg">
<g clip-path="url(#clip0_2207_18264)">
<path d="M12.0329 23.9411C18.572 23.9411 23.986 18.5154 23.986 11.988C23.986 5.44897 18.5603 0.0349121 12.0212 0.0349121C5.49389 0.0349121 0.079834 5.44897 0.079834 11.988C0.079834 18.5154 5.50561 23.9411 12.0329 23.9411Z" fill="black" fill-opacity="0.85"/>
<path d="M4.84943 14.6833C4.70881 14.2966 4.84943 14.0271 5.28302 14.0271C7.69709 14.0271 9.60724 15.1287 10.7674 16.699V18.9841C10.7674 19.113 10.7908 19.2537 10.8494 19.3591C8.08381 18.9841 5.69318 17.156 4.84943 14.6833ZM7.88459 8.49586C7.88459 7.80445 8.04865 7.11304 8.36506 6.3982C8.47052 6.09351 8.84552 6.04664 9.09162 6.30445L10.4744 7.72242L11.6697 6.17554C11.869 5.90601 12.2088 5.90601 12.3963 6.17554L13.5799 7.72242L14.951 6.30445C15.1971 6.04664 15.5721 6.09351 15.7127 6.3982C16.0174 7.11304 16.158 7.80445 16.158 8.49586C16.158 10.6169 14.7635 12.3747 12.5487 12.6208V17.8122C13.5799 15.6677 15.7947 14.0271 18.7596 14.0271C19.1815 14.0271 19.3338 14.2966 19.1932 14.6833C18.2088 17.4958 15.2322 19.4763 12.0213 19.4763C11.7401 19.4763 11.5057 19.2771 11.5057 18.9841V12.6208C9.29084 12.3865 7.88459 10.6169 7.88459 8.49586Z" fill="white"/>
</g>
<defs>
<clipPath id="clip0_2207_18264">
<rect width="23.9062" height="23.918" fill="white" transform="translate(0.079834 0.0349121)"/>
</clipPath>
</defs>
</svg>
