<svg width="28" height="22" viewBox="0 0 28 22" fill="none" xmlns="http://www.w3.org/2000/svg">
<g clip-path="url(#clip0_2207_19086)">
<path d="M3.77198 21.6091H13.1235V19.7224H3.79541C2.62354 19.7224 1.97901 19.1013 1.97901 17.8826V11.6247H0.0922852V17.988C0.0922852 20.4021 1.32276 21.6091 3.77198 21.6091ZM14.729 21.6091H24.0454C26.5064 21.6091 27.7251 20.4021 27.7251 17.988V11.6247H25.8384V17.8826C25.8384 19.1013 25.1821 19.7224 24.022 19.7224H14.729V21.6091ZM25.8384 10.031H27.7251V3.66772C27.7251 1.25366 26.5064 0.0349121 24.0454 0.0349121H14.729V1.92163H24.022C25.1821 1.92163 25.8384 2.55444 25.8384 3.77319V10.031ZM0.0922852 10.031H1.97901V3.77319C1.97901 2.55444 2.62354 1.92163 3.79541 1.92163H13.1235V0.0349121H3.77198C1.32276 0.0349121 0.0922852 1.25366 0.0922852 3.66772V10.031Z" fill="black" fill-opacity="0.85"/>
<path d="M20.4009 11.6365H18.8657C18.4673 14.0154 16.4048 15.8435 13.9321 15.8435C11.4478 15.8435 9.36181 14.0154 8.97509 11.6365H7.43994C7.83837 14.8591 10.6157 17.3552 13.9321 17.3552C17.2251 17.3552 19.979 14.8474 20.4009 11.6365ZM18.8775 10.031H20.4009C20.0142 6.8318 17.2251 4.31226 13.9321 4.31226C10.6157 4.31226 7.82666 6.8318 7.43994 10.031H8.96337C9.35009 7.66383 11.4478 5.82398 13.9321 5.82398C16.4048 5.82398 18.5025 7.66383 18.8775 10.031Z" fill="black" fill-opacity="0.85"/>
</g>
<defs>
<clipPath id="clip0_2207_19086">
<rect width="27.6328" height="21.5742" fill="white" transform="translate(0.0922852 0.0349121)"/>
</clipPath>
</defs>
</svg>
