<svg width="31" height="23" viewBox="0 0 31 23" fill="none" xmlns="http://www.w3.org/2000/svg">
<g clip-path="url(#clip0_2207_7585)">
<path d="M0.0146484 11.263C0.0146484 18.0481 4.69043 22.4895 11.7451 22.4895H18.3662C25.4208 22.4895 30.1084 18.0481 30.1084 11.263C30.1084 4.47779 25.4208 0.036377 18.3662 0.036377H11.7451C4.69043 0.036377 0.0146484 4.47779 0.0146484 11.263ZM1.90137 11.263C1.90137 5.68482 5.89746 1.9231 11.7451 1.9231H18.3662C24.2255 1.9231 28.2216 5.68482 28.2216 11.263C28.2216 16.8411 24.2255 20.6028 18.3662 20.6028H11.7451C5.89746 20.6028 1.90137 16.8411 1.90137 11.263Z" fill="black" fill-opacity="0.85"/>
</g>
<defs>
<clipPath id="clip0_2207_7585">
<rect width="30.0938" height="22.4648" fill="white" transform="translate(0.0146484 0.036377)"/>
</clipPath>
</defs>
</svg>
