<svg width="26" height="26" viewBox="0 0 26 26" fill="none" xmlns="http://www.w3.org/2000/svg">
<g clip-path="url(#clip0_2207_9203)">
<path d="M7.00708 25.9231C7.46411 25.9231 7.80395 25.6887 8.35473 25.1731L12.5852 21.3059H20.507C23.9992 21.3059 25.8742 19.3841 25.8742 15.9505V6.97388C25.8742 3.54029 23.9992 1.60669 20.507 1.60669H5.41333C1.92114 1.60669 0.0461426 3.52857 0.0461426 6.97388V15.9505C0.0461426 19.3958 1.92114 21.3059 5.41333 21.3059H5.96411V24.7161C5.96411 25.4426 6.33911 25.9231 7.00708 25.9231Z" fill="black" fill-opacity="0.85"/>
<path d="M5.3313 12.7864C4.94458 12.7864 4.62817 12.47 4.62817 12.0716C4.62817 11.6966 4.94458 11.3802 5.3313 11.3802H10.3C10.6867 11.3802 11.0031 11.6966 11.0031 12.0716C11.0031 12.47 10.6867 12.7864 10.3 12.7864H5.3313ZM12.7961 12.7864C12.4094 12.7864 12.093 12.47 12.093 12.0716C12.093 11.6966 12.4094 11.3802 12.7961 11.3802H20.6125C20.9992 11.3802 21.3039 11.6966 21.3039 12.0716C21.3039 12.47 20.9992 12.7864 20.6125 12.7864H12.7961ZM5.3313 15.9387C4.94458 15.9387 4.62817 15.6341 4.62817 15.2473C4.62817 14.8489 4.94458 14.5325 5.3313 14.5325H7.38208C7.7688 14.5325 8.07348 14.8489 8.07348 15.2473C8.07348 15.6341 7.7688 15.9387 7.38208 15.9387H5.3313ZM9.86645 15.9387C9.47973 15.9387 9.17505 15.6341 9.17505 15.2473C9.17505 14.8489 9.47973 14.5325 9.86645 14.5325H15.925C16.3117 14.5325 16.6281 14.8489 16.6281 15.2473C16.6281 15.6341 16.3117 15.9387 15.925 15.9387H9.86645ZM18.4211 15.9387C18.0344 15.9387 17.718 15.6341 17.718 15.2473C17.718 14.8489 18.0344 14.5325 18.4211 14.5325H20.6125C20.9992 14.5325 21.3039 14.8489 21.3039 15.2473C21.3039 15.6341 20.9992 15.9387 20.6125 15.9387H18.4211Z" fill="white"/>
</g>
<defs>
<clipPath id="clip0_2207_9203">
<rect width="25.8281" height="25.8867" fill="white" transform="translate(0.0461426 0.036377)"/>
</clipPath>
</defs>
</svg>
