<svg width="28" height="22" viewBox="0 0 28 22" fill="none" xmlns="http://www.w3.org/2000/svg">
<g clip-path="url(#clip0_2207_15279)">
<path d="M0.0839844 20.2278C0.0839844 21.095 0.763672 21.7747 1.64257 21.7747H3.01367C3.89257 21.7747 4.57226 21.095 4.57226 20.2278V18.5286H23.334V20.2278C23.334 21.095 24.002 21.7747 24.8809 21.7747H26.2637C27.1426 21.7747 27.8106 21.095 27.8106 20.2278V12.3997C27.8106 10.4309 27.541 9.24732 26.334 7.9231L25.1504 6.64576L23.9199 3.11841C23.252 1.19654 21.9512 0.387939 20.334 0.200439C19.5488 0.106689 16.9824 0.036377 13.9473 0.036377C10.9238 0.036377 8.35742 0.106689 7.57226 0.200439C5.94336 0.387939 4.64257 1.19654 3.9746 3.11841L2.74414 6.64576L1.57226 7.9231C0.353515 9.24732 0.0839844 10.4309 0.0839844 12.3997V20.2278ZM5.96679 6.70435C5.39257 6.70435 5.20507 6.29419 5.38086 5.77857L6.10742 3.58716C6.37695 2.77857 6.81054 2.52076 7.51367 2.427C8.33398 2.30982 10.6074 2.22779 13.9473 2.22779C17.2988 2.22779 19.5606 2.30982 20.3692 2.427C21.084 2.52076 21.5059 2.77857 21.7754 3.58716L22.5137 5.77857C22.6895 6.29419 22.4902 6.70435 21.9278 6.70435H5.96679ZM4.32617 14.0286C3.5996 14.0286 3.07226 13.5012 3.07226 12.7864V10.9583C3.07226 10.2434 3.5996 9.72779 4.32617 9.72779C5.04101 9.72779 5.56836 10.2317 5.56836 10.9583V12.7864C5.56836 13.513 5.04101 14.0286 4.32617 14.0286ZM11.2871 13.4661C10.7129 13.4661 10.3262 13.0911 10.3262 12.4583V11.2747C10.3262 10.6653 10.7129 10.2903 11.2871 10.2903H16.5723C17.1582 10.2903 17.5449 10.6653 17.5449 11.2747V12.4583C17.5449 13.0911 17.1582 13.4661 16.5723 13.4661H11.2871ZM23.6856 14.0286C22.9824 14.0286 22.4434 13.5012 22.4434 12.7864V10.9583C22.4434 10.2434 22.9824 9.72779 23.6856 9.72779C24.4121 9.72779 24.9395 10.2317 24.9395 10.9583V12.7864C24.9395 13.513 24.4121 14.0286 23.6856 14.0286Z" fill="black" fill-opacity="0.85"/>
</g>
<defs>
<clipPath id="clip0_2207_15279">
<rect width="27.7266" height="21.7852" fill="white" transform="translate(0.0839844 0.036377)"/>
</clipPath>
</defs>
</svg>
