<svg width="43" height="22" viewBox="0 0 43 22" fill="none" xmlns="http://www.w3.org/2000/svg">
<g clip-path="url(#clip0_2207_17380)">
<path d="M21.2509 21.4963C23.7236 21.4963 24.9306 20.3245 24.9306 17.8752V12.1448C24.9306 10.469 24.4619 9.56665 23.1142 8.54712L14.0088 1.62134C12.4619 0.461182 11.2666 0.0510254 9.35644 0.0510254H3.67285C1.30566 0.0510254 0.0986328 1.24634 0.0986328 3.59009V17.8752C0.0986328 20.3245 1.29394 21.4963 3.77832 21.4963H21.2509ZM21.1806 10.6916H3.70801C2.62988 10.6916 1.98535 10.0705 1.98535 8.94556V3.68384C1.98535 2.54712 2.61816 1.93775 3.70801 1.93775H9.35644C10.8564 1.93775 11.7236 2.19556 12.7197 2.99243L21.4502 9.67212C21.9306 10.0237 21.8017 10.6916 21.1806 10.6916Z" fill="black" fill-opacity="0.85"/>
<path d="M30.1925 17.2776C30.5557 17.2776 30.7784 17.1487 31.1417 16.8088L35.6885 12.2268L40.2237 16.7971C40.5753 17.137 40.7979 17.2659 41.1612 17.2659C41.6651 17.2659 42.1104 16.8323 42.1104 16.3401C42.1104 16.0002 41.9932 15.7776 41.6885 15.4612L37.0831 10.8205L41.6885 6.17992C41.9932 5.86352 42.1104 5.64086 42.1104 5.30102C42.1104 4.80883 41.6768 4.38696 41.1729 4.38696C40.8096 4.38696 40.587 4.51586 40.2237 4.85571L35.6768 9.42602L31.1534 4.85571C30.8018 4.51586 30.5675 4.38696 30.2159 4.38696C29.7003 4.38696 29.2667 4.80883 29.2667 5.31274C29.2667 5.6643 29.3839 5.89868 29.6768 6.20336L34.2823 10.8205L29.6768 15.4729C29.3721 15.7893 29.2549 16.012 29.2549 16.3635C29.2549 16.8557 29.6885 17.2776 30.1925 17.2776Z" fill="black" fill-opacity="0.85"/>
</g>
<defs>
<clipPath id="clip0_2207_17380">
<rect width="42.0117" height="21.457" fill="white" transform="translate(0.0986328 0.0393066)"/>
</clipPath>
</defs>
</svg>
