<svg width="23" height="31" viewBox="0 0 23 31" fill="none" xmlns="http://www.w3.org/2000/svg">
<g clip-path="url(#clip0_2207_16958)">
<path d="M6.0979 8.20581L0.367432 13.9011C-0.00756836 14.2878 -0.00756836 14.9089 0.367432 15.2956C0.754151 15.6706 1.37524 15.6823 1.76196 15.2956L6.0979 10.9597V8.20581ZM13.6565 30.2956C19.5745 30.2956 22.094 28.9948 22.094 25.8073V5.46362C22.094 2.04175 18.9885 0.0378418 13.6565 0.0378418C8.33618 0.0378418 5.21899 2.04175 5.21899 5.46362V25.8073C5.21899 28.9948 7.75024 30.2956 13.6565 30.2956ZM13.6565 28.3503C9.13306 28.3503 7.17602 27.5886 7.17602 25.7136V5.46362C7.17602 3.27222 9.56665 1.99487 13.6565 1.99487C17.7581 1.99487 20.137 3.27222 20.137 5.46362V25.7136C20.137 27.5886 18.1917 28.3503 13.6565 28.3503ZM13.6682 12.6237C14.7112 12.6237 16.4924 12.7058 17.0784 12.7058C17.969 12.7058 18.344 12.3659 18.426 11.4519L18.6135 9.24878C18.7659 7.56128 17.5823 6.88159 13.6682 6.88159C9.74243 6.88159 8.55884 7.56128 8.71118 9.24878L8.89868 11.4519C8.98071 12.3659 9.36743 12.7058 10.2464 12.7058C10.844 12.7058 12.555 12.6237 13.6682 12.6237ZM13.6682 25.1276C17.6057 25.1276 18.8128 24.5417 18.5667 22.819L18.4143 21.7526C18.2268 20.3464 17.055 19.8776 13.6682 19.8776C10.2698 19.8776 9.0979 20.3464 8.9104 21.7526L8.75806 22.819C8.51196 24.5417 9.71899 25.1276 13.6682 25.1276Z" fill="black" fill-opacity="0.85"/>
</g>
<defs>
<clipPath id="clip0_2207_16958">
<rect width="22.0078" height="30.2695" fill="white" transform="translate(0.0861816 0.0378418)"/>
</clipPath>
</defs>
</svg>
