<svg width="38" height="22" viewBox="0 0 38 22" fill="none" xmlns="http://www.w3.org/2000/svg">
<g clip-path="url(#clip0_2207_15325)">
<path d="M5.5465 7.40747C5.45275 7.81763 5.62853 7.98169 6.07385 7.95826C7.94885 7.82935 10.1754 7.72388 13.9137 7.72388C17.6637 7.72388 19.8902 7.82935 21.7652 7.95826C22.1988 7.98169 22.3746 7.81763 22.2809 7.40747C21.9996 6.16529 21.4606 4.5481 21.0856 3.90357C20.7809 3.37622 20.441 3.14185 19.8316 3.05982C18.9879 2.94263 17.066 2.8606 13.9137 2.8606C10.7731 2.8606 8.8512 2.94263 7.99573 3.05982C7.38636 3.14185 7.0465 3.37622 6.74183 3.90357C6.36683 4.5481 5.83948 6.16529 5.5465 7.40747ZM5.46448 15.388C6.53089 15.388 7.35119 14.5676 7.35119 13.5012C7.35119 12.4231 6.53089 11.6145 5.46448 11.6145C4.39808 11.6145 3.57775 12.4231 3.57775 13.5012C3.57775 14.5676 4.39808 15.388 5.46448 15.388ZM11.9918 14.9192H17.0192C17.816 14.9192 18.3668 14.3684 18.3668 13.5598C18.3668 12.763 17.816 12.2122 17.0192 12.2122H11.9918C11.1832 12.2122 10.6324 12.763 10.6324 13.5598C10.6324 14.3684 11.1832 14.9192 11.9918 14.9192ZM22.3629 15.388C23.441 15.388 24.2496 14.5676 24.2496 13.5012C24.2496 12.4231 23.441 11.6145 22.3629 11.6145C21.2965 11.6145 20.4879 12.4231 20.4879 13.5012C20.4879 14.5676 21.2965 15.388 22.3629 15.388ZM12.4254 18.5403C12.8473 18.5403 13.1988 18.1887 13.1988 17.7669C13.1988 17.345 12.8473 17.0052 12.4254 17.0052C8.8512 16.97 4.609 16.8059 2.93323 16.595C1.93714 16.4778 1.58557 15.9622 1.58557 15.0716V13.4778C1.58557 11.8723 1.84339 11.1223 2.75745 9.927L3.95275 8.35669C4.26917 6.65747 5.03088 4.29029 5.53479 3.21216C5.90979 2.40357 6.64808 1.89966 7.71448 1.77076C8.46448 1.677 10.8434 1.57154 13.9137 1.57154C16.9957 1.57154 19.4098 1.677 20.0895 1.77076C21.191 1.91138 21.9176 2.41529 22.3043 3.21216C22.8082 4.29029 23.5699 6.65747 23.8746 8.35669L25.0816 9.927C25.984 11.1223 26.2418 11.8723 26.2418 13.4778V14.7669C26.2418 15.1887 26.5934 15.5286 27.0152 15.5286C27.4371 15.5286 27.777 15.1887 27.777 14.7669V13.4778C27.777 11.4973 27.3785 10.3958 26.3004 8.9895L25.3043 7.71216C24.8824 5.60279 24.0973 3.38794 23.6988 2.52076C23.066 1.19654 21.859 0.411377 20.3004 0.200439C19.5152 0.0949707 16.9488 0.036377 13.9137 0.036377C10.8902 0.036377 8.32385 0.106689 7.53869 0.200439C5.9801 0.387939 4.76135 1.19654 4.14025 2.52076C3.7301 3.38794 2.95667 5.60279 2.52308 7.71216L1.5387 8.9895C0.448853 10.3958 0.050415 11.4973 0.050415 13.4778V15.5403C0.050415 17.0403 0.94104 17.9192 2.52308 18.095C4.50354 18.3294 8.8512 18.5052 12.4254 18.5403ZM2.20667 21.7747H3.57775C4.45667 21.7747 5.13635 21.095 5.13635 20.2278V17.4387L0.648071 16.7942V20.2278C0.648071 21.095 1.32775 21.7747 2.20667 21.7747Z" fill="black" fill-opacity="0.85"/>
<path d="M23.6168 18.552C27.5543 18.552 32.7809 18.3528 35.0074 18.095C36.5895 17.9192 37.4801 17.0403 37.4801 15.5403V13.4778C37.4801 11.4973 37.0816 10.3958 35.9918 8.9895L35.0074 7.71216C34.5738 5.60279 33.8004 3.38794 33.3902 2.52076C32.7692 1.19654 31.5504 0.411377 29.9918 0.200439C29.2066 0.0949707 26.6402 0.036377 23.6168 0.036377C20.5816 0.036377 18.0152 0.106689 17.2301 0.200439C15.6715 0.387939 14.4527 1.19654 13.8316 2.52076C13.4332 3.38794 12.6481 5.60279 12.2262 7.71216L11.2301 8.9895C10.1402 10.3958 9.74182 11.4973 9.74182 13.4778V15.5403C9.74182 17.0403 10.6324 17.9192 12.2262 18.095C14.441 18.3528 19.6676 18.552 23.6168 18.552ZM11.8981 21.7747H13.2809C14.1598 21.7747 14.8277 21.095 14.8277 20.2278V17.4387L10.3512 16.7942V20.2278C10.3512 21.095 11.0192 21.7747 11.8981 21.7747ZM33.9527 21.7747H35.3238C36.2027 21.7747 36.8824 21.095 36.8824 20.2278V16.7942L32.3942 17.4387V20.2278C32.3942 21.095 33.0738 21.7747 33.9527 21.7747Z" fill="white"/>
<path d="M15.2496 7.40747C15.1559 7.81763 15.3316 7.98169 15.7652 7.95826C17.6402 7.82935 19.8668 7.72388 23.6168 7.72388C27.3551 7.72388 29.5816 7.82935 31.4566 7.95826C31.902 7.98169 32.066 7.81763 31.9723 7.40747C31.691 6.16529 31.1637 4.5481 30.7887 3.90357C30.484 3.37622 30.1442 3.14185 29.5348 3.05982C28.6793 2.94263 26.7574 2.8606 23.6168 2.8606C20.4645 2.8606 18.5426 2.94263 17.6988 3.05982C17.0895 3.14185 16.7379 3.37622 16.4332 3.90357C16.0699 4.5481 15.5309 6.16529 15.2496 7.40747ZM15.1676 15.388C16.234 15.388 17.0426 14.5676 17.0426 13.5012C17.0426 12.4231 16.234 11.6145 15.1676 11.6145C14.0895 11.6145 13.2809 12.4231 13.2809 13.5012C13.2809 14.5676 14.0895 15.388 15.1676 15.388ZM20.5113 14.9192H26.7106C27.5192 14.9192 28.0699 14.3684 28.0699 13.5598C28.0699 12.763 27.5192 12.2122 26.7106 12.2122H20.5113C19.7145 12.2122 19.152 12.763 19.152 13.5598C19.152 14.3684 19.7145 14.9192 20.5113 14.9192ZM32.066 15.388C33.1324 15.388 33.9527 14.5676 33.9527 13.5012C33.9527 12.4231 33.1324 11.6145 32.066 11.6145C30.9879 11.6145 30.1793 12.4231 30.1793 13.5012C30.1793 14.5676 30.9879 15.388 32.066 15.388ZM23.6168 18.552C27.5543 18.552 32.7809 18.3528 35.0074 18.095C36.5895 17.9192 37.4801 17.0403 37.4801 15.5403V13.4778C37.4801 11.4973 37.0816 10.3958 35.9918 8.9895L35.0074 7.71216C34.5738 5.60279 33.8004 3.38794 33.3902 2.52076C32.7692 1.19654 31.5504 0.411377 29.9918 0.200439C29.2066 0.0949707 26.6402 0.036377 23.6168 0.036377C20.5816 0.036377 18.0152 0.106689 17.2301 0.200439C15.6715 0.387939 14.4527 1.19654 13.8316 2.52076C13.4332 3.38794 12.6481 5.60279 12.2262 7.71216L11.2301 8.9895C10.1402 10.3958 9.74182 11.4973 9.74182 13.4778V15.5403C9.74182 17.0403 10.6324 17.9192 12.2262 18.095C14.441 18.3528 19.6676 18.552 23.6168 18.552ZM23.6168 17.0169C19.6324 17.0169 14.5113 16.8294 12.6363 16.595C11.6402 16.4778 11.277 15.9622 11.277 15.0716V13.4778C11.277 11.8723 11.5465 11.1223 12.4488 9.927L13.6559 8.35669C13.9606 6.65747 14.734 4.29029 15.2262 3.21216C15.6129 2.40357 16.3512 1.89966 17.4176 1.77076C18.1676 1.677 20.5348 1.57154 23.6168 1.57154C26.6871 1.57154 29.1129 1.677 29.7926 1.77076C30.8942 1.91138 31.6207 2.41529 31.9957 3.21216C32.5113 4.29029 33.2613 6.65747 33.5777 8.35669L34.7731 9.927C35.6871 11.1223 35.9449 11.8723 35.9449 13.4778V15.0716C35.9449 15.9622 35.5934 16.4778 34.5856 16.595C32.7106 16.8294 27.6012 17.0169 23.6168 17.0169ZM11.8981 21.7747H13.2809C14.1598 21.7747 14.8277 21.095 14.8277 20.2278V17.4387L10.3512 16.7942V20.2278C10.3512 21.095 11.0192 21.7747 11.8981 21.7747ZM33.9527 21.7747H35.3238C36.2027 21.7747 36.8824 21.095 36.8824 20.2278V16.7942L32.3942 17.4387V20.2278C32.3942 21.095 33.0738 21.7747 33.9527 21.7747Z" fill="black" fill-opacity="0.85"/>
</g>
<defs>
<clipPath id="clip0_2207_15325">
<rect width="37.4297" height="21.7852" fill="white" transform="translate(0.050415 0.036377)"/>
</clipPath>
</defs>
</svg>
