<svg width="23" height="31" viewBox="0 0 23 31" fill="none" xmlns="http://www.w3.org/2000/svg">
<g clip-path="url(#clip0_2207_17014)">
<path d="M16.0947 8.20581V10.9597L20.4424 15.2956C20.8291 15.6823 21.4384 15.6706 21.8252 15.2956C22.2002 14.9089 22.2002 14.2878 21.8252 13.9011L16.0947 8.20581ZM8.53613 30.2956C14.4541 30.2956 16.9736 28.9948 16.9736 25.8073V5.46362C16.9736 2.04175 13.8681 0.0378418 8.53613 0.0378418C3.21582 0.0378418 0.0986328 2.04175 0.0986328 5.46362V25.8073C0.0986328 28.9948 2.62988 30.2956 8.53613 30.2956ZM8.53613 28.3503C4.01269 28.3503 2.05566 27.5886 2.05566 25.7136V5.46362C2.05566 3.27222 4.44629 1.99487 8.53613 1.99487C12.6377 1.99487 15.0166 3.27222 15.0166 5.46362V25.7136C15.0166 27.5886 13.0713 28.3503 8.53613 28.3503ZM8.54785 12.6237C9.59082 12.6237 11.372 12.7058 11.958 12.7058C12.8486 12.7058 13.2236 12.3659 13.3056 11.4519L13.4931 9.24878C13.6455 7.56128 12.4619 6.88159 8.54785 6.88159C4.62207 6.88159 3.43847 7.56128 3.59082 9.24878L3.77832 11.4519C3.86035 12.3659 4.24707 12.7058 5.12597 12.7058C5.72363 12.7058 7.43457 12.6237 8.54785 12.6237ZM8.54785 25.1276C12.4853 25.1276 13.6924 24.5417 13.4463 22.819L13.2939 21.7526C13.1064 20.3464 11.9345 19.8776 8.54785 19.8776C5.14941 19.8776 3.97754 20.3464 3.79004 21.7526L3.63769 22.819C3.3916 24.5417 4.59863 25.1276 8.54785 25.1276ZM16.0947 17.0651V19.819L20.4424 24.155C20.8291 24.5417 21.4384 24.53 21.8252 24.155C22.2002 23.7683 22.2002 23.1355 21.8252 22.7605L16.0947 17.0651Z" fill="black" fill-opacity="0.85"/>
</g>
<defs>
<clipPath id="clip0_2207_17014">
<rect width="22.0078" height="30.2695" fill="white" transform="translate(0.0986328 0.0378418)"/>
</clipPath>
</defs>
</svg>
