<svg width="23" height="31" viewBox="0 0 23 31" fill="none" xmlns="http://www.w3.org/2000/svg">
<g clip-path="url(#clip0_2207_16986)">
<path d="M8.45435 30.2971C14.3723 30.2971 16.8918 28.9963 16.8918 25.8088V5.46509C16.8918 2.04322 13.7863 0.0393066 8.45435 0.0393066C3.13404 0.0393066 0.0168457 2.04322 0.0168457 5.46509V25.8088C0.0168457 28.9963 2.5481 30.2971 8.45435 30.2971ZM8.46607 12.5198C7.31763 12.5198 5.55982 12.6018 4.93873 12.6018C4.03638 12.6018 3.63794 12.2502 3.54419 11.3127L3.35669 9.03931C3.19263 7.29322 4.4231 6.59009 8.46607 6.59009C12.4973 6.59009 13.7277 7.29322 13.5637 9.03931L13.3762 11.3127C13.2824 12.2502 12.8957 12.6018 11.9816 12.6018C11.3723 12.6018 9.54419 12.5198 8.46607 12.5198ZM8.46607 25.4221C4.38794 25.4221 3.14576 24.8127 3.40357 23.0315L3.55591 21.9299C3.75513 20.4885 4.96216 19.9963 8.46607 19.9963C11.9582 19.9963 13.1652 20.4885 13.3645 21.9299L13.5168 23.0315C13.7746 24.8127 12.5324 25.4221 8.46607 25.4221ZM16.0129 17.0666V19.8205L20.3606 24.1565C20.7473 24.5432 21.3566 24.5315 21.7434 24.1565C22.1184 23.7698 22.1184 23.137 21.7434 22.762L16.0129 17.0666Z" fill="black" fill-opacity="0.85"/>
</g>
<defs>
<clipPath id="clip0_2207_16986">
<rect width="22.0078" height="30.2695" fill="white" transform="translate(0.0168457 0.0393066)"/>
</clipPath>
</defs>
</svg>
