<svg width="25" height="22" viewBox="0 0 25 22" fill="none" xmlns="http://www.w3.org/2000/svg">
<g clip-path="url(#clip0_2207_17358)">
<path d="M21.2426 21.4963C23.7153 21.4963 24.9223 20.3245 24.9223 17.8752V12.1448C24.9223 10.469 24.4536 9.56665 23.1059 8.54712L14.0005 1.62134C12.4536 0.461182 11.2583 0.0510254 9.34814 0.0510254H3.66455C1.29736 0.0510254 0.090332 1.24634 0.090332 3.59009V17.8752C0.090332 20.3245 1.28564 21.4963 3.77002 21.4963H21.2426ZM21.1723 10.6916H3.69971C2.62158 10.6916 1.97705 10.0705 1.97705 8.94556V3.68384C1.97705 2.54712 2.60986 1.93775 3.69971 1.93775H9.34814C10.8481 1.93775 11.7153 2.19556 12.7114 2.99243L21.4419 9.67212C21.9223 10.0237 21.7934 10.6916 21.1723 10.6916Z" fill="black" fill-opacity="0.85"/>
</g>
<defs>
<clipPath id="clip0_2207_17358">
<rect width="24.832" height="21.457" fill="white" transform="translate(0.090332 0.0393066)"/>
</clipPath>
</defs>
</svg>
