<svg width="23" height="29" viewBox="0 0 23 29" fill="none" xmlns="http://www.w3.org/2000/svg">
<g clip-path="url(#clip0_2207_15251)">
<path d="M11.4366 1.98169C13.9678 1.98169 16.253 2.8606 17.9991 4.43091C18.4796 4.8645 19.0303 4.96997 19.4522 4.60669C19.8975 4.21997 19.8975 3.57544 19.3936 3.11841C17.2842 1.1731 14.4717 0.0715332 11.4366 0.0715332C8.40147 0.0715332 5.58897 1.1731 3.4796 3.11841C2.98741 3.57544 2.98741 4.21997 3.421 4.60669C3.8546 4.96997 4.39366 4.8645 4.87413 4.43091C6.62022 2.8606 8.9171 1.98169 11.4366 1.98169Z" fill="black" fill-opacity="0.85"/>
<path d="M11.4599 6.6809C12.6787 6.6809 13.8037 7.03246 14.6826 7.73559C15.1865 8.09887 15.7138 8.26293 16.1357 7.88793C16.5693 7.50121 16.581 6.79809 16.0537 6.37621C14.7881 5.35668 13.1826 4.77075 11.4599 4.77075C9.73729 4.77075 8.13182 5.35668 6.8662 6.37621C6.32713 6.79809 6.33885 7.50121 6.78416 7.88793C7.20604 8.26293 7.72166 8.09887 8.23729 7.73559C9.13963 7.0559 10.2412 6.6809 11.4599 6.6809Z" fill="black" fill-opacity="0.85"/>
<path d="M11.4834 25.6536C14.7529 25.6536 18.9716 25.4895 20.7529 25.2786C22.124 25.1262 22.9091 24.3645 22.9091 23.052V21.2942C22.9091 19.677 22.5693 18.7161 21.6787 17.5794L20.9052 16.595C20.5537 14.8958 19.9326 13.1262 19.6045 12.4348C19.0771 11.3098 18.0341 10.6419 16.7334 10.4778C16.1005 10.3841 14.0263 10.3372 11.4834 10.3372C8.94043 10.3372 6.87793 10.3958 6.24512 10.4778C4.94434 10.6302 3.90137 11.3098 3.37403 12.4348C3.03418 13.1262 2.42481 14.8958 2.06153 16.595L1.29981 17.5794C0.397461 18.7161 0.0693359 19.677 0.0693359 21.2942V23.052C0.0693359 24.3645 0.854492 25.1262 2.22559 25.2786C4.00684 25.4895 8.22559 25.6536 11.4834 25.6536ZM11.4834 24.0598C8.19043 24.0598 4.08887 23.9192 2.58887 23.7317C1.87403 23.638 1.66309 23.345 1.66309 22.677V21.2942C1.66309 20.0403 1.83887 19.4778 2.55372 18.552L3.53809 17.263C3.78418 15.9153 4.417 14.0052 4.80372 13.1497C5.09668 12.5286 5.61231 12.177 6.4209 12.0833C7.03028 12.013 8.917 11.9192 11.4834 11.9192C14.0615 11.9192 15.9951 12.013 16.5224 12.0833C17.3662 12.1887 17.8818 12.5403 18.1748 13.1497C18.5732 14.0052 19.1826 15.9153 19.4287 17.263L20.4248 18.552C21.1396 19.4778 21.3154 20.0403 21.3154 21.2942V22.677C21.3154 23.345 21.1045 23.6497 20.3896 23.7317C18.8896 23.9075 14.7881 24.0598 11.4834 24.0598ZM4.66309 16.4309C4.59278 16.7591 4.72168 16.8997 5.08496 16.8645C6.58496 16.7591 8.37793 16.677 11.4834 16.677C14.5888 16.677 16.3935 16.7591 17.8935 16.8645C18.2451 16.8997 18.3857 16.7591 18.3154 16.4309C18.081 15.4231 17.6591 14.1458 17.3545 13.6067C17.1084 13.1848 16.8388 13.0091 16.3466 12.9387C15.6552 12.845 14.1201 12.7747 11.4834 12.7747C8.8584 12.7747 7.31153 12.845 6.62012 12.9387C6.13965 13.0091 5.8584 13.1848 5.62403 13.6067C5.33106 14.1458 4.89746 15.4231 4.66309 16.4309ZM4.59278 22.8411C5.45996 22.8411 6.1045 22.1731 6.1045 21.3176C6.1045 20.4505 5.45996 19.8059 4.59278 19.8059C3.73731 19.8059 3.08106 20.4505 3.08106 21.3176C3.08106 22.1731 3.73731 22.8411 4.59278 22.8411ZM8.89356 22.4661H14.0732C14.7295 22.4661 15.1748 22.0208 15.1748 21.3645C15.1748 20.7317 14.7295 20.2864 14.0732 20.2864H8.89356C8.24903 20.2864 7.80372 20.7317 7.80372 21.3645C7.80372 22.0208 8.24903 22.4661 8.89356 22.4661ZM18.374 22.8411C19.2412 22.8411 19.8974 22.1731 19.8974 21.3176C19.8974 20.4505 19.2412 19.8059 18.374 19.8059C17.5185 19.8059 16.874 20.4505 16.874 21.3176C16.874 22.1731 17.5185 22.8411 18.374 22.8411ZM1.9795 28.1731H3.11622C3.81934 28.1731 4.37012 27.6223 4.37012 26.9309V24.6692L0.749024 24.1419V26.9309C0.749024 27.6223 1.28809 28.1731 1.9795 28.1731ZM19.8388 28.1731H20.9755C21.6787 28.1731 22.206 27.6223 22.206 26.9309V24.1419L18.5849 24.6692V26.9309C18.5849 27.6223 19.1357 28.1731 19.8388 28.1731Z" fill="black" fill-opacity="0.85"/>
</g>
<defs>
<clipPath id="clip0_2207_15251">
<rect width="22.8398" height="28.1367" fill="white" transform="translate(0.0693359 0.036377)"/>
</clipPath>
</defs>
</svg>
