<svg width="38" height="24" viewBox="0 0 38 24" fill="none" xmlns="http://www.w3.org/2000/svg">
<g clip-path="url(#clip0_2207_17251)">
<path d="M0.0378418 14.3713C0.0378418 15.0041 0.553467 15.2737 1.10425 14.9338L5.2644 12.4026C5.79175 12.0745 5.78003 11.4534 5.2644 11.1252L1.09253 8.57056C0.541748 8.23072 0.0378418 8.52369 0.0378418 9.14478V14.3713ZM37.9948 14.3713V9.14478C37.9948 8.52369 37.4909 8.24243 36.9284 8.57056L32.7683 11.1252C32.2526 11.4651 32.2409 12.0627 32.7683 12.4026L36.9284 14.9338C37.4909 15.262 37.9948 15.0041 37.9948 14.3713Z" fill="black" fill-opacity="0.85"/>
<path d="M7.90112 6.29712H8.52222C8.92065 6.29712 9.21362 6.00415 9.21362 5.60572V0.742432C9.21362 0.343995 8.92065 0.0510254 8.52222 0.0510254H7.90112C7.50268 0.0510254 7.20972 0.343995 7.20972 0.742432V5.60572C7.20972 6.00415 7.50268 6.29712 7.90112 6.29712ZM7.90112 14.887H8.52222C8.92065 14.887 9.21362 14.594 9.21362 14.1955V9.344C9.21362 8.94556 8.92065 8.65259 8.52222 8.65259H7.90112C7.50268 8.65259 7.20972 8.94556 7.20972 9.344V14.1955C7.20972 14.594 7.50268 14.887 7.90112 14.887ZM7.90112 23.4885H8.52222C8.92065 23.4885 9.21362 23.1955 9.21362 22.8088V17.9338C9.21362 17.5354 8.92065 17.2424 8.52222 17.2424H7.90112C7.50268 17.2424 7.20972 17.5354 7.20972 17.9338V22.8088C7.20972 23.1955 7.50268 23.4885 7.90112 23.4885ZM29.4987 6.29712H30.1316C30.53 6.29712 30.823 6.00415 30.823 5.60572V0.742432C30.823 0.343995 30.53 0.0510254 30.1316 0.0510254H29.4987C29.112 0.0510254 28.819 0.343995 28.819 0.742432V5.60572C28.819 6.00415 29.112 6.29712 29.4987 6.29712ZM29.4987 14.887H30.1316C30.53 14.887 30.823 14.594 30.823 14.1955V9.344C30.823 8.94556 30.53 8.65259 30.1316 8.65259H29.4987C29.112 8.65259 28.819 8.94556 28.819 9.344V14.1955C28.819 14.594 29.112 14.887 29.4987 14.887ZM29.4987 23.4885H30.1316C30.53 23.4885 30.823 23.1955 30.823 22.8088V17.9338C30.823 17.5354 30.53 17.2424 30.1316 17.2424H29.4987C29.112 17.2424 28.819 17.5354 28.819 17.9338V22.8088C28.819 23.1955 29.112 23.4885 29.4987 23.4885ZM18.9987 22.387C23.1472 22.387 25.0105 21.4495 25.0105 19.0588V9.62525H25.4792C26.0066 9.62525 26.4284 9.21509 26.4167 8.71119L26.405 8.30103C26.3816 7.7854 26.0066 7.38697 25.4675 7.38697H25.0105V5.04322C25.0105 2.58228 22.7487 1.12915 19.0105 1.14087C15.2956 1.14087 13.0222 2.57056 13.0222 5.04322V7.38697H12.5651C12.0261 7.38697 11.6394 7.7854 11.6276 8.28931L11.6159 8.71119C11.6042 9.21509 12.0261 9.62525 12.5534 9.62525H13.0222V19.0588C13.0222 21.4495 14.8737 22.387 18.9987 22.387ZM19.0105 10.0002C18.2136 10.012 16.9948 10.0823 16.573 10.0705C15.8933 10.0823 15.612 9.81275 15.5417 9.0979L15.4011 7.55103C15.2839 6.27369 16.1394 5.76978 19.0222 5.76978C21.905 5.79322 22.737 6.27369 22.6316 7.53931L22.5026 9.10962C22.4323 9.81275 22.1159 10.0823 21.4597 10.0823C21.0495 10.0705 19.7722 10.012 19.0105 10.0002ZM19.0105 18.9768C16.1511 18.9534 15.2253 18.5432 15.4362 17.2073L15.5417 16.4573C15.7058 15.4026 16.5378 15.0745 19.0222 15.0862C21.4948 15.0745 22.3269 15.3909 22.4909 16.4573L22.5964 17.219C22.7956 18.5315 21.8816 18.9534 19.0105 18.9768Z" fill="black" fill-opacity="0.85"/>
</g>
<defs>
<clipPath id="clip0_2207_17251">
<rect width="37.957" height="23.4492" fill="white" transform="translate(0.0378418 0.0393066)"/>
</clipPath>
</defs>
</svg>
