<svg width="23" height="29" viewBox="0 0 23 29" fill="none" xmlns="http://www.w3.org/2000/svg">
<g clip-path="url(#clip0_2207_15269)">
<path d="M11.4929 25.7059C13.8835 25.7059 16.9069 25.6239 19.0515 25.495V27.1473C19.0515 27.8504 19.6023 28.4012 20.3171 28.4012H21.6413C22.3562 28.4012 22.9187 27.8504 22.9187 27.1473V21.5575C22.9187 19.9403 22.5905 19.0262 21.6999 17.8778L20.8913 16.8465C20.5398 15.1122 19.9069 13.3075 19.5788 12.6043C19.0515 11.5145 18.0671 10.8583 16.7898 10.7059C16.1569 10.6239 13.9773 10.5653 11.4929 10.5653C9.00855 10.5653 6.82886 10.6239 6.19605 10.7059C4.9187 10.8583 3.92261 11.5145 3.40698 12.6043C3.07886 13.3075 2.44605 15.1122 2.09448 16.8465L1.28589 17.8778C0.395264 19.0262 0.0671387 19.9403 0.0671387 21.5575V27.1473C0.0671387 27.8504 0.629639 28.4012 1.34448 28.4012H2.6687C3.38355 28.4012 3.93433 27.8504 3.93433 27.1473V25.495C6.07886 25.6239 9.1023 25.7059 11.4929 25.7059ZM4.11011 16.0497C4.33276 14.995 4.80152 13.6239 5.11792 13.0731C5.37573 12.6161 5.65698 12.4286 6.17261 12.3465C6.89917 12.2528 8.52808 12.1942 11.4929 12.1942C14.4577 12.1942 16.0866 12.2293 16.8132 12.3465C17.3288 12.4286 17.5983 12.6161 17.8679 13.0731C18.196 13.6122 18.6179 14.995 18.8757 16.0497C18.9694 16.4012 18.8171 16.5418 18.4538 16.5067C16.8601 16.4012 14.9616 16.3075 11.4929 16.3075C8.02417 16.3075 6.12573 16.4012 4.53198 16.5067C4.1687 16.5418 4.02808 16.4012 4.11011 16.0497ZM4.57886 23.1278C3.71167 23.1278 3.03198 22.4481 3.03198 21.5809C3.03198 20.702 3.71167 20.0458 4.57886 20.0458C5.45776 20.0458 6.11402 20.702 6.11402 21.5809C6.11402 22.4481 5.45776 23.1278 4.57886 23.1278ZM8.96167 22.7411C8.30542 22.7411 7.84839 22.284 7.84839 21.6278C7.84839 20.9715 8.30542 20.5262 8.96167 20.5262H14.0241C14.6804 20.5262 15.1374 20.9715 15.1374 21.6278C15.1374 22.284 14.6804 22.7411 14.0241 22.7411H8.96167ZM18.4069 23.1278C17.528 23.1278 16.8718 22.4481 16.8718 21.5809C16.8718 20.702 17.528 20.0458 18.4069 20.0458C19.2741 20.0458 19.9421 20.702 19.9421 21.5809C19.9421 22.4481 19.2741 23.1278 18.4069 23.1278Z" fill="black" fill-opacity="0.85"/>
<path d="M11.4461 6.1473C8.92662 6.1473 6.64146 5.2684 4.88365 3.69808C4.40318 3.27621 3.86412 3.15902 3.43052 3.53402C2.99693 3.90902 2.99693 4.56527 3.48912 5.01058C5.61021 6.96762 8.41099 8.05746 11.4461 8.05746C14.4813 8.05746 17.2938 6.96762 19.4031 5.01058C19.907 4.56527 19.907 3.90902 19.4617 3.53402C19.0399 3.15902 18.5008 3.27621 18.0086 3.69808C16.2625 5.2684 13.9774 6.1473 11.4461 6.1473Z" fill="black" fill-opacity="0.85"/>
<path d="M11.4694 1.44807C10.2507 1.44807 9.14915 1.07307 8.24681 0.405102C7.73118 0.0418207 7.21556 -0.122241 6.79368 0.252759C6.34837 0.639477 6.33665 1.34261 6.87571 1.75276C8.14134 2.77229 9.74681 3.35823 11.4694 3.35823C13.1921 3.35823 14.7976 2.77229 16.0632 1.75276C16.6023 1.34261 16.5905 0.639477 16.1452 0.252759C15.7233 -0.122241 15.196 0.0301019 14.6921 0.405102C13.8249 1.10823 12.6882 1.44807 11.4694 1.44807Z" fill="black" fill-opacity="0.85"/>
</g>
<defs>
<clipPath id="clip0_2207_15269">
<rect width="22.8516" height="28.5929" fill="white" transform="translate(0.0671387 0.036377)"/>
</clipPath>
</defs>
</svg>
