<svg width="26" height="24" viewBox="0 0 26 24" fill="none" xmlns="http://www.w3.org/2000/svg">
<g clip-path="url(#clip0_2207_17222)">
<path d="M24.7169 6.39087C25.1154 6.39087 25.4083 6.0979 25.4083 5.69947V0.730713C25.4083 0.332276 25.1154 0.0393066 24.7169 0.0393066H24.0958C23.6974 0.0393066 23.4044 0.332276 23.4044 0.730713V5.69947C23.4044 6.0979 23.6974 6.39087 24.0958 6.39087H24.7169ZM24.7169 15.0745C25.1154 15.0745 25.4083 14.7815 25.4083 14.3831V9.42603C25.4083 9.03931 25.1154 8.74634 24.7169 8.74634H24.0958C23.6974 8.74634 23.4044 9.03931 23.4044 9.42603V14.3831C23.4044 14.7815 23.6974 15.0745 24.0958 15.0745H24.7169ZM24.7169 23.7815C25.1154 23.7815 25.4083 23.4885 25.4083 23.0901V18.1213C25.4083 17.7229 25.1154 17.4299 24.7169 17.4299H24.0958C23.6974 17.4299 23.4044 17.7229 23.4044 18.1213V23.0901C23.4044 23.4885 23.6974 23.7815 24.0958 23.7815H24.7169ZM2.84973 6.37915C3.24816 6.37915 3.54113 6.08619 3.54113 5.69947V0.730713C3.54113 0.332276 3.24816 0.0393066 2.84973 0.0393066H2.22863C1.83019 0.0393066 1.53723 0.332276 1.53723 0.730713V5.69947C1.53723 6.08619 1.83019 6.37915 2.22863 6.37915H2.84973ZM2.84973 23.7698C3.24816 23.7698 3.54113 23.4768 3.54113 23.0901V18.1213C3.54113 17.7229 3.24816 17.4299 2.84973 17.4299H2.22863C1.83019 17.4299 1.53723 17.7229 1.53723 18.1213V23.0901C1.53723 23.4768 1.83019 23.7698 2.22863 23.7698H2.84973Z" fill="black" fill-opacity="0.85"/>
<path d="M14.3927 21.3088C17.9669 19.2463 19.1037 17.5002 17.9083 15.4377L10.9005 3.29714C9.67003 1.16433 6.98643 1.05886 3.76378 2.91042C0.517682 4.77371 -0.724507 7.16433 0.517681 9.29714L7.51378 21.4377C8.72081 23.5002 10.8068 23.3713 14.3927 21.3088ZM3.588 12.801L2.47472 10.8674L1.29112 11.5471C0.822368 11.8166 0.693462 12.3674 0.939556 12.8127L1.13878 13.176C1.38487 13.6096 1.94737 13.762 2.4044 13.4924L3.588 12.801Z" fill="white"/>
<path d="M14.3927 21.3088C17.9669 19.2463 19.1037 17.5002 17.9083 15.4377L10.9005 3.29714C9.67003 1.16433 6.98643 1.05886 3.76378 2.91042C0.517682 4.77371 -0.724507 7.16433 0.517681 9.29714L7.51378 21.4377C8.72081 23.5002 10.8068 23.3713 14.3927 21.3088ZM13.549 19.8791C10.8771 21.426 9.56456 21.6135 8.95518 20.5471L1.97081 8.46511C1.25597 7.22292 2.15831 5.7698 4.60753 4.35183C7.03331 2.9573 8.73253 2.91042 9.44737 4.14089L16.4318 16.2229C17.0412 17.301 16.2326 18.3323 13.549 19.8791ZM8.22862 10.6448C8.89659 10.2581 9.963 9.74245 10.3146 9.5198C10.8888 9.20339 10.9943 8.81667 10.713 8.2073L10.0802 6.83621C9.54112 5.69949 8.5919 5.69949 6.17784 7.09402C3.74034 8.50027 3.28331 9.32058 3.98643 10.3401L4.85362 11.5823C5.25206 12.1565 5.6505 12.2268 6.213 11.9104C6.55284 11.6995 7.59581 11.0198 8.22862 10.6448ZM12.5763 18.1799C14.9787 16.7854 15.5412 15.9885 14.7326 14.969L14.2755 14.3948C13.631 13.5745 12.7638 13.7034 10.6896 14.9104C8.5919 16.1057 8.05284 16.7854 8.43956 17.7581L8.70909 18.4495C9.17784 19.6565 10.1622 19.5745 12.5763 18.1799ZM12.4005 7.71511L13.5958 7.03542C14.0412 6.77761 14.2052 6.20339 13.9474 5.7698L13.7365 5.41824C13.4787 4.97292 12.9279 4.8323 12.4708 5.10183L11.2872 5.79324L12.4005 7.71511ZM3.588 12.801L2.47472 10.8674L1.29112 11.5471C0.822368 11.8166 0.693462 12.3674 0.939556 12.8127L1.13878 13.176C1.38487 13.6096 1.94737 13.762 2.4044 13.4924L3.588 12.801Z" fill="black" fill-opacity="0.85"/>
</g>
<defs>
<clipPath id="clip0_2207_17222">
<rect width="25.3642" height="23.8008" fill="white" transform="translate(0.0440674 0.0393066)"/>
</clipPath>
</defs>
</svg>
