<svg width="38" height="24" viewBox="0 0 38 24" fill="none" xmlns="http://www.w3.org/2000/svg">
<g clip-path="url(#clip0_2207_17246)">
<path d="M0.0356445 14.3713C0.0356445 15.0041 0.551269 15.2737 1.10205 14.9338L5.2622 12.4026C5.78955 12.0745 5.77783 11.4534 5.2622 11.1252L1.09033 8.57056C0.539551 8.23072 0.0356445 8.52369 0.0356445 9.14478V14.3713ZM37.9926 14.3713V9.14478C37.9926 8.52369 37.4887 8.24243 36.9262 8.57056L32.7661 11.1252C32.2504 11.4651 32.2387 12.0627 32.7661 12.4026L36.9262 14.9338C37.4887 15.262 37.9926 15.0041 37.9926 14.3713Z" fill="black" fill-opacity="0.85"/>
<path d="M7.89892 6.29712H8.52002C8.91845 6.29712 9.21142 6.00415 9.21142 5.60572V0.742432C9.21142 0.343995 8.91845 0.0510254 8.52002 0.0510254H7.89892C7.50048 0.0510254 7.20752 0.343995 7.20752 0.742432V5.60572C7.20752 6.00415 7.50048 6.29712 7.89892 6.29712ZM7.89892 14.887H8.52002C8.91845 14.887 9.21142 14.594 9.21142 14.1955V9.344C9.21142 8.94556 8.91845 8.65259 8.52002 8.65259H7.89892C7.50048 8.65259 7.20752 8.94556 7.20752 9.344V14.1955C7.20752 14.594 7.50048 14.887 7.89892 14.887ZM7.89892 23.4885H8.52002C8.91845 23.4885 9.21142 23.1955 9.21142 22.8088V17.9338C9.21142 17.5354 8.91845 17.2424 8.52002 17.2424H7.89892C7.50048 17.2424 7.20752 17.5354 7.20752 17.9338V22.8088C7.20752 23.1955 7.50048 23.4885 7.89892 23.4885ZM29.4965 6.29712H30.1294C30.5278 6.29712 30.8208 6.00415 30.8208 5.60572V0.742432C30.8208 0.343995 30.5278 0.0510254 30.1294 0.0510254H29.4965C29.1098 0.0510254 28.8168 0.343995 28.8168 0.742432V5.60572C28.8168 6.00415 29.1098 6.29712 29.4965 6.29712ZM29.4965 14.887H30.1294C30.5278 14.887 30.8208 14.594 30.8208 14.1955V9.344C30.8208 8.94556 30.5278 8.65259 30.1294 8.65259H29.4965C29.1098 8.65259 28.8168 8.94556 28.8168 9.344V14.1955C28.8168 14.594 29.1098 14.887 29.4965 14.887ZM29.4965 23.4885H30.1294C30.5278 23.4885 30.8208 23.1955 30.8208 22.8088V17.9338C30.8208 17.5354 30.5278 17.2424 30.1294 17.2424H29.4965C29.1098 17.2424 28.8168 17.5354 28.8168 17.9338V22.8088C28.8168 23.1955 29.1098 23.4885 29.4965 23.4885ZM18.9965 22.387C23.145 22.387 25.0083 21.4495 25.0083 19.0588V9.62525H25.477C26.0044 9.62525 26.4262 9.21509 26.4145 8.71119L26.4028 8.30103C26.3794 7.7854 26.0044 7.38697 25.4653 7.38697H25.0083V5.04322C25.0083 2.58228 22.7465 1.12915 19.0083 1.14087C15.2934 1.14087 13.02 2.57056 13.02 5.04322V7.38697H12.5629C12.0239 7.38697 11.6372 7.7854 11.6254 8.28931L11.6137 8.71119C11.602 9.21509 12.0239 9.62525 12.5512 9.62525H13.02V19.0588C13.02 21.4495 14.8715 22.387 18.9965 22.387ZM19.0083 20.7346C15.9145 20.7229 14.7075 20.2424 14.7075 19.012V5.05493C14.7075 3.62525 16.1958 2.81665 18.9965 2.81665C21.8325 2.81665 23.3325 3.62525 23.3325 5.04322V19.012C23.3325 20.2424 22.1137 20.7229 19.0083 20.7346ZM19.0083 10.0705C19.7465 10.0823 20.9887 10.1409 21.3872 10.1526C22.02 10.1526 22.3364 9.88306 22.395 9.20337L22.5239 7.67993C22.6294 6.44947 21.8208 5.98072 19.02 5.969C16.2192 5.969 15.3872 6.44947 15.5044 7.69165L15.645 9.19165C15.7036 9.88306 15.9848 10.1526 16.6411 10.1409C17.0512 10.1526 18.2348 10.0823 19.0083 10.0705ZM19.0083 18.7776C21.7973 18.7659 22.6879 18.3557 22.4887 17.0784L22.3833 16.3401C22.2309 15.3088 21.4223 14.9924 19.02 15.0041C16.6059 14.9924 15.7973 15.3205 15.645 16.3401L15.5395 17.0666C15.3286 18.3674 16.2309 18.7659 19.0083 18.7776Z" fill="black" fill-opacity="0.85"/>
</g>
<defs>
<clipPath id="clip0_2207_17246">
<rect width="37.957" height="23.4492" fill="white" transform="translate(0.0356445 0.0393066)"/>
</clipPath>
</defs>
</svg>
