<svg width="23" height="31" viewBox="0 0 23 31" fill="none" xmlns="http://www.w3.org/2000/svg">
<g clip-path="url(#clip0_2207_16970)">
<path d="M8.44165 30.2971C14.3597 30.2971 16.8792 28.9963 16.8792 25.8088V5.46509C16.8792 2.04322 13.7737 0.0393066 8.44165 0.0393066C3.12134 0.0393066 0.00415039 2.04322 0.00415039 5.46509V25.8088C0.00415039 28.9963 2.5354 30.2971 8.44165 30.2971ZM8.45337 12.5198C7.30493 12.5198 5.54712 12.6018 4.92603 12.6018C4.02368 12.6018 3.62524 12.2502 3.53149 11.3127L3.34399 9.03931C3.17993 7.29322 4.4104 6.59009 8.45337 6.59009C12.4846 6.59009 13.715 7.29322 13.5511 9.03931L13.3636 11.3127C13.2698 12.2502 12.883 12.6018 11.969 12.6018C11.3597 12.6018 9.53149 12.5198 8.45337 12.5198ZM8.45337 25.4221C4.37524 25.4221 3.13306 24.8127 3.39087 23.0315L3.54321 21.9299C3.74243 20.4885 4.94946 19.9963 8.45337 19.9963C11.9455 19.9963 13.1526 20.4885 13.3519 21.9299L13.5042 23.0315C13.762 24.8127 12.5198 25.4221 8.45337 25.4221ZM16.0003 8.20728V10.9612L20.3479 15.2971C20.7346 15.6838 21.344 15.6721 21.7308 15.2971C22.1058 14.9104 22.1058 14.2893 21.7308 13.9026L16.0003 8.20728Z" fill="black" fill-opacity="0.85"/>
</g>
<defs>
<clipPath id="clip0_2207_16970">
<rect width="22.0078" height="30.2695" fill="white" transform="translate(0.00415039 0.0393066)"/>
</clipPath>
</defs>
</svg>
