<svg width="42" height="19" viewBox="0 0 42 19" fill="none" xmlns="http://www.w3.org/2000/svg">
<g clip-path="url(#clip0_2207_16582)">
<path d="M3.15722 16.4075H4.98535C4.91504 16.0559 4.85644 15.6926 4.85644 15.3059C4.85644 12.7864 6.84863 10.8059 9.35644 10.8059C11.8759 10.8059 13.8564 12.7864 13.8564 15.3059C13.8564 15.6926 13.8095 16.0559 13.7275 16.4075H28.6572C28.5869 16.0559 28.5283 15.6926 28.5283 15.3059C28.5283 12.7864 30.5205 10.8059 33.0283 10.8059C35.5478 10.8059 37.5283 12.7864 37.5283 15.3059C37.5283 15.6926 37.4814 16.0559 37.3994 16.4075H38.9463C40.6338 16.4075 41.665 15.3411 41.665 13.6067V8.89576C41.665 7.25513 41.1728 5.8606 38.9931 5.18091L36.5791 4.44263C35.0556 2.62622 32.3955 0.036377 27.5556 0.036377H24.8017C19.9736 0.036377 18.0517 0.505127 15.1689 2.30982L10.4463 5.27466L5.24316 5.90747C2.00879 6.30591 0.0986328 8.16919 0.0986328 10.9583V13.2786C0.0986328 15.2708 1.21191 16.4075 3.15722 16.4075ZM9.35644 18.4348C11.1142 18.4348 12.497 17.052 12.497 15.3059C12.497 13.5598 11.1025 12.1653 9.35644 12.1653C7.62207 12.1653 6.22754 13.5598 6.22754 15.3059C6.22754 17.0403 7.62207 18.4348 9.35644 18.4348ZM33.0283 18.4348C34.7744 18.4348 36.1689 17.0403 36.1689 15.3059C36.1689 13.5598 34.7744 12.1653 33.0283 12.1653C31.3056 12.1653 29.8994 13.5716 29.8994 15.3059C29.8994 17.0403 31.2939 18.4348 33.0283 18.4348Z" fill="black" fill-opacity="0.85"/>
<path d="M15.4385 7.66528C15.4385 5.60278 16.9503 4.19653 19.1885 4.19653H26.2315C26.7471 4.19653 27.0987 4.55981 27.0987 5.04028C27.0987 5.52075 26.7471 5.84887 26.2432 5.84887H19.1885C17.9581 5.84887 17.1378 6.62231 17.1378 7.75903C17.1378 8.76684 17.9464 9.44653 19.1768 9.44653H23.9932V8.40356C23.9932 7.70043 24.4854 7.46606 25.0831 7.86449L27.8839 9.70434C28.3526 10.0325 28.3292 10.595 27.8839 10.8762L25.0714 12.7278C24.4737 13.1145 23.9932 12.8684 23.9932 12.1887V11.0872H19.1768C16.9503 11.0872 15.4385 9.71606 15.4385 7.66528Z" fill="white"/>
</g>
<defs>
<clipPath id="clip0_2207_16582">
<rect width="41.5664" height="18.5977" fill="white" transform="translate(0.0986328 0.036377)"/>
</clipPath>
</defs>
</svg>
