<svg width="32" height="22" viewBox="0 0 32 22" fill="none" xmlns="http://www.w3.org/2000/svg">
<g clip-path="url(#clip0_2207_17368)">
<path d="M30.1787 18.6252C31.0108 18.6252 31.7139 17.9455 31.7139 17.1487C31.7139 16.3401 31.0225 15.6721 30.1787 15.6721C29.3233 15.6721 28.6436 16.3401 28.6436 17.1487C28.6436 17.9455 29.3467 18.6252 30.1787 18.6252ZM30.1787 13.4221C30.7529 13.4221 31.1514 13.0237 31.1748 12.426L31.4209 4.12914C31.4444 3.37914 30.9522 2.87524 30.1787 2.87524C29.4053 2.87524 28.9014 3.37914 28.9248 4.12914L29.1709 12.426C29.1944 13.0237 29.6045 13.4221 30.1787 13.4221Z" fill="black" fill-opacity="0.85"/>
<path d="M21.249 21.4963C23.7217 21.4963 24.9287 20.3245 24.9287 17.8752V12.1448C24.9287 10.469 24.46 9.56665 23.1123 8.54712L14.0069 1.62134C12.46 0.461182 11.2647 0.0510254 9.35449 0.0510254H3.6709C1.30371 0.0510254 0.0966797 1.24634 0.0966797 3.59009V17.8752C0.0966797 20.3245 1.29199 21.4963 3.77637 21.4963H21.249ZM21.1787 10.6916H3.70606C2.62793 10.6916 1.9834 10.0705 1.9834 8.94556V3.68384C1.9834 2.54712 2.61621 1.93775 3.70606 1.93775H9.35449C10.8545 1.93775 11.7217 2.19556 12.7178 2.99243L21.4483 9.67212C21.9287 10.0237 21.7998 10.6916 21.1787 10.6916Z" fill="black" fill-opacity="0.85"/>
</g>
<defs>
<clipPath id="clip0_2207_17368">
<rect width="31.6172" height="21.457" fill="white" transform="translate(0.0966797 0.0393066)"/>
</clipPath>
</defs>
</svg>
