<svg width="23" height="31" viewBox="0 0 23 31" fill="none" xmlns="http://www.w3.org/2000/svg">
<g clip-path="url(#clip0_2207_17146)">
<path d="M2.99413 27.4729C4.7871 29.2776 7.07225 30.4143 9.55663 30.4143C10.1542 30.4143 10.5644 30.0276 10.5644 29.4768C10.5644 28.9729 10.166 28.6448 9.49804 28.5979C7.57616 28.4807 5.70116 27.6838 4.23632 26.2307C2.78319 24.7659 1.98632 22.9026 1.86913 20.969C1.81054 20.219 1.50585 19.926 0.919906 19.926C0.462874 19.926 0.0175622 20.2541 0.0644372 20.8987C0.216781 23.3831 1.17772 25.6799 2.99413 27.4729Z" fill="black" fill-opacity="0.85"/>
<path d="M5.90038 24.5549C7.10741 25.762 8.74804 26.3596 9.75585 26.3596C10.3066 26.3596 10.6816 26.0081 10.6816 25.5041C10.6816 25.0354 10.3535 24.6604 9.62694 24.5549C8.7246 24.4612 7.88085 24.0393 7.14257 23.3127C6.43944 22.5979 6.02929 21.7307 5.90038 20.7346C5.79491 20.0784 5.5371 19.8088 4.96288 19.8088C4.44725 19.8088 4.0371 20.2073 4.11913 20.8401C4.27147 22.2698 4.88085 23.5354 5.90038 24.5549Z" fill="black" fill-opacity="0.85"/>
<path d="M14.9238 23.1135C19.4238 23.1135 21.4277 22.094 21.4277 19.5041V4.29322C21.4277 1.62134 18.9667 0.0393066 14.9238 0.0393066C10.8574 0.0393066 8.39648 1.62134 8.39648 4.29322V19.5041C8.39648 22.094 10.4121 23.1135 14.9238 23.1135ZM14.9238 21.2854C11.5488 21.2854 10.2363 20.7698 10.2363 19.4455V4.29322C10.2363 2.75806 11.8652 1.89087 14.9238 1.89087C17.9589 1.89087 19.5761 2.75806 19.5761 4.29322V19.4455C19.5761 20.7698 18.2753 21.2854 14.9238 21.2854ZM14.9121 9.75415C15.7558 9.75415 17.0332 9.82447 17.4785 9.82447C18.1816 9.82447 18.5097 9.5315 18.5683 8.79322L18.7089 7.15259C18.8261 5.80493 17.9355 5.28931 14.9121 5.28931C11.8886 5.28931 10.998 5.80493 11.1152 7.15259L11.2558 8.79322C11.3144 9.5315 11.6425 9.82447 12.3457 9.82447C12.7792 9.82447 14.1152 9.75415 14.9121 9.75415ZM14.9121 19.1643C17.9355 19.1643 18.8964 18.719 18.6738 17.3245L18.5566 16.5276C18.3808 15.4143 17.5136 15.0627 14.9121 15.0627C12.3105 15.0627 11.4433 15.4143 11.2675 16.5276L11.1386 17.3245C10.9277 18.719 11.8886 19.1643 14.9121 19.1643ZM20.4316 9.27369H21.9316C22.5175 9.27369 22.9628 8.82837 22.9628 8.27759V7.83228C22.9628 7.26978 22.5175 6.83619 21.9316 6.83619H20.4316V9.27369ZM9.39258 9.27369V6.83619H7.89258C7.30664 6.83619 6.86133 7.26978 6.86133 7.83228V8.27759C6.86133 8.82837 7.30664 9.27369 7.89258 9.27369H9.39258Z" fill="black" fill-opacity="0.85"/>
</g>
<defs>
<clipPath id="clip0_2207_17146">
<rect width="22.9018" height="30.3867" fill="white" transform="translate(0.0610352 0.0393066)"/>
</clipPath>
</defs>
</svg>
