<svg width="42" height="22" viewBox="0 0 42 22" fill="none" xmlns="http://www.w3.org/2000/svg">
<g clip-path="url(#clip0_2207_16587)">
<path d="M3.05859 17.7097H6.64453V15.823H3.16406C2.33203 15.823 1.88672 15.3073 1.88672 14.3464V12.2605C1.88672 10.5026 3.12891 9.36596 5.39062 9.08472L10.9922 8.38159L16.0781 5.21753C18.668 3.61206 20.2266 3.22534 24.7031 3.22534H27.457C30.6445 3.22534 33.2227 4.54956 35.4375 7.63159L38.3086 8.38159C39.3867 8.65112 39.6797 9.29565 39.6797 10.198V14.4519C39.6797 15.3073 39.2461 15.823 38.5078 15.823H35.6016V17.7097H38.8477C40.5352 17.7097 41.5664 16.6433 41.5664 14.9206V10.198C41.5664 8.55737 41.0742 7.16284 38.8945 6.48315L36.4805 5.74487C34.957 3.92846 32.2969 1.33862 27.457 1.33862H24.7031C19.875 1.33862 17.9531 1.80737 15.0703 3.61206L10.3477 6.5769L5.14453 7.20972C1.91016 7.60815 0 9.47143 0 12.2605V14.5808C0 16.573 1.11328 17.7097 3.05859 17.7097ZM12.1289 17.7097H30.2109V15.823H12.1289V17.7097ZM9.31641 20.3816C11.5664 20.3816 13.3242 18.6237 13.3242 16.3737C13.3242 14.1237 11.5664 12.3659 9.31641 12.3659C7.06641 12.3659 5.30859 14.1237 5.30859 16.3737C5.30859 18.6237 7.06641 20.3816 9.31641 20.3816ZM9.31641 18.4948C8.12109 18.4948 7.19531 17.569 7.19531 16.3737C7.19531 15.1784 8.12109 14.2526 9.31641 14.2526C10.5117 14.2526 11.4375 15.1784 11.4375 16.3737C11.4375 17.569 10.5117 18.4948 9.31641 18.4948ZM32.9883 20.3816C35.2383 20.3816 36.9961 18.6237 36.9961 16.3737C36.9961 14.1237 35.2383 12.3659 32.9883 12.3659C30.7383 12.3659 28.9805 14.1237 28.9805 16.3737C28.9805 18.6237 30.7383 20.3816 32.9883 20.3816ZM32.9883 18.4948C31.793 18.4948 30.8672 17.569 30.8672 16.3737C30.8672 15.1784 31.793 14.2526 32.9883 14.2526C34.1836 14.2526 35.1094 15.1784 35.1094 16.3737C35.1094 17.569 34.1836 18.4948 32.9883 18.4948Z" fill="black" fill-opacity="0.85"/>
<path d="M3.45703 4.65503H6.33984C7.25391 4.65503 7.3125 4.7019 7.69922 5.20581L10.8516 9.34253C12.1172 11.0183 13.6406 11.7917 15.7148 11.7917H20.6953C21.9727 11.7917 23.0039 10.7605 23.0039 9.48315C23.0039 8.20581 21.9727 7.17456 20.6953 7.17456H15.7148C15.0586 7.17456 15 7.15112 14.6836 6.75268L11.3555 2.39331C10.0898 0.729248 8.51953 0.0378418 6.33984 0.0378418H3.45703C2.19141 0.0378418 1.14844 1.08081 1.14844 2.34643C1.14844 3.62378 2.19141 4.65503 3.45703 4.65503Z" fill="white"/>
<path d="M3.45703 3.29566H6.33984C7.64062 3.29566 8.13281 3.51832 8.78906 4.37379L11.9414 8.53394C12.9492 9.85816 14.0742 10.4323 15.7148 10.4323H18.2812V11.4401C18.2812 12.2605 19.0078 12.5066 19.6172 12.1081L22.5703 10.2097C23.1328 9.84644 23.1445 9.14332 22.5586 8.76832L19.6289 6.8816C19.0078 6.47144 18.2812 6.71754 18.2812 7.54957V8.54566H15.7148C14.6133 8.54566 14.168 8.29957 13.4414 7.36207L10.2656 3.22535C9.28125 1.92457 8.12109 1.40894 6.33984 1.40894H3.45703C2.94141 1.40894 2.51953 1.83082 2.51953 2.34644C2.51953 2.86207 2.94141 3.29566 3.45703 3.29566Z" fill="black" fill-opacity="0.85"/>
</g>
<defs>
<clipPath id="clip0_2207_16587">
<rect width="41.5664" height="21.668" fill="white" transform="translate(0 0.0378418)"/>
</clipPath>
</defs>
</svg>
