<svg width="42" height="20" viewBox="0 0 42 20" fill="none" xmlns="http://www.w3.org/2000/svg">
<g clip-path="url(#clip0_2207_16619)">
<path d="M3.07129 16.4089H6.65723V14.5222H3.17676C2.34473 14.5222 1.89942 14.0066 1.89942 13.0456V10.9597C1.89942 9.2019 3.14161 8.06518 5.40332 7.78393L11.0049 7.08081L16.0908 3.91675C18.6807 2.31128 20.2393 1.92456 24.7158 1.92456H27.4697C30.6572 1.92456 33.2354 3.24878 35.4502 6.33081L38.3213 7.08081C39.3994 7.35034 39.6924 7.99487 39.6924 8.89722V13.1511C39.6924 14.0066 39.2588 14.5222 38.5205 14.5222H35.6143V16.4089H38.8604C40.5479 16.4089 41.5791 15.3425 41.5791 13.6198V8.89722C41.5791 7.25659 41.0869 5.86206 38.9072 5.18237L36.4932 4.44409C34.9697 2.62768 32.3096 0.0378418 27.4697 0.0378418H24.7158C19.8877 0.0378418 17.9658 0.506592 15.083 2.31128L10.3604 5.27612L5.15723 5.90893C1.92286 6.30737 0.0126953 8.17065 0.0126953 10.9597V13.28C0.0126953 15.2722 1.12598 16.4089 3.07129 16.4089ZM12.1416 16.4089H30.2236V14.5222H12.1416V16.4089ZM9.32911 19.0808C11.5791 19.0808 13.3369 17.323 13.3369 15.073C13.3369 12.823 11.5791 11.0651 9.32911 11.0651C7.07911 11.0651 5.32129 12.823 5.32129 15.073C5.32129 17.323 7.07911 19.0808 9.32911 19.0808ZM9.32911 17.194C8.13379 17.194 7.20801 16.2683 7.20801 15.073C7.20801 13.8776 8.13379 12.9519 9.32911 12.9519C10.5244 12.9519 11.4502 13.8776 11.4502 15.073C11.4502 16.2683 10.5244 17.194 9.32911 17.194ZM33.001 19.0808C35.251 19.0808 37.0088 17.323 37.0088 15.073C37.0088 12.823 35.251 11.0651 33.001 11.0651C30.751 11.0651 28.9932 12.823 28.9932 15.073C28.9932 17.323 30.751 19.0808 33.001 19.0808ZM33.001 17.194C31.8057 17.194 30.8799 16.2683 30.8799 15.073C30.8799 13.8776 31.8057 12.9519 33.001 12.9519C34.1963 12.9519 35.1221 13.8776 35.1221 15.073C35.1221 16.2683 34.1963 17.194 33.001 17.194Z" fill="black" fill-opacity="0.85"/>
<path d="M18.6221 12.7293H23.8486C24.4697 12.7293 24.7627 12.2254 24.4229 11.6746L21.8682 7.50269C21.5518 6.98707 20.9189 6.97535 20.6025 7.50269L18.0596 11.6629C17.7197 12.2137 17.9893 12.7293 18.6221 12.7293Z" fill="black" fill-opacity="0.85"/>
</g>
<defs>
<clipPath id="clip0_2207_16619">
<rect width="41.5664" height="19.0664" fill="white" transform="translate(0.0126953 0.0378418)"/>
</clipPath>
</defs>
</svg>
