<svg width="42" height="19" viewBox="0 0 42 19" fill="none" xmlns="http://www.w3.org/2000/svg">
<g clip-path="url(#clip0_2207_16624)">
<path d="M3.07739 16.4089H4.90552C4.83521 16.0573 4.77661 15.694 4.77661 15.3073C4.77661 12.7878 6.7688 10.8073 9.27661 10.8073C11.7961 10.8073 13.7766 12.7878 13.7766 15.3073C13.7766 15.694 13.7297 16.0573 13.6477 16.4089H28.5774C28.5071 16.0573 28.4485 15.694 28.4485 15.3073C28.4485 12.7878 30.4407 10.8073 32.9485 10.8073C35.468 10.8073 37.4485 12.7878 37.4485 15.3073C37.4485 15.694 37.4016 16.0573 37.3196 16.4089H38.8665C40.554 16.4089 41.5852 15.3425 41.5852 13.6081V8.89722C41.5852 7.25659 41.093 5.86206 38.9133 5.18237L36.4993 4.44409C34.9758 2.62768 32.3157 0.0378418 27.4758 0.0378418H24.7219C19.8938 0.0378418 17.9719 0.506592 15.0891 2.31128L10.3665 5.27612L5.16333 5.90893C1.92896 6.30737 0.0187988 8.17065 0.0187988 10.9597V13.28C0.0187988 15.2722 1.13208 16.4089 3.07739 16.4089ZM9.27661 18.4362C11.0344 18.4362 12.4172 17.0534 12.4172 15.3073C12.4172 13.5612 11.0227 12.1667 9.27661 12.1667C7.54224 12.1667 6.14771 13.5612 6.14771 15.3073C6.14771 17.0417 7.54224 18.4362 9.27661 18.4362ZM32.9485 18.4362C34.6946 18.4362 36.0891 17.0417 36.0891 15.3073C36.0891 13.5612 34.6946 12.1667 32.9485 12.1667C31.2258 12.1667 29.8196 13.573 29.8196 15.3073C29.8196 17.0417 31.2141 18.4362 32.9485 18.4362Z" fill="black" fill-opacity="0.85"/>
<path d="M18.6282 12.9637C17.9954 12.9637 17.7258 12.4481 18.0657 11.8973L20.6086 7.73707C20.925 7.20973 21.5579 7.22144 21.8743 7.73707L24.429 11.909C24.7688 12.4598 24.4758 12.9637 23.8547 12.9637H18.6282Z" fill="white"/>
</g>
<defs>
<clipPath id="clip0_2207_16624">
<rect width="41.5664" height="18.5977" fill="white" transform="translate(0.0187988 0.0378418)"/>
</clipPath>
</defs>
</svg>
