<svg width="27" height="28" viewBox="0 0 27 28" fill="none" xmlns="http://www.w3.org/2000/svg">
<g clip-path="url(#clip0_2207_21255)">
<path d="M19.1911 7.53977C21.0426 6.35618 22.9411 1.02415 20.8551 0.508527C18.7106 0.0163399 18.0426 5.65306 19.1911 7.53977ZM19.4723 7.99681C22.1911 8.00852 27.7458 3.56712 25.8239 1.63352C23.902 -0.288347 19.4606 5.26634 19.4723 7.99681ZM19.9293 8.26634C21.8043 9.43821 27.4528 8.74681 26.9606 6.63743C26.4567 4.51634 21.1129 6.42649 19.9293 8.26634ZM19.6481 6.73118C16.6598 3.69602 12.7106 4.45774 10.1793 8.47727L0.394189 24.028C-0.262061 25.0827 0.00746936 26.0202 0.698876 26.7116C1.29653 27.321 2.2106 27.7077 3.34731 26.9929L18.9333 17.2077C22.9293 14.6999 23.6442 10.7858 20.6559 7.75071L19.6481 6.73118ZM18.4059 7.98509L19.402 9.00462C21.6168 11.2546 21.2184 13.6687 18.0192 15.6843L2.45669 25.4577C2.06997 25.7038 1.67153 25.3171 1.91763 24.9421L11.7028 9.37962C13.7301 6.16868 16.1793 5.74681 18.4059 7.98509ZM14.7379 11.6413C15.0309 11.3366 15.0309 10.8796 14.7145 10.5632L11.984 7.8679L10.9176 8.98118L13.6481 11.653C13.9645 11.9694 14.4333 11.9577 14.7379 11.6413ZM12.0778 13.2937C12.3825 12.989 12.3825 12.5202 12.0661 12.2038L9.8981 10.0827L8.83169 11.1843L10.9879 13.2937C11.3043 13.6101 11.7614 13.5983 12.0778 13.2937ZM9.45278 18.2038C9.15981 18.5085 9.1481 18.9773 9.4645 19.2937L11.3747 21.1452L12.7106 20.3132L10.5426 18.1921C10.2379 17.8874 9.76919 17.8991 9.45278 18.2038ZM7.36685 20.3835C7.06216 20.6882 7.06216 21.1687 7.37856 21.4733L8.70278 22.7976L10.0622 21.9655L8.45669 20.3835C8.14028 20.0671 7.67153 20.0788 7.36685 20.3835Z" fill="black" fill-opacity="0.85"/>
</g>
<defs>
<clipPath id="clip0_2207_21255">
<rect width="26.9721" height="27.3384" fill="white" transform="translate(0.0187988 0.0405273)"/>
</clipPath>
</defs>
</svg>
