<svg width="27" height="25" viewBox="0 0 27 25" fill="none" xmlns="http://www.w3.org/2000/svg">
<g clip-path="url(#clip0_2207_16471)">
<path d="M26.4036 19.8803C27.3645 16.3764 24.8099 14.853 18.5403 14.853C15.5872 14.853 12.6106 15.0991 10.0442 15.5444L10.595 16.2358C10.97 11.2553 9.52858 7.09522 6.79811 5.16162L7.02077 6.29834C8.08718 2.65381 5.84889 0.0405273 3.09499 0.0405273C0.821554 0.0405273 -0.397196 1.68115 0.247336 4.28272L4.65358 22.1655C5.08718 23.9233 6.24733 24.8608 7.96999 24.8608H21.8919C24.3059 24.8608 25.3724 23.7007 26.4036 19.8803ZM24.5989 19.3764C23.7434 22.5522 23.2044 22.9741 21.8919 22.9741H7.96999C7.19655 22.9741 6.69264 22.5288 6.49343 21.7085L2.05202 3.79053C1.77077 2.64209 2.23952 1.92725 3.10671 1.92725C4.44264 1.92725 5.66139 3.146 5.33327 5.34912C5.21608 6.146 5.29811 6.38037 5.74343 6.74365C7.80593 8.27881 8.96608 11.8296 8.87233 16.2358C8.87233 16.9507 9.31764 17.4077 10.0325 17.396C11.3684 17.3022 14.3684 16.7397 18.5403 16.7397C23.6849 16.7397 25.1028 17.5014 24.5989 19.3764Z" fill="black" fill-opacity="0.85"/>
<path d="M21.0013 10.8803C23.1341 10.8803 24.5755 9.75537 24.5755 8.06787C24.5755 6.86084 23.6731 5.89991 22.4309 5.74756C23.4388 5.5835 24.2474 4.646 24.2474 3.55615C24.2474 2.11475 22.9231 1.06006 21.0833 1.06006C19.4075 1.06006 18.1419 1.84522 17.8372 3.09912C17.8138 3.23975 17.802 3.3335 17.802 3.50928C17.802 3.90772 18.095 4.20069 18.5286 4.20069C18.9036 4.20069 19.138 4.02491 19.2669 3.64991C19.4895 2.86475 20.1575 2.41944 21.0599 2.41944C22.0442 2.41944 22.677 2.91162 22.677 3.72022C22.677 4.55225 21.9622 5.16162 21.013 5.16162H20.3684C19.9817 5.16162 19.7005 5.41944 19.7005 5.81787C19.7005 6.20459 19.9817 6.48584 20.3684 6.48584H21.0716C22.22 6.48584 23.0052 7.09522 23.0052 8.00928C23.0052 8.89991 22.2083 9.50928 21.0247 9.50928C20.052 9.50928 19.3489 9.07569 19.0794 8.27881C18.927 7.91553 18.7044 7.75147 18.3411 7.75147C17.9192 7.75147 17.6145 8.04444 17.6145 8.46631C17.6145 8.61865 17.6263 8.68897 17.6497 8.82959C17.9309 10.0366 19.3138 10.8803 21.0013 10.8803Z" fill="black" fill-opacity="0.85"/>
</g>
<defs>
<clipPath id="clip0_2207_16471">
<rect width="26.5244" height="24.8555" fill="white" transform="translate(0.0756836 0.0405273)"/>
</clipPath>
</defs>
</svg>
