<svg width="27" height="34" viewBox="0 0 27 34" fill="none" xmlns="http://www.w3.org/2000/svg">
<g clip-path="url(#clip0_2207_16487)">
<path d="M0.251174 19.8686C1.28243 23.6889 2.34883 24.8608 4.7629 24.8608H18.4387C20.1731 24.8608 21.3332 23.9116 21.7668 22.1538L26.1731 4.271C26.8879 1.36475 25.4348 0.0405273 23.7473 0.0405273C21.509 0.0405273 19.0715 2.43115 20.4426 6.29834L20.7824 4.86865C17.2551 6.7085 15.6496 11.0093 16.2942 16.2358L16.716 15.6616C14.302 15.146 11.1496 14.8413 8.11446 14.8413C1.84493 14.8413 -0.709764 16.3647 0.251174 19.8686Z" fill="black" fill-opacity="0.85"/>
<path d="M14.6184 33.0053C14.6184 33.6382 15.134 33.9077 15.6848 33.5678L19.8449 31.0366C20.3723 30.7085 20.3606 30.0874 19.8449 29.771L15.6731 27.2163C15.1223 26.8764 14.6184 27.1694 14.6184 27.7905V33.0053Z" fill="black" fill-opacity="0.85"/>
<path d="M8.53638 33.0053V27.7905C8.53638 27.1694 8.03248 26.8764 7.4817 27.2163L3.32154 29.771C2.7942 30.0874 2.78248 30.7085 3.32154 31.0366L7.4817 33.5678C8.03248 33.9077 8.53638 33.6382 8.53638 33.0053Z" fill="black" fill-opacity="0.85"/>
</g>
<defs>
<clipPath id="clip0_2207_16487">
<rect width="26.3049" height="33.8789" fill="white" transform="translate(0.0546875 0.0405273)"/>
</clipPath>
</defs>
</svg>
