<svg width="27" height="33" viewBox="0 0 27 33" fill="none" xmlns="http://www.w3.org/2000/svg">
<g clip-path="url(#clip0_2207_16547)">
<path d="M26.1126 19.8701C27.0736 16.3662 24.5306 14.8428 18.2493 14.8428C15.2141 14.8428 12.0619 15.1357 9.64775 15.6514L10.0697 16.2373C10.7142 10.999 9.10869 6.69824 5.58134 4.8584L5.92119 6.28808C7.29228 2.43261 4.85478 0.0419922 2.6165 0.0419922C0.929001 0.0419922 -0.524123 1.35449 0.190719 4.26074L4.59697 22.1436C5.03056 23.9131 6.19072 24.8506 7.92509 24.8506H21.6009C24.015 24.8506 25.0814 23.6904 26.1126 19.8701Z" fill="black" fill-opacity="0.85"/>
<path d="M20.0541 26.6436H14.8392C14.2181 26.6436 13.9251 27.1592 14.265 27.71L16.8197 31.8701C17.1361 32.3858 17.7455 32.4092 18.0853 31.8701L20.6166 27.71C20.9447 27.1592 20.6869 26.6436 20.0541 26.6436Z" fill="black" fill-opacity="0.85"/>
<path d="M20.0541 13.0615C20.6869 13.0615 20.9564 12.5576 20.6166 12.0068L18.0853 7.8467C17.7572 7.30763 17.1361 7.31935 16.8197 7.8467L14.265 12.0068C13.9251 12.5576 14.2181 13.0615 14.8392 13.0615H20.0541Z" fill="black" fill-opacity="0.85"/>
</g>
<defs>
<clipPath id="clip0_2207_16547">
<rect width="26.3055" height="32.4258" fill="white" transform="translate(0.00415039 0.0419922)"/>
</clipPath>
</defs>
</svg>
