<svg width="27" height="25" viewBox="0 0 27 25" fill="none" xmlns="http://www.w3.org/2000/svg">
<g clip-path="url(#clip0_2207_16377)">
<path d="M15.2569 13.3413C15.2569 14.8882 13.874 15.7436 13.874 16.7749C13.874 17.3843 14.0264 17.7007 14.4131 18.2163C14.9756 18.9663 13.9209 19.7163 13.3584 19.0014C12.8076 18.31 12.5733 17.6655 12.5733 16.8569C12.5733 15.2749 13.9326 14.478 13.9326 13.3413C13.9326 12.1928 12.5733 11.4077 12.5733 9.81397C12.5733 9.02881 12.8076 8.38428 13.3701 7.68115C13.9326 6.95459 14.9873 7.70459 14.4248 8.45459C14.0264 8.98194 13.874 9.31006 13.874 9.896C13.874 10.9507 15.2569 11.8061 15.2569 13.3413ZM19.0069 13.3413C19.0069 14.8882 17.624 15.7436 17.624 16.7749C17.624 17.3843 17.7881 17.7007 18.1748 18.2163C18.7256 18.9663 17.6826 19.7163 17.1201 19.0014C16.5694 18.31 16.3233 17.6655 16.3233 16.8569C16.3233 15.2749 17.6826 14.478 17.6826 13.3413C17.6826 12.1928 16.3233 11.4077 16.3233 9.81397C16.3233 9.02881 16.5694 8.38428 17.1319 7.68115C17.6944 6.95459 18.7373 7.70459 18.1748 8.45459C17.7881 8.98194 17.624 9.31006 17.624 9.896C17.624 10.9507 19.0069 11.8061 19.0069 13.3413ZM22.7686 13.3413C22.7686 14.8882 21.3858 15.7436 21.3858 16.7749C21.3858 17.3843 21.5381 17.7007 21.9248 18.2163C22.4873 18.9663 21.4326 19.7163 20.8819 19.0014C20.3194 18.31 20.085 17.6655 20.085 16.8569C20.085 15.2749 21.4444 14.478 21.4444 13.3413C21.4444 12.1928 20.085 11.4077 20.085 9.81397C20.085 9.02881 20.3194 8.38428 20.8819 7.68115C21.4444 6.95459 22.499 7.70459 21.9365 8.45459C21.5381 8.98194 21.3858 9.31006 21.3858 9.896C21.3858 10.9507 22.7686 11.8061 22.7686 13.3413ZM26.1904 19.8686C27.1514 16.3647 24.6084 14.8413 18.3272 14.8413C15.292 14.8413 12.1397 15.146 9.72563 15.6499L10.1475 16.2358C10.792 10.9975 9.18657 6.7085 5.65922 4.85694L5.99907 6.29834C7.37016 2.43115 4.93266 0.0405273 2.69438 0.0405273C1.00688 0.0405273 -0.446243 1.35303 0.2686 4.271L4.67485 22.1538C5.10844 23.9116 6.2686 24.8491 8.00297 24.8491H21.6787C24.0928 24.8491 25.1592 23.6889 26.1904 19.8686Z" fill="black" fill-opacity="0.85"/>
</g>
<defs>
<clipPath id="clip0_2207_16377">
<rect width="26.3055" height="24.832" fill="white" transform="translate(0.0820312 0.0405273)"/>
</clipPath>
</defs>
</svg>
