<svg width="27" height="25" viewBox="0 0 27 25" fill="none" xmlns="http://www.w3.org/2000/svg">
<g clip-path="url(#clip0_2207_16401)">
<path d="M0.242629 19.8803C1.27388 23.7007 2.34028 24.8608 4.75435 24.8608H18.6645C20.3988 24.8608 21.559 23.9233 21.9926 22.1655L26.3988 4.28272C27.0434 1.68115 25.8246 0.0405273 23.5395 0.0405273C20.7856 0.0405273 18.559 2.65381 19.6254 6.29834L19.8481 5.16162C17.1176 7.09522 15.6762 11.2553 16.0512 16.2358L16.5902 15.5444C14.0356 15.0991 11.059 14.853 8.10591 14.853C1.83638 14.853 -0.718309 16.3764 0.242629 19.8803ZM2.04731 19.3764C1.53169 17.5014 2.96138 16.7397 8.10591 16.7397C12.2777 16.7397 15.2777 17.3022 16.6137 17.396C17.3285 17.4077 17.7738 16.9507 17.7621 16.2358C17.6801 11.8296 18.8402 8.27881 20.891 6.74365C21.3363 6.38037 21.4301 6.146 21.3012 5.34912C20.9848 3.146 22.2035 1.92725 23.5395 1.92725C24.4066 1.92725 24.8754 2.64209 24.5941 3.79053L20.1527 21.7085C19.9535 22.5288 19.4496 22.9741 18.6645 22.9741H4.75435C3.44185 22.9741 2.90278 22.5522 2.04731 19.3764Z" fill="black" fill-opacity="0.85"/>
<path d="M1.49658 7.8335C1.49658 9.55615 3.0669 11.2905 4.52002 11.2905C5.85596 11.2905 6.52393 10.0952 7.33252 7.97412L7.62549 7.91553V10.2007C7.62549 11.185 8.14111 11.6889 9.09033 11.6889C10.8013 11.6889 12.5474 10.1303 12.5474 8.66553C12.5474 7.31787 11.3403 6.64991 9.21924 5.84131L9.16065 5.54834H11.4458C12.4302 5.54834 12.9341 5.04444 12.9341 4.09522C12.9341 2.37256 11.3755 0.626465 9.91065 0.626465C8.57471 0.626465 7.89502 1.84522 7.09815 3.97803L6.79346 4.01319V1.72803C6.79346 0.755371 6.30127 0.239746 5.35205 0.239746C3.61768 0.239746 1.8833 1.81006 1.8833 3.26319C1.8833 4.59912 3.10205 5.26709 5.23486 6.07569L5.2583 6.38037H2.98486C2.00049 6.38037 1.49658 6.896 1.49658 7.8335ZM6.04346 5.9585C6.04346 5.31397 6.55908 4.78662 7.21533 4.78662C7.85986 4.78662 8.38721 5.31397 8.38721 5.9585C8.38721 6.61475 7.85986 7.13037 7.21533 7.13037C6.5708 7.13037 6.04346 6.61475 6.04346 5.9585Z" fill="black" fill-opacity="0.85"/>
</g>
<defs>
<clipPath id="clip0_2207_16401">
<rect width="26.5243" height="24.8555" fill="white" transform="translate(0.0461426 0.0405273)"/>
</clipPath>
</defs>
</svg>
