<svg width="27" height="25" viewBox="0 0 27 25" fill="none" xmlns="http://www.w3.org/2000/svg">
<g clip-path="url(#clip0_2207_16476)">
<path d="M26.186 19.8686C27.147 16.3647 24.604 14.8413 18.3228 14.8413C15.2876 14.8413 12.1353 15.146 9.72124 15.6499L10.1431 16.2358C10.7876 10.9975 9.18218 6.7085 5.65483 4.85694L5.99468 6.29834C7.36577 2.43115 4.92827 0.0405273 2.68999 0.0405273C1.00249 0.0405273 -0.450637 1.35303 0.264206 4.271L4.67046 22.1538C5.10405 23.9116 6.26421 24.8491 7.99858 24.8491H21.6743C24.0884 24.8491 25.1548 23.6889 26.186 19.8686Z" fill="black" fill-opacity="0.85"/>
<path d="M20.7954 10.7514C22.9282 10.7514 24.3696 9.62647 24.3696 7.93897C24.3696 6.73194 23.4673 5.771 22.2251 5.61865C23.2329 5.45459 24.0415 4.51709 24.0415 3.42725C24.0415 1.98584 22.7173 0.931152 20.8775 0.931152C19.2017 0.931152 17.936 1.71631 17.6314 2.97022C17.6079 3.11084 17.5962 3.20459 17.5962 3.38037C17.5962 3.77881 17.8892 4.07178 18.3228 4.07178C18.6978 4.07178 18.9321 3.896 19.061 3.521C19.2837 2.73584 19.9517 2.29053 20.854 2.29053C21.8384 2.29053 22.4712 2.78272 22.4712 3.59131C22.4712 4.42334 21.7564 5.03272 20.8071 5.03272H20.1626C19.7876 5.03272 19.4946 5.30225 19.4946 5.68897C19.4946 6.07569 19.7759 6.35694 20.1626 6.35694H20.8775C22.0142 6.35694 22.7993 6.96631 22.7993 7.88037C22.7993 8.771 22.0025 9.38037 20.8189 9.38037C19.8462 9.38037 19.1431 8.94678 18.8735 8.14991C18.7212 7.78662 18.4985 7.62256 18.1353 7.62256C17.7134 7.62256 17.4087 7.91553 17.4087 8.33741C17.4087 8.48975 17.4204 8.56006 17.4439 8.70069C17.7251 9.90772 19.1079 10.7514 20.7954 10.7514Z" fill="black" fill-opacity="0.85"/>
</g>
<defs>
<clipPath id="clip0_2207_16476">
<rect width="26.3055" height="24.832" fill="white" transform="translate(0.0776367 0.0405273)"/>
</clipPath>
</defs>
</svg>
