<svg width="27" height="29" viewBox="0 0 27 29" fill="none" xmlns="http://www.w3.org/2000/svg">
<g clip-path="url(#clip0_2207_16396)">
<path d="M26.1084 21.7488C27.0694 18.2449 24.5264 16.7215 18.2452 16.7215C15.21 16.7215 12.0577 17.0262 9.6436 17.5301L10.0655 18.116C10.71 12.8777 9.10454 8.58869 5.57719 6.73711L5.91704 8.17853C7.28813 4.31134 4.85063 1.92072 2.61235 1.92072C0.924851 1.92072 -0.528274 3.23322 0.186569 6.15119L4.59282 24.034C5.02641 25.7918 6.18657 26.7293 7.92094 26.7293H21.5967C24.0108 26.7293 25.0772 25.5691 26.1084 21.7488Z" fill="black" fill-opacity="0.85"/>
<path d="M9.56158 4.13554C9.49127 4.4871 9.63189 4.76835 9.9483 4.89726C10.335 5.02617 10.7334 4.82695 10.8038 4.41679C11.0616 2.65898 10.1944 0.854293 8.75299 0.13945C8.29595 -0.0949256 7.93267 0.127731 7.80377 0.444137C7.6983 0.748824 7.78033 1.08867 8.10845 1.26445C9.17486 1.75663 9.72564 2.90507 9.56158 4.13554ZM12.7725 13.077C12.6436 13.534 12.878 13.827 13.1827 13.909C13.5108 13.991 13.9092 13.8387 14.0147 13.4402C14.6124 11.202 13.6749 7.9207 11.2256 6.76054C10.7803 6.5496 10.4405 6.71367 10.2881 6.9832C10.1475 7.26445 10.1827 7.66288 10.6045 7.88554C12.6788 8.9871 13.2413 11.366 12.7725 13.077Z" fill="black" fill-opacity="0.85"/>
</g>
<defs>
<clipPath id="clip0_2207_16396">
<rect width="26.3055" height="28.5894" fill="white" transform="translate(0 0.0419922)"/>
</clipPath>
</defs>
</svg>
