<svg width="27" height="25" viewBox="0 0 27 25" fill="none" xmlns="http://www.w3.org/2000/svg">
<g clip-path="url(#clip0_2207_16441)">
<path d="M0.225906 19.8803C1.25716 23.7007 2.32356 24.8608 4.73763 24.8608H18.6478C20.3821 24.8608 21.5423 23.9233 21.9759 22.1655L26.3821 4.28272C27.0267 1.68115 25.8079 0.0405273 23.5228 0.0405273C20.7689 0.0405273 18.5423 2.65381 19.6087 6.29834L19.8314 5.16162C17.1009 7.09522 15.6595 11.2553 16.0345 16.2358L16.5735 15.5444C14.0189 15.0991 11.0423 14.853 8.08919 14.853C1.81966 14.853 -0.735032 16.3764 0.225906 19.8803ZM2.03059 19.3764C1.51497 17.5014 2.94466 16.7397 8.08919 16.7397C12.261 16.7397 15.261 17.3022 16.597 17.396C17.3118 17.4077 17.7571 16.9507 17.7454 16.2358C17.6634 11.8296 18.8235 8.27881 20.8743 6.74365C21.3196 6.38037 21.4134 6.146 21.2845 5.34912C20.9681 3.146 22.1868 1.92725 23.5228 1.92725C24.3899 1.92725 24.8587 2.64209 24.5774 3.79053L20.136 21.7085C19.9368 22.5288 19.4329 22.9741 18.6478 22.9741H4.73763C3.42513 22.9741 2.88606 22.5522 2.03059 19.3764Z" fill="black" fill-opacity="0.85"/>
<path d="M3.09698 10.9624H8.72198C9.15557 10.9624 9.47198 10.6577 9.47198 10.2358C9.47198 9.80225 9.15557 9.49756 8.72198 9.49756H4.74933V9.46241L7.29229 6.72022C8.19464 5.75928 8.87432 4.91553 8.87432 3.7085C8.87432 2.04444 7.57355 0.942871 5.53449 0.942871C4.02277 0.942871 2.66339 1.85694 2.31182 3.09912C2.27667 3.27491 2.25323 3.39209 2.25323 3.54444C2.25323 3.97803 2.53448 4.271 2.97979 4.271C3.37823 4.271 3.57746 4.02491 3.77667 3.69678C4.05792 3.05225 4.62042 2.38428 5.60479 2.38428C6.60089 2.38428 7.28057 2.97022 7.28057 3.82569C7.28057 4.58741 6.62433 5.23194 6.00324 5.89991L2.59307 9.56787C2.40557 9.76709 2.30011 9.97803 2.30011 10.2358C2.30011 10.6811 2.60479 10.9624 3.09698 10.9624Z" fill="black" fill-opacity="0.85"/>
</g>
<defs>
<clipPath id="clip0_2207_16441">
<rect width="26.5243" height="24.8555" fill="white" transform="translate(0.0294189 0.0405273)"/>
</clipPath>
</defs>
</svg>
