<svg width="27" height="29" viewBox="0 0 27 29" fill="none" xmlns="http://www.w3.org/2000/svg">
<g clip-path="url(#clip0_2207_16381)">
<path d="M0.253127 21.7473C1.28438 25.5676 2.35078 26.7278 4.76485 26.7278H18.675C20.4093 26.7278 21.5695 25.7903 22.0031 24.0325L26.4093 6.14972C27.0539 3.54815 25.8351 1.90753 23.55 1.90753C20.7961 1.90753 18.5695 4.52081 19.6359 8.16534L19.8586 7.02862C17.1281 8.96222 15.6867 13.1223 16.0617 18.1028L16.6007 17.4114C14.0461 16.9661 11.0695 16.72 8.11641 16.72C1.84688 16.72 -0.707811 18.2434 0.253127 21.7473ZM2.05781 21.2434C1.54219 19.3684 2.97188 18.6067 8.11641 18.6067C12.2882 18.6067 15.2882 19.1692 16.6242 19.263C17.339 19.2747 17.7843 18.8176 17.7726 18.1028C17.6906 13.6966 18.8507 10.1458 20.9015 8.61065C21.3468 8.24737 21.4406 8.013 21.3117 7.21612C20.9953 5.013 22.214 3.79425 23.55 3.79425C24.4171 3.79425 24.8859 4.50909 24.6046 5.65753L20.1632 23.5755C19.964 24.3958 19.4601 24.8411 18.675 24.8411H4.76485C3.45235 24.8411 2.91328 24.4192 2.05781 21.2434Z" fill="black" fill-opacity="0.85"/>
<path d="M17.011 4.13408C16.8469 2.90361 17.3977 1.75517 18.4641 1.26299C18.804 1.08721 18.8743 0.74736 18.7688 0.442672C18.6399 0.126266 18.2766 -0.0963905 17.8196 0.137985C16.3782 0.852829 15.511 2.65752 15.7688 4.41533C15.8391 4.82549 16.2493 5.02471 16.636 4.8958C16.9524 4.76689 17.0813 4.48564 17.011 4.13408ZM13.8001 13.0755C13.3313 11.3645 13.9055 8.98564 15.968 7.88408C16.3899 7.66142 16.4368 7.26299 16.2844 6.98174C16.1321 6.71221 15.7922 6.54814 15.3469 6.75908C12.8977 7.91924 11.9602 11.2005 12.5579 13.4387C12.6633 13.8372 13.0735 13.9895 13.3899 13.9075C13.6946 13.8255 13.929 13.5325 13.8001 13.0755Z" fill="black" fill-opacity="0.85"/>
</g>
<defs>
<clipPath id="clip0_2207_16381">
<rect width="26.5243" height="28.5894" fill="white" transform="translate(0.0566406 0.0405273)"/>
</clipPath>
</defs>
</svg>
