<svg width="27" height="25" viewBox="0 0 27 25" fill="none" xmlns="http://www.w3.org/2000/svg">
<g clip-path="url(#clip0_2207_16406)">
<path d="M0.244826 19.8686C1.27608 23.6889 2.34248 24.8491 4.75655 24.8491H18.4323C20.1667 24.8491 21.3268 23.9116 21.7604 22.1538L26.1667 4.271C26.8815 1.35303 25.4284 0.0405273 23.7409 0.0405273C21.5026 0.0405273 19.0651 2.43115 20.4362 6.29834L20.776 4.85694C17.2487 6.7085 15.6432 10.9975 16.2878 16.2358L16.7096 15.6499C14.2956 15.146 11.1432 14.8413 8.10811 14.8413C1.83858 14.8413 -0.716112 16.3647 0.244826 19.8686Z" fill="black" fill-opacity="0.85"/>
<path d="M1.49878 7.82178C1.49878 9.54444 3.0691 11.2788 4.52222 11.2788C5.85816 11.2788 6.52613 10.0835 7.33472 7.96241L7.62769 7.90381V10.1889C7.62769 11.1733 8.14331 11.6772 9.09253 11.6772C10.8035 11.6772 12.5496 10.1186 12.5496 8.65381C12.5496 7.30615 11.3425 6.63819 9.22144 5.82959L9.16285 5.53662H11.448C12.4324 5.53662 12.9363 5.03272 12.9363 4.0835C12.9363 2.36084 11.3777 0.614746 9.91285 0.614746C8.57691 0.614746 7.89722 1.8335 7.10035 3.96631L6.79566 4.00147V1.71631C6.79566 0.743652 6.30347 0.228027 5.35425 0.228027C3.61988 0.228027 1.8855 1.79834 1.8855 3.25147C1.8855 4.58741 3.10425 5.25537 5.23706 6.06397L5.2605 6.36865H2.98706C2.00269 6.36865 1.49878 6.88428 1.49878 7.82178ZM6.04566 5.94678C6.04566 5.30225 6.56128 4.77491 7.21753 4.77491C7.86206 4.77491 8.38941 5.30225 8.38941 5.94678C8.38941 6.60303 7.86206 7.11865 7.21753 7.11865C6.573 7.11865 6.04566 6.60303 6.04566 5.94678Z" fill="black" fill-opacity="0.85"/>
</g>
<defs>
<clipPath id="clip0_2207_16406">
<rect width="26.3049" height="24.832" fill="white" transform="translate(0.0483398 0.0405273)"/>
</clipPath>
</defs>
</svg>
