<svg width="34" height="25" viewBox="0 0 34 25" fill="none" xmlns="http://www.w3.org/2000/svg">
<g clip-path="url(#clip0_2207_16511)">
<path d="M0.240554 19.8686C1.27181 23.6889 2.33821 24.8491 4.75228 24.8491H18.4281C20.1625 24.8491 21.3226 23.9116 21.7562 22.1538L26.1625 4.271C26.8773 1.35303 25.4242 0.0405273 23.7367 0.0405273C21.4984 0.0405273 19.0609 2.43115 20.432 6.29834L20.7718 4.85694C17.2445 6.7085 15.639 10.9975 16.2836 16.2358L16.7054 15.6499C14.2914 15.146 11.139 14.8413 8.10384 14.8413C1.83431 14.8413 -0.720384 16.3647 0.240554 19.8686Z" fill="black" fill-opacity="0.85"/>
<path d="M27.4397 11.5014C27.2756 12.1108 27.6975 12.5093 28.3303 12.3217L32.9827 10.9272C33.592 10.7514 33.7444 10.1421 33.3108 9.7085L29.9475 6.16944C29.5022 5.70069 28.928 5.85303 28.7639 6.46241L27.4397 11.5014Z" fill="black" fill-opacity="0.85"/>
<path d="M14.6312 7.31787L15.9554 2.26709C16.1195 1.66944 15.6976 1.25928 15.0882 1.44678L10.4007 2.85303C9.81479 3.02881 9.65072 3.62647 10.0843 4.07178L13.4593 7.58741C13.9046 8.05615 14.4671 7.93897 14.6312 7.31787Z" fill="black" fill-opacity="0.85"/>
</g>
<defs>
<clipPath id="clip0_2207_16511">
<rect width="33.5144" height="24.832" fill="white" transform="translate(0.0440674 0.0405273)"/>
</clipPath>
</defs>
</svg>
