<svg width="27" height="34" viewBox="0 0 27 34" fill="none" xmlns="http://www.w3.org/2000/svg">
<g clip-path="url(#clip0_2207_16481)">
<path d="M0.248977 19.8803C1.28023 23.7007 2.34663 24.8725 4.7607 24.8725H18.6709C20.4052 24.8725 21.5654 23.9233 21.999 22.1655L26.4052 4.28272C27.0498 1.69287 25.831 0.0405273 23.5459 0.0405273C20.792 0.0405273 18.5654 2.65381 19.6318 6.29834L19.8545 5.16162C17.124 7.10694 15.6826 11.2553 16.0576 16.2358L16.5966 15.5561C14.042 15.0991 11.0654 14.853 8.11226 14.853C1.84273 14.853 -0.711961 16.3764 0.248977 19.8803ZM2.05366 19.3882C1.53804 17.5014 2.96773 16.7397 8.11226 16.7397C12.2841 16.7397 15.2841 17.3022 16.6201 17.396C17.3349 17.4077 17.7802 16.9624 17.7685 16.2475C17.6865 11.8296 18.8466 8.27881 20.8974 6.74365C21.3427 6.38037 21.4365 6.146 21.3076 5.34912C20.9912 3.146 22.2099 1.92725 23.5459 1.92725C24.413 1.92725 24.8818 2.64209 24.6005 3.79053L20.1591 21.7085C19.9599 22.5288 19.456 22.9858 18.6709 22.9858H4.7607C3.4482 22.9858 2.90913 22.5522 2.05366 19.3882Z" fill="black" fill-opacity="0.85"/>
<path d="M14.6162 33.0171C14.6162 33.6499 15.1318 33.9194 15.6826 33.5796L19.8427 31.0483C20.3701 30.7202 20.3584 30.0991 19.8427 29.7827L15.6709 27.228C15.1201 26.8882 14.6162 27.1811 14.6162 27.8022V33.0171Z" fill="black" fill-opacity="0.85"/>
<path d="M8.53419 33.0171V27.8022C8.53419 27.1811 8.03029 26.8882 7.47951 27.228L3.31935 29.7827C2.79201 30.0991 2.78029 30.7202 3.31935 31.0483L7.47951 33.5796C8.03029 33.9194 8.53419 33.6499 8.53419 33.0171Z" fill="black" fill-opacity="0.85"/>
</g>
<defs>
<clipPath id="clip0_2207_16481">
<rect width="26.5243" height="33.9023" fill="white" transform="translate(0.0524902 0.0405273)"/>
</clipPath>
</defs>
</svg>
