<svg width="27" height="25" viewBox="0 0 27 25" fill="none" xmlns="http://www.w3.org/2000/svg">
<g clip-path="url(#clip0_2207_16461)">
<path d="M0.230056 19.8803C1.26131 23.7007 2.32771 24.8608 4.74178 24.8608H18.652C20.3863 24.8608 21.5465 23.9233 21.9801 22.1655L26.3863 4.28272C27.0309 1.68115 25.8121 0.0405273 23.527 0.0405273C20.7731 0.0405273 18.5465 2.65381 19.6129 6.29834L19.8356 5.16162C17.1051 7.09522 15.6637 11.2553 16.0387 16.2358L16.5777 15.5444C14.0231 15.0991 11.0465 14.853 8.09334 14.853C1.82381 14.853 -0.730882 16.3764 0.230056 19.8803ZM2.03474 19.3764C1.51912 17.5014 2.94881 16.7397 8.09334 16.7397C12.2652 16.7397 15.2652 17.3022 16.6012 17.396C17.316 17.4077 17.7613 16.9507 17.7496 16.2358C17.6676 11.8296 18.8277 8.27881 20.8785 6.74365C21.3238 6.38037 21.4176 6.146 21.2887 5.34912C20.9723 3.146 22.191 1.92725 23.527 1.92725C24.3941 1.92725 24.8629 2.64209 24.5816 3.79053L20.1402 21.7085C19.941 22.5288 19.4371 22.9741 18.652 22.9741H4.74178C3.42928 22.9741 2.89021 22.5522 2.03474 19.3764Z" fill="black" fill-opacity="0.85"/>
<path d="M5.66754 10.8803C7.80035 10.8803 9.24176 9.75537 9.24176 8.06787C9.24176 6.86084 8.33941 5.89991 7.09722 5.74756C8.10504 5.5835 8.91363 4.646 8.91363 3.55615C8.91363 2.11475 7.60113 1.06006 5.74957 1.06006C4.07379 1.06006 2.80816 1.84522 2.51519 3.09912C2.48004 3.23975 2.46832 3.3335 2.46832 3.50928C2.46832 3.90772 2.76129 4.20069 3.2066 4.20069C3.56988 4.20069 3.80426 4.02491 3.93316 3.64991C4.16754 2.86475 4.83551 2.41944 5.72613 2.41944C6.71051 2.41944 7.34332 2.91162 7.34332 3.72022C7.34332 4.55225 6.62847 5.16162 5.67926 5.16162H5.03472C4.65972 5.16162 4.36676 5.41944 4.36676 5.81787C4.36676 6.20459 4.64801 6.48584 5.03472 6.48584H5.74957C6.88629 6.48584 7.67144 7.09522 7.67144 8.00928C7.67144 8.89991 6.87457 9.50928 5.69097 9.50928C4.71832 9.50928 4.02691 9.07569 3.74566 8.27881C3.60504 7.91553 3.37066 7.75147 3.0191 7.75147C2.58551 7.75147 2.28082 8.04444 2.28082 8.46631C2.28082 8.61865 2.29254 8.68897 2.32769 8.82959C2.59722 10.0366 3.99176 10.8803 5.66754 10.8803Z" fill="black" fill-opacity="0.85"/>
</g>
<defs>
<clipPath id="clip0_2207_16461">
<rect width="26.5243" height="24.8555" fill="white" transform="translate(0.0335693 0.0405273)"/>
</clipPath>
</defs>
</svg>
