<svg width="28" height="25" viewBox="0 0 28 25" fill="none" xmlns="http://www.w3.org/2000/svg">
<g clip-path="url(#clip0_2207_10048)">
<path d="M9.53369 19.0381H23.2094C23.6665 19.0381 24.0649 18.6631 24.0649 18.1592C24.0649 17.6553 23.6665 17.2803 23.2094 17.2803H9.73291C9.06494 17.2803 8.65479 16.8115 8.54932 16.0967L6.62744 3.05372C6.51026 2.15138 6.18213 1.69434 4.98682 1.69434H0.873536C0.404786 1.69434 0.00634766 2.1045 0.00634766 2.57325C0.00634766 3.05372 0.404786 3.46388 0.873536 3.46388H4.83447L6.70947 16.3311C6.95557 17.9951 7.83447 19.0381 9.53369 19.0381ZM7.37744 14.8662H23.2329C24.9438 14.8662 25.8227 13.8115 26.0688 12.1358L27.0063 5.93653C27.0297 5.78419 27.0532 5.59669 27.0532 5.49122C27.0532 4.92872 26.6313 4.542 25.9868 4.542H6.35791L6.36963 6.31153H25.061L24.229 11.9248C24.1352 12.6514 23.7485 13.1084 23.0571 13.1084H7.35401L7.37744 14.8662ZM10.4594 24.7334C11.5141 24.7334 12.3579 23.9014 12.3579 22.835C12.3579 21.7803 11.5141 20.9365 10.4594 20.9365C9.39307 20.9365 8.54932 21.7803 8.54932 22.835C8.54932 23.9014 9.39307 24.7334 10.4594 24.7334ZM21.4165 24.7334C22.4829 24.7334 23.3266 23.9014 23.3266 22.835C23.3266 21.7803 22.4829 20.9365 21.4165 20.9365C20.3618 20.9365 19.5063 21.7803 19.5063 22.835C19.5063 23.9014 20.3618 24.7334 21.4165 24.7334Z" fill="black" fill-opacity="0.85"/>
</g>
<defs>
<clipPath id="clip0_2207_10048">
<rect width="27.0469" height="24.6914" fill="white" transform="translate(0.00634766 0.0419922)"/>
</clipPath>
</defs>
</svg>
