<svg width="28" height="23" viewBox="0 0 28 23" fill="none" xmlns="http://www.w3.org/2000/svg">
<g clip-path="url(#clip0_2207_10679)">
<path d="M3.65051 22.7529H23.5372C25.963 22.7529 27.1583 21.5811 27.1583 19.1787V7.77637C27.1583 5.37402 25.963 4.20215 23.5372 4.20215H3.65051C1.23645 4.20215 0.0294189 5.37402 0.0294189 7.77637V19.1787C0.0294189 21.5811 1.23645 22.7529 3.65051 22.7529ZM7.64661 5.22168H9.46301V3.14746C9.46301 2.25683 9.99036 1.75293 10.9044 1.75293H16.2833C17.1974 1.75293 17.713 2.25683 17.713 3.14746V5.19824H19.5294V3.27637C19.5294 1.07324 18.3692 0.0419922 16.2482 0.0419922H10.9278C8.92395 0.0419922 7.64661 1.07324 7.64661 3.27637V5.22168Z" fill="black" fill-opacity="0.85"/>
</g>
<defs>
<clipPath id="clip0_2207_10679">
<rect width="27.1289" height="22.7227" fill="white" transform="translate(0.0294189 0.0419922)"/>
</clipPath>
</defs>
</svg>
