<svg width="22" height="22" viewBox="0 0 22 22" fill="none" xmlns="http://www.w3.org/2000/svg">
<g clip-path="url(#clip0_2207_25888)">
<path d="M3.72583 21.6397H17.9406C20.4016 21.6397 21.6203 20.4209 21.6203 18.0068V3.69824C21.6203 1.28418 20.4016 0.0654297 17.9406 0.0654297H3.72583C1.27661 0.0654297 0.0461426 1.27246 0.0461426 3.69824V18.0068C0.0461426 20.4326 1.27661 21.6397 3.72583 21.6397ZM3.74926 19.7529C2.57739 19.7529 1.93286 19.1318 1.93286 17.9131V3.79199C1.93286 2.57324 2.57739 1.95215 3.74926 1.95215H17.9172C19.0773 1.95215 19.7336 2.57324 19.7336 3.79199V17.9131C19.7336 19.1318 19.0773 19.7529 17.9172 19.7529H3.74926Z" fill="black" fill-opacity="0.85"/>
<path d="M6.12817 10.8584C6.12817 14.0576 7.7102 16.1436 10.2063 16.46V17.3975C10.2063 17.749 10.4641 17.9834 10.7922 17.9834C11.1203 17.9834 11.3664 17.749 11.3664 17.3975V16.4717C13.1594 16.3311 14.4484 15.3467 14.9523 13.9404C15.0227 13.7529 15.0695 13.5537 15.0695 13.3428C15.0695 12.9209 14.7883 12.6279 14.3547 12.6279C13.9563 12.6279 13.7219 12.8506 13.593 13.249C13.3352 14.21 12.4914 14.9014 11.3664 15.0537V6.69824C12.4211 6.87402 13.2531 7.60058 13.5109 8.52637C13.6516 8.97168 13.8625 9.13574 14.2727 9.13574C14.7063 9.13574 14.9875 8.85449 14.9875 8.4209C14.9875 8.22168 14.9406 8.02246 14.8703 7.83496C14.3664 6.42871 13.0305 5.43261 11.3664 5.26855V4.35449C11.3664 4.00293 11.1203 3.78027 10.7922 3.78027C10.4523 3.78027 10.2063 4.00293 10.2063 4.35449V5.28027C7.72192 5.59668 6.12817 7.70605 6.12817 10.8584ZM7.69848 10.8584C7.69848 8.62011 8.65942 7.06152 10.2063 6.7334V15.0186C8.6477 14.6787 7.69848 13.1318 7.69848 10.8584Z" fill="black" fill-opacity="0.85"/>
</g>
<defs>
<clipPath id="clip0_2207_25888">
<rect width="21.5742" height="21.5977" fill="white" transform="translate(0.0461426 0.0419922)"/>
</clipPath>
</defs>
</svg>
