<svg width="17" height="27" viewBox="0 0 17 27" fill="none" xmlns="http://www.w3.org/2000/svg">
<g clip-path="url(#clip0_2207_25874)">
<path d="M8.99304 23.8662C12.8485 23.8662 15.6258 21.9561 16.6571 19.085C16.786 18.7334 16.8446 18.3818 16.8563 18.0186C16.868 17.4092 16.4579 16.9873 15.8251 16.9873C15.2157 16.9873 14.911 17.3272 14.7118 17.9365C14.0555 20.2568 11.8407 21.8154 9.00476 21.8154C4.99695 21.8154 2.39539 18.4756 2.39539 13.1436C2.39539 7.89355 5.00867 4.60058 8.99304 4.60058C11.6766 4.60058 13.9032 6.25293 14.5594 8.56152C14.7704 9.24121 15.0633 9.51074 15.6727 9.51074C16.3055 9.51074 16.7157 9.08887 16.704 8.46777C16.6922 8.11621 16.6337 7.78808 16.5165 7.45996C15.4501 4.49511 12.5087 2.5498 8.99304 2.5498C3.5907 2.5498 0.039917 6.66308 0.039917 13.1436C0.039917 19.7061 3.56726 23.8662 8.99304 23.8662ZM8.81726 26.3272C9.23914 26.3272 9.57898 25.9873 9.57898 25.5654V0.885742C9.57898 0.463867 9.23914 0.124023 8.81726 0.124023C8.39539 0.124023 8.05554 0.463867 8.05554 0.885742V25.5654C8.05554 25.9873 8.39539 26.3272 8.81726 26.3272Z" fill="black" fill-opacity="0.85"/>
</g>
<defs>
<clipPath id="clip0_2207_25874">
<rect width="16.8167" height="26.2852" fill="white" transform="translate(0.039917 0.0419922)"/>
</clipPath>
</defs>
</svg>
