<svg width="24" height="24" viewBox="0 0 24 24" fill="none" xmlns="http://www.w3.org/2000/svg">
<g clip-path="url(#clip0_2207_25878)">
<path d="M11.9951 23.9482C18.5342 23.9482 23.9482 18.5225 23.9482 11.9951C23.9482 5.45605 18.5225 0.0419922 11.9834 0.0419922C5.45605 0.0419922 0.0419922 5.45605 0.0419922 11.9951C0.0419922 18.5225 5.46777 23.9482 11.9951 23.9482ZM11.9951 21.9561C6.46387 21.9561 2.0459 17.5264 2.0459 11.9951C2.0459 6.46387 6.45215 2.03418 11.9834 2.03418C17.5147 2.03418 21.9561 6.46387 21.9561 11.9951C21.9561 17.5264 17.5264 21.9561 11.9951 21.9561Z" fill="black" fill-opacity="0.85"/>
<path d="M7.27246 12.0186C7.27246 15.2178 8.85449 17.3037 11.3506 17.6201V18.5576C11.3506 18.9092 11.6084 19.1436 11.9365 19.1436C12.2647 19.1436 12.5108 18.9092 12.5108 18.5576V17.6318C14.3037 17.4912 15.5928 16.5068 16.0967 15.1006C16.167 14.9131 16.2139 14.7139 16.2139 14.5029C16.2139 14.0811 15.9326 13.7881 15.499 13.7881C15.1006 13.7881 14.8662 14.0108 14.7373 14.4092C14.4795 15.3701 13.6358 16.0615 12.5108 16.2139V7.8584C13.5654 8.03418 14.3858 8.76074 14.6553 9.68652C14.7959 10.1318 14.9951 10.2959 15.417 10.2959C15.8506 10.2959 16.1318 10.0146 16.1318 9.58105C16.1318 9.38183 16.085 9.18261 16.0147 8.99511C15.5108 7.58887 14.1748 6.59277 12.5108 6.42871V5.51465C12.5108 5.16308 12.2647 4.94043 11.9365 4.94043C11.5967 4.94043 11.3506 5.16308 11.3506 5.51465V6.44043C8.86621 6.75683 7.27246 8.86621 7.27246 12.0186ZM8.84277 12.0186C8.84277 9.78027 9.79199 8.22168 11.3506 7.89355V16.1787C9.79199 15.8389 8.84277 14.292 8.84277 12.0186Z" fill="black" fill-opacity="0.85"/>
</g>
<defs>
<clipPath id="clip0_2207_25878">
<rect width="23.9062" height="23.918" fill="white" transform="translate(0.0419922 0.0419922)"/>
</clipPath>
</defs>
</svg>
