<svg width="32" height="21" viewBox="0 0 32 21" fill="none" xmlns="http://www.w3.org/2000/svg">
<g clip-path="url(#clip0_2207_21449)">
<path d="M27.6012 20.3858H30.4488C31.1754 20.3858 31.6676 19.8701 31.6676 19.1084V1.31933C31.6676 0.557617 31.1754 0.0419922 30.4488 0.0419922H27.6012C26.8746 0.0419922 26.3707 0.557617 26.3707 1.31933V19.1084C26.3707 19.8701 26.8746 20.3858 27.6012 20.3858Z" fill="black" fill-opacity="0.85"/>
<path d="M18.8356 20.3858H21.6598C22.3863 20.3858 22.8902 19.8701 22.8902 19.1084V5.94824C22.8902 5.18652 22.3863 4.6709 21.6598 4.6709H18.8356C18.0973 4.6709 17.6051 5.18652 17.6051 5.94824V19.1084C17.6051 19.8701 18.0973 20.3858 18.8356 20.3858Z" fill="black" fill-opacity="0.85"/>
<path d="M10.0582 20.3858H12.8824C13.6207 20.3858 14.1129 19.8701 14.1129 19.1084V10.1904C14.1129 9.42872 13.6207 8.91309 12.8824 8.91309H10.0582C9.31995 8.91309 8.82776 9.42872 8.82776 10.1904V19.1084C8.82776 19.8701 9.31995 20.3858 10.0582 20.3858Z" fill="black" fill-opacity="0.85"/>
<path d="M1.28088 20.3858H4.1051C4.84338 20.3858 5.33558 19.8701 5.33558 19.1084V13.8467C5.33558 13.085 4.84338 12.5811 4.1051 12.5811H1.28088C0.542603 12.5811 0.050415 13.085 0.050415 13.8467V19.1084C0.050415 19.8701 0.542603 20.3858 1.28088 20.3858Z" fill="black" fill-opacity="0.85"/>
</g>
<defs>
<clipPath id="clip0_2207_21449">
<rect width="31.6172" height="20.3555" fill="white" transform="translate(0.050415 0.0419922)"/>
</clipPath>
</defs>
</svg>
