<svg width="14" height="22" viewBox="0 0 14 22" fill="none" xmlns="http://www.w3.org/2000/svg">
<g clip-path="url(#clip0_2207_25370)">
<path d="M7.4353 19.0264C10.7048 19.0264 13.072 17.3506 13.7986 15.1709C13.8572 14.9717 13.9158 14.749 13.9158 14.5029C13.9158 13.9053 13.4939 13.5068 12.8963 13.5068C12.4158 13.5068 12.1111 13.8115 11.9119 14.2686C11.2205 15.9443 9.76733 17.1162 7.44702 17.1162C4.34155 17.1162 2.25561 14.9248 2.25561 10.9287C2.25561 7.01465 4.31811 4.72949 7.42358 4.72949C9.7439 4.72949 11.197 5.91308 11.8767 7.56543C12.0759 8.06933 12.4275 8.35058 12.9197 8.35058C13.5056 8.35058 13.8923 7.94043 13.8923 7.35449C13.8923 7.1084 13.8337 6.88574 13.7752 6.68652C13.0369 4.51855 10.6814 2.81933 7.41187 2.81933C2.98218 2.81933 0.0524902 5.9834 0.0524902 10.9287C0.0524902 15.9443 2.98218 19.0264 7.4353 19.0264ZM7.32983 21.8154C7.76343 21.8154 8.10327 21.5108 8.10327 21.0537V0.803711C8.10327 0.34668 7.76343 0.0419922 7.32983 0.0419922C6.89624 0.0419922 6.56811 0.34668 6.56811 0.803711V21.0537C6.56811 21.5108 6.89624 21.8154 7.32983 21.8154Z" fill="black" fill-opacity="0.85"/>
</g>
<defs>
<clipPath id="clip0_2207_25370">
<rect width="13.8633" height="21.7852" fill="white" transform="translate(0.0524902 0.0419922)"/>
</clipPath>
</defs>
</svg>
