<svg width="24" height="24" viewBox="0 0 24 24" fill="none" xmlns="http://www.w3.org/2000/svg">
<g clip-path="url(#clip0_2207_25374)">
<path d="M12.0078 23.9482C18.5469 23.9482 23.9609 18.5225 23.9609 11.9951C23.9609 5.45605 18.5352 0.0419922 11.9961 0.0419922C5.46875 0.0419922 0.0546875 5.45605 0.0546875 11.9951C0.0546875 18.5225 5.48047 23.9482 12.0078 23.9482ZM12.0078 21.9561C6.47657 21.9561 2.0586 17.5264 2.0586 11.9951C2.0586 6.46387 6.46485 2.03418 11.9961 2.03418C17.5274 2.03418 21.9688 6.46387 21.9688 11.9951C21.9688 17.5264 17.5391 21.9561 12.0078 21.9561Z" fill="black" fill-opacity="0.85"/>
<path d="M8.09375 11.9951C8.09375 14.4209 9.39453 16.0147 11.4102 16.2842V17.1631C11.4102 17.5029 11.6563 17.7373 11.9844 17.7373C12.3242 17.7373 12.5703 17.5029 12.5703 17.1631V16.2959C14.0586 16.1201 15.1133 15.2764 15.4531 14.2334C15.4883 14.1045 15.5235 13.9639 15.5235 13.8232C15.5235 13.4131 15.2305 13.1318 14.8203 13.1318C14.4922 13.1318 14.2695 13.3193 14.1406 13.624C13.8711 14.292 13.3438 14.7608 12.5703 14.9131V9.07715C13.332 9.22949 13.8594 9.70996 14.1289 10.3545C14.2695 10.6943 14.5039 10.8701 14.832 10.8701C15.2422 10.8701 15.5117 10.5889 15.5117 10.167C15.5117 10.0264 15.4766 9.89746 15.4414 9.78027C15.1016 8.7373 14.0352 7.88183 12.5703 7.70605V6.83887C12.5703 6.49902 12.3242 6.25293 11.9844 6.25293C11.6563 6.25293 11.4102 6.49902 11.4102 6.83887V7.71777C9.39453 7.9873 8.09375 9.59277 8.09375 11.9951ZM9.58203 11.9951C9.58203 10.4131 10.2852 9.38183 11.4102 9.10058V14.8897C10.2852 14.6201 9.58203 13.6006 9.58203 11.9951Z" fill="black" fill-opacity="0.85"/>
</g>
<defs>
<clipPath id="clip0_2207_25374">
<rect width="23.9062" height="23.918" fill="white" transform="translate(0.0546875 0.0419922)"/>
</clipPath>
</defs>
</svg>
