<svg width="22" height="22" viewBox="0 0 22 22" fill="none" xmlns="http://www.w3.org/2000/svg">
<g clip-path="url(#clip0_2207_25389)">
<path d="M3.74073 21.6397H17.9555C20.4165 21.6397 21.6352 20.4209 21.6352 18.0068V3.69824C21.6352 1.28418 20.4165 0.0654297 17.9555 0.0654297H3.74073C1.29151 0.0654297 0.0610352 1.27246 0.0610352 3.69824V18.0068C0.0610352 20.4326 1.29151 21.6397 3.74073 21.6397Z" fill="black" fill-opacity="0.85"/>
<path d="M6.82275 10.835C6.82275 8.35058 8.15869 6.69824 10.2446 6.41699V5.51465C10.2446 5.16308 10.5024 4.90527 10.8422 4.90527C11.1938 4.90527 11.4399 5.16308 11.4399 5.51465V6.40527C12.9633 6.59277 14.0532 7.47168 14.4048 8.5498C14.4399 8.66699 14.4751 8.7959 14.4751 8.94824C14.4751 9.38183 14.1938 9.6748 13.7719 9.6748C13.4321 9.6748 13.186 9.49902 13.0454 9.14746C12.7758 8.47949 12.2368 7.9873 11.4399 7.82324V13.8467C12.2485 13.6826 12.7876 13.2022 13.0571 12.5108C13.186 12.2061 13.4321 12.0068 13.7602 12.0068C14.1821 12.0068 14.4868 12.2998 14.4868 12.7217C14.4868 12.874 14.4516 13.0147 14.4165 13.1436C14.0649 14.2217 12.9751 15.0889 11.4399 15.2764V16.167C11.4399 16.5186 11.1938 16.7647 10.8422 16.7647C10.5024 16.7647 10.2446 16.5186 10.2446 16.167V15.2647C8.15869 14.9834 6.82275 13.3428 6.82275 10.835ZM8.35791 10.835C8.35791 12.4873 9.08447 13.542 10.2446 13.8115V7.8584C9.08447 8.13965 8.35791 9.20605 8.35791 10.835Z" fill="white"/>
</g>
<defs>
<clipPath id="clip0_2207_25389">
<rect width="21.5742" height="21.5977" fill="white" transform="translate(0.0610352 0.0419922)"/>
</clipPath>
</defs>
</svg>
