<svg width="18" height="26" viewBox="0 0 18 26" fill="none" xmlns="http://www.w3.org/2000/svg">
<g clip-path="url(#clip0_2207_12197)">
<path d="M3.40503 12.6865H5.40894V7.70605H3.40503V12.6865ZM11.6668 12.6865H13.6707V7.70605H11.6668V12.6865ZM2.28003 25.4131H2.64331C3.21753 25.4131 3.61597 25.0147 3.61597 24.4404V16.8584H1.30738V24.4404C1.30738 25.0147 1.70581 25.4131 2.28003 25.4131ZM3.0066 20.1982H14.0691V18.4287H3.0066V20.1982ZM14.4324 25.4131H14.7957C15.3699 25.4131 15.7683 25.0147 15.7683 24.4404V16.8584H13.4597V24.4404C13.4597 25.0147 13.8582 25.4131 14.4324 25.4131ZM3.04175 8.7373H14.034C15.4168 8.7373 16.073 8.10449 16.073 6.75683V2.02246C16.073 0.674804 15.4168 0.0419922 14.034 0.0419922H3.04175C1.65894 0.0419922 1.00269 0.674804 1.00269 2.02246V6.75683C1.00269 8.10449 1.65894 8.7373 3.04175 8.7373ZM1.99878 17.4678H15.0769C16.366 17.4678 17.0105 16.8584 17.0105 15.6045V13.8232C17.0105 12.5693 16.366 11.96 15.0769 11.96H1.99878C0.709717 11.96 0.0651855 12.5693 0.0651855 13.8232V15.6045C0.0651855 16.8584 0.709717 17.4678 1.99878 17.4678Z" fill="black" fill-opacity="0.85"/>
</g>
<defs>
<clipPath id="clip0_2207_12197">
<rect width="16.9453" height="25.3945" fill="white" transform="translate(0.0651855 0.0419922)"/>
</clipPath>
</defs>
</svg>
