<svg width="24" height="21" viewBox="0 0 24 21" fill="none" xmlns="http://www.w3.org/2000/svg">
<g clip-path="url(#clip0_2207_12185)">
<path d="M3.52417 6.93261H5.49292V2.97168C5.49292 2.38574 5.87964 2.01074 6.44214 2.01074H16.989C17.5632 2.01074 17.9382 2.38574 17.9382 2.97168V6.93261H19.9069V2.95996C19.9069 1.20215 18.7702 0.0419922 17.0944 0.0419922H6.34839C4.66089 0.0419922 3.52417 1.20215 3.52417 2.95996V6.93261ZM0.0671387 15.417C0.0671387 17.1045 1.18042 18.2178 2.84448 18.2178H20.5983C22.2507 18.2178 23.3757 17.1045 23.3757 15.417V8.29199C23.3757 6.61621 22.2507 5.49121 20.5983 5.49121H19.2273C17.5632 5.49121 16.4499 6.61621 16.4499 8.29199V11.3506H6.99292V8.29199C6.99292 6.61621 5.86792 5.49121 4.21558 5.49121H2.84448C1.18042 5.49121 0.0671387 6.61621 0.0671387 8.29199V15.417ZM2.05933 15.3936V8.31543C2.05933 7.7998 2.41089 7.45996 2.93823 7.45996H4.12183C4.64917 7.45996 5.00073 7.7998 5.00073 8.31543V13.3193H18.4421V8.31543C18.4421 7.7998 18.7937 7.45996 19.321 7.45996H20.5046C21.0319 7.45996 21.3835 7.7998 21.3835 8.31543V15.3936C21.3835 15.9092 21.0319 16.249 20.5046 16.249H2.93823C2.41089 16.249 2.05933 15.9092 2.05933 15.3936ZM4.33276 20.6084H5.05933C5.69214 20.6084 6.1023 20.21 6.1023 19.5772V17.0928H3.2898V19.5772C3.2898 20.21 3.69995 20.6084 4.33276 20.6084ZM18.3835 20.6084H19.0983C19.7312 20.6084 20.1413 20.21 20.1413 19.5772V17.0928H17.3405V19.5772C17.3405 20.21 17.7507 20.6084 18.3835 20.6084Z" fill="black" fill-opacity="0.85"/>
</g>
<defs>
<clipPath id="clip0_2207_12185">
<rect width="23.3086" height="20.5898" fill="white" transform="translate(0.0671387 0.0419922)"/>
</clipPath>
</defs>
</svg>
