<svg width="24" height="24" viewBox="0 0 24 24" fill="none" xmlns="http://www.w3.org/2000/svg">
<g clip-path="url(#clip0_2207_21526)">
<path d="M11.9763 23.9497C18.5154 23.9497 23.9294 18.524 23.9294 11.9966C23.9294 5.45752 18.5037 0.043457 11.9646 0.043457C5.43725 0.043457 0.0231934 5.45752 0.0231934 11.9966C0.0231934 18.524 5.44897 23.9497 11.9763 23.9497ZM11.9763 21.9576C6.44507 21.9576 2.0271 17.5279 2.0271 11.9966C2.0271 6.46534 6.43335 2.03565 11.9646 2.03565C17.4959 2.03565 21.9373 6.46534 21.9373 11.9966C21.9373 17.5279 17.5076 21.9576 11.9763 21.9576Z" fill="black" fill-opacity="0.85"/>
<path d="M5.64819 16.4146C5.64819 16.9654 6.01147 17.3287 6.57397 17.3287H17.742C18.0935 17.3287 18.3865 17.0357 18.3865 16.6841C18.3865 16.3326 18.0935 16.0396 17.742 16.0396H6.97241C6.94897 16.0396 6.94897 16.0513 6.94897 16.0162V6.96924C6.94897 6.61768 6.656 6.32471 6.30444 6.32471C5.95288 6.32471 5.64819 6.61768 5.64819 6.96924V16.4146ZM14.531 9.31299V13.0162C14.531 13.4263 14.9763 13.6255 15.3513 13.4029L18.3162 11.6099C18.656 11.4107 18.656 10.9302 18.3279 10.7427L15.3396 8.96143C14.9529 8.73877 14.531 8.91455 14.531 9.31299ZM6.42163 11.8326H14.7771V10.5318H6.42163V11.8326Z" fill="black" fill-opacity="0.85"/>
</g>
<defs>
<clipPath id="clip0_2207_21526">
<rect width="23.9062" height="23.918" fill="white" transform="translate(0.0231934 0.043457)"/>
</clipPath>
</defs>
</svg>
