<svg width="15" height="18" viewBox="0 0 15 18" fill="none" xmlns="http://www.w3.org/2000/svg">
<g clip-path="url(#clip0_2207_22405)">
<path d="M1.06006 17.3506C1.68115 17.3506 1.98584 17.1162 2.20849 16.46L3.72021 12.3232H10.6343L12.146 16.46C12.3687 17.1162 12.6734 17.3506 13.2827 17.3506C13.9038 17.3506 14.3023 16.9756 14.3023 16.3897C14.3023 16.1904 14.2671 16.0029 14.1734 15.7568L8.67724 1.12011C8.40771 0.405273 7.92724 0.0419922 7.17724 0.0419922C6.45068 0.0419922 5.95849 0.393554 5.70068 1.1084L0.20459 15.7686C0.11084 16.0147 0.0756836 16.2022 0.0756836 16.4014C0.0756836 16.9873 0.450684 17.3506 1.06006 17.3506ZM4.29443 10.542L7.14209 2.65527H7.20068L10.0483 10.542H4.29443Z" fill="black" fill-opacity="0.85"/>
</g>
<defs>
<clipPath id="clip0_2207_22405">
<rect width="14.2266" height="17.332" fill="white" transform="translate(0.0756836 0.0419922)"/>
</clipPath>
</defs>
</svg>
