<svg width="26" height="22" viewBox="0 0 26 22" fill="none" xmlns="http://www.w3.org/2000/svg">
<g clip-path="url(#clip0_2207_21521)">
<path d="M16.978 6.46533V13.977C16.978 14.5746 17.5405 14.7739 18.0796 14.4575L24.1382 10.8246C24.6304 10.5317 24.6069 9.91064 24.1265 9.61767L18.0679 5.98486C17.5288 5.68017 16.978 5.87939 16.978 6.46533ZM0.45459 11.2231H18.7124V9.21923H0.45459V11.2231Z" fill="black" fill-opacity="0.85"/>
<path d="M0.0209961 20.9263C0.0209961 21.4888 0.395996 21.8521 0.958496 21.8521H24.2671C24.7827 21.8521 25.2163 21.4419 25.2163 20.9146C25.2163 20.399 24.7827 19.9771 24.2671 19.9771H2.23584C1.98975 19.9771 1.90772 19.8951 1.90772 19.649V1.12158C1.90772 0.617676 1.48584 0.184082 0.970215 0.184082C0.442871 0.184082 0.0209961 0.617676 0.0209961 1.12158V20.9263Z" fill="black" fill-opacity="0.85"/>
</g>
<defs>
<clipPath id="clip0_2207_21521">
<rect width="25.1953" height="21.8086" fill="white" transform="translate(0.0209961 0.043457)"/>
</clipPath>
</defs>
</svg>
