<svg width="26" height="22" viewBox="0 0 26 22" fill="none" xmlns="http://www.w3.org/2000/svg">
<g clip-path="url(#clip0_2207_20235)">
<path d="M1.26831 13.6373L8.80346 9.27784L14.2292 13.9302L23.8737 8.18799L23.1355 6.99268L14.323 12.2427L8.92065 7.61377L1.26831 12.0318V13.6373ZM8.65112 10.8599C9.79956 10.8599 10.737 9.92237 10.737 8.77393C10.737 7.62549 9.79956 6.69971 8.65112 6.69971C7.50268 6.69971 6.56518 7.62549 6.56518 8.77393C6.56518 9.92237 7.50268 10.8599 8.65112 10.8599ZM14.1823 15.1607C15.3308 15.1607 16.2566 14.2232 16.2566 13.0747C16.2566 11.9263 15.3308 11.0005 14.1823 11.0005C13.0339 11.0005 12.0964 11.9263 12.0964 13.0747C12.0964 14.2232 13.0339 15.1607 14.1823 15.1607ZM23.0183 9.82862C24.1667 9.82862 25.1042 8.89112 25.1042 7.74268C25.1042 6.59424 24.1667 5.65674 23.0183 5.65674C21.8698 5.65674 20.9323 6.59424 20.9323 7.74268C20.9323 8.89112 21.8698 9.82862 23.0183 9.82862Z" fill="black" fill-opacity="0.85"/>
<path d="M0.0378418 20.9263C0.0378418 21.4888 0.412842 21.8521 0.975342 21.8521H24.2839C24.7995 21.8521 25.2331 21.4419 25.2331 20.9146C25.2331 20.399 24.7995 19.9771 24.2839 19.9771H2.25268C2.00659 19.9771 1.92456 19.8951 1.92456 19.649V1.12158C1.92456 0.617676 1.50268 0.184082 0.987061 0.184082C0.459717 0.184082 0.0378418 0.617676 0.0378418 1.12158V20.9263Z" fill="black" fill-opacity="0.85"/>
</g>
<defs>
<clipPath id="clip0_2207_20235">
<rect width="25.1953" height="21.8086" fill="white" transform="translate(0.0378418 0.043457)"/>
</clipPath>
</defs>
</svg>
