<svg width="30" height="23" viewBox="0 0 30 23" fill="none" xmlns="http://www.w3.org/2000/svg">
<g clip-path="url(#clip0_2207_21443)">
<path d="M23.5119 21.9576H27.0042C28.6214 21.9576 29.4534 21.1841 29.4534 19.649V2.36377C29.4534 0.828613 28.6214 0.043457 27.0042 0.043457H23.5119C21.9182 0.043457 21.0862 0.828613 21.0862 2.36377V19.649C21.0862 21.1841 21.9182 21.9576 23.5119 21.9576Z" fill="black" fill-opacity="0.85"/>
<path d="M12.9768 21.9576H16.4689C18.0861 21.9576 18.9064 21.1841 18.9064 19.649V5.78564C18.9064 4.25048 18.0861 3.46533 16.4689 3.46533H12.9768C11.3713 3.46533 10.5393 4.25048 10.5393 5.78564V19.649C10.5393 21.1841 11.3713 21.9576 12.9768 21.9576Z" fill="black" fill-opacity="0.85"/>
<path d="M2.44165 21.9576H5.92212C7.53931 21.9576 8.37134 21.1841 8.37134 19.649V9.1958C8.37134 7.66065 7.53931 6.87549 5.92212 6.87549H2.44165C0.836181 6.87549 0.00415039 7.66065 0.00415039 9.1958V19.649C0.00415039 21.1841 0.836181 21.9576 2.44165 21.9576Z" fill="black" fill-opacity="0.85"/>
</g>
<defs>
<clipPath id="clip0_2207_21443">
<rect width="29.4492" height="22.0898" fill="white" transform="translate(0.00415039 0.043457)"/>
</clipPath>
</defs>
</svg>
