<svg width="27" height="22" viewBox="0 0 27 22" fill="none" xmlns="http://www.w3.org/2000/svg">
<g clip-path="url(#clip0_2207_21472)">
<path d="M0.945801 21.688H25.2036C25.7192 21.688 26.1528 21.2779 26.1528 20.7505C26.1528 20.2349 25.7192 19.813 25.2036 19.813H0.945801C0.441895 19.813 0.00830078 20.2349 0.00830078 20.7505C0.00830078 21.2779 0.441895 21.688 0.945801 21.688Z" fill="black" fill-opacity="0.85"/>
<path d="M20.1528 16.8365C20.1528 17.4927 20.563 17.8794 21.231 17.8794H23.938C24.6177 17.8794 25.0395 17.4927 25.0395 16.8365V1.08643C25.0395 0.430176 24.6177 0.043457 23.938 0.043457H21.231C20.563 0.043457 20.1528 0.430176 20.1528 1.08643V16.8365Z" fill="black" fill-opacity="0.85"/>
<path d="M13.8013 16.8365C13.8013 17.4927 14.2231 17.8794 14.8911 17.8794H17.5981C18.2778 17.8794 18.6997 17.4927 18.6997 16.8365V4.43799C18.6997 3.78174 18.2778 3.39502 17.5981 3.39502H14.8911C14.2231 3.39502 13.8013 3.78174 13.8013 4.43799V16.8365Z" fill="black" fill-opacity="0.85"/>
<path d="M7.46143 16.8365C7.46143 17.4927 7.87159 17.8794 8.53956 17.8794H11.2583C11.9263 17.8794 12.3481 17.4927 12.3481 16.8365V7.78955C12.3481 7.15674 11.9263 6.7583 11.2583 6.7583H8.53956C7.87159 6.7583 7.46143 7.15674 7.46143 7.78955V16.8365Z" fill="black" fill-opacity="0.85"/>
<path d="M1.10986 16.8364C1.10986 17.4926 1.53174 17.8793 2.21142 17.8793H4.91846C5.58642 17.8793 6.0083 17.4926 6.0083 16.8364V11.1528C6.0083 10.4965 5.58642 10.0981 4.91846 10.0981H2.21142C1.53174 10.0981 1.10986 10.4965 1.10986 11.1528V16.8364Z" fill="black" fill-opacity="0.85"/>
</g>
<defs>
<clipPath id="clip0_2207_21472">
<rect width="26.1445" height="21.6445" fill="white" transform="translate(0.00830078 0.043457)"/>
</clipPath>
</defs>
</svg>
