<svg width="27" height="22" viewBox="0 0 27 22" fill="none" xmlns="http://www.w3.org/2000/svg">
<g clip-path="url(#clip0_2207_21464)">
<path d="M0.00634766 20.7505C0.00634766 21.2779 0.439942 21.688 0.943848 21.688H25.2016C25.7172 21.688 26.1508 21.2779 26.1508 20.7505C26.1508 20.2349 25.7172 19.813 25.2016 19.813H0.943848C0.439942 19.813 0.00634766 20.2349 0.00634766 20.7505Z" fill="black" fill-opacity="0.85"/>
<path d="M20.1508 16.8365C20.1508 17.4927 20.561 17.8794 21.2407 17.8794H23.9477C24.6157 17.8794 25.0375 17.4927 25.0375 16.8365V9.09033C25.0375 8.43407 24.6157 8.03564 23.9477 8.03564H21.2407C20.561 8.03564 20.1508 8.43407 20.1508 9.09033V16.8365Z" fill="black" fill-opacity="0.85"/>
<path d="M13.7993 16.8365C13.7993 17.4927 14.2211 17.8794 14.8891 17.8794H17.5961C18.2758 17.8794 18.6977 17.4927 18.6977 16.8365V3.75829C18.6977 3.10204 18.2758 2.71533 17.5961 2.71533H14.8891C14.2211 2.71533 13.7993 3.10204 13.7993 3.75829V16.8365Z" fill="black" fill-opacity="0.85"/>
<path d="M7.45947 16.8365C7.45947 17.4927 7.86963 17.8794 8.5376 17.8794H11.2564C11.9244 17.8794 12.3462 17.4927 12.3462 16.8365V1.08643C12.3462 0.430176 11.9244 0.043457 11.2564 0.043457H8.5376C7.86963 0.043457 7.45947 0.430176 7.45947 1.08643V16.8365Z" fill="black" fill-opacity="0.85"/>
<path d="M1.10791 16.8365C1.10791 17.4927 1.52979 17.8794 2.19776 17.8794H4.90479C5.58447 17.8794 6.00635 17.4927 6.00635 16.8365V6.46533C6.00635 5.82079 5.58447 5.42236 4.90479 5.42236H2.19776C1.52979 5.42236 1.10791 5.82079 1.10791 6.46533V16.8365Z" fill="black" fill-opacity="0.85"/>
</g>
<defs>
<clipPath id="clip0_2207_21464">
<rect width="26.1445" height="21.6445" fill="white" transform="translate(0.00634766 0.043457)"/>
</clipPath>
</defs>
</svg>
