<svg width="20" height="26" viewBox="0 0 20 26" fill="none" xmlns="http://www.w3.org/2000/svg">
<g clip-path="url(#clip0_2207_1043)">
<path d="M0.00219727 21.5005C0.00219727 23.9497 1.20923 25.1685 3.63501 25.1685H16.0803C18.5061 25.1685 19.7131 23.9497 19.7131 21.5005V3.72315C19.7131 1.28565 18.5061 0.043457 16.0803 0.043457H3.63501C1.20923 0.043457 0.00219727 1.28565 0.00219727 3.72315V21.5005Z" fill="black" fill-opacity="0.85"/>
<path d="M4.32642 17.7388H9.62329C10.0803 17.7388 10.3733 18.0435 10.3733 18.5357V20.4927C10.3733 20.9732 10.0803 21.2896 9.62329 21.2896H4.32642C3.84595 21.2896 3.5647 20.9732 3.5647 20.4927V18.5357C3.5647 18.0435 3.84595 17.7388 4.32642 17.7388Z" fill="white"/>
<path d="M4.32642 13.1451H13.4788C13.9475 13.1451 14.2288 13.438 14.2288 13.9185V15.8872C14.2288 16.3793 13.9475 16.6724 13.4788 16.6724H4.32642C3.84595 16.6724 3.5647 16.3793 3.5647 15.8872V13.9185C3.5647 13.438 3.84595 13.1451 4.32642 13.1451Z" fill="white"/>
<path d="M4.32642 8.52783H15.4124C15.8811 8.52783 16.1624 8.83251 16.1624 9.3247V11.2818C16.1624 11.774 15.8811 12.0787 15.4124 12.0787H4.32642C3.84595 12.0787 3.5647 11.774 3.5647 11.2818V9.3247C3.5647 8.83251 3.84595 8.52783 4.32642 8.52783Z" fill="white"/>
<path d="M4.32642 3.93408H11.51C11.9788 3.93408 12.26 4.23877 12.26 4.73096V6.68799C12.26 7.16846 11.9788 7.48487 11.51 7.48487H4.32642C3.84595 7.48487 3.5647 7.16846 3.5647 6.68799V4.73096C3.5647 4.23877 3.84595 3.93408 4.32642 3.93408Z" fill="white"/>
</g>
<defs>
<clipPath id="clip0_2207_1043">
<rect width="19.7109" height="25.1367" fill="white" transform="translate(0.00219727 0.043457)"/>
</clipPath>
</defs>
</svg>
