<svg width="24" height="24" viewBox="0 0 24 24" fill="none" xmlns="http://www.w3.org/2000/svg">
<g clip-path="url(#clip0_2207_21501)">
<path d="M11.9846 23.9615C18.5237 23.9615 23.9377 18.5474 23.9377 12.0083C23.9377 5.48096 18.512 0.0551758 11.9729 0.0551758C5.44555 0.0551758 0.0314941 5.48096 0.0314941 12.0083C0.0314941 18.5474 5.45727 23.9615 11.9846 23.9615Z" fill="black" fill-opacity="0.85"/>
<path d="M5.4104 16.5669V6.84033C5.4104 6.47704 5.71508 6.16064 6.07837 6.16064C6.44165 6.16064 6.75805 6.47704 6.75805 6.84033V11.6685L8.28149 10.1333C8.56274 9.85204 8.84399 9.6997 9.20727 9.6997C9.55883 9.6997 9.86352 9.84033 10.1448 10.1333L12.2776 12.3247C12.3362 12.3951 12.3831 12.3951 12.4417 12.313L14.6096 10.1216L13.7424 9.26611C13.4377 8.97314 13.6253 8.51611 14.0588 8.41065L17.5159 7.54345C17.9143 7.43798 18.2776 7.77783 18.1721 8.16454L17.2932 11.6451C17.176 12.1021 16.719 12.2662 16.426 11.9615L15.5706 11.0826L13.2971 13.4029C13.0159 13.6841 12.6995 13.8365 12.3479 13.8365C12.0081 13.8365 11.7034 13.6958 11.4104 13.4029L9.30102 11.2349C9.24243 11.1646 9.18383 11.1646 9.11352 11.2349L6.75805 13.6021V16.063C6.75805 16.1451 6.78149 16.1802 6.8518 16.1802H17.8674C18.2307 16.1802 18.5471 16.4849 18.5471 16.8599C18.5471 17.2232 18.2307 17.5279 17.8674 17.5279H6.35961C5.7854 17.5279 5.4104 17.1529 5.4104 16.5669Z" fill="white"/>
</g>
<defs>
<clipPath id="clip0_2207_21501">
<rect width="23.9062" height="23.918" fill="white" transform="translate(0.0314941 0.043457)"/>
</clipPath>
</defs>
</svg>
