<svg width="26" height="22" viewBox="0 0 26 22" fill="none" xmlns="http://www.w3.org/2000/svg">
<g clip-path="url(#clip0_2207_21491)">
<path d="M1.76172 14.6098L6.83593 9.44189C6.9414 9.33642 7.04687 9.27783 7.15234 9.27783C7.25781 9.27783 7.36328 9.33642 7.46875 9.44189L11.7812 13.8598C12.2851 14.3872 12.8125 14.6332 13.3632 14.6332C13.9257 14.6332 14.4296 14.3872 14.957 13.8598L19.7382 9.05517L21.6601 10.9887C22.082 11.4106 22.6328 11.1528 22.7851 10.5551L24.5195 3.68798C24.6601 3.14892 24.1914 2.70361 23.664 2.84423L16.8085 4.56689C16.2109 4.73095 15.9531 5.27001 16.375 5.69189L18.3085 7.62548L13.6914 12.3012C13.5859 12.4067 13.4687 12.4653 13.3632 12.4653C13.2695 12.4653 13.1523 12.4067 13.0468 12.3012L8.73437 7.88329C8.21875 7.35595 7.70312 7.10986 7.15234 7.10986C6.60156 7.10986 6.10937 7.34423 5.57031 7.88329L0.332031 13.1918L1.76172 14.6098Z" fill="black" fill-opacity="0.85"/>
<path d="M0.0273438 20.9263C0.0273438 21.4888 0.402344 21.8521 0.964844 21.8521H24.2734C24.789 21.8521 25.2226 21.4419 25.2226 20.9146C25.2226 20.399 24.789 19.9771 24.2734 19.9771H2.24218C1.99609 19.9771 1.91406 19.8951 1.91406 19.649V1.12158C1.91406 0.617676 1.49218 0.184082 0.976563 0.184082C0.449219 0.184082 0.0273438 0.617676 0.0273438 1.12158V20.9263Z" fill="black" fill-opacity="0.85"/>
</g>
<defs>
<clipPath id="clip0_2207_21491">
<rect width="25.1953" height="21.8086" fill="white" transform="translate(0.0273438 0.043457)"/>
</clipPath>
</defs>
</svg>
