<svg width="24" height="24" viewBox="0 0 24 24" fill="none" xmlns="http://www.w3.org/2000/svg">
<g clip-path="url(#clip0_2207_21456)">
<path d="M19.0531 20.1177L20.2367 19.0162L13.557 12.4185L21.5727 7.81299L20.7875 6.45362L12.9008 10.9771V1.57862H11.3305V12.1607C11.3305 12.4185 11.3891 12.6294 11.6117 12.8404L19.0531 20.1177ZM11.9867 23.9497C18.5258 23.9497 23.9398 18.524 23.9398 11.9966C23.9398 5.45752 18.5141 0.043457 11.975 0.043457C5.44763 0.043457 0.0335693 5.45752 0.0335693 11.9966C0.0335693 18.524 5.45935 23.9497 11.9867 23.9497ZM11.9867 21.9576C6.45545 21.9576 2.03748 17.5279 2.03748 11.9966C2.03748 6.46534 6.44373 2.03565 11.975 2.03565C17.5063 2.03565 21.9477 6.46534 21.9477 11.9966C21.9477 17.5279 17.518 21.9576 11.9867 21.9576Z" fill="black" fill-opacity="0.85"/>
</g>
<defs>
<clipPath id="clip0_2207_21456">
<rect width="23.9062" height="23.918" fill="white" transform="translate(0.0335693 0.043457)"/>
</clipPath>
</defs>
</svg>
