<svg width="17" height="25" viewBox="0 0 17 25" fill="none" xmlns="http://www.w3.org/2000/svg">
<g clip-path="url(#clip0_2207_22579)">
<path d="M7.86401 24.1592C12.2117 24.1592 15.6453 20.7256 15.6453 16.3779C15.6453 12.0186 12.2117 8.59668 7.85229 8.59668C3.50464 8.59668 0.0944824 12.0186 0.0944824 16.3779C0.0944824 20.7256 3.51636 24.1592 7.86401 24.1592ZM7.86401 22.1787C4.6062 22.1787 2.07495 19.6475 2.07495 16.3779C2.07495 13.1201 4.6062 10.5772 7.85229 10.5772C11.1218 10.5772 13.6648 13.1201 13.6648 16.3779C13.6648 19.6475 11.1336 22.1787 7.86401 22.1787ZM13.6648 16.3779H15.6453V3.25293H13.6648V16.3779ZM14.6492 4.54199C15.9031 4.54199 16.8992 3.53418 16.8992 2.29199C16.8992 1.0498 15.9031 0.0419922 14.6492 0.0419922C13.407 0.0419922 12.3992 1.0498 12.3992 2.29199C12.3992 3.53418 13.407 4.54199 14.6492 4.54199Z" fill="black" fill-opacity="0.85"/>
</g>
<defs>
<clipPath id="clip0_2207_22579">
<rect width="16.8047" height="24.1523" fill="white" transform="translate(0.0944824 0.0419922)"/>
</clipPath>
</defs>
</svg>
