<svg width="27" height="27" viewBox="0 0 27 27" fill="none" xmlns="http://www.w3.org/2000/svg">
<g clip-path="url(#clip0_2207_7872)">
<path d="M6.30811 23.5147H8.85108C9.08545 23.5147 9.26123 23.585 9.43701 23.7608L11.2417 25.5538C12.7182 27.042 14.0893 27.0303 15.5659 25.5538L17.3706 23.7608C17.5581 23.585 17.7221 23.5147 17.9682 23.5147H20.4995C22.5971 23.5147 23.5698 22.5538 23.5698 20.4444V17.9131C23.5698 17.667 23.6401 17.503 23.8159 17.3155L25.6089 15.5108C27.0971 14.0342 27.0854 12.6631 25.6089 11.1866L23.8159 9.38184C23.6401 9.20606 23.5698 9.03028 23.5698 8.79591V6.25294C23.5698 4.167 22.6089 3.18262 20.4995 3.18262H17.9682C17.7221 3.18262 17.5581 3.12403 17.3706 2.94825L15.5659 1.15528C14.0893 -0.333004 12.7182 -0.321285 11.2417 1.15528L9.43701 2.94825C9.26123 3.12403 9.08545 3.18262 8.85108 3.18262H6.30811C4.21045 3.18262 3.23779 4.14356 3.23779 6.25294V8.79591C3.23779 9.03028 3.1792 9.20606 3.00342 9.38184L1.21045 11.1866C-0.277828 12.6631 -0.266109 14.0342 1.21045 15.5108L3.00342 17.3155C3.1792 17.503 3.23779 17.667 3.23779 17.9131V20.4444C3.23779 22.542 4.21045 23.5147 6.30811 23.5147Z" fill="black" fill-opacity="0.85"/>
<path d="M12.0971 19.0733C11.6987 19.0733 11.3706 18.9209 11.0659 18.5108L8.12451 14.9014C7.94873 14.667 7.84326 14.3975 7.84326 14.1397C7.84326 13.6006 8.25342 13.167 8.79248 13.167C9.12061 13.167 9.37842 13.2842 9.67139 13.6709L12.0503 16.7413L17.0542 8.70216C17.2768 8.33887 17.5815 8.16309 17.8979 8.16309C18.4018 8.16309 18.8823 8.51466 18.8823 9.05372C18.8823 9.32325 18.73 9.59278 18.5893 9.82716L13.0815 18.5108C12.8354 18.8858 12.4956 19.0733 12.0971 19.0733Z" fill="white"/>
</g>
<defs>
<clipPath id="clip0_2207_7872">
<rect width="26.6221" height="26.6338" fill="white" transform="translate(0.0986328 0.043457)"/>
</clipPath>
</defs>
</svg>
