<svg width="22" height="22" viewBox="0 0 22 22" fill="none" xmlns="http://www.w3.org/2000/svg">
<g clip-path="url(#clip0_2207_23179)">
<path d="M3.68604 21.6426H17.9008C20.3618 21.6426 21.5805 20.4238 21.5805 18.0097V3.70117C21.5805 1.28711 20.3618 0.0683594 17.9008 0.0683594H3.68604C1.23682 0.0683594 0.00634766 1.27539 0.00634766 3.70117V18.0097C0.00634766 20.4355 1.23682 21.6426 3.68604 21.6426Z" fill="black" fill-opacity="0.85"/>
<path d="M9.48682 16.5683C9.08838 16.5683 8.76026 16.4043 8.45557 15.9941L5.51416 12.3847C5.33838 12.1504 5.23291 11.8926 5.23291 11.623C5.23291 11.0957 5.64307 10.6621 6.18213 10.6621C6.51026 10.6621 6.76807 10.7676 7.06104 11.1543L9.43994 14.2246L14.4438 6.18554C14.6665 5.83398 14.9712 5.64648 15.2875 5.64648C15.7915 5.64648 16.2719 5.99804 16.2719 6.54883C16.2719 6.80664 16.1313 7.07617 15.979 7.32226L10.4711 15.9941C10.2252 16.3808 9.88526 16.5683 9.48682 16.5683Z" fill="white"/>
</g>
<defs>
<clipPath id="clip0_2207_23179">
<rect width="21.5742" height="21.5977" fill="white" transform="translate(0.00634766 0.0449219)"/>
</clipPath>
</defs>
</svg>
