<svg width="20" height="25" viewBox="0 0 20 25" fill="none" xmlns="http://www.w3.org/2000/svg">
<g clip-path="url(#clip0_2207_23214)">
<path d="M9.73828 24.3379C9.92578 24.3379 10.2305 24.2676 10.5234 24.1035C17.1914 20.3652 19.4766 18.7832 19.4766 14.5058V5.54101C19.4766 4.31054 18.9492 3.92383 17.9531 3.50195C16.5703 2.92773 12.1055 1.32226 10.7227 0.841797C10.4062 0.736328 10.0664 0.666016 9.73828 0.666016C9.41016 0.666016 9.07031 0.759766 8.76562 0.841797C7.38281 1.24023 2.90625 2.93945 1.52344 3.50195C0.539062 3.91211 0 4.31054 0 5.54101V14.5058C0 18.7832 2.29688 20.3535 8.95312 24.1035C9.25781 24.2676 9.55078 24.3379 9.73828 24.3379ZM9.73828 22.2168C9.55078 22.2168 9.36328 22.1465 9.01172 21.9355C3.59766 18.6543 1.86328 17.6933 1.86328 14.0722V5.9043C1.86328 5.50586 1.93359 5.35351 2.26172 5.22461C4.04297 4.52148 7.5 3.36133 9.26953 2.6582C9.45703 2.57617 9.60938 2.55273 9.73828 2.55273C9.86719 2.55273 10.0195 2.58789 10.207 2.6582C11.9766 3.36133 15.4102 4.60351 17.2266 5.22461C17.543 5.3418 17.6133 5.50586 17.6133 5.9043V14.0722C17.6133 17.6933 15.8789 18.6426 10.4648 21.9355C10.125 22.1465 9.92578 22.2168 9.73828 22.2168Z" fill="black" fill-opacity="0.85"/>
<path d="M8.46094 17.4941C8.84766 17.4941 9.17578 17.3066 9.41016 16.9551L14.7656 8.51758C14.9062 8.29492 15.0469 8.03711 15.0469 7.76758C15.0469 7.25195 14.5781 6.91211 14.0977 6.91211C13.793 6.91211 13.5 7.08789 13.2773 7.43945L8.41406 15.2441L6.10547 12.2558C5.82422 11.8808 5.56641 11.7754 5.25 11.7754C4.73438 11.7754 4.33594 12.1855 4.33594 12.7129C4.33594 12.959 4.44141 13.2168 4.60547 13.4394L7.46484 16.9551C7.75781 17.3418 8.07422 17.4941 8.46094 17.4941Z" fill="black" fill-opacity="0.85"/>
</g>
<defs>
<clipPath id="clip0_2207_23214">
<rect width="19.4766" height="24.293" fill="white" transform="translate(0 0.0449219)"/>
</clipPath>
</defs>
</svg>
