<svg width="27" height="25" viewBox="0 0 27 25" fill="none" xmlns="http://www.w3.org/2000/svg">
<g clip-path="url(#clip0_2207_9027)">
<path d="M4.72265 24.4771C6.12891 24.4771 9.63281 22.9419 11.625 21.5123C11.8242 21.3716 11.9882 21.313 12.1523 21.313C12.3047 21.3247 12.457 21.3365 12.6093 21.3365C21.0586 21.3365 26.6601 16.5318 26.6601 10.6958C26.6601 4.80127 20.7539 0.043457 13.3711 0.043457C5.98828 0.043457 0.0820312 4.80127 0.0820312 10.6958C0.0820312 14.4458 2.39062 17.7388 6.15234 19.7544C6.32812 19.8482 6.38672 20.024 6.29297 20.1997C5.63672 21.2779 4.46484 22.5669 4.01953 23.1529C3.5625 23.7388 3.82031 24.4771 4.72265 24.4771Z" fill="black" fill-opacity="0.85"/>
<path d="M12.0586 16.5318C11.6601 16.5318 11.332 16.3794 11.0273 15.9693L8.08594 12.3599C7.91015 12.1255 7.80469 11.856 7.80469 11.5982C7.80469 11.0591 8.21484 10.6255 8.75391 10.6255C9.08203 10.6255 9.33984 10.7427 9.63281 11.1294L12.0117 14.188L17.0156 6.16065C17.2382 5.79737 17.5429 5.62158 17.8593 5.62158C18.3632 5.62158 18.8437 5.97315 18.8437 6.51221C18.8437 6.77002 18.6914 7.05127 18.5508 7.28565L13.0429 15.9693C12.7968 16.3443 12.457 16.5318 12.0586 16.5318Z" fill="white"/>
</g>
<defs>
<clipPath id="clip0_2207_9027">
<rect width="26.5781" height="24.4336" fill="white" transform="translate(0.0820312 0.043457)"/>
</clipPath>
</defs>
</svg>
