<svg width="27" height="27" viewBox="0 0 27 27" fill="none" xmlns="http://www.w3.org/2000/svg">
<g clip-path="url(#clip0_2207_7867)">
<path d="M6.30616 23.5147H8.83741C9.0835 23.5147 9.25928 23.585 9.43506 23.7608L11.2398 25.5538C12.7163 27.042 14.0874 27.0303 15.564 25.5538L17.3687 23.7608C17.5445 23.585 17.7202 23.5147 17.9663 23.5147H20.4976C22.5952 23.5147 23.5679 22.5538 23.5679 20.4444V17.9131C23.5679 17.667 23.6382 17.503 23.814 17.3155L25.5952 15.5108C27.0835 14.0342 27.0718 12.6749 25.5952 11.1866L23.814 9.38184C23.6382 9.20606 23.5679 9.03028 23.5679 8.79591V6.25294C23.5679 4.167 22.607 3.18262 20.4976 3.18262H17.9663C17.7202 3.18262 17.5445 3.12403 17.3687 2.94825L15.564 1.15528C14.0874 -0.333004 12.7163 -0.321285 11.2398 1.15528L9.43506 2.94825C9.25928 3.12403 9.0835 3.18262 8.83741 3.18262H6.30616C4.2085 3.18262 3.23584 4.14356 3.23584 6.25294V8.79591C3.23584 9.03028 3.17725 9.20606 3.00147 9.38184L1.2085 11.1866C-0.279781 12.6749 -0.268062 14.0342 1.2085 15.5108L3.00147 17.3155C3.17725 17.503 3.23584 17.667 3.23584 17.9131V20.4444C3.23584 22.542 4.2085 23.5147 6.30616 23.5147ZM6.30616 21.6514C5.26319 21.6514 5.09913 21.4874 5.09913 20.4444V17.292C5.09913 16.9405 4.99366 16.6709 4.73584 16.4131L2.521 14.21C1.78272 13.46 1.78272 13.2491 2.521 12.4991L4.73584 10.2959C4.99366 10.0381 5.09913 9.76856 5.09913 9.40528V6.25294C5.09913 5.19825 5.25147 5.04591 6.30616 5.04591H9.4585C9.82178 5.04591 10.0913 4.95216 10.3491 4.68262L12.5523 2.46778C13.3023 1.7295 13.5132 1.7295 14.2515 2.46778L16.4663 4.68262C16.7124 4.95216 16.9937 5.04591 17.3452 5.04591H20.4976C21.5406 5.04591 21.7046 5.20997 21.7046 6.25294V9.40528C21.7046 9.76856 21.8218 10.0381 22.0796 10.2959L24.2945 12.4991C25.0327 13.2491 25.0327 13.46 24.2945 14.21L22.0796 16.4131C21.8218 16.6709 21.7046 16.9405 21.7046 17.292V20.4444C21.7046 21.4874 21.5406 21.6514 20.4976 21.6514H17.3452C16.9937 21.6514 16.7124 21.7569 16.4663 22.0264L14.2515 24.2413C13.5132 24.9795 13.3023 24.9795 12.5523 24.2413L10.3491 22.0264C10.0913 21.7569 9.82178 21.6514 9.4585 21.6514H6.30616Z" fill="black" fill-opacity="0.85"/>
<path d="M12.1304 18.9091C12.5171 18.9091 12.8452 18.7216 13.0796 18.3701L18.4351 9.93261C18.564 9.70996 18.7163 9.45215 18.7163 9.18261C18.7163 8.66699 18.2476 8.32715 17.7671 8.32715C17.4624 8.32715 17.1695 8.50293 16.9468 8.85449L12.0835 16.6591L9.7749 13.6708C9.49365 13.2958 9.23583 13.1904 8.91943 13.1904C8.4038 13.1904 8.00537 13.6005 8.00537 14.1279C8.00537 14.374 8.11083 14.6318 8.2749 14.8544L11.1343 18.3701C11.4273 18.7568 11.7437 18.9091 12.1304 18.9091Z" fill="black" fill-opacity="0.85"/>
</g>
<defs>
<clipPath id="clip0_2207_7867">
<rect width="26.6104" height="26.7275" fill="white" transform="translate(0.0966797 0.043457)"/>
</clipPath>
</defs>
</svg>
