<svg width="20" height="26" viewBox="0 0 20 26" fill="none" xmlns="http://www.w3.org/2000/svg">
<g clip-path="url(#clip0_2207_23194)">
<path d="M0.0881348 21.5005C0.0881348 23.9497 1.29516 25.1685 3.72094 25.1685H16.1662C18.592 25.1685 19.799 23.9497 19.799 21.5005V3.72315C19.799 1.28565 18.592 0.043457 16.1662 0.043457H3.72094C1.29516 0.043457 0.0881348 1.28565 0.0881348 3.72315V21.5005ZM1.97485 21.4654V3.7583C1.97485 2.58643 2.59594 1.93018 3.81469 1.93018H16.0725C17.2912 1.93018 17.9123 2.58643 17.9123 3.7583V21.4654C17.9123 22.6373 17.2912 23.2818 16.0725 23.2818H3.81469C2.59594 23.2818 1.97485 22.6373 1.97485 21.4654Z" fill="black" fill-opacity="0.85"/>
<path d="M8.67798 18.1724C9.0647 18.1724 9.39283 17.9849 9.61548 17.6216L14.9709 9.19579C15.1115 8.96142 15.2639 8.70361 15.2639 8.44579C15.2639 7.91845 14.7951 7.57861 14.3029 7.57861C13.9983 7.57861 13.7053 7.76611 13.4943 8.10595L8.61939 15.9107L6.3108 12.9224C6.04126 12.5474 5.77173 12.4537 5.45533 12.4537C4.9397 12.4537 4.55298 12.8638 4.55298 13.3794C4.55298 13.6373 4.64673 13.8833 4.8108 14.106L7.67017 17.6216C7.97486 18.0083 8.27955 18.1724 8.67798 18.1724Z" fill="black" fill-opacity="0.85"/>
</g>
<defs>
<clipPath id="clip0_2207_23194">
<rect width="19.7109" height="25.1367" fill="white" transform="translate(0.0881348 0.043457)"/>
</clipPath>
</defs>
</svg>
