<svg width="27" height="27" viewBox="0 0 27 27" fill="none" xmlns="http://www.w3.org/2000/svg">
<g clip-path="url(#clip0_2207_23209)">
<path d="M1.38535 15.924L10.7721 25.3107C12.5065 27.0451 14.2174 27.0568 15.94 25.3458L25.3736 15.9005C27.0846 14.1896 27.0729 12.4669 25.3385 10.7326L15.9635 1.35752C14.2291 -0.37686 12.5182 -0.400298 10.7955 1.32236L1.35019 10.756C-0.372466 12.4787 -0.349028 14.1896 1.38535 15.924Z" fill="black" fill-opacity="0.85"/>
<path d="M12.061 19.0646C11.6509 19.0646 11.3345 18.9005 11.0181 18.4904L8.08838 14.881C7.90088 14.6466 7.80713 14.3888 7.80713 14.1193C7.80713 13.5919 8.20557 13.1583 8.74463 13.1583C9.07276 13.1583 9.34229 13.2638 9.62354 13.6505L12.0142 16.7208L17.0181 8.68174C17.229 8.33017 17.5337 8.14267 17.8501 8.14267C18.3657 8.14267 18.8462 8.49424 18.8462 9.04502C18.8462 9.30283 18.6939 9.57236 18.5532 9.81846L13.0337 18.4904C12.7993 18.8771 12.4595 19.0646 12.061 19.0646Z" fill="white"/>
</g>
<defs>
<clipPath id="clip0_2207_23209">
<rect width="26.5768" height="26.593" fill="white" transform="translate(0.0712891 0.043457)"/>
</clipPath>
</defs>
</svg>
