<svg width="18" height="26" viewBox="0 0 18 26" fill="none" xmlns="http://www.w3.org/2000/svg">
<g clip-path="url(#clip0_2207_14106)">
<path d="M0.0483398 17.3287C0.0483398 19.1451 0.763184 20.481 2.0874 21.2076C2.73193 21.5474 3.10693 21.981 3.34131 22.7662L3.71631 24.0201C3.93896 24.7701 4.46631 25.1333 5.25146 25.1333H10.6655C11.4741 25.1333 11.9663 24.7818 12.1889 24.0201L12.5756 22.7662C12.81 21.981 13.185 21.5474 13.8295 21.2076C15.1538 20.481 15.8686 19.1451 15.8686 17.3287V7.84815C15.8686 6.03174 15.1538 4.70752 13.8295 3.96924C13.185 3.6294 12.81 3.1958 12.5756 2.42237L12.1889 1.15674C11.9897 0.418457 11.4624 0.043457 10.6655 0.043457H5.25146C4.46631 0.043457 3.93896 0.406738 3.71631 1.15674L3.34131 2.42237C3.11865 3.18408 2.74365 3.64112 2.0874 3.96924C0.774902 4.67237 0.0483398 6.0083 0.0483398 7.84815V17.3287ZM1.75928 17.0826V8.10596C1.75928 6.35987 2.77881 5.30518 4.48975 5.30518H11.4272C13.1381 5.30518 14.1577 6.35987 14.1577 8.10596V17.0826C14.1577 18.8169 13.1381 19.8716 11.4272 19.8716H4.48975C2.77881 19.8716 1.75928 18.8169 1.75928 17.0826ZM15.6108 11.7623H16.0327C16.6421 11.7623 17.0405 11.3521 17.0405 10.6841V9.10205C17.0405 8.43408 16.6421 8.02393 16.0327 8.02393H15.6108V11.7623Z" fill="black" fill-opacity="0.85"/>
<path d="M6.97407 17.0356C7.29048 17.0356 7.56001 16.8832 7.74751 16.5786L12.0249 9.85203C12.6694 8.84422 11.3217 8.10594 10.7241 9.0786L6.93891 15.1606L5.12251 12.8168C4.39595 11.8676 3.14204 12.8637 3.89204 13.8012L6.15376 16.5786C6.39985 16.895 6.65767 17.0356 6.97407 17.0356Z" fill="black" fill-opacity="0.85"/>
</g>
<defs>
<clipPath id="clip0_2207_14106">
<rect width="16.9922" height="25.0898" fill="white" transform="translate(0.0483398 0.043457)"/>
</clipPath>
</defs>
</svg>
