<svg width="27" height="24" viewBox="0 0 27 24" fill="none" xmlns="http://www.w3.org/2000/svg">
<g clip-path="url(#clip0_2207_22147)">
<path d="M13.6475 19.5787H25.4131C25.9053 19.5787 26.3154 19.1919 26.3154 18.6997C26.3154 18.1958 25.9053 17.8091 25.4131 17.8091H13.6475C13.1553 17.8091 12.7568 18.1958 12.7568 18.6997C12.7568 19.1919 13.1553 19.5787 13.6475 19.5787Z" fill="black" fill-opacity="0.85"/>
<path d="M5.09277 23.7505C7.84668 23.7505 10.1436 21.4654 10.1436 18.7115C10.1436 15.9341 7.84668 13.6373 5.09277 13.6373C2.32715 13.6373 0.0419922 15.9341 0.0419922 18.7115C0.0419922 21.4654 2.33887 23.7505 5.09277 23.7505ZM4.49511 21.4185C4.24902 21.4185 4.08496 21.2779 3.90918 21.0904L2.59668 19.4966C2.47949 19.3677 2.44433 19.2271 2.44433 19.0396C2.44433 18.6997 2.70215 18.4419 3.01855 18.4419C3.24121 18.4419 3.40527 18.524 3.55761 18.7349L4.47168 19.8951L6.55761 16.5435C6.69824 16.3208 6.87402 16.2037 7.08496 16.2037C7.41308 16.2037 7.69433 16.4615 7.69433 16.7662C7.69433 16.9302 7.64746 17.0591 7.54199 17.2349L5.09277 21.0787C4.96387 21.3013 4.75293 21.4185 4.49511 21.4185Z" fill="black" fill-opacity="0.85"/>
<path d="M13.6475 6.03174H25.4131C25.9053 6.03174 26.3154 5.64502 26.3154 5.14112C26.3154 4.64893 25.9053 4.26221 25.4131 4.26221H13.6475C13.1553 4.26221 12.7568 4.64893 12.7568 5.14112C12.7568 5.64502 13.1553 6.03174 13.6475 6.03174Z" fill="black" fill-opacity="0.85"/>
<path d="M5.09277 10.1802C7.84668 10.1802 10.1436 7.89502 10.1436 5.14112C10.1436 2.37549 7.84668 0.0786133 5.09277 0.0786133C2.32715 0.0786133 0.0419922 2.37549 0.0419922 5.14112C0.0419922 7.89502 2.33887 10.1802 5.09277 10.1802ZM4.49511 7.84815C4.24902 7.84815 4.08496 7.71924 3.90918 7.52002L2.59668 5.93799C2.47949 5.80908 2.44433 5.66846 2.44433 5.48096C2.44433 5.14112 2.70215 4.87158 3.01855 4.87158C3.24121 4.87158 3.40527 4.96534 3.55761 5.16455L4.47168 6.32471L6.55761 2.97315C6.69824 2.76221 6.87402 2.64502 7.08496 2.64502C7.41308 2.64502 7.69433 2.90284 7.69433 3.1958C7.69433 3.35987 7.64746 3.50049 7.54199 3.67627L5.09277 7.52002C4.96387 7.73096 4.75293 7.84815 4.49511 7.84815Z" fill="black" fill-opacity="0.85"/>
</g>
<defs>
<clipPath id="clip0_2207_22147">
<rect width="26.2734" height="23.707" fill="white" transform="translate(0.0419922 0.043457)"/>
</clipPath>
</defs>
</svg>
