<svg width="28" height="22" viewBox="0 0 28 22" fill="none" xmlns="http://www.w3.org/2000/svg">
<g clip-path="url(#clip0_2207_23189)">
<path d="M3.76587 21.6177H24.0393C26.5003 21.6177 27.719 20.4107 27.719 17.9966V3.67627C27.719 1.26221 26.5003 0.043457 24.0393 0.043457H3.76587C1.31665 0.043457 0.0861816 1.26221 0.0861816 3.67627V17.9966C0.0861816 20.4107 1.31665 21.6177 3.76587 21.6177Z" fill="black" fill-opacity="0.85"/>
<path d="M12.6018 16.5669C12.1917 16.5669 11.8753 16.4029 11.5589 15.9927L8.62915 12.3833C8.44165 12.149 8.3479 11.8912 8.3479 11.6216C8.3479 11.0943 8.74634 10.6607 9.2854 10.6607C9.61352 10.6607 9.88306 10.7662 10.1643 11.1529L12.555 14.2232L17.5589 6.18408C17.7698 5.83252 18.0745 5.64502 18.3909 5.64502C18.9065 5.64502 19.387 5.99658 19.387 6.54737C19.387 6.80518 19.2346 7.07471 19.094 7.3208L13.5745 15.9927C13.3401 16.3794 13.0003 16.5669 12.6018 16.5669Z" fill="white"/>
</g>
<defs>
<clipPath id="clip0_2207_23189">
<rect width="27.6328" height="21.5742" fill="white" transform="translate(0.0861816 0.043457)"/>
</clipPath>
</defs>
</svg>
