<svg width="16" height="23" viewBox="0 0 16 23" fill="none" xmlns="http://www.w3.org/2000/svg">
<g clip-path="url(#clip0_2207_23388)">
<path d="M7.89502 0.0449219C7.59033 0.0449219 7.3208 0.16211 7.08642 0.396484L0.39502 6.81836C0.219238 6.99414 0.090332 7.24023 0.090332 7.58008C0.090332 8.18945 0.547363 8.6582 1.15674 8.6582C1.41455 8.6582 1.6958 8.58789 1.94189 8.3418L7.89502 2.51758L13.8364 8.3418C14.0942 8.57617 14.3637 8.6582 14.6215 8.6582C15.2309 8.6582 15.688 8.18945 15.688 7.58008C15.688 7.24023 15.5708 6.99414 15.3833 6.81836L8.69189 0.396484C8.45752 0.16211 8.18799 0.0449219 7.89502 0.0449219ZM7.89502 22.6152C8.18799 22.6152 8.45752 22.4863 8.69189 22.2637L15.3833 15.8418C15.5708 15.6543 15.688 15.4199 15.688 15.0683C15.688 14.459 15.2309 14.0019 14.6215 14.0019C14.3637 14.0019 14.0942 14.084 13.8364 14.3183L7.89502 20.1426L1.94189 14.3183C1.6958 14.0722 1.41455 14.0019 1.15674 14.0019C0.547363 14.0019 0.090332 14.459 0.090332 15.0683C0.090332 15.4199 0.219238 15.6543 0.39502 15.8418L7.08642 22.2637C7.3208 22.4863 7.59033 22.6152 7.89502 22.6152Z" fill="black" fill-opacity="0.85"/>
</g>
<defs>
<clipPath id="clip0_2207_23388">
<rect width="15.5977" height="22.582" fill="white" transform="translate(0.090332 0.0449219)"/>
</clipPath>
</defs>
</svg>
