<svg width="21" height="13" viewBox="0 0 21 13" fill="none" xmlns="http://www.w3.org/2000/svg">
<g clip-path="url(#clip0_2207_23364)">
<path d="M10.2151 12.5254C10.5081 12.5254 10.801 12.4082 11.0003 12.1855L20.0706 2.89258C20.2698 2.69336 20.387 2.43554 20.387 2.14258C20.387 1.5332 19.9299 1.06445 19.3206 1.06445C19.0276 1.06445 18.7581 1.18164 18.5588 1.36914L9.58227 10.5449H10.8362L1.85961 1.36914C1.67211 1.18164 1.40258 1.06445 1.0979 1.06445C0.488525 1.06445 0.0314941 1.5332 0.0314941 2.14258C0.0314941 2.43554 0.148682 2.69336 0.3479 2.9043L9.41821 12.1855C9.64087 12.4082 9.9104 12.5254 10.2151 12.5254Z" fill="black" fill-opacity="0.85"/>
</g>
<defs>
<clipPath id="clip0_2207_23364">
<rect width="20.3555" height="12.4805" fill="white" transform="translate(0.0314941 0.0449219)"/>
</clipPath>
</defs>
</svg>
