<svg width="24" height="24" viewBox="0 0 24 24" fill="none" xmlns="http://www.w3.org/2000/svg">
<g clip-path="url(#clip0_2207_23368)">
<path d="M11.9867 23.9511C18.5258 23.9511 23.9398 18.5254 23.9398 11.998C23.9398 5.45898 18.5141 0.0449219 11.975 0.0449219C5.44763 0.0449219 0.0335693 5.45898 0.0335693 11.998C0.0335693 18.5254 5.45935 23.9511 11.9867 23.9511ZM11.9867 21.959C6.45545 21.959 2.03748 17.5293 2.03748 11.998C2.03748 6.4668 6.44373 2.03711 11.975 2.03711C17.5063 2.03711 21.9477 6.4668 21.9477 11.998C21.9477 17.5293 17.518 21.959 11.9867 21.959Z" fill="black" fill-opacity="0.85"/>
<path d="M13.1469 15.7715L17.7406 10.8965C18.0922 10.5215 18.1039 9.98243 17.7758 9.65431C17.4125 9.29102 16.85 9.27931 16.5219 9.63087L11.9867 14.4355L7.45155 9.63087C7.1117 9.27931 6.53749 9.27931 6.18592 9.65431C5.86952 9.99415 5.88124 10.5215 6.22108 10.8965L10.8266 15.7715C11.5531 16.5566 12.4086 16.5566 13.1469 15.7715Z" fill="black" fill-opacity="0.85"/>
</g>
<defs>
<clipPath id="clip0_2207_23368">
<rect width="23.9062" height="23.918" fill="white" transform="translate(0.0335693 0.0449219)"/>
</clipPath>
</defs>
</svg>
