<svg width="24" height="24" viewBox="0 0 24 24" fill="none" xmlns="http://www.w3.org/2000/svg">
<g clip-path="url(#clip0_2207_23233)">
<path d="M12.0161 23.9511C18.5552 23.9511 23.9692 18.5254 23.9692 11.998C23.9692 5.45898 18.5435 0.0449219 12.0044 0.0449219C5.47705 0.0449219 0.0629883 5.45898 0.0629883 11.998C0.0629883 18.5254 5.48877 23.9511 12.0161 23.9511Z" fill="black" fill-opacity="0.85"/>
<path d="M14.3364 17.7988C14.0318 18.0918 13.4224 18.0683 13.0942 17.7637L8.21924 13.1582C7.55127 12.5488 7.55127 11.4707 8.21924 10.8613L13.0942 6.25587C13.4575 5.91602 13.9966 5.90431 14.3247 6.22071C14.688 6.56055 14.6997 7.14649 14.3482 7.47462L9.53174 11.998L14.3482 16.5449C14.688 16.873 14.6997 17.4355 14.3364 17.7988Z" fill="white"/>
</g>
<defs>
<clipPath id="clip0_2207_23233">
<rect width="23.9062" height="23.918" fill="white" transform="translate(0.0629883 0.0449219)"/>
</clipPath>
</defs>
</svg>
