<svg width="22" height="22" viewBox="0 0 22 22" fill="none" xmlns="http://www.w3.org/2000/svg">
<g clip-path="url(#clip0_2207_23310)">
<path d="M3.7301 21.6426H17.9449C20.4059 21.6426 21.6246 20.4238 21.6246 18.0097V3.70117C21.6246 1.28711 20.4059 0.0683594 17.9449 0.0683594H3.7301C1.28088 0.0683594 0.050415 1.27539 0.050415 3.70117V18.0097C0.050415 20.4355 1.28088 21.6426 3.7301 21.6426ZM3.75354 19.7558C2.58167 19.7558 1.93713 19.1347 1.93713 17.916V3.79492C1.93713 2.57617 2.58167 1.95508 3.75354 1.95508H17.9215C19.0816 1.95508 19.7379 2.57617 19.7379 3.79492V17.916C19.7379 19.1347 19.0816 19.7558 17.9215 19.7558H3.75354Z" fill="black" fill-opacity="0.85"/>
<path d="M8.18323 16.6387C8.48792 16.9316 9.0973 16.9082 9.42542 16.6035L14.3004 11.998C14.9684 11.3887 14.9684 10.3105 14.3004 9.70118L9.42542 5.09571C9.06214 4.75587 8.52308 4.74415 8.19495 5.06055C7.83167 5.4004 7.81995 5.98634 8.17151 6.31446L12.9879 10.8379L8.17151 15.3847C7.83167 15.7129 7.81995 16.2754 8.18323 16.6387Z" fill="black" fill-opacity="0.85"/>
</g>
<defs>
<clipPath id="clip0_2207_23310">
<rect width="21.5742" height="21.5977" fill="white" transform="translate(0.050415 0.0449219)"/>
</clipPath>
</defs>
</svg>
