<svg width="21" height="6" viewBox="0 0 21 6" fill="none" xmlns="http://www.w3.org/2000/svg">
<g clip-path="url(#clip0_2207_23392)">
<path d="M0.7677 3.64258C0.322388 3.81836 0.0294189 4.2168 0.0294189 4.63867C0.0294189 5.33008 0.533325 5.85742 1.21301 5.85742C1.5763 5.85742 2.03333 5.6582 2.3263 5.54101L11.3028 2.02539H9.65051L18.6271 5.54101C18.92 5.6582 19.3888 5.85742 19.7403 5.85742C20.42 5.85742 20.9239 5.33008 20.9239 4.63867C20.9239 4.2168 20.631 3.81836 20.1856 3.64258L12.1935 0.513672C11.6544 0.302734 10.9982 0.0449219 10.4825 0.0449219C9.9552 0.0449219 9.31067 0.302734 8.77161 0.513672L0.7677 3.64258Z" fill="black" fill-opacity="0.85"/>
</g>
<defs>
<clipPath id="clip0_2207_23392">
<rect width="20.8945" height="5.94141" fill="white" transform="translate(0.0294189 0.0449219)"/>
</clipPath>
</defs>
</svg>
