<svg width="14" height="21" viewBox="0 0 14 21" fill="none" xmlns="http://www.w3.org/2000/svg">
<g clip-path="url(#clip0_2207_3321)">
<path d="M13.5562 19.334C13.5562 19.041 13.4507 18.7832 13.2398 18.5722L3.97022 9.50195V10.9433L13.2398 1.88476C13.4507 1.68554 13.5562 1.41601 13.5562 1.12304C13.5562 0.501953 13.0874 0.0449219 12.4898 0.0449219C12.1733 0.0449219 11.939 0.16211 11.7163 0.361328L2.42334 9.44336C2.21241 9.6543 2.0835 9.92383 2.0835 10.2285C2.0835 10.5332 2.21241 10.791 2.43506 11.0137L11.7163 20.084C11.9272 20.3066 12.1733 20.4121 12.478 20.4121C13.0874 20.4121 13.5562 19.9433 13.5562 19.334ZM2.11866 19.3926V1.08789C2.11866 0.478516 1.68506 0.0449219 1.06397 0.0449219C0.45459 0.0449219 0.0209961 0.478516 0.0209961 1.08789V19.3926C0.0209961 19.9902 0.45459 20.4121 1.06397 20.4121C1.68506 20.4121 2.11866 19.9902 2.11866 19.3926Z" fill="black" fill-opacity="0.85"/>
</g>
<defs>
<clipPath id="clip0_2207_3321">
<rect width="13.5352" height="20.3789" fill="white" transform="translate(0.0209961 0.0449219)"/>
</clipPath>
</defs>
</svg>
