<svg width="22" height="22" viewBox="0 0 22 22" fill="none" xmlns="http://www.w3.org/2000/svg">
<g clip-path="url(#clip0_2207_23238)">
<path d="M3.74683 21.6426H17.9616C20.4226 21.6426 21.6413 20.4238 21.6413 18.0097V3.70117C21.6413 1.28711 20.4226 0.0683594 17.9616 0.0683594H3.74683C1.29761 0.0683594 0.0671387 1.27539 0.0671387 3.70117V18.0097C0.0671387 20.4355 1.29761 21.6426 3.74683 21.6426ZM3.77026 19.7558C2.59839 19.7558 1.95386 19.1347 1.95386 17.916V3.79492C1.95386 2.57617 2.59839 1.95508 3.77026 1.95508H17.9382C19.0983 1.95508 19.7546 2.57617 19.7546 3.79492V17.916C19.7546 19.1347 19.0983 19.7558 17.9382 19.7558H3.77026Z" fill="black" fill-opacity="0.85"/>
<path d="M13.1804 16.6387C13.5437 16.2754 13.5319 15.7129 13.1921 15.3847L8.37573 10.8379L13.1921 6.31446C13.5437 5.98634 13.5319 5.4004 13.1687 5.06055C12.8405 4.74415 12.3015 4.75587 11.9382 5.09571L7.06323 9.70118C6.39526 10.3105 6.39526 11.3887 7.06323 11.998L11.9382 16.6035C12.2663 16.9082 12.8757 16.9316 13.1804 16.6387Z" fill="black" fill-opacity="0.85"/>
</g>
<defs>
<clipPath id="clip0_2207_23238">
<rect width="21.5742" height="21.5977" fill="white" transform="translate(0.0671387 0.0449219)"/>
</clipPath>
</defs>
</svg>
