<svg width="12" height="21" viewBox="0 0 12 21" fill="none" xmlns="http://www.w3.org/2000/svg">
<g clip-path="url(#clip0_2207_23296)">
<path d="M11.5029 10.2168C11.5029 9.92383 11.3858 9.6543 11.1631 9.44336L1.88183 0.34961C1.6709 0.150391 1.41308 0.0449219 1.1084 0.0449219C0.510742 0.0449219 0.0419922 0.501953 0.0419922 1.11133C0.0419922 1.4043 0.15918 1.67383 0.34668 1.87304L8.87793 10.2168L0.34668 18.5605C0.15918 18.7597 0.0419922 19.0176 0.0419922 19.3222C0.0419922 19.9316 0.510742 20.3887 1.1084 20.3887C1.41308 20.3887 1.6709 20.2832 1.88183 20.0722L11.1631 10.9902C11.3858 10.7676 11.5029 10.5097 11.5029 10.2168Z" fill="black" fill-opacity="0.85"/>
</g>
<defs>
<clipPath id="clip0_2207_23296">
<rect width="11.4609" height="20.3555" fill="white" transform="translate(0.0419922 0.0449219)"/>
</clipPath>
</defs>
</svg>
