<svg width="22" height="22" viewBox="0 0 22 22" fill="none" xmlns="http://www.w3.org/2000/svg">
<g clip-path="url(#clip0_2207_23359)">
<path d="M3.77832 21.6426H17.9931C20.4541 21.6426 21.6728 20.4238 21.6728 18.0097V3.70117C21.6728 1.28711 20.4541 0.0683594 17.9931 0.0683594H3.77832C1.3291 0.0683594 0.0986328 1.27539 0.0986328 3.70117V18.0097C0.0986328 20.4355 1.3291 21.6426 3.77832 21.6426Z" fill="black" fill-opacity="0.85"/>
<path d="M4.92672 13.6621C4.58688 13.334 4.5986 12.7597 4.9736 12.3847L9.69626 7.3457C10.458 6.54883 11.3369 6.54883 12.1103 7.3457L16.833 12.3847C17.208 12.7597 17.2197 13.334 16.8798 13.6621C16.5048 14.0488 15.9189 14.0488 15.5791 13.6855L10.9033 8.72851L6.22751 13.6855C5.87594 14.0488 5.30172 14.0488 4.92672 13.6621Z" fill="white"/>
</g>
<defs>
<clipPath id="clip0_2207_23359">
<rect width="21.5742" height="21.5977" fill="white" transform="translate(0.0986328 0.0449219)"/>
</clipPath>
</defs>
</svg>
