<svg width="22" height="22" viewBox="0 0 22 22" fill="none" xmlns="http://www.w3.org/2000/svg">
<g clip-path="url(#clip0_2207_23315)">
<path d="M3.73218 21.6426H17.947C20.408 21.6426 21.6267 20.4238 21.6267 18.0097V3.70117C21.6267 1.28711 20.408 0.0683594 17.947 0.0683594H3.73218C1.28296 0.0683594 0.0524902 1.27539 0.0524902 3.70117V18.0097C0.0524902 20.4355 1.28296 21.6426 3.73218 21.6426Z" fill="black" fill-opacity="0.85"/>
<path d="M8.07986 16.8261C7.70486 16.4511 7.70486 15.8652 8.06814 15.5254L13.0369 10.8496L8.06814 6.18554C7.69314 5.83398 7.70486 5.23633 8.09158 4.88476C8.43143 4.54492 8.99393 4.58008 9.36893 4.93164L14.3963 9.6543C15.0877 10.2988 15.0877 11.4121 14.3963 12.0449L9.36893 16.7793C9.02908 17.1074 8.39627 17.1308 8.07986 16.8261Z" fill="white"/>
</g>
<defs>
<clipPath id="clip0_2207_23315">
<rect width="21.5742" height="21.5977" fill="white" transform="translate(0.0524902 0.0449219)"/>
</clipPath>
</defs>
</svg>
