<svg width="22" height="22" viewBox="0 0 22 22" fill="none" xmlns="http://www.w3.org/2000/svg">
<g clip-path="url(#clip0_2207_23383)">
<path d="M3.71961 21.6426H17.9344C20.3954 21.6426 21.6141 20.4238 21.6141 18.0097V3.70117C21.6141 1.28711 20.3954 0.0683594 17.9344 0.0683594H3.71961C1.27039 0.0683594 0.039917 1.27539 0.039917 3.70117V18.0097C0.039917 20.4355 1.27039 21.6426 3.71961 21.6426Z" fill="black" fill-opacity="0.85"/>
<path d="M12.0516 14.7051C11.2899 15.5137 10.411 15.5137 9.64929 14.7051L4.91491 9.67773C4.53991 9.29101 4.53991 8.74023 4.86803 8.38867C5.24303 8.00195 5.82897 8.00195 6.16882 8.36523L10.8563 13.3222L15.5321 8.36523C15.8719 8.00195 16.4461 8.01367 16.8329 8.38867C17.1727 8.72851 17.161 9.29101 16.786 9.67773L12.0516 14.7051Z" fill="white"/>
</g>
<defs>
<clipPath id="clip0_2207_23383">
<rect width="21.5742" height="21.5977" fill="white" transform="translate(0.039917 0.0449219)"/>
</clipPath>
</defs>
</svg>
