<svg width="24" height="24" viewBox="0 0 24 24" fill="none" xmlns="http://www.w3.org/2000/svg">
<g clip-path="url(#clip0_2207_23252)">
<path d="M11.9658 23.9511C18.5049 23.9511 23.9189 18.5254 23.9189 11.998C23.9189 5.45898 18.4932 0.0449219 11.9541 0.0449219C5.42675 0.0449219 0.0126953 5.45898 0.0126953 11.998C0.0126953 18.5254 5.43848 23.9511 11.9658 23.9511ZM11.9658 21.959C6.43458 21.959 2.01661 17.5293 2.01661 11.998C2.01661 6.4668 6.42285 2.03711 11.9541 2.03711C17.4854 2.03711 21.9268 6.4668 21.9268 11.998C21.9268 17.5293 17.4971 21.959 11.9658 21.959Z" fill="black" fill-opacity="0.85"/>
<path d="M14.2744 17.7988C14.6377 17.4355 14.626 16.873 14.2861 16.5449L9.46973 11.998L14.2861 7.47462C14.6377 7.14649 14.626 6.56055 14.2627 6.22071C13.9346 5.90431 13.3955 5.91602 13.0322 6.25587L8.15723 10.8613C7.48926 11.4707 7.48926 12.5488 8.15723 13.1582L13.0322 17.7637C13.3604 18.0683 13.9697 18.0918 14.2744 17.7988Z" fill="black" fill-opacity="0.85"/>
</g>
<defs>
<clipPath id="clip0_2207_23252">
<rect width="23.9062" height="23.918" fill="white" transform="translate(0.0126953 0.0449219)"/>
</clipPath>
</defs>
</svg>
