<svg width="24" height="24" viewBox="0 0 24 24" fill="none" xmlns="http://www.w3.org/2000/svg">
<g clip-path="url(#clip0_2207_23373)">
<path d="M11.9887 23.9511C18.5278 23.9511 23.9418 18.5254 23.9418 11.998C23.9418 5.45898 18.5161 0.0449219 11.977 0.0449219C5.4497 0.0449219 0.0356445 5.45898 0.0356445 11.998C0.0356445 18.5254 5.46142 23.9511 11.9887 23.9511Z" fill="black" fill-opacity="0.85"/>
<path d="M13.2075 15.8652C12.4458 16.6738 11.5668 16.6738 10.8051 15.8652L6.07079 10.8379C5.69579 10.4511 5.69579 9.9004 6.02391 9.54884C6.39891 9.16212 6.98485 9.16212 7.32469 9.5254L12.0004 14.4824L16.6762 9.5254C17.0278 9.16212 17.602 9.17384 17.9887 9.54884C18.3286 9.88868 18.3051 10.4511 17.9418 10.8379L13.2075 15.8652Z" fill="white"/>
</g>
<defs>
<clipPath id="clip0_2207_23373">
<rect width="23.9062" height="23.918" fill="white" transform="translate(0.0356445 0.0449219)"/>
</clipPath>
</defs>
</svg>
