<svg width="17" height="22" viewBox="0 0 17 22" fill="none" xmlns="http://www.w3.org/2000/svg">
<g clip-path="url(#clip0_2207_26282)">
<path d="M8.03906 21.7492C8.69531 21.7492 9.14062 21.2805 9.14062 20.6125V12.5734L15.8438 1.7688C16.0195 1.49926 16.0781 1.28833 16.0781 1.03052C16.0781 0.468018 15.6094 0.0461426 14.9883 0.0461426C14.5664 0.0461426 14.2383 0.221924 14.0039 0.632081L8.08594 10.5461H8.00391L2.08594 0.632081C1.83984 0.221924 1.51172 0.0461426 1.08984 0.0461426C0.480469 0.0461426 0 0.468018 0 1.03052C0 1.28833 0.0703125 1.49926 0.234375 1.7688L6.94922 12.5734V20.6125C6.94922 21.2805 7.39453 21.7492 8.03906 21.7492ZM2.41406 12.843H13.7695C14.2148 12.843 14.5078 12.5149 14.5078 12.0813C14.5078 11.6477 14.2148 11.3195 13.7695 11.3195H2.41406C1.96875 11.3195 1.67578 11.6477 1.67578 12.0813C1.67578 12.5149 1.96875 12.843 2.41406 12.843ZM2.41406 16.8625H13.7695C14.2148 16.8625 14.5078 16.5344 14.5078 16.1008C14.5078 15.6672 14.2266 15.3273 13.7695 15.3273H2.41406C1.96875 15.3273 1.67578 15.6672 1.67578 16.1008C1.67578 16.5227 1.96875 16.8625 2.41406 16.8625Z" fill="black" fill-opacity="0.85"/>
</g>
<defs>
<clipPath id="clip0_2207_26282">
<rect width="16.0781" height="21.7148" fill="white" transform="translate(0 0.0461426)"/>
</clipPath>
</defs>
</svg>
