<svg width="28" height="22" viewBox="0 0 28 22" fill="none" xmlns="http://www.w3.org/2000/svg">
<g clip-path="url(#clip0_2207_19120)">
<path d="M0.0440674 6.24683H1.93079V3.79761C1.93079 2.57886 2.57532 1.95777 3.74719 1.95777H6.17298V0.0710449H3.72376C1.27454 0.0710449 0.0440674 1.27808 0.0440674 3.70386V6.24683ZM0.0440674 13.864H1.93079V7.8523H0.0440674V13.864ZM3.72376 21.6453H6.17298V19.7585H3.74719C2.57532 19.7585 1.93079 19.1374 1.93079 17.9187V15.4695H0.0440674V18.0124C0.0440674 20.4382 1.27454 21.6453 3.72376 21.6453ZM7.77845 21.6453H13.0636V19.7585H7.77845V21.6453ZM14.6574 21.6453H19.9425V19.7585H14.6574V21.6453ZM23.9972 21.6453C26.4464 21.6453 27.6769 20.4382 27.6769 18.0124V15.4695H25.7902V17.9187C25.7902 19.1374 25.1457 19.7585 23.9738 19.7585H21.548V21.6453H23.9972ZM27.6769 6.24683V3.70386C27.6769 1.27808 26.4464 0.0710449 23.9972 0.0710449H21.548V1.95777H23.9738C25.1457 1.95777 25.7902 2.57886 25.7902 3.79761V6.24683H27.6769ZM27.6769 13.864V7.8523H25.7902V13.864H27.6769ZM7.77845 1.95777H13.0636V0.0710449H7.77845V1.95777ZM14.6574 1.95777H19.9425V0.0710449H14.6574V1.95777Z" fill="black" fill-opacity="0.85"/>
<path d="M13.8136 17.3796C17.4113 17.3796 20.3293 14.4617 20.3293 10.8523C20.3293 7.25464 17.4113 4.33667 13.8136 4.33667C10.2043 4.33667 7.28625 7.25464 7.28625 10.8523C7.28625 14.4617 10.2043 17.3796 13.8136 17.3796ZM13.8136 15.8679C11.0246 15.8679 8.79798 13.6414 8.79798 10.8523C8.79798 8.06323 11.0246 5.84839 13.8136 5.84839C16.6027 5.84839 18.8175 8.06323 18.8175 10.8523C18.8175 13.6414 16.6027 15.8679 13.8136 15.8679Z" fill="black" fill-opacity="0.85"/>
</g>
<defs>
<clipPath id="clip0_2207_19120">
<rect width="27.6328" height="21.5977" fill="white" transform="translate(0.0440674 0.0476074)"/>
</clipPath>
</defs>
</svg>
