<svg width="25" height="24" viewBox="0 0 25 24" fill="none" xmlns="http://www.w3.org/2000/svg">
<g clip-path="url(#clip0_2207_6171)">
<path d="M12.0517 23.9523C18.5908 23.9523 24.0048 18.5266 24.0048 11.9992C24.0048 5.4602 18.5791 0.0461426 12.04 0.0461426C5.51269 0.0461426 0.0986328 5.4602 0.0986328 11.9992C0.0986328 18.5266 5.52441 23.9523 12.0517 23.9523ZM12.0517 21.9602C6.52051 21.9602 2.10254 17.5305 2.10254 11.9992C2.10254 6.46802 6.50879 2.03833 12.04 2.03833C17.5713 2.03833 22.0127 6.46802 22.0127 11.9992C22.0127 17.5305 17.583 21.9602 12.0517 21.9602Z" fill="black" fill-opacity="0.85"/>
<path d="M7.95019 9.79614C8.84082 9.79614 9.55566 9.05786 9.55566 8.16723C9.55566 7.28833 8.84082 6.55005 7.95019 6.55005C7.05957 6.55005 6.33301 7.28833 6.33301 8.16723C6.33301 9.05786 7.05957 9.79614 7.95019 9.79614ZM12.04 9.79614C12.9306 9.79614 13.6572 9.05786 13.6572 8.16723C13.6572 7.27661 12.9306 6.55005 12.04 6.55005C11.1494 6.56176 10.4111 7.27661 10.4111 8.16723C10.4111 9.05786 11.1494 9.79614 12.04 9.79614ZM16.1298 9.79614C17.0205 9.79614 17.747 9.05786 17.747 8.16723C17.747 7.27661 17.0205 6.55005 16.1298 6.55005C15.2392 6.56176 14.5244 7.27661 14.5244 8.16723C14.5244 9.05786 15.2392 9.79614 16.1298 9.79614ZM7.95019 13.6164C8.84082 13.6164 9.55566 12.8781 9.55566 11.9875C9.55566 11.0969 8.84082 10.3703 7.95019 10.382C7.05957 10.382 6.33301 11.0969 6.33301 11.9875C6.33301 12.8781 7.05957 13.6164 7.95019 13.6164ZM12.04 13.6164C12.9306 13.6164 13.6572 12.8781 13.6572 11.9875C13.6572 11.0969 12.9306 10.3703 12.04 10.382C11.1494 10.382 10.4111 11.0969 10.4111 11.9875C10.4111 12.8781 11.1494 13.6164 12.04 13.6164ZM16.1298 13.6164C17.0205 13.6164 17.747 12.8781 17.747 11.9875C17.747 11.0969 17.0205 10.3703 16.1298 10.382C15.2392 10.382 14.5244 11.0969 14.5244 11.9875C14.5244 12.8781 15.2392 13.6164 16.1298 13.6164ZM7.95019 17.4367C8.84082 17.4367 9.55566 16.7102 9.55566 15.8195C9.55566 14.9289 8.84082 14.1906 7.95019 14.1906C7.05957 14.1906 6.33301 14.9289 6.33301 15.8195C6.33301 16.6984 7.05957 17.4367 7.95019 17.4367ZM12.04 17.4367C12.9306 17.4367 13.6572 16.6984 13.6572 15.8195C13.6572 14.9289 12.9306 14.1906 12.04 14.1906C11.1494 14.1906 10.4111 14.9289 10.4111 15.8195C10.4111 16.6984 11.1494 17.4367 12.04 17.4367ZM16.1298 17.4367C17.0205 17.4367 17.747 16.6984 17.747 15.8195C17.747 14.9289 17.0205 14.1906 16.1298 14.1906C15.2392 14.1906 14.5244 14.9289 14.5244 15.8195C14.5244 16.6984 15.2392 17.4367 16.1298 17.4367Z" fill="black" fill-opacity="0.85"/>
</g>
<defs>
<clipPath id="clip0_2207_6171">
<rect width="23.9062" height="23.918" fill="white" transform="translate(0.0986328 0.0461426)"/>
</clipPath>
</defs>
</svg>
