<svg width="24" height="24" viewBox="0 0 24 24" fill="none" xmlns="http://www.w3.org/2000/svg">
<g clip-path="url(#clip0_2207_5886)">
<path d="M12.0161 23.9523C18.5552 23.9523 23.9692 18.5266 23.9692 11.9992C23.9692 5.4602 18.5435 0.0461426 12.0044 0.0461426C5.47705 0.0461426 0.0629883 5.4602 0.0629883 11.9992C0.0629883 18.5266 5.48877 23.9523 12.0161 23.9523ZM12.0161 21.9602C6.48487 21.9602 2.0669 17.5305 2.0669 11.9992C2.0669 6.46802 6.47315 2.03833 12.0044 2.03833C17.5357 2.03833 21.9771 6.46802 21.9771 11.9992C21.9771 17.5305 17.5474 21.9602 12.0161 21.9602Z" fill="black" fill-opacity="0.85"/>
<path d="M12.0044 7.59302C12.4849 7.59302 12.8364 7.24145 12.8364 6.76098C12.8364 6.28052 12.4849 5.92896 12.0044 5.92896C11.5239 5.92896 11.1724 6.28052 11.1724 6.76098C11.1724 7.24145 11.5239 7.59302 12.0044 7.59302ZM14.6294 8.29614C15.1216 8.29614 15.4732 7.94459 15.4732 7.46412C15.4732 6.98365 15.1216 6.63208 14.6294 6.63208C14.1489 6.63208 13.7974 6.98365 13.7974 7.46412C13.7974 7.94459 14.1489 8.29614 14.6294 8.29614ZM16.5513 10.218C17.0318 10.218 17.3833 9.86645 17.3833 9.38598C17.3833 8.90552 17.0318 8.55395 16.5513 8.55395C16.0708 8.55395 15.7192 8.90552 15.7192 9.38598C15.7192 9.86645 16.0708 10.218 16.5513 10.218ZM17.2544 12.843C17.7349 12.843 18.0864 12.4914 18.0864 12.0109C18.0864 11.5305 17.7349 11.1789 17.2544 11.1789C16.7739 11.1789 16.4224 11.5305 16.4224 12.0109C16.4224 12.4914 16.7739 12.843 17.2544 12.843ZM16.5513 15.4797C17.0318 15.4797 17.3833 15.1281 17.3833 14.6477C17.3833 14.1555 17.0318 13.8039 16.5513 13.8039C16.0708 13.8039 15.7192 14.1555 15.7192 14.6477C15.7192 15.1281 16.0708 15.4797 16.5513 15.4797ZM14.6294 17.3899C15.1216 17.3899 15.4732 17.0383 15.4732 16.5578C15.4732 16.0773 15.1216 15.7258 14.6294 15.7258C14.1489 15.7258 13.7974 16.0773 13.7974 16.5578C13.7974 17.0383 14.1489 17.3899 14.6294 17.3899ZM12.0044 18.093C12.4849 18.093 12.8364 17.7414 12.8364 17.2609C12.8364 16.7805 12.4849 16.4289 12.0044 16.4289C11.5239 16.4289 11.1724 16.7805 11.1724 17.2609C11.1724 17.7414 11.5239 18.093 12.0044 18.093ZM9.37939 17.3899C9.85986 17.3899 10.2114 17.0383 10.2114 16.5578C10.2114 16.0773 9.85986 15.7258 9.37939 15.7258C8.89892 15.7258 8.54736 16.0773 8.54736 16.5578C8.54736 17.0383 8.89892 17.3899 9.37939 17.3899ZM7.45751 15.4797C7.93798 15.4797 8.28954 15.1281 8.28954 14.6477C8.28954 14.1555 7.93798 13.8039 7.45751 13.8039C6.97704 13.8039 6.62548 14.1555 6.62548 14.6477C6.62548 15.1281 6.97704 15.4797 7.45751 15.4797ZM6.75439 12.843C7.23486 12.843 7.58642 12.4914 7.58642 12.0109C7.58642 11.5305 7.23486 11.1789 6.75439 11.1789C6.27392 11.1789 5.92236 11.5305 5.92236 12.0109C5.92236 12.4914 6.27392 12.843 6.75439 12.843ZM7.45751 10.218C7.93798 10.218 8.28954 9.86645 8.28954 9.38598C8.28954 8.90552 7.93798 8.55395 7.45751 8.55395C6.97704 8.55395 6.62548 8.90552 6.62548 9.38598C6.62548 9.86645 6.97704 10.218 7.45751 10.218ZM9.37939 8.29614C9.85986 8.29614 10.2114 7.94459 10.2114 7.46412C10.2114 6.98365 9.85986 6.63208 9.37939 6.63208C8.89892 6.63208 8.54736 6.98365 8.54736 7.46412C8.54736 7.94459 8.89892 8.29614 9.37939 8.29614Z" fill="black" fill-opacity="0.85"/>
</g>
<defs>
<clipPath id="clip0_2207_5886">
<rect width="23.9062" height="23.918" fill="white" transform="translate(0.0629883 0.0461426)"/>
</clipPath>
</defs>
</svg>
