<svg width="24" height="24" viewBox="0 0 24 24" fill="none" xmlns="http://www.w3.org/2000/svg">
<g clip-path="url(#clip0_2207_20634)">
<path d="M12.0035 23.9523C18.5426 23.9523 23.9566 18.5266 23.9566 11.9992C23.9566 5.4602 18.5309 0.0461426 11.9918 0.0461426C5.46447 0.0461426 0.050415 5.4602 0.050415 11.9992C0.050415 18.5266 5.4762 23.9523 12.0035 23.9523Z" fill="black" fill-opacity="0.85"/>
<path d="M12.0035 18.4914C8.48791 18.4914 5.53479 15.5266 5.53479 12.0109C5.53479 8.48364 8.47619 5.53052 12.0035 5.53052C15.5192 5.53052 18.484 8.49536 18.484 12.0109C18.484 15.5383 15.5309 18.4914 12.0035 18.4914ZM12.0035 16.593C14.5113 16.593 16.5738 14.5188 16.5738 12.0109C16.5738 9.51489 14.4996 7.42895 12.0035 7.42895C9.49572 7.42895 7.43322 9.50317 7.43322 12.0109C7.43322 14.507 9.51916 16.593 12.0035 16.593Z" fill="white"/>
</g>
<defs>
<clipPath id="clip0_2207_20634">
<rect width="23.9062" height="23.918" fill="white" transform="translate(0.050415 0.0461426)"/>
</clipPath>
</defs>
</svg>
