<svg width="25" height="24" viewBox="0 0 25 24" fill="none" xmlns="http://www.w3.org/2000/svg">
<g clip-path="url(#clip0_2207_6147)">
<path d="M20.7803 23.05C22.667 23.05 24.2022 21.4914 24.2022 19.6281C24.2022 17.7414 22.667 16.2063 20.7803 16.2063C18.9053 16.2063 17.3701 17.7414 17.3701 19.6281C17.3701 21.4914 18.9053 23.05 20.7803 23.05ZM20.7803 21.3742C19.7959 21.3742 19.0576 20.6008 19.0576 19.6164C19.0576 18.6438 19.7959 17.8586 20.7803 17.8586C21.7647 17.8586 22.5381 18.6438 22.5381 19.6164C22.5381 20.6008 21.7647 21.3742 20.7803 21.3742Z" fill="black" fill-opacity="0.85"/>
<path d="M12.1553 23.05C14.0186 23.05 15.5772 21.4914 15.5772 19.6281C15.5772 17.7414 14.0186 16.2063 12.1553 16.2063C10.2803 16.2063 8.72168 17.7414 8.72168 19.6281C8.72168 21.4914 10.2803 23.05 12.1553 23.05ZM12.1553 21.3742C11.1709 21.3742 10.3975 20.6008 10.3975 19.6164C10.3975 18.6438 11.1709 17.8586 12.1553 17.8586C13.1397 17.8586 13.9014 18.6438 13.9014 19.6164C13.9014 20.6008 13.1397 21.3742 12.1553 21.3742Z" fill="black" fill-opacity="0.85"/>
<path d="M3.51856 23.05C5.39356 23.05 6.92871 21.4914 6.92871 19.6281C6.92871 17.7414 5.39356 16.2063 3.51856 16.2063C1.63184 16.2063 0.0966797 17.7414 0.0966797 19.6281C0.0966797 21.4914 1.63184 23.05 3.51856 23.05ZM3.51856 21.3742C2.53418 21.3742 1.77246 20.6008 1.77246 19.6164C1.77246 18.6438 2.53418 17.8586 3.51856 17.8586C4.50293 17.8586 5.25293 18.6438 5.25293 19.6164C5.25293 20.6008 4.50293 21.3742 3.51856 21.3742Z" fill="black" fill-opacity="0.85"/>
<path d="M20.7803 14.9758C22.667 14.9758 24.2022 13.4172 24.2022 11.5539C24.2022 9.67895 22.667 8.13208 20.7803 8.1438C18.9053 8.15552 17.3701 9.67895 17.3701 11.5539C17.3701 13.4172 18.9053 14.9758 20.7803 14.9758ZM20.7803 13.3C19.7959 13.3 19.0576 12.5266 19.0576 11.5422C19.0576 10.5695 19.7959 9.78442 20.7803 9.78442C21.7647 9.78442 22.5381 10.5695 22.5381 11.5422C22.5381 12.5266 21.7647 13.3 20.7803 13.3Z" fill="black" fill-opacity="0.85"/>
<path d="M12.1553 14.9758C14.0186 14.9758 15.5772 13.4172 15.5772 11.5539C15.5772 9.67895 14.0186 8.13208 12.1553 8.1438C10.2803 8.15552 8.72168 9.67895 8.72168 11.5539C8.72168 13.4172 10.2803 14.9758 12.1553 14.9758ZM12.1553 13.3C11.1709 13.3 10.3975 12.5266 10.3975 11.5422C10.3975 10.5695 11.1709 9.78442 12.1553 9.78442C13.1397 9.78442 13.9014 10.5695 13.9014 11.5422C13.9014 12.5266 13.1397 13.3 12.1553 13.3Z" fill="black" fill-opacity="0.85"/>
<path d="M3.51856 14.9758C5.39356 14.9758 6.92871 13.4172 6.92871 11.5539C6.92871 9.67895 5.39356 8.13208 3.51856 8.1438C1.63184 8.15552 0.0966797 9.67895 0.0966797 11.5539C0.0966797 13.4172 1.63184 14.9758 3.51856 14.9758ZM3.51856 13.3C2.53418 13.3 1.77246 12.5266 1.77246 11.5422C1.77246 10.5695 2.53418 9.78442 3.51856 9.78442C4.50293 9.78442 5.25293 10.5695 5.25293 11.5422C5.25293 12.5266 4.50293 13.3 3.51856 13.3Z" fill="black" fill-opacity="0.85"/>
<path d="M20.7803 6.91334C22.667 6.91334 24.2022 5.35474 24.2022 3.47974C24.2022 1.59303 22.667 0.0461476 20.7803 0.0578664C18.9053 0.0695851 17.3701 1.59303 17.3701 3.47974C17.3701 5.35474 18.9053 6.91334 20.7803 6.91334ZM20.7803 5.22584C19.7959 5.22584 19.0576 4.4524 19.0576 3.47974C19.0576 2.49537 19.7959 1.72193 20.7803 1.72193C21.7647 1.72193 22.5381 2.49537 22.5381 3.47974C22.5381 4.4524 21.7647 5.22584 20.7803 5.22584Z" fill="black" fill-opacity="0.85"/>
<path d="M12.1553 6.91334C14.0186 6.91334 15.5772 5.35474 15.5772 3.47974C15.5772 1.59303 14.0186 0.0461476 12.1553 0.0578664C10.2803 0.0695851 8.72168 1.59303 8.72168 3.47974C8.72168 5.35474 10.2803 6.91334 12.1553 6.91334ZM12.1553 5.16724C11.1944 5.16724 10.4561 4.41724 10.4561 3.47974C10.4561 2.53053 11.1944 1.76881 12.1553 1.76881C13.1162 1.76881 13.8311 2.53053 13.8428 3.47974C13.8662 4.41724 13.1162 5.16724 12.1553 5.16724Z" fill="black" fill-opacity="0.85"/>
<path d="M3.51856 6.90161C5.39356 6.90161 6.92871 5.35473 6.92871 3.49145C6.92871 1.61645 5.39356 0.0578613 3.51856 0.0578613C1.63184 0.0578613 0.0966797 1.61645 0.0966797 3.49145C0.0966797 5.35473 1.63184 6.90161 3.51856 6.90161ZM3.51856 5.16723C2.55762 5.16723 1.81934 4.41723 1.81934 3.47973C1.81934 2.53052 2.55762 1.7688 3.51856 1.7688C4.46777 1.7688 5.21777 2.53052 5.21777 3.47973C5.21777 4.41723 4.46777 5.16723 3.51856 5.16723Z" fill="black" fill-opacity="0.85"/>
</g>
<defs>
<clipPath id="clip0_2207_6147">
<rect width="24.1055" height="23.0039" fill="white" transform="translate(0.0966797 0.0461426)"/>
</clipPath>
</defs>
</svg>
