<svg width="24" height="23" viewBox="0 0 24 23" fill="none" xmlns="http://www.w3.org/2000/svg">
<g clip-path="url(#clip0_2207_6133)">
<path d="M18.104 22.3C20.9048 22.3 23.2017 19.9914 23.2017 17.1906C23.2017 14.4016 20.9048 12.093 18.104 12.093C15.2798 12.093 12.9946 14.4016 12.9946 17.1906C12.9946 19.9914 15.2798 22.3 18.104 22.3ZM18.104 20.4602C16.2525 20.4602 14.8228 19.0305 14.8228 17.1906C14.8228 15.3742 16.2525 13.8859 18.104 13.8859C19.9321 13.8859 21.3735 15.3742 21.3735 17.1906C21.3735 19.0305 19.9321 20.4602 18.104 20.4602Z" fill="black" fill-opacity="0.85"/>
<path d="M5.20166 22.3C8.00245 22.3 10.3111 19.9914 10.3111 17.1906C10.3111 14.4016 8.00245 12.093 5.20166 12.093C2.37744 12.093 0.0922852 14.4016 0.0922852 17.1906C0.0922852 19.9914 2.37744 22.3 5.20166 22.3ZM5.20166 20.4602C3.36181 20.4602 1.92041 19.0305 1.92041 17.1906C1.92041 15.3742 3.36181 13.8859 5.20166 13.8859C7.02979 13.8859 8.4712 15.3742 8.4712 17.1906C8.4712 19.0305 7.02979 20.4602 5.20166 20.4602Z" fill="black" fill-opacity="0.85"/>
<path d="M18.104 10.2531C20.9048 10.2531 23.2017 7.94458 23.2017 5.1438C23.2017 2.34302 20.9048 0.0461426 18.104 0.0461426C15.2798 0.0461426 12.9946 2.34302 12.9946 5.1438C12.9946 7.94458 15.2798 10.2531 18.104 10.2531ZM18.104 8.40161C16.2525 8.40161 14.8228 6.97192 14.8228 5.1438C14.8228 3.31567 16.2525 1.83911 18.104 1.83911C19.9321 1.83911 21.3735 3.31567 21.3735 5.1438C21.3735 6.97192 19.9321 8.40161 18.104 8.40161Z" fill="black" fill-opacity="0.85"/>
<path d="M5.20166 10.2531C8.00245 10.2531 10.3111 7.94458 10.3111 5.1438C10.3111 2.34302 8.00245 0.0461426 5.20166 0.0461426C2.37744 0.0461426 0.0922852 2.34302 0.0922852 5.1438C0.0922852 7.94458 2.37744 10.2531 5.20166 10.2531ZM5.20166 8.40161C3.36181 8.40161 1.92041 6.97192 1.92041 5.1438C1.92041 3.31567 3.36181 1.83911 5.20166 1.83911C7.02979 1.83911 8.4712 3.31567 8.4712 5.1438C8.4712 6.97192 7.02979 8.40161 5.20166 8.40161Z" fill="black" fill-opacity="0.85"/>
</g>
<defs>
<clipPath id="clip0_2207_6133">
<rect width="23.1094" height="22.2539" fill="white" transform="translate(0.0922852 0.0461426)"/>
</clipPath>
</defs>
</svg>
