<svg width="26" height="24" viewBox="0 0 26 24" fill="none" xmlns="http://www.w3.org/2000/svg">
<g clip-path="url(#clip0_2207_6189)">
<path d="M16.8215 23.2742C18.9543 23.2742 20.7356 21.4929 20.7356 19.3601C20.7356 17.2156 18.9543 15.446 16.8215 15.446C14.6887 15.446 12.9074 17.2156 12.9074 19.3601C12.9074 21.4929 14.6887 23.2742 16.8215 23.2742ZM16.8215 21.3874C15.7199 21.3874 14.7941 20.4617 14.7941 19.3601C14.7941 18.2585 15.7199 17.3328 16.8215 17.3328C17.923 17.3328 18.8488 18.2585 18.8488 19.3601C18.8488 20.4617 17.923 21.3874 16.8215 21.3874Z" fill="black" fill-opacity="0.85"/>
<path d="M8.23169 23.2742C10.3645 23.2742 12.1457 21.4812 12.1457 19.3601C12.1457 17.2156 10.3645 15.446 8.23169 15.446C6.09888 15.446 4.31763 17.2156 4.31763 19.3601C4.31763 21.4929 6.09888 23.2742 8.23169 23.2742ZM8.23169 21.3874C7.13013 21.3874 6.20435 20.4617 6.20435 19.3601C6.20435 18.2585 7.13013 17.3328 8.23169 17.3328C9.33326 17.3328 10.259 18.2585 10.259 19.3601C10.259 20.4617 9.33326 21.3874 8.23169 21.3874Z" fill="black" fill-opacity="0.85"/>
<path d="M21.1223 15.5749C23.2551 15.5749 25.0363 13.7937 25.0363 11.6609C25.0363 9.52808 23.2551 7.74683 21.1223 7.74683C18.9895 7.74683 17.1965 9.52808 17.1965 11.6609C17.1965 13.7937 18.9895 15.5749 21.1223 15.5749ZM21.1223 13.6882C20.0207 13.6882 19.0832 12.7624 19.0832 11.6609C19.0832 10.5593 20.0207 9.63355 21.1223 9.63355C22.2238 9.63355 23.1496 10.5593 23.1496 11.6609C23.1496 12.7624 22.2238 13.6882 21.1223 13.6882Z" fill="black" fill-opacity="0.85"/>
<path d="M12.5324 15.5749C14.6652 15.5749 16.4465 13.7937 16.4465 11.6609C16.4465 9.52808 14.6652 7.74683 12.5324 7.74683C10.3879 7.74683 8.60669 9.52808 8.60669 11.6609C8.60669 13.7937 10.3879 15.5749 12.5324 15.5749ZM12.5324 13.6882C11.4191 13.6882 10.4934 12.7624 10.4934 11.6609C10.4934 10.5593 11.4191 9.63355 12.5324 9.63355C13.634 9.63355 14.5598 10.5593 14.5598 11.6609C14.5598 12.7624 13.634 13.6882 12.5324 13.6882Z" fill="black" fill-opacity="0.85"/>
<path d="M3.93091 15.5749C6.07544 15.5749 7.85669 13.7937 7.85669 11.6609C7.85669 9.52808 6.07544 7.74683 3.93091 7.74683C1.7981 7.74683 0.0168457 9.52808 0.0168457 11.6609C0.0168457 13.7937 1.7981 15.5749 3.93091 15.5749ZM3.93091 13.6882C2.82935 13.6882 1.90357 12.7624 1.90357 11.6609C1.90357 10.5593 2.82935 9.63355 3.93091 9.63355C5.03247 9.63355 5.96997 10.5593 5.96997 11.6609C5.96997 12.7624 5.03247 13.6882 3.93091 13.6882Z" fill="black" fill-opacity="0.85"/>
<path d="M16.8215 7.86402C18.9543 7.86402 20.7356 6.09449 20.7356 3.96167C20.7356 1.82886 18.9543 0.0476074 16.8215 0.0476074C14.6887 0.0476074 12.9074 1.82886 12.9074 3.96167C12.9074 6.09449 14.6887 7.86402 16.8215 7.86402ZM16.8215 5.9773C15.7199 5.9773 14.7941 5.05152 14.7941 3.96167C14.7941 2.86011 15.7199 1.93433 16.8215 1.93433C17.923 1.93433 18.8488 2.86011 18.8488 3.96167C18.8488 5.05152 17.923 5.9773 16.8215 5.9773Z" fill="black" fill-opacity="0.85"/>
<path d="M8.23169 7.86402C10.3645 7.86402 12.1457 6.09449 12.1457 3.96167C12.1457 1.82886 10.3645 0.0476074 8.23169 0.0476074C6.09888 0.0476074 4.31763 1.82886 4.31763 3.96167C4.31763 6.09449 6.09888 7.86402 8.23169 7.86402ZM8.23169 5.9773C7.13013 5.9773 6.20435 5.05152 6.20435 3.96167C6.20435 2.86011 7.13013 1.93433 8.23169 1.93433C9.33326 1.93433 10.259 2.86011 10.259 3.96167C10.259 5.05152 9.33326 5.9773 8.23169 5.9773Z" fill="black" fill-opacity="0.85"/>
</g>
<defs>
<clipPath id="clip0_2207_6189">
<rect width="25.0195" height="23.2383" fill="white" transform="translate(0.0168457 0.0476074)"/>
</clipPath>
</defs>
</svg>
