<svg width="28" height="22" viewBox="0 0 28 22" fill="none" xmlns="http://www.w3.org/2000/svg">
<g clip-path="url(#clip0_2207_19110)">
<path d="M1.18286 11.3914L11.718 0.856201H9.2102L1.18286 8.89527V11.3914ZM13.6867 5.27417H16.1828L20.5539 0.903076L18.1633 0.809326L13.6867 5.27417ZM1.25317 20.1921L8.01489 13.4421V10.9578L1.18286 17.7898L1.25317 20.1921ZM19.382 11.0398L26.3664 4.05542L26.2727 1.67652L19.382 8.57886V11.0398ZM9.93676 20.4968L14.0031 16.4187H11.5188L7.53442 20.4031L9.93676 20.4968ZM16.3703 20.4499H18.8781L26.343 12.9734V10.4656L16.3703 20.4499ZM3.72583 21.6218H23.9992C26.4602 21.6218 27.6789 20.4148 27.6789 18.0007V3.68042C27.6789 1.26636 26.4602 0.0476074 23.9992 0.0476074H3.72583C1.27661 0.0476074 0.0461426 1.26636 0.0461426 3.68042V18.0007C0.0461426 20.4148 1.27661 21.6218 3.72583 21.6218ZM3.74926 19.7351C2.57739 19.7351 1.93286 19.114 1.93286 17.8953V3.78589C1.93286 2.56714 2.57739 1.93433 3.74926 1.93433H23.9758C25.1359 1.93433 25.7922 2.56714 25.7922 3.78589V17.8953C25.7922 19.114 25.1359 19.7351 23.9758 19.7351H3.74926Z" fill="black" fill-opacity="0.85"/>
<path d="M13.8156 17.3679C17.4133 17.3679 20.3313 14.4499 20.3313 10.8406C20.3313 7.24292 17.4133 4.32495 13.8156 4.32495C10.2063 4.32495 7.28833 7.24292 7.28833 10.8406C7.28833 14.4499 10.2063 17.3679 13.8156 17.3679ZM13.8156 15.8562C11.0266 15.8562 8.80005 13.6296 8.80005 10.8406C8.80005 8.05152 11.0266 5.83667 13.8156 5.83667C16.6047 5.83667 18.8195 8.05152 18.8195 10.8406C18.8195 13.6296 16.6047 15.8562 13.8156 15.8562Z" fill="black" fill-opacity="0.85"/>
</g>
<defs>
<clipPath id="clip0_2207_19110">
<rect width="27.6328" height="21.5742" fill="white" transform="translate(0.0461426 0.0476074)"/>
</clipPath>
</defs>
</svg>
