<svg width="20" height="27" viewBox="0 0 20 27" fill="none" xmlns="http://www.w3.org/2000/svg">
<g clip-path="url(#clip0_2207_13847)">
<path d="M3.31543 26.4484H16.4052C18.3505 26.4484 19.6513 25.2063 19.6513 23.3547V3.15161C19.6513 1.30005 18.3505 0.0461426 16.4052 0.0461426H3.31543C1.37012 0.0461426 0.0693359 1.30005 0.0693359 3.15161V23.3547C0.0693359 25.2063 1.37012 26.4484 3.31543 26.4484ZM3.54981 24.5617C2.542 24.5617 1.95606 23.9992 1.95606 23.0383V3.46802C1.95606 2.50708 2.542 1.93286 3.54981 1.93286H16.1709C17.167 1.93286 17.7646 2.50708 17.7646 3.46802V23.0383C17.7646 23.9992 17.167 24.5617 16.1709 24.5617H3.54981Z" fill="black" fill-opacity="0.85"/>
<path d="M9.85449 19.0656C13.0654 19.0656 15.6787 16.4641 15.6787 13.2414C15.6787 10.0422 13.0654 7.44067 9.85449 7.44067C6.65527 7.44067 4.04199 10.0422 4.04199 13.2414C4.04199 16.4641 6.65527 19.0656 9.85449 19.0656Z" fill="black" fill-opacity="0.85"/>
</g>
<defs>
<clipPath id="clip0_2207_13847">
<rect width="19.582" height="26.4258" fill="white" transform="translate(0.0693359 0.0461426)"/>
</clipPath>
</defs>
</svg>
