<svg width="24" height="24" viewBox="0 0 24 24" fill="none" xmlns="http://www.w3.org/2000/svg">
<g clip-path="url(#clip0_2207_5896)">
<path d="M18.3391 5.65942V7.24145H19.9328V5.65942H18.3391ZM16.757 7.24145V8.82348H18.3391V7.24145H16.757ZM15.1633 8.82348V10.4172H16.757V8.82348H15.1633ZM13.5813 10.4172V11.9992H15.1633V10.4172H13.5813ZM11.9992 11.9992V13.593H13.5813V11.9992H11.9992ZM10.4055 13.593V15.175H11.9992V13.593H10.4055ZM8.82348 15.175V16.7688H10.4055V15.175H8.82348ZM7.22973 16.7688V18.3508H8.82348V16.7688H7.22973ZM5.6477 18.3508V19.9445H7.22973V18.3508H5.6477ZM7.22973 21.2805L7.53442 21.5266H8.82348V19.9445H7.22973V21.2805ZM8.82348 18.3508V19.9445H10.4055V18.3508H8.82348ZM10.4055 16.7688V18.3508H11.9992V16.7688H10.4055ZM11.9992 15.175V16.7688H13.5813V15.175H11.9992ZM13.5813 13.593V15.175H15.1633V13.593H13.5813ZM15.1633 11.9992V13.593H16.757V11.9992H15.1633ZM16.757 10.4172V11.9992H18.3391V10.4172H16.757ZM18.3391 8.82348V10.4172H19.9328V8.82348H18.3391ZM21.5149 8.80005V10.4172H22.8742V8.80005H21.5149ZM19.9328 10.4172V11.9992H21.5149V10.4172H19.9328ZM18.3391 11.9992V13.593H19.9328V11.9992H18.3391ZM16.757 13.593V15.175H18.3391V13.593H16.757ZM15.1633 15.175V16.7688H16.757V15.175H15.1633ZM13.5813 16.7688V18.3508H15.1633V16.7688H13.5813ZM11.9992 18.3508V19.9445H13.5813V18.3508H11.9992ZM10.4055 19.9445V21.5266H11.9992V19.9445H10.4055ZM8.78833 21.5266V22.8742H10.4055V21.5266H8.78833ZM11.9992 21.5266V22.9445H13.5813V21.5266H11.9992ZM13.5813 19.9445V21.5266H15.1633V19.9445H13.5813ZM15.1633 18.3508V19.9445H16.757V18.3508H15.1633ZM16.757 16.7688V18.3508H18.3391V16.7688H16.757ZM18.3391 15.175V16.7688H19.9328V15.175H18.3391ZM19.9328 13.593V15.175H21.5149V13.593H19.9328ZM21.5149 11.9992V13.593H22.9328V11.9992H21.5149ZM19.9328 16.7688V18.3508H21.2219L21.468 16.7688H19.9328ZM18.3391 18.3508V19.9445H19.6867L19.9328 19.7102V18.3508H18.3391ZM16.757 19.9445V21.4797L18.3391 21.2453V19.9445H16.757ZM21.5149 7.66333L21.1281 7.24145H19.9328V8.82348H21.5149V7.66333ZM11.9992 23.9523C18.5383 23.9523 23.9523 18.5266 23.9523 11.9992C23.9523 5.4602 18.5266 0.0461426 11.9875 0.0461426C5.4602 0.0461426 0.0461426 5.4602 0.0461426 11.9992C0.0461426 18.5266 5.47192 23.9523 11.9992 23.9523ZM11.9992 21.9602C6.46802 21.9602 2.05005 17.5305 2.05005 11.9992C2.05005 6.46802 6.4563 2.03833 11.9875 2.03833C17.5188 2.03833 21.9602 6.46802 21.9602 11.9992C21.9602 17.5305 17.5305 21.9602 11.9992 21.9602Z" fill="black" fill-opacity="0.85"/>
</g>
<defs>
<clipPath id="clip0_2207_5896">
<rect width="23.9062" height="23.918" fill="white" transform="translate(0.0461426 0.0461426)"/>
</clipPath>
</defs>
</svg>
