<svg width="28" height="22" viewBox="0 0 28 22" fill="none" xmlns="http://www.w3.org/2000/svg">
<g clip-path="url(#clip0_2207_13862)">
<path d="M3.75537 21.6438H24.0288C26.4898 21.6438 27.7085 20.425 27.7085 18.0109V3.70239C27.7085 1.28833 26.4898 0.0695801 24.0288 0.0695801H3.75537C1.30615 0.0695801 0.0756836 1.27661 0.0756836 3.70239V18.0109C0.0756836 20.4367 1.30615 21.6438 3.75537 21.6438Z" fill="black" fill-opacity="0.85"/>
<path d="M13.8921 16.8508C10.5874 16.8508 7.89209 14.1672 7.89209 10.8391C7.89209 7.53442 10.5874 4.85083 13.8921 4.85083C17.1968 4.85083 19.9038 7.53442 19.9038 10.8391C19.9038 14.1672 17.1968 16.8508 13.8921 16.8508Z" fill="white"/>
</g>
<defs>
<clipPath id="clip0_2207_13862">
<rect width="27.6328" height="21.5977" fill="white" transform="translate(0.0756836 0.0461426)"/>
</clipPath>
</defs>
</svg>
