<svg width="31" height="14" viewBox="0 0 31 14" fill="none" xmlns="http://www.w3.org/2000/svg">
<g clip-path="url(#clip0_2207_6123)">
<path d="M23.9944 13.6867C27.7327 13.6867 30.803 10.6164 30.803 6.86645C30.803 3.12817 27.7327 0.0461426 23.9944 0.0461426C20.2327 0.0461426 17.1741 3.12817 17.1741 6.86645C17.1741 10.6164 20.2327 13.6867 23.9944 13.6867ZM23.9944 11.8C21.2757 11.8 19.0609 9.59692 19.0609 6.86645C19.0609 4.1477 21.2757 1.93286 23.9944 1.93286C26.6898 1.93286 28.9163 4.17114 28.9163 6.86645C28.9163 9.57348 26.6898 11.8 23.9944 11.8Z" fill="black" fill-opacity="0.85"/>
<path d="M6.90844 13.6867C10.6467 13.6867 13.717 10.6164 13.717 6.86645C13.717 3.12817 10.6467 0.0461426 6.90844 0.0461426C3.13501 0.0461426 0.0881348 3.12817 0.0881348 6.86645C0.0881348 10.6164 3.13501 13.6867 6.90844 13.6867Z" fill="black" fill-opacity="0.85"/>
</g>
<defs>
<clipPath id="clip0_2207_6123">
<rect width="30.7148" height="13.6523" fill="white" transform="translate(0.0881348 0.0461426)"/>
</clipPath>
</defs>
</svg>
