<svg width="24" height="24" viewBox="0 0 24 24" fill="none" xmlns="http://www.w3.org/2000/svg">
<g clip-path="url(#clip0_2207_6080)">
<path d="M11.9885 2.06176C12.5393 2.06176 12.9963 1.60473 12.9963 1.05395C12.9963 0.503174 12.5393 0.0461426 11.9885 0.0461426C11.4377 0.0461426 10.9807 0.503174 10.9807 1.05395C10.9807 1.60473 11.4377 2.06176 11.9885 2.06176ZM15.34 2.61255C15.8908 2.61255 16.3479 2.15552 16.3479 1.60473C16.3479 1.05395 15.8908 0.596924 15.34 0.596924C14.7893 0.596924 14.3322 1.05395 14.3322 1.60473C14.3322 2.15552 14.7893 2.61255 15.34 2.61255ZM18.3869 4.1477C18.9377 4.1477 19.3947 3.69067 19.3947 3.13989C19.3947 2.58911 18.9377 2.13208 18.3869 2.13208C17.8361 2.13208 17.3791 2.58911 17.3791 3.13989C17.3791 3.69067 17.8361 4.1477 18.3869 4.1477ZM20.7893 6.56176C21.34 6.56176 21.7971 6.10473 21.7971 5.55395C21.7971 5.00317 21.34 4.54614 20.7893 4.54614C20.2385 4.54614 19.7815 5.00317 19.7815 5.55395C19.7815 6.10473 20.2385 6.56176 20.7893 6.56176ZM22.3244 9.56176C22.8752 9.56176 23.3322 9.10473 23.3322 8.55395C23.3322 8.00317 22.8752 7.54614 22.3244 7.54614C21.7736 7.54614 21.3166 8.00317 21.3166 8.55395C21.3166 9.10473 21.7736 9.56176 22.3244 9.56176ZM22.8986 12.925C23.4494 12.925 23.9065 12.468 23.9065 11.9172C23.9065 11.3664 23.4494 10.9094 22.8986 10.9094C22.3479 10.9094 21.8908 11.3664 21.8908 11.9172C21.8908 12.468 22.3479 12.925 22.8986 12.925ZM22.3244 16.2883C22.8752 16.2883 23.3322 15.8313 23.3322 15.2805C23.3322 14.7297 22.8752 14.2727 22.3244 14.2727C21.7736 14.2727 21.3166 14.7297 21.3166 15.2805C21.3166 15.8313 21.7736 16.2883 22.3244 16.2883ZM20.7893 19.3C21.34 19.3 21.7971 18.843 21.7971 18.2922C21.7971 17.7414 21.34 17.2844 20.7893 17.2844C20.2385 17.2844 19.7815 17.7414 19.7815 18.2922C19.7815 18.843 20.2385 19.3 20.7893 19.3ZM18.3869 21.7023C18.9377 21.7023 19.3947 21.2453 19.3947 20.6945C19.3947 20.1438 18.9377 19.6867 18.3869 19.6867C17.8361 19.6867 17.3791 20.1438 17.3791 20.6945C17.3791 21.2453 17.8361 21.7023 18.3869 21.7023ZM15.34 23.2375C15.8908 23.2375 16.3479 22.7805 16.3479 22.2297C16.3479 21.6789 15.8908 21.2219 15.34 21.2219C14.7893 21.2219 14.3322 21.6789 14.3322 22.2297C14.3322 22.7805 14.7893 23.2375 15.34 23.2375ZM11.9885 23.7883C12.5393 23.7883 12.9963 23.3313 12.9963 22.7805C12.9963 22.2297 12.5393 21.7727 11.9885 21.7727C11.4377 21.7727 10.9807 22.2297 10.9807 22.7805C10.9807 23.3313 11.4377 23.7883 11.9885 23.7883ZM8.63696 23.2375C9.18775 23.2375 9.64478 22.7805 9.64478 22.2297C9.64478 21.6789 9.18775 21.2219 8.63696 21.2219C8.07446 21.2219 7.62915 21.6789 7.62915 22.2297C7.62915 22.7805 8.07446 23.2375 8.63696 23.2375ZM5.59009 21.7023C6.14087 21.7023 6.5979 21.2453 6.5979 20.6945C6.5979 20.1438 6.14087 19.6867 5.59009 19.6867C5.02759 19.6867 4.58228 20.1438 4.58228 20.6945C4.58228 21.2453 5.02759 21.7023 5.59009 21.7023ZM3.17603 19.3C3.72681 19.3 4.18384 18.843 4.18384 18.2922C4.18384 17.7414 3.72681 17.2844 3.17603 17.2844C2.62525 17.2844 2.16822 17.7414 2.16822 18.2922C2.16822 18.843 2.62525 19.3 3.17603 19.3ZM1.64087 16.2883C2.19165 16.2883 2.64868 15.8313 2.64868 15.2805C2.64868 14.7297 2.19165 14.2727 1.64087 14.2727C1.09009 14.2727 0.633057 14.7297 0.633057 15.2805C0.633057 15.8313 1.09009 16.2883 1.64087 16.2883ZM1.06665 12.925C1.61743 12.925 2.07446 12.468 2.07446 11.9172C2.07446 11.3664 1.61743 10.9094 1.06665 10.9094C0.515869 10.9094 0.0588379 11.3664 0.0588379 11.9172C0.0588379 12.468 0.515869 12.925 1.06665 12.925ZM1.64087 9.56176C2.19165 9.56176 2.64868 9.10473 2.64868 8.55395C2.64868 8.00317 2.19165 7.54614 1.64087 7.54614C1.09009 7.54614 0.633057 8.00317 0.633057 8.55395C0.633057 9.10473 1.09009 9.56176 1.64087 9.56176ZM3.17603 6.56176C3.72681 6.56176 4.18384 6.10473 4.18384 5.55395C4.18384 5.00317 3.72681 4.54614 3.17603 4.54614C2.62525 4.54614 2.16822 5.00317 2.16822 5.55395C2.16822 6.10473 2.62525 6.56176 3.17603 6.56176ZM5.59009 4.1477C6.14087 4.1477 6.5979 3.69067 6.5979 3.13989C6.5979 2.58911 6.14087 2.13208 5.59009 2.13208C5.02759 2.13208 4.58228 2.58911 4.58228 3.13989C4.58228 3.69067 5.02759 4.1477 5.59009 4.1477ZM8.63696 2.61255C9.18775 2.61255 9.64478 2.15552 9.64478 1.60473C9.64478 1.05395 9.18775 0.596924 8.63696 0.596924C8.07446 0.596924 7.62915 1.05395 7.62915 1.60473C7.62915 2.15552 8.07446 2.61255 8.63696 2.61255Z" fill="black" fill-opacity="0.85"/>
</g>
<defs>
<clipPath id="clip0_2207_6080">
<rect width="23.8477" height="23.7539" fill="white" transform="translate(0.0588379 0.0461426)"/>
</clipPath>
</defs>
</svg>
