<svg width="28" height="22" viewBox="0 0 28 22" fill="none" xmlns="http://www.w3.org/2000/svg">
<g clip-path="url(#clip0_2207_19115)">
<path d="M3.73633 21.6203H24.0097C26.4707 21.6203 27.6894 20.4133 27.6894 17.9992V3.67895C27.6894 1.26489 26.4707 0.0461426 24.0097 0.0461426H3.73633C1.28711 0.0461426 0.0566406 1.26489 0.0566406 3.67895V17.9992C0.0566406 20.4133 1.28711 21.6203 3.73633 21.6203ZM3.75976 19.7336C2.58789 19.7336 1.94336 19.1125 1.94336 17.8938V3.78442C1.94336 2.56567 2.58789 1.93286 3.75976 1.93286H23.9863C25.1464 1.93286 25.8027 2.56567 25.8027 3.78442V17.8938C25.8027 19.1125 25.1464 19.7336 23.9863 19.7336H3.75976Z" fill="black" fill-opacity="0.85"/>
<path d="M7.39258 10.0422H8.91602C9.04492 9.24536 9.36133 8.50708 9.83008 7.88598L8.76367 6.80786C8.02539 7.72192 7.5332 8.8352 7.39258 10.0422ZM9.88867 5.68286L10.9785 6.7727C11.5996 6.32739 12.3027 6.0227 13.0878 5.8938V4.37036C11.8925 4.51098 10.8027 4.99145 9.88867 5.68286ZM14.6816 4.37036V5.8938C15.455 6.0227 16.1699 6.32739 16.7793 6.76098L17.8574 5.69458C16.9668 4.99145 15.8652 4.5227 14.6816 4.37036ZM19.0058 6.81958L17.9277 7.8977C18.3847 8.5188 18.7128 9.24536 18.83 10.0422H20.3535C20.2011 8.8352 19.7207 7.73364 19.0058 6.81958ZM20.3535 11.6477H18.8183C18.6894 12.4094 18.3847 13.1242 17.9511 13.7336L19.0293 14.8117C19.7324 13.9211 20.2011 12.8195 20.3535 11.6477ZM17.8925 15.9484L16.8144 14.8703C16.205 15.3391 15.4785 15.6672 14.6816 15.7727V17.3195C15.8886 17.1672 17.0019 16.675 17.8925 15.9484ZM13.0878 17.3195V15.7727C12.291 15.6672 11.5644 15.3391 10.9433 14.882L9.85352 15.9602C10.7675 16.6867 11.8808 17.1672 13.0878 17.3195ZM8.72852 14.8352L9.80664 13.7453C9.36133 13.1359 9.05664 12.4211 8.92773 11.6477H7.39258C7.54492 12.8313 8.01367 13.9328 8.72852 14.8352Z" fill="black" fill-opacity="0.85"/>
</g>
<defs>
<clipPath id="clip0_2207_19115">
<rect width="27.6328" height="21.5742" fill="white" transform="translate(0.0566406 0.0461426)"/>
</clipPath>
</defs>
</svg>
