<svg width="28" height="22" viewBox="0 0 28 22" fill="none" xmlns="http://www.w3.org/2000/svg">
<g clip-path="url(#clip0_2207_19105)">
<path d="M3.76172 21.6203H24.0351C26.4961 21.6203 27.7148 20.4133 27.7148 17.9992V3.67895C27.7148 1.26489 26.4961 0.0461426 24.0351 0.0461426H3.76172C1.3125 0.0461426 0.0820312 1.26489 0.0820312 3.67895V17.9992C0.0820312 20.4133 1.3125 21.6203 3.76172 21.6203ZM3.78515 19.7336C2.61328 19.7336 1.96875 19.1125 1.96875 17.8938V3.78442C1.96875 2.56567 2.61328 1.93286 3.78515 1.93286H24.0117C25.1718 1.93286 25.8281 2.56567 25.8281 3.78442V17.8938C25.8281 19.1125 25.1718 19.7336 24.0117 19.7336H3.78515Z" fill="black" fill-opacity="0.85"/>
<path d="M13.8515 17.3664C17.4492 17.3664 20.3672 14.4484 20.3672 10.8391C20.3672 7.24146 17.4492 4.32349 13.8515 4.32349C10.2422 4.32349 7.32422 7.24146 7.32422 10.8391C7.32422 14.4484 10.2422 17.3664 13.8515 17.3664ZM13.8515 15.8547C11.0625 15.8547 8.83594 13.6281 8.83594 10.8391C8.83594 8.05006 11.0625 5.83521 13.8515 5.83521C16.6406 5.83521 18.8554 8.05006 18.8554 10.8391C18.8554 13.6281 16.6406 15.8547 13.8515 15.8547ZM9.21094 13.757L16.5703 6.39771L15.2343 5.24927L8.71875 11.7649L9.21094 13.757ZM12.539 16.4992L19.0312 10.0071L18.5273 8.03834L11.2148 15.3391L12.539 16.4992Z" fill="black" fill-opacity="0.85"/>
</g>
<defs>
<clipPath id="clip0_2207_19105">
<rect width="27.6328" height="21.5742" fill="white" transform="translate(0.0820312 0.0461426)"/>
</clipPath>
</defs>
</svg>
