<svg width="27" height="27" viewBox="0 0 27 27" fill="none" xmlns="http://www.w3.org/2000/svg">
<g clip-path="url(#clip0_2207_5921)">
<path d="M13.0882 25.0261C19.6155 25.0261 25.0413 19.6004 25.0413 13.073C25.0413 6.53397 19.6038 1.1199 13.0764 1.1199C6.53735 1.1199 1.13501 6.53397 1.13501 13.073C1.13501 19.6004 6.54907 25.0261 13.0882 25.0261ZM13.0882 23.034C7.55688 23.034 3.13891 18.6043 3.13891 13.073C3.13891 7.54178 7.54516 3.11209 13.0764 3.11209C18.596 3.11209 23.0491 7.54178 23.0491 13.073C23.0491 18.6043 18.6077 23.034 13.0882 23.034Z" fill="black" fill-opacity="0.85"/>
<path d="M22.2171 25.4363C23.1077 26.3269 24.5608 26.3152 25.4397 25.4129C26.3069 24.5105 26.2952 23.0926 25.428 22.2136L3.9358 0.721465C3.04517 -0.16916 1.60377 -0.180879 0.713142 0.709746C-0.165764 1.58865 -0.165764 3.0535 0.701423 3.9324L22.2171 25.4363Z" fill="white"/>
<path d="M23.178 24.4754C23.5296 24.8269 24.1155 24.8152 24.4553 24.4636C24.8069 24.1004 24.8069 23.5379 24.4553 23.1863L2.96313 1.68239C2.61157 1.33083 2.03735 1.33083 1.67407 1.68239C1.33423 2.02224 1.33423 2.61989 1.67407 2.95974L23.178 24.4754Z" fill="black" fill-opacity="0.85"/>
</g>
<defs>
<clipPath id="clip0_2207_5921">
<rect width="26.0318" height="26.0626" fill="white" transform="translate(0.0524902 0.0476074)"/>
</clipPath>
</defs>
</svg>
