<svg width="27" height="27" viewBox="0 0 27 27" fill="none" xmlns="http://www.w3.org/2000/svg">
<g clip-path="url(#clip0_2207_5927)">
<path d="M13.0904 25.0261C19.6177 25.0261 25.0435 19.6004 25.0435 13.073C25.0435 6.53397 19.606 1.1199 13.0786 1.1199C6.53955 1.1199 1.13721 6.53397 1.13721 13.073C1.13721 19.6004 6.55127 25.0261 13.0904 25.0261Z" fill="black" fill-opacity="0.85"/>
<path d="M22.2193 25.4363C23.1099 26.3269 24.563 26.3152 25.4419 25.4129C26.3091 24.5105 26.2974 23.0926 25.4302 22.2136L3.938 0.721465C3.04737 -0.16916 1.60597 -0.180879 0.715339 0.709746C-0.163567 1.58865 -0.163567 3.0535 0.70362 3.9324L22.2193 25.4363Z" fill="white"/>
<path d="M23.1802 24.4754C23.5318 24.8269 24.1177 24.8152 24.4575 24.4636C24.8091 24.1004 24.8091 23.5379 24.4575 23.1863L2.96533 1.68239C2.61377 1.33083 2.03955 1.33083 1.67627 1.68239C1.33643 2.02224 1.33643 2.61989 1.67627 2.95974L23.1802 24.4754Z" fill="black" fill-opacity="0.85"/>
</g>
<defs>
<clipPath id="clip0_2207_5927">
<rect width="26.0318" height="26.0626" fill="white" transform="translate(0.0546875 0.0476074)"/>
</clipPath>
</defs>
</svg>
