<svg width="33" height="24" viewBox="0 0 33 24" fill="none" xmlns="http://www.w3.org/2000/svg">
<g clip-path="url(#clip0_2207_21898)">
<path d="M0.0126953 11.9992C0.0126953 12.5031 0.422851 12.9367 0.915039 12.9367H31.9463C32.4385 12.9367 32.8486 12.5031 32.8486 11.9992C32.8486 11.4953 32.4385 11.0734 31.9463 11.0734H0.915039C0.422851 11.0734 0.0126953 11.4953 0.0126953 11.9992ZM16.4424 23.9523C22.9697 23.9523 28.3955 18.5266 28.3955 11.9992C28.3955 5.4602 22.958 0.0461426 16.4307 0.0461426C9.8916 0.0461426 4.48926 5.4602 4.48926 11.9992C4.48926 18.5266 9.90332 23.9523 16.4424 23.9523ZM16.4424 21.9602C10.9111 21.9602 6.48145 17.5305 6.48145 11.9992C6.48145 6.46802 10.8994 2.03833 16.4307 2.03833C21.9502 2.03833 26.4033 6.46802 26.4033 11.9992C26.4033 17.5305 21.9619 21.9602 16.4424 21.9602Z" fill="black" fill-opacity="0.85"/>
</g>
<defs>
<clipPath id="clip0_2207_21898">
<rect width="32.8359" height="23.918" fill="white" transform="translate(0.0126953 0.0461426)"/>
</clipPath>
</defs>
</svg>
