<svg width="34" height="24" viewBox="0 0 34 24" fill="none" xmlns="http://www.w3.org/2000/svg">
<g clip-path="url(#clip0_2207_21416)">
<path d="M11.9907 2.1438C12.5415 2.1438 12.9985 1.68676 12.9985 1.13598C12.9985 0.585205 12.5415 0.128174 11.9907 0.128174C11.4399 0.128174 10.9829 0.585205 10.9829 1.13598C10.9829 1.68676 11.4399 2.1438 11.9907 2.1438ZM15.3422 2.69458C15.893 2.69458 16.3501 2.23755 16.3501 1.68676C16.3501 1.13598 15.893 0.678955 15.3422 0.678955C14.7915 0.678955 14.3344 1.13598 14.3344 1.68676C14.3344 2.23755 14.7915 2.69458 15.3422 2.69458ZM18.3891 4.22973C18.9399 4.22973 19.3969 3.7727 19.3969 3.22192C19.3969 2.67114 18.9399 2.21411 18.3891 2.21411C17.8383 2.21411 17.3813 2.67114 17.3813 3.22192C17.3813 3.7727 17.8383 4.22973 18.3891 4.22973ZM20.7915 6.6438C21.3422 6.6438 21.7993 6.18676 21.7993 5.63598C21.7993 5.0852 21.3422 4.62817 20.7915 4.62817C20.2407 4.62817 19.7837 5.0852 19.7837 5.63598C19.7837 6.18676 20.2407 6.6438 20.7915 6.6438ZM22.3266 9.6438C22.8774 9.6438 23.3344 9.18676 23.3344 8.63598C23.3344 8.0852 22.8774 7.62817 22.3266 7.62817C21.7758 7.62817 21.3188 8.0852 21.3188 8.63598C21.3188 9.18676 21.7758 9.6438 22.3266 9.6438ZM22.9008 13.007C23.4516 13.007 23.9087 12.55 23.9087 11.9992C23.9087 11.4484 23.4516 10.9914 22.9008 10.9914C22.3501 10.9914 21.893 11.4484 21.893 11.9992C21.893 12.55 22.3501 13.007 22.9008 13.007ZM22.3266 16.3703C22.8774 16.3703 23.3344 15.9133 23.3344 15.3625C23.3344 14.8117 22.8774 14.3547 22.3266 14.3547C21.7758 14.3547 21.3188 14.8117 21.3188 15.3625C21.3188 15.9133 21.7758 16.3703 22.3266 16.3703ZM20.7915 19.382C21.3422 19.382 21.7993 18.925 21.7993 18.3742C21.7993 17.8234 21.3422 17.3664 20.7915 17.3664C20.2407 17.3664 19.7837 17.8234 19.7837 18.3742C19.7837 18.925 20.2407 19.382 20.7915 19.382ZM18.3891 21.7844C18.9399 21.7844 19.3969 21.3273 19.3969 20.7766C19.3969 20.2258 18.9399 19.7688 18.3891 19.7688C17.8383 19.7688 17.3813 20.2258 17.3813 20.7766C17.3813 21.3273 17.8383 21.7844 18.3891 21.7844ZM15.3422 23.3195C15.893 23.3195 16.3501 22.8625 16.3501 22.3117C16.3501 21.7609 15.893 21.3039 15.3422 21.3039C14.7915 21.3039 14.3344 21.7609 14.3344 22.3117C14.3344 22.8625 14.7915 23.3195 15.3422 23.3195ZM11.9907 23.8703C12.5415 23.8703 12.9985 23.4133 12.9985 22.8625C12.9985 22.3117 12.5415 21.8547 11.9907 21.8547C11.4399 21.8547 10.9829 22.3117 10.9829 22.8625C10.9829 23.4133 11.4399 23.8703 11.9907 23.8703ZM8.63916 23.3195C9.18995 23.3195 9.64698 22.8625 9.64698 22.3117C9.64698 21.7609 9.18995 21.3039 8.63916 21.3039C8.07666 21.3039 7.63135 21.7609 7.63135 22.3117C7.63135 22.8625 8.07666 23.3195 8.63916 23.3195ZM5.59229 21.7844C6.14306 21.7844 6.6001 21.3273 6.6001 20.7766C6.6001 20.2258 6.14306 19.7688 5.59229 19.7688C5.02979 19.7688 4.58448 20.2258 4.58448 20.7766C4.58448 21.3273 5.02979 21.7844 5.59229 21.7844ZM3.17823 19.382C3.72901 19.382 4.18604 18.925 4.18604 18.3742C4.18604 17.8234 3.72901 17.3664 3.17823 17.3664C2.62744 17.3664 2.17042 17.8234 2.17042 18.3742C2.17042 18.925 2.62744 19.382 3.17823 19.382ZM1.64307 16.3703C2.19385 16.3703 2.65088 15.9133 2.65088 15.3625C2.65088 14.8117 2.19385 14.3547 1.64307 14.3547C1.09229 14.3547 0.635254 14.8117 0.635254 15.3625C0.635254 15.9133 1.09229 16.3703 1.64307 16.3703ZM1.06885 13.007C1.61963 13.007 2.07666 12.55 2.07666 11.9992C2.07666 11.4484 1.61963 10.9914 1.06885 10.9914C0.518066 10.9914 0.0610352 11.4484 0.0610352 11.9992C0.0610352 12.55 0.518066 13.007 1.06885 13.007ZM1.64307 9.6438C2.19385 9.6438 2.65088 9.18676 2.65088 8.63598C2.65088 8.0852 2.19385 7.62817 1.64307 7.62817C1.09229 7.62817 0.635254 8.0852 0.635254 8.63598C0.635254 9.18676 1.09229 9.6438 1.64307 9.6438ZM3.17823 6.6438C3.72901 6.6438 4.18604 6.18676 4.18604 5.63598C4.18604 5.0852 3.72901 4.62817 3.17823 4.62817C2.62744 4.62817 2.17042 5.0852 2.17042 5.63598C2.17042 6.18676 2.62744 6.6438 3.17823 6.6438ZM5.59229 4.22973C6.14306 4.22973 6.6001 3.7727 6.6001 3.22192C6.6001 2.67114 6.14306 2.21411 5.59229 2.21411C5.02979 2.21411 4.58448 2.67114 4.58448 3.22192C4.58448 3.7727 5.02979 4.22973 5.59229 4.22973ZM8.63916 2.69458C9.18995 2.69458 9.64698 2.23755 9.64698 1.68676C9.64698 1.13598 9.18995 0.678955 8.63916 0.678955C8.07666 0.678955 7.63135 1.13598 7.63135 1.68676C7.63135 2.23755 8.07666 2.69458 8.63916 2.69458Z" fill="black" fill-opacity="0.85"/>
<path d="M21.1548 23.9523C27.6938 23.9523 33.1079 18.5266 33.1079 11.9992C33.1079 5.4602 27.6821 0.0461426 21.143 0.0461426C14.6157 0.0461426 9.20166 5.4602 9.20166 11.9992C9.20166 18.5266 14.6274 23.9523 21.1548 23.9523ZM21.1548 21.9602C15.6352 21.9602 11.2055 17.5305 11.2055 11.9992C11.2055 6.46802 15.6235 2.03833 21.143 2.03833C26.6743 2.03833 31.1157 6.46802 31.1157 11.9992C31.1157 17.5305 26.686 21.9602 21.1548 21.9602Z" fill="black" fill-opacity="0.85"/>
</g>
<defs>
<clipPath id="clip0_2207_21416">
<rect width="33.0469" height="23.918" fill="white" transform="translate(0.0610352 0.0461426)"/>
</clipPath>
</defs>
</svg>
