<svg width="20" height="33" viewBox="0 0 20 33" fill="none" xmlns="http://www.w3.org/2000/svg">
<g clip-path="url(#clip0_2207_949)">
<path d="M19.7885 26.1218V8.35619C19.7885 5.89526 18.5815 4.67651 16.1557 4.67651H3.71045C1.28467 4.67651 0.0776367 5.89526 0.0776367 8.35619V26.1218C0.0776367 28.5828 1.28467 29.8015 3.71045 29.8015H16.1557C18.5815 29.8015 19.7885 28.5828 19.7885 26.1218ZM1.96436 26.0984V8.37963C1.96436 7.21948 2.58545 6.56322 3.8042 6.56322H16.062C17.2807 6.56322 17.9018 7.21948 17.9018 8.37963V26.0984C17.9018 27.2703 17.2807 27.9148 16.062 27.9148H3.8042C2.58545 27.9148 1.96436 27.2703 1.96436 26.0984Z" fill="black" fill-opacity="0.85"/>
<path d="M6.31201 8.71949H13.5542C14.9838 8.71949 16.0151 7.67652 16.0151 6.19995V4.96949C16.0151 3.4812 14.9838 2.43823 13.5542 2.43823C13.3081 2.43823 13.0737 2.43823 12.8276 2.43823L13.7534 3.08277C13.4487 1.31323 11.7729 0.0476074 9.9331 0.0476074C8.09325 0.0476074 6.41747 1.31323 6.11279 3.08277L7.03857 2.43823C6.79247 2.43823 6.5581 2.43823 6.31201 2.43823C4.88232 2.43823 3.85107 3.4812 3.85107 4.96949V6.19995C3.85107 7.67652 4.88232 8.71949 6.31201 8.71949Z" fill="white"/>
<path d="M6.31202 7.36011H13.5542C14.2338 7.36011 14.644 6.92652 14.644 6.19995V4.96949C14.644 4.24292 14.2338 3.80933 13.5542 3.80933H12.476C12.394 2.48511 11.2924 1.40699 9.93311 1.40699C8.57373 1.40699 7.47217 2.48511 7.39014 3.80933H6.31202C5.63233 3.80933 5.22217 4.24292 5.22217 4.96949V6.19995C5.22217 6.92652 5.63233 7.36011 6.31202 7.36011ZM9.93311 4.92261C9.37061 4.92261 8.91358 4.45386 8.91358 3.90308C8.91358 3.32886 9.37061 2.87183 9.93311 2.87183C10.4956 2.87183 10.9526 3.32886 10.9526 3.90308C10.9526 4.45386 10.4956 4.92261 9.93311 4.92261Z" fill="black" fill-opacity="0.85"/>
</g>
<defs>
<clipPath id="clip0_2207_949">
<rect width="19.7109" height="32.4727" fill="white" transform="translate(0.0776367 0.0476074)"/>
</clipPath>
</defs>
</svg>
