<svg width="24" height="24" viewBox="0 0 24 24" fill="none" xmlns="http://www.w3.org/2000/svg">
<g clip-path="url(#clip0_2207_20122)">
<path d="M11.9636 23.9553C18.5027 23.9553 23.9167 18.5296 23.9167 12.0022C23.9167 5.46313 18.491 0.0490723 11.9519 0.0490723C5.42456 0.0490723 0.010498 5.46313 0.010498 12.0022C0.010498 18.5296 5.43628 23.9553 11.9636 23.9553Z" fill="black" fill-opacity="0.85"/>
<path d="M8.67066 12.8225H11.9519C12.28 12.8225 12.5613 12.5764 12.5613 12.2483V7.98266C12.5613 7.65454 12.2917 7.39673 11.9519 7.39673C11.6238 7.39673 11.366 7.65454 11.366 7.98266V11.6624H8.67066C8.33081 11.6624 8.073 11.9085 8.073 12.2483C8.073 12.5882 8.33081 12.8225 8.67066 12.8225ZM11.9636 18.4827C8.42456 18.4827 5.47144 15.5413 5.47144 12.0022C5.47144 8.46313 8.41284 5.51001 11.9519 5.51001C15.5027 5.51001 18.4558 8.46313 18.4558 12.0022C18.4558 15.5413 15.5027 18.4827 11.9636 18.4827Z" fill="white"/>
</g>
<defs>
<clipPath id="clip0_2207_20122">
<rect width="23.9062" height="23.918" fill="white" transform="translate(0.010498 0.0490723)"/>
</clipPath>
</defs>
</svg>
