<svg width="24" height="24" viewBox="0 0 24 24" fill="none" xmlns="http://www.w3.org/2000/svg">
<g clip-path="url(#clip0_2207_20113)">
<path d="M5.83692 13.2679C5.36817 13.2679 5.01661 12.9163 5.01661 12.4475C5.01661 11.9905 5.36817 11.6389 5.83692 11.6389H11.1455V4.54907C11.1455 4.09204 11.4971 3.74048 11.9541 3.74048C12.4111 3.74048 12.7744 4.09204 12.7744 4.54907V12.4475C12.7744 12.9163 12.4111 13.2679 11.9541 13.2679H5.83692ZM11.9658 23.9553C18.5049 23.9553 23.9189 18.5296 23.9189 12.0022C23.9189 5.46313 18.4932 0.0490723 11.9541 0.0490723C5.42675 0.0490723 0.0126953 5.46313 0.0126953 12.0022C0.0126953 18.5296 5.43848 23.9553 11.9658 23.9553Z" fill="black" fill-opacity="0.85"/>
</g>
<defs>
<clipPath id="clip0_2207_20113">
<rect width="23.9062" height="23.918" fill="white" transform="translate(0.0126953 0.0490723)"/>
</clipPath>
</defs>
</svg>
