<svg width="36" height="26" viewBox="0 0 36 26" fill="none" xmlns="http://www.w3.org/2000/svg">
<g clip-path="url(#clip0_2207_4514)">
<path d="M23.2451 4.89013C23.7725 4.89013 24.2178 4.44482 24.2178 3.9292V1.37451C24.2178 0.858887 23.7725 0.401855 23.2451 0.401855C22.7178 0.401855 22.2725 0.858887 22.2725 1.37451V3.9292C22.2725 4.44482 22.7178 4.89013 23.2451 4.89013ZM28.6592 7.15185C29.0342 7.52685 29.6553 7.53857 30.042 7.15185L31.8467 5.35888C32.2217 4.98388 32.2217 4.35107 31.8467 3.97607C31.4717 3.60107 30.8506 3.60107 30.4873 3.97607L28.6592 5.79248C28.2842 6.15576 28.2842 6.77685 28.6592 7.15185ZM30.8975 12.5659C30.8975 13.105 31.3545 13.5386 31.8701 13.5386H34.4131C34.9404 13.5386 35.374 13.105 35.374 12.5659C35.374 12.0503 34.9404 11.5933 34.4131 11.5933H31.8701C31.3545 11.5933 30.8975 12.0503 30.8975 12.5659ZM28.6592 17.9917C28.2842 18.3667 28.2842 18.9878 28.6592 19.3628L30.4873 21.1675C30.8506 21.5542 31.4717 21.5308 31.8467 21.1558C32.2217 20.7925 32.2217 20.1714 31.8467 19.7964L30.0303 17.9917C29.6553 17.6284 29.0342 17.6284 28.6592 17.9917ZM17.8311 17.9917C17.4561 17.6284 16.8232 17.6284 16.4482 17.9917L14.6553 19.7847C14.2686 20.1597 14.2803 20.7808 14.6436 21.1441C15.0186 21.5191 15.6514 21.5425 16.0147 21.1558L17.8193 19.3628C18.1943 18.9878 18.1943 18.3667 17.8311 17.9917ZM15.5811 12.5659C15.5811 12.0503 15.1358 11.5933 14.6084 11.5933H12.0772C11.5498 11.5933 11.1162 12.0503 11.1162 12.5659C11.1162 13.105 11.5498 13.5386 12.0772 13.5386H14.6084C15.1358 13.5386 15.5811 13.105 15.5811 12.5659ZM17.8193 7.15185C18.1943 6.78857 18.1943 6.14404 17.8311 5.79248L16.0264 3.97607C15.6631 3.61279 15.042 3.60107 14.667 3.97607C14.292 4.35107 14.2803 4.98388 14.6553 5.34717L16.4482 7.15185C16.8232 7.52685 17.4443 7.52685 17.8193 7.15185ZM23.2451 18.3784C26.4092 18.3784 29.0342 15.7534 29.0342 12.5659C29.0342 9.39013 26.4092 6.75341 23.2451 6.75341C20.0693 6.75341 17.4443 9.39013 17.4443 12.5659C17.4443 15.7534 20.0693 18.3784 23.2451 18.3784Z" fill="black" fill-opacity="0.85"/>
<path d="M6.2998 25.3745H18.9795C23.0693 25.3745 26.2686 22.2456 26.2686 18.2144C26.2686 14.4644 23.4092 11.5698 19.5772 11.1831C17.9365 8.59326 15.2529 6.99951 12.1006 6.99951C7.87011 6.99951 4.24902 10.0815 3.45215 14.2065C1.41308 15.1558 0.0419922 17.148 0.0419922 19.5503C0.0419922 22.9253 2.62011 25.3745 6.2998 25.3745Z" fill="white"/>
<path d="M6.29981 24.0034H18.9795C22.3193 24.0034 24.9092 21.4722 24.9092 18.2144C24.9092 14.98 22.2725 12.5308 18.7686 12.5073C17.4209 9.94092 14.9951 8.37061 12.1006 8.37061C8.28028 8.37061 5.04591 11.3355 4.68262 15.1909C2.73731 15.7769 1.41309 17.4409 1.41309 19.5503C1.41309 22.1519 3.37012 24.0034 6.29981 24.0034Z" fill="black" fill-opacity="0.85"/>
</g>
<defs>
<clipPath id="clip0_2207_4514">
<rect width="35.332" height="25.3242" fill="white" transform="translate(0.0419922 0.050293)"/>
</clipPath>
</defs>
</svg>
