<svg width="27" height="27" viewBox="0 0 27 27" fill="none" xmlns="http://www.w3.org/2000/svg">
<g clip-path="url(#clip0_2207_4360)">
<path d="M21.1719 24.4944H5.92578C5.51563 24.4944 5.1875 24.8108 5.1875 25.2327C5.1875 25.6546 5.51563 25.9827 5.92578 25.9827H21.1719C21.582 25.9827 21.9102 25.6546 21.9102 25.2327C21.9102 24.8108 21.582 24.4944 21.1719 24.4944Z" fill="black" fill-opacity="0.85"/>
<path d="M21.1719 20.5218H5.92578C5.51563 20.5218 5.1875 20.8382 5.1875 21.26C5.1875 21.6819 5.51563 21.9983 5.92578 21.9983H21.1719C21.582 21.9983 21.9102 21.6819 21.9102 21.26C21.9102 20.8382 21.582 20.5218 21.1719 20.5218Z" fill="black" fill-opacity="0.85"/>
<path d="M5.5625 17.803H20.1055C23.9492 17.803 26.8086 14.885 26.8086 11.2757C26.8086 7.53735 23.7617 4.80688 19.7891 4.80688C18.3242 1.91235 15.6055 0.0490723 12.2188 0.0490723C7.8125 0.0490723 4.17969 3.5061 3.79297 7.85376C1.67188 8.47485 0.0546875 10.3147 0.0546875 12.7874C0.0546875 15.5647 2.07031 17.803 5.5625 17.803Z" fill="black" fill-opacity="0.85"/>
</g>
<defs>
<clipPath id="clip0_2207_4360">
<rect width="26.7539" height="26.8477" fill="white" transform="translate(0.0546875 0.0490723)"/>
</clipPath>
</defs>
</svg>
