<svg width="24" height="24" viewBox="0 0 24 24" fill="none" xmlns="http://www.w3.org/2000/svg">
<g clip-path="url(#clip0_2207_4271)">
<path d="M11.9887 23.9671C18.5278 23.9671 23.9418 18.553 23.9418 12.0139C23.9418 5.48657 18.5161 0.060791 11.977 0.060791C5.4497 0.060791 0.0356445 5.48657 0.0356445 12.0139C0.0356445 18.553 5.46142 23.9671 11.9887 23.9671Z" fill="black" fill-opacity="0.85"/>
<path d="M7.60595 16.4671C5.76611 16.4671 4.54736 15.3303 4.54736 13.6897C4.54736 12.3889 5.40283 11.3225 6.64502 10.9827C6.85595 8.53345 8.8833 6.63501 11.3208 6.63501C13.1723 6.63501 14.6958 7.6311 15.5044 9.29516C17.7544 9.26001 19.4301 10.7952 19.4301 12.8577C19.4301 14.8968 17.8012 16.4671 15.7153 16.4671H7.60595Z" fill="white"/>
</g>
<defs>
<clipPath id="clip0_2207_4271">
<rect width="23.9062" height="23.918" fill="white" transform="translate(0.0356445 0.0490723)"/>
</clipPath>
</defs>
</svg>
