<svg width="24" height="24" viewBox="0 0 24 24" fill="none" xmlns="http://www.w3.org/2000/svg">
<g clip-path="url(#clip0_2207_4650)">
<path d="M12.0307 23.9553C18.5698 23.9553 23.9838 18.5296 23.9838 12.0022C23.9838 5.46313 18.5581 0.0490723 12.019 0.0490723C5.4917 0.0490723 0.0776367 5.46313 0.0776367 12.0022C0.0776367 18.5296 5.50342 23.9553 12.0307 23.9553ZM12.0307 21.9632C6.49952 21.9632 2.08155 17.5335 2.08155 12.0022C2.08155 6.47095 6.4878 2.04126 12.019 2.04126C17.5503 2.04126 21.9917 6.47095 21.9917 12.0022C21.9917 17.5335 17.562 21.9632 12.0307 21.9632Z" fill="black" fill-opacity="0.85"/>
<path d="M6.97998 14.8264H12.7924C14.3745 14.8264 15.5815 13.6194 15.5815 12.0725C15.5815 10.5608 14.3628 9.41235 12.7456 9.37719C12.1128 8.1936 10.9878 7.46704 9.64014 7.46704C7.85889 7.46704 6.35889 8.84985 6.17139 10.6194C5.28076 10.9241 4.65967 11.6975 4.65967 12.6936C4.65967 13.9241 5.59717 14.8264 6.97998 14.8264ZM19.437 9.08423C19.437 8.87329 19.3432 8.73266 19.1674 8.73266C18.9096 8.73266 18.476 9.06079 17.726 9.06079C16.3549 9.06079 15.4878 8.26391 15.4878 6.99829C15.4878 6.27173 15.8979 5.74438 15.8979 5.43969C15.8979 5.27563 15.7573 5.15845 15.5464 5.17016C14.4331 5.21704 13.0503 6.52954 12.8628 8.14673C12.9917 8.28735 13.0971 8.43969 13.2143 8.59204C14.9487 8.80298 16.226 10.0921 16.3901 11.7561C18.2768 11.5569 19.437 10.0686 19.437 9.08423ZM8.47998 17.428C8.40967 17.5686 8.47998 17.6858 8.63233 17.6858H9.64014L8.85498 19.5843C8.79639 19.7366 8.97217 19.8303 9.10108 19.7014L11.6909 17.0647C11.8081 16.9358 11.7495 16.76 11.5737 16.76H10.3901L10.9526 15.6936C11.0229 15.5647 10.976 15.4475 10.8237 15.4475H9.55811C9.39405 15.4475 9.31202 15.5061 9.25342 15.635L8.47998 17.428Z" fill="black" fill-opacity="0.85"/>
</g>
<defs>
<clipPath id="clip0_2207_4650">
<rect width="23.9062" height="23.918" fill="white" transform="translate(0.0776367 0.0490723)"/>
</clipPath>
</defs>
</svg>
