<svg width="27" height="30" viewBox="0 0 27 30" fill="none" xmlns="http://www.w3.org/2000/svg">
<g clip-path="url(#clip0_2207_4465)">
<path d="M16.2185 23.4361H13.5584L13.5349 23.9635L14.9646 21.2213C15.1052 20.9635 14.9998 20.7642 14.742 20.7642H12.199C11.8591 20.7642 11.742 20.8814 11.6365 21.1275L10.0427 24.7603C9.91382 25.0533 10.0427 25.2291 10.3474 25.2291H12.5154L12.6677 24.5377L10.781 29.1197C10.7224 29.272 10.7576 29.401 10.863 29.4478C10.9685 29.4947 11.0974 29.4595 11.2263 29.3306L16.406 24.022C16.6521 23.7642 16.5584 23.4361 16.2185 23.4361Z" fill="black" fill-opacity="0.85"/>
<path d="M5.531 19.0885H20.074C23.9177 19.0885 26.7771 16.1705 26.7771 12.5611C26.7771 8.8228 23.7302 6.09233 19.7576 6.09233C18.2927 3.1978 15.574 1.33452 12.1873 1.33452C7.781 1.33452 4.14819 4.79155 3.76147 9.13921C1.64038 9.7603 0.0231934 11.6002 0.0231934 14.0728C0.0231934 16.8502 2.03881 19.0885 5.531 19.0885Z" fill="black" fill-opacity="0.85"/>
</g>
<defs>
<clipPath id="clip0_2207_4465">
<rect width="26.7539" height="29.4186" fill="white" transform="translate(0.0231934 0.0490723)"/>
</clipPath>
</defs>
</svg>
