<svg width="33" height="23" viewBox="0 0 33 23" fill="none" xmlns="http://www.w3.org/2000/svg">
<g clip-path="url(#clip0_2207_4590)">
<path d="M25.2717 14.6389C29.9358 14.6389 32.1858 11.0179 32.1858 9.08423C32.1858 8.62719 31.9865 8.29907 31.6115 8.29907C31.0373 8.29907 30.1819 9.04907 28.5295 9.04907C25.6233 9.04907 23.9006 7.38501 23.9006 4.70141C23.9006 3.14282 24.7209 2.01782 24.7209 1.39673C24.7209 1.03345 24.4748 0.787353 24.0061 0.799072C21.6154 0.892822 18.4045 3.75219 18.4045 7.71313C18.4045 11.5921 21.4045 14.6389 25.2717 14.6389Z" fill="black" fill-opacity="0.85"/>
<path d="M6.40454 22.0686H19.0842C23.2092 22.0686 26.4436 18.9046 26.4436 14.8499C26.4436 11.0647 23.5725 8.15845 19.7287 7.76001C18.0412 5.09985 15.3225 3.56469 12.217 3.56469C7.95141 3.56469 4.30688 6.64673 3.49829 10.7835C1.40063 11.7679 0.0881348 13.7952 0.0881348 16.1858C0.0881348 19.6311 2.73657 22.0686 6.40454 22.0686Z" fill="white"/>
<path d="M6.40455 20.6155H19.0842C22.4123 20.6155 24.9904 18.096 24.9904 14.8499C24.9904 11.6272 22.3654 9.18969 18.8615 9.16626C17.4904 6.54126 15.0412 5.01782 12.217 5.01782C8.39673 5.01782 5.17408 7.98266 4.8108 11.8382C2.81861 12.4358 1.54126 14.1233 1.54126 16.1858C1.54126 18.8108 3.52173 20.6155 6.40455 20.6155Z" fill="black" fill-opacity="0.85"/>
</g>
<defs>
<clipPath id="clip0_2207_4590">
<rect width="32.0977" height="22.0195" fill="white" transform="translate(0.0881348 0.0490723)"/>
</clipPath>
</defs>
</svg>
