<svg width="24" height="24" viewBox="0 0 24 24" fill="none" xmlns="http://www.w3.org/2000/svg">
<g clip-path="url(#clip0_2207_4349)">
<path d="M12.0224 23.9671C18.5615 23.9671 23.9755 18.553 23.9755 12.0139C23.9755 5.48657 18.5498 0.060791 12.0107 0.060791C5.4834 0.060791 0.0693359 5.48657 0.0693359 12.0139C0.0693359 18.553 5.49512 23.9671 12.0224 23.9671Z" fill="black" fill-opacity="0.85"/>
<path d="M8.22559 13.221C6.50293 13.221 5.50684 12.1194 5.50684 10.7483C5.50684 9.52954 6.30372 8.61548 7.34668 8.32251C7.5459 6.15454 9.35059 4.4436 11.5185 4.4436C13.1943 4.4436 14.5302 5.36938 15.2685 6.79907C17.2255 6.79907 18.7373 8.14673 18.7373 9.99829C18.7373 11.7796 17.2959 13.221 15.4209 13.221H8.22559ZM9.88965 18.3655C9.73731 18.635 9.40918 18.7405 9.13965 18.5764C8.87012 18.4358 8.77637 18.0843 8.94043 17.8264L10.792 14.6272C10.956 14.346 11.2724 14.2639 11.5302 14.4163C11.8115 14.5686 11.917 14.9085 11.7412 15.178L9.88965 18.3655ZM15.3857 18.3655C15.2451 18.635 14.917 18.7405 14.6474 18.5764C14.3662 18.4358 14.2841 18.0843 14.4365 17.8264L16.2881 14.6272C16.4521 14.346 16.7685 14.2639 17.0381 14.4163C17.3193 14.5686 17.4131 14.9085 17.249 15.178L15.3857 18.3655ZM12.6435 18.3655C12.4795 18.635 12.1513 18.7405 11.8935 18.5764C11.6123 18.4358 11.5302 18.0843 11.6826 17.8264L13.5341 14.6272C13.6982 14.346 14.0146 14.2639 14.2841 14.4163C14.5654 14.5686 14.6591 14.9085 14.4834 15.178L12.6435 18.3655ZM7.13575 18.3655C6.9834 18.635 6.65528 18.7405 6.38575 18.5764C6.11622 18.4358 6.02246 18.0843 6.17481 17.8264L8.03809 14.6272C8.19043 14.346 8.51856 14.2639 8.77637 14.4163C9.05762 14.5686 9.15137 14.9085 8.98731 15.178L7.13575 18.3655Z" fill="white"/>
</g>
<defs>
<clipPath id="clip0_2207_4349">
<rect width="23.9062" height="23.918" fill="white" transform="translate(0.0693359 0.0490723)"/>
</clipPath>
</defs>
</svg>
