<svg width="27" height="28" viewBox="0 0 27 28" fill="none" xmlns="http://www.w3.org/2000/svg">
<g clip-path="url(#clip0_2207_4336)">
<path d="M17.4503 26.7127L20.9191 20.7127C21.1183 20.3612 21.0128 19.9393 20.6612 19.7635C20.3214 19.576 19.9112 19.658 19.712 20.0213L16.2667 25.9979C16.0558 26.3495 16.1612 26.7596 16.5011 26.9705C16.8292 27.1698 17.2628 27.0526 17.4503 26.7127Z" fill="black" fill-opacity="0.85"/>
<path d="M12.8212 26.701L16.2548 20.7362C16.4657 20.3612 16.3603 19.9627 16.0087 19.7635C15.6454 19.5526 15.247 19.658 15.036 20.033L11.5907 26.0213C11.4032 26.3495 11.4853 26.7596 11.8485 26.9705C12.2001 27.1698 12.622 27.0526 12.8212 26.701Z" fill="black" fill-opacity="0.85"/>
<path d="M8.15715 26.701L11.5907 20.7362C11.8017 20.3612 11.6962 19.9627 11.3446 19.7635C10.9814 19.5526 10.5829 19.658 10.372 20.033L6.92668 26.0213C6.73918 26.3495 6.82121 26.7596 7.18449 26.9705C7.53605 27.1698 7.95793 27.0526 8.15715 26.701Z" fill="black" fill-opacity="0.85"/>
<path d="M3.48136 26.701L6.92667 20.7362C7.13761 20.3612 7.02042 19.9627 6.66886 19.7635C6.31729 19.5526 5.91886 19.658 5.70792 20.033L2.25089 26.0213C2.06339 26.3495 2.15714 26.7596 2.5087 26.9705C2.86026 27.1698 3.28214 27.0526 3.48136 26.701Z" fill="black" fill-opacity="0.85"/>
<path d="M5.5791 17.8885H20.1221C23.9658 17.8885 26.8252 14.9705 26.8252 11.3612C26.8252 7.62286 23.7783 4.89239 19.8057 4.89239C18.3408 1.99786 15.6221 0.134581 12.2354 0.134581C7.8291 0.134581 4.19629 3.59161 3.80957 7.93927C1.68848 8.56036 0.0712891 10.4002 0.0712891 12.8729C0.0712891 15.6502 2.08691 17.8885 5.5791 17.8885Z" fill="black" fill-opacity="0.85"/>
</g>
<defs>
<clipPath id="clip0_2207_4336">
<rect width="26.7539" height="27.0187" fill="white" transform="translate(0.0712891 0.0490723)"/>
</clipPath>
</defs>
</svg>
