<svg width="24" height="24" viewBox="0 0 24 24" fill="none" xmlns="http://www.w3.org/2000/svg">
<g clip-path="url(#clip0_2207_4498)">
<path d="M11.9804 23.9553C18.5195 23.9553 23.9335 18.5296 23.9335 12.0022C23.9335 5.46313 18.5078 0.0490723 11.9687 0.0490723C5.4414 0.0490723 0.0273438 5.46313 0.0273438 12.0022C0.0273438 18.5296 5.45312 23.9553 11.9804 23.9553ZM11.9804 21.9632C6.44922 21.9632 2.03125 17.5335 2.03125 12.0022C2.03125 6.47095 6.4375 2.04126 11.9687 2.04126C17.5 2.04126 21.9414 6.47095 21.9414 12.0022C21.9414 17.5335 17.5117 21.9632 11.9804 21.9632Z" fill="black" fill-opacity="0.85"/>
<path d="M8.20703 13.1624H15.1914C17.0078 13.1624 18.4023 11.7561 18.4023 10.0217C18.4023 8.22876 16.9375 6.92798 15.039 6.92798C14.3242 5.54516 13.0234 4.6311 11.4062 4.6311C9.29687 4.6311 7.55078 6.30688 7.35156 8.39282C6.34375 8.68579 5.57031 9.56469 5.57031 10.76C5.57031 12.0843 6.53125 13.1624 8.20703 13.1624ZM10.0117 16.4788C9.91796 16.6546 10 16.7952 10.1992 16.7952H11.4179L10.4687 19.1155C10.4218 19.221 10.4453 19.3147 10.5156 19.3499C10.5859 19.3733 10.6679 19.3499 10.75 19.2679L13.9023 16.0452C14.0546 15.8811 13.9961 15.6702 13.7734 15.6702H12.3437L13.0351 14.346C13.1054 14.1936 13.0585 14.053 12.8828 14.053H11.3242C11.125 14.053 11.0195 14.1233 10.9609 14.2757L10.0117 16.4788ZM8.11328 16.7366L8.94531 15.3069C9.09765 15.0491 9.01562 14.721 8.74609 14.5686C8.48828 14.428 8.17187 14.51 8.01953 14.7679L7.1875 16.2093C7.04687 16.4671 7.1289 16.7952 7.38672 16.9358C7.64453 17.0882 7.96093 16.9944 8.11328 16.7366ZM15.9414 16.7366L16.7734 15.3069C16.9257 15.0491 16.832 14.721 16.5742 14.5686C16.3164 14.428 16 14.51 15.8476 14.7679L15.0156 16.2093C14.8632 16.4671 14.957 16.7952 15.2148 16.9358C15.4726 17.0882 15.789 16.9944 15.9414 16.7366Z" fill="black" fill-opacity="0.85"/>
</g>
<defs>
<clipPath id="clip0_2207_4498">
<rect width="23.9062" height="23.918" fill="white" transform="translate(0.0273438 0.0490723)"/>
</clipPath>
</defs>
</svg>
