<svg width="27" height="28" viewBox="0 0 27 28" fill="none" xmlns="http://www.w3.org/2000/svg">
<g clip-path="url(#clip0_2207_4376)">
<path d="M19.3575 22.4788L20.1426 21.096C20.3536 20.7444 20.2481 20.3225 19.8965 20.1116C19.545 19.9124 19.1348 20.0413 18.9239 20.3811L18.127 21.7991C17.9395 22.1272 18.0215 22.5374 18.3848 22.7483C18.7364 22.9475 19.1583 22.8186 19.3575 22.4788ZM17.2833 25.971C17.9747 25.971 18.5489 25.385 18.5489 24.6819C18.5489 24.0022 17.9747 23.4163 17.2833 23.4163C16.5801 23.4163 16.0059 24.0022 16.0059 24.6819C16.0059 25.385 16.5801 25.971 17.2833 25.971Z" fill="black" fill-opacity="0.85"/>
<path d="M12.1855 24.2249L14.0136 21.0608C14.2128 20.6975 14.1074 20.2874 13.7675 20.0882C13.4043 19.8772 12.9941 19.9944 12.7949 20.3577L10.955 23.5452C10.7558 23.885 10.8613 24.2952 11.2246 24.4944C11.5644 24.6936 11.998 24.5764 12.1855 24.2249ZM10.1113 27.7171C10.8027 27.7171 11.3886 27.1311 11.3886 26.428C11.3886 25.7483 10.8144 25.1741 10.1113 25.1741C9.41992 25.1741 8.8457 25.7483 8.8457 26.428C8.8457 27.1311 9.41992 27.7171 10.1113 27.7171Z" fill="black" fill-opacity="0.85"/>
<path d="M7.07617 22.4319L7.86133 21.0491C8.07226 20.6975 7.9668 20.2757 7.61523 20.0647C7.26367 19.8655 6.85352 19.9944 6.64258 20.3343L5.8457 21.7522C5.6582 22.0803 5.74023 22.4905 6.10352 22.7014C6.45508 22.9007 6.87695 22.7835 7.07617 22.4319ZM5.00195 25.9241C5.69336 25.9241 6.26758 25.3382 6.26758 24.635C6.26758 23.9553 5.69336 23.3811 5.00195 23.3811C4.29883 23.3811 3.72461 23.9553 3.72461 24.635C3.72461 25.3382 4.29883 25.9241 5.00195 25.9241Z" fill="black" fill-opacity="0.85"/>
<path d="M5.56445 18.2132H20.1074C23.9511 18.2132 26.8105 15.2952 26.8105 11.6858C26.8105 7.94751 23.7636 5.21704 19.791 5.21704C18.3261 2.32251 15.6074 0.459229 12.2207 0.459229C7.81445 0.459229 4.18164 3.91626 3.79492 8.26391C1.67383 8.88501 0.0566406 10.7249 0.0566406 13.1975C0.0566406 15.9749 2.07226 18.2132 5.56445 18.2132ZM5.54102 16.3382C3.13867 16.3382 1.93164 14.9905 1.93164 13.2561C1.93164 11.8499 2.75195 10.5843 4.74414 10.0569C5.38867 9.8811 5.62305 9.57641 5.68164 8.92016C5.95117 5.08813 8.82226 2.33423 12.2207 2.33423C14.8574 2.33423 16.9316 3.78735 18.1972 6.37719C18.4668 6.95141 18.8183 7.15063 19.5097 7.15063C22.9785 7.15063 24.9355 9.23657 24.9355 11.7327C24.9355 14.2874 22.8964 16.3382 20.2246 16.3382H5.54102Z" fill="black" fill-opacity="0.85"/>
</g>
<defs>
<clipPath id="clip0_2207_4376">
<rect width="26.7539" height="27.668" fill="white" transform="translate(0.0566406 0.0490723)"/>
</clipPath>
</defs>
</svg>
