<svg width="27" height="30" viewBox="0 0 27 30" fill="none" xmlns="http://www.w3.org/2000/svg">
<g clip-path="url(#clip0_2207_4460)">
<path d="M16.2121 23.4361H13.552L13.5285 23.9635L14.9582 21.2213C15.0988 20.9635 14.9934 20.7642 14.7356 20.7642H12.1926C11.8527 20.7642 11.7356 20.8814 11.6301 21.1275L10.0363 24.7603C9.90747 25.0533 10.0363 25.2291 10.341 25.2291H12.509L12.6613 24.5377L10.7746 29.1197C10.716 29.272 10.7512 29.401 10.8566 29.4478C10.9621 29.4947 11.091 29.4595 11.2199 29.3306L16.3996 24.022C16.6457 23.7642 16.552 23.4361 16.2121 23.4361Z" fill="black" fill-opacity="0.85"/>
<path d="M5.52466 19.0885H20.0676C23.9113 19.0885 26.7707 16.1705 26.7707 12.5611C26.7707 8.8228 23.7238 6.09233 19.7512 6.09233C18.2863 3.1978 15.5676 1.33452 12.1809 1.33452C7.77466 1.33452 4.14185 4.79155 3.75513 9.13921C1.63404 9.7603 0.0168457 11.6002 0.0168457 14.0728C0.0168457 16.8502 2.03247 19.0885 5.52466 19.0885ZM5.50123 17.2135C3.09888 17.2135 1.89185 15.8658 1.89185 14.1314C1.89185 12.7252 2.71216 11.4595 4.70435 10.9322C5.34888 10.7564 5.58326 10.4517 5.64185 9.79546C5.91138 5.96343 8.78246 3.20952 12.1809 3.20952C14.8176 3.20952 16.8918 4.66264 18.1574 7.25249C18.427 7.82671 18.7785 8.02593 19.4699 8.02593C22.9387 8.02593 24.8957 10.1119 24.8957 12.608C24.8957 15.1627 22.8566 17.2135 20.1848 17.2135H5.50123Z" fill="black" fill-opacity="0.85"/>
</g>
<defs>
<clipPath id="clip0_2207_4460">
<rect width="26.7539" height="29.4186" fill="white" transform="translate(0.0168457 0.0490723)"/>
</clipPath>
</defs>
</svg>
