<svg width="24" height="24" viewBox="0 0 24 24" fill="none" xmlns="http://www.w3.org/2000/svg">
<g clip-path="url(#clip0_2207_4574)">
<path d="M11.9846 23.9565C18.5237 23.9565 23.9377 18.5308 23.9377 12.0034C23.9377 5.46435 18.512 0.050293 11.9729 0.050293C5.44555 0.050293 0.0314941 5.46435 0.0314941 12.0034C0.0314941 18.5308 5.45727 23.9565 11.9846 23.9565ZM11.9846 21.9644C6.45337 21.9644 2.0354 17.5347 2.0354 12.0034C2.0354 6.47217 6.44165 2.04248 11.9729 2.04248C17.5042 2.04248 21.9456 6.47217 21.9456 12.0034C21.9456 17.5347 17.5159 21.9644 11.9846 21.9644Z" fill="black" fill-opacity="0.85"/>
<path d="M6.46509 15.1558H12.2776C13.8596 15.1558 15.0667 13.9487 15.0667 12.4019C15.0667 10.9019 13.8479 9.7417 12.219 9.70654C11.5862 8.53467 10.4729 7.79638 9.12525 7.79638C7.344 7.79638 5.844 9.1792 5.64478 10.9487C4.76588 11.2534 4.14478 12.0269 4.14478 13.023C4.14478 14.2534 5.07056 15.1558 6.46509 15.1558ZM11.1526 7.31591C11.3635 7.53857 11.7151 7.51513 11.9143 7.31591C12.1018 7.1167 12.1253 6.76513 11.9143 6.56591L11.0706 5.73388C10.8596 5.53467 10.5315 5.53467 10.3206 5.73388C10.1213 5.92138 10.1213 6.27295 10.3206 6.48388L11.1526 7.31591ZM14.3049 6.3081C14.6096 6.3081 14.844 6.07373 14.844 5.78076V4.60888C14.844 4.31591 14.6096 4.08154 14.3049 4.08154C14.0237 4.08154 13.7776 4.31591 13.7776 4.60888V5.78076C13.7776 6.07373 14.0237 6.3081 14.3049 6.3081ZM16.719 7.3042C16.9182 7.51513 17.2815 7.53857 17.4924 7.31591L18.3127 6.48388C18.512 6.27295 18.5003 5.92138 18.3127 5.73388C18.1018 5.53467 17.7737 5.52295 17.5627 5.73388L16.719 6.56591C16.5081 6.76513 16.5315 7.1167 16.719 7.3042ZM18.2542 10.2456H19.4143C19.719 10.2456 19.9534 10.0112 19.9534 9.71826C19.9534 9.41357 19.719 9.19091 19.4143 9.19091H18.2542C17.9729 9.19091 17.7268 9.41357 17.7268 9.71826C17.7268 10.0112 17.9729 10.2456 18.2542 10.2456ZM17.5627 13.7261C17.7737 13.937 18.1018 13.9136 18.3127 13.7144C18.5003 13.5034 18.512 13.1519 18.3127 12.9644L17.4924 12.1441C17.2815 11.9448 16.9299 11.9448 16.719 12.1441C16.5315 12.3433 16.5081 12.6948 16.719 12.9058L17.5627 13.7261ZM17.0588 9.71826C17.0588 8.19482 15.8401 6.98779 14.3049 6.98779C13.3792 6.98779 12.5471 7.45654 12.0667 8.17138C12.3127 8.40576 12.512 8.65185 12.6995 8.94482C14.387 9.15576 15.676 10.3745 15.8518 12.0034C16.6018 11.4644 17.0588 10.6441 17.0588 9.71826ZM7.95338 17.7573C7.89478 17.898 7.95338 18.0151 8.11744 18.0151H9.12525L8.34009 19.9136C8.2815 20.0659 8.45728 20.1597 8.57447 20.0308L11.1643 17.3941C11.2932 17.2651 11.2346 17.0894 11.0588 17.0894H9.87525L10.4377 16.023C10.5081 15.8941 10.4495 15.7769 10.3088 15.7769H9.04322C8.86744 15.7769 8.79712 15.8355 8.73853 15.9644L7.95338 17.7573Z" fill="black" fill-opacity="0.85"/>
</g>
<defs>
<clipPath id="clip0_2207_4574">
<rect width="23.9062" height="23.918" fill="white" transform="translate(0.0314941 0.050293)"/>
</clipPath>
</defs>
</svg>
