<svg width="27" height="28" viewBox="0 0 27 28" fill="none" xmlns="http://www.w3.org/2000/svg">
<g clip-path="url(#clip0_2207_4328)">
<path d="M17.444 26.7127L20.9128 20.7127C21.112 20.3612 21.0065 19.9393 20.6549 19.7635C20.3151 19.576 19.9049 19.658 19.7057 20.0213L16.2604 25.9979C16.0495 26.3495 16.1549 26.7596 16.4948 26.9705C16.8229 27.1698 17.2565 27.0526 17.444 26.7127Z" fill="black" fill-opacity="0.85"/>
<path d="M12.8151 26.701L16.2487 20.7362C16.4596 20.3612 16.3542 19.9627 16.0026 19.7635C15.6393 19.5526 15.2409 19.658 15.0299 20.033L11.5846 26.0213C11.3971 26.3495 11.4792 26.7596 11.8424 26.9705C12.194 27.1698 12.6159 27.0526 12.8151 26.701Z" fill="black" fill-opacity="0.85"/>
<path d="M8.15117 26.701L11.5847 20.7362C11.7957 20.3612 11.6902 19.9627 11.3386 19.7635C10.9754 19.5526 10.5769 19.658 10.366 20.033L6.9207 26.0213C6.7332 26.3495 6.81523 26.7596 7.17851 26.9705C7.53007 27.1698 7.95195 27.0526 8.15117 26.701Z" fill="black" fill-opacity="0.85"/>
<path d="M3.47538 26.701L6.92069 20.7362C7.13163 20.3612 7.01444 19.9627 6.66288 19.7635C6.31131 19.5526 5.91288 19.658 5.70194 20.033L2.24491 26.0213C2.05741 26.3495 2.15116 26.7596 2.50272 26.9705C2.85428 27.1698 3.27616 27.0526 3.47538 26.701Z" fill="black" fill-opacity="0.85"/>
<path d="M5.573 17.8885H20.116C23.9597 17.8885 26.8191 14.9705 26.8191 11.3612C26.8191 7.62286 23.7722 4.89239 19.7996 4.89239C18.3347 1.99786 15.616 0.134581 12.2293 0.134581C7.823 0.134581 4.19019 3.59161 3.80347 7.93927C1.68238 8.56036 0.0651855 10.4002 0.0651855 12.8729C0.0651855 15.6502 2.08081 17.8885 5.573 17.8885ZM5.54957 16.0135C3.14722 16.0135 1.94019 14.6659 1.94019 12.9315C1.94019 11.5252 2.7605 10.2596 4.75269 9.73223C5.39722 9.55645 5.6316 9.25177 5.69019 8.59552C5.95972 4.76348 8.8308 2.00958 12.2293 2.00958C14.866 2.00958 16.9402 3.4627 18.2058 6.05255C18.4754 6.62677 18.8269 6.82598 19.5183 6.82598C22.9871 6.82598 24.9441 8.91192 24.9441 11.408C24.9441 13.9627 22.905 16.0135 20.2332 16.0135H5.54957Z" fill="black" fill-opacity="0.85"/>
</g>
<defs>
<clipPath id="clip0_2207_4328">
<rect width="26.7539" height="27.0187" fill="white" transform="translate(0.0651855 0.0490723)"/>
</clipPath>
</defs>
</svg>
