<svg width="24" height="24" viewBox="0 0 24 24" fill="none" xmlns="http://www.w3.org/2000/svg">
<g clip-path="url(#clip0_2207_4420)">
<path d="M11.9741 23.9565C18.5132 23.9565 23.9272 18.5308 23.9272 12.0034C23.9272 5.46435 18.5015 0.050293 11.9624 0.050293C5.43506 0.050293 0.0209961 5.46435 0.0209961 12.0034C0.0209961 18.5308 5.44678 23.9565 11.9741 23.9565ZM11.9741 21.9644C6.44288 21.9644 2.02491 17.5347 2.02491 12.0034C2.02491 6.47217 6.43116 2.04248 11.9624 2.04248C17.4937 2.04248 21.9351 6.47217 21.9351 12.0034C21.9351 17.5347 17.5054 21.9644 11.9741 21.9644Z" fill="black" fill-opacity="0.85"/>
<path d="M8.20069 13.6909H15.1851C17.0015 13.6909 18.396 12.2847 18.396 10.562C18.396 8.76905 16.9312 7.45655 15.0327 7.45655C14.3179 6.07374 13.0171 5.17139 11.3999 5.17139C9.29052 5.17139 7.54443 6.83546 7.34521 8.93311C6.3374 9.22608 5.56396 10.105 5.56396 11.2886C5.56396 12.6128 6.5249 13.6909 8.20069 13.6909ZM7.82568 18.1792C8.01318 18.1792 8.14208 18.0034 8.13037 17.8159L8.09521 17.1128L8.66944 17.5112C8.82177 17.6167 9.04444 17.5581 9.13819 17.4175C9.25537 17.2769 9.19677 17.0308 8.98583 16.937L8.36474 16.6323L8.98583 16.3042C9.18505 16.1987 9.23193 16.0112 9.1499 15.8472C9.06787 15.6831 8.82177 15.648 8.66944 15.7417L8.09521 16.1519L8.13037 15.4487C8.14208 15.2378 8.01318 15.0855 7.82568 15.0855C7.61474 15.0855 7.47411 15.2378 7.48583 15.437L7.53271 16.1519L6.93505 15.7417C6.79443 15.648 6.57177 15.6714 6.48974 15.8472C6.39599 15.9878 6.43115 16.1987 6.63037 16.3159L7.25146 16.6323L6.63037 16.937C6.41943 17.0308 6.39599 17.2534 6.4663 17.4058C6.54833 17.5815 6.78271 17.6167 6.93505 17.5112L7.53271 17.1128L7.49755 17.8159C7.48583 18.0034 7.61474 18.1792 7.82568 18.1792ZM11.6929 18.1792C11.8804 18.1792 12.0093 18.0034 11.9976 17.8159L11.9624 17.1128L12.5366 17.5112C12.6772 17.6167 12.9116 17.5581 13.0054 17.4175C13.1226 17.2769 13.064 17.0308 12.853 16.937L12.2319 16.6323L12.853 16.3042C13.0522 16.1987 13.0991 16.0112 13.0171 15.8472C12.9351 15.6831 12.689 15.648 12.5366 15.7417L11.9624 16.1519L11.9976 15.4487C12.0093 15.2378 11.8804 15.0855 11.6929 15.0855C11.4819 15.0855 11.3413 15.2378 11.353 15.437L11.3999 16.1519L10.8022 15.7417C10.6616 15.648 10.439 15.6714 10.3569 15.8472C10.2632 15.9878 10.2983 16.1987 10.4976 16.3159L11.1187 16.6323L10.4976 16.937C10.2866 17.0308 10.2632 17.2534 10.3335 17.4058C10.4155 17.5815 10.6499 17.6167 10.8022 17.5112L11.3999 17.1128L11.3648 17.8159C11.353 18.0034 11.4819 18.1792 11.6929 18.1792ZM15.5483 18.1792C15.7476 18.1792 15.8765 18.0034 15.8648 17.8159L15.8296 17.1128L16.4038 17.5112C16.5444 17.6167 16.7788 17.5581 16.8726 17.4175C16.978 17.2769 16.9312 17.0308 16.7202 16.937L16.0991 16.6323L16.7202 16.3042C16.9194 16.1987 16.9663 16.0112 16.8843 15.8472C16.7905 15.6831 16.5562 15.648 16.4038 15.7417L15.8296 16.1519L15.8648 15.4487C15.8765 15.2378 15.7476 15.0855 15.5483 15.0855C15.3491 15.0855 15.2085 15.2378 15.2202 15.437L15.2671 16.1519L14.6694 15.7417C14.5288 15.648 14.3062 15.6714 14.2124 15.8472C14.1304 15.9878 14.1538 16.1987 14.3648 16.3159L14.9858 16.6323L14.3648 16.937C14.1538 17.0308 14.1304 17.2534 14.2007 17.4058C14.2827 17.5815 14.5171 17.6167 14.6694 17.5112L15.2671 17.1128L15.2319 17.8159C15.2202 18.0034 15.3491 18.1792 15.5483 18.1792Z" fill="black" fill-opacity="0.85"/>
</g>
<defs>
<clipPath id="clip0_2207_4420">
<rect width="23.9062" height="23.918" fill="white" transform="translate(0.0209961 0.050293)"/>
</clipPath>
</defs>
</svg>
