<svg width="27" height="31" viewBox="0 0 27 31" fill="none" xmlns="http://www.w3.org/2000/svg">
<g clip-path="url(#clip0_2207_4440)">
<path d="M17.1496 29.0425C17.3606 29.0425 17.5129 28.8433 17.5012 28.6206L17.4191 27.5073L18.3566 28.1401C18.5207 28.2573 18.7785 28.2105 18.8957 28.0347C19.0129 27.8589 18.9426 27.5894 18.7199 27.4839L17.7121 26.9917L18.7316 26.4878C18.9426 26.3823 19.0012 26.1245 18.9074 25.9487C18.802 25.7612 18.5207 25.7261 18.3566 25.8433L17.4191 26.4878L17.5129 25.3628C17.5363 25.1284 17.3606 24.9409 17.1496 24.9409C16.9035 24.9409 16.7512 25.1284 16.7629 25.3628L16.8449 26.4878L15.8957 25.8433C15.7316 25.7261 15.4856 25.7495 15.3684 25.9487C15.2629 26.1245 15.3098 26.3823 15.5324 26.4878L16.5402 26.9917L15.5324 27.4839C15.3098 27.5894 15.2512 27.8472 15.3566 28.0347C15.4621 28.2222 15.7316 28.2573 15.8957 28.1401L16.8449 27.5191L16.7746 28.6206C16.7629 28.8433 16.9035 29.0425 17.1496 29.0425Z" fill="black" fill-opacity="0.85"/>
<path d="M10.4582 30.7886C10.6809 30.7886 10.8215 30.5894 10.8098 30.3784L10.7395 29.2651L11.6652 29.8862C11.841 30.0034 12.0988 29.9565 12.216 29.7808C12.3332 29.605 12.2629 29.3355 12.0402 29.23L11.0324 28.7495L12.052 28.2456C12.2629 28.1401 12.3215 27.8823 12.2277 27.6948C12.1223 27.5073 11.841 27.4722 11.6652 27.5894L10.7395 28.2456L10.8215 27.1089C10.8449 26.8862 10.6809 26.6987 10.4582 26.6987C10.2121 26.6987 10.0715 26.8862 10.0832 27.1089L10.1535 28.2456L9.21607 27.5894C9.04029 27.4722 8.79419 27.4956 8.67701 27.6948C8.57154 27.8823 8.61841 28.1284 8.84107 28.2456L9.8606 28.7495L8.84107 29.2417C8.61841 29.3472 8.55982 29.5933 8.66529 29.7808C8.77076 29.98 9.04029 30.0151 9.21607 29.898L10.1535 29.2651L10.0949 30.3784C10.0832 30.5894 10.2121 30.7886 10.4582 30.7886Z" fill="black" fill-opacity="0.85"/>
<path d="M4.86841 28.9956C5.07935 28.9956 5.23169 28.7964 5.21997 28.5855L5.13794 27.4605L6.07544 28.0933C6.23951 28.2105 6.50904 28.1636 6.61451 27.9878C6.73169 27.812 6.66138 27.5425 6.43873 27.437L5.43091 26.9448L6.45044 26.4409C6.66138 26.3355 6.71997 26.0894 6.62623 25.9019C6.53247 25.7144 6.23951 25.6792 6.07544 25.7964L5.13794 26.4409L5.23169 25.3159C5.25513 25.0933 5.07935 24.9058 4.86841 24.9058C4.62232 24.9058 4.46997 25.0933 4.48169 25.3159L4.56373 26.4409L3.61451 25.7964C3.45044 25.6792 3.20435 25.7026 3.08716 25.9019C2.98169 26.0894 3.02857 26.3355 3.25123 26.4409L4.25904 26.9448L3.25123 27.437C3.02857 27.5425 2.96997 27.8003 3.07544 27.9878C3.18091 28.187 3.45044 28.2222 3.61451 28.105L4.56373 27.4722L4.49341 28.5855C4.48169 28.7964 4.62232 28.9956 4.86841 28.9956Z" fill="black" fill-opacity="0.85"/>
<path d="M19.3176 24.0151L20.1027 22.6323C20.3137 22.2808 20.2082 21.8589 19.8566 21.648C19.5051 21.4487 19.0949 21.5776 18.884 21.9175L18.0871 23.3355C17.8996 23.6636 17.9816 24.0737 18.3449 24.2847C18.6965 24.4839 19.1184 24.355 19.3176 24.0151Z" fill="black" fill-opacity="0.85"/>
<path d="M12.1457 25.7612L13.9738 22.5972C14.173 22.2339 14.0676 21.8237 13.7277 21.6245C13.3645 21.4136 12.9543 21.5308 12.7551 21.8941L10.9152 25.0815C10.716 25.4214 10.8215 25.8315 11.1848 26.0308C11.5246 26.23 11.9582 26.1128 12.1457 25.7612Z" fill="black" fill-opacity="0.85"/>
<path d="M7.03638 23.9683L7.82154 22.5855C8.03247 22.2339 7.92701 21.812 7.57544 21.6011C7.22388 21.4019 6.81373 21.5308 6.60279 21.8706L5.80591 23.2886C5.61841 23.6167 5.70044 24.0269 6.06373 24.2378C6.41529 24.437 6.83716 24.3198 7.03638 23.9683Z" fill="black" fill-opacity="0.85"/>
<path d="M5.52466 19.7495H20.0676C23.9113 19.7495 26.7707 16.8315 26.7707 13.2222C26.7707 9.48389 23.7238 6.75342 19.7512 6.75342C18.2863 3.85889 15.5676 1.99561 12.1809 1.99561C7.77466 1.99561 4.14185 5.45264 3.75513 9.8003C1.63404 10.4214 0.0168457 12.2612 0.0168457 14.7339C0.0168457 17.5112 2.03247 19.7495 5.52466 19.7495Z" fill="black" fill-opacity="0.85"/>
</g>
<defs>
<clipPath id="clip0_2207_4440">
<rect width="26.7539" height="30.7383" fill="white" transform="translate(0.0168457 0.050293)"/>
</clipPath>
</defs>
</svg>
