<svg width="27" height="30" viewBox="0 0 27 30" fill="none" xmlns="http://www.w3.org/2000/svg">
<g clip-path="url(#clip0_2207_4410)">
<path d="M16.6423 29.2183C16.8532 29.2183 17.0056 29.0073 16.9939 28.7964L16.9118 27.6831L17.8493 28.3159C18.0134 28.4214 18.2829 28.3745 18.4001 28.1987C18.5056 28.023 18.447 27.7534 18.2126 27.648L17.2048 27.1675L18.2243 26.6636C18.447 26.5581 18.4939 26.3003 18.4118 26.1245C18.3063 25.937 18.0134 25.9019 17.8493 26.0073L16.9118 26.6636L17.0056 25.5269C17.029 25.3042 16.8532 25.1167 16.6423 25.1167C16.3962 25.1167 16.2556 25.3042 16.2673 25.5269L16.3376 26.6636L15.3884 26.0073C15.2243 25.9019 14.9782 25.9253 14.861 26.1245C14.7556 26.3003 14.8024 26.5464 15.0251 26.6636L16.0329 27.1675L15.0251 27.6597C14.8024 27.7651 14.7439 28.0112 14.8493 28.1987C14.9548 28.398 15.2243 28.4331 15.3884 28.3159L16.3376 27.6831L16.279 28.7964C16.2673 29.0073 16.3962 29.2183 16.6423 29.2183Z" fill="black" fill-opacity="0.85"/>
<path d="M10.1502 29.2183C10.3611 29.2183 10.5135 29.0073 10.5018 28.7964L10.4314 27.6831L11.3572 28.3159C11.5213 28.4214 11.7908 28.3745 11.908 28.1987C12.0135 28.023 11.9549 27.7534 11.7205 27.648L10.7127 27.1675L11.7322 26.6636C11.9549 26.5581 12.0018 26.3003 11.9197 26.1245C11.8143 25.937 11.5213 25.9019 11.3572 26.0073L10.4314 26.6636L10.5135 25.5269C10.5369 25.3042 10.3611 25.1167 10.1502 25.1167C9.90407 25.1167 9.76344 25.3042 9.77516 25.5269L9.84547 26.6636L8.89625 26.0073C8.73219 25.9019 8.4861 25.9253 8.36891 26.1245C8.26344 26.3003 8.31032 26.5464 8.53297 26.6636L9.54078 27.1675L8.53297 27.6597C8.31032 27.7651 8.25172 28.0112 8.35719 28.1987C8.46266 28.398 8.73219 28.4331 8.89625 28.3159L9.84547 27.6831L9.78688 28.7964C9.77516 29.0073 9.90407 29.2183 10.1502 29.2183Z" fill="black" fill-opacity="0.85"/>
<path d="M3.65796 29.2183C3.8689 29.2183 4.02124 29.0073 4.00953 28.7964L3.93921 27.6831L4.86499 28.3159C5.04077 28.4214 5.29859 28.3745 5.41577 28.1987C5.52124 28.023 5.46265 27.7534 5.22827 27.648L4.23218 27.1675L5.23999 26.6636C5.46265 26.5581 5.50953 26.3003 5.42749 26.1245C5.32203 25.937 5.04077 25.9019 4.86499 26.0073L3.93921 26.6636L4.02124 25.5269C4.04468 25.3042 3.8689 25.1167 3.65796 25.1167C3.41187 25.1167 3.27124 25.3042 3.28296 25.5269L3.35327 26.6636L2.41577 26.0073C2.23999 25.9019 1.9939 25.9253 1.87671 26.1245C1.77124 26.3003 1.81812 26.5464 2.04077 26.6636L3.04859 27.1675L2.04077 27.6597C1.81812 27.7651 1.75953 28.0112 1.86499 28.1987C1.97046 28.398 2.23999 28.4331 2.41577 28.3159L3.35327 27.6831L3.29468 28.7964C3.28296 29.0073 3.41187 29.2183 3.65796 29.2183Z" fill="black" fill-opacity="0.85"/>
<path d="M19.1854 24.812C19.3963 24.812 19.5486 24.6128 19.5369 24.4019L19.4549 23.2769L20.3924 23.9097C20.5564 24.0269 20.826 23.98 20.9432 23.8042C21.0486 23.6284 20.99 23.3589 20.7557 23.2534L19.7479 22.7612L20.7674 22.2573C20.99 22.1519 21.0369 21.9058 20.9549 21.7183C20.8494 21.5308 20.5564 21.4956 20.3924 21.6128L19.4549 22.2573L19.5486 21.1323C19.5721 20.9097 19.3963 20.7222 19.1854 20.7222C18.9393 20.7222 18.7986 20.9097 18.8104 21.1323L18.8807 22.2573L17.9314 21.6128C17.7674 21.4956 17.5213 21.5191 17.4041 21.7183C17.2986 21.9058 17.3455 22.1519 17.5682 22.2573L18.576 22.7612L17.5682 23.2534C17.3455 23.3589 17.2869 23.6167 17.3924 23.8042C17.4979 23.9917 17.7674 24.0269 17.9314 23.9214L18.8807 23.2886L18.8221 24.4019C18.8104 24.6128 18.9393 24.812 19.1854 24.812Z" fill="black" fill-opacity="0.85"/>
<path d="M12.6931 24.812C12.904 24.812 13.0563 24.6128 13.0446 24.4019L12.9743 23.2769L13.9001 23.9097C14.0642 24.0269 14.3337 23.98 14.4509 23.8042C14.5563 23.6284 14.4978 23.3589 14.2634 23.2534L13.2556 22.7612L14.2751 22.2573C14.4978 22.1519 14.5446 21.9058 14.4626 21.7183C14.3571 21.5308 14.0642 21.4956 13.9001 21.6128L12.9743 22.2573L13.0563 21.1323C13.0798 20.9097 12.904 20.7222 12.6931 20.7222C12.447 20.7222 12.3063 20.9097 12.3181 21.1323L12.3884 22.2573L11.4392 21.6128C11.2751 21.4956 11.029 21.5191 10.9118 21.7183C10.8063 21.9058 10.8532 22.1519 11.0759 22.2573L12.0837 22.7612L11.0759 23.2534C10.8532 23.3589 10.7946 23.6167 10.9001 23.8042C11.0056 23.9917 11.2751 24.0269 11.4392 23.9214L12.3884 23.2886L12.3298 24.4019C12.3181 24.6128 12.447 24.812 12.6931 24.812Z" fill="black" fill-opacity="0.85"/>
<path d="M6.20094 24.812C6.41188 24.812 6.56422 24.6128 6.5525 24.4019L6.48219 23.2769L7.40797 23.9097C7.57204 24.0269 7.84157 23.98 7.95875 23.8042C8.06422 23.6284 8.00563 23.3589 7.77125 23.2534L6.77516 22.7612L7.78297 22.2573C8.00563 22.1519 8.0525 21.9058 7.97047 21.7183C7.865 21.5308 7.57204 21.4956 7.40797 21.6128L6.48219 22.2573L6.56422 21.1323C6.58766 20.9097 6.41188 20.7222 6.20094 20.7222C5.95485 20.7222 5.81422 20.9097 5.82594 21.1323L5.89625 22.2573L4.95875 21.6128C4.78297 21.4956 4.53688 21.5191 4.41969 21.7183C4.31422 21.9058 4.3611 22.1519 4.58375 22.2573L5.59157 22.7612L4.58375 23.2534C4.3611 23.3589 4.3025 23.6167 4.40797 23.8042C4.51344 23.9917 4.78297 24.0269 4.95875 23.9214L5.89625 23.2886L5.83766 24.4019C5.82594 24.6128 5.95485 24.812 6.20094 24.812Z" fill="black" fill-opacity="0.85"/>
<path d="M5.53296 18.9644H20.0759C23.9196 18.9644 26.779 16.0464 26.779 12.437C26.779 8.69873 23.7321 5.96826 19.7595 5.96826C18.2946 3.07373 15.5759 1.21045 12.1892 1.21045C7.78296 1.21045 4.15015 4.66748 3.76343 9.01513C1.64234 9.63623 0.0251465 11.4761 0.0251465 13.9487C0.0251465 16.7261 2.04077 18.9644 5.53296 18.9644Z" fill="black" fill-opacity="0.85"/>
</g>
<defs>
<clipPath id="clip0_2207_4410">
<rect width="26.7539" height="29.168" fill="white" transform="translate(0.0251465 0.050293)"/>
</clipPath>
</defs>
</svg>
