<svg width="27" height="30" viewBox="0 0 27 30" fill="none" xmlns="http://www.w3.org/2000/svg">
<g clip-path="url(#clip0_2207_4480)">
<path d="M21.6463 28.1236C21.9979 28.3111 22.4197 28.1939 22.619 27.8541L24.1424 25.2056C24.3533 24.8541 24.2361 24.4439 23.8963 24.233C23.533 24.022 23.1346 24.1392 22.9236 24.5025L21.3885 27.1627C21.1893 27.5025 21.283 27.9127 21.6463 28.1236Z" fill="black" fill-opacity="0.85"/>
<path d="M19.3728 24.8424C19.7243 25.0416 20.1462 24.9244 20.3454 24.5728L21.8689 21.9361C22.0798 21.5728 21.9626 21.1627 21.6228 20.9517C21.2595 20.7525 20.861 20.8697 20.6501 21.2213L19.1149 23.8931C18.9157 24.233 19.0095 24.6431 19.3728 24.8424Z" fill="black" fill-opacity="0.85"/>
<path d="M16.2205 23.4361H13.5604L13.5369 23.9635L14.9666 21.2213C15.1072 20.9635 15.0018 20.7642 14.744 20.7642H12.201C11.8611 20.7642 11.744 20.8814 11.6385 21.1275L10.0447 24.7603C9.91578 25.0533 10.0447 25.2291 10.3494 25.2291H12.5174L12.6697 24.5377L10.783 29.1197C10.7244 29.272 10.7596 29.401 10.865 29.4478C10.9705 29.4947 11.0994 29.4595 11.2283 29.3306L16.408 24.022C16.6541 23.7642 16.5604 23.4361 16.2205 23.4361Z" fill="black" fill-opacity="0.85"/>
<path d="M5.35719 28.1236C5.70875 28.3111 6.13063 28.1939 6.32985 27.8541L7.85328 25.2056C8.06422 24.8541 7.94704 24.4439 7.59547 24.233C7.24391 24.022 6.84547 24.1392 6.63454 24.5025L5.08766 27.1627C4.90016 27.5025 4.99391 27.9127 5.35719 28.1236Z" fill="black" fill-opacity="0.85"/>
<path d="M3.08374 24.8424C3.43531 25.0416 3.85718 24.9244 4.0564 24.5728L5.57984 21.9361C5.79077 21.5728 5.67359 21.1627 5.32203 20.9517C4.97046 20.7525 4.57203 20.8697 4.36109 21.2213L2.82593 23.8931C2.62671 24.233 2.72046 24.6431 3.08374 24.8424Z" fill="black" fill-opacity="0.85"/>
<path d="M5.53296 19.0885H20.0759C23.9196 19.0885 26.779 16.1705 26.779 12.5611C26.779 8.8228 23.7321 6.09233 19.7595 6.09233C18.2946 3.1978 15.5759 1.33452 12.1892 1.33452C7.78296 1.33452 4.15015 4.79155 3.76343 9.13921C1.64234 9.7603 0.0251465 11.6002 0.0251465 14.0728C0.0251465 16.8502 2.04077 19.0885 5.53296 19.0885ZM5.50953 17.2135C3.10718 17.2135 1.90015 15.8658 1.90015 14.1314C1.90015 12.7252 2.72046 11.4595 4.71265 10.9322C5.35718 10.7564 5.59156 10.4517 5.65015 9.79546C5.91968 5.96343 8.79077 3.20952 12.1892 3.20952C14.8259 3.20952 16.9001 4.66264 18.1657 7.25249C18.4353 7.82671 18.7868 8.02593 19.4782 8.02593C22.947 8.02593 24.904 10.1119 24.904 12.608C24.904 15.1627 22.8649 17.2135 20.1931 17.2135H5.50953Z" fill="black" fill-opacity="0.85"/>
</g>
<defs>
<clipPath id="clip0_2207_4480">
<rect width="26.7539" height="29.4186" fill="white" transform="translate(0.0251465 0.0490723)"/>
</clipPath>
</defs>
</svg>
