<svg width="24" height="24" viewBox="0 0 24 24" fill="none" xmlns="http://www.w3.org/2000/svg">
<g clip-path="url(#clip0_2207_25854)">
<path d="M12.0078 23.9565C18.5469 23.9565 23.9609 18.5308 23.9609 12.0034C23.9609 5.46435 18.5352 0.050293 11.9961 0.050293C5.46875 0.050293 0.0546875 5.46435 0.0546875 12.0034C0.0546875 18.5308 5.48047 23.9565 12.0078 23.9565ZM12.0078 21.9644C6.47657 21.9644 2.0586 17.5347 2.0586 12.0034C2.0586 6.47217 6.46485 2.04248 11.9961 2.04248C17.5274 2.04248 21.9688 6.47217 21.9688 12.0034C21.9688 17.5347 17.5391 21.9644 12.0078 21.9644Z" fill="black" fill-opacity="0.85"/>
<path d="M7.22656 12.1089C7.22656 14.1597 7.87109 15.7534 8.99609 16.7261L8.56249 18.4253C8.53906 18.5191 8.52734 18.6011 8.52734 18.6831C8.52734 19.0347 8.74999 19.2691 9.08984 19.2691C9.3828 19.2691 9.59374 19.1284 9.67577 18.812L10.0391 17.3706C10.3672 17.5112 10.707 17.6167 11.0703 17.6753L10.8828 18.437C10.8477 18.5308 10.8359 18.6011 10.8359 18.6831C10.8359 19.0347 11.0586 19.2691 11.4102 19.2691C11.6914 19.2691 11.9141 19.1284 11.9961 18.812L12.2656 17.7456C14.1641 17.6519 15.5352 16.6675 16.0508 15.2026C16.1211 15.0151 16.168 14.8042 16.168 14.605C16.168 14.1831 15.8867 13.8667 15.4414 13.8667C15.043 13.8667 14.8086 14.148 14.6914 14.4995C14.4336 15.4253 13.6719 16.1167 12.6406 16.2691L14.4102 9.34327C14.5156 9.44874 14.6094 9.62452 14.668 9.83546C14.7852 10.1167 14.9609 10.398 15.3711 10.398C15.8047 10.398 16.0859 10.1167 16.0859 9.67139C16.0859 9.48389 16.0391 9.28468 15.9688 9.09718C15.7461 8.47608 15.3594 7.93702 14.8672 7.51514L15.2422 6.01514C15.2774 5.92139 15.2891 5.83936 15.2891 5.75733C15.2891 5.41749 15.0664 5.18311 14.7149 5.18311C14.4336 5.18311 14.2109 5.32374 14.1289 5.64014L13.8008 6.87061C13.4961 6.72999 13.1563 6.63624 12.793 6.56592L12.9219 6.01514C12.957 5.93311 12.9688 5.83936 12.9688 5.75733C12.9688 5.41749 12.7461 5.18311 12.3945 5.18311C12.1133 5.18311 11.8906 5.32374 11.8086 5.64014L11.5859 6.51905C8.93749 6.70655 7.22656 8.85108 7.22656 12.1089ZM8.79687 12.1089C8.79687 9.92921 9.69921 8.40577 11.1992 8.03077L9.46484 14.8628C9.03124 14.1597 8.79687 13.2339 8.79687 12.1089ZM10.4024 15.9175L12.4414 7.96046C12.8047 8.00733 13.1445 8.13623 13.4492 8.31202L11.4219 16.3042C11.0352 16.2456 10.707 16.1167 10.4024 15.9175Z" fill="black" fill-opacity="0.85"/>
</g>
<defs>
<clipPath id="clip0_2207_25854">
<rect width="23.9062" height="23.918" fill="white" transform="translate(0.0546875 0.050293)"/>
</clipPath>
</defs>
</svg>
