<svg width="22" height="22" viewBox="0 0 22 22" fill="none" xmlns="http://www.w3.org/2000/svg">
<g clip-path="url(#clip0_2207_25869)">
<path d="M3.74073 21.648H17.9555C20.4165 21.648 21.6352 20.4292 21.6352 18.0151V3.70654C21.6352 1.29248 20.4165 0.0737305 17.9555 0.0737305H3.74073C1.29151 0.0737305 0.0610352 1.28076 0.0610352 3.70654V18.0151C0.0610352 20.4409 1.29151 21.648 3.74073 21.648Z" fill="black" fill-opacity="0.85"/>
<path d="M5.93213 10.9605C5.93213 7.59717 7.68995 5.38232 10.4204 5.1831L10.6548 4.28076C10.7368 3.95263 10.9712 3.81201 11.2758 3.81201C11.6274 3.81201 11.8618 4.04638 11.8618 4.39795C11.8618 4.4917 11.8383 4.58545 11.8149 4.66748L11.6743 5.22998C12.0493 5.31201 12.4008 5.40576 12.729 5.54638L13.0454 4.28076C13.1391 3.95263 13.3618 3.81201 13.6665 3.81201C14.018 3.81201 14.2524 4.04638 14.2524 4.39795C14.2524 4.4917 14.2407 4.57373 14.2055 4.66748L13.8188 6.21435C14.3227 6.64795 14.7212 7.19873 14.9555 7.84326C15.0258 8.04248 15.0727 8.2417 15.0727 8.44091C15.0727 8.89795 14.7798 9.19091 14.3344 9.19091C13.9126 9.19091 13.7251 8.89795 13.6079 8.60498C13.5493 8.39404 13.4438 8.21826 13.3383 8.11279L11.5219 15.2495C12.5766 15.0855 13.3618 14.3706 13.6313 13.4214C13.7485 13.0581 13.9946 12.7651 14.4048 12.7651C14.8735 12.7651 15.1548 13.0933 15.1548 13.5386C15.1548 13.7378 15.1079 13.9605 15.0376 14.148C14.5102 15.6597 13.0922 16.6792 11.1469 16.773L10.854 17.8745C10.7837 18.2026 10.5493 18.3433 10.2446 18.3433C9.88135 18.3433 9.67042 18.1089 9.67042 17.7456C9.67042 17.6519 9.68213 17.5815 9.70557 17.4878L9.89307 16.7026C9.51807 16.6441 9.16651 16.5386 8.83838 16.3862L8.46338 17.8745C8.39307 18.2026 8.1587 18.3433 7.85401 18.3433C7.50245 18.3433 7.26807 18.1089 7.26807 17.7456C7.26807 17.6519 7.27979 17.5698 7.30323 17.4761L7.74854 15.7183C6.58838 14.7222 5.93213 13.0698 5.93213 10.9605ZM7.56104 10.9605C7.56104 12.1089 7.79542 13.0698 8.24073 13.7847L10.022 6.75341C8.48682 7.14013 7.56104 8.71045 7.56104 10.9605ZM9.21338 14.8862C9.52979 15.0855 9.85792 15.2261 10.2563 15.2847L12.3422 7.04638C12.0376 6.85888 11.686 6.72998 11.311 6.6831L9.21338 14.8862Z" fill="white"/>
</g>
<defs>
<clipPath id="clip0_2207_25869">
<rect width="21.5742" height="21.5977" fill="white" transform="translate(0.0610352 0.050293)"/>
</clipPath>
</defs>
</svg>
