<svg width="24" height="24" viewBox="0 0 24 24" fill="none" xmlns="http://www.w3.org/2000/svg">
<g clip-path="url(#clip0_2207_3278)">
<path d="M12.0244 23.9683C18.5635 23.9683 23.9775 18.5542 23.9775 12.0151C23.9775 5.48779 18.5518 0.0620117 12.0127 0.0620117C5.48535 0.0620117 0.0712891 5.48779 0.0712891 12.0151C0.0712891 18.5542 5.49707 23.9683 12.0244 23.9683Z" fill="black" fill-opacity="0.85"/>
<path d="M9.18848 10.9136H8.28613C6.85645 10.9136 5.70801 9.77685 5.70801 8.3706C5.70801 6.94091 6.85645 5.79248 8.28613 5.79248C9.69238 5.79248 10.8525 6.95263 10.8525 8.3706V9.28467H13.0322V8.3706C13.0322 6.95263 14.1807 5.79248 15.5986 5.79248C17.0166 5.79248 18.1651 6.94091 18.1651 8.3706C18.1651 9.77685 17.0166 10.9136 15.5986 10.9136H14.6846V13.1284H15.5986C17.0166 13.1284 18.1651 14.2651 18.1651 15.6831C18.1651 17.1011 17.0166 18.2495 15.5986 18.2495C14.1807 18.2495 13.0322 17.0894 13.0322 15.6831V14.7691H10.8525V15.6831C10.8525 17.0894 9.69238 18.2495 8.28613 18.2495C6.85645 18.2495 5.70801 17.1011 5.70801 15.6831C5.70801 14.2651 6.85645 13.1284 8.28613 13.1284H9.18848V10.9136ZM10.8525 13.1401H13.0322V10.9019H10.8525V13.1401ZM8.28613 9.29638H9.18848V8.3706C9.18848 7.8667 8.77832 7.44482 8.28613 7.44482C7.78223 7.44482 7.36035 7.8667 7.36035 8.3706C7.36035 8.87451 7.77051 9.29638 8.28613 9.29638ZM15.5986 9.29638C16.1025 9.29638 16.5244 8.87451 16.5244 8.3706C16.5244 7.8667 16.0908 7.44482 15.5986 7.44482C15.0947 7.44482 14.6846 7.8667 14.6846 8.3706V9.29638H15.5986ZM8.28613 14.7456C7.78223 14.7456 7.36035 15.1675 7.36035 15.6714C7.36035 16.1753 7.77051 16.5972 8.28613 16.5972C8.77832 16.5972 9.18848 16.1753 9.18848 15.6714V14.7456H8.28613ZM15.5986 14.7456H14.6846V15.6714C14.6846 16.1753 15.0947 16.5972 15.5986 16.5972C16.1025 16.5972 16.5244 16.1753 16.5244 15.6714C16.5244 15.1675 16.0908 14.7456 15.5986 14.7456Z" fill="white"/>
</g>
<defs>
<clipPath id="clip0_2207_3278">
<rect width="23.9062" height="23.918" fill="white" transform="translate(0.0712891 0.050293)"/>
</clipPath>
</defs>
</svg>
