<svg width="24" height="24" viewBox="0 0 24 24" fill="none" xmlns="http://www.w3.org/2000/svg">
<g clip-path="url(#clip0_2207_3273)">
<path d="M12.0224 23.9565C18.5615 23.9565 23.9755 18.5308 23.9755 12.0034C23.9755 5.46435 18.5498 0.050293 12.0107 0.050293C5.4834 0.050293 0.0693359 5.46435 0.0693359 12.0034C0.0693359 18.5308 5.49512 23.9565 12.0224 23.9565ZM12.0224 21.9644C6.49122 21.9644 2.07325 17.5347 2.07325 12.0034C2.07325 6.47217 6.4795 2.04248 12.0107 2.04248C17.542 2.04248 21.9834 6.47217 21.9834 12.0034C21.9834 17.5347 17.5537 21.9644 12.0224 21.9644Z" fill="black" fill-opacity="0.85"/>
<path d="M9.25684 10.9253V13.0933H8.37793C6.99512 13.0933 5.88184 14.1948 5.88184 15.5542C5.88184 16.937 6.99512 18.0503 8.37793 18.0503C9.73731 18.0503 10.8623 16.9253 10.8623 15.5542V14.6636H12.9951V15.5542C12.9951 16.9253 14.1084 18.0503 15.4795 18.0503C16.8505 18.0503 17.9638 16.937 17.9638 15.5542C17.9638 14.1948 16.8505 13.0933 15.4795 13.0933H14.5888V10.9253H15.4795C16.8505 10.9253 17.9638 9.82373 17.9638 8.45263C17.9638 7.08154 16.8505 5.96826 15.4795 5.96826C14.1084 5.96826 12.9951 7.09326 12.9951 8.45263V9.34326H10.8623V8.45263C10.8623 7.09326 9.73731 5.96826 8.37793 5.96826C6.99512 5.96826 5.88184 7.08154 5.88184 8.45263C5.88184 9.82373 6.99512 10.9253 8.37793 10.9253H9.25684ZM10.8623 13.105V10.9136H12.9951V13.105H10.8623ZM8.37793 9.35498C7.87403 9.35498 7.47559 8.95654 7.47559 8.45263C7.47559 7.97217 7.88575 7.55029 8.37793 7.55029C8.8584 7.55029 9.25684 7.97217 9.25684 8.45263V9.35498H8.37793ZM15.4795 9.35498H14.5888V8.45263C14.5888 7.97217 14.9873 7.55029 15.4795 7.55029C15.9599 7.55029 16.3818 7.97217 16.3818 8.45263C16.3818 8.95654 15.9716 9.35498 15.4795 9.35498ZM8.37793 14.6401H9.25684V15.5425C9.25684 16.0464 8.8584 16.4448 8.37793 16.4448C7.87403 16.4448 7.47559 16.0464 7.47559 15.5425C7.47559 15.062 7.88575 14.6401 8.37793 14.6401ZM15.4795 14.6401C15.9599 14.6401 16.3818 15.062 16.3818 15.5425C16.3818 16.0464 15.9716 16.4448 15.4795 16.4448C14.9873 16.4448 14.5888 16.0464 14.5888 15.5425V14.6401H15.4795Z" fill="black" fill-opacity="0.85"/>
</g>
<defs>
<clipPath id="clip0_2207_3273">
<rect width="23.9062" height="23.918" fill="white" transform="translate(0.0693359 0.050293)"/>
</clipPath>
</defs>
</svg>
