<svg width="18" height="27" viewBox="0 0 18 27" fill="none" xmlns="http://www.w3.org/2000/svg">
<g clip-path="url(#clip0_2207_21794)">
<path d="M8.19873 3.71826H9.49952V0.694824C9.49952 0.331543 9.20655 0.050293 8.84326 0.050293C8.47998 0.050293 8.19873 0.343262 8.19873 0.706543V3.71826ZM8.84326 9.69482C10.8471 9.69482 12.4409 8.10107 12.4409 6.10888C12.4409 4.10498 10.8471 2.51123 8.84326 2.51123C6.85108 2.51123 5.25733 4.10498 5.25733 6.10888C5.25733 8.10107 6.85108 9.69482 8.84326 9.69482ZM8.84326 7.92529C7.78858 7.92529 7.02686 7.15185 7.02686 6.10888C7.02686 5.0542 7.78858 4.28076 8.84326 4.28076C9.89795 4.28076 10.6714 5.0542 10.6714 6.10888C10.6714 7.15185 9.89795 7.92529 8.84326 7.92529ZM8.3628 8.75732L6.52295 8.31201L1.99952 23.5112C1.84717 24.0034 2.16358 24.5308 2.66748 24.6597C3.17139 24.8003 3.6753 24.5073 3.82764 23.9917L8.3628 8.75732ZM2.50342 22.8433L1.63623 26.0894C1.5542 26.4175 1.72998 26.7573 2.06983 26.8394C2.40967 26.9331 2.7378 26.7456 2.83155 26.4058L3.69873 23.1714L2.50342 22.8433ZM9.33545 8.75732L13.8706 23.9917C14.0229 24.5073 14.5268 24.8003 15.0307 24.6597C15.5346 24.5308 15.8393 24.0034 15.6987 23.5112L11.1753 8.31201L9.33545 8.75732ZM15.1948 22.8433L13.9878 23.1714L14.8667 26.4058C14.9604 26.7456 15.2885 26.9331 15.6284 26.8394C15.9565 26.7573 16.144 26.4175 16.0503 26.0894L15.1948 22.8433ZM0.851075 15.2612C0.417481 15.2612 0.0776367 15.6011 0.0776367 16.023C0.0776367 16.4448 0.417481 16.7964 0.851075 16.7964H16.8471C17.269 16.7964 17.6206 16.4448 17.6206 16.023C17.6206 15.6011 17.269 15.2612 16.8471 15.2612H0.851075ZM9.6167 14.0073C9.6167 13.5855 9.26514 13.2339 8.84326 13.2339C8.42139 13.2339 8.08155 13.5855 8.08155 14.0073V18.0386C8.08155 18.4605 8.42139 18.812 8.84326 18.812C9.26514 18.812 9.6167 18.4605 9.6167 18.0386V14.0073Z" fill="black" fill-opacity="0.85"/>
</g>
<defs>
<clipPath id="clip0_2207_21794">
<rect width="17.543" height="26.8945" fill="white" transform="translate(0.0776367 0.050293)"/>
</clipPath>
</defs>
</svg>
