<svg width="21" height="23" viewBox="0 0 21 23" fill="none" xmlns="http://www.w3.org/2000/svg">
<g clip-path="url(#clip0_2207_3305)">
<path d="M0.410888 9.67138C0.21167 9.88232 0.0944824 10.1401 0.0944824 10.4331C0.0944824 11.0425 0.551513 11.5112 1.16089 11.5112C1.46557 11.5112 1.7351 11.3823 1.9226 11.1948L10.8992 2.03076H9.64526L18.6218 11.1948C18.8211 11.3823 19.0906 11.5112 19.3836 11.5112C19.9929 11.5112 20.45 11.0425 20.45 10.4331C20.45 10.1401 20.3328 9.88232 20.1336 9.67138L11.0633 0.390137C10.864 0.167481 10.5711 0.050293 10.2781 0.050293C9.97339 0.050293 9.70386 0.167481 9.4812 0.390137L0.410888 9.67138Z" fill="black" fill-opacity="0.85"/>
</g>
<defs>
<clipPath id="clip0_2207_3305">
<rect width="20.3555" height="22.043" fill="white" transform="translate(0.0944824 0.050293)"/>
</clipPath>
</defs>
</svg>
