<svg width="29" height="24" viewBox="0 0 29 24" fill="none" xmlns="http://www.w3.org/2000/svg">
<g clip-path="url(#clip0_2207_12315)">
<path d="M3.59082 23.0776H24.8838C27.2041 23.0776 28.3759 21.8941 28.3759 19.6206V3.51904C28.3759 1.2456 27.2041 0.0620117 24.8838 0.0620117H3.59082C1.28222 0.0620117 0.0986328 1.2456 0.0986328 3.51904V19.6206C0.0986328 21.8941 1.28222 23.0776 3.59082 23.0776ZM7.30566 10.6558C5.31347 10.6558 3.68457 9.01513 3.68457 7.02295C3.68457 5.03076 5.31347 3.39013 7.30566 3.39013C9.30957 3.39013 10.9384 5.03076 10.9384 7.02295C10.9384 9.01513 9.30957 10.6558 7.30566 10.6558ZM16.6806 10.6558C14.6767 10.6558 13.0478 9.01513 13.0478 7.02295C13.0478 5.03076 14.6767 3.39013 16.6806 3.39013C18.6845 3.39013 20.3017 5.03076 20.3017 7.02295C20.3017 9.01513 18.6845 10.6558 16.6806 10.6558ZM7.30566 19.7144C5.31347 19.7144 3.68457 18.0855 3.68457 16.0815C3.68457 14.0894 5.31347 12.4605 7.30566 12.4605C9.30957 12.4605 10.9384 14.0894 10.9384 16.0815C10.9384 18.0855 9.30957 19.7144 7.30566 19.7144ZM16.6806 19.7144C14.6767 19.7144 13.0478 18.0855 13.0478 16.0815C13.0478 14.0894 14.6767 12.4605 16.6806 12.4605C18.6845 12.4605 20.3017 14.0894 20.3017 16.0815C20.3017 18.0855 18.6845 19.7144 16.6806 19.7144ZM24.1338 7.40967C23.5361 7.40967 23.0674 6.94091 23.0674 6.34326C23.0674 5.76904 23.5361 5.28857 24.1338 5.28857C24.7197 5.28857 25.1884 5.76904 25.1884 6.34326C25.1884 6.94091 24.7197 7.40967 24.1338 7.40967ZM24.1338 10.8784C23.5361 10.8784 23.0674 10.4214 23.0674 9.81201C23.0674 9.23779 23.5361 8.75732 24.1338 8.75732C24.7197 8.75732 25.1884 9.23779 25.1884 9.81201C25.1884 10.4214 24.7197 10.8784 24.1338 10.8784ZM24.1338 14.3706C23.5361 14.3706 23.0674 13.8901 23.0674 13.3042C23.0674 12.7065 23.5361 12.2495 24.1338 12.2495C24.7197 12.2495 25.1884 12.7065 25.1884 13.3042C25.1884 13.8901 24.7197 14.3706 24.1338 14.3706ZM24.1338 17.8394C23.5361 17.8394 23.0674 17.3589 23.0674 16.773C23.0674 16.187 23.5361 15.7183 24.1338 15.7183C24.7197 15.7183 25.1884 16.187 25.1884 16.773C25.1884 17.3589 24.7197 17.8394 24.1338 17.8394ZM7.30566 9.4956C8.67675 9.4956 9.79004 8.39404 9.79004 7.02295C9.79004 5.65185 8.67675 4.55029 7.30566 4.55029C5.94629 4.55029 4.84472 5.65185 4.84472 7.02295C4.84472 8.39404 5.94629 9.4956 7.30566 9.4956ZM7.30566 8.9331C6.25097 8.9331 5.41894 8.10107 5.41894 7.02295C5.41894 5.94482 6.25097 5.12451 7.30566 5.12451C8.38379 5.12451 9.2041 5.94482 9.2041 7.02295C9.2041 8.10107 8.38379 8.9331 7.30566 8.9331ZM16.6806 9.4956C18.0517 9.4956 19.1533 8.39404 19.1533 7.02295C19.1533 5.65185 18.0517 4.55029 16.6806 4.55029C15.3213 4.55029 14.208 5.65185 14.208 7.02295C14.208 8.39404 15.3213 9.4956 16.6806 9.4956ZM16.6806 8.9331C15.6025 8.9331 14.7705 8.10107 14.7705 7.02295C14.7705 5.94482 15.6025 5.12451 16.6806 5.12451C17.747 5.12451 18.5791 5.94482 18.5791 7.02295C18.5791 8.10107 17.747 8.9331 16.6806 8.9331ZM7.30566 18.5542C8.67675 18.5542 9.79004 17.4644 9.79004 16.0815C9.79004 14.7105 8.67675 13.6206 7.30566 13.6206C5.94629 13.6206 4.84472 14.7105 4.84472 16.0815C4.84472 17.4644 5.94629 18.5542 7.30566 18.5542ZM7.30566 17.9917C6.25097 17.9917 5.41894 17.1597 5.41894 16.0815C5.41894 15.0151 6.25097 14.1831 7.30566 14.1831C8.38379 14.1831 9.2041 15.0151 9.2041 16.0815C9.2041 17.1597 8.38379 17.9917 7.30566 17.9917ZM16.6806 18.5542C18.0517 18.5542 19.1533 17.4644 19.1533 16.0815C19.1533 14.7105 18.0517 13.6206 16.6806 13.6206C15.3213 13.6206 14.208 14.7105 14.208 16.0815C14.208 17.4644 15.3213 18.5542 16.6806 18.5542ZM16.6806 17.9917C15.6025 17.9917 14.7705 17.1597 14.7705 16.0815C14.7705 15.0151 15.6025 14.1831 16.6806 14.1831C17.747 14.1831 18.5791 15.0151 18.5791 16.0815C18.5791 17.1597 17.747 17.9917 16.6806 17.9917Z" fill="black" fill-opacity="0.85"/>
</g>
<defs>
<clipPath id="clip0_2207_12315">
<rect width="28.2773" height="23.0273" fill="white" transform="translate(0.0986328 0.050293)"/>
</clipPath>
</defs>
</svg>
