<svg width="24" height="24" viewBox="0 0 24 24" fill="none" xmlns="http://www.w3.org/2000/svg">
<g clip-path="url(#clip0_2207_13060)">
<path d="M0 15.7315C0 16.294 0.375 16.6807 0.9375 16.6807H2.14453V20.5713C2.14453 21.1338 2.51953 21.4971 3.08203 21.4971H6.96094V22.7041C6.96094 23.2666 7.34766 23.6416 7.91016 23.6416C8.47266 23.6416 8.84766 23.2666 8.84766 22.7041V21.4971H10.8516V22.7041C10.8516 23.2666 11.2266 23.6416 11.7891 23.6416C12.3516 23.6416 12.7383 23.2666 12.7383 22.7041V21.4971H14.7305V22.7041C14.7305 23.2666 15.1055 23.6416 15.668 23.6416C16.2422 23.6416 16.6172 23.2666 16.6172 22.7041V21.4971H20.4961C21.0586 21.4971 21.4336 21.1338 21.4336 20.5713V16.669H22.6406C23.2031 16.669 23.5781 16.2823 23.5781 15.7198C23.5781 15.1573 23.2031 14.7823 22.6406 14.7823H21.4336V12.7784H22.6406C23.2031 12.7784 23.5781 12.4034 23.5781 11.8409C23.5781 11.2784 23.2031 10.8916 22.6406 10.8916H21.4336V8.89942H22.6406C23.2031 8.89942 23.5781 8.5127 23.5781 7.9502C23.5781 7.3877 23.2031 7.0127 22.6406 7.0127H21.4336V3.14551C21.4336 2.58301 21.0586 2.20801 20.4961 2.20801H16.6172V1.0127C16.6172 0.450196 16.2422 0.0634766 15.668 0.0634766C15.1055 0.0634766 14.7305 0.450196 14.7305 1.0127V2.20801H12.7383V1.0127C12.7383 0.450196 12.3516 0.0634766 11.7891 0.0634766C11.2266 0.0634766 10.8516 0.450196 10.8516 1.0127V2.20801H8.84766V1.0127C8.84766 0.450196 8.47266 0.0634766 7.91016 0.0634766C7.34766 0.0634766 6.96094 0.450196 6.96094 1.0127V2.20801H3.08203C2.51953 2.20801 2.14453 2.58301 2.14453 3.14551V7.02442H0.9375C0.375 7.02442 0 7.39942 0 7.96192C0 8.52442 0.375 8.91114 0.9375 8.91114H2.14453V10.9034H0.9375C0.375 10.9034 0 11.2901 0 11.8526C0 12.4151 0.375 12.7901 0.9375 12.7901H2.14453V14.794H0.9375C0.375 14.794 0 15.169 0 15.7315ZM4.03125 19.2706V4.44629C4.03125 4.18848 4.125 4.09473 4.37109 4.09473H19.207C19.4531 4.09473 19.5469 4.18848 19.5469 4.44629V19.2706C19.5469 19.5284 19.4531 19.6104 19.207 19.6104H4.37109C4.125 19.6104 4.03125 19.5284 4.03125 19.2706ZM7.44141 17.1026H16.1602C16.7578 17.1026 17.0391 16.8213 17.0391 16.2002V7.50488C17.0391 6.89551 16.7578 6.61426 16.1602 6.61426H7.44141C6.84375 6.61426 6.55078 6.89551 6.55078 7.50488V16.2002C6.55078 16.8213 6.84375 17.1026 7.44141 17.1026ZM8.08594 15.2862V8.43067C8.08594 8.25488 8.20312 8.14942 8.36719 8.14942H15.2227C15.3984 8.14942 15.5039 8.25488 15.5039 8.43067V15.2862C15.5039 15.4502 15.3984 15.5674 15.2227 15.5674H8.36719C8.20312 15.5674 8.08594 15.4502 8.08594 15.2862Z" fill="black" fill-opacity="0.85"/>
</g>
<defs>
<clipPath id="clip0_2207_13060">
<rect width="23.5781" height="23.5898" fill="white" transform="translate(0 0.0517578)"/>
</clipPath>
</defs>
</svg>
