<svg width="23" height="24" viewBox="0 0 23 24" fill="none" xmlns="http://www.w3.org/2000/svg">
<g clip-path="url(#clip0_2207_18968)">
<path d="M0.956299 7.52832C1.57739 7.52832 1.90552 7.17676 1.90552 6.56738V3.80176C1.90552 2.58301 2.55005 1.96192 3.72192 1.96192H6.55786C7.17896 1.96192 7.5188 1.62207 7.5188 1.0127C7.5188 0.40332 7.17896 0.0751953 6.55786 0.0751953H3.69849C1.24927 0.0751953 0.0187988 1.28223 0.0187988 3.69629V6.56738C0.0187988 7.17676 0.358643 7.52832 0.956299 7.52832ZM22.0149 7.52832C22.636 7.52832 22.9641 7.17676 22.9641 6.56738V3.69629C22.9641 1.28223 21.7336 0.0751953 19.2844 0.0751953H16.4133C15.804 0.0751953 15.4641 0.40332 15.4641 1.0127C15.4641 1.62207 15.804 1.96192 16.4133 1.96192H19.2493C20.4094 1.96192 21.0774 2.58301 21.0774 3.80176V6.56738C21.0774 7.17676 21.4172 7.52832 22.0149 7.52832ZM3.69849 23.0088H6.55786C7.17896 23.0088 7.5188 22.669 7.5188 22.0713C7.5188 21.462 7.17896 21.1221 6.55786 21.1221H3.72192C2.55005 21.1221 1.90552 20.501 1.90552 19.2823V16.5166C1.90552 15.8956 1.56568 15.5557 0.956299 15.5557C0.346924 15.5557 0.0187988 15.8956 0.0187988 16.5166V19.376C0.0187988 21.8018 1.24927 23.0088 3.69849 23.0088ZM16.4133 23.0088H19.2844C21.7336 23.0088 22.9641 21.7901 22.9641 19.376V16.5166C22.9641 15.8956 22.6243 15.5557 22.0149 15.5557C21.4055 15.5557 21.0774 15.8956 21.0774 16.5166V19.2823C21.0774 20.501 20.4094 21.1221 19.2493 21.1221H16.4133C15.804 21.1221 15.4641 21.462 15.4641 22.0713C15.4641 22.669 15.804 23.0088 16.4133 23.0088Z" fill="black" fill-opacity="0.85"/>
<path d="M6.60474 16.3995H16.3899C17.5735 16.3995 18.1711 15.8135 18.1711 14.6416V10.2823H4.82349V14.6416C4.82349 15.8135 5.42114 16.3995 6.60474 16.3995ZM7.15552 14.6416C6.82739 14.6416 6.60474 14.419 6.60474 14.0909V13.0479C6.60474 12.7198 6.82739 12.4971 7.15552 12.4971H8.53833C8.86646 12.4971 9.10083 12.7198 9.10083 13.0479V14.0909C9.10083 14.419 8.86646 14.6416 8.53833 14.6416H7.15552ZM4.82349 8.98145H18.1711V8.46582C18.1711 7.29395 17.5735 6.70801 16.3899 6.70801H6.60474C5.42114 6.70801 4.82349 7.29395 4.82349 8.46582V8.98145Z" fill="black" fill-opacity="0.85"/>
</g>
<defs>
<clipPath id="clip0_2207_18968">
<rect width="22.9453" height="22.957" fill="white" transform="translate(0.0187988 0.0517578)"/>
</clipPath>
</defs>
</svg>
