<svg width="24" height="24" viewBox="0 0 24 24" fill="none" xmlns="http://www.w3.org/2000/svg">
<g clip-path="url(#clip0_2207_10129)">
<path d="M11.9636 23.958C18.5027 23.958 23.9167 18.5323 23.9167 12.0049C23.9167 5.46582 18.491 0.0517578 11.9519 0.0517578C5.42456 0.0517578 0.010498 5.46582 0.010498 12.0049C0.010498 18.5323 5.43628 23.958 11.9636 23.958Z" fill="black" fill-opacity="0.85"/>
<path d="M6.91284 17.0088C5.70581 17.0088 5.08472 16.4112 5.08472 15.1924V10.7041H18.8425V15.1924C18.8425 16.4112 18.2214 17.0088 17.0144 17.0088H6.91284ZM7.47534 15.1924H8.91675C9.25659 15.1924 9.49097 14.9698 9.49097 14.6416V13.5518C9.49097 13.2237 9.25659 13.001 8.91675 13.001H7.47534C7.14722 13.001 6.91284 13.2237 6.91284 13.5518V14.6416C6.91284 14.9698 7.14722 15.1924 7.47534 15.1924ZM5.08472 9.36816V8.82909C5.08472 7.61034 5.70581 7.02441 6.91284 7.02441H17.0144C18.2214 7.02441 18.8425 7.62206 18.8425 8.82909V9.36816H5.08472Z" fill="white"/>
</g>
<defs>
<clipPath id="clip0_2207_10129">
<rect width="23.9062" height="23.918" fill="white" transform="translate(0.010498 0.0517578)"/>
</clipPath>
</defs>
</svg>
