<svg width="24" height="24" viewBox="0 0 24 24" fill="none" xmlns="http://www.w3.org/2000/svg">
<g clip-path="url(#clip0_2207_3149)">
<path d="M0.0273438 12.0049C0.0273438 13.962 0.507813 15.8018 1.375 17.4424L3.40234 15.4151C3.67187 15.1456 4.08203 15.1456 4.35156 15.4151C4.62109 15.6846 4.63281 16.0948 4.35156 16.376L2.07812 18.6495C2.37109 19.0596 2.66406 19.458 3.0039 19.8213L19.8085 3.02832C19.4335 2.68848 19.0234 2.38379 18.625 2.10254L16.3281 4.39942C16.0585 4.66895 15.6367 4.65723 15.3671 4.39942C15.0976 4.12988 15.0976 3.71973 15.3671 3.43848L17.4062 1.41114C15.7773 0.532227 13.9257 0.0517578 11.9687 0.0517578C5.4414 0.0517578 0.0273438 5.46582 0.0273438 12.0049ZM14.5351 6.19238L12.9296 7.79785C12.6601 8.06738 12.2382 8.05567 11.9687 7.79785C11.7109 7.52832 11.6992 7.09473 11.9687 6.83692L13.5859 5.23145C13.8554 4.97364 14.2773 4.96192 14.5351 5.23145C14.8046 5.50098 14.8046 5.92285 14.5351 6.19238ZM11.1484 9.59082L9.53125 11.1963C9.27343 11.4541 8.85156 11.4541 8.58203 11.1963C8.3125 10.9268 8.3125 10.5049 8.58203 10.2354L10.1875 8.62988C10.457 8.36035 10.8789 8.36035 11.1484 8.62988C11.4062 8.8877 11.4179 9.33301 11.1484 9.59082ZM7.75 12.9776L6.15625 14.583C5.875 14.8526 5.46484 14.8409 5.19531 14.583C4.92578 14.3135 4.92578 13.9034 5.19531 13.6338L6.78906 12.0166C7.05859 11.7471 7.48046 11.7588 7.75 12.0166C8.00781 12.2862 8.03125 12.708 7.75 12.9776ZM11.9804 23.958C18.5195 23.958 23.9335 18.5323 23.9335 12.0049C23.9335 10.0596 23.4531 8.20801 22.5859 6.5791L20.5585 8.59473C20.2773 8.87598 19.8789 8.86426 19.6093 8.59473C19.3515 8.3252 19.3281 7.91504 19.6093 7.63379L21.8828 5.37207C21.6015 4.96192 21.3085 4.56348 20.9687 4.2002L4.16406 20.9932C4.53906 21.3213 4.9375 21.626 5.33593 21.9073L7.63281 19.6104C7.91406 19.3174 8.32422 19.3409 8.59375 19.6104C8.86328 19.8799 8.875 20.2784 8.59375 20.5596L6.54296 22.6104C8.18359 23.4659 10.0234 23.958 11.9804 23.958ZM18.7656 10.376L17.1718 11.9932C16.9023 12.2627 16.4804 12.251 16.2109 11.9932C15.9531 11.712 15.9414 11.3018 16.2109 11.0323L17.8164 9.42676C18.0859 9.15723 18.4961 9.15723 18.7656 9.42676C19.0468 9.68457 19.0351 10.1065 18.7656 10.376ZM15.3789 13.7745L13.7734 15.3682C13.5039 15.6495 13.082 15.6495 12.8125 15.3682C12.5546 15.1104 12.5429 14.6768 12.8125 14.4073L14.4296 12.8135C14.6875 12.5557 15.1211 12.5557 15.3789 12.8135C15.6484 13.083 15.6484 13.4932 15.3789 13.7745ZM11.9921 17.1612L10.375 18.7666C10.1054 19.0245 9.69531 19.0362 9.42578 18.7666C9.15625 18.4971 9.15625 18.0752 9.42578 17.8057L11.0312 16.2002C11.3007 15.9307 11.7226 15.9541 11.9921 16.2002C12.25 16.4815 12.2617 16.9034 11.9921 17.1612Z" fill="black" fill-opacity="0.85"/>
</g>
<defs>
<clipPath id="clip0_2207_3149">
<rect width="23.9062" height="23.918" fill="white" transform="translate(0.0273438 0.0517578)"/>
</clipPath>
</defs>
</svg>
