<svg width="24" height="24" viewBox="0 0 24 24" fill="none" xmlns="http://www.w3.org/2000/svg">
<g clip-path="url(#clip0_2207_3145)">
<path d="M5.06006 20.0557L20.2827 4.82129L19.1694 3.70801L3.93506 18.9307L5.06006 20.0557ZM3.66553 15.3213L2.10694 16.8799C1.84912 17.1377 1.84912 17.5362 2.10694 17.794C2.36475 18.0635 2.76319 18.0635 3.03272 17.794L4.57959 16.2471C4.84912 15.9893 4.83741 15.5791 4.57959 15.3213C4.32178 15.0635 3.92334 15.0635 3.66553 15.3213ZM6.94678 12.0284L5.39991 13.587C5.14209 13.8448 5.14209 14.2432 5.39991 14.5127C5.65772 14.7588 6.05616 14.7588 6.32569 14.5127L7.87256 12.9541C8.13038 12.6963 8.11866 12.2862 7.87256 12.0284C7.61475 11.7706 7.21631 11.7706 6.94678 12.0284ZM10.2398 8.73535L8.68116 10.294C8.42334 10.5518 8.42334 10.962 8.68116 11.2198C8.95069 11.4776 9.34912 11.4776 9.60694 11.2198L11.1655 9.66114C11.4233 9.40332 11.4233 8.99317 11.1655 8.73535C10.9077 8.47754 10.4976 8.47754 10.2398 8.73535ZM13.5327 5.44238L11.9741 7.00098C11.7163 7.25879 11.7163 7.66895 11.9741 7.92676C12.2319 8.17285 12.6421 8.18457 12.8999 7.92676L14.4585 6.36817C14.7163 6.11035 14.7163 5.7002 14.4585 5.44238C14.2007 5.18457 13.7905 5.18457 13.5327 5.44238ZM16.8257 2.16114L15.2671 3.70801C15.0093 3.96582 15.0093 4.37598 15.2671 4.63379C15.5249 4.87988 15.9351 4.8916 16.1929 4.63379L17.7515 3.0752C18.0093 2.81738 18.0093 2.41895 17.7515 2.16114C17.4937 1.8916 17.0835 1.8916 16.8257 2.16114ZM7.75538 19.376L6.2085 20.9229C5.93897 21.1924 5.93897 21.5909 6.2085 21.8487C6.45459 22.1065 6.86475 22.1065 7.12256 21.8487L8.68116 20.2901C8.93897 20.0323 8.93897 19.6338 8.68116 19.376C8.42334 19.1182 8.01319 19.1065 7.75538 19.376ZM11.0483 16.0713L9.48975 17.6299C9.23194 17.8877 9.23194 18.2979 9.48975 18.5557C9.75928 18.8135 10.1577 18.8135 10.4155 18.5557L11.9741 16.9971C12.2319 16.7393 12.2319 16.3409 11.9741 16.0713C11.7163 15.837 11.3062 15.8252 11.0483 16.0713ZM14.3413 12.7901L12.7827 14.337C12.5249 14.6065 12.5249 15.0049 12.7827 15.2627C13.0405 15.5323 13.4507 15.5323 13.7085 15.2627L15.2671 13.7159C15.5249 13.4463 15.5249 13.0479 15.2671 12.7901C15.0093 12.5323 14.5991 12.5323 14.3413 12.7901ZM17.6343 9.49707L16.0757 11.0557C15.8179 11.3135 15.8296 11.712 16.0757 11.9815C16.3335 12.2393 16.7437 12.2393 17.0015 11.9815L18.5483 10.4229C18.8179 10.1651 18.8179 9.75488 18.5483 9.49707C18.2905 9.23926 17.8921 9.23926 17.6343 9.49707ZM20.9272 6.2041L19.3687 7.7627C19.1108 8.02051 19.1226 8.43067 19.3687 8.68848C19.6265 8.94629 20.0366 8.94629 20.2827 8.68848L21.8413 7.12988C22.0991 6.87207 22.0991 6.46192 21.8413 6.2041C21.5835 5.94629 21.1851 5.94629 20.9272 6.2041ZM11.9741 0.0517578C5.44678 0.0517578 0.0209961 5.46582 0.0209961 12.0049C0.0209961 18.5323 5.4585 23.958 11.9858 23.958C18.5249 23.958 23.9272 18.5323 23.9272 12.0049C23.9272 5.46582 18.5132 0.0517578 11.9741 0.0517578ZM11.9741 1.64551C17.6343 1.64551 22.3335 6.34473 22.3335 12.0049C22.3335 17.6651 17.646 22.3643 11.9858 22.3643C6.32569 22.3643 1.61475 17.6651 1.61475 12.0049C1.61475 6.34473 6.31397 1.64551 11.9741 1.64551Z" fill="black" fill-opacity="0.85"/>
</g>
<defs>
<clipPath id="clip0_2207_3145">
<rect width="23.9062" height="23.918" fill="white" transform="translate(0.0209961 0.0517578)"/>
</clipPath>
</defs>
</svg>
