<svg width="28" height="23" viewBox="0 0 28 23" fill="none" xmlns="http://www.w3.org/2000/svg">
<g clip-path="url(#clip0_2207_10691)">
<path d="M3.65673 22.7627H23.5434C25.9692 22.7627 27.1645 21.5909 27.1645 19.1885V7.78614C27.1645 5.38379 25.9692 4.21192 23.5434 4.21192H3.65673C1.24267 4.21192 0.0356445 5.38379 0.0356445 7.78614V19.1885C0.0356445 21.5909 1.24267 22.7627 3.65673 22.7627ZM3.68017 20.8877C2.53173 20.8877 1.92236 20.3018 1.92236 19.0948V7.87988C1.92236 6.68457 2.53173 6.08692 3.68017 6.08692H23.52C24.6684 6.08692 25.2778 6.68457 25.2778 7.87988V19.0948C25.2778 20.3018 24.6684 20.8877 23.52 20.8877H3.68017ZM7.65283 5.23145H9.46923V3.15723C9.46923 2.2666 9.99658 1.7627 10.9106 1.7627H16.2895C17.2036 1.7627 17.7192 2.2666 17.7192 3.15723V5.20801H19.5356V3.28614C19.5356 1.08301 18.3754 0.0517578 16.2544 0.0517578H10.934C8.93017 0.0517578 7.65283 1.08301 7.65283 3.28614V5.23145Z" fill="black" fill-opacity="0.85"/>
<path d="M8.14502 14.5245C8.14502 15.1221 8.55517 15.5323 9.15283 15.5323H11.5434V17.9112C11.5434 18.5323 11.9418 18.9307 12.5512 18.9307H14.6489C15.2583 18.9307 15.6567 18.5323 15.6567 17.9112V15.5323H18.0473C18.6567 15.5323 19.0668 15.1221 19.0668 14.5245V12.4268C19.0668 11.8174 18.6567 11.4073 18.0473 11.4073H15.6567V9.04004C15.6567 8.41895 15.2583 8.02051 14.6489 8.02051H12.5512C11.9418 8.02051 11.5434 8.41895 11.5434 9.04004V11.4073H9.15283C8.54345 11.4073 8.14502 11.8174 8.14502 12.4268V14.5245Z" fill="black" fill-opacity="0.85"/>
</g>
<defs>
<clipPath id="clip0_2207_10691">
<rect width="27.1289" height="22.7227" fill="white" transform="translate(0.0356445 0.0517578)"/>
</clipPath>
</defs>
</svg>
