<svg width="17" height="29" viewBox="0 0 17 29" fill="none" xmlns="http://www.w3.org/2000/svg">
<g clip-path="url(#clip0_2207_17984)">
<path d="M2.12463 3.35645C2.12463 4.65723 2.88636 5.43067 4.15198 5.43067H12.0035C13.2809 5.43067 14.0426 4.65723 14.0426 3.35645V2.12598C14.0426 0.825196 13.2809 0.0517578 12.0035 0.0517578H4.15198C2.88636 0.0517578 2.12463 0.825196 2.12463 2.12598V3.35645ZM3.77698 3.33301V2.14942C3.77698 1.86817 3.94104 1.69238 4.234 1.69238H11.9215C12.2145 1.69238 12.3902 1.86817 12.3902 2.14942V3.33301C12.3902 3.60254 12.2145 3.79004 11.9215 3.79004H4.234C3.94104 3.79004 3.77698 3.60254 3.77698 3.33301ZM5.48792 7.56348V4.78614H3.83558V7.56348H5.48792ZM12.3316 7.56348V4.78614H10.6793V7.56348H12.3316ZM0.050415 24.2627C0.050415 26.5948 1.55042 28.1065 3.83558 28.1065H12.3316C14.6168 28.1065 16.1168 26.5948 16.1168 24.2627V10.9737C16.1168 8.6416 14.6168 7.12988 12.3316 7.12988H3.83558C1.55042 7.12988 0.050415 8.6416 0.050415 10.9737V24.2627ZM1.84338 24.2393V10.9971C1.84338 9.74317 2.6637 8.93457 3.92933 8.93457H12.2379C13.5035 8.93457 14.3238 9.74317 14.3238 10.9971V24.2393C14.3238 25.5049 13.5035 26.3135 12.2379 26.3135H3.92933C2.6637 26.3135 1.84338 25.5049 1.84338 24.2393Z" fill="black" fill-opacity="0.85"/>
<path d="M3.70667 18.4502C3.70667 18.9424 4.03479 19.2588 4.51525 19.2588H6.43714V21.169C6.43714 21.6612 6.75354 21.9893 7.24573 21.9893H8.90979C9.40197 21.9893 9.71838 21.6612 9.71838 21.169V19.2588H11.6402C12.109 19.2588 12.4606 18.9424 12.4606 18.4502V16.7862C12.4606 16.294 12.109 15.9776 11.6402 15.9776H9.71838V14.0674C9.71838 13.5752 9.40197 13.2588 8.90979 13.2588H7.24573C6.75354 13.2588 6.43714 13.5752 6.43714 14.0674V15.9776H4.51525C4.03479 15.9776 3.70667 16.294 3.70667 16.7862V18.4502Z" fill="black" fill-opacity="0.85"/>
</g>
<defs>
<clipPath id="clip0_2207_17984">
<rect width="16.0664" height="28.0898" fill="white" transform="translate(0.050415 0.0517578)"/>
</clipPath>
</defs>
</svg>
