<svg width="31" height="25" viewBox="0 0 31 25" fill="none" xmlns="http://www.w3.org/2000/svg">
<g clip-path="url(#clip0_2207_18298)">
<path d="M5.07226 18.8018L5.42383 20.208C5.86914 22.0362 6.8418 22.9737 8.77539 22.9737H21.3964C23.3418 22.9737 24.3027 22.0596 24.7597 20.208L25.1113 18.8018H5.07226ZM4.68555 17.1963H25.5097L27.7128 8.17285L26.7519 7.62207L21.3496 11.5596C20.9511 11.8409 20.6816 11.7354 20.4589 11.419L15.373 3.73145L14.8105 3.70801L9.67773 11.4541C9.47852 11.7588 9.24414 11.8526 8.8457 11.5713L3.54883 7.7041L2.42383 7.99707L4.68555 17.1963ZM2.85742 10.5166C4.4043 10.5166 5.64648 9.2627 5.64648 7.7041C5.64648 6.18067 4.4043 4.91504 2.85742 4.91504C1.31055 4.91504 0.0566406 6.16895 0.0566406 7.7041C0.0566406 9.2627 1.32226 10.5166 2.85742 10.5166ZM15.0918 5.6416C16.6269 5.6416 17.8808 4.3877 17.8808 2.84082C17.8808 1.31738 16.6269 0.0517578 15.0918 0.0517578C13.5332 0.0517578 12.291 1.30567 12.291 2.84082C12.291 4.3877 13.5449 5.6416 15.0918 5.6416ZM27.3144 10.5166C28.8496 10.5166 30.1152 9.2627 30.1152 7.7041C30.1152 6.16895 28.8613 4.91504 27.3144 4.91504C25.7793 4.91504 24.5254 6.18067 24.5254 7.7041C24.5254 9.2627 25.7793 10.5166 27.3144 10.5166Z" fill="black" fill-opacity="0.85"/>
</g>
<defs>
<clipPath id="clip0_2207_18298">
<rect width="30.0586" height="24.4102" fill="white" transform="translate(0.0566406 0.0517578)"/>
</clipPath>
</defs>
</svg>
