<svg width="22" height="22" viewBox="0 0 22 22" fill="none" xmlns="http://www.w3.org/2000/svg">
<g clip-path="url(#clip0_2207_25912)">
<path d="M3.74488 21.6495H17.9597C20.4207 21.6495 21.6394 20.4307 21.6394 18.0166V3.70801C21.6394 1.29395 20.4207 0.0751953 17.9597 0.0751953H3.74488C1.29566 0.0751953 0.0651855 1.28223 0.0651855 3.70801V18.0166C0.0651855 20.4424 1.29566 21.6495 3.74488 21.6495ZM3.76831 19.7627C2.59644 19.7627 1.95191 19.1416 1.95191 17.9229V3.80176C1.95191 2.58301 2.59644 1.96192 3.76831 1.96192H17.9363C19.0964 1.96192 19.7527 2.58301 19.7527 3.80176V17.9229C19.7527 19.1416 19.0964 19.7627 17.9363 19.7627H3.76831Z" fill="black" fill-opacity="0.85"/>
<path d="M6.11206 10.8565C6.11206 14.3252 7.99877 16.4815 10.8699 16.4815C12.9441 16.4815 14.409 15.4502 14.9597 13.8916C15.0183 13.7159 15.0535 13.5284 15.0652 13.3291C15.0652 12.9073 14.7722 12.626 14.3386 12.626C13.9402 12.626 13.7175 12.837 13.5886 13.2354C13.3074 14.2432 12.3816 14.958 11.1863 15.0635V13.3643C11.1863 12.2393 11.8777 11.4541 12.8738 11.4541C13.1082 11.4541 13.2722 11.501 13.4129 11.501C13.7527 11.501 13.9871 11.2901 13.9871 10.9854C13.9871 10.5635 13.5535 10.2823 12.9207 10.2823C12.2175 10.2823 11.5379 10.6456 11.1746 11.337V10.8448C11.1746 10.4698 10.9402 10.2471 10.6004 10.2471C10.2605 10.2471 10.0261 10.4932 10.0261 10.8448V14.958C8.56127 14.5479 7.68237 13.0245 7.68237 10.8448C7.68237 8.30176 8.92456 6.64942 10.8582 6.64942C12.1238 6.64942 13.1433 7.43457 13.5066 8.52442C13.6355 8.8877 13.8347 9.13379 14.2566 9.13379C14.7019 9.13379 14.9714 8.85254 14.9714 8.41895C14.9714 8.21973 14.9363 8.00879 14.866 7.82129C14.3269 6.28614 12.7332 5.23145 10.8699 5.23145C7.99877 5.23145 6.11206 7.42285 6.11206 10.8565Z" fill="black" fill-opacity="0.85"/>
</g>
<defs>
<clipPath id="clip0_2207_25912">
<rect width="21.5742" height="21.5977" fill="white" transform="translate(0.0651855 0.0517578)"/>
</clipPath>
</defs>
</svg>
