<svg width="31" height="23" viewBox="0 0 31 23" fill="none" xmlns="http://www.w3.org/2000/svg">
<g clip-path="url(#clip0_2207_21205)">
<path d="M23.0229 13.0245C26.5268 13.8448 28.7065 15.1807 28.7065 16.587C28.7065 18.8721 22.8706 20.9815 15.3003 20.9815C7.72998 20.9815 1.89405 18.8721 1.89405 16.587C1.89405 15.1924 4.01514 13.8799 7.44873 13.0362L6.55811 11.3721C2.51514 12.4385 0.0776367 14.3018 0.0776367 16.587C0.0776367 20.2666 6.40576 22.7979 15.3003 22.7979C24.2065 22.7979 30.5229 20.2666 30.5229 16.587C30.5229 14.2432 27.9448 12.333 23.7378 11.2901L23.0229 13.0245ZM24.0776 4.8916V7.34082C24.0776 12.4034 20.8432 15.8487 15.8393 15.8487H14.7495C9.73389 15.8487 6.52295 12.4268 6.52295 7.34082V4.8916H4.63623V7.34082C4.63623 13.4463 8.70264 17.7354 14.7495 17.7354H15.8393C21.8862 17.7354 25.9643 13.4346 25.9643 7.34082V4.8916H24.0776ZM15.3003 9.71973C21.6518 9.71973 25.9643 7.7627 25.9643 4.8916C25.9643 2.00879 21.6635 0.0517578 15.3003 0.0517578C8.93702 0.0517578 4.63623 2.00879 4.63623 4.8916C4.63623 7.7627 8.94873 9.71973 15.3003 9.71973ZM15.3003 7.83301C10.2495 7.83301 6.52295 6.55567 6.52295 4.8916C6.52295 3.22754 10.2495 1.93848 15.3003 1.93848C20.351 1.93848 24.0776 3.22754 24.0776 4.8916C24.0776 6.55567 20.351 7.83301 15.3003 7.83301ZM24.6518 12.4034H25.6128C28.3081 12.4034 29.9253 10.9854 29.9253 8.62988C29.9253 6.29785 28.2964 4.86817 25.6128 4.86817H24.8276V6.75488H25.6128C27.1362 6.75488 28.0385 7.45801 28.0385 8.62988C28.0385 9.80176 27.1362 10.5166 25.6128 10.5166H24.6518V12.4034Z" fill="black" fill-opacity="0.85"/>
</g>
<defs>
<clipPath id="clip0_2207_21205">
<rect width="30.4453" height="22.7461" fill="white" transform="translate(0.0776367 0.0517578)"/>
</clipPath>
</defs>
</svg>
