<svg width="22" height="22" viewBox="0 0 22 22" fill="none" xmlns="http://www.w3.org/2000/svg">
<g clip-path="url(#clip0_2207_23015)">
<path d="M3.76587 21.6495H17.9807C20.4417 21.6495 21.6604 20.4307 21.6604 18.0166V3.70801C21.6604 1.29395 20.4417 0.0751953 17.9807 0.0751953H3.76587C1.31665 0.0751953 0.0861816 1.28223 0.0861816 3.70801V18.0166C0.0861816 20.4424 1.31665 21.6495 3.76587 21.6495Z" fill="black" fill-opacity="0.85"/>
<path d="M8.48852 17.4424C6.85962 17.4424 5.88696 16.5049 5.88696 14.6182V13.1182C5.88696 12.251 5.67602 12.0401 5.07837 11.876C4.05884 11.6065 4.05884 10.1065 5.07837 9.83692C5.67602 9.68457 5.88696 9.47364 5.88696 8.60645V7.10645C5.88696 5.21973 6.85962 4.27051 8.48852 4.27051C9.21509 4.27051 9.62524 4.62207 9.62524 5.11426C9.62524 5.60645 9.26196 5.91114 8.78149 5.91114C7.96118 5.91114 7.65649 6.27442 7.65649 7.27051V8.91114C7.65649 9.98926 6.98852 10.7745 5.89868 10.962V10.7393C6.98852 10.9385 7.65649 11.7237 7.65649 12.8018V14.4541C7.65649 15.4502 7.96118 15.8018 8.78149 15.8018C9.26196 15.8018 9.62524 16.1182 9.62524 16.6104C9.62524 17.1026 9.21509 17.4424 8.48852 17.4424ZM13.2932 17.4424C12.5667 17.4424 12.1565 17.1026 12.1565 16.6104C12.1565 16.1182 12.5198 15.8018 13.0003 15.8018C13.8206 15.8018 14.1253 15.4502 14.1253 14.4541V12.8018C14.1253 11.7237 14.7932 10.9385 15.8831 10.7393V10.962C14.7932 10.7745 14.1253 9.98926 14.1253 8.91114V7.27051C14.1253 6.27442 13.8206 5.91114 13.0003 5.91114C12.5198 5.91114 12.1565 5.60645 12.1565 5.11426C12.1565 4.62207 12.5667 4.27051 13.2932 4.27051C14.9221 4.27051 15.8948 5.21973 15.8948 7.10645V8.60645C15.8948 9.47364 16.1057 9.68457 16.7034 9.83692C17.7229 10.0948 17.7229 11.6182 16.7034 11.876C16.1057 12.0401 15.8948 12.251 15.8948 13.1182V14.6182C15.8948 16.5049 14.9221 17.4424 13.2932 17.4424Z" fill="white"/>
</g>
<defs>
<clipPath id="clip0_2207_23015">
<rect width="21.5742" height="21.5977" fill="white" transform="translate(0.0861816 0.0517578)"/>
</clipPath>
</defs>
</svg>
