<svg width="21" height="25" viewBox="0 0 21 25" fill="none" xmlns="http://www.w3.org/2000/svg">
<g clip-path="url(#clip0_2207_21425)">
<path d="M0.0209961 19.2251C0.0209961 22.4594 4.08741 24.7446 10.0991 24.7446C16.1108 24.7446 20.1772 22.4594 20.1772 19.2251V5.04541C20.1772 2.09228 16.146 0.0532227 10.0991 0.0532227C4.05225 0.0532227 0.0209961 2.09228 0.0209961 5.04541V19.2251ZM1.90772 5.04541C1.90772 3.07666 5.18897 1.70556 10.0991 1.70556C15.0093 1.70556 18.2905 3.07666 18.2905 5.04541C18.2905 6.93213 14.9858 8.25634 10.0991 8.25634C5.21241 8.25634 1.90772 6.93213 1.90772 5.04541Z" fill="black" fill-opacity="0.85"/>
</g>
<defs>
<clipPath id="clip0_2207_21425">
<rect width="20.1562" height="24.7148" fill="white" transform="translate(0.0209961 0.0532227)"/>
</clipPath>
</defs>
</svg>
