<svg width="22" height="22" viewBox="0 0 22 22" fill="none" xmlns="http://www.w3.org/2000/svg">
<g clip-path="url(#clip0_2207_24896)">
<path d="M3.71118 21.6509H17.926C20.387 21.6509 21.6057 20.4321 21.6057 18.018V3.70947C21.6057 1.29541 20.387 0.0766602 17.926 0.0766602H3.71118C1.26196 0.0766602 0.0314941 1.28369 0.0314941 3.70947V18.018C0.0314941 20.4438 1.26196 21.6509 3.71118 21.6509ZM3.73461 19.7641C2.56274 19.7641 1.91821 19.143 1.91821 17.9243V3.80322C1.91821 2.58447 2.56274 1.96338 3.73461 1.96338H17.9026C19.0627 1.96338 19.719 2.58447 19.719 3.80322V17.9243C19.719 19.143 19.0627 19.7641 17.9026 19.7641H3.73461Z" fill="black" fill-opacity="0.85"/>
<path d="M7.75416 16.0727H10.7424C14.0706 16.0727 15.9456 14.1743 15.9456 10.7055C15.9456 7.28369 14.094 5.39697 10.7424 5.39697H7.75416C7.1565 5.39697 6.84009 5.81884 6.84009 6.45166V15.018C6.84009 15.6509 7.1565 16.0727 7.75416 16.0727ZM8.64478 14.6196V6.8501H10.5315C12.8167 6.8501 14.0706 8.20947 14.0706 10.7407C14.0706 13.3188 12.8284 14.6196 10.5315 14.6196H8.64478Z" fill="black" fill-opacity="0.85"/>
</g>
<defs>
<clipPath id="clip0_2207_24896">
<rect width="21.5742" height="21.5977" fill="white" transform="translate(0.0314941 0.0532227)"/>
</clipPath>
</defs>
</svg>
