<svg width="22" height="22" viewBox="0 0 22 22" fill="none" xmlns="http://www.w3.org/2000/svg">
<g clip-path="url(#clip0_2207_26224)">
<path d="M3.72168 21.6509H17.9365C20.3975 21.6509 21.6162 20.4321 21.6162 18.018V3.70947C21.6162 1.29541 20.3975 0.0766602 17.9365 0.0766602H3.72168C1.27246 0.0766602 0.0419922 1.28369 0.0419922 3.70947V18.018C0.0419922 20.4438 1.27246 21.6509 3.72168 21.6509ZM3.74511 19.7641C2.57324 19.7641 1.92871 19.143 1.92871 17.9243V3.80322C1.92871 2.58447 2.57324 1.96338 3.74511 1.96338H17.9131C19.0732 1.96338 19.7295 2.58447 19.7295 3.80322V17.9243C19.7295 19.143 19.0732 19.7641 17.9131 19.7641H3.74511Z" fill="black" fill-opacity="0.85"/>
<path d="M6.38184 15.7446C6.80372 15.7446 7.15528 15.4048 7.15528 14.9829V13.2368L7.76466 12.6509L9.58106 15.2993C9.88575 15.768 10.3779 15.7915 10.7061 15.5688C10.9873 15.3579 11.1279 14.936 10.7998 14.4555L8.87794 11.7016L10.7998 9.69775C11.1279 9.35791 11.0459 8.97119 10.8115 8.76025C10.5537 8.49072 10.085 8.40869 9.73341 8.80713L7.17872 11.6548H7.15528V6.6626C7.15528 6.24072 6.80372 5.88916 6.38184 5.88916C5.95997 5.88916 5.62012 6.24072 5.62012 6.6626V14.9829C5.62012 15.4048 5.95997 15.7446 6.38184 15.7446ZM12.9912 15.7563C13.4014 15.7563 13.7178 15.4282 13.7178 15.0298V11.6079C13.7178 10.7524 14.0108 10.0376 14.8779 10.0376C15.1592 10.0376 15.4639 9.979 15.6397 9.82666C15.7803 9.72119 15.874 9.54541 15.874 9.32275C15.874 9.08838 15.8037 8.9126 15.6748 8.78369C15.5225 8.64306 15.3232 8.57275 15.0889 8.57275C14.3506 8.57275 13.8584 9.21728 13.7178 9.96728H13.6709V9.25244C13.6709 8.86572 13.3545 8.56103 12.9678 8.56103C12.5811 8.56103 12.2764 8.86572 12.2764 9.25244V15.0298C12.2764 15.4282 12.5928 15.7563 12.9912 15.7563ZM16.4365 15.686C16.9287 15.686 17.3389 15.2876 17.3389 14.772C17.3389 14.2798 16.9287 13.8696 16.4365 13.8696C15.9209 13.8696 15.5225 14.2798 15.5225 14.772C15.5225 15.2876 15.9209 15.686 16.4365 15.686Z" fill="black" fill-opacity="0.85"/>
</g>
<defs>
<clipPath id="clip0_2207_26224">
<rect width="21.5742" height="21.5977" fill="white" transform="translate(0.0419922 0.0532227)"/>
</clipPath>
</defs>
</svg>
