<svg width="25" height="22" viewBox="0 0 25 22" fill="none" xmlns="http://www.w3.org/2000/svg">
<g clip-path="url(#clip0_2207_26210)">
<path d="M1.14892 21.1704C1.78173 21.1704 2.27392 20.6782 2.27392 20.0571V15.5688L3.85595 14.0454L8.90673 20.7134C9.39892 21.3696 10.0903 21.3696 10.5473 21.0415C10.9926 20.7134 11.1801 20.0688 10.6762 19.4126L5.49658 12.5923L10.2895 7.68213C10.8286 7.13134 10.7465 6.54541 10.395 6.19384C10.02 5.80713 9.34033 5.71338 8.81298 6.26416L2.37939 13.0259H2.27392V1.1665C2.27392 0.545411 1.78173 0.0532227 1.14892 0.0532227C0.527833 0.0532227 0.0356445 0.545411 0.0356445 1.1665V20.0571C0.0356445 20.6782 0.527833 21.1704 1.14892 21.1704ZM15.0004 21.1821C15.6215 21.1821 16.1254 20.6782 16.1254 20.0571V11.9594C16.1254 9.93213 17.0044 8.08056 19.2192 8.08056C19.7231 8.08056 20.0864 8.09228 20.4145 7.9751C20.7661 7.83447 21.0122 7.55322 21.0122 7.04931C21.0122 6.46338 20.7309 6.14697 20.3208 5.99463C20.0395 5.87744 19.7348 5.84228 19.4067 5.84228C17.9418 5.84228 16.5356 6.92041 16.1137 8.76025H16.02V6.92041C16.02 6.32275 15.5278 5.84228 14.9418 5.84228C14.3559 5.84228 13.8754 6.32275 13.8754 6.92041V20.0571C13.8754 20.6782 14.3676 21.1821 15.0004 21.1821ZM22.4184 21.1001C23.2973 21.1001 24.0122 20.3852 24.0122 19.4946C24.0122 18.6157 23.2973 17.9009 22.4184 17.9009C21.5278 17.9009 20.8129 18.6157 20.8129 19.4946C20.8129 20.3852 21.5278 21.1001 22.4184 21.1001Z" fill="black" fill-opacity="0.85"/>
</g>
<defs>
<clipPath id="clip0_2207_26210">
<rect width="23.9766" height="21.3398" fill="white" transform="translate(0.0356445 0.0532227)"/>
</clipPath>
</defs>
</svg>
