<svg width="22" height="22" viewBox="0 0 22 22" fill="none" xmlns="http://www.w3.org/2000/svg">
<g clip-path="url(#clip0_2207_26229)">
<path d="M3.72376 21.6509H17.9386C20.3996 21.6509 21.6183 20.4321 21.6183 18.018V3.70947C21.6183 1.29541 20.3996 0.0766602 17.9386 0.0766602H3.72376C1.27454 0.0766602 0.0440674 1.28369 0.0440674 3.70947V18.018C0.0440674 20.4438 1.27454 21.6509 3.72376 21.6509Z" fill="black" fill-opacity="0.85"/>
<path d="M6.21985 15.897C5.78626 15.897 5.43469 15.5454 5.43469 15.1118V6.5337C5.43469 6.10011 5.78626 5.73682 6.21985 5.73682C6.65345 5.73682 7.02845 6.10011 7.02845 6.5337V11.6782H7.05188L9.67688 8.74854C10.0402 8.32667 10.5207 8.42042 10.7902 8.68995C11.0363 8.91261 11.1183 9.31104 10.7785 9.66261L8.79798 11.7251L10.7785 14.561C11.1183 15.0649 10.9777 15.4985 10.6847 15.7212C10.3449 15.9438 9.82923 15.9204 9.51282 15.4399L7.64954 12.7094L7.02845 13.3188V15.1118C7.02845 15.5454 6.65345 15.897 6.21985 15.897ZM13.0402 15.9087C12.63 15.9087 12.3019 15.5688 12.3019 15.1587V9.20557C12.3019 8.80714 12.6183 8.49073 13.0168 8.49073C13.4152 8.49073 13.7433 8.80714 13.7433 9.20557V9.94385H13.7902C13.9425 9.17042 14.4464 8.50245 15.2082 8.50245C15.4543 8.50245 15.6535 8.57276 15.8175 8.72511C15.9464 8.85401 16.0168 9.02979 16.0168 9.27589C16.0168 9.51026 15.923 9.68604 15.7824 9.80323C15.5949 9.95557 15.2785 10.0142 14.9855 10.0142C14.0949 10.0142 13.7902 10.7524 13.7902 11.6313V15.1587C13.7902 15.5688 13.4621 15.9087 13.0402 15.9087ZM16.6027 15.8384C16.0636 15.8384 15.6535 15.4282 15.6535 14.8891C15.6535 14.3852 16.0636 13.9634 16.6027 13.9634C17.1066 13.9634 17.5285 14.3852 17.5285 14.8891C17.5285 15.4282 17.1066 15.8384 16.6027 15.8384Z" fill="white"/>
</g>
<defs>
<clipPath id="clip0_2207_26229">
<rect width="21.5742" height="21.5977" fill="white" transform="translate(0.0440674 0.0532227)"/>
</clipPath>
</defs>
</svg>
