<svg width="23" height="33" viewBox="0 0 23 33" fill="none" xmlns="http://www.w3.org/2000/svg">
<g clip-path="url(#clip0_2207_11856)">
<path d="M3.6715 28.1782H14.2418C16.6324 28.1782 17.8512 26.9594 17.8512 24.604V6.25244C17.8512 3.88525 16.609 2.68994 14.2418 2.68994H3.6715C1.30432 2.68994 0.050415 3.88525 0.050415 6.25244V24.604C0.050415 26.9594 1.28088 28.1782 3.6715 28.1782ZM1.93713 24.5102V6.35791C1.93713 5.19775 2.59339 4.57666 3.69495 4.57666H14.2066C15.3082 4.57666 15.9645 5.19775 15.9645 6.35791V24.5102C15.9645 25.6587 15.3082 26.2915 14.2066 26.2915H3.69495C2.59339 26.2915 1.93713 25.6587 1.93713 24.5102ZM5.0426 9.48681C5.94494 9.48681 6.69494 8.73681 6.69494 7.82275C6.69494 6.92041 5.94494 6.18213 5.0426 6.18213C4.12853 6.18213 3.39025 6.92041 3.39025 7.82275C3.39025 8.73681 4.12853 9.48681 5.0426 9.48681ZM4.05823 18.768H7.46839C7.89025 18.768 8.21838 18.4516 8.21838 18.0298C8.21838 17.6196 7.89025 17.2915 7.46839 17.2915H4.05823C3.64808 17.2915 3.31995 17.6196 3.31995 18.0298C3.31995 18.4516 3.64808 18.768 4.05823 18.768ZM4.05823 21.6977H7.46839C7.89025 21.6977 8.21838 21.3813 8.21838 20.9594C8.21838 20.5376 7.89025 20.2212 7.46839 20.2212H4.05823C3.64808 20.2212 3.31995 20.5376 3.31995 20.9594C3.31995 21.3813 3.64808 21.6977 4.05823 21.6977ZM4.05823 24.6274H7.46839C7.89025 24.6274 8.21838 24.2993 8.21838 23.8891C8.21838 23.4673 7.89025 23.1391 7.46839 23.1391H4.05823C3.64808 23.1391 3.31995 23.4673 3.31995 23.8891C3.31995 24.2993 3.64808 24.6274 4.05823 24.6274ZM10.4332 18.768H13.8434C14.2535 18.768 14.5816 18.4516 14.5816 18.0298C14.5816 17.6196 14.2535 17.2915 13.8434 17.2915H10.4332C10.0114 17.2915 9.68322 17.6196 9.68322 18.0298C9.68322 18.4516 10.0114 18.768 10.4332 18.768ZM10.4332 21.6977H13.8434C14.2535 21.6977 14.5816 21.3813 14.5816 20.9594C14.5816 20.5376 14.2535 20.2212 13.8434 20.2212H10.4332C10.0114 20.2212 9.68322 20.5376 9.68322 20.9594C9.68322 21.3813 10.0114 21.6977 10.4332 21.6977ZM10.4332 24.6274H13.8434C14.2535 24.6274 14.5816 24.2993 14.5816 23.8891C14.5816 23.4673 14.2535 23.1391 13.8434 23.1391H10.4332C10.0114 23.1391 9.68322 23.4673 9.68322 23.8891C9.68322 24.2993 10.0114 24.6274 10.4332 24.6274ZM3.44885 30.2407C4.01135 30.2407 4.38635 29.854 4.38635 29.2915V26.9946H2.49963V29.2915C2.49963 29.854 2.88635 30.2407 3.44885 30.2407ZM14.4527 30.2407C15.027 30.2407 15.402 29.854 15.402 29.2915V26.9946H13.5152V29.2915C13.5152 29.854 13.8902 30.2407 14.4527 30.2407Z" fill="black" fill-opacity="0.85"/>
<path d="M16.1637 15.8735C19.6324 15.8735 22.0934 13.4829 22.0934 10.0727C22.0934 8.42041 21.4137 7.02588 21.0504 6.229C20.3238 4.67041 19.1402 2.68994 18.1559 1.17822C17.652 0.451661 16.9488 0.0532227 16.1637 0.0532227C15.3785 0.0532227 14.6871 0.451661 14.1832 1.17822C13.1988 2.68994 12.0152 4.67041 11.2887 6.229C10.9254 7.02588 10.234 8.42041 10.234 10.0727C10.234 13.4829 12.7066 15.8735 16.1637 15.8735Z" fill="white"/>
<path d="M16.1637 14.268C18.7535 14.268 20.4996 12.5923 20.4996 10.0727C20.4996 8.81884 19.9723 7.729 19.5973 6.88525C18.9059 5.40869 17.7926 3.55713 16.8199 2.06884C16.6207 1.7876 16.4215 1.65869 16.1637 1.65869C15.9176 1.65869 15.7066 1.7876 15.5192 2.06884C14.5465 3.55713 13.4215 5.40869 12.7301 6.88525C12.3668 7.729 11.8395 8.81884 11.8395 10.0727C11.8395 12.5923 13.5738 14.268 16.1637 14.268Z" fill="black" fill-opacity="0.85"/>
</g>
<defs>
<clipPath id="clip0_2207_11856">
<rect width="22.043" height="32.8477" fill="white" transform="translate(0.050415 0.0532227)"/>
</clipPath>
</defs>
</svg>
