<svg width="26" height="22" viewBox="0 0 26 22" fill="none" xmlns="http://www.w3.org/2000/svg">
<g clip-path="url(#clip0_2207_3453)">
<path d="M21.7695 21.6509C24.2188 21.6509 25.4492 20.4438 25.4492 18.018V3.70947C25.4492 1.28369 24.2188 0.0766602 21.7695 0.0766602H11.5859C10.2149 0.0766602 9.03125 0.428223 8.07031 1.44775L1.16797 8.61963C0.40625 9.40478 0.0546875 10.1079 0.0546875 10.8462C0.0546875 11.5727 0.394532 12.2876 1.16797 13.0727L8.08203 20.2094C9.05469 21.2173 10.2266 21.6391 11.5977 21.6391L21.7695 21.6509ZM21.7461 19.7641H11.5625C10.6719 19.7641 10.1211 19.5532 9.5 18.9204L2.63281 11.8305C2.23438 11.4204 2.11719 11.1391 2.11719 10.8462C2.11719 10.5415 2.2461 10.2602 2.63281 9.8501L9.48828 2.73681C10.0977 2.11572 10.6719 1.96338 11.5508 1.96338H21.7461C22.918 1.96338 23.5625 2.58447 23.5625 3.80322V17.9243C23.5625 19.143 22.918 19.7641 21.7461 19.7641Z" fill="black" fill-opacity="0.85"/>
<path d="M10.9063 15.8149C11.1641 15.8149 11.3985 15.7094 11.5742 15.522L14.9024 12.1821L18.2305 15.522C18.4063 15.6977 18.6406 15.8149 18.9102 15.8149C19.4258 15.8149 19.8477 15.3813 19.8477 14.8657C19.8477 14.5962 19.7422 14.3735 19.5664 14.1977L16.2383 10.8696L19.5781 7.51807C19.7656 7.31885 19.8594 7.11964 19.8594 6.86182C19.8594 6.33448 19.4375 5.92432 18.9219 5.92432C18.6758 5.92432 18.4649 6.00635 18.2656 6.20557L14.9024 9.55714L11.5508 6.21729C11.375 6.02979 11.1641 5.94776 10.9063 5.94776C10.3906 5.94776 9.96875 6.3462 9.96875 6.87354C9.96875 7.13135 10.0625 7.35401 10.25 7.52979L13.5781 10.8696L10.25 14.2094C10.0625 14.3735 9.96875 14.6079 9.96875 14.8657C9.96875 15.3813 10.3906 15.8149 10.9063 15.8149Z" fill="black" fill-opacity="0.85"/>
</g>
<defs>
<clipPath id="clip0_2207_3453">
<rect width="25.3945" height="21.5977" fill="white" transform="translate(0.0546875 0.0532227)"/>
</clipPath>
</defs>
</svg>
