<svg width="26" height="22" viewBox="0 0 26 22" fill="none" xmlns="http://www.w3.org/2000/svg">
<g clip-path="url(#clip0_2207_3468)">
<path d="M3.74903 21.6509L13.9209 21.6391C15.292 21.6391 16.4755 21.2173 17.4365 20.2094L24.3505 13.0727C25.124 12.2876 25.4638 11.5727 25.4638 10.8462C25.4638 10.1079 25.124 9.40478 24.3505 8.61963L17.4482 1.44775C16.4873 0.428223 15.3037 0.0766602 13.9326 0.0766602H3.74903C1.31153 0.0766602 0.0693359 1.28369 0.0693359 3.70947V18.018C0.0693359 20.4438 1.31153 21.6509 3.74903 21.6509Z" fill="black" fill-opacity="0.85"/>
<path d="M6.70214 15.7798C6.16308 15.7798 5.74121 15.3462 5.74121 14.7954C5.74121 14.5376 5.83495 14.3032 6.02245 14.1157L9.26855 10.8696L6.02245 7.61181C5.83495 7.42431 5.74121 7.18994 5.74121 6.93213C5.74121 6.39306 6.16308 5.97119 6.70214 5.97119C6.97167 5.97119 7.18261 6.07666 7.37011 6.25244L10.6396 9.51025L13.9326 6.24072C14.1318 6.0415 14.3545 5.94775 14.6005 5.94775C15.1396 5.94775 15.5732 6.38134 15.5732 6.90869C15.5732 7.17822 15.4912 7.38916 15.292 7.6001L12.0224 10.8696L15.2802 14.104C15.4677 14.2915 15.5615 14.5259 15.5615 14.7954C15.5615 15.3462 15.1279 15.7798 14.5771 15.7798C14.3193 15.7798 14.0615 15.6743 13.8857 15.4985L10.6396 12.229L7.40527 15.4985C7.21777 15.6743 6.97167 15.7798 6.70214 15.7798Z" fill="white"/>
</g>
<defs>
<clipPath id="clip0_2207_3468">
<rect width="25.3945" height="21.5977" fill="white" transform="translate(0.0693359 0.0532227)"/>
</clipPath>
</defs>
</svg>
