<svg width="25" height="29" viewBox="0 0 25 29" fill="none" xmlns="http://www.w3.org/2000/svg">
<g clip-path="url(#clip0_2207_9692)">
<path d="M1.04297 28.4477H23.1914C23.7422 28.4477 24.1758 28.0141 24.1758 27.4751C24.1758 26.9243 23.7422 26.5024 23.1914 26.5024H1.04297C0.503906 26.5024 0.0820312 26.9243 0.0820312 27.4751C0.0820312 28.0141 0.503906 28.4477 1.04297 28.4477Z" fill="black" fill-opacity="0.85"/>
<path d="M8.73047 14.6665H15.5039C17.6953 14.6665 18.9961 13.3305 18.9961 11.1391V3.58056C18.9961 1.50634 17.7187 0.0532227 15.5039 0.0532227H8.73047C6.5625 0.0532227 5.23828 1.40088 5.23828 3.58056V11.1391C5.23828 13.3305 6.5625 14.6665 8.73047 14.6665ZM8.92969 12.7798C7.58203 12.7798 7.03125 12.1704 7.03125 10.9165V3.82666C7.03125 2.54931 7.58203 1.93994 8.92969 1.93994H15.3047C16.6523 1.93994 17.2148 2.54931 17.2148 3.82666V10.9165C17.2148 12.1704 16.6523 12.7798 15.3047 12.7798H8.92969ZM7.78125 20.1391H16.4531C17.3789 20.1391 18.0351 19.5063 18.0351 18.6157C18.0351 18.2407 17.8125 17.7602 17.4961 17.397L14.9297 14.3618H12.6445L15.6211 17.9477C15.7382 18.1001 15.6445 18.2524 15.4804 18.2524H8.76562C8.58984 18.2524 8.49609 18.1001 8.625 17.9477L11.6015 14.3618H9.30469L6.75 17.397C6.42187 17.772 6.21094 18.2524 6.21094 18.6157C6.21094 19.5063 6.85547 20.1391 7.78125 20.1391Z" fill="black" fill-opacity="0.85"/>
</g>
<defs>
<clipPath id="clip0_2207_9692">
<rect width="24.0938" height="28.4883" fill="white" transform="translate(0.0820312 0.0532227)"/>
</clipPath>
</defs>
</svg>
