<svg width="24" height="25" viewBox="0 0 24 25" fill="none" xmlns="http://www.w3.org/2000/svg">
<g clip-path="url(#clip0_2207_20200)">
<path d="M0.190674 18.6509V22.2016C0.190674 23.6196 0.870361 24.2759 2.31177 24.2759H6.06177C3.49537 23.022 1.58521 21.1704 0.190674 18.6509ZM23.8626 18.6509C22.468 21.1704 20.5579 23.022 18.0032 24.2759H21.7415C23.1829 24.2759 23.8626 23.6196 23.8626 22.2016V18.6509ZM12.0266 24.1118C18.5657 24.1118 23.9797 18.686 23.9797 12.1587C23.9797 5.61963 18.554 0.205566 12.0149 0.205566C5.48755 0.205566 0.0734863 5.61963 0.0734863 12.1587C0.0734863 18.686 5.49927 24.1118 12.0266 24.1118Z" fill="black" fill-opacity="0.85"/>
<path d="M7.83131 9.27589C7.49147 8.93604 7.50319 8.42042 7.83131 8.09229C8.17116 7.75245 8.67506 7.75245 9.02662 8.09229L12.0149 11.0923L16.9368 6.17042C17.2766 5.83057 17.7688 5.84229 18.1204 6.17042C18.4719 6.49854 18.4602 7.03761 18.1204 7.36573L12.6243 12.8735C12.2844 13.2134 11.7571 13.2251 11.4173 12.8735L7.83131 9.27589Z" fill="white"/>
</g>
<defs>
<clipPath id="clip0_2207_20200">
<rect width="23.9062" height="24.2227" fill="white" transform="translate(0.0734863 0.0532227)"/>
</clipPath>
</defs>
</svg>
