<svg width="28" height="25" viewBox="0 0 28 25" fill="none" xmlns="http://www.w3.org/2000/svg">
<g clip-path="url(#clip0_2207_10248)">
<path d="M13.9748 22.4594C16.049 22.4594 17.9592 21.7212 19.4358 20.479L13.3303 14.3618C12.9787 14.0102 12.9787 13.4946 13.3303 13.1196C13.635 12.7915 14.2209 12.7915 14.549 13.1196L20.6545 19.2251C21.8029 17.772 22.4943 15.9438 22.4943 13.9399C22.4943 9.229 18.6623 5.42041 13.9748 5.42041C9.27563 5.42041 5.4436 9.229 5.4436 13.9399C5.4436 18.6626 9.27563 22.4594 13.9748 22.4594Z" fill="black" fill-opacity="0.85"/>
<path d="M4.98657 24.0884C5.66625 24.0884 6.20532 23.5493 6.20532 22.8696C6.20532 22.1899 5.66625 21.6509 4.98657 21.6509C4.30688 21.6509 3.76782 22.1899 3.76782 22.8696C3.76782 23.5493 4.30688 24.0884 4.98657 24.0884ZM1.30688 15.147C1.98657 15.147 2.52563 14.6079 2.52563 13.9282C2.52563 13.2602 1.98657 12.7212 1.30688 12.7212C0.627197 12.7212 0.0881348 13.2602 0.0881348 13.9282C0.0881348 14.6079 0.627197 15.147 1.30688 15.147ZM4.98657 6.24072C5.66625 6.24072 6.20532 5.70166 6.20532 5.02197C6.20532 4.34228 5.66625 3.80322 4.98657 3.80322C4.30688 3.80322 3.76782 4.34228 3.76782 5.02197C3.76782 5.70166 4.30688 6.24072 4.98657 6.24072ZM13.9748 2.49072C14.6428 2.49072 15.1819 1.95166 15.1819 1.27197C15.1819 0.592285 14.6428 0.0532227 13.9748 0.0532227C13.2951 0.0532227 12.7561 0.592285 12.7561 1.27197C12.7561 1.95166 13.2951 2.49072 13.9748 2.49072ZM22.9514 6.24072C23.6311 6.24072 24.1701 5.70166 24.1701 5.02197C24.1701 4.34228 23.6311 3.80322 22.9514 3.80322C22.2717 3.80322 21.7326 4.34228 21.7326 5.02197C21.7326 5.70166 22.2717 6.24072 22.9514 6.24072ZM26.6311 15.147C27.3108 15.147 27.8498 14.6079 27.8498 13.9282C27.8498 13.2602 27.3108 12.7212 26.6311 12.7212C25.9514 12.7212 25.4123 13.2602 25.4123 13.9282C25.4123 14.6079 25.9514 15.147 26.6311 15.147ZM22.9514 24.0884C23.6311 24.0884 24.1701 23.5493 24.1701 22.8696C24.1701 22.1899 23.6311 21.6509 22.9514 21.6509C22.2717 21.6509 21.7326 22.1899 21.7326 22.8696C21.7326 23.5493 22.2717 24.0884 22.9514 24.0884Z" fill="black" fill-opacity="0.85"/>
</g>
<defs>
<clipPath id="clip0_2207_10248">
<rect width="27.7617" height="24.0352" fill="white" transform="translate(0.0881348 0.0532227)"/>
</clipPath>
</defs>
</svg>
