<svg width="28" height="25" viewBox="0 0 28 25" fill="none" xmlns="http://www.w3.org/2000/svg">
<g clip-path="url(#clip0_2207_10243)">
<path d="M13.9729 22.4594C18.6604 22.4594 22.4924 18.6626 22.4924 13.9399C22.4924 9.229 18.6604 5.42041 13.9729 5.42041C9.27368 5.42041 5.44165 9.229 5.44165 13.9399C5.44165 18.6509 9.27368 22.4594 13.9729 22.4594ZM13.9729 7.31884C17.6174 7.31884 20.594 10.2954 20.594 13.9399C20.594 17.5844 17.6174 20.5493 13.9729 20.5493C10.3167 20.5493 7.34009 17.5844 7.34009 13.9399C7.34009 10.2954 10.3167 7.31884 13.9729 7.31884ZM18.1917 19.2251L19.4104 17.9712L14.5471 13.1196C14.219 12.7915 13.6331 12.7915 13.3284 13.1196C12.9768 13.4946 12.9768 14.0102 13.3284 14.3618L18.1917 19.2251Z" fill="black" fill-opacity="0.85"/>
<path d="M4.98462 24.0884C5.6643 24.0884 6.20337 23.5493 6.20337 22.8696C6.20337 22.1899 5.6643 21.6509 4.98462 21.6509C4.30493 21.6509 3.76587 22.1899 3.76587 22.8696C3.76587 23.5493 4.30493 24.0884 4.98462 24.0884ZM1.30493 15.147C1.98462 15.147 2.52368 14.6079 2.52368 13.9282C2.52368 13.2602 1.98462 12.7212 1.30493 12.7212C0.625244 12.7212 0.0861816 13.2602 0.0861816 13.9282C0.0861816 14.6079 0.625244 15.147 1.30493 15.147ZM4.98462 6.24072C5.6643 6.24072 6.20337 5.70166 6.20337 5.02197C6.20337 4.34228 5.6643 3.80322 4.98462 3.80322C4.30493 3.80322 3.76587 4.34228 3.76587 5.02197C3.76587 5.70166 4.30493 6.24072 4.98462 6.24072ZM13.9729 2.49072C14.6409 2.49072 15.18 1.95166 15.18 1.27197C15.18 0.592285 14.6409 0.0532227 13.9729 0.0532227C13.2932 0.0532227 12.7542 0.592285 12.7542 1.27197C12.7542 1.95166 13.2932 2.49072 13.9729 2.49072ZM22.9495 6.24072C23.6292 6.24072 24.1682 5.70166 24.1682 5.02197C24.1682 4.34228 23.6292 3.80322 22.9495 3.80322C22.2698 3.80322 21.7307 4.34228 21.7307 5.02197C21.7307 5.70166 22.2698 6.24072 22.9495 6.24072ZM26.6292 15.147C27.3089 15.147 27.8479 14.6079 27.8479 13.9282C27.8479 13.2602 27.3089 12.7212 26.6292 12.7212C25.9495 12.7212 25.4104 13.2602 25.4104 13.9282C25.4104 14.6079 25.9495 15.147 26.6292 15.147ZM22.9495 24.0884C23.6292 24.0884 24.1682 23.5493 24.1682 22.8696C24.1682 22.1899 23.6292 21.6509 22.9495 21.6509C22.2698 21.6509 21.7307 22.1899 21.7307 22.8696C21.7307 23.5493 22.2698 24.0884 22.9495 24.0884Z" fill="black" fill-opacity="0.85"/>
</g>
<defs>
<clipPath id="clip0_2207_10243">
<rect width="27.7617" height="24.0352" fill="white" transform="translate(0.0861816 0.0532227)"/>
</clipPath>
</defs>
</svg>
