<svg width="28" height="25" viewBox="0 0 28 25" fill="none" xmlns="http://www.w3.org/2000/svg">
<g clip-path="url(#clip0_2207_10238)">
<path d="M13.9834 22.4594C18.6709 22.4594 22.5029 18.6509 22.5029 13.9399C22.5029 9.53369 19.1397 5.90089 14.8506 5.46729L14.8389 14.1157C14.8389 14.5844 14.4287 14.9829 13.9834 14.9712C13.4561 14.9477 13.1045 14.5962 13.1045 14.0923V5.46729C8.81543 5.90089 5.45215 9.53369 5.45215 13.9399C5.45215 18.6626 9.28418 22.4594 13.9834 22.4594Z" fill="black" fill-opacity="0.85"/>
<path d="M4.99512 24.0884C5.6748 24.0884 6.21387 23.5493 6.21387 22.8696C6.21387 22.1899 5.6748 21.6509 4.99512 21.6509C4.31543 21.6509 3.77637 22.1899 3.77637 22.8696C3.77637 23.5493 4.31543 24.0884 4.99512 24.0884ZM1.31543 15.147C1.99512 15.147 2.53418 14.6079 2.53418 13.9282C2.53418 13.2602 1.99512 12.7212 1.31543 12.7212C0.635742 12.7212 0.0966797 13.2602 0.0966797 13.9282C0.0966797 14.6079 0.635742 15.147 1.31543 15.147ZM4.99512 6.24072C5.6748 6.24072 6.21387 5.70166 6.21387 5.02197C6.21387 4.34228 5.6748 3.80322 4.99512 3.80322C4.31543 3.80322 3.77637 4.34228 3.77637 5.02197C3.77637 5.70166 4.31543 6.24072 4.99512 6.24072ZM13.9834 2.49072C14.6514 2.49072 15.1905 1.95166 15.1905 1.27197C15.1905 0.592285 14.6514 0.0532227 13.9834 0.0532227C13.3037 0.0532227 12.7647 0.592285 12.7647 1.27197C12.7647 1.95166 13.3037 2.49072 13.9834 2.49072ZM22.96 6.24072C23.6397 6.24072 24.1787 5.70166 24.1787 5.02197C24.1787 4.34228 23.6397 3.80322 22.96 3.80322C22.2803 3.80322 21.7412 4.34228 21.7412 5.02197C21.7412 5.70166 22.2803 6.24072 22.96 6.24072ZM26.6397 15.147C27.3194 15.147 27.8584 14.6079 27.8584 13.9282C27.8584 13.2602 27.3194 12.7212 26.6397 12.7212C25.96 12.7212 25.4209 13.2602 25.4209 13.9282C25.4209 14.6079 25.96 15.147 26.6397 15.147ZM22.96 24.0884C23.6397 24.0884 24.1787 23.5493 24.1787 22.8696C24.1787 22.1899 23.6397 21.6509 22.96 21.6509C22.2803 21.6509 21.7412 22.1899 21.7412 22.8696C21.7412 23.5493 22.2803 24.0884 22.96 24.0884Z" fill="black" fill-opacity="0.85"/>
</g>
<defs>
<clipPath id="clip0_2207_10238">
<rect width="27.7617" height="24.0352" fill="white" transform="translate(0.0966797 0.0532227)"/>
</clipPath>
</defs>
</svg>
