<svg width="27" height="27" viewBox="0 0 27 27" fill="none" xmlns="http://www.w3.org/2000/svg">
<g clip-path="url(#clip0_2207_7774)">
<path d="M1.32871 15.9352L10.7154 25.3219C12.4498 27.0563 14.1607 27.068 15.8833 25.357L25.3169 15.9117C27.0279 14.2008 27.0162 12.4781 25.2818 10.7438L15.9068 1.36875C14.1724 -0.365629 12.4615 -0.389067 10.7388 1.33359L1.29355 10.7672C-0.429106 12.4899 -0.405668 14.2008 1.32871 15.9352ZM24.5552 13.3453C24.5552 13.7789 24.3443 14.2242 23.9107 14.6461L14.606 23.9508C13.7388 24.818 12.8365 24.7945 12.0162 23.9742L2.68808 14.6344C2.26621 14.2125 2.05527 13.7789 2.05527 13.3453H24.5552Z" fill="black" fill-opacity="0.85"/>
</g>
<defs>
<clipPath id="clip0_2207_7774">
<rect width="26.5768" height="26.593" fill="white" transform="translate(0.0146484 0.0546875)"/>
</clipPath>
</defs>
</svg>
