<svg width="24" height="24" viewBox="0 0 24 24" fill="none" xmlns="http://www.w3.org/2000/svg">
<g clip-path="url(#clip0_2207_7761)">
<path d="M11.9573 23.9609C18.4964 23.9609 23.9104 18.5352 23.9104 12.0078C23.9104 5.46875 18.4846 0.0546875 11.9455 0.0546875C5.41821 0.0546875 0.00415039 5.46875 0.00415039 12.0078C0.00415039 18.5352 5.42993 23.9609 11.9573 23.9609Z" fill="black" fill-opacity="0.85"/>
<path d="M5.74635 13.0039C5.11354 12.3711 5.0901 11.6563 5.72291 11.0117L10.9612 5.78516C11.6058 5.14063 12.3089 5.16407 12.9534 5.8086L18.1448 11C18.8011 11.6445 18.8245 12.3477 18.1683 13.0039L12.9417 18.2305C12.2972 18.875 11.594 18.8516 10.9495 18.207L5.74635 13.0039Z" fill="white"/>
</g>
<defs>
<clipPath id="clip0_2207_7761">
<rect width="23.9062" height="23.918" fill="white" transform="translate(0.00415039 0.0546875)"/>
</clipPath>
</defs>
</svg>
