<svg width="27" height="27" viewBox="0 0 27 27" fill="none" xmlns="http://www.w3.org/2000/svg">
<g clip-path="url(#clip0_2207_7778)">
<path d="M1.31406 10.7438C-0.420317 12.4781 -0.443755 14.1891 1.2789 15.9117L10.7242 25.3453C12.4469 27.068 14.1578 27.0563 15.8922 25.3219L25.2672 15.9352C27.0016 14.2008 27.0133 12.4899 25.3023 10.7672L15.8687 1.33359C14.1461 -0.389067 12.4352 -0.365629 10.7008 1.36875L1.31406 10.7438ZM24.5406 13.3453H2.04062C2.04062 12.9117 2.25156 12.4781 2.67343 12.0563L12.0016 2.7164C12.8219 1.88437 13.7242 1.87265 14.5914 2.73984L23.8961 12.0445C24.3297 12.4664 24.5406 12.9117 24.5406 13.3453Z" fill="black" fill-opacity="0.85"/>
</g>
<defs>
<clipPath id="clip0_2207_7778">
<rect width="26.5768" height="26.593" fill="white" transform="translate(0 0.0546875)"/>
</clipPath>
</defs>
</svg>
