<svg width="22" height="22" viewBox="0 0 22 22" fill="none" xmlns="http://www.w3.org/2000/svg">
<g clip-path="url(#clip0_2207_10374)">
<path d="M3.70484 21.6524H17.9196C20.3806 21.6524 21.5993 20.4336 21.5993 18.0195V3.71094C21.5993 1.29688 20.3806 0.078125 17.9196 0.078125H3.70484C1.25562 0.078125 0.0251465 1.28516 0.0251465 3.71094V18.0195C0.0251465 20.4453 1.25562 21.6524 3.70484 21.6524ZM3.72827 19.7656C2.5564 19.7656 1.91187 19.1445 1.91187 17.9258V3.80469C1.91187 2.58594 2.5564 1.96485 3.72827 1.96485H17.8962C19.0563 1.96485 19.7126 2.58594 19.7126 3.80469V17.9258C19.7126 19.1445 19.0563 19.7656 17.8962 19.7656H3.72827Z" fill="black" fill-opacity="0.85"/>
<path d="M16.0915 7.4961C17.1228 7.50781 17.9782 6.64063 17.9782 5.57422C17.9782 4.53125 17.1228 3.6875 16.0915 3.6875C15.0368 3.6875 14.1696 4.53125 14.1696 5.57422C14.1696 6.64063 15.0368 7.47266 16.0915 7.4961ZM5.5564 18.043C6.58765 18.043 7.45484 17.1875 7.45484 16.1328C7.45484 15.0781 6.58765 14.2344 5.5564 14.2344C4.50171 14.2344 3.65796 15.0781 3.65796 16.1328C3.65796 17.1875 4.50171 18.043 5.5564 18.043Z" fill="black" fill-opacity="0.85"/>
</g>
<defs>
<clipPath id="clip0_2207_10374">
<rect width="21.5742" height="21.5977" fill="white" transform="translate(0.0251465 0.0546875)"/>
</clipPath>
</defs>
</svg>
