<svg width="22" height="22" viewBox="0 0 22 22" fill="none" xmlns="http://www.w3.org/2000/svg">
<g clip-path="url(#clip0_2207_10379)">
<path d="M3.70703 21.6524H17.9218C20.3828 21.6524 21.6015 20.4336 21.6015 18.0195V3.71094C21.6015 1.29688 20.3828 0.078125 17.9218 0.078125H3.70703C1.25781 0.078125 0.0273438 1.28516 0.0273438 3.71094V18.0195C0.0273438 20.4453 1.25781 21.6524 3.70703 21.6524Z" fill="black" fill-opacity="0.85"/>
<path d="M16.2578 7.39062C15.1679 7.36718 14.2656 6.51171 14.2656 5.41015C14.2656 4.33202 15.1679 3.46484 16.2578 3.46484C17.3242 3.46484 18.2031 4.33202 18.2031 5.41015C18.2031 6.51171 17.3242 7.41406 16.2578 7.39062ZM5.39453 18.2656C4.30468 18.2656 3.4375 17.3867 3.4375 16.2969C3.4375 15.207 4.30468 14.3399 5.39453 14.3399C6.46093 14.3399 7.35156 15.207 7.35156 16.2969C7.35156 17.3867 6.46093 18.2656 5.39453 18.2656Z" fill="white"/>
</g>
<defs>
<clipPath id="clip0_2207_10379">
<rect width="21.5742" height="21.5977" fill="white" transform="translate(0.0273438 0.0546875)"/>
</clipPath>
</defs>
</svg>
