<svg width="22" height="22" viewBox="0 0 22 22" fill="none" xmlns="http://www.w3.org/2000/svg">
<g clip-path="url(#clip0_2207_10394)">
<path d="M3.71326 21.6524H17.9281C20.3891 21.6524 21.6078 20.4336 21.6078 18.0195V3.71094C21.6078 1.29688 20.3891 0.078125 17.9281 0.078125H3.71326C1.26404 0.078125 0.0335693 1.28516 0.0335693 3.71094V18.0195C0.0335693 20.4453 1.26404 21.6524 3.71326 21.6524ZM3.73669 19.7656C2.56482 19.7656 1.92029 19.1445 1.92029 17.9258V3.80469C1.92029 2.58594 2.56482 1.96485 3.73669 1.96485H17.9047C19.0648 1.96485 19.7211 2.58594 19.7211 3.80469V17.9258C19.7211 19.1445 19.0648 19.7656 17.9047 19.7656H3.73669Z" fill="black" fill-opacity="0.85"/>
<path d="M5.56482 7.4961C6.59607 7.50781 7.46326 6.64063 7.46326 5.57422C7.46326 4.53125 6.59607 3.6875 5.56482 3.6875C4.51013 3.6875 3.65466 4.53125 3.65466 5.57422C3.65466 6.64063 4.51013 7.47266 5.56482 7.4961ZM16.1 7.4961C17.1313 7.50781 17.9867 6.64063 17.9867 5.57422C17.9867 4.53125 17.1313 3.6875 16.1 3.6875C15.0453 3.6875 14.1781 4.53125 14.1781 5.57422C14.1781 6.64063 15.0453 7.47266 16.1 7.4961ZM5.56482 18.043C6.59607 18.043 7.46326 17.1875 7.46326 16.1328C7.46326 15.0781 6.59607 14.2344 5.56482 14.2344C4.51013 14.2344 3.66638 15.0781 3.66638 16.1328C3.66638 17.1875 4.51013 18.043 5.56482 18.043ZM16.1 18.043C17.1313 18.043 17.9867 17.1875 17.9867 16.1328C17.9867 15.0781 17.1313 14.2344 16.1 14.2344C15.0453 14.2344 14.2016 15.0781 14.2016 16.1328C14.2016 17.1875 15.0453 18.043 16.1 18.043Z" fill="black" fill-opacity="0.85"/>
</g>
<defs>
<clipPath id="clip0_2207_10394">
<rect width="21.5742" height="21.5977" fill="white" transform="translate(0.0335693 0.0546875)"/>
</clipPath>
</defs>
</svg>
