<svg width="22" height="22" viewBox="0 0 22 22" fill="none" xmlns="http://www.w3.org/2000/svg">
<g clip-path="url(#clip0_2207_10399)">
<path d="M3.71533 21.6524H17.9301C20.3911 21.6524 21.6098 20.4336 21.6098 18.0195V3.71094C21.6098 1.29688 20.3911 0.078125 17.9301 0.078125H3.71533C1.26611 0.078125 0.0356445 1.28516 0.0356445 3.71094V18.0195C0.0356445 20.4453 1.26611 21.6524 3.71533 21.6524Z" fill="black" fill-opacity="0.85"/>
<path d="M5.40283 7.39062C4.31298 7.36718 3.43408 6.51171 3.43408 5.41015C3.43408 4.33202 4.31298 3.46484 5.40283 3.46484C6.46923 3.46484 7.35986 4.33202 7.35986 5.41015C7.35986 6.51171 6.46923 7.41406 5.40283 7.39062ZM16.2661 7.39062C15.1762 7.36718 14.2856 6.51171 14.2856 5.41015C14.2856 4.33202 15.1762 3.46484 16.2661 3.46484C17.3325 3.46484 18.2114 4.33202 18.2114 5.41015C18.2114 6.51171 17.3325 7.41406 16.2661 7.39062ZM5.40283 18.2656C4.31298 18.2656 3.4458 17.3867 3.4458 16.2969C3.4458 15.207 4.31298 14.3399 5.40283 14.3399C6.46923 14.3399 7.35986 15.207 7.35986 16.2969C7.35986 17.3867 6.46923 18.2656 5.40283 18.2656ZM16.2661 18.2656C15.1762 18.2656 14.309 17.3867 14.309 16.2969C14.309 15.207 15.1762 14.3399 16.2661 14.3399C17.3325 14.3399 18.2114 15.207 18.2114 16.2969C18.2114 17.3867 17.3325 18.2656 16.2661 18.2656Z" fill="white"/>
</g>
<defs>
<clipPath id="clip0_2207_10399">
<rect width="21.5742" height="21.5977" fill="white" transform="translate(0.0356445 0.0546875)"/>
</clipPath>
</defs>
</svg>
