<svg width="22" height="22" viewBox="0 0 22 22" fill="none" xmlns="http://www.w3.org/2000/svg">
<g clip-path="url(#clip0_2207_10389)">
<path d="M3.71118 21.6524H17.926C20.387 21.6524 21.6057 20.4336 21.6057 18.0195V3.71094C21.6057 1.29688 20.387 0.078125 17.926 0.078125H3.71118C1.26196 0.078125 0.0314941 1.28516 0.0314941 3.71094V18.0195C0.0314941 20.4453 1.26196 21.6524 3.71118 21.6524Z" fill="black" fill-opacity="0.85"/>
<path d="M16.262 7.39062C15.1721 7.36718 14.2698 6.51171 14.2698 5.41015C14.2698 4.33202 15.1721 3.46484 16.262 3.46484C17.3284 3.46484 18.2073 4.33202 18.2073 5.41015C18.2073 6.51171 17.3284 7.41406 16.262 7.39062ZM10.8245 12.8281C9.73461 12.8281 8.86743 11.9492 8.86743 10.8477C8.86743 9.76952 9.73461 8.90234 10.8245 8.90234C11.8909 8.90234 12.7815 9.76952 12.7815 10.8477C12.7815 11.9492 11.8909 12.8281 10.8245 12.8281ZM5.39868 18.2656C4.30883 18.2656 3.44165 17.3867 3.44165 16.2969C3.44165 15.207 4.30883 14.3399 5.39868 14.3399C6.46508 14.3399 7.35571 15.207 7.35571 16.2969C7.35571 17.3867 6.46508 18.2656 5.39868 18.2656Z" fill="white"/>
</g>
<defs>
<clipPath id="clip0_2207_10389">
<rect width="21.5742" height="21.5977" fill="white" transform="translate(0.0314941 0.0546875)"/>
</clipPath>
</defs>
</svg>
