<svg width="22" height="22" viewBox="0 0 22 22" fill="none" xmlns="http://www.w3.org/2000/svg">
<g clip-path="url(#clip0_2207_10369)">
<path d="M3.70288 21.6524H17.9177C20.3787 21.6524 21.5974 20.4336 21.5974 18.0195V3.71094C21.5974 1.29688 20.3787 0.078125 17.9177 0.078125H3.70288C1.25366 0.078125 0.0231934 1.28516 0.0231934 3.71094V18.0195C0.0231934 20.4453 1.25366 21.6524 3.70288 21.6524Z" fill="black" fill-opacity="0.85"/>
<path d="M10.8279 12.8164C9.73803 12.8047 8.85913 11.9492 8.85913 10.8477C8.85913 9.7578 9.73803 8.89062 10.8279 8.89062C11.8943 8.89062 12.7849 9.7578 12.7849 10.8477C12.7849 11.9492 11.8943 12.8281 10.8279 12.8164Z" fill="white"/>
</g>
<defs>
<clipPath id="clip0_2207_10369">
<rect width="21.5742" height="21.5977" fill="white" transform="translate(0.0231934 0.0546875)"/>
</clipPath>
</defs>
</svg>
