<svg width="22" height="22" viewBox="0 0 22 22" fill="none" xmlns="http://www.w3.org/2000/svg">
<g clip-path="url(#clip0_2207_10384)">
<path d="M3.70911 21.6524H17.9239C20.3849 21.6524 21.6036 20.4336 21.6036 18.0195V3.71094C21.6036 1.29688 20.3849 0.078125 17.9239 0.078125H3.70911C1.25989 0.078125 0.0294189 1.28516 0.0294189 3.71094V18.0195C0.0294189 20.4453 1.25989 21.6524 3.70911 21.6524ZM3.73254 19.7656C2.56067 19.7656 1.91614 19.1445 1.91614 17.9258V3.80469C1.91614 2.58594 2.56067 1.96485 3.73254 1.96485H17.9005C19.0606 1.96485 19.7169 2.58594 19.7169 3.80469V17.9258C19.7169 19.1445 19.0606 19.7656 17.9005 19.7656H3.73254Z" fill="black" fill-opacity="0.85"/>
<path d="M16.0958 7.4961C17.1271 7.50781 17.9825 6.64063 17.9825 5.57422C17.9825 4.53125 17.1271 3.6875 16.0958 3.6875C15.0411 3.6875 14.1739 4.53125 14.1739 5.57422C14.1739 6.64063 15.0411 7.47266 16.0958 7.4961ZM10.8224 12.7695C11.8536 12.7695 12.7208 11.9141 12.7208 10.8477C12.7208 9.80469 11.8536 8.96094 10.8224 8.96094C9.7677 8.96094 8.92395 9.80469 8.92395 10.8477C8.92395 11.9141 9.7677 12.7695 10.8224 12.7695ZM5.56067 18.043C6.59192 18.043 7.45911 17.1875 7.45911 16.1328C7.45911 15.0781 6.59192 14.2344 5.56067 14.2344C4.50598 14.2344 3.66223 15.0781 3.66223 16.1328C3.66223 17.1875 4.50598 18.043 5.56067 18.043Z" fill="black" fill-opacity="0.85"/>
</g>
<defs>
<clipPath id="clip0_2207_10384">
<rect width="21.5742" height="21.5977" fill="white" transform="translate(0.0294189 0.0546875)"/>
</clipPath>
</defs>
</svg>
