<svg width="24" height="33" viewBox="0 0 24 33" fill="none" xmlns="http://www.w3.org/2000/svg">
<g clip-path="url(#clip0_2207_14232)">
<path d="M11.9129 22.7188C18.8386 22.7188 23.4558 20.5274 23.4558 17.3164C23.4558 14.1055 18.8386 11.9141 11.9129 11.9141C4.98707 11.9141 0.369874 14.1055 0.369874 17.3164C0.369874 20.5274 4.98707 22.7188 11.9129 22.7188ZM11.9129 28.9531C19.284 28.9531 23.7605 26.8906 23.7605 21.9922V20.6563C22.8933 21.6524 21.6277 22.4609 20.0222 23.0586V24.6524C20.0222 25.0742 19.6707 25.4141 19.2488 25.4141C18.8269 25.4141 18.4871 25.0742 18.4871 24.6524V23.5625C17.8074 23.7383 17.0808 23.8789 16.4246 23.9844V25.4492C16.4246 25.8711 16.0847 26.2109 15.6629 26.2109C15.241 26.2109 14.8894 25.8711 14.8894 25.4492V24.1836C14.1277 24.2539 13.2605 24.3125 12.534 24.3242V25.7422C12.534 26.1641 12.1941 26.5156 11.7722 26.5156C11.3504 26.5156 10.9988 26.1641 10.9988 25.7422V24.3125C10.2254 24.3008 9.41675 24.2422 8.65503 24.1602V25.4492C8.65503 25.8711 8.30347 26.2109 7.8816 26.2109C7.45972 26.2109 7.11988 25.8711 7.11988 25.4492V23.9375C6.39331 23.8203 5.71363 23.668 5.05738 23.4805V24.6524C5.05738 25.0742 4.71753 25.4141 4.29566 25.4141C3.87378 25.4141 3.52222 25.0742 3.52222 24.6524V22.9531C2.04566 22.3672 0.87378 21.5938 0.0651855 20.6563V21.9922C0.0651855 26.8906 4.53003 28.9531 11.9129 28.9531Z" fill="black" fill-opacity="0.85"/>
<path d="M13.823 15.2891L16.9636 11.75C18.5105 10.0391 17.4207 7.39063 15.0418 7.39063H14.5144V2.65625C14.5144 1.21485 13.3543 0.0546875 11.9246 0.0546875C10.4714 0.0546875 9.32298 1.21485 9.32298 2.65625V7.39063H8.7722C6.44017 7.39063 5.30345 9.99219 6.83861 11.7383L9.99095 15.2891C11.034 16.4844 12.7683 16.4961 13.823 15.2891Z" fill="white"/>
<path d="M12.6277 14.2227L15.7683 10.6836C16.3894 9.99219 16.0379 8.9961 15.0418 8.9961H12.9207V2.65625C12.9207 2.09375 12.4754 1.66016 11.9246 1.66016C11.3504 1.66016 10.9168 2.09375 10.9168 2.65625V8.9961H8.77219C7.81125 8.9961 7.4011 9.95703 8.03391 10.6836L11.1863 14.2227C11.6082 14.7149 12.1941 14.7149 12.6277 14.2227Z" fill="black" fill-opacity="0.85"/>
</g>
<defs>
<clipPath id="clip0_2207_14232">
<rect width="23.6953" height="32.3086" fill="white" transform="translate(0.0651855 0.0546875)"/>
</clipPath>
</defs>
</svg>
