<svg width="27" height="24" viewBox="0 0 27 24" fill="none" xmlns="http://www.w3.org/2000/svg">
<g clip-path="url(#clip0_2207_14184)">
<path d="M14.9322 11.9024C14.9322 19.0039 17.2057 23.75 20.6276 23.75C24.0494 23.75 26.3346 19.0039 26.3346 11.9024C26.3346 4.78907 24.0494 0.0546875 20.6276 0.0546875C17.2057 0.0546875 14.9322 4.78907 14.9322 11.9024ZM16.819 11.9024C16.819 5.92578 18.3541 1.94141 20.6276 1.94141C22.901 1.94141 24.4479 5.92578 24.4479 11.9024C24.4479 17.8672 22.901 21.8633 20.6276 21.8633C18.3541 21.8633 16.819 17.8672 16.819 11.9024ZM9.00256 11.9024C9.00256 19.2735 11.0533 23.75 15.9635 23.75H20.6276V21.8633H15.9635C12.2369 21.8633 10.8893 18.1016 10.8893 11.9024C10.8893 5.70313 12.2369 1.94141 15.9635 1.94141H20.6276V0.0546875H15.9635C11.0533 0.0546875 9.00256 4.51953 9.00256 11.9024ZM14.569 5.04688H16.7604V3.51172H14.569C14.1471 3.51172 13.7955 3.86328 13.7955 4.28516C13.7955 4.70703 14.1471 5.04688 14.569 5.04688ZM13.7721 8.64453H15.9635V7.10938H13.7721C13.3502 7.10938 12.9987 7.44922 12.9987 7.8711C12.9987 8.29297 13.3502 8.64453 13.7721 8.64453ZM13.4674 12.5235H15.6588V10.9883H13.4674C13.0455 10.9883 12.7057 11.3399 12.7057 11.7617C12.7057 12.1836 13.0455 12.5235 13.4674 12.5235ZM13.7721 16.4141H15.9635V14.8789H13.7721C13.3502 14.8789 12.9987 15.2305 12.9987 15.6524C12.9987 16.0742 13.3502 16.4141 13.7721 16.4141ZM14.569 20.0117H16.7604V18.4766H14.569C14.1471 18.4766 13.7955 18.8164 13.7955 19.2383C13.7955 19.6602 14.1471 20.0117 14.569 20.0117Z" fill="black" fill-opacity="0.85"/>
<path d="M3.58851 2.31641C3.23695 2.31641 2.86194 2.48047 2.72132 2.90235C1.94788 5.23438 1.50258 7.85938 1.50258 10.5781C1.50258 13.2852 1.93616 15.9102 2.72132 18.2422L4.39711 17.6563C3.67055 15.5117 3.2721 13.0859 3.2721 10.5781C3.2721 8.0586 3.67055 5.63281 4.39711 3.48828C4.65492 2.77344 4.12757 2.31641 3.58851 2.31641ZM0.611947 17.2695C-0.102897 17.5391 -0.114616 18.4531 0.459603 18.8047L4.15101 21.0899C4.65492 21.3945 5.21742 21.1836 5.3932 20.6328L6.7643 16.543C6.97522 15.9102 6.41273 15.1602 5.65101 15.4414L0.611947 17.2695Z" fill="black" fill-opacity="0.85"/>
</g>
<defs>
<clipPath id="clip0_2207_14184">
<rect width="26.2842" height="23.707" fill="white" transform="translate(0.050415 0.0546875)"/>
</clipPath>
</defs>
</svg>
