<svg width="24" height="27" viewBox="0 0 24 27" fill="none" xmlns="http://www.w3.org/2000/svg">
<g clip-path="url(#clip0_2207_14206)">
<path d="M11.9024 11.4625C19.0039 11.4625 23.75 9.18909 23.75 5.76721C23.75 2.34534 19.0039 0.0601807 11.9024 0.0601807C4.78907 0.0601807 0.0546875 2.34534 0.0546875 5.76721C0.0546875 9.18909 4.78907 11.4625 11.9024 11.4625ZM11.9024 9.57581C5.92578 9.57581 1.94141 8.04065 1.94141 5.76721C1.94141 3.49377 5.92578 1.9469 11.9024 1.9469C17.8789 1.9469 21.8633 3.49377 21.8633 5.76721C21.8633 8.04065 17.8789 9.57581 11.9024 9.57581ZM11.9024 17.3922C19.2735 17.3922 23.75 15.3414 23.75 10.4313V5.76721H21.8633V10.4313C21.8633 14.1578 18.1016 15.5055 11.9024 15.5055C5.70313 15.5055 1.94141 14.1578 1.94141 10.4313V5.76721H0.0546875V10.4313C0.0546875 15.3414 4.51953 17.3922 11.9024 17.3922ZM5.04688 11.8258V9.6344H3.51172V11.8258C3.51172 12.2477 3.86328 12.5993 4.28516 12.5993C4.70703 12.5993 5.04688 12.2477 5.04688 11.8258ZM8.64453 12.6227V10.4313H7.10938V12.6227C7.10938 13.0446 7.44922 13.3961 7.8711 13.3961C8.29297 13.3961 8.64453 13.0446 8.64453 12.6227ZM12.5235 12.9274V10.736H10.9883V12.9274C10.9883 13.3493 11.3399 13.6891 11.7617 13.6891C12.1836 13.6891 12.5235 13.3493 12.5235 12.9274ZM16.4141 12.6227V10.4313H14.8789V12.6227C14.8789 13.0446 15.2305 13.3961 15.6524 13.3961C16.0742 13.3961 16.4141 13.0446 16.4141 12.6227ZM20.0117 11.8258V9.6344H18.4766V11.8258C18.4766 12.2477 18.8164 12.5993 19.2383 12.5993C19.6602 12.5993 20.0117 12.2477 20.0117 11.8258Z" fill="black" fill-opacity="0.85"/>
<path d="M21.2187 22.8063C21.2187 22.2672 20.7616 21.7399 20.0585 21.9977C17.914 22.7243 15.4882 23.1227 12.9687 23.1227C10.4491 23.1227 8.0234 22.7243 5.89059 21.9977L5.30465 23.6735C7.63668 24.4586 10.2616 24.8922 12.9687 24.8922C15.6757 24.8922 18.3007 24.4469 20.6327 23.6735C21.0663 23.5328 21.2187 23.1578 21.2187 22.8063ZM6.30074 25.8063L8.07027 20.7438C8.33981 19.9821 7.58981 19.4196 6.95699 19.6422L2.89059 21.0602C2.32809 21.2477 2.12887 21.8102 2.44527 22.3141L4.76559 25.9703C5.12887 26.5446 6.04293 26.5211 6.30074 25.8063Z" fill="black" fill-opacity="0.85"/>
</g>
<defs>
<clipPath id="clip0_2207_14206">
<rect width="23.6953" height="26.3196" fill="white" transform="translate(0.0546875 0.0546875)"/>
</clipPath>
</defs>
</svg>
