<svg width="24" height="27" viewBox="0 0 24 27" fill="none" xmlns="http://www.w3.org/2000/svg">
<g clip-path="url(#clip0_2207_14211)">
<path d="M11.9043 10.8649C18.83 10.8649 23.4472 8.67346 23.4472 5.46252C23.4472 2.25159 18.83 0.0601807 11.9043 0.0601807C4.97852 0.0601807 0.361329 2.25159 0.361329 5.46252C0.361329 8.67346 4.97852 10.8649 11.9043 10.8649ZM11.9043 17.0993C19.2754 17.0993 23.7519 15.0368 23.7519 10.1383V8.80237C22.8847 9.79846 21.6191 10.6071 20.0136 11.2047V12.7985C20.0136 13.2203 19.6621 13.5602 19.2402 13.5602C18.8183 13.5602 18.4785 13.2203 18.4785 12.7985V11.7086C17.7988 11.8844 17.0722 12.025 16.416 12.1305V13.5953C16.416 14.0172 16.0761 14.3571 15.6543 14.3571C15.2324 14.3571 14.8808 14.0172 14.8808 13.5953V12.3297C14.1191 12.4 13.2519 12.4586 12.5254 12.4703V13.8883C12.5254 14.3102 12.1855 14.6618 11.7636 14.6618C11.3418 14.6618 10.9902 14.3102 10.9902 13.8883V12.4586C10.2168 12.4469 9.4082 12.3883 8.64648 12.3063V13.5953C8.64648 14.0172 8.29492 14.3571 7.87305 14.3571C7.45117 14.3571 7.11133 14.0172 7.11133 13.5953V12.0836C6.38476 11.9664 5.70508 11.8141 5.04883 11.6266V12.7985C5.04883 13.2203 4.70898 13.5602 4.28711 13.5602C3.86523 13.5602 3.51367 13.2203 3.51367 12.7985V11.0993C2.03711 10.5133 0.865235 9.73987 0.0566406 8.80237V10.1383C0.0566406 15.0368 4.52148 17.0993 11.9043 17.0993Z" fill="black" fill-opacity="0.85"/>
<path d="M21.291 22.4078C21.291 21.8688 20.8339 21.3297 20.1191 21.5993C17.916 22.4078 15.5605 22.818 12.9707 22.818C10.3925 22.818 8.02539 22.4078 5.82226 21.5993L5.22461 23.2633C7.61523 24.1422 10.1933 24.5875 12.9707 24.5875C15.7597 24.5875 18.3261 24.1305 20.7168 23.2633C21.1269 23.1227 21.291 22.7594 21.291 22.4078ZM6.24414 25.5016L8.01367 20.4391C8.2832 19.6774 7.5332 19.1149 6.90039 19.3375L2.82226 20.7672C2.27148 20.9547 2.07226 21.5055 2.37695 22.0094L4.69726 25.6657C5.06055 26.2399 5.98633 26.2164 6.24414 25.5016Z" fill="black" fill-opacity="0.85"/>
</g>
<defs>
<clipPath id="clip0_2207_14211">
<rect width="23.6953" height="26.0149" fill="white" transform="translate(0.0566406 0.0546875)"/>
</clipPath>
</defs>
</svg>
