<svg width="24" height="33" viewBox="0 0 24 33" fill="none" xmlns="http://www.w3.org/2000/svg">
<g clip-path="url(#clip0_2207_14226)">
<path d="M11.9107 23.0235C19.0122 23.0235 23.7583 20.7383 23.7583 17.3164C23.7583 13.8945 19.0122 11.6211 11.9107 11.6211C4.79737 11.6211 0.0629883 13.8945 0.0629883 17.3164C0.0629883 20.7383 4.79737 23.0235 11.9107 23.0235ZM11.9107 21.1367C5.93408 21.1367 1.94971 19.5899 1.94971 17.3164C1.94971 15.043 5.93408 13.5078 11.9107 13.5078C17.8872 13.5078 21.8716 15.043 21.8716 17.3164C21.8716 19.5899 17.8872 21.1367 11.9107 21.1367ZM11.9107 28.9531C19.2818 28.9531 23.7583 26.8906 23.7583 21.9922V17.3164H21.8716V21.9922C21.8716 25.7188 18.1099 27.0664 11.9107 27.0664C5.71143 27.0664 1.94971 25.7188 1.94971 21.9922V17.3164H0.0629883V21.9922C0.0629883 26.8906 4.52783 28.9531 11.9107 28.9531ZM5.05518 23.375V21.1836H3.52002V23.375C3.52002 23.7969 3.87158 24.1485 4.29346 24.1485C4.71533 24.1485 5.05518 23.7969 5.05518 23.375ZM8.65283 24.1719V21.9805H7.11768V24.1719C7.11768 24.5938 7.45752 24.9453 7.8794 24.9453C8.30127 24.9453 8.65283 24.5938 8.65283 24.1719ZM12.5318 24.4766V22.2852H10.9966V24.4766C10.9966 24.8985 11.3482 25.2383 11.77 25.2383C12.1919 25.2383 12.5318 24.8985 12.5318 24.4766ZM16.4224 24.1719V21.9805H14.8872V24.1719C14.8872 24.5938 15.2388 24.9453 15.6607 24.9453C16.0825 24.9453 16.4224 24.5938 16.4224 24.1719ZM20.02 23.375V21.1836H18.4849V23.375C18.4849 23.7969 18.8247 24.1485 19.2466 24.1485C19.6685 24.1485 20.02 23.7969 20.02 23.375Z" fill="black" fill-opacity="0.85"/>
<path d="M13.8208 15.2891L16.9614 11.75C18.5083 10.0391 17.4185 7.39063 15.0396 7.39063H14.5122V2.65625C14.5122 1.21485 13.3521 0.0546875 11.9224 0.0546875C10.4692 0.0546875 9.32078 1.21485 9.32078 2.65625V7.39063H8.77C6.43797 7.39063 5.30125 9.99219 6.83641 11.7383L9.98875 15.2891C11.0318 16.4844 12.7661 16.4961 13.8208 15.2891Z" fill="white"/>
<path d="M12.6255 14.2227L15.7661 10.6836C16.3872 9.99219 16.0357 8.9961 15.0396 8.9961H12.9185V2.65625C12.9185 2.09375 12.4732 1.66016 11.9224 1.66016C11.3482 1.66016 10.9146 2.09375 10.9146 2.65625V8.9961H8.76999C7.80905 8.9961 7.3989 9.95703 8.03171 10.6836L11.1841 14.2227C11.606 14.7149 12.1919 14.7149 12.6255 14.2227Z" fill="black" fill-opacity="0.85"/>
</g>
<defs>
<clipPath id="clip0_2207_14226">
<rect width="23.6953" height="32.3086" fill="white" transform="translate(0.0629883 0.0546875)"/>
</clipPath>
</defs>
</svg>
