<svg width="24" height="30" viewBox="0 0 24 30" fill="none" xmlns="http://www.w3.org/2000/svg">
<g clip-path="url(#clip0_2207_12277)">
<path d="M0.079834 8.09375H20.4118V5.01172C20.4118 3.33594 19.322 2.21094 17.7048 2.21094H2.79858C1.16967 2.21094 0.079834 3.33594 0.079834 5.01172V8.09375ZM4.32202 6.79297C3.73608 6.79297 3.25561 6.30078 3.25561 5.72657C3.25561 5.12891 3.73608 4.64844 4.32202 4.64844C4.90795 4.64844 5.37671 5.12891 5.37671 5.72657C5.37671 6.30078 4.90795 6.79297 4.32202 6.79297ZM7.40405 6.79297C6.81811 6.79297 6.34936 6.30078 6.34936 5.72657C6.34936 5.12891 6.81811 4.64844 7.40405 4.64844C7.98999 4.64844 8.45874 5.12891 8.45874 5.72657C8.45874 6.30078 7.98999 6.79297 7.40405 6.79297ZM0.079834 22.2735H20.4118V9.6875H0.079834V22.2735ZM7.39233 12.5703C7.02905 12.5703 6.78295 12.3125 6.78295 11.9492C6.78295 11.5859 7.02905 11.3399 7.39233 11.3399H13.111C13.4743 11.3399 13.7087 11.5859 13.7087 11.9492C13.7087 12.3125 13.4743 12.5703 13.111 12.5703H7.39233ZM2.79858 26.8203H17.7048C19.322 26.8203 20.4118 25.707 20.4118 24.0313V23.8672H0.079834V24.0313C0.079834 25.707 1.16967 26.8203 2.79858 26.8203Z" fill="black" fill-opacity="0.85"/>
<path d="M14.3415 29.1992C18.1736 29.1992 21.279 26.1055 21.279 22.2617C21.279 18.4063 18.1736 15.3242 14.3415 15.3242C10.486 15.3242 7.40405 18.4063 7.40405 22.2617C7.40405 26.1055 10.486 29.1992 14.3415 29.1992ZM16.7439 29.1992C20.5876 29.1992 23.6814 26.1055 23.6814 22.2617C23.6814 18.4063 20.5876 15.3242 16.7439 15.3242C12.9001 15.3242 9.80639 18.4063 9.80639 22.2617C9.80639 26.1055 12.9001 29.1992 16.7439 29.1992Z" fill="white"/>
<path d="M16.7439 27.8281C19.8376 27.8281 22.322 25.3555 22.322 22.2617C22.322 19.1563 19.8376 16.6836 16.7439 16.6836C13.6501 16.6836 11.1775 19.1563 11.1775 22.2617C11.1775 25.3555 13.6501 27.8281 16.7439 27.8281ZM16.7439 26.6445C14.236 26.6445 12.361 24.7578 12.361 22.2617C12.361 19.7539 14.236 17.8672 16.7439 17.8672C19.2517 17.8672 21.1384 19.7539 21.1384 22.2617C21.1384 24.7578 19.2517 26.6445 16.7439 26.6445Z" fill="black" fill-opacity="0.85"/>
<path d="M14.3415 27.8281C17.4236 27.8281 19.9079 25.3555 19.9079 22.2617C19.9079 19.1563 17.4236 16.6836 14.3415 16.6836C11.2478 16.6836 8.76343 19.1563 8.76343 22.2617C8.76343 25.3555 11.2478 27.8281 14.3415 27.8281Z" fill="white"/>
<path d="M14.3415 27.8281C17.4236 27.8281 19.9079 25.3555 19.9079 22.2617C19.9079 19.1563 17.4236 16.6836 14.3415 16.6836C11.2478 16.6836 8.76343 19.1563 8.76343 22.2617C8.76343 25.3555 11.2478 27.8281 14.3415 27.8281ZM14.3415 26.6445C11.822 26.6445 9.94703 24.7578 9.94703 22.2617C9.94703 19.7539 11.822 17.8672 14.3415 17.8672C16.8376 17.8672 18.7243 19.7539 18.7243 22.2617C18.7243 24.7578 16.8376 26.6445 14.3415 26.6445ZM14.3415 25.7656C16.2634 25.7656 17.8454 24.1953 17.8454 22.2617C17.8454 20.3281 16.2634 18.7578 14.3415 18.7578C12.3962 18.7578 10.8259 20.3281 10.8259 22.2617C10.8259 24.1953 12.3962 25.7656 14.3415 25.7656ZM14.3415 24.6992C12.9118 24.6992 11.8923 23.6797 11.8923 22.2617C11.8923 20.832 12.9118 19.8242 14.3415 19.8242C15.7712 19.8242 16.779 20.832 16.779 22.2617C16.779 23.6914 15.7595 24.6992 14.3415 24.6992Z" fill="black" fill-opacity="0.85"/>
</g>
<defs>
<clipPath id="clip0_2207_12277">
<rect width="23.6016" height="29.1445" fill="white" transform="translate(0.079834 0.0546875)"/>
</clipPath>
</defs>
</svg>
