<svg width="24" height="24" viewBox="0 0 24 24" fill="none" xmlns="http://www.w3.org/2000/svg">
<g clip-path="url(#clip0_2207_12290)">
<path d="M12.0307 23.9727C18.5698 23.9727 23.9838 18.5586 23.9838 12.0195C23.9838 5.49219 18.5581 0.0664062 12.019 0.0664062C5.4917 0.0664062 0.0776367 5.49219 0.0776367 12.0195C0.0776367 18.5586 5.50342 23.9727 12.0307 23.9727Z" fill="black" fill-opacity="0.85"/>
<path d="M15.9917 5.38672C16.8706 5.38672 17.4448 5.98438 17.4448 6.88672V8.58594H6.52295V6.88672C6.52295 5.98438 7.09717 5.38672 7.97608 5.38672H15.9917ZM8.35108 7.40235C8.42139 7.63672 8.6792 7.77735 8.9253 7.70703C9.17139 7.63672 9.3003 7.36719 9.22998 7.13281C9.15967 6.875 8.91358 6.7461 8.66748 6.81641C8.42139 6.88672 8.28076 7.14453 8.35108 7.40235ZM10.4604 7.83594C10.7768 7.83594 11.0346 7.57813 11.0346 7.27344C11.0346 6.94531 10.7768 6.67578 10.4604 6.67578C10.1323 6.67578 9.89795 6.94531 9.89795 7.27344C9.89795 7.57813 10.1323 7.83594 10.4604 7.83594ZM6.52295 16.1094V9.45313H17.4448V16.1094H6.52295ZM10.4604 11.3281H13.5307C13.7417 11.3281 13.8706 11.1758 13.8706 10.9766C13.8706 10.7656 13.7417 10.625 13.5307 10.625H10.4604C10.2495 10.625 10.1206 10.7656 10.1206 10.9766C10.1206 11.1758 10.2495 11.3281 10.4604 11.3281ZM17.4448 16.9766V17.1055C17.4448 18.0078 16.8706 18.6172 15.9917 18.6172H7.97608C7.09717 18.6172 6.52295 18.0078 6.52295 17.1055V16.9766H17.4448Z" fill="white"/>
</g>
<defs>
<clipPath id="clip0_2207_12290">
<rect width="23.9062" height="23.918" fill="white" transform="translate(0.0776367 0.0546875)"/>
</clipPath>
</defs>
</svg>
