<svg width="22" height="22" viewBox="0 0 22 22" fill="none" xmlns="http://www.w3.org/2000/svg">
<g clip-path="url(#clip0_2207_22915)">
<path d="M3.70069 21.6539H17.9155C20.3765 21.6539 21.5952 20.4351 21.5952 18.021V3.7124C21.5952 1.29834 20.3765 0.0795898 17.9155 0.0795898H3.70069C1.25147 0.0795898 0.0209961 1.28662 0.0209961 3.7124V18.021C0.0209961 20.4468 1.25147 21.6539 3.70069 21.6539ZM3.72412 19.7671C2.55225 19.7671 1.90772 19.146 1.90772 17.9273V3.80615C1.90772 2.5874 2.55225 1.96631 3.72412 1.96631H17.8921C19.0522 1.96631 19.7085 2.5874 19.7085 3.80615V17.9273C19.7085 19.146 19.0522 19.7671 17.8921 19.7671H3.72412Z" fill="black" fill-opacity="0.85"/>
<path d="M10.7905 7.93115C11.6343 7.93115 12.2319 7.36865 12.2319 6.64209C12.2319 5.81006 11.646 5.23584 10.7905 5.23584C10.0054 5.23584 9.396 5.82177 9.396 6.64209C9.396 7.36865 10.0054 7.93115 10.7905 7.93115ZM6.25538 11.8452H15.3843C16.0405 11.8452 16.4858 11.4936 16.4858 10.8725C16.4858 10.2397 16.064 9.88818 15.3843 9.88818H6.25538C5.57569 9.88818 5.14209 10.2397 5.14209 10.8725C5.14209 11.4936 5.59912 11.8452 6.25538 11.8452ZM10.7905 16.4859C11.6343 16.4859 12.2319 15.9116 12.2319 15.185C12.2319 14.3647 11.646 13.7906 10.7905 13.7906C10.0054 13.7906 9.396 14.3647 9.396 15.185C9.396 15.9116 10.0054 16.4859 10.7905 16.4859Z" fill="black" fill-opacity="0.85"/>
</g>
<defs>
<clipPath id="clip0_2207_22915">
<rect width="21.5742" height="21.5977" fill="white" transform="translate(0.0209961 0.0561523)"/>
</clipPath>
</defs>
</svg>
