<svg width="22" height="22" viewBox="0 0 22 22" fill="none" xmlns="http://www.w3.org/2000/svg">
<g clip-path="url(#clip0_2207_22920)">
<path d="M3.70288 21.6539H17.9177C20.3787 21.6539 21.5974 20.4351 21.5974 18.021V3.7124C21.5974 1.29834 20.3787 0.0795898 17.9177 0.0795898H3.70288C1.25366 0.0795898 0.0231934 1.28662 0.0231934 3.7124V18.021C0.0231934 20.4468 1.25366 21.6539 3.70288 21.6539Z" fill="black" fill-opacity="0.85"/>
<path d="M10.7927 7.84912C9.98414 7.84912 9.35132 7.26318 9.35132 6.51318C9.35132 5.65771 9.98414 5.04834 10.7927 5.04834C11.6834 5.04834 12.281 5.64599 12.281 6.51318C12.281 7.26318 11.6716 7.84912 10.7927 7.84912ZM6.11695 11.8803C5.43726 11.8803 4.96851 11.517 4.96851 10.8725C4.96851 10.2163 5.41382 9.85303 6.11695 9.85303H15.5271C16.2302 9.85303 16.6638 10.2163 16.6638 10.8725C16.6638 11.517 16.2068 11.8803 15.5271 11.8803H6.11695ZM10.7927 16.6734C9.98414 16.6734 9.35132 16.0756 9.35132 15.3256C9.35132 14.4702 9.98414 13.8725 10.7927 13.8725C11.6834 13.8725 12.281 14.4702 12.281 15.3256C12.281 16.0756 11.6716 16.6734 10.7927 16.6734Z" fill="white"/>
</g>
<defs>
<clipPath id="clip0_2207_22920">
<rect width="21.5742" height="21.5977" fill="white" transform="translate(0.0231934 0.0561523)"/>
</clipPath>
</defs>
</svg>
