<svg width="24" height="24" viewBox="0 0 24 24" fill="none" xmlns="http://www.w3.org/2000/svg">
<g clip-path="url(#clip0_2207_789)">
<path d="M12.0035 23.9624C18.5426 23.9624 23.9566 18.5367 23.9566 12.0093C23.9566 5.47021 18.5309 0.0561523 11.9918 0.0561523C5.46447 0.0561523 0.050415 5.47021 0.050415 12.0093C0.050415 18.5367 5.4762 23.9624 12.0035 23.9624Z" fill="black" fill-opacity="0.85"/>
<path d="M9.13244 18.5132C7.7965 18.5132 7.11682 17.8453 7.11682 16.4742V7.22803C7.11682 5.88037 7.7965 5.18896 9.13244 5.18896H11.4293V10.0522C11.4293 10.896 11.8277 11.2828 12.6598 11.2828H17.4527V16.4742C17.4527 17.8218 16.7848 18.5132 15.4371 18.5132H9.13244ZM12.7535 10.2984C12.5309 10.2984 12.402 10.1812 12.402 9.94677V5.25927C12.6715 5.29443 12.9527 5.48193 13.2574 5.79834L16.8316 9.44287C17.1481 9.75927 17.3356 10.0288 17.3707 10.2984H12.7535Z" fill="white"/>
</g>
<defs>
<clipPath id="clip0_2207_789">
<rect width="23.9062" height="23.918" fill="white" transform="translate(0.050415 0.0561523)"/>
</clipPath>
</defs>
</svg>
