<svg width="20" height="26" viewBox="0 0 20 26" fill="none" xmlns="http://www.w3.org/2000/svg">
<g clip-path="url(#clip0_2207_896)">
<path d="M5.34375 15.9703C4.88672 15.9703 4.54687 15.6421 4.54687 15.2085C4.54687 14.775 4.88672 14.4351 5.34375 14.4351H14.5664C15.0117 14.4351 15.3515 14.775 15.3515 15.2085C15.3515 15.6421 15.0117 15.9703 14.5664 15.9703H5.34375ZM5.34375 20.4117C4.88672 20.4117 4.54687 20.0835 4.54687 19.65C4.54687 19.2164 4.88672 18.8765 5.34375 18.8765H14.5664C15.0117 18.8765 15.3515 19.2164 15.3515 19.65C15.3515 20.0835 15.0117 20.4117 14.5664 20.4117H5.34375ZM3.71484 25.1812H16.1601C18.5859 25.1812 19.7929 23.9507 19.7929 21.5132V10.8726H11.3086C9.80859 10.8726 9.09375 10.1578 9.09375 8.65771V0.0561523H3.71484C1.30078 0.0561523 0.0820312 1.29834 0.0820312 3.73584V21.5132C0.0820312 23.9624 1.28906 25.1812 3.71484 25.1812ZM11.3437 9.26709H19.6523C19.582 8.78662 19.2422 8.31787 18.6797 7.74365L12.2226 1.16943C11.6718 0.606933 11.1914 0.26709 10.6992 0.185058V8.63427C10.6992 9.05615 10.9101 9.26709 11.3437 9.26709Z" fill="black" fill-opacity="0.85"/>
</g>
<defs>
<clipPath id="clip0_2207_896">
<rect width="19.7109" height="25.1367" fill="white" transform="translate(0.0820312 0.0561523)"/>
</clipPath>
</defs>
</svg>
