<svg width="25" height="30" viewBox="0 0 25 30" fill="none" xmlns="http://www.w3.org/2000/svg">
<g clip-path="url(#clip0_2207_904)">
<path d="M5.74658 3.73584V20.0132C5.74658 22.4624 6.95361 23.6929 9.3794 23.6929H20.395C22.8091 23.6929 24.0278 22.4507 24.0278 20.0132V10.4976C24.0278 9.05615 23.7349 8.14209 22.856 7.23974L16.938 1.22803C16.106 0.372558 15.1216 0.0561523 13.8677 0.0561523H9.3794C6.96533 0.0561523 5.74658 1.29834 5.74658 3.73584ZM7.6333 19.9781V3.77099C7.6333 2.61084 8.2544 1.94287 9.47315 1.94287H14.6528V7.95459C14.6528 9.31396 15.3091 9.95849 16.6568 9.95849H22.1411V19.9781C22.1411 21.15 21.5083 21.8062 20.2896 21.8062H9.46143C8.2544 21.8062 7.6333 21.15 7.6333 19.9781ZM16.3521 7.67334V2.86865L21.6489 8.25927H16.9263C16.5161 8.25927 16.3521 8.08349 16.3521 7.67334Z" fill="black" fill-opacity="0.85"/>
<path d="M0.0629883 25.8608C0.0629883 28.31 1.27002 29.5405 3.6958 29.5405H14.7114C17.1372 29.5405 18.3442 28.2983 18.3442 25.8608V16.7084C18.3442 15.2084 18.1685 14.5522 17.231 13.5913L10.7739 7.01709C9.8833 6.10303 9.14502 5.90381 7.83252 5.90381H3.6958C1.28174 5.90381 0.0629883 7.13427 0.0629883 9.58349V25.8608Z" fill="white"/>
<path d="M0.0629883 25.8608C0.0629883 28.31 1.27002 29.5405 3.6958 29.5405H14.7114C17.1372 29.5405 18.3442 28.2983 18.3442 25.8608V16.7084C18.3442 15.2084 18.1685 14.5522 17.231 13.5913L10.7739 7.01709C9.8833 6.10303 9.14502 5.90381 7.83252 5.90381H3.6958C1.28174 5.90381 0.0629883 7.13427 0.0629883 9.58349V25.8608ZM1.94971 25.8256V9.60693C1.94971 8.45849 2.5708 7.79053 3.78955 7.79053H7.6333V14.5873C7.6333 16.0639 8.3833 16.8022 9.83643 16.8022H16.4575V25.8256C16.4575 26.9975 15.8247 27.6538 14.6177 27.6538H3.77783C2.5708 27.6538 1.94971 26.9975 1.94971 25.8256ZM10.0591 15.0327C9.59033 15.0327 9.40283 14.8452 9.40283 14.3764V8.22412L16.0942 15.0327H10.0591Z" fill="black" fill-opacity="0.85"/>
</g>
<defs>
<clipPath id="clip0_2207_904">
<rect width="23.9648" height="29.5195" fill="white" transform="translate(0.0629883 0.0561523)"/>
</clipPath>
</defs>
</svg>
