<svg width="25" height="30" viewBox="0 0 25 30" fill="none" xmlns="http://www.w3.org/2000/svg">
<g clip-path="url(#clip0_2207_916)">
<path d="M5.74243 3.73584V20.0132C5.74243 22.4507 6.94946 23.6929 9.37525 23.6929H20.3908C22.8049 23.6929 24.0236 22.4507 24.0236 20.0132V3.73584C24.0236 1.28662 22.8049 0.0561523 20.3908 0.0561523H9.37525C6.94946 0.0561523 5.74243 1.28662 5.74243 3.73584ZM12.0236 4.07568C11.508 4.07568 11.2736 3.73584 11.2736 3.38427V3.13818C11.2736 2.7749 11.508 2.44677 12.0236 2.44677H17.7424C18.2463 2.44677 18.4924 2.7749 18.4924 3.13818V3.38427C18.4924 3.73584 18.2463 4.07568 17.7424 4.07568H12.0236Z" fill="black" fill-opacity="0.85"/>
<path d="M0.0588379 25.8608C0.0588379 28.31 1.26587 29.5405 3.69165 29.5405H14.7072C17.133 29.5405 18.34 28.2983 18.34 25.8608V16.7084C18.34 15.2084 18.1643 14.5522 17.2268 13.5913L10.7697 7.01709C9.87915 6.10303 9.14087 5.90381 7.82837 5.90381H3.69165C1.27759 5.90381 0.0588379 7.13427 0.0588379 9.58349V25.8608Z" fill="white"/>
<path d="M0.0588379 25.8608C0.0588379 28.31 1.26587 29.5405 3.69165 29.5405H14.7072C17.133 29.5405 18.34 28.2983 18.34 25.8608V16.7084C18.34 15.2084 18.1643 14.5522 17.2268 13.5913L10.7697 7.01709C9.87915 6.10303 9.14087 5.90381 7.82837 5.90381H3.69165C1.27759 5.90381 0.0588379 7.13427 0.0588379 9.58349V25.8608ZM1.94556 25.8256V9.60693C1.94556 8.45849 2.56665 7.79053 3.7854 7.79053H7.62915V14.5873C7.62915 16.0639 8.37915 16.8022 9.83228 16.8022H16.4533V25.8256C16.4533 26.9975 15.8205 27.6538 14.6135 27.6538H3.77368C2.56665 27.6538 1.94556 26.9975 1.94556 25.8256ZM10.0549 15.0327C9.58618 15.0327 9.39868 14.8452 9.39868 14.3764V8.22412L16.09 15.0327H10.0549Z" fill="black" fill-opacity="0.85"/>
</g>
<defs>
<clipPath id="clip0_2207_916">
<rect width="23.9648" height="29.5195" fill="white" transform="translate(0.0588379 0.0561523)"/>
</clipPath>
</defs>
</svg>
