<svg width="20" height="26" viewBox="0 0 20 26" fill="none" xmlns="http://www.w3.org/2000/svg">
<g clip-path="url(#clip0_2207_780)">
<path d="M3.6853 25.1812H16.1306C18.5564 25.1812 19.7634 23.9507 19.7634 21.5132V10.8726H11.2791C9.77905 10.8726 9.06421 10.1578 9.06421 8.65771V0.0561523H3.6853C1.27124 0.0561523 0.0524902 1.29834 0.0524902 3.73584V21.5132C0.0524902 23.9624 1.25952 25.1812 3.6853 25.1812ZM11.3142 9.26709H19.6228C19.5525 8.78662 19.2127 8.31787 18.6502 7.74365L12.1931 1.16943C11.6423 0.606933 11.1619 0.26709 10.6697 0.185058V8.63427C10.6697 9.05615 10.8806 9.26709 11.3142 9.26709Z" fill="black" fill-opacity="0.85"/>
</g>
<defs>
<clipPath id="clip0_2207_780">
<rect width="19.7109" height="25.1367" fill="white" transform="translate(0.0524902 0.0561523)"/>
</clipPath>
</defs>
</svg>
