<svg width="24" height="24" viewBox="0 0 24 24" fill="none" xmlns="http://www.w3.org/2000/svg">
<g clip-path="url(#clip0_2207_784)">
<path d="M12.0014 23.9624C18.5405 23.9624 23.9545 18.5367 23.9545 12.0093C23.9545 5.47021 18.5288 0.0561523 11.9897 0.0561523C5.4624 0.0561523 0.0483398 5.47021 0.0483398 12.0093C0.0483398 18.5367 5.47412 23.9624 12.0014 23.9624ZM12.0014 21.9703C6.47022 21.9703 2.05225 17.5406 2.05225 12.0093C2.05225 6.47803 6.4585 2.04834 11.9897 2.04834C17.521 2.04834 21.9624 6.47803 21.9624 12.0093C21.9624 17.5406 17.5327 21.9703 12.0014 21.9703Z" fill="black" fill-opacity="0.85"/>
<path d="M9.2124 18.314H15.3295C16.6303 18.314 17.2749 17.646 17.2749 16.3335V11.2945H12.6342C11.8256 11.2945 11.4389 10.9195 11.4389 10.1109V5.38818H9.2124C7.92334 5.38818 7.26709 6.05615 7.26709 7.36865V16.3335C7.26709 17.6578 7.92334 18.314 9.2124 18.314ZM12.728 10.3453H17.2045C17.1694 10.0874 16.9819 9.82959 16.6772 9.5249L13.2085 5.98584C12.9155 5.68115 12.646 5.49365 12.3881 5.45849V10.0054C12.3881 10.2281 12.5053 10.3453 12.728 10.3453Z" fill="black" fill-opacity="0.85"/>
</g>
<defs>
<clipPath id="clip0_2207_784">
<rect width="23.9062" height="23.918" fill="white" transform="translate(0.0483398 0.0561523)"/>
</clipPath>
</defs>
</svg>
