<svg width="22" height="29" viewBox="0 0 22 29" fill="none" xmlns="http://www.w3.org/2000/svg">
<g clip-path="url(#clip0_2207_1079)">
<path d="M0.0881348 22.7906C0.0881348 25.2398 1.30688 26.4703 3.72094 26.4703H16.1662C18.592 26.4703 19.799 25.2515 19.799 22.7906V5.0249C19.799 2.56396 18.592 1.34521 16.1662 1.34521H3.72094C1.30688 1.34521 0.0881348 2.57568 0.0881348 5.0249V22.7906ZM17.9123 5.04834V22.7671C17.9123 23.939 17.2443 24.5835 16.0725 24.5835H3.82641C2.60766 24.5835 1.97485 23.9273 1.97485 22.7671V5.04834C1.97485 3.8999 2.60766 3.23193 3.82641 3.23193H16.0725C17.2443 3.23193 17.9123 3.88818 17.9123 5.04834Z" fill="black" fill-opacity="0.85"/>
<path d="M5.51391 12.0914H14.3967C14.8069 12.0914 15.1233 11.775 15.1233 11.3648C15.1233 10.9664 14.8069 10.65 14.3967 10.65H5.51391C5.08032 10.65 4.77563 10.9664 4.77563 11.3648C4.77563 11.775 5.08032 12.0914 5.51391 12.0914Z" fill="black" fill-opacity="0.85"/>
<path d="M5.51391 8.01319H14.3967C14.8069 8.01319 15.1233 7.68507 15.1233 7.27491C15.1233 6.87647 14.8069 6.57178 14.3967 6.57178H5.51391C5.08032 6.57178 4.77563 6.87647 4.77563 7.27491C4.77563 7.68507 5.08032 8.01319 5.51391 8.01319Z" fill="black" fill-opacity="0.85"/>
<path d="M14.5373 28.0757C18.3225 28.0757 21.4045 24.9937 21.4045 21.2085C21.4045 17.4 18.3225 14.3296 14.5373 14.3296C10.7522 14.3296 7.65845 17.4234 7.65845 21.2085C7.65845 24.9937 10.7522 28.0757 14.5373 28.0757Z" fill="white"/>
<path d="M14.5373 26.4702C17.4436 26.4702 19.799 24.1147 19.799 21.2084C19.799 18.2788 17.4436 15.9233 14.5373 15.9233C11.6311 15.9233 9.2522 18.3022 9.2522 21.2084C9.2522 24.1147 11.6311 26.4702 14.5373 26.4702ZM14.5373 24.7944C12.5451 24.7944 10.9279 23.1772 10.9279 21.2084C10.9279 19.2397 12.5451 17.6108 14.5373 17.6108C16.4943 17.6108 18.1115 19.2397 18.1115 21.2084C18.1115 23.1772 16.5061 24.7944 14.5373 24.7944ZM20.9006 28.6381C21.4397 28.6381 21.8498 28.2163 21.8498 27.6186C21.8498 27.3608 21.7209 27.103 21.5217 26.9038L18.2404 23.6108L16.7522 24.9467L20.0451 28.2514C20.3264 28.5327 20.5842 28.6381 20.9006 28.6381Z" fill="black" fill-opacity="0.85"/>
</g>
<defs>
<clipPath id="clip0_2207_1079">
<rect width="21.7617" height="28.582" fill="white" transform="translate(0.0881348 0.0561523)"/>
</clipPath>
</defs>
</svg>
