<svg width="20" height="26" viewBox="0 0 20 26" fill="none" xmlns="http://www.w3.org/2000/svg">
<g clip-path="url(#clip0_2207_892)">
<path d="M14.2437 14.189H5.34912C4.92724 14.189 4.61084 14.5054 4.61084 14.9039C4.61084 15.314 4.92724 15.6304 5.34912 15.6304H14.2437C14.6538 15.6304 14.9585 15.314 14.9585 14.9039C14.9585 14.5054 14.6538 14.189 14.2437 14.189ZM14.2437 18.2789H5.34912C4.92724 18.2789 4.61084 18.607 4.61084 19.0171C4.61084 19.4156 4.92724 19.7203 5.34912 19.7203H14.2437C14.6538 19.7203 14.9585 19.4156 14.9585 19.0171C14.9585 18.607 14.6538 18.2789 14.2437 18.2789ZM3.70849 25.1812H16.1538C18.5796 25.1812 19.7866 23.9507 19.7866 21.5132V10.8726C19.7866 9.36084 19.6109 8.70459 18.6734 7.74365L12.2163 1.16943C11.3257 0.255371 10.5874 0.0561523 9.2749 0.0561523H3.70849C1.29443 0.0561523 0.0756836 1.29834 0.0756836 3.73584V21.5132C0.0756836 23.9624 1.28271 25.1812 3.70849 25.1812ZM3.79052 23.2945C2.58349 23.2945 1.9624 22.65 1.9624 21.4781V3.77099C1.9624 2.61084 2.58349 1.94287 3.80224 1.94287H9.01709V8.75146C9.01709 10.2281 9.75537 10.9546 11.2202 10.9546H17.8999V21.4781C17.8999 22.65 17.2788 23.2945 16.0601 23.2945H3.79052ZM11.4312 9.18506C10.9624 9.18506 10.7866 8.99756 10.7866 8.52881V2.30615L17.5366 9.18506H11.4312Z" fill="black" fill-opacity="0.85"/>
</g>
<defs>
<clipPath id="clip0_2207_892">
<rect width="19.7109" height="25.1367" fill="white" transform="translate(0.0756836 0.0561523)"/>
</clipPath>
</defs>
</svg>
