<svg width="20" height="26" viewBox="0 0 20 26" fill="none" xmlns="http://www.w3.org/2000/svg">
<g clip-path="url(#clip0_2207_997)">
<path d="M4.6416 11.2476C4.95801 11.2476 5.15723 11.0835 5.2627 10.6851L5.66113 9.5249H7.86426L8.28613 10.6851C8.3916 11.0718 8.59082 11.2476 8.89551 11.2476C9.29395 11.2476 9.5166 11.025 9.5166 10.65C9.5166 10.5679 9.49317 10.4156 9.44629 10.2632L7.72363 5.49365C7.54785 5.00146 7.25488 4.76709 6.75098 4.76709C6.28223 4.76709 6.00098 5.00146 5.8252 5.49365L4.10254 10.2632C4.04395 10.4039 4.02051 10.5679 4.02051 10.65C4.02051 11.025 4.25488 11.2476 4.6416 11.2476ZM5.93067 8.55224L6.72754 6.09131H6.79785L7.60645 8.55224H5.93067ZM11.5557 6.79443H15.1299C15.5401 6.79443 15.8565 6.47803 15.8565 6.06787C15.8565 5.66943 15.5401 5.35303 15.1299 5.35303H11.5557C11.1221 5.35303 10.8174 5.66943 10.8174 6.06787C10.8174 6.47803 11.1221 6.79443 11.5557 6.79443ZM11.5557 10.8843H15.1299C15.5401 10.8843 15.8565 10.5679 15.8565 10.1578C15.8565 9.75927 15.5401 9.44287 15.1299 9.44287H11.5557C11.1221 9.44287 10.8174 9.75927 10.8174 10.1578C10.8174 10.5679 11.1221 10.8843 11.5557 10.8843ZM3.96191 20.5757H4.78223L6.3291 19.0171C6.55176 18.8062 6.78613 18.7242 7.02051 18.7242C7.25488 18.7242 7.5127 18.8179 7.73535 19.0171L8.69629 19.896L11.0986 17.7632C11.3682 17.5289 11.6494 17.4234 11.919 17.4234C12.2119 17.4234 12.5166 17.5171 12.7275 17.7632L15.0713 20.4585H15.8916V14.857C15.8916 13.8257 15.3525 13.2984 14.3213 13.2984H5.54395C4.54785 13.2984 3.96191 13.8257 3.96191 14.857V20.5757ZM7.8291 17.7632C7.12598 17.7632 6.56348 17.1773 6.56348 16.4976C6.56348 15.7945 7.12598 15.2085 7.8291 15.232C8.52051 15.2554 9.09473 15.7945 9.09473 16.4976C9.09473 17.1773 8.52051 17.7632 7.8291 17.7632ZM0.0712891 21.5132C0.0712891 23.9624 1.27832 25.1812 3.7041 25.1812H16.1494C18.5752 25.1812 19.7822 23.9624 19.7822 21.5132V3.73584C19.7822 1.29834 18.5752 0.0561523 16.1494 0.0561523H3.7041C1.27832 0.0561523 0.0712891 1.29834 0.0712891 3.73584V21.5132ZM1.95801 21.4781V3.77099C1.95801 2.59912 2.5791 1.94287 3.79785 1.94287H16.0557C17.2744 1.94287 17.8955 2.59912 17.8955 3.77099V21.4781C17.8955 22.65 17.2744 23.2945 16.0557 23.2945H3.79785C2.5791 23.2945 1.95801 22.65 1.95801 21.4781Z" fill="black" fill-opacity="0.85"/>
</g>
<defs>
<clipPath id="clip0_2207_997">
<rect width="19.7109" height="25.1367" fill="white" transform="translate(0.0712891 0.0561523)"/>
</clipPath>
</defs>
</svg>
