<svg width="20" height="26" viewBox="0 0 20 26" fill="none" xmlns="http://www.w3.org/2000/svg">
<g clip-path="url(#clip0_2207_1005)">
<path d="M5.4812 6.84131H14.3757C14.7859 6.84131 15.0905 6.5249 15.0905 6.11474C15.0905 5.71631 14.7859 5.3999 14.3757 5.3999H5.4812C5.05933 5.3999 4.75464 5.71631 4.75464 6.11474C4.75464 6.5249 5.05933 6.84131 5.4812 6.84131ZM5.4812 10.9312H14.3757C14.7859 10.9312 15.0905 10.6148 15.0905 10.2046C15.0905 9.80615 14.7859 9.48974 14.3757 9.48974H5.4812C5.05933 9.48974 4.75464 9.80615 4.75464 10.2046C4.75464 10.6148 5.05933 10.9312 5.4812 10.9312ZM5.4812 15.021H9.68823C10.1101 15.021 10.4148 14.7164 10.4148 14.3179C10.4148 13.896 10.1101 13.5796 9.68823 13.5796H5.4812C5.05933 13.5796 4.75464 13.896 4.75464 14.3179C4.75464 14.7164 5.05933 15.021 5.4812 15.021ZM0.0671387 21.5132C0.0671387 23.9624 1.27417 25.1812 3.69995 25.1812H16.1452C18.571 25.1812 19.778 23.9624 19.778 21.5132V3.73584C19.778 1.29834 18.571 0.0561523 16.1452 0.0561523H3.69995C1.27417 0.0561523 0.0671387 1.29834 0.0671387 3.73584V21.5132ZM1.95386 21.4781V3.77099C1.95386 2.59912 2.57495 1.94287 3.7937 1.94287H16.0515C17.2702 1.94287 17.8913 2.59912 17.8913 3.77099V21.4781C17.8913 22.65 17.2702 23.2945 16.0515 23.2945H3.7937C2.57495 23.2945 1.95386 22.65 1.95386 21.4781Z" fill="black" fill-opacity="0.85"/>
</g>
<defs>
<clipPath id="clip0_2207_1005">
<rect width="19.7109" height="25.1367" fill="white" transform="translate(0.0671387 0.0561523)"/>
</clipPath>
</defs>
</svg>
