<svg width="26" height="33" viewBox="0 0 26 33" fill="none" xmlns="http://www.w3.org/2000/svg">
<g clip-path="url(#clip0_2207_922)">
<path d="M7.33838 5.29444V21.5718C7.33838 24.0093 8.54542 25.2515 10.9712 25.2515H21.9868C24.4126 25.2515 25.6196 24.0093 25.6196 21.5718V5.29444C25.6196 2.84522 24.4126 1.61475 21.9868 1.61475H10.9712C8.54542 1.61475 7.33838 2.84522 7.33838 5.29444ZM13.6196 5.63428C13.104 5.63428 12.8696 5.29444 12.8696 4.94288V4.69678C12.8696 4.3335 13.104 4.00538 13.6196 4.00538H19.3383C19.8422 4.00538 20.0883 4.3335 20.0883 4.69678V4.94288C20.0883 5.29444 19.8422 5.63428 19.3383 5.63428H13.6196Z" fill="black" fill-opacity="0.85"/>
<path d="M0.0610352 27.4195C0.0610352 30.7476 1.98292 32.6929 5.2876 32.6929H16.3032C19.6196 32.6929 21.5415 30.7359 21.5415 27.4195V18.1617C21.5415 16.5796 21.3188 15.4195 19.9594 14.025L13.7016 7.6499C12.2016 6.11474 11.1821 5.86865 9.5415 5.86865H5.2876C1.98292 5.86865 0.0610352 7.81396 0.0610352 11.1421V27.4195Z" fill="white"/>
<path d="M1.65479 27.4195C1.65479 29.8687 2.87354 31.0992 5.2876 31.0992H16.3032C18.729 31.0992 19.936 29.857 19.936 27.4195V18.1617H11.7563C10.2446 18.1617 9.5415 17.4468 9.5415 15.9468V7.4624H5.2876C2.87354 7.4624 1.65479 8.69287 1.65479 11.1421V27.4195ZM11.7446 16.5562H19.7368C19.6079 16.0992 19.3383 15.6773 18.8227 15.1382L12.5649 8.76318C12.0376 8.23584 11.5922 7.88427 11.1469 7.75537V15.9585C11.1469 16.357 11.3462 16.5562 11.7446 16.5562Z" fill="black" fill-opacity="0.85"/>
</g>
<defs>
<clipPath id="clip0_2207_922">
<rect width="25.5586" height="32.6367" fill="white" transform="translate(0.0610352 0.0561523)"/>
</clipPath>
</defs>
</svg>
