<svg width="28" height="22" viewBox="0 0 28 22" fill="none" xmlns="http://www.w3.org/2000/svg">
<g clip-path="url(#clip0_2207_19506)">
<path d="M3.77637 21.6304H24.0498C26.5108 21.6304 27.7295 20.4234 27.7295 18.0093V3.68896C27.7295 1.2749 26.5108 0.0561523 24.0498 0.0561523H3.77637C1.32715 0.0561523 0.0966797 1.2749 0.0966797 3.68896V18.0093C0.0966797 20.4234 1.32715 21.6304 3.77637 21.6304ZM3.7998 19.7437C2.62793 19.7437 1.9834 19.1226 1.9834 17.9039V3.79443C1.9834 2.57568 2.62793 1.94287 3.7998 1.94287H24.0264C25.1865 1.94287 25.8428 2.57568 25.8428 3.79443V17.9039C25.8428 19.1226 25.1865 19.7437 24.0264 19.7437H3.7998Z" fill="black" fill-opacity="0.85"/>
<path d="M5.13574 16.8726C5.13574 17.482 5.55762 17.8804 6.17871 17.8804H21.6826C22.3037 17.8804 22.7256 17.482 22.7256 16.8726V15.1148C22.7256 14.4937 22.3037 14.0953 21.6826 14.0953H6.17871C5.55762 14.0953 5.13574 14.4937 5.13574 15.1148V16.8726ZM13.9248 3.87646C13.4209 3.87646 12.9873 4.29834 12.9873 4.79053V8.18896L13.0694 10.1578L12.0615 9.10303L10.5381 7.57959C10.3506 7.40381 10.1162 7.29834 9.88184 7.29834C9.38965 7.29834 9.03809 7.63818 9.03809 8.13037C9.03809 8.3999 9.14356 8.59912 9.34277 8.7749L13.2451 12.4195C13.4912 12.6421 13.6787 12.7242 13.9248 12.7242C14.1592 12.7242 14.3584 12.6421 14.6045 12.4195L18.4951 8.7749C18.7061 8.59912 18.8115 8.3999 18.8115 8.13037C18.8115 7.63818 18.4483 7.29834 17.9444 7.29834C17.71 7.29834 17.4873 7.40381 17.3115 7.57959L15.7881 9.10303L14.7803 10.1578L14.8506 8.18896V4.79053C14.8506 4.29834 14.4287 3.87646 13.9248 3.87646Z" fill="black" fill-opacity="0.85"/>
</g>
<defs>
<clipPath id="clip0_2207_19506">
<rect width="27.6328" height="21.5742" fill="white" transform="translate(0.0966797 0.0561523)"/>
</clipPath>
</defs>
</svg>
