<svg width="32" height="27" viewBox="0 0 32 27" fill="none" xmlns="http://www.w3.org/2000/svg">
<g clip-path="url(#clip0_2207_18073)">
<path d="M2.09424 26.659H4.48486C5.83252 26.659 6.60596 25.8035 6.60596 24.7957C6.60596 23.741 6.05518 23.2957 4.93018 23.1785C4.40283 23.1199 4.41455 22.4871 4.85986 22.4285C7.71924 21.9715 9.45361 20.4832 9.79346 17.9285C11.5395 19.1707 14.481 19.3582 17.4341 18.9832C17.4224 20.6941 17.1645 23.0496 17.1645 24.2683C17.1645 25.698 18.0786 26.659 19.4731 26.659H21.4419C22.7778 26.659 23.5513 25.8035 23.5513 24.8308C23.5513 23.8113 23.0708 23.366 21.7935 23.1785C21.5239 23.1316 21.3833 22.9558 21.4419 22.6863C21.6645 21.4793 22.3442 18.9715 22.731 17.823C23.5395 15.4207 24.6763 13.8738 24.6763 11.3894C24.6763 10.2293 24.9927 9.53784 25.2622 9.23315C26.188 9.79565 26.8677 10.0769 27.77 10.0769C29.7739 10.0769 31.7661 8.03784 31.7661 5.90503C31.7661 4.78003 30.8286 4.73315 29.645 3.98315C28.6138 3.30346 28.0278 2.42456 27.1138 1.93237C26.7974 3.45581 25.6372 5.84643 23.5864 5.84643C22.3325 5.84643 21.4185 4.94409 20.8325 3.91284C19.9067 5.17846 19.5317 6.23315 17.0474 7.10034L7.01611 7.88549C6.7583 7.89721 6.53564 7.97925 6.3833 8.03784L5.50439 6.98315C4.07471 5.28393 1.84814 7.28784 3.26611 8.91675L4.23877 10.0418C3.7583 11.1785 3.50049 12.5496 3.50049 14.2605C3.50049 16.8504 3.30127 17.5652 2.52783 18.198C0.687989 19.6512 0.00830078 20.6121 0.00830078 22.241V24.4676C0.00830078 25.7566 0.875489 26.659 2.09424 26.659ZM27.7114 6.03393C27.2778 6.03393 26.9614 5.70581 26.9614 5.29565C26.9614 4.87378 27.2778 4.56909 27.7114 4.56909C28.1216 4.56909 28.438 4.87378 28.438 5.29565C28.438 5.70581 28.1216 6.03393 27.7114 6.03393ZM23.5864 4.78003C25.2622 4.78003 26.1294 1.94409 26.1294 1.14721C26.1294 0.432373 25.7544 0.057373 25.0161 0.057373H22.1685C21.4302 0.057373 21.0435 0.432373 21.0435 1.14721C21.0435 1.94409 21.9106 4.78003 23.5864 4.78003Z" fill="black" fill-opacity="0.85"/>
</g>
<defs>
<clipPath id="clip0_2207_18073">
<rect width="31.7578" height="26.8711" fill="white" transform="translate(0.00830078 0.057373)"/>
</clipPath>
</defs>
</svg>
