<svg width="24" height="24" viewBox="0 0 24 24" fill="none" xmlns="http://www.w3.org/2000/svg">
<g clip-path="url(#clip0_2207_18077)">
<path d="M11.9573 23.9636C18.4964 23.9636 23.9104 18.5379 23.9104 12.0105C23.9104 5.47143 18.4846 0.057373 11.9455 0.057373C5.41821 0.057373 0.00415039 5.47143 0.00415039 12.0105C0.00415039 18.5379 5.42993 23.9636 11.9573 23.9636ZM11.9573 21.9715C6.42603 21.9715 2.00806 17.5418 2.00806 12.0105C2.00806 6.47925 6.41431 2.04956 11.9455 2.04956C17.4769 2.04956 21.9183 6.47925 21.9183 12.0105C21.9183 17.5418 17.4886 21.9715 11.9573 21.9715Z" fill="black" fill-opacity="0.85"/>
<path d="M5.76977 18.2683H6.90649C7.55103 18.2683 7.92603 17.8582 7.92603 17.3777C7.92603 16.8738 7.65649 16.6512 7.12915 16.6043C6.87134 16.5691 6.87134 16.2762 7.08227 16.241C8.47681 16.0301 9.29712 15.2918 9.46118 14.073C10.305 14.6707 11.7347 14.7527 13.1526 14.5652C13.1292 15.3972 13.0237 16.5457 13.0237 17.1316C13.0237 17.823 13.4456 18.2683 14.1136 18.2683H15.0628C15.6956 18.2683 16.0589 17.8582 16.0589 17.3894C16.0589 16.909 15.8362 16.698 15.2269 16.6043C15.1097 16.5691 15.0276 16.4871 15.0628 16.3582C15.1683 15.784 15.4964 14.5652 15.6839 14.0144C16.0706 12.866 16.6214 12.116 16.6214 10.9207C16.6214 10.3582 16.7737 10.03 16.9026 9.90112C17.3597 10.159 17.6761 10.2879 18.1097 10.2879C19.0589 10.2879 20.0198 9.31518 20.0198 8.28393C20.0198 7.75659 19.5511 7.72143 18.9886 7.35815C18.4964 7.04175 18.2151 6.61987 17.7933 6.38549C17.6409 7.11206 17.0784 8.26049 16.1058 8.26049C15.4964 8.26049 15.0745 7.83862 14.7933 7.32299C14.348 7.94409 14.1604 8.45971 12.9651 8.86987L8.12524 9.24487C7.99634 9.26831 7.89087 9.30346 7.82056 9.33862L7.39868 8.81128C6.70727 8.00268 5.65259 8.96362 6.32056 9.73706L6.78931 10.2996C6.56665 10.8386 6.43774 11.4832 6.43774 12.3035C6.43774 13.5457 6.34399 13.909 5.96899 14.2136C5.10181 14.8933 4.76196 15.3621 4.76196 16.1472V17.2254C4.76196 17.8347 5.18384 18.2683 5.76977 18.2683ZM18.0862 8.35425C17.8636 8.35425 17.723 8.2019 17.723 8.00268C17.723 7.79175 17.8636 7.6394 18.0862 7.6394C18.2737 7.6394 18.4261 7.79175 18.4261 8.00268C18.4261 8.2019 18.2737 8.35425 18.0862 8.35425ZM16.1058 7.75659C16.9026 7.75659 17.3245 6.39721 17.3245 6.02221C17.3245 5.68237 17.1487 5.49487 16.7972 5.49487H15.4144C15.0745 5.49487 14.887 5.68237 14.887 6.02221C14.887 6.39721 15.2972 7.75659 16.1058 7.75659Z" fill="black" fill-opacity="0.85"/>
</g>
<defs>
<clipPath id="clip0_2207_18077">
<rect width="23.9062" height="23.918" fill="white" transform="translate(0.00415039 0.057373)"/>
</clipPath>
</defs>
</svg>
