<svg width="22" height="22" viewBox="0 0 22 22" fill="none" xmlns="http://www.w3.org/2000/svg">
<g clip-path="url(#clip0_2207_25360)">
<path d="M3.69849 21.6551H17.9133C20.3743 21.6551 21.593 20.4363 21.593 18.0222V3.71362C21.593 1.29956 20.3743 0.0808105 17.9133 0.0808105H3.69849C1.24927 0.0808105 0.0187988 1.28784 0.0187988 3.71362V18.0222C0.0187988 20.448 1.24927 21.6551 3.69849 21.6551ZM3.72192 19.7683C2.55005 19.7683 1.90552 19.1472 1.90552 17.9285V3.80737C1.90552 2.58862 2.55005 1.96753 3.72192 1.96753H17.8899C19.05 1.96753 19.7063 2.58862 19.7063 3.80737V17.9285C19.7063 19.1472 19.05 19.7683 17.8899 19.7683H3.72192Z" fill="black" fill-opacity="0.85"/>
<path d="M10.8118 17.5418C11.1282 17.5418 11.3743 17.3191 11.3743 16.991V16.1707C13.1907 15.9949 14.5969 14.9402 14.5969 13.1707C14.5969 11.5769 13.5657 10.616 11.5266 10.2527L11.3743 10.2176V6.948C12.2063 7.10035 12.7922 7.60426 13.0266 8.38941C13.1438 8.74097 13.3665 8.96363 13.7415 8.96363C14.1399 8.96363 14.4329 8.68238 14.4329 8.27222C14.4329 8.15504 14.3977 8.03785 14.3743 7.90894C14.0696 6.64332 12.8743 5.77613 11.3743 5.60035V4.79176C11.3743 4.46363 11.1282 4.24097 10.8118 4.24097C10.4954 4.24097 10.261 4.46363 10.261 4.79176V5.60035C8.47973 5.79957 7.22582 6.91285 7.22582 8.5066C7.22582 9.99488 8.22192 10.8855 10.179 11.3426L10.261 11.366V14.8347C9.2063 14.6824 8.58521 14.0965 8.39771 13.3113C8.2688 12.9129 8.0227 12.7254 7.67113 12.7254C7.2727 12.7254 6.99146 13.0066 6.99146 13.4168C6.99146 13.5457 7.01489 13.6629 7.05005 13.7801C7.37818 15.1277 8.69067 15.9949 10.261 16.1472V16.991C10.261 17.3191 10.4954 17.5418 10.8118 17.5418ZM10.261 9.92457L10.179 9.90113C9.12427 9.59644 8.66724 9.12769 8.66724 8.43629C8.66724 7.72144 9.26488 7.12379 10.261 6.948V9.92457ZM11.3743 11.6472L11.6204 11.7058C12.7571 12.0222 13.1555 12.5027 13.1555 13.2527C13.1555 14.073 12.5696 14.6941 11.3743 14.8347V11.6472Z" fill="black" fill-opacity="0.85"/>
</g>
<defs>
<clipPath id="clip0_2207_25360">
<rect width="21.5742" height="21.5977" fill="white" transform="translate(0.0187988 0.057373)"/>
</clipPath>
</defs>
</svg>
