<svg width="24" height="24" viewBox="0 0 24 24" fill="none" xmlns="http://www.w3.org/2000/svg">
<g clip-path="url(#clip0_2207_25355)">
<path d="M11.9699 23.9636C18.509 23.9636 23.923 18.5379 23.923 12.0105C23.923 5.47143 18.4973 0.057373 11.9582 0.057373C5.43091 0.057373 0.0168457 5.47143 0.0168457 12.0105C0.0168457 18.5379 5.44263 23.9636 11.9699 23.9636Z" fill="black" fill-opacity="0.85"/>
<path d="M11.9699 18.9129C11.6418 18.9129 11.3957 18.6785 11.3957 18.3386V17.4715C9.77857 17.3191 8.43091 16.4285 8.09107 15.034C8.05591 14.9168 8.03247 14.7879 8.03247 14.659C8.03247 14.2371 8.32544 13.9441 8.7356 13.9441C9.09888 13.9441 9.34497 14.1316 9.4856 14.5535C9.68482 15.3504 10.3176 15.9597 11.3957 16.1121V12.5496L11.3137 12.5262C9.2981 12.0457 8.25513 11.1316 8.25513 9.59644C8.25513 7.9441 9.56763 6.79566 11.3957 6.59644V5.76441C11.3957 5.42457 11.6418 5.19019 11.9699 5.19019C12.298 5.19019 12.5441 5.42457 12.5441 5.76441V6.59644C14.091 6.77222 15.3332 7.67457 15.6496 8.97535C15.673 9.10426 15.7082 9.23316 15.7082 9.35035C15.7082 9.77221 15.4035 10.0652 14.9934 10.0652C14.6066 10.0652 14.3723 9.83082 14.2551 9.46754C14.009 8.65894 13.4113 8.14332 12.5441 7.99097V11.3543L12.7082 11.3894C14.8059 11.7644 15.8723 12.7605 15.8723 14.4012C15.8723 16.2293 14.4074 17.3191 12.5441 17.4949V18.3386C12.5441 18.6785 12.298 18.9129 11.9699 18.9129ZM11.3957 11.0496V7.99097C10.3762 8.16676 9.75513 8.78785 9.75513 9.51441C9.75513 10.2293 10.2356 10.7097 11.3137 11.0262L11.3957 11.0496ZM12.5441 12.8308V16.1121C13.7746 15.9715 14.3723 15.3269 14.3723 14.4832C14.3723 13.7215 13.9738 13.2176 12.802 12.9012L12.5441 12.8308Z" fill="white"/>
</g>
<defs>
<clipPath id="clip0_2207_25355">
<rect width="23.9062" height="23.918" fill="white" transform="translate(0.0168457 0.057373)"/>
</clipPath>
</defs>
</svg>
