<svg width="27" height="24" viewBox="0 0 27 24" fill="none" xmlns="http://www.w3.org/2000/svg">
<g clip-path="url(#clip0_2207_21874)">
<path d="M14.2408 23.9636C20.7682 23.9636 26.194 18.5379 26.194 12.0105C26.194 5.47143 20.7682 0.057373 14.2408 0.057373C7.70178 0.057373 2.28772 5.45971 2.28772 11.9988H4.27991C4.27991 6.46753 8.70959 2.06128 14.2408 2.06128C19.7721 2.06128 24.2018 6.47925 24.2018 12.0105C24.2018 17.5418 19.7721 21.9949 14.2408 21.9715C10.901 21.9597 7.9713 20.3426 6.17834 17.8465C5.81506 17.366 5.26428 17.2136 4.77209 17.5066C4.30334 17.7996 4.17444 18.4441 4.57287 18.9597C6.79944 21.948 10.2916 23.9636 14.2408 23.9636ZM0.846307 9.74878C0.00255775 9.74878 -0.20838 10.323 0.248651 10.9793L2.87366 14.7058C3.26037 15.2449 3.82287 15.2332 4.19787 14.7058L6.82287 10.9676C7.26819 10.323 7.05725 9.74878 6.22522 9.74878H0.846307Z" fill="black" fill-opacity="0.85"/>
<path d="M14.2174 17.823C16.7252 17.823 18.5416 16.4285 18.5416 14.4832C18.5416 12.8426 17.6393 11.9636 15.401 11.4246L13.7252 11.0144C12.4244 10.6863 11.8502 10.2293 11.8502 9.4441C11.8502 8.45971 12.776 7.78004 14.1354 7.78004C15.3658 7.78004 16.1041 8.30738 16.526 9.43238C16.7135 9.84254 17.0299 10.03 17.358 10.03C17.9674 10.03 18.319 9.49096 18.108 8.78785C17.7799 7.54566 16.3619 6.23316 14.1354 6.23316C11.7565 6.23316 10.0572 7.60426 10.0572 9.51441C10.0572 11.1199 11.0768 12.1043 13.233 12.6082L14.9088 13.0066C16.2096 13.3113 16.7135 13.7566 16.7135 14.6121C16.7135 15.6199 15.7408 16.2762 14.2174 16.2762C12.858 16.2762 12.026 15.7605 11.6041 14.6472C11.4283 14.2488 11.1119 14.0613 10.7838 14.0613C10.1862 14.0613 9.86975 14.5418 9.99866 15.2449C10.2799 16.6863 11.9674 17.823 14.2174 17.823ZM13.5377 18.9715C13.5377 19.3582 13.8541 19.6863 14.2408 19.6863C14.6276 19.6863 14.9557 19.3582 14.9557 18.9715V5.06129C14.9557 4.67457 14.6276 4.34644 14.2408 4.34644C13.8541 4.34644 13.5377 4.67457 13.5377 5.06129V18.9715Z" fill="black" fill-opacity="0.85"/>
</g>
<defs>
<clipPath id="clip0_2207_21874">
<rect width="26.1813" height="23.918" fill="white" transform="translate(0.0126953 0.057373)"/>
</clipPath>
</defs>
</svg>
