<svg width="16" height="24" viewBox="0 0 16 24" fill="none" xmlns="http://www.w3.org/2000/svg">
<g clip-path="url(#clip0_2207_25562)">
<path d="M6.21069 19.616C8.51928 19.616 10.2537 18.5379 11.0974 16.8152H11.156V18.8308C11.156 19.4636 11.5779 19.8738 12.1873 19.8738C12.7849 19.8738 13.1951 19.4636 13.1951 18.8308V1.14721C13.1951 0.467529 12.7615 0.057373 12.1287 0.057373C11.4959 0.057373 11.0505 0.467529 11.0505 1.14721V8.81128H11.0037C10.242 7.10034 8.51928 6.02221 6.21069 6.02221C2.88257 6.02221 0.0231934 8.58862 0.0231934 12.8191C0.0231934 17.0496 2.88257 19.616 6.21069 19.616ZM6.69116 17.7058C4.15991 17.7058 2.23803 15.8308 2.23803 12.8191C2.23803 9.81909 4.15991 7.94409 6.69116 7.94409C9.14038 7.94409 11.074 9.93628 11.074 12.8191C11.074 15.7019 9.14038 17.7058 6.69116 17.7058ZM5.74194 3.09253C5.74194 3.50268 6.07007 3.84253 6.48022 3.84253H15.0115C15.4099 3.84253 15.7498 3.50268 15.7498 3.09253C15.7498 2.69409 15.4099 2.35425 15.0115 2.35425H6.48022C6.07007 2.35425 5.74194 2.69409 5.74194 3.09253ZM1.15991 22.1121C1.15991 22.534 1.49975 22.8855 1.92163 22.8855H13.1365C13.5584 22.8855 13.8982 22.534 13.8982 22.1121C13.8982 21.7019 13.5584 21.3504 13.1365 21.3504H1.92163C1.49975 21.3504 1.15991 21.7019 1.15991 22.1121Z" fill="black" fill-opacity="0.85"/>
</g>
<defs>
<clipPath id="clip0_2207_25562">
<rect width="15.7266" height="23.5898" fill="white" transform="translate(0.0231934 0.057373)"/>
</clipPath>
</defs>
</svg>
