<svg width="35" height="25" viewBox="0 0 35 25" fill="none" xmlns="http://www.w3.org/2000/svg">
<g clip-path="url(#clip0_2207_11691)">
<path d="M0.983643 24.9246C1.51098 24.9246 1.93286 24.5027 1.93286 23.9871V2.56518C1.93286 2.19018 2.17895 1.94409 2.53052 1.94409H31.8039C32.1555 1.94409 32.4016 2.19018 32.4016 2.56518V23.9871C32.4016 24.5027 32.8234 24.9246 33.3508 24.9246C33.8664 24.9246 34.2883 24.5027 34.2883 23.9871V2.44799C34.2883 1.01831 33.3156 0.057373 31.8391 0.057373H2.49536C1.03052 0.057373 0.0461426 1.01831 0.0461426 2.44799V23.9871C0.0461426 24.5027 0.468018 24.9246 0.983643 24.9246Z" fill="black" fill-opacity="0.85"/>
<path d="M3.70239 8.28394H30.6438C30.8547 8.28394 31.0305 8.10816 31.0305 7.89722V3.70191C31.0305 3.47926 30.8547 3.30347 30.6438 3.30347H3.70239C3.47973 3.30347 3.30396 3.47926 3.30396 3.70191V7.89722C3.30396 8.10816 3.47973 8.28394 3.70239 8.28394ZM14.6477 6.36207C14.3078 6.36207 14.0734 6.12769 14.0734 5.79957C14.0734 5.45972 14.3078 5.22535 14.6477 5.22535H19.6984C20.0266 5.22535 20.2609 5.45972 20.2609 5.79957C20.2609 6.12769 20.0266 6.36207 19.6984 6.36207H14.6477Z" fill="black" fill-opacity="0.85"/>
</g>
<defs>
<clipPath id="clip0_2207_11691">
<rect width="34.2422" height="24.8789" fill="white" transform="translate(0.0461426 0.057373)"/>
</clipPath>
</defs>
</svg>
