<svg width="35" height="25" viewBox="0 0 35 25" fill="none" xmlns="http://www.w3.org/2000/svg">
<g clip-path="url(#clip0_2207_11696)">
<path d="M0.979492 24.9246C1.50683 24.9246 1.92871 24.5027 1.92871 23.9871V2.56518C1.92871 2.19018 2.1748 1.94409 2.52637 1.94409H31.7998C32.1514 1.94409 32.3975 2.19018 32.3975 2.56518V23.9871C32.3975 24.5027 32.8193 24.9246 33.3467 24.9246C33.8623 24.9246 34.2842 24.5027 34.2842 23.9871V2.44799C34.2842 1.01831 33.3115 0.057373 31.835 0.057373H2.49121C1.02637 0.057373 0.0419922 1.01831 0.0419922 2.44799V23.9871C0.0419922 24.5027 0.463867 24.9246 0.979492 24.9246Z" fill="black" fill-opacity="0.85"/>
<path d="M3.69824 24.5144H30.6397C30.8506 24.5144 31.0264 24.3269 31.0264 24.116V3.70191C31.0264 3.47926 30.8506 3.30347 30.6397 3.30347H3.69824C3.47558 3.30347 3.2998 3.47926 3.2998 3.70191V24.116C3.2998 24.3269 3.47558 24.5144 3.69824 24.5144ZM5.30371 9.7605C5.06933 9.7605 4.89355 9.58472 4.89355 9.35035V5.20191C4.89355 4.96754 5.06933 4.78004 5.30371 4.78004H9.53418C9.76855 4.78004 9.95605 4.96754 9.95605 5.20191V9.35035C9.95605 9.58472 9.76855 9.7605 9.53418 9.7605H5.30371ZM11.8311 9.7605C11.5967 9.7605 11.4092 9.58472 11.4092 9.35035V5.20191C11.4092 4.96754 11.5967 4.78004 11.8311 4.78004H16.0498C16.2842 4.78004 16.4717 4.96754 16.4717 5.20191V9.35035C16.4717 9.58472 16.2842 9.7605 16.0498 9.7605H11.8311ZM18.335 9.7605C18.1006 9.7605 17.9248 9.58472 17.9248 9.35035V5.20191C17.9248 4.96754 18.1006 4.78004 18.335 4.78004H22.542C22.7647 4.78004 22.9522 4.96754 22.9522 5.20191V9.35035C22.9522 9.58472 22.7647 9.7605 22.6358 9.7605H18.335ZM24.8154 9.7605C24.5811 9.7605 24.4053 9.58472 24.4053 9.35035V5.20191C24.4053 4.96754 24.5811 4.78004 24.8154 4.78004H29.0225C29.2568 4.78004 29.4326 4.96754 29.4326 5.20191V9.35035C29.4326 9.58472 29.2568 9.7605 29.1162 9.7605H24.8154ZM14.6436 22.534C14.3037 22.534 14.0693 22.2996 14.0693 21.9715C14.0693 21.6316 14.3037 21.3972 14.6436 21.3972H19.6943C20.0225 21.3972 20.2568 21.6316 20.2568 21.9715C20.2568 22.2996 20.0225 22.534 19.6943 22.534H14.6436Z" fill="black" fill-opacity="0.85"/>
</g>
<defs>
<clipPath id="clip0_2207_11696">
<rect width="34.2422" height="24.8789" fill="white" transform="translate(0.0419922 0.057373)"/>
</clipPath>
</defs>
</svg>
