<svg width="18" height="25" viewBox="0 0 18 25" fill="none" xmlns="http://www.w3.org/2000/svg">
<g clip-path="url(#clip0_2207_11627)">
<path d="M0.0566406 23.9871C0.0566406 24.5027 0.478516 24.9246 0.994141 24.9246C1.52148 24.9246 1.94336 24.5027 1.94336 23.9871V2.56518C1.94336 2.19018 2.18945 1.94409 2.54102 1.94409H15.4316C15.7832 1.94409 16.0293 2.19018 16.0293 2.56518V23.9871C16.0293 24.5027 16.4511 24.9246 16.9785 24.9246C17.4941 24.9246 17.916 24.5027 17.916 23.9871V2.44799C17.916 1.01831 16.9433 0.057373 15.4668 0.057373H2.50586C1.04102 0.057373 0.0566406 1.01831 0.0566406 2.44799V23.9871Z" fill="black" fill-opacity="0.85"/>
<path d="M3.31445 24.2566C3.31445 24.4793 3.50195 24.5965 3.72461 24.5027L7.4043 22.8738C7.69726 22.7449 7.81445 22.6512 7.81445 22.3465V5.4597C7.81445 5.16674 7.69726 5.06127 7.41602 4.94408L3.72461 3.30345C3.50195 3.2097 3.31445 3.32689 3.31445 3.56127V24.2566Z" fill="black" fill-opacity="0.85"/>
</g>
<defs>
<clipPath id="clip0_2207_11627">
<rect width="17.8594" height="24.8789" fill="white" transform="translate(0.0566406 0.057373)"/>
</clipPath>
</defs>
</svg>
