<svg width="29" height="25" viewBox="0 0 29 25" fill="none" xmlns="http://www.w3.org/2000/svg">
<g clip-path="url(#clip0_2207_11657)">
<path d="M27.7724 24.9246C28.2998 24.9246 28.7216 24.5027 28.7216 23.9871V2.44799C28.7216 1.01831 27.7373 0.057373 26.2607 0.057373H2.51856C1.05371 0.057373 0.0693359 1.01831 0.0693359 2.44799V23.9871C0.0693359 24.5027 0.491211 24.9246 1.00684 24.9246C1.53418 24.9246 1.95606 24.5027 1.95606 23.9871V2.56518C1.95606 2.19018 2.20215 1.94409 2.55372 1.94409H26.2373C26.5888 1.94409 26.8349 2.19018 26.8349 2.56518V23.9871C26.8349 24.5027 27.2568 24.9246 27.7724 24.9246Z" fill="black" fill-opacity="0.85"/>
<path d="M13.8974 24.5144C14.1201 24.5144 14.2959 24.3269 14.2959 24.116V3.70191C14.2959 3.47926 14.1201 3.30347 13.8974 3.30347H3.72559C3.50293 3.30347 3.32715 3.47926 3.32715 3.70191V24.116C3.32715 24.3269 3.50293 24.5144 3.72559 24.5144H13.8974ZM11.6474 15.7488C11.3076 15.7488 11.0732 15.5144 11.0732 15.1746V13.1238C11.0732 12.784 11.3076 12.5613 11.6474 12.5613C11.9755 12.5613 12.2099 12.784 12.2099 13.1238V15.1746C12.2099 15.5144 11.9755 15.7488 11.6474 15.7488Z" fill="black" fill-opacity="0.85"/>
</g>
<defs>
<clipPath id="clip0_2207_11657">
<rect width="28.6523" height="24.8789" fill="white" transform="translate(0.0693359 0.057373)"/>
</clipPath>
</defs>
</svg>
