<svg width="29" height="25" viewBox="0 0 29 25" fill="none" xmlns="http://www.w3.org/2000/svg">
<g clip-path="url(#clip0_2207_11715)">
<path d="M0.973145 24.9246C1.50048 24.9246 1.92236 24.5027 1.92236 23.9871V2.56518C1.92236 2.19018 2.16845 1.94409 2.52002 1.94409H26.2036C26.5551 1.94409 26.8012 2.19018 26.8012 2.56518V23.9871C26.8012 24.5027 27.2231 24.9246 27.7387 24.9246C28.2661 24.9246 28.6879 24.5027 28.6879 23.9871V2.44799C28.6879 1.01831 27.7036 0.057373 26.227 0.057373H2.48486C1.02002 0.057373 0.0356445 1.01831 0.0356445 2.44799V23.9871C0.0356445 24.5027 0.45752 24.9246 0.973145 24.9246Z" fill="black" fill-opacity="0.85"/>
<path d="M3.29346 24.0457C3.29346 24.2683 3.48096 24.4793 3.70362 24.4324L10.9926 22.8035C11.2153 22.7566 11.4028 22.6043 11.4028 22.3699V4.96755C11.4028 4.74489 11.227 4.59254 11.0044 4.54566L3.6919 2.90505C3.48096 2.86989 3.29346 3.06911 3.29346 3.30348V24.0457ZM9.41065 17.3426C9.57471 17.3308 9.6919 17.4246 9.6919 17.6004V21.1863C9.6919 21.3621 9.58643 21.4441 9.43409 21.4793L5.29737 22.2996C5.14503 22.3347 5.02784 22.2527 5.02784 22.0652V17.9285C5.02784 17.7527 5.14503 17.6472 5.29737 17.6355L9.41065 17.3426ZM5.02784 15.8777V11.4715C5.02784 11.284 5.14503 11.1902 5.29737 11.2019L9.42237 11.4246C9.58643 11.4363 9.6919 11.5418 9.6919 11.7176V15.6316C9.6919 15.8074 9.57471 15.9012 9.42237 15.9129L5.29737 16.1472C5.13331 16.159 5.02784 16.0535 5.02784 15.8777ZM9.42237 10.0066L5.28565 9.70192C5.13331 9.6902 5.02784 9.61988 5.02784 9.43238V5.27223C5.02784 5.08473 5.14503 5.0027 5.29737 5.03786L9.42237 5.82301C9.57471 5.84645 9.6919 5.92848 9.6919 6.11598V9.71363C9.6919 9.88941 9.58643 10.0183 9.42237 10.0066ZM25.4301 24.0457V3.30348C25.4301 3.06911 25.2426 2.86989 25.0317 2.90505L17.7192 4.54566C17.4965 4.59254 17.3208 4.74489 17.3208 4.96755V22.3699C17.3208 22.6043 17.4965 22.7566 17.7309 22.8035L25.02 24.4324C25.2426 24.4793 25.4301 24.2683 25.4301 24.0457ZM19.3129 17.3426L23.4145 17.6355C23.5786 17.6472 23.6958 17.7527 23.6958 17.9285V22.0652C23.6958 22.2527 23.5786 22.3347 23.4262 22.2996L19.2895 21.4793C19.1372 21.4441 19.0317 21.3621 19.0317 21.1863V17.6004C19.0317 17.4246 19.1489 17.3308 19.3129 17.3426ZM23.6958 15.8777C23.6958 16.0535 23.5903 16.159 23.4262 16.1472L19.3012 15.9129C19.1372 15.9012 19.0317 15.8074 19.0317 15.6316V11.7176C19.0317 11.5418 19.1372 11.4363 19.3012 11.4246L23.4262 11.2019C23.5786 11.1902 23.6958 11.284 23.6958 11.4715V15.8777ZM19.3012 10.0066C19.1372 10.0183 19.0317 9.88941 19.0317 9.71363V6.11598C19.0317 5.92848 19.1489 5.84645 19.3012 5.82301L23.4262 5.03786C23.5668 5.0027 23.6958 5.08473 23.6958 5.27223V9.43238C23.6958 9.61988 23.5903 9.6902 23.4379 9.70192L19.3012 10.0066Z" fill="black" fill-opacity="0.85"/>
</g>
<defs>
<clipPath id="clip0_2207_11715">
<rect width="28.6523" height="24.8789" fill="white" transform="translate(0.0356445 0.057373)"/>
</clipPath>
</defs>
</svg>
