<svg width="29" height="25" viewBox="0 0 29 25" fill="none" xmlns="http://www.w3.org/2000/svg">
<g clip-path="url(#clip0_2207_11672)">
<path d="M0.975342 24.9246C1.50268 24.9246 1.92456 24.5027 1.92456 23.9871V2.56518C1.92456 2.19018 2.17065 1.94409 2.52222 1.94409H26.2058C26.5573 1.94409 26.8034 2.19018 26.8034 2.56518V23.9871C26.8034 24.5027 27.2253 24.9246 27.7409 24.9246C28.2683 24.9246 28.6901 24.5027 28.6901 23.9871V2.44799C28.6901 1.01831 27.7058 0.057373 26.2292 0.057373H2.48706C1.02222 0.057373 0.0378418 1.01831 0.0378418 2.44799V23.9871C0.0378418 24.5027 0.459717 24.9246 0.975342 24.9246Z" fill="black" fill-opacity="0.85"/>
<path d="M3.69409 24.5144H25.0339C25.2566 24.5144 25.4323 24.3269 25.4323 24.116V3.70191C25.4323 3.47926 25.2566 3.30347 25.0339 3.30347H3.69409C3.47143 3.30347 3.29565 3.47926 3.29565 3.70191V24.116C3.29565 24.3269 3.47143 24.5144 3.69409 24.5144ZM12.073 22.534C11.7331 22.534 11.5105 22.2996 11.5105 21.9715C11.5105 21.6316 11.7331 21.3972 12.073 21.3972H16.655C16.9948 21.3972 17.2175 21.6316 17.2175 21.9715C17.2175 22.2996 16.9948 22.534 16.655 22.534H12.073ZM5.29956 9.7605C5.06518 9.7605 4.8894 9.58472 4.8894 9.35035V5.20191C4.8894 4.96754 5.06518 4.78004 5.29956 4.78004H9.83472C10.069 4.78004 10.2448 4.96754 10.2448 5.20191V9.35035C10.2448 9.58472 10.069 9.7605 9.83472 9.7605H5.29956ZM12.1198 9.7605C11.8855 9.7605 11.7097 9.58472 11.7097 9.35035V5.20191C11.7097 4.96754 11.8855 4.78004 12.1198 4.78004H16.6433C16.8776 4.78004 17.0651 4.96754 17.0651 5.20191V9.35035C17.0651 9.58472 16.8776 9.7605 16.6433 9.7605H12.1198ZM18.9284 9.7605C18.694 9.7605 18.5066 9.58472 18.5066 9.35035V5.20191C18.5066 4.96754 18.694 4.78004 18.9284 4.78004H23.4284C23.6628 4.78004 23.8386 4.96754 23.8386 5.20191V9.35035C23.8386 9.58472 23.6628 9.7605 23.5222 9.7605H18.9284Z" fill="black" fill-opacity="0.85"/>
</g>
<defs>
<clipPath id="clip0_2207_11672">
<rect width="28.6523" height="24.8789" fill="white" transform="translate(0.0378418 0.057373)"/>
</clipPath>
</defs>
</svg>
