<svg width="29" height="25" viewBox="0 0 29 25" fill="none" xmlns="http://www.w3.org/2000/svg">
<g clip-path="url(#clip0_2207_11647)">
<path d="M1.00269 24.9246C1.53003 24.9246 1.95191 24.5027 1.95191 23.9871V2.56518C1.95191 2.19018 2.198 1.94409 2.54957 1.94409H26.2332C26.5847 1.94409 26.8308 2.19018 26.8308 2.56518V23.9871C26.8308 24.5027 27.2527 24.9246 27.7683 24.9246C28.2957 24.9246 28.7175 24.5027 28.7175 23.9871V2.44799C28.7175 1.01831 27.7332 0.057373 26.2566 0.057373H2.51441C1.04956 0.057373 0.0651855 1.01831 0.0651855 2.44799V23.9871C0.0651855 24.5027 0.487061 24.9246 1.00269 24.9246Z" fill="black" fill-opacity="0.85"/>
<path d="M14.8894 24.5144H25.0613C25.284 24.5144 25.4597 24.3269 25.4597 24.116V3.70191C25.4597 3.47926 25.284 3.30347 25.0613 3.30347H14.8894C14.6668 3.30347 14.491 3.47926 14.491 3.70191V24.116C14.491 24.3269 14.6668 24.5144 14.8894 24.5144ZM17.1394 15.7488C16.8113 15.7488 16.5769 15.5144 16.5769 15.1746V13.1238C16.5769 12.784 16.8113 12.5613 17.1394 12.5613C17.4793 12.5613 17.7019 12.784 17.7019 13.1238V15.1746C17.7019 15.5144 17.4793 15.7488 17.1394 15.7488Z" fill="black" fill-opacity="0.85"/>
</g>
<defs>
<clipPath id="clip0_2207_11647">
<rect width="28.6523" height="24.8789" fill="white" transform="translate(0.0651855 0.057373)"/>
</clipPath>
</defs>
</svg>
