<svg width="29" height="25" viewBox="0 0 29 25" fill="none" xmlns="http://www.w3.org/2000/svg">
<g clip-path="url(#clip0_2207_11720)">
<path d="M0.971069 24.9246C1.49841 24.9246 1.92029 24.5027 1.92029 23.9871V2.56518C1.92029 2.19018 2.16638 1.94409 2.51795 1.94409H26.2016C26.5531 1.94409 26.7992 2.19018 26.7992 2.56518V23.9871C26.7992 24.5027 27.2211 24.9246 27.7367 24.9246C28.2641 24.9246 28.6859 24.5027 28.6859 23.9871V2.44799C28.6859 1.01831 27.7016 0.057373 26.225 0.057373H2.48279C1.01794 0.057373 0.0335693 1.01831 0.0335693 2.44799V23.9871C0.0335693 24.5027 0.455444 24.9246 0.971069 24.9246Z" fill="black" fill-opacity="0.85"/>
<path d="M3.68982 24.5262H13.2758C13.4984 24.5262 13.6742 24.3504 13.6742 24.1277V3.72535C13.6742 3.50269 13.4984 3.32691 13.2758 3.32691H3.68982C3.46716 3.32691 3.29138 3.50269 3.29138 3.72535V24.1277C3.29138 24.3504 3.46716 24.5262 3.68982 24.5262ZM5.29529 9.64332C5.13123 9.64332 5.01404 9.52613 5.01404 9.33863V5.35426C5.01404 5.16676 5.13123 5.04957 5.29529 5.04957H11.6703C11.8344 5.04957 11.9516 5.16676 11.9516 5.35426V9.33863C11.9516 9.52613 11.8344 9.64332 11.6703 9.64332H5.29529ZM5.29529 16.2176C5.13123 16.2176 5.01404 16.1004 5.01404 15.9129V11.9285C5.01404 11.741 5.13123 11.6355 5.29529 11.6355H11.6703C11.8344 11.6355 11.9516 11.741 11.9516 11.9285V15.9129C11.9516 16.1004 11.8344 16.2176 11.6703 16.2176H5.29529ZM5.29529 22.8035C5.13123 22.8035 5.01404 22.6863 5.01404 22.4988V18.5144C5.01404 18.3269 5.13123 18.2215 5.29529 18.2215H11.6703C11.8344 18.2215 11.9516 18.3269 11.9516 18.5144V22.4988C11.9516 22.6863 11.8344 22.8035 11.6703 22.8035H5.29529ZM15.432 24.5144H25.0297C25.2524 24.5144 25.4281 24.3269 25.4281 24.116V3.70191C25.4281 3.47926 25.2524 3.30347 25.0297 3.30347H15.432C15.2211 3.30347 15.0453 3.47926 15.0453 3.70191V24.116C15.0453 24.3269 15.2211 24.5144 15.432 24.5144ZM17.0492 9.61988C16.8852 9.61988 16.768 9.50269 16.768 9.31519V5.33082C16.768 5.14332 16.8852 5.03785 17.0492 5.03785H23.4242C23.5883 5.03785 23.6938 5.14332 23.6938 5.33082V9.31519C23.6938 9.50269 23.5883 9.61988 23.4242 9.61988H17.0492ZM17.0492 16.1941C16.8852 16.1941 16.768 16.0769 16.768 15.9012V11.9051C16.768 11.7293 16.8852 11.6121 17.0492 11.6121H23.4242C23.5883 11.6121 23.6938 11.7293 23.6938 11.9051V15.9012C23.6938 16.0769 23.5883 16.1941 23.4242 16.1941H17.0492ZM17.0492 22.7801C16.8852 22.7801 16.768 22.6629 16.768 22.4871V18.491C16.768 18.3152 16.8852 18.198 17.0492 18.198H23.4242C23.5883 18.198 23.6938 18.3152 23.6938 18.491V22.4871C23.6938 22.6629 23.5883 22.7801 23.4242 22.7801H17.0492Z" fill="black" fill-opacity="0.85"/>
</g>
<defs>
<clipPath id="clip0_2207_11720">
<rect width="28.6523" height="24.8789" fill="white" transform="translate(0.0335693 0.057373)"/>
</clipPath>
</defs>
</svg>
