<svg width="24" height="24" viewBox="0 0 24 24" fill="none" xmlns="http://www.w3.org/2000/svg">
<g clip-path="url(#clip0_2207_18953)">
<path d="M1.03613 7.53393C1.65722 7.53393 1.98535 7.18237 1.98535 6.57299V3.80737C1.98535 2.58862 2.62988 1.96753 3.80175 1.96753H6.63769C7.25879 1.96753 7.59863 1.62768 7.59863 1.01831C7.59863 0.408935 7.25879 0.0808105 6.63769 0.0808105H3.77832C1.3291 0.0808105 0.0986328 1.28784 0.0986328 3.7019V6.57299C0.0986328 7.18237 0.438477 7.53393 1.03613 7.53393ZM22.0947 7.53393C22.7158 7.53393 23.0439 7.18237 23.0439 6.57299V3.7019C23.0439 1.28784 21.8134 0.0808105 19.3642 0.0808105H16.4931C15.8838 0.0808105 15.5439 0.408935 15.5439 1.01831C15.5439 1.62768 15.8838 1.96753 16.4931 1.96753H19.3291C20.4892 1.96753 21.1572 2.58862 21.1572 3.80737V6.57299C21.1572 7.18237 21.497 7.53393 22.0947 7.53393ZM3.77832 23.0144H6.63769C7.25879 23.0144 7.59863 22.6746 7.59863 22.0769C7.59863 21.4676 7.25879 21.1277 6.63769 21.1277H3.80175C2.62988 21.1277 1.98535 20.5066 1.98535 19.2879V16.5222C1.98535 15.9012 1.64551 15.5613 1.03613 15.5613C0.426758 15.5613 0.0986328 15.9012 0.0986328 16.5222V19.3816C0.0986328 21.8074 1.3291 23.0144 3.77832 23.0144ZM16.4931 23.0144H19.3642C21.8134 23.0144 23.0439 21.7957 23.0439 19.3816V16.5222C23.0439 15.9012 22.7041 15.5613 22.0947 15.5613C21.4853 15.5613 21.1572 15.9012 21.1572 16.5222V19.2879C21.1572 20.5066 20.4892 21.1277 19.3291 21.1277H16.4931C15.8838 21.1277 15.5439 21.4676 15.5439 22.0769C15.5439 22.6746 15.8838 23.0144 16.4931 23.0144Z" fill="black" fill-opacity="0.85"/>
<path d="M11.5947 15.4207C13.7041 15.4207 15.4502 13.6746 15.4502 11.5301C15.4502 9.42065 13.7041 7.67456 11.5947 7.67456C9.45019 7.67456 7.7041 9.42065 7.7041 11.5301C7.7041 13.6746 9.45019 15.4207 11.5947 15.4207Z" fill="black" fill-opacity="0.85"/>
</g>
<defs>
<clipPath id="clip0_2207_18953">
<rect width="22.9453" height="22.957" fill="white" transform="translate(0.0986328 0.057373)"/>
</clipPath>
</defs>
</svg>
