<svg width="22" height="22" viewBox="0 0 22 22" fill="none" xmlns="http://www.w3.org/2000/svg">
<g clip-path="url(#clip0_2207_6725)">
<path d="M0.0944824 20.7176C0.0944824 21.2801 0.469482 21.6551 1.03198 21.6551H20.7429C21.3054 21.6551 21.6687 21.2801 21.6687 20.7176V1.00659C21.6687 0.444092 21.3054 0.0808105 20.7429 0.0808105H1.03198C0.469482 0.0808105 0.0944824 0.444092 0.0944824 1.00659V20.7176Z" fill="black" fill-opacity="0.85"/>
<path d="M10.9109 14.6355C8.84839 14.6355 7.13745 12.9363 7.13745 10.8504C7.13745 8.78784 8.84839 7.10034 10.9109 7.10034C12.9734 7.10034 14.6843 8.78784 14.6843 10.8504C14.6843 12.9363 12.9734 14.6355 10.9109 14.6355Z" fill="white"/>
</g>
<defs>
<clipPath id="clip0_2207_6725">
<rect width="21.5742" height="21.5977" fill="white" transform="translate(0.0944824 0.057373)"/>
</clipPath>
</defs>
</svg>
