<svg width="22" height="22" viewBox="0 0 22 22" fill="none" xmlns="http://www.w3.org/2000/svg">
<g clip-path="url(#clip0_2207_6362)">
<path d="M3.77002 21.6551H17.9848C20.4458 21.6551 21.6645 20.4363 21.6645 18.0222V3.71362C21.6645 1.29956 20.4458 0.0808105 17.9848 0.0808105H3.77002C1.3208 0.0808105 0.090332 1.28784 0.090332 3.71362V18.0222C0.090332 20.448 1.3208 21.6551 3.77002 21.6551Z" fill="black" fill-opacity="0.85"/>
<path d="M10.9067 14.6121C8.84424 14.6121 7.1333 12.9129 7.1333 10.8269C7.1333 8.77612 8.84424 7.0769 10.9067 7.0769C12.9692 7.0769 14.6801 8.77612 14.6801 10.8269C14.6801 12.9129 12.9692 14.6121 10.9067 14.6121Z" fill="white"/>
</g>
<defs>
<clipPath id="clip0_2207_6362">
<rect width="21.5742" height="21.5977" fill="white" transform="translate(0.090332 0.057373)"/>
</clipPath>
</defs>
</svg>
