<svg width="22" height="22" viewBox="0 0 22 22" fill="none" xmlns="http://www.w3.org/2000/svg">
<g clip-path="url(#clip0_2207_6720)">
<path d="M0.0922852 20.7058C0.0922852 21.2683 0.467285 21.6316 1.02979 21.6316H20.7407C21.3032 21.6316 21.6665 21.2683 21.6665 20.7058V0.994873C21.6665 0.432373 21.3032 0.057373 20.7407 0.057373H1.02979C0.467285 0.057373 0.0922852 0.432373 0.0922852 0.994873V20.7058ZM1.97901 19.4051V2.28393C1.97901 2.03784 2.07276 1.94409 2.31885 1.94409H19.44C19.6978 1.94409 19.7798 2.03784 19.7798 2.28393V19.4051C19.7798 19.6629 19.6978 19.7449 19.44 19.7449H2.31885C2.07276 19.7449 1.97901 19.6629 1.97901 19.4051Z" fill="black" fill-opacity="0.85"/>
<path d="M10.9087 14.4363C12.8775 14.4363 14.5064 12.8191 14.5064 10.8386C14.5064 8.85816 12.8775 7.24097 10.9087 7.24097C8.92823 7.24097 7.29932 8.85816 7.29932 10.8386C7.29932 12.8191 8.92823 14.4363 10.9087 14.4363Z" fill="black" fill-opacity="0.85"/>
</g>
<defs>
<clipPath id="clip0_2207_6720">
<rect width="21.5742" height="21.5977" fill="white" transform="translate(0.0922852 0.057373)"/>
</clipPath>
</defs>
</svg>
