<svg width="22" height="22" viewBox="0 0 22 22" fill="none" xmlns="http://www.w3.org/2000/svg">
<g clip-path="url(#clip0_2207_21544)">
<path d="M1.09277 11.8113H9.94043V20.659H11.8272V11.8113H20.6748V9.92456H11.8272V1.0769H9.94043V9.92456H1.09277V11.8113ZM0.0966797 20.7058C0.0966797 21.2683 0.47168 21.6316 1.03418 21.6316H20.7451C21.3076 21.6316 21.6709 21.2683 21.6709 20.7058V0.994873C21.6709 0.432373 21.3076 0.057373 20.7451 0.057373H1.03418C0.47168 0.057373 0.0966797 0.432373 0.0966797 0.994873V20.7058ZM1.9834 19.4051V2.28393C1.9834 2.03784 2.07715 1.94409 2.32324 1.94409H19.4444C19.7022 1.94409 19.7842 2.03784 19.7842 2.28393V19.4051C19.7842 19.6629 19.7022 19.7449 19.4444 19.7449H2.32324C2.07715 19.7449 1.9834 19.6629 1.9834 19.4051Z" fill="black" fill-opacity="0.85"/>
<path d="M10.9014 16.1238C13.7842 16.1238 16.1514 13.7566 16.1514 10.8504C16.1514 7.96753 13.7842 5.61206 10.9014 5.61206C8.00684 5.61206 5.62793 7.96753 5.62793 10.8504C5.62793 13.7566 8.00684 16.1238 10.9014 16.1238Z" fill="white"/>
<path d="M10.9014 14.5183C12.8936 14.5183 14.5459 12.8777 14.5459 10.8504C14.5459 8.85815 12.8936 7.21753 10.9014 7.21753C8.88574 7.21753 7.2334 8.85815 7.2334 10.8504C7.2334 12.8777 8.88574 14.5183 10.9014 14.5183Z" fill="black" fill-opacity="0.85"/>
</g>
<defs>
<clipPath id="clip0_2207_21544">
<rect width="21.5742" height="21.5977" fill="white" transform="translate(0.0966797 0.057373)"/>
</clipPath>
</defs>
</svg>
