<svg width="24" height="24" viewBox="0 0 24 24" fill="none" xmlns="http://www.w3.org/2000/svg">
<g clip-path="url(#clip0_2207_22051)">
<path d="M12.0244 23.9636C18.5635 23.9636 23.9775 18.5379 23.9775 12.0105C23.9775 5.47143 18.5518 0.057373 12.0127 0.057373C5.48535 0.057373 0.0712891 5.47143 0.0712891 12.0105C0.0712891 18.5379 5.49707 23.9636 12.0244 23.9636ZM12.0244 21.9715C6.49317 21.9715 2.0752 17.5418 2.0752 12.0105C2.0752 6.47925 6.48145 2.04956 12.0127 2.04956C17.544 2.04956 21.9854 6.47925 21.9854 12.0105C21.9854 17.5418 17.5557 21.9715 12.0244 21.9715Z" fill="black" fill-opacity="0.85"/>
<path d="M12.0127 16.4168C14.4385 16.4168 16.4307 14.4129 16.4307 12.0105C16.4307 9.59643 14.4385 7.60425 12.0127 7.60425C9.62207 7.60425 7.61817 9.59643 7.61817 12.0105C7.61817 14.4129 9.62207 16.4168 12.0127 16.4168ZM14.1104 5.41284L12.4932 3.38549C12.2588 3.08081 11.8369 3.08081 11.5791 3.38549L9.9502 5.41284C9.5752 5.86987 9.79785 6.45581 10.4072 6.45581H13.6533C14.251 6.45581 14.4736 5.84643 14.1104 5.41284ZM18.6338 14.0965L20.6611 12.4793C20.9658 12.2449 20.9658 11.8113 20.6611 11.5652L18.6338 9.93628C18.1768 9.56128 17.5908 9.77221 17.5908 10.3933V13.6277C17.5908 14.2254 18.2002 14.448 18.6338 14.0965ZM14.1104 18.6199C14.4736 18.1863 14.251 17.5769 13.6533 17.5769H10.4072C9.79785 17.5769 9.5752 18.1629 9.9502 18.6199L11.5791 20.6472C11.8369 20.9519 12.2588 20.9519 12.4932 20.6472L14.1104 18.6199ZM5.42676 14.0965C5.87207 14.448 6.46973 14.2254 6.46973 13.6277V10.3933C6.46973 9.77221 5.89551 9.56128 5.42676 9.93628L3.39941 11.5652C3.09473 11.8113 3.09473 12.2449 3.39941 12.4793L5.42676 14.0965Z" fill="black" fill-opacity="0.85"/>
</g>
<defs>
<clipPath id="clip0_2207_22051">
<rect width="23.9062" height="23.918" fill="white" transform="translate(0.0712891 0.057373)"/>
</clipPath>
</defs>
</svg>
