<svg width="26" height="26" viewBox="0 0 26 26" fill="none" xmlns="http://www.w3.org/2000/svg">
<g clip-path="url(#clip0_2207_20567)">
<path d="M17.4341 20.2619C17.4341 18.9963 17.2817 18.5861 16.4731 17.7776L14.1997 15.4924C13.3794 14.6838 12.2544 14.6838 11.4341 15.4924L9.16065 17.7776C8.35206 18.5861 8.21143 18.9963 8.21143 20.2619V23.215C8.21143 24.715 9.07862 25.6643 10.4145 25.6643H15.231C16.5669 25.6643 17.4341 24.715 17.4341 23.215V20.2619ZM15.7583 20.2619V23.1682C15.7583 23.6955 15.4419 24.0002 14.9028 24.0002H10.731C10.1919 24.0002 9.88722 23.6955 9.88722 23.1682V20.2619C9.88722 19.6526 9.95753 19.3479 10.356 18.9611L12.5591 16.758C12.7349 16.5705 12.9106 16.5822 13.0864 16.758L15.2895 18.9611C15.6763 19.3479 15.7583 19.6526 15.7583 20.2619Z" fill="black" fill-opacity="0.85"/>
<path d="M20.2231 8.26196C18.9458 8.26196 18.5356 8.40259 17.7271 9.21118L15.4536 11.4846C14.6333 12.3049 14.6333 13.4299 15.4536 14.2502L17.7271 16.5236C18.5356 17.3322 18.9458 17.4846 20.2231 17.4846H23.1645C24.6645 17.4846 25.6255 16.6174 25.6255 15.2815V10.4533C25.6255 9.12915 24.6645 8.26196 23.1645 8.26196H20.2231ZM20.2231 9.93775H23.1177C23.6567 9.93775 23.9614 10.2424 23.9614 10.7815V14.9533C23.9614 15.4924 23.6567 15.8088 23.1177 15.8088H20.2231C19.6138 15.8088 19.3091 15.7268 18.9106 15.3283L16.7075 13.1369C16.5317 12.9494 16.5435 12.7736 16.7192 12.5979L18.9106 10.4065C19.3091 10.0081 19.6138 9.93775 20.2231 9.93775Z" fill="black" fill-opacity="0.85"/>
<path d="M5.41064 17.4729C6.68799 17.4729 7.09814 17.3322 7.90674 16.5236L10.1802 14.2502C11.0005 13.4299 11.0005 12.3049 10.1802 11.4846L7.90674 9.21117C7.09814 8.40258 6.68799 8.25024 5.41064 8.25024H2.46924C0.969239 8.25024 0.00830078 9.11742 0.00830078 10.4533V15.2815C0.00830078 16.6057 0.969239 17.4729 2.46924 17.4729H5.41064Z" fill="black" fill-opacity="0.85"/>
<path d="M8.21143 5.4729C8.21143 6.73853 8.36378 7.14868 9.17237 7.95728L11.4458 10.2307C12.2661 11.051 13.3911 11.051 14.2114 10.2307L16.4849 7.95728C17.2935 7.14868 17.4341 6.73853 17.4341 5.4729V2.51978C17.4341 1.01978 16.5669 0.0588379 15.231 0.0588379H10.4145C9.07862 0.0588379 8.21143 1.01978 8.21143 2.51978V5.4729ZM9.88722 5.4729V2.56665C9.88722 2.03931 10.2036 1.7229 10.7427 1.7229H14.9145C15.4536 1.7229 15.7583 2.03931 15.7583 2.56665V5.4729C15.7583 6.07056 15.688 6.37525 15.2895 6.77368L13.0864 8.97681C12.9106 9.15259 12.7349 9.15259 12.5591 8.97681L10.3677 6.77368C9.96925 6.37525 9.88722 6.07056 9.88722 5.4729Z" fill="black" fill-opacity="0.85"/>
</g>
<defs>
<clipPath id="clip0_2207_20567">
<rect width="25.6172" height="25.6289" fill="white" transform="translate(0.00830078 0.0588379)"/>
</clipPath>
</defs>
</svg>
