<svg width="26" height="26" viewBox="0 0 26 26" fill="none" xmlns="http://www.w3.org/2000/svg">
<g clip-path="url(#clip0_2207_20559)">
<path d="M5.40454 17.4729C6.68189 17.4729 7.09204 17.3322 7.90064 16.5236L10.1741 14.2502C10.9944 13.4299 10.9944 12.3049 10.1741 11.4846L7.90064 9.21118C7.09204 8.40259 6.68189 8.25025 5.40454 8.25025H2.46314C0.963135 8.25025 0.00219727 9.11743 0.00219727 10.4533V15.2815C0.00219727 16.6057 0.963135 17.4729 2.46314 17.4729H5.40454ZM5.40454 15.7971H2.51001C1.97095 15.7971 1.66626 15.4924 1.66626 14.9533V10.7815C1.66626 10.2424 1.97095 9.92603 2.51001 9.92603H5.40454C6.01392 9.92603 6.31861 10.0081 6.71704 10.4065L8.92017 12.5979C9.09595 12.7854 9.08423 12.9611 8.90845 13.1369L6.71704 15.3283C6.31861 15.7268 6.01392 15.7971 5.40454 15.7971ZM8.20532 5.4729C8.20532 6.73853 8.35767 7.14868 9.16626 7.95728L11.4397 10.2307C12.26 11.051 13.385 11.051 14.2053 10.2307L16.4788 7.95728C17.2874 7.14868 17.428 6.73853 17.428 5.4729V2.51978C17.428 1.01978 16.5608 0.0588379 15.2249 0.0588379H10.4084C9.07251 0.0588379 8.20532 1.01978 8.20532 2.51978V5.4729ZM9.88111 5.4729V2.56665C9.88111 2.03931 10.1975 1.7229 10.7366 1.7229H14.9084C15.4475 1.7229 15.7522 2.03931 15.7522 2.56665V5.4729C15.7522 6.07056 15.6819 6.37525 15.2834 6.77368L13.0803 8.97681C12.9045 9.15259 12.7288 9.15259 12.553 8.97681L10.3616 6.77368C9.96314 6.37525 9.88111 6.07056 9.88111 5.4729ZM20.217 8.26196C18.9397 8.26196 18.5295 8.40259 17.721 9.21118L15.4475 11.4846C14.6272 12.3049 14.6272 13.4299 15.4475 14.2502L17.721 16.5236C18.5295 17.3322 18.9397 17.4846 20.217 17.4846H23.1584C24.6584 17.4846 25.6194 16.6174 25.6194 15.2815V10.4533C25.6194 9.12915 24.6584 8.26196 23.1584 8.26196H20.217ZM20.217 9.93775H23.1116C23.6506 9.93775 23.9553 10.2424 23.9553 10.7815V14.9533C23.9553 15.4924 23.6506 15.8088 23.1116 15.8088H20.217C19.6077 15.8088 19.303 15.7268 18.9045 15.3283L16.7014 13.1369C16.5256 12.9494 16.5374 12.7736 16.7131 12.5979L18.9045 10.4065C19.303 10.0081 19.6077 9.93775 20.217 9.93775ZM17.428 20.2619C17.428 18.9963 17.2756 18.5861 16.467 17.7776L14.1936 15.4924C13.3733 14.6838 12.2483 14.6838 11.428 15.4924L9.15454 17.7776C8.34595 18.5861 8.20532 18.9963 8.20532 20.2619V23.215C8.20532 24.715 9.07251 25.6643 10.4084 25.6643H15.2249C16.5608 25.6643 17.428 24.715 17.428 23.215V20.2619ZM15.7522 20.2619V23.1682C15.7522 23.6955 15.4358 24.0002 14.8967 24.0002H10.7249C10.1858 24.0002 9.88111 23.6955 9.88111 23.1682V20.2619C9.88111 19.6526 9.95142 19.3479 10.3499 18.9611L12.553 16.758C12.7288 16.5705 12.9045 16.5822 13.0803 16.758L15.2834 18.9611C15.6702 19.3479 15.7522 19.6526 15.7522 20.2619Z" fill="black" fill-opacity="0.85"/>
</g>
<defs>
<clipPath id="clip0_2207_20559">
<rect width="25.6172" height="25.6289" fill="white" transform="translate(0.00219727 0.0588379)"/>
</clipPath>
</defs>
</svg>
