<svg width="21" height="30" viewBox="0 0 21 30" fill="none" xmlns="http://www.w3.org/2000/svg">
<g clip-path="url(#clip0_2207_4976)">
<path d="M8.14209 26.6955C13.0171 26.6955 16.2632 23.5197 16.2632 18.7619C16.2632 16.4182 15.3491 14.0861 14.6577 12.5276C13.4038 9.70337 11.4351 6.5979 9.72412 3.94946C9.31397 3.32837 8.8335 2.96509 8.14209 2.96509C7.45069 2.96509 6.97022 3.32837 6.56006 3.94946C4.84912 6.5979 2.88038 9.70337 1.62647 12.5276C0.946777 14.0861 0.0209961 16.4182 0.0209961 18.7619C0.0209961 23.5197 3.26709 26.6955 8.14209 26.6955ZM8.14209 24.7736C4.41553 24.7736 1.94288 22.3713 1.94288 18.7619C1.94288 16.84 2.68116 14.9768 3.33741 13.4533C4.64991 10.3713 6.38428 7.84009 8.02491 5.36743C8.10694 5.25025 8.20069 5.25025 8.271 5.36743C9.89991 7.84009 11.646 10.3713 12.9351 13.4416C13.603 14.9768 14.353 16.84 14.353 18.7619C14.353 22.3713 11.8687 24.7736 8.14209 24.7736ZM16.4858 7.219C18.4898 7.219 20.0601 5.64868 20.0601 3.64478C20.0601 1.62915 18.4898 0.0588379 16.4858 0.0588379C14.4702 0.0588379 12.8999 1.62915 12.8999 3.64478C12.8999 5.64868 14.4702 7.219 16.4858 7.219ZM16.4858 5.56665C15.4077 5.56665 14.5522 4.7229 14.5522 3.64478C14.5522 2.55493 15.4077 1.71118 16.4858 1.71118C17.564 1.71118 18.4077 2.55493 18.4077 3.64478C18.4077 4.7229 17.564 5.56665 16.4858 5.56665Z" fill="black" fill-opacity="0.85"/>
</g>
<defs>
<clipPath id="clip0_2207_4976">
<rect width="20.0391" height="29.5664" fill="white" transform="translate(0.0209961 0.0588379)"/>
</clipPath>
</defs>
</svg>
