<svg width="25" height="23" viewBox="0 0 25 23" fill="none" xmlns="http://www.w3.org/2000/svg">
<g clip-path="url(#clip0_2207_5001)">
<path d="M3.24121 22.3244H21.4053C23.3975 22.3244 24.6045 20.9416 24.6045 19.1486C24.6045 18.5979 24.4404 18.0236 24.1475 17.508L15.0537 1.66431C14.4443 0.5979 13.4014 0.0588379 12.3232 0.0588379C11.2451 0.0588379 10.1904 0.5979 9.59277 1.66431L0.499023 17.508C0.182617 18.0354 0.0419922 18.5979 0.0419922 19.1486C0.0419922 20.9416 1.24902 22.3244 3.24121 22.3244Z" fill="black" fill-opacity="0.85"/>
<path d="M12.3232 17.9533C10.2959 17.9533 8.9248 16.6291 8.9248 14.6604C8.9248 13.6877 9.33497 12.8088 9.63966 12.1643C10.1787 10.9924 11.0693 9.55103 11.8193 8.37915C11.96 8.1565 12.124 8.05103 12.3232 8.05103C12.5342 8.05103 12.6865 8.1565 12.8272 8.37915C13.5889 9.55103 14.4795 10.9924 15.0068 12.1643C15.3115 12.8088 15.7217 13.6877 15.7217 14.6604C15.7217 16.6291 14.3623 17.9533 12.3232 17.9533Z" fill="white"/>
</g>
<defs>
<clipPath id="clip0_2207_5001">
<rect width="24.5625" height="22.3945" fill="white" transform="translate(0.0419922 0.0588379)"/>
</clipPath>
</defs>
</svg>
