<svg width="26" height="20" viewBox="0 0 26 20" fill="none" xmlns="http://www.w3.org/2000/svg">
<g clip-path="url(#clip0_2207_11951)">
<path d="M3.71533 19.0783H22.1254C24.5747 19.0783 25.7934 17.8596 25.7934 15.4455V3.71509C25.7934 1.30103 24.5747 0.0822754 22.1254 0.0822754H3.71533C1.26611 0.0822754 0.0356445 1.30103 0.0356445 3.71509V15.4455C0.0356445 17.8596 1.26611 19.0783 3.71533 19.0783Z" fill="black" fill-opacity="0.85"/>
<path d="M8.39111 14.9065C6.1997 14.9065 4.72314 13.4768 4.72314 11.3557C4.72314 10.2893 5.15673 9.36352 5.48486 8.64867C6.0708 7.39477 7.02002 5.83617 7.82861 4.57055C8.00439 4.32445 8.16845 4.21899 8.39111 4.21899C8.60205 4.21899 8.76611 4.32445 8.94189 4.57055C9.7622 5.83617 10.7114 7.39477 11.2856 8.64867C11.6137 9.36352 12.059 10.2893 12.059 11.3557C12.059 13.4768 10.5825 14.9065 8.39111 14.9065ZM15.9262 7.24242C15.1411 7.24242 14.5083 6.59789 14.5083 5.82445C14.5083 5.05102 15.1411 4.40649 15.9262 4.40649C16.6997 4.40649 17.3442 5.05102 17.3442 5.82445C17.3442 6.59789 16.6997 7.24242 15.9262 7.24242ZM20.0864 7.24242C19.3129 7.24242 18.6684 6.59789 18.6684 5.82445C18.6684 5.05102 19.3129 4.40649 20.0864 4.40649C20.8598 4.40649 21.5044 5.05102 21.5044 5.82445C21.5044 6.59789 20.8598 7.24242 20.0864 7.24242ZM15.9262 10.9807C15.1411 10.9807 14.5083 10.3361 14.5083 9.56274C14.5083 8.7893 15.1411 8.14477 15.9262 8.14477C16.6997 8.14477 17.3442 8.7893 17.3442 9.56274C17.3442 10.3361 16.6997 10.9807 15.9262 10.9807ZM20.0864 10.9807C19.3129 10.9807 18.6684 10.3361 18.6684 9.56274C18.6684 8.7893 19.3129 8.14477 20.0864 8.14477C20.8598 8.14477 21.5044 8.7893 21.5044 9.56274C21.5044 10.3361 20.8598 10.9807 20.0864 10.9807ZM15.9262 14.719C15.1411 14.719 14.5083 14.0744 14.5083 13.301C14.5083 12.5276 15.1411 11.883 15.9262 11.883C16.6997 11.883 17.3442 12.5276 17.3442 13.301C17.3442 14.0744 16.6997 14.719 15.9262 14.719ZM20.0864 14.719C19.3129 14.719 18.6684 14.0744 18.6684 13.301C18.6684 12.5276 19.3129 11.883 20.0864 11.883C20.8598 11.883 21.5044 12.5276 21.5044 13.301C21.5044 14.0744 20.8598 14.719 20.0864 14.719Z" fill="white"/>
</g>
<defs>
<clipPath id="clip0_2207_11951">
<rect width="25.7578" height="19.0195" fill="white" transform="translate(0.0356445 0.0588379)"/>
</clipPath>
</defs>
</svg>
