<svg width="24" height="24" viewBox="0 0 24 24" fill="none" xmlns="http://www.w3.org/2000/svg">
<g clip-path="url(#clip0_2207_4966)">
<path d="M11.9699 23.965C18.509 23.965 23.923 18.5393 23.923 12.0119C23.923 5.4729 18.4973 0.0588379 11.9582 0.0588379C5.43091 0.0588379 0.0168457 5.4729 0.0168457 12.0119C0.0168457 18.5393 5.44263 23.965 11.9699 23.965ZM11.9699 21.9729C6.43873 21.9729 2.02076 17.5432 2.02076 12.0119C2.02076 6.48072 6.42701 2.05103 11.9582 2.05103C17.4895 2.05103 21.9309 6.48072 21.9309 12.0119C21.9309 17.5432 17.5012 21.9729 11.9699 21.9729Z" fill="black" fill-opacity="0.85"/>
<path d="M11.9582 17.7541C14.3606 17.7541 15.9895 16.1955 15.9895 13.8635C15.9895 12.7033 15.4973 11.6721 15.1457 10.8752C14.5129 9.50415 13.4699 7.7815 12.5559 6.39868C12.3918 6.12915 12.1926 6.01196 11.9582 6.01196C11.7238 6.01196 11.5363 6.12915 11.3606 6.39868C10.4465 7.7815 9.41529 9.50415 8.77076 10.8752C8.41919 11.6721 7.92701 12.7033 7.92701 13.8635C7.92701 16.1955 9.55591 17.7541 11.9582 17.7541Z" fill="black" fill-opacity="0.85"/>
</g>
<defs>
<clipPath id="clip0_2207_4966">
<rect width="23.9062" height="23.918" fill="white" transform="translate(0.0168457 0.0588379)"/>
</clipPath>
</defs>
</svg>
