<svg width="24" height="30" viewBox="0 0 24 30" fill="none" xmlns="http://www.w3.org/2000/svg">
<g clip-path="url(#clip0_2207_12253)">
<path d="M0.050415 8.4906H20.3824V5.38513C20.3824 3.69763 19.2926 2.58435 17.6754 2.58435H2.76917C1.14026 2.58435 0.050415 3.69763 0.050415 5.38513V8.4906ZM4.2926 7.27185C3.70667 7.27185 3.2262 6.77966 3.2262 6.20544C3.2262 5.60779 3.70667 5.13904 4.2926 5.13904C4.87853 5.13904 5.34729 5.60779 5.34729 6.20544C5.34729 6.77966 4.87853 7.27185 4.2926 7.27185ZM7.37464 7.27185C6.7887 7.27185 6.31994 6.77966 6.31994 6.20544C6.31994 5.60779 6.7887 5.13904 7.37464 5.13904C7.96058 5.13904 8.42933 5.60779 8.42933 6.20544C8.42933 6.77966 7.96058 7.27185 7.37464 7.27185ZM13.691 6.81482C13.3277 6.81482 13.0934 6.56872 13.0934 6.20544C13.0934 5.84216 13.3277 5.58435 13.691 5.58435H16.5738C16.9488 5.58435 17.1832 5.84216 17.1832 6.20544C17.1832 6.56872 16.9488 6.81482 16.5738 6.81482H13.691ZM2.76917 27.1938H17.6754C19.2926 27.1938 20.3824 26.0805 20.3824 24.393V10.0844H0.050415V24.393C0.050415 26.0805 1.14026 27.1938 2.76917 27.1938ZM5.67542 23.7602C4.74964 23.7602 4.11683 23.1274 4.11683 22.1899V14.2797C4.11683 13.3422 4.74964 12.7094 5.67542 12.7094H14.7574C15.6832 12.7094 16.3277 13.3422 16.3277 14.2797V22.1899C16.3277 23.1274 15.6832 23.7602 14.7574 23.7602H5.67542ZM5.88635 22.4594H14.5465C14.8277 22.4594 15.0152 22.2719 15.0152 21.9789V14.4906C15.0152 14.1977 14.8277 14.0102 14.5465 14.0102H5.88635C5.6051 14.0102 5.4176 14.1977 5.4176 14.4906V21.9789C5.4176 22.2719 5.6051 22.4594 5.88635 22.4594Z" fill="black" fill-opacity="0.85"/>
<path d="M12.6481 29.35C13.6793 30.0297 15.1793 29.8188 15.9059 28.5649C16.3512 27.768 16.6324 26.7836 16.6324 25.811C16.6324 22.4594 14.6754 21.2406 14.6754 20.1156C14.6754 19.8695 14.6871 19.8227 14.8629 19.5297C15.4957 18.4399 15.0973 17.1274 14.1129 16.5414C13.0934 15.8852 11.652 16.1547 10.9606 17.3383C10.4566 18.1703 10.2106 19.1899 10.2106 20.1156C10.2106 23.432 12.1559 24.6508 12.1559 25.811C12.1559 26.0102 12.0856 26.1742 11.9684 26.3969C11.3473 27.4633 11.7574 28.7289 12.6481 29.35ZM16.0582 29.35C17.1129 30.0414 18.6012 29.7719 19.2809 28.5531C19.7496 27.7328 20.0192 26.7719 20.0192 25.811C20.0192 22.4477 18.0621 21.2289 18.0621 20.1039C18.0621 19.8578 18.0738 19.811 18.2613 19.5063C18.8824 18.4164 18.4723 17.1039 17.4762 16.5297C16.4566 15.8852 15.0152 16.1664 14.3238 17.3383C13.8434 18.1703 13.5973 19.1664 13.5973 20.1039C13.5973 23.432 15.5426 24.6391 15.5426 25.811C15.5426 26.057 15.5309 26.0922 15.3668 26.3852C14.734 27.475 15.1442 28.7406 16.0582 29.35ZM19.4332 29.3383C20.4996 30.0297 21.9879 29.7602 22.6676 28.5414C23.1363 27.7211 23.4059 26.7602 23.4059 25.7992C23.4059 22.436 21.4488 21.2172 21.4488 20.0922C21.4488 19.8461 21.4606 19.7992 21.6481 19.4945C22.2692 18.4047 21.859 17.0922 20.8629 16.518C19.8434 15.8735 18.402 16.1547 17.7106 17.3266C17.2301 18.1586 16.984 19.1547 16.984 20.0922C16.984 23.4203 18.9293 24.6274 18.9293 25.7992C18.9293 26.0453 18.9176 26.0805 18.7535 26.3735C18.1207 27.4633 18.5309 28.7289 19.4332 29.3383Z" fill="white"/>
<path d="M13.445 28.1547C13.7849 28.3891 14.3474 28.3774 14.6638 27.8617C15.0036 27.2406 15.2028 26.5141 15.2028 25.811C15.2028 23.2563 13.2458 22.0024 13.2458 20.1156C13.2458 19.6352 13.3396 19.2953 13.6325 18.8031C13.8669 18.393 13.6794 17.9594 13.363 17.7602C13.0114 17.5375 12.4724 17.5727 12.1911 18.0649C11.8161 18.6742 11.6403 19.4008 11.6403 20.1156C11.6403 22.6235 13.5857 23.8774 13.5857 25.811C13.5857 26.2914 13.5036 26.6078 13.2107 27.1117C12.9646 27.5336 13.1755 27.9672 13.445 28.1547ZM16.8317 28.143C17.2067 28.3891 17.7575 28.3539 18.0388 27.85C18.3903 27.2289 18.5896 26.5141 18.5896 25.811C18.5896 23.2445 16.6325 21.9906 16.6325 20.1039C16.6325 19.6352 16.7263 19.2953 17.0075 18.7914C17.2536 18.3813 17.0544 17.9594 16.738 17.7602C16.3864 17.5492 15.8474 17.5727 15.5661 18.0531C15.2028 18.6742 15.0271 19.3891 15.0271 20.1039C15.0271 22.6235 16.9724 23.8656 16.9724 25.811C16.9724 26.2797 16.8903 26.5961 16.5974 27.1C16.3513 27.5336 16.5505 27.9555 16.8317 28.143ZM20.2185 28.1313C20.5935 28.3774 21.1443 28.3422 21.4255 27.8383C21.7771 27.2172 21.9763 26.5024 21.9763 25.7992C21.9763 23.2328 20.0193 21.9789 20.0193 20.0922C20.0193 19.6235 20.113 19.2836 20.3943 18.7797C20.6403 18.3695 20.4411 17.9477 20.1247 17.7485C19.7732 17.5375 19.2341 17.561 18.9528 18.0414C18.5896 18.6625 18.4138 19.3774 18.4138 20.0922C18.4138 22.6117 20.3591 23.8539 20.3591 25.7992C20.3591 26.268 20.2771 26.5844 19.9841 27.0883C19.738 27.5219 19.9372 27.9438 20.2185 28.1313Z" fill="black" fill-opacity="0.85"/>
</g>
<defs>
<clipPath id="clip0_2207_12253">
<rect width="23.3555" height="29.6721" fill="white" transform="translate(0.050415 0.0588379)"/>
</clipPath>
</defs>
</svg>
