<svg width="24" height="24" viewBox="0 0 24 24" fill="none" xmlns="http://www.w3.org/2000/svg">
<g clip-path="url(#clip0_2207_24911)">
<path d="M12.0119 23.965C18.551 23.965 23.965 18.5393 23.965 12.0119C23.965 5.4729 18.5393 0.0588379 12.0002 0.0588379C5.4729 0.0588379 0.0588379 5.4729 0.0588379 12.0119C0.0588379 18.5393 5.48462 23.965 12.0119 23.965Z" fill="black" fill-opacity="0.85"/>
<path d="M9.23462 17.4026C8.60181 17.4026 8.27368 16.969 8.27368 16.3127V7.48853C8.27368 6.83228 8.60181 6.39868 9.23462 6.39868H14.9533C15.4104 6.39868 15.7502 6.67993 15.7502 7.18384C15.7502 7.66431 15.4104 7.98072 14.9533 7.98072H10.219V11.0627H14.6369C15.094 11.0627 15.4338 11.3322 15.4338 11.8361C15.4338 12.3049 15.094 12.5744 14.6369 12.5744H10.219V15.8205H14.9533C15.4104 15.8205 15.7502 16.1135 15.7502 16.6174C15.7502 17.0979 15.4104 17.4026 14.9533 17.4026H9.23462Z" fill="white"/>
</g>
<defs>
<clipPath id="clip0_2207_24911">
<rect width="23.9062" height="23.918" fill="white" transform="translate(0.0588379 0.0588379)"/>
</clipPath>
</defs>
</svg>
