<svg width="22" height="22" viewBox="0 0 22 22" fill="none" xmlns="http://www.w3.org/2000/svg">
<g clip-path="url(#clip0_2207_24916)">
<path d="M3.74073 21.6565H17.9555C20.4165 21.6565 21.6352 20.4377 21.6352 18.0236V3.71509C21.6352 1.30103 20.4165 0.0822754 17.9555 0.0822754H3.74073C1.29151 0.0822754 0.0610352 1.28931 0.0610352 3.71509V18.0236C0.0610352 20.4494 1.29151 21.6565 3.74073 21.6565ZM3.76416 19.7697C2.59229 19.7697 1.94776 19.1486 1.94776 17.9299V3.80884C1.94776 2.59009 2.59229 1.969 3.76416 1.969H17.9321C19.0922 1.969 19.7485 2.59009 19.7485 3.80884V17.9299C19.7485 19.1486 19.0922 19.7697 17.9321 19.7697H3.76416Z" fill="black" fill-opacity="0.85"/>
<path d="M8.1587 16.0783H13.7016C14.1587 16.0783 14.4751 15.7854 14.4751 15.3166C14.4751 14.8361 14.1587 14.5432 13.7016 14.5432H9.10792V11.3908H13.3969C13.854 11.3908 14.1704 11.133 14.1704 10.676C14.1704 10.1955 13.854 9.92603 13.3969 9.92603H9.10792V6.93775H13.7016C14.1587 6.93775 14.4751 6.63306 14.4751 6.16431C14.4751 5.68384 14.1587 5.40259 13.7016 5.40259H8.1587C7.54932 5.40259 7.24463 5.82446 7.24463 6.45728V15.0236C7.24463 15.6565 7.54932 16.0783 8.1587 16.0783Z" fill="black" fill-opacity="0.85"/>
</g>
<defs>
<clipPath id="clip0_2207_24916">
<rect width="21.5742" height="21.5977" fill="white" transform="translate(0.0610352 0.0588379)"/>
</clipPath>
</defs>
</svg>
