<svg width="24" height="24" viewBox="0 0 24 24" fill="none" xmlns="http://www.w3.org/2000/svg">
<g clip-path="url(#clip0_2207_3512)">
<path d="M12.0412 23.965C18.5803 23.965 23.9943 18.5393 23.9943 12.0119C23.9943 5.4729 18.5686 0.0588379 12.0295 0.0588379C5.50219 0.0588379 0.0881348 5.4729 0.0881348 12.0119C0.0881348 18.5393 5.51392 23.965 12.0412 23.965Z" fill="black" fill-opacity="0.85"/>
<path d="M7.3186 17.0158C6.5686 17.0158 6.13501 16.6174 6.13501 15.8791V15.1174C6.13501 14.3791 6.5686 13.9807 7.3186 13.9807H16.7639C17.5139 13.9807 17.9475 14.3791 17.9475 15.1174V15.8791C17.9475 16.6174 17.5139 17.0158 16.7639 17.0158H7.3186ZM7.02563 12.4572C6.52172 12.4572 6.28735 12.1994 6.25219 11.7541C6.24047 11.5432 6.33422 11.3322 6.52172 11.1447L11.2795 5.9065C11.467 5.69556 11.7365 5.51978 12.0412 5.51978C12.3459 5.51978 12.6037 5.6604 12.8029 5.9065L17.549 11.1447C17.7248 11.344 17.8303 11.5432 17.8303 11.7541C17.8303 12.1994 17.5373 12.4572 17.0451 12.4572H7.02563Z" fill="white"/>
</g>
<defs>
<clipPath id="clip0_2207_3512">
<rect width="23.9062" height="23.918" fill="white" transform="translate(0.0881348 0.0588379)"/>
</clipPath>
</defs>
</svg>
