<svg width="23" height="24" viewBox="0 0 23 24" fill="none" xmlns="http://www.w3.org/2000/svg">
<g clip-path="url(#clip0_2207_18941)">
<path d="M0.954346 7.53662C1.57544 7.53662 1.90357 7.18506 1.90357 6.57568V3.81006C1.90357 2.59131 2.5481 1.97022 3.71997 1.97022H6.55591C7.17701 1.97022 7.51685 1.63037 7.51685 1.021C7.51685 0.411621 7.17701 0.0834961 6.55591 0.0834961H3.69654C1.24732 0.0834961 0.0168457 1.29053 0.0168457 3.70459V6.57568C0.0168457 7.18506 0.35669 7.53662 0.954346 7.53662ZM22.0129 7.53662C22.634 7.53662 22.9621 7.18506 22.9621 6.57568V3.70459C22.9621 1.29053 21.7316 0.0834961 19.2824 0.0834961H16.4113C15.802 0.0834961 15.4621 0.411621 15.4621 1.021C15.4621 1.63037 15.802 1.97022 16.4113 1.97022H19.2473C20.4074 1.97022 21.0754 2.59131 21.0754 3.81006V6.57568C21.0754 7.18506 21.4152 7.53662 22.0129 7.53662ZM3.69654 23.0171H6.55591C7.17701 23.0171 7.51685 22.6773 7.51685 22.0796C7.51685 21.4703 7.17701 21.1304 6.55591 21.1304H3.71997C2.5481 21.1304 1.90357 20.5093 1.90357 19.2906V16.5249C1.90357 15.9039 1.56373 15.564 0.954346 15.564C0.344971 15.564 0.0168457 15.9039 0.0168457 16.5249V19.3843C0.0168457 21.8101 1.24732 23.0171 3.69654 23.0171ZM16.4113 23.0171H19.2824C21.7316 23.0171 22.9621 21.7984 22.9621 19.3843V16.5249C22.9621 15.9039 22.6223 15.564 22.0129 15.564C21.4035 15.564 21.0754 15.9039 21.0754 16.5249V19.2906C21.0754 20.5093 20.4074 21.1304 19.2473 21.1304H16.4113C15.802 21.1304 15.4621 21.4703 15.4621 22.0796C15.4621 22.6773 15.802 23.0171 16.4113 23.0171Z" fill="black" fill-opacity="0.85"/>
<path d="M16.9621 13.2437C17.8996 13.2437 18.6613 12.482 18.6613 11.5445C18.6613 10.607 17.8996 9.84521 16.9621 9.84521C16.0246 9.84521 15.2629 10.607 15.2629 11.5445C15.2629 12.482 16.0246 13.2437 16.9621 13.2437Z" fill="black" fill-opacity="0.85"/>
<path d="M11.5012 13.2437C12.427 13.2437 13.1887 12.482 13.1887 11.5445C13.1887 10.607 12.427 9.84521 11.5012 9.84521C10.5637 9.84521 9.80201 10.607 9.80201 11.5445C9.80201 12.482 10.5637 13.2437 11.5012 13.2437Z" fill="black" fill-opacity="0.85"/>
<path d="M6.02857 13.2437C6.96607 13.2437 7.72779 12.482 7.72779 11.5445C7.72779 10.607 6.95435 9.84521 6.02857 9.84521C5.09107 9.84521 4.32935 10.607 4.32935 11.5445C4.32935 12.482 5.09107 13.2437 6.02857 13.2437Z" fill="black" fill-opacity="0.85"/>
</g>
<defs>
<clipPath id="clip0_2207_18941">
<rect width="22.9453" height="22.957" fill="white" transform="translate(0.0168457 0.0600586)"/>
</clipPath>
</defs>
</svg>
