<svg width="26" height="26" viewBox="0 0 26 26" fill="none" xmlns="http://www.w3.org/2000/svg">
<g clip-path="url(#clip0_2207_9265)">
<path d="M7.05762 25.9455C7.51465 25.9455 7.85449 25.7111 8.40527 25.1955L12.6358 21.3283H20.5576C24.0498 21.3283 25.9248 19.4065 25.9248 15.9729V6.99634C25.9248 3.56275 24.0498 1.62915 20.5576 1.62915H5.46387C1.97168 1.62915 0.0966797 3.55103 0.0966797 6.99634V15.9729C0.0966797 19.4182 1.97168 21.3283 5.46387 21.3283H6.01465V24.7385C6.01465 25.465 6.38965 25.9455 7.05762 25.9455Z" fill="black" fill-opacity="0.85"/>
<path d="M18.9405 13.2072C17.9795 13.2072 17.2061 12.4338 17.2061 11.4729C17.2061 10.5119 17.9795 9.73853 18.9405 9.73853C19.9014 9.73853 20.6748 10.5119 20.6748 11.4729C20.6748 12.4338 19.9014 13.2072 18.9405 13.2072Z" fill="white"/>
<path d="M13.0225 13.2072C12.0615 13.2072 11.2764 12.4338 11.2764 11.4729C11.2764 10.5119 12.0615 9.73853 13.0225 9.73853C13.9717 9.73853 14.7569 10.5119 14.7569 11.4729C14.7569 12.4338 13.9717 13.2072 13.0225 13.2072Z" fill="white"/>
<path d="M7.09277 13.2072C6.14356 13.2072 5.3584 12.4338 5.3584 11.4729C5.3584 10.5119 6.14356 9.73853 7.09277 9.73853C8.05371 9.73853 8.82715 10.5119 8.82715 11.4729C8.82715 12.4338 8.05371 13.2072 7.09277 13.2072Z" fill="white"/>
</g>
<defs>
<clipPath id="clip0_2207_9265">
<rect width="25.8281" height="25.8867" fill="white" transform="translate(0.0966797 0.0588379)"/>
</clipPath>
</defs>
</svg>
