<svg width="24" height="24" viewBox="0 0 24 24" fill="none" xmlns="http://www.w3.org/2000/svg">
<g clip-path="url(#clip0_2207_9967)">
<path d="M11.9531 23.9663C18.4922 23.9663 23.9062 18.5406 23.9062 12.0132C23.9062 5.47412 18.4805 0.0600586 11.9414 0.0600586C5.41406 0.0600586 0 5.47412 0 12.0132C0 18.5406 5.42578 23.9663 11.9531 23.9663Z" fill="black" fill-opacity="0.85"/>
<path d="M17.6016 13.7593C16.6289 13.7593 15.8438 12.9742 15.8438 12.0015C15.8438 11.0289 16.6289 10.2437 17.6016 10.2437C18.5508 10.2437 19.3477 11.0289 19.3477 12.0015C19.3477 12.9742 18.5508 13.7593 17.6016 13.7593Z" fill="white"/>
<path d="M11.9531 13.7593C10.9805 13.7593 10.1953 12.9742 10.1953 12.0015C10.1953 11.0289 10.9805 10.2437 11.9531 10.2437C12.9258 10.2437 13.7109 11.0289 13.7109 12.0015C13.7109 12.9742 12.9258 13.7593 11.9531 13.7593Z" fill="white"/>
<path d="M6.31641 13.7593C5.35547 13.7593 4.55859 12.9742 4.55859 12.0015C4.55859 11.0289 5.35547 10.2437 6.31641 10.2437C7.26562 10.2437 8.0625 11.0289 8.0625 12.0015C8.0625 12.9742 7.27734 13.7593 6.31641 13.7593Z" fill="white"/>
</g>
<defs>
<clipPath id="clip0_2207_9967">
<rect width="23.9062" height="23.918" fill="white" transform="translate(0 0.0600586)"/>
</clipPath>
</defs>
</svg>
