<svg width="25" height="24" viewBox="0 0 25 24" fill="none" xmlns="http://www.w3.org/2000/svg">
<g clip-path="url(#clip0_2207_9960)">
<path d="M12.0517 23.965C18.5908 23.965 24.0048 18.5393 24.0048 12.0119C24.0048 5.4729 18.5791 0.0588379 12.04 0.0588379C5.51269 0.0588379 0.0986328 5.4729 0.0986328 12.0119C0.0986328 18.5393 5.52441 23.965 12.0517 23.965ZM12.0517 21.9729C6.52051 21.9729 2.10254 17.5432 2.10254 12.0119C2.10254 6.48072 6.50879 2.05103 12.04 2.05103C17.5713 2.05103 22.0127 6.48072 22.0127 12.0119C22.0127 17.5432 17.583 21.9729 12.0517 21.9729Z" fill="black" fill-opacity="0.85"/>
<path d="M17.5128 13.6994C18.4385 13.6994 19.212 12.9377 19.212 12.0002C19.212 11.0627 18.4385 10.301 17.5128 10.301C16.5753 10.301 15.8135 11.0627 15.8135 12.0002C15.8135 12.9377 16.5753 13.6994 17.5128 13.6994Z" fill="black" fill-opacity="0.85"/>
<path d="M12.04 13.6994C12.9775 13.6994 13.7392 12.9377 13.7392 12.0002C13.7392 11.0627 12.9775 10.301 12.04 10.301C11.1025 10.301 10.3408 11.0627 10.3408 12.0002C10.3408 12.9377 11.1025 13.6994 12.04 13.6994Z" fill="black" fill-opacity="0.85"/>
<path d="M6.5791 13.6994C7.50488 13.6994 8.2666 12.9377 8.2666 12.0002C8.2666 11.0627 7.49316 10.301 6.5791 10.301C5.6416 10.301 4.87988 11.0627 4.87988 12.0002C4.87988 12.9377 5.6416 13.6994 6.5791 13.6994Z" fill="black" fill-opacity="0.85"/>
</g>
<defs>
<clipPath id="clip0_2207_9960">
<rect width="23.9062" height="23.918" fill="white" transform="translate(0.0986328 0.0588379)"/>
</clipPath>
</defs>
</svg>
