<svg width="26" height="17" viewBox="0 0 26 17" fill="none" xmlns="http://www.w3.org/2000/svg">
<g clip-path="url(#clip0_2207_9974)">
<path d="M0.00830078 13.0913C0.00830078 15.3062 1.22705 16.4781 3.43018 16.4781H21.9575C24.1724 16.4781 25.3911 15.3062 25.3911 13.0913V3.42334C25.3911 1.22022 24.1724 0.0600586 21.9575 0.0600586H3.43018C1.22705 0.0600586 0.00830078 1.22022 0.00830078 3.42334V13.0913ZM1.89502 13.1851V3.32959C1.89502 2.35694 2.4458 1.80615 3.41846 1.80615H21.981C22.9536 1.80615 23.5044 2.35694 23.5044 3.32959V13.1851C23.5044 14.1578 22.9536 14.7085 21.981 14.7085H3.41846C2.4458 14.7085 1.89502 14.1578 1.89502 13.1851Z" fill="black" fill-opacity="0.85"/>
<path d="M18.1841 9.95068C19.1099 9.95068 19.8833 9.18897 19.8833 8.25147C19.8833 7.31397 19.1099 6.55225 18.1841 6.55225C17.2466 6.55225 16.4849 7.31397 16.4849 8.25147C16.4849 9.18897 17.2466 9.95068 18.1841 9.95068Z" fill="black" fill-opacity="0.85"/>
<path d="M12.7114 9.95068C13.6489 9.95068 14.4106 9.18897 14.4106 8.25147C14.4106 7.31397 13.6489 6.55225 12.7114 6.55225C11.7739 6.55225 11.0122 7.31397 11.0122 8.25147C11.0122 9.18897 11.7739 9.95068 12.7114 9.95068Z" fill="black" fill-opacity="0.85"/>
<path d="M7.25049 9.95068C8.17627 9.95068 8.93799 9.18897 8.93799 8.25147C8.93799 7.31397 8.16455 6.55225 7.25049 6.55225C6.31299 6.55225 5.55127 7.31397 5.55127 8.25147C5.55127 9.18897 6.31299 9.95068 7.25049 9.95068Z" fill="black" fill-opacity="0.85"/>
</g>
<defs>
<clipPath id="clip0_2207_9974">
<rect width="25.3828" height="16.418" fill="white" transform="translate(0.00830078 0.0600586)"/>
</clipPath>
</defs>
</svg>
