<svg width="26" height="26" viewBox="0 0 26 26" fill="none" xmlns="http://www.w3.org/2000/svg">
<g clip-path="url(#clip0_2207_9272)">
<path d="M7.21973 25.8062C7.79395 25.8062 8.19239 25.5015 8.90723 24.8687L12.9502 21.271H20.4736C23.9658 21.271 25.8408 19.3374 25.8408 15.9039V6.92725C25.8408 3.49365 23.9658 1.56006 20.4736 1.56006H5.37989C1.8877 1.56006 0.0126953 3.48194 0.0126953 6.92725V15.9039C0.0126953 19.3492 1.8877 21.271 5.37989 21.271H5.94239V24.3179C5.94239 25.2203 6.39942 25.8062 7.21973 25.8062ZM7.7002 23.6617V20.2632C7.7002 19.6304 7.45411 19.3843 6.82129 19.3843H5.37989C3.0127 19.3843 1.89942 18.1773 1.89942 15.8921V6.92725C1.89942 4.64209 3.0127 3.44678 5.37989 3.44678H20.4736C22.8291 3.44678 23.9541 4.64209 23.9541 6.92725V15.8921C23.9541 18.1773 22.8291 19.3843 20.4736 19.3843H12.8799C12.2236 19.3843 11.8955 19.4781 11.4502 19.9351L7.7002 23.6617Z" fill="black" fill-opacity="0.85"/>
<path d="M12.9385 8.18115C13.8291 8.18115 14.5439 7.45459 14.5439 6.57568C14.5439 5.68506 13.8291 4.9585 12.9385 4.9585C12.0479 4.9585 11.333 5.68506 11.333 6.57568C11.333 7.45459 12.0479 8.18115 12.9385 8.18115Z" fill="black" fill-opacity="0.85"/>
<path d="M12.9385 13.021C13.8291 13.021 14.5439 12.3062 14.5439 11.4156C14.5439 10.5249 13.8291 9.81006 12.9385 9.81006C12.0479 9.81006 11.333 10.5249 11.333 11.4156C11.333 12.3062 12.0479 13.021 12.9385 13.021Z" fill="black" fill-opacity="0.85"/>
<path d="M12.9385 17.8608C13.8291 17.8608 14.5439 17.1459 14.5439 16.2553C14.5439 15.3647 13.8291 14.6498 12.9385 14.6498C12.0479 14.6498 11.333 15.3647 11.333 16.2553C11.333 17.1459 12.0479 17.8608 12.9385 17.8608Z" fill="black" fill-opacity="0.85"/>
</g>
<defs>
<clipPath id="clip0_2207_9272">
<rect width="25.8281" height="25.7461" fill="white" transform="translate(0.0126953 0.0600586)"/>
</clipPath>
</defs>
</svg>
