<svg width="34" height="22" viewBox="0 0 34 22" fill="none" xmlns="http://www.w3.org/2000/svg">
<g clip-path="url(#clip0_2207_15622)">
<path d="M12.7571 21.3882H24.1711C25.718 21.3882 26.6438 20.5093 26.6438 18.9742V16.8413C26.6438 16.7828 26.679 16.7593 26.7258 16.7593H28.1204C28.179 16.7593 28.2024 16.7828 28.2024 16.8413V18.1539C28.2024 19.4781 29.0813 20.2867 30.511 20.2867H31.4836C32.9016 20.2867 33.7805 19.4898 33.7805 18.1539V9.69287C33.7805 8.35694 32.9016 7.56006 31.4836 7.56006H30.511C29.0813 7.56006 28.2024 8.36865 28.2024 9.69287V10.7828C28.2024 10.8296 28.179 10.8648 28.1204 10.8648H26.7258C26.679 10.8648 26.6438 10.8296 26.6438 10.7828V8.79053C26.6438 7.3374 25.7415 6.4585 24.2415 6.4585H23.3157L21.3469 4.31397C20.8899 3.81006 20.4211 3.61084 19.8469 3.61084H10.7415C10.1555 3.61084 9.68677 3.8335 9.22974 4.31397L7.26099 6.4585H5.97192C4.49536 6.4585 3.5813 7.3374 3.5813 8.79053V16.1851C3.5813 17.6499 4.48364 18.5289 5.97192 18.5289H9.27661L11.2571 20.6851C11.7141 21.1773 12.136 21.3882 12.7571 21.3882ZM13.0032 19.5015C12.7688 19.5015 12.6985 19.4663 12.5461 19.314L10.0969 16.6421H5.98364C5.65552 16.6421 5.46802 16.4546 5.46802 16.1031V8.88428C5.46802 8.53272 5.65552 8.34522 5.98364 8.34522H8.10474L10.5305 5.7085C10.6829 5.53272 10.7649 5.49756 10.9641 5.49756H19.6126C19.8235 5.49756 19.9172 5.53272 20.0579 5.7085L22.4954 8.34522H24.2297C24.5579 8.34522 24.7571 8.54444 24.7571 8.88428V12.2476C24.7571 12.564 24.9446 12.7515 25.2493 12.7515H29.6086C29.9133 12.7515 30.1008 12.564 30.1008 12.2476V9.7749C30.1008 9.56397 30.2415 9.44678 30.5344 9.44678H31.4719C31.7532 9.44678 31.8938 9.57568 31.8938 9.7749V18.0601C31.8938 18.271 31.7532 18.3999 31.4719 18.3999H30.5344C30.2415 18.3999 30.1008 18.2828 30.1008 18.0601V15.3648C30.1008 15.0484 29.9133 14.8609 29.6086 14.8609H25.2493C24.9446 14.8609 24.7571 15.0484 24.7571 15.3648V18.9039C24.7571 19.2906 24.5579 19.5015 24.1594 19.5015H13.0032ZM0.956299 17.1343C1.48364 17.1343 1.90552 16.689 1.90552 16.1851V13.4429H4.40161V11.5562H1.90552V8.80225C1.90552 8.28662 1.47192 7.86475 0.956299 7.86475C0.440674 7.86475 0.0187988 8.29834 0.0187988 8.80225V16.1851C0.0187988 16.7007 0.452393 17.1343 0.956299 17.1343ZM15.2532 4.79444H17.1516V1.94678H20.8313C21.3469 1.94678 21.7688 1.50147 21.7688 0.997559C21.7688 0.481934 21.3469 0.0600586 20.8313 0.0600586H11.55C11.0344 0.0600586 10.6126 0.493653 10.6126 1.00928C10.6126 1.5249 11.0461 1.94678 11.55 1.94678H15.2532V4.79444Z" fill="black" fill-opacity="0.85"/>
</g>
<defs>
<clipPath id="clip0_2207_15622">
<rect width="33.7617" height="21.3398" fill="white" transform="translate(0.0187988 0.0600586)"/>
</clipPath>
</defs>
</svg>
