<svg width="29" height="21" viewBox="0 0 29 21" fill="none" xmlns="http://www.w3.org/2000/svg">
<g clip-path="url(#clip0_2207_9718)">
<path d="M3.71533 20.2749H24.9848C27.0825 20.2749 28.3129 19.0562 28.3129 16.6421V3.70459C28.3129 1.29053 27.0708 0.0717773 24.6333 0.0717773H3.36376C1.26611 0.0717773 0.0356445 1.29053 0.0356445 3.70459V16.6421C0.0356445 19.0562 1.27783 20.2749 3.71533 20.2749ZM3.64502 18.482C2.48486 18.482 1.82861 17.8374 1.82861 16.6304V3.69287C1.82861 2.49756 2.48486 1.86475 3.64502 1.86475H24.6918C25.852 1.86475 26.52 2.49756 26.52 3.70459V16.6421C26.52 17.8374 25.852 18.482 24.6918 18.482H3.64502ZM14.1684 13.2554C14.9184 13.2554 15.645 12.9742 16.3129 12.3648L27.3403 2.43897L26.1215 1.2085L15.2934 10.9703C14.9301 11.2984 14.5551 11.4507 14.1684 11.4507C13.7817 11.4507 13.4067 11.2984 13.0434 10.9703L2.21533 1.2085L0.996583 2.43897L12.0239 12.3648C12.6918 12.9742 13.4184 13.2554 14.1684 13.2554ZM2.39111 18.7749L10.7114 10.4429L9.49267 9.22412L1.17236 17.5445L2.39111 18.7749ZM25.9692 18.7867L27.1879 17.5562L18.8559 9.22412L17.6254 10.4429L25.9692 18.7867Z" fill="black" fill-opacity="0.85"/>
</g>
<defs>
<clipPath id="clip0_2207_9718">
<rect width="28.2773" height="20.2148" fill="white" transform="translate(0.0356445 0.0600586)"/>
</clipPath>
</defs>
</svg>
