<svg width="29" height="21" viewBox="0 0 29 21" fill="none" xmlns="http://www.w3.org/2000/svg">
<g clip-path="url(#clip0_2207_9722)">
<path d="M14.1916 11.4742C14.5783 11.4742 14.9533 11.3218 15.3166 10.9937L27.0236 0.681153C26.3908 0.259278 25.6643 0.0717773 24.6565 0.0717773H3.73853C2.73072 0.0717773 2.00415 0.259278 1.35962 0.681153L13.0666 10.9937C13.4416 11.3218 13.8166 11.4742 14.1916 11.4742ZM0.363526 18.3765L9.0354 9.71631L0.340088 2.05225C0.211182 2.29834 0.0588379 2.896 0.0588379 3.70459V16.6421C0.0588379 17.3921 0.176026 17.9312 0.363526 18.3765ZM3.38696 20.2749H25.008C25.8635 20.2749 26.5315 20.064 26.9768 19.7593L18.0588 10.8413L16.3479 12.3648C15.6682 12.9624 14.9299 13.2671 14.1916 13.2671C13.465 13.2671 12.7268 12.9624 12.0471 12.3648L10.3361 10.8413L1.41822 19.7593C1.86353 20.064 2.51978 20.2749 3.38696 20.2749ZM28.0315 18.3765C28.2072 17.9312 28.3361 17.3921 28.3361 16.6421V3.70459C28.3361 2.896 28.1838 2.29834 28.0549 2.05225L19.3596 9.71631L28.0315 18.3765Z" fill="black" fill-opacity="0.85"/>
</g>
<defs>
<clipPath id="clip0_2207_9722">
<rect width="28.2773" height="20.2148" fill="white" transform="translate(0.0588379 0.0600586)"/>
</clipPath>
</defs>
</svg>
