<svg width="24" height="24" viewBox="0 0 24 24" fill="none" xmlns="http://www.w3.org/2000/svg">
<g clip-path="url(#clip0_2207_125)">
<path d="M1.43823 17.5506L5.97339 22.074C7.74292 23.8318 9.72339 23.9021 11.3874 22.2381L22.6843 10.9295C23.7273 9.89817 23.7155 8.40989 22.6491 7.34348L16.1687 0.874731C15.1023 -0.191675 13.6257 -0.215113 12.5827 0.827856L1.28589 12.1248C-0.378175 13.8006 -0.319582 15.781 1.43823 17.5506ZM2.77417 16.2146C1.87183 15.3006 1.82495 14.2576 2.68042 13.3904L13.8366 2.23411C14.1413 1.92942 14.5632 1.92942 14.8562 2.22239L21.3015 8.6677C21.5944 8.96067 21.5827 9.37083 21.2898 9.6638L10.1218 20.8318C9.26636 21.699 8.22339 21.6521 7.30933 20.7381L2.77417 16.2146ZM3.14917 11.5506L11.9616 20.3748L13.1335 19.2029L4.34448 10.4138L3.14917 11.5506Z" fill="black" fill-opacity="0.85"/>
</g>
<defs>
<clipPath id="clip0_2207_125">
<rect width="23.3802" height="23.5786" fill="white" transform="translate(0.0776367 0.0600586)"/>
</clipPath>
</defs>
</svg>
