<svg width="32" height="27" viewBox="0 0 32 27" fill="none" xmlns="http://www.w3.org/2000/svg">
<g clip-path="url(#clip0_2207_140)">
<path d="M11.5527 24.3648H21.7246C22.2402 24.3648 22.6738 23.9429 22.6738 23.4273C22.6738 22.9117 22.2402 22.4781 21.7246 22.4781H11.5527C11.0371 22.4781 10.6035 22.9117 10.6035 23.4273C10.6035 23.9429 11.0371 24.3648 11.5527 24.3648Z" fill="black" fill-opacity="0.85"/>
<path d="M25.2285 24.3648H31.0527C31.5684 24.3648 31.9902 23.9429 31.9902 23.4273C31.9902 22.9117 31.5684 22.4781 31.0527 22.4781H25.2285C24.7129 22.4781 24.2793 22.9117 24.2793 23.4273C24.2793 23.9429 24.7129 24.3648 25.2285 24.3648Z" fill="black" fill-opacity="0.85"/>
<path d="M1.90818 20.2751L6.45505 24.8102C8.86911 27.2243 11.8574 27.236 14.1309 24.9626L25.4277 13.6657C27.0918 12.0016 27.0918 9.50551 25.3926 7.80629L18.9121 1.34926C17.2129 -0.34996 14.7285 -0.373397 13.0527 1.30238L1.76755 12.5993C-0.505883 14.8727 -0.494164 17.861 1.90818 20.2751Z" fill="white"/>
<path d="M5.25981 11.5212L15.0684 21.3298L24.0098 12.3766C25.0527 11.3337 25.0293 9.85709 23.9629 8.79069L17.7988 2.60319C16.7324 1.53678 15.2441 1.52506 14.2012 2.56803L5.25981 11.5212ZM3.05668 19.279L7.29887 23.5212C9.05668 25.2673 11.0488 25.3376 12.7129 23.6735L13.9316 22.4548L4.12309 12.6462L2.89262 13.8532C1.22856 15.529 1.29887 17.5212 3.05668 19.279Z" fill="black" fill-opacity="0.85"/>
</g>
<defs>
<clipPath id="clip0_2207_140">
<rect width="31.9062" height="26.7776" fill="white" transform="translate(0.0839844 0.0600586)"/>
</clipPath>
</defs>
</svg>
