<svg width="22" height="22" viewBox="0 0 22 22" fill="none" xmlns="http://www.w3.org/2000/svg">
<g clip-path="url(#clip0_2207_21756)">
<path d="M0.090332 18.0249C0.090332 20.4507 1.3208 21.6578 3.77002 21.6578H4.5083V19.396C4.5083 18.9742 4.83642 18.646 5.27002 18.646C5.70361 18.646 6.03174 18.9742 6.03174 19.396V21.6578H8.30517V19.396C8.30517 18.9742 8.6333 18.646 9.06689 18.646C9.50049 18.646 9.82861 18.9742 9.82861 19.396V21.6578H12.102V19.396C12.102 18.9742 12.4301 18.646 12.8637 18.646C13.2973 18.646 13.6255 18.9742 13.6255 19.396V21.6578H15.8989V19.396C15.8989 18.9742 16.227 18.646 16.6606 18.646C17.0942 18.646 17.4223 18.9742 17.4223 19.396V21.6578H18.1372C20.5864 21.6578 21.8169 20.439 21.8169 18.0249V3.71631C21.8169 1.30225 20.5864 0.0834961 18.1372 0.0834961H17.4223V2.34522C17.4223 2.76709 17.0942 3.09522 16.6606 3.09522C16.227 3.09522 15.8989 2.76709 15.8989 2.34522V0.0834961H13.6255V2.34522C13.6255 2.76709 13.2973 3.09522 12.8637 3.09522C12.4301 3.09522 12.102 2.76709 12.102 2.34522V0.0834961H9.82861V2.34522C9.82861 2.76709 9.50049 3.09522 9.06689 3.09522C8.6333 3.09522 8.30517 2.76709 8.30517 2.34522V0.0834961H6.03174V2.34522C6.03174 2.76709 5.70361 3.09522 5.27002 3.09522C4.83642 3.09522 4.5083 2.76709 4.5083 2.34522V0.0834961H3.77002C1.3208 0.0834961 0.090332 1.29053 0.090332 3.71631V18.0249ZM4.81299 14.521V7.22022C4.81299 6.56397 5.27002 6.13037 5.92627 6.13037H15.9809C16.6489 6.13037 17.0825 6.56397 17.0825 7.22022V14.521C17.0825 15.1773 16.6489 15.6109 15.9809 15.6109H5.92627C5.27002 15.6109 4.81299 15.1773 4.81299 14.521Z" fill="black" fill-opacity="0.85"/>
</g>
<defs>
<clipPath id="clip0_2207_21756">
<rect width="21.7266" height="21.5977" fill="white" transform="translate(0.090332 0.0600586)"/>
</clipPath>
</defs>
</svg>
