<svg width="24" height="24" viewBox="0 0 24 24" fill="none" xmlns="http://www.w3.org/2000/svg">
<g clip-path="url(#clip0_2207_26243)">
<path d="M11.9594 23.9677C18.4985 23.9677 23.9125 18.542 23.9125 12.0146C23.9125 5.47558 18.4868 0.0615234 11.9477 0.0615234C5.42041 0.0615234 0.00634766 5.47558 0.00634766 12.0146C0.00634766 18.542 5.43213 23.9677 11.9594 23.9677Z" fill="black" fill-opacity="0.85"/>
<path d="M6.63916 16.8896C6.07666 16.8896 5.80713 16.5029 5.80713 15.999V8.01855C5.80713 7.49121 6.08838 7.12793 6.63916 7.12793H10.2719C10.7172 7.12793 11.0336 7.39746 11.0336 7.83105C11.0336 8.33496 10.6586 8.55761 10.2719 8.55761H7.52979V11.2646H10.1665C10.5649 11.2646 10.8344 11.4756 10.8344 11.9443C10.8344 12.3896 10.5532 12.6123 10.1665 12.6123H7.52979V15.4717H10.2719C10.6586 15.4717 11.0336 15.6943 11.0336 16.1865C11.0336 16.6318 10.729 16.8896 10.2719 16.8896H6.63916ZM13.1899 16.8896C12.6977 16.8896 12.3344 16.5849 12.3344 16.081C12.3344 15.8232 12.4282 15.542 12.5102 15.3779L16.2955 8.61621V8.55761H13.0961C12.6625 8.55761 12.3461 8.27636 12.3461 7.84277C12.3461 7.4209 12.6625 7.12793 13.0961 7.12793H17.3032C17.7602 7.12793 18.1705 7.39746 18.1705 7.9834C18.1705 8.28808 18.0883 8.47558 17.9711 8.66308L14.2563 15.3427V15.4717H17.6313C18.0532 15.4717 18.3344 15.7529 18.3344 16.1748C18.3344 16.5849 18.0532 16.8896 17.6313 16.8896H13.1899Z" fill="white"/>
</g>
<defs>
<clipPath id="clip0_2207_26243">
<rect width="23.9062" height="23.918" fill="white" transform="translate(0.00634766 0.0615234)"/>
</clipPath>
</defs>
</svg>
