<svg width="24" height="24" viewBox="0 0 24 24" fill="none" xmlns="http://www.w3.org/2000/svg">
<g clip-path="url(#clip0_2207_25542)">
<path d="M12.0476 23.9663C18.5867 23.9663 24.0007 18.5406 24.0007 12.0132C24.0007 5.47412 18.575 0.0600586 12.0359 0.0600586C5.50854 0.0600586 0.0944824 5.47412 0.0944824 12.0132C0.0944824 18.5406 5.52026 23.9663 12.0476 23.9663ZM12.0476 21.9742C6.51636 21.9742 2.09839 17.5445 2.09839 12.0132C2.09839 6.48194 6.50464 2.05225 12.0359 2.05225C17.5672 2.05225 22.0086 6.48194 22.0086 12.0132C22.0086 17.5445 17.5789 21.9742 12.0476 21.9742Z" fill="black" fill-opacity="0.85"/>
<path d="M12.282 17.6734C14.2742 17.6734 15.8562 16.8296 16.4656 15.1187C16.5359 14.9312 16.5828 14.732 16.5828 14.521C16.5828 14.0992 16.2898 13.8062 15.8679 13.8062C15.4695 13.8062 15.2351 14.0289 15.1062 14.4273C14.7781 15.6226 13.6297 16.2671 12.3289 16.2671C10.3015 16.2671 9.19995 14.3218 9.19995 12.0367C9.19995 9.75147 10.325 7.82959 12.3289 7.82959C13.5359 7.82959 14.6609 8.49756 15.0242 9.70459C15.1648 10.1499 15.364 10.314 15.7742 10.314C16.2195 10.314 16.5007 10.0327 16.5007 9.59912C16.5007 9.3999 16.4539 9.20068 16.3836 9.01318C15.8093 7.43115 14.1922 6.42334 12.282 6.42334C9.45776 6.42334 7.62964 8.69678 7.62964 12.0367C7.62964 15.271 9.30542 17.6734 12.282 17.6734ZM6.70386 11.3921H12.5515C12.8797 11.3921 13.1257 11.1343 13.1257 10.8179C13.1257 10.4663 12.8797 10.232 12.5515 10.232H6.70386C6.37573 10.232 6.12964 10.4663 6.12964 10.8179C6.12964 11.1343 6.37573 11.3921 6.70386 11.3921ZM6.70386 13.771H12.5515C12.8797 13.771 13.1257 13.5132 13.1257 13.1851C13.1257 12.8453 12.8797 12.6109 12.5515 12.6109H6.70386C6.37573 12.6109 6.12964 12.8453 6.12964 13.1851C6.12964 13.5132 6.37573 13.771 6.70386 13.771Z" fill="black" fill-opacity="0.85"/>
</g>
<defs>
<clipPath id="clip0_2207_25542">
<rect width="23.9062" height="23.918" fill="white" transform="translate(0.0944824 0.0600586)"/>
</clipPath>
</defs>
</svg>
