<svg width="24" height="24" viewBox="0 0 24 24" fill="none" xmlns="http://www.w3.org/2000/svg">
<g clip-path="url(#clip0_2207_26238)">
<path d="M11.9573 23.9677C18.4964 23.9677 23.9104 18.542 23.9104 12.0146C23.9104 5.47558 18.4846 0.0615234 11.9455 0.0615234C5.41821 0.0615234 0.00415039 5.47558 0.00415039 12.0146C0.00415039 18.542 5.42993 23.9677 11.9573 23.9677ZM11.9573 21.9756C6.42603 21.9756 2.00806 17.5459 2.00806 12.0146C2.00806 6.4834 6.41431 2.05371 11.9455 2.05371C17.4769 2.05371 21.9183 6.4834 21.9183 12.0146C21.9183 17.5459 17.4886 21.9756 11.9573 21.9756Z" fill="black" fill-opacity="0.85"/>
<path d="M6.78931 16.7373H10.3167C10.7503 16.7373 11.055 16.4912 11.055 16.0576C11.055 15.5888 10.6917 15.3662 10.3167 15.3662H7.64477V12.5888H10.2112C10.5862 12.5888 10.8558 12.3779 10.8558 11.9443C10.8558 11.499 10.598 11.2881 10.2112 11.2881H7.64477V8.66308H10.3167C10.6917 8.66308 11.055 8.44043 11.055 7.95996C11.055 7.53808 10.7386 7.28027 10.3167 7.28027H6.78931C6.26196 7.28027 5.98071 7.63183 5.98071 8.13574V15.8818C5.98071 16.3623 6.25024 16.7373 6.78931 16.7373ZM13.1409 16.7373H17.4534C17.8519 16.7373 18.1331 16.4443 18.1331 16.0459C18.1331 15.6474 17.8519 15.3662 17.4534 15.3662H14.1722V15.249L17.7815 8.75683C17.887 8.58105 17.969 8.39355 17.969 8.10058C17.969 7.53808 17.5706 7.28027 17.1253 7.28027H13.0472C12.6253 7.28027 12.3206 7.56152 12.3206 7.97168C12.3206 8.38183 12.6253 8.66308 13.0472 8.66308H16.1644V8.70996L12.4847 15.2842C12.4026 15.4365 12.3089 15.706 12.3089 15.9638C12.3089 16.4443 12.6604 16.7373 13.1409 16.7373Z" fill="black" fill-opacity="0.85"/>
</g>
<defs>
<clipPath id="clip0_2207_26238">
<rect width="23.9062" height="23.918" fill="white" transform="translate(0.00415039 0.0615234)"/>
</clipPath>
</defs>
</svg>
