<svg width="32" height="27" viewBox="0 0 32 27" fill="none" xmlns="http://www.w3.org/2000/svg">
<g clip-path="url(#clip0_2207_15597)">
<path d="M30.2126 20.9912C31.0446 20.9912 31.7478 20.3115 31.7478 19.5146C31.7478 18.706 31.0563 18.0381 30.2126 18.0381C29.3571 18.0381 28.6657 18.706 28.6657 19.5146C28.6657 20.3115 29.3689 20.9912 30.2126 20.9912ZM30.2126 15.7881C30.7868 15.7881 31.1853 15.3896 31.2087 14.792L31.4548 6.49511C31.4782 5.74511 30.9743 5.24121 30.2126 5.24121C29.4392 5.24121 28.9353 5.74511 28.9587 6.49511L29.2048 14.792C29.2282 15.3896 29.6384 15.7881 30.2126 15.7881Z" fill="black" fill-opacity="0.85"/>
<path d="M17.2399 25.3271V3.03808C17.2399 1.11621 16.1853 0.0615234 14.2751 0.0615234H4.82984C2.89624 0.0615234 1.87671 1.11621 1.87671 3.03808V25.3271H17.2399ZM5.21656 12.2959C4.36109 12.2959 3.84546 11.8271 3.84546 11.042V3.30761C3.84546 2.52246 4.36109 2.04199 5.21656 2.04199H13.8884C14.7439 2.04199 15.2712 2.52246 15.2712 3.30761V11.042C15.2712 11.8271 14.7439 12.2959 13.8884 12.2959H5.21656ZM0.0251465 25.2451C0.0251465 25.7724 0.435302 26.206 0.950927 26.206H18.1423C18.6579 26.206 19.0915 25.7724 19.0915 25.2451C19.0915 24.7412 18.6579 24.3193 18.1423 24.3193H0.950927C0.447021 24.3193 0.0251465 24.7295 0.0251465 25.2451ZM20.6032 7.77246H21.9392V5.15918C21.9392 4.7959 21.6345 4.49121 21.2829 4.49121C20.8962 4.49121 20.6032 4.7959 20.6032 5.15918V7.77246ZM25.0212 7.77246V5.15918C25.0212 4.7959 24.7282 4.49121 24.3532 4.49121C23.9899 4.49121 23.6853 4.7959 23.6853 5.15918V7.77246H25.0212ZM16.7009 15.4951H17.3571C17.8962 15.4951 18.236 15.7998 18.236 16.3857V20.2646C18.236 21.9287 19.2439 22.9365 20.9079 22.9365C22.5603 22.9365 23.5563 21.9287 23.5563 20.2646V14.206C23.5563 13.0459 24.4235 12.7177 24.9743 12.2959C25.8181 11.6631 26.2751 10.7842 26.2751 9.74121V7.9834C26.2751 7.70214 26.111 7.53808 25.8532 7.53808H19.6071C19.3493 7.53808 19.1853 7.70214 19.1853 7.9834V9.74121C19.1853 10.7842 19.6423 11.6631 20.486 12.2959C21.0368 12.7177 21.904 13.0459 21.904 14.206V20.2646C21.904 20.8974 21.529 21.2842 20.9079 21.2842C20.2634 21.2842 19.8884 20.8974 19.8884 20.2646V16.3857C19.8884 14.7685 18.9274 13.8427 17.3571 13.8427H16.7009V15.4951Z" fill="black" fill-opacity="0.85"/>
</g>
<defs>
<clipPath id="clip0_2207_15597">
<rect width="31.7227" height="26.1445" fill="white" transform="translate(0.0251465 0.0615234)"/>
</clipPath>
</defs>
</svg>
