<svg width="28" height="27" viewBox="0 0 28 27" fill="none" xmlns="http://www.w3.org/2000/svg">
<g clip-path="url(#clip0_2207_15572)">
<path d="M18.4229 25.3271V3.03808C18.4229 1.11621 17.3682 0.0615234 15.4463 0.0615234H4.81739C2.88379 0.0615234 1.86426 1.11621 1.86426 3.03808V25.3271H3.73926L3.75098 3.06152C3.75098 2.33496 4.10254 1.94824 4.85254 1.94824H15.4111C16.1377 1.94824 16.5244 2.32324 16.5244 3.06152V25.3271H18.4229ZM0.0126953 25.2451C0.0126953 25.7724 0.422851 26.206 0.938476 26.206H19.3252C19.8408 26.206 20.2627 25.7724 20.2627 25.2451C20.2627 24.7412 19.8408 24.3193 19.3252 24.3193H0.938476C0.43457 24.3193 0.0126953 24.7295 0.0126953 25.2451ZM6.3877 12.9638H13.876C14.6611 12.9638 15.2002 12.4951 15.2002 11.7803V4.67871C15.2002 3.96386 14.6494 3.47168 13.876 3.47168H6.3877C5.61426 3.47168 5.08692 3.96386 5.08692 4.67871V11.7803C5.08692 12.4951 5.61426 12.9638 6.3877 12.9638ZM21.7861 7.77246H23.1104L23.1221 5.15918C23.1221 4.7959 22.8174 4.49121 22.4541 4.49121C22.0791 4.49121 21.7861 4.7959 21.7861 5.15918V7.77246ZM26.2041 7.77246V5.15918C26.2041 4.7959 25.9111 4.49121 25.5244 4.49121C25.1729 4.49121 24.8682 4.7959 24.8682 5.15918V7.77246H26.2041ZM17.8838 15.4951H18.54C19.0791 15.4951 19.4072 15.7998 19.4072 16.3857V20.2646C19.4072 21.9287 20.415 22.9365 22.0791 22.9365C23.7432 22.9365 24.7393 21.9287 24.7393 20.2646V14.206C24.7393 13.0459 25.6065 12.7177 26.1572 12.2959C27.001 11.6631 27.4463 10.7842 27.4463 9.74121V7.9834C27.4463 7.70214 27.2939 7.53808 27.0361 7.53808H20.79C20.5322 7.53808 20.3682 7.70214 20.3682 7.9834V9.74121C20.3682 10.7842 20.8252 11.6631 21.6689 12.2959C22.2197 12.7177 23.0869 13.0459 23.0869 14.206V20.2646C23.0869 20.8974 22.7002 21.2842 22.0791 21.2842C21.4463 21.2842 21.0713 20.8974 21.0713 20.2646V16.3857C21.0713 14.7685 20.1104 13.8427 18.54 13.8427H17.8838V15.4951Z" fill="black" fill-opacity="0.85"/>
</g>
<defs>
<clipPath id="clip0_2207_15572">
<rect width="27.4336" height="26.1445" fill="white" transform="translate(0.0126953 0.0615234)"/>
</clipPath>
</defs>
</svg>
