<svg width="35" height="27" viewBox="0 0 35 27" fill="none" xmlns="http://www.w3.org/2000/svg">
<g clip-path="url(#clip0_2207_15607)">
<path d="M25.7893 25.3271V3.03808C25.7893 1.11621 24.7346 0.0615234 22.8245 0.0615234H13.3792C11.4456 0.0615234 10.426 1.11621 10.426 3.03808V25.3271H25.7893ZM13.7659 12.2959C12.9104 12.2959 12.4065 11.8271 12.4065 11.042V3.30761C12.4065 2.52246 12.9104 2.04199 13.7659 2.04199H22.4378C23.2932 2.04199 23.8206 2.52246 23.8206 3.30761V11.042C23.8206 11.8271 23.2932 12.2959 22.4378 12.2959H13.7659ZM8.57452 25.2451C8.57452 25.7724 8.9964 26.206 9.5003 26.206H26.7034C27.2073 26.206 27.6409 25.7724 27.6409 25.2451C27.6409 24.7412 27.2073 24.3193 26.7034 24.3193H9.5003C9.00812 24.3193 8.57452 24.7295 8.57452 25.2451ZM29.1526 7.77246H30.4885V5.15918C30.4885 4.7959 30.1838 4.49121 29.8323 4.49121C29.4456 4.49121 29.1526 4.7959 29.1526 5.15918V7.77246ZM33.5706 7.77246V5.15918C33.5706 4.7959 33.2776 4.49121 32.9026 4.49121C32.5393 4.49121 32.2346 4.7959 32.2346 5.15918L32.2463 7.77246H33.5706ZM25.262 15.4951H25.9065C26.4456 15.4951 26.7854 15.7998 26.7854 16.3857V20.2646C26.7854 21.9287 27.7932 22.9365 29.4573 22.9365C31.1096 22.9365 32.1057 21.9287 32.1057 20.2646V14.206C32.1057 13.0459 32.9729 12.7177 33.5237 12.2959C34.3674 11.6631 34.8245 10.7842 34.8245 9.74121V7.9834C34.8245 7.70214 34.6604 7.53808 34.4026 7.53808H28.1565C27.8987 7.53808 27.7346 7.70214 27.7346 7.9834V9.74121C27.7346 10.7842 28.1917 11.6631 29.0354 12.2959C29.5862 12.7177 30.4534 13.0459 30.4534 14.206V20.2646C30.4534 20.8974 30.0784 21.2842 29.4573 21.2842C28.8128 21.2842 28.4378 20.8974 28.4378 20.2646V16.3857C28.4378 14.7685 27.4768 13.8427 25.9065 13.8427H25.262V15.4951Z" fill="black" fill-opacity="0.85"/>
<path d="M0.359676 12.5654C-0.0856374 12.8232 -0.109074 13.4443 0.359676 13.7138L6.38312 17.2646C6.8753 17.5576 7.44952 17.3232 7.44952 16.8193V9.43649C7.44952 8.9443 6.84015 8.72166 6.38312 8.99119L0.359676 12.5654Z" fill="black" fill-opacity="0.85"/>
</g>
<defs>
<clipPath id="clip0_2207_15607">
<rect width="34.8077" height="26.1445" fill="white" transform="translate(0.0168457 0.0615234)"/>
</clipPath>
</defs>
</svg>
