<svg width="37" height="27" viewBox="0 0 37 27" fill="none" xmlns="http://www.w3.org/2000/svg">
<g clip-path="url(#clip0_2207_15612)">
<path d="M18.429 25.3271V3.03808C18.429 1.11621 17.3743 0.0615234 15.4524 0.0615234H4.82349C2.88989 0.0615234 1.87036 1.11621 1.87036 3.03808V25.3271H3.74536L3.75708 3.06152C3.75708 2.33496 4.10864 1.94824 4.85864 1.94824H15.4172C16.1438 1.94824 16.5305 2.32324 16.5305 3.06152V25.3271H18.429ZM0.0187988 25.2451C0.0187988 25.7724 0.428955 26.206 0.94458 26.206H19.3313C19.8469 26.206 20.2688 25.7724 20.2688 25.2451C20.2688 24.7412 19.8469 24.3193 19.3313 24.3193H0.94458C0.440674 24.3193 0.0187988 24.7295 0.0187988 25.2451ZM6.3938 12.9638H13.8821C14.6672 12.9638 15.2063 12.4951 15.2063 11.7803V4.67871C15.2063 3.96386 14.6555 3.47168 13.8821 3.47168H6.3938C5.62036 3.47168 5.09302 3.96386 5.09302 4.67871V11.7803C5.09302 12.4951 5.62036 12.9638 6.3938 12.9638ZM21.7922 7.77246H23.1165L23.1282 5.15918C23.1282 4.7959 22.8235 4.49121 22.4602 4.49121C22.0852 4.49121 21.7922 4.7959 21.7922 5.15918V7.77246ZM26.2102 7.77246V5.15918C26.2102 4.7959 25.9172 4.49121 25.5305 4.49121C25.179 4.49121 24.8743 4.7959 24.8743 5.15918V7.77246H26.2102ZM17.8899 15.4951H18.5461C19.0852 15.4951 19.4133 15.7998 19.4133 16.3857V20.2646C19.4133 21.9287 20.4211 22.9365 22.0852 22.9365C23.7493 22.9365 24.7454 21.9287 24.7454 20.2646V14.206C24.7454 13.0459 25.6126 12.7177 26.1633 12.2959C27.0071 11.6631 27.4524 10.7842 27.4524 9.74121V7.9834C27.4524 7.70214 27.3 7.53808 27.0422 7.53808H20.7961C20.5383 7.53808 20.3743 7.70214 20.3743 7.9834V9.74121C20.3743 10.7842 20.8313 11.6631 21.675 12.2959C22.2258 12.7177 23.093 13.0459 23.093 14.206V20.2646C23.093 20.8974 22.7063 21.2842 22.0852 21.2842C21.4524 21.2842 21.0774 20.8974 21.0774 20.2646V16.3857C21.0774 14.7685 20.1165 13.8427 18.5461 13.8427H17.8899V15.4951Z" fill="black" fill-opacity="0.85"/>
<path d="M36.6399 12.706L30.6165 9.13181C30.1594 8.86228 29.55 9.08494 29.55 9.57712V16.9599C29.55 17.4638 30.1243 17.6982 30.6165 17.4053L36.6399 13.8545C37.1086 13.5849 37.0852 12.9638 36.6399 12.706Z" fill="black" fill-opacity="0.85"/>
</g>
<defs>
<clipPath id="clip0_2207_15612">
<rect width="36.9639" height="26.1445" fill="white" transform="translate(0.0187988 0.0615234)"/>
</clipPath>
</defs>
</svg>
