<svg width="33" height="27" viewBox="0 0 33 27" fill="none" xmlns="http://www.w3.org/2000/svg">
<g clip-path="url(#clip0_2207_15592)">
<path d="M31.4177 20.9912C32.2615 20.9912 32.9529 20.3115 32.9529 19.5146C32.9529 18.706 32.2732 18.0381 31.4177 18.0381C30.574 18.0381 29.8826 18.706 29.8826 19.5146C29.8826 20.3115 30.5857 20.9912 31.4177 20.9912ZM31.4177 15.7881C31.992 15.7881 32.4021 15.3896 32.4255 14.792L32.6716 6.49511C32.6951 5.74511 32.1912 5.24121 31.4177 5.24121C30.6443 5.24121 30.1521 5.74511 30.1755 6.49511L30.4216 14.792C30.4451 15.3896 30.8435 15.7881 31.4177 15.7881Z" fill="black" fill-opacity="0.85"/>
<path d="M18.4334 25.3271V3.03808C18.4334 1.11621 17.3787 0.0615234 15.4568 0.0615234H4.82788C2.89428 0.0615234 1.87475 1.11621 1.87475 3.03808V25.3271H3.74975L3.76147 3.06152C3.76147 2.33496 4.11303 1.94824 4.86303 1.94824H15.4216C16.1482 1.94824 16.5349 2.32324 16.5349 3.06152V25.3271H18.4334ZM0.0231934 25.2451C0.0231934 25.7724 0.433349 26.206 0.948974 26.206H19.3357C19.8513 26.206 20.2732 25.7724 20.2732 25.2451C20.2732 24.7412 19.8513 24.3193 19.3357 24.3193H0.948974C0.445068 24.3193 0.0231934 24.7295 0.0231934 25.2451ZM6.39819 12.9638H13.8865C14.6716 12.9638 15.2107 12.4951 15.2107 11.7803V4.67871C15.2107 3.96386 14.6599 3.47168 13.8865 3.47168H6.39819C5.62475 3.47168 5.09741 3.96386 5.09741 4.67871V11.7803C5.09741 12.4951 5.62475 12.9638 6.39819 12.9638ZM21.7966 7.77246H23.1209L23.1326 5.15918C23.1326 4.7959 22.8279 4.49121 22.4646 4.49121C22.0896 4.49121 21.7966 4.7959 21.7966 5.15918V7.77246ZM26.2146 7.77246V5.15918C26.2146 4.7959 25.9216 4.49121 25.5349 4.49121C25.1834 4.49121 24.8787 4.7959 24.8787 5.15918V7.77246H26.2146ZM17.8943 15.4951H18.5505C19.0896 15.4951 19.4177 15.7998 19.4177 16.3857V20.2646C19.4177 21.9287 20.4255 22.9365 22.0896 22.9365C23.7537 22.9365 24.7498 21.9287 24.7498 20.2646V14.206C24.7498 13.0459 25.617 12.7177 26.1677 12.2959C27.0115 11.6631 27.4568 10.7842 27.4568 9.74121V7.9834C27.4568 7.70214 27.3044 7.53808 27.0466 7.53808H20.8005C20.5427 7.53808 20.3787 7.70214 20.3787 7.9834V9.74121C20.3787 10.7842 20.8357 11.6631 21.6794 12.2959C22.2302 12.7177 23.0974 13.0459 23.0974 14.206V20.2646C23.0974 20.8974 22.7107 21.2842 22.0896 21.2842C21.4568 21.2842 21.0818 20.8974 21.0818 20.2646V16.3857C21.0818 14.7685 20.1209 13.8427 18.5505 13.8427H17.8943V15.4951Z" fill="black" fill-opacity="0.85"/>
</g>
<defs>
<clipPath id="clip0_2207_15592">
<rect width="32.9297" height="26.1445" fill="white" transform="translate(0.0231934 0.0615234)"/>
</clipPath>
</defs>
</svg>
