<svg width="24" height="24" viewBox="0 0 24 24" fill="none" xmlns="http://www.w3.org/2000/svg">
<g clip-path="url(#clip0_2207_17723)">
<path d="M11.9909 23.9677C18.53 23.9677 23.944 18.542 23.944 12.0146C23.944 5.47558 18.5183 0.0615234 11.9792 0.0615234C5.4519 0.0615234 0.0378418 5.47558 0.0378418 12.0146C0.0378418 18.542 5.46362 23.9677 11.9909 23.9677ZM11.9909 21.9756C6.45972 21.9756 2.04175 17.5459 2.04175 12.0146C2.04175 6.4834 6.448 2.05371 11.9792 2.05371C17.5105 2.05371 21.9519 6.4834 21.9519 12.0146C21.9519 17.5459 17.5222 21.9756 11.9909 21.9756Z" fill="black" fill-opacity="0.85"/>
<path d="M7.81909 11.1006C9.28393 11.1006 10.4558 9.92872 10.4558 8.47559C10.4558 7.01075 9.28393 5.83887 7.81909 5.83887C6.36596 5.83887 5.18237 7.01075 5.18237 8.47559C5.18237 9.92872 6.36596 11.1006 7.81909 11.1006ZM16.1394 11.1006C17.5925 11.1006 18.7761 9.92872 18.7761 8.47559C18.7761 7.01075 17.5925 5.83887 16.1394 5.83887C14.6862 5.83887 13.5026 7.01075 13.5026 8.47559C13.5026 9.92872 14.6862 11.1006 16.1394 11.1006ZM11.9792 20.5576C13.4323 20.5576 14.6159 19.374 14.6159 17.9209C14.6159 16.4677 13.4323 15.2842 11.9792 15.2842C10.5261 15.2842 9.34253 16.4677 9.34253 17.9209C9.34253 19.374 10.5261 20.5576 11.9792 20.5576ZM6.06128 16.8427C7.10425 16.8427 7.948 15.9873 7.948 14.956C7.948 13.9131 7.10425 13.0693 6.06128 13.0693C5.03003 13.0693 4.17456 13.9131 4.17456 14.956C4.17456 15.9873 5.03003 16.8427 6.06128 16.8427ZM17.8972 16.8427C18.9401 16.8427 19.7839 15.9873 19.7839 14.956C19.7839 13.9131 18.9401 13.0693 17.8972 13.0693C16.8542 13.0693 16.0105 13.9131 16.0105 14.956C16.0105 15.9873 16.8542 16.8427 17.8972 16.8427Z" fill="black" fill-opacity="0.85"/>
</g>
<defs>
<clipPath id="clip0_2207_17723">
<rect width="23.9062" height="23.918" fill="white" transform="translate(0.0378418 0.0615234)"/>
</clipPath>
</defs>
</svg>
