<svg width="21" height="30" viewBox="0 0 21 30" fill="none" xmlns="http://www.w3.org/2000/svg">
<g clip-path="url(#clip0_2207_17763)">
<path d="M10.0699 17.2529C15.0738 17.2529 19.0231 13.3154 19.0231 8.58105C19.0231 6.1084 17.9332 3.83496 16.3746 2.3584C15.7184 1.7373 14.9801 1.45605 13.9957 1.45605H6.13244C5.15979 1.45605 4.4215 1.7373 3.76525 2.3584C2.19494 3.83496 1.11682 6.1084 1.11682 8.58105C1.11682 13.3154 5.05432 17.2529 10.0699 17.2529ZM10.0699 15.542C5.78088 15.542 2.81604 12.5888 2.81604 8.58105C2.81604 6.50683 3.6012 4.84277 4.92542 3.6123C5.34729 3.22558 5.47619 3.16699 6.13244 3.16699H13.9957C14.652 3.16699 14.7926 3.22558 15.2027 3.6123C16.527 4.84277 17.3238 6.50683 17.3238 8.58105C17.3238 12.5888 14.359 15.542 10.0699 15.542ZM5.99183 29.8857H14.1246C17.4879 29.8857 20.0777 27.2607 20.0777 23.9326C20.0777 20.6045 17.4879 17.9795 14.1246 17.9795H5.99183C2.64026 17.9795 0.050415 20.6045 0.050415 23.9326C0.050415 27.2607 2.64026 29.8857 5.99183 29.8857ZM5.99183 28.1748C3.58948 28.1748 1.73792 26.3349 1.73792 23.9326C1.73792 21.5303 3.58948 19.6904 5.99183 19.6904H14.1246C16.5387 19.6904 18.3902 21.5303 18.3902 23.9326C18.3902 26.3349 16.5387 28.1748 14.1246 28.1748H5.99183Z" fill="black" fill-opacity="0.85"/>
<path d="M7.80823 6.56544C8.55823 6.56544 9.15589 5.96778 9.15589 5.21778C9.15589 4.46778 8.55823 3.87012 7.80823 3.87012C7.05823 3.87012 6.46058 4.46778 6.46058 5.21778C6.46058 5.96778 7.05823 6.56544 7.80823 6.56544ZM12.3316 6.56544C13.0699 6.56544 13.6676 5.96778 13.6676 5.21778C13.6676 4.46778 13.0699 3.87012 12.3316 3.87012C11.5816 3.87012 10.984 4.46778 10.984 5.21778C10.984 5.96778 11.5816 6.56544 12.3316 6.56544ZM5.54651 10.5029C6.61292 10.5029 7.48011 9.64747 7.48011 8.56934C7.48011 7.50294 6.61292 6.64747 5.54651 6.64747C4.48011 6.64747 3.61292 7.50294 3.61292 8.56934C3.61292 9.64747 4.48011 10.5029 5.54651 10.5029ZM10.0699 10.5029C11.1363 10.5029 11.9918 9.64747 11.9918 8.56934C11.9918 7.50294 11.1363 6.64747 10.0699 6.64747C8.99183 6.64747 8.13636 7.50294 8.13636 8.56934C8.13636 9.64747 8.99183 10.5029 10.0699 10.5029ZM14.5816 10.5029C15.6598 10.5029 16.5152 9.64747 16.5152 8.56934C16.5152 7.50294 15.6598 6.64747 14.5816 6.64747C13.5152 6.64747 12.6598 7.50294 12.6598 8.56934C12.6598 9.64747 13.5152 10.5029 14.5816 10.5029ZM7.80823 14.4053C8.87464 14.4053 9.73011 13.5498 9.73011 12.4717C9.73011 11.4053 8.87464 10.5498 7.80823 10.5498C6.74183 10.5498 5.87464 11.4053 5.87464 12.4717C5.87464 13.5498 6.74183 14.4053 7.80823 14.4053ZM12.3316 14.4053C13.3981 14.4053 14.2535 13.5498 14.2535 12.4717C14.2535 11.4053 13.3981 10.5498 12.3316 10.5498C11.2535 10.5498 10.3981 11.4053 10.3981 12.4717C10.3981 13.5498 11.2535 14.4053 12.3316 14.4053ZM5.98011 27.0615C7.71448 27.0615 9.12073 25.667 9.12073 23.9326C9.12073 22.1982 7.71448 20.792 5.98011 20.792C4.24573 20.792 2.8512 22.1982 2.8512 23.9326C2.8512 25.667 4.24573 27.0615 5.98011 27.0615ZM14.1363 27.0615C15.8824 27.0615 17.277 25.667 17.277 23.9326C17.277 22.1982 15.8824 20.792 14.1363 20.792C12.402 20.792 11.0074 22.1982 11.0074 23.9326C11.0074 25.667 12.402 27.0615 14.1363 27.0615Z" fill="black" fill-opacity="0.85"/>
</g>
<defs>
<clipPath id="clip0_2207_17763">
<rect width="20.0273" height="29.8242" fill="white" transform="translate(0.050415 0.0615234)"/>
</clipPath>
</defs>
</svg>
