<svg width="27" height="23" viewBox="0 0 27 23" fill="none" xmlns="http://www.w3.org/2000/svg">
<g clip-path="url(#clip0_2207_17798)">
<path d="M13.3191 12.8349C17.7136 12.8349 21.6629 14.4638 24.616 17.206C25.8582 15.2607 26.573 12.8935 26.573 10.2334C26.573 8.78027 26.4207 7.52636 26.116 6.4248C25.7996 8.90918 23.6785 10.831 21.0769 10.831C18.2293 10.831 15.9558 8.5459 15.9558 5.70996C15.9558 3.28418 17.6199 1.25683 19.8699 0.717773C18.1004 0.260742 15.9324 0.0615234 13.3191 0.0615234C10.6941 0.0615234 8.52613 0.260742 6.7566 0.717773C9.0066 1.25683 10.6824 3.28418 10.6824 5.70996C10.6824 8.5459 8.39721 10.831 5.56128 10.831C2.95972 10.831 0.838624 8.90918 0.510498 6.4248C0.21753 7.52636 0.0651855 8.78027 0.0651855 10.2334C0.0651855 12.8935 0.78003 15.2607 2.0105 17.206C4.97535 14.4638 8.91285 12.8349 13.3191 12.8349ZM13.3191 22.9131C17.8543 22.9131 21.6394 21.1084 23.9949 18.1084C21.1824 15.4248 17.5144 13.9013 13.3191 13.9013C9.11207 13.9013 5.4441 15.4248 2.6316 18.0967C4.97535 21.1084 8.77221 22.9131 13.3191 22.9131Z" fill="black" fill-opacity="0.85"/>
<path d="M8.06909 19.081C7.48315 19.081 7.0144 18.624 7.0144 18.0381C7.0144 17.4521 7.48315 16.9951 8.06909 16.9951C8.65502 16.9951 9.11206 17.4521 9.11206 18.0381C9.11206 18.624 8.65502 19.081 8.06909 19.081ZM13.3191 19.831C12.3347 19.831 11.5261 19.0224 11.5261 18.0381C11.5261 17.0537 12.3347 16.2451 13.3191 16.2451C14.3035 16.2451 15.1121 17.0537 15.1121 18.0381C15.1121 19.0224 14.3035 19.831 13.3191 19.831ZM18.5691 19.081C17.9832 19.081 17.5261 18.624 17.5261 18.0381C17.5261 17.4521 17.9832 16.9951 18.5691 16.9951C19.155 16.9951 19.6121 17.4521 19.6121 18.0381C19.6121 18.624 19.155 19.081 18.5691 19.081Z" fill="white"/>
<path d="M5.56127 9.76464C7.81127 9.76464 9.61596 7.95996 9.61596 5.70996C9.61596 3.45996 7.81127 1.64355 5.56127 1.64355C3.31127 1.64355 1.50659 3.45996 1.50659 5.70996C1.50659 7.95996 3.31127 9.76464 5.56127 9.76464ZM5.56127 8.10058C4.23706 8.10058 3.17065 7.03418 3.17065 5.70996C3.17065 4.38574 4.23706 3.31933 5.56127 3.31933C6.88549 3.31933 7.9519 4.38574 7.9519 5.70996C7.9519 7.03418 6.88549 8.10058 5.56127 8.10058ZM5.56127 6.76464C6.14721 6.76464 6.61596 6.2959 6.61596 5.70996C6.61596 5.12402 6.14721 4.65527 5.56127 4.65527C4.97534 4.65527 4.50659 5.12402 4.50659 5.70996C4.50659 6.2959 4.97534 6.76464 5.56127 6.76464ZM21.0769 9.76464C23.3269 9.76464 25.1316 7.95996 25.1316 5.70996C25.1316 3.45996 23.3269 1.64355 21.0769 1.64355C18.8269 1.64355 17.0222 3.45996 17.0222 5.70996C17.0222 7.95996 18.8269 9.76464 21.0769 9.76464ZM21.0769 8.10058C19.7527 8.10058 18.6863 7.03418 18.6863 5.70996C18.6863 4.38574 19.7527 3.31933 21.0769 3.31933C22.4011 3.31933 23.4675 4.38574 23.4675 5.70996C23.4675 7.03418 22.4011 8.10058 21.0769 8.10058ZM21.0769 6.76464C21.6629 6.76464 22.1316 6.2959 22.1316 5.70996C22.1316 5.12402 21.6629 4.65527 21.0769 4.65527C20.491 4.65527 20.0222 5.12402 20.0222 5.70996C20.0222 6.2959 20.491 6.76464 21.0769 6.76464Z" fill="black" fill-opacity="0.85"/>
</g>
<defs>
<clipPath id="clip0_2207_17798">
<rect width="26.5078" height="22.8633" fill="white" transform="translate(0.0651855 0.0615234)"/>
</clipPath>
</defs>
</svg>
