<svg width="25" height="22" viewBox="0 0 25 22" fill="none" xmlns="http://www.w3.org/2000/svg">
<g clip-path="url(#clip0_2207_17738)">
<path d="M12.2785 21.6123C19.1339 21.6123 24.5246 16.2334 24.5246 9.77636C24.5246 6.36621 23.0246 3.28418 20.9035 1.26855C20.0129 0.436523 19.0402 0.0615234 17.716 0.0615234H6.84095C5.52845 0.0615234 4.55579 0.436523 3.66516 1.26855C1.53235 3.28418 0.0440674 6.36621 0.0440674 9.77636C0.0440674 16.2334 5.43469 21.6123 12.2785 21.6123Z" fill="black" fill-opacity="0.85"/>
<path d="M9.10266 6.94043C8.02454 6.94043 7.15735 6.06152 7.15735 5.00683C7.15735 3.92871 8.02454 3.06152 9.10266 3.06152C10.1691 3.06152 11.0363 3.92871 11.0363 5.00683C11.0363 6.06152 10.1691 6.94043 9.10266 6.94043ZM15.466 6.94043C14.3879 6.94043 13.5207 6.06152 13.5207 5.00683C13.5207 3.92871 14.3879 3.06152 15.466 3.06152C16.5441 3.06152 17.4113 3.92871 17.4113 5.00683C17.4113 6.06152 16.5441 6.94043 15.466 6.94043ZM5.91516 12.4717C4.40345 12.4717 3.19641 11.2529 3.19641 9.75293C3.19641 8.25293 4.40345 7.03418 5.91516 7.03418C7.40345 7.03418 8.62219 8.25293 8.62219 9.75293C8.62219 11.2529 7.40345 12.4717 5.91516 12.4717ZM12.2785 12.4717C10.7785 12.4717 9.57141 11.2529 9.57141 9.75293C9.57141 8.25293 10.7785 7.03418 12.2785 7.03418C13.7902 7.03418 14.9972 8.25293 14.9972 9.75293C14.9972 11.2529 13.7902 12.4717 12.2785 12.4717ZM18.6535 12.4717C17.1652 12.4717 15.9347 11.2529 15.9347 9.75293C15.9347 8.25293 17.1652 7.03418 18.6535 7.03418C20.1535 7.03418 21.3722 8.25293 21.3722 9.75293C21.3722 11.2529 20.1535 12.4717 18.6535 12.4717ZM9.09095 18.0615C7.59095 18.0615 6.38391 16.8427 6.38391 15.3427C6.38391 13.8427 7.59095 12.624 9.09095 12.624C10.6027 12.624 11.8097 13.8427 11.8097 15.3427C11.8097 16.8427 10.6027 18.0615 9.09095 18.0615ZM15.466 18.0615C13.966 18.0615 12.7472 16.8427 12.7472 15.3427C12.7472 13.8427 13.966 12.624 15.466 12.624C16.9777 12.624 18.1847 13.8427 18.1847 15.3427C18.1847 16.8427 16.9777 18.0615 15.466 18.0615Z" fill="white"/>
</g>
<defs>
<clipPath id="clip0_2207_17738">
<rect width="24.4805" height="21.5742" fill="white" transform="translate(0.0440674 0.0615234)"/>
</clipPath>
</defs>
</svg>
