<svg width="27" height="26" viewBox="0 0 27 26" fill="none" xmlns="http://www.w3.org/2000/svg">
<g clip-path="url(#clip0_2207_17788)">
<path d="M13.3149 25.1982C20.6274 25.1982 26.5688 19.2568 26.5688 11.9443C26.5688 7.06933 23.9321 2.81543 20.2055 0.647461C19.5258 0.249023 18.8344 0.0615234 18.0376 0.0615234H8.59229C7.79541 0.0615234 7.104 0.249023 6.42431 0.647461C2.69775 2.81543 0.0610352 7.06933 0.0610352 11.9443C0.0610352 19.2568 6.00244 25.1982 13.3149 25.1982Z" fill="black" fill-opacity="0.85"/>
<path d="M9.38916 7.01074C8.49854 7.01074 7.76026 6.28418 7.76026 5.38183C7.76026 4.47949 8.49854 3.74121 9.38916 3.74121C10.2915 3.74121 11.0298 4.47949 11.0298 5.38183C11.0298 6.28418 10.2915 7.01074 9.38916 7.01074ZM13.3149 7.01074C12.4126 7.01074 11.686 6.28418 11.686 5.38183C11.686 4.47949 12.4126 3.74121 13.3149 3.74121C14.2172 3.74121 14.9438 4.47949 14.9438 5.38183C14.9438 6.28418 14.2172 7.01074 13.3149 7.01074ZM17.2407 7.01074C16.3383 7.01074 15.6001 6.28418 15.6001 5.38183C15.6001 4.47949 16.3383 3.74121 17.2407 3.74121C18.143 3.74121 18.8696 4.47949 18.8696 5.38183C18.8696 6.28418 18.143 7.01074 17.2407 7.01074ZM13.3149 10.9365C12.4126 10.9365 11.686 10.1982 11.686 9.30761C11.686 8.40527 12.4126 7.66699 13.3149 7.66699C14.2172 7.66699 14.9438 8.40527 14.9438 9.30761C14.9438 10.1982 14.2172 10.9365 13.3149 10.9365ZM7.31495 15.5185C5.33448 15.5185 3.71729 13.9131 3.71729 11.9326C3.71729 9.96386 5.33448 8.3584 7.31495 8.3584C9.2837 8.3584 10.8891 9.96386 10.8891 11.9326C10.8891 13.9131 9.2837 15.5185 7.31495 15.5185ZM19.3149 15.5185C17.3462 15.5185 15.7407 13.9131 15.7407 11.9326C15.7407 9.96386 17.3462 8.3584 19.3149 8.3584C21.2954 8.3584 22.9126 9.96386 22.9126 11.9326C22.9126 13.9131 21.2954 15.5185 19.3149 15.5185ZM8.24073 19.9951C7.42042 19.9951 6.75245 19.3271 6.75245 18.5185C6.75245 17.7099 7.42042 17.0303 8.24073 17.0303C9.04932 17.0303 9.71729 17.7099 9.71729 18.5185C9.71729 19.3271 9.04932 19.9951 8.24073 19.9951ZM13.3149 21.0263C11.9321 21.0263 10.8071 19.8896 10.8071 18.5185C10.8071 17.1357 11.9321 15.999 13.3149 15.999C14.6977 15.999 15.8227 17.1357 15.8227 18.5185C15.8227 19.8896 14.6977 21.0263 13.3149 21.0263ZM18.4008 19.9951C17.5805 19.9951 16.9126 19.3271 16.9126 18.5185C16.9126 17.7099 17.5805 17.0303 18.4008 17.0303C19.2094 17.0303 19.8774 17.7099 19.8774 18.5185C19.8774 19.3271 19.2094 19.9951 18.4008 19.9951Z" fill="white"/>
</g>
<defs>
<clipPath id="clip0_2207_17788">
<rect width="26.5078" height="25.1602" fill="white" transform="translate(0.0610352 0.0615234)"/>
</clipPath>
</defs>
</svg>
