<svg width="28" height="25" viewBox="0 0 28 25" fill="none" xmlns="http://www.w3.org/2000/svg">
<g clip-path="url(#clip0_2207_17748)">
<path d="M13.934 24.542C21.727 24.542 27.8325 18.4365 27.8325 11.1006C27.8325 7.22168 26.145 3.71777 23.7192 1.43261C22.7114 0.483398 21.6215 0.0615234 20.1215 0.0615234H7.74658C6.24658 0.0615234 5.15673 0.483398 4.14892 1.43261C1.72314 3.71777 0.0356445 7.22168 0.0356445 11.1006C0.0356445 18.4365 6.15283 24.542 13.934 24.542Z" fill="black" fill-opacity="0.85"/>
<path d="M10.2544 7.79591C9.08252 7.79591 8.1333 6.83497 8.1333 5.68653C8.1333 4.52637 9.08252 3.57715 10.2544 3.57715C11.4145 3.57715 12.352 4.52637 12.352 5.68653C12.352 6.83497 11.4145 7.79591 10.2544 7.79591ZM17.6254 7.79591C16.4536 7.79591 15.5161 6.83497 15.5161 5.68653C15.5161 4.52637 16.4536 3.57715 17.6254 3.57715C18.7856 3.57715 19.7348 4.52637 19.7348 5.68653C19.7348 6.83497 18.7856 7.79591 17.6254 7.79591ZM6.55126 13.9951C4.9458 13.9951 3.6333 12.6826 3.6333 11.0771C3.6333 9.45997 4.9458 8.15919 6.55126 8.15919C8.16845 8.15919 9.48095 9.45997 9.48095 11.0771C9.48095 12.6826 8.16845 13.9951 6.55126 13.9951ZM13.934 13.9951C12.3286 13.9951 11.0161 12.6826 11.0161 11.0771C11.0161 9.45997 12.3286 8.15919 13.934 8.15919C15.5395 8.15919 16.852 9.45997 16.852 11.0771C16.852 12.6826 15.5395 13.9951 13.934 13.9951ZM21.3168 13.9951C19.7114 13.9951 18.3872 12.6826 18.3872 11.0771C18.3872 9.45997 19.7114 8.15919 21.3168 8.15919C22.9223 8.15919 24.2348 9.45997 24.2348 11.0771C24.2348 12.6826 22.9223 13.9951 21.3168 13.9951ZM10.2544 20.2646C8.6372 20.2646 7.3247 18.9638 7.3247 17.3467C7.3247 15.7412 8.6372 14.417 10.2544 14.417C11.8598 14.417 13.1723 15.7412 13.1723 17.3467C13.1723 18.9638 11.8598 20.2646 10.2544 20.2646ZM17.6254 20.2646C16.02 20.2646 14.7075 18.9638 14.7075 17.3467C14.7075 15.7412 16.02 14.417 17.6254 14.417C19.2309 14.417 20.5434 15.7412 20.5434 17.3467C20.5434 18.9638 19.2309 20.2646 17.6254 20.2646Z" fill="white"/>
</g>
<defs>
<clipPath id="clip0_2207_17748">
<rect width="27.7969" height="24.5039" fill="white" transform="translate(0.0356445 0.0615234)"/>
</clipPath>
</defs>
</svg>
