<svg width="4" height="23" viewBox="0 0 4 23" fill="none" xmlns="http://www.w3.org/2000/svg">
<g clip-path="url(#clip0_2207_22692)">
<path d="M1.74292 16.0459C2.36402 16.0459 2.78589 15.6357 2.79761 15.0029L2.90308 1.35058C2.90308 0.682618 2.36402 0.225586 1.7312 0.225586C1.09839 0.225586 0.559327 0.682618 0.559327 1.35058L0.688233 15.0029C0.699951 15.6357 1.12183 16.0459 1.74292 16.0459ZM1.7312 22.5029C2.65698 22.5029 3.39526 21.7529 3.39526 20.8388C3.39526 19.9131 2.65698 19.1748 1.7312 19.1748C0.817139 19.1748 0.0671387 19.9131 0.0671387 20.8388C0.0671387 21.7529 0.817139 22.5029 1.7312 22.5029Z" fill="black" fill-opacity="0.85"/>
</g>
<defs>
<clipPath id="clip0_2207_22692">
<rect width="3.32812" height="22.4414" fill="white" transform="translate(0.0671387 0.0615234)"/>
</clipPath>
</defs>
</svg>
