<svg width="24" height="24" viewBox="0 0 24 24" fill="none" xmlns="http://www.w3.org/2000/svg">
<g clip-path="url(#clip0_2207_9140)">
<path d="M12.0371 23.9677C18.5762 23.9677 23.9902 18.542 23.9902 12.0146C23.9902 5.47558 18.5645 0.0615234 12.0254 0.0615234C5.49804 0.0615234 0.0839844 5.47558 0.0839844 12.0146C0.0839844 18.542 5.50976 23.9677 12.0371 23.9677ZM12.0371 21.9756C6.50586 21.9756 2.08789 17.5459 2.08789 12.0146C2.08789 6.4834 6.49414 2.05371 12.0254 2.05371C17.5567 2.05371 21.9981 6.4834 21.9981 12.0146C21.9981 17.5459 17.5684 21.9756 12.0371 21.9756Z" fill="black" fill-opacity="0.85"/>
<path d="M9.09571 18.7763C9.33008 18.7763 9.48243 18.6709 9.75196 18.4248L11.8496 16.5263H15.7637C17.4629 16.5263 18.4004 15.5771 18.4004 13.8779V9.45996C18.4004 7.78418 17.4629 6.82324 15.7637 6.82324H8.31055C6.61133 6.82324 5.67383 7.77246 5.67383 9.45996V13.8779C5.67383 15.5771 6.61133 16.5263 8.31055 16.5263H8.5918V18.2021C8.5918 18.5537 8.7793 18.7763 9.09571 18.7763ZM12.0371 12.7646C11.7324 12.7646 11.5684 12.5888 11.5567 12.2842L11.4863 9.14355C11.4746 8.82714 11.709 8.58105 12.0254 8.58105C12.3535 8.58105 12.5996 8.82714 12.5879 9.14355L12.5059 12.2842C12.5059 12.5888 12.3301 12.7646 12.0371 12.7646ZM12.0371 14.6865C11.6856 14.6865 11.3692 14.4053 11.3692 14.0537C11.3692 13.7021 11.6738 13.4092 12.0371 13.4092C12.4004 13.4092 12.7051 13.6904 12.7051 14.0537C12.7051 14.4053 12.3887 14.6865 12.0371 14.6865Z" fill="black" fill-opacity="0.85"/>
</g>
<defs>
<clipPath id="clip0_2207_9140">
<rect width="23.9062" height="23.918" fill="white" transform="translate(0.0839844 0.0615234)"/>
</clipPath>
</defs>
</svg>
