<svg width="18" height="26" viewBox="0 0 18 26" fill="none" xmlns="http://www.w3.org/2000/svg">
<g clip-path="url(#clip0_2207_14091)">
<path d="M0.0734863 17.3467C0.0734863 19.1631 0.78833 20.499 2.11255 21.2256C2.75708 21.5654 3.13208 21.999 3.36646 22.7842L3.74146 24.0381C3.96411 24.7881 4.49146 25.1513 5.27661 25.1513H10.6907C11.4993 25.1513 11.9915 24.7998 12.2141 24.0381L12.6008 22.7842C12.8352 21.999 13.2102 21.5654 13.8547 21.2256C15.179 20.499 15.8938 19.1631 15.8938 17.3467V7.86621C15.8938 6.0498 15.179 4.72558 13.8547 3.9873C13.2102 3.64746 12.8352 3.21386 12.6008 2.44043L12.2141 1.1748C12.0149 0.436523 11.4876 0.0615234 10.6907 0.0615234H5.27661C4.49146 0.0615234 3.96411 0.424805 3.74146 1.1748L3.36646 2.44043C3.1438 3.20214 2.7688 3.65918 2.11255 3.9873C0.800048 4.69043 0.0734863 6.02636 0.0734863 7.86621V17.3467ZM1.78443 17.1006V8.12402C1.78443 6.37793 2.80396 5.32324 4.5149 5.32324H11.4524C13.1633 5.32324 14.1829 6.37793 14.1829 8.12402V17.1006C14.1829 18.8349 13.1633 19.8896 11.4524 19.8896H4.5149C2.80396 19.8896 1.78443 18.8349 1.78443 17.1006ZM15.636 11.7803H16.0579C16.6673 11.7803 17.0657 11.3701 17.0657 10.7021V9.12011C17.0657 8.45214 16.6673 8.04199 16.0579 8.04199H15.636V11.7803Z" fill="black" fill-opacity="0.85"/>
<path d="M8.03052 13.6553C8.55787 13.6553 8.86255 13.3506 8.88599 12.7763L9.03833 8.67481C9.06177 8.06544 8.60474 7.64355 8.0188 7.64355C7.42115 7.64355 6.97583 8.05371 6.99927 8.66308L7.15161 12.7763C7.17505 13.3388 7.46802 13.6553 8.03052 13.6553ZM8.0188 17.2177C8.66333 17.2177 9.21411 16.7138 9.21411 16.0576C9.21411 15.4131 8.67505 14.9092 8.0188 14.9092C7.36255 14.9092 6.81177 15.4248 6.81177 16.0576C6.81177 16.7021 7.37427 17.2177 8.0188 17.2177Z" fill="black" fill-opacity="0.85"/>
</g>
<defs>
<clipPath id="clip0_2207_14091">
<rect width="16.9922" height="25.0898" fill="white" transform="translate(0.0734863 0.0615234)"/>
</clipPath>
</defs>
</svg>
