<svg width="29" height="24" viewBox="0 0 29 24" fill="none" xmlns="http://www.w3.org/2000/svg">
<g clip-path="url(#clip0_2207_24552)">
<path d="M0.313593 12.0498C-0.143438 12.6943 0.0674992 13.2685 0.911249 13.2685H2.52844C3.16125 19.2334 8.30578 23.9677 14.4112 23.9677C17.9854 23.9677 21.2198 22.3388 23.4229 19.8076C23.8565 19.3037 23.7979 18.6709 23.3409 18.3427C22.8839 18.0146 22.3214 18.1318 21.9464 18.5654C20.13 20.6631 17.4346 21.9756 14.4112 21.9756C9.30188 21.9756 5.14172 18.1904 4.54406 13.2685H6.29016C7.12219 13.2685 7.33313 12.6943 6.88781 12.0615L4.26281 8.32324C3.88781 7.78418 3.32531 7.77246 2.9386 8.32324L0.313593 12.0498ZM5.41125 4.22168C4.96594 4.72558 5.02453 5.34668 5.49328 5.6748C5.95031 6.00293 6.5011 5.89746 6.88781 5.46386C8.71594 3.37793 11.4112 2.05371 14.4112 2.05371C19.5089 2.05371 23.669 5.83886 24.2784 10.7724H22.5323C21.7003 10.7724 21.4893 11.3349 21.9346 11.9795L24.5596 15.7177C24.9346 16.2568 25.4971 16.2685 25.8839 15.7177L28.4971 11.9912C28.9659 11.3349 28.7432 10.7724 27.8995 10.7724H26.294C25.6495 4.80761 20.5167 0.0615234 14.4112 0.0615234C10.837 0.0615234 7.61438 1.67871 5.41125 4.22168Z" fill="black" fill-opacity="0.85"/>
<path d="M14.3996 14.124C14.9621 14.124 15.2902 13.8076 15.3019 13.1982L15.466 7.01074C15.4777 6.41308 15.009 5.96777 14.3879 5.96777C13.7551 5.96777 13.3097 6.40136 13.3215 6.99902L13.4855 13.1982C13.4972 13.7959 13.8137 14.124 14.3996 14.124ZM14.3996 17.9326C15.0793 17.9326 15.6652 17.3935 15.6652 16.7138C15.6652 16.0342 15.091 15.4951 14.3996 15.4951C13.7082 15.4951 13.134 16.0459 13.134 16.7138C13.134 17.3818 13.7199 17.9326 14.3996 17.9326Z" fill="black" fill-opacity="0.85"/>
</g>
<defs>
<clipPath id="clip0_2207_24552">
<rect width="28.6607" height="23.918" fill="white" transform="translate(0.0776367 0.0615234)"/>
</clipPath>
</defs>
</svg>
