<svg width="13" height="23" viewBox="0 0 13 23" fill="none" xmlns="http://www.w3.org/2000/svg">
<g clip-path="url(#clip0_2207_22696)">
<path d="M10.3935 16.0459C11.0146 16.0459 11.4365 15.6357 11.4482 15.0029L11.5537 1.35058C11.5537 0.682618 11.0146 0.225586 10.3818 0.225586C9.76074 0.225586 9.20995 0.682618 9.20995 1.35058L9.33886 15.0029C9.35058 15.6357 9.78417 16.0459 10.3935 16.0459ZM10.3818 22.5029C11.3193 22.5029 12.0576 21.7529 12.0576 20.8388C12.0576 19.9131 11.3193 19.1748 10.3818 19.1748C9.46777 19.1748 8.71777 19.9131 8.71777 20.8388C8.71777 21.7529 9.46777 22.5029 10.3818 22.5029Z" fill="black" fill-opacity="0.85"/>
<path d="M1.74512 16.0459C2.36622 16.0459 2.78809 15.6357 2.79981 15.0029L2.90528 1.35058C2.90528 0.682618 2.36622 0.225586 1.7334 0.225586C1.10059 0.225586 0.561524 0.682618 0.561524 1.35058L0.69043 15.0029C0.702148 15.6357 1.12403 16.0459 1.74512 16.0459ZM1.7334 22.5029C2.65918 22.5029 3.39746 21.7529 3.39746 20.8388C3.39746 19.9131 2.65918 19.1748 1.7334 19.1748C0.819336 19.1748 0.0693359 19.9131 0.0693359 20.8388C0.0693359 21.7529 0.819336 22.5029 1.7334 22.5029Z" fill="black" fill-opacity="0.85"/>
</g>
<defs>
<clipPath id="clip0_2207_22696">
<rect width="11.9883" height="22.4414" fill="white" transform="translate(0.0693359 0.0615234)"/>
</clipPath>
</defs>
</svg>
