<svg width="34" height="23" viewBox="0 0 34 23" fill="none" xmlns="http://www.w3.org/2000/svg">
<g clip-path="url(#clip0_2207_15946)">
<path d="M0.079834 11.4873C0.079834 15.2021 1.28686 18.6123 3.32592 21.3896C3.68921 21.8935 4.3103 21.9404 4.77905 21.5654C5.20092 21.2021 5.25952 20.6396 4.91967 20.1709C3.13842 17.7451 2.08374 14.7334 2.08374 11.4873C2.08374 8.22951 3.13842 5.22951 4.91967 2.78029C5.25952 2.33498 5.21264 1.76076 4.77905 1.39748C4.3103 1.02248 3.68921 1.08107 3.32592 1.57326C1.28686 4.3506 0.079834 7.77248 0.079834 11.4873ZM33.5251 11.4873C33.5251 7.77248 32.3298 4.3506 30.279 1.57326C29.9157 1.08107 29.2946 1.02248 28.8259 1.39748C28.3923 1.76076 28.3571 2.33498 28.6853 2.78029C30.4782 5.22951 31.5212 8.22951 31.5212 11.4873C31.5212 14.7334 30.4782 17.7451 28.6853 20.1709C28.3571 20.6396 28.404 21.2021 28.8259 21.5654C29.2946 21.9404 29.9157 21.8935 30.279 21.3896C32.3298 18.6123 33.5251 15.2021 33.5251 11.4873Z" fill="black" fill-opacity="0.85"/>
<path d="M16.8025 22.9131C23.0486 22.9131 28.24 17.7334 28.24 11.4873C28.24 5.24121 23.0486 0.0615234 16.7907 0.0615234C10.5446 0.0615234 5.37671 5.22949 5.37671 11.4873C5.37671 17.7334 10.5564 22.9131 16.8025 22.9131ZM16.8025 20.9209C11.5759 20.9209 7.38061 16.7256 7.38061 11.4873C7.38061 6.2373 11.5642 2.04199 16.7907 2.04199C22.029 2.04199 26.236 6.2373 26.2478 11.4873C26.2595 16.7138 22.0525 20.9209 16.8025 20.9209Z" fill="black" fill-opacity="0.85"/>
<path d="M16.7907 13.5967C17.3532 13.5967 17.6696 13.2803 17.6814 12.6709L17.8571 6.4834C17.8689 5.88574 17.4001 5.44043 16.779 5.44043C16.1462 5.44043 15.7009 5.87402 15.7126 6.47168L15.865 12.6709C15.8767 13.2685 16.2048 13.5967 16.7907 13.5967ZM16.7907 17.4053C17.4587 17.4053 18.0446 16.8662 18.0446 16.1865C18.0446 15.5068 17.4704 14.9677 16.7907 14.9677C16.0993 14.9677 15.5251 15.5185 15.5251 16.1865C15.5251 16.8545 16.111 17.4053 16.7907 17.4053Z" fill="black" fill-opacity="0.85"/>
</g>
<defs>
<clipPath id="clip0_2207_15946">
<rect width="33.4453" height="22.8633" fill="white" transform="translate(0.079834 0.0615234)"/>
</clipPath>
</defs>
</svg>
