<svg width="21" height="23" viewBox="0 0 21 23" fill="none" xmlns="http://www.w3.org/2000/svg">
<g clip-path="url(#clip0_2207_22701)">
<path d="M19.0557 16.0459C19.6651 16.0459 20.0986 15.6357 20.1104 15.0029L20.2158 1.35058C20.2158 0.682618 19.6651 0.225586 19.044 0.225586C18.4111 0.225586 17.8604 0.682618 17.8604 1.35058L17.9893 15.0029C18.001 15.6357 18.4346 16.0459 19.0557 16.0459ZM19.044 22.5029C19.9697 22.5029 20.708 21.7529 20.708 20.8388C20.708 19.9131 19.9697 19.1748 19.044 19.1748C18.1182 19.1748 17.3682 19.9131 17.3682 20.8388C17.3682 21.7529 18.1182 22.5029 19.044 22.5029Z" fill="black" fill-opacity="0.85"/>
<path d="M10.3955 16.0459C11.0166 16.0459 11.4385 15.6357 11.4502 15.0029L11.5557 1.35058C11.5557 0.682618 11.0166 0.225586 10.3838 0.225586C9.7627 0.225586 9.21191 0.682618 9.21191 1.35058L9.34082 15.0029C9.35254 15.6357 9.78613 16.0459 10.3955 16.0459ZM10.3838 22.5029C11.3213 22.5029 12.0596 21.7529 12.0596 20.8388C12.0596 19.9131 11.3213 19.1748 10.3838 19.1748C9.46973 19.1748 8.71973 19.9131 8.71973 20.8388C8.71973 21.7529 9.46973 22.5029 10.3838 22.5029Z" fill="black" fill-opacity="0.85"/>
<path d="M1.74707 16.0459C2.36817 16.0459 2.79004 15.6357 2.80176 15.0029L2.90723 1.35058C2.90723 0.682618 2.36817 0.225586 1.73535 0.225586C1.10254 0.225586 0.563477 0.682618 0.563477 1.35058L0.692383 15.0029C0.704101 15.6357 1.12598 16.0459 1.74707 16.0459ZM1.73535 22.5029C2.66113 22.5029 3.39941 21.7529 3.39941 20.8388C3.39941 19.9131 2.66113 19.1748 1.73535 19.1748C0.821289 19.1748 0.0712891 19.9131 0.0712891 20.8388C0.0712891 21.7529 0.821289 22.5029 1.73535 22.5029Z" fill="black" fill-opacity="0.85"/>
</g>
<defs>
<clipPath id="clip0_2207_22701">
<rect width="20.6367" height="22.4414" fill="white" transform="translate(0.0712891 0.0615234)"/>
</clipPath>
</defs>
</svg>
