<svg width="24" height="24" viewBox="0 0 24 24" fill="none" xmlns="http://www.w3.org/2000/svg">
<g clip-path="url(#clip0_2207_22707)">
<path d="M12.0434 23.9677C18.5825 23.9677 23.9965 18.542 23.9965 12.0146C23.9965 5.47558 18.5708 0.0615234 12.0317 0.0615234C5.50439 0.0615234 0.090332 5.47558 0.090332 12.0146C0.090332 18.542 5.51611 23.9677 12.0434 23.9677ZM12.0434 21.9756C6.51221 21.9756 2.09424 17.5459 2.09424 12.0146C2.09424 6.4834 6.50049 2.05371 12.0317 2.05371C17.563 2.05371 22.0044 6.4834 22.0044 12.0146C22.0044 17.5459 17.5747 21.9756 12.0434 21.9756Z" fill="black" fill-opacity="0.85"/>
<path d="M12.0317 14.124C12.5825 14.124 12.9106 13.8076 12.9223 13.1982L13.0981 7.01074C13.1098 6.41308 12.6411 5.96777 12.02 5.96777C11.3872 5.96777 10.9419 6.40136 10.9536 6.99902L11.1059 13.1982C11.1176 13.7959 11.4458 14.124 12.0317 14.124ZM12.0317 17.9326C12.6997 17.9326 13.2856 17.3935 13.2856 16.7138C13.2856 16.0342 12.7114 15.4951 12.0317 15.4951C11.3403 15.4951 10.7661 16.0459 10.7661 16.7138C10.7661 17.3818 11.352 17.9326 12.0317 17.9326Z" fill="black" fill-opacity="0.85"/>
</g>
<defs>
<clipPath id="clip0_2207_22707">
<rect width="23.9062" height="23.918" fill="white" transform="translate(0.090332 0.0615234)"/>
</clipPath>
</defs>
</svg>
