<svg width="24" height="24" viewBox="0 0 24 24" fill="none" xmlns="http://www.w3.org/2000/svg">
<g clip-path="url(#clip0_2207_9145)">
<path d="M12.0393 23.9795C18.5784 23.9795 23.9924 18.5654 23.9924 12.0263C23.9924 5.49902 18.5667 0.0732422 12.0276 0.0732422C5.50024 0.0732422 0.0861816 5.49902 0.0861816 12.0263C0.0861816 18.5654 5.51196 23.9795 12.0393 23.9795Z" fill="black" fill-opacity="0.85"/>
<path d="M9.01588 18.9873C8.68775 18.9873 8.48853 18.7412 8.48853 18.3779V16.6553H8.19557C6.44947 16.6553 5.47681 15.6709 5.47681 13.9248V9.36621C5.47681 7.64355 6.44947 6.65918 8.19557 6.65918H15.8831C17.6292 6.65918 18.6018 7.64355 18.6018 9.36621V13.9248C18.6018 15.6709 17.6292 16.6553 15.8831 16.6553H11.8518L9.69557 18.6123C9.41431 18.8818 9.25025 18.9873 9.01588 18.9873ZM12.0393 12.7763C12.344 12.7763 12.5198 12.5888 12.5198 12.2724L12.6135 9.03808C12.6253 8.70996 12.3674 8.47558 12.0276 8.47558C11.6995 8.47558 11.4534 8.70996 11.4651 9.03808L11.5471 12.2724C11.5589 12.5888 11.7229 12.7763 12.0393 12.7763ZM12.0393 14.7685C12.4026 14.7685 12.7307 14.4756 12.7307 14.1123C12.7307 13.7373 12.4143 13.4443 12.0393 13.4443C11.6643 13.4443 11.3479 13.749 11.3479 14.1123C11.3479 14.4756 11.676 14.7685 12.0393 14.7685Z" fill="white"/>
</g>
<defs>
<clipPath id="clip0_2207_9145">
<rect width="23.9062" height="23.918" fill="white" transform="translate(0.0861816 0.0615234)"/>
</clipPath>
</defs>
</svg>
