<svg width="24" height="24" viewBox="0 0 24 24" fill="none" xmlns="http://www.w3.org/2000/svg">
<g clip-path="url(#clip0_2207_15778)">
<path d="M0.0168457 11.7583C0.0168457 14.4419 1.03638 16.5747 2.11451 18.2505C2.70044 19.1646 3.04029 20.0552 3.04029 20.7349V22.4575C3.04029 22.938 3.45044 23.3599 3.94263 23.3599C4.43482 23.3599 4.85669 22.938 4.85669 22.4575V21.8013H6.32154V22.4575C6.32154 22.938 6.74341 23.3599 7.2356 23.3599C7.72779 23.3599 8.13794 22.938 8.13794 22.4575V21.8013H9.46216V22.4575C9.46216 22.938 9.89576 23.3599 10.3879 23.3599C10.8801 23.3599 11.2902 22.938 11.2902 22.4575V21.8013H12.5676V22.4575C12.5676 22.938 12.9895 23.3599 13.4699 23.3599C13.9621 23.3599 14.3957 22.938 14.3957 22.4575V21.8013H15.7199V22.4575C15.7199 22.938 16.1301 23.3599 16.6223 23.3599C17.1145 23.3599 17.5363 22.938 17.5363 22.4575V21.8013H19.0012V22.4575C19.0012 22.938 19.423 23.3599 19.9152 23.3599C20.4074 23.3599 20.8293 22.938 20.8293 22.4575V20.7466C20.8293 20.1138 21.2043 19.1763 21.8606 18.0864C22.8684 16.4458 23.8527 14.3599 23.8527 11.7583C23.8527 8.78174 22.7043 6.27393 21.1223 4.27002C20.4777 3.42627 20.4426 3.20361 20.4426 2.65283V0.97705C20.4426 0.484863 20.009 0.0629883 19.5168 0.0629883C19.0246 0.0629883 18.6145 0.484863 18.6145 0.97705V2.78174C18.6145 4.10596 18.8137 4.30518 19.5754 5.28955C20.8996 7.00049 21.966 9.10987 21.966 11.7583C21.966 14.9927 20.3137 17.313 17.8879 18.7075H5.96997C3.55591 17.313 1.90357 14.9927 1.90357 11.7583C1.90357 9.10987 2.96997 7.00049 4.28247 5.28955C5.05591 4.30518 5.25513 4.10596 5.25513 2.78174V0.97705C5.25513 0.484863 4.83326 0.0629883 4.35279 0.0629883C3.8606 0.0629883 3.42701 0.484863 3.42701 0.97705V2.65283C3.42701 3.20361 3.39185 3.42627 2.7356 4.27002C1.16529 6.27393 0.0168457 8.78174 0.0168457 11.7583Z" fill="black" fill-opacity="0.85"/>
<path d="M11.9465 11.7583C12.509 11.7583 12.8254 11.4302 12.8488 10.8208L13.0129 6.52002C13.0363 5.87549 12.5559 5.43018 11.9348 5.43018C11.302 5.43018 10.8449 5.86377 10.8684 6.5083L11.0207 10.8208C11.0441 11.4185 11.3606 11.7583 11.9465 11.7583ZM11.9348 15.4966C12.6145 15.4966 13.2004 14.9575 13.2004 14.2778C13.2004 13.5982 12.6262 13.0591 11.9348 13.0591C11.2434 13.0591 10.6691 13.6099 10.6691 14.2778C10.6691 14.9458 11.2551 15.4966 11.9348 15.4966Z" fill="black" fill-opacity="0.85"/>
</g>
<defs>
<clipPath id="clip0_2207_15778">
<rect width="23.8359" height="23.332" fill="white" transform="translate(0.0168457 0.0629883)"/>
</clipPath>
</defs>
</svg>
