<svg width="25" height="24" viewBox="0 0 25 24" fill="none" xmlns="http://www.w3.org/2000/svg">
<g clip-path="url(#clip0_2207_22732)">
<path d="M8.48853 23.2427H15.6019C17.09 23.2427 17.7933 22.7622 18.5667 21.9302L23.1136 16.9146C23.8752 16.0708 24.0862 15.4966 24.0862 14.3364V8.98096C24.0862 7.80908 23.8752 7.24658 23.1136 6.40283L18.5667 1.38721C17.7933 0.555176 17.09 0.0629883 15.6019 0.0629883H8.48853C7.00024 0.0629883 6.2854 0.555176 5.52368 1.38721L0.976806 6.40283C0.203369 7.24658 0.00415039 7.80908 0.00415039 8.98096V14.3364C0.00415039 15.4966 0.203369 16.0708 0.976806 16.9146L5.52368 21.9302C6.2854 22.7622 7.00024 23.2427 8.48853 23.2427Z" fill="black" fill-opacity="0.85"/>
<path d="M12.0511 13.8325C11.4417 13.8325 11.1019 13.4927 11.0901 12.8716L10.9378 6.48487C10.9261 5.86377 11.3831 5.41846 12.0394 5.41846C12.6839 5.41846 13.1644 5.87549 13.1526 6.49658L12.9886 12.8716C12.9769 13.5044 12.637 13.8325 12.0511 13.8325ZM12.0511 17.7583C11.348 17.7583 10.7386 17.1958 10.7386 16.5044C10.7386 15.813 11.3362 15.2388 12.0511 15.2388C12.7659 15.2388 13.3636 15.8013 13.3636 16.5044C13.3636 17.2075 12.7542 17.7583 12.0511 17.7583Z" fill="white"/>
</g>
<defs>
<clipPath id="clip0_2207_22732">
<rect width="24.082" height="23.1914" fill="white" transform="translate(0.00415039 0.0629883)"/>
</clipPath>
</defs>
</svg>
