<svg width="26" height="26" viewBox="0 0 26 26" fill="none" xmlns="http://www.w3.org/2000/svg">
<g clip-path="url(#clip0_2207_9135)">
<path d="M7.04907 25.9482C7.5061 25.9482 7.84594 25.7138 8.39672 25.1982L12.6272 21.331H20.549C24.0412 21.331 25.9162 19.4092 25.9162 15.9756V6.99903C25.9162 3.56544 24.0412 1.63184 20.549 1.63184H5.45532C1.96313 1.63184 0.0881348 3.55372 0.0881348 6.99903V15.9756C0.0881348 19.4209 1.96313 21.331 5.45532 21.331H6.0061V24.7412C6.0061 25.4677 6.3811 25.9482 7.04907 25.9482Z" fill="black" fill-opacity="0.85"/>
<path d="M13.0139 13.6553C12.4045 13.6553 12.0647 13.3154 12.0529 12.6943L11.9006 6.31933C11.8889 5.69824 12.3459 5.24121 13.0022 5.24121C13.6467 5.24121 14.1272 5.70996 14.1154 6.33105L13.9397 12.6943C13.9279 13.3271 13.5881 13.6553 13.0139 13.6553ZM13.0139 17.581C12.3108 17.581 11.7014 17.0303 11.7014 16.3271C11.7014 15.6357 12.299 15.0732 13.0139 15.0732C13.717 15.0732 14.3147 15.624 14.3147 16.3271C14.3147 17.042 13.7053 17.581 13.0139 17.581Z" fill="white"/>
</g>
<defs>
<clipPath id="clip0_2207_9135">
<rect width="25.8281" height="25.8867" fill="white" transform="translate(0.0881348 0.0615234)"/>
</clipPath>
</defs>
</svg>
