<svg width="33" height="21" viewBox="0 0 33 21" fill="none" xmlns="http://www.w3.org/2000/svg">
<g clip-path="url(#clip0_2207_18422)">
<path d="M16.1035 20.1607C25.5723 20.1607 32.1113 12.5083 32.1113 10.1177C32.1113 7.71533 25.5606 0.074707 16.1035 0.074707C6.76367 0.074707 0.0839844 7.71533 0.0839844 10.1177C0.0839844 12.5083 6.75196 20.1607 16.1035 20.1607ZM16.1035 18.3091C8.38087 18.3091 2.13476 11.77 2.13476 10.1177C2.13476 8.72315 8.38087 1.92627 16.1035 1.92627C23.791 1.92627 30.0606 8.72315 30.0606 10.1177C30.0606 11.77 23.791 18.3091 16.1035 18.3091ZM16.1035 16.6802C19.7481 16.6802 22.6778 13.6919 22.6778 10.1177C22.6778 6.44971 19.7481 3.55518 16.1035 3.55518C12.4356 3.55518 9.50586 6.44971 9.50586 10.1177C9.50586 13.6919 12.4356 16.6802 16.1035 16.6802ZM16.1035 12.2974C14.8848 12.2974 13.9004 11.313 13.9004 10.1177C13.9004 8.91065 14.8848 7.93799 16.1035 7.93799C17.3106 7.93799 18.2949 8.91065 18.2949 10.1177C18.2949 11.313 17.3106 12.2974 16.1035 12.2974Z" fill="black" fill-opacity="0.85"/>
</g>
<defs>
<clipPath id="clip0_2207_18422">
<rect width="32.0273" height="20.0977" fill="white" transform="translate(0.0839844 0.0629883)"/>
</clipPath>
</defs>
</svg>
