<svg width="32" height="20" viewBox="0 0 32 20" fill="none" xmlns="http://www.w3.org/2000/svg">
<g clip-path="url(#clip0_2207_18426)">
<path d="M15.9809 19.9966C25.3676 19.9966 31.8598 12.4028 31.8598 10.0356C31.8598 7.65674 25.3559 0.074707 15.9809 0.074707C6.71142 0.074707 0.090332 7.65674 0.090332 10.0356C0.090332 12.4028 6.71142 19.9966 15.9809 19.9966ZM15.9809 16.563C12.3247 16.563 9.41845 13.5982 9.41845 10.0356C9.41845 6.3794 12.3247 3.5083 15.9809 3.5083C19.602 3.5083 22.5317 6.3794 22.5317 10.0356C22.5317 13.5982 19.602 16.563 15.9809 16.563ZM15.9809 12.3911C17.2817 12.3911 18.3598 11.3247 18.3598 10.0356C18.3598 8.73487 17.2817 7.66846 15.9809 7.66846C14.6684 7.66846 13.5903 8.73487 13.5903 10.0356C13.5903 11.3247 14.6684 12.3911 15.9809 12.3911Z" fill="black" fill-opacity="0.85"/>
</g>
<defs>
<clipPath id="clip0_2207_18426">
<rect width="31.7695" height="19.9336" fill="white" transform="translate(0.090332 0.0629883)"/>
</clipPath>
</defs>
</svg>
