<svg width="32" height="25" viewBox="0 0 32 25" fill="none" xmlns="http://www.w3.org/2000/svg">
<g clip-path="url(#clip0_2207_18456)">
<path d="M15.9892 16.1997C18.0869 16.1997 19.7744 14.5005 19.7744 12.4028C19.7744 10.3052 18.0869 8.61767 15.9892 8.61767C13.8916 8.61767 12.1924 10.3052 12.1924 12.4028C12.1924 14.5005 13.8916 16.1997 15.9892 16.1997ZM15.9892 22.3638C25.3759 22.3638 31.8681 14.77 31.8681 12.4028C31.8681 10.0239 25.3642 2.44189 15.9892 2.44189C6.71972 2.44189 0.0986328 10.0239 0.0986328 12.4028C0.0986328 14.77 6.71972 22.3638 15.9892 22.3638ZM15.9892 18.9302C12.333 18.9302 9.42675 15.9653 9.42675 12.4028C9.42675 8.74657 12.333 5.87548 15.9892 5.87548C19.6103 5.87548 22.54 8.74657 22.54 12.4028C22.54 15.9653 19.6103 18.9302 15.9892 18.9302Z" fill="black" fill-opacity="0.85"/>
<path d="M23.9345 23.5239C24.8369 24.4146 26.2666 24.438 27.1572 23.5122C28.0595 22.5747 28.0244 21.1919 27.1455 20.313L7.55175 0.730957C6.67285 -0.159668 5.21972 -0.159668 4.3291 0.730957C3.45019 1.59815 3.45019 3.06299 4.3291 3.9419L23.9345 23.5239Z" fill="white"/>
<path d="M24.9072 22.5513C25.2588 22.9146 25.8095 22.938 26.1845 22.5513C26.5595 22.1646 26.5361 21.6372 26.1845 21.2739L6.5791 1.6919C6.23925 1.34033 5.65332 1.34033 5.29004 1.6919C4.95019 2.03174 4.95019 2.6294 5.29004 2.96924L24.9072 22.5513Z" fill="black" fill-opacity="0.85"/>
</g>
<defs>
<clipPath id="clip0_2207_18456">
<rect width="31.7695" height="24.668" fill="white" transform="translate(0.0986328 0.0629883)"/>
</clipPath>
</defs>
</svg>
