<svg width="33" height="25" viewBox="0 0 33 25" fill="none" xmlns="http://www.w3.org/2000/svg">
<g clip-path="url(#clip0_2207_18450)">
<path d="M16.1118 22.4458C25.5806 22.4458 32.1196 14.7935 32.1196 12.4028C32.1196 10.0005 25.5689 2.35986 16.1118 2.35986C6.77198 2.35986 0.0922852 10.0005 0.0922852 12.4028C0.0922852 14.7935 6.76026 22.4458 16.1118 22.4458ZM16.1118 20.5942C8.38917 20.5942 2.14307 14.0552 2.14307 12.4028C2.14307 11.0083 8.38917 4.21142 16.1118 4.21142C23.7993 4.21142 30.0689 11.0083 30.0689 12.4028C30.0689 14.0552 23.7993 20.5942 16.1118 20.5942ZM16.1118 18.9653C19.7564 18.9653 22.6861 15.9771 22.6861 12.4028C22.6861 8.73486 19.7564 5.84032 16.1118 5.84032C12.4439 5.84032 9.51416 8.73486 9.51416 12.4028C9.51416 15.9771 12.4439 18.9653 16.1118 18.9653ZM16.1118 14.5825C14.8931 14.5825 13.9087 13.5982 13.9087 12.4028C13.9087 11.1958 14.8931 10.2232 16.1118 10.2232C17.3189 10.2232 18.3032 11.1958 18.3032 12.4028C18.3032 13.5982 17.3189 14.5825 16.1118 14.5825Z" fill="black" fill-opacity="0.85"/>
<path d="M24.0571 23.5239C24.9595 24.4146 26.3892 24.438 27.2798 23.5122C28.1821 22.5747 28.147 21.1919 27.2681 20.313L7.67431 0.730957C6.7954 -0.159668 5.34228 -0.159668 4.45166 0.730957C3.57275 1.59815 3.57275 3.06299 4.45166 3.9419L24.0571 23.5239Z" fill="white"/>
<path d="M25.0298 22.5513C25.3814 22.9146 25.9321 22.938 26.3071 22.5513C26.6821 22.1646 26.6587 21.6372 26.3071 21.2739L6.70166 1.6919C6.36181 1.34033 5.77587 1.34033 5.41259 1.6919C5.07275 2.03174 5.07275 2.6294 5.41259 2.96924L25.0298 22.5513Z" fill="black" fill-opacity="0.85"/>
</g>
<defs>
<clipPath id="clip0_2207_18450">
<rect width="32.0273" height="24.668" fill="white" transform="translate(0.0922852 0.0629883)"/>
</clipPath>
</defs>
</svg>
