<svg width="37" height="15" viewBox="0 0 37 15" fill="none" xmlns="http://www.w3.org/2000/svg">
<g clip-path="url(#clip0_2207_18531)">
<path d="M9.59107 14.6895C13.6223 14.6895 16.8918 11.42 16.8918 7.37695C16.8918 3.3457 13.6223 0.0644531 9.59107 0.0644531C5.5481 0.0644531 2.26685 3.3457 2.26685 7.37695C2.26685 11.42 5.5481 14.6895 9.59107 14.6895ZM9.59107 12.709C6.63794 12.709 4.24732 10.3301 4.24732 7.37695C4.24732 4.43554 6.63794 2.04492 9.59107 2.04492C12.5207 2.04492 14.9113 4.44726 14.9113 7.37695C14.9113 10.3184 12.5207 12.709 9.59107 12.709ZM27.4387 14.6895C31.4699 14.6895 34.7395 11.42 34.7395 7.37695C34.7395 3.3457 31.4699 0.0644531 27.4387 0.0644531C23.3957 0.0644531 20.1145 3.3457 20.1145 7.37695C20.1145 11.42 23.3957 14.6895 27.4387 14.6895ZM27.4387 12.709C24.4973 12.709 22.0949 10.3184 22.0949 7.37695C22.0949 4.44726 24.4973 2.04492 27.4387 2.04492C30.3801 2.04492 32.759 4.43554 32.759 7.37695C32.759 10.3301 30.3801 12.709 27.4387 12.709ZM3.04029 5.93554H0.895752C0.321534 5.93554 0.0168457 6.22851 0.0168457 6.81445V7.29492C0.0168457 7.88086 0.321534 8.18554 0.895752 8.18554H3.04029V5.93554ZM33.966 8.18554H36.1223C36.6965 8.18554 36.9895 7.88086 36.9895 7.29492V6.81445C36.9895 6.22851 36.6965 5.93554 36.1223 5.93554H33.966V8.18554ZM16.3176 7.79883C16.9035 7.43554 17.7238 7.24804 18.509 7.24804C19.2824 7.24804 20.1027 7.43554 20.7004 7.79883V5.67773C20.0324 5.36133 19.1652 5.24414 18.509 5.24414C17.841 5.24414 16.9738 5.36133 16.3176 5.67773V7.79883Z" fill="black" fill-opacity="0.85"/>
</g>
<defs>
<clipPath id="clip0_2207_18531">
<rect width="36.9727" height="14.6367" fill="white" transform="translate(0.0168457 0.0644531)"/>
</clipPath>
</defs>
</svg>
