<svg width="24" height="24" viewBox="0 0 24 24" fill="none" xmlns="http://www.w3.org/2000/svg">
<g clip-path="url(#clip0_2207_18402)">
<path d="M11.9972 23.9707C18.5363 23.9707 23.9503 18.545 23.9503 12.0176C23.9503 5.47851 18.5246 0.0644531 11.9855 0.0644531C5.45813 0.0644531 0.0440674 5.47851 0.0440674 12.0176C0.0440674 18.545 5.46985 23.9707 11.9972 23.9707ZM11.9972 21.9786C6.46595 21.9786 2.04798 17.5489 2.04798 12.0176C2.04798 6.48633 6.45423 2.05664 11.9855 2.05664C17.5168 2.05664 21.9582 6.48633 21.9582 12.0176C21.9582 17.5489 17.5285 21.9786 11.9972 21.9786Z" fill="black" fill-opacity="0.85"/>
<path d="M11.9855 17.8887C14.4347 17.8887 16.0753 16.2598 16.0753 15.4864C16.0753 15.2051 15.8058 15.0762 15.5597 15.1934C14.7043 15.6622 13.6847 16.1895 11.9855 16.1895C10.2863 16.1895 9.26673 15.6504 8.42298 15.1934C8.16516 15.0762 7.89563 15.2051 7.89563 15.4864C7.89563 16.2598 9.53626 17.8887 11.9855 17.8887ZM8.51673 10.9747C9.25501 10.9747 9.91126 10.3067 9.91126 9.36914C9.91126 8.41992 9.26673 7.75195 8.51673 7.75195C7.77845 7.75195 7.13391 8.41992 7.13391 9.36914C7.13391 10.3067 7.77845 10.9747 8.51673 10.9747ZM15.466 10.9747C16.2043 10.9747 16.8605 10.3067 16.8605 9.36914C16.8605 8.41992 16.216 7.75195 15.466 7.75195C14.7277 7.75195 14.0832 8.41992 14.0832 9.36914C14.0832 10.3067 14.7277 10.9747 15.466 10.9747Z" fill="black" fill-opacity="0.85"/>
</g>
<defs>
<clipPath id="clip0_2207_18402">
<rect width="23.9062" height="23.918" fill="white" transform="translate(0.0440674 0.0644531)"/>
</clipPath>
</defs>
</svg>
