<svg width="36" height="19" viewBox="0 0 36 19" fill="none" xmlns="http://www.w3.org/2000/svg">
<g clip-path="url(#clip0_2207_17889)">
<path d="M11.816 6.60352C11.816 7.11915 12.2379 7.55274 12.7535 7.55274H23.1949C23.7106 7.55274 24.1324 7.11915 24.1324 6.60352C24.1324 6.09962 23.7106 5.66602 23.1949 5.66602H12.7535C12.2379 5.66602 11.816 6.09962 11.816 6.60352ZM11.816 10.9864C11.816 11.502 12.2379 11.9239 12.7535 11.9239H23.1949C23.7106 11.9239 24.1324 11.502 24.1324 10.9864C24.1324 10.4707 23.7106 10.0371 23.1949 10.0371H12.7535C12.2379 10.0371 11.816 10.4707 11.816 10.9864ZM0.050415 7.76368C0.050415 11.5372 2.79261 14.1739 6.90589 14.1739H7.6676V12.2872H6.71839C3.87073 12.2872 1.93713 10.3887 1.93713 7.76368C1.93713 6.4629 2.62854 5.66602 3.88245 5.66602H7.18714V3.7793H3.88245C1.45667 3.7793 0.050415 5.2793 0.050415 7.76368ZM35.8746 7.76368C35.8746 5.2793 34.4801 3.7793 32.0426 3.7793H28.7379V5.66602H32.0426C33.2965 5.66602 33.9879 6.4629 33.9879 7.76368C33.9879 10.3887 32.0543 12.2872 29.2066 12.2872H28.2574V14.1739H29.0309C33.1324 14.1739 35.8746 11.5372 35.8746 7.76368Z" fill="black" fill-opacity="0.85"/>
<path d="M17.9684 18.0411C24.9176 18.0411 29.8629 15.334 29.8629 11.3614V5.50195C29.8629 1.98633 25.6559 0.0644531 17.9684 0.0644531C10.2692 0.0644531 6.06213 1.98633 6.06213 5.50195V11.3614C6.06213 15.334 11.0074 18.0411 17.9684 18.0411ZM17.9684 16.1543C12.1676 16.1543 7.96057 14.1036 7.96057 11.3614V5.50195C7.96057 3.21679 11.5113 1.95117 17.9684 1.95117C24.4137 1.95117 27.9762 3.21679 27.9762 5.50195V11.3614C27.9762 14.1036 23.7574 16.1543 17.9684 16.1543Z" fill="black" fill-opacity="0.85"/>
</g>
<defs>
<clipPath id="clip0_2207_17889">
<rect width="35.8242" height="18.0117" fill="white" transform="translate(0.050415 0.0644531)"/>
</clipPath>
</defs>
</svg>
