<svg width="24" height="24" viewBox="0 0 24 24" fill="none" xmlns="http://www.w3.org/2000/svg">
<g clip-path="url(#clip0_2207_18417)">
<path d="M2.0459 12.0176C2.0459 10.9512 2.20996 9.91992 2.51465 8.9707L0.674804 8.19726C0.276367 9.40429 0.0419922 10.6817 0.0419922 12.0176C0.0419922 13.3418 0.276367 14.6309 0.686523 15.8379L2.51465 15.0645C2.20996 14.1153 2.0459 13.084 2.0459 12.0176ZM7.43652 3.13476L6.68652 1.33007C4.36621 2.49023 2.45605 4.40039 1.2959 6.7207L3.12402 7.48242C4.06152 5.61914 5.58496 4.0957 7.43652 3.13476ZM11.9834 2.05664C13.0498 2.05664 14.0811 2.2207 15.0537 2.53711L15.8037 0.708984C14.5967 0.298828 13.3076 0.0644531 11.9834 0.0644531C10.6592 0.0644531 9.3584 0.298828 8.15137 0.708984L8.9248 2.53711C9.88574 2.2207 10.917 2.05664 11.9834 2.05664ZM20.8662 7.4707L22.6826 6.7207C21.5108 4.40039 19.6006 2.49023 17.2803 1.31836L16.5303 3.13476C18.3818 4.08398 19.917 5.60742 20.8662 7.4707ZM21.9561 12.0176C21.9561 13.084 21.792 14.1153 21.4873 15.0762L23.3037 15.8497C23.7139 14.6426 23.9482 13.3418 23.9482 12.0176C23.9482 10.6817 23.7139 9.39257 23.3037 8.18554L21.4756 8.95898C21.792 9.91992 21.9561 10.9512 21.9561 12.0176ZM16.5303 20.8887L17.2803 22.7168C19.6123 21.545 21.5225 19.6348 22.6709 17.3145L20.8779 16.5645C19.9287 18.4278 18.3936 19.9395 16.5303 20.8887ZM11.9951 21.9786C10.917 21.9786 9.88574 21.8145 8.9248 21.4981L8.16308 23.3262C9.37011 23.7364 10.6709 23.9707 11.9951 23.9707C13.3193 23.9707 14.6084 23.7364 15.8037 23.3379L15.042 21.5098C14.0811 21.8145 13.0615 21.9786 11.9951 21.9786ZM3.12402 16.5645L1.30761 17.3145C2.47949 19.6348 4.36621 21.545 6.68652 22.7051L7.43652 20.877C5.58496 19.9278 4.06152 18.4161 3.12402 16.5645Z" fill="black" fill-opacity="0.85"/>
<path d="M11.9717 20.1973C16.5303 20.1973 20.1631 16.5645 20.1514 12.0176C20.1397 7.4707 16.5068 3.83789 11.96 3.83789C7.41308 3.83789 3.80371 7.45898 3.80371 12.0176C3.80371 16.5762 7.4248 20.1973 11.9717 20.1973ZM11.9834 16.8692C9.88574 16.8692 8.47949 15.4629 8.47949 14.795C8.47949 14.5606 8.71387 14.4668 8.91308 14.5606C9.63965 14.959 10.5186 15.416 11.9834 15.416C13.46 15.416 14.3272 14.959 15.0654 14.5606C15.2647 14.4668 15.4873 14.5606 15.4873 14.795C15.4873 15.4629 14.0928 16.8692 11.9834 16.8692ZM9.00683 10.9161C8.37402 10.9161 7.82324 10.3536 7.82324 9.55664C7.82324 8.73633 8.37402 8.17383 9.00683 8.17383C9.63965 8.17383 10.1904 8.73633 10.1904 9.55664C10.1904 10.3536 9.62793 10.9161 9.00683 10.9161ZM14.9834 10.9161C14.3506 10.9161 13.7998 10.3536 13.7998 9.55664C13.7998 8.73633 14.3506 8.17383 14.9834 8.17383C15.6162 8.17383 16.167 8.73633 16.167 9.55664C16.167 10.3536 15.6045 10.9161 14.9834 10.9161Z" fill="black" fill-opacity="0.85"/>
</g>
<defs>
<clipPath id="clip0_2207_18417">
<rect width="23.9062" height="23.918" fill="white" transform="translate(0.0419922 0.0644531)"/>
</clipPath>
</defs>
</svg>
