<svg width="27" height="27" viewBox="0 0 27 27" fill="none" xmlns="http://www.w3.org/2000/svg">
<g clip-path="url(#clip0_2207_10988)">
<path d="M0.510986 17.1769C0.510986 20.9152 3.85083 24.7824 7.1438 24.7824C10.3899 24.7824 12.0891 21.466 13.8001 15.6769H13.9641V22.3566C13.9641 24.4894 15.0657 25.6261 17.1282 25.6261C20.8665 25.6261 24.7337 22.2746 24.7337 18.9816C24.7337 15.7472 21.4173 14.0363 15.6399 12.3371V12.1613H22.3079C24.4407 12.1613 25.5774 11.0597 25.5774 8.99719C25.5774 5.27063 22.2376 1.39172 18.9446 1.39172C15.7102 1.39172 13.9993 4.68469 12.3001 10.4621H12.1243V3.82922C12.1243 1.69641 11.011 0.547974 8.9602 0.547974C5.22192 0.559692 1.35473 3.89954 1.35473 7.1925C1.35473 10.4152 4.63598 12.1261 10.4133 13.8371V14.0011H3.78052C1.6477 14.0011 0.510986 15.1144 0.510986 17.1769Z" fill="black" fill-opacity="0.85"/>
<path d="M22.2493 25.4621C23.1516 26.3527 24.593 26.341 25.4719 25.4269C26.3508 24.5363 26.3391 23.1183 25.4602 22.2394L3.96802 0.735481C3.08911 -0.143426 1.63598 -0.155144 0.745362 0.735481C-0.133545 1.60267 -0.133545 3.06751 0.745362 3.94642L22.2493 25.4621Z" fill="white"/>
<path d="M23.2219 24.4894C23.5735 24.841 24.1477 24.8293 24.4993 24.4777C24.8391 24.1261 24.8508 23.5519 24.4993 23.2004L2.99536 1.70815C2.6438 1.35659 2.06958 1.34487 1.7063 1.70815C1.36645 2.04799 1.36645 2.63393 1.7063 2.98549L23.2219 24.4894Z" fill="black" fill-opacity="0.85"/>
</g>
<defs>
<clipPath id="clip0_2207_10988">
<rect width="26.0391" height="26.0569" fill="white" transform="translate(0.0861816 0.0644531)"/>
</clipPath>
</defs>
</svg>
