<svg width="26" height="26" viewBox="0 0 26 26" fill="none" xmlns="http://www.w3.org/2000/svg">
<g clip-path="url(#clip0_2207_10978)">
<path d="M0.0734863 16.6817C0.0734863 20.4551 3.48365 24.2754 6.7063 24.2754C9.62427 24.2754 11.0657 21.627 12.8352 16.9512C12.929 16.9512 13.0344 16.9395 13.1282 16.9278C13.2688 16.9161 13.3977 16.9043 13.5266 16.8692V21.8497C13.5266 23.9942 14.6165 25.1192 16.679 25.1192C20.4524 25.1192 24.2844 21.709 24.2844 18.4864C24.2844 15.5684 21.6243 14.127 16.9485 12.3575C16.9485 12.2637 16.9368 12.1583 16.9251 12.0645C16.9133 11.9239 16.9016 11.795 16.8665 11.6543H21.8587C23.9915 11.6543 25.1165 10.5645 25.1165 8.50195C25.1165 4.72851 21.7063 0.896484 18.4837 0.896484C15.5657 0.896484 14.1243 3.55664 12.3547 8.23242C12.261 8.23242 12.1555 8.24414 12.0618 8.25586C11.9212 8.26757 11.7923 8.27929 11.6633 8.31445V3.33398C11.6633 1.18945 10.5735 0.0644531 8.51099 0.0644531C4.73755 0.0644531 0.905517 3.47461 0.905517 6.69726C0.905517 9.61523 3.56568 11.0567 8.22974 12.8262C8.24146 12.9317 8.24146 13.0489 8.25318 13.1426C8.2649 13.2715 8.30005 13.4004 8.31177 13.5293H3.3313C1.19849 13.5293 0.0734863 14.6075 0.0734863 16.6817ZM9.88208 12.5918C9.88208 11.0918 11.0891 9.87304 12.5891 9.87304C14.0891 9.87304 15.3079 11.0918 15.3079 12.5918C15.3079 14.0918 14.0891 15.3106 12.5891 15.3106C11.1008 15.3106 9.88208 14.0918 9.88208 12.5918ZM10.9837 12.5918C10.9837 13.4825 11.6868 14.1856 12.5891 14.1856C13.4797 14.1856 14.1829 13.4825 14.1829 12.5918C14.1829 11.7012 13.468 10.9864 12.5891 10.9864C11.6868 10.9864 10.9837 11.6895 10.9837 12.5918Z" fill="black" fill-opacity="0.85"/>
</g>
<defs>
<clipPath id="clip0_2207_10978">
<rect width="25.043" height="25.0664" fill="white" transform="translate(0.0734863 0.0644531)"/>
</clipPath>
</defs>
</svg>
