<svg width="27" height="26" viewBox="0 0 27 26" fill="none" xmlns="http://www.w3.org/2000/svg">
<g clip-path="url(#clip0_2207_10621)">
<path d="M4.72876 3.75586V6.32226C4.72876 8.60742 5.98267 9.62695 8.04517 9.62695H18.6037C20.7834 9.62695 21.9201 8.60742 21.9201 6.32226V3.75586C21.9201 1.4707 20.7834 0.451172 18.6037 0.451172H8.04517C5.98267 0.451172 4.72876 1.4707 4.72876 3.75586ZM6.54517 6.45117V3.62695C6.54517 2.64257 7.04908 2.16211 8.02173 2.16211H18.6272C19.6115 2.16211 20.1037 2.64257 20.1037 3.62695V6.45117C20.1037 7.43554 19.6115 7.91601 18.6272 7.91601H8.02173C7.04908 7.91601 6.54517 7.43554 6.54517 6.45117Z" fill="black" fill-opacity="0.85"/>
<path d="M3.58032 22.2129H23.0803C25.3537 22.2129 26.5608 21.0645 26.5608 18.7793V7.81054C26.5608 5.53711 25.3537 4.37695 23.0803 4.37695H3.58032C1.41235 4.37695 0.0881348 5.53711 0.0881348 7.81054V18.7793C0.0881348 21.0645 1.29516 22.2129 3.58032 22.2129Z" fill="white"/>
<path d="M3.58032 22.2129H23.0803C25.3537 22.2129 26.5608 21.0645 26.5608 18.7793V7.81054C26.5608 5.53711 25.3537 4.37695 23.0803 4.37695H3.58032C1.41235 4.37695 0.0881348 5.53711 0.0881348 7.81054V18.7793C0.0881348 21.0645 1.29516 22.2129 3.58032 22.2129ZM1.98657 18.8731V7.71679C1.98657 6.68554 2.51391 6.14648 3.55688 6.14648H23.1037C24.135 6.14648 24.674 6.68554 24.674 7.71679V18.8731C24.674 19.9043 24.135 20.4434 23.1037 20.4434H3.55688C2.51391 20.4434 1.98657 19.9043 1.98657 18.8731Z" fill="black" fill-opacity="0.85"/>
<path d="M7.01391 10.3067H8.09204C8.42016 10.3067 8.61938 10.1075 8.61938 9.7793V8.7129C8.61938 8.38477 8.42016 8.18555 8.09204 8.18555H7.01391C6.69751 8.18555 6.49829 8.38477 6.49829 8.7129V9.7793C6.49829 10.1075 6.69751 10.3067 7.01391 10.3067ZM10.8693 10.3067H11.9358C12.2639 10.3067 12.4631 10.1075 12.4631 9.7793V8.7129C12.4631 8.38477 12.2639 8.18555 11.9358 8.18555H10.8693C10.5412 8.18555 10.342 8.38477 10.342 8.7129V9.7793C10.342 10.1075 10.5412 10.3067 10.8693 10.3067ZM14.7131 10.3067H15.7912C16.1076 10.3067 16.3069 10.1075 16.3069 9.7793V8.7129C16.3069 8.38477 16.1076 8.18555 15.7912 8.18555H14.7131C14.385 8.18555 14.1858 8.38477 14.1858 8.7129V9.7793C14.1858 10.1075 14.385 10.3067 14.7131 10.3067ZM18.5569 10.3067H19.635C19.9631 10.3067 20.1623 10.1075 20.1623 9.7793V8.7129C20.1623 8.38477 19.9631 8.18555 19.635 8.18555H18.5569C18.2404 8.18555 18.0412 8.38477 18.0412 8.7129V9.7793C18.0412 10.1075 18.2404 10.3067 18.5569 10.3067ZM7.01391 14.2559H8.09204C8.42016 14.2559 8.61938 14.0567 8.61938 13.7286V12.6504C8.61938 12.3223 8.42016 12.1231 8.09204 12.1231H7.01391C6.69751 12.1231 6.49829 12.3223 6.49829 12.6504V13.7286C6.49829 14.0567 6.69751 14.2559 7.01391 14.2559ZM10.8693 14.2559H11.9358C12.2639 14.2559 12.4631 14.0567 12.4631 13.7286V12.6504C12.4631 12.3223 12.2639 12.1231 11.9358 12.1231H10.8693C10.5412 12.1231 10.342 12.3223 10.342 12.6504V13.7286C10.342 14.0567 10.5412 14.2559 10.8693 14.2559ZM14.7131 14.2559H15.7912C16.1076 14.2559 16.3069 14.0567 16.3069 13.7286V12.6504C16.3069 12.3223 16.1076 12.1231 15.7912 12.1231H14.7131C14.385 12.1231 14.1858 12.3223 14.1858 12.6504V13.7286C14.1858 14.0567 14.385 14.2559 14.7131 14.2559ZM18.5569 14.2559H19.635C19.9631 14.2559 20.1623 14.0567 20.1623 13.7286V12.6504C20.1623 12.3223 19.9631 12.1231 19.635 12.1231H18.5569C18.2404 12.1231 18.0412 12.3223 18.0412 12.6504V13.7286C18.0412 14.0567 18.2404 14.2559 18.5569 14.2559Z" fill="black" fill-opacity="0.85"/>
<path d="M7.04907 25.6934H19.5998C21.0881 25.6934 21.8381 25.0137 21.8381 23.4551V18.5215C21.8381 16.9747 21.0881 16.2833 19.5998 16.2833H7.04907C5.6311 16.2833 4.81079 16.9747 4.81079 18.5215V23.4551C4.81079 25.0137 5.56079 25.6934 7.04907 25.6934Z" fill="white"/>
<path d="M7.04907 25.6934H19.5998C21.0881 25.6934 21.8381 25.0137 21.8381 23.4551V18.5215C21.8381 16.9747 21.0881 16.2833 19.5998 16.2833H7.04907C5.6311 16.2833 4.81079 16.9747 4.81079 18.5215V23.4551C4.81079 25.0137 5.56079 25.6934 7.04907 25.6934ZM7.63501 23.9239C7.01391 23.9239 6.69751 23.6192 6.69751 22.9864V18.9786C6.69751 18.3575 7.01391 18.0528 7.63501 18.0528H19.0256C19.6584 18.0528 19.9514 18.3575 19.9514 18.9786V22.9864C19.9514 23.6192 19.6584 23.9239 19.0256 23.9239H7.63501ZM8.4436 20.9707C8.4436 21.4747 8.83032 21.8731 9.33422 21.8731H17.3264C17.8186 21.8731 18.2053 21.4747 18.2053 20.9707C18.2053 20.4903 17.8186 20.0918 17.3264 20.0918H9.33422C8.83032 20.0918 8.4436 20.4903 8.4436 20.9707Z" fill="black" fill-opacity="0.85"/>
</g>
<defs>
<clipPath id="clip0_2207_10621">
<rect width="26.4727" height="25.6289" fill="white" transform="translate(0.0881348 0.0644531)"/>
</clipPath>
</defs>
</svg>
