<svg width="28" height="21" viewBox="0 0 28 21" fill="none" xmlns="http://www.w3.org/2000/svg">
<g clip-path="url(#clip0_2207_9710)">
<path d="M0.730757 8.53858L11.2776 19.0386C12.7776 20.5386 14.3831 20.5386 15.9065 19.0386L26.4183 8.53858C27.4378 7.51904 27.344 6.27686 26.4065 5.29248C23.3128 2.06983 18.4495 0.065918 13.5745 0.065918C8.69951 0.065918 3.84795 2.08154 0.742475 5.29248C-0.195025 6.26514 -0.288775 7.51904 0.730757 8.53858ZM2.12529 7.29639C1.86748 7.03858 1.89092 6.76904 2.11357 6.53467C4.86748 3.69873 9.17998 1.95264 13.5276 1.95264C17.887 1.95264 22.1526 3.73389 24.9417 6.53467C25.1761 6.76904 25.1878 7.03858 24.93 7.29639L14.5823 17.6206C13.8675 18.3237 13.1878 18.3237 12.4729 17.6206L2.12529 7.29639Z" fill="black" fill-opacity="0.85"/>
</g>
<defs>
<clipPath id="clip0_2207_9710">
<rect width="27.1446" height="20.5195" fill="white" transform="translate(0.00219727 0.065918)"/>
</clipPath>
</defs>
</svg>
