<svg width="35" height="24" viewBox="0 0 35 24" fill="none" xmlns="http://www.w3.org/2000/svg">
<g clip-path="url(#clip0_2207_2461)">
<path d="M13.2076 12.9825C13.7584 12.9825 14.2154 12.5254 14.2154 11.9746C14.2154 11.4239 13.7584 10.9668 13.2076 10.9668C12.6568 10.9668 12.1998 11.4239 12.1998 11.9746C12.1998 12.5254 12.6568 12.9825 13.2076 12.9825ZM17.0865 12.9825C17.6373 12.9825 18.0943 12.5254 18.0943 11.9746C18.0943 11.4239 17.6373 10.9668 17.0865 10.9668C16.5357 10.9668 16.0787 11.4239 16.0787 11.9746C16.0787 12.5254 16.5357 12.9825 17.0865 12.9825ZM20.9537 12.9825C21.5045 12.9825 21.9615 12.5254 21.9615 11.9746C21.9615 11.4239 21.5045 10.9668 20.9537 10.9668C20.4029 10.9668 19.9459 11.4239 19.9459 11.9746C19.9459 12.5254 20.4029 12.9825 20.9537 12.9825Z" fill="black" fill-opacity="0.85"/>
<path d="M0.0356445 14.4004C0.0356445 14.9161 0.45752 15.3379 0.973145 15.3379C1.50048 15.3379 1.92236 14.9161 1.92236 14.4004V10.2989C1.92236 10.1114 2.0747 9.95898 2.2622 9.95898C2.46142 9.95898 2.61376 10.1114 2.61376 10.2989V22.6973C2.61376 23.2715 3.0708 23.7286 3.64502 23.7286C4.23095 23.7286 4.68798 23.2715 4.68798 22.6973V15.1504C4.68798 14.9629 4.85205 14.7989 5.03955 14.7989C5.23876 14.7989 5.40283 14.9629 5.40283 15.1504V22.6973C5.40283 23.2715 5.85986 23.7286 6.43408 23.7286C7.0083 23.7286 7.47705 23.2715 7.47705 22.6973V10.2989C7.47705 10.1114 7.62939 9.95898 7.81689 9.95898C8.00439 9.95898 8.16845 10.1114 8.16845 10.2989V14.4004C8.16845 14.9161 8.57861 15.3379 9.10595 15.3379C9.6333 15.3379 10.0434 14.9161 10.0434 14.4004V9.81836C10.0434 7.46289 8.33252 5.91602 5.81298 5.91602H4.27783C1.7583 5.91602 0.0356445 7.46289 0.0356445 9.81836V14.4004ZM5.03955 4.69727C6.32861 4.69727 7.35986 3.66602 7.35986 2.37695C7.35986 1.09961 6.32861 0.0683594 5.03955 0.0683594C3.7622 0.0683594 2.73095 1.09961 2.73095 2.37695C2.73095 3.66602 3.7622 4.69727 5.03955 4.69727ZM24.1176 14.4004C24.1176 14.9161 24.5395 15.3379 25.0551 15.3379C25.5825 15.3379 26.0044 14.9161 26.0044 14.4004V10.2989C26.0044 10.1114 26.1567 9.95898 26.3559 9.95898C26.5434 9.95898 26.6958 10.1114 26.6958 10.2989V22.6973C26.6958 23.2715 27.1528 23.7286 27.727 23.7286C28.3129 23.7286 28.77 23.2715 28.77 22.6973V15.1504C28.77 14.9629 28.934 14.7989 29.1215 14.7989C29.3208 14.7989 29.4848 14.9629 29.4848 15.1504V22.6973C29.4848 23.2715 29.9418 23.7286 30.5161 23.7286C31.0903 23.7286 31.559 23.2715 31.559 22.6973V10.2989C31.559 10.1114 31.7114 9.95898 31.8989 9.95898C32.0864 9.95898 32.2504 10.1114 32.2504 10.2989V14.4004C32.2504 14.9161 32.6606 15.3379 33.1879 15.3379C33.7153 15.3379 34.1372 14.9161 34.1372 14.4004V9.81836C34.1372 7.46289 32.4145 5.91602 29.895 5.91602H28.3598C25.8403 5.91602 24.1176 7.46289 24.1176 9.81836V14.4004ZM29.1215 4.69727C30.4106 4.69727 31.4418 3.66602 31.4418 2.37695C31.4418 1.09961 30.4106 0.0683594 29.1215 0.0683594C27.8442 0.0683594 26.8129 1.09961 26.8129 2.37695C26.8129 3.66602 27.8442 4.69727 29.1215 4.69727Z" fill="black" fill-opacity="0.85"/>
</g>
<defs>
<clipPath id="clip0_2207_2461">
<rect width="34.1016" height="23.8242" fill="white" transform="translate(0.0356445 0.0683594)"/>
</clipPath>
</defs>
</svg>
