<svg width="26" height="34" viewBox="0 0 26 34" fill="none" xmlns="http://www.w3.org/2000/svg">
<g clip-path="url(#clip0_2207_16152)">
<path d="M22.637 11.3416C24.3831 11.3416 25.7894 9.87683 25.7894 8.17761C25.7894 6.40808 24.3831 4.97839 22.637 4.97839C20.8558 4.97839 19.4495 6.40808 19.4495 8.17761C19.4495 9.9237 20.8558 11.3416 22.637 11.3416ZM3.74643 28.1112C4.35581 28.744 5.39878 28.6971 6.14878 27.9237L11.1878 22.7205C11.3519 22.5448 11.4691 22.4979 11.7386 22.6034L15.6644 24.0916C18.1956 25.0643 20.5863 24.2323 21.6878 22.2166L24.2191 17.6112C25.2035 15.8182 24.8988 13.9666 23.1878 13.0526C21.5355 12.1502 19.8128 12.8299 18.8167 14.6698L15.5355 20.658L12.7347 19.6385C11.3519 19.1346 10.1917 19.2987 9.09018 20.4471L3.8519 25.8612C3.12534 26.6112 3.19565 27.5487 3.74643 28.1112Z" fill="black" fill-opacity="0.85"/>
<path d="M0.324482 7.53309C0.664326 7.87293 1.2151 7.87293 1.55495 7.53309L4.78932 4.28699L6.0901 5.58778C6.66432 6.16199 7.51979 5.83387 7.55495 5.00184L7.81276 0.947149C7.8362 0.396368 7.49635 0.0448053 6.93385 0.0682427L2.86745 0.314337C2.08229 0.361212 1.69557 1.16981 2.29323 1.77918L3.58229 3.07996L0.336201 6.31434C-0.00364283 6.65418 -0.00364281 7.20496 0.324482 7.53309ZM0.324482 11.787C-0.00364281 12.1151 -0.00364283 12.6541 0.336201 13.0057L3.58229 16.2401L2.29323 17.5409C1.69557 18.1502 2.08229 18.9588 2.86745 19.0057L6.93385 19.2401C7.49635 19.2752 7.8362 18.9237 7.81276 18.3729L7.55495 14.3182C7.51979 13.4862 6.66432 13.158 6.0901 13.7323L4.78932 15.033L1.55495 11.787C1.2151 11.4471 0.664326 11.4471 0.324482 11.787Z" fill="black" fill-opacity="0.85"/>
</g>
<defs>
<clipPath id="clip0_2207_16152">
<rect width="25.7095" height="33.5999" fill="white" transform="translate(0.079834 0.0671387)"/>
</clipPath>
</defs>
</svg>
