<svg width="19" height="28" viewBox="0 0 19 28" fill="none" xmlns="http://www.w3.org/2000/svg">
<g clip-path="url(#clip0_2207_2781)">
<path d="M15.8145 5.18823C17.2208 5.18823 18.3692 4.0398 18.3692 2.61011C18.3692 1.20386 17.2208 0.0671387 15.8145 0.0671387C14.3849 0.0671387 13.2364 1.20386 13.2364 2.61011C13.2364 4.0398 14.3849 5.18823 15.8145 5.18823ZM9.94345 23.2819C10.6114 23.2819 11.1739 22.7312 11.1739 22.0749V15.9343C11.1739 15.6413 11.0685 15.3835 10.8927 15.1726L8.11533 11.7624C7.93954 11.5398 7.99814 11.3054 8.20908 11.1882L11.5958 9.43042C11.8419 9.30152 12.088 9.39526 12.1349 9.68823L12.4278 11.7624C12.4864 12.2194 12.7442 12.5359 13.2364 12.7702L16.5645 14.446C17.4786 14.903 18.1935 14.528 18.4161 13.9538C18.6388 13.4148 18.463 12.7116 17.7247 12.3366L14.7364 10.8132L14.256 7.27417C13.9981 5.38745 11.9122 4.2273 9.92001 5.27026L5.52548 7.56714C3.49814 8.62183 3.22861 10.9304 4.72861 12.4421L8.75986 16.4499V22.0749C8.75986 22.7312 9.29892 23.2819 9.94345 23.2819ZM0.556733 15.6999C1.01376 16.5202 1.86923 16.7663 2.71298 16.5788L5.24423 16.0163C5.59579 15.946 5.81845 15.6882 5.81845 15.3132C5.81845 14.9499 5.56064 14.6921 5.22079 14.6335L0.896577 13.8835C0.170015 13.7546 -0.204985 14.3405 0.134858 14.9382L0.556733 15.6999ZM2.60751 15.8171L5.77158 25.2155L7.06064 24.7702L3.93173 15.4187L2.60751 15.8171ZM9.90829 27.5124C12.5216 27.5124 14.5489 25.4499 14.5489 22.8835C14.5489 21.114 13.5645 19.5905 12.1114 18.8054V20.5632C12.7325 21.1374 13.0958 21.9694 13.0958 22.8835C13.0958 24.6413 11.6778 26.0593 9.90829 26.0593C8.19736 26.0593 6.74423 24.6062 6.74423 22.8835C6.74423 21.9577 7.15439 21.1023 7.79892 20.5163V18.7819C6.32236 19.5319 5.29111 21.0905 5.29111 22.8835C5.29111 25.4499 7.37704 27.5124 9.90829 27.5124ZM12.7442 24.8991L14.0567 25.3444L17.0216 16.3679C17.1388 16.0163 16.9513 15.6179 16.6114 15.5124C16.2247 15.3952 15.8849 15.5944 15.756 15.946L12.7442 24.8991ZM3.4747 26.5163C2.99423 26.8327 3.13486 27.5476 3.69736 27.5476H16.131C16.6817 27.5476 16.8224 26.8093 16.3653 26.5163L13.6114 24.7116L11.127 26.4343H8.71298L6.20517 24.7116L3.4747 26.5163Z" fill="black" fill-opacity="0.85"/>
</g>
<defs>
<clipPath id="clip0_2207_2781">
<rect width="18.4978" height="27.5039" fill="white" transform="translate(0.00830078 0.0671387)"/>
</clipPath>
</defs>
</svg>
