<svg width="23" height="29" viewBox="0 0 23 29" fill="none" xmlns="http://www.w3.org/2000/svg">
<g clip-path="url(#clip0_2207_2653)">
<path d="M9.8327 6.76634C11.2507 6.76634 12.3991 5.6179 12.3991 4.22337C12.3991 2.81712 11.2507 1.66868 9.8327 1.66868C8.42645 1.66868 7.28973 2.81712 7.28973 4.22337C7.28973 5.6179 8.42645 6.76634 9.8327 6.76634ZM18.9147 7.99681H5.61395L5.97723 8.27806C6.55145 8.06712 6.77411 7.51634 6.6452 7.03587C6.49286 6.49681 5.97723 6.0515 5.11004 6.25072L1.65301 7.04759C-0.573545 7.56322 -0.514951 10.4226 1.80536 10.4226H5.57879C5.91864 10.4226 6.18817 10.7038 6.18817 11.0437V15.989L2.56708 19.5866C2.07489 20.0788 1.74676 20.5827 1.54754 21.3444L0.176454 26.489C-0.0579204 27.3679 0.457704 27.9187 1.06708 28.0124C1.65301 28.1179 2.29754 27.8366 2.49676 27.1101L3.79754 22.2819C3.92645 21.8249 4.0202 21.6374 4.37176 21.3444L7.2077 18.9187C7.78192 18.4499 8.75458 18.5319 9.15301 19.2234L10.8757 22.2234L13.6061 27.3679C14.0046 28.1296 14.8601 28.2116 15.4108 27.8601C15.8913 27.5437 16.0905 26.8991 15.739 26.2429L12.9968 21.0163L11.4382 17.4655C11.1804 16.8679 11.0397 16.2116 11.0397 15.5319V11.0437C11.0397 10.7038 11.3093 10.4226 11.6608 10.4226H18.9147C19.5944 10.4226 20.1335 9.88353 20.1335 9.22728C20.1335 8.54759 19.5944 7.99681 18.9147 7.99681ZM21.364 9.22728C21.364 11.8054 20.8601 14.2194 19.5944 17.4421C19.4538 17.8171 19.6061 18.1921 19.9343 18.3327C20.2858 18.4734 20.6374 18.3444 20.8132 17.9929C22.1608 15.028 22.6999 12.4851 22.6999 9.22728C22.6999 6.07493 22.1608 3.52025 20.8015 0.461651C20.6374 0.110088 20.2858 -0.018818 19.9343 0.121807C19.5944 0.262432 19.4538 0.637432 19.5944 1.01243C20.8601 4.25853 21.364 6.66087 21.364 9.22728Z" fill="black" fill-opacity="0.85"/>
</g>
<defs>
<clipPath id="clip0_2207_2653">
<rect width="22.6767" height="28.0376" fill="white" transform="translate(0.0231934 0.065918)"/>
</clipPath>
</defs>
</svg>
