<svg width="35" height="25" viewBox="0 0 35 25" fill="none" xmlns="http://www.w3.org/2000/svg">
<g clip-path="url(#clip0_2207_16192)">
<path d="M31.4498 6.73511C33.2077 6.73511 34.6139 5.27026 34.6139 3.57105C34.6139 1.80152 33.2077 0.371826 31.4498 0.371826C29.6803 0.371826 28.2623 1.80152 28.2623 3.57105C28.2623 5.31714 29.6803 6.73511 31.4498 6.73511ZM12.5709 23.5046C13.1803 24.1374 14.2233 24.0905 14.9616 23.3171L20.0123 18.114C20.1764 17.9382 20.2936 17.8913 20.5514 17.9968L24.4889 19.4851C27.0202 20.4577 29.3991 19.6257 30.5123 17.6101L33.0436 13.0046C34.028 11.2116 33.7116 9.36011 32.0123 8.44605C30.3483 7.5437 28.6373 8.22339 27.6413 10.0632L24.3483 16.0515L21.5592 15.0319C20.1647 14.528 19.0163 14.6921 17.9147 15.8405L12.6764 21.2546C11.9498 22.0046 12.0202 22.9421 12.5709 23.5046Z" fill="black" fill-opacity="0.85"/>
<path d="M0.301445 4.14526L3.48894 8.21167C3.62957 8.39917 3.85222 8.43433 4.05144 8.31714C4.81316 7.9187 5.903 7.64917 6.75847 7.64917C7.62566 7.64917 8.7155 7.9187 9.45379 8.31714C9.67644 8.43433 9.8991 8.39917 10.028 8.21167L13.2272 4.14526C13.5436 3.73511 13.485 3.32495 13.11 3.02026C11.8092 2.02417 9.34832 1.26245 6.75847 1.26245C4.18035 1.26245 1.71941 2.02417 0.430352 3.02026C0.0319137 3.32495 -0.00324225 3.73511 0.301445 4.14526ZM3.60613 10.5905C3.24285 10.1101 3.0905 9.6648 3.0905 9.18433C3.0905 8.08276 3.98113 7.80152 3.98113 7.15698C3.98113 6.50073 3.0905 6.2312 3.0905 5.09448C3.0905 4.62573 3.24285 4.18042 3.60613 3.71167C4.01629 3.21948 4.75457 3.74683 4.35613 4.26245C4.09832 4.62573 4.028 4.82495 4.028 5.09448C4.028 5.89136 4.90691 6.11402 4.90691 7.15698C4.90691 8.18823 4.028 8.42261 4.028 9.18433C4.028 9.48902 4.09832 9.6648 4.35613 10.0398C4.74285 10.5437 4.01629 11.0827 3.60613 10.5905ZM6.36004 10.5905C6.02019 10.1101 5.85613 9.6648 5.85613 9.18433C5.85613 8.08276 6.74675 7.80152 6.74675 7.15698C6.74675 6.50073 5.85613 6.2312 5.85613 5.09448C5.85613 4.62573 6.00847 4.18042 6.36004 3.71167C6.77019 3.21948 7.52019 3.74683 7.13347 4.26245C6.86394 4.62573 6.79363 4.82495 6.79363 5.09448C6.79363 5.89136 7.68425 6.11402 7.68425 7.15698C7.68425 8.18823 6.79363 8.42261 6.79363 9.18433C6.79363 9.48902 6.86394 9.6648 7.12175 10.0398C7.50847 10.5437 6.77019 11.0827 6.36004 10.5905ZM9.1491 10.5905C8.78582 10.1101 8.62175 9.6648 8.62175 9.18433C8.62175 8.08276 9.5241 7.80152 9.5241 7.15698C9.5241 6.50073 8.62175 6.2312 8.62175 5.09448C8.62175 4.62573 8.7741 4.18042 9.16082 3.71167C9.55925 3.21948 10.2858 3.74683 9.8991 4.26245C9.64129 4.62573 9.55925 4.82495 9.55925 5.09448C9.55925 5.89136 10.4498 6.11402 10.4498 7.15698C10.4498 8.18823 9.55925 8.42261 9.55925 9.18433C9.55925 9.48902 9.64129 9.6648 9.88738 10.0398C10.2858 10.5437 9.54754 11.0827 9.1491 10.5905ZM19.3444 0.0671387C18.8756 0.0671387 18.4889 0.442139 18.4889 0.934327V5.49292H16.5905C15.7116 5.49292 15.4069 6.37183 15.9459 6.96948L18.7233 10.1101C19.0983 10.5319 19.6022 10.5319 19.9889 10.1101L22.7663 6.96948C23.3288 6.34839 22.9538 5.49292 22.1217 5.49292H20.2116V0.934327C20.2116 0.442139 19.8366 0.0671387 19.3444 0.0671387Z" fill="black" fill-opacity="0.85"/>
</g>
<defs>
<clipPath id="clip0_2207_16192">
<rect width="34.5153" height="24.3867" fill="white" transform="translate(0.0986328 0.0671387)"/>
</clipPath>
</defs>
</svg>
