<svg width="23" height="28" viewBox="0 0 23 28" fill="none" xmlns="http://www.w3.org/2000/svg">
<g clip-path="url(#clip0_2207_2789)">
<path d="M2.59082 5.18823C3.98536 5.18823 5.13379 4.0398 5.13379 2.61011C5.13379 1.20386 3.98536 0.0671387 2.59082 0.0671387C1.16114 0.0671387 0.0126953 1.20386 0.0126953 2.61011C0.0126953 4.0398 1.16114 5.18823 2.59082 5.18823ZM1.24317 14.7273H6.09473L6.3877 15.0202C6.97364 15.6062 7.77051 15.8991 8.54395 15.8991C9.18848 15.8991 9.80958 15.6999 10.3604 15.2898L16.2197 10.9069L22.0439 7.40308C22.6065 7.07495 22.7939 6.34839 22.4775 5.78589C22.126 5.22339 21.3994 5.04761 20.8369 5.38745L9.73925 12.0319L6.65723 8.93823C6.5752 8.86792 6.62208 8.76245 6.72754 8.76245H9.55175C10.208 8.76245 10.7471 8.23511 10.7471 7.57886V2.39917C10.7471 1.7312 10.208 1.20386 9.55175 1.20386C8.8955 1.20386 8.36817 1.7312 8.36817 2.39917V6.40698H2.41504C1.12598 6.40698 0.0595703 7.46167 0.0595703 8.76245V13.5437C0.0595703 14.1765 0.575195 14.7273 1.24317 14.7273ZM2.33301 12.4069V11.2819C2.33301 11.1179 2.52051 11.0359 2.6377 11.153L3.89161 12.4069H2.33301ZM8.71973 27.7819C9.32911 27.8991 10.0088 27.5007 10.1377 26.8444L11.3213 20.903C11.3565 20.7507 11.3565 20.6335 11.333 20.4694L11.1104 16.1452C10.3018 16.7546 9.41114 17.0241 8.54395 17.0241C8.43848 17.0241 8.32129 17.0241 8.20411 17.0124L8.93067 20.6687L7.79395 26.3757C7.66504 27.0202 8.08692 27.653 8.71973 27.7819ZM10.1494 4.1687C11.1338 4.1687 11.9424 3.38355 11.9424 2.39917C11.9424 1.40308 11.1338 0.61792 10.1494 0.61792C9.17675 0.61792 8.36817 1.40308 8.36817 2.39917C8.36817 3.38355 9.17675 4.1687 10.1494 4.1687Z" fill="black" fill-opacity="0.85"/>
</g>
<defs>
<clipPath id="clip0_2207_2789">
<rect width="22.6181" height="27.832" fill="white" transform="translate(0.0126953 0.0671387)"/>
</clipPath>
</defs>
</svg>
