<svg width="26" height="24" viewBox="0 0 26 24" fill="none" xmlns="http://www.w3.org/2000/svg">
<g clip-path="url(#clip0_2207_2861)">
<path d="M17.0609 5.18945C18.4788 5.18945 19.6156 4.05274 19.6156 2.63477C19.6156 1.2168 18.4788 0.0683594 17.0609 0.0683594C15.6429 0.0683594 14.4945 1.2168 14.4945 2.63477C14.4945 4.05274 15.6429 5.18945 17.0609 5.18945ZM7.88509 20.5411C8.43587 20.8809 9.23275 20.7051 9.58431 20.1426L12.4671 15.5254L15.596 15.7012L13.639 18.8301C13.264 19.4161 13.4281 20.2012 14.0257 20.5411C14.6117 20.8809 15.3617 20.7168 15.7132 20.1426L18.7484 15.2911C19.2406 14.4825 18.8304 13.4629 17.7171 13.3457L12.596 12.7715C12.1038 12.7129 11.9046 12.1856 12.1624 11.8223L14.2835 8.63477C14.4124 8.42383 14.6702 8.37695 14.8812 8.49414L22.6507 13.17C23.2249 13.5098 24.0101 13.334 24.3382 12.7598C24.6663 12.1622 24.4906 11.4122 23.9046 11.0606L8.55306 1.83789C8.35384 1.73242 8.1429 1.68555 7.93197 1.68555H3.01009C2.31869 1.68555 1.7679 2.22461 1.7679 2.89258C1.7679 3.57227 2.31869 4.12305 3.01009 4.12305H7.5804L9.72494 5.41211C9.95931 5.54102 10.0179 5.82227 9.87728 6.05664L7.21712 10.041C5.77572 12.1739 6.95931 15.045 9.65462 15.3731L7.48665 18.8301C7.12337 19.4161 7.28744 20.1778 7.88509 20.5411ZM3.514 23.295H22.1937C23.5062 23.295 24.5726 23.0254 25.4046 22.3106C25.7562 22.0176 25.7445 21.6426 25.5452 21.3848C25.346 21.1153 24.9359 21.0098 24.5726 21.2911C23.9398 21.795 23.2952 21.9942 22.1937 21.9942H3.514C2.41244 21.9942 1.7679 21.795 1.13509 21.2911C0.795248 21.0332 0.431966 21.0918 0.221029 21.3145C-0.0367834 21.5723 -0.0836589 21.9825 0.291341 22.3106C1.13509 23.0254 2.2015 23.295 3.514 23.295Z" fill="black" fill-opacity="0.85"/>
</g>
<defs>
<clipPath id="clip0_2207_2861">
<rect width="25.6655" height="23.2617" fill="white" transform="translate(0.0187988 0.0683594)"/>
</clipPath>
</defs>
</svg>
