<svg width="21" height="29" viewBox="0 0 21 29" fill="none" xmlns="http://www.w3.org/2000/svg">
<g clip-path="url(#clip0_2207_2889)">
<path d="M10.2063 5.20117C11.6125 5.20117 12.761 4.04102 12.761 2.63477C12.761 1.22852 11.6125 0.0683594 10.2063 0.0683594C8.80009 0.0683594 7.63993 1.22852 7.63993 2.63477C7.63993 4.04102 8.80009 5.20117 10.2063 5.20117ZM0.983684 14.1661C1.59306 14.2715 2.24931 13.9786 2.40165 13.2637L3.39774 8.81055H5.16728C5.38993 8.81055 5.55399 8.99805 5.4954 9.2207L4.31181 13.7793C3.81962 15.6309 5.03837 17.459 7.3704 16.8731L11.6711 15.8067L10.8391 19.9551C10.7102 20.5879 11.1321 21.2325 11.7649 21.3731C12.3157 21.4903 13.0305 21.1387 13.1829 20.4356L14.3782 14.4473C14.554 13.5801 13.8157 12.9239 13.0891 12.9942L9.26884 13.3692L10.3938 9.10352C10.4407 8.92774 10.6282 8.81055 10.804 8.88086L15.1868 10.545C15.9836 10.8496 16.7922 10.3926 16.7922 9.56055V4.0293C16.7922 3.37305 16.2649 2.83398 15.5852 2.83398C14.929 2.83398 14.3899 3.37305 14.3899 4.0293V7.68555L12.1516 6.81836C11.425 6.54883 10.6282 6.4082 9.83134 6.4082H2.42509C1.86259 6.4082 1.38212 6.80664 1.26493 7.3457L0.0696211 12.7364C-0.0827231 13.3926 0.327434 14.0489 0.983684 14.1661ZM6.38603 28.5567C6.93681 28.6739 7.66337 28.2989 7.79228 27.6192L8.98759 21.6309C9.01103 21.5254 9.01103 21.3965 9.01103 21.2911V17.6465L7.63993 17.9746C7.11259 18.1153 6.6204 18.1504 6.16337 18.1153L6.60868 21.3379L5.44853 27.127C5.31962 27.7832 5.72978 28.4278 6.38603 28.5567ZM10.9563 26.2012H18.7375C19.1008 26.2012 19.3938 25.9082 19.3938 25.545C19.3938 25.1817 19.1008 24.9004 18.7375 24.9004H10.9563C10.593 24.9004 10.3 25.1817 10.3 25.545C10.3 25.9082 10.593 26.2012 10.9563 26.2012ZM9.74931 28.8379H19.9211C20.2844 28.8379 20.5774 28.545 20.5774 28.1817C20.5774 27.8184 20.2844 27.5372 19.9211 27.5372H9.74931C9.38603 27.5372 9.10478 27.8184 9.10478 28.1817C9.10478 28.545 9.38603 28.8379 9.74931 28.8379Z" fill="black" fill-opacity="0.85"/>
</g>
<defs>
<clipPath id="clip0_2207_2889">
<rect width="20.5396" height="28.8164" fill="white" transform="translate(0.0378418 0.0683594)"/>
</clipPath>
</defs>
</svg>
