<svg width="20" height="26" viewBox="0 0 20 26" fill="none" xmlns="http://www.w3.org/2000/svg">
<g clip-path="url(#clip0_2207_2609)">
<path d="M12.2981 5.17652C13.716 5.17652 14.8528 4.0398 14.8528 2.62183C14.8528 1.20386 13.716 0.0671387 12.2981 0.0671387C10.8801 0.0671387 9.74342 1.20386 9.74342 2.62183C9.74342 4.0398 10.8801 5.17652 12.2981 5.17652ZM8.2903 15.3718L12.7785 17.8913L9.88405 20.3757C9.26295 20.903 9.27467 21.5944 9.64967 22.0163C10.0364 22.4499 10.7278 22.5554 11.3723 22.0046L15.4153 18.5593C15.966 18.0905 15.884 17.0827 15.216 16.6491L10.8215 13.7663L11.6887 10.7312C11.8059 10.2976 12.3098 10.239 12.5676 10.614L13.8567 12.5007C14.1613 12.9343 14.7121 13.1101 15.216 12.8757L18.9309 11.2233C19.5871 10.9304 19.8332 10.3562 19.552 9.75855C19.259 9.17261 18.6965 8.99683 18.0403 9.2898L15.0988 10.5905L13.0715 7.7898C12.0168 6.33667 10.7043 5.73902 8.54811 5.90308L4.43483 6.19605C3.77858 6.24292 3.33326 6.6648 3.23951 7.34448L2.68873 11.5163C2.58326 12.2429 2.94655 12.7468 3.59108 12.8171C4.24733 12.8757 4.6692 12.5007 4.76295 11.7741L5.26686 8.36402L6.9192 8.24683C7.28248 8.21167 7.64576 8.46948 7.51686 8.92652L6.55592 12.278C5.99342 14.2585 7.28248 14.7976 8.2903 15.3718ZM0.450452 25.4968C0.884045 25.8601 1.55201 25.9069 2.14967 25.3327L5.94655 21.571C6.26295 21.2546 6.33326 21.1843 6.53248 20.6921L8.12623 16.5671L7.73951 16.3562C6.84889 15.8757 6.2278 15.3835 5.80592 14.8562L4.41139 19.7898L0.473889 23.7155C-0.147205 24.3249 -0.0300172 25.0749 0.450452 25.4968Z" fill="black" fill-opacity="0.85"/>
</g>
<defs>
<clipPath id="clip0_2207_2609">
<rect width="19.6185" height="25.8633" fill="white" transform="translate(0.0483398 0.0671387)"/>
</clipPath>
</defs>
</svg>
