<svg width="26" height="30" viewBox="0 0 26 30" fill="none" xmlns="http://www.w3.org/2000/svg">
<g clip-path="url(#clip0_2207_2877)">
<path d="M19.3867 11.8565C20.8046 11.8565 21.9531 10.708 21.9531 9.29003C21.9531 7.87207 20.8046 6.72363 19.3867 6.72363C17.9687 6.72363 16.832 7.87207 16.832 9.29003C16.832 10.708 17.9687 11.8565 19.3867 11.8565ZM12.789 0.817377C11.6875 -0.295905 10.375 -0.237311 8.66406 1.46191C7.71484 2.43457 7.21093 4.3916 6.90625 5.78613L5.17187 7.53222C4.63281 8.07128 4.75 8.80957 5.23046 9.29003L8.6875 12.7354C8.91015 12.9346 9.1914 13.0635 9.51953 13.0635H11.8632C11.9453 13.0635 11.9804 13.1924 11.9101 13.2276L9.47265 14.4463C7.39843 15.4659 6.91796 18.2198 9.02734 19.7784L13.3632 22.9424L10.8437 27.9815C10.5507 28.5674 10.7851 29.294 11.3593 29.5752C11.8984 29.8448 12.625 29.6807 12.9531 29.0479L15.8593 23.2354C16.0937 22.7549 16.1406 22.169 15.6132 21.6416L12.1211 18.1612L16.6679 15.8994C16.8906 15.7823 17.1367 15.8291 17.289 15.9932L23.5351 22.2276C24.0039 22.6963 24.7773 22.6729 25.1992 22.2276C25.6562 21.7588 25.6679 21.0205 25.1992 20.5518L15.9882 11.3409C15.5781 10.9307 15.1445 10.6963 14.5703 10.6963H10.0117L6.92968 7.61425L7.84375 6.70019C9.23828 6.40722 11.207 5.90332 12.1445 4.94238C13.8671 3.24316 13.9257 1.91894 12.789 0.817377ZM11.8867 1.74316C12.4961 2.34082 12.2968 2.93847 11.2304 4.02832C10.5625 4.68457 9.30859 4.98925 8.35937 5.2705C8.61718 4.29785 8.93359 3.06738 9.60156 2.38769C10.6796 1.30957 11.2539 1.13378 11.8867 1.74316ZM1.21093 24.9463H7.15234C7.65625 24.9463 8.0664 24.583 8.27734 24.1494L9.55468 21.6065L8.33593 20.7041C7.90234 20.3877 7.55078 20.0244 7.26953 19.6377L6.28515 22.5674H1.21093C0.566406 22.5674 0.0273438 23.1065 0.0273438 23.751C0.0273438 24.4307 0.566406 24.9463 1.21093 24.9463Z" fill="black" fill-opacity="0.85"/>
</g>
<defs>
<clipPath id="clip0_2207_2877">
<rect width="25.5191" height="29.6582" fill="white" transform="translate(0.0273438 0.0683594)"/>
</clipPath>
</defs>
</svg>
