<svg width="31" height="27" viewBox="0 0 31 27" fill="none" xmlns="http://www.w3.org/2000/svg">
<g clip-path="url(#clip0_2207_2849)">
<path d="M15.5251 5.18823C16.9431 5.18823 18.0798 4.05152 18.0798 2.63355C18.0798 1.21558 16.9431 0.0671387 15.5251 0.0671387C14.1071 0.0671387 12.9587 1.21558 12.9587 2.63355C12.9587 4.05152 14.1071 5.18823 15.5251 5.18823ZM25.6384 8.80933C26.2946 8.80933 26.8337 8.28198 26.8337 7.6023C26.8337 6.94605 26.2946 6.4187 25.6384 6.4187H13.0525C11.904 6.4187 10.9079 7.02808 10.3806 8.07105L5.07203 18.6999L2.07203 15.6999C1.60328 15.2312 0.841566 15.2429 0.384535 15.6999C-0.0724955 16.1687 -0.0607765 16.9187 0.384535 17.3874L4.615 21.6296C5.11891 22.1218 5.90406 22.0515 6.31422 21.4538L9.78297 16.3913C9.97047 16.0983 10.3806 16.0515 10.6501 16.2507L14.9157 19.5202V25.4733C14.9157 26.1296 15.4431 26.6569 16.1111 26.6569C16.779 26.6569 17.3064 26.1296 17.3064 25.4733V18.9226C17.3064 18.6062 17.1775 18.3015 16.9548 18.0788L12.8064 13.9304L15.0329 9.46558C15.2556 9.03198 15.6423 8.80933 16.0876 8.80933H25.6384ZM17.8923 14.1648H22.6618C23.3181 14.1648 23.8454 13.614 23.8454 12.9812C23.8454 12.3132 23.3181 11.7741 22.6618 11.7741H18.3845L16.5329 9.93433H16.24C16.1228 9.93433 16.0525 9.9812 15.9939 10.0866L15.0915 11.8562L17.0603 13.8132C17.2946 14.0359 17.5876 14.1648 17.8923 14.1648ZM24.7243 11.6335C24.7243 12.7702 26.072 13.7077 27.7126 13.7077C29.365 13.7077 30.7009 12.7702 30.7009 11.6335C30.7009 10.4733 29.365 9.54761 27.7126 9.54761C26.072 9.54761 24.7243 10.4733 24.7243 11.6335Z" fill="black" fill-opacity="0.85"/>
</g>
<defs>
<clipPath id="clip0_2207_2849">
<rect width="30.6548" height="26.707" fill="white" transform="translate(0.0461426 0.0671387)"/>
</clipPath>
</defs>
</svg>
