<svg width="26" height="24" viewBox="0 0 26 24" fill="none" xmlns="http://www.w3.org/2000/svg">
<g clip-path="url(#clip0_2207_16157)">
<path d="M22.6329 6.43042C24.379 6.43042 25.7853 4.96558 25.7853 3.26636C25.7853 1.49683 24.379 0.0671387 22.6329 0.0671387C20.8517 0.0671387 19.4454 1.49683 19.4454 3.26636C19.4454 5.01245 20.8517 6.43042 22.6329 6.43042ZM3.74228 23.1999C4.35166 23.8327 5.39463 23.7859 6.14463 23.0124L11.1837 17.8093C11.3478 17.6335 11.465 17.5866 11.7345 17.6921L15.6603 19.1804C18.1915 20.153 20.5822 19.321 21.6837 17.3054L24.215 12.6999C25.1994 10.9069 24.8947 9.05542 23.1837 8.14136C21.5314 7.23902 19.8087 7.9187 18.8126 9.75855L15.5314 15.7468L12.7306 14.7273C11.3478 14.2233 10.1876 14.3874 9.08603 15.5359L3.84775 20.9499C3.12119 21.6999 3.1915 22.6374 3.74228 23.1999Z" fill="black" fill-opacity="0.85"/>
<path d="M4.4922 4.74294C4.4922 5.23513 4.8672 5.62185 5.35939 5.62185H9.95314V7.44997C9.95314 8.27028 10.7852 8.63357 11.4063 8.08278L14.4414 5.38747C14.8516 5.00075 14.8516 4.52028 14.4414 4.14528L11.4063 1.44997C10.8086 0.922629 9.95314 1.2156 9.95314 2.08278V3.89919H5.35939C4.8672 3.89919 4.4922 4.27419 4.4922 4.74294ZM0.320332 6.87575C-0.0077932 7.20388 -0.00779322 7.74294 0.332051 8.0945L3.57814 11.3289L2.28908 12.6297C1.69142 13.2391 2.07814 14.0477 2.8633 14.0945L6.9297 14.3289C7.4922 14.3641 7.83205 14.0125 7.80861 13.4617L7.5508 9.407C7.51564 8.57497 6.66017 8.24685 6.08595 8.82107L4.78517 10.1219L1.5508 6.87575C1.21095 6.53591 0.660176 6.53591 0.320332 6.87575Z" fill="black" fill-opacity="0.85"/>
</g>
<defs>
<clipPath id="clip0_2207_16157">
<rect width="25.7095" height="23.7773" fill="white" transform="translate(0.0756836 0.0671387)"/>
</clipPath>
</defs>
</svg>
