<svg width="24" height="24" viewBox="0 0 24 24" fill="none" xmlns="http://www.w3.org/2000/svg">
<g clip-path="url(#clip0_2207_2539)">
<path d="M12.0141 23.9746C18.5532 23.9746 23.9672 18.5489 23.9672 12.0215C23.9672 5.48242 18.5415 0.0683594 12.0024 0.0683594C5.47509 0.0683594 0.0610352 5.48242 0.0610352 12.0215C0.0610352 18.5489 5.48682 23.9746 12.0141 23.9746ZM12.0141 21.9825C6.48292 21.9825 2.06495 17.5528 2.06495 12.0215C2.06495 6.49024 6.47119 2.06055 12.0024 2.06055C17.5337 2.06055 21.9751 6.49024 21.9751 12.0215C21.9751 17.5528 17.5454 21.9825 12.0141 21.9825Z" fill="black" fill-opacity="0.85"/>
<path d="M14.768 19.17C15.143 19.17 15.4946 18.9239 15.4946 18.4786C15.4946 18.3028 15.4594 18.1504 15.3657 17.9629L13.9829 15.1387C13.8305 14.8457 13.6899 14.6465 13.5727 14.4825L12.7407 13.2989L12.811 13.0996C13.0571 12.3848 13.1743 11.9161 13.2212 11.2129L13.3501 9.33789C13.4204 8.33008 12.8579 7.50977 11.7446 7.50977C11.0063 7.50977 10.3501 7.87305 9.63526 8.56445L8.55713 9.60742C8.19385 9.95898 8.1001 10.2403 8.05323 10.6856L7.92432 12.2559C7.87745 12.7246 8.14698 13.0293 8.58057 13.0645C8.96729 13.0879 9.26026 12.8536 9.30713 12.3496L9.44776 10.6622L10.022 10.1582C10.1977 10.0059 10.4087 10.0996 10.3852 10.3575L10.2798 11.7872C10.2212 12.5723 10.5962 13.1348 10.9829 13.6153L12.3422 15.3145C12.4594 15.4668 12.4829 15.5254 12.5532 15.6543L14.0532 18.6895C14.2055 19.0176 14.4516 19.17 14.768 19.17ZM8.39307 19.17C8.61573 19.17 8.82666 19.0879 8.95557 18.9239L11.1001 16.3692C11.3344 16.0879 11.3696 16.0762 11.4282 15.8184L11.5454 15.3145L10.3618 13.8379L10.022 15.4903L8.04151 17.834C7.87745 18.0215 7.7251 18.209 7.7251 18.4903C7.7251 18.9122 8.00635 19.17 8.39307 19.17ZM15.1548 11.6231H16.8188C17.311 11.6231 17.5922 11.3536 17.5922 10.92C17.5922 10.5098 17.311 10.2286 16.8188 10.2286H15.061L13.9594 9.00977L13.8305 10.8379L14.311 11.3184C14.5571 11.5645 14.7563 11.6231 15.1548 11.6231ZM12.6235 6.95898C13.4672 6.95898 14.1587 6.26758 14.1587 5.44727C14.1587 4.5918 13.4672 3.92383 12.6235 3.92383C11.7798 3.92383 11.1118 4.5918 11.1118 5.44727C11.1118 6.26758 11.7798 6.95898 12.6235 6.95898Z" fill="black" fill-opacity="0.85"/>
</g>
<defs>
<clipPath id="clip0_2207_2539">
<rect width="23.9062" height="23.918" fill="white" transform="translate(0.0610352 0.0683594)"/>
</clipPath>
</defs>
</svg>
