<svg width="27" height="26" viewBox="0 0 27 26" fill="none" xmlns="http://www.w3.org/2000/svg">
<g clip-path="url(#clip0_2207_2897)">
<path d="M14.8703 5.18945C16.2766 5.18945 17.425 4.0293 17.425 2.62305C17.425 1.2168 16.2766 0.0683594 14.8703 0.0683594C13.4641 0.0683594 12.3039 1.2168 12.3039 2.62305C12.3039 4.0293 13.4641 5.18945 14.8703 5.18945ZM18.1633 25.4981C18.6672 25.2989 19.0539 24.7832 18.8547 24.0684L17.0852 17.8926C16.9914 17.5996 16.8273 17.3653 16.5461 17.2012L12.8547 15.0332L14.6125 9.81836C14.7414 9.41992 15.1633 9.37305 15.4563 9.66602L18.0695 12.2676C18.3039 12.4903 18.5852 12.6192 18.8899 12.6192C19.2063 12.6192 19.4992 12.5137 19.7336 12.2676L23.2609 8.72852C23.7063 8.25977 23.7414 7.54492 23.2609 7.07617C22.8039 6.61914 22.0656 6.60742 21.5969 7.07617L18.8899 9.7832L16.6281 7.43945C15.5852 6.36133 14.4719 6.13867 12.3039 6.13867H1.22973C0.585205 6.13867 0.0461426 6.66602 0.0461426 7.32227C0.0461426 7.9668 0.585205 8.49414 1.22973 8.49414H9.4563C9.79614 8.49414 10.1125 8.77539 9.94848 9.24414L8.57739 13.3575C8.09692 14.8106 8.77661 16.3692 10.1828 16.9786L14.9523 19.0762L16.593 24.6778C16.8273 25.5098 17.5773 25.709 18.1633 25.4981ZM3.2102 25.0879C3.51489 25.5332 4.11255 25.7676 4.7688 25.4161L10.0305 22.4981C10.2883 22.3575 10.4758 22.1231 10.5813 21.8184L11.5891 18.8301L9.73755 18.0215C9.51489 17.9161 9.30395 17.8106 9.09302 17.67L8.44848 20.67L3.63208 23.3653C2.88208 23.7989 2.85864 24.584 3.2102 25.0879ZM19.4758 15.2559H26.7063V13.9551H19.4758C19.1125 13.9551 18.8313 14.2364 18.8313 14.5996C18.8313 14.9629 19.1125 15.2559 19.4758 15.2559ZM1.66333 6.5957H2.84692V4.94336H1.66333V6.5957ZM2.26098 0.478515C1.03052 0.478515 0.0461426 1.46289 0.0461426 2.70508C0.0461426 3.83008 1.03052 5.17774 2.26098 5.45898C3.49145 5.17774 4.46411 3.83008 4.46411 2.70508C4.46411 1.46289 3.49145 0.478515 2.26098 0.478515Z" fill="black" fill-opacity="0.85"/>
</g>
<defs>
<clipPath id="clip0_2207_2897">
<rect width="26.6602" height="25.6992" fill="white" transform="translate(0.0461426 0.0683594)"/>
</clipPath>
</defs>
</svg>
