<svg width="20" height="26" viewBox="0 0 20 26" fill="none" xmlns="http://www.w3.org/2000/svg">
<g clip-path="url(#clip0_2207_2641)">
<path d="M13.5027 5.25855C14.9207 5.25855 16.0574 4.12183 16.0574 2.70386C16.0574 1.29761 14.9207 0.160889 13.5027 0.160889C12.0848 0.160889 10.948 1.29761 10.948 2.70386C10.948 4.12183 12.0848 5.25855 13.5027 5.25855ZM9.19027 25.8835C14.2996 25.8835 17.7098 22.4733 17.7098 17.364C17.7098 14.6804 16.4324 13.1101 14.0418 13.1101H12.4715C12.202 13.1101 12.0262 12.9343 12.1316 12.6062L13.2098 9.33667C13.702 7.83667 12.9988 6.4773 11.3348 6.05542L6.49496 4.83667C6.02621 4.71948 5.67465 4.80152 5.25277 5.04761L0.553555 7.69605C0.00277394 8.01245 -0.126132 8.82105 0.260587 9.33667C0.635587 9.86402 1.30355 9.95776 1.90121 9.65308L6.21371 7.36792L8.73324 8.03589C9.22543 8.17652 9.41293 8.51636 9.24887 8.97339L7.92465 12.6882C7.31527 14.4343 8.34652 15.9226 10.034 15.9226H14.3934C15.2957 15.9226 15.9285 16.4616 15.9285 17.364C15.9285 21.4069 13.2449 24.1023 9.20199 24.1023C5.15902 24.1023 2.45199 21.4069 2.45199 17.364C2.45199 15.9694 2.86215 14.7507 3.54183 13.7312C4.30355 12.5944 2.79183 11.6452 1.99496 12.8405C1.17465 14.0944 0.670743 15.6296 0.670743 17.364C0.670743 22.4733 4.06918 25.8835 9.19027 25.8835ZM17.7449 25.8835C18.4598 25.8835 19.034 25.3093 19.034 24.5944C19.034 23.8796 18.4598 23.3054 17.7449 23.3054C17.0301 23.3054 16.4559 23.8796 16.4559 24.5944C16.4559 25.3093 17.0301 25.8835 17.7449 25.8835Z" fill="black" fill-opacity="0.85"/>
</g>
<defs>
<clipPath id="clip0_2207_2641">
<rect width="18.9962" height="25.8164" fill="white" transform="translate(0.0378418 0.0671387)"/>
</clipPath>
</defs>
</svg>
