<svg width="16" height="29" viewBox="0 0 16 29" fill="none" xmlns="http://www.w3.org/2000/svg">
<g clip-path="url(#clip0_2207_2725)">
<path d="M5.95849 5.18701C7.36474 5.18701 8.5249 4.02686 8.5249 2.62061C8.5249 1.22608 7.36474 0.065918 5.95849 0.065918C4.55224 0.065918 3.4038 1.22608 3.4038 2.62061C3.4038 4.02686 4.55224 5.18701 5.95849 5.18701ZM12.0523 23.7847C12.5445 23.5503 12.8609 22.9761 12.5445 22.1792L10.4819 17.0112C10.4234 16.8471 10.3062 16.7182 10.0483 16.5307L6.2749 13.7417L6.55615 9.58154C6.56787 9.34717 6.74365 9.27686 6.9663 9.34717L9.41552 10.1792C9.6499 10.2495 9.94287 10.2847 10.2007 10.2495L14.7476 9.74561C16.3648 9.55811 16.0718 7.20264 14.478 7.37842L10.0718 7.88233L5.58349 6.39404C3.94287 5.84326 2.5249 6.76904 2.38427 8.40967L2.05615 12.5112C1.95068 13.7417 2.59521 14.937 3.6499 15.5464L8.44287 18.3237L10.3413 23.0581C10.6695 23.8901 11.4898 24.0659 12.0523 23.7847ZM1.08349 25.894C1.56396 26.1167 2.17334 26.0464 2.59521 25.4253L5.70068 20.7964C5.79443 20.644 5.87646 20.4331 5.88818 20.1753L6.01709 18.0893L3.35693 16.5425L3.50927 19.812L0.649903 24.1011C0.145996 24.8745 0.509278 25.6245 1.08349 25.894ZM10.1655 27.4878L14.7593 25.9643C15.0991 25.8471 15.2749 25.6128 15.2749 25.2143V10.7886C15.1343 10.8237 14.9819 10.8589 14.8179 10.8823L13.9741 10.9761V24.8511L9.7788 26.2456C9.32177 26.4097 9.20459 26.8081 9.33349 27.1245C9.42724 27.4057 9.74365 27.6284 10.1655 27.4878ZM0.720215 28.5542H5.5249C5.88818 28.5542 6.19287 28.2495 6.19287 27.8979C6.19287 27.5347 5.88818 27.2534 5.5249 27.2534H0.720215C0.356934 27.2534 0.0756836 27.5347 0.0756836 27.8979C0.0756836 28.2495 0.356934 28.5542 0.720215 28.5542Z" fill="black" fill-opacity="0.85"/>
</g>
<defs>
<clipPath id="clip0_2207_2725">
<rect width="15.7504" height="28.5117" fill="white" transform="translate(0.0756836 0.065918)"/>
</clipPath>
</defs>
</svg>
