<svg width="21" height="26" viewBox="0 0 21 26" fill="none" xmlns="http://www.w3.org/2000/svg">
<g clip-path="url(#clip0_2207_2745)">
<path d="M7.88796 23.7051C8.34499 23.5762 8.62624 23.4356 8.81374 23.084L11.3918 18.4434C11.4387 18.3614 11.4739 18.3262 11.5793 18.3262H17.884V24.2676C17.884 24.9473 18.4231 25.4629 19.0676 25.4629C19.7473 25.4629 20.2747 24.9473 20.2747 24.2676V17.2715C20.2747 16.4864 19.8528 16.0176 19.0325 15.9473L13.7239 15.4668V8.79883C13.7239 7.49805 12.8098 6.41992 11.2043 6.41992H10.6418C9.69264 6.41992 8.96608 6.58398 8.02858 7.28711L4.09108 10.2403C3.41139 10.7325 3.45827 11.7286 4.14967 12.1856L8.96608 15.3848V15.6895L6.86842 21.502L0.915297 23.1426C0.282484 23.3184 -0.0925158 23.9629 0.0832659 24.5957C0.270766 25.2637 0.868422 25.6036 1.54811 25.4278L7.88796 23.7051ZM6.86842 11.1309L8.64967 9.79492C8.7903 9.70117 8.96608 9.77148 8.96608 9.94727V12.5254L6.86842 11.1309ZM11.2043 5.18945C12.5989 5.18945 13.7473 4.04102 13.7473 2.61133C13.7473 1.2168 12.5989 0.0683594 11.2043 0.0683594C9.77467 0.0683594 8.62624 1.2168 8.62624 2.61133C8.62624 4.04102 9.77467 5.18945 11.2043 5.18945Z" fill="black" fill-opacity="0.85"/>
</g>
<defs>
<clipPath id="clip0_2207_2745">
<rect width="20.2348" height="25.5352" fill="white" transform="translate(0.039917 0.0683594)"/>
</clipPath>
</defs>
</svg>
