<svg width="29" height="27" viewBox="0 0 29 27" fill="none" xmlns="http://www.w3.org/2000/svg">
<g clip-path="url(#clip0_2207_2869)">
<path d="M7.90058 5.41211C9.23652 5.41211 10.3264 4.32227 10.3264 2.98633C10.3264 1.65039 9.23652 0.572265 7.90058 0.572265C6.56465 0.572265 5.48652 1.65039 5.48652 2.98633C5.48652 4.32227 6.56465 5.41211 7.90058 5.41211ZM22.0451 4.9082C23.3811 4.9082 24.4709 3.81836 24.4709 2.48242C24.4709 1.1582 23.3811 0.0683594 22.0451 0.0683594C20.7092 0.0683594 19.6311 1.1582 19.6311 2.48242C19.6311 3.81836 20.7092 4.9082 22.0451 4.9082ZM1.15058 8.38867L3.62324 8.58789C3.7873 8.59961 3.90449 8.7168 3.90449 8.9043V13.3926C3.90449 14.295 4.19746 15.1739 4.74824 15.8653L7.64277 19.5918L6.16621 24.502C5.96699 25.1465 6.34199 25.8379 6.96308 26.0137C7.58418 26.1895 8.26387 25.8965 8.4748 25.1934L10.1272 19.6739C10.1623 19.5684 10.174 19.4864 10.174 19.3809L14.6506 25.0411C15.0608 25.5567 15.8342 25.6622 16.3264 25.252C16.8537 24.8067 16.9475 24.0801 16.5373 23.5528L8.54512 13.4395L8.9084 9.85352C8.94355 9.5957 9.17793 9.4668 9.40058 9.57227L12.1779 10.9668C12.3654 11.0723 12.7053 11.1426 12.9748 11.1426H17.2522C17.5334 11.1426 17.8264 11.0372 18.0256 10.8614L20.0529 9.12695C20.2522 8.95117 20.4983 9.0332 20.592 9.26758L21.7287 12.4317L16.9358 13.7442C16.4553 13.8731 16.0803 14.295 16.0334 14.7989L15.4943 20.3184C15.424 21.1036 16.1154 21.6309 16.7014 21.6309C17.3108 21.6309 17.8381 21.1856 17.8967 20.5528L18.3537 15.959L21.717 15.4434L20.1115 18.6778C19.9358 19.0293 19.842 19.4161 19.9826 19.7793L22.1975 25.2989C22.467 25.9668 23.1936 26.2012 23.7678 25.9668C24.3772 25.7207 24.6818 25.0176 24.4358 24.3965L22.467 19.4864L25.1858 15.6192C25.8772 14.6582 26.1233 13.4161 25.9123 12.2559L25.4904 9.93555C25.4318 9.61914 25.6779 9.41992 25.9709 9.51367L27.3654 9.98242C28.3147 10.3106 29.0295 9.72461 28.9475 8.77539L28.385 3.19727C28.3264 2.50586 27.7053 2.03711 27.0725 2.10742C26.4279 2.17774 25.924 2.76367 25.9826 3.44336L26.3576 7.12305L23.0295 6.00977C21.6701 5.55274 20.2287 5.79883 19.1037 6.77148L16.8186 8.74024H13.1154L9.54121 6.95898C9.00215 6.67774 8.4748 6.53711 7.87715 6.49024L2.87324 6.11524L4.0334 2.61133C4.25605 1.9668 3.90449 1.28711 3.2834 1.07617C2.65058 0.865234 1.95918 1.20508 1.75996 1.83789L0.0841816 6.79492C-0.161912 7.54492 0.365431 8.33008 1.15058 8.38867Z" fill="black" fill-opacity="0.85"/>
</g>
<defs>
<clipPath id="clip0_2207_2869">
<rect width="28.9307" height="26.168" fill="white" transform="translate(0.0231934 0.0683594)"/>
</clipPath>
</defs>
</svg>
