<svg width="23" height="28" viewBox="0 0 23 28" fill="none" xmlns="http://www.w3.org/2000/svg">
<g clip-path="url(#clip0_2207_2821)">
<path d="M11.4064 5.92652C12.8243 5.92652 13.9611 4.7898 13.9611 3.37183C13.9611 1.95386 12.8243 0.80542 11.4064 0.80542C9.98845 0.80542 8.84001 1.95386 8.84001 3.37183C8.84001 4.7898 9.98845 5.92652 11.4064 5.92652ZM21.1681 8.12964C20.6876 7.64917 19.9493 7.66089 19.4689 8.12964L16.6095 10.9655L13.7501 8.08276C13.1876 7.50855 12.297 7.15698 11.4064 7.15698H3.7072C3.17985 7.15698 2.74626 7.47339 2.55876 7.98902L0.71892 13.5202C0.43767 14.3757 0.929858 14.9616 1.52751 15.1023C2.07829 15.2546 2.73454 15.0202 2.99235 14.2702L4.57439 9.55933H7.11735C7.35173 9.55933 7.51579 9.77026 7.43376 10.0046L5.87517 14.6921C5.35954 16.2155 5.82829 17.6804 7.53923 18.4304L12.5431 20.6218L14.2306 26.5398C14.4415 27.278 15.1212 27.5007 15.6954 27.3483C16.2814 27.196 16.7618 26.6569 16.5392 25.8718L14.6876 19.403C14.5822 19.0632 14.4181 18.8171 14.0197 18.6413L10.1173 16.9187L12.1915 10.6726C12.2853 10.4148 12.59 10.321 12.7892 10.5202L15.754 13.5202C16.2228 13.989 16.9962 13.989 17.465 13.5202L21.1681 9.82886C21.6486 9.33667 21.6486 8.61011 21.1681 8.12964ZM6.2736 19.0163L5.68767 22.3444L0.648608 25.1569C-0.0662358 25.5554 -0.101392 26.3054 0.226733 26.8327C0.53142 27.3249 1.16423 27.6296 1.8322 27.2546L7.37517 24.1843C7.71501 23.9851 7.8322 23.7624 7.94939 23.3991L8.99235 20.2937L7.0822 19.4616C6.78923 19.3327 6.5197 19.1804 6.2736 19.0163ZM22.1173 5.92652C22.5158 5.7273 22.7618 5.34058 22.7618 4.9187V1.23902C22.7618 0.594483 22.2697 0.0671387 21.6134 0.0671387H19.0118C18.3673 0.0671387 17.8517 0.594483 17.8517 1.23902V4.9187C17.8517 5.34058 18.0978 5.7273 18.5079 5.92652L20.3126 6.8523L22.1173 5.92652ZM19.6681 8.96167H20.9689V5.59839H19.6681V8.96167Z" fill="black" fill-opacity="0.85"/>
</g>
<defs>
<clipPath id="clip0_2207_2821">
<rect width="22.7345" height="27.5742" fill="white" transform="translate(0.0273438 0.0671387)"/>
</clipPath>
</defs>
</svg>
