<svg width="20" height="28" viewBox="0 0 20 28" fill="none" xmlns="http://www.w3.org/2000/svg">
<g clip-path="url(#clip0_2207_2901)">
<path d="M9.17438 5.18945C10.5689 5.18945 11.729 4.04102 11.729 2.63477C11.729 1.22852 10.5689 0.0683594 9.17438 0.0683594C7.76813 0.0683594 6.60797 1.22852 6.60797 2.63477C6.60797 4.04102 7.76813 5.18945 9.17438 5.18945ZM1.26422 8.63477H5.07281C5.24859 8.63477 5.40094 8.77539 5.3775 8.95117L5.01422 13.8965C4.88531 15.6661 5.91656 16.7676 7.41656 17.0723L12.315 18.1036L13.3696 23.3536C13.5103 24.0684 14.2368 24.4082 14.7759 24.3028C15.4321 24.1739 15.854 23.5293 15.7251 22.8731L14.5298 16.8379C14.4361 16.3692 14.0376 16.0411 13.5923 15.8887L9.80719 14.7051L10.1353 10.1348C10.1704 9.7832 10.4986 9.6543 10.7681 9.87695L12.5611 11.3653C12.7837 11.5411 13.0415 11.6465 13.3345 11.6465H18.772C19.44 11.6465 19.9673 11.1075 19.9673 10.4395C19.9673 9.77148 19.44 9.24414 18.772 9.24414H13.7681L11.1548 7.06445C10.4986 6.52539 9.90094 6.2207 8.96344 6.2207H2.89313L4.24078 1.74414C4.42828 1.09961 4.065 0.419921 3.43219 0.232421C2.78766 0.0449219 2.09625 0.408203 1.90875 1.05273L0.115782 7.07617C-0.118593 7.87305 0.256407 8.63477 1.26422 8.63477ZM6.36188 27.8418C6.93609 28.0176 7.65094 27.7598 7.87359 27.045L9.66656 21.0567C9.71344 20.8926 9.72516 20.7168 9.72516 20.5293V18.7129L7.19391 18.1739C7.13531 18.1622 7.08844 18.1622 7.04156 18.1504L7.29938 20.5293L5.55328 26.3536C5.36578 26.9746 5.72906 27.6543 6.36188 27.8418Z" fill="black" fill-opacity="0.85"/>
</g>
<defs>
<clipPath id="clip0_2207_2901">
<rect width="19.919" height="27.8789" fill="white" transform="translate(0.0483398 0.0683594)"/>
</clipPath>
</defs>
</svg>
