<svg width="28" height="21" viewBox="0 0 28 21" fill="none" xmlns="http://www.w3.org/2000/svg">
<g clip-path="url(#clip0_2207_2809)">
<path d="M13.8865 14.6218C15.9607 14.6218 16.5466 13.3444 18.3865 12.8757L10.2654 4.42652C9.73803 3.88745 8.9646 3.80542 8.33178 4.26245L3.73803 7.53198C2.94116 8.08276 3.02319 8.92652 3.48022 9.4187C3.85522 9.84058 4.54663 10.0164 5.20288 9.54761L8.92944 6.91089L11.0388 9.07886C11.2732 9.32495 11.3435 9.69995 10.9802 9.94605L6.64428 12.7937C7.14819 12.7468 7.68725 12.7233 8.30835 12.7468C10.9685 12.864 11.4607 14.6218 13.8865 14.6218ZM0.679443 17.7155H1.86303C4.99194 17.7155 5.70678 15.7937 7.87475 15.7937C10.0427 15.7937 10.7576 17.7155 13.8865 17.7155C17.0271 17.7155 17.7302 15.7937 19.9099 15.7937C22.0779 15.7937 22.781 17.7155 25.9216 17.7155H27.1052C27.4685 17.7155 27.7615 17.4343 27.7615 17.071C27.7615 16.7077 27.4685 16.4148 27.1052 16.4148H25.9216C23.6716 16.4148 22.9099 14.4929 19.9099 14.4929C16.8982 14.4929 16.1365 16.4148 13.8865 16.4148C11.6365 16.4148 10.8865 14.4929 7.87475 14.4929C4.87475 14.4929 4.11303 16.4148 1.86303 16.4148H0.679443C0.304443 16.4148 0.0231934 16.7077 0.0231934 17.071C0.0231934 17.4343 0.304443 17.7155 0.679443 17.7155ZM0.679443 20.9499H1.86303C4.99194 20.9499 5.70678 19.0163 7.87475 19.0163C10.0427 19.0163 10.7576 20.9499 13.8865 20.9499C17.0271 20.9499 17.7302 19.0163 19.9099 19.0163C22.0779 19.0163 22.781 20.9499 25.9216 20.9499H27.1052C27.4685 20.9499 27.7615 20.6569 27.7615 20.2937C27.7615 19.9304 27.4685 19.6374 27.1052 19.6374H25.9216C23.6716 19.6374 22.9099 17.7155 19.9099 17.7155C16.8982 17.7155 16.1365 19.6374 13.8865 19.6374C11.6365 19.6374 10.8865 17.7155 7.87475 17.7155C4.87475 17.7155 4.11303 19.6374 1.86303 19.6374H0.679443C0.304443 19.6374 0.0231934 19.9304 0.0231934 20.2937C0.0231934 20.6569 0.304443 20.9499 0.679443 20.9499ZM10.0896 0.723389C10.0896 1.08667 10.3826 1.37964 10.7459 1.37964C11.8005 1.37964 12.4451 1.56714 13.113 2.30542C13.3709 2.58667 13.6287 2.70386 13.8865 2.70386C14.156 2.70386 14.4138 2.58667 14.6716 2.30542C15.3396 1.56714 15.9841 1.37964 17.0388 1.37964C17.4021 1.37964 17.6951 1.08667 17.6951 0.723389C17.6951 0.360108 17.4021 0.0671387 17.0271 0.0671387C15.7263 0.0671387 14.8591 0.383545 13.8865 1.26245C12.9255 0.383545 12.0584 0.0671387 10.7459 0.0671387C10.3826 0.0671387 10.0896 0.360108 10.0896 0.723389ZM18.5623 9.87573C19.9802 9.87573 21.1287 8.7273 21.1287 7.30933C21.1287 5.90308 19.9802 4.75464 18.5623 4.75464C17.1443 4.75464 16.0076 5.90308 16.0076 7.30933C16.0076 8.7273 17.1443 9.87573 18.5623 9.87573Z" fill="black" fill-opacity="0.85"/>
</g>
<defs>
<clipPath id="clip0_2207_2809">
<rect width="27.7383" height="20.8945" fill="white" transform="translate(0.0231934 0.0671387)"/>
</clipPath>
</defs>
</svg>
