<svg width="13" height="27" viewBox="0 0 13 27" fill="none" xmlns="http://www.w3.org/2000/svg">
<g clip-path="url(#clip0_2207_2581)">
<path d="M0.0807643 1.17316L0.303421 5.28644C0.338577 6.03644 0.631546 6.47003 1.15889 6.85675L3.70185 8.72003C4.01826 8.94269 4.19404 9.10675 4.19404 9.65753V24.9505C4.19404 25.5834 4.70967 26.0873 5.34248 26.0873C5.97529 26.0873 6.4792 25.5834 6.4792 24.9505V16.724C6.4792 16.513 6.6667 16.3255 6.87764 16.3255C7.08857 16.3255 7.26435 16.513 7.26435 16.724V24.9505C7.26435 25.5834 7.77998 26.0873 8.41279 26.0873C9.0456 26.0873 9.54951 25.5834 9.54951 24.9505V11.3685C9.54951 11.1576 9.72529 10.9935 9.93623 10.9935C10.1471 10.9935 10.3112 11.1576 10.3112 11.3685V15.8802C10.3112 16.4662 10.7799 16.9232 11.3542 16.9232C11.9284 16.9232 12.3971 16.4662 12.3971 15.8802V10.8412C12.3971 8.25128 10.4987 6.52863 7.7331 6.52863H5.2956C4.59248 6.52863 4.15889 6.388 3.59639 5.98956L2.37764 5.12238L2.15498 1.06769C2.13154 0.49347 1.63935 0.02472 1.06514 0.071595C0.479202 0.11847 0.0573269 0.598938 0.0807643 1.17316ZM6.87764 5.21613C8.2956 5.21613 9.43232 4.07941 9.43232 2.66144C9.43232 1.24347 8.2956 0.106751 6.87764 0.106751C5.45967 0.106751 4.32295 1.24347 4.32295 2.66144C4.32295 4.07941 5.45967 5.21613 6.87764 5.21613Z" fill="black" fill-opacity="0.85"/>
</g>
<defs>
<clipPath id="clip0_2207_2581">
<rect width="12.3173" height="26.1276" fill="white" transform="translate(0.079834 0.0683594)"/>
</clipPath>
</defs>
</svg>
