<svg width="24" height="24" viewBox="0 0 24 24" fill="none" xmlns="http://www.w3.org/2000/svg">
<g clip-path="url(#clip0_2207_2585)">
<path d="M12.0351 23.9746C18.5742 23.9746 23.9882 18.5489 23.9882 12.0215C23.9882 5.48242 18.5625 0.0683594 12.0234 0.0683594C5.49609 0.0683594 0.0820312 5.48242 0.0820312 12.0215C0.0820312 18.5489 5.50781 23.9746 12.0351 23.9746ZM12.0351 21.9825C6.50391 21.9825 2.08594 17.5528 2.08594 12.0215C2.08594 6.49024 6.49219 2.06055 12.0234 2.06055C17.5547 2.06055 21.9961 6.49024 21.9961 12.0215C21.9961 17.5528 17.5664 21.9825 12.0351 21.9825Z" fill="black" fill-opacity="0.85"/>
<path d="M10.9569 19.9667C11.4022 19.9667 11.7186 19.6855 11.7186 19.1464V14.3417C11.7186 14.0956 11.8241 13.955 12.0233 13.955C12.1991 13.955 12.3046 14.0839 12.3046 14.3417V19.1464C12.3046 19.6855 12.6444 19.9667 13.1014 19.9667C13.5467 19.9667 13.8514 19.6855 13.8514 19.1464V10.7675C13.8514 10.58 13.9686 10.4511 14.121 10.4511C14.2733 10.4511 14.3671 10.5683 14.3671 10.7675V14.1894C14.3671 14.6699 14.6717 14.9394 15.0936 14.9394C15.4921 14.9394 15.7733 14.6699 15.7733 14.1894V10.955C15.7733 8.85737 14.5897 8.28315 12.035 8.28315H11.0507C10.5702 8.28315 10.3475 8.1894 9.98427 7.94331L8.96474 7.21675L8.8124 4.88472C8.77724 4.39253 8.47255 4.14643 8.0624 4.16987C7.65224 4.20503 7.38271 4.47456 7.41787 4.97847L7.55849 7.3105C7.59365 7.8144 7.82802 8.11909 8.15615 8.35347L9.84365 9.60737C10.078 9.77143 10.1717 9.95893 10.1717 10.2285V19.1464C10.1717 19.6855 10.4999 19.9667 10.9569 19.9667ZM12.035 7.59175C12.8788 7.59175 13.5702 6.88862 13.5702 6.09175C13.5702 5.23628 12.8788 4.55659 12.035 4.55659C11.1796 4.55659 10.5233 5.23628 10.5233 6.09175C10.5233 6.88862 11.1796 7.59175 12.035 7.59175Z" fill="black" fill-opacity="0.85"/>
</g>
<defs>
<clipPath id="clip0_2207_2585">
<rect width="23.9062" height="23.918" fill="white" transform="translate(0.0820312 0.0683594)"/>
</clipPath>
</defs>
</svg>
