<svg width="25" height="34" viewBox="0 0 25 34" fill="none" xmlns="http://www.w3.org/2000/svg">
<g clip-path="url(#clip0_2207_2685)">
<path d="M22.0527 11.2807C23.4589 11.2807 24.5957 10.144 24.5957 8.72608C24.5957 7.31983 23.4589 6.18311 22.0527 6.18311C20.6347 6.18311 19.4863 7.31983 19.4863 8.72608C19.4863 10.144 20.6347 11.2807 22.0527 11.2807ZM1.26367 14.4917H7.09961L10.6855 17.7495C10.8378 17.8784 10.7558 18.1011 10.5566 18.1011H6.4668C6.11523 18.1011 5.76367 18.1831 5.51758 18.4292L1.16992 22.7886C0.701172 23.269 0.689453 24.0073 1.16992 24.4878C1.63867 24.9565 2.40039 24.9565 2.86914 24.4878L6.77148 20.5854L11.541 21.3706C13.0644 21.6167 14.623 21.1479 15.7246 20.0229L18.4199 17.3393C18.6425 17.1167 18.9589 17.2456 18.9589 17.5503V19.4018L15.7128 22.6479C15.2441 23.1167 15.2558 23.8784 15.7128 24.3471C15.9472 24.5815 16.2519 24.6987 16.58 24.6987C16.8847 24.6987 17.1894 24.5815 17.4238 24.3471L21.0214 20.7495C21.2441 20.5268 21.373 20.1987 21.373 19.894V14.5386C21.373 13.7651 21.1269 13.1323 20.6699 12.687L13.5449 5.58545V8.98389L16.6152 12.0542C16.8378 12.2768 16.8261 12.5229 16.6152 12.7221L13.4277 15.9214L8.24805 12.2886C8.02539 12.1362 7.84961 12.0776 7.52148 12.0776H1.26367C0.595703 12.0776 0.0566406 12.6167 0.0566406 13.2847C0.0566406 13.9409 0.595703 14.4917 1.26367 14.4917ZM14.166 26.5386C15.9004 26.5386 17.2246 25.1792 17.2128 23.4448H15.9121C15.9238 24.4761 15.1738 25.2378 14.166 25.2378C13.1699 25.2378 12.4082 24.6284 12.4082 23.4917V0.710449C12.4082 0.358887 12.1152 0.065918 11.7636 0.065918C11.4121 0.065918 11.1074 0.358887 11.1074 0.710449V23.4917C11.1074 25.3784 12.4433 26.5386 14.166 26.5386ZM16.5566 33.1128C16.9316 33.1128 17.2128 32.8198 17.2128 32.4565V18.0425H15.9121V32.4565C15.9121 32.8198 16.1933 33.1128 16.5566 33.1128Z" fill="black" fill-opacity="0.85"/>
</g>
<defs>
<clipPath id="clip0_2207_2685">
<rect width="24.5391" height="33.0586" fill="white" transform="translate(0.0566406 0.065918)"/>
</clipPath>
</defs>
</svg>
