<svg width="34" height="26" viewBox="0 0 34 26" fill="none" xmlns="http://www.w3.org/2000/svg">
<g clip-path="url(#clip0_2207_2521)">
<path d="M10.1802 5.18701C11.5981 5.18701 12.7349 4.0503 12.7349 2.64404C12.7349 1.22608 11.5981 0.0893555 10.1802 0.0893555C8.76221 0.0893555 7.62549 1.22608 7.62549 2.64404C7.62549 4.0503 8.76221 5.18701 10.1802 5.18701ZM23.3521 5.18701C24.7583 5.18701 25.895 4.0503 25.895 2.64404C25.895 1.22608 24.7583 0.0893555 23.3521 0.0893555C21.9341 0.0893555 20.7974 1.22608 20.7974 2.64404C20.7974 4.0503 21.9341 5.18701 23.3521 5.18701ZM10.1685 16.1909C10.6724 16.1909 10.8833 16.4956 11.1411 17.3628C11.5044 18.5229 12.7466 23.4448 13.0981 24.8979C13.2739 25.6245 13.6606 25.9292 14.2114 25.9292C14.9614 25.9292 15.4067 25.2495 15.2075 24.5112C15.1372 24.1948 13.4145 17.0932 13.1919 15.6284C12.9692 14.1284 12.9458 10.8589 12.9575 9.92139C12.981 9.1128 13.3442 8.72608 14.0591 8.60889C14.7388 8.4917 15.8169 8.43311 16.7778 8.44483C17.7739 8.44483 18.8052 8.4917 19.4966 8.60889C20.2114 8.72608 20.5747 9.1128 20.5864 9.92139C20.6099 10.8589 20.5747 14.1284 20.3286 15.6284C20.0942 17.0932 18.395 24.1948 18.3013 24.5112C18.1021 25.2495 18.5708 25.9292 19.3091 25.9292C19.8599 25.9292 20.2349 25.6245 20.4341 24.8979C20.8208 23.4565 22.0278 18.5464 22.4028 17.3628C22.6841 16.519 22.8716 16.1909 23.3521 16.1909C23.8442 16.1909 24.0669 16.4956 24.3247 17.3628C24.6763 18.5229 25.9302 23.4448 26.2817 24.8979C26.4575 25.6245 26.856 25.9292 27.395 25.9292C28.145 25.9292 28.5903 25.2495 28.3911 24.5112C28.3091 24.1948 26.5981 17.0932 26.3638 15.6284C26.1411 14.1284 26.1411 10.8589 26.1528 9.85108C26.1528 9.14795 26.4575 8.70264 27.0435 8.57373C27.5942 8.44483 32.0708 7.96436 32.6919 7.76514C33.1841 7.6128 33.5356 7.20264 33.5356 6.66358C33.5356 5.98389 33.0083 5.57373 32.5395 5.57373C32.3403 5.57373 32.1528 5.62061 31.9302 5.66748C30.1138 5.99561 26.1645 6.31201 23.3521 6.41748C20.9614 6.4878 18.4185 6.54639 16.8247 6.54639C15.2075 6.54639 12.606 6.4878 10.1685 6.41748C7.39111 6.33545 3.40674 6.01904 1.57861 5.66748C1.39111 5.62061 1.18018 5.57373 1.00439 5.57373C0.48877 5.57373 0.00830078 5.98389 0.00830078 6.66358C0.00830078 7.20264 0.336426 7.65967 0.840332 7.76514C1.48486 7.90576 5.93799 8.46826 6.48877 8.57373C7.05127 8.6792 7.39111 9.14795 7.41455 9.85108C7.42627 10.8589 7.39111 14.1284 7.14502 15.6284C6.91064 17.0932 5.21142 24.1948 5.12939 24.5112C4.91846 25.2495 5.38721 25.9292 6.12549 25.9292C6.67627 25.9292 7.06299 25.6245 7.26221 24.8979C7.64892 23.4565 8.84424 18.5464 9.23096 17.3628C9.51221 16.519 9.68799 16.1909 10.1685 16.1909Z" fill="black" fill-opacity="0.85"/>
</g>
<defs>
<clipPath id="clip0_2207_2521">
<rect width="33.5273" height="25.8633" fill="white" transform="translate(0.00830078 0.065918)"/>
</clipPath>
</defs>
</svg>
