<svg width="24" height="28" viewBox="0 0 24 28" fill="none" xmlns="http://www.w3.org/2000/svg">
<g clip-path="url(#clip0_2207_2865)">
<path d="M15.2554 5.18945C16.6734 5.18945 17.8101 4.05274 17.8101 2.63477C17.8101 1.2168 16.6734 0.0683594 15.2554 0.0683594C13.8257 0.0683594 12.689 1.2168 12.689 2.63477C12.689 4.05274 13.8257 5.18945 15.2554 5.18945ZM3.51323 13.6973C4.22808 14.0254 4.87261 13.709 5.15386 13.1465L7.29839 8.86914H9.8648C10.1343 8.86914 10.3218 9.12695 10.1812 9.37305L7.9312 13.8379C7.09917 15.4903 8.1187 17.5645 10.2984 17.4356L16.357 17.0606L14.1187 22.0293C13.8375 22.6622 14.107 23.4356 14.7398 23.67C15.4429 23.9395 16.0523 23.7286 16.357 23.0489L19.4742 16.2051C19.814 15.4668 19.3335 14.4473 18.3843 14.4473H12.8882L15.3257 9.58398C15.4195 9.37305 15.6773 9.31445 15.8414 9.49024L18.7125 12.2325C19.2867 12.7832 20.3062 12.6895 20.7046 11.9043L23.1773 6.93555C23.482 6.31445 23.2945 5.56445 22.6382 5.25977C22.0171 4.9668 21.2789 5.22461 20.9742 5.83398L19.2398 9.25586L17.8335 7.83789C16.8843 6.88867 15.8765 6.39648 14.3296 6.39648H6.53667C6.06792 6.39648 5.64605 6.66602 5.44683 7.07617L2.93901 12.0567C2.63433 12.6661 2.8687 13.3809 3.51323 13.6973ZM0.149947 25.7325C0.536667 26.5411 1.39214 26.5528 1.79058 26.377L7.97808 23.6817C8.23589 23.5645 8.45855 23.3653 8.58745 23.0957L10.8492 18.5372L10.3687 18.5723C9.38433 18.6309 8.52886 18.3496 7.89605 17.8692L6.50151 21.6075L0.794479 24.0684C0.149947 24.3496 -0.178178 25.0762 0.149947 25.7325ZM20.5992 26.8926C22.0406 26.8926 23.1773 25.7676 23.1773 24.3262C23.1773 22.9082 22.0406 21.7715 20.5992 21.7715C19.1812 21.7715 18.0562 22.9082 18.0562 24.3262C18.0562 25.7676 19.1812 26.8926 20.5992 26.8926Z" fill="black" fill-opacity="0.85"/>
</g>
<defs>
<clipPath id="clip0_2207_2865">
<rect width="23.2985" height="26.9414" fill="white" transform="translate(0.0209961 0.0683594)"/>
</clipPath>
</defs>
</svg>
