<svg width="25" height="22" viewBox="0 0 25 22" fill="none" xmlns="http://www.w3.org/2000/svg">
<g clip-path="url(#clip0_2207_2801)">
<path d="M0.409925 9.95776L4.33571 13.8952C4.87477 14.4343 5.75368 14.446 6.28102 13.7898L8.75368 10.7429C8.91774 10.5554 9.17555 10.6609 9.17555 10.8952V16.0866L4.74586 15.5944C3.22243 15.4187 2.73024 17.6569 4.19508 18.1374L9.22243 19.8015C8.97633 20.8444 9.87868 21.7351 10.9099 21.3952L12.4568 20.8913L14.0037 21.3952C15.0349 21.7351 15.9373 20.8444 15.6912 19.8015L20.7302 18.1374C22.1951 17.6569 21.6912 15.4187 20.1677 15.5944L15.7381 16.0866V10.8952C15.7381 10.6609 16.0076 10.5554 16.1599 10.7429L18.6326 13.7898C19.1599 14.446 20.0388 14.4343 20.5779 13.8952L24.5037 9.95776C25.0193 9.43042 25.031 8.62183 24.5037 8.1062C23.9998 7.6023 23.1677 7.6023 22.6521 8.1062L19.7576 11.0124L16.8045 7.39136C16.3123 6.7937 15.574 6.4187 14.7888 6.4187H10.1365C9.33961 6.4187 8.61305 6.7937 8.10914 7.39136L5.15602 11.0124L2.26149 8.1062C1.74586 7.6023 0.913831 7.6023 0.409925 8.1062C-0.117419 8.62183 -0.1057 9.43042 0.409925 9.95776ZM12.4568 5.18823C13.8631 5.18823 14.9998 4.0398 14.9998 2.61011C14.9998 1.20386 13.8631 0.0671387 12.4568 0.0671387C11.0271 0.0671387 9.87868 1.20386 9.87868 2.61011C9.87868 4.0398 11.0271 5.18823 12.4568 5.18823Z" fill="black" fill-opacity="0.85"/>
</g>
<defs>
<clipPath id="clip0_2207_2801">
<rect width="24.876" height="21.7148" fill="white" transform="translate(0.0187988 0.0671387)"/>
</clipPath>
</defs>
</svg>
