<svg width="21" height="29" viewBox="0 0 21 29" fill="none" xmlns="http://www.w3.org/2000/svg">
<g clip-path="url(#clip0_2207_2669)">
<path d="M9.26829 7.5542C10.6746 7.5542 11.8113 6.41748 11.8113 4.99951C11.8113 3.59326 10.6746 2.45654 9.26829 2.45654C7.8386 2.45654 6.70188 3.59326 6.70188 4.99951C6.70188 6.41748 7.8386 7.5542 9.26829 7.5542ZM2.79954 28.5307C3.45579 28.6479 4.06517 28.2143 4.19407 27.5347L5.30735 21.5464L9.97142 19.0151C10.1004 18.9331 10.2175 18.9682 10.2761 19.0971L12.6316 24.7807C12.7722 25.0854 12.9832 25.2964 13.2527 25.437L18.5496 28.3784C19.2175 28.7651 19.9207 28.4487 20.2019 27.9214C20.5418 27.3471 20.3191 26.5854 19.7332 26.2573L14.7996 23.5268L11.4597 10.1557C11.2605 9.35889 10.5691 8.78467 9.7136 8.78467H2.55345L5.90501 1.65967C6.36204 0.69873 5.67063 0.065918 4.96751 0.065918C4.56907 0.065918 4.18235 0.265137 3.98313 0.757324L0.115947 10.8354C-0.0715535 11.3159 0.0807905 11.7612 0.373759 12.0542L3.36204 15.0542C3.81907 15.4995 4.60423 15.4995 5.06126 15.0542L6.38548 13.7182C6.56126 13.5425 6.83079 13.5425 6.9011 13.8003L7.61595 16.6714L3.47923 19.7768C3.18626 19.9995 3.05735 20.3511 2.98704 20.6792L1.82688 27.1128C1.7097 27.7456 2.14329 28.4018 2.79954 28.5307ZM5.44798 11.1987L4.20579 12.4409L2.9636 11.1987H5.44798Z" fill="black" fill-opacity="0.85"/>
</g>
<defs>
<clipPath id="clip0_2207_2669">
<rect width="20.3283" height="28.6992" fill="white" transform="translate(0.0335693 0.065918)"/>
</clipPath>
</defs>
</svg>
