<svg width="31" height="25" viewBox="0 0 31 25" fill="none" xmlns="http://www.w3.org/2000/svg">
<g clip-path="url(#clip0_2207_16106)">
<path d="M19.3932 6.62964C21.1511 6.62964 22.5573 5.1648 22.5573 3.46558C22.5573 1.69605 21.1511 0.254639 19.3932 0.254639C17.6237 0.254639 16.2057 1.69605 16.2057 3.46558C16.2057 5.19995 17.6237 6.62964 19.3932 6.62964ZM17.3542 18.7702C17.8698 18.3601 18.362 17.6687 18.8307 16.8015L20.987 12.8874C21.9831 11.0827 21.655 9.24292 19.9557 8.32886C18.3034 7.4148 16.5925 8.11792 15.5847 9.94605L13.3581 13.9655L17.3542 18.7702ZM0.514323 23.3757C1.1237 24.0202 2.16666 23.9616 2.91666 23.1999L7.95573 17.9968C8.13152 17.821 8.23697 17.7741 8.49479 17.8796L12.7487 19.4851C13.6745 19.8366 14.6823 19.7663 15.4206 19.6257L12.4909 16.0046L9.50261 14.9148C8.1198 14.4109 6.97136 14.5749 5.85808 15.7233L0.619792 21.1374C-0.0950519 21.8874 -0.036458 22.8249 0.514323 23.3757ZM19.8854 23.5163C20.3659 23.1413 20.4011 22.5554 19.944 22.0046L17.3542 18.7702C16.7565 19.1921 16.1003 19.4851 15.4206 19.6257L18.4089 23.2937C18.8425 23.821 19.3932 23.9265 19.8854 23.5163Z" fill="black" fill-opacity="0.85"/>
<path d="M24.4323 23.7977H30.0573C30.4909 23.7977 30.7956 23.493 30.7956 23.0711C30.7956 22.6375 30.4909 22.3328 30.0573 22.3328H26.0847V22.2977L28.6276 19.5555C29.53 18.5945 30.1979 17.7508 30.1979 16.5438C30.1979 14.868 28.8972 13.7781 26.8698 13.7781C25.3581 13.7781 23.9987 14.6922 23.6472 15.9344C23.612 16.0984 23.5886 16.2274 23.5886 16.3797C23.5886 16.8133 23.8698 17.1063 24.3151 17.1063C24.7136 17.1063 24.9128 16.8602 25.112 16.532C25.3932 15.8875 25.9557 15.2195 26.9401 15.2195C27.9362 15.2195 28.6042 15.8055 28.6042 16.661C28.6042 17.4227 27.9597 18.0672 27.3386 18.7352L23.9284 22.4031C23.7409 22.6024 23.6354 22.8133 23.6354 23.0711C23.6354 23.5164 23.9401 23.7977 24.4323 23.7977Z" fill="black" fill-opacity="0.85"/>
<path d="M6.05713 11.9616C9.37353 11.9616 11.9516 9.2312 11.9516 6.05542C11.9516 2.73902 9.37353 0.0671387 6.05713 0.0671387C2.75244 0.0671387 0.0922852 2.73902 0.0922852 6.05542C0.0922852 9.2312 2.75244 11.9616 6.05713 11.9616Z" fill="black" fill-opacity="0.85"/>
</g>
<defs>
<clipPath id="clip0_2207_16106">
<rect width="30.7033" height="23.9414" fill="white" transform="translate(0.0922852 0.0671387)"/>
</clipPath>
</defs>
</svg>
