<svg width="24" height="28" viewBox="0 0 24 28" fill="none" xmlns="http://www.w3.org/2000/svg">
<g clip-path="url(#clip0_2207_2487)">
<path d="M7.89409 5.66748C9.30034 5.66748 10.4253 4.5542 10.4253 3.14795C10.4253 1.7417 9.30034 0.616699 7.89409 0.616699C6.48784 0.616699 5.37456 1.7417 5.37456 3.14795C5.37456 4.5542 6.48784 5.66748 7.89409 5.66748ZM7.89409 17.0112C8.37456 17.0112 8.56206 17.3393 8.83159 18.1831C9.23003 19.3667 10.4136 24.2768 10.8121 25.7182C11.0113 26.4448 11.3863 26.7495 11.9371 26.7495C12.6871 26.7495 13.1441 26.0698 12.9332 25.3315C12.8511 25.0151 11.1519 17.9136 10.9175 16.4487C10.7183 15.1597 10.6597 12.5581 10.6597 11.3276C10.6597 11.1401 10.8707 11.0698 10.9878 11.2339C11.8668 12.4643 13.4839 14.7612 13.8003 15.1362C14.1402 15.5347 14.7027 15.605 15.1714 15.3471C15.7691 15.0307 15.898 14.3862 15.6519 13.9409C15.5582 13.7651 15.4293 13.5893 15.3121 13.4136L12.2769 8.94873C11.316 7.53076 10.1207 6.89795 7.89409 6.89795C5.66753 6.89795 4.48394 7.53076 3.51128 8.94873L0.476122 13.4136C0.358934 13.5893 0.241747 13.7651 0.136278 13.9409C-0.109816 14.3862 0.0308092 15.0307 0.628465 15.3471C1.09722 15.605 1.648 15.5347 1.99956 15.1362C2.31597 14.7612 3.92144 12.4761 4.80034 11.2339C4.90581 11.0815 5.12847 11.1401 5.12847 11.3393C5.12847 12.5698 5.08159 15.1597 4.88238 16.4487C4.648 17.9136 2.93706 25.0151 2.85503 25.3315C2.64409 26.0698 3.10113 26.7495 3.85113 26.7495C4.40191 26.7495 4.77691 26.4448 4.97613 25.7182C5.37456 24.2768 6.56988 19.3667 6.95659 18.1831C7.22613 17.3393 7.41363 17.0112 7.89409 17.0112Z" fill="black" fill-opacity="0.85"/>
<path d="M15.148 27.6401C16.0503 27.6401 16.7418 27.0542 16.9761 26.1518C17.1168 25.6597 17.3863 24.5815 17.6324 23.5737C17.8785 24.5815 18.148 25.6597 18.2886 26.1518C18.523 27.0542 19.2144 27.6401 20.1168 27.6401C21.3824 27.6401 22.1675 26.4565 21.8746 25.2847C21.8628 25.1909 21.1949 22.4136 20.8433 20.8315C21.4644 21.5698 22.4488 21.6284 23.1402 21.1245C23.8433 20.6323 24.0777 19.6597 23.5386 18.8159L21.5933 15.8159C20.7378 14.4917 19.355 13.9761 18.0425 13.9761H17.6324C17.2457 13.9761 17.0347 13.8471 16.6363 13.437L15.3824 12.1245C14.7144 11.4214 13.4839 11.4097 12.7925 12.1831C12.148 12.8745 12.0425 13.9057 12.6753 14.6792C13.0152 15.1128 13.9293 16.144 14.6441 17.0464C14.7496 17.1636 14.7496 17.1636 14.7496 17.2807C14.7496 17.855 14.7144 19.2378 14.6207 19.9175C14.4566 20.8198 13.4136 25.1675 13.3902 25.2847C13.0972 26.4565 13.8824 27.6401 15.148 27.6401Z" fill="white"/>
<path d="M17.7496 13.7651C18.7808 13.7651 19.6363 12.9214 19.6363 11.8901C19.6363 10.8589 18.7808 10.0151 17.7496 10.0151C16.7183 10.0151 15.8746 10.8589 15.8746 11.8901C15.8746 12.9214 16.7183 13.7651 17.7496 13.7651ZM15.148 26.7495C15.5933 26.7495 15.9683 26.4917 16.1089 25.9057C16.355 25.0268 17.0699 22.0034 17.3043 21.2651C17.4683 20.7847 17.5035 20.7495 17.6324 20.7495C17.7613 20.7495 17.7964 20.7847 17.9605 21.2651C18.1832 22.0034 18.9097 25.0268 19.1558 25.9057C19.2964 26.4917 19.6714 26.7495 20.1168 26.7495C20.7847 26.7495 21.1714 26.1284 21.0074 25.519C20.9488 25.3198 19.9293 20.9721 19.7652 20.0581C19.6832 19.4956 19.6363 18.5112 19.6363 18.1011C19.6363 17.9136 19.8472 17.855 19.9527 18.0073L21.4527 20.1753C21.7691 20.6323 22.2847 20.644 22.6246 20.3979C22.9293 20.187 23.0816 19.7534 22.7886 19.3081L20.855 16.3081C20.1753 15.2768 19.1207 14.8667 18.0425 14.8667H17.6324C16.8472 14.8667 16.5074 14.6206 15.98 14.0581L14.7378 12.7339C14.4214 12.4057 13.8003 12.394 13.4488 12.8042C13.1324 13.1323 13.0269 13.6128 13.2964 14.0229C13.4253 14.2221 14.5035 15.4292 15.3472 16.4839C15.5347 16.7182 15.6402 16.9409 15.6402 17.2807C15.6402 17.8667 15.6168 19.3315 15.4996 20.0581C15.3355 20.9721 14.316 25.3198 14.2574 25.519C14.0933 26.1284 14.48 26.7495 15.148 26.7495Z" fill="black" fill-opacity="0.85"/>
</g>
<defs>
<clipPath id="clip0_2207_2487">
<rect width="23.8138" height="27.5742" fill="white" transform="translate(0.0209961 0.065918)"/>
</clipPath>
</defs>
</svg>
