<svg width="24" height="24" viewBox="0 0 24 24" fill="none" xmlns="http://www.w3.org/2000/svg">
<g clip-path="url(#clip0_2207_2590)">
<path d="M12.0371 23.9746C18.5762 23.9746 23.9902 18.5489 23.9902 12.0215C23.9902 5.48242 18.5645 0.0683594 12.0254 0.0683594C5.49804 0.0683594 0.0839844 5.48242 0.0839844 12.0215C0.0839844 18.5489 5.50976 23.9746 12.0371 23.9746Z" fill="black" fill-opacity="0.85"/>
<path d="M11.0292 20.1309C10.5487 20.1309 10.2675 19.8379 10.2675 19.334V9.97071C10.2675 9.66603 10.1503 9.45509 9.89248 9.26759L8.13467 7.95509C7.74795 7.67384 7.57217 7.36915 7.54873 6.91212L7.38467 4.45118C7.34951 3.99415 7.59561 3.7129 8.00577 3.67775C8.42764 3.64259 8.69717 3.9004 8.72061 4.35743L8.89639 6.84181L9.99795 7.61525C10.3847 7.88478 10.6425 7.99025 11.1816 7.99025H12.1777C14.7909 7.99025 15.998 8.57618 15.998 10.7325V14.1309C15.998 14.5879 15.7401 14.8692 15.33 14.8692C14.9081 14.8692 14.6386 14.5879 14.6386 14.1309V10.545C14.6386 10.3106 14.498 10.1465 14.2987 10.1465C14.0878 10.1465 13.9589 10.2989 13.9589 10.545V19.334C13.9589 19.8496 13.7011 20.1309 13.2206 20.1309C12.7401 20.1309 12.4472 19.8379 12.4472 19.334V14.0606C12.4472 13.8379 12.3183 13.6739 12.1073 13.6739C11.8964 13.6739 11.7675 13.8262 11.7675 14.0606V19.334C11.7675 19.8496 11.498 20.1309 11.0292 20.1309ZM12.1777 7.22853C11.3456 7.22853 10.6425 6.53712 10.6425 5.70509C10.6425 4.84962 11.3222 4.15821 12.1777 4.15821C13.0331 4.15821 13.7245 4.84962 13.7245 5.70509C13.7245 6.5254 13.0097 7.22853 12.1777 7.22853Z" fill="white"/>
</g>
<defs>
<clipPath id="clip0_2207_2590">
<rect width="23.9062" height="23.918" fill="white" transform="translate(0.0839844 0.0683594)"/>
</clipPath>
</defs>
</svg>
