<svg width="25" height="32" viewBox="0 0 25 32" fill="none" xmlns="http://www.w3.org/2000/svg">
<g clip-path="url(#clip0_2207_2623)">
<path d="M8.46875 13.6023H15.9688C17.0117 13.6023 17.6211 13.0163 17.6211 11.9851V3.59447C17.6211 2.56322 17.0117 1.97729 15.9688 1.97729H8.46875C7.42578 1.97729 6.81641 2.56322 6.81641 3.59447V11.9851C6.81641 13.0163 7.42578 13.6023 8.46875 13.6023Z" fill="black" fill-opacity="0.85"/>
<path d="M6.68749 23.3523H17.7617C20.0938 23.3523 21.6289 21.8288 21.6289 19.5085V7.30932C21.6289 4.98901 20.0938 3.47729 17.7617 3.47729H6.68749C4.35546 3.47729 2.80859 4.98901 2.80859 7.30932V19.5085C2.80859 21.8288 4.35546 23.3523 6.68749 23.3523Z" fill="white"/>
<path d="M6.55859 21.7585H17.8906C19.2617 21.7585 20.0352 20.9851 20.0352 19.6374V7.18041C20.0352 5.83275 19.2617 5.07104 17.8906 5.07104H6.55859C5.18749 5.07104 4.40234 5.83275 4.40234 7.18041V19.6374C4.40234 20.9851 5.18749 21.7585 6.55859 21.7585Z" fill="black" fill-opacity="0.85"/>
<path d="M5.6211 31.0632H18.8164C22.3086 31.0632 24.3828 29.0124 24.3828 25.5437V12.2546C24.3828 8.78589 22.3086 6.73511 18.8164 6.73511H5.6211C2.12891 6.73511 0.0546875 8.77417 0.0546875 12.2546V25.5437C0.0546875 29.0124 2.12891 31.0632 5.6211 31.0632Z" fill="white"/>
<path d="M5.6211 29.1765H18.8164C21.2656 29.1765 22.4961 27.9577 22.4961 25.5437V12.2546C22.4961 9.84058 21.2656 8.62183 18.8164 8.62183H5.6211C3.17188 8.62183 1.94141 9.82886 1.94141 12.2546V25.5437C1.94141 27.9577 3.17188 29.1765 5.6211 29.1765ZM5.65625 27.2898C4.48438 27.2898 3.82813 26.6569 3.82813 25.4382V12.3483C3.82813 11.1413 4.48438 10.5085 5.65625 10.5085H18.793C19.9414 10.5085 20.6094 11.1413 20.6094 12.3483V25.4382C20.6094 26.6569 19.9414 27.2898 18.793 27.2898H5.65625Z" fill="black" fill-opacity="0.85"/>
<path d="M13.7655 14.8445C14.5624 14.8445 15.2069 14.2 15.2069 13.4031C15.2069 12.5945 14.5624 11.95 13.7655 11.95C12.9569 11.95 12.3124 12.5945 12.3124 13.4031C12.3124 14.2 12.9569 14.8445 13.7655 14.8445ZM11.5038 20.6219L14.0351 22.0516L12.4062 23.4461C12.0546 23.7625 12.0546 24.1492 12.2655 24.3953C12.4882 24.6414 12.8866 24.6883 13.2499 24.3836L15.5351 22.4266C15.8515 22.157 15.7929 21.5945 15.4179 21.3367L12.9335 19.7078L13.414 17.9969C13.496 17.7391 13.7773 17.7039 13.9296 17.9266L14.6562 18.993C14.8202 19.2391 15.1366 19.3328 15.4179 19.2039L17.539 18.2664C17.9023 18.1024 18.0429 17.786 17.8788 17.4344C17.7148 17.1063 17.3984 17.0125 17.0351 17.1766L15.3476 17.9149L14.2108 16.3211C13.6015 15.4891 12.8632 15.161 11.6562 15.243L9.31244 15.4188C8.94916 15.4422 8.69135 15.7 8.63275 16.0633L8.32807 18.4305C8.26947 18.8524 8.46869 19.1219 8.84369 19.1688C9.20697 19.2039 9.45307 18.993 9.49994 18.5828L9.78119 16.6492L10.7187 16.5789C10.9296 16.5672 11.1288 16.7078 11.0585 16.9656L10.5312 18.8758C10.203 19.9891 10.9296 20.2938 11.5038 20.6219ZM7.05072 26.3641C7.29682 26.5633 7.67182 26.5984 8.01166 26.2586L10.1679 24.1375C10.3554 23.9616 10.3905 23.9149 10.5077 23.6336L11.3984 21.2899L11.1874 21.1727C10.6835 20.9031 10.3319 20.6219 10.0858 20.3289L9.30072 23.1297L7.07416 25.3563C6.7226 25.6961 6.78119 26.118 7.05072 26.3641Z" fill="black" fill-opacity="0.85"/>
</g>
<defs>
<clipPath id="clip0_2207_2623">
<rect width="24.3281" height="30.9961" fill="white" transform="translate(0.0546875 0.0671387)"/>
</clipPath>
</defs>
</svg>
