<svg width="35" height="24" viewBox="0 0 35 24" fill="none" xmlns="http://www.w3.org/2000/svg">
<g clip-path="url(#clip0_2207_16172)">
<path d="M31.3534 6.43164C33.1113 6.43164 34.5175 4.9668 34.5175 3.26758C34.5175 1.49805 33.1113 0.0683594 31.3534 0.0683594C29.5839 0.0683594 28.1659 1.49805 28.1659 3.26758C28.1659 5.01367 29.5839 6.43164 31.3534 6.43164ZM12.4745 23.2012C13.0839 23.834 14.1269 23.7872 14.8652 23.0137L19.9159 17.8106C20.08 17.6348 20.1972 17.5879 20.455 17.6934L24.3925 19.1817C26.9238 20.1543 29.3027 19.3223 30.4159 17.3067L32.9472 12.7012C33.9316 10.9082 33.6152 9.05664 31.9159 8.14258C30.2519 7.24024 28.5409 7.91992 27.5449 9.75977L24.2519 15.7481L21.4628 14.7286C20.0683 14.2246 18.9199 14.3887 17.8183 15.5372L12.58 20.9512C11.8534 21.7012 11.9238 22.6387 12.4745 23.2012Z" fill="black" fill-opacity="0.85"/>
<path d="M0.205009 3.8418L3.39251 7.9082C3.53314 8.0957 3.75579 8.13086 3.95501 8.01367C4.71673 7.61524 5.80657 7.3457 6.66204 7.3457C7.52923 7.3457 8.61907 7.61524 9.35736 8.01367C9.58001 8.13086 9.80267 8.0957 9.93157 7.9082L13.1308 3.8418C13.4472 3.43164 13.3886 3.02148 13.0136 2.7168C11.7128 1.7207 9.25189 0.958984 6.66204 0.958984C4.08392 0.958984 1.62298 1.7207 0.333916 2.7168C-0.0645218 3.02148 -0.0996778 3.43164 0.205009 3.8418ZM3.5097 10.2872C3.14642 9.80664 2.99407 9.36133 2.99407 8.88086C2.99407 7.7793 3.8847 7.49805 3.8847 6.85352C3.8847 6.19727 2.99407 5.92774 2.99407 4.79102C2.99407 4.32227 3.14642 3.87695 3.5097 3.4082C3.91986 2.91602 4.65814 3.44336 4.2597 3.95898C4.00189 4.32227 3.93157 4.52148 3.93157 4.79102C3.93157 5.58789 4.81048 5.81055 4.81048 6.85352C4.81048 7.88477 3.93157 8.11914 3.93157 8.88086C3.93157 9.18555 4.00189 9.36133 4.2597 9.73633C4.64642 10.2403 3.91986 10.7793 3.5097 10.2872ZM6.26361 10.2872C5.92376 9.80664 5.7597 9.36133 5.7597 8.88086C5.7597 7.7793 6.65032 7.49805 6.65032 6.85352C6.65032 6.19727 5.7597 5.92774 5.7597 4.79102C5.7597 4.32227 5.91204 3.87695 6.26361 3.4082C6.67376 2.91602 7.42376 3.44336 7.03704 3.95898C6.76751 4.32227 6.6972 4.52148 6.6972 4.79102C6.6972 5.58789 7.58782 5.81055 7.58782 6.85352C7.58782 7.88477 6.6972 8.11914 6.6972 8.88086C6.6972 9.18555 6.76751 9.36133 7.02532 9.73633C7.41204 10.2403 6.67376 10.7793 6.26361 10.2872ZM9.05267 10.2872C8.68939 9.80664 8.52532 9.36133 8.52532 8.88086C8.52532 7.7793 9.42767 7.49805 9.42767 6.85352C9.42767 6.19727 8.52532 5.92774 8.52532 4.79102C8.52532 4.32227 8.67767 3.87695 9.06439 3.4082C9.46282 2.91602 10.1894 3.44336 9.80267 3.95898C9.54486 4.32227 9.46282 4.52148 9.46282 4.79102C9.46282 5.58789 10.3534 5.81055 10.3534 6.85352C10.3534 7.88477 9.46282 8.11914 9.46282 8.88086C9.46282 9.18555 9.54486 9.36133 9.79095 9.73633C10.1894 10.2403 9.45111 10.7793 9.05267 10.2872ZM17.5488 4.68555C17.5488 5.13086 17.8886 5.44727 18.287 5.44727H21.4745V7.07617C21.4745 7.80274 22.2245 8.11914 22.7636 7.62695L25.4355 5.24805C25.8222 4.91992 25.7988 4.48633 25.4355 4.16992L22.7636 1.76758C22.248 1.29883 21.4745 1.58008 21.4745 2.31836V3.94727H18.287C17.8769 3.94727 17.5488 4.28711 17.5488 4.68555ZM15.3574 5.9043C14.9355 5.9043 14.6191 6.23242 14.6191 6.66602V9.8418H12.9902C12.205 9.8418 11.9472 10.6036 12.4159 11.1192L14.83 13.8028C15.1699 14.1543 15.5917 14.1895 15.9199 13.8145L18.287 11.0957C18.7558 10.5567 18.4745 9.8418 17.748 9.8418H16.1191V6.66602C16.1191 6.24414 15.7558 5.91602 15.3574 5.9043Z" fill="black" fill-opacity="0.85"/>
</g>
<defs>
<clipPath id="clip0_2207_16172">
<rect width="34.5153" height="23.7773" fill="white" transform="translate(0.00219727 0.0683594)"/>
</clipPath>
</defs>
</svg>
