<svg width="22" height="27" viewBox="0 0 22 27" fill="none" xmlns="http://www.w3.org/2000/svg">
<g clip-path="url(#clip0_2207_2805)">
<path d="M10.8413 15.8171L13.6655 20.2468L15.7749 26.0593C16.0092 26.7038 16.6303 26.9148 17.1577 26.7155C17.7202 26.528 18.0131 25.8835 17.8022 25.3327L15.6694 19.4616L13.5483 13.6374V8.3523C13.5483 8.1062 13.6772 7.88355 13.8999 7.76636L21.0835 3.93433C21.6108 3.65308 21.81 3.00855 21.5288 2.46948C21.2475 1.94214 20.603 1.75464 20.0756 2.03589L13.1381 5.70386C12.3647 6.11402 11.603 6.30152 10.8413 6.30152C10.0796 6.30152 9.31784 6.11402 8.5444 5.70386L1.6069 2.03589C1.07956 1.75464 0.43502 1.94214 0.15377 2.46948C-0.139199 3.00855 0.071739 3.65308 0.599083 3.93433L7.78268 7.76636C8.00534 7.88355 8.13424 8.1062 8.13424 8.3523V13.6374L6.01315 19.4616L3.88034 25.3327C3.6694 25.8835 3.96237 26.528 4.51315 26.7155C5.05221 26.9148 5.67331 26.7038 5.90768 26.0593L8.01706 20.2468L10.8413 15.8171ZM10.8413 5.08276C12.2124 5.08276 13.3256 3.95776 13.3256 2.56323C13.3256 1.19214 12.2124 0.0671387 10.8413 0.0671387C9.44674 0.0671387 8.32174 1.19214 8.32174 2.56323C8.32174 3.95776 9.44674 5.08276 10.8413 5.08276Z" fill="black" fill-opacity="0.85"/>
</g>
<defs>
<clipPath id="clip0_2207_2805">
<rect width="21.6354" height="26.918" fill="white" transform="translate(0.0209961 0.0671387)"/>
</clipPath>
</defs>
</svg>
