<svg width="27" height="24" viewBox="0 0 27 24" fill="none" xmlns="http://www.w3.org/2000/svg">
<g clip-path="url(#clip0_2207_12217)">
<path d="M1.24854 6.44482H25.5532C26.2915 6.44482 26.7954 5.94091 26.7954 5.19091V1.30029C26.7954 0.57373 26.2915 0.0698242 25.5532 0.0698242H1.24854C0.510254 0.0698242 0.00634766 0.57373 0.00634766 1.30029V5.19091C0.00634766 5.94091 0.510254 6.44482 1.24854 6.44482ZM2.19776 4.5581C2.02197 4.5581 1.89307 4.4292 1.89307 4.2417V2.27294C1.89307 2.08544 2.02197 1.95654 2.19776 1.95654H24.604C24.7797 1.95654 24.9086 2.08544 24.9086 2.27294V4.2417C24.9086 4.4292 24.7797 4.5581 24.604 4.5581H2.19776ZM2.70166 22.6284H4.58838V5.48388H2.70166V22.6284ZM22.2133 22.6284H24.1001V5.48388H22.2133V22.6284ZM6.58057 22.6284H8.05713V10.312C8.05713 9.93701 8.27979 9.71435 8.64307 9.71435H18.1586C18.5219 9.71435 18.7446 9.93701 18.7446 10.312V22.6284H20.2211V9.89013C20.2211 8.8706 19.5883 8.24951 18.5805 8.24951H8.22119C7.21338 8.24951 6.58057 8.8706 6.58057 9.89013V22.6284ZM0.990723 23.5776H25.811C26.3266 23.5776 26.7602 23.144 26.7602 22.6284C26.7602 22.1128 26.3266 21.6909 25.811 21.6909H0.990723C0.475098 21.6909 0.0415039 22.1128 0.0415039 22.6284C0.0415039 23.144 0.475098 23.5776 0.990723 23.5776ZM13.2133 20.7886C15.5102 20.7886 17.0102 19.2534 17.0102 16.9448C17.0102 13.0893 13.729 11.4839 11.4672 11.4839C10.8813 11.4839 10.6352 11.8237 10.9399 12.2339C11.479 12.9136 11.9594 13.6636 11.9243 14.7065C11.6665 14.226 11.2094 13.8979 10.8344 13.8979C10.6586 13.8979 10.5649 14.0034 10.5649 14.1675C10.5649 14.2729 10.5649 14.4956 10.5649 14.6596C10.5649 15.7378 9.8501 16.3003 9.8501 17.8471C9.8501 19.6284 11.1977 20.7886 13.2133 20.7886ZM13.3305 19.5815C12.5336 19.5815 11.9946 19.101 11.9946 18.3628C11.9946 17.6128 12.5336 17.3432 12.6274 16.8042C12.8501 16.9565 13.0024 17.1792 13.1079 17.4721C13.354 17.1206 13.5063 16.5229 13.3657 15.7378C14.0688 15.9956 14.854 16.8862 14.854 17.976C14.854 18.8315 14.3618 19.5815 13.3305 19.5815Z" fill="black" fill-opacity="0.85"/>
</g>
<defs>
<clipPath id="clip0_2207_12217">
<rect width="26.7891" height="23.543" fill="white" transform="translate(0.00634766 0.0698242)"/>
</clipPath>
</defs>
</svg>
