<svg width="27" height="24" viewBox="0 0 27 24" fill="none" xmlns="http://www.w3.org/2000/svg">
<g clip-path="url(#clip0_2207_12221)">
<path d="M1.25049 5.15576H25.5552C26.2935 5.15576 26.7974 4.65185 26.7974 3.90185V1.30029C26.7974 0.57373 26.2935 0.0698242 25.5552 0.0698242H1.25049C0.512207 0.0698242 0.00830078 0.57373 0.00830078 1.30029V3.90185C0.00830078 4.65185 0.512207 5.15576 1.25049 5.15576ZM2.70361 22.5932H24.1021V6.51513H2.70361V22.5932ZM6.58252 21.6909V10.3589C6.58252 9.33935 7.21533 8.71826 8.22314 8.71826H18.5825C19.5903 8.71826 20.2231 9.33935 20.2231 10.3589V21.6909H18.7466V10.7807C18.7466 10.4057 18.5239 10.1831 18.1606 10.1831H8.64502C8.28174 10.1831 8.05908 10.4057 8.05908 10.7807V21.6909H6.58252ZM13.2739 20.4956C11.481 20.4956 10.2856 19.4643 10.2856 17.8823C10.2856 16.5112 10.9302 16.0073 10.9302 15.0464C10.9302 14.9057 10.9185 14.7065 10.9185 14.6128C10.9185 14.4721 11.0122 14.3784 11.1528 14.3784C11.4927 14.3784 11.9145 14.6714 12.1255 15.0932C12.1606 14.1675 11.7388 13.4995 11.2583 12.8784C10.9888 12.5268 11.1997 12.2221 11.7153 12.2221C13.7427 12.2221 16.6489 13.6518 16.6489 17.0854C16.6489 19.1362 15.313 20.4956 13.2739 20.4956ZM13.3911 19.4175C14.2935 19.4175 14.7271 18.7612 14.7271 17.9995C14.7271 17.0386 14.0356 16.2534 13.4145 16.019C13.5317 16.7104 13.4028 17.2378 13.1919 17.5542C13.0864 17.2964 12.9575 17.0971 12.7583 16.9565C12.6763 17.437 12.1958 17.6714 12.1958 18.3393C12.1958 18.9956 12.6763 19.4175 13.3911 19.4175ZM0.992676 23.5776H25.813C26.3286 23.5776 26.7622 23.144 26.7622 22.6284C26.7622 22.1128 26.3286 21.6909 25.813 21.6909H0.992676C0.477051 21.6909 0.043457 22.1128 0.043457 22.6284C0.043457 23.144 0.477051 23.5776 0.992676 23.5776Z" fill="black" fill-opacity="0.85"/>
</g>
<defs>
<clipPath id="clip0_2207_12221">
<rect width="26.7891" height="23.5664" fill="white" transform="translate(0.00830078 0.0698242)"/>
</clipPath>
</defs>
</svg>
