<svg width="25" height="31" viewBox="0 0 25 31" fill="none" xmlns="http://www.w3.org/2000/svg">
<g clip-path="url(#clip0_2207_8184)">
<path d="M2.92114 26.6977C3.41333 26.6977 3.81177 26.311 3.81177 25.8188V19.3032C4.10474 19.1743 5.2063 18.7524 6.92896 18.7524C11.2649 18.7524 13.9836 20.8735 18.1086 20.8735C19.9367 20.8735 20.6164 20.6743 21.507 20.2759C22.3156 19.9126 22.843 19.3032 22.843 18.2251V6.33057C22.843 5.69776 22.3039 5.33448 21.6242 5.33448C21.05 5.33448 19.9719 5.82667 17.9563 5.82667C13.8313 5.82667 11.1242 3.70557 6.77661 3.70557C4.94849 3.70557 4.25708 3.90479 3.36646 4.30323C2.55786 4.66651 2.03052 5.27588 2.03052 6.34229V25.8188C2.03052 26.2993 2.44068 26.6977 2.92114 26.6977ZM18.1086 19.104C14.2063 19.104 11.4406 16.9829 6.92896 16.9829C5.63989 16.9829 4.46802 17.1352 3.81177 17.4048V6.40088C3.97583 6.01417 4.94849 5.4751 6.77661 5.4751C10.9016 5.4751 13.6555 7.5962 17.9563 7.5962C19.2336 7.5962 20.2883 7.44385 21.0734 7.2212V18.1782C20.9094 18.5649 19.9367 19.104 18.1086 19.104Z" fill="black" fill-opacity="0.85"/>
<path d="M21.0969 24.2954C21.9875 25.186 23.4406 25.186 24.3195 24.2719C25.1867 23.3813 25.1867 21.9634 24.3078 21.0844L3.94068 0.729005C3.06177 -0.149903 1.60864 -0.149903 0.718018 0.729005C-0.160889 1.60791 -0.160889 3.07275 0.718018 3.95166L21.0969 24.2954Z" fill="white"/>
<path d="M22.0578 23.3344C22.4211 23.686 22.9953 23.686 23.3352 23.3344C23.6867 22.9712 23.6984 22.4087 23.3352 22.0571L2.97974 1.70167C2.62818 1.3501 2.04224 1.3501 1.69068 1.70167C1.35083 2.04151 1.35083 2.63917 1.69068 2.97901L22.0578 23.3344Z" fill="black" fill-opacity="0.85"/>
</g>
<defs>
<clipPath id="clip0_2207_8184">
<rect width="24.9097" height="30.252" fill="white" transform="translate(0.0588379 0.0698242)"/>
</clipPath>
</defs>
</svg>
