<svg width="24" height="24" viewBox="0 0 24 24" fill="none" xmlns="http://www.w3.org/2000/svg">
<g clip-path="url(#clip0_2207_8196)">
<path d="M12.0141 23.976C18.5532 23.976 23.9672 18.5503 23.9672 12.0229C23.9672 5.48388 18.5415 0.0698242 12.0024 0.0698242C5.47509 0.0698242 0.0610352 5.48388 0.0610352 12.0229C0.0610352 18.5503 5.48682 23.976 12.0141 23.976ZM12.0141 21.9839C6.48292 21.9839 2.06495 17.5542 2.06495 12.0229C2.06495 6.4917 6.47119 2.06201 12.0024 2.06201C17.5337 2.06201 21.9751 6.4917 21.9751 12.0229C21.9751 17.5542 17.5454 21.9839 12.0141 21.9839Z" fill="black" fill-opacity="0.85"/>
<path d="M7.54931 18.3276C7.86572 18.3276 8.07666 18.0815 8.07666 17.7886V14.3315C8.29932 14.2378 8.75634 14.0971 9.48291 14.0971C11.5688 14.0971 12.8813 15.1284 14.9087 15.1284C15.7993 15.1284 16.1626 15.0346 16.6079 14.8237C17.1001 14.601 17.3227 14.2612 17.3227 13.7339V7.95654C17.3227 7.6167 17.1469 7.3706 16.6665 7.3706C16.3266 7.3706 15.811 7.6167 14.8501 7.6167C12.8579 7.6167 11.5337 6.57373 9.42432 6.57373C8.51026 6.57373 8.14698 6.6792 7.7251 6.8667C7.24463 7.07763 6.99854 7.45263 6.99854 7.95654V17.7886C6.99854 18.0698 7.25634 18.3276 7.54931 18.3276Z" fill="black" fill-opacity="0.85"/>
<path d="M16.7133 18.644C17.2524 19.1714 18.1196 19.1831 18.6352 18.644C19.186 18.105 19.1743 17.2729 18.6352 16.7339L7.29151 5.39013C6.75245 4.85107 5.89698 4.85107 5.36963 5.39013C4.83057 5.91748 4.83057 6.78466 5.36963 7.31201L16.7133 18.644Z" fill="white"/>
<path d="M17.2994 18.0698C17.4986 18.269 17.8502 18.269 18.0494 18.0698C18.2603 17.8471 18.2603 17.5307 18.0494 17.3198L6.71732 5.97608C6.50638 5.76514 6.16654 5.76514 5.9556 5.97608C5.74466 6.1753 5.75638 6.52686 5.9556 6.72608L17.2994 18.0698Z" fill="black" fill-opacity="0.85"/>
</g>
<defs>
<clipPath id="clip0_2207_8196">
<rect width="23.9062" height="23.918" fill="white" transform="translate(0.0610352 0.0698242)"/>
</clipPath>
</defs>
</svg>
