<svg width="24" height="24" viewBox="0 0 24 24" fill="none" xmlns="http://www.w3.org/2000/svg">
<g clip-path="url(#clip0_2207_8229)">
<path d="M12.0014 23.9878C18.5405 23.9878 23.9545 18.5737 23.9545 12.0346C23.9545 5.50732 18.5288 0.081543 11.9897 0.081543C5.4624 0.081543 0.0483398 5.50732 0.0483398 12.0346C0.0483398 18.5737 5.47412 23.9878 12.0014 23.9878Z" fill="black" fill-opacity="0.85"/>
<path d="M7.40772 18.5268C7.10303 18.5268 6.8335 18.269 6.8335 17.9643V7.82764C6.8335 7.31202 7.09131 6.93702 7.5835 6.71436C8.01709 6.50342 8.39209 6.39795 9.34131 6.39795C11.5092 6.39795 12.8803 7.47608 14.9311 7.47608C15.9272 7.47608 16.4545 7.21827 16.8061 7.21827C17.2983 7.21827 17.4858 7.47608 17.4858 7.83936V13.7807C17.4858 14.3315 17.2514 14.6831 16.7475 14.9292C16.2905 15.1284 15.9155 15.2221 14.9897 15.2221C12.9038 15.2221 11.5444 14.1675 9.3999 14.1675C8.6499 14.1675 8.18115 14.3081 7.94678 14.4018V17.9643C7.94678 18.2807 7.73584 18.5268 7.40772 18.5268ZM7.771 11.6596C7.86475 11.4487 8.35693 11.1909 9.28272 11.1909C9.57568 11.1909 9.73975 11.2026 9.95068 11.226V13.2182C10.771 13.2886 11.4975 13.4878 12.1889 13.6987V11.7417C12.9506 11.9995 13.6303 12.1518 14.4389 12.2339V14.226C14.6147 14.2729 14.8256 14.2846 15.06 14.2846C15.9858 14.2846 16.478 14.0034 16.5717 13.7925V12.0698C16.1499 12.187 15.6225 12.2573 14.978 12.2573C14.7671 12.2573 14.5913 12.2456 14.4389 12.2339V10.2065C14.5913 10.2182 14.7788 10.23 14.978 10.23C15.6811 10.23 16.2553 10.1245 16.5717 10.0425V8.22608C16.1499 8.34327 15.6225 8.4253 14.978 8.4253C14.7905 8.4253 14.603 8.4253 14.4389 8.40186V10.2065C13.6303 10.1479 12.9272 9.94874 12.1889 9.72608V7.92139C11.4624 7.68702 10.7475 7.46436 9.95068 7.38233V9.21045C9.73975 9.16358 9.48193 9.15186 9.28272 9.15186C8.35693 9.15186 7.86475 9.43311 7.771 9.63233V11.6596ZM9.95068 11.226V9.21045C10.771 9.28077 11.4389 9.50342 12.1889 9.72608V11.7417C11.3921 11.5073 10.771 11.3081 9.95068 11.226Z" fill="white"/>
</g>
<defs>
<clipPath id="clip0_2207_8229">
<rect width="23.9062" height="23.918" fill="white" transform="translate(0.0483398 0.0698242)"/>
</clipPath>
</defs>
</svg>
