<svg width="24" height="24" viewBox="0 0 24 24" fill="none" xmlns="http://www.w3.org/2000/svg">
<g clip-path="url(#clip0_2207_8164)">
<path d="M12.0035 23.976C18.5426 23.976 23.9566 18.5503 23.9566 12.0229C23.9566 5.48388 18.5309 0.0698242 11.9918 0.0698242C5.46447 0.0698242 0.050415 5.48388 0.050415 12.0229C0.050415 18.5503 5.4762 23.976 12.0035 23.976ZM12.0035 21.9839C6.4723 21.9839 2.05433 17.5542 2.05433 12.0229C2.05433 6.4917 6.46057 2.06201 11.9918 2.06201C17.5231 2.06201 21.9645 6.4917 21.9645 12.0229C21.9645 17.5542 17.5348 21.9839 12.0035 21.9839Z" fill="black" fill-opacity="0.85"/>
<path d="M7.53869 18.3276C7.8551 18.3276 8.06604 18.0815 8.06604 17.7886V14.3315C8.2887 14.2378 8.74572 14.0971 9.47229 14.0971C11.5582 14.0971 12.8707 15.1284 14.8981 15.1284C15.7887 15.1284 16.152 15.0346 16.5973 14.8237C17.0895 14.601 17.3121 14.2612 17.3121 13.7339V7.95654C17.3121 7.6167 17.1363 7.3706 16.6559 7.3706C16.316 7.3706 15.8004 7.6167 14.8395 7.6167C12.8473 7.6167 11.5231 6.57373 9.4137 6.57373C8.49964 6.57373 8.13636 6.6792 7.71448 6.8667C7.23401 7.07763 6.98792 7.45263 6.98792 7.95654V17.7886C6.98792 18.0698 7.24572 18.3276 7.53869 18.3276Z" fill="black" fill-opacity="0.85"/>
</g>
<defs>
<clipPath id="clip0_2207_8164">
<rect width="23.9062" height="23.918" fill="white" transform="translate(0.050415 0.0698242)"/>
</clipPath>
</defs>
</svg>
