<svg width="21" height="24" viewBox="0 0 21 24" fill="none" xmlns="http://www.w3.org/2000/svg">
<g clip-path="url(#clip0_2207_8220)">
<path d="M0.932617 23.0737C1.4248 23.0737 1.82324 22.687 1.82324 22.1948V15.6792C2.11621 15.5503 3.21777 15.1284 4.94043 15.1284C9.27637 15.1284 11.9951 17.2495 16.1201 17.2495C17.9482 17.2495 18.6279 17.0503 19.5186 16.6518C20.3272 16.2886 20.8545 15.6792 20.8545 14.601V2.70654C20.8545 2.07373 20.3154 1.71044 19.6358 1.71044C19.0615 1.71044 17.9834 2.20263 15.9678 2.20263C11.8428 2.20263 9.13574 0.081543 4.78808 0.081543C2.95996 0.081543 2.26855 0.280762 1.37793 0.679199C0.569336 1.04248 0.0419922 1.65185 0.0419922 2.71826V22.1948C0.0419922 22.6753 0.452148 23.0737 0.932617 23.0737ZM1.82324 10.3237V6.35107C1.9873 5.96435 2.95996 5.42529 4.78808 5.42529C5.16308 5.42529 5.67871 5.44873 6.08887 5.4956V1.92138C7.6709 2.08544 9.06543 2.54248 10.4951 2.96435V6.53857C11.9482 6.98388 13.3076 7.35888 14.8897 7.49951V3.92529C15.2412 3.96044 15.5928 3.97216 15.9678 3.97216C17.2451 3.97216 18.2998 3.81982 19.085 3.59716V7.17138C18.499 7.33544 17.374 7.54638 15.9678 7.54638C15.6045 7.54638 15.2295 7.52294 14.8897 7.49951V11.4721C15.2295 11.5073 15.5576 11.519 15.9678 11.519C17.2451 11.519 18.2998 11.3667 19.085 11.144V14.5542C18.9209 14.9409 17.9482 15.48 16.1201 15.48C15.6982 15.48 15.2881 15.4565 14.8897 15.4096V11.4721C13.3076 11.2964 11.9951 11.0034 10.4951 10.5112V14.3432C9.13574 13.9331 7.72949 13.5346 6.08887 13.394V9.46826C5.64355 9.42138 5.33887 9.39794 4.78808 9.39794C2.95996 9.39794 1.9873 9.93701 1.82324 10.3237ZM6.08887 9.46826C7.70605 9.64404 8.93652 10.0542 10.4951 10.5112V6.53857C9.03027 6.10498 7.71777 5.65966 6.08887 5.4956V9.46826Z" fill="black" fill-opacity="0.85"/>
</g>
<defs>
<clipPath id="clip0_2207_8220">
<rect width="20.8125" height="23.0039" fill="white" transform="translate(0.0419922 0.0698242)"/>
</clipPath>
</defs>
</svg>
