<svg width="21" height="24" viewBox="0 0 21 24" fill="none" xmlns="http://www.w3.org/2000/svg">
<g clip-path="url(#clip0_2207_8156)">
<path d="M0.915771 23.0737C1.40796 23.0737 1.8064 22.687 1.8064 22.1948V15.6792C2.09937 15.5503 3.20093 15.1284 4.92359 15.1284C9.25953 15.1284 11.9782 17.2495 16.1032 17.2495C17.9313 17.2495 18.611 17.0503 19.5017 16.6518C20.3103 16.2886 20.8376 15.6792 20.8376 14.601V2.70654C20.8376 2.07373 20.2985 1.71044 19.6189 1.71044C19.0446 1.71044 17.9665 2.20263 15.9509 2.20263C11.8259 2.20263 9.1189 0.081543 4.77124 0.081543C2.94312 0.081543 2.25171 0.280762 1.36109 0.679199C0.55249 1.04248 0.0251465 1.65185 0.0251465 2.71826V22.1948C0.0251465 22.6753 0.435302 23.0737 0.915771 23.0737ZM16.1032 15.48C12.2009 15.48 9.43531 13.3589 4.92359 13.3589C3.63453 13.3589 2.46265 13.5112 1.8064 13.7807V2.77685C1.97046 2.39013 2.94312 1.85107 4.77124 1.85107C8.89624 1.85107 11.6501 3.97216 15.9509 3.97216C17.2282 3.97216 18.2829 3.81982 19.0681 3.59716V14.5542C18.904 14.9409 17.9313 15.48 16.1032 15.48Z" fill="black" fill-opacity="0.85"/>
</g>
<defs>
<clipPath id="clip0_2207_8156">
<rect width="20.8125" height="23.0039" fill="white" transform="translate(0.0251465 0.0698242)"/>
</clipPath>
</defs>
</svg>
