<svg width="24" height="24" viewBox="0 0 24 24" fill="none" xmlns="http://www.w3.org/2000/svg">
<g clip-path="url(#clip0_2207_8224)">
<path d="M11.9992 23.976C18.5383 23.976 23.9523 18.5503 23.9523 12.0229C23.9523 5.48388 18.5266 0.0698242 11.9875 0.0698242C5.4602 0.0698242 0.0461426 5.48388 0.0461426 12.0229C0.0461426 18.5503 5.47192 23.976 11.9992 23.976ZM11.9992 21.9839C6.46802 21.9839 2.05005 17.5542 2.05005 12.0229C2.05005 6.4917 6.4563 2.06201 11.9875 2.06201C17.5188 2.06201 21.9602 6.4917 21.9602 12.0229C21.9602 17.5542 17.5305 21.9839 11.9992 21.9839Z" fill="black" fill-opacity="0.85"/>
<path d="M7.53442 18.3276C7.85083 18.3276 8.06176 18.0815 8.06176 17.7886V14.3315C8.28442 14.2378 8.74145 14.0971 9.46802 14.0971C11.5539 14.0971 12.8664 15.1284 14.8938 15.1284C15.7844 15.1284 16.1477 15.0346 16.593 14.8237C17.0852 14.601 17.3078 14.2612 17.3078 13.7339V7.95654C17.3078 7.6167 17.132 7.3706 16.6516 7.3706C16.3117 7.3706 15.7961 7.6167 14.8352 7.6167C12.843 7.6167 11.5188 6.57373 9.40942 6.57373C8.49536 6.57373 8.13208 6.6792 7.7102 6.8667C7.22973 7.07763 6.98364 7.45263 6.98364 7.95654V17.7886C6.98364 18.0698 7.24145 18.3276 7.53442 18.3276ZM7.88598 11.6596V9.70263C7.97973 9.51513 8.4602 9.2456 9.36255 9.2456C9.55005 9.2456 9.79614 9.25732 9.99536 9.28076V7.52294C10.7805 7.59326 11.4719 7.81591 12.175 8.03857V9.79638C12.8899 10.019 13.5695 10.1948 14.3547 10.2651V8.50732C14.5188 8.51904 14.6945 8.51904 14.882 8.51904C15.5031 8.51904 16.0305 8.46044 16.4289 8.34326V10.101C16.1242 10.1831 15.5617 10.2886 14.882 10.2886C14.6828 10.2886 14.507 10.2768 14.3547 10.2651V12.2339C14.507 12.2456 14.6711 12.2573 14.882 12.2573C15.5031 12.2573 16.0305 12.187 16.4289 12.0698V13.7456C16.3352 13.9448 15.8547 14.2143 14.9523 14.2143C14.7297 14.2143 14.5305 14.2026 14.3547 14.1675V12.2339C13.5695 12.1518 12.9133 11.9995 12.175 11.7534V13.6518C11.507 13.4409 10.8039 13.2417 9.99536 13.1831V11.2495C9.79614 11.226 9.6438 11.2026 9.36255 11.2026C8.4602 11.2026 7.97973 11.4721 7.88598 11.6596ZM9.99536 11.2495C10.8039 11.3315 11.4016 11.5307 12.175 11.7534V9.79638C11.4484 9.57373 10.8039 9.36279 9.99536 9.28076V11.2495Z" fill="black" fill-opacity="0.85"/>
</g>
<defs>
<clipPath id="clip0_2207_8224">
<rect width="23.9062" height="23.918" fill="white" transform="translate(0.0461426 0.0698242)"/>
</clipPath>
</defs>
</svg>
