<svg width="24" height="24" viewBox="0 0 24 24" fill="none" xmlns="http://www.w3.org/2000/svg">
<g clip-path="url(#clip0_2207_8169)">
<path d="M12.0056 23.9878C18.5447 23.9878 23.9587 18.5737 23.9587 12.0346C23.9587 5.50732 18.533 0.081543 11.9939 0.081543C5.46655 0.081543 0.0524902 5.50732 0.0524902 12.0346C0.0524902 18.5737 5.47827 23.9878 12.0056 23.9878Z" fill="black" fill-opacity="0.85"/>
<path d="M7.41187 18.5268C7.10718 18.5268 6.83765 18.269 6.83765 17.9643V7.82764C6.83765 7.31202 7.09546 6.93702 7.58765 6.71436C8.02124 6.50342 8.39624 6.39795 9.34546 6.39795C11.5134 6.39795 12.8845 7.47608 14.9353 7.47608C15.9314 7.47608 16.4587 7.21827 16.8103 7.21827C17.3025 7.21827 17.49 7.47608 17.49 7.83936V13.7807C17.49 14.3315 17.2556 14.6831 16.7517 14.9292C16.2947 15.1284 15.9197 15.2221 14.9939 15.2221C12.908 15.2221 11.5486 14.1675 9.40405 14.1675C8.65405 14.1675 8.1853 14.3081 7.95093 14.4018V17.9643C7.95093 18.2807 7.73999 18.5268 7.41187 18.5268Z" fill="white"/>
</g>
<defs>
<clipPath id="clip0_2207_8169">
<rect width="23.9062" height="23.918" fill="white" transform="translate(0.0524902 0.0698242)"/>
</clipPath>
</defs>
</svg>
