<svg width="21" height="24" viewBox="0 0 21 24" fill="none" xmlns="http://www.w3.org/2000/svg">
<g clip-path="url(#clip0_2207_8160)">
<path d="M0.945312 23.0737C1.4375 23.0737 1.83594 22.687 1.83594 22.1948V15.6792C2.12891 15.5503 3.23047 15.1284 4.95313 15.1284C9.28907 15.1284 12.0078 17.2495 16.1328 17.2495C17.9609 17.2495 18.6406 17.0503 19.5313 16.6518C20.3399 16.2886 20.8672 15.6792 20.8672 14.601V2.70654C20.8672 2.07373 20.3281 1.71044 19.6485 1.71044C19.0742 1.71044 17.9961 2.20263 15.9805 2.20263C11.8555 2.20263 9.14844 0.081543 4.80078 0.081543C2.97266 0.081543 2.28125 0.280762 1.39063 0.679199C0.582031 1.04248 0.0546875 1.65185 0.0546875 2.71826V22.1948C0.0546875 22.6753 0.464844 23.0737 0.945312 23.0737Z" fill="black" fill-opacity="0.85"/>
</g>
<defs>
<clipPath id="clip0_2207_8160">
<rect width="20.8125" height="23.0039" fill="white" transform="translate(0.0546875 0.0698242)"/>
</clipPath>
</defs>
</svg>
