<svg width="20" height="28" viewBox="0 0 20 28" fill="none" xmlns="http://www.w3.org/2000/svg">
<g clip-path="url(#clip0_2207_5010)">
<path d="M9.28858 25.4175C15.476 25.4175 19.601 21.2339 19.601 14.9292C19.601 4.44091 10.6714 0.0698242 4.47217 0.0698242C3.37061 0.0698242 2.66748 0.456543 2.66748 1.20654C2.66748 1.49951 2.79639 1.8042 3.04248 2.08544C4.43702 3.74951 5.83155 5.72998 5.85498 8.03857C5.85498 8.56591 5.79639 9.03466 5.42139 9.69091L6.00733 9.57373C5.47998 7.85107 4.06202 6.63232 2.81983 6.63232C2.33936 6.63232 2.01123 6.98388 2.01123 7.51123C2.01123 7.81591 2.09326 8.53076 2.09326 9.04638C2.09326 11.6714 0.0776367 13.2065 0.0776367 17.437C0.0776367 22.23 3.74561 25.4175 9.28858 25.4175ZM9.55811 22.1245C7.3667 22.1245 5.91358 20.8003 5.91358 18.8315C5.91358 16.769 7.37842 16.0307 7.56592 14.7065C7.58936 14.601 7.65967 14.5659 7.7417 14.6362C8.28076 15.1167 8.63233 15.7026 8.9253 16.3823C9.54639 15.5386 9.83936 13.7573 9.64014 11.8354C9.62842 11.73 9.69873 11.6714 9.8042 11.7065C12.3706 12.9136 13.7065 15.4682 13.7065 17.7534C13.7065 20.0737 12.3471 22.1245 9.55811 22.1245Z" fill="black" fill-opacity="0.85"/>
</g>
<defs>
<clipPath id="clip0_2207_5010">
<rect width="19.5234" height="27.4805" fill="white" transform="translate(0.0776367 0.0698242)"/>
</clipPath>
</defs>
</svg>
