<svg width="24" height="24" viewBox="0 0 24 24" fill="none" xmlns="http://www.w3.org/2000/svg">
<g clip-path="url(#clip0_2207_8838)">
<path d="M12.0329 23.976C18.572 23.976 23.986 18.5503 23.986 12.0229C23.986 5.48388 18.5603 0.0698242 12.0212 0.0698242C5.49389 0.0698242 0.079834 5.48388 0.079834 12.0229C0.079834 18.5503 5.50561 23.976 12.0329 23.976ZM12.0329 21.9839C6.50171 21.9839 2.08374 17.5542 2.08374 12.0229C2.08374 6.4917 6.48999 2.06201 12.0212 2.06201C17.5525 2.06201 21.9939 6.4917 21.9939 12.0229C21.9939 17.5542 17.5642 21.9839 12.0329 21.9839Z" fill="black" fill-opacity="0.85"/>
<path d="M8.90405 5.96435H15.1618V5.7417C15.1618 4.90966 14.7517 4.48779 13.9196 4.48779H10.1345C9.31421 4.48779 8.90405 4.90966 8.90405 5.7417V5.96435ZM11.4236 19.5581H12.6306C13.4275 19.5581 13.861 19.1245 13.861 18.3042V10.9214C13.861 10.2065 14.0134 9.72607 14.2712 9.32763L14.6345 8.76513C14.9509 8.27294 15.1618 7.83935 15.1618 7.27685V6.6792H8.90405V7.27685C8.90405 7.83935 9.11499 8.27294 9.43139 8.76513L9.79467 9.32763C10.0525 9.72607 10.2165 10.2065 10.2165 10.9214V18.3042C10.2165 19.1245 10.6384 19.5581 11.4236 19.5581ZM10.9079 11.519C10.9079 10.8862 11.4001 10.394 12.0329 10.394C12.6657 10.394 13.1579 10.8862 13.1579 11.519V13.4409C13.1579 14.062 12.6657 14.5659 12.0329 14.5659C11.4001 14.5659 10.9079 14.062 10.9079 13.4409V11.519ZM12.0329 14.1557C12.4665 14.1557 12.7478 13.8393 12.7478 13.4409C12.7478 13.0425 12.4431 12.7143 12.0329 12.7143C11.6345 12.7143 11.3181 13.0425 11.3181 13.4409C11.3181 13.8393 11.6228 14.1557 12.0329 14.1557Z" fill="black" fill-opacity="0.85"/>
</g>
<defs>
<clipPath id="clip0_2207_8838">
<rect width="23.9062" height="23.918" fill="white" transform="translate(0.079834 0.0698242)"/>
</clipPath>
</defs>
</svg>
