<svg width="12" height="28" viewBox="0 0 12 28" fill="none" xmlns="http://www.w3.org/2000/svg">
<g clip-path="url(#clip0_2207_8848)">
<path d="M0.090332 2.77685H11.5864V2.37841C11.5864 0.819824 10.8247 0.0698242 9.32471 0.0698242H2.34033C0.840332 0.0698242 0.090332 0.819824 0.090332 2.37841V2.77685ZM4.74267 27.7729H6.93408C8.41064 27.7729 9.1958 26.9878 9.1958 25.4643V11.8706C9.1958 10.5698 9.48877 9.69091 9.95752 8.96435L10.6255 7.92138C11.1997 7.01904 11.5864 6.2456 11.5864 5.20263V4.13623H0.090332V5.20263C0.090332 6.2456 0.477051 7.01904 1.05127 7.92138L1.71924 8.96435C2.18799 9.69091 2.48095 10.5698 2.48095 11.8706V25.4643C2.48095 26.9878 3.26611 27.7729 4.74267 27.7729ZM3.77002 16.5229V12.9839C3.77002 11.8354 4.67236 10.9214 5.84424 10.9214C7.00439 10.9214 7.90674 11.8354 7.90674 12.9839V16.5229C7.90674 17.6831 7.00439 18.5854 5.84424 18.5854C4.67236 18.5854 3.77002 17.6831 3.77002 16.5229ZM5.84424 11.6596C5.0708 11.6596 4.49658 12.2221 4.49658 12.9839C4.49658 13.7221 5.09424 14.3198 5.84424 14.3198C6.58252 14.3198 7.18017 13.7221 7.18017 12.9839C7.18017 12.2221 6.61767 11.6596 5.84424 11.6596Z" fill="black" fill-opacity="0.85"/>
</g>
<defs>
<clipPath id="clip0_2207_8848">
<rect width="11.4961" height="27.7148" fill="white" transform="translate(0.090332 0.0698242)"/>
</clipPath>
</defs>
</svg>
