<svg width="23" height="27" viewBox="0 0 23 27" fill="none" xmlns="http://www.w3.org/2000/svg">
<g clip-path="url(#clip0_2207_7987)">
<path d="M2.01782 15.4229C2.01782 20.6143 5.83814 26.169 13.4436 26.169C16.7249 26.169 19.2327 24.6221 19.2327 22.6768C19.2327 21.7627 18.5881 21.0713 17.3577 20.9307C17.0413 20.8838 16.7249 21.0127 16.6663 21.3994C16.467 23.0166 15.3538 24.1651 13.8538 24.1651C12.7874 24.1651 12.1311 23.5322 12.1311 22.7119C12.1311 19.958 20.2991 19.3604 20.2991 14.169C20.2991 11.6143 18.4944 9.84473 16.092 9.84473C13.8538 9.84473 12.096 11.0986 11.2991 13.0205C11.4631 10.1377 9.68189 8.55567 7.49048 8.55567C3.92798 8.55567 2.01782 11.708 2.01782 15.4229ZM3.78736 15.4229C3.78736 12.2236 5.14673 10.3252 7.36158 10.3252C9.26001 10.3252 10.3616 12.0244 10.4319 14.1807C10.4553 15.001 11.4631 15.0244 11.7444 14.4619C12.717 12.5635 14.3928 11.6143 16.0569 11.6143C17.51 11.6143 18.5295 12.6338 18.5295 14.2861C18.5295 18.1416 10.3967 18.6455 10.3967 22.7119C10.3967 23.2627 10.6077 23.7783 10.971 24.1768C6.14282 23.2393 3.78736 19.4893 3.78736 15.4229ZM4.85376 2.52051C8.60376 2.52051 12.178 8.05176 17.8264 8.05176C20.7678 8.05176 22.4553 6.21191 22.4553 3.84473C22.4553 3.05957 22.2561 2.19238 21.8342 1.38379C21.3186 0.387695 19.7834 1.04394 20.3577 2.14551C20.6858 2.77832 20.8616 3.42285 20.8616 3.99707C20.8616 5.4502 19.8186 6.39941 17.8264 6.39941C13.0686 6.39941 9.49439 0.868164 4.85376 0.868164C1.81861 0.868164 0.00219727 2.87207 0.00219727 5.21582C0.00219727 5.97754 0.177978 6.75098 0.576416 7.5127C1.09204 8.49707 2.60376 7.81738 2.05298 6.75098C1.74829 6.16504 1.60767 5.59082 1.60767 5.0752C1.60767 3.61035 2.75611 2.52051 4.85376 2.52051ZM10.5608 13.0908L11.2991 13.3135L12.2014 12.7275C12.717 9.34082 15.0842 7.27832 15.0842 4.11426C15.0842 2.06348 13.6663 0.399414 11.7913 0.399414C10.1389 0.399414 8.80298 1.6416 8.75611 3.3291L10.2913 3.77441C10.3147 2.74317 10.9006 2.05176 11.7913 2.05176C12.7522 2.05176 13.4319 2.88379 13.4319 4.11426C13.4319 6.64551 10.8772 8.83691 10.5608 13.0908Z" fill="black" fill-opacity="0.85"/>
</g>
<defs>
<clipPath id="clip0_2207_7987">
<rect width="22.4531" height="26.0977" fill="white" transform="translate(0.00219727 0.0712891)"/>
</clipPath>
</defs>
</svg>
