<svg width="17" height="25" viewBox="0 0 17 25" fill="none" xmlns="http://www.w3.org/2000/svg">
<g clip-path="url(#clip0_2207_13363)">
<path d="M8.20947 24.2236C13.2602 24.2236 16.4008 21.3174 16.4008 16.2666V6.64551C16.4008 4.78223 15.1704 3.59863 13.2133 3.59863H1.89307V1.03223C1.89307 0.516601 1.47119 0.0830078 0.943848 0.0830078C0.428223 0.0830078 0.00634766 0.516601 0.00634766 1.03223V16.2666C0.00634766 21.3174 3.14697 24.2236 8.20947 24.2236ZM8.20947 22.3838C4.35401 22.3838 1.89307 20.1924 1.89307 16.3955V5.48535H12.9672C13.9516 5.48535 14.5141 6.02441 14.5141 6.9502V16.3955C14.5141 20.1924 12.0649 22.3838 8.20947 22.3838ZM4.09619 14.5674H12.311C12.9555 14.5674 13.3422 14.1807 13.3422 13.5596V7.67676C13.3422 7.04395 12.9555 6.65723 12.311 6.65723H4.09619C3.46338 6.65723 3.06494 7.04395 3.06494 7.67676V13.5596C3.06494 14.1807 3.46338 14.5674 4.09619 14.5674ZM6.54541 20.3682H9.80323C10.2485 20.3682 10.6001 20.0166 10.6001 19.5713C10.6001 19.126 10.2485 18.7744 9.80323 18.7744H6.54541C6.11182 18.7744 5.74854 19.126 5.74854 19.5713C5.74854 20.0166 6.11182 20.3682 6.54541 20.3682Z" fill="black" fill-opacity="0.85"/>
</g>
<defs>
<clipPath id="clip0_2207_13363">
<rect width="16.3945" height="24.1523" fill="white" transform="translate(0.00634766 0.0712891)"/>
</clipPath>
</defs>
</svg>
