<svg width="24" height="24" viewBox="0 0 24 24" fill="none" xmlns="http://www.w3.org/2000/svg">
<g clip-path="url(#clip0_2207_25475)">
<path d="M11.9658 23.9775C18.5049 23.9775 23.9189 18.5518 23.9189 12.0244C23.9189 5.48535 18.4932 0.0712891 11.9541 0.0712891C5.42675 0.0712891 0.0126953 5.48535 0.0126953 12.0244C0.0126953 18.5518 5.43848 23.9775 11.9658 23.9775Z" fill="black" fill-opacity="0.85"/>
<path d="M9.083 17.8486C8.56738 17.8486 8.16894 17.8135 7.87597 17.6846C7.46581 17.544 7.2666 17.2861 7.2666 16.9346C7.2666 16.5713 7.52441 16.2901 7.958 16.2901C8.11035 16.2901 8.2041 16.3018 8.30957 16.3252C8.50878 16.3604 8.64941 16.4072 9.01269 16.4072C10.0791 16.4072 10.5713 15.9033 10.7822 14.6846L11.1572 12.376H8.91894C8.50878 12.376 8.26269 12.1299 8.26269 11.7549C8.26269 11.3447 8.5205 11.0869 8.91894 11.0869H11.3447L11.6611 9.10645C11.9893 7.10254 13.0088 6.12988 14.8486 6.12988C15.3525 6.12988 15.751 6.17676 16.0439 6.29395C16.4541 6.43457 16.6533 6.7041 16.6533 7.04395C16.6533 7.40723 16.3955 7.68848 15.9619 7.68848C15.8213 7.68848 15.7158 7.67676 15.6221 7.65332C15.4229 7.61817 15.2705 7.58301 14.9189 7.58301C13.8525 7.58301 13.3604 8.0752 13.1611 9.24707L12.8799 11.0869H15.2002C15.6104 11.0869 15.8682 11.3447 15.8682 11.7549C15.8682 12.1299 15.6104 12.376 15.2002 12.376H12.6689L12.2705 14.8838C11.9424 16.8877 10.9229 17.8486 9.083 17.8486Z" fill="white"/>
</g>
<defs>
<clipPath id="clip0_2207_25475">
<rect width="23.9062" height="23.918" fill="white" transform="translate(0.0126953 0.0712891)"/>
</clipPath>
</defs>
</svg>
