<svg width="18" height="22" viewBox="0 0 18 22" fill="none" xmlns="http://www.w3.org/2000/svg">
<g clip-path="url(#clip0_2207_25466)">
<path d="M3.12549 21.4932C6.41846 21.4932 8.21142 19.7588 8.78564 16.1494L10.4966 5.46191C10.8833 3.09473 12.0669 2.04004 14.27 2.04004C15.0786 2.04004 15.7583 2.21582 16.2622 2.2627C16.6021 2.27441 16.8481 2.18067 17.0122 1.99317C17.1411 1.87598 17.2114 1.68848 17.2114 1.46582C17.2114 0.950195 16.8481 0.598633 16.2739 0.387695C15.77 0.200195 14.9849 0.0712891 14.1294 0.0712891C10.8364 0.0712891 8.91455 1.84082 8.35205 5.30957L6.65283 15.9033C6.24268 18.4346 5.17627 19.501 2.93799 19.501C2.51611 19.501 2.11768 19.4307 1.89502 19.3838C1.56689 19.3135 1.25049 19.2549 0.945801 19.2549C0.348145 19.2549 0.00830078 19.6182 0.00830078 20.1104C0.00830078 20.626 0.324707 20.9893 0.910645 21.1885C1.46142 21.3877 2.19971 21.4932 3.12549 21.4932ZM2.80908 11.0869H14.7856C15.3247 11.0869 15.6645 10.7705 15.6645 10.2549C15.6645 9.71582 15.3247 9.37598 14.7856 9.37598H2.80908C2.2583 9.37598 1.91846 9.71582 1.91846 10.2549C1.91846 10.7588 2.2583 11.0869 2.80908 11.0869Z" fill="black" fill-opacity="0.85"/>
</g>
<defs>
<clipPath id="clip0_2207_25466">
<rect width="17.2031" height="21.4336" fill="white" transform="translate(0.00830078 0.0712891)"/>
</clipPath>
</defs>
</svg>
