<svg width="24" height="24" viewBox="0 0 24 24" fill="none" xmlns="http://www.w3.org/2000/svg">
<g clip-path="url(#clip0_2207_25470)">
<path d="M11.9636 23.9775C18.5027 23.9775 23.9167 18.5518 23.9167 12.0244C23.9167 5.48535 18.491 0.0712891 11.9519 0.0712891C5.42456 0.0712891 0.010498 5.48535 0.010498 12.0244C0.010498 18.5518 5.43628 23.9775 11.9636 23.9775ZM11.9636 21.9854C6.43238 21.9854 2.01441 17.5557 2.01441 12.0244C2.01441 6.49317 6.42066 2.06348 11.9519 2.06348C17.4832 2.06348 21.9246 6.49317 21.9246 12.0244C21.9246 17.5557 17.4949 21.9854 11.9636 21.9854Z" fill="black" fill-opacity="0.85"/>
<path d="M9.16284 17.6611C10.9441 17.6611 11.9285 16.7354 12.2449 14.7901L12.6316 12.3643H15.0925C15.4793 12.3643 15.7371 12.1182 15.7371 11.7549C15.7371 11.3682 15.4793 11.1104 15.0925 11.1104H12.8308L13.1121 9.3291C13.2996 8.19238 13.78 7.71191 14.8113 7.71191C15.1511 7.71191 15.3035 7.74707 15.491 7.78223C15.5847 7.80567 15.6902 7.81738 15.8191 7.81738C16.241 7.81738 16.4871 7.54785 16.4871 7.19629C16.4871 6.86817 16.2996 6.61035 15.9011 6.46973C15.6199 6.36426 15.2332 6.31738 14.741 6.31738C12.9597 6.31738 11.9753 7.25488 11.6589 9.2002L11.3543 11.1104H8.99878C8.61206 11.1104 8.36597 11.3682 8.36597 11.7549C8.36597 12.1182 8.60034 12.3643 8.99878 12.3643H11.1667L10.8035 14.6025C10.6043 15.7861 10.1238 16.2783 9.09253 16.2783C8.74097 16.2783 8.60034 16.2315 8.41284 16.1963C8.30738 16.1729 8.21362 16.1611 8.073 16.1611C7.65112 16.1611 7.40503 16.4307 7.40503 16.7822C7.40503 17.1221 7.59253 17.3682 7.99097 17.5088C8.27222 17.626 8.65894 17.6611 9.16284 17.6611Z" fill="black" fill-opacity="0.85"/>
</g>
<defs>
<clipPath id="clip0_2207_25470">
<rect width="23.9062" height="23.918" fill="white" transform="translate(0.010498 0.0712891)"/>
</clipPath>
</defs>
</svg>
