<svg width="26" height="28" viewBox="0 0 26 28" fill="none" xmlns="http://www.w3.org/2000/svg">
<g clip-path="url(#clip0_2207_19624)">
<path d="M2.82178 9.92383H22.4155C24.1733 9.92383 25.2163 8.89258 25.2163 7.16992V3.20899C25.2163 1.48633 24.1733 0.455078 22.4155 0.455078H2.82178C1.06397 0.455078 0.0209961 1.48633 0.0209961 3.20899V7.16992C0.0209961 8.89258 1.06397 9.92383 2.82178 9.92383ZM11.7749 12.7129H13.4858V9.00977H11.7749V12.7129ZM2.82178 21.0801H22.4155C24.1733 21.0801 25.2163 20.0488 25.2163 18.3262V14.3652C25.2163 12.6426 24.1733 11.6113 22.4155 11.6113H2.82178C1.06397 11.6113 0.0209961 12.6426 0.0209961 14.3652V18.3262C0.0209961 20.0488 1.06397 21.0801 2.82178 21.0801ZM11.7632 23.5293H13.4858V19.8379H11.7632V23.5293ZM11.9976 27.502C12.3491 27.9356 12.9351 27.9356 13.2866 27.502L15.9702 24.1856C16.4858 23.541 16.1694 22.6973 15.3374 22.6973H9.93506C9.07959 22.6973 8.75147 23.5293 9.29053 24.1856L11.9976 27.502Z" fill="black" fill-opacity="0.85"/>
</g>
<defs>
<clipPath id="clip0_2207_19624">
<rect width="25.1953" height="27.7559" fill="white" transform="translate(0.0209961 0.0712891)"/>
</clipPath>
</defs>
</svg>
