<svg width="26" height="28" viewBox="0 0 26 28" fill="none" xmlns="http://www.w3.org/2000/svg">
<g clip-path="url(#clip0_2207_19620)">
<path d="M2.81958 9.92383H22.4133C24.1711 9.92383 25.2141 8.89258 25.2141 7.16992V3.20899C25.2141 1.48633 24.1711 0.455078 22.4133 0.455078H2.81958C1.06177 0.455078 0.0187988 1.48633 0.0187988 3.20899V7.16992C0.0187988 8.89258 1.06177 9.92383 2.81958 9.92383ZM2.85474 8.1543C2.18677 8.1543 1.78833 7.74414 1.78833 7.06445V3.30274C1.78833 2.63477 2.18677 2.22461 2.85474 2.22461H22.3782C23.0461 2.22461 23.4446 2.63477 23.4446 3.30274V7.06445C23.4446 7.74414 23.0461 8.1543 22.3782 8.1543H2.85474ZM11.7727 12.7129H13.4836V9.00977H11.7727V12.7129ZM2.81958 21.0801H22.4133C24.1711 21.0801 25.2141 20.0488 25.2141 18.3262V14.3652C25.2141 12.6426 24.1711 11.6113 22.4133 11.6113H2.81958C1.06177 11.6113 0.0187988 12.6426 0.0187988 14.3652V18.3262C0.0187988 20.0488 1.06177 21.0801 2.81958 21.0801ZM2.85474 19.3106C2.18677 19.3106 1.78833 18.9004 1.78833 18.2324V14.4707C1.78833 13.791 2.18677 13.3809 2.85474 13.3809H22.3782C23.0461 13.3809 23.4446 13.791 23.4446 14.4707V18.2324C23.4446 18.9004 23.0461 19.3106 22.3782 19.3106H2.85474ZM11.761 23.5293H13.4836V19.8379H11.761V23.5293ZM11.9954 27.502C12.3469 27.9356 12.9329 27.9356 13.2844 27.502L15.968 24.1856C16.4836 23.541 16.1672 22.6973 15.3352 22.6973H9.93286C9.07739 22.6973 8.74927 23.5293 9.28833 24.1856L11.9954 27.502Z" fill="black" fill-opacity="0.85"/>
</g>
<defs>
<clipPath id="clip0_2207_19620">
<rect width="25.1953" height="27.7559" fill="white" transform="translate(0.0187988 0.0712891)"/>
</clipPath>
</defs>
</svg>
