<svg width="27" height="27" viewBox="0 0 27 27" fill="none" xmlns="http://www.w3.org/2000/svg">
<g clip-path="url(#clip0_2207_16065)">
<path d="M13.2321 23.2129C17.9079 23.2129 21.904 19.9083 22.8884 15.6895C22.1853 16.545 21.0954 17.0254 19.9001 17.0254C18.7517 17.0254 17.697 16.5801 16.9821 15.7833C16.7126 15.502 16.4313 15.4903 16.1618 15.7833C15.4939 16.545 14.4157 17.0254 13.2204 17.0254C12.0251 17.0254 10.947 16.545 10.279 15.7833C10.0095 15.4903 9.72827 15.502 9.45874 15.7833C8.7439 16.5801 7.70093 17.0254 6.55249 17.0254C5.34546 17.0254 4.25562 16.545 3.55249 15.6895C4.58374 19.9317 8.56812 23.2129 13.2321 23.2129ZM13.2204 24.5958C13.5251 24.5958 13.8181 24.5606 14.1345 24.5372L14.8024 25.8262C14.9431 26.084 15.1892 26.2247 15.5173 26.1778C15.8103 26.1192 16.0095 25.9083 16.0563 25.5919L16.2556 24.1739C16.8415 24.0215 17.4157 23.7989 17.9665 23.5528L19.0212 24.502C19.2439 24.7129 19.5251 24.7598 19.8181 24.5958C20.0759 24.4551 20.1813 24.1739 20.1228 23.8692L19.8298 22.4629C20.322 22.1231 20.8024 21.7364 21.236 21.3028L22.5368 21.8536C22.8298 21.9825 23.111 21.9122 23.3337 21.6426C23.5329 21.4317 23.5446 21.127 23.3806 20.8692L22.6189 19.6504C22.9704 19.1583 23.2517 18.6309 23.5212 18.0684L24.9626 18.1387C25.2673 18.1504 25.5134 17.9864 25.6189 17.6934C25.7126 17.4004 25.6306 17.1192 25.3845 16.9317L24.2595 16.0411C24.4118 15.4786 24.529 14.8692 24.5876 14.2364L25.9353 13.8145C26.2399 13.709 26.4157 13.4864 26.4157 13.17C26.4157 12.8653 26.2399 12.6309 25.9353 12.5372L24.5876 12.1036C24.529 11.4708 24.4118 10.8848 24.2595 10.3106L25.3845 9.4083C25.6189 9.23252 25.7126 8.96298 25.6189 8.67002C25.5134 8.37705 25.2673 8.21298 24.9626 8.2247L23.5212 8.2833C23.2517 7.7208 22.9704 7.19345 22.6189 6.70127L23.3806 5.48252C23.5446 5.23642 23.5212 4.93173 23.3337 4.7208C23.111 4.45127 22.8298 4.39267 22.5368 4.50986L21.236 5.0372C20.8024 4.62705 20.322 4.22861 19.8298 3.88877L20.1228 2.49423C20.1931 2.17783 20.0759 1.89658 19.8181 1.75595C19.5251 1.60361 19.2439 1.62705 19.0212 1.86142L17.9665 2.7872C17.4157 2.54111 16.8415 2.34189 16.2556 2.17783L16.0563 0.759856C16.0095 0.455168 15.7985 0.232512 15.5056 0.185637C15.1892 0.138762 14.9313 0.267668 14.8024 0.525481L14.1345 1.81455C13.8181 1.79111 13.5251 1.76767 13.2204 1.76767C12.904 1.76767 12.6228 1.79111 12.3063 1.81455L11.6267 0.525481C11.4978 0.267668 11.2399 0.138762 10.9235 0.185637C10.6306 0.232512 10.4196 0.455168 10.3845 0.759856L10.1735 2.16611C9.58765 2.34189 9.02515 2.54111 8.46265 2.7872L7.40796 1.86142C7.18531 1.62705 6.90406 1.60361 6.61109 1.75595C6.35327 1.89658 6.23609 2.17783 6.3064 2.49423L6.59937 3.88877C6.1189 4.22861 5.62671 4.62705 5.19312 5.0372L3.89234 4.50986C3.59937 4.39267 3.32984 4.45127 3.10718 4.7208C2.90796 4.93173 2.89624 5.23642 3.04859 5.4708L3.81031 6.70127C3.47046 7.19345 3.17749 7.7208 2.90796 8.2833L1.47827 8.2247C1.17359 8.21298 0.915771 8.37705 0.810302 8.67002C0.716552 8.96298 0.810303 9.2208 1.04468 9.4083L2.16968 10.3106C2.01734 10.8848 1.90015 11.4708 1.86499 12.1036L0.493896 12.5372C0.189208 12.6309 0.0251465 12.8536 0.0251465 13.17C0.0251465 13.4864 0.189208 13.709 0.493896 13.8145L1.86499 14.2481C1.90015 14.8692 2.01734 15.4786 2.16968 16.0411L1.04468 16.9317C0.810303 17.1192 0.728271 17.4004 0.810302 17.6934C0.915771 17.9864 1.17359 18.1504 1.47827 18.1387L2.90796 18.0684C3.17749 18.6309 3.47046 19.1583 3.81031 19.6504L3.04859 20.8692C2.88453 21.127 2.90796 21.4317 3.10718 21.6426C3.32984 21.9122 3.59937 21.9825 3.89234 21.8536L5.19312 21.3028C5.62671 21.7364 6.1189 22.1231 6.59937 22.4629L6.3064 23.8692C6.24781 24.1739 6.35327 24.4551 6.61109 24.5958C6.90406 24.7598 7.18531 24.7129 7.40796 24.502L8.46265 23.5528C9.02515 23.7989 9.58765 24.0215 10.1735 24.1739L10.3845 25.5919C10.4196 25.9083 10.6306 26.1192 10.9235 26.1778C11.2399 26.2247 11.486 26.084 11.6267 25.8262L12.3063 24.5372C12.611 24.5606 12.904 24.5958 13.2204 24.5958ZM13.2204 22.8145C7.85327 22.8145 3.70484 18.5372 3.70484 13.1817C3.70484 7.82627 7.85327 3.54892 13.2204 3.54892C18.5876 3.54892 22.736 7.82627 22.736 13.1817C22.736 18.5372 18.5876 22.8145 13.2204 22.8145Z" fill="black" fill-opacity="0.85"/>
</g>
<defs>
<clipPath id="clip0_2207_16065">
<rect width="26.3906" height="26.1155" fill="white" transform="translate(0.0251465 0.0712891)"/>
</clipPath>
</defs>
</svg>
