<svg width="24" height="24" viewBox="0 0 24 24" fill="none" xmlns="http://www.w3.org/2000/svg">
<g clip-path="url(#clip0_2207_342)">
<path d="M11.9951 23.9775C18.5342 23.9775 23.9482 18.5518 23.9482 12.0244C23.9482 5.48535 18.5225 0.0712891 11.9834 0.0712891C5.45605 0.0712891 0.0419922 5.48535 0.0419922 12.0244C0.0419922 18.5518 5.46777 23.9775 11.9951 23.9775ZM11.9951 21.9854C6.46387 21.9854 2.0459 17.5557 2.0459 12.0244C2.0459 6.49317 6.45215 2.06348 11.9834 2.06348C17.5147 2.06348 21.9561 6.49317 21.9561 12.0244C21.9561 17.5557 17.5264 21.9854 11.9951 21.9854Z" fill="black" fill-opacity="0.85"/>
<path d="M7.22559 17.3447H16.9404C17.96 17.3447 18.5576 16.7471 18.5576 15.5869V10.6768H5.43262V15.5869C5.43262 16.7471 6.042 17.3447 7.22559 17.3447ZM5.43262 9.72754H18.5576V9.29395C18.5576 8.13379 17.9482 7.53613 16.7647 7.53613H11.1865C10.7764 7.53613 10.5654 7.43067 10.2842 7.19629L9.92091 6.91504C9.53419 6.61035 9.25294 6.50488 8.71388 6.50488H6.99122C6.00684 6.50488 5.43262 7.0791 5.43262 8.2041V9.72754Z" fill="black" fill-opacity="0.85"/>
</g>
<defs>
<clipPath id="clip0_2207_342">
<rect width="23.9062" height="23.918" fill="white" transform="translate(0.0419922 0.0712891)"/>
</clipPath>
</defs>
</svg>
