<svg width="27" height="22" viewBox="0 0 27 22" fill="none" xmlns="http://www.w3.org/2000/svg">
<g clip-path="url(#clip0_2207_334)">
<path d="M3.70911 21.5166H23.3146C25.4122 21.5166 26.6427 20.2979 26.6427 17.8838V5.84863C26.6427 3.43457 25.4005 2.21582 22.963 2.21582H11.713C10.9161 2.21582 10.4356 2.02832 9.84973 1.52441L9.13489 0.938477C8.36145 0.282227 7.7638 0.0712891 6.60364 0.0712891H3.2638C1.21301 0.0712891 0.0294189 1.24317 0.0294189 3.59863V17.8838C0.0294189 20.3096 1.25989 21.5166 3.70911 21.5166ZM3.73254 19.6299C2.56067 19.6299 1.91614 19.0088 1.91614 17.7901V3.7041C1.91614 2.54395 2.52551 1.94629 3.65051 1.94629H6.12317C6.89661 1.94629 7.36536 2.14551 7.96301 2.64941L8.67786 3.24707C9.43958 3.87988 10.0606 4.10254 11.2208 4.10254H22.9278C24.088 4.10254 24.756 4.73535 24.756 5.9541V17.8018C24.756 19.0088 24.088 19.6299 22.9278 19.6299H3.73254ZM1.17786 8.3916H25.4825V6.62207H1.17786V8.3916Z" fill="black" fill-opacity="0.85"/>
</g>
<defs>
<clipPath id="clip0_2207_334">
<rect width="26.6133" height="21.5977" fill="white" transform="translate(0.0294189 0.0712891)"/>
</clipPath>
</defs>
</svg>
