<svg width="24" height="24" viewBox="0 0 24 24" fill="none" xmlns="http://www.w3.org/2000/svg">
<g clip-path="url(#clip0_2207_21267)">
<path d="M12.0224 23.9775C18.5615 23.9775 23.9755 18.5518 23.9755 12.0244C23.9755 5.48535 18.5498 0.0712891 12.0107 0.0712891C5.4834 0.0712891 0.0693359 5.48535 0.0693359 12.0244C0.0693359 18.5518 5.49512 23.9775 12.0224 23.9775ZM12.0224 21.9854C6.49122 21.9854 2.07325 17.5557 2.07325 12.0244C2.07325 6.49317 6.4795 2.06348 12.0107 2.06348C17.542 2.06348 21.9834 6.49317 21.9834 12.0244C21.9834 17.5557 17.5537 21.9854 12.0224 21.9854Z" fill="black" fill-opacity="0.85"/>
<path d="M9.53807 19.7002C10.0888 19.7002 10.4404 19.3955 10.4287 18.8565L10.2998 11.4268C10.2998 11.1924 10.3935 11.0166 10.6045 10.9229C11.4716 10.5479 11.8701 10.1494 11.7998 8.97754L11.6123 4.92285C11.6005 4.62988 11.4365 4.4541 11.167 4.4541C10.9091 4.4541 10.7451 4.6416 10.7451 4.93457L10.8037 8.89551C10.8037 9.11817 10.6396 9.27051 10.4287 9.27051C10.1943 9.27051 10.0303 9.11817 10.0303 8.90723L9.98338 4.8291C9.98338 4.53613 9.79588 4.37207 9.53807 4.37207C9.26854 4.37207 9.09276 4.53613 9.09276 4.8291L9.02244 8.90723C9.02244 9.11817 8.8701 9.27051 8.64744 9.27051C8.43651 9.27051 8.27244 9.11817 8.27244 8.89551L8.33104 4.93457C8.33104 4.6416 8.16698 4.4541 7.90916 4.4541C7.63963 4.4541 7.46385 4.62988 7.45213 4.92285L7.27635 8.97754C7.22948 10.1494 7.60448 10.5479 8.48338 10.9229C8.6826 11.0166 8.77635 11.1924 8.77635 11.4268L8.64744 18.8565C8.63573 19.3955 8.98729 19.7002 9.53807 19.7002ZM14.1318 14.0752L13.9795 18.8213C13.956 19.3955 14.3193 19.7002 14.8584 19.7002C15.4326 19.7002 15.7724 19.419 15.7724 18.8916V4.86426C15.7724 4.52441 15.5263 4.37207 15.3037 4.37207C15.0459 4.37207 14.8818 4.5127 14.6709 4.81738C13.6045 6.30567 12.9013 9.10645 12.9013 11.7432V12.1885C12.9013 12.6572 13.0771 12.9736 13.4052 13.208L13.792 13.4775C14.0263 13.6416 14.1318 13.8174 14.1318 14.0752Z" fill="black" fill-opacity="0.85"/>
</g>
<defs>
<clipPath id="clip0_2207_21267">
<rect width="23.9062" height="23.918" fill="white" transform="translate(0.0693359 0.0712891)"/>
</clipPath>
</defs>
</svg>
