<svg width="24" height="24" viewBox="0 0 24 24" fill="none" xmlns="http://www.w3.org/2000/svg">
<g clip-path="url(#clip0_2207_5218)">
<path d="M12.0288 23.9775C18.5679 23.9775 23.9819 18.5518 23.9819 12.0244C23.9819 5.48535 18.5562 0.0712891 12.0171 0.0712891C5.48974 0.0712891 0.0756836 5.48535 0.0756836 12.0244C0.0756836 18.5518 5.50146 23.9775 12.0288 23.9775ZM12.0288 21.9854C6.49756 21.9854 2.07959 17.5557 2.07959 12.0244C2.07959 6.49317 6.48584 2.06348 12.0171 2.06348C17.5484 2.06348 21.9898 6.49317 21.9898 12.0244C21.9898 17.5557 17.5601 21.9854 12.0288 21.9854Z" fill="black" fill-opacity="0.85"/>
<path d="M13.6343 16.3369C13.8569 16.3369 14.0445 16.2666 14.2671 16.1377L19.8569 12.8447C20.2319 12.6221 20.4077 12.3408 20.4077 12.0361C20.4077 11.7315 20.2319 11.4502 19.8569 11.2275L14.2671 7.93457C14.0445 7.80567 13.8569 7.73535 13.6343 7.73535C13.2124 7.73535 12.8491 8.06348 12.8491 8.66113V15.4111C12.8491 16.0088 13.2124 16.3369 13.6343 16.3369ZM6.11084 16.3369C6.33349 16.3369 6.53271 16.2666 6.74365 16.1377L12.3335 12.8447C12.7202 12.6221 12.8843 12.3408 12.8843 12.0361C12.8843 11.7315 12.7202 11.4502 12.3335 11.2275L6.74365 7.93457C6.53271 7.80567 6.33349 7.73535 6.11084 7.73535C5.68896 7.73535 5.3374 8.06348 5.3374 8.66113V15.4111C5.3374 16.0088 5.68896 16.3369 6.11084 16.3369Z" fill="black" fill-opacity="0.85"/>
</g>
<defs>
<clipPath id="clip0_2207_5218">
<rect width="23.9062" height="23.918" fill="white" transform="translate(0.0756836 0.0712891)"/>
</clipPath>
</defs>
</svg>
