<svg width="22" height="20" viewBox="0 0 22 20" fill="none" xmlns="http://www.w3.org/2000/svg">
<g clip-path="url(#clip0_2207_5288)">
<path d="M1.09058 19.4424C1.64136 19.4424 2.09839 19.0205 2.09839 18.4697V1.06738C2.09839 0.516601 1.64136 0.0830078 1.09058 0.0830078C0.539794 0.0830078 0.0944824 0.516601 0.0944824 1.06738V18.4697C0.0944824 19.0205 0.539794 19.4424 1.09058 19.4424ZM7.46557 18.9736C7.94604 18.9736 8.34448 18.8213 8.82495 18.5401L20.7664 11.5088C21.5867 11.0166 21.95 10.4307 21.95 9.7627C21.95 9.09473 21.5984 8.50879 20.7664 8.0166L8.82495 0.985351C8.34448 0.704101 7.94604 0.551758 7.46557 0.551758C6.55151 0.551758 5.77807 1.25488 5.77807 2.56738V16.958C5.77807 18.2705 6.55151 18.9736 7.46557 18.9736ZM7.9812 16.8057C7.81714 16.8057 7.66479 16.6885 7.66479 16.4541V3.07129C7.66479 2.83691 7.81714 2.71973 7.9812 2.71973C8.06323 2.71973 8.15698 2.75488 8.27417 2.8252L19.407 9.43457C19.5711 9.52832 19.6648 9.59863 19.6648 9.7627C19.6648 9.91504 19.5711 9.99707 19.407 10.0908L8.27417 16.7002C8.15698 16.7705 8.06323 16.8057 7.9812 16.8057Z" fill="black" fill-opacity="0.85"/>
</g>
<defs>
<clipPath id="clip0_2207_5288">
<rect width="21.8555" height="19.3711" fill="white" transform="translate(0.0944824 0.0712891)"/>
</clipPath>
</defs>
</svg>
