<svg width="30" height="24" viewBox="0 0 30 24" fill="none" xmlns="http://www.w3.org/2000/svg">
<g clip-path="url(#clip0_2207_21810)">
<path d="M12.3281 14.2056C15.6914 14.2056 18.3047 11.5455 18.3047 7.79541C18.3047 6.02587 17.8008 4.43213 16.875 3.18994L14.6367 5.43994C15.1992 6.13134 15.5273 7.02197 15.5273 7.98291C15.5273 10.0454 14.0859 11.5337 12.2109 11.5337C10.6992 11.5337 9.50391 10.5376 9.50391 9.38916C9.50391 9.00244 9.82031 8.75634 10.1602 8.75634C10.4297 8.75634 10.6758 8.92041 10.7695 9.28369C10.9219 9.83447 11.3906 10.2564 12.1406 10.2564C13.3477 10.2564 14.0977 9.40087 14.0977 8.07666C14.0977 6.48291 12.75 5.24072 11.0156 5.24072C8.88281 5.24072 7.10156 7.06884 7.10156 9.38916C7.10156 12.0845 9.30469 14.2056 12.3281 14.2056ZM10.9922 3.77587C11.8945 3.78759 12.8438 4.03369 13.6172 4.51416L15.9609 2.18213C14.707 1.01025 12.9844 0.260254 10.9922 0.131348V3.77587ZM7.54688 5.07666C8.15625 4.56103 8.85938 4.17431 9.63281 3.96337V0.0961914C7.65234 0.189942 5.85938 0.822754 4.35938 1.86572L7.54688 5.07666ZM0.164062 8.68603H5.70703C5.78906 7.76025 6.14062 6.83447 6.65625 6.08447L3.29297 2.70947C1.67578 4.19775 0.550781 6.26025 0.164062 8.68603ZM0 10.6666C0 13.4087 0.75 15.8228 2.10938 17.8033L6.87891 13.022C6.22266 12.1548 5.8125 11.1353 5.68359 10.0454H0.0117188C0 10.2681 0 10.4673 0 10.6666ZM2.94141 18.8931C4.92188 21.1314 7.79297 22.6314 11.2852 23.0884V15.5767C9.92578 15.4009 8.73047 14.8384 7.80469 14.0064L2.94141 18.8931ZM12.6562 23.2173C12.9609 23.2408 13.2891 23.2408 13.6055 23.2408C16.9805 23.2408 20.0039 22.2798 22.5117 20.5689L16.4062 14.4986C15.3984 15.1666 14.1328 15.6001 12.6562 15.6587V23.2173ZM23.5898 19.7837C26.4492 17.4751 28.4648 14.1236 29.3086 10.4322C29.5312 9.50634 28.8047 8.94384 28.0664 8.94384H19.6758C19.5469 10.5142 18.8203 12.3072 17.4492 13.6431L23.5898 19.7837Z" fill="black" fill-opacity="0.85"/>
</g>
<defs>
<clipPath id="clip0_2207_21810">
<rect width="29.3494" height="23.168" fill="white" transform="translate(0 0.0727539)"/>
</clipPath>
</defs>
</svg>
