<svg width="24" height="24" viewBox="0 0 24 24" fill="none" xmlns="http://www.w3.org/2000/svg">
<g clip-path="url(#clip0_2207_25451)">
<path d="M11.9594 23.979C18.4985 23.979 23.9125 18.5533 23.9125 12.0259C23.9125 5.48681 18.4868 0.0727539 11.9477 0.0727539C5.42041 0.0727539 0.00634766 5.48681 0.00634766 12.0259C0.00634766 18.5533 5.43213 23.979 11.9594 23.979Z" fill="black" fill-opacity="0.85"/>
<path d="M9.83838 18.0845C9.38135 18.0845 9.04151 17.7798 9.04151 17.3111V16.0337H8.06885C7.71729 16.0337 7.49463 15.7642 7.49463 15.4244C7.49463 15.0845 7.71729 14.8267 8.06885 14.8267H9.04151V7.35009C9.04151 6.85791 9.34619 6.5415 9.82666 6.5415H15.1001C15.5219 6.5415 15.8383 6.82275 15.8383 7.27978C15.8383 7.71337 15.5219 8.00634 15.1001 8.00634H10.6235V11.4166H14.6547C15.0766 11.4166 15.4047 11.6978 15.4047 12.1431C15.4047 12.5767 15.0766 12.8697 14.6547 12.8697H10.6235V14.8267H13.1079C13.4594 14.8267 13.7055 15.0845 13.7055 15.4244C13.7055 15.7642 13.4594 16.0337 13.1079 16.0337H10.6235V17.2994C10.6235 17.7564 10.3071 18.0845 9.83838 18.0845Z" fill="white"/>
</g>
<defs>
<clipPath id="clip0_2207_25451">
<rect width="23.9062" height="23.918" fill="white" transform="translate(0.00634766 0.0727539)"/>
</clipPath>
</defs>
</svg>
