<svg width="31" height="27" viewBox="0 0 31 27" fill="none" xmlns="http://www.w3.org/2000/svg">
<g clip-path="url(#clip0_2207_15547)">
<path d="M28.8266 21.0025C29.6586 21.0025 30.3617 20.3228 30.3617 19.5259C30.3617 18.7173 29.6703 18.0494 28.8266 18.0494C27.9711 18.0494 27.2914 18.7173 27.2914 19.5259C27.2914 20.3228 27.9945 21.0025 28.8266 21.0025ZM28.8266 15.7994C29.4008 15.7994 29.7992 15.4009 29.8227 14.8033L30.0688 6.50634C30.0922 5.75634 29.6 5.25244 28.8266 5.25244C28.0531 5.25244 27.5609 5.75634 27.5844 6.50634L27.8188 14.8033C27.8422 15.4009 28.2524 15.7994 28.8266 15.7994Z" fill="black" fill-opacity="0.85"/>
<path d="M17.2484 25.3384V3.04931C17.2484 1.12744 16.1938 0.0727539 14.2836 0.0727539H4.83826C2.90466 0.0727539 1.88513 1.12744 1.88513 3.04931V25.3384H17.2484ZM5.22498 12.3072C4.36951 12.3072 3.85388 11.8384 3.85388 11.0533V3.31884C3.85388 2.53369 4.36951 2.05322 5.22498 2.05322H13.8969C14.7524 2.05322 15.2797 2.53369 15.2797 3.31884V11.0533C15.2797 11.8384 14.7524 12.3072 13.8969 12.3072H5.22498ZM0.0335693 25.2564C0.0335693 25.7837 0.443725 26.2173 0.95935 26.2173H18.1508C18.6664 26.2173 19.1 25.7837 19.1 25.2564C19.1 24.7525 18.6664 24.3306 18.1508 24.3306H0.95935C0.455444 24.3306 0.0335693 24.7408 0.0335693 25.2564ZM16.3461 15.5064H17.3656C17.9047 15.5064 18.2445 15.8111 18.2445 16.397V20.2759C18.2445 21.94 19.2524 22.9478 20.9164 22.9478C22.5688 22.9478 23.5648 21.94 23.5648 20.2759V5.92041C23.5648 5.21728 23.3774 4.67822 23.0375 4.13916L21.432 1.53759C20.8344 0.588379 19.4398 1.44384 20.0375 2.40478L21.4086 4.63134C21.5375 4.84228 21.5258 5.08837 21.3852 5.29931L19.85 7.44384C19.3461 8.13525 19.4164 8.7915 19.9438 9.41259L21.9125 11.6978V20.2759C21.9125 20.9087 21.5375 21.2955 20.9164 21.2955C20.2719 21.2955 19.8969 20.9087 19.8969 20.2759V16.397C19.8969 14.7798 18.9359 13.854 17.3656 13.854H16.3461V15.5064Z" fill="black" fill-opacity="0.85"/>
</g>
<defs>
<clipPath id="clip0_2207_15547">
<rect width="30.3281" height="26.1445" fill="white" transform="translate(0.0335693 0.0727539)"/>
</clipPath>
</defs>
</svg>
