<svg width="25" height="27" viewBox="0 0 25 27" fill="none" xmlns="http://www.w3.org/2000/svg">
<g clip-path="url(#clip0_2207_15512)">
<path d="M18.427 25.3384V3.04931C18.427 1.12744 17.3723 0.0727539 15.4504 0.0727539H4.82154C2.88794 0.0727539 1.86841 1.12744 1.86841 3.04931V25.3384H3.74341L3.75513 3.07275C3.75513 2.34619 4.10669 1.95947 4.85669 1.95947H15.4152C16.1418 1.95947 16.5285 2.33447 16.5285 3.07275V25.3384H18.427ZM0.0168457 25.2564C0.0168457 25.7837 0.427002 26.2173 0.942627 26.2173H19.3293C19.8449 26.2173 20.2668 25.7837 20.2668 25.2564C20.2668 24.7525 19.8449 24.3306 19.3293 24.3306H0.942627C0.438721 24.3306 0.0168457 24.7408 0.0168457 25.2564ZM6.39185 12.9751H13.8801C14.6652 12.9751 15.2043 12.5064 15.2043 11.7916V4.68994C15.2043 3.97509 14.6535 3.48291 13.8801 3.48291H6.39185C5.61841 3.48291 5.09107 3.97509 5.09107 4.68994V11.7916C5.09107 12.5064 5.61841 12.9751 6.39185 12.9751ZM17.5246 15.5064H18.5441C19.0832 15.5064 19.4113 15.8111 19.4113 16.397V20.2759C19.4113 21.94 20.4191 22.9478 22.0832 22.9478C23.7473 22.9478 24.7434 21.94 24.7434 20.2759V5.92041C24.7434 5.21728 24.5559 4.67822 24.216 4.13916L22.6106 1.53759C22.0129 0.588379 20.6184 1.44384 21.2043 2.40478L22.5871 4.63134C22.716 4.84228 22.7043 5.08837 22.5637 5.29931L21.0285 7.44384C20.5246 8.13525 20.5949 8.7915 21.1223 9.41259L23.091 11.6978V20.2759C23.091 20.9087 22.7043 21.2955 22.0832 21.2955C21.4504 21.2955 21.0754 20.9087 21.0754 20.2759V16.397C21.0754 14.7798 20.1145 13.854 18.5441 13.854H17.5246V15.5064Z" fill="black" fill-opacity="0.85"/>
</g>
<defs>
<clipPath id="clip0_2207_15512">
<rect width="24.7266" height="26.1445" fill="white" transform="translate(0.0168457 0.0727539)"/>
</clipPath>
</defs>
</svg>
