<svg width="34" height="27" viewBox="0 0 34 27" fill="none" xmlns="http://www.w3.org/2000/svg">
<g clip-path="url(#clip0_2207_15552)">
<path d="M26.9866 25.3384V3.04931C26.9866 1.12744 25.9319 0.0727539 24.0101 0.0727539H13.3812C11.4476 0.0727539 10.428 1.12744 10.428 3.04931V25.3384H12.3148V3.07275C12.3148 2.34619 12.6663 1.95947 13.4163 1.95947H23.9866C24.7015 1.95947 25.0882 2.33447 25.0882 3.07275V25.3384H26.9866ZM8.57647 25.2564C8.57647 25.7837 8.98663 26.2173 9.50225 26.2173H27.889C28.4046 26.2173 28.8382 25.7837 28.8382 25.2564C28.8382 24.7525 28.4046 24.3306 27.889 24.3306H9.50225C8.99835 24.3306 8.57647 24.7408 8.57647 25.2564ZM14.9515 12.9751H22.4515C23.2249 12.9751 23.764 12.5064 23.764 11.7916V4.68994C23.764 3.97509 23.2132 3.48291 22.4515 3.48291H14.9515C14.178 3.48291 13.6507 3.97509 13.6507 4.68994V11.7916C13.6507 12.5064 14.178 12.9751 14.9515 12.9751ZM26.0843 15.5064H27.1038C27.6429 15.5064 27.9827 15.8111 27.9827 16.397V20.2759C27.9827 21.94 28.9788 22.9478 30.6429 22.9478C32.3069 22.9478 33.303 21.94 33.303 20.2759V5.92041C33.303 5.21728 33.1155 4.67822 32.7757 4.13916L31.1702 1.53759C30.5726 0.588379 29.178 1.44384 29.764 2.40478L31.1468 4.63134C31.2757 4.84228 31.264 5.08837 31.1233 5.29931L29.5882 7.44384C29.0843 8.13525 29.1546 8.7915 29.6819 9.41259L31.6507 11.6978V20.2759C31.6507 20.9087 31.264 21.2955 30.6429 21.2955C30.0101 21.2955 29.6351 20.9087 29.6351 20.2759V16.397C29.6351 14.7798 28.6741 13.854 27.1038 13.854H26.0843V15.5064Z" fill="black" fill-opacity="0.85"/>
<path d="M0.361629 12.5767C-0.0836842 12.8345 -0.107121 13.4556 0.361629 13.7251L6.38507 17.2759C6.87725 17.5689 7.45147 17.3345 7.45147 16.8306V9.44779C7.45147 8.9556 6.8421 8.73295 6.38507 9.00248L0.361629 12.5767Z" fill="black" fill-opacity="0.85"/>
</g>
<defs>
<clipPath id="clip0_2207_15552">
<rect width="33.2842" height="26.1445" fill="white" transform="translate(0.0187988 0.0727539)"/>
</clipPath>
</defs>
</svg>
