<svg width="22" height="22" viewBox="0 0 22 22" fill="none" xmlns="http://www.w3.org/2000/svg">
<g clip-path="url(#clip0_2207_24961)">
<path d="M3.73218 21.6705H17.947C20.408 21.6705 21.6267 20.4517 21.6267 18.0376V3.729C21.6267 1.31494 20.408 0.0961914 17.947 0.0961914H3.73218C1.28296 0.0961914 0.0524902 1.30322 0.0524902 3.729V18.0376C0.0524902 20.4634 1.28296 21.6705 3.73218 21.6705Z" fill="black" fill-opacity="0.85"/>
<path d="M10.9041 16.5962C7.70483 16.5962 5.67749 14.3345 5.67749 10.7603C5.67749 7.19776 7.70483 4.9126 10.8572 4.9126C13.1423 4.9126 14.7478 6.04932 15.3337 7.58448C15.4158 7.7837 15.4509 7.93604 15.4509 8.14698C15.4509 8.6626 15.1228 8.99073 14.6072 8.99073C14.2322 8.99073 13.9978 8.80323 13.7986 8.39307C13.2947 7.18604 12.2752 6.52979 10.8923 6.52979C8.94702 6.52979 7.64624 8.22901 7.64624 10.7603C7.64624 13.3033 8.95874 14.9908 10.9275 14.9908C12.7673 14.9908 13.7166 14.0298 13.7166 12.6001V11.8033H11.4783C11.033 11.8033 10.7634 11.4751 10.7634 11.1001C10.7634 10.69 11.033 10.397 11.4783 10.397H14.6189C15.2634 10.397 15.6502 10.7837 15.6502 11.4517V12.3423C15.6502 14.8501 13.8923 16.5962 10.9041 16.5962Z" fill="white"/>
</g>
<defs>
<clipPath id="clip0_2207_24961">
<rect width="21.5742" height="21.5977" fill="white" transform="translate(0.0524902 0.0727539)"/>
</clipPath>
</defs>
</svg>
