<svg width="34" height="22" viewBox="0 0 34 22" fill="none" xmlns="http://www.w3.org/2000/svg">
<g clip-path="url(#clip0_2207_20336)">
<path d="M0.0546875 16.7955C0.0546875 19.5376 1.83594 21.3189 4.51953 21.3189C5.87891 21.3189 7.22657 20.733 8.21094 19.5142L10.332 16.9478C10.6367 16.5845 10.9883 16.4087 11.3399 16.4087H22.6016C22.9531 16.4087 23.3047 16.5845 23.6094 16.9478L25.7305 19.5142C26.7149 20.733 28.0625 21.3189 29.4219 21.3189C32.1055 21.3189 33.8867 19.5376 33.8867 16.7955C33.8867 15.6236 33.6172 14.2759 33.1602 12.7642C32.4453 10.3619 31.1914 7.09228 29.9961 4.56103C28.9883 2.45166 28.4727 1.49072 25.9883 0.928223C23.7852 0.424316 20.7266 0.0844727 16.9766 0.0844727C13.2266 0.0844727 10.1563 0.424316 7.95313 0.928223C5.46875 1.49072 4.95313 2.45166 3.94531 4.56103C2.75 7.09228 1.4961 10.3619 0.78125 12.7642C0.324219 14.2759 0.0546875 15.6236 0.0546875 16.7955ZM1.84766 16.8658C1.84766 16.1275 2.01172 15.2369 2.38672 13.9595C3.17188 11.2642 4.53125 7.77197 5.71485 5.18213C6.28907 3.92822 6.60547 3.1665 8.12891 2.81494C10.25 2.31103 13.2735 1.97119 16.9766 1.97119C20.668 1.97119 23.6914 2.31103 25.8125 2.81494C27.3359 3.1665 27.6406 3.92822 28.2266 5.18213C29.4336 7.77197 30.7344 11.2759 31.5547 13.9595C31.9414 15.2369 32.0938 16.1275 32.0938 16.8658C32.0938 18.483 30.957 19.5025 29.4453 19.5025C28.5547 19.5025 27.6875 19.0337 27.0078 18.2017L24.8047 15.5416C24.2422 14.8619 23.7735 14.522 22.6836 14.522H11.2578C10.168 14.522 9.69922 14.8619 9.13672 15.5416L6.9336 18.2017C6.25391 19.0337 5.38672 19.5025 4.4961 19.5025C2.98438 19.5025 1.84766 18.483 1.84766 16.8658Z" fill="black" fill-opacity="0.85"/>
<path d="M7.48438 8.34619C7.48438 8.95556 7.84766 9.33056 8.45703 9.33056H10.5664V11.3814C10.5664 11.979 10.9063 12.354 11.4922 12.354C12.0664 12.354 12.418 11.979 12.418 11.3814V9.33056H14.3985C15.0547 9.33056 15.4414 8.95556 15.4414 8.34619C15.4414 7.76025 15.0547 7.39697 14.3985 7.39697H12.418V5.34619C12.418 4.74853 12.0664 4.38525 11.4922 4.38525C10.9063 4.38525 10.5664 4.74853 10.5664 5.34619V7.39697H8.45703C7.84766 7.39697 7.48438 7.76025 7.48438 8.34619ZM24.2539 8.229C25.2031 8.229 25.9649 7.46728 25.9649 6.52978C25.9649 5.58056 25.2031 4.81884 24.2539 4.81884C23.3164 4.81884 22.543 5.58056 22.543 6.52978C22.543 7.46728 23.3164 8.229 24.2539 8.229ZM20.8086 11.6978C21.7461 11.6978 22.5195 10.9361 22.5195 9.99853C22.5195 9.04931 21.7461 8.28759 20.8086 8.28759C19.8711 8.28759 19.0977 9.04931 19.0977 9.99853C19.0977 10.9361 19.8711 11.6978 20.8086 11.6978Z" fill="black" fill-opacity="0.85"/>
</g>
<defs>
<clipPath id="clip0_2207_20336">
<rect width="33.832" height="21.2461" fill="white" transform="translate(0.0546875 0.0727539)"/>
</clipPath>
</defs>
</svg>
