<svg width="35" height="27" viewBox="0 0 35 27" fill="none" xmlns="http://www.w3.org/2000/svg">
<g clip-path="url(#clip0_2207_17574)">
<path d="M1.2273 16.2798H2.25855C2.9148 16.2798 3.40698 15.7876 3.40698 15.1431V13.8775H6.52417C6.96948 12.5181 7.67261 11.2173 8.50464 10.104H8.3523C7.96558 10.104 7.71948 9.79931 7.71948 9.354V8.45166C7.71948 8.00634 7.98902 7.73681 8.41089 7.73681H10.7194C12.1726 6.50634 13.8952 5.58056 15.7702 5.05322H4.43823C4.01636 5.05322 3.86402 4.74853 4.00464 4.35009L4.55542 2.72119C4.75464 2.11181 5.08276 1.92431 5.62183 1.84228C6.2312 1.76025 7.9187 1.68994 10.403 1.68994C12.9109 1.68994 14.5866 1.76025 15.196 1.84228C15.7233 1.92431 16.0515 2.11181 16.2624 2.72119L16.8132 4.35009C16.8718 4.52587 16.8718 4.68994 16.8015 4.79541C17.3874 4.67822 17.9968 4.59619 18.6179 4.57275L17.8562 2.38134C17.3523 0.939942 16.3796 0.342285 15.1609 0.20166C14.5749 0.131348 12.6648 0.0727539 10.403 0.0727539C8.15308 0.0727539 6.2312 0.131348 5.64526 0.20166C4.43823 0.342285 3.4773 0.939942 2.97339 2.38134L2.05933 5.00634L1.18042 5.979C0.278077 6.96337 0.0671387 7.84228 0.0671387 9.31884V15.1431C0.0671387 15.7876 0.582764 16.2798 1.2273 16.2798ZM3.2312 10.5142C2.69214 10.5142 2.2937 10.1158 2.2937 9.58837V8.229C2.2937 7.70166 2.69214 7.31494 3.2312 7.31494C3.75855 7.31494 4.15698 7.68994 4.15698 8.229V9.58837C4.15698 10.1275 3.75855 10.5142 3.2312 10.5142Z" fill="black" fill-opacity="0.85"/>
<path d="M31.2741 18.108C31.2741 11.5806 25.8718 6.15479 19.3327 6.15479C12.8054 6.15479 7.39136 11.5806 7.39136 18.108C7.39136 21.1783 8.58667 24.0025 10.5319 26.1236C11.0476 26.6978 11.9499 26.8384 12.6413 26.147L14.2937 24.5064C14.6687 24.1431 14.6569 23.5337 14.2937 23.1705C13.9304 22.8072 13.321 22.8072 12.9577 23.1705L11.6804 24.4595C10.2507 22.7369 9.39526 20.5337 9.39526 18.108C9.39526 12.5767 13.8015 8.14698 19.3327 8.14698C24.864 8.14698 29.2702 12.5767 29.2702 18.108C29.2702 20.5337 28.4148 22.7369 26.9968 24.4595L25.7077 23.1705C25.3444 22.8072 24.7351 22.8072 24.3718 23.1705C24.0085 23.5337 24.0085 24.1431 24.3718 24.5064L26.0241 26.147C26.7155 26.8384 27.6179 26.6978 28.1335 26.1236C30.0788 24.0025 31.2741 21.1783 31.2741 18.108ZM27.4187 17.1705C26.903 17.1705 26.4694 17.5923 26.4694 18.108C26.4694 18.6236 26.903 19.0572 27.4187 19.0572H30.278V17.1705H27.4187ZM20.2819 10.0103V7.15088H18.3952V10.0103C18.3952 10.5259 18.8171 10.9478 19.3327 10.9478C19.8483 10.9478 20.2819 10.5259 20.2819 10.0103ZM14.2585 11.7212L12.2312 9.69385L10.9069 11.0298L12.9226 13.0455C13.2859 13.4205 13.8952 13.4087 14.2585 13.0455C14.6218 12.6822 14.6335 12.0728 14.2585 11.7212ZM11.2233 17.1705H8.36402V19.0572H11.2233C11.739 19.0572 12.1609 18.6236 12.1609 18.108C12.1609 17.5923 11.739 17.1705 11.2233 17.1705Z" fill="black" fill-opacity="0.85"/>
<path d="M17.8445 19.5961C18.6063 20.3696 19.7195 20.3696 20.4813 19.5961C20.6219 19.4555 20.8445 19.1508 20.9852 18.9633L24.9227 13.2797C25.1219 12.9985 25.0633 12.7172 24.8992 12.5415C24.7234 12.3774 24.4422 12.3188 24.161 12.518L18.4774 16.4555C18.2899 16.5961 17.9852 16.8188 17.8445 16.9594C17.0711 17.7329 17.0711 18.8344 17.8445 19.5961Z" fill="black" fill-opacity="0.85"/>
<path d="M30.7115 3.41257C30.3248 3.01414 29.8326 3.23679 29.7389 3.71726L28.8951 7.81882C28.7897 8.34617 29.1178 8.69773 29.6568 8.58054L33.7584 7.74851C34.2506 7.64304 34.4615 7.15085 34.0631 6.76414L30.7115 3.41257Z" fill="black" fill-opacity="0.85"/>
</g>
<defs>
<clipPath id="clip0_2207_17574">
<rect width="34.2048" height="26.8008" fill="white" transform="translate(0.0671387 0.0727539)"/>
</clipPath>
</defs>
</svg>
