<svg width="31" height="21" viewBox="0 0 31 21" fill="none" xmlns="http://www.w3.org/2000/svg">
<g clip-path="url(#clip0_2207_17581)">
<path d="M29.0966 18.2837C29.9287 18.2837 30.6318 17.604 30.6318 16.8072C30.6318 15.9986 29.9404 15.3306 29.0966 15.3306C28.2412 15.3306 27.5498 15.9986 27.5498 16.8072C27.5498 17.604 28.2529 18.2837 29.0966 18.2837ZM29.0966 13.0806C29.6709 13.0806 30.0693 12.6822 30.0927 12.0845L30.3388 3.78759C30.3623 3.03759 29.8584 2.53369 29.0966 2.53369C28.3232 2.53369 27.8193 3.03759 27.8427 3.78759L28.0888 12.0845C28.1123 12.6822 28.5224 13.0806 29.0966 13.0806Z" fill="black" fill-opacity="0.85"/>
<path d="M0.0693359 12.0259C0.0693359 15.0962 1.26465 17.9205 3.20996 20.0416C3.72559 20.6158 4.62793 20.7564 5.31934 20.065L6.97168 18.4244C7.33496 18.0611 7.33496 17.4517 6.97168 17.0884C6.6084 16.7251 5.99903 16.7251 5.63575 17.0884L4.34668 18.3775C2.917 16.6548 2.07325 14.4634 2.07325 12.0259C2.07325 6.50634 6.4795 2.06494 12.0107 2.06494C17.5302 2.06494 21.9482 6.50634 21.9482 12.0259C21.9482 14.4634 21.0927 16.6548 19.6631 18.3775L18.374 17.0884C18.0224 16.7251 17.4131 16.7251 17.0381 17.0884C16.6865 17.4517 16.6748 18.0611 17.0381 18.4244L18.7021 20.065C19.3935 20.7564 20.2959 20.6158 20.8115 20.0416C22.7568 17.9205 23.9521 15.0962 23.9521 12.0259C23.9521 5.49853 18.5381 0.0727539 12.0107 0.0727539C5.47168 0.0727539 0.0693359 5.49853 0.0693359 12.0259ZM3.92481 11.0884H1.06543V12.9751H3.92481C4.44043 12.9751 4.87403 12.5416 4.87403 12.0259C4.87403 11.5103 4.44043 11.0884 3.92481 11.0884ZM6.93653 5.63916L4.90918 3.61181L3.57325 4.94775L5.60059 6.97509C5.96387 7.33837 6.57325 7.33837 6.93653 6.97509C7.29981 6.60009 7.29981 6.00244 6.93653 5.63916ZM12.9482 3.92822V1.06885H11.0615V3.92822C11.0615 4.44384 11.4951 4.87744 12.0107 4.87744C12.5263 4.87744 12.9482 4.44384 12.9482 3.92822ZM17.0732 5.63916C16.7099 6.00244 16.7216 6.60009 17.0732 6.97509C17.4482 7.33837 18.0576 7.33837 18.4091 6.97509L20.4365 4.94775L19.1005 3.61181L17.0732 5.63916Z" fill="black" fill-opacity="0.85"/>
<path d="M10.0537 12.0375C10.0537 13.1274 10.8388 13.9125 11.9287 13.9125C12.1279 13.9125 12.5029 13.8422 12.7373 13.8071L19.5341 12.5766C19.8623 12.518 20.0263 12.2836 20.0263 12.0375C20.0263 11.7915 19.8623 11.5688 19.5341 11.4985L12.7373 10.2797C12.5029 10.2329 12.1279 10.1743 11.9287 10.1743C10.8388 10.1743 10.0537 10.9594 10.0537 12.0375Z" fill="black" fill-opacity="0.85"/>
</g>
<defs>
<clipPath id="clip0_2207_17581">
<rect width="30.5625" height="20.707" fill="white" transform="translate(0.0693359 0.0727539)"/>
</clipPath>
</defs>
</svg>
