<svg width="24" height="21" viewBox="0 0 24 21" fill="none" xmlns="http://www.w3.org/2000/svg">
<g clip-path="url(#clip0_2207_17551)">
<path d="M0.0588379 12.0259C0.0588379 15.0962 1.25415 17.9205 3.19946 20.0416C3.71509 20.6158 4.61743 20.7564 5.30884 20.065L6.96118 18.4244C7.32446 18.0611 7.32446 17.4517 6.96118 17.0884C6.5979 16.7251 5.98853 16.7251 5.62525 17.0884L4.33618 18.3775C2.91822 16.6548 2.06275 14.4634 2.06275 12.0259C2.06275 6.50634 6.469 2.06494 12.0002 2.06494C17.5315 2.06494 21.9377 6.50634 21.9377 12.0259C21.9377 14.4634 21.0822 16.6548 19.6643 18.3775L18.3752 17.0884C18.0119 16.7251 17.4026 16.7251 17.0393 17.0884C16.676 17.4517 16.676 18.0611 17.0393 18.4244L18.6916 20.065C19.383 20.7564 20.2854 20.6158 20.801 20.0416C22.7463 17.9205 23.9416 15.0962 23.9416 12.0259C23.9416 5.49853 18.5393 0.0727539 12.0002 0.0727539C5.4729 0.0727539 0.0588379 5.49853 0.0588379 12.0259ZM3.92603 11.0884H1.05493V12.9751H3.92603C4.44165 12.9751 4.86353 12.5416 4.86353 12.0259C4.86353 11.5103 4.44165 11.0884 3.92603 11.0884ZM11.0627 3.92822C11.0627 4.44384 11.4846 4.87744 12.0002 4.87744C12.5158 4.87744 12.9494 4.44384 12.9494 3.92822V1.06885H11.0627V3.92822ZM17.0744 5.63916C16.7111 6.00244 16.7111 6.60009 17.0744 6.97509C17.4377 7.33837 18.0471 7.33837 18.4104 6.97509L20.426 4.94775L19.1018 3.61181L17.0744 5.63916ZM20.1096 11.0884C19.594 11.0884 19.1721 11.5103 19.1721 12.0259C19.1721 12.5416 19.594 12.9751 20.1096 12.9751H22.9807V11.0884H20.1096Z" fill="black" fill-opacity="0.85"/>
<path d="M13.4885 13.5259C14.2619 12.7525 14.2619 11.6509 13.4885 10.8775C13.3479 10.7369 13.0432 10.5142 12.8557 10.3853L7.17212 6.43603C6.89087 6.23681 6.60962 6.29542 6.43384 6.45948C6.26978 6.64698 6.21118 6.9165 6.4104 7.19775L10.3596 12.8814C10.4885 13.0689 10.7111 13.3736 10.8518 13.5259C11.6252 14.2876 12.7268 14.2876 13.4885 13.5259Z" fill="black" fill-opacity="0.85"/>
</g>
<defs>
<clipPath id="clip0_2207_17551">
<rect width="23.8828" height="20.707" fill="white" transform="translate(0.0588379 0.0727539)"/>
</clipPath>
</defs>
</svg>
