<svg width="24" height="24" viewBox="0 0 24 24" fill="none" xmlns="http://www.w3.org/2000/svg">
<g clip-path="url(#clip0_2207_10271)">
<path d="M12.0351 23.979C18.5742 23.979 23.9882 18.5533 23.9882 12.0259C23.9882 5.48681 18.5625 0.0727539 12.0234 0.0727539C5.49609 0.0727539 0.0820312 5.48681 0.0820312 12.0259C0.0820312 18.5533 5.50781 23.979 12.0351 23.979ZM12.0351 21.9869C6.50391 21.9869 2.08594 17.5572 2.08594 12.0259C2.08594 6.49463 6.49219 2.06494 12.0234 2.06494C17.5547 2.06494 21.9961 6.49463 21.9961 12.0259C21.9961 17.5572 17.5664 21.9869 12.0351 21.9869Z" fill="black" fill-opacity="0.85"/>
<path d="M5.68359 10.2212C6.23437 10.2212 6.69141 9.76417 6.69141 9.21338C6.69141 8.65088 6.23437 8.19385 5.68359 8.19385C5.13281 8.19385 4.67578 8.65088 4.67578 9.21338C4.67578 9.76417 5.13281 10.2212 5.68359 10.2212ZM8.30859 7.31495C8.85937 7.31495 9.31641 6.85792 9.31641 6.30714C9.31641 5.75635 8.85937 5.29932 8.30859 5.29932C7.75781 5.29932 7.30078 5.75635 7.30078 6.30714C7.30078 6.85792 7.75781 7.31495 8.30859 7.31495ZM12.0234 6.20167C12.5742 6.20167 13.0312 5.74464 13.0312 5.19385C13.0312 4.64307 12.5742 4.18604 12.0234 4.18604C11.4726 4.18604 11.0156 4.64307 11.0156 5.19385C11.0156 5.74464 11.4726 6.20167 12.0234 6.20167ZM15.7382 7.31495C16.289 7.31495 16.7461 6.85792 16.7461 6.30714C16.7461 5.75635 16.289 5.29932 15.7382 5.29932C15.1875 5.29932 14.7304 5.75635 14.7304 6.30714C14.7304 6.85792 15.1875 7.31495 15.7382 7.31495ZM18.3632 10.2212C18.914 10.2212 19.3711 9.76417 19.3711 9.21338C19.3711 8.65088 18.914 8.19385 18.3632 8.19385C17.8125 8.19385 17.3554 8.65088 17.3554 9.21338C17.3554 9.76417 17.8125 10.2212 18.3632 10.2212ZM12.0234 19.3501C13.0664 19.3501 13.8984 18.5181 13.8984 17.522C13.8984 16.854 13.664 16.4087 12.9961 15.7994L8.41406 11.6626C8.16797 11.4283 7.88672 11.4166 7.67578 11.5572C7.47656 11.6861 7.39453 11.9673 7.52344 12.272L10.1015 17.8267C10.4882 18.6939 11.0039 19.3501 12.0234 19.3501Z" fill="black" fill-opacity="0.85"/>
</g>
<defs>
<clipPath id="clip0_2207_10271">
<rect width="23.9062" height="23.918" fill="white" transform="translate(0.0820312 0.0727539)"/>
</clipPath>
</defs>
</svg>
