<svg width="24" height="24" viewBox="0 0 24 24" fill="none" xmlns="http://www.w3.org/2000/svg">
<g clip-path="url(#clip0_2207_10315)">
<path d="M12.0329 23.979C18.572 23.979 23.986 18.5533 23.986 12.0259C23.986 5.48681 18.5603 0.0727539 12.0212 0.0727539C5.49389 0.0727539 0.079834 5.48681 0.079834 12.0259C0.079834 18.5533 5.50561 23.979 12.0329 23.979ZM12.0329 21.9869C6.50171 21.9869 2.08374 17.5572 2.08374 12.0259C2.08374 6.49463 6.48999 2.06494 12.0212 2.06494C17.5525 2.06494 21.9939 6.49463 21.9939 12.0259C21.9939 17.5572 17.5642 21.9869 12.0329 21.9869Z" fill="black" fill-opacity="0.85"/>
<path d="M10.1345 13.8306C10.8962 14.5923 11.9978 14.5923 12.7712 13.8306C12.9118 13.69 13.1345 13.3736 13.2751 13.1861L17.2126 7.50244C17.4118 7.22119 17.3532 6.95166 17.1892 6.77587C17.0134 6.61181 16.7321 6.55322 16.4509 6.74072L10.7673 10.69C10.5798 10.8189 10.2751 11.0416 10.1345 11.1822C9.36109 11.9556 9.36109 13.0572 10.1345 13.8306ZM7.26343 17.7447C7.81422 17.7447 8.27125 17.2876 8.27125 16.7369C8.27125 16.1861 7.81422 15.729 7.26343 15.729C6.71265 15.729 6.25562 16.1861 6.25562 16.7369C6.25562 17.2876 6.71265 17.7447 7.26343 17.7447ZM5.28296 13.0337C5.83375 13.0337 6.29078 12.5767 6.29078 12.0259C6.29078 11.4751 5.83375 11.0181 5.28296 11.0181C4.73218 11.0181 4.27515 11.4751 4.27515 12.0259C4.27515 12.5767 4.73218 13.0337 5.28296 13.0337ZM7.26343 8.32275C7.81422 8.32275 8.27125 7.86572 8.27125 7.31494C8.27125 6.75244 7.81422 6.30713 7.26343 6.30713C6.71265 6.30713 6.25562 6.75244 6.25562 7.31494C6.25562 7.86572 6.71265 8.32275 7.26343 8.32275ZM12.0212 6.30713C12.572 6.30713 13.029 5.85009 13.029 5.29931C13.029 4.74853 12.572 4.2915 12.0212 4.2915C11.4704 4.2915 11.0134 4.74853 11.0134 5.29931C11.0134 5.85009 11.4704 6.30713 12.0212 6.30713ZM18.736 13.0337C19.2868 13.0337 19.7439 12.5767 19.7439 12.0259C19.7439 11.4751 19.2868 11.0181 18.736 11.0181C18.1853 11.0181 17.7282 11.4751 17.7282 12.0259C17.7282 12.5767 18.1853 13.0337 18.736 13.0337ZM16.7556 17.7447C17.3064 17.7447 17.7634 17.2876 17.7634 16.7369C17.7634 16.1861 17.3064 15.729 16.7556 15.729C16.2048 15.729 15.7478 16.1861 15.7478 16.7369C15.7478 17.2876 16.2048 17.7447 16.7556 17.7447Z" fill="black" fill-opacity="0.85"/>
</g>
<defs>
<clipPath id="clip0_2207_10315">
<rect width="23.9062" height="23.918" fill="white" transform="translate(0.079834 0.0727539)"/>
</clipPath>
</defs>
</svg>
