<svg width="24" height="24" viewBox="0 0 24 24" fill="none" xmlns="http://www.w3.org/2000/svg">
<g clip-path="url(#clip0_2207_10310)">
<path d="M12.0307 23.979C18.5698 23.979 23.9838 18.5533 23.9838 12.0259C23.9838 5.48681 18.5581 0.0727539 12.019 0.0727539C5.4917 0.0727539 0.0776367 5.48681 0.0776367 12.0259C0.0776367 18.5533 5.50342 23.979 12.0307 23.979ZM12.0307 21.9869C6.49952 21.9869 2.08155 17.5572 2.08155 12.0259C2.08155 6.49463 6.4878 2.06494 12.019 2.06494C17.5503 2.06494 21.9917 6.49463 21.9917 12.0259C21.9917 17.5572 17.562 21.9869 12.0307 21.9869Z" fill="black" fill-opacity="0.85"/>
<path d="M12.0307 14.8501C13.1206 14.8501 13.894 14.065 13.894 12.9869C13.894 12.7759 13.8354 12.4009 13.8003 12.1783L12.5698 5.36963C12.5112 5.0415 12.2768 4.87744 12.0307 4.87744C11.7846 4.87744 11.5503 5.0415 11.4917 5.36963L10.2612 12.1783C10.226 12.4009 10.1674 12.7759 10.1674 12.9869C10.1674 14.065 10.9526 14.8501 12.0307 14.8501ZM7.28467 17.7447C7.83545 17.7447 8.29248 17.2876 8.29248 16.7369C8.29248 16.1861 7.83545 15.729 7.28467 15.729C6.73389 15.729 6.27686 16.1861 6.27686 16.7369C6.27686 17.2876 6.73389 17.7447 7.28467 17.7447ZM5.3042 13.0337C5.85498 13.0337 6.31202 12.5767 6.31202 12.0259C6.31202 11.4751 5.85498 11.0181 5.3042 11.0181C4.75342 11.0181 4.29639 11.4751 4.29639 12.0259C4.29639 12.5767 4.75342 13.0337 5.3042 13.0337ZM7.28467 8.32275C7.83545 8.32275 8.29248 7.86572 8.29248 7.31494C8.29248 6.75244 7.83545 6.30713 7.28467 6.30713C6.73389 6.30713 6.27686 6.75244 6.27686 7.31494C6.27686 7.86572 6.73389 8.32275 7.28467 8.32275ZM16.7768 8.32275C17.3276 8.32275 17.7846 7.86572 17.7846 7.31494C17.7846 6.75244 17.3276 6.30713 16.7768 6.30713C16.226 6.30713 15.769 6.75244 15.769 7.31494C15.769 7.86572 16.226 8.32275 16.7768 8.32275ZM18.7573 13.0337C19.3081 13.0337 19.7651 12.5767 19.7651 12.0259C19.7651 11.4751 19.3081 11.0181 18.7573 11.0181C18.2065 11.0181 17.7495 11.4751 17.7495 12.0259C17.7495 12.5767 18.2065 13.0337 18.7573 13.0337ZM16.7768 17.7447C17.3276 17.7447 17.7846 17.2876 17.7846 16.7369C17.7846 16.1861 17.3276 15.729 16.7768 15.729C16.226 15.729 15.769 16.1861 15.769 16.7369C15.769 17.2876 16.226 17.7447 16.7768 17.7447Z" fill="black" fill-opacity="0.85"/>
</g>
<defs>
<clipPath id="clip0_2207_10310">
<rect width="23.9062" height="23.918" fill="white" transform="translate(0.0776367 0.0727539)"/>
</clipPath>
</defs>
</svg>
