<svg width="24" height="24" viewBox="0 0 24 24" fill="none" xmlns="http://www.w3.org/2000/svg">
<g clip-path="url(#clip0_2207_10305)">
<path d="M12.0288 23.979C18.5679 23.979 23.9819 18.5533 23.9819 12.0259C23.9819 5.48681 18.5562 0.0727539 12.0171 0.0727539C5.48974 0.0727539 0.0756836 5.48681 0.0756836 12.0259C0.0756836 18.5533 5.50146 23.979 12.0288 23.979ZM12.0288 21.9869C6.49756 21.9869 2.07959 17.5572 2.07959 12.0259C2.07959 6.49463 6.48584 2.06494 12.0171 2.06494C17.5484 2.06494 21.9898 6.49463 21.9898 12.0259C21.9898 17.5572 17.5601 21.9869 12.0288 21.9869Z" fill="black" fill-opacity="0.85"/>
<path d="M13.9038 13.8306C14.6773 13.0572 14.6773 11.9556 13.9038 11.1822C13.7632 11.0416 13.4585 10.8189 13.271 10.69L7.5874 6.74072C7.30615 6.55322 7.0249 6.61181 6.84912 6.77587C6.68506 6.95166 6.62646 7.22119 6.82568 7.50244L10.7749 13.1861C10.9038 13.3736 11.1265 13.69 11.2671 13.8306C12.0405 14.5923 13.1421 14.5923 13.9038 13.8306ZM7.28271 17.7447C7.83349 17.7447 8.29052 17.2876 8.29052 16.7369C8.29052 16.1861 7.83349 15.729 7.28271 15.729C6.73193 15.729 6.2749 16.1861 6.2749 16.7369C6.2749 17.2876 6.73193 17.7447 7.28271 17.7447ZM5.30224 13.0337C5.85302 13.0337 6.31006 12.5767 6.31006 12.0259C6.31006 11.4751 5.85302 11.0181 5.30224 11.0181C4.75146 11.0181 4.29443 11.4751 4.29443 12.0259C4.29443 12.5767 4.75146 13.0337 5.30224 13.0337ZM12.0171 6.30713C12.5679 6.30713 13.0249 5.85009 13.0249 5.29931C13.0249 4.74853 12.5679 4.2915 12.0171 4.2915C11.4663 4.2915 11.0093 4.74853 11.0093 5.29931C11.0093 5.85009 11.4663 6.30713 12.0171 6.30713ZM16.7749 8.32275C17.3257 8.32275 17.7827 7.86572 17.7827 7.31494C17.7827 6.75244 17.3257 6.30713 16.7749 6.30713C16.2241 6.30713 15.7671 6.75244 15.7671 7.31494C15.7671 7.86572 16.2241 8.32275 16.7749 8.32275ZM18.7554 13.0337C19.3062 13.0337 19.7632 12.5767 19.7632 12.0259C19.7632 11.4751 19.3062 11.0181 18.7554 11.0181C18.2046 11.0181 17.7476 11.4751 17.7476 12.0259C17.7476 12.5767 18.2046 13.0337 18.7554 13.0337ZM16.7749 17.7447C17.3257 17.7447 17.7827 17.2876 17.7827 16.7369C17.7827 16.1861 17.3257 15.729 16.7749 15.729C16.2241 15.729 15.7671 16.1861 15.7671 16.7369C15.7671 17.2876 16.2241 17.7447 16.7749 17.7447Z" fill="black" fill-opacity="0.85"/>
</g>
<defs>
<clipPath id="clip0_2207_10305">
<rect width="23.9062" height="23.918" fill="white" transform="translate(0.0756836 0.0727539)"/>
</clipPath>
</defs>
</svg>
