<svg width="24" height="24" viewBox="0 0 24 24" fill="none" xmlns="http://www.w3.org/2000/svg">
<g clip-path="url(#clip0_2207_9858)">
<path d="M11.9573 23.9922C18.4964 23.9922 23.9104 18.5781 23.9104 12.039C23.9104 5.51172 18.4846 0.0859375 11.9455 0.0859375C5.41821 0.0859375 0.00415039 5.51172 0.00415039 12.039C0.00415039 18.5781 5.42993 23.9922 11.9573 23.9922Z" fill="black" fill-opacity="0.85"/>
<path d="M11.9573 18.8242C11.8167 18.8242 11.6526 18.8125 11.5237 18.8125L11.1604 19.4453C11.0667 19.668 10.8439 19.7851 10.5979 19.7383C10.3636 19.7031 10.1877 19.5273 10.1409 19.2695L10.0589 18.543C9.76587 18.4726 9.49634 18.3554 9.21509 18.25L8.68774 18.7187C8.51196 18.9062 8.25415 18.9297 8.04321 18.8125C7.83227 18.6836 7.73853 18.4726 7.77368 18.2148L7.92603 17.5C7.66821 17.3125 7.43384 17.1133 7.25806 16.9492L6.59009 17.2187C6.35571 17.3242 6.12134 17.2656 5.94556 17.043C5.80493 16.8906 5.76977 16.6328 5.89868 16.4219L6.2854 15.8008C6.13306 15.5312 5.99243 15.2969 5.86353 15.0273L5.12524 15.0742C4.89087 15.0742 4.67993 14.9336 4.5979 14.7109C4.51587 14.4765 4.58618 14.2422 4.77368 14.0898L5.35962 13.6328C5.27759 13.3281 5.24243 13.0351 5.19556 12.7539L4.51587 12.543C4.26977 12.4492 4.12915 12.2734 4.12915 12.0273C4.12915 11.7812 4.26977 11.5937 4.51587 11.5L5.19556 11.289C5.24243 11.0078 5.27759 10.7383 5.35962 10.4219L4.77368 9.9648C4.58618 9.78902 4.51587 9.56637 4.60962 9.35543C4.67993 9.10934 4.90259 8.98043 5.13696 8.99215L5.86353 9.01559C5.99243 8.78121 6.13306 8.51168 6.29712 8.25387L5.89868 7.62106C5.76977 7.42184 5.80493 7.16402 5.95727 6.99996C6.12134 6.80074 6.34399 6.74215 6.57837 6.8359L7.25806 7.10543C7.44556 6.91793 7.69165 6.73043 7.92603 6.55465L7.77368 5.8398C7.73853 5.57027 7.84399 5.35934 8.04321 5.24215C8.25415 5.11324 8.51196 5.16012 8.68774 5.3359L9.21509 5.79293C9.49634 5.69918 9.75415 5.58199 10.0589 5.49996L10.1409 4.76168C10.1877 4.53902 10.3636 4.35152 10.5862 4.31637C10.8323 4.26949 11.0667 4.37496 11.1604 4.59762L11.5237 5.25387C11.6526 5.24215 11.8167 5.23043 11.9573 5.23043C12.1214 5.23043 12.2503 5.24215 12.4026 5.25387L12.7425 4.59762C12.848 4.3984 13.0822 4.26949 13.3284 4.31637C13.5511 4.35152 13.7269 4.53902 13.762 4.76168L13.8675 5.49996C14.1604 5.58199 14.43 5.68746 14.6995 5.79293L15.2269 5.3359C15.4026 5.1484 15.6603 5.11324 15.883 5.24215C16.0822 5.35934 16.1644 5.57027 16.1292 5.8398L15.9651 6.55465C16.223 6.73043 16.4573 6.91793 16.6448 7.10543L17.3362 6.8359C17.5706 6.74215 17.7815 6.81246 17.9573 6.99996C18.1097 7.17574 18.133 7.43356 18.0042 7.63277L17.6175 8.25387C17.7581 8.47652 17.8987 8.72262 18.0511 9.01559L18.7775 8.99215C19.0119 8.98043 19.2347 9.10934 19.3167 9.35543C19.3987 9.57809 19.3284 9.80074 19.1292 9.9648L18.555 10.4219C18.6136 10.7031 18.6839 10.9844 18.719 11.289L19.3987 11.5117C19.6448 11.5937 19.7854 11.7812 19.7854 12.0273C19.7854 12.2734 19.6565 12.4492 19.3987 12.543L18.719 12.7539C18.6839 13.0703 18.6136 13.3633 18.555 13.6328L19.1292 14.0898C19.3167 14.2304 19.3987 14.4648 19.3167 14.7109C19.2347 14.9336 19.0237 15.0742 18.7894 15.0742L18.0511 15.0273C17.9222 15.2969 17.7815 15.543 17.6175 15.8008L18.0042 16.4219C18.133 16.6211 18.1214 16.8789 17.969 17.043C17.7815 17.2656 17.5705 17.3242 17.3244 17.2187L16.6448 16.9492C16.469 17.1133 16.2464 17.3125 15.9651 17.5L16.1292 18.2148C16.1644 18.4844 16.0822 18.6953 15.883 18.8125C15.6369 18.9297 15.4026 18.9062 15.2269 18.7187L14.6995 18.25C14.43 18.3554 14.1487 18.4609 13.8675 18.543L13.762 19.2812C13.7269 19.5273 13.5511 19.7031 13.3284 19.7383C13.0705 19.7851 12.848 19.668 12.7425 19.4453L12.4026 18.8125C12.2503 18.8125 12.1097 18.8242 11.9573 18.8242ZM6.57837 12.039C6.57837 13.8086 7.37524 15.3554 8.64087 16.3398L10.5159 13.293C10.1761 12.918 10.012 12.4961 10.012 12.0508C10.012 11.5937 10.1761 11.1719 10.5159 10.7969L8.68774 7.66793C7.39868 8.66402 6.57837 10.2344 6.57837 12.039ZM11.9573 6.57809C11.1604 6.57809 10.4103 6.74215 9.73071 7.04684L11.5472 10.1523C11.7112 10.1172 11.8401 10.1054 11.9339 10.1054C12.7659 10.1054 13.4339 10.5859 13.7854 11.4297H17.3011C17.0198 8.66402 14.7815 6.57809 11.9573 6.57809ZM11.9573 17.4765C14.7815 17.4765 17.0198 15.3906 17.3011 12.6367H13.7854C13.4339 13.5039 12.7659 13.9961 11.9339 13.9961C11.8519 13.9961 11.7112 13.9844 11.5472 13.9492L9.68384 16.9961C10.3753 17.3008 11.137 17.4765 11.9573 17.4765ZM11.2659 12.039C11.2659 12.414 11.5823 12.7304 11.9455 12.7304C12.344 12.7304 12.6604 12.414 12.6604 12.039C12.6604 11.6758 12.344 11.3945 11.9455 11.3945C11.5823 11.3945 11.2659 11.6875 11.2659 12.039Z" fill="white"/>
</g>
<defs>
<clipPath id="clip0_2207_9858">
<rect width="23.9062" height="23.918" fill="white" transform="translate(0.00415039 0.0742188)"/>
</clipPath>
</defs>
</svg>
