<svg width="29" height="24" viewBox="0 0 29 24" fill="none" xmlns="http://www.w3.org/2000/svg">
<g clip-path="url(#clip0_2207_24557)">
<path d="M0.248651 12.0625C-0.20838 12.707 0.00255775 13.2812 0.846307 13.2812H2.4635C3.09631 19.2461 8.24084 23.9804 14.3463 23.9804C17.9205 23.9804 21.1549 22.3515 23.358 19.8203C23.7916 19.3164 23.733 18.6836 23.276 18.3554C22.819 18.0273 22.2565 18.1445 21.8815 18.5781C20.0651 20.6758 17.3697 21.9883 14.3463 21.9883C9.23693 21.9883 5.07678 18.2031 4.47912 13.2812H6.22522C7.05725 13.2812 7.26819 12.707 6.82287 12.0742L4.19787 8.33594C3.82287 7.79688 3.26037 7.78516 2.87366 8.33594L0.248651 12.0625ZM5.34631 4.23438C4.901 4.73828 4.95959 5.35938 5.42834 5.6875C5.88537 6.01563 6.43616 5.91016 6.82287 5.47656C8.651 3.39063 11.3463 2.06641 14.3463 2.06641C19.444 2.06641 23.6041 5.85156 24.2135 10.7851H22.4674C21.6354 10.7851 21.4244 11.3476 21.8697 11.9922L24.4947 15.7304C24.8697 16.2695 25.4322 16.2812 25.819 15.7304L28.4322 12.0039C28.901 11.3476 28.6783 10.7851 27.8346 10.7851H26.2291C25.5846 4.82031 20.4518 0.0742188 14.3463 0.0742188C10.7721 0.0742188 7.54944 1.69141 5.34631 4.23438Z" fill="black" fill-opacity="0.85"/>
<path d="M13.8541 17.8633H14.8268C15.1666 17.8633 15.4479 17.6523 15.5182 17.289L15.7877 16.1875C15.9518 16.1406 16.1276 16.0586 16.2916 15.9765L17.2526 16.5742C17.5572 16.7617 17.8737 16.7617 18.1432 16.4804L18.8112 15.8125C19.0455 15.5664 19.0807 15.2383 18.8815 14.9101L18.3072 13.9375C18.401 13.7851 18.4362 13.6328 18.4947 13.4922L19.608 13.2226C19.9596 13.1289 20.1822 12.8711 20.1822 12.5078V11.5469C20.1822 11.207 19.9479 10.9609 19.608 10.8789L18.5182 10.6094C18.4362 10.4101 18.3776 10.2812 18.319 10.1406L18.9283 9.1328C19.1041 8.85155 19.069 8.48828 18.8346 8.26562L18.1432 7.59765C17.8971 7.33983 17.5572 7.29296 17.276 7.46874L16.2916 8.08984C16.1041 7.98438 15.9518 7.94922 15.7877 7.89062L15.5182 6.76562C15.4479 6.42577 15.1666 6.20312 14.8268 6.20312H13.8541C13.5026 6.20312 13.2213 6.43749 13.151 6.76562L12.8932 7.8789C12.7057 7.94921 12.5416 7.98438 12.3776 8.08984L11.3932 7.46874C11.1354 7.30468 10.7721 7.33983 10.526 7.59765L9.86975 8.26562C9.62366 8.49999 9.56506 8.85155 9.74084 9.1328L10.3619 10.1406C10.3033 10.2812 10.233 10.4336 10.1744 10.6094L9.06116 10.8789C8.72131 10.9609 8.49866 11.2187 8.49866 11.5469V12.5078C8.49866 12.8711 8.72131 13.1289 9.06116 13.2226L10.1744 13.4922C10.2447 13.6328 10.3033 13.7851 10.3737 13.9375L9.79944 14.9219C9.61194 15.2383 9.63537 15.5781 9.86975 15.8125L10.526 16.4804C10.7721 16.7617 11.1119 16.7617 11.4166 16.5742L12.401 15.9765C12.5885 16.082 12.7526 16.1406 12.8932 16.1875L13.151 17.289C13.2213 17.6289 13.5026 17.8633 13.8541 17.8633ZM14.3463 13.9023C13.2916 13.9023 12.4713 13.0703 12.4713 12.039C12.4713 11.0078 13.2916 10.1523 14.3463 10.1406C15.3658 10.1289 16.2213 11.0078 16.2213 12.039C16.2213 13.0703 15.3658 13.9023 14.3463 13.9023Z" fill="black" fill-opacity="0.85"/>
</g>
<defs>
<clipPath id="clip0_2207_24557">
<rect width="28.6607" height="23.918" fill="white" transform="translate(0.0126953 0.0742188)"/>
</clipPath>
</defs>
</svg>
