<svg width="24" height="24" viewBox="0 0 24 24" fill="none" xmlns="http://www.w3.org/2000/svg">
<g clip-path="url(#clip0_2207_21822)">
<path d="M11.9782 23.9804C18.5173 23.9804 23.9313 18.5547 23.9313 12.0273C23.9313 5.48828 18.5056 0.0742188 11.9665 0.0742188C5.43921 0.0742188 0.0251465 5.48828 0.0251465 12.0273C0.0251465 18.5547 5.45093 23.9804 11.9782 23.9804ZM11.9782 21.9883C6.44703 21.9883 2.02906 17.5586 2.02906 12.0273C2.02906 6.4961 6.43531 2.06641 11.9665 2.06641C17.4978 2.06641 21.9392 6.4961 21.9392 12.0273C21.9392 17.5586 17.5095 21.9883 11.9782 21.9883Z" fill="black" fill-opacity="0.85"/>
<path d="M7.18531 16.3515C7.18531 17.3242 7.75953 17.8398 8.73218 17.8398H11.4861V12.5781H7.18531V16.3515ZM12.4471 17.8398H15.201C16.1736 17.8398 16.7479 17.3242 16.7479 16.3515V12.5781H12.4471V17.8398ZM6.35327 11.0898C6.35327 11.7109 6.70484 11.957 7.33765 11.957H11.4861V8.79297H10.5838C9.65796 8.79297 9.1189 8.23047 9.1189 7.57422C9.1189 6.94141 9.58765 6.55469 10.2322 6.55469C10.9354 6.55469 11.4861 7.08203 11.4861 7.96094V8.79297H12.4471V7.96094C12.4471 7.08203 12.9979 6.55469 13.7127 6.55469C14.3572 6.55469 14.8143 6.94141 14.8143 7.57422C14.8143 8.23047 14.2752 8.79297 13.3494 8.79297H12.4471V11.957H16.6072C17.24 11.957 17.5799 11.7109 17.5799 11.0898V9.67188C17.5799 9.05078 17.24 8.79297 16.6072 8.79297H15.2361C15.5877 8.48828 15.7752 8.03125 15.7752 7.52734C15.7752 6.39063 14.8846 5.58203 13.7713 5.58203C12.951 5.58203 12.2713 6.02734 11.9666 6.83594C11.6619 6.02734 10.994 5.58203 10.1736 5.58203C9.04859 5.58203 8.15796 6.39063 8.15796 7.52734C8.15796 8.03125 8.35718 8.48828 8.69703 8.79297H7.33765C6.72827 8.79297 6.35327 9.05078 6.35327 9.67188V11.0898Z" fill="black" fill-opacity="0.85"/>
</g>
<defs>
<clipPath id="clip0_2207_21822">
<rect width="23.9062" height="23.918" fill="white" transform="translate(0.0251465 0.0742188)"/>
</clipPath>
</defs>
</svg>
