<svg width="28" height="21" viewBox="0 0 28 21" fill="none" xmlns="http://www.w3.org/2000/svg">
<g clip-path="url(#clip0_2207_10160)">
<path d="M0.0335693 9.94141H8.78748C7.21716 9.23828 6.12732 7.9375 6.12732 6.36719C6.12732 4.55078 7.47498 3.20313 9.26795 3.20313C10.8383 3.20313 12.2328 4.17578 13.0414 5.76953V0.0859375H14.5766V5.76953C15.3969 4.17578 16.7914 3.20313 18.35 3.20313C20.1547 3.20313 21.4906 4.55078 21.4906 6.36719C21.4906 7.9375 20.4125 9.23828 18.8305 9.94141H27.5727V11.3359H15.7953C16.5102 12.8242 18.9008 15.0742 20.6234 15.25C21.2797 15.3086 21.643 15.707 21.643 16.3281C21.643 16.8789 21.1977 17.3945 20.4828 17.3008C18.5609 17.0195 15.4789 14.7578 14.6703 12.2031H14.5766V20.1015H13.0414V12.2031H12.9594C12.1508 14.7578 9.06873 17.0195 7.14685 17.3008C6.43201 17.3945 5.98669 16.8789 5.98669 16.3281C5.98669 15.707 6.34998 15.3203 6.99451 15.25C8.72888 15.0508 11.1078 12.8242 11.8344 11.3359H0.0335693V9.94141ZM12.4438 9.75391H12.8188V9.40234C12.8188 7.04688 11.2133 4.9961 9.36169 4.9961C8.47107 4.9961 7.89685 5.57031 7.89685 6.50781C7.89685 8.07813 9.99451 9.75391 12.4438 9.75391ZM15.1742 9.75391C17.6352 9.75391 19.7211 8.07813 19.7211 6.50781C19.7211 5.57031 19.1586 4.9961 18.2563 4.9961C16.4047 4.9961 14.7992 7.04688 14.7992 9.40234V9.75391H15.1742ZM3.71326 20.1015H23.893C26.3539 20.1015 27.5727 18.8945 27.5727 16.4804V3.71875C27.5727 1.30469 26.3539 0.0859375 23.893 0.0859375H3.71326C1.26404 0.0859375 0.0335693 1.30469 0.0335693 3.71875V16.4804C0.0335693 18.8945 1.26404 20.1015 3.71326 20.1015Z" fill="black" fill-opacity="0.85"/>
</g>
<defs>
<clipPath id="clip0_2207_10160">
<rect width="27.5391" height="20.0273" fill="white" transform="translate(0.0335693 0.0742188)"/>
</clipPath>
</defs>
</svg>
