<svg width="24" height="24" viewBox="0 0 24 24" fill="none" xmlns="http://www.w3.org/2000/svg">
<g clip-path="url(#clip0_2207_3829)">
<path d="M2.7373 17.1953L4.0498 14.6875C4.37793 14.0664 4.72949 13.668 5.10449 13.668C5.46777 13.668 5.85449 14.043 6.41699 14.7695C7.49511 16.164 8.2334 16.8789 8.9834 16.8789C9.70996 16.8789 10.5537 15.8476 10.5537 15.1445C10.5537 14.6289 9.85058 14.1484 9.85058 13.8906C9.85058 13.7734 9.95605 13.7031 10.1553 13.7031C11.8662 13.7031 13.3545 12.2969 13.3545 11.1601C13.3545 10.0937 12.1943 9.28516 12.1943 8.92188C12.1943 8.85156 12.2529 8.79297 12.3232 8.79297C12.4287 8.79297 12.5693 8.91016 12.8389 9.1211C14.1514 10.164 14.8076 9.57813 14.9248 8.92188C14.9717 8.66406 15.1123 8.40625 15.7568 8.07813C16.9756 7.44531 18.2178 6.34375 18.2178 5.42969C18.2178 4.2461 16.624 3.74219 16.624 3.46094C16.624 3.28516 17.0108 3.1211 17.749 2.91016L17.4561 1.76172C16.2256 2.07813 15.2998 2.67578 15.2998 3.39063C15.2998 4.32813 17.0342 4.86719 17.0342 5.42969C17.0342 5.96875 16.0381 6.57813 15.2998 6.97656C14.0459 7.69141 14.1397 8.01953 13.9756 8.38281C13.6826 8.91016 13.1084 7.82031 12.1358 7.82031C11.5498 7.82031 11.1045 8.19531 11.1045 8.78125C11.1045 9.6836 12.1709 10.5273 12.1709 11.1601C12.1709 11.9101 11.3037 12.6367 9.81543 12.6367C8.99511 12.6367 8.5498 13 8.5498 13.6328C8.5498 14.2539 9.32324 14.8398 9.32324 15.1445C9.32324 15.3672 9.14746 15.5898 9.00683 15.5898C8.76074 15.5898 8.22168 15.1445 7.35449 14.043C6.59277 13.0469 5.88965 12.4844 5.1748 12.4844C4.16699 12.4844 3.53418 13.3164 3.1709 13.9844L2.02246 16.0937L2.7373 17.1953ZM17.21 22.0234L18.1592 21.2969C17.6318 20.5937 16.9639 19.5742 15.5693 19.5742C14.7139 19.5742 14.5381 19.8554 13.9522 19.8554C13.6006 19.8554 13.4131 19.5508 13.2608 18.9062C13.1201 18.3437 13.0615 17.9336 13.4248 17.7812C13.8467 17.6172 15.2647 17.4531 15.7451 15.9531C16.085 14.9336 16.4014 14.5351 16.9639 14.5351C17.9717 14.5351 17.8076 15.6015 19.0147 15.6015C19.542 15.6015 19.8232 15.3789 20.1982 15.3789C20.7139 15.3789 21.0654 15.8828 21.1592 17.1133L22.3428 16.6445C22.1436 15.0976 21.4053 14.1953 20.3623 14.1953C20.0928 14.1953 19.7412 14.2422 19.4248 14.3476C19.0381 14.4765 18.9795 14.4531 18.6748 14.1015C18.1943 13.5508 17.7725 13.3515 17.1045 13.3515C15.9209 13.3515 15.1592 13.9258 14.5967 15.6133C14.4561 16.0703 14.2568 16.2226 13.4482 16.5273L12.9561 16.7031C12.0303 17.0547 11.7608 17.7344 12.0889 19.164C12.3818 20.418 12.9912 21.0508 13.8467 21.0508C14.6084 21.0508 15.0654 20.7812 15.5693 20.7812C16.3076 20.7578 16.6592 21.25 17.21 22.0234ZM14.8193 11.3125C15.5811 11.3125 15.9209 10.6328 16.7764 10.375C17.3389 10.2109 17.6436 9.63672 17.6436 9.14453C17.6436 8.7461 17.4443 8.40625 17.0108 8.40625C16.5537 8.40625 16.1318 8.75781 15.8506 9.35547C15.6982 9.69531 15.4404 9.85938 14.8193 10.0352C14.3272 10.1875 14.1514 10.3633 14.1514 10.7383C14.1514 11.1367 14.4678 11.3125 14.8193 11.3125ZM11.4209 16.7265C12.0889 16.7265 12.7451 15.9531 12.7451 15.2617C12.7451 14.4062 12.3936 14.0078 11.9834 14.0078C11.5381 14.0078 11.2568 14.5351 11.2568 15.332C11.2568 15.789 10.8584 15.8008 10.8584 16.2578C10.8584 16.539 11.0811 16.7265 11.4209 16.7265ZM9.37011 18.8711C9.88574 18.8711 10.2022 18.6015 10.2022 18.1797C10.2022 17.8515 9.95605 17.6406 9.60449 17.6406C8.18652 17.6406 8.12793 16.8437 7.44824 16.8437C7.07324 16.8437 6.81543 17.0664 6.81543 17.3945C6.81543 17.6523 7.07324 17.8515 7.4248 17.8515C8.1748 17.8515 7.82324 18.8711 9.37011 18.8711ZM11.9951 23.9804C18.5342 23.9804 23.9482 18.5547 23.9482 12.0273C23.9482 5.48828 18.5225 0.0742188 11.9834 0.0742188C5.45605 0.0742188 0.0419922 5.48828 0.0419922 12.0273C0.0419922 18.5547 5.46777 23.9804 11.9951 23.9804ZM11.9951 22.3867C6.33496 22.3867 1.63574 17.6875 1.63574 12.0273C1.63574 6.36719 6.32324 1.66797 11.9834 1.66797C17.6436 1.66797 22.3545 6.36719 22.3545 12.0273C22.3545 17.6875 17.6553 22.3867 11.9951 22.3867Z" fill="black" fill-opacity="0.85"/>
</g>
<defs>
<clipPath id="clip0_2207_3829">
<rect width="23.9062" height="23.918" fill="white" transform="translate(0.0419922 0.0742188)"/>
</clipPath>
</defs>
</svg>
