<svg width="24" height="24" viewBox="0 0 24 24" fill="none" xmlns="http://www.w3.org/2000/svg">
<g clip-path="url(#clip0_2207_3821)">
<path d="M12.5019 21.039C14.7285 21.039 16.6035 17.6406 17.0839 16.8437C17.6933 15.8476 17.4121 14.8515 17.4121 14.2656C17.4121 13.9023 18.6543 13 18.6543 11.9336C18.6543 10.8554 16.2519 9.96484 16.2519 9.53125C16.2519 9.25 16.4863 8.91016 16.7207 8.91016C17.1777 8.91016 18.4433 10.539 19.2168 10.539C19.6855 10.539 19.8261 10.1289 20.0136 10.1289C20.33 10.1289 20.5761 13.6094 22.1933 14.3242L22.6855 13.2461C21.1972 12.8594 21.748 8.85156 20.1425 8.85156C19.6269 8.85156 19.3105 9.3086 19.1113 9.3086C18.9824 9.3086 18.6777 9.05078 17.9863 8.48828C17.6464 8.21875 17.2949 7.85547 16.6621 7.85547C15.8886 7.85547 15.1386 8.73438 15.1386 9.54297C15.1386 10.8203 17.4707 11.4883 17.4707 11.9336C17.4707 12.2031 17.3652 12.414 16.9316 12.9062C16.4511 13.4453 16.2285 13.8086 16.2285 14.2656C16.2285 14.4648 16.2519 14.6523 16.2636 14.8281C16.3222 15.6133 16.2871 15.9062 16.0644 16.2812C15.5254 17.1133 13.9902 19.8554 12.5019 19.8554C11.1777 19.8554 11.2949 17.957 11.2949 16.1992C11.2949 14.4883 9.93555 13.1992 8.13086 13.1992C6.73633 13.1992 6.06836 12.5195 6.06836 11.207C6.06836 9.37891 7.99023 8.1836 9.81836 8.1836C11.0488 8.1836 12.0214 8.80469 12.9824 8.80469C13.7675 8.80469 14.3183 7.63281 14.3183 6.76563C14.3183 5.67578 12.0097 4.46875 11.3066 4.46875C10.7324 4.46875 10.4863 4.8086 10.4394 5.54688L10.6738 5.52344L10.2988 5.23047C9.80664 4.86719 9.41992 4.65625 8.97461 4.65625C7.84961 4.65625 7.80273 6.16797 7.20508 6.16797C7.05273 6.16797 6.94726 6.0625 6.94726 5.89844C6.94726 5.38281 8.20117 4.32813 8.21289 2.875L8.22461 1.92578H7.11133V2.98047C7.11133 4.38672 5.85742 4.90234 5.85742 6.01563C5.85742 6.69531 6.33789 7.14063 7.07617 7.14063C8.4707 7.14063 8.49414 5.66406 9.05664 5.66406C9.50195 5.67578 10.0176 6.44922 10.9082 6.44922C11.4472 6.44922 11.705 6.07422 11.6816 5.41797L11.3535 5.52344C12.0683 5.78125 13.205 6.34375 13.205 6.8711C13.205 7.17578 13.0761 7.6211 12.83 7.6211C12.3261 7.6211 11.0019 7 9.81836 7C7.3457 7 4.88476 8.72266 4.88476 11.207C4.88476 13.1875 6.05664 14.3828 8.13086 14.3828C9.26758 14.3828 10.1113 15.1445 10.1113 16.1992C10.1113 17.9336 9.91211 21.039 12.5019 21.039ZM15.666 4.89063C15.9238 4.89063 16.1582 5.13672 16.5918 5.13672C16.8613 5.13672 17.0605 4.89063 17.0605 4.57422C17.0605 4 16.416 3.56641 15.5722 3.56641C14.5761 3.56641 14.0019 3.89453 14.0019 4.46875C14.0019 4.84375 14.2832 5.11328 14.6582 5.11328C15.0449 5.11328 15.2207 4.89063 15.666 4.89063ZM12.0097 23.9804C18.5488 23.9804 23.9628 18.5547 23.9628 12.0273C23.9628 5.48828 18.5371 0.0742188 11.998 0.0742188C5.4707 0.0742188 0.0566406 5.48828 0.0566406 12.0273C0.0566406 18.5547 5.48242 23.9804 12.0097 23.9804ZM12.0097 22.3867C6.34961 22.3867 1.65039 17.6875 1.65039 12.0273C1.65039 6.36719 6.33789 1.66797 11.998 1.66797C17.6582 1.66797 22.3691 6.36719 22.3691 12.0273C22.3691 17.6875 17.6699 22.3867 12.0097 22.3867Z" fill="black" fill-opacity="0.85"/>
</g>
<defs>
<clipPath id="clip0_2207_3821">
<rect width="23.9062" height="23.918" fill="white" transform="translate(0.0566406 0.0742188)"/>
</clipPath>
</defs>
</svg>
