<svg width="24" height="29" viewBox="0 0 24 29" fill="none" xmlns="http://www.w3.org/2000/svg">
<g clip-path="url(#clip0_2207_5665)">
<path d="M0.0776367 14.2996C0.0776367 20.8387 5.50342 26.2527 12.0307 26.2527C18.5698 26.2527 23.9838 20.8387 23.9838 14.2996C23.9838 8.53401 19.7768 3.64729 14.2924 2.56917V0.905105C14.2924 0.0730735 13.7182 -0.149582 13.0854 0.307449L9.34717 2.92073C8.80811 3.29573 8.79639 3.85823 9.34717 4.24495L13.0737 6.86995C13.7182 7.3387 14.2924 7.11604 14.2924 6.27229V4.60823C18.7221 5.61604 21.9799 9.55354 21.9799 14.2996C21.9799 19.8309 17.562 24.2606 12.0307 24.2606C6.49952 24.2606 2.05811 19.8309 2.06983 14.2996C2.08155 10.9715 3.69873 8.03011 6.19483 6.24886C6.6753 5.88557 6.82764 5.33479 6.53467 4.84261C6.2417 4.36214 5.59717 4.23323 5.08155 4.63167C2.06983 6.82307 0.0776367 10.3621 0.0776367 14.2996Z" fill="black" fill-opacity="0.85"/>
<path d="M7.19091 19.116C7.56591 19.116 7.76513 18.9402 7.91747 18.5887L10.7885 11.8856C10.9174 11.5809 11.0229 11.2762 11.0229 10.9481C11.0229 10.3621 10.6128 10.0809 10.1206 10.0809H6.10107C5.70263 10.0809 5.44482 10.3504 5.44482 10.7371C5.44482 11.1238 5.70263 11.3816 6.10107 11.3816H9.40575V11.452L6.56982 17.827C6.48779 18.0379 6.42919 18.2137 6.42919 18.4363C6.42919 18.8465 6.7456 19.116 7.19091 19.116ZM15.1948 19.2098C17.0229 19.2098 18.1596 17.8504 18.1596 16.0223C18.1596 14.452 17.269 13.1043 15.7221 13.1043C14.937 13.1043 14.2924 13.4559 13.9643 14.0652H13.9174L14.1284 11.3934H17.1167C17.5034 11.3934 17.7612 11.1356 17.7612 10.7371C17.7612 10.3387 17.5151 10.0809 17.1167 10.0809H13.7182C13.1088 10.0809 12.8276 10.3973 12.7807 11.0184L12.5346 14.4285C12.4878 14.9441 12.769 15.3309 13.2846 15.3309C13.6596 15.3309 13.8237 15.1902 14.0581 14.909C14.3393 14.534 14.7378 14.2996 15.2182 14.2996C16.1206 14.2996 16.601 15.1316 16.601 16.0574C16.601 17.0652 16.0854 17.8856 15.1948 17.8856C14.4917 17.8856 14.0229 17.4402 13.8003 16.8309C13.6362 16.5027 13.4018 16.3387 13.0971 16.3387C12.6753 16.3387 12.4174 16.5965 12.4174 17.0184C12.4174 17.1473 12.4409 17.2879 12.476 17.4285C12.769 18.5418 14.0698 19.2098 15.1948 19.2098Z" fill="black" fill-opacity="0.85"/>
</g>
<defs>
<clipPath id="clip0_2207_5665">
<rect width="23.9062" height="28.4626" fill="white" transform="translate(0.0776367 0.0742188)"/>
</clipPath>
</defs>
</svg>
