<svg width="24" height="29" viewBox="0 0 24 29" fill="none" xmlns="http://www.w3.org/2000/svg">
<g clip-path="url(#clip0_2207_5615)">
<path d="M0.0651855 14.2996C0.0651855 20.8387 5.49097 26.2527 12.0183 26.2527C18.5574 26.2527 23.9714 20.8387 23.9714 14.2996C23.9714 8.53401 19.7644 3.64729 14.28 2.56917V0.905105C14.28 0.0730735 13.7058 -0.149582 13.073 0.307449L9.33472 2.92073C8.79566 3.29573 8.78394 3.85823 9.33472 4.24495L13.0613 6.86995C13.7058 7.3387 14.28 7.11604 14.28 6.27229V4.60823C18.7097 5.61604 21.9675 9.55354 21.9675 14.2996C21.9675 19.8309 17.5496 24.2606 12.0183 24.2606C6.48707 24.2606 2.04566 19.8309 2.05738 14.2996C2.0691 10.9715 3.68628 8.03011 6.18238 6.24886C6.66285 5.88557 6.81519 5.33479 6.52222 4.84261C6.22925 4.36214 5.58472 4.23323 5.0691 4.63167C2.05738 6.82307 0.0651855 10.3621 0.0651855 14.2996Z" fill="black" fill-opacity="0.85"/>
<path d="M8.948 19.1161C9.46363 19.1161 9.76831 18.7528 9.76831 18.2489V10.8427C9.76831 10.2685 9.40503 9.92859 8.83081 9.92859C8.36207 9.92859 8.02222 10.1396 7.65894 10.4208L6.33472 11.4052C6.10035 11.5692 5.95972 11.7685 5.95972 12.0497C5.95972 12.3896 6.20581 12.6474 6.53394 12.6474C6.70972 12.6474 6.81519 12.6005 6.95581 12.495L8.11597 11.6278H8.13941V18.2489C8.13941 18.7528 8.4441 19.1161 8.948 19.1161ZM14.866 19.1864C17.1746 19.1864 17.9832 16.8192 17.9832 14.5107C17.9832 12.2021 17.1746 9.84656 14.866 9.84656C12.5457 9.84656 11.7488 12.2138 11.7488 14.5107C11.7488 16.831 12.5691 19.1864 14.866 19.1864ZM14.866 17.8622C13.8933 17.8622 13.4011 16.4208 13.4011 14.5107C13.4011 12.6122 13.8933 11.1825 14.866 11.1825C15.8504 11.1825 16.3308 12.6239 16.3308 14.5107C16.3308 16.4208 15.8504 17.8622 14.866 17.8622Z" fill="black" fill-opacity="0.85"/>
</g>
<defs>
<clipPath id="clip0_2207_5615">
<rect width="23.9062" height="28.4626" fill="white" transform="translate(0.0651855 0.0742188)"/>
</clipPath>
</defs>
</svg>
