<svg width="24" height="29" viewBox="0 0 24 29" fill="none" xmlns="http://www.w3.org/2000/svg">
<g clip-path="url(#clip0_2207_5685)">
<path d="M0.0820312 14.2996C0.0820312 20.8387 5.50781 26.2527 12.0351 26.2527C18.5742 26.2527 23.9882 20.8387 23.9882 14.2996C23.9882 8.53401 19.7812 3.64729 14.2968 2.56917V0.905105C14.2968 0.0730735 13.7226 -0.149582 13.0898 0.307449L9.35156 2.92073C8.8125 3.29573 8.80078 3.85823 9.35156 4.24495L13.0781 6.86995C13.7226 7.3387 14.2968 7.11604 14.2968 6.27229V4.60823C18.7265 5.61604 21.9843 9.55354 21.9843 14.2996C21.9843 19.8309 17.5664 24.2606 12.0351 24.2606C6.50391 24.2606 2.0625 19.8309 2.07422 14.2996C2.08594 10.9715 3.70312 8.03011 6.19922 6.24886C6.67969 5.88557 6.83203 5.33479 6.53906 4.84261C6.24609 4.36214 5.60156 4.23323 5.08594 4.63167C2.07422 6.82307 0.0820312 10.3621 0.0820312 14.2996Z" fill="black" fill-opacity="0.85"/>
<path d="M7.5 15.2957H16.6992C17.3554 15.2957 17.8008 14.9441 17.8008 14.3231C17.8008 13.6902 17.3789 13.327 16.6992 13.327H7.5C6.82031 13.327 6.38672 13.6902 6.38672 14.3231C6.38672 14.9441 6.84375 15.2957 7.5 15.2957Z" fill="black" fill-opacity="0.85"/>
</g>
<defs>
<clipPath id="clip0_2207_5685">
<rect width="23.9062" height="28.4626" fill="white" transform="translate(0.0820312 0.0742188)"/>
</clipPath>
</defs>
</svg>
