<svg width="24" height="29" viewBox="0 0 24 29" fill="none" xmlns="http://www.w3.org/2000/svg">
<g clip-path="url(#clip0_2207_5605)">
<path d="M0.0734863 14.2996C0.0734863 20.8387 5.49927 26.2527 12.0266 26.2527C18.5657 26.2527 23.9797 20.8387 23.9797 14.2996C23.9797 8.53401 19.7727 3.64729 14.2883 2.56917V0.905105C14.2883 0.0730735 13.7141 -0.149582 13.0813 0.307449L9.34302 2.92073C8.80396 3.29573 8.79224 3.85823 9.34302 4.24495L13.0696 6.86995C13.7141 7.3387 14.2883 7.11604 14.2883 6.27229V4.60823C18.718 5.61604 21.9758 9.55354 21.9758 14.2996C21.9758 19.8309 17.5579 24.2606 12.0266 24.2606C6.49537 24.2606 2.05396 19.8309 2.06568 14.2996C2.0774 10.9715 3.69458 8.03011 6.19068 6.24886C6.67115 5.88557 6.82349 5.33479 6.53052 4.84261C6.23755 4.36214 5.59302 4.23323 5.0774 4.63167C2.06568 6.82307 0.0734863 10.3621 0.0734863 14.2996Z" fill="black" fill-opacity="0.85"/>
<path d="M12.1204 19.2098C13.9485 19.2098 15.0852 17.8504 15.0852 16.0223C15.0852 14.452 14.1946 13.1043 12.6477 13.1043C11.8743 13.1043 11.218 13.4676 10.9016 14.0652H10.8547L11.054 11.3934H14.0423C14.429 11.3934 14.6868 11.1356 14.6868 10.7371C14.6868 10.3387 14.4407 10.0809 14.0423 10.0809H10.6438C10.0344 10.0809 9.75318 10.409 9.7063 11.0184L9.46021 14.4402C9.42505 14.9559 9.69458 15.3426 10.2102 15.3426C10.5852 15.3426 10.7493 15.1902 10.9837 14.9207C11.2649 14.534 11.6633 14.2996 12.1321 14.2996C13.0579 14.2996 13.5149 15.1316 13.5149 16.0691C13.5149 17.0652 13.011 17.8973 12.1087 17.8973C11.4173 17.8973 10.9368 17.4402 10.7141 16.8309C10.5618 16.5027 10.3157 16.3387 10.011 16.3387C9.60083 16.3387 9.34302 16.5965 9.34302 17.0066C9.34302 17.1473 9.36646 17.2879 9.40161 17.4168C9.69458 18.5418 10.9837 19.2098 12.1204 19.2098Z" fill="black" fill-opacity="0.85"/>
</g>
<defs>
<clipPath id="clip0_2207_5605">
<rect width="23.9062" height="28.4626" fill="white" transform="translate(0.0734863 0.0742188)"/>
</clipPath>
</defs>
</svg>
