<svg width="24" height="29" viewBox="0 0 24 29" fill="none" xmlns="http://www.w3.org/2000/svg">
<g clip-path="url(#clip0_2207_5600)">
<path d="M0.0944824 14.2958C0.0944824 20.8349 5.52026 26.249 12.0476 26.249C18.5867 26.249 24.0007 20.8349 24.0007 14.2958C24.0007 10.3583 22.0086 6.81929 18.9968 4.62788C18.4812 4.22944 17.8367 4.35835 17.5437 4.83882C17.2507 5.331 17.4031 5.88179 17.8836 6.24507C20.3797 8.02632 21.9968 10.9677 22.0086 14.2958C22.0203 19.8271 17.5789 24.2568 12.0476 24.2568C6.51636 24.2568 2.09839 19.8271 2.09839 14.2958C2.09839 9.54975 5.3562 5.61225 9.78589 4.60444V6.28022C9.78589 7.11225 10.3601 7.33491 11.0047 6.87788L14.7429 4.25288C15.2703 3.8896 15.282 3.3271 14.7429 2.94038L11.0164 0.315379C10.3601 -0.153371 9.78589 0.0692844 9.78589 0.913034V2.56538C4.30151 3.6435 0.0944824 8.53022 0.0944824 14.2958Z" fill="black" fill-opacity="0.85"/>
<path d="M12.0828 19.206C13.9109 19.206 15.0476 17.8466 15.0476 16.0185C15.0476 14.4482 14.157 13.1005 12.6101 13.1005C11.8367 13.1005 11.1804 13.4638 10.864 14.0615H10.8172L11.0164 11.3896H14.0047C14.3914 11.3896 14.6492 11.1318 14.6492 10.7333C14.6492 10.3349 14.4031 10.0771 14.0047 10.0771H10.6062C9.99682 10.0771 9.71557 10.4052 9.6687 11.0146L9.4226 14.4365C9.38745 14.9521 9.65698 15.3388 10.1726 15.3388C10.5476 15.3388 10.7117 15.1865 10.9461 14.9169C11.2273 14.5302 11.6257 14.2958 12.0945 14.2958C13.0203 14.2958 13.4773 15.1279 13.4773 16.0654C13.4773 17.0615 12.9734 17.8935 12.0711 17.8935C11.3797 17.8935 10.8992 17.4365 10.6765 16.8271C10.5242 16.499 10.2898 16.3349 9.97339 16.3349C9.56323 16.3349 9.30542 16.5927 9.30542 17.0029C9.30542 17.1435 9.32886 17.2841 9.36401 17.413C9.65698 18.538 10.9461 19.206 12.0828 19.206Z" fill="black" fill-opacity="0.85"/>
</g>
<defs>
<clipPath id="clip0_2207_5600">
<rect width="23.9062" height="28.455" fill="white" transform="translate(0.0944824 0.0742188)"/>
</clipPath>
</defs>
</svg>
