<svg width="24" height="29" viewBox="0 0 24 29" fill="none" xmlns="http://www.w3.org/2000/svg">
<g clip-path="url(#clip0_2207_5592)">
<path d="M0.0839844 14.2958C0.0839844 20.8349 5.50976 26.249 12.0371 26.249C18.5762 26.249 23.9902 20.8349 23.9902 14.2958C23.9902 10.3583 21.9981 6.81929 18.9863 4.62788C18.4707 4.22944 17.8262 4.35835 17.5332 4.83882C17.2402 5.331 17.3926 5.88179 17.8731 6.24507C20.3692 8.02632 21.9863 10.9677 21.9981 14.2958C22.0098 19.8271 17.5684 24.2568 12.0371 24.2568C6.50586 24.2568 2.08789 19.8271 2.08789 14.2958C2.08789 9.54975 5.3457 5.61225 9.77539 4.60444V6.28022C9.77539 7.11225 10.3496 7.33491 10.9942 6.87788L14.7324 4.25288C15.2598 3.8896 15.2715 3.3271 14.7324 2.94038L11.0059 0.315379C10.3496 -0.153371 9.77539 0.0692844 9.77539 0.913034V2.56538C4.29101 3.6435 0.0839844 8.53022 0.0839844 14.2958Z" fill="black" fill-opacity="0.85"/>
</g>
<defs>
<clipPath id="clip0_2207_5592">
<rect width="23.9062" height="28.455" fill="white" transform="translate(0.0839844 0.0742188)"/>
</clipPath>
</defs>
</svg>
