<svg width="24" height="29" viewBox="0 0 24 29" fill="none" xmlns="http://www.w3.org/2000/svg">
<g clip-path="url(#clip0_2207_5640)">
<path d="M0.0922852 14.2958C0.0922852 20.8349 5.51807 26.249 12.0454 26.249C18.5845 26.249 23.9985 20.8349 23.9985 14.2958C23.9985 10.3583 22.0064 6.81929 18.9946 4.62788C18.479 4.22944 17.8345 4.35835 17.5415 4.83882C17.2485 5.331 17.4009 5.88179 17.8814 6.24507C20.3775 8.02632 21.9946 10.9677 22.0064 14.2958C22.0181 19.8271 17.5767 24.2568 12.0454 24.2568C6.51417 24.2568 2.0962 19.8271 2.0962 14.2958C2.0962 9.54975 5.35401 5.61225 9.7837 4.60444V6.28022C9.7837 7.11225 10.3579 7.33491 11.0025 6.87788L14.7407 4.25288C15.2681 3.8896 15.2798 3.3271 14.7407 2.94038L11.0142 0.315379C10.3579 -0.153371 9.7837 0.0692844 9.7837 0.913034V2.56538C4.29932 3.6435 0.0922852 8.53022 0.0922852 14.2958Z" fill="black" fill-opacity="0.85"/>
<path d="M9.35009 19.1123C9.76025 19.1123 10.1235 18.878 10.1235 18.3155V17.2373H10.5923C11.0493 17.2373 11.2485 16.9444 11.2485 16.5928C11.2485 16.2061 11.0259 15.9366 10.5923 15.9366H10.1235V11.1319C10.1235 10.3584 9.6079 9.94824 8.84619 9.94824C8.08447 9.94824 7.69775 10.3584 7.34619 11.0381C6.65478 12.2451 5.63525 14.1201 5.09619 15.2334C4.94384 15.5967 4.80322 15.9717 4.80322 16.3701C4.80322 16.8858 5.17822 17.2373 5.729 17.2373H8.58837V18.3155C8.58837 18.8662 8.95166 19.1123 9.35009 19.1123ZM8.61181 15.9834H6.19775V15.9014C6.83056 14.4834 7.80322 12.6787 8.56494 11.3194H8.61181V15.9834ZM15.479 19.2061C17.3071 19.2061 18.4439 17.8467 18.4439 16.0186C18.4439 14.4483 17.5532 13.1006 16.0064 13.1006C15.2212 13.1006 14.5767 13.4522 14.2485 14.0616H14.2017L14.4126 11.3897H17.4009C17.7876 11.3897 18.0454 11.1319 18.0454 10.7334C18.0454 10.335 17.7876 10.0772 17.4009 10.0772H13.9907C13.3814 10.0772 13.1001 10.3936 13.065 11.0147L12.8071 14.4248C12.772 14.9405 13.0415 15.3272 13.5571 15.3272C13.9439 15.3272 14.1079 15.1866 14.3423 14.9053C14.6235 14.5303 15.022 14.2959 15.4907 14.2959C16.4048 14.2959 16.8735 15.128 16.8735 16.0537C16.8735 17.0616 16.3696 17.8819 15.4673 17.8819C14.7759 17.8819 14.3071 17.4366 14.0728 16.8272C13.9087 16.4991 13.6743 16.335 13.3696 16.335C12.9595 16.335 12.7017 16.5928 12.7017 17.0147C12.7017 17.1436 12.7134 17.2842 12.7603 17.4248C13.0532 18.5381 14.3423 19.2061 15.479 19.2061Z" fill="black" fill-opacity="0.85"/>
</g>
<defs>
<clipPath id="clip0_2207_5640">
<rect width="23.9062" height="28.455" fill="white" transform="translate(0.0922852 0.0742188)"/>
</clipPath>
</defs>
</svg>
