<svg width="24" height="29" viewBox="0 0 24 29" fill="none" xmlns="http://www.w3.org/2000/svg">
<g clip-path="url(#clip0_2207_5620)">
<path d="M0.0881348 14.2958C0.0881348 20.8349 5.51392 26.249 12.0412 26.249C18.5803 26.249 23.9943 20.8349 23.9943 14.2958C23.9943 10.3583 22.0022 6.81929 18.9904 4.62788C18.4748 4.22944 17.8303 4.35835 17.5373 4.83882C17.2443 5.331 17.3967 5.88179 17.8772 6.24507C20.3733 8.02632 21.9904 10.9677 22.0022 14.2958C22.0139 19.8271 17.5725 24.2568 12.0412 24.2568C6.51002 24.2568 2.09204 19.8271 2.09204 14.2958C2.09204 9.54975 5.34985 5.61225 9.77954 4.60444V6.28022C9.77954 7.11225 10.3537 7.33491 10.9983 6.87788L14.7365 4.25288C15.2639 3.8896 15.2756 3.3271 14.7365 2.94038L11.01 0.315379C10.3537 -0.153371 9.77954 0.0692844 9.77954 0.913034V2.56538C4.29517 3.6435 0.0881348 8.53022 0.0881348 14.2958Z" fill="black" fill-opacity="0.85"/>
<path d="M8.91235 19.1123C9.42797 19.1123 9.73266 18.7491 9.73266 18.2451V10.8389C9.73266 10.2647 9.36938 9.9248 8.79516 9.9248C8.32641 9.9248 7.98657 10.1358 7.62329 10.417L6.29907 11.4014C6.06469 11.5655 5.92407 11.7647 5.92407 12.0459C5.92407 12.3858 6.17016 12.6436 6.49829 12.6436C6.67407 12.6436 6.79125 12.5967 6.92016 12.4912L8.08032 11.6241H8.10375V18.2451C8.10375 18.7491 8.40844 19.1123 8.91235 19.1123ZM14.6779 19.1826C16.5061 19.1826 17.6428 17.835 17.6428 16.0069C17.6428 14.4366 16.7639 13.0889 15.2053 13.0889C14.4319 13.0889 13.7756 13.4522 13.4592 14.0498H13.4123L13.6233 11.378H16.5998C16.9865 11.378 17.2443 11.1201 17.2443 10.7217C17.2443 10.3233 16.9983 10.0654 16.5998 10.0654H13.2014C12.592 10.0654 12.3108 10.3819 12.2756 11.003L12.0178 14.4131C11.9826 14.9405 12.2522 15.3272 12.7678 15.3272C13.1428 15.3272 13.3069 15.1748 13.5412 14.8936C13.8225 14.5186 14.2209 14.2842 14.6897 14.2842C15.6154 14.2842 16.0725 15.1162 16.0725 16.0537C16.0725 17.0498 15.5686 17.8819 14.6779 17.8819C13.9748 17.8819 13.5061 17.4248 13.2717 16.8155C13.1193 16.4873 12.885 16.3116 12.5686 16.3116C12.1584 16.3116 11.9006 16.5811 11.9006 16.9912C11.9006 17.1319 11.924 17.2725 11.9592 17.4014C12.2522 18.5264 13.5412 19.1826 14.6779 19.1826Z" fill="black" fill-opacity="0.85"/>
</g>
<defs>
<clipPath id="clip0_2207_5620">
<rect width="23.9062" height="28.455" fill="white" transform="translate(0.0881348 0.0742188)"/>
</clipPath>
</defs>
</svg>
