<svg width="25" height="29" viewBox="0 0 25 29" fill="none" xmlns="http://www.w3.org/2000/svg">
<g clip-path="url(#clip0_2207_5650)">
<path d="M0.0966797 14.2958C0.0966797 20.8349 5.52246 26.249 12.0498 26.249C18.5889 26.249 24.0029 20.8349 24.0029 14.2958C24.0029 10.3583 22.0108 6.81929 18.999 4.62788C18.4834 4.22944 17.8389 4.35835 17.5459 4.83882C17.2529 5.331 17.4053 5.88179 17.8858 6.24507C20.3819 8.02632 21.999 10.9677 22.0108 14.2958C22.0225 19.8271 17.5811 24.2568 12.0498 24.2568C6.51856 24.2568 2.10059 19.8271 2.10059 14.2958C2.10059 9.54975 5.3584 5.61225 9.78809 4.60444V6.28022C9.78809 7.11225 10.3623 7.33491 11.0069 6.87788L14.7451 4.25288C15.2725 3.8896 15.2842 3.3271 14.7451 2.94038L11.0186 0.315379C10.3623 -0.153371 9.78809 0.0692844 9.78809 0.913034V2.56538C4.30371 3.6435 0.0966797 8.53022 0.0966797 14.2958Z" fill="black" fill-opacity="0.85"/>
<path d="M8.49896 19.1944C10.2333 19.1944 11.4404 17.8936 11.4404 16.042C11.4404 14.4131 10.5028 13.1475 8.97943 13.1475C7.92474 13.1475 7.18646 13.7686 6.8935 14.6826H6.84662C6.84662 13.8741 6.90521 13.2647 7.03412 12.7608C7.23334 11.9405 7.65521 11.167 8.49896 11.167C9.0849 11.167 9.47162 11.4717 9.72943 11.9873C9.90521 12.2803 10.1161 12.4795 10.4677 12.4795C10.9599 12.4795 11.1474 12.1397 11.1474 11.8116C11.1474 11.5889 11.1005 11.3897 11.0068 11.2022C10.6318 10.3936 9.65912 9.85449 8.5224 9.85449C6.29584 9.85449 5.47553 11.9405 5.38178 14.0616C5.28803 15.0342 5.38178 16.0889 5.65131 16.8975C6.09662 18.2334 7.04584 19.1944 8.49896 19.1944ZM8.47553 17.8819C7.5849 17.8819 7.081 16.9678 7.081 16.0655C7.081 15.1397 7.62006 14.3662 8.48724 14.3662C9.38959 14.3662 9.87006 15.1866 9.87006 16.1123C9.87006 17.0264 9.36615 17.8819 8.47553 17.8819ZM15.9052 19.1826C18.2255 19.1826 19.0224 16.8155 19.0224 14.5069C19.0224 12.1983 18.2138 9.84277 15.9052 9.84277C13.5966 9.84277 12.788 12.21 12.788 14.5069C12.788 16.8389 13.6083 19.1826 15.9052 19.1826ZM15.9052 17.8584C14.9325 17.8584 14.4404 16.417 14.4404 14.5069C14.4404 12.6084 14.9325 11.1787 15.9052 11.1787C16.8896 11.1787 17.3818 12.6084 17.3818 14.5069C17.3818 16.417 16.8896 17.8584 15.9052 17.8584Z" fill="black" fill-opacity="0.85"/>
</g>
<defs>
<clipPath id="clip0_2207_5650">
<rect width="23.9062" height="28.455" fill="white" transform="translate(0.0966797 0.0742188)"/>
</clipPath>
</defs>
</svg>
