<svg width="24" height="24" viewBox="0 0 24 24" fill="none" xmlns="http://www.w3.org/2000/svg">
<g clip-path="url(#clip0_2207_1690)">
<path d="M11.9614 23.9937C18.5005 23.9937 23.9145 18.5796 23.9145 12.0405C23.9145 5.51318 18.4888 0.0874023 11.9497 0.0874023C5.42236 0.0874023 0.00830078 5.51318 0.00830078 12.0405C0.00830078 18.5796 5.43408 23.9937 11.9614 23.9937Z" fill="black" fill-opacity="0.85"/>
<path d="M4.35596 9.95459C4.35596 9.68506 4.53174 9.38037 4.89502 9.2163L10.438 6.68506C11.0239 6.42724 11.481 6.29834 11.9497 6.31006C12.4185 6.29834 12.8872 6.42724 13.4614 6.68506L19.0161 9.2163C19.3794 9.38037 19.5435 9.68506 19.5435 9.95459C19.5435 10.2476 19.3794 10.5288 19.0161 10.6929L13.4614 13.2476C12.8872 13.5054 12.4185 13.6226 11.9497 13.6109C11.481 13.6226 11.0239 13.5054 10.438 13.2476L8.05908 12.146L11.4341 10.564C11.5981 10.6109 11.7856 10.6343 11.9731 10.6343C12.5942 10.6343 13.2036 10.353 13.2036 9.95459C13.2036 9.56787 12.5942 9.31006 11.9731 9.31006C11.3638 9.31006 10.731 9.56787 10.731 9.95459C10.731 10.0015 10.7427 10.0601 10.7661 10.0952L7.20361 11.7476L4.89502 10.6929C4.53174 10.5288 4.35596 10.2476 4.35596 9.95459ZM6.47705 14.2085V12.2984L7.22705 12.6499V15.8023C6.74658 15.2866 6.47705 14.7007 6.47705 14.2085ZM6.82861 18.7202V17.5015C6.82861 17.1734 6.98096 16.939 7.22705 16.8335V15.8023C7.46142 16.0366 7.71924 16.2476 8.03564 16.4234V16.8452C8.27002 16.9507 8.43408 17.1851 8.43408 17.5015V18.7202C8.43408 19.1655 8.14111 19.4468 7.6958 19.4468H7.55518C7.09814 19.4468 6.82861 19.1655 6.82861 18.7202ZM8.03564 16.4234V13.0132L10.1099 13.9741C10.7778 14.2788 11.3872 14.4312 11.9497 14.4195C12.5122 14.4312 13.1216 14.2788 13.7895 13.9741L17.4224 12.2984V14.2085C17.4224 15.896 15.3013 17.3257 11.9497 17.3257C10.3208 17.3257 8.97314 16.9976 8.03564 16.4234Z" fill="white"/>
</g>
<defs>
<clipPath id="clip0_2207_1690">
<rect width="23.9062" height="23.918" fill="white" transform="translate(0.00830078 0.0756836)"/>
</clipPath>
</defs>
</svg>
