<svg width="24" height="24" viewBox="0 0 24 24" fill="none" xmlns="http://www.w3.org/2000/svg">
<g clip-path="url(#clip0_2207_22977)">
<path d="M11.9677 23.9819C18.5068 23.9819 23.9208 18.5562 23.9208 12.0288C23.9208 5.48974 18.4951 0.0756836 11.956 0.0756836C5.42871 0.0756836 0.0146484 5.48974 0.0146484 12.0288C0.0146484 18.5562 5.44043 23.9819 11.9677 23.9819ZM11.9677 21.9898C6.43653 21.9898 2.01856 17.5601 2.01856 12.0288C2.01856 6.49756 6.42481 2.06787 11.956 2.06787C17.4873 2.06787 21.9287 6.49756 21.9287 12.0288C21.9287 17.5601 17.499 21.9898 11.9677 21.9898Z" fill="black" fill-opacity="0.85"/>
<path d="M8.9209 16.8218C9.15527 16.8218 9.31934 16.7749 9.4834 16.6929L16.4677 13.0601C16.9599 12.8023 17.1708 12.5093 17.1708 12.0288C17.1708 11.5835 16.9365 11.2554 16.4677 10.9976L9.4834 7.23585C9.30762 7.1421 9.15527 7.09521 8.89746 7.09521C8.3584 7.09521 7.94824 7.49366 7.94824 8.021C7.94824 8.4546 8.15918 8.73585 8.63965 8.97022L14.5693 11.9585V12.0288L8.63965 14.9468C8.14746 15.1812 7.94824 15.439 7.94824 15.8843C7.94824 16.4234 8.37012 16.8218 8.9209 16.8218Z" fill="black" fill-opacity="0.85"/>
</g>
<defs>
<clipPath id="clip0_2207_22977">
<rect width="23.9062" height="23.918" fill="white" transform="translate(0.0146484 0.0756836)"/>
</clipPath>
</defs>
</svg>
