<svg width="20" height="27" viewBox="0 0 20 27" fill="none" xmlns="http://www.w3.org/2000/svg">
<g clip-path="url(#clip0_2207_1595)">
<path d="M2.33178 23.9884L15.656 26.3439C18.0466 26.7658 19.4998 25.4299 19.4998 22.8283V8.33219C19.4998 5.94156 18.2693 5.07438 15.8904 4.6525L2.9646 2.37906C1.18335 2.06266 0.0231934 3.03531 0.0231934 4.78141V21.3283C0.0231934 22.8283 0.796631 23.7189 2.33178 23.9884ZM2.78881 22.1252C2.19116 22.0197 1.90991 21.6799 1.90991 21.0588V5.09781C1.90991 4.47672 2.33178 4.16031 3.02319 4.26578L15.7966 6.51578C16.9802 6.72672 17.613 7.21891 17.613 8.30875V22.6174C17.613 23.9533 16.8396 24.6213 15.574 24.3869L2.78881 22.1252ZM16.5701 6.10563H18.4568V3.36344C18.4568 0.890782 16.8044 -0.281093 14.0271 0.211095L1.781 2.36734L2.48413 4.00797L14.6951 1.98063C15.867 1.78141 16.5701 2.27359 16.5701 3.29313V6.10563ZM3.4685 9.72672C3.4685 10.7111 5.00366 10.7111 5.00366 9.78531V8.215C5.00366 7.89859 5.19116 7.75797 5.55444 7.81656L7.10131 8.09781C8.09741 8.27359 8.29663 6.77359 7.406 6.60953L4.89819 6.16422C4.00757 6.01188 3.4685 6.39859 3.4685 7.25406V9.72672ZM14.5193 11.6369C14.5193 12.6213 16.0544 12.715 16.0544 11.6369V9.67984C16.0544 8.59 15.5271 8.03922 14.2263 7.80484L13.0076 7.59391C11.9412 7.40641 11.6834 8.89469 12.7498 9.08219L13.7224 9.25797C14.4138 9.37516 14.5193 9.79703 14.5193 10.1486V11.6369ZM5.00366 17.1916C5.00366 16.2072 3.4685 16.1134 3.4685 17.1916V19.1486C3.4685 20.2384 3.99585 20.7892 5.29663 21.0236L6.51538 21.2345C7.58178 21.422 7.8396 19.922 6.77319 19.7463L5.80053 19.5705C5.10913 19.4533 5.00366 19.0314 5.00366 18.6799V17.1916ZM16.0544 19.1017C16.0544 18.1174 14.5193 18.1174 14.5193 19.0431V20.6134C14.5193 20.9299 14.3318 21.0705 13.9685 21.0119L12.4216 20.7306C11.4255 20.5549 11.2263 22.0549 12.117 22.2189L14.6248 22.6642C15.5154 22.8166 16.0544 22.4299 16.0544 21.5744V19.1017Z" fill="black" fill-opacity="0.85"/>
</g>
<defs>
<clipPath id="clip0_2207_1595">
<rect width="19.4766" height="26.345" fill="white" transform="translate(0.0231934 0.0756836)"/>
</clipPath>
</defs>
</svg>
