<svg width="24" height="24" viewBox="0 0 24 24" fill="none" xmlns="http://www.w3.org/2000/svg">
<g clip-path="url(#clip0_2207_25830)">
<path d="M11.9887 23.9819C18.5278 23.9819 23.9418 18.5562 23.9418 12.0288C23.9418 5.48974 18.5161 0.0756836 11.977 0.0756836C5.4497 0.0756836 0.0356445 5.48974 0.0356445 12.0288C0.0356445 18.5562 5.46142 23.9819 11.9887 23.9819ZM11.9887 21.9898C6.45752 21.9898 2.03955 17.5601 2.03955 12.0288C2.03955 6.49756 6.4458 2.06787 11.977 2.06787C17.5083 2.06787 21.9497 6.49756 21.9497 12.0288C21.9497 17.5601 17.52 21.9898 11.9887 21.9898Z" fill="black" fill-opacity="0.85"/>
<path d="M12.1528 19.0366C12.4809 19.0366 12.727 18.8023 12.727 18.4507V17.6655C15.1528 17.4663 16.477 15.7554 16.477 13.0952V12.5093C16.477 12.0054 16.1723 11.7124 15.7036 11.7124H12.727V7.8921C13.7583 8.05616 14.5786 8.75928 14.8364 9.68507C14.9887 10.1421 15.1879 10.3062 15.5981 10.3062C16.0317 10.3062 16.3129 10.0132 16.3129 9.59131C16.3129 9.38038 16.2661 9.2046 16.2075 9.0171C15.7036 7.61085 14.3794 6.62647 12.727 6.45069V5.68897C12.727 5.33741 12.4809 5.11475 12.1528 5.11475C11.8129 5.11475 11.5668 5.33741 11.5668 5.68897V6.47413C9.08252 6.77881 7.47705 8.88819 7.47705 12.0405C7.47705 15.2632 9.05908 17.3491 11.5668 17.6538V18.4507C11.5668 18.8023 11.8247 19.0366 12.1528 19.0366ZM11.5668 16.2007C10.0083 15.8726 9.04736 14.3257 9.04736 12.0405C9.04736 9.79053 10.0083 8.24366 11.5668 7.91553V16.2007ZM12.727 16.2476V13.0952H14.9653V13.353C14.9653 14.9351 14.1333 16.0366 12.727 16.2476Z" fill="black" fill-opacity="0.85"/>
</g>
<defs>
<clipPath id="clip0_2207_25830">
<rect width="23.9062" height="23.918" fill="white" transform="translate(0.0356445 0.0756836)"/>
</clipPath>
</defs>
</svg>
