<svg width="31" height="27" viewBox="0 0 31 27" fill="none" xmlns="http://www.w3.org/2000/svg">
<g clip-path="url(#clip0_2207_15201)">
<path d="M25.5136 25.5991C28.6894 25.5991 30.7167 24.0991 30.7167 21.7085C30.7167 19.3179 29.1464 18.7202 29.1464 17.6773C29.1464 16.8804 29.4862 16.1773 29.4862 15.2046C29.4862 13.6226 28.3612 12.6148 26.3925 12.3804V5.43115C26.3925 4.93896 26.4628 4.79834 26.744 4.61084C26.9784 4.45849 27.0604 4.32959 27.037 4.13037L26.8612 1.23584C26.8495 1.00146 26.6854 0.837402 26.4745 0.837402H24.5526C24.3417 0.837402 24.1776 1.00146 24.1659 1.23584L23.9901 4.13037C23.9667 4.32959 24.0487 4.45849 24.2831 4.61084C24.5644 4.79834 24.6229 4.93896 24.6229 5.43115V12.3804C22.6659 12.6148 21.5409 13.6226 21.5409 15.2046C21.5409 16.1773 21.8808 16.8804 21.8808 17.6773C21.8808 18.7202 20.3104 19.3179 20.3104 21.7085C20.3104 24.0991 22.3378 25.5991 25.5136 25.5991ZM25.5136 18.6382C24.7753 18.6382 24.2011 18.0523 24.2011 17.3374C24.2011 16.6109 24.787 16.0249 25.5136 16.0249C26.2401 16.0249 26.8144 16.6109 26.8144 17.3374C26.8144 18.0523 26.2401 18.6382 25.5136 18.6382ZM23.9667 21.9429C23.6737 21.9429 23.4276 21.7085 23.4276 21.4155C23.4276 21.1226 23.6854 20.8648 23.9667 20.8648H27.037C27.33 20.8648 27.5761 21.1109 27.5761 21.4155C27.5761 21.7085 27.33 21.9429 27.037 21.9429H23.9667Z" fill="black" fill-opacity="0.85"/>
<path d="M16.3262 26.3843C19.8301 26.3843 22.2559 24.228 22.2559 21.0171C22.2559 18.3101 20.8027 17.2788 20.8027 16.8569C20.8027 16.2241 21.5996 15.5562 21.5996 14.0327C21.5996 12.7905 20.7324 11.8765 19.5488 11.8765C18.8574 11.8765 18.3418 12.1812 17.9199 12.6265L17.9316 5.95849C18.2598 5.77099 18.4707 5.45459 18.5176 4.91552L18.752 2.51318C18.7754 2.0913 18.6113 1.65771 18.2715 1.35302L17.2637 0.48584C16.9824 0.239746 16.6426 0.122559 16.3262 0.122559C16.0098 0.122559 15.6699 0.239746 15.3887 0.48584L14.3809 1.35302C14.041 1.65771 13.877 2.0913 13.9004 2.51318L14.1348 4.91552C14.1816 5.45459 14.3926 5.77099 14.7207 5.95849L14.7324 12.6382C14.3105 12.1812 13.8066 11.8765 13.1035 11.8765C11.9199 11.8765 11.0527 12.7905 11.0527 14.0327C11.0527 15.5562 11.8496 16.2241 11.8496 16.8569C11.8496 17.2788 10.3965 18.3101 10.3965 21.0171C10.3965 24.228 12.8223 26.3843 16.3262 26.3843Z" fill="white"/>
<path d="M16.3261 25.6695C19.4667 25.6695 21.5409 23.8179 21.5409 21.0171C21.5409 18.6968 20.0878 17.6304 20.0878 16.8569C20.0878 15.9429 20.8847 15.2046 20.8847 14.0327C20.8847 13.189 20.3339 12.5913 19.5487 12.5913C18.8339 12.5913 18.412 13.0249 18.119 13.4468C17.8729 13.7749 17.6972 14.021 17.5331 14.021C17.2401 14.021 17.205 13.4702 17.205 13.0601L17.2167 5.86474C17.2167 5.51318 17.2284 5.4663 17.4394 5.39599C17.6972 5.31396 17.7675 5.17334 17.8026 4.84521L18.037 2.45459C18.0487 2.24365 17.9667 2.04443 17.7909 1.89209L16.7948 1.01318C16.6425 0.884277 16.4784 0.837402 16.3261 0.837402C16.1854 0.837402 16.0097 0.884277 15.8573 1.01318L14.8612 1.89209C14.6854 2.04443 14.6034 2.24365 14.6151 2.45459L14.8495 4.84521C14.8847 5.17334 14.955 5.31396 15.2128 5.39599C15.4237 5.4663 15.4354 5.51318 15.4354 5.86474L15.4472 13.0601C15.4472 13.4702 15.412 14.021 15.119 14.021C14.955 14.021 14.7792 13.7749 14.5448 13.4468C14.2401 13.0249 13.8183 12.5913 13.1034 12.5913C12.3183 12.5913 11.7675 13.189 11.7675 14.0327C11.7675 15.2046 12.5644 15.9429 12.5644 16.8569C12.5644 17.6304 11.1112 18.6968 11.1112 21.0171C11.1112 23.8179 13.1854 25.6695 16.3261 25.6695ZM13.7479 20.8179C13.5019 20.7359 13.3729 20.4429 13.455 20.1968L14.4628 17.4312C14.5565 17.1734 14.8378 17.0445 15.0956 17.1382C15.3417 17.2202 15.4823 17.5132 15.3886 17.771L14.3808 20.5249C14.287 20.7827 14.0058 20.9116 13.7479 20.8179ZM18.9042 20.8179C18.6464 20.9116 18.3651 20.7827 18.2714 20.5249L17.2636 17.771C17.1698 17.5132 17.3222 17.2202 17.5683 17.1382C17.8261 17.0445 18.1073 17.1734 18.2011 17.4312L19.2089 20.1968C19.2909 20.4429 19.1503 20.7359 18.9042 20.8179Z" fill="black" fill-opacity="0.85"/>
<path d="M0.271429 23.2671C-0.314508 24.5796 0.224555 26.3491 2.09955 26.3491C2.76752 26.3491 3.3183 26.0679 3.96283 25.5171L6.99799 22.9859L10.0449 25.5171C10.6894 26.0679 11.2284 26.3491 11.9081 26.3491C13.7714 26.3491 14.3104 24.5796 13.7362 23.2671L8.60346 11.689V6.4038C8.60346 3.80224 9.04877 1.84521 9.04877 1.36474C9.04877 0.638184 8.53315 0.122559 7.83002 0.122559C7.41986 0.122559 7.08002 0.286622 6.62299 0.802246L4.03315 3.76709C3.51752 4.38818 3.68158 5.23193 4.38471 5.56006C5.35736 5.98193 5.39252 5.99365 5.39252 6.4038V11.6773L0.271429 23.2671Z" fill="white"/>
<path d="M0.927626 23.5484C0.505751 24.5093 0.845594 25.6343 2.0995 25.6343C2.55653 25.6343 2.94325 25.4351 3.49403 24.978L6.70497 22.2945C6.83388 22.189 6.92763 22.1421 6.99794 22.1421C7.07997 22.1421 7.162 22.189 7.29091 22.2945L10.5019 24.978C11.0644 25.4351 11.4394 25.6343 11.9081 25.6343C13.1503 25.6343 13.5019 24.5093 13.0683 23.5484L7.88856 11.8413V6.4038C7.88856 3.73193 8.33388 1.73974 8.33388 1.36474C8.33388 1.03662 8.13466 0.837402 7.82997 0.837402C7.61903 0.837402 7.44325 0.966308 7.162 1.27099L4.57216 4.23584C4.36122 4.48193 4.41981 4.7749 4.68935 4.91552C5.7206 5.36084 6.10731 5.53662 6.10731 6.4038V11.8296L0.927626 23.5484ZM8.67372 18.9663C8.35731 18.9663 8.0995 18.6968 8.0995 18.4038C8.0995 18.0757 8.36903 17.7945 8.67372 17.7945C9.00185 17.7945 9.25966 18.064 9.25966 18.4038C9.25966 18.7085 9.00185 18.9663 8.67372 18.9663ZM9.07216 19.9038C8.75575 19.9038 8.4745 19.6343 8.4745 19.3179C8.4745 19.0015 8.75575 18.7202 9.07216 18.7202C9.38856 18.7202 9.66981 18.9898 9.66981 19.3179C9.66981 19.6343 9.38856 19.9038 9.07216 19.9038ZM9.44716 20.8179C9.13075 20.8179 8.88466 20.5601 8.88466 20.2437C8.88466 19.9273 9.14247 19.646 9.44716 19.646C9.787 19.646 10.0448 19.9273 10.0448 20.2437C10.0448 20.5484 9.76356 20.8179 9.44716 20.8179Z" fill="black" fill-opacity="0.85"/>
</g>
<defs>
<clipPath id="clip0_2207_15201">
<rect width="30.6706" height="26.3086" fill="white" transform="translate(0.0461426 0.0756836)"/>
</clipPath>
</defs>
</svg>
