<svg width="33" height="24" viewBox="0 0 33 24" fill="none" xmlns="http://www.w3.org/2000/svg">
<g clip-path="url(#clip0_2207_3235)">
<path d="M8.49963 8.44287H10.4449V5.00927C10.4449 3.15771 11.8863 2.02099 14.1481 2.02099H18.4957C20.7692 2.02099 22.2106 3.15771 22.2106 5.00927V8.44287H24.1559V5.00927C24.1559 1.9624 21.9527 0.0756836 18.4957 0.0756836H14.1481C10.7027 0.0756836 8.49963 1.9624 8.49963 5.00927V8.44287ZM3.96448 23.5015H28.6793C31.0816 23.5015 32.5934 22.0132 32.5934 19.646V12.978C32.5934 9.48584 30.1559 7.08349 26.6285 7.08349H6.01525C2.48792 7.08349 0.050415 9.48584 0.050415 12.978V19.646C0.050415 22.0132 1.56214 23.5015 3.96448 23.5015ZM6.96448 23.5015V7.08349H8.49963V23.5015H6.96448ZM10.4449 23.5015V7.08349H11.9801V23.5015H10.4449ZM11.9801 15.0171V13.4819H20.6754V15.0171H11.9801ZM20.6754 23.5015V7.08349H22.2106V23.5015H20.6754ZM24.1559 23.5015V7.08349H25.691V23.5015H24.1559Z" fill="black" fill-opacity="0.85"/>
</g>
<defs>
<clipPath id="clip0_2207_3235">
<rect width="32.543" height="23.4492" fill="white" transform="translate(0.050415 0.0756836)"/>
</clipPath>
</defs>
</svg>
