<svg width="33" height="24" viewBox="0 0 33 24" fill="none" xmlns="http://www.w3.org/2000/svg">
<g clip-path="url(#clip0_2207_3231)">
<path d="M8.53272 8.38427H10.4194V4.98584C10.4194 3.11084 11.8725 1.97412 14.146 1.97412H18.4936C20.7788 1.97412 22.2319 3.11084 22.2319 4.98584V8.38427H24.1186V4.98584C24.1186 1.9624 21.9389 0.0874023 18.4936 0.0874023H14.146C10.7124 0.0874023 8.53272 1.9624 8.53272 4.98584V8.38427ZM3.9624 23.478H28.6772C31.0795 23.478 32.5913 21.9898 32.5913 19.6226V12.9546C32.5913 9.4624 30.1538 7.06006 26.6264 7.06006H6.01318C2.48584 7.06006 0.0483398 9.4624 0.0483398 12.9546V19.6226C0.0483398 21.9898 1.56006 23.478 3.9624 23.478ZM3.98584 21.5913C2.72022 21.5913 1.93506 20.7945 1.93506 19.5288V13.0484C1.93506 10.6109 3.59912 8.94677 6.03662 8.94677H26.603C29.0405 8.94677 30.7045 10.6109 30.7045 13.0484V19.5288C30.7045 20.7945 29.9194 21.5913 28.6538 21.5913H3.98584ZM6.92725 22.6812H8.4624V7.84521H6.92725V22.6812ZM10.478 22.6812H12.0131V7.84521H10.478V22.6812ZM20.6381 22.6812H22.1733V7.84521H20.6381V22.6812ZM24.1889 22.6812H25.7241V7.84521H24.1889V22.6812ZM11.228 14.9937H21.3881V13.4585H11.228V14.9937Z" fill="black" fill-opacity="0.85"/>
</g>
<defs>
<clipPath id="clip0_2207_3231">
<rect width="32.543" height="23.4023" fill="white" transform="translate(0.0483398 0.0756836)"/>
</clipPath>
</defs>
</svg>
