<svg width="24" height="24" viewBox="0 0 24 24" fill="none" xmlns="http://www.w3.org/2000/svg">
<g clip-path="url(#clip0_2207_24966)">
<path d="M12.0078 23.9819C18.5469 23.9819 23.9609 18.5562 23.9609 12.0288C23.9609 5.48974 18.5352 0.0756836 11.9961 0.0756836C5.46875 0.0756836 0.0546875 5.48974 0.0546875 12.0288C0.0546875 18.5562 5.48047 23.9819 12.0078 23.9819ZM12.0078 21.9898C6.47657 21.9898 2.0586 17.5601 2.0586 12.0288C2.0586 6.49756 6.46485 2.06787 11.9961 2.06787C17.5274 2.06787 21.9688 6.49756 21.9688 12.0288C21.9688 17.5601 17.5391 21.9898 12.0078 21.9898Z" fill="black" fill-opacity="0.85"/>
<path d="M8.29297 17.396C8.90235 17.396 9.24219 17.0093 9.24219 16.353V12.4859H14.7266V16.353C14.7266 16.9976 15.0781 17.396 15.6524 17.396C16.2617 17.396 16.6016 17.0093 16.6016 16.353V7.48194C16.6016 6.82569 16.2617 6.43896 15.6524 6.43896C15.0781 6.43896 14.7266 6.83741 14.7266 7.48194V11.021H9.24219V7.48194C9.24219 6.82569 8.90235 6.43896 8.29297 6.43896C7.71875 6.43896 7.37891 6.83741 7.37891 7.48194V16.353C7.37891 16.9976 7.71875 17.396 8.29297 17.396Z" fill="black" fill-opacity="0.85"/>
</g>
<defs>
<clipPath id="clip0_2207_24966">
<rect width="23.9062" height="23.918" fill="white" transform="translate(0.0546875 0.0756836)"/>
</clipPath>
</defs>
</svg>
