<svg width="27" height="28" viewBox="0 0 27 28" fill="none" xmlns="http://www.w3.org/2000/svg">
<g clip-path="url(#clip0_2207_6520)">
<path d="M22.7879 7.09521H11.0222C8.58472 7.09521 7.34253 8.31396 7.34253 10.728V22.5874C7.34253 25.0015 8.58472 26.2202 11.0222 26.2202H22.7879C25.2371 26.2202 26.4675 25.0015 26.4675 22.5874V10.728C26.4675 8.30224 25.2371 7.09521 22.7879 7.09521Z" fill="black" fill-opacity="0.85"/>
<path d="M17.1043 0.0756836H5.33863C2.0105 0.0756836 0.0651855 1.99756 0.0651855 5.30224V17.1616C0.0651855 20.4663 2.0105 22.3882 5.33863 22.3882H17.1043C20.4324 22.3882 22.3777 20.4663 22.3777 17.1616V5.30224C22.3777 1.99756 20.4324 0.0756836 17.1043 0.0756836Z" fill="white"/>
<path d="M17.1043 1.66943H5.33863C2.90113 1.66943 1.65894 2.88818 1.65894 5.30224V17.1616C1.65894 19.5757 2.90113 20.7945 5.33863 20.7945H17.1043C19.5535 20.7945 20.784 19.5757 20.784 17.1616V5.30224C20.784 2.88818 19.5535 1.66943 17.1043 1.66943Z" fill="black" fill-opacity="0.85"/>
<path d="M7.41284 16.7749C6.80346 16.7749 6.4519 16.3765 6.4519 15.6851V6.55616C6.4519 5.87647 6.80346 5.47803 7.41284 5.47803C8.03393 5.47803 8.38549 5.86475 8.38549 6.55616V10.2007H14.034V6.55616C14.034 5.87647 14.3972 5.47803 14.9949 5.47803C15.6277 5.47803 15.9793 5.86475 15.9793 6.55616V15.6851C15.9793 16.3882 15.6277 16.7749 14.9949 16.7749C14.3972 16.7749 14.034 16.3765 14.034 15.6851V11.7124H8.38549V15.6851C8.38549 16.3882 8.03393 16.7749 7.41284 16.7749Z" fill="white"/>
</g>
<defs>
<clipPath id="clip0_2207_6520">
<rect width="26.4023" height="27.7148" fill="white" transform="translate(0.0651855 0.0756836)"/>
</clipPath>
</defs>
</svg>
