<svg width="24" height="24" viewBox="0 0 24 24" fill="none" xmlns="http://www.w3.org/2000/svg">
<g clip-path="url(#clip0_2207_10494)">
<path d="M12.0224 23.9819C18.5615 23.9819 23.9755 18.5562 23.9755 12.0288C23.9755 5.48974 18.5498 0.0756836 12.0107 0.0756836C5.4834 0.0756836 0.0693359 5.48974 0.0693359 12.0288C0.0693359 18.5562 5.49512 23.9819 12.0224 23.9819ZM12.0224 21.9898C6.49122 21.9898 2.07325 17.5601 2.07325 12.0288C2.07325 6.49756 6.4795 2.06787 12.0107 2.06787C17.542 2.06787 21.9834 6.49756 21.9834 12.0288C21.9834 17.5601 17.5537 21.9898 12.0224 21.9898Z" fill="black" fill-opacity="0.85"/>
<path d="M6.85446 18.0171C7.3818 18.5445 7.97946 18.4976 8.49508 17.9116L13.8857 11.7827L12.1631 10.06L6.02242 15.4155C5.41305 15.9429 5.37789 16.5288 5.90524 17.0562L6.85446 18.0171ZM17.1904 13.0132C17.4365 13.2476 17.706 13.271 17.9521 13.0366L19.6982 11.3023C19.9326 11.0796 19.9209 10.7866 19.6865 10.5405L19.2529 10.1187C19.0185 9.88425 18.8896 9.8491 18.6318 9.87254L17.9638 9.94285L17.5185 9.52097L17.7177 8.70066C17.8232 8.30222 17.6709 7.89207 17.249 7.45847L16.0771 6.31004C14.4599 4.70457 11.4834 4.52878 9.84274 6.18113C9.54977 6.46238 9.59664 6.75535 9.77242 6.96628C9.92477 7.09519 10.1357 7.1655 10.3349 7.08347C11.4599 6.75535 12.4443 6.69675 13.2881 7.20066L12.8427 8.37254C12.6552 8.87644 12.749 9.228 13.0654 9.54441L14.3545 10.8335C14.6005 11.0796 14.8584 11.1382 15.2334 11.0679L16.1591 10.8687L16.6045 11.3257L16.5341 11.9819C16.5107 12.2398 16.5341 12.4038 16.7568 12.6148L17.1904 13.0132Z" fill="black" fill-opacity="0.85"/>
</g>
<defs>
<clipPath id="clip0_2207_10494">
<rect width="23.9062" height="23.918" fill="white" transform="translate(0.0693359 0.0756836)"/>
</clipPath>
</defs>
</svg>
