<svg width="23" height="30" viewBox="0 0 23 30" fill="none" xmlns="http://www.w3.org/2000/svg">
<g clip-path="url(#clip0_2207_18746)">
<path d="M5.90137 0.0771484C2.66699 0.0771484 0.0419922 2.70215 0.0419922 5.93653C0.0419922 7.33106 0.53418 8.62012 1.34277 9.62793C1.54199 9.87403 1.77637 9.96777 1.99902 9.96777C2.57324 9.96777 3.06543 9.28809 2.57324 8.70215C1.94043 7.95215 1.57715 6.99121 1.57715 5.93653C1.57715 3.5459 3.51074 1.61231 5.90137 1.61231C8.29199 1.61231 10.2139 3.5459 10.2139 5.93653C10.2139 6.00684 10.2139 6.07715 10.2139 6.18262C10.2256 6.70996 10.5889 6.94434 10.9639 6.94434C11.3272 6.94434 11.7022 6.68653 11.7373 6.27637C11.749 6.19434 11.749 6.08887 11.749 5.93653C11.749 2.70215 9.13574 0.0771484 5.90137 0.0771484Z" fill="black" fill-opacity="0.85"/>
<path d="M16.8701 25.8232C21.5225 24.1357 23.5147 19.8701 21.6397 14.7139L20.7608 12.3116C19.835 9.76856 18.1006 8.72559 16.0381 9.44043C15.499 8.72559 14.6436 8.47949 13.7295 8.80762C13.3897 8.93653 13.0967 9.11231 12.8272 9.32324C12.2178 8.54981 11.292 8.26856 10.3311 8.6084C10.0732 8.70215 9.82717 8.84277 9.59279 9.00684L8.25685 5.35059C7.75295 3.95606 6.49904 3.37012 5.19826 3.83887C3.88576 4.31934 3.2881 5.57324 3.79201 6.96777L7.14357 16.1553C7.15529 16.2139 7.14357 16.2608 7.0967 16.2842C7.04982 16.3077 7.00295 16.2842 6.96779 16.2491L5.5967 14.7491C4.91701 14.0225 4.10842 13.7998 3.32326 14.081C2.24513 14.4795 1.55373 15.4991 1.99904 16.7061C2.11623 17.046 2.3506 17.456 2.62013 17.7959L6.5342 22.542C9.51076 26.128 12.9795 27.2412 16.8701 25.8232ZM16.3779 24.288C13.2959 25.413 10.4248 24.8389 7.71779 21.5694L3.78029 16.8467C3.6631 16.7061 3.58107 16.5772 3.51076 16.378C3.37013 16.003 3.5342 15.5694 3.97951 15.4053C4.35451 15.2764 4.6592 15.417 4.95217 15.7334L7.67092 18.5342C8.11623 19.003 8.51467 19.0499 8.9131 18.9092C9.37013 18.7452 9.55763 18.2529 9.38185 17.7491L5.2217 6.33496C5.05763 5.86621 5.25685 5.4209 5.71389 5.25684C6.17092 5.09277 6.59279 5.31543 6.75685 5.78418L9.73342 13.9288C9.86232 14.3154 10.2959 14.4913 10.6826 14.3506C11.0576 14.21 11.2686 13.7999 11.1279 13.4249L10.0615 10.4834C10.2139 10.3311 10.4482 10.1788 10.6592 10.0967C11.21 9.89746 11.6787 10.1436 11.8779 10.7178L12.8154 13.2842C12.9678 13.6827 13.4014 13.835 13.7764 13.6944C14.1397 13.5655 14.3623 13.1788 14.21 12.7685L13.46 10.6827C13.6123 10.5303 13.8467 10.378 14.0576 10.296C14.6084 10.0967 15.0654 10.3428 15.2764 10.917L15.9092 12.628C16.0498 13.0381 16.4834 13.1905 16.8584 13.0499C17.2217 12.921 17.4561 12.5225 17.3037 12.1241L16.8467 10.8584C17.8193 10.5069 18.7451 11.3038 19.3897 13.0616L20.1162 15.0655C21.7334 19.4952 20.2686 22.8701 16.3779 24.288Z" fill="black" fill-opacity="0.85"/>
</g>
<defs>
<clipPath id="clip0_2207_18746">
<rect width="22.2977" height="29.8008" fill="white" transform="translate(0.0419922 0.0771484)"/>
</clipPath>
</defs>
</svg>
