<svg width="20" height="25" viewBox="0 0 20 25" fill="none" xmlns="http://www.w3.org/2000/svg">
<g clip-path="url(#clip0_2207_18812)">
<path d="M10.945 24.7319C15.902 24.7319 19.2301 21.4038 19.2301 15.9195V13.353C19.2301 10.6577 17.9528 9.07568 15.7731 9.05224C15.5036 8.18506 14.7887 7.66943 13.8161 7.66943C13.4645 7.66943 13.1247 7.72802 12.7848 7.84521C12.4918 6.89599 11.7184 6.32177 10.6989 6.32177C10.4293 6.32177 10.1481 6.35693 9.86683 6.43896V2.53662C9.86683 1.06006 8.88245 0.0756836 7.49965 0.0756836C6.10511 0.0756836 5.10901 1.06006 5.10901 2.53662V12.3101C5.10901 12.3804 5.08558 12.4155 5.02699 12.4155C4.98011 12.4155 4.94495 12.3921 4.92151 12.3335L4.14808 10.4702C3.74965 9.55615 3.06996 9.06396 2.23793 9.06396C1.08949 9.06396 0.0933925 9.79052 0.0933925 11.0679C0.0816738 11.4312 0.163705 11.8999 0.30433 12.2984L2.36683 18.0991C3.92543 22.4937 6.81996 24.7319 10.945 24.7319ZM11.0036 23.1148C7.73401 23.1148 5.22621 21.603 3.79652 17.5952L1.7223 11.8179C1.66371 11.6421 1.62855 11.4898 1.62855 11.2788C1.62855 10.8804 1.93324 10.5288 2.40199 10.5288C2.80043 10.5288 3.0348 10.7632 3.19887 11.1616L4.80433 14.7241C5.06215 15.3218 5.4137 15.5093 5.83558 15.5093C6.32776 15.5093 6.66761 15.1109 6.66761 14.5835V2.43115C6.66761 1.93896 7.01918 1.5874 7.49965 1.5874C7.98012 1.5874 8.30824 1.93896 8.30824 2.43115V11.103C8.30824 11.5132 8.65979 11.8296 9.05824 11.8296C9.4684 11.8296 9.79652 11.5132 9.79652 11.103V7.98584C9.99574 7.89209 10.2653 7.82177 10.4997 7.82177C11.0856 7.82177 11.4372 8.20849 11.4372 8.82959V11.5484C11.4372 11.9819 11.7887 12.2749 12.1872 12.2749C12.5739 12.2749 12.9254 11.9819 12.9254 11.5484V9.33349C13.1247 9.23974 13.3942 9.18115 13.6168 9.18115C14.2028 9.18115 14.5543 9.55615 14.5543 10.1773V12.0054C14.5543 12.4273 14.9176 12.7202 15.3161 12.7202C15.6911 12.7202 16.0426 12.4273 16.0426 12.0054V10.6577C17.0856 10.6577 17.6833 11.7241 17.6833 13.5874V15.7319C17.6833 20.4429 15.152 23.1148 11.0036 23.1148Z" fill="black" fill-opacity="0.85"/>
</g>
<defs>
<clipPath id="clip0_2207_18812">
<rect width="19.1378" height="24.668" fill="white" transform="translate(0.0922852 0.0756836)"/>
</clipPath>
</defs>
</svg>
