<svg width="19" height="25" viewBox="0 0 19 25" fill="none" xmlns="http://www.w3.org/2000/svg">
<g clip-path="url(#clip0_2207_18834)">
<path d="M8.02734 0.228027C2.94141 0.228027 0.0820312 3.41552 0.0820312 8.85302V11.103C0.0820312 13.1655 1.06641 14.4195 2.19141 14.4195C2.44922 14.4195 2.57812 14.2905 2.57812 14.0445V13.0484C2.57812 12.5796 2.82422 12.3452 3.10547 12.3452C3.41015 12.3452 3.64453 12.5796 3.64453 13.0484V13.7046C3.64453 14.9116 4.42969 15.7085 5.47265 15.7085C5.95312 15.7085 6.16406 15.521 6.16406 15.1109V13.7515C6.16406 13.2827 6.39844 13.0484 6.67969 13.0484C6.98437 13.0484 7.23047 13.2827 7.23047 13.7515V15.0054C7.23047 16.3648 8.01562 17.0093 9.03515 17.0093C9.48047 17.0093 9.72656 16.7984 9.72656 16.4116V13.7515C9.72656 13.2827 9.96094 13.0484 10.2422 13.0484C10.5468 13.0484 10.7929 13.2827 10.7929 13.7515V22.646C10.7929 23.5132 11.3554 24.0874 12.0937 24.0874C12.8789 24.0874 13.4179 23.5132 13.4179 22.646V9.62646C13.4179 9.31006 13.6289 9.13427 13.8281 9.13427C14.0273 9.13427 14.1914 9.25146 14.332 9.57959L16.0547 13.646C16.3125 14.2437 16.6992 14.5132 17.2265 14.5132C18.0351 14.5132 18.5508 13.9624 18.5508 13.2945C18.5508 13.0249 18.4922 12.8023 18.4218 12.6148L16.5351 6.95459C14.9179 2.18506 11.7656 0.228027 8.02734 0.228027Z" fill="black" fill-opacity="0.85"/>
</g>
<defs>
<clipPath id="clip0_2207_18834">
<rect width="18.4688" height="24.0117" fill="white" transform="translate(0.0820312 0.0756836)"/>
</clipPath>
</defs>
</svg>
