<svg width="20" height="22" viewBox="0 0 20 22" fill="none" xmlns="http://www.w3.org/2000/svg">
<g clip-path="url(#clip0_2207_18730)">
<path d="M14.4344 21.3557C19.2156 19.6214 20.8094 15.6487 18.9461 10.5276L18.1844 8.41818C17.4812 6.48459 16.1219 5.64084 15.0672 6.01584C14.8328 6.10959 14.7508 6.28537 14.8328 6.50803L15.1726 7.44553C15.3367 7.89084 15.1844 8.18381 14.9148 8.28928C14.6336 8.38303 14.3289 8.25412 14.1648 7.80881L13.9422 7.19943C13.532 6.05099 12.5242 5.57053 11.5398 5.93381C11.0945 6.09787 10.9656 6.35568 11.1062 6.73068L11.5633 8.00803C11.7273 8.45334 11.575 8.74631 11.3172 8.85178C11.0242 8.95724 10.7195 8.81662 10.5672 8.37131L10.1336 7.19943C9.66488 5.91037 8.70394 5.58224 7.743 5.93381C7.32113 6.08615 7.16878 6.3674 7.30941 6.73068L8.21175 9.22678C8.37581 9.67209 8.23519 9.96506 7.96566 10.0705C7.68441 10.176 7.37972 10.0354 7.21566 9.59006L4.16878 1.23459C3.87581 0.414278 3.14925 0.0861533 2.45785 0.332247C1.71956 0.601778 1.40316 1.31662 1.69613 2.13693L6.14925 14.3714C6.26644 14.676 6.12581 14.8987 5.93831 14.969C5.75081 15.0393 5.56331 14.9807 5.31722 14.7229L2.3055 11.4885C1.86019 11.0198 1.40316 10.9026 0.910968 11.0901C0.14925 11.3596 -0.143719 12.051 0.0789367 12.6839C0.172687 12.93 0.301593 13.1175 0.4305 13.2698L4.14535 17.9456C7.28597 21.8831 10.9187 22.6331 14.4344 21.3557Z" fill="black" fill-opacity="0.85"/>
</g>
<defs>
<clipPath id="clip0_2207_18730">
<rect width="19.6983" height="21.85" fill="white" transform="translate(0.00634766 0.0771484)"/>
</clipPath>
</defs>
</svg>
