<svg width="21" height="31" viewBox="0 0 21 31" fill="none" xmlns="http://www.w3.org/2000/svg">
<g clip-path="url(#clip0_2207_18825)">
<path d="M7.56152 3.41552C8.4873 3.41552 9.22559 2.67724 9.22559 1.75146C9.22559 0.825684 8.4873 0.0756836 7.56152 0.0756836C6.62402 0.0756836 5.88574 0.825684 5.88574 1.75146C5.88574 2.67724 6.62402 3.41552 7.56152 3.41552ZM1.77246 8.60693C2.69824 8.60693 3.43652 7.86865 3.43652 6.94287C3.43652 6.00537 2.69824 5.26709 1.77246 5.26709C0.834961 5.26709 0.0966797 6.00537 0.0966797 6.94287C0.0966797 7.86865 0.834961 8.60693 1.77246 8.60693ZM13.4209 8.60693C14.3467 8.60693 15.0967 7.86865 15.0967 6.94287C15.0967 6.00537 14.3467 5.26709 13.4209 5.26709C12.4951 5.26709 11.7451 6.00537 11.7451 6.94287C11.7451 7.86865 12.4951 8.60693 13.4209 8.60693ZM18.6123 8.60693C19.5381 8.60693 20.2764 7.86865 20.2764 6.94287C20.2764 6.00537 19.5381 5.26709 18.6123 5.26709C17.6865 5.26709 16.9365 6.00537 16.9365 6.94287C16.9365 7.86865 17.6865 8.60693 18.6123 8.60693ZM18.6123 3.41552C19.5381 3.41552 20.2764 2.67724 20.2764 1.75146C20.2764 0.825684 19.5381 0.0756836 18.6123 0.0756836C17.6865 0.0756836 16.9365 0.825684 16.9365 1.75146C16.9365 2.67724 17.6865 3.41552 18.6123 3.41552Z" fill="black" fill-opacity="0.85"/>
<path d="M11.6162 29.5952C16.7022 29.5952 19.5615 26.4077 19.5615 20.9702V18.7202C19.5615 16.6577 18.5772 15.4038 17.4522 15.4038C17.2061 15.4038 17.0655 15.5327 17.0655 15.7788V16.7749C17.0655 17.2437 16.8311 17.478 16.5498 17.478C16.2451 17.478 15.999 17.2437 15.999 16.7749V16.1187C15.999 14.9116 15.2256 14.1148 14.1709 14.1148C13.7022 14.1148 13.4912 14.314 13.4912 14.7124V16.0718C13.4912 16.5405 13.2451 16.7749 12.9639 16.7749C12.6592 16.7749 12.4248 16.5405 12.4248 16.0718V14.8179C12.4248 13.4585 11.6279 12.814 10.6084 12.814C10.1631 12.814 9.92871 13.0249 9.92871 13.4116V16.0718C9.92871 16.5405 9.68262 16.7749 9.40137 16.7749C9.09668 16.7749 8.8623 16.5405 8.8623 16.0718V7.17724C8.8623 6.31006 8.28809 5.73584 7.56152 5.73584C6.76465 5.73584 6.22559 6.31006 6.22559 7.17724V20.1968C6.22559 20.5249 6.02637 20.689 5.81543 20.689C5.61621 20.689 5.46387 20.5718 5.32324 20.2437L3.58887 16.1773C3.34277 15.5796 2.94434 15.3218 2.41699 15.3218C1.62012 15.3218 1.10449 15.8726 1.10449 16.5288C1.10449 16.7984 1.15137 17.021 1.22168 17.2085L3.12012 22.8687C4.72559 27.6382 7.87793 29.5952 11.6162 29.5952Z" fill="black" fill-opacity="0.85"/>
</g>
<defs>
<clipPath id="clip0_2207_18825">
<rect width="20.1797" height="29.9883" fill="white" transform="translate(0.0966797 0.0756836)"/>
</clipPath>
</defs>
</svg>
