<svg width="26" height="21" viewBox="0 0 26 21" fill="none" xmlns="http://www.w3.org/2000/svg">
<g clip-path="url(#clip0_2207_18796)">
<path d="M25.959 11.4791C25.959 7.13147 23.627 4.10803 19.0098 2.46741L12.916 0.299445C12.4942 0.147101 12.002 0.0650693 11.6387 0.076788C10.2793 0.076788 9.51757 1.13147 9.51757 2.32678C9.52929 3.20569 10.0332 3.92053 10.9824 4.33069L12.9629 5.151C13.0098 5.16272 13.0332 5.2096 13.0332 5.25647C13.0332 5.32678 12.9981 5.35022 12.9395 5.35022H2.67382C1.10351 5.35022 0.0839844 6.38147 0.0839844 7.84632C0.0839844 9.31116 1.10351 10.3424 2.67382 10.3424H6.76367C6.68164 10.6354 6.63476 10.9284 6.63476 11.2096C6.63476 12.276 7.24414 13.0963 8.22851 13.4127C8.12304 13.7526 8.05273 14.1159 8.05273 14.4909C8.05273 15.5104 8.60351 16.2604 9.50586 16.5416C9.52929 18.8268 11.1934 20.1745 14.0293 20.1745H16.7129C22.4668 20.1745 25.959 16.6823 25.959 11.4791ZM24.2715 11.5495C24.2715 15.8971 21.4707 18.5456 16.5137 18.5456H14.2754C12.3184 18.5456 11.1934 17.9245 11.1934 16.8229H12.5996C13.0449 16.8229 13.3613 16.4713 13.3613 16.0612C13.3613 15.651 13.0449 15.2643 12.5996 15.2643H10.6778C10.0449 15.2643 9.64648 14.901 9.64648 14.2799C9.64648 14.0456 9.70507 13.7526 9.81054 13.5416H12.1309C12.5879 13.5416 12.8926 13.1784 12.8926 12.7682C12.8926 12.3581 12.5879 11.9948 12.1309 11.9948H9.27148C8.62695 11.9948 8.21679 11.6081 8.21679 10.9987C8.21679 10.7643 8.2871 10.4713 8.38086 10.2721H11.6621C12.084 10.2721 12.4238 9.90882 12.4238 9.49866C12.4238 9.06507 12.084 8.70178 11.6621 8.70178H2.55664C2.04101 8.70178 1.66601 8.36194 1.66601 7.84632C1.66601 7.34241 2.04101 6.99085 2.55664 6.99085H15.3184C15.8692 6.99085 16.2793 6.62757 16.2793 6.11194C16.2793 5.67835 16.0801 5.29163 15.4707 5.01038L11.7207 3.34632C11.3106 3.17053 11.0528 2.92444 11.0528 2.50257C11.0528 2.01038 11.416 1.69397 11.8496 1.69397C12.0606 1.69397 12.2246 1.71741 12.4004 1.78772L18.4824 3.96741C22.6778 5.46741 24.2715 8.10413 24.2715 11.5495Z" fill="black" fill-opacity="0.85"/>
</g>
<defs>
<clipPath id="clip0_2207_18796">
<rect width="25.875" height="20.1702" fill="white" transform="translate(0.0839844 0.0756836)"/>
</clipPath>
</defs>
</svg>
