<svg width="22" height="27" viewBox="0 0 22 27" fill="none" xmlns="http://www.w3.org/2000/svg">
<g clip-path="url(#clip0_2207_18682)">
<path d="M9.99012 25.5888C14.1033 25.5888 16.7283 23.2451 18.5682 18.9677L21.0174 13.1904C21.5799 11.8896 20.994 10.7529 20.0565 10.2607C19.1424 9.79199 17.9002 9.95606 17.1268 11.2099L16.0135 13.2021C15.9783 13.249 15.9549 13.2841 15.908 13.2841C15.8494 13.2841 15.8026 13.2373 15.826 13.1669L17.3494 4.31934C17.6073 2.86621 16.869 1.84668 15.5916 1.61231C14.2088 1.37793 13.1307 2.02246 12.8377 3.5459L12.4862 5.59668H12.6268V2.44434C12.6268 1.06152 11.6658 0.0771484 10.3299 0.0771484C8.93543 0.0771484 8.00965 1.09668 8.00965 2.52637V4.02637L8.30262 3.96777L8.16199 3.03027C7.82215 1.74121 6.74402 1.19043 5.61902 1.38965C4.25965 1.62403 3.56824 2.76074 3.73231 4.1084L3.95496 6.03027L4.38856 5.93653C3.99012 4.65918 2.99402 4.24903 1.90418 4.44824C0.497926 4.69434 -0.146605 5.70215 0.064333 7.14356L1.62293 17.5966C2.36121 22.5654 5.03309 25.5888 9.99012 25.5888ZM9.93152 23.9716C5.78309 23.9716 3.83777 21.6045 3.18152 17.4091L1.49402 6.88574C1.42371 6.40527 1.69324 6.01856 2.15027 5.93653C2.57215 5.86621 2.95887 6.14746 3.06434 6.58106L4.76356 12.9443C4.88074 13.3896 5.23231 13.5654 5.59559 13.4951C5.99402 13.4365 6.26356 13.0849 6.21668 12.6865L5.20887 3.86231C5.15027 3.34668 5.38465 2.97168 5.86512 2.88965C6.34559 2.80762 6.73231 3.11231 6.80262 3.58106L8.02137 12.4287C8.06824 12.8037 8.40809 13.0498 8.81824 12.9912C9.32215 12.9091 9.49793 12.6044 9.49793 12.1826V2.44434C9.49793 1.95215 9.83777 1.60059 10.3299 1.60059C10.7987 1.60059 11.1385 1.95215 11.1385 2.44434V12.288C11.1385 12.6865 11.4783 12.9912 11.8651 12.9912C12.2635 12.9912 12.5448 12.7333 12.6151 12.3349L14.2791 3.80371C14.3846 3.24121 14.783 3.00684 15.2283 3.08887C15.6854 3.15918 15.9549 3.5459 15.8729 4.06153L14.2088 15.0302C14.0565 16.0263 14.6073 16.3662 15.0994 16.3662C15.5213 16.3662 15.8143 16.1552 16.1424 15.5927L18.2283 11.8896C18.4744 11.4209 18.9198 11.2919 19.283 11.4443C19.6815 11.5849 19.8924 12.0068 19.6698 12.5341L17.1385 18.4638C15.4627 22.3427 13.201 23.9716 9.93152 23.9716Z" fill="black" fill-opacity="0.85"/>
</g>
<defs>
<clipPath id="clip0_2207_18682">
<rect width="21.2125" height="26.6836" fill="white" transform="translate(0.0251465 0.0771484)"/>
</clipPath>
</defs>
</svg>
