<svg width="22" height="22" viewBox="0 0 22 22" fill="none" xmlns="http://www.w3.org/2000/svg">
<g clip-path="url(#clip0_2207_18655)">
<path d="M3.71533 21.6748H17.9301C20.3911 21.6748 21.6098 20.456 21.6098 18.0419V3.7334C21.6098 1.31934 20.3911 0.100586 17.9301 0.100586H3.71533C1.26611 0.100586 0.0356445 1.30762 0.0356445 3.7334V18.0419C0.0356445 20.4677 1.26611 21.6748 3.71533 21.6748Z" fill="black" fill-opacity="0.85"/>
<path d="M5.85986 13.1553V6.62793C5.85986 6.20606 6.21142 5.84277 6.65673 5.84277C7.06689 5.84277 7.43017 6.20606 7.43017 6.62793V10.7295C7.60595 10.6241 7.78173 10.5069 8.00439 10.4131V4.42481C8.00439 4.00293 8.35595 3.66309 8.77783 3.66309C9.1997 3.66309 9.56298 4.00293 9.56298 4.42481V9.90918C9.7622 9.87403 9.96142 9.85059 10.1723 9.82715V3.82715C10.1723 3.41699 10.5122 3.05371 10.9458 3.05371C11.3794 3.05371 11.7192 3.41699 11.7192 3.82715V9.89746C11.9184 9.95606 12.1176 10.0264 12.3051 10.0732V4.84668C12.3051 4.42481 12.645 4.07324 13.0786 4.07324C13.4887 4.07324 13.8403 4.42481 13.8403 4.84668V12.2061C13.8403 12.417 13.9223 12.5108 14.0747 12.5108C14.1801 12.5108 14.2856 12.4405 14.3676 12.2178L15.352 10.1553C15.6801 9.48731 15.9379 9.20606 16.4067 9.20606C16.8168 9.20606 17.1098 9.47559 17.1098 9.86231C17.1098 10.1905 16.8403 10.9288 16.6528 11.5264C16.2192 12.9678 15.809 14.21 15.27 15.253C14.2973 17.2452 12.8325 18.1005 10.6997 18.1005C7.85205 18.1005 5.85986 16.2139 5.85986 13.1553Z" fill="white"/>
</g>
<defs>
<clipPath id="clip0_2207_18655">
<rect width="21.5742" height="21.5977" fill="white" transform="translate(0.0356445 0.0771484)"/>
</clipPath>
</defs>
</svg>
