<svg width="20" height="25" viewBox="0 0 20 25" fill="none" xmlns="http://www.w3.org/2000/svg">
<g clip-path="url(#clip0_2207_18830)">
<path d="M8.35327 0.181152C3.39624 0.181152 0.079834 3.50927 0.079834 8.99365V11.5484C0.079834 14.2554 1.35717 15.8374 3.53686 15.8609C3.80639 16.7163 4.50952 17.2437 5.49389 17.2437C5.84545 17.2437 6.1853 17.1851 6.51342 17.0679C6.81811 18.0171 7.59155 18.5913 8.61108 18.5913C8.88061 18.5913 9.16186 18.5562 9.44311 18.4741V22.3765C9.44311 23.853 10.4275 24.8374 11.8103 24.8374C13.2048 24.8374 14.1892 23.853 14.1892 22.3765V12.5913C14.1892 12.5327 14.2243 12.4859 14.2829 12.4859C14.3298 12.4859 14.365 12.521 14.3767 12.5679L15.1618 14.4429C15.5603 15.3569 16.24 15.8491 17.072 15.8491C18.2087 15.8491 19.2165 15.1226 19.2165 13.8335C19.2165 13.4819 19.1462 13.0132 19.0056 12.603L16.9431 6.80224C15.3845 2.40771 12.49 0.181152 8.35327 0.181152ZM8.29467 1.79834C11.5759 1.79834 14.0837 3.31006 15.5134 7.30615L17.5876 13.0952C17.6462 13.271 17.6814 13.4234 17.6814 13.6226C17.6814 14.0327 17.3767 14.3843 16.9079 14.3843C16.5095 14.3843 16.2751 14.1382 16.0993 13.7398L14.5056 10.1773C14.2478 9.5913 13.8845 9.4038 13.4743 9.4038C12.9821 9.4038 12.6306 9.79052 12.6306 10.3296V22.4819C12.6306 22.9741 12.2907 23.3257 11.8103 23.3257C11.3298 23.3257 11.0017 22.9741 11.0017 22.4819V13.8101C11.0017 13.3999 10.6501 13.0835 10.24 13.0835C9.84155 13.0835 9.51342 13.3999 9.51342 13.8101V16.9273C9.31421 17.021 9.04467 17.0796 8.8103 17.0796C8.22436 17.0796 7.8728 16.7046 7.8728 16.0835V13.3648C7.8728 12.9312 7.52124 12.6382 7.1228 12.6382C6.73608 12.6382 6.38452 12.9312 6.38452 13.3648V15.5796C6.1853 15.6734 5.91577 15.7319 5.69311 15.7319C5.09545 15.7319 4.75561 15.3569 4.75561 14.7359V12.9077C4.75561 12.4859 4.39233 12.1929 3.99389 12.1929C3.60717 12.1929 3.26733 12.4859 3.26733 12.9077V14.2554C2.22436 14.2554 1.62671 13.189 1.62671 11.314V9.18115C1.62671 4.47021 4.15795 1.79834 8.29467 1.79834Z" fill="black" fill-opacity="0.85"/>
</g>
<defs>
<clipPath id="clip0_2207_18830">
<rect width="19.1367" height="24.7617" fill="white" transform="translate(0.079834 0.0756836)"/>
</clipPath>
</defs>
</svg>
