<svg width="24" height="25" viewBox="0 0 24 25" fill="none" xmlns="http://www.w3.org/2000/svg">
<g clip-path="url(#clip0_2207_18712)">
<path d="M23.1384 7.56624C23.1384 4.09749 20.9587 1.19124 18.0642 1.19124H16.0017C18.1111 2.72639 19.0486 5.04671 19.0017 7.68342C18.9666 10.6131 17.8298 12.7107 16.8103 13.9763H18.4978C21.1111 13.9763 23.1384 11.1638 23.1384 7.56624ZM17.4314 7.64827C17.5017 3.37092 14.033 0.136548 8.58374 0.0896729L7.00171 0.0779542C5.47827 0.0662354 4.35327 0.183422 3.72046 0.359204C2.8064 0.58186 1.92749 1.13264 1.92749 2.24592C1.92749 2.69124 2.04468 3.03108 2.1853 3.27717C2.27905 3.4178 2.26733 3.54671 2.11499 3.6053C1.40015 3.89827 0.790771 4.58967 0.790771 5.50374C0.790771 6.0428 0.943115 6.49983 1.21265 6.82796C1.34155 7.00374 1.31811 7.15608 1.10718 7.28499C0.579834 7.58967 0.204834 8.24592 0.204834 9.00764C0.204834 9.55842 0.380615 10.1326 0.685302 10.4138C0.884521 10.5779 0.849365 10.6951 0.650146 10.8709C0.286865 11.1756 0.0524902 11.7029 0.0524902 12.3709C0.0524902 13.4959 0.931396 14.4217 2.09155 14.4217H6.21655C7.25952 14.4217 7.95093 14.9607 7.95093 15.8279C7.95093 17.3865 6.00561 20.2576 6.00561 22.3201C6.00561 23.4217 6.69702 24.0545 7.6228 24.0545C8.45483 24.0545 8.86499 23.4802 9.3103 22.6013C11.0564 19.2146 13.3767 16.4724 15.1463 14.117C16.6463 12.1248 17.3845 10.4138 17.4314 7.64827Z" fill="black" fill-opacity="0.85"/>
</g>
<defs>
<clipPath id="clip0_2207_18712">
<rect width="23.0859" height="24.0133" fill="white" transform="translate(0.0524902 0.0771484)"/>
</clipPath>
</defs>
</svg>
