<svg width="26" height="28" viewBox="0 0 26 28" fill="none" xmlns="http://www.w3.org/2000/svg">
<g clip-path="url(#clip0_2207_18670)">
<path d="M13.5558 26.1206C17.669 26.1206 20.5753 23.894 22.1339 19.4995L24.1964 13.6987C24.337 13.3003 24.4073 12.9135 24.4073 12.562C24.4073 11.3198 23.4698 10.4526 22.2745 10.4526C21.4659 10.4526 20.7394 10.9331 20.3409 11.8588L19.5792 13.7338C19.5558 13.7807 19.5206 13.8159 19.4737 13.8159C19.4151 13.8159 19.3917 13.769 19.3917 13.7104V4.31201C19.3917 2.94092 18.5362 2.07373 17.2237 2.07373C16.7433 2.07373 16.3097 2.24951 15.9815 2.5542C15.8292 1.34717 15.0558 0.608887 13.8956 0.608887C12.7589 0.608887 11.962 1.3706 11.7862 2.53076C11.4933 2.23779 11.0714 2.07373 10.6495 2.07373C9.43079 2.07373 8.62219 2.9292 8.62219 4.22998V5.53076C8.30579 5.20264 7.82532 5.02685 7.33313 5.02685C6.11438 5.02685 5.27063 5.91748 5.27063 7.2417V17.3081C5.27063 22.7924 8.59876 26.1206 13.5558 26.1206ZM13.4972 24.5034C9.34876 24.5034 6.81751 21.8315 6.81751 17.1206V7.40576C6.81751 6.90185 7.13391 6.56201 7.6261 6.56201C8.10657 6.56201 8.45813 6.90185 8.45813 7.40576V13.394C8.45813 13.8276 8.80969 14.1206 9.18469 14.1206C9.58313 14.1206 9.94641 13.8276 9.94641 13.394V4.44092C9.94641 3.93701 10.2628 3.58545 10.7433 3.58545C11.2355 3.58545 11.5753 3.93701 11.5753 4.44092V12.7963C11.5753 13.2299 11.9269 13.5229 12.3136 13.5229C12.712 13.5229 13.0636 13.2299 13.0636 12.7963V2.98779C13.0636 2.48389 13.4034 2.1206 13.8956 2.1206C14.3644 2.1206 14.7042 2.48389 14.7042 2.98779V12.7963C14.7042 13.2065 15.0323 13.5229 15.4425 13.5229C15.8409 13.5229 16.1925 13.2065 16.1925 12.7963V4.44092C16.1925 3.93701 16.5323 3.58545 17.0128 3.58545C17.4933 3.58545 17.8331 3.93701 17.8331 4.44092V15.9721C17.8331 16.5581 18.173 16.8979 18.6651 16.8979C19.087 16.8979 19.4386 16.7104 19.7081 16.1245L21.3956 12.3628C21.6183 11.8588 22.0519 11.6831 22.462 11.8354C22.919 11.9995 23.0597 12.4331 22.8487 13.0073L20.7042 18.9956C19.2745 22.9917 16.7667 24.5034 13.4972 24.5034Z" fill="black" fill-opacity="0.85"/>
<path d="M21.5128 27.1635C22.3917 28.0424 23.8683 28.0542 24.7355 27.1401C25.6026 26.2495 25.6026 24.8432 24.7237 23.9526L3.91126 3.15185C3.02063 2.26123 1.56751 2.26123 0.688599 3.15185C-0.190308 4.01904 -0.190308 5.48389 0.688599 6.36279L21.5128 27.1635Z" fill="white"/>
<path d="M22.4737 26.2026C22.8253 26.5424 23.4112 26.5542 23.7511 26.2026C24.1026 25.8393 24.1144 25.2768 23.7511 24.9253L2.9386 4.11279C2.58704 3.76123 2.01282 3.76123 1.64954 4.11279C1.30969 4.46435 1.30969 5.05029 1.64954 5.39014L22.4737 26.2026Z" fill="black" fill-opacity="0.85"/>
</g>
<defs>
<clipPath id="clip0_2207_18670">
<rect width="25.355" height="27.7471" fill="white" transform="translate(0.0294189 0.0771484)"/>
</clipPath>
</defs>
</svg>
