<svg width="24" height="27" viewBox="0 0 24 27" fill="none" xmlns="http://www.w3.org/2000/svg">
<g clip-path="url(#clip0_2207_18690)">
<path d="M0.0546875 17.3388C0.0546875 21.124 2.52735 24.3115 5.51563 24.3115H9.25391C10.7422 25.0966 12.5469 25.5537 14.5625 25.5537H16.1328C17.5391 25.5537 18.7578 25.4716 19.5664 25.2724C21.1367 24.8857 22.1211 23.7959 22.1211 22.413C22.1211 22.1201 22.0742 21.8623 22.0039 21.6044C22.7774 21.0185 23.2109 20.163 23.2109 19.2255C23.2109 18.7685 23.1172 18.3115 22.9531 17.9482C23.4805 17.4091 23.7735 16.624 23.7735 15.8037C23.7735 15.2763 23.6445 14.7138 23.4219 14.3037C23.7383 13.8466 23.9258 13.2021 23.9258 12.5224C23.9258 10.8349 22.6016 9.49903 20.9141 9.49903H16.6367C16.3789 9.49903 16.2149 9.38184 16.2149 9.15918C16.2149 7.94043 18.1367 5.08106 18.1367 2.78418C18.1367 1.20215 17.0352 0.0771484 15.5235 0.0771484C14.4102 0.0771484 13.6602 0.651367 12.9219 2.05762C11.5508 4.69434 9.91016 7.06153 7.23828 10.3193H5.09375C2.30469 10.3193 0.0546875 13.4716 0.0546875 17.3388ZM6.65235 17.2802C6.65235 14.831 7.20313 13.2724 8.72657 11.2216C10.4258 8.94824 12.7813 6.22949 14.4805 2.85449C14.9024 1.99903 15.1836 1.81153 15.5938 1.81153C16.0742 1.81153 16.4024 2.15137 16.4024 2.78418C16.4024 4.61231 14.4805 7.37793 14.4805 9.15918C14.4805 10.4482 15.5352 11.2333 16.8828 11.2333H20.9141C21.6406 11.2333 22.1914 11.7841 22.1914 12.5224C22.1914 13.0615 22.0156 13.4013 21.582 13.8466C21.3711 14.0341 21.3477 14.2685 21.5235 14.4912C21.8867 15.0302 22.0391 15.3583 22.0391 15.8037C22.0391 16.331 21.793 16.788 21.2774 17.1748C20.9961 17.3974 20.8789 17.6904 21.043 18.0419C21.3359 18.5693 21.4766 18.8154 21.4766 19.2255C21.4766 19.8232 21.0899 20.2802 20.2695 20.7021C20.0117 20.8544 19.9531 21.0654 20.0586 21.3115C20.3399 22.0146 20.375 22.1201 20.375 22.413C20.375 22.9521 19.9766 23.3857 19.1563 23.5966C18.4883 23.7607 17.4219 23.831 16.1445 23.831H14.6914C9.86328 23.831 6.65235 21.0888 6.65235 17.2802ZM1.78907 17.3388C1.78907 14.4209 3.35938 12.0537 5.09375 12.0537C5.4336 12.0537 5.77344 12.0537 6.11328 12.0537C5.28125 13.624 4.91797 15.2646 4.91797 17.2451C4.91797 19.3427 5.66797 21.1709 7.01563 22.5654C6.51172 22.5654 6.01953 22.5654 5.51563 22.5654C3.53516 22.5654 1.78907 20.1748 1.78907 17.3388Z" fill="black" fill-opacity="0.85"/>
</g>
<defs>
<clipPath id="clip0_2207_18690">
<rect width="23.8711" height="26.168" fill="white" transform="translate(0.0546875 0.0771484)"/>
</clipPath>
</defs>
</svg>
