<svg width="30" height="26" viewBox="0 0 30 26" fill="none" xmlns="http://www.w3.org/2000/svg">
<g clip-path="url(#clip0_2207_18764)">
<path d="M0.00415039 9.82886C0.00415039 10.2625 0.355712 10.614 0.801025 10.614H7.09399C7.52759 10.614 7.87915 10.2625 7.87915 9.82886C7.87915 9.38354 7.52759 9.03198 7.09399 9.03198H0.801025C0.355712 9.03198 0.00415039 9.38354 0.00415039 9.82886Z" fill="black" fill-opacity="0.85"/>
<path d="M0.00415039 5.42261C0.00415039 5.8562 0.355712 6.20776 0.801025 6.20776H11.3948C11.8284 6.20776 12.18 5.8562 12.18 5.42261C12.18 4.98901 11.8284 4.62573 11.3948 4.62573H0.801025C0.355712 4.62573 0.00415039 4.98901 0.00415039 5.42261Z" fill="black" fill-opacity="0.85"/>
<path d="M0.00415039 1.01636C0.00415039 1.44995 0.355712 1.81323 0.801025 1.81323H11.3948C11.8284 1.81323 12.18 1.44995 12.18 1.01636C12.18 0.582763 11.8284 0.231201 11.3948 0.231201H0.801025C0.355712 0.231201 0.00415039 0.582763 0.00415039 1.01636Z" fill="black" fill-opacity="0.85"/>
<path d="M23.09 24.2897C28.7268 22.2272 30.7072 17.3405 28.5627 11.4108L27.6135 8.80929C26.7697 6.48898 24.0861 4.83664 22.1291 6.21945C20.758 5.28195 19.1408 5.64523 18.4025 6.23117C17.465 5.53976 16.1994 5.39914 15.1682 5.91476L13.7853 2.11789C13.176 0.465544 11.5353 -0.296176 10.0236 0.254605C8.44165 0.828824 7.70337 2.45773 8.28931 4.11008L10.9729 11.4811L10.5744 11.1413C9.98853 10.8132 9.16821 10.7546 8.45337 11.0124C7.23462 11.4577 6.50806 12.5358 6.50806 13.696C6.50806 14.446 6.82446 15.1374 7.28149 15.6999L10.9963 20.3639C14.6174 24.8874 18.9885 25.778 23.09 24.2897Z" fill="white"/>
<path d="M22.5393 22.7898C27.3205 21.0437 28.9143 17.0711 27.051 11.9617L26.2893 9.8406C25.5744 7.90701 24.2268 7.06326 23.1721 7.44998C22.926 7.53201 22.8439 7.70779 22.926 7.93045L23.2658 8.86795C23.4299 9.31326 23.2893 9.61795 23.0197 9.7117C22.7385 9.81717 22.4338 9.67654 22.2697 9.23123L22.0471 8.62185C21.6252 7.48514 20.6291 7.00467 19.6447 7.35623C19.1994 7.52029 19.0588 7.7781 19.1994 8.1531L19.6682 9.43045C19.8205 9.87576 19.6799 10.1687 19.4221 10.2742C19.1291 10.3797 18.8244 10.239 18.6603 9.79373L18.2385 8.62185C17.7697 7.34451 16.8088 7.00467 15.8479 7.35623C15.426 7.50857 15.2736 7.78982 15.4025 8.1531L16.3166 10.6492C16.4807 11.0945 16.3283 11.3992 16.0705 11.4929C15.7775 11.5984 15.4729 11.4578 15.3088 11.0125L12.2736 2.65701C11.9807 1.84842 11.2541 1.50857 10.5627 1.75467C9.82445 2.0242 9.50805 2.73904 9.80102 3.55935L14.2541 15.7937C14.3596 16.0984 14.2307 16.3328 14.0432 16.4031C13.8557 16.4617 13.6564 16.4031 13.4221 16.157L10.4103 12.9226C9.95336 12.4422 9.49633 12.3367 9.00414 12.5125C8.25414 12.782 7.96117 13.4734 8.18383 14.1062C8.27758 14.3523 8.40648 14.5398 8.52367 14.7039L12.2502 19.3679C15.3908 23.3054 19.0236 24.0672 22.5393 22.7898Z" fill="black" fill-opacity="0.85"/>
</g>
<defs>
<clipPath id="clip0_2207_18764">
<rect width="29.4032" height="25.4682" fill="white" transform="translate(0.00415039 0.0771484)"/>
</clipPath>
</defs>
</svg>
