<svg width="22" height="22" viewBox="0 0 22 22" fill="none" xmlns="http://www.w3.org/2000/svg">
<g clip-path="url(#clip0_2207_18650)">
<path d="M3.71326 21.9326H17.9281C20.3891 21.9326 21.6078 20.7255 21.6078 18.3115V3.99121C21.6078 1.57715 20.3891 0.358398 17.9281 0.358398H3.71326C1.26404 0.358398 0.0335693 1.57715 0.0335693 3.99121V18.3115C0.0335693 20.7255 1.26404 21.9326 3.71326 21.9326ZM3.73669 20.0459C2.56482 20.0459 1.92029 19.4248 1.92029 18.206V4.09668C1.92029 2.87793 2.56482 2.24512 3.73669 2.24512H17.9047C19.0648 2.24512 19.7211 2.87793 19.7211 4.09668V18.206C19.7211 19.4248 19.0648 20.0459 17.9047 20.0459H3.73669Z" fill="black" fill-opacity="0.85"/>
<path d="M5.86951 13.331C5.86951 16.3193 7.8031 18.1357 10.557 18.1357C12.6313 18.1357 14.0492 17.3038 14.9984 15.3583C15.5141 14.3505 15.9125 13.1435 16.3344 11.749C16.5102 11.1748 16.7563 10.4599 16.7563 10.1435C16.7563 9.76856 16.475 9.51074 16.0883 9.51074C15.643 9.51074 15.3852 9.78027 15.0688 10.4248L14.1195 12.4287C14.0258 12.6396 13.932 12.7099 13.8266 12.7099C13.6859 12.7099 13.6039 12.6162 13.6039 12.4169V5.28027C13.6039 4.87012 13.2641 4.53027 12.8539 4.53027C12.4438 4.53027 12.1156 4.87012 12.1156 5.28027V10.3427C11.9281 10.2959 11.7406 10.2255 11.5414 10.1904V4.28418C11.5414 3.88574 11.2133 3.53418 10.7914 3.53418C10.3813 3.53418 10.0414 3.88574 10.0414 4.28418V10.1083C9.84216 10.1318 9.64295 10.1552 9.44373 10.1904V4.87012C9.44373 4.45996 9.10388 4.13184 8.69373 4.13184C8.28357 4.13184 7.94373 4.45996 7.94373 4.87012V10.6709C7.73279 10.7646 7.55701 10.8818 7.36951 10.9873V7.00293C7.36951 6.59277 7.02966 6.24121 6.63123 6.24121C6.20935 6.24121 5.86951 6.59277 5.86951 7.00293V13.331Z" fill="black" fill-opacity="0.85"/>
</g>
<defs>
<clipPath id="clip0_2207_18650">
<rect width="21.5742" height="21.8555" fill="white" transform="translate(0.0335693 0.0771484)"/>
</clipPath>
</defs>
</svg>
