<svg width="26" height="28" viewBox="0 0 26 28" fill="none" xmlns="http://www.w3.org/2000/svg">
<g clip-path="url(#clip0_2207_18676)">
<path d="M5.47192 17.8354C5.47192 23.0034 8.85864 26.062 13.511 26.062C17.2376 26.062 19.5461 24.5034 21.0813 21.3745C21.9836 19.6401 22.6751 17.5542 23.4133 15.1401C23.718 14.1557 24.1516 12.9018 24.1516 12.3393C24.1516 11.7065 23.6946 11.2846 23.0266 11.2846C22.2883 11.2846 21.843 11.7534 21.304 12.8667L19.6751 16.2885C19.511 16.6635 19.3235 16.8042 19.136 16.8042C18.8899 16.8042 18.7258 16.6635 18.7258 16.2534V3.96045C18.7258 3.26904 18.1633 2.70654 17.4719 2.70654C16.7805 2.70654 16.218 3.26904 16.218 3.96045V12.7495C15.9016 12.6323 15.5501 12.5385 15.1751 12.4682V2.27295C15.1751 1.58154 14.6126 1.00732 13.9211 1.00732C13.2297 1.00732 12.6555 1.58154 12.6555 2.27295V12.3393C12.2922 12.3628 11.9172 12.4213 11.554 12.4799V3.26904C11.554 2.57764 10.9915 2.01514 10.3001 2.01514C9.60864 2.01514 9.04614 2.57764 9.04614 3.26904V13.2768C8.65942 13.4643 8.30786 13.6635 7.99145 13.8745V6.91357C7.99145 6.22217 7.42895 5.65967 6.73754 5.65967C6.04614 5.65967 5.47192 6.22217 5.47192 6.91357V17.8354Z" fill="black" fill-opacity="0.85"/>
<path d="M21.5149 27.1635C22.3938 28.0424 23.8704 28.0542 24.7376 27.1401C25.6047 26.2495 25.6047 24.8432 24.7258 23.9526L3.91333 3.15185C3.0227 2.26123 1.56958 2.26123 0.690674 3.15185C-0.188233 4.01904 -0.188233 5.48389 0.690674 6.36279L21.5149 27.1635Z" fill="white"/>
<path d="M22.4758 26.2026C22.8274 26.5424 23.4133 26.5542 23.7532 26.2026C24.1047 25.8393 24.1165 25.2768 23.7532 24.9253L2.94068 4.11279C2.58912 3.76123 2.0149 3.76123 1.65162 4.11279C1.31177 4.46435 1.31177 5.05029 1.65162 5.39014L22.4758 26.2026Z" fill="black" fill-opacity="0.85"/>
</g>
<defs>
<clipPath id="clip0_2207_18676">
<rect width="25.355" height="27.7471" fill="white" transform="translate(0.0314941 0.0771484)"/>
</clipPath>
</defs>
</svg>
