<svg width="24" height="25" viewBox="0 0 24 25" fill="none" xmlns="http://www.w3.org/2000/svg">
<g clip-path="url(#clip0_2207_18694)">
<path d="M0.0610352 16.5654C0.0610352 20.0341 2.22901 22.9404 5.13526 22.9404H7.19776C5.08838 21.4052 4.2212 19.0849 4.2212 16.4482C4.23292 13.5185 5.36963 11.4209 6.37745 10.1552H4.70166C2.08838 10.1552 0.0610352 12.9677 0.0610352 16.5654ZM5.83838 16.4716C5.83838 20.7491 9.17822 24.0537 14.6274 24.0537H16.2212C17.7329 24.0537 18.8579 23.9482 19.4907 23.7724C20.4048 23.5498 21.2837 22.9873 21.2837 21.8857C21.2837 21.4287 21.1665 21.1005 21.0258 20.8544C20.9321 20.7021 20.9555 20.5849 21.0962 20.5263C21.8227 20.2216 22.4204 19.5419 22.4204 18.6162C22.4204 18.0888 22.268 17.6201 22.0102 17.3037C21.8813 17.1279 21.893 16.9639 22.1157 16.8466C22.6313 16.5419 23.0063 15.8857 23.0063 15.124C23.0063 14.5732 22.8305 13.999 22.5258 13.7177C22.3383 13.5537 22.3735 13.4365 22.561 13.2607C22.9243 12.956 23.1587 12.4287 23.1587 11.7607C23.1587 10.6357 22.2798 9.70996 21.1196 9.70996H16.9946C15.9516 9.70996 15.2602 9.1709 15.2602 8.30371C15.2602 6.74512 17.2172 3.86231 17.2172 1.79981C17.2172 0.70996 16.5141 0.0771484 15.6001 0.0771484C14.7563 0.0771484 14.3462 0.651367 13.9008 1.53027C12.1548 4.91699 9.83448 7.65918 8.06495 10.0029C6.56495 11.9951 5.83838 13.7177 5.83838 16.4716Z" fill="black" fill-opacity="0.85"/>
</g>
<defs>
<clipPath id="clip0_2207_18694">
<rect width="23.0977" height="24.668" fill="white" transform="translate(0.0610352 0.0771484)"/>
</clipPath>
</defs>
</svg>
