<svg width="34" height="23" viewBox="0 0 34 23" fill="none" xmlns="http://www.w3.org/2000/svg">
<g clip-path="url(#clip0_2207_16012)">
<path d="M0.0146484 11.5029C0.0146484 15.2177 1.22168 18.6279 3.26074 21.4052C3.62403 21.9091 4.24512 21.956 4.71387 21.581C5.13574 21.2177 5.19434 20.6552 4.85449 20.1865C3.07324 17.7607 2.01856 14.749 2.01856 11.5029C2.01856 8.24508 3.07324 5.24508 4.85449 2.79586C5.19434 2.35055 5.14746 1.77633 4.71387 1.41305C4.24512 1.03804 3.62403 1.09664 3.26074 1.58883C1.22168 4.36617 0.0146484 7.78805 0.0146484 11.5029ZM33.4599 11.5029C33.4599 7.78805 32.2646 4.36617 30.2138 1.58883C29.8505 1.09664 29.2294 1.03804 28.7607 1.41305C28.3271 1.77633 28.2919 2.35055 28.6201 2.79586C30.413 5.24508 31.456 8.24508 31.456 11.5029C31.456 14.749 30.413 17.7607 28.6201 20.1865C28.2919 20.6552 28.3388 21.2177 28.7607 21.581C29.2294 21.956 29.8505 21.9091 30.2138 21.4052C32.2646 18.6279 33.4599 15.2177 33.4599 11.5029Z" fill="black" fill-opacity="0.85"/>
<path d="M16.7373 22.9287C22.9834 22.9287 28.1748 17.749 28.1748 11.5029C28.1748 5.25684 22.9834 0.0771484 16.7255 0.0771484C10.4794 0.0771484 5.31153 5.24512 5.31153 11.5029C5.31153 17.749 10.4912 22.9287 16.7373 22.9287ZM16.7373 20.9365C11.5107 20.9365 7.31543 16.7412 7.31543 11.5029C7.31543 6.25293 11.499 2.05762 16.7255 2.05762C21.9638 2.05762 26.1708 6.25293 26.1826 11.5029C26.1943 16.7294 21.9873 20.9365 16.7373 20.9365Z" fill="black" fill-opacity="0.85"/>
<path d="M12.2255 13.8232C12.2255 16.6826 14.0771 18.4287 16.7138 18.4287C18.706 18.4287 20.0771 17.6318 20.9794 15.7451C21.4834 14.7841 21.8584 13.6123 22.2568 12.2763C22.4326 11.7255 22.6787 11.0576 22.6787 10.7646C22.6787 10.4013 22.4091 10.1552 22.0224 10.1552C21.6005 10.1552 21.3544 10.413 21.0498 11.0107L20.1357 12.9443C20.0654 13.1435 19.9599 13.2255 19.8544 13.2255C19.7138 13.2255 19.6435 13.1318 19.6435 12.9326V6.08886C19.6435 5.70214 19.3154 5.37402 18.9287 5.37402C18.5302 5.37402 18.2138 5.70214 18.2138 6.08886V10.9404C18.038 10.8935 17.8505 10.8232 17.663 10.788V5.13964C17.663 4.7412 17.3466 4.4248 16.9482 4.4248C16.5498 4.4248 16.2334 4.7412 16.2334 5.13964V10.7177C16.0341 10.7529 15.8349 10.7529 15.6591 10.788V5.70214C15.6591 5.3037 15.3193 4.9873 14.9326 4.9873C14.5341 4.9873 14.2177 5.3037 14.2177 5.70214V11.2568C14.0068 11.3388 13.8427 11.456 13.6669 11.5615V7.7412C13.6669 7.34276 13.3388 7.01464 12.9521 7.01464C12.5537 7.01464 12.2255 7.34276 12.2255 7.7412V13.8232Z" fill="black" fill-opacity="0.85"/>
</g>
<defs>
<clipPath id="clip0_2207_16012">
<rect width="33.4453" height="22.8633" fill="white" transform="translate(0.0146484 0.0771484)"/>
</clipPath>
</defs>
</svg>
