<svg width="25" height="26" viewBox="0 0 25 26" fill="none" xmlns="http://www.w3.org/2000/svg">
<g clip-path="url(#clip0_2207_10643)">
<path d="M4.86523 8.80762H6.75195V7.13184C6.75195 4.20215 9.10742 1.96387 12.1777 1.96387C15.2481 1.96387 17.6035 4.20215 17.6035 7.13184V8.80762H19.4902V7.13184C19.4902 3.13574 16.3262 0.0771484 12.1777 0.0771484C8.04102 0.0771484 4.86523 3.13574 4.86523 7.13184V8.80762ZM12.1777 14.3974C16.0918 14.3974 19.5606 12.8505 21.5527 8.81934C21.0371 8.51465 20.4043 8.37403 19.666 8.37403H4.68945C3.95117 8.37403 3.31836 8.51465 2.80273 8.81934C4.80664 12.8505 8.26367 14.3974 12.1777 14.3974ZM24.2246 20.2802L23.2168 11.6083C23.1465 11.0341 23.0059 10.5771 22.7715 10.1787C20.8027 13.7412 17.7793 15.5341 14.5215 16.0966V16.9287C14.5215 17.7255 14.0527 18.1709 13.2559 18.1709H11.0996C10.3027 18.1709 9.83398 17.7255 9.83398 16.9287V16.0966C6.57617 15.5341 3.55273 13.7529 1.58398 10.1904C1.36133 10.5771 1.2207 11.0341 1.15039 11.6083L0.130856 20.2802C-0.232426 23.3271 1.13867 24.9912 3.98633 24.9912H20.3692C23.2285 24.9912 24.5879 23.3271 24.2246 20.2802Z" fill="black" fill-opacity="0.85"/>
</g>
<defs>
<clipPath id="clip0_2207_10643">
<rect width="24.2088" height="24.9258" fill="white" transform="translate(0.0734863 0.0771484)"/>
</clipPath>
</defs>
</svg>
