<svg width="25" height="23" viewBox="0 0 25 23" fill="none" xmlns="http://www.w3.org/2000/svg">
<g clip-path="url(#clip0_2207_16245)">
<path d="M4.98129 18.7685H19.7587C20.2391 18.7685 20.5087 18.3232 20.2626 17.8896L12.8798 4.98731C12.6337 4.55371 12.1063 4.55371 11.8602 4.98731L4.47738 17.8896C4.21957 18.3349 4.50082 18.7685 4.98129 18.7685ZM7.32504 16.999C7.18441 16.999 7.10238 16.8701 7.17269 16.7413L12.2235 7.91699C12.2938 7.78809 12.4579 7.78809 12.5282 7.91699L17.5673 16.7413C17.6376 16.8701 17.5555 16.999 17.4149 16.999H7.32504Z" fill="black" fill-opacity="0.85"/>
<path d="M3.2937 22.3427H21.4578C23.45 22.3427 24.657 20.9599 24.657 19.1669C24.657 18.6162 24.4929 18.0419 24.2 17.5263L15.1062 1.68262C14.4968 0.61621 13.4539 0.0771484 12.3757 0.0771484C11.2976 0.0771484 10.2429 0.61621 9.64526 1.68262L0.551513 17.5263C0.235107 18.0537 0.0944824 18.6162 0.0944824 19.1669C0.0944824 20.9599 1.30151 22.3427 3.2937 22.3427ZM3.30542 20.5029C2.4851 20.5029 1.99292 19.8701 1.99292 19.1552C1.99292 18.9326 2.03979 18.6513 2.1687 18.4052L11.2507 2.57324C11.4968 2.13965 11.9422 1.95215 12.3757 1.95215C12.8093 1.95215 13.2429 2.13965 13.489 2.57324L22.5711 18.4169C22.7 18.663 22.7586 18.9326 22.7586 19.1552C22.7586 19.8701 22.2429 20.5029 21.4343 20.5029H3.30542Z" fill="black" fill-opacity="0.85"/>
</g>
<defs>
<clipPath id="clip0_2207_16245">
<rect width="24.5625" height="22.3945" fill="white" transform="translate(0.0944824 0.0771484)"/>
</clipPath>
</defs>
</svg>
