<svg width="33" height="24" viewBox="0 0 33 24" fill="none" xmlns="http://www.w3.org/2000/svg">
<g clip-path="url(#clip0_2207_15676)">
<path d="M12.6005 6.92188V5.02344L0.799804 8.17579C0.307617 8.30469 0.0146484 8.66797 0.0146484 9.13672C0.0146484 9.75782 0.506836 10.1562 1.19824 9.98047L12.6005 6.92188ZM12.6005 11.0937V9.1836L0.799804 12.3476C0.307617 12.4883 0.0146484 12.8515 0.0146484 13.3203C0.0146484 13.9414 0.530273 14.3398 1.19824 14.164L12.6005 11.0937ZM12.6005 15.3008V13.3789L0.799804 16.5312C0.307617 16.6601 0.0146484 17.0351 0.0146484 17.4922C0.0146484 18.125 0.506836 18.5234 1.19824 18.3359L12.6005 15.3008ZM12.6005 19.4726V17.5625L0.799804 20.7148C0.307617 20.8437 0.0146484 21.207 0.0146484 21.6758C0.0146484 22.3086 0.518555 22.707 1.19824 22.5195L12.6005 19.4726Z" fill="black" fill-opacity="0.85"/>
<path d="M9.23731 11.914C9.23731 14.2343 9.42481 16.6015 10.1044 18.9922C11.0771 22.3554 13.2802 23.7265 16.9482 23.7265H17.6044C25.4677 23.7265 32.6279 18.4765 32.6279 11.914C32.6279 5.36329 25.4912 0.078125 17.6044 0.078125H16.9482C13.2919 0.078125 11.0888 1.47265 10.1044 4.8125C9.42481 7.22656 9.23731 9.59375 9.23731 11.914Z" fill="white"/>
<path d="M11.3349 11.914C11.3349 14.1172 11.4873 16.2617 12.1084 18.4179C12.8115 20.8086 14.1357 21.664 16.9482 21.664H17.6163C24.4717 21.664 30.5537 17.1758 30.5537 11.914C30.5537 6.66406 24.4717 2.16406 17.6163 2.16406H16.9482C14.1474 2.16406 12.8232 3.01953 12.1084 5.41015C11.4873 7.57812 11.3349 9.72265 11.3349 11.914Z" fill="black" fill-opacity="0.85"/>
</g>
<defs>
<clipPath id="clip0_2207_15676">
<rect width="32.6133" height="23.6836" fill="white" transform="translate(0.0146484 0.078125)"/>
</clipPath>
</defs>
</svg>
