<svg width="33" height="24" viewBox="0 0 33 24" fill="none" xmlns="http://www.w3.org/2000/svg">
<g clip-path="url(#clip0_2207_15670)">
<path d="M12.5986 6.92188V5.02344L0.797851 8.17579C0.305664 8.30469 0.0126953 8.66797 0.0126953 9.13672C0.0126953 9.75782 0.504883 10.1562 1.19629 9.98047L12.5986 6.92188ZM12.5986 11.0937V9.1836L0.797851 12.3476C0.305664 12.4883 0.0126953 12.8515 0.0126953 13.3203C0.0126953 13.9414 0.52832 14.3398 1.19629 14.164L12.5986 11.0937ZM12.5986 15.3008V13.3789L0.797851 16.5312C0.305664 16.6601 0.0126953 17.0351 0.0126953 17.4922C0.0126953 18.125 0.504883 18.5234 1.19629 18.3359L12.5986 15.3008ZM12.5986 19.4726V17.5625L0.797851 20.7148C0.305664 20.8437 0.0126953 21.207 0.0126953 21.6758C0.0126953 22.3086 0.516601 22.707 1.19629 22.5195L12.5986 19.4726Z" fill="black" fill-opacity="0.85"/>
<path d="M9.23535 11.914C9.23535 14.2343 9.42285 16.6015 10.1025 18.9922C11.0752 22.3554 13.2783 23.7265 16.9463 23.7265H17.6025C25.4658 23.7265 32.626 18.4765 32.626 11.914C32.626 5.36329 25.4893 0.078125 17.6025 0.078125H16.9463C13.29 0.078125 11.0869 1.47265 10.1025 4.8125C9.42285 7.22656 9.23535 9.59375 9.23535 11.914Z" fill="white"/>
<path d="M11.333 11.914C11.333 14.1172 11.4854 16.2617 12.1065 18.4179C12.8096 20.8086 14.1338 21.664 16.9463 21.664H17.6143C24.4697 21.664 30.5518 17.1758 30.5518 11.914C30.5518 6.66406 24.4697 2.16406 17.6143 2.16406H16.9463C14.1455 2.16406 12.8213 3.01953 12.1065 5.41015C11.4854 7.57812 11.333 9.72265 11.333 11.914ZM13.2432 11.914C13.2432 9.48828 13.4307 7.69531 13.9346 5.9375C14.3447 4.57812 15.1768 4.07421 16.9463 4.07421H17.6143C23.3565 4.07421 28.6416 7.74218 28.6416 11.914C28.6416 16.0859 23.3565 19.7539 17.6143 19.7539H16.9463C15.1416 19.7539 14.3447 19.25 13.9346 17.9023C13.4307 16.1211 13.2432 14.3515 13.2432 11.914Z" fill="black" fill-opacity="0.85"/>
</g>
<defs>
<clipPath id="clip0_2207_15670">
<rect width="32.6133" height="23.6836" fill="white" transform="translate(0.0126953 0.078125)"/>
</clipPath>
</defs>
</svg>
