<svg width="31" height="21" viewBox="0 0 31 21" fill="none" xmlns="http://www.w3.org/2000/svg">
<g clip-path="url(#clip0_2207_15696)">
<path d="M0.94165 5.11166C0.437744 5.11166 0.00415039 5.54525 0.00415039 6.06087C0.00415039 6.5765 0.449462 6.99837 0.94165 6.99837L9.85962 7.0101C9.94165 6.38901 10.0237 5.74448 10.1526 5.11166H0.94165ZM0.94165 9.56479C0.437744 9.56479 0.00415039 10.0218 0.00415039 10.5257C0.00415039 11.0413 0.437744 11.4515 0.94165 11.4515H9.70727C9.69556 11.1116 9.69556 9.91634 9.70727 9.56479H0.94165ZM0.94165 14.0296C0.437744 14.0296 0.00415039 14.4749 0.00415039 14.9788C0.00415039 15.4944 0.437744 15.9163 0.94165 15.9163L10.1526 15.928C10.0237 15.2835 9.94165 14.6507 9.85962 14.0413L0.94165 14.0296ZM4.05884 19.303C3.07446 20.2523 4.35181 21.553 5.35962 20.639C7.66821 18.471 8.13696 14.4398 6.60181 10.5726L6.37915 10.0101C5.09009 6.74056 5.31274 3.43587 7.00024 1.72494C7.98462 0.775722 6.71899 -0.525059 5.68774 0.389004C3.37915 2.5687 2.92212 6.5765 4.45727 10.4437L4.69165 11.0062C5.99243 14.2991 5.75806 17.5804 4.05884 19.303Z" fill="black" fill-opacity="0.85"/>
<path d="M11.2893 10.5141C11.2658 12.7758 11.4533 14.9438 12.0744 17.1586C12.7893 19.5727 14.1486 20.4281 17.008 20.4281H17.6643C24.6486 20.4281 30.8713 15.8695 30.8713 10.5141C30.8713 5.15857 24.6486 0.576538 17.6643 0.576538H17.008C14.1603 0.576538 12.801 1.44373 12.0744 3.85779C11.4533 6.08435 11.2658 8.25232 11.2893 10.5141ZM13.176 10.5141C13.1643 7.99451 13.3752 6.1781 13.8908 4.38513C14.3127 2.97888 15.1682 2.45154 17.008 2.45154H17.6643C23.5588 2.45154 28.9846 6.23669 28.9846 10.5141C28.9846 14.7914 23.5588 18.5531 17.6643 18.5531H17.008C15.1447 18.5531 14.301 18.0258 13.8908 16.643C13.3752 14.85 13.1643 13.0336 13.176 10.5141Z" fill="black" fill-opacity="0.85"/>
</g>
<defs>
<clipPath id="clip0_2207_15696">
<rect width="30.8672" height="20.8835" fill="white" transform="translate(0.00415039 0.078125)"/>
</clipPath>
</defs>
</svg>
