<svg width="22" height="22" viewBox="0 0 22 22" fill="none" xmlns="http://www.w3.org/2000/svg">
<g clip-path="url(#clip0_2207_7905)">
<path d="M3.73218 21.6758H17.947C20.408 21.6758 21.6267 20.457 21.6267 18.0429V3.73438C21.6267 1.32031 20.408 0.101562 17.947 0.101562H3.73218C1.28296 0.101562 0.0524902 1.30859 0.0524902 3.73438V18.0429C0.0524902 20.4687 1.28296 21.6758 3.73218 21.6758ZM3.75561 19.789C2.58374 19.789 1.93921 19.1679 1.93921 17.9492V3.82812C1.93921 2.60938 2.58374 1.98828 3.75561 1.98828H17.9236C19.0837 1.98828 19.74 2.60938 19.74 3.82812V17.9492C19.74 19.1679 19.0837 19.789 17.9236 19.789H3.75561Z" fill="black" fill-opacity="0.85"/>
<path d="M8.04468 5.70312C6.06421 5.70312 4.6228 7.20312 4.6228 9.27734C4.6228 12.3593 7.8689 15.1953 10.283 16.7187C10.4822 16.8359 10.74 17 10.8806 17C11.033 17 11.2673 16.8476 11.4431 16.7187C13.822 15.1601 17.0916 12.3593 17.0916 9.27734C17.0916 7.20312 15.6619 5.70312 13.6697 5.70312C12.4392 5.70312 11.4431 6.41797 10.8572 7.48438C10.283 6.41797 9.29858 5.70312 8.04468 5.70312Z" fill="black" fill-opacity="0.85"/>
</g>
<defs>
<clipPath id="clip0_2207_7905">
<rect width="21.5742" height="21.5977" fill="white" transform="translate(0.0524902 0.078125)"/>
</clipPath>
</defs>
</svg>
