<svg width="28" height="22" viewBox="0 0 28 22" fill="none" xmlns="http://www.w3.org/2000/svg">
<g clip-path="url(#clip0_2207_7920)">
<path d="M3.72168 21.6523H23.9951C26.4561 21.6523 27.6748 20.4453 27.6748 18.0312V3.71094C27.6748 1.29688 26.4561 0.078125 23.9951 0.078125H3.72168C1.27246 0.078125 0.0419922 1.29688 0.0419922 3.71094V18.0312C0.0419922 20.4453 1.27246 21.6523 3.72168 21.6523Z" fill="black" fill-opacity="0.85"/>
<path d="M10.9522 5.52734C12.2529 5.52734 13.2608 6.26562 13.8584 7.36718C14.4678 6.26562 15.4873 5.52734 16.7647 5.52734C18.8154 5.52734 20.292 7.07421 20.292 9.21874C20.292 12.3828 16.917 15.2773 14.4678 16.8828C14.2803 17.0234 14.0459 17.1758 13.8818 17.1758C13.7412 17.1758 13.4717 17.0117 13.2608 16.8828C10.7881 15.3125 7.43652 12.3828 7.43652 9.21874C7.43652 7.07421 8.91308 5.52734 10.9522 5.52734Z" fill="white"/>
</g>
<defs>
<clipPath id="clip0_2207_7920">
<rect width="27.6328" height="21.5742" fill="white" transform="translate(0.0419922 0.078125)"/>
</clipPath>
</defs>
</svg>
