<svg width="24" height="23" viewBox="0 0 24 23" fill="none" xmlns="http://www.w3.org/2000/svg">
<g clip-path="url(#clip0_2207_7887)">
<path d="M0.0314941 7.87109C0.0314941 12.8633 4.21508 17.7734 10.8245 21.9922C11.0706 22.1445 11.4221 22.3086 11.6682 22.3086C11.9143 22.3086 12.2659 22.1445 12.5237 21.9922C19.1213 17.7734 23.3049 12.8633 23.3049 7.87109C23.3049 3.72265 20.4573 0.792969 16.6604 0.792969C14.4924 0.792969 12.7346 1.82421 11.6682 3.40624C10.6253 1.83593 8.84399 0.792969 6.67602 0.792969C2.87915 0.792969 0.0314941 3.72265 0.0314941 7.87109ZM1.91821 7.87109C1.91821 4.7539 3.93383 2.67968 6.65258 2.67968C8.85571 2.67968 10.1213 4.05078 10.8713 5.22265C11.1877 5.6914 11.387 5.82031 11.6682 5.82031C11.9495 5.82031 12.1253 5.67968 12.4651 5.22265C13.2737 4.07421 14.4924 2.67968 16.6838 2.67968C19.4026 2.67968 21.4182 4.7539 21.4182 7.87109C21.4182 12.2304 16.8127 16.9297 11.9143 20.1875C11.7971 20.2695 11.7151 20.3281 11.6682 20.3281C11.6213 20.3281 11.5393 20.2695 11.4338 20.1875C6.52368 16.9297 1.91821 12.2304 1.91821 7.87109Z" fill="black" fill-opacity="0.85"/>
</g>
<defs>
<clipPath id="clip0_2207_7887">
<rect width="23.2734" height="22.2305" fill="white" transform="translate(0.0314941 0.078125)"/>
</clipPath>
</defs>
</svg>
