<svg width="24" height="26" viewBox="0 0 24 26" fill="none" xmlns="http://www.w3.org/2000/svg">
<g clip-path="url(#clip0_2207_7827)">
<path d="M1.75781 20.2388L9.77344 24.8559C11.1562 25.6528 12.5039 25.6645 13.9101 24.8559L21.9258 20.2388C23.0156 19.6059 23.6015 18.9848 23.6015 17.2856V8.16849C23.6015 6.51615 23.0039 5.91849 22.0078 5.34427L13.9687 0.703644C12.5156 -0.140106 11.1328 -0.116668 9.71484 0.703644L1.6875 5.34427C0.679687 5.91849 0.0820312 6.51615 0.0820312 8.16849V17.2856C0.0820312 18.9848 0.679687 19.6059 1.75781 20.2388ZM1.96875 12.7622H21.7148V17.2388C21.7148 17.8833 21.5156 18.1997 20.8711 18.563L13.125 23.0513C12.1992 23.5903 11.4609 23.5786 10.5586 23.0513L2.8125 18.563C2.17969 18.1997 1.96875 17.8833 1.96875 17.2388V12.7622Z" fill="black" fill-opacity="0.85"/>
</g>
<defs>
<clipPath id="clip0_2207_7827">
<rect width="23.5195" height="25.3799" fill="white" transform="translate(0.0820312 0.078125)"/>
</clipPath>
</defs>
</svg>
