<svg width="24" height="26" viewBox="0 0 24 26" fill="none" xmlns="http://www.w3.org/2000/svg">
<g clip-path="url(#clip0_2207_7819)">
<path d="M1.75342 20.2388L9.76905 24.8559C11.1518 25.6528 12.4995 25.6645 13.9057 24.8559L21.9214 20.2388C23.0112 19.6059 23.5971 18.9848 23.5971 17.2856V8.16849C23.5971 6.51615 22.9995 5.91849 22.0034 5.34427L13.9643 0.703644C12.5112 -0.140106 11.1284 -0.116668 9.71045 0.703644L1.68311 5.34427C0.675293 5.91849 0.0776367 6.51615 0.0776367 8.16849V17.2856C0.0776367 18.9848 0.675293 19.6059 1.75342 20.2388ZM11.8432 23.4497V2.08646C12.2768 2.08646 12.7104 2.22708 13.1792 2.49662L20.9487 7.02005C21.5112 7.33646 21.7104 7.62943 21.7104 8.21537V17.2388C21.7104 17.8833 21.5112 18.1997 20.8667 18.563L13.1206 23.0513C12.6635 23.3091 12.2534 23.438 11.8432 23.4497Z" fill="black" fill-opacity="0.85"/>
</g>
<defs>
<clipPath id="clip0_2207_7819">
<rect width="23.5195" height="25.3799" fill="white" transform="translate(0.0776367 0.078125)"/>
</clipPath>
</defs>
</svg>
