<svg width="24" height="26" viewBox="0 0 24 26" fill="none" xmlns="http://www.w3.org/2000/svg">
<g clip-path="url(#clip0_2207_7811)">
<path d="M1.74707 20.2388L9.7627 24.8559C11.1455 25.6528 12.4932 25.6645 13.8994 24.8559L21.9151 20.2388C23.0049 19.6059 23.5908 18.9848 23.5908 17.2856V8.16849C23.5908 6.51615 22.9932 5.91849 21.9971 5.34427L13.958 0.703644C12.5049 -0.140106 11.1221 -0.116668 9.7041 0.703644L1.67676 5.34427C0.668945 5.91849 0.0712891 6.51615 0.0712891 8.16849V17.2856C0.0712891 18.9848 0.668945 19.6059 1.74707 20.2388ZM2.80176 18.563C2.16895 18.1997 1.95801 17.8833 1.95801 17.2388V8.21537C1.95801 7.62943 2.15723 7.33646 2.71973 7.02005L10.4893 2.49662C11.4268 1.96927 12.2119 1.94583 13.1729 2.49662L20.9424 7.02005C21.5049 7.33646 21.7041 7.62943 21.7041 8.21537V17.2388C21.7041 17.8833 21.5049 18.1997 20.8604 18.563L13.1143 23.0513C12.1885 23.5786 11.4502 23.5669 10.5479 23.0513L2.80176 18.563Z" fill="black" fill-opacity="0.85"/>
</g>
<defs>
<clipPath id="clip0_2207_7811">
<rect width="23.5195" height="25.3799" fill="white" transform="translate(0.0712891 0.078125)"/>
</clipPath>
</defs>
</svg>
