<svg width="19" height="25" viewBox="0 0 19 25" fill="none" xmlns="http://www.w3.org/2000/svg">
<g clip-path="url(#clip0_2207_14647)">
<path d="M0.0881348 3.40624V21.0078C0.0881348 23.2226 1.18969 24.3359 3.3811 24.3359H14.7717C16.9631 24.3359 18.0529 23.2226 18.0529 21.0078V3.40624C18.0529 1.19141 16.9631 0.078125 14.7717 0.078125H3.3811C1.18969 0.078125 0.0881348 1.19141 0.0881348 3.40624ZM1.97485 3.42969C1.97485 2.46875 2.47875 1.96484 3.45141 1.96484H14.7014C15.674 1.96484 16.1662 2.46875 16.1662 3.42969V20.9843C16.1662 21.9336 15.6623 22.4492 14.7014 22.4492H3.45141C2.47875 22.4492 1.97485 21.9336 1.97485 20.9843V3.42969ZM9.07642 20.5625C11.7248 20.5625 13.8576 18.4414 13.8576 15.7812C13.8576 13.1211 11.7248 11.0117 9.07642 11C6.42798 10.9883 4.29516 13.1211 4.29516 15.7812C4.29516 18.4414 6.42798 20.5625 9.07642 20.5625ZM9.07642 17.8086C7.96313 17.8086 7.04907 16.9062 7.04907 15.7812C7.04907 14.6211 7.92798 13.7422 9.07642 13.7422C10.2131 13.7422 11.1037 14.6211 11.1037 15.7812C11.1037 16.9062 10.2131 17.8086 9.07642 17.8086ZM9.07642 9.16016C10.5412 9.16016 11.76 7.97656 11.7365 6.5C11.7248 5.02343 10.5412 3.86328 9.07642 3.85156C7.59985 3.83984 6.41625 5.01171 6.41625 6.5C6.41625 7.97656 7.59985 9.16016 9.07642 9.16016ZM9.07642 7.85938C8.3147 7.85938 7.71704 7.23828 7.71704 6.5C7.71704 5.71484 8.3147 5.14062 9.07642 5.14062C9.8147 5.14062 10.4358 5.75 10.4358 6.5C10.4358 7.23828 9.82642 7.85938 9.07642 7.85938Z" fill="black" fill-opacity="0.85"/>
</g>
<defs>
<clipPath id="clip0_2207_14647">
<rect width="17.9648" height="24.2695" fill="white" transform="translate(0.0881348 0.078125)"/>
</clipPath>
</defs>
</svg>
