<svg width="24" height="24" viewBox="0 0 24 24" fill="none" xmlns="http://www.w3.org/2000/svg">
<g clip-path="url(#clip0_2207_3140)">
<path d="M11.9677 23.9863C18.5068 23.9863 23.9208 18.5606 23.9208 12.0332C23.9208 5.49414 18.4951 0.0800781 11.956 0.0800781C5.42871 0.0800781 0.0146484 5.49414 0.0146484 12.0332C0.0146484 18.5606 5.44043 23.9863 11.9677 23.9863Z" fill="black" fill-opacity="0.85"/>
<path d="M11.9678 12.959C8.33496 12.959 5.47559 11.6465 5.47559 9.98242C5.47559 8.35352 8.33496 7.07617 11.9678 7.07617C15.6005 7.07617 18.4599 8.35352 18.4599 9.98242C18.4599 11.6465 15.6005 12.959 11.9678 12.959ZM11.9678 16.9785C8.29981 16.9785 5.47559 15.3379 5.47559 13.3223V11.8692C6.74121 13.0996 9.24903 13.8262 11.9678 13.8262C14.6982 13.8262 17.206 13.0996 18.4599 11.8692V13.3223C18.4599 15.3379 15.6241 16.9785 11.9678 16.9785Z" fill="white"/>
</g>
<defs>
<clipPath id="clip0_2207_3140">
<rect width="23.9062" height="23.918" fill="white" transform="translate(0.0146484 0.0800781)"/>
</clipPath>
</defs>
</svg>
