<svg width="25" height="19" viewBox="0 0 25 19" fill="none" xmlns="http://www.w3.org/2000/svg">
<g clip-path="url(#clip0_2207_3127)">
<path d="M12.0457 18.502C18.8543 18.502 24.1043 15.4551 24.1043 11.7168V5.56446L22.2175 7.20508V11.7168C22.2175 14.4239 18.3152 16.6153 12.0457 16.6153C5.78784 16.6153 1.8855 14.4239 1.8855 11.7168V7.20508L0.010498 5.56446V11.7168C0.010498 15.4551 5.24878 18.502 12.0457 18.502ZM12.0457 11.002C18.8074 11.002 24.1043 8.56446 24.1043 5.45899C24.1043 2.45899 18.8074 0.0800781 12.0457 0.0800781C5.29566 0.0800781 0.010498 2.45899 0.010498 5.45899C0.010498 8.56446 5.29566 11.002 12.0457 11.002ZM12.0457 9.11524C6.32691 9.11524 1.8855 7.50977 1.8855 5.45899C1.8855 3.49024 6.32691 1.9668 12.0457 1.9668C17.7761 1.9668 22.2175 3.49024 22.2175 5.45899C22.2175 7.50977 17.7761 9.11524 12.0457 9.11524Z" fill="black" fill-opacity="0.85"/>
</g>
<defs>
<clipPath id="clip0_2207_3127">
<rect width="24.0938" height="18.4336" fill="white" transform="translate(0.010498 0.0800781)"/>
</clipPath>
</defs>
</svg>
