<svg width="24" height="24" viewBox="0 0 24 24" fill="none" xmlns="http://www.w3.org/2000/svg">
<g clip-path="url(#clip0_2207_3135)">
<path d="M11.9658 23.9863C18.5049 23.9863 23.9189 18.5606 23.9189 12.0332C23.9189 5.49414 18.4932 0.0800781 11.9541 0.0800781C5.42675 0.0800781 0.0126953 5.49414 0.0126953 12.0332C0.0126953 18.5606 5.43848 23.9863 11.9658 23.9863ZM11.9658 21.9942C6.43458 21.9942 2.01661 17.5645 2.01661 12.0332C2.01661 6.50196 6.42285 2.07227 11.9541 2.07227C17.4854 2.07227 21.9268 6.50196 21.9268 12.0332C21.9268 17.5645 17.4971 21.9942 11.9658 21.9942Z" fill="black" fill-opacity="0.85"/>
<path d="M11.9658 12.9356C15.4932 12.9356 18.2588 11.6582 18.2588 10.041C18.2588 8.4707 15.4932 7.22852 11.9658 7.22852C8.43847 7.22852 5.67285 8.4707 5.67285 10.041C5.67285 11.6582 8.43847 12.9356 11.9658 12.9356ZM11.9658 16.8262C15.5166 16.8262 18.2588 15.2324 18.2588 13.2871V11.8692C17.0518 13.0645 14.6143 13.7676 11.9658 13.7676C9.3291 13.7676 6.8916 13.0645 5.67285 11.8692V13.2871C5.67285 15.2324 8.40331 16.8262 11.9658 16.8262Z" fill="black" fill-opacity="0.85"/>
</g>
<defs>
<clipPath id="clip0_2207_3135">
<rect width="23.9062" height="23.918" fill="white" transform="translate(0.0126953 0.0800781)"/>
</clipPath>
</defs>
</svg>
