<svg width="24" height="22" viewBox="0 0 24 22" fill="none" xmlns="http://www.w3.org/2000/svg">
<g clip-path="url(#clip0_2207_14549)">
<path d="M11.5829 21.3028C15.8368 21.3028 17.6297 20.7637 19.329 19.1817C21.7196 17.002 23.1141 13.8496 23.1141 10.4981C23.1141 7.79102 22.2118 5.21289 20.5243 3.32617C20.0672 2.74024 19.2938 2.63477 18.6376 3.04492C17.1961 4.09961 15.2626 4.81446 11.5829 4.81446C7.89148 4.81446 5.95789 4.09961 4.5282 3.04492C3.87195 2.63477 3.0868 2.74024 2.62976 3.32617C0.953979 5.21289 0.039917 7.79102 0.039917 10.4981C0.039917 13.8496 1.43445 17.002 3.82508 19.1817C5.5243 20.7637 7.31726 21.3028 11.5829 21.3028ZM11.5829 19.416C7.85633 19.416 6.43836 19.041 5.10242 17.7989C3.07508 15.9356 1.92664 13.2989 1.92664 10.4981C1.92664 8.27149 2.6532 6.13867 4.17664 4.41602L3.32117 4.63867C5.20789 6.0918 8.19617 6.70117 11.5829 6.70117C14.9579 6.70117 17.9461 6.0918 19.8329 4.63867L18.9774 4.41602C20.5008 6.13867 21.2274 8.27149 21.2274 10.4981C21.2274 13.2989 20.079 15.9356 18.0516 17.7989C16.7274 19.041 15.2977 19.416 11.5829 19.416Z" fill="black" fill-opacity="0.85"/>
<path d="M11.5829 3.2207C14.8407 3.2207 17.1141 2.56446 17.1141 1.7207C17.1141 0.865234 14.8407 0.232422 11.5829 0.232422C8.31336 0.232422 6.03992 0.865234 6.03992 1.7207C6.03992 2.56446 8.31336 3.2207 11.5829 3.2207Z" fill="black" fill-opacity="0.85"/>
</g>
<defs>
<clipPath id="clip0_2207_14549">
<rect width="23.0742" height="21.2227" fill="white" transform="translate(0.039917 0.0800781)"/>
</clipPath>
</defs>
</svg>
