<svg width="28" height="27" viewBox="0 0 28 27" fill="none" xmlns="http://www.w3.org/2000/svg">
<g clip-path="url(#clip0_2207_10787)">
<path d="M3.396 22.1026C3.396 23.7432 4.36866 24.6924 6.04444 24.6924H21.9937C23.6577 24.6924 24.6304 23.7432 24.6304 22.1026V9.0127L22.9663 8.89551V21.8565C22.9663 22.6182 22.5562 23.0401 21.8179 23.0401H6.22022C5.47022 23.0401 5.06006 22.6182 5.06006 21.8565V8.90723L3.396 9.0127V22.1026ZM0.0209961 11.6143C0.0209961 12.083 0.36084 12.3994 0.876465 12.3994C1.08741 12.3994 1.25147 12.3291 1.40381 12.2119L13.603 1.98145C13.8491 1.75879 14.1655 1.74707 14.4233 1.98145L26.6226 12.2119C26.7632 12.3291 26.9272 12.3994 27.1499 12.3994C27.6538 12.3994 27.9937 12.083 27.9937 11.6143C27.9937 11.3096 27.8765 11.0987 27.6187 10.8877L15.4194 0.633789C14.5522 -0.104492 13.4858 -0.104492 12.6069 0.633789L0.395996 10.8877C0.138184 11.0987 0.0209961 11.3096 0.0209961 11.6143ZM21.689 6.36426L24.6304 8.84863V3.43457C24.6304 2.91895 24.3022 2.59082 23.7866 2.59082H22.5327C22.0288 2.59082 21.689 2.91895 21.689 3.43457V6.36426Z" fill="black" fill-opacity="0.85"/>
<path d="M7.25146 19.3721C7.25146 20.3096 7.84911 20.8721 8.88037 20.8721H19.1577C20.1772 20.8721 20.7866 20.3096 20.7866 19.3721V10.2549L14.7749 5.21582C14.3062 4.84082 13.7202 4.84082 13.2632 5.21582L7.25146 10.2549V19.3721ZM8.91552 18.6572V11.0635L13.6382 7.09082C13.8491 6.91504 14.1772 6.90332 14.3882 7.09082L19.1226 11.0635V18.6572C19.1226 19.0205 18.9233 19.2197 18.5601 19.2197H9.4663C9.11474 19.2197 8.91552 19.0205 8.91552 18.6572Z" fill="black" fill-opacity="0.85"/>
<path d="M11.0952 15.9385C11.0952 16.6182 11.5405 17.0401 12.2554 17.0401H15.771C16.4976 17.0401 16.9312 16.6182 16.9312 15.9385V12.1299L14.6812 10.2432C14.271 9.90332 13.7554 9.90332 13.3569 10.2432L11.0952 12.1299V15.9385ZM12.7241 15.1651V12.8916L13.7319 12.0362C13.9077 11.8955 14.1304 11.8955 14.2944 12.0362L15.3022 12.8916V15.1651C15.3022 15.3408 15.2202 15.4346 15.0327 15.4346H12.9937C12.8179 15.4346 12.7241 15.3408 12.7241 15.1651Z" fill="black" fill-opacity="0.85"/>
</g>
<defs>
<clipPath id="clip0_2207_10787">
<rect width="27.9727" height="26.5957" fill="white" transform="translate(0.0209961 0.0800781)"/>
</clipPath>
</defs>
</svg>
