<svg width="29" height="22" viewBox="0 0 29 22" fill="none" xmlns="http://www.w3.org/2000/svg">
<g clip-path="url(#clip0_2207_17601)">
<path d="M0.996338 14.752H11.3908C12.7033 14.752 14.1682 14.9629 15.6565 15.3965C18.7502 16.2871 21.6682 18.1387 24.469 21.0098C26.133 22.8028 28.7463 21.8887 28.7463 19.416V2.61134C28.7463 0.138683 26.133 -0.77538 24.469 1.01759C20.3557 5.28322 15.5744 7.2754 11.3908 7.2754H0.996338V14.752ZM0.996338 16.1348C1.52368 16.1348 1.94556 15.7012 1.94556 15.1856V6.81837C1.94556 6.30275 1.52368 5.88087 0.996338 5.88087C0.480713 5.88087 0.0588379 6.30275 0.0588379 6.81837V15.1856C0.0588379 15.7012 0.480713 16.1348 0.996338 16.1348ZM3.32837 16.5801C3.32837 18.4785 4.88696 20.0254 6.7854 20.0254H13.4299C15.3283 20.0254 16.8869 18.4785 16.8869 16.5801C16.8869 14.6817 15.3283 13.1231 13.4299 13.1231H6.7854C4.88696 13.1231 3.32837 14.6817 3.32837 16.5801ZM5.21509 16.5801C5.21509 15.7246 5.92993 15.0098 6.7854 15.0098H13.4299C14.2854 15.0098 15.0002 15.7246 15.0002 16.5801C15.0002 17.4356 14.2854 18.127 13.4299 18.127H6.7854C5.92993 18.127 5.21509 17.4356 5.21509 16.5801Z" fill="black" fill-opacity="0.85"/>
</g>
<defs>
<clipPath id="clip0_2207_17601">
<rect width="28.6875" height="21.8789" fill="white" transform="translate(0.0588379 0.0800781)"/>
</clipPath>
</defs>
</svg>
