<svg width="29" height="22" viewBox="0 0 29 22" fill="none" xmlns="http://www.w3.org/2000/svg">
<g clip-path="url(#clip0_2207_17597)">
<path d="M0.98999 14.752H11.3845C12.697 14.752 14.1619 14.9629 15.6502 15.3965C18.7439 16.2871 21.6619 18.1387 24.4627 21.0098C26.1267 22.8028 28.74 21.8887 28.74 19.416V2.61134C28.74 0.138683 26.1267 -0.77538 24.4627 1.01759C20.3494 5.28322 15.5681 7.2754 11.3845 7.2754H0.98999V9.16212H11.3845C16.0486 9.16212 21.2986 6.98243 25.7517 2.38868C26.3728 1.75587 26.8533 1.88478 26.8533 2.61134V19.416C26.8533 20.1426 26.3728 20.2598 25.7517 19.627C21.2986 15.045 16.0486 12.8653 11.3845 12.8653H0.98999V14.752ZM0.98999 16.1348C1.51733 16.1348 1.93921 15.7012 1.93921 15.1856V6.81837C1.93921 6.30275 1.51733 5.88087 0.98999 5.88087C0.474365 5.88087 0.0524902 6.30275 0.0524902 6.81837V15.1856C0.0524902 15.7012 0.474365 16.1348 0.98999 16.1348ZM3.32202 16.5801C3.32202 18.4785 4.88061 20.0254 6.77905 20.0254H13.4236C15.322 20.0254 16.8806 18.4785 16.8806 16.5801C16.8806 14.6817 15.322 13.1231 13.4236 13.1231H6.77905C4.88061 13.1231 3.32202 14.6817 3.32202 16.5801ZM5.20874 16.5801C5.20874 15.7246 5.92358 15.0098 6.77905 15.0098H13.4236C14.2791 15.0098 14.9939 15.7246 14.9939 16.5801C14.9939 17.4356 14.2791 18.127 13.4236 18.127H6.77905C5.92358 18.127 5.20874 17.4356 5.20874 16.5801Z" fill="black" fill-opacity="0.85"/>
</g>
<defs>
<clipPath id="clip0_2207_17597">
<rect width="28.6875" height="21.8789" fill="white" transform="translate(0.0524902 0.0800781)"/>
</clipPath>
</defs>
</svg>
