<svg width="14" height="22" viewBox="0 0 14 22" fill="none" xmlns="http://www.w3.org/2000/svg">
<g clip-path="url(#clip0_2207_21854)">
<path d="M1.97535 21.6309H11.8894C13.073 21.6309 13.7996 20.9629 13.7996 19.709V19.4746C13.7996 16.6504 10.8113 13.6504 9.17066 12.0215C8.43237 11.2832 8.37378 10.4629 9.17066 9.66602C10.8113 8.04883 13.7996 5.06055 13.7996 2.21289V2.01367C13.7996 0.759766 13.073 0.0800781 11.8894 0.0800781H1.97535C0.791747 0.0800781 0.0651855 0.759766 0.0651855 2.01367V2.21289C0.0651855 5.06055 3.06519 8.04883 4.6941 9.66602C5.50269 10.4629 5.4441 11.2832 4.6941 12.0215C3.06519 13.6504 0.0651855 16.6504 0.0651855 19.4746V19.709C0.0651855 20.9629 0.791747 21.6309 1.97535 21.6309Z" fill="black" fill-opacity="0.85"/>
<path d="M7.74099 9.0332C7.15506 9.51367 6.70974 9.51367 6.12381 9.0332C5.2449 8.2832 2.7488 5.7168 1.98709 4.36914C1.78787 3.99414 1.89333 3.70117 2.25662 3.70117H11.6082C11.9714 3.70117 12.0886 3.99414 11.8777 4.36914C11.116 5.7168 8.63163 8.2832 7.74099 9.0332Z" fill="white"/>
</g>
<defs>
<clipPath id="clip0_2207_21854">
<rect width="13.7344" height="21.5742" fill="white" transform="translate(0.0651855 0.0800781)"/>
</clipPath>
</defs>
</svg>
