<svg width="49" height="21" viewBox="0 0 49 21" fill="none" xmlns="http://www.w3.org/2000/svg">
<g clip-path="url(#clip0_2207_12405)">
<path d="M1.06098 12.6074H26.2328C27.2289 12.6074 27.4984 11.4824 26.8539 11.0137L19.307 5.75195C18.932 5.49413 18.4984 5.36523 18.018 5.36523H9.28754C8.79535 5.36523 8.36176 5.49413 7.98676 5.75195L0.439888 11.0137C-0.204643 11.4824 0.0648876 12.6074 1.06098 12.6074ZM3.19379 11.002L8.91254 7.06445C9.04145 6.98241 9.11176 6.97069 9.28754 6.97069H18.0063C18.182 6.97069 18.2524 6.98241 18.3813 7.06445L24.1 11.002H3.19379ZM4.90473 20.4824H22.3891C24.018 20.4824 24.9672 19.5801 24.9672 17.9746V11.7403H23.1274V17.5293C23.1274 18.2676 22.7406 18.6543 22.0258 18.6543H5.26801C4.55317 18.6543 4.16645 18.2676 4.16645 17.5293V11.7403H2.3266V17.9746C2.3266 19.5801 3.27582 20.4824 4.90473 20.4824Z" fill="black" fill-opacity="0.85"/>
<path d="M21.8852 12.6074H47.0688C48.0531 12.6074 48.3344 11.4824 47.6781 11.0137L40.1313 5.75195C39.768 5.49413 39.3227 5.36523 38.8422 5.36523H30.1234C29.6195 5.36523 29.1859 5.49413 28.8109 5.75195L21.2758 11.0137C20.6195 11.4824 20.8891 12.6074 21.8852 12.6074ZM24.018 11.002L29.7484 7.06445C29.8774 6.98241 29.9359 6.97069 30.1234 6.97069H38.8305C39.0063 6.97069 39.0766 6.98241 39.2055 7.06445L44.9242 11.002H24.018ZM25.7289 20.4824H43.2133C44.8422 20.4824 45.7914 19.5801 45.7914 17.9746V11.7403H43.9516V17.5293C43.9516 18.2676 43.5649 18.6543 42.85 18.6543H26.1039C25.3774 18.6543 24.9906 18.2676 24.9906 17.5293V11.7403H23.1508V17.9746C23.1508 19.5801 24.1 20.4824 25.7289 20.4824Z" fill="black" fill-opacity="0.85"/>
<path d="M13.8695 20.4824H34.2367C35.8656 20.4824 36.7914 19.5801 36.7914 17.9746V11.8926L37.3539 12.3379C38.4906 13.2285 39.6274 11.7403 38.6899 11.0137L25.5297 0.666016C25.0492 0.291016 24.557 0.0800781 24.0531 0.0800781C23.5492 0.0800781 23.057 0.291016 22.5766 0.666016L9.41639 11.0137C8.47889 11.7403 9.61561 13.2285 10.7524 12.3379L11.3149 11.8926V17.9746C11.3149 19.5801 12.2524 20.4824 13.8695 20.4824Z" fill="white"/>
<path d="M10.7524 12.3379L23.5258 2.31836C23.6781 2.20117 23.8774 2.11914 24.0531 2.11914C24.2406 2.11914 24.4399 2.20117 24.5922 2.31836L37.3539 12.3379C38.4906 13.2285 39.6274 11.7403 38.6899 11.0137L25.5297 0.666016C25.0492 0.291016 24.5688 0.0800781 24.0531 0.0800781C23.5492 0.0800781 23.057 0.291016 22.5766 0.666016L9.41639 11.0137C8.47889 11.7403 9.61561 13.2285 10.7524 12.3379ZM13.8695 20.4824H34.2367C35.8656 20.4824 36.7914 19.5801 36.7914 17.9746V10.1934L34.9633 10.0996V17.5293C34.9633 18.2676 34.5883 18.6543 33.8617 18.6543H14.2445C13.518 18.6543 13.143 18.2676 13.143 17.5293V10.0996L11.3149 10.1934V17.9746C11.3149 19.5801 12.2524 20.4824 13.8695 20.4824ZM20.9945 19.2051H27.1117V13.4395C27.1117 12.959 26.7836 12.6309 26.3031 12.6309H21.8149C21.3461 12.6309 20.9945 12.959 20.9945 13.4395V19.2051Z" fill="black" fill-opacity="0.85"/>
</g>
<defs>
<clipPath id="clip0_2207_12405">
<rect width="47.9431" height="20.4023" fill="white" transform="translate(0.090332 0.0800781)"/>
</clipPath>
</defs>
</svg>
