<svg width="24" height="24" viewBox="0 0 24 24" fill="none" xmlns="http://www.w3.org/2000/svg">
<g clip-path="url(#clip0_2207_12425)">
<path d="M12.0454 23.9863C18.5845 23.9863 23.9985 18.5606 23.9985 12.0332C23.9985 5.49414 18.5728 0.0800781 12.0337 0.0800781C5.50634 0.0800781 0.0922852 5.49414 0.0922852 12.0332C0.0922852 18.5606 5.51807 23.9863 12.0454 23.9863ZM12.0454 21.9942C6.51417 21.9942 2.0962 17.5645 2.0962 12.0332C2.0962 6.50196 6.50244 2.07227 12.0337 2.07227C17.565 2.07227 22.0064 6.50196 22.0064 12.0332C22.0064 17.5645 17.5767 21.9942 12.0454 21.9942Z" fill="black" fill-opacity="0.85"/>
<path d="M6.76032 12.3028L11.8345 8.31836C11.8814 8.27149 11.9751 8.24805 12.022 8.24805C12.0806 8.24805 12.1626 8.27149 12.2212 8.31836L17.2954 12.3028C17.7642 12.6778 18.2564 12.0567 17.8579 11.7403L12.6431 7.61524C12.4673 7.48633 12.2329 7.39258 12.022 7.39258C11.8111 7.39258 11.6001 7.47461 11.4126 7.61524L6.1861 11.7403C5.78766 12.0567 6.27985 12.6778 6.76032 12.3028ZM7.99079 15.5137H16.0532C16.6861 15.5137 17.0611 15.1504 17.0611 14.5059V12.9121C16.9087 12.8418 16.7681 12.7481 16.5806 12.6192L12.022 9.0332L7.45173 12.6192C7.27594 12.7481 7.14704 12.8418 6.98297 12.9121V14.5059C6.98297 15.1504 7.35797 15.5137 7.99079 15.5137ZM10.815 14.7403L10.8032 12.7246C10.8032 12.5254 10.9439 12.3965 11.1431 12.3965H12.9243C13.1118 12.3965 13.2407 12.5254 13.2407 12.7246V14.7403H10.815ZM5.76423 11.2012L7.89704 9.53711H6.84235C6.65485 9.53711 6.47907 9.57227 6.33844 9.67774L3.33844 11.752C3.09235 11.9395 3.19782 12.3731 3.58454 12.3731H5.44782C5.29547 11.9863 5.33063 11.5293 5.76423 11.2012ZM6.29157 14.5059V13.0293L4.07673 13.041V14.5059C4.07673 15.1504 4.45173 15.5137 5.09626 15.5137H6.57282C6.39704 15.2324 6.29157 14.9043 6.29157 14.5059ZM18.2798 11.2012C18.7251 11.5293 18.7603 11.9863 18.6079 12.3731H20.4712C20.8579 12.3731 20.9634 11.9629 20.6939 11.752L17.7056 9.67774C17.565 9.57227 17.4126 9.53711 17.2017 9.53711H16.147L18.2798 11.2012ZM17.7525 14.5059C17.7525 14.9043 17.6587 15.2324 17.4712 15.5137H18.9478C19.5923 15.5137 19.9673 15.1504 19.9673 14.5059V13.041L17.7525 13.0293V14.5059Z" fill="black" fill-opacity="0.85"/>
</g>
<defs>
<clipPath id="clip0_2207_12425">
<rect width="23.9062" height="23.918" fill="white" transform="translate(0.0922852 0.0800781)"/>
</clipPath>
</defs>
</svg>
