<svg width="24" height="24" viewBox="0 0 24 24" fill="none" xmlns="http://www.w3.org/2000/svg">
<g clip-path="url(#clip0_2207_12430)">
<path d="M12.0476 23.9981C18.5867 23.9981 24.0007 18.584 24.0007 12.0449C24.0007 5.51758 18.575 0.0917969 12.0359 0.0917969C5.50854 0.0917969 0.0944824 5.51758 0.0944824 12.0449C0.0944824 18.584 5.52026 23.9981 12.0476 23.9981Z" fill="black" fill-opacity="0.85"/>
<path d="M6.62173 12.3379C6.12955 12.7246 5.62564 12.0801 6.0358 11.7637L11.403 7.50977C11.6022 7.35742 11.8249 7.27539 12.0475 7.27539C12.2702 7.27539 12.4928 7.36914 12.6803 7.50977L18.0475 11.7637C18.4694 12.0801 17.9655 12.7246 17.4616 12.3379L12.235 8.23633C12.1882 8.18946 12.0944 8.16602 12.0475 8.16602C11.9889 8.16602 11.9069 8.18946 11.8483 8.23633L6.62173 12.3379ZM7.88736 15.6543C7.24283 15.6543 6.85611 15.291 6.85611 14.6231V12.9707C7.00845 12.9004 7.14908 12.8067 7.33658 12.6895L12.0475 8.97461L16.7467 12.6895C16.946 12.8067 17.0749 12.9004 17.2389 12.9707V14.6231C17.2389 15.291 16.8522 15.6543 16.2077 15.6543H7.88736ZM10.7936 14.8692H13.2897V12.7715C13.2897 12.584 13.1725 12.4434 12.9616 12.4434H11.1335C10.9342 12.4434 10.7936 12.584 10.7936 12.7715V14.8692ZM5.6022 11.2012C5.13345 11.541 5.0983 12.0098 5.26236 12.4082H3.34048C2.94205 12.4082 2.83658 11.9629 3.09439 11.7871L6.17642 9.63086C6.32877 9.52539 6.50455 9.47852 6.69205 9.47852H7.80533L5.6022 11.2012ZM6.14127 14.6231C6.14127 15.0215 6.23501 15.3613 6.42251 15.6543H4.9108C4.24283 15.6543 3.85611 15.291 3.85611 14.6231V13.0996L6.14127 13.0879V14.6231ZM18.4928 11.2012L16.2897 9.47852H17.3913C17.5905 9.47852 17.7428 9.52539 17.9069 9.63086L20.9889 11.7871C21.2702 11.9863 21.1413 12.4082 20.7428 12.4082H18.821C18.985 12.0098 18.9499 11.541 18.4928 11.2012ZM17.9538 14.6231V13.0879L20.2389 13.0996V14.6231C20.2389 15.291 19.8522 15.6543 19.1842 15.6543H17.6725C17.8483 15.3613 17.9538 15.0215 17.9538 14.6231Z" fill="white"/>
</g>
<defs>
<clipPath id="clip0_2207_12430">
<rect width="23.9062" height="23.918" fill="white" transform="translate(0.0944824 0.0800781)"/>
</clipPath>
</defs>
</svg>
