<svg width="38" height="26" viewBox="0 0 38 26" fill="none" xmlns="http://www.w3.org/2000/svg">
<g clip-path="url(#clip0_2207_12435)">
<path d="M1.57497 13.3223L12.6726 7.65039C12.9187 7.52149 13.2234 7.52149 13.493 7.65039L24.5906 13.3223C25.9383 14.002 26.6414 12.3848 25.5398 11.8106L14.407 5.96289C13.4578 5.4707 12.6961 5.4707 11.7586 5.96289L0.602313 11.8106C-0.475812 12.3848 0.227313 14.002 1.57497 13.3223ZM5.62965 25.8731H20.5359C22.1297 25.8731 23.0672 24.959 23.0672 23.377V11.8926L21.2625 10.9082V22.9199C21.2625 23.6582 20.864 24.0684 20.1375 24.0684H6.01637C5.30153 24.0684 4.90309 23.6582 4.90309 22.9199V10.9199L3.0984 11.8223V23.377C3.0984 24.959 4.0359 25.8731 5.62965 25.8731ZM9.6609 24.9473H16.493V16.6153C16.493 16.0996 16.1531 15.7598 15.6375 15.7598H10.5164C10.0008 15.7598 9.6609 16.0996 9.6609 16.6153V24.9473ZM28.9969 25.8731C29.5008 25.8731 29.8992 25.4512 29.8992 24.959V6.94727C30.0164 6.92383 30.157 6.91211 30.3445 6.91211C32.243 6.91211 33.4265 7.83789 35.243 7.83789C36.0515 7.83789 36.3914 7.75586 36.7898 7.56836C37.2351 7.35742 37.4344 7.05274 37.4344 6.54883V1.3457C37.4344 1.0293 37.2703 0.80664 36.8367 0.80664C36.5203 0.80664 36.0633 1.0293 35.1961 1.0293C33.4031 1.0293 32.1961 0.0800781 30.2976 0.0800781C29.4773 0.0800781 29.1492 0.185547 28.7625 0.349609C28.3289 0.537109 28.1062 0.876953 28.1062 1.3457V24.959C28.1062 25.4512 28.5047 25.8731 28.9969 25.8731ZM1.10622 25.8731H33.7664C34.2586 25.8731 34.657 25.4512 34.657 24.959C34.657 24.4668 34.2586 24.0684 33.7664 24.0684H1.10622C0.614032 24.0684 0.203876 24.4668 0.203876 24.959C0.203876 25.4512 0.614032 25.8731 1.10622 25.8731Z" fill="black" fill-opacity="0.85"/>
</g>
<defs>
<clipPath id="clip0_2207_12435">
<rect width="37.3587" height="25.8398" fill="white" transform="translate(0.0756836 0.0800781)"/>
</clipPath>
</defs>
</svg>
