<svg width="29" height="27" viewBox="0 0 29 27" fill="none" xmlns="http://www.w3.org/2000/svg">
<g clip-path="url(#clip0_2207_10797)">
<path d="M17.092 22.8057H11.0451V15.0596C11.0451 14.5205 11.4084 14.169 11.9475 14.169H16.2014C16.7404 14.169 17.092 14.5205 17.092 15.0596V22.8057ZM3.74438 22.1026C3.74438 23.7315 4.72875 24.6924 6.3811 24.6924H21.7912C23.4436 24.6924 24.4162 23.7315 24.4162 22.1026V12.8213L14.7834 4.74707C14.3381 4.37207 13.8108 4.38379 13.3772 4.74707L3.74438 12.8213V22.1026ZM0.0881348 11.6494C0.0881348 12.1299 0.463135 12.5869 1.09594 12.5869C1.42407 12.5869 1.6936 12.4112 1.93969 12.2119L13.6701 2.36817C13.9279 2.13379 14.2443 2.13379 14.5022 2.36817L26.2326 12.2119C26.467 12.4112 26.7365 12.5869 27.0647 12.5869C27.6154 12.5869 28.0608 12.2471 28.0608 11.6846C28.0608 11.333 27.9436 11.0987 27.6975 10.8877L15.4983 0.633789C14.6311 -0.104492 13.5529 -0.104492 12.674 0.633789L0.463135 10.8877C0.205323 11.0987 0.0881348 11.3799 0.0881348 11.6494ZM21.4748 6.36426L24.4162 8.84863V3.43457C24.4162 2.91895 24.0881 2.59082 23.5725 2.59082H22.3186C21.8147 2.59082 21.4748 2.91895 21.4748 3.43457V6.36426Z" fill="black" fill-opacity="0.85"/>
</g>
<defs>
<clipPath id="clip0_2207_10797">
<rect width="27.9727" height="26.5957" fill="white" transform="translate(0.0881348 0.0800781)"/>
</clipPath>
</defs>
</svg>
