<svg width="24" height="24" viewBox="0 0 24 24" fill="none" xmlns="http://www.w3.org/2000/svg">
<g clip-path="url(#clip0_2207_25787)">
<path d="M11.9553 23.9873C18.4944 23.9873 23.9084 18.5616 23.9084 12.0342C23.9084 5.49511 18.4827 0.0810547 11.9436 0.0810547C5.41626 0.0810547 0.00219727 5.49511 0.00219727 12.0342C0.00219727 18.5616 5.42798 23.9873 11.9553 23.9873Z" fill="black" fill-opacity="0.85"/>
<path d="M7.30298 13.2061C7.30298 12.878 7.54908 12.6202 7.88892 12.6202H15.9983C16.3381 12.6202 16.5725 12.878 16.5725 13.2061C16.5725 13.5577 16.3381 13.8155 15.9983 13.8155H10.4084C10.0452 14.0733 9.86939 14.4834 9.86939 14.8584C9.86939 15.9014 10.8303 16.417 11.9553 16.417C12.8577 16.417 13.678 16.0303 13.9944 15.2334C14.1584 14.835 14.4045 14.7061 14.6975 14.7061C15.1663 14.7061 15.4358 15.0225 15.4241 15.4444C15.4124 15.7491 15.3186 16.042 15.1311 16.3116C14.4983 17.3545 13.303 17.8584 11.9905 17.8584C10.01 17.8584 8.34595 16.7803 8.34595 14.917C8.34595 14.5655 8.46314 14.1553 8.69751 13.8155H7.88892C7.54908 13.8155 7.30298 13.5577 7.30298 13.2061ZM7.33814 10.792C7.33814 10.4405 7.57251 10.1944 7.91236 10.1944H13.5022C13.8655 9.92481 14.0413 9.51465 14.0413 9.13965C14.0413 8.1084 13.0803 7.58106 11.9553 7.58106C11.053 7.58106 10.2444 7.96778 9.91626 8.76465C9.7522 9.16309 9.50611 9.292 9.21314 9.292C8.74439 9.292 8.47486 8.97559 8.48658 8.56544C8.49829 8.24903 8.59204 7.96778 8.77954 7.69825C9.42408 6.64356 10.6077 6.13965 11.9202 6.13965C13.9006 6.13965 15.5647 7.21778 15.5647 9.08106C15.5647 9.43262 15.4475 9.84278 15.2131 10.1944H16.0217C16.3616 10.1944 16.6077 10.4405 16.6077 10.792C16.6077 11.1202 16.3616 11.378 16.0217 11.378H7.91236C7.57251 11.378 7.33814 11.1202 7.33814 10.792Z" fill="white"/>
</g>
<defs>
<clipPath id="clip0_2207_25787">
<rect width="23.9062" height="23.918" fill="white" transform="translate(0.00219727 0.0810547)"/>
</clipPath>
</defs>
</svg>
