<svg width="22" height="22" viewBox="0 0 22 22" fill="none" xmlns="http://www.w3.org/2000/svg">
<g clip-path="url(#clip0_2207_25797)">
<path d="M3.68604 21.6788H17.9008C20.3618 21.6788 21.5805 20.46 21.5805 18.0459V3.7373C21.5805 1.32324 20.3618 0.104492 17.9008 0.104492H3.68604C1.23682 0.104492 0.00634766 1.31152 0.00634766 3.7373V18.0459C0.00634766 20.4717 1.23682 21.6788 3.68604 21.6788Z" fill="black" fill-opacity="0.85"/>
<path d="M6.14697 12.0459C6.14697 11.7178 6.39307 11.46 6.74463 11.46H14.8423C15.1822 11.46 15.4166 11.7178 15.4166 12.0459C15.4166 12.3975 15.1822 12.6553 14.8423 12.6553H9.25244C8.88916 12.9131 8.7251 13.3233 8.7251 13.6983C8.7251 14.7413 9.67432 15.2569 10.8111 15.2569C11.7017 15.2569 12.522 14.8702 12.8384 14.0733C13.0142 13.6749 13.2486 13.5459 13.5533 13.5459C14.0103 13.5459 14.2798 13.8623 14.2681 14.2842C14.2564 14.5889 14.1626 14.8819 13.9752 15.1514C13.3423 16.1944 12.147 16.6983 10.8345 16.6983C8.85401 16.6983 7.18994 15.6202 7.18994 13.7569C7.18994 13.4053 7.31885 12.9952 7.54151 12.6553H6.74463C6.39307 12.6553 6.14697 12.3975 6.14697 12.0459ZM6.18213 9.63183C6.18213 9.28027 6.41651 9.03417 6.76807 9.03417H12.3462C12.7095 8.76464 12.8853 8.35449 12.8853 7.97949C12.8853 6.94824 11.9244 6.42089 10.7994 6.42089C9.89697 6.42089 9.08838 6.80761 8.76026 7.60449C8.59619 8.00293 8.3501 8.13183 8.05713 8.13183C7.58838 8.13183 7.33057 7.81543 7.33057 7.40527C7.34229 7.08886 7.44776 6.80761 7.62354 6.53808C8.26807 5.48339 9.45166 4.97949 10.7642 4.97949C12.7447 4.97949 14.4087 6.05761 14.4087 7.92089C14.4087 8.27246 14.2916 8.68261 14.0572 9.03417H14.8658C15.2056 9.03417 15.4517 9.28027 15.4517 9.63183C15.4517 9.95996 15.2056 10.2178 14.8658 10.2178H6.76807C6.41651 10.2178 6.18213 9.95996 6.18213 9.63183Z" fill="white"/>
</g>
<defs>
<clipPath id="clip0_2207_25797">
<rect width="21.5742" height="21.5977" fill="white" transform="translate(0.00634766 0.0810547)"/>
</clipPath>
</defs>
</svg>
