<svg width="17" height="22" viewBox="0 0 17 22" fill="none" xmlns="http://www.w3.org/2000/svg">
<g clip-path="url(#clip0_2207_25778)">
<path d="M8.17285 0.0800781C5.77051 0.0800781 3.5791 1.01758 2.4541 3.0332C2.17285 3.45508 2.00879 3.86524 1.99707 4.35742C1.99707 4.91992 2.34863 5.3418 2.99316 5.3418C3.41504 5.3418 3.75488 5.16602 4.00097 4.5918C4.68066 2.91602 6.35644 2.04883 8.24316 2.04883C10.6103 2.04883 12.5908 3.23242 12.5908 5.42383C12.5908 6.4082 12.0634 7.52149 10.8916 8.02539H13.3759C14.2666 7.32227 14.747 6.31446 14.747 5.2832C14.747 1.95508 11.747 0.0800781 8.17285 0.0800781ZM0.848633 9.29102H15.6845C16.1298 9.29102 16.4463 8.95117 16.4463 8.5293C16.4463 8.08399 16.1298 7.76758 15.6845 7.76758H0.848633C0.426758 7.76758 0.0986328 8.08399 0.0986328 8.5293C0.0986328 8.95117 0.426758 9.29102 0.848633 9.29102ZM0.848633 13.3809H15.6845C16.1298 13.3809 16.4463 13.041 16.4463 12.6192C16.4463 12.1739 16.1298 11.8574 15.6845 11.8574H0.848633C0.426758 11.8574 0.0986328 12.1739 0.0986328 12.6192C0.0986328 13.041 0.426758 13.3809 0.848633 13.3809ZM8.29004 21.6895C11.3603 21.6895 13.5986 20.4004 14.6416 18.3613C14.9111 17.9395 15.0986 17.541 15.0986 17.0254C15.0986 16.4512 14.6884 16.0528 14.1142 16.0528C13.5283 16.0528 13.2353 16.3574 13.0244 16.8145C12.2744 18.7481 10.6455 19.7207 8.23144 19.7207C5.39551 19.7207 3.59082 18.1621 3.59082 16.3106C3.59082 15.0098 4.28222 13.7793 6.0166 13.0879H3.36816C2.14941 13.8145 1.42285 15.0449 1.42285 16.4043C1.42285 19.334 4.08301 21.6895 8.29004 21.6895Z" fill="black" fill-opacity="0.85"/>
</g>
<defs>
<clipPath id="clip0_2207_25778">
<rect width="16.3477" height="21.6211" fill="white" transform="translate(0.0986328 0.0800781)"/>
</clipPath>
</defs>
</svg>
