<svg width="22" height="23" viewBox="0 0 22 23" fill="none" xmlns="http://www.w3.org/2000/svg">
<g clip-path="url(#clip0_2207_11868)">
<path d="M7.97705 22.8741H13.6489C18.9458 22.8741 21.6294 20.085 21.6294 15.3272C21.6294 11.6006 18.5591 6.62011 14.7622 1.55761C14.0122 0.573243 13.5669 0.0810547 12.3013 0.0810547H9.33642C8.0708 0.0810547 7.62549 0.573243 6.87549 1.55761C3.07861 6.62011 0.00830078 11.6006 0.00830078 15.3272C0.00830078 20.085 2.69189 22.8741 7.97705 22.8741ZM1.89502 15.3272C1.89502 12.2569 4.36768 8.07324 8.42236 2.51855C8.70361 2.14355 8.91455 1.96777 9.37158 1.96777H12.2661C12.7231 1.96777 12.9224 2.14355 13.2036 2.51855C17.27 8.07324 19.7427 12.2569 19.7427 15.3272C19.7427 18.8897 17.7388 20.9873 13.6489 20.9873H7.97705C3.88721 20.9873 1.89502 18.8897 1.89502 15.3272ZM4.90674 5.77636L4.55518 7.66308H17.0825L16.731 5.77636H4.90674ZM1.5083 16.0889H8.46924V14.2022H1.5083V16.0889ZM10.8247 18.1631C12.5239 18.1631 13.8481 16.8389 13.8481 15.128C13.8481 13.4405 12.5239 12.1045 10.8247 12.1045C9.12549 12.1045 7.78955 13.4405 7.78955 15.128C7.78955 16.8389 9.12549 18.1631 10.8247 18.1631ZM10.8247 16.5108C10.0513 16.5108 9.44189 15.9131 9.44189 15.128C9.44189 14.3663 10.0513 13.7569 10.8247 13.7569C11.5981 13.7569 12.1958 14.3663 12.1958 15.128C12.1958 15.9131 11.5981 16.5108 10.8247 16.5108ZM13.1685 16.0889H20.188V14.2022H13.1685V16.0889Z" fill="black" fill-opacity="0.85"/>
</g>
<defs>
<clipPath id="clip0_2207_11868">
<rect width="21.6211" height="22.8164" fill="white" transform="translate(0.00830078 0.0810547)"/>
</clipPath>
</defs>
</svg>
