<svg width="27" height="26" viewBox="0 0 27 26" fill="none" xmlns="http://www.w3.org/2000/svg">
<g clip-path="url(#clip0_2207_4885)">
<path d="M4.77213 22.1709C9.98698 22.1709 12.8112 17.7413 17.7214 17.7413C18.8698 17.7413 19.901 17.9991 21.0964 18.6788C21.5885 18.96 22.0573 18.7725 22.3034 18.4209C22.5964 17.9991 22.5729 17.3663 21.9167 16.9795C20.5924 16.2178 19.2214 15.8545 17.7214 15.8545C12.4128 15.8545 9.61198 20.2842 4.77213 20.2842C3.61198 20.2842 2.59244 20.0264 1.39713 19.335C0.904943 19.0538 0.424475 19.2413 0.1901 19.6045C-0.0911503 20.0264 -0.0677131 20.6709 0.576818 21.0342C1.90104 21.8077 3.27213 22.1709 4.77213 22.1709Z" fill="black" fill-opacity="0.85"/>
<path d="M4.78385 15.8897C9.99869 15.8897 12.8229 11.46 17.7331 11.46C18.8815 11.46 19.9128 11.7178 21.1081 12.3975C21.6003 12.6788 22.069 12.4913 22.3151 12.1397C22.6081 11.7178 22.5846 11.085 21.9284 10.6983C20.6042 9.93652 19.2331 9.57324 17.7331 9.57324C12.4245 9.57324 9.62369 14.003 4.78385 14.003C3.62369 14.003 2.60416 13.7334 1.40885 13.0538C0.916662 12.7725 0.436193 12.96 0.201818 13.3233C-0.0794316 13.7452 -0.0559941 14.378 0.588537 14.753C1.91276 15.5147 3.28385 15.8897 4.78385 15.8897Z" fill="black" fill-opacity="0.85"/>
<path d="M4.77213 9.59667C9.98698 9.59667 12.8112 5.17871 17.7214 5.17871C18.8698 5.17871 19.901 5.43652 21.0964 6.11621C21.5885 6.39746 22.0573 6.20996 22.3034 5.85839C22.5964 5.43652 22.5729 4.80371 21.9167 4.41699C20.5924 3.65527 19.2214 3.29199 17.7214 3.29199C12.4128 3.29199 9.61198 7.70996 4.77213 7.70996C3.61198 7.70996 2.59244 7.45214 1.39713 6.77246C0.904943 6.49121 0.424475 6.67871 0.1901 7.04199C-0.0911503 7.46386 -0.0677131 8.09667 0.576818 8.47167C1.90104 9.23339 3.27213 9.59667 4.77213 9.59667Z" fill="black" fill-opacity="0.85"/>
<path d="M20.1589 25.3819C23.8503 25.3819 26.8268 22.4639 26.8268 18.8194C26.8268 16.8858 25.901 15.0928 25.2448 13.8389L22.6315 8.97559C22.0924 7.9795 21.319 7.38184 20.1589 7.38184C18.9987 7.38184 18.2253 7.9795 17.6862 8.97559L15.0846 13.8506C14.4284 15.0928 13.4909 16.8858 13.4909 18.8194C13.4909 22.4639 16.4792 25.3819 20.1589 25.3819Z" fill="white"/>
<path d="M20.1589 23.7764C22.9831 23.7764 25.2331 21.5733 25.2331 18.8194C25.2331 17.2959 24.4714 15.8077 23.8268 14.6006L21.2135 9.7373C20.9323 9.20996 20.6745 8.9873 20.1589 8.9873C19.6315 8.9873 19.3854 9.20996 19.1042 9.7373L16.5026 14.6006C15.8581 15.8077 15.0964 17.2959 15.0964 18.8194C15.0964 21.5733 17.3464 23.7764 20.1589 23.7764Z" fill="black" fill-opacity="0.85"/>
</g>
<defs>
<clipPath id="clip0_2207_4885">
<rect width="26.808" height="25.3008" fill="white" transform="translate(0.0187988 0.0810547)"/>
</clipPath>
</defs>
</svg>
