<svg width="19" height="28" viewBox="0 0 19 28" fill="none" xmlns="http://www.w3.org/2000/svg">
<g clip-path="url(#clip0_2207_11876)">
<path d="M3.06909 2.94043C3.52612 2.94043 3.90112 2.56543 3.90112 2.10839C3.90112 1.65136 3.52612 1.27636 3.06909 1.27636C2.61206 1.27636 2.23706 1.65136 2.23706 2.10839C2.23706 2.56543 2.61206 2.94043 3.06909 2.94043ZM9.50269 1.75683C9.95972 1.75683 10.3347 1.38183 10.3347 0.924805C10.3347 0.456055 9.95972 0.0810547 9.50269 0.0810547C9.04566 0.0810547 8.67066 0.456055 8.67066 0.924805C8.67066 1.38183 9.04566 1.75683 9.50269 1.75683ZM15.9363 2.94043C16.3933 2.94043 16.7683 2.56543 16.7683 2.10839C16.7683 1.65136 16.3933 1.27636 15.9363 1.27636C15.4793 1.27636 15.1043 1.65136 15.1043 2.10839C15.1043 2.56543 15.4793 2.94043 15.9363 2.94043Z" fill="black" fill-opacity="0.85"/>
<path d="M5.22534 5.68261C5.68238 5.68261 6.05738 5.30761 6.05738 4.85058C6.05738 4.39355 5.68238 4.01855 5.22534 4.01855C4.75659 4.01855 4.38159 4.39355 4.38159 4.85058C4.38159 5.30761 4.75659 5.68261 5.22534 5.68261ZM9.50269 5.24902C9.95972 5.24902 10.3347 4.87402 10.3347 4.41699C10.3347 3.95996 9.95972 3.58496 9.50269 3.58496C9.04566 3.58496 8.67066 3.95996 8.67066 4.41699C8.67066 4.87402 9.04566 5.24902 9.50269 5.24902ZM13.7917 5.68261C14.2488 5.68261 14.6238 5.30761 14.6238 4.85058C14.6238 4.39355 14.2488 4.01855 13.7917 4.01855C13.323 4.01855 12.9597 4.39355 12.9597 4.85058C12.9597 5.30761 13.323 5.68261 13.7917 5.68261Z" fill="black" fill-opacity="0.85"/>
<path d="M6.93628 27.0459H12.0222C16.6043 27.0459 18.948 24.6202 18.948 20.4717C18.948 17.2491 16.1824 12.9717 12.9363 8.64747C12.3035 7.81544 11.8933 7.34668 10.7449 7.34668H8.21362C7.07691 7.34668 6.66675 7.81544 6.02222 8.64747C2.77612 12.9717 0.010498 17.2491 0.010498 20.4717C0.010498 24.6202 2.35425 27.0459 6.93628 27.0459ZM1.86206 20.4717C1.86206 17.8936 4.06519 14.3663 7.53394 9.6084C7.76831 9.292 7.89722 9.20997 8.23706 9.20997H10.7214C11.0613 9.20997 11.1902 9.292 11.4246 9.6084C14.8933 14.3663 17.0964 17.8936 17.0964 20.4717C17.0964 23.4717 15.4558 25.1944 12.0222 25.1944H6.93628C3.50269 25.1944 1.86206 23.4717 1.86206 20.4717ZM4.35816 12.1983L3.99488 14.0499H14.9871L14.6355 12.1983H4.35816ZM1.28784 21.2452H7.60425V19.3936H1.28784V21.2452ZM9.49097 23.0264C10.991 23.0264 12.1863 21.8194 12.1863 20.3077C12.1863 18.7959 10.991 17.6006 9.49097 17.6006C7.95581 17.6006 6.77222 18.7959 6.77222 20.3077C6.77222 21.8194 7.95581 23.0264 9.49097 23.0264ZM9.49097 21.3623C8.86988 21.3623 8.43628 20.917 8.43628 20.3077C8.43628 19.71 8.86988 19.253 9.49097 19.253C10.0886 19.253 10.5339 19.71 10.5339 20.3077C10.5339 20.917 10.0886 21.3623 9.49097 21.3623ZM11.366 21.2452H17.7293V19.3936H11.366V21.2452Z" fill="black" fill-opacity="0.85"/>
</g>
<defs>
<clipPath id="clip0_2207_11876">
<rect width="18.9375" height="26.9883" fill="white" transform="translate(0.010498 0.0810547)"/>
</clipPath>
</defs>
</svg>
