<svg width="15" height="25" viewBox="0 0 15 25" fill="none" xmlns="http://www.w3.org/2000/svg">
<g clip-path="url(#clip0_2207_4760)">
<path d="M0.0209961 23.6358C0.0209961 24.128 0.407715 24.5264 0.92334 24.5264C7.95459 24.5264 13.4624 19.7452 13.4624 12.3038C13.4624 9.02246 10.7554 6.31543 7.48584 6.31543C6.29053 6.31543 5.17725 6.71386 4.29834 7.38183C6.00928 3.91308 9.66553 1.85058 14.0483 1.85058C14.564 1.85058 14.9507 1.45214 14.9507 0.959961C14.9507 0.467774 14.564 0.0810547 14.0483 0.0810547C7.01709 0.0810547 1.521 4.85058 1.521 12.3038C1.521 15.5733 4.22803 18.2803 7.48584 18.2803C8.69288 18.2803 9.79444 17.8819 10.6733 17.2256C8.96241 20.6944 5.29444 22.7569 0.92334 22.7569C0.407715 22.7569 0.0209961 23.1436 0.0209961 23.6358ZM5.78662 12.3038C5.78662 11.3663 6.56006 10.6045 7.48584 10.6045C8.42334 10.6045 9.18506 11.3663 9.18506 12.3038C9.18506 13.2178 8.42334 14.003 7.48584 14.003C6.56006 14.003 5.78662 13.2295 5.78662 12.3038Z" fill="black" fill-opacity="0.85"/>
</g>
<defs>
<clipPath id="clip0_2207_4760">
<rect width="14.9297" height="24.457" fill="white" transform="translate(0.0209961 0.0810547)"/>
</clipPath>
</defs>
</svg>
