<svg width="24" height="24" viewBox="0 0 24 24" fill="none" xmlns="http://www.w3.org/2000/svg">
<g clip-path="url(#clip0_2207_24991)">
<path d="M11.9825 23.9873C18.5216 23.9873 23.9356 18.5616 23.9356 12.0342C23.9356 5.49511 18.5099 0.0810547 11.9708 0.0810547C5.44348 0.0810547 0.0294189 5.49511 0.0294189 12.0342C0.0294189 18.5616 5.4552 23.9873 11.9825 23.9873Z" fill="black" fill-opacity="0.85"/>
<path d="M11.9708 17.5772C11.338 17.5772 11.0099 17.1202 11.0099 16.4756V7.37011C11.0099 6.72558 11.338 6.26855 11.9708 6.26855C12.6036 6.26855 12.9552 6.69043 12.9552 7.37011V16.4756C12.9552 17.1553 12.6036 17.5772 11.9708 17.5772Z" fill="white"/>
</g>
<defs>
<clipPath id="clip0_2207_24991">
<rect width="23.9062" height="23.918" fill="white" transform="translate(0.0294189 0.0810547)"/>
</clipPath>
</defs>
</svg>
