<svg width="30" height="23" viewBox="0 0 30 23" fill="none" xmlns="http://www.w3.org/2000/svg">
<g clip-path="url(#clip0_2207_8659)">
<path d="M23.1918 20.4483C26.7309 20.4483 29.4965 17.8584 29.4965 14.6358C29.4965 12.1749 28.0786 10.042 25.7934 9.08105C25.8168 3.85449 22.0551 0.0810547 17.2622 0.0810547C14.0864 0.0810547 11.8247 1.78027 10.4184 3.83105C7.53564 2.9873 4.39502 5.17871 4.33642 8.45996C1.68798 8.88183 0.0356445 11.2491 0.0356445 14.1084C0.0356445 17.5538 3.04736 20.4483 7.05517 20.4483H23.1918ZM23.1918 18.5616H7.05517C4.10205 18.5616 1.92236 16.4991 1.92236 14.1084C1.92236 11.7647 3.34033 9.90136 5.8247 9.90136C5.98876 9.90136 6.04736 9.81933 6.04736 9.667C6.04736 6.05762 8.64892 4.99121 11.0512 5.77636C11.1918 5.82324 11.2739 5.78808 11.3442 5.65917C12.4809 3.63183 14.227 1.96777 17.2622 1.96777C21.1059 1.96777 23.7661 5.01464 23.9653 8.49511C24.0004 9.03417 23.9653 9.66699 23.9184 10.2178C23.9067 10.3702 23.9653 10.4522 24.1059 10.4873C26.2387 10.9561 27.6098 12.5147 27.6098 14.6358C27.6098 16.8155 25.6879 18.5616 23.1918 18.5616Z" fill="black" fill-opacity="0.85"/>
</g>
<defs>
<clipPath id="clip0_2207_8659">
<rect width="29.4609" height="22.2773" fill="white" transform="translate(0.0356445 0.0810547)"/>
</clipPath>
</defs>
</svg>
