<svg width="30" height="27" viewBox="0 0 30 27" fill="none" xmlns="http://www.w3.org/2000/svg">
<g clip-path="url(#clip0_2207_8825)">
<path d="M0.0440674 14.8467C0.0440674 17.835 2.5636 20.2373 6.40735 20.2373H13.9191V25.3233C13.9191 25.8155 14.3527 26.2256 14.8566 26.2256C15.3605 26.2256 15.7824 25.8155 15.7824 25.3233V20.2373H23.8683C27.2433 20.2373 29.505 18.128 29.505 15.3506C29.505 13.0538 28.0871 10.9444 25.8019 9.99512C25.8253 4.76856 22.0636 0.995117 17.2707 0.995117C14.0949 0.995117 11.8332 2.69434 10.4269 4.74512C7.76673 4.03028 4.40345 6.09278 4.34485 9.38575C1.69641 9.80762 0.0440674 12.1397 0.0440674 14.8467Z" fill="black" fill-opacity="0.85"/>
<path d="M13.9191 19.7569V13.7217L13.9894 11.9756L13.3918 12.6084L11.423 14.6944C11.2589 14.8819 11.0011 14.9756 10.7785 14.9756C10.2863 14.9756 9.93469 14.6241 9.93469 14.1553C9.93469 13.8975 10.0402 13.71 10.216 13.5342L14.1769 9.71386C14.4113 9.47949 14.6105 9.39746 14.8566 9.39746C15.091 9.39746 15.2902 9.47949 15.5246 9.71386L19.4855 13.5342C19.6613 13.71 19.7668 13.8975 19.7668 14.1553C19.7668 14.6241 19.3918 14.9756 18.9113 14.9756C18.6886 14.9756 18.4425 14.8819 18.2785 14.6944L16.3097 12.6084L15.7121 11.9756L15.7824 13.7217V19.7569C15.7824 20.2725 15.3605 20.6827 14.8566 20.6827C14.341 20.6827 13.9191 20.2725 13.9191 19.7569Z" fill="white"/>
</g>
<defs>
<clipPath id="clip0_2207_8825">
<rect width="29.4609" height="26.1445" fill="white" transform="translate(0.0440674 0.0810547)"/>
</clipPath>
</defs>
</svg>
