<svg width="22" height="22" viewBox="0 0 22 22" fill="none" xmlns="http://www.w3.org/2000/svg">
<g clip-path="url(#clip0_2207_8677)">
<path d="M3.73633 21.6788H17.9511C20.4121 21.6788 21.6308 20.46 21.6308 18.0459V3.7373C21.6308 1.32324 20.4121 0.104492 17.9511 0.104492H3.73633C1.28711 0.104492 0.0566406 1.31152 0.0566406 3.7373V18.0459C0.0566406 20.4717 1.28711 21.6788 3.73633 21.6788ZM3.75976 19.792C2.58789 19.792 1.94336 19.1709 1.94336 17.9522V3.83105C1.94336 2.6123 2.58789 1.99121 3.75976 1.99121H17.9277C19.0878 1.99121 19.7441 2.6123 19.7441 3.83105V17.9522C19.7441 19.1709 19.0878 19.792 17.9277 19.792H3.75976Z" fill="black" fill-opacity="0.85"/>
<path d="M6.66602 15.1749H15.5722C16.9668 15.1749 18.0566 14.0616 18.0566 12.7022C18.0566 11.5303 17.2714 10.5577 16.2285 10.2999C16.2402 10.1827 16.2519 10.0654 16.2519 9.95996C16.2519 7.58105 14.3535 5.64746 11.916 5.64746C10.4863 5.64746 9.2207 6.32714 8.43555 7.40527C8.2832 7.37011 8.10742 7.34667 7.9668 7.34667C6.75976 7.34667 5.74023 8.22558 5.56445 9.43261C4.47461 9.86621 3.66602 10.9327 3.66602 12.21C3.66602 14.1436 4.9668 15.1749 6.66602 15.1749Z" fill="black" fill-opacity="0.85"/>
</g>
<defs>
<clipPath id="clip0_2207_8677">
<rect width="21.5742" height="21.5977" fill="white" transform="translate(0.0566406 0.0810547)"/>
</clipPath>
</defs>
</svg>
