<svg width="25" height="23" viewBox="0 0 25 23" fill="none" xmlns="http://www.w3.org/2000/svg">
<g clip-path="url(#clip0_2207_22238)">
<path d="M0.941894 21.9366C1.4458 21.9366 1.83252 21.5264 1.83252 21.0342V0.97168C1.83252 0.479493 1.4458 0.0810547 0.941894 0.0810547C0.449707 0.0810547 0.0629883 0.479493 0.0629883 0.97168V21.0342C0.0629883 21.5264 0.449707 21.9366 0.941894 21.9366ZM6.78955 21.9366C7.29346 21.9366 7.68018 21.5264 7.68018 21.0342V0.97168C7.68018 0.479493 7.29346 0.0810547 6.78955 0.0810547C6.29737 0.0810547 5.91065 0.479493 5.91065 0.97168V21.0342C5.91065 21.5264 6.29737 21.9366 6.78955 21.9366ZM12.6372 21.9366C13.1411 21.9366 13.5278 21.5264 13.5278 21.0342V0.97168C13.5278 0.479493 13.1411 0.0810547 12.6372 0.0810547C12.145 0.0810547 11.7583 0.479493 11.7583 0.97168V21.0342C11.7583 21.5264 12.145 21.9366 12.6372 21.9366Z" fill="black" fill-opacity="0.85"/>
<path d="M19.7504 14.6006L23.6293 12.0108C24.3207 11.542 24.2973 10.5459 23.6293 10.0771L19.7504 7.44043C18.8481 6.83105 17.8988 7.17089 17.9106 8.24902V13.8038C17.8988 14.8467 18.8832 15.1631 19.7504 14.6006Z" fill="black" fill-opacity="0.85"/>
</g>
<defs>
<clipPath id="clip0_2207_22238">
<rect width="24.0762" height="21.9258" fill="white" transform="translate(0.0629883 0.0810547)"/>
</clipPath>
</defs>
</svg>
