<svg width="22" height="22" viewBox="0 0 22 22" fill="none" xmlns="http://www.w3.org/2000/svg">
<g clip-path="url(#clip0_2207_25605)">
<path d="M3.75318 21.6788H17.968C20.429 21.6788 21.6477 20.46 21.6477 18.0459V3.7373C21.6477 1.32324 20.429 0.104492 17.968 0.104492H3.75318C1.30396 0.104492 0.0734863 1.31152 0.0734863 3.7373V18.0459C0.0734863 20.4717 1.30396 21.6788 3.75318 21.6788Z" fill="black" fill-opacity="0.85"/>
<path d="M12.343 16.9327C12.0852 16.9327 11.886 16.8623 11.6165 16.6045L7.24537 12.4913C7.01099 12.2569 6.81177 12.0694 6.81177 11.6592C6.81177 11.1436 7.17505 10.8272 7.67896 10.8272H9.43677C10.6555 10.8272 11.4524 10.3584 11.6751 9.4209H7.40943C7.06958 9.4209 6.81177 9.15137 6.81177 8.82325C6.81177 8.47168 7.06958 8.21387 7.40943 8.21387H11.6399C11.4173 7.34668 10.6673 6.84278 9.58911 6.84278H7.42115C7.03443 6.84278 6.7063 6.50294 6.7063 6.11622C6.7063 5.70606 7.03443 5.40137 7.42115 5.40137H10.6673C11.054 5.40137 11.4407 5.40137 11.8274 5.40137H14.3704C14.7219 5.40137 14.968 5.63575 14.968 5.98731C14.968 6.31544 14.7219 6.59668 14.3704 6.59668H12.6126C13.011 7.03028 13.2337 7.59278 13.3274 8.21387H14.4407C14.7923 8.21387 15.0266 8.47168 15.0266 8.82325C15.0266 9.15137 14.7923 9.4209 14.4407 9.4209H13.304C13.0579 10.9444 11.886 12.2686 9.50708 12.2686H9.19068L12.7532 15.5967C12.929 15.7725 13.0813 15.9834 13.0813 16.2295C13.0813 16.6749 12.7415 16.9327 12.343 16.9327Z" fill="white"/>
</g>
<defs>
<clipPath id="clip0_2207_25605">
<rect width="21.5742" height="21.5977" fill="white" transform="translate(0.0734863 0.0810547)"/>
</clipPath>
</defs>
</svg>
