<svg width="24" height="24" viewBox="0 0 24 24" fill="none" xmlns="http://www.w3.org/2000/svg">
<g clip-path="url(#clip0_2207_25595)">
<path d="M12.0224 23.9873C18.5615 23.9873 23.9755 18.5616 23.9755 12.0342C23.9755 5.49511 18.5498 0.0810547 12.0107 0.0810547C5.4834 0.0810547 0.0693359 5.49511 0.0693359 12.0342C0.0693359 18.5616 5.49512 23.9873 12.0224 23.9873Z" fill="black" fill-opacity="0.85"/>
<path d="M13.499 18.0928C13.2412 18.0928 13.042 18.0225 12.7724 17.7647L8.40136 13.6514C8.16699 13.417 7.96777 13.2295 7.96777 12.8194C7.96777 12.3038 8.33105 11.9873 8.83495 11.9873H10.5927C11.8115 11.9873 12.6084 11.5186 12.831 10.5811H8.56542C8.22558 10.5811 7.96777 10.3116 7.96777 9.98339C7.96777 9.63183 8.22558 9.37402 8.56542 9.37402H12.7959C12.5732 8.50683 11.8232 8.00293 10.7451 8.00293H8.57714C8.19042 8.00293 7.8623 7.66308 7.8623 7.27636C7.8623 6.86621 8.19042 6.56152 8.57714 6.56152H11.8232C12.2099 6.56152 12.5966 6.56152 12.9834 6.56152H15.5263C15.8779 6.56152 16.124 6.79589 16.124 7.14746C16.124 7.47558 15.8779 7.75683 15.5263 7.75683H13.7685C14.1552 8.19043 14.3896 8.75293 14.4834 9.37402H15.5966C15.9482 9.37402 16.1826 9.63183 16.1826 9.98339C16.1826 10.3116 15.9482 10.5811 15.5966 10.5811H14.4599C14.2138 12.1045 13.042 13.4288 10.6631 13.4288H10.3349L13.9091 16.7569C14.0849 16.9327 14.2255 17.1436 14.2255 17.3897C14.2255 17.835 13.8974 18.0928 13.499 18.0928Z" fill="white"/>
</g>
<defs>
<clipPath id="clip0_2207_25595">
<rect width="23.9062" height="23.918" fill="white" transform="translate(0.0693359 0.0810547)"/>
</clipPath>
</defs>
</svg>
