<svg width="24" height="24" viewBox="0 0 24 24" fill="none" xmlns="http://www.w3.org/2000/svg">
<g clip-path="url(#clip0_2207_5367)">
<path d="M12.0329 23.9873C18.572 23.9873 23.986 18.5616 23.986 12.0342C23.986 5.49511 18.5603 0.0810547 12.0212 0.0810547C5.49389 0.0810547 0.079834 5.49511 0.079834 12.0342C0.079834 18.5616 5.50561 23.9873 12.0329 23.9873Z" fill="black" fill-opacity="0.85"/>
<path d="M3.90015 12.0342C3.90015 9.73731 5.35328 8.20215 7.50953 8.20215C8.66968 8.20215 9.64234 8.69434 10.6853 9.69044L12.0446 11.003L13.4157 9.69044C14.4821 8.65918 15.4431 8.20215 16.5798 8.20215C18.7478 8.20215 20.2009 9.73731 20.2009 12.0342C20.2009 14.3194 18.7478 15.8545 16.5798 15.8545C15.4548 15.8545 14.4939 15.3975 13.4157 14.3663L12.0446 13.0655L10.6853 14.3663C9.63062 15.3741 8.65796 15.8545 7.50953 15.8545C5.35328 15.8545 3.90015 14.3194 3.90015 12.0342ZM5.40015 12.0342C5.40015 13.4522 6.23218 14.3663 7.50953 14.3663C8.21265 14.3663 8.82203 14.0381 9.6189 13.2881L10.9782 12.0342L9.6189 10.7803C8.79859 10.0068 8.20093 9.69044 7.50953 9.69044C6.23218 9.69044 5.40015 10.6163 5.40015 12.0342ZM13.1228 12.0342L14.4704 13.2881C15.2673 14.0381 15.8767 14.3663 16.5798 14.3663C17.8571 14.3663 18.7009 13.4522 18.7009 12.0342C18.7009 10.6163 17.8571 9.69044 16.5798 9.69044C15.9001 9.69044 15.2907 10.0068 14.4704 10.7803L13.1228 12.0342Z" fill="white"/>
</g>
<defs>
<clipPath id="clip0_2207_5367">
<rect width="23.9062" height="23.918" fill="white" transform="translate(0.079834 0.0810547)"/>
</clipPath>
</defs>
</svg>
