<svg width="35" height="19" viewBox="0 0 35 19" fill="none" xmlns="http://www.w3.org/2000/svg">
<g clip-path="url(#clip0_2207_15803)">
<path d="M17.0925 16.1123C19.4011 16.1123 22.0964 16.8155 24.1003 17.8584C24.6393 18.1514 25.237 18.0342 25.5886 17.5772L33.569 7.41699C34.3542 6.40917 34.2253 5.34277 33.2292 4.55761C29.9597 2.03808 23.6901 0.0810547 17.0925 0.0810547C10.4948 0.0810547 4.22526 2.03808 0.944012 4.55761C-0.0520812 5.34277 -0.180988 6.40917 0.615887 7.41699L8.59636 17.5772C8.94792 18.0342 9.53386 18.1514 10.0729 17.8584C12.0768 16.8155 14.7839 16.1123 17.0925 16.1123ZM17.0925 14.2256C14.9479 14.2256 12.4753 14.7881 10.0846 15.7725C9.79167 15.8897 9.66276 15.8663 9.42839 15.5733L2.49089 6.7373C2.26823 6.44433 2.30339 6.16308 2.61979 5.95214C6.65104 3.40917 11.819 1.96777 17.0925 1.96777C22.3659 1.96777 27.5339 3.40917 31.5651 5.95214C31.8815 6.16308 31.9167 6.44433 31.6823 6.7373L24.7565 15.5733C24.5222 15.8663 24.3933 15.8897 24.1003 15.7725C21.7097 14.7881 19.2253 14.2256 17.0925 14.2256Z" fill="black" fill-opacity="0.85"/>
<path d="M15.4168 12.8311H18.7566C19.1551 12.8311 19.4832 12.5147 19.4832 12.1045C19.4832 11.7178 19.1668 11.4131 18.7566 11.4131H17.866V7.37011C17.866 6.87793 17.5965 6.51464 17.1043 6.51464H15.5574C15.159 6.51464 14.8309 6.80761 14.8309 7.20605C14.8309 7.62793 15.159 7.93261 15.5574 7.93261H16.2957V11.4131H15.4168C15.0184 11.4131 14.6902 11.7061 14.6902 12.1045C14.6902 12.5264 15.0184 12.8311 15.4168 12.8311ZM16.7879 5.41308C17.4559 5.41308 17.9832 4.8623 17.9832 4.20605C17.9832 3.53808 17.4441 2.99902 16.7879 2.99902C16.1199 2.99902 15.5691 3.53808 15.5691 4.20605C15.5691 4.8623 16.1199 5.41308 16.7879 5.41308Z" fill="black" fill-opacity="0.85"/>
</g>
<defs>
<clipPath id="clip0_2207_15803">
<rect width="33.9819" height="18.082" fill="white" transform="translate(0.0966797 0.0810547)"/>
</clipPath>
</defs>
</svg>
