<svg width="22" height="22" viewBox="0 0 22 22" fill="none" xmlns="http://www.w3.org/2000/svg">
<g clip-path="url(#clip0_2207_22615)">
<path d="M3.77198 21.6788H17.9868C20.4478 21.6788 21.6665 20.46 21.6665 18.0459V3.7373C21.6665 1.32324 20.4478 0.104492 17.9868 0.104492H3.77198C1.32276 0.104492 0.0922852 1.31152 0.0922852 3.7373V18.0459C0.0922852 20.4717 1.32276 21.6788 3.77198 21.6788ZM3.79541 19.792C2.62354 19.792 1.97901 19.1709 1.97901 17.9522V3.83105C1.97901 2.6123 2.62354 1.99121 3.79541 1.99121H17.9634C19.1235 1.99121 19.7798 2.6123 19.7798 3.83105V17.9522C19.7798 19.1709 19.1235 19.792 17.9634 19.792H3.79541Z" fill="black" fill-opacity="0.85"/>
<path d="M8.84619 17.4366H13.6157C14.0962 17.4366 14.4712 17.085 14.4712 16.6045C14.4712 16.1475 14.0962 15.7842 13.6157 15.7842H12.1626V9.81933C12.1626 9.18652 11.8462 8.76464 11.2485 8.76464H9.0454C8.56494 8.76464 8.18994 9.12793 8.18994 9.58496C8.18994 10.0654 8.56494 10.417 9.0454 10.417H10.2993V15.7842H8.84619C8.36572 15.7842 7.99072 16.1475 7.99072 16.6045C7.99072 17.085 8.36572 17.4366 8.84619 17.4366ZM10.7915 6.81933C11.647 6.81933 12.315 6.13964 12.315 5.28417C12.315 4.42871 11.647 3.74902 10.7915 3.74902C9.94775 3.74902 9.26806 4.42871 9.26806 5.28417C9.26806 6.13964 9.94775 6.81933 10.7915 6.81933Z" fill="black" fill-opacity="0.85"/>
</g>
<defs>
<clipPath id="clip0_2207_22615">
<rect width="21.5742" height="21.5977" fill="white" transform="translate(0.0922852 0.0810547)"/>
</clipPath>
</defs>
</svg>
