<svg width="20" height="27" viewBox="0 0 20 27" fill="none" xmlns="http://www.w3.org/2000/svg">
<g clip-path="url(#clip0_2207_13881)">
<path d="M0.0126953 23.3911C0.0126953 25.2427 1.31348 26.4848 3.25879 26.4848H16.3486C18.2939 26.4848 19.5947 25.2427 19.5947 23.3911V3.18799C19.5947 1.33643 18.2939 0.0825195 16.3486 0.0825195H3.25879C1.31348 0.0825195 0.0126953 1.33643 0.0126953 3.18799V23.3911ZM8.28614 22.8989C7.86426 22.8989 7.52442 22.5473 7.52442 22.1255V4.45361C7.52442 4.03174 7.86426 3.68018 8.28614 3.68018C8.70801 3.68018 9.05958 4.03174 9.05958 4.45361V22.1255C9.05958 22.5473 8.70801 22.8989 8.28614 22.8989ZM14.2627 22.8989C13.8408 22.8989 13.4893 22.5473 13.4893 22.1255V4.45361C13.4893 4.03174 13.8408 3.68018 14.2627 3.68018C14.6846 3.68018 15.0244 4.03174 15.0244 4.45361V22.1255C15.0244 22.5473 14.6846 22.8989 14.2627 22.8989Z" fill="black" fill-opacity="0.85"/>
</g>
<defs>
<clipPath id="clip0_2207_13881">
<rect width="19.582" height="26.4258" fill="white" transform="translate(0.0126953 0.0825195)"/>
</clipPath>
</defs>
</svg>
