<svg width="32" height="25" viewBox="0 0 32 25" fill="none" xmlns="http://www.w3.org/2000/svg">
<g clip-path="url(#clip0_2207_13802)">
<path d="M3.68604 23.2856H23.9711C26.4204 23.2856 27.6508 22.0669 27.6508 19.6528V5.34424C27.6508 2.93018 26.4204 1.71143 23.9711 1.71143H3.68604C1.24854 1.71143 0.00634766 2.91846 0.00634766 5.34424V19.6528C0.00634766 22.0786 1.24854 23.2856 3.68604 23.2856ZM3.72119 21.3989C2.54932 21.3989 1.89307 20.7778 1.89307 19.5591V5.43799C1.89307 4.21924 2.54932 3.59814 3.72119 3.59814H23.936C25.0961 3.59814 25.7641 4.21924 25.7641 5.43799V19.5591C25.7641 20.7778 25.0961 21.3989 23.936 21.3989H3.72119ZM9.29932 20.4966H18.3579C18.6743 20.4966 18.8969 20.2856 18.8969 19.9575C18.8969 19.6294 18.6743 19.4067 18.3579 19.4067H9.29932C8.98291 19.4067 8.74854 19.6294 8.74854 19.9575C8.74854 20.2856 8.98291 20.4966 9.29932 20.4966Z" fill="black" fill-opacity="0.85"/>
<path d="M22.2485 24.8911H27.5805C29.9125 24.8911 31.4711 23.3677 31.4711 21.0942V9.42236C31.4711 7.14893 29.9125 5.62549 27.5805 5.62549H22.2485C19.9047 5.62549 18.3579 7.14893 18.3579 9.42236V21.0942C18.3579 23.3677 19.9047 24.8911 22.2485 24.8911Z" fill="white"/>
<path d="M22.2486 23.2856H27.5806C29.0337 23.2856 29.8658 22.4887 29.8658 21.0942V9.42236C29.8658 8.02783 29.0337 7.21924 27.5806 7.21924H22.2486C20.7955 7.21924 19.9517 8.02783 19.9517 9.42236V21.0942C19.9517 22.4887 20.7955 23.2856 22.2486 23.2856ZM22.272 21.7505C21.7564 21.7505 21.4869 21.4809 21.4869 20.9419V9.57471C21.4869 9.03564 21.7564 8.7544 22.272 8.7544H27.5572C28.0728 8.7544 28.3306 9.03564 28.3306 9.57471V20.9419C28.3306 21.4809 28.0728 21.7505 27.5572 21.7505H22.272ZM23.315 21.1528H26.4908C26.7252 21.1528 26.9126 20.9887 26.9126 20.7427C26.9126 20.52 26.7252 20.3442 26.4908 20.3442H23.315C23.0806 20.3442 22.9166 20.52 22.9166 20.7427C22.9166 21.0005 23.0572 21.1528 23.315 21.1528ZM23.9712 10.4302H25.8111C26.1158 10.4302 26.3619 10.1958 26.3619 9.8794C26.3619 9.58643 26.1158 9.35205 25.8111 9.35205H23.9712C23.6666 9.35205 23.4322 9.58643 23.4322 9.8794C23.4322 10.1958 23.6666 10.4302 23.9712 10.4302Z" fill="black" fill-opacity="0.85"/>
</g>
<defs>
<clipPath id="clip0_2207_13802">
<rect width="31.4648" height="24.8086" fill="white" transform="translate(0.00634766 0.0825195)"/>
</clipPath>
</defs>
</svg>
