<svg width="20" height="27" viewBox="0 0 20 27" fill="none" xmlns="http://www.w3.org/2000/svg">
<g clip-path="url(#clip0_2207_13832)">
<path d="M3.28393 26.4848H16.3737C18.319 26.4848 19.6198 25.2427 19.6198 23.3911V3.18799C19.6198 1.33643 18.319 0.0825195 16.3737 0.0825195H3.28393C1.33862 0.0825195 0.0378418 1.33643 0.0378418 3.18799V23.3911C0.0378418 25.2427 1.33862 26.4848 3.28393 26.4848ZM3.51831 24.5981C2.5105 24.5981 1.92456 24.0356 1.92456 23.0747V3.5044C1.92456 2.54346 2.5105 1.96924 3.51831 1.96924H16.1394C17.1355 1.96924 17.7331 2.54346 17.7331 3.5044V23.0747C17.7331 24.0356 17.1355 24.5981 16.1394 24.5981H3.51831Z" fill="black" fill-opacity="0.85"/>
<path d="M4.93628 6.45752C5.72143 6.45752 6.41284 5.77783 6.41284 4.9458C6.41284 4.14893 5.72143 3.46924 4.93628 3.46924C4.10425 3.46924 3.42456 4.14893 3.42456 4.9458C3.42456 5.77783 4.10425 6.45752 4.93628 6.45752Z" fill="black" fill-opacity="0.85"/>
</g>
<defs>
<clipPath id="clip0_2207_13832">
<rect width="19.582" height="26.4258" fill="white" transform="translate(0.0378418 0.0825195)"/>
</clipPath>
</defs>
</svg>
