<svg width="28" height="22" viewBox="0 0 28 22" fill="none" xmlns="http://www.w3.org/2000/svg">
<g clip-path="url(#clip0_2207_13742)">
<path d="M2.16552 11.5317C1.81396 11.5434 1.52099 11.2387 1.50927 10.8755C1.49755 10.5356 1.80224 10.2427 2.1538 10.2427C2.51708 10.2427 2.79833 10.5356 2.79833 10.8755C2.79833 11.2387 2.50537 11.52 2.16552 11.5317ZM3.99365 19.7934V1.99268H23.6812V19.7934H3.99365ZM25.4624 11.895C24.8999 11.895 24.4663 11.438 24.4663 10.8755C24.4663 10.3247 24.9116 9.86768 25.4741 9.86768C26.0366 9.86768 26.4819 10.3247 26.4819 10.8755C26.4819 11.438 26.0366 11.895 25.4624 11.895Z" fill="black" fill-opacity="0.85"/>
<path d="M3.70069 21.6802H23.9741C26.4351 21.6802 27.6538 20.4614 27.6538 18.0473V3.73877C27.6538 1.32471 26.4351 0.105957 23.9741 0.105957H3.70069C1.25147 0.105957 0.0209961 1.31299 0.0209961 3.73877V18.0473C0.0209961 20.4731 1.25147 21.6802 3.70069 21.6802ZM2.16553 11.5317C1.81397 11.5434 1.521 11.2387 1.50928 10.8755C1.49756 10.5356 1.80225 10.2427 2.15381 10.2427C2.51709 10.2427 2.79834 10.5356 2.79834 10.8755C2.79834 11.2387 2.50538 11.52 2.16553 11.5317ZM3.99366 19.7934V1.99268H23.6812V19.7934H3.99366ZM25.4624 11.895C24.8999 11.895 24.4663 11.438 24.4663 10.8755C24.4663 10.3247 24.9116 9.86768 25.4741 9.86768C26.0366 9.86768 26.4819 10.3247 26.4819 10.8755C26.4819 11.438 26.0366 11.895 25.4624 11.895Z" fill="black" fill-opacity="0.85"/>
</g>
<defs>
<clipPath id="clip0_2207_13742">
<rect width="27.6328" height="21.5977" fill="white" transform="translate(0.0209961 0.0825195)"/>
</clipPath>
</defs>
</svg>
