<svg width="25" height="16" viewBox="0 0 25 16" fill="none" xmlns="http://www.w3.org/2000/svg">
<g clip-path="url(#clip0_2207_13514)">
<path d="M3.37378 13.2676C2.42456 13.2676 1.89722 12.7051 1.89722 11.7207V3.51757C1.89722 2.5332 2.42456 1.9707 3.37378 1.9707H21.4793C22.4167 1.9707 22.9441 2.5332 22.9441 3.51757V11.7207C22.9441 12.7051 22.4167 13.2676 21.4793 13.2676H3.37378Z" fill="black" fill-opacity="0.85"/>
<path d="M3.06909 15.1543H21.7839C23.6121 15.1543 24.8308 13.8652 24.8308 11.9551V3.27148C24.8308 1.36132 23.6121 0.0839844 21.7839 0.0839844H3.06909C1.24097 0.0839844 0.010498 1.36132 0.010498 3.27148V11.9551C0.010498 13.8652 1.24097 15.1543 3.06909 15.1543ZM3.37378 13.2676C2.42456 13.2676 1.89722 12.7051 1.89722 11.7207V3.51757C1.89722 2.5332 2.42456 1.9707 3.37378 1.9707H21.4793C22.4167 1.9707 22.9441 2.5332 22.9441 3.51757V11.7207C22.9441 12.7051 22.4167 13.2676 21.4793 13.2676H3.37378ZM9.30347 12.4004H15.5496C15.866 12.4004 16.0886 12.1778 16.0886 11.8496C16.0886 11.5215 15.866 11.3106 15.5496 11.3106H9.30347C8.98706 11.3106 8.76441 11.5215 8.76441 11.8496C8.76441 12.1778 8.98706 12.4004 9.30347 12.4004ZM3.56128 9.86914C4.03003 9.86914 4.39331 9.49414 4.39331 9.02539V6.18945C4.39331 5.73242 4.03003 5.36914 3.56128 5.36914C3.10425 5.36914 2.72925 5.73242 2.72925 6.18945V9.02539C2.72925 9.49414 3.10425 9.86914 3.56128 9.86914Z" fill="black" fill-opacity="0.85"/>
</g>
<defs>
<clipPath id="clip0_2207_13514">
<rect width="24.8203" height="15.1055" fill="white" transform="translate(0.010498 0.0839844)"/>
</clipPath>
</defs>
</svg>
