<svg width="24" height="25" viewBox="0 0 24 25" fill="none" xmlns="http://www.w3.org/2000/svg">
<g clip-path="url(#clip0_2207_13589)">
<path d="M11.9825 23.9902C18.5216 23.9902 23.9356 18.5645 23.9356 12.0371C23.9356 5.49804 18.5099 0.0839844 11.9708 0.0839844C5.44348 0.0839844 0.0294189 5.49804 0.0294189 12.0371C0.0294189 18.5645 5.4552 23.9902 11.9825 23.9902ZM11.9825 21.9981C6.4513 21.9981 2.03333 17.5684 2.03333 12.0371C2.03333 6.50586 6.43958 2.07617 11.9708 2.07617C17.5021 2.07617 21.9435 6.50586 21.9435 12.0371C21.9435 17.5684 17.5138 21.9981 11.9825 21.9981Z" fill="black" fill-opacity="0.85"/>
<path d="M5.15051 15.5176C5.31457 15.3184 5.26769 15.084 5.08019 14.8613C4.38879 14.0879 4.02551 13.1035 4.02551 12.0371C4.02551 10.9707 4.38879 9.98635 5.08019 9.21292C5.26769 8.99026 5.31457 8.74417 5.15051 8.55667C4.99817 8.34573 4.69348 8.34573 4.47083 8.56839C3.61536 9.49417 3.15833 10.7246 3.15833 12.0371C3.15833 13.3379 3.61536 14.5684 4.47083 15.5059C4.69348 15.7285 4.99817 15.7285 5.15051 15.5176ZM18.7794 15.5176C18.9435 15.7285 19.2482 15.7285 19.4591 15.5059C20.3146 14.5684 20.7833 13.3379 20.7833 12.0371C20.7833 10.7246 20.3146 9.49417 19.4591 8.56839C19.2482 8.34573 18.9435 8.34573 18.7794 8.55667C18.6153 8.74417 18.6622 8.99026 18.8614 9.21292C19.5411 9.98635 19.9161 10.9707 19.9161 12.0371C19.9161 13.1035 19.5411 14.0879 18.8614 14.8613C18.6622 15.084 18.6153 15.3184 18.7794 15.5176Z" fill="black" fill-opacity="0.85"/>
<path d="M6.83801 14.0763C7.00208 13.8771 6.94348 13.6544 6.7677 13.42C6.47473 13.045 6.33411 12.5646 6.33411 12.0372C6.33411 11.5099 6.47473 11.0177 6.7677 10.6544C6.94348 10.42 7.00208 10.1974 6.83801 9.99816C6.66223 9.78722 6.34583 9.78722 6.14661 10.0216C5.7013 10.5841 5.44348 11.2755 5.44348 12.0372C5.44348 12.7872 5.7013 13.4903 6.14661 14.0411C6.34583 14.2755 6.66223 14.2872 6.83801 14.0763ZM17.0919 14.0763C17.2677 14.2872 17.5958 14.2755 17.7833 14.0411C18.2286 13.4903 18.4982 12.7872 18.4982 12.0372C18.4982 11.2755 18.2286 10.5841 17.7833 10.0216C17.5958 9.78722 17.2677 9.78722 17.0919 9.99816C16.9278 10.1974 16.9864 10.42 17.1622 10.6544C17.4552 11.0177 17.6075 11.5099 17.6075 12.0372C17.6075 12.5646 17.4552 13.045 17.1622 13.42C16.9864 13.6544 16.9278 13.8771 17.0919 14.0763Z" fill="black" fill-opacity="0.85"/>
<path d="M9.66223 18.7402H14.3028C15.3458 18.7402 16.0489 18.0723 16.0489 17.0645V6.99805C16.0489 5.99024 15.3458 5.32227 14.3028 5.32227H9.66223C8.61926 5.32227 7.91614 5.99024 7.91614 6.99805V17.0645C7.91614 18.0723 8.61926 18.7402 9.66223 18.7402ZM9.79114 17.6973C9.25208 17.6973 8.95911 17.416 8.95911 16.9121V7.1504C8.95911 6.64649 9.25208 6.36524 9.79114 6.36524H14.1739C14.713 6.36524 15.006 6.64649 15.006 7.1504V16.9121C15.006 17.416 14.713 17.6973 14.1739 17.6973H9.79114ZM11.1974 7.78321H12.7442C13.0021 7.78321 13.2013 7.57227 13.2013 7.32618C13.2013 7.08008 13.0021 6.86915 12.7442 6.86915H11.1974C10.9396 6.86915 10.7521 7.08008 10.7521 7.32618C10.7521 7.57227 10.9396 7.78321 11.1974 7.78321ZM10.6583 17.252H13.3185C13.506 17.252 13.6232 17.1231 13.6232 16.9473C13.6232 16.7481 13.506 16.6192 13.3185 16.6192H10.6583C10.4708 16.6192 10.3419 16.7481 10.3419 16.9473C10.3419 17.1231 10.4708 17.252 10.6583 17.252Z" fill="black" fill-opacity="0.85"/>
</g>
<defs>
<clipPath id="clip0_2207_13589">
<rect width="23.9062" height="24.0117" fill="white" transform="translate(0.0294189 0.0839844)"/>
</clipPath>
</defs>
</svg>
