<svg width="24" height="24" viewBox="0 0 24 24" fill="none" xmlns="http://www.w3.org/2000/svg">
<g clip-path="url(#clip0_2207_13376)">
<path d="M12.0141 23.9887C18.5532 23.9887 23.9672 18.563 23.9672 12.0356C23.9672 5.49658 18.5415 0.0825195 12.0024 0.0825195C5.47509 0.0825195 0.0610352 5.49658 0.0610352 12.0356C0.0610352 18.563 5.48682 23.9887 12.0141 23.9887ZM12.0141 21.9966C6.48292 21.9966 2.06495 17.5669 2.06495 12.0356C2.06495 6.5044 6.47119 2.07471 12.0024 2.07471C17.5337 2.07471 21.9751 6.5044 21.9751 12.0356C21.9751 17.5669 17.5454 21.9966 12.0141 21.9966Z" fill="black" fill-opacity="0.85"/>
<path d="M7.5376 17.5903C7.5376 18.6919 8.29932 19.4302 9.44776 19.4302H14.5805C15.729 19.4302 16.4907 18.6919 16.4907 17.5903V6.48096C16.4907 5.3794 15.729 4.64111 14.5805 4.64111H9.44776C8.29932 4.64111 7.5376 5.3794 7.5376 6.48096V17.5903ZM8.68604 17.0395V7.03174H15.3422V17.0395H8.68604ZM12.0258 18.7153C11.6977 18.7153 11.4282 18.4458 11.4282 18.1177C11.4282 17.7895 11.6977 17.52 12.0258 17.52C12.3422 17.52 12.6001 17.7895 12.6001 18.1177C12.6001 18.4458 12.3422 18.7153 12.0258 18.7153ZM10.6782 5.8833C10.6782 5.70752 10.7954 5.60205 10.9594 5.60205H13.0805C13.2446 5.60205 13.3501 5.70752 13.3501 5.8833C13.3501 6.04736 13.2446 6.16455 13.0805 6.16455H10.9594C10.7954 6.16455 10.6782 6.04736 10.6782 5.8833Z" fill="black" fill-opacity="0.85"/>
</g>
<defs>
<clipPath id="clip0_2207_13376">
<rect width="23.9062" height="23.918" fill="white" transform="translate(0.0610352 0.0825195)"/>
</clipPath>
</defs>
</svg>
