<svg width="25" height="16" viewBox="0 0 25 16" fill="none" xmlns="http://www.w3.org/2000/svg">
<g clip-path="url(#clip0_2207_13386)">
<path d="M20.9129 13.2544H4.03784V1.96924H20.9129V13.2544ZM23.7254 7.60596C23.7254 8.16846 23.28 8.62549 22.7058 8.62549C22.155 8.62549 21.698 8.16846 21.698 7.60596C21.698 7.04346 22.155 6.59814 22.7058 6.59814C23.28 6.59814 23.7254 7.04346 23.7254 7.60596ZM2.11596 9.83252C1.84643 9.83252 1.68237 9.65674 1.68237 9.39893V5.82471C1.68237 5.5669 1.84643 5.39111 2.11596 5.39111C2.38549 5.39111 2.56127 5.5669 2.56127 5.82471V9.39893C2.56127 9.65674 2.38549 9.83252 2.11596 9.83252Z" fill="black" fill-opacity="0.85"/>
<path d="M21.8386 15.1411C23.6668 15.1411 24.8972 13.8637 24.8972 11.9536V3.27002C24.8972 1.35986 23.6668 0.0825195 21.8386 0.0825195H3.11207C1.28394 0.0825195 0.0651855 1.35986 0.0651855 3.27002V11.9536C0.0651855 13.8637 1.28394 15.1411 3.11207 15.1411H21.8386ZM20.9129 13.2544H4.03785V1.96924H20.9129V13.2544ZM23.7254 7.60596C23.7254 8.16846 23.28 8.62549 22.7058 8.62549C22.155 8.62549 21.698 8.16846 21.698 7.60596C21.698 7.04346 22.155 6.59814 22.7058 6.59814C23.28 6.59814 23.7254 7.04346 23.7254 7.60596ZM2.11597 9.83252C1.84644 9.83252 1.68238 9.65674 1.68238 9.39893V5.82471C1.68238 5.5669 1.84644 5.39111 2.11597 5.39111C2.3855 5.39111 2.56128 5.5669 2.56128 5.82471V9.39893C2.56128 9.65674 2.3855 9.83252 2.11597 9.83252Z" fill="black" fill-opacity="0.85"/>
</g>
<defs>
<clipPath id="clip0_2207_13386">
<rect width="24.832" height="15.082" fill="white" transform="translate(0.0651855 0.0825195)"/>
</clipPath>
</defs>
</svg>
