<svg width="24" height="25" viewBox="0 0 24 25" fill="none" xmlns="http://www.w3.org/2000/svg">
<g clip-path="url(#clip0_2207_13609)">
<path d="M11.993 23.9902C18.5321 23.9902 23.9461 18.5645 23.9461 12.0371C23.9461 5.49804 18.5204 0.0839844 11.9813 0.0839844C5.45398 0.0839844 0.039917 5.49804 0.039917 12.0371C0.039917 18.5645 5.4657 23.9902 11.993 23.9902ZM11.993 21.9981C6.4618 21.9981 2.04383 17.5684 2.04383 12.0371C2.04383 6.50586 6.45008 2.07617 11.9813 2.07617C17.5126 2.07617 21.954 6.50586 21.954 12.0371C21.954 17.5684 17.5243 21.9981 11.993 21.9981Z" fill="black" fill-opacity="0.85"/>
<path d="M9.42664 19.4317H14.5477C15.6961 19.4317 16.4696 18.6934 16.4696 17.5801V6.48243C16.4696 5.36915 15.6961 4.64258 14.5477 4.64258H9.42664C8.28992 4.64258 7.51648 5.36915 7.51648 6.48243V17.5801C7.51648 18.6934 8.28992 19.4317 9.42664 19.4317ZM9.57898 18.2832C8.98133 18.2832 8.6532 17.9785 8.6532 17.416V6.64649C8.6532 6.08399 8.98133 5.7793 9.57898 5.7793H14.4071C15.0047 5.7793 15.3329 6.08399 15.3329 6.64649V17.416C15.3329 17.9785 15.0047 18.2832 14.4071 18.2832H9.57898ZM10.5282 17.7793H13.4579C13.6571 17.7793 13.7977 17.6504 13.7977 17.4512C13.7977 17.2402 13.6571 17.0996 13.4579 17.0996H10.5282C10.329 17.0996 10.1883 17.2402 10.1883 17.4512C10.1883 17.6504 10.329 17.7793 10.5282 17.7793ZM11.1376 7.34961H12.8368C13.118 7.34961 13.3407 7.12696 13.3407 6.84571C13.3407 6.57618 13.118 6.35352 12.8368 6.35352H11.1376C10.8563 6.35352 10.6337 6.57618 10.6337 6.84571C10.6337 7.12696 10.8563 7.34961 11.1376 7.34961Z" fill="black" fill-opacity="0.85"/>
<path d="M16.6922 18.6582C17.2313 19.1856 18.0985 19.1973 18.6141 18.6582C19.1649 18.1192 19.1532 17.2871 18.6141 16.7481L7.27039 5.40429C6.73133 4.86524 5.87586 4.86524 5.34851 5.40429C4.80945 5.93165 4.80945 6.79882 5.34851 7.32617L16.6922 18.6582Z" fill="white"/>
<path d="M17.2782 18.084C17.4774 18.2832 17.829 18.2832 18.0282 18.084C18.2391 17.8613 18.2391 17.5449 18.0282 17.334L6.69614 5.99024C6.4852 5.7793 6.14536 5.7793 5.93442 5.99024C5.72348 6.18946 5.7352 6.54102 5.93442 6.74024L17.2782 18.084Z" fill="black" fill-opacity="0.85"/>
</g>
<defs>
<clipPath id="clip0_2207_13609">
<rect width="23.9062" height="23.918" fill="white" transform="translate(0.039917 0.0839844)"/>
</clipPath>
</defs>
</svg>
