<svg width="38" height="25" viewBox="0 0 38 25" fill="none" xmlns="http://www.w3.org/2000/svg">
<g clip-path="url(#clip0_2207_13391)">
<path d="M4.59058 20.5083C4.96558 20.0864 4.84839 19.5356 4.42652 19.0552C2.8562 17.3091 1.9773 15.0122 1.9773 12.4927C1.9773 9.97315 2.8562 7.67628 4.42652 5.93019C4.84839 5.44972 4.96558 4.89893 4.59058 4.47705C4.21558 4.03174 3.55933 4.04347 3.11402 4.53565C1.1687 6.64503 0.0671387 9.45753 0.0671387 12.4927C0.0671387 15.5278 1.1687 18.3286 3.11402 20.4497C3.55933 20.9419 4.21558 20.9419 4.59058 20.5083ZM33.0202 20.5083C33.3952 20.9419 34.0515 20.9419 34.5085 20.4497C36.4538 18.3286 37.5437 15.5278 37.5437 12.4927C37.5437 9.45753 36.4538 6.64503 34.5085 4.53565C34.0515 4.04347 33.3952 4.03174 33.0202 4.47705C32.6452 4.89893 32.7624 5.44972 33.1843 5.93019C34.7546 7.67628 35.6335 9.97315 35.6335 12.4927C35.6335 15.0122 34.7546 17.3091 33.1843 19.0552C32.7624 19.5356 32.6452 20.0864 33.0202 20.5083Z" fill="black" fill-opacity="0.85"/>
<path d="M7.87183 17.1685C8.24683 16.7467 8.09448 16.2193 7.71948 15.7154C7.01636 14.8365 6.67652 13.7115 6.67652 12.4928C6.67652 11.274 7.01636 10.1373 7.71948 9.27006C8.09448 8.76615 8.24683 8.23881 7.87183 7.81694C7.48511 7.37162 6.78198 7.37162 6.37183 7.89897C5.3523 9.16459 4.76636 10.7701 4.76636 12.4928C4.76636 14.2154 5.3523 15.8209 6.37183 17.0865C6.78198 17.6138 7.48511 17.6021 7.87183 17.1685ZM29.739 17.1685C30.1257 17.6021 30.8288 17.6138 31.239 17.0865C32.2585 15.8209 32.8562 14.2154 32.8562 12.4928C32.8562 10.7701 32.2585 9.16459 31.239 7.89897C30.8288 7.37162 30.1257 7.37162 29.739 7.81694C29.364 8.23881 29.528 8.76615 29.8913 9.27006C30.5944 10.1373 30.946 11.274 30.946 12.4928C30.946 13.7115 30.5944 14.8365 29.8913 15.7154C29.528 16.2193 29.364 16.7467 29.739 17.1685Z" fill="black" fill-opacity="0.85"/>
<path d="M13.1687 20.9302V4.05518H24.4538V20.9302H13.1687ZM18.8288 23.7427C18.2663 23.7427 17.8093 23.2856 17.8093 22.7231C17.8093 22.1723 18.2663 21.7153 18.8288 21.7153C19.3796 21.7153 19.8366 22.1723 19.8366 22.7231C19.8366 23.2856 19.3796 23.7427 18.8288 23.7427ZM16.5905 2.1333C16.5905 1.86377 16.778 1.68799 17.0359 1.68799H20.5983C20.8679 1.68799 21.0437 1.86377 21.0437 2.1333C21.0437 2.40283 20.8679 2.5669 20.5983 2.5669H17.0359C16.778 2.5669 16.5905 2.40283 16.5905 2.1333Z" fill="black" fill-opacity="0.85"/>
<path d="M11.282 21.8559C11.282 23.6841 12.5594 24.9028 14.4695 24.9028H23.1531C25.0633 24.9028 26.3406 23.6841 26.3406 21.8559V3.1294C26.3406 1.30127 25.0633 0.0825195 23.1531 0.0825195H14.4695C12.5594 0.0825195 11.282 1.30127 11.282 3.1294V21.8559ZM13.1688 20.9302V4.05518H24.4539V20.9302H13.1688ZM18.8289 23.7427C18.2664 23.7427 17.8094 23.2856 17.8094 22.7231C17.8094 22.1723 18.2664 21.7153 18.8289 21.7153C19.3797 21.7153 19.8367 22.1723 19.8367 22.7231C19.8367 23.2856 19.3797 23.7427 18.8289 23.7427ZM16.5906 2.1333C16.5906 1.86377 16.7781 1.68799 17.036 1.68799H20.5984C20.868 1.68799 21.0438 1.86377 21.0438 2.1333C21.0438 2.40283 20.868 2.5669 20.5984 2.5669H17.036C16.7781 2.5669 16.5906 2.40283 16.5906 2.1333Z" fill="black" fill-opacity="0.85"/>
</g>
<defs>
<clipPath id="clip0_2207_13391">
<rect width="37.4766" height="24.832" fill="white" transform="translate(0.0671387 0.0825195)"/>
</clipPath>
</defs>
</svg>
