<svg width="38" height="25" viewBox="0 0 38 25" fill="none" xmlns="http://www.w3.org/2000/svg">
<g clip-path="url(#clip0_2207_13455)">
<path d="M4.61377 20.5083C4.98877 20.0864 4.87158 19.5356 4.44971 19.0552C2.87939 17.3091 2.00049 15.0122 2.00049 12.4927C2.00049 9.97315 2.87939 7.67628 4.44971 5.93019C4.87158 5.44972 4.98877 4.89893 4.61377 4.47705C4.23877 4.03174 3.58252 4.04347 3.13721 4.53565C1.19189 6.64503 0.090332 9.45753 0.090332 12.4927C0.090332 15.5278 1.19189 18.3286 3.13721 20.4497C3.58252 20.9419 4.23877 20.9419 4.61377 20.5083ZM33.0434 20.5083C33.4184 20.9419 34.0747 20.9419 34.5317 20.4497C36.477 18.3286 37.5669 15.5278 37.5669 12.4927C37.5669 9.45753 36.477 6.64503 34.5317 4.53565C34.0747 4.04347 33.4184 4.03174 33.0434 4.47705C32.6684 4.89893 32.7856 5.44972 33.2075 5.93019C34.7778 7.67628 35.6567 9.97315 35.6567 12.4927C35.6567 15.0122 34.7778 17.3091 33.2075 19.0552C32.7856 19.5356 32.6684 20.0864 33.0434 20.5083Z" fill="black" fill-opacity="0.85"/>
<path d="M7.89502 17.1685C8.27002 16.7467 8.11767 16.2193 7.74267 15.7154C7.03955 14.8365 6.69971 13.7115 6.69971 12.4928C6.69971 11.274 7.03955 10.1373 7.74267 9.27006C8.11767 8.76615 8.27002 8.23881 7.89502 7.81694C7.5083 7.37162 6.80517 7.37162 6.39502 7.89897C5.37549 9.16459 4.78955 10.7701 4.78955 12.4928C4.78955 14.2154 5.37549 15.8209 6.39502 17.0865C6.80517 17.6138 7.5083 17.6021 7.89502 17.1685ZM29.7622 17.1685C30.1489 17.6021 30.852 17.6138 31.2622 17.0865C32.2817 15.8209 32.8794 14.2154 32.8794 12.4928C32.8794 10.7701 32.2817 9.16459 31.2622 7.89897C30.852 7.37162 30.1489 7.37162 29.7622 7.81694C29.3872 8.23881 29.5512 8.76615 29.9145 9.27006C30.6176 10.1373 30.9692 11.274 30.9692 12.4928C30.9692 13.7115 30.6176 14.8365 29.9145 15.7154C29.5512 16.2193 29.3872 16.7467 29.7622 17.1685Z" fill="black" fill-opacity="0.85"/>
<path d="M14.7387 23.0044C13.7426 23.0044 13.1919 22.477 13.1919 21.5395V3.43408C13.1919 2.49658 13.7426 1.96924 14.7387 1.96924H16.2387C16.4262 1.96924 16.52 2.06299 16.52 2.23877V2.5083C16.52 3.00049 16.8481 3.32861 17.3286 3.32861H20.3637C20.8442 3.32861 21.1606 3.00049 21.1606 2.5083V2.23877C21.1606 2.06299 21.2544 1.96924 21.4419 1.96924H22.9419C23.9262 1.96924 24.477 2.49658 24.477 3.43408V21.5395C24.477 22.477 23.9262 23.0044 22.9419 23.0044H14.7387Z" fill="black" fill-opacity="0.85"/>
<path d="M14.4927 24.8911H23.1763C25.0865 24.8911 26.3638 23.6723 26.3638 21.8442V3.1294C26.3638 1.30127 25.0865 0.0825195 23.1763 0.0825195H14.4927C12.5826 0.0825195 11.3052 1.30127 11.3052 3.1294V21.8442C11.3052 23.6723 12.5826 24.8911 14.4927 24.8911ZM14.7388 23.0044C13.7427 23.0044 13.192 22.477 13.192 21.5395V3.43408C13.192 2.49658 13.7427 1.96924 14.7388 1.96924H16.2388C16.4263 1.96924 16.5201 2.06299 16.5201 2.23877V2.5083C16.5201 3.00049 16.8482 3.32861 17.3287 3.32861H20.3638C20.8443 3.32861 21.1607 3.00049 21.1607 2.5083V2.23877C21.1607 2.06299 21.2545 1.96924 21.442 1.96924H22.942C23.9263 1.96924 24.4771 2.49658 24.4771 3.43408V21.5395C24.4771 22.477 23.9263 23.0044 22.942 23.0044H14.7388ZM16.356 22.1489H21.3365C21.6529 22.1489 21.8756 21.9263 21.8756 21.5981C21.8756 21.27 21.6529 21.0591 21.3365 21.0591H16.356C16.0396 21.0591 15.8052 21.27 15.8052 21.5981C15.8052 21.9263 16.0396 22.1489 16.356 22.1489Z" fill="black" fill-opacity="0.85"/>
</g>
<defs>
<clipPath id="clip0_2207_13455">
<rect width="37.4766" height="24.832" fill="white" transform="translate(0.090332 0.0825195)"/>
</clipPath>
</defs>
</svg>
