<svg width="38" height="25" viewBox="0 0 38 25" fill="none" xmlns="http://www.w3.org/2000/svg">
<g clip-path="url(#clip0_2207_13582)">
<path d="M4.55078 20.5098C4.92578 20.0879 4.80859 19.5371 4.38672 19.0567C2.8164 17.3106 1.9375 15.0137 1.9375 12.4942C1.9375 9.97461 2.8164 7.67774 4.38672 5.93165C4.80859 5.45118 4.92578 4.9004 4.55078 4.47852C4.17578 4.03321 3.51953 4.04493 3.07422 4.53711C1.1289 6.64649 0.0273438 9.45899 0.0273438 12.4942C0.0273438 15.5293 1.1289 18.3301 3.07422 20.4512C3.51953 20.9434 4.17578 20.9434 4.55078 20.5098ZM32.9804 20.5098C33.3554 20.9434 34.0117 20.9434 34.4687 20.4512C36.414 18.3301 37.5039 15.5293 37.5039 12.4942C37.5039 9.45899 36.414 6.64649 34.4687 4.53711C34.0117 4.04493 33.3554 4.03321 32.9804 4.47852C32.6054 4.9004 32.7226 5.45118 33.1445 5.93165C34.7148 7.67774 35.5937 9.97461 35.5937 12.4942C35.5937 15.0137 34.7148 17.3106 33.1445 19.0567C32.7226 19.5371 32.6054 20.0879 32.9804 20.5098Z" fill="black" fill-opacity="0.85"/>
<path d="M7.83203 17.1698C8.20703 16.748 8.05468 16.2206 7.67968 15.7167C6.97656 14.8378 6.63672 13.7128 6.63672 12.4941C6.63672 11.2753 6.97656 10.1386 7.67968 9.2714C8.05468 8.76749 8.20703 8.24015 7.83203 7.81828C7.44531 7.37296 6.74218 7.37296 6.33203 7.90031C5.3125 9.16593 4.72656 10.7714 4.72656 12.4941C4.72656 14.2167 5.3125 15.8222 6.33203 17.0878C6.74218 17.6151 7.44531 17.6034 7.83203 17.1698ZM29.6992 17.1698C30.0859 17.6034 30.789 17.6151 31.1992 17.0878C32.2187 15.8222 32.8164 14.2167 32.8164 12.4941C32.8164 10.7714 32.2187 9.16593 31.1992 7.90031C30.789 7.37296 30.0859 7.37296 29.6992 7.81828C29.3242 8.24015 29.4882 8.76749 29.8515 9.2714C30.5546 10.1386 30.9062 11.2753 30.9062 12.4941C30.9062 13.7128 30.5546 14.8378 29.8515 15.7167C29.4882 16.2206 29.3242 16.748 29.6992 17.1698Z" fill="black" fill-opacity="0.85"/>
<path d="M14.6757 23.0059C13.6796 23.0059 13.1289 22.4785 13.1289 21.541V3.43554C13.1289 2.49804 13.6796 1.9707 14.6757 1.9707H22.8789C23.8632 1.9707 24.414 2.49804 24.414 3.43554V21.541C24.414 22.4785 23.8632 23.0059 22.8789 23.0059H14.6757Z" fill="black" fill-opacity="0.85"/>
<path d="M14.4297 24.8926H23.1133C25.0235 24.8926 26.3008 23.6738 26.3008 21.8457V3.13086C26.3008 1.30273 25.0235 0.0839844 23.1133 0.0839844H14.4297C12.5196 0.0839844 11.2422 1.30273 11.2422 3.13086V21.8457C11.2422 23.6738 12.5196 24.8926 14.4297 24.8926ZM14.6758 23.0059C13.6797 23.0059 13.129 22.4785 13.129 21.541V3.43554C13.129 2.49804 13.6797 1.9707 14.6758 1.9707H22.879C23.8633 1.9707 24.4141 2.49804 24.4141 3.43554V21.541C24.4141 22.4785 23.8633 23.0059 22.879 23.0059H14.6758ZM16.293 22.1504H21.2735C21.5899 22.1504 21.8126 21.9278 21.8126 21.5996C21.8126 21.2715 21.5899 21.0606 21.2735 21.0606H16.293C15.9766 21.0606 15.7422 21.2715 15.7422 21.5996C15.7422 21.9278 15.9766 22.1504 16.293 22.1504ZM17.3594 4.45507H20.1954C20.6524 4.45507 21.0157 4.09179 21.0157 3.62304C21.0157 3.16601 20.6524 2.80273 20.1954 2.80273H17.3594C16.8907 2.80273 16.5274 3.16601 16.5274 3.62304C16.5274 4.09179 16.8907 4.45507 17.3594 4.45507Z" fill="black" fill-opacity="0.85"/>
</g>
<defs>
<clipPath id="clip0_2207_13582">
<rect width="37.4766" height="24.832" fill="white" transform="translate(0.0273438 0.0839844)"/>
</clipPath>
</defs>
</svg>
