<svg width="24" height="24" viewBox="0 0 24 24" fill="none" xmlns="http://www.w3.org/2000/svg">
<g clip-path="url(#clip0_2207_13381)">
<path d="M12.0161 24.0005C18.5552 24.0005 23.9692 18.5864 23.9692 12.0473C23.9692 5.52002 18.5435 0.0942383 12.0044 0.0942383C5.47705 0.0942383 0.0629883 5.52002 0.0629883 12.0473C0.0629883 18.5864 5.48877 24.0005 12.0161 24.0005Z" fill="black" fill-opacity="0.85"/>
<path d="M7.39893 17.7895V6.3169C7.39893 5.18018 8.18408 4.43018 9.36768 4.43018H14.6646C15.8482 4.43018 16.6333 5.18018 16.6333 6.3169V17.7895C16.6333 18.9145 15.8482 19.6763 14.6646 19.6763H9.36768C8.18408 19.6763 7.39893 18.9145 7.39893 17.7895ZM8.58252 17.2153H15.4497V6.89111H8.58252V17.2153ZM12.0278 18.938C12.356 18.938 12.6255 18.6567 12.6255 18.3169C12.6255 17.9887 12.356 17.6958 12.0278 17.6958C11.688 17.6958 11.4068 17.9887 11.4068 18.3169C11.4068 18.6567 11.688 18.938 12.0278 18.938ZM10.6333 5.70752C10.6333 5.87158 10.7622 6.00049 10.9263 6.00049H13.1177C13.2818 6.00049 13.3989 5.87158 13.3989 5.70752C13.3989 5.52002 13.2818 5.41455 13.1177 5.41455H10.9263C10.7622 5.41455 10.6333 5.52002 10.6333 5.70752Z" fill="white"/>
</g>
<defs>
<clipPath id="clip0_2207_13381">
<rect width="23.9062" height="23.918" fill="white" transform="translate(0.0629883 0.0825195)"/>
</clipPath>
</defs>
</svg>
