<svg width="25" height="25" viewBox="0 0 25 25" fill="none" xmlns="http://www.w3.org/2000/svg">
<g clip-path="url(#clip0_2207_13476)">
<path d="M7.74023 24.8911H16.4356C18.3457 24.8911 19.6231 23.6723 19.6231 21.8442V3.1294C19.6231 1.30127 18.3457 0.0825195 16.4356 0.0825195H7.74023C5.83008 0.0825195 4.55273 1.30127 4.55273 3.1294V21.8442C4.55273 23.6723 5.83008 24.8911 7.74023 24.8911ZM7.98633 23.0044C7.00195 23.0044 6.43945 22.477 6.43945 21.5395V3.43408C6.43945 2.49658 7.00195 1.96924 7.98633 1.96924H9.49805C9.67383 1.96924 9.7793 2.06299 9.7793 2.23877V2.5083C9.7793 3.00049 10.0957 3.32861 10.5762 3.32861H13.6113C14.0918 3.32861 14.4082 3.00049 14.4082 2.5083V2.23877C14.4082 2.06299 14.5137 1.96924 14.6895 1.96924H16.1895C17.1738 1.96924 17.7363 2.49658 17.7363 3.43408V21.5395C17.7363 22.477 17.1738 23.0044 16.1895 23.0044H7.98633ZM9.60352 22.1489H14.584C14.9004 22.1489 15.1231 21.9263 15.1231 21.5981C15.1231 21.27 14.9004 21.0591 14.584 21.0591H9.60352C9.28711 21.0591 9.06445 21.27 9.06445 21.5981C9.06445 21.9263 9.28711 22.1489 9.60352 22.1489Z" fill="black" fill-opacity="0.85"/>
<path d="M20.1856 23.8598C21.0762 24.7387 22.5176 24.7505 23.3965 23.8598C24.2871 22.9809 24.2871 21.5395 23.4082 20.6489L3.97852 1.23097C3.09961 0.352057 1.64648 0.340338 0.75586 1.23097C-0.123047 2.10987 -0.123047 3.57472 0.75586 4.44191L20.1856 23.8598Z" fill="white"/>
<path d="M21.1582 22.8872C21.5098 23.2505 22.0957 23.2387 22.4356 22.8872C22.7871 22.5473 22.7871 21.9731 22.4356 21.6098L3.01758 2.20363C2.66602 1.85207 2.08008 1.84035 1.72852 2.20363C1.38867 2.54348 1.38867 3.14113 1.72852 3.48098L21.1582 22.8872Z" fill="black" fill-opacity="0.85"/>
</g>
<defs>
<clipPath id="clip0_2207_13476">
<rect width="23.9692" height="24.832" fill="white" transform="translate(0.0966797 0.0825195)"/>
</clipPath>
</defs>
</svg>
