<svg width="24" height="25" viewBox="0 0 24 25" fill="none" xmlns="http://www.w3.org/2000/svg">
<g clip-path="url(#clip0_2207_13596)">
<path d="M11.9846 24.002C18.5237 24.002 23.9377 18.5879 23.9377 12.0488C23.9377 5.52148 18.512 0.0957031 11.9729 0.0957031C5.44555 0.0957031 0.0314941 5.52148 0.0314941 12.0488C0.0314941 18.5879 5.45727 24.002 11.9846 24.002Z" fill="black" fill-opacity="0.85"/>
<path d="M4.95338 15.6348C4.78931 15.8574 4.48462 15.8574 4.25025 15.6231C3.37134 14.6738 2.90259 13.3965 2.90259 12.0488C2.90259 10.7129 3.37134 9.43557 4.25025 8.47463C4.48462 8.24026 4.78931 8.24026 4.95338 8.46292C5.11744 8.66213 5.07056 8.90823 4.88306 9.1426C4.16822 9.93948 3.79322 10.9473 3.79322 12.0488C3.79322 13.1504 4.16822 14.1582 4.88306 14.9551C5.07056 15.1895 5.11744 15.4473 4.95338 15.6348ZM19.0042 15.6348C18.8401 15.4473 18.887 15.1895 19.0862 14.9551C19.7893 14.1582 20.176 13.1504 20.176 12.0488C20.176 10.9473 19.7893 9.93948 19.0862 9.1426C18.887 8.90823 18.8401 8.66213 19.0042 8.46292C19.1799 8.24026 19.4846 8.24026 19.7073 8.47463C20.5862 9.43557 21.0667 10.7129 21.0667 12.0488C21.0667 13.3965 20.5862 14.6738 19.7073 15.6231C19.4846 15.8574 19.1799 15.8574 19.0042 15.6348Z" fill="white"/>
<path d="M6.69947 14.1464C6.51197 14.3691 6.18384 14.3691 5.97291 14.123C5.51588 13.5487 5.25806 12.8339 5.25806 12.0487C5.25806 11.2753 5.51588 10.5487 5.97291 9.98628C6.18384 9.74019 6.51197 9.72847 6.69947 9.95113C6.86353 10.1503 6.80494 10.3847 6.61744 10.6308C6.32447 11.0058 6.17212 11.5097 6.17212 12.0487C6.17212 12.5878 6.32447 13.08 6.61744 13.4667C6.80494 13.7128 6.86353 13.9472 6.69947 14.1464ZM17.2581 14.1464C17.094 13.9472 17.1526 13.7128 17.3401 13.4667C17.6331 13.08 17.7971 12.5878 17.7971 12.0487C17.7971 11.5097 17.6331 11.0058 17.3401 10.6308C17.1526 10.3847 17.094 10.1503 17.2581 9.95113C17.4456 9.72847 17.7854 9.74019 17.9846 9.98628C18.4417 10.5487 18.7112 11.2753 18.7112 12.0487C18.7112 12.8339 18.4417 13.5487 17.9846 14.123C17.7854 14.3691 17.4456 14.3691 17.2581 14.1464Z" fill="white"/>
<path d="M9.60572 18.9629C8.52759 18.9629 7.80103 18.2715 7.80103 17.2285V6.86915C7.80103 5.81446 8.52759 5.13477 9.60572 5.13477H14.387C15.4651 5.13477 16.1917 5.81446 16.1917 6.86915V17.2285C16.1917 18.2715 15.4651 18.9629 14.387 18.9629H9.60572ZM9.73462 17.8848H14.2581C14.8088 17.8848 15.1135 17.5918 15.1135 17.0762V7.00977C15.1135 6.49415 14.8088 6.2129 14.2581 6.2129H9.73462C9.18384 6.2129 8.87916 6.49415 8.87916 7.00977V17.0762C8.87916 17.5918 9.18384 17.8848 9.73462 17.8848ZM11.1877 7.66602C10.9182 7.66602 10.7307 7.45508 10.7307 7.19727C10.7307 6.93946 10.9182 6.72852 11.1877 6.72852H12.7815C13.051 6.72852 13.2503 6.93946 13.2503 7.19727C13.2503 7.45508 13.051 7.66602 12.7815 7.66602H11.1877ZM10.637 17.4278C10.4377 17.4278 10.3088 17.2871 10.3088 17.0996C10.3088 16.9004 10.4377 16.7715 10.637 16.7715H13.3792C13.5667 16.7715 13.6838 16.9004 13.6838 17.0996C13.6838 17.2871 13.5667 17.4278 13.3792 17.4278H10.637Z" fill="white"/>
</g>
<defs>
<clipPath id="clip0_2207_13596">
<rect width="23.9062" height="23.918" fill="white" transform="translate(0.0314941 0.0839844)"/>
</clipPath>
</defs>
</svg>
