<svg width="24" height="24" viewBox="0 0 24 24" fill="none" xmlns="http://www.w3.org/2000/svg">
<g clip-path="url(#clip0_2207_13398)">
<path d="M12.0224 23.9887C18.5615 23.9887 23.9755 18.563 23.9755 12.0356C23.9755 5.49658 18.5498 0.0825195 12.0107 0.0825195C5.4834 0.0825195 0.0693359 5.49658 0.0693359 12.0356C0.0693359 18.563 5.49512 23.9887 12.0224 23.9887ZM12.0224 21.9966C6.49122 21.9966 2.07325 17.5669 2.07325 12.0356C2.07325 6.5044 6.4795 2.07471 12.0107 2.07471C17.542 2.07471 21.9834 6.5044 21.9834 12.0356C21.9834 17.5669 17.5537 21.9966 12.0224 21.9966Z" fill="black" fill-opacity="0.85"/>
<path d="M5.27245 15.5161C5.43652 15.3169 5.38964 15.0825 5.20214 14.8598C4.51074 14.0864 4.14745 13.102 4.14745 12.0356C4.14745 10.9692 4.51074 9.98489 5.20214 9.21146C5.38964 8.9888 5.43652 8.74271 5.27245 8.55521C5.12011 8.34427 4.81542 8.34427 4.59277 8.56693C3.7373 9.49271 3.28027 10.7231 3.28027 12.0356C3.28027 13.3364 3.7373 14.5669 4.59277 15.5044C4.81542 15.727 5.12011 15.727 5.27245 15.5161ZM18.7841 15.5161C18.9482 15.727 19.2529 15.727 19.4638 15.5044C20.3193 14.5669 20.7881 13.3364 20.7881 12.0356C20.7881 10.7231 20.3193 9.49271 19.4638 8.56693C19.2529 8.34427 18.9482 8.34427 18.7841 8.55521C18.6201 8.74271 18.667 8.9888 18.8662 9.21146C19.5459 9.98489 19.9209 10.9692 19.9209 12.0356C19.9209 13.102 19.5459 14.0864 18.8662 14.8598C18.667 15.0825 18.6201 15.3169 18.7841 15.5161Z" fill="black" fill-opacity="0.85"/>
<path d="M6.95996 14.0747C7.12403 13.8755 7.06543 13.6528 6.88965 13.4184C6.59668 13.0434 6.45606 12.563 6.45606 12.0356C6.45606 11.5083 6.59668 11.0161 6.88965 10.6528C7.06543 10.4184 7.12403 10.1958 6.95996 9.99658C6.78418 9.78564 6.45606 9.78564 6.26856 10.02C5.82325 10.5825 5.56543 11.2739 5.56543 12.0356C5.56543 12.7856 5.82325 13.4887 6.26856 14.0395C6.45606 14.2739 6.78418 14.2856 6.95996 14.0747ZM17.0966 14.0747C17.2724 14.2856 17.6005 14.2739 17.7881 14.0395C18.2334 13.4887 18.5029 12.7856 18.5029 12.0356C18.5029 11.2739 18.2334 10.5825 17.7881 10.02C17.6005 9.78564 17.2724 9.78564 17.0966 9.99658C16.9326 10.1958 16.9912 10.4184 17.167 10.6528C17.4599 11.0161 17.6123 11.5083 17.6123 12.0356C17.6123 12.563 17.4599 13.0434 17.167 13.4184C16.9912 13.6528 16.9326 13.8755 17.0966 14.0747Z" fill="black" fill-opacity="0.85"/>
<path d="M7.95605 17.0747C7.95605 18.0708 8.64745 18.7505 9.69042 18.7505H14.3545C15.3974 18.7505 16.0888 18.0708 16.0888 17.0747V6.99658C16.0888 6.00049 15.3974 5.3208 14.3545 5.3208H9.69042C8.64745 5.3208 7.95605 6.00049 7.95605 6.99658V17.0747ZM9.01074 16.5825V7.48877H15.0341V16.5825H9.01074ZM12.0341 18.0942C11.7412 18.0942 11.4951 17.8481 11.4951 17.5552C11.4951 17.2622 11.7412 17.0161 12.0341 17.0161C12.3271 17.0161 12.5498 17.2622 12.5498 17.5552C12.5498 17.8481 12.3271 18.0942 12.0341 18.0942ZM10.8154 6.45752C10.8154 6.30518 10.9326 6.19971 11.0615 6.19971H12.9834C13.124 6.19971 13.2295 6.30518 13.2295 6.45752C13.2295 6.60986 13.124 6.70361 12.9834 6.70361H11.0615C10.9326 6.70361 10.8154 6.60986 10.8154 6.45752Z" fill="black" fill-opacity="0.85"/>
</g>
<defs>
<clipPath id="clip0_2207_13398">
<rect width="23.9062" height="23.918" fill="white" transform="translate(0.0693359 0.0825195)"/>
</clipPath>
</defs>
</svg>
