<svg width="25" height="25" viewBox="0 0 25 25" fill="none" xmlns="http://www.w3.org/2000/svg">
<g clip-path="url(#clip0_2207_13603)">
<path d="M7.6814 24.8926H16.3767C18.2868 24.8926 19.5642 23.6738 19.5642 21.8457V3.13086C19.5642 1.30273 18.2868 0.0839844 16.3767 0.0839844H7.6814C5.77125 0.0839844 4.4939 1.30273 4.4939 3.13086V21.8457C4.4939 23.6738 5.77125 24.8926 7.6814 24.8926ZM7.9275 23.0059C6.94312 23.0059 6.38062 22.4785 6.38062 21.541V3.43554C6.38062 2.49804 6.94312 1.9707 7.9275 1.9707H16.1306C17.1149 1.9707 17.6774 2.49804 17.6774 3.43554V21.541C17.6774 22.4785 17.1149 23.0059 16.1306 23.0059H7.9275ZM9.54469 22.1504H14.5251C14.8415 22.1504 15.0642 21.9278 15.0642 21.5996C15.0642 21.2715 14.8415 21.0606 14.5251 21.0606H9.54469C9.22828 21.0606 9.00562 21.2715 9.00562 21.5996C9.00562 21.9278 9.22828 22.1504 9.54469 22.1504ZM10.6228 4.45507H13.4587C13.904 4.45507 14.279 4.09179 14.279 3.62304C14.279 3.16601 13.904 2.80273 13.4587 2.80273H10.6228C10.154 2.80273 9.77906 3.16601 9.77906 3.62304C9.77906 4.09179 10.154 4.45507 10.6228 4.45507Z" fill="black" fill-opacity="0.85"/>
<path d="M20.1267 23.8613C21.0173 24.7402 22.4587 24.752 23.3376 23.8613C24.2282 22.9824 24.2282 21.541 23.3493 20.6504L3.91968 1.23243C3.04077 0.353522 1.58764 0.341803 0.697022 1.23243C-0.181885 2.11133 -0.181885 3.57618 0.697022 4.44337L20.1267 23.8613Z" fill="white"/>
<path d="M21.0993 22.8887C21.4509 23.252 22.0368 23.2402 22.3767 22.8887C22.7282 22.5488 22.7282 21.9746 22.3767 21.6113L2.95874 2.20509C2.60718 1.85353 2.02124 1.84181 1.66968 2.20509C1.32983 2.54494 1.32983 3.14259 1.66968 3.48244L21.0993 22.8887Z" fill="black" fill-opacity="0.85"/>
</g>
<defs>
<clipPath id="clip0_2207_13603">
<rect width="23.9692" height="24.832" fill="white" transform="translate(0.0378418 0.0839844)"/>
</clipPath>
</defs>
</svg>
