<svg width="24" height="25" viewBox="0 0 24 25" fill="none" xmlns="http://www.w3.org/2000/svg">
<g clip-path="url(#clip0_2207_13509)">
<path d="M11.9614 24.002C18.5005 24.002 23.9145 18.5879 23.9145 12.0488C23.9145 5.52148 18.4888 0.0957031 11.9497 0.0957031C5.42236 0.0957031 0.00830078 5.52148 0.00830078 12.0488C0.00830078 18.5879 5.43408 24.002 11.9614 24.002Z" fill="black" fill-opacity="0.85"/>
<path d="M9.32471 19.6778C8.15283 19.6778 7.35596 18.916 7.35596 17.7676V6.33007C7.35596 5.16992 8.15283 4.41992 9.32471 4.41992H14.6099C15.7935 4.41992 16.5903 5.16992 16.5903 6.33007V17.7676C16.5903 18.916 15.7935 19.6778 14.6099 19.6778H9.32471ZM9.47705 18.4942H14.4692C15.0786 18.4942 15.4185 18.166 15.4185 17.5918V6.50586C15.4185 5.93164 15.0786 5.60351 14.4692 5.60351H9.47705C8.86768 5.60351 8.52783 5.93164 8.52783 6.50586V17.5918C8.52783 18.166 8.86768 18.4942 9.47705 18.4942ZM10.4614 17.9668C10.2622 17.9668 10.1099 17.8262 10.1099 17.627C10.1099 17.4043 10.2622 17.2637 10.4614 17.2637H13.4849C13.6841 17.2637 13.8364 17.4043 13.8364 17.627C13.8364 17.8262 13.6841 17.9668 13.4849 17.9668H10.4614ZM11.0942 7.2207C10.8013 7.2207 10.5669 6.99804 10.5669 6.70507C10.5669 6.42382 10.8013 6.18945 11.0942 6.18945H12.8403C13.1333 6.18945 13.3677 6.42382 13.3677 6.70507C13.3677 6.99804 13.1333 7.2207 12.8403 7.2207H11.0942Z" fill="white"/>
</g>
<defs>
<clipPath id="clip0_2207_13509">
<rect width="23.9062" height="23.918" fill="white" transform="translate(0.00830078 0.0839844)"/>
</clipPath>
</defs>
</svg>
