<svg width="16" height="25" viewBox="0 0 16 25" fill="none" xmlns="http://www.w3.org/2000/svg">
<g clip-path="url(#clip0_2207_13435)">
<path d="M3.51342 23.0044C2.51733 23.0044 1.96655 22.477 1.96655 21.5395V3.43408C1.96655 2.49658 2.51733 1.96924 3.51342 1.96924H5.01342C5.20092 1.96924 5.29467 2.06299 5.29467 2.23877V2.5083C5.29467 3.00049 5.6228 3.32861 6.10327 3.32861H9.12671C9.61889 3.32861 9.9353 3.00049 9.9353 2.5083V2.23877C9.9353 2.06299 10.0291 1.96924 10.2165 1.96924H11.7165C12.7009 1.96924 13.2517 2.49658 13.2517 3.43408V21.5395C13.2517 22.477 12.7009 23.0044 11.7165 23.0044H3.51342Z" fill="black" fill-opacity="0.85"/>
<path d="M3.26733 24.8911H11.9509C13.861 24.8911 15.1384 23.6723 15.1384 21.8442V3.1294C15.1384 1.30127 13.861 0.0825195 11.9509 0.0825195H3.26733C1.35717 0.0825195 0.079834 1.30127 0.079834 3.1294V21.8442C0.079834 23.6723 1.35717 24.8911 3.26733 24.8911ZM3.51342 23.0044C2.51733 23.0044 1.96655 22.477 1.96655 21.5395V3.43408C1.96655 2.49658 2.51733 1.96924 3.51342 1.96924H5.01342C5.20092 1.96924 5.29467 2.06299 5.29467 2.23877V2.5083C5.29467 3.00049 5.6228 3.32861 6.10327 3.32861H9.12671C9.61889 3.32861 9.9353 3.00049 9.9353 2.5083V2.23877C9.9353 2.06299 10.0291 1.96924 10.2165 1.96924H11.7165C12.7009 1.96924 13.2517 2.49658 13.2517 3.43408V21.5395C13.2517 22.477 12.7009 23.0044 11.7165 23.0044H3.51342ZM5.13061 22.1489H10.111C10.4275 22.1489 10.6501 21.9263 10.6501 21.5981C10.6501 21.27 10.4275 21.0591 10.111 21.0591H5.13061C4.81421 21.0591 4.57983 21.27 4.57983 21.5981C4.57983 21.9263 4.81421 22.1489 5.13061 22.1489Z" fill="black" fill-opacity="0.85"/>
</g>
<defs>
<clipPath id="clip0_2207_13435">
<rect width="15.0586" height="24.832" fill="white" transform="translate(0.079834 0.0825195)"/>
</clipPath>
</defs>
</svg>
