<svg width="24" height="24" viewBox="0 0 24 24" fill="none" xmlns="http://www.w3.org/2000/svg">
<g clip-path="url(#clip0_2207_13567)">
<path d="M12.0056 23.9887C18.5447 23.9887 23.9587 18.563 23.9587 12.0356C23.9587 5.49658 18.533 0.0825195 11.9939 0.0825195C5.46655 0.0825195 0.0524902 5.49658 0.0524902 12.0356C0.0524902 18.563 5.47827 23.9887 12.0056 23.9887ZM12.0056 21.9966C6.47437 21.9966 2.0564 17.5669 2.0564 12.0356C2.0564 6.5044 6.46265 2.07471 11.9939 2.07471C17.5252 2.07471 21.9666 6.5044 21.9666 12.0356C21.9666 17.5669 17.5369 21.9966 12.0056 21.9966Z" fill="black" fill-opacity="0.85"/>
<path d="M9.43921 19.4302H14.5603C15.7087 19.4302 16.4822 18.6919 16.4822 17.5786V6.48096C16.4822 5.36768 15.7087 4.64111 14.5603 4.64111H9.43921C8.30249 4.64111 7.52905 5.36768 7.52905 6.48096V17.5786C7.52905 18.6919 8.30249 19.4302 9.43921 19.4302ZM9.59155 18.2817C8.9939 18.2817 8.66577 17.977 8.66577 17.4145V6.64502C8.66577 6.08252 8.9939 5.77783 9.59155 5.77783H14.4197C15.0173 5.77783 15.3455 6.08252 15.3455 6.64502V17.4145C15.3455 17.977 15.0173 18.2817 14.4197 18.2817H9.59155ZM10.5408 17.7778H13.4705C13.6697 17.7778 13.8103 17.6489 13.8103 17.4497C13.8103 17.2387 13.6697 17.0981 13.4705 17.0981H10.5408C10.3416 17.0981 10.2009 17.2387 10.2009 17.4497C10.2009 17.6489 10.3416 17.7778 10.5408 17.7778ZM11.1502 7.34814H12.8494C13.1306 7.34814 13.3533 7.12549 13.3533 6.84424C13.3533 6.57471 13.1306 6.35205 12.8494 6.35205H11.1502C10.8689 6.35205 10.6463 6.57471 10.6463 6.84424C10.6463 7.12549 10.8689 7.34814 11.1502 7.34814Z" fill="black" fill-opacity="0.85"/>
</g>
<defs>
<clipPath id="clip0_2207_13567">
<rect width="23.9062" height="23.918" fill="white" transform="translate(0.0524902 0.0825195)"/>
</clipPath>
</defs>
</svg>
