<svg width="17" height="16" viewBox="0 0 17 16" fill="none" xmlns="http://www.w3.org/2000/svg">
<g clip-path="url(#clip0_2207_13343)">
<path d="M0.0566406 12.5879C0.0566406 14.3223 1.11133 15.4238 2.74023 15.4238H13.7324C15.3613 15.4238 16.416 14.3223 16.416 12.5879V2.91992C16.416 1.18554 15.3261 0.0839844 13.7324 0.0839844H2.74023C1.11133 0.0839844 0.0566406 1.18554 0.0566406 2.91992V12.5879ZM1.94336 12.3535V3.15429C1.94336 2.41601 2.36523 1.9707 3.05664 1.9707H13.416C14.0957 1.9707 14.5293 2.41601 14.5293 3.15429V12.3535C14.5293 13.0918 14.0957 13.5371 13.416 13.5371H3.05664C2.36523 13.5371 1.94336 13.0918 1.94336 12.3535ZM8.23633 12.2949C10.7441 12.2949 12.7832 10.2559 12.7832 7.74804C12.7832 5.24023 10.7441 3.20117 8.23633 3.20117C5.72852 3.20117 3.68945 5.24023 3.68945 7.74804C3.68945 10.2559 5.72852 12.2949 8.23633 12.2949ZM8.23633 10.7949C6.53711 10.7949 5.18945 9.44726 5.18945 7.74804C5.18945 6.04882 6.53711 4.70117 8.23633 4.70117C9.93555 4.70117 11.2832 6.04882 11.2832 7.74804C11.2832 9.44726 9.93555 10.7949 8.23633 10.7949Z" fill="black" fill-opacity="0.85"/>
</g>
<defs>
<clipPath id="clip0_2207_13343">
<rect width="16.3594" height="15.3398" fill="white" transform="translate(0.0566406 0.0839844)"/>
</clipPath>
</defs>
</svg>
