<svg width="13" height="25" viewBox="0 0 13 25" fill="none" xmlns="http://www.w3.org/2000/svg">
<g clip-path="url(#clip0_2207_13339)">
<path d="M3.24219 24.9043H9.35938C11.3164 24.9043 12.5469 23.7207 12.5469 21.8574V3.13086C12.5469 1.26757 11.3164 0.0839844 9.35938 0.0839844H3.24219C1.28516 0.0839844 0.0546875 1.26757 0.0546875 3.13086V21.8574C0.0546875 23.7207 1.28516 24.9043 3.24219 24.9043ZM3.48828 23.0176C2.50391 23.0176 1.94141 22.4785 1.94141 21.5528V3.43554C1.94141 2.50976 2.50391 1.9707 3.48828 1.9707H9.125C10.0977 1.9707 10.6602 2.50976 10.6602 3.43554V21.5528C10.6602 22.4785 10.0977 23.0176 9.125 23.0176H3.48828Z" fill="black" fill-opacity="0.85"/>
</g>
<defs>
<clipPath id="clip0_2207_13339">
<rect width="12.4922" height="24.832" fill="white" transform="translate(0.0546875 0.0839844)"/>
</clipPath>
</defs>
</svg>
