<svg width="25" height="25" viewBox="0 0 25 25" fill="none" xmlns="http://www.w3.org/2000/svg">
<g clip-path="url(#clip0_2207_13352)">
<path d="M4.51904 21.8574C4.51904 23.6856 5.79639 24.9043 7.70654 24.9043H16.3901C18.3003 24.9043 19.5776 23.6856 19.5776 21.8574V3.13086C19.5776 1.30273 18.3003 0.0839844 16.3901 0.0839844H7.70654C5.79639 0.0839844 4.51904 1.30273 4.51904 3.13086V21.8574ZM6.40576 20.9317V4.05664H17.6909V20.9317H6.40576ZM12.0659 23.7442C11.5034 23.7442 11.0464 23.2871 11.0464 22.7246C11.0464 22.1738 11.5034 21.7168 12.0659 21.7168C12.6167 21.7168 13.0737 22.1738 13.0737 22.7246C13.0737 23.2871 12.6167 23.7442 12.0659 23.7442ZM12.0659 2.75586C11.6792 2.75586 11.3745 2.43945 11.3745 2.05273C11.3745 1.67773 11.6792 1.37304 12.0659 1.37304C12.4526 1.37304 12.7456 1.67773 12.7456 2.05273C12.7456 2.43945 12.4526 2.75586 12.0659 2.75586Z" fill="black" fill-opacity="0.85"/>
<path d="M20.1519 23.8613C21.0425 24.7402 22.4839 24.752 23.3628 23.8613C24.2534 22.9824 24.2534 21.541 23.3745 20.6504L3.94483 1.23243C3.06592 0.353522 1.61279 0.341803 0.722169 1.23243C-0.156738 2.11133 -0.156738 3.57618 0.722169 4.44337L20.1519 23.8613Z" fill="white"/>
<path d="M21.1245 22.8887C21.4761 23.252 22.062 23.2402 22.4019 22.8887C22.7534 22.5488 22.7534 21.9746 22.4019 21.6113L2.98389 2.20509C2.63233 1.85353 2.04639 1.84181 1.69483 2.20509C1.35498 2.54494 1.35498 3.14259 1.69483 3.48244L21.1245 22.8887Z" fill="black" fill-opacity="0.85"/>
</g>
<defs>
<clipPath id="clip0_2207_13352">
<rect width="23.9692" height="24.832" fill="white" transform="translate(0.0629883 0.0839844)"/>
</clipPath>
</defs>
</svg>
