<svg width="24" height="25" viewBox="0 0 24 25" fill="none" xmlns="http://www.w3.org/2000/svg">
<g clip-path="url(#clip0_2207_25006)">
<path d="M12.0244 23.9902C18.5635 23.9902 23.9775 18.5645 23.9775 12.0371C23.9775 5.49804 18.5518 0.0839844 12.0127 0.0839844C5.48535 0.0839844 0.0712891 5.49804 0.0712891 12.0371C0.0712891 18.5645 5.49707 23.9902 12.0244 23.9902ZM12.0244 21.9981C6.49317 21.9981 2.0752 17.5684 2.0752 12.0371C2.0752 6.50586 6.48145 2.07617 12.0127 2.07617C17.544 2.07617 21.9854 6.50586 21.9854 12.0371C21.9854 17.5684 17.5557 21.9981 12.0244 21.9981Z" fill="black" fill-opacity="0.85"/>
<path d="M11.4502 17.5215C13.7471 17.5215 14.9893 16.291 14.9893 14.0645V7.50196C14.9893 6.85743 14.6494 6.44727 14.0401 6.44727C13.4424 6.44727 13.1143 6.88087 13.1143 7.50196V14.041C13.1143 15.2129 12.5166 15.916 11.544 15.916C10.6651 15.916 10.0674 15.4824 9.78613 14.7207C9.58691 14.2754 9.3291 14.0879 8.93067 14.0879C8.41504 14.0879 8.06348 14.4512 8.06348 14.9551C8.06348 15.1543 8.09863 15.3301 8.15723 15.5059C8.56738 16.7246 9.83301 17.5215 11.4502 17.5215Z" fill="black" fill-opacity="0.85"/>
</g>
<defs>
<clipPath id="clip0_2207_25006">
<rect width="23.9062" height="23.918" fill="white" transform="translate(0.0712891 0.0839844)"/>
</clipPath>
</defs>
</svg>
