<svg width="24" height="25" viewBox="0 0 24 25" fill="none" xmlns="http://www.w3.org/2000/svg">
<g clip-path="url(#clip0_2207_25031)">
<path d="M12.0412 23.9902C18.5803 23.9902 23.9943 18.5645 23.9943 12.0371C23.9943 5.49804 18.5686 0.0839844 12.0295 0.0839844C5.50219 0.0839844 0.0881348 5.49804 0.0881348 12.0371C0.0881348 18.5645 5.51392 23.9902 12.0412 23.9902Z" fill="black" fill-opacity="0.85"/>
<path d="M8.88892 17.5801C8.29126 17.5801 7.92798 17.1699 7.92798 16.4785V7.37304C7.92798 6.68164 8.29126 6.27148 8.88892 6.27148C9.52173 6.27148 9.8733 6.68164 9.8733 7.37304V11.5098H9.94361L14.7014 6.6582C14.9826 6.38867 15.1936 6.27148 15.4865 6.27148C15.9904 6.27148 16.3772 6.64648 16.3772 7.10351C16.3772 7.37304 16.2951 7.57226 16.0725 7.80664L12.7678 11.2051L16.3654 15.9278C16.5412 16.1621 16.6467 16.4199 16.6467 16.666C16.6467 17.1934 16.26 17.5801 15.7092 17.5801C15.3693 17.5801 15.1115 17.4278 14.8654 17.0996L11.3498 12.459L9.8733 13.9824V16.4785C9.8733 17.1699 9.52173 17.5801 8.88892 17.5801Z" fill="white"/>
</g>
<defs>
<clipPath id="clip0_2207_25031">
<rect width="23.9062" height="23.918" fill="white" transform="translate(0.0881348 0.0839844)"/>
</clipPath>
</defs>
</svg>
