<svg width="13" height="18" viewBox="0 0 13 18" fill="none" xmlns="http://www.w3.org/2000/svg">
<g clip-path="url(#clip0_2207_22532)">
<path d="M1.15039 17.4395C1.81836 17.4395 2.25195 17.0176 2.25195 16.3496V11.4863L4.24414 9.36523L10.6192 16.8535C10.9942 17.2871 11.252 17.4395 11.6504 17.4395C12.2715 17.4395 12.7168 17.0176 12.7168 16.4434C12.7168 16.1504 12.5762 15.8574 12.2949 15.5293L5.77929 7.83007L11.6621 1.7832C11.8965 1.5371 12.002 1.31445 12.002 1.05664C12.002 0.529296 11.5684 0.119141 11.0293 0.119141C10.7129 0.119141 10.4668 0.21289 10.1621 0.529296L2.35742 8.70898H2.25195V1.19726C2.25195 0.541015 1.81836 0.119141 1.15039 0.119141C0.49414 0.119141 0.0839844 0.541015 0.0839844 1.19726V16.3496C0.0839844 17.0176 0.49414 17.4395 1.15039 17.4395Z" fill="black" fill-opacity="0.85"/>
</g>
<defs>
<clipPath id="clip0_2207_22532">
<rect width="12.6328" height="17.3555" fill="white" transform="translate(0.0839844 0.0839844)"/>
</clipPath>
</defs>
</svg>
