<svg width="34" height="20" viewBox="0 0 34 20" fill="none" xmlns="http://www.w3.org/2000/svg">
<g clip-path="url(#clip0_2207_22458)">
<path d="M6.21167 16.5488L9.35229 18.9043C9.97339 19.3731 10.7703 19.127 10.7703 18.2832V16.6309H26.9422V18.2832C26.9422 19.1035 27.7273 19.3965 28.3718 18.9043L31.5125 16.5488C31.9461 16.2324 31.9343 15.6231 31.5125 15.3184L28.3718 12.9863C27.7273 12.4942 26.9422 12.7871 26.9422 13.5957V15.2715H10.7703V13.5957C10.7703 12.7871 9.99682 12.4942 9.35229 12.9863L6.21167 15.3184C5.77807 15.6348 5.77807 16.2324 6.21167 16.5488Z" fill="black" fill-opacity="0.85"/>
<path d="M15.9031 8.99023H20.9656C23.7078 8.99023 24.5515 8.12304 25.6531 6.40039L26.2625 5.24023C27.1765 3.13086 27.9617 2.06445 29.3328 2.06445C30.7039 2.06445 31.6414 3.56445 31.6414 5.02929C31.6414 6.42382 30.8328 6.96289 29.5789 6.96289C27.7859 6.96289 26.2039 5.94336 25.5242 4.77148L24.8211 6.50586C25.4656 7.80664 27.2468 8.99023 29.45 8.99023C31.7 8.99023 33.2117 7.5957 33.2117 5.00586C33.2117 2.55664 31.7117 0.0839844 29.5086 0.0839844C27.8562 0.0839844 26.7312 1.10351 25.7351 3.08398L25.0672 4.39648C24.2586 6.01367 23.4851 6.90429 21.2234 6.90429H16.1609C13.3367 6.90429 12.7625 5.89648 12.2117 3.9746C11.6375 2.04101 10.5242 0.0839844 8.46167 0.0839844C5.95386 0.0839844 4.37182 2.81445 3.87964 5.59179L5.30932 6.01367C5.81323 3.52929 7.0437 2.06445 8.34448 2.06445C9.71557 2.06445 10.4773 3.43554 10.6883 4.63086C10.9578 6.30664 9.87964 7.00976 8.64917 7.00976C7.02026 7.00976 5.60229 6.11914 5.01636 4.9707L3.92651 6.4707C4.55932 7.7246 6.22339 8.99023 8.44995 8.99023C10.5242 8.99023 12.0828 7.79492 11.9187 5.4746L11.3211 5.80273C11.7078 7.66601 12.9031 8.99023 15.9031 8.99023ZM0.938232 17.4512C1.40698 17.4512 1.74682 17.0996 1.74682 16.6074V8.75586C1.74682 7.43164 2.20386 7.23242 3.30542 7.06836L5.21557 6.77539L4.7937 4.93554L3.19995 5.21679C1.06714 5.56836 0.0944824 6.27148 0.0944824 8.75586L0.106201 16.6192C0.106201 17.1113 0.457763 17.4512 0.938232 17.4512Z" fill="black" fill-opacity="0.85"/>
</g>
<defs>
<clipPath id="clip0_2207_22458">
<rect width="33.1172" height="19.3008" fill="white" transform="translate(0.0944824 0.0839844)"/>
</clipPath>
</defs>
</svg>
