<svg width="30" height="16" viewBox="0 0 30 16" fill="none" xmlns="http://www.w3.org/2000/svg">
<g clip-path="url(#clip0_2207_12803)">
<path d="M0.340363 7.1167C-0.081512 7.59717 -0.140106 8.27686 0.328644 8.73389L3.93802 12.3549C4.40677 12.8237 5.12161 12.8002 5.56693 12.3432L7.37161 10.5385L10.0201 13.1752C10.4654 13.6323 11.1802 13.6206 11.6372 13.1635L14.1099 10.7143C15.6451 13.937 18.2818 15.7534 21.3872 15.7534C25.7232 15.7534 29.2036 12.2612 29.2036 7.92529C29.2036 3.57764 25.7349 0.0854492 21.3872 0.0854492C18.2583 0.0854492 15.4576 1.89014 14.2154 4.73779H3.14114C2.75443 4.73779 2.30911 4.85498 2.01614 5.20654L0.340363 7.1167ZM2.18021 7.92529L3.48099 6.63623H15.563C16.1958 3.87061 18.563 1.96045 21.3872 1.96045C24.6685 1.96045 27.3169 4.62061 27.3169 7.92529C27.3169 11.2182 24.6802 13.8666 21.3872 13.8666C18.5982 13.8666 16.1958 11.9448 15.4927 9.00342H13.1138L10.8169 11.3002L8.35599 8.81592H6.42239L4.77005 10.4799L2.18021 7.92529ZM21.7388 7.92529C21.7388 8.97998 22.5943 9.83545 23.649 9.83545C24.7036 9.83545 25.5474 8.97998 25.5474 7.92529C25.5474 6.85889 24.7036 6.02686 23.649 6.02686C22.5943 6.02686 21.7388 6.87061 21.7388 7.92529Z" fill="black" fill-opacity="0.85"/>
</g>
<defs>
<clipPath id="clip0_2207_12803">
<rect width="29.2036" height="15.6914" fill="white" transform="translate(0 0.0854492)"/>
</clipPath>
</defs>
</svg>
