<svg width="30" height="23" viewBox="0 0 30 23" fill="none" xmlns="http://www.w3.org/2000/svg">
<g clip-path="url(#clip0_2207_8773)">
<path d="M23.1625 20.4527C26.7016 20.4527 29.4672 17.8627 29.4672 14.6401C29.4672 12.1792 28.0493 10.0464 25.7641 9.08545C25.7875 3.85889 22.0258 0.0854492 17.2329 0.0854492C14.0571 0.0854492 11.7954 1.78467 10.3891 3.83545C7.50635 2.9917 4.36573 5.18311 4.30713 8.46436C1.65869 8.88623 0.00634766 11.2534 0.00634766 14.1127C0.00634766 17.5581 3.01807 20.4527 7.02588 20.4527H23.1625Z" fill="black" fill-opacity="0.85"/>
<path d="M21.3813 11.6285C21.3813 13.6207 19.7758 15.2144 17.7836 15.2144C16.2485 15.2144 14.9477 14.2535 14.268 12.5074L12.7446 14.0074C12.6157 14.1363 12.4399 14.148 12.3461 14.0308L10.8344 12.4957L9.73291 13.6089C9.60401 13.7378 9.43994 13.7378 9.32276 13.6089L7.54151 11.8277C7.43604 11.7105 7.44776 11.5347 7.54151 11.4293L8.47901 10.4917C8.60791 10.3746 8.71338 10.3394 8.84229 10.3394H14.4086C14.9477 8.92139 16.2719 8.03076 17.7836 8.03076C19.7758 8.03076 21.3813 9.62451 21.3813 11.6285ZM19.6586 11.6167C19.6586 10.9957 19.143 10.5152 18.5454 10.5152C17.9125 10.5152 17.4321 11.0074 17.4321 11.6167C17.4321 12.2261 17.9125 12.7183 18.5454 12.7183C19.143 12.7183 19.6586 12.2261 19.6586 11.6167Z" fill="white"/>
</g>
<defs>
<clipPath id="clip0_2207_8773">
<rect width="29.4609" height="22.2773" fill="white" transform="translate(0.00634766 0.0854492)"/>
</clipPath>
</defs>
</svg>
