<svg width="16" height="30" viewBox="0 0 16 30" fill="none" xmlns="http://www.w3.org/2000/svg">
<g clip-path="url(#clip0_2207_12771)">
<path d="M7.11621 28.959C7.6084 29.3692 8.27637 29.4278 8.74512 28.9707L12.3662 25.3496C12.8233 24.8809 12.7998 24.1778 12.3545 23.7207L10.5381 21.916L13.1865 19.2793C13.6436 18.834 13.6201 18.1192 13.1748 17.6504L10.7256 15.1895C13.9483 13.6426 15.7647 11.0176 15.7647 7.90039C15.7647 3.57617 12.2608 0.0839844 7.93652 0.0839844C3.57715 0.0839844 0.0966797 3.55273 0.0966797 7.90039C0.0966797 11.041 1.90137 13.8301 4.74902 15.084V26.1465C4.74902 26.5332 4.86621 26.9785 5.20606 27.2832L7.11621 28.959ZM7.93652 27.1074L6.63574 25.8184V13.7246C3.88184 13.1035 1.97168 10.7246 1.97168 7.90039C1.97168 4.61914 4.63184 1.9707 7.93652 1.9707C11.2295 1.9707 13.8779 4.61914 13.8779 7.90039C13.8779 10.7012 11.9561 13.1035 9.01465 13.8067V16.1738L11.3115 18.4824L8.82715 20.9317V22.877L10.4912 24.5176L7.93652 27.1074ZM7.93652 7.54882C8.97949 7.54882 9.83496 6.69336 9.83496 5.63867C9.83496 4.5957 8.97949 3.75195 7.93652 3.75195C6.87012 3.75195 6.03809 4.5957 6.03809 5.63867C6.03809 6.69336 6.88184 7.54882 7.93652 7.54882Z" fill="black" fill-opacity="0.85"/>
</g>
<defs>
<clipPath id="clip0_2207_12771">
<rect width="15.668" height="29.3555" fill="white" transform="translate(0.0966797 0.0839844)"/>
</clipPath>
</defs>
</svg>
