<svg width="26" height="30" viewBox="0 0 26 30" fill="none" xmlns="http://www.w3.org/2000/svg">
<g clip-path="url(#clip0_2207_12785)">
<path d="M13.3828 0.259277C9.22266 0.259277 5.89453 3.57569 5.89453 7.72413C5.89453 10.853 7.76953 13.6187 10.6992 14.7319V26.2983C10.6992 26.5913 10.7929 26.814 11.0156 27.0366L12.9726 29.0054C13.1601 29.2046 13.5585 29.2632 13.8046 29.0171L17.5195 25.3023C17.7656 25.0444 17.7539 24.7046 17.5195 24.4585L15.2226 22.1851L18.375 19.0327C18.6093 18.7983 18.6093 18.4585 18.3515 18.2007L15.2226 15.0483C18.8437 13.6069 20.8593 10.9351 20.8593 7.72413C20.8593 3.59913 17.5312 0.259277 13.3828 0.259277ZM13.3828 7.12647C12.2929 7.12647 11.4257 6.24756 11.4257 5.16944C11.4257 4.07959 12.2812 3.21241 13.3828 3.21241C14.4726 3.21241 15.3515 4.07959 15.3515 5.16944C15.3515 6.24756 14.4726 7.12647 13.3828 7.12647Z" fill="black" fill-opacity="0.85"/>
<path d="M0.691406 5.98975L21.8906 27.1655C22.8398 28.0796 24.3984 28.0796 25.3125 27.1304C26.2031 26.2046 26.2148 24.6694 25.3007 23.7554L4.11328 2.57959C3.1875 1.66553 1.62891 1.65381 0.691406 2.59131C-0.210938 3.50538 -0.210938 5.06397 0.691406 5.98975Z" fill="white"/>
<path d="M1.75781 4.92333L22.9571 26.0991C23.3085 26.4507 23.8946 26.4507 24.2344 26.0991C24.5742 25.7358 24.586 25.1733 24.2344 24.8218L3.04688 3.64599C2.69531 3.29443 2.1211 3.29443 1.75781 3.64599C1.41797 3.98583 1.41797 4.58349 1.75781 4.92333Z" fill="black" fill-opacity="0.85"/>
</g>
<defs>
<clipPath id="clip0_2207_12785">
<rect width="25.9688" height="29.0939" fill="white" transform="translate(0.0146484 0.0854492)"/>
</clipPath>
</defs>
</svg>
