<svg width="26" height="30" viewBox="0 0 26 30" fill="none" xmlns="http://www.w3.org/2000/svg">
<g clip-path="url(#clip0_2207_12779)">
<path d="M12.9121 28.9604C13.3926 29.3706 14.0723 29.4292 14.5293 28.9721L18.1504 25.351C18.6191 24.8823 18.5957 24.1792 18.1387 23.7221L16.334 21.9174L18.9707 19.2807C19.4277 18.8354 19.416 18.1206 18.959 17.6518L16.5098 15.1909C19.7324 13.644 21.5488 11.019 21.5488 7.90186C21.5488 3.57764 18.0566 0.0854492 13.7207 0.0854492C9.37305 0.0854492 5.88086 3.5542 5.88086 7.90186C5.88086 11.0424 7.68555 13.8315 10.5332 15.0854V26.1479C10.5332 26.5346 10.6504 26.9799 11.002 27.2846L12.9121 28.9604ZM13.7207 27.1088L12.4316 25.8198V13.726C9.66602 13.1049 7.75586 10.726 7.75586 7.90186C7.75586 4.62061 10.416 1.97217 13.7207 1.97217C17.0137 1.97217 19.6621 4.62061 19.6621 7.90186C19.6621 10.7026 17.7402 13.1049 14.7988 13.8081V16.1752L17.0957 18.4838L14.6113 20.9331V22.8784L16.2754 24.519L13.7207 27.1088ZM13.7207 7.55029C14.7754 7.55029 15.6309 6.69483 15.6309 5.64014C15.6309 4.59717 14.7754 3.75342 13.7207 3.75342C12.6543 3.75342 11.8223 4.59717 11.8223 5.64014C11.8223 6.69483 12.666 7.55029 13.7207 7.55029Z" fill="black" fill-opacity="0.85"/>
<path d="M0.689453 6.12061L21.8887 27.2963C22.8379 28.2104 24.3965 28.2104 25.3106 27.2612C26.2012 26.3354 26.2129 24.8002 25.2988 23.8862L4.11133 2.71045C3.18555 1.79639 1.62696 1.78467 0.689453 2.72217C-0.212891 3.63623 -0.212891 5.19483 0.689453 6.12061Z" fill="white"/>
<path d="M1.75586 5.0542L22.9551 26.23C23.3066 26.5816 23.8926 26.5816 24.2324 26.23C24.5723 25.8667 24.584 25.3043 24.2324 24.9527L3.04493 3.77686C2.69336 3.42529 2.11915 3.42529 1.75586 3.77686C1.41602 4.1167 1.41602 4.71436 1.75586 5.0542Z" fill="black" fill-opacity="0.85"/>
</g>
<defs>
<clipPath id="clip0_2207_12779">
<rect width="25.9688" height="29.3555" fill="white" transform="translate(0.0126953 0.0854492)"/>
</clipPath>
</defs>
</svg>
