<svg width="30" height="19" viewBox="0 0 30 19" fill="none" xmlns="http://www.w3.org/2000/svg">
<g clip-path="url(#clip0_2207_3706)">
<path d="M3.69849 18.601H25.8352C28.2727 18.601 29.5149 17.3823 29.5149 14.9682V3.70654C29.5149 1.3042 28.2727 0.0854492 25.8352 0.0854492H3.69849C1.23755 0.0854492 0.0187988 1.29248 0.0187988 3.70654V14.9682C0.0187988 17.3823 1.23755 18.601 3.69849 18.601ZM3.72192 16.7143C2.55005 16.7143 1.90552 16.0815 1.90552 14.8627V3.81201C1.90552 2.59326 2.55005 1.97217 3.72192 1.97217H25.8C26.9602 1.97217 27.6282 2.59326 27.6282 3.81201V14.8627C27.6282 16.0815 26.9602 16.7143 25.8 16.7143H3.72192ZM4.77661 6.61279H5.85474C6.18286 6.61279 6.38208 6.41357 6.38208 6.09717V5.01904C6.38208 4.69092 6.18286 4.4917 5.85474 4.4917H4.77661C4.46021 4.4917 4.26099 4.69092 4.26099 5.01904V6.09717C4.26099 6.41357 4.46021 6.61279 4.77661 6.61279ZM8.55005 6.61279H9.62818C9.94458 6.61279 10.1438 6.41357 10.1438 6.09717V5.01904C10.1438 4.69092 9.94458 4.4917 9.62818 4.4917H8.55005C8.22192 4.4917 8.02271 4.69092 8.02271 5.01904V6.09717C8.02271 6.41357 8.22192 6.61279 8.55005 6.61279ZM12.3235 6.61279H13.3899C13.718 6.61279 13.9172 6.41357 13.9172 6.09717V5.01904C13.9172 4.69092 13.718 4.4917 13.3899 4.4917H12.3235C11.9954 4.4917 11.7961 4.69092 11.7961 5.01904V6.09717C11.7961 6.41357 11.9954 6.61279 12.3235 6.61279ZM16.0852 6.61279H17.1633C17.4915 6.61279 17.6907 6.41357 17.6907 6.09717V5.01904C17.6907 4.69092 17.4915 4.4917 17.1633 4.4917H16.0852C15.7688 4.4917 15.5696 4.69092 15.5696 5.01904V6.09717C15.5696 6.41357 15.7688 6.61279 16.0852 6.61279ZM19.8586 6.61279H20.9368C21.2532 6.61279 21.4524 6.41357 21.4524 6.09717V5.01904C21.4524 4.69092 21.2532 4.4917 20.9368 4.4917H19.8586C19.5305 4.4917 19.3313 4.69092 19.3313 5.01904V6.09717C19.3313 6.41357 19.5305 6.61279 19.8586 6.61279ZM23.6321 6.61279H24.6985C25.0266 6.61279 25.2258 6.41357 25.2258 6.09717V5.01904C25.2258 4.69092 25.0266 4.4917 24.6985 4.4917H23.6321C23.304 4.4917 23.1047 4.69092 23.1047 5.01904V6.09717C23.1047 6.41357 23.304 6.61279 23.6321 6.61279ZM4.77661 10.3862H5.85474C6.18286 10.3862 6.38208 10.187 6.38208 9.85889V8.79248C6.38208 8.46436 6.18286 8.26514 5.85474 8.26514H4.77661C4.46021 8.26514 4.26099 8.46436 4.26099 8.79248V9.85889C4.26099 10.187 4.46021 10.3862 4.77661 10.3862ZM8.55005 10.3862H9.62818C9.94458 10.3862 10.1438 10.187 10.1438 9.85889V8.79248C10.1438 8.46436 9.94458 8.26514 9.62818 8.26514H8.55005C8.22192 8.26514 8.02271 8.46436 8.02271 8.79248V9.85889C8.02271 10.187 8.22192 10.3862 8.55005 10.3862ZM12.3235 10.3862H13.3899C13.718 10.3862 13.9172 10.187 13.9172 9.85889V8.79248C13.9172 8.46436 13.718 8.26514 13.3899 8.26514H12.3235C11.9954 8.26514 11.7961 8.46436 11.7961 8.79248V9.85889C11.7961 10.187 11.9954 10.3862 12.3235 10.3862ZM16.0852 10.3862H17.1633C17.4915 10.3862 17.6907 10.187 17.6907 9.85889V8.79248C17.6907 8.46436 17.4915 8.26514 17.1633 8.26514H16.0852C15.7688 8.26514 15.5696 8.46436 15.5696 8.79248V9.85889C15.5696 10.187 15.7688 10.3862 16.0852 10.3862ZM19.8586 10.3862H20.9368C21.2532 10.3862 21.4524 10.187 21.4524 9.85889V8.79248C21.4524 8.46436 21.2532 8.26514 20.9368 8.26514H19.8586C19.5305 8.26514 19.3313 8.46436 19.3313 8.79248V9.85889C19.3313 10.187 19.5305 10.3862 19.8586 10.3862ZM23.6321 10.3862H24.6985C25.0266 10.3862 25.2258 10.187 25.2258 9.85889V8.79248C25.2258 8.46436 25.0266 8.26514 24.6985 8.26514H23.6321C23.304 8.26514 23.1047 8.46436 23.1047 8.79248V9.85889C23.1047 10.187 23.304 10.3862 23.6321 10.3862ZM4.77661 14.1596H5.85474C6.18286 14.1596 6.38208 13.9604 6.38208 13.6323V12.5542C6.38208 12.2377 6.18286 12.0385 5.85474 12.0385H4.77661C4.46021 12.0385 4.26099 12.2377 4.26099 12.5542V13.6323C4.26099 13.9604 4.46021 14.1596 4.77661 14.1596ZM8.66724 14.1596H20.8196C21.218 14.1596 21.4524 13.9252 21.4524 13.5151V12.6713C21.4524 12.2729 21.218 12.0385 20.8196 12.0385H8.66724C8.25708 12.0385 8.02271 12.2729 8.02271 12.6713V13.5151C8.02271 13.9252 8.25708 14.1596 8.66724 14.1596ZM23.6321 14.1596H24.6985C25.0266 14.1596 25.2258 13.9604 25.2258 13.6323V12.5542C25.2258 12.2377 25.0266 12.0385 24.6985 12.0385H23.6321C23.304 12.0385 23.1047 12.2377 23.1047 12.5542V13.6323C23.1047 13.9604 23.304 14.1596 23.6321 14.1596Z" fill="black" fill-opacity="0.85"/>
</g>
<defs>
<clipPath id="clip0_2207_3706">
<rect width="29.4961" height="18.5273" fill="white" transform="translate(0.0187988 0.0854492)"/>
</clipPath>
</defs>
</svg>
