<svg width="28" height="22" viewBox="0 0 28 22" fill="none" xmlns="http://www.w3.org/2000/svg">
<g clip-path="url(#clip0_2207_19546)">
<path d="M5.16101 10.6088H6.14539C6.45008 10.6088 6.63758 10.4213 6.63758 10.1166V9.12061C6.63758 8.82764 6.45008 8.64014 6.14539 8.64014H5.16101C4.85633 8.64014 4.66883 8.82764 4.66883 9.12061V10.1166C4.66883 10.4213 4.85633 10.6088 5.16101 10.6088ZM8.44226 10.6088H9.43836C9.74304 10.6088 9.91883 10.4213 9.91883 10.1166V9.12061C9.91883 8.82764 9.74304 8.64014 9.43836 8.64014H8.44226C8.1493 8.64014 7.9618 8.82764 7.9618 9.12061V10.1166C7.9618 10.4213 8.1493 10.6088 8.44226 10.6088ZM11.7235 10.6088H12.7079C13.0126 10.6088 13.2001 10.4213 13.2001 10.1166V9.12061C13.2001 8.82764 13.0126 8.64014 12.7079 8.64014H11.7235C11.4188 8.64014 11.243 8.82764 11.243 9.12061V10.1166C11.243 10.4213 11.4188 10.6088 11.7235 10.6088ZM15.0047 10.6088H16.0008C16.2938 10.6088 16.4696 10.4213 16.4696 10.1166V9.12061C16.4696 8.82764 16.2938 8.64014 16.0008 8.64014H15.0047C14.7001 8.64014 14.5126 8.82764 14.5126 9.12061V10.1166C14.5126 10.4213 14.7001 10.6088 15.0047 10.6088ZM18.2743 10.6088H19.2704C19.5751 10.6088 19.7626 10.4213 19.7626 10.1166V9.12061C19.7626 8.82764 19.5751 8.64014 19.2704 8.64014H18.2743C17.9813 8.64014 17.8055 8.82764 17.8055 9.12061V10.1166C17.8055 10.4213 17.9813 10.6088 18.2743 10.6088ZM21.5672 10.6088H22.5516C22.8563 10.6088 23.0438 10.4213 23.0438 10.1166V9.12061C23.0438 8.82764 22.8563 8.64014 22.5516 8.64014H21.5672C21.2626 8.64014 21.0751 8.82764 21.0751 9.12061V10.1166C21.0751 10.4213 21.2626 10.6088 21.5672 10.6088ZM5.16101 13.8901H6.14539C6.45008 13.8901 6.63758 13.7026 6.63758 13.3979V12.4135C6.63758 12.1206 6.45008 11.9331 6.14539 11.9331H5.16101C4.85633 11.9331 4.66883 12.1206 4.66883 12.4135V13.3979C4.66883 13.7026 4.85633 13.8901 5.16101 13.8901ZM8.44226 13.8901H9.43836C9.74304 13.8901 9.91883 13.7026 9.91883 13.3979V12.4135C9.91883 12.1206 9.74304 11.9331 9.43836 11.9331H8.44226C8.1493 11.9331 7.9618 12.1206 7.9618 12.4135V13.3979C7.9618 13.7026 8.1493 13.8901 8.44226 13.8901ZM11.7235 13.8901H12.7079C13.0126 13.8901 13.2001 13.7026 13.2001 13.3979V12.4135C13.2001 12.1206 13.0126 11.9331 12.7079 11.9331H11.7235C11.4188 11.9331 11.243 12.1206 11.243 12.4135V13.3979C11.243 13.7026 11.4188 13.8901 11.7235 13.8901ZM15.0047 13.8901H16.0008C16.2938 13.8901 16.4696 13.7026 16.4696 13.3979V12.4135C16.4696 12.1206 16.2938 11.9331 16.0008 11.9331H15.0047C14.7001 11.9331 14.5126 12.1206 14.5126 12.4135V13.3979C14.5126 13.7026 14.7001 13.8901 15.0047 13.8901ZM18.2743 13.8901H19.2704C19.5751 13.8901 19.7626 13.7026 19.7626 13.3979V12.4135C19.7626 12.1206 19.5751 11.9331 19.2704 11.9331H18.2743C17.9813 11.9331 17.8055 12.1206 17.8055 12.4135V13.3979C17.8055 13.7026 17.9813 13.8901 18.2743 13.8901ZM21.5672 13.8901H22.5516C22.8563 13.8901 23.0438 13.7026 23.0438 13.3979V12.4135C23.0438 12.1206 22.8563 11.9331 22.5516 11.9331H21.5672C21.2626 11.9331 21.0751 12.1206 21.0751 12.4135V13.3979C21.0751 13.7026 21.2626 13.8901 21.5672 13.8901ZM5.16101 17.1831H6.14539C6.45008 17.1831 6.63758 16.9956 6.63758 16.6909V15.7065C6.63758 15.4018 6.45008 15.2143 6.14539 15.2143H5.16101C4.85633 15.2143 4.66883 15.4018 4.66883 15.7065V16.6909C4.66883 16.9956 4.85633 17.1831 5.16101 17.1831ZM8.54773 17.1831H19.1649C19.5516 17.1831 19.7626 16.9604 19.7626 16.5854V15.812C19.7626 15.437 19.5516 15.2143 19.1649 15.2143H8.54773C8.17273 15.2143 7.9618 15.437 7.9618 15.812V16.5854C7.9618 16.9604 8.17273 17.1831 8.54773 17.1831ZM21.5672 17.1831H22.5516C22.8563 17.1831 23.0438 16.9956 23.0438 16.6909V15.7065C23.0438 15.4018 22.8563 15.2143 22.5516 15.2143H21.5672C21.2626 15.2143 21.0751 15.4018 21.0751 15.7065V16.6909C21.0751 16.9956 21.2626 17.1831 21.5672 17.1831ZM0.039917 18.0502C0.039917 20.476 1.27039 21.6831 3.71961 21.6831H23.993C26.454 21.6831 27.6727 20.4643 27.6727 18.0502V3.7417C27.6727 1.32764 26.454 0.108887 23.993 0.108887H3.71961C1.27039 0.108887 0.039917 1.31592 0.039917 3.7417V18.0502ZM3.75476 4.10498C3.18054 4.10498 2.7118 3.61279 2.7118 3.06201C2.7118 2.51123 3.18054 2.01904 3.75476 2.01904C4.32898 2.01904 4.80945 2.51123 4.80945 3.06201C4.80945 3.61279 4.32898 4.10498 3.75476 4.10498ZM7.11804 4.10498C6.54383 4.10498 6.07508 3.61279 6.07508 3.06201C6.07508 2.51123 6.54383 2.01904 7.11804 2.01904C7.69226 2.01904 8.17273 2.51123 8.17273 3.06201C8.17273 3.61279 7.69226 4.10498 7.11804 4.10498ZM10.4813 4.10498C9.90711 4.10498 9.43836 3.61279 9.43836 3.06201C9.43836 2.51123 9.90711 2.01904 10.4813 2.01904C11.0555 2.01904 11.5243 2.51123 11.5243 3.06201C11.5243 3.61279 11.0555 4.10498 10.4813 4.10498ZM1.92664 17.9565V6.01514H25.786V17.9565C25.786 19.1752 25.1297 19.7963 23.9696 19.7963H3.74304C2.57117 19.7963 1.92664 19.1752 1.92664 17.9565Z" fill="black" fill-opacity="0.85"/>
</g>
<defs>
<clipPath id="clip0_2207_19546">
<rect width="27.6328" height="21.5977" fill="white" transform="translate(0.039917 0.0854492)"/>
</clipPath>
</defs>
</svg>
