<svg width="30" height="19" viewBox="0 0 30 19" fill="none" xmlns="http://www.w3.org/2000/svg">
<g clip-path="url(#clip0_2207_3767)">
<path d="M3.72376 18.601H25.8605C28.298 18.601 29.5402 17.3823 29.5402 14.9682V3.70654C29.5402 1.3042 28.298 0.0854492 25.8605 0.0854492H3.72376C1.26282 0.0854492 0.0440674 1.29248 0.0440674 3.70654V14.9682C0.0440674 17.3823 1.26282 18.601 3.72376 18.601Z" fill="black" fill-opacity="0.85"/>
<path d="M4.34485 6.50733C4.12219 6.50733 3.98157 6.35498 3.98157 6.12061V4.76123C3.98157 4.51514 4.12219 4.37451 4.34485 4.37451H5.23548C5.44641 4.37451 5.57532 4.51514 5.57532 4.76123V6.12061C5.57532 6.35498 5.44641 6.50733 5.23548 6.50733H4.34485ZM7.00501 6.50733C6.77063 6.50733 6.64173 6.35498 6.64173 6.12061V4.76123C6.64173 4.51514 6.77063 4.37451 7.00501 4.37451H7.88391C8.10657 4.37451 8.23548 4.51514 8.23548 4.76123V6.12061C8.23548 6.35498 8.10657 6.50733 7.88391 6.50733H7.00501ZM9.65345 6.50733C9.43079 6.50733 9.29016 6.35498 9.29016 6.12061V4.76123C9.29016 4.51514 9.43079 4.37451 9.65345 4.37451H10.5441C10.755 4.37451 10.8839 4.51514 10.8839 4.76123V6.12061C10.8839 6.35498 10.755 6.50733 10.5441 6.50733H9.65345ZM12.3019 6.50733C12.0793 6.50733 11.9503 6.35498 11.9503 6.12061V4.76123C11.9503 4.51514 12.0793 4.37451 12.3019 4.37451H13.1808C13.4035 4.37451 13.5441 4.51514 13.5441 4.76123V6.12061C13.5441 6.35498 13.4035 6.50733 13.1808 6.50733H12.3019ZM14.9386 6.50733C14.7277 6.50733 14.5871 6.35498 14.5871 6.12061V4.76123C14.5871 4.51514 14.7277 4.37451 14.9386 4.37451H15.8527C16.0519 4.37451 16.1925 4.51514 16.1925 4.76123V6.12061C16.1925 6.35498 16.0519 6.50733 15.8527 6.50733H14.9386ZM17.6105 6.50733C17.3879 6.50733 17.2472 6.35498 17.2472 6.12061V4.76123C17.2472 4.51514 17.3879 4.37451 17.6105 4.37451H18.4894C18.7003 4.37451 18.8527 4.51514 18.8527 4.76123V6.12061C18.8527 6.35498 18.7003 6.50733 18.4894 6.50733H17.6105ZM4.34485 10.3863C4.12219 10.3863 3.98157 10.2574 3.98157 9.99951V8.65186C3.98157 8.39404 4.12219 8.26514 4.34485 8.26514H5.23548C5.44641 8.26514 5.57532 8.39404 5.57532 8.65186V9.99951C5.57532 10.2574 5.44641 10.3863 5.23548 10.3863H4.34485ZM7.00501 10.3863C6.77063 10.3863 6.64173 10.2574 6.64173 9.99951V8.65186C6.64173 8.39404 6.77063 8.26514 7.00501 8.26514H7.88391C8.10657 8.26514 8.23548 8.39404 8.23548 8.65186V9.99951C8.23548 10.2574 8.10657 10.3863 7.88391 10.3863H7.00501ZM9.65345 10.3863C9.43079 10.3863 9.29016 10.2574 9.29016 9.99951V8.65186C9.29016 8.39404 9.43079 8.26514 9.65345 8.26514H10.5441C10.755 8.26514 10.8839 8.39404 10.8839 8.65186V9.99951C10.8839 10.2574 10.755 10.3863 10.5441 10.3863H9.65345ZM12.3019 10.3863C12.0793 10.3863 11.9503 10.2574 11.9503 9.99951V8.65186C11.9503 8.39404 12.0793 8.26514 12.3019 8.26514H13.1808C13.4035 8.26514 13.5441 8.39404 13.5441 8.65186V9.99951C13.5441 10.2574 13.4035 10.3863 13.1808 10.3863H12.3019ZM14.9386 10.3863C14.7277 10.3863 14.5871 10.2574 14.5871 9.99951V8.65186C14.5871 8.39404 14.7277 8.26514 14.9386 8.26514H15.8527C16.0519 8.26514 16.1925 8.39404 16.1925 8.65186V9.99951C16.1925 10.2574 16.0519 10.3863 15.8527 10.3863H14.9386ZM17.6105 10.3863C17.3879 10.3863 17.2472 10.2574 17.2472 9.99951V8.65186C17.2472 8.39404 17.3879 8.26514 17.6105 8.26514H18.4894C18.7003 8.26514 18.8527 8.39404 18.8527 8.65186V9.99951C18.8527 10.2574 18.7003 10.3863 18.4894 10.3863H17.6105ZM4.34485 14.2769C4.12219 14.2769 3.98157 14.1363 3.98157 13.8902V12.5308C3.98157 12.2964 4.12219 12.1441 4.34485 12.1441H5.23548C5.44641 12.1441 5.57532 12.2964 5.57532 12.5308V13.8902C5.57532 14.1363 5.44641 14.2769 5.23548 14.2769H4.34485ZM7.00501 14.2769C6.77063 14.2769 6.64173 14.1363 6.64173 13.8902V12.5308C6.64173 12.2964 6.77063 12.1441 7.00501 12.1441H15.8527C16.0519 12.1441 16.1925 12.2964 16.1925 12.5308V13.8902C16.1925 14.1363 16.0519 14.2769 15.8527 14.2769H7.00501ZM17.6105 14.2769C17.3879 14.2769 17.2472 14.1363 17.2472 13.8902V12.5308C17.2472 12.2964 17.3879 12.1441 17.6105 12.1441H18.4894C18.7003 12.1441 18.8527 12.2964 18.8527 12.5308V13.8902C18.8527 14.1363 18.7003 14.2769 18.4894 14.2769H17.6105ZM20.8918 8.66357L24.4308 5.30029C24.841 4.91357 25.5441 5.06592 25.5441 5.71045V12.9644C25.5441 13.6207 24.841 13.773 24.4308 13.3863L20.8918 10.0112C20.4464 9.58936 20.4464 9.08545 20.8918 8.66357Z" fill="white"/>
</g>
<defs>
<clipPath id="clip0_2207_3767">
<rect width="29.4961" height="18.5273" fill="white" transform="translate(0.0440674 0.0854492)"/>
</clipPath>
</defs>
</svg>
