<svg width="28" height="21" viewBox="0 0 28 21" fill="none" xmlns="http://www.w3.org/2000/svg">
<g clip-path="url(#clip0_2207_20959)">
<path d="M9.89917 20.5229H17.2702C24.0671 20.5229 27.1023 17.394 27.1023 10.9956V3.63623C27.1023 1.28076 25.8835 0.0854492 23.5046 0.0854492H3.6648C1.28589 0.0854492 0.0671387 1.28076 0.0671387 3.63623V10.9956C0.0671387 17.394 3.1023 20.5229 9.89917 20.5229ZM9.89917 18.6362C4.36792 18.6362 1.95386 16.2338 1.95386 11.1127V3.7417C1.95386 2.56983 2.56323 1.97217 3.71167 1.97217H23.4577C24.5827 1.97217 25.2155 2.56983 25.2155 3.7417V11.1127C25.2155 16.2338 22.8015 18.6362 17.2585 18.6362H9.89917Z" fill="black" fill-opacity="0.85"/>
<path d="M11.7273 15.1441H16.321C16.7663 15.1441 17.153 14.8277 17.153 14.3472C17.153 13.8667 16.7663 13.5269 16.321 13.5269H12.7116V6.35498C12.7116 5.72217 12.3249 5.28857 11.7273 5.28857C11.1296 5.28857 10.7898 5.73389 10.7898 6.35498V14.1011C10.7898 14.7222 11.1296 15.1441 11.7273 15.1441Z" fill="black" fill-opacity="0.85"/>
</g>
<defs>
<clipPath id="clip0_2207_20959">
<rect width="27.0352" height="20.4492" fill="white" transform="translate(0.0671387 0.0854492)"/>
</clipPath>
</defs>
</svg>
