<svg width="24" height="25" viewBox="0 0 24 25" fill="none" xmlns="http://www.w3.org/2000/svg">
<g clip-path="url(#clip0_2207_25046)">
<path d="M12.0244 23.9916C18.5635 23.9916 23.9775 18.5659 23.9775 12.0385C23.9775 5.49951 18.5518 0.0854492 12.0127 0.0854492C5.48535 0.0854492 0.0712891 5.49951 0.0712891 12.0385C0.0712891 18.5659 5.49707 23.9916 12.0244 23.9916ZM12.0244 21.9995C6.49317 21.9995 2.0752 17.5698 2.0752 12.0385C2.0752 6.50733 6.48145 2.07764 12.0127 2.07764C17.544 2.07764 21.9854 6.50733 21.9854 12.0385C21.9854 17.5698 17.5557 21.9995 12.0244 21.9995Z" fill="black" fill-opacity="0.85"/>
<path d="M9.83301 17.2652H15.2354C15.6807 17.2652 16.0088 16.9722 16.0088 16.5035C16.0088 16.023 15.6807 15.7299 15.2354 15.7299H10.7822V7.50342C10.7822 6.85889 10.4541 6.44873 9.83301 6.44873C9.23535 6.44873 8.90723 6.88233 8.90723 7.50342V16.2222C8.90723 16.8433 9.23535 17.2652 9.83301 17.2652Z" fill="black" fill-opacity="0.85"/>
</g>
<defs>
<clipPath id="clip0_2207_25046">
<rect width="23.9062" height="23.918" fill="white" transform="translate(0.0712891 0.0854492)"/>
</clipPath>
</defs>
</svg>
