<svg width="28" height="36" viewBox="0 0 28 36" fill="none" xmlns="http://www.w3.org/2000/svg">
<g clip-path="url(#clip0_2207_20447)">
<path d="M13.5606 4.07861C6.11914 4.07861 0.0839844 10.1255 0.0839844 17.5669C0.0839844 24.9966 6.11914 31.0435 13.5606 31.0435C20.9902 31.0435 27.0371 25.0084 27.0371 17.5669C27.0371 10.1255 20.9902 4.07861 13.5606 4.07861ZM13.5606 5.96533C19.9707 5.96533 25.1504 11.1451 25.1504 17.5669C25.1504 23.9888 19.9707 29.1568 13.5606 29.1568C7.13867 29.1568 1.9707 23.9888 1.9707 17.5669C1.9707 11.1451 7.13867 5.96533 13.5606 5.96533Z" fill="black" fill-opacity="0.85"/>
<path d="M11.4396 27.2583C9.29502 27.2583 8.26377 29.5786 9.52939 31.2661L11.6388 34.0903C12.6114 35.3793 14.5099 35.3911 15.4825 34.0786L17.5568 31.2778C18.8341 29.5551 17.7911 27.2583 15.6583 27.2583H11.4396Z" fill="white"/>
<path d="M11.4395 28.8521C10.5957 28.8521 10.3496 29.6841 10.8067 30.3052L12.9278 33.1294C13.2559 33.563 13.8535 33.5748 14.1934 33.1294L16.2793 30.3169C16.7715 29.6724 16.4785 28.8521 15.6582 28.8521H11.4395Z" fill="black" fill-opacity="0.85"/>
<path d="M13.5606 8.20361C8.39257 8.20361 4.20898 12.399 4.20898 17.5669C4.20898 22.7466 8.39257 26.9185 13.5606 26.9185C18.7285 26.9185 22.9121 22.7466 22.9121 17.5669C22.9121 12.399 18.7285 8.20361 13.5606 8.20361ZM13.5606 10.0904C17.6973 10.0904 21.0254 13.4185 21.0254 17.5669C21.0254 21.7037 17.6973 25.0318 13.5606 25.0318C9.4121 25.0318 6.0957 21.7037 6.0957 17.5669C6.0957 13.4185 9.4121 10.0904 13.5606 10.0904ZM11.8262 22.0552H16.0918C16.5137 22.0552 16.8652 21.7623 16.8652 21.3169C16.8652 20.8716 16.5137 20.5552 16.0918 20.5552H12.7402V13.899C12.7402 13.313 12.3887 12.9146 11.8262 12.9146C11.2754 12.9146 10.9707 13.3248 10.9707 13.899V21.0826C10.9707 21.6568 11.2754 22.0552 11.8262 22.0552Z" fill="black" fill-opacity="0.85"/>
</g>
<defs>
<clipPath id="clip0_2207_20447">
<rect width="26.9531" height="34.9746" fill="white" transform="translate(0.0839844 0.0854492)"/>
</clipPath>
</defs>
</svg>
