<svg width="32" height="28" viewBox="0 0 32 28" fill="none" xmlns="http://www.w3.org/2000/svg">
<g clip-path="url(#clip0_2207_20412)">
<path d="M17.5835 27.0385C25.0249 27.0385 31.0717 21.0152 31.0717 13.5737C31.0717 6.13233 25.0249 0.0854492 17.5835 0.0854492C10.1538 0.0854492 4.10693 6.13233 4.10693 13.5737C4.10693 21.0152 10.1538 27.0385 17.5835 27.0385ZM17.5835 25.1518C11.1616 25.1518 5.99365 19.9956 5.99365 13.5737C5.99365 7.15186 11.1733 1.97217 17.5835 1.97217C24.0053 1.97217 29.185 7.15186 29.185 13.5737C29.185 19.9956 24.0053 25.1518 17.5835 25.1518Z" fill="black" fill-opacity="0.85"/>
<path d="M3.87256 9.56588L1.07178 11.6518C-0.240723 12.6127 -0.229004 14.5112 1.06006 15.4838L3.88428 17.6049C5.58349 18.8588 7.89209 17.8393 7.89209 15.6948V11.4643C7.89209 9.34322 5.59521 8.28853 3.87256 9.56588Z" fill="white"/>
<path d="M4.83351 10.8433L2.02101 12.941C1.5757 13.2691 1.58742 13.8785 2.02101 14.2066L4.84523 16.316C5.46633 16.7847 6.29836 16.5269 6.29836 15.6949V11.4644C6.29836 10.6558 5.47805 10.3628 4.83351 10.8433Z" fill="black" fill-opacity="0.85"/>
<path d="M17.5835 22.9252C22.7514 22.9252 26.9467 18.7416 26.9467 13.5737C26.9467 8.39404 22.7514 4.21045 17.5835 4.21045C12.4155 4.21045 8.23193 8.39404 8.23193 13.5737C8.23193 18.7416 12.4155 22.9252 17.5835 22.9252ZM15.8022 18.2027C15.228 18.2027 14.9116 17.7924 14.9116 17.1948V9.80029C14.9116 9.20264 15.228 8.78076 15.8022 8.78076C16.3764 8.78076 16.7514 9.19092 16.7514 9.80029V16.6557H20.1967C20.6303 16.6557 20.9936 16.9838 20.9936 17.4409C20.9936 17.8979 20.6303 18.2027 20.1967 18.2027H15.8022Z" fill="black" fill-opacity="0.85"/>
</g>
<defs>
<clipPath id="clip0_2207_20412">
<rect width="30.9814" height="26.9883" fill="white" transform="translate(0.090332 0.0854492)"/>
</clipPath>
</defs>
</svg>
