<svg width="27" height="24" viewBox="0 0 27 24" fill="none" xmlns="http://www.w3.org/2000/svg">
<g clip-path="url(#clip0_2207_20345)">
<path d="M13.5288 23.019C16.3648 23.019 18.0523 21.6831 18.0523 19.4331V15.4721C18.0523 13.2221 16.3648 11.8862 13.5288 11.8862C10.6812 11.8862 8.99365 13.2221 8.99365 15.4721V19.4331C8.99365 21.6831 10.6812 23.019 13.5288 23.019Z" fill="black" fill-opacity="0.85"/>
<path d="M13.5288 19.4096C21.5327 19.4096 26.9702 15.6713 26.9702 10.1401C26.9702 4.60889 21.521 0.870605 13.5054 0.870605C5.51318 0.870605 0.0756836 4.62061 0.0756836 10.1401C0.0756836 15.6713 5.51318 19.4096 13.5288 19.4096Z" fill="white"/>
<path d="M13.5288 18.0502C20.8413 18.0502 25.6109 14.8159 25.6109 10.1401C25.6109 5.47607 20.8296 2.2417 13.5054 2.2417C6.2046 2.2417 1.44678 5.47607 1.44678 10.1401C1.44678 14.8159 6.2046 18.0502 13.5288 18.0502ZM13.5288 16.0346C7.56397 16.0346 3.56788 13.644 3.56788 10.1401C3.56788 6.63623 7.56397 4.25733 13.5054 4.25733C19.4702 4.25733 23.4898 6.63623 23.4898 10.1401C23.4898 13.644 19.4819 16.0346 13.5288 16.0346Z" fill="black" fill-opacity="0.85"/>
<path d="M11.8882 13.8082H15.4976C15.9546 13.8082 16.271 13.4917 16.271 13.0582C16.271 12.6011 15.9546 12.2964 15.4976 12.2964H12.7554V7.01123C12.7554 6.42529 12.4155 6.07373 11.8882 6.07373C11.3726 6.07373 11.021 6.43701 11.021 7.01123V12.8707C11.021 13.4332 11.3609 13.8082 11.8882 13.8082Z" fill="black" fill-opacity="0.85"/>
</g>
<defs>
<clipPath id="clip0_2207_20345">
<rect width="26.8945" height="22.9336" fill="white" transform="translate(0.0756836 0.0854492)"/>
</clipPath>
</defs>
</svg>
