<svg width="28" height="21" viewBox="0 0 28 21" fill="none" xmlns="http://www.w3.org/2000/svg">
<g clip-path="url(#clip0_2207_20974)">
<path d="M9.83838 20.5244H17.2094C24.0063 20.5244 27.0415 17.3955 27.0415 10.9971V3.63769C27.0415 1.28222 25.8227 0.0869141 23.4438 0.0869141H3.60401C1.2251 0.0869141 0.00634766 1.28222 0.00634766 3.63769V10.9971C0.00634766 17.3955 3.04151 20.5244 9.83838 20.5244Z" fill="black" fill-opacity="0.85"/>
<path d="M9.88525 15.0166C9.34618 15.0166 9.0415 14.6885 9.0415 14.1377V6.333C9.0415 5.86425 9.43993 5.47753 9.89696 5.47753C10.3657 5.47753 10.7407 5.86425 10.7407 6.333V13.5986H13.2251C13.6118 13.5986 13.9282 13.915 13.9282 14.3135C13.9282 14.7002 13.6118 15.0166 13.2251 15.0166H9.88525ZM17.0336 15.1338C16.5649 15.1338 16.1782 14.7471 16.1782 14.2666V7.23535L15.1235 8.09082C14.9946 8.18457 14.8774 8.23144 14.6899 8.23144C14.3383 8.23144 14.104 7.98535 14.104 7.62207C14.104 7.31738 14.268 7.083 14.4672 6.94238L15.7446 5.93457C16.0258 5.73535 16.4125 5.46582 16.893 5.46582C17.5024 5.46582 17.8891 5.81738 17.8891 6.41503V14.2666C17.8891 14.7471 17.4907 15.1338 17.0336 15.1338Z" fill="white"/>
</g>
<defs>
<clipPath id="clip0_2207_20974">
<rect width="27.0352" height="20.4492" fill="white" transform="translate(0.00634766 0.0869141)"/>
</clipPath>
</defs>
</svg>
