<svg width="21" height="26" viewBox="0 0 21 26" fill="none" xmlns="http://www.w3.org/2000/svg">
<g clip-path="url(#clip0_2207_21027)">
<path d="M6.98536 25.2588H17.2861C19.5127 25.2588 20.8486 23.9463 20.8486 21.7431L20.8604 3.63769C20.8604 1.5166 19.4307 0.0869141 17.3213 0.0869141H13.7236C11.8838 0.0869141 10.3486 0.567383 8.90723 1.8916L1.50098 8.70019C0.504883 9.61425 0.0126953 10.9033 0.0126953 12.5088V18.2861C0.0126953 22.5283 2.74317 25.2588 6.98536 25.2588ZM7.03223 23.3721C3.75098 23.3721 1.89942 21.5322 1.89942 18.251V12.5322C1.89942 11.3603 2.16895 10.6455 2.81348 10.0596L10.208 3.27441C11.251 2.32519 12.3174 1.97363 13.7705 1.97363H17.2861C18.3057 1.97363 18.9736 2.65332 18.9736 3.66113L18.9619 21.708C18.9619 22.9502 18.4697 23.3721 17.251 23.3721H7.03223Z" fill="black" fill-opacity="0.85"/>
<path d="M6.39942 19.4463H9.50489C9.85645 19.4463 10.1611 19.1416 10.1611 18.79C10.1611 18.4267 9.85645 18.1338 9.50489 18.1338H7.18458V11.3486C7.18458 10.9267 6.83301 10.5752 6.41114 10.5752C5.97754 10.5752 5.62598 10.9267 5.62598 11.3486V18.626C5.62598 19.1299 5.90723 19.4463 6.39942 19.4463ZM11.7549 19.4346H15.5049C15.8799 19.4346 16.1143 19.1767 16.1143 18.8017C16.1143 18.3916 15.8682 18.1689 15.5049 18.1689H12.9385V18.0752L14.5088 16.083C15.5986 14.7353 15.9502 13.9502 15.9502 12.9892C15.9502 11.5361 14.9541 10.4697 13.4658 10.4697C12.083 10.4697 11.04 11.6181 11.04 12.7431C11.04 13.1416 11.2744 13.4228 11.6846 13.4228C12.0361 13.4228 12.2588 13.2588 12.376 12.9072C12.5752 12.1807 12.8447 11.7236 13.4541 11.7236C14.1104 11.7236 14.4736 12.3096 14.4736 13.0596C14.4736 13.9267 13.876 14.8057 13.3018 15.5322L11.4268 17.9463C11.2275 18.1924 11.0283 18.4619 11.0283 18.8017C11.0283 19.165 11.2627 19.4346 11.7549 19.4346Z" fill="black" fill-opacity="0.85"/>
</g>
<defs>
<clipPath id="clip0_2207_21027">
<rect width="20.8477" height="25.1836" fill="white" transform="translate(0.0126953 0.0869141)"/>
</clipPath>
</defs>
</svg>
