<svg width="24" height="25" viewBox="0 0 24 25" fill="none" xmlns="http://www.w3.org/2000/svg">
<g clip-path="url(#clip0_2207_20695)">
<path d="M11.9741 23.9931C18.5132 23.9931 23.9272 18.5674 23.9272 12.04C23.9272 5.50097 18.5015 0.0869141 11.9624 0.0869141C5.43506 0.0869141 0.0209961 5.50097 0.0209961 12.04C0.0209961 18.5674 5.44678 23.9931 11.9741 23.9931ZM11.9741 22.001C6.44288 22.001 2.02491 17.5713 2.02491 12.04C2.02491 6.50879 6.43116 2.0791 11.9624 2.0791C17.4937 2.0791 21.9351 6.50879 21.9351 12.04C21.9351 17.5713 17.5054 22.001 11.9741 22.001Z" fill="black" fill-opacity="0.85"/>
<path d="M7.39209 16.7861H10.7671C11.1538 16.7861 11.4702 16.4697 11.4702 16.0713C11.4702 15.6846 11.1538 15.3681 10.7671 15.3681H8.25928V8.00879C8.25928 7.55175 7.87256 7.16503 7.40381 7.16503C6.94678 7.16503 6.56006 7.55175 6.56006 8.00879V15.9072C6.56006 16.458 6.85303 16.7861 7.39209 16.7861ZM13.2046 16.7744H17.271C17.6812 16.7744 17.939 16.5049 17.939 16.0947C17.939 15.6494 17.6694 15.4033 17.271 15.4033H14.4937V15.3096L16.1929 13.1416C17.3765 11.6885 17.7632 10.8213 17.7632 9.79003C17.7632 8.208 16.6851 7.05957 15.0679 7.05957C13.5679 7.05957 12.4312 8.30175 12.4312 9.5205C12.4312 9.9541 12.6772 10.2588 13.1343 10.2588C13.521 10.2588 13.7554 10.083 13.8726 9.69629C14.0952 8.91113 14.3882 8.41894 15.0562 8.41894C15.7593 8.41894 16.1577 9.04003 16.1577 9.87207C16.1577 10.8096 15.5015 11.7588 14.8804 12.5557L12.853 15.1572C12.6304 15.4385 12.4077 15.7314 12.4077 16.0947C12.4077 16.4931 12.6655 16.7744 13.2046 16.7744Z" fill="black" fill-opacity="0.85"/>
</g>
<defs>
<clipPath id="clip0_2207_20695">
<rect width="23.9062" height="23.918" fill="white" transform="translate(0.0209961 0.0869141)"/>
</clipPath>
</defs>
</svg>
