<svg width="31" height="22" viewBox="0 0 31 22" fill="none" xmlns="http://www.w3.org/2000/svg">
<g clip-path="url(#clip0_2207_21088)">
<path d="M30.3554 11.9607V4.61304C30.3554 2.50367 28.9375 1.07397 26.8164 1.07397L3.54296 1.08569C1.44531 1.08569 0.0273438 2.5271 0.0273438 4.6482V11.9607C0.0273438 14.9959 1.32812 16.8592 4.45703 17.7849L14.6054 20.7381C17.3242 21.5349 19.0703 21.2185 21.4961 19.9646L28.082 16.5779C29.9453 15.617 30.3554 14.4685 30.3554 11.9607Z" fill="black" fill-opacity="0.85"/>
<path d="M10 15.1131C9.44922 15.1131 9.13281 14.7615 9.13281 14.1873V6.06616C9.13281 5.58569 9.53125 5.18725 10.0117 5.18725C10.4921 5.18725 10.8906 5.58569 10.8906 6.06616V13.6248H13.4687C13.8671 13.6248 14.207 13.9646 14.207 14.3631C14.207 14.7732 13.8671 15.1131 13.4687 15.1131H10ZM18.1914 15.3123C16.8906 15.3123 15.6601 14.6912 15.3085 13.5662C15.25 13.367 15.2148 13.156 15.2148 12.9334C15.2148 12.4529 15.5312 12.1717 16 12.1717C16.3867 12.1717 16.6562 12.3709 16.7734 12.7693C16.9257 13.3084 17.3125 13.8943 18.1914 13.8943C19.082 13.8943 19.5273 13.1912 19.5273 12.3592C19.5273 11.3045 18.9648 10.7537 17.9335 10.7537H17.6406C17.2304 10.7537 16.9726 10.5076 16.9726 10.1092C16.9726 9.71069 17.2187 9.46459 17.6406 9.46459H17.9218C18.8242 9.46459 19.3164 8.82006 19.3164 7.94116C19.3164 7.14428 18.9414 6.52319 18.1445 6.52319C17.4648 6.52319 17.0781 6.98022 16.8906 7.69506C16.7734 8.10522 16.539 8.26928 16.1171 8.26928C15.6367 8.26928 15.3671 7.94116 15.3671 7.55444C15.3671 7.3435 15.3906 7.13256 15.4726 6.89819C15.8007 5.83178 16.9023 5.12866 18.1445 5.12866C19.7148 5.12866 20.9687 6.07787 20.9687 7.75366C20.9687 8.76147 20.4296 9.73412 19.3398 10.0271V10.074C20.3593 10.1795 21.2617 10.9177 21.2617 12.4177C21.2617 14.2224 19.9257 15.3123 18.1914 15.3123Z" fill="white"/>
</g>
<defs>
<clipPath id="clip0_2207_21088">
<rect width="30.3281" height="21.0873" fill="white" transform="translate(0.0273438 0.0869141)"/>
</clipPath>
</defs>
</svg>
