<svg width="31" height="22" viewBox="0 0 31 22" fill="none" xmlns="http://www.w3.org/2000/svg">
<g clip-path="url(#clip0_2207_21083)">
<path d="M30.3532 11.9607V4.61304C30.3532 2.50367 28.9353 1.07397 26.8142 1.07397L3.54077 1.08569C1.44312 1.08569 0.0251465 2.5271 0.0251465 4.6482V11.9607C0.0251465 14.9959 1.32593 16.8592 4.45484 17.7849L14.6032 20.7381C17.322 21.5349 19.0681 21.2185 21.4939 19.9646L28.0798 16.5779C29.9431 15.617 30.3532 14.4685 30.3532 11.9607ZM28.4665 11.9607C28.4665 13.6951 28.1384 14.4568 26.8845 15.0896L20.486 18.3592C18.4704 19.3787 17.0407 19.5896 14.6032 18.8631L5.00562 16.0154C2.80249 15.3709 1.91187 14.0935 1.91187 11.9607V4.68335C1.91187 3.6521 2.56812 2.97242 3.57593 2.97242L26.7907 2.9607C27.7985 2.9607 28.4665 3.62867 28.4665 4.6482V11.9607Z" fill="black" fill-opacity="0.85"/>
<path d="M10.1618 14.7263H13.5251C13.9118 14.7263 14.2399 14.3982 14.2399 14.0115C14.2399 13.6248 13.9118 13.2967 13.5251 13.2967H11.0173V5.94898C11.0173 5.49195 10.6306 5.10523 10.1735 5.10523C9.70484 5.10523 9.31812 5.49195 9.31812 5.94898V13.8357C9.31812 14.3865 9.62281 14.7263 10.1618 14.7263ZM18.0954 14.9256C19.7712 14.9256 21.072 13.8709 21.072 12.1131C21.072 10.6599 20.1931 9.94507 19.2087 9.8396V9.79273C20.2634 9.51148 20.7907 8.57398 20.7907 7.5896C20.7907 5.97242 19.572 5.04663 18.0485 5.04663C16.8415 5.04663 15.7868 5.72632 15.4587 6.76929C15.3884 6.99195 15.3649 7.20288 15.3649 7.4021C15.3649 7.7771 15.6228 8.09351 16.0798 8.09351C16.4899 8.09351 16.7126 7.92945 16.8298 7.53101C17.0173 6.8396 17.3923 6.39429 18.0485 6.39429C18.822 6.39429 19.1853 7.00367 19.1853 7.7771C19.1853 8.63257 18.7165 9.25367 17.8376 9.25367H17.5563C17.1579 9.25367 16.9118 9.49976 16.9118 9.87476C16.9118 10.2615 17.1696 10.4959 17.5563 10.4959H17.8493C18.8454 10.4959 19.3962 11.0349 19.3962 12.0662C19.3962 12.8748 18.9626 13.5545 18.0954 13.5545C17.2399 13.5545 16.8649 12.9802 16.7126 12.4529C16.6071 12.0779 16.3493 11.8787 15.9743 11.8787C15.5173 11.8787 15.2126 12.1482 15.2126 12.617C15.2126 12.8279 15.2478 13.0388 15.3063 13.2263C15.6462 14.3162 16.8298 14.9256 18.0954 14.9256Z" fill="black" fill-opacity="0.85"/>
</g>
<defs>
<clipPath id="clip0_2207_21083">
<rect width="30.3281" height="21.0873" fill="white" transform="translate(0.0251465 0.0869141)"/>
</clipPath>
</defs>
</svg>
