<svg width="24" height="25" viewBox="0 0 24 25" fill="none" xmlns="http://www.w3.org/2000/svg">
<g clip-path="url(#clip0_2207_18175)">
<path d="M11.9909 24.0049C18.53 24.0049 23.944 18.5908 23.944 12.0517C23.944 5.52441 18.5183 0.0986328 11.9792 0.0986328C5.4519 0.0986328 0.0378418 5.52441 0.0378418 12.0517C0.0378418 18.5908 5.46362 24.0049 11.9909 24.0049Z" fill="black" fill-opacity="0.85"/>
<path d="M11.9909 9.09866C10.8659 9.09866 9.77612 8.89944 9.04956 8.57132C8.62768 8.3721 8.49878 8.11428 8.49878 7.751C8.49878 6.90725 8.97925 6.14553 9.84643 5.66506L9.86987 5.48928C9.90503 5.26663 9.81128 5.10256 9.54175 5.02053L9.073 4.86819C8.42846 4.69241 8.75659 3.67288 9.42456 3.91897L9.9519 4.12991C10.5144 4.32913 10.8542 4.71585 10.8308 5.23147L10.819 5.29006C11.1823 5.19632 11.569 5.14944 11.9909 5.14944C12.4011 5.14944 12.7878 5.19632 13.1511 5.29006V5.23147C13.1276 4.70413 13.4675 4.32913 14.0183 4.12991L14.5573 3.91897C15.2253 3.67288 15.5534 4.69241 14.8972 4.86819L14.4401 5.02053C14.1589 5.10256 14.0651 5.26663 14.112 5.48928L14.1355 5.66506C14.9909 6.14553 15.4714 6.90725 15.4714 7.751C15.4714 8.11428 15.3425 8.3721 14.9206 8.57132C14.194 8.89944 13.1042 9.09866 11.9909 9.09866ZM11.9909 11.0322C11.7448 11.0322 11.5573 11.208 11.5573 11.4424V18.9307C11.5573 19.2705 11.3347 19.4228 10.8894 19.3877C9.50659 19.2119 8.38159 18.5674 7.56128 17.583L6.67065 18.333C6.41284 18.5557 6.073 18.5791 5.87378 18.3096C5.67456 18.0869 5.74487 17.7588 6.00268 17.5361L6.97534 16.7158C6.51831 15.8603 6.24878 14.8291 6.22534 13.7041H5.0769C4.73706 13.7041 4.53784 13.4931 4.53784 13.1885C4.53784 12.8721 4.73706 12.6728 5.0769 12.6728L6.28393 12.6611C6.40112 11.7822 6.65893 10.8799 7.04565 10.1885L6.02612 9.32132C5.76831 9.1221 5.698 8.78225 5.8855 8.53616C6.09643 8.27835 6.42456 8.3135 6.69409 8.52444L7.69018 9.36819C8.05346 9.0635 8.29956 9.05178 8.5105 9.15725C9.49487 9.59085 10.737 9.86038 11.9909 9.86038C13.2448 9.86038 14.487 9.59085 15.4597 9.15725C15.6706 9.0635 15.9284 9.0635 16.2917 9.36819L17.2878 8.52444C17.5573 8.3135 17.8737 8.27835 18.0847 8.53616C18.2839 8.78225 18.2019 9.1221 17.9558 9.32132L16.9362 10.1885C17.3112 10.8799 17.5808 11.7822 17.6862 12.6611L18.8933 12.6728C19.2448 12.6728 19.444 12.8721 19.444 13.1885C19.444 13.4931 19.2448 13.7041 18.8933 13.7041H17.7566C17.7331 14.8291 17.4636 15.8603 16.9948 16.7158L17.9792 17.5361C18.237 17.7588 18.3073 18.0869 18.1081 18.3096C17.8972 18.5791 17.569 18.5557 17.3112 18.333L16.4089 17.583C15.6003 18.5674 14.4636 19.2119 13.0925 19.3877C12.6472 19.4228 12.4128 19.2705 12.4128 18.9307V11.4424C12.4128 11.208 12.2253 11.0322 11.9909 11.0322ZM8.1355 12.3096C8.1355 12.8486 8.59253 13.3174 9.14331 13.3174C9.68237 13.3174 10.1276 12.8486 10.1276 12.3096C10.1276 11.7705 9.68237 11.3135 9.14331 11.3135C8.59253 11.3135 8.1355 11.7705 8.1355 12.3096ZM8.14722 15.6963C8.14722 16.3174 8.66284 16.8213 9.28393 16.8213C9.89331 16.8213 10.4323 16.3174 10.4323 15.6963C10.4323 15.0752 9.89331 14.5596 9.28393 14.5596C8.66284 14.5596 8.14722 15.0752 8.14722 15.6963ZM15.8464 12.3096C15.8464 11.7705 15.3894 11.3135 14.8386 11.3135C14.2995 11.3135 13.8425 11.7705 13.8425 12.3096C13.8425 12.8486 14.2995 13.3174 14.8386 13.3174C15.3894 13.3174 15.8464 12.8486 15.8464 12.3096ZM15.823 15.6963C15.823 15.0752 15.319 14.5596 14.6862 14.5596C14.0886 14.5596 13.5495 15.0752 13.5495 15.6963C13.5495 16.3174 14.0886 16.8213 14.6862 16.8213C15.319 16.8213 15.823 16.3174 15.823 15.6963Z" fill="white"/>
</g>
<defs>
<clipPath id="clip0_2207_18175">
<rect width="23.9062" height="23.918" fill="white" transform="translate(0.0378418 0.0869141)"/>
</clipPath>
</defs>
</svg>
