<svg width="24" height="25" viewBox="0 0 24 25" fill="none" xmlns="http://www.w3.org/2000/svg">
<g clip-path="url(#clip0_2207_18170)">
<path d="M11.9887 23.9931C18.5278 23.9931 23.9418 18.5674 23.9418 12.04C23.9418 5.50097 18.5161 0.0869141 11.977 0.0869141C5.4497 0.0869141 0.0356445 5.50097 0.0356445 12.04C0.0356445 18.5674 5.46142 23.9931 11.9887 23.9931ZM11.9887 22.001C6.45752 22.001 2.03955 17.5713 2.03955 12.04C2.03955 6.50879 6.4458 2.0791 11.977 2.0791C17.5083 2.0791 21.9497 6.50879 21.9497 12.04C21.9497 17.5713 17.52 22.001 11.9887 22.001Z" fill="black" fill-opacity="0.85"/>
<path d="M11.977 9.16894C13.0668 9.16894 14.1215 8.96972 14.8247 8.65332C15.2348 8.46582 15.3637 8.208 15.3637 7.85644C15.3637 7.02441 14.895 6.28613 14.0629 5.84082L14.0395 5.66503C14.0044 5.43066 14.0747 5.29003 14.3559 5.208L14.8012 5.04394C15.434 4.87988 15.1176 3.90722 14.4731 4.12988L13.9575 4.34082C13.4067 4.54003 13.0786 4.90332 13.102 5.40722L13.1137 5.47753C12.7622 5.38379 12.3754 5.33691 11.977 5.33691C11.5786 5.33691 11.2036 5.38379 10.852 5.47753V5.40722C10.8754 4.91503 10.5473 4.54003 9.99658 4.34082L9.48095 4.12988C8.83642 3.90722 8.52002 4.87988 9.15283 5.04394L9.59814 5.208C9.87939 5.29003 9.96142 5.43066 9.91455 5.66503L9.89111 5.84082C9.05908 6.28613 8.59033 7.02441 8.59033 7.85644C8.59033 8.208 8.73095 8.46582 9.12939 8.65332C9.83252 8.96972 10.8872 9.16894 11.977 9.16894ZM11.977 11.0322C12.2114 11.0322 12.3872 11.208 12.3872 11.4307V18.6963C12.3872 19.0244 12.6098 19.1767 13.0434 19.1299C14.3794 18.9658 15.4809 18.333 16.2661 17.3955L17.145 18.1221C17.3911 18.333 17.7075 18.3447 17.9067 18.0986C18.1059 17.8642 18.0356 17.5478 17.7895 17.3486L16.8403 16.54C17.2856 15.7197 17.5434 14.7236 17.5668 13.6221H18.6801C19.0083 13.6221 19.2075 13.4228 19.2075 13.1181C19.2075 12.8252 19.0083 12.626 18.6801 12.626L17.5083 12.6142C17.4028 11.7705 17.145 10.8916 16.7817 10.2119L17.7661 9.37988C18.0122 9.16894 18.0825 8.85253 17.8833 8.60644C17.684 8.36035 17.3794 8.38379 17.1215 8.60644L16.1489 9.42675C15.7973 9.13379 15.5629 9.12207 15.352 9.21582C14.4028 9.63769 13.1958 9.90722 11.977 9.90722C10.7583 9.90722 9.55126 9.63769 8.61376 9.21582C8.39111 9.12207 8.15673 9.13379 7.80517 9.42675L6.83252 8.60644C6.5747 8.38379 6.27002 8.37207 6.0708 8.60644C5.87158 8.85253 5.94189 9.18066 6.18798 9.37988L7.18408 10.2119C6.80908 10.8916 6.55126 11.7705 6.4458 12.6142L5.28564 12.626C4.9458 12.626 4.74658 12.8252 4.74658 13.1181C4.74658 13.4228 4.9458 13.6221 5.28564 13.6221H6.3872C6.41064 14.7236 6.66845 15.7197 7.11376 16.54L6.16455 17.3486C5.91845 17.5478 5.84814 17.8642 6.04736 18.0986C6.24658 18.3447 6.56298 18.333 6.80908 18.1221L7.68798 17.3955C8.47314 18.333 9.5747 18.9658 10.9106 19.1299C11.3442 19.1767 11.5668 19.0244 11.5668 18.6963V11.4307C11.5668 11.208 11.7426 11.0322 11.977 11.0322ZM8.23876 12.2744C8.23876 11.7471 8.68408 11.3017 9.21142 11.3017C9.73876 11.3017 10.184 11.7588 10.184 12.2744C10.184 12.8017 9.73876 13.2471 9.21142 13.2471C8.68408 13.2471 8.23876 12.8017 8.23876 12.2744ZM8.2622 15.5557C8.2622 14.958 8.75439 14.4541 9.36376 14.4541C9.9497 14.4541 10.4653 14.958 10.4653 15.5557C10.4653 16.165 9.9497 16.6572 9.36376 16.6572C8.75439 16.6572 8.2622 16.165 8.2622 15.5557ZM15.7153 12.2744C15.7153 12.8017 15.2817 13.2471 14.7544 13.2471C14.2153 13.2471 13.7817 12.8017 13.7817 12.2744C13.7817 11.7588 14.2153 11.3017 14.7544 11.3017C15.2817 11.3017 15.7153 11.7471 15.7153 12.2744ZM15.7036 15.5557C15.7036 16.165 15.1997 16.6572 14.602 16.6572C14.0044 16.6572 13.4887 16.165 13.4887 15.5557C13.4887 14.958 14.0044 14.4541 14.602 14.4541C15.1997 14.4541 15.7036 14.958 15.7036 15.5557Z" fill="black" fill-opacity="0.85"/>
</g>
<defs>
<clipPath id="clip0_2207_18170">
<rect width="23.9062" height="23.918" fill="white" transform="translate(0.0356445 0.0869141)"/>
</clipPath>
</defs>
</svg>
