<svg width="27" height="28" viewBox="0 0 27 28" fill="none" xmlns="http://www.w3.org/2000/svg">
<g clip-path="url(#clip0_2207_18159)">
<path d="M13.3109 27.8722C19.4984 27.8722 23.6117 23.6534 23.6117 17.2901C23.6117 13.7745 22.0531 10.1768 19.5688 7.99717C19.5453 4.75107 17.0727 2.79404 13.3109 2.79404C9.54919 2.79404 7.08826 4.76278 7.06482 8.00888C4.58045 10.1886 3.02185 13.7276 3.02185 17.2901C3.02185 23.6534 7.13513 27.8722 13.3109 27.8722ZM13.3109 10.7862C15.3852 10.7862 17.4359 10.3878 18.7719 9.79013C20.225 11.3018 21.7719 13.962 21.7719 17.2901C21.7719 22.5401 18.3852 26.044 13.3109 26.044C8.23669 26.044 4.84998 22.5401 4.84998 17.2901C4.84998 13.9737 6.38513 11.3253 7.86169 9.79013C9.19763 10.3878 11.2484 10.7862 13.3109 10.7862ZM12.5024 26.5597H14.0375V12.9893C14.0375 12.5675 13.6859 12.2276 13.2641 12.2276C12.8422 12.2276 12.5024 12.5675 12.5024 12.9893V26.5597ZM9.57263 14.8878C10.393 14.8878 11.0492 14.2081 11.0492 13.3995C11.0492 12.5909 10.393 11.9229 9.57263 11.9229C8.76404 11.9229 8.10779 12.5909 8.10779 13.3995C8.10779 14.2081 8.76404 14.8878 9.57263 14.8878ZM8.1781 19.5284C9.1156 19.5284 9.88904 18.755 9.88904 17.8058C9.88904 16.8565 9.1156 16.0831 8.1781 16.0831C7.21716 16.0831 6.44373 16.8565 6.44373 17.8058C6.44373 18.755 7.21716 19.5284 8.1781 19.5284ZM9.57263 23.5362C10.3344 23.5362 10.9438 22.9268 10.9438 22.1768C10.9438 21.4151 10.3344 20.8058 9.57263 20.8058C8.82263 20.8058 8.21326 21.4151 8.21326 22.1768C8.21326 22.9268 8.82263 23.5362 9.57263 23.5362ZM17.0609 14.8878C17.8695 14.8878 18.5258 14.2081 18.5258 13.3995C18.5258 12.5909 17.8695 11.9229 17.0609 11.9229C16.2406 11.9229 15.5844 12.5909 15.5844 13.3995C15.5844 14.2081 16.2406 14.8878 17.0609 14.8878ZM18.4555 19.5284C19.4047 19.5284 20.1898 18.755 20.1898 17.8058C20.1898 16.8565 19.4047 16.0831 18.4555 16.0831C17.518 16.0831 16.7328 16.8565 16.7328 17.8058C16.7328 18.755 17.518 19.5284 18.4555 19.5284ZM17.0609 23.5362C17.8109 23.5362 18.4203 22.9268 18.4203 22.1768C18.4203 21.4151 17.8109 20.8058 17.0609 20.8058C16.2992 20.8058 15.6898 21.4151 15.6898 22.1768C15.6898 22.9268 16.2992 23.5362 17.0609 23.5362ZM8.15466 2.03232L8.95154 2.32529C9.45545 2.50107 9.65466 2.7706 9.56091 3.19248L9.42029 3.77842L11.143 3.7667L11.225 3.16904C11.3539 2.03232 10.8266 1.18857 9.66638 0.778411L8.7406 0.403411C7.58045 0.00497404 7.02966 1.7042 8.15466 2.03232ZM18.4789 2.03232C19.6039 1.7042 19.0531 0.00497404 17.893 0.403411L16.9672 0.778411C15.807 1.18857 15.2797 2.03232 15.4086 3.16904L15.4906 3.7667L17.2133 3.77842L17.0727 3.19248C16.9789 2.7706 17.1781 2.50107 17.682 2.32529L18.4789 2.03232ZM6.01013 10.1768L3.83045 8.32529C3.39685 7.96201 2.83435 7.91513 2.47107 8.34873C2.11951 8.7706 2.24841 9.34482 2.68201 9.69639L4.89685 11.5597L6.01013 10.1768ZM3.87732 15.7081L0.994507 15.7198C0.408569 15.7198 0.0335693 16.0831 0.0335693 16.6104C0.0335693 17.1495 0.408569 17.5128 1.00623 17.5128L3.87732 17.5011V15.7081ZM4.82654 22.5636L2.63513 24.4034C2.21326 24.755 2.08435 25.3175 2.43591 25.7511C2.79919 26.1847 3.34998 26.1378 3.79529 25.7745L5.95154 23.9464L4.82654 22.5636ZM20.6117 10.1768L21.7367 11.5597L23.9516 9.69639C24.3734 9.34482 24.5141 8.7706 24.1625 8.34873C23.7992 7.91513 23.2367 7.96201 22.8031 8.32529L20.6117 10.1768ZM22.7563 15.7081V17.5011L25.6274 17.5128C26.2133 17.5128 26.6 17.1495 26.6 16.6104C26.6 16.0831 26.2133 15.7198 25.6391 15.7198L22.7563 15.7081ZM21.7953 22.5636L20.6703 23.9347L22.8383 25.7745C23.2719 26.1378 23.8344 26.1847 24.1977 25.7511C24.5492 25.3175 24.4203 24.755 23.9867 24.4034L21.7953 22.5636Z" fill="black" fill-opacity="0.85"/>
</g>
<defs>
<clipPath id="clip0_2207_18159">
<rect width="26.5664" height="27.7852" fill="white" transform="translate(0.0335693 0.0869141)"/>
</clipPath>
</defs>
</svg>
