<svg width="19" height="29" viewBox="0 0 19 29" fill="none" xmlns="http://www.w3.org/2000/svg">
<g clip-path="url(#clip0_2207_11052)">
<path d="M9.11485 13.9385C11.6812 13.9385 14.2476 13.7744 16.357 13.458C17.9859 13.2236 18.5836 11.9814 17.8804 10.3642L14.4 2.52441C13.6734 0.87207 12.4664 0.0869141 10.6265 0.0869141H7.59141C5.76329 0.0869141 4.55625 0.87207 3.82969 2.52441L0.349223 10.3642C-0.353902 11.9814 0.232035 13.2236 1.87266 13.458C3.97032 13.7744 6.53672 13.9385 9.11485 13.9385ZM9.11485 12.2158C6.98204 12.2158 4.86094 12.0986 2.52891 11.8291C1.87266 11.7588 1.76719 11.3721 2.04844 10.7392L5.37657 3.22753C5.81016 2.25488 6.525 1.79785 7.59141 1.79785H10.6265C11.6929 1.79785 12.4195 2.25488 12.8531 3.22753L16.1812 10.7392C16.4625 11.3721 16.3453 11.7588 15.7007 11.8291C13.3687 12.0986 11.2359 12.2158 9.11485 12.2158ZM8.13047 15.6846H10.0875V13.4228H8.13047V15.6846ZM7.31016 28.4463H10.9078C13.9312 28.4463 15.7125 26.8877 15.7125 24.251C15.7125 22.5986 15.1968 20.1377 14.2945 17.6533C13.7672 16.2119 12.6304 15.3681 11.0132 15.3681H7.20469C5.5875 15.3681 4.45079 16.2119 3.92344 17.6533C3.03282 20.1377 2.50547 22.5986 2.50547 24.251C2.50547 26.8877 4.28672 28.4463 7.31016 28.4463ZM7.31016 26.7353C5.35313 26.7353 4.20469 25.8096 4.20469 24.251C4.20469 22.7744 4.69688 20.5361 5.51719 18.2392C5.775 17.5127 6.32579 17.0791 7.20469 17.0791H11.0132C11.8922 17.0791 12.4429 17.5127 12.7007 18.2392C13.5211 20.5361 14.0132 22.7744 14.0132 24.251C14.0132 25.8096 12.8648 26.7353 10.9078 26.7353H7.31016Z" fill="black" fill-opacity="0.85"/>
</g>
<defs>
<clipPath id="clip0_2207_11052">
<rect width="18.1144" height="28.3711" fill="white" transform="translate(0.0566406 0.0869141)"/>
</clipPath>
</defs>
</svg>
