<svg width="23" height="29" viewBox="0 0 23 29" fill="none" xmlns="http://www.w3.org/2000/svg">
<g clip-path="url(#clip0_2207_11044)">
<path d="M12.7045 15.3096L21.8217 6.19238C22.9467 5.0791 22.4077 3.47363 21.0131 3.04003C18.6225 2.2666 16.0913 2.05566 13.2085 2.21972L12.8452 1.833C11.5561 0.473633 9.65772 0.426758 8.28662 1.77441C6.93896 3.15722 6.98584 5.10253 8.34522 6.34472L8.73193 6.708C8.56787 9.5791 8.77881 12.0869 9.52881 14.4892C9.97412 15.9072 11.5795 16.4463 12.7045 15.3096ZM11.5444 14.1377C11.3569 14.3252 11.1928 14.3017 11.0288 13.7627C10.3842 11.7119 10.2085 9.41503 10.4077 6.61425C10.4311 6.22753 10.2671 5.85253 9.97412 5.59472L9.4585 5.12597C8.80225 4.5166 8.76709 3.66113 9.4585 2.93457C10.185 2.24316 11.0288 2.2666 11.6499 2.94629L12.1186 3.46191C12.3881 3.75488 12.7866 3.91894 13.1967 3.88379C15.9389 3.708 18.2475 3.88379 20.2983 4.54003C20.8022 4.7041 20.8256 4.85644 20.6616 5.0205L11.5444 14.1377ZM16.7124 14.126C18.8686 14.126 20.6381 12.3681 20.6381 10.2236C20.6381 9.2041 20.2397 8.21972 19.4897 7.458L18.6342 9.09863C18.8569 9.42675 18.9741 9.81347 18.9741 10.2236C18.9741 11.4658 17.9428 12.4736 16.7124 12.4736C16.3022 12.4736 15.9038 12.3564 15.5756 12.1455L14.0874 13.1299C14.8139 13.7978 15.7514 14.126 16.7124 14.126ZM8.38037 3.12207L9.5874 1.833L8.15772 0.415039C7.80615 0.0634766 7.26709 0.0634766 6.91553 0.415039C6.57568 0.754883 6.56396 1.29394 6.91553 1.6455L8.38037 3.12207ZM2.26318 16.3642L9.68115 9.54394L9.15381 7.48144L0.98584 14.9931L2.26318 16.3642ZM1.87646 17.2666C2.896 17.2666 3.70459 16.4697 3.70459 15.4385C3.70459 14.4189 2.896 13.6103 1.87646 13.6103C0.845215 13.6103 0.0483398 14.4189 0.0483398 15.4385C0.0483398 16.4697 0.845215 17.2666 1.87646 17.2666ZM6.63428 21.4267L7.97022 20.0908L2.146 14.3017L0.821778 15.626L6.63428 21.4267ZM6.98584 22.6455C8.01709 22.6455 8.81396 21.8955 8.81396 20.8174C8.81396 19.7978 7.99365 18.9892 6.98584 18.9892C5.95459 18.9892 5.15772 19.7978 5.15772 20.8174C5.15772 21.8486 5.95459 22.6455 6.98584 22.6455ZM6.03662 26.5244H7.92334V20.8642H6.03662V26.5244ZM1.396 28.1767H13.8647C14.2983 28.1767 14.5913 27.8603 14.5913 27.4033C14.5913 26.5244 13.8295 25.9033 12.646 25.9033H2.61475C1.43115 25.9033 0.669434 26.5244 0.669434 27.4033C0.669434 27.8603 0.962402 28.1767 1.396 28.1767Z" fill="black" fill-opacity="0.85"/>
</g>
<defs>
<clipPath id="clip0_2207_11044">
<rect width="22.3797" height="28.0898" fill="white" transform="translate(0.0483398 0.0869141)"/>
</clipPath>
</defs>
</svg>
