<svg width="23" height="28" viewBox="0 0 23 28" fill="none" xmlns="http://www.w3.org/2000/svg">
<g clip-path="url(#clip0_2207_11068)">
<path d="M11.3508 6.77832C14.2102 6.77832 16.6008 5.12597 17.0578 2.72363C17.2336 1.75097 16.7531 1.02441 15.7922 0.754883C13.0266 0.0283203 9.67501 0.0283203 6.9211 0.754883C5.96016 1.02441 5.47969 1.75097 5.65547 2.72363C6.11251 5.12597 8.49141 6.77832 11.3508 6.77832ZM11.3508 5.24316C9.18282 5.24316 7.46016 4.05957 7.16719 2.41894C7.15547 2.33691 7.21407 2.2666 7.31954 2.23144C9.83907 1.56347 12.8742 1.56347 15.382 2.23144C15.4992 2.2666 15.5578 2.33691 15.5461 2.41894C15.2531 4.05957 13.5305 5.24316 11.3508 5.24316ZM10.4133 11.5361H12.3V5.84082H10.4133V11.5361ZM11.3391 27.8252C18.1477 27.8252 22.6711 25.7744 22.636 22.7275C22.636 19.6572 19.8352 15.8486 16.3195 14.126C15.675 11.9111 13.636 10.376 11.3391 10.376C9.04219 10.376 7.00313 11.9111 6.3586 14.126C2.84297 15.8486 0.0421957 19.6572 0.0421957 22.7275C0.00703939 25.7744 4.53047 27.8252 11.3391 27.8252ZM11.3391 26.1846C5.55001 26.1846 1.69454 24.8252 1.68282 22.7275C1.69454 20.0205 4.56563 16.5752 7.82344 15.2744C8.03438 13.3994 9.53438 12.04 11.3391 12.04C13.1438 12.04 14.6438 13.3994 14.8547 15.2744C18.0774 16.5517 20.9836 19.9971 20.9953 22.7275C20.9836 24.8252 17.1399 26.1846 11.3391 26.1846ZM11.3391 19.2588C17.1399 19.2588 20.9836 20.6181 20.9953 22.7275H22.636C22.6711 19.6807 18.1477 17.6181 11.3391 17.6181C4.53047 17.6181 0.00703939 19.6807 0.0421957 22.7275H1.68282C1.69454 20.6181 5.55001 19.2588 11.3391 19.2588ZM11.3391 23.6064C13.4602 23.6064 15.511 22.2939 15.511 20.7002C14.3039 20.5127 12.886 20.3955 11.3391 20.3955C9.79219 20.3955 8.37422 20.5127 7.16719 20.7002C7.16719 22.2939 9.21797 23.6064 11.3391 23.6064Z" fill="black" fill-opacity="0.85"/>
</g>
<defs>
<clipPath id="clip0_2207_11068">
<rect width="22.5942" height="27.7383" fill="white" transform="translate(0.0419922 0.0869141)"/>
</clipPath>
</defs>
</svg>
