<svg width="23" height="28" viewBox="0 0 23 28" fill="none" xmlns="http://www.w3.org/2000/svg">
<g clip-path="url(#clip0_2207_11072)">
<path d="M11.0949 6.26269C13.8605 6.26269 16.1339 4.68066 16.5675 2.3955C16.7199 1.55175 16.3214 0.930664 15.4894 0.708008C12.9933 0.040039 9.19641 0.040039 6.71204 0.708008C5.88001 0.930664 5.48157 1.55175 5.63391 2.3955C6.06751 4.68066 8.32923 6.26269 11.0949 6.26269ZM10.1574 12.8135H12.0441V5.55957H10.1574V12.8135ZM11.0949 17.1846C15.4308 17.1846 19.1105 17.9814 21.3488 19.3994C20.2941 17.2666 18.2785 15.1924 15.8996 14.0205C15.2199 11.7471 13.2746 10.3291 11.0949 10.3291C8.91516 10.3291 6.96985 11.7471 6.29016 14.0205C3.91126 15.1924 1.89563 17.2666 0.840942 19.3994C3.07923 17.9814 6.75891 17.1846 11.0949 17.1846ZM11.0949 27.3096C17.7277 27.3096 22.1457 25.4697 22.1457 22.7158C22.1457 20.1963 16.8371 18.6611 11.0949 18.6611C5.35266 18.6611 0.0440674 20.1728 0.0440674 22.7158C0.0440674 25.4697 4.46204 27.3096 11.0949 27.3096ZM11.0949 23.5596C8.89173 23.5596 6.96985 22.2588 6.89954 20.5596C8.17688 20.3486 9.60657 20.2197 11.0949 20.2197C12.5714 20.2197 14.0129 20.3486 15.2902 20.5596C15.2082 22.2588 13.3332 23.5596 11.0949 23.5596Z" fill="black" fill-opacity="0.85"/>
</g>
<defs>
<clipPath id="clip0_2207_11072">
<rect width="22.1016" height="27.2227" fill="white" transform="translate(0.0440674 0.0869141)"/>
</clipPath>
</defs>
</svg>
