<svg width="19" height="26" viewBox="0 0 19 26" fill="none" xmlns="http://www.w3.org/2000/svg">
<g clip-path="url(#clip0_2207_2142)">
<path d="M0.0651855 21.5439C0.0651855 23.9931 1.27222 25.2119 3.698 25.2119H14.655C17.0691 25.2119 18.2761 23.9931 18.2761 21.5439V3.7666C18.2761 1.3291 17.0691 0.0869141 14.655 0.0869141H3.698C1.27222 0.0869141 0.0651855 1.3291 0.0651855 3.7666V21.5439ZM6.17066 4.1416C5.73707 4.1416 5.37378 3.79003 5.37378 3.35644C5.37378 2.92285 5.73707 2.57129 6.17066 2.57129H12.1707C12.616 2.57129 12.9675 2.92285 12.9675 3.35644C12.9675 3.79003 12.616 4.1416 12.1707 4.1416H6.17066Z" fill="black" fill-opacity="0.85"/>
</g>
<defs>
<clipPath id="clip0_2207_2142">
<rect width="18.2109" height="25.1367" fill="white" transform="translate(0.0651855 0.0869141)"/>
</clipPath>
</defs>
</svg>
