<svg width="25" height="27" viewBox="0 0 25 27" fill="none" xmlns="http://www.w3.org/2000/svg">
<g clip-path="url(#clip0_2207_254)">
<path d="M0.0881348 13.2939C0.0881348 18.6728 4.70532 21.6963 10.4709 21.6963C11.01 21.6963 11.5608 21.6728 12.0998 21.626L11.6897 19.9033C11.3147 19.9267 10.9514 19.9385 10.5881 19.9385C5.8186 19.9385 1.85766 17.7353 1.85766 13.3057C1.85766 8.19629 7.71704 4.61035 13.3303 4.61035C18.2404 4.61035 22.4709 7.65722 22.4709 12.2861C22.4709 16.5517 17.8772 20.208 13.5295 20.208C12.6975 20.208 12.0881 19.8799 12.0881 19.3174C12.0881 18.333 13.4475 17.6767 15.1467 17.6767C17.1623 17.6767 18.6975 19.1533 18.6975 21.1807C18.6975 22.5869 17.9006 23.958 16.5998 24.79C16.26 25.0361 16.0022 25.2822 16.0022 25.7041C16.0022 26.1377 16.3537 26.5127 16.9162 26.5127C17.1623 26.5127 17.3147 26.4424 17.549 26.3017C19.342 25.1299 20.467 23.1728 20.467 21.1455C20.467 18.1455 18.0647 15.8955 15.0178 15.8955C12.3225 15.8955 10.3069 17.3017 10.3069 19.376C10.3069 20.9463 11.6076 21.9658 13.5295 21.9658C18.8264 21.9658 24.2404 17.5713 24.2404 12.2978C24.2404 6.71972 19.26 2.84082 13.3186 2.84082C6.81469 2.84082 0.0881348 7.10644 0.0881348 13.2939Z" fill="black" fill-opacity="0.85"/>
</g>
<defs>
<clipPath id="clip0_2207_254">
<rect width="24.1523" height="26.4258" fill="white" transform="translate(0.0881348 0.0869141)"/>
</clipPath>
</defs>
</svg>
