<svg width="28" height="23" viewBox="0 0 28 23" fill="none" xmlns="http://www.w3.org/2000/svg">
<g clip-path="url(#clip0_2207_10687)">
<path d="M0.0944824 11.7588V9.98925H5.06323V9.68457C5.06323 8.86425 5.53198 8.3955 6.35229 8.3955H9.25854C10.0906 8.3955 10.5593 8.86425 10.5593 9.68457V9.98925H16.7468V9.68457C16.7468 8.86425 17.2156 8.3955 18.0476 8.3955H20.9539C21.7859 8.3955 22.2547 8.86425 22.2547 9.68457V9.98925H27.2234V11.7588H22.2547V12.0869C22.2547 12.9072 21.7859 13.3642 20.9539 13.3642H18.0476C17.2156 13.3642 16.7468 12.9072 16.7468 12.0869V11.7588H10.5593V12.0869C10.5593 12.9072 10.0906 13.3642 9.25854 13.3642H6.35229C5.53198 13.3642 5.06323 12.9072 5.06323 12.0869V11.7588H0.0944824ZM3.71557 22.7978H23.6023C26.0281 22.7978 27.2234 21.626 27.2234 19.2236V7.82129C27.2234 5.41894 26.0281 4.24707 23.6023 4.24707H3.71557C1.30151 4.24707 0.0944824 5.41894 0.0944824 7.82129V19.2236C0.0944824 21.626 1.30151 22.7978 3.71557 22.7978ZM7.71167 5.2666H9.52807V3.19238C9.52807 2.30175 10.0554 1.79785 10.9695 1.79785H16.3484C17.2625 1.79785 17.7781 2.30175 17.7781 3.19238V5.24316H19.5945V3.32129C19.5945 1.11816 18.4343 0.0869141 16.3133 0.0869141H10.9929C8.98901 0.0869141 7.71167 1.11816 7.71167 3.32129V5.2666Z" fill="black" fill-opacity="0.85"/>
</g>
<defs>
<clipPath id="clip0_2207_10687">
<rect width="27.1289" height="22.7227" fill="white" transform="translate(0.0944824 0.0869141)"/>
</clipPath>
</defs>
</svg>
