<svg width="13" height="26" viewBox="0 0 13 26" fill="none" xmlns="http://www.w3.org/2000/svg">
<g clip-path="url(#clip0_2207_18247)">
<path d="M8.34384 23.6583C7.66416 23.5997 6.82041 23.7872 6.24619 24.1388C6.00009 24.2794 5.96494 24.5021 6.17588 24.6896C6.70322 25.17 7.51181 25.5333 8.20322 25.5802C8.91806 25.6739 9.77353 25.4513 10.3478 25.0177C10.5353 24.8888 10.547 24.6896 10.3712 24.5255C9.85556 24.045 9.04697 23.7052 8.34384 23.6583ZM10.8048 19.6974C10.4298 20.2716 10.2189 21.1153 10.2423 21.795C10.2892 22.5099 10.6173 23.3302 11.0743 23.8341C11.2267 24.0099 11.4142 24.0099 11.5665 23.8224C12.0236 23.2833 12.2696 22.4278 12.1993 21.7013C12.1525 21.0216 11.8126 20.213 11.3439 19.6739C11.1681 19.463 10.9571 19.4747 10.8048 19.6974ZM5.03916 20.4825C4.39463 20.2482 3.51572 20.2247 2.85947 20.4239C2.60166 20.506 2.53134 20.7052 2.67197 20.9396C3.05869 21.5372 3.75009 22.088 4.39463 22.3224C5.05088 22.5919 5.9415 22.5919 6.60947 22.3107C6.83213 22.2286 6.89072 22.0528 6.76181 21.8419C6.38681 21.2442 5.69541 20.7052 5.03916 20.4825ZM8.41416 17.295C7.91025 17.7521 7.47666 18.5021 7.34775 19.17C7.19541 19.8732 7.30088 20.7521 7.61728 21.3497C7.71103 21.5724 7.89853 21.6075 8.09775 21.4669C8.66025 21.0567 9.11728 20.295 9.23447 19.5685C9.37509 18.9005 9.25791 18.0216 8.9415 17.3888C8.83603 17.131 8.61338 17.0958 8.41416 17.295ZM0.105563 15.9474C0.199313 16.6271 0.609469 17.4239 1.11338 17.9161C1.60556 18.4317 2.41416 18.7833 3.14072 18.8067C3.37509 18.8185 3.504 18.6661 3.46884 18.4317C3.35166 17.7169 2.9415 16.9552 2.43759 16.4982C1.93369 16.0177 1.16025 15.6427 0.480563 15.5607C0.199313 15.5255 0.0586875 15.6778 0.105563 15.9474ZM6.82041 14.9396C6.17588 15.1622 5.48447 15.6778 5.08603 16.2286C4.66416 16.7794 4.41806 17.6114 4.4415 18.338C4.46494 18.5607 4.61728 18.6778 4.85166 18.6427C5.55478 18.4786 6.29306 17.9747 6.66806 17.3653C7.05478 16.7677 7.31259 15.9357 7.26572 15.2442C7.26572 14.963 7.08994 14.8458 6.82041 14.9396ZM4.86338 12.1974C4.31259 12.6427 3.85556 13.3927 3.71494 14.0841C3.67978 14.295 3.79697 14.4591 4.01963 14.4708C4.74619 14.4942 5.57822 14.1778 6.10556 13.7091C6.63291 13.2521 7.10166 12.4903 7.254 11.8107C7.28916 11.5528 7.14853 11.3771 6.89072 11.3888C6.18759 11.4474 5.379 11.7521 4.86338 12.1974ZM0.117281 10.6622C0.0469688 11.3536 0.234469 12.2091 0.609469 12.8185C0.961032 13.4513 1.65244 14.0021 2.33213 14.1896C2.54306 14.2599 2.73056 14.1427 2.754 13.9083C2.82431 13.2403 2.62509 12.3849 2.25009 11.7755C1.87509 11.1896 1.20713 10.6271 0.586032 10.381C0.339938 10.2755 0.140719 10.381 0.117281 10.6622ZM5.50791 8.25988C4.83994 8.49426 4.14853 9.0216 3.77353 9.63098C3.64463 9.81848 3.71494 10.0177 3.92588 10.1114C4.59384 10.381 5.47275 10.381 6.14072 10.1114C6.82041 9.85363 7.52353 9.29113 7.86338 8.69348C8.004 8.48254 7.93369 8.28332 7.67588 8.20129C7.00791 8.01379 6.14072 8.02551 5.50791 8.25988ZM1.57041 5.18957C1.26572 5.8341 1.14853 6.70129 1.27744 7.38098C1.40634 8.09582 1.86338 8.84582 2.44931 9.26769C2.62509 9.40832 2.81259 9.34973 2.92978 9.13879C3.23447 8.52941 3.33994 7.66223 3.18759 6.97082C3.04697 6.29113 2.60166 5.54113 2.10947 5.07238C1.92197 4.90832 1.69931 4.95519 1.57041 5.18957ZM7.629 4.88488C6.93759 5.01379 6.17588 5.4591 5.74228 5.99816C5.60166 6.16223 5.63681 6.36144 5.82431 6.49035C6.44541 6.85363 7.32431 6.97082 8.01572 6.78332C8.70713 6.63098 9.46884 6.17394 9.91416 5.65832C10.0899 5.44738 10.0431 5.23644 9.79697 5.13098C9.17588 4.84973 8.32041 4.74426 7.629 4.88488ZM4.17197 1.27551C3.77353 1.87316 3.53916 2.72863 3.58603 3.40832C3.59775 4.12316 3.94931 4.93176 4.46494 5.44738C4.64072 5.61144 4.83994 5.58801 4.96884 5.40051C5.35556 4.80285 5.58994 3.94738 5.53134 3.26769C5.48447 2.59973 5.16806 1.80285 4.72275 1.25207C4.53525 1.04114 4.32431 1.06457 4.17197 1.27551ZM10.2189 0.0919174C9.53916 0.197386 8.76572 0.607542 8.27353 1.08801C7.78134 1.56848 7.39463 2.37707 7.31259 3.05676C7.28916 3.29113 7.41806 3.43176 7.65244 3.42004C8.36728 3.38488 9.16416 3.00988 9.65634 2.4591C10.1251 1.96691 10.5118 1.18176 10.6173 0.478636C10.6407 0.209105 10.5001 0.0567612 10.2189 0.0919174Z" fill="black" fill-opacity="0.85"/>
</g>
<defs>
<clipPath id="clip0_2207_18247">
<rect width="12.1145" height="25.592" fill="white" transform="translate(0.0966797 0.0869141)"/>
</clipPath>
</defs>
</svg>
