<svg width="28" height="21" viewBox="0 0 28 21" fill="none" xmlns="http://www.w3.org/2000/svg">
<g clip-path="url(#clip0_2207_20999)">
<path d="M9.83203 20.5254H17.2031C24 20.5254 27.0352 17.3965 27.0352 10.9981V3.63867C27.0352 1.2832 25.8164 0.0878906 23.4375 0.0878906H3.59766C1.21875 0.0878906 0 1.2832 0 3.63867V10.9981C0 17.3965 3.03516 20.5254 9.83203 20.5254ZM9.83203 18.6387C4.30078 18.6387 1.88672 16.2363 1.88672 11.1152V3.74414C1.88672 2.57227 2.49609 1.97461 3.64453 1.97461H23.3906C24.5156 1.97461 25.1484 2.57227 25.1484 3.74414V11.1152C25.1484 16.2363 22.7344 18.6387 17.1914 18.6387H9.83203Z" fill="black" fill-opacity="0.85"/>
<path d="M8.63672 15.0645H12.0117C12.3984 15.0645 12.7266 14.7363 12.7266 14.3496C12.7266 13.9629 12.3984 13.6348 12.0117 13.6348H9.50391V6.28711C9.50391 5.81836 9.11719 5.43164 8.64844 5.43164C8.19141 5.43164 7.80469 5.81836 7.80469 6.28711V14.1738C7.80469 14.7246 8.10938 15.0645 8.63672 15.0645ZM14.7773 15.0645H17.2617C18.9258 15.0645 19.875 13.9629 19.875 12.3926C19.875 11.2441 19.1836 10.2012 18.0703 10.084V10.0254C18.9727 9.87305 19.582 8.87695 19.582 7.95117C19.582 6.43945 18.5742 5.58398 17.1914 5.58398H14.7773C14.2266 5.58398 13.9336 5.9707 13.9336 6.47461V14.1738C13.9336 14.7129 14.2383 15.0645 14.7773 15.0645ZM15.6094 9.60351V6.88477H16.7109C17.5898 6.88477 17.9414 7.44727 17.9414 8.20898C17.9414 9.07617 17.4375 9.60351 16.5703 9.60351H15.6094ZM15.6094 13.7637V10.752H16.6992C17.5664 10.752 18.1523 11.2207 18.1523 12.252C18.1523 13.2012 17.6953 13.7637 16.7461 13.7637H15.6094Z" fill="black" fill-opacity="0.85"/>
</g>
<defs>
<clipPath id="clip0_2207_20999">
<rect width="27.0352" height="20.4492" fill="white" transform="translate(0 0.0878906)"/>
</clipPath>
</defs>
</svg>
