<svg width="28" height="21" viewBox="0 0 28 21" fill="none" xmlns="http://www.w3.org/2000/svg">
<g clip-path="url(#clip0_2207_21004)">
<path d="M9.83423 20.5254H17.2053C24.0022 20.5254 27.0374 17.3965 27.0374 10.9981V3.63867C27.0374 1.2832 25.8186 0.0878906 23.4397 0.0878906H3.59986C1.22095 0.0878906 0.00219727 1.2832 0.00219727 3.63867V10.9981C0.00219727 17.3965 3.03736 20.5254 9.83423 20.5254Z" fill="black" fill-opacity="0.85"/>
<path d="M8.68579 15.0176C8.15845 15.0176 7.85376 14.6895 7.85376 14.1387V6.33399C7.85376 5.86524 8.2522 5.47852 8.70923 5.47852C9.15454 5.47852 9.55298 5.86524 9.55298 6.33399V13.5996H12.0256C12.4124 13.5996 12.7405 13.916 12.7405 14.3145C12.7405 14.7012 12.4124 15.0176 12.0256 15.0176H8.68579ZM14.7795 15.0293C14.2405 15.0293 13.9358 14.6777 13.9358 14.1387V6.52149C13.9358 6.01759 14.2288 5.63087 14.7795 5.63087H17.1702C18.5413 5.63087 19.5374 6.48634 19.5374 7.97462C19.5374 8.88868 18.928 9.87306 18.0491 10.0254V10.0957C19.1506 10.2012 19.842 11.2441 19.842 12.3809C19.842 13.9277 18.8811 15.0293 17.2522 15.0293H14.7795ZM15.5999 9.61524H16.5491C17.4163 9.61524 17.9084 9.0879 17.9084 8.23243C17.9084 7.48243 17.5686 6.93165 16.6897 6.93165H15.5999V9.61524ZM15.5999 13.7402H16.7249C17.6624 13.7402 18.1194 13.1777 18.1194 12.2285C18.1194 11.2207 17.5334 10.7637 16.6897 10.7637H15.5999V13.7402Z" fill="white"/>
</g>
<defs>
<clipPath id="clip0_2207_21004">
<rect width="27.0352" height="20.4492" fill="white" transform="translate(0.00219727 0.0878906)"/>
</clipPath>
</defs>
</svg>
