<svg width="24" height="25" viewBox="0 0 24 25" fill="none" xmlns="http://www.w3.org/2000/svg">
<g clip-path="url(#clip0_2207_20685)">
<path d="M11.9573 23.9941C18.4964 23.9941 23.9104 18.5684 23.9104 12.041C23.9104 5.50195 18.4846 0.0878906 11.9455 0.0878906C5.41821 0.0878906 0.00415039 5.50195 0.00415039 12.041C0.00415039 18.5684 5.42993 23.9941 11.9573 23.9941ZM11.9573 22.002C6.42603 22.002 2.00806 17.5723 2.00806 12.041C2.00806 6.50977 6.41431 2.08008 11.9455 2.08008C17.4769 2.08008 21.9183 6.50977 21.9183 12.041C21.9183 17.5723 17.4886 22.002 11.9573 22.002Z" fill="black" fill-opacity="0.85"/>
<path d="M7.05884 16.7871H10.4338C10.8205 16.7871 11.1486 16.4707 11.1486 16.0723C11.1486 15.6856 10.8205 15.3691 10.4338 15.3691H7.92603V8.00978C7.92603 7.55274 7.53931 7.16602 7.08227 7.16602C6.61353 7.16602 6.22681 7.55274 6.22681 8.00978V15.9082C6.22681 16.459 6.53149 16.7871 7.05884 16.7871ZM13.1994 16.7988H15.6838C17.3479 16.7988 18.2971 15.6973 18.2971 14.1152C18.2971 12.9785 17.6057 11.9238 16.4924 11.8184V11.7598C17.3947 11.5957 18.0041 10.6113 18.0041 9.67384C18.0041 8.17384 16.9963 7.31837 15.6135 7.31837H13.1994C12.6486 7.31837 12.3557 7.69337 12.3557 8.20899V15.9082C12.3557 16.4473 12.6603 16.7988 13.1994 16.7988ZM14.0314 11.3379V8.61915H15.133C16.0119 8.61915 16.3635 9.18165 16.3635 9.94337C16.3635 10.8106 15.8596 11.3379 14.9924 11.3379H14.0314ZM14.0314 15.4981V12.4863H15.1213C15.9885 12.4863 16.5861 12.9434 16.5861 13.9863C16.5861 14.9238 16.1174 15.4981 15.1682 15.4981H14.0314Z" fill="black" fill-opacity="0.85"/>
</g>
<defs>
<clipPath id="clip0_2207_20685">
<rect width="23.9062" height="23.918" fill="white" transform="translate(0.00415039 0.0878906)"/>
</clipPath>
</defs>
</svg>
