<svg width="24" height="25" viewBox="0 0 24 25" fill="none" xmlns="http://www.w3.org/2000/svg">
<g clip-path="url(#clip0_2207_18237)">
<path d="M11.9677 23.9941C18.5068 23.9941 23.9208 18.5684 23.9208 12.041C23.9208 5.50195 18.4951 0.0878906 11.956 0.0878906C5.42871 0.0878906 0.0146484 5.50195 0.0146484 12.041C0.0146484 18.5684 5.44043 23.9941 11.9677 23.9941Z" fill="black" fill-opacity="0.85"/>
<path d="M6.08496 7.44735C6.15527 7.07235 6.4834 7.04891 6.71777 7.28328C7.51465 8.09188 8.49903 8.19735 9.37793 8.19735C10.1866 8.19735 11.1827 7.97469 12.0733 7.97469C14.6749 7.97469 16.538 9.25203 16.538 11.9122C16.538 12.1583 16.5264 12.4161 16.503 12.5802C16.4561 12.756 16.2451 12.8614 16.0576 12.6739C13.6904 10.5411 11.3584 11.9122 9.41309 10.213C9.20215 10.0489 9.01465 10.2013 9.08496 10.3771C10.0224 12.8263 13.6552 11.5255 16.0576 13.7286C16.6318 14.2442 17.7099 15.5685 17.7099 16.3185C17.7099 16.7989 17.3702 17.1505 16.9717 17.1505C16.7959 17.1505 16.5967 17.0568 16.5264 16.7989C16.2334 15.8614 15.9755 15.1818 15.5068 14.5607C14.9794 15.2286 13.8545 16.0138 12.0498 16.0138C8.33496 16.0138 5.90918 13.295 5.90918 9.21688C5.90918 8.72469 5.97949 7.99813 6.08496 7.44735Z" fill="white"/>
</g>
<defs>
<clipPath id="clip0_2207_18237">
<rect width="23.9062" height="23.918" fill="white" transform="translate(0.0146484 0.0878906)"/>
</clipPath>
</defs>
</svg>
