<svg width="25" height="23" viewBox="0 0 25 23" fill="none" xmlns="http://www.w3.org/2000/svg">
<g clip-path="url(#clip0_2207_18224)">
<path d="M0.00830078 5.37316C0.00830078 14.1153 5.24658 19.8575 13.3091 19.8575C18.9341 19.8575 22.9185 16.2247 22.9185 11.0919C22.9185 6.15831 18.8989 2.59581 13.356 2.59581C11.4458 2.59581 9.51221 3.13488 7.36768 3.13488C5.56299 3.13488 4.00439 2.58409 2.71533 1.11925C2.03564 0.322373 0.687989 0.25206 0.359863 1.59972C0.0786133 2.73644 0.00830078 4.74034 0.00830078 5.37316ZM1.77783 5.37316C1.77783 4.59972 1.78955 3.73253 1.89502 3.09972C1.91846 2.94738 2.00049 2.93566 2.10596 3.02941C3.41846 4.22472 5.48096 4.90441 7.36768 4.90441C8.6333 4.90441 9.78174 4.74034 10.813 4.59972C11.7505 4.47081 12.5708 4.36534 13.356 4.36534C17.9263 4.36534 21.1489 7.16612 21.1489 11.0919C21.1489 15.2286 17.9497 18.088 13.3091 18.088C6.24268 18.088 1.77783 13.1427 1.77783 5.37316ZM6.86377 8.10362C7.60205 10.3888 9.81689 11.3028 12.5825 11.9825C16.5552 12.9318 18.3716 13.7052 19.9653 15.6974C21.2661 17.3028 21.5825 19.2364 22.3091 21.5568C22.4849 22.1192 22.8716 22.3185 23.2817 22.3185C24.1489 22.3185 24.8403 21.5099 24.8403 20.5372C24.8403 18.92 23.0005 16.1192 21.77 14.4435C20.188 12.3458 17.481 11.1388 13.1802 10.4474C10.9536 10.0724 8.98486 9.48644 7.63721 7.72862C7.26221 7.22472 6.68799 7.57628 6.86377 8.10362Z" fill="black" fill-opacity="0.85"/>
</g>
<defs>
<clipPath id="clip0_2207_18224">
<rect width="24.832" height="22.2305" fill="white" transform="translate(0.00830078 0.0878906)"/>
</clipPath>
</defs>
</svg>
