<svg width="24" height="25" viewBox="0 0 24 25" fill="none" xmlns="http://www.w3.org/2000/svg">
<g clip-path="url(#clip0_2207_24802)">
<path d="M11.9741 23.9941C18.5132 23.9941 23.9272 18.5684 23.9272 12.041C23.9272 5.50195 18.5015 0.0878906 11.9624 0.0878906C5.43506 0.0878906 0.0209961 5.50195 0.0209961 12.041C0.0209961 18.5684 5.44678 23.9941 11.9741 23.9941ZM11.9741 22.002C6.44288 22.002 2.02491 17.5723 2.02491 12.041C2.02491 6.50977 6.43116 2.08008 11.9624 2.08008C17.4937 2.08008 21.9351 6.50977 21.9351 12.041C21.9351 17.5723 17.5054 22.002 11.9741 22.002Z" fill="black" fill-opacity="0.85"/>
<path d="M9.78271 17.2676H15.1851C15.6304 17.2676 15.9585 16.9746 15.9585 16.5059C15.9585 16.0254 15.6304 15.7324 15.1851 15.7324H10.7319V7.50586C10.7319 6.86133 10.4038 6.45117 9.78271 6.45117C9.18505 6.45117 8.85693 6.88477 8.85693 7.50586V16.2246C8.85693 16.8457 9.18505 17.2676 9.78271 17.2676Z" fill="black" fill-opacity="0.85"/>
</g>
<defs>
<clipPath id="clip0_2207_24802">
<rect width="23.9062" height="23.918" fill="white" transform="translate(0.0209961 0.0878906)"/>
</clipPath>
</defs>
</svg>
