<svg width="24" height="25" viewBox="0 0 24 25" fill="none" xmlns="http://www.w3.org/2000/svg">
<g clip-path="url(#clip0_2207_24807)">
<path d="M11.9763 23.9941C18.5154 23.9941 23.9294 18.5684 23.9294 12.041C23.9294 5.50195 18.5037 0.0878906 11.9646 0.0878906C5.43725 0.0878906 0.0231934 5.50195 0.0231934 12.041C0.0231934 18.5684 5.44897 23.9941 11.9763 23.9941Z" fill="black" fill-opacity="0.85"/>
<path d="M9.72631 17.4317C9.10522 17.4317 8.76538 16.9863 8.76538 16.3418V7.36523C8.76538 6.7207 9.10522 6.26367 9.72631 6.26367C10.3709 6.26367 10.7107 6.69727 10.7107 7.36523V15.8379H15.2927C15.7615 15.8379 16.1013 16.1426 16.1013 16.6348C16.1013 17.127 15.7615 17.4317 15.2927 17.4317H9.72631Z" fill="white"/>
</g>
<defs>
<clipPath id="clip0_2207_24807">
<rect width="23.9062" height="23.918" fill="white" transform="translate(0.0231934 0.0878906)"/>
</clipPath>
</defs>
</svg>
