<svg width="22" height="22" viewBox="0 0 22 22" fill="none" xmlns="http://www.w3.org/2000/svg">
<g clip-path="url(#clip0_2207_22963)">
<path d="M3.71118 21.6856H17.926C20.387 21.6856 21.6057 20.4668 21.6057 18.0527V3.74414C21.6057 1.33008 20.387 0.111328 17.926 0.111328H3.71118C1.26196 0.111328 0.0314941 1.31836 0.0314941 3.74414V18.0527C0.0314941 20.4785 1.26196 21.6856 3.71118 21.6856ZM3.73461 19.7988C2.56274 19.7988 1.91821 19.1777 1.91821 17.959V3.83789C1.91821 2.61914 2.56274 1.99805 3.73461 1.99805H17.9026C19.0627 1.99805 19.719 2.61914 19.719 3.83789V17.959C19.719 19.1777 19.0627 19.7988 17.9026 19.7988H3.73461Z" fill="black" fill-opacity="0.85"/>
<path d="M13.8479 15.6738C14.4104 15.6738 14.8206 15.2754 14.8206 14.7363C14.8206 14.291 14.6331 14.0332 14.1409 13.7988L8.19947 10.8809V10.8106L14.1409 7.82227C14.6213 7.58789 14.8206 7.30664 14.8206 6.87305C14.8206 6.3457 14.4221 5.94727 13.8713 5.94727C13.6253 5.94727 13.4729 5.99414 13.2854 6.08789L6.30103 9.84961C5.83228 10.1074 5.60962 10.4356 5.60962 10.8809C5.60962 11.3613 5.80884 11.6543 6.30103 11.9121L13.2854 15.5449C13.4612 15.627 13.6253 15.6738 13.8479 15.6738Z" fill="black" fill-opacity="0.85"/>
</g>
<defs>
<clipPath id="clip0_2207_22963">
<rect width="21.5742" height="21.5977" fill="white" transform="translate(0.0314941 0.0878906)"/>
</clipPath>
</defs>
</svg>
