<svg width="24" height="25" viewBox="0 0 24 25" fill="none" xmlns="http://www.w3.org/2000/svg">
<g clip-path="url(#clip0_2207_22953)">
<path d="M11.9804 23.9941C18.5195 23.9941 23.9335 18.5684 23.9335 12.041C23.9335 5.50195 18.5078 0.0878906 11.9687 0.0878906C5.4414 0.0878906 0.0273438 5.50195 0.0273438 12.041C0.0273438 18.5684 5.45312 23.9941 11.9804 23.9941ZM11.9804 22.002C6.44922 22.002 2.03125 17.5723 2.03125 12.041C2.03125 6.50977 6.4375 2.08008 11.9687 2.08008C17.5 2.08008 21.9414 6.50977 21.9414 12.041C21.9414 17.5723 17.5117 22.002 11.9804 22.002Z" fill="black" fill-opacity="0.85"/>
<path d="M14.9921 16.834C15.5546 16.834 15.9648 16.4356 15.9648 15.8965C15.9648 15.4512 15.7773 15.1934 15.2851 14.959L9.34376 12.041V11.9707L15.2851 8.98242C15.7656 8.74805 15.9648 8.4668 15.9648 8.0332C15.9648 7.50586 15.5664 7.10742 15.0156 7.10742C14.7578 7.10742 14.6171 7.1543 14.4296 7.24805L7.44532 11.0098C6.97657 11.2676 6.75391 11.5957 6.75391 12.041C6.75391 12.5215 6.95313 12.8145 7.44532 13.0723L14.4296 16.7051C14.6054 16.7871 14.7578 16.834 14.9921 16.834Z" fill="black" fill-opacity="0.85"/>
</g>
<defs>
<clipPath id="clip0_2207_22953">
<rect width="23.9062" height="23.918" fill="white" transform="translate(0.0273438 0.0878906)"/>
</clipPath>
</defs>
</svg>
