<svg width="30" height="20" viewBox="0 0 30 20" fill="none" xmlns="http://www.w3.org/2000/svg">
<g clip-path="url(#clip0_2207_17713)">
<path d="M3.71961 19.4356H26.0907C28.5516 19.4356 29.7704 18.2168 29.7704 15.8027V3.73242C29.7704 1.31836 28.5516 0.0996094 26.0907 0.0996094H3.71961C1.27039 0.0996094 0.039917 1.30664 0.039917 3.73242V15.8027C0.039917 18.2168 1.27039 19.4356 3.71961 19.4356ZM3.74304 17.5488C2.57117 17.5488 1.92664 16.916 1.92664 15.6973V3.82617C1.92664 2.60742 2.57117 1.98633 3.74304 1.98633H26.0672C27.2157 1.98633 27.8837 2.60742 27.8837 3.82617V15.6973C27.8837 16.916 27.2157 17.5488 26.0672 17.5488H3.74304Z" fill="black" fill-opacity="0.85"/>
<path d="M3.98914 13.6582C4.37586 13.6582 4.62195 13.4004 4.68054 13.0371L4.95008 11.7832H6.52039L6.7782 13.0488C6.84851 13.4356 7.08289 13.6582 7.48133 13.6582C7.86804 13.6582 8.13758 13.3652 8.13758 12.9785C8.13758 12.8731 8.12586 12.6973 8.10242 12.6035L6.71961 6.69727C6.61414 6.19336 6.2743 5.87695 5.70008 5.87695C5.20789 5.87695 4.86804 6.1582 4.73914 6.70898L3.36804 12.5918C3.34461 12.6973 3.30945 12.8613 3.30945 12.9785C3.30945 13.3652 3.54383 13.6582 3.98914 13.6582ZM5.10242 10.6934L5.72351 7.69336L6.35633 10.6934H5.10242ZM9.52039 13.6582C9.94226 13.6582 10.2001 13.4004 10.2001 12.9551V11.0918H10.9852C12.3094 11.0918 13.118 9.99023 13.118 8.54883C13.118 7.25977 12.4383 5.98242 11.079 5.98242H9.52039C9.07508 5.98242 8.85242 6.29883 8.85242 6.68555V12.9551C8.85242 13.4004 9.09851 13.6582 9.52039 13.6582ZM10.2001 10.0137V7.07227H10.7274C11.4891 7.07227 11.7469 7.77539 11.7469 8.54883C11.7469 9.33398 11.4657 10.0137 10.7274 10.0137H10.2001ZM15.8719 13.6348C16.2938 13.6348 16.5868 13.3184 16.5868 12.8965V6.65039C16.5868 6.2168 16.2587 5.88867 15.8133 5.88867C15.4969 5.88867 15.2391 6.01758 14.8993 6.28711L14.0438 7.03711C13.8563 7.20117 13.7274 7.40039 13.7274 7.58789C13.7274 7.9043 13.9735 8.13867 14.2782 8.13867C14.3954 8.13867 14.5477 8.08008 14.6415 8.00977L15.1922 7.55273V12.8965C15.1922 13.3184 15.4735 13.6348 15.8719 13.6348ZM18.1102 13.5527H20.8993C21.204 13.5527 21.4735 13.2715 21.4735 12.9434C21.4735 12.6035 21.204 12.3457 20.8993 12.3457H19.1415L20.2547 10.7051C20.8407 9.88477 21.368 8.99414 21.368 8.00977C21.368 6.7207 20.6415 5.81836 19.3993 5.81836C18.2157 5.81836 17.454 7.02539 17.454 7.86914C17.454 8.2207 17.6883 8.50195 18.0633 8.50195C18.4149 8.50195 18.6141 8.30273 18.7079 7.89258C18.8133 7.38867 18.9774 7.01367 19.3876 7.01367C19.8446 7.01367 20.0321 7.45898 20.0321 8.0332C20.0321 8.70117 19.6688 9.4043 19.1297 10.1895L17.7352 12.2637C17.5126 12.5801 17.4657 12.7559 17.4657 12.9317C17.4657 13.3184 17.7469 13.5527 18.1102 13.5527ZM24.1688 13.6934C25.4696 13.6934 26.3133 12.6973 26.3133 11.4082C26.3133 10.5879 25.9735 9.84961 25.329 9.5918C25.8094 9.26367 26.1258 8.5957 26.1258 7.91601C26.1258 6.86133 25.4813 5.8418 24.1219 5.8418C22.9969 5.8418 22.1532 6.69727 22.1532 7.77539C22.1532 8.12695 22.3993 8.38477 22.7508 8.38477C23.079 8.38477 23.3016 8.2207 23.4071 7.88086C23.536 7.35351 23.7469 7.02539 24.1219 7.02539C24.5555 7.02539 24.8016 7.41211 24.8016 8.02148C24.8016 8.57227 24.5672 9.11133 23.9696 9.11133H23.7587C23.4305 9.11133 23.1961 9.3457 23.1961 9.66211C23.1961 9.99023 23.4305 10.2363 23.7587 10.2363H23.9696C24.6727 10.2363 24.9422 10.6231 24.9422 11.3731C24.9422 12.041 24.7079 12.4863 24.1688 12.4863C23.7587 12.4863 23.4657 12.2168 23.3133 11.6191C23.2313 11.3965 23.0672 11.127 22.6922 11.127C22.2469 11.127 22.0477 11.4668 22.0477 11.7598C22.0477 12.4981 22.6805 13.6934 24.1688 13.6934Z" fill="black" fill-opacity="0.85"/>
</g>
<defs>
<clipPath id="clip0_2207_17713">
<rect width="29.7305" height="19.3477" fill="white" transform="translate(0.039917 0.0878906)"/>
</clipPath>
</defs>
</svg>
