<svg width="24" height="25" viewBox="0 0 24 25" fill="none" xmlns="http://www.w3.org/2000/svg">
<g clip-path="url(#clip0_2207_22047)">
<path d="M12.0109 16.3887C9.59692 16.3887 7.66333 14.4434 7.66333 12.041C7.66333 9.63867 9.59692 7.69336 12.0109 7.69336C14.4133 7.69336 16.3469 9.63867 16.3469 12.041C16.3469 14.4434 14.4133 16.3887 12.0109 16.3887ZM3.9602 6.16992C4.55786 5.32617 5.2727 4.59961 6.10473 4.00195L8.42505 6.32227C7.56958 6.87305 6.80786 7.61133 6.2688 8.47851L3.9602 6.16992ZM20.0383 6.18164L17.718 8.49023C17.1906 7.62305 16.4289 6.88477 15.5734 6.33398L17.8938 4.01367C18.7258 4.61133 19.4406 5.34961 20.0383 6.18164ZM20.0383 17.877C19.4523 18.709 18.7258 19.4473 17.9055 20.0449L15.5734 17.7246C16.4406 17.1738 17.1906 16.4356 17.7297 15.5684L20.0383 17.877ZM3.97192 17.8887L6.28052 15.5801C6.81958 16.4473 7.56958 17.1856 8.42505 17.7363L6.10473 20.0567C5.28442 19.459 4.55786 18.7324 3.97192 17.8887ZM11.9992 24.0059C18.5383 24.0059 23.9523 18.5918 23.9523 12.0527C23.9523 5.52539 18.5266 0.0996094 11.9875 0.0996094C5.4602 0.0996094 0.0461426 5.52539 0.0461426 12.0527C0.0461426 18.5918 5.47192 24.0059 11.9992 24.0059Z" fill="black" fill-opacity="0.85"/>
</g>
<defs>
<clipPath id="clip0_2207_22047">
<rect width="23.9062" height="23.918" fill="white" transform="translate(0.0461426 0.0878906)"/>
</clipPath>
</defs>
</svg>
