<svg width="29" height="16" viewBox="0 0 29 16" fill="none" xmlns="http://www.w3.org/2000/svg">
<g clip-path="url(#clip0_2207_3380)">
<path d="M1.56519 15.6856C2.39722 15.6856 3.06519 15.0176 3.06519 14.1856C3.06519 13.3535 2.39722 12.6856 1.56519 12.6856C0.733155 12.6856 0.0651855 13.3535 0.0651855 14.1856C0.0651855 15.0176 0.733155 15.6856 1.56519 15.6856ZM4.75269 7.1543C5.58472 7.1543 6.25269 6.48633 6.25269 5.6543C6.25269 4.82227 5.58472 4.1543 4.75269 4.1543C3.93238 4.1543 3.26441 4.82227 3.26441 5.6543C3.26441 6.48633 3.93238 7.1543 4.75269 7.1543ZM14.034 3.11133C14.866 3.11133 15.534 2.44336 15.534 1.61133C15.534 0.779297 14.866 0.111328 14.034 0.111328C13.2019 0.111328 12.534 0.779297 12.534 1.61133C12.534 2.44336 13.2019 3.11133 14.034 3.11133ZM23.3152 7.1543C24.1472 7.1543 24.8152 6.48633 24.8152 5.6543C24.8152 4.82227 24.1472 4.1543 23.3152 4.1543C22.4832 4.1543 21.8152 4.82227 21.8152 5.6543C21.8152 6.48633 22.4832 7.1543 23.3152 7.1543ZM26.5027 15.6856C27.3347 15.6856 28.0027 15.0176 28.0027 14.1856C28.0027 13.3535 27.3347 12.6856 26.5027 12.6856C25.6707 12.6856 25.0027 13.3535 25.0027 14.1856C25.0027 15.0176 25.6707 15.6856 26.5027 15.6856Z" fill="black" fill-opacity="0.85"/>
<path d="M9.34644 15.3222H18.7214C19.2957 15.3222 19.7761 14.8417 19.7761 14.2792C19.7761 13.705 19.2957 13.248 18.7214 13.248H9.34644C8.7605 13.248 8.29175 13.7167 8.29175 14.2792C8.29175 14.8417 8.77222 15.3222 9.34644 15.3222Z" fill="black" fill-opacity="0.85"/>
</g>
<defs>
<clipPath id="clip0_2207_3380">
<rect width="27.9375" height="15.5977" fill="white" transform="translate(0.0651855 0.0878906)"/>
</clipPath>
</defs>
</svg>
