<svg width="28" height="27" viewBox="0 0 28 27" fill="none" xmlns="http://www.w3.org/2000/svg">
<g clip-path="url(#clip0_2207_11574)">
<path d="M3.2965 14.9707C3.8473 14.9707 4.32775 14.5137 4.32775 13.9746C4.32775 13.4121 3.8473 12.9551 3.2965 12.9551H1.04651C0.507446 12.9551 0.050415 13.4238 0.050415 13.9746C0.050415 14.502 0.507446 14.9707 1.04651 14.9707H3.2965ZM5.69885 7.17773C6.08558 7.56445 6.7301 7.57617 7.11683 7.17773C7.51525 6.7793 7.50354 6.14648 7.11683 5.75977L5.53479 4.16601C5.15979 3.76758 4.50353 3.76758 4.1051 4.16601C3.71838 4.56445 3.71838 5.18555 4.1051 5.58398L5.69885 7.17773ZM12.9059 3.35742C12.9059 3.9082 13.3629 4.37695 13.9137 4.37695C14.4762 4.37695 14.9332 3.9082 14.9332 3.35742V1.10742C14.9332 0.556641 14.4645 0.0878906 13.9137 0.0878906C13.3629 0.0878906 12.9059 0.556641 12.9059 1.10742V3.35742ZM20.6988 5.75977C20.3121 6.14648 20.3004 6.7793 20.6988 7.17773C21.109 7.57617 21.7301 7.56445 22.1168 7.17773L23.7223 5.58398C24.109 5.18555 24.109 4.56445 23.7223 4.16601C23.3121 3.76758 22.691 3.76758 22.3043 4.16601L20.6988 5.75977ZM26.7692 14.9707C27.3199 14.9707 27.7887 14.502 27.7887 13.9746C27.7887 13.4238 27.3199 12.9551 26.7692 12.9551H24.5192C23.9801 12.9551 23.5113 13.4121 23.5113 13.9746C23.5113 14.5137 23.9801 14.9707 24.5192 14.9707H26.7692Z" fill="black" fill-opacity="0.85"/>
<path d="M22.9137 23.7949C23.441 23.7949 23.8746 23.3731 23.8746 22.8574C23.8746 22.3301 23.441 21.8965 22.9137 21.8965H21.484V14.127C21.484 9.84961 18.191 6.54492 13.9137 6.54492C9.64808 6.54492 6.35511 9.84961 6.35511 14.127V21.8965H4.90198C4.38636 21.8965 3.9762 22.3301 3.9762 22.8574C3.9762 23.3731 4.38636 23.7949 4.90198 23.7949H22.9137ZM14.8981 14.1621V21.8965H12.9527V14.1621C12.9527 13.6231 13.3746 13.1777 13.9137 13.1777C14.4527 13.1777 14.8981 13.6231 14.8981 14.1621Z" fill="black" fill-opacity="0.85"/>
</g>
<defs>
<clipPath id="clip0_2207_11574">
<rect width="27.7383" height="26.6367" fill="white" transform="translate(0.050415 0.0878906)"/>
</clipPath>
</defs>
</svg>
