<svg width="18" height="27" viewBox="0 0 18 27" fill="none" xmlns="http://www.w3.org/2000/svg">
<g clip-path="url(#clip0_2207_11163)">
<path d="M3.6875 26.0117H13.6016C16.0156 26.0117 17.2344 24.7812 17.2344 22.3437V3.76953C17.2344 1.32031 16.0156 0.0898438 13.6016 0.0898438H3.6875C1.26172 0.0898438 0.0546875 1.32031 0.0546875 3.76953V22.3437C0.0546875 24.7812 1.26172 26.0117 3.6875 26.0117Z" fill="black" fill-opacity="0.85"/>
<path d="M4.20312 11.1992C3.41796 11.1992 3.10156 10.8945 3.10156 10.1093V4.32032C3.10156 3.53516 3.41796 3.23047 4.20312 3.23047H13.0274C13.8242 3.23047 14.1406 3.53516 14.1406 4.32032V10.1093C14.1406 10.8945 13.8242 11.1992 13.0274 11.1992H4.20312Z" fill="white"/>
</g>
<defs>
<clipPath id="clip0_2207_11163">
<rect width="17.1797" height="25.9336" fill="white" transform="translate(0.0546875 0.0898438)"/>
</clipPath>
</defs>
</svg>
