<svg width="25" height="24" viewBox="0 0 25 24" fill="none" xmlns="http://www.w3.org/2000/svg">
<g clip-path="url(#clip0_2207_11559)">
<path d="M1.27124 13.5059C1.95093 13.5059 2.48999 12.9668 2.48999 12.2988C2.48999 11.6191 1.95093 11.0801 1.27124 11.0801C0.591552 11.0801 0.0524902 11.6191 0.0524902 12.2988C0.0524902 12.9668 0.591552 13.5059 1.27124 13.5059ZM4.03687 5.29101C4.71655 5.29101 5.25561 4.74023 5.25561 4.07227C5.25561 3.39258 4.71655 2.85351 4.03687 2.85351C3.3689 2.85351 2.81811 3.39258 2.81811 4.07227C2.81811 4.74023 3.3689 5.29101 4.03687 5.29101ZM12.2752 2.52539C12.9431 2.52539 13.4822 1.98633 13.4822 1.30664C13.4822 0.638672 12.9431 0.0878906 12.2752 0.0878906C11.5955 0.0878906 11.0564 0.638672 11.0564 1.30664C11.0564 1.98633 11.5955 2.52539 12.2752 2.52539ZM20.5017 5.29101C21.1814 5.29101 21.7205 4.74023 21.7205 4.07227C21.7205 3.39258 21.1814 2.85351 20.5017 2.85351C19.822 2.85351 19.283 3.39258 19.283 4.07227C19.283 4.74023 19.822 5.29101 20.5017 5.29101ZM23.2791 13.5059C23.947 13.5059 24.4861 12.9668 24.4861 12.2988C24.4861 11.6191 23.947 11.0801 23.2791 11.0801C22.5994 11.0801 22.0603 11.6191 22.0603 12.2988C22.0603 12.9668 22.5994 13.5059 23.2791 13.5059Z" fill="black" fill-opacity="0.85"/>
<path d="M17.9587 21.1817H19.8455V12.4629C19.8455 8.18555 16.5408 4.88086 12.2752 4.88086C7.9978 4.88086 4.71655 8.18555 4.71655 12.4629V21.1817H6.60327V12.4629C6.60327 9.22851 9.05249 6.76758 12.2752 6.76758C15.5095 6.76758 17.9587 9.22851 17.9587 12.4629V21.1817ZM21.2752 22.1309C21.7908 22.1309 22.2361 21.709 22.2361 21.1934C22.2361 20.666 21.7908 20.2324 21.2752 20.2324H3.26343C2.7478 20.2324 2.33765 20.666 2.33765 21.1934C2.33765 21.709 2.7478 22.1309 3.26343 22.1309H21.2752ZM13.2244 12.7207C13.2244 12.2051 12.7908 11.7715 12.2752 11.7715C11.7595 11.7715 11.3377 12.2051 11.3377 12.7207V21.1817H13.2244V12.7207Z" fill="black" fill-opacity="0.85"/>
</g>
<defs>
<clipPath id="clip0_2207_11559">
<rect width="24.4336" height="23.3086" fill="white" transform="translate(0.0524902 0.0878906)"/>
</clipPath>
</defs>
</svg>
