<svg width="25" height="24" viewBox="0 0 25 24" fill="none" xmlns="http://www.w3.org/2000/svg">
<g clip-path="url(#clip0_2207_11564)">
<path d="M21.2774 22.1309C21.793 22.1309 22.2383 21.709 22.2383 21.1934C22.2383 20.666 21.793 20.2324 21.2774 20.2324H19.8477V12.4629C19.8477 8.18555 16.543 4.88086 12.2774 4.88086C7.99999 4.88086 4.71874 8.18555 4.71874 12.4629V20.2324H3.26562C2.74999 20.2324 2.33984 20.666 2.33984 21.1934C2.33984 21.709 2.74999 22.1309 3.26562 22.1309H21.2774ZM13.2617 12.4981V20.2324H11.3047V12.4981C11.3047 11.959 11.7383 11.5137 12.2774 11.5137C12.8164 11.5137 13.2617 11.959 13.2617 12.4981Z" fill="black" fill-opacity="0.85"/>
<path d="M1.27344 13.5059C1.95313 13.5059 2.49219 12.9668 2.49219 12.2988C2.49219 11.6191 1.95313 11.0801 1.27344 11.0801C0.59375 11.0801 0.0546875 11.6191 0.0546875 12.2988C0.0546875 12.9668 0.59375 13.5059 1.27344 13.5059ZM4.03907 5.29101C4.71875 5.29101 5.25781 4.74023 5.25781 4.07227C5.25781 3.39258 4.71875 2.85351 4.03907 2.85351C3.3711 2.85351 2.82031 3.39258 2.82031 4.07227C2.82031 4.74023 3.3711 5.29101 4.03907 5.29101ZM12.2774 2.52539C12.9453 2.52539 13.4844 1.98633 13.4844 1.30664C13.4844 0.638672 12.9453 0.0878906 12.2774 0.0878906C11.5977 0.0878906 11.0586 0.638672 11.0586 1.30664C11.0586 1.98633 11.5977 2.52539 12.2774 2.52539ZM20.5039 5.29101C21.1836 5.29101 21.7227 4.74023 21.7227 4.07227C21.7227 3.39258 21.1836 2.85351 20.5039 2.85351C19.8242 2.85351 19.2852 3.39258 19.2852 4.07227C19.2852 4.74023 19.8242 5.29101 20.5039 5.29101ZM23.2813 13.5059C23.9492 13.5059 24.4883 12.9668 24.4883 12.2988C24.4883 11.6191 23.9492 11.0801 23.2813 11.0801C22.6016 11.0801 22.0625 11.6191 22.0625 12.2988C22.0625 12.9668 22.6016 13.5059 23.2813 13.5059Z" fill="black" fill-opacity="0.85"/>
</g>
<defs>
<clipPath id="clip0_2207_11564">
<rect width="24.4336" height="23.3086" fill="white" transform="translate(0.0546875 0.0878906)"/>
</clipPath>
</defs>
</svg>
