<svg width="29" height="23" viewBox="0 0 29 23" fill="none" xmlns="http://www.w3.org/2000/svg">
<g clip-path="url(#clip0_2207_11110)">
<path d="M3.75537 22.002H25.2007C27.6616 22.002 28.8804 20.7832 28.8804 18.3691V3.7207C28.8804 1.30664 27.6616 0.0878906 25.2007 0.0878906H3.75537C1.30615 0.0878906 0.0756836 1.29492 0.0756836 3.7207V18.3691C0.0756836 20.7949 1.30615 22.002 3.75537 22.002ZM3.7788 20.1152C2.60693 20.1152 1.9624 19.4824 1.9624 18.2754V3.81445C1.9624 2.5957 2.60693 1.97461 3.7788 1.97461H25.1773C26.3374 1.97461 26.9937 2.5957 26.9937 3.81445V18.2754C26.9937 19.4824 26.3374 20.1152 25.1773 20.1152H3.7788Z" fill="black" fill-opacity="0.85"/>
<path d="M4.5874 18.5098H24.3687C25.0249 18.5098 25.3999 18.1231 25.3999 17.4668V4.62305C25.3999 3.95508 25.0249 3.56836 24.3687 3.56836H4.5874C3.93115 3.56836 3.56787 3.95508 3.56787 4.62305V17.4668C3.56787 18.1231 3.93115 18.5098 4.5874 18.5098ZM5.41943 16.9746C5.20849 16.9746 5.10302 16.8691 5.10302 16.6582V5.43164C5.10302 5.20898 5.20849 5.10351 5.41943 5.10351H23.5366C23.7593 5.10351 23.8648 5.20898 23.8648 5.43164V16.6582C23.8648 16.8691 23.7593 16.9746 23.5366 16.9746H5.41943Z" fill="black" fill-opacity="0.85"/>
</g>
<defs>
<clipPath id="clip0_2207_11110">
<rect width="28.8047" height="21.9258" fill="white" transform="translate(0.0756836 0.0878906)"/>
</clipPath>
</defs>
</svg>
