<svg width="24" height="25" viewBox="0 0 24 25" fill="none" xmlns="http://www.w3.org/2000/svg">
<g clip-path="url(#clip0_2207_11128)">
<path d="M11.7446 24.7441C18.7758 24.7441 23.4399 22.3418 23.4399 18.6152V6.66211C23.4399 2.66601 18.7641 0.0878906 11.7446 0.0878906C4.73682 0.0878906 0.0610352 2.66601 0.0610352 6.66211V18.6152C0.0610352 22.3418 4.7251 24.7441 11.7446 24.7441ZM1.94776 18.6152C1.94776 16.1543 5.9087 14.3731 11.7446 14.3731C17.5805 14.3731 21.5532 16.1543 21.5532 18.6152C21.5532 21.0762 17.5805 22.8574 11.7446 22.8574C5.9087 22.8574 1.94776 21.0762 1.94776 18.6152ZM6.86963 16.0371C6.93995 17.7598 9.08448 19.1777 11.7446 19.1777C14.4048 19.1777 16.561 17.7598 16.6313 16.0371C15.2602 15.6973 13.5962 15.4981 11.7446 15.4981C9.90479 15.4981 8.229 15.6973 6.86963 16.0371Z" fill="black" fill-opacity="0.85"/>
</g>
<defs>
<clipPath id="clip0_2207_11128">
<rect width="23.3789" height="24.668" fill="white" transform="translate(0.0610352 0.0878906)"/>
</clipPath>
</defs>
</svg>
