<svg width="20" height="27" viewBox="0 0 20 27" fill="none" xmlns="http://www.w3.org/2000/svg">
<g clip-path="url(#clip0_2207_10954)">
<path d="M0.0168457 4.77734C0.0168457 8.85546 6.2981 12.2187 6.2981 19.121V20.1289C6.2981 20.539 6.52076 20.7617 6.94263 20.7617H12.1809C12.6027 20.7617 12.8254 20.539 12.8254 20.1289V19.121C12.8254 12.1836 19.1066 8.94922 19.1066 4.77734C19.1066 1.76562 15.6027 0.0898438 9.56763 0.0898438C3.52076 0.0898438 0.0168457 1.76562 0.0168457 4.77734ZM1.78638 4.77734C1.78638 3.14843 4.43482 1.85937 9.56763 1.85937C14.6887 1.85937 17.3371 3.14843 17.3371 4.77734C17.3371 7.55468 11.0676 11.8789 11.0676 18.5703V19.7539L12.0402 18.9921H7.08326L8.05591 19.7539V18.5703C8.05591 11.8906 1.78638 7.53125 1.78638 4.77734ZM1.17701 7.10937H17.9582V5.57422H1.17701V7.10937ZM6.68482 23.2929H12.4504C12.8254 23.2929 13.1301 23 13.1301 22.6132C13.1301 22.2265 12.8254 21.9336 12.4504 21.9336H6.68482C6.2981 21.9336 5.99341 22.2265 5.99341 22.6132C5.99341 23 6.2981 23.2929 6.68482 23.2929ZM9.56763 26.6328C11.1496 26.6328 12.2746 25.789 12.5207 24.4531H6.60279C6.82544 25.789 7.95044 26.6328 9.56763 26.6328Z" fill="black" fill-opacity="0.85"/>
</g>
<defs>
<clipPath id="clip0_2207_10954">
<rect width="19.0898" height="26.543" fill="white" transform="translate(0.0168457 0.0898438)"/>
</clipPath>
</defs>
</svg>
