<svg width="24" height="25" viewBox="0 0 24 25" fill="none" xmlns="http://www.w3.org/2000/svg">
<g clip-path="url(#clip0_2207_10881)">
<path d="M11.9614 23.996C18.5005 23.996 23.9145 18.5703 23.9145 12.0429C23.9145 5.5039 18.4888 0.0898438 11.9497 0.0898438C5.42236 0.0898438 0.00830078 5.5039 0.00830078 12.0429C0.00830078 18.5703 5.43408 23.996 11.9614 23.996Z" fill="black" fill-opacity="0.85"/>
<path d="M7.71924 8.52735C7.71924 6.33594 9.58252 4.67188 11.9497 4.67188C14.3286 4.67188 16.2036 6.39454 16.2036 8.58594C16.2036 11.0117 14.5747 11.539 14.3403 15.746C14.3286 15.9804 14.1763 16.1328 13.9302 16.1328H9.96924C9.74658 16.1328 9.60596 15.9804 9.58252 15.746C9.32471 11.539 7.71924 10.9531 7.71924 8.52735ZM10.1099 17.75C9.84033 17.75 9.61768 17.5273 9.61768 17.2578C9.61768 16.9882 9.84033 16.7656 10.1099 16.7656H13.813C14.0825 16.7656 14.3169 16.9882 14.3169 17.2578C14.3169 17.5273 14.0825 17.75 13.813 17.75H10.1099ZM11.9614 19.4023C11.0825 19.4023 10.4263 18.9921 10.3677 18.371H13.5552C13.4849 18.9921 12.8403 19.4023 11.9614 19.4023Z" fill="white"/>
</g>
<defs>
<clipPath id="clip0_2207_10881">
<rect width="23.9062" height="23.918" fill="white" transform="translate(0.00830078 0.0898438)"/>
</clipPath>
</defs>
</svg>
