<svg width="18" height="27" viewBox="0 0 18 27" fill="none" xmlns="http://www.w3.org/2000/svg">
<g clip-path="url(#clip0_2207_11158)">
<path d="M3.6853 26.0117H13.5994C16.0134 26.0117 17.2322 24.7812 17.2322 22.3437V3.76953C17.2322 1.32031 16.0134 0.0898438 13.5994 0.0898438H3.6853C1.25952 0.0898438 0.0524902 1.32031 0.0524902 3.76953V22.3437C0.0524902 24.7812 1.25952 26.0117 3.6853 26.0117ZM3.77905 24.125C2.5603 24.125 1.93921 23.4804 1.93921 22.3086V3.80468C1.93921 2.63281 2.5603 1.97656 3.77905 1.97656H13.4939C14.7127 1.97656 15.3455 2.63281 15.3455 3.80468V22.3086C15.3455 23.4804 14.7127 24.125 13.4939 24.125H3.77905Z" fill="black" fill-opacity="0.85"/>
<path d="M4.56421 10.9648H12.6619C13.4119 10.9648 13.7166 10.6718 13.7166 9.93359V4.61328C13.7166 3.875 13.4119 3.58203 12.6619 3.58203H4.56421C3.82593 3.58203 3.52124 3.875 3.52124 4.61328V9.93359C3.52124 10.6718 3.82593 10.9648 4.56421 10.9648Z" fill="black" fill-opacity="0.85"/>
</g>
<defs>
<clipPath id="clip0_2207_11158">
<rect width="17.1797" height="25.9336" fill="white" transform="translate(0.0524902 0.0898438)"/>
</clipPath>
</defs>
</svg>
