<svg width="16" height="29" viewBox="0 0 16 29" fill="none" xmlns="http://www.w3.org/2000/svg">
<g clip-path="url(#clip0_2207_10948)">
<path d="M4.15137 23.9609H11.5693C11.956 23.9609 12.249 23.6562 12.249 23.2695C12.249 22.8945 11.956 22.5898 11.5693 22.5898H4.15137C3.76465 22.5898 3.45996 22.8945 3.45996 23.2695C3.45996 23.6562 3.76465 23.9609 4.15137 23.9609ZM7.85449 27.3593C9.6709 27.3593 11.1826 26.4687 11.2998 25.121H4.4209C4.50293 26.4687 6.02637 27.3593 7.85449 27.3593Z" fill="black" fill-opacity="0.85"/>
<path d="M3.45996 20.7382C3.4834 21.1601 3.74121 21.4296 4.18653 21.4296H11.5224C11.9794 21.4296 12.2255 21.1601 12.2607 20.7382C12.5537 15.7343 13.9013 13.4726 14.8037 11.3398H0.916992C1.81934 13.4726 3.15527 15.7343 3.45996 20.7382Z" fill="black" fill-opacity="0.85"/>
<path d="M15.6943 7.30859C15.6943 3.26562 12.2373 0.0898438 7.85449 0.0898438C3.47168 0.0898438 0.0146484 3.26562 0.0146484 7.30859C0.0146484 8.25781 0.143554 9.05468 0.36621 9.80468H15.3544C15.5654 9.05468 15.6943 8.25781 15.6943 7.30859Z" fill="black" fill-opacity="0.85"/>
</g>
<defs>
<clipPath id="clip0_2207_10948">
<rect width="15.6797" height="27.9961" fill="white" transform="translate(0.0146484 0.0898438)"/>
</clipPath>
</defs>
</svg>
