<svg width="26" height="29" viewBox="0 0 26 29" fill="none" xmlns="http://www.w3.org/2000/svg">
<g clip-path="url(#clip0_2207_10938)">
<path d="M6.42603 3.19531C2.85181 3.19531 0.00415039 5.82031 0.00415039 9.16015C0.00415039 12.8632 2.19556 13.7773 2.79321 20C2.82837 20.375 3.05103 20.6445 3.46118 20.6445H9.40259C9.81274 20.6445 10.0353 20.375 10.0705 20C10.6683 13.7773 12.8597 12.8632 12.8597 9.16015C12.8597 5.82031 10.012 3.19531 6.42603 3.19531ZM3.43774 22.871H9.43774C9.80103 22.871 10.1058 22.5898 10.1058 22.2148C10.1058 21.8281 9.80103 21.5468 9.43774 21.5468H3.43774C3.07446 21.5468 2.78149 21.8398 2.78149 22.2148C2.78149 22.5781 3.07446 22.871 3.43774 22.871ZM6.44946 25.8007C7.98462 25.8007 9.32056 24.9687 9.34399 23.7734H3.55493C3.56665 24.9687 4.87915 25.8007 6.44946 25.8007Z" fill="black" fill-opacity="0.85"/>
<path d="M16.5159 0.0898438C11.6526 0.0898438 7.75024 3.6875 7.75024 8.30468C7.75024 13.4726 10.3753 14.5507 11.0081 21.0546C11.1136 22.1914 11.9222 22.9648 13.0589 22.9648H19.973C21.1097 22.9648 21.9183 22.1914 22.0237 21.0546C22.6448 14.5625 25.2815 13.4726 25.2815 8.30468C25.2815 3.6875 21.3792 0.0898438 16.5159 0.0898438Z" fill="white"/>
<path d="M16.5158 1.46094C12.3674 1.46094 9.10962 4.47266 9.10962 8.30469C9.10962 12.5468 11.6525 13.6015 12.3557 20.9257C12.4025 21.3359 12.6135 21.5937 13.0588 21.5937H19.9729C20.4064 21.5937 20.6291 21.3359 20.6643 20.9257C21.3674 13.6015 23.9221 12.5468 23.9221 8.30469C23.9221 4.47266 20.6525 1.46094 16.5158 1.46094ZM13.0236 23.9843H20.008C20.3947 23.9843 20.6877 23.7031 20.6877 23.3164C20.6877 22.9296 20.3947 22.6484 20.008 22.6484H13.0236C12.6369 22.6484 12.3557 22.9296 12.3557 23.3164C12.3557 23.7031 12.6369 23.9843 13.0236 23.9843ZM16.5158 27.1953C18.2385 27.1953 19.7034 26.3281 19.7853 25.039H13.2463C13.3166 26.3281 14.7814 27.1953 16.5158 27.1953Z" fill="black" fill-opacity="0.85"/>
</g>
<defs>
<clipPath id="clip0_2207_10938">
<rect width="25.2773" height="28.4883" fill="white" transform="translate(0.00415039 0.0898438)"/>
</clipPath>
</defs>
</svg>
