<svg width="24" height="13" viewBox="0 0 24 13" fill="none" xmlns="http://www.w3.org/2000/svg">
<g clip-path="url(#clip0_2207_22363)">
<path d="M0.948242 12.1251H22.8857C23.3779 12.1251 23.7763 11.7266 23.7763 11.2227C23.7763 10.7305 23.3779 10.3438 22.8857 10.3438H0.948242C0.456055 10.3438 0.0693359 10.7305 0.0693359 11.2227C0.0693359 11.7266 0.456055 12.1251 0.948242 12.1251Z" fill="black" fill-opacity="0.85"/>
<path d="M0.948242 7.00391H22.8857C23.3779 7.00391 23.7763 6.61719 23.7763 6.12501C23.7763 5.6211 23.3779 5.22266 22.8857 5.22266H0.948242C0.456055 5.22266 0.0693359 5.6211 0.0693359 6.12501C0.0693359 6.61719 0.456055 7.00391 0.948242 7.00391Z" fill="black" fill-opacity="0.85"/>
<path d="M0.948242 1.89453H22.8857C23.3779 1.89453 23.7763 1.50781 23.7763 1.01562C23.7763 0.523438 23.3779 0.125 22.8857 0.125H0.948242C0.456055 0.125 0.0693359 0.523438 0.0693359 1.01562C0.0693359 1.50781 0.456055 1.89453 0.948242 1.89453Z" fill="black" fill-opacity="0.85"/>
</g>
<defs>
<clipPath id="clip0_2207_22363">
<rect width="23.707" height="12.0352" fill="white" transform="translate(0.0693359 0.0898438)"/>
</clipPath>
</defs>
</svg>
