<svg width="24" height="25" viewBox="0 0 24 25" fill="none" xmlns="http://www.w3.org/2000/svg">
<g clip-path="url(#clip0_2207_9925)">
<path d="M12.0202 23.996C14.6569 23.996 17.1179 23.1054 19.1101 21.6171C16.0515 21.2304 13.6726 19.7539 12.2663 17.3164C11.5866 16.121 11.2585 14.9609 11.1296 13.6718C10.3562 14.2578 9.73511 14.914 9.20776 15.8046C7.84839 18.125 8.08276 20.8789 9.82886 23.7617C10.5437 23.914 11.2702 23.996 12.0202 23.996ZM7.29761 23C6.07886 20.1406 6.14917 17.3046 7.56714 14.8671C8.23511 13.7304 9.0437 12.875 10.0515 12.125C9.12573 11.75 8.30542 11.5859 7.3562 11.5859C4.69605 11.5859 2.42261 13.1562 0.817139 16.1679C1.95386 19.2148 4.32105 21.7109 7.29761 23ZM0.172608 13.6015C2.04761 11.082 4.52026 9.69922 7.3562 9.69922C8.6687 9.69922 9.80542 9.96875 10.9655 10.4843C10.8483 9.41796 10.5788 8.59765 10.0866 7.74218C8.76245 5.43359 6.27808 4.26172 2.92652 4.36718C1.14526 6.4414 0.0671387 9.125 0.0671387 12.0429C0.0671387 12.5703 0.114014 13.0859 0.172608 13.6015ZM12.8523 10.3086C13.7194 9.67578 14.2937 9.03125 14.7859 8.19922C16.1335 5.90234 15.8991 3.17187 14.1296 0.300782C13.4499 0.160156 12.7351 0.0898438 12.0085 0.0898438C9.32495 0.0898438 6.81714 1.01562 4.81323 2.55078C7.89526 2.91406 10.3093 4.35546 11.7273 6.8164C12.3718 7.95312 12.7116 9.05468 12.8523 10.3086ZM16.7546 12.6054C19.403 12.6054 21.6648 11.0703 23.2585 8.14062C22.1804 4.97656 19.7429 2.36328 16.6491 1.05078C17.8796 3.89843 17.8327 6.69922 16.4148 9.125C15.7233 10.332 14.8562 11.1875 13.8015 11.9375C14.7273 12.3476 15.6296 12.6054 16.7546 12.6054ZM21.0202 19.8007C22.8483 17.7148 23.9733 14.996 23.9733 12.0429C23.9733 11.5859 23.9499 11.1523 23.8913 10.707C22.0163 13.1562 19.5554 14.4921 16.7546 14.4921C15.3718 14.4921 14.1882 14.1875 13.0163 13.6601C13.1335 14.6093 13.3796 15.4765 13.9069 16.3906C15.2194 18.6875 17.7038 19.871 21.0202 19.8007Z" fill="black" fill-opacity="0.85"/>
</g>
<defs>
<clipPath id="clip0_2207_9925">
<rect width="23.9062" height="23.918" fill="white" transform="translate(0.0671387 0.0898438)"/>
</clipPath>
</defs>
</svg>
