<svg width="27" height="22" viewBox="0 0 27 22" fill="none" xmlns="http://www.w3.org/2000/svg">
<g clip-path="url(#clip0_2207_10466)">
<path d="M25.7681 16.4609C26.565 16.4609 26.9751 16.0507 26.9751 15.2656V5.94923C26.9751 5.16407 26.565 4.75391 25.7681 4.75391C24.9829 4.75391 24.5728 5.16407 24.5728 5.94923V15.2656C24.5728 16.0507 24.9829 16.4609 25.7681 16.4609Z" fill="black" fill-opacity="0.85"/>
<path d="M19.6509 13.5078C20.4361 13.5078 20.8462 13.0976 20.8462 12.3007V8.91406C20.8462 8.11718 20.4361 7.70703 19.6509 7.70703C18.8657 7.70703 18.4556 8.11718 18.4556 8.91406V12.3007C18.4556 13.0976 18.8657 13.5078 19.6509 13.5078Z" fill="black" fill-opacity="0.85"/>
<path d="M13.5337 21.125C14.3189 21.125 14.7407 20.7148 14.7407 19.9296V1.28515C14.7407 0.5 14.3189 0.0898438 13.5337 0.0898438C12.7485 0.0898438 12.3267 0.5 12.3267 1.28515V19.9296C12.3267 20.7148 12.7485 21.125 13.5337 21.125Z" fill="black" fill-opacity="0.85"/>
<path d="M7.4165 13.5078C8.20166 13.5078 8.61181 13.0976 8.61181 12.3007V8.91406C8.61181 8.11718 8.20166 7.70703 7.4165 7.70703C6.63134 7.70703 6.22119 8.11718 6.22119 8.91406V12.3007C6.22119 13.0976 6.63134 13.5078 7.4165 13.5078Z" fill="black" fill-opacity="0.85"/>
<path d="M1.29932 16.4609C2.08448 16.4609 2.49463 16.0507 2.49463 15.2656V5.94923C2.49463 5.16407 2.08448 4.75391 1.29932 4.75391C0.502441 4.75391 0.0922852 5.16407 0.0922852 5.94923V15.2656C0.0922852 16.0507 0.502441 16.4609 1.29932 16.4609Z" fill="black" fill-opacity="0.85"/>
</g>
<defs>
<clipPath id="clip0_2207_10466">
<rect width="26.8828" height="21.0352" fill="white" transform="translate(0.0922852 0.0898438)"/>
</clipPath>
</defs>
</svg>
