<svg width="24" height="25" viewBox="0 0 24 25" fill="none" xmlns="http://www.w3.org/2000/svg">
<g clip-path="url(#clip0_2207_22390)">
<path d="M12.0307 23.996C18.5698 23.996 23.9838 18.5703 23.9838 12.0429C23.9838 5.5039 18.5581 0.0898438 12.019 0.0898438C5.4917 0.0898438 0.0776367 5.5039 0.0776367 12.0429C0.0776367 18.5703 5.50342 23.996 12.0307 23.996Z" fill="black" fill-opacity="0.85"/>
<path d="M5.96045 8.89063C5.40967 8.89063 5.03467 8.55079 5.03467 8.03516C5.03467 7.51954 5.40967 7.17969 5.96045 7.17969H18.1479C18.687 7.17969 19.0737 7.51954 19.0737 8.03516C19.0737 8.55079 18.687 8.89063 18.1479 8.89063H5.96045ZM5.96045 12.8984C5.40967 12.8984 5.03467 12.5586 5.03467 12.0312C5.03467 11.5156 5.40967 11.1757 5.96045 11.1757H18.1479C18.687 11.1757 19.0737 11.5156 19.0737 12.0312C19.0737 12.5586 18.687 12.8984 18.1479 12.8984H5.96045ZM5.96045 16.9062C5.40967 16.9062 5.03467 16.5546 5.03467 16.039C5.03467 15.5351 5.40967 15.1953 5.96045 15.1953H18.1479C18.687 15.1953 19.0737 15.5351 19.0737 16.039C19.0737 16.5546 18.687 16.9062 18.1479 16.9062H5.96045Z" fill="white"/>
</g>
<defs>
<clipPath id="clip0_2207_22390">
<rect width="23.9062" height="23.918" fill="white" transform="translate(0.0776367 0.0898438)"/>
</clipPath>
</defs>
</svg>
