<svg width="24" height="25" viewBox="0 0 24 25" fill="none" xmlns="http://www.w3.org/2000/svg">
<g clip-path="url(#clip0_2207_9921)">
<path d="M7.16675 11.5859C8.59644 11.5859 9.78003 11.9375 11.3504 12.8867C13.1082 13.9414 14.6785 14.4921 16.5652 14.4921C19.0964 14.4921 21.3699 13.4023 23.1629 11.375L22.7879 8.63281C21.2175 11.246 19.073 12.6054 16.5652 12.6054C15.0183 12.6054 13.7996 12.1836 12.3113 11.2812C10.5652 10.2265 9.01831 9.69922 7.16675 9.69922C4.83472 9.69922 2.7605 10.6484 1.04956 12.3945L1.40113 14.8789C2.92457 12.7109 4.90503 11.5859 7.16675 11.5859ZM9.89722 7.74218C10.6121 8.98437 10.8816 10.1562 10.8582 12.0195C10.823 14.082 11.1511 15.6992 12.0769 17.3164C13.2722 19.3906 15.159 20.7617 17.573 21.371L19.5066 19.789C16.8464 19.5312 14.866 18.3828 13.7175 16.3906C12.9441 15.0429 12.7097 13.8007 12.7449 12.0429C12.7683 9.98046 12.4519 8.41015 11.5379 6.8164C10.284 4.64843 8.28003 3.26562 5.71363 2.73828L4.14331 4.39062C6.79175 4.625 8.7605 5.77343 9.89722 7.74218ZM14.5964 8.19922C13.8816 9.41796 13.0027 10.2265 11.3621 11.1523C9.55737 12.1718 8.32691 13.2382 7.37769 14.8671C6.17066 16.9414 5.948 19.3086 6.66285 21.7343L8.93628 22.4726C7.84644 20.0703 7.85816 17.7851 9.01831 15.8046C9.79175 14.4921 10.7527 13.6601 12.2996 12.7929C14.0925 11.7851 15.2996 10.7304 16.2254 9.125C17.4675 6.98046 17.655 4.51953 16.8347 2.02343L14.573 1.42578C15.7566 3.93359 15.7449 6.21875 14.5964 8.19922ZM12.0183 23.996C18.5574 23.996 23.9714 18.5703 23.9714 12.0429C23.9714 5.5039 18.5457 0.0898438 12.0066 0.0898438C5.47925 0.0898438 0.0651855 5.5039 0.0651855 12.0429C0.0651855 18.5703 5.49097 23.996 12.0183 23.996ZM12.0183 22.0039C6.48707 22.0039 2.0691 17.5742 2.0691 12.0429C2.0691 6.51172 6.47535 2.08203 12.0066 2.08203C17.5379 2.08203 21.9793 6.51172 21.9793 12.0429C21.9793 17.5742 17.5496 22.0039 12.0183 22.0039Z" fill="black" fill-opacity="0.85"/>
</g>
<defs>
<clipPath id="clip0_2207_9921">
<rect width="23.9062" height="23.918" fill="white" transform="translate(0.0651855 0.0898438)"/>
</clipPath>
</defs>
</svg>
