<svg width="21" height="26" viewBox="0 0 21 26" fill="none" xmlns="http://www.w3.org/2000/svg">
<g clip-path="url(#clip0_2207_21065)">
<path d="M13.9346 25.2617C18.1768 25.2617 20.919 22.5312 20.919 18.289V12.5117C20.919 10.9062 20.4151 9.61718 19.419 8.70312L12.0244 1.89453C10.5713 0.570313 9.03613 0.0898438 7.20801 0.0898438H3.58691C1.47754 0.0898438 0.0712891 1.51953 0.0712891 3.64062V21.746C0.0712891 23.9492 1.40723 25.2617 3.62207 25.2617H13.9346ZM13.8994 23.375H3.66895C2.43848 23.375 1.95801 22.9531 1.95801 21.7109V3.66406C1.95801 2.65625 2.61426 1.97656 3.63379 1.97656H7.16113C8.61426 1.97656 9.68067 2.32812 10.7236 3.27734L18.1065 10.0625C18.751 10.6484 19.0322 11.3632 19.0322 12.5351V18.2539C19.0322 21.5351 17.169 23.375 13.8994 23.375Z" fill="black" fill-opacity="0.85"/>
<path d="M5.6377 13.625H15.1416C15.5635 13.625 15.8682 13.3554 15.8682 12.9336C15.8682 12.5351 15.5635 12.2656 15.1416 12.2656H5.6377C5.2041 12.2656 4.91113 12.5351 4.91113 12.9336C4.91113 13.3554 5.2041 13.625 5.6377 13.625ZM5.6377 16.9296H15.1416C15.5635 16.9296 15.8682 16.6601 15.8682 16.25C15.8682 15.8281 15.5635 15.5586 15.1416 15.5586H5.6377C5.2041 15.5586 4.91113 15.8281 4.91113 16.25C4.91113 16.6601 5.2041 16.9296 5.6377 16.9296ZM5.6377 20.2343H15.1416C15.5635 20.2343 15.8682 19.9648 15.8682 19.5546C15.8682 19.1445 15.5635 18.875 15.1416 18.875H5.6377C5.2041 18.875 4.91113 19.1445 4.91113 19.5546C4.91113 19.9648 5.2041 20.2343 5.6377 20.2343Z" fill="black" fill-opacity="0.85"/>
</g>
<defs>
<clipPath id="clip0_2207_21065">
<rect width="20.8477" height="25.1836" fill="white" transform="translate(0.0712891 0.0898438)"/>
</clipPath>
</defs>
</svg>
