<svg width="21" height="20" viewBox="0 0 21 20" fill="none" xmlns="http://www.w3.org/2000/svg">
<g clip-path="url(#clip0_2207_19821)">
<path d="M0.706055 2.39843H19.4795C19.8545 2.39843 20.1006 2.16406 20.1006 1.78906V1.22656C20.1006 0.863282 19.8545 0.628906 19.4795 0.628906H0.706055C0.331055 0.628906 0.0966797 0.863282 0.0966797 1.22656V1.78906C0.0966797 2.16406 0.331055 2.39843 0.706055 2.39843ZM1.01074 9.82812H19.1865C19.749 9.82812 20.1006 9.48829 20.1006 8.92579V6.95703C20.1006 6.38281 19.749 6.04296 19.1865 6.04296H1.01074C0.436524 6.04296 0.0966797 6.38281 0.0966797 6.95703V8.92579C0.0966797 9.48829 0.436524 9.82812 1.01074 9.82812ZM1.01074 19.8828H19.1865C19.749 19.8828 20.1006 19.5429 20.1006 18.9687V14.3164C20.1006 13.7421 19.749 13.4023 19.1865 13.4023H1.01074C0.436524 13.4023 0.0966797 13.7421 0.0966797 14.3164V18.9687C0.0966797 19.5429 0.436524 19.8828 1.01074 19.8828Z" fill="black" fill-opacity="0.85"/>
</g>
<defs>
<clipPath id="clip0_2207_19821">
<rect width="20.0039" height="19.793" fill="white" transform="translate(0.0966797 0.0898438)"/>
</clipPath>
</defs>
</svg>
