<svg width="21" height="26" viewBox="0 0 21 26" fill="none" xmlns="http://www.w3.org/2000/svg">
<g clip-path="url(#clip0_2207_21070)">
<path d="M13.9368 25.2617C18.179 25.2617 20.9212 22.5312 20.9212 18.289V12.5117C20.9212 10.9062 20.4173 9.61718 19.4212 8.70312L12.0266 1.89453C10.5735 0.570313 9.03833 0.0898438 7.21021 0.0898438H3.58911C1.47974 0.0898438 0.0734863 1.51953 0.0734863 3.64062V21.746C0.0734863 23.9492 1.40943 25.2617 3.62427 25.2617H13.9368Z" fill="black" fill-opacity="0.85"/>
<path d="M5.48755 13.5546C5.04224 13.5546 4.72583 13.2734 4.72583 12.8398C4.72583 12.4179 5.04224 12.1367 5.48755 12.1367H15.2844C15.7297 12.1367 16.0344 12.4179 16.0344 12.8398C16.0344 13.2734 15.7297 13.5546 15.2844 13.5546H5.48755ZM5.48755 16.9531C5.04224 16.9531 4.72583 16.6718 4.72583 16.25C4.72583 15.8164 5.04224 15.5351 5.48755 15.5351H15.2844C15.7297 15.5351 16.0344 15.8164 16.0344 16.25C16.0344 16.6718 15.7297 16.9531 15.2844 16.9531H5.48755ZM5.48755 20.3632C5.04224 20.3632 4.72583 20.082 4.72583 19.6484C4.72583 19.2265 5.04224 18.9453 5.48755 18.9453H15.2844C15.7297 18.9453 16.0344 19.2265 16.0344 19.6484C16.0344 20.082 15.7297 20.3632 15.2844 20.3632H5.48755Z" fill="white"/>
</g>
<defs>
<clipPath id="clip0_2207_21070">
<rect width="20.8477" height="25.1836" fill="white" transform="translate(0.0734863 0.0898438)"/>
</clipPath>
</defs>
</svg>
