<svg width="22" height="25" viewBox="0 0 22 25" fill="none" xmlns="http://www.w3.org/2000/svg">
<g clip-path="url(#clip0_2207_10474)">
<path d="M4.75854 1.28515C4.75854 2.05859 5.1687 2.46875 5.94214 2.46875H15.2586C16.0437 2.46875 16.4539 2.05859 16.4539 1.28515C16.4539 0.5 16.0437 0.0898438 15.2586 0.0898438H5.94214C5.1687 0.0898438 4.75854 0.5 4.75854 1.28515ZM7.72339 6.80468C7.72339 7.57812 8.12182 7.98828 8.90698 7.98828H12.3054C13.0789 7.98828 13.489 7.57812 13.489 6.80468C13.489 6.03125 13.0789 5.62109 12.3054 5.62109H8.90698C8.12182 5.62109 7.72339 6.03125 7.72339 6.80468ZM0.0944824 12.3242C0.0944824 13.1093 0.504638 13.5078 1.28979 13.5078H19.9226C20.7078 13.5078 21.1179 13.1093 21.1179 12.3242C21.1179 11.539 20.7078 11.1289 19.9226 11.1289H1.28979C0.504638 11.1289 0.0944824 11.539 0.0944824 12.3242ZM7.72339 17.832C7.72339 18.6171 8.12182 19.0273 8.90698 19.0273H12.3054C13.0789 19.0273 13.489 18.6171 13.489 17.832C13.489 17.0703 13.0789 16.6601 12.3054 16.6601H8.90698C8.12182 16.6601 7.72339 17.0703 7.72339 17.832ZM4.75854 23.3632C4.75854 24.1484 5.1687 24.5586 5.94214 24.5586H15.2586C16.0437 24.5586 16.4539 24.1484 16.4539 23.3632C16.4539 22.5781 16.0437 22.1679 15.2586 22.1679H5.94214C5.1687 22.1679 4.75854 22.5781 4.75854 23.3632Z" fill="black" fill-opacity="0.85"/>
</g>
<defs>
<clipPath id="clip0_2207_10474">
<rect width="21.0234" height="24.4805" fill="white" transform="translate(0.0944824 0.0898438)"/>
</clipPath>
</defs>
</svg>
