<svg width="22" height="22" viewBox="0 0 22 22" fill="none" xmlns="http://www.w3.org/2000/svg">
<g clip-path="url(#clip0_2207_25749)">
<path d="M3.69849 21.6885H17.9133C20.3743 21.6885 21.593 20.4697 21.593 18.0556V3.74707C21.593 1.33301 20.3743 0.114258 17.9133 0.114258H3.69849C1.24927 0.114258 0.0187988 1.32129 0.0187988 3.74707V18.0556C0.0187988 20.4814 1.24927 21.6885 3.69849 21.6885Z" fill="black" fill-opacity="0.85"/>
<path d="M6.40552 15.8642C6.40552 15.4658 6.59302 15.2197 7.03833 15.0791C7.85864 14.8447 8.56177 14.1299 8.67896 13.0635C8.69068 12.9228 8.70239 12.7939 8.69068 12.665H7.10864C6.72192 12.665 6.44068 12.3955 6.44068 12.0088C6.44068 11.622 6.72192 11.3642 7.10864 11.3642H8.50318C8.42114 11.0127 8.31568 10.6728 8.23364 10.3213H7.10864C6.72192 10.3213 6.44068 10.0518 6.44068 9.66504C6.44068 9.27832 6.72192 9.02051 7.10864 9.02051H8.03442C8.02271 8.92676 8.01099 8.85644 8.01099 8.7627C8.01099 6.47754 9.54614 5.03613 12.0305 5.03613C12.7688 5.03613 13.4602 5.11816 14.0344 5.35254C14.4563 5.5166 14.6086 5.77441 14.6086 6.09082C14.6086 6.48926 14.386 6.74707 13.9172 6.72363C13.5422 6.67676 13.0149 6.46582 12.1243 6.46582C10.5305 6.46582 9.59302 7.35644 9.59302 8.65723C9.59302 8.78613 9.60474 8.90332 9.61646 9.02051H13.1204C13.5188 9.02051 13.8 9.27832 13.8 9.66504C13.8 10.0518 13.5188 10.3213 13.1204 10.3213H9.83911C9.92114 10.6611 10.0149 11.001 10.1086 11.3642H13.1204C13.5188 11.3642 13.8 11.622 13.8 12.0088C13.8 12.3955 13.5188 12.665 13.1204 12.665H10.2376C10.2376 12.8525 10.2258 13.0283 10.2024 13.2041C10.0852 14.001 9.73364 14.7392 9.2063 15.1611H14.4329C14.8665 15.1611 15.1711 15.4424 15.1711 15.8642C15.1711 16.2978 14.8665 16.5791 14.4329 16.5791H7.12036C6.68677 16.5791 6.40552 16.2978 6.40552 15.8642Z" fill="white"/>
</g>
<defs>
<clipPath id="clip0_2207_25749">
<rect width="21.5742" height="21.5977" fill="white" transform="translate(0.0187988 0.0908203)"/>
</clipPath>
</defs>
</svg>
