<svg width="24" height="17" viewBox="0 0 24 17" fill="none" xmlns="http://www.w3.org/2000/svg">
<g clip-path="url(#clip0_2207_22178)">
<path d="M7.87853 16.38H22.7145C23.2418 16.38 23.6637 15.9698 23.6637 15.4425C23.6637 14.9034 23.2418 14.4932 22.7145 14.4932H7.87853C7.33947 14.4932 6.92932 14.9034 6.92932 15.4425C6.92932 15.9698 7.33947 16.38 7.87853 16.38Z" fill="black" fill-opacity="0.85"/>
<path d="M1.21057 16.6025H3.21448C3.85901 16.6025 4.38635 16.0752 4.38635 15.4424C4.38635 14.7861 3.85901 14.2705 3.21448 14.2705H1.21057C0.56604 14.2705 0.050415 14.7861 0.050415 15.4424C0.050415 16.0752 0.56604 16.6025 1.21057 16.6025Z" fill="black" fill-opacity="0.85"/>
<path d="M7.87853 9.30176H22.7145C23.2418 9.30176 23.6637 8.87988 23.6637 8.35254C23.6637 7.8252 23.2418 7.41504 22.7145 7.41504H7.87853C7.33947 7.41504 6.92932 7.8252 6.92932 8.35254C6.92932 8.87988 7.33947 9.30176 7.87853 9.30176Z" fill="black" fill-opacity="0.85"/>
<path d="M1.21057 9.52441H3.21448C3.85901 9.52441 4.38635 8.99707 4.38635 8.35254C4.38635 7.70801 3.85901 7.19238 3.21448 7.19238H1.21057C0.56604 7.19238 0.050415 7.70801 0.050415 8.35254C0.050415 8.99707 0.56604 9.52441 1.21057 9.52441Z" fill="black" fill-opacity="0.85"/>
<path d="M7.87853 2.21191H22.7145C23.2418 2.21191 23.6637 1.80176 23.6637 1.27441C23.6637 0.735351 23.2418 0.325195 22.7145 0.325195H7.87853C7.33947 0.325195 6.92932 0.735351 6.92932 1.27441C6.92932 1.80176 7.33947 2.21191 7.87853 2.21191Z" fill="black" fill-opacity="0.85"/>
<path d="M1.21057 2.43457H3.21448C3.85901 2.43457 4.38635 1.90723 4.38635 1.27441C4.38635 0.618164 3.85901 0.102539 3.21448 0.102539H1.21057C0.56604 0.102539 0.050415 0.618164 0.050415 1.27441C0.050415 1.90723 0.56604 2.43457 1.21057 2.43457Z" fill="black" fill-opacity="0.85"/>
</g>
<defs>
<clipPath id="clip0_2207_22178">
<rect width="23.6133" height="16.5117" fill="white" transform="translate(0.050415 0.0908203)"/>
</clipPath>
</defs>
</svg>
