<svg width="23" height="22" viewBox="0 0 23 22" fill="none" xmlns="http://www.w3.org/2000/svg">
<g clip-path="url(#clip0_2207_22248)">
<path d="M2.79077 16.1338C2.79077 15.4424 2.22827 14.8681 1.51343 14.8681C0.822022 14.8681 0.259521 15.4424 0.259521 16.1338C0.259521 16.8369 0.822022 17.3877 1.51343 17.3877C2.22827 17.3877 2.79077 16.8369 2.79077 16.1338ZM2.79077 20.7275C2.79077 20.0361 2.22827 19.4502 1.51343 19.4502C0.822022 19.4502 0.259521 20.0361 0.259521 20.7275C0.259521 21.4306 0.822022 21.9931 1.51343 21.9931C2.22827 21.9931 2.79077 21.4306 2.79077 20.7275ZM22.0329 16.1338C22.0329 15.6181 21.611 15.2314 21.0368 15.2314H5.26343C4.68921 15.2314 4.26734 15.6181 4.26734 16.1338C4.26734 16.6494 4.68921 17.0478 5.26343 17.0478H21.0368C21.611 17.0478 22.0329 16.6494 22.0329 16.1338ZM22.0329 20.7275C22.0329 20.2119 21.611 19.8252 21.0368 19.8252H5.26343C4.68921 19.8252 4.26734 20.2119 4.26734 20.7275C4.26734 21.2431 4.68921 21.6416 5.26343 21.6416H21.0368C21.611 21.6416 22.0329 21.2431 22.0329 20.7275ZM3.27124 0.37207C0.880615 0.37207 0.0251465 1.41504 0.0251465 3.68848V9.1377C0.0251465 11.4111 0.880615 12.4541 3.27124 12.4541H19.2087C21.5993 12.4541 22.4548 11.4111 22.4548 9.1377V3.68848C22.4548 1.41504 21.5993 0.37207 19.2087 0.37207H3.27124ZM1.91187 9.19629V3.62988C1.91187 2.58691 2.25171 2.12988 3.28296 2.12988H19.197C20.2282 2.12988 20.5681 2.58691 20.5681 3.62988V9.19629C20.5681 10.2392 20.2282 10.6963 19.197 10.6963H3.28296C2.25171 10.6963 1.91187 10.2392 1.91187 9.19629Z" fill="black" fill-opacity="0.85"/>
</g>
<defs>
<clipPath id="clip0_2207_22248">
<rect width="22.4297" height="21.9023" fill="white" transform="translate(0.0251465 0.0908203)"/>
</clipPath>
</defs>
</svg>
