<svg width="27" height="27" viewBox="0 0 27 27" fill="none" xmlns="http://www.w3.org/2000/svg">
<g clip-path="url(#clip0_2207_20073)">
<path d="M13.0688 1.28613C13.4087 1.28613 13.6665 1.02832 13.6665 0.688476C13.6665 0.348632 13.4087 0.0908203 13.0688 0.0908203C12.729 0.0908203 12.4712 0.348632 12.4712 0.688476C12.4712 1.02832 12.729 1.28613 13.0688 1.28613ZM15.2251 1.48535C15.5649 1.48535 15.8344 1.21582 15.8344 0.887695C15.8344 0.547851 15.5649 0.27832 15.2251 0.27832C14.8969 0.27832 14.6274 0.547851 14.6274 0.887695C14.6274 1.21582 14.8969 1.48535 15.2251 1.48535ZM17.311 2.03613C17.6508 2.03613 17.9087 1.77832 17.9087 1.43848C17.9087 1.09863 17.6508 0.84082 17.311 0.84082C16.9712 0.84082 16.7133 1.09863 16.7133 1.43848C16.7133 1.77832 16.9712 2.03613 17.311 2.03613ZM19.2798 2.97363C19.6079 2.97363 19.8774 2.7041 19.8774 2.37598C19.8774 2.03613 19.6079 1.7666 19.2798 1.7666C18.9399 1.7666 18.6704 2.03613 18.6704 2.37598C18.6704 2.7041 18.9399 2.97363 19.2798 2.97363ZM21.0493 4.2041C21.3891 4.2041 21.6469 3.94629 21.6469 3.60644C21.6469 3.2666 21.3891 3.00879 21.0493 3.00879C20.7094 3.00879 20.4516 3.2666 20.4516 3.60644C20.4516 3.94629 20.7094 4.2041 21.0493 4.2041ZM22.5844 5.73926C22.9126 5.73926 23.1821 5.46973 23.1821 5.1416C23.1821 4.80176 22.9126 4.53223 22.5844 4.53223C22.2446 4.53223 21.9751 4.80176 21.9751 5.1416C21.9751 5.46973 22.2446 5.73926 22.5844 5.73926ZM23.8266 7.52051C24.1665 7.52051 24.4243 7.25098 24.4243 6.92285C24.4243 6.58301 24.1665 6.31348 23.8266 6.31348C23.4868 6.31348 23.229 6.58301 23.229 6.92285C23.229 7.25098 23.4868 7.52051 23.8266 7.52051ZM24.729 9.47754C25.0688 9.47754 25.3383 9.20801 25.3383 8.86816C25.3383 8.54004 25.0688 8.27051 24.729 8.27051C24.4008 8.27051 24.1313 8.54004 24.1313 8.86816C24.1313 9.20801 24.4008 9.47754 24.729 9.47754ZM25.2915 11.5517C25.6196 11.5517 25.8891 11.2939 25.8891 10.9541C25.8891 10.6142 25.6196 10.3564 25.2915 10.3564C24.9516 10.3564 24.6821 10.6142 24.6821 10.9541C24.6821 11.2939 24.9516 11.5517 25.2915 11.5517ZM25.479 13.6846C25.8071 13.6846 26.0766 13.4267 26.0766 13.0869C26.0766 12.747 25.8071 12.4892 25.479 12.4892C25.1391 12.4892 24.8696 12.747 24.8696 13.0869C24.8696 13.4267 25.1391 13.6846 25.479 13.6846ZM25.2915 15.8174C25.6196 15.8174 25.8891 15.5596 25.8891 15.2197C25.8891 14.8799 25.6196 14.622 25.2915 14.622C24.9516 14.622 24.6821 14.8799 24.6821 15.2197C24.6821 15.5596 24.9516 15.8174 25.2915 15.8174ZM24.729 17.9033C25.0688 17.9033 25.3383 17.6338 25.3383 17.2939C25.3383 16.9658 25.0688 16.6963 24.729 16.6963C24.4008 16.6963 24.1313 16.9658 24.1313 17.2939C24.1313 17.6338 24.4008 17.9033 24.729 17.9033ZM23.8266 19.8486C24.1665 19.8486 24.4243 19.5908 24.4243 19.251C24.4243 18.9111 24.1665 18.6533 23.8266 18.6533C23.4868 18.6533 23.229 18.9111 23.229 19.251C23.229 19.5908 23.4868 19.8486 23.8266 19.8486ZM22.5844 21.6299C22.9126 21.6299 23.1821 21.372 23.1821 21.0322C23.1821 20.6924 22.9126 20.4346 22.5844 20.4346C22.2446 20.4346 21.9751 20.6924 21.9751 21.0322C21.9751 21.372 22.2446 21.6299 22.5844 21.6299ZM21.0493 23.165C21.3891 23.165 21.6469 22.8955 21.6469 22.5674C21.6469 22.2275 21.3891 21.958 21.0493 21.958C20.7094 21.958 20.4516 22.2275 20.4516 22.5674C20.4516 22.8955 20.7094 23.165 21.0493 23.165ZM19.2798 24.3955C19.6079 24.3955 19.8774 24.1377 19.8774 23.7978C19.8774 23.458 19.6079 23.2002 19.2798 23.2002C18.9399 23.2002 18.6704 23.458 18.6704 23.7978C18.6704 24.1377 18.9399 24.3955 19.2798 24.3955ZM17.311 25.333C17.6508 25.333 17.9087 25.0635 17.9087 24.7353C17.9087 24.3955 17.6508 24.126 17.311 24.126C16.9712 24.126 16.7133 24.3955 16.7133 24.7353C16.7133 25.0635 16.9712 25.333 17.311 25.333ZM15.2251 25.8838C15.5649 25.8838 15.8344 25.626 15.8344 25.2861C15.8344 24.9463 15.5649 24.6885 15.2251 24.6885C14.8969 24.6885 14.6274 24.9463 14.6274 25.2861C14.6274 25.626 14.8969 25.8838 15.2251 25.8838ZM13.0688 26.083C13.4087 26.083 13.6665 25.8135 13.6665 25.4853C13.6665 25.1455 13.4087 24.876 13.0688 24.876C12.729 24.876 12.4712 25.1455 12.4712 25.4853C12.4712 25.8135 12.729 26.083 13.0688 26.083ZM10.9126 25.8838C11.2407 25.8838 11.5102 25.626 11.5102 25.2861C11.5102 24.9463 11.2407 24.6885 10.9126 24.6885C10.5727 24.6885 10.3032 24.9463 10.3032 25.2861C10.3032 25.626 10.5727 25.8838 10.9126 25.8838ZM8.82666 25.333C9.16651 25.333 9.42432 25.0635 9.42432 24.7353C9.42432 24.3955 9.16651 24.126 8.82666 24.126C8.48682 24.126 8.229 24.3955 8.229 24.7353C8.229 25.0635 8.48682 25.333 8.82666 25.333ZM6.85791 24.3955C7.19775 24.3955 7.46729 24.1377 7.46729 23.7978C7.46729 23.458 7.19775 23.2002 6.85791 23.2002C6.52979 23.2002 6.26026 23.458 6.26026 23.7978C6.26026 24.1377 6.52979 24.3955 6.85791 24.3955ZM5.08838 23.165C5.42823 23.165 5.68604 22.8955 5.68604 22.5674C5.68604 22.2275 5.42823 21.958 5.08838 21.958C4.74854 21.958 4.49073 22.2275 4.49073 22.5674C4.49073 22.8955 4.74854 23.165 5.08838 23.165ZM3.55323 21.6299C3.89306 21.6299 4.1626 21.372 4.1626 21.0322C4.1626 20.6924 3.89306 20.4346 3.55323 20.4346C3.2251 20.4346 2.95557 20.6924 2.95557 21.0322C2.95557 21.372 3.2251 21.6299 3.55323 21.6299ZM2.31104 19.8486C2.65088 19.8486 2.9087 19.5908 2.9087 19.251C2.9087 18.9111 2.65088 18.6533 2.31104 18.6533C1.9712 18.6533 1.71338 18.9111 1.71338 19.251C1.71338 19.5908 1.9712 19.8486 2.31104 19.8486ZM1.4087 17.9033C1.73682 17.9033 2.00635 17.6338 2.00635 17.2939C2.00635 16.9658 1.73682 16.6963 1.4087 16.6963C1.06885 16.6963 0.799316 16.9658 0.799316 17.2939C0.799316 17.6338 1.06885 17.9033 1.4087 17.9033ZM0.846191 15.8174C1.18604 15.8174 1.45557 15.5596 1.45557 15.2197C1.45557 14.8799 1.18604 14.622 0.846191 14.622C0.518066 14.622 0.248535 14.8799 0.248535 15.2197C0.248535 15.5596 0.518066 15.8174 0.846191 15.8174ZM0.658691 13.6846C0.998535 13.6846 1.26807 13.4267 1.26807 13.0869C1.26807 12.747 0.998535 12.4892 0.658691 12.4892C0.330566 12.4892 0.0610352 12.747 0.0610352 13.0869C0.0610352 13.4267 0.330566 13.6846 0.658691 13.6846ZM0.846191 11.5517C1.18604 11.5517 1.45557 11.2939 1.45557 10.9541C1.45557 10.6142 1.18604 10.3564 0.846191 10.3564C0.518066 10.3564 0.248535 10.6142 0.248535 10.9541C0.248535 11.2939 0.518066 11.5517 0.846191 11.5517ZM1.4087 9.47754C1.73682 9.47754 2.00635 9.20801 2.00635 8.86816C2.00635 8.54004 1.73682 8.27051 1.4087 8.27051C1.06885 8.27051 0.799316 8.54004 0.799316 8.86816C0.799316 9.20801 1.06885 9.47754 1.4087 9.47754ZM2.31104 7.52051C2.65088 7.52051 2.9087 7.25098 2.9087 6.92285C2.9087 6.58301 2.65088 6.31348 2.31104 6.31348C1.9712 6.31348 1.71338 6.58301 1.71338 6.92285C1.71338 7.25098 1.9712 7.52051 2.31104 7.52051ZM3.55323 5.73926C3.89306 5.73926 4.1626 5.46973 4.1626 5.1416C4.1626 4.80176 3.89306 4.53223 3.55323 4.53223C3.2251 4.53223 2.95557 4.80176 2.95557 5.1416C2.95557 5.46973 3.2251 5.73926 3.55323 5.73926ZM5.08838 4.2041C5.42823 4.2041 5.68604 3.94629 5.68604 3.60644C5.68604 3.2666 5.42823 3.00879 5.08838 3.00879C4.74854 3.00879 4.49073 3.2666 4.49073 3.60644C4.49073 3.94629 4.74854 4.2041 5.08838 4.2041ZM6.85791 2.97363C7.19775 2.97363 7.46729 2.7041 7.46729 2.37598C7.46729 2.03613 7.19775 1.7666 6.85791 1.7666C6.52979 1.7666 6.26026 2.03613 6.26026 2.37598C6.26026 2.7041 6.52979 2.97363 6.85791 2.97363ZM8.82666 2.03613C9.16651 2.03613 9.42432 1.77832 9.42432 1.43848C9.42432 1.09863 9.16651 0.84082 8.82666 0.84082C8.48682 0.84082 8.229 1.09863 8.229 1.43848C8.229 1.77832 8.48682 2.03613 8.82666 2.03613ZM10.9126 1.48535C11.2407 1.48535 11.5102 1.21582 11.5102 0.887695C11.5102 0.547851 11.2407 0.27832 10.9126 0.27832C10.5727 0.27832 10.3032 0.547851 10.3032 0.887695C10.3032 1.21582 10.5727 1.48535 10.9126 1.48535Z" fill="black" fill-opacity="0.85"/>
<path d="M13.0688 22.5439C18.2954 22.5439 22.5376 18.3252 22.5376 13.0869C22.5376 7.88379 18.2719 3.61816 13.0688 3.61816C7.81885 3.61816 3.6001 7.84863 3.6001 13.0869C3.6001 18.3486 7.80713 22.5439 13.0688 22.5439ZM13.0688 21.4072C8.42823 21.4072 4.74854 17.7275 4.74854 13.0869C4.74854 8.48144 8.46338 4.7666 13.0688 4.7666C17.6626 4.7666 21.3891 8.49316 21.3891 13.0869C21.3891 17.6924 17.6743 21.4072 13.0688 21.4072Z" fill="black" fill-opacity="0.85"/>
<path d="M13.0688 17.9267C15.7407 17.9267 17.8852 15.7705 17.8852 13.1103C17.8852 10.4502 15.729 8.29395 13.0688 8.29395C10.3969 8.29395 8.25244 10.4385 8.25244 13.1103C8.25244 15.7822 10.3852 17.9267 13.0688 17.9267ZM13.0688 15.7119C11.6274 15.7119 10.4672 14.5517 10.4672 13.1103C10.4672 11.6689 11.6274 10.5088 13.0688 10.5088C14.4985 10.5088 15.6704 11.6806 15.6704 13.1103C15.6704 14.5517 14.5102 15.7119 13.0688 15.7119Z" fill="black" fill-opacity="0.85"/>
</g>
<defs>
<clipPath id="clip0_2207_20073">
<rect width="26.0156" height="26.0039" fill="white" transform="translate(0.0610352 0.0908203)"/>
</clipPath>
</defs>
</svg>
