<svg width="25" height="25" viewBox="0 0 25 25" fill="none" xmlns="http://www.w3.org/2000/svg">
<g clip-path="url(#clip0_2207_8332)">
<path d="M12.0498 23.997C18.5889 23.997 24.0029 18.5713 24.0029 12.0439C24.0029 5.50488 18.5772 0.0908203 12.0381 0.0908203C5.51074 0.0908203 0.0966797 5.50488 0.0966797 12.0439C0.0966797 18.5713 5.52246 23.997 12.0498 23.997ZM12.0498 22.0049C6.51856 22.0049 2.10059 17.5752 2.10059 12.0439C2.10059 6.5127 6.50684 2.08301 12.0381 2.08301C17.5694 2.08301 22.0108 6.5127 22.0108 12.0439C22.0108 17.5752 17.5811 22.0049 12.0498 22.0049Z" fill="black" fill-opacity="0.85"/>
<path d="M6.67083 17.0948C6.36614 17.8565 7.19817 18.5128 7.92473 17.7862L11.7333 13.9659C11.9208 13.7901 12.1435 13.7901 12.331 13.9659L16.1396 17.7862C16.8661 18.5128 17.6982 17.8565 17.3935 17.0948L12.8583 5.55183C12.5536 4.75495 11.5107 4.76667 11.1943 5.57527L6.67083 17.0948Z" fill="black" fill-opacity="0.85"/>
</g>
<defs>
<clipPath id="clip0_2207_8332">
<rect width="23.9062" height="23.918" fill="white" transform="translate(0.0966797 0.0908203)"/>
</clipPath>
</defs>
</svg>
