<svg width="22" height="22" viewBox="0 0 22 22" fill="none" xmlns="http://www.w3.org/2000/svg">
<g clip-path="url(#clip0_2207_8297)">
<path d="M3.69654 21.69H17.9113C20.3723 21.69 21.591 20.4712 21.591 18.0571V3.74854C21.591 1.33448 20.3723 0.115723 17.9113 0.115723H3.69654C1.24732 0.115723 0.0168457 1.32276 0.0168457 3.74854V18.0571C0.0168457 20.4829 1.24732 21.69 3.69654 21.69Z" fill="black" fill-opacity="0.85"/>
<path d="M4.44653 11.8932C3.39184 11.8932 3.27465 10.7565 4.04809 10.3932L15.4621 4.96736C16.4113 4.52205 17.2082 5.33064 16.7746 6.26814L11.4074 17.694C11.0441 18.4791 9.90746 18.3736 9.90746 17.2838L9.89575 12.2916C9.89575 12.0572 9.7434 11.8932 9.52075 11.8932H4.44653Z" fill="white"/>
</g>
<defs>
<clipPath id="clip0_2207_8297">
<rect width="21.5742" height="21.5977" fill="white" transform="translate(0.0168457 0.0922852)"/>
</clipPath>
</defs>
</svg>
