<svg width="17" height="31" viewBox="0 0 17 31" fill="none" xmlns="http://www.w3.org/2000/svg">
<g clip-path="url(#clip0_2207_8346)">
<path d="M1.4104 28.8267C1.96118 28.8267 2.5354 28.5103 2.99243 28.0767L7.69165 23.6235C7.82056 23.4946 7.91431 23.4361 8.00806 23.4361C8.10181 23.4361 8.19556 23.4946 8.32446 23.6235L13.0237 28.0767C13.4808 28.5103 14.0433 28.8267 14.6058 28.8267C15.4025 28.8267 16.0119 28.0884 16.0119 27.3032C16.0119 26.8345 15.8245 26.3189 15.5784 25.6626L9.62524 10.2993C9.22681 9.27979 8.67603 8.8462 8.00806 8.8462C7.34009 8.8462 6.78931 9.27979 6.39087 10.2993L0.437744 25.6626C0.19165 26.3189 0.00415039 26.8345 0.00415039 27.3032C0.00415039 28.0884 0.601806 28.8267 1.4104 28.8267ZM8.00806 7.24073C8.57056 7.24073 8.94556 6.84229 8.94556 6.2212V1.1001C8.94556 0.479004 8.57056 0.0922852 8.00806 0.0922852C7.44556 0.0922852 7.05884 0.479004 7.05884 1.1001V6.2212C7.05884 6.84229 7.44556 7.24073 8.00806 7.24073Z" fill="black" fill-opacity="0.85"/>
</g>
<defs>
<clipPath id="clip0_2207_8346">
<rect width="16.0078" height="30.3398" fill="white" transform="translate(0.00415039 0.0922852)"/>
</clipPath>
</defs>
</svg>
