<svg width="24" height="25" viewBox="0 0 24 25" fill="none" xmlns="http://www.w3.org/2000/svg">
<g clip-path="url(#clip0_2207_8314)">
<path d="M11.9614 23.9985C18.5005 23.9985 23.9145 18.5728 23.9145 12.0454C23.9145 5.50635 18.4888 0.0922852 11.9497 0.0922852C5.42236 0.0922852 0.00830078 5.50635 0.00830078 12.0454C0.00830078 18.5728 5.43408 23.9985 11.9614 23.9985ZM11.9614 22.0064C6.43018 22.0064 2.01221 17.5767 2.01221 12.0454C2.01221 6.51417 6.41846 2.08448 11.9497 2.08448C17.481 2.08448 21.9224 6.51417 21.9224 12.0454C21.9224 17.5767 17.4927 22.0064 11.9614 22.0064Z" fill="black" fill-opacity="0.85"/>
<path d="M5.52782 13.0297L10.438 13.0414C10.6606 13.0414 10.813 13.182 10.813 13.4164V18.268C10.813 19.311 11.9145 19.4164 12.2661 18.6664L17.4692 7.56879C17.9028 6.66645 17.1177 5.89301 16.2036 6.32661L5.1411 11.5766C4.37938 11.9399 4.49657 13.0297 5.52782 13.0297Z" fill="black" fill-opacity="0.85"/>
<path d="M16.6606 18.6665C17.1997 19.1939 18.0669 19.2056 18.5825 18.6665C19.1333 18.1275 19.1216 17.2954 18.5825 16.7564L7.23877 5.4126C6.69971 4.87354 5.84424 4.87354 5.31689 5.4126C4.77783 5.93995 4.77783 6.80713 5.31689 7.33448L16.6606 18.6665Z" fill="white"/>
<path d="M17.2466 18.0923C17.4458 18.2915 17.7974 18.2915 17.9966 18.0923C18.2075 17.8696 18.2075 17.5532 17.9966 17.3423L6.66455 5.99854C6.45361 5.7876 6.11377 5.7876 5.90283 5.99854C5.69189 6.19776 5.70361 6.54932 5.90283 6.74854L17.2466 18.0923Z" fill="black" fill-opacity="0.85"/>
</g>
<defs>
<clipPath id="clip0_2207_8314">
<rect width="23.9062" height="23.918" fill="white" transform="translate(0.00830078 0.0922852)"/>
</clipPath>
</defs>
</svg>
