<svg width="27" height="25" viewBox="0 0 27 25" fill="none" xmlns="http://www.w3.org/2000/svg">
<g clip-path="url(#clip0_2207_12761)">
<path d="M0.0944824 12.0454C0.0944824 18.5728 5.52026 23.9985 12.0476 23.9985C15.9968 23.9985 19.5007 21.9946 21.7156 18.9946C22.114 18.479 21.9851 17.8345 21.5164 17.5415C21.0242 17.2485 20.4617 17.4009 20.1101 17.8814C18.3054 20.3657 15.3875 21.9946 12.0476 22.0064C6.51636 22.0181 2.08667 17.5767 2.08667 12.0454C2.08667 6.51417 6.51636 2.0962 12.0476 2.0962C16.8054 2.0962 20.7429 5.35401 21.7507 9.7837H20.0633C19.2312 9.7837 19.0203 10.3579 19.4656 11.0025L22.0906 14.7407C22.4656 15.2681 23.0281 15.2798 23.4148 14.7407L26.0281 11.0142C26.4968 10.3579 26.2742 9.7837 25.4422 9.7837H23.7781C22.7117 4.29932 17.8133 0.0922852 12.0476 0.0922852C5.52026 0.0922852 0.0944824 5.50635 0.0944824 12.0454Z" fill="black" fill-opacity="0.85"/>
<path d="M7.80542 16.6743C7.80542 17.5532 8.19214 17.9634 9.00073 17.9634H15.0711C15.8797 17.9634 16.2664 17.5532 16.2664 16.6743V12.0103C16.2664 11.19 15.9265 10.7798 15.2351 10.7329V9.35009C15.2351 7.19384 13.9461 5.74072 12.0359 5.74072C10.1257 5.74072 8.83667 7.19384 8.83667 9.35009V10.7329C8.14526 10.7798 7.80542 11.19 7.80542 12.0103V16.6743ZM10.0554 10.7212V9.22119C10.0554 7.83837 10.8523 6.92431 12.0359 6.92431C13.2195 6.92431 14.0164 7.83837 14.0164 9.22119V10.7212H10.0554Z" fill="black" fill-opacity="0.85"/>
</g>
<defs>
<clipPath id="clip0_2207_12761">
<rect width="26.1752" height="23.918" fill="white" transform="translate(0.0944824 0.0922852)"/>
</clipPath>
</defs>
</svg>
