<svg width="20" height="27" viewBox="0 0 20 27" fill="none" xmlns="http://www.w3.org/2000/svg">
<g clip-path="url(#clip0_2207_13821)">
<path d="M0.0693359 23.4009C0.0693359 25.2525 1.37012 26.4946 3.31543 26.4946H16.4052C18.3505 26.4946 19.6513 25.2525 19.6513 23.4009V3.19776C19.6513 1.3462 18.3505 0.0922852 16.4052 0.0922852H3.31543C1.37012 0.0922852 0.0693359 1.3462 0.0693359 3.19776V23.4009ZM1.95606 23.0845V3.51417C1.95606 2.55323 2.542 1.97901 3.54981 1.97901H16.1709C17.167 1.97901 17.7646 2.55323 17.7646 3.51417V23.0845C17.7646 24.0454 17.167 24.6079 16.1709 24.6079H3.54981C2.542 24.6079 1.95606 24.0454 1.95606 23.0845Z" fill="black" fill-opacity="0.85"/>
<path d="M5.65918 16.2759C5.65918 16.9439 5.97559 17.272 6.6084 17.272H10.5927C11.2255 17.272 11.542 16.9439 11.542 16.2759V13.229C11.542 12.5611 11.2255 12.2212 10.5927 12.2212H6.6084C5.97559 12.2212 5.65918 12.5611 5.65918 13.229V16.2759ZM9.69043 12.9009H10.8505V11.2368C10.8505 10.3696 11.3076 9.80713 12.1045 9.80713C12.9013 9.80713 13.3701 10.3696 13.3701 11.2368V12.0689C13.3701 12.3853 13.6279 12.6548 13.956 12.6548C14.2607 12.6548 14.5302 12.3853 14.5302 12.0689V11.2368C14.5302 9.76026 13.5693 8.68213 12.1045 8.68213C10.6396 8.68213 9.69043 9.76026 9.69043 11.3423V12.9009Z" fill="black" fill-opacity="0.85"/>
</g>
<defs>
<clipPath id="clip0_2207_13821">
<rect width="19.582" height="26.4258" fill="white" transform="translate(0.0693359 0.0922852)"/>
</clipPath>
</defs>
</svg>
