<svg width="22" height="22" viewBox="0 0 22 22" fill="none" xmlns="http://www.w3.org/2000/svg">
<g clip-path="url(#clip0_2207_12604)">
<path d="M3.68384 21.6915H17.8987C20.3597 21.6915 21.5784 20.4727 21.5784 18.0585V3.75C21.5784 1.33594 20.3597 0.117188 17.8987 0.117188H3.68384C1.23462 0.117188 0.00415039 1.32422 0.00415039 3.75V18.0585C0.00415039 20.4844 1.23462 21.6915 3.68384 21.6915ZM3.70727 19.8046C2.5354 19.8046 1.89087 19.1835 1.89087 17.9648V3.84375C1.89087 2.625 2.5354 2.00391 3.70727 2.00391H17.8752C19.0354 2.00391 19.6917 2.625 19.6917 3.84375V17.9648C19.6917 19.1835 19.0354 19.8046 17.8752 19.8046H3.70727Z" fill="black" fill-opacity="0.85"/>
<path d="M6.56665 15.504C6.56665 16.3829 6.95337 16.793 7.76196 16.793H13.8323C14.6526 16.793 15.0394 16.3829 15.0394 15.504V10.8399C15.0394 10.0195 14.6995 9.62109 13.9964 9.57422V8.17969C13.9964 6.02344 12.7073 4.58203 10.7972 4.58203C8.88696 4.58203 7.5979 6.02344 7.5979 8.17969V9.57422C6.90649 9.62109 6.56665 10.0195 6.56665 10.8399V15.504ZM8.81665 9.5625V8.05078C8.81665 6.67969 9.61353 5.76563 10.7972 5.76563C11.9808 5.76563 12.7776 6.67969 12.7776 8.05078V9.5625H8.81665Z" fill="black" fill-opacity="0.85"/>
</g>
<defs>
<clipPath id="clip0_2207_12604">
<rect width="21.5742" height="21.5977" fill="white" transform="translate(0.00415039 0.09375)"/>
</clipPath>
</defs>
</svg>
