<svg width="31" height="28" viewBox="0 0 31 28" fill="none" xmlns="http://www.w3.org/2000/svg">
<g clip-path="url(#clip0_2207_12672)">
<path d="M3.76782 20.0025H19.7756C22.2248 20.0025 23.4553 18.7837 23.4553 16.3696V5.31885C23.4553 2.90479 22.2248 1.68604 19.7756 1.68604H3.76782C1.3186 1.68604 0.0881348 2.90479 0.0881348 5.31885V16.3696C0.0881348 18.7954 1.3186 20.0025 3.76782 20.0025Z" fill="black" fill-opacity="0.85"/>
<path d="M9.55689 27.0337H25.5647C28.8928 27.0337 30.8498 25.1001 30.8498 21.7954V10.7446C30.8498 7.43995 28.8928 5.51807 25.5647 5.51807H9.55689C6.21705 5.51807 4.28345 7.43995 4.28345 10.7446V21.7954C4.28345 25.1118 6.21705 27.0337 9.55689 27.0337Z" fill="white"/>
<path d="M9.55689 25.4282H25.5647C28.0139 25.4282 29.2443 24.2095 29.2443 21.7954V10.7446C29.2443 8.33057 28.0139 7.11182 25.5647 7.11182H9.55689C7.10767 7.11182 5.8772 8.33057 5.8772 10.7446V21.7954C5.8772 24.2212 7.10767 25.4282 9.55689 25.4282Z" fill="black" fill-opacity="0.85"/>
<path d="M13.2014 21.0571V16.2525C13.2014 15.397 13.5529 14.9751 14.2561 14.9282V13.5103C14.2561 11.2837 15.6037 9.78369 17.5608 9.78369C19.5295 9.78369 20.8654 11.2837 20.8654 13.5103V14.9282C21.5803 14.9751 21.9319 15.397 21.9319 16.2525V21.0571C21.9319 21.9595 21.5334 22.3814 20.6897 22.3814H14.4319C13.5998 22.3814 13.2014 21.9595 13.2014 21.0571ZM15.5217 14.9165H19.5998V13.3696C19.5998 11.9517 18.7912 11.0025 17.5608 11.0025C16.342 11.0025 15.5217 11.9517 15.5217 13.3696V14.9165Z" fill="white"/>
</g>
<defs>
<clipPath id="clip0_2207_12672">
<rect width="30.7617" height="26.9414" fill="white" transform="translate(0.0881348 0.0922852)"/>
</clipPath>
</defs>
</svg>
