<svg width="25" height="27" viewBox="0 0 25 27" fill="none" xmlns="http://www.w3.org/2000/svg">
<g clip-path="url(#clip0_2207_12689)">
<path d="M6.87012 24.7236H17.6045C19.3154 24.7236 20.2295 23.7861 20.2295 21.9345V13.8603C20.2295 12.0205 19.3154 11.083 17.6045 11.083H6.87012C5.14746 11.083 4.2334 12.0205 4.2334 13.8603V21.9345C4.2334 23.7861 5.14746 24.7236 6.87012 24.7236ZM6.94043 22.9541C6.43652 22.9541 6.13184 22.6377 6.13184 22.0635V13.7314C6.13184 13.1572 6.43652 12.8525 6.94043 12.8525H17.5459C18.0498 12.8525 18.3428 13.1572 18.3428 13.7314V22.0635C18.3428 22.6377 18.0498 22.9541 17.5459 22.9541H6.94043ZM6.2959 11.9853H8.14746V8.03613C8.14746 5.07129 10.0459 3.51269 12.2373 3.51269C14.4287 3.51269 16.3271 5.07129 16.3271 8.03613V11.9853H18.1904V8.28223C18.1904 3.87598 15.3076 1.74316 12.2373 1.74316C9.16699 1.74316 6.2959 3.87598 6.2959 8.28223V11.9853Z" fill="black" fill-opacity="0.85"/>
<path d="M20.7686 26.3174C21.6709 27.208 23.124 27.208 23.9912 26.2939C24.8584 25.4033 24.8584 23.9853 23.9795 23.1064L3.88184 3.02051C3.00293 2.12988 1.5498 2.12988 0.65918 3.02051C-0.219727 3.88769 -0.219727 5.35254 0.65918 6.23144L20.7686 26.3174Z" fill="white"/>
<path d="M21.7412 25.3447C22.0928 25.6963 22.667 25.6963 23.0186 25.3447C23.3584 24.9931 23.3701 24.4189 23.0186 24.0674L2.9209 3.98144C2.56934 3.62988 1.9834 3.62988 1.63184 3.98144C1.29199 4.33301 1.29199 4.91894 1.63184 5.25879L21.7412 25.3447Z" fill="black" fill-opacity="0.85"/>
</g>
<defs>
<clipPath id="clip0_2207_12689">
<rect width="24.6401" height="26.8887" fill="white" transform="translate(0 0.09375)"/>
</clipPath>
</defs>
</svg>
