<svg width="25" height="32" viewBox="0 0 25 32" fill="none" xmlns="http://www.w3.org/2000/svg">
<g clip-path="url(#clip0_2207_12628)">
<path d="M8.42456 13.6289H15.9246C16.9675 13.6289 17.5769 13.0429 17.5769 12.0117V3.62109C17.5769 2.58984 16.9675 2.00391 15.9246 2.00391H8.42456C7.38159 2.00391 6.77222 2.58984 6.77222 3.62109V12.0117C6.77222 13.0429 7.38159 13.6289 8.42456 13.6289Z" fill="black" fill-opacity="0.85"/>
<path d="M6.6433 22.1249H17.7175C20.0496 22.1249 21.5847 20.6015 21.5847 18.2812V7.33594C21.5847 5.01563 20.0496 3.50391 17.7175 3.50391H6.6433C4.31127 3.50391 2.7644 5.01563 2.7644 7.33594V18.2812C2.7644 20.6015 4.31127 22.1249 6.6433 22.1249Z" fill="white"/>
<path d="M6.5144 20.5312H17.8464C19.2175 20.5312 19.991 19.7578 19.991 18.4101V7.20703C19.991 5.85937 19.2175 5.09766 17.8464 5.09766H6.5144C5.1433 5.09766 4.35815 5.85937 4.35815 7.20703V18.4101C4.35815 19.7578 5.1433 20.5312 6.5144 20.5312Z" fill="black" fill-opacity="0.85"/>
<path d="M5.57691 31.0898H18.7722C22.2644 31.0898 24.3386 29.039 24.3386 25.5703V12.2812C24.3386 8.8125 22.2644 6.76172 18.7722 6.76172H5.57691C2.08472 6.76172 0.010498 8.80078 0.010498 12.2812V25.5703C0.010498 29.039 2.08472 31.0898 5.57691 31.0898Z" fill="white"/>
<path d="M5.57691 29.2031H18.7722C21.2214 29.2031 22.4519 27.9843 22.4519 25.5703V12.2812C22.4519 9.86719 21.2214 8.64844 18.7722 8.64844H5.57691C3.12769 8.64844 1.89722 9.85547 1.89722 12.2812V25.5703C1.89722 27.9843 3.12769 29.2031 5.57691 29.2031Z" fill="black" fill-opacity="0.85"/>
<path d="M7.81519 23.7656V18.9609C7.81519 18.1054 8.16675 17.6835 8.86988 17.6367V16.2187C8.86988 13.9921 10.2175 12.5039 12.1746 12.5039C14.1433 12.5039 15.4793 13.9921 15.4793 16.2187V17.6367C16.1941 17.6835 16.5457 18.1054 16.5457 18.9609V23.7656C16.5457 24.6679 16.1472 25.0898 15.3035 25.0898H9.04566C8.21362 25.0898 7.81519 24.6679 7.81519 23.7656ZM10.1355 17.6249H14.2136V16.0781C14.2136 14.6718 13.405 13.7226 12.1746 13.7226C10.9558 13.7226 10.1355 14.6718 10.1355 16.0781V17.6249Z" fill="white"/>
</g>
<defs>
<clipPath id="clip0_2207_12628">
<rect width="24.3281" height="30.9961" fill="white" transform="translate(0.010498 0.09375)"/>
</clipPath>
</defs>
</svg>
