<svg width="28" height="22" viewBox="0 0 28 22" fill="none" xmlns="http://www.w3.org/2000/svg">
<g clip-path="url(#clip0_2207_12642)">
<path d="M3.76367 21.6665H24.0371C26.4981 21.6665 27.7168 20.4595 27.7168 18.0454V3.7251C27.7168 1.31104 26.4981 0.0922852 24.0371 0.0922852H3.76367C1.31445 0.0922852 0.0839844 1.31104 0.0839844 3.7251V18.0454C0.0839844 20.4595 1.31445 21.6665 3.76367 21.6665Z" fill="black" fill-opacity="0.85"/>
<path d="M9.54102 15.6665V10.8618C9.54102 10.0063 9.89258 9.58447 10.6074 9.53759V8.11963C10.6074 5.89306 11.9434 4.40479 13.9121 4.40479C15.8809 4.40479 17.2168 5.89306 17.2168 8.11963V9.53759C17.9199 9.58447 18.2715 10.0063 18.2715 10.8618V15.6665C18.2715 16.5689 17.8731 16.9907 17.041 16.9907H10.7832C9.93946 16.9907 9.54102 16.5689 9.54102 15.6665ZM11.8731 9.52588H15.9512V7.97901C15.9512 6.57276 15.1309 5.62354 13.9121 5.62354C12.6817 5.62354 11.8731 6.57276 11.8731 7.97901V9.52588Z" fill="white"/>
</g>
<defs>
<clipPath id="clip0_2207_12642">
<rect width="27.6328" height="21.5742" fill="white" transform="translate(0.0839844 0.0922852)"/>
</clipPath>
</defs>
</svg>
