<svg width="18" height="26" viewBox="0 0 18 26" fill="none" xmlns="http://www.w3.org/2000/svg">
<g clip-path="url(#clip0_2207_14101)">
<path d="M0.0610352 17.3775C0.0610352 19.1939 0.775879 20.5298 2.1001 21.2564C2.74463 21.5962 3.11963 22.0298 3.35401 22.815L3.72901 24.0689C3.95166 24.8189 4.47901 25.1821 5.26416 25.1821H10.6782C11.4868 25.1821 11.979 24.8306 12.2016 24.0689L12.5883 22.815C12.8227 22.0298 13.1977 21.5962 13.8422 21.2564C15.1665 20.5298 15.8813 19.1939 15.8813 17.3775V7.89698C15.8813 6.08056 15.1665 4.75635 13.8422 4.01807C13.1977 3.67823 12.8227 3.24463 12.5883 2.4712L12.2016 1.20557C12.0024 0.467285 11.4751 0.0922852 10.6782 0.0922852H5.26416C4.47901 0.0922852 3.95166 0.455566 3.72901 1.20557L3.35401 2.4712C3.13135 3.23291 2.75635 3.68995 2.1001 4.01807C0.787597 4.7212 0.0610352 6.05713 0.0610352 7.89698V17.3775ZM1.77198 17.1314V8.15479C1.77198 6.4087 2.79151 5.35401 4.50245 5.35401H11.4399C13.1508 5.35401 14.1704 6.4087 14.1704 8.15479V17.1314C14.1704 18.8657 13.1508 19.9204 11.4399 19.9204H4.50245C2.79151 19.9204 1.77198 18.8657 1.77198 17.1314ZM15.6235 11.8111H16.0454C16.6548 11.8111 17.0532 11.4009 17.0532 10.7329V9.15088C17.0532 8.48291 16.6548 8.07276 16.0454 8.07276H15.6235V11.8111Z" fill="black" fill-opacity="0.85"/>
<path d="M3.7876 15.6079C3.7876 16.2759 4.11573 16.6157 4.74854 16.6157H8.73292C9.36573 16.6157 9.69385 16.2759 9.69385 15.6079V12.5493C9.69385 11.8814 9.36573 11.5532 8.73292 11.5532H4.74854C4.11573 11.5532 3.7876 11.8814 3.7876 12.5493V15.6079ZM7.83057 12.2329H8.99073V10.5571C8.99073 9.68994 9.45948 9.12744 10.2563 9.12744C11.0532 9.12744 11.5219 9.68994 11.5219 10.5571V11.3892C11.5219 11.7173 11.7798 11.9751 12.1079 11.9751C12.4126 11.9751 12.6821 11.7173 12.6821 11.3892V10.5571C12.6821 9.08056 11.7212 8.00244 10.2563 8.00244C8.77979 8.00244 7.83057 9.08056 7.83057 10.6626V12.2329Z" fill="black" fill-opacity="0.85"/>
</g>
<defs>
<clipPath id="clip0_2207_14101">
<rect width="16.9922" height="25.0898" fill="white" transform="translate(0.0610352 0.0922852)"/>
</clipPath>
</defs>
</svg>
