<svg width="25" height="27" viewBox="0 0 25 27" fill="none" xmlns="http://www.w3.org/2000/svg">
<g clip-path="url(#clip0_2207_12695)">
<path d="M6.87232 24.7236H17.6067C19.3176 24.7236 20.2317 23.7861 20.2317 21.9345V13.8603C20.2317 12.0088 19.3176 11.083 17.6067 11.083H6.87232C5.14966 11.083 4.2356 12.0088 4.2356 13.8603V21.9345C4.2356 23.7861 5.14966 24.7236 6.87232 24.7236ZM6.2981 11.9853H8.14966V8.02442C8.14966 5.0713 10.0481 3.50099 12.2395 3.50099C14.4309 3.50099 16.3293 5.0713 16.3293 8.02442V11.9853H18.1926V8.28224C18.1926 3.87599 15.3098 1.73145 12.2395 1.73145C9.16919 1.73145 6.2981 3.87599 6.2981 8.28224V11.9853Z" fill="black" fill-opacity="0.85"/>
<path d="M20.7708 26.3174C21.6731 27.208 23.1262 27.208 23.9934 26.2939C24.8606 25.4033 24.8606 23.9853 23.9817 23.1064L3.88404 3.02051C3.00513 2.12988 1.552 2.12988 0.661378 3.02051C-0.217529 3.88769 -0.217529 5.35254 0.661378 6.23144L20.7708 26.3174Z" fill="white"/>
<path d="M21.7434 25.3447C22.095 25.6963 22.6692 25.6963 23.0208 25.3447C23.3606 24.9931 23.3723 24.4189 23.0208 24.0674L2.9231 3.98144C2.57154 3.62988 1.9856 3.62988 1.63404 3.98144C1.29419 4.33301 1.29419 4.91894 1.63404 5.25879L21.7434 25.3447Z" fill="black" fill-opacity="0.85"/>
</g>
<defs>
<clipPath id="clip0_2207_12695">
<rect width="24.6401" height="26.8887" fill="white" transform="translate(0.00219727 0.09375)"/>
</clipPath>
</defs>
</svg>
