<svg width="31" height="23" viewBox="0 0 31 23" fill="none" xmlns="http://www.w3.org/2000/svg">
<g clip-path="url(#clip0_2207_17810)">
<path d="M4.27728 22.1367L8.88275 21.246C11.3672 20.7656 12.4687 19.4179 12.4687 16.7812V4.03125C12.4687 1.67578 10.8164 0.09375 8.36713 0.09375C6.28119 0.09375 4.51166 1.58203 3.92572 3.77344L0.222595 17.8125C-0.57428 20.8007 1.21869 22.7226 4.27728 22.1367ZM26.6836 22.1367C29.7422 22.7226 31.5351 20.8007 30.7383 17.8125L27.0351 3.77344C26.4492 1.58203 24.6797 0.09375 22.5937 0.09375C20.1445 0.09375 18.4922 1.67578 18.4922 4.03125V16.7812C18.4922 19.4179 19.5937 20.7656 22.0781 21.246L26.6836 22.1367Z" fill="black" fill-opacity="0.85"/>
<path d="M6.08196 16.9101C5.58977 17.0156 5.05071 16.6875 4.95696 16.1835C4.86321 15.6914 5.20305 15.1757 5.6718 15.082L8.82415 14.414L6.24602 12.1054C5.87102 11.7656 5.82415 11.1445 6.15227 10.7578C6.50384 10.3828 7.13665 10.371 7.49993 10.6992L11.0859 13.9335L12.4687 13.6289V15.5507L6.08196 16.9101ZM24.8789 16.9101L18.4922 15.5507V13.6289L19.875 13.9335L23.4609 10.6992C23.8242 10.371 24.457 10.3828 24.8086 10.7578C25.1367 11.1445 25.0898 11.7656 24.7148 12.1054L22.1367 14.414L25.289 15.082C25.7578 15.1757 26.0976 15.6914 26.0039 16.1835C25.9101 16.6875 25.3711 17.0156 24.8789 16.9101Z" fill="white"/>
<path d="M15.4804 14.9297L18.4922 15.5508V13.629L16.4062 13.1835V1.57031C16.4062 1.05469 15.9961 0.632812 15.4804 0.632812C14.9648 0.632812 14.5429 1.05469 14.5429 1.57031V13.1835L12.4687 13.629V15.5508L15.4804 14.9297Z" fill="black" fill-opacity="0.85"/>
</g>
<defs>
<clipPath id="clip0_2207_17810">
<rect width="30.8937" height="22.6289" fill="white" transform="translate(0.0335693 0.09375)"/>
</clipPath>
</defs>
</svg>
