<svg width="31" height="23" viewBox="0 0 31 23" fill="none" xmlns="http://www.w3.org/2000/svg">
<g clip-path="url(#clip0_2207_17804)">
<path d="M4.2752 22.1367L8.88067 21.246C11.3651 20.7656 12.4666 19.4179 12.4666 16.7812V4.03125C12.4666 1.67578 10.8143 0.09375 8.36505 0.09375C6.27911 0.09375 4.50958 1.58203 3.92364 3.77344L0.220519 17.8125C-0.576356 20.8007 1.21661 22.7226 4.2752 22.1367ZM10.5799 4.03125V16.7812C10.5799 18.5273 10.1229 19.0781 8.54083 19.3946L3.9002 20.2969C2.56427 20.5429 1.67364 19.7344 2.07208 18.2344L5.75177 4.25391C6.12677 2.87109 7.15802 1.98047 8.36505 1.98047C9.68927 1.98047 10.5799 2.78906 10.5799 4.03125ZM26.6815 22.1367C29.7401 22.7226 31.533 20.8007 30.7362 17.8125L27.033 3.77344C26.4471 1.58203 24.6776 0.09375 22.5916 0.09375C20.1424 0.09375 18.4901 1.67578 18.4901 4.03125V16.7812C18.4901 19.4179 19.5916 20.7656 22.076 21.246L26.6815 22.1367ZM20.3768 4.03125C20.3768 2.78906 21.2557 1.98047 22.5916 1.98047C23.7987 1.98047 24.8299 2.87109 25.2049 4.25391L28.8846 18.2344C29.283 19.7344 28.3924 20.5429 27.0565 20.2969L22.4158 19.3946C20.8338 19.0781 20.3768 18.5273 20.3768 16.7812V4.03125Z" fill="black" fill-opacity="0.85"/>
<path d="M6.07988 16.9101L12.4666 15.5507V13.6289L11.0838 13.9335L7.49785 10.6992C7.13457 10.371 6.50176 10.3828 6.15019 10.7578C5.82207 11.1445 5.86894 11.7656 6.24394 12.1054L8.82207 14.414L5.66972 15.082C5.20097 15.1757 4.86113 15.6914 4.95488 16.1835C5.04863 16.6875 5.58769 17.0156 6.07988 16.9101ZM24.8768 16.9101C25.369 17.0156 25.908 16.6875 26.0018 16.1835C26.0955 15.6914 25.7557 15.1757 25.2869 15.082L22.1346 14.414L24.7127 12.1054C25.0877 11.7656 25.1346 11.1445 24.8065 10.7578C24.4549 10.3828 23.8221 10.371 23.4588 10.6992L19.8729 13.9335L18.4901 13.6289V15.5507L24.8768 16.9101Z" fill="black" fill-opacity="0.85"/>
<path d="M15.4783 14.9297L18.4901 15.5508V13.629L16.4041 13.1835V1.57031C16.4041 1.05469 15.994 0.632812 15.4783 0.632812C14.9627 0.632812 14.5408 1.05469 14.5408 1.57031V13.1835L12.4666 13.629V15.5508L15.4783 14.9297Z" fill="black" fill-opacity="0.85"/>
</g>
<defs>
<clipPath id="clip0_2207_17804">
<rect width="30.8937" height="22.6289" fill="white" transform="translate(0.0314941 0.09375)"/>
</clipPath>
</defs>
</svg>
