<svg width="24" height="25" viewBox="0 0 24 25" fill="none" xmlns="http://www.w3.org/2000/svg">
<g clip-path="url(#clip0_2207_25071)">
<path d="M11.9909 24C18.53 24 23.944 18.5742 23.944 12.0469C23.944 5.50781 18.5183 0.09375 11.9792 0.09375C5.4519 0.09375 0.0378418 5.50781 0.0378418 12.0469C0.0378418 18.5742 5.46362 24 11.9909 24Z" fill="black" fill-opacity="0.85"/>
<path d="M7.29175 17.6602C6.75268 17.6602 6.41284 17.2851 6.41284 16.664V7.40625C6.41284 6.73828 6.88159 6.28125 7.56128 6.28125C8.14722 6.28125 8.53393 6.55078 8.74487 7.06641L11.9675 15.0938H12.0261L15.2253 7.06641C15.448 6.55078 15.8347 6.28125 16.4206 6.28125C17.0886 6.28125 17.5573 6.73828 17.5573 7.40625V16.664C17.5573 17.2968 17.2292 17.6602 16.655 17.6602C16.1276 17.6602 15.7995 17.2851 15.7995 16.664V9.71484H15.694L12.905 16.6523C12.7292 17.0859 12.4245 17.2852 11.9792 17.2852C11.5222 17.2852 11.2409 17.0859 11.0534 16.6523L8.28784 9.71484H8.17065V16.664C8.17065 17.2968 7.84253 17.6602 7.29175 17.6602Z" fill="white"/>
</g>
<defs>
<clipPath id="clip0_2207_25071">
<rect width="23.9062" height="23.918" fill="white" transform="translate(0.0378418 0.09375)"/>
</clipPath>
</defs>
</svg>
