<svg width="28" height="22" viewBox="0 0 28 22" fill="none" xmlns="http://www.w3.org/2000/svg">
<g clip-path="url(#clip0_2207_20813)">
<path d="M9.28272 21.129H18.4467C25.2436 21.129 27.6811 18.6094 27.6811 12.3399V8.89453C27.6811 2.625 25.2436 0.09375 18.4467 0.09375H9.28272C2.48584 0.09375 0.0483398 2.625 0.0483398 8.89453V12.3399C0.0483398 18.6094 2.48584 21.129 9.28272 21.129ZM9.28272 19.2421C3.75146 19.2421 1.93506 17.4492 1.93506 12.3399V8.89453C1.93506 3.78516 3.75146 1.98047 9.28272 1.98047H18.4467C23.978 1.98047 25.7944 3.78516 25.7944 8.89453V12.3399C25.7944 17.4492 23.978 19.2421 18.4467 19.2421H9.28272Z" fill="black" fill-opacity="0.85"/>
<path d="M7.1499 15.5273C7.61865 15.5273 7.91162 15.2109 7.91162 14.707V8.37891H7.98193L9.57568 14.5781C9.68115 15.0234 9.97412 15.3515 10.4428 15.3515C10.9233 15.3515 11.1694 15.0351 11.2983 14.5664L12.8921 8.37891H12.9506V14.707C12.9506 15.2109 13.2319 15.5273 13.7124 15.5273C14.2045 15.5273 14.4741 15.2109 14.4741 14.707V6.9375C14.4741 6.17578 14.0053 5.74219 13.2671 5.74219C12.5874 5.74219 12.2124 6.07031 12.0483 6.72656L10.4663 13.1132H10.4077L8.79053 6.72656C8.62646 6.07031 8.23975 5.74219 7.59522 5.74219C6.85693 5.74219 6.38818 6.19922 6.38818 6.9375V14.707C6.38818 15.2109 6.68115 15.5273 7.1499 15.5273ZM16.7944 15.3515H20.8608C21.271 15.3515 21.5171 15.082 21.5171 14.6718C21.5171 14.2265 21.2592 13.9804 20.8608 13.9804H18.0717V13.8867L19.7827 11.7187C20.9545 10.2656 21.3413 9.39844 21.3413 8.36719C21.3413 6.78516 20.2631 5.63672 18.646 5.63672C17.1577 5.63672 16.0092 6.87891 16.0092 8.09766C16.0092 8.53125 16.2671 8.83594 16.7124 8.83594C17.0991 8.83594 17.3452 8.66016 17.4624 8.27344C17.685 7.48828 17.9663 6.99609 18.646 6.99609C19.3491 6.99609 19.7475 7.61719 19.7475 8.44922C19.7475 9.38672 19.0913 10.3359 18.4702 11.1328L16.4311 13.7343C16.2202 14.0156 15.9975 14.3085 15.9975 14.6718C15.9975 15.0703 16.2553 15.3515 16.7944 15.3515Z" fill="black" fill-opacity="0.85"/>
</g>
<defs>
<clipPath id="clip0_2207_20813">
<rect width="27.6328" height="21.0586" fill="white" transform="translate(0.0483398 0.09375)"/>
</clipPath>
</defs>
</svg>
