<svg width="28" height="22" viewBox="0 0 28 22" fill="none" xmlns="http://www.w3.org/2000/svg">
<g clip-path="url(#clip0_2207_20823)">
<path d="M9.28687 21.129H18.4509C25.2478 21.129 27.6853 18.6094 27.6853 12.3399V8.89453C27.6853 2.625 25.2478 0.09375 18.4509 0.09375H9.28687C2.48999 0.09375 0.0524902 2.625 0.0524902 8.89453V12.3399C0.0524902 18.6094 2.48999 21.129 9.28687 21.129ZM9.28687 19.2421C3.75561 19.2421 1.93921 17.4492 1.93921 12.3399V8.89453C1.93921 3.78516 3.75561 1.98047 9.28687 1.98047H18.4509C23.9822 1.98047 25.7986 3.78516 25.7986 8.89453V12.3399C25.7986 17.4492 23.9822 19.2421 18.4509 19.2421H9.28687Z" fill="black" fill-opacity="0.85"/>
<path d="M7.00171 15.5274C7.47046 15.5274 7.76343 15.211 7.76343 14.7071V8.37891H7.83374L9.42749 14.5782C9.54468 15.0235 9.82593 15.3516 10.2947 15.3516C10.7752 15.3516 11.033 15.0352 11.1502 14.5665L12.7439 8.37891H12.8025V14.7071C12.8025 15.211 13.0837 15.5274 13.5642 15.5274C14.0564 15.5274 14.3259 15.211 14.3259 14.7071V6.9375C14.3259 6.17578 13.8689 5.74219 13.1189 5.74219C12.4509 5.74219 12.0642 6.07031 11.9119 6.72656L10.3181 13.1133H10.2713L8.64233 6.72656C8.47827 6.07031 8.09155 5.74219 7.44702 5.74219C6.70874 5.74219 6.23999 6.19922 6.23999 6.9375V14.7071C6.23999 15.211 6.54468 15.5274 7.00171 15.5274ZM18.7673 15.5626C20.4548 15.5626 21.7439 14.5079 21.7439 12.75C21.7439 11.2969 20.8767 10.5821 19.8923 10.4766V10.4415C20.947 10.1602 21.4627 9.21094 21.4627 8.22656C21.4627 6.60937 20.2556 5.68359 18.7322 5.68359C17.5134 5.68359 16.4705 6.36328 16.1306 7.40625C16.072 7.62891 16.0486 7.83984 16.0486 8.03906C16.0486 8.42578 16.2947 8.73047 16.7634 8.73047C17.1619 8.73047 17.3963 8.57813 17.5134 8.16797C17.7009 7.47656 18.0642 7.04297 18.7322 7.04297C19.5056 7.04297 19.8689 7.64063 19.8689 8.41406C19.8689 9.26953 19.3884 9.89063 18.5095 9.89063H18.24C17.8416 9.89063 17.5837 10.1368 17.5837 10.5235C17.5837 10.9102 17.8533 11.1329 18.24 11.1329H18.533C19.5291 11.1329 20.0798 11.6836 20.0798 12.7032C20.0798 13.5118 19.6463 14.2032 18.7791 14.2032C17.9236 14.2032 17.5369 13.629 17.3963 13.0899C17.2908 12.7149 17.033 12.5157 16.658 12.5157C16.2009 12.5157 15.8963 12.7969 15.8963 13.254C15.8963 13.4649 15.9197 13.6758 15.9783 13.8633C16.3181 14.9532 17.5134 15.5626 18.7673 15.5626Z" fill="black" fill-opacity="0.85"/>
</g>
<defs>
<clipPath id="clip0_2207_20823">
<rect width="27.6328" height="21.0586" fill="white" transform="translate(0.0524902 0.09375)"/>
</clipPath>
</defs>
</svg>
