<svg width="28" height="22" viewBox="0 0 28 22" fill="none" xmlns="http://www.w3.org/2000/svg">
<g clip-path="url(#clip0_2207_20833)">
<path d="M9.29102 21.129H18.455C25.2519 21.129 27.6894 18.6094 27.6894 12.3399V8.89453C27.6894 2.625 25.2519 0.09375 18.455 0.09375H9.29102C2.49414 0.09375 0.0566406 2.625 0.0566406 8.89453V12.3399C0.0566406 18.6094 2.49414 21.129 9.29102 21.129ZM9.29102 19.2421C3.75976 19.2421 1.94336 17.4492 1.94336 12.3399V8.89453C1.94336 3.78516 3.75976 1.98047 9.29102 1.98047H18.455C23.9863 1.98047 25.8027 3.78516 25.8027 8.89453V12.3399C25.8027 17.4492 23.9863 19.2421 18.455 19.2421H9.29102Z" fill="black" fill-opacity="0.85"/>
<path d="M6.86523 15.5273C7.32226 15.5273 7.62695 15.2109 7.62695 14.707V8.37891H7.69726L9.29102 14.5781C9.39648 15.0234 9.67773 15.3515 10.1582 15.3515C10.6386 15.3515 10.8847 15.0351 11.0019 14.5664L12.5957 8.37891H12.666V14.707C12.666 15.2109 12.9472 15.5273 13.416 15.5273C13.9199 15.5273 14.1777 15.2109 14.1777 14.707V6.9375C14.1777 6.17578 13.7207 5.74219 12.9824 5.74219C12.3027 5.74219 11.9277 6.07031 11.7636 6.72656L10.1699 13.1132H10.123L8.50586 6.72656C8.3418 6.07031 7.94336 5.74219 7.31055 5.74219C6.56055 5.74219 6.10352 6.19922 6.10352 6.9375V14.707C6.10352 15.2109 6.39648 15.5273 6.86523 15.5273ZM20.0722 15.5039C20.5175 15.5039 20.8691 15.2343 20.8691 14.6718V13.4999H21.291C21.748 13.4999 21.9589 13.207 21.9589 12.8085C21.9589 12.4335 21.7597 12.1406 21.291 12.1406H20.8691V6.99609C20.8691 6.1875 20.3418 5.73047 19.58 5.73047C18.748 5.73047 18.3613 6.15234 18.0332 6.87891L15.9472 11.4257C15.748 11.8828 15.6777 12.1875 15.6777 12.5507C15.6777 13.1132 16.0644 13.4999 16.6386 13.4999H19.2636V14.6718C19.2636 15.2929 19.7089 15.5039 20.0722 15.5039ZM19.2988 12.1757H17.1191V12.0937L19.2519 7.20703H19.2988V12.1757Z" fill="black" fill-opacity="0.85"/>
</g>
<defs>
<clipPath id="clip0_2207_20833">
<rect width="27.6328" height="21.0586" fill="white" transform="translate(0.0566406 0.09375)"/>
</clipPath>
</defs>
</svg>
