<svg width="38" height="24" viewBox="0 0 38 24" fill="none" xmlns="http://www.w3.org/2000/svg">
<g clip-path="url(#clip0_2207_13293)">
<path d="M0.0629883 20.121C0.0629883 20.8593 0.660644 21.457 1.38721 21.457H32.5474C33.2739 21.457 33.8599 20.8593 33.8599 20.121C33.8599 19.3828 33.2739 18.7851 32.5474 18.7851H29.981V4.87499C29.981 3.23436 29.1021 2.39062 27.4732 2.39062H6.46143C4.91455 2.39062 3.95361 3.23436 3.95361 4.87499V18.7851H1.38721C0.660644 18.7851 0.0629883 19.3828 0.0629883 20.121ZM5.84033 18.7851V5.40233C5.84033 4.65233 6.21533 4.27733 6.97705 4.27733H26.9575C27.7075 4.27733 28.0942 4.65233 28.0942 5.40233V18.7851H5.84033Z" fill="black" fill-opacity="0.85"/>
<path d="M19.106 23.7305H32.7583C35.4068 23.7305 37.0122 22.125 37.0122 19.5118V9.84375C37.0122 7.21875 35.4068 5.60156 32.7583 5.60156H19.106C16.4692 5.60156 14.8638 7.20703 14.8638 9.84375V19.5118C14.8638 22.1368 16.4692 23.7305 19.106 23.7305Z" fill="white"/>
<path d="M19.106 22.1368H32.7583C34.5161 22.1368 35.4185 21.2344 35.4185 19.5118V9.84375C35.4185 8.10937 34.5161 7.20703 32.7583 7.20703H19.106C17.3599 7.20703 16.4575 8.09766 16.4575 9.84375V19.5118C16.4575 21.2344 17.3599 22.1368 19.106 22.1368ZM19.1177 20.4844C18.438 20.4844 18.1099 20.2032 18.1099 19.4649V9.86719C18.1099 9.15234 18.438 8.84766 19.1177 8.84766H32.7466C33.4146 8.84766 33.7661 9.15234 33.7661 9.86719V19.4649C33.7661 20.2032 33.4146 20.4844 32.7466 20.4844H19.1177ZM22.9146 19.4532H28.9614C29.2778 19.4532 29.5122 19.2422 29.5122 18.9141C29.5122 18.586 29.2778 18.3633 28.9614 18.3633H22.9146C22.5982 18.3633 22.3638 18.586 22.3638 18.9141C22.3638 19.2422 22.5982 19.4532 22.9146 19.4532Z" fill="black" fill-opacity="0.85"/>
</g>
<defs>
<clipPath id="clip0_2207_13293">
<rect width="36.9492" height="23.6367" fill="white" transform="translate(0.0629883 0.09375)"/>
</clipPath>
</defs>
</svg>
