<svg width="34" height="20" viewBox="0 0 34 20" fill="none" xmlns="http://www.w3.org/2000/svg">
<g clip-path="url(#clip0_2207_13277)">
<path d="M5.84863 16.5117V3.12891C5.84863 2.37891 6.22363 2.00391 6.97363 2.00391H26.9658C27.7158 2.00391 28.0908 2.37891 28.0908 3.12891V16.5117H5.84863Z" fill="black" fill-opacity="0.85"/>
<path d="M13.4307 2.00391H13.7236C13.8994 2.00391 13.9932 2.08594 13.9932 2.28516V2.41406C13.9932 2.90625 14.3213 3.23437 14.8135 3.23437H19.1494C19.6299 3.23437 19.9346 2.90625 19.9346 2.41406V2.28516C19.9346 2.08594 20.0283 2.00391 20.2275 2.00391H20.5205V1.03125H13.4307V2.00391ZM0.0712891 17.8477C0.0712891 18.586 0.668945 19.1835 1.39551 19.1835H32.544C33.2705 19.1835 33.8682 18.586 33.8682 17.8477C33.8682 17.1094 33.2705 16.5117 32.544 16.5117H29.9775V2.60156C29.9775 0.960938 29.0986 0.117188 27.4697 0.117188H6.46973C4.92285 0.117188 3.96191 0.960938 3.96191 2.60156V16.5117H1.39551C0.668945 16.5117 0.0712891 17.1094 0.0712891 17.8477ZM5.84863 16.5117V3.12891C5.84863 2.37891 6.22363 2.00391 6.97363 2.00391H26.9658C27.7158 2.00391 28.0908 2.37891 28.0908 3.12891V16.5117H5.84863Z" fill="black" fill-opacity="0.85"/>
</g>
<defs>
<clipPath id="clip0_2207_13277">
<rect width="33.7969" height="19.0898" fill="white" transform="translate(0.0712891 0.09375)"/>
</clipPath>
</defs>
</svg>
