<svg width="34" height="20" viewBox="0 0 34 20" fill="none" xmlns="http://www.w3.org/2000/svg">
<g clip-path="url(#clip0_2207_13282)">
<path d="M5.83838 16.5117V3.12891C5.83838 2.37891 6.21338 2.00391 6.96338 2.00391H26.9555C27.7055 2.00391 28.0805 2.37891 28.0805 3.12891V16.5117H5.83838Z" fill="black" fill-opacity="0.85"/>
<path d="M13.4204 2.00391H13.7133C13.8891 2.00391 13.9829 2.08594 13.9829 2.28516V2.41406C13.9829 2.90625 14.311 3.23437 14.8032 3.23437H19.1391C19.6196 3.23437 19.9243 2.90625 19.9243 2.41406V2.28516C19.9243 2.08594 20.018 2.00391 20.2172 2.00391H20.5102V1.03125H13.4204V2.00391ZM0.0610352 17.8477C0.0610352 18.586 0.658691 19.1835 1.38526 19.1835H32.5337C33.2602 19.1835 33.8579 18.586 33.8579 17.8477C33.8579 17.1094 33.2602 16.5117 32.5337 16.5117H29.9672V2.60156C29.9672 0.960938 29.0883 0.117188 27.4594 0.117188H6.45948C4.91259 0.117188 3.95166 0.960938 3.95166 2.60156V16.5117H1.38526C0.658691 16.5117 0.0610352 17.1094 0.0610352 17.8477ZM5.83838 16.5117V3.12891C5.83838 2.37891 6.21338 2.00391 6.96338 2.00391H26.9555C27.7055 2.00391 28.0805 2.37891 28.0805 3.12891V16.5117H5.83838Z" fill="black" fill-opacity="0.85"/>
</g>
<defs>
<clipPath id="clip0_2207_13282">
<rect width="33.7969" height="19.0898" fill="white" transform="translate(0.0610352 0.09375)"/>
</clipPath>
</defs>
</svg>
