<svg width="25" height="28" viewBox="0 0 25 28" fill="none" xmlns="http://www.w3.org/2000/svg">
<g clip-path="url(#clip0_2207_13193)">
<path d="M10.9057 17.8829C11.4448 17.8829 11.7026 17.5312 12.3588 17.5312C13.0503 17.5312 13.2143 17.8829 13.812 17.8829C14.4096 17.8829 14.8081 17.3085 15.1831 16.7929C15.6167 16.1835 15.769 15.5743 15.7807 15.5274C15.7456 15.5157 14.6088 15.0703 14.6088 13.7578C14.6088 12.6328 15.4995 12.1172 15.5581 12.0821C14.9487 11.2266 14.0698 11.2031 13.812 11.2031C13.144 11.2031 12.6049 11.6016 12.2534 11.6016C11.8901 11.6016 11.4214 11.2266 10.8354 11.2266C9.73389 11.2266 8.63233 12.129 8.63233 13.8516C8.63233 14.9179 9.04248 16.0313 9.54639 16.7579C9.97998 17.3672 10.3549 17.8829 10.9057 17.8829ZM12.312 11.121C12.7104 11.121 13.2143 10.8516 13.5073 10.4882C13.7768 10.1601 13.9643 9.70313 13.9643 9.25781C13.9643 9.1875 13.9643 9.12891 13.9526 9.08203C13.5073 9.09375 12.9799 9.375 12.6518 9.73828C12.394 10.0312 12.1831 10.4882 12.1831 10.9453C12.1831 11.0156 12.1831 11.0859 12.1948 11.0976C12.2182 11.121 12.2534 11.121 12.312 11.121ZM2.44483 27.7852H4.14405C5.09326 27.7852 5.71436 27.3399 5.97217 26.461L6.46436 24.7969H17.9018L18.394 26.461C18.6518 27.3399 19.2846 27.7852 20.2338 27.7852H21.9331C23.4565 27.7852 24.2885 26.9062 24.2885 25.3008V2.58984C24.2885 0.984375 23.4565 0.105469 21.9331 0.105469H20.2338C19.2846 0.105469 18.6518 0.550781 18.394 1.42969L17.9018 3.09375H6.46436L5.97217 1.42969C5.71436 0.550781 5.09326 0.105469 4.14405 0.105469H2.44483C0.921387 0.105469 0.0776367 0.984375 0.0776367 2.58984V25.3008C0.0776367 26.9062 0.921387 27.7852 2.44483 27.7852ZM2.56202 25.8985C2.18702 25.8985 1.96436 25.664 1.96436 25.289V2.60156C1.96436 2.22656 2.18702 1.99219 2.56202 1.99219H3.85108C4.06202 1.99219 4.24952 2.12109 4.31983 2.34375L4.87061 4.23047C5.02295 4.73437 5.31592 4.98047 5.93702 4.98047H18.4409C19.0503 4.98047 19.3432 4.73437 19.4956 4.23047L20.0464 2.34375C20.1167 2.12109 20.3042 1.99219 20.5151 1.99219H21.8042C22.1792 1.99219 22.4018 2.22656 22.4018 2.60156V25.289C22.4018 25.664 22.1792 25.8985 21.8042 25.8985H20.5151C20.3042 25.8985 20.1167 25.7696 20.0464 25.5469L19.4956 23.6485C19.3432 23.1562 19.0503 22.9102 18.4409 22.9102H5.93702C5.31592 22.9102 5.02295 23.1562 4.87061 23.6485L4.31983 25.5469C4.24952 25.7696 4.06202 25.8985 3.85108 25.8985H2.56202Z" fill="black" fill-opacity="0.85"/>
</g>
<defs>
<clipPath id="clip0_2207_13193">
<rect width="24.2109" height="27.6914" fill="white" transform="translate(0.0776367 0.09375)"/>
</clipPath>
</defs>
</svg>
