<svg width="21" height="28" viewBox="0 0 21 28" fill="none" xmlns="http://www.w3.org/2000/svg">
<g clip-path="url(#clip0_2207_1607)">
<path d="M0.00634766 24.2358C0.00634766 25.1499 0.205567 25.7007 1.07276 26.1225C3.07666 26.9897 5.84229 27.564 9.15869 27.564C12.4399 27.564 16.1313 27.0718 18.7797 25.7827C20.186 25.1147 20.5258 24.4936 20.5258 23.0405V5.05224C20.5258 3.1538 19.6821 2.28662 17.854 2.28662H16.7524V1.81787C16.7524 0.657715 16.1665 0.0952148 15.1352 0.0952148C14.7836 0.0952148 14.3618 0.177246 13.8579 0.341309C10.3188 1.50146 7.08447 2.23974 2.93604 2.23974H1.99854C0.73291 2.23974 0.00634766 2.97802 0.00634766 4.12646V24.2358ZM4.16651 11.1225V7.16162C4.16651 6.99755 4.28369 6.85694 4.44776 6.84521C7.17823 6.73974 9.61573 6.25927 12.1118 5.34521C12.2524 5.28662 12.4985 5.34521 12.4985 5.62646V9.76318C12.4985 9.86865 12.4399 9.97412 12.3344 10.0093C10.1547 10.8999 7.28369 11.4038 4.44776 11.4038C4.29541 11.4038 4.16651 11.31 4.16651 11.1225ZM4.76416 25.56C9.36963 25.4311 13.6469 24.1421 15.9672 22.3725C16.5063 21.9624 16.7524 21.5405 16.7524 20.5093V4.17334H17.8657C18.3813 4.17334 18.6391 4.45459 18.6391 5.05224V22.9116C18.6391 23.6147 18.5336 23.8725 17.8657 24.1655C15.5336 25.185 12.2524 25.8413 9.15869 25.8413C7.68213 25.8413 6.2876 25.7593 4.76416 25.56Z" fill="black" fill-opacity="0.85"/>
</g>
<defs>
<clipPath id="clip0_2207_1607">
<rect width="20.5195" height="27.4805" fill="white" transform="translate(0.00634766 0.0952148)"/>
</clipPath>
</defs>
</svg>
