<svg width="15" height="27" viewBox="0 0 15 27" fill="none" xmlns="http://www.w3.org/2000/svg">
<g clip-path="url(#clip0_2207_14064)">
<path d="M7.21913 26.5913C11.2973 26.5913 13.7348 24.6225 14.1098 20.6264C14.5433 15.8569 14.5316 11.0171 14.0863 5.8374C13.7465 2.07568 11.2973 0.0952148 7.21913 0.0952148C3.141 0.0952148 0.691782 2.07568 0.351938 5.8374C-0.0933739 11.0171 -0.105093 15.8569 0.328501 20.6264C0.703501 24.6225 3.141 26.5913 7.21913 26.5913ZM7.20741 21.8569C6.84413 21.8569 6.71522 22.0444 6.42225 22.0444C6.12928 22.0444 5.94178 21.7749 5.70741 21.4468C5.42616 21.0483 5.21522 20.4624 5.21522 19.8999C5.21522 18.9858 5.81288 18.5171 6.39882 18.5171C6.68007 18.5171 6.90272 18.7046 7.14882 18.7046C7.39491 18.7046 7.60585 18.5171 7.98085 18.5171C8.10975 18.5171 8.59022 18.5171 8.89491 18.9507C8.87147 18.9741 8.40272 19.2436 8.40272 19.853C8.40272 20.5327 9.00038 20.7671 9.0121 20.7905C9.0121 20.8022 8.93007 21.1304 8.69569 21.4585C8.49647 21.7514 8.28553 22.0444 7.98085 22.0444C7.66444 22.0444 7.57069 21.8569 7.20741 21.8569ZM7.10194 18.4468C7.10194 17.814 7.55897 17.3452 8.03944 17.3452C8.13319 17.8725 7.66444 18.4702 7.10194 18.4468Z" fill="black" fill-opacity="0.85"/>
</g>
<defs>
<clipPath id="clip0_2207_14064">
<rect width="14.4173" height="26.5195" fill="white" transform="translate(0.010498 0.0952148)"/>
</clipPath>
</defs>
</svg>
