<svg width="24" height="25" viewBox="0 0 24 25" fill="none" xmlns="http://www.w3.org/2000/svg">
<g clip-path="url(#clip0_2207_5703)">
<path d="M11.9699 24.0014C18.509 24.0014 23.923 18.5757 23.923 12.0483C23.923 5.50927 18.4973 0.0952148 11.9582 0.0952148C5.43091 0.0952148 0.0168457 5.50927 0.0168457 12.0483C0.0168457 18.5757 5.44263 24.0014 11.9699 24.0014Z" fill="black" fill-opacity="0.85"/>
<path d="M10.6691 15.6929C7.90357 15.6929 5.64185 13.4194 5.64185 10.6655C5.64185 7.8999 7.90357 5.62646 10.6691 5.62646C13.4348 5.62646 15.6965 7.88819 15.6965 10.6655C15.6965 11.6968 15.3684 12.6694 14.8293 13.4546L17.9348 16.5835C18.134 16.7944 18.2629 17.0522 18.2629 17.3218C18.2629 17.9311 17.8645 18.3647 17.2785 18.3647C16.927 18.3647 16.6691 18.2475 16.423 17.9897L13.3293 14.9077C12.5559 15.3882 11.6418 15.6929 10.6691 15.6929ZM10.6691 14.0405C12.509 14.0405 14.0324 12.5054 14.0324 10.6655C14.0324 8.80224 12.509 7.2788 10.6691 7.2788C8.81763 7.2788 7.29419 8.81396 7.29419 10.6655C7.29419 12.5054 8.81763 14.0405 10.6691 14.0405Z" fill="white"/>
</g>
<defs>
<clipPath id="clip0_2207_5703">
<rect width="23.9062" height="23.918" fill="white" transform="translate(0.0168457 0.0952148)"/>
</clipPath>
</defs>
</svg>
