<svg width="17" height="25" viewBox="0 0 17 25" fill="none" xmlns="http://www.w3.org/2000/svg">
<g clip-path="url(#clip0_2207_14761)">
<path d="M3.27661 24.1421H13.4016C15.3586 24.1421 16.6594 22.8999 16.6594 21.06V3.17724C16.6594 1.32568 15.3586 0.0952148 13.4016 0.0952148H3.27661C1.31958 0.0952148 0.0187988 1.32568 0.0187988 3.17724V21.06C0.0187988 22.8999 1.31958 24.1421 3.27661 24.1421ZM3.51099 22.2554C2.53833 22.2554 1.90552 21.6577 1.90552 20.7554V3.48193C1.90552 2.57959 2.53833 1.98193 3.51099 1.98193H13.1672C14.1399 1.98193 14.7727 2.57959 14.7727 3.48193V20.7554C14.7727 21.6577 14.1399 22.2554 13.1672 22.2554H3.51099Z" fill="black" fill-opacity="0.85"/>
<path d="M8.35083 19.689C8.77271 19.689 9.11255 19.3374 9.11255 18.9155V16.6772C9.11255 16.2554 8.77271 15.9038 8.35083 15.9038C7.92896 15.9038 7.57739 16.2554 7.57739 16.6772V18.9155C7.57739 19.3374 7.92896 19.689 8.35083 19.689ZM8.35083 13.9116C11.304 13.9116 13.718 11.5093 13.718 8.54444C13.718 5.56788 11.304 3.16553 8.35083 3.16553C5.37427 3.16553 2.97192 5.56788 2.97192 8.54444C2.97192 11.5093 5.37427 13.9116 8.35083 13.9116ZM8.35083 12.435C6.18286 12.435 4.44849 10.7007 4.44849 8.54444C4.44849 6.37647 6.18286 4.6421 8.35083 4.6421C10.4954 4.6421 12.2415 6.38819 12.2415 8.54444C12.2415 10.7007 10.4954 12.435 8.35083 12.435Z" fill="black" fill-opacity="0.85"/>
</g>
<defs>
<clipPath id="clip0_2207_14761">
<rect width="16.6406" height="24.0586" fill="white" transform="translate(0.0187988 0.0952148)"/>
</clipPath>
</defs>
</svg>
