<svg width="16" height="23" viewBox="0 0 16 23" fill="none" xmlns="http://www.w3.org/2000/svg">
<g clip-path="url(#clip0_2207_25994)">
<path d="M1.14685 22.2085C1.82654 22.2085 2.27185 21.7632 2.27185 21.0483V13.6538C2.27185 8.31005 4.51013 5.73194 7.94373 5.73194C11.3774 5.73194 13.6156 8.31005 13.6156 13.6538V21.0483C13.6156 21.7632 14.0609 22.2085 14.7289 22.2085C15.3969 22.2085 15.8539 21.7632 15.8539 21.0483V13.478C15.8539 7.04444 12.6898 3.66943 7.94373 3.66943C3.18591 3.66943 0.0335693 7.04444 0.0335693 13.478V21.0483C0.0335693 21.7632 0.478881 22.2085 1.14685 22.2085ZM7.0531 21.3296C7.0531 21.8218 7.45154 22.2085 7.94373 22.2085C8.43591 22.2085 8.82263 21.8218 8.82263 21.3296V0.974121C8.82263 0.481934 8.43591 0.0952148 7.94373 0.0952148C7.45154 0.0952148 7.0531 0.481934 7.0531 0.974121V21.3296Z" fill="black" fill-opacity="0.85"/>
</g>
<defs>
<clipPath id="clip0_2207_25994">
<rect width="15.8203" height="22.3242" fill="white" transform="translate(0.0335693 0.0952148)"/>
</clipPath>
</defs>
</svg>
