<svg width="24" height="25" viewBox="0 0 24 25" fill="none" xmlns="http://www.w3.org/2000/svg">
<g clip-path="url(#clip0_2207_12925)">
<path d="M12.0161 24.0132C18.5552 24.0132 23.9692 18.5991 23.9692 12.06C23.9692 5.53271 18.5435 0.106934 12.0044 0.106934C5.47705 0.106934 0.0629883 5.53271 0.0629883 12.06C0.0629883 18.5991 5.48877 24.0132 12.0161 24.0132Z" fill="black" fill-opacity="0.85"/>
<path d="M9.25049 7.53662C9.25049 6.01318 10.5044 4.78271 12.0161 4.78271C13.5396 4.78271 14.7818 6.01318 14.7818 7.53662C14.7818 8.79052 13.9614 9.82177 12.8482 10.1499V16.2085C12.8482 18.0132 12.5786 19.5718 12.0161 19.5718C11.4653 19.5718 11.1724 17.978 11.1724 16.2085V10.1499C10.0708 9.81005 9.25049 8.7788 9.25049 7.53662ZM10.4341 6.83349C10.4341 7.30224 10.8442 7.7124 11.3013 7.7124C11.7818 7.7124 12.1802 7.30224 12.1802 6.83349C12.1802 6.35302 11.7818 5.94287 11.3013 5.94287C10.8442 5.94287 10.4224 6.35302 10.4341 6.83349Z" fill="white"/>
</g>
<defs>
<clipPath id="clip0_2207_12925">
<rect width="23.9062" height="23.918" fill="white" transform="translate(0.0629883 0.0952148)"/>
</clipPath>
</defs>
</svg>
