<svg width="22" height="22" viewBox="0 0 22 22" fill="none" xmlns="http://www.w3.org/2000/svg">
<g clip-path="url(#clip0_2207_12930)">
<path d="M3.75098 21.6929H17.9658C20.4268 21.6929 21.6455 20.4741 21.6455 18.06V3.75146C21.6455 1.3374 20.4268 0.118652 17.9658 0.118652H3.75098C1.30176 0.118652 0.0712891 1.32568 0.0712891 3.75146V18.06C0.0712891 20.4858 1.30176 21.6929 3.75098 21.6929ZM3.77441 19.8061C2.60254 19.8061 1.95801 19.185 1.95801 17.9663V3.84521C1.95801 2.62646 2.60254 2.00537 3.77441 2.00537H17.9424C19.1025 2.00537 19.7588 2.62646 19.7588 3.84521V17.9663C19.7588 19.185 19.1025 19.8061 17.9424 19.8061H3.77441Z" fill="black" fill-opacity="0.85"/>
<path d="M8.19238 6.50538C8.19238 7.68897 8.97754 8.69678 10.0557 9.03663V14.9311C10.0557 16.6421 10.3369 18.1655 10.8643 18.1655C11.4033 18.1655 11.6611 16.6655 11.6611 14.9311V9.03663C12.7627 8.7085 13.5361 7.70069 13.5361 6.50538C13.5361 5.02881 12.3408 3.8335 10.8643 3.8335C9.39941 3.8335 8.19238 5.02881 8.19238 6.50538ZM9.3291 5.81397C9.31738 5.35694 9.72754 4.9585 10.1729 4.9585C10.6416 4.9585 11.0401 5.35694 11.0283 5.81397C11.0283 6.271 10.6416 6.66944 10.1729 6.66944C9.72754 6.66944 9.3291 6.271 9.3291 5.81397Z" fill="black" fill-opacity="0.85"/>
</g>
<defs>
<clipPath id="clip0_2207_12930">
<rect width="21.5742" height="21.5977" fill="white" transform="translate(0.0712891 0.0952148)"/>
</clipPath>
</defs>
</svg>
