<svg width="24" height="25" viewBox="0 0 24 25" fill="none" xmlns="http://www.w3.org/2000/svg">
<g clip-path="url(#clip0_2207_12968)">
<path d="M12.0119 24.0132C18.551 24.0132 23.965 18.5991 23.965 12.06C23.965 5.53271 18.5393 0.106934 12.0002 0.106934C5.4729 0.106934 0.0588379 5.53271 0.0588379 12.06C0.0588379 18.5991 5.48462 24.0132 12.0119 24.0132Z" fill="black" fill-opacity="0.85"/>
<path d="M9.49243 7.02099C9.49243 5.62646 10.6057 4.50146 12.0119 4.50146C13.4182 4.50146 14.5315 5.62646 14.5315 7.02099C14.5315 8.16943 13.758 9.1538 12.7033 9.47021V13.5249C12.7033 15.4585 12.3752 16.5366 12.0119 16.5366C11.6604 16.5366 11.3322 15.4468 11.3322 13.5249V9.47021C10.2658 9.1538 9.49243 8.16943 9.49243 7.02099ZM11.3088 7.1499C11.7658 7.1499 12.1291 6.7749 12.1291 6.31787C12.1291 5.87255 11.7658 5.50927 11.3088 5.50927C10.8986 5.50927 10.5002 5.87255 10.5002 6.31787C10.5002 6.7749 10.8986 7.1499 11.3088 7.1499ZM12.0119 18.9038C8.08618 18.9038 5.77759 17.5327 5.77759 16.0444C5.77759 14.228 8.64868 13.1733 10.465 13.185V14.2983C9.21118 14.2866 7.25415 14.9546 7.25415 15.8921C7.25415 16.9468 9.2229 17.7085 12.0119 17.7085C14.7893 17.7085 16.7815 16.935 16.7815 15.8921C16.7815 14.9546 14.8127 14.2866 13.5588 14.2983V13.185C15.3752 13.1733 18.2463 14.228 18.2463 16.0444C18.2463 17.5327 15.9377 18.9038 12.0119 18.9038Z" fill="white"/>
</g>
<defs>
<clipPath id="clip0_2207_12968">
<rect width="23.9062" height="23.918" fill="white" transform="translate(0.0588379 0.0952148)"/>
</clipPath>
</defs>
</svg>
