<svg width="24" height="25" viewBox="0 0 24 25" fill="none" xmlns="http://www.w3.org/2000/svg">
<g clip-path="url(#clip0_2207_12946)">
<path d="M12.0202 24.0014C18.5593 24.0014 23.9733 18.5757 23.9733 12.0483C23.9733 5.50927 18.5476 0.0952148 12.0085 0.0952148C5.4812 0.0952148 0.0671387 5.50927 0.0671387 12.0483C0.0671387 18.5757 5.49292 24.0014 12.0202 24.0014ZM12.0202 22.0093C6.48902 22.0093 2.07105 17.5796 2.07105 12.0483C2.07105 6.5171 6.4773 2.0874 12.0085 2.0874C17.5398 2.0874 21.9812 6.5171 21.9812 12.0483C21.9812 17.5796 17.5515 22.0093 12.0202 22.0093Z" fill="black" fill-opacity="0.85"/>
<path d="M9.33667 7.66552C9.33667 8.84912 10.1218 9.85693 11.1999 10.1968V16.0913C11.1999 17.8022 11.4812 19.3257 12.0085 19.3257C12.5476 19.3257 12.8054 17.8257 12.8054 16.0913V10.1968C13.8952 9.86865 14.6804 8.86083 14.6804 7.66552C14.6804 6.18896 13.4851 4.99365 12.0085 4.99365C10.5437 4.99365 9.33667 6.18896 9.33667 7.66552ZM10.4733 6.97412C10.4616 6.51709 10.8718 6.11865 11.3171 6.11865C11.7859 6.11865 12.1726 6.51709 12.1726 6.97412C12.1726 7.43115 11.7859 7.82959 11.3171 7.82959C10.8718 7.82959 10.4733 7.43115 10.4733 6.97412Z" fill="black" fill-opacity="0.85"/>
<path d="M16.7194 18.6694C17.2585 19.1968 18.1257 19.2085 18.6413 18.6694C19.1921 18.1304 19.1804 17.2983 18.6413 16.7593L7.29761 5.41553C6.75855 4.87647 5.90308 4.87647 5.37573 5.41553C4.83667 5.94288 4.83667 6.81006 5.37573 7.33741L16.7194 18.6694Z" fill="white"/>
<path d="M17.3055 18.0952C17.5047 18.2944 17.8563 18.2944 18.0555 18.0952C18.2664 17.8725 18.2664 17.5561 18.0555 17.3452L6.72342 6.00147C6.51248 5.79053 6.17264 5.79053 5.9617 6.00147C5.75076 6.20069 5.76248 6.55225 5.9617 6.75147L17.3055 18.0952Z" fill="black" fill-opacity="0.85"/>
</g>
<defs>
<clipPath id="clip0_2207_12946">
<rect width="23.9062" height="23.918" fill="white" transform="translate(0.0671387 0.0952148)"/>
</clipPath>
</defs>
</svg>
