<svg width="21" height="26" viewBox="0 0 21 26" fill="none" xmlns="http://www.w3.org/2000/svg">
<g clip-path="url(#clip0_2207_12940)">
<path d="M6.54858 4.51319C6.54858 6.57569 7.94311 8.29834 9.85327 8.7788V19.6538C9.85327 23.1108 10.4627 24.9975 10.9431 24.9975C11.4119 24.9975 12.0213 23.1225 12.0213 19.6538V8.7788C13.9314 8.31005 15.3377 6.57569 15.3377 4.51319C15.3377 2.0874 13.3806 0.0952148 10.9431 0.0952148C8.49389 0.0952148 6.54858 2.0874 6.54858 4.51319ZM9.67748 4.75927C8.88061 4.75927 8.17748 4.05615 8.17748 3.23583C8.17748 2.42724 8.88061 1.73583 9.67748 1.73583C10.5095 1.73583 11.1892 2.42724 11.1892 3.23583C11.1892 4.05615 10.5095 4.75927 9.67748 4.75927Z" fill="black" fill-opacity="0.85"/>
<path d="M17.0838 23.8491C17.9861 24.7397 19.4392 24.7397 20.3064 23.8257C21.1736 22.9468 21.1736 21.5171 20.2947 20.6382L3.94703 4.30224C3.06812 3.41162 1.61499 3.41162 0.724366 4.30224C-0.154541 5.16943 -0.154541 6.63427 0.724366 7.51318L17.0838 23.8491Z" fill="white"/>
<path d="M18.0564 22.8764C18.408 23.228 18.9939 23.228 19.3338 22.8764C19.6736 22.5249 19.6853 21.9624 19.3338 21.5991L2.98609 5.2632C2.63453 4.92335 2.04859 4.91164 1.69703 5.2632C1.35718 5.60304 1.35718 6.2007 1.69703 6.54054L18.0564 22.8764Z" fill="black" fill-opacity="0.85"/>
</g>
<defs>
<clipPath id="clip0_2207_12940">
<rect width="20.8901" height="25.7461" fill="white" transform="translate(0.0651855 0.0952148)"/>
</clipPath>
</defs>
</svg>
