<svg width="23" height="27" viewBox="0 0 23 27" fill="none" xmlns="http://www.w3.org/2000/svg">
<g clip-path="url(#clip0_2207_3261)">
<path d="M4.93649 15.7163L6.1904 14.4155L2.01853 6.22413L3.90524 3.3296L8.85056 13.0796L10.7725 12.7632L5.04196 2.08741H17.3818L11.6514 12.7632L13.5732 13.0796L18.5185 3.3296L20.417 6.22413L16.2334 14.4155L17.4873 15.7163L22.1982 6.86866C22.4209 6.48194 22.4092 6.03663 22.1631 5.67334L18.9873 0.810059C18.7412 0.470215 18.4482 0.317871 17.9912 0.317871H4.44431C3.97556 0.317871 3.68259 0.470215 3.44821 0.810059L0.260717 5.67334C0.0263414 6.03663 0.0146226 6.48194 0.225561 6.86866L4.93649 15.7163ZM6.87009 7.46631H15.5654V5.69678H6.87009V7.46631ZM11.2178 26.9897C15.46 26.9897 18.8935 23.5561 18.8935 19.314C18.8935 15.06 15.46 11.6264 11.2178 11.6264C6.96384 11.6264 3.53024 15.06 3.53024 19.314C3.53024 23.5561 6.96384 26.9897 11.2178 26.9897ZM11.2178 25.2202C7.94821 25.2202 5.29978 22.5835 5.29978 19.314C5.29978 16.0444 7.93649 13.396 11.2178 13.396C14.4756 13.396 17.124 16.0327 17.124 19.314C17.124 22.5718 14.4873 25.2202 11.2178 25.2202ZM9.15524 23.0171L11.2295 21.5054L13.2803 23.0171C13.7256 23.3335 14.1709 23.0054 14.0068 22.5132L13.1748 20.064L15.2725 18.564C15.6592 18.2944 15.5537 17.7319 15.0029 17.7319L12.4365 17.7554L11.6514 15.2944C11.499 14.8022 10.9365 14.8022 10.7842 15.2944L9.99899 17.7554L7.43259 17.7319C6.89353 17.7319 6.76462 18.2827 7.17478 18.5757L9.27243 20.064L8.4404 22.5132C8.27634 23.0054 8.72165 23.3335 9.15524 23.0171Z" fill="black" fill-opacity="0.85"/>
</g>
<defs>
<clipPath id="clip0_2207_3261">
<rect width="22.2812" height="26.8945" fill="white" transform="translate(0.0756836 0.0952148)"/>
</clipPath>
</defs>
</svg>
