<svg width="32" height="13" viewBox="0 0 32 13" fill="none" xmlns="http://www.w3.org/2000/svg">
<g clip-path="url(#clip0_2207_14771)">
<path d="M4.01733 12.1304H20.8337C23.822 12.1304 24.7712 10.689 24.7712 6.11865C24.7712 1.53662 23.8337 0.0952148 20.8337 0.0952148H4.01733C1.01733 0.0952148 0.079834 1.53662 0.079834 6.11865C0.079834 10.689 1.01733 12.1304 4.01733 12.1304ZM4.01733 5.2749C3.33764 5.2749 2.79858 4.73583 2.79858 4.05615C2.79858 3.38818 3.33764 2.86083 4.01733 2.86083C4.6853 2.86083 5.21264 3.38818 5.21264 4.05615C5.21264 4.73583 4.6853 5.2749 4.01733 5.2749Z" fill="black" fill-opacity="0.85"/>
<path d="M26.0955 9.42334H28.9432C30.2908 9.42334 31.1815 8.55616 31.1815 7.30225V4.91163C31.1815 3.66944 30.2908 2.79053 28.9432 2.79053H26.0955C26.283 3.71631 26.3651 4.81788 26.3651 6.11866C26.3651 7.396 26.2713 8.49756 26.0955 9.42334Z" fill="black" fill-opacity="0.85"/>
</g>
<defs>
<clipPath id="clip0_2207_14771">
<rect width="31.1016" height="12.082" fill="white" transform="translate(0.079834 0.0952148)"/>
</clipPath>
</defs>
</svg>
