<svg width="26" height="26" viewBox="0 0 26 26" fill="none" xmlns="http://www.w3.org/2000/svg">
<g clip-path="url(#clip0_2207_17868)">
<path d="M17.794 1.70351L24.2979 8.21913L24.3565 8.16054C26.1143 6.41445 25.9151 3.6371 24.1455 1.87929C22.376 0.109756 19.5986 -0.089462 17.8526 1.64491L17.794 1.70351ZM2.34863 21.4379L4.56347 23.6527L6.02833 22.1879C8.98145 19.2465 12.4385 20.0902 15.5205 17.0082L23.3604 9.16835L16.833 2.64101L8.99316 10.4926C5.7705 13.7152 6.7666 17.0199 3.81347 19.973L2.34863 21.4379ZM12.8018 13.2582C12.0401 12.4965 12.0635 11.3012 12.8018 10.5629L16.3408 7.00038C17.0791 6.2621 18.2744 6.23866 19.001 7.00038C19.7627 7.71523 19.7627 8.89882 19.001 9.66054L15.4619 13.2347C14.7236 13.973 13.5283 13.9847 12.8018 13.2582ZM10.2588 14.4066C9.93066 14.1019 10.001 13.6683 10.2588 13.3988C10.5283 13.1176 10.9385 13.0941 11.2549 13.3988L12.6143 14.7465C12.9307 15.0512 12.8838 15.4847 12.6143 15.766C12.3565 16.0238 11.9346 16.059 11.6065 15.7426L10.2588 14.4066ZM13.6455 12.391C13.9385 12.684 14.3721 12.766 14.6885 12.4613L18.2393 8.8871C18.5557 8.5707 18.4619 8.1371 18.169 7.85585C17.8526 7.56288 17.4072 7.52773 17.0908 7.84413L13.6455 11.3012C13.3408 11.6058 13.3408 12.0863 13.6455 12.391ZM0.60254 25.3988C1.2705 26.0902 2.16113 26.0902 2.84082 25.3988L3.45019 24.8012L1.21191 22.5629L0.60254 23.1722C-0.0888674 23.8637 -0.0888674 24.7426 0.60254 25.3988Z" fill="black" fill-opacity="0.85"/>
</g>
<defs>
<clipPath id="clip0_2207_17868">
<rect width="25.4942" height="25.8223" fill="white" transform="translate(0.0839844 0.0952148)"/>
</clipPath>
</defs>
</svg>
