<svg width="27" height="25" viewBox="0 0 27 25" fill="none" xmlns="http://www.w3.org/2000/svg">
<g clip-path="url(#clip0_2207_5386)">
<path d="M0.0861816 12.4233C0.0861816 15.4819 1.7854 17.1577 4.99634 17.1577H9.06274C13.1174 17.6264 17.3714 18.9624 21.051 21.2241V19.1382C17.4651 16.935 13.3284 15.728 8.99243 15.271H4.99634C2.8518 15.271 1.9729 14.439 1.9729 12.4233V10.7007C1.9729 8.67334 2.8518 7.85302 4.99634 7.85302H8.88696C13.305 7.40771 17.5354 6.1538 21.051 3.97412V1.8999C17.5237 4.1499 12.8128 5.56787 9.13306 5.9663H4.99634C1.7854 5.9663 0.0861816 7.61866 0.0861816 10.7007V12.4233ZM10.9846 17.0054H9.20337L10.1878 21.9975C10.2815 22.5249 10.012 22.8647 9.63696 22.9936C9.23852 23.1343 8.7229 23.0054 8.45337 22.4429L5.80493 16.7827H3.88306L6.59009 22.7827C7.55102 24.9272 9.21509 25.0561 10.3518 24.7046C11.5003 24.3413 12.2034 23.2749 11.8987 21.7163L10.9846 17.0054ZM7.48071 6.85694V16.2671H9.37915V6.85694H7.48071ZM20.3831 20.0522C20.3831 21.7866 21.555 22.9468 23.2776 22.9468C25.0237 22.9468 26.1839 21.7866 26.1839 20.0522V2.98974C26.1839 1.25537 25.0237 0.0952148 23.2776 0.0952148C21.555 0.0952148 20.3831 1.25537 20.3831 2.98974V20.0522ZM22.2815 20.0522V2.98974C22.2815 2.38037 22.6682 1.98193 23.2776 1.98193C23.887 1.98193 24.2971 2.38037 24.2971 2.98974V20.0522C24.2971 20.6616 23.887 21.06 23.2776 21.06C22.6682 21.06 22.2815 20.6616 22.2815 20.0522Z" fill="black" fill-opacity="0.85"/>
</g>
<defs>
<clipPath id="clip0_2207_5386">
<rect width="26.0977" height="24.7852" fill="white" transform="translate(0.0861816 0.0952148)"/>
</clipPath>
</defs>
</svg>
