<svg width="27" height="25" viewBox="0 0 27 25" fill="none" xmlns="http://www.w3.org/2000/svg">
<g clip-path="url(#clip0_2207_5296)">
<path d="M11.8208 15.8921C11.8208 16.4311 12.4184 16.6655 12.9223 16.3608L19.2036 12.6577C19.6606 12.3764 19.6489 11.7319 19.2036 11.4741L12.9223 7.74755C12.4536 7.4663 11.8208 7.68896 11.8208 8.2163V15.8921ZM0.090332 9.39991C0.090332 9.63428 0.160645 9.85693 0.30127 10.0327L2.77392 13.0679C3.13721 13.5366 3.44189 13.7007 3.91064 13.7007C4.21533 13.7007 4.44971 13.6186 4.74267 13.4077L7.80127 11.146C8.05908 10.9585 8.19971 10.6772 8.19971 10.3725C8.19971 9.82177 7.76611 9.42334 7.27392 9.42334C7.05127 9.42334 6.85205 9.48193 6.67627 9.62255L4.87158 11.0405C5.36377 5.98975 9.5708 2.0874 14.7622 2.0874C20.2934 2.0874 24.7231 6.5171 24.7348 12.0483C24.7465 17.5796 20.3051 22.0093 14.7739 22.0093C11.1176 22.0093 8.51611 20.0757 7.23877 18.5874C6.99267 18.2827 6.67627 18.1655 6.39502 18.1655C5.90283 18.1655 5.45752 18.5405 5.45752 19.0796C5.45752 19.3491 5.56299 19.6421 5.8208 19.9468C7.10986 21.4233 10.2856 24.0014 14.7739 24.0014C21.313 24.0014 26.727 18.5757 26.727 12.0483C26.727 5.50927 21.2895 0.0952148 14.7622 0.0952148C8.78564 0.0952148 3.74658 4.63037 2.94971 10.4077L1.85986 8.91943C1.67236 8.6499 1.40283 8.47412 1.05127 8.47412C0.512207 8.47412 0.090332 8.86084 0.090332 9.39991Z" fill="black" fill-opacity="0.85"/>
</g>
<defs>
<clipPath id="clip0_2207_5296">
<rect width="26.6367" height="23.918" fill="white" transform="translate(0.090332 0.0952148)"/>
</clipPath>
</defs>
</svg>
