<svg width="26" height="21" viewBox="0 0 26 21" fill="none" xmlns="http://www.w3.org/2000/svg">
<g clip-path="url(#clip0_2207_13068)">
<path d="M3.77637 18.2007H21.5303C23.9912 18.2007 25.21 16.9819 25.21 14.5679V6.04834C25.21 3.63427 23.9912 2.41552 21.5303 2.41552H3.77637C1.32715 2.41552 0.0966797 3.62256 0.0966797 6.04834V14.5679C0.0966797 16.9936 1.32715 18.2007 3.77637 18.2007ZM3.7998 16.314C2.62793 16.314 1.9834 15.6929 1.9834 14.4741V6.14209C1.9834 4.92333 2.62793 4.30224 3.7998 4.30224H21.5069C22.6553 4.30224 23.3233 4.92333 23.3233 6.14209V14.4741C23.3233 15.6929 22.6553 16.314 21.5069 16.314H3.7998ZM4.13965 3.18896H6.02637V1.05615C6.02637 0.493653 5.63965 0.118652 5.07715 0.118652C4.51465 0.118652 4.13965 0.493653 4.13965 1.05615V3.18896ZM7.9248 3.18896H9.81152V1.05615C9.81152 0.493653 9.4248 0.118652 8.8623 0.118652C8.2998 0.118652 7.9248 0.493653 7.9248 1.05615V3.18896ZM11.71 3.18896H13.5967V1.05615C13.5967 0.493653 13.21 0.118652 12.6475 0.118652C12.085 0.118652 11.71 0.493653 11.71 1.05615V3.18896ZM15.4951 3.18896H17.3819V1.05615C17.3819 0.493653 17.0069 0.118652 16.4444 0.118652C15.8819 0.118652 15.4951 0.493653 15.4951 1.05615V3.18896ZM19.2803 3.18896H21.167V1.05615C21.167 0.493653 20.792 0.118652 20.2295 0.118652C19.667 0.118652 19.2803 0.493653 19.2803 1.05615V3.18896ZM4.13965 17.4507V19.5483C4.13965 20.1108 4.51465 20.4975 5.07715 20.4975C5.63965 20.4975 6.02637 20.1108 6.02637 19.5483V17.4507H4.13965ZM7.9248 17.4507V19.5483C7.9248 20.1108 8.2998 20.4975 8.8623 20.4975C9.4248 20.4975 9.81152 20.1108 9.81152 19.5483V17.4507H7.9248ZM11.71 17.4507V19.5483C11.71 20.1108 12.085 20.4975 12.6475 20.4975C13.21 20.4975 13.5967 20.1108 13.5967 19.5483V17.4507H11.71ZM15.4951 17.4507V19.5483C15.4951 20.1108 15.8819 20.4975 16.4444 20.4975C17.0069 20.4975 17.3819 20.1108 17.3819 19.5483V17.4507H15.4951ZM19.2803 17.4507V19.5483C19.2803 20.1108 19.667 20.4975 20.2295 20.4975C20.792 20.4975 21.167 20.1108 21.167 19.5483V17.4507H19.2803Z" fill="black" fill-opacity="0.85"/>
</g>
<defs>
<clipPath id="clip0_2207_13068">
<rect width="25.1133" height="20.4023" fill="white" transform="translate(0.0966797 0.0952148)"/>
</clipPath>
</defs>
</svg>
