<svg width="28" height="22" viewBox="0 0 28 22" fill="none" xmlns="http://www.w3.org/2000/svg">
<g clip-path="url(#clip0_2207_19526)">
<path d="M1.25611 4.0459V5.69824H26.3811V4.0459H1.25611ZM3.68189 21.6709H23.9553C26.4163 21.6709 27.635 20.4639 27.635 18.0498V3.72949C27.635 1.31543 26.4163 0.0966797 23.9553 0.0966797H3.68189C1.23267 0.0966797 0.00219727 1.31543 0.00219727 3.72949V18.0498C0.00219727 20.4639 1.23267 21.6709 3.68189 21.6709ZM3.70532 19.7842C2.53345 19.7842 1.88892 19.1631 1.88892 17.9444V3.83496C1.88892 2.61621 2.53345 1.9834 3.70532 1.9834H23.9319C25.092 1.9834 25.7483 2.61621 25.7483 3.83496V17.9444C25.7483 19.1631 25.092 19.7842 23.9319 19.7842H3.70532Z" fill="black" fill-opacity="0.85"/>
<path d="M13.8303 17.2764C14.3342 17.2764 14.7561 16.8545 14.7561 16.3623V12.4951L14.6858 10.5264L15.6936 11.5811L17.217 13.1045C17.3928 13.2803 17.6155 13.3858 17.8499 13.3858C18.3538 13.3858 18.717 13.0459 18.717 12.5537C18.717 12.2842 18.6116 12.085 18.4006 11.9092L14.51 8.27637C14.2639 8.04199 14.0647 7.95996 13.8303 7.95996C13.5842 7.95996 13.3967 8.04199 13.1506 8.27637L9.24828 11.9092C9.04907 12.085 8.9436 12.2842 8.9436 12.5537C8.9436 13.0459 9.29516 13.3858 9.78735 13.3858C10.0217 13.3858 10.2561 13.2803 10.4436 13.1045L11.967 11.5811L12.9749 10.5264L12.8928 12.4951V16.3623C12.8928 16.8545 13.3264 17.2764 13.8303 17.2764Z" fill="black" fill-opacity="0.85"/>
</g>
<defs>
<clipPath id="clip0_2207_19526">
<rect width="27.6328" height="21.5742" fill="white" transform="translate(0.00219727 0.0966797)"/>
</clipPath>
</defs>
</svg>
