<svg width="28" height="22" viewBox="0 0 28 22" fill="none" xmlns="http://www.w3.org/2000/svg">
<g clip-path="url(#clip0_2207_19511)">
<path d="M1.26221 4.0459V5.69824H26.3872V4.0459H1.26221ZM3.68799 21.6709H23.9614C26.4224 21.6709 27.6411 20.4639 27.6411 18.0498V3.72949C27.6411 1.31543 26.4224 0.0966797 23.9614 0.0966797H3.68799C1.23877 0.0966797 0.00830078 1.31543 0.00830078 3.72949V18.0498C0.00830078 20.4639 1.23877 21.6709 3.68799 21.6709ZM3.71142 19.7842C2.53955 19.7842 1.89502 19.1631 1.89502 17.9444V3.83496C1.89502 2.61621 2.53955 1.9834 3.71142 1.9834H23.938C25.0981 1.9834 25.7544 2.61621 25.7544 3.83496V17.9444C25.7544 19.1631 25.0981 19.7842 23.938 19.7842H3.71142Z" fill="black" fill-opacity="0.85"/>
</g>
<defs>
<clipPath id="clip0_2207_19511">
<rect width="27.6328" height="21.5742" fill="white" transform="translate(0.00830078 0.0966797)"/>
</clipPath>
</defs>
</svg>
