<svg width="20" height="28" viewBox="0 0 20 28" fill="none" xmlns="http://www.w3.org/2000/svg">
<g clip-path="url(#clip0_2207_1587)">
<path d="M2.31909 24.713L15.6433 27.0685C18.0339 27.4904 19.4871 26.1662 19.4871 23.5529V9.05674C19.4871 6.66611 18.2566 5.79892 15.8777 5.38877L2.95191 3.10361C1.17066 2.7872 0.010498 3.75986 0.010498 5.51767V22.0529C0.010498 23.5646 0.783936 24.4435 2.31909 24.713ZM2.77612 22.8498C2.17847 22.756 1.89722 22.4044 1.89722 21.7833V5.83408C1.89722 5.20127 2.31909 4.88486 3.0105 5.00205L15.7839 7.24033C16.9675 7.46299 17.6003 7.94345 17.6003 9.0333V23.3537C17.6003 24.6779 16.8269 25.3458 15.5613 25.1115L2.77612 22.8498ZM16.5574 6.83017H18.4441V4.08799C18.4441 1.62705 16.7917 0.443455 14.0144 0.935642L1.76831 3.10361L2.47144 4.73252L14.6824 2.70517C15.8543 2.50595 16.5574 2.99814 16.5574 4.01767V6.83017ZM4.82691 10.1583L13.8621 11.7521C14.4128 11.8458 14.7527 11.506 14.7527 11.0138C14.7527 10.5685 14.53 10.3341 14.1199 10.2521L5.13159 8.68174C4.59253 8.58799 4.21753 8.90439 4.21753 9.38486C4.21753 9.79502 4.44019 10.088 4.82691 10.1583ZM4.82691 14.7287L13.8621 16.3224C14.4128 16.4162 14.7527 16.0763 14.7527 15.5841C14.7527 15.1388 14.53 14.9044 14.1199 14.8224L5.13159 13.2521C4.59253 13.1583 4.21753 13.4748 4.21753 13.9552C4.21753 14.3654 4.44019 14.6583 4.82691 14.7287Z" fill="black" fill-opacity="0.85"/>
</g>
<defs>
<clipPath id="clip0_2207_1587">
<rect width="19.4766" height="27.0491" fill="white" transform="translate(0.010498 0.0966797)"/>
</clipPath>
</defs>
</svg>
