<svg width="27" height="25" viewBox="0 0 27 25" fill="none" xmlns="http://www.w3.org/2000/svg">
<g clip-path="url(#clip0_2207_8956)">
<path d="M5.10059 24.6475C6.68262 24.6475 9.91699 23.0537 12.2958 21.3545C20.4638 21.5772 26.5927 16.8897 26.5927 10.749C26.5927 4.85449 20.6865 0.0966797 13.3037 0.0966797C5.9209 0.0966797 0.0146484 4.85449 0.0146484 10.749C0.0146484 14.5928 2.47559 18.0029 6.17871 19.7139C5.65137 20.7334 4.66699 22.1162 4.13965 22.8076C3.51856 23.6279 3.89356 24.6475 5.10059 24.6475ZM6.33106 22.7022C6.23731 22.7373 6.20215 22.667 6.26074 22.585C6.91699 21.7764 7.85449 20.5576 8.25293 19.8076C8.58106 19.1983 8.49903 18.6592 7.74903 18.3076C4.06934 16.5967 1.95996 13.8662 1.95996 10.749C1.95996 5.94434 6.98731 2.03027 13.3037 2.03027C19.6318 2.03027 24.6591 5.94434 24.6591 10.749C24.6591 15.542 19.6318 19.4561 13.3037 19.4561C13.0693 19.4561 12.706 19.4444 12.2373 19.4326C11.7451 19.4326 11.3701 19.585 10.9248 19.9365C9.4834 20.9795 7.39746 22.2686 6.33106 22.7022Z" fill="black" fill-opacity="0.85"/>
</g>
<defs>
<clipPath id="clip0_2207_8956">
<rect width="26.5781" height="24.5508" fill="white" transform="translate(0.0146484 0.0966797)"/>
</clipPath>
</defs>
</svg>
