<svg width="24" height="25" viewBox="0 0 24 25" fill="none" xmlns="http://www.w3.org/2000/svg">
<g clip-path="url(#clip0_2207_8969)">
<path d="M11.9867 24.0147C18.5258 24.0147 23.9398 18.6006 23.9398 12.0615C23.9398 5.53418 18.5141 0.108398 11.975 0.108398C5.44763 0.108398 0.0335693 5.53418 0.0335693 12.0615C0.0335693 18.6006 5.45935 24.0147 11.9867 24.0147Z" fill="black" fill-opacity="0.85"/>
<path d="M11.9867 17.1592C11.7172 17.1592 11.4711 17.1475 11.2367 17.1358C11.1078 17.124 11.0375 17.1592 10.9086 17.2529C9.71326 17.9678 8.50623 18.4717 7.83826 18.4717C7.31091 18.4717 7.21716 18.0615 7.55701 17.6631C7.8031 17.3819 8.15466 17.0069 8.35388 16.6084C8.42419 16.4795 8.42419 16.3389 8.27185 16.2569C6.50232 15.2256 5.30701 13.5967 5.30701 11.6983C5.30701 8.68652 8.23669 6.24902 11.9867 6.24902C15.7367 6.24902 18.6664 8.68652 18.6664 11.6983C18.6664 14.71 15.7367 17.1592 11.9867 17.1592Z" fill="white"/>
</g>
<defs>
<clipPath id="clip0_2207_8969">
<rect width="23.9062" height="23.918" fill="white" transform="translate(0.0335693 0.0966797)"/>
</clipPath>
</defs>
</svg>
