<svg width="24" height="25" viewBox="0 0 24 25" fill="none" xmlns="http://www.w3.org/2000/svg">
<g clip-path="url(#clip0_2207_8964)">
<path d="M11.9846 24.0029C18.5237 24.0029 23.9377 18.5772 23.9377 12.0498C23.9377 5.51074 18.512 0.0966797 11.9729 0.0966797C5.44555 0.0966797 0.0314941 5.51074 0.0314941 12.0498C0.0314941 18.5772 5.45727 24.0029 11.9846 24.0029ZM11.9846 22.0108C6.45337 22.0108 2.0354 17.5811 2.0354 12.0498C2.0354 6.51856 6.44165 2.08887 11.9729 2.08887C17.5042 2.08887 21.9456 6.51856 21.9456 12.0498C21.9456 17.5811 17.5159 22.0108 11.9846 22.0108Z" fill="black" fill-opacity="0.85"/>
<path d="M11.9729 16.9951C15.6057 16.9951 18.4534 14.6162 18.4534 11.6983C18.4534 8.78027 15.6057 6.40137 11.9729 6.40137C8.34008 6.40137 5.49243 8.78027 5.49243 11.6983C5.49243 13.5381 6.65258 15.1201 8.37524 16.1162C8.51587 16.1983 8.51587 16.3272 8.44555 16.4561C8.25805 16.8428 7.91821 17.2061 7.67211 17.4756C7.34399 17.8506 7.43774 18.2608 7.95337 18.2608C8.5979 18.2608 9.76977 17.7803 10.9299 17.0655C11.0471 16.9951 11.1174 16.96 11.2463 16.9717C11.469 16.9834 11.7151 16.9951 11.9729 16.9951Z" fill="black" fill-opacity="0.85"/>
</g>
<defs>
<clipPath id="clip0_2207_8964">
<rect width="23.9062" height="23.918" fill="white" transform="translate(0.0314941 0.0966797)"/>
</clipPath>
</defs>
</svg>
