<svg width="26" height="23" viewBox="0 0 26 23" fill="none" xmlns="http://www.w3.org/2000/svg">
<g clip-path="url(#clip0_2207_10338)">
<path d="M3.57751 22.3623H21.7533C23.7455 22.3623 24.9525 20.9795 24.9525 19.1865C24.9525 18.6358 24.7884 18.0615 24.4955 17.5459L15.4017 1.70215C14.7923 0.635742 13.7377 0.0966797 12.6713 0.0966797C11.5931 0.0966797 10.5384 0.635742 9.9408 1.70215L0.847046 17.5459C0.53064 18.0733 0.390015 18.6358 0.390015 19.1865C0.390015 20.9795 1.59705 22.3623 3.57751 22.3623Z" fill="black" fill-opacity="0.85"/>
<path d="M11.722 15.9405V5.38184C11.722 4.7959 12.0736 4.4209 12.6595 4.4209C13.2338 4.4209 13.5853 4.7959 13.5853 5.38184V15.9405H11.722Z" fill="white"/>
<path d="M10.0111 16.7374H17.2064L4.39784 3.94053C3.39002 2.93272 1.86659 2.90928 0.823615 3.91709C-0.231073 4.96006 -0.207635 6.51866 0.811896 7.53819L10.0111 16.7374Z" fill="white"/>
<path d="M25.2572 16.7372H0.0736084L0.952515 15.2021H24.3783L25.2572 16.7372Z" fill="white"/>
<path d="M10.972 15.4248L13.597 15.4014L3.26112 5.06545C2.8744 4.67873 2.35877 4.66701 1.9369 5.06545C1.52674 5.47561 1.55018 6.01467 1.9369 6.41311L10.972 15.4248Z" fill="black" fill-opacity="0.85"/>
</g>
<defs>
<clipPath id="clip0_2207_10338">
<rect width="25.2173" height="22.3945" fill="white" transform="translate(0.039917 0.0966797)"/>
</clipPath>
</defs>
</svg>
