<svg width="25" height="23" viewBox="0 0 25 23" fill="none" xmlns="http://www.w3.org/2000/svg">
<g clip-path="url(#clip0_2207_10330)">
<path d="M3.57544 22.3623H21.7512C23.7317 22.3623 24.9387 20.9795 24.9387 19.1865C24.9387 18.6358 24.7863 18.0615 24.4817 17.5459L15.3879 1.70215C14.7902 0.635742 13.7356 0.0966797 12.6574 0.0966797C11.591 0.0966797 10.5363 0.635742 9.92701 1.70215L0.833252 17.5459C0.528565 18.0733 0.376221 18.6358 0.376221 19.1865C0.376221 20.9795 1.58326 22.3623 3.57544 22.3623ZM3.58716 20.5225C2.77857 20.5225 2.27466 19.8897 2.27466 19.1748C2.27466 18.9522 2.32154 18.6709 2.45044 18.4248L11.5324 2.59277C11.7785 2.15918 12.2238 1.97168 12.6574 1.97168C13.091 1.97168 13.5246 2.15918 13.7707 2.59277L22.8527 18.4365C22.9817 18.6826 23.052 18.9522 23.052 19.1748C23.052 19.8897 22.5363 20.5225 21.716 20.5225H3.58716Z" fill="black" fill-opacity="0.85"/>
<path d="M13.595 15.8936V5.96777C13.595 5.38184 13.2435 5.00684 12.6575 5.00684C12.0833 5.00684 11.7318 5.38184 11.7318 5.96777V15.8936H13.595Z" fill="black" fill-opacity="0.85"/>
<path d="M12.0598 18.7765L15.634 15.1671L4.39576 3.94053C3.38794 2.93272 1.87623 2.90928 0.82154 3.91709C-0.233148 4.96006 -0.20971 6.51866 0.809821 7.53819L12.0598 18.7765Z" fill="white"/>
<path d="M2.43872 16.8896L22.8996 16.8661L21.7863 15.0732H3.552L2.43872 16.8896Z" fill="black" fill-opacity="0.85"/>
<path d="M12.0598 16.5029L13.384 15.167L3.27076 5.06545C2.87232 4.67873 2.35669 4.66701 1.94654 5.06545C1.52466 5.47561 1.5481 6.01467 1.94654 6.41311L12.0598 16.5029Z" fill="black" fill-opacity="0.85"/>
</g>
<defs>
<clipPath id="clip0_2207_10330">
<rect width="24.9009" height="22.3945" fill="white" transform="translate(0.0378418 0.0966797)"/>
</clipPath>
</defs>
</svg>
