<svg width="24" height="25" viewBox="0 0 24 25" fill="none" xmlns="http://www.w3.org/2000/svg">
<g clip-path="url(#clip0_2207_5748)">
<path d="M12.0056 24.0029C18.5447 24.0029 23.9587 18.5772 23.9587 12.0498C23.9587 5.51074 18.533 0.0966797 11.9939 0.0966797C5.46655 0.0966797 0.0524902 5.51074 0.0524902 12.0498C0.0524902 18.5772 5.47827 24.0029 12.0056 24.0029ZM12.0056 22.0108C6.47437 22.0108 2.0564 17.5811 2.0564 12.0498C2.0564 6.51856 6.46265 2.08887 11.9939 2.08887C17.5252 2.08887 21.9666 6.51856 21.9666 12.0498C21.9666 17.5811 17.5369 22.0108 12.0056 22.0108Z" fill="black" fill-opacity="0.85"/>
<path d="M9.01733 19.0928H14.9822C15.3103 19.0928 15.6033 18.7881 15.6033 18.46C15.6033 18.1201 15.322 17.8272 14.9822 17.8272H12.6384V16.6436C14.9587 16.374 16.5291 14.6045 16.5291 12.2256V10.7139C16.5291 10.3858 16.2361 10.1045 15.908 10.1045C15.5681 10.1045 15.2869 10.3858 15.2869 10.7139V12.2256C15.2869 14.1475 13.9275 15.4951 11.9939 15.4951C10.0603 15.4951 8.71265 14.1475 8.71265 12.2256V10.7139C8.71265 10.3858 8.41968 10.1045 8.07983 10.1045C7.75171 10.1045 7.47046 10.3858 7.47046 10.7139V12.2256C7.47046 14.6045 9.04077 16.3858 11.3728 16.6436V17.8272H9.01733C8.67749 17.8272 8.38452 18.1201 8.38452 18.46C8.38452 18.7998 8.67749 19.0928 9.01733 19.0928ZM11.9939 14.3115C13.1423 14.3115 13.9392 13.4209 13.9392 12.2256V7.19824C13.9392 6.01465 13.1423 5.13574 11.9939 5.13574C10.8455 5.13574 10.0486 6.01465 10.0486 7.19824V12.2256C10.0486 13.4209 10.8455 14.3115 11.9939 14.3115Z" fill="black" fill-opacity="0.85"/>
</g>
<defs>
<clipPath id="clip0_2207_5748">
<rect width="23.9062" height="23.918" fill="white" transform="translate(0.0524902 0.0966797)"/>
</clipPath>
</defs>
</svg>
