<svg width="17" height="27" viewBox="0 0 17 27" fill="none" xmlns="http://www.w3.org/2000/svg">
<g clip-path="url(#clip0_2207_5744)">
<path d="M0.0566406 12.3662C0.0566406 16.96 3.0918 20.1826 7.55664 20.5576V23.2881H3.20898C2.7168 23.2881 2.31836 23.6865 2.31836 24.1787C2.31836 24.6709 2.7168 25.0576 3.20898 25.0576H13.6738C14.166 25.0576 14.5644 24.6709 14.5644 24.1787C14.5644 23.6865 14.166 23.2881 13.6738 23.2881H9.32617V20.5576C13.8027 20.1826 16.8261 16.96 16.8261 12.3662V9.9873C16.8261 9.49512 16.4394 9.1084 15.9472 9.1084C15.455 9.1084 15.0566 9.49512 15.0566 9.9873V12.2959C15.0566 16.292 12.455 18.9405 8.44726 18.9405C4.42773 18.9405 1.82617 16.292 1.82617 12.2959V9.9873C1.82617 9.49512 1.43945 9.1084 0.935547 9.1084C0.44336 9.1084 0.0566406 9.49512 0.0566406 9.9873V12.3662ZM8.44726 16.4209C10.7793 16.4209 12.3496 14.6748 12.3496 12.1787V4.33887C12.3496 1.83106 10.7793 0.0966797 8.44726 0.0966797C6.10352 0.0966797 4.5332 1.83106 4.5332 4.33887V12.1787C4.5332 14.6748 6.10352 16.4209 8.44726 16.4209Z" fill="black" fill-opacity="0.85"/>
</g>
<defs>
<clipPath id="clip0_2207_5744">
<rect width="16.7695" height="26.5195" fill="white" transform="translate(0.0566406 0.0966797)"/>
</clipPath>
</defs>
</svg>
