<svg width="24" height="25" viewBox="0 0 24 25" fill="none" xmlns="http://www.w3.org/2000/svg">
<g clip-path="url(#clip0_2207_5780)">
<path d="M12.0183 24.0029C18.5574 24.0029 23.9714 18.5772 23.9714 12.0498C23.9714 5.51074 18.5457 0.0966797 12.0066 0.0966797C5.47925 0.0966797 0.0651855 5.51074 0.0651855 12.0498C0.0651855 18.5772 5.49097 24.0029 12.0183 24.0029ZM12.0183 22.0108C6.48707 22.0108 2.0691 17.5811 2.0691 12.0498C2.0691 6.51856 6.47535 2.08887 12.0066 2.08887C17.5379 2.08887 21.9793 6.51856 21.9793 12.0498C21.9793 17.5811 17.5496 22.0108 12.0183 22.0108Z" fill="black" fill-opacity="0.85"/>
<path d="M9.03002 19.0928H14.9949C15.323 19.0928 15.616 18.7881 15.616 18.46C15.616 18.1201 15.3347 17.8272 14.9949 17.8272H12.6511V16.6436C14.9714 16.374 16.5418 14.6045 16.5418 12.2256V10.7139C16.5418 10.3858 16.2488 10.1045 15.9207 10.1045C15.5808 10.1045 15.2996 10.3858 15.2996 10.7139V12.2256C15.2996 14.1475 13.9402 15.4951 12.0066 15.4951C10.073 15.4951 8.72534 14.1475 8.72534 12.2256V10.7139C8.72534 10.3858 8.43237 10.1045 8.09252 10.1045C7.7644 10.1045 7.48315 10.3858 7.48315 10.7139V12.2256C7.48315 14.6045 9.05346 16.3858 11.3855 16.6436V17.8272H9.03002C8.69018 17.8272 8.39721 18.1201 8.39721 18.46C8.39721 18.7998 8.69018 19.0928 9.03002 19.0928ZM12.0066 14.3115C13.155 14.3115 13.9519 13.4209 13.9519 12.2256V7.19824C13.9519 6.01465 13.155 5.13574 12.0066 5.13574C10.8582 5.13574 10.0613 6.01465 10.0613 7.19824V12.2256C10.0613 13.4209 10.8582 14.3115 12.0066 14.3115Z" fill="black" fill-opacity="0.85"/>
<path d="M16.7175 18.6709C17.2566 19.1983 18.1238 19.21 18.6394 18.6709C19.1902 18.1319 19.1785 17.2998 18.6394 16.7608L7.29566 5.41699C6.7566 4.87793 5.90113 4.87793 5.37378 5.41699C4.83472 5.94434 4.83472 6.81152 5.37378 7.33887L16.7175 18.6709Z" fill="white"/>
<path d="M17.3035 18.0967C17.5027 18.2959 17.8543 18.2959 18.0535 18.0967C18.2644 17.874 18.2644 17.5576 18.0535 17.3467L6.72147 6.00293C6.51053 5.79199 6.17069 5.79199 5.95975 6.00293C5.74881 6.20215 5.76053 6.55371 5.95975 6.75293L17.3035 18.0967Z" fill="black" fill-opacity="0.85"/>
</g>
<defs>
<clipPath id="clip0_2207_5780">
<rect width="23.9062" height="23.918" fill="white" transform="translate(0.0651855 0.0966797)"/>
</clipPath>
</defs>
</svg>
