<svg width="23" height="27" viewBox="0 0 23 27" fill="none" xmlns="http://www.w3.org/2000/svg">
<g clip-path="url(#clip0_2207_5768)">
<path d="M2.84326 12.4834C2.84326 17.0772 5.8667 20.2998 10.3433 20.6748V23.4053H5.98389C5.4917 23.4053 5.10498 23.8037 5.10498 24.2959C5.10498 24.7881 5.4917 25.1748 5.98389 25.1748H16.4605C16.9526 25.1748 17.3394 24.7881 17.3394 24.2959C17.3394 23.8037 16.9526 23.4053 16.4605 23.4053H12.1128V20.6748C16.5776 20.2998 19.6128 17.0772 19.6128 12.4834V10.1045C19.6128 9.6123 19.2144 9.22559 18.7222 9.22559C18.23 9.22559 17.8433 9.6123 17.8433 10.1045V12.4131C17.8433 16.4092 15.23 19.0576 11.2222 19.0576C7.21436 19.0576 4.61279 16.4092 4.61279 12.4131V10.1045C4.61279 9.6123 4.21436 9.22559 3.72217 9.22559C3.22998 9.22559 2.84326 9.6123 2.84326 10.1045V12.4834ZM6.95654 12.0615C6.95654 14.7569 8.70264 16.6553 11.2222 16.6553C13.7534 16.6553 15.4878 14.7569 15.4878 12.0615V4.69043C15.4878 1.9834 13.7534 0.0966797 11.2222 0.0966797C8.70264 0.0966797 6.95654 1.9834 6.95654 4.69043V12.0615ZM8.72608 12.0615V4.69043C8.72608 2.95606 9.72217 1.84277 11.2222 1.84277C12.7222 1.84277 13.7183 2.95606 13.7183 4.69043V12.0615C13.7183 13.7959 12.7222 14.9092 11.2222 14.9092C9.72217 14.9092 8.72608 13.7959 8.72608 12.0615Z" fill="black" fill-opacity="0.85"/>
<path d="M18.8628 22.7959C19.7534 23.6865 21.2183 23.6865 22.0855 22.7725C22.9526 21.8936 22.9526 20.4756 22.0737 19.585L3.94483 1.47949C3.06592 0.588868 1.61279 0.588868 0.722169 1.47949C-0.156738 2.34668 -0.156738 3.81152 0.722169 4.69043L18.8628 22.7959Z" fill="white"/>
<path d="M19.8355 21.835C20.187 22.1865 20.7612 22.1865 21.1128 21.835C21.4526 21.4717 21.4644 20.9092 21.1128 20.5576L2.98389 2.44045C2.63233 2.10061 2.04639 2.08889 1.69483 2.44045C1.35498 2.79201 1.35498 3.37795 1.69483 3.71779L19.8355 21.835Z" fill="black" fill-opacity="0.85"/>
</g>
<defs>
<clipPath id="clip0_2207_5768">
<rect width="22.6714" height="26.7539" fill="white" transform="translate(0.0629883 0.0966797)"/>
</clipPath>
</defs>
</svg>
