<svg width="22" height="22" viewBox="0 0 22 22" fill="none" xmlns="http://www.w3.org/2000/svg">
<g clip-path="url(#clip0_2207_25960)">
<path d="M3.77417 21.6944H17.989C20.45 21.6944 21.6687 20.4756 21.6687 18.0615V3.75293C21.6687 1.33887 20.45 0.120117 17.989 0.120117H3.77417C1.32495 0.120117 0.0944824 1.32715 0.0944824 3.75293V18.0615C0.0944824 20.4873 1.32495 21.6944 3.77417 21.6944ZM3.7976 19.8076C2.62573 19.8076 1.9812 19.1865 1.9812 17.9678V3.84668C1.9812 2.62793 2.62573 2.00684 3.7976 2.00684H17.9656C19.1257 2.00684 19.782 2.62793 19.782 3.84668V17.9678C19.782 19.1865 19.1257 19.8076 17.9656 19.8076H3.7976Z" fill="black" fill-opacity="0.85"/>
<path d="M7.1609 15.1201C7.58277 15.1201 7.88746 14.8272 7.88746 14.3819V9.74121C7.88746 8.87402 8.33277 8.2998 9.08277 8.2998C9.7273 8.2998 10.1843 8.81543 10.1843 9.55371V10.0225L7.7234 16.8428C7.67652 16.9483 7.65308 17.0537 7.65308 17.1709C7.65308 17.4756 7.88746 17.71 8.20387 17.71C8.4734 17.71 8.6609 17.5576 8.76637 17.2881L10.1843 13.3389V14.3819C10.1843 14.8272 10.489 15.1201 10.9109 15.1201C11.3328 15.1201 11.6257 14.8272 11.6257 14.3819V9.68262C11.6257 8.83887 12.0711 8.31151 12.7976 8.31151C13.5125 8.31151 13.9343 8.81542 13.9343 9.63573V14.3819C13.9343 14.8272 14.2273 15.1201 14.6492 15.1201C15.0711 15.1201 15.3757 14.8272 15.3757 14.3819V9.51855C15.3757 7.94823 14.4968 6.99901 13.1375 6.99901C12.95 6.99901 12.7742 7.03417 12.6218 7.09276L13.5125 4.92479C13.5476 4.83105 13.5828 4.72558 13.5828 4.60839C13.5828 4.3037 13.3367 4.08105 13.0203 4.08105C12.7507 4.08105 12.575 4.23339 12.4695 4.4912L11.0398 7.98339C10.7117 7.31542 10.1257 6.99901 9.38746 6.99901C8.71949 6.99901 8.16871 7.29198 7.81715 7.93651V7.79589C7.81715 7.29198 7.52418 7.03417 7.12574 7.03417C6.71558 7.03417 6.42261 7.32714 6.42261 7.76073V14.4053C6.42261 14.8272 6.7273 15.1201 7.1609 15.1201Z" fill="black" fill-opacity="0.85"/>
</g>
<defs>
<clipPath id="clip0_2207_25960">
<rect width="21.5742" height="21.5977" fill="white" transform="translate(0.0944824 0.0966797)"/>
</clipPath>
</defs>
</svg>
