<svg width="24" height="25" viewBox="0 0 24 25" fill="none" xmlns="http://www.w3.org/2000/svg">
<g clip-path="url(#clip0_2207_25950)">
<path d="M12.0434 24.0029C18.5825 24.0029 23.9965 18.5772 23.9965 12.0498C23.9965 5.51074 18.5708 0.0966797 12.0317 0.0966797C5.50439 0.0966797 0.090332 5.51074 0.090332 12.0498C0.090332 18.5772 5.51611 24.0029 12.0434 24.0029ZM12.0434 22.0108C6.51221 22.0108 2.09424 17.5811 2.09424 12.0498C2.09424 6.51856 6.50049 2.08887 12.0317 2.08887C17.563 2.08887 22.0044 6.51856 22.0044 12.0498C22.0044 17.5811 17.5747 22.0108 12.0434 22.0108Z" fill="black" fill-opacity="0.85"/>
<path d="M8.30517 16.2803C8.72705 16.2803 9.02002 15.9873 9.02002 15.542V10.9014C9.02002 10.0342 9.47705 9.45996 10.227 9.45996C10.8715 9.45996 11.3286 9.97559 11.3286 10.7139V11.1826L8.86767 18.0029C8.8208 18.1084 8.79736 18.2139 8.79736 18.3311C8.79736 18.6358 9.03174 18.8701 9.34814 18.8701C9.61767 18.8701 9.80517 18.7178 9.91064 18.4483L11.3286 14.499V15.542C11.3286 15.9873 11.6215 16.2803 12.0434 16.2803C12.477 16.2803 12.77 15.9873 12.77 15.542V10.8428C12.77 9.99902 13.2153 9.47168 13.9419 9.47168C14.6567 9.47168 15.0786 9.97559 15.0786 10.7959V15.542C15.0786 15.9873 15.3715 16.2803 15.7934 16.2803C16.2153 16.2803 16.52 15.9873 16.52 15.542V10.6787C16.52 9.1084 15.6411 8.15918 14.2817 8.15918C14.0825 8.15918 13.9184 8.19434 13.7661 8.25293L14.6567 6.08496C14.6919 5.99121 14.727 5.88574 14.727 5.76856C14.727 5.46387 14.4692 5.24121 14.1528 5.24121C13.895 5.24121 13.7192 5.39356 13.6137 5.65137L12.1841 9.14356C11.8442 8.47559 11.27 8.15918 10.52 8.15918C9.86377 8.15918 9.31299 8.45215 8.96142 9.09668V8.95606C8.96142 8.45215 8.66845 8.19434 8.27002 8.19434C7.85986 8.19434 7.56689 8.4873 7.56689 8.9209V15.5655C7.56689 15.9873 7.87158 16.2803 8.30517 16.2803Z" fill="black" fill-opacity="0.85"/>
</g>
<defs>
<clipPath id="clip0_2207_25950">
<rect width="23.9062" height="23.918" fill="white" transform="translate(0.090332 0.0966797)"/>
</clipPath>
</defs>
</svg>
