<svg width="22" height="22" viewBox="0 0 22 22" fill="none" xmlns="http://www.w3.org/2000/svg">
<g clip-path="url(#clip0_2207_22820)">
<path d="M3.72583 21.6954H17.9406C20.4016 21.6954 21.6203 20.4766 21.6203 18.0625V3.75391C21.6203 1.33985 20.4016 0.121094 17.9406 0.121094H3.72583C1.27661 0.121094 0.0461426 1.32813 0.0461426 3.75391V18.0625C0.0461426 20.4883 1.27661 21.6954 3.72583 21.6954Z" fill="black" fill-opacity="0.85"/>
<path d="M6.11645 11.9219C5.43676 11.9219 4.9563 11.5586 4.9563 10.9141C4.9563 10.2579 5.40161 9.88281 6.11645 9.88281H15.5852C16.2883 9.88281 16.7336 10.2579 16.7336 10.9141C16.7336 11.5586 16.2649 11.9219 15.5852 11.9219H6.11645Z" fill="white"/>
</g>
<defs>
<clipPath id="clip0_2207_22820">
<rect width="21.5742" height="21.5977" fill="white" transform="translate(0.0461426 0.0976562)"/>
</clipPath>
</defs>
</svg>
