<svg width="29" height="27" viewBox="0 0 29 27" fill="none" xmlns="http://www.w3.org/2000/svg">
<g clip-path="url(#clip0_2207_17456)">
<path d="M8.44763 14.4297C7.40466 14.4297 6.79529 15.0157 6.79529 16.0586V24.4375C6.79529 25.4688 7.40466 26.0547 8.44763 26.0547H19.9438C20.9867 26.0547 21.5961 25.4688 21.5961 24.4375V16.0586C21.5961 15.0157 20.9867 14.4297 19.9438 14.4297H8.44763Z" fill="black" fill-opacity="0.85"/>
<path d="M6.66638 8.5C4.33435 8.5 2.78748 10.0234 2.78748 12.3321V20.7227C2.78748 23.043 4.33435 24.5547 6.66638 24.5547H21.7367C24.0688 24.5547 25.6039 23.043 25.6039 20.7227V12.3321C25.6039 10.0234 24.0688 8.5 21.7367 8.5H6.66638Z" fill="white"/>
<path d="M6.53748 10.0938C5.16638 10.0938 4.38123 10.8555 4.38123 12.2032V20.8516C4.38123 22.1993 5.16638 22.961 6.53748 22.961H21.8656C23.2367 22.961 24.0102 22.1993 24.0102 20.8516V12.2032C24.0102 10.8555 23.2367 10.0938 21.8656 10.0938H6.53748Z" fill="black" fill-opacity="0.85"/>
<path d="M5.59998 0.789062C2.10779 0.789062 0.0335693 2.82813 0.0335693 6.3086V15.7774C0.0335693 19.2579 2.10779 21.2969 5.59998 21.2969H22.7914C26.2836 21.2969 28.3578 19.2461 28.3578 15.7774V6.3086C28.3578 2.83985 26.2836 0.789062 22.7914 0.789062H5.59998Z" fill="white"/>
<path d="M5.59998 2.67578C3.15076 2.67578 1.92029 3.88282 1.92029 6.3086V15.7774C1.92029 18.2032 3.15076 19.4102 5.59998 19.4102H22.7914C25.2406 19.4102 26.4711 18.1915 26.4711 15.7774V6.3086C26.4711 3.89454 25.2406 2.67578 22.7914 2.67578H21.7719V1.36328C21.7719 0.566406 21.3148 0.0976562 20.5063 0.0976562H17.4477C16.6391 0.0976562 16.182 0.566406 16.182 1.36328V2.67578H12.2211V1.36328C12.2211 0.566406 11.7641 0.0976562 10.9672 0.0976562H7.88513C7.09998 0.0976562 6.64295 0.566406 6.64295 1.36328V2.67578H5.59998ZM7.09998 11.8165C6.65466 11.8165 6.31482 11.4532 6.31482 11.0079C6.31482 10.5743 6.65466 10.2227 7.09998 10.2227H11.4477C11.8813 10.2227 12.2445 10.5743 12.2445 11.0079C12.2445 11.4532 11.8813 11.8165 11.4477 11.8165H7.09998ZM19.1234 14.2657C18.6781 14.2657 18.3266 13.9141 18.3266 13.4571V11.8165H16.6742C16.2406 11.8165 15.8774 11.4532 15.8774 11.0079C15.8774 10.5743 16.2289 10.2227 16.6742 10.2227H18.3266V8.57032C18.3266 8.11328 18.6781 7.77344 19.1234 7.77344C19.5805 7.77344 19.9203 8.11328 19.9203 8.57032V10.2227H21.5727C22.0063 10.2227 22.3695 10.5743 22.3695 11.0079C22.3695 11.4532 22.0063 11.8165 21.5727 11.8165H19.9203V13.4571C19.9203 13.9141 19.5805 14.2657 19.1234 14.2657Z" fill="black" fill-opacity="0.85"/>
</g>
<defs>
<clipPath id="clip0_2207_17456">
<rect width="28.3242" height="25.9805" fill="white" transform="translate(0.0335693 0.0976562)"/>
</clipPath>
</defs>
</svg>
