<svg width="22" height="22" viewBox="0 0 22 22" fill="none" xmlns="http://www.w3.org/2000/svg">
<g clip-path="url(#clip0_2207_22815)">
<path d="M3.72376 21.6954H17.9386C20.3996 21.6954 21.6183 20.4766 21.6183 18.0625V3.75391C21.6183 1.33985 20.3996 0.121094 17.9386 0.121094H3.72376C1.27454 0.121094 0.0440674 1.32813 0.0440674 3.75391V18.0625C0.0440674 20.4883 1.27454 21.6954 3.72376 21.6954ZM3.74719 19.8086C2.57532 19.8086 1.93079 19.1875 1.93079 17.9688V3.84766C1.93079 2.62891 2.57532 2.00782 3.74719 2.00782H17.9152C19.0753 2.00782 19.7316 2.62891 19.7316 3.84766V17.9688C19.7316 19.1875 19.0753 19.8086 17.9152 19.8086H3.74719Z" fill="black" fill-opacity="0.85"/>
<path d="M6.255 11.8868H15.4425C16.0988 11.8868 16.5558 11.5352 16.5558 10.9141C16.5558 10.2813 16.1222 9.91797 15.4425 9.91797H6.255C5.56359 9.91797 5.13 10.2813 5.13 10.9141C5.13 11.5352 5.59875 11.8868 6.255 11.8868Z" fill="black" fill-opacity="0.85"/>
</g>
<defs>
<clipPath id="clip0_2207_22815">
<rect width="21.5742" height="21.5977" fill="white" transform="translate(0.0440674 0.0976562)"/>
</clipPath>
</defs>
</svg>
