<svg width="23" height="23" viewBox="0 0 23 23" fill="none" xmlns="http://www.w3.org/2000/svg">
<g clip-path="url(#clip0_2207_22873)">
<path d="M0.840332 6.74219H7.26221C7.71924 6.74219 8.09424 6.37891 8.09424 5.92188C8.09424 5.46485 7.71924 5.08985 7.26221 5.08985H0.840332C0.371582 5.08985 0.00830078 5.46485 0.00830078 5.92188C0.00830078 6.37891 0.371582 6.74219 0.840332 6.74219ZM4.22705 22.2344C4.61377 22.2344 4.83642 22.0704 5.14111 21.6368L12.0083 11.4532L18.688 1.58594C18.8521 1.36328 18.9106 1.16407 18.9106 0.929687C18.9106 0.460937 18.5005 0.0976562 18.02 0.0976562C17.6099 0.0976562 17.3872 0.226562 17.0591 0.707031L10.356 10.6563L3.52392 20.7227C3.37158 20.9454 3.28955 21.1329 3.28955 21.3907C3.28955 21.8946 3.71142 22.2344 4.22705 22.2344ZM14.0942 17.1133C14.0942 17.5704 14.4575 17.9336 14.9145 17.9336H17.3169V20.336C17.3169 20.793 17.6802 21.1563 18.1372 21.1563C18.5942 21.1563 18.9692 20.793 18.9692 20.336V17.9336H21.3481C21.8052 17.9336 22.1802 17.5704 22.1802 17.1133C22.1802 16.6563 21.8052 16.2813 21.3481 16.2813H18.9692V13.9024C18.9692 13.4336 18.5825 13.0704 18.1372 13.0704C17.6685 13.0704 17.3169 13.4454 17.3169 13.9024V16.2813H14.9145C14.4575 16.2813 14.0942 16.6563 14.0942 17.1133Z" fill="black" fill-opacity="0.85"/>
</g>
<defs>
<clipPath id="clip0_2207_22873">
<rect width="22.1719" height="22.1367" fill="white" transform="translate(0.00830078 0.0976562)"/>
</clipPath>
</defs>
</svg>
