<svg width="28" height="22" viewBox="0 0 28 22" fill="none" xmlns="http://www.w3.org/2000/svg">
<g clip-path="url(#clip0_2207_17412)">
<path d="M3.69434 21.6719H23.9677C26.4287 21.6719 27.6474 20.4649 27.6474 18.0508V6.71875C27.6474 4.30469 26.4287 3.09766 23.9677 3.09766H22.3505V1.52735C22.3505 0.636718 21.8349 0.0976562 20.9326 0.0976562H17.4755C16.5849 0.0976562 16.0693 0.636718 16.0693 1.52735V3.09766H11.6044V1.52735C11.6044 0.636718 11.0888 0.0976562 10.1865 0.0976562H6.72949C5.82715 0.0976562 5.32324 0.636718 5.32324 1.52735V3.09766H3.69434C1.24512 3.09766 0.0146484 4.30469 0.0146484 6.71875V18.0508C0.0146484 20.4649 1.24512 21.6719 3.69434 21.6719ZM1.90137 17.9454V6.82422C1.90137 5.60547 2.5459 4.98438 3.71777 4.98438H23.9443C25.1045 4.98438 25.7607 5.60547 25.7607 6.82422V17.9454C25.7607 19.1641 25.1045 19.7852 23.9443 19.7852H3.71777C2.5459 19.7852 1.90137 19.1641 1.90137 17.9454Z" fill="black" fill-opacity="0.85"/>
<path d="M6.00293 13.2461H10.8896C11.3701 13.2461 11.7451 12.8711 11.7451 12.3907C11.7451 11.8985 11.3701 11.5235 10.8896 11.5235H6.00293C5.52246 11.5235 5.13574 11.8985 5.13574 12.3907C5.13574 12.8711 5.52246 13.2461 6.00293 13.2461ZM19.1982 15.918C19.6787 15.918 20.0537 15.543 20.0537 15.0625V13.2461H21.8701C22.3505 13.2461 22.7373 12.8711 22.7373 12.3907C22.7373 11.8985 22.3505 11.5235 21.8701 11.5235H20.0537V9.70703C20.0537 9.22656 19.6787 8.83984 19.1982 8.83984C18.7177 8.83984 18.331 9.22656 18.331 9.70703V11.5235H16.5146C16.0341 11.5235 15.6591 11.8985 15.6591 12.3907C15.6591 12.8711 16.0341 13.2461 16.5146 13.2461H18.331V15.0625C18.331 15.543 18.7177 15.918 19.1982 15.918Z" fill="black" fill-opacity="0.85"/>
</g>
<defs>
<clipPath id="clip0_2207_17412">
<rect width="27.6328" height="21.5977" fill="white" transform="translate(0.0146484 0.0976562)"/>
</clipPath>
</defs>
</svg>
