<svg width="24" height="25" viewBox="0 0 24 25" fill="none" xmlns="http://www.w3.org/2000/svg">
<g clip-path="url(#clip0_2207_22805)">
<path d="M11.9531 24.0039C18.4922 24.0039 23.9062 18.5782 23.9062 12.0508C23.9062 5.51172 18.4805 0.0976562 11.9414 0.0976562C5.41406 0.0976562 0 5.51172 0 12.0508C0 18.5782 5.42578 24.0039 11.9531 24.0039ZM11.9531 22.0118C6.42188 22.0118 2.00391 17.5821 2.00391 12.0508C2.00391 6.51954 6.41016 2.08985 11.9414 2.08985C17.4727 2.08985 21.9141 6.51954 21.9141 12.0508C21.9141 17.5821 17.4844 22.0118 11.9531 22.0118Z" fill="black" fill-opacity="0.85"/>
<path d="M7.34766 13.0468H16.5469C17.2031 13.0468 17.6484 12.6953 17.6484 12.0742C17.6484 11.4414 17.2266 11.0781 16.5469 11.0781H7.34766C6.66797 11.0781 6.23438 11.4414 6.23438 12.0742C6.23438 12.6953 6.69141 13.0468 7.34766 13.0468Z" fill="black" fill-opacity="0.85"/>
</g>
<defs>
<clipPath id="clip0_2207_22805">
<rect width="23.9062" height="23.918" fill="white" transform="translate(0 0.0976562)"/>
</clipPath>
</defs>
</svg>
