<svg width="27" height="27" viewBox="0 0 27 27" fill="none" xmlns="http://www.w3.org/2000/svg">
<g clip-path="url(#clip0_2207_22845)">
<path d="M1.31821 15.9782L10.705 25.3649C12.4394 27.0993 14.1503 27.111 15.8729 25.4L25.3064 15.9547C27.0175 14.2438 27.0058 12.5211 25.2714 10.7868L15.8964 1.41172C14.162 -0.322661 12.4511 -0.346099 10.7284 1.37656L1.28305 10.8102C-0.439605 12.5329 -0.416167 14.2438 1.31821 15.9782ZM2.67758 14.6774C1.84555 13.8336 1.82211 12.9547 2.6893 12.0875L11.994 2.78281C12.8612 1.91562 13.7401 1.92734 14.5839 2.77109L23.912 12.0993C24.744 12.9313 24.7675 13.8219 23.9002 14.6891L14.5956 23.9938C13.7284 24.861 12.8261 24.8375 12.0058 24.0172L2.67758 14.6774Z" fill="black" fill-opacity="0.85"/>
<path d="M8.71274 14.3845H17.9002C18.5564 14.3845 19.0135 14.033 19.0135 13.4119C19.0135 12.779 18.5916 12.4158 17.9002 12.4158H8.71274C8.03305 12.4158 7.58774 12.779 7.58774 13.4119C7.58774 14.033 8.05649 14.3845 8.71274 14.3845Z" fill="black" fill-opacity="0.85"/>
</g>
<defs>
<clipPath id="clip0_2207_22845">
<rect width="26.5768" height="26.593" fill="white" transform="translate(0.00415039 0.0976562)"/>
</clipPath>
</defs>
</svg>
