<svg width="38" height="19" viewBox="0 0 38 19" fill="none" xmlns="http://www.w3.org/2000/svg">
<g clip-path="url(#clip0_2207_15929)">
<path d="M4.84338 9.84766C4.84338 14.7813 7.73791 17.3711 12.7418 17.3711H30.5426C32.3473 17.3711 33.8824 17.5469 35.3238 17.9102C36.5426 18.2149 37.5152 17.711 37.5152 16.4571V10.8438C37.5152 10.0469 36.941 9.46094 36.1324 9.46094H33.109C32.1246 9.46094 31.6442 9.03907 31.7379 8.125L32.0895 4.69141C32.3824 1.83204 30.7535 0.0976562 27.566 0.0976562C23.8746 0.109375 17.0777 0.25 13.1754 0.707031C7.84338 1.36328 4.84338 4.6211 4.84338 9.84766ZM6.7301 9.84766C6.7301 5.71094 9.08557 3.09766 13.3395 2.60547C17.1832 2.17188 23.8863 1.98438 27.566 1.98438C29.5934 1.98438 30.4137 2.80469 30.2262 4.48047L29.3004 12.8008C29.0777 14.7696 28.234 15.4844 26.0777 15.4844H12.7066C8.94494 15.4844 6.7301 13.5391 6.7301 9.84766Z" fill="black" fill-opacity="0.85"/>
<path d="M2.62854 11.9571H11.652C13.0816 11.9571 14.2301 10.8086 14.2301 9.39063C14.2301 7.96094 13.0816 6.8125 11.652 6.8125H2.62854C1.19886 6.8125 0.050415 7.96094 0.050415 9.39063C0.050415 10.8086 1.19886 11.9571 2.62854 11.9571Z" fill="white"/>
<path d="M1.04651 6.69531C1.04651 8.99218 2.47619 10.3633 4.90197 10.3633H11.1246V11.711C11.1246 12.5079 11.6871 12.7891 12.3434 12.3321L15.6129 10.1055C16.152 9.74219 16.152 9.09765 15.6129 8.73437L12.3668 6.50781C11.6871 6.02734 11.1246 6.33203 11.1246 7.1289V8.40624H4.90197C3.7301 8.40624 3.03869 7.77343 3.03869 6.69531V5.14843C3.03869 4.59765 2.59338 4.14062 2.0426 4.14062C1.49182 4.14062 1.04651 4.59765 1.04651 5.14843V6.69531Z" fill="black" fill-opacity="0.85"/>
</g>
<defs>
<clipPath id="clip0_2207_15929">
<rect width="37.4648" height="18.1523" fill="white" transform="translate(0.050415 0.0976562)"/>
</clipPath>
</defs>
</svg>
