<svg width="24" height="24" viewBox="0 0 24 24" fill="none" xmlns="http://www.w3.org/2000/svg">
<g clip-path="url(#clip0_2207_4120)">
<path d="M18.2046 15.8008C11.8648 15.8008 7.81006 11.8282 7.81006 5.47657C7.81006 4.16407 8.12646 2.28907 8.54834 1.31641C8.6538 1.04688 8.67724 0.882812 8.67724 0.765625C8.67724 0.449218 8.44287 0.0976562 7.98584 0.0976562C7.85693 0.0976562 7.57568 0.132812 7.31787 0.226562C2.98193 1.96094 0.0756836 6.625 0.0756836 11.5352C0.0756836 18.4258 5.32568 23.3477 12.1929 23.3477C17.2437 23.3477 21.6148 20.2891 23.0679 16.4688C23.1734 16.1993 23.1968 15.918 23.1968 15.8125C23.1968 15.3789 22.8335 15.086 22.5054 15.086C22.353 15.086 22.2241 15.1211 22.0015 15.1915C21.0991 15.4844 19.646 15.8008 18.2046 15.8008Z" fill="black" fill-opacity="0.85"/>
</g>
<defs>
<clipPath id="clip0_2207_4120">
<rect width="23.1211" height="23.2617" fill="white" transform="translate(0.0756836 0.0976562)"/>
</clipPath>
</defs>
</svg>
