<svg width="23" height="29" viewBox="0 0 23 29" fill="none" xmlns="http://www.w3.org/2000/svg">
<g clip-path="url(#clip0_2207_4223)">
<path d="M16.6552 5.07813H13.995V5.01954L16.7255 1.42188C16.9716 1.09375 17.0654 0.90625 17.0654 0.695312C17.0654 0.320312 16.7841 0.0976562 16.3857 0.0976562H12.6357C12.2724 0.0976562 12.0146 0.34375 12.0146 0.707031C12.0146 1.08203 12.2724 1.31641 12.6357 1.31641H15.1435V1.375L12.3778 4.96094C12.1318 5.27735 12.0497 5.45313 12.0497 5.69922C12.0497 6.03907 12.3075 6.28516 12.706 6.28516H16.6552C17.0185 6.28516 17.2763 6.0625 17.2763 5.67578C17.2763 5.3125 17.0185 5.07813 16.6552 5.07813ZM22.1396 9.56641H20.2646V9.51954L22.2099 6.96485C22.4325 6.67188 22.5263 6.4961 22.5263 6.27344C22.5263 5.9336 22.2568 5.72266 21.8935 5.72266H19.0224C18.6943 5.72266 18.4482 5.95704 18.4482 6.28516C18.4482 6.66016 18.6943 6.88282 19.0224 6.88282H20.7099V6.92969L18.788 9.46094C18.5654 9.74219 18.4833 9.92969 18.4833 10.1641C18.4833 10.4805 18.7294 10.7149 19.0927 10.7149H22.1396C22.4911 10.7149 22.7255 10.5039 22.7255 10.1407C22.7255 9.78907 22.4911 9.56641 22.1396 9.56641ZM16.9716 13.5625H15.3778V13.5157L17.0302 11.3243C17.2411 11.0313 17.3349 10.8672 17.3349 10.668C17.3349 10.3399 17.0771 10.1407 16.7255 10.1407H14.206C13.8896 10.1407 13.6552 10.3516 13.6552 10.6797C13.6552 11.0313 13.8896 11.2305 14.206 11.2305H15.6122V11.2891L13.9833 13.4688C13.7724 13.7383 13.6904 13.9141 13.6904 14.1368C13.6904 14.4415 13.9247 14.6641 14.2646 14.6641H16.9716C17.2997 14.6641 17.5224 14.4415 17.5224 14.1133C17.5224 13.7852 17.2997 13.5625 16.9716 13.5625Z" fill="black" fill-opacity="0.85"/>
<path d="M10.21 26.828C14.4522 26.828 17.8858 24.7186 19.4561 21.0623C19.6319 20.6522 19.6084 20.2889 19.3975 20.078C19.2217 19.9022 18.9053 19.8787 18.542 20.0077C17.5811 20.3944 16.4678 20.5819 15.1905 20.5819C9.89356 20.5819 6.45996 17.2537 6.45996 12.0506C6.45996 10.7264 6.70606 9.23816 7.10449 8.42957C7.31543 8.01942 7.30371 7.65613 7.12793 7.4452C6.92871 7.21082 6.56543 7.17566 6.09668 7.35145C2.49902 8.78113 0.0966797 12.5545 0.0966797 16.8436C0.0966797 22.5389 4.29199 26.828 10.21 26.828Z" fill="black" fill-opacity="0.85"/>
</g>
<defs>
<clipPath id="clip0_2207_4223">
<rect width="22.6289" height="28.418" fill="white" transform="translate(0.0966797 0.0976562)"/>
</clipPath>
</defs>
</svg>
