<svg width="24" height="25" viewBox="0 0 24 25" fill="none" xmlns="http://www.w3.org/2000/svg">
<g clip-path="url(#clip0_2207_4188)">
<path d="M12.0224 24.0039C18.5615 24.0039 23.9755 18.5782 23.9755 12.0508C23.9755 5.51172 18.5498 0.0976562 12.0107 0.0976562C5.4834 0.0976562 0.0693359 5.51172 0.0693359 12.0508C0.0693359 18.5782 5.49512 24.0039 12.0224 24.0039ZM12.0224 22.0118C6.49122 22.0118 2.07325 17.5821 2.07325 12.0508C2.07325 6.51954 6.4795 2.08985 12.0107 2.08985C17.542 2.08985 21.9834 6.51954 21.9834 12.0508C21.9834 17.5821 17.5537 22.0118 12.0224 22.0118Z" fill="black" fill-opacity="0.85"/>
<path d="M7.39356 13.258H16.2177C16.4521 12.965 16.6162 12.6486 16.7802 12.297C16.8974 12.0158 16.874 11.7814 16.7216 11.6173C16.6045 11.5119 16.4052 11.4884 16.1474 11.5705C15.6904 11.7697 15.1045 11.8517 14.4365 11.8517C11.6826 11.8517 9.95996 10.1642 9.95996 7.4923C9.95996 6.77746 10.0654 6.02746 10.2763 5.62902C10.4052 5.37121 10.3818 5.14855 10.2763 4.98449C10.1474 4.82043 9.86622 4.78527 9.58496 4.91418C7.66309 5.69933 6.36231 7.69152 6.36231 10.0118C6.36231 11.254 6.72559 12.3556 7.39356 13.258ZM5.43653 15.3908H18.5732C18.9365 15.3908 19.2646 15.1095 19.2646 14.7462C19.2646 14.3712 18.9482 14.1017 18.5732 14.1017H5.43653C5.07325 14.1017 4.75684 14.383 4.75684 14.7462C4.75684 15.1095 5.08496 15.3908 5.43653 15.3908ZM6.26856 17.465C6.57325 17.465 6.83106 17.2189 6.83106 16.9142C6.83106 16.5978 6.57325 16.3517 6.26856 16.3517C5.96387 16.3517 5.70606 16.5978 5.70606 16.9142C5.70606 17.2189 5.96387 17.465 6.26856 17.465ZM9.15137 17.465C9.45606 17.465 9.70215 17.2189 9.70215 16.9142C9.70215 16.5978 9.45606 16.3517 9.15137 16.3517C8.84668 16.3517 8.58887 16.5978 8.58887 16.9142C8.58887 17.2189 8.84668 17.465 9.15137 17.465ZM12.0224 17.465C12.3271 17.465 12.5849 17.2189 12.5849 16.9142C12.5849 16.5978 12.3271 16.3517 12.0224 16.3517C11.7177 16.3517 11.4599 16.5978 11.4599 16.9142C11.4599 17.2189 11.7177 17.465 12.0224 17.465ZM14.8935 17.465C15.1982 17.465 15.456 17.2189 15.456 16.9142C15.456 16.5978 15.1982 16.3517 14.8935 16.3517C14.5888 16.3517 14.3427 16.5978 14.3427 16.9142C14.3427 17.2189 14.5888 17.465 14.8935 17.465ZM17.7763 17.465C18.081 17.465 18.3271 17.2189 18.3271 16.9142C18.3271 16.5978 18.081 16.3517 17.7763 16.3517C17.4716 16.3517 17.2138 16.5978 17.2138 16.9142C17.2138 17.2189 17.4716 17.465 17.7763 17.465ZM7.69825 19.047C8.00293 19.047 8.26075 18.8009 8.26075 18.4845C8.26075 18.1798 8.00293 17.9337 7.69825 17.9337C7.39356 17.9337 7.13575 18.1798 7.13575 18.4845C7.13575 18.8009 7.39356 19.047 7.69825 19.047ZM10.581 19.047C10.8857 19.047 11.1318 18.8009 11.1318 18.4845C11.1318 18.1798 10.8857 17.9337 10.581 17.9337C10.2763 17.9337 10.0186 18.1798 10.0186 18.4845C10.0186 18.8009 10.2763 19.047 10.581 19.047ZM13.4521 19.047C13.7568 19.047 14.0146 18.8009 14.0146 18.4845C14.0146 18.1798 13.7568 17.9337 13.4521 17.9337C13.1474 17.9337 12.8896 18.1798 12.8896 18.4845C12.8896 18.8009 13.1474 19.047 13.4521 19.047ZM16.3232 19.047C16.6279 19.047 16.8857 18.8009 16.8857 18.4845C16.8857 18.1798 16.6279 17.9337 16.3232 17.9337C16.0185 17.9337 15.7607 18.1798 15.7607 18.4845C15.7607 18.8009 16.0185 19.047 16.3232 19.047Z" fill="black" fill-opacity="0.85"/>
</g>
<defs>
<clipPath id="clip0_2207_4188">
<rect width="23.9062" height="23.918" fill="white" transform="translate(0.0693359 0.0976562)"/>
</clipPath>
</defs>
</svg>
