<svg width="24" height="27" viewBox="0 0 24 27" fill="none" xmlns="http://www.w3.org/2000/svg">
<g clip-path="url(#clip0_2207_4238)">
<path d="M19.0237 13.7266C19.2464 13.7266 19.3987 13.5743 19.4221 13.3399C19.8089 10.211 19.9612 10.1289 23.137 9.61328C23.3831 9.57813 23.5354 9.44922 23.5354 9.22657C23.5354 9.00391 23.3831 8.86328 23.1839 8.82813C19.9846 8.21875 19.8089 8.23047 19.4221 5.10157C19.3987 4.86719 19.2464 4.71485 19.0237 4.71485C18.8128 4.71485 18.6604 4.86719 18.6253 5.08985C18.2268 8.26563 18.1096 8.3711 14.8635 8.82813C14.6643 8.85157 14.512 9.00391 14.512 9.22657C14.512 9.4375 14.6643 9.57813 14.8635 9.61328C18.1096 10.2344 18.2151 10.2344 18.6253 13.3633C18.6604 13.5743 18.8128 13.7266 19.0237 13.7266ZM13.4221 5.79297C13.5628 5.79297 13.6331 5.71094 13.6565 5.58204C14.0198 3.625 14.0081 3.57813 16.0471 3.19141C16.176 3.16797 16.2698 3.08594 16.2698 2.94532C16.2698 2.80469 16.176 2.72266 16.0471 2.69922C14.0081 2.28907 14.0784 2.24219 13.6565 0.308594C13.6331 0.179687 13.5628 0.0976562 13.4221 0.0976562C13.2815 0.0976562 13.1995 0.179687 13.176 0.308594C12.7659 2.24219 12.8362 2.28907 10.7971 2.69922C10.6565 2.72266 10.5745 2.80469 10.5745 2.94532C10.5745 3.08594 10.6565 3.16797 10.7971 3.19141C12.8362 3.60157 12.8128 3.625 13.176 5.58204C13.1995 5.71094 13.2815 5.79297 13.4221 5.79297Z" fill="black" fill-opacity="0.85"/>
<path d="M10.3284 24.4374C14.6174 24.4374 18.0979 22.2812 19.6682 18.6015C19.8792 18.1093 19.8089 17.7109 19.5862 17.4882C19.387 17.2773 19.0237 17.2421 18.6135 17.3945C17.7229 17.746 16.6565 17.957 15.3089 17.957C10.0588 17.957 6.69556 14.6757 6.69556 9.54292C6.69556 8.12495 6.96509 6.70699 7.32837 5.9687C7.55102 5.51167 7.5393 5.10152 7.32837 4.86714C7.10571 4.60933 6.70727 4.5273 6.16821 4.73823C2.57056 6.20308 0.0861816 9.9648 0.0861816 14.3359C0.0861816 20.0429 4.29321 24.4374 10.3284 24.4374ZM10.3518 22.6445C5.35962 22.6445 1.87915 18.9999 1.87915 14.1953C1.87915 11.2538 3.25024 8.64058 5.42993 6.97652C5.13696 7.74995 4.9729 8.91011 4.9729 10.0351C4.9729 15.8124 8.95727 19.6796 14.8635 19.6796C15.9065 19.6796 16.8674 19.539 17.3714 19.3749C15.9065 21.4023 13.2932 22.6445 10.3518 22.6445Z" fill="black" fill-opacity="0.85"/>
</g>
<defs>
<clipPath id="clip0_2207_4238">
<rect width="23.4492" height="26.2383" fill="white" transform="translate(0.0861816 0.0976562)"/>
</clipPath>
</defs>
</svg>
