<svg width="24" height="25" viewBox="0 0 24 25" fill="none" xmlns="http://www.w3.org/2000/svg">
<g clip-path="url(#clip0_2207_4208)">
<path d="M12.0329 24.0039C18.572 24.0039 23.986 18.5782 23.986 12.0508C23.986 5.51172 18.5603 0.0976562 12.0212 0.0976562C5.49389 0.0976562 0.079834 5.51172 0.079834 12.0508C0.079834 18.5782 5.50561 24.0039 12.0329 24.0039ZM12.0329 22.0118C6.50171 22.0118 2.08374 17.5821 2.08374 12.0508C2.08374 6.51954 6.48999 2.08985 12.0212 2.08985C17.5525 2.08985 21.9939 6.51954 21.9939 12.0508C21.9939 17.5821 17.5642 22.0118 12.0329 22.0118Z" fill="black" fill-opacity="0.85"/>
<path d="M8.04858 13.082H16.3923C16.6267 12.8007 16.7907 12.496 16.9431 12.1562C17.0486 11.8984 17.0251 11.6757 16.8845 11.5234C16.7673 11.4179 16.5798 11.3945 16.3454 11.4765C15.9001 11.664 15.3493 11.746 14.7165 11.746C12.115 11.746 10.4626 10.1406 10.4626 7.59759C10.4626 6.92962 10.5681 6.21478 10.7673 5.83978C10.8962 5.59368 10.8728 5.38275 10.7673 5.2304C10.6384 5.07806 10.3923 5.0429 10.111 5.16009C8.29467 5.91009 7.06421 7.79681 7.06421 9.98821C7.06421 11.1718 7.42749 12.2265 8.04858 13.082ZM6.27905 14.7578H18.865C19.0993 14.7578 19.2751 14.582 19.2751 14.3476C19.2751 14.1015 19.0993 13.9257 18.865 13.9257H6.27905C6.04467 13.9257 5.86889 14.1132 5.86889 14.3476C5.86889 14.582 6.04467 14.7578 6.27905 14.7578ZM5.18921 16.3632H17.7634C17.9978 16.3632 18.1736 16.1874 18.1736 15.9531C18.1736 15.707 17.9978 15.5312 17.7634 15.5312H5.18921C4.95483 15.5312 4.76733 15.7187 4.76733 15.9531C4.76733 16.1874 4.95483 16.3632 5.18921 16.3632ZM6.27905 17.9687H18.865C19.0993 17.9687 19.2751 17.7929 19.2751 17.5585C19.2751 17.3124 19.0993 17.1367 18.865 17.1367H6.27905C6.04467 17.1367 5.86889 17.3242 5.86889 17.5585C5.86889 17.7929 6.04467 17.9687 6.27905 17.9687Z" fill="black" fill-opacity="0.85"/>
</g>
<defs>
<clipPath id="clip0_2207_4208">
<rect width="23.9062" height="23.918" fill="white" transform="translate(0.079834 0.0976562)"/>
</clipPath>
</defs>
</svg>
