<svg width="24" height="25" viewBox="0 0 24 25" fill="none" xmlns="http://www.w3.org/2000/svg">
<g clip-path="url(#clip0_2207_4053)">
<path d="M11.9553 22.0137C6.42407 22.0137 2.0061 17.584 2.0061 12.0527C2.0061 6.52149 6.41235 2.0918 11.9436 2.0918C17.4749 2.0918 21.9163 6.52149 21.9163 12.0527C21.9163 17.584 17.4866 22.0137 11.9553 22.0137Z" fill="black" fill-opacity="0.85"/>
<path d="M11.9553 24.0058C18.4944 24.0058 23.9084 18.5801 23.9084 12.0527C23.9084 5.51367 18.4827 0.0996094 11.9436 0.0996094C5.41626 0.0996094 0.00219727 5.51367 0.00219727 12.0527C0.00219727 18.5801 5.42798 24.0058 11.9553 24.0058ZM11.9553 22.0137C6.42408 22.0137 2.00611 17.584 2.00611 12.0527C2.00611 6.52149 6.41236 2.0918 11.9436 2.0918C17.4749 2.0918 21.9163 6.52149 21.9163 12.0527C21.9163 17.584 17.4866 22.0137 11.9553 22.0137Z" fill="black" fill-opacity="0.85"/>
</g>
<defs>
<clipPath id="clip0_2207_4053">
<rect width="23.9062" height="23.918" fill="white" transform="translate(0.00219727 0.0996094)"/>
</clipPath>
</defs>
</svg>
