<svg width="25" height="25" viewBox="0 0 25 25" fill="none" xmlns="http://www.w3.org/2000/svg">
<g clip-path="url(#clip0_2207_4043)">
<path d="M12.0518 22.1172V2.19531C17.5714 2.19531 22.001 6.62499 22.0128 12.1563C22.0245 17.6875 17.5831 22.1172 12.0518 22.1172Z" fill="black" fill-opacity="0.85"/>
<path d="M12.0517 24.1094C18.5908 24.1094 24.0048 18.6836 24.0048 12.1563C24.0048 5.61719 18.5791 0.203125 12.0517 0.203125C5.51269 0.203125 0.0986328 5.61719 0.0986328 12.1563C0.0986328 18.6836 5.52441 24.1094 12.0517 24.1094ZM12.0517 22.1172V2.19532C17.5713 2.19532 22.0009 6.625 22.0127 12.1563C22.0244 17.6875 17.583 22.1172 12.0517 22.1172Z" fill="black" fill-opacity="0.85"/>
</g>
<defs>
<clipPath id="clip0_2207_4043">
<rect width="23.9062" height="24.0117" fill="white" transform="translate(0.0986328 0.0976562)"/>
</clipPath>
</defs>
</svg>
