<svg width="27" height="29" viewBox="0 0 27 29" fill="none" xmlns="http://www.w3.org/2000/svg">
<g clip-path="url(#clip0_2207_4183)">
<path d="M5.12427 15.9531H19.761C20.136 15.4843 20.4407 14.957 20.6868 14.371C20.886 13.914 20.8508 13.5156 20.6047 13.2695C20.4055 13.0585 20.054 13.0234 19.6438 13.1757C18.8587 13.4804 17.9329 13.6328 16.7962 13.6328C12.261 13.6328 9.37818 10.832 9.37818 6.41405C9.37818 5.24217 9.60083 3.98826 9.91724 3.33202C10.1282 2.92186 10.1047 2.52342 9.8938 2.25389C9.68287 1.99608 9.26099 1.92576 8.78052 2.12498C5.5813 3.42576 3.41333 6.76561 3.41333 10.5976C3.41333 12.6367 4.02271 14.4882 5.12427 15.9531Z" fill="black" fill-opacity="0.85"/>
<path d="M1.11646 18.8007H24.9173C25.3391 18.8007 25.6555 18.4843 25.6555 18.0624C25.6555 17.6406 25.3391 17.3242 24.9173 17.3242H1.11646C0.706298 17.3242 0.378174 17.6406 0.378174 18.0624C0.378174 18.4843 0.706298 18.8007 1.11646 18.8007ZM2.17115 22.5976C2.51099 22.5976 2.7688 22.3281 2.7688 21.9999C2.7688 21.6601 2.51099 21.3906 2.17115 21.3906C1.8313 21.3906 1.57349 21.6601 1.57349 21.9999C1.57349 22.3281 1.8313 22.5976 2.17115 22.5976ZM7.11646 22.5976C7.4563 22.5976 7.72583 22.3281 7.72583 21.9999C7.72583 21.6601 7.4563 21.3906 7.11646 21.3906C6.78833 21.3906 6.5188 21.6601 6.5188 21.9999C6.5188 22.3281 6.78833 22.5976 7.11646 22.5976ZM12.0735 22.5976C12.4133 22.5976 12.6712 22.3281 12.6712 21.9999C12.6712 21.6601 12.4133 21.3906 12.0735 21.3906C11.7337 21.3906 11.4758 21.6601 11.4758 21.9999C11.4758 22.3281 11.7337 22.5976 12.0735 22.5976ZM17.0188 22.5976C17.3587 22.5976 17.6282 22.3281 17.6282 21.9999C17.6282 21.6601 17.3587 21.3906 17.0188 21.3906C16.6907 21.3906 16.4212 21.6601 16.4212 21.9999C16.4212 22.3281 16.6907 22.5976 17.0188 22.5976ZM21.9758 22.5976C22.3157 22.5976 22.5735 22.3281 22.5735 21.9999C22.5735 21.6601 22.3157 21.3906 21.9758 21.3906C21.636 21.3906 21.3782 21.6601 21.3782 21.9999C21.3782 22.3281 21.636 22.5976 21.9758 22.5976ZM0.671142 25.4335C1.01099 25.4335 1.28052 25.1757 1.28052 24.8359C1.28052 24.496 1.01099 24.2382 0.671142 24.2382C0.343017 24.2382 0.0734863 24.496 0.0734863 24.8359C0.0734863 25.1757 0.343017 25.4335 0.671142 25.4335ZM5.62818 25.4335C5.9563 25.4335 6.22583 25.1757 6.22583 24.8359C6.22583 24.496 5.9563 24.2382 5.62818 24.2382C5.28833 24.2382 5.0188 24.496 5.0188 24.8359C5.0188 25.1757 5.28833 25.4335 5.62818 25.4335ZM10.5735 25.4335C10.9133 25.4335 11.1829 25.1757 11.1829 24.8359C11.1829 24.496 10.9133 24.2382 10.5735 24.2382C10.2454 24.2382 9.97583 24.496 9.97583 24.8359C9.97583 25.1757 10.2454 25.4335 10.5735 25.4335ZM15.5305 25.4335C15.8587 25.4335 16.1282 25.1757 16.1282 24.8359C16.1282 24.496 15.8587 24.2382 15.5305 24.2382C15.1907 24.2382 14.9212 24.496 14.9212 24.8359C14.9212 25.1757 15.1907 25.4335 15.5305 25.4335ZM20.4758 25.4335C20.8157 25.4335 21.0852 25.1757 21.0852 24.8359C21.0852 24.496 20.8157 24.2382 20.4758 24.2382C20.1477 24.2382 19.8782 24.496 19.8782 24.8359C19.8782 25.1757 20.1477 25.4335 20.4758 25.4335ZM25.4329 25.4335C25.761 25.4335 26.0305 25.1757 26.0305 24.8359C26.0305 24.496 25.761 24.2382 25.4329 24.2382C25.093 24.2382 24.8235 24.496 24.8235 24.8359C24.8235 25.1757 25.093 25.4335 25.4329 25.4335ZM4.12818 28.2812C4.46802 28.2812 4.72583 28.0117 4.72583 27.6835C4.72583 27.3437 4.46802 27.0742 4.12818 27.0742C3.78833 27.0742 3.53052 27.3437 3.53052 27.6835C3.53052 28.0117 3.78833 28.2812 4.12818 28.2812ZM9.08521 28.2812C9.41333 28.2812 9.68287 28.0117 9.68287 27.6835C9.68287 27.3437 9.41333 27.0742 9.08521 27.0742C8.74537 27.0742 8.47583 27.3437 8.47583 27.6835C8.47583 28.0117 8.74537 28.2812 9.08521 28.2812ZM14.0305 28.2812C14.3704 28.2812 14.6282 28.0117 14.6282 27.6835C14.6282 27.3437 14.3704 27.0742 14.0305 27.0742C13.6907 27.0742 13.4329 27.3437 13.4329 27.6835C13.4329 28.0117 13.6907 28.2812 14.0305 28.2812ZM18.9876 28.2812C19.3157 28.2812 19.5852 28.0117 19.5852 27.6835C19.5852 27.3437 19.3157 27.0742 18.9876 27.0742C18.6477 27.0742 18.3782 27.3437 18.3782 27.6835C18.3782 28.0117 18.6477 28.2812 18.9876 28.2812ZM23.9329 28.2812C24.2727 28.2812 24.5305 28.0117 24.5305 27.6835C24.5305 27.3437 24.2727 27.0742 23.9329 27.0742C23.593 27.0742 23.3352 27.3437 23.3352 27.6835C23.3352 28.0117 23.593 28.2812 23.9329 28.2812Z" fill="black" fill-opacity="0.85"/>
</g>
<defs>
<clipPath id="clip0_2207_4183">
<rect width="25.957" height="28.1836" fill="white" transform="translate(0.0734863 0.0976562)"/>
</clipPath>
</defs>
</svg>
