<svg width="23" height="30" viewBox="0 0 23 30" fill="none" xmlns="http://www.w3.org/2000/svg">
<g clip-path="url(#clip0_2207_4218)">
<path d="M16.6531 5.07813H13.9929V5.01954L16.7234 1.42188C16.9695 1.09375 17.0633 0.90625 17.0633 0.695312C17.0633 0.320312 16.782 0.0976562 16.3836 0.0976562H12.6336C12.2703 0.0976562 12.0125 0.34375 12.0125 0.707031C12.0125 1.08203 12.2703 1.31641 12.6336 1.31641H15.1414V1.375L12.3757 4.96094C12.1297 5.27735 12.0476 5.45313 12.0476 5.69922C12.0476 6.03907 12.3054 6.28516 12.7039 6.28516H16.6531C17.0164 6.28516 17.2742 6.0625 17.2742 5.67578C17.2742 5.3125 17.0164 5.07813 16.6531 5.07813ZM22.1375 9.56641H20.2625V9.51954L22.2078 6.96485C22.4304 6.67188 22.5242 6.4961 22.5242 6.27344C22.5242 5.9336 22.2547 5.72266 21.8914 5.72266H19.0203C18.6922 5.72266 18.4461 5.95704 18.4461 6.28516C18.4461 6.66016 18.6922 6.88282 19.0203 6.88282H20.7078V6.92969L18.7859 9.46094C18.5633 9.74219 18.4812 9.92969 18.4812 10.1641C18.4812 10.4805 18.7273 10.7149 19.0906 10.7149H22.1375C22.4889 10.7149 22.7234 10.5039 22.7234 10.1407C22.7234 9.78907 22.4889 9.56641 22.1375 9.56641ZM16.9695 13.5625H15.3757V13.5157L17.0281 11.3243C17.239 11.0313 17.3328 10.8672 17.3328 10.668C17.3328 10.3399 17.075 10.1407 16.7234 10.1407H14.2039C13.8875 10.1407 13.6531 10.3516 13.6531 10.6797C13.6531 11.0313 13.8875 11.2305 14.2039 11.2305H15.6101V11.2891L13.9812 13.4688C13.7703 13.7383 13.6883 13.9141 13.6883 14.1368C13.6883 14.4415 13.9226 14.6641 14.2625 14.6641H16.9695C17.2976 14.6641 17.5203 14.4415 17.5203 14.1133C17.5203 13.7852 17.2976 13.5625 16.9695 13.5625Z" fill="black" fill-opacity="0.85"/>
<path d="M10.325 26.8281C14.6257 26.8281 18.0945 24.6718 19.6765 20.9921C19.8875 20.4999 19.8172 20.1015 19.5945 19.8788C19.3836 19.6679 19.032 19.6328 18.6101 19.7968C17.7312 20.1367 16.6531 20.3476 15.3054 20.3476C10.0671 20.3476 6.69214 17.0664 6.69214 11.9335C6.69214 10.5156 6.96167 9.09761 7.32495 8.35933C7.55932 7.9023 7.53589 7.49214 7.33667 7.25777C7.11401 6.99995 6.71557 6.91792 6.16479 7.12886C2.56714 8.5937 0.0944824 12.3554 0.0944824 16.7265C0.0944824 22.4335 4.28979 26.8281 10.325 26.8281ZM10.3484 25.0351C5.3562 25.0351 1.87573 21.3906 1.87573 16.5859C1.87573 13.6445 3.24682 11.0312 5.42651 9.36714C5.14526 10.1406 4.9812 11.3007 4.9812 12.4257C4.9812 18.2031 8.96557 22.0703 14.8601 22.0703C15.9148 22.0703 16.8757 21.9296 17.3679 21.7656C15.9031 23.7929 13.2898 25.0351 10.3484 25.0351Z" fill="black" fill-opacity="0.85"/>
</g>
<defs>
<clipPath id="clip0_2207_4218">
<rect width="22.6289" height="29.0508" fill="white" transform="translate(0.0944824 0.0976562)"/>
</clipPath>
</defs>
</svg>
