<svg width="24" height="25" viewBox="0 0 24 25" fill="none" xmlns="http://www.w3.org/2000/svg">
<g clip-path="url(#clip0_2207_4213)">
<path d="M12.0351 24.0157C18.5742 24.0157 23.9882 18.6016 23.9882 12.0625C23.9882 5.53516 18.5625 0.109375 12.0234 0.109375C5.49609 0.109375 0.0820312 5.53516 0.0820312 12.0625C0.0820312 18.6016 5.50781 24.0157 12.0351 24.0157Z" fill="black" fill-opacity="0.85"/>
<path d="M7.92188 13.1288C7.28906 12.2499 6.91406 11.1718 6.91406 9.96478C6.91406 7.70306 8.1797 5.74603 10.0547 4.97259C10.3476 4.8554 10.6054 4.89056 10.7343 5.0429C10.8398 5.20697 10.8632 5.42962 10.7343 5.67571C10.5351 6.06243 10.4179 6.80071 10.4179 7.50384C10.4179 10.1054 12.1289 11.7695 14.8008 11.7695C15.457 11.7695 16.0195 11.6757 16.4765 11.4882C16.7226 11.3945 16.9101 11.4296 17.039 11.5351C17.1797 11.6874 17.2031 11.9218 17.0976 12.1796C16.9453 12.5312 16.7695 12.8593 16.5351 13.1288H7.92188ZM6.10547 14.8632C5.85938 14.8632 5.6836 14.6874 5.6836 14.4414C5.6836 14.1953 5.85938 14.0195 6.10547 14.0195H19.0781C19.3242 14.0195 19.5 14.1953 19.5 14.4414C19.5 14.6874 19.3242 14.8632 19.0781 14.8632H6.10547ZM4.98047 16.5273C4.73437 16.5273 4.54688 16.3398 4.54688 16.0937C4.54688 15.8593 4.73437 15.6718 4.98047 15.6718H17.9414C18.1875 15.6718 18.3632 15.8593 18.3632 16.0937C18.3632 16.3398 18.1875 16.5273 17.9414 16.5273H4.98047ZM6.10547 18.1796C5.85938 18.1796 5.6836 18.0038 5.6836 17.7578C5.6836 17.5117 5.85938 17.3359 6.10547 17.3359H19.0781C19.3242 17.3359 19.5 17.5117 19.5 17.7578C19.5 18.0038 19.3242 18.1796 19.0781 18.1796H6.10547Z" fill="white"/>
</g>
<defs>
<clipPath id="clip0_2207_4213">
<rect width="23.9062" height="23.918" fill="white" transform="translate(0.0820312 0.0976562)"/>
</clipPath>
</defs>
</svg>
