<svg width="24" height="25" viewBox="0 0 24 25" fill="none" xmlns="http://www.w3.org/2000/svg">
<g clip-path="url(#clip0_2207_4146)">
<path d="M11.9867 24.0058C18.5258 24.0058 23.9398 18.5801 23.9398 12.0527C23.9398 5.51367 18.5141 0.0996094 11.975 0.0996094C5.44763 0.0996094 0.0335693 5.51367 0.0335693 12.0527C0.0335693 18.5801 5.45935 24.0058 11.9867 24.0058ZM11.9867 22.0137C6.45545 22.0137 2.03748 17.584 2.03748 12.0527C2.03748 6.52149 6.44373 2.0918 11.975 2.0918C17.5063 2.0918 21.9477 6.52149 21.9477 12.0527C21.9477 17.584 17.518 22.0137 11.9867 22.0137Z" fill="black" fill-opacity="0.85"/>
<path d="M14.7992 10.5293C15.1391 10.5293 15.3969 10.2246 15.3969 9.87305V7.2832L15.3734 6.84961L15.5141 6.99023L16.2289 7.72852C16.3227 7.8457 16.5102 7.9043 16.6391 7.9043C16.9555 7.9043 17.1781 7.68164 17.1781 7.37695C17.1781 7.23633 17.1313 7.0957 16.9906 6.9668L15.1977 5.29102C15.0688 5.16211 14.9398 5.10352 14.7992 5.10352C14.6469 5.10352 14.5297 5.16211 14.3891 5.29102L12.5961 6.9668C12.4555 7.0957 12.4086 7.23633 12.4086 7.37695C12.4086 7.68164 12.643 7.9043 12.9477 7.9043C13.0883 7.9043 13.2406 7.83399 13.3578 7.72852L14.1547 6.94336L14.2133 6.88477L14.1898 7.2832V9.87305C14.1898 10.2246 14.4477 10.5293 14.7992 10.5293ZM5.84607 17.4082H18.1039C18.4438 17.4082 18.7484 17.1387 18.7484 16.7988C18.7484 16.459 18.4555 16.2012 18.1039 16.2012H5.84607C5.50623 16.2012 5.20154 16.459 5.20154 16.7988C5.20154 17.1387 5.51795 17.4082 5.84607 17.4082ZM7.9906 15.3574H16.3344C16.5688 15.0762 16.7328 14.7598 16.8852 14.4199C16.9906 14.1621 16.9672 13.9512 16.8266 13.7871C16.7094 13.6934 16.5219 13.6582 16.2875 13.7519C15.8422 13.9277 15.2914 14.0215 14.6586 14.0215C12.057 14.0215 10.4047 12.416 10.4047 9.87305C10.4047 9.20508 10.5102 8.47852 10.7094 8.10352C10.8383 7.86914 10.8148 7.64649 10.7094 7.49414C10.5805 7.3418 10.3344 7.30664 10.0531 7.43555C8.23669 8.17383 7.00623 10.0723 7.00623 12.2637C7.00623 13.4473 7.36951 14.5019 7.9906 15.3574Z" fill="black" fill-opacity="0.85"/>
</g>
<defs>
<clipPath id="clip0_2207_4146">
<rect width="23.9062" height="23.918" fill="white" transform="translate(0.0335693 0.0996094)"/>
</clipPath>
</defs>
</svg>
