<svg width="24" height="25" viewBox="0 0 24 25" fill="none" xmlns="http://www.w3.org/2000/svg">
<g clip-path="url(#clip0_2207_4173)">
<path d="M11.9972 24.0176C18.5363 24.0176 23.9503 18.6035 23.9503 12.0644C23.9503 5.53711 18.5246 0.111328 11.9855 0.111328C5.45813 0.111328 0.0440674 5.53711 0.0440674 12.0644C0.0440674 18.6035 5.46985 24.0176 11.9972 24.0176Z" fill="black" fill-opacity="0.85"/>
<path d="M14.9152 4.92773C15.2668 4.92773 15.5246 5.24414 15.5246 5.60742V8.26758L15.5011 8.71289L15.6418 8.57227L16.38 7.81055C16.4738 7.69336 16.673 7.63477 16.8019 7.63477C17.13 7.63477 17.3644 7.85742 17.3644 8.17383C17.3644 8.32617 17.3175 8.4668 17.1652 8.60742L15.3253 10.3301C15.1847 10.459 15.0558 10.5176 14.9152 10.5176C14.7511 10.5176 14.6339 10.459 14.4816 10.3301L12.6418 8.60742C12.4894 8.4668 12.4425 8.32617 12.4425 8.17383C12.4425 7.85742 12.6886 7.63477 13.005 7.63477C13.1457 7.63477 13.3097 7.70508 13.4269 7.81055L14.2472 8.61914L14.3058 8.67773L14.2824 8.26758V5.60742C14.2824 5.24414 14.5402 4.92773 14.9152 4.92773ZM5.68079 17.6074C5.34095 17.6074 5.01282 17.3496 5.01282 16.998C5.01282 16.6465 5.32923 16.3652 5.68079 16.3652H18.3136C18.6769 16.3652 18.9816 16.6348 18.9816 16.998C18.9816 17.3496 18.6652 17.6074 18.3136 17.6074H5.68079ZM7.88391 15.4863C7.2511 14.6074 6.8761 13.5293 6.8761 12.3105C6.8761 10.0488 8.14173 8.10352 10.0167 7.33008C10.3097 7.21289 10.5675 7.24805 10.6964 7.40039C10.8019 7.56445 10.8253 7.77539 10.6964 8.02149C10.4972 8.41992 10.38 9.1582 10.38 9.84961C10.38 12.4629 12.0793 14.1152 14.7629 14.1152C15.4191 14.1152 15.9816 14.0332 16.4386 13.834C16.6847 13.7519 16.8722 13.7754 17.0011 13.8808C17.1418 14.0449 17.1652 14.2793 17.0597 14.5254C16.9074 14.8887 16.7316 15.2051 16.4972 15.4863H7.88391Z" fill="white"/>
</g>
<defs>
<clipPath id="clip0_2207_4173">
<rect width="23.9062" height="23.918" fill="white" transform="translate(0.0440674 0.0996094)"/>
</clipPath>
</defs>
</svg>
