<svg width="24" height="25" viewBox="0 0 24 25" fill="none" xmlns="http://www.w3.org/2000/svg">
<g clip-path="url(#clip0_2207_4151)">
<path d="M11.9887 24.0176C18.5278 24.0176 23.9418 18.6035 23.9418 12.0644C23.9418 5.53711 18.5161 0.111328 11.977 0.111328C5.4497 0.111328 0.0356445 5.53711 0.0356445 12.0644C0.0356445 18.6035 5.46142 24.0176 11.9887 24.0176Z" fill="black" fill-opacity="0.85"/>
<path d="M14.9067 10.5176C14.5317 10.5176 14.2739 10.2129 14.2739 9.84961V7.17773L14.2973 6.76758L14.2387 6.83789L13.4184 7.63477C13.3012 7.74023 13.1372 7.81055 12.9965 7.81055C12.6801 7.81055 12.434 7.58789 12.434 7.2832C12.434 7.11914 12.4809 6.97852 12.6333 6.83789L14.4731 5.12695C14.6254 4.99805 14.7426 4.92773 14.9067 4.92773C15.0473 4.92773 15.1762 4.99805 15.3168 5.12695L17.1567 6.83789C17.309 6.99023 17.3559 7.11914 17.3559 7.2832C17.3559 7.58789 17.1215 7.81055 16.7934 7.81055C16.6645 7.81055 16.4653 7.75195 16.3715 7.64649L15.6333 6.88477L15.4926 6.73242L15.5161 7.17773V9.84961C15.5161 10.2129 15.2583 10.5176 14.9067 10.5176ZM5.67236 17.6074C5.33252 17.6074 5.00439 17.3496 5.00439 16.998C5.00439 16.6465 5.3208 16.3652 5.67236 16.3652H18.3051C18.6684 16.3652 18.9731 16.6348 18.9731 16.998C18.9731 17.3496 18.6567 17.6074 18.3051 17.6074H5.67236ZM7.87548 15.4863C7.24267 14.6074 6.86767 13.5293 6.86767 12.3105C6.86767 10.0488 8.1333 8.10352 10.0083 7.33008C10.3012 7.21289 10.559 7.24805 10.6879 7.40039C10.7934 7.56445 10.8168 7.77539 10.6879 8.02149C10.4887 8.41992 10.3715 9.1582 10.3715 9.84961C10.3715 12.4629 12.0708 14.1152 14.7544 14.1152C15.4106 14.1152 15.9731 14.0332 16.4301 13.834C16.6762 13.7519 16.8637 13.7754 16.9926 13.8808C17.1333 14.0449 17.1567 14.2793 17.0512 14.5254C16.8989 14.8887 16.7231 15.2051 16.4887 15.4863H7.87548Z" fill="white"/>
</g>
<defs>
<clipPath id="clip0_2207_4151">
<rect width="23.9062" height="23.918" fill="white" transform="translate(0.0356445 0.0996094)"/>
</clipPath>
</defs>
</svg>
