<svg width="24" height="25" viewBox="0 0 24 25" fill="none" xmlns="http://www.w3.org/2000/svg">
<g clip-path="url(#clip0_2207_4058)">
<path d="M16.0618 12.0527C16.0618 16.459 14.1282 20.0449 10.8821 21.9434C5.87818 21.416 1.99927 17.209 2.01099 12.0527C2.02271 6.91992 5.85474 2.72461 10.8235 2.16211C14.1047 4.0957 16.0618 7.70508 16.0618 12.0527Z" fill="black" fill-opacity="0.85"/>
<path d="M23.925 12.0527C23.925 5.51367 18.5227 0.0996094 11.9836 0.0996094C5.4563 0.0996094 0.0187988 5.51367 0.0187988 12.0527C0.0187988 18.5801 5.44458 24.0058 11.9719 24.0058C18.511 24.0058 23.925 18.5801 23.925 12.0527ZM16.0618 12.0527C16.0618 16.459 14.1282 20.0449 10.8821 21.9434C5.87818 21.416 1.99927 17.209 2.01099 12.0527C2.02271 6.91992 5.85474 2.72461 10.8235 2.16211C14.1047 4.0957 16.0618 7.70508 16.0618 12.0527Z" fill="black" fill-opacity="0.85"/>
</g>
<defs>
<clipPath id="clip0_2207_4058">
<rect width="23.9062" height="23.918" fill="white" transform="translate(0.0187988 0.0996094)"/>
</clipPath>
</defs>
</svg>
