<svg width="24" height="25" viewBox="0 0 24 25" fill="none" xmlns="http://www.w3.org/2000/svg">
<g clip-path="url(#clip0_2207_4088)">
<path d="M2.02163 12.0527C2.03335 6.52149 6.46303 2.0918 11.9942 2.0918C12.3692 2.0918 12.7442 2.11523 13.1075 2.16211C9.80288 4.14258 7.95132 7.63477 7.95132 12.0527C7.95132 16.459 9.79116 19.9394 13.0724 21.9434C12.7091 21.9902 12.3458 22.0137 11.9825 22.0137C6.45132 22.0137 2.00991 17.584 2.02163 12.0527Z" fill="black" fill-opacity="0.85"/>
<path d="M23.9356 12.0527C23.9356 5.51367 18.5333 0.0996094 11.9942 0.0996094C5.46692 0.0996094 0.0294189 5.51367 0.0294189 12.0527C0.0294189 18.5801 5.4552 24.0058 11.9825 24.0058C18.5216 24.0058 23.9356 18.5801 23.9356 12.0527ZM2.02161 12.0527C2.03333 6.52149 6.46301 2.0918 11.9942 2.0918C12.3692 2.0918 12.7442 2.11523 13.1075 2.16211C9.80286 4.14258 7.9513 7.63477 7.9513 12.0527C7.9513 16.459 9.79114 19.9394 13.0724 21.9434C12.7091 21.9902 12.3458 22.0137 11.9825 22.0137C6.4513 22.0137 2.00989 17.584 2.02161 12.0527Z" fill="black" fill-opacity="0.85"/>
</g>
<defs>
<clipPath id="clip0_2207_4088">
<rect width="23.9062" height="23.918" fill="white" transform="translate(0.0294189 0.0996094)"/>
</clipPath>
</defs>
</svg>
