<svg width="27" height="29" viewBox="0 0 27 29" fill="none" xmlns="http://www.w3.org/2000/svg">
<g clip-path="url(#clip0_2207_4178)">
<path d="M6.57105 17.4648H10.2624C7.12183 16.5624 5.17652 13.832 5.17652 10.4687C5.17652 8.04295 6.24292 5.89842 7.95386 4.4453C7.77808 5.11326 7.67261 5.95702 7.67261 6.83592C7.67261 11.9335 11.1882 15.3554 16.4148 15.3554C17.0827 15.3554 17.7859 15.2734 18.3132 15.1679C17.4577 16.2226 16.2038 17.0312 14.7038 17.4648L18.3249 17.4765C19.3562 16.6562 20.1648 15.6015 20.6804 14.371C20.8796 13.914 20.8444 13.5156 20.5983 13.2695C20.3991 13.0585 20.0476 13.0234 19.6374 13.1757C18.8523 13.4804 17.9265 13.6328 16.7898 13.6328C12.2546 13.6328 9.37183 10.832 9.37183 6.41405C9.37183 5.24217 9.59448 3.98826 9.91089 3.33202C10.1218 2.92186 10.1218 2.49998 9.88745 2.25389C9.64136 1.99608 9.25464 1.92576 8.77417 2.12498C5.57495 3.42576 3.40698 6.76561 3.40698 10.5976C3.40698 13.3867 4.5437 15.871 6.57105 17.4648Z" fill="black" fill-opacity="0.85"/>
<path d="M1.11011 18.8007H24.9109C25.3327 18.8007 25.6491 18.4843 25.6491 18.0624C25.6491 17.6406 25.3327 17.3242 24.9109 17.3242H1.11011C0.699951 17.3242 0.371827 17.6406 0.371827 18.0624C0.371827 18.4843 0.699951 18.8007 1.11011 18.8007ZM2.1648 22.5976C2.50464 22.5976 2.76245 22.3281 2.76245 21.9999C2.76245 21.6601 2.50464 21.3906 2.1648 21.3906C1.82495 21.3906 1.56714 21.6601 1.56714 21.9999C1.56714 22.3281 1.82495 22.5976 2.1648 22.5976ZM7.11011 22.5976C7.44995 22.5976 7.71948 22.3281 7.71948 21.9999C7.71948 21.6601 7.44995 21.3906 7.11011 21.3906C6.78198 21.3906 6.51245 21.6601 6.51245 21.9999C6.51245 22.3281 6.78198 22.5976 7.11011 22.5976ZM12.0671 22.5976C12.4069 22.5976 12.6648 22.3281 12.6648 21.9999C12.6648 21.6601 12.4069 21.3906 12.0671 21.3906C11.7273 21.3906 11.4694 21.6601 11.4694 21.9999C11.4694 22.3281 11.7273 22.5976 12.0671 22.5976ZM17.0124 22.5976C17.3523 22.5976 17.6218 22.3281 17.6218 21.9999C17.6218 21.6601 17.3523 21.3906 17.0124 21.3906C16.6843 21.3906 16.4148 21.6601 16.4148 21.9999C16.4148 22.3281 16.6843 22.5976 17.0124 22.5976ZM21.9694 22.5976C22.3093 22.5976 22.5671 22.3281 22.5671 21.9999C22.5671 21.6601 22.3093 21.3906 21.9694 21.3906C21.6296 21.3906 21.3718 21.6601 21.3718 21.9999C21.3718 22.3281 21.6296 22.5976 21.9694 22.5976ZM0.664795 25.4335C1.00464 25.4335 1.27417 25.1757 1.27417 24.8359C1.27417 24.496 1.00464 24.2382 0.664795 24.2382C0.33667 24.2382 0.0671387 24.496 0.0671387 24.8359C0.0671387 25.1757 0.33667 25.4335 0.664795 25.4335ZM5.62183 25.4335C5.94995 25.4335 6.21948 25.1757 6.21948 24.8359C6.21948 24.496 5.94995 24.2382 5.62183 24.2382C5.28198 24.2382 5.01245 24.496 5.01245 24.8359C5.01245 25.1757 5.28198 25.4335 5.62183 25.4335ZM10.5671 25.4335C10.9069 25.4335 11.1765 25.1757 11.1765 24.8359C11.1765 24.496 10.9069 24.2382 10.5671 24.2382C10.239 24.2382 9.96948 24.496 9.96948 24.8359C9.96948 25.1757 10.239 25.4335 10.5671 25.4335ZM15.5241 25.4335C15.8523 25.4335 16.1218 25.1757 16.1218 24.8359C16.1218 24.496 15.8523 24.2382 15.5241 24.2382C15.1843 24.2382 14.9148 24.496 14.9148 24.8359C14.9148 25.1757 15.1843 25.4335 15.5241 25.4335ZM20.4694 25.4335C20.8093 25.4335 21.0788 25.1757 21.0788 24.8359C21.0788 24.496 20.8093 24.2382 20.4694 24.2382C20.1413 24.2382 19.8718 24.496 19.8718 24.8359C19.8718 25.1757 20.1413 25.4335 20.4694 25.4335ZM25.4265 25.4335C25.7546 25.4335 26.0241 25.1757 26.0241 24.8359C26.0241 24.496 25.7546 24.2382 25.4265 24.2382C25.0866 24.2382 24.8171 24.496 24.8171 24.8359C24.8171 25.1757 25.0866 25.4335 25.4265 25.4335ZM4.12183 28.2812C4.46167 28.2812 4.71948 28.0117 4.71948 27.6835C4.71948 27.3437 4.46167 27.0742 4.12183 27.0742C3.78198 27.0742 3.52417 27.3437 3.52417 27.6835C3.52417 28.0117 3.78198 28.2812 4.12183 28.2812ZM9.07886 28.2812C9.40698 28.2812 9.67652 28.0117 9.67652 27.6835C9.67652 27.3437 9.40698 27.0742 9.07886 27.0742C8.73902 27.0742 8.46948 27.3437 8.46948 27.6835C8.46948 28.0117 8.73902 28.2812 9.07886 28.2812ZM14.0241 28.2812C14.364 28.2812 14.6218 28.0117 14.6218 27.6835C14.6218 27.3437 14.364 27.0742 14.0241 27.0742C13.6843 27.0742 13.4265 27.3437 13.4265 27.6835C13.4265 28.0117 13.6843 28.2812 14.0241 28.2812ZM18.9812 28.2812C19.3093 28.2812 19.5788 28.0117 19.5788 27.6835C19.5788 27.3437 19.3093 27.0742 18.9812 27.0742C18.6413 27.0742 18.3718 27.3437 18.3718 27.6835C18.3718 28.0117 18.6413 28.2812 18.9812 28.2812ZM23.9265 28.2812C24.2663 28.2812 24.5241 28.0117 24.5241 27.6835C24.5241 27.3437 24.2663 27.0742 23.9265 27.0742C23.5866 27.0742 23.3288 27.3437 23.3288 27.6835C23.3288 28.0117 23.5866 28.2812 23.9265 28.2812Z" fill="black" fill-opacity="0.85"/>
</g>
<defs>
<clipPath id="clip0_2207_4178">
<rect width="25.957" height="28.1836" fill="white" transform="translate(0.0671387 0.0976562)"/>
</clipPath>
</defs>
</svg>
