<svg width="22" height="28" viewBox="0 0 22 28" fill="none" xmlns="http://www.w3.org/2000/svg">
<g clip-path="url(#clip0_2207_3521)">
<path d="M0.0898437 8.70117C0.0898437 9.36914 0.558594 10.0019 1.48438 10.0019H20.5391C21.4766 10.0019 21.9336 9.36914 21.9336 8.70117C21.9336 8.25586 21.7344 7.78711 21.2774 7.44727L12.4649 0.662109C11.9727 0.287109 11.5039 0.0996094 11.0117 0.0996094C10.5195 0.0996094 10.0508 0.287109 9.5586 0.662109L0.746094 7.44727C0.300782 7.78711 0.0898437 8.25586 0.0898437 8.70117ZM0.0664063 13.8223C0.0664063 14.4316 0.488281 14.8418 1.1211 14.8418H20.9024C21.5352 14.8418 21.957 14.4316 21.957 13.8223C21.957 13.2129 21.5352 12.791 20.9024 12.791H1.1211C0.488281 12.791 0.0664063 13.2129 0.0664063 13.8223ZM0.0546875 18.9434C0.0546875 19.3887 0.253906 19.8574 0.710938 20.1973L9.52344 26.9824C10.0156 27.3574 10.4844 27.5449 10.9766 27.5449C11.4688 27.5449 11.9375 27.3574 12.4297 26.9824L21.2422 20.1973C21.6992 19.8574 21.8985 19.3887 21.8985 18.9434C21.8985 18.2637 21.4414 17.6308 20.5039 17.6308H1.44922C0.523438 17.6308 0.0546875 18.2637 0.0546875 18.9434Z" fill="black" fill-opacity="0.85"/>
</g>
<defs>
<clipPath id="clip0_2207_3521">
<rect width="21.9023" height="27.457" fill="white" transform="translate(0.0546875 0.0996094)"/>
</clipPath>
</defs>
</svg>
