<svg width="31" height="15" viewBox="0 0 31 15" fill="none" xmlns="http://www.w3.org/2000/svg">
<g clip-path="url(#clip0_2207_18527)">
<path d="M0.723544 6.39258C5.18839 11.959 9.37198 14.9707 15.1024 14.9707C20.8212 14.9707 25.0165 11.959 29.4696 6.39258C30.6766 4.88086 30.1258 3.50977 28.7313 3.3457C24.5008 2.8418 23.3758 0.123047 19.9071 0.123047C17.1649 0.123047 15.536 2.2793 15.1024 2.2793C14.6571 2.2793 13.0282 0.123047 10.286 0.123047C6.81729 0.123047 5.70401 2.8418 1.46183 3.3457C0.0790124 3.50977 -0.471769 4.88086 0.723544 6.39258ZM3.40714 6.11133C2.80948 5.74805 3.17276 5.08008 3.72354 5.33789C5.37589 6.12305 7.08683 6.04102 9.24308 5.80664C9.81729 5.73633 10.3915 5.6543 10.9657 5.6543C12.7469 5.6543 13.7079 6.27539 14.3524 6.66211C14.7743 6.9082 14.9149 6.95508 15.1024 6.95508C15.2899 6.95508 15.4305 6.9082 15.8524 6.66211C16.4969 6.28711 17.4462 5.6543 19.2274 5.6543C19.8016 5.6543 20.3758 5.73633 20.9618 5.80664C23.1063 6.09961 24.829 6.12305 26.4813 5.33789C27.0321 5.08008 27.3954 5.74805 26.786 6.11133C24.079 7.76367 20.9969 7.21289 19.6962 7.20117C16.9657 7.20117 16.6727 8.61914 15.1024 8.61914C13.5321 8.61914 13.2391 7.20117 10.4969 7.20117C9.20792 7.21289 6.11417 7.78711 3.40714 6.11133Z" fill="black" fill-opacity="0.85"/>
</g>
<defs>
<clipPath id="clip0_2207_18527">
<rect width="30.0672" height="14.8711" fill="white" transform="translate(0.0671387 0.0996094)"/>
</clipPath>
</defs>
</svg>
