<svg width="24" height="25" viewBox="0 0 24 25" fill="none" xmlns="http://www.w3.org/2000/svg">
<g clip-path="url(#clip0_2207_17633)">
<path d="M12.0307 24.0058C18.5698 24.0058 23.9838 18.5801 23.9838 12.0527C23.9838 5.51367 18.5581 0.0996094 12.019 0.0996094C5.4917 0.0996094 0.0776367 5.51367 0.0776367 12.0527C0.0776367 18.5801 5.50342 24.0058 12.0307 24.0058ZM12.0307 22.0137C6.49952 22.0137 2.08155 17.584 2.08155 12.0527C2.08155 6.52149 6.4878 2.0918 12.019 2.0918C17.5503 2.0918 21.9917 6.52149 21.9917 12.0527C21.9917 17.584 17.562 22.0137 12.0307 22.0137Z" fill="black" fill-opacity="0.85"/>
<path d="M4.54248 15.873C4.9292 15.873 5.14014 15.6269 5.14014 15.2285V10.248H5.18702L6.19483 15.0527C6.27686 15.4512 6.49952 15.7324 6.89795 15.7324C7.30811 15.7324 7.51905 15.4512 7.60108 15.0527L8.60889 10.248H8.65576V15.2285C8.65576 15.6152 8.8667 15.873 9.2417 15.873C9.62842 15.873 9.85108 15.6269 9.85108 15.2285V9.16992C9.85108 8.57227 9.46436 8.2207 8.8667 8.2207C8.32764 8.2207 8.01123 8.45508 7.90576 9.00586L6.90967 13.9394H6.89795L5.8667 9.00586C5.74952 8.41992 5.40967 8.2207 4.91748 8.2207C4.22608 8.2207 3.93311 8.67773 3.93311 9.16992V15.2285C3.93311 15.6152 4.15576 15.873 4.54248 15.873ZM11.4448 15.8496C11.8432 15.8496 12.1245 15.6269 12.1245 15.1465V13.3066H12.9096C14.2807 13.3066 14.9721 12.123 14.9721 10.8223C14.9721 9.49805 14.3042 8.33789 12.9917 8.33789H11.4448C11.0698 8.33789 10.7885 8.54883 10.7885 9.04102V15.1465C10.7885 15.6621 11.1167 15.8496 11.4448 15.8496ZM12.1245 12.2402V9.41602H12.6401C13.3901 9.41602 13.6479 10.0723 13.6479 10.8223C13.6479 11.5723 13.3901 12.2402 12.6284 12.2402H12.1245ZM16.3432 15.873C16.7885 15.873 17.0229 15.5684 17.0229 15.1348V12.5449H18.8276V15.1348C18.8276 15.5215 19.0385 15.873 19.5073 15.873C19.9409 15.873 20.1753 15.5918 20.1753 15.1348V8.93555C20.1753 8.47852 19.9292 8.2207 19.5073 8.2207C19.0503 8.2207 18.8276 8.51367 18.8276 8.93555V11.4199H17.0229V8.93555C17.0229 8.50195 16.7885 8.2207 16.3432 8.2207C15.9096 8.2207 15.6753 8.50195 15.6753 8.93555V15.1348C15.6753 15.5684 15.9096 15.873 16.3432 15.873Z" fill="black" fill-opacity="0.85"/>
</g>
<defs>
<clipPath id="clip0_2207_17633">
<rect width="23.9062" height="23.918" fill="white" transform="translate(0.0776367 0.0996094)"/>
</clipPath>
</defs>
</svg>
