<svg width="23" height="25" viewBox="0 0 23 25" fill="none" xmlns="http://www.w3.org/2000/svg">
<g clip-path="url(#clip0_2207_21217)">
<path d="M8.13476 24.873H10.3848C15.3418 24.873 18.4356 22.2715 18.4356 18.0996V3.3457C18.4356 1.24805 14.5215 0.0996094 9.25976 0.0996094C3.99804 0.0996094 0.0839844 1.24805 0.0839844 3.3457V18.0996C0.0839844 22.2715 3.18945 24.873 8.13476 24.873ZM9.25976 3.99023C5.1582 3.99023 2.32226 3.54492 2.32226 2.87695C2.32226 2.20899 5.1582 1.75195 9.25976 1.75195C13.3613 1.75195 16.1973 2.20899 16.1973 2.87695C16.1973 3.54492 13.3613 3.99023 9.25976 3.99023ZM17.1934 17.8887H19.1387C21.2246 17.8887 22.5606 16.4824 22.5606 14.3848V9.69727C22.5606 7.58789 21.2246 6.19336 19.1387 6.19336H17.1934V7.96289H19.1387C20.3223 7.96289 20.791 8.44336 20.791 9.69727V14.3848C20.791 15.6269 20.3223 16.1191 19.1387 16.1191H17.1934V17.8887Z" fill="black" fill-opacity="0.85"/>
</g>
<defs>
<clipPath id="clip0_2207_21217">
<rect width="22.4766" height="24.7852" fill="white" transform="translate(0.0839844 0.0996094)"/>
</clipPath>
</defs>
</svg>
