<svg width="16" height="16" viewBox="0 0 16 16" fill="none" xmlns="http://www.w3.org/2000/svg">
<g clip-path="url(#clip0_2207_22877)">
<path d="M0.389421 15.4146C0.787858 15.8247 1.47926 15.813 1.8777 15.4146L7.8777 9.40285L13.8894 15.4146C14.2879 15.813 14.9676 15.8247 15.366 15.4146C15.7879 15.0044 15.7762 14.3247 15.366 13.9263L9.36598 7.91457L15.366 1.91457C15.7762 1.51613 15.7879 0.824723 15.366 0.426285C14.9676 0.0161292 14.2879 0.027848 13.8894 0.426285L7.8777 6.438L1.8777 0.426285C1.47926 0.027848 0.787858 0.0161292 0.389421 0.426285C-0.0207364 0.824723 -0.00901726 1.51613 0.389421 1.91457L6.40114 7.91457L0.389421 13.9263C-0.00901726 14.3247 -0.0207364 15.0044 0.389421 15.4146Z" fill="black" fill-opacity="0.85"/>
</g>
<defs>
<clipPath id="clip0_2207_22877">
<rect width="15.5918" height="15.6182" fill="white" transform="translate(0.0861816 0.0996094)"/>
</clipPath>
</defs>
</svg>
