<svg width="24" height="25" viewBox="0 0 24 25" fill="none" xmlns="http://www.w3.org/2000/svg">
<g clip-path="url(#clip0_2207_5556)">
<path d="M0.805176 14.8662H11.2817C11.7271 14.8662 12.0786 14.5147 12.0786 14.0694C12.0786 13.6358 11.7153 13.2842 11.2817 13.2842H0.805176C0.359863 13.2842 0.00830078 13.6358 0.00830078 14.0694C0.00830078 14.5147 0.348145 14.8662 0.805176 14.8662Z" fill="black" fill-opacity="0.85"/>
<path d="M0.805176 10.6944H11.2817C11.7271 10.6944 12.0786 10.3311 12.0786 9.88575C12.0786 9.45215 11.7153 9.1123 11.2817 9.1123H0.805176C0.359863 9.1123 0.00830078 9.45215 0.00830078 9.88575C0.00830078 10.3311 0.348145 10.6944 0.805176 10.6944Z" fill="black" fill-opacity="0.85"/>
<path d="M0.805176 6.52247H11.2817C11.7153 6.52247 12.0786 6.15918 12.0786 5.72559C12.0786 5.292 11.7153 4.94043 11.2817 4.94043H0.805176C0.359863 4.94043 0.00830078 5.292 0.00830078 5.72559C0.00830078 6.15918 0.359863 6.52247 0.805176 6.52247Z" fill="black" fill-opacity="0.85"/>
<path d="M23.9028 5.9716V1.56535C23.9028 0.944256 23.3989 0.545818 22.8013 0.663006L16.7778 1.97551C16.0278 2.13957 15.6177 2.54973 15.6177 3.20598L15.6411 16.2372C15.6997 16.8114 15.4302 17.1864 14.9145 17.2919L13.0513 17.6786C10.7075 18.1708 9.60596 19.3661 9.60596 21.1357C9.60596 22.9286 10.9888 24.1825 12.9341 24.1825C14.6567 24.1825 17.2349 22.9169 17.2349 19.5067V8.7841C17.2349 8.16301 17.3521 8.0341 17.9028 7.91692L23.2583 6.74504C23.6567 6.66301 23.9028 6.35832 23.9028 5.9716Z" fill="black" fill-opacity="0.85"/>
</g>
<defs>
<clipPath id="clip0_2207_5556">
<rect width="23.8945" height="24.082" fill="white" transform="translate(0.00830078 0.100586)"/>
</clipPath>
</defs>
</svg>
