<svg width="25" height="25" viewBox="0 0 25 25" fill="none" xmlns="http://www.w3.org/2000/svg">
<g clip-path="url(#clip0_2207_5573)">
<path d="M12.0517 24.0058C18.5908 24.0058 24.0048 18.5801 24.0048 12.0527C24.0048 5.51367 18.5791 0.0996094 12.04 0.0996094C5.51269 0.0996094 0.0986328 5.51367 0.0986328 12.0527C0.0986328 18.5801 5.52441 24.0058 12.0517 24.0058ZM12.0517 22.0137C6.52051 22.0137 2.10254 17.584 2.10254 12.0527C2.10254 6.52149 6.50879 2.0918 12.04 2.0918C17.5713 2.0918 22.0127 6.52149 22.0127 12.0527C22.0127 17.584 17.583 22.0137 12.0517 22.0137Z" fill="black" fill-opacity="0.85"/>
<path d="M12.2158 9.12304L6.63767 15.123C6.35642 15.4277 6.3447 15.8027 6.57908 16.0957L5.86423 17.0098C5.74705 17.1738 5.75877 17.3848 5.91111 17.5254L6.08689 17.7012C6.22752 17.8418 6.42673 17.8652 6.60252 17.7363L7.5283 17.0215C7.80955 17.2558 8.18455 17.2441 8.47752 16.9746L11.3955 14.2676V17.4316C11.3955 17.8066 11.6884 18.1113 12.0752 18.1113C12.4502 18.1113 12.7548 17.8066 12.7548 17.4316V13.0019L14.4658 11.4082C15.2158 11.4902 15.9541 11.1855 16.5869 10.5293L13.0713 7.01366C12.4267 7.66991 12.1338 8.38476 12.2158 9.12304ZM7.5283 15.709L12.6611 10.2598C12.7431 10.3887 12.8369 10.5058 12.9658 10.6465C13.0713 10.7637 13.2002 10.8691 13.3291 10.9512L7.9033 16.0957L7.5283 15.709ZM17.2666 6.33397C16.2002 5.26757 14.7705 5.31444 13.6689 6.41601L17.1845 9.93163C18.2978 8.83007 18.333 7.40038 17.2666 6.33397Z" fill="black" fill-opacity="0.85"/>
</g>
<defs>
<clipPath id="clip0_2207_5573">
<rect width="23.9062" height="23.918" fill="white" transform="translate(0.0986328 0.0996094)"/>
</clipPath>
</defs>
</svg>
