<svg width="15" height="25" viewBox="0 0 15 25" fill="none" xmlns="http://www.w3.org/2000/svg">
<g clip-path="url(#clip0_2207_5552)">
<path d="M14.2991 5.9716V1.56535C14.2991 0.944256 13.7952 0.545818 13.1975 0.663006L7.17408 1.97551C6.42408 2.13957 6.01392 2.54973 6.01392 3.20598L6.03736 16.2372C6.09595 16.8114 5.82642 17.1864 5.31079 17.2919L3.44751 17.6786C1.10376 18.1708 0.00219727 19.3661 0.00219727 21.1357C0.00219727 22.9286 1.38501 24.1825 3.33032 24.1825C5.05298 24.1825 7.63111 22.9169 7.63111 19.5067V8.7841C7.63111 8.16301 7.74829 8.0341 8.29908 7.91692L13.6545 6.74504C14.053 6.66301 14.2991 6.35832 14.2991 5.9716Z" fill="black" fill-opacity="0.85"/>
</g>
<defs>
<clipPath id="clip0_2207_5552">
<rect width="14.2969" height="24.082" fill="white" transform="translate(0.00219727 0.100586)"/>
</clipPath>
</defs>
</svg>
