<svg width="34" height="13" viewBox="0 0 34 13" fill="none" xmlns="http://www.w3.org/2000/svg">
<g clip-path="url(#clip0_2207_18519)">
<path d="M0.0187988 5.92481C0.0187988 9.7334 3.94458 12.6045 8.76099 12.6045C12.218 12.6045 15.0188 11.3975 16.6594 9.15918C18.3118 11.3975 21.1008 12.6045 24.5579 12.6045C29.386 12.6045 33.3118 9.7334 33.3118 5.92481C33.3118 4.61231 32.925 3.792 32.1399 3.792C31.8704 3.792 31.5774 3.95606 31.3899 4.23731C30.7805 5.11621 29.761 5.59668 28.4954 5.59668C24.968 5.59668 23.9602 1.30762 19.7297 1.30762C17.6086 1.30762 16.1204 2.52637 15.8157 4.51856H17.5032C17.1985 2.52637 15.7219 1.30762 13.5891 1.30762C9.37036 1.30762 8.36255 5.59668 4.83521 5.59668C3.65161 5.59668 2.63208 5.12793 1.91724 4.22559C1.7063 3.95606 1.44849 3.792 1.17896 3.792C0.393799 3.792 0.0187988 4.61231 0.0187988 5.92481Z" fill="black" fill-opacity="0.85"/>
</g>
<defs>
<clipPath id="clip0_2207_18519">
<rect width="33.293" height="12.5039" fill="white" transform="translate(0.0187988 0.100586)"/>
</clipPath>
</defs>
</svg>
