<svg width="24" height="25" viewBox="0 0 24 25" fill="none" xmlns="http://www.w3.org/2000/svg">
<g clip-path="url(#clip0_2207_25091)">
<path d="M11.9763 24.0068C18.5154 24.0068 23.9294 18.5811 23.9294 12.0537C23.9294 5.51465 18.5037 0.100586 11.9646 0.100586C5.43725 0.100586 0.0231934 5.51465 0.0231934 12.0537C0.0231934 18.5811 5.44897 24.0068 11.9763 24.0068Z" fill="black" fill-opacity="0.85"/>
<path d="M8.33178 17.5967C7.76928 17.5967 7.44116 17.2217 7.44116 16.624V7.30762C7.44116 6.68653 7.781 6.28809 8.37866 6.28809C8.7771 6.28809 9.04663 6.44043 9.35131 6.87403L14.6013 14.4092H14.6951V7.26075C14.6951 6.67481 15.0232 6.28809 15.5857 6.28809C16.1716 6.28809 16.5115 6.65137 16.5115 7.26075V16.5889C16.5115 17.2334 16.1482 17.5967 15.5505 17.5967C15.1521 17.5967 14.906 17.4561 14.5896 17.0108L9.32788 9.6045H9.24585V16.624C9.24585 17.2451 8.906 17.5967 8.33178 17.5967Z" fill="white"/>
</g>
<defs>
<clipPath id="clip0_2207_25091">
<rect width="23.9062" height="23.918" fill="white" transform="translate(0.0231934 0.100586)"/>
</clipPath>
</defs>
</svg>
