<svg width="24" height="25" viewBox="0 0 24 25" fill="none" xmlns="http://www.w3.org/2000/svg">
<g clip-path="url(#clip0_2207_25086)">
<path d="M11.9741 24.0068C18.5132 24.0068 23.9272 18.5811 23.9272 12.0537C23.9272 5.51465 18.5015 0.100586 11.9624 0.100586C5.43506 0.100586 0.0209961 5.51465 0.0209961 12.0537C0.0209961 18.5811 5.44678 24.0068 11.9741 24.0068ZM11.9741 22.0147C6.44288 22.0147 2.02491 17.585 2.02491 12.0537C2.02491 6.52247 6.43116 2.09278 11.9624 2.09278C17.4937 2.09278 21.9351 6.52247 21.9351 12.0537C21.9351 17.585 17.5054 22.0147 11.9741 22.0147Z" fill="black" fill-opacity="0.85"/>
<path d="M8.42333 17.4209C8.98583 17.4209 9.31396 17.0811 9.31396 16.4834V9.66309H9.38427L14.4937 16.8584C14.8101 17.292 15.0444 17.4209 15.4312 17.4209C16.0054 17.4209 16.3569 17.0694 16.3569 16.4483V7.40137C16.3569 6.81543 16.0288 6.46387 15.4663 6.46387C14.9155 6.46387 14.5991 6.83887 14.5991 7.40137V14.3506H14.5171L9.41943 7.02637C9.11474 6.6045 8.85693 6.46387 8.47021 6.46387C7.89599 6.46387 7.56787 6.85059 7.56787 7.44825V16.4834C7.56787 17.0576 7.88427 17.4209 8.42333 17.4209Z" fill="black" fill-opacity="0.85"/>
</g>
<defs>
<clipPath id="clip0_2207_25086">
<rect width="23.9062" height="23.918" fill="white" transform="translate(0.0209961 0.100586)"/>
</clipPath>
</defs>
</svg>
