<svg width="24" height="25" viewBox="0 0 24 25" fill="none" xmlns="http://www.w3.org/2000/svg">
<g clip-path="url(#clip0_2207_25806)">
<path d="M11.9846 24.0068C18.5237 24.0068 23.9377 18.5811 23.9377 12.0537C23.9377 5.51465 18.512 0.100586 11.9729 0.100586C5.44555 0.100586 0.0314941 5.51465 0.0314941 12.0537C0.0314941 18.5811 5.45727 24.0068 11.9846 24.0068ZM11.9846 22.0147C6.45337 22.0147 2.0354 17.585 2.0354 12.0537C2.0354 6.52247 6.44165 2.09278 11.9729 2.09278C17.5042 2.09278 21.9456 6.52247 21.9456 12.0537C21.9456 17.585 17.5159 22.0147 11.9846 22.0147Z" fill="black" fill-opacity="0.85"/>
<path d="M7.06274 12.2412C7.06274 12.5576 7.29711 12.8154 7.62524 12.8154H8.26977V17.1162C8.26977 17.5733 8.58618 17.8779 9.03149 17.8779C9.4768 17.8779 9.78149 17.5733 9.78149 17.1162V12.8154H11.469L13.6838 17.21C13.8831 17.6318 14.2112 17.8897 14.7034 17.8897C15.2776 17.8897 15.6526 17.5147 15.6526 16.9404V12.8272H16.3206C16.637 12.8272 16.8831 12.5576 16.8831 12.2412C16.8831 11.9014 16.637 11.667 16.3206 11.667H15.6526V7.33106C15.6526 6.87403 15.3479 6.56934 14.8909 6.56934C14.4456 6.56934 14.1409 6.87403 14.1409 7.33106V11.667H12.4651L10.2385 7.23731C10.0393 6.81543 9.71118 6.55762 9.21899 6.55762C8.64477 6.55762 8.26977 6.93262 8.26977 7.49512V11.6553H7.62524C7.30883 11.6553 7.06274 11.9014 7.06274 12.2412ZM9.78149 11.6553V9.27637L10.8831 11.6553H9.78149ZM13.051 12.8272H14.1409V15.1944L13.051 12.8272Z" fill="black" fill-opacity="0.85"/>
</g>
<defs>
<clipPath id="clip0_2207_25806">
<rect width="23.9062" height="23.918" fill="white" transform="translate(0.0314941 0.100586)"/>
</clipPath>
</defs>
</svg>
