<svg width="22" height="22" viewBox="0 0 22 22" fill="none" xmlns="http://www.w3.org/2000/svg">
<g clip-path="url(#clip0_2207_25816)">
<path d="M3.71533 21.6983H17.9301C20.3911 21.6983 21.6098 20.4795 21.6098 18.0654V3.75684C21.6098 1.34278 20.3911 0.124023 17.9301 0.124023H3.71533C1.26611 0.124023 0.0356445 1.33106 0.0356445 3.75684V18.0654C0.0356445 20.4912 1.26611 21.6983 3.71533 21.6983ZM3.73876 19.8115C2.56689 19.8115 1.92236 19.1904 1.92236 17.9717V3.85059C1.92236 2.63184 2.56689 2.01075 3.73876 2.01075H17.9067C19.0668 2.01075 19.7231 2.63184 19.7231 3.85059V17.9717C19.7231 19.1904 19.0668 19.8115 17.9067 19.8115H3.73876Z" fill="black" fill-opacity="0.85"/>
<path d="M5.91846 11.0811C5.91846 11.3975 6.15284 11.6553 6.48096 11.6553H7.12549V15.9561C7.12549 16.4131 7.4419 16.7178 7.88721 16.7178C8.33253 16.7178 8.63721 16.4131 8.63721 15.9561V11.6553H10.3247L12.5395 16.0498C12.7504 16.4717 13.0668 16.7295 13.559 16.7295C14.1333 16.7295 14.5083 16.3545 14.5083 15.7803V11.667H15.1762C15.4926 11.667 15.7504 11.3975 15.7504 11.0811C15.7504 10.7412 15.4926 10.5068 15.1762 10.5068H14.5083V6.17089C14.5083 5.71386 14.2036 5.40917 13.7583 5.40917C13.3129 5.40917 12.9965 5.71386 12.9965 6.17089V10.5068H11.3325L9.09424 6.07714C8.89503 5.65527 8.5669 5.39746 8.07471 5.39746C7.50049 5.39746 7.12549 5.77246 7.12549 6.33496V10.4951H6.48096C6.16456 10.4951 5.91846 10.7412 5.91846 11.0811ZM8.63721 10.4951V8.1162L9.73877 10.4951H8.63721ZM11.9067 11.667H12.9965V14.0342L11.9067 11.667Z" fill="black" fill-opacity="0.85"/>
</g>
<defs>
<clipPath id="clip0_2207_25816">
<rect width="21.5742" height="21.5977" fill="white" transform="translate(0.0356445 0.100586)"/>
</clipPath>
</defs>
</svg>
