<svg width="27" height="26" viewBox="0 0 27 26" fill="none" xmlns="http://www.w3.org/2000/svg">
<g clip-path="url(#clip0_2207_1611)">
<path d="M0.0461426 21.6865C0.0461426 24.0186 1.2063 25.2256 3.5852 25.2256H23.0149C25.4758 25.2256 26.6945 24.0186 26.6945 21.6045V3.7334C26.6945 1.31934 25.4758 0.100586 23.0149 0.100586H8.8938C6.44458 0.100586 5.21411 1.31934 5.21411 3.7334V9.32325H2.41333C0.925048 9.32325 0.0461426 10.1318 0.0461426 11.5264V21.6865ZM1.93286 21.6865V11.8897C1.93286 11.4561 2.19067 11.21 2.62426 11.21H5.21411V21.6865C5.21411 22.6592 4.49926 23.3389 3.5852 23.3389C2.65942 23.3389 1.93286 22.624 1.93286 21.6865ZM6.70239 23.3389C6.9602 22.835 7.10083 22.249 7.10083 21.5694V3.83887C7.10083 2.62012 7.75708 1.98731 8.92895 1.98731H22.9797C24.1516 1.98731 24.8078 2.62012 24.8078 3.83887V21.499C24.8078 22.7178 24.1516 23.3389 22.9797 23.3389H6.70239ZM10.1477 7.08497H21.7844C22.1945 7.08497 22.5109 6.75684 22.5109 6.34668C22.5109 5.94825 22.1945 5.64356 21.7844 5.64356H10.1477C9.72583 5.64356 9.40942 5.94825 9.40942 6.34668C9.40942 6.75684 9.72583 7.08497 10.1477 7.08497ZM10.1477 11.21H21.7844C22.1945 11.21 22.5109 10.8936 22.5109 10.4951C22.5109 10.085 22.1945 9.76856 21.7844 9.76856H10.1477C9.72583 9.76856 9.40942 10.085 9.40942 10.4951C9.40942 10.8936 9.72583 11.21 10.1477 11.21ZM10.8391 19.5654H13.8742C14.7649 19.5654 15.3039 19.0264 15.3039 18.1358V15.3467C15.3039 14.4444 14.7649 13.9053 13.8742 13.9053H10.8391C9.93676 13.9053 9.3977 14.4444 9.3977 15.3467V18.1358C9.3977 19.0264 9.93676 19.5654 10.8391 19.5654ZM17.4133 15.3467H21.7727C22.1945 15.3467 22.4992 15.042 22.4992 14.6436C22.4992 14.2217 22.1945 13.9053 21.7727 13.9053H17.4133C16.9914 13.9053 16.6867 14.2217 16.6867 14.6436C16.6867 15.042 16.9914 15.3467 17.4133 15.3467ZM17.4133 19.5654H21.7727C22.1945 19.5654 22.4992 19.2608 22.4992 18.8623C22.4992 18.4522 22.1945 18.124 21.7727 18.124H17.4133C16.9914 18.124 16.6867 18.4522 16.6867 18.8623C16.6867 19.2608 16.9914 19.5654 17.4133 19.5654Z" fill="black" fill-opacity="0.85"/>
</g>
<defs>
<clipPath id="clip0_2207_1611">
<rect width="26.6484" height="25.1367" fill="white" transform="translate(0.0461426 0.100586)"/>
</clipPath>
</defs>
</svg>
