<svg width="24" height="25" viewBox="0 0 24 25" fill="none" xmlns="http://www.w3.org/2000/svg">
<g clip-path="url(#clip0_2207_26166)">
<path d="M12.0097 24.0068C18.5488 24.0068 23.9628 18.5811 23.9628 12.0537C23.9628 5.51465 18.5371 0.100586 11.998 0.100586C5.4707 0.100586 0.0566406 5.51465 0.0566406 12.0537C0.0566406 18.5811 5.48242 24.0068 12.0097 24.0068ZM12.0097 22.0147C6.47852 22.0147 2.06055 17.585 2.06055 12.0537C2.06055 6.52247 6.4668 2.09278 11.998 2.09278C17.5293 2.09278 21.9707 6.52247 21.9707 12.0537C21.9707 17.585 17.541 22.0147 12.0097 22.0147Z" fill="black" fill-opacity="0.85"/>
<path d="M8.18945 16.9522C8.61133 16.9522 8.96289 16.6123 8.96289 16.1904V14.4444L9.58398 13.8584L11.3886 16.5068C11.6933 16.9756 12.1855 16.999 12.5136 16.7764C12.7949 16.5654 12.9355 16.1436 12.6074 15.6631L10.6855 12.9092L12.6074 10.9053C12.9355 10.5654 12.8535 10.1787 12.6191 9.96778C12.3613 9.69825 11.8925 9.61621 11.541 10.0146L8.98633 12.8623H8.96289V7.87012C8.96289 7.44825 8.61133 7.09668 8.18945 7.09668C7.76758 7.09668 7.42773 7.44825 7.42773 7.87012V16.1904C7.42773 16.6123 7.76758 16.9522 8.18945 16.9522ZM14.7988 16.9639C15.2089 16.9639 15.5254 16.6358 15.5254 16.2373V12.8154C15.5254 11.96 15.8183 11.2451 16.6855 11.2451C16.9668 11.2451 17.2714 11.1865 17.4589 11.0342C17.5878 10.9287 17.6816 10.7529 17.6816 10.5303C17.6816 10.2959 17.6113 10.1201 17.4824 9.99121C17.33 9.85059 17.1308 9.78028 16.8964 9.78028C16.1582 9.78028 15.666 10.4248 15.5371 11.1748H15.4785V10.46C15.4785 10.0732 15.1621 9.76856 14.7754 9.76856C14.3886 9.76856 14.0839 10.0732 14.0839 10.46V16.2373C14.0839 16.6358 14.4004 16.9639 14.7988 16.9639Z" fill="black" fill-opacity="0.85"/>
</g>
<defs>
<clipPath id="clip0_2207_26166">
<rect width="23.9062" height="23.918" fill="white" transform="translate(0.0566406 0.100586)"/>
</clipPath>
</defs>
</svg>
