<svg width="22" height="22" viewBox="0 0 22 22" fill="none" xmlns="http://www.w3.org/2000/svg">
<g clip-path="url(#clip0_2207_26162)">
<path d="M1.16797 21.2178C1.80078 21.2178 2.29297 20.7256 2.29297 20.1045V15.6162L3.875 14.0928L8.92578 20.7608C9.41797 21.417 10.1094 21.417 10.5664 21.0889C11.0117 20.7608 11.1992 20.1162 10.6953 19.46L5.51563 12.6397L10.3086 7.7295C10.8477 7.17871 10.7656 6.59278 10.4141 6.24121C10.0391 5.8545 9.35938 5.76075 8.83203 6.31153L2.39844 13.0733H2.29297V1.21387C2.29297 0.592774 1.80078 0.100586 1.16797 0.100586C0.546876 0.100586 0.0546875 0.592774 0.0546875 1.21387V20.1045C0.0546875 20.7256 0.546876 21.2178 1.16797 21.2178ZM15.0195 21.2295C15.6406 21.2295 16.1445 20.7256 16.1445 20.1045V12.0068C16.1445 9.9795 17.0235 8.12793 19.2383 8.12793C19.7422 8.12793 20.1055 8.13965 20.4336 8.02247C20.7852 7.88184 21.0313 7.60059 21.0313 7.09668C21.0313 6.51075 20.75 6.19434 20.3399 6.042C20.0586 5.92481 19.7539 5.88965 19.4258 5.88965C17.9609 5.88965 16.5547 6.96778 16.1328 8.80762H16.0391V6.96778C16.0391 6.37012 15.5469 5.88965 14.9609 5.88965C14.375 5.88965 13.8945 6.37012 13.8945 6.96778V20.1045C13.8945 20.7256 14.3867 21.2295 15.0195 21.2295Z" fill="black" fill-opacity="0.85"/>
</g>
<defs>
<clipPath id="clip0_2207_26162">
<rect width="20.9766" height="21.3398" fill="white" transform="translate(0.0546875 0.100586)"/>
</clipPath>
</defs>
</svg>
