<svg width="24" height="25" viewBox="0 0 24 25" fill="none" xmlns="http://www.w3.org/2000/svg">
<g clip-path="url(#clip0_2207_26171)">
<path d="M12.0119 24.0068C18.551 24.0068 23.965 18.5811 23.965 12.0537C23.965 5.51465 18.5393 0.100586 12.0002 0.100586C5.4729 0.100586 0.0588379 5.51465 0.0588379 12.0537C0.0588379 18.5811 5.48462 24.0068 12.0119 24.0068Z" fill="black" fill-opacity="0.85"/>
<path d="M8.06275 17.1045C7.62915 17.1045 7.27759 16.7529 7.27759 16.3194V7.74121C7.27759 7.30762 7.62915 6.94434 8.06275 6.94434C8.50806 6.94434 8.87134 7.30762 8.87134 7.74121V12.8858H8.89478L11.5197 9.95606C11.883 9.53418 12.3752 9.62793 12.633 9.89747C12.8791 10.1201 12.9611 10.5186 12.6213 10.8701L10.6526 12.9326L12.6213 15.7686C12.9611 16.2725 12.8205 16.7061 12.5276 16.9287C12.1877 17.1514 11.6721 17.1279 11.3557 16.6475L9.50415 13.917L8.87134 14.5264V16.3194C8.87134 16.7529 8.50806 17.1045 8.06275 17.1045ZM14.883 17.1162C14.4729 17.1162 14.1447 16.7764 14.1447 16.3662V10.4131C14.1447 10.0146 14.4611 9.69825 14.8596 9.69825C15.258 9.69825 15.5861 10.0146 15.5861 10.4131V11.1514H15.6565C15.7854 10.3779 16.2893 9.70997 17.051 9.70997C17.2971 9.70997 17.4963 9.78028 17.6604 9.93262C17.7893 10.0615 17.8596 10.2373 17.8596 10.4834C17.8596 10.7178 17.7658 10.8936 17.6369 11.0108C17.4377 11.1631 17.1213 11.2217 16.8283 11.2217C15.9377 11.2217 15.6447 11.96 15.6447 12.8389V16.3662C15.6447 16.7764 15.3166 17.1162 14.883 17.1162Z" fill="white"/>
</g>
<defs>
<clipPath id="clip0_2207_26171">
<rect width="23.9062" height="23.918" fill="white" transform="translate(0.0588379 0.100586)"/>
</clipPath>
</defs>
</svg>
