<svg width="24" height="24" viewBox="0 0 24 24" fill="none" xmlns="http://www.w3.org/2000/svg">
<g clip-path="url(#clip0_2207_18503)">
<path d="M0.0671387 17.8194C0.0671387 20.7842 2.12964 22.7529 5.24683 22.7529C6.19605 22.7529 7.21558 22.4248 7.87183 21.9326C7.36792 21.5694 6.93433 21.1709 6.32495 20.4092C6.05542 20.5264 5.69214 20.6084 5.32886 20.6084C4.3562 20.6084 3.69995 20.0459 3.69995 19.249C3.69995 18.4873 4.26245 17.96 5.1062 17.96C5.84448 17.96 6.34839 18.3936 6.89917 19.0029C8.09448 20.3037 9.2312 21.8154 11.8562 21.8154C14.4812 21.8154 15.6179 20.3037 16.8132 19.0029C17.364 18.3936 17.8679 17.96 18.6062 17.96C19.4382 17.96 20.0124 18.4873 20.0124 19.249C20.0124 20.0459 19.3562 20.6084 18.3718 20.6084C18.0202 20.6084 17.6569 20.5264 17.3757 20.4092C16.778 21.1709 16.3444 21.5694 15.8405 21.9326C16.4968 22.4248 17.5163 22.7529 18.4655 22.7529C21.5827 22.7529 23.6452 20.7842 23.6452 17.8194C23.6452 14.9951 21.6062 12.8858 18.5007 12.5459C17.3171 9.75684 16.4733 6.68653 15.7937 3.74512C15.2546 1.36621 14.0359 0.100586 11.8562 0.100586C9.67652 0.100586 8.45776 1.36621 7.9187 3.74512C7.23902 6.68653 6.39526 9.75684 5.21167 12.5459C2.1062 12.8858 0.0671387 14.9951 0.0671387 17.8194Z" fill="black" fill-opacity="0.85"/>
</g>
<defs>
<clipPath id="clip0_2207_18503">
<rect width="23.5781" height="23.0977" fill="white" transform="translate(0.0671387 0.100586)"/>
</clipPath>
</defs>
</svg>
