<svg width="24" height="22" viewBox="0 0 24 22" fill="none" xmlns="http://www.w3.org/2000/svg">
<g clip-path="url(#clip0_2207_1130)">
<path d="M3.75733 21.6983H19.7651C22.2143 21.6983 23.4331 20.4795 23.4331 18.0654V3.75684C23.4331 1.34278 22.2143 0.124023 19.7651 0.124023H3.75733C1.30811 0.124023 0.0776367 1.33106 0.0776367 3.75684V18.0654C0.0776367 20.4912 1.30811 21.6983 3.75733 21.6983ZM3.58155 19.8115C2.53858 19.8115 1.96436 19.2608 1.96436 18.1709V7.12012C1.96436 6.042 2.53858 5.4795 3.58155 5.4795H19.9174C20.9604 5.4795 21.5464 6.042 21.5464 7.12012V18.1709C21.5464 19.2608 20.9604 19.8115 19.9174 19.8115H3.58155Z" fill="black" fill-opacity="0.85"/>
<path d="M5.6206 9.83886H17.9253C18.3354 9.83886 18.6518 9.51074 18.6518 9.10058C18.6518 8.70214 18.3354 8.39746 17.9253 8.39746H5.6206C5.18701 8.39746 4.88232 8.70214 4.88232 9.10058C4.88232 9.51074 5.18701 9.83886 5.6206 9.83886ZM5.6206 13.3662H17.9253C18.3354 13.3662 18.6518 13.0615 18.6518 12.6631C18.6518 12.2412 18.3354 11.9248 17.9253 11.9248H5.6206C5.18701 11.9248 4.88232 12.2412 4.88232 12.6631C4.88232 13.0615 5.18701 13.3662 5.6206 13.3662ZM5.6206 16.8936H13.437C13.8471 16.8936 14.1635 16.5889 14.1635 16.1904C14.1635 15.7803 13.8471 15.4522 13.437 15.4522H5.6206C5.18701 15.4522 4.88232 15.7803 4.88232 16.1904C4.88232 16.5889 5.18701 16.8936 5.6206 16.8936Z" fill="black" fill-opacity="0.85"/>
</g>
<defs>
<clipPath id="clip0_2207_1130">
<rect width="23.3555" height="21.5977" fill="white" transform="translate(0.0776367 0.100586)"/>
</clipPath>
</defs>
</svg>
