<svg width="22" height="22" viewBox="0 0 22 22" fill="none" xmlns="http://www.w3.org/2000/svg">
<g clip-path="url(#clip0_2207_23041)">
<path d="M3.76782 21.6983H17.9826C20.4436 21.6983 21.6623 20.4795 21.6623 18.0654V3.75684C21.6623 1.34278 20.4436 0.124023 17.9826 0.124023H3.76782C1.3186 0.124023 0.0881348 1.33106 0.0881348 3.75684V18.0654C0.0881348 20.4912 1.3186 21.6983 3.76782 21.6983ZM3.79125 19.8115C2.61938 19.8115 1.97485 19.1904 1.97485 17.9717V3.85059C1.97485 2.63184 2.61938 2.01075 3.79125 2.01075H17.9592C19.1193 2.01075 19.7756 2.63184 19.7756 3.85059V17.9717C19.7756 19.1904 19.1193 19.8115 17.9592 19.8115H3.79125Z" fill="black" fill-opacity="0.85"/>
<path d="M7.86939 16.6123C8.32642 16.6123 8.60767 16.3779 8.70142 15.9444L9.22876 13.4248H11.4084L10.9279 15.7217C10.8225 16.2022 11.1623 16.6123 11.6428 16.6123C12.1115 16.6123 12.4162 16.3779 12.51 15.9444L13.0373 13.4131H14.2561C14.7131 13.4131 15.0412 13.0733 15.0412 12.6279C15.0412 12.2295 14.76 11.9365 14.3733 11.9365H13.3537L13.8576 9.55761H15.0881C15.5451 9.55761 15.8733 9.21777 15.8733 8.77246C15.8733 8.37402 15.592 8.08105 15.2053 8.08105H14.1623L14.6193 5.88964C14.7131 5.40917 14.3615 4.99902 13.8811 4.99902C13.424 4.99902 13.1311 5.23339 13.0373 5.6787L12.5334 8.08105H10.3537L10.799 5.88964C10.9045 5.42089 10.5647 4.99902 10.0842 4.99902C9.61548 4.99902 9.32252 5.23339 9.22876 5.6787L8.73658 8.08105H7.49439C7.04908 8.08105 6.70923 8.42089 6.70923 8.8662C6.70923 9.26464 6.99048 9.55761 7.38892 9.55761H8.40845L7.91626 11.9365H6.66236C6.20533 11.9365 5.8772 12.2764 5.8772 12.7217C5.8772 13.1201 6.15845 13.4131 6.54517 13.4131H7.61158L7.13111 15.7217C7.03736 16.2022 7.38892 16.6123 7.86939 16.6123ZM9.4397 12.0772L9.97876 9.44042H12.3459L11.7951 12.0772H9.4397Z" fill="black" fill-opacity="0.85"/>
</g>
<defs>
<clipPath id="clip0_2207_23041">
<rect width="21.5742" height="21.5977" fill="white" transform="translate(0.0881348 0.100586)"/>
</clipPath>
</defs>
</svg>
