<svg width="23" height="18" viewBox="0 0 23 18" fill="none" xmlns="http://www.w3.org/2000/svg">
<g clip-path="url(#clip0_2207_22575)">
<path d="M18.3267 8.28028C20.729 8.28028 22.4048 6.63965 22.4048 4.27247C22.4048 1.917 20.729 0.264648 18.3267 0.264648C15.9946 0.264648 14.3775 1.917 14.3775 4.27247C14.3775 6.63965 16.0064 8.28028 18.3267 8.28028ZM18.3267 6.72168C17.0845 6.72168 16.2173 5.71387 16.2173 4.27247C16.2173 2.83106 17.0845 1.83497 18.3267 1.83497C19.6509 1.83497 20.5532 2.83106 20.5532 4.27247C20.5532 5.71387 19.6392 6.72168 18.3267 6.72168ZM1.08838 17.2451C1.7212 17.2451 2.0962 16.8467 2.0962 16.2139V3.96778H2.04932L10.4868 16.46C10.897 17.0459 11.2134 17.2451 11.729 17.2451C12.4087 17.2451 12.8071 16.8233 12.8071 16.0967V1.37793C12.8071 0.733398 12.4321 0.323242 11.7993 0.323242C11.19 0.323242 10.8032 0.733398 10.8032 1.37793V13.6123H10.8501L2.4126 1.1084C2.00245 0.510742 1.70948 0.323242 1.17041 0.323242C0.51416 0.323242 0.0922852 0.780274 0.0922852 1.47168V16.2139C0.0922852 16.8467 0.490723 17.2451 1.08838 17.2451ZM15.5259 11.21H21.2681C21.8306 11.21 22.2642 10.8584 22.2642 10.2842C22.2642 9.70997 21.8306 9.33497 21.2681 9.33497H15.5259C14.9634 9.33497 14.5532 9.70997 14.5532 10.2842C14.5532 10.8584 14.9634 11.21 15.5259 11.21Z" fill="black" fill-opacity="0.85"/>
</g>
<defs>
<clipPath id="clip0_2207_22575">
<rect width="22.3125" height="17.1445" fill="white" transform="translate(0.0922852 0.100586)"/>
</clipPath>
</defs>
</svg>
