<svg width="22" height="22" viewBox="0 0 22 22" fill="none" xmlns="http://www.w3.org/2000/svg">
<g clip-path="url(#clip0_2207_23046)">
<path d="M3.77002 21.6983H17.9848C20.4458 21.6983 21.6645 20.4795 21.6645 18.0654V3.75684C21.6645 1.34278 20.4458 0.124023 17.9848 0.124023H3.77002C1.3208 0.124023 0.090332 1.33106 0.090332 3.75684V18.0654C0.090332 20.4912 1.3208 21.6983 3.77002 21.6983Z" fill="black" fill-opacity="0.85"/>
<path d="M7.77783 16.7998C7.27392 16.7998 6.91064 16.3779 7.00439 15.874L7.5083 13.4951H6.40674C6.0083 13.4951 5.71533 13.2022 5.71533 12.7803C5.71533 12.3233 6.05517 11.9717 6.53564 11.9717H7.82471L8.32861 9.52246H7.27392C6.86377 9.52246 6.5708 9.21777 6.5708 8.80761C6.5708 8.33886 6.92236 7.9873 7.39111 7.9873H8.66845L9.17236 5.51464C9.26611 5.05761 9.5708 4.81152 10.063 4.81152C10.5551 4.81152 10.9067 5.24511 10.8012 5.7373L10.3442 7.9873H12.5825L13.1098 5.51464C13.2036 5.05761 13.5083 4.81152 13.977 4.81152C14.4809 4.81152 14.8442 5.23339 14.7505 5.7373L14.27 7.9873H15.3481C15.7465 7.9873 16.0395 8.29199 16.0395 8.70214C16.0395 9.17089 15.6997 9.52246 15.2192 9.52246H13.9536L13.438 11.9717H14.4926C14.8911 11.9717 15.1841 12.2764 15.1841 12.6865C15.1841 13.1436 14.8442 13.4951 14.3637 13.4951H13.1098L12.5708 16.1084C12.477 16.5537 12.1606 16.7998 11.6684 16.7998C11.1762 16.7998 10.8247 16.3779 10.9301 15.874L11.4223 13.5068H9.18408L8.6333 16.1084C8.53955 16.5537 8.24658 16.7998 7.77783 16.7998ZM9.39502 12.1123H11.8208L12.395 9.39355H9.95752L9.39502 12.1123Z" fill="white"/>
</g>
<defs>
<clipPath id="clip0_2207_23046">
<rect width="21.5742" height="21.5977" fill="white" transform="translate(0.090332 0.100586)"/>
</clipPath>
</defs>
</svg>
