<svg width="24" height="25" viewBox="0 0 24 25" fill="none" xmlns="http://www.w3.org/2000/svg">
<g clip-path="url(#clip0_2207_23036)">
<path d="M12.0393 24.0068C18.5784 24.0068 23.9924 18.5811 23.9924 12.0537C23.9924 5.51465 18.5667 0.100586 12.0276 0.100586C5.50024 0.100586 0.0861816 5.51465 0.0861816 12.0537C0.0861816 18.5811 5.51196 24.0068 12.0393 24.0068Z" fill="black" fill-opacity="0.85"/>
<path d="M8.92212 17.96C8.42993 17.96 8.06665 17.5381 8.1604 17.0342L8.65259 14.6553H7.56274C7.1643 14.6553 6.87134 14.3623 6.87134 13.9404C6.87134 13.4834 7.21118 13.1318 7.69165 13.1318H8.98071L9.48462 10.6826H8.42993C8.01977 10.6826 7.7268 10.3779 7.7268 9.96778C7.7268 9.49903 8.06665 9.14747 8.54712 9.14747H9.81274L10.3284 6.67481C10.4221 6.21778 10.7268 5.97168 11.219 5.97168C11.7112 5.97168 12.0628 6.40528 11.9573 6.89747L11.5003 9.14747H13.7385L14.2659 6.67481C14.3596 6.21778 14.6643 5.97168 15.1331 5.97168C15.637 5.97168 15.9885 6.39356 15.9065 6.89747L15.426 9.14747H16.5042C16.9026 9.14747 17.1956 9.45215 17.1956 9.86231C17.1956 10.3311 16.8557 10.6826 16.3753 10.6826H15.1096L14.594 13.1318H15.6487C16.0471 13.1318 16.3401 13.4365 16.3401 13.8467C16.3401 14.3037 16.0003 14.6553 15.5198 14.6553H14.2659L13.7268 17.2686C13.6331 17.7139 13.3167 17.96 12.8245 17.96C12.3323 17.96 11.9807 17.5381 12.0862 17.0342L12.5784 14.667H10.3401L9.77759 17.2686C9.69556 17.7139 9.40259 17.96 8.92212 17.96ZM10.551 13.2725H12.9651L13.551 10.5537H11.1135L10.551 13.2725Z" fill="white"/>
</g>
<defs>
<clipPath id="clip0_2207_23036">
<rect width="23.9062" height="23.918" fill="white" transform="translate(0.0861816 0.100586)"/>
</clipPath>
</defs>
</svg>
