<svg width="22" height="22" viewBox="0 0 22 22" fill="none" xmlns="http://www.w3.org/2000/svg">
<g clip-path="url(#clip0_2207_25116)">
<path d="M3.77832 21.6983H17.9931C20.4541 21.6983 21.6728 20.4795 21.6728 18.0654V3.75684C21.6728 1.34278 20.4541 0.124023 17.9931 0.124023H3.77832C1.3291 0.124023 0.0986328 1.33106 0.0986328 3.75684V18.0654C0.0986328 20.4912 1.3291 21.6983 3.77832 21.6983ZM3.80175 19.8115C2.62988 19.8115 1.98535 19.1904 1.98535 17.9717V3.85059C1.98535 2.63184 2.62988 2.01075 3.80175 2.01075H17.9697C19.1298 2.01075 19.7861 2.63184 19.7861 3.85059V17.9717C19.7861 19.1904 19.1298 19.8115 17.9697 19.8115H3.80175Z" fill="black" fill-opacity="0.85"/>
<path d="M10.8916 16.3897C13.8916 16.3897 15.9658 14.0928 15.9658 10.7881C15.9658 7.47167 13.8916 5.1748 10.8916 5.1748C7.90332 5.1748 5.8291 7.47167 5.8291 10.7881C5.8291 14.0928 7.90332 16.3897 10.8916 16.3897ZM10.8916 14.9131C8.95801 14.9131 7.69238 13.2842 7.69238 10.7881C7.69238 8.28027 8.95801 6.65136 10.8916 6.65136C12.8252 6.65136 14.0908 8.28027 14.0908 10.7881C14.0908 13.2842 12.8252 14.9131 10.8916 14.9131Z" fill="black" fill-opacity="0.85"/>
</g>
<defs>
<clipPath id="clip0_2207_25116">
<rect width="21.5742" height="21.5977" fill="white" transform="translate(0.0986328 0.100586)"/>
</clipPath>
</defs>
</svg>
