<svg width="24" height="22" viewBox="0 0 24 22" fill="none" xmlns="http://www.w3.org/2000/svg">
<g clip-path="url(#clip0_2207_2817)">
<path d="M20.874 2.37454L18.7998 0.300317C18.5303 0.0307862 18.1318 0.0425049 17.874 0.300317C17.6162 0.55813 17.6045 0.956567 17.874 1.21438L19.9482 3.30032C20.2178 3.55813 20.6162 3.54641 20.874 3.30032C21.1318 3.03079 21.1435 2.63235 20.874 2.37454ZM6.20213 14.0347L7.12791 14.9604L19.9248 2.17532L18.999 1.24954L6.20213 14.0347ZM0.905252 20.269C1.87791 21.23 3.00291 21.4526 3.65916 20.7729L8.10057 16.3081C8.83885 15.5932 9.19041 14.9136 9.3076 14.187L9.65916 12.0776L9.08494 11.5151L6.97557 11.8667C6.26072 11.9722 5.58104 12.3354 4.85447 13.062L0.389627 17.5151C-0.278342 18.1714 -0.0674038 19.2964 0.905252 20.269ZM2.70994 2.37454C2.45213 2.63235 2.46385 3.03079 2.70994 3.30032C2.97947 3.54641 3.37791 3.55813 3.63572 3.30032L5.70994 1.21438C5.97947 0.956567 5.96776 0.55813 5.70994 0.300317C5.45213 0.0425049 5.05369 0.0307862 4.78416 0.300317L2.70994 2.37454ZM17.3818 14.0347L4.58494 1.24954L3.65916 2.17532L16.456 14.9604L17.3818 14.0347ZM22.6787 20.269C23.6513 19.2964 23.8623 18.1714 23.1943 17.5151L18.7295 13.062C18.0029 12.3354 17.3349 11.9722 16.6084 11.8667L14.499 11.5151L13.9365 12.0776L14.2763 14.187C14.3935 14.9136 14.7451 15.5932 15.4834 16.3081L19.9248 20.7729C20.581 21.4526 21.7178 21.23 22.6787 20.269Z" fill="black" fill-opacity="0.85"/>
</g>
<defs>
<clipPath id="clip0_2207_2817">
<rect width="23.5795" height="21.2432" fill="white" transform="translate(0.00219727 0.102539)"/>
</clipPath>
</defs>
</svg>
