<svg width="25" height="24" viewBox="0 0 25 24" fill="none" xmlns="http://www.w3.org/2000/svg">
<g clip-path="url(#clip0_2207_7791)">
<path d="M8.49268 23.2822H15.606C17.0942 23.2822 17.7974 22.8017 18.5708 21.9697L23.1177 16.9541C23.8794 16.1103 24.0903 15.5361 24.0903 14.3759V9.02051C24.0903 7.84863 23.8794 7.28613 23.1177 6.44238L18.5708 1.42676C17.7974 0.594727 17.0942 0.102539 15.606 0.102539H8.49268C7.00439 0.102539 6.28955 0.594727 5.52783 1.42676L0.980957 6.44238C0.20752 7.28613 0.00830078 7.84863 0.00830078 9.02051V14.3759C0.00830078 15.5361 0.20752 16.1103 0.980957 16.9541L5.52783 21.9697C6.28955 22.8017 7.00439 23.2822 8.49268 23.2822Z" fill="black" fill-opacity="0.85"/>
</g>
<defs>
<clipPath id="clip0_2207_7791">
<rect width="24.082" height="23.1914" fill="white" transform="translate(0.00830078 0.102539)"/>
</clipPath>
</defs>
</svg>
