<svg width="24" height="23" viewBox="0 0 24 23" fill="none" xmlns="http://www.w3.org/2000/svg">
<g clip-path="url(#clip0_2207_7795)">
<path d="M8.2605 22.8134H15.3738C16.8621 22.8134 17.5652 22.333 18.3386 21.5009L22.6511 16.7197C23.4246 15.8642 23.6238 15.3017 23.6238 14.1416V8.78613C23.6238 7.61426 23.4246 7.06348 22.6511 6.20801L18.3386 1.42676C17.5652 0.594727 16.8621 0.102539 15.3738 0.102539H8.2605C6.77222 0.102539 6.05738 0.594727 5.29566 1.42676L0.983154 6.20801C0.209717 7.06348 0.010498 7.61426 0.010498 8.78613V14.1416C0.010498 15.3017 0.209717 15.8642 0.983154 16.7197L5.29566 21.5009C6.05738 22.333 6.77222 22.8134 8.2605 22.8134ZM11.8113 1.98926H14.741C15.9128 1.98926 16.241 2.23535 16.8972 2.9502L20.8816 7.34473C21.3503 7.86035 21.4558 8.15332 21.4558 9.00879V13.9189C21.4558 14.7744 21.3503 15.0673 20.8816 15.583L16.8972 19.9775C16.241 20.6806 15.9128 20.9384 14.741 20.9384H11.8113V1.98926Z" fill="black" fill-opacity="0.85"/>
</g>
<defs>
<clipPath id="clip0_2207_7795">
<rect width="23.6133" height="22.7227" fill="white" transform="translate(0.010498 0.102539)"/>
</clipPath>
</defs>
</svg>
