<svg width="24" height="23" viewBox="0 0 24 23" fill="none" xmlns="http://www.w3.org/2000/svg">
<g clip-path="url(#clip0_2207_7799)">
<path d="M15.376 22.8134C16.8643 22.8134 17.5674 22.333 18.3408 21.5009L22.6533 16.7197C23.4268 15.8642 23.626 15.3017 23.626 14.1416V8.78613C23.626 7.61426 23.4268 7.06348 22.6533 6.20801L18.3408 1.42676C17.5674 0.594727 16.8643 0.102539 15.376 0.102539H8.2627C6.77442 0.102539 6.05958 0.594727 5.29786 1.42676L0.985351 6.20801C0.211914 7.06348 0.0126953 7.61426 0.0126953 8.78613V14.1416C0.0126953 15.3017 0.211914 15.8642 0.985351 16.7197L5.29786 21.5009C6.05958 22.333 6.77442 22.8134 8.2627 22.8134H15.376ZM11.8135 1.98926V20.9384H8.8955C7.72363 20.9384 7.38379 20.6806 6.73926 19.9775L2.74317 15.583C2.28614 15.0673 2.18067 14.7744 2.18067 13.9189V9.00879C2.18067 8.15332 2.28614 7.86035 2.74317 7.34473L6.73926 2.9502C7.38379 2.23535 7.72363 1.98926 8.8955 1.98926H11.8135Z" fill="black" fill-opacity="0.85"/>
</g>
<defs>
<clipPath id="clip0_2207_7799">
<rect width="23.6133" height="22.7227" fill="white" transform="translate(0.0126953 0.102539)"/>
</clipPath>
</defs>
</svg>
