<svg width="27" height="20" viewBox="0 0 27 20" fill="none" xmlns="http://www.w3.org/2000/svg">
<g clip-path="url(#clip0_2207_716)">
<path d="M4.375 15.1259C4.375 14.6572 4.75 14.2705 5.23046 14.2705H21.789C22.2695 14.2705 22.6445 14.6572 22.6445 15.1259C22.6445 15.5947 22.2695 15.9931 21.789 15.9931H5.23046C4.75 15.9931 4.375 15.5947 4.375 15.1259ZM4.66796 19.7314H22.3515C25.0937 19.7314 26.9921 17.8447 26.9921 15.1259C26.9921 12.4072 25.0937 10.5087 22.3515 10.5087H4.66796C1.92578 10.5087 0.0273438 12.4072 0.0273438 15.1259C0.0273438 17.8447 1.92578 19.7314 4.66796 19.7314ZM4.66796 8.90332H22.3515C23.4531 8.90332 24.4609 9.14942 25.3281 9.59473L22.5273 2.83301C21.8007 1.06348 20.2656 0.114258 18.2382 0.114258H8.78125C6.7539 0.114258 5.21875 1.06348 4.49218 2.83301L1.67968 9.59473C2.55859 9.14942 3.5664 8.90332 4.66796 8.90332Z" fill="black" fill-opacity="0.85"/>
</g>
<defs>
<clipPath id="clip0_2207_716">
<rect width="26.9648" height="19.6289" fill="white" transform="translate(0.0273438 0.102539)"/>
</clipPath>
</defs>
</svg>
