<svg width="24" height="25" viewBox="0 0 24 25" fill="none" xmlns="http://www.w3.org/2000/svg">
<g clip-path="url(#clip0_2207_13076)">
<path d="M11.9858 17.4697C14.9624 17.458 17.3765 15.0439 17.3765 12.0556C17.3765 9.11426 14.9507 6.68848 11.9976 6.68848C9.03272 6.68848 6.5835 9.11426 6.5835 12.0556C6.5835 15.0439 9.00928 17.4814 11.9858 17.4697ZM11.9858 16.2744C9.66553 16.2744 7.77881 14.3994 7.77881 12.0556C7.77881 9.78223 9.67725 7.88379 11.9858 7.88379C14.2944 7.88379 16.1812 9.77051 16.1812 12.0556C16.1812 14.3759 14.3062 16.2744 11.9858 16.2744ZM11.9858 14.9267C13.5444 14.9267 14.8335 13.6377 14.8335 12.0673C14.8335 10.5205 13.5444 9.23145 11.9858 9.23145C10.4155 9.23145 9.12647 10.5205 9.12647 12.0791C9.12647 13.6377 10.4155 14.9267 11.9858 14.9267ZM11.9858 13.6259C11.1187 13.6142 10.439 12.9345 10.439 12.0673C10.439 11.247 11.1187 10.5322 11.9976 10.5322C12.8296 10.5322 13.521 11.2353 13.521 12.0673C13.521 12.9345 12.8296 13.6377 11.9858 13.6259ZM7.66162 14.0478L7.39209 13.0752L0.899902 15.1845L1.21631 16.1455L7.66162 14.0478ZM8.32959 15.4541L7.69678 14.6572L2.42334 18.5361L3.03272 19.3564L8.32959 15.4541ZM11.0015 16.872L10.0757 16.4619L7.97803 22.9072L8.93897 23.2353L11.0015 16.872ZM12.9702 7.37988L13.9429 7.67285L15.9819 1.3916L15.021 1.06348L12.9702 7.37988ZM15.5952 8.87988L16.228 9.66504L21.5366 5.73926L20.9272 4.94238L15.5952 8.87988ZM16.3101 10.2392L16.6616 11.1767L23.0601 9.11426L22.7437 8.1416L16.3101 10.2392ZM11.9741 24.0087C18.5132 24.0087 23.9272 18.583 23.9272 12.0556C23.9272 5.5166 18.5015 0.102539 11.9624 0.102539C5.43506 0.102539 0.0209961 5.5166 0.0209961 12.0556C0.0209961 18.583 5.44678 24.0087 11.9741 24.0087ZM11.9741 22.0166C6.44288 22.0166 2.02491 17.5869 2.02491 12.0556C2.02491 6.52442 6.43116 2.09473 11.9624 2.09473C17.4937 2.09473 21.9351 6.52442 21.9351 12.0556C21.9351 17.5869 17.5054 22.0166 11.9741 22.0166Z" fill="black" fill-opacity="0.85"/>
</g>
<defs>
<clipPath id="clip0_2207_13076">
<rect width="23.9062" height="23.918" fill="white" transform="translate(0.0209961 0.102539)"/>
</clipPath>
</defs>
</svg>
