<svg width="31" height="23" viewBox="0 0 31 23" fill="none" xmlns="http://www.w3.org/2000/svg">
<g clip-path="url(#clip0_2207_7667)">
<path d="M0.0419922 11.4814C0.0419922 18.1142 6.2998 22.872 15.1592 22.872C24.0186 22.872 30.2764 18.1142 30.2764 11.4814C30.2764 4.83692 24.0186 0.102539 15.1592 0.102539C6.2998 0.102539 0.0419922 4.83692 0.0419922 11.4814ZM1.92871 11.4814C1.92871 5.9502 7.41308 1.98926 15.1592 1.98926C22.9053 1.98926 28.3897 5.9502 28.3897 11.4814C28.3897 17.0127 22.9053 20.9853 15.1592 20.9853C7.41308 20.9853 1.92871 17.0127 1.92871 11.4814Z" fill="black" fill-opacity="0.85"/>
<path d="M3.65137 11.4814C3.65137 16.0048 8.37402 19.2744 15.1592 19.2744C21.9561 19.2744 26.6787 16.0048 26.6787 11.4814C26.6787 6.96972 21.9443 3.7002 15.1592 3.7002C8.38574 3.7002 3.65137 6.96972 3.65137 11.4814Z" fill="black" fill-opacity="0.85"/>
</g>
<defs>
<clipPath id="clip0_2207_7667">
<rect width="30.2344" height="22.7695" fill="white" transform="translate(0.0419922 0.102539)"/>
</clipPath>
</defs>
</svg>
