<svg width="22" height="29" viewBox="0 0 22 29" fill="none" xmlns="http://www.w3.org/2000/svg">
<g clip-path="url(#clip0_2207_7696)">
<path d="M10.8572 0.102539C4.47046 0.102539 0.0524902 5.90332 0.0524902 14.1298C0.0524902 22.3564 4.47046 28.1572 10.8572 28.1572C17.2439 28.1572 21.6384 22.3681 21.6384 14.1298C21.6384 5.8916 17.2439 0.102539 10.8572 0.102539ZM10.8572 1.98926C16.1189 1.98926 19.7517 7.00488 19.7517 14.1298C19.7517 21.2548 16.1189 26.2705 10.8572 26.2705C5.58374 26.2705 1.93921 21.2431 1.93921 14.1298C1.93921 7.00488 5.58374 1.98926 10.8572 1.98926Z" fill="black" fill-opacity="0.85"/>
<path d="M10.8572 24.5595C15.0759 24.5595 18.0408 20.3408 18.0408 14.1298C18.0408 7.90723 15.0759 3.7002 10.8572 3.7002C6.63843 3.7002 3.66187 7.91895 3.66187 14.1298C3.66187 20.3291 6.63843 24.5595 10.8572 24.5595Z" fill="black" fill-opacity="0.85"/>
</g>
<defs>
<clipPath id="clip0_2207_7696">
<rect width="21.5859" height="28.0664" fill="white" transform="translate(0.0524902 0.102539)"/>
</clipPath>
</defs>
</svg>
