<svg width="28" height="22" viewBox="0 0 28 22" fill="none" xmlns="http://www.w3.org/2000/svg">
<g clip-path="url(#clip0_2207_20853)">
<path d="M9.31641 21.1377H18.4804C25.2773 21.1377 27.7148 18.6181 27.7148 12.3486V8.90332C27.7148 2.63379 25.2773 0.102539 18.4804 0.102539H9.31641C2.51953 0.102539 0.0820312 2.63379 0.0820312 8.90332V12.3486C0.0820312 18.6181 2.51953 21.1377 9.31641 21.1377ZM9.31641 19.2509C3.78515 19.2509 1.96875 17.458 1.96875 12.3486V8.90332C1.96875 3.79395 3.78515 1.98926 9.31641 1.98926H18.4804C24.0117 1.98926 25.8281 3.79395 25.8281 8.90332V12.3486C25.8281 17.458 24.0117 19.2509 18.4804 19.2509H9.31641Z" fill="black" fill-opacity="0.85"/>
<path d="M8.55469 15.4775C9.11719 15.4775 9.39844 15.1377 9.39844 14.5986V12.2197H10.6406C12.4336 12.2197 13.4648 10.8603 13.4648 9.05566C13.4648 7.27442 12.457 5.86816 10.7461 5.86816H8.54297C8.05078 5.86816 7.69922 6.19629 7.69922 6.77051V14.5986C7.69922 15.1494 8.00391 15.4775 8.55469 15.4775ZM9.39844 10.872V7.25098H10.3125C11.2968 7.25098 11.7656 7.9541 11.7656 9.05566C11.7656 10.0986 11.3437 10.872 10.3008 10.872H9.39844ZM15.4218 15.3603H19.4882C19.8984 15.3603 20.1562 15.0908 20.1562 14.6806C20.1562 14.2353 19.8867 13.9892 19.4882 13.9892H16.7109V13.8955L18.4218 11.7275C19.5937 10.2744 19.9804 9.40723 19.9804 8.37598C19.9804 6.79395 18.9023 5.64551 17.2851 5.64551C15.7851 5.64551 14.6484 6.8877 14.6484 8.10645C14.6484 8.54004 14.9062 8.84473 15.3515 8.84473C15.7382 8.84473 15.9726 8.66895 16.0898 8.28223C16.3125 7.49707 16.6054 7.00488 17.2734 7.00488C17.9882 7.00488 18.375 7.62598 18.375 8.45801C18.375 9.39551 17.7304 10.3447 17.1093 11.1416L15.0703 13.7431C14.8476 14.0244 14.6367 14.3173 14.6367 14.6806C14.6367 15.0791 14.8828 15.3603 15.4218 15.3603Z" fill="black" fill-opacity="0.85"/>
</g>
<defs>
<clipPath id="clip0_2207_20853">
<rect width="27.6328" height="21.0586" fill="white" transform="translate(0.0820312 0.102539)"/>
</clipPath>
</defs>
</svg>
