<svg width="28" height="22" viewBox="0 0 28 22" fill="none" xmlns="http://www.w3.org/2000/svg">
<g clip-path="url(#clip0_2207_20858)">
<path d="M9.31836 21.1377H18.4824C25.2793 21.1377 27.7168 18.6181 27.7168 12.3486V8.90332C27.7168 2.63379 25.2793 0.102539 18.4824 0.102539H9.31836C2.52148 0.102539 0.0839844 2.63379 0.0839844 8.90332V12.3486C0.0839844 18.6181 2.52148 21.1377 9.31836 21.1377Z" fill="black" fill-opacity="0.85"/>
<path d="M8.38086 15.6298C7.81836 15.6298 7.50195 15.29 7.50195 14.7158V6.65332C7.50195 6.05566 7.86523 5.71582 8.36914 5.71582H10.6426C12.4121 5.71582 13.4551 7.16895 13.4551 9.00879C13.4551 10.872 12.3887 12.2783 10.5371 12.2783H9.25976V14.7158C9.25976 15.2783 8.96679 15.6298 8.38086 15.6298ZM9.25976 10.8837H10.1856C11.2637 10.8837 11.6973 10.0869 11.6973 9.00879C11.6973 7.87207 11.2051 7.15723 10.1973 7.15723H9.25976V10.8837ZM15.4707 15.5127C14.9199 15.5127 14.6621 15.2197 14.6621 14.8095C14.6621 14.4345 14.8848 14.1298 15.1074 13.8369L17.2051 11.165C17.8496 10.3447 18.5176 9.36035 18.5176 8.3877C18.5176 7.53223 18.1192 6.89942 17.3809 6.89942C16.7012 6.89942 16.3965 7.40332 16.1621 8.21192C16.0449 8.61035 15.7988 8.79785 15.4004 8.79785C14.9434 8.79785 14.6738 8.48145 14.6738 8.02442C14.6738 6.77051 15.8457 5.49316 17.3926 5.49316C19.0684 5.49316 20.1817 6.67676 20.1817 8.30566C20.1817 9.37207 19.7832 10.2627 18.5645 11.7627L16.8067 13.9892V14.0947H19.666C20.0762 14.0947 20.3574 14.3408 20.3574 14.8095C20.3574 15.2314 20.0996 15.5127 19.666 15.5127H15.4707Z" fill="white"/>
</g>
<defs>
<clipPath id="clip0_2207_20858">
<rect width="27.6328" height="21.0586" fill="white" transform="translate(0.0839844 0.102539)"/>
</clipPath>
</defs>
</svg>
