<svg width="28" height="22" viewBox="0 0 28 22" fill="none" xmlns="http://www.w3.org/2000/svg">
<g clip-path="url(#clip0_2207_20863)">
<path d="M9.32056 21.1377H18.4846C25.2815 21.1377 27.719 18.6181 27.719 12.3486V8.90332C27.719 2.63379 25.2815 0.102539 18.4846 0.102539H9.32056C2.52368 0.102539 0.0861816 2.63379 0.0861816 8.90332V12.3486C0.0861816 18.6181 2.52368 21.1377 9.32056 21.1377ZM9.32056 19.2509C3.7893 19.2509 1.9729 17.458 1.9729 12.3486V8.90332C1.9729 3.79395 3.7893 1.98926 9.32056 1.98926H18.4846C24.0159 1.98926 25.8323 3.79395 25.8323 8.90332V12.3486C25.8323 17.458 24.0159 19.2509 18.4846 19.2509H9.32056Z" fill="black" fill-opacity="0.85"/>
<path d="M8.45337 15.4775C9.01587 15.4775 9.30884 15.1377 9.30884 14.5986V12.2197H10.551C12.3323 12.2197 13.3753 10.8603 13.3753 9.05566C13.3753 7.27442 12.3674 5.86816 10.6448 5.86816H8.44165C7.94946 5.86816 7.5979 6.19629 7.5979 6.77051V14.5986C7.5979 15.1494 7.90259 15.4775 8.45337 15.4775ZM9.30884 10.872V7.25098H10.2112C11.1956 7.25098 11.676 7.9541 11.676 9.05566C11.676 10.0986 11.2424 10.872 10.1995 10.872H9.30884ZM17.4651 15.5713C19.1409 15.5713 20.43 14.5166 20.43 12.7587C20.43 11.3056 19.5628 10.5908 18.5784 10.4853V10.4502C19.6331 10.1689 20.1487 9.21973 20.1487 8.23535C20.1487 6.61816 18.9417 5.69238 17.4182 5.69238C16.1995 5.69238 15.1565 6.37207 14.8167 7.41504C14.7581 7.6377 14.7346 7.84863 14.7346 8.04785C14.7346 8.43457 14.9924 8.73926 15.4495 8.73926C15.8479 8.73926 16.0823 8.58692 16.1995 8.17676C16.387 7.48535 16.762 7.05176 17.4182 7.05176C18.1917 7.05176 18.555 7.64942 18.555 8.42285C18.555 9.27832 18.0862 9.89942 17.2073 9.89942H16.926C16.5276 9.89942 16.2815 10.1455 16.2815 10.5322C16.2815 10.9189 16.5393 11.1416 16.926 11.1416H17.219C18.2151 11.1416 18.7659 11.6923 18.7659 12.7119C18.7659 13.5205 18.3323 14.2119 17.4651 14.2119C16.6096 14.2119 16.2346 13.6377 16.0823 13.0986C15.9768 12.7236 15.719 12.5244 15.344 12.5244C14.887 12.5244 14.5823 12.8056 14.5823 13.2627C14.5823 13.4736 14.6174 13.6845 14.676 13.872C15.0042 14.9619 16.1995 15.5713 17.4651 15.5713Z" fill="black" fill-opacity="0.85"/>
</g>
<defs>
<clipPath id="clip0_2207_20863">
<rect width="27.6328" height="21.0586" fill="white" transform="translate(0.0861816 0.102539)"/>
</clipPath>
</defs>
</svg>
