<svg width="28" height="22" viewBox="0 0 28 22" fill="none" xmlns="http://www.w3.org/2000/svg">
<g clip-path="url(#clip0_2207_20868)">
<path d="M9.32251 21.1377H18.4865C25.2834 21.1377 27.7209 18.6181 27.7209 12.3486V8.90332C27.7209 2.63379 25.2834 0.102539 18.4865 0.102539H9.32251C2.52563 0.102539 0.0881348 2.63379 0.0881348 8.90332V12.3486C0.0881348 18.6181 2.52563 21.1377 9.32251 21.1377Z" fill="black" fill-opacity="0.85"/>
<path d="M8.27955 15.6298C7.70533 15.6298 7.38892 15.29 7.38892 14.7158V6.65332C7.38892 6.05566 7.7522 5.71582 8.26783 5.71582H10.5412C12.3225 5.71582 13.3537 7.16895 13.3537 9.00879C13.3537 10.872 12.2873 12.2783 10.4475 12.2783H9.17017V14.7158C9.17017 15.2783 8.86548 15.6298 8.27955 15.6298ZM9.17017 10.872H10.0842C11.1506 10.872 11.5959 10.0869 11.5959 9.00879C11.5959 7.87207 11.1037 7.14551 10.0959 7.14551H9.17017V10.872ZM17.5725 15.7236C16.2717 15.7236 15.0412 15.1025 14.7014 13.9775C14.6428 13.7783 14.5959 13.5673 14.5959 13.3447C14.5959 12.8759 14.9123 12.583 15.3928 12.583C15.7795 12.583 16.049 12.7822 16.1545 13.1806C16.3186 13.7314 16.6936 14.3173 17.5725 14.3173C18.4748 14.3173 18.9201 13.6025 18.9201 12.7705C18.9201 11.7275 18.3459 11.165 17.3264 11.165H17.0217C16.6233 11.165 16.3537 10.9306 16.3537 10.5322C16.3537 10.1337 16.6115 9.87598 17.0217 9.87598H17.3147C18.217 9.87598 18.6975 9.23145 18.6975 8.35254C18.6975 7.55566 18.3225 6.94629 17.5256 6.94629C16.8576 6.94629 16.4709 7.3916 16.2717 8.10645C16.1545 8.52832 15.9084 8.68066 15.4983 8.68066C15.0295 8.68066 14.76 8.36426 14.76 7.96582C14.76 7.75488 14.7834 7.54395 14.842 7.30957C15.1936 6.24316 16.2717 5.54004 17.5256 5.54004C19.1076 5.54004 20.3498 6.48926 20.3498 8.16504C20.3498 9.17285 19.8225 10.1572 18.7326 10.4502V10.4853C19.7404 10.5908 20.6428 11.3291 20.6428 12.8291C20.6428 14.6337 19.3069 15.7236 17.5725 15.7236Z" fill="white"/>
</g>
<defs>
<clipPath id="clip0_2207_20868">
<rect width="27.6328" height="21.0586" fill="white" transform="translate(0.0881348 0.102539)"/>
</clipPath>
</defs>
</svg>
