<svg width="28" height="22" viewBox="0 0 28 22" fill="none" xmlns="http://www.w3.org/2000/svg">
<g clip-path="url(#clip0_2207_20873)">
<path d="M9.32471 21.1377H18.4887C25.2856 21.1377 27.7231 18.6181 27.7231 12.3486V8.90332C27.7231 2.63379 25.2856 0.102539 18.4887 0.102539H9.32471C2.52783 0.102539 0.090332 2.63379 0.090332 8.90332V12.3486C0.090332 18.6181 2.52783 21.1377 9.32471 21.1377ZM9.32471 19.2509C3.79345 19.2509 1.97705 17.458 1.97705 12.3486V8.90332C1.97705 3.79395 3.79345 1.98926 9.32471 1.98926H18.4887C24.02 1.98926 25.8364 3.79395 25.8364 8.90332V12.3486C25.8364 17.458 24.02 19.2509 18.4887 19.2509H9.32471Z" fill="black" fill-opacity="0.85"/>
<path d="M8.55127 15.4775C9.10205 15.4775 9.39502 15.1377 9.39502 14.5986V12.2197H10.6372C12.4184 12.2197 13.4614 10.8603 13.4614 9.05566C13.4614 7.27442 12.4536 5.86816 10.7309 5.86816H8.53955C8.04736 5.86816 7.68408 6.19629 7.68408 6.77051V14.5986C7.68408 15.1494 8.00049 15.4775 8.55127 15.4775ZM9.39502 10.872V7.25098H10.3091C11.2934 7.25098 11.7622 7.9541 11.7622 9.05566C11.7622 10.0986 11.3403 10.872 10.2973 10.872H9.39502ZM18.7934 15.5127C19.2387 15.5127 19.5903 15.2431 19.5903 14.6806V13.5087H20.0122C20.4692 13.5087 20.6801 13.2158 20.6801 12.8173C20.6801 12.4423 20.4809 12.1494 20.0122 12.1494H19.5903V7.00488C19.5903 6.19629 19.063 5.73926 18.3012 5.73926C17.4692 5.73926 17.0825 6.16113 16.7544 6.8877L14.6684 11.4345C14.4692 11.8916 14.3989 12.1963 14.3989 12.5595C14.3989 13.122 14.7856 13.5087 15.3598 13.5087H17.9848V14.6806C17.9848 15.3017 18.4184 15.5127 18.7934 15.5127ZM18.02 12.1845H15.8403V12.1025L17.9731 7.21582H18.02V12.1845Z" fill="black" fill-opacity="0.85"/>
</g>
<defs>
<clipPath id="clip0_2207_20873">
<rect width="27.6328" height="21.0586" fill="white" transform="translate(0.090332 0.102539)"/>
</clipPath>
</defs>
</svg>
