<svg width="28" height="22" viewBox="0 0 28 22" fill="none" xmlns="http://www.w3.org/2000/svg">
<g clip-path="url(#clip0_2207_20878)">
<path d="M9.32666 21.1377H18.4907C25.2876 21.1377 27.7251 18.6181 27.7251 12.3486V8.90332C27.7251 2.63379 25.2876 0.102539 18.4907 0.102539H9.32666C2.52979 0.102539 0.0922852 2.63379 0.0922852 8.90332V12.3486C0.0922852 18.6181 2.52979 21.1377 9.32666 21.1377Z" fill="black" fill-opacity="0.85"/>
<path d="M8.37745 15.6298C7.80323 15.6298 7.4751 15.29 7.4751 14.7158V6.65331C7.4751 6.05565 7.8501 5.71581 8.36573 5.71581H10.6275C12.397 5.71581 13.44 7.16894 13.44 9.00878C13.44 10.872 12.3618 12.2783 10.522 12.2783H9.24463V14.7158C9.24463 15.2783 8.93995 15.6298 8.37745 15.6298ZM9.24463 10.872H10.1704C11.2485 10.872 11.6821 10.0869 11.6821 9.00878C11.6821 7.87206 11.2017 7.1455 10.1821 7.1455H9.24463V10.872ZM18.9478 15.665C18.5611 15.665 18.104 15.4423 18.104 14.7978V13.6025H15.4087C14.8111 13.6025 14.4126 13.2041 14.4126 12.6181C14.4126 12.2431 14.4829 11.9267 14.6821 11.458L16.8267 6.7705C17.1665 6.0205 17.5767 5.58691 18.4321 5.58691C19.229 5.58691 19.7681 6.05565 19.7681 6.89941V12.1963H20.2017C20.6821 12.1963 20.8931 12.5009 20.8931 12.8877C20.8931 13.2978 20.6704 13.6025 20.2017 13.6025H19.7681V14.7978C19.7681 15.3837 19.4048 15.665 18.9478 15.665ZM18.1392 12.2314V7.11034H18.0923L15.9009 12.1494V12.2314H18.1392Z" fill="white"/>
</g>
<defs>
<clipPath id="clip0_2207_20878">
<rect width="27.6328" height="21.0586" fill="white" transform="translate(0.0922852 0.102539)"/>
</clipPath>
</defs>
</svg>
