<svg width="18" height="32" viewBox="0 0 18 32" fill="none" xmlns="http://www.w3.org/2000/svg">
<g clip-path="url(#clip0_2207_20659)">
<path d="M0.0944824 18.2027C0.0944824 22.5152 0.973388 25.9019 3.02417 29.2887C4.1726 31.1402 6.11792 31.691 8.12182 30.7183L10.4422 29.5933C12.5398 28.5855 13.5359 27.2496 13.5359 25.4215C13.5359 24.6012 13.2429 23.9683 13.2429 23.4293C13.2429 22.7965 13.6765 22.4097 14.4265 22.4097H16.6062C17.3445 22.4097 17.8836 21.8004 17.8836 21.0035V18.191C17.8836 17.3004 17.2625 16.6558 16.4187 16.6558H13.5359C12.4109 16.6558 11.8718 16.0113 11.8718 14.9449C11.8718 12.3316 12.3406 9.2965 14.1804 5.11291C15.0593 3.109 14.4383 1.65588 12.3289 0.823846L11.1804 0.378534C9.39917 -0.324591 7.86401 0.41369 6.82104 1.49182C2.01636 6.5426 0.0944824 13.316 0.0944824 18.2027ZM1.9812 18.2027C1.9812 13.7262 3.63354 7.55041 8.25073 2.71057C8.93042 2.01916 9.43432 1.73791 10.6179 2.18322L11.7898 2.62853C12.5984 2.93322 12.8211 3.5426 12.4461 4.36291C10.3836 8.96838 9.96167 12.3551 9.96167 14.2769C9.96167 19.5621 11.7547 23.5465 11.7547 25.0933C11.7547 26.441 11.2742 27.109 9.56323 27.9644L7.45386 29.0308C6.32886 29.5933 5.27417 29.3121 4.64136 28.3043C2.7312 25.1519 1.9812 22.2808 1.9812 18.2027Z" fill="black" fill-opacity="0.85"/>
</g>
<defs>
<clipPath id="clip0_2207_20659">
<rect width="17.7891" height="31.1731" fill="white" transform="translate(0.0944824 0.102539)"/>
</clipPath>
</defs>
</svg>
