<svg width="18" height="32" viewBox="0 0 18 32" fill="none" xmlns="http://www.w3.org/2000/svg">
<g clip-path="url(#clip0_2207_20667)">
<path d="M17.8877 18.2027C17.8877 13.316 15.9658 6.5426 11.1494 1.49182C10.1181 0.41369 8.58301 -0.324591 6.79004 0.378534L5.65332 0.823846C3.53222 1.65588 2.92285 3.109 3.79004 5.11291C5.6416 9.2965 6.09863 12.3316 6.09863 14.9449C6.09863 16.0113 5.55957 16.6558 4.44629 16.6558H1.56347C0.719727 16.6558 0.0986328 17.3004 0.0986328 18.191V21.0035C0.0986328 21.8004 0.637695 22.4097 1.37597 22.4097H3.55566C4.30566 22.4097 4.73925 22.7965 4.73925 23.4293C4.73925 23.9683 4.44629 24.6012 4.44629 25.4215C4.44629 27.2496 5.44238 28.5855 7.52832 29.5933L9.86035 30.7183C11.8642 31.691 13.8095 31.1402 14.9463 29.2887C17.0088 25.9019 17.8877 22.5152 17.8877 18.2027ZM16.0009 18.2027C16.0009 22.2808 15.2509 25.1519 13.3408 28.3043C12.708 29.3121 11.6533 29.5933 10.5166 29.0308L8.41894 27.9644C6.70801 27.109 6.22754 26.441 6.22754 25.0933C6.22754 23.5465 8.00879 19.5621 8.00879 14.2769C8.00879 12.3551 7.59863 8.96838 5.53613 4.36291C5.16113 3.5426 5.37207 2.93322 6.19238 2.62853L7.35254 2.18322C8.54785 1.73791 9.04004 2.01916 9.73144 2.71057C14.3486 7.55041 16.0009 13.7262 16.0009 18.2027Z" fill="black" fill-opacity="0.85"/>
</g>
<defs>
<clipPath id="clip0_2207_20667">
<rect width="17.7891" height="31.1731" fill="white" transform="translate(0.0986328 0.102539)"/>
</clipPath>
</defs>
</svg>
