<svg width="25" height="28" viewBox="0 0 25 28" fill="none" xmlns="http://www.w3.org/2000/svg">
<g clip-path="url(#clip0_2207_10441)">
<path d="M1.48031 26.5133C3.43734 28.4704 5.7225 28.4938 7.64437 26.5719C9.06234 25.154 10.5506 21.8141 11.6522 20.5016L14.1483 23.0094C15.0623 23.9352 16.1639 23.9352 17.0545 23.0446L18.5662 21.5211C19.4569 20.6188 19.4569 19.5524 18.5311 18.6266L9.37875 9.46254C8.45297 8.53676 7.37484 8.52504 6.4725 9.42738L4.96078 10.9508C4.07015 11.8415 4.05844 12.9313 4.98422 13.8571L7.49203 16.3532C6.19125 17.4547 2.8514 18.9313 1.43344 20.3493C-0.488443 22.2711 -0.476724 24.568 1.48031 26.5133ZM6.58969 11.9938L7.5389 11.068C7.84359 10.7633 8.17172 10.7516 8.4764 11.0563L16.9491 19.5172C17.242 19.8219 17.242 20.15 16.9256 20.4665L16.0116 21.3922C15.7069 21.7204 15.3553 21.7321 15.0506 21.404L12.2498 18.5915C11.8162 18.1579 11.2537 18.2047 10.7616 18.6852C9.8475 19.5875 8.24203 23.443 6.37875 25.2946C5.25375 26.4313 3.89437 26.4313 2.7225 25.2711C1.57406 24.111 1.56234 22.7399 2.69906 21.6149C4.56234 19.7633 8.41781 18.1579 9.32015 17.2438C9.7889 16.7399 9.8475 16.1774 9.4139 15.7555L6.58969 12.943C6.285 12.6383 6.285 12.2985 6.58969 11.9938ZM4.51547 24.9547C5.31234 24.9547 5.95687 24.2985 5.95687 23.5016C5.95687 22.7047 5.31234 22.0602 4.51547 22.0602C3.71859 22.0602 3.06234 22.7047 3.06234 23.5016C3.06234 24.2985 3.71859 24.9547 4.51547 24.9547ZM18.4022 19.7868L23.9686 14.2204C25.2694 12.9196 25.2459 11.361 23.91 10.025L14.7108 0.814107C13.4803 -0.416362 11.3475 0.0641069 10.9139 1.97427C9.82406 6.70864 9.77719 7.27113 7.98422 9.77895L9.33187 11.1266C11.3827 8.44301 11.535 7.13052 12.66 2.94692C12.8123 2.34927 13.3045 2.19692 13.703 2.58364L22.4803 11.3493C23.0194 11.8883 23.0194 12.5446 22.5155 13.0485L17.0897 18.4743L18.4022 19.7868ZM16.5506 13.1071C17.1717 13.7282 20.5936 11.8297 21.7772 10.3415L19.1991 7.77504C18.9764 9.84927 17.8983 11.3493 16.5858 12.6618C16.4334 12.8141 16.4452 13.0016 16.5506 13.1071Z" fill="black" fill-opacity="0.85"/>
</g>
<defs>
<clipPath id="clip0_2207_10441">
<rect width="24.9261" height="27.8939" fill="white" transform="translate(0.00219727 0.103516)"/>
</clipPath>
</defs>
</svg>
