<svg width="29" height="24" viewBox="0 0 29 24" fill="none" xmlns="http://www.w3.org/2000/svg">
<g clip-path="url(#clip0_2207_21181)">
<path d="M15.1768 23.5762C20.1104 23.5762 23.4033 21.8301 23.4033 19.2519C23.4033 16.9433 21.4346 16.4277 21.4346 15.0683C21.4346 13.1933 28.2432 12.8183 28.2432 8.00196C28.2432 3.24414 23.333 0.103516 16.0439 0.103516C6.46973 0.103516 0.0126953 4.88477 0.0126953 12.0449C0.0126953 18.9355 6.14161 23.5762 15.1768 23.5762ZM14.9189 19.0996C13.208 19.0996 11.8018 17.7051 11.8018 15.9824C11.8018 14.2715 13.208 12.8652 14.9189 12.8652C16.6416 12.8652 18.0479 14.2715 18.0479 15.9824C18.0479 17.7051 16.6416 19.0996 14.9189 19.0996Z" fill="black" fill-opacity="0.85"/>
<path d="M5.55566 13.4746C4.48925 13.4746 3.59863 12.584 3.59863 11.5058C3.59863 10.4746 4.52441 9.57227 5.55566 9.57227C6.63378 9.57227 7.50097 10.4277 7.50097 11.5058C7.50097 12.584 6.63378 13.4746 5.55566 13.4746Z" fill="white"/>
<path d="M10.0557 9.32617C8.67286 9.32617 7.57129 8.24804 7.57129 6.86523C7.57129 5.51757 8.67286 4.43945 10.0557 4.43945C11.3916 4.43945 12.5049 5.51757 12.5049 6.86523C12.5049 8.24804 11.4033 9.32617 10.0557 9.32617Z" fill="white"/>
<path d="M16.3018 7.47461C15.2236 7.47461 14.3096 6.59571 14.3096 5.50586C14.3096 4.41602 15.2236 3.53711 16.3018 3.53711C17.4033 3.53711 18.2705 4.41602 18.2705 5.50586C18.2705 6.59571 17.4033 7.47461 16.3018 7.47461Z" fill="white"/>
<path d="M21.8213 8.50586C20.9307 8.50586 20.2041 7.80274 20.2041 6.91211C20.2041 6.03321 20.9307 5.30664 21.8213 5.30664C22.7002 5.30664 23.4033 6.03321 23.4033 6.91211C23.4033 7.80274 22.7002 8.50586 21.8213 8.50586Z" fill="white"/>
</g>
<defs>
<clipPath id="clip0_2207_21181">
<rect width="28.2305" height="23.707" fill="white" transform="translate(0.0126953 0.103516)"/>
</clipPath>
</defs>
</svg>
