<svg width="24" height="25" viewBox="0 0 24 25" fill="none" xmlns="http://www.w3.org/2000/svg">
<g clip-path="url(#clip0_2207_1737)">
<path d="M11.9804 24.0097C18.5195 24.0097 23.9335 18.584 23.9335 12.0566C23.9335 5.51758 18.5078 0.103516 11.9687 0.103516C5.4414 0.103516 0.0273438 5.51758 0.0273438 12.0566C0.0273438 18.584 5.45312 24.0097 11.9804 24.0097ZM11.9804 22.0176C6.44922 22.0176 2.03125 17.5879 2.03125 12.0566C2.03125 6.5254 6.4375 2.09571 11.9687 2.09571C17.5 2.09571 21.9414 6.5254 21.9414 12.0566C21.9414 17.5879 17.5117 22.0176 11.9804 22.0176Z" fill="black" fill-opacity="0.85"/>
<path d="M6.78907 17.9511C8.45313 19.58 10.7265 19.5214 12.332 17.9276L17.125 13.1464C17.3593 12.912 17.3828 12.455 17.125 12.2206C16.8789 11.9745 16.4335 11.9745 16.1875 12.2323L11.4531 16.955C10.3632 18.0565 8.81641 18.0565 7.76173 17.0136C6.67188 15.9472 6.70704 14.412 7.79688 13.2987L14.2539 6.84171C14.9453 6.15031 15.9179 6.11515 16.539 6.72452C17.1718 7.35734 17.1132 8.29484 16.4101 8.99796L10.1054 15.3026C9.89454 15.537 9.63673 15.5253 9.42579 15.3378C9.20313 15.1503 9.21485 14.8573 9.43751 14.6464L13.8437 10.2401C14.1132 9.97062 14.1367 9.59562 13.8671 9.33781C13.5976 9.06827 13.2226 9.07999 12.9531 9.34952L8.54688 13.7675C7.83204 14.4823 7.79688 15.5956 8.47657 16.287C9.16797 16.9901 10.2343 16.9667 10.9726 16.2284L17.3125 9.88859C18.5546 8.6464 18.6015 6.9589 17.4414 5.79874C16.2578 4.63859 14.5703 4.66202 13.3281 5.90421L6.82423 12.3964C5.21876 14.0018 5.21876 16.4042 6.78907 17.9511Z" fill="black" fill-opacity="0.85"/>
</g>
<defs>
<clipPath id="clip0_2207_1737">
<rect width="23.9062" height="23.918" fill="white" transform="translate(0.0273438 0.103516)"/>
</clipPath>
</defs>
</svg>
