<svg width="25" height="26" viewBox="0 0 25 26" fill="none" xmlns="http://www.w3.org/2000/svg">
<g clip-path="url(#clip0_2207_468)">
<path d="M14.7097 25.7793C15.5534 25.7793 16.1511 25.0527 16.5847 23.9277L24.2605 3.87696C24.4714 3.3379 24.5886 2.85743 24.5886 2.45899C24.5886 1.69727 24.1198 1.22852 23.3581 1.22852C22.9597 1.22852 22.4792 1.34571 21.9401 1.55664L1.78393 9.2793C0.799561 9.6543 0.0378418 10.2519 0.0378418 11.1074C0.0378418 12.1855 0.858154 12.5488 1.98315 12.8887L8.31128 14.8105C9.06128 15.0449 9.48315 15.0215 9.98706 14.5527L22.8425 2.54102C22.9948 2.4004 23.1706 2.42383 23.2878 2.5293C23.405 2.64649 23.4167 2.82227 23.2761 2.97461L11.3112 15.8769C10.8542 16.3574 10.819 16.7558 11.0417 17.541L12.905 23.7285C13.2566 24.9121 13.6198 25.7793 14.7097 25.7793Z" fill="black" fill-opacity="0.85"/>
</g>
<defs>
<clipPath id="clip0_2207_468">
<rect width="24.5508" height="25.6758" fill="white" transform="translate(0.0378418 0.103516)"/>
</clipPath>
</defs>
</svg>
