<svg width="24" height="25" viewBox="0 0 24 25" fill="none" xmlns="http://www.w3.org/2000/svg">
<g clip-path="url(#clip0_2207_472)">
<path d="M11.9867 24.0097C18.5258 24.0097 23.9398 18.584 23.9398 12.0566C23.9398 5.51758 18.5141 0.103516 11.975 0.103516C5.44763 0.103516 0.0335693 5.51758 0.0335693 12.0566C0.0335693 18.584 5.45935 24.0097 11.9867 24.0097ZM11.9867 22.0176C6.45545 22.0176 2.03748 17.5879 2.03748 12.0566C2.03748 6.5254 6.44373 2.09571 11.975 2.09571C17.5063 2.09571 21.9477 6.5254 21.9477 12.0566C21.9477 17.5879 17.518 22.0176 11.9867 22.0176Z" fill="black" fill-opacity="0.85"/>
<path d="M12.2094 19.4629C12.6781 19.4629 13.018 19.0644 13.2524 18.4433L17.5414 7.22851C17.6586 6.92382 17.7172 6.66601 17.7172 6.44335C17.7172 6.02148 17.4711 5.77539 17.0492 5.77539C16.8266 5.77539 16.5688 5.83398 16.2641 5.95117L4.9906 10.2637C4.45154 10.4629 4.02966 10.8027 4.02966 11.2715C4.02966 11.8691 4.47498 12.0683 5.10779 12.2676L8.65857 13.334C9.08045 13.4746 9.31482 13.4629 9.59607 13.2051L16.7563 6.49023C16.8383 6.4082 16.932 6.43163 17.0024 6.49023C17.0844 6.54882 17.0844 6.65429 17.0024 6.73632L10.3227 13.9316C10.0648 14.2012 10.0414 14.4121 10.1586 14.8574L11.2133 18.3144C11.4242 18.9824 11.6 19.4629 12.2094 19.4629Z" fill="black" fill-opacity="0.85"/>
</g>
<defs>
<clipPath id="clip0_2207_472">
<rect width="23.9062" height="23.918" fill="white" transform="translate(0.0335693 0.103516)"/>
</clipPath>
</defs>
</svg>
