<svg width="19" height="23" viewBox="0 0 19 23" fill="none" xmlns="http://www.w3.org/2000/svg">
<g clip-path="url(#clip0_2207_22597)">
<path d="M0.039917 6.23243C0.039917 9.75977 2.5243 12.0918 6.29773 12.0918H8.19617V21.1621C8.19617 21.8183 8.60633 22.2402 9.2743 22.2402C9.93054 22.2402 10.3641 21.8183 10.3641 21.1621V2.55274H12.9071V21.1621C12.9071 21.8183 13.3172 22.2402 13.9735 22.2402C14.6415 22.2402 15.0751 21.8183 15.0751 21.1621V2.55274H17.0555C17.7235 2.55274 18.1454 2.10743 18.1454 1.45118C18.1454 0.794922 17.7235 0.384766 17.0555 0.384766H6.23914C2.50086 0.384766 0.039917 2.70508 0.039917 6.23243Z" fill="black" fill-opacity="0.85"/>
</g>
<defs>
<clipPath id="clip0_2207_22597">
<rect width="18.1055" height="22.1367" fill="white" transform="translate(0.039917 0.103516)"/>
</clipPath>
</defs>
</svg>
