<svg width="18" height="27" viewBox="0 0 18 27" fill="none" xmlns="http://www.w3.org/2000/svg">
<g clip-path="url(#clip0_2207_23002)">
<path d="M4.96387 26.0371C5.38574 26.0371 5.72558 25.7441 5.72558 25.3691C5.72558 25.123 5.64355 24.9004 5.45605 24.6074C3.42871 21.2324 2.33887 17.0371 2.33887 13.0762C2.33887 9.11524 3.42871 4.91993 5.45605 1.54493C5.64355 1.24024 5.72558 1.0293 5.72558 0.783204C5.72558 0.408204 5.38574 0.103516 4.96387 0.103516C4.54199 0.103516 4.2373 0.34961 3.8623 0.91211C1.34277 4.49805 0.0419922 8.85743 0.0419922 13.0762C0.0419922 17.2949 1.34277 21.6543 3.8623 25.2285C4.2373 25.8027 4.54199 26.0371 4.96387 26.0371ZM12.5693 26.0371C12.9912 26.0371 13.2842 25.8027 13.6709 25.2285C16.1904 21.6543 17.4912 17.2949 17.4912 13.0762C17.4912 8.85743 16.1904 4.49805 13.6709 0.91211C13.2842 0.34961 12.9912 0.103516 12.5693 0.103516C12.1475 0.103516 11.8076 0.408204 11.8076 0.783204C11.8076 1.0293 11.8897 1.24024 12.0772 1.54493C14.1045 4.91993 15.1943 9.11524 15.1943 13.0762C15.1943 17.0371 14.1045 21.2324 12.0772 24.6074C11.8897 24.9004 11.8076 25.123 11.8076 25.3691C11.8076 25.7441 12.1475 26.0371 12.5693 26.0371Z" fill="black" fill-opacity="0.85"/>
</g>
<defs>
<clipPath id="clip0_2207_23002">
<rect width="17.4492" height="25.957" fill="white" transform="translate(0.0419922 0.103516)"/>
</clipPath>
</defs>
</svg>
