<svg width="24" height="25" viewBox="0 0 24 25" fill="none" xmlns="http://www.w3.org/2000/svg">
<g clip-path="url(#clip0_2207_15494)">
<path d="M12.0097 24.0097C18.5488 24.0097 23.9628 18.584 23.9628 12.0566C23.9628 5.51758 18.5371 0.103516 11.998 0.103516C5.4707 0.103516 0.0566406 5.51758 0.0566406 12.0566C0.0566406 18.584 5.48242 24.0097 12.0097 24.0097Z" fill="black" fill-opacity="0.85"/>
<path d="M9.41992 17.5996C8.79883 17.5996 8.45898 17.1426 8.45898 16.498V7.53321C8.45898 6.87696 8.78711 6.43164 9.4082 6.43164H12.7832C15.1269 6.43164 16.7207 7.93164 16.7207 10.1582C16.7207 12.3847 15.1386 13.8613 12.7714 13.8613H10.4043V16.498C10.4043 17.166 10.0644 17.5996 9.41992 17.5996ZM10.4043 12.3847H12.5136C13.9316 12.3847 14.7988 11.5293 14.7988 10.1582C14.7988 8.7754 13.9199 7.91993 12.5136 7.91993H10.4043V12.3847Z" fill="white"/>
</g>
<defs>
<clipPath id="clip0_2207_15494">
<rect width="23.9062" height="23.918" fill="white" transform="translate(0.0566406 0.103516)"/>
</clipPath>
</defs>
</svg>
