<svg width="36" height="25" viewBox="0 0 36 25" fill="none" xmlns="http://www.w3.org/2000/svg">
<g clip-path="url(#clip0_2207_15505)">
<path d="M25.2563 22.4341H34.8657L32.2524 9.91846C32.0649 8.96924 31.5258 8.52393 30.6352 8.52393H29.4633C28.561 8.52393 28.0219 8.96924 27.8227 9.91846L25.2563 22.4341ZM25.104 23.6059H34.9829C35.4751 23.6059 35.8735 23.2075 35.8735 22.7153C35.8735 22.2231 35.4751 21.8364 34.9829 21.8364H25.104C24.6118 21.8364 24.2251 22.2231 24.2251 22.7153C24.2251 23.2075 24.6118 23.6059 25.104 23.6059Z" fill="black" fill-opacity="0.85"/>
<path d="M20.604 16.4575C20.9907 16.8911 21.6352 16.8911 22.0922 16.3989C24.0376 14.2895 25.1391 11.477 25.1391 8.44191C25.1391 5.40675 24.0376 2.59425 22.0922 0.48487C21.6352 -0.00731835 20.9907 -0.0190364 20.604 0.426276C20.229 0.848151 20.3462 1.39894 20.768 1.87941C22.3501 3.6255 23.229 5.92237 23.229 8.44191C23.229 10.9614 22.3501 13.2583 20.768 15.0044C20.3462 15.4849 20.229 16.0356 20.604 16.4575Z" fill="black" fill-opacity="0.85"/>
<path d="M17.3227 13.1176C17.7094 13.5512 18.4126 13.5629 18.8344 13.0355C19.854 11.7699 20.4399 10.1644 20.4399 8.44182C20.4399 6.71916 19.854 5.11369 18.8344 3.84807C18.4126 3.32072 17.7094 3.32072 17.3227 3.76603C16.9477 4.18791 17.1118 4.71525 17.4751 5.21916C18.1782 6.08635 18.5298 7.22307 18.5298 8.44182C18.5298 9.66057 18.1782 10.7855 17.4751 11.6644C17.1118 12.1683 16.9477 12.6957 17.3227 13.1176Z" fill="black" fill-opacity="0.85"/>
<path d="M1.50245 23.6059C2.38135 23.6059 2.95557 23.0083 2.95557 22.1177V15.4966H7.73681C11.9672 15.4966 14.9087 12.5903 14.9087 8.4419C14.9087 4.27002 11.979 1.39893 7.74854 1.39893H1.50245C0.635254 1.39893 0.0610352 1.98486 0.0610352 2.88721V22.1177C0.0610352 23.02 0.635254 23.6059 1.50245 23.6059ZM2.95557 12.8247V4.04736H7.20948C10.2212 4.04736 11.9555 5.64111 11.9555 8.4419C11.9555 11.2192 10.2212 12.8247 7.20948 12.8247H2.95557Z" fill="black" fill-opacity="0.85"/>
</g>
<defs>
<clipPath id="clip0_2207_15505">
<rect width="35.8125" height="24.7276" fill="white" transform="translate(0.0610352 0.103516)"/>
</clipPath>
</defs>
</svg>
