<svg width="34" height="23" viewBox="0 0 34 23" fill="none" xmlns="http://www.w3.org/2000/svg">
<g clip-path="url(#clip0_2207_15970)">
<path d="M0.050415 11.5294C0.050415 15.2442 1.25744 18.6544 3.2965 21.4317C3.6598 21.9356 4.28089 21.9825 4.74964 21.6075C5.1715 21.2442 5.2301 20.6817 4.89025 20.213C3.109 17.7872 2.05433 14.7755 2.05433 11.5294C2.05433 8.27157 3.109 5.27156 4.89025 2.82234C5.2301 2.37703 5.18323 1.80281 4.74964 1.43953C4.28089 1.06453 3.6598 1.12312 3.2965 1.61531C1.25744 4.39265 0.050415 7.81454 0.050415 11.5294ZM33.4957 11.5294C33.4957 7.81454 32.3004 4.39265 30.2496 1.61531C29.8863 1.12312 29.2652 1.06453 28.7965 1.43953C28.3629 1.80281 28.3277 2.37703 28.6559 2.82234C30.4488 5.27156 31.4918 8.27157 31.4918 11.5294C31.4918 14.7755 30.4488 17.7872 28.6559 20.213C28.3277 20.6817 28.3746 21.2442 28.7965 21.6075C29.2652 21.9825 29.8863 21.9356 30.2496 21.4317C32.3004 18.6544 33.4957 15.2442 33.4957 11.5294Z" fill="black" fill-opacity="0.85"/>
<path d="M16.7731 22.9551C23.0192 22.9551 28.2106 17.7754 28.2106 11.5293C28.2106 5.28321 23.0192 0.103516 16.7613 0.103516C10.5152 0.103516 5.34729 5.27149 5.34729 11.5293C5.34729 17.7754 10.527 22.9551 16.7731 22.9551ZM16.7731 20.9629C11.5465 20.9629 7.35119 16.7676 7.35119 11.5293C7.35119 6.2793 11.5348 2.08399 16.7613 2.08399C21.9996 2.08399 26.2066 6.2793 26.2184 11.5293C26.2301 16.7558 22.0231 20.9629 16.7731 20.9629Z" fill="black" fill-opacity="0.85"/>
<path d="M14.3942 16.8965C15.0035 16.8965 15.3434 16.4863 15.3434 15.8418V13.2754H17.652C19.9371 13.2754 21.4723 11.8457 21.4723 9.68946C21.4723 7.53321 19.9254 6.08008 17.6637 6.08008H14.3824C13.7848 6.08008 13.4684 6.50196 13.4684 7.13477V15.8418C13.4684 16.4629 13.7965 16.8965 14.3942 16.8965ZM15.3434 11.8457V7.50977H17.3824C18.7652 7.50977 19.6207 8.3418 19.6207 9.68946C19.6207 11.0137 18.7652 11.8457 17.3824 11.8457H15.3434Z" fill="black" fill-opacity="0.85"/>
</g>
<defs>
<clipPath id="clip0_2207_15970">
<rect width="33.4453" height="22.8633" fill="white" transform="translate(0.050415 0.103516)"/>
</clipPath>
</defs>
</svg>
