<svg width="38" height="17" viewBox="0 0 38 17" fill="none" xmlns="http://www.w3.org/2000/svg">
<g clip-path="url(#clip0_2207_15732)">
<path d="M17.718 8.3848C17.718 5.0098 14.1203 1.76371 10.4875 1.76371H10.1359C8.43676 1.76371 7.66333 2.40824 7.21802 4.11918C6.93676 5.30277 6.78442 6.62699 6.78442 8.3848C6.78442 10.1309 6.93676 11.4551 7.21802 12.6621C7.66333 14.3613 8.43676 14.9942 10.1359 14.9942H10.4875C14.1203 14.9942 17.718 11.7598 17.718 8.3848ZM19.4992 8.3848C19.4992 11.7598 23.0969 14.9942 26.7414 14.9942H27.0813C28.7922 14.9942 29.5656 14.3613 30.0109 12.6621C30.2805 11.4551 30.4328 10.1309 30.4328 8.3848C30.4328 6.62699 30.2805 5.30277 30.0109 4.11918C29.5656 2.40824 28.7922 1.76371 27.0813 1.76371H26.7414C23.0969 1.76371 19.4992 5.0098 19.4992 8.3848ZM3.93676 3.43949C4.37036 3.6973 4.88598 3.56839 5.1438 3.11136C5.40161 2.70121 5.26098 2.16214 4.82739 1.91605L1.8977 0.228546C1.47583 -0.0292665 0.960205 0.123077 0.714112 0.580108C0.456299 0.990264 0.585205 1.50589 1.03052 1.75199L3.93676 3.43949ZM4.28833 7.49418H0.913331C0.409424 7.49418 0.0461426 7.86918 0.0461426 8.37308C0.0461426 8.87699 0.409424 9.25199 0.913331 9.25199H4.28833C4.79223 9.25199 5.16723 8.87699 5.16723 8.37308C5.16723 7.86918 4.79223 7.49418 4.28833 7.49418ZM3.93676 13.3067L1.03052 14.9942C0.585205 15.252 0.456299 15.7559 0.714112 16.1777C0.960205 16.6231 1.47583 16.7754 1.8977 16.5293L4.82739 14.8418C5.26098 14.584 5.40161 14.0567 5.1438 13.6348C4.88598 13.1895 4.37036 13.0606 3.93676 13.3067ZM33.2805 3.43949L36.1984 1.75199C36.632 1.50589 36.7609 0.990264 36.5149 0.580108C36.257 0.123077 35.7531 -0.0292665 35.3195 0.228546L32.3899 1.91605C31.968 2.16214 31.8273 2.70121 32.0852 3.11136C32.3313 3.56839 32.8469 3.6973 33.2805 3.43949ZM32.9406 7.49418C32.4367 7.49418 32.05 7.86918 32.05 8.37308C32.05 8.87699 32.4367 9.25199 32.9406 9.25199H36.3039C36.8078 9.25199 37.1711 8.87699 37.1711 8.37308C37.1711 7.86918 36.8078 7.49418 36.3039 7.49418H32.9406ZM33.2805 13.3067C32.8469 13.0606 32.3313 13.1895 32.0852 13.6348C31.8273 14.0567 31.968 14.584 32.3899 14.8418L35.3195 16.5293C35.7531 16.7754 36.257 16.6231 36.5149 16.1777C36.7609 15.7559 36.632 15.252 36.1984 14.9942L33.2805 13.3067Z" fill="black" fill-opacity="0.85"/>
</g>
<defs>
<clipPath id="clip0_2207_15732">
<rect width="37.125" height="16.5743" fill="white" transform="translate(0.0461426 0.103516)"/>
</clipPath>
</defs>
</svg>
