<svg width="41" height="27" viewBox="0 0 41 27" fill="none" xmlns="http://www.w3.org/2000/svg">
<g clip-path="url(#clip0_2207_16343)">
<path d="M1.5044 24.3379C2.3833 24.3379 2.95752 23.7402 2.95752 22.8496V16.2285H7.73877C11.9692 16.2285 14.9107 13.3223 14.9107 9.17383C14.9107 5.00196 11.981 2.13086 7.75049 2.13086H1.5044C0.637207 2.13086 0.0629883 2.7168 0.0629883 3.61914V22.8496C0.0629883 23.7519 0.637207 24.3379 1.5044 24.3379ZM2.95752 13.5566V4.7793H7.21143C10.2232 4.7793 11.9575 6.37305 11.9575 9.17383C11.9575 11.9512 10.2232 13.5566 7.21143 13.5566H2.95752ZM28.4107 26.2949C34.9497 26.2949 40.3638 20.8808 40.3638 14.3418C40.3638 7.81446 34.938 2.38868 28.3989 2.38868C21.8716 2.38868 16.4575 7.81446 16.4575 14.3418C16.4575 20.8808 21.8833 26.2949 28.4107 26.2949ZM20.1724 8.83399C21.895 6.1504 24.9302 4.38086 28.3872 4.38086C31.8442 4.38086 34.8911 6.1504 36.6255 8.82227C37.0942 9.47852 36.8716 10.2285 36.0747 10.2285H20.7114C19.938 10.2285 19.6919 9.47852 20.1724 8.83399ZM28.3989 17.5293C26.9458 17.5293 25.7974 16.3808 25.7974 14.9277C25.7974 13.4863 26.9458 12.3379 28.3989 12.3379C29.8403 12.3379 31.0005 13.4863 31.0005 14.9277C31.0005 16.3808 29.8403 17.5293 28.3989 17.5293ZM18.8013 16.9668C18.5903 16.2402 19.0005 15.9004 19.6099 15.9824C22.9614 16.3691 25.563 19.3105 25.4575 22.7676C25.4458 23.3652 25.0005 23.7519 24.3677 23.4473C21.6021 22.2168 19.563 19.8379 18.8013 16.9668ZM37.9966 16.9668C37.2349 19.8379 35.2075 22.2168 32.4302 23.4473C31.8091 23.7519 31.3521 23.3652 31.3403 22.7676C31.2349 19.3223 33.8247 16.3691 37.188 15.9824C37.7974 15.9004 38.2075 16.2402 37.9966 16.9668Z" fill="black" fill-opacity="0.85"/>
</g>
<defs>
<clipPath id="clip0_2207_16343">
<rect width="40.3008" height="26.1914" fill="white" transform="translate(0.0629883 0.103516)"/>
</clipPath>
</defs>
</svg>
