<svg width="10" height="20" viewBox="0 0 10 20" fill="none" xmlns="http://www.w3.org/2000/svg">
<g clip-path="url(#clip0_2207_5118)">
<path d="M1.06543 19.4746C1.62793 19.4746 2.07325 19.0527 2.07325 18.5019V1.09961C2.07325 0.548828 1.62793 0.115234 1.06543 0.115234C0.514648 0.115234 0.0693359 0.548828 0.0693359 1.09961V18.5019C0.0693359 19.0527 0.514648 19.4746 1.06543 19.4746ZM8.81153 19.4746C9.36231 19.4746 9.81934 19.0527 9.81934 18.5019V1.09961C9.81934 0.548828 9.36231 0.115234 8.81153 0.115234C8.26075 0.115234 7.81543 0.548828 7.81543 1.09961V18.5019C7.81543 19.0527 8.26075 19.4746 8.81153 19.4746Z" fill="black" fill-opacity="0.85"/>
</g>
<defs>
<clipPath id="clip0_2207_5118">
<rect width="9.75" height="19.3711" fill="white" transform="translate(0.0693359 0.103516)"/>
</clipPath>
</defs>
</svg>
