<svg width="28" height="22" viewBox="0 0 28 22" fill="none" xmlns="http://www.w3.org/2000/svg">
<g clip-path="url(#clip0_2207_5136)">
<path d="M3.75733 21.6777H24.0307C26.4917 21.6777 27.7104 20.4707 27.7104 18.0566V3.73633C27.7104 1.32227 26.4917 0.103516 24.0307 0.103516H3.75733C1.30811 0.103516 0.0776367 1.32227 0.0776367 3.73633V18.0566C0.0776367 20.4707 1.30811 21.6777 3.75733 21.6777ZM3.78076 19.791C2.60889 19.791 1.96436 19.1699 1.96436 17.9512V3.8418C1.96436 2.62305 2.60889 1.99024 3.78076 1.99024H24.0073C25.1674 1.99024 25.8237 2.62305 25.8237 3.8418V17.9512C25.8237 19.1699 25.1674 19.791 24.0073 19.791H3.78076Z" fill="black" fill-opacity="0.85"/>
<path d="M10.601 15.4551H11.7495C12.3237 15.4551 12.5932 15.1387 12.5932 14.6816V7.06445C12.5932 6.61913 12.3237 6.30273 11.7495 6.30273H10.601C10.0151 6.30273 9.74561 6.61913 9.74561 7.06445V14.6816C9.74561 15.1387 10.0151 15.4551 10.601 15.4551ZM16.0737 15.4551H17.2338C17.7964 15.4551 18.0659 15.1387 18.0659 14.6816V7.06445C18.0659 6.61913 17.7964 6.30273 17.2338 6.30273H16.0737C15.4995 6.30273 15.2182 6.61913 15.2182 7.06445V14.6816C15.2182 15.1387 15.4995 15.4551 16.0737 15.4551Z" fill="black" fill-opacity="0.85"/>
</g>
<defs>
<clipPath id="clip0_2207_5136">
<rect width="27.6328" height="21.5742" fill="white" transform="translate(0.0776367 0.103516)"/>
</clipPath>
</defs>
</svg>
