<svg width="24" height="25" viewBox="0 0 24 25" fill="none" xmlns="http://www.w3.org/2000/svg">
<g clip-path="url(#clip0_2207_18211)">
<path d="M12.0393 24.0097C18.5784 24.0097 23.9924 18.584 23.9924 12.0566C23.9924 5.51758 18.5667 0.103516 12.0276 0.103516C5.50024 0.103516 0.0861816 5.51758 0.0861816 12.0566C0.0861816 18.584 5.51196 24.0097 12.0393 24.0097Z" fill="black" fill-opacity="0.85"/>
<path d="M5.58228 11.1426C5.58228 9.92382 6.22681 8.98632 7.05885 8.98632C7.87916 8.98632 8.53541 9.92382 8.53541 11.1426C8.53541 12.3496 7.87916 13.2754 7.05885 13.2754C6.22681 13.2754 5.58228 12.3496 5.58228 11.1426ZM8.55885 7.59179C8.55885 6.38476 9.2151 5.4707 10.0354 5.4707C10.8674 5.4707 11.512 6.39648 11.512 7.59179C11.512 8.79882 10.8674 9.74804 10.0354 9.74804C9.2151 9.74804 8.55885 8.79882 8.55885 7.59179ZM12.555 7.59179C12.555 6.39648 13.1995 5.4707 14.0198 5.4707C14.8518 5.4707 15.5081 6.38476 15.5081 7.59179C15.5081 8.79882 14.8518 9.74804 14.0198 9.74804C13.1995 9.74804 12.555 8.79882 12.555 7.59179ZM15.5315 11.1426C15.5315 9.92382 16.1878 8.98632 17.0081 8.98632C17.8284 8.98632 18.4729 9.92382 18.4729 11.1426C18.4729 12.3496 17.8284 13.2754 17.0081 13.2754C16.1878 13.2754 15.5315 12.3496 15.5315 11.1426ZM7.43385 15.8652C7.43385 14.8223 8.06666 14.2832 8.66431 13.7793C8.99244 13.5215 9.32057 13.2637 9.56666 12.9004C9.73072 12.6308 9.87135 12.3379 10.0237 12.0566C10.4456 11.1191 10.7971 10.2402 12.0276 10.2402C13.2698 10.2402 13.6096 11.1074 14.0432 12.0566C14.1839 12.3379 14.3245 12.6426 14.5003 12.9121C14.7464 13.2637 15.0745 13.5215 15.4026 13.7793C16.0003 14.2832 16.6331 14.8223 16.6331 15.8652C16.6331 17.1074 15.801 17.9746 14.5706 17.9746C13.9729 17.9746 13.5393 17.8223 13.1057 17.6699C12.7659 17.541 12.426 17.4473 12.0276 17.4473C11.6292 17.4473 11.301 17.541 10.9495 17.6699C10.5276 17.8223 10.094 17.9746 9.48463 17.9746C8.25416 17.9746 7.43385 17.1074 7.43385 15.8652Z" fill="white"/>
</g>
<defs>
<clipPath id="clip0_2207_18211">
<rect width="23.9062" height="23.918" fill="white" transform="translate(0.0861816 0.103516)"/>
</clipPath>
</defs>
</svg>
