<svg width="25" height="25" viewBox="0 0 25 25" fill="none" xmlns="http://www.w3.org/2000/svg">
<g clip-path="url(#clip0_2207_18202)">
<path d="M0.0881348 10.9668C0.0881348 13.2871 1.30688 15.0683 2.88891 15.0683C4.47094 15.0683 5.70141 13.2871 5.70141 10.9668C5.70141 8.65821 4.47094 6.86524 2.88891 6.86524C1.30688 6.86524 0.0881348 8.65821 0.0881348 10.9668ZM5.77172 4.20508C5.77172 6.51368 7.01391 8.29493 8.58422 8.29493C10.1779 8.29493 11.4084 6.50196 11.4084 4.20508C11.4084 1.88477 10.1779 0.103516 8.58422 0.103516C7.01391 0.103516 5.77172 1.88477 5.77172 4.20508ZM13.4358 4.20508C13.4358 6.50196 14.6545 8.29493 16.2483 8.29493C17.8186 8.29493 19.0608 6.51368 19.0608 4.20508C19.0608 1.88477 17.8186 0.103516 16.2483 0.103516C14.6545 0.103516 13.4358 1.88477 13.4358 4.20508ZM19.1311 10.9668C19.1311 13.2871 20.3615 15.0683 21.9436 15.0683C23.5256 15.0683 24.7443 13.2871 24.7443 10.9668C24.7443 8.65821 23.5256 6.86524 21.9436 6.86524C20.3615 6.86524 19.1311 8.65821 19.1311 10.9668ZM3.60375 20.0371C3.60375 22.4043 5.19752 24.0918 7.54125 24.0918C8.70142 24.0918 9.54517 23.7637 10.3537 23.4824C11.01 23.248 11.6428 23.0371 12.4162 23.0371C13.1779 23.0371 13.8108 23.248 14.4787 23.4824C15.2873 23.7637 16.1193 24.0918 17.2795 24.0918C19.635 24.0918 21.2287 22.4043 21.2287 20.0371C21.2287 18.0215 20.0217 17.0019 18.8615 16.0527C18.217 15.5371 17.5959 15.0449 17.174 14.3887C16.8225 13.8613 16.5295 13.2871 16.2834 12.748C15.4397 10.9433 14.7717 9.24414 12.4162 9.24414C10.0491 9.24414 9.39283 10.9433 8.54908 12.7363C8.29125 13.2871 8.01001 13.8496 7.67016 14.3652C7.23657 15.0215 6.60375 15.5371 5.97094 16.0527C4.81079 17.0019 3.60375 18.0332 3.60375 20.0371Z" fill="black" fill-opacity="0.85"/>
</g>
<defs>
<clipPath id="clip0_2207_18202">
<rect width="24.6562" height="24.0117" fill="white" transform="translate(0.0881348 0.103516)"/>
</clipPath>
</defs>
</svg>
