<svg width="23" height="24" viewBox="0 0 23 24" fill="none" xmlns="http://www.w3.org/2000/svg">
<g clip-path="url(#clip0_2207_13188)">
<path d="M4.87158 13.2871H10.3559C10.5903 13.2871 10.7778 13.1113 10.7778 12.8535C10.7778 12.6074 10.5903 12.4551 10.3559 12.4551H4.87158C4.61377 12.4551 4.43799 12.6074 4.43799 12.8535C4.43799 13.1113 4.61377 13.2871 4.87158 13.2871ZM4.87158 11.3066H12.5708C12.8169 11.3066 12.9809 11.1426 12.9809 10.873C12.9809 10.6269 12.8169 10.4746 12.5708 10.4746H4.87158C4.61377 10.4746 4.43799 10.6269 4.43799 10.873C4.43799 11.1426 4.61377 11.3066 4.87158 11.3066ZM5.00049 6.56055C5.31689 6.56055 5.56299 6.30274 5.56299 5.99805C5.56299 5.68164 5.31689 5.42383 5.00049 5.42383C4.68408 5.42383 4.43799 5.68164 4.43799 5.99805C4.43799 6.30274 4.68408 6.56055 5.00049 6.56055ZM5.00049 8.66993C5.31689 8.66993 5.56299 8.41211 5.56299 8.09571C5.56299 7.79102 5.31689 7.53321 5.00049 7.53321C4.68408 7.53321 4.43799 7.79102 4.43799 8.09571C4.43799 8.41211 4.68408 8.66993 5.00049 8.66993ZM6.39502 6.99414C6.39502 7.72071 6.79345 8.43555 7.14502 8.74024C7.23877 8.82227 7.34424 8.85743 7.44971 8.85743C7.64892 8.85743 7.80127 8.70508 7.80127 8.51758C7.80127 8.36524 7.71924 8.28321 7.61377 8.17774C7.27392 7.8379 7.1333 7.41602 7.1333 6.99414C7.1333 6.56055 7.29736 6.16211 7.61377 5.81055C7.71924 5.69336 7.80127 5.61133 7.80127 5.45899C7.80127 5.27149 7.64892 5.11914 7.44971 5.11914C7.35595 5.11914 7.23877 5.16602 7.14502 5.24805C6.68799 5.63477 6.39502 6.26758 6.39502 6.99414Z" fill="black" fill-opacity="0.85"/>
<path d="M0.090332 17.2012C0.090332 19.2402 1.08643 20.2129 3.07861 20.2129H19.813C21.8051 20.2129 22.8012 19.2402 22.8012 17.2012V3.11524C22.8012 1.06445 21.7934 0.103516 19.7895 0.103516H3.10205C1.09814 0.103516 0.090332 1.06445 0.090332 3.11524V17.2012ZM1.97705 15.2793V3.1504C1.97705 2.31836 2.32861 1.99024 3.13721 1.99024H19.7544C20.563 1.99024 20.9145 2.31836 20.9145 3.1504V15.2793C20.9145 16.0996 20.563 16.4277 19.7544 16.4277H3.13721C2.32861 16.4277 1.97705 16.0996 1.97705 15.2793ZM18.0669 18.9941C17.645 18.9941 17.27 18.6191 17.27 18.1738C17.27 17.7519 17.645 17.3769 18.0669 17.3769C18.5239 17.3769 18.8872 17.7519 18.8872 18.1738C18.8872 18.6191 18.5239 18.9941 18.0669 18.9941ZM11.4458 21.6191C14.7856 21.6191 17.3872 20.8574 18.1723 19.6738H4.71924C5.50439 20.8574 8.10595 21.6191 11.4458 21.6191ZM5.8208 23.3887H17.0708C18.1255 23.3887 18.1958 22.2285 17.4926 21.9121L14.6567 20.5996H8.23486L5.39892 21.9121C4.6958 22.2285 4.76611 23.3887 5.8208 23.3887Z" fill="black" fill-opacity="0.85"/>
</g>
<defs>
<clipPath id="clip0_2207_13188">
<rect width="22.7109" height="23.6367" fill="white" transform="translate(0.090332 0.103516)"/>
</clipPath>
</defs>
</svg>
