<svg width="20" height="26" viewBox="0 0 20 26" fill="none" xmlns="http://www.w3.org/2000/svg">
<g clip-path="url(#clip0_2207_21151)">
<path d="M5.41565 25.2652H16.3844C18.5992 25.2652 19.9352 23.9527 19.9352 21.7495L19.9469 5.42534C19.9469 3.28081 18.7047 1.85112 16.3727 1.27691C13.5836 0.585498 10.7477 0.198779 7.73596 0.128467C3.64611 0.0229982 1.0094 1.60503 0.505486 5.273C-0.139045 10.0425 -0.162483 16.6636 0.423455 20.9761C0.763299 23.6245 2.66174 25.2652 5.41565 25.2652ZM5.47424 23.3784C3.70471 23.3784 2.49768 22.4761 2.31018 20.9878C1.72424 16.6519 1.74768 10.1245 2.36877 5.51909C2.72033 2.99956 4.59533 1.94487 7.56018 2.01519C10.6071 2.0855 13.4899 2.47222 16.3258 3.15191C17.486 3.44487 18.0719 4.21831 18.0719 5.4605L18.0602 21.7144C18.0602 22.9566 17.568 23.3784 16.3492 23.3784H5.47424Z" fill="black" fill-opacity="0.85"/>
<path d="M5.14611 10.4058H15.0836C15.5055 10.4058 15.8571 10.0659 15.8571 9.64404C15.8571 9.22217 15.5055 8.87061 15.0836 8.87061H5.14611C4.72424 8.87061 4.37268 9.22217 4.37268 9.64404C4.37268 10.0659 4.72424 10.4058 5.14611 10.4058ZM5.14611 14.2964H15.0836C15.5055 14.2964 15.8571 13.9566 15.8571 13.5347C15.8571 13.1128 15.5055 12.7612 15.0836 12.7612H5.14611C4.72424 12.7612 4.37268 13.1128 4.37268 13.5347C4.37268 13.9566 4.72424 14.2964 5.14611 14.2964ZM5.14611 18.187H15.0836C15.5055 18.187 15.8571 17.8472 15.8571 17.4136C15.8571 16.9917 15.5055 16.6519 15.0836 16.6519H5.14611C4.72424 16.6519 4.37268 16.9917 4.37268 17.4136C4.37268 17.8472 4.72424 18.187 5.14611 18.187Z" fill="black" fill-opacity="0.85"/>
</g>
<defs>
<clipPath id="clip0_2207_21151">
<rect width="19.9447" height="25.1602" fill="white" transform="translate(0.00219727 0.10498)"/>
</clipPath>
</defs>
</svg>
