<svg width="29" height="25" viewBox="0 0 29 25" fill="none" xmlns="http://www.w3.org/2000/svg">
<g clip-path="url(#clip0_2207_11725)">
<path d="M0.955567 24.9722C1.47119 24.9722 1.89307 24.5503 1.89307 24.0347V1.04248C1.89307 0.526855 1.47119 0.10498 0.955567 0.10498C0.428223 0.10498 0.00634766 0.526855 0.00634766 1.04248V24.0347C0.00634766 24.5503 0.428223 24.9722 0.955567 24.9722ZM27.2055 24.9722C27.7211 24.9722 28.143 24.5503 28.143 24.0347V1.04248C28.143 0.526855 27.7211 0.10498 27.2055 0.10498C26.6782 0.10498 26.2563 0.526855 26.2563 1.04248V24.0347C26.2563 24.5503 26.6782 24.9722 27.2055 24.9722ZM24.0766 5.00342H27.2055V3.46826H24.0766V5.00342ZM24.0766 10.5581H27.2055V9.02295H24.0766V10.5581ZM24.0766 16.1011H27.2055V14.5659H24.0766V16.1011ZM24.0766 21.6441H27.2055V20.1089H24.0766V21.6441Z" fill="black" fill-opacity="0.85"/>
<path d="M4.10791 6.50342H24.0415C24.5571 6.50342 24.8853 6.17529 24.8853 5.6831V2.80029C24.8853 2.3081 24.5571 1.96826 24.0415 1.96826H4.10791C3.59229 1.96826 3.26416 2.3081 3.26416 2.80029V5.6831C3.26416 6.17529 3.59229 6.50342 4.10791 6.50342ZM4.10791 12.0581H24.0415C24.5571 12.0581 24.8853 11.7183 24.8853 11.2261V8.34326C24.8853 7.85107 24.5571 7.52295 24.0415 7.52295H4.10791C3.59229 7.52295 3.26416 7.85107 3.26416 8.34326V11.2261C3.26416 11.7183 3.59229 12.0581 4.10791 12.0581ZM4.10791 17.6011H24.0415C24.5571 17.6011 24.8853 17.273 24.8853 16.7691V13.8862C24.8853 13.3941 24.5571 13.0659 24.0415 13.0659H4.10791C3.59229 13.0659 3.26416 13.3941 3.26416 13.8862V16.7691C3.26416 17.273 3.59229 17.6011 4.10791 17.6011ZM4.10791 23.1441H24.0415C24.5571 23.1441 24.8853 22.8159 24.8853 22.3238V19.4409C24.8853 18.9488 24.5571 18.6089 24.0415 18.6089H4.10791C3.59229 18.6089 3.26416 18.9488 3.26416 19.4409V22.3238C3.26416 22.8159 3.59229 23.1441 4.10791 23.1441Z" fill="black" fill-opacity="0.85"/>
</g>
<defs>
<clipPath id="clip0_2207_11725">
<rect width="28.1367" height="24.8789" fill="white" transform="translate(0.00634766 0.10498)"/>
</clipPath>
</defs>
</svg>
