<svg width="15" height="23" viewBox="0 0 15 23" fill="none" xmlns="http://www.w3.org/2000/svg">
<g clip-path="url(#clip0_2207_196)">
<path d="M0.973599 22.2417C1.52438 22.2417 1.79391 21.9488 1.88766 21.4683L4.20798 9.65576L3.0361 10.605H11.7783L10.6064 9.65576L12.9267 21.4683C13.0205 21.9488 13.29 22.2417 13.8408 22.2417C14.6259 22.2417 14.8955 21.7027 14.7665 21.0698L12.5751 9.91357C12.4345 9.17529 11.8134 8.63623 11.0986 8.63623H3.72751C3.01266 8.63623 2.39157 9.17529 2.25094 9.91357L0.0595365 21.0698C-0.0693697 21.7027 0.21188 22.2417 0.973599 22.2417ZM3.46969 9.58545H11.3564L8.43844 0.878418C8.26266 0.38623 7.93454 0.10498 7.43063 0.10498C6.90329 0.10498 6.54001 0.38623 6.37594 0.878418L3.46969 9.58545Z" fill="black" fill-opacity="0.85"/>
</g>
<defs>
<clipPath id="clip0_2207_196">
<rect width="14.7679" height="22.1367" fill="white" transform="translate(0.0294189 0.10498)"/>
</clipPath>
</defs>
</svg>
