<svg width="21" height="27" viewBox="0 0 21 27" fill="none" xmlns="http://www.w3.org/2000/svg">
<g clip-path="url(#clip0_2207_1695)">
<path d="M0.0146484 3.10498H2.95606V1.4292C2.95606 0.585449 2.52246 0.10498 1.76074 0.10498H1.18653C0.436523 0.10498 0.0146484 0.608886 0.0146484 1.4292V3.10498ZM0.0146484 23.4136L1.08106 26.0386C1.19824 26.3081 1.63184 26.3316 1.76074 26.0503L2.95606 23.4136V4.47607H0.0146484V23.4136ZM11.8388 26.2964H17.6513C19.3505 26.2964 20.5224 25.1245 20.5224 23.4253V3.16357C20.5224 1.45264 19.3505 0.269042 17.6513 0.269042H11.8388C10.1396 0.269042 8.97949 1.44092 8.97949 3.15186V23.4136C8.97949 25.1245 10.1396 26.2964 11.8388 26.2964ZM12.1552 24.5855C11.2646 24.5855 10.6904 24.0112 10.6904 23.1558V3.42139C10.6904 2.56592 11.2646 1.9917 12.1552 1.9917H17.3466C18.2255 1.9917 18.7998 2.56592 18.7998 3.42139V23.1441C18.7998 23.9995 18.2255 24.5855 17.3466 24.5855H12.1552ZM19.4091 4.34717V3.45654H13.8076C13.5732 3.45654 13.374 3.64404 13.374 3.90186C13.374 4.13623 13.5615 4.34717 13.7958 4.34717H19.4091ZM19.4091 6.21045V5.34326H15.6708C15.4248 5.34326 15.249 5.51904 15.249 5.78857C15.249 6.02295 15.413 6.21045 15.6591 6.21045H19.4091ZM19.4091 8.09717V7.22998H15.6708C15.4248 7.22998 15.249 7.40576 15.249 7.67529C15.249 7.90967 15.413 8.09717 15.6591 8.09717H19.4091ZM19.4091 9.97217V9.09326H15.6708C15.4248 9.09326 15.249 9.26904 15.249 9.52686C15.249 9.78467 15.413 9.97217 15.6591 9.97217H19.4091ZM19.4091 11.8472V10.9683H15.6708C15.4248 10.9683 15.249 11.1558 15.249 11.4253C15.249 11.648 15.413 11.8472 15.6591 11.8472H19.4091ZM19.4091 13.7105V12.855H13.8076C13.5732 12.855 13.374 13.0308 13.374 13.2886C13.374 13.5347 13.5615 13.7105 13.7958 13.7105H19.4091ZM19.4091 15.6089V14.73H15.6708C15.4248 14.73 15.249 14.9058 15.249 15.1636C15.249 15.4097 15.413 15.6089 15.6591 15.6089H19.4091ZM19.4091 17.4839V16.6167H15.6708C15.4248 16.6167 15.249 16.7808 15.249 17.0503C15.249 17.2847 15.413 17.4839 15.6591 17.4839H19.4091ZM19.4091 19.3472V18.48H15.6708C15.4248 18.48 15.249 18.6675 15.249 18.9136C15.249 19.148 15.413 19.3472 15.6591 19.3472H19.4091ZM19.4091 21.2222V20.355H15.6708C15.4248 20.355 15.249 20.5191 15.249 20.7769C15.249 21.0347 15.413 21.2222 15.6591 21.2222H19.4091ZM19.4091 23.0972V22.2183H13.8076C13.5732 22.2183 13.374 22.4058 13.374 22.6636C13.374 22.898 13.5615 23.0972 13.7958 23.0972H19.4091Z" fill="black" fill-opacity="0.85"/>
</g>
<defs>
<clipPath id="clip0_2207_1695">
<rect width="20.5078" height="26.3789" fill="white" transform="translate(0.0146484 0.10498)"/>
</clipPath>
</defs>
</svg>
