<svg width="33" height="25" viewBox="0 0 33 25" fill="none" xmlns="http://www.w3.org/2000/svg">
<g clip-path="url(#clip0_2207_180)">
<path d="M0.267809 21.1933C1.31078 24.6152 6.49047 25.1659 12.092 22.5878L11.4827 21.2988C6.76 23.4902 2.36547 23.2089 1.6389 20.7831C-0.21266 14.7245 12.8186 14.0449 11.3186 8.94719C10.5686 6.43937 4.77953 6.84953 0.642809 9.63859C-0.189222 10.1777 0.607653 11.373 1.42797 10.8105C4.42797 8.81828 9.54906 8.03312 9.9475 9.34562C10.2405 10.33 9.42015 11.0566 6.18578 12.8613C3.03343 14.6074 -1.03297 16.9159 0.267809 21.1933Z" fill="black" fill-opacity="0.85"/>
<path d="M16.885 20.42L29.3537 7.96289L27.303 5.90039L14.8342 18.3575L13.7209 20.959C13.6037 21.2403 13.8967 21.5684 14.1897 21.4512L16.885 20.42ZM30.385 6.95508L31.5686 5.79492C32.1662 5.19727 32.2014 4.55273 31.6623 4.01367L31.2639 3.61523C30.7248 3.08789 30.0803 3.13477 29.4944 3.7207L28.2991 4.89258L30.385 6.95508Z" fill="black" fill-opacity="0.85"/>
</g>
<defs>
<clipPath id="clip0_2207_180">
<rect width="32.0243" height="24.0945" fill="white" transform="translate(0.0187988 0.10498)"/>
</clipPath>
</defs>
</svg>
