<svg width="26" height="26" viewBox="0 0 26 26" fill="none" xmlns="http://www.w3.org/2000/svg">
<g clip-path="url(#clip0_2207_7855)">
<path d="M0.274483 11.8941L3.73151 22.6402C4.25885 24.3159 5.41901 25.1714 7.20026 25.1714H18.2862C20.0674 25.1714 21.2276 24.3159 21.7549 22.6402L25.1885 11.9409C25.751 10.2066 25.3174 8.83545 23.9112 7.8042L14.9346 1.20654C13.4698 0.1167 12.0167 0.1167 10.5518 1.20654L1.57527 7.8042C0.169014 8.83545 -0.264579 10.1948 0.274483 11.8941ZM2.05574 11.3198C1.77449 10.4292 1.95027 9.89014 2.72371 9.31592L11.6885 2.70654C12.462 2.13232 13.0245 2.13232 13.7979 2.70654L22.7627 9.31592C23.5362 9.89014 23.712 10.4409 23.419 11.355L22.669 13.687H2.81746L2.05574 11.3198Z" fill="black" fill-opacity="0.85"/>
</g>
<defs>
<clipPath id="clip0_2207_7855">
<rect width="25.3769" height="25.0664" fill="white" transform="translate(0.050415 0.10498)"/>
</clipPath>
</defs>
</svg>
