<svg width="22" height="23" viewBox="0 0 22 23" fill="none" xmlns="http://www.w3.org/2000/svg">
<g clip-path="url(#clip0_2207_22540)">
<path d="M4.11573 11.0329C6.63525 11.0329 8.1587 8.95863 8.1587 5.65394C8.1587 2.34926 6.62354 0.310193 4.11573 0.310193C1.59619 0.310193 0.0610352 2.36097 0.0610352 5.65394C0.0610352 8.97035 1.58448 11.0329 4.11573 11.0329ZM4.11573 9.39222C2.75635 9.39222 1.94776 8.02113 1.94776 5.65394C1.94776 3.32191 2.76806 1.9391 4.11573 1.9391C5.46338 1.9391 6.27198 3.31019 6.27198 5.65394C6.27198 8.02113 5.47509 9.39222 4.11573 9.39222ZM17.4282 22.3063C19.9477 22.3063 21.4712 20.2321 21.4712 16.9391C21.4712 13.6227 19.936 11.5837 17.4282 11.5837C14.9087 11.5837 13.3735 13.6344 13.3735 16.9391C13.3735 20.2438 14.8969 22.3063 17.4282 22.3063ZM17.4282 20.6774C16.0688 20.6774 15.2602 19.2946 15.2602 16.9391C15.2602 14.5954 16.0805 13.2243 17.4282 13.2243C18.7758 13.2243 19.5844 14.5837 19.5844 16.9391C19.5844 19.2946 18.7876 20.6774 17.4282 20.6774ZM3.27198 22.3532C3.70556 22.5993 4.33838 22.5641 4.71338 22.0251L18.4829 1.66957C18.893 1.08363 18.6469 0.485975 18.2133 0.228162C17.8032 0.00550637 17.229 0.0523814 16.8188 0.638318L3.04932 20.9352C2.62745 21.5329 2.83838 22.0954 3.27198 22.3532Z" fill="black" fill-opacity="0.85"/>
</g>
<defs>
<clipPath id="clip0_2207_22540">
<rect width="21.4102" height="22.4065" fill="white" transform="translate(0.0610352 0.10498)"/>
</clipPath>
</defs>
</svg>
