<svg width="30" height="23" viewBox="0 0 30 23" fill="none" xmlns="http://www.w3.org/2000/svg">
<g clip-path="url(#clip0_2207_8753)">
<path d="M23.1961 20.4751C26.7352 20.4751 29.5008 17.8852 29.5008 14.6626C29.5008 12.2017 28.0829 10.0689 25.7977 9.10791C25.8211 3.88135 22.0594 0.10791 17.2665 0.10791C14.0907 0.10791 11.829 1.80713 10.4227 3.85791C7.53992 3.01416 4.3993 5.20557 4.3407 8.48682C1.69226 8.90869 0.039917 11.2759 0.039917 14.1352C0.039917 17.5806 3.05164 20.4751 7.05945 20.4751H23.1961Z" fill="black" fill-opacity="0.85"/>
<path d="M8.99304 18.4009C9.8368 16.5024 12.0516 14.3931 15.5907 14.3931C19.1297 14.3931 21.3446 16.5024 22.1883 18.4009H8.99304ZM15.5907 12.9399C13.8211 12.9165 12.4149 11.3345 12.4032 9.44775C12.4032 7.58447 13.8211 6.04932 15.5907 6.04932C17.3485 6.04932 18.7782 7.58447 18.7782 9.44775C18.7782 11.3345 17.3485 12.9634 15.5907 12.9399Z" fill="white"/>
</g>
<defs>
<clipPath id="clip0_2207_8753">
<rect width="29.4609" height="22.2773" fill="white" transform="translate(0.039917 0.10791)"/>
</clipPath>
</defs>
</svg>
