<svg width="42" height="20" viewBox="0 0 42 20" fill="none" xmlns="http://www.w3.org/2000/svg">
<g clip-path="url(#clip0_2207_2098)">
<path d="M8.72558 9.729C11.1865 9.729 13.2256 7.5376 13.2256 4.854C13.2256 2.20557 11.21 0.10791 8.72558 0.10791C6.25293 0.10791 4.2373 2.24072 4.2373 4.86572C4.2373 7.54932 6.26465 9.729 8.72558 9.729ZM8.72558 7.95947C7.2959 7.95947 6.1123 6.62353 6.1123 4.86572C6.1123 3.1665 7.27246 1.87744 8.72558 1.87744C10.1787 1.87744 11.3506 3.14307 11.3506 4.854C11.3506 6.6001 10.167 7.95947 8.72558 7.95947ZM2.62011 19.2915H14.8193C16.5186 19.2915 17.3975 18.7407 17.3975 17.5454C17.3975 14.8501 14.2686 10.936 8.71387 10.936C3.1709 10.936 0.0419922 14.8501 0.0419922 17.5454C0.0419922 18.7407 0.90918 19.2915 2.62011 19.2915ZM2.16308 17.522C1.9873 17.522 1.91699 17.4517 1.91699 17.311C1.91699 15.7641 4.13183 12.7056 8.71387 12.7056C13.2959 12.7056 15.5108 15.7641 15.5108 17.311C15.5108 17.4517 15.4404 17.522 15.2764 17.522H2.16308ZM32.9717 9.7876C35.4326 9.7876 37.46 7.59619 37.46 4.9126C37.46 2.26416 35.4561 0.166504 32.9717 0.166504C30.499 0.166504 28.4717 2.29932 28.4717 4.92432C28.4717 7.60791 30.499 9.7876 32.9717 9.7876ZM32.9717 8.01807C31.5303 8.01807 30.3467 6.68213 30.3467 4.92432C30.3467 3.2251 31.5186 1.93603 32.9717 1.93603C34.4131 1.93603 35.585 3.20166 35.585 4.9126C35.585 6.65869 34.4131 8.01807 32.9717 8.01807ZM26.8662 19.3501H39.0537C40.7647 19.3501 41.6318 18.7993 41.6318 17.604C41.6318 14.9087 38.5147 10.9946 32.96 10.9946C27.4053 10.9946 24.2881 14.9087 24.2881 17.604C24.2881 18.7993 25.1553 19.3501 26.8662 19.3501ZM26.4092 17.5806C26.2334 17.5806 26.1631 17.5102 26.1631 17.3696C26.1631 15.8227 28.3779 12.7641 32.96 12.7641C37.542 12.7641 39.7568 15.8227 39.7568 17.3696C39.7568 17.5102 39.6865 17.5806 39.5108 17.5806H26.4092Z" fill="black" fill-opacity="0.85"/>
<path d="M16.9639 9.83447C17.5147 9.83447 17.9717 9.37744 17.9717 8.82666C17.9717 8.27588 17.5147 7.81885 16.9639 7.81885C16.4131 7.81885 15.9561 8.27588 15.9561 8.82666C15.9561 9.37744 16.4131 9.83447 16.9639 9.83447ZM20.8545 9.83447C21.4053 9.83447 21.8623 9.37744 21.8623 8.82666C21.8623 8.27588 21.4053 7.81885 20.8545 7.81885C20.3037 7.81885 19.8467 8.27588 19.8467 8.82666C19.8467 9.37744 20.3037 9.83447 20.8545 9.83447ZM24.7217 9.83447C25.2725 9.83447 25.7295 9.37744 25.7295 8.82666C25.7295 8.27588 25.2725 7.81885 24.7217 7.81885C24.1709 7.81885 23.7139 8.27588 23.7139 8.82666C23.7139 9.37744 24.1709 9.83447 24.7217 9.83447Z" fill="black" fill-opacity="0.85"/>
</g>
<defs>
<clipPath id="clip0_2207_2098">
<rect width="41.5898" height="19.2539" fill="white" transform="translate(0.0419922 0.10791)"/>
</clipPath>
</defs>
</svg>
