<svg width="27" height="28" viewBox="0 0 27 28" fill="none" xmlns="http://www.w3.org/2000/svg">
<g clip-path="url(#clip0_2207_2070)">
<path d="M23.3047 16.3772C23.7383 16.6702 24.2774 16.5647 24.5938 16.1194C26.0938 14.0569 26.9727 11.221 26.9727 8.32645C26.9727 5.43192 26.1055 2.57254 24.5938 0.533478C24.2774 0.0764471 23.7383 -0.0173029 23.3047 0.275666C22.8828 0.568635 22.8008 1.11942 23.1524 1.59988C24.4297 3.40457 25.1563 5.83035 25.1563 8.32645C25.1563 10.8225 24.4063 13.2249 23.1524 15.053C22.8125 15.5335 22.8828 16.0842 23.3047 16.3772Z" fill="black" fill-opacity="0.85"/>
<path d="M18.9688 13.3186C19.3555 13.5882 19.918 13.5061 20.2227 13.0491C21.125 11.8655 21.6641 10.1194 21.6641 8.32646C21.6641 6.53349 21.125 4.79911 20.2227 3.59208C19.918 3.14677 19.3555 3.05302 18.9688 3.33427C18.4883 3.66239 18.418 4.24833 18.7813 4.7288C19.4727 5.6663 19.8477 6.96708 19.8477 8.32646C19.8477 9.68583 19.4609 10.9749 18.7813 11.9241C18.4297 12.4163 18.4883 12.9788 18.9688 13.3186Z" fill="black" fill-opacity="0.85"/>
<path d="M2.9375 24.8382H17.6563C19.6016 24.8382 20.5274 24.2522 20.5274 22.9632C20.5274 19.8928 16.6602 15.4514 10.2969 15.4514C3.9336 15.4514 0.0546875 19.8928 0.0546875 22.9632C0.0546875 24.2522 0.980469 24.8382 2.9375 24.8382ZM2.375 23.0686C2.07031 23.0686 1.94141 22.9866 1.94141 22.7405C1.94141 20.8069 4.91797 17.221 10.2969 17.221C15.6758 17.221 18.6406 20.8069 18.6406 22.7405C18.6406 22.9866 18.5235 23.0686 18.2188 23.0686H2.375ZM10.2969 13.9866C13.0859 13.9866 15.3594 11.5139 15.3594 8.49048C15.3594 5.49048 13.1094 3.13501 10.2969 3.13501C7.51953 3.13501 5.23438 5.53735 5.23438 8.51392C5.2461 11.5257 7.51953 13.9866 10.2969 13.9866ZM10.2969 12.2171C8.58594 12.2171 7.1211 10.5882 7.1211 8.51392C7.1211 6.47485 8.5625 4.90454 10.2969 4.90454C12.0547 4.90454 13.4727 6.4397 13.4727 8.49048C13.4727 10.5647 12.0313 12.2171 10.2969 12.2171Z" fill="black" fill-opacity="0.85"/>
</g>
<defs>
<clipPath id="clip0_2207_2070">
<rect width="26.918" height="27.7691" fill="white" transform="translate(0.0546875 0.10791)"/>
</clipPath>
</defs>
</svg>
