<svg width="28" height="26" viewBox="0 0 28 26" fill="none" xmlns="http://www.w3.org/2000/svg">
<g clip-path="url(#clip0_2207_2445)">
<path d="M0.967286 3.36426C1.31885 3.36426 1.62354 3.05957 1.62354 2.70801C1.62354 2.34473 1.31885 2.05176 0.967286 2.05176C0.604004 2.05176 0.311036 2.34473 0.311036 2.70801C0.311036 3.05957 0.604004 3.36426 0.967286 3.36426ZM4.65869 3.36426C5.02197 3.36426 5.31494 3.05957 5.31494 2.70801C5.31494 2.34473 5.02197 2.05176 4.65869 2.05176C4.29541 2.05176 4.00244 2.34473 4.00244 2.70801C4.00244 3.05957 4.29541 3.36426 4.65869 3.36426ZM8.3501 3.36426C8.71338 3.36426 9.00635 3.05957 9.00635 2.70801C9.00635 2.34473 8.71338 2.05176 8.3501 2.05176C7.99854 2.05176 7.69385 2.34473 7.69385 2.70801C7.69385 3.05957 7.99854 3.36426 8.3501 3.36426ZM12.0649 3.65723C12.5805 3.65723 13.0141 3.22364 13.0141 2.70801C13.0141 2.18067 12.5805 1.74707 12.0649 1.74707C11.5375 1.74707 11.104 2.18067 11.104 2.70801C11.104 3.22364 11.5375 3.65723 12.0649 3.65723ZM15.7563 3.65723C16.2836 3.65723 16.7172 3.22364 16.7172 2.70801C16.7172 2.18067 16.2836 1.74707 15.7563 1.74707C15.229 1.74707 14.7954 2.18067 14.7954 2.70801C14.7954 3.22364 15.229 3.65723 15.7563 3.65723ZM19.4711 3.36426C19.8227 3.36426 20.1274 3.05957 20.1274 2.70801C20.1274 2.34473 19.8227 2.05176 19.4711 2.05176C19.1079 2.05176 18.8032 2.34473 18.8032 2.70801C18.8032 3.05957 19.1079 3.36426 19.4711 3.36426ZM23.1625 3.36426C23.5258 3.36426 23.8188 3.05957 23.8188 2.70801C23.8188 2.34473 23.5258 2.05176 23.1625 2.05176C22.7993 2.05176 22.5063 2.34473 22.5063 2.70801C22.5063 3.05957 22.7993 3.36426 23.1625 3.36426ZM26.854 3.36426C27.2172 3.36426 27.5102 3.05957 27.5102 2.70801C27.5102 2.34473 27.2172 2.05176 26.854 2.05176C26.5024 2.05176 26.1977 2.34473 26.1977 2.70801C26.1977 3.05957 26.5024 3.36426 26.854 3.36426ZM0.967286 7.40723C1.31885 7.40723 1.62354 7.10254 1.62354 6.73926C1.62354 6.3877 1.31885 6.08301 0.967286 6.08301C0.604004 6.08301 0.311036 6.3877 0.311036 6.73926C0.311036 7.10254 0.604004 7.40723 0.967286 7.40723ZM4.65869 7.7002C5.18604 7.7002 5.61963 7.26661 5.61963 6.73926C5.61963 6.22364 5.18604 5.79004 4.65869 5.79004C4.13135 5.79004 3.69776 6.22364 3.69776 6.73926C3.69776 7.26661 4.13135 7.7002 4.65869 7.7002ZM8.3501 7.7002C8.87744 7.7002 9.31104 7.26661 9.31104 6.73926C9.31104 6.22364 8.87744 5.79004 8.3501 5.79004C7.83447 5.79004 7.40088 6.22364 7.40088 6.73926C7.40088 7.26661 7.83447 7.7002 8.3501 7.7002ZM12.0649 7.7002C12.5805 7.7002 13.0141 7.26661 13.0141 6.73926C13.0141 6.22364 12.5805 5.79004 12.0649 5.79004C11.5375 5.79004 11.104 6.22364 11.104 6.73926C11.104 7.26661 11.5375 7.7002 12.0649 7.7002ZM15.7563 7.7002C16.2836 7.7002 16.7172 7.26661 16.7172 6.73926C16.7172 6.22364 16.2836 5.79004 15.7563 5.79004C15.229 5.79004 14.7954 6.22364 14.7954 6.73926C14.7954 7.26661 15.229 7.7002 15.7563 7.7002ZM19.4711 7.7002C19.9868 7.7002 20.4204 7.26661 20.4204 6.73926C20.4204 6.22364 19.9868 5.79004 19.4711 5.79004C18.9438 5.79004 18.5102 6.22364 18.5102 6.73926C18.5102 7.26661 18.9438 7.7002 19.4711 7.7002ZM23.1625 7.7002C23.6899 7.7002 24.1235 7.26661 24.1235 6.73926C24.1235 6.22364 23.6899 5.79004 23.1625 5.79004C22.6352 5.79004 22.2016 6.22364 22.2016 6.73926C22.2016 7.26661 22.6352 7.7002 23.1625 7.7002ZM26.854 7.40723C27.2172 7.40723 27.5102 7.10254 27.5102 6.73926C27.5102 6.3877 27.2172 6.08301 26.854 6.08301C26.5024 6.08301 26.1977 6.3877 26.1977 6.73926C26.1977 7.10254 26.5024 7.40723 26.854 7.40723ZM0.967286 11.7431C1.48291 11.7431 1.91651 11.3096 1.91651 10.7823C1.91651 10.2549 1.48291 9.82129 0.967286 9.82129C0.439942 9.82129 0.00634766 10.2549 0.00634766 10.7823C0.00634766 11.3096 0.439942 11.7431 0.967286 11.7431ZM4.65869 12.0361C5.3501 12.0361 5.9126 11.4736 5.9126 10.7823C5.9126 10.0908 5.3501 9.52833 4.65869 9.52833C3.96729 9.52833 3.40479 10.0908 3.40479 10.7823C3.40479 11.4736 3.96729 12.0361 4.65869 12.0361ZM8.3501 12.0361C9.04151 12.0361 9.60401 11.4736 9.60401 10.7823C9.60401 10.0908 9.04151 9.52833 8.3501 9.52833C7.67041 9.52833 7.09619 10.0908 7.09619 10.7823C7.09619 11.4736 7.67041 12.0361 8.3501 12.0361ZM12.0649 12.0361C12.7446 12.0361 13.3188 11.4736 13.3188 10.7823C13.3188 10.0908 12.7446 9.52833 12.0649 9.52833C11.3735 9.52833 10.811 10.0908 10.811 10.7823C10.811 11.4736 11.3735 12.0361 12.0649 12.0361ZM15.7563 12.0361C16.4477 12.0361 17.0102 11.4736 17.0102 10.7823C17.0102 10.0908 16.4477 9.52833 15.7563 9.52833C15.0649 9.52833 14.5024 10.0908 14.5024 10.7823C14.5024 11.4736 15.0649 12.0361 15.7563 12.0361ZM19.4711 12.0361C20.1508 12.0361 20.7251 11.4736 20.7251 10.7823C20.7251 10.0908 20.1508 9.52833 19.4711 9.52833C18.7797 9.52833 18.2055 10.0908 18.2055 10.7823C18.2055 11.4736 18.7797 12.0361 19.4711 12.0361ZM23.1625 12.0361C23.854 12.0361 24.4165 11.4736 24.4165 10.7823C24.4165 10.0908 23.854 9.52833 23.1625 9.52833C22.4711 9.52833 21.9086 10.0908 21.9086 10.7823C21.9086 11.4736 22.4711 12.0361 23.1625 12.0361ZM26.854 11.7431C27.3813 11.7431 27.8149 11.3096 27.8149 10.7823C27.8149 10.2549 27.3813 9.82129 26.854 9.82129C26.3266 9.82129 25.893 10.2549 25.893 10.7823C25.893 11.3096 26.3266 11.7431 26.854 11.7431ZM0.967286 15.7745C1.48291 15.7745 1.91651 15.3408 1.91651 14.8252C1.91651 14.2978 1.48291 13.8643 0.967286 13.8643C0.439942 13.8643 0.00634766 14.2978 0.00634766 14.8252C0.00634766 15.3408 0.439942 15.7745 0.967286 15.7745ZM4.65869 16.0792C5.3501 16.0792 5.9126 15.5048 5.9126 14.8252C5.9126 14.1337 5.3501 13.5596 4.65869 13.5596C3.96729 13.5596 3.40479 14.1337 3.40479 14.8252C3.40479 15.5048 3.96729 16.0792 4.65869 16.0792ZM8.3501 16.0792C9.04151 16.0792 9.60401 15.5048 9.60401 14.8252C9.60401 14.1337 9.04151 13.5596 8.3501 13.5596C7.67041 13.5596 7.09619 14.1337 7.09619 14.8252C7.09619 15.5048 7.67041 16.0792 8.3501 16.0792ZM12.0649 16.0908C12.7446 16.0908 13.3188 15.5167 13.3188 14.837C13.3188 14.1456 12.7446 13.5712 12.0649 13.5712C11.3735 13.5712 10.811 14.1456 10.811 14.837C10.811 15.5167 11.3735 16.0908 12.0649 16.0908ZM15.7563 16.0908C16.4477 16.0908 17.0102 15.5167 17.0102 14.837C17.0102 14.1456 16.4477 13.5712 15.7563 13.5712C15.0649 13.5712 14.5024 14.1456 14.5024 14.837C14.5024 15.5167 15.0649 16.0908 15.7563 16.0908ZM19.4711 16.0792C20.1508 16.0792 20.7251 15.5048 20.7251 14.8252C20.7251 14.1337 20.1508 13.5596 19.4711 13.5596C18.7797 13.5596 18.2055 14.1337 18.2055 14.8252C18.2055 15.5048 18.7797 16.0792 19.4711 16.0792ZM23.1625 16.0792C23.854 16.0792 24.4165 15.5048 24.4165 14.8252C24.4165 14.1337 23.854 13.5596 23.1625 13.5596C22.4711 13.5596 21.9086 14.1337 21.9086 14.8252C21.9086 15.5048 22.4711 16.0792 23.1625 16.0792ZM26.854 15.7745C27.3813 15.7745 27.8149 15.3408 27.8149 14.8252C27.8149 14.2978 27.3813 13.8643 26.854 13.8643C26.3266 13.8643 25.893 14.2978 25.893 14.8252C25.893 15.3408 26.3266 15.7745 26.854 15.7745ZM0.967286 19.5127C1.31885 19.5127 1.62354 19.2198 1.62354 18.8565C1.62354 18.5049 1.31885 18.2003 0.967286 18.2003C0.604004 18.2003 0.311036 18.5049 0.311036 18.8565C0.311036 19.2198 0.604004 19.5127 0.967286 19.5127ZM4.65869 19.8174C5.18604 19.8174 5.61963 19.3838 5.61963 18.8565C5.61963 18.3409 5.18604 17.9073 4.65869 17.9073C4.13135 17.9073 3.69776 18.3409 3.69776 18.8565C3.69776 19.3838 4.13135 19.8174 4.65869 19.8174ZM8.3501 19.8174C8.87744 19.8174 9.31104 19.3838 9.31104 18.8565C9.31104 18.3409 8.87744 17.9073 8.3501 17.9073C7.83447 17.9073 7.40088 18.3409 7.40088 18.8565C7.40088 19.3838 7.83447 19.8174 8.3501 19.8174ZM12.0649 19.8174C12.5805 19.8174 13.0141 19.3838 13.0141 18.8565C13.0141 18.3409 12.5805 17.9073 12.0649 17.9073C11.5375 17.9073 11.104 18.3409 11.104 18.8565C11.104 19.3838 11.5375 19.8174 12.0649 19.8174ZM15.7563 19.8174C16.2836 19.8174 16.7172 19.3838 16.7172 18.8565C16.7172 18.3409 16.2836 17.9073 15.7563 17.9073C15.229 17.9073 14.7954 18.3409 14.7954 18.8565C14.7954 19.3838 15.229 19.8174 15.7563 19.8174ZM19.4711 19.8174C19.9868 19.8174 20.4204 19.3838 20.4204 18.8565C20.4204 18.3409 19.9868 17.9073 19.4711 17.9073C18.9438 17.9073 18.5102 18.3409 18.5102 18.8565C18.5102 19.3838 18.9438 19.8174 19.4711 19.8174ZM23.1625 19.8174C23.6899 19.8174 24.1235 19.3838 24.1235 18.8565C24.1235 18.3409 23.6899 17.9073 23.1625 17.9073C22.6352 17.9073 22.2016 18.3409 22.2016 18.8565C22.2016 19.3838 22.6352 19.8174 23.1625 19.8174ZM26.854 19.5127C27.2172 19.5127 27.5102 19.2198 27.5102 18.8565C27.5102 18.5049 27.2172 18.2003 26.854 18.2003C26.5024 18.2003 26.1977 18.5049 26.1977 18.8565C26.1977 19.2198 26.5024 19.5127 26.854 19.5127ZM0.967286 23.5557C1.31885 23.5557 1.62354 23.2626 1.62354 22.8995C1.62354 22.5361 1.31885 22.2432 0.967286 22.2432C0.604004 22.2432 0.311036 22.5361 0.311036 22.8995C0.311036 23.2626 0.604004 23.5557 0.967286 23.5557ZM4.65869 23.5557C5.02197 23.5557 5.31494 23.2626 5.31494 22.8995C5.31494 22.5361 5.02197 22.2432 4.65869 22.2432C4.29541 22.2432 4.00244 22.5361 4.00244 22.8995C4.00244 23.2626 4.29541 23.5557 4.65869 23.5557ZM8.3501 23.5557C8.71338 23.5557 9.00635 23.2626 9.00635 22.8995C9.00635 22.5361 8.71338 22.2432 8.3501 22.2432C7.99854 22.2432 7.69385 22.5361 7.69385 22.8995C7.69385 23.2626 7.99854 23.5557 8.3501 23.5557ZM12.0649 23.8604C12.5805 23.8604 13.0141 23.4268 13.0141 22.8995C13.0141 22.3721 12.5805 21.9385 12.0649 21.9385C11.5375 21.9385 11.104 22.3721 11.104 22.8995C11.104 23.4268 11.5375 23.8604 12.0649 23.8604ZM15.7563 23.8604C16.2836 23.8604 16.7172 23.4268 16.7172 22.8995C16.7172 22.3721 16.2836 21.9385 15.7563 21.9385C15.229 21.9385 14.7954 22.3721 14.7954 22.8995C14.7954 23.4268 15.229 23.8604 15.7563 23.8604ZM19.4711 23.5557C19.8227 23.5557 20.1274 23.2626 20.1274 22.8995C20.1274 22.5361 19.8227 22.2432 19.4711 22.2432C19.1079 22.2432 18.8032 22.5361 18.8032 22.8995C18.8032 23.2626 19.1079 23.5557 19.4711 23.5557ZM23.1625 23.5557C23.5258 23.5557 23.8188 23.2626 23.8188 22.8995C23.8188 22.5361 23.5258 22.2432 23.1625 22.2432C22.7993 22.2432 22.5063 22.5361 22.5063 22.8995C22.5063 23.2626 22.7993 23.5557 23.1625 23.5557ZM26.854 23.5557C27.2172 23.5557 27.5102 23.2626 27.5102 22.8995C27.5102 22.5361 27.2172 22.2432 26.854 22.2432C26.5024 22.2432 26.1977 22.5361 26.1977 22.8995C26.1977 23.2626 26.5024 23.5557 26.854 23.5557Z" fill="black" fill-opacity="0.85"/>
<path d="M13.9165 16.7002C17.0571 16.7002 19.7524 13.9228 19.7524 10.4541C19.7524 6.93847 17.0219 4.34863 13.9165 4.34863C10.811 4.34863 8.09229 6.99706 8.09229 10.4775C8.09229 13.9228 10.7758 16.7002 13.9165 16.7002ZM7.91651 25.5712H19.9165C23.0336 25.5712 23.9711 24.0009 23.9711 22.4189C23.9711 18.8564 19.9985 14.5908 13.9165 14.5908C7.84619 14.5908 3.87354 18.8564 3.87354 22.4189C3.87354 24.0009 4.81104 25.5712 7.91651 25.5712Z" fill="white"/>
<path d="M13.9165 14.9072C16.061 14.9072 17.9594 12.9502 17.9594 10.4541C17.9594 7.958 16.061 6.1416 13.9165 6.1416C11.7836 6.1416 9.88525 8.00488 9.88525 10.4775C9.88525 12.9502 11.7836 14.9072 13.9165 14.9072ZM7.9165 23.7783H19.9165C21.6508 23.7783 22.1782 23.2861 22.1782 22.4189C22.1782 19.8876 19.0258 16.3955 13.9165 16.3955C8.81884 16.3955 5.6665 19.8876 5.6665 22.4189C5.6665 23.2861 6.18212 23.7783 7.9165 23.7783Z" fill="black" fill-opacity="0.85"/>
</g>
<defs>
<clipPath id="clip0_2207_2445">
<rect width="27.8086" height="25.4648" fill="white" transform="translate(0.00634766 0.106445)"/>
</clipPath>
</defs>
</svg>
