<svg width="26" height="24" viewBox="0 0 26 24" fill="none" xmlns="http://www.w3.org/2000/svg">
<g clip-path="url(#clip0_2207_1853)">
<path d="M2.02906 22.0923H17.7439C18.9978 22.0923 19.7478 21.5063 19.7478 20.5337C19.7478 17.5102 15.9626 13.3384 9.88062 13.3384C3.81031 13.3384 0.0251465 17.5102 0.0251465 20.5337C0.0251465 21.5063 0.775147 22.0923 2.02906 22.0923ZM9.89234 11.2407C12.4001 11.2407 14.5798 8.99072 14.5798 6.06103C14.5798 3.1665 12.4001 1.02197 9.89234 1.02197C7.38453 1.02197 5.20484 3.21338 5.20484 6.08447C5.20484 8.99072 7.37281 11.2407 9.89234 11.2407Z" fill="black" fill-opacity="0.85"/>
<path d="M21.3181 8.53369C21.904 8.53369 22.2556 8.15869 22.2556 7.68994C22.2556 7.65479 22.2556 7.59619 22.2556 7.54932C22.2556 6.89307 22.6423 6.48291 23.4626 5.94385C24.5993 5.19385 25.4079 4.50244 25.4079 3.10791C25.4079 1.1626 23.6735 0.10791 21.6813 0.10791C19.6657 0.10791 18.3415 1.06885 18.0251 2.13525C17.9665 2.33447 17.9313 2.52197 17.9313 2.72119C17.9313 3.24853 18.3415 3.52979 18.7282 3.52979C19.1267 3.52979 19.3845 3.34229 19.5954 3.06103L19.8063 2.77979C20.2165 2.08838 20.8259 1.70166 21.611 1.70166C22.6774 1.70166 23.3689 2.31103 23.3689 3.20166C23.3689 3.99853 22.8767 4.38525 21.8454 5.1001C21.0134 5.68603 20.3806 6.30713 20.3806 7.45557C20.3806 7.50244 20.3806 7.54932 20.3806 7.59619C20.3806 8.21729 20.7204 8.53369 21.3181 8.53369ZM21.2946 12.0259C21.9626 12.0259 22.5603 11.4868 22.5603 10.8071C22.5603 10.1274 21.9743 9.58838 21.2946 9.58838C20.6032 9.58838 20.029 10.1391 20.029 10.8071C20.029 11.4751 20.6149 12.0259 21.2946 12.0259Z" fill="black" fill-opacity="0.85"/>
</g>
<defs>
<clipPath id="clip0_2207_1853">
<rect width="25.3828" height="22.9102" fill="white" transform="translate(0.0251465 0.10791)"/>
</clipPath>
</defs>
</svg>
