<svg width="31" height="22" viewBox="0 0 31 22" fill="none" xmlns="http://www.w3.org/2000/svg">
<g clip-path="url(#clip0_2207_2004)">
<path d="M7.55201 21.1782H23.2668C24.5207 21.1782 25.2707 20.5923 25.2707 19.6196C25.2707 16.5962 21.4856 12.4243 15.4152 12.4243C9.33326 12.4243 5.5481 16.5962 5.5481 19.6196C5.5481 20.5923 6.2981 21.1782 7.55201 21.1782ZM15.4152 10.3267C17.9348 10.3267 20.1027 8.07666 20.1027 5.14697C20.1027 2.25244 17.923 0.10791 15.4152 0.10791C12.9191 0.10791 10.7277 2.29932 10.7277 5.17041C10.7277 8.07666 12.9074 10.3267 15.4152 10.3267Z" fill="black" fill-opacity="0.85"/>
<path d="M0.333252 5.8032L3.47388 8.13523C4.13013 8.62742 4.90357 8.33445 4.90357 7.52586V6.08445H7.92701C8.44263 6.08445 8.85279 5.68601 8.85279 5.17039C8.85279 4.66648 8.44263 4.25633 7.92701 4.25633H4.90357V2.83836C4.90357 1.99461 4.10669 1.74851 3.47388 2.21727L0.333252 4.56101C-0.088623 4.88914 -0.088623 5.4868 0.333252 5.8032ZM21.966 5.17039C21.966 5.68601 22.3645 6.08445 22.8801 6.08445H25.9035V7.52586C25.9035 8.33445 26.6887 8.62742 27.3332 8.13523L30.4738 5.8032C30.9074 5.4868 30.9074 4.88914 30.4738 4.56101L27.3332 2.21727C26.7121 1.74851 25.9035 1.99461 25.9035 2.83836V4.25633H22.8801C22.3645 4.25633 21.966 4.66648 21.966 5.17039Z" fill="black" fill-opacity="0.85"/>
</g>
<defs>
<clipPath id="clip0_2207_2004">
<rect width="30.7822" height="21.082" fill="white" transform="translate(0.0168457 0.10791)"/>
</clipPath>
</defs>
</svg>
