<svg width="34" height="25" viewBox="0 0 34 25" fill="none" xmlns="http://www.w3.org/2000/svg">
<g clip-path="url(#clip0_2207_2015)">
<path d="M8.68554 12.1753C10.8652 12.1753 12.7637 10.2066 12.7637 7.66357C12.7637 5.13232 10.8535 3.28076 8.68554 3.28076C6.50586 3.28076 4.5957 5.1792 4.5957 7.68701C4.5957 10.2066 6.49414 12.1753 8.68554 12.1753ZM2.14648 22.7573H15.2012C16.6895 22.7573 17.2637 22.1714 17.2637 21.105C17.2637 17.8706 13.959 13.9683 8.67382 13.9683C3.38867 13.9683 0.0839844 17.8706 0.0839844 21.105C0.0839844 22.1714 0.669922 22.7573 2.14648 22.7573Z" fill="black" fill-opacity="0.85"/>
<path d="M14.8028 24.3511H29.5332C32.6152 24.3511 33.6231 22.8628 33.6231 21.1988C33.6231 17.2612 29.1113 12.4097 22.1621 12.4097C15.2246 12.4097 10.7129 17.2612 10.7129 21.1988C10.7129 22.8628 11.7207 24.3511 14.8028 24.3511Z" fill="white"/>
<path d="M22.1737 11.9058C24.6933 11.9058 26.8612 9.65576 26.8612 6.72607C26.8612 3.83154 24.6816 1.68701 22.1737 1.68701C19.6659 1.68701 17.4862 3.87842 17.4862 6.74951C17.4862 9.65576 19.6542 11.9058 22.1737 11.9058ZM14.8027 22.7573H29.5331C31.373 22.7573 32.0292 22.23 32.0292 21.1988C32.0292 18.1753 28.2441 14.0034 22.162 14.0034C16.0917 14.0034 12.3066 18.1753 12.3066 21.1988C12.3066 22.23 12.9628 22.7573 14.8027 22.7573Z" fill="black" fill-opacity="0.85"/>
</g>
<defs>
<clipPath id="clip0_2207_2015">
<rect width="33.5391" height="24.2461" fill="white" transform="translate(0.0839844 0.10498)"/>
</clipPath>
</defs>
</svg>
