<svg width="29" height="22" viewBox="0 0 29 22" fill="none" xmlns="http://www.w3.org/2000/svg">
<g clip-path="url(#clip0_2207_1848)">
<path d="M2.03955 21.1782H17.7544C19.0083 21.1782 19.7583 20.5923 19.7583 19.6196C19.7583 16.5962 15.9731 12.4243 9.89111 12.4243C3.8208 12.4243 0.0356445 16.5962 0.0356445 19.6196C0.0356445 20.5923 0.785645 21.1782 2.03955 21.1782ZM9.90283 10.3267C12.4106 10.3267 14.5903 8.07666 14.5903 5.14697C14.5903 2.25244 12.4106 0.10791 9.90283 0.10791C7.39502 0.10791 5.21533 2.29932 5.21533 5.17041C5.21533 8.07666 7.3833 10.3267 9.90283 10.3267Z" fill="black" fill-opacity="0.85"/>
<path d="M19.6998 10.1509C19.9693 10.1509 20.2037 10.0454 20.3795 9.85791L23.6959 6.52979L27.0357 9.85791C27.2115 10.0337 27.4341 10.1509 27.7037 10.1509C28.231 10.1509 28.6412 9.71729 28.6412 9.20166C28.6412 8.93213 28.5474 8.72119 28.3599 8.53369L25.0318 5.20557L28.3716 1.854C28.5709 1.65479 28.6529 1.45557 28.6529 1.19775C28.6529 0.682129 28.2427 0.260254 27.7154 0.260254C27.4693 0.260254 27.2701 0.354004 27.0709 0.553222L23.6959 3.89307L20.356 0.564941C20.1802 0.377441 19.9693 0.283691 19.6998 0.283691C19.1841 0.283691 18.7623 0.693848 18.7623 1.20947C18.7623 1.46729 18.8677 1.68994 19.0435 1.86572L22.3716 5.20557L19.0435 8.54541C18.8677 8.72119 18.7623 8.94385 18.7623 9.20166C18.7623 9.71729 19.1841 10.1509 19.6998 10.1509Z" fill="black" fill-opacity="0.85"/>
</g>
<defs>
<clipPath id="clip0_2207_1848">
<rect width="28.6172" height="21.082" fill="white" transform="translate(0.0356445 0.10791)"/>
</clipPath>
</defs>
</svg>
