<svg width="24" height="25" viewBox="0 0 24 25" fill="none" xmlns="http://www.w3.org/2000/svg">
<g clip-path="url(#clip0_2207_2336)">
<path d="M11.9887 24.0126C18.5278 24.0126 23.9418 18.5869 23.9418 12.0595C23.9418 5.52051 18.5161 0.106445 11.977 0.106445C5.4497 0.106445 0.0356445 5.52051 0.0356445 12.0595C0.0356445 18.5869 5.46142 24.0126 11.9887 24.0126Z" fill="black" fill-opacity="0.85"/>
<path d="M11.977 9.29395C10.7348 9.29395 9.72706 8.23926 9.72706 6.83301C9.72706 5.50879 10.7348 4.41895 11.977 4.41895C13.2309 4.41895 14.227 5.50879 14.227 6.83301C14.227 8.23926 13.2309 9.30567 11.977 9.29395ZM8.02784 14.1455C7.61768 14.1455 7.38331 13.8876 7.38331 13.5244C7.38331 12.4462 8.93018 10.1025 11.977 10.1025C15.0239 10.1025 16.5708 12.4462 16.5708 13.5244C16.5708 13.8876 16.3364 14.1455 15.9262 14.1455H8.02784ZM6.93799 18.7509C6.63331 18.7509 6.39893 18.5048 6.39893 18.2002C6.39893 17.8955 6.63331 17.6494 6.93799 17.6494H7.0669V16.1142C7.0669 15.4228 7.37159 15.0478 8.13331 15.0478H15.8325C16.5942 15.0478 16.8989 15.4228 16.8989 16.1142V17.6494H17.0278C17.3325 17.6494 17.5668 17.8955 17.5668 18.2002C17.5668 18.5048 17.3325 18.7509 17.0278 18.7509H6.93799ZM10.6411 17.2978H13.3247C13.559 17.2978 13.7348 17.122 13.7348 16.9111C13.7348 16.6884 13.559 16.5244 13.3247 16.5244H10.6411C10.4067 16.5244 10.2544 16.6884 10.2544 16.9111C10.2544 17.122 10.4067 17.2978 10.6411 17.2978Z" fill="white"/>
</g>
<defs>
<clipPath id="clip0_2207_2336">
<rect width="23.9062" height="23.918" fill="white" transform="translate(0.0356445 0.106445)"/>
</clipPath>
</defs>
</svg>
