<svg width="24" height="25" viewBox="0 0 24 25" fill="none" xmlns="http://www.w3.org/2000/svg">
<g clip-path="url(#clip0_2207_1791)">
<path d="M12.0141 24.0141C18.5532 24.0141 23.9672 18.5884 23.9672 12.061C23.9672 5.52197 18.5415 0.10791 12.0024 0.10791C5.47509 0.10791 0.0610352 5.52197 0.0610352 12.061C0.0610352 18.5884 5.48682 24.0141 12.0141 24.0141ZM12.0141 22.022C6.48292 22.022 2.06495 17.5923 2.06495 12.061C2.06495 6.52979 6.47119 2.1001 12.0024 2.1001C17.5337 2.1001 21.9751 6.52979 21.9751 12.061C21.9751 17.5923 17.5454 22.022 12.0141 22.022Z" fill="black" fill-opacity="0.85"/>
<path d="M4.13916 10.8657C4.13916 12.7993 5.51026 14.1704 7.43213 14.1704H7.83057C7.76026 13.854 7.7251 13.2798 7.77198 12.9048H7.51416C6.30713 12.9048 5.4751 12.0845 5.4751 10.8657C5.4751 9.65869 6.30713 8.81494 7.51416 8.81494H12.2251C13.4321 8.81494 14.2641 9.65869 14.2641 10.8657C14.2641 12.0845 13.4438 12.9048 12.2251 12.9048H10.4672C10.3383 13.2563 10.3852 13.8306 10.7368 14.1704H12.2954C14.2172 14.1704 15.5883 12.7993 15.5883 10.8657C15.5883 8.93213 14.2172 7.54932 12.2954 7.54932H7.43213C5.51026 7.54932 4.13916 8.93213 4.13916 10.8657ZM8.41651 13.3501C8.41651 15.2837 9.7876 16.6665 11.7212 16.6665H16.5727C18.4946 16.6665 19.8774 15.2837 19.8774 13.3501C19.8774 11.4165 18.5063 10.0454 16.5727 10.0454H16.1743C16.2329 10.3852 16.3032 10.7602 16.2329 11.311H16.5024C17.7094 11.311 18.5415 12.1431 18.5415 13.3501C18.5415 14.5571 17.7094 15.4009 16.5024 15.4009H11.7798C10.5727 15.4009 9.74073 14.5571 9.74073 13.3501C9.74073 12.1431 10.5727 11.311 11.7798 11.311H13.5258C13.6782 10.9712 13.6313 10.3618 13.268 10.0454H11.7212C9.7876 10.0454 8.41651 11.4165 8.41651 13.3501Z" fill="black" fill-opacity="0.85"/>
</g>
<defs>
<clipPath id="clip0_2207_1791">
<rect width="23.9062" height="23.918" fill="white" transform="translate(0.0610352 0.10791)"/>
</clipPath>
</defs>
</svg>
