<svg width="24" height="25" viewBox="0 0 24 25" fill="none" xmlns="http://www.w3.org/2000/svg">
<g clip-path="url(#clip0_2207_2150)">
<path d="M12.0371 24.0126C18.5762 24.0126 23.9902 18.5869 23.9902 12.0595C23.9902 5.52051 18.5645 0.106445 12.0254 0.106445C5.49804 0.106445 0.0839844 5.52051 0.0839844 12.0595C0.0839844 18.5869 5.50976 24.0126 12.0371 24.0126Z" fill="black" fill-opacity="0.85"/>
<path d="M12.0254 22.2314C9.3418 22.2314 6.62305 21.1299 4.83008 19.2198C6.09571 17.2276 8.84961 16.0556 12.0254 16.0556C15.1778 16.0556 17.9551 17.2042 19.2324 19.2198C17.4278 21.1299 14.7207 22.2314 12.0254 22.2314ZM12.0254 14.0634C9.7754 14.04 8.00587 12.165 8.00587 9.64551C7.99415 7.27833 9.78711 5.30957 12.0254 5.30957C14.2754 5.30957 16.0449 7.27833 16.0449 9.64551C16.0449 12.165 14.2871 14.087 12.0254 14.0634Z" fill="white"/>
</g>
<defs>
<clipPath id="clip0_2207_2150">
<rect width="23.9062" height="23.918" fill="white" transform="translate(0.0839844 0.106445)"/>
</clipPath>
</defs>
</svg>
