<svg width="24" height="25" viewBox="0 0 24 25" fill="none" xmlns="http://www.w3.org/2000/svg">
<g clip-path="url(#clip0_2207_1809)">
<path d="M11.993 24.0126C18.5321 24.0126 23.9461 18.5869 23.9461 12.0595C23.9461 5.52051 18.5204 0.106445 11.9813 0.106445C5.45398 0.106445 0.039917 5.52051 0.039917 12.0595C0.039917 18.5869 5.4657 24.0126 11.993 24.0126ZM11.993 22.0205C6.4618 22.0205 2.04383 17.5908 2.04383 12.0595C2.04383 6.52833 6.45008 2.09864 11.9813 2.09864C17.5126 2.09864 21.954 6.52833 21.954 12.0595C21.954 17.5908 17.5243 22.0205 11.993 22.0205Z" fill="black" fill-opacity="0.85"/>
<path d="M6.62586 18.0009H17.3368C17.8055 18.0009 18.0282 17.6845 18.0282 17.2626C18.0282 15.9736 16.0946 12.6455 11.9813 12.6455C7.86804 12.6455 5.93445 15.9736 5.93445 17.2626C5.93445 17.6845 6.15711 18.0009 6.62586 18.0009ZM11.9813 11.6962C13.6454 11.708 14.993 10.2783 14.993 8.40332C14.993 6.6455 13.6454 5.19238 11.9813 5.19238C10.3172 5.19238 8.96961 6.6455 8.96961 8.40332C8.96961 10.2783 10.3172 11.6845 11.9813 11.6962Z" fill="black" fill-opacity="0.85"/>
</g>
<defs>
<clipPath id="clip0_2207_1809">
<rect width="23.9062" height="23.918" fill="white" transform="translate(0.039917 0.106445)"/>
</clipPath>
</defs>
</svg>
