<svg width="30" height="23" viewBox="0 0 30 23" fill="none" xmlns="http://www.w3.org/2000/svg">
<g clip-path="url(#clip0_2207_8749)">
<path d="M8.85034 18.9868H22.3269C21.6589 17.0298 19.3972 14.5806 15.5886 14.5806C11.78 14.5806 9.51831 17.0298 8.85034 18.9868ZM15.5886 13.1274C17.3464 13.1391 18.7761 11.522 18.7761 9.63525C18.7761 7.77197 17.3464 6.23682 15.5886 6.23682C13.819 6.23682 12.4011 7.77197 12.4011 9.63525C12.4128 11.522 13.819 13.1157 15.5886 13.1274ZM23.194 20.4751C26.7331 20.4751 29.4987 17.8852 29.4987 14.6626C29.4987 12.2017 28.0808 10.0689 25.7956 9.10791C25.819 3.88135 22.0573 0.10791 17.2644 0.10791C14.0886 0.10791 11.8269 1.80713 10.4206 3.85791C7.53784 3.01416 4.39722 5.20557 4.33862 8.48682C1.69018 8.90869 0.0378418 11.2759 0.0378418 14.1352C0.0378418 17.5806 3.04956 20.4751 7.05737 20.4751H23.194ZM23.194 18.5884H7.05737C4.10425 18.5884 1.92456 16.5259 1.92456 14.1352C1.92456 11.7915 3.34253 9.92822 5.8269 9.92822C5.99096 9.92822 6.04956 9.84619 6.04956 9.69385C6.04956 6.08447 8.65112 5.01807 11.0534 5.80322C11.194 5.8501 11.2761 5.81494 11.3464 5.68603C12.4831 3.65869 14.2292 1.99463 17.2644 1.99463C21.1081 1.99463 23.7683 5.0415 23.9675 8.52197C24.0026 9.06103 23.9675 9.69385 23.9206 10.2446C23.9089 10.397 23.9675 10.479 24.1081 10.5141C26.2409 10.9829 27.612 12.5415 27.612 14.6626C27.612 16.8423 25.6901 18.5884 23.194 18.5884Z" fill="black" fill-opacity="0.85"/>
</g>
<defs>
<clipPath id="clip0_2207_8749">
<rect width="29.4609" height="22.2773" fill="white" transform="translate(0.0378418 0.10791)"/>
</clipPath>
</defs>
</svg>
