<svg width="29" height="22" viewBox="0 0 29 22" fill="none" xmlns="http://www.w3.org/2000/svg">
<g clip-path="url(#clip0_2207_1843)">
<path d="M2.0271 21.1782H17.742C18.9959 21.1782 19.7459 20.5923 19.7459 19.6196C19.7459 16.5962 15.9607 12.4243 9.87866 12.4243C3.80835 12.4243 0.0231934 16.5962 0.0231934 19.6196C0.0231934 20.5923 0.773193 21.1782 2.0271 21.1782ZM9.89038 10.3267C12.3982 10.3267 14.5779 8.07666 14.5779 5.14697C14.5779 2.25244 12.3982 0.10791 9.89038 0.10791C7.38257 0.10791 5.20288 2.29932 5.20288 5.17041C5.20288 8.07666 7.37085 10.3267 9.89038 10.3267Z" fill="black" fill-opacity="0.85"/>
<path d="M22.1248 11.0181C22.5232 11.0181 22.8396 10.8306 23.074 10.479L28.4294 2.0415C28.5701 1.81885 28.7107 1.54932 28.7107 1.2915C28.7107 0.775879 28.242 0.436035 27.7615 0.436035C27.4568 0.436035 27.1638 0.611816 26.9529 0.963379L22.0779 8.75635L19.7693 5.77979C19.4998 5.40479 19.2302 5.29932 18.9138 5.29932C18.3982 5.29932 17.9998 5.70947 17.9998 6.23682C17.9998 6.48291 18.1052 6.74072 18.2693 6.96338L21.1287 10.479C21.4334 10.854 21.738 11.0181 22.1248 11.0181Z" fill="black" fill-opacity="0.85"/>
</g>
<defs>
<clipPath id="clip0_2207_1843">
<rect width="28.6875" height="21.082" fill="white" transform="translate(0.0231934 0.10791)"/>
</clipPath>
</defs>
</svg>
