<svg width="28" height="22" viewBox="0 0 28 22" fill="none" xmlns="http://www.w3.org/2000/svg">
<g clip-path="url(#clip0_2207_2431)">
<path d="M3.7301 21.6821H24.0035C26.4645 21.6821 27.6832 20.4751 27.6832 18.061V3.74072C27.6832 1.32666 26.4645 0.10791 24.0035 0.10791H3.7301C1.28088 0.10791 0.050415 1.32666 0.050415 3.74072V18.061C0.050415 20.4751 1.28088 21.6821 3.7301 21.6821ZM3.75354 19.7954C2.58167 19.7954 1.93713 19.1743 1.93713 17.9556V3.84619C1.93713 2.62744 2.58167 1.99463 3.75354 1.99463H23.9801C25.1402 1.99463 25.7965 2.62744 25.7965 3.84619V17.9556C25.7965 19.1743 25.1402 19.7954 23.9801 19.7954H3.75354Z" fill="black" fill-opacity="0.85"/>
<path d="M16.6324 7.03369H23.0309C23.441 7.03369 23.7574 6.71729 23.7574 6.30713C23.7574 5.90869 23.441 5.59229 23.0309 5.59229H16.6324C16.2106 5.59229 15.8942 5.90869 15.8942 6.30713C15.8942 6.71729 16.2106 7.03369 16.6324 7.03369ZM16.6324 11.6274H23.0309C23.441 11.6274 23.7574 11.2993 23.7574 10.8891C23.7574 10.4907 23.441 10.186 23.0309 10.186H16.6324C16.2106 10.186 15.8942 10.4907 15.8942 10.8891C15.8942 11.2993 16.2106 11.6274 16.6324 11.6274ZM16.6324 16.2095H23.0309C23.441 16.2095 23.7574 15.9048 23.7574 15.5063C23.7574 15.0962 23.441 14.7681 23.0309 14.7681H16.6324C16.2106 14.7681 15.8942 15.0962 15.8942 15.5063C15.8942 15.9048 16.2106 16.2095 16.6324 16.2095ZM4.4215 16.2095H13.5738C13.9606 16.2095 14.1481 15.9517 14.1481 15.6001C14.1481 14.4985 12.4957 11.6626 8.99182 11.6626C5.48791 11.6626 3.84729 14.4985 3.84729 15.6001C3.84729 15.9517 4.03479 16.2095 4.4215 16.2095ZM8.99182 10.8423C10.4215 10.854 11.5582 9.64697 11.5582 8.0415C11.5582 6.5415 10.4215 5.29932 8.99182 5.29932C7.57385 5.29932 6.42541 6.5415 6.42541 8.0415C6.42541 9.64697 7.57385 10.8423 8.99182 10.8423Z" fill="black" fill-opacity="0.85"/>
</g>
<defs>
<clipPath id="clip0_2207_2431">
<rect width="27.6328" height="21.5742" fill="white" transform="translate(0.050415 0.10791)"/>
</clipPath>
</defs>
</svg>
