<svg width="24" height="25" viewBox="0 0 24 25" fill="none" xmlns="http://www.w3.org/2000/svg">
<g clip-path="url(#clip0_2207_2288)">
<path d="M12.0351 24.0126C18.5742 24.0126 23.9882 18.5869 23.9882 12.0595C23.9882 5.52051 18.5625 0.106445 12.0234 0.106445C5.49609 0.106445 0.0820312 5.52051 0.0820312 12.0595C0.0820312 18.5869 5.50781 24.0126 12.0351 24.0126Z" fill="black" fill-opacity="0.85"/>
<path d="M5.96484 12.0595C5.96484 12.7626 6.07031 13.4306 6.28125 14.0634L4.89844 14.6376C4.60547 13.8408 4.42969 12.9502 4.42969 12.0595C4.42969 11.1572 4.60547 10.2666 4.89844 9.48144L6.28125 10.0557C6.07031 10.6884 5.96484 11.3447 5.96484 12.0595ZM9.38672 6.57519C8.14453 7.17285 7.13672 8.16894 6.5625 9.39941L5.15625 8.82519C5.91797 7.25488 7.21875 5.94238 8.78906 5.18066L9.38672 6.57519ZM12.0234 5.96582C11.3203 5.96582 10.6523 6.083 10.0195 6.30566L9.44531 4.92285C10.2304 4.62988 11.1445 4.44238 12.0234 4.44238C12.9258 4.44238 13.8047 4.62988 14.5898 4.92285L14.039 6.30566C13.4062 6.083 12.7265 5.96582 12.0234 5.96582ZM17.5078 9.39941C16.9218 8.16894 15.914 7.16113 14.6953 6.57519L15.2578 5.16894C16.8398 5.94238 18.1406 7.25488 18.914 8.82519L17.5078 9.39941ZM18.1289 12.0595C18.1289 11.3447 18.0117 10.6884 17.789 10.0557L19.1718 9.48144C19.4648 10.2783 19.6523 11.1572 19.6523 12.0595C19.6523 12.9502 19.4648 13.8408 19.1718 14.6376L17.789 14.0634C18.0117 13.4306 18.1289 12.7626 18.1289 12.0595ZM12.0351 19.665C9.05859 19.665 6.41015 17.8603 5.16797 15.2939L6.57422 14.708C6.79687 15.2002 7.06641 15.6337 7.40625 16.0087C8.22656 15.1767 9.89062 14.4033 12.0351 14.4033C14.1797 14.4033 15.8554 15.1767 16.664 16.0205C17.0039 15.6337 17.2734 15.2002 17.5078 14.708L18.9258 15.2939C17.6601 17.8603 15.0234 19.665 12.0351 19.665ZM12.0351 13.4541C10.5468 13.4423 9.38672 12.1884 9.38672 10.5478C9.36328 8.98925 10.5586 7.70019 12.0351 7.70019C13.5117 7.70019 14.6953 8.98925 14.6953 10.5478C14.6953 12.1884 13.5117 13.4658 12.0351 13.4541Z" fill="white"/>
</g>
<defs>
<clipPath id="clip0_2207_2288">
<rect width="23.9062" height="23.918" fill="white" transform="translate(0.0820312 0.106445)"/>
</clipPath>
</defs>
</svg>
