<svg width="35" height="25" viewBox="0 0 35 25" fill="none" xmlns="http://www.w3.org/2000/svg">
<g clip-path="url(#clip0_2207_2009)">
<path d="M8.97144 12.6441C11.3855 12.6441 13.366 10.4761 13.366 7.81592C13.366 5.21436 11.409 3.1167 8.97144 3.1167C6.55738 3.1167 4.57691 5.24951 4.57691 7.83936C4.57691 10.4878 6.55738 12.6441 8.97144 12.6441ZM8.97144 10.898C7.54175 10.898 6.323 9.52686 6.323 7.83936C6.323 6.18701 7.53003 4.86279 8.97144 4.86279C10.448 4.86279 11.6316 6.16357 11.6316 7.81592C11.6316 9.52686 10.4129 10.898 8.97144 10.898ZM2.45581 23.3902H15.4754C17.0691 23.3902 17.8543 22.7456 17.8543 21.4331C17.8543 17.5425 13.8816 13.98 8.95972 13.98C4.04957 13.98 0.0651855 17.5425 0.0651855 21.4331C0.0651855 22.7456 0.862061 23.3902 2.45581 23.3902ZM2.16285 21.6558C1.92847 21.6558 1.81128 21.562 1.81128 21.3277C1.81128 18.4214 5.12769 15.7144 8.95972 15.7144C12.8035 15.7144 16.1082 18.4214 16.1082 21.3277C16.1082 21.562 16.0027 21.6558 15.7683 21.6558H2.16285Z" fill="black" fill-opacity="0.85"/>
<path d="M15.1121 24.9839H29.8308C32.948 24.9839 34.3074 23.5073 34.3074 21.5152C34.3074 17.5308 29.6902 12.398 22.4714 12.398C15.241 12.398 10.6355 17.5308 10.6355 21.5152C10.6355 23.5073 11.9832 24.9839 15.1121 24.9839ZM22.4714 12.5386C25.2605 12.5386 27.534 10.0659 27.534 7.04248C27.534 4.04248 25.2722 1.68701 22.4714 1.68701C19.6941 1.68701 17.409 4.08936 17.409 7.06592C17.409 10.0776 19.6941 12.5386 22.4714 12.5386Z" fill="white"/>
<path d="M22.4713 12.5386C25.2604 12.5386 27.5339 10.0659 27.5339 7.04248C27.5339 4.04248 25.2721 1.68701 22.4713 1.68701C19.694 1.68701 17.4089 4.08936 17.4089 7.06592C17.4089 10.0776 19.694 12.5386 22.4713 12.5386ZM22.4713 10.7691C20.7604 10.7691 19.2956 9.14014 19.2956 7.06592C19.2956 5.02686 20.737 3.45654 22.4713 3.45654C24.2174 3.45654 25.6471 4.9917 25.6471 7.04248C25.6471 9.1167 24.2057 10.7691 22.4713 10.7691ZM15.112 23.3902H29.8307C31.776 23.3902 32.7018 22.8042 32.7018 21.5152C32.7018 18.4448 28.8229 14.0034 22.4713 14.0034C16.1081 14.0034 12.2292 18.4448 12.2292 21.5152C12.2292 22.8042 13.1549 23.3902 15.112 23.3902ZM14.5495 21.6206C14.2448 21.6206 14.1159 21.5386 14.1159 21.2925C14.1159 19.3589 17.0924 15.773 22.4713 15.773C27.8385 15.773 30.8151 19.3589 30.8151 21.2925C30.8151 21.5386 30.698 21.6206 30.3932 21.6206H14.5495Z" fill="black" fill-opacity="0.85"/>
</g>
<defs>
<clipPath id="clip0_2207_2009">
<rect width="34.2422" height="24.8789" fill="white" transform="translate(0.0651855 0.10498)"/>
</clipPath>
</defs>
</svg>
