<svg width="31" height="22" viewBox="0 0 31 22" fill="none" xmlns="http://www.w3.org/2000/svg">
<g clip-path="url(#clip0_2207_1999)">
<path d="M8.04321 21.8095H22.7619C24.7072 21.8095 25.6331 21.2236 25.6331 19.9345C25.6331 16.8642 21.7542 12.4228 15.4026 12.4228C9.03931 12.4228 5.1604 16.8642 5.1604 19.9345C5.1604 21.2236 6.08618 21.8095 8.04321 21.8095ZM7.48071 20.04C7.17603 20.04 7.04712 19.958 7.04712 19.7119C7.04712 17.7783 10.0237 14.1923 15.4026 14.1923C20.7698 14.1923 23.7464 17.7783 23.7464 19.7119C23.7464 19.958 23.6292 20.04 23.3244 20.04H7.48071ZM15.4026 10.958C18.1917 10.958 20.465 8.48536 20.465 5.46192C20.465 2.46192 18.2034 0.106445 15.4026 0.106445C12.6253 0.106445 10.3401 2.50879 10.3401 5.48536C10.3401 8.49707 12.6253 10.958 15.4026 10.958ZM15.4026 9.18848C13.6917 9.18848 12.2269 7.55957 12.2269 5.48536C12.2269 3.44629 13.6683 1.87598 15.4026 1.87598C17.1487 1.87598 18.5784 3.41114 18.5784 5.46192C18.5784 7.53614 17.137 9.18848 15.4026 9.18848Z" fill="black" fill-opacity="0.85"/>
<path d="M0.320557 6.0947L3.46118 8.42673C4.11743 8.91892 4.89087 8.62595 4.89087 7.81736V6.37595H7.91431C8.42993 6.37595 8.84009 5.97751 8.84009 5.46189C8.84009 4.95798 8.42993 4.54783 7.91431 4.54783H4.89087V3.12986C4.89087 2.28611 4.09399 2.04001 3.46118 2.50876L0.320557 4.85251C-0.101318 5.18064 -0.101318 5.7783 0.320557 6.0947ZM21.9534 5.46189C21.9534 5.97751 22.3519 6.37595 22.8675 6.37595H25.8909V7.81736C25.8909 8.62595 26.6761 8.91892 27.3206 8.42673L30.4612 6.0947C30.8948 5.7783 30.8948 5.18064 30.4612 4.85251L27.3206 2.50876C26.6995 2.04001 25.8909 2.28611 25.8909 3.12986V4.54783H22.8675C22.3519 4.54783 21.9534 4.95798 21.9534 5.46189Z" fill="black" fill-opacity="0.85"/>
</g>
<defs>
<clipPath id="clip0_2207_1999">
<rect width="30.7822" height="21.7148" fill="white" transform="translate(0.00415039 0.106445)"/>
</clipPath>
</defs>
</svg>
