<svg width="24" height="29" viewBox="0 0 24 29" fill="none" xmlns="http://www.w3.org/2000/svg">
<g clip-path="url(#clip0_2207_2047)">
<path d="M0.0861816 14.3304C0.0861816 20.8695 5.51196 26.2835 12.0393 26.2835C18.5784 26.2835 23.9924 20.8695 23.9924 14.3304C23.9924 8.56477 19.7854 3.67805 14.301 2.59993V0.935866C14.301 0.103835 13.7268 -0.118821 13.094 0.33821L9.35571 2.95149C8.81665 3.32649 8.80493 3.88899 9.35571 4.27571L13.0823 6.90071C13.7268 7.36946 14.301 7.1468 14.301 6.30305V4.63899C18.7307 5.6468 21.9885 9.5843 21.9885 14.3304C21.9885 19.8617 17.5706 24.2914 12.0393 24.2914C6.50806 24.2914 2.06665 19.8617 2.07837 14.3304C2.09009 11.0023 3.70727 8.06087 6.20337 6.27962C6.68384 5.91633 6.83618 5.36555 6.54321 4.87337C6.25024 4.3929 5.60571 4.26399 5.09009 4.66243C2.07837 6.85383 0.0861816 10.3929 0.0861816 14.3304Z" fill="black" fill-opacity="0.85"/>
<path d="M5.40649 18.9944H11.7815C12.4964 18.9944 12.7776 18.7131 12.7776 18.1975C12.7776 16.2522 10.7503 14.7288 8.59399 14.7288C6.43774 14.7288 4.4104 16.2522 4.4104 18.1975C4.4104 18.7131 4.69165 18.9944 5.40649 18.9944ZM8.59399 13.8498C9.6604 13.8498 10.5745 12.8889 10.5745 11.6467C10.5745 10.428 9.6604 9.51392 8.59399 9.51392C7.5393 9.51392 6.6018 10.4514 6.6018 11.6584C6.6018 12.8889 7.52759 13.8498 8.59399 13.8498Z" fill="black" fill-opacity="0.85"/>
<path d="M11.5823 19.8264H18.7424C20.2776 19.8264 20.7932 19.0647 20.7932 18.2327C20.7932 16.3108 18.5901 13.9084 15.1682 13.9084C11.7464 13.9084 9.51978 16.2991 9.51978 18.2327C9.51978 18.8772 9.84791 19.8264 11.5823 19.8264Z" fill="white"/>
<path d="M11.5823 18.9944H18.7424C19.6448 18.9944 19.9612 18.7366 19.9612 18.2327C19.9612 16.7678 18.1214 14.7405 15.1682 14.7405C12.2034 14.7405 10.3518 16.7678 10.3518 18.2327C10.3518 18.7366 10.68 18.9944 11.5823 18.9944ZM15.1682 13.7327C16.3987 13.7327 17.4417 12.6194 17.4417 11.1897C17.4417 9.78345 16.387 8.7522 15.1682 8.7522C13.9378 8.7522 12.8831 9.81861 12.8831 11.2014C12.8831 12.6194 13.9378 13.7327 15.1682 13.7327Z" fill="black" fill-opacity="0.85"/>
</g>
<defs>
<clipPath id="clip0_2207_2047">
<rect width="23.9062" height="28.4626" fill="white" transform="translate(0.0861816 0.10498)"/>
</clipPath>
</defs>
</svg>
