<svg width="22" height="22" viewBox="0 0 22 22" fill="none" xmlns="http://www.w3.org/2000/svg">
<g clip-path="url(#clip0_2207_25677)">
<path d="M3.76587 21.7056H17.9807C20.4417 21.7056 21.6604 20.4868 21.6604 18.0727V3.76416C21.6604 1.3501 20.4417 0.131348 17.9807 0.131348H3.76587C1.31665 0.131348 0.0861816 1.33838 0.0861816 3.76416V18.0727C0.0861816 20.4985 1.31665 21.7056 3.76587 21.7056Z" fill="black" fill-opacity="0.85"/>
<path d="M6.43774 10.2212C6.43774 9.85791 6.68384 9.61182 7.02368 9.61182H7.76196V8.8501H7.02368C6.68384 8.8501 6.43774 8.58056 6.43774 8.24072C6.43774 7.88915 6.68384 7.65479 7.02368 7.65479H7.76196V6.21338C7.76196 5.72119 8.06665 5.40479 8.54712 5.40479H11.4651C13.1174 5.40479 14.3831 6.28369 14.9221 7.65479H15.7424C16.094 7.65479 16.3284 7.88915 16.3284 8.24072C16.3284 8.58056 16.094 8.8501 15.7424 8.8501H15.1917C15.2034 9.00244 15.2034 9.10791 15.2034 9.23682C15.2034 9.354 15.2034 9.49463 15.1917 9.61182H15.7424C16.094 9.61182 16.3284 9.85791 16.3284 10.2212C16.3284 10.5493 16.094 10.8071 15.7424 10.8071H14.9339C14.3831 12.2017 13.1174 13.0923 11.4651 13.0923H9.35571V16.1743C9.35571 16.6313 9.02759 16.9595 8.57056 16.9595C8.11352 16.9595 7.76196 16.6313 7.76196 16.1743V10.8071H7.02368C6.68384 10.8071 6.43774 10.5493 6.43774 10.2212ZM9.36743 11.6391H11.219C12.0862 11.6391 12.7424 11.3462 13.1526 10.8071H9.36743V11.6391ZM9.36743 9.61182H13.6331C13.6448 9.49463 13.6448 9.354 13.6448 9.23682C13.6448 9.09619 13.6448 8.96729 13.6331 8.8501H9.36743V9.61182ZM9.36743 7.65479H13.1409C12.7424 7.13916 12.0862 6.84619 11.219 6.84619H9.36743V7.65479Z" fill="white"/>
</g>
<defs>
<clipPath id="clip0_2207_25677">
<rect width="21.5742" height="21.5977" fill="white" transform="translate(0.0861816 0.10791)"/>
</clipPath>
</defs>
</svg>
