<svg width="24" height="25" viewBox="0 0 24 25" fill="none" xmlns="http://www.w3.org/2000/svg">
<g clip-path="url(#clip0_2207_25662)">
<path d="M12.0329 24.0141C18.572 24.0141 23.986 18.5884 23.986 12.061C23.986 5.52197 18.5603 0.10791 12.0212 0.10791C5.49389 0.10791 0.079834 5.52197 0.079834 12.061C0.079834 18.5884 5.50561 24.0141 12.0329 24.0141ZM12.0329 22.022C6.50171 22.022 2.08374 17.5923 2.08374 12.061C2.08374 6.52979 6.48999 2.1001 12.0212 2.1001C17.5525 2.1001 21.9939 6.52979 21.9939 12.061C21.9939 17.5923 17.5642 22.022 12.0329 22.022Z" fill="black" fill-opacity="0.85"/>
<path d="M7.72046 11.3931C7.72046 11.7095 7.96656 11.9673 8.29468 11.9673H9.00953V17.1704C9.00953 17.6157 9.34937 17.9321 9.78296 17.9321C10.2282 17.9321 10.5446 17.6157 10.5446 17.1704V14.1704H12.5954C14.1892 14.1704 15.4196 13.3149 15.947 11.9673H16.7321C17.0603 11.9673 17.3064 11.7095 17.3064 11.3931C17.3064 11.0415 17.0603 10.8071 16.7321 10.8071H16.1931C16.2165 10.6899 16.2165 10.561 16.2165 10.4438C16.2165 10.3149 16.2165 10.2095 16.2048 10.0689H16.7321C17.0603 10.0689 17.3064 9.81103 17.3064 9.48291C17.3064 9.14307 17.0603 8.90869 16.7321 8.90869H15.9353C15.4079 7.58447 14.1892 6.729 12.5954 6.729H9.75953C9.3025 6.729 9.00953 7.03369 9.00953 7.51416V8.90869H8.29468C7.96656 8.90869 7.72046 9.14307 7.72046 9.48291C7.72046 9.81103 7.96656 10.0689 8.29468 10.0689H9.00953V10.8071H8.29468C7.96656 10.8071 7.72046 11.0415 7.72046 11.3931ZM10.5564 12.7759V11.9673H14.236C13.8376 12.4829 13.1931 12.7759 12.3493 12.7759H10.5564ZM10.5564 10.8071V10.0689H14.6814C14.7048 10.186 14.7048 10.3032 14.7048 10.4438C14.7048 10.561 14.7048 10.6899 14.6814 10.8071H10.5564ZM10.5564 8.90869V8.12353H12.3493C13.1931 8.12353 13.8376 8.40479 14.2243 8.90869H10.5564Z" fill="black" fill-opacity="0.85"/>
</g>
<defs>
<clipPath id="clip0_2207_25662">
<rect width="23.9062" height="23.918" fill="white" transform="translate(0.079834 0.10791)"/>
</clipPath>
</defs>
</svg>
