<svg width="26" height="26" viewBox="0 0 26 26" fill="none" xmlns="http://www.w3.org/2000/svg">
<g clip-path="url(#clip0_2207_9286)">
<path d="M7.22168 25.8555C7.7959 25.8555 8.19434 25.5508 8.90918 24.918L12.9521 21.3203H20.4755C23.9677 21.3203 25.8427 19.3867 25.8427 15.9532V6.97656C25.8427 3.54296 23.9677 1.60938 20.4755 1.60938H5.38184C1.88965 1.60938 0.0146484 3.53125 0.0146484 6.97656V15.9532C0.0146484 19.3985 1.88965 21.3203 5.38184 21.3203H5.94434V24.3672C5.94434 25.2696 6.40137 25.8555 7.22168 25.8555ZM7.70215 23.711V20.3125C7.70215 19.6797 7.45606 19.4336 6.82324 19.4336H5.38184C3.01465 19.4336 1.90137 18.2266 1.90137 15.9414V6.97656C1.90137 4.6914 3.01465 3.49609 5.38184 3.49609H20.4755C22.831 3.49609 23.956 4.6914 23.956 6.97656V15.9414C23.956 18.2266 22.831 19.4336 20.4755 19.4336H12.8818C12.2255 19.4336 11.8974 19.5274 11.4521 19.9844L7.70215 23.711Z" fill="black" fill-opacity="0.85"/>
<path d="M10.081 14.2071C12.8232 16.9492 16.3037 18.6836 18.3662 16.6328C18.4365 16.5508 18.4951 16.4805 18.5654 16.3985C19.0927 15.8008 19.2451 15.0156 18.5537 14.4883C18.0146 14.1016 17.4521 13.7032 16.4794 13.0352C15.788 12.543 15.3427 12.6602 14.8154 13.1875L14.3584 13.6446C14.2177 13.7852 13.9834 13.7617 13.831 13.668C13.4208 13.4219 12.7294 12.8711 12.0732 12.2149C11.4287 11.5703 10.8544 10.8438 10.6318 10.4571C10.5498 10.3282 10.4912 10.1172 10.6435 9.96487L11.1123 9.47268C11.6396 8.9219 11.7451 8.50002 11.2529 7.80862L9.81153 5.76956C9.33106 5.07815 8.61621 5.21878 7.81934 5.79299C7.76074 5.83987 7.71387 5.88674 7.66699 5.93362C5.60449 7.99612 7.35059 11.4766 10.081 14.2071Z" fill="black" fill-opacity="0.85"/>
</g>
<defs>
<clipPath id="clip0_2207_9286">
<rect width="25.8281" height="25.7461" fill="white" transform="translate(0.0146484 0.109375)"/>
</clipPath>
</defs>
</svg>
