<svg width="23" height="23" viewBox="0 0 23 23" fill="none" xmlns="http://www.w3.org/2000/svg">
<g clip-path="url(#clip0_2207_9483)">
<path d="M6.04541 16.7134C9.43213 20.1001 13.5454 22.7134 16.9087 22.7134C18.4204 22.7134 19.7446 22.186 20.8111 21.0141C21.4321 20.3227 21.8189 19.5141 21.8189 18.7173C21.8189 18.1313 21.5962 17.5688 21.0454 17.1704L17.4478 14.6157C16.897 14.2407 16.44 14.0532 16.0181 14.0532C15.4907 14.0532 15.0103 14.3579 14.4712 14.8852L13.6392 15.7056C13.5103 15.8345 13.3462 15.8931 13.1939 15.8931C13.0181 15.8931 12.8423 15.8227 12.7251 15.7641C11.9985 15.3774 10.7564 14.311 9.5962 13.1626C8.44775 12.0141 7.38135 10.772 7.00635 10.0454C6.94776 9.9165 6.87745 9.75244 6.87745 9.57666C6.87745 9.42432 6.92431 9.27197 7.05323 9.14307L7.88526 8.2876C8.40088 7.74853 8.71729 7.27979 8.71729 6.74072C8.71729 6.31885 8.51806 5.86182 8.13134 5.31103L5.61181 1.76025C5.20166 1.19775 4.62745 0.95166 3.99463 0.95166C3.2212 0.95166 2.42432 1.30322 1.73291 1.97119C0.596191 3.06103 0.0922852 4.40869 0.0922852 5.89697C0.0922852 9.26025 2.6587 13.3384 6.04541 16.7134Z" fill="black" fill-opacity="0.85"/>
<path d="M21.5142 0.506348C21.2681 0.506348 21.0806 0.588379 20.9048 0.76416L15.854 5.82666L14.0611 7.77197L14.2485 4.33838V2.59229C14.2485 2.13525 13.9087 1.78369 13.4517 1.76025C12.9829 1.73682 12.5728 2.11182 12.5728 2.59229V9.37744C12.5728 9.99853 12.8775 10.3032 13.4985 10.3032H20.3071C20.7876 10.3032 21.1743 9.9165 21.1509 9.43603C21.1275 8.979 20.7642 8.63916 20.3071 8.63916H18.5376L15.0923 8.82666L17.0611 7.03369L22.1001 1.97119C22.2993 1.78369 22.3931 1.57275 22.3931 1.32666C22.3931 0.869629 22.0064 0.506348 21.5142 0.506348Z" fill="black" fill-opacity="0.85"/>
</g>
<defs>
<clipPath id="clip0_2207_9483">
<rect width="22.3008" height="22.6055" fill="white" transform="translate(0.0922852 0.10791)"/>
</clipPath>
</defs>
</svg>
