<svg width="24" height="25" viewBox="0 0 24 25" fill="none" xmlns="http://www.w3.org/2000/svg">
<g clip-path="url(#clip0_2207_9392)">
<path d="M11.9719 24.0156C18.511 24.0156 23.925 18.5899 23.925 12.0625C23.925 5.52344 18.4993 0.109375 11.9602 0.109375C5.43286 0.109375 0.0187988 5.52344 0.0187988 12.0625C0.0187988 18.5899 5.44458 24.0156 11.9719 24.0156ZM11.9719 22.0235C6.44068 22.0235 2.02271 17.5938 2.02271 12.0625C2.02271 6.53126 6.42896 2.10157 11.9602 2.10157C17.4915 2.10157 21.9329 6.53126 21.9329 12.0625C21.9329 17.5938 17.5032 22.0235 11.9719 22.0235Z" fill="black" fill-opacity="0.85"/>
<path d="M9.11255 14.8047C11.843 17.5469 15.3235 19.2813 17.386 17.2305C17.468 17.1485 17.5266 17.0782 17.5852 16.9961C18.1243 16.3985 18.2649 15.6133 17.5852 15.086C17.0461 14.6992 16.4719 14.2891 15.4993 13.6211C14.8196 13.1406 14.3743 13.2578 13.8469 13.7852L13.3782 14.2422C13.2493 14.3711 13.0149 14.3594 12.8626 14.2656C12.4407 14.0196 11.761 13.4688 11.1047 12.8125C10.4602 12.168 9.88599 11.4414 9.65161 11.0547C9.56958 10.9258 9.52271 10.7149 9.67505 10.5625L10.1321 10.0703C10.6594 9.51956 10.7766 9.09768 10.2844 8.40628L8.84302 6.36721C8.35083 5.67581 7.63599 5.81643 6.85083 6.39065C6.79224 6.43752 6.74536 6.4844 6.69849 6.53128C4.62427 8.59378 6.38208 12.0742 9.11255 14.8047Z" fill="black" fill-opacity="0.85"/>
</g>
<defs>
<clipPath id="clip0_2207_9392">
<rect width="23.9062" height="23.918" fill="white" transform="translate(0.0187988 0.109375)"/>
</clipPath>
</defs>
</svg>
