<svg width="24" height="25" viewBox="0 0 24 25" fill="none" xmlns="http://www.w3.org/2000/svg">
<g clip-path="url(#clip0_2207_9473)">
<path d="M11.9553 24.0274C18.4944 24.0274 23.9084 18.6133 23.9084 12.0742C23.9084 5.54688 18.4827 0.121094 11.9436 0.121094C5.41626 0.121094 0.00219727 5.54688 0.00219727 12.0742C0.00219727 18.6133 5.42798 24.0274 11.9553 24.0274Z" fill="black" fill-opacity="0.85"/>
<path d="M8.19361 15.8477C5.38111 13.0235 3.57642 9.43749 5.70923 7.3164C5.75611 7.26953 5.80298 7.22266 5.86158 7.17579C6.67017 6.57813 7.40845 6.4375 7.91236 7.15235L9.40064 9.25C9.91626 9.96485 9.78736 10.3985 9.24829 10.961L8.77954 11.4766C8.61548 11.6289 8.66236 11.8516 8.75611 11.9805C8.99048 12.3789 9.58814 13.1289 10.2444 13.7969C10.9241 14.4649 11.6272 15.0391 12.0608 15.2852C12.2131 15.3906 12.4592 15.4024 12.5881 15.2617L13.0803 14.7813C13.6194 14.2539 14.0764 14.125 14.7795 14.6289C15.7756 15.3086 16.3733 15.7305 16.9241 16.1406C17.6272 16.668 17.4866 17.4883 16.9358 18.1094C16.8655 18.1914 16.8069 18.2617 16.7249 18.3438C14.6038 20.4649 11.0061 18.6719 8.19361 15.8477ZM12.4827 12.2617C12.1077 12.2617 11.8381 12.0156 11.8381 11.6641C11.8381 11.4649 11.8967 11.3242 12.0374 11.1836L14.9788 8.24218L15.8108 7.46875L14.217 7.55079H13.1741C12.8225 7.55079 12.553 7.29296 12.5413 6.95312C12.5178 6.60157 12.8108 6.29688 13.1741 6.29688H17.135C17.5569 6.29688 17.803 6.54296 17.803 6.97656V10.9141C17.803 11.2774 17.51 11.5703 17.1467 11.5586C16.8069 11.5235 16.5608 11.2539 16.5608 10.9141V9.90625L16.6311 8.28907L15.8577 9.14454L12.9163 12.0977C12.8225 12.2149 12.6584 12.2617 12.4827 12.2617Z" fill="white"/>
</g>
<defs>
<clipPath id="clip0_2207_9473">
<rect width="23.9062" height="23.918" fill="white" transform="translate(0.00219727 0.109375)"/>
</clipPath>
</defs>
</svg>
