<svg width="24" height="25" viewBox="0 0 24 25" fill="none" xmlns="http://www.w3.org/2000/svg">
<g clip-path="url(#clip0_2207_9397)">
<path d="M11.9741 24.0274C18.5132 24.0274 23.9272 18.6133 23.9272 12.0742C23.9272 5.54688 18.5015 0.121094 11.9624 0.121094C5.43506 0.121094 0.0209961 5.54688 0.0209961 12.0742C0.0209961 18.6133 5.44678 24.0274 11.9741 24.0274Z" fill="black" fill-opacity="0.85"/>
<path d="M9.04443 14.8984C6.22021 12.0859 4.42724 8.49995 6.54833 6.36714C6.59521 6.32027 6.64208 6.27339 6.7124 6.22652C7.52099 5.62886 8.27099 5.48824 8.76318 6.20308L10.2515 8.30074C10.7554 9.01558 10.6499 9.44917 10.0874 10.0234L9.61865 10.5273C9.4663 10.6913 9.5249 10.9023 9.59521 11.0429C9.8413 11.4531 10.4272 12.1796 11.0952 12.8476C11.7749 13.5273 12.478 14.0898 12.8999 14.3476C13.064 14.4413 13.3101 14.4648 13.439 14.3241L13.9194 13.8554C14.4585 13.3163 14.9272 13.1991 15.6421 13.6913C16.6148 14.3827 17.2124 14.7929 17.7749 15.2031C18.478 15.7304 18.3257 16.5507 17.7866 17.1601C17.7163 17.2421 17.6577 17.3241 17.5757 17.4062C15.4546 19.5273 11.8569 17.7343 9.04443 14.8984Z" fill="white"/>
</g>
<defs>
<clipPath id="clip0_2207_9397">
<rect width="23.9062" height="23.918" fill="white" transform="translate(0.0209961 0.109375)"/>
</clipPath>
</defs>
</svg>
