<svg width="24" height="24" viewBox="0 0 24 24" fill="none" xmlns="http://www.w3.org/2000/svg">
<g clip-path="url(#clip0_2207_9458)">
<path d="M17.1377 23.1119C19.1884 23.1119 20.5361 22.5611 21.7197 21.2252C21.8134 21.1314 21.9072 21.026 21.9892 20.9322C22.6924 20.1471 23.0205 19.3736 23.0205 18.6353C23.0205 17.7916 22.5283 17.0064 21.4853 16.2799L18.0752 13.9127C17.0205 13.1861 15.79 13.1041 14.8056 14.0768L13.9033 14.9791C13.6338 15.2486 13.3994 15.2603 13.1416 15.0963C12.5088 14.6978 11.2314 13.5846 10.3642 12.7174C9.45019 11.815 8.57129 10.8072 8.10254 10.0689C7.95019 9.79937 7.96191 9.57671 8.23144 9.30718L9.12207 8.40484C10.1064 7.42046 10.0244 6.17827 9.29785 5.1353L6.93066 1.72515C6.2041 0.682178 5.41894 0.201709 4.57519 0.18999C3.83691 0.178271 3.06347 0.518115 2.27832 1.22124C2.17285 1.31499 2.0791 1.39702 1.98535 1.47905C0.649414 2.67437 0.0986328 4.02202 0.0986328 6.04937C0.0986328 9.40093 2.16113 13.4791 5.94629 17.2642C9.70801 21.026 13.7978 23.1119 17.1377 23.1119ZM17.1494 21.3072C14.1611 21.3658 10.3291 19.0689 7.29394 16.0455C4.23535 12.9986 1.83301 9.03765 1.8916 6.04937C1.91504 4.7603 2.37207 3.64702 3.28613 2.85015C3.36816 2.77984 3.42675 2.72124 3.50879 2.66265C3.86035 2.35796 4.23535 2.1939 4.57519 2.1939C4.91504 2.1939 5.21972 2.3228 5.44238 2.67437L7.71582 6.08452C7.96191 6.4478 7.98535 6.85796 7.62207 7.22124L6.59082 8.25249C5.78222 9.06108 5.84082 10.0455 6.42675 10.8307C7.09472 11.733 8.25488 13.0455 9.15722 13.9361C10.0479 14.8385 11.4658 16.1041 12.3798 16.7838C13.165 17.3697 14.1494 17.4283 14.958 16.6197L15.9892 15.5885C16.3525 15.2252 16.7509 15.2486 17.1259 15.483L20.5361 17.7564C20.8877 17.9908 21.0166 18.2838 21.0166 18.6353C21.0166 18.9752 20.8525 19.3502 20.5478 19.7018C20.4775 19.7838 20.4306 19.8424 20.3603 19.9244C19.5634 20.8385 18.4502 21.2838 17.1494 21.3072Z" fill="black" fill-opacity="0.85"/>
<path d="M14.208 9.9165C14.4424 9.9165 14.6416 9.83447 14.8174 9.65869L19.8681 4.59619L21.6611 2.65088L21.4619 6.08447V7.83057C21.4619 8.2876 21.8134 8.63916 22.2705 8.6626C22.7392 8.68603 23.1377 8.31103 23.1377 7.83057V1.04541C23.1377 0.424316 22.833 0.10791 22.2236 0.10791H15.415C14.9228 0.10791 14.5478 0.506348 14.5713 0.986816C14.5947 1.44385 14.9463 1.78369 15.415 1.78369H17.1845L20.6298 1.59619L18.6611 3.38916L13.6103 8.45166C13.4228 8.63916 13.3291 8.8501 13.3291 9.09619C13.3291 9.55322 13.7158 9.9165 14.208 9.9165Z" fill="black" fill-opacity="0.85"/>
</g>
<defs>
<clipPath id="clip0_2207_9458">
<rect width="23.0391" height="23.0273" fill="white" transform="translate(0.0986328 0.10791)"/>
</clipPath>
</defs>
</svg>
