<svg width="31" height="28" viewBox="0 0 31 28" fill="none" xmlns="http://www.w3.org/2000/svg">
<g clip-path="url(#clip0_2207_19240)">
<path d="M3.75098 20.0196H19.7588C22.208 20.0196 23.4385 18.8008 23.4385 16.3867V5.33594C23.4385 2.92188 22.208 1.70312 19.7588 1.70312H3.75098C1.30176 1.70312 0.0712891 2.92188 0.0712891 5.33594V16.3867C0.0712891 18.8125 1.30176 20.0196 3.75098 20.0196Z" fill="black" fill-opacity="0.85"/>
<path d="M9.54004 27.0508H25.5479C28.876 27.0508 30.833 25.1172 30.833 21.8125V10.7617C30.833 7.45704 28.876 5.53516 25.5479 5.53516H9.54004C6.2002 5.53516 4.2666 7.45704 4.2666 10.7617V21.8125C4.2666 25.1289 6.2002 27.0508 9.54004 27.0508Z" fill="white"/>
<path d="M9.54004 25.4453H25.5479C27.9971 25.4453 29.2275 24.2266 29.2275 21.8125V10.7617C29.2275 8.34766 27.9971 7.12891 25.5479 7.12891H9.54004C7.09082 7.12891 5.86035 8.34766 5.86035 10.7617V21.8125C5.86035 24.2383 7.09082 25.4453 9.54004 25.4453ZM9.5752 23.5586C8.40332 23.5586 7.74707 22.9375 7.74707 21.7188V20.6524L10.3955 18.3203C10.8525 17.9336 11.2861 17.7461 11.7432 17.7461C12.2471 17.7461 12.7275 17.9336 13.1846 18.3438L15.0596 20.043L19.794 15.8477C20.2861 15.4141 20.7901 15.2266 21.376 15.2266C21.9502 15.2266 22.501 15.4375 22.958 15.8594L27.3408 19.9961V21.7188C27.3408 22.9375 26.6729 23.5586 25.5244 23.5586H9.5752Z" fill="black" fill-opacity="0.85"/>
<path d="M14.2157 16.1172C12.8446 16.1172 11.7314 14.9805 11.7314 13.6094C11.7314 12.2617 12.8446 11.125 14.2157 11.125C15.5868 11.125 16.7001 12.2617 16.7001 13.6094C16.7001 14.9805 15.5868 16.1172 14.2157 16.1172Z" fill="white"/>
</g>
<defs>
<clipPath id="clip0_2207_19240">
<rect width="30.7617" height="26.9414" fill="white" transform="translate(0.0712891 0.109375)"/>
</clipPath>
</defs>
</svg>
