<svg width="24" height="25" viewBox="0 0 24 25" fill="none" xmlns="http://www.w3.org/2000/svg">
<g clip-path="url(#clip0_2207_2318)">
<path d="M12.0035 24.0156C18.5426 24.0156 23.9566 18.5899 23.9566 12.0625C23.9566 5.52344 18.5309 0.109375 11.9918 0.109375C5.46447 0.109375 0.050415 5.52344 0.050415 12.0625C0.050415 18.5899 5.4762 24.0156 12.0035 24.0156Z" fill="black" fill-opacity="0.85"/>
<path d="M5.35901 6.37891H18.6481C18.9762 6.37891 19.1988 6.625 19.1988 6.95313V17.1836C19.1988 17.5235 18.9762 17.7578 18.6481 17.7578H5.35901C5.03089 17.7578 4.81995 17.5235 4.81995 17.1836V6.95313C4.81995 6.625 5.03089 6.37891 5.35901 6.37891ZM5.79261 16.6328C5.79261 16.7383 5.81604 16.75 5.92151 16.75H18.0856C18.2027 16.75 18.2145 16.7383 18.2145 16.6328V7.50391C18.2145 7.41016 18.2027 7.39844 18.0856 7.39844H5.92151C5.81604 7.39844 5.79261 7.41016 5.79261 7.50391V16.6328ZM6.51917 15.5899V8.54688C6.51917 8.28907 6.69495 8.11329 6.96448 8.11329H17.0426C17.3238 8.11329 17.4879 8.28907 17.4879 8.54688V15.5899C17.4879 15.8594 17.3238 16.0352 17.0426 16.0352H6.96448C6.69495 16.0352 6.51917 15.8594 6.51917 15.5899ZM7.30433 14.1836L8.60511 12.9883C8.80433 12.8242 9.01526 12.7188 9.24964 12.7188C9.48401 12.7188 9.73011 12.8242 9.92933 13L10.7379 13.7266L12.7652 11.8867C12.9879 11.6992 13.234 11.6172 13.527 11.6172C13.7848 11.6172 14.0543 11.7227 14.2652 11.9102L16.7027 14.1953V8.94532C16.7027 8.88672 16.7145 8.88672 16.6676 8.88672H7.33948C7.31604 8.88672 7.30433 8.88672 7.30433 8.94532V14.1836ZM8.79261 10.9375C8.79261 10.2813 9.31995 9.75391 9.9762 9.75391C10.6324 9.75391 11.1598 10.2813 11.1598 10.9375C11.1598 11.5821 10.6324 12.1094 9.9762 12.1094C9.31995 12.1094 8.79261 11.5821 8.79261 10.9375Z" fill="white"/>
</g>
<defs>
<clipPath id="clip0_2207_2318">
<rect width="23.9062" height="23.918" fill="white" transform="translate(0.050415 0.109375)"/>
</clipPath>
</defs>
</svg>
