<svg width="28" height="22" viewBox="0 0 28 22" fill="none" xmlns="http://www.w3.org/2000/svg">
<g clip-path="url(#clip0_2207_2307)">
<path d="M0.983643 0.109375C0.421143 0.109375 0.0461426 0.484375 0.0461426 1.04688V20.7578C0.0461426 21.3203 0.421143 21.6836 0.983643 21.6836H26.7531C27.3156 21.6836 27.6789 21.3203 27.6789 20.7578V1.04688C27.6789 0.484375 27.3156 0.109375 26.7531 0.109375H0.983643ZM2.2727 1.99609H25.4523C25.7102 1.99609 25.7922 2.08985 25.7922 2.33594V19.4571C25.7922 19.7149 25.7102 19.7969 25.4523 19.7969H2.2727C2.02661 19.7969 1.93286 19.7149 1.93286 19.4571V2.33594C1.93286 2.08985 2.02661 1.99609 2.2727 1.99609Z" fill="black" fill-opacity="0.85"/>
<path d="M3.8899 3.26172C3.44459 3.26172 3.19849 3.50782 3.19849 3.94141V17.8633C3.19849 18.2852 3.44459 18.543 3.8899 18.543H23.8469C24.2805 18.543 24.5383 18.2852 24.5383 17.8633V3.94141C24.5383 3.50782 24.2805 3.26172 23.8469 3.26172H3.8899ZM4.6399 4.44532H23.0852C23.2609 4.44532 23.3547 4.53907 23.3547 4.71485V17.0899C23.3547 17.2656 23.2609 17.3594 23.0852 17.3594H4.6399C4.46412 17.3594 4.38209 17.2656 4.38209 17.0899V4.71485C4.38209 4.53907 4.46412 4.44532 4.6399 4.44532ZM23.6477 15.7891L18.2336 10.7266C17.8234 10.3399 17.3547 10.1641 16.8625 10.1641C16.3469 10.1641 15.8899 10.3164 15.4797 10.7032L11.343 14.4063L9.65553 12.8711C9.28053 12.5196 8.84693 12.3555 8.41334 12.3555C8.0149 12.3555 7.62818 12.5196 7.24146 12.8594L3.76099 16.0117V16.9492C3.76099 17.6992 4.18287 18.0156 4.80396 18.0156H22.593C23.2258 18.0156 23.6477 17.6992 23.6477 16.9492V15.7891Z" fill="black" fill-opacity="0.85"/>
<path d="M9.85474 10.8086C11.0383 10.8086 12.0109 9.83593 12.0109 8.65234C12.0109 7.46875 11.0383 6.49609 9.85474 6.49609C8.67115 6.49609 7.69849 7.46875 7.69849 8.65234C7.69849 9.83593 8.67115 10.8086 9.85474 10.8086Z" fill="black" fill-opacity="0.85"/>
</g>
<defs>
<clipPath id="clip0_2207_2307">
<rect width="27.6328" height="21.5742" fill="white" transform="translate(0.0461426 0.109375)"/>
</clipPath>
</defs>
</svg>
