<svg width="30" height="24" viewBox="0 0 30 24" fill="none" xmlns="http://www.w3.org/2000/svg">
<g clip-path="url(#clip0_2207_14866)">
<path d="M28.0312 15.6953L21.0586 9.15625C20.5429 8.67579 19.9336 8.44141 19.289 8.44141C18.6562 8.44141 18.0703 8.66407 17.5312 9.14454L11.5078 14.5235H12.0234L9.12891 11.9102C8.64844 11.4649 8.10937 11.2422 7.55859 11.2422C7.01953 11.2422 6.51562 11.4649 6.04687 11.8985L1.57031 15.9414C1.57031 17.5 2.17969 18.3086 3.38672 18.3086H25.6992C27.1875 18.3086 28.0312 17.3594 28.0312 15.6953ZM3.09375 19.5742H26.3672C28.2422 19.5742 29.3789 18.4258 29.3789 16.5625V3.12109C29.3789 1.25781 28.2422 0.109375 26.3672 0.109375H3.09375C1.23047 0.109375 0.0820312 1.25781 0.0820312 3.12109V16.5625C0.0820312 18.4258 1.23047 19.5742 3.09375 19.5742ZM3.12891 17.6875C2.40234 17.6875 1.96875 17.2539 1.96875 16.5391V3.14454C1.96875 2.42969 2.40234 1.99609 3.12891 1.99609H26.332C27.0586 1.99609 27.4922 2.42969 27.4922 3.14454V16.5391C27.4922 17.2539 27.0586 17.6875 26.332 17.6875H3.12891ZM8.83594 23.5469H20.625C21.1406 23.5469 21.5742 23.125 21.5742 22.5977C21.5742 22.0703 21.1406 21.6485 20.625 21.6485H8.83594C8.32031 21.6485 7.88672 22.0703 7.88672 22.5977C7.88672 23.125 8.32031 23.5469 8.83594 23.5469Z" fill="black" fill-opacity="0.85"/>
<path d="M9.63281 9.29688C11.1328 9.29688 12.375 8.05469 12.375 6.50782C12.375 4.9961 11.1328 3.75391 9.63281 3.75391C8.10937 3.75391 6.85547 4.9961 6.85547 6.50782C6.85547 8.05469 8.10937 9.29688 9.63281 9.29688Z" fill="black" fill-opacity="0.85"/>
</g>
<defs>
<clipPath id="clip0_2207_14866">
<rect width="29.2969" height="23.4492" fill="white" transform="translate(0.0820312 0.109375)"/>
</clipPath>
</defs>
</svg>
