<svg width="24" height="25" viewBox="0 0 24 25" fill="none" xmlns="http://www.w3.org/2000/svg">
<g clip-path="url(#clip0_2207_19000)">
<path d="M12.0202 24.0156C18.5593 24.0156 23.9733 18.5899 23.9733 12.0625C23.9733 5.52344 18.5476 0.109375 12.0085 0.109375C5.4812 0.109375 0.0671387 5.52344 0.0671387 12.0625C0.0671387 18.5899 5.49292 24.0156 12.0202 24.0156Z" fill="black" fill-opacity="0.85"/>
<path d="M6.96948 17.4414C5.77417 17.4414 5.15308 16.8321 5.15308 15.6367V8.53516C5.15308 7.33985 5.77417 6.74219 6.96948 6.74219H17.0476C18.2546 6.74219 18.864 7.33985 18.864 8.53516V15.6367C18.864 16.8203 18.2546 17.4414 17.0476 17.4414H6.96948ZM7.01636 16.3399H17.0007C17.4812 16.3399 17.7624 16.0469 17.7624 15.5782V14.5235L15.2546 12.2383C14.9851 11.9922 14.6452 11.8516 14.3288 11.8633C13.989 11.8516 13.6726 11.9922 13.3913 12.2383L10.6257 14.6992L9.50073 13.6914C9.24292 13.4688 8.94995 13.3516 8.6687 13.3516C8.41089 13.3516 8.12964 13.4688 7.87183 13.6797L6.25464 15.0508V15.5782C6.25464 16.0469 6.53589 16.3399 7.01636 16.3399ZM9.51245 12.2383C10.2976 12.2383 10.9421 11.5938 10.9421 10.7969C10.9421 10.0117 10.2976 9.36719 9.51245 9.36719C8.71558 9.36719 8.07105 10.0117 8.07105 10.7969C8.07105 11.5938 8.71558 12.2383 9.51245 12.2383Z" fill="white"/>
</g>
<defs>
<clipPath id="clip0_2207_19000">
<rect width="23.9062" height="23.918" fill="white" transform="translate(0.0671387 0.109375)"/>
</clipPath>
</defs>
</svg>
