<svg width="28" height="26" viewBox="0 0 28 26" fill="none" xmlns="http://www.w3.org/2000/svg">
<g clip-path="url(#clip0_2207_17918)">
<path d="M1.75928 18.4961C3.99756 20.711 6.91553 20.7227 9.11866 18.5196L17.8609 9.77735C20.064 7.57422 20.064 4.6211 17.8374 2.41797C15.6109 0.203128 12.6812 0.203128 10.4781 2.40626L1.74756 11.1367C-0.455563 13.3399 -0.455563 16.293 1.75928 18.4961ZM3.10694 17.1485C1.71241 15.7539 1.75928 13.8086 3.21241 12.3555L11.6968 3.8711C13.1499 2.40626 15.0952 2.35938 16.4898 3.76563C17.896 5.17188 17.8491 7.10547 16.3843 8.57032L7.91162 17.043C6.44678 18.5078 4.51319 18.5547 3.10694 17.1485ZM6.28272 8.27735L11.9898 13.9727L13.3374 12.625L7.63037 6.92969L6.28272 8.27735ZM21.4234 25.0117C24.9741 25.0117 27.8335 22.1524 27.8335 18.6133C27.8335 15.1094 24.9624 12.2383 21.4234 12.2383C17.9077 12.2383 15.0366 15.1094 15.0366 18.6133C15.0366 22.1406 17.9077 25.0117 21.4234 25.0117ZM21.4234 23.125C18.939 23.125 16.9234 21.0977 16.9234 18.6133C16.9234 16.1406 18.9507 14.125 21.4234 14.125C23.9195 14.125 25.9468 16.1406 25.9468 18.6133C25.9468 21.1211 23.9312 23.125 21.4234 23.125ZM16.1031 19.5742H26.7554V17.6641H16.1031V19.5742Z" fill="black" fill-opacity="0.85"/>
</g>
<defs>
<clipPath id="clip0_2207_17918">
<rect width="27.7368" height="24.9023" fill="white" transform="translate(0.0966797 0.109375)"/>
</clipPath>
</defs>
</svg>
