<svg width="22" height="22" viewBox="0 0 22 22" fill="none" xmlns="http://www.w3.org/2000/svg">
<g clip-path="url(#clip0_2207_12898)">
<path d="M3.69849 21.7081H17.9133C20.3743 21.7081 21.593 20.4893 21.593 18.0752V3.7666C21.593 1.35254 20.3743 0.133789 17.9133 0.133789H3.69849C1.24927 0.133789 0.0187988 1.34082 0.0187988 3.7666V18.0752C0.0187988 20.501 1.24927 21.7081 3.69849 21.7081Z" fill="black" fill-opacity="0.85"/>
<path d="M6.06568 13.1768C6.06568 11.8995 7.09692 10.5166 8.8313 9.90723L9.0188 7.07129C8.15161 6.5791 7.43677 6.0166 7.10864 5.60644C6.93286 5.38379 6.83911 5.16113 6.83911 4.96191C6.83911 4.58691 7.13208 4.31738 7.56568 4.31738H14.0813C14.5149 4.31738 14.8079 4.58691 14.8079 4.96191C14.8079 5.16113 14.7141 5.37207 14.5618 5.59473C14.2336 6.00488 13.5071 6.56738 12.6282 7.07129L12.8274 9.90723C14.55 10.5166 15.5813 11.8995 15.5813 13.1768C15.5813 13.7159 15.2415 14.044 14.6907 14.044H11.5735V16.2002C11.5735 17.5127 11.0461 18.6026 10.8235 18.6026C10.6008 18.6026 10.0735 17.5127 10.0735 16.2002V14.044H6.9563C6.41724 14.044 6.06568 13.7159 6.06568 13.1768Z" fill="white"/>
</g>
<defs>
<clipPath id="clip0_2207_12898">
<rect width="21.5742" height="21.5977" fill="white" transform="translate(0.0187988 0.110352)"/>
</clipPath>
</defs>
</svg>
