<svg width="22" height="22" viewBox="0 0 22 22" fill="none" xmlns="http://www.w3.org/2000/svg">
<g clip-path="url(#clip0_2207_12893)">
<path d="M3.69654 21.7081H17.9113C20.3723 21.7081 21.591 20.4893 21.591 18.0752V3.7666C21.591 1.35254 20.3723 0.133789 17.9113 0.133789H3.69654C1.24732 0.133789 0.0168457 1.34082 0.0168457 3.7666V18.0752C0.0168457 20.501 1.24732 21.7081 3.69654 21.7081ZM3.71997 19.8213C2.5481 19.8213 1.90357 19.2002 1.90357 17.9815V3.86035C1.90357 2.6416 2.5481 2.02051 3.71997 2.02051H17.8879C19.048 2.02051 19.7043 2.6416 19.7043 3.86035V17.9815C19.7043 19.2002 19.048 19.8213 17.8879 19.8213H3.71997Z" fill="black" fill-opacity="0.85"/>
<path d="M6.20435 13.1298C6.20435 13.6455 6.54419 13.9619 7.07154 13.9619H10.0949V16.0595C10.0949 17.3369 10.6106 18.3916 10.8215 18.3916C11.0324 18.3916 11.548 17.3369 11.548 16.0595V13.9619H14.5715C15.1106 13.9619 15.4387 13.6455 15.4387 13.1298C15.4387 11.8876 14.4309 10.5517 12.7668 9.9541L12.5676 7.20019C13.423 6.71973 14.1262 6.16894 14.4426 5.77051C14.5949 5.55957 14.677 5.34863 14.677 5.16113C14.677 4.79785 14.3957 4.54004 13.9738 4.54004H7.66919C7.24732 4.54004 6.96607 4.79785 6.96607 5.16113C6.96607 5.34863 7.0481 5.57129 7.22388 5.78223C7.54029 6.18066 8.23169 6.73144 9.07544 7.20019L8.88794 9.9541C7.21216 10.5517 6.20435 11.8876 6.20435 13.1298Z" fill="black" fill-opacity="0.85"/>
</g>
<defs>
<clipPath id="clip0_2207_12893">
<rect width="21.5742" height="21.5977" fill="white" transform="translate(0.0168457 0.110352)"/>
</clipPath>
</defs>
</svg>
