<svg width="31" height="25" viewBox="0 0 31 25" fill="none" xmlns="http://www.w3.org/2000/svg">
<g clip-path="url(#clip0_2207_15129)">
<path d="M3.70484 19.2588H20.8024C23.2517 19.2588 24.4704 18.0401 24.4704 15.626V3.7666C24.4704 1.35254 23.2517 0.133789 20.8024 0.133789H3.70484C1.2439 0.133789 0.0251465 1.35254 0.0251465 3.7666V15.626C0.0251465 18.0401 1.2439 19.2588 3.70484 19.2588ZM1.91187 15.5206V3.87207C1.91187 2.65332 2.5564 2.02051 3.72827 2.02051H20.7673C21.9274 2.02051 22.5837 2.65332 22.5837 3.87207V15.5206C22.5837 16.7393 21.9392 17.3721 20.7673 17.3721H3.72827C2.57984 17.3721 1.91187 16.7393 1.91187 15.5206Z" fill="black" fill-opacity="0.85"/>
<path d="M4.50171 8.93456C4.54859 9.28612 5.00562 9.68456 5.45093 9.22753L6.75171 7.93846L8.67359 9.86034C8.95484 10.1415 9.41187 10.1415 9.70484 9.86034C9.98609 9.57909 9.98609 9.11034 9.70484 8.82909L7.78296 6.90722L9.07203 5.60643C9.52906 5.16112 9.13062 4.70409 8.77906 4.65722L4.53687 4.00096C4.33765 3.96581 4.13843 4.03612 3.99781 4.16503C3.88062 4.29393 3.81031 4.49315 3.83374 4.69237L4.50171 8.93456Z" fill="black" fill-opacity="0.85"/>
<path d="M15.2009 24.6846H26.7204C29.1579 24.6846 30.3884 23.4659 30.3884 21.0518V13.4581C30.3884 11.044 29.1579 9.8252 26.7204 9.8252H15.2009C12.7517 9.8252 11.5212 11.0323 11.5212 13.4581V21.0518C11.5212 23.4659 12.7517 24.6846 15.2009 24.6846Z" fill="white"/>
<path d="M15.2009 24.6846H26.7204C29.1579 24.6846 30.3884 23.4659 30.3884 21.0518V13.4581C30.3884 11.044 29.1579 9.8252 26.7204 9.8252H15.2009C12.7517 9.8252 11.5212 11.0323 11.5212 13.4581V21.0518C11.5212 23.4659 12.7517 24.6846 15.2009 24.6846Z" fill="black" fill-opacity="0.85"/>
</g>
<defs>
<clipPath id="clip0_2207_15129">
<rect width="30.3633" height="24.5742" fill="white" transform="translate(0.0251465 0.110352)"/>
</clipPath>
</defs>
</svg>
