<svg width="16" height="25" viewBox="0 0 16 25" fill="none" xmlns="http://www.w3.org/2000/svg">
<g clip-path="url(#clip0_2207_13690)">
<path d="M0.0566406 21.8721C0.0566406 23.7002 1.33398 24.919 3.24414 24.919H11.9277C13.8378 24.919 15.1152 23.7002 15.1152 21.8721V3.15723C15.1152 1.3291 13.8378 0.110352 11.9277 0.110352H3.24414C1.33398 0.110352 0.0566406 1.3291 0.0566406 3.15723V21.8721ZM1.94336 21.5674V3.46191C1.94336 2.52441 2.49414 1.99707 3.49023 1.99707H11.6933C12.6777 1.99707 13.2285 2.52441 13.2285 3.46191V21.5674C13.2285 22.5049 12.6777 23.0323 11.6933 23.0323H3.49023C2.49414 23.0323 1.94336 22.5049 1.94336 21.5674Z" fill="black" fill-opacity="0.85"/>
<path d="M4.3457 11.2198C4.3457 11.5948 4.60352 11.8409 4.95508 11.8409C5.14258 11.8526 5.2832 11.7706 5.41211 11.6534L6.36133 10.7159L7.00586 9.90723L6.94726 11.4073V14.712C6.94726 15.0752 7.2168 15.3448 7.5918 15.3448C7.9668 15.3448 8.22461 15.0752 8.22461 14.712V11.4073L8.17773 9.90723L8.82226 10.7159L9.75976 11.6534C9.88867 11.7706 10.0293 11.8526 10.2168 11.8409C10.58 11.8409 10.8378 11.5948 10.8378 11.2198C10.8378 11.0557 10.791 10.8916 10.6738 10.7745L8.07226 8.19629C7.93164 8.05566 7.75586 7.97363 7.5918 7.97363C7.41602 7.97363 7.24023 8.05566 7.09961 8.19629L4.49805 10.7745C4.38086 10.8916 4.3457 11.0557 4.3457 11.2198ZM4.48633 7.01269H10.6972C11.3183 7.01269 11.7402 6.60254 11.7402 5.94629V4.55176C11.7402 3.90723 11.3183 3.48535 10.6972 3.48535H4.48633C3.85352 3.48535 3.44336 3.90723 3.44336 4.55176V5.94629C3.44336 6.60254 3.85352 7.01269 4.48633 7.01269Z" fill="black" fill-opacity="0.85"/>
</g>
<defs>
<clipPath id="clip0_2207_13690">
<rect width="15.0586" height="24.832" fill="white" transform="translate(0.0566406 0.110352)"/>
</clipPath>
</defs>
</svg>
