<svg width="22" height="23" viewBox="0 0 22 23" fill="none" xmlns="http://www.w3.org/2000/svg">
<g clip-path="url(#clip0_2207_14164)">
<path d="M5.31006 22.5284H14.2397C17.5327 22.5284 19.5014 20.5245 19.5014 17.1729V5.48926C19.5014 2.13769 17.5327 0.145508 14.2397 0.145508H5.31006C2.01709 0.145508 0.0483398 2.13769 0.0483398 5.48926V17.1729C0.0483398 20.5245 2.01709 22.5284 5.31006 22.5284ZM5.22803 20.6416C3.16553 20.6416 1.93506 19.3877 1.93506 17.2549V5.46582C1.93506 3.34473 3.16553 2.09082 5.22803 2.09082H14.3217C16.396 2.09082 17.6147 3.34473 17.6147 5.46582V17.2549C17.6147 19.3877 16.396 20.6416 14.3217 20.6416H5.22803ZM19.2905 10.1064H19.8178C20.5678 10.1064 21.0483 9.59082 21.0483 8.78223V6.82519C21.0483 5.99316 20.5678 5.47754 19.8178 5.47754H19.2905V10.1064Z" fill="black" fill-opacity="0.85"/>
<path d="M3.49365 17.4072C3.49365 18.4384 4.09131 19.0712 5.07568 19.0712H14.4858C15.4585 19.0712 16.0561 18.4384 16.0561 17.4072V15.3447C16.0561 14.3134 15.4585 13.6689 14.4858 13.6689H5.07568C4.09131 13.6689 3.49365 14.3134 3.49365 15.3447V17.4072ZM4.79443 17.3369V15.415C4.79443 15.1455 4.9585 14.9697 5.22803 14.9697H14.3335C14.603 14.9697 14.7553 15.1455 14.7553 15.415V17.3369C14.7553 17.6064 14.603 17.7705 14.3335 17.7705H5.22803C4.9585 17.7705 4.79443 17.6064 4.79443 17.3369Z" fill="black" fill-opacity="0.85"/>
</g>
<defs>
<clipPath id="clip0_2207_14164">
<rect width="21" height="22.418" fill="white" transform="translate(0.0483398 0.110352)"/>
</clipPath>
</defs>
</svg>
