<svg width="29" height="25" viewBox="0 0 29 25" fill="none" xmlns="http://www.w3.org/2000/svg">
<g clip-path="url(#clip0_2207_13121)">
<path d="M2.7688 20.3838H25.304C26.9915 20.3838 28.011 19.3643 28.011 17.6768V3.62597C28.011 1.93847 26.9915 0.930664 25.304 0.930664H2.7688C1.09302 0.930664 0.0734863 1.93847 0.0734863 3.62597V17.6768C0.0734863 19.3643 1.09302 20.3838 2.7688 20.3838ZM2.80396 18.4971C2.28833 18.4971 1.96021 18.169 1.96021 17.6534V3.66113C1.96021 3.13379 2.28833 2.81738 2.80396 2.81738H25.2805C25.7962 2.81738 26.1243 3.13379 26.1243 3.66113V17.6534C26.1243 18.169 25.7962 18.4971 25.2805 18.4971H2.80396ZM10.3391 23.1729H17.7454V20.2315H10.3391V23.1729ZM10.2688 24.544H17.8157C18.3313 24.544 18.7532 24.1221 18.7532 23.5948C18.7532 23.0674 18.3313 22.6456 17.8157 22.6456H10.2688C9.75318 22.6456 9.31958 23.0674 9.31958 23.5948C9.31958 24.1221 9.75318 24.544 10.2688 24.544Z" fill="black" fill-opacity="0.85"/>
<path d="M11.136 14.3955C11.136 14.8876 11.6399 15.0634 12.0383 14.8408L18.3196 11.1376C18.7063 10.9033 18.6946 10.3994 18.3079 10.1767L12.0383 6.48532C11.6399 6.25094 11.136 6.42673 11.136 6.91891V14.3955Z" fill="black" fill-opacity="0.85"/>
</g>
<defs>
<clipPath id="clip0_2207_13121">
<rect width="27.9375" height="24.4336" fill="white" transform="translate(0.0734863 0.110352)"/>
</clipPath>
</defs>
</svg>
