<svg width="18" height="20" viewBox="0 0 18 20" fill="none" xmlns="http://www.w3.org/2000/svg">
<g clip-path="url(#clip0_2207_5050)">
<path d="M1.47144 19.9737C1.94019 19.9737 2.33863 19.7862 2.80738 19.5166L16.4714 11.6182C17.4441 11.044 17.784 10.669 17.784 10.0479C17.784 9.42676 17.4441 9.05176 16.4714 8.48926L2.80738 0.579102C2.33863 0.309571 1.94019 0.133789 1.47144 0.133789C0.604248 0.133789 0.0651855 0.79004 0.0651855 1.80957V18.2862C0.0651855 19.3057 0.604248 19.9737 1.47144 19.9737ZM2.0691 17.7354C1.99878 17.7354 1.95191 17.6885 1.95191 17.5948V2.50097C1.95191 2.40723 1.99878 2.36035 2.0691 2.36035C2.11597 2.36035 2.16285 2.38379 2.20972 2.41894L15.1824 9.91894C15.241 9.9541 15.2879 9.98926 15.2879 10.0479C15.2879 10.1064 15.241 10.1534 15.1824 10.1768L2.20972 17.6885C2.16285 17.712 2.11597 17.7354 2.0691 17.7354Z" fill="black" fill-opacity="0.85"/>
</g>
<defs>
<clipPath id="clip0_2207_5050">
<rect width="17.7188" height="19.8633" fill="white" transform="translate(0.0651855 0.110352)"/>
</clipPath>
</defs>
</svg>
