<svg width="29" height="27" viewBox="0 0 29 27" fill="none" xmlns="http://www.w3.org/2000/svg">
<g clip-path="url(#clip0_2207_10821)">
<path d="M6.10108 24.7227H21.9565C23.6206 24.7227 24.5932 23.7735 24.5932 22.1329V9.18359L22.7065 7.89453V21.6524C22.7065 22.4141 22.2964 22.836 21.5581 22.836H6.49952C5.74952 22.836 5.33936 22.4141 5.33936 21.6524V7.90625L3.45264 9.18359V22.1329C3.45264 23.7735 4.4253 24.7227 6.10108 24.7227ZM0.0776367 11.6797C0.0776367 12.1602 0.452637 12.6172 1.08545 12.6172C1.41358 12.6172 1.68311 12.4415 1.9292 12.2422L13.6596 2.39844C13.9174 2.16406 14.2338 2.16406 14.4917 2.39844L26.2221 12.2422C26.4565 12.4415 26.726 12.6172 27.0542 12.6172C27.6049 12.6172 28.0503 12.2774 28.0503 11.7149C28.0503 11.3633 27.9331 11.129 27.687 10.918L15.4878 0.664062C14.6206 -0.0742187 13.5424 -0.0742187 12.6635 0.664062L0.452637 10.918C0.194825 11.129 0.0776367 11.4102 0.0776367 11.6797ZM21.6518 6.39453L24.5932 8.8789V3.46484C24.5932 2.94922 24.2651 2.62109 23.7495 2.62109H22.4956C21.9917 2.62109 21.6518 2.94922 21.6518 3.46484V6.39453Z" fill="black" fill-opacity="0.85"/>
<path d="M10.6831 18.992C10.6831 19.5545 11.2924 19.7772 11.7495 19.5077L19.1909 15.1248C19.6479 14.8553 19.6362 14.2459 19.1792 13.9881L11.7495 9.61707C11.2924 9.33582 10.6831 9.54675 10.6831 10.1327V18.992Z" fill="black" fill-opacity="0.85"/>
</g>
<defs>
<clipPath id="clip0_2207_10821">
<rect width="27.9727" height="26.5957" fill="white" transform="translate(0.0776367 0.110352)"/>
</clipPath>
</defs>
</svg>
