<svg width="22" height="22" viewBox="0 0 22 22" fill="none" xmlns="http://www.w3.org/2000/svg">
<g clip-path="url(#clip0_2207_5073)">
<path d="M3.68189 21.7095H17.8967C20.3577 21.7095 21.5764 20.4907 21.5764 18.0766V3.76807C21.5764 1.35401 20.3577 0.135254 17.8967 0.135254H3.68189C1.23267 0.135254 0.00219727 1.34229 0.00219727 3.76807V18.0766C0.00219727 20.5024 1.23267 21.7095 3.68189 21.7095Z" fill="black" fill-opacity="0.85"/>
<path d="M8.5686 15.6274C8.0061 15.9673 7.36157 15.6977 7.36157 15.1118V6.70946C7.36157 6.13524 8.05297 5.88914 8.5686 6.19383L15.4475 10.272C15.9397 10.5649 15.9514 11.268 15.4475 11.5727L8.5686 15.6274Z" fill="white"/>
</g>
<defs>
<clipPath id="clip0_2207_5073">
<rect width="21.5742" height="21.5977" fill="white" transform="translate(0.00219727 0.111816)"/>
</clipPath>
</defs>
</svg>
