<svg width="28" height="22" viewBox="0 0 28 22" fill="none" xmlns="http://www.w3.org/2000/svg">
<g clip-path="url(#clip0_2207_5078)">
<path d="M3.76367 21.6846H24.0371C26.4981 21.6846 27.7168 20.4776 27.7168 18.0635V3.74316C27.7168 1.3291 26.4981 0.110352 24.0371 0.110352H3.76367C1.31445 0.110352 0.0839844 1.3291 0.0839844 3.74316V18.0635C0.0839844 20.4776 1.31445 21.6846 3.76367 21.6846ZM3.7871 19.7979C2.61523 19.7979 1.9707 19.1768 1.9707 17.9581V3.84863C1.9707 2.62988 2.61523 1.99707 3.7871 1.99707H24.0137C25.1738 1.99707 25.8301 2.62988 25.8301 3.84863V17.9581C25.8301 19.1768 25.1738 19.7979 24.0137 19.7979H3.7871Z" fill="black" fill-opacity="0.85"/>
<path d="M11.7207 15.4736L18.4004 11.5244C18.8926 11.2431 18.8809 10.5634 18.4004 10.2705L11.7207 6.32127C11.2285 6.0283 10.5488 6.25095 10.5488 6.82517V14.9697C10.5488 15.5322 11.1817 15.8017 11.7207 15.4736Z" fill="black" fill-opacity="0.85"/>
</g>
<defs>
<clipPath id="clip0_2207_5078">
<rect width="27.6328" height="21.5742" fill="white" transform="translate(0.0839844 0.110352)"/>
</clipPath>
</defs>
</svg>
