<svg width="29" height="27" viewBox="0 0 29 27" fill="none" xmlns="http://www.w3.org/2000/svg">
<g clip-path="url(#clip0_2207_10826)">
<path d="M3.73608 22.1329C3.73608 23.7618 4.72045 24.7227 6.3728 24.7227H21.7829C23.4353 24.7227 24.4079 23.7618 24.4079 22.1329V12.8516L14.7751 4.77734C14.3298 4.40234 13.8025 4.41406 13.3689 4.77734L3.73608 12.8516V22.1329ZM0.079834 11.6797C0.079834 12.1602 0.454834 12.6172 1.08764 12.6172C1.41577 12.6172 1.6853 12.4415 1.93139 12.2422L13.6618 2.39844C13.9196 2.16406 14.236 2.16406 14.4939 2.39844L26.2243 12.2422C26.4587 12.4415 26.7282 12.6172 27.0564 12.6172C27.6071 12.6172 28.0525 12.2774 28.0525 11.7149C28.0525 11.3633 27.9353 11.129 27.6892 10.918L15.49 0.664062C14.6228 -0.0742187 13.5446 -0.0742187 12.6657 0.664062L0.454834 10.918C0.197022 11.129 0.079834 11.4102 0.079834 11.6797ZM21.4665 6.39453L24.4079 8.8789V3.46484C24.4079 2.94922 24.0798 2.62109 23.5642 2.62109H22.3103C21.8064 2.62109 21.4665 2.94922 21.4665 3.46484V6.39453Z" fill="black" fill-opacity="0.85"/>
<path d="M11.0017 20.3282V11.8555C11.0017 11.3047 11.5876 11.1055 12.0329 11.3633L19.1345 15.5586C19.5564 15.793 19.5681 16.379 19.1462 16.6368L12.0329 20.8204C11.5876 21.0899 11.0017 20.879 11.0017 20.3282Z" fill="white"/>
</g>
<defs>
<clipPath id="clip0_2207_10826">
<rect width="27.9727" height="26.5957" fill="white" transform="translate(0.079834 0.110352)"/>
</clipPath>
</defs>
</svg>
