<svg width="22" height="24" viewBox="0 0 22 24" fill="none" xmlns="http://www.w3.org/2000/svg">
<g clip-path="url(#clip0_2207_5112)">
<path d="M5.38672 21.7006C5.85547 21.7006 6.2539 21.5131 6.72265 21.2436L20.3867 13.3452C21.3593 12.771 21.6992 12.396 21.6992 11.7749C21.6992 11.1538 21.3593 10.7788 20.3867 10.2163L6.72265 2.30615C6.2539 2.03662 5.85547 1.86084 5.38672 1.86084C4.51953 1.86084 3.98047 2.51709 3.98047 3.53662V20.0131C3.98047 21.0327 4.51953 21.7006 5.38672 21.7006Z" fill="black" fill-opacity="0.85"/>
<path d="M18.1015 21.314C19.0039 22.2046 20.457 22.2046 21.3242 21.2906C22.1914 20.4 22.1914 18.982 21.3125 18.1031L3.98047 0.782722C3.10156 -0.107903 1.64843 -0.119621 0.757813 0.782722C-0.121094 1.64991 -0.121094 3.11475 0.757813 3.99366L18.1015 21.314Z" fill="white"/>
<path d="M19.0742 20.3413C19.4257 20.6928 20.0117 20.6928 20.3515 20.3413C20.6914 19.9897 20.7031 19.4155 20.3515 19.0639L3.01953 1.74365C2.66797 1.39209 2.08203 1.39209 1.73047 1.74365C1.39062 2.08349 1.39062 2.68115 1.73047 3.02099L19.0742 20.3413Z" fill="black" fill-opacity="0.85"/>
</g>
<defs>
<clipPath id="clip0_2207_5112">
<rect width="21.8745" height="23.3174" fill="white" transform="translate(0.0986328 0.110352)"/>
</clipPath>
</defs>
</svg>
