<svg width="25" height="32" viewBox="0 0 25 32" fill="none" xmlns="http://www.w3.org/2000/svg">
<g clip-path="url(#clip0_2207_5088)">
<path d="M8.41821 13.647H15.9182C16.9611 13.647 17.5705 13.061 17.5705 12.0298V3.63915C17.5705 2.6079 16.9611 2.02197 15.9182 2.02197H8.41821C7.37524 2.02197 6.76587 2.6079 6.76587 3.63915V12.0298C6.76587 13.061 7.37524 13.647 8.41821 13.647Z" fill="black" fill-opacity="0.85"/>
<path d="M6.63696 23.397H17.7111C20.0432 23.397 21.5783 21.8735 21.5783 19.5532V7.354C21.5783 5.03369 20.0432 3.52197 17.7111 3.52197H6.63696C4.30493 3.52197 2.75806 5.03369 2.75806 7.354V19.5532C2.75806 21.8735 4.30493 23.397 6.63696 23.397Z" fill="white"/>
<path d="M6.50806 21.8032H17.84C19.2111 21.8032 19.9846 21.0298 19.9846 19.6821V7.22509C19.9846 5.87743 19.2111 5.11572 17.84 5.11572H6.50806C5.13696 5.11572 4.35181 5.87743 4.35181 7.22509V19.6821C4.35181 21.0298 5.13696 21.8032 6.50806 21.8032Z" fill="black" fill-opacity="0.85"/>
<path d="M5.57056 31.1079H18.7659C22.258 31.1079 24.3323 29.0571 24.3323 25.5884V12.2993C24.3323 8.83056 22.258 6.77979 18.7659 6.77979H5.57056C2.07837 6.77979 0.00415039 8.81885 0.00415039 12.2993V25.5884C0.00415039 29.0571 2.07837 31.1079 5.57056 31.1079Z" fill="white"/>
<path d="M5.57056 29.2212H18.7658C21.215 29.2212 22.4455 28.0024 22.4455 25.5884V12.2993C22.4455 9.88525 21.215 8.6665 18.7658 8.6665H5.57056C3.12134 8.6665 1.89087 9.87353 1.89087 12.2993V25.5884C1.89087 28.0024 3.12134 29.2212 5.57056 29.2212ZM5.60571 27.3345C4.43384 27.3345 3.77759 26.7016 3.77759 25.4829V12.393C3.77759 11.186 4.43384 10.5532 5.60571 10.5532H18.7424C19.8908 10.5532 20.5588 11.186 20.5588 12.393V25.4829C20.5588 26.7016 19.8908 27.3345 18.7424 27.3345H5.60571Z" fill="black" fill-opacity="0.85"/>
<path d="M9.98853 23.5845L16.6565 19.6352C17.1603 19.354 17.1487 18.6743 16.6565 18.3813L9.98853 14.4321C9.48462 14.1391 8.81665 14.3618 8.81665 14.936V23.0806C8.81665 23.643 9.43774 23.9126 9.98853 23.5845Z" fill="black" fill-opacity="0.85"/>
</g>
<defs>
<clipPath id="clip0_2207_5088">
<rect width="24.3281" height="30.9961" fill="white" transform="translate(0.00415039 0.111816)"/>
</clipPath>
</defs>
</svg>
