<svg width="28" height="22" viewBox="0 0 28 22" fill="none" xmlns="http://www.w3.org/2000/svg">
<g clip-path="url(#clip0_2207_22771)">
<path d="M3.7301 21.686H24.0035C26.4645 21.686 27.6832 20.479 27.6832 18.0649V3.74463C27.6832 1.33057 26.4645 0.111816 24.0035 0.111816H3.7301C1.28088 0.111816 0.050415 1.33057 0.050415 3.74463V18.0649C0.050415 20.479 1.28088 21.686 3.7301 21.686ZM3.75354 19.7993C2.58167 19.7993 1.93713 19.1782 1.93713 17.9595V3.8501C1.93713 2.63135 2.58167 1.99854 3.75354 1.99854H23.9801C25.1402 1.99854 25.7965 2.63135 25.7965 3.8501V17.9595C25.7965 19.1782 25.1402 19.7993 23.9801 19.7993H3.75354Z" fill="black" fill-opacity="0.85"/>
<path d="M8.44104 10.893C8.44104 11.4673 8.8512 11.854 9.44886 11.854H12.8942V15.311C12.8942 15.897 13.2926 16.3071 13.8551 16.3071C14.4527 16.3071 14.8629 15.9087 14.8629 15.311V11.854H18.3199C18.9059 11.854 19.3043 11.4673 19.3043 10.893C19.3043 10.3071 18.9059 9.89698 18.3199 9.89698H14.8629V6.45166C14.8629 5.85401 14.4527 5.44385 13.8551 5.44385C13.2926 5.44385 12.8942 5.85401 12.8942 6.45166V9.89698H9.44886C8.8512 9.89698 8.44104 10.3071 8.44104 10.893Z" fill="black" fill-opacity="0.85"/>
</g>
<defs>
<clipPath id="clip0_2207_22771">
<rect width="27.6328" height="21.5742" fill="white" transform="translate(0.050415 0.111816)"/>
</clipPath>
</defs>
</svg>
