<svg width="22" height="22" viewBox="0 0 22 22" fill="none" xmlns="http://www.w3.org/2000/svg">
<g clip-path="url(#clip0_2207_6748)">
<path d="M20.2634 1.49463C19.0681 0.299316 17.3806 0.111816 15.3767 0.111816H6.24781C4.27906 0.111816 2.59156 0.299316 1.39624 1.49463C0.200927 2.68994 0.0251465 4.36573 0.0251465 6.33448V15.4634C0.0251465 17.4673 0.200927 19.143 1.39624 20.3384C2.59156 21.5337 4.27906 21.7212 6.27124 21.7212H15.3767C17.3806 21.7212 19.0681 21.5337 20.2634 20.3384C21.4587 19.143 21.6345 17.4673 21.6345 15.4634V6.35791C21.6345 4.35401 21.4587 2.68994 20.2634 1.49463ZM19.7478 6.04151V15.7915C19.7478 16.9985 19.5954 18.2524 18.8806 18.9556C18.1774 19.6704 16.9118 19.8345 15.7048 19.8345H5.95484C4.74781 19.8345 3.48218 19.6704 2.76734 18.9556C2.06421 18.2524 1.91187 16.9985 1.91187 15.7915V6.07666C1.91187 4.83448 2.06421 3.58057 2.76734 2.86573C3.48218 2.1626 4.75953 1.99854 5.98999 1.99854H15.7048C16.9118 1.99854 18.1774 2.1626 18.8806 2.87744C19.5954 3.58057 19.7478 4.83448 19.7478 6.04151Z" fill="black" fill-opacity="0.85"/>
<path d="M5.40405 10.9165C5.40405 11.4907 5.8142 11.8774 6.41186 11.8774H9.85717V15.3345C9.85717 15.9204 10.2439 16.3306 10.8181 16.3306C11.404 16.3306 11.8142 15.9321 11.8142 15.3345V11.8774H15.2712C15.8571 11.8774 16.2673 11.4907 16.2673 10.9165C16.2673 10.3306 15.8571 9.9204 15.2712 9.9204H11.8142V6.47509C11.8142 5.87743 11.404 5.46729 10.8181 5.46729C10.2439 5.46729 9.85717 5.87743 9.85717 6.47509V9.9204H6.41186C5.80248 9.9204 5.40405 10.3306 5.40405 10.9165Z" fill="black" fill-opacity="0.85"/>
</g>
<defs>
<clipPath id="clip0_2207_6748">
<rect width="21.6094" height="21.6211" fill="white" transform="translate(0.0251465 0.111816)"/>
</clipPath>
</defs>
</svg>
