<svg width="27" height="27" viewBox="0 0 27 27" fill="none" xmlns="http://www.w3.org/2000/svg">
<g clip-path="url(#clip0_2207_22796)">
<path d="M1.35398 15.9923L10.7407 25.379C12.4751 27.1134 14.186 27.1251 15.9086 25.4141L25.3422 15.9688C27.0532 14.2579 27.0415 12.5352 25.3071 10.8009L15.9321 1.42588C14.1977 -0.308501 12.4868 -0.331939 10.7641 1.39072L1.31882 10.8243C-0.403838 12.547 -0.3804 14.2579 1.35398 15.9923Z" fill="black" fill-opacity="0.85"/>
<path d="M7.61182 13.414C7.61182 12.8047 8.04541 12.3828 8.65479 12.3828H12.3227V8.71484C12.3227 8.10547 12.7329 7.67188 13.3188 7.67188C13.9399 7.67188 14.3501 8.10547 14.3501 8.71484V12.3828H18.0297C18.6391 12.3828 19.061 12.8047 19.061 13.414C19.061 14.0117 18.6274 14.4101 18.0297 14.4101H14.3501V18.0898C14.3501 18.6992 13.9399 19.1211 13.3188 19.1211C12.7329 19.1211 12.3227 18.6875 12.3227 18.0898V14.4101H8.65479C8.04541 14.4101 7.61182 14.0117 7.61182 13.414Z" fill="white"/>
</g>
<defs>
<clipPath id="clip0_2207_22796">
<rect width="26.5768" height="26.593" fill="white" transform="translate(0.039917 0.111816)"/>
</clipPath>
</defs>
</svg>
