<svg width="30" height="24" viewBox="0 0 30 24" fill="none" xmlns="http://www.w3.org/2000/svg">
<g clip-path="url(#clip0_2207_7283)">
<path d="M3.74073 18.4282H19.7485C22.186 18.4282 23.4282 17.2095 23.4282 14.7954V3.74463C23.4282 1.33057 22.186 0.111816 19.7485 0.111816H3.74073C1.27979 0.111816 0.0610352 1.33057 0.0610352 3.74463V14.7954C0.0610352 17.2212 1.27979 18.4282 3.74073 18.4282ZM3.76416 16.5415C2.59229 16.5415 1.94776 15.9204 1.94776 14.7016V3.8501C1.94776 2.63135 2.59229 1.99854 3.76416 1.99854H19.7133C20.8735 1.99854 21.5415 2.63135 21.5415 3.8501V14.7016C21.5415 15.9204 20.8735 16.5415 19.7133 16.5415H3.76416Z" fill="black" fill-opacity="0.85"/>
<path d="M9.52979 23.854H25.5376C27.9751 23.854 29.2172 22.6352 29.2172 20.2212V9.17041C29.2172 6.75635 27.9751 5.5376 25.5376 5.5376H9.52979C7.06885 5.5376 5.8501 6.75635 5.8501 9.17041V20.2212C5.8501 22.647 7.06885 23.854 9.52979 23.854Z" fill="white"/>
<path d="M9.52979 23.854H25.5376C27.9751 23.854 29.2172 22.6352 29.2172 20.2212V9.17041C29.2172 6.75635 27.9751 5.5376 25.5376 5.5376H9.52979C7.06885 5.5376 5.8501 6.75635 5.8501 9.17041V20.2212C5.8501 22.647 7.06885 23.854 9.52979 23.854ZM9.55323 21.9673C8.38135 21.9673 7.73682 21.3462 7.73682 20.1274V9.27588C7.73682 8.05713 8.38135 7.42432 9.55323 7.42432H25.5024C26.6626 7.42432 27.3305 8.05713 27.3305 9.27588V20.1274C27.3305 21.3462 26.6626 21.9673 25.5024 21.9673H9.55323Z" fill="black" fill-opacity="0.85"/>
<path d="M12.1079 14.7016C12.1079 15.2641 12.518 15.6626 13.1157 15.6626H16.561V19.1196C16.561 19.7056 16.9477 20.1157 17.5219 20.1157C18.1079 20.1157 18.518 19.7056 18.518 19.1196V15.6626H21.9751C22.561 15.6626 22.9712 15.2641 22.9712 14.7016C22.9712 14.104 22.561 13.7056 21.9751 13.7056H18.518V10.2602C18.518 9.65088 18.1079 9.25244 17.5219 9.25244C16.9477 9.25244 16.561 9.6626 16.561 10.2602V13.7056H13.1157C12.5063 13.7056 12.1079 14.104 12.1079 14.7016Z" fill="black" fill-opacity="0.85"/>
</g>
<defs>
<clipPath id="clip0_2207_7283">
<rect width="29.1562" height="23.7539" fill="white" transform="translate(0.0610352 0.111816)"/>
</clipPath>
</defs>
</svg>
