<svg width="22" height="22" viewBox="0 0 22 22" fill="none" xmlns="http://www.w3.org/2000/svg">
<g clip-path="url(#clip0_2207_22761)">
<path d="M3.74683 21.7095H17.9616C20.4226 21.7095 21.6413 20.4907 21.6413 18.0766V3.76807C21.6413 1.35401 20.4226 0.135254 17.9616 0.135254H3.74683C1.29761 0.135254 0.0671387 1.34229 0.0671387 3.76807V18.0766C0.0671387 20.5024 1.29761 21.7095 3.74683 21.7095ZM3.77026 19.8227C2.59839 19.8227 1.95386 19.2016 1.95386 17.9829V3.86182C1.95386 2.64307 2.59839 2.02198 3.77026 2.02198H17.9382C19.0983 2.02198 19.7546 2.64307 19.7546 3.86182V17.9829C19.7546 19.2016 19.0983 19.8227 17.9382 19.8227H3.77026Z" fill="black" fill-opacity="0.85"/>
<path d="M5.43433 10.9048C5.43433 11.479 5.83276 11.8657 6.43042 11.8657H9.87573V15.3227C9.87573 15.9087 10.2741 16.3188 10.8483 16.3188C11.4343 16.3188 11.8444 15.9204 11.8444 15.3227V11.8657H15.3015C15.8874 11.8657 16.2976 11.479 16.2976 10.9048C16.2976 10.3188 15.8874 9.9087 15.3015 9.9087H11.8444V6.46338C11.8444 5.86573 11.4343 5.45557 10.8483 5.45557C10.2741 5.45557 9.87573 5.86573 9.87573 6.46338V9.9087H6.43042C5.83276 9.9087 5.43433 10.3188 5.43433 10.9048Z" fill="black" fill-opacity="0.85"/>
</g>
<defs>
<clipPath id="clip0_2207_22761">
<rect width="21.5742" height="21.5977" fill="white" transform="translate(0.0671387 0.111816)"/>
</clipPath>
</defs>
</svg>
