<svg width="23" height="23" viewBox="0 0 23 23" fill="none" xmlns="http://www.w3.org/2000/svg">
<g clip-path="url(#clip0_2207_22869)">
<path d="M0.0419922 5.99463C0.0419922 6.45166 0.405273 6.81494 0.874023 6.81494H3.25293V9.20557C3.25293 9.67432 3.62793 10.0259 4.07324 10.0259C4.54199 10.0259 4.90527 9.6626 4.90527 9.20557V6.81494H7.2959C7.75293 6.81494 8.12793 6.45166 8.12793 5.99463C8.12793 5.5376 7.75293 5.1626 7.2959 5.1626H4.90527V2.77198C4.90527 2.31494 4.53027 1.93994 4.07324 1.93994C3.61621 1.93994 3.25293 2.31494 3.25293 2.77198V5.1626H0.874023C0.405273 5.1626 0.0419922 5.5376 0.0419922 5.99463ZM11.9365 11.6548L18.7334 1.6001C18.8975 1.37744 18.9561 1.17823 18.9561 0.943847C18.9561 0.475097 18.5459 0.111816 18.0654 0.111816C17.6553 0.111816 17.4326 0.240722 17.1045 0.721191L10.3779 10.7056L3.56933 20.7368C3.41699 20.9595 3.33496 21.147 3.33496 21.4048C3.33496 21.9087 3.75683 22.2485 4.27246 22.2485C4.65918 22.2485 4.88183 22.0845 5.18652 21.6509L11.9365 11.6548ZM14.1279 17.1743C14.1279 17.6313 14.4912 18.0063 14.9482 18.0063H21.3818C21.8389 18.0063 22.2139 17.6313 22.2139 17.1743C22.2139 16.7173 21.8389 16.354 21.3818 16.354H14.9482C14.4912 16.354 14.1279 16.7173 14.1279 17.1743Z" fill="black" fill-opacity="0.85"/>
</g>
<defs>
<clipPath id="clip0_2207_22869">
<rect width="22.1719" height="22.1367" fill="white" transform="translate(0.0419922 0.111816)"/>
</clipPath>
</defs>
</svg>
