<svg width="31" height="28" viewBox="0 0 31 28" fill="none" xmlns="http://www.w3.org/2000/svg">
<g clip-path="url(#clip0_2207_7290)">
<path d="M3.73438 20.022H19.7422C22.1914 20.022 23.4219 18.8032 23.4219 16.3891V5.33838C23.4219 2.92432 22.1914 1.70557 19.7422 1.70557H3.73438C1.28516 1.70557 0.0546875 2.92432 0.0546875 5.33838V16.3891C0.0546875 18.8149 1.28516 20.022 3.73438 20.022Z" fill="black" fill-opacity="0.85"/>
<path d="M9.52344 27.0532H25.5313C28.8594 27.0532 30.8164 25.1196 30.8164 21.8149V10.7641C30.8164 7.45948 28.8594 5.5376 25.5313 5.5376H9.52344C6.1836 5.5376 4.25 7.45948 4.25 10.7641V21.8149C4.25 25.1313 6.1836 27.0532 9.52344 27.0532Z" fill="white"/>
<path d="M9.52344 25.4477H25.5313C27.9805 25.4477 29.2109 24.229 29.2109 21.8149V10.7641C29.2109 8.3501 27.9805 7.13135 25.5313 7.13135H9.52344C7.07422 7.13135 5.84375 8.3501 5.84375 10.7641V21.8149C5.84375 24.2407 7.07422 25.4477 9.52344 25.4477Z" fill="black" fill-opacity="0.85"/>
<path d="M11.8086 16.3071C11.8086 15.686 12.2305 15.2759 12.8516 15.2759H16.5195V11.6079C16.5195 10.9985 16.918 10.5649 17.5156 10.5649C18.125 10.5649 18.5469 10.9868 18.5469 11.6079V15.2759H22.2266C22.8242 15.2759 23.2578 15.686 23.2578 16.3071C23.2578 16.893 22.8242 17.3032 22.2266 17.3032H18.5469V20.9829C18.5469 21.5806 18.125 22.0141 17.5156 22.0141C16.918 22.0141 16.5195 21.5806 16.5195 20.9829V17.3032H12.8516C12.2422 17.3032 11.8086 16.893 11.8086 16.3071Z" fill="white"/>
</g>
<defs>
<clipPath id="clip0_2207_7290">
<rect width="30.7617" height="26.9414" fill="white" transform="translate(0.0546875 0.111816)"/>
</clipPath>
</defs>
</svg>
