<svg width="21" height="26" viewBox="0 0 21 26" fill="none" xmlns="http://www.w3.org/2000/svg">
<g clip-path="url(#clip0_2207_19759)">
<path d="M2.83057 8.14062C2.83057 10.4844 4.29541 12.125 7.08447 12.8985L12.979 14.5625C14.9125 15.1133 15.8969 16.1094 15.8969 17.5156V18.336H17.7836V17.5156C17.7836 15.1836 16.3305 13.543 13.5415 12.7695L7.64697 11.1055C5.7251 10.5664 4.71729 9.54687 4.71729 8.14062V7.33203H2.83057V8.14062Z" fill="black" fill-opacity="0.85"/>
<path d="M16.8461 17.961C14.7602 17.961 13.061 19.6485 13.061 21.7461C13.061 23.8203 14.7602 25.5078 16.8461 25.5078C18.9321 25.5078 20.6196 23.8203 20.6196 21.7461C20.6196 19.6485 18.9321 17.961 16.8461 17.961ZM16.8461 19.8008C17.9243 19.8008 18.7797 20.6563 18.7797 21.7461C18.7797 22.8242 17.9243 23.668 16.8461 23.668C15.7446 23.668 14.9008 22.8242 14.9008 21.7461C14.9008 20.6563 15.7446 19.8008 16.8461 19.8008ZM3.77979 7.70703C5.86573 7.70703 7.55323 6.00781 7.55323 3.92187C7.55323 1.84766 5.86573 0.148438 3.77979 0.148438C1.69385 0.148438 0.00634766 1.84766 0.00634766 3.92187C0.00634766 6.00781 1.69385 7.70703 3.77979 7.70703ZM3.77979 5.86719C2.70166 5.86719 1.84619 5.01172 1.84619 3.92187C1.84619 2.83203 2.70166 1.98828 3.77979 1.98828C4.86963 1.98828 5.71338 2.83203 5.71338 3.92187C5.71338 5.01172 4.88135 5.86719 3.77979 5.86719Z" fill="black" fill-opacity="0.85"/>
</g>
<defs>
<clipPath id="clip0_2207_19759">
<rect width="20.6133" height="25.3945" fill="white" transform="translate(0.00634766 0.113281)"/>
</clipPath>
</defs>
</svg>
