<svg width="21" height="27" viewBox="0 0 21 27" fill="none" xmlns="http://www.w3.org/2000/svg">
<g clip-path="url(#clip0_2207_19779)">
<path d="M6.97754 13.7524L13.6806 14.4556C17.1963 14.8188 18.9775 16.1665 18.9775 18.1587C18.9775 20.1157 17.3252 21.3579 14.6884 21.3579H7.11816V23.2446H14.6884C18.4736 23.2446 20.8642 21.2759 20.8642 18.1587C20.8642 14.9712 18.5088 12.8852 13.9619 12.4282L7.28222 11.7251C3.75488 11.3618 1.98535 10.0142 1.98535 8.02198C1.98535 6.06494 3.63769 4.82276 6.27441 4.82276H13.833V2.93604H6.27441C2.48925 2.93604 0.0986328 4.90479 0.0986328 8.02198C0.0986328 11.2095 2.44238 13.2954 6.97754 13.7524Z" fill="black" fill-opacity="0.85"/>
<path d="M3.88379 26.0688C5.96972 26.0688 7.65722 24.3696 7.65722 22.2837C7.65722 20.2095 5.96972 18.5102 3.88379 18.5102C1.79785 18.5102 0.110352 20.2095 0.110352 22.2837C0.110352 24.3696 1.79785 26.0688 3.88379 26.0688ZM3.88379 24.229C2.80566 24.229 1.95019 23.3735 1.95019 22.2837C1.95019 21.1938 2.80566 20.3501 3.88379 20.3501C4.97363 20.3501 5.81738 21.1938 5.81738 22.2837C5.81738 23.3735 4.98535 24.229 3.88379 24.229ZM17.0791 7.67041C19.1767 7.67041 20.8642 5.9712 20.8642 3.88526C20.8642 1.81104 19.1767 0.111816 17.0791 0.111816C15.0048 0.111816 13.3056 1.81104 13.3056 3.88526C13.3056 5.9712 15.0048 7.67041 17.0791 7.67041ZM17.0791 5.83057C16.0009 5.83057 15.1455 4.9751 15.1455 3.88526C15.1455 2.79541 16.0127 1.95166 17.0791 1.95166C18.1806 1.95166 19.0244 2.79541 19.0244 3.88526C19.0244 4.9751 18.1806 5.83057 17.0791 5.83057Z" fill="black" fill-opacity="0.85"/>
</g>
<defs>
<clipPath id="clip0_2207_19779">
<rect width="20.7656" height="25.957" fill="white" transform="translate(0.0986328 0.111816)"/>
</clipPath>
</defs>
</svg>
