<svg width="21" height="26" viewBox="0 0 21 26" fill="none" xmlns="http://www.w3.org/2000/svg">
<g clip-path="url(#clip0_2207_19764)">
<path d="M2.83252 8.14062C2.83252 10.4844 4.29736 12.125 7.08642 12.8985L12.981 14.5625C14.9145 15.1133 15.8989 16.1094 15.8989 17.5156V18.336H17.7856V17.5156C17.7856 15.1836 16.3325 13.543 13.5435 12.7695L7.64892 11.1055C5.72705 10.5664 4.71924 9.54687 4.71924 8.14062V7.33203H2.83252V8.14062Z" fill="black" fill-opacity="0.85"/>
<path d="M16.8481 17.961C14.7622 17.961 13.063 19.6485 13.063 21.7461C13.063 23.8203 14.7622 25.5078 16.8481 25.5078C18.9341 25.5078 20.6216 23.8203 20.6216 21.7461C20.6216 19.6485 18.9341 17.961 16.8481 17.961ZM3.78174 7.70703C5.86768 7.70703 7.55518 6.00781 7.55518 3.92187C7.55518 1.84766 5.86768 0.148438 3.78174 0.148438C1.6958 0.148438 0.00830078 1.84766 0.00830078 3.92187C0.00830078 6.00781 1.6958 7.70703 3.78174 7.70703Z" fill="black" fill-opacity="0.85"/>
</g>
<defs>
<clipPath id="clip0_2207_19764">
<rect width="20.6133" height="25.3945" fill="white" transform="translate(0.00830078 0.113281)"/>
</clipPath>
</defs>
</svg>
