<svg width="21" height="27" viewBox="0 0 21 27" fill="none" xmlns="http://www.w3.org/2000/svg">
<g clip-path="url(#clip0_2207_19794)">
<path d="M6.96924 13.7524L13.6723 14.4556C17.188 14.8188 18.9692 16.1665 18.9692 18.1587C18.9692 20.1157 17.3169 21.3579 14.6801 21.3579H7.10986V23.2446H14.6801C18.4653 23.2446 20.8559 21.2759 20.8559 18.1587C20.8559 14.9712 18.5005 12.8852 13.9536 12.4282L7.27392 11.7251C3.74658 11.3618 1.97705 10.0142 1.97705 8.02198C1.97705 6.06494 3.62939 4.82276 6.26611 4.82276H13.8247V2.93604H6.26611C2.48095 2.93604 0.090332 4.90479 0.090332 8.02198C0.090332 11.2095 2.43408 13.2954 6.96924 13.7524Z" fill="black" fill-opacity="0.85"/>
<path d="M3.87549 26.0688C5.96142 26.0688 7.64892 24.3696 7.64892 22.2837C7.64892 20.2095 5.96142 18.5102 3.87549 18.5102C1.78955 18.5102 0.102051 20.2095 0.102051 22.2837C0.102051 24.3696 1.78955 26.0688 3.87549 26.0688ZM17.0708 7.67041C19.1684 7.67041 20.8559 5.9712 20.8559 3.88526C20.8559 1.81104 19.1684 0.111816 17.0708 0.111816C14.9965 0.111816 13.2973 1.81104 13.2973 3.88526C13.2973 5.9712 14.9965 7.67041 17.0708 7.67041ZM17.0708 5.83057C15.9926 5.83057 15.1372 4.9751 15.1372 3.88526C15.1372 2.79541 16.0044 1.95166 17.0708 1.95166C18.1723 1.95166 19.0161 2.79541 19.0161 3.88526C19.0161 4.9751 18.1723 5.83057 17.0708 5.83057Z" fill="black" fill-opacity="0.85"/>
</g>
<defs>
<clipPath id="clip0_2207_19794">
<rect width="20.7656" height="25.957" fill="white" transform="translate(0.090332 0.111816)"/>
</clipPath>
</defs>
</svg>
