<svg width="30" height="22" viewBox="0 0 30 22" fill="none" xmlns="http://www.w3.org/2000/svg">
<g clip-path="url(#clip0_2207_19816)">
<path d="M8.38306 19.7891H21.215C26.2542 19.7891 29.594 16.4844 29.594 11.4219C29.594 6.35936 26.2542 3.01952 21.215 3.01952H18.6839V4.90624H21.215C25.0588 4.90624 27.7073 7.55468 27.7073 11.4219C27.7073 15.2891 25.0588 17.9024 21.215 17.9024H8.38306C4.50415 17.9024 1.89087 15.2891 1.89087 11.4219C1.89087 7.55468 4.50415 4.90624 8.38306 4.90624H10.1526C10.0823 4.57811 10.0472 4.23827 10.0472 3.88671C10.0472 3.60546 10.0706 3.31249 10.1175 3.03124L8.38306 3.01952C3.32056 2.97265 0.00415039 6.35936 0.00415039 11.4219C0.00415039 16.4844 3.32056 19.7891 8.38306 19.7891Z" fill="black" fill-opacity="0.85"/>
<path d="M15.4143 7.66016C17.5002 7.66016 19.1994 5.97266 19.1994 3.875C19.1994 1.80078 17.5002 0.113281 15.4143 0.113281C13.34 0.113281 11.6408 1.80078 11.6408 3.875C11.6408 5.97266 13.34 7.66016 15.4143 7.66016Z" fill="black" fill-opacity="0.85"/>
</g>
<defs>
<clipPath id="clip0_2207_19816">
<rect width="29.5898" height="21.7148" fill="white" transform="translate(0.00415039 0.113281)"/>
</clipPath>
</defs>
</svg>
