<svg width="30" height="22" viewBox="0 0 30 22" fill="none" xmlns="http://www.w3.org/2000/svg">
<g clip-path="url(#clip0_2207_19811)">
<path d="M8.38111 19.7891H21.2131C26.2522 19.7891 29.592 16.4844 29.592 11.4219C29.592 6.35936 26.2522 3.01952 21.2131 3.01952H18.6819V4.90624H21.2131C25.0569 4.90624 27.7053 7.55468 27.7053 11.4219C27.7053 15.2891 25.0569 17.9024 21.2131 17.9024H8.38111C4.5022 17.9024 1.88892 15.2891 1.88892 11.4219C1.88892 7.55468 4.5022 4.90624 8.38111 4.90624H10.1506C10.0803 4.57811 10.0452 4.23827 10.0452 3.88671C10.0452 3.60546 10.0686 3.31249 10.1155 3.03124L8.38111 3.01952C3.31861 2.97265 0.00219727 6.35936 0.00219727 11.4219C0.00219727 16.4844 3.31861 19.7891 8.38111 19.7891Z" fill="black" fill-opacity="0.85"/>
<path d="M15.4124 7.66016C17.4983 7.66016 19.1975 5.97266 19.1975 3.875C19.1975 1.80078 17.4983 0.113281 15.4124 0.113281C13.3381 0.113281 11.6389 1.80078 11.6389 3.875C11.6389 5.97266 13.3381 7.66016 15.4124 7.66016ZM15.4124 5.82031C14.3342 5.82031 13.4788 4.96484 13.4788 3.875C13.4788 2.79687 14.346 1.95312 15.4124 1.95312C16.5139 1.95312 17.3577 2.79687 17.3577 3.875C17.3577 4.96484 16.5139 5.82031 15.4124 5.82031Z" fill="black" fill-opacity="0.85"/>
</g>
<defs>
<clipPath id="clip0_2207_19811">
<rect width="29.5898" height="21.7148" fill="white" transform="translate(0.00219727 0.113281)"/>
</clipPath>
</defs>
</svg>
