<svg width="21" height="27" viewBox="0 0 21 27" fill="none" xmlns="http://www.w3.org/2000/svg">
<g clip-path="url(#clip0_2207_19789)">
<path d="M6.97559 13.7524L13.6787 14.4556C17.1944 14.8188 18.9756 16.1665 18.9756 18.1587C18.9756 20.1157 17.3233 21.3579 14.6865 21.3579H7.11621V23.2446H14.6865C18.4717 23.2446 20.8623 21.2759 20.8623 18.1587C20.8623 14.9712 18.5069 12.8852 13.96 12.4282L7.28027 11.7251C3.75293 11.3618 1.9834 10.0142 1.9834 8.02198C1.9834 6.06494 3.63574 4.82276 6.27246 4.82276H13.8311V2.93604H6.27246C2.4873 2.93604 0.0966797 4.90479 0.0966797 8.02198C0.0966797 11.2095 2.44043 13.2954 6.97559 13.7524Z" fill="black" fill-opacity="0.85"/>
<path d="M3.88184 26.0688C5.96777 26.0688 7.65527 24.3696 7.65527 22.2837C7.65527 20.2095 5.96777 18.5102 3.88184 18.5102C1.7959 18.5102 0.108398 20.2095 0.108398 22.2837C0.108398 24.3696 1.7959 26.0688 3.88184 26.0688ZM3.88184 24.229C2.80371 24.229 1.94824 23.3735 1.94824 22.2837C1.94824 21.1938 2.80371 20.3501 3.88184 20.3501C4.97168 20.3501 5.81543 21.1938 5.81543 22.2837C5.81543 23.3735 4.9834 24.229 3.88184 24.229ZM17.0772 7.67041C19.1748 7.67041 20.8623 5.9712 20.8623 3.88526C20.8623 1.81104 19.1748 0.111816 17.0772 0.111816C15.0029 0.111816 13.3037 1.81104 13.3037 3.88526C13.3037 5.9712 15.0029 7.67041 17.0772 7.67041Z" fill="black" fill-opacity="0.85"/>
</g>
<defs>
<clipPath id="clip0_2207_19789">
<rect width="20.7656" height="25.957" fill="white" transform="translate(0.0966797 0.111816)"/>
</clipPath>
</defs>
</svg>
