<svg width="22" height="22" viewBox="0 0 22 22" fill="none" xmlns="http://www.w3.org/2000/svg">
<g clip-path="url(#clip0_2207_26157)">
<path d="M3.70288 21.711H17.9177C20.3787 21.711 21.5974 20.4922 21.5974 18.0781V3.76953C21.5974 1.35547 20.3787 0.136719 17.9177 0.136719H3.70288C1.25366 0.136719 0.0231934 1.34375 0.0231934 3.76953V18.0781C0.0231934 20.5039 1.25366 21.711 3.70288 21.711Z" fill="black" fill-opacity="0.85"/>
<path d="M6.56225 15.5235C6.17553 15.5235 5.88257 15.2774 5.88257 14.9375C5.88257 14.6797 5.9646 14.5156 6.10522 14.293L9.31616 9.34766V9.21875H6.49194C6.14038 9.21875 5.88257 8.96094 5.88257 8.62109C5.88257 8.29297 6.14038 8.04687 6.49194 8.04687H10.2654C10.7224 8.04687 11.0388 8.32812 11.0388 8.75C11.0388 8.99609 10.9451 9.19531 10.7927 9.4414L7.80444 14.2461V14.3516H10.5115C10.8513 14.3516 11.1091 14.5977 11.1091 14.9375C11.1091 15.2656 10.8513 15.5235 10.5115 15.5235H6.56225ZM13.6873 15.6524C13.2302 15.6524 12.9138 15.3242 12.9138 14.8438V11.3867L12.6443 11.5508C11.8123 11.9727 11.2849 10.8828 12.0818 10.4727L12.9138 10.0156V5.78516C12.9138 5.29297 13.2302 4.96484 13.6873 4.96484C14.156 4.96484 14.4607 5.29297 14.4607 5.78516V9.20703L14.9646 8.9375C15.738 8.53906 16.3005 9.61719 15.4802 10.0508L14.4607 10.5899V14.8438C14.4607 15.3242 14.156 15.6524 13.6873 15.6524Z" fill="white"/>
</g>
<defs>
<clipPath id="clip0_2207_26157">
<rect width="21.5742" height="21.5977" fill="white" transform="translate(0.0231934 0.113281)"/>
</clipPath>
</defs>
</svg>
