<svg width="22" height="22" viewBox="0 0 22 22" fill="none" xmlns="http://www.w3.org/2000/svg">
<g clip-path="url(#clip0_2207_26152)">
<path d="M3.70069 21.711H17.9155C20.3765 21.711 21.5952 20.4922 21.5952 18.0781V3.76953C21.5952 1.35547 20.3765 0.136719 17.9155 0.136719H3.70069C1.25147 0.136719 0.0209961 1.34375 0.0209961 3.76953V18.0781C0.0209961 20.5039 1.25147 21.711 3.70069 21.711ZM3.72412 19.8242C2.55225 19.8242 1.90772 19.2031 1.90772 17.9844V3.86328C1.90772 2.64453 2.55225 2.02344 3.72412 2.02344H17.8921C19.0522 2.02344 19.7085 2.64453 19.7085 3.86328V17.9844C19.7085 19.2031 19.0522 19.8242 17.8921 19.8242H3.72412Z" fill="black" fill-opacity="0.85"/>
<path d="M6.56005 15.5235H10.5093C10.8491 15.5235 11.1069 15.2656 11.1069 14.9375C11.1069 14.5977 10.8491 14.3516 10.5093 14.3516H7.80224V14.2461L10.7905 9.4414C10.9429 9.19531 11.0366 8.99609 11.0366 8.75C11.0366 8.32812 10.7202 8.04687 10.2632 8.04687H6.48974C6.13818 8.04687 5.88037 8.29297 5.88037 8.62109C5.88037 8.96094 6.13818 9.21875 6.48974 9.21875H9.31396V9.34766L6.10302 14.293C5.9624 14.5156 5.88037 14.6797 5.88037 14.9375C5.88037 15.2774 6.17333 15.5235 6.56005 15.5235ZM13.6851 15.6524C14.1538 15.6524 14.4585 15.3242 14.4585 14.8438V10.5899L15.478 10.0508C16.2983 9.61719 15.7358 8.53906 14.9624 8.9375L14.4585 9.20703V5.78516C14.4585 5.29297 14.1538 4.96484 13.6851 4.96484C13.228 4.96484 12.9116 5.29297 12.9116 5.78516V10.0156L12.0796 10.4727C11.2827 10.8828 11.8101 11.9727 12.6421 11.5508L12.9116 11.3867V14.8438C12.9116 15.3242 13.228 15.6524 13.6851 15.6524Z" fill="black" fill-opacity="0.85"/>
</g>
<defs>
<clipPath id="clip0_2207_26152">
<rect width="21.5742" height="21.5977" fill="white" transform="translate(0.0209961 0.113281)"/>
</clipPath>
</defs>
</svg>
