<svg width="23" height="22" viewBox="0 0 23 22" fill="none" xmlns="http://www.w3.org/2000/svg">
<g clip-path="url(#clip0_2207_11393)">
<path d="M3.70069 21.7124H18.6538C21.103 21.7124 22.3335 20.4936 22.3335 18.0795V3.771C22.3335 1.35694 21.103 0.138184 18.6538 0.138184H3.70069C1.25147 0.138184 0.0209961 1.34522 0.0209961 3.771V18.0795C0.0209961 20.5053 1.25147 21.7124 3.70069 21.7124ZM3.72412 19.8256C2.55225 19.8256 1.90772 19.2045 1.90772 17.9858V3.86475C1.90772 2.646 2.55225 2.02491 3.72412 2.02491H18.6187C19.7788 2.02491 20.4468 2.646 20.4468 3.86475V17.9858C20.4468 19.2045 19.7788 19.8256 18.6187 19.8256H3.72412Z" fill="black" fill-opacity="0.85"/>
<path d="M10.6968 16.7906H11.646C12.0444 16.7906 12.3022 16.5328 12.3022 16.1226V12.7007C12.3022 12.3023 12.0444 12.0328 11.646 12.0328H10.6968C10.3101 12.0328 10.0405 12.3023 10.0405 12.7007V16.1226C10.0405 16.521 10.2983 16.7906 10.6968 16.7906ZM5.13037 9.86477L5.81005 10.5328C6.0913 10.814 6.4663 10.814 6.74755 10.5328L9.48974 7.79055C9.78271 7.49758 9.78271 7.1343 9.48974 6.85305L8.82177 6.17336C8.54052 5.90383 8.18896 5.90383 7.89599 6.18508L5.14208 8.92727C4.86083 9.20852 4.86083 9.58352 5.13037 9.86477ZM16.5444 10.5328L17.2241 9.85305C17.4937 9.58352 17.4937 9.22024 17.2007 8.92727L14.4585 6.18508C14.1772 5.90383 13.814 5.90383 13.5327 6.17336L12.8648 6.85305C12.5718 7.1343 12.5718 7.49758 12.8648 7.79055L15.6069 10.5328C15.8882 10.814 16.2515 10.814 16.5444 10.5328Z" fill="black" fill-opacity="0.85"/>
</g>
<defs>
<clipPath id="clip0_2207_11393">
<rect width="22.3125" height="21.5977" fill="white" transform="translate(0.0209961 0.114746)"/>
</clipPath>
</defs>
</svg>
