<svg width="22" height="22" viewBox="0 0 22 22" fill="none" xmlns="http://www.w3.org/2000/svg">
<g clip-path="url(#clip0_2207_11508)">
<path d="M3.74903 21.7124H17.9638C20.4248 21.7124 21.6435 20.4936 21.6435 18.0795V3.771C21.6435 1.35694 20.4248 0.138184 17.9638 0.138184H3.74903C1.29981 0.138184 0.0693359 1.34522 0.0693359 3.771V18.0795C0.0693359 20.5053 1.29981 21.7124 3.74903 21.7124Z" fill="black" fill-opacity="0.85"/>
<path d="M6.77247 7.18115H14.9404C15.7138 7.18115 16.0068 7.52099 16.4052 7.93115L18.5498 10.0991C18.9834 10.5327 18.9834 11.2592 18.5498 11.6928L16.4052 13.8842C16.0068 14.2944 15.5966 14.6342 14.9404 14.6342H6.77247C6.11623 14.6342 5.70607 14.2944 5.30763 13.8842L3.1631 11.6928C2.72951 11.2592 2.74123 10.5327 3.1631 10.0991L5.30763 7.93115C5.70607 7.52099 5.99904 7.18115 6.77247 7.18115ZM6.50294 9.7124C5.85841 9.7124 5.30763 10.2631 5.30763 10.9077C5.30763 11.5522 5.85841 12.0913 6.50294 12.0913C7.14747 12.0913 7.69826 11.5522 7.69826 10.9077C7.69826 10.2631 7.14747 9.7124 6.50294 9.7124ZM10.8623 10.5795C10.206 10.5795 9.66701 11.1303 9.66701 11.7749C9.66701 12.4194 10.206 12.9702 10.8623 12.9702C11.5068 12.9702 12.0459 12.4194 12.0459 11.7749C12.0459 11.1303 11.5068 10.5795 10.8623 10.5795ZM15.2099 9.7124C14.5654 9.7124 14.0263 10.2631 14.0263 10.9077C14.0263 11.5522 14.5654 12.0913 15.2099 12.0913C15.8545 12.0913 16.4052 11.5522 16.4052 10.9077C16.4052 10.2631 15.8545 9.7124 15.2099 9.7124Z" fill="white"/>
</g>
<defs>
<clipPath id="clip0_2207_11508">
<rect width="21.5742" height="21.5977" fill="white" transform="translate(0.0693359 0.114746)"/>
</clipPath>
</defs>
</svg>
