<svg width="31" height="19" viewBox="0 0 31 19" fill="none" xmlns="http://www.w3.org/2000/svg">
<g clip-path="url(#clip0_2207_11413)">
<path d="M8.31458 0.114746C6.70911 0.114746 5.6427 0.688965 4.62317 1.97803L0.826294 6.94678C-0.240112 8.32959 -0.228393 10.1577 0.814575 11.5288L4.61145 16.5444C5.54895 17.7749 6.81458 18.4311 8.31458 18.4311H22.5177C24.0177 18.4311 25.2833 17.7749 26.2208 16.5444L30.0177 11.5288C31.0606 10.1577 31.0724 8.32959 30.006 6.94678L26.2091 1.97803C25.1896 0.688965 24.1232 0.114746 22.5177 0.114746H8.31458ZM8.31458 2.00147H22.5177C23.5489 2.00147 24.0528 2.25928 24.7208 3.12647L28.5177 8.09522C29.0802 8.79834 29.0685 9.67725 28.5294 10.3803L24.7208 15.4077C24.1349 16.1694 23.4435 16.5444 22.5177 16.5444H8.31458C7.40051 16.5444 6.70911 16.1694 6.11145 15.4077L2.30286 10.3803C1.7638 9.67725 1.7638 8.79834 2.31458 8.09522L6.11145 3.12647C6.79114 2.25928 7.29504 2.00147 8.31458 2.00147Z" fill="black" fill-opacity="0.85"/>
<path d="M7.62317 7.22803C6.49817 7.22803 5.58411 8.15381 5.58411 9.26709C5.58411 10.3803 6.49817 11.3061 7.62317 11.3061C8.73645 11.3061 9.65051 10.3803 9.65051 9.26709C9.65051 8.15381 8.73645 7.22803 7.62317 7.22803ZM15.4161 10.0171C14.3028 10.0171 13.3771 10.9311 13.3771 12.0444C13.3771 13.1694 14.3028 14.0835 15.4161 14.0835C16.5294 14.0835 17.4552 13.1694 17.4552 12.0444C17.4552 10.9311 16.5294 10.0171 15.4161 10.0171ZM23.2091 7.22803C22.0958 7.22803 21.1817 8.15381 21.1817 9.26709C21.1817 10.3803 22.0958 11.3061 23.2091 11.3061C24.3341 11.3061 25.2482 10.3803 25.2482 9.26709C25.2482 8.15381 24.3341 7.22803 23.2091 7.22803Z" fill="black" fill-opacity="0.85"/>
</g>
<defs>
<clipPath id="clip0_2207_11413">
<rect width="30.7734" height="18.3398" fill="white" transform="translate(0.0294189 0.114746)"/>
</clipPath>
</defs>
</svg>
