<svg width="22" height="22" viewBox="0 0 22 22" fill="none" xmlns="http://www.w3.org/2000/svg">
<g clip-path="url(#clip0_2207_11248)">
<path d="M3.74073 21.711H17.9555C20.4165 21.711 21.6352 20.4922 21.6352 18.0781V3.76953C21.6352 1.35547 20.4165 0.136719 17.9555 0.136719H3.74073C1.29151 0.136719 0.0610352 1.34375 0.0610352 3.76953V18.0781C0.0610352 20.5039 1.29151 21.711 3.74073 21.711Z" fill="black" fill-opacity="0.85"/>
<path d="M7.02197 16.4375C6.67041 16.4375 6.33056 16.3321 6.07275 16.086C4.73681 14.8203 3.82275 12.9102 3.82275 10.918C3.82275 8.91406 4.74853 6.99219 6.09619 5.72656C6.34228 5.5039 6.67041 5.41016 7.02197 5.41016H14.6743C15.0258 5.41016 15.3657 5.51562 15.6235 5.76172C16.9594 7.01562 17.8735 8.92578 17.8735 10.918C17.8735 12.9102 16.9594 14.8203 15.6235 16.086C15.3657 16.3321 15.0258 16.4375 14.6743 16.4375H7.02197ZM7.90087 13.7422C8.28759 13.7422 8.59228 13.4375 8.59228 13.0508V8.77344C8.59228 8.38672 8.28759 8.09375 7.90087 8.09375C7.52587 8.09375 7.22119 8.38672 7.22119 8.77344V13.0508C7.22119 13.4375 7.52587 13.7422 7.90087 13.7422ZM13.7954 13.7422C14.1821 13.7422 14.4751 13.4375 14.4751 13.0508V8.77344C14.4751 8.38672 14.1821 8.09375 13.7954 8.09375C13.4087 8.09375 13.1157 8.38672 13.1157 8.77344V13.0508C13.1157 13.4375 13.4087 13.7422 13.7954 13.7422Z" fill="white"/>
</g>
<defs>
<clipPath id="clip0_2207_11248">
<rect width="21.5742" height="21.5977" fill="white" transform="translate(0.0610352 0.113281)"/>
</clipPath>
</defs>
</svg>
