<svg width="24" height="25" viewBox="0 0 24 25" fill="none" xmlns="http://www.w3.org/2000/svg">
<g clip-path="url(#clip0_2207_11318)">
<path d="M12.0434 24.0195C18.5825 24.0195 23.9965 18.5938 23.9965 12.0664C23.9965 5.52734 18.5708 0.113281 12.0317 0.113281C5.50439 0.113281 0.090332 5.52734 0.090332 12.0664C0.090332 18.5938 5.51611 24.0195 12.0434 24.0195Z" fill="black" fill-opacity="0.85"/>
<path d="M12.0434 8.05859C11.1997 8.05859 10.4965 7.35547 10.4965 6.51172C10.4965 5.66797 11.1997 4.96484 12.0434 4.96484C12.8872 4.96484 13.5903 5.66797 13.5903 6.51172C13.5903 7.35547 12.8872 8.05859 12.0434 8.05859ZM6.74658 14.4336C5.49267 14.4336 4.47314 13.4024 4.47314 12.1485C4.47314 10.8945 5.49267 9.86328 6.74658 9.86328C8.02392 9.86328 9.03174 10.8945 9.03174 12.1485C9.03174 13.4024 8.02392 14.4336 6.74658 14.4336ZM17.3403 14.4336C16.063 14.4336 15.0551 13.4024 15.0551 12.1485C15.0551 10.8945 16.063 9.86328 17.3403 9.86328C18.5942 9.86328 19.6137 10.8945 19.6137 12.1485C19.6137 13.4024 18.5942 14.4336 17.3403 14.4336Z" fill="white"/>
</g>
<defs>
<clipPath id="clip0_2207_11318">
<rect width="23.9062" height="23.918" fill="white" transform="translate(0.090332 0.113281)"/>
</clipPath>
</defs>
</svg>
