<svg width="22" height="22" viewBox="0 0 22 22" fill="none" xmlns="http://www.w3.org/2000/svg">
<g clip-path="url(#clip0_2207_11468)">
<path d="M3.73218 21.7124H17.947C20.408 21.7124 21.6267 20.4936 21.6267 18.0795V3.771C21.6267 1.35694 20.408 0.138184 17.947 0.138184H3.73218C1.28296 0.138184 0.0524902 1.34522 0.0524902 3.771V18.0795C0.0524902 20.5053 1.28296 21.7124 3.73218 21.7124Z" fill="black" fill-opacity="0.85"/>
<path d="M8.72437 17.9389C8.06811 17.9389 7.58765 17.4585 7.58765 16.7905V5.0249C7.58765 4.36865 8.06811 3.88818 8.72437 3.88818H12.9548C13.6111 3.88818 14.0916 4.36865 14.0916 5.0249V16.7905C14.0916 17.4585 13.6111 17.9389 12.9548 17.9389H8.72437ZM10.8455 8.18896C11.5134 8.18896 12.0642 7.63818 12.0642 6.97021C12.0642 6.29052 11.5134 5.73974 10.8455 5.73974C10.1658 5.73974 9.61499 6.29052 9.61499 6.97021C9.61499 7.63818 10.1658 8.18896 10.8455 8.18896ZM10.8455 12.1264C11.5134 12.1264 12.0642 11.5874 12.0642 10.9077C12.0642 10.228 11.5134 9.68896 10.8455 9.68896C10.1658 9.68896 9.61499 10.228 9.61499 10.9077C9.61499 11.5874 10.1658 12.1264 10.8455 12.1264ZM10.8455 16.0756C11.5134 16.0756 12.0642 15.5249 12.0642 14.8452C12.0642 14.1655 11.5134 13.6264 10.8455 13.6264C10.1658 13.6264 9.61499 14.1655 9.61499 14.8452C9.61499 15.5249 10.1658 16.0756 10.8455 16.0756Z" fill="white"/>
</g>
<defs>
<clipPath id="clip0_2207_11468">
<rect width="21.5742" height="21.5977" fill="white" transform="translate(0.0524902 0.114746)"/>
</clipPath>
</defs>
</svg>
