<svg width="22" height="22" viewBox="0 0 22 22" fill="none" xmlns="http://www.w3.org/2000/svg">
<g clip-path="url(#clip0_2207_11388)">
<path d="M3.69849 21.7124H17.9133C20.3743 21.7124 21.593 20.4936 21.593 18.0795V3.771C21.593 1.35694 20.3743 0.138184 17.9133 0.138184H3.69849C1.24927 0.138184 0.0187988 1.34522 0.0187988 3.771V18.0795C0.0187988 20.5053 1.24927 21.7124 3.69849 21.7124Z" fill="black" fill-opacity="0.85"/>
<path d="M10.8118 17.2592C7.28442 17.2592 4.46021 14.4233 4.46021 10.9077C4.46021 7.39208 7.28442 4.55615 10.8118 4.55615C14.3274 4.55615 17.1516 7.39208 17.1516 10.9077C17.1516 14.4233 14.3274 17.2592 10.8118 17.2592ZM7.80005 12.3256C8.58521 12.3256 9.21801 11.6811 9.21801 10.9077C9.21801 10.1342 8.58521 9.48974 7.80005 9.48974C7.02661 9.48974 6.38207 10.1342 6.38207 10.9077C6.38207 11.6811 7.02661 12.3256 7.80005 12.3256ZM13.8118 12.3256C14.5852 12.3256 15.2297 11.6811 15.2297 10.9077C15.2297 10.1342 14.5852 9.48974 13.8118 9.48974C13.0383 9.48974 12.3938 10.1342 12.3938 10.9077C12.3938 11.6811 13.0383 12.3256 13.8118 12.3256ZM10.8118 15.5483C11.5852 15.5483 12.218 14.9038 12.218 14.1303C12.218 13.3569 11.5852 12.7124 10.8118 12.7124C10.0266 12.7124 9.3938 13.3569 9.3938 14.1303C9.3938 14.9038 10.0266 15.5483 10.8118 15.5483Z" fill="white"/>
</g>
<defs>
<clipPath id="clip0_2207_11388">
<rect width="21.5742" height="21.5977" fill="white" transform="translate(0.0187988 0.114746)"/>
</clipPath>
</defs>
</svg>
