<svg width="23" height="22" viewBox="0 0 23 22" fill="none" xmlns="http://www.w3.org/2000/svg">
<g clip-path="url(#clip0_2207_11473)">
<path d="M3.73438 21.7124H18.6875C21.1367 21.7124 22.3672 20.4936 22.3672 18.0795V3.771C22.3672 1.35694 21.1367 0.138184 18.6875 0.138184H3.73438C1.28516 0.138184 0.0546875 1.34522 0.0546875 3.771V18.0795C0.0546875 20.5053 1.28516 21.7124 3.73438 21.7124ZM3.75781 19.8256C2.58594 19.8256 1.94141 19.2045 1.94141 17.9858V3.86475C1.94141 2.646 2.58594 2.02491 3.75781 2.02491H18.6524C19.8125 2.02491 20.4805 2.646 20.4805 3.86475V17.9858C20.4805 19.2045 19.8125 19.8256 18.6524 19.8256H3.75781Z" fill="black" fill-opacity="0.85"/>
<path d="M7.20312 16.4858C8.16406 16.4858 8.94921 15.6889 8.94921 14.7163C8.94921 13.7553 8.16406 12.9585 7.20312 12.9585C6.21874 12.9585 5.43359 13.7553 5.43359 14.7163C5.43359 15.6889 6.21874 16.4858 7.20312 16.4858ZM15.2305 16.4858C16.1914 16.4858 16.9883 15.6889 16.9883 14.7163C16.9883 13.7553 16.1914 12.9585 15.2305 12.9585C14.2578 12.9585 13.4727 13.7553 13.4727 14.7163C13.4727 15.6889 14.2578 16.4858 15.2305 16.4858ZM11.2109 8.84522C12.1719 8.84522 12.9688 8.06006 12.9688 7.07569C12.9688 6.11475 12.1719 5.32959 11.2109 5.32959C10.2383 5.32959 9.4414 6.11475 9.4414 7.07569C9.4414 8.06006 10.2383 8.84522 11.2109 8.84522Z" fill="black" fill-opacity="0.85"/>
</g>
<defs>
<clipPath id="clip0_2207_11473">
<rect width="22.3125" height="21.5977" fill="white" transform="translate(0.0546875 0.114746)"/>
</clipPath>
</defs>
</svg>
