<svg width="30" height="21" viewBox="0 0 30 21" fill="none" xmlns="http://www.w3.org/2000/svg">
<g clip-path="url(#clip0_2207_11543)">
<path d="M0.079834 12.5835C0.079834 14.2592 0.993896 15.1616 2.70483 15.1616H6.53686C8.14233 15.1616 8.95092 15.5835 10.0056 16.9311C11.822 19.2866 14.6228 20.5639 17.5173 20.5639H21.197C22.0759 20.5639 22.6618 19.9897 22.6618 19.1108V1.54444C22.6618 0.688965 22.0759 0.114746 21.197 0.114746H17.5173C14.6228 0.114746 11.822 1.39209 10.0056 3.74756C8.95092 5.10694 8.14233 5.52881 6.53686 5.52881H2.70483C0.993896 5.52881 0.079834 6.41944 0.079834 8.10694V12.5835ZM1.96655 12.3959V8.29444C1.96655 7.68506 2.25952 7.41553 2.82202 7.41553H6.53686C8.71655 7.41553 10.0876 6.71241 11.4939 4.896C12.9587 2.99756 15.1618 2.00147 17.5173 2.00147H20.5525C20.7165 2.00147 20.7751 2.06006 20.7751 2.20069V18.478C20.7751 18.6303 20.7165 18.6772 20.5525 18.6772H17.5173C15.1618 18.6772 12.9587 17.6928 11.4939 15.7944C10.0876 13.978 8.71655 13.2749 6.53686 13.2749H2.82202C2.25952 13.2749 1.96655 12.9936 1.96655 12.3959ZM21.4196 8.11866H27.8064C28.8493 8.11866 29.6696 7.29834 29.6696 6.26709C29.6696 5.23584 28.8493 4.40381 27.8064 4.40381H21.4196V8.11866ZM21.4196 16.2866H27.8064C28.8493 16.2866 29.6696 15.4545 29.6696 14.4233C29.6696 13.392 28.8493 12.5717 27.8064 12.5717H21.4196V16.2866Z" fill="black" fill-opacity="0.85"/>
</g>
<defs>
<clipPath id="clip0_2207_11543">
<rect width="29.5898" height="20.4727" fill="white" transform="translate(0.079834 0.114746)"/>
</clipPath>
</defs>
</svg>
