<svg width="22" height="22" viewBox="0 0 22 22" fill="none" xmlns="http://www.w3.org/2000/svg">
<g clip-path="url(#clip0_2207_11288)">
<path d="M3.75733 21.711H17.9721C20.4331 21.711 21.6518 20.4922 21.6518 18.0781V3.76953C21.6518 1.35547 20.4331 0.136719 17.9721 0.136719H3.75733C1.30811 0.136719 0.0776367 1.34375 0.0776367 3.76953V18.0781C0.0776367 20.5039 1.30811 21.711 3.75733 21.711Z" fill="black" fill-opacity="0.85"/>
<path d="M10.8706 17.2578C7.34325 17.2578 4.51904 14.4219 4.51904 10.9063C4.51904 7.39062 7.34325 4.55469 10.8706 4.55469C14.3862 4.55469 17.2104 7.39062 17.2104 10.9063C17.2104 14.4219 14.3862 17.2578 10.8706 17.2578ZM7.85888 12.3242C8.64404 12.3242 9.27685 11.6797 9.27685 10.9063C9.27685 10.1328 8.64404 9.48828 7.85888 9.48828C7.08544 9.48828 6.44091 10.1328 6.44091 10.9063C6.44091 11.6797 7.08544 12.3242 7.85888 12.3242ZM13.8706 12.3242C14.644 12.3242 15.2885 11.6797 15.2885 10.9063C15.2885 10.1328 14.644 9.48828 13.8706 9.48828C13.0971 9.48828 12.4526 10.1328 12.4526 10.9063C12.4526 11.6797 13.0971 12.3242 13.8706 12.3242Z" fill="white"/>
</g>
<defs>
<clipPath id="clip0_2207_11288">
<rect width="21.5742" height="21.5977" fill="white" transform="translate(0.0776367 0.113281)"/>
</clipPath>
</defs>
</svg>
