<svg width="29" height="21" viewBox="0 0 29 21" fill="none" xmlns="http://www.w3.org/2000/svg">
<g clip-path="url(#clip0_2207_11555)">
<path d="M20.2355 13.1094H22.9894C23.5519 13.1094 23.9152 12.7461 23.9152 12.1953V1.01563C23.9152 0.476562 23.5519 0.113281 22.9894 0.113281H20.2355C18.3839 0.113281 16.6847 0.875 15.4308 2.43359C14.9386 3.01953 14.8097 3.11328 14.1418 3.11328H11.4933C10.3683 3.11328 9.57141 3.83984 9.57141 4.89453V8.32812C9.57141 9.37109 10.3683 10.1094 11.4933 10.1094H14.1418C14.8097 10.1094 14.9386 10.2031 15.4308 10.7656C16.6964 12.336 18.3957 13.1094 20.2355 13.1094ZM23.5636 5.25781H27.4543C28.0753 5.25781 28.5675 4.77734 28.5675 4.14453C28.5675 3.52344 28.0753 3.03125 27.4543 3.03125H23.5636V5.25781ZM23.5636 10.1914H27.4543C28.0753 10.1914 28.5675 9.6875 28.5675 9.07812C28.5675 8.44531 28.0753 7.95312 27.4543 7.95312H23.5636V10.1914ZM0.0440674 20.1524H9.72376C12.466 20.1524 14.2355 18.4531 14.2355 16.0742C14.2355 13.6836 12.466 11.961 9.72376 11.961H4.42688C2.85657 11.961 1.93079 11.0352 1.93079 9.73437C1.93079 8.44531 2.88001 7.54297 4.42688 7.54297H10.4503V5.65625H4.55579C1.80188 5.65625 0.0440674 7.35547 0.0440674 9.73437C0.0440674 12.125 1.80188 13.8477 4.55579 13.8477H9.85266C11.423 13.8477 12.3488 14.7735 12.3488 16.0742C12.3488 17.3633 11.3996 18.2656 9.85266 18.2656H0.0440674V20.1524Z" fill="black" fill-opacity="0.85"/>
</g>
<defs>
<clipPath id="clip0_2207_11555">
<rect width="28.5234" height="20.0508" fill="white" transform="translate(0.0440674 0.113281)"/>
</clipPath>
</defs>
</svg>
