<svg width="23" height="22" viewBox="0 0 23 22" fill="none" xmlns="http://www.w3.org/2000/svg">
<g clip-path="url(#clip0_2207_11293)">
<path d="M3.75952 21.711H18.7126C21.1618 21.711 22.3923 20.4922 22.3923 18.0781V3.76953C22.3923 1.35547 21.1618 0.136719 18.7126 0.136719H3.75952C1.3103 0.136719 0.079834 1.34375 0.079834 3.76953V18.0781C0.079834 20.5039 1.3103 21.711 3.75952 21.711ZM3.78295 19.8242C2.61108 19.8242 1.96655 19.2031 1.96655 17.9844V3.86328C1.96655 2.64453 2.61108 2.02344 3.78295 2.02344H18.6775C19.8376 2.02344 20.5056 2.64453 20.5056 3.86328V17.9844C20.5056 19.2031 19.8376 19.8242 18.6775 19.8242H3.78295Z" fill="black" fill-opacity="0.85"/>
<path d="M11.236 9.48829C12.4431 9.48829 13.4157 8.51563 13.4157 7.3086C13.4157 6.10157 12.4431 5.12891 11.236 5.12891C10.0291 5.12891 9.05639 6.10157 9.05639 7.3086C9.05639 8.51563 10.0291 9.48829 11.236 9.48829ZM7.22827 16.6953C8.18921 16.6953 8.97436 15.9102 8.97436 14.9258C8.97436 13.9649 8.18921 13.1797 7.22827 13.1797C6.24389 13.1797 5.45874 13.9649 5.45874 14.9258C5.45874 15.9102 6.24389 16.6953 7.22827 16.6953ZM15.2556 16.6953C16.2165 16.6953 17.0134 15.9102 17.0134 14.9258C17.0134 13.9649 16.2165 13.1797 15.2556 13.1797C14.2829 13.1797 13.4978 13.9649 13.4978 14.9258C13.4978 15.9102 14.2829 16.6953 15.2556 16.6953Z" fill="black" fill-opacity="0.85"/>
</g>
<defs>
<clipPath id="clip0_2207_11293">
<rect width="22.3125" height="21.5977" fill="white" transform="translate(0.079834 0.113281)"/>
</clipPath>
</defs>
</svg>
