<svg width="23" height="22" viewBox="0 0 23 22" fill="none" xmlns="http://www.w3.org/2000/svg">
<g clip-path="url(#clip0_2207_11353)">
<path d="M3.68384 21.7124H18.6369C21.0861 21.7124 22.3167 20.4936 22.3167 18.0795V3.771C22.3167 1.35694 21.0861 0.138184 18.6369 0.138184H3.68384C1.23462 0.138184 0.00415039 1.34522 0.00415039 3.771V18.0795C0.00415039 20.5053 1.23462 21.7124 3.68384 21.7124ZM3.70727 19.8256C2.5354 19.8256 1.89087 19.2045 1.89087 17.9858V3.86475C1.89087 2.646 2.5354 2.02491 3.70727 2.02491H18.6019C19.762 2.02491 20.43 2.646 20.43 3.86475V17.9858C20.43 19.2045 19.762 19.8256 18.6019 19.8256H3.70727Z" fill="black" fill-opacity="0.85"/>
<path d="M10.68 9.52491H11.6292C12.0276 9.52491 12.2854 9.25537 12.2854 8.85694V5.43506C12.2854 5.03663 12.0276 4.76709 11.6292 4.76709H10.68C10.2933 4.76709 10.0237 5.03663 10.0237 5.43506V8.85694C10.0237 9.25537 10.2933 9.52491 10.68 9.52491ZM5.52368 16.4389H8.58227C8.98071 16.4389 9.23853 16.1812 9.23853 15.7828V14.8335C9.23853 14.435 8.98071 14.1772 8.58227 14.1772H5.52368C5.12524 14.1772 4.86743 14.4467 4.86743 14.8335V15.7828C4.86743 16.1812 5.12524 16.4389 5.52368 16.4389ZM13.7386 16.4389H16.7854C17.1956 16.4389 17.4534 16.1812 17.4534 15.7828V14.8335C17.4534 14.4467 17.1839 14.1772 16.7854 14.1772H13.7386C13.3401 14.1772 13.0706 14.435 13.0706 14.8335V15.7828C13.0706 16.1812 13.3401 16.4389 13.7386 16.4389Z" fill="black" fill-opacity="0.85"/>
</g>
<defs>
<clipPath id="clip0_2207_11353">
<rect width="22.3125" height="21.5977" fill="white" transform="translate(0.00415039 0.114746)"/>
</clipPath>
</defs>
</svg>
