<svg width="30" height="26" viewBox="0 0 30 26" fill="none" xmlns="http://www.w3.org/2000/svg">
<g clip-path="url(#clip0_2207_10582)">
<path d="M6.33105 5.77491H23.5342V3.80616C23.5342 1.521 22.3858 0.501465 20.2178 0.501465H9.64746C7.59668 0.501465 6.33105 1.521 6.33105 3.80616V5.77491Z" fill="black" fill-opacity="0.85"/>
<path d="M5.18262 22.8608H24.542C27.6944 22.8608 29.6279 20.9975 29.6279 17.8217V8.28271C29.6279 5.10693 27.6944 3.24365 24.542 3.24365H5.18262C2.14746 3.24365 0.0966797 5.10693 0.0966797 8.28271V17.8217C0.0966797 20.9975 2.03027 22.8608 5.18262 22.8608Z" fill="white"/>
<path d="M5.18262 21.2553H24.542C26.8155 21.2553 28.0225 20.1069 28.0225 17.8217V8.28271C28.0225 5.99755 26.8155 4.8374 24.542 4.8374H5.18262C3.02637 4.8374 1.70215 5.99755 1.70215 8.28271V17.8217C1.70215 20.1069 2.90918 21.2553 5.18262 21.2553ZM22.0811 10.2163C21.249 10.2163 20.5694 9.54833 20.5694 8.7163C20.5694 7.89599 21.249 7.20458 22.0811 7.20458C22.8897 7.20458 23.5811 7.89599 23.5811 8.7163C23.5811 9.53662 22.8897 10.2163 22.0811 10.2163Z" fill="black" fill-opacity="0.85"/>
<path d="M8.22949 25.7437H21.4834C22.9717 25.7437 23.7334 25.064 23.7334 23.5054V13.9429C23.7334 12.3843 22.9717 11.7046 21.4834 11.7046H8.22949C6.82324 11.7046 5.99121 12.3843 5.99121 13.9429V23.5054C5.99121 25.064 6.75293 25.7437 8.22949 25.7437Z" fill="white"/>
<path d="M8.22949 25.7437H21.4834C22.9717 25.7437 23.7334 25.064 23.7334 23.5054V13.9429C23.7334 12.3843 22.9717 11.7046 21.4834 11.7046H8.22949C6.82324 11.7046 5.99121 12.3843 5.99121 13.9429V23.5054C5.99121 25.064 6.75293 25.7437 8.22949 25.7437ZM8.81543 23.9742C8.19434 23.9742 7.88965 23.6695 7.88965 23.0367V14.4C7.88965 13.7671 8.19434 13.4742 8.81543 13.4742H20.9209C21.542 13.4742 21.835 13.7671 21.835 14.4V23.0367C21.835 23.6695 21.542 23.9742 20.9209 23.9742H8.81543ZM10.7959 17.4H18.9522C19.3623 17.4 19.667 17.0836 19.667 16.6617C19.667 16.2632 19.3623 15.9586 18.9522 15.9586H10.7959C10.374 15.9586 10.0576 16.2632 10.0576 16.6617C10.0576 17.0836 10.374 17.4 10.7959 17.4ZM10.7959 21.4898H18.9522C19.3623 21.4898 19.667 21.1734 19.667 20.775C19.667 20.3648 19.3623 20.0484 18.9522 20.0484H10.7959C10.374 20.0484 10.0576 20.3648 10.0576 20.775C10.0576 21.1734 10.374 21.4898 10.7959 21.4898Z" fill="black" fill-opacity="0.85"/>
</g>
<defs>
<clipPath id="clip0_2207_10582">
<rect width="29.5312" height="25.6289" fill="white" transform="translate(0.0966797 0.114746)"/>
</clipPath>
</defs>
</svg>
