<svg width="21" height="22" viewBox="0 0 21 22" fill="none" xmlns="http://www.w3.org/2000/svg">
<g clip-path="url(#clip0_2207_3309)">
<path d="M1.16504 13.6381C1.46972 13.6381 1.72754 13.5444 1.92675 13.3335L10.997 4.05225H9.55566L18.6259 13.3335C18.8252 13.5327 19.083 13.6381 19.3877 13.6381C20.0088 13.6381 20.4541 13.1811 20.4541 12.5717C20.4541 12.267 20.3369 12.0209 20.1377 11.81L11.0674 2.51709C10.8564 2.30616 10.5869 2.17725 10.2822 2.17725C9.97754 2.17725 9.70801 2.29444 9.48535 2.51709L0.415039 11.81C0.204102 12.0209 0.0986328 12.267 0.0986328 12.5717C0.0986328 13.1811 0.555664 13.6381 1.16504 13.6381ZM1.46972 2.21241H19.0595C19.6689 2.21241 20.0908 1.76709 20.0908 1.15772C20.0908 0.54834 19.6689 0.114746 19.0595 0.114746H1.46972C0.872071 0.114746 0.461914 0.54834 0.461914 1.15772C0.461914 1.76709 0.872071 2.21241 1.46972 2.21241Z" fill="black" fill-opacity="0.85"/>
</g>
<defs>
<clipPath id="clip0_2207_3309">
<rect width="20.3555" height="21.5742" fill="white" transform="translate(0.0986328 0.114746)"/>
</clipPath>
</defs>
</svg>
