<svg width="28" height="23" viewBox="0 0 28 23" fill="none" xmlns="http://www.w3.org/2000/svg">
<g clip-path="url(#clip0_2207_10775)">
<path d="M0.010498 19.2295C0.010498 21.5498 1.20581 22.7685 3.51441 22.7685H18.0105C20.3425 22.7685 21.5613 21.5732 21.5613 19.2764V14.331C21.5613 14.0967 21.7488 13.9912 21.9832 14.1787C22.6277 14.6709 23.3894 15.0693 24.3972 15.0693C26.3894 15.0693 27.9363 13.499 27.9363 11.4834C27.9363 9.47949 26.3894 7.90918 24.3972 7.90918C23.3894 7.90918 22.6277 8.30762 21.9832 8.7998C21.7488 8.9873 21.5613 8.88183 21.5613 8.64746V3.6084C21.5613 1.31152 20.3425 0.116211 18.0105 0.116211H3.51441C1.20581 0.116211 0.010498 1.33496 0.010498 3.65527V8.68262C0.010498 9.44433 0.608154 9.94824 1.31128 9.94824C1.698 9.94824 2.10816 9.78418 2.47144 9.43262C3.02222 8.91699 3.70191 8.26074 5.06128 8.26074C6.83081 8.26074 8.22534 9.66699 8.22534 11.46C8.22534 13.2529 6.83081 14.6592 5.06128 14.6592C3.70191 14.6592 3.02222 13.9912 2.47144 13.4756C2.10816 13.1357 1.698 12.9717 1.31128 12.9717C0.608154 12.9717 0.010498 13.4756 0.010498 14.2373V19.2295Z" fill="black" fill-opacity="0.85"/>
</g>
<defs>
<clipPath id="clip0_2207_10775">
<rect width="27.9258" height="22.6992" fill="white" transform="translate(0.010498 0.116211)"/>
</clipPath>
</defs>
</svg>
