<svg width="35" height="23" viewBox="0 0 35 23" fill="none" xmlns="http://www.w3.org/2000/svg">
<g clip-path="url(#clip0_2207_10779)">
<path d="M10.7055 22.7685H14.5961C15.5688 22.7685 16.1899 22.124 16.1899 21.3154C16.1899 20.8701 16.0024 20.4131 15.5805 19.956C15.0649 19.3935 14.7485 18.7373 14.7485 18.0576C14.7485 16.6982 15.7211 15.585 17.2563 15.585C18.7915 15.585 19.7641 16.6982 19.7641 18.0576C19.7641 18.7373 19.436 19.3935 18.9204 19.956C18.5102 20.4131 18.3227 20.8701 18.3227 21.3154C18.3227 22.124 18.9438 22.7685 19.9165 22.7685H23.7954C26.1508 22.7685 27.3813 21.5615 27.3813 19.2412V15.1045C27.3813 14.917 27.5102 14.8232 27.7211 14.9756C28.4711 15.5029 29.3266 15.8779 30.2993 15.8779C32.5141 15.8779 34.5063 14.0967 34.5063 11.4834C34.5063 8.88183 32.5141 7.10059 30.2993 7.10059C29.3266 7.10059 28.4711 7.47559 27.7211 8.00293C27.5102 8.15527 27.3813 8.06152 27.3813 7.87402V3.64355C27.3813 1.32324 26.1508 0.116211 23.7954 0.116211H19.9165C18.9438 0.116211 18.3227 0.760742 18.3227 1.56933C18.3227 2.01465 18.5102 2.47168 18.9204 2.92871C19.436 3.50293 19.7641 4.14746 19.7641 4.83887C19.7641 6.1748 18.768 7.2998 17.2563 7.2998C15.7446 7.2998 14.7485 6.1748 14.7485 4.83887C14.7485 4.14746 15.0649 3.50293 15.5805 2.92871C16.0024 2.47168 16.1899 2.01465 16.1899 1.56933C16.1899 0.760742 15.5688 0.116211 14.5961 0.116211H10.7055C8.36182 0.116211 7.13135 1.32324 7.13135 3.64355V7.87402C7.13135 8.06152 7.00244 8.15527 6.79151 8.00293C6.04151 7.47559 5.18604 7.10059 4.20166 7.10059C1.99854 7.10059 0.00634766 8.88183 0.00634766 11.4834C0.00634766 14.0967 1.99854 15.8779 4.20166 15.8779C5.18604 15.8779 6.04151 15.5029 6.79151 14.9756C7.00244 14.8232 7.13135 14.917 7.13135 15.1045V19.2412C7.13135 21.5615 8.36182 22.7685 10.7055 22.7685ZM10.7407 20.8818C9.6626 20.8818 9.01807 20.2724 9.01807 19.1474V14.1553C9.01807 13.1709 8.37354 12.5498 7.56494 12.5498C7.11963 12.5498 6.6626 12.7373 6.20557 13.1592C5.63135 13.6748 4.98682 14.0029 4.29541 14.0029C2.95947 14.0029 1.83447 13.0068 1.83447 11.4834C1.83447 9.97168 2.95947 8.97559 4.29541 8.97559C4.98682 8.97559 5.63135 9.30371 6.20557 9.81933C6.6626 10.2412 7.11963 10.4287 7.56494 10.4287C8.37354 10.4287 9.01807 9.80762 9.01807 8.82324V3.7373C9.01807 2.62402 9.6626 2.00293 10.7407 2.00293H13.436C13.9868 2.00293 13.811 2.28418 13.6704 2.50683C13.2133 3.22168 12.8735 4.00683 12.8735 4.93262C12.8735 7.13574 14.643 9.12793 17.2563 9.12793C19.8696 9.12793 21.6391 7.13574 21.6391 4.93262C21.6391 4.00683 21.2993 3.22168 20.8422 2.50683C20.7016 2.28418 20.5258 2.00293 21.0766 2.00293H23.7719C24.8501 2.00293 25.4946 2.62402 25.4946 3.7373V8.82324C25.4946 9.80762 26.1391 10.4287 26.9477 10.4287C27.393 10.4287 27.8501 10.2412 28.3071 9.81933C28.8696 9.30371 29.5258 8.97559 30.2055 8.97559C31.5532 8.97559 32.6782 9.97168 32.6782 11.4834C32.6782 13.0068 31.5532 14.0029 30.2055 14.0029C29.5258 14.0029 28.8696 13.6748 28.3071 13.1592C27.8501 12.7373 27.393 12.5498 26.9477 12.5498C26.1391 12.5498 25.4946 13.1709 25.4946 14.1553V19.1474C25.4946 20.2724 24.8501 20.8818 23.7719 20.8818H21.0766C20.5258 20.8818 20.7016 20.6006 20.8422 20.3779C21.2993 19.6631 21.6391 18.8779 21.6391 17.9639C21.6391 15.7256 19.893 13.7568 17.2563 13.7568C14.6196 13.7568 12.8735 15.7256 12.8735 17.9639C12.8735 18.8779 13.2133 19.6631 13.6704 20.3779C13.811 20.6006 13.9868 20.8818 13.436 20.8818H10.7407Z" fill="black" fill-opacity="0.85"/>
</g>
<defs>
<clipPath id="clip0_2207_10779">
<rect width="34.5" height="22.6992" fill="white" transform="translate(0.00634766 0.116211)"/>
</clipPath>
</defs>
</svg>
