<svg width="25" height="28" viewBox="0 0 25 28" fill="none" xmlns="http://www.w3.org/2000/svg">
<g clip-path="url(#clip0_2207_19943)">
<path d="M0.307058 20.3325C-0.232004 21.27 -0.0327855 22.313 0.963308 22.7466L11.264 27.1763C11.7797 27.3989 12.2953 27.3989 12.8461 27.1646L23.1351 22.7466C24.1312 22.313 24.3304 21.27 23.7914 20.3325L13.1508 1.7583C12.8226 1.18408 12.4242 1.07861 12.0492 1.07861C11.6625 1.07861 11.264 1.18408 10.9359 1.7583L0.307058 20.3325ZM2.2055 20.6841L11.8265 3.98486C11.8851 3.89111 11.9554 3.84424 12.0492 3.84424C12.1429 3.84424 12.2133 3.87939 12.2601 3.98486L21.8929 20.6841C22.0687 21.0005 21.9633 21.2583 21.682 21.3872L12.4711 25.5474C12.1429 25.6997 11.9554 25.6997 11.6508 25.5708L2.40472 21.3872C2.13519 21.2583 2.02972 21.0005 2.2055 20.6841ZM11.1586 26.4497H12.9281V2.85986H11.1586V26.4497Z" fill="black" fill-opacity="0.85"/>
</g>
<defs>
<clipPath id="clip0_2207_19943">
<rect width="24.0692" height="27.2256" fill="white" transform="translate(0.0146484 0.116211)"/>
</clipPath>
</defs>
</svg>
