<svg width="24" height="25" viewBox="0 0 24 25" fill="none" xmlns="http://www.w3.org/2000/svg">
<g clip-path="url(#clip0_2207_25151)">
<path d="M11.9741 24.0224C18.5132 24.0224 23.9272 18.5967 23.9272 12.0693C23.9272 5.53027 18.5015 0.116211 11.9624 0.116211C5.43506 0.116211 0.0209961 5.53027 0.0209961 12.0693C0.0209961 18.5967 5.44678 24.0224 11.9741 24.0224Z" fill="black" fill-opacity="0.85"/>
<path d="M11.9741 17.7412C8.88038 17.7412 6.73584 15.3506 6.73584 11.9521C6.73584 8.54199 8.88038 6.16309 11.9741 6.16309C15.0679 6.16309 17.2124 8.54199 17.2124 11.9521C17.2124 13.9678 16.4624 15.6084 15.2202 16.6045L15.9468 17.5771C16.1694 17.8818 16.228 18.0224 16.228 18.2451C16.228 18.667 15.9468 18.96 15.5132 18.96C15.2085 18.96 14.9858 18.8428 14.7515 18.5146L13.9077 17.3896C13.3218 17.6123 12.6772 17.7412 11.9741 17.7412ZM11.9741 16.206C12.3257 16.206 12.6421 16.1592 12.9351 16.0654L12.3491 15.2568C12.1733 15.0342 12.1148 14.8584 12.1148 14.6474C12.1148 14.2607 12.4429 13.956 12.8413 13.956C13.1226 13.956 13.3101 14.0498 13.4976 14.2959L14.189 15.2217C14.8804 14.4951 15.2788 13.3584 15.2788 11.9521C15.2788 9.37402 13.9663 7.69824 11.9741 7.69824C9.98194 7.69824 8.68116 9.37402 8.68116 11.9521C8.68116 14.5303 9.98194 16.206 11.9741 16.206Z" fill="white"/>
</g>
<defs>
<clipPath id="clip0_2207_25151">
<rect width="23.9062" height="23.918" fill="white" transform="translate(0.0209961 0.116211)"/>
</clipPath>
</defs>
</svg>
