<svg width="24" height="25" viewBox="0 0 24 25" fill="none" xmlns="http://www.w3.org/2000/svg">
<g clip-path="url(#clip0_2207_25146)">
<path d="M11.9719 24.0224C18.511 24.0224 23.925 18.5967 23.925 12.0693C23.925 5.53027 18.4993 0.116211 11.9602 0.116211C5.43286 0.116211 0.0187988 5.53027 0.0187988 12.0693C0.0187988 18.5967 5.44458 24.0224 11.9719 24.0224ZM11.9719 22.0303C6.44068 22.0303 2.02271 17.6006 2.02271 12.0693C2.02271 6.53809 6.42896 2.1084 11.9602 2.1084C17.4915 2.1084 21.9329 6.53809 21.9329 12.0693C21.9329 17.6006 17.5032 22.0303 11.9719 22.0303Z" fill="black" fill-opacity="0.85"/>
<path d="M11.9602 17.5654C12.6399 17.5654 13.2727 17.4482 13.8352 17.2256L14.6555 18.3271C14.8782 18.6435 15.1008 18.749 15.3938 18.749C15.804 18.749 16.0852 18.4678 16.0852 18.0576C16.0852 17.8467 16.0266 17.706 15.804 17.4131L15.1008 16.4756C16.3079 15.5029 17.0344 13.9092 17.0344 11.9639C17.0344 8.65918 14.9602 6.35059 11.9602 6.35059C8.96021 6.35059 6.88599 8.65918 6.88599 11.9639C6.88599 15.2568 8.96021 17.5654 11.9602 17.5654ZM11.9602 16.0889C10.0266 16.0889 8.76099 14.46 8.76099 11.9639C8.76099 9.45605 10.0266 7.82715 11.9602 7.82715C13.8938 7.82715 15.1711 9.45605 15.1711 11.9639C15.1711 13.3232 14.7844 14.4365 14.1047 15.1396L13.4368 14.2373C13.2493 13.9912 13.0735 13.9092 12.804 13.9092C12.4172 13.9092 12.1008 14.2021 12.1008 14.5771C12.1008 14.7764 12.1594 14.9404 12.3235 15.1631L12.8977 15.9482C12.6165 16.042 12.3 16.0889 11.9602 16.0889Z" fill="black" fill-opacity="0.85"/>
</g>
<defs>
<clipPath id="clip0_2207_25146">
<rect width="23.9062" height="23.918" fill="white" transform="translate(0.0187988 0.116211)"/>
</clipPath>
</defs>
</svg>
