<svg width="22" height="22" viewBox="0 0 22 22" fill="none" xmlns="http://www.w3.org/2000/svg">
<g clip-path="url(#clip0_2207_25161)">
<path d="M3.70484 21.7139H17.9196C20.3806 21.7139 21.5993 20.4951 21.5993 18.081V3.77246C21.5993 1.3584 20.3806 0.139648 17.9196 0.139648H3.70484C1.25562 0.139648 0.0251465 1.34668 0.0251465 3.77246V18.081C0.0251465 20.5068 1.25562 21.7139 3.70484 21.7139Z" fill="black" fill-opacity="0.85"/>
<path d="M10.8181 16.581C7.72436 16.581 5.57983 14.1904 5.57983 10.792C5.57983 7.38183 7.72436 5.00293 10.8181 5.00293C13.9118 5.00293 16.0563 7.38183 16.0563 10.792C16.0563 12.8076 15.3063 14.4482 14.0642 15.4443L14.7907 16.417C15.0134 16.7217 15.0837 16.8623 15.0837 17.085C15.0837 17.5068 14.7907 17.7998 14.3571 17.7998C14.0524 17.7998 13.8298 17.6826 13.5954 17.3545L12.7517 16.2295C12.1774 16.4521 11.5212 16.581 10.8181 16.581ZM10.8181 15.0459C11.1696 15.0459 11.486 14.999 11.779 14.9053L11.1931 14.0967C11.029 13.874 10.9587 13.6982 10.9587 13.4873C10.9587 13.1006 11.2868 12.7959 11.6853 12.7959C11.9665 12.7959 12.154 12.8896 12.3415 13.1357L13.0329 14.0615C13.7243 13.335 14.1228 12.1982 14.1228 10.792C14.1228 8.21387 12.822 6.53809 10.8181 6.53809C8.82592 6.53809 7.52514 8.21387 7.52514 10.792C7.52514 13.3701 8.82592 15.0459 10.8181 15.0459Z" fill="white"/>
</g>
<defs>
<clipPath id="clip0_2207_25161">
<rect width="21.5742" height="21.5977" fill="white" transform="translate(0.0251465 0.116211)"/>
</clipPath>
</defs>
</svg>
