<svg width="22" height="22" viewBox="0 0 22 22" fill="none" xmlns="http://www.w3.org/2000/svg">
<g clip-path="url(#clip0_2207_18874)">
<path d="M2.26562 9.95996H7.60937C9.09765 9.95996 9.84765 9.20996 9.84765 7.66309V2.4248C9.84765 0.87793 9.09765 0.139648 7.60937 0.139648H2.26562C0.777344 0.139648 0.0273438 0.87793 0.0273438 2.4248V7.66309C0.0273438 9.20996 0.777344 9.95996 2.26562 9.95996ZM2.28906 8.30762C1.8789 8.30762 1.67968 8.09668 1.67968 7.66309V2.4248C1.67968 2.00293 1.8789 1.79199 2.28906 1.79199H7.57422C7.98437 1.79199 8.19531 2.00293 8.19531 2.4248V7.66309C8.19531 8.09668 7.98437 8.30762 7.57422 8.30762H2.28906ZM3.92968 6.28027H5.93359C6.09765 6.28027 6.16796 6.20996 6.16796 6.01074V4.06543C6.16796 3.87793 6.09765 3.80762 5.93359 3.80762H3.92968C3.7539 3.80762 3.69531 3.87793 3.69531 4.06543V6.01074C3.69531 6.20996 3.7539 6.28027 3.92968 6.28027ZM14.0312 9.95996H19.3632C20.8515 9.95996 21.6015 9.20996 21.6015 7.66309V2.4248C21.6015 0.87793 20.8515 0.139648 19.3632 0.139648H14.0312C12.5312 0.139648 11.7812 0.87793 11.7812 2.4248V7.66309C11.7812 9.20996 12.5312 9.95996 14.0312 9.95996ZM14.0546 8.30762C13.6328 8.30762 13.4335 8.09668 13.4335 7.66309V2.4248C13.4335 2.00293 13.6328 1.79199 14.0546 1.79199H19.3398C19.75 1.79199 19.9492 2.00293 19.9492 2.4248V7.66309C19.9492 8.09668 19.75 8.30762 19.3398 8.30762H14.0546ZM15.7539 6.28027H17.7578C17.9335 6.28027 18.0039 6.20996 18.0039 6.01074V4.06543C18.0039 3.87793 17.9335 3.80762 17.7578 3.80762H15.7539C15.5898 3.80762 15.5312 3.87793 15.5312 4.06543V6.01074C15.5312 6.20996 15.5898 6.28027 15.7539 6.28027ZM2.26562 21.7139H7.60937C9.09765 21.7139 9.84765 20.9756 9.84765 19.4287V14.1787C9.84765 12.6435 9.09765 11.8935 7.60937 11.8935H2.26562C0.777344 11.8935 0.0273438 12.6435 0.0273438 14.1787V19.4287C0.0273438 20.9756 0.777344 21.7139 2.26562 21.7139ZM2.28906 20.0615C1.8789 20.0615 1.67968 19.8506 1.67968 19.4287V14.1904C1.67968 13.7568 1.8789 13.5459 2.28906 13.5459H7.57422C7.98437 13.5459 8.19531 13.7568 8.19531 14.1904V19.4287C8.19531 19.8506 7.98437 20.0615 7.57422 20.0615H2.28906ZM3.92968 18.0459H5.93359C6.09765 18.0459 6.16796 17.9756 6.16796 17.7646V15.831C6.16796 15.6435 6.09765 15.5732 5.93359 15.5732H3.92968C3.7539 15.5732 3.69531 15.6435 3.69531 15.831V17.7646C3.69531 17.9756 3.7539 18.0459 3.92968 18.0459ZM12.5781 14.9287H14.582C14.7461 14.9287 14.8164 14.8584 14.8164 14.6592V12.7139C14.8164 12.5264 14.7461 12.456 14.582 12.456H12.5781C12.4023 12.456 12.3437 12.5264 12.3437 12.7139V14.6592C12.3437 14.8584 12.4023 14.9287 12.5781 14.9287ZM18.8007 14.9287H20.8046C20.9687 14.9287 21.039 14.8584 21.039 14.6592V12.7139C21.039 12.5264 20.9687 12.456 20.8046 12.456H18.8007C18.625 12.456 18.5664 12.5264 18.5664 12.7139V14.6592C18.5664 14.8584 18.625 14.9287 18.8007 14.9287ZM15.7187 18.0459H17.7226C17.8867 18.0459 17.957 17.9756 17.957 17.7646V15.831C17.957 15.6435 17.8867 15.5732 17.7226 15.5732H15.7187C15.5429 15.5732 15.4843 15.6435 15.4843 15.831V17.7646C15.4843 17.9756 15.5429 18.0459 15.7187 18.0459ZM12.5781 21.1514H14.582C14.7461 21.1514 14.8164 21.081 14.8164 20.8818V18.9365C14.8164 18.749 14.7461 18.6787 14.582 18.6787H12.5781C12.4023 18.6787 12.3437 18.749 12.3437 18.9365V20.8818C12.3437 21.081 12.4023 21.1514 12.5781 21.1514ZM18.8007 21.1514H20.8046C20.9687 21.1514 21.039 21.081 21.039 20.8818V18.9365C21.039 18.749 20.9687 18.6787 20.8046 18.6787H18.8007C18.625 18.6787 18.5664 18.749 18.5664 18.9365V20.8818C18.5664 21.081 18.625 21.1514 18.8007 21.1514Z" fill="black" fill-opacity="0.85"/>
</g>
<defs>
<clipPath id="clip0_2207_18874">
<rect width="21.5742" height="21.5977" fill="white" transform="translate(0.0273438 0.116211)"/>
</clipPath>
</defs>
</svg>
