<svg width="22" height="22" viewBox="0 0 22 22" fill="none" xmlns="http://www.w3.org/2000/svg">
<g clip-path="url(#clip0_2207_22672)">
<path d="M3.73853 21.7139H17.9533C20.4143 21.7139 21.633 20.4951 21.633 18.081V3.77246C21.633 1.3584 20.4143 0.139648 17.9533 0.139648H3.73853C1.28931 0.139648 0.0588379 1.34668 0.0588379 3.77246V18.081C0.0588379 20.5068 1.28931 21.7139 3.73853 21.7139ZM3.76196 19.8271C2.59009 19.8271 1.94556 19.206 1.94556 17.9873V3.86621C1.94556 2.64746 2.59009 2.02637 3.76196 2.02637H17.9299C19.09 2.02637 19.7463 2.64746 19.7463 3.86621V17.9873C19.7463 19.206 19.09 19.8271 17.9299 19.8271H3.76196Z" fill="black" fill-opacity="0.85"/>
<path d="M10.6174 13.335C11.215 13.335 11.5666 12.96 11.5666 12.5029C11.5666 12.456 11.5666 12.3974 11.5666 12.3623C11.5666 11.706 11.9533 11.2842 12.7619 10.7451C13.8986 9.99512 14.7072 9.31543 14.7072 7.90918C14.7072 5.96387 12.9729 4.90918 10.9807 4.90918C8.9768 4.90918 7.65258 5.87012 7.32445 6.94824C7.26586 7.13574 7.23071 7.32324 7.23071 7.52246C7.23071 8.0498 7.64086 8.33105 8.02758 8.33105C8.43774 8.33105 8.68383 8.14355 8.89477 7.8623L9.10571 7.58105C9.51586 6.90137 10.1369 6.50293 10.9104 6.50293C11.9768 6.50293 12.6682 7.1123 12.6682 8.00293C12.6682 8.7998 12.176 9.18652 11.1565 9.90137C10.3127 10.4873 9.67992 11.1084 9.67992 12.2568C9.67992 12.3037 9.67992 12.3623 9.67992 12.4092C9.67992 13.0185 10.0198 13.335 10.6174 13.335ZM10.594 16.8271C11.2736 16.8271 11.8596 16.2881 11.8596 15.6084C11.8596 14.9287 11.2854 14.3896 10.594 14.3896C9.90258 14.3896 9.32836 14.9404 9.32836 15.6084C9.32836 16.2764 9.9143 16.8271 10.594 16.8271Z" fill="black" fill-opacity="0.85"/>
</g>
<defs>
<clipPath id="clip0_2207_22672">
<rect width="21.5742" height="21.5977" fill="white" transform="translate(0.0588379 0.116211)"/>
</clipPath>
</defs>
</svg>
