<svg width="22" height="22" viewBox="0 0 22 22" fill="none" xmlns="http://www.w3.org/2000/svg">
<g clip-path="url(#clip0_2207_6352)">
<path d="M0.0610352 6.31543H1.94776V3.86621C1.94776 2.64746 2.59229 2.02637 3.76416 2.02637H6.18995V0.139648H3.74073C1.29151 0.139648 0.0610352 1.34668 0.0610352 3.77246V6.31543ZM7.79541 2.02637H13.9008V0.139648H7.79541V2.02637ZM19.7485 6.31543H21.6352V3.77246C21.6352 1.3584 20.4048 0.139648 17.9555 0.139648H15.5063V2.02637H17.9321C19.0922 2.02637 19.7485 2.64746 19.7485 3.86621V6.31543ZM19.7485 13.9326H21.6352V7.9209H19.7485V13.9326ZM15.5063 21.7139H17.9555C20.4048 21.7139 21.6352 20.4951 21.6352 18.081V15.5381H19.7485V17.9873C19.7485 19.206 19.0922 19.8271 17.9321 19.8271H15.5063V21.7139ZM7.79541 21.7139H13.9008V19.8271H7.79541V21.7139ZM3.74073 21.7139H6.18995V19.8271H3.76416C2.59229 19.8271 1.94776 19.206 1.94776 17.9873V15.5381H0.0610352V18.081C0.0610352 20.5068 1.29151 21.7139 3.74073 21.7139ZM0.0610352 13.9326H1.94776V7.9209H0.0610352V13.9326Z" fill="black" fill-opacity="0.85"/>
<path d="M10.6196 13.335C11.2172 13.335 11.5688 12.96 11.5688 12.5029C11.5688 12.456 11.5688 12.3974 11.5688 12.3623C11.5688 11.706 11.9555 11.2842 12.7641 10.7451C13.9008 9.99512 14.7094 9.31543 14.7094 7.90918C14.7094 5.96387 12.9751 4.90918 10.9829 4.90918C8.979 4.90918 7.65478 5.87012 7.32665 6.94824C7.26806 7.13574 7.23291 7.32324 7.23291 7.52246C7.23291 8.0498 7.64306 8.33105 8.02978 8.33105C8.43994 8.33105 8.68603 8.14355 8.89697 7.8623L9.10791 7.58105C9.51806 6.90137 10.1391 6.50293 10.9126 6.50293C11.979 6.50293 12.6704 7.1123 12.6704 8.00293C12.6704 8.7998 12.1782 9.18652 11.1587 9.90137C10.3149 10.4873 9.68212 11.1084 9.68212 12.2568C9.68212 12.3037 9.68212 12.3623 9.68212 12.4092C9.68212 13.0185 10.022 13.335 10.6196 13.335ZM10.5962 16.8271C11.2758 16.8271 11.8618 16.2881 11.8618 15.6084C11.8618 14.9287 11.2876 14.3896 10.5962 14.3896C9.90478 14.3896 9.33056 14.9404 9.33056 15.6084C9.33056 16.2764 9.9165 16.8271 10.5962 16.8271Z" fill="black" fill-opacity="0.85"/>
</g>
<defs>
<clipPath id="clip0_2207_6352">
<rect width="21.5742" height="21.5977" fill="white" transform="translate(0.0610352 0.116211)"/>
</clipPath>
</defs>
</svg>
