<svg width="30" height="20" viewBox="0 0 30 20" fill="none" xmlns="http://www.w3.org/2000/svg">
<g clip-path="url(#clip0_2207_9682)">
<path d="M4.6355 19.3818H16.8816C19.741 19.3818 21.4519 17.7178 21.4519 14.8584V4.62793C21.4519 1.78027 19.741 0.116211 16.8816 0.116211H4.6355C1.90503 0.116211 0.0651855 1.78027 0.0651855 4.62793V14.8584C0.0651855 17.7178 1.77613 19.3818 4.6355 19.3818ZM4.96363 17.6123C3.04175 17.6123 1.95191 16.6162 1.95191 14.5889V4.90918C1.95191 2.87012 3.04175 1.87402 4.96363 1.87402H16.5535C18.4636 1.87402 19.5652 2.87012 19.5652 4.90918V14.5889C19.5652 16.6162 18.4636 17.6123 16.5535 17.6123H4.96363ZM21.1824 6.46777V8.69433L26.7605 4.08887C26.866 4.00683 26.9363 3.94824 27.0418 3.94824C27.1824 3.94824 27.241 4.06543 27.241 4.22949V15.2685C27.241 15.4326 27.1824 15.5381 27.0418 15.5381C26.9363 15.5381 26.866 15.4795 26.7605 15.4092L21.1824 10.8037V13.0185L25.8816 17.0029C26.3504 17.3896 26.866 17.6592 27.3464 17.6592C28.3777 17.6592 29.0574 16.8974 29.0574 15.8076V3.69043C29.0574 2.60059 28.3777 1.83887 27.3464 1.83887C26.866 1.83887 26.3504 2.1084 25.8816 2.49512L21.1824 6.46777Z" fill="black" fill-opacity="0.85"/>
<path d="M10.448 12.0107C10.9754 12.0107 11.3035 11.6826 11.3035 11.249C11.3035 11.2139 11.3035 11.167 11.3035 11.1201C11.3035 10.5224 11.6433 10.1592 12.3933 9.667C13.4246 8.98731 14.1511 8.36622 14.1511 7.08888C14.1511 5.31934 12.5808 4.38184 10.7644 4.38184C8.93628 4.38184 7.76441 5.23731 7.448 6.20997C7.38941 6.38575 7.36597 6.56153 7.36597 6.74903C7.36597 7.21778 7.74097 7.4756 8.09253 7.4756C8.69019 7.4756 8.79566 7.14747 9.1355 6.74903C9.48707 6.17481 10.0027 5.82325 10.7058 5.82325C11.6785 5.82325 12.2996 6.36231 12.2996 7.17091C12.2996 7.89747 11.8543 8.24903 10.9285 8.89356C10.1668 9.43263 9.59253 9.99513 9.59253 11.0264C9.59253 11.0732 9.59253 11.1318 9.59253 11.167C9.59253 11.7295 9.89722 12.0107 10.448 12.0107ZM10.4129 15.1748C11.0222 15.1748 11.5613 14.6943 11.5613 14.0732C11.5613 13.4639 11.034 12.9717 10.4129 12.9717C9.79175 12.9717 9.27613 13.4639 9.27613 14.0732C9.27613 14.6826 9.80347 15.1748 10.4129 15.1748Z" fill="black" fill-opacity="0.85"/>
</g>
<defs>
<clipPath id="clip0_2207_9682">
<rect width="28.9922" height="19.2773" fill="white" transform="translate(0.0651855 0.116211)"/>
</clipPath>
</defs>
</svg>
