<svg width="24" height="25" viewBox="0 0 24 25" fill="none" xmlns="http://www.w3.org/2000/svg">
<g clip-path="url(#clip0_2207_22662)">
<path d="M11.9972 24.0224C18.5363 24.0224 23.9503 18.5967 23.9503 12.0693C23.9503 5.53027 18.5246 0.116211 11.9855 0.116211C5.45813 0.116211 0.0440674 5.53027 0.0440674 12.0693C0.0440674 18.5967 5.46985 24.0224 11.9972 24.0224ZM11.9972 22.0303C6.46595 22.0303 2.04798 17.6006 2.04798 12.0693C2.04798 6.53809 6.45423 2.1084 11.9855 2.1084C17.5168 2.1084 21.9582 6.53809 21.9582 12.0693C21.9582 17.6006 17.5285 22.0303 11.9972 22.0303Z" fill="black" fill-opacity="0.85"/>
<path d="M11.7511 14.4951C12.3371 14.4951 12.7003 14.1201 12.7003 13.6631C12.7003 13.6162 12.7003 13.5576 12.7003 13.5224C12.7003 12.8662 13.0753 12.4443 13.8957 11.9053C15.0324 11.1553 15.841 10.4756 15.841 9.06934C15.841 7.12403 14.1066 6.06934 12.1144 6.06934C10.0988 6.06934 8.77454 7.03028 8.45813 8.10841C8.39954 8.29591 8.36438 8.48341 8.36438 8.68263C8.36438 9.20997 8.77454 9.49122 9.16126 9.49122C9.55969 9.49122 9.81751 9.30372 10.0285 9.02247L10.2394 8.74122C10.6496 8.06153 11.2589 7.6631 12.0441 7.6631C13.1105 7.6631 13.8019 8.27247 13.8019 9.1631C13.8019 9.95997 13.3097 10.3467 12.2902 11.0615C11.4464 11.6474 10.8136 12.2685 10.8136 13.417C10.8136 13.4639 10.8136 13.5224 10.8136 13.5693C10.8136 14.1787 11.1535 14.4951 11.7511 14.4951ZM11.7277 17.9873C12.4074 17.9873 12.9933 17.4482 12.9933 16.7685C12.9933 16.0889 12.4191 15.5498 11.7277 15.5498C11.0363 15.5498 10.4621 16.1006 10.4621 16.7685C10.4621 17.4365 11.048 17.9873 11.7277 17.9873Z" fill="black" fill-opacity="0.85"/>
</g>
<defs>
<clipPath id="clip0_2207_22662">
<rect width="23.9062" height="23.918" fill="white" transform="translate(0.0440674 0.116211)"/>
</clipPath>
</defs>
</svg>
