<svg width="27" height="22" viewBox="0 0 27 22" fill="none" xmlns="http://www.w3.org/2000/svg">
<g clip-path="url(#clip0_2207_459)">
<path d="M3.73438 21.5615H23.3399C25.4375 21.5615 26.668 20.3428 26.668 17.9287V5.89355C26.668 3.47949 25.4258 2.26074 22.9883 2.26074H11.7383C10.9414 2.26074 10.4609 2.07324 9.875 1.56933L9.16016 0.983399C8.38672 0.327149 7.78907 0.116211 6.62891 0.116211H3.28907C1.23828 0.116211 0.0546875 1.28809 0.0546875 3.64355V17.9287C0.0546875 20.3545 1.28516 21.5615 3.73438 21.5615Z" fill="black" fill-opacity="0.85"/>
<path d="M13.1445 14.167C12.5703 14.167 12.2422 13.874 12.2422 13.2764C12.2422 13.2295 12.2422 13.1826 12.2422 13.1357C12.2422 12.0224 12.8516 11.4365 13.6485 10.874C14.6445 10.1826 15.1133 9.81933 15.1133 9.05762C15.1133 8.20215 14.4453 7.62793 13.4258 7.62793C12.6875 7.62793 12.1016 7.99121 11.7031 8.65918L11.5039 8.92871C11.293 9.18652 11.0469 9.37402 10.6719 9.37402C10.2969 9.37402 9.88672 9.10449 9.88672 8.60059C9.88672 8.40137 9.9336 8.21387 9.99219 8.03809C10.2969 7.00683 11.5625 6.10449 13.4961 6.10449C15.418 6.10449 17.082 7.10059 17.082 8.97559C17.082 10.3115 16.2969 10.9795 15.207 11.6943C14.4219 12.1982 14.0586 12.5967 14.0586 13.2295C14.0586 13.2764 14.0586 13.3232 14.0586 13.3584C14.0586 13.8154 13.7188 14.167 13.1445 14.167ZM13.1211 17.5185C12.4766 17.5185 11.9024 16.9912 11.9024 16.3467C11.9024 15.7021 12.4649 15.1748 13.1211 15.1748C13.7891 15.1748 14.3399 15.6904 14.3399 16.3467C14.3399 17.0029 13.7774 17.5185 13.1211 17.5185Z" fill="white"/>
</g>
<defs>
<clipPath id="clip0_2207_459">
<rect width="26.6133" height="21.5977" fill="white" transform="translate(0.0546875 0.116211)"/>
</clipPath>
</defs>
</svg>
