<svg width="26" height="17" viewBox="0 0 26 17" fill="none" xmlns="http://www.w3.org/2000/svg">
<g clip-path="url(#clip0_2207_9150)">
<path d="M11.7945 10.7334C11.7945 7.61621 9.48584 5.13183 6.50927 5.13183C5.11474 5.13183 3.79052 5.68262 2.81787 6.76074H2.50146C3.18115 4.5459 5.24365 2.69433 7.81006 1.93262C8.17334 1.81543 8.44287 1.70996 8.60693 1.56933C8.79443 1.41699 8.8999 1.22949 8.8999 0.959961C8.8999 0.467773 8.5249 0.12793 7.97412 0.12793C7.61084 0.12793 7.32959 0.198242 6.82568 0.362305C5.20849 0.889649 3.75537 1.81543 2.63037 2.99902C1.04834 4.63965 0.0756836 6.83105 0.0756836 9.43262C0.0756836 13.8271 2.86474 16.3701 6.13427 16.3701C9.35693 16.3701 11.7945 13.9092 11.7945 10.7334ZM25.8687 10.7334C25.8687 7.61621 23.5484 5.13183 20.5835 5.13183C19.189 5.13183 17.853 5.68262 16.8921 6.76074H16.5757C17.2554 4.5459 19.3179 2.69433 21.8726 1.93262C22.2359 1.81543 22.5171 1.70996 22.6812 1.56933C22.8687 1.41699 22.9624 1.22949 22.9624 0.959961C22.9624 0.467773 22.5991 0.12793 22.0484 0.12793C21.6734 0.12793 21.4038 0.198242 20.8882 0.362305C19.2827 0.889649 17.8179 1.81543 16.6929 2.99902C15.1226 4.63965 14.1499 6.83105 14.1499 9.43262C14.1499 13.8271 16.939 16.3701 20.2085 16.3701C23.4312 16.3701 25.8687 13.9092 25.8687 10.7334Z" fill="black" fill-opacity="0.85"/>
</g>
<defs>
<clipPath id="clip0_2207_9150">
<rect width="25.793" height="16.2539" fill="white" transform="translate(0.0756836 0.116211)"/>
</clipPath>
</defs>
</svg>
