<svg width="26" height="27" viewBox="0 0 26 27" fill="none" xmlns="http://www.w3.org/2000/svg">
<g clip-path="url(#clip0_2207_9163)">
<path d="M7.03223 26.0029C7.48926 26.0029 7.8291 25.7685 8.37988 25.2529L12.6104 21.3857H20.5322C24.0244 21.3857 25.8994 19.4639 25.8994 16.0303V7.05371C25.8994 3.62012 24.0244 1.68652 20.5322 1.68652H5.43848C1.94629 1.68652 0.0712891 3.6084 0.0712891 7.05371V16.0303C0.0712891 19.4756 1.94629 21.3857 5.43848 21.3857H5.98926V24.7959C5.98926 25.5224 6.36426 26.0029 7.03223 26.0029Z" fill="black" fill-opacity="0.85"/>
<path d="M7.14941 10.2646C7.14941 8.82324 8.23926 7.81543 9.69238 7.81543C11.2627 7.81543 12.3174 9.06933 12.3174 10.71C12.3174 13.7803 9.86817 15.2334 8.64941 15.2334C8.30957 15.2334 8.05176 14.9756 8.05176 14.6709C8.05176 14.3779 8.18067 14.1904 8.6377 14.0732C9.42285 13.8623 10.3486 13.2178 10.794 12.2217H10.7002C10.3838 12.6201 9.87988 12.7021 9.37598 12.7021C8.00488 12.7021 7.14941 11.6357 7.14941 10.2646ZM13.6768 10.2646C13.6768 8.82324 14.7549 7.81543 16.208 7.81543C17.7783 7.81543 18.8447 9.06933 18.8447 10.71C18.8447 13.7803 16.3955 15.2334 15.1768 15.2334C14.8369 15.2334 14.5791 14.9756 14.5791 14.6709C14.5791 14.3779 14.7197 14.1904 15.1533 14.0732C15.9502 13.8623 16.876 13.2178 17.3213 12.2217H17.2275C16.9111 12.6201 16.4072 12.7021 15.8916 12.7021C14.5322 12.7021 13.6768 11.6357 13.6768 10.2646Z" fill="white"/>
</g>
<defs>
<clipPath id="clip0_2207_9163">
<rect width="25.8281" height="25.8867" fill="white" transform="translate(0.0712891 0.116211)"/>
</clipPath>
</defs>
</svg>
