<svg width="26" height="17" viewBox="0 0 26 17" fill="none" xmlns="http://www.w3.org/2000/svg">
<g clip-path="url(#clip0_2207_9154)">
<path d="M0.0734863 5.76465C0.0734863 8.88183 2.3938 11.3662 5.35865 11.3662C6.75318 11.3662 8.0774 10.8154 9.05005 9.7373H9.36646C8.68677 11.9521 6.62427 13.8037 4.06958 14.5654C3.69458 14.6826 3.42505 14.7881 3.26099 14.9287C3.07349 15.081 2.97974 15.2685 2.97974 15.5381C2.97974 16.0303 3.34302 16.3701 3.88208 16.3701C4.2688 16.3701 4.53833 16.2998 5.05396 16.1357C6.65943 15.6084 8.12427 14.6826 9.24927 13.499C10.8196 11.8584 11.7923 9.66699 11.7923 7.06543C11.7923 2.6709 9.00318 0.12793 5.73365 0.12793C2.51099 0.12793 0.0734863 2.58887 0.0734863 5.76465ZM14.1477 5.76465C14.1477 8.88183 16.4563 11.3662 19.4329 11.3662C20.8274 11.3662 22.1399 10.8154 23.1243 9.7373H23.429C22.761 11.9521 20.6985 13.8037 18.1321 14.5654C17.7571 14.6826 17.4993 14.7881 17.3352 14.9287C17.1477 15.081 17.0423 15.2685 17.0423 15.5381C17.0423 16.0303 17.4173 16.3701 17.968 16.3701C18.3313 16.3701 18.6126 16.2998 19.1165 16.1357C20.7337 15.6084 22.1868 14.6826 23.3001 13.499C24.8938 11.8584 25.8665 9.66699 25.8665 7.06543C25.8665 2.6709 23.0774 0.12793 19.8079 0.12793C16.5852 0.12793 14.1477 2.58887 14.1477 5.76465Z" fill="black" fill-opacity="0.85"/>
</g>
<defs>
<clipPath id="clip0_2207_9154">
<rect width="25.793" height="16.2539" fill="white" transform="translate(0.0734863 0.116211)"/>
</clipPath>
</defs>
</svg>
