<svg width="28" height="21" viewBox="0 0 28 21" fill="none" xmlns="http://www.w3.org/2000/svg">
<g clip-path="url(#clip0_2207_20979)">
<path d="M9.91186 20.5537H17.2829C24.0798 20.5537 27.115 17.4248 27.115 11.0264V3.66699C27.115 1.31152 25.8962 0.116211 23.5173 0.116211H3.67749C1.29858 0.116211 0.079834 1.31152 0.079834 3.66699V11.0264C0.079834 17.4248 3.11499 20.5537 9.91186 20.5537ZM9.91186 18.667C4.38061 18.667 1.96655 16.2646 1.96655 11.1435V3.77246C1.96655 2.60059 2.57592 2.00293 3.72436 2.00293H23.4704C24.5954 2.00293 25.2282 2.60059 25.2282 3.77246V11.1435C25.2282 16.2646 22.8142 18.667 17.2712 18.667H9.91186Z" fill="black" fill-opacity="0.85"/>
<path d="M10.99 15.1748C11.611 15.1748 11.9978 14.7646 11.9978 14.1318V11.6826H13.6853L15.4196 14.5771C15.6775 14.999 15.9587 15.1748 16.3806 15.1748C16.9079 15.1748 17.2946 14.8232 17.2946 14.331C17.2946 14.0967 17.2126 13.8857 17.072 13.6631L15.6071 11.3779C16.7673 10.9092 17.5407 9.80763 17.5407 8.53028C17.5407 6.58497 16.1345 5.31934 13.9665 5.31934H10.99C10.3806 5.31934 10.0525 5.77638 10.0525 6.39747V14.1318C10.0525 14.7529 10.3806 15.1748 10.99 15.1748ZM11.9978 10.1709V6.87794H13.7556C14.8923 6.87794 15.6189 7.4756 15.6189 8.56544C15.6189 9.63184 14.9157 10.1709 13.7204 10.1709H11.9978Z" fill="black" fill-opacity="0.85"/>
</g>
<defs>
<clipPath id="clip0_2207_20979">
<rect width="27.0352" height="20.4492" fill="white" transform="translate(0.079834 0.116211)"/>
</clipPath>
</defs>
</svg>
