<svg width="31" height="28" viewBox="0 0 31 28" fill="none" xmlns="http://www.w3.org/2000/svg">
<g clip-path="url(#clip0_2207_20475)">
<path d="M13.4808 27.0708C20.9221 27.0708 26.969 21.0474 26.969 13.606C26.969 6.16456 20.9221 0.117676 13.4808 0.117676C6.05103 0.117676 0.00415039 6.16456 0.00415039 13.606C0.00415039 21.0474 6.05103 27.0708 13.4808 27.0708ZM13.4808 25.1841C7.05884 25.1841 1.89087 20.0279 1.89087 13.606C1.89087 7.18409 7.07056 2.0044 13.4808 2.0044C19.9025 2.0044 25.0823 7.18409 25.0823 13.606C25.0823 20.0279 19.9025 25.1841 13.4808 25.1841Z" fill="black" fill-opacity="0.85"/>
<path d="M27.1917 9.59811C25.4808 8.32076 23.1721 9.37545 23.1721 11.4965V15.727C23.1721 17.8715 25.4925 18.891 27.18 17.6371L30.0042 15.516C31.2933 14.5434 31.3167 12.6449 29.9925 11.684L27.1917 9.59811Z" fill="white"/>
<path d="M26.2308 10.8753C25.5862 10.3948 24.7776 10.6878 24.7776 11.4964V15.7269C24.7776 16.5589 25.598 16.8167 26.219 16.348L29.0433 14.2386C29.4769 13.9105 29.5003 13.3011 29.0433 12.973L26.2308 10.8753Z" fill="black" fill-opacity="0.85"/>
<path d="M13.4808 22.9575C18.6604 22.9575 22.8323 18.7739 22.8323 13.606C22.8323 8.42627 18.6604 4.24268 13.4808 4.24268C8.32446 4.24268 4.11743 8.42627 4.11743 13.606C4.11743 18.7739 8.32446 22.9575 13.4808 22.9575ZM13.4808 21.0708C9.34399 21.0708 6.00415 17.7427 6.00415 13.606C6.00415 9.45752 9.34399 6.1294 13.4808 6.1294C17.6292 6.1294 20.9456 9.45752 20.9456 13.606C20.9456 17.7427 17.6292 21.0708 13.4808 21.0708ZM11.0784 18.0943C11.6526 18.0943 12.0042 17.7193 12.0042 17.1333V14.8599H13.5745L15.18 17.5318C15.4261 17.9302 15.6839 18.0943 16.0706 18.0943C16.5628 18.0943 16.9261 17.7661 16.9261 17.3208C16.9261 17.0982 16.844 16.8989 16.7151 16.688L15.3558 14.5669C16.4339 14.145 17.1487 13.1138 17.1487 11.9302C17.1487 10.1372 15.848 8.95362 13.8323 8.95362H11.0667C10.5042 8.95362 10.1995 9.37549 10.1995 9.94971V17.1333C10.1995 17.7075 10.5159 18.0943 11.0784 18.0943ZM12.0042 13.4536V10.395H13.6448C14.6995 10.395 15.3675 10.9575 15.3675 11.9654C15.3675 12.9497 14.723 13.4536 13.6097 13.4536H12.0042Z" fill="black" fill-opacity="0.85"/>
</g>
<defs>
<clipPath id="clip0_2207_20475">
<rect width="30.9741" height="26.9883" fill="white" transform="translate(0.00415039 0.117676)"/>
</clipPath>
</defs>
</svg>
