<svg width="28" height="36" viewBox="0 0 28 36" fill="none" xmlns="http://www.w3.org/2000/svg">
<g clip-path="url(#clip0_2207_20503)">
<path d="M13.5733 4.10938C6.13184 4.10938 0.0966797 10.1562 0.0966797 17.5976C0.0966797 25.0273 6.13184 31.0742 13.5733 31.0742C21.0029 31.0742 27.0498 25.0391 27.0498 17.5976C27.0498 10.1562 21.0029 4.10938 13.5733 4.10938ZM13.5733 5.99609C19.9834 5.99609 25.1631 11.1758 25.1631 17.5976C25.1631 24.0195 19.9834 29.1875 13.5733 29.1875C7.15137 29.1875 1.9834 24.0195 1.9834 17.5976C1.9834 11.1758 7.15137 5.99609 13.5733 5.99609Z" fill="black" fill-opacity="0.85"/>
<path d="M11.4523 27.2891C9.30771 27.2891 8.27646 29.6094 9.54208 31.2969L11.6515 34.1211C12.6241 35.4101 14.5226 35.4219 15.4952 34.1094L17.5695 31.3086C18.8468 29.5859 17.8038 27.2891 15.671 27.2891H11.4523Z" fill="white"/>
<path d="M11.4522 28.8828C10.6084 28.8828 10.3623 29.7148 10.8194 30.3359L12.9405 33.1601C13.2686 33.5937 13.8662 33.6055 14.2061 33.1601L16.292 30.3476C16.7842 29.7031 16.4912 28.8828 15.6709 28.8828H11.4522Z" fill="black" fill-opacity="0.85"/>
<path d="M13.5733 8.23438C8.40527 8.23438 4.22168 12.4297 4.22168 17.5976C4.22168 22.7773 8.40527 26.9492 13.5733 26.9492C18.7412 26.9492 22.9248 22.7773 22.9248 17.5976C22.9248 12.4297 18.7412 8.23438 13.5733 8.23438ZM13.5733 10.1211C17.71 10.1211 21.0381 13.4492 21.0381 17.5976C21.0381 21.7344 17.71 25.0625 13.5733 25.0625C9.4248 25.0625 6.1084 21.7344 6.1084 17.5976C6.1084 13.4492 9.4248 10.1211 13.5733 10.1211ZM11.1592 22.0859C11.7334 22.0859 12.085 21.7109 12.085 21.125V18.8516H13.6553L15.2608 21.5234C15.5069 21.9219 15.7647 22.0859 16.1514 22.0859C16.6436 22.0859 17.0069 21.7578 17.0069 21.3125C17.0069 21.0898 16.9248 20.8906 16.7959 20.6797L15.4365 18.5586C16.5147 18.1367 17.2295 17.1055 17.2295 15.9219C17.2295 14.1289 15.9287 12.9453 13.9131 12.9453H11.1475C10.585 12.9453 10.2803 13.3672 10.2803 13.9414V21.125C10.2803 21.6992 10.5967 22.0859 11.1592 22.0859ZM12.085 17.4453V14.3867H13.7256C14.7803 14.3867 15.4483 14.9492 15.4483 15.957C15.4483 16.9414 14.8037 17.4453 13.6905 17.4453H12.085Z" fill="black" fill-opacity="0.85"/>
</g>
<defs>
<clipPath id="clip0_2207_20503">
<rect width="26.9531" height="34.9746" fill="white" transform="translate(0.0966797 0.116211)"/>
</clipPath>
</defs>
</svg>
