<svg width="27" height="28" viewBox="0 0 27 28" fill="none" xmlns="http://www.w3.org/2000/svg">
<g clip-path="url(#clip0_2207_6492)">
<path d="M22.7415 7.13721H10.9758C8.53833 7.13721 7.29614 8.35596 7.29614 10.77V22.6294C7.29614 25.0435 8.53833 26.2622 10.9758 26.2622H22.7415C25.1907 26.2622 26.4211 25.0435 26.4211 22.6294V10.77C26.4211 8.34424 25.1907 7.13721 22.7415 7.13721Z" fill="black" fill-opacity="0.85"/>
<path d="M17.0579 0.117676H5.29224C1.96411 0.117676 0.0187988 2.03956 0.0187988 5.34424V17.2036C0.0187988 20.5083 1.96411 22.4302 5.29224 22.4302H17.0579C20.386 22.4302 22.3313 20.5083 22.3313 17.2036V5.34424C22.3313 2.03956 20.386 0.117676 17.0579 0.117676Z" fill="white"/>
<path d="M17.0579 1.71143H5.29224C2.85474 1.71143 1.61255 2.93018 1.61255 5.34424V17.2036C1.61255 19.6177 2.85474 20.8365 5.29224 20.8365H17.0579C19.5071 20.8365 20.7376 19.6177 20.7376 17.2036V5.34424C20.7376 2.93018 19.5071 1.71143 17.0579 1.71143Z" fill="black" fill-opacity="0.85"/>
<path d="M8.06958 16.8169C7.46021 16.8169 7.12036 16.3833 7.12036 15.7271V6.75049C7.12036 6.09424 7.44849 5.64893 8.06958 5.64893H11.55C13.9993 5.64893 15.5461 7.04346 15.5461 9.21143C15.5461 10.7115 14.6321 11.9771 13.2258 12.4458L15.0305 15.2818C15.1711 15.5279 15.2415 15.7154 15.2415 15.9849C15.2415 16.4771 14.8782 16.8169 14.3626 16.8169C13.929 16.8169 13.6946 16.6411 13.4016 16.1841L11.304 12.7271H9.05396V15.7271C9.05396 16.4068 8.71411 16.8169 8.06958 16.8169ZM9.05396 11.3091H11.2571C12.7102 11.3091 13.636 10.5708 13.636 9.2583C13.636 7.91065 12.6868 7.13721 11.304 7.13721H9.05396V11.3091Z" fill="white"/>
</g>
<defs>
<clipPath id="clip0_2207_6492">
<rect width="26.4023" height="27.7148" fill="white" transform="translate(0.0187988 0.117676)"/>
</clipPath>
</defs>
</svg>
