<svg width="28" height="21" viewBox="0 0 28 21" fill="none" xmlns="http://www.w3.org/2000/svg">
<g clip-path="url(#clip0_2207_20994)">
<path d="M9.85522 20.5552H17.2263C24.0232 20.5552 27.0584 17.4263 27.0584 11.0279V3.66846C27.0584 1.31299 25.8396 0.117676 23.4607 0.117676H3.62085C1.24194 0.117676 0.0231934 1.31299 0.0231934 3.66846V11.0279C0.0231934 17.4263 3.05835 20.5552 9.85522 20.5552Z" fill="black" fill-opacity="0.85"/>
<path d="M9.03491 15.1997C8.47241 15.1997 8.16772 14.8365 8.16772 14.2974V6.53955C8.16772 5.98876 8.47241 5.66064 9.02319 5.66064H10.992C12.7966 5.66064 13.9216 6.66845 13.9216 8.55517C13.9216 9.60986 13.5232 10.6177 12.5857 11.1099L13.6873 13.7349C13.8162 13.9927 13.8748 14.2388 13.8748 14.3794C13.8748 14.9654 13.4646 15.1997 13.0779 15.1997C12.6091 15.1997 12.3396 14.9419 12.1873 14.4966L10.9802 11.4615H9.87866V14.2974C9.87866 14.8482 9.55053 15.1997 9.03491 15.1997ZM9.87866 10.2075H10.8396C11.7771 10.2075 12.199 9.51611 12.199 8.60205C12.199 7.66455 11.7302 7.02001 10.8396 7.02001H9.87866V10.2075ZM17.9177 15.1646C17.449 15.1646 17.074 14.7779 17.074 14.2974V7.26611L16.0076 8.12158C15.8904 8.21533 15.7615 8.2622 15.5857 8.2622C15.2341 8.2622 14.988 8.01611 14.988 7.65283C14.988 7.34814 15.1521 7.11376 15.3513 6.97314L16.6287 5.96533C16.9099 5.76611 17.2966 5.49658 17.7888 5.49658C18.3982 5.49658 18.7732 5.84814 18.7732 6.44579V14.2974C18.7732 14.7779 18.3865 15.1646 17.9177 15.1646Z" fill="white"/>
</g>
<defs>
<clipPath id="clip0_2207_20994">
<rect width="27.0352" height="20.4492" fill="white" transform="translate(0.0231934 0.117676)"/>
</clipPath>
</defs>
</svg>
