<svg width="24" height="25" viewBox="0 0 24 25" fill="none" xmlns="http://www.w3.org/2000/svg">
<g clip-path="url(#clip0_2207_20735)">
<path d="M11.9909 24.0239C18.53 24.0239 23.944 18.5982 23.944 12.0708C23.944 5.53174 18.5183 0.117676 11.9792 0.117676C5.4519 0.117676 0.0378418 5.53174 0.0378418 12.0708C0.0378418 18.5982 5.46362 24.0239 11.9909 24.0239ZM11.9909 22.0318C6.45972 22.0318 2.04175 17.6021 2.04175 12.0708C2.04175 6.53956 6.448 2.10987 11.9792 2.10987C17.5105 2.10987 21.9519 6.53956 21.9519 12.0708C21.9519 17.6021 17.5222 22.0318 11.9909 22.0318Z" fill="black" fill-opacity="0.85"/>
<path d="M6.78784 16.9693C7.31518 16.9693 7.64331 16.6294 7.64331 16.0786V13.1958H8.74487L9.97534 16.2661C10.1394 16.7115 10.3972 16.9693 10.8659 16.9693C11.2526 16.9693 11.6745 16.7466 11.6745 16.1372C11.6745 16.0083 11.5925 15.7739 11.487 15.5044L10.3737 12.8443C11.323 12.3521 11.7214 11.3325 11.7214 10.2779C11.7214 8.36767 10.5847 7.34814 8.75659 7.34814H6.77612C6.22534 7.34814 5.92065 7.68798 5.92065 8.23876V16.0786C5.92065 16.6177 6.22534 16.9693 6.78784 16.9693ZM7.64331 11.9419V8.70751H8.60425C9.50659 8.70751 9.98706 9.37548 9.98706 10.313C9.98706 11.2388 9.56518 11.9419 8.60425 11.9419H7.64331ZM13.7839 16.8052H17.8503C18.2722 16.8052 18.5183 16.5357 18.5183 16.1255C18.5183 15.6802 18.2605 15.4341 17.8503 15.4341H15.073V15.3404L16.7839 13.1724C17.9558 11.7193 18.3425 10.8521 18.3425 9.82079C18.3425 8.23876 17.2644 7.09033 15.6472 7.09033C14.1472 7.09033 13.0105 8.33251 13.0105 9.55126C13.0105 9.98486 13.2683 10.2896 13.7136 10.2896C14.1003 10.2896 14.3347 10.1138 14.4636 9.72705C14.6745 8.94189 14.9675 8.4497 15.6355 8.4497C16.3503 8.4497 16.737 9.07079 16.737 9.90283C16.737 10.8404 16.0925 11.7896 15.4714 12.5865L13.4323 15.188C13.2214 15.4693 12.9987 15.7622 12.9987 16.1255C12.9987 16.5239 13.2566 16.8052 13.7839 16.8052Z" fill="black" fill-opacity="0.85"/>
</g>
<defs>
<clipPath id="clip0_2207_20735">
<rect width="23.9062" height="23.918" fill="white" transform="translate(0.0378418 0.117676)"/>
</clipPath>
</defs>
</svg>
