<svg width="31" height="22" viewBox="0 0 31 22" fill="none" xmlns="http://www.w3.org/2000/svg">
<g clip-path="url(#clip0_2207_21111)">
<path d="M0.0419922 11.9912C0.0419922 14.499 0.452148 15.6475 2.31543 16.6084L8.91308 19.9951C11.3389 21.249 13.0732 21.5654 15.792 20.7686L25.9404 17.8154C29.0693 16.8897 30.3701 15.0264 30.3701 11.9912V4.67871C30.3701 2.55761 28.9639 1.11621 26.8545 1.11621L3.58105 1.10449C1.47168 1.10449 0.0419922 2.53418 0.0419922 4.64355V11.9912ZM1.92871 11.9912V4.67871C1.92871 3.65918 2.59668 2.99121 3.61621 2.99121L26.8311 3.00293C27.8272 3.00293 28.4834 3.68261 28.4834 4.71386V11.9912C28.4834 14.124 27.6045 15.4014 25.4014 16.0459L15.792 18.8936C13.3545 19.6201 11.9365 19.4092 9.9209 18.3897L3.51074 15.1201C2.25683 14.4873 1.92871 13.7256 1.92871 11.9912Z" fill="black" fill-opacity="0.85"/>
<path d="M9.47558 14.874C10.0029 14.874 10.3193 14.5225 10.3193 13.9834V11.1006H11.4326L12.6631 14.1709C12.8272 14.6162 13.085 14.874 13.5537 14.874C13.9404 14.874 14.3506 14.6397 14.3506 14.042C14.3506 13.9131 14.2803 13.6787 14.1748 13.4092L13.0615 10.749C13.999 10.2568 14.4092 9.2373 14.4092 8.18261C14.4092 6.27246 13.2725 5.25293 11.4443 5.25293H9.46387C8.91308 5.25293 8.59668 5.59277 8.59668 6.14355V13.9834C8.59668 14.5107 8.91308 14.874 9.47558 14.874ZM10.3193 9.84668V6.6123H11.292C12.1943 6.6123 12.6748 7.28027 12.6748 8.21777C12.6748 9.14355 12.2529 9.84668 11.292 9.84668H10.3193ZM18.6045 14.9209C20.2803 14.9209 21.5811 13.8662 21.5811 12.1084C21.5811 10.6553 20.7022 9.94043 19.7178 9.83496V9.7998C20.7842 9.51855 21.2998 8.56933 21.2998 7.58496C21.2998 5.96777 20.0811 5.04199 18.5576 5.04199C17.3506 5.04199 16.3076 5.72168 15.9678 6.76464C15.8975 6.9873 15.874 7.19824 15.874 7.39746C15.874 7.78418 16.1318 8.08886 16.6006 8.08886C16.999 8.08886 17.2334 7.93652 17.3389 7.52636C17.5264 6.83496 17.9014 6.40136 18.5576 6.40136C19.3311 6.40136 19.7061 6.99902 19.7061 7.77246C19.7061 8.62793 19.2256 9.24902 18.3467 9.24902H18.0654C17.667 9.24902 17.4209 9.49511 17.4209 9.87011C17.4209 10.2686 17.6787 10.4912 18.0654 10.4912H18.3584C19.3545 10.4912 19.9053 11.042 19.9053 12.0615C19.9053 12.8701 19.4834 13.5615 18.6045 13.5615C17.749 13.5615 17.374 12.9873 17.2334 12.4482C17.1162 12.0732 16.8701 11.874 16.4951 11.874C16.0264 11.874 15.7217 12.1436 15.7217 12.6123C15.7217 12.8232 15.7568 13.0342 15.8154 13.2217C16.1553 14.3115 17.3389 14.9209 18.6045 14.9209Z" fill="black" fill-opacity="0.85"/>
</g>
<defs>
<clipPath id="clip0_2207_21111">
<rect width="30.3281" height="21.0873" fill="white" transform="translate(0.0419922 0.117676)"/>
</clipPath>
</defs>
</svg>
