<svg width="26" height="26" viewBox="0 0 26 26" fill="none" xmlns="http://www.w3.org/2000/svg">
<g clip-path="url(#clip0_2207_3525)">
<path d="M6.24414 7.75837C6.63086 8.14509 7.28711 8.14509 7.68555 7.75837C8.07226 7.35994 8.07226 6.70369 7.68555 6.31697L5.14258 3.76228C4.75586 3.37556 4.09961 3.36384 3.70117 3.75056C3.31445 4.13728 3.31445 4.79353 3.70117 5.19197L6.24414 7.75837Z" fill="black" fill-opacity="0.85"/>
<path d="M1.07617 11.813C0.525391 11.813 0.0566406 12.2818 0.0566406 12.8325C0.0566406 13.3833 0.525391 13.8521 1.07617 13.8521H4.70898C5.25976 13.8521 5.72852 13.3833 5.72852 12.8325C5.72852 12.2818 5.25976 11.813 4.70898 11.813H1.07617Z" fill="black" fill-opacity="0.85"/>
<path d="M3.80666 20.3443C3.41994 20.731 3.41994 21.3989 3.79494 21.7857C4.18166 22.1724 4.84963 22.1841 5.24807 21.7974L7.80275 19.2427C8.18947 18.856 8.18947 18.1997 7.80275 17.813C7.42775 17.4146 6.74807 17.4146 6.36135 17.813L3.80666 20.3443Z" fill="black" fill-opacity="0.85"/>
<path d="M13.8028 20.9185C13.8028 20.356 13.334 19.8872 12.7715 19.8872C12.2208 19.8872 11.752 20.356 11.752 20.9185V24.5279C11.752 25.0786 12.2208 25.5474 12.7715 25.5474C13.334 25.5474 13.8028 25.0786 13.8028 24.5279V20.9185Z" fill="black" fill-opacity="0.85"/>
<path d="M19.1933 17.7895C18.7949 17.4028 18.1269 17.4028 17.7402 17.7895C17.3418 18.1879 17.3418 18.8442 17.7402 19.2309L20.3066 21.7973C20.6933 22.184 21.3496 22.1723 21.7363 21.7973C22.1347 21.4106 22.1347 20.7426 21.7363 20.3442L19.1933 17.7895Z" fill="black" fill-opacity="0.85"/>
<path d="M24.4669 13.8521C25.0294 13.8521 25.4981 13.3833 25.4981 12.8325C25.4981 12.2818 25.0294 11.813 24.4669 11.813H20.8575C20.3067 11.813 19.8379 12.2818 19.8379 12.8325C19.8379 13.3833 20.3067 13.8521 20.8575 13.8521H24.4669Z" fill="black" fill-opacity="0.85"/>
<path d="M17.7402 6.43409C17.3418 6.8208 17.3418 7.47706 17.7402 7.87549C18.1269 8.26221 18.7949 8.26221 19.1933 7.87549L21.7363 5.3208C22.1347 4.92237 22.1347 4.26612 21.7363 3.86768C21.3496 3.48096 20.6933 3.48096 20.3066 3.86768L17.7402 6.43409Z" fill="black" fill-opacity="0.85"/>
<path d="M13.8028 1.13721C13.8028 0.586426 13.334 0.117676 12.7715 0.117676C12.2208 0.117676 11.752 0.586426 11.752 1.13721V4.74659C11.752 5.30909 12.2208 5.77784 12.7715 5.77784C13.334 5.77784 13.8028 5.30909 13.8028 4.74659V1.13721Z" fill="black" fill-opacity="0.85"/>
</g>
<defs>
<clipPath id="clip0_2207_3525">
<rect width="25.4414" height="25.5352" fill="white" transform="translate(0.0566406 0.117676)"/>
</clipPath>
</defs>
</svg>
