<svg width="24" height="25" viewBox="0 0 24 25" fill="none" xmlns="http://www.w3.org/2000/svg">
<g clip-path="url(#clip0_2207_20725)">
<path d="M12.0161 24.0239C18.5552 24.0239 23.9692 18.5982 23.9692 12.0708C23.9692 5.53174 18.5435 0.117676 12.0044 0.117676C5.47705 0.117676 0.0629883 5.53174 0.0629883 12.0708C0.0629883 18.5982 5.48877 24.0239 12.0161 24.0239ZM12.0161 22.0318C6.48487 22.0318 2.0669 17.6021 2.0669 12.0708C2.0669 6.53956 6.47315 2.10987 12.0044 2.10987C17.5357 2.10987 21.9771 6.53956 21.9771 12.0708C21.9771 17.6021 17.5474 22.0318 12.0161 22.0318Z" fill="black" fill-opacity="0.85"/>
<path d="M6.47315 16.9693C7.00049 16.9693 7.32861 16.6294 7.32861 16.0786V13.1958H8.43018L9.66065 16.2661C9.82471 16.7115 10.0825 16.9693 10.5513 16.9693C10.938 16.9693 11.3599 16.7466 11.3599 16.1372C11.3599 16.0083 11.2778 15.7739 11.1724 15.5044L10.0591 12.8443C11.0083 12.3521 11.4068 11.3325 11.4068 10.2779C11.4068 8.36767 10.27 7.34814 8.4419 7.34814H6.46143C5.91065 7.34814 5.60596 7.68798 5.60596 8.23876V16.0786C5.60596 16.6177 5.92237 16.9693 6.47315 16.9693ZM7.32861 11.9419V8.70751H8.28955C9.1919 8.70751 9.67237 9.37548 9.67237 10.313C9.67237 11.2388 9.25049 11.9419 8.28955 11.9419H7.32861ZM13.8208 16.8286H16.3052C17.9575 16.8286 18.9185 15.7271 18.9185 14.145C18.9185 13.0083 18.2271 11.9536 17.1138 11.8482V11.7896C18.0044 11.6255 18.6255 10.6411 18.6255 9.70361C18.6255 8.20361 17.6177 7.34814 16.2349 7.34814H13.8208C13.27 7.34814 12.9771 7.72314 12.9771 8.23876V15.938C12.9771 16.4771 13.2818 16.8286 13.8208 16.8286ZM14.6528 11.3677V8.64892H15.7427C16.6333 8.64892 16.9849 9.21142 16.9849 9.97314C16.9849 10.8404 16.481 11.3677 15.6138 11.3677H14.6528ZM14.6528 15.5279V12.5161H15.7427C16.5982 12.5161 17.1958 12.9732 17.1958 14.0161C17.1958 14.9536 16.7388 15.5279 15.7896 15.5279H14.6528Z" fill="black" fill-opacity="0.85"/>
</g>
<defs>
<clipPath id="clip0_2207_20725">
<rect width="23.9062" height="23.918" fill="white" transform="translate(0.0629883 0.117676)"/>
</clipPath>
</defs>
</svg>
