<svg width="24" height="25" viewBox="0 0 24 25" fill="none" xmlns="http://www.w3.org/2000/svg">
<g clip-path="url(#clip0_2207_20730)">
<path d="M12.0183 24.0239C18.5574 24.0239 23.9714 18.5982 23.9714 12.0708C23.9714 5.53174 18.5457 0.117676 12.0066 0.117676C5.47925 0.117676 0.0651855 5.53174 0.0651855 12.0708C0.0651855 18.5982 5.49097 24.0239 12.0183 24.0239Z" fill="black" fill-opacity="0.85"/>
<path d="M6.59252 16.8755C6.04174 16.8755 5.73706 16.5239 5.73706 15.9849V8.3208C5.73706 7.77002 6.04174 7.4419 6.5808 7.4419H8.52612C10.3191 7.4419 11.4324 8.43799 11.4324 10.313C11.4324 11.356 11.034 12.3521 10.0964 12.8325L11.198 15.4224C11.3035 15.6919 11.3855 15.9263 11.3855 16.0552C11.3855 16.6411 10.9636 16.8755 10.5886 16.8755C10.1316 16.8755 9.87377 16.6177 9.69799 16.1841L8.50268 13.1724H7.42456V15.9849C7.42456 16.5357 7.10815 16.8755 6.59252 16.8755ZM7.42456 11.9302H8.37377C9.29956 11.9302 9.72143 11.2622 9.72143 10.3482C9.72143 9.43409 9.24096 8.77784 8.37377 8.77784H7.42456V11.9302ZM13.7879 16.7232C13.2605 16.7232 12.9558 16.3833 12.9558 15.856V8.3208C12.9558 7.8169 13.2488 7.43018 13.7879 7.43018H16.1668C17.5144 7.43018 18.4988 8.27393 18.4988 9.75049C18.4988 10.6646 17.9011 11.6372 17.0222 11.7896V11.8482C18.1121 11.9536 18.7918 12.9849 18.7918 14.0982C18.7918 15.645 17.8543 16.7232 16.2254 16.7232H13.7879ZM14.6082 11.3794H15.5457C16.3894 11.3794 16.8933 10.8521 16.8933 10.0083C16.8933 9.27002 16.5535 8.71924 15.6863 8.71924H14.6082V11.3794ZM14.6082 15.4458H15.7214C16.6472 15.4458 17.0925 14.895 17.0925 13.9693C17.0925 12.9615 16.5183 12.5044 15.6863 12.5044H14.6082V15.4458Z" fill="white"/>
</g>
<defs>
<clipPath id="clip0_2207_20730">
<rect width="23.9062" height="23.918" fill="white" transform="translate(0.0651855 0.117676)"/>
</clipPath>
</defs>
</svg>
