<svg width="35" height="16" viewBox="0 0 35 16" fill="none" xmlns="http://www.w3.org/2000/svg">
<g clip-path="url(#clip0_2207_22056)">
<path d="M0.0712891 7.7583C0.0712891 11.9771 3.49317 15.3989 7.71191 15.3989H27.2705C31.501 15.3989 34.9111 11.9771 34.9111 7.7583C34.9111 3.52784 31.501 0.117676 27.2705 0.117676C23.0518 0.117676 19.6299 3.53956 19.6299 7.7583C19.6299 10.02 20.6377 12.0474 22.2666 13.395H12.7158C14.3447 12.0474 15.3525 10.02 15.3525 7.7583C15.3525 3.52784 11.9307 0.117676 7.71191 0.117676C3.48145 0.117676 0.0712891 3.53956 0.0712891 7.7583ZM2.0752 7.74659C2.0752 4.64112 4.60645 2.10987 7.72363 2.10987C10.8291 2.10987 13.3486 4.64112 13.3486 7.74659C13.3486 10.8638 10.8291 13.395 7.72363 13.395C4.60645 13.395 2.0752 10.8638 2.0752 7.74659ZM21.6338 7.74659C21.6338 4.64112 24.1533 2.10987 27.2588 2.10987C30.376 2.10987 32.9072 4.64112 32.9072 7.74659C32.9072 10.8638 30.376 13.395 27.2588 13.395C24.1533 13.395 21.6338 10.8638 21.6338 7.74659Z" fill="black" fill-opacity="0.85"/>
</g>
<defs>
<clipPath id="clip0_2207_22056">
<rect width="34.8398" height="15.293" fill="white" transform="translate(0.0712891 0.117676)"/>
</clipPath>
</defs>
</svg>
