<svg width="28" height="26" viewBox="0 0 28 26" fill="none" xmlns="http://www.w3.org/2000/svg">
<g clip-path="url(#clip0_2207_83)">
<path d="M3.6875 25.2573H16.1328C18.5586 25.2573 19.7656 24.0268 19.7656 21.5776V13.8433H11.1055C10.4844 13.8433 9.95703 13.3159 9.95703 12.6831C9.95703 12.0503 10.4844 11.5112 11.1055 11.5112H19.7656V3.8003C19.7656 1.3628 18.5586 0.132324 16.1328 0.132324H3.6875C1.26172 0.132324 0.0546875 1.3628 0.0546875 3.8003V21.5776C0.0546875 24.0268 1.26172 25.2573 3.6875 25.2573Z" fill="black" fill-opacity="0.85"/>
<path d="M18.8516 12.6831C18.8516 13.187 19.2617 13.6089 19.7539 13.6089H23.1641L24.9219 13.5386L24.0899 14.3354L22.2031 16.105C22.0156 16.269 21.9219 16.5151 21.9219 16.7378C21.9219 17.23 22.2617 17.5933 22.7422 17.5933C22.9883 17.5933 23.1758 17.4995 23.3633 17.3237L27.1836 13.3628C27.418 13.1284 27.4883 12.9175 27.4883 12.6831C27.4883 12.437 27.418 12.2378 27.1836 12.0034L23.3633 8.04249C23.1758 7.8667 22.9883 7.76123 22.7422 7.76123C22.2617 7.76123 21.9219 8.1128 21.9219 8.60499C21.9219 8.83936 22.0156 9.08545 22.2031 9.24952L24.0899 11.0308L24.9219 11.8276L23.1641 11.7456H19.7539C19.2617 11.7456 18.8516 12.1792 18.8516 12.6831Z" fill="black" fill-opacity="0.85"/>
</g>
<defs>
<clipPath id="clip0_2207_83">
<rect width="27.4336" height="25.1367" fill="white" transform="translate(0.0546875 0.120605)"/>
</clipPath>
</defs>
</svg>
