<svg width="20" height="26" viewBox="0 0 20 26" fill="none" xmlns="http://www.w3.org/2000/svg">
<g clip-path="url(#clip0_2207_7565)">
<path d="M10.814 24.2154V1.34033H8.93897V24.2154H10.814ZM0.0209961 21.5786C0.0209961 24.0278 1.22803 25.2466 3.65381 25.2466H16.0991C18.5249 25.2466 19.7319 24.0278 19.7319 21.5786V3.80127C19.7319 1.36377 18.5249 0.121582 16.0991 0.121582H3.65381C1.22803 0.121582 0.0209961 1.36377 0.0209961 3.80127V21.5786ZM1.90772 21.5435V3.83642C1.90772 2.66455 2.52881 2.0083 3.74756 2.0083H16.0054C17.2241 2.0083 17.8452 2.66455 17.8452 3.83642V21.5435C17.8452 22.7154 17.2241 23.3599 16.0054 23.3599H3.74756C2.52881 23.3599 1.90772 22.7154 1.90772 21.5435Z" fill="black" fill-opacity="0.85"/>
</g>
<defs>
<clipPath id="clip0_2207_7565">
<rect width="19.7109" height="25.1367" fill="white" transform="translate(0.0209961 0.121582)"/>
</clipPath>
</defs>
</svg>
