<svg width="27" height="29" viewBox="0 0 27 29" fill="none" xmlns="http://www.w3.org/2000/svg">
<g clip-path="url(#clip0_2207_21282)">
<path d="M3.36048 21.9629H7.19251V20.1933H3.60657C2.55188 20.1933 1.90735 19.4902 1.90735 18.5293V9.66992C1.90735 8.70898 2.55188 8.01758 3.60657 8.01758H7.19251V6.24805H3.36048C1.40345 6.24805 0.0440674 7.57226 0.0440674 9.37695V18.8339C0.0440674 20.6269 1.40345 21.9629 3.36048 21.9629ZM23.0949 21.9629C25.0519 21.9629 26.4113 20.6269 26.4113 18.8339V9.37695C26.4113 7.57226 25.0519 6.24805 23.0949 6.24805H19.2629V8.01758H22.8488C23.9035 8.01758 24.548 8.70898 24.548 9.66992V18.5293C24.548 19.4902 23.9035 20.1933 22.8488 20.1933H19.2629V21.9629H23.0949Z" fill="black" fill-opacity="0.85"/>
<path d="M13.2277 28.08C13.4738 28.08 13.6613 27.9863 13.9074 27.7636L17.8097 24.1308C18.0089 23.955 18.1144 23.7441 18.1144 23.4746C18.1144 22.9941 17.7629 22.6543 17.2589 22.6543C17.0363 22.6543 16.7902 22.748 16.6144 22.9238L15.091 24.4589L14.0832 25.5019L14.1535 23.5449V19.6777C14.1535 19.1738 13.7316 18.7636 13.2277 18.7636C12.7238 18.7636 12.2902 19.1738 12.2902 19.6777V23.5449L12.3722 25.5019L11.3644 24.4589L9.84094 22.9238C9.66515 22.748 9.43078 22.6543 9.20812 22.6543C8.70422 22.6543 8.34094 22.9941 8.34094 23.4746C8.34094 23.7441 8.4464 23.955 8.64562 24.1308L12.548 27.7636C12.7941 27.9863 12.9816 28.08 13.2277 28.08ZM13.2277 9.43555C13.7316 9.43555 14.1535 9.02539 14.1535 8.5332V4.6543L14.0832 2.69726L15.091 3.74023L16.6144 5.27539C16.7902 5.45117 17.0246 5.55664 17.2472 5.55664C17.7511 5.55664 18.1144 5.20508 18.1144 4.72461C18.1144 4.45508 18.0089 4.24414 17.8097 4.06836L13.9074 0.435547C13.6613 0.212891 13.4738 0.119141 13.2277 0.119141C12.9816 0.119141 12.7941 0.212891 12.548 0.435547L8.64562 4.06836C8.4464 4.24414 8.34094 4.45508 8.34094 4.72461C8.34094 5.20508 8.6925 5.55664 9.1964 5.55664C9.41906 5.55664 9.66515 5.45117 9.84094 5.27539L11.3644 3.74023L12.3722 2.69726L12.2902 4.6543V8.5332C12.2902 9.02539 12.7238 9.43555 13.2277 9.43555Z" fill="black" fill-opacity="0.85"/>
</g>
<defs>
<clipPath id="clip0_2207_21282">
<rect width="26.3672" height="28.207" fill="white" transform="translate(0.0440674 0.119141)"/>
</clipPath>
</defs>
</svg>
