<svg width="28" height="22" viewBox="0 0 28 22" fill="none" xmlns="http://www.w3.org/2000/svg">
<g clip-path="url(#clip0_2207_6979)">
<path d="M3.70288 21.6933H23.9763C26.4373 21.6933 27.656 20.4863 27.656 18.0722V3.75195C27.656 1.33789 26.4373 0.119141 23.9763 0.119141H3.70288C1.25366 0.119141 0.0231934 1.33789 0.0231934 3.75195V18.0722C0.0231934 20.4863 1.25366 21.6933 3.70288 21.6933ZM3.72631 19.8066C2.55444 19.8066 1.90991 19.1855 1.90991 17.9668V3.85742C1.90991 2.63867 2.55444 2.00586 3.72631 2.00586H23.9529C25.113 2.00586 25.7693 2.63867 25.7693 3.85742V17.9668C25.7693 19.1855 25.113 19.8066 23.9529 19.8066H3.72631Z" fill="black" fill-opacity="0.85"/>
<path d="M4.53491 18.213H23.1443C23.8005 18.213 24.1755 17.8262 24.1755 17.1583V11.9434C24.1755 11.2754 23.8005 10.8887 23.1443 10.8887H4.53491C3.87866 10.8887 3.51538 11.2754 3.51538 11.9434V17.1583C3.51538 17.8262 3.87866 18.213 4.53491 18.213Z" fill="black" fill-opacity="0.85"/>
</g>
<defs>
<clipPath id="clip0_2207_6979">
<rect width="27.6328" height="21.5742" fill="white" transform="translate(0.0231934 0.119141)"/>
</clipPath>
</defs>
</svg>
