<svg width="26" height="26" viewBox="0 0 26 26" fill="none" xmlns="http://www.w3.org/2000/svg">
<g clip-path="url(#clip0_2207_9248)">
<path d="M7.29101 25.8638C7.86523 25.8638 8.26367 25.5591 8.97851 24.9263L13.0215 21.3286H20.5449C24.0371 21.3286 25.9121 19.395 25.9121 15.9615V6.98487C25.9121 3.55127 24.0371 1.61768 20.5449 1.61768H5.45117C1.95898 1.61768 0.0839844 3.53956 0.0839844 6.98487V15.9615C0.0839844 19.4068 1.95898 21.3286 5.45117 21.3286H6.01367V24.3755C6.01367 25.2779 6.4707 25.8638 7.29101 25.8638ZM7.77148 23.7193V20.3208C7.77148 19.688 7.52539 19.4419 6.89257 19.4419H5.45117C3.08398 19.4419 1.9707 18.2349 1.9707 15.9497V6.98487C1.9707 4.69971 3.08398 3.5044 5.45117 3.5044H20.5449C22.9004 3.5044 24.0254 4.69971 24.0254 6.98487V15.9497C24.0254 18.2349 22.9004 19.4419 20.5449 19.4419H12.9512C12.2949 19.4419 11.9668 19.5357 11.5215 19.9927L7.77148 23.7193Z" fill="black" fill-opacity="0.85"/>
<path d="M6.25976 11.1802H11.4043C12.2481 11.1802 12.6699 10.77 12.6699 9.91455V7.58251C12.6699 6.73876 12.2481 6.34033 11.4043 6.34033H6.25976C5.40429 6.34033 4.9707 6.73876 4.9707 7.58251V9.91455C4.9707 10.77 5.40429 11.1802 6.25976 11.1802ZM7.67773 16.5708H12.0957C12.9395 16.5708 13.3613 16.1607 13.3613 15.3052V13.7232C13.3613 12.8794 12.9395 12.4693 12.0957 12.4693H7.67773C6.83398 12.4693 6.4121 12.8794 6.4121 13.7232V15.3052C6.4121 16.1607 6.83398 16.5708 7.67773 16.5708ZM15.9512 15.8677H19.6074C20.4512 15.8677 20.8731 15.4575 20.8731 14.6138V8.39111C20.8731 7.54736 20.4512 7.1372 19.6074 7.1372H15.9512C15.0957 7.1372 14.6738 7.54736 14.6738 8.39111V14.6138C14.6738 15.4575 15.0957 15.8677 15.9512 15.8677Z" fill="black" fill-opacity="0.85"/>
</g>
<defs>
<clipPath id="clip0_2207_9248">
<rect width="25.8281" height="25.7461" fill="white" transform="translate(0.0839844 0.117676)"/>
</clipPath>
</defs>
</svg>
