<svg width="24" height="34" viewBox="0 0 24 34" fill="none" xmlns="http://www.w3.org/2000/svg">
<g clip-path="url(#clip0_2207_10213)">
<path d="M23.2763 9.28609C23.6279 9.28609 23.9443 8.96968 23.9443 8.6064V7.17671C23.9443 4.21187 21.9755 2.25484 19.0107 2.25484H18.7998V0.872026C18.7998 0.08687 18.2138 -0.0771928 17.6279 0.356401L14.9677 2.30171C14.5224 2.62984 14.5107 3.00484 14.9677 3.33296L17.6279 5.27827C18.2138 5.71187 18.7998 5.53609 18.7998 4.78609V3.48531H18.999C21.1787 3.48531 22.6084 4.96187 22.6084 7.18843V8.6064C22.6084 8.96968 22.913 9.28609 23.2763 9.28609ZM0.682617 24.0752C0.331054 24.0752 0.0146484 24.3799 0.0146484 24.7431V26.1845C0.0146484 29.1494 1.97168 31.1064 4.93653 31.1064H5.14746V32.4892C5.14746 33.2744 5.74512 33.4385 6.33106 33.0049L8.99121 31.0478C9.43653 30.7314 9.44824 30.3564 8.99121 30.0166L6.33106 28.083C5.74512 27.6494 5.14746 27.8252 5.14746 28.5752V29.876H4.94824C2.78027 29.876 1.35059 28.3994 1.35059 26.1728V24.7431C1.35059 24.3799 1.0459 24.0752 0.682617 24.0752Z" fill="black" fill-opacity="0.85"/>
<path d="M7.29199 25.9736H16.6552C18.0732 25.9736 19.1279 25.001 19.1279 23.6416V9.71973C19.1279 8.36036 18.0732 7.37598 16.6552 7.37598H7.29199C5.87403 7.37598 4.84277 8.36036 4.84277 9.71973V23.6416C4.84277 25.001 5.87403 25.9736 7.29199 25.9736ZM7.45606 24.2041C6.96387 24.2041 6.61231 23.8877 6.61231 23.4306V9.93067C6.61231 9.46192 6.96387 9.13379 7.45606 9.13379H16.4913C17.0069 9.13379 17.3701 9.46192 17.3701 9.93067V23.4306C17.3701 23.8877 17.0069 24.2041 16.4913 24.2041H7.45606Z" fill="black" fill-opacity="0.85"/>
</g>
<defs>
<clipPath id="clip0_2207_10213">
<rect width="23.9297" height="33.1298" fill="white" transform="translate(0.0146484 0.121582)"/>
</clipPath>
</defs>
</svg>
