<svg width="26" height="22" viewBox="0 0 26 22" fill="none" xmlns="http://www.w3.org/2000/svg">
<g clip-path="url(#clip0_2207_7374)">
<path d="M2.76245 21.7169H22.696C24.489 21.7169 25.3913 20.8497 25.3913 19.045V14.5567C25.3913 12.7754 24.489 11.8965 22.696 11.8965H2.76245C0.969483 11.8965 0.0671387 12.7754 0.0671387 14.5567V19.045C0.0671387 20.8497 0.969483 21.7169 2.76245 21.7169Z" fill="black" fill-opacity="0.85"/>
<path d="M2.76245 9.96289H22.696C24.489 9.96289 25.3913 9.08398 25.3913 7.2793V2.80273C25.3913 1.00977 24.489 0.142578 22.696 0.142578H2.76245C0.969483 0.142578 0.0671387 1.00977 0.0671387 2.80273V7.2793C0.0671387 9.08398 0.969483 9.96289 2.76245 9.96289Z" fill="black" fill-opacity="0.85"/>
</g>
<defs>
<clipPath id="clip0_2207_7374">
<rect width="25.3242" height="21.5977" fill="white" transform="translate(0.0671387 0.119141)"/>
</clipPath>
</defs>
</svg>
