<svg width="20" height="26" viewBox="0 0 20 26" fill="none" xmlns="http://www.w3.org/2000/svg">
<g clip-path="url(#clip0_2207_7445)">
<path d="M0.0440674 21.5786C0.0440674 24.0278 1.2511 25.2466 3.67688 25.2466H16.1222C18.548 25.2466 19.755 24.0278 19.755 21.5786V3.80127C19.755 1.36377 18.548 0.121582 16.1222 0.121582H3.67688C1.2511 0.121582 0.0440674 1.36377 0.0440674 3.80127V21.5786ZM1.93079 21.5435V3.83642C1.93079 2.66455 2.55188 2.0083 3.77063 2.0083H16.0285C17.2472 2.0083 17.8683 2.66455 17.8683 3.83642V21.5435C17.8683 22.7154 17.2472 23.3599 16.0285 23.3599H3.77063C2.55188 23.3599 1.93079 22.7154 1.93079 21.5435Z" fill="black" fill-opacity="0.85"/>
<path d="M10.9543 21.7661H15.2199C15.9699 21.7661 16.2629 21.4732 16.2629 20.7349V4.64502C16.2629 3.90674 15.9699 3.61377 15.2199 3.61377H10.9543C10.2043 3.61377 9.89954 3.90674 9.89954 4.64502V20.7349C9.89954 21.4732 10.2043 21.7661 10.9543 21.7661Z" fill="black" fill-opacity="0.85"/>
</g>
<defs>
<clipPath id="clip0_2207_7445">
<rect width="19.7109" height="25.1367" fill="white" transform="translate(0.0440674 0.121582)"/>
</clipPath>
</defs>
</svg>
