<svg width="28" height="22" viewBox="0 0 28 22" fill="none" xmlns="http://www.w3.org/2000/svg">
<g clip-path="url(#clip0_2207_6961)">
<path d="M8.67675 21.2857H10.5634V0.543457H8.67675V21.2857ZM17.2666 21.2857H19.1533V0.543457H17.2666V21.2857ZM0.520508 8.5708H27.3213V6.68408H0.520508V8.5708ZM0.520508 15.145H27.3213V13.2583H0.520508V15.145ZM3.77832 21.6958H24.0517C26.5127 21.6958 27.7314 20.4888 27.7314 18.0747V3.75439C27.7314 1.34033 26.5127 0.121582 24.0517 0.121582H3.77832C1.3291 0.121582 0.0986328 1.34033 0.0986328 3.75439V18.0747C0.0986328 20.4888 1.3291 21.6958 3.77832 21.6958ZM3.80175 19.8091C2.62988 19.8091 1.98535 19.188 1.98535 17.9693V3.85986C1.98535 2.64111 2.62988 2.0083 3.80175 2.0083H24.0283C25.1884 2.0083 25.8447 2.64111 25.8447 3.85986V17.9693C25.8447 19.188 25.1884 19.8091 24.0283 19.8091H3.80175Z" fill="black" fill-opacity="0.85"/>
</g>
<defs>
<clipPath id="clip0_2207_6961">
<rect width="27.6328" height="21.5742" fill="white" transform="translate(0.0986328 0.121582)"/>
</clipPath>
</defs>
</svg>
