<svg width="30" height="24" viewBox="0 0 30 24" fill="none" xmlns="http://www.w3.org/2000/svg">
<g clip-path="url(#clip0_2207_7224)">
<path d="M3.77198 18.4355H19.7798C22.2173 18.4355 23.4595 17.2168 23.4595 14.8027V3.75195C23.4595 1.33789 22.2173 0.119141 19.7798 0.119141H3.77198C1.31104 0.119141 0.0922852 1.33789 0.0922852 3.75195V14.8027C0.0922852 17.2285 1.31104 18.4355 3.77198 18.4355ZM3.79541 16.5488C2.62354 16.5488 1.97901 15.9277 1.97901 14.7089V3.85742C1.97901 2.63867 2.62354 2.00586 3.79541 2.00586H19.7446C20.9048 2.00586 21.5728 2.63867 21.5728 3.85742V14.7089C21.5728 15.9277 20.9048 16.5488 19.7446 16.5488H3.79541Z" fill="black" fill-opacity="0.85"/>
<path d="M9.56104 23.8613H25.5689C28.0064 23.8613 29.2485 22.6425 29.2485 20.2285V9.17773C29.2485 6.76367 28.0064 5.54492 25.5689 5.54492H9.56104C7.1001 5.54492 5.88135 6.76367 5.88135 9.17773V20.2285C5.88135 22.6543 7.1001 23.8613 9.56104 23.8613Z" fill="white"/>
<path d="M9.56104 23.8613H25.5689C28.0064 23.8613 29.2485 22.6425 29.2485 20.2285V9.17773C29.2485 6.76367 28.0064 5.54492 25.5689 5.54492H9.56104C7.1001 5.54492 5.88135 6.76367 5.88135 9.17773V20.2285C5.88135 22.6543 7.1001 23.8613 9.56104 23.8613ZM9.58448 21.9746C8.4126 21.9746 7.76807 21.3535 7.76807 20.1347V9.2832C7.76807 8.06445 8.4126 7.43164 9.58448 7.43164H25.5337C26.6939 7.43164 27.3618 8.06445 27.3618 9.2832V20.1347C27.3618 21.3535 26.6939 21.9746 25.5337 21.9746H9.58448Z" fill="black" fill-opacity="0.85"/>
<path d="M10.4048 20.3808H24.7368C25.4751 20.3808 25.7681 20.0761 25.7681 19.3261V10.0918C25.7681 9.3418 25.4751 9.03711 24.7368 9.03711H10.4048C9.66651 9.03711 9.37354 9.3418 9.37354 10.0918V19.3261C9.37354 20.0761 9.66651 20.3808 10.4048 20.3808Z" fill="black" fill-opacity="0.85"/>
</g>
<defs>
<clipPath id="clip0_2207_7224">
<rect width="29.1562" height="23.7539" fill="white" transform="translate(0.0922852 0.119141)"/>
</clipPath>
</defs>
</svg>
