<svg width="20" height="26" viewBox="0 0 20 26" fill="none" xmlns="http://www.w3.org/2000/svg">
<g clip-path="url(#clip0_2207_7450)">
<path d="M0.039917 21.5786C0.039917 24.0278 1.24695 25.2466 3.67273 25.2466H16.118C18.5438 25.2466 19.7508 24.0278 19.7508 21.5786V3.80127C19.7508 1.36377 18.5438 0.121582 16.118 0.121582H3.67273C1.24695 0.121582 0.039917 1.36377 0.039917 3.80127V21.5786ZM1.92664 21.5435V3.83642C1.92664 2.66455 2.54773 2.0083 3.76648 2.0083H16.0243C17.243 2.0083 17.8641 2.66455 17.8641 3.83642V21.5435C17.8641 22.7154 17.243 23.3599 16.0243 23.3599H3.76648C2.54773 23.3599 1.92664 22.7154 1.92664 21.5435Z" fill="black" fill-opacity="0.85"/>
<path d="M4.57507 9.66064H15.2157C15.9657 9.66064 16.2587 9.37939 16.2587 8.64111V4.64502C16.2587 3.90674 15.9657 3.61377 15.2157 3.61377H4.57507C3.83679 3.61377 3.5321 3.90674 3.5321 4.64502V8.64111C3.5321 9.37939 3.83679 9.66064 4.57507 9.66064Z" fill="black" fill-opacity="0.85"/>
</g>
<defs>
<clipPath id="clip0_2207_7450">
<rect width="19.7109" height="25.1367" fill="white" transform="translate(0.039917 0.121582)"/>
</clipPath>
</defs>
</svg>
