<svg width="24" height="25" viewBox="0 0 24 25" fill="none" xmlns="http://www.w3.org/2000/svg">
<g clip-path="url(#clip0_2207_7204)">
<path d="M11.9825 24.0268C18.5216 24.0268 23.9356 18.6011 23.9356 12.0737C23.9356 5.53467 18.5099 0.120605 11.9708 0.120605C5.44348 0.120605 0.0294189 5.53467 0.0294189 12.0737C0.0294189 18.6011 5.4552 24.0268 11.9825 24.0268ZM11.9825 22.0347C6.4513 22.0347 2.03333 17.605 2.03333 12.0737C2.03333 6.54249 6.43958 2.1128 11.9708 2.1128C17.5021 2.1128 21.9435 6.54249 21.9435 12.0737C21.9435 17.605 17.5138 22.0347 11.9825 22.0347Z" fill="black" fill-opacity="0.85"/>
<path d="M6.75598 15.1089H14.5958C15.6622 15.1089 16.2013 14.5815 16.2013 13.5034V8.01904C16.2013 6.97607 15.6622 6.43701 14.5958 6.43701H6.75598C5.67786 6.43701 5.15051 6.97607 5.15051 8.01904V13.5034C5.15051 14.5815 5.67786 15.1089 6.75598 15.1089Z" fill="black" fill-opacity="0.85"/>
<path d="M9.33411 18.2729H17.1622C18.6388 18.2729 19.5177 17.4292 19.5177 15.9409V10.4565C19.5177 8.99169 18.6505 8.12451 17.1622 8.12451H9.33411C7.83411 8.12451 6.97864 8.99169 6.97864 10.4565V15.9409C6.97864 17.4292 7.84583 18.2729 9.33411 18.2729Z" fill="white"/>
<path d="M9.33411 17.5347H17.1622C18.2403 17.5347 18.7677 17.0073 18.7677 15.9409V10.4565C18.7677 9.41357 18.2403 8.86279 17.1622 8.86279H9.33411C8.25598 8.86279 7.71692 9.41357 7.71692 10.4565V15.9409C7.71692 17.0073 8.25598 17.5347 9.33411 17.5347Z" fill="black" fill-opacity="0.85"/>
</g>
<defs>
<clipPath id="clip0_2207_7204">
<rect width="23.9062" height="23.918" fill="white" transform="translate(0.0294189 0.120605)"/>
</clipPath>
</defs>
</svg>
