<svg width="28" height="22" viewBox="0 0 28 22" fill="none" xmlns="http://www.w3.org/2000/svg">
<g clip-path="url(#clip0_2207_7077)">
<path d="M3.77417 21.9746H24.0476C26.5086 21.9746 27.7273 20.7558 27.7273 18.3418V4.0332C27.7273 1.61914 26.5086 0.400391 24.0476 0.400391H3.77417C1.32495 0.400391 0.0944824 1.60742 0.0944824 4.0332V18.3418C0.0944824 20.7675 1.32495 21.9746 3.77417 21.9746ZM3.7976 20.0879C2.62573 20.0879 1.9812 19.455 1.9812 18.248V4.12695C1.9812 2.9082 2.62573 2.28711 3.7976 2.28711H24.0242C25.1843 2.28711 25.8406 2.9082 25.8406 4.12695V18.248C25.8406 19.455 25.1843 20.0879 24.0242 20.0879H3.7976Z" fill="black" fill-opacity="0.85"/>
<path d="M4.6062 11.041H12.8797C13.6179 11.041 13.9109 10.7363 13.9109 9.98633V4.80664C13.9109 4.05664 13.6179 3.75195 12.8797 3.75195H4.6062C3.87964 3.75195 3.58667 4.05664 3.58667 4.80664V9.98633C3.58667 10.7363 3.87964 11.041 4.6062 11.041Z" fill="black" fill-opacity="0.85"/>
</g>
<defs>
<clipPath id="clip0_2207_7077">
<rect width="27.6328" height="21.8555" fill="white" transform="translate(0.0944824 0.119141)"/>
</clipPath>
</defs>
</svg>
