<svg width="26" height="30" viewBox="0 0 26 30" fill="none" xmlns="http://www.w3.org/2000/svg">
<g clip-path="url(#clip0_2207_21277)">
<path d="M3.34998 18.3536H22.0414C23.9984 18.3536 25.3578 17.0294 25.3578 15.2247V14.0294C25.3578 12.2247 23.9984 10.9004 22.0414 10.9004H3.34998C1.39295 10.9004 0.0335693 12.2247 0.0335693 14.0294V15.2247C0.0335693 17.0294 1.39295 18.3536 3.34998 18.3536ZM3.59607 16.584C2.54138 16.584 1.89685 15.8809 1.89685 14.9317V14.3223C1.89685 13.3731 2.54138 12.67 3.59607 12.67H21.7953C22.85 12.67 23.4945 13.3731 23.4945 14.3223V14.9317C23.4945 15.8809 22.85 16.584 21.7953 16.584H3.59607Z" fill="black" fill-opacity="0.85"/>
<path d="M12.7016 29.1347C13.2055 29.1347 13.6274 28.7246 13.6274 28.2324V24.3652L13.557 22.3964L14.5648 23.4511L16.0883 24.9746C16.2641 25.1503 16.4867 25.2558 16.7211 25.2558C17.2133 25.2558 17.5883 24.916 17.5883 24.4238C17.5883 24.1543 17.4711 23.955 17.2719 23.7675L13.3813 20.1347C13.1352 19.9121 12.9359 19.83 12.7016 19.83C12.4555 19.83 12.268 19.9121 12.0102 20.1347L8.11951 23.7675C7.92029 23.955 7.8031 24.1543 7.8031 24.4238C7.8031 24.916 8.16638 25.2558 8.65857 25.2558C8.89295 25.2558 9.12732 25.1503 9.3031 24.9746L10.8383 23.4511L11.8461 22.3964L11.7641 24.3652V28.2324C11.7641 28.7246 12.1977 29.1347 12.7016 29.1347ZM12.7016 9.43555C12.9359 9.43555 13.1352 9.3418 13.3813 9.11914L17.2719 5.48633C17.4711 5.31055 17.5883 5.09961 17.5883 4.83008C17.5883 4.34961 17.2133 3.99805 16.7211 3.99805C16.4867 3.99805 16.2641 4.10352 16.0883 4.2793L14.5648 5.80273L13.557 6.85742L13.6274 4.88867V1.02148C13.6274 0.529297 13.2055 0.119141 12.7016 0.119141C12.1977 0.119141 11.7641 0.529297 11.7641 1.02148V4.88867L11.8461 6.85742L10.8383 5.80273L9.3031 4.2793C9.12732 4.10352 8.89295 3.99805 8.65857 3.99805C8.16638 3.99805 7.8031 4.34961 7.8031 4.83008C7.8031 5.09961 7.92029 5.31055 8.11951 5.48633L12.0102 9.11914C12.268 9.3418 12.4555 9.43555 12.7016 9.43555Z" fill="black" fill-opacity="0.85"/>
</g>
<defs>
<clipPath id="clip0_2207_21277">
<rect width="25.3242" height="29.2617" fill="white" transform="translate(0.0335693 0.119141)"/>
</clipPath>
</defs>
</svg>
