<svg width="28" height="22" viewBox="0 0 28 22" fill="none" xmlns="http://www.w3.org/2000/svg">
<g clip-path="url(#clip0_2207_7102)">
<path d="M3.76587 21.6933H24.0393C26.5003 21.6933 27.719 20.4863 27.719 18.0722V3.75195C27.719 1.33789 26.5003 0.119141 24.0393 0.119141H3.76587C1.31665 0.119141 0.0861816 1.33789 0.0861816 3.75195V18.0722C0.0861816 20.4863 1.31665 21.6933 3.76587 21.6933ZM3.7893 19.8066C2.61743 19.8066 1.9729 19.1855 1.9729 17.9668V3.85742C1.9729 2.63867 2.61743 2.00586 3.7893 2.00586H24.0159C25.176 2.00586 25.8323 2.63867 25.8323 3.85742V17.9668C25.8323 19.1855 25.176 19.8066 24.0159 19.8066H3.7893Z" fill="black" fill-opacity="0.85"/>
<path d="M14.9339 18.213H23.2073C23.9456 18.213 24.2385 17.9083 24.2385 17.1583V11.9551C24.2385 11.2051 23.9456 10.9004 23.2073 10.9004H14.9339C14.1956 10.9004 13.9026 11.2051 13.9026 11.9551V17.1583C13.9026 17.9083 14.1956 18.213 14.9339 18.213Z" fill="black" fill-opacity="0.85"/>
</g>
<defs>
<clipPath id="clip0_2207_7102">
<rect width="27.6328" height="21.5742" fill="white" transform="translate(0.0861816 0.119141)"/>
</clipPath>
</defs>
</svg>
