<svg width="27" height="33" viewBox="0 0 27 33" fill="none" xmlns="http://www.w3.org/2000/svg">
<g clip-path="url(#clip0_2207_7559)">
<path d="M18.1347 4.57455C17.7011 2.16049 16.2948 1.1644 13.9159 1.57455L3.02921 3.49643C0.650305 3.91831 -0.33407 5.32455 0.0995238 7.75034L2.86515 23.5237C3.29874 25.9144 4.71671 26.9222 7.0839 26.512L17.9706 24.5902C20.3495 24.1683 21.3339 22.7503 20.912 20.3362L18.1347 4.57455Z" fill="black" fill-opacity="0.85"/>
<path d="M26.3847 11.1841C26.3847 7.84424 24.4628 5.91064 21.1581 5.91064H10.0956C6.79095 5.91064 4.86908 7.84424 4.86908 11.1841V27.1919C4.86908 30.52 6.79095 32.4771 10.0956 32.4771H21.1581C24.4628 32.4771 26.3847 30.52 26.3847 27.1919V11.1841Z" fill="white"/>
<path d="M24.7792 11.1841C24.7792 8.73486 23.5722 7.50439 21.1581 7.50439H10.0956C7.68158 7.50439 6.46283 8.73486 6.46283 11.1841V27.1919C6.46283 29.6411 7.68158 30.8716 10.0956 30.8716H21.1581C23.5605 30.8716 24.7792 29.6411 24.7792 27.1919V11.1841Z" fill="black" fill-opacity="0.85"/>
</g>
<defs>
<clipPath id="clip0_2207_7559">
<rect width="26.3847" height="32.3555" fill="white" transform="translate(0 0.121582)"/>
</clipPath>
</defs>
</svg>
