<svg width="28" height="22" viewBox="0 0 28 22" fill="none" xmlns="http://www.w3.org/2000/svg">
<g clip-path="url(#clip0_2207_6895)">
<path d="M12.9609 21.438H14.8476V0.402832H12.9609V21.438ZM3.76172 21.6958H24.0351C26.4961 21.6958 27.7148 20.4888 27.7148 18.0747V3.75439C27.7148 1.34033 26.4961 0.121582 24.0351 0.121582H3.76172C1.3125 0.121582 0.0820312 1.34033 0.0820312 3.75439V18.0747C0.0820312 20.4888 1.3125 21.6958 3.76172 21.6958ZM3.78515 19.8091C2.61328 19.8091 1.96875 19.188 1.96875 17.9693V3.85986C1.96875 2.64111 2.61328 2.0083 3.78515 2.0083H24.0117C25.1718 2.0083 25.8281 2.64111 25.8281 3.85986V17.9693C25.8281 19.188 25.1718 19.8091 24.0117 19.8091H3.78515Z" fill="black" fill-opacity="0.85"/>
</g>
<defs>
<clipPath id="clip0_2207_6895">
<rect width="27.6328" height="21.5742" fill="white" transform="translate(0.0820312 0.121582)"/>
</clipPath>
</defs>
</svg>
