<svg width="28" height="22" viewBox="0 0 28 22" fill="none" xmlns="http://www.w3.org/2000/svg">
<g clip-path="url(#clip0_2207_7029)">
<path d="M3.70484 21.6933H23.9782C26.4392 21.6933 27.6579 20.4863 27.6579 18.0722V3.75195C27.6579 1.33789 26.4392 0.119141 23.9782 0.119141H3.70484C1.25562 0.119141 0.0251465 1.33789 0.0251465 3.75195V18.0722C0.0251465 20.4863 1.25562 21.6933 3.70484 21.6933ZM3.72827 19.8066C2.5564 19.8066 1.91187 19.1855 1.91187 17.9668V3.85742C1.91187 2.63867 2.5564 2.00586 3.72827 2.00586H23.9548C25.1149 2.00586 25.7712 2.63867 25.7712 3.85742V17.9668C25.7712 19.1855 25.1149 19.8066 23.9548 19.8066H3.72827Z" fill="black" fill-opacity="0.85"/>
<path d="M4.53686 18.2129H23.1462C23.8845 18.2129 24.1774 17.9082 24.1774 17.1582V14.6035C24.1774 13.8535 23.8845 13.5488 23.1462 13.5488H4.53686C3.8103 13.5488 3.51733 13.8535 3.51733 14.6035V17.1582C3.51733 17.9082 3.8103 18.2129 4.53686 18.2129Z" fill="black" fill-opacity="0.85"/>
</g>
<defs>
<clipPath id="clip0_2207_7029">
<rect width="27.6328" height="21.5742" fill="white" transform="translate(0.0251465 0.119141)"/>
</clipPath>
</defs>
</svg>
