<svg width="20" height="26" viewBox="0 0 20 26" fill="none" xmlns="http://www.w3.org/2000/svg">
<g clip-path="url(#clip0_2207_7420)">
<path d="M0.0314941 21.5786C0.0314941 24.0278 1.23852 25.2466 3.6643 25.2466H16.1096C18.5354 25.2466 19.7424 24.0278 19.7424 21.5786V3.80127C19.7424 1.36377 18.5354 0.121582 16.1096 0.121582H3.6643C1.23852 0.121582 0.0314941 1.36377 0.0314941 3.80127V21.5786ZM1.91821 21.5435V3.83642C1.91821 2.66455 2.5393 2.0083 3.75805 2.0083H16.0159C17.2346 2.0083 17.8557 2.66455 17.8557 3.83642V21.5435C17.8557 22.7154 17.2346 23.3599 16.0159 23.3599H3.75805C2.5393 23.3599 1.91821 22.7154 1.91821 21.5435Z" fill="black" fill-opacity="0.85"/>
<path d="M4.56665 12.6841H15.2073C15.9573 12.6841 16.2503 12.3911 16.2503 11.6528V4.64502C16.2503 3.90674 15.9573 3.61377 15.2073 3.61377H4.56665C3.82837 3.61377 3.52368 3.90674 3.52368 4.64502V11.6528C3.52368 12.3911 3.82837 12.6841 4.56665 12.6841Z" fill="black" fill-opacity="0.85"/>
</g>
<defs>
<clipPath id="clip0_2207_7420">
<rect width="19.7109" height="25.1367" fill="white" transform="translate(0.0314941 0.121582)"/>
</clipPath>
</defs>
</svg>
