<svg width="20" height="26" viewBox="0 0 20 26" fill="none" xmlns="http://www.w3.org/2000/svg">
<g clip-path="url(#clip0_2207_7490)">
<path d="M0.0378418 21.5786C0.0378418 24.0278 1.24487 25.2466 3.67065 25.2466H16.1159C18.5417 25.2466 19.7487 24.0278 19.7487 21.5786V3.80127C19.7487 1.36377 18.5417 0.121582 16.1159 0.121582H3.67065C1.24487 0.121582 0.0378418 1.36377 0.0378418 3.80127V21.5786ZM1.92456 21.5435V3.83642C1.92456 2.66455 2.54565 2.0083 3.7644 2.0083H16.0222C17.2409 2.0083 17.862 2.66455 17.862 3.83642V21.5435C17.862 22.7154 17.2409 23.3599 16.0222 23.3599H3.7644C2.54565 23.3599 1.92456 22.7154 1.92456 21.5435Z" fill="black" fill-opacity="0.85"/>
<path d="M10.948 12.6841H15.2136C15.9636 12.6841 16.2566 12.3911 16.2566 11.6528V4.64502C16.2566 3.90674 15.9636 3.61377 15.2136 3.61377H10.948C10.198 3.61377 9.89331 3.90674 9.89331 4.64502V11.6528C9.89331 12.3911 10.198 12.6841 10.948 12.6841Z" fill="black" fill-opacity="0.85"/>
</g>
<defs>
<clipPath id="clip0_2207_7490">
<rect width="19.7109" height="25.1367" fill="white" transform="translate(0.0378418 0.121582)"/>
</clipPath>
</defs>
</svg>
