<svg width="28" height="22" viewBox="0 0 28 22" fill="none" xmlns="http://www.w3.org/2000/svg">
<g clip-path="url(#clip0_2207_7014)">
<path d="M3.68799 21.6948H23.9614C26.4224 21.6948 27.6411 20.4878 27.6411 18.0737V3.75342C27.6411 1.33936 26.4224 0.120605 23.9614 0.120605H3.68799C1.23877 0.120605 0.00830078 1.33936 0.00830078 3.75342V18.0737C0.00830078 20.4878 1.23877 21.6948 3.68799 21.6948ZM3.71142 19.8081C2.53955 19.8081 1.89502 19.187 1.89502 17.9683V3.85889C1.89502 2.64014 2.53955 2.00733 3.71142 2.00733H23.938C25.0981 2.00733 25.7544 2.64014 25.7544 3.85889V17.9683C25.7544 19.187 25.0981 19.8081 23.938 19.8081H3.71142Z" fill="black" fill-opacity="0.85"/>
<path d="M4.52002 18.2144H12.8169C13.5552 18.2144 13.8481 17.9097 13.8481 17.1597V4.66748C13.8481 3.91748 13.5552 3.61279 12.8169 3.61279H4.52002C3.79346 3.61279 3.50049 3.91748 3.50049 4.66748V17.1597C3.50049 17.9097 3.79346 18.2144 4.52002 18.2144ZM23.6802 10.9018C23.6919 10.48 23.3169 10.1167 22.9067 10.1167H19.6255L17.8911 10.1753L18.8638 9.24951L20.1294 8.00732C20.2817 7.86669 20.3638 7.65576 20.3638 7.45654C20.3638 7.03466 20.0591 6.72998 19.6606 6.72998C19.4263 6.72998 19.2505 6.82372 19.0981 6.99951L15.9927 10.3276C15.7935 10.5386 15.7231 10.7026 15.7231 10.9018C15.7231 11.1128 15.7817 11.2651 15.9927 11.4761L19.0981 14.8042C19.2505 14.9917 19.4263 15.0854 19.6606 15.0854C20.0591 15.0854 20.3638 14.7808 20.3638 14.3589C20.3638 14.1597 20.2817 13.9487 20.1294 13.8081L18.8638 12.5542L17.8911 11.6284L19.6255 11.6987H22.9067C23.3169 11.6987 23.6685 11.3237 23.6802 10.9018Z" fill="black" fill-opacity="0.85"/>
</g>
<defs>
<clipPath id="clip0_2207_7014">
<rect width="27.6328" height="21.5742" fill="white" transform="translate(0.00830078 0.120605)"/>
</clipPath>
</defs>
</svg>
