<svg width="28" height="22" viewBox="0 0 28 22" fill="none" xmlns="http://www.w3.org/2000/svg">
<g clip-path="url(#clip0_2207_6989)">
<path d="M3.74683 21.6958H24.0202C26.4812 21.6958 27.6999 20.4888 27.6999 18.0747V3.75439C27.6999 1.34033 26.4812 0.121582 24.0202 0.121582H3.74683C1.29761 0.121582 0.0671387 1.34033 0.0671387 3.75439V18.0747C0.0671387 20.4888 1.29761 21.6958 3.74683 21.6958ZM3.77026 19.8091C2.59839 19.8091 1.95386 19.188 1.95386 17.9693V3.85986C1.95386 2.64111 2.59839 2.0083 3.77026 2.0083H23.9968C25.1569 2.0083 25.8132 2.64111 25.8132 3.85986V17.9693C25.8132 19.188 25.1569 19.8091 23.9968 19.8091H3.77026Z" fill="black" fill-opacity="0.85"/>
<path d="M14.8913 18.2154H23.1882C23.9265 18.2154 24.2194 17.9107 24.2194 17.1607V4.66846C24.2194 3.91846 23.9265 3.61377 23.1882 3.61377H14.8913C14.153 3.61377 13.8601 3.91846 13.8601 4.66846V17.1607C13.8601 17.9107 14.153 18.2154 14.8913 18.2154Z" fill="black" fill-opacity="0.85"/>
</g>
<defs>
<clipPath id="clip0_2207_6989">
<rect width="27.6328" height="21.5742" fill="white" transform="translate(0.0671387 0.121582)"/>
</clipPath>
</defs>
</svg>
