<svg width="30" height="26" viewBox="0 0 30 26" fill="none" xmlns="http://www.w3.org/2000/svg">
<g clip-path="url(#clip0_2207_77)">
<path d="M3.6853 25.2456H16.1306C18.5564 25.2456 19.7634 24.0268 19.7634 21.5776V3.8003C19.7634 1.3628 18.5564 0.120605 16.1306 0.120605H3.6853C1.27124 0.120605 0.0524902 1.3628 0.0524902 3.8003V21.5776C0.0524902 24.0268 1.27124 25.2456 3.6853 25.2456ZM1.93921 21.5425V3.83545C1.93921 2.66358 2.57202 2.00733 3.79077 2.00733H16.0369C17.2556 2.00733 17.8767 2.66358 17.8767 3.83545V21.5425C17.8767 22.7144 17.2556 23.3589 16.0369 23.3589H3.79077C2.57202 23.3589 1.93921 22.7144 1.93921 21.5425Z" fill="black" fill-opacity="0.85"/>
<path d="M10.9041 15.8823H26.3494C28.0837 15.8823 29.5252 14.4292 29.5252 12.6831C29.5252 10.937 28.0837 9.48389 26.3494 9.48389H10.9041C9.15796 9.48389 7.72827 10.937 7.72827 12.6831C7.72827 14.4292 9.15796 15.8823 10.9041 15.8823Z" fill="white"/>
<path d="M10.9041 13.6089H22.9392L24.6853 13.5386L23.865 14.3354L21.9666 16.105C21.7791 16.269 21.6853 16.5151 21.6853 16.7378C21.6853 17.23 22.0369 17.5933 22.5056 17.5933C22.7634 17.5933 22.9509 17.4995 23.1267 17.3237L26.947 13.3628C27.1814 13.1284 27.2634 12.9175 27.2634 12.6831C27.2634 12.437 27.1814 12.2378 26.947 12.0034L23.1267 8.04249C22.9509 7.8667 22.7634 7.76123 22.5056 7.76123C22.0369 7.76123 21.6853 8.1128 21.6853 8.60499C21.6853 8.83936 21.7791 9.08545 21.9666 9.24952L23.865 11.0308L24.697 11.8276L22.9392 11.7456H10.9041C10.4119 11.7456 9.98999 12.1792 9.98999 12.6831C9.98999 13.187 10.4119 13.6089 10.9041 13.6089Z" fill="black" fill-opacity="0.85"/>
</g>
<defs>
<clipPath id="clip0_2207_77">
<rect width="29.4727" height="25.1367" fill="white" transform="translate(0.0524902 0.120605)"/>
</clipPath>
</defs>
</svg>
