<svg width="32" height="27" viewBox="0 0 32 27" fill="none" xmlns="http://www.w3.org/2000/svg">
<g clip-path="url(#clip0_2207_15188)">
<path d="M3.75952 11.8365H12.115C14.5642 11.8365 15.7946 10.6177 15.7946 8.20362V3.73877C15.7946 1.32471 14.5642 0.117676 12.115 0.117676H3.75952C1.3103 0.117676 0.079834 1.32471 0.079834 3.73877V8.20362C0.079834 10.6177 1.3103 11.8365 3.75952 11.8365ZM3.78295 9.94971C2.61108 9.94971 1.96655 9.3169 1.96655 8.09815V3.84424C1.96655 2.62549 2.61108 2.0044 3.78295 2.0044H12.0915C13.2517 2.0044 13.9079 2.62549 13.9079 3.84424V8.09815C13.9079 9.3169 13.2517 9.94971 12.0915 9.94971H3.78295ZM19.4743 26.9302H27.8415C30.279 26.9302 31.5212 25.7115 31.5212 23.2974V18.8443C31.5212 16.4302 30.279 15.2115 27.8415 15.2115H19.4743C17.0368 15.2115 15.7946 16.4185 15.7946 18.8443V23.2974C15.7946 25.7232 17.0368 26.9302 19.4743 26.9302ZM19.5095 25.0435C18.3376 25.0435 17.6814 24.4224 17.6814 23.2036V18.938C17.6814 17.731 18.3376 17.0982 19.5095 17.0982H27.8064C28.9665 17.0982 29.6345 17.731 29.6345 18.938V23.2036C29.6345 24.4224 28.9665 25.0435 27.8064 25.0435H19.5095Z" fill="black" fill-opacity="0.85"/>
<path d="M25.1462 13.02C25.5095 13.5239 25.9196 13.5122 26.2829 13.02L28.4626 10.0552C28.9431 9.41065 28.7556 8.7544 27.8884 8.7544H26.3415V8.5083C26.3415 5.14502 24.0798 2.90674 20.7282 2.90674H18.9704C18.572 2.90674 18.2439 3.24659 18.2439 3.64502C18.2439 4.04346 18.572 4.37159 18.9704 4.37159H20.7165C23.2126 4.37159 24.9821 5.97706 24.9821 8.52002V8.7544H23.5525C22.7087 8.7544 22.5095 9.41065 22.99 10.0552L25.1462 13.02ZM10.861 24.1411H12.6189C13.0173 24.1411 13.3571 23.8013 13.3571 23.4029C13.3571 23.0044 13.0173 22.6763 12.6189 22.6763H10.8728C8.3767 22.6763 6.60716 21.0591 6.60716 18.5161V18.2935H8.04857C8.8806 18.2935 9.07982 17.6372 8.61107 16.981L6.4431 14.0279C6.07982 13.5239 5.66966 13.5357 5.30638 14.0279L3.13841 16.981C2.64623 17.6372 2.84544 18.2935 3.70091 18.2935H5.24779V18.5279C5.24779 21.9029 7.50951 24.1411 10.861 24.1411Z" fill="black" fill-opacity="0.85"/>
</g>
<defs>
<clipPath id="clip0_2207_15188">
<rect width="31.4414" height="26.8242" fill="white" transform="translate(0.079834 0.117676)"/>
</clipPath>
</defs>
</svg>
