<svg width="30" height="26" viewBox="0 0 30 26" fill="none" xmlns="http://www.w3.org/2000/svg">
<g clip-path="url(#clip0_2207_19247)">
<path d="M6.29311 21.0398L22.0548 18.2624C24.4572 17.8288 25.465 16.4109 25.0431 14.0437L23.1212 3.15698C22.7111 0.778067 21.2814 -0.206308 18.8791 0.215567L3.10561 2.99292C0.69155 3.42651 -0.304545 4.83276 0.117331 7.21167L2.0392 18.0984C2.44936 20.4773 3.86733 21.4617 6.29311 21.0398ZM5.98842 19.1765C4.83998 19.3757 4.08998 18.8718 3.87905 17.6765L1.99233 6.98901C1.78139 5.78198 2.30873 5.05542 3.46889 4.84448L19.172 2.07885C20.3087 1.89135 21.0705 2.38354 21.2814 3.57885L23.1681 14.2663C23.3908 15.4734 22.84 16.1999 21.7033 16.4109L5.98842 19.1765Z" fill="black" fill-opacity="0.85"/>
<path d="M10.2072 24.731H26.2267C28.6642 24.731 29.8947 23.5122 29.8947 21.0982V10.0474C29.8947 7.6333 28.6642 6.41455 26.2267 6.41455H10.2072C7.75797 6.41455 6.53922 7.6333 6.53922 10.0474V21.0982C6.53922 23.524 7.75797 24.731 10.2072 24.731Z" fill="white"/>
<path d="M10.2072 24.731H26.2267C28.6642 24.731 29.8947 23.5122 29.8947 21.0982V10.0474C29.8947 7.6333 28.6642 6.41455 26.2267 6.41455H10.2072C7.75797 6.41455 6.53922 7.6333 6.53922 10.0474V21.0982C6.53922 23.524 7.75797 24.731 10.2072 24.731ZM10.2423 22.8443C9.07047 22.8443 8.42594 22.2232 8.42594 21.0044V10.1529C8.42594 8.93408 9.07047 8.30127 10.2423 8.30127H26.1916C27.3517 8.30127 28.008 8.93408 28.008 10.1529V21.0044C28.008 22.2232 27.3517 22.8443 26.1916 22.8443H10.2423Z" fill="black" fill-opacity="0.85"/>
</g>
<defs>
<clipPath id="clip0_2207_19247">
<rect width="29.8715" height="25.4907" fill="white" transform="translate(0.0231934 0.120605)"/>
</clipPath>
</defs>
</svg>
