<svg width="28" height="22" viewBox="0 0 28 22" fill="none" xmlns="http://www.w3.org/2000/svg">
<g clip-path="url(#clip0_2207_7072)">
<path d="M3.77832 21.6933H24.0517C26.5127 21.6933 27.7314 20.4863 27.7314 18.0722V3.75195C27.7314 1.33789 26.5127 0.119141 24.0517 0.119141H3.77832C1.3291 0.119141 0.0986328 1.33789 0.0986328 3.75195V18.0722C0.0986328 20.4863 1.3291 21.6933 3.77832 21.6933ZM3.80175 19.8066C2.62988 19.8066 1.98535 19.1855 1.98535 17.9668V3.85742C1.98535 2.63867 2.62988 2.00586 3.80175 2.00586H24.0283C25.1884 2.00586 25.8447 2.63867 25.8447 3.85742V17.9668C25.8447 19.1855 25.1884 19.8066 24.0283 19.8066H3.80175Z" fill="black" fill-opacity="0.85"/>
<path d="M14.9463 10.9003H23.2197C23.958 10.9003 24.2509 10.5957 24.2509 9.8457V4.66602C24.2509 3.91602 23.958 3.61133 23.2197 3.61133H14.9463C14.208 3.61133 13.915 3.91602 13.915 4.66602V9.8457C13.915 10.5957 14.208 10.9003 14.9463 10.9003Z" fill="black" fill-opacity="0.85"/>
</g>
<defs>
<clipPath id="clip0_2207_7072">
<rect width="27.6328" height="21.5742" fill="white" transform="translate(0.0986328 0.119141)"/>
</clipPath>
</defs>
</svg>
