<svg width="28" height="22" viewBox="0 0 28 22" fill="none" xmlns="http://www.w3.org/2000/svg">
<g clip-path="url(#clip0_2207_2441)">
<path d="M6.67602 6.44726H11.4807V2.00586H6.67602V6.44726ZM16.2151 6.44726H21.0198V2.00586H16.2151V6.44726ZM1.91821 10.9121H6.67602V6.44726H1.91821V10.9121ZM11.4807 10.9121H16.2151V6.44726H11.4807V10.9121ZM21.0198 10.9121H25.7893V6.44726H21.0198V10.9121ZM6.67602 15.3535H11.4807V10.9121H6.67602V15.3535ZM16.2151 15.3535H21.0198V10.9121H16.2151V15.3535ZM1.91821 19.3027L2.48071 19.8066H6.67602V15.3535H1.91821V19.3027ZM11.4807 19.8066H16.2151V15.3535H11.4807V19.8066ZM21.0198 19.8066H25.1682L25.7893 19.2675V15.3535H21.0198V19.8066ZM3.71118 21.6933H23.9846C26.4456 21.6933 27.6643 20.4863 27.6643 18.0722V3.75195C27.6643 1.33789 26.4456 0.119141 23.9846 0.119141H3.71118C1.26196 0.119141 0.0314941 1.33789 0.0314941 3.75195V18.0722C0.0314941 20.4863 1.26196 21.6933 3.71118 21.6933ZM3.73461 19.8066C2.56274 19.8066 1.91821 19.1855 1.91821 17.9668V3.85742C1.91821 2.63867 2.56274 2.00586 3.73461 2.00586H23.9612C25.1213 2.00586 25.7776 2.63867 25.7776 3.85742V17.9668C25.7776 19.1855 25.1213 19.8066 23.9612 19.8066H3.73461Z" fill="black" fill-opacity="0.85"/>
</g>
<defs>
<clipPath id="clip0_2207_2441">
<rect width="27.6328" height="21.5742" fill="white" transform="translate(0.0314941 0.119141)"/>
</clipPath>
</defs>
</svg>
