<svg width="20" height="26" viewBox="0 0 20 26" fill="none" xmlns="http://www.w3.org/2000/svg">
<g clip-path="url(#clip0_2207_7470)">
<path d="M0.0881348 21.5776C0.0881348 24.0268 1.29516 25.2456 3.72094 25.2456H16.1662C18.592 25.2456 19.799 24.0268 19.799 21.5776V3.8003C19.799 1.3628 18.592 0.120605 16.1662 0.120605H3.72094C1.29516 0.120605 0.0881348 1.3628 0.0881348 3.8003V21.5776ZM1.97485 21.5425V3.83545C1.97485 2.66358 2.59594 2.00733 3.81469 2.00733H16.0725C17.2912 2.00733 17.9123 2.66358 17.9123 3.83545V21.5425C17.9123 22.7144 17.2912 23.3589 16.0725 23.3589H3.81469C2.59594 23.3589 1.97485 22.7144 1.97485 21.5425Z" fill="black" fill-opacity="0.85"/>
<path d="M4.62329 21.7651H6.76782C7.51782 21.7651 7.82251 21.4722 7.82251 20.7339V4.64404C7.82251 3.90576 7.51782 3.61279 6.76782 3.61279H4.62329C3.88501 3.61279 3.58032 3.90576 3.58032 4.64404V20.7339C3.58032 21.4722 3.88501 21.7651 4.62329 21.7651Z" fill="black" fill-opacity="0.85"/>
</g>
<defs>
<clipPath id="clip0_2207_7470">
<rect width="19.7109" height="25.1367" fill="white" transform="translate(0.0881348 0.120605)"/>
</clipPath>
</defs>
</svg>
