<svg width="30" height="23" viewBox="0 0 30 23" fill="none" xmlns="http://www.w3.org/2000/svg">
<g clip-path="url(#clip0_2207_15183)">
<path d="M10.7558 22.8901H18.7128C21.1269 22.8901 22.3457 21.6714 22.3457 19.2104V3.8003C22.3457 1.33936 21.1269 0.120605 18.7128 0.120605H10.7558C8.33008 0.120605 7.12305 1.33936 7.12305 3.8003V19.2104C7.12305 21.6714 8.3418 22.8901 10.7558 22.8901ZM10.8496 21.0034C9.63086 21.0034 9.00976 20.3354 9.00976 19.187V3.82373C9.00976 2.65186 9.63086 2.00733 10.8496 2.00733H18.6074C19.8261 2.00733 20.4589 2.65186 20.4589 3.82373V19.187C20.4589 20.3354 19.8261 21.0034 18.6074 21.0034H10.8496Z" fill="black" fill-opacity="0.85"/>
<path d="M0.0566406 14.1127C0.0566406 14.7455 0.560547 15.0033 1.12305 14.6752L5.2832 12.1439C5.79883 11.8041 5.79883 11.2064 5.2832 10.8783L1.11133 8.32361C0.548829 7.99549 0.0566406 8.27674 0.0566406 8.89783V14.1127ZM29.4121 14.1127V8.89783C29.4121 8.27674 28.8964 7.98377 28.3457 8.32361L24.1855 10.8783C23.6582 11.1947 23.6464 11.8158 24.1855 12.1439L28.3457 14.6752C28.8964 15.015 29.4121 14.7455 29.4121 14.1127Z" fill="black" fill-opacity="0.85"/>
</g>
<defs>
<clipPath id="clip0_2207_15183">
<rect width="29.3555" height="22.7695" fill="white" transform="translate(0.0566406 0.120605)"/>
</clipPath>
</defs>
</svg>
