<svg width="28" height="22" viewBox="0 0 28 22" fill="none" xmlns="http://www.w3.org/2000/svg">
<g clip-path="url(#clip0_2207_6999)">
<path d="M3.71118 21.6972H23.9846C26.4456 21.6972 27.6643 20.4902 27.6643 18.0761V3.75586C27.6643 1.3418 26.4456 0.123047 23.9846 0.123047H3.71118C1.26196 0.123047 0.0314941 1.3418 0.0314941 3.75586V18.0761C0.0314941 20.4902 1.26196 21.6972 3.71118 21.6972ZM3.73461 19.8105C2.56274 19.8105 1.91821 19.1894 1.91821 17.9707V3.86133C1.91821 2.64258 2.56274 2.00977 3.73461 2.00977H23.9612C25.1213 2.00977 25.7776 2.64258 25.7776 3.86133V17.9707C25.7776 19.1894 25.1213 19.8105 23.9612 19.8105H3.73461Z" fill="black" fill-opacity="0.85"/>
<path d="M14.8557 18.2168H23.1526C23.8909 18.2168 24.1838 17.9121 24.1838 17.1621V4.66992C24.1838 3.91992 23.8909 3.61523 23.1526 3.61523H14.8557C14.1174 3.61523 13.8245 3.91992 13.8245 4.66992V17.1621C13.8245 17.9121 14.1174 18.2168 14.8557 18.2168Z" fill="black" fill-opacity="0.85"/>
</g>
<defs>
<clipPath id="clip0_2207_6999">
<rect width="27.6328" height="21.5742" fill="white" transform="translate(0.0314941 0.123047)"/>
</clipPath>
</defs>
</svg>
