<svg width="21" height="26" viewBox="0 0 21 26" fill="none" xmlns="http://www.w3.org/2000/svg">
<g clip-path="url(#clip0_2207_21037)">
<path d="M6.99781 25.2925H17.2985C19.5251 25.2925 20.861 23.98 20.861 21.7768L20.8728 3.67139C20.8728 1.5503 19.4431 0.120605 17.3337 0.120605H13.736C11.8962 0.120605 10.361 0.601074 8.91968 1.9253L1.51343 8.73389C0.517335 9.64795 0.0251465 10.937 0.0251465 12.5425V18.3198C0.0251465 22.562 2.75562 25.2925 6.99781 25.2925ZM7.04468 23.4058C3.76343 23.4058 1.91187 21.5659 1.91187 18.2847V12.5659C1.91187 11.394 2.1814 10.6792 2.82593 10.0933L10.2204 3.30811C11.2634 2.35889 12.3298 2.00733 13.7829 2.00733H17.2985C18.3181 2.00733 18.986 2.68702 18.986 3.69483L18.9743 21.7417C18.9743 22.9839 18.4821 23.4058 17.2634 23.4058H7.04468Z" fill="black" fill-opacity="0.85"/>
<path d="M8.42749 20.6518H15.2126C16.1267 20.6518 16.5954 20.1948 16.5954 19.269V14.5347C16.5954 13.6323 16.1267 13.1636 15.2126 13.1636H8.42749C7.48999 13.1636 7.03296 13.6323 7.03296 14.5347V19.269C7.03296 20.1948 7.48999 20.6518 8.42749 20.6518ZM4.8064 17.1479C4.8064 18.0503 5.27515 18.519 6.18921 18.519H6.28296V14.5347C6.28296 13.2222 7.0564 12.4136 8.42749 12.4136H14.3689V12.3667C14.3454 11.4995 13.8884 11.0542 12.9743 11.0542H6.18921C5.27515 11.0542 4.8064 11.5112 4.8064 12.437V17.1479Z" fill="black" fill-opacity="0.85"/>
</g>
<defs>
<clipPath id="clip0_2207_21037">
<rect width="20.8477" height="25.1836" fill="white" transform="translate(0.0251465 0.120605)"/>
</clipPath>
</defs>
</svg>
