<svg width="26" height="27" viewBox="0 0 26 27" fill="none" xmlns="http://www.w3.org/2000/svg">
<g clip-path="url(#clip0_2207_9253)">
<path d="M7.04712 26.0044C7.50415 26.0044 7.84399 25.77 8.39477 25.2544L12.6253 21.3872H20.5471C24.0393 21.3872 25.9143 19.4654 25.9143 16.0318V7.05518C25.9143 3.62159 24.0393 1.68799 20.5471 1.68799H5.45337C1.96118 1.68799 0.0861816 3.60987 0.0861816 7.05518V16.0318C0.0861816 19.4771 1.96118 21.3872 5.45337 21.3872H6.00415V24.7974C6.00415 25.5239 6.37915 26.0044 7.04712 26.0044Z" fill="black" fill-opacity="0.85"/>
<path d="M6.06275 11.2505C5.17213 11.2505 4.72681 10.8286 4.72681 9.94971V7.54737C4.72681 6.68018 5.17213 6.2583 6.06275 6.2583H11.3596C12.2268 6.2583 12.6721 6.68018 12.6721 7.54737V9.94971C12.6721 10.8286 12.2268 11.2505 11.3596 11.2505H6.06275ZM7.51588 16.8169C6.64869 16.8169 6.2151 16.3833 6.2151 15.5044V13.8755C6.2151 13.0083 6.64869 12.5747 7.51588 12.5747H12.0745C12.9417 12.5747 13.3753 13.0083 13.3753 13.8755V15.5044C13.3753 16.3833 12.9417 16.8169 12.0745 16.8169H7.51588ZM16.0471 16.0904C15.1682 16.0904 14.7229 15.6685 14.7229 14.7896V8.3794C14.7229 7.51221 15.1682 7.07862 16.0471 7.07862H19.8089C20.6878 7.07862 21.1214 7.51221 21.1214 8.3794V14.7896C21.1214 15.6685 20.6878 16.0904 19.8089 16.0904H16.0471Z" fill="white"/>
</g>
<defs>
<clipPath id="clip0_2207_9253">
<rect width="25.8281" height="25.8867" fill="white" transform="translate(0.0861816 0.117676)"/>
</clipPath>
</defs>
</svg>
