<svg width="33" height="22" viewBox="0 0 33 22" fill="none" xmlns="http://www.w3.org/2000/svg">
<g clip-path="url(#clip0_2207_7301)">
<path d="M2.43188 10.3013H13.6467C15.2053 10.3013 15.9904 9.51612 15.9904 7.89893V2.52002C15.9904 0.902832 15.2053 0.129395 13.6467 0.129395H2.43188C0.873291 0.129395 0.0881348 0.902832 0.0881348 2.52002V7.89893C0.0881348 9.51612 0.873291 10.3013 2.43188 10.3013ZM5.26782 21.4107H15.0764C16.6467 21.4107 17.4319 20.6255 17.4319 19.02V15.1411C17.4319 13.5239 16.6467 12.7388 15.0764 12.7388H5.26782C3.69751 12.7388 2.91235 13.5239 2.91235 15.1411V19.02C2.91235 20.6255 3.69751 21.4107 5.26782 21.4107ZM22.0842 19.8755H30.217C31.7873 19.8755 32.5725 19.0904 32.5725 17.4732V4.1958C32.5725 2.57862 31.7873 1.79346 30.217 1.79346H22.0842C20.5139 1.79346 19.7287 2.57862 19.7287 4.1958V17.4732C19.7287 19.0904 20.5139 19.8755 22.0842 19.8755Z" fill="black" fill-opacity="0.85"/>
</g>
<defs>
<clipPath id="clip0_2207_7301">
<rect width="32.4844" height="21.293" fill="white" transform="translate(0.0881348 0.117676)"/>
</clipPath>
</defs>
</svg>
