<svg width="28" height="22" viewBox="0 0 28 22" fill="none" xmlns="http://www.w3.org/2000/svg">
<g clip-path="url(#clip0_2207_7034)">
<path d="M3.69849 21.6948H23.9719C26.4329 21.6948 27.6516 20.4878 27.6516 18.0737V3.75342C27.6516 1.33936 26.4329 0.120605 23.9719 0.120605H3.69849C1.24927 0.120605 0.0187988 1.33936 0.0187988 3.75342V18.0737C0.0187988 20.4878 1.24927 21.6948 3.69849 21.6948ZM3.72192 19.8081C2.55005 19.8081 1.90552 19.187 1.90552 17.9683V3.85889C1.90552 2.64014 2.55005 2.00733 3.72192 2.00733H23.9485C25.1086 2.00733 25.7649 2.64014 25.7649 3.85889V17.9683C25.7649 19.187 25.1086 19.8081 23.9485 19.8081H3.72192Z" fill="black" fill-opacity="0.85"/>
<path d="M4.53052 18.2144H7.84692C8.57349 18.2144 8.86646 17.9097 8.86646 17.1597V4.66748C8.86646 3.91748 8.57349 3.61279 7.84692 3.61279H4.53052C3.80396 3.61279 3.51099 3.91748 3.51099 4.66748V17.1597C3.51099 17.9097 3.80396 18.2144 4.53052 18.2144Z" fill="black" fill-opacity="0.85"/>
</g>
<defs>
<clipPath id="clip0_2207_7034">
<rect width="27.6328" height="21.5742" fill="white" transform="translate(0.0187988 0.120605)"/>
</clipPath>
</defs>
</svg>
