<svg width="30" height="23" viewBox="0 0 30 23" fill="none" xmlns="http://www.w3.org/2000/svg">
<g clip-path="url(#clip0_2207_15178)">
<path d="M10.865 22.8901H18.822C21.2361 22.8901 22.4548 21.6714 22.4548 19.2104V3.8003C22.4548 1.33936 21.2478 0.120605 18.822 0.120605H10.865C8.45093 0.120605 7.23218 1.33936 7.23218 3.8003V19.2104C7.23218 21.6714 8.45093 22.8901 10.865 22.8901ZM10.9704 21.0034C9.75171 21.0034 9.1189 20.3354 9.1189 19.187V3.82373C9.1189 2.65186 9.75171 2.00733 10.9704 2.00733H18.7282C19.947 2.00733 20.5681 2.65186 20.5681 3.82373V19.187C20.5681 20.3354 19.947 21.0034 18.7282 21.0034H10.9704Z" fill="black" fill-opacity="0.85"/>
<path d="M5.6736 14.1127V8.89783C5.6736 8.27674 5.16969 7.98377 4.61891 8.32361L0.458752 10.8783C-0.0685911 11.1947 -0.0803102 11.8158 0.458752 12.1439L4.61891 14.6752C5.16969 15.015 5.6736 14.7455 5.6736 14.1127ZM24.0134 14.1127C24.0134 14.7455 24.529 15.015 25.0798 14.6752L29.24 12.1439C29.7673 11.8158 29.7556 11.1947 29.24 10.8783L25.0681 8.32361C24.5173 7.98377 24.0134 8.27674 24.0134 8.89783V14.1127Z" fill="black" fill-opacity="0.85"/>
</g>
<defs>
<clipPath id="clip0_2207_15178">
<rect width="29.5723" height="22.7695" fill="white" transform="translate(0.0588379 0.120605)"/>
</clipPath>
</defs>
</svg>
