<svg width="28" height="22" viewBox="0 0 28 22" fill="none" xmlns="http://www.w3.org/2000/svg">
<g clip-path="url(#clip0_2207_7054)">
<path d="M3.70703 21.6933H23.9804C26.4414 21.6933 27.6601 20.4863 27.6601 18.0722V3.75195C27.6601 1.33789 26.4414 0.119141 23.9804 0.119141H3.70703C1.25781 0.119141 0.0273438 1.33789 0.0273438 3.75195V18.0722C0.0273438 20.4863 1.25781 21.6933 3.70703 21.6933ZM3.73046 19.8066C2.55859 19.8066 1.91406 19.1855 1.91406 17.9668V3.85742C1.91406 2.63867 2.55859 2.00586 3.73046 2.00586H23.957C25.1171 2.00586 25.7734 2.63867 25.7734 3.85742V17.9668C25.7734 19.1855 25.1171 19.8066 23.957 19.8066H3.73046Z" fill="black" fill-opacity="0.85"/>
<path d="M7.42187 16.2558H20.2656C21.0859 16.2558 21.4257 15.916 21.4257 15.0722V6.75195C21.4257 5.9082 21.0859 5.55664 20.2656 5.55664H7.42187C6.61328 5.55664 6.26172 5.9082 6.26172 6.75195V15.0722C6.26172 15.916 6.61328 16.2558 7.42187 16.2558Z" fill="black" fill-opacity="0.85"/>
</g>
<defs>
<clipPath id="clip0_2207_7054">
<rect width="27.6328" height="21.5742" fill="white" transform="translate(0.0273438 0.119141)"/>
</clipPath>
</defs>
</svg>
