<svg width="26" height="22" viewBox="0 0 26 22" fill="none" xmlns="http://www.w3.org/2000/svg">
<g clip-path="url(#clip0_2207_5328)">
<path d="M24.0654 10.1777C23.4912 10.1777 23.0693 10.5996 23.0693 11.1738V12.2871C23.0693 14.3027 21.6982 15.6035 19.5654 15.6035H10.4248V12.8847C10.4248 12.4042 10.1553 12.1464 9.67482 12.1464C9.45217 12.1464 9.24123 12.2168 9.06545 12.3574L4.63576 16.0253C4.26076 16.3535 4.24904 16.8222 4.63576 17.1386L9.06545 20.8183C9.24123 20.9589 9.45217 21.041 9.67482 21.041C10.1553 21.041 10.4248 20.7714 10.4248 20.3027V17.5605H19.3779C22.8232 17.5605 25.0615 15.6035 25.0615 12.4277V11.1738C25.0615 10.5996 24.6279 10.1777 24.0654 10.1777Z" fill="black" fill-opacity="0.85"/>
<path d="M1.03809 11.0097C1.60058 11.0097 2.03418 10.5761 2.03418 10.0137V8.90039C2.03418 6.88477 3.40527 5.57227 5.52637 5.57227H14.667V8.32617C14.667 8.79493 14.9482 9.06446 15.4287 9.06446C15.6397 9.06446 15.8623 8.98243 16.0264 8.8418L20.4561 5.17383C20.8311 4.86914 20.8545 4.38867 20.4561 4.06055L16.0264 0.380859C15.8623 0.240235 15.6397 0.169922 15.4287 0.169922C14.9482 0.169922 14.667 0.427735 14.667 0.908203V3.62696H5.71387C2.28027 3.62696 0.0419922 5.58399 0.0419922 8.75977V10.0137C0.0419922 10.5761 0.463867 11.0097 1.03809 11.0097Z" fill="black" fill-opacity="0.85"/>
</g>
<defs>
<clipPath id="clip0_2207_5328">
<rect width="25.0195" height="20.918" fill="white" transform="translate(0.0419922 0.123047)"/>
</clipPath>
</defs>
</svg>
