<svg width="24" height="25" viewBox="0 0 24 25" fill="none" xmlns="http://www.w3.org/2000/svg">
<g clip-path="url(#clip0_2207_5348)">
<path d="M11.9992 24.0292C18.5383 24.0292 23.9523 18.6035 23.9523 12.0761C23.9523 5.53711 18.5266 0.123047 11.9875 0.123047C5.4602 0.123047 0.0461426 5.53711 0.0461426 12.0761C0.0461426 18.6035 5.47192 24.0292 11.9992 24.0292ZM11.9992 22.0371C6.46802 22.0371 2.05005 17.6074 2.05005 12.0761C2.05005 6.54493 6.4563 2.11524 11.9875 2.11524C17.5188 2.11524 21.9602 6.54493 21.9602 12.0761C21.9602 17.6074 17.5305 22.0371 11.9992 22.0371Z" fill="black" fill-opacity="0.85"/>
<path d="M4.44067 12.0528C4.44067 12.4395 4.74536 12.7559 5.13208 12.7559C5.5188 12.7559 5.8352 12.4395 5.8352 12.0528V11.4669C5.8352 10.377 6.5852 9.63867 7.73364 9.63867H10.7219V11.1036C10.7219 11.4434 10.9445 11.6543 11.2844 11.6543C11.4484 11.6543 11.6008 11.5958 11.718 11.502L14.2727 9.38086C14.5773 9.13477 14.5773 8.77149 14.2727 8.53711L11.718 6.4043C11.6008 6.31055 11.4484 6.26367 11.2844 6.26367C10.9445 6.26367 10.7219 6.47461 10.7219 6.81446V8.25586H7.87426C5.77661 8.25586 4.44067 9.45117 4.44067 11.3614V12.0528ZM18.4328 12.7559C18.4328 12.3692 18.1164 12.0645 17.7297 12.0645C17.343 12.0645 17.0266 12.3692 17.0266 12.7559V13.3419C17.0266 14.4434 16.2766 15.17 15.1281 15.17H10.6867V13.7286C10.6867 13.3887 10.4641 13.1778 10.1242 13.1778C9.9602 13.1778 9.80786 13.2247 9.69067 13.3301L7.12426 15.4512C6.8313 15.6739 6.84302 16.0606 7.13598 16.295L9.69067 18.4161C9.80786 18.5098 9.9602 18.5567 10.1242 18.5567C10.4758 18.5567 10.6867 18.3575 10.6867 18.0176V16.5528H14.9875C17.0969 16.5528 18.4328 15.3458 18.4328 13.4473V12.7559ZM17.7297 10.8223C18.175 10.8223 18.4563 10.5293 18.4563 10.0723V7.20117C18.4563 6.67383 18.1047 6.32227 17.5891 6.32227C17.2375 6.32227 16.9914 6.41602 16.6516 6.68555L15.7492 7.37696C15.5734 7.50586 15.5149 7.64649 15.5149 7.83399C15.5149 8.10352 15.7375 8.32617 16.0305 8.32617C16.1477 8.32617 16.2766 8.29102 16.3938 8.19727L17.0852 7.64649H16.9797V10.0723C16.9797 10.5293 17.2727 10.8223 17.7297 10.8223Z" fill="black" fill-opacity="0.85"/>
</g>
<defs>
<clipPath id="clip0_2207_5348">
<rect width="23.9062" height="23.918" fill="white" transform="translate(0.0461426 0.123047)"/>
</clipPath>
</defs>
</svg>
