<svg width="24" height="25" viewBox="0 0 24 25" fill="none" xmlns="http://www.w3.org/2000/svg">
<g clip-path="url(#clip0_2207_3338)">
<path d="M12.0097 24.0292C18.5488 24.0292 23.9628 18.6035 23.9628 12.0761C23.9628 5.53711 18.5371 0.123047 11.998 0.123047C5.4707 0.123047 0.0566406 5.53711 0.0566406 12.0761C0.0566406 18.6035 5.48242 24.0292 12.0097 24.0292ZM12.0097 22.0371C6.47852 22.0371 2.06055 17.6074 2.06055 12.0761C2.06055 6.54493 6.4668 2.11524 11.998 2.11524C17.5293 2.11524 21.9707 6.54493 21.9707 12.0761C21.9707 17.6074 17.541 22.0371 12.0097 22.0371Z" fill="black" fill-opacity="0.85"/>
<path d="M6.64258 10.8573C5.68164 11.4315 5.70508 12.7557 6.61914 13.2948L13.6504 17.4549C14.5175 17.9706 15.7363 17.6307 15.7363 16.3768V7.76352C15.7363 6.50962 14.5175 6.15806 13.6504 6.6854L6.64258 10.8573ZM8.45898 11.9706L13.6269 8.90024C13.7675 8.81821 13.8496 8.87681 13.8496 8.98228V15.1581C13.8496 15.2635 13.7675 15.3104 13.6269 15.2401L8.4707 12.1932C8.35352 12.1346 8.37695 12.0291 8.45898 11.9706Z" fill="black" fill-opacity="0.85"/>
</g>
<defs>
<clipPath id="clip0_2207_3338">
<rect width="23.9062" height="23.918" fill="white" transform="translate(0.0566406 0.123047)"/>
</clipPath>
</defs>
</svg>
