<svg width="40" height="23" viewBox="0 0 40 23" fill="none" xmlns="http://www.w3.org/2000/svg">
<g clip-path="url(#clip0_2207_16036)">
<path d="M38.1138 19.4121C38.9575 19.4121 39.6607 18.7324 39.6607 17.9355C39.6607 17.1269 38.9692 16.4589 38.1138 16.4589C37.27 16.4589 36.5786 17.1269 36.5786 17.9355C36.5786 18.7324 37.2818 19.4121 38.1138 19.4121ZM38.1138 14.209C38.688 14.209 39.0982 13.8105 39.1216 13.2128L39.3677 4.91602C39.3911 4.16602 38.8872 3.66211 38.1138 3.66211C37.3521 3.66211 36.8482 4.16602 36.8716 4.91602L37.1177 13.2128C37.1411 13.8105 37.5396 14.209 38.1138 14.209Z" fill="black" fill-opacity="0.85"/>
<path d="M16.7857 22.9746C23.0318 22.9746 28.2232 17.7949 28.2232 11.5488C28.2232 5.30274 23.0318 0.123047 16.7739 0.123047C10.5278 0.123047 5.35987 5.29102 5.35987 11.5488C5.35987 17.7949 10.5396 22.9746 16.7857 22.9746ZM16.7857 20.9824C11.5591 20.9824 7.36377 16.7871 7.36377 11.5488C7.36377 6.29883 11.5474 2.10352 16.7739 2.10352C22.0122 2.10352 26.2192 6.29883 26.231 11.5488C26.2427 16.7753 22.0357 20.9824 16.7857 20.9824ZM0.0629883 11.5488C0.0629883 15.2636 1.27002 18.6738 3.30908 21.4511C3.67237 21.955 4.29346 22.0019 4.76221 21.6269C5.18408 21.2636 5.24268 20.7011 4.90283 20.2324C3.12158 17.8066 2.0669 14.7949 2.0669 11.5488C2.0669 8.29102 3.12158 5.29102 4.90283 2.8418C5.24268 2.39649 5.1958 1.82227 4.76221 1.45899C4.29346 1.08398 3.67237 1.14258 3.30908 1.63477C1.27002 4.41211 0.0629883 7.83399 0.0629883 11.5488ZM33.5083 11.5488C33.5083 7.83399 32.313 4.41211 30.2622 1.63477C29.8989 1.14258 29.2778 1.08398 28.8091 1.45899C28.3755 1.82227 28.3403 2.39649 28.6685 2.8418C30.4614 5.29102 31.5044 8.29102 31.5044 11.5488C31.5044 14.7949 30.4614 17.8066 28.6685 20.2324C28.3403 20.7011 28.3872 21.2636 28.8091 21.6269C29.2778 22.0019 29.8989 21.955 30.2622 21.4511C32.313 18.6738 33.5083 15.2636 33.5083 11.5488ZM9.20361 11.5488C9.20361 13.6816 10.5513 15.1113 12.5669 15.1113C13.6333 15.1113 14.5357 14.6542 15.5083 13.7285L16.7974 12.498L18.0747 13.7285C19.0825 14.6777 19.9614 15.1113 21.0161 15.1113C23.0318 15.1113 24.3911 13.6816 24.3911 11.5488C24.3911 9.41602 23.0318 7.98633 21.0161 7.98633C19.9614 7.98633 19.0708 8.40821 18.0747 9.36914L16.7974 10.5996L15.5083 9.36914C14.5474 8.44336 13.645 7.98633 12.5669 7.98633C10.5513 7.98633 9.20361 9.41602 9.20361 11.5488ZM10.5864 11.5488C10.5864 10.2246 11.3716 9.35743 12.5669 9.35743C13.2114 9.35743 13.7739 9.65039 14.5474 10.3769L15.8013 11.5488L14.5474 12.7207C13.7974 13.4238 13.2232 13.7285 12.5669 13.7285C11.3716 13.7285 10.5864 12.873 10.5864 11.5488ZM17.7818 11.5488L19.0474 10.3769C19.8091 9.65039 20.3833 9.35743 21.0161 9.35743C22.2114 9.35743 23.0083 10.2246 23.0083 11.5488C23.0083 12.8613 22.2114 13.7285 21.0161 13.7285C20.3599 13.7285 19.7857 13.4238 19.0474 12.7207L17.7818 11.5488Z" fill="black" fill-opacity="0.85"/>
</g>
<defs>
<clipPath id="clip0_2207_16036">
<rect width="39.5977" height="22.8633" fill="white" transform="translate(0.0629883 0.123047)"/>
</clipPath>
</defs>
</svg>
