<svg width="25" height="23" viewBox="0 0 25 23" fill="none" xmlns="http://www.w3.org/2000/svg">
<g clip-path="url(#clip0_2207_24530)">
<path d="M16.794 21.6386C17.0518 21.6386 17.3565 21.5214 17.5557 21.3222L24.4463 14.5605C24.6807 14.3378 24.7979 14.0566 24.7979 13.7753C24.7979 13.4824 24.6807 13.2128 24.4463 12.9902L17.5557 6.22852C17.3565 6.0293 17.0518 5.90039 16.794 5.90039C16.1729 5.90039 15.7627 6.33399 15.7627 6.93164C15.7627 7.23633 15.8565 7.47071 16.044 7.65821L19.419 10.9511L22.3252 13.4238L22.5244 12.8847L18.8916 12.7324H3.93848C2.69629 12.7324 2.15723 12.1933 2.15723 10.916V3.99024C2.15723 2.74805 2.69629 2.20899 3.93848 2.20899H10.501C11.1455 2.20899 11.5674 1.74024 11.5674 1.16602C11.5674 0.591797 11.1455 0.123047 10.501 0.123047H3.93848C1.20801 0.123047 0.0712891 1.25977 0.0712891 3.99024V10.916C0.0712891 13.5644 1.20801 14.8183 3.93848 14.8183H18.8916L22.5244 14.6542L22.3252 14.1152L19.419 16.5996L16.044 19.8925C15.8565 20.08 15.7627 20.3027 15.7627 20.6074C15.7627 21.2168 16.1729 21.6386 16.794 21.6386Z" fill="black" fill-opacity="0.85"/>
</g>
<defs>
<clipPath id="clip0_2207_24530">
<rect width="24.7266" height="22.6523" fill="white" transform="translate(0.0712891 0.123047)"/>
</clipPath>
</defs>
</svg>
