<svg width="25" height="23" viewBox="0 0 25 23" fill="none" xmlns="http://www.w3.org/2000/svg">
<g clip-path="url(#clip0_2207_24526)">
<path d="M8.06153 21.6386C8.69434 21.6386 9.1045 21.2168 9.1045 20.6074C9.1045 20.3027 8.99903 20.08 8.82325 19.8925L5.43653 16.5996L2.542 14.1152L2.33106 14.6542L5.96387 14.8183H20.9287C23.6591 14.8183 24.7959 13.5644 24.7959 10.916V3.99024C24.7959 1.25977 23.6591 0.123047 20.9287 0.123047H14.3662C13.7216 0.123047 13.2998 0.591797 13.2998 1.16602C13.2998 1.74024 13.7216 2.20899 14.3662 2.20899H20.9287C22.1709 2.20899 22.6982 2.74805 22.6982 3.99024V10.916C22.6982 12.1933 22.1709 12.7324 20.9287 12.7324H5.96387L2.33106 12.8847L2.542 13.4238L5.43653 10.9511L8.82325 7.65821C8.99903 7.47071 9.1045 7.23633 9.1045 6.93164C9.1045 6.33399 8.69434 5.90039 8.06153 5.90039C7.81543 5.90039 7.51075 6.0293 7.31153 6.22852L0.420898 12.9902C0.186524 13.2128 0.0693359 13.4824 0.0693359 13.7753C0.0693359 14.0566 0.186524 14.3378 0.420898 14.5605L7.31153 21.3222C7.51075 21.5214 7.81543 21.6386 8.06153 21.6386Z" fill="black" fill-opacity="0.85"/>
</g>
<defs>
<clipPath id="clip0_2207_24526">
<rect width="24.7266" height="22.6523" fill="white" transform="translate(0.0693359 0.123047)"/>
</clipPath>
</defs>
</svg>
