<svg width="19" height="25" viewBox="0 0 19 25" fill="none" xmlns="http://www.w3.org/2000/svg">
<g clip-path="url(#clip0_2207_8080)">
<path d="M9.19287 24.123C9.8374 24.123 10.1538 23.6894 10.8218 22.7988L17.8179 13.4589C18.1343 13.0253 18.3218 12.5918 18.3218 12.123C18.3218 11.6425 18.1343 11.2207 17.8179 10.7871L10.8218 1.43555C10.1538 0.556641 9.8374 0.123047 9.19287 0.123047C8.54834 0.123047 8.23193 0.556641 7.57568 1.43555L0.57959 10.7871C0.251465 11.2207 0.0756836 11.6425 0.0756836 12.123C0.0756836 12.5918 0.251465 13.0253 0.57959 13.4589L7.57568 22.7988C8.23193 23.6894 8.54834 24.123 9.19287 24.123Z" fill="black" fill-opacity="0.85"/>
</g>
<defs>
<clipPath id="clip0_2207_8080">
<rect width="18.2461" height="24.0117" fill="white" transform="translate(0.0756836 0.123047)"/>
</clipPath>
</defs>
</svg>
