<svg width="23" height="25" viewBox="0 0 23 25" fill="none" xmlns="http://www.w3.org/2000/svg">
<g clip-path="url(#clip0_2207_5850)">
<path d="M20.1975 21.5683L21.51 20.2675L11.3498 10.1191L10.0374 11.4316L20.1975 21.5683ZM1.75219 22.166H20.1154C21.51 22.166 22.1428 21.5332 22.1428 20.1386V1.77539C22.1428 0.755859 21.4865 0.123047 20.5022 0.123047C19.8811 0.123047 19.4358 0.404297 18.9787 0.861328L0.826416 19.0136C0.381104 19.4707 0.0881348 19.9042 0.0881348 20.5371C0.0881348 21.5214 0.720947 22.166 1.75219 22.166ZM2.76001 20.2558C2.66625 20.2558 2.59594 20.2089 2.59594 20.1269C2.59594 20.0918 2.60766 20.0449 2.67797 19.9863L19.9514 2.70117C20.01 2.64258 20.0569 2.61914 20.1037 2.61914C20.1858 2.61914 20.2209 2.68946 20.2209 2.78321V19.9042C20.2209 20.1738 20.1506 20.2558 19.8693 20.2558H2.76001Z" fill="black" fill-opacity="0.85"/>
</g>
<defs>
<clipPath id="clip0_2207_5850">
<rect width="22.0547" height="24.4805" fill="white" transform="translate(0.0881348 0.123047)"/>
</clipPath>
</defs>
</svg>
