<svg width="30" height="18" viewBox="0 0 30 18" fill="none" xmlns="http://www.w3.org/2000/svg">
<g clip-path="url(#clip0_2207_17500)">
<path d="M2.15786 17.6909C2.97817 17.6909 3.21254 17.269 3.30629 16.73C4.36098 10.894 6.78676 6.12451 11.943 0.874512C12.236 0.569824 12.0016 0.147949 11.65 0.147949H11.1227C10.8297 0.147949 10.5954 0.206543 10.1735 0.546387C6.00161 3.83935 1.68911 9.01904 0.0367596 16.6362C-0.0921466 17.187 0.130509 17.6909 0.857072 17.6909H2.15786ZM28.7946 17.6909C29.4508 17.6909 29.7086 17.2222 29.4977 16.6362C27.5524 11.4683 27.1657 6.58154 28.4782 0.839356C28.5836 0.370606 28.3024 0.147949 27.9391 0.147949H27.4821C27.0954 0.147949 26.8493 0.276856 26.7321 0.640137C24.9508 6.10107 25.0446 11.6323 26.4039 16.9995C26.4977 17.4097 26.7789 17.6909 27.3766 17.6909H28.7946ZM18.0719 3.19482C18.5172 3.19482 18.7516 3.08935 18.9508 2.72607C19.1735 2.32763 19.5016 1.76513 20.0875 0.874512C20.3454 0.487793 20.0875 0.147949 19.6891 0.147949H19.3375C19.0094 0.147949 18.8336 0.206543 18.6344 0.417481C18.2243 0.839356 17.6969 1.4956 17.1813 2.26904C16.8883 2.70263 17.0875 3.19482 17.6149 3.19482H18.0719ZM15.8922 8.93701C16.3961 8.93701 16.6188 8.69092 16.736 8.26904C16.8532 7.72998 17.0641 6.97998 17.3219 6.20654C17.5211 5.65576 17.2047 5.39795 16.7594 5.39795H16.0446C15.5993 5.39795 15.4118 5.53857 15.2243 5.91357C14.9782 6.48779 14.6618 7.29639 14.3688 8.1167C14.2282 8.56201 14.3922 8.93701 14.9547 8.93701H15.8922ZM14.7204 17.6909C15.2477 17.6909 15.5407 17.4331 15.5407 16.8706C15.5758 15.0659 15.693 13.3433 15.8454 12.1714C15.9391 11.4917 15.6813 11.2925 15.1305 11.2925H14.4274C14.0055 11.2925 13.7008 11.4683 13.5836 11.937C13.2555 13.2378 13.0563 15.2768 13.0094 16.8589C12.9977 17.4097 13.2672 17.6909 13.7946 17.6909H14.7204Z" fill="black" fill-opacity="0.85"/>
</g>
<defs>
<clipPath id="clip0_2207_17500">
<rect width="29.5675" height="17.5664" fill="white" transform="translate(0.00219727 0.124512)"/>
</clipPath>
</defs>
</svg>
