<svg width="34" height="18" viewBox="0 0 34 18" fill="none" xmlns="http://www.w3.org/2000/svg">
<g clip-path="url(#clip0_2207_17492)">
<path d="M1.05972 17.6894H2.58315C3.28628 17.6894 3.63784 17.3496 3.83706 16.8457C5.98159 11.5253 8.14956 6.19336 10.3058 0.873047C10.4698 0.486328 10.2823 0.146484 9.87221 0.146484H9.1105C8.70034 0.146484 8.44253 0.345703 8.26675 0.697266C5.58315 5.92383 2.923 11.1503 0.239405 16.3886C-0.0887202 16.9863 0.145655 17.6894 1.05972 17.6894ZM31.3878 17.6894H32.923C33.8253 17.6894 34.0597 16.9863 33.7316 16.3886C31.0714 11.1503 28.3878 5.92383 25.7159 0.697266C25.5284 0.345703 25.2706 0.146484 24.8605 0.146484H24.0987C23.6886 0.146484 23.5128 0.486328 23.6652 0.873047C25.8214 6.19336 27.9894 11.5253 30.1339 16.8457C30.3331 17.3496 30.6847 17.6894 31.3878 17.6894ZM16.7159 3.34571H17.2316C17.712 3.34571 18.087 2.98243 18.087 2.49024C18.087 1.99805 18.087 1.49414 18.087 1.00195C18.087 0.509766 17.712 0.146484 17.2316 0.146484H16.7159C16.2355 0.146484 15.8605 0.509766 15.8605 1.00195C15.8605 1.49414 15.8605 1.99805 15.8605 2.49024C15.8605 2.98243 16.2355 3.34571 16.7159 3.34571ZM16.7159 10.0254H17.2316C17.712 10.0254 18.087 9.67383 18.087 9.18164C18.087 8.36133 18.087 7.51758 18.087 6.69727C18.087 6.20508 17.712 5.85352 17.2316 5.85352H16.7159C16.2355 5.85352 15.8605 6.20508 15.8605 6.69727C15.8605 7.51758 15.8605 8.36133 15.8605 9.18164C15.8605 9.67383 16.2355 10.0254 16.7159 10.0254ZM16.7159 17.6894H17.2316C17.712 17.6894 18.087 17.3261 18.087 16.8339C18.087 15.7207 18.087 14.5957 18.087 13.4707C18.087 12.9785 17.712 12.6269 17.2316 12.6269H16.7159C16.2355 12.6269 15.8605 12.9785 15.8605 13.4707C15.8605 14.5957 15.8605 15.7207 15.8605 16.8339C15.8605 17.3261 16.2355 17.6894 16.7159 17.6894Z" fill="black" fill-opacity="0.85"/>
</g>
<defs>
<clipPath id="clip0_2207_17492">
<rect width="33.774" height="17.5664" fill="white" transform="translate(0.0986328 0.123047)"/>
</clipPath>
</defs>
</svg>
