<svg width="25" height="25" viewBox="0 0 25 25" fill="none" xmlns="http://www.w3.org/2000/svg">
<g clip-path="url(#clip0_2207_11825)">
<path d="M4.03003 6.96827H23.0964C23.5886 6.96827 23.9402 6.61671 23.9402 6.12452V4.1089C23.9402 3.62843 23.5886 3.26514 23.0964 3.26514H4.03003C3.53784 3.26514 3.17456 3.62843 3.17456 4.1089V6.12452C3.17456 6.61671 3.53784 6.96827 4.03003 6.96827ZM5.15503 12.0307H21.9597C22.4519 12.0307 22.8152 11.6675 22.8152 11.187V8.56202H4.31128V11.187C4.31128 11.6675 4.66284 12.0307 5.15503 12.0307Z" fill="black" fill-opacity="0.85"/>
<path d="M0.010498 1.06201C0.010498 1.57763 0.444092 2.01123 0.959717 2.01123H23.9402C24.4558 2.01123 24.8894 1.57763 24.8894 1.06201C24.8894 0.546387 24.4558 0.124512 23.9402 0.124512H0.959717C0.444092 0.124512 0.010498 0.546387 0.010498 1.06201ZM0.959717 4.72998C1.39331 4.72998 1.75659 4.3667 1.75659 3.9331C1.75659 3.48779 1.39331 3.13623 0.959717 3.13623C0.514404 3.13623 0.151123 3.48779 0.151123 3.9331C0.151123 4.3667 0.514404 4.72998 0.959717 4.72998ZM0.959717 7.44873C1.39331 7.44873 1.75659 7.07373 1.75659 6.64013C1.75659 6.20654 1.39331 5.84326 0.959717 5.84326C0.514404 5.84326 0.151123 6.20654 0.151123 6.64013C0.151123 7.07373 0.514404 7.44873 0.959717 7.44873ZM0.959717 10.1557C1.39331 10.1557 1.75659 9.79248 1.75659 9.35889C1.75659 8.91357 1.39331 8.56201 0.959717 8.56201C0.514404 8.56201 0.151123 8.91357 0.151123 9.35889C0.151123 9.79248 0.514404 10.1557 0.959717 10.1557ZM0.959717 12.8745C1.39331 12.8745 1.75659 12.4995 1.75659 12.0659C1.75659 11.6323 1.39331 11.269 0.959717 11.269C0.514404 11.269 0.151123 11.6323 0.151123 12.0659C0.151123 12.4995 0.514404 12.8745 0.959717 12.8745ZM0.959717 15.5815C1.39331 15.5815 1.75659 15.2183 1.75659 14.7847C1.75659 14.3393 1.39331 13.9878 0.959717 13.9878C0.514404 13.9878 0.151123 14.3393 0.151123 14.7847C0.151123 15.2183 0.514404 15.5815 0.959717 15.5815ZM0.959717 18.3003C1.39331 18.3003 1.75659 17.9253 1.75659 17.4917C1.75659 17.0581 1.39331 16.6948 0.959717 16.6948C0.514404 16.6948 0.151123 17.0581 0.151123 17.4917C0.151123 17.9253 0.514404 18.3003 0.959717 18.3003ZM0.959717 24.0542C1.46362 24.0542 1.89722 23.6323 1.89722 23.1167V20.3511C1.89722 19.8354 1.47534 19.4136 0.959717 19.4136C0.444092 19.4136 0.010498 19.8354 0.010498 20.3511V23.1167C0.010498 23.6323 0.444092 24.0542 0.959717 24.0542Z" fill="black" fill-opacity="0.85"/>
</g>
<defs>
<clipPath id="clip0_2207_11825">
<rect width="24.8789" height="23.9414" fill="white" transform="translate(0.010498 0.124512)"/>
</clipPath>
</defs>
</svg>
