<svg width="24" height="25" viewBox="0 0 24 25" fill="none" xmlns="http://www.w3.org/2000/svg">
<g clip-path="url(#clip0_2207_13013)">
<path d="M7.60303 14.4683C7.56788 13.6948 7.54444 12.8979 7.54444 12.0776C7.54444 6.89795 8.31788 2.70263 9.52491 0.382324C4.146 1.51904 0.0209961 6.3706 0.0209961 12.0776C0.0209961 13.2026 2.97412 14.1167 7.60303 14.4683ZM9.47803 14.562C10.2749 14.5854 11.1069 14.6089 11.9741 14.6089C19.0405 14.6089 23.9272 13.5307 23.9272 12.0776C23.9272 5.53857 18.5015 0.124512 11.9624 0.124512C10.5093 0.124512 9.43116 5.01123 9.43116 12.0776C9.43116 12.9331 9.45459 13.7651 9.47803 14.562ZM7.72022 16.3198C4.49756 16.0268 1.91944 15.3706 0.290527 14.5151C1.25147 19.1089 4.93116 22.7886 9.52491 23.7612C8.66944 22.1323 8.01319 19.5425 7.72022 16.3198ZM9.57178 16.437C9.92334 21.0659 10.8257 24.019 11.9624 24.0307C17.6812 24.0307 22.5327 19.894 23.6577 14.5151C21.3491 15.7222 17.1538 16.4956 11.9741 16.4956C11.1421 16.4956 10.3452 16.4722 9.57178 16.437Z" fill="black" fill-opacity="0.85"/>
</g>
<defs>
<clipPath id="clip0_2207_13013">
<rect width="23.9062" height="23.918" fill="white" transform="translate(0.0209961 0.124512)"/>
</clipPath>
</defs>
</svg>
