<svg width="31" height="22" viewBox="0 0 31 22" fill="none" xmlns="http://www.w3.org/2000/svg">
<g clip-path="url(#clip0_2207_21126)">
<path d="M0.0335693 11.998C0.0335693 14.5058 0.443725 15.6543 2.30701 16.6152L8.90466 20.0019C11.3305 21.2558 13.0648 21.5722 15.7836 20.7754L25.932 17.8222C29.0609 16.8965 30.3617 15.0332 30.3617 11.998V4.68555C30.3617 2.56445 28.9555 1.12305 26.8461 1.12305L3.57263 1.11133C1.46326 1.11133 0.0335693 2.54102 0.0335693 4.65039V11.998Z" fill="black" fill-opacity="0.85"/>
<path d="M6.44373 14.7754C5.88123 14.7754 5.57654 14.4121 5.57654 13.873V6.11523C5.57654 5.56445 5.88123 5.23633 6.43201 5.23633H8.40076C10.2055 5.23633 11.3305 6.24414 11.3305 8.13086C11.3305 9.18555 10.932 10.205 9.99451 10.6855L11.0961 13.3105C11.2133 13.58 11.2836 13.8144 11.2836 13.955C11.2836 14.5527 10.8734 14.7754 10.4867 14.7754C10.0179 14.7754 9.76013 14.5175 9.59607 14.0722L8.38904 11.0371H7.28748V13.873C7.28748 14.4238 6.95935 14.7754 6.44373 14.7754ZM7.28748 9.79492H8.24841C9.18591 9.79492 9.60779 9.10352 9.60779 8.17773C9.60779 7.24023 9.13904 6.5957 8.24841 6.5957H7.28748V9.79492ZM15.5024 14.834C14.1781 14.834 13.0766 14.2011 12.725 12.9707C12.6664 12.7715 12.6547 12.7011 12.6547 12.4902C12.6547 12.0566 12.9477 11.7285 13.393 11.7285C13.768 11.7285 14.0727 11.9043 14.1664 12.3027C14.307 12.9472 14.7641 13.4511 15.5258 13.4511C16.2875 13.4511 16.7563 12.9238 16.7563 12.1855C16.7563 11.33 16.1703 10.955 15.3969 10.6621L14.7524 10.416C13.5688 9.94727 12.6898 9.17383 12.6898 7.70898C12.6898 6.0332 13.85 5.00195 15.4555 5.00195C16.7445 5.00195 17.7992 5.68164 18.1508 6.91211C18.1977 7.14648 18.1977 7.25195 18.1977 7.3457C18.1977 7.76758 17.9164 8.06055 17.4711 8.06055C17.0961 8.06055 16.8148 7.9082 16.6977 7.50977C16.557 6.90039 16.182 6.38477 15.4555 6.38477C14.7758 6.38477 14.3539 6.87695 14.3539 7.58008C14.3539 8.38867 14.893 8.78711 15.643 9.08008L16.2992 9.31445C17.6586 9.8418 18.4203 10.5449 18.4203 12.0332C18.4203 13.8144 17.307 14.834 15.5024 14.834ZM20.7172 14.6347C20.1781 14.6347 19.8734 14.2832 19.8734 13.7441V6.12695C19.8734 5.62305 20.1664 5.22461 20.7172 5.22461H23.1195C24.4789 5.22461 25.475 6.0918 25.475 7.58008C25.475 8.49414 24.8774 9.47852 23.9867 9.63086V9.68945C25.0883 9.80664 25.7797 10.8379 25.7797 11.9746C25.7797 13.5449 24.8188 14.6347 23.1781 14.6347H20.7172ZM21.5492 9.2207H22.4984C23.3539 9.2207 23.8461 8.69336 23.8461 7.83789C23.8461 7.08789 23.4945 6.52539 22.6274 6.52539H21.5492V9.2207ZM21.5492 13.3457H22.6625C23.6 13.3457 24.0688 12.7715 24.0688 11.834C24.0688 10.8144 23.4711 10.3574 22.6274 10.3574H21.5492V13.3457Z" fill="white"/>
</g>
<defs>
<clipPath id="clip0_2207_21126">
<rect width="30.3281" height="21.0873" fill="white" transform="translate(0.0335693 0.124512)"/>
</clipPath>
</defs>
</svg>
