<svg width="28" height="21" viewBox="0 0 28 21" fill="none" xmlns="http://www.w3.org/2000/svg">
<g clip-path="url(#clip0_2207_20926)">
<path d="M9.86987 0.124512C3.073 0.124512 0.0378418 3.25342 0.0378418 9.65185V16.9995C0.0378418 19.3667 1.25659 20.562 3.6355 20.562H23.4753C25.8542 20.562 27.073 19.355 27.073 16.9995V9.65185C27.073 3.25342 24.0378 0.124512 17.2409 0.124512H9.86987Z" fill="black" fill-opacity="0.85"/>
<path d="M8.29956 15.2065C7.73706 15.2065 7.42065 14.8433 7.42065 14.3042V6.54639C7.42065 5.9956 7.72534 5.66748 8.28784 5.66748H10.2448C12.0612 5.66748 13.198 6.67529 13.198 8.56201C13.198 9.6167 12.7878 10.6245 11.8503 11.1167L12.9519 13.73C13.0573 13.9995 13.1276 14.2456 13.1276 14.3745C13.1276 14.9722 12.7175 15.2065 12.3425 15.2065C11.862 15.2065 11.6159 14.9487 11.4401 14.5034L10.2331 11.4683H9.14331V14.3042C9.14331 14.855 8.8269 15.2065 8.29956 15.2065ZM9.14331 10.2026H10.0925C11.0417 10.2026 11.4636 9.52295 11.4636 8.59717C11.4636 7.67139 10.9831 7.01513 10.0925 7.01513H9.14331V10.2026ZM17.1472 15.1948C16.6784 15.1948 16.3034 14.8081 16.3034 14.3393V7.06201H14.8503C14.4519 7.06201 14.1472 6.7456 14.1472 6.34717C14.1472 5.96045 14.4519 5.65576 14.8503 5.65576H19.4089C19.7956 5.65576 20.1003 5.96045 20.1003 6.34717C20.1003 6.7456 19.7956 7.06201 19.4089 7.06201H18.0026V14.3393C18.0026 14.8081 17.6159 15.1948 17.1472 15.1948Z" fill="white"/>
</g>
<defs>
<clipPath id="clip0_2207_20926">
<rect width="27.0352" height="20.4492" fill="white" transform="translate(0.0378418 0.124512)"/>
</clipPath>
</defs>
</svg>
