<svg width="24" height="25" viewBox="0 0 24 25" fill="none" xmlns="http://www.w3.org/2000/svg">
<g clip-path="url(#clip0_2207_20750)">
<path d="M11.9951 24.0307C18.5342 24.0307 23.9482 18.605 23.9482 12.0776C23.9482 5.53857 18.5225 0.124512 11.9834 0.124512C5.45605 0.124512 0.0419922 5.53857 0.0419922 12.0776C0.0419922 18.605 5.46777 24.0307 11.9951 24.0307Z" fill="black" fill-opacity="0.85"/>
<path d="M6.78028 16.8823C6.2295 16.8823 5.91309 16.5307 5.91309 15.9917V8.32763C5.91309 7.77685 6.21778 7.44873 6.76856 7.44873H8.70216C10.4951 7.44873 11.6201 8.44482 11.6201 10.3198C11.6201 11.3628 11.2217 12.3589 10.2959 12.8393L11.3858 15.4292C11.4912 15.6987 11.5615 15.9331 11.5615 16.062C11.5615 16.6479 11.1514 16.8823 10.7764 16.8823C10.3076 16.8823 10.0615 16.6245 9.89747 16.1909L8.69044 13.1792H7.61231V15.9917C7.61231 16.5425 7.29591 16.8823 6.78028 16.8823ZM7.61231 11.937H8.56153C9.48731 11.937 9.90919 11.269 9.90919 10.355C9.90919 9.44092 9.44044 8.78467 8.56153 8.78467H7.61231V11.937ZM15.5342 16.8706C15.0772 16.8706 14.7022 16.4956 14.7022 16.0151V8.83154H13.2608C12.874 8.83154 12.5576 8.51513 12.5576 8.12842C12.5576 7.7417 12.874 7.43701 13.2608 7.43701H17.7725C18.1475 7.43701 18.4522 7.7417 18.4522 8.12842C18.4522 8.51513 18.1475 8.83154 17.7725 8.83154H16.3779V16.0151C16.3779 16.4956 16.0029 16.8706 15.5342 16.8706Z" fill="white"/>
</g>
<defs>
<clipPath id="clip0_2207_20750">
<rect width="23.9062" height="23.918" fill="white" transform="translate(0.0419922 0.124512)"/>
</clipPath>
</defs>
</svg>
