<svg width="24" height="25" viewBox="0 0 24 25" fill="none" xmlns="http://www.w3.org/2000/svg">
<g clip-path="url(#clip0_2207_25523)">
<path d="M12.0014 24.0307C18.5405 24.0307 23.9545 18.605 23.9545 12.0776C23.9545 5.53857 18.5288 0.124512 11.9897 0.124512C5.4624 0.124512 0.0483398 5.53857 0.0483398 12.0776C0.0483398 18.605 5.47412 24.0307 12.0014 24.0307Z" fill="black" fill-opacity="0.85"/>
<path d="M9.9624 18.1245C9.49365 18.1245 9.15381 17.7964 9.15381 17.3276V16.1089H8.09912C7.74756 16.1089 7.50146 15.8628 7.50146 15.5112C7.50146 15.1714 7.74756 14.9136 8.09912 14.9136H9.15381V13.7417H8.0874C7.72412 13.7417 7.48975 13.4722 7.48975 13.1323C7.48975 12.7925 7.72412 12.5347 8.0874 12.5347H9.15381V7.34326C9.15381 6.86279 9.47022 6.53467 9.95068 6.53467H12.81C15.0717 6.53467 16.4897 8.0581 16.4897 10.1323C16.4897 12.23 15.06 13.73 12.7983 13.73H10.7358V14.9136H13.56C13.9116 14.9136 14.146 15.1714 14.146 15.5112C14.146 15.8628 13.9116 16.1089 13.56 16.1089H10.7358V17.3276C10.7358 17.7964 10.4194 18.1245 9.9624 18.1245ZM10.7475 12.312L12.5288 12.3354C14.0874 12.3354 14.896 11.4917 14.896 10.144C14.896 8.81982 14.0991 7.98779 12.5288 7.98779H10.7475V12.312Z" fill="white"/>
</g>
<defs>
<clipPath id="clip0_2207_25523">
<rect width="23.9062" height="23.918" fill="white" transform="translate(0.0483398 0.124512)"/>
</clipPath>
</defs>
</svg>
