<svg width="24" height="25" viewBox="0 0 24 25" fill="none" xmlns="http://www.w3.org/2000/svg">
<g clip-path="url(#clip0_2207_26022)">
<path d="M12.0141 24.0307C18.5532 24.0307 23.9672 18.605 23.9672 12.0776C23.9672 5.53857 18.5415 0.124512 12.0024 0.124512C5.47509 0.124512 0.0610352 5.53857 0.0610352 12.0776C0.0610352 18.605 5.48682 24.0307 12.0141 24.0307ZM12.0141 22.0386C6.48292 22.0386 2.06495 17.6089 2.06495 12.0776C2.06495 6.54639 6.47119 2.1167 12.0024 2.1167C17.5337 2.1167 21.9751 6.54639 21.9751 12.0776C21.9751 17.6089 17.5454 22.0386 12.0141 22.0386Z" fill="black" fill-opacity="0.85"/>
<path d="M8.4165 17.9253C8.81494 17.9253 9.09619 17.644 9.09619 17.1753V13.2026H9.63525L11.0883 17.4448C11.2172 17.8081 11.4399 17.9253 11.7446 17.9253C12.1196 17.9253 12.3891 17.6323 12.3891 17.2456C12.3891 17.0933 12.3657 16.9761 12.2954 16.8003L10.936 12.9214C11.8735 12.4409 12.4008 11.2339 12.4008 9.83936C12.4008 7.63624 11.5337 6.55811 9.82275 6.55811H8.43994C8.02978 6.55811 7.76025 6.85108 7.76025 7.33155V17.1401C7.76025 17.6206 8.01806 17.9253 8.4165 17.9253ZM9.09619 11.8667V7.90577H9.729C10.6313 7.90577 11.0415 8.57374 11.0415 9.87452C11.0415 11.1987 10.6313 11.8667 9.69384 11.8667H9.09619ZM14.9204 17.937C16.2212 17.937 17.0766 16.9995 17.0766 15.5464C17.0766 14.3745 16.6665 13.6831 15.5298 13.062L15.0844 12.8159C14.4633 12.4761 14.2055 12.1362 14.2055 11.5737C14.2055 10.9409 14.4516 10.5659 14.9087 10.5659C15.4594 10.5659 15.6118 10.9643 15.6821 11.7261C15.7172 12.1831 15.9165 12.4643 16.3149 12.4643C16.7251 12.4643 16.9594 12.1714 16.9594 11.7026C16.9594 11.5854 16.9477 11.48 16.936 11.3628C16.8188 10.1909 16.1274 9.28858 14.9204 9.28858C13.7016 9.28858 12.8813 10.2143 12.8813 11.6206C12.8813 12.7456 13.3383 13.4956 14.4282 14.0698L14.8969 14.3159C15.4946 14.6206 15.7407 15.019 15.7407 15.6401C15.7407 16.3198 15.4594 16.6831 14.9204 16.6831C14.3696 16.6831 14.1118 16.2378 14.0649 15.5112C14.0298 15.0425 13.7954 14.7729 13.4087 14.7729C13.0102 14.7729 12.7758 15.0659 12.7758 15.5347C12.7758 15.6753 12.7758 15.8042 12.7993 15.9331C12.9399 17.1284 13.7016 17.937 14.9204 17.937Z" fill="black" fill-opacity="0.85"/>
</g>
<defs>
<clipPath id="clip0_2207_26022">
<rect width="23.9062" height="23.918" fill="white" transform="translate(0.0610352 0.124512)"/>
</clipPath>
</defs>
</svg>
