<svg width="26" height="22" viewBox="0 0 26 22" fill="none" xmlns="http://www.w3.org/2000/svg">
<g clip-path="url(#clip0_2207_26018)">
<path d="M1.13696 21.9448C1.80493 21.9448 2.22681 21.4995 2.22681 20.8198V13.0737H5.719C5.85962 13.0737 6.02368 13.062 6.16431 13.062L10.7229 21.2417C11.0158 21.769 11.2971 21.9565 11.8127 21.9565C12.4455 21.9565 12.8908 21.5229 12.8908 20.9487C12.8908 20.7026 12.8322 20.48 12.6682 20.1753L8.41431 12.7222C11.1565 11.9487 12.7971 9.7456 12.7971 6.8042C12.7971 3.07763 10.1838 0.69873 6.14087 0.69873H1.17212C0.480713 0.69873 0.0588379 1.14404 0.0588379 1.85889V20.8198C0.0588379 21.5112 0.480713 21.9448 1.13696 21.9448ZM2.22681 11.1401V2.64404H5.85962C8.80103 2.64404 10.5471 4.20263 10.5471 6.87451C10.5471 9.58154 8.85962 11.1401 5.95337 11.1401H2.22681ZM20.2502 21.6987C23.5315 21.6987 25.9221 19.8823 25.9221 17.3042C25.9221 15.1714 24.8205 14.0112 21.8205 13.2847L19.5471 12.7222C17.6604 12.2651 16.8518 11.5268 16.8518 10.355C16.8518 8.91357 18.176 7.89404 20.1447 7.89404C21.8322 7.89404 22.9455 8.66748 23.5432 10.1792C23.7658 10.6362 24.0822 10.8003 24.5158 10.8003C25.0315 10.8003 25.3713 10.4604 25.3713 9.94482C25.3713 9.83935 25.3596 9.71045 25.3361 9.56982C24.926 7.56592 22.8752 6.14795 20.1447 6.14795C16.9924 6.14795 14.7776 7.96435 14.7776 10.4722C14.7776 12.5815 16.1135 13.8589 18.9377 14.5268L21.2111 15.0776C23.133 15.5347 23.8127 16.2261 23.8127 17.4683C23.8127 18.9683 22.4182 19.9526 20.2502 19.9526C18.2111 19.9526 17.0158 19.0737 16.4533 17.5854C16.2541 17.1987 15.9729 16.9409 15.5158 16.9409C14.965 16.9409 14.6252 17.2925 14.6135 17.8081C14.6135 17.937 14.6252 18.0073 14.6486 18.1362C15.0236 20.1401 17.051 21.6987 20.2502 21.6987Z" fill="black" fill-opacity="0.85"/>
</g>
<defs>
<clipPath id="clip0_2207_26018">
<rect width="25.8633" height="21.832" fill="white" transform="translate(0.0588379 0.124512)"/>
</clipPath>
</defs>
</svg>
