<svg width="24" height="25" viewBox="0 0 24 25" fill="none" xmlns="http://www.w3.org/2000/svg">
<g clip-path="url(#clip0_2207_25191)">
<path d="M12.0244 24.0307C18.5635 24.0307 23.9775 18.605 23.9775 12.0776C23.9775 5.53857 18.5518 0.124512 12.0127 0.124512C5.48535 0.124512 0.0712891 5.53857 0.0712891 12.0776C0.0712891 18.605 5.49707 24.0307 12.0244 24.0307Z" fill="black" fill-opacity="0.85"/>
<path d="M11.9072 17.7495C9.7041 17.7495 8.23926 16.6831 7.80567 15.5347C7.7002 15.312 7.66504 15.1128 7.66504 14.9253C7.66504 14.3979 8.00488 14.0581 8.54395 14.0581C8.97754 14.0581 9.23535 14.269 9.45801 14.7143C9.87988 15.6753 10.7588 16.1675 12.0244 16.1675C13.3486 16.1675 14.3682 15.5815 14.3682 14.5151C14.3682 13.6714 13.876 13.3081 12.4463 12.9097L10.6885 12.4057C8.81348 11.8901 7.8291 11.0229 7.8291 9.49951C7.8291 7.56592 9.55176 6.19482 12.0244 6.19482C14.0752 6.19482 15.5283 7.13232 15.9736 8.42139C16.0674 8.63232 16.1025 8.84326 16.1025 8.9956C16.1025 9.5581 15.7393 9.83935 15.2354 9.83935C14.7783 9.83935 14.5205 9.6167 14.3447 9.21826C13.9346 8.21045 13.1729 7.72998 11.9541 7.72998C10.6768 7.72998 9.84473 8.37451 9.84473 9.38232C9.84473 10.1206 10.3252 10.5659 11.4854 10.8706L13.1025 11.3042C15.2236 11.8667 16.3955 12.7573 16.3955 14.3511C16.3955 16.437 14.6143 17.7495 11.9072 17.7495Z" fill="white"/>
</g>
<defs>
<clipPath id="clip0_2207_25191">
<rect width="23.9062" height="23.918" fill="white" transform="translate(0.0712891 0.124512)"/>
</clipPath>
</defs>
</svg>
