<svg width="24" height="25" viewBox="0 0 24 25" fill="none" xmlns="http://www.w3.org/2000/svg">
<g clip-path="url(#clip0_2207_21786)">
<path d="M0.26632 21.0425C-0.343055 23.48 0.688195 24.8862 3.04366 24.8862H20.3171C22.6726 24.8862 23.7038 23.48 23.0945 21.0425L20.5046 10.5776C20.071 8.85498 18.8288 7.85889 17.0827 7.85889H6.27804C4.53194 7.85889 3.27804 8.85498 2.85616 10.5776L0.26632 21.0425ZM10.7312 9.22998H12.6179V5.89013H10.7312V9.22998ZM11.6804 6.8042C13.4968 6.8042 15.032 5.29248 15.032 3.47607C15.032 1.64795 13.4968 0.124512 11.6804 0.124512C9.85226 0.124512 8.32882 1.64795 8.32882 3.47607C8.32882 5.3042 9.86397 6.8042 11.6804 6.8042ZM11.6804 5.17529C10.7546 5.17529 9.96944 4.40185 9.96944 3.47607C9.96944 2.55029 10.7429 1.75342 11.6804 1.75342C12.6062 1.75342 13.3913 2.55029 13.3913 3.47607C13.3913 4.40185 12.6179 5.17529 11.6804 5.17529Z" fill="black" fill-opacity="0.85"/>
</g>
<defs>
<clipPath id="clip0_2207_21786">
<rect width="23.1718" height="24.7852" fill="white" transform="translate(0.0944824 0.124512)"/>
</clipPath>
</defs>
</svg>
