<svg width="24" height="25" viewBox="0 0 24 25" fill="none" xmlns="http://www.w3.org/2000/svg">
<g clip-path="url(#clip0_2207_21782)">
<path d="M0.264123 21.0425C-0.345252 23.48 0.685997 24.8862 3.04146 24.8862H20.3149C22.6704 24.8862 23.7016 23.48 23.0923 21.0425L20.5024 10.5776C20.0688 8.85498 18.8266 7.85889 17.0805 7.85889H6.27584C4.52974 7.85889 3.27584 8.85498 2.85396 10.5776L0.264123 21.0425ZM2.09224 21.1597L4.61177 11.2339C4.86959 10.2261 5.44381 9.7456 6.41646 9.7456H16.9399C17.9126 9.7456 18.4868 10.2261 18.7446 11.2339L21.2641 21.1597C21.5805 22.3667 21.1118 22.9995 20.0688 22.9995H3.27584C2.24459 22.9995 1.77584 22.3667 2.09224 21.1597ZM10.729 9.22998H12.6157V5.89013H10.729V9.22998ZM11.6782 6.8042C13.4946 6.8042 15.0298 5.29248 15.0298 3.47607C15.0298 1.64795 13.4946 0.124512 11.6782 0.124512C9.85007 0.124512 8.32662 1.64795 8.32662 3.47607C8.32662 5.3042 9.86178 6.8042 11.6782 6.8042ZM11.6782 5.17529C10.7524 5.17529 9.96725 4.40185 9.96725 3.47607C9.96725 2.55029 10.7407 1.75342 11.6782 1.75342C12.604 1.75342 13.3891 2.55029 13.3891 3.47607C13.3891 4.40185 12.6157 5.17529 11.6782 5.17529Z" fill="black" fill-opacity="0.85"/>
</g>
<defs>
<clipPath id="clip0_2207_21782">
<rect width="23.1718" height="24.7852" fill="white" transform="translate(0.0922852 0.124512)"/>
</clipPath>
</defs>
</svg>
