<svg width="25" height="24" viewBox="0 0 25 24" fill="none" xmlns="http://www.w3.org/2000/svg">
<g clip-path="url(#clip0_2207_176)">
<path d="M0.533375 15.2047C1.14275 15.8141 2.37322 15.9664 3.32244 15.111C3.63884 14.8297 4.29509 14.1266 5.549 12.8727C11.5373 6.80234 15.4865 2.81797 16.3303 3.57969C17.0099 4.17734 14.9357 7.10703 12.967 9.82578C9.27556 14.9703 6.33416 18.5328 8.51384 20.7125C10.2599 22.4586 12.9787 20.7008 17.1623 17.0328C19.5178 14.9586 21.2873 13.2828 21.8029 13.8102C22.1896 14.1852 21.592 15.1813 20.7131 16.7047C19.5763 18.65 18.1584 20.736 19.5178 22.0953C20.4553 23.0211 22.2717 22.6227 24.5099 20.4313C24.9084 20.0328 25.0021 19.5875 24.6857 19.2711C24.381 18.9781 23.9592 19.025 23.6428 19.318C22.0138 20.9117 20.9474 21.4156 20.6779 21.1344C20.3615 20.8297 20.9357 19.7867 22.131 17.6891C23.6428 15.0406 24.4513 13.3766 23.174 12.1344C21.4631 10.4703 19.4357 12.2516 15.6857 15.5445C12.1584 18.65 11.1271 19.1539 10.6818 18.7203C10.0842 18.111 10.9982 17.0328 14.9474 11.5133C18.6388 6.34531 20.7834 3.12265 18.7795 1.18906C16.049 -1.4711 12.5334 0.62656 2.90056 10.1539C1.62322 11.4195 0.920094 12.0875 0.638844 12.3922C-0.2635 13.3883 -0.0760005 14.5953 0.533375 15.2047Z" fill="black" fill-opacity="0.85"/>
</g>
<defs>
<clipPath id="clip0_2207_176">
<rect width="24.8565" height="23.7473" fill="white" transform="translate(0.0187988 0.125977)"/>
</clipPath>
</defs>
</svg>
