<svg width="27" height="27" viewBox="0 0 27 27" fill="none" xmlns="http://www.w3.org/2000/svg">
<g clip-path="url(#clip0_2207_7859)">
<path d="M6.2389 23.5972H8.77015C9.01624 23.5972 9.19202 23.6675 9.3678 23.8433L11.1725 25.6363C12.649 27.1245 14.0201 27.1128 15.4967 25.6363L17.3014 23.8433C17.4772 23.6675 17.6529 23.5972 17.899 23.5972H20.4303C22.5279 23.5972 23.5006 22.6363 23.5006 20.5269V17.9956C23.5006 17.7495 23.5709 17.5855 23.7467 17.398L25.5279 15.5933C27.0162 14.1167 27.0045 12.7574 25.5279 11.2691L23.7467 9.46436C23.5709 9.28858 23.5006 9.1128 23.5006 8.87843V6.33546C23.5006 4.24952 22.5397 3.26514 20.4303 3.26514H17.899C17.6529 3.26514 17.4772 3.20655 17.3014 3.03077L15.4967 1.2378C14.0201 -0.250484 12.649 -0.238765 11.1725 1.2378L9.3678 3.03077C9.19202 3.20655 9.01624 3.26514 8.77015 3.26514H6.2389C4.14124 3.26514 3.16858 4.22608 3.16858 6.33546V8.87843C3.16858 9.1128 3.10999 9.28858 2.93421 9.46436L1.14124 11.2691C-0.347042 12.7574 -0.335323 14.1167 1.14124 15.5933L2.93421 17.398C3.10999 17.5855 3.16858 17.7495 3.16858 17.9956V20.5269C3.16858 22.6245 4.14124 23.5972 6.2389 23.5972ZM6.2389 21.7339C5.19593 21.7339 5.03187 21.5699 5.03187 20.5269V17.3745C5.03187 17.023 4.9264 16.7534 4.66858 16.4956L2.45374 14.2925C1.71546 13.5425 1.71546 13.3316 2.45374 12.5816L4.66858 10.3784C4.9264 10.1206 5.03187 9.85108 5.03187 9.4878V6.33546C5.03187 5.28077 5.18421 5.12843 6.2389 5.12843H9.39124C9.75452 5.12843 10.0241 5.03468 10.2818 4.76514L12.485 2.5503C13.235 1.81202 13.4459 1.81202 14.1842 2.5503L16.399 4.76514C16.6451 5.03468 16.9264 5.12843 17.2779 5.12843H20.4303C21.4733 5.12843 21.6373 5.29249 21.6373 6.33546V9.4878C21.6373 9.85108 21.7545 10.1206 22.0123 10.3784L24.2272 12.5816C24.9654 13.3316 24.9654 13.5425 24.2272 14.2925L22.0123 16.4956C21.7545 16.7534 21.6373 17.023 21.6373 17.3745V20.5269C21.6373 21.5699 21.4733 21.7339 20.4303 21.7339H17.2779C16.9264 21.7339 16.6451 21.8394 16.399 22.1089L14.1842 24.3238C13.4459 25.062 13.235 25.062 12.485 24.3238L10.2818 22.1089C10.0241 21.8394 9.75452 21.7339 9.39124 21.7339H6.2389Z" fill="black" fill-opacity="0.85"/>
</g>
<defs>
<clipPath id="clip0_2207_7859">
<rect width="26.6104" height="26.6338" fill="white" transform="translate(0.0294189 0.125977)"/>
</clipPath>
</defs>
</svg>
