<svg width="32" height="21" viewBox="0 0 32 21" fill="none" xmlns="http://www.w3.org/2000/svg">
<g clip-path="url(#clip0_2207_13084)">
<path d="M26.7587 18.4307C27.1454 18.8643 27.7899 18.8643 28.2469 18.3721C30.1922 16.251 31.2938 13.4502 31.2938 10.4151C31.2938 7.3799 30.1922 4.5674 28.2469 2.45802C27.7899 1.96583 27.1454 1.95411 26.7587 2.39943C26.3837 2.8213 26.5008 3.37208 26.9344 3.85255C28.5047 5.59865 29.3837 7.89552 29.3837 10.4151C29.3837 12.9346 28.5047 15.2315 26.9344 16.9776C26.5008 17.458 26.3837 18.0088 26.7587 18.4307Z" fill="black" fill-opacity="0.85"/>
<path d="M23.4774 15.0909C23.8641 15.5245 24.5672 15.5363 24.9891 15.0089C26.0087 13.7433 26.5946 12.1378 26.5946 10.4152C26.5946 8.69255 26.0087 7.08708 24.9891 5.82145C24.5672 5.29411 23.8641 5.29411 23.4774 5.73942C23.1024 6.1613 23.2665 6.68864 23.6297 7.19255C24.3329 8.05973 24.6844 9.19645 24.6844 10.4152C24.6844 11.6339 24.3329 12.7589 23.6297 13.6378C23.2665 14.1417 23.1024 14.6691 23.4774 15.0909Z" fill="black" fill-opacity="0.85"/>
<path d="M10.329 20.6924C15.9305 20.6924 20.6063 16.0166 20.6063 10.4151C20.6063 4.80176 15.9188 0.125977 10.3055 0.125977C4.70398 0.125977 0.039917 4.80176 0.039917 10.4151C0.039917 16.0166 4.7157 20.6924 10.329 20.6924ZM10.3055 18.8174C5.62976 18.8174 1.92664 15.0908 1.92664 10.4151C1.92664 5.73926 5.64148 2.0127 10.2938 2.0127C14.9696 2.0127 18.7079 5.73926 18.7079 10.4151C18.7196 15.0908 14.993 18.8174 10.3055 18.8174ZM10.3407 7.33301C11.3485 7.33301 12.1688 6.5127 12.1688 5.50489C12.1688 4.47364 11.3485 3.66504 10.3407 3.66504C9.32117 3.66504 8.48914 4.48536 8.48914 5.50489C8.48914 6.52442 9.32117 7.33301 10.3407 7.33301Z" fill="black" fill-opacity="0.85"/>
</g>
<defs>
<clipPath id="clip0_2207_13084">
<rect width="31.2539" height="20.5898" fill="white" transform="translate(0.039917 0.125977)"/>
</clipPath>
</defs>
</svg>
