<svg width="29" height="21" viewBox="0 0 29 21" fill="none" xmlns="http://www.w3.org/2000/svg">
<g clip-path="url(#clip0_2207_12014)">
<path d="M24.9965 13.4736C25.3129 13.8486 25.8754 13.8486 26.2504 13.4267C27.7153 11.7861 28.5122 9.66497 28.5122 7.34466C28.5122 5.02435 27.7153 2.89153 26.2504 1.25091C25.8872 0.840755 25.3364 0.840755 25.02 1.19232C24.6918 1.5556 24.7739 2.01263 25.1254 2.42279C26.2973 3.75872 26.9067 5.46966 26.9067 7.34466C26.9067 9.20794 26.2973 10.9306 25.1254 12.2548C24.7739 12.665 24.6918 13.1103 24.9965 13.4736Z" fill="black" fill-opacity="0.85"/>
<path d="M22.313 10.9422C22.6295 11.3055 23.2271 11.3289 23.5787 10.8602C24.3287 9.87576 24.774 8.65701 24.774 7.34451C24.774 6.03201 24.3287 4.80154 23.5787 3.82888C23.2271 3.36014 22.6412 3.37185 22.3248 3.73514C21.9849 4.0867 22.1138 4.52029 22.4185 4.94217C22.9224 5.65701 23.1685 6.4656 23.1685 7.34451C23.1685 8.2117 22.9224 9.03201 22.4185 9.74685C22.1255 10.157 21.9849 10.5906 22.313 10.9422Z" fill="black" fill-opacity="0.85"/>
<path d="M3.71533 20.4463H16.3598C18.8208 20.4463 20.0395 19.2276 20.0395 16.8135V3.75879C20.0395 1.34473 18.8208 0.125977 16.3598 0.125977H3.71533C1.26611 0.125977 0.0356445 1.33301 0.0356445 3.75879V16.8135C0.0356445 19.2276 1.26611 20.4463 3.71533 20.4463ZM3.73876 18.5596C2.56689 18.5596 1.92236 17.9268 1.92236 16.708V3.85254C1.92236 2.64551 2.56689 2.0127 3.73876 2.0127H16.3364C17.4848 2.0127 18.1528 2.64551 18.1528 3.85254V16.708C18.1528 17.9268 17.4848 18.5596 16.3364 18.5596H3.73876ZM9.49267 10.8252C9.89112 10.8252 10.2075 10.5205 10.2075 10.1221V4.5791C10.2075 4.18067 9.89112 3.87598 9.49267 3.87598C9.09423 3.87598 8.78955 4.18067 8.78955 4.5791V10.1221C8.78955 10.5205 9.09423 10.8252 9.49267 10.8252ZM12.4692 10.8252C12.8676 10.8252 13.184 10.5205 13.184 10.1221V4.5791C13.184 4.18067 12.8676 3.87598 12.4692 3.87598C12.0708 3.87598 11.7661 4.18067 11.7661 4.5791V10.1221C11.7661 10.5205 12.0708 10.8252 12.4692 10.8252ZM15.4575 10.8252C15.8559 10.8252 16.1606 10.5205 16.1606 10.1221V4.5791C16.1606 4.18067 15.8559 3.87598 15.4575 3.87598C15.059 3.87598 14.7426 4.18067 14.7426 4.5791V10.1221C14.7426 10.5205 15.059 10.8252 15.4575 10.8252Z" fill="black" fill-opacity="0.85"/>
</g>
<defs>
<clipPath id="clip0_2207_12014">
<rect width="28.4766" height="20.332" fill="white" transform="translate(0.0356445 0.125977)"/>
</clipPath>
</defs>
</svg>
