<svg width="29" height="23" viewBox="0 0 29 23" fill="none" xmlns="http://www.w3.org/2000/svg">
<g clip-path="url(#clip0_2207_1971)">
<path d="M1.72412 17.5634H4.09131C5.20459 17.5634 5.76709 17.0126 5.76709 15.9111V13.4853C5.76709 12.3954 5.20459 11.8447 4.09131 11.8447H1.72412C0.61084 11.8447 0.0483398 12.3837 0.0483398 13.4853V15.9111C0.0483398 17.0126 0.61084 17.5634 1.72412 17.5634Z" fill="black" fill-opacity="0.85"/>
<path d="M4.84131 9.10254H13.3491C14.4741 9.10254 15.0366 8.56348 15.0366 7.46192V1.7666C15.0366 0.676758 14.4741 0.125977 13.3491 0.125977H4.84131C3.72803 0.125977 3.16553 0.676758 3.16553 1.7666V7.46192C3.16553 8.56348 3.72803 9.10254 4.84131 9.10254Z" fill="black" fill-opacity="0.85"/>
<path d="M23.8256 15.3369H27.2827C28.4077 15.3369 28.9702 14.7862 28.9702 13.6963V6.86425C28.9702 5.77441 28.4077 5.22363 27.2827 5.22363H23.8256C22.7124 5.22363 22.1499 5.77441 22.1499 6.86425V13.6963C22.1499 14.7862 22.7124 15.3369 23.8256 15.3369Z" fill="black" fill-opacity="0.85"/>
<path d="M15.4116 14.9971C18.3764 14.9971 20.8725 12.4072 20.8725 9.12598C20.8725 5.84473 18.3295 3.38379 15.4116 3.38379C12.4819 3.38379 9.95068 5.8916 9.95068 9.14942C9.95068 12.4072 12.4467 14.9971 15.4116 14.9971Z" fill="white"/>
<path d="M15.4116 13.3916C17.4741 13.3916 19.2671 11.5401 19.2671 9.12598C19.2671 6.74707 17.4741 4.97754 15.4116 4.97754C13.3491 4.97754 11.5444 6.78223 11.5444 9.14942C11.5444 11.5401 13.3491 13.3916 15.4116 13.3916ZM8.93115 22.333H21.8803C22.9116 22.333 23.5327 21.8526 23.5327 21.0557C23.5327 18.5596 20.4155 15.1143 15.4116 15.1143C10.396 15.1143 7.27881 18.5596 7.27881 21.0557C7.27881 21.8526 7.8999 22.333 8.93115 22.333Z" fill="black" fill-opacity="0.85"/>
</g>
<defs>
<clipPath id="clip0_2207_1971">
<rect width="28.9219" height="22.2305" fill="white" transform="translate(0.0483398 0.125977)"/>
</clipPath>
</defs>
</svg>
