<svg width="36" height="21" viewBox="0 0 36 21" fill="none" xmlns="http://www.w3.org/2000/svg">
<g clip-path="url(#clip0_2207_1942)">
<path d="M1.00586 19.8604C1.52148 19.8604 1.94336 19.4502 1.94336 18.9229C1.94336 9.60645 8.92773 2.0127 17.5293 2.0127C26.1191 2.0127 33.1269 9.60645 33.1269 18.9229C33.1269 19.4502 33.5371 19.8604 34.0527 19.8604C34.58 19.8604 35.0136 19.4502 35.0136 18.9229C35.0136 8.5752 27.1504 0.125977 17.5293 0.125977C7.89648 0.125977 0.0566406 8.5752 0.0566406 18.9229C0.0566406 19.4502 0.478516 19.8604 1.00586 19.8604Z" fill="black" fill-opacity="0.85"/>
<path d="M6.44336 19.8604C6.95898 19.8604 7.39258 19.4502 7.39258 18.9346C7.39258 13.2041 11.5527 8.12989 17.5058 8.12989C23.5293 8.12989 27.6777 13.2041 27.6777 18.9346C27.6777 19.4502 28.123 19.8604 28.6386 19.8604C29.1543 19.8604 29.5878 19.4502 29.5878 18.9346C29.5878 12.208 24.5254 6.23145 17.5058 6.23145C10.5449 6.23145 5.49414 12.208 5.49414 18.9346C5.49414 19.4502 5.91602 19.8604 6.44336 19.8604Z" fill="black" fill-opacity="0.85"/>
<path d="M17.5411 13.5908C20.3653 13.5908 22.7676 11.1299 22.7676 8.00098C22.7676 4.88379 20.3184 2.5166 17.5411 2.5166C14.7286 2.5166 12.3145 4.93067 12.3145 8.02442C12.3145 11.1299 14.6934 13.5908 17.5411 13.5908Z" fill="white"/>
<path d="M17.541 11.9854C19.4746 11.9854 21.1621 10.251 21.1621 8.00097C21.1621 5.77441 19.4511 4.11035 17.541 4.11035C15.5957 4.11035 13.9199 5.80956 13.9199 8.02441C13.9199 10.251 15.5957 11.9854 17.541 11.9854ZM11.623 20.1416H23.4355C24.4199 20.1416 25.041 19.6729 25.041 18.8877C25.041 16.544 22.1464 13.3682 17.541 13.3682C12.9121 13.3682 10.0293 16.544 10.0293 18.8877C10.0293 19.6729 10.6269 20.1416 11.623 20.1416Z" fill="black" fill-opacity="0.85"/>
</g>
<defs>
<clipPath id="clip0_2207_1942">
<rect width="34.957" height="20.6367" fill="white" transform="translate(0.0566406 0.125977)"/>
</clipPath>
</defs>
</svg>
