<svg width="20" height="22" viewBox="0 0 20 22" fill="none" xmlns="http://www.w3.org/2000/svg">
<g clip-path="url(#clip0_2207_25970)">
<path d="M0.0651855 20.9854C0.0651855 21.5362 0.510498 21.9815 1.06128 21.9815C1.62378 21.9815 2.0691 21.5362 2.0691 20.9854V2.90332H7.41285C10.1902 2.90332 11.409 3.71192 11.409 6.74707V14.7744C11.409 15.3252 11.866 15.7705 12.4168 15.7705C12.9675 15.7705 13.4129 15.3252 13.4129 14.7744V6.36036C13.4129 2.37598 11.6433 0.676758 8.09253 0.676758H1.48316C0.627685 0.676758 0.0651855 1.25098 0.0651855 2.11817V20.9854ZM5.73707 20.2588C5.73707 21.1143 6.29957 21.7002 7.15503 21.7002H13.8816C17.5613 21.7002 19.0847 19.9072 19.0847 15.6065V1.3916C19.0847 0.840821 18.6277 0.395508 18.0769 0.395508C17.5261 0.395508 17.0808 0.840821 17.0808 1.3916V15.6182C17.0808 18.8526 16.1785 19.4737 13.3308 19.4737H7.74097V7.55567C7.74097 7.00489 7.28394 6.55957 6.73316 6.55957C6.18238 6.55957 5.73707 7.00489 5.73707 7.55567V20.2588Z" fill="black" fill-opacity="0.85"/>
</g>
<defs>
<clipPath id="clip0_2207_25970">
<rect width="19.0195" height="21.8555" fill="white" transform="translate(0.0651855 0.125977)"/>
</clipPath>
</defs>
</svg>
