<svg width="20" height="25" viewBox="0 0 20 25" fill="none" xmlns="http://www.w3.org/2000/svg">
<g clip-path="url(#clip0_2207_8132)">
<path d="M0.0776367 14.5869C0.0776367 18.8643 2.37452 20.4346 9.03076 24.1846C9.33545 24.3487 9.62842 24.419 9.81592 24.419C10.0034 24.419 10.3081 24.3487 10.601 24.1846C17.269 20.4463 19.5542 18.8643 19.5542 14.5869V5.62207C19.5542 4.3916 19.0268 4.00489 18.0307 3.58301C16.6479 3.00879 12.1831 1.40332 10.8003 0.922851C10.4838 0.817382 10.144 0.74707 9.81592 0.74707C9.4878 0.74707 9.14795 0.84082 8.84326 0.922851C7.46045 1.32129 2.98389 3.02051 1.60108 3.58301C0.616699 3.99317 0.0776367 4.3916 0.0776367 5.62207V14.5869ZM1.94092 14.1533V12.2666H9.81592V2.63379C9.94483 2.63379 10.0971 2.66895 10.2846 2.73926C12.0542 3.44239 15.4878 4.68457 17.3042 5.30567C17.6206 5.42286 17.6909 5.58692 17.6909 5.98536V12.2666H9.81592V22.2979C9.62842 22.2979 9.44092 22.2276 9.08936 22.0166C3.6753 18.7354 1.94092 17.7744 1.94092 14.1533Z" fill="black" fill-opacity="0.85"/>
</g>
<defs>
<clipPath id="clip0_2207_8132">
<rect width="19.4766" height="24.293" fill="white" transform="translate(0.0776367 0.125977)"/>
</clipPath>
</defs>
</svg>
