<svg width="27" height="27" viewBox="0 0 27 27" fill="none" xmlns="http://www.w3.org/2000/svg">
<g clip-path="url(#clip0_2207_8114)">
<path d="M13.7388 25.7065C13.9263 25.7065 14.2193 25.6362 14.524 25.4722C21.1919 21.7339 23.4771 20.1518 23.4771 15.8745V6.90967C23.4771 5.6792 22.938 5.29248 21.9537 4.87061C20.5708 4.29639 16.106 2.69092 14.7115 2.21045C14.4068 2.10498 14.0669 2.03467 13.7388 2.03467C13.4107 2.03467 13.0708 2.12842 12.7544 2.21045C11.3716 2.60889 6.90674 4.30811 5.52393 4.87061C4.52784 5.28076 4.00049 5.6792 4.00049 6.90967V15.8745C4.00049 20.1518 6.29737 21.7222 12.9537 25.4722C13.2466 25.6362 13.5513 25.7065 13.7388 25.7065ZM13.7388 23.5854C13.5513 23.5854 13.3521 23.5151 13.0123 23.3042C7.59815 20.0229 5.86377 19.062 5.86377 15.4409V7.27295C5.86377 6.87451 5.93409 6.72217 6.25049 6.59326C8.03174 5.89014 11.5005 4.72998 13.2701 4.02686C13.4576 3.94482 13.6099 3.92139 13.7388 3.92139C13.8677 3.92139 14.0201 3.95654 14.2076 4.02686C15.9771 4.72998 19.399 5.97217 21.2154 6.59326C21.5435 6.71045 21.6138 6.87451 21.6138 7.27295V15.4409C21.6138 19.062 19.8677 20.0112 14.4654 23.3042C14.1138 23.5151 13.9263 23.5854 13.7388 23.5854Z" fill="black" fill-opacity="0.85"/>
<path d="M22.6451 25.8707C23.5357 26.7496 24.9771 26.7613 25.856 25.8707C26.7349 24.9918 26.7466 23.5621 25.856 22.6598L3.97708 0.792547C3.09818 -0.0863593 1.66849 -0.0980783 0.766142 0.76911C-0.124483 1.6363 -0.136202 3.12458 0.754423 4.00349L22.6451 25.8707Z" fill="white"/>
<path d="M23.6177 24.9097C23.9693 25.2612 24.5435 25.2612 24.8951 24.9097C25.2349 24.5581 25.2466 23.9839 24.8951 23.6323L3.0044 1.75342C2.65284 1.41357 2.07862 1.41357 1.71534 1.75342C1.37549 2.09326 1.37549 2.69092 1.71534 3.03076L23.6177 24.9097Z" fill="black" fill-opacity="0.85"/>
</g>
<defs>
<clipPath id="clip0_2207_8114">
<rect width="26.4273" height="26.8683" fill="white" transform="translate(0.0922852 0.125977)"/>
</clipPath>
</defs>
</svg>
