<svg width="20" height="25" viewBox="0 0 20 25" fill="none" xmlns="http://www.w3.org/2000/svg">
<g clip-path="url(#clip0_2207_8092)">
<path d="M0.0820312 14.5869C0.0820312 18.8643 2.37891 20.4346 9.03515 24.1846C9.33984 24.3487 9.63281 24.419 9.82031 24.419C10.0078 24.419 10.3125 24.3487 10.6054 24.1846C17.2734 20.4463 19.5586 18.8643 19.5586 14.5869V5.62207C19.5586 4.3916 19.0312 4.00489 18.0351 3.58301C16.6523 3.00879 12.1875 1.40332 10.8047 0.922851C10.4882 0.817382 10.1484 0.74707 9.82031 0.74707C9.49219 0.74707 9.15234 0.84082 8.84765 0.922851C7.46484 1.32129 2.98828 3.02051 1.60547 3.58301C0.621093 3.99317 0.0820312 4.3916 0.0820312 5.62207V14.5869ZM10.0664 22.251V2.66895C10.125 2.68067 10.1953 2.7041 10.289 2.73926C12.0586 3.44239 15.4922 4.68457 17.3086 5.30567C17.625 5.42286 17.6953 5.58692 17.6953 5.98536V14.1533C17.6953 17.7744 15.9609 18.7237 10.5468 22.0166C10.3711 22.1338 10.207 22.2158 10.0664 22.251Z" fill="black" fill-opacity="0.85"/>
</g>
<defs>
<clipPath id="clip0_2207_8092">
<rect width="19.4766" height="24.293" fill="white" transform="translate(0.0820312 0.125977)"/>
</clipPath>
</defs>
</svg>
