<svg width="26" height="23" viewBox="0 0 26 23" fill="none" xmlns="http://www.w3.org/2000/svg">
<g clip-path="url(#clip0_2207_3487)">
<path d="M9.08691 21.876H16.3174C17.958 21.876 18.8369 20.9151 18.8369 19.3682V14.1182H23.5947C24.5556 14.1182 25.3056 13.5322 25.3056 12.6416C25.3056 12.0908 25.0244 11.6807 24.6025 11.2588L14.1494 0.840821C13.6924 0.383789 13.2236 0.125977 12.6963 0.125977C12.1806 0.125977 11.7002 0.383789 11.2548 0.840821L0.801758 11.2588C0.344727 11.7041 0.0986328 12.0908 0.0986328 12.6416C0.0986328 13.5322 0.848633 14.1182 1.79785 14.1182H6.56738V19.3682C6.56738 20.9151 7.44629 21.876 9.08691 21.876Z" fill="black" fill-opacity="0.85"/>
</g>
<defs>
<clipPath id="clip0_2207_3487">
<rect width="25.207" height="21.9023" fill="white" transform="translate(0.0986328 0.125977)"/>
</clipPath>
</defs>
</svg>
