<svg width="42" height="22" viewBox="0 0 42 22" fill="none" xmlns="http://www.w3.org/2000/svg">
<g clip-path="url(#clip0_2207_18342)">
<path d="M0.0285645 12.0219C0.766846 12.8657 1.56373 13.1352 3.05201 13.1352H4.11841V10.9438C4.11841 7.82663 7.07154 5.97507 10.1184 7.32272C10.9152 7.67429 11.4426 7.81491 12.5441 7.81491C13.5754 7.81491 14.302 7.41647 15.4387 5.96335C16.9152 4.05319 18.673 3.29147 20.5129 3.44382L17.0324 1.40475C14.7941 0.0922495 12.7316 0.291468 11.009 2.50632C9.66138 4.22897 8.27857 4.96725 6.84888 4.96725C5.58326 4.96725 4.71607 4.76803 3.77857 4.33444C1.97388 3.54929 0.0168457 4.35788 0.0168457 6.50241V11.7993C0.0168457 11.8813 0.0168457 11.9516 0.0285645 12.0219ZM4.11841 16.7212C4.11841 16.1938 4.11841 15.6782 4.11841 15.1626C4.11841 14.9399 4.11841 14.7172 4.11841 14.4946C3.75513 14.4946 3.41529 14.4946 3.05201 14.4946C1.97388 14.4946 1.14185 14.3305 0.239502 13.6626C0.766846 15.5727 2.07935 16.4399 3.62623 16.6626C3.79029 16.686 3.95435 16.7094 4.11841 16.7212ZM35.3254 8.22507C34.8098 6.54929 33.1926 5.3071 30.966 5.3071C29.5246 5.3071 27.2395 5.72897 25.7512 5.76413L30.0637 8.27194C30.4738 8.51803 30.8137 8.61179 31.4348 8.61179C32.1379 8.61179 33.8723 8.35397 35.3254 8.22507ZM8.74732 17.5766H29.1496C32.091 17.5766 33.4152 17.2251 35.091 16.3344L38.5129 14.5297C40.4465 13.4985 40.9504 12.1626 40.0832 11.2251C39.4152 10.4399 38.2551 9.7485 36.6613 9.7485C35.3957 9.7485 32.5246 10.2055 31.4348 10.2055C30.6848 10.2055 30.3449 10.1821 29.7941 9.92429L27.802 12.6196C27.5676 12.936 27.1574 12.9829 26.841 12.7133C26.5715 12.4907 26.5246 12.104 26.7707 11.7758L28.5871 9.26803L27.1223 8.41257L25.0715 11.2719C24.8254 11.6118 24.427 11.6352 24.0988 11.354C23.8176 11.143 23.759 10.768 24.0168 10.4165L25.9504 7.73288L24.4973 6.87741L22.3059 9.92429C22.0832 10.2172 21.6379 10.2407 21.3449 10.018C21.0637 9.79538 21.0402 9.35007 21.2512 9.06882L23.3254 6.19772L22.7277 5.84616C20.4777 4.5571 18.427 4.72116 16.7043 6.94772C15.3566 8.67038 13.9738 9.40866 12.5441 9.40866C11.2785 9.40866 10.423 9.20944 9.47388 8.77585C7.68091 7.99069 5.72388 8.79929 5.72388 10.9438V16.1938C5.72388 16.2876 5.72388 16.3813 5.72388 16.4633C6.47388 17.3071 7.27076 17.5766 8.74732 17.5766ZM39.1457 15.7368L35.7473 17.518C33.802 18.5493 32.2199 18.936 29.1496 18.936H8.74732C7.66919 18.936 6.84888 18.7719 5.94654 18.104C6.59107 20.4946 8.51294 21.2094 10.3527 21.2094H28.9856C32.759 21.2094 34.927 20.6352 37.8684 19.0063C40.2004 17.7055 41.2785 16.1001 41.2785 14.2485C41.2785 14.0024 41.2551 13.768 41.2316 13.5454C41.009 14.436 40.4816 15.0219 39.1457 15.7368Z" fill="black" fill-opacity="0.85"/>
</g>
<defs>
<clipPath id="clip0_2207_18342">
<rect width="41.2617" height="21.082" fill="white" transform="translate(0.0168457 0.127441)"/>
</clipPath>
</defs>
</svg>
