<svg width="22" height="28" viewBox="0 0 22 28" fill="none" xmlns="http://www.w3.org/2000/svg">
<g clip-path="url(#clip0_2207_18346)">
<path d="M4.86499 0.127441C2.33374 0.127441 0.0251465 3.98291 0.0251465 6.97119C0.0251465 8.40088 0.505615 11.2133 1.63062 13.4751H8.11109C9.22437 11.2133 9.71656 8.40088 9.71656 6.97119C9.71656 3.98291 7.40796 0.127441 4.86499 0.127441ZM4.87671 20.3657C6.70484 20.3657 7.68921 18.5493 7.68921 15.9712C7.68921 15.7251 7.66577 15.3618 7.6189 15.0805H2.13453C2.08765 15.3618 2.06421 15.7251 2.06421 15.9712C2.06421 18.5493 3.04859 20.3657 4.87671 20.3657ZM19.1032 7.82666C16.7126 6.95947 13.2439 9.78369 12.2126 12.5962C11.7321 13.9438 11.2165 16.7563 11.486 19.2641L17.5798 21.479C19.4079 19.7329 20.8259 17.2719 21.3181 15.9008C22.3376 13.1001 21.4939 8.70556 19.1032 7.82666ZM12.1892 26.8462C13.9118 27.4672 15.4587 26.0962 16.3376 23.6821C16.4196 23.4477 16.5134 23.0962 16.5837 22.8149L11.4274 20.9282C11.2868 21.186 11.1345 21.5141 11.0524 21.7485C10.1735 24.1743 10.4782 26.2133 12.1892 26.8462Z" fill="black" fill-opacity="0.85"/>
</g>
<defs>
<clipPath id="clip0_2207_18346">
<rect width="21.7181" height="27.3164" fill="white" transform="translate(0.0251465 0.127441)"/>
</clipPath>
</defs>
</svg>
