<svg width="36" height="17" viewBox="0 0 36 17" fill="none" xmlns="http://www.w3.org/2000/svg">
<g clip-path="url(#clip0_2207_18324)">
<path d="M3.05835 13.1471H23.4607C26.3904 13.1471 27.7263 12.7956 29.4021 11.9049L32.824 10.1003C34.7459 9.06905 35.2615 7.73311 34.3826 6.79561C33.7146 6.01045 32.5544 5.31905 30.9724 5.31905C29.6951 5.31905 26.824 5.77608 25.7459 5.77608C24.9959 5.77608 24.656 5.75264 24.0935 5.49483L22.113 8.19014C21.8787 8.49483 21.4568 8.55342 21.1521 8.28389C20.8709 8.06123 20.8357 7.67452 21.0701 7.34639L22.8865 4.83858L21.4216 3.98311L19.3826 6.84248C19.1365 7.18233 18.7263 7.20576 18.4099 6.92452C18.117 6.71358 18.0701 6.32686 18.3162 5.98702L20.2615 3.30342L18.7966 2.44795L16.6052 5.49483C16.3826 5.7878 15.9373 5.81123 15.656 5.58858C15.363 5.36592 15.3396 4.92061 15.5505 4.63936L17.6248 1.75655L17.0388 1.4167C14.7888 0.127643 12.7263 0.291705 11.0154 2.51826C9.66772 4.24092 8.28491 4.9792 6.85522 4.9792C5.5896 4.9792 4.72241 4.77998 3.78491 4.34639C1.98022 3.56123 0.0231934 4.36983 0.0231934 6.51436V11.7643C0.0231934 11.8581 0.0231934 11.9518 0.0349122 12.0338C0.773193 12.8776 1.57007 13.1471 3.05835 13.1471ZM33.4451 11.3073L30.0466 13.0885C28.113 14.1198 26.5193 14.5065 23.4607 14.5065H3.05835C1.98022 14.5065 1.14819 14.3424 0.245849 13.6745C0.902099 16.0651 2.81225 16.7799 4.6521 16.7799H23.2966C27.0584 16.7799 29.238 16.2057 32.1794 14.5768C34.4998 13.276 35.5779 11.6706 35.5779 9.81905C35.5779 9.57295 35.5544 9.33858 35.531 9.11592C35.3084 10.0066 34.781 10.5924 33.4451 11.3073Z" fill="black" fill-opacity="0.85"/>
</g>
<defs>
<clipPath id="clip0_2207_18324">
<rect width="35.5547" height="16.6523" fill="white" transform="translate(0.0231934 0.127441)"/>
</clipPath>
</defs>
</svg>
