<svg width="24" height="25" viewBox="0 0 24 25" fill="none" xmlns="http://www.w3.org/2000/svg">
<g clip-path="url(#clip0_2207_18333)">
<path d="M11.9741 24.0336C18.5132 24.0336 23.9272 18.6079 23.9272 12.0805C23.9272 5.5415 18.5015 0.127441 11.9624 0.127441C5.43506 0.127441 0.0209961 5.5415 0.0209961 12.0805C0.0209961 18.6079 5.44678 24.0336 11.9741 24.0336Z" fill="black" fill-opacity="0.85"/>
<path d="M4.75538 14.3657C4.04053 14.3657 3.66553 14.2602 3.29053 13.8383C3.29053 13.8149 3.30225 13.768 3.30225 13.7329L3.29053 10.9555C3.29053 9.99457 4.09912 9.47894 5.11866 10.0297C5.57569 10.2758 5.98584 10.4399 6.61866 10.4399C7.32178 10.4399 7.98975 10.0883 8.81006 9.03363C9.47803 8.16644 10.3687 8.0141 11.3296 8.5766L11.8452 8.85785L10.8257 10.2641C10.7319 10.393 10.7437 10.6391 10.896 10.7446C11.0366 10.8618 11.271 10.8501 11.3882 10.6977L12.4546 9.20941L13.1226 9.61957L12.1733 10.9204C12.0327 11.0844 12.0796 11.2954 12.2319 11.4126C12.396 11.5415 12.6069 11.5297 12.7241 11.354L13.7319 9.95941L14.4116 10.3579L13.521 11.5766C13.4038 11.7524 13.4272 11.9399 13.5679 12.0688C13.7319 12.1977 13.9429 12.1743 14.0718 12.0102L15.0327 10.6977C15.3022 10.8266 15.4663 10.8383 15.8179 10.8266C16.3569 10.8266 17.7515 10.604 18.3726 10.604C19.1577 10.6157 19.7202 10.9555 20.0366 11.3305C20.4702 11.7993 20.2007 12.3969 19.2632 12.9008L17.5874 13.768C16.7671 14.1899 16.146 14.354 14.7163 14.354L4.75538 14.3657ZM5.54053 16.1704C4.64991 16.1704 3.72412 15.8188 3.396 14.6704C3.82959 14.9868 4.23975 15.0571 4.76709 15.0571H14.7163C16.1929 15.0571 16.9663 14.8813 17.9038 14.3891L19.5796 13.5219C20.2241 13.1821 20.4819 12.9008 20.5874 12.479C20.5991 12.561 20.6108 12.6782 20.5991 12.7954C20.6108 13.6977 20.0952 14.4829 18.9468 15.104C17.5171 15.9008 16.4624 16.1704 14.6343 16.1704H5.54053Z" fill="white"/>
</g>
<defs>
<clipPath id="clip0_2207_18333">
<rect width="23.9062" height="23.918" fill="white" transform="translate(0.0209961 0.127441)"/>
</clipPath>
</defs>
</svg>
