<svg width="28" height="26" viewBox="0 0 28 26" fill="none" xmlns="http://www.w3.org/2000/svg">
<g clip-path="url(#clip0_2207_11991)">
<path d="M26.3422 4.34619C26.7992 4.34619 27.1742 3.97119 27.1742 3.51416C27.1742 3.05713 26.7992 2.68213 26.3422 2.68213C25.8852 2.68213 25.5102 3.05713 25.5102 3.51416C25.5102 3.97119 25.8852 4.34619 26.3422 4.34619ZM25.1117 11.4829C25.5688 11.4829 25.9438 11.1079 25.9438 10.6508C25.9438 10.1938 25.5688 9.81885 25.1117 9.81885C24.6547 9.81885 24.2797 10.1938 24.2797 10.6508C24.2797 11.1079 24.6547 11.4829 25.1117 11.4829ZM21.4906 17.7524C21.9477 17.7524 22.3227 17.3774 22.3227 16.9204C22.3227 16.4633 21.9477 16.0883 21.4906 16.0883C21.0219 16.0883 20.6586 16.4633 20.6586 16.9204C20.6586 17.3774 21.0219 17.7524 21.4906 17.7524Z" fill="black" fill-opacity="0.85"/>
<path d="M23.1781 4.76806C23.6352 4.76806 24.0102 4.39306 24.0102 3.93603C24.0102 3.479 23.6352 3.104 23.1781 3.104C22.7211 3.104 22.3461 3.479 22.3461 3.93603C22.3461 4.39306 22.7211 4.76806 23.1781 4.76806ZM21.8305 10.2758C22.2875 10.2758 22.6625 9.90088 22.6625 9.44385C22.6625 8.98682 22.2875 8.61182 21.8305 8.61182C21.3734 8.61182 20.9984 8.98682 20.9984 9.44385C20.9984 9.90088 21.3734 10.2758 21.8305 10.2758ZM19.3227 15.3852C19.7797 15.3852 20.1547 15.0102 20.1547 14.5532C20.1547 14.0962 19.7797 13.7212 19.3227 13.7212C18.8656 13.7212 18.4906 14.0962 18.4906 14.5532C18.4906 15.0102 18.8656 15.3852 19.3227 15.3852Z" fill="black" fill-opacity="0.85"/>
<path d="M19.9788 5.18994C20.4476 5.18994 20.8227 4.81494 20.8227 4.35791C20.8227 3.90088 20.4476 3.52588 19.9788 3.52588C19.5218 3.52588 19.1469 3.90088 19.1469 4.35791C19.1469 4.81494 19.5218 5.18994 19.9788 5.18994ZM18.5258 9.09228C18.9945 9.09228 19.3577 8.71728 19.3577 8.26025C19.3577 7.80322 18.9945 7.42822 18.5258 7.42822C18.0688 7.42822 17.6938 7.80322 17.6938 8.26025C17.6938 8.71728 18.0688 9.09228 18.5258 9.09228ZM17.1663 13.0063C17.6233 13.0063 17.9984 12.6313 17.9984 12.1743C17.9984 11.7172 17.6233 11.3422 17.1663 11.3422C16.7093 11.3422 16.3344 11.7172 16.3344 12.1743C16.3344 12.6313 16.7093 13.0063 17.1663 13.0063Z" fill="black" fill-opacity="0.85"/>
<path d="M11.8344 12.725L16.182 0.748356C13.9203 0.174137 11.7641 0.631168 10.1703 2.03742L9.94763 1.95538C8.49451 1.42804 7.13513 2.18976 6.50232 3.91242L1.38123 17.9984C1.00623 19.0414 1.45154 19.9789 2.48279 20.3773C3.54919 20.7289 4.51013 20.307 4.87341 19.2875L8.82263 8.41242L8.27185 8.75226C8.78748 10.4398 10.0297 11.8461 11.8344 12.725ZM3.26795 20.1546L2.04919 19.7093L0.0335693 25.2406L1.25232 25.6859L3.26795 20.1546ZM16.9789 0.818668L12.4906 13.182C12.3266 13.6156 12.5492 14.0961 12.9945 14.2601C13.4281 14.4242 13.9086 14.1898 14.0727 13.7679L18.5727 1.4046C18.725 0.959293 18.5024 0.478824 18.0688 0.314762C17.6234 0.150699 17.1313 0.385074 16.9789 0.818668Z" fill="black" fill-opacity="0.85"/>
</g>
<defs>
<clipPath id="clip0_2207_11991">
<rect width="27.1406" height="25.5586" fill="white" transform="translate(0.0335693 0.127441)"/>
</clipPath>
</defs>
</svg>
