<svg width="27" height="26" viewBox="0 0 27 26" fill="none" xmlns="http://www.w3.org/2000/svg">
<g clip-path="url(#clip0_2207_11984)">
<path d="M25.9885 4.38136C26.4456 4.38136 26.8206 4.00636 26.8206 3.54933C26.8206 3.09229 26.4456 2.71729 25.9885 2.71729C25.5315 2.71729 25.1565 3.09229 25.1565 3.54933C25.1565 4.00636 25.5315 4.38136 25.9885 4.38136ZM24.7581 11.518C25.2151 11.518 25.5901 11.143 25.5901 10.686C25.5901 10.229 25.2151 9.854 24.7581 9.854C24.301 9.854 23.926 10.229 23.926 10.686C23.926 11.143 24.301 11.518 24.7581 11.518ZM21.137 17.7876C21.594 17.7876 21.969 17.4126 21.969 16.9555C21.969 16.4985 21.594 16.1235 21.137 16.1235C20.6682 16.1235 20.3049 16.4985 20.3049 16.9555C20.3049 17.4126 20.6682 17.7876 21.137 17.7876Z" fill="black" fill-opacity="0.85"/>
<path d="M22.8245 4.80322C23.2815 4.80322 23.6565 4.42822 23.6565 3.97119C23.6565 3.51416 23.2815 3.13916 22.8245 3.13916C22.3674 3.13916 21.9924 3.51416 21.9924 3.97119C21.9924 4.42822 22.3674 4.80322 22.8245 4.80322ZM21.4768 10.311C21.9338 10.311 22.3088 9.93603 22.3088 9.479C22.3088 9.02197 21.9338 8.64697 21.4768 8.64697C21.0198 8.64697 20.6448 9.02197 20.6448 9.479C20.6448 9.93603 21.0198 10.311 21.4768 10.311ZM18.969 15.4204C19.426 15.4204 19.801 15.0454 19.801 14.5883C19.801 14.1313 19.426 13.7563 18.969 13.7563C18.512 13.7563 18.137 14.1313 18.137 14.5883C18.137 15.0454 18.512 15.4204 18.969 15.4204Z" fill="black" fill-opacity="0.85"/>
<path d="M19.6253 5.22511C20.094 5.22511 20.469 4.85011 20.469 4.39307C20.469 3.93604 20.094 3.56104 19.6253 3.56104C19.1682 3.56104 18.7932 3.93604 18.7932 4.39307C18.7932 4.85011 19.1682 5.22511 19.6253 5.22511ZM18.1721 9.12745C18.6409 9.12745 19.0042 8.75244 19.0042 8.29541C19.0042 7.83839 18.6409 7.46339 18.1721 7.46339C17.7151 7.46339 17.3401 7.83839 17.3401 8.29541C17.3401 8.75244 17.7151 9.12745 18.1721 9.12745ZM16.8127 13.0415C17.2698 13.0415 17.6448 12.6665 17.6448 12.2094C17.6448 11.7524 17.2698 11.3774 16.8127 11.3774C16.3557 11.3774 15.9807 11.7524 15.9807 12.2094C15.9807 12.6665 16.3557 13.0415 16.8127 13.0415Z" fill="black" fill-opacity="0.85"/>
<path d="M16.6253 0.853824L12.137 13.2171C11.9729 13.6507 12.1956 14.1312 12.6409 14.2953C13.0745 14.4593 13.5549 14.225 13.719 13.8031L18.219 1.43976C18.3713 0.99445 18.1487 0.513981 17.7151 0.349918C17.2698 0.185856 16.7776 0.420231 16.6253 0.853824ZM2.37524 20.7406C3.57055 21.1742 4.74243 20.6117 5.1643 19.4515L8.92602 9.18585L8.30493 9.57257C8.99633 11.1781 10.4026 12.5375 12.3479 13.1351L12.8518 11.7171C10.5081 10.8734 9.13696 9.18585 9.07837 7.01788L8.62133 6.85382C8.42211 6.77179 8.18774 6.87726 8.11743 7.0882L3.84008 18.8187C3.6643 19.2992 3.21899 19.4281 2.84399 19.2875C2.50415 19.1468 2.28149 18.807 2.44555 18.3734L7.51977 4.45148C7.81274 3.61945 8.70337 3.20929 9.52368 3.50226L10.2034 3.74835C11.6448 2.06085 13.8362 1.60382 16.2268 2.47101L16.7307 1.06476C14.1292 0.115543 11.6096 0.502262 9.81665 2.08429L9.60571 2.00226C8.1643 1.48664 6.76977 2.27179 6.14868 3.95929L1.06274 17.9398C0.640869 19.1117 1.20337 20.307 2.37524 20.7406ZM3.26587 20.2015L2.04711 19.7562L0.0314941 25.2992L1.25024 25.7328L3.26587 20.2015Z" fill="black" fill-opacity="0.85"/>
</g>
<defs>
<clipPath id="clip0_2207_11984">
<rect width="26.7891" height="25.6055" fill="white" transform="translate(0.0314941 0.127441)"/>
</clipPath>
</defs>
</svg>
