<svg width="24" height="25" viewBox="0 0 24 25" fill="none" xmlns="http://www.w3.org/2000/svg">
<g clip-path="url(#clip0_2207_5318)">
<path d="M11.9951 24.0336C18.5342 24.0336 23.9482 18.6079 23.9482 12.0805C23.9482 5.5415 18.5225 0.127441 11.9834 0.127441C5.45605 0.127441 0.0419922 5.5415 0.0419922 12.0805C0.0419922 18.6079 5.46777 24.0336 11.9951 24.0336ZM11.9951 22.0415C6.46387 22.0415 2.0459 17.6118 2.0459 12.0805C2.0459 6.54932 6.45215 2.11963 11.9834 2.11963C17.5147 2.11963 21.9561 6.54932 21.9561 12.0805C21.9561 17.6118 17.5264 22.0415 11.9951 22.0415Z" fill="black" fill-opacity="0.85"/>
<path d="M4.74121 15.2212C4.74121 15.6196 5.05761 15.9126 5.49121 15.9126H6.88574C7.94043 15.9126 8.58496 15.6079 9.3584 14.7172L13.0498 10.4047C13.542 9.83056 13.917 9.63135 14.5615 9.63135H15.5928V10.8032C15.5928 11.1547 15.8272 11.3891 16.167 11.3891C16.3428 11.3891 16.5068 11.3305 16.6123 11.2133L18.9092 9.32666C19.1787 9.104 19.1904 8.69385 18.9209 8.45947L16.6006 6.5376C16.4834 6.44385 16.3311 6.38525 16.167 6.38525C15.8154 6.38525 15.5928 6.60791 15.5928 6.95947V8.24853H14.5147C13.46 8.24853 12.8037 8.55322 12.0303 9.44385L8.35058 13.7563C7.84668 14.3422 7.4834 14.5297 6.90918 14.5297H5.49121C5.06933 14.5297 4.74121 14.8344 4.74121 15.2212ZM4.74121 8.93994C4.74121 9.32666 5.06933 9.63135 5.49121 9.63135H6.90918C7.4834 9.63135 7.8584 9.83056 8.35058 10.4047L12.0303 14.7172C12.8037 15.6079 13.46 15.9126 14.5147 15.9126H15.5928V17.2368C15.5928 17.5883 15.8154 17.811 16.167 17.811C16.3311 17.811 16.4834 17.7524 16.6006 17.6586L18.9092 15.7485C19.1904 15.5141 19.1904 15.1157 18.9209 14.893L16.6123 12.9829C16.5068 12.8657 16.3428 12.8071 16.167 12.8071C15.8272 12.8071 15.5928 13.0415 15.5928 13.393V14.5297H14.5615C13.917 14.5297 13.542 14.3305 13.0498 13.7563L9.3584 9.44385C8.58496 8.55322 7.94043 8.24853 6.88574 8.24853H5.49121C5.05761 8.24853 4.74121 8.5415 4.74121 8.93994Z" fill="black" fill-opacity="0.85"/>
</g>
<defs>
<clipPath id="clip0_2207_5318">
<rect width="23.9062" height="23.918" fill="white" transform="translate(0.0419922 0.127441)"/>
</clipPath>
</defs>
</svg>
