<svg width="28" height="22" viewBox="0 0 28 22" fill="none" xmlns="http://www.w3.org/2000/svg">
<g clip-path="url(#clip0_2207_19428)">
<path d="M3.7301 21.7251H24.0035C26.4645 21.7251 27.6832 20.5063 27.6832 18.0922V3.78369C27.6832 1.36963 26.4645 0.150879 24.0035 0.150879H3.7301C1.28088 0.150879 0.050415 1.35791 0.050415 3.78369V18.0922C0.050415 20.518 1.28088 21.7251 3.7301 21.7251ZM3.75354 19.8383C2.58167 19.8383 1.93713 19.2172 1.93713 17.9985V3.87744C1.93713 2.65869 2.58167 2.0376 3.75354 2.0376H23.9801C25.1402 2.0376 25.7965 2.65869 25.7965 3.87744V17.9985C25.7965 19.2172 25.1402 19.8383 23.9801 19.8383H3.75354ZM16.9488 20.2016H18.7887V1.68603H16.9488V20.2016ZM21.0387 6.38525H23.5465C23.9098 6.38525 24.2145 6.06885 24.2145 5.729C24.2145 5.37744 23.9098 5.07275 23.5465 5.07275H21.0387C20.6871 5.07275 20.3707 5.37744 20.3707 5.729C20.3707 6.06885 20.6871 6.38525 21.0387 6.38525ZM21.0387 9.42041H23.5465C23.9098 9.42041 24.2145 9.104 24.2145 8.75244C24.2145 8.40088 23.9098 8.10791 23.5465 8.10791H21.0387C20.6871 8.10791 20.3707 8.40088 20.3707 8.75244C20.3707 9.104 20.6871 9.42041 21.0387 9.42041ZM21.0387 12.4438H23.5465C23.9098 12.4438 24.2145 12.1508 24.2145 11.7993C24.2145 11.4477 23.9098 11.143 23.5465 11.143H21.0387C20.6871 11.143 20.3707 11.4477 20.3707 11.7993C20.3707 12.1508 20.6871 12.4438 21.0387 12.4438Z" fill="black" fill-opacity="0.85"/>
</g>
<defs>
<clipPath id="clip0_2207_19428">
<rect width="27.6328" height="21.5977" fill="white" transform="translate(0.050415 0.127441)"/>
</clipPath>
</defs>
</svg>
