<svg width="28" height="22" viewBox="0 0 28 22" fill="none" xmlns="http://www.w3.org/2000/svg">
<g clip-path="url(#clip0_2207_19440)">
<path d="M3.73438 21.7251H24.0078C26.4688 21.7251 27.6875 20.5063 27.6875 18.0922V3.78369C27.6875 1.36963 26.4688 0.150879 24.0078 0.150879H3.73438C1.28516 0.150879 0.0546875 1.35791 0.0546875 3.78369V18.0922C0.0546875 20.518 1.28516 21.7251 3.73438 21.7251ZM3.75781 19.8383C2.58594 19.8383 1.94141 19.2172 1.94141 17.9985V3.87744C1.94141 2.65869 2.58594 2.0376 3.75781 2.0376H23.9844C25.1445 2.0376 25.8008 2.65869 25.8008 3.87744V17.9985C25.8008 19.2172 25.1445 19.8383 23.9844 19.8383H3.75781ZM8.98438 20.2016H10.8242V1.68603H8.98438V20.2016ZM4.36719 7.63916H6.58203C6.875 7.63916 7.10938 7.42822 7.10938 7.11182V4.92041C7.10938 4.59228 6.88672 4.38135 6.58203 4.38135H4.36719C4.03907 4.38135 3.81641 4.59228 3.81641 4.92041V7.11182C3.81641 7.42822 4.05078 7.63916 4.36719 7.63916ZM4.36719 12.561H6.58203C6.875 12.561 7.10938 12.3266 7.10938 12.0336V9.81885C7.10938 9.51416 6.88672 9.27978 6.58203 9.27978H4.36719C4.03907 9.27978 3.81641 9.51416 3.81641 9.81885V12.0336C3.81641 12.3266 4.05078 12.561 4.36719 12.561ZM4.36719 17.4594H6.58203C6.875 17.4594 7.10938 17.2485 7.10938 16.9321V14.7407C7.10938 14.4243 6.88672 14.2016 6.58203 14.2016H4.36719C4.03907 14.2016 3.81641 14.4243 3.81641 14.7407V16.9321C3.81641 17.2485 4.05078 17.4594 4.36719 17.4594Z" fill="black" fill-opacity="0.85"/>
</g>
<defs>
<clipPath id="clip0_2207_19440">
<rect width="27.6328" height="21.5977" fill="white" transform="translate(0.0546875 0.127441)"/>
</clipPath>
</defs>
</svg>
