<svg width="25" height="25" viewBox="0 0 25 25" fill="none" xmlns="http://www.w3.org/2000/svg">
<g clip-path="url(#clip0_2207_12457)">
<path d="M14.2083 5.13135V1.07666C14.2083 0.561035 13.7747 0.127441 13.259 0.127441C12.7434 0.127441 12.3215 0.561035 12.3215 1.07666V5.13135H14.2083ZM21.6028 15.0688C23.1965 15.0688 24.0872 14.1899 24.0872 12.6196V6.09228C24.0872 4.52197 23.1965 3.65478 21.6028 3.65478H6.29814C5.25517 3.65478 4.76298 3.97119 4.16532 4.55713L1.04814 7.52197C-0.264359 8.7876 -0.217484 9.97119 1.03642 11.1782L4.16532 14.1665C4.76298 14.7407 5.25517 15.0688 6.30986 15.0688H21.6028ZM14.2083 14.4008H12.3215V24.7368H14.2083V14.4008ZM18.7083 23.8579C18.7083 23.3422 18.2864 22.9086 17.7708 22.9086H8.73564C8.22001 22.9086 7.79814 23.3422 7.79814 23.8579C7.79814 24.3735 8.22001 24.7954 8.73564 24.7954H17.7708C18.2864 24.7954 18.7083 24.3735 18.7083 23.8579Z" fill="black" fill-opacity="0.85"/>
</g>
<defs>
<clipPath id="clip0_2207_12457">
<rect width="24.0074" height="24.6914" fill="white" transform="translate(0.079834 0.127441)"/>
</clipPath>
</defs>
</svg>
