<svg width="24" height="25" viewBox="0 0 24 25" fill="none" xmlns="http://www.w3.org/2000/svg">
<g clip-path="url(#clip0_2207_12461)">
<path d="M12.0288 24.0336C18.5679 24.0336 23.9819 18.6079 23.9819 12.0805C23.9819 5.5415 18.5562 0.127441 12.0171 0.127441C5.48974 0.127441 0.0756836 5.5415 0.0756836 12.0805C0.0756836 18.6079 5.50146 24.0336 12.0288 24.0336ZM12.0288 22.0415C6.49756 22.0415 2.07959 17.6118 2.07959 12.0805C2.07959 6.54932 6.48584 2.11963 12.0171 2.11963C17.5484 2.11963 21.9898 6.54932 21.9898 12.0805C21.9898 17.6118 17.5601 22.0415 12.0288 22.0415Z" fill="black" fill-opacity="0.85"/>
<path d="M16.2124 13.3462C16.9976 13.3462 17.4429 12.9126 17.4429 12.1274V8.86964C17.4429 8.0962 16.9976 7.67433 16.2124 7.67433H12.6851V6.36183C12.6851 5.99854 12.3921 5.70557 12.0171 5.70557C11.6655 5.70557 11.3843 5.99854 11.3843 6.36183V7.67433H8.54835C8.021 7.67433 7.77491 7.82667 7.48194 8.10792L5.92335 9.5962C5.2671 10.2172 5.29053 10.8149 5.91163 11.4126L7.48194 12.9008C7.77491 13.1821 8.021 13.3462 8.54835 13.3462H11.3843V17.143H9.7671C9.40381 17.143 9.11085 17.4243 9.11085 17.7876C9.11085 18.1508 9.40381 18.4438 9.7671 18.4438H14.2788C14.6421 18.4438 14.9468 18.1508 14.9468 17.7876C14.9468 17.4243 14.6421 17.143 14.2788 17.143H12.6851V13.3462H16.2124Z" fill="black" fill-opacity="0.85"/>
</g>
<defs>
<clipPath id="clip0_2207_12461">
<rect width="23.9062" height="23.918" fill="white" transform="translate(0.0756836 0.127441)"/>
</clipPath>
</defs>
</svg>
