<svg width="25" height="25" viewBox="0 0 25 25" fill="none" xmlns="http://www.w3.org/2000/svg">
<g clip-path="url(#clip0_2207_12453)">
<path d="M21.5965 15.0688C23.1902 15.0688 24.0809 14.1899 24.0809 12.6196V6.09228C24.0809 4.52197 23.1902 3.65478 21.5965 3.65478H6.2918C5.24883 3.65478 4.75664 3.97119 4.15898 4.55713L1.04179 7.52197C-0.270707 8.7876 -0.223832 9.97119 1.03007 11.1782L4.15898 14.1665C4.75664 14.7407 5.24883 15.0571 6.30352 15.0571L21.5965 15.0688ZM21.5496 13.1821H6.36211C5.90508 13.1821 5.75273 13.0766 5.53008 12.8774L2.30742 9.80713C1.99102 9.52588 1.99102 9.17432 2.2957 8.89306L5.51836 5.84619C5.74102 5.64697 5.90508 5.5415 6.35039 5.5415H21.5496C21.9246 5.5415 22.1473 5.77588 22.1473 6.15088V12.561C22.1473 12.936 21.9246 13.1821 21.5496 13.1821ZM14.202 5.13135V1.07666C14.202 0.561035 13.7684 0.127441 13.2527 0.127441C12.7371 0.127441 12.3152 0.561035 12.3152 1.07666V5.13135H14.202ZM14.202 14.4008H12.3152V24.7368H14.202V14.4008ZM18.702 23.8579C18.702 23.3422 18.2801 22.9086 17.7645 22.9086H8.7293C8.21367 22.9086 7.7918 23.3422 7.7918 23.8579C7.7918 24.3735 8.21367 24.7954 8.7293 24.7954H17.7645C18.2801 24.7954 18.702 24.3735 18.702 23.8579Z" fill="black" fill-opacity="0.85"/>
</g>
<defs>
<clipPath id="clip0_2207_12453">
<rect width="24.0074" height="24.6914" fill="white" transform="translate(0.0734863 0.127441)"/>
</clipPath>
</defs>
</svg>
