<svg width="23" height="27" viewBox="0 0 23 27" fill="none" xmlns="http://www.w3.org/2000/svg">
<g clip-path="url(#clip0_2207_12493)">
<path d="M10.6006 3.86572H12.4873V1.07666C12.4873 0.561035 12.0537 0.127441 11.5381 0.127441C11.0225 0.127441 10.6006 0.561035 10.6006 1.07666V3.86572ZM7.62409 10.8735H18.5225C19.1905 10.8735 19.6592 10.686 20.0928 10.2641L22.3428 8.11963C23.1983 7.29932 23.1983 6.52588 22.3194 5.65869L20.0928 3.50244C19.6709 3.09228 19.2022 2.9165 18.5342 2.9165H7.62409C6.58112 2.9165 5.96003 3.49072 5.96003 4.56885V9.22119C5.96003 10.2876 6.58112 10.8735 7.62409 10.8735ZM4.54206 20.6821H15.4405C16.4952 20.6821 17.1045 20.0962 17.1045 19.0297V14.3657C17.1045 13.2993 16.4952 12.7133 15.4405 12.7133H4.53034C3.87409 12.7133 3.40534 12.9008 2.97174 13.311L0.756902 15.4672C-0.122004 16.3227 -0.133723 17.1079 0.733465 17.9399L2.97174 20.0727C3.41706 20.4946 3.88581 20.6821 4.54206 20.6821ZM10.6006 13.4633H12.4873V10.0532H10.6006V13.4633ZM10.6006 25.6508H12.4873V19.3579H10.6006V25.6508ZM7.48346 26.5297H15.5811C16.0967 26.5297 16.5186 26.1079 16.5186 25.5922C16.5186 25.0766 16.0967 24.643 15.5811 24.643H7.48346C6.96784 24.643 6.54596 25.0766 6.54596 25.5922C6.54596 26.1079 6.96784 26.5297 7.48346 26.5297Z" fill="black" fill-opacity="0.85"/>
</g>
<defs>
<clipPath id="clip0_2207_12493">
<rect width="22.8912" height="26.4727" fill="white" transform="translate(0.090332 0.127441)"/>
</clipPath>
</defs>
</svg>
