<svg width="23" height="27" viewBox="0 0 23 27" fill="none" xmlns="http://www.w3.org/2000/svg">
<g clip-path="url(#clip0_2207_12489)">
<path d="M10.5943 3.86572H12.481V1.07666C12.481 0.561035 12.0474 0.127441 11.5318 0.127441C11.0162 0.127441 10.5943 0.561035 10.5943 1.07666V3.86572ZM7.61774 10.8735H18.5162C19.1842 10.8735 19.6529 10.686 20.0865 10.2641L22.3365 8.11963C23.192 7.29932 23.192 6.52588 22.3131 5.65869L20.0865 3.50244C19.6646 3.09228 19.1959 2.9165 18.5279 2.9165H7.61774C6.57477 2.9165 5.95368 3.49072 5.95368 4.56885V9.22119C5.95368 10.2876 6.57477 10.8735 7.61774 10.8735ZM8.01618 9.19775C7.80524 9.19775 7.62946 9.02197 7.62946 8.81103V4.979C7.62946 4.76806 7.80524 4.59228 8.01618 4.59228H18.4928C18.6803 4.59228 18.8795 4.65088 18.9967 4.75635L20.8834 6.60791C21.0592 6.76025 21.0709 7.01806 20.8834 7.19385L18.9732 9.01025C18.8443 9.12744 18.6568 9.19775 18.481 9.19775H8.01618ZM4.53571 20.6821H15.4342C16.4889 20.6821 17.0982 20.0962 17.0982 19.0297V14.3657C17.0982 13.2993 16.4889 12.7133 15.4342 12.7133H4.52399C3.86774 12.7133 3.39899 12.9008 2.96539 13.311L0.750555 15.4672C-0.128352 16.3227 -0.14007 17.1079 0.727117 17.9399L2.96539 20.0727C3.41071 20.4946 3.87946 20.6821 4.53571 20.6821ZM4.57086 19.0063C4.39508 19.0063 4.2193 18.936 4.09039 18.8188L2.16852 17.0141C1.99274 16.8383 2.00446 16.5688 2.16852 16.4165L4.06696 14.5649C4.18414 14.4594 4.38336 14.3891 4.55914 14.3891H15.0357C15.2467 14.3891 15.4224 14.5649 15.4224 14.7758V18.6196C15.4224 18.8305 15.2467 19.0063 15.0357 19.0063H4.57086ZM10.5943 13.4633H12.481V10.0532H10.5943V13.4633ZM10.5943 25.6508H12.481V19.3579H10.5943V25.6508ZM7.47711 26.5297H15.5748C16.0904 26.5297 16.5123 26.1079 16.5123 25.5922C16.5123 25.0766 16.0904 24.643 15.5748 24.643H7.47711C6.96149 24.643 6.53961 25.0766 6.53961 25.5922C6.53961 26.1079 6.96149 26.5297 7.47711 26.5297Z" fill="black" fill-opacity="0.85"/>
</g>
<defs>
<clipPath id="clip0_2207_12489">
<rect width="22.8912" height="26.4727" fill="white" transform="translate(0.0839844 0.127441)"/>
</clipPath>
</defs>
</svg>
