<svg width="24" height="25" viewBox="0 0 24 25" fill="none" xmlns="http://www.w3.org/2000/svg">
<g clip-path="url(#clip0_2207_12479)">
<path d="M12.0454 24.0336C18.5845 24.0336 23.9985 18.6079 23.9985 12.0805C23.9985 5.5415 18.5728 0.127441 12.0337 0.127441C5.50634 0.127441 0.0922852 5.5415 0.0922852 12.0805C0.0922852 18.6079 5.51807 24.0336 12.0454 24.0336ZM12.0454 22.0415C6.51417 22.0415 2.0962 17.6118 2.0962 12.0805C2.0962 6.54932 6.50244 2.11963 12.0337 2.11963C17.565 2.11963 22.0064 6.54932 22.0064 12.0805C22.0064 17.6118 17.5767 22.0415 12.0454 22.0415Z" fill="black" fill-opacity="0.85"/>
<path d="M7.83838 13.3462H11.3775V17.143H9.77198C9.4087 17.143 9.11573 17.4243 9.11573 17.7876C9.11573 18.1508 9.4087 18.4438 9.77198 18.4438H14.2837C14.647 18.4438 14.94 18.1508 14.94 17.7876C14.94 17.4243 14.647 17.143 14.2837 17.143H12.6782V13.3462H15.5142C16.0298 13.3462 16.2759 13.1821 16.5689 12.9008L18.1392 11.4126C18.7603 10.8149 18.7837 10.2172 18.1275 9.5962L16.5689 8.10792C16.2759 7.82667 16.0298 7.67433 15.5142 7.67433H12.6782V6.36183C12.6782 5.99854 12.3853 5.70557 12.0337 5.70557C11.6587 5.70557 11.3775 5.99854 11.3775 6.36183V7.67433H7.83838C7.05323 7.67433 6.60791 8.0962 6.60791 8.86964V12.1274C6.60791 12.9126 7.05323 13.3462 7.83838 13.3462Z" fill="black" fill-opacity="0.85"/>
</g>
<defs>
<clipPath id="clip0_2207_12479">
<rect width="23.9062" height="23.918" fill="white" transform="translate(0.0922852 0.127441)"/>
</clipPath>
</defs>
</svg>
