<svg width="26" height="29" viewBox="0 0 26 29" fill="none" xmlns="http://www.w3.org/2000/svg">
<g clip-path="url(#clip0_2207_21738)">
<path d="M0.00219727 20.3789C0.00219727 22.5703 1.11548 23.707 3.28345 23.707H14.1116C16.2795 23.707 17.4045 22.5703 17.4045 20.3789V8.95313C17.4045 7.92188 17.2053 7.38282 16.6077 6.78516L12.2717 2.44922C11.6624 1.83985 11.053 1.59375 10.092 1.59375H3.28345C1.11548 1.59375 0.00219727 2.73047 0.00219727 4.9336V20.3789ZM2.54517 18.7969V15.2578H6.47095C6.58814 15.2578 6.64673 15.3164 6.64673 15.4219V20.2734H4.02173C3.13111 20.2734 2.54517 19.6992 2.54517 18.7969ZM2.54517 14.0742V12.7266C2.54517 11.8008 3.13111 11.2383 4.02173 11.2383H9.81079V20.2734H7.83032V14.7187C7.83032 14.3203 7.59595 14.0742 7.16236 14.0742H2.54517ZM10.9944 20.2734V11.2383H12.1428C13.0452 11.2383 13.6077 11.8008 13.6077 12.7266V18.7969C13.6077 19.6992 13.0452 20.2734 12.1428 20.2734H10.9944Z" fill="black" fill-opacity="0.85"/>
<path d="M4.84204 23.5312C4.84204 26.6016 6.67017 28.4531 9.72876 28.4531H20.5569C23.6155 28.4531 25.4436 26.6016 25.4436 23.5312V12.1055C25.4436 10.5234 24.9866 9.62109 24.178 8.80078L19.842 4.46484C18.928 3.56249 17.8967 3.15234 16.5374 3.15234H9.72876C6.67017 3.15234 4.84204 5.0039 4.84204 8.08593V23.5312Z" fill="white"/>
<path d="M6.44751 23.5312C6.44751 25.7227 7.56079 26.8594 9.72876 26.8594H20.5569C22.7249 26.8594 23.8381 25.7227 23.8381 23.5312V12.1055C23.8381 11.0625 23.6389 10.5351 23.0413 9.93749L18.7053 5.60156C18.096 4.99218 17.4983 4.74609 16.5374 4.74609H9.72876C7.56079 4.74609 6.44751 5.88281 6.44751 8.08593V23.5312ZM10.2092 21.9492V18.4101H12.9045C13.0217 18.4101 13.0803 18.4687 13.0803 18.5742V23.4258H11.6741C10.7834 23.4258 10.2092 22.8516 10.2092 21.9492ZM10.2092 17.2266V15.8789C10.2092 14.9531 10.7834 14.3906 11.6741 14.3906H16.2444V23.4258H14.2639V17.8711C14.2639 17.4727 14.0295 17.2266 13.6077 17.2266H10.2092ZM17.428 23.4258V14.3906H18.5764C19.4788 14.3906 20.0413 14.9531 20.0413 15.8789V21.9492C20.0413 22.8516 19.4788 23.4258 18.5764 23.4258H17.428Z" fill="black" fill-opacity="0.85"/>
</g>
<defs>
<clipPath id="clip0_2207_21738">
<rect width="25.4414" height="28.3242" fill="white" transform="translate(0.00219727 0.128906)"/>
</clipPath>
</defs>
</svg>
