<svg width="25" height="24" viewBox="0 0 25 24" fill="none" xmlns="http://www.w3.org/2000/svg">
<g clip-path="url(#clip0_2207_12335)">
<path d="M11.1508 12.9375H13.0375V3.36329C13.0375 2.54297 13.5649 2.01563 14.3852 2.01563C15.2055 2.01563 15.7329 2.54297 15.7329 3.36329V5.33203C15.7329 5.84766 16.1665 6.28125 16.6821 6.28125C17.1977 6.28125 17.6196 5.84766 17.6196 5.33203V3.36329C17.6196 1.41797 16.3305 0.128906 14.3852 0.128906C12.4399 0.128906 11.1508 1.41797 11.1508 3.36329V12.9375ZM7.81104 12.9375H9.34619V9.86719C9.34619 9.29297 8.97119 8.92969 8.40869 8.92969H4.92823C4.50635 8.92969 4.15479 9.28125 4.15479 9.70313C4.15479 10.125 4.50635 10.4648 4.92823 10.4648H7.58838C7.72901 10.4648 7.81104 10.5586 7.81104 10.6875V12.9375ZM14.8422 12.9375H16.3774V10.6875C16.3774 10.5586 16.4594 10.4648 16.6001 10.4648H19.2602C19.6821 10.4648 20.0219 10.125 20.0219 9.70313C20.0219 9.28125 19.6821 8.92969 19.2602 8.92969H15.7797C15.2055 8.92969 14.8422 9.29297 14.8422 9.86719V12.9375ZM0.943848 14.0977H23.3618C23.8774 14.0977 24.2993 13.6641 24.2993 13.1484C24.2993 12.6328 23.8774 12.2109 23.3618 12.2109H0.943848C0.428223 12.2109 0.00634766 12.6328 0.00634766 13.1484C0.00634766 13.6641 0.428223 14.0977 0.943848 14.0977ZM6.75635 23.1211H17.5493C21.0532 23.1211 23.0688 21.2461 23.0688 17.9766V13.4766H21.1821V17.9766C21.1821 20.168 20.0219 21.2344 17.5493 21.2344H6.75635C4.29541 21.2344 3.13526 20.168 3.13526 17.9766V13.4766H1.24854V17.9766C1.24854 21.2461 3.25244 23.1211 6.75635 23.1211Z" fill="black" fill-opacity="0.85"/>
</g>
<defs>
<clipPath id="clip0_2207_12335">
<rect width="24.293" height="23.0273" fill="white" transform="translate(0.00634766 0.128906)"/>
</clipPath>
</defs>
</svg>
