<svg width="26" height="26" viewBox="0 0 26 26" fill="none" xmlns="http://www.w3.org/2000/svg">
<g clip-path="url(#clip0_2207_3203)">
<path d="M1.77051 24.2153C4.10254 26.5474 7.68848 26.5708 10.0088 24.2622L24.1065 10.1645C26.4502 7.82081 26.4502 4.21143 24.1065 1.8794C21.7744 -0.452634 18.165 -0.452634 15.833 1.86768L1.77051 15.9419C-0.573242 18.2739 -0.573242 21.8833 1.77051 24.2153ZM18.0127 5.85206C17.6729 5.51221 17.6729 4.96143 18.0127 4.62159C18.3525 4.27003 18.9268 4.27003 19.2666 4.62159C19.6182 4.96143 19.6182 5.51221 19.2666 5.85206C18.9268 6.20362 18.3525 6.20362 18.0127 5.85206ZM20.1221 7.96143C19.7822 7.62159 19.7822 7.04737 20.1221 6.70753C20.4619 6.36768 21.0127 6.36768 21.3643 6.70753C21.7041 7.04737 21.7041 7.62159 21.3643 7.96143C21.0127 8.31299 20.4619 8.31299 20.1221 7.96143ZM15.9268 7.96143C15.5869 7.62159 15.5869 7.04737 15.9385 6.69581C16.2783 6.35596 16.8291 6.35596 17.1689 6.69581C17.5088 7.04737 17.5088 7.62159 17.1689 7.96143C16.8291 8.30128 16.2783 8.30128 15.9268 7.96143ZM18.0127 10.0474C17.6729 9.70753 17.6729 9.14503 18.0127 8.80518C18.3643 8.45362 18.9385 8.45362 19.2783 8.80518C19.6182 9.14503 19.6182 9.70753 19.2783 10.0474C18.9385 10.3872 18.3643 10.3872 18.0127 10.0474ZM6.70411 17.1724C6.36426 16.8325 6.36426 16.27 6.70411 15.9302C7.04395 15.5903 7.60645 15.5903 7.94629 15.9302C8.29786 16.27 8.29786 16.8325 7.94629 17.1724C7.60645 17.5239 7.04395 17.5239 6.70411 17.1724ZM8.80176 19.2817C8.46192 18.9302 8.46192 18.3677 8.80176 18.0161C9.14161 17.6763 9.70411 17.6763 10.0439 18.0161C10.3955 18.3677 10.3955 18.9302 10.0439 19.2817C9.70411 19.6216 9.14161 19.6216 8.80176 19.2817ZM4.60645 19.27C4.26661 18.9302 4.26661 18.3677 4.60645 18.0161C4.95801 17.6645 5.50879 17.6645 5.86036 18.0161C6.2002 18.3677 6.2002 18.9302 5.86036 19.27C5.50879 19.6099 4.94629 19.6099 4.60645 19.27ZM6.70411 21.3677C6.36426 21.0278 6.36426 20.4653 6.70411 20.1255C7.04395 19.7739 7.61817 19.7739 7.95801 20.1255C8.29786 20.4653 8.29786 21.0278 7.95801 21.3677C7.61817 21.7075 7.04395 21.7075 6.70411 21.3677ZM11.8604 4.00049L12.2002 4.32862C12.6221 4.76221 13.2666 4.76221 13.7002 4.32862L15.6455 2.39503C16.0908 1.96143 16.0908 1.3169 15.6455 0.883304L15.3057 0.543461C14.8838 0.121585 14.2393 0.121585 13.8057 0.555179L11.8604 2.48878C11.4268 2.92237 11.4268 3.5669 11.8604 4.00049ZM21.6455 13.7856L21.9736 14.1138C22.4189 14.5356 23.0518 14.5356 23.4854 14.1138L25.4307 12.1685C25.8643 11.7466 25.8643 11.102 25.4307 10.6685L25.1025 10.3286C24.6689 9.90674 24.0244 9.90674 23.6025 10.3286L21.6455 12.2739C21.2119 12.7075 21.2119 13.352 21.6455 13.7856ZM0.551758 15.3091L0.891602 15.6489C1.3252 16.0708 1.95801 16.0708 2.39161 15.6489L4.33692 13.7036C4.75879 13.27 4.75879 12.6372 4.33692 12.1919L3.99708 11.8755C3.56348 11.4302 2.91895 11.4302 2.49708 11.8755L0.551758 13.7974C0.118165 14.231 0.118165 14.8872 0.551758 15.3091ZM10.3252 25.106L10.665 25.4341C11.0986 25.8677 11.7432 25.8677 12.165 25.4458L14.1104 23.5005C14.5439 23.0552 14.5439 22.4224 14.1104 21.9888L13.7822 21.6489C13.3486 21.2153 12.7041 21.2153 12.2705 21.6489L10.3252 23.5942C9.90332 24.0278 9.90332 24.6841 10.3252 25.106Z" fill="black" fill-opacity="0.85"/>
</g>
<defs>
<clipPath id="clip0_2207_3203">
<rect width="25.8516" height="25.8721" fill="white" transform="translate(0.0126953 0.128906)"/>
</clipPath>
</defs>
</svg>
