<svg width="24" height="25" viewBox="0 0 24 25" fill="none" xmlns="http://www.w3.org/2000/svg">
<g clip-path="url(#clip0_2207_24779)">
<path d="M11.9763 24.0351C18.5154 24.0351 23.9294 18.6094 23.9294 12.082C23.9294 5.54297 18.5037 0.128906 11.9646 0.128906C5.43725 0.128906 0.0231934 5.54297 0.0231934 12.082C0.0231934 18.6094 5.44897 24.0351 11.9763 24.0351Z" fill="black" fill-opacity="0.85"/>
<path d="M7.781 17.332C7.19507 17.332 6.79663 16.875 6.79663 16.3242C6.79663 16.043 6.93725 15.75 7.20678 15.4687L15.3044 7.25391C15.5623 6.98438 15.8435 6.84375 16.1365 6.84375C16.699 6.84375 17.156 7.28907 17.156 7.86329C17.156 8.13282 17.0037 8.4375 16.7459 8.69532L8.63647 16.9219C8.36694 17.1914 8.12085 17.332 7.781 17.332Z" fill="white"/>
</g>
<defs>
<clipPath id="clip0_2207_24779">
<rect width="23.9062" height="23.918" fill="white" transform="translate(0.0231934 0.128906)"/>
</clipPath>
</defs>
</svg>
