<svg width="24" height="25" viewBox="0 0 24 25" fill="none" xmlns="http://www.w3.org/2000/svg">
<g clip-path="url(#clip0_2207_24774)">
<path d="M11.9741 24.0351C18.5132 24.0351 23.9272 18.6094 23.9272 12.082C23.9272 5.54297 18.5015 0.128906 11.9624 0.128906C5.43506 0.128906 0.0209961 5.54297 0.0209961 12.082C0.0209961 18.6094 5.44678 24.0351 11.9741 24.0351ZM11.9741 22.043C6.44288 22.043 2.02491 17.6133 2.02491 12.082C2.02491 6.55079 6.43116 2.1211 11.9624 2.1211C17.4937 2.1211 21.9351 6.55079 21.9351 12.082C21.9351 17.6133 17.5054 22.043 11.9741 22.043Z" fill="black" fill-opacity="0.85"/>
<path d="M7.88428 17.168C8.21241 17.168 8.4585 17.0391 8.71631 16.7812L16.5913 8.78906C16.8374 8.54296 16.9898 8.24999 16.9898 7.98046C16.9898 7.42968 16.5444 7.00781 16.0054 7.00781C15.7241 7.00781 15.4546 7.13671 15.1968 7.39452L7.3335 15.3867C7.07569 15.6445 6.93506 15.9258 6.93506 16.207C6.93506 16.7344 7.32178 17.168 7.88428 17.168Z" fill="black" fill-opacity="0.85"/>
</g>
<defs>
<clipPath id="clip0_2207_24774">
<rect width="23.9062" height="23.918" fill="white" transform="translate(0.0209961 0.128906)"/>
</clipPath>
</defs>
</svg>
