<svg width="23" height="27" viewBox="0 0 23 27" fill="none" xmlns="http://www.w3.org/2000/svg">
<g clip-path="url(#clip0_2207_19869)">
<path d="M15.6949 26.3556C17.2418 26.3556 18.5074 25.0899 18.5074 23.5431C18.5074 21.9845 17.2418 20.7188 15.6949 20.7188C14.1363 20.7188 12.8707 21.9845 12.8707 23.5431C12.8707 25.0899 14.1363 26.3556 15.6949 26.3556ZM15.6949 24.9142C14.9215 24.9142 14.3238 24.3047 14.3238 23.5312C14.3238 22.7578 14.9215 22.1602 15.6949 22.1602C16.4684 22.1602 17.066 22.7578 17.066 23.5312C17.066 24.3047 16.4684 24.9142 15.6949 24.9142ZM13.8316 22.5938H0.987915C0.460571 22.5938 0.050415 23.0157 0.050415 23.5431C0.050415 24.0704 0.460571 24.4806 0.987915 24.4806H13.8316V22.5938ZM21.5074 22.5938H17.7223V24.4806H21.5074C21.9879 24.4806 22.4098 24.0704 22.4098 23.5431C22.4098 23.0157 21.9879 22.5938 21.5074 22.5938Z" fill="black" fill-opacity="0.85"/>
<path d="M11.3121 14.4609C13.8434 14.4609 15.941 12.3516 15.941 9.82032C15.941 7.26563 13.8434 5.15625 11.3121 5.15625C8.76916 5.15625 6.6715 7.26563 6.6715 9.82032C6.6715 12.3516 8.76916 14.4609 11.3121 14.4609ZM11.3121 0.128906C10.8082 0.128906 10.3746 0.574218 10.3746 1.07813V2.95313C10.3746 3.45703 10.8082 3.89063 11.3121 3.89063C11.816 3.89063 12.2613 3.45703 12.2613 2.95313V1.07813C12.2613 0.574218 11.816 0.128906 11.3121 0.128906ZM18.1559 2.96485C17.7809 2.60157 17.1949 2.61329 16.8316 2.96485L15.484 4.32422C15.1207 4.6875 15.1442 5.29688 15.484 5.64844C15.8473 6 16.4566 6.01172 16.8199 5.64844L18.1559 4.28907C18.5192 3.92579 18.5192 3.32813 18.1559 2.96485ZM20.9566 9.82032C20.9566 9.28125 20.5465 8.8711 20.0426 8.8711H18.1559C17.652 8.8711 17.2301 9.30469 17.2301 9.82032C17.2301 10.3242 17.652 10.7461 18.1559 10.7461H20.0426C20.5465 10.7461 20.9566 10.3477 20.9566 9.82032ZM18.1559 16.6641C18.5309 16.2656 18.5192 15.6914 18.1559 15.3398L16.8082 13.9922C16.4449 13.6172 15.8473 13.6406 15.484 13.9922C15.1324 14.3555 15.1207 14.9531 15.484 15.3164L16.8316 16.6641C17.1949 17.0156 17.7809 17.0039 18.1559 16.6641ZM11.3121 19.5C11.816 19.5 12.2613 19.0547 12.2613 18.5391V16.6758C12.2613 16.1719 11.816 15.7383 11.3121 15.7383C10.8082 15.7383 10.3746 16.1719 10.3746 16.6758V18.5391C10.3746 19.0547 10.8082 19.5 11.3121 19.5ZM4.46838 16.6523C4.81994 17.0039 5.44103 17.0156 5.7926 16.6641L7.14025 15.3164C7.49182 14.9648 7.4801 14.3672 7.14025 13.9922C6.77697 13.6406 6.15588 13.6172 5.80432 13.9922L4.46838 15.3398C4.11682 15.6914 4.11682 16.2656 4.46838 16.6523ZM1.6676 9.82032C1.6676 10.3477 2.07775 10.7461 2.58166 10.7461H4.46838C4.97229 10.7461 5.40588 10.3242 5.40588 9.82032C5.40588 9.30469 4.97229 8.8711 4.46838 8.8711H2.58166C2.07775 8.8711 1.6676 9.28125 1.6676 9.82032ZM4.4801 2.96485C4.14025 3.32813 4.11682 3.92579 4.46838 4.28907L5.80432 5.64844C6.1676 6.01172 6.76525 6 7.14025 5.64844C7.4801 5.27344 7.49182 4.67579 7.14025 4.32422L5.7926 2.96485C5.45275 2.625 4.84338 2.61329 4.4801 2.96485Z" fill="black" fill-opacity="0.85"/>
</g>
<defs>
<clipPath id="clip0_2207_19869">
<rect width="22.3594" height="26.2617" fill="white" transform="translate(0.050415 0.128906)"/>
</clipPath>
</defs>
</svg>
