<svg width="24" height="29" viewBox="0 0 24 29" fill="none" xmlns="http://www.w3.org/2000/svg">
<g clip-path="url(#clip0_2207_19849)">
<path d="M0.0314941 14.3543C0.0314941 20.8934 5.45727 26.3074 11.9846 26.3074C18.5237 26.3074 23.9377 20.8934 23.9377 14.3543C23.9377 8.5887 19.7307 3.70198 14.2463 2.62386V0.959792C14.2463 0.127761 13.6721 -0.0948949 13.0393 0.362136L9.30102 2.97542C8.76196 3.35042 8.75024 3.91292 9.30102 4.29964L13.0276 6.92464C13.6721 7.39339 14.2463 7.17073 14.2463 6.32698V4.66292C18.676 5.67073 21.9338 9.60823 21.9338 14.3543C21.9338 19.8856 17.5159 24.3153 11.9846 24.3153C6.45337 24.3153 2.01196 19.8856 2.02368 14.3543C2.0354 11.0262 3.65258 8.0848 6.14868 6.30355C6.62915 5.94026 6.78149 5.38948 6.48852 4.8973C6.19555 4.41683 5.55102 4.28792 5.0354 4.68636C2.02368 6.87776 0.0314941 10.4168 0.0314941 14.3543Z" fill="black" fill-opacity="0.85"/>
<path d="M6.4065 12.4444H12.2659V10.8975H6.4065C5.96119 10.8975 5.60962 11.249 5.60962 11.6709C5.60962 12.1045 5.96119 12.4444 6.4065 12.4444ZM13.9065 14.0381C15.2073 14.0381 16.2737 12.9717 16.2737 11.6592C16.2737 10.3584 15.2073 9.29199 13.9065 9.29199C12.594 9.29199 11.5276 10.3584 11.5276 11.6592C11.5276 12.9717 12.594 14.0381 13.9065 14.0381ZM13.9065 12.8311C13.2385 12.8311 12.7463 12.3155 12.7463 11.6592C12.7463 10.9912 13.2385 10.499 13.9065 10.499C14.551 10.499 15.0667 10.9912 15.0667 11.6592C15.0667 12.3155 14.551 12.8311 13.9065 12.8311ZM15.4417 12.4444H17.6096C18.0081 12.4444 18.3596 12.1045 18.3596 11.6709C18.3596 11.249 18.0081 10.8975 17.6096 10.8975H15.4417V12.4444ZM6.35962 18.7842H8.52759V17.2373H6.35962C5.96119 17.2373 5.60962 17.5772 5.60962 17.999C5.60962 18.4326 5.96119 18.7842 6.35962 18.7842ZM10.0627 20.378C11.387 20.378 12.4534 19.3115 12.4534 17.999C12.4534 16.6865 11.387 15.6201 10.0627 15.6201C8.76197 15.6201 7.69556 16.6865 7.69556 17.999C7.69556 19.3115 8.76197 20.378 10.0627 20.378ZM10.0627 19.1709C9.41822 19.1709 8.90259 18.6553 8.90259 17.9873C8.90259 17.3311 9.41822 16.8272 10.0627 16.8272C10.7307 16.8272 11.2463 17.3311 11.2463 17.9873C11.2463 18.6553 10.7307 19.1709 10.0627 19.1709ZM11.7034 18.7842H17.5627C18.0081 18.7842 18.3596 18.4326 18.3596 17.999C18.3596 17.5772 18.0081 17.2373 17.5627 17.2373H11.7034V18.7842Z" fill="black" fill-opacity="0.85"/>
</g>
<defs>
<clipPath id="clip0_2207_19849">
<rect width="23.9062" height="28.4626" fill="white" transform="translate(0.0314941 0.128906)"/>
</clipPath>
</defs>
</svg>
