<svg width="27" height="27" viewBox="0 0 27 27" fill="none" xmlns="http://www.w3.org/2000/svg">
<g clip-path="url(#clip0_2207_3541)">
<path d="M6.66403 1.9103C6.24215 2.15639 6.12496 2.6603 6.35934 3.07046L8.43356 6.67983C8.67965 7.08999 9.17184 7.23061 9.58199 6.98452C10.0039 6.75014 10.1211 6.24624 9.8984 5.8478L7.81246 2.22671C7.56637 1.82827 7.07418 1.68764 6.66403 1.9103Z" fill="black" fill-opacity="0.85"/>
<path d="M1.83589 6.74978C1.5898 7.17166 1.73042 7.66385 2.14058 7.90994L5.74995 9.99588C6.16011 10.2185 6.6523 10.1014 6.89839 9.69119C7.12105 9.26931 6.99214 8.77713 6.58198 8.53103L2.97261 6.4451C2.56245 6.22244 2.05855 6.33963 1.83589 6.74978Z" fill="black" fill-opacity="0.85"/>
<path d="M0.0546875 13.3594C0.0546875 13.8398 0.429688 14.2031 0.898438 14.2031H5.0586C5.53907 14.2031 5.90235 13.8398 5.90235 13.3594C5.90235 12.8906 5.53907 12.5273 5.0586 12.5273H0.898438C0.429688 12.5273 0.0546875 12.8906 0.0546875 13.3594Z" fill="black" fill-opacity="0.85"/>
<path d="M1.83589 19.9685C2.05855 20.3904 2.56245 20.5076 2.97261 20.2849L6.58198 18.199C6.99214 17.9529 7.13276 17.4607 6.89839 17.0506C6.6523 16.6287 6.16011 16.5115 5.74995 16.7342L2.14058 18.8201C1.73042 19.0662 1.5898 19.5584 1.83589 19.9685Z" fill="black" fill-opacity="0.85"/>
<path d="M6.66403 24.8087C7.07418 25.0431 7.56637 24.9024 7.81246 24.4923L9.8984 20.8829C10.1211 20.4728 10.0039 19.9806 9.59371 19.7462C9.17184 19.5118 8.67965 19.6407 8.43356 20.0509L6.35934 23.6602C6.12496 24.0704 6.24215 24.5743 6.66403 24.8087Z" fill="black" fill-opacity="0.85"/>
<path d="M13.2617 26.5781C13.7422 26.5781 14.1055 26.2031 14.1055 25.7344V21.5742C14.1055 21.1055 13.7422 20.7305 13.2617 20.7305C12.793 20.7305 12.4297 21.1055 12.4297 21.5742V25.7344C12.4297 26.2031 12.793 26.5781 13.2617 26.5781Z" fill="black" fill-opacity="0.85"/>
<path d="M19.8711 24.8086C20.293 24.5742 20.4102 24.0703 20.1875 23.6601L18.1016 20.0508C17.8672 19.6406 17.3633 19.5 16.9531 19.7344C16.5313 19.9805 16.4141 20.4727 16.6485 20.8828L18.7227 24.4922C18.9688 24.9023 19.4609 25.043 19.8711 24.8086Z" fill="black" fill-opacity="0.85"/>
<path d="M24.7109 19.9685C24.957 19.5584 24.8047 19.0662 24.4063 18.8201L20.7851 16.7342C20.3866 16.5115 19.8827 16.6287 19.6484 17.0389C19.414 17.4607 19.5429 17.9529 19.953 18.199L23.5624 20.2849C23.9726 20.5076 24.4766 20.3904 24.7109 19.9685Z" fill="black" fill-opacity="0.85"/>
<path d="M26.4805 13.3594C26.4805 12.8906 26.1172 12.5273 25.6367 12.5273H21.4766C21.0078 12.5273 20.6328 12.8906 20.6328 13.3594C20.6328 13.8398 21.0078 14.2031 21.4766 14.2031H25.6367C26.1172 14.2031 26.4805 13.8398 26.4805 13.3594Z" fill="black" fill-opacity="0.85"/>
<path d="M24.7226 6.76155C24.4765 6.33968 23.9726 6.22249 23.5624 6.44515L19.953 8.53108C19.5429 8.77718 19.4023 9.26936 19.6601 9.69124C19.8827 10.0897 20.3866 10.2185 20.7851 9.99593L24.4062 7.90999C24.8046 7.6639 24.9452 7.17171 24.7226 6.76155Z" fill="black" fill-opacity="0.85"/>
<path d="M19.8828 1.92184C19.4609 1.68746 18.9688 1.82809 18.7227 2.22653L16.6485 5.84762C16.4141 6.24606 16.5313 6.74996 16.9531 6.99606C17.3633 7.21871 17.8555 7.08981 18.1016 6.67965L20.1875 3.07028C20.4102 2.66012 20.293 2.15621 19.8828 1.92184Z" fill="black" fill-opacity="0.85"/>
<path d="M13.2617 0.152344C12.793 0.152344 12.4297 0.527344 12.4297 0.996094V5.15625C12.4297 5.625 12.793 6 13.2617 6C13.7422 6 14.1055 5.625 14.1055 5.15625V0.996094C14.1055 0.527344 13.7422 0.152344 13.2617 0.152344Z" fill="black" fill-opacity="0.85"/>
</g>
<defs>
<clipPath id="clip0_2207_3541">
<rect width="26.4258" height="26.4492" fill="white" transform="translate(0.0546875 0.128906)"/>
</clipPath>
</defs>
</svg>
