<svg width="24" height="25" viewBox="0 0 24 25" fill="none" xmlns="http://www.w3.org/2000/svg">
<g clip-path="url(#clip0_2207_4672)">
<path d="M12.0224 24.0351C18.5615 24.0351 23.9755 18.6094 23.9755 12.082C23.9755 5.54297 18.5498 0.128906 12.0107 0.128906C5.4834 0.128906 0.0693359 5.54297 0.0693359 12.082C0.0693359 18.6094 5.49512 24.0351 12.0224 24.0351ZM12.0224 22.043C6.49122 22.043 2.07325 17.6133 2.07325 12.082C2.07325 6.55079 6.4795 2.1211 12.0107 2.1211C17.542 2.1211 21.9834 6.55079 21.9834 12.082C21.9834 17.6133 17.5537 22.043 12.0224 22.043Z" fill="black" fill-opacity="0.85"/>
<path d="M8.92871 17.1562H16.8623C18.456 17.1562 19.5459 16.0312 19.5459 14.5898C19.5459 13.3477 18.6552 12.293 17.4599 12.0586C17.3662 10.5 16.1005 9.23438 14.5068 9.23438C13.4638 9.23438 12.5615 9.75 12.0224 10.5586C11.7412 10.4648 11.5068 10.418 11.2138 10.418C9.98339 10.418 8.9873 11.3203 8.7998 12.5156C7.53417 12.5508 6.53808 13.582 6.53808 14.8242C6.53808 16.1367 7.49902 17.1562 8.92871 17.1562ZM4.04199 11.4023C4.04199 12.5039 4.72167 13.4531 5.87011 13.8281C6.20995 12.8086 7.06542 12.0117 8.13183 11.7656C8.58886 10.4883 9.78417 9.58594 11.2138 9.58594C11.3779 9.58594 11.542 9.60938 11.706 9.63282C12.3623 8.88282 13.2763 8.46094 14.3076 8.42579C14.1318 7.80469 13.4638 7.23047 12.3857 7.23047C12.081 7.23047 11.8349 7.28907 11.5654 7.3711C11.0146 6.55079 10.124 6.03516 9.10449 6.03516C7.52245 6.03516 6.22167 7.30079 6.13964 8.84766C4.92089 9.10547 4.04199 10.1484 4.04199 11.4023Z" fill="black" fill-opacity="0.85"/>
</g>
<defs>
<clipPath id="clip0_2207_4672">
<rect width="23.9062" height="23.918" fill="white" transform="translate(0.0693359 0.128906)"/>
</clipPath>
</defs>
</svg>
