<svg width="29" height="21" viewBox="0 0 29 21" fill="none" xmlns="http://www.w3.org/2000/svg">
<g clip-path="url(#clip0_2207_4660)">
<path d="M19.4382 14.9883C22.1101 14.9883 24.0554 13.1016 24.0554 10.5117C24.0554 8.17969 22.2859 6.31641 19.9421 6.0586C19.4968 3.89063 17.6101 2.28516 15.3366 2.27344C14.8796 2.27344 14.4109 2.35547 14.0007 2.44922C12.9226 1.00781 11.2585 0.140625 9.43042 0.140625C6.53589 0.140625 4.13355 2.37891 3.84058 5.25C1.62573 5.83594 0.0671387 7.76953 0.0671387 10.0664C0.0671387 12.832 2.15308 14.9883 5.30542 14.9883H19.4382ZM19.4382 13.2187H5.30542C3.24292 13.2187 1.83667 11.9531 1.83667 10.0664C1.83667 8.48438 3.02026 7.125 4.56714 6.94922C5.36402 6.86719 5.58667 6.59766 5.58667 5.78907C5.58667 3.65625 7.29761 1.91016 9.43042 1.91016C10.9304 1.91016 12.2663 2.70703 12.8757 3.92579C13.1335 4.44141 13.4968 4.5586 14.1413 4.30079C14.6218 4.11329 14.8913 4.04297 15.3366 4.04297C16.9187 4.04297 18.1491 5.20313 18.278 6.8086C18.3366 7.5 18.6648 7.7461 19.4851 7.76953C21.0554 7.79297 22.2859 9 22.2859 10.5117C22.2859 12.1289 21.1374 13.2187 19.4382 13.2187Z" fill="black" fill-opacity="0.85"/>
<path d="M8.9148 20.6719H23.0476C26.1999 20.6719 28.2859 18.5039 28.2859 15.75C28.2859 13.4531 26.7273 11.5195 24.5124 10.9336C24.2194 8.0625 21.8171 5.82422 18.9226 5.82422C17.0944 5.82422 15.4304 6.69141 14.3523 8.13282C13.9421 8.03907 13.4733 7.95703 13.0163 7.95703C10.7429 7.95703 8.8562 9.5625 8.41089 11.7422C6.06714 12 4.28589 13.8633 4.28589 16.1953C4.28589 18.7734 6.24292 20.6719 8.9148 20.6719Z" fill="white"/>
<path d="M8.9148 20.6719H23.0476C26.1999 20.6719 28.2859 18.5039 28.2859 15.75C28.2859 13.4531 26.7273 11.5195 24.5124 10.9336C24.2194 8.0625 21.8171 5.82422 18.9226 5.82422C17.0944 5.82422 15.4304 6.69141 14.3523 8.13282C13.9421 8.03907 13.4733 7.95703 13.0163 7.95703C10.7429 7.95703 8.8562 9.5625 8.41089 11.7422C6.06714 12 4.28589 13.8633 4.28589 16.1953C4.28589 18.7734 6.24292 20.6719 8.9148 20.6719ZM8.9148 18.9023C7.21558 18.9023 6.05542 17.8008 6.05542 16.1953C6.05542 14.6719 7.29761 13.4766 8.86792 13.4531C9.68823 13.4297 10.0164 13.1836 10.0749 12.4922C10.2038 10.8867 11.4343 9.72657 13.0163 9.72657C13.4616 9.72657 13.7312 9.79688 14.2116 9.98438C14.8562 10.2305 15.2194 10.125 15.4773 9.60938C16.0866 8.39063 17.4226 7.60547 18.9226 7.59375C21.0554 7.59375 22.7663 9.33985 22.7663 11.4727C22.7663 12.2812 22.989 12.5391 23.7859 12.6328C25.3327 12.8086 26.5163 14.168 26.5163 15.75C26.5163 17.6367 25.1101 18.9023 23.0476 18.9023H8.9148Z" fill="black" fill-opacity="0.85"/>
</g>
<defs>
<clipPath id="clip0_2207_4660">
<rect width="28.2188" height="20.543" fill="white" transform="translate(0.0671387 0.128906)"/>
</clipPath>
</defs>
</svg>
