<svg width="21" height="24" viewBox="0 0 21 24" fill="none" xmlns="http://www.w3.org/2000/svg">
<g clip-path="url(#clip0_2207_4712)">
<path d="M10.4622 23.8242C10.9778 23.8242 11.2825 23.4609 11.2825 22.957V20.4141L13.2981 21.5625C13.7317 21.7969 14.177 21.7617 14.4231 21.3281C14.6341 20.9648 14.5052 20.5078 14.0598 20.2617L11.2825 18.6797V17.1914L11.0481 13.0078L14.5755 15.293L15.8763 16.0312L15.8528 19.2305C15.8528 19.7344 16.1692 20.0977 16.5794 20.0977C17.0833 20.0977 17.3411 19.7227 17.3411 19.2305L17.3528 16.8867L19.5677 18.1758C20.0247 18.4453 20.4583 18.3281 20.7044 17.9062C20.9505 17.4609 20.8216 17.0039 20.388 16.7578L18.1731 15.4805L20.1888 14.2969C20.6106 14.0391 20.7981 13.6406 20.552 13.2187C20.3177 12.8437 19.8723 12.7383 19.4388 12.9961L16.6848 14.6133L15.3841 13.875L11.5989 11.9766L15.3958 10.0781L16.6731 9.32813L19.427 10.9453C19.8606 11.2031 20.3411 11.0977 20.5638 10.7344C20.7981 10.3125 20.6106 9.90235 20.1888 9.64453L18.1731 8.47266L20.388 7.19532C20.8333 6.9375 20.9622 6.49219 20.7161 6.04688C20.47 5.625 20.0247 5.51953 19.5794 5.77735L17.3528 7.04297L17.3294 4.71094C17.3294 4.20703 17.0833 3.85547 16.5911 3.85547C16.1575 3.85547 15.8528 4.20703 15.8528 4.71094L15.8645 7.89844L14.5755 8.64844L11.0481 10.9453L11.2825 6.75V5.26172L14.0598 3.69141C14.5052 3.4336 14.6341 2.98829 14.4231 2.61329C14.177 2.19141 13.7317 2.14453 13.2981 2.39063L11.2825 3.53907V0.984375C11.2825 0.480468 10.9778 0.128906 10.4622 0.128906C9.97003 0.128906 9.65363 0.480468 9.65363 0.984375V3.53907L7.60285 2.39063C7.16925 2.14453 6.74738 2.19141 6.48957 2.61329C6.27863 2.98829 6.41925 3.4336 6.86457 3.67969L9.65363 5.26172V6.75L9.87628 10.9453L6.34894 8.64844L5.04816 7.89844L5.0716 4.71094C5.0716 4.20703 4.76691 3.85547 4.34503 3.85547C3.84113 3.85547 3.58332 4.21875 3.58332 4.71094L3.5716 7.04297L1.34503 5.77735C0.911445 5.53125 0.442695 5.625 0.20832 6.04688C-0.0494922 6.49219 0.0911324 6.94922 0.536445 7.19532L2.73957 8.47266L0.735664 9.64453C0.313789 9.90235 0.126289 10.2773 0.360664 10.7344C0.571601 11.1094 1.05207 11.2031 1.49738 10.9453L4.23957 9.33985L5.52863 10.0781L9.31378 11.9766L5.52863 13.875L4.23957 14.625L1.48566 12.9961C1.05207 12.7383 0.58332 12.8437 0.384101 13.207C0.138007 13.6641 0.313789 14.0391 0.735664 14.2969L2.75128 15.4805L0.536445 16.7578C0.102851 17.0039 -0.0377742 17.4727 0.20832 17.8945C0.466133 18.3398 0.911445 18.4219 1.34503 18.1758L3.5716 16.9101L3.58332 19.2305C3.58332 19.7227 3.84113 20.0977 4.33332 20.0977C4.75519 20.0977 5.0716 19.7344 5.0716 19.2305L5.05988 16.0312L6.34894 15.3047L9.87628 13.0078L9.65363 17.1914V18.6797L6.86457 20.2617C6.41925 20.5078 6.27863 20.9648 6.48957 21.3281C6.74738 21.7617 7.16925 21.7969 7.60285 21.5625L9.65363 20.4023V22.957C9.65363 23.4609 9.97003 23.8242 10.4622 23.8242Z" fill="black" fill-opacity="0.85"/>
</g>
<defs>
<clipPath id="clip0_2207_4712">
<rect width="20.7596" height="23.707" fill="white" transform="translate(0.079834 0.128906)"/>
</clipPath>
</defs>
</svg>
