<svg width="27" height="27" viewBox="0 0 27 27" fill="none" xmlns="http://www.w3.org/2000/svg">
<g clip-path="url(#clip0_2207_4726)">
<path d="M13.1127 24.9946C13.6283 24.9946 13.933 24.6313 13.933 24.1274V21.5844L15.9486 22.7329C16.3822 22.9672 16.8275 22.9321 17.0736 22.4985C17.2845 22.1352 17.1556 21.6782 16.7103 21.4321L13.933 19.8501V18.3618L13.6986 14.1782L17.2259 16.4633L18.5267 17.2016L18.5033 20.4008C18.5033 20.9047 18.8197 21.268 19.2298 21.268C19.7338 21.268 19.9916 20.893 19.9916 20.4008L20.0033 18.0571L22.2181 19.3461C22.6752 19.6157 23.1088 19.4985 23.3666 19.0766C23.6009 18.6313 23.472 18.1743 23.0384 17.9282L20.8236 16.6508L22.8392 15.4672C23.2611 15.2094 23.4486 14.811 23.2025 14.3891C22.9681 14.0141 22.5228 13.9086 22.0892 14.1665L19.3353 15.7836L18.0463 15.0454L14.2494 13.1469L18.0463 11.2485L19.3236 10.4985L22.0775 12.1157C22.5111 12.3735 22.9916 12.268 23.2142 11.9047C23.4486 11.4829 23.2611 11.0727 22.8392 10.8149L20.8236 9.64307L23.0384 8.36573C23.4838 8.10792 23.6127 7.66261 23.3666 7.21729C23.1205 6.79542 22.6752 6.68995 22.2298 6.94776L20.0033 8.21339L19.9798 5.88136C19.9798 5.37745 19.7338 5.02589 19.2416 5.02589C18.808 5.02589 18.5033 5.37745 18.5033 5.88136L18.515 9.06886L17.2259 9.81886L13.6986 12.1157L13.933 7.92042V6.43214L16.7103 4.86182C17.1556 4.60401 17.2845 4.1587 17.0736 3.7837C16.8275 3.36182 16.3822 3.31495 15.9486 3.56104L13.933 4.70948V2.15479C13.933 1.65089 13.6283 1.29932 13.1127 1.29932C12.6205 1.29932 12.3041 1.65089 12.3041 2.15479V4.70948L10.2533 3.56104C9.81972 3.31495 9.39785 3.36182 9.14003 3.7837C8.9291 4.1587 9.06972 4.60401 9.51503 4.85011L12.3041 6.43214V7.92042L12.5267 12.1157L8.99941 9.81886L7.69863 9.06886L7.72207 5.88136C7.72207 5.37745 7.41738 5.02589 6.9955 5.02589C6.4916 5.02589 6.23378 5.38917 6.23378 5.88136L6.22207 8.21339L4.00722 6.94776C3.56191 6.70167 3.09316 6.79542 2.85878 7.21729C2.60097 7.66261 2.75332 8.11964 3.18691 8.36573L5.39003 9.64307L3.38613 10.8149C2.96425 11.0727 2.77675 11.4477 3.01113 11.9047C3.22207 12.2797 3.70253 12.3735 4.14785 12.1157L6.89003 10.5102L8.1791 11.2485L11.9642 13.1469L8.1791 15.0454L6.89003 15.7954L4.13613 14.1665C3.70253 13.9086 3.23378 14.0141 3.04628 14.3774C2.78847 14.8344 2.96425 15.2094 3.38613 15.4672L5.40175 16.6508L3.18691 17.9282C2.75332 18.1743 2.61269 18.643 2.85878 19.0649C3.1166 19.5102 3.56191 19.5922 4.00722 19.3461L6.22207 18.0805L6.23378 20.4008C6.23378 20.893 6.4916 21.268 6.98378 21.268C7.40566 21.268 7.72207 20.9047 7.72207 20.4008L7.71035 17.2016L8.99941 16.4751L12.5267 14.1782L12.3041 18.3618V19.8501L9.51503 21.4321C9.06972 21.6782 8.9291 22.1352 9.14003 22.4985C9.39785 22.9321 9.81972 22.9672 10.2533 22.7329L12.3041 21.5727V24.1274C12.3041 24.6313 12.6205 24.9946 13.1127 24.9946Z" fill="black" fill-opacity="0.85"/>
<path d="M22.2534 25.5219C23.1557 26.4009 24.6089 26.4008 25.476 25.4868C26.3549 24.5961 26.3432 23.1782 25.4643 22.2993L3.97217 0.795418C3.09326 -0.0834893 1.65185 -0.0952073 0.749512 0.795418C-0.129395 1.66261 -0.129395 3.13917 0.749512 4.00636L22.2534 25.5219Z" fill="white"/>
<path d="M23.226 24.5494C23.5776 24.9009 24.1635 24.8892 24.5034 24.5377C24.8549 24.1861 24.8549 23.6119 24.5034 23.2603L3.01123 1.76808C2.65967 1.41652 2.07373 1.4048 1.72217 1.76808C1.3706 2.10793 1.3706 2.69387 1.72217 3.04543L23.226 24.5494Z" fill="black" fill-opacity="0.85"/>
</g>
<defs>
<clipPath id="clip0_2207_4726">
<rect width="26.0391" height="26.048" fill="white" transform="translate(0.090332 0.128906)"/>
</clipPath>
</defs>
</svg>
