<svg width="25" height="25" viewBox="0 0 25 25" fill="none" xmlns="http://www.w3.org/2000/svg">
<g clip-path="url(#clip0_2207_3054)">
<path d="M12.0517 24.0351C18.5908 24.0351 24.0048 18.6094 24.0048 12.082C24.0048 5.54297 18.5791 0.128906 12.04 0.128906C5.51269 0.128906 0.0986328 5.54297 0.0986328 12.082C0.0986328 18.6094 5.52441 24.0351 12.0517 24.0351Z" fill="black" fill-opacity="0.85"/>
<path d="M12.0517 18.5742C8.53613 18.5742 5.58301 15.6094 5.58301 12.0937C5.58301 8.5664 8.52441 5.61328 12.0517 5.61328C15.5674 5.61328 18.5322 8.57812 18.5322 12.0937C18.5322 15.6211 15.5791 18.5742 12.0517 18.5742ZM7.44629 15.082L9.30957 15.0469L10.2588 13.8047L9.69629 12.0469L7.95019 11.332L6.56738 12.1289C6.5791 13.2187 6.89551 14.2148 7.44629 15.082ZM7.72754 8.67187L8.23144 10.3125L9.98925 11.0273L11.5478 9.84374V7.99218L10.1767 6.91406C9.2041 7.2539 8.37207 7.88671 7.72754 8.67187ZM16.3877 8.67187C15.7666 7.88671 14.9111 7.2539 13.9384 6.91406L12.6025 7.96874V9.84374L14.1377 11.0273L15.8955 10.3125L16.3877 8.67187ZM16.6689 15.1055C17.2197 14.25 17.5478 13.2187 17.5595 12.1289L16.1767 11.332L14.4306 12.0469L13.8681 13.8164L14.8174 15.0703L16.6689 15.1055ZM12.0634 17.5781C12.5908 17.5781 13.1064 17.5078 13.5869 17.3555L13.9853 15.7031L13.1181 14.5781H10.9853L10.1416 15.668L10.54 17.3555C11.0205 17.4961 11.5361 17.5781 12.0634 17.5781Z" fill="white"/>
</g>
<defs>
<clipPath id="clip0_2207_3054">
<rect width="23.9062" height="23.918" fill="white" transform="translate(0.0986328 0.128906)"/>
</clipPath>
</defs>
</svg>
