<svg width="24" height="25" viewBox="0 0 24 25" fill="none" xmlns="http://www.w3.org/2000/svg">
<g clip-path="url(#clip0_2207_3039)">
<path d="M12.0476 24.0351C18.5867 24.0351 24.0007 18.6094 24.0007 12.082C24.0007 5.54297 18.575 0.128906 12.0359 0.128906C5.50854 0.128906 0.0944824 5.54297 0.0944824 12.082C0.0944824 18.6094 5.52026 24.0351 12.0476 24.0351ZM12.0476 22.043C6.51636 22.043 2.09839 17.6133 2.09839 12.082C2.09839 6.55079 6.50464 2.1211 12.0359 2.1211C17.5672 2.1211 22.0086 6.55079 22.0086 12.082C22.0086 17.6133 17.5789 22.043 12.0476 22.043Z" fill="black" fill-opacity="0.85"/>
<path d="M12.0359 18.375C15.4578 18.375 18.3172 15.5156 18.3172 12.0937C18.3172 8.6836 15.4461 5.8125 12.0359 5.8125C8.61401 5.8125 5.76636 8.67188 5.76636 12.0937C5.76636 15.5039 8.62573 18.375 12.0359 18.375ZM7.57104 14.9883C7.03198 14.1562 6.72729 13.1836 6.71557 12.1289L8.06323 11.3555L9.75073 12.0469L10.3015 13.7578L9.37573 14.9531L7.57104 14.9883ZM7.84057 8.77735C8.46167 8.01563 9.27026 7.39453 10.2195 7.06641L11.5437 8.1211V9.91407L10.032 11.0625L8.33276 10.3711L7.84057 8.77735ZM16.2429 8.77735L15.7625 10.3711L14.0633 11.0625L12.5633 9.91407V8.09766L13.864 7.06641C14.8133 7.39453 15.6336 8.01563 16.2429 8.77735ZM16.5125 15.0117L14.7195 14.9766L13.7937 13.7695L14.3445 12.0469L16.032 11.3555L17.3797 12.1289C17.3679 13.1836 17.0515 14.1797 16.5125 15.0117ZM12.0476 17.4141C11.532 17.4141 11.0398 17.332 10.5711 17.2031L10.1843 15.5625L11.0047 14.5078H13.0672L13.9109 15.5977L13.5242 17.2031C13.0554 17.3437 12.5633 17.4141 12.0476 17.4141Z" fill="black" fill-opacity="0.85"/>
</g>
<defs>
<clipPath id="clip0_2207_3039">
<rect width="23.9062" height="23.918" fill="white" transform="translate(0.0944824 0.128906)"/>
</clipPath>
</defs>
</svg>
