<svg width="25" height="25" viewBox="0 0 25 25" fill="none" xmlns="http://www.w3.org/2000/svg">
<g clip-path="url(#clip0_2207_3049)">
<path d="M12.0498 24.0351C18.5889 24.0351 24.0029 18.6094 24.0029 12.082C24.0029 5.54297 18.5772 0.128906 12.0381 0.128906C5.51074 0.128906 0.0966797 5.54297 0.0966797 12.082C0.0966797 18.6094 5.52246 24.0351 12.0498 24.0351Z" fill="black" fill-opacity="0.85"/>
<path d="M12.0615 18.3516C8.65137 18.3516 5.80371 15.4922 5.80371 12.082C5.80371 8.67188 8.63965 5.8125 12.0498 5.8125C15.4717 5.8125 18.3311 8.67188 18.3311 12.082C18.3311 15.4922 15.4717 18.3516 12.0615 18.3516ZM12.0615 6.76172C11.417 6.76172 10.7608 6.87891 10.1748 7.11329L11.6983 8.3086V9.94922L10.0459 11.2031L8.49902 10.582L7.93652 8.73047C7.18652 9.64453 6.71777 10.8047 6.71777 12.0937L8.21777 11.2617L9.84668 11.918L10.4678 13.8281L9.58887 14.9297L7.58496 14.9531C8.27637 16.0312 9.33106 16.8281 10.5733 17.1914L10.1514 15.3984L10.96 14.3672H13.1514L13.96 15.3984L13.5498 17.1914C14.7803 16.8281 15.835 16.0312 16.5264 14.9531L14.5342 14.9297L13.6436 13.8164L14.2647 11.918L15.8936 11.2617L17.3936 12.0937C17.3936 10.8047 16.9248 9.64453 16.1865 8.73047L15.6123 10.582L14.0655 11.2031L12.4248 9.94922V8.3086L13.9365 7.11329C13.3506 6.87891 12.7178 6.76172 12.0615 6.76172Z" fill="white"/>
</g>
<defs>
<clipPath id="clip0_2207_3049">
<rect width="23.9062" height="23.918" fill="white" transform="translate(0.0966797 0.128906)"/>
</clipPath>
</defs>
</svg>
