<svg width="36" height="21" viewBox="0 0 36 21" fill="none" xmlns="http://www.w3.org/2000/svg">
<g clip-path="url(#clip0_2207_12181)">
<path d="M7.42432 10.8179H17.1743V2.67334C17.1743 1.13818 16.1782 0.130371 14.7133 0.130371H5.79541C4.31885 0.130371 3.33447 1.13818 3.33447 2.67334V4.82959H3.6626C5.85401 4.82959 7.42432 6.41162 7.42432 8.62646V10.8179ZM18.5922 10.8179H28.3422V8.62646C28.3422 6.41162 29.9243 4.82959 32.104 4.82959H32.4321V2.67334C32.4321 1.13818 31.4477 0.130371 29.9711 0.130371H21.0532C19.5883 0.130371 18.5922 1.13818 18.5922 2.67334V10.8179ZM0.00634766 15.7515C0.00634766 17.2163 0.967286 18.189 2.40869 18.189H33.3579C34.7993 18.189 35.7602 17.2163 35.7602 15.7515V8.62646C35.7602 7.17334 34.7993 6.18896 33.3579 6.18896H32.104C30.6743 6.18896 29.7133 7.17334 29.7133 8.62646V12.1773H6.06494V8.62646C6.06494 7.17334 5.09229 6.18896 3.6626 6.18896H2.40869C0.967286 6.18896 0.00634766 7.17334 0.00634766 8.62646V15.7515ZM4.14307 20.6968H4.88135C5.51416 20.6968 5.9126 20.2984 5.9126 19.6656V17.1812H3.11182V19.6656C3.11182 20.2984 3.51026 20.6968 4.14307 20.6968ZM30.8852 20.6968H31.6235C32.2563 20.6968 32.6547 20.2984 32.6547 19.6656V17.1812H29.854V19.6656C29.854 20.2984 30.2641 20.6968 30.8852 20.6968Z" fill="black" fill-opacity="0.85"/>
</g>
<defs>
<clipPath id="clip0_2207_12181">
<rect width="35.7539" height="20.5898" fill="white" transform="translate(0.00634766 0.130371)"/>
</clipPath>
</defs>
</svg>
