<svg width="37" height="21" viewBox="0 0 37 21" fill="none" xmlns="http://www.w3.org/2000/svg">
<g clip-path="url(#clip0_2207_12177)">
<path d="M3.57837 7.02099H5.55884V3.06006C5.55884 2.47412 5.94556 2.09912 6.49634 2.09912H16.1994C16.7619 2.09912 17.1369 2.47412 17.1369 3.06006V12.3648H19.1175V3.04834C19.1175 1.29053 17.9808 0.130371 16.2933 0.130371H6.41431C4.71509 0.130371 3.57837 1.29053 3.57837 3.04834V7.02099ZM32.9338 7.02099V3.04834C32.9338 1.29053 31.7971 0.130371 30.0979 0.130371H19.9612C18.2737 0.130371 17.1369 1.29053 17.1369 3.04834V12.3648H19.1175V3.06006C19.1175 2.47412 19.4925 2.09912 20.055 2.09912H30.0159C30.5667 2.09912 30.9534 2.47412 30.9534 3.06006V7.02099H32.9338ZM0.00415039 15.5054C0.00415039 17.1929 1.11743 18.3062 2.78149 18.3062H33.4729C35.137 18.3062 36.2503 17.1929 36.2503 15.5054V8.38037C36.2503 6.70459 35.137 5.57959 33.4729 5.57959H31.8558C30.2034 5.57959 29.09 6.70459 29.09 8.38037V11.1929H7.17603V8.38037C7.17603 6.70459 6.05103 5.57959 4.39868 5.57959H2.78149C1.11743 5.57959 0.00415039 6.70459 0.00415039 8.38037V15.5054ZM1.99634 15.482V8.40381C1.99634 7.88818 2.3479 7.54834 2.87524 7.54834H4.29321C4.83227 7.54834 5.18384 7.88818 5.18384 8.40381V13.1616H31.0706V8.40381C31.0706 7.88818 31.4339 7.54834 31.9612 7.54834H33.3792C33.9065 7.54834 34.2697 7.88818 34.2697 8.40381V15.482C34.2697 15.9976 33.9065 16.3374 33.3792 16.3374H2.87524C2.3479 16.3374 1.99634 15.9976 1.99634 15.482ZM4.26977 20.6968H4.99634C5.62915 20.6968 6.03931 20.2984 6.03931 19.6656V17.1812H3.22681V19.6656C3.22681 20.2984 3.63696 20.6968 4.26977 20.6968ZM31.2581 20.6968H31.9846C32.6175 20.6968 33.0275 20.2984 33.0275 19.6656V17.1812H30.215V19.6656C30.215 20.2984 30.637 20.6968 31.2581 20.6968Z" fill="black" fill-opacity="0.85"/>
</g>
<defs>
<clipPath id="clip0_2207_12177">
<rect width="36.2461" height="20.5898" fill="white" transform="translate(0.00415039 0.130371)"/>
</clipPath>
</defs>
</svg>
