<svg width="40" height="20" viewBox="0 0 40 20" fill="none" xmlns="http://www.w3.org/2000/svg">
<g clip-path="url(#clip0_2207_5372)">
<path d="M5.86826 19.6656C9.52451 19.6656 11.6573 17.4976 11.6573 14.2046C11.6573 11.5093 10.6261 10.2085 7.54405 8.63818L6.39561 8.06396C4.5792 7.12646 3.95811 6.38818 3.95811 5.06396C3.95811 3.91553 4.71983 3.15381 5.86826 3.15381C7.11045 3.15381 7.77842 3.97412 7.94248 5.42725C7.96592 5.68506 8.10655 5.81396 8.34092 5.81396H10.9776C11.212 5.81396 11.3761 5.66162 11.3644 5.39209C11.2003 2.16943 9.46592 0.130371 5.86826 0.130371C2.34092 0.130371 0.278422 2.29834 0.278422 5.48584C0.278422 8.16943 1.37998 9.65771 4.22764 11.1577L5.37608 11.7671C7.2628 12.7632 7.97764 13.3843 7.97764 14.6382C7.97764 15.9273 7.27451 16.6421 5.93858 16.6421C4.55576 16.6421 3.74717 15.7866 3.58311 14.3452C3.55967 14.0874 3.4542 13.9468 3.20811 13.9468H0.39561C0.161235 13.9468 -0.00282803 14.0992 0.00889068 14.3687C0.20811 17.7671 2.05967 19.6656 5.86826 19.6656ZM19.6964 19.6656C24.0323 19.6656 26.3409 16.3726 26.3409 9.92725C26.3409 3.51709 24.0323 0.165527 19.6964 0.165527C15.3136 0.165527 13.0401 3.51709 13.0401 9.92725C13.0401 16.3726 15.3136 19.6656 19.6964 19.6656ZM19.6964 16.4781C17.7745 16.4781 16.8253 14.4507 16.8253 9.92725C16.8253 5.42725 17.7745 3.35303 19.6964 3.35303C21.5597 3.35303 22.5206 5.42725 22.5206 9.92725C22.5206 14.4507 21.5597 16.4781 19.6964 16.4781ZM33.5714 19.6656C37.2276 19.6656 39.3605 17.4976 39.3605 14.2046C39.3605 11.5093 38.3292 10.1968 35.2472 8.63818L34.0987 8.06396C32.2706 7.12646 31.6612 6.38818 31.6612 5.06396C31.6612 3.91553 32.423 3.15381 33.5714 3.15381C34.8136 3.15381 35.4698 3.97412 35.6339 5.42725C35.669 5.68506 35.8097 5.81396 36.044 5.81396H38.6808C38.9151 5.81396 39.0792 5.66162 39.0675 5.39209C38.88 2.16943 37.169 0.130371 33.5714 0.130371C30.044 0.130371 27.9815 2.29834 27.9815 5.48584C27.9815 8.16943 29.0831 9.64599 31.9308 11.1577L33.0792 11.7671C34.9659 12.7749 35.6808 13.3843 35.6808 14.6382C35.6808 15.9273 34.9776 16.6421 33.63 16.6421C32.2589 16.6421 31.4503 15.7866 31.2862 14.3452C31.2511 14.0874 31.1573 13.9468 30.9112 13.9468H28.0987C27.8644 13.9468 27.7003 14.0992 27.712 14.3687C27.9112 17.7671 29.7628 19.6656 33.5714 19.6656Z" fill="black" fill-opacity="0.85"/>
</g>
<defs>
<clipPath id="clip0_2207_5372">
<rect width="39.3522" height="19.582" fill="white" transform="translate(0.00830078 0.130371)"/>
</clipPath>
</defs>
</svg>
