<svg width="24" height="25" viewBox="0 0 24 25" fill="none" xmlns="http://www.w3.org/2000/svg">
<g clip-path="url(#clip0_2207_5376)">
<path d="M11.9636 24.0366C18.5027 24.0366 23.9167 18.6109 23.9167 12.0835C23.9167 5.54443 18.491 0.130371 11.9519 0.130371C5.42456 0.130371 0.010498 5.54443 0.010498 12.0835C0.010498 18.6109 5.43628 24.0366 11.9636 24.0366ZM11.9636 22.0445C6.43238 22.0445 2.01441 17.6148 2.01441 12.0835C2.01441 6.55225 6.42066 2.12256 11.9519 2.12256C17.4832 2.12256 21.9246 6.55225 21.9246 12.0835C21.9246 17.6148 17.4949 22.0445 11.9636 22.0445Z" fill="black" fill-opacity="0.85"/>
<path d="M6.53783 15.9273C7.99096 15.9273 8.85815 15.0366 8.85815 13.7242C8.85815 12.6343 8.41283 12.1304 7.22924 11.4859L6.78393 11.2398C6.11596 10.8765 5.90502 10.6187 5.90502 10.2085C5.90502 9.84521 6.16283 9.5874 6.53783 9.5874C6.91283 9.5874 7.11205 9.84521 7.21752 10.3609C7.25268 10.5249 7.32299 10.607 7.47533 10.607H8.48315C8.64721 10.607 8.75268 10.5015 8.75268 10.3374C8.74096 9.10693 8.02611 8.19287 6.53783 8.19287C5.10815 8.19287 4.2644 9.09521 4.2644 10.3726C4.2644 11.4507 4.72143 12.0484 5.84643 12.646L6.28002 12.8804C6.99487 13.2554 7.21752 13.4429 7.21752 13.8882C7.21752 14.3335 7.0183 14.5327 6.54955 14.5327C6.0808 14.5327 5.83471 14.2749 5.7644 13.7359C5.74096 13.5835 5.64721 13.5015 5.50658 13.5015H4.44018C4.27611 13.5015 4.15893 13.6187 4.17065 13.7827C4.18237 15.1187 4.99096 15.9273 6.53783 15.9273ZM11.9636 15.9273C13.698 15.9273 14.6238 14.6265 14.6238 12.0835C14.6238 9.56396 13.7097 8.19287 11.9636 8.19287C10.1941 8.19287 9.28002 9.56396 9.28002 12.0835C9.28002 14.6265 10.2058 15.9273 11.9636 15.9273ZM11.9636 14.4742C11.2957 14.4742 10.9675 13.7945 10.9675 12.0835C10.9675 10.3726 11.2957 9.66943 11.9636 9.66943C12.5964 9.66943 12.9128 10.3726 12.9128 12.0835C12.9128 13.7945 12.5964 14.4742 11.9636 14.4742ZM17.4128 15.9273C18.866 15.9273 19.7332 15.0366 19.7332 13.7242C19.7332 12.6343 19.2996 12.1304 18.1043 11.4859L17.6589 11.2398C16.991 10.8765 16.78 10.6187 16.78 10.2085C16.78 9.84521 17.0378 9.5874 17.4128 9.5874C17.7878 9.5874 17.9988 9.84521 18.0925 10.3609C18.1277 10.5249 18.198 10.607 18.3503 10.607H19.3582C19.5222 10.607 19.6277 10.5015 19.6277 10.3374C19.616 9.10693 18.9011 8.19287 17.4128 8.19287C15.9832 8.19287 15.1394 9.09521 15.1394 10.3726C15.1394 11.4507 15.5964 12.0484 16.7214 12.646L17.155 12.8804C17.8699 13.2671 18.0925 13.4429 18.0925 13.8882C18.0925 14.3335 17.905 14.5327 17.4246 14.5327C16.9558 14.5327 16.7097 14.2749 16.6394 13.7359C16.616 13.5835 16.5222 13.5015 16.3816 13.5015H15.3035C15.1511 13.5015 15.0339 13.6187 15.0339 13.7827C15.0574 15.1187 15.866 15.9273 17.4128 15.9273Z" fill="black" fill-opacity="0.85"/>
</g>
<defs>
<clipPath id="clip0_2207_5376">
<rect width="23.9062" height="23.918" fill="white" transform="translate(0.010498 0.130371)"/>
</clipPath>
</defs>
</svg>
