<svg width="29" height="16" viewBox="0 0 29 16" fill="none" xmlns="http://www.w3.org/2000/svg">
<g clip-path="url(#clip0_2207_3293)">
<path d="M0.0146484 12.564C0.0146484 14.1109 0.881837 15.0718 2.52246 15.0718H26.124C27.7646 15.0718 28.6318 14.1109 28.6318 12.564V8.52099C28.6318 7.98193 28.1982 7.54834 27.6591 7.54834C27.1084 7.54834 26.6748 7.98193 26.6748 8.52099V12.5171C26.6748 12.9507 26.3584 13.2554 25.9365 13.2554H2.70996C2.27637 13.2554 1.97168 12.9624 1.97168 12.5171V8.52099C1.97168 7.98193 1.53809 7.54834 0.987304 7.54834C0.448242 7.54834 0.0146484 7.98193 0.0146484 8.52099V12.564Z" fill="black" fill-opacity="0.85"/>
</g>
<defs>
<clipPath id="clip0_2207_3293">
<rect width="28.6172" height="14.9414" fill="white" transform="translate(0.0146484 0.130371)"/>
</clipPath>
</defs>
</svg>
