<svg width="23" height="23" viewBox="0 0 23 23" fill="none" xmlns="http://www.w3.org/2000/svg">
<g clip-path="url(#clip0_2207_4228)">
<path d="M11.4309 22.9351C11.8645 22.9351 12.216 22.6187 12.2863 22.1499C13.2941 14.3452 14.3957 13.232 22.0246 12.3882C22.5051 12.3413 22.8449 11.9898 22.8449 11.5327C22.8449 11.0757 22.5051 10.7242 22.0246 10.6656C14.3957 9.83349 13.2941 8.72021 12.2863 0.903809C12.216 0.435059 11.8645 0.130371 11.4309 0.130371C10.9973 0.130371 10.6457 0.435059 10.5754 0.903809C9.56763 8.72021 8.46607 9.83349 0.837158 10.6656C0.35669 10.7242 0.0168457 11.0757 0.0168457 11.5327C0.0168457 11.9898 0.35669 12.3413 0.837158 12.3882C8.46607 13.396 9.49732 14.357 10.5754 22.1499C10.6457 22.6187 10.9973 22.9351 11.4309 22.9351Z" fill="black" fill-opacity="0.85"/>
</g>
<defs>
<clipPath id="clip0_2207_4228">
<rect width="22.8281" height="22.8164" fill="white" transform="translate(0.0168457 0.130371)"/>
</clipPath>
</defs>
</svg>
