<svg width="22" height="30" viewBox="0 0 22 30" fill="none" xmlns="http://www.w3.org/2000/svg">
<g clip-path="url(#clip0_2207_4232)">
<path d="M10.2046 5.8374C10.3569 5.8374 10.439 5.74365 10.4624 5.60303C10.814 3.70459 10.7788 3.61084 12.8179 3.24756C12.9585 3.2124 13.0522 3.13037 13.0522 2.97803C13.0522 2.8374 12.9585 2.74365 12.8179 2.72021C10.7788 2.35693 10.814 2.26318 10.4624 0.364746C10.439 0.224121 10.3569 0.130371 10.2046 0.130371C10.0522 0.130371 9.97021 0.224121 9.94677 0.364746C9.59521 2.26318 9.63037 2.35693 7.5913 2.72021C7.43896 2.74365 7.35693 2.8374 7.35693 2.97803C7.35693 3.13037 7.43896 3.2124 7.5913 3.24756C9.63037 3.61084 9.59521 3.70459 9.94677 5.60303C9.97021 5.74365 10.0522 5.8374 10.2046 5.8374Z" fill="black" fill-opacity="0.85"/>
<path d="M4.53272 13.8999C4.75538 13.8999 4.90772 13.7476 4.93116 13.5366C5.35303 10.4077 5.4585 10.4077 8.69288 9.78662C8.89209 9.75146 9.04444 9.61084 9.04444 9.38818C9.04444 9.17725 8.89209 9.0249 8.69288 9.00146C5.4585 8.54443 5.34131 8.43896 4.93116 5.26318C4.90772 5.04053 4.75538 4.88818 4.53272 4.88818C4.32178 4.88818 4.16944 5.04053 4.13428 5.2749C3.75928 8.40381 3.5835 8.39209 0.372558 9.00146C0.17334 9.03662 0.0209961 9.17725 0.0209961 9.38818C0.0209961 9.62256 0.17334 9.75146 0.419434 9.78662C3.60694 10.3023 3.75928 10.3843 4.13428 13.5132C4.16944 13.7476 4.32178 13.8999 4.53272 13.8999Z" fill="black" fill-opacity="0.85"/>
<path d="M12.478 26.8609C12.7827 26.8609 13.0054 26.6382 13.064 26.3218C13.896 19.9116 14.7983 18.9273 21.1499 18.2242C21.478 18.189 21.7007 17.9546 21.7007 17.6382C21.7007 17.3335 21.478 17.0992 21.1499 17.064C14.7983 16.3609 13.896 15.3765 13.064 8.95459C13.0054 8.63818 12.7827 8.42725 12.478 8.42725C12.1733 8.42725 11.9507 8.63818 11.9038 8.95459C11.0718 15.3765 10.1577 16.3609 3.81787 17.064C3.47802 17.0992 3.25537 17.3335 3.25537 17.6382C3.25537 17.9546 3.47802 18.189 3.81787 18.2242C10.146 19.0562 11.0249 19.9116 11.9038 26.3218C11.9507 26.6382 12.1733 26.8609 12.478 26.8609Z" fill="black" fill-opacity="0.85"/>
</g>
<defs>
<clipPath id="clip0_2207_4232">
<rect width="21.6797" height="28.8867" fill="white" transform="translate(0.0209961 0.130371)"/>
</clipPath>
</defs>
</svg>
