<svg width="25" height="27" viewBox="0 0 25 27" fill="none" xmlns="http://www.w3.org/2000/svg">
<g clip-path="url(#clip0_2207_5448)">
<path d="M16.4028 23.6704C17.1762 23.6704 17.727 23.1196 17.727 22.3579V4.38136C17.727 3.61964 17.1762 2.99854 16.3794 2.99854C15.8403 2.99854 15.4653 3.23292 14.8676 3.80714L9.87549 8.49464C9.79346 8.56495 9.69971 8.60011 9.58252 8.60011H6.21924C4.63721 8.60011 3.77002 9.479 3.77002 11.1665V15.5258C3.77002 17.2251 4.63721 18.0922 6.21924 18.0922H9.58252C9.69971 18.0922 9.79346 18.1274 9.87549 18.1977L14.8676 22.9321C15.4067 23.4477 15.8637 23.6704 16.4028 23.6704Z" fill="black" fill-opacity="0.85"/>
<path d="M20.7973 25.8618C21.6997 26.7524 23.1528 26.7524 24.02 25.8383C24.8872 24.9594 24.8872 23.5415 24.0083 22.6508L3.94581 2.6001C3.05518 1.70947 1.60206 1.70947 0.711426 2.6001C-0.155762 3.46728 -0.155762 4.93213 0.711426 5.81103L20.7973 25.8618Z" fill="white"/>
<path d="M21.77 24.9008C22.1215 25.2524 22.6958 25.2524 23.0473 24.9008C23.3872 24.5376 23.3989 23.9751 23.0473 23.6235L2.97315 3.56103C2.62159 3.20947 2.03565 3.20947 1.68409 3.56103C1.34424 3.90088 1.34424 4.49853 1.68409 4.83838L21.77 24.9008Z" fill="black" fill-opacity="0.85"/>
</g>
<defs>
<clipPath id="clip0_2207_5448">
<rect width="24.6079" height="26.3965" fill="white" transform="translate(0.0610352 0.130371)"/>
</clipPath>
</defs>
</svg>
