<svg width="14" height="21" viewBox="0 0 14 21" fill="none" xmlns="http://www.w3.org/2000/svg">
<g clip-path="url(#clip0_2207_5398)">
<path d="M12.6769 20.814C13.4503 20.814 14.0011 20.2632 14.0011 19.5015V1.5249C14.0011 0.763183 13.4503 0.14209 12.6535 0.14209C12.1144 0.14209 11.7394 0.376465 11.1418 0.950683L6.14954 5.63818C6.06751 5.70849 5.97376 5.74365 5.85657 5.74365H2.49329C0.911255 5.74365 0.0440674 6.62256 0.0440674 8.31006V12.6695C0.0440674 14.3687 0.911255 15.2359 2.49329 15.2359H5.85657C5.97376 15.2359 6.06751 15.271 6.14954 15.3413L11.1418 20.0757C11.6808 20.5913 12.1379 20.814 12.6769 20.814Z" fill="black" fill-opacity="0.85"/>
</g>
<defs>
<clipPath id="clip0_2207_5398">
<rect width="13.957" height="20.6836" fill="white" transform="translate(0.0440674 0.130371)"/>
</clipPath>
</defs>
</svg>
