<svg width="24" height="25" viewBox="0 0 24 25" fill="none" xmlns="http://www.w3.org/2000/svg">
<g clip-path="url(#clip0_2207_5503)">
<path d="M12.0329 24.0484C18.572 24.0484 23.986 18.6343 23.986 12.0952C23.986 5.56787 18.5603 0.14209 12.0212 0.14209C5.49389 0.14209 0.079834 5.56787 0.079834 12.0952C0.079834 18.6343 5.50561 24.0484 12.0329 24.0484Z" fill="black" fill-opacity="0.85"/>
<path d="M16.5213 16.4078C16.2049 16.2203 16.1697 15.8219 16.3924 15.5055C17.0487 14.6266 17.4119 13.361 17.4119 12.0953C17.4119 10.7946 17.0487 9.57583 16.3924 8.65005C16.1815 8.34536 16.2283 7.97036 16.5213 7.75943C16.8143 7.54849 17.1776 7.6188 17.3885 7.92349C18.2322 9.09536 18.6658 10.5719 18.6658 12.0953C18.6658 13.6305 18.1971 15.1071 17.3885 16.2555C17.1893 16.5367 16.8377 16.6071 16.5213 16.4078Z" fill="white"/>
<path d="M14.3883 14.8138C14.0719 14.5794 14.0133 14.2161 14.2359 13.888C14.5641 13.431 14.7633 12.763 14.7633 12.095C14.7633 11.3802 14.5641 10.7122 14.2477 10.3021C14.0133 9.97396 14.0836 9.59896 14.3883 9.36459C14.6461 9.15365 15.0445 9.2474 15.2555 9.51693C15.7359 10.1849 16.0289 11.1341 16.0289 12.095C16.0289 13.0794 15.7477 14.0169 15.2555 14.6614C15.0328 14.9427 14.6461 15.0247 14.3883 14.8138Z" fill="white"/>
<path d="M11.6462 17.5445C11.3532 17.5445 11.1071 17.4273 10.8259 17.1577L8.20092 14.6499C8.16577 14.6148 8.09545 14.6031 8.03686 14.6031H6.26733C5.44702 14.6031 4.97827 14.1343 4.97827 13.2554V10.9468C4.97827 10.0679 5.44702 9.59913 6.26733 9.59913H8.03686C8.09545 9.59913 8.16577 9.58741 8.20092 9.55226L10.8259 7.06788C11.1423 6.77491 11.3415 6.646 11.6228 6.646C12.0446 6.646 12.3376 6.97413 12.3376 7.37257V16.8531C12.3376 17.2398 12.0446 17.5445 11.6462 17.5445Z" fill="white"/>
</g>
<defs>
<clipPath id="clip0_2207_5503">
<rect width="23.9062" height="23.918" fill="white" transform="translate(0.079834 0.130371)"/>
</clipPath>
</defs>
</svg>
