<svg width="29" height="21" viewBox="0 0 29 21" fill="none" xmlns="http://www.w3.org/2000/svg">
<g clip-path="url(#clip0_2207_5464)">
<path d="M27.7209 7.68896H24.9436V7.61865L27.8029 3.85693C28.0608 3.52881 28.1545 3.32959 28.1545 3.10693C28.1545 2.72021 27.8498 2.48584 27.4514 2.48584H23.5139C23.1272 2.48584 22.8576 2.73193 22.8576 3.11865C22.8576 3.51709 23.1272 3.76318 23.5139 3.76318H26.1389V3.81006L23.2443 7.57178C22.9865 7.8999 22.9045 8.09912 22.9045 8.35693C22.9045 8.70849 23.1858 8.96631 23.5959 8.96631H27.7209C28.1076 8.96631 28.3772 8.72021 28.3772 8.32178C28.3772 7.94678 28.1076 7.68896 27.7209 7.68896ZM20.8303 12.3765H18.8733V12.3296L20.9006 9.68115C21.135 9.37646 21.2404 9.17725 21.2404 8.95459C21.2404 8.59131 20.9475 8.38037 20.5608 8.38037H17.5725C17.2092 8.38037 16.9631 8.61475 16.9631 8.96631C16.9631 9.36475 17.2092 9.5874 17.5725 9.5874H19.3303V9.63428L17.3147 12.271C17.092 12.5757 16.9983 12.7632 16.9983 13.0093C16.9983 13.3492 17.2561 13.5952 17.6311 13.5952H20.8303C21.1936 13.5952 21.4397 13.3726 21.4397 12.9859C21.4397 12.6226 21.1936 12.3765 20.8303 12.3765ZM26.1272 16.689H24.4631V16.6421L26.174 14.357C26.4084 14.0406 26.4904 13.8765 26.4904 13.6656C26.4904 13.314 26.2209 13.1031 25.8693 13.1031H23.2326C22.8811 13.1031 22.6467 13.3257 22.6467 13.6773C22.6467 14.0406 22.8811 14.2515 23.2326 14.2515H24.6858V14.2984L22.9865 16.5835C22.7756 16.8765 22.6701 17.0523 22.6701 17.2749C22.6701 17.6031 22.9397 17.8374 23.2912 17.8374H26.1272C26.4553 17.8374 26.6897 17.6148 26.6897 17.2515C26.6897 16.9116 26.4553 16.689 26.1272 16.689Z" fill="black" fill-opacity="0.85"/>
<path d="M2.46704 15.2359H5.83032C5.93579 15.2359 6.02954 15.271 6.11157 15.3413L11.3967 20.0757C11.9592 20.5796 12.3928 20.814 12.9553 20.814C13.7053 20.814 14.2795 20.2632 14.2795 19.5015V1.5249C14.2795 0.763183 13.7053 0.14209 12.9319 0.14209C12.3693 0.14209 12.0061 0.399902 11.3967 0.950683L6.11157 5.63818C6.02954 5.70849 5.93579 5.74365 5.83032 5.74365H2.46704C0.873291 5.74365 0.0881348 6.55225 0.0881348 8.25146V12.7398C0.0881348 14.439 0.88501 15.2359 2.46704 15.2359ZM2.54907 13.5249C2.11547 13.5249 1.91625 13.3257 1.91625 12.8921V8.09912C1.91625 7.65381 2.11547 7.45459 2.54907 7.45459H6.29907C6.60375 7.45459 6.83813 7.39599 7.10766 7.1499L12.0998 2.61475C12.1584 2.55615 12.217 2.52099 12.299 2.52099C12.3811 2.52099 12.4514 2.57959 12.4514 2.68506V18.2593C12.4514 18.3648 12.3811 18.4351 12.299 18.4351C12.2404 18.4351 12.1701 18.3999 12.0998 18.3413L7.10766 13.8296C6.83813 13.5952 6.60375 13.5249 6.29907 13.5249H2.54907Z" fill="black" fill-opacity="0.85"/>
</g>
<defs>
<clipPath id="clip0_2207_5464">
<rect width="28.2891" height="20.6836" fill="white" transform="translate(0.0881348 0.130371)"/>
</clipPath>
</defs>
</svg>
