<svg width="22" height="22" viewBox="0 0 22 22" fill="none" xmlns="http://www.w3.org/2000/svg">
<g clip-path="url(#clip0_2207_5412)">
<path d="M3.74268 21.7281H17.9575C20.4185 21.7281 21.6372 20.5093 21.6372 18.0952V3.78662C21.6372 1.37256 20.4185 0.153809 17.9575 0.153809H3.74268C1.29346 0.153809 0.0629883 1.36084 0.0629883 3.78662V18.0952C0.0629883 20.521 1.29346 21.7281 3.74268 21.7281ZM3.76611 19.8413C2.59424 19.8413 1.94971 19.2202 1.94971 18.0015V3.88037C1.94971 2.66162 2.59424 2.04053 3.76611 2.04053H17.9341C19.0942 2.04053 19.7505 2.66162 19.7505 3.88037V18.0015C19.7505 19.2202 19.0942 19.8413 17.9341 19.8413H3.76611Z" fill="black" fill-opacity="0.85"/>
<path d="M13.0122 16.5366C13.4224 16.5366 13.7153 16.2437 13.7153 15.8218V6.06006C13.7153 5.66162 13.4224 5.32178 13.0005 5.32178C12.6958 5.32178 12.4966 5.45068 12.1568 5.75537L9.46143 8.29834C9.42627 8.34521 9.34424 8.35693 9.28565 8.35693H7.46924C6.60205 8.35693 6.1333 8.8374 6.1333 9.75146V12.1187C6.1333 13.0327 6.60205 13.5132 7.46924 13.5132H9.28565C9.34424 13.5132 9.42627 13.5366 9.46143 13.5718L12.1568 16.1382C12.4614 16.4195 12.7075 16.5366 13.0122 16.5366Z" fill="black" fill-opacity="0.85"/>
</g>
<defs>
<clipPath id="clip0_2207_5412">
<rect width="21.5742" height="21.5977" fill="white" transform="translate(0.0629883 0.130371)"/>
</clipPath>
</defs>
</svg>
