<svg width="15" height="21" viewBox="0 0 15 21" fill="none" xmlns="http://www.w3.org/2000/svg">
<g clip-path="url(#clip0_2207_5394)">
<path d="M2.42419 15.2359H5.77576C5.88123 15.2359 5.97498 15.271 6.05701 15.3413L11.3422 20.0757C11.9047 20.5796 12.3383 20.814 12.9008 20.814C13.6625 20.814 14.225 20.2632 14.225 19.5015V1.5249C14.225 0.763183 13.6625 0.14209 12.8774 0.14209C12.3148 0.14209 11.9633 0.399902 11.3422 0.950683L6.05701 5.63818C5.97498 5.70849 5.88123 5.74365 5.77576 5.74365H2.42419C0.830444 5.74365 0.0335693 6.55225 0.0335693 8.25146V12.7398C0.0335693 14.439 0.830444 15.2359 2.42419 15.2359ZM2.50623 13.5249C2.06091 13.5249 1.86169 13.3257 1.86169 12.8921V8.09912C1.86169 7.65381 2.06091 7.45459 2.50623 7.45459H6.25623C6.56091 7.45459 6.78357 7.39599 7.0531 7.1499L12.0453 2.61475C12.1039 2.55615 12.1742 2.52099 12.2445 2.52099C12.3266 2.52099 12.3969 2.57959 12.3969 2.68506V18.2593C12.3969 18.3648 12.3266 18.4351 12.2445 18.4351C12.1859 18.4351 12.1156 18.3999 12.057 18.3413L7.0531 13.8296C6.78357 13.5952 6.56091 13.5249 6.25623 13.5249H2.50623Z" fill="black" fill-opacity="0.85"/>
</g>
<defs>
<clipPath id="clip0_2207_5394">
<rect width="14.1914" height="20.6836" fill="white" transform="translate(0.0335693 0.130371)"/>
</clipPath>
</defs>
</svg>
