<svg width="27" height="21" viewBox="0 0 27 21" fill="none" xmlns="http://www.w3.org/2000/svg">
<g clip-path="url(#clip0_2207_5484)">
<path d="M22.5596 18.5171C22.9932 18.8101 23.5322 18.7046 23.8486 18.2593C25.3486 16.1968 26.2275 13.3609 26.2275 10.4663C26.2275 7.57183 25.3604 4.71245 23.8486 2.67339C23.5322 2.22808 22.9932 2.12261 22.5596 2.41558C22.126 2.70854 22.0557 3.25933 22.3955 3.7398C23.6729 5.54448 24.4111 7.97026 24.4111 10.4663C24.4111 12.9624 23.6494 15.3648 22.3955 17.1929C22.0674 17.6734 22.126 18.2242 22.5596 18.5171Z" fill="black" fill-opacity="0.85"/>
<path d="M18.2236 15.4586C18.6104 15.7282 19.1611 15.6461 19.4775 15.1891C20.3799 14.0055 20.919 12.2594 20.919 10.4664C20.919 8.67348 20.3799 6.9391 19.4775 5.74379C19.1611 5.28676 18.6104 5.19301 18.2236 5.47426C17.7432 5.80239 17.6729 6.38832 18.0361 6.86879C18.7158 7.80629 19.1025 9.10707 19.1025 10.4664C19.1025 11.8258 18.7041 13.1149 18.0361 14.0641C17.6846 14.5563 17.7432 15.1188 18.2236 15.4586Z" fill="black" fill-opacity="0.85"/>
<path d="M2.4502 15.2359H5.81348C5.91895 15.2359 6.0127 15.271 6.09473 15.3413L11.3799 20.0757C11.9424 20.5796 12.376 20.814 12.9385 20.814C13.6885 20.814 14.2627 20.2632 14.2627 19.5015V1.5249C14.2627 0.763183 13.6885 0.14209 12.9151 0.14209C12.3525 0.14209 11.9893 0.399902 11.3799 0.950683L6.09473 5.63818C6.0127 5.70849 5.91895 5.74365 5.81348 5.74365H2.4502C0.856445 5.74365 0.0712891 6.55225 0.0712891 8.25146V12.7398C0.0712891 14.439 0.868164 15.2359 2.4502 15.2359ZM2.53223 13.5249C2.09863 13.5249 1.89941 13.3257 1.89941 12.8921V8.09912C1.89941 7.65381 2.09863 7.45459 2.53223 7.45459H6.28223C6.58691 7.45459 6.82129 7.39599 7.09082 7.1499L12.083 2.61475C12.1416 2.55615 12.2002 2.52099 12.2822 2.52099C12.3643 2.52099 12.4346 2.57959 12.4346 2.68506V18.2593C12.4346 18.3648 12.3643 18.4351 12.2822 18.4351C12.2236 18.4351 12.1533 18.3999 12.083 18.3413L7.09082 13.8296C6.82129 13.5952 6.58691 13.5249 6.28223 13.5249H2.53223Z" fill="black" fill-opacity="0.85"/>
</g>
<defs>
<clipPath id="clip0_2207_5484">
<rect width="26.1562" height="20.6836" fill="white" transform="translate(0.0712891 0.130371)"/>
</clipPath>
</defs>
</svg>
