<svg width="29" height="21" viewBox="0 0 29 21" fill="none" xmlns="http://www.w3.org/2000/svg">
<g clip-path="url(#clip0_2207_5422)">
<path d="M17.7457 10.4663C17.7457 11.0406 18.1559 11.4273 18.7535 11.4273H22.1988V14.8843C22.1988 15.4702 22.5973 15.8804 23.1715 15.8804C23.7574 15.8804 24.1676 15.482 24.1676 14.8843V11.4273H27.6246C28.2106 11.4273 28.609 11.0406 28.609 10.4663C28.609 9.88037 28.2106 9.47021 27.6246 9.47021H24.1676V6.0249C24.1676 5.42725 23.7574 5.01709 23.1715 5.01709C22.5973 5.01709 22.1988 5.42725 22.1988 6.0249V9.47021H18.7535C18.1559 9.47021 17.7457 9.88037 17.7457 10.4663Z" fill="black" fill-opacity="0.85"/>
<path d="M2.42933 15.2359H5.7926C5.89808 15.2359 5.99183 15.271 6.07385 15.3413L11.359 20.0757C11.9215 20.5796 12.3551 20.814 12.9176 20.814C13.6676 20.814 14.2418 20.2632 14.2418 19.5015V1.5249C14.2418 0.763183 13.6676 0.14209 12.8942 0.14209C12.3316 0.14209 11.9684 0.399902 11.359 0.950683L6.07385 5.63818C5.99183 5.70849 5.89808 5.74365 5.7926 5.74365H2.42933C0.835571 5.74365 0.050415 6.55225 0.050415 8.25146V12.7398C0.050415 14.439 0.84729 15.2359 2.42933 15.2359ZM2.51135 13.5249C2.07775 13.5249 1.87854 13.3257 1.87854 12.8921V8.09912C1.87854 7.65381 2.07775 7.45459 2.51135 7.45459H6.26135C6.56603 7.45459 6.80042 7.39599 7.06994 7.1499L12.0621 2.61475C12.1207 2.55615 12.1793 2.52099 12.2613 2.52099C12.3434 2.52099 12.4137 2.57959 12.4137 2.68506V18.2593C12.4137 18.3648 12.3434 18.4351 12.2613 18.4351C12.2027 18.4351 12.1324 18.3999 12.0621 18.3413L7.06994 13.8296C6.80042 13.5952 6.56603 13.5249 6.26135 13.5249H2.51135Z" fill="black" fill-opacity="0.85"/>
</g>
<defs>
<clipPath id="clip0_2207_5422">
<rect width="28.5586" height="20.6836" fill="white" transform="translate(0.050415 0.130371)"/>
</clipPath>
</defs>
</svg>
