<svg width="29" height="23" viewBox="0 0 29 23" fill="none" xmlns="http://www.w3.org/2000/svg">
<g clip-path="url(#clip0_2207_11938)">
<path d="M12.8775 1.39599L6.84229 0.728027C5.77588 0.61084 5.02588 1.29053 5.02588 2.29834C5.02588 3.31787 5.77588 3.99756 6.84229 3.86865L12.8775 3.2124V1.39599ZM13.9439 4.46631C15.1509 4.46631 16.1235 3.50537 16.1235 2.29834C16.1235 1.10303 15.1509 0.130371 13.9439 0.130371C12.7485 0.130371 11.7759 1.10303 11.7759 2.29834C11.7759 3.50537 12.7485 4.46631 13.9439 4.46631ZM15.0103 1.39599V3.2124L21.0571 3.86865C22.1118 3.99756 22.8618 3.31787 22.8618 2.29834C22.8618 1.29053 22.1118 0.61084 21.0571 0.728027L15.0103 1.39599ZM12.9126 3.63428V6.3999H14.9868V3.63428H12.9126ZM15.8423 8.88428H17.4361V7.12646C17.4361 6.10693 16.7212 5.39209 15.7134 5.39209H12.1509C11.1314 5.39209 10.4165 6.10693 10.4165 7.12646V8.88428H12.0103V7.30225C12.0103 6.97412 12.2446 6.75146 12.5611 6.75146H15.3032C15.6196 6.75146 15.8423 6.97412 15.8423 7.30225V8.88428ZM13.9321 20.6851C15.9829 20.6851 17.2837 19.8179 18.6314 18.5757C19.1001 18.1304 19.6861 17.8843 20.2134 17.8843C21.1861 17.8843 21.9478 18.5992 21.9478 19.9351V21.5757C21.9478 22.2085 22.3814 22.6421 23.0142 22.6421H27.3032C27.9361 22.6421 28.3814 22.2085 28.3814 21.5757V20.4742C28.3814 13.5952 24.1626 11.2163 20.2954 11.2163H19.7915C19.6392 11.2163 19.522 11.1343 19.4751 11.0054L18.7603 9.08349C18.5142 8.39209 18.1392 8.09912 17.5064 8.09912H10.3462C9.71338 8.09912 9.35009 8.39209 9.09229 9.08349L8.38916 11.0054C8.33056 11.1343 8.21338 11.2163 8.07276 11.2163H0.842285V12.9273H8.18995C9.30323 12.9273 9.67823 12.4702 9.9712 11.6734L10.6509 9.81006H17.2134L17.8931 11.6734C18.1861 12.4702 18.5493 12.9273 19.6743 12.9273H20.2837C23.7173 12.9273 26.6821 14.8726 26.6821 20.4742V20.9312H23.6587V19.9351C23.6587 16.8765 21.8189 16.1499 20.3189 16.1499C19.147 16.1499 18.2681 16.6187 17.4361 17.4156C16.6743 18.107 15.7017 18.9742 13.9321 18.9742C12.1392 18.9742 11.0962 18.1656 10.2642 17.2398C9.53759 16.3726 8.96338 16.1148 7.76806 16.1148H0.842285V17.8257H7.67431C8.33056 17.8257 8.57666 17.896 9.01025 18.3882C10.2056 19.7007 11.8814 20.6851 13.9321 20.6851ZM1.02979 20.4273C1.55713 20.4273 1.97901 19.9937 1.97901 19.4781V9.90381C1.97901 9.38818 1.55713 8.95459 1.02979 8.95459C0.51416 8.95459 0.0922852 9.38818 0.0922852 9.90381V19.4781C0.0922852 19.9937 0.51416 20.4273 1.02979 20.4273Z" fill="black" fill-opacity="0.85"/>
</g>
<defs>
<clipPath id="clip0_2207_11938">
<rect width="28.2891" height="22.5352" fill="white" transform="translate(0.0922852 0.130371)"/>
</clipPath>
</defs>
</svg>
