<svg width="22" height="25" viewBox="0 0 22 25" fill="none" xmlns="http://www.w3.org/2000/svg">
<g clip-path="url(#clip0_2207_11926)">
<path d="M0.838379 10.749C1.29541 10.749 1.67041 10.374 1.67041 9.917C1.67041 9.45996 1.29541 9.08496 0.838379 9.08496C0.381348 9.08496 0.00634766 9.45996 0.00634766 9.917C0.00634766 10.374 0.381348 10.749 0.838379 10.749ZM3.2876 3.83496C3.74463 3.83496 4.11963 3.45996 4.11963 3.00293C4.11963 2.5459 3.74463 2.1709 3.2876 2.1709C2.83057 2.1709 2.45557 2.5459 2.45557 3.00293C2.45557 3.45996 2.83057 3.83496 3.2876 3.83496ZM10.5063 1.7959C10.9633 1.7959 11.3383 1.4209 11.3383 0.963867C11.3383 0.506836 10.9633 0.131836 10.5063 0.131836C10.0493 0.131836 9.67432 0.506836 9.67432 0.963867C9.67432 1.4209 10.0493 1.7959 10.5063 1.7959ZM17.7251 3.83496C18.1821 3.83496 18.5571 3.45996 18.5571 3.00293C18.5571 2.5459 18.1821 2.1709 17.7251 2.1709C17.268 2.1709 16.893 2.5459 16.893 3.00293C16.893 3.45996 17.268 3.83496 17.7251 3.83496ZM20.1743 10.749C20.6313 10.749 21.0063 10.374 21.0063 9.917C21.0063 9.45996 20.6313 9.08496 20.1743 9.08496C19.7172 9.08496 19.3422 9.45996 19.3422 9.917C19.3422 10.374 19.7172 10.749 20.1743 10.749Z" fill="black" fill-opacity="0.85"/>
<path d="M4.33057 10.749C4.7876 10.749 5.1626 10.374 5.1626 9.91699C5.1626 9.45995 4.7876 9.08495 4.33057 9.08495C3.87354 9.08495 3.49854 9.45995 3.49854 9.91699C3.49854 10.374 3.87354 10.749 4.33057 10.749ZM5.76026 6.30761C6.21729 6.30761 6.59229 5.93261 6.59229 5.47558C6.59229 5.01855 6.21729 4.64355 5.76026 4.64355C5.30323 4.64355 4.92823 5.01855 4.92823 5.47558C4.92823 5.93261 5.30323 6.30761 5.76026 6.30761ZM10.5063 5.2998C10.9633 5.2998 11.3383 4.9248 11.3383 4.46777C11.3383 4.01074 10.9633 3.63574 10.5063 3.63574C10.0493 3.63574 9.67431 4.01074 9.67431 4.46777C9.67431 4.9248 10.0493 5.2998 10.5063 5.2998ZM15.2524 6.30761C15.7094 6.30761 16.0844 5.93261 16.0844 5.47558C16.0844 5.01855 15.7094 4.64355 15.2524 4.64355C14.7836 4.64355 14.4204 5.01855 14.4204 5.47558C14.4204 5.93261 14.7836 6.30761 15.2524 6.30761ZM16.6704 10.749C17.1274 10.749 17.5024 10.374 17.5024 9.91699C17.5024 9.45995 17.1274 9.08495 16.6704 9.08495C16.2133 9.08495 15.8383 9.45995 15.8383 9.91699C15.8383 10.374 16.2133 10.749 16.6704 10.749Z" fill="black" fill-opacity="0.85"/>
<path d="M8.27979 11.5107H12.7211C13.4946 11.5107 14.0454 10.9599 14.0454 10.1865V9.36622C14.0454 8.10059 13.1196 7.20996 11.7836 7.20996H9.21729C7.89307 7.20996 6.96729 8.10059 6.96729 9.36622V10.1865C6.96729 10.9599 7.51807 11.5107 8.27979 11.5107ZM8.78369 10.0459C8.60791 10.0459 8.49073 9.92872 8.49073 9.74122V9.36622C8.49073 8.88575 8.74854 8.67481 9.27588 8.67481H11.7251C12.2524 8.67481 12.5219 8.88575 12.5219 9.36622V9.74122C12.5219 9.92872 12.4047 10.0459 12.2172 10.0459H8.78369ZM8.27979 17.124H12.7211C13.4946 17.124 14.0454 16.5849 14.0454 15.7998V14.0537C14.0454 13.2685 13.4946 12.7295 12.7211 12.7295H8.27979C7.51807 12.7295 6.96729 13.2685 6.96729 14.0537V15.7998C6.96729 16.5849 7.51807 17.124 8.27979 17.124ZM8.7251 15.6474C8.54932 15.6474 8.43213 15.542 8.43213 15.3545V14.499C8.43213 14.3115 8.54932 14.1943 8.7251 14.1943H12.2758C12.4633 14.1943 12.5805 14.3115 12.5805 14.499V15.3545C12.5805 15.542 12.4633 15.6474 12.2758 15.6474H8.7251ZM8.51416 13.7256H10.0844V10.7138H8.51416V13.7256ZM10.9282 13.7256H12.4985V10.7138H10.9282V13.7256ZM8.27979 22.1748H9.8501V16.5146H8.27979V22.1748ZM11.1625 22.1748H12.7329V16.5146H11.1625V22.1748ZM1.14307 23.1474H19.8696C20.3735 23.1474 20.7954 22.7256 20.7954 22.2216C20.7954 21.706 20.3735 21.2841 19.8696 21.2841H1.14307C0.639159 21.2841 0.205566 21.706 0.205566 22.2216C0.205566 22.7256 0.639159 23.1474 1.14307 23.1474Z" fill="black" fill-opacity="0.85"/>
</g>
<defs>
<clipPath id="clip0_2207_11926">
<rect width="21" height="23.9648" fill="white" transform="translate(0.00634766 0.131836)"/>
</clipPath>
</defs>
</svg>
