<svg width="25" height="20" viewBox="0 0 25 20" fill="none" xmlns="http://www.w3.org/2000/svg">
<g clip-path="url(#clip0_2207_11918)">
<path d="M9.62524 5.10059H15.0276C15.8948 5.10059 16.4925 4.49122 16.4925 3.62403V2.62793C16.4925 1.16309 15.4377 0.143555 13.8909 0.143555H10.762C9.21509 0.143555 8.1604 1.16309 8.1604 2.62793V3.62403C8.1604 4.49122 8.75806 5.10059 9.62524 5.10059ZM10.0237 3.43653C9.89477 3.43653 9.81274 3.36622 9.81274 3.23731V2.62793C9.81274 2.07715 10.1526 1.7959 10.762 1.7959H13.8909C14.5002 1.7959 14.8401 2.07715 14.8401 2.62793V3.23731C14.8401 3.36622 14.758 3.43653 14.6409 3.43653H10.0237ZM9.63696 11.9209H15.0276C15.8948 11.9209 16.4925 11.3232 16.4925 10.4443V8.32325C16.4925 7.45606 15.8948 6.8584 15.0276 6.8584H9.63696C8.76977 6.8584 8.1604 7.45606 8.1604 8.32325V10.4443C8.1604 11.3232 8.76977 11.9209 9.63696 11.9209ZM10.0237 10.2685C9.89477 10.2685 9.81274 10.1865 9.81274 10.0576V8.70996C9.81274 8.59278 9.89477 8.51075 10.0237 8.51075H14.6409C14.758 8.51075 14.8401 8.59278 14.8401 8.70996V10.0576C14.8401 10.1865 14.758 10.2685 14.6409 10.2685H10.0237ZM10.0354 7.80762H11.6878V4.40918H10.0354V7.80762ZM12.9769 7.80762H14.6292V4.40918H12.9769V7.80762ZM10.0354 18.1435H11.6878V11.4521H10.0354V18.1435ZM12.9769 18.1435H14.6292V11.4521H12.9769V18.1435ZM0.94165 19.2685H23.7112C24.2269 19.2685 24.6604 18.8466 24.6604 18.3193C24.6604 17.8037 24.2269 17.3818 23.7112 17.3818H0.94165C0.426025 17.3818 0.00415039 17.8037 0.00415039 18.3193C0.00415039 18.8466 0.426025 19.2685 0.94165 19.2685Z" fill="black" fill-opacity="0.85"/>
</g>
<defs>
<clipPath id="clip0_2207_11918">
<rect width="24.6562" height="19.1367" fill="white" transform="translate(0.00415039 0.131836)"/>
</clipPath>
</defs>
</svg>
