<svg width="24" height="27" viewBox="0 0 24 27" fill="none" xmlns="http://www.w3.org/2000/svg">
<g clip-path="url(#clip0_2207_21322)">
<path d="M0.0356445 8.37227V18.9894C0.0356445 20.9582 1.21923 21.591 2.85986 20.6418L12.0356 15.3449C13.184 14.6886 13.5004 14.0207 13.5004 12.7785V1.85665C13.5004 0.192582 12.0239 -0.229293 10.8637 0.426957L1.47705 5.85274C0.434083 6.46212 0.0356445 7.15352 0.0356445 8.37227ZM2.46142 7.55196L11.3911 2.39571C11.5083 2.3254 11.5903 2.38399 11.5903 2.50118V12.7433C11.5903 13.2004 11.4848 13.3996 11.0864 13.634L2.12158 18.8019C2.01611 18.8605 1.9458 18.8254 1.9458 18.7082V8.44259C1.9458 7.93868 2.08642 7.77462 2.46142 7.55196Z" fill="black" fill-opacity="0.85"/>
<path d="M4.71143 11.0676V21.6966C4.71143 23.6536 5.88331 24.2864 7.53565 23.3489L16.7114 18.0403C17.8598 17.3841 18.1762 16.7161 18.1762 15.4739V4.55206C18.1762 2.89972 16.6997 2.46612 15.5395 3.13409L6.15284 8.54815C5.09815 9.16925 4.71143 9.86065 4.71143 11.0676Z" fill="white"/>
<path d="M4.71143 11.0676V21.6966C4.71143 23.6536 5.88331 24.2864 7.53565 23.3489L16.7114 18.0403C17.8598 17.3841 18.1762 16.7161 18.1762 15.4739V4.55206C18.1762 2.89972 16.6997 2.46612 15.5395 3.13409L6.15284 8.54815C5.09815 9.16925 4.71143 9.86065 4.71143 11.0676ZM7.13721 10.2473L16.0668 5.09112C16.184 5.02081 16.2661 5.09112 16.2661 5.19659V15.4387C16.2661 15.8958 16.1606 16.095 15.7622 16.3294L6.79737 21.4973C6.6919 21.5559 6.62159 21.5208 6.62159 21.4036V11.138C6.62159 10.6341 6.76221 10.47 7.13721 10.2473Z" fill="black" fill-opacity="0.85"/>
<path d="M9.69189 13.9971V24.626C9.69189 26.5831 10.8754 27.2276 12.5161 26.2784L21.6918 20.9698C22.8403 20.3135 23.1567 19.6456 23.1567 18.4034V7.48147C23.1567 5.82912 21.6801 5.40725 20.52 6.0635L11.1333 11.4893C10.0903 12.0987 9.69189 12.7901 9.69189 13.9971Z" fill="white"/>
<path d="M9.69189 13.9971V24.626C9.69189 26.5831 10.8754 27.2276 12.5161 26.2784L21.6918 20.9698C22.8403 20.3135 23.1567 19.6456 23.1567 18.4034V7.48147C23.1567 5.82912 21.6801 5.40725 20.52 6.0635L11.1333 11.4893C10.0903 12.0987 9.69189 12.7901 9.69189 13.9971ZM12.1176 13.1768L21.0473 8.02053C21.1645 7.96194 21.2465 8.02053 21.2465 8.126V18.3682C21.2465 18.837 21.1528 19.0245 20.7544 19.2589L11.7778 24.4385C11.6723 24.4971 11.602 24.4503 11.602 24.3331V14.0674C11.602 13.5635 11.7426 13.3995 12.1176 13.1768Z" fill="black" fill-opacity="0.85"/>
</g>
<defs>
<clipPath id="clip0_2207_21322">
<rect width="23.1211" height="26.7348" fill="white" transform="translate(0.0356445 0.131836)"/>
</clipPath>
</defs>
</svg>
