<svg width="24" height="26" viewBox="0 0 24 26" fill="none" xmlns="http://www.w3.org/2000/svg">
<g clip-path="url(#clip0_2207_21298)">
<path d="M11.9912 25.128C12.4599 25.128 12.9169 24.9757 13.4794 24.6475L22.6435 19.3155C23.5927 18.7647 23.9677 18.3428 23.9677 17.6983C23.9677 17.0538 23.5927 16.6319 22.6435 16.0694L13.4794 10.7491C12.9169 10.421 12.4599 10.2686 11.9912 10.2686C11.5107 10.2686 11.0654 10.421 10.5029 10.7491L1.32715 16.0694C0.377929 16.6319 0.0146484 17.0538 0.0146484 17.6983C0.0146484 18.3428 0.377929 18.7647 1.32715 19.3155L10.5029 24.6475C11.0654 24.9757 11.5107 25.128 11.9912 25.128ZM11.9912 23.0772C11.8271 23.0772 11.663 23.0186 11.4638 22.9131L2.5459 17.8155C2.49903 17.7803 2.46387 17.7569 2.46387 17.6983C2.46387 17.6397 2.49903 17.6046 2.5459 17.5811L11.4638 12.4835C11.663 12.3663 11.8271 12.3194 11.9912 12.3194C12.1552 12.3194 12.3193 12.3663 12.5068 12.4835L21.4248 17.5811C21.4834 17.6046 21.5185 17.6397 21.5185 17.6983C21.5185 17.7569 21.4834 17.7803 21.4248 17.8155L12.5068 22.9131C12.3193 23.0186 12.1552 23.0772 11.9912 23.0772Z" fill="black" fill-opacity="0.85"/>
<path d="M11.9912 15.5185C12.4599 15.5185 12.9169 15.3662 13.4794 15.038L22.6435 9.71778C23.5927 9.15528 23.9677 8.7334 23.9677 8.08887C23.9677 7.44434 23.5927 7.02246 22.6435 6.47168L13.4794 1.13965C12.9169 0.811524 12.4599 0.65918 11.9912 0.65918C11.5107 0.65918 11.0654 0.811524 10.5029 1.13965L1.32715 6.47168C0.377929 7.02246 0.0146484 7.44434 0.0146484 8.08887C0.0146484 8.7334 0.377929 9.15528 1.32715 9.71778L10.5029 15.038C11.0654 15.3662 11.5107 15.5185 11.9912 15.5185Z" fill="white"/>
<path d="M11.9912 15.5185C12.4599 15.5185 12.9169 15.3662 13.4794 15.038L22.6435 9.71778C23.5927 9.15528 23.9677 8.7334 23.9677 8.08887C23.9677 7.44434 23.5927 7.02246 22.6435 6.47168L13.4794 1.13965C12.9169 0.811524 12.4599 0.65918 11.9912 0.65918C11.5107 0.65918 11.0654 0.811524 10.5029 1.13965L1.32715 6.47168C0.377929 7.02246 0.0146484 7.44434 0.0146484 8.08887C0.0146484 8.7334 0.377929 9.15528 1.32715 9.71778L10.5029 15.038C11.0654 15.3662 11.5107 15.5185 11.9912 15.5185ZM11.9912 13.4677C11.8271 13.4677 11.663 13.4209 11.4638 13.3037L2.5459 8.20606C2.49903 8.18262 2.46387 8.14746 2.46387 8.08887C2.46387 8.03028 2.49903 8.00684 2.5459 7.97168L11.4638 2.87403C11.663 2.76856 11.8271 2.70996 11.9912 2.70996C12.1552 2.70996 12.3193 2.76856 12.5068 2.87403L21.4248 7.97168C21.4834 8.00684 21.5185 8.03028 21.5185 8.08887C21.5185 8.14746 21.4834 8.18262 21.4248 8.20606L12.5068 13.3037C12.3193 13.4209 12.1552 13.4677 11.9912 13.4677Z" fill="black" fill-opacity="0.85"/>
</g>
<defs>
<clipPath id="clip0_2207_21298">
<rect width="23.9531" height="24.9961" fill="white" transform="translate(0.0146484 0.131836)"/>
</clipPath>
</defs>
</svg>
