<svg width="28" height="22" viewBox="0 0 28 22" fill="none" xmlns="http://www.w3.org/2000/svg">
<g clip-path="url(#clip0_2207_2426)">
<path d="M3.75098 21.706H24.0244C26.4854 21.706 27.7041 20.499 27.7041 18.0849V3.76465C27.7041 1.35059 26.4854 0.131836 24.0244 0.131836H3.75098C1.30176 0.131836 0.0712891 1.35059 0.0712891 3.76465V18.0849C0.0712891 20.499 1.30176 21.706 3.75098 21.706Z" fill="black" fill-opacity="0.85"/>
<path d="M4.86426 15.999C3.71582 15.999 3.1416 15.4248 3.1416 14.2998V7.56152C3.1416 6.4248 3.71582 5.8623 4.86426 5.8623H11.544C12.7158 5.8623 13.2783 6.43652 13.2783 7.56152V14.2998C13.2783 15.4248 12.7158 15.999 11.544 15.999H4.86426ZM4.99317 14.6513H11.4268C11.7549 14.6513 11.9307 14.499 11.9307 14.1826V7.67871C11.9307 7.3623 11.7549 7.20995 11.4268 7.20995H4.99317C4.65332 7.20995 4.48926 7.35058 4.48926 7.67871V14.1826C4.48926 14.499 4.65332 14.6513 4.99317 14.6513ZM20.1338 15.8701C17.1807 15.8701 15.2002 13.9013 15.2002 10.9365C15.2002 7.98339 17.1924 5.96777 20.0986 5.96777C22.9111 5.96777 24.8682 7.79589 24.8682 10.4326C24.8682 12.3545 23.9775 13.6084 22.6182 13.6084C22.0205 13.6084 21.5049 13.3506 21.2471 12.8935C20.9072 13.3506 20.3916 13.6084 19.8174 13.6084C18.4932 13.6084 17.5908 12.5302 17.5908 10.9482C17.5908 9.41308 18.4932 8.2998 19.7822 8.2998C20.3447 8.2998 20.7549 8.49902 21.0361 8.82714V8.73339C21.1065 8.49902 21.3525 8.2998 21.6221 8.2998C21.9736 8.2998 22.2315 8.58105 22.2315 8.94433V11.9443C22.2315 12.2841 22.3721 12.4365 22.7354 12.4365C23.3096 12.4365 23.6729 11.6982 23.6729 10.5029C23.6729 8.49902 22.2315 7.15136 20.0986 7.15136C17.9541 7.15136 16.4775 8.69824 16.4775 10.9482C16.4775 13.2451 17.9307 14.6513 20.2744 14.6513C21.0244 14.6513 21.376 14.5107 21.7275 14.4521C21.9033 14.4287 21.9971 14.3935 22.126 14.3935C22.4307 14.3935 22.6651 14.6396 22.6651 14.9443C22.6651 15.2607 22.4541 15.4599 22.126 15.6006C21.6572 15.788 20.919 15.8701 20.1338 15.8701ZM20.0049 12.3779C20.6611 12.3779 21.0713 11.8154 21.0713 10.8896C21.0713 10.0225 20.6611 9.49511 20.0166 9.49511C19.3486 9.49511 18.9385 10.0225 18.9385 10.9248C18.9385 11.8388 19.3486 12.3779 20.0049 12.3779Z" fill="white"/>
</g>
<defs>
<clipPath id="clip0_2207_2426">
<rect width="27.6328" height="21.5742" fill="white" transform="translate(0.0712891 0.131836)"/>
</clipPath>
</defs>
</svg>
