<svg width="26" height="34" viewBox="0 0 26 34" fill="none" xmlns="http://www.w3.org/2000/svg">
<g clip-path="url(#clip0_2207_19967)">
<path d="M0.0273438 22.7759C0.0273438 24.8736 1.67968 24.8033 2.69922 24.2056L12.25 18.6978C13.3867 18.0415 13.5273 17.8072 13.5273 16.4829V5.35008C13.5273 3.22899 11.8515 3.33446 10.8554 3.90868L1.30468 9.42821C0.167969 10.0727 0.0273438 10.3189 0.0273438 11.6431V22.7759Z" fill="black" fill-opacity="0.85"/>
<path d="M1.92578 25.2954C1.92578 29.5494 5.41796 31.6353 9.17968 29.479L18.3906 24.1822C20.3828 23.0454 21.332 21.4283 21.332 19.0611V8.44384C21.332 4.07275 17.7461 2.13916 14.1015 4.23681L2.28906 11.0572C2.03125 11.1978 1.92578 11.3853 1.92578 11.6314V25.2954Z" fill="white"/>
<path d="M4.70312 25.4707C4.70312 27.5684 6.34376 27.4981 7.37501 26.9004L16.9257 21.3926C18.0625 20.7364 18.1914 20.502 18.1914 19.1778V8.03328C18.1914 5.9239 16.5273 6.02937 15.5312 6.60359L5.96876 12.1114C4.84376 12.7676 4.70312 13.0137 4.70312 14.3262V25.4707Z" fill="black" fill-opacity="0.85"/>
<path d="M6.60156 27.979C6.60156 32.2681 10.2109 34.2603 13.8554 32.1744L23.0664 26.8775C25.0585 25.729 25.9961 24.1236 25.9961 21.7447V11.1392C25.9961 6.76806 22.4218 4.83447 18.7656 6.93213L6.95312 13.7525C6.70703 13.8931 6.60156 14.0806 6.60156 14.3267V27.979Z" fill="white"/>
<path d="M9.58984 28.0608C9.58984 29.9241 10.9492 30.4748 12.4257 29.6194L21.625 24.3459C22.7031 23.7248 23.0898 23.0803 23.0898 21.7678V10.8694C23.0898 9.06465 21.7539 8.65449 20.2773 9.49824L11.0781 14.8069C9.96484 15.4514 9.58984 16.1076 9.58984 17.385V28.0608ZM11.582 27.6858V17.4201C11.582 16.9748 11.7109 16.7405 12.0976 16.5178L20.9687 11.303C21.0742 11.2444 21.1679 11.2795 21.1679 11.4201V21.6975C21.1679 22.0842 21.039 22.3772 20.6523 22.6116L11.7695 27.7795C11.664 27.8498 11.582 27.803 11.582 27.6858Z" fill="black" fill-opacity="0.85"/>
</g>
<defs>
<clipPath id="clip0_2207_19967">
<rect width="25.9688" height="32.8727" fill="white" transform="translate(0.0273438 0.134277)"/>
</clipPath>
</defs>
</svg>
