<svg width="24" height="25" viewBox="0 0 24 25" fill="none" xmlns="http://www.w3.org/2000/svg">
<g clip-path="url(#clip0_2207_158)">
<path d="M12.0351 24.0498C18.5742 24.0498 23.9882 18.6357 23.9882 12.0966C23.9882 5.56934 18.5625 0.143555 12.0234 0.143555C5.49609 0.143555 0.0820312 5.56934 0.0820312 12.0966C0.0820312 18.6357 5.50781 24.0498 12.0351 24.0498Z" fill="black" fill-opacity="0.85"/>
<path d="M8.32031 17.8624C6.98437 17.8624 6.28125 17.171 6.28125 15.8467V8.80381C6.28125 7.47959 6.98437 6.77647 8.32031 6.77647H14.6484L13.3828 8.0421H8.34375C7.81641 8.0421 7.54687 8.2999 7.54687 8.8624V15.7764C7.54687 16.3389 7.81641 16.5967 8.34375 16.5967H15.4804C15.832 16.5967 16.1015 16.3389 16.1015 15.7764V10.8077L17.3554 9.55381V15.8467C17.3554 17.171 16.6523 17.8624 15.4922 17.8624H8.32031ZM10.6054 13.8897C10.3711 13.9835 10.125 13.7491 10.2304 13.5147L10.7929 12.3546L16.3242 6.81163L17.3789 7.83116L11.8242 13.3858L10.6054 13.8897ZM17.8945 7.30382L16.8515 6.27256L17.3789 5.75694C17.6367 5.48741 18.0234 5.48741 18.2695 5.7335L18.4218 5.88585C18.6562 6.12022 18.6679 6.47177 18.3984 6.74132L17.8945 7.30382Z" fill="white"/>
</g>
<defs>
<clipPath id="clip0_2207_158">
<rect width="23.9062" height="23.918" fill="white" transform="translate(0.0820312 0.131836)"/>
</clipPath>
</defs>
</svg>
