<svg width="22" height="22" viewBox="0 0 22 22" fill="none" xmlns="http://www.w3.org/2000/svg">
<g clip-path="url(#clip0_2207_21562)">
<path d="M8.53955 20.7359V1.15381H6.65283V20.7359H8.53955ZM15.102 20.7359V1.15381H13.2153V20.7359H15.102ZM1.08643 8.60694H20.6684V6.72022H1.08643V8.60694ZM1.08643 15.1695H20.6684V13.2827H1.08643V15.1695ZM0.090332 20.7827C0.090332 21.3452 0.465332 21.7085 1.02783 21.7085H20.7387C21.3012 21.7085 21.6645 21.3452 21.6645 20.7827V1.07178C21.6645 0.509277 21.3012 0.134277 20.7387 0.134277H1.02783C0.465332 0.134277 0.090332 0.509277 0.090332 1.07178V20.7827ZM1.97705 19.482V2.36084C1.97705 2.11475 2.0708 2.021 2.31689 2.021H19.438C19.6958 2.021 19.7778 2.11475 19.7778 2.36084V19.482C19.7778 19.7398 19.6958 19.8218 19.438 19.8218H2.31689C2.0708 19.8218 1.97705 19.7398 1.97705 19.482Z" fill="black" fill-opacity="0.85"/>
</g>
<defs>
<clipPath id="clip0_2207_21562">
<rect width="21.5742" height="21.5977" fill="white" transform="translate(0.090332 0.134277)"/>
</clipPath>
</defs>
</svg>
