<svg width="22" height="22" viewBox="0 0 22 22" fill="none" xmlns="http://www.w3.org/2000/svg">
<g clip-path="url(#clip0_2207_6309)">
<path d="M3.77198 21.7295H17.9868C20.4478 21.7295 21.6665 20.5107 21.6665 18.0966V3.78809C21.6665 1.37403 20.4478 0.155273 17.9868 0.155273H3.77198C1.32276 0.155273 0.0922852 1.36231 0.0922852 3.78809V18.0966C0.0922852 20.5224 1.32276 21.7295 3.77198 21.7295ZM3.79541 19.8427C2.62354 19.8427 1.97901 19.2216 1.97901 18.0029V3.88184C1.97901 2.66309 2.62354 2.042 3.79541 2.042H17.9634C19.1235 2.042 19.7798 2.66309 19.7798 3.88184V18.0029C19.7798 19.2216 19.1235 19.8427 17.9634 19.8427H3.79541Z" fill="black" fill-opacity="0.85"/>
<path d="M4.604 13.585C3.87744 13.585 3.58447 13.8897 3.58447 14.6397V17.1944C3.58447 17.9444 3.87744 18.2491 4.604 18.2491H17.1548C17.8931 18.2491 18.1861 17.9444 18.1861 17.1944V14.6397C18.1861 13.8897 17.8931 13.585 17.1548 13.585H4.604Z" fill="black" fill-opacity="0.85"/>
</g>
<defs>
<clipPath id="clip0_2207_6309">
<rect width="21.5742" height="21.5977" fill="white" transform="translate(0.0922852 0.131836)"/>
</clipPath>
</defs>
</svg>
