<svg width="22" height="22" viewBox="0 0 22 22" fill="none" xmlns="http://www.w3.org/2000/svg">
<g clip-path="url(#clip0_2207_6334)">
<path d="M3.51782 2.14843C4.06861 2.14843 4.52564 1.70312 4.52564 1.14062C4.52564 0.589844 4.06861 0.132812 3.51782 0.132812C2.96704 0.132812 2.51001 0.589844 2.51001 1.14062C2.51001 1.70312 2.96704 2.14843 3.51782 2.14843ZM7.17408 2.14843C7.72486 2.14843 8.18189 1.70312 8.18189 1.14062C8.18189 0.589844 7.72486 0.132812 7.17408 0.132812C6.62329 0.132812 6.16626 0.589844 6.16626 1.14062C6.16626 1.70312 6.62329 2.14843 7.17408 2.14843ZM10.8303 2.14843C11.3928 2.14843 11.8381 1.70312 11.8381 1.14062C11.8381 0.589844 11.3928 0.132812 10.8303 0.132812C10.2795 0.132812 9.82251 0.589844 9.82251 1.14062C9.82251 1.70312 10.2795 2.14843 10.8303 2.14843ZM14.4983 2.14843C15.0491 2.14843 15.5061 1.70312 15.5061 1.14062C15.5061 0.589844 15.0491 0.132812 14.4983 0.132812C13.9358 0.132812 13.4905 0.589844 13.4905 1.14062C13.4905 1.70312 13.9358 2.14843 14.4983 2.14843ZM18.1545 2.14843C18.7053 2.14843 19.1624 1.70312 19.1624 1.14062C19.1624 0.589844 18.7053 0.132812 18.1545 0.132812C17.6038 0.132812 17.1467 0.589844 17.1467 1.14062C17.1467 1.70312 17.6038 2.14843 18.1545 2.14843ZM20.6624 4.66797C21.2131 4.66797 21.6702 4.21093 21.6702 3.66015C21.6702 3.10937 21.2131 2.65234 20.6624 2.65234C20.1116 2.65234 19.6545 3.10937 19.6545 3.66015C19.6545 4.21093 20.1116 4.66797 20.6624 4.66797ZM20.6624 8.32422C21.2131 8.32422 21.6702 7.86719 21.6702 7.3164C21.6702 6.76562 21.2131 6.30859 20.6624 6.30859C20.1116 6.30859 19.6545 6.76562 19.6545 7.3164C19.6545 7.86719 20.1116 8.32422 20.6624 8.32422ZM20.6624 11.9805C21.2131 11.9805 21.6702 11.5234 21.6702 10.9726C21.6702 10.4219 21.2131 9.96484 20.6624 9.96484C20.1116 9.96484 19.6545 10.4219 19.6545 10.9726C19.6545 11.5234 20.1116 11.9805 20.6624 11.9805ZM20.6624 15.6367C21.2131 15.6367 21.6702 15.1797 21.6702 14.6289C21.6702 14.0781 21.2131 13.6211 20.6624 13.6211C20.1116 13.6211 19.6545 14.0781 19.6545 14.6289C19.6545 15.1797 20.1116 15.6367 20.6624 15.6367ZM20.6624 19.293C21.2131 19.293 21.6702 18.8359 21.6702 18.2851C21.6702 17.7344 21.2131 17.2773 20.6624 17.2773C20.1116 17.2773 19.6545 17.7344 19.6545 18.2851C19.6545 18.8359 20.1116 19.293 20.6624 19.293ZM18.1545 21.8008C18.7053 21.8008 19.1624 21.3437 19.1624 20.793C19.1624 20.2422 18.7053 19.7851 18.1545 19.7851C17.6038 19.7851 17.1467 20.2422 17.1467 20.793C17.1467 21.3437 17.6038 21.8008 18.1545 21.8008ZM14.4983 21.8008C15.0491 21.8008 15.5061 21.3437 15.5061 20.793C15.5061 20.2422 15.0491 19.7851 14.4983 19.7851C13.9358 19.7851 13.4905 20.2422 13.4905 20.793C13.4905 21.3437 13.9358 21.8008 14.4983 21.8008ZM10.8303 21.8008C11.3928 21.8008 11.8381 21.3437 11.8381 20.793C11.8381 20.2422 11.3928 19.7851 10.8303 19.7851C10.2795 19.7851 9.82251 20.2422 9.82251 20.793C9.82251 21.3437 10.2795 21.8008 10.8303 21.8008ZM7.17408 21.8008C7.72486 21.8008 8.18189 21.3437 8.18189 20.793C8.18189 20.2422 7.72486 19.7851 7.17408 19.7851C6.62329 19.7851 6.16626 20.2422 6.16626 20.793C6.16626 21.3437 6.62329 21.8008 7.17408 21.8008ZM3.51782 21.8008C4.06861 21.8008 4.52564 21.3437 4.52564 20.793C4.52564 20.2422 4.06861 19.7851 3.51782 19.7851C2.96704 19.7851 2.51001 20.2422 2.51001 20.793C2.51001 21.3437 2.96704 21.8008 3.51782 21.8008ZM1.01001 19.293C1.56079 19.293 2.01782 18.8359 2.01782 18.2851C2.01782 17.7344 1.56079 17.2773 1.01001 17.2773C0.459228 17.2773 0.00219727 17.7344 0.00219727 18.2851C0.00219727 18.8359 0.459228 19.293 1.01001 19.293ZM1.01001 15.6367C1.56079 15.6367 2.01782 15.1797 2.01782 14.6289C2.01782 14.0781 1.56079 13.6211 1.01001 13.6211C0.459228 13.6211 0.00219727 14.0781 0.00219727 14.6289C0.00219727 15.1797 0.459228 15.6367 1.01001 15.6367ZM1.01001 11.9805C1.56079 11.9805 2.01782 11.5234 2.01782 10.9726C2.01782 10.4219 1.56079 9.96484 1.01001 9.96484C0.459228 9.96484 0.00219727 10.4219 0.00219727 10.9726C0.00219727 11.5234 0.459228 11.9805 1.01001 11.9805ZM1.01001 8.32422C1.56079 8.32422 2.01782 7.86719 2.01782 7.3164C2.01782 6.76562 1.56079 6.30859 1.01001 6.30859C0.459228 6.30859 0.00219727 6.76562 0.00219727 7.3164C0.00219727 7.86719 0.459228 8.32422 1.01001 8.32422ZM1.01001 4.66797C1.56079 4.66797 2.01782 4.21093 2.01782 3.66015C2.01782 3.10937 1.56079 2.65234 1.01001 2.65234C0.459228 2.65234 0.00219727 3.10937 0.00219727 3.66015C0.00219727 4.21093 0.459228 4.66797 1.01001 4.66797Z" fill="black" fill-opacity="0.85"/>
</g>
<defs>
<clipPath id="clip0_2207_6334">
<rect width="21.668" height="21.6914" fill="white" transform="translate(0.00219727 0.132812)"/>
</clipPath>
</defs>
</svg>
