<svg width="24" height="23" viewBox="0 0 24 23" fill="none" xmlns="http://www.w3.org/2000/svg">
<g clip-path="url(#clip0_2207_6663)">
<path d="M18.4053 22.6445H20.9951C22.2725 22.6445 23.0225 21.8945 23.0225 20.5703V18.0742C23.0225 16.75 22.2725 16 20.9951 16H18.4053C17.1279 16 16.3779 16.75 16.3779 18.0742V20.5703C16.3779 21.8945 17.1279 22.6445 18.4053 22.6445Z" fill="black" fill-opacity="0.85"/>
<path d="M10.2256 22.6445H12.8272C14.1045 22.6445 14.8428 21.8945 14.8428 20.5703V18.0742C14.8428 16.75 14.1045 16 12.8272 16H10.2256C8.94824 16 8.20996 16.75 8.20996 18.0742V20.5703C8.20996 21.8945 8.94824 22.6445 10.2256 22.6445ZM10.4482 21.0273C10.0264 21.0273 9.81543 20.8047 9.81543 20.3711V18.2734C9.81543 17.8281 10.0264 17.6055 10.4482 17.6055H12.6045C13.0147 17.6055 13.2373 17.8281 13.2373 18.2734V20.3711C13.2373 20.8047 13.0147 21.0273 12.6045 21.0273H10.4482Z" fill="black" fill-opacity="0.85"/>
<path d="M2.06933 22.6445H4.65918C5.93652 22.6445 6.68652 21.8945 6.68652 20.5703V18.0742C6.68652 16.75 5.93652 16 4.65918 16H2.06933C0.791992 16 0.0419922 16.75 0.0419922 18.0742V20.5703C0.0419922 21.8945 0.791992 22.6445 2.06933 22.6445ZM2.29199 21.0273C1.87011 21.0273 1.65918 20.8047 1.65918 20.3711V18.2734C1.65918 17.8281 1.87011 17.6055 2.29199 17.6055H4.43652C4.84668 17.6055 5.08105 17.8281 5.08105 18.2734V20.3711C5.08105 20.8047 4.84668 21.0273 4.43652 21.0273H2.29199Z" fill="black" fill-opacity="0.85"/>
<path d="M18.4053 14.7109H20.9951C22.2725 14.7109 23.0225 13.9726 23.0225 12.6484V10.1406C23.0225 8.81641 22.2725 8.06641 20.9951 8.06641H18.4053C17.1279 8.06641 16.3779 8.81641 16.3779 10.1406V12.6484C16.3779 13.9726 17.1279 14.7109 18.4053 14.7109ZM18.6279 13.1055C18.2061 13.1055 17.9834 12.8828 17.9834 12.4375V10.3281C17.9834 9.89454 18.2061 9.67188 18.6279 9.67188H20.7725C21.1826 9.67188 21.4053 9.89454 21.4053 10.3281V12.4375C21.4053 12.8828 21.1826 13.1055 20.7725 13.1055H18.6279Z" fill="black" fill-opacity="0.85"/>
<path d="M10.2256 14.7109H12.8272C14.1045 14.7109 14.8428 13.9726 14.8428 12.6484V10.1406C14.8428 8.81641 14.1045 8.06641 12.8272 8.06641H10.2256C8.94824 8.06641 8.20996 8.81641 8.20996 10.1406V12.6484C8.20996 13.9726 8.94824 14.7109 10.2256 14.7109ZM10.4482 13.1055C10.0264 13.1055 9.81543 12.8828 9.81543 12.4375V10.3281C9.81543 9.89454 10.0264 9.67188 10.4482 9.67188H12.6045C13.0147 9.67188 13.2373 9.89454 13.2373 10.3281V12.4375C13.2373 12.8828 13.0147 13.1055 12.6045 13.1055H10.4482Z" fill="black" fill-opacity="0.85"/>
<path d="M2.06933 14.7109H4.65918C5.93652 14.7109 6.68652 13.9726 6.68652 12.6484V10.1406C6.68652 8.81641 5.93652 8.06641 4.65918 8.06641H2.06933C0.791992 8.06641 0.0419922 8.81641 0.0419922 10.1406V12.6484C0.0419922 13.9726 0.791992 14.7109 2.06933 14.7109ZM2.29199 13.1055C1.87011 13.1055 1.65918 12.8828 1.65918 12.4375V10.3281C1.65918 9.89454 1.87011 9.67188 2.29199 9.67188H4.43652C4.84668 9.67188 5.08105 9.89454 5.08105 10.3281V12.4375C5.08105 12.8828 4.84668 13.1055 4.43652 13.1055H2.29199Z" fill="black" fill-opacity="0.85"/>
<path d="M18.4053 6.77734H20.9951C22.2725 6.77734 23.0225 6.02734 23.0225 4.70312V2.20703C23.0225 0.882812 22.2725 0.132812 20.9951 0.132812H18.4053C17.1279 0.132812 16.3779 0.882812 16.3779 2.20703V4.70312C16.3779 6.02734 17.1279 6.77734 18.4053 6.77734ZM18.6279 5.17187C18.2061 5.17187 17.9834 4.94922 17.9834 4.5039V2.40625C17.9834 1.97265 18.2061 1.75 18.6279 1.75H20.7725C21.1826 1.75 21.4053 1.97265 21.4053 2.40625V4.5039C21.4053 4.94922 21.1826 5.17187 20.7725 5.17187H18.6279Z" fill="black" fill-opacity="0.85"/>
<path d="M10.2256 6.77734H12.8272C14.1045 6.77734 14.8428 6.02734 14.8428 4.70312V2.20703C14.8428 0.882812 14.1045 0.132812 12.8272 0.132812H10.2256C8.94824 0.132812 8.20996 0.882812 8.20996 2.20703V4.70312C8.20996 6.02734 8.94824 6.77734 10.2256 6.77734ZM10.4482 5.17187C10.0264 5.17187 9.81543 4.94922 9.81543 4.5039V2.40625C9.81543 1.97265 10.0264 1.75 10.4482 1.75H12.6045C13.0147 1.75 13.2373 1.97265 13.2373 2.40625V4.5039C13.2373 4.94922 13.0147 5.17187 12.6045 5.17187H10.4482Z" fill="black" fill-opacity="0.85"/>
<path d="M2.06933 6.77734H4.65918C5.93652 6.77734 6.68652 6.02734 6.68652 4.70312V2.20703C6.68652 0.882812 5.93652 0.132812 4.65918 0.132812H2.06933C0.791992 0.132812 0.0419922 0.882812 0.0419922 2.20703V4.70312C0.0419922 6.02734 0.791992 6.77734 2.06933 6.77734ZM2.29199 5.17187C1.87011 5.17187 1.65918 4.94922 1.65918 4.5039V2.40625C1.65918 1.97265 1.87011 1.75 2.29199 1.75H4.43652C4.84668 1.75 5.08105 1.97265 5.08105 2.40625V4.5039C5.08105 4.94922 4.84668 5.17187 4.43652 5.17187H2.29199Z" fill="black" fill-opacity="0.85"/>
</g>
<defs>
<clipPath id="clip0_2207_6663">
<rect width="22.9805" height="22.5586" fill="white" transform="translate(0.0419922 0.132812)"/>
</clipPath>
</defs>
</svg>
