<svg width="25" height="25" viewBox="0 0 25 25" fill="none" xmlns="http://www.w3.org/2000/svg">
<g clip-path="url(#clip0_2207_20644)">
<path d="M12.0498 24.1435C18.5889 24.1435 24.0029 18.7177 24.0029 12.1904C24.0029 5.65137 18.5772 0.237305 12.0381 0.237305C5.51074 0.237305 0.0966797 5.65137 0.0966797 12.1904C0.0966797 18.7177 5.52246 24.1435 12.0498 24.1435Z" fill="black" fill-opacity="0.85"/>
<path d="M7.57324 18.2724C6.62402 18.2724 5.97949 17.5341 5.97949 16.456V7.67872C5.97949 6.75293 6.62402 6.1084 7.57324 6.1084H16.5498C17.6514 6.1084 18.1436 6.60059 18.1436 7.67872V16.456C18.1436 17.6748 17.6514 18.2724 16.5498 18.2724H7.57324ZM8.33496 16.4912H15.7881C16.1279 16.4912 16.3623 16.2685 16.3623 15.9052V8.47559C16.3623 8.12403 16.1279 7.88965 15.7881 7.88965H8.33496C7.99512 7.88965 7.76074 8.12403 7.76074 8.47559V15.9052C7.76074 16.2685 7.99512 16.4912 8.33496 16.4912Z" fill="white"/>
</g>
<defs>
<clipPath id="clip0_2207_20644">
<rect width="23.9062" height="24.0117" fill="white" transform="translate(0.0966797 0.131836)"/>
</clipPath>
</defs>
</svg>
