<svg width="26" height="26" viewBox="0 0 26 26" fill="none" xmlns="http://www.w3.org/2000/svg">
<g clip-path="url(#clip0_2207_15163)">
<path d="M1.31445 5.65137L5.62695 1.35059C6.10742 0.870117 5.95507 0.131836 5.20507 0.131836H1.04492C0.365234 0.131836 0.0839844 0.448242 0.0839844 1.10449V5.25293C0.0839844 5.9795 0.810546 6.14356 1.31445 5.65137ZM24.1543 5.65137C24.6582 6.14356 25.3848 5.9795 25.3848 5.25293V1.09277C25.3848 0.448242 25.1035 0.131836 24.4238 0.131836H20.252C19.5137 0.131836 19.3613 0.870117 19.8418 1.35059L24.1543 5.65137ZM1.31445 19.8545C0.810546 19.3506 0.0839844 19.5263 0.0839844 20.2529V24.413C0.0839844 25.0459 0.365234 25.3623 1.0332 25.3623H5.20507C5.95507 25.3623 6.10742 24.6357 5.62695 24.1552L1.31445 19.8545ZM24.1543 19.8545L19.8418 24.1552C19.3613 24.6357 19.5137 25.3623 20.252 25.3623H24.4238C25.1035 25.3623 25.3848 25.0459 25.3848 24.413V20.2529C25.3848 19.5263 24.6582 19.3506 24.1543 19.8545Z" fill="black" fill-opacity="0.85"/>
<path d="M8.35742 20.8037H17.1113C19.5606 20.8037 20.7793 19.5849 20.7793 17.1709V8.33496C20.7793 5.90918 19.5606 4.70215 17.1113 4.70215H8.35742C5.9082 4.70215 4.67773 5.9209 4.67773 8.33496V17.1709C4.67773 19.5849 5.9082 20.8037 8.35742 20.8037ZM8.39257 18.917C7.2207 18.917 6.56445 18.2841 6.56445 17.0654V8.42872C6.56445 7.20996 7.2207 6.58887 8.39257 6.58887H17.0762C18.2363 6.58887 18.8926 7.20996 18.8926 8.42872V17.0654C18.8926 18.2841 18.2363 18.917 17.0762 18.917H8.39257Z" fill="black" fill-opacity="0.85"/>
</g>
<defs>
<clipPath id="clip0_2207_15163">
<rect width="25.3008" height="25.2539" fill="white" transform="translate(0.0839844 0.131836)"/>
</clipPath>
</defs>
</svg>
