<svg width="21" height="31" viewBox="0 0 21 31" fill="none" xmlns="http://www.w3.org/2000/svg">
<g clip-path="url(#clip0_2207_37)">
<path d="M3.72583 27.6943H17.1672C19.6164 27.6943 20.8469 26.4756 20.8469 24.0615V12.3662C20.8469 9.95215 19.6164 8.7334 17.1672 8.7334H3.72583C1.27661 8.7334 0.0461426 9.95215 0.0461426 12.3662V24.0615C0.0461426 26.4756 1.27661 27.6943 3.72583 27.6943ZM1.93286 23.956V12.4716C1.93286 11.2529 2.57739 10.6201 3.74926 10.6201H17.132C18.2922 10.6201 18.9602 11.2529 18.9602 12.4716V23.956C18.9602 25.1748 18.2922 25.8076 17.132 25.8076H3.74926C2.57739 25.8076 1.93286 25.1748 1.93286 23.956Z" fill="black" fill-opacity="0.85"/>
<path d="M13.6399 18.2841V3.30762C13.6399 1.57325 12.1984 0.131836 10.4406 0.131836C8.69458 0.131836 7.25317 1.57325 7.25317 3.30762V18.2841C7.25317 20.0302 8.69458 21.4599 10.4406 21.4599C12.1984 21.4599 13.6399 20.0302 13.6399 18.2841Z" fill="white"/>
<path d="M10.4406 19.9834C10.6867 19.9834 10.8859 19.913 11.1203 19.6787L15.0813 15.8466C15.257 15.6709 15.3625 15.4834 15.3625 15.2373C15.3625 14.7568 14.9875 14.417 14.507 14.417C14.2727 14.417 14.0383 14.5107 13.8742 14.6982L12.093 16.5849L11.3078 17.417L11.3781 15.6591V3.30761C11.3781 2.81542 10.9445 2.39355 10.4406 2.39355C9.93676 2.39355 9.51489 2.81542 9.51489 3.30761V15.6591L9.5852 17.417L8.78833 16.5849L7.0188 14.6982C6.85473 14.5107 6.59692 14.417 6.37426 14.417C5.88208 14.417 5.53052 14.7568 5.53052 15.2373C5.53052 15.4834 5.62426 15.6709 5.80005 15.8466L9.76098 19.6787C10.0071 19.913 10.2063 19.9834 10.4406 19.9834Z" fill="black" fill-opacity="0.85"/>
</g>
<defs>
<clipPath id="clip0_2207_37">
<rect width="20.8008" height="30.4102" fill="white" transform="translate(0.0461426 0.131836)"/>
</clipPath>
</defs>
</svg>
