<svg width="37" height="25" viewBox="0 0 37 25" fill="none" xmlns="http://www.w3.org/2000/svg">
<g clip-path="url(#clip0_2207_19598)">
<path d="M2.87427 19.2685H11.0071C12.7649 19.2685 13.8079 18.2373 13.8079 16.5146V8.28809C13.8079 6.57715 12.7649 5.53418 11.0071 5.53418H2.87427C1.11646 5.53418 0.0734863 6.57715 0.0734863 8.28809V16.5146C0.0734863 18.2373 1.11646 19.2685 2.87427 19.2685ZM2.90943 17.499C2.24146 17.499 1.84302 17.0888 1.84302 16.4209V8.39356C1.84302 7.72559 2.24146 7.30372 2.90943 7.30372H10.9719C11.6399 7.30372 12.0383 7.72559 12.0383 8.39356V16.4209C12.0383 17.0888 11.6399 17.499 10.9719 17.499H2.90943ZM18.2141 24.6591C18.7297 24.6591 19.0813 24.331 19.0813 23.8388V0.963867C19.0813 0.483398 18.7297 0.155273 18.2141 0.155273C17.6985 0.155273 17.3587 0.483398 17.3587 0.963867V23.8388C17.3587 24.331 17.6985 24.6591 18.2141 24.6591ZM25.4212 19.2685H33.554C35.3118 19.2685 36.3547 18.2373 36.3547 16.5146V8.28809C36.3547 6.57715 35.3118 5.53418 33.554 5.53418H25.4212C23.6633 5.53418 22.6204 6.57715 22.6204 8.28809V16.5146C22.6204 18.2373 23.6633 19.2685 25.4212 19.2685ZM25.4563 17.499C24.7883 17.499 24.3899 17.0888 24.3899 16.4209V8.39356C24.3899 7.72559 24.7883 7.30372 25.4563 7.30372H33.5188C34.1868 7.30372 34.5852 7.72559 34.5852 8.39356V16.4209C34.5852 17.0888 34.1868 17.499 33.5188 17.499H25.4563Z" fill="black" fill-opacity="0.85"/>
</g>
<defs>
<clipPath id="clip0_2207_19598">
<rect width="36.2812" height="24.5273" fill="white" transform="translate(0.0734863 0.131836)"/>
</clipPath>
</defs>
</svg>
