<svg width="24" height="23" viewBox="0 0 24 23" fill="none" xmlns="http://www.w3.org/2000/svg">
<g clip-path="url(#clip0_2207_6627)">
<path d="M18.4138 22.6445H21.0036C22.281 22.6445 23.031 21.8945 23.031 20.5703V18.0742C23.031 16.75 22.281 16 21.0036 16H18.4138C17.1364 16 16.3864 16.75 16.3864 18.0742V20.5703C16.3864 21.8945 17.1364 22.6445 18.4138 22.6445ZM18.6364 21.0273C18.2146 21.0273 17.9919 20.8047 17.9919 20.3711V18.2734C17.9919 17.8281 18.2146 17.6055 18.6364 17.6055H20.781C21.1911 17.6055 21.4138 17.8281 21.4138 18.2734V20.3711C21.4138 20.8047 21.1911 21.0273 20.781 21.0273H18.6364Z" fill="black" fill-opacity="0.85"/>
<path d="M10.234 22.6445H12.8356C14.1129 22.6445 14.8512 21.8945 14.8512 20.5703V18.0742C14.8512 16.75 14.1129 16 12.8356 16H10.234C8.95666 16 8.21838 16.75 8.21838 18.0742V20.5703C8.21838 21.8945 8.95666 22.6445 10.234 22.6445ZM10.4566 21.0273C10.0348 21.0273 9.82385 20.8047 9.82385 20.3711V18.2734C9.82385 17.8281 10.0348 17.6055 10.4566 17.6055H12.6129C13.0231 17.6055 13.2457 17.8281 13.2457 18.2734V20.3711C13.2457 20.8047 13.0231 21.0273 12.6129 21.0273H10.4566Z" fill="black" fill-opacity="0.85"/>
<path d="M2.07775 22.6445H4.6676C5.94494 22.6445 6.69494 21.8945 6.69494 20.5703V18.0742C6.69494 16.75 5.94494 16 4.6676 16H2.07775C0.800415 16 0.050415 16.75 0.050415 18.0742V20.5703C0.050415 21.8945 0.800415 22.6445 2.07775 22.6445ZM2.30042 21.0273C1.87854 21.0273 1.66761 20.8047 1.66761 20.3711V18.2734C1.66761 17.8281 1.87854 17.6055 2.30042 17.6055H4.44494C4.8551 17.6055 5.08948 17.8281 5.08948 18.2734V20.3711C5.08948 20.8047 4.8551 21.0273 4.44494 21.0273H2.30042Z" fill="black" fill-opacity="0.85"/>
<path d="M18.4138 14.7461H21.0036C22.281 14.7461 23.031 13.9961 23.031 12.6719V10.1758C23.031 8.85156 22.281 8.08984 21.0036 8.08984H18.4138C17.1364 8.08984 16.3864 8.85156 16.3864 10.1758V12.6719C16.3864 13.9961 17.1364 14.7461 18.4138 14.7461Z" fill="black" fill-opacity="0.85"/>
<path d="M10.234 14.7109H12.8356C14.1129 14.7109 14.8512 13.9726 14.8512 12.6484V10.1406C14.8512 8.81641 14.1129 8.06641 12.8356 8.06641H10.234C8.95666 8.06641 8.21838 8.81641 8.21838 10.1406V12.6484C8.21838 13.9726 8.95666 14.7109 10.234 14.7109ZM10.4566 13.1055C10.0348 13.1055 9.82385 12.8828 9.82385 12.4375V10.3281C9.82385 9.89454 10.0348 9.67188 10.4566 9.67188H12.6129C13.0231 9.67188 13.2457 9.89454 13.2457 10.3281V12.4375C13.2457 12.8828 13.0231 13.1055 12.6129 13.1055H10.4566Z" fill="black" fill-opacity="0.85"/>
<path d="M2.07775 14.7109H4.6676C5.94494 14.7109 6.69494 13.9726 6.69494 12.6484V10.1406C6.69494 8.81641 5.94494 8.06641 4.6676 8.06641H2.07775C0.800415 8.06641 0.050415 8.81641 0.050415 10.1406V12.6484C0.050415 13.9726 0.800415 14.7109 2.07775 14.7109ZM2.30042 13.1055C1.87854 13.1055 1.66761 12.8828 1.66761 12.4375V10.3281C1.66761 9.89454 1.87854 9.67188 2.30042 9.67188H4.44494C4.8551 9.67188 5.08948 9.89454 5.08948 10.3281V12.4375C5.08948 12.8828 4.8551 13.1055 4.44494 13.1055H2.30042Z" fill="black" fill-opacity="0.85"/>
<path d="M18.4138 6.77734H21.0036C22.281 6.77734 23.031 6.02734 23.031 4.70312V2.20703C23.031 0.882812 22.281 0.132812 21.0036 0.132812H18.4138C17.1364 0.132812 16.3864 0.882812 16.3864 2.20703V4.70312C16.3864 6.02734 17.1364 6.77734 18.4138 6.77734ZM18.6364 5.17187C18.2146 5.17187 17.9919 4.94922 17.9919 4.5039V2.40625C17.9919 1.97265 18.2146 1.75 18.6364 1.75H20.781C21.1911 1.75 21.4138 1.97265 21.4138 2.40625V4.5039C21.4138 4.94922 21.1911 5.17187 20.781 5.17187H18.6364Z" fill="black" fill-opacity="0.85"/>
<path d="M10.234 6.77734H12.8356C14.1129 6.77734 14.8512 6.02734 14.8512 4.70312V2.20703C14.8512 0.882812 14.1129 0.132812 12.8356 0.132812H10.234C8.95666 0.132812 8.21838 0.882812 8.21838 2.20703V4.70312C8.21838 6.02734 8.95666 6.77734 10.234 6.77734ZM10.4566 5.17187C10.0348 5.17187 9.82385 4.94922 9.82385 4.5039V2.40625C9.82385 1.97265 10.0348 1.75 10.4566 1.75H12.6129C13.0231 1.75 13.2457 1.97265 13.2457 2.40625V4.5039C13.2457 4.94922 13.0231 5.17187 12.6129 5.17187H10.4566Z" fill="black" fill-opacity="0.85"/>
<path d="M2.07775 6.77734H4.6676C5.94494 6.77734 6.69494 6.02734 6.69494 4.70312V2.20703C6.69494 0.882812 5.94494 0.132812 4.6676 0.132812H2.07775C0.800415 0.132812 0.050415 0.882812 0.050415 2.20703V4.70312C0.050415 6.02734 0.800415 6.77734 2.07775 6.77734ZM2.30042 5.17187C1.87854 5.17187 1.66761 4.94922 1.66761 4.5039V2.40625C1.66761 1.97265 1.87854 1.75 2.30042 1.75H4.44494C4.8551 1.75 5.08948 1.97265 5.08948 2.40625V4.5039C5.08948 4.94922 4.8551 5.17187 4.44494 5.17187H2.30042Z" fill="black" fill-opacity="0.85"/>
</g>
<defs>
<clipPath id="clip0_2207_6627">
<rect width="22.9805" height="22.5586" fill="white" transform="translate(0.050415 0.132812)"/>
</clipPath>
</defs>
</svg>
