<svg width="24" height="27" viewBox="0 0 24 27" fill="none" xmlns="http://www.w3.org/2000/svg">
<g clip-path="url(#clip0_2207_21340)">
<path d="M23.1526 8.37227C23.1526 7.15352 22.7542 6.46212 21.7112 5.85274L12.3245 0.426957C11.1643 -0.229293 9.68774 0.192582 9.68774 1.85665V12.7785C9.68774 14.0207 10.0042 14.6886 11.1526 15.3449L20.3284 20.6418C21.9807 21.591 23.1526 20.9582 23.1526 18.9894V8.37227ZM20.7268 7.55196C21.1018 7.77462 21.2424 7.93868 21.2424 8.44259V18.7082C21.2424 18.8254 21.1721 18.8605 21.0667 18.8019L12.1018 13.634C11.7034 13.3996 11.5979 13.2004 11.5979 12.7433V2.50118C11.5979 2.38399 11.6799 2.3254 11.7971 2.39571L20.7268 7.55196Z" fill="black" fill-opacity="0.85"/>
<path d="M18.4768 11.0676C18.4768 9.86065 18.0901 9.16925 17.0354 8.54815L7.64868 3.13409C6.48852 2.46612 5.01196 2.89972 5.01196 4.55206V15.4739C5.01196 16.7161 5.34008 17.3841 6.48852 18.0403L15.6526 23.3489C17.3049 24.2864 18.4768 23.6536 18.4768 21.6966V11.0676Z" fill="white"/>
<path d="M18.4768 11.0676C18.4768 9.86065 18.0901 9.16925 17.0354 8.54815L7.64868 3.13409C6.48852 2.46612 5.01196 2.89972 5.01196 4.55206V15.4739C5.01196 16.7161 5.34008 17.3841 6.48852 18.0403L15.6526 23.3489C17.3049 24.2864 18.4768 23.6536 18.4768 21.6966V11.0676ZM16.051 10.2473C16.426 10.47 16.5667 10.6341 16.5667 11.138V21.4036C16.5667 21.5208 16.4963 21.5559 16.3909 21.4973L7.42602 16.3294C7.02758 16.095 6.92211 15.8958 6.92211 15.4387V5.19659C6.92211 5.09112 7.01587 5.02081 7.12133 5.09112L16.051 10.2473Z" fill="black" fill-opacity="0.85"/>
<path d="M13.4963 13.9971C13.4963 12.7901 13.0979 12.0987 12.0549 11.4893L2.66821 6.0635C1.50805 5.40725 0.0314941 5.82912 0.0314941 7.48147V18.4034C0.0314941 19.6456 0.3479 20.3135 1.49633 20.9698L10.6721 26.2784C12.3245 27.2276 13.4963 26.5831 13.4963 24.626V13.9971Z" fill="white"/>
<path d="M13.4963 13.9971C13.4963 12.7901 13.0979 12.0987 12.0549 11.4893L2.66821 6.0635C1.50805 5.40725 0.0314941 5.82912 0.0314941 7.48147V18.4034C0.0314941 19.6456 0.3479 20.3135 1.49633 20.9698L10.6721 26.2784C12.3245 27.2276 13.4963 26.5831 13.4963 24.626V13.9971ZM11.0706 13.1768C11.4456 13.3995 11.5862 13.5635 11.5862 14.0674V24.3331C11.5862 24.4503 11.5159 24.4971 11.4104 24.4385L2.44555 19.2589C2.04711 19.0245 1.94165 18.837 1.94165 18.3682V8.126C1.94165 8.02053 2.02368 7.96194 2.14087 8.02053L11.0706 13.1768Z" fill="black" fill-opacity="0.85"/>
</g>
<defs>
<clipPath id="clip0_2207_21340">
<rect width="23.1211" height="26.7348" fill="white" transform="translate(0.0314941 0.131836)"/>
</clipPath>
</defs>
</svg>
