<svg width="24" height="23" viewBox="0 0 24 23" fill="none" xmlns="http://www.w3.org/2000/svg">
<g clip-path="url(#clip0_2207_6555)">
<path d="M18.4074 22.6445H20.9972C22.2746 22.6445 23.0246 21.8945 23.0246 20.5703V18.0742C23.0246 16.75 22.2746 16 20.9972 16H18.4074C17.13 16 16.38 16.75 16.38 18.0742V20.5703C16.38 21.8945 17.13 22.6445 18.4074 22.6445Z" fill="black" fill-opacity="0.85"/>
<path d="M10.2277 22.6445H12.8293C14.1066 22.6445 14.8449 21.8945 14.8449 20.5703V18.0742C14.8449 16.75 14.1066 16 12.8293 16H10.2277C8.95032 16 8.21204 16.75 8.21204 18.0742V20.5703C8.21204 21.8945 8.95032 22.6445 10.2277 22.6445Z" fill="black" fill-opacity="0.85"/>
<path d="M2.07141 22.6445H4.66126C5.9386 22.6445 6.6886 21.8945 6.6886 20.5703V18.0742C6.6886 16.75 5.9386 16 4.66126 16H2.07141C0.794067 16 0.0440674 16.75 0.0440674 18.0742V20.5703C0.0440674 21.8945 0.794067 22.6445 2.07141 22.6445Z" fill="black" fill-opacity="0.85"/>
<path d="M18.4074 14.7109H20.9972C22.2746 14.7109 23.0246 13.9726 23.0246 12.6484V10.1406C23.0246 8.81641 22.2746 8.06641 20.9972 8.06641H18.4074C17.13 8.06641 16.38 8.81641 16.38 10.1406V12.6484C16.38 13.9726 17.13 14.7109 18.4074 14.7109Z" fill="black" fill-opacity="0.85"/>
<path d="M10.2277 14.7109H12.8293C14.1066 14.7109 14.8449 13.9726 14.8449 12.6484V10.1406C14.8449 8.81641 14.1066 8.06641 12.8293 8.06641H10.2277C8.95032 8.06641 8.21204 8.81641 8.21204 10.1406V12.6484C8.21204 13.9726 8.95032 14.7109 10.2277 14.7109Z" fill="black" fill-opacity="0.85"/>
<path d="M2.07141 14.7109H4.66126C5.9386 14.7109 6.6886 13.9726 6.6886 12.6484V10.1406C6.6886 8.81641 5.9386 8.06641 4.66126 8.06641H2.07141C0.794067 8.06641 0.0440674 8.81641 0.0440674 10.1406V12.6484C0.0440674 13.9726 0.794067 14.7109 2.07141 14.7109Z" fill="black" fill-opacity="0.85"/>
<path d="M18.4074 6.77734H20.9972C22.2746 6.77734 23.0246 6.02734 23.0246 4.70312V2.20703C23.0246 0.882812 22.2746 0.132812 20.9972 0.132812H18.4074C17.13 0.132812 16.38 0.882812 16.38 2.20703V4.70312C16.38 6.02734 17.13 6.77734 18.4074 6.77734Z" fill="black" fill-opacity="0.85"/>
<path d="M10.2277 6.77734H12.8293C14.1066 6.77734 14.8449 6.02734 14.8449 4.70312V2.20703C14.8449 0.882812 14.1066 0.132812 12.8293 0.132812H10.2277C8.95032 0.132812 8.21204 0.882812 8.21204 2.20703V4.70312C8.21204 6.02734 8.95032 6.77734 10.2277 6.77734Z" fill="black" fill-opacity="0.85"/>
<path d="M2.07141 6.77734H4.66126C5.9386 6.77734 6.6886 6.02734 6.6886 4.70312V2.20703C6.6886 0.882812 5.9386 0.132812 4.66126 0.132812H2.07141C0.794067 0.132812 0.0440674 0.882812 0.0440674 2.20703V4.70312C0.0440674 6.02734 0.794067 6.77734 2.07141 6.77734Z" fill="black" fill-opacity="0.85"/>
</g>
<defs>
<clipPath id="clip0_2207_6555">
<rect width="22.9805" height="22.5586" fill="white" transform="translate(0.0440674 0.132812)"/>
</clipPath>
</defs>
</svg>
