<svg width="37" height="25" viewBox="0 0 37 25" fill="none" xmlns="http://www.w3.org/2000/svg">
<g clip-path="url(#clip0_2207_19602)">
<path d="M2.80713 19.2695H10.9399C12.6977 19.2695 13.7407 18.2383 13.7407 16.5156V8.28906C13.7407 6.57812 12.6977 5.53515 10.9399 5.53515H2.80713C1.04932 5.53515 0.00634766 6.57812 0.00634766 8.28906V16.5156C0.00634766 18.2383 1.04932 19.2695 2.80713 19.2695ZM18.1469 24.6601C18.6625 24.6601 19.0141 24.332 19.0141 23.8398V0.964844C19.0141 0.484375 18.6625 0.15625 18.1469 0.15625C17.6313 0.15625 17.2915 0.484375 17.2915 0.964844V23.8398C17.2915 24.332 17.6313 24.6601 18.1469 24.6601ZM25.354 19.2695H33.4868C35.2446 19.2695 36.2875 18.2383 36.2875 16.5156V8.28906C36.2875 6.57812 35.2446 5.53515 33.4868 5.53515H25.354C23.5961 5.53515 22.5532 6.57812 22.5532 8.28906V16.5156C22.5532 18.2383 23.5961 19.2695 25.354 19.2695Z" fill="black" fill-opacity="0.85"/>
</g>
<defs>
<clipPath id="clip0_2207_19602">
<rect width="36.2812" height="24.5273" fill="white" transform="translate(0.00634766 0.132812)"/>
</clipPath>
</defs>
</svg>
