<svg width="30" height="21" viewBox="0 0 30 21" fill="none" xmlns="http://www.w3.org/2000/svg">
<g clip-path="url(#clip0_2207_19466)">
<path d="M0.729736 4.71631H3.98755C4.40943 4.71631 4.65552 4.4585 4.65552 4.04834V0.813965C4.65552 0.380371 4.40943 0.134277 3.98755 0.134277H0.729736C0.331298 0.134277 0.0734863 0.403808 0.0734863 0.813965V4.04834C0.0734863 4.43506 0.331298 4.71631 0.729736 4.71631ZM0.729736 12.4859H3.98755C4.40943 12.4859 4.65552 12.2398 4.65552 11.8296V8.59522C4.65552 8.1499 4.40943 7.90381 3.98755 7.90381H0.729736C0.331298 7.90381 0.0734863 8.17334 0.0734863 8.59522V11.8296C0.0734863 12.2163 0.331298 12.4859 0.729736 12.4859ZM0.729736 20.2554H3.99927C4.40943 20.2554 4.65552 20.0093 4.65552 19.5991V16.3648C4.65552 15.9195 4.40943 15.6734 3.99927 15.6734H0.729736C0.331298 15.6734 0.0734863 15.9429 0.0734863 16.3648V19.5991C0.0734863 19.9859 0.331298 20.2554 0.729736 20.2554ZM11.6868 19.9273H25.9133C28.2923 19.9273 29.4758 18.7554 29.4758 16.4234V3.97803C29.4758 1.646 28.2923 0.474121 25.9133 0.474121H11.6868C9.3313 0.474121 8.13599 1.646 8.13599 3.97803V16.4234C8.13599 18.7554 9.3313 19.9273 11.6868 19.9273Z" fill="black" fill-opacity="0.85"/>
</g>
<defs>
<clipPath id="clip0_2207_19466">
<rect width="29.4023" height="20.1445" fill="white" transform="translate(0.0734863 0.134277)"/>
</clipPath>
</defs>
</svg>
