<svg width="25" height="26" viewBox="0 0 25 26" fill="none" xmlns="http://www.w3.org/2000/svg">
<g clip-path="url(#clip0_2207_19562)">
<path d="M2.80274 3.8125H22.2324V1.92578H2.80274V3.8125ZM21.2832 22.293H23.1699V2.86328H21.2832V22.293ZM2.80274 23.2422H22.2324V21.3555H2.80274V23.2422ZM1.85352 22.293H3.74024V2.86328H1.85352V22.293Z" fill="black" fill-opacity="0.85"/>
<path d="M2.80273 5.58203C4.30273 5.58203 5.50976 4.36328 5.50976 2.86328C5.50976 1.36328 4.30273 0.144531 2.80273 0.144531C1.29101 0.144531 0.0839844 1.36328 0.0839844 2.86328C0.0839844 4.36328 1.29101 5.58203 2.80273 5.58203ZM22.2324 5.58203C23.7324 5.58203 24.9395 4.36328 24.9395 2.86328C24.9395 1.36328 23.7324 0.144531 22.2324 0.144531C20.7207 0.144531 19.5137 1.36328 19.5137 2.86328C19.5137 4.36328 20.7207 5.58203 22.2324 5.58203ZM22.2324 25.0117C23.7324 25.0117 24.9395 23.793 24.9395 22.293C24.9395 20.793 23.7324 19.5742 22.2324 19.5742C20.7207 19.5742 19.5137 20.793 19.5137 22.293C19.5137 23.793 20.7207 25.0117 22.2324 25.0117ZM2.80273 25.0117C4.30273 25.0117 5.50976 23.793 5.50976 22.293C5.50976 20.793 4.30273 19.5742 2.80273 19.5742C1.29101 19.5742 0.0839844 20.793 0.0839844 22.293C0.0839844 23.793 1.29101 25.0117 2.80273 25.0117Z" fill="black" fill-opacity="0.85"/>
<path d="M7.54882 16.1523H14.7207C15.6582 16.1523 16.1973 15.6133 16.1973 14.6875V7.64453C16.1973 6.71875 15.6465 6.17969 14.6973 6.17969H7.54882C6.62304 6.17969 6.08398 6.71875 6.08398 7.64453V14.6875C6.08398 15.6133 6.62304 16.1523 7.54882 16.1523ZM8.01757 14.6172C7.75976 14.6172 7.61914 14.4766 7.61914 14.2187V8.11328C7.61914 7.86719 7.75976 7.71484 8.01757 7.71484H14.2285C14.5098 7.71484 14.6621 7.86719 14.6621 8.11328V14.2187C14.6621 14.4766 14.5215 14.6172 14.2637 14.6172H8.01757Z" fill="black" fill-opacity="0.85"/>
<path d="M10.3613 18.9766H17.5449C18.4707 18.9766 19.0098 18.4492 19.0098 17.5117V10.4687C19.0098 9.54298 18.459 9.01562 17.5098 9.01562H10.3613C9.43554 9.01562 8.89648 9.54298 8.89648 10.4687V17.5117C8.89648 18.4492 9.43554 18.9766 10.3613 18.9766Z" fill="white"/>
<path d="M10.3613 18.9766H17.5449C18.4707 18.9766 19.0098 18.4492 19.0098 17.5117V10.4687C19.0098 9.54298 18.459 9.01562 17.5098 9.01562H10.3613C9.43554 9.01562 8.89648 9.54298 8.89648 10.4687V17.5117C8.89648 18.4492 9.43554 18.9766 10.3613 18.9766ZM10.8301 17.4414C10.5723 17.4414 10.4317 17.3008 10.4317 17.0547V10.9375C10.4317 10.6914 10.5723 10.5508 10.8301 10.5508H17.041C17.3223 10.5508 17.4746 10.6914 17.4746 10.9375V17.0547C17.4746 17.3008 17.334 17.4414 17.0762 17.4414H10.8301Z" fill="black" fill-opacity="0.85"/>
</g>
<defs>
<clipPath id="clip0_2207_19562">
<rect width="24.8555" height="24.8789" fill="white" transform="translate(0.0839844 0.132812)"/>
</clipPath>
</defs>
</svg>
