<svg width="24" height="23" viewBox="0 0 24 23" fill="none" xmlns="http://www.w3.org/2000/svg">
<g clip-path="url(#clip0_2207_6603)">
<path d="M18.4117 22.6445H21.0015C22.2789 22.6445 23.0289 21.8945 23.0289 20.5703V18.0742C23.0289 16.75 22.2789 16 21.0015 16H18.4117C17.1343 16 16.3843 16.75 16.3843 18.0742V20.5703C16.3843 21.8945 17.1343 22.6445 18.4117 22.6445ZM18.6343 21.0273C18.2125 21.0273 17.9898 20.8047 17.9898 20.3711V18.2734C17.9898 17.8281 18.2125 17.6055 18.6343 17.6055H20.7789C21.189 17.6055 21.4117 17.8281 21.4117 18.2734V20.3711C21.4117 20.8047 21.189 21.0273 20.7789 21.0273H18.6343Z" fill="black" fill-opacity="0.85"/>
<path d="M10.2319 22.6445H12.8335C14.1108 22.6445 14.8491 21.8945 14.8491 20.5703V18.0742C14.8491 16.75 14.1108 16 12.8335 16H10.2319C8.95459 16 8.21631 16.75 8.21631 18.0742V20.5703C8.21631 21.8945 8.95459 22.6445 10.2319 22.6445ZM10.4545 21.0273C10.0327 21.0273 9.82178 20.8047 9.82178 20.3711V18.2734C9.82178 17.8281 10.0327 17.6055 10.4545 17.6055H12.6108C13.021 17.6055 13.2436 17.8281 13.2436 18.2734V20.3711C13.2436 20.8047 13.021 21.0273 12.6108 21.0273H10.4545Z" fill="black" fill-opacity="0.85"/>
<path d="M2.07568 22.6445H4.66553C5.94287 22.6445 6.69287 21.8945 6.69287 20.5703V18.0742C6.69287 16.75 5.94287 16 4.66553 16H2.07568C0.79834 16 0.0483398 16.75 0.0483398 18.0742V20.5703C0.0483398 21.8945 0.79834 22.6445 2.07568 22.6445ZM2.29834 21.0273C1.87646 21.0273 1.66553 20.8047 1.66553 20.3711V18.2734C1.66553 17.8281 1.87646 17.6055 2.29834 17.6055H4.44287C4.85303 17.6055 5.0874 17.8281 5.0874 18.2734V20.3711C5.0874 20.8047 4.85303 21.0273 4.44287 21.0273H2.29834Z" fill="black" fill-opacity="0.85"/>
<path d="M18.4117 14.7109H21.0015C22.2789 14.7109 23.0289 13.9726 23.0289 12.6484V10.1406C23.0289 8.81641 22.2789 8.06641 21.0015 8.06641H18.4117C17.1343 8.06641 16.3843 8.81641 16.3843 10.1406V12.6484C16.3843 13.9726 17.1343 14.7109 18.4117 14.7109ZM18.6343 13.1055C18.2125 13.1055 17.9898 12.8828 17.9898 12.4375V10.3281C17.9898 9.89454 18.2125 9.67188 18.6343 9.67188H20.7789C21.189 9.67188 21.4117 9.89454 21.4117 10.3281V12.4375C21.4117 12.8828 21.189 13.1055 20.7789 13.1055H18.6343Z" fill="black" fill-opacity="0.85"/>
<path d="M10.2319 14.7109H12.8335C14.1108 14.7109 14.8491 13.9726 14.8491 12.6484V10.1406C14.8491 8.81641 14.1108 8.06641 12.8335 8.06641H10.2319C8.95459 8.06641 8.21631 8.81641 8.21631 10.1406V12.6484C8.21631 13.9726 8.95459 14.7109 10.2319 14.7109ZM10.4545 13.1055C10.0327 13.1055 9.82178 12.8828 9.82178 12.4375V10.3281C9.82178 9.89454 10.0327 9.67188 10.4545 9.67188H12.6108C13.021 9.67188 13.2436 9.89454 13.2436 10.3281V12.4375C13.2436 12.8828 13.021 13.1055 12.6108 13.1055H10.4545Z" fill="black" fill-opacity="0.85"/>
<path d="M2.07568 14.7461H4.66553C5.94287 14.7461 6.69287 13.9961 6.69287 12.6719V10.1758C6.69287 8.85156 5.94287 8.08984 4.66553 8.08984H2.07568C0.79834 8.08984 0.0483398 8.85156 0.0483398 10.1758V12.6719C0.0483398 13.9961 0.79834 14.7461 2.07568 14.7461Z" fill="black" fill-opacity="0.85"/>
<path d="M18.4117 6.77734H21.0015C22.2789 6.77734 23.0289 6.02734 23.0289 4.70312V2.20703C23.0289 0.882812 22.2789 0.132812 21.0015 0.132812H18.4117C17.1343 0.132812 16.3843 0.882812 16.3843 2.20703V4.70312C16.3843 6.02734 17.1343 6.77734 18.4117 6.77734ZM18.6343 5.17187C18.2125 5.17187 17.9898 4.94922 17.9898 4.5039V2.40625C17.9898 1.97265 18.2125 1.75 18.6343 1.75H20.7789C21.189 1.75 21.4117 1.97265 21.4117 2.40625V4.5039C21.4117 4.94922 21.189 5.17187 20.7789 5.17187H18.6343Z" fill="black" fill-opacity="0.85"/>
<path d="M10.2319 6.77734H12.8335C14.1108 6.77734 14.8491 6.02734 14.8491 4.70312V2.20703C14.8491 0.882812 14.1108 0.132812 12.8335 0.132812H10.2319C8.95459 0.132812 8.21631 0.882812 8.21631 2.20703V4.70312C8.21631 6.02734 8.95459 6.77734 10.2319 6.77734ZM10.4545 5.17187C10.0327 5.17187 9.82178 4.94922 9.82178 4.5039V2.40625C9.82178 1.97265 10.0327 1.75 10.4545 1.75H12.6108C13.021 1.75 13.2436 1.97265 13.2436 2.40625V4.5039C13.2436 4.94922 13.021 5.17187 12.6108 5.17187H10.4545Z" fill="black" fill-opacity="0.85"/>
<path d="M2.07568 6.77734H4.66553C5.94287 6.77734 6.69287 6.02734 6.69287 4.70312V2.20703C6.69287 0.882812 5.94287 0.132812 4.66553 0.132812H2.07568C0.79834 0.132812 0.0483398 0.882812 0.0483398 2.20703V4.70312C0.0483398 6.02734 0.79834 6.77734 2.07568 6.77734ZM2.29834 5.17187C1.87646 5.17187 1.66553 4.94922 1.66553 4.5039V2.40625C1.66553 1.97265 1.87646 1.75 2.29834 1.75H4.44287C4.85303 1.75 5.0874 1.97265 5.0874 2.40625V4.5039C5.0874 4.94922 4.85303 5.17187 4.44287 5.17187H2.29834Z" fill="black" fill-opacity="0.85"/>
</g>
<defs>
<clipPath id="clip0_2207_6603">
<rect width="22.9805" height="22.5586" fill="white" transform="translate(0.0483398 0.132812)"/>
</clipPath>
</defs>
</svg>
