<svg width="22" height="22" viewBox="0 0 22 22" fill="none" xmlns="http://www.w3.org/2000/svg">
<g clip-path="url(#clip0_2207_6735)">
<path d="M4.29932 16.482C4.29932 17.0445 4.6626 17.4195 5.2251 17.4195H16.4985C17.0611 17.4195 17.4243 17.0445 17.4243 16.482V5.31396C17.4243 4.75146 17.0611 4.38818 16.4985 4.38818H5.2251C4.6626 4.38818 4.29932 4.75146 4.29932 5.31396V16.482ZM6.18604 15.1929V6.61474C6.18604 6.35693 6.26807 6.27489 6.52588 6.27489H15.1978C15.4556 6.27489 15.5376 6.35693 15.5376 6.61474V15.1929C15.5376 15.439 15.4556 15.5327 15.1978 15.5327H6.52588C6.26807 15.5327 6.18604 15.439 6.18604 15.1929Z" fill="black" fill-opacity="0.85"/>
<path d="M1.08838 21.6851C1.63917 21.6851 2.08448 21.2281 2.08448 20.689C2.08448 20.1382 1.63917 19.6929 1.08838 19.6929C0.537597 19.6929 0.0922852 20.1382 0.0922852 20.689C0.0922852 21.2281 0.537597 21.6851 1.08838 21.6851ZM1.08838 18.4038C1.63917 18.4038 2.08448 17.9585 2.08448 17.4077C2.08448 16.857 1.63917 16.4116 1.08838 16.4116C0.537597 16.4116 0.0922852 16.857 0.0922852 17.4077C0.0922852 17.9585 0.537597 18.4038 1.08838 18.4038ZM1.08838 15.1577C1.63917 15.1577 2.08448 14.7124 2.08448 14.1616C2.08448 13.6109 1.63917 13.1655 1.08838 13.1655C0.537597 13.1655 0.0922852 13.6109 0.0922852 14.1616C0.0922852 14.7124 0.537597 15.1577 1.08838 15.1577ZM1.08838 11.8999C1.63917 11.8999 2.08448 11.4546 2.08448 10.9038C2.08448 10.3531 1.63917 9.90772 1.08838 9.90772C0.537597 9.90772 0.0922852 10.3531 0.0922852 10.9038C0.0922852 11.4546 0.537597 11.8999 1.08838 11.8999ZM1.08838 8.63037C1.63917 8.63037 2.08448 8.18506 2.08448 7.646C2.08448 7.09522 1.63917 6.6499 1.08838 6.6499C0.537597 6.6499 0.0922852 7.09522 0.0922852 7.646C0.0922852 8.18506 0.537597 8.63037 1.08838 8.63037ZM1.08838 5.40772C1.63917 5.40772 2.08448 4.9624 2.08448 4.41162C2.08448 3.86084 1.63917 3.41553 1.08838 3.41553C0.537597 3.41553 0.0922852 3.86084 0.0922852 4.41162C0.0922852 4.9624 0.537597 5.40772 1.08838 5.40772ZM1.08838 2.1499C1.63917 2.1499 2.08448 1.70459 2.08448 1.15381C2.08448 0.603027 1.63917 0.157715 1.08838 0.157715C0.537597 0.157715 0.0922852 0.603027 0.0922852 1.15381C0.0922852 1.70459 0.537597 2.1499 1.08838 2.1499ZM4.3462 2.1499C4.89698 2.1499 5.34229 1.70459 5.34229 1.15381C5.34229 0.603027 4.89698 0.157715 4.3462 0.157715C3.79541 0.157715 3.3501 0.603027 3.3501 1.15381C3.3501 1.70459 3.79541 2.1499 4.3462 2.1499ZM7.59229 2.1499C8.14307 2.1499 8.58838 1.70459 8.58838 1.15381C8.58838 0.603027 8.14307 0.157715 7.59229 0.157715C7.04151 0.157715 6.5962 0.603027 6.5962 1.15381C6.5962 1.70459 7.04151 2.1499 7.59229 2.1499ZM10.8501 2.1499C11.4009 2.1499 11.8462 1.70459 11.8462 1.15381C11.8462 0.603027 11.4009 0.157715 10.8501 0.157715C10.3111 0.157715 9.854 0.603027 9.854 1.15381C9.854 1.70459 10.3111 2.1499 10.8501 2.1499ZM14.1196 2.1499C14.6587 2.1499 15.1157 1.70459 15.1157 1.15381C15.1157 0.603027 14.6587 0.157715 14.1196 0.157715C13.5689 0.157715 13.1235 0.603027 13.1235 1.15381C13.1235 1.70459 13.5689 2.1499 14.1196 2.1499ZM17.3657 2.1499C17.9048 2.1499 18.3501 1.70459 18.3501 1.15381C18.3501 0.603027 17.9048 0.157715 17.3657 0.157715C16.815 0.157715 16.3696 0.603027 16.3696 1.15381C16.3696 1.70459 16.815 2.1499 17.3657 2.1499ZM20.6235 2.1499C21.1743 2.1499 21.6196 1.70459 21.6196 1.15381C21.6196 0.603027 21.1743 0.157715 20.6235 0.157715C20.0728 0.157715 19.6275 0.603027 19.6275 1.15381C19.6275 1.70459 20.0728 2.1499 20.6235 2.1499ZM20.6235 5.41944C21.1743 5.41944 21.6196 4.97412 21.6196 4.42334C21.6196 3.87256 21.1743 3.42725 20.6235 3.42725C20.0728 3.42725 19.6275 3.87256 19.6275 4.42334C19.6275 4.97412 20.0728 5.41944 20.6235 5.41944ZM20.6235 8.64209C21.1743 8.64209 21.6196 8.19678 21.6196 7.65772C21.6196 7.10694 21.1743 6.66162 20.6235 6.66162C20.0728 6.66162 19.6275 7.10694 19.6275 7.65772C19.6275 8.19678 20.0728 8.64209 20.6235 8.64209ZM20.6235 11.9116C21.1743 11.9116 21.6196 11.4663 21.6196 10.9155C21.6196 10.3648 21.1743 9.91944 20.6235 9.91944C20.0728 9.91944 19.6275 10.3648 19.6275 10.9155C19.6275 11.4663 20.0728 11.9116 20.6235 11.9116ZM20.6235 15.1695C21.1743 15.1695 21.6196 14.7241 21.6196 14.1734C21.6196 13.6226 21.1743 13.1773 20.6235 13.1773C20.0728 13.1773 19.6275 13.6226 19.6275 14.1734C19.6275 14.7241 20.0728 15.1695 20.6235 15.1695ZM20.6235 18.4155C21.1743 18.4155 21.6196 17.9702 21.6196 17.4195C21.6196 16.8687 21.1743 16.4234 20.6235 16.4234C20.0728 16.4234 19.6275 16.8687 19.6275 17.4195C19.6275 17.9702 20.0728 18.4155 20.6235 18.4155ZM20.6235 21.6851C21.1743 21.6851 21.6196 21.2281 21.6196 20.689C21.6196 20.1382 21.1743 19.6929 20.6235 19.6929C20.0728 19.6929 19.6275 20.1382 19.6275 20.689C19.6275 21.2281 20.0728 21.6851 20.6235 21.6851ZM17.3657 21.6851C17.9048 21.6851 18.3501 21.2281 18.3501 20.689C18.3501 20.1382 17.9048 19.6929 17.3657 19.6929C16.815 19.6929 16.3696 20.1382 16.3696 20.689C16.3696 21.2281 16.815 21.6851 17.3657 21.6851ZM14.1196 21.6851C14.6587 21.6851 15.1157 21.2281 15.1157 20.689C15.1157 20.1382 14.6587 19.6929 14.1196 19.6929C13.5689 19.6929 13.1235 20.1382 13.1235 20.689C13.1235 21.2281 13.5689 21.6851 14.1196 21.6851ZM10.8501 21.6851C11.4009 21.6851 11.8462 21.2281 11.8462 20.689C11.8462 20.1382 11.4009 19.6929 10.8501 19.6929C10.3111 19.6929 9.854 20.1382 9.854 20.689C9.854 21.2281 10.3111 21.6851 10.8501 21.6851ZM7.59229 21.6851C8.14307 21.6851 8.58838 21.2281 8.58838 20.689C8.58838 20.1382 8.14307 19.6929 7.59229 19.6929C7.04151 19.6929 6.5962 20.1382 6.5962 20.689C6.5962 21.2281 7.04151 21.6851 7.59229 21.6851ZM4.3462 21.6851C4.89698 21.6851 5.34229 21.2281 5.34229 20.689C5.34229 20.1382 4.89698 19.6929 4.3462 19.6929C3.79541 19.6929 3.3501 20.1382 3.3501 20.689C3.3501 21.2281 3.79541 21.6851 4.3462 21.6851Z" fill="black" fill-opacity="0.85"/>
</g>
<defs>
<clipPath id="clip0_2207_6735">
<rect width="21.5273" height="21.5508" fill="white" transform="translate(0.0922852 0.134277)"/>
</clipPath>
</defs>
</svg>
