<svg width="22" height="22" viewBox="0 0 22 22" fill="none" xmlns="http://www.w3.org/2000/svg">
<g clip-path="url(#clip0_2207_6329)">
<path d="M3.74683 21.732H17.9616C20.4226 21.732 21.6413 20.5132 21.6413 18.0991V3.79053C21.6413 1.37647 20.4226 0.157715 17.9616 0.157715H3.74683C1.29761 0.157715 0.0671387 1.36475 0.0671387 3.79053V18.0991C0.0671387 20.5249 1.29761 21.732 3.74683 21.732ZM3.77026 19.8452C2.59839 19.8452 1.95386 19.2241 1.95386 18.0054V3.88428C1.95386 2.66553 2.59839 2.04444 3.77026 2.04444H17.9382C19.0983 2.04444 19.7546 2.66553 19.7546 3.88428V18.0054C19.7546 19.2241 19.0983 19.8452 17.9382 19.8452H3.77026Z" fill="black" fill-opacity="0.85"/>
<path d="M13.4968 4.66943V17.2202C13.4968 17.9468 13.8015 18.2398 14.5515 18.2398H17.1062C17.8562 18.2398 18.1609 17.9468 18.1609 17.2202V4.66943C18.1609 3.93115 17.8562 3.63818 17.1062 3.63818H14.5515C13.8015 3.63818 13.4968 3.93115 13.4968 4.66943Z" fill="black" fill-opacity="0.85"/>
</g>
<defs>
<clipPath id="clip0_2207_6329">
<rect width="21.5742" height="21.5977" fill="white" transform="translate(0.0671387 0.134277)"/>
</clipPath>
</defs>
</svg>
