<svg width="24" height="23" viewBox="0 0 24 23" fill="none" xmlns="http://www.w3.org/2000/svg">
<g clip-path="url(#clip0_2207_6543)">
<path d="M18.3989 22.6445H20.9887C22.2661 22.6445 23.0161 21.8945 23.0161 20.5703V18.0742C23.0161 16.75 22.2661 16 20.9887 16H18.3989C17.1215 16 16.3715 16.75 16.3715 18.0742V20.5703C16.3715 21.8945 17.1215 22.6445 18.3989 22.6445ZM18.6215 21.0273C18.1997 21.0273 17.977 20.8047 17.977 20.3711V18.2734C17.977 17.8281 18.1997 17.6055 18.6215 17.6055H20.7661C21.1762 17.6055 21.3989 17.8281 21.3989 18.2734V20.3711C21.3989 20.8047 21.1762 21.0273 20.7661 21.0273H18.6215Z" fill="black" fill-opacity="0.85"/>
<path d="M10.2192 22.6445H12.8208C14.0981 22.6445 14.8364 21.8945 14.8364 20.5703V18.0742C14.8364 16.75 14.0981 16 12.8208 16H10.2192C8.94189 16 8.20361 16.75 8.20361 18.0742V20.5703C8.20361 21.8945 8.94189 22.6445 10.2192 22.6445ZM10.4418 21.0273C10.02 21.0273 9.80908 20.8047 9.80908 20.3711V18.2734C9.80908 17.8281 10.02 17.6055 10.4418 17.6055H12.5981C13.0083 17.6055 13.2309 17.8281 13.2309 18.2734V20.3711C13.2309 20.8047 13.0083 21.0273 12.5981 21.0273H10.4418Z" fill="black" fill-opacity="0.85"/>
<path d="M2.06298 22.6445H4.65283C5.93017 22.6445 6.68017 21.8945 6.68017 20.5703V18.0742C6.68017 16.75 5.93017 16 4.65283 16H2.06298C0.785644 16 0.0356445 16.75 0.0356445 18.0742V20.5703C0.0356445 21.8945 0.785644 22.6445 2.06298 22.6445ZM2.28564 21.0273C1.86376 21.0273 1.65283 20.8047 1.65283 20.3711V18.2734C1.65283 17.8281 1.86376 17.6055 2.28564 17.6055H4.43017C4.84033 17.6055 5.0747 17.8281 5.0747 18.2734V20.3711C5.0747 20.8047 4.84033 21.0273 4.43017 21.0273H2.28564Z" fill="black" fill-opacity="0.85"/>
<path d="M18.3989 14.7109H20.9887C22.2661 14.7109 23.0161 13.9726 23.0161 12.6484V10.1406C23.0161 8.81641 22.2661 8.06641 20.9887 8.06641H18.3989C17.1215 8.06641 16.3715 8.81641 16.3715 10.1406V12.6484C16.3715 13.9726 17.1215 14.7109 18.3989 14.7109ZM18.6215 13.1055C18.1997 13.1055 17.977 12.8828 17.977 12.4375V10.3281C17.977 9.89454 18.1997 9.67188 18.6215 9.67188H20.7661C21.1762 9.67188 21.3989 9.89454 21.3989 10.3281V12.4375C21.3989 12.8828 21.1762 13.1055 20.7661 13.1055H18.6215Z" fill="black" fill-opacity="0.85"/>
<path d="M10.2192 14.7109H12.8208C14.0981 14.7109 14.8364 13.9726 14.8364 12.6484V10.1406C14.8364 8.81641 14.0981 8.06641 12.8208 8.06641H10.2192C8.94189 8.06641 8.20361 8.81641 8.20361 10.1406V12.6484C8.20361 13.9726 8.94189 14.7109 10.2192 14.7109ZM10.4418 13.1055C10.02 13.1055 9.80908 12.8828 9.80908 12.4375V10.3281C9.80908 9.89454 10.02 9.67188 10.4418 9.67188H12.5981C13.0083 9.67188 13.2309 9.89454 13.2309 10.3281V12.4375C13.2309 12.8828 13.0083 13.1055 12.5981 13.1055H10.4418Z" fill="black" fill-opacity="0.85"/>
<path d="M2.06298 14.7109H4.65283C5.93017 14.7109 6.68017 13.9726 6.68017 12.6484V10.1406C6.68017 8.81641 5.93017 8.06641 4.65283 8.06641H2.06298C0.785644 8.06641 0.0356445 8.81641 0.0356445 10.1406V12.6484C0.0356445 13.9726 0.785644 14.7109 2.06298 14.7109ZM2.28564 13.1055C1.86376 13.1055 1.65283 12.8828 1.65283 12.4375V10.3281C1.65283 9.89454 1.86376 9.67188 2.28564 9.67188H4.43017C4.84033 9.67188 5.0747 9.89454 5.0747 10.3281V12.4375C5.0747 12.8828 4.84033 13.1055 4.43017 13.1055H2.28564Z" fill="black" fill-opacity="0.85"/>
<path d="M18.3989 6.77734H20.9887C22.2661 6.77734 23.0161 6.02734 23.0161 4.70312V2.20703C23.0161 0.882812 22.2661 0.132812 20.9887 0.132812H18.3989C17.1215 0.132812 16.3715 0.882812 16.3715 2.20703V4.70312C16.3715 6.02734 17.1215 6.77734 18.3989 6.77734ZM18.6215 5.17187C18.1997 5.17187 17.977 4.94922 17.977 4.5039V2.40625C17.977 1.97265 18.1997 1.75 18.6215 1.75H20.7661C21.1762 1.75 21.3989 1.97265 21.3989 2.40625V4.5039C21.3989 4.94922 21.1762 5.17187 20.7661 5.17187H18.6215Z" fill="black" fill-opacity="0.85"/>
<path d="M10.2192 6.77734H12.8208C14.0981 6.77734 14.8364 6.02734 14.8364 4.70312V2.20703C14.8364 0.882812 14.0981 0.132812 12.8208 0.132812H10.2192C8.94189 0.132812 8.20361 0.882812 8.20361 2.20703V4.70312C8.20361 6.02734 8.94189 6.77734 10.2192 6.77734ZM10.4418 5.17187C10.02 5.17187 9.80908 4.94922 9.80908 4.5039V2.40625C9.80908 1.97265 10.02 1.75 10.4418 1.75H12.5981C13.0083 1.75 13.2309 1.97265 13.2309 2.40625V4.5039C13.2309 4.94922 13.0083 5.17187 12.5981 5.17187H10.4418Z" fill="black" fill-opacity="0.85"/>
<path d="M2.06298 6.77734H4.65283C5.93017 6.77734 6.68017 6.02734 6.68017 4.70312V2.20703C6.68017 0.882812 5.93017 0.132812 4.65283 0.132812H2.06298C0.785644 0.132812 0.0356445 0.882812 0.0356445 2.20703V4.70312C0.0356445 6.02734 0.785644 6.77734 2.06298 6.77734ZM2.28564 5.17187C1.86376 5.17187 1.65283 4.94922 1.65283 4.5039V2.40625C1.65283 1.97265 1.86376 1.75 2.28564 1.75H4.43017C4.84033 1.75 5.0747 1.97265 5.0747 2.40625V4.5039C5.0747 4.94922 4.84033 5.17187 4.43017 5.17187H2.28564Z" fill="black" fill-opacity="0.85"/>
</g>
<defs>
<clipPath id="clip0_2207_6543">
<rect width="22.9805" height="22.5586" fill="white" transform="translate(0.0356445 0.132812)"/>
</clipPath>
</defs>
</svg>
