<svg width="22" height="22" viewBox="0 0 22 22" fill="none" xmlns="http://www.w3.org/2000/svg">
<g clip-path="url(#clip0_2207_10424)">
<path d="M3.73218 21.7305H17.947C20.408 21.7305 21.6267 20.5117 21.6267 18.0976V3.78906C21.6267 1.375 20.408 0.15625 17.947 0.15625H3.73218C1.28296 0.15625 0.0524902 1.36328 0.0524902 3.78906V18.0976C0.0524902 20.5234 1.28296 21.7305 3.73218 21.7305ZM3.75561 19.8437C2.58374 19.8437 1.93921 19.2226 1.93921 18.0039V3.88281C1.93921 2.66406 2.58374 2.04297 3.75561 2.04297H17.9236C19.0837 2.04297 19.74 2.66406 19.74 3.88281V18.0039C19.74 19.2226 19.0837 19.8437 17.9236 19.8437H3.75561Z" fill="black" fill-opacity="0.85"/>
<path d="M3.70874 6.58984C3.70874 7.09375 4.02515 7.41015 4.52905 7.41015H6.48608C6.98999 7.41015 7.3064 7.09375 7.3064 6.58984V4.62109C7.3064 4.11719 6.98999 3.80078 6.48608 3.80078H4.52905C4.02515 3.80078 3.70874 4.11719 3.70874 4.62109V6.58984ZM9.05249 6.58984C9.05249 7.09375 9.3689 7.41015 9.8728 7.41015H11.8298C12.3455 7.41015 12.6619 7.09375 12.6619 6.58984V4.62109C12.6619 4.11719 12.3455 3.80078 11.8298 3.80078H9.8728C9.3689 3.80078 9.05249 4.11719 9.05249 4.62109V6.58984ZM14.3845 6.58984C14.3845 7.09375 14.7009 7.41015 15.2048 7.41015H17.1619C17.6658 7.41015 17.9822 7.09375 17.9822 6.58984V4.62109C17.9822 4.11719 17.6658 3.80078 17.1619 3.80078H15.2048C14.7009 3.80078 14.3845 4.11719 14.3845 4.62109V6.58984ZM3.70874 11.9219C3.70874 12.4258 4.02515 12.7422 4.52905 12.7422H6.48608C6.98999 12.7422 7.3064 12.4258 7.3064 11.9219V9.95312C7.3064 9.44922 6.98999 9.13281 6.48608 9.13281H4.52905C4.02515 9.13281 3.70874 9.44922 3.70874 9.95312V11.9219ZM9.05249 11.9219C9.05249 12.4258 9.3689 12.7422 9.8728 12.7422H11.8298C12.3455 12.7422 12.6619 12.4258 12.6619 11.9219V9.95312C12.6619 9.44922 12.3455 9.13281 11.8298 9.13281H9.8728C9.3689 9.13281 9.05249 9.44922 9.05249 9.95312V11.9219ZM14.3845 11.9219C14.3845 12.4258 14.7009 12.7422 15.2048 12.7422H17.1619C17.6658 12.7422 17.9822 12.4258 17.9822 11.9219V9.95312C17.9822 9.44922 17.6658 9.13281 17.1619 9.13281H15.2048C14.7009 9.13281 14.3845 9.44922 14.3845 9.95312V11.9219ZM3.70874 17.2539C3.70874 17.7578 4.02515 18.0742 4.52905 18.0742H6.48608C6.98999 18.0742 7.3064 17.7578 7.3064 17.2539V15.2851C7.3064 14.7812 6.98999 14.4648 6.48608 14.4648H4.52905C4.02515 14.4648 3.70874 14.7812 3.70874 15.2851V17.2539ZM9.05249 17.2539C9.05249 17.7578 9.3689 18.0742 9.8728 18.0742H11.8298C12.3455 18.0742 12.6619 17.7578 12.6619 17.2539V15.2851C12.6619 14.7812 12.3455 14.4648 11.8298 14.4648H9.8728C9.3689 14.4648 9.05249 14.7812 9.05249 15.2851V17.2539ZM14.3845 17.2539C14.3845 17.7578 14.7009 18.0742 15.2048 18.0742H17.1619C17.6658 18.0742 17.9822 17.7578 17.9822 17.2539V15.2851C17.9822 14.7812 17.6658 14.4648 17.1619 14.4648H15.2048C14.7009 14.4648 14.3845 14.7812 14.3845 15.2851V17.2539Z" fill="black" fill-opacity="0.85"/>
</g>
<defs>
<clipPath id="clip0_2207_10424">
<rect width="21.5742" height="21.5977" fill="white" transform="translate(0.0524902 0.132812)"/>
</clipPath>
</defs>
</svg>
