<svg width="24" height="23" viewBox="0 0 24 23" fill="none" xmlns="http://www.w3.org/2000/svg">
<g clip-path="url(#clip0_2207_6651)">
<path d="M18.4032 22.6445H20.993C22.2704 22.6445 23.0204 21.8945 23.0204 20.5703V18.0742C23.0204 16.75 22.2704 16 20.993 16H18.4032C17.1258 16 16.3758 16.75 16.3758 18.0742V20.5703C16.3758 21.8945 17.1258 22.6445 18.4032 22.6445ZM18.6258 21.0273C18.204 21.0273 17.9813 20.8047 17.9813 20.3711V18.2734C17.9813 17.8281 18.204 17.6055 18.6258 17.6055H20.7704C21.1805 17.6055 21.4032 17.8281 21.4032 18.2734V20.3711C21.4032 20.8047 21.1805 21.0273 20.7704 21.0273H18.6258Z" fill="black" fill-opacity="0.85"/>
<path d="M10.2235 22.6445H12.8133C14.0907 22.6445 14.8407 21.8945 14.8407 20.5703V18.0742C14.8407 16.75 14.0907 16 12.8133 16H10.2235C8.94617 16 8.19617 16.75 8.19617 18.0742V20.5703C8.19617 21.8945 8.94617 22.6445 10.2235 22.6445Z" fill="black" fill-opacity="0.85"/>
<path d="M2.06726 22.6445H4.65711C5.93445 22.6445 6.68445 21.8945 6.68445 20.5703V18.0742C6.68445 16.75 5.93445 16 4.65711 16H2.06726C0.789917 16 0.039917 16.75 0.039917 18.0742V20.5703C0.039917 21.8945 0.789917 22.6445 2.06726 22.6445ZM2.28992 21.0273C1.86804 21.0273 1.65711 20.8047 1.65711 20.3711V18.2734C1.65711 17.8281 1.86804 17.6055 2.28992 17.6055H4.43445C4.84461 17.6055 5.07898 17.8281 5.07898 18.2734V20.3711C5.07898 20.8047 4.84461 21.0273 4.43445 21.0273H2.28992Z" fill="black" fill-opacity="0.85"/>
<path d="M18.4032 14.7109H20.993C22.2704 14.7109 23.0204 13.9726 23.0204 12.6484V10.1406C23.0204 8.81641 22.2704 8.06641 20.993 8.06641H18.4032C17.1258 8.06641 16.3758 8.81641 16.3758 10.1406V12.6484C16.3758 13.9726 17.1258 14.7109 18.4032 14.7109ZM18.6258 13.1055C18.204 13.1055 17.9813 12.8828 17.9813 12.4375V10.3281C17.9813 9.89454 18.204 9.67188 18.6258 9.67188H20.7704C21.1805 9.67188 21.4032 9.89454 21.4032 10.3281V12.4375C21.4032 12.8828 21.1805 13.1055 20.7704 13.1055H18.6258Z" fill="black" fill-opacity="0.85"/>
<path d="M10.2235 14.7109H12.8251C14.1024 14.7109 14.8407 13.9726 14.8407 12.6484V10.1406C14.8407 8.81641 14.1024 8.06641 12.8251 8.06641H10.2235C8.94617 8.06641 8.20789 8.81641 8.20789 10.1406V12.6484C8.20789 13.9726 8.94617 14.7109 10.2235 14.7109ZM10.4461 13.1055C10.0243 13.1055 9.81336 12.8828 9.81336 12.4375V10.3281C9.81336 9.89454 10.0243 9.67188 10.4461 9.67188H12.6024C13.0126 9.67188 13.2352 9.89454 13.2352 10.3281V12.4375C13.2352 12.8828 13.0126 13.1055 12.6024 13.1055H10.4461Z" fill="black" fill-opacity="0.85"/>
<path d="M2.06726 14.7109H4.65711C5.93445 14.7109 6.68445 13.9726 6.68445 12.6484V10.1406C6.68445 8.81641 5.93445 8.06641 4.65711 8.06641H2.06726C0.789917 8.06641 0.039917 8.81641 0.039917 10.1406V12.6484C0.039917 13.9726 0.789917 14.7109 2.06726 14.7109ZM2.28992 13.1055C1.86804 13.1055 1.65711 12.8828 1.65711 12.4375V10.3281C1.65711 9.89454 1.86804 9.67188 2.28992 9.67188H4.43445C4.84461 9.67188 5.07898 9.89454 5.07898 10.3281V12.4375C5.07898 12.8828 4.84461 13.1055 4.43445 13.1055H2.28992Z" fill="black" fill-opacity="0.85"/>
<path d="M18.4032 6.77734H20.993C22.2704 6.77734 23.0204 6.02734 23.0204 4.70312V2.20703C23.0204 0.882812 22.2704 0.132812 20.993 0.132812H18.4032C17.1258 0.132812 16.3758 0.882812 16.3758 2.20703V4.70312C16.3758 6.02734 17.1258 6.77734 18.4032 6.77734ZM18.6258 5.17187C18.204 5.17187 17.9813 4.94922 17.9813 4.5039V2.40625C17.9813 1.97265 18.204 1.75 18.6258 1.75H20.7704C21.1805 1.75 21.4032 1.97265 21.4032 2.40625V4.5039C21.4032 4.94922 21.1805 5.17187 20.7704 5.17187H18.6258Z" fill="black" fill-opacity="0.85"/>
<path d="M10.2235 6.77734H12.8251C14.1024 6.77734 14.8407 6.02734 14.8407 4.70312V2.20703C14.8407 0.882812 14.1024 0.132812 12.8251 0.132812H10.2235C8.94617 0.132812 8.20789 0.882812 8.20789 2.20703V4.70312C8.20789 6.02734 8.94617 6.77734 10.2235 6.77734ZM10.4461 5.17187C10.0243 5.17187 9.81336 4.94922 9.81336 4.5039V2.40625C9.81336 1.97265 10.0243 1.75 10.4461 1.75H12.6024C13.0126 1.75 13.2352 1.97265 13.2352 2.40625V4.5039C13.2352 4.94922 13.0126 5.17187 12.6024 5.17187H10.4461Z" fill="black" fill-opacity="0.85"/>
<path d="M2.06726 6.77734H4.65711C5.93445 6.77734 6.68445 6.02734 6.68445 4.70312V2.20703C6.68445 0.882812 5.93445 0.132812 4.65711 0.132812H2.06726C0.789917 0.132812 0.039917 0.882812 0.039917 2.20703V4.70312C0.039917 6.02734 0.789917 6.77734 2.06726 6.77734ZM2.28992 5.17187C1.86804 5.17187 1.65711 4.94922 1.65711 4.5039V2.40625C1.65711 1.97265 1.86804 1.75 2.28992 1.75H4.43445C4.84461 1.75 5.07898 1.97265 5.07898 2.40625V4.5039C5.07898 4.94922 4.84461 5.17187 4.43445 5.17187H2.28992Z" fill="black" fill-opacity="0.85"/>
</g>
<defs>
<clipPath id="clip0_2207_6651">
<rect width="22.9805" height="22.5586" fill="white" transform="translate(0.039917 0.132812)"/>
</clipPath>
</defs>
</svg>
