<svg width="27" height="27" viewBox="0 0 27 27" fill="none" xmlns="http://www.w3.org/2000/svg">
<g clip-path="url(#clip0_2207_19570)">
<path d="M1.84717 18.3687H3.73389V1.91553H1.84717V18.3687Z" fill="black" fill-opacity="0.85"/>
<path d="M2.79639 18.3686H17.3862V16.4819H2.79639V18.3686Z" fill="black" fill-opacity="0.85"/>
<path d="M16.4487 18.3687H18.3354V1.91553H16.4487V18.3687Z" fill="black" fill-opacity="0.85"/>
<path d="M2.79639 3.80225H17.3862V1.91553H2.79639V3.80225Z" fill="black" fill-opacity="0.85"/>
<path d="M2.79639 20.1499C4.29639 20.1499 5.50342 18.9312 5.50342 17.4312C5.50342 15.9312 4.29639 14.7124 2.79639 14.7124C1.28467 14.7124 0.0776367 15.9312 0.0776367 17.4312C0.0776367 18.9312 1.28467 20.1499 2.79639 20.1499Z" fill="black" fill-opacity="0.85"/>
<path d="M17.3863 20.1499C18.8863 20.1499 20.105 18.9312 20.105 17.4312C20.105 15.9312 18.8863 14.7124 17.3863 14.7124C15.8863 14.7124 14.6675 15.9312 14.6675 17.4312C14.6675 18.9312 15.8863 20.1499 17.3863 20.1499Z" fill="black" fill-opacity="0.85"/>
<path d="M17.3863 5.57178C18.8863 5.57178 20.105 4.36475 20.105 2.85303C20.105 1.35303 18.8863 0.145996 17.3863 0.145996C15.8863 0.145996 14.6675 1.35303 14.6675 2.85303C14.6675 4.36475 15.8863 5.57178 17.3863 5.57178Z" fill="black" fill-opacity="0.85"/>
<path d="M2.79639 5.57178C4.29639 5.57178 5.50342 4.36475 5.50342 2.85303C5.50342 1.35303 4.29639 0.145996 2.79639 0.145996C1.28467 0.145996 0.0776367 1.35303 0.0776367 2.85303C0.0776367 4.36475 1.28467 5.57178 2.79639 5.57178Z" fill="black" fill-opacity="0.85"/>
<path d="M23.8549 26.6304C25.3549 26.6304 26.5737 25.4234 26.5737 23.9234C26.5737 22.7515 25.8237 21.7554 24.8042 21.3804V11.8882C25.8237 11.5132 26.5737 10.5171 26.5737 9.34521C26.5737 7.84521 25.3549 6.63818 23.8549 6.63818C22.6948 6.63818 21.687 7.37646 21.3237 8.40771H11.7964C11.4214 7.37646 10.4253 6.63818 9.26514 6.63818C7.75342 6.63818 6.54639 7.84521 6.54639 9.34521C6.54639 10.5171 7.28467 11.5132 8.31592 11.8882V21.3804C7.28467 21.7554 6.54639 22.7515 6.54639 23.9234C6.54639 25.4234 7.75342 26.6304 9.26514 26.6304C10.4253 26.6304 11.4214 25.8921 11.7964 24.8609H21.3237C21.687 25.8921 22.6948 26.6304 23.8549 26.6304Z" fill="white"/>
<path d="M8.31592 24.8609H10.2026V8.40771H8.31592V24.8609Z" fill="black" fill-opacity="0.85"/>
<path d="M9.26514 24.8609H23.8549V22.9741H9.26514V24.8609Z" fill="black" fill-opacity="0.85"/>
<path d="M22.9175 24.8609H24.8043V8.40771H22.9175V24.8609Z" fill="black" fill-opacity="0.85"/>
<path d="M9.26514 10.2945H23.8549V8.40771H9.26514V10.2945Z" fill="black" fill-opacity="0.85"/>
<path d="M9.26514 26.6304C10.7651 26.6304 11.9721 25.4234 11.9721 23.9234C11.9721 22.4234 10.7651 21.2046 9.26514 21.2046C7.75342 21.2046 6.54639 22.4234 6.54639 23.9234C6.54639 25.4234 7.75342 26.6304 9.26514 26.6304Z" fill="black" fill-opacity="0.85"/>
<path d="M23.8549 26.6304C25.3549 26.6304 26.5737 25.4234 26.5737 23.9234C26.5737 22.4234 25.3549 21.2046 23.8549 21.2046C22.3549 21.2046 21.1362 22.4234 21.1362 23.9234C21.1362 25.4234 22.3549 26.6304 23.8549 26.6304Z" fill="black" fill-opacity="0.85"/>
<path d="M23.8549 12.064C25.3549 12.064 26.5737 10.857 26.5737 9.34521C26.5737 7.84521 25.3549 6.63818 23.8549 6.63818C22.3549 6.63818 21.1362 7.84521 21.1362 9.34521C21.1362 10.857 22.3549 12.064 23.8549 12.064Z" fill="black" fill-opacity="0.85"/>
<path d="M9.26514 12.064C10.7651 12.064 11.9721 10.857 11.9721 9.34521C11.9721 7.84521 10.7651 6.63818 9.26514 6.63818C7.75342 6.63818 6.54639 7.84521 6.54639 9.34521C6.54639 10.857 7.75342 12.064 9.26514 12.064Z" fill="black" fill-opacity="0.85"/>
</g>
<defs>
<clipPath id="clip0_2207_19570">
<rect width="26.4961" height="26.4961" fill="white" transform="translate(0.0776367 0.134277)"/>
</clipPath>
</defs>
</svg>
