<svg width="25" height="25" viewBox="0 0 25 25" fill="none" xmlns="http://www.w3.org/2000/svg">
<g clip-path="url(#clip0_2207_6377)">
<path d="M3.75318 19.2812H15.5188C17.9563 19.2812 19.1868 18.0625 19.1868 15.6484V3.78906C19.1868 1.375 17.9563 0.15625 15.5188 0.15625H3.75318C1.29224 0.15625 0.0734863 1.375 0.0734863 3.78906V15.6484C0.0734863 18.0625 1.29224 19.2812 3.75318 19.2812ZM3.77661 17.3945C2.60474 17.3945 1.96021 16.7617 1.96021 15.543V3.89453C1.96021 2.67578 2.60474 2.04297 3.77661 2.04297H15.4837C16.6438 2.04297 17.3001 2.67578 17.3001 3.89453V15.543C17.3001 16.7617 16.6438 17.3945 15.4837 17.3945H3.77661Z" fill="black" fill-opacity="0.85"/>
<path d="M9.43677 24.707H21.2024C23.6399 24.707 24.8704 23.4883 24.8704 21.0742V9.21484C24.8704 6.80078 23.6399 5.58203 21.2024 5.58203H9.43677C6.97583 5.58203 5.75708 6.78906 5.75708 9.21484V21.0742C5.75708 23.4883 6.97583 24.707 9.43677 24.707Z" fill="white"/>
<path d="M9.43677 24.707H21.2024C23.6399 24.707 24.8704 23.4883 24.8704 21.0742V9.21484C24.8704 6.80078 23.6399 5.58203 21.2024 5.58203H9.43677C6.97583 5.58203 5.75708 6.78906 5.75708 9.21484V21.0742C5.75708 23.4883 6.97583 24.707 9.43677 24.707ZM9.46021 22.8203C8.30005 22.8203 7.6438 22.1875 7.6438 20.9687V9.32031C7.6438 8.10156 8.30005 7.46875 9.46021 7.46875H21.1673C22.3274 7.46875 22.9837 8.10156 22.9837 9.32031V20.9687C22.9837 22.1875 22.3274 22.8203 21.1673 22.8203H9.46021Z" fill="black" fill-opacity="0.85"/>
</g>
<defs>
<clipPath id="clip0_2207_6377">
<rect width="24.7969" height="24.5742" fill="white" transform="translate(0.0734863 0.132812)"/>
</clipPath>
</defs>
</svg>
