<svg width="25" height="32" viewBox="0 0 25 32" fill="none" xmlns="http://www.w3.org/2000/svg">
<g clip-path="url(#clip0_2207_6535)">
<path d="M8.4707 13.6695H15.9707C17.0136 13.6695 17.623 13.0835 17.623 12.0523V3.66161C17.623 2.63036 17.0136 2.04443 15.9707 2.04443H8.4707C7.42773 2.04443 6.81836 2.63036 6.81836 3.66161V12.0523C6.81836 13.0835 7.42773 13.6695 8.4707 13.6695Z" fill="black" fill-opacity="0.85"/>
<path d="M6.68945 22.1655H17.7636C20.0957 22.1655 21.6308 20.6421 21.6308 18.3218V7.37646C21.6308 5.05615 20.0957 3.54443 17.7636 3.54443H6.68945C4.35742 3.54443 2.81055 5.05615 2.81055 7.37646V18.3218C2.81055 20.6421 4.35742 22.1655 6.68945 22.1655Z" fill="white"/>
<path d="M6.56055 20.5718H17.8925C19.2636 20.5718 20.0371 19.7984 20.0371 18.4507V7.24755C20.0371 5.89989 19.2636 5.13818 17.8925 5.13818H6.56055C5.18945 5.13818 4.4043 5.89989 4.4043 7.24755V18.4507C4.4043 19.7984 5.18945 20.5718 6.56055 20.5718Z" fill="black" fill-opacity="0.85"/>
<path d="M5.62305 31.1304H18.8183C22.3105 31.1304 24.3847 29.0796 24.3847 25.6109V12.3218C24.3847 8.85303 22.3105 6.80225 18.8183 6.80225H5.62305C2.13086 6.80225 0.0566406 8.84131 0.0566406 12.3218V25.6109C0.0566406 29.0796 2.13086 31.1304 5.62305 31.1304Z" fill="white"/>
<path d="M5.62305 29.2437H18.8183C21.2675 29.2437 22.498 28.0249 22.498 25.6109V12.3218C22.498 9.90771 21.2675 8.68896 18.8183 8.68896H5.62305C3.17383 8.68896 1.94336 9.89599 1.94336 12.3218V25.6109C1.94336 28.0249 3.17383 29.2437 5.62305 29.2437Z" fill="black" fill-opacity="0.85"/>
</g>
<defs>
<clipPath id="clip0_2207_6535">
<rect width="24.3281" height="30.9961" fill="white" transform="translate(0.0566406 0.134277)"/>
</clipPath>
</defs>
</svg>
