<svg width="22" height="22" viewBox="0 0 22 22" fill="none" xmlns="http://www.w3.org/2000/svg">
<g clip-path="url(#clip0_2207_6292)">
<path d="M9.47803 10.939L0.407715 1.86866C0.149902 2.38428 0.0209961 3.02881 0.0209961 3.79053V18.0991C0.0209961 18.8609 0.149902 19.4937 0.407715 20.021L9.47803 10.939ZM10.814 9.61475L19.8843 0.544433C19.3569 0.274902 18.7007 0.157715 17.9155 0.157715H3.70069C2.91553 0.157715 2.271 0.274902 1.73194 0.532715L10.814 9.61475ZM12.1382 10.939L21.2085 20.021C21.478 19.4937 21.5952 18.8609 21.5952 18.0991V3.79053C21.5952 3.02881 21.478 2.38428 21.2085 1.86866L12.1382 10.939ZM10.814 12.2749L1.73194 21.3452C2.271 21.6031 2.91553 21.732 3.70069 21.732H17.9155C18.7007 21.732 19.3569 21.6031 19.8843 21.3452L10.814 12.2749Z" fill="black" fill-opacity="0.85"/>
</g>
<defs>
<clipPath id="clip0_2207_6292">
<rect width="21.5742" height="21.5977" fill="white" transform="translate(0.0209961 0.134277)"/>
</clipPath>
</defs>
</svg>
