<svg width="21" height="27" viewBox="0 0 21 27" fill="none" xmlns="http://www.w3.org/2000/svg">
<g clip-path="url(#clip0_2207_43)">
<path d="M0.0483398 21.7998C0.0483398 24.2138 1.27881 25.4326 3.72803 25.4326H17.1694C19.6186 25.4326 20.8491 24.2138 20.8491 21.7998V10.3388C20.8491 7.92481 19.6186 6.70606 17.1694 6.70606H11.3803V1.0459C11.3803 0.553711 10.9585 0.131836 10.4545 0.131836C9.95068 0.131836 9.51709 0.553711 9.51709 1.0459V6.70606H3.72803C1.27881 6.70606 0.0483398 7.92481 0.0483398 10.3388V21.7998ZM10.4428 17.874C10.2085 17.874 10.0093 17.8037 9.76318 17.5693L5.80225 13.7373C5.62646 13.5615 5.53272 13.374 5.53272 13.1279C5.53272 12.6474 5.88428 12.3076 6.37646 12.3076C6.59912 12.3076 6.85693 12.4013 7.021 12.5888L9.01318 14.6982L9.5874 15.3076L9.51709 13.5498V7.52637C9.51709 6.99903 9.89209 6.63575 10.4428 6.63575C10.9936 6.63575 11.3803 6.99903 11.3803 7.52637V13.5498L11.31 15.3076L11.8725 14.6982L13.8764 12.5888C14.0405 12.4013 14.2749 12.3076 14.5092 12.3076C14.9897 12.3076 15.3647 12.6474 15.3647 13.1279C15.3647 13.374 15.2592 13.5615 15.0835 13.7373L11.1225 17.5693C10.8881 17.8037 10.6889 17.874 10.4428 17.874Z" fill="black" fill-opacity="0.85"/>
</g>
<defs>
<clipPath id="clip0_2207_43">
<rect width="20.8008" height="25.8867" fill="white" transform="translate(0.0483398 0.131836)"/>
</clipPath>
</defs>
</svg>
