<svg width="22" height="22" viewBox="0 0 22 22" fill="none" xmlns="http://www.w3.org/2000/svg">
<g clip-path="url(#clip0_2207_6304)">
<path d="M3.74488 21.732H17.9597C20.4207 21.732 21.6394 20.5132 21.6394 18.0991V3.79053C21.6394 1.37647 20.4207 0.157715 17.9597 0.157715H3.74488C1.29566 0.157715 0.0651855 1.36475 0.0651855 3.79053V18.0991C0.0651855 20.5249 1.29566 21.732 3.74488 21.732ZM3.76831 19.8452C2.59644 19.8452 1.95191 19.2241 1.95191 18.0054V3.88428C1.95191 2.66553 2.59644 2.04444 3.76831 2.04444H17.9363C19.0964 2.04444 19.7527 2.66553 19.7527 3.88428V18.0054C19.7527 19.2241 19.0964 19.8452 17.9363 19.8452H3.76831Z" fill="black" fill-opacity="0.85"/>
<path d="M4.5769 8.30224H17.1277C17.866 8.30224 18.159 7.99755 18.159 7.24755V4.69286C18.159 3.94286 17.866 3.63818 17.1277 3.63818H4.5769C3.85034 3.63818 3.55737 3.94286 3.55737 4.69286V7.24755C3.55737 7.99755 3.85034 8.30224 4.5769 8.30224Z" fill="black" fill-opacity="0.85"/>
</g>
<defs>
<clipPath id="clip0_2207_6304">
<rect width="21.5742" height="21.5977" fill="white" transform="translate(0.0651855 0.134277)"/>
</clipPath>
</defs>
</svg>
