<svg width="24" height="27" viewBox="0 0 24 27" fill="none" xmlns="http://www.w3.org/2000/svg">
<g clip-path="url(#clip0_2207_21374)">
<path d="M11.9998 26.6748C12.4685 26.6748 12.9255 26.5224 13.488 26.1943L22.6521 20.874C23.6013 20.3232 23.9763 19.8896 23.9763 19.2451C23.9763 18.6123 23.6013 18.1787 22.6521 17.6279L13.488 12.3076C12.9255 11.9795 12.4685 11.8271 11.9998 11.8271C11.5193 11.8271 11.074 11.9795 10.5115 12.3076L1.33569 17.6279C0.386474 18.1787 0.0231934 18.6123 0.0231934 19.2451C0.0231934 19.8896 0.386474 20.3232 1.33569 20.874L10.5115 26.1943C11.074 26.5224 11.5193 26.6748 11.9998 26.6748ZM11.9998 24.6357C11.8357 24.6357 11.6716 24.5771 11.4724 24.4716L2.55444 19.3623C2.50757 19.3388 2.47241 19.3037 2.47241 19.2451C2.47241 19.1982 2.50757 19.163 2.55444 19.1396L11.4724 14.0302C11.6716 13.9248 11.8357 13.8662 11.9998 13.8662C12.1638 13.8662 12.3279 13.9248 12.5154 14.0302L21.4334 19.1396C21.492 19.163 21.5271 19.1982 21.5271 19.2451C21.5271 19.3037 21.492 19.3388 21.4334 19.3623L12.5154 24.4716C12.3279 24.5771 12.1638 24.6357 11.9998 24.6357Z" fill="black" fill-opacity="0.85"/>
<path d="M11.9998 19.2334C11.8357 19.2334 11.6716 19.1748 11.4724 19.0693L2.55444 13.9716C2.50757 13.9365 2.47241 13.913 2.47241 13.8545C2.47241 13.7959 2.50757 13.7607 2.55444 13.7373L11.4724 8.63965C11.6716 8.52246 11.8357 8.47559 11.9998 8.47559C12.1638 8.47559 12.3279 8.52246 12.5154 8.63965L21.4334 13.7373C21.492 13.7607 21.5271 13.7959 21.5271 13.8545C21.5271 13.913 21.492 13.9365 21.4334 13.9716L12.5154 19.0693C12.3279 19.1748 12.1638 19.2334 11.9998 19.2334Z" fill="white"/>
<path d="M11.9998 21.2841C12.4685 21.2841 12.9255 21.1318 13.488 20.8037L22.6521 15.4716C23.6013 14.9209 23.9763 14.499 23.9763 13.8545C23.9763 13.2099 23.6013 12.788 22.6521 12.2256L13.488 6.90527C12.9255 6.57714 12.4685 6.4248 11.9998 6.4248C11.5193 6.4248 11.074 6.57714 10.5115 6.90527L1.33569 12.2256C0.386474 12.788 0.0231934 13.2099 0.0231934 13.8545C0.0231934 14.499 0.386474 14.9209 1.33569 15.4716L10.5115 20.8037C11.074 21.1318 11.5193 21.2841 11.9998 21.2841ZM11.9998 19.2334C11.8357 19.2334 11.6716 19.1748 11.4724 19.0693L2.55444 13.9716C2.50757 13.9365 2.47241 13.913 2.47241 13.8545C2.47241 13.7959 2.50757 13.7607 2.55444 13.7373L11.4724 8.63964C11.6716 8.52245 11.8357 8.47558 11.9998 8.47558C12.1638 8.47558 12.3279 8.52245 12.5154 8.63964L21.4334 13.7373C21.492 13.7607 21.5271 13.7959 21.5271 13.8545C21.5271 13.913 21.492 13.9365 21.4334 13.9716L12.5154 19.0693C12.3279 19.1748 12.1638 19.2334 11.9998 19.2334Z" fill="black" fill-opacity="0.85"/>
<path d="M11.9998 13.4677C11.8357 13.4677 11.6716 13.4091 11.4724 13.3037L2.55444 8.19433C2.50757 8.17089 2.47241 8.13574 2.47241 8.07714C2.47241 8.03027 2.50757 7.99511 2.55444 7.97167L11.4724 2.8623C11.6716 2.75683 11.8357 2.69824 11.9998 2.69824C12.1638 2.69824 12.3279 2.75683 12.5154 2.8623L21.4334 7.97167C21.492 7.99511 21.5271 8.03027 21.5271 8.07714C21.5271 8.13574 21.492 8.17089 21.4334 8.19433L12.5154 13.3037C12.3279 13.4091 12.1638 13.4677 11.9998 13.4677Z" fill="white"/>
<path d="M11.9998 15.5068C12.4685 15.5068 12.9255 15.3545 13.488 15.0263L22.6521 9.70606C23.6013 9.15528 23.9763 8.72168 23.9763 8.07715C23.9763 7.44434 23.6013 7.01075 22.6521 6.45996L13.488 1.13965C12.9255 0.811524 12.4685 0.65918 11.9998 0.65918C11.5193 0.65918 11.074 0.811524 10.5115 1.13965L1.33569 6.45996C0.386474 7.01075 0.0231934 7.44434 0.0231934 8.07715C0.0231934 8.72168 0.386474 9.15528 1.33569 9.70606L10.5115 15.0263C11.074 15.3545 11.5193 15.5068 11.9998 15.5068ZM11.9998 13.4677C11.8357 13.4677 11.6716 13.4091 11.4724 13.3037L2.55444 8.19434C2.50757 8.1709 2.47241 8.13575 2.47241 8.07715C2.47241 8.03028 2.50757 7.99512 2.55444 7.97168L11.4724 2.86231C11.6716 2.75684 11.8357 2.69825 11.9998 2.69825C12.1638 2.69825 12.3279 2.75684 12.5154 2.86231L21.4334 7.97168C21.492 7.99512 21.5271 8.03028 21.5271 8.07715C21.5271 8.13575 21.492 8.1709 21.4334 8.19434L12.5154 13.3037C12.3279 13.4091 12.1638 13.4677 11.9998 13.4677Z" fill="black" fill-opacity="0.85"/>
</g>
<defs>
<clipPath id="clip0_2207_21374">
<rect width="23.9531" height="26.543" fill="white" transform="translate(0.0231934 0.131836)"/>
</clipPath>
</defs>
</svg>
