<svg width="22" height="22" viewBox="0 0 22 22" fill="none" xmlns="http://www.w3.org/2000/svg">
<g clip-path="url(#clip0_2207_6342)">
<path d="M0 6.33203H1.88672V3.88281C1.88672 2.66406 2.53125 2.04297 3.70312 2.04297H6.12891V0.15625H3.67969C1.23047 0.15625 0 1.36328 0 3.78906V6.33203ZM7.73438 2.04297H13.8398V0.15625H7.73438V2.04297ZM19.6875 6.33203H21.5742V3.78906C21.5742 1.375 20.3438 0.15625 17.8945 0.15625H15.4453V2.04297H17.8711C19.0312 2.04297 19.6875 2.66406 19.6875 3.88281V6.33203ZM19.6875 13.9492H21.5742V7.9375H19.6875V13.9492ZM15.4453 21.7305H17.8945C20.3438 21.7305 21.5742 20.5117 21.5742 18.0976V15.5547H19.6875V18.0039C19.6875 19.2226 19.0312 19.8437 17.8711 19.8437H15.4453V21.7305ZM7.73438 21.7305H13.8398V19.8437H7.73438V21.7305ZM3.67969 21.7305H6.12891V19.8437H3.70312C2.53125 19.8437 1.88672 19.2226 1.88672 18.0039V15.5547H0V18.0976C0 20.5234 1.23047 21.7305 3.67969 21.7305ZM0 13.9492H1.88672V7.9375H0V13.9492Z" fill="black" fill-opacity="0.85"/>
<path d="M4.60547 18.2266H16.9922C17.7188 18.2266 18.0938 17.8398 18.0938 17.0898V4.76172C18.0938 4.01172 17.7188 3.625 16.9922 3.625H4.60547C3.86719 3.625 3.49219 4.01172 3.49219 4.76172V17.0898C3.49219 17.8398 3.86719 18.2266 4.60547 18.2266Z" fill="black" fill-opacity="0.85"/>
</g>
<defs>
<clipPath id="clip0_2207_6342">
<rect width="21.5742" height="21.5977" fill="white" transform="translate(0 0.132812)"/>
</clipPath>
</defs>
</svg>
