<svg width="23" height="23" viewBox="0 0 23 23" fill="none" xmlns="http://www.w3.org/2000/svg">
<g clip-path="url(#clip0_2207_12361)">
<path d="M1.03198 22.7163C1.55932 22.7163 1.9812 22.2827 1.9812 21.7671V17.8179H6.08276C6.75073 17.8179 7.24292 17.3257 7.24292 16.6577V12.5562H11.3445C12.0125 12.5562 12.5164 12.064 12.5164 11.396V7.29444H16.6062C17.2859 7.29444 17.7781 6.80225 17.7781 6.13428V2.021H21.7156C22.2429 2.021 22.6648 1.59912 22.6648 1.0835C22.6648 0.567871 22.2429 0.134277 21.7156 0.134277H17.0515C16.3836 0.134277 15.8914 0.638183 15.8914 1.30616V5.40772H11.7898C11.1218 5.40772 10.6297 5.8999 10.6297 6.56787V10.6695H6.51636C5.84839 10.6695 5.3562 11.1616 5.3562 11.8413V15.9312H1.25464C0.58667 15.9312 0.0944824 16.4351 0.0944824 17.1031V21.7671C0.0944824 22.2827 0.516357 22.7163 1.03198 22.7163Z" fill="black" fill-opacity="0.85"/>
</g>
<defs>
<clipPath id="clip0_2207_12361">
<rect width="22.5703" height="22.6055" fill="white" transform="translate(0.0944824 0.134277)"/>
</clipPath>
</defs>
</svg>
