<svg width="20" height="24" viewBox="0 0 20 24" fill="none" xmlns="http://www.w3.org/2000/svg">
<g clip-path="url(#clip0_2207_8141)">
<path d="M9.61951 23.7959C9.80701 23.7959 10.1 23.7255 10.393 23.5732C17.0609 20.081 19.2055 18.3349 19.2055 14.1279V5.29199C19.2055 4.08496 18.6898 3.69824 17.7055 3.28808C16.3344 2.72558 11.9516 1.13184 10.5922 0.663086C10.2758 0.557617 9.94763 0.499023 9.61951 0.499023C9.29138 0.499023 8.96326 0.569336 8.65857 0.663086C7.28748 1.1084 2.90466 2.7373 1.53357 3.28808C0.560913 3.68652 0.0335693 4.08496 0.0335693 5.29199V14.1279C0.0335693 18.3349 2.29529 19.8818 8.84607 23.5732C9.15076 23.7373 9.43201 23.7959 9.61951 23.7959Z" fill="black" fill-opacity="0.85"/>
<path d="M4.00624 8.53808L4.05311 8.44433C4.42811 7.69433 4.80311 7.60058 5.55311 8.03418L8.47108 9.7334V6.33496C8.47108 5.53808 8.75233 5.26855 9.59608 5.26855H9.67811C10.5102 5.26855 10.7914 5.53808 10.7914 6.33496V9.7334L13.6977 8.03418C14.4594 7.57715 14.8344 7.68262 15.1977 8.44433L15.2445 8.53808C15.6195 9.27636 15.5258 9.63966 14.8344 10.0029L11.7992 11.6552L14.8578 13.4248C15.5141 13.7998 15.5961 14.163 15.2328 14.913L15.1977 14.9716C14.8227 15.7216 14.4594 15.8271 13.7211 15.3818L10.7914 13.6826V17.081C10.7914 17.8896 10.5102 18.1591 9.67811 18.1591H9.59608C8.75233 18.1591 8.47108 17.8896 8.47108 17.081V13.6826L5.52967 15.3818C4.83827 15.8037 4.46327 15.7099 4.05311 14.9716L4.02967 14.913C3.61952 14.1748 3.71327 13.8232 4.40467 13.4248L7.46327 11.6552L4.41639 10.0029C3.72499 9.63966 3.63124 9.27636 4.00624 8.53808Z" fill="white"/>
</g>
<defs>
<clipPath id="clip0_2207_8141">
<rect width="19.1719" height="23.6602" fill="white" transform="translate(0.0335693 0.135742)"/>
</clipPath>
</defs>
</svg>
