<svg width="27" height="28" viewBox="0 0 27 28" fill="none" xmlns="http://www.w3.org/2000/svg">
<g clip-path="url(#clip0_2207_6434)">
<path d="M3.70069 20.8779H15.4663C17.9038 20.8779 19.146 19.6591 19.146 17.2451V5.38574C19.146 2.97168 17.9038 1.75293 15.4663 1.75293H3.70069C1.25147 1.75293 0.0209961 2.97168 0.0209961 5.38574V17.2451C0.0209961 19.6591 1.25147 20.8779 3.70069 20.8779Z" fill="black" fill-opacity="0.85"/>
<path d="M9.38428 27.8974H21.1499C24.478 27.8974 26.4233 25.9755 26.4233 22.6709V10.8115C26.4233 7.50683 24.478 5.58496 21.1499 5.58496H9.38428C6.05616 5.58496 4.11084 7.49512 4.11084 10.8115V22.6709C4.11084 25.9755 6.05616 27.8974 9.38428 27.8974Z" fill="white"/>
<path d="M9.38428 26.3037H21.1499C23.5874 26.3037 24.8296 25.0849 24.8296 22.6709V10.8115C24.8296 8.39746 23.5874 7.17871 21.1499 7.17871H9.38428C6.93506 7.17871 5.70459 8.38574 5.70459 10.8115V22.6709C5.70459 25.0849 6.93506 26.3037 9.38428 26.3037Z" fill="black" fill-opacity="0.85"/>
<path d="M12.4663 21.8037C11.8921 22.2373 11.2827 21.7919 11.5054 21.124L12.6187 17.8076L9.78271 15.7802C9.24365 15.3935 9.41943 14.6318 10.146 14.6435L13.6265 14.6669L14.6929 11.3388C14.9038 10.6826 15.6421 10.6826 15.853 11.3388L16.9077 14.6669L20.3999 14.6435C21.1265 14.6318 21.2905 15.4052 20.7632 15.7802L17.9272 17.8076L19.0405 21.124C19.2632 21.7919 18.6538 22.2373 18.0796 21.8037L15.2671 19.7529L12.4663 21.8037Z" fill="white"/>
</g>
<defs>
<clipPath id="clip0_2207_6434">
<rect width="26.4023" height="27.7617" fill="white" transform="translate(0.0209961 0.135742)"/>
</clipPath>
</defs>
</svg>
