<svg width="27" height="27" viewBox="0 0 27 27" fill="none" xmlns="http://www.w3.org/2000/svg">
<g clip-path="url(#clip0_2207_8035)">
<path d="M5.00161 24.7919C5.48208 25.1669 6.09146 25.038 6.81802 24.5107L13.0172 19.9521L19.2282 24.5107C19.9547 25.038 20.5524 25.1669 21.0446 24.7919C21.5251 24.4287 21.6305 23.831 21.3376 22.9755L18.8883 15.6865L25.1461 11.1865C25.8727 10.6709 26.1657 10.1318 25.9782 9.5459C25.7907 8.9834 25.2399 8.70215 24.3376 8.71386L16.6618 8.76074L14.3297 1.43652C14.0485 0.569336 13.6266 0.135742 13.0172 0.135742C12.4196 0.135742 11.9977 0.569336 11.7165 1.43652L9.38443 8.76074L1.70865 8.71386C0.806302 8.70215 0.255521 8.9834 0.068021 9.5459C-0.131198 10.1318 0.17349 10.6709 0.900052 11.1865L7.15786 15.6865L4.70865 22.9755C4.41568 23.831 4.52115 24.4287 5.00161 24.7919ZM13.0172 17.9365V2.9834C13.0524 2.9834 13.0758 3.00683 13.0876 3.07715L15.1266 9.8623C15.279 10.3427 15.5836 10.5419 16.0641 10.5302L23.154 10.4013C23.2243 10.4013 23.2477 10.4013 23.2594 10.4365C23.2711 10.4716 23.2477 10.4951 23.2008 10.5302L17.3649 14.5615C16.9547 14.8427 16.861 15.206 17.0251 15.663L19.3571 22.3662C19.3688 22.4365 19.3805 22.4482 19.3571 22.4716C19.3336 22.5068 19.2985 22.4834 19.2516 22.4482L13.6149 18.1474C13.4274 18.0068 13.2282 17.9248 13.0172 17.9365Z" fill="black" fill-opacity="0.85"/>
</g>
<defs>
<clipPath id="clip0_2207_8035">
<rect width="26.0251" height="26.543" fill="white" transform="translate(0.00830078 0.135742)"/>
</clipPath>
</defs>
</svg>
