<svg width="23" height="25" viewBox="0 0 23 25" fill="none" xmlns="http://www.w3.org/2000/svg">
<g clip-path="url(#clip0_2207_17998)">
<path d="M11.1271 24.6865H11.2794C12.9083 24.6865 13.5294 24.1709 13.5294 22.5537V14.6552L12.006 15.4873L18.8732 19.4599C19.3888 19.7295 19.7989 19.9052 20.1739 19.9052C20.8185 19.9052 21.2638 19.4599 21.8028 18.6513L21.8849 18.5224C22.2364 17.9951 22.4122 17.5146 22.4122 17.1162C22.4122 16.4599 21.9552 15.9677 21.1466 15.5224L14.1505 11.4795V13.1552L21.1349 9.2998C21.9552 8.86621 22.3771 8.38574 22.3771 7.72949C22.3771 7.33105 22.2013 6.87402 21.9083 6.34668L21.8263 6.19433C21.2989 5.33886 20.8185 4.90527 20.1856 4.90527C19.8106 4.90527 19.3771 5.08105 18.8614 5.35058L12.0177 9.32324L13.5294 10.1552V2.26855C13.5294 0.651367 12.9083 0.135742 11.2794 0.135742H11.1271C9.49817 0.135742 8.87708 0.651367 8.87708 2.26855V10.1552L10.4239 9.32324L3.55676 5.35058C3.04114 5.05762 2.56067 4.87012 2.16223 4.87012C1.5177 4.87012 0.990357 5.31543 0.5802 6.21777L0.509888 6.34668C0.252075 6.88574 0.0880127 7.35449 0.0880127 7.75293C0.0880127 8.37402 0.474731 8.85449 1.29504 9.31152L8.29114 13.1552V11.4795L1.28333 15.5224C0.474731 15.9677 0.0294189 16.4482 0.0294189 17.0927C0.0294189 17.4912 0.216919 17.9716 0.521607 18.5107L0.591919 18.6162C1.08411 19.4716 1.55286 19.9169 2.22083 19.9169C2.59583 19.9169 3.04114 19.7295 3.54504 19.4599L10.4239 15.4873L8.87708 14.6552V22.5537C8.87708 24.1709 9.49817 24.6865 11.1271 24.6865Z" fill="black" fill-opacity="0.85"/>
</g>
<defs>
<clipPath id="clip0_2207_17998">
<rect width="22.3828" height="24.5508" fill="white" transform="translate(0.0294189 0.135742)"/>
</clipPath>
</defs>
</svg>
