<svg width="24" height="25" viewBox="0 0 24 25" fill="none" xmlns="http://www.w3.org/2000/svg">
<g clip-path="url(#clip0_2207_8051)">
<path d="M11.9553 24.0419C18.4944 24.0419 23.9084 18.6162 23.9084 12.0888C23.9084 5.5498 18.4827 0.135742 11.9436 0.135742C5.41626 0.135742 0.00219727 5.5498 0.00219727 12.0888C0.00219727 18.6162 5.42798 24.0419 11.9553 24.0419ZM11.9553 22.0498C6.42408 22.0498 2.00611 17.6201 2.00611 12.0888C2.00611 6.55762 6.41236 2.12793 11.9436 2.12793C17.4749 2.12793 21.9163 6.55762 21.9163 12.0888C21.9163 17.6201 17.4866 22.0498 11.9553 22.0498Z" fill="black" fill-opacity="0.85"/>
<path d="M8.5803 18.1357L11.9436 15.663L15.3069 18.1357C15.9983 18.6513 16.7131 18.1123 16.4553 17.3154L15.1194 13.3427L18.5178 10.9169C19.1389 10.4599 18.9514 9.5459 18.0842 9.55762L13.9124 9.59277L12.635 5.59668C12.3889 4.82324 11.4983 4.82324 11.2522 5.59668L9.97484 9.59277L5.80296 9.55762C4.94749 9.5459 4.73656 10.4482 5.36937 10.9169L8.7678 13.3427L7.44359 17.3154C7.17406 18.1123 7.90062 18.6513 8.5803 18.1357Z" fill="black" fill-opacity="0.85"/>
</g>
<defs>
<clipPath id="clip0_2207_8051">
<rect width="23.9062" height="23.918" fill="white" transform="translate(0.00219727 0.135742)"/>
</clipPath>
</defs>
</svg>
