<svg width="22" height="22" viewBox="0 0 22 22" fill="none" xmlns="http://www.w3.org/2000/svg">
<g clip-path="url(#clip0_2207_8061)">
<path d="M3.69434 21.7334H17.9091C20.3701 21.7334 21.5888 20.5146 21.5888 18.1005V3.79199C21.5888 1.37793 20.3701 0.15918 17.9091 0.15918H3.69434C1.24512 0.15918 0.0146484 1.36621 0.0146484 3.79199V18.1005C0.0146484 20.5263 1.24512 21.7334 3.69434 21.7334ZM3.71777 19.8466C2.5459 19.8466 1.90137 19.2255 1.90137 18.0068V3.88574C1.90137 2.66699 2.5459 2.0459 3.71777 2.0459H17.8857C19.0458 2.0459 19.7021 2.66699 19.7021 3.88574V18.0068C19.7021 19.2255 19.0458 19.8466 17.8857 19.8466H3.71777Z" fill="black" fill-opacity="0.85"/>
<path d="M7.44434 16.9755L10.8077 14.5029L14.1709 16.9755C14.8624 17.4912 15.5772 16.9521 15.3194 16.1552L13.9834 12.1826L17.3819 9.75684C18.003 9.29981 17.8154 8.38575 16.9482 8.39747L12.7764 8.43263L11.499 4.43653C11.2529 3.66309 10.3623 3.66309 10.1162 4.43653L8.83887 8.43263L4.66699 8.39747C3.81153 8.38575 3.60059 9.28809 4.2334 9.75684L7.63184 12.1826L6.30762 16.1552C6.03809 16.9521 6.76465 17.4912 7.44434 16.9755Z" fill="black" fill-opacity="0.85"/>
</g>
<defs>
<clipPath id="clip0_2207_8061">
<rect width="21.5742" height="21.5977" fill="white" transform="translate(0.0146484 0.135742)"/>
</clipPath>
</defs>
</svg>
