<svg width="27" height="27" viewBox="0 0 27 27" fill="none" xmlns="http://www.w3.org/2000/svg">
<g clip-path="url(#clip0_2207_8045)">
<path d="M5.00601 24.7919C5.48648 25.1669 6.09586 25.038 6.82242 24.5107L13.0216 19.9521L19.2326 24.5107C19.9591 25.038 20.5568 25.1669 21.049 24.7919C21.5295 24.4287 21.6349 23.831 21.342 22.9755L18.8927 15.6865L25.1505 11.1865C25.8771 10.6709 26.1701 10.1318 25.9826 9.5459C25.7951 8.9834 25.2443 8.70215 24.342 8.71386L16.6662 8.76074L14.3341 1.43652C14.0529 0.569336 13.631 0.135742 13.0216 0.135742C12.424 0.135742 12.0021 0.569336 11.7209 1.43652L9.38883 8.76074L1.71305 8.71386C0.810696 8.70215 0.259915 8.9834 0.0724155 9.5459C-0.126804 10.1318 0.177884 10.6709 0.904446 11.1865L7.16226 15.6865L4.71305 22.9755C4.42007 23.831 4.52555 24.4287 5.00601 24.7919Z" fill="black" fill-opacity="0.85"/>
<path d="M22.092 24.874C22.9943 25.7646 24.4474 25.7646 25.3263 24.8505C26.1935 23.9716 26.1818 22.5537 25.3146 21.663L6.33023 2.74903C5.45133 1.87013 3.9982 1.85841 3.10758 2.74903C2.22867 3.62794 2.22867 5.09278 3.10758 5.95997L22.092 24.874Z" fill="white"/>
<path d="M23.0646 23.9131C23.4162 24.2647 24.0021 24.2647 24.342 23.9131C24.6818 23.5499 24.6935 22.9874 24.342 22.6358L5.3693 3.7217C5.01773 3.37014 4.4318 3.35842 4.08023 3.7217C3.74039 4.06154 3.74039 4.64748 4.08023 4.99904L23.0646 23.9131Z" fill="black" fill-opacity="0.85"/>
</g>
<defs>
<clipPath id="clip0_2207_8045">
<rect width="26.0251" height="26.543" fill="white" transform="translate(0.0126953 0.135742)"/>
</clipPath>
</defs>
</svg>
