<svg width="27" height="27" viewBox="0 0 27 27" fill="none" xmlns="http://www.w3.org/2000/svg">
<g clip-path="url(#clip0_2207_8039)">
<path d="M5.00381 24.7919C5.48428 25.1669 6.09366 25.038 6.82022 24.5107L13.0194 19.9521L19.2304 24.5107C19.9569 25.038 20.5546 25.1669 21.0468 24.7919C21.5273 24.4287 21.6327 23.831 21.3398 22.9755L18.8905 15.6865L25.1483 11.1865C25.8749 10.6709 26.1679 10.1318 25.9804 9.5459C25.7929 8.9834 25.2421 8.70215 24.3398 8.71386L16.664 8.76074L14.3319 1.43652C14.0507 0.569336 13.6288 0.135742 13.0194 0.135742C12.4218 0.135742 11.9999 0.569336 11.7187 1.43652L9.38663 8.76074L1.71085 8.71386C0.808499 8.70215 0.257718 8.9834 0.0702183 9.5459C-0.129001 10.1318 0.175687 10.6709 0.902249 11.1865L7.16006 15.6865L4.71085 22.9755C4.41788 23.831 4.52335 24.4287 5.00381 24.7919ZM6.69131 22.4716C6.66788 22.4482 6.6796 22.4365 6.69131 22.3662L9.02335 15.663C9.18741 15.206 9.09366 14.8427 8.6835 14.5615L2.84756 10.5302C2.78897 10.4951 2.77725 10.4716 2.78897 10.4365C2.80069 10.4013 2.82413 10.4013 2.89444 10.4013L9.98428 10.5302C10.4648 10.5419 10.7694 10.3427 10.9218 9.8623L12.9608 3.07715C12.9726 3.00683 12.996 2.9834 13.0194 2.9834C13.0546 2.9834 13.078 3.00683 13.0898 3.07715L15.1288 9.8623C15.2812 10.3427 15.5858 10.5419 16.0663 10.5302L23.1562 10.4013C23.2265 10.4013 23.2499 10.4013 23.2616 10.4365C23.2733 10.4716 23.2499 10.4951 23.203 10.5302L17.3671 14.5615C16.9569 14.8427 16.8632 15.206 17.0273 15.663L19.3593 22.3662C19.371 22.4365 19.3827 22.4482 19.3593 22.4716C19.3358 22.5068 19.3007 22.4834 19.2538 22.4482L13.6171 18.1474C13.2421 17.8545 12.8085 17.8545 12.4335 18.1474L6.79678 22.4482C6.74991 22.4834 6.71475 22.5068 6.69131 22.4716Z" fill="black" fill-opacity="0.85"/>
<path d="M22.0898 24.874C22.9921 25.7646 24.4452 25.7646 25.3241 24.8505C26.1913 23.9716 26.1796 22.5537 25.3124 21.663L6.32803 2.74903C5.44913 1.87013 3.996 1.85841 3.10538 2.74903C2.22647 3.62794 2.22647 5.09278 3.10538 5.95997L22.0898 24.874Z" fill="white"/>
<path d="M23.0624 23.9131C23.414 24.2647 23.9999 24.2647 24.3398 23.9131C24.6796 23.5499 24.6913 22.9874 24.3398 22.6358L5.3671 3.7217C5.01553 3.37014 4.4296 3.35842 4.07803 3.7217C3.73819 4.06154 3.73819 4.64748 4.07803 4.99904L23.0624 23.9131Z" fill="black" fill-opacity="0.85"/>
</g>
<defs>
<clipPath id="clip0_2207_8039">
<rect width="26.0251" height="26.543" fill="white" transform="translate(0.010498 0.135742)"/>
</clipPath>
</defs>
</svg>
