<svg width="25" height="30" viewBox="0 0 25 30" fill="none" xmlns="http://www.w3.org/2000/svg">
<g clip-path="url(#clip0_2207_16339)">
<path d="M12.3584 29.0459C15.5459 29.0459 16.0615 26.6669 17.9248 26.6669C19.8232 26.6669 20.1279 29.0459 23.7842 29.0459H23.8428C24.2998 29.0459 24.6748 28.6826 24.6748 28.2255C24.6748 27.7685 24.2998 27.3935 23.8428 27.3935H23.7842C22.5186 27.3935 21.8154 26.8779 20.9365 26.2451C20.1748 25.6943 19.2256 25.0146 17.9248 25.0146C16.5772 25.0146 15.6162 25.7412 14.8545 26.3037C14.0459 26.9248 13.4014 27.3935 12.3584 27.3935C11.3037 27.3935 10.6709 26.9248 9.8623 26.3037C9.10058 25.7412 8.13965 25.0146 6.79199 25.0146C5.49121 25.0146 4.54199 25.6943 3.78027 26.2451C2.90137 26.8779 2.18652 27.3935 0.932617 27.3935H0.874023C0.405273 27.3935 0.0419922 27.7685 0.0419922 28.2255C0.0419922 28.6826 0.405273 29.0459 0.874023 29.0459H0.932617C4.57715 29.0459 4.89355 26.6669 6.79199 26.6669C8.65527 26.6669 9.15918 29.0459 12.3584 29.0459ZM12.3467 23.0927C18.6279 23.0927 23.8311 17.8896 23.8311 11.6201C23.8311 5.33886 18.6162 0.135742 12.335 0.135742C6.06543 0.135742 0.874023 5.33886 0.874023 11.6201C0.874023 17.8896 6.07715 23.0927 12.3467 23.0927ZM4.41308 6.33496C6.06543 3.74512 8.99511 2.03418 12.3232 2.03418C15.6631 2.03418 18.5928 3.74512 20.2568 6.32324C20.7022 6.95605 20.4912 7.6709 19.7295 7.6709H4.92871C4.19043 7.6709 3.95605 6.95605 4.41308 6.33496ZM12.335 14.6904C10.9522 14.6904 9.83887 13.5771 9.83887 12.1826C9.83887 10.7998 10.9522 9.69824 12.335 9.69824C13.7178 9.69824 14.8311 10.7998 14.8311 12.1826C14.8311 13.5771 13.7178 14.6904 12.335 14.6904ZM3.10058 14.1279C2.91308 13.4365 3.2998 13.1201 3.87402 13.2021C7.1084 13.5654 9.62793 16.4013 9.51074 19.7177C9.49902 20.2919 9.06543 20.6669 8.46777 20.374C5.7959 19.1904 3.83887 16.9052 3.10058 14.1279ZM21.5693 14.1279C20.8428 16.9052 18.874 19.1904 16.2139 20.374C15.6045 20.6669 15.1709 20.2919 15.1709 19.7177C15.0537 16.4013 17.5498 13.5654 20.7959 13.2021C21.3818 13.1201 21.7686 13.4365 21.5693 14.1279Z" fill="black" fill-opacity="0.85"/>
</g>
<defs>
<clipPath id="clip0_2207_16339">
<rect width="24.6328" height="28.9336" fill="white" transform="translate(0.0419922 0.135742)"/>
</clipPath>
</defs>
</svg>
