<svg width="35" height="25" viewBox="0 0 35 25" fill="none" xmlns="http://www.w3.org/2000/svg">
<g clip-path="url(#clip0_2207_16306)">
<path d="M12.0014 24.0419C18.5288 24.0419 23.9545 18.6162 23.9545 12.0888C23.9545 5.5498 18.5171 0.135742 11.9897 0.135742C5.45068 0.135742 0.0483398 5.5498 0.0483398 12.0888C0.0483398 18.6162 5.4624 24.0419 12.0014 24.0419ZM3.75146 6.56933C5.47412 3.89746 8.50928 2.12793 11.978 2.12793C15.435 2.12793 18.4702 3.89746 20.2045 6.55762C20.6733 7.22558 20.4506 7.97558 19.6538 7.97558H4.30225C3.51709 7.97558 3.28272 7.22558 3.75146 6.56933ZM11.978 15.2763C10.5366 15.2763 9.37646 14.1162 9.37646 12.663C9.37646 11.2334 10.5366 10.0732 11.978 10.0732C13.4194 10.0732 14.5795 11.2334 14.5795 12.663C14.5795 14.1162 13.4194 15.2763 11.978 15.2763ZM2.38037 14.7021C2.18115 13.9755 2.59131 13.6474 3.20068 13.7295C6.55225 14.1162 9.15381 17.0576 9.03662 20.5029C9.03662 21.1005 8.57959 21.499 7.9585 21.1943C5.18115 19.9521 3.15381 17.5849 2.38037 14.7021ZM21.5874 14.7021C20.8256 17.5849 18.7866 19.9521 16.021 21.1943C15.3881 21.499 14.9428 21.1005 14.9311 20.5029C14.8256 17.0693 17.4155 14.1162 20.7788 13.7295C21.3881 13.6474 21.7866 13.9755 21.5874 14.7021Z" fill="black" fill-opacity="0.85"/>
<path d="M34.0328 11.5264L28.0093 7.95218C27.5523 7.68265 26.9429 7.9053 26.9429 8.39749V15.7803C26.9429 16.2842 27.5172 16.5186 28.0093 16.2256L34.0328 12.6749C34.5015 12.4053 34.4781 11.7842 34.0328 11.5264Z" fill="black" fill-opacity="0.85"/>
</g>
<defs>
<clipPath id="clip0_2207_16306">
<rect width="34.3272" height="23.918" fill="white" transform="translate(0.0483398 0.135742)"/>
</clipPath>
</defs>
</svg>
