<svg width="27" height="27" viewBox="0 0 27 27" fill="none" xmlns="http://www.w3.org/2000/svg">
<g clip-path="url(#clip0_2207_16295)">
<path d="M13.0855 25.1113C19.6245 25.1113 25.0386 19.6855 25.0386 13.1582C25.0386 6.61914 19.6128 1.20508 13.0737 1.20508C6.54638 1.20508 1.13232 6.61914 1.13232 13.1582C1.13232 19.6855 6.5581 25.1113 13.0855 25.1113ZM7.6831 9.04492L5.40966 6.78321C7.19091 4.62696 9.96825 3.19727 13.062 3.19727C16.5308 3.19727 19.5659 4.9668 21.3003 7.62696C21.7691 8.29492 21.5464 9.04492 20.7495 9.04492H7.6831ZM22.6831 15.7715C21.9097 18.6543 19.8823 21.0215 17.105 22.2636C16.4839 22.5683 16.0269 22.1699 16.0269 21.5722C15.9097 18.1386 18.4995 15.1855 21.8745 14.7988C22.4722 14.7168 22.8823 15.0449 22.6831 15.7715ZM3.46435 15.7715C3.26513 15.0449 3.66357 14.7168 4.27294 14.7988C7.63622 15.1855 10.2378 18.1269 10.1206 21.5722C10.1089 22.1699 9.66357 22.5683 9.03075 22.2636C6.26513 21.0215 4.22607 18.6543 3.46435 15.7715Z" fill="black" fill-opacity="0.85"/>
<path d="M22.2261 25.5332C23.1284 26.4238 24.5816 26.4121 25.4487 25.498C26.3276 24.6074 26.3276 23.1894 25.437 22.3105L3.94483 0.806648C3.06592 -0.0722588 1.62451 -0.0839768 0.722169 0.806648C-0.156738 1.67384 -0.156738 3.13867 0.722169 4.01759L22.2261 25.5332Z" fill="white"/>
<path d="M23.1987 24.5605C23.5503 24.9121 24.1362 24.9004 24.4761 24.5488C24.8276 24.1972 24.8276 23.623 24.4761 23.2715L2.98389 1.77931C2.63233 1.42775 2.04639 1.41603 1.69483 1.77931C1.34326 2.11915 1.34326 2.70509 1.69483 3.05665L23.1987 24.5605Z" fill="black" fill-opacity="0.85"/>
</g>
<defs>
<clipPath id="clip0_2207_16295">
<rect width="26.0435" height="26.0569" fill="white" transform="translate(0.0629883 0.135742)"/>
</clipPath>
</defs>
</svg>
