<svg width="28" height="25" viewBox="0 0 28 25" fill="none" xmlns="http://www.w3.org/2000/svg">
<g clip-path="url(#clip0_2207_16334)">
<path d="M11.9972 24.0419C13.8839 24.0419 15.7003 23.5732 17.3058 22.7646C17.2941 22.6474 17.2941 22.5185 17.2941 22.4013V20.4912C16.8957 20.749 16.4621 20.9951 16.0168 21.1943C15.3839 21.499 14.9386 21.1005 14.9269 20.5029C14.8566 17.9482 16.2629 15.6865 18.3488 14.5263C18.6886 11.9013 20.5988 10.2255 23.0363 10.2255C23.2941 10.2255 23.5636 10.2724 23.7863 10.3545C22.9543 4.62402 17.9269 0.135742 11.9855 0.135742C5.44641 0.135742 0.0440674 5.5498 0.0440674 12.0888C0.0440674 18.6162 5.45813 24.0419 11.9972 24.0419ZM3.74719 6.56933C5.46985 3.89746 8.50501 2.12793 11.9738 2.12793C15.4308 2.12793 18.466 3.89746 20.2003 6.55762C20.6691 7.22558 20.4464 7.97558 19.6496 7.97558H4.29798C3.51282 7.97558 3.27845 7.22558 3.74719 6.56933ZM11.9738 15.2763C10.5324 15.2763 9.37219 14.1162 9.37219 12.663C9.37219 11.2334 10.5324 10.0732 11.9738 10.0732C13.4152 10.0732 14.5753 11.2334 14.5753 12.663C14.5753 14.1162 13.4152 15.2763 11.9738 15.2763ZM2.3761 14.7021C2.17688 13.9755 2.58704 13.6474 3.19641 13.7295C6.54798 14.1162 9.14954 17.0576 9.03235 20.5029C9.03235 21.1005 8.57532 21.499 7.95423 21.1943C5.17688 19.9521 3.14954 17.5849 2.3761 14.7021Z" fill="black" fill-opacity="0.85"/>
<path d="M19.8956 16.9405L21.4307 16.9288V15.2413C21.4307 14.0225 22.0284 13.3663 23.0362 13.3663C24.044 13.3663 24.6417 14.0225 24.6417 15.2413V16.9288L26.1768 16.9405V15.3702C26.1768 13.2491 24.9112 11.8311 23.0362 11.8311C21.1612 11.8311 19.8956 13.2491 19.8956 15.3702V16.9405ZM20.0596 23.6553H26.001C26.7979 23.6553 27.1729 23.2569 27.1729 22.4014V17.8428C27.1729 16.9874 26.7979 16.5889 26.001 16.5889H20.0596C19.2745 16.5889 18.8995 16.9874 18.8995 17.8428V22.4014C18.8995 23.2569 19.2745 23.6553 20.0596 23.6553Z" fill="black" fill-opacity="0.85"/>
</g>
<defs>
<clipPath id="clip0_2207_16334">
<rect width="27.1289" height="23.918" fill="white" transform="translate(0.0440674 0.135742)"/>
</clipPath>
</defs>
</svg>
