<svg width="24" height="25" viewBox="0 0 24 25" fill="none" xmlns="http://www.w3.org/2000/svg">
<g clip-path="url(#clip0_2207_16290)">
<path d="M12.0078 24.0419C18.5469 24.0419 23.9609 18.6162 23.9609 12.0888C23.9609 5.5498 18.5352 0.135742 11.9961 0.135742C5.46875 0.135742 0.0546875 5.5498 0.0546875 12.0888C0.0546875 18.6162 5.48047 24.0419 12.0078 24.0419Z" fill="black" fill-opacity="0.85"/>
<path d="M12.0195 19.3896C8.02344 19.3896 4.71875 16.0849 4.71875 12.0888C4.71875 8.09278 8.01172 4.78809 12.0078 4.78809C16.0156 4.78809 19.3203 8.09278 19.3203 12.0888C19.3203 16.0849 16.0156 19.3896 12.0195 19.3896ZM7.26172 8.88966C7.00391 9.26466 7.13281 9.69825 7.58985 9.69825H16.4375C16.8945 9.69825 17.0117 9.26466 16.7539 8.88966C15.7461 7.36622 14.0117 6.33497 12.0078 6.33497C10.0156 6.33497 8.28125 7.36622 7.26172 8.88966ZM12.0078 13.9287C12.8399 13.9287 13.5195 13.2607 13.5195 12.4169C13.5195 11.5732 12.8399 10.9169 12.0078 10.9169C11.1758 10.9169 10.5078 11.5732 10.5078 12.4169C10.5078 13.2607 11.1758 13.9287 12.0078 13.9287ZM6.47657 13.6005C6.91016 15.2646 8.08203 16.624 9.6875 17.3388C10.0391 17.5146 10.3203 17.2919 10.3203 16.9404C10.3906 14.9482 8.89063 13.249 6.9336 13.0263C6.59375 12.9795 6.35938 13.1787 6.47657 13.6005ZM17.5508 13.6005C17.668 13.1787 17.4336 12.9795 17.0938 13.0263C15.1367 13.249 13.6485 14.9599 13.707 16.9404C13.707 17.2919 13.9883 17.5146 14.3516 17.3388C15.9453 16.624 17.1172 15.2646 17.5508 13.6005Z" fill="white"/>
</g>
<defs>
<clipPath id="clip0_2207_16290">
<rect width="23.9062" height="23.918" fill="white" transform="translate(0.0546875 0.135742)"/>
</clipPath>
</defs>
</svg>
