<svg width="22" height="22" viewBox="0 0 22 22" fill="none" xmlns="http://www.w3.org/2000/svg">
<g clip-path="url(#clip0_2207_25437)">
<path d="M3.75318 21.7334H17.968C20.429 21.7334 21.6477 20.5146 21.6477 18.1005V3.79199C21.6477 1.37793 20.429 0.15918 17.968 0.15918H3.75318C1.30396 0.15918 0.0734863 1.36621 0.0734863 3.79199V18.1005C0.0734863 20.5263 1.30396 21.7334 3.75318 21.7334Z" fill="black" fill-opacity="0.85"/>
<path d="M7.04615 16.4013C6.62427 16.4013 6.3313 16.1201 6.3313 15.6865C6.3313 15.2763 6.53052 15.0419 6.96411 14.9013C7.86646 14.6435 8.65161 13.7998 8.65161 12.5224C8.65161 12.1357 8.5813 11.7255 8.47583 11.3154H7.04615C6.65943 11.3154 6.37818 11.0576 6.37818 10.6591C6.37818 10.2724 6.65943 10.0146 7.04615 10.0146H8.15943C8.04224 9.5459 7.96021 9.06543 7.96021 8.58496C7.96021 6.2998 9.48365 4.8584 11.968 4.8584C12.7297 4.8584 13.3977 4.95215 13.9602 5.16308C14.4173 5.33886 14.5696 5.59668 14.5696 5.9248C14.5696 6.31152 14.3704 6.55762 13.9133 6.55762C13.5852 6.55762 13.093 6.28808 12.0618 6.28808C10.4797 6.28808 9.54224 7.17871 9.54224 8.47949C9.54224 9.06543 9.64771 9.55762 9.75318 10.0146H13.0813C13.468 10.0146 13.761 10.2724 13.761 10.6591C13.761 11.0576 13.468 11.3154 13.0813 11.3154H10.0696C10.1516 11.6669 10.1985 12.0419 10.1985 12.4638C10.1985 13.4834 9.77661 14.456 9.15552 14.9834H14.4055C14.8274 14.9834 15.1321 15.2646 15.1321 15.6865C15.1321 16.1318 14.8274 16.4013 14.4055 16.4013H7.04615Z" fill="white"/>
</g>
<defs>
<clipPath id="clip0_2207_25437">
<rect width="21.5742" height="21.5977" fill="white" transform="translate(0.0734863 0.135742)"/>
</clipPath>
</defs>
</svg>
