<svg width="24" height="25" viewBox="0 0 24 25" fill="none" xmlns="http://www.w3.org/2000/svg">
<g clip-path="url(#clip0_2207_25427)">
<path d="M12.0224 24.0419C18.5615 24.0419 23.9755 18.6279 23.9755 12.0888C23.9755 5.56152 18.5498 0.135742 12.0107 0.135742C5.4834 0.135742 0.0693359 5.56152 0.0693359 12.0888C0.0693359 18.6279 5.49512 24.0419 12.0224 24.0419Z" fill="black" fill-opacity="0.85"/>
<path d="M8.20214 17.5615C7.76855 17.5615 7.4873 17.2919 7.4873 16.8466C7.4873 16.4482 7.68652 16.2021 8.12011 16.0732C9.02245 15.8154 9.80761 14.9716 9.80761 13.6826C9.80761 13.2959 9.7373 12.8974 9.63183 12.4755H8.20214C7.81542 12.4755 7.52245 12.2177 7.52245 11.831C7.52245 11.4326 7.81542 11.1748 8.20214 11.1748H9.31542C9.19824 10.706 9.11621 10.2255 9.11621 9.74512C9.11621 7.45996 10.6396 6.01855 13.124 6.01855C13.874 6.01855 14.5537 6.1123 15.1162 6.32324C15.5732 6.49902 15.7255 6.75683 15.7255 7.09668C15.7255 7.47168 15.5263 7.72949 15.0693 7.72949C14.7295 7.72949 14.249 7.44824 13.2177 7.44824C11.6357 7.44824 10.6982 8.33886 10.6982 9.63965C10.6982 10.2255 10.8037 10.7177 10.9091 11.1748H14.2373C14.624 11.1748 14.9052 11.4326 14.9052 11.831C14.9052 12.2177 14.624 12.4755 14.2373 12.4755H11.2255C11.3076 12.8271 11.3545 13.2021 11.3545 13.624C11.3545 14.6552 10.9326 15.6162 10.3115 16.1435H15.5498C15.9834 16.1435 16.2881 16.4248 16.2881 16.8584C16.2881 17.2919 15.9834 17.5615 15.5498 17.5615H8.20214Z" fill="white"/>
</g>
<defs>
<clipPath id="clip0_2207_25427">
<rect width="23.9062" height="23.918" fill="white" transform="translate(0.0693359 0.135742)"/>
</clipPath>
</defs>
</svg>
