<svg width="17" height="22" viewBox="0 0 17 22" fill="none" xmlns="http://www.w3.org/2000/svg">
<g clip-path="url(#clip0_2207_25418)">
<path d="M1.073 21.4052H15.0535C15.6394 21.4052 16.073 21.0185 16.073 20.4326C16.073 19.8349 15.6394 19.4716 15.0535 19.4716H3.78003V19.413C5.45581 18.8505 6.67457 16.7998 6.67457 14.2568C6.67457 11.3388 5.43238 9.66308 5.43238 6.69824C5.43238 3.97949 7.3191 2.12793 10.5886 2.12793C12.5808 2.12793 13.4832 2.66699 14.1277 2.66699C14.7254 2.66699 15.0066 2.31543 15.0066 1.7998C15.0066 1.30762 14.7136 0.967773 14.0574 0.698242C13.0261 0.288086 11.8191 0.135742 10.4129 0.135742C5.91285 0.135742 3.1355 2.76074 3.1355 6.8623C3.1355 9.49902 4.47144 12.1591 4.47144 14.3505C4.47144 16.999 2.86597 18.7334 0.990967 19.2607C0.346436 19.4599 0.0651855 19.7998 0.0651855 20.3974C0.0651855 20.9834 0.487061 21.4052 1.073 21.4052ZM0.21753 10.7763C0.21753 11.2568 0.604248 11.6318 1.08472 11.6318H12.5457C13.0261 11.6318 13.4011 11.2568 13.4011 10.7763C13.4011 10.2959 13.0261 9.9209 12.5457 9.9209H1.08472C0.604248 9.9209 0.21753 10.2959 0.21753 10.7763Z" fill="black" fill-opacity="0.85"/>
</g>
<defs>
<clipPath id="clip0_2207_25418">
<rect width="16.0078" height="21.3164" fill="white" transform="translate(0.0651855 0.135742)"/>
</clipPath>
</defs>
</svg>
