<svg width="24" height="25" viewBox="0 0 24 25" fill="none" xmlns="http://www.w3.org/2000/svg">
<g clip-path="url(#clip0_2207_10557)">
<path d="M12.0307 24.0419C18.5698 24.0419 23.9838 18.6162 23.9838 12.0888C23.9838 5.5498 18.5581 0.135742 12.019 0.135742C5.4917 0.135742 0.0776367 5.5498 0.0776367 12.0888C0.0776367 18.6162 5.50342 24.0419 12.0307 24.0419ZM12.0307 22.0498C6.49952 22.0498 2.08155 17.6201 2.08155 12.0888C2.08155 6.55762 6.4878 2.12793 12.019 2.12793C17.5503 2.12793 21.9917 6.55762 21.9917 12.0888C21.9917 17.6201 17.562 22.0498 12.0307 22.0498Z" fill="black" fill-opacity="0.85"/>
<path d="M4.44873 8.58496C4.44873 11.1982 6.72217 14.4209 8.62061 14.4209H8.8667C10.7651 14.4209 13.0385 11.1982 13.0385 8.58496C13.0385 7.26074 12.3588 6.5459 11.0698 6.5459H10.2964V7.82324H11.1167C11.5503 7.82324 11.7495 8.06933 11.7495 8.58496C11.7495 10.5185 10.0269 13.1318 8.74952 13.1318C7.46045 13.1318 5.7378 10.5185 5.7378 8.58496C5.7378 8.05762 5.93702 7.82324 6.37061 7.82324H7.19092V6.5459H6.41748C5.14014 6.5459 4.44873 7.26074 4.44873 8.58496ZM11.0932 18.5341C12.8393 18.5341 13.8237 17.2216 14.3159 14.3271C14.6323 12.5107 15.0424 11.8427 15.769 11.8427C16.5659 11.8427 16.9643 12.7099 17.0229 14.7138H18.312C18.1831 11.9013 17.3745 10.5654 15.769 10.5654C14.2924 10.5654 13.5073 11.5849 13.0503 14.0576C12.6518 16.3076 12.1714 17.2451 11.0464 17.2451C9.94483 17.2451 9.32373 15.956 9.37061 13.6591H8.09326C8.03467 16.7412 9.12452 18.5341 11.0932 18.5341ZM7.27295 8.20996C7.83545 8.20996 8.29248 7.74121 8.29248 7.17871C8.29248 6.60449 7.83545 6.14746 7.27295 6.14746C6.71045 6.14746 6.22998 6.61621 6.22998 7.17871C6.22998 7.74121 6.69873 8.20996 7.27295 8.20996ZM10.2143 8.20996C10.7651 8.20996 11.2338 7.74121 11.2338 7.17871C11.2338 6.61621 10.7651 6.14746 10.2143 6.14746C9.64014 6.14746 9.18311 6.60449 9.18311 7.17871C9.18311 7.74121 9.64014 8.20996 10.2143 8.20996ZM17.6909 17.7959C18.7807 17.7959 19.6596 16.9169 19.6596 15.8388C19.6596 14.7607 18.769 13.8935 17.6909 13.8935C16.6128 13.8818 15.7456 14.7607 15.7456 15.8388C15.7456 16.9287 16.601 17.7959 17.6909 17.7959ZM17.6909 16.6357C17.2573 16.6357 16.9174 16.2724 16.9174 15.8388C16.9174 15.3935 17.2573 15.0537 17.6909 15.0537C18.1362 15.0537 18.4878 15.3935 18.4878 15.8388C18.4878 16.2724 18.1245 16.6357 17.6909 16.6357Z" fill="black" fill-opacity="0.85"/>
</g>
<defs>
<clipPath id="clip0_2207_10557">
<rect width="23.9062" height="23.918" fill="white" transform="translate(0.0776367 0.135742)"/>
</clipPath>
</defs>
</svg>
