<svg width="32" height="26" viewBox="0 0 32 26" fill="none" xmlns="http://www.w3.org/2000/svg">
<g clip-path="url(#clip0_2207_10552)">
<path d="M0.0756836 5.28027C0.0756836 10.0732 4.41162 17.1748 8.47802 17.1748H9.00537C13.0718 17.1748 17.4077 10.0732 17.4077 5.28027C17.4077 2.69043 16.1304 1.36621 13.6577 1.36621H12.4155V3.25293H13.7515C14.9351 3.25293 15.521 3.95605 15.521 5.25683C15.521 8.97168 12.0757 15.288 8.73584 15.288C5.39599 15.288 1.9624 8.97168 1.9624 5.25683C1.9624 3.95605 2.54834 3.25293 3.72021 3.25293H5.05615V1.36621H3.81396C1.35302 1.36621 0.0756836 2.69043 0.0756836 5.28027ZM13.728 25.8818C17.2905 25.8818 19.1421 23.0459 20.1265 17.3271C20.8765 13.0615 21.9077 11.7255 23.6187 11.7255C25.5874 11.7255 26.5366 13.7177 26.7124 17.7959H28.5991C28.2476 12.499 26.7827 9.83886 23.6187 9.83886C20.7593 9.83886 19.2124 11.7841 18.2749 16.9052C17.4429 21.5107 16.3999 23.9951 13.6109 23.9951C11.0796 23.9951 9.6499 21.2529 9.66162 16.413H7.7749C7.76318 22.4951 9.91943 25.8818 13.728 25.8818Z" fill="black" fill-opacity="0.85"/>
<path d="M5.64209 4.06152C6.60302 4.06152 7.3999 3.26465 7.3999 2.29199C7.3999 1.31933 6.60302 0.522461 5.64209 0.522461C4.66943 0.522461 3.87256 1.31933 3.87256 2.29199C3.87256 3.26465 4.66943 4.06152 5.64209 4.06152ZM11.8179 4.06152C12.7905 4.06152 13.5874 3.26465 13.5874 2.29199C13.5874 1.31933 12.7905 0.522461 11.8179 0.522461C10.8569 0.522461 10.0601 1.31933 10.0601 2.29199C10.0601 3.26465 10.8569 4.06152 11.8179 4.06152ZM27.7319 24.3232C29.771 24.3232 31.4351 22.6709 31.4351 20.6084C31.4351 18.5693 29.771 16.9169 27.7319 16.9052C25.6812 16.8935 24.0171 18.5693 24.0171 20.6084C24.0171 22.6709 25.6812 24.3232 27.7319 24.3232ZM27.7319 22.6709C26.5952 22.6709 25.6577 21.7451 25.6577 20.6084C25.6577 19.4599 26.5952 18.5459 27.7319 18.5459C28.8687 18.5459 29.7945 19.4599 29.7945 20.6084C29.7945 21.7451 28.8687 22.6709 27.7319 22.6709Z" fill="black" fill-opacity="0.85"/>
</g>
<defs>
<clipPath id="clip0_2207_10552">
<rect width="31.3594" height="25.7461" fill="white" transform="translate(0.0756836 0.135742)"/>
</clipPath>
</defs>
</svg>
