<svg width="24" height="25" viewBox="0 0 24 25" fill="none" xmlns="http://www.w3.org/2000/svg">
<g clip-path="url(#clip0_2207_10562)">
<path d="M12.0329 24.0537C18.572 24.0537 23.986 18.6396 23.986 12.1005C23.986 5.57324 18.5603 0.147461 12.0212 0.147461C5.49389 0.147461 0.079834 5.57324 0.079834 12.1005C0.079834 18.6396 5.50561 24.0537 12.0329 24.0537Z" fill="black" fill-opacity="0.85"/>
<path d="M4.21655 8.47949C4.21655 7.12012 4.93139 6.38183 6.24389 6.38183H6.30249C6.48999 6.13574 6.79467 5.97168 7.13452 5.97168C7.70874 5.97168 8.18921 6.45215 8.18921 7.03808C8.18921 7.6123 7.70874 8.10449 7.13452 8.10449C6.79467 8.10449 6.50171 7.95215 6.31421 7.71777H6.19702C5.75171 7.71777 5.55249 7.94043 5.55249 8.47949C5.55249 10.4716 7.32202 13.1669 8.64624 13.1669C9.95874 13.1669 11.74 10.4716 11.74 8.47949C11.74 7.95215 11.529 7.71777 11.0837 7.71777H10.9548C10.7673 7.95215 10.4743 8.10449 10.1579 8.10449C9.5603 8.10449 9.09155 7.6123 9.09155 7.03808C9.09155 6.45215 9.5603 5.97168 10.1579 5.97168C10.486 5.97168 10.7907 6.13574 10.9782 6.38183H11.0368C12.3728 6.38183 13.0759 7.12012 13.0759 8.47949C13.0759 10.9521 11.1189 13.9287 9.30249 14.4209C9.38452 16.3427 10.0056 17.3974 11.0134 17.3974C12.1736 17.3974 12.6657 16.4365 13.0759 14.1279C13.5564 11.5732 14.365 10.5185 15.8884 10.5185C17.4001 10.5185 18.2087 11.6669 18.4665 14.0459C19.2868 14.2919 19.8962 15.0654 19.8962 15.956C19.8962 17.0693 18.9939 17.9716 17.8689 17.9716C16.7439 17.9716 15.865 17.081 15.865 15.956C15.865 15.1005 16.404 14.374 17.154 14.0927C17.0251 12.5341 16.6032 11.8427 15.8884 11.8427C15.1384 11.8427 14.7165 12.5341 14.3884 14.3974C13.8845 17.3857 12.865 18.7334 11.0603 18.7334C9.1853 18.7334 8.09545 17.163 7.97827 14.4209C6.16186 13.9169 4.21655 10.9287 4.21655 8.47949ZM17.072 15.956C17.072 16.4013 17.4236 16.7763 17.8689 16.7763C18.3142 16.7763 18.6892 16.4013 18.6892 15.956C18.6892 15.5107 18.3259 15.1474 17.8689 15.1474C17.4236 15.1474 17.072 15.5107 17.072 15.956Z" fill="white"/>
</g>
<defs>
<clipPath id="clip0_2207_10562">
<rect width="23.9062" height="23.918" fill="white" transform="translate(0.079834 0.135742)"/>
</clipPath>
</defs>
</svg>
