<svg width="20" height="20" viewBox="0 0 20 20" fill="none" xmlns="http://www.w3.org/2000/svg">
<g clip-path="url(#clip0_2207_5146)">
<path d="M0.0820312 16.6474C0.0820312 18.2763 1.06641 19.2373 2.70703 19.2373H16.5468C18.1992 19.2373 19.1718 18.2763 19.1718 16.6474V2.72558C19.1718 1.09668 18.1992 0.135742 16.5468 0.135742H2.70703C1.06641 0.135742 0.0820312 1.09668 0.0820312 2.72558V16.6474ZM1.96875 16.2021V3.1709C1.96875 2.45605 2.39062 2.02246 3.09375 2.02246H16.1601C16.875 2.02246 17.2851 2.45605 17.2851 3.1709V16.2021C17.2851 16.9169 16.875 17.3505 16.1601 17.3505H3.09375C2.39062 17.3505 1.96875 16.9169 1.96875 16.2021Z" fill="black" fill-opacity="0.85"/>
</g>
<defs>
<clipPath id="clip0_2207_5146">
<rect width="19.0898" height="19.1133" fill="white" transform="translate(0.0820312 0.135742)"/>
</clipPath>
</defs>
</svg>
