<svg width="28" height="26" viewBox="0 0 28 26" fill="none" xmlns="http://www.w3.org/2000/svg">
<g clip-path="url(#clip0_2207_10831)">
<path d="M4.11401 14.2568C5.41479 14.2568 6.55151 13.6591 7.26636 12.7099C7.96948 13.6591 9.1062 14.2568 10.407 14.2568C11.7195 14.2568 12.8562 13.6591 13.5593 12.7099C14.2625 13.6591 15.3992 14.2568 16.7117 14.2568C18.0242 14.2568 19.1492 13.6591 19.864 12.7099C20.5672 13.6591 21.7039 14.2568 23.0047 14.2568C25.2547 14.2568 27.0242 12.4873 27.0242 10.2607V10.0615C27.0242 9.60449 26.907 9.19433 26.6726 8.7959L23.5672 3.4873V2.51465C23.5672 1.02637 22.6531 0.135742 21.1414 0.135742H5.98901C4.47729 0.135742 3.55151 1.02637 3.55151 2.51465V3.4873L0.446044 8.7959C0.21167 9.19433 0.0944824 9.60449 0.0944824 10.0615V10.2607C0.0944824 12.4873 1.86401 14.2568 4.11401 14.2568ZM5.32104 3.12402V2.84277C5.32104 2.25683 5.66089 1.90527 6.2351 1.90527H20.8836C21.4578 1.90527 21.7976 2.25683 21.7976 2.84277V3.12402H5.32104ZM2.12182 9.37012L4.66479 4.89355H22.3601L24.9734 9.37012H2.12182ZM1.85229 11.0224H6.37573C6.11792 11.9716 5.32104 12.6045 4.11401 12.6045C2.90698 12.6045 2.1101 11.9716 1.85229 11.0224ZM8.15698 11.0224H12.6687C12.4109 11.9716 11.614 12.6045 10.407 12.6045C9.21167 12.6045 8.40307 11.9716 8.15698 11.0224ZM14.45 11.0224H18.9734C18.7156 11.9716 17.9187 12.6045 16.7117 12.6045C15.5047 12.6045 14.7078 11.9716 14.45 11.0224ZM20.7547 11.0224H25.2664C25.0086 11.9716 24.2117 12.6045 23.0047 12.6045C21.8093 12.6045 21.0007 11.9716 20.7547 11.0224ZM4.74682 25.8232H22.3718C24.0359 25.8232 25.0086 24.874 25.0086 23.2334V13.2841L23.1218 13.3545V22.7529C23.1218 23.5146 22.7234 23.9365 21.9734 23.9365H5.15698C4.40698 23.9365 3.99682 23.5146 3.99682 22.7529V13.3427L2.1101 13.3193V23.2334C2.1101 24.874 3.08276 25.8232 4.74682 25.8232ZM5.8601 25.0498H12.6218V17.3623C12.6218 16.8232 12.2703 16.4716 11.7312 16.4716H6.76245C6.22339 16.4716 5.8601 16.8232 5.8601 17.3623V25.0498ZM14.825 16.7412V20.0459C14.825 20.5966 15.1765 20.9365 15.7273 20.9365H20.4851C21.0242 20.9365 21.364 20.5966 21.364 20.0459V16.7412C21.364 16.1904 21.0242 15.8505 20.4851 15.8505H15.7273C15.1765 15.8505 14.825 16.1904 14.825 16.7412Z" fill="black" fill-opacity="0.85"/>
</g>
<defs>
<clipPath id="clip0_2207_10831">
<rect width="26.9297" height="25.6992" fill="white" transform="translate(0.0944824 0.135742)"/>
</clipPath>
</defs>
</svg>
