<svg width="25" height="25" viewBox="0 0 25 25" fill="none" xmlns="http://www.w3.org/2000/svg">
<g clip-path="url(#clip0_2207_10844)">
<path d="M12.0517 24.0419C18.5908 24.0419 24.0048 18.6162 24.0048 12.0888C24.0048 5.5498 18.5791 0.135742 12.04 0.135742C5.51269 0.135742 0.0986328 5.5498 0.0986328 12.0888C0.0986328 18.6162 5.52441 24.0419 12.0517 24.0419Z" fill="black" fill-opacity="0.85"/>
<path d="M5.27832 9.26466L7.02441 6.042C7.29394 5.54981 7.78613 5.25684 8.36035 5.25684H15.6494C16.2119 5.25684 16.7041 5.54981 16.9736 6.042L18.7197 9.26466H5.27832ZM7.21191 11.9013C6.08691 11.9013 5.18457 11.1396 5.18457 10.3427V10.0967H18.8252V10.2255C18.8252 11.0224 17.9228 11.9013 16.7978 11.9013C16.1298 11.9013 15.5556 11.5966 15.1924 11.1045C14.8408 11.5966 14.2783 11.9013 13.5986 11.9013C12.9189 11.9013 12.3681 11.5966 12.0048 11.1045C11.6416 11.5966 11.0791 11.9013 10.4111 11.9013C9.73144 11.9013 9.15722 11.5966 8.81738 11.1045C8.4541 11.5966 7.87988 11.9013 7.21191 11.9013ZM7.35254 18.9091C6.47363 18.9091 5.94629 18.4052 5.94629 17.538V12.4755C6.33301 12.6513 6.77832 12.7685 7.24707 12.7685C7.85644 12.7685 8.40722 12.5576 8.85254 12.2177C9.27441 12.5576 9.82519 12.7685 10.4463 12.7685C11.0439 12.7685 11.6064 12.5576 12.04 12.2177C12.4736 12.5576 13.0361 12.7685 13.6338 12.7685C14.2431 12.7685 14.7939 12.5576 15.2392 12.2177C15.6728 12.5576 16.2236 12.7685 16.833 12.7685C17.3017 12.7685 17.7588 12.6279 18.122 12.4404V17.538C18.122 18.4052 17.6064 18.9091 16.7275 18.9091H7.35254ZM9.69629 17.6787H14.3838V14.4326C14.3838 14.1513 14.208 13.9638 13.9267 13.9638H10.1767C9.88379 13.9638 9.69629 14.1513 9.69629 14.4326V17.6787Z" fill="white"/>
</g>
<defs>
<clipPath id="clip0_2207_10844">
<rect width="23.9062" height="23.918" fill="white" transform="translate(0.0986328 0.135742)"/>
</clipPath>
</defs>
</svg>
