<svg width="23" height="24" viewBox="0 0 23 24" fill="none" xmlns="http://www.w3.org/2000/svg">
<g clip-path="url(#clip0_2207_12307)">
<path d="M0.00415039 6.28906H22.5394V2.58594C22.5394 1.10937 21.59 0.136719 20.1721 0.136719H2.35962C0.953369 0.136719 0.00415039 1.10937 0.00415039 2.58594V6.28906ZM4.80884 4.67188C4.14087 4.67188 3.59009 4.14453 3.59009 3.48828C3.59009 2.82031 4.14087 2.29297 4.80884 2.29297C5.45337 2.29297 6.00415 2.82031 6.00415 3.48828C6.00415 4.14453 5.45337 4.67188 4.80884 4.67188ZM9.10962 4.67188C8.44165 4.67188 7.89087 4.14453 7.89087 3.48828C7.89087 2.82031 8.44165 2.29297 9.10962 2.29297C9.75415 2.29297 10.305 2.82031 10.305 3.48828C10.305 4.14453 9.75415 4.67188 9.10962 4.67188ZM13.3987 4.67188C12.7424 4.67188 12.1917 4.14453 12.1917 3.48828C12.1917 2.82031 12.7424 2.29297 13.3987 2.29297C14.0549 2.29297 14.6058 2.82031 14.6058 3.48828C14.6058 4.14453 14.0549 4.67188 13.3987 4.67188ZM17.6994 4.67188C17.0549 4.67188 16.5042 4.14453 16.5042 3.48828C16.5042 2.82031 17.0549 2.29297 17.6994 2.29297C18.3674 2.29297 18.9183 2.82031 18.9183 3.48828C18.9183 4.14453 18.3674 4.67188 17.6994 4.67188ZM2.35962 21.0312H20.1721C21.59 21.0312 22.5394 20.0586 22.5394 18.582V7.58984H0.00415039V18.582C0.00415039 20.0586 0.953369 21.0312 2.35962 21.0312ZM4.12915 18.125C3.44946 18.125 3.00415 17.6797 3.00415 17V10.7773C3.00415 10.0859 3.44946 9.64063 4.12915 9.64063H18.4144C19.094 9.64063 19.5511 10.0859 19.5511 10.7773V17C19.5511 17.6797 19.094 18.125 18.4144 18.125H4.12915ZM4.60962 16.8242H17.9456C18.1097 16.8242 18.2502 16.6836 18.2502 16.5078V11.2695C18.2502 11.082 18.1097 10.9414 17.9456 10.9414H4.60962C4.43384 10.9414 4.30493 11.082 4.30493 11.2695V16.5078C4.30493 16.6836 4.43384 16.8242 4.60962 16.8242ZM3.35571 23.1406C3.91821 23.1406 4.29321 22.7656 4.29321 22.2031V19.8594H2.40649V22.2031C2.40649 22.7656 2.79321 23.1406 3.35571 23.1406ZM19.1877 23.1406C19.7502 23.1406 20.1252 22.7656 20.1252 22.2031V19.8594H18.2386V22.2031C18.2386 22.7656 18.6252 23.1406 19.1877 23.1406Z" fill="black" fill-opacity="0.85"/>
</g>
<defs>
<clipPath id="clip0_2207_12307">
<rect width="22.5352" height="23.0039" fill="white" transform="translate(0.00415039 0.136719)"/>
</clipPath>
</defs>
</svg>
