<svg width="19" height="32" viewBox="0 0 19 32" fill="none" xmlns="http://www.w3.org/2000/svg">
<g clip-path="url(#clip0_2207_10733)">
<path d="M3.49902 29.75H15.1709C17.1982 29.75 18.6279 28.3203 18.6279 26.2929V10.0273C18.6279 7.98828 17.1982 6.57031 15.1709 6.57031H3.49902C1.47168 6.57031 0.0419922 7.98828 0.0419922 10.0273V26.2929C0.0419922 28.3203 1.47168 29.75 3.49902 29.75ZM0.0419922 25.0039V23.0469H18.6279V25.0039H0.0419922ZM4.12011 7.91797H5.93652V2.77344C5.93652 2.21094 6.34668 1.84766 6.95605 1.84766H11.8311C12.3701 1.84766 12.7334 2.21094 12.7334 2.77344V7.89453H14.5498V2.79688C14.5498 1.16797 13.5303 0.136719 11.9131 0.136719H6.87402C5.18652 0.136719 4.12011 1.16797 4.12011 2.79688V7.91797ZM3.96777 31.4609H4.69433C5.32715 31.4609 5.7373 31.0508 5.7373 30.4297V28.6484H2.9248V30.4297C2.9248 31.0508 3.33496 31.4609 3.96777 31.4609ZM13.9756 31.4609H14.7022C15.3232 31.4609 15.7451 31.0508 15.7451 30.4297V28.6484H12.9326V30.4297C12.9326 31.0508 13.3428 31.4609 13.9756 31.4609Z" fill="black" fill-opacity="0.85"/>
</g>
<defs>
<clipPath id="clip0_2207_10733">
<rect width="18.5859" height="31.8398" fill="white" transform="translate(0.0419922 0.136719)"/>
</clipPath>
</defs>
</svg>
