<svg width="23" height="23" viewBox="0 0 23 23" fill="none" xmlns="http://www.w3.org/2000/svg">
<g clip-path="url(#clip0_2207_8007)">
<path d="M0.0168457 13.3437C0.0168457 16.1445 2.23169 18.3125 5.02076 18.3125C6.57935 18.3125 8.18482 17.7969 8.86451 16.4258H8.98169C8.99341 17.9844 7.28247 19.2734 6.57935 20C5.7356 20.8789 6.25123 22.0976 7.34107 22.0976H14.7824C15.8723 22.0976 16.3762 20.8789 15.5441 20C14.841 19.2734 13.1301 17.9844 13.1418 16.4258H13.259C13.9387 17.7969 15.5441 18.3125 17.091 18.3125C19.8918 18.3125 22.1066 16.1445 22.1066 13.3437C22.1066 10.5312 19.9856 8.15234 17.1848 8.15234C16.1066 8.15234 15.0051 8.51563 14.1496 9.19531C15.6027 8.01172 16.1066 6.52344 16.1066 5.1875C16.1066 2.38672 13.8449 0.136719 11.0559 0.136719C8.27857 0.136719 6.01685 2.38672 6.01685 5.1875C6.01685 6.52344 6.52076 8.01172 7.97388 9.19531C7.11841 8.51563 6.01685 8.15234 4.93873 8.15234C2.13794 8.15234 0.0168457 10.5312 0.0168457 13.3437Z" fill="black" fill-opacity="0.85"/>
</g>
<defs>
<clipPath id="clip0_2207_8007">
<rect width="22.0898" height="22.043" fill="white" transform="translate(0.0168457 0.136719)"/>
</clipPath>
</defs>
</svg>
