<svg width="26" height="26" viewBox="0 0 26 26" fill="none" xmlns="http://www.w3.org/2000/svg">
<g clip-path="url(#clip0_2207_3855)">
<path d="M12.751 4.69531C13.3018 4.69531 13.7588 4.23828 13.7588 3.67578V1.15625C13.7588 0.59375 13.3018 0.136719 12.751 0.136719C12.1885 0.136719 11.7315 0.59375 11.7315 1.15625V3.67578C11.7315 4.23828 12.1885 4.69531 12.751 4.69531ZM18.4932 7.09766C18.8916 7.48438 19.5361 7.4961 19.9346 7.09766L21.7275 5.30469C22.1143 4.91797 22.1143 4.26172 21.7275 3.86328C21.3408 3.47656 20.6963 3.47656 20.2979 3.86328L18.4932 5.66797C18.1065 6.06641 18.1065 6.71094 18.4932 7.09766ZM20.8721 12.8515C20.8721 13.4023 21.3408 13.8594 21.8916 13.8594H24.4111C24.9619 13.8594 25.419 13.4023 25.419 12.8515C25.419 12.3008 24.9619 11.832 24.4111 11.832H21.8916C21.3408 11.832 20.8721 12.3008 20.8721 12.8515ZM18.4932 18.6055C18.1065 19.0039 18.1065 19.6484 18.4932 20.0351L20.2979 21.8515C20.6963 22.2265 21.3408 22.2148 21.7275 21.8398C22.1143 21.4414 22.1143 20.7969 21.7275 20.4101L19.9229 18.6055C19.5361 18.2305 18.8916 18.2305 18.4932 18.6055ZM12.751 21.0078C12.1885 21.0078 11.7315 21.4648 11.7315 22.0156V24.5469C11.7315 25.0976 12.1885 25.5547 12.751 25.5547C13.3018 25.5547 13.7588 25.0976 13.7588 24.5469V22.0156C13.7588 21.4648 13.3018 21.0078 12.751 21.0078ZM6.99707 18.6055C6.59863 18.2305 5.94238 18.2305 5.55567 18.6055L3.7627 20.3984C3.37598 20.7851 3.37598 21.4297 3.75098 21.8281C4.1377 22.2031 4.79395 22.2148 5.19238 21.8398L6.98535 20.0351C7.37207 19.6484 7.37207 19.0039 6.99707 18.6055ZM4.61817 12.8515C4.61817 12.3008 4.14941 11.832 3.59863 11.832H1.0791C0.52832 11.832 0.0712891 12.3008 0.0712891 12.8515C0.0712891 13.4023 0.52832 13.8594 1.0791 13.8594H3.59863C4.14941 13.8594 4.61817 13.4023 4.61817 12.8515ZM6.98535 7.09766C7.37207 6.72266 7.37207 6.05469 6.99707 5.66797L5.2041 3.86328C4.81738 3.48828 4.16113 3.47656 3.77441 3.86328C3.3877 4.26172 3.3877 4.91797 3.7627 5.29297L5.55567 7.09766C5.94238 7.48438 6.58691 7.48438 6.98535 7.09766Z" fill="black" fill-opacity="0.85"/>
<path d="M12.7393 18.8281C15.9971 18.8281 18.7041 16.1211 18.7041 12.8515C18.7041 9.57031 15.9971 6.86328 12.7393 6.86328C9.48145 6.86328 6.77441 9.57031 6.77441 12.8515C6.77441 16.1211 9.48145 18.8281 12.7393 18.8281ZM12.7393 17.0351C10.4541 17.0351 8.55567 15.1367 8.55567 12.8515C8.55567 10.5547 10.4541 8.65625 12.7393 8.65625C15.0244 8.65625 16.9229 10.5547 16.9229 12.8515C16.9229 15.1367 15.0244 17.0351 12.7393 17.0351Z" fill="black" fill-opacity="0.85"/>
</g>
<defs>
<clipPath id="clip0_2207_3855">
<rect width="25.3477" height="25.4414" fill="white" transform="translate(0.0712891 0.136719)"/>
</clipPath>
</defs>
</svg>
