<svg width="31" height="22" viewBox="0 0 31 22" fill="none" xmlns="http://www.w3.org/2000/svg">
<g clip-path="url(#clip0_2207_3938)">
<path d="M21.4326 13.6367C21.4326 10.1679 18.5615 7.27344 15.0927 7.27344C11.6123 7.27344 8.74122 10.1679 8.74122 13.6367C8.74122 14.4922 8.917 15.3008 9.24512 16.039H20.9287C21.2568 15.3008 21.4326 14.4922 21.4326 13.6367ZM2.61231 14.3047H5.49512C6.1045 14.3047 6.56153 13.8828 6.54981 13.3555C6.53809 12.8281 6.09278 12.4062 5.49512 12.4062H2.61231C2.00293 12.4062 1.56934 12.8281 1.56934 13.3555C1.56934 13.8828 2.00293 14.3047 2.61231 14.3047ZM7.62793 7.54297C8.04981 7.97656 8.68262 7.98828 9.0459 7.61328C9.40918 7.23828 9.40918 6.61719 8.97559 6.19531L6.93653 4.15625C6.50293 3.71094 5.90528 3.73438 5.53028 4.09766C5.15528 4.46094 5.14356 5.07031 5.58887 5.50391L7.62793 7.54297ZM21.1279 7.61328C21.5029 7.97656 22.124 7.97656 22.5459 7.54297L24.5849 5.50391C25.0302 5.07031 25.0068 4.47266 24.6435 4.09766C24.2802 3.72266 23.6709 3.71094 23.2373 4.15625L21.1982 6.19531C20.7646 6.61719 20.7529 7.25 21.1279 7.61328ZM24.6787 14.3047H27.5615C28.1709 14.3047 28.6045 13.8828 28.6045 13.3555C28.6045 12.8281 28.1709 12.4062 27.5615 12.4062H24.6787C24.081 12.4062 23.6123 12.8281 23.624 13.3555C23.6357 13.8828 24.081 14.3047 24.6787 14.3047ZM15.0927 5.11719C15.6084 5.10547 16.042 4.66016 16.042 4.0625V1.17969C16.042 0.570313 15.6084 0.136719 15.0927 0.136719C14.5654 0.136719 14.1318 0.570313 14.1318 1.17969V4.0625C14.1318 4.66016 14.5654 5.12891 15.0927 5.11719Z" fill="black" fill-opacity="0.85"/>
<path d="M1.08887 19.2852H29.0849C29.6357 19.2852 30.1045 18.8634 30.1045 18.3477C30.1045 17.8321 29.6357 17.4102 29.0849 17.4102H1.08887C0.538086 17.4102 0.0693359 17.8321 0.0693359 18.3477C0.0693359 18.8634 0.538086 19.2852 1.08887 19.2852Z" fill="black" fill-opacity="0.85"/>
</g>
<defs>
<clipPath id="clip0_2207_3938">
<rect width="30.0352" height="20.9883" fill="white" transform="translate(0.0693359 0.136719)"/>
</clipPath>
</defs>
</svg>
