<svg width="24" height="25" viewBox="0 0 24 25" fill="none" xmlns="http://www.w3.org/2000/svg">
<g clip-path="url(#clip0_2207_3988)">
<path d="M12.0119 24.0547C18.551 24.0547 23.965 18.6406 23.965 12.1015C23.965 5.57422 18.5393 0.148438 12.0002 0.148438C5.4729 0.148438 0.0588379 5.57422 0.0588379 12.1015C0.0588379 18.6406 5.48462 24.0547 12.0119 24.0547Z" fill="black" fill-opacity="0.85"/>
<path d="M7.55884 11.9258C7.55884 12.3125 7.23072 12.6055 6.79712 12.6055H5.25025C4.84009 12.6055 4.52368 12.289 4.52368 11.9258C4.52368 11.5625 4.84009 11.2578 5.25025 11.2578H6.79712C7.219 11.2578 7.55884 11.539 7.55884 11.9258ZM8.8479 8.92578C8.57837 9.20703 8.1565 9.17188 7.86353 8.89063L6.76196 7.77734C6.45728 7.46094 6.44556 7.05078 6.70337 6.79297C6.96118 6.53516 7.38306 6.51172 7.68775 6.82813L8.81275 7.94141C9.10572 8.22266 9.12915 8.65625 8.8479 8.92578ZM12.0002 7.23828C11.6252 7.23828 11.3322 6.91016 11.3322 6.48828V4.94141C11.3322 4.51953 11.6369 4.21484 12.0002 4.21484C12.3635 4.21484 12.6799 4.51953 12.6799 4.94141V6.48828C12.6799 6.89844 12.3752 7.23828 12.0002 7.23828ZM15.1643 8.92578C14.883 8.65625 14.883 8.23438 15.1877 7.94141L16.3127 6.82813C16.594 6.52344 17.0393 6.52344 17.3088 6.79297C17.5549 7.0625 17.5432 7.46094 17.2385 7.77734L16.1486 8.89063C15.8557 9.1836 15.4338 9.19531 15.1643 8.92578ZM16.4533 11.9258C16.4533 11.539 16.7815 11.2578 17.2033 11.2578H18.7619C19.1721 11.2578 19.4768 11.5625 19.4768 11.9258C19.4768 12.3008 19.1721 12.6055 18.7619 12.6055H17.2033C16.7815 12.6055 16.4533 12.3008 16.4533 11.9258ZM8.60181 13.1797C8.48462 12.8398 8.40259 12.4648 8.40259 12.0781C8.40259 10.1094 10.0432 8.46875 12.0002 8.46875C13.969 8.46875 15.5979 10.1094 15.5979 12.0781C15.5979 12.4648 15.5158 12.8398 15.3986 13.1797H8.60181ZM6.08228 14.914C5.83618 14.914 5.6604 14.7383 5.6604 14.4922C5.6604 14.2461 5.83618 14.0703 6.08228 14.0703H19.0549C19.301 14.0703 19.4768 14.2461 19.4768 14.4922C19.4768 14.7383 19.301 14.914 19.0549 14.914H6.08228ZM4.95728 16.5781C4.71118 16.5781 4.52368 16.3906 4.52368 16.1445C4.52368 15.9101 4.71118 15.7226 4.95728 15.7226H17.9182C18.1643 15.7226 18.34 15.9101 18.34 16.1445C18.34 16.3906 18.1643 16.5781 17.9182 16.5781H4.95728ZM6.08228 18.2305C5.83618 18.2305 5.6604 18.0547 5.6604 17.8086C5.6604 17.5625 5.83618 17.3867 6.08228 17.3867H19.0549C19.301 17.3867 19.4768 17.5625 19.4768 17.8086C19.4768 18.0547 19.301 18.2305 19.0549 18.2305H6.08228Z" fill="white"/>
</g>
<defs>
<clipPath id="clip0_2207_3988">
<rect width="23.9062" height="23.918" fill="white" transform="translate(0.0588379 0.136719)"/>
</clipPath>
</defs>
</svg>
