<svg width="24" height="25" viewBox="0 0 24 25" fill="none" xmlns="http://www.w3.org/2000/svg">
<g clip-path="url(#clip0_2207_3870)">
<path d="M12.0288 24.0547C18.5679 24.0547 23.9819 18.6406 23.9819 12.1015C23.9819 5.57422 18.5562 0.148438 12.0171 0.148438C5.48974 0.148438 0.0756836 5.57422 0.0756836 12.1015C0.0756836 18.6406 5.50146 24.0547 12.0288 24.0547Z" fill="black" fill-opacity="0.85"/>
<path d="M12.0288 15.7695C10.0249 15.7695 8.36084 14.0937 8.36084 12.1015C8.36084 10.0977 10.0249 8.42188 12.0288 8.42188C14.021 8.42188 15.6851 10.0977 15.6851 12.1015C15.6851 14.0937 14.021 15.7695 12.0288 15.7695ZM12.0288 4.44922C12.4273 4.44922 12.7788 4.80078 12.7788 5.21094V6.64063C12.7788 7.03906 12.4273 7.39063 12.0288 7.39063C11.6304 7.39063 11.2905 7.03906 11.2905 6.64063V5.21094C11.2905 4.80078 11.6304 4.44922 12.0288 4.44922ZM17.4312 6.6875C17.7124 6.98047 17.7241 7.46094 17.4312 7.74219L16.3999 8.77344C16.1187 9.06641 15.6265 9.07813 15.3452 8.77344C15.064 8.50391 15.0523 8.04688 15.3452 7.74219L16.3882 6.6875C16.6577 6.40625 17.1382 6.39453 17.4312 6.6875ZM19.6577 12.1015C19.6577 12.5 19.3179 12.8398 18.9077 12.8398H17.4663C17.0679 12.8398 16.728 12.4883 16.728 12.1015C16.728 11.7031 17.0679 11.3515 17.4663 11.3515H18.9077C19.3179 11.3515 19.6577 11.6914 19.6577 12.1015ZM17.4312 17.5039C17.1382 17.7851 16.6695 17.7851 16.3882 17.5039L15.3452 16.4609C15.0523 16.1797 15.0523 15.7109 15.3452 15.4179C15.6265 15.1367 16.1187 15.1367 16.3882 15.4179L17.4312 16.4492C17.7241 16.7187 17.7241 17.1992 17.4312 17.5039ZM12.0288 19.7422C11.6304 19.7422 11.2905 19.3906 11.2905 18.9922V17.5508C11.2905 17.1523 11.6304 16.8008 12.0288 16.8008C12.4273 16.8008 12.7788 17.1523 12.7788 17.5508V18.9922C12.7788 19.3906 12.4273 19.7422 12.0288 19.7422ZM6.61474 17.4922C6.33349 17.1992 6.33349 16.7305 6.61474 16.4492L7.65771 15.4179C7.92724 15.1367 8.43115 15.1367 8.7124 15.4179C8.99365 15.7226 8.99365 16.1914 8.7124 16.4609L7.66943 17.5039C7.38818 17.7851 6.90771 17.7851 6.61474 17.4922ZM4.41162 12.1015C4.41162 11.6914 4.73974 11.3515 5.1499 11.3515H6.5913C6.98974 11.3515 7.32959 11.7031 7.32959 12.1015C7.32959 12.4883 6.98974 12.8398 6.5913 12.8398H5.1499C4.73974 12.8398 4.41162 12.5 4.41162 12.1015ZM6.63818 6.6875C6.93115 6.40625 7.3999 6.41797 7.66943 6.6875L8.7124 7.74219C8.99365 8.01172 8.99365 8.50391 8.7124 8.77344C8.41943 9.06641 7.93896 9.07813 7.65771 8.77344L6.62646 7.74219C6.33349 7.46094 6.35693 6.98047 6.63818 6.6875Z" fill="white"/>
</g>
<defs>
<clipPath id="clip0_2207_3870">
<rect width="23.9062" height="23.918" fill="white" transform="translate(0.0756836 0.136719)"/>
</clipPath>
</defs>
</svg>
