<svg width="25" height="25" viewBox="0 0 25 25" fill="none" xmlns="http://www.w3.org/2000/svg">
<g clip-path="url(#clip0_2207_4024)">
<path d="M12.0517 24.0429C18.5908 24.0429 24.0048 18.6172 24.0048 12.0898C24.0048 5.55078 18.5791 0.136719 12.04 0.136719C5.51269 0.136719 0.0986328 5.55078 0.0986328 12.0898C0.0986328 18.6172 5.52441 24.0429 12.0517 24.0429ZM12.0517 22.0508C6.52051 22.0508 2.10254 17.6211 2.10254 12.0898C2.10254 6.5586 6.50879 2.12891 12.04 2.12891C17.5713 2.12891 22.0127 6.5586 22.0127 12.0898C22.0127 17.6211 17.583 22.0508 12.0517 22.0508Z" fill="black" fill-opacity="0.85"/>
<path d="M15.5322 11.9844C15.5322 10.0625 13.9502 8.48047 12.04 8.48047C10.1416 8.48047 8.54785 10.0625 8.54785 11.9844C8.54785 12.3476 8.62988 12.7226 8.74707 13.0625H15.333C15.4502 12.7226 15.5322 12.3476 15.5322 11.9844ZM5.48925 12.4765H7.00097C7.41113 12.4765 7.71582 12.1953 7.71582 11.832C7.71582 11.4687 7.39941 11.1758 7.00097 11.1758H5.48925C5.09082 11.1758 4.78613 11.4805 4.78613 11.832C4.78613 12.1836 5.09082 12.4765 5.48925 12.4765ZM8.03222 8.87891C8.31347 9.16016 8.72363 9.1836 8.98144 8.92578C9.25097 8.66797 9.22754 8.2461 8.94629 7.96484L7.85644 6.875C7.56347 6.58203 7.16504 6.61719 6.90722 6.85156C6.66113 7.1211 6.66113 7.50781 6.9541 7.80078L8.03222 8.87891ZM12.6963 6.57031V5.04688C12.6963 4.64844 12.3916 4.35547 12.04 4.35547C11.6884 4.35547 11.3955 4.64844 11.3955 5.04688V6.57031C11.3955 6.96875 11.6767 7.28516 12.04 7.28516C12.4033 7.28516 12.6963 6.95703 12.6963 6.57031ZM15.1103 8.92578C15.3681 9.17188 15.7783 9.17188 16.0595 8.87891L17.1259 7.80078C17.4189 7.50781 17.4306 7.1211 17.1845 6.85156C16.9267 6.59375 16.5048 6.59375 16.2236 6.875L15.1338 7.96484C14.8408 8.25781 14.8408 8.66797 15.1103 8.92578ZM17.0791 12.4765H18.6025C19.0009 12.4765 19.2939 12.1836 19.2939 11.832C19.2939 11.4805 19.0009 11.1758 18.6025 11.1758H17.0791C16.6806 11.1758 16.3642 11.4687 16.3642 11.832C16.3642 12.1953 16.6806 12.4765 17.0791 12.4765ZM5.47754 15.1953H18.6142C18.9658 15.1953 19.2939 14.914 19.2939 14.5508C19.2939 14.1758 18.9775 13.9062 18.6142 13.9062H5.47754C5.11425 13.9062 4.78613 14.1758 4.78613 14.5508C4.78613 14.914 5.12597 15.1953 5.47754 15.1953ZM8.17285 19.1562C8.36035 19.1562 8.50097 18.9805 8.48925 18.7929L8.44238 18.0898L9.02832 18.4883C9.16894 18.5937 9.40332 18.5469 9.48535 18.3945C9.60254 18.2539 9.55566 18.0078 9.34472 17.914L8.71191 17.6094L9.34472 17.2812C9.54394 17.1758 9.5791 16.9883 9.49707 16.8242C9.41504 16.6601 9.16894 16.625 9.02832 16.7187L8.44238 17.1289L8.48925 16.4375C8.50097 16.2265 8.36035 16.0625 8.17285 16.0625C7.96191 16.0625 7.83301 16.2265 7.84472 16.4258L7.87988 17.1289L7.29394 16.7187C7.1416 16.625 6.93066 16.6484 6.83691 16.8242C6.74316 16.9648 6.77832 17.1758 6.98925 17.2929L7.59863 17.6094L6.98925 17.914C6.77832 18.0078 6.74316 18.2305 6.82519 18.3828C6.90722 18.5586 7.1416 18.5937 7.29394 18.4883L7.87988 18.0898L7.85644 18.7929C7.84472 18.9805 7.96191 19.1562 8.17285 19.1562ZM12.04 19.1562C12.2275 19.1562 12.3681 18.9805 12.3564 18.7929L12.3095 18.0898L12.8955 18.4883C13.0361 18.5937 13.2705 18.5469 13.3525 18.3945C13.4697 18.2539 13.4228 18.0078 13.2119 17.914L12.5791 17.6094L13.2119 17.2812C13.4111 17.1758 13.4463 16.9883 13.3642 16.8242C13.2822 16.6601 13.0361 16.625 12.8955 16.7187L12.3095 17.1289L12.3564 16.4375C12.3681 16.2265 12.2275 16.0625 12.04 16.0625C11.8291 16.0625 11.7002 16.2265 11.7119 16.4258L11.747 17.1289L11.1611 16.7187C11.0088 16.625 10.7861 16.6484 10.7041 16.8242C10.6103 16.9648 10.6455 17.1758 10.8564 17.2929L11.4658 17.6094L10.8564 17.914C10.6455 18.0078 10.6103 18.2305 10.6924 18.3828C10.7627 18.5586 11.0088 18.5937 11.1611 18.4883L11.747 18.0898L11.7236 18.7929C11.7119 18.9805 11.8291 19.1562 12.04 19.1562ZM15.9072 19.1562C16.0947 19.1562 16.2236 18.9805 16.2119 18.7929L16.1767 18.0898L16.7627 18.4883C16.9033 18.5937 17.1377 18.5469 17.2197 18.3945C17.3369 18.2539 17.2783 18.0078 17.0791 17.914L16.4463 17.6094L17.0791 17.2812C17.2666 17.1758 17.3134 16.9883 17.2314 16.8242C17.1494 16.6601 16.9033 16.625 16.7627 16.7187L16.1767 17.1289L16.2119 16.4375C16.2236 16.2265 16.0947 16.0625 15.9072 16.0625C15.6963 16.0625 15.5674 16.2265 15.5791 16.4258L15.6142 17.1289L15.0283 16.7187C14.8759 16.625 14.6533 16.6484 14.5713 16.8242C14.4775 16.9648 14.5127 17.1758 14.7119 17.2929L15.333 17.6094L14.7119 17.914C14.5009 18.0078 14.4775 18.2305 14.5595 18.3828C14.6298 18.5586 14.8759 18.5937 15.0283 18.4883L15.6142 18.0898L15.5908 18.7929C15.5791 18.9805 15.6963 19.1562 15.9072 19.1562Z" fill="black" fill-opacity="0.85"/>
</g>
<defs>
<clipPath id="clip0_2207_4024">
<rect width="23.9062" height="23.918" fill="white" transform="translate(0.0986328 0.136719)"/>
</clipPath>
</defs>
</svg>
