<svg width="24" height="25" viewBox="0 0 24 25" fill="none" xmlns="http://www.w3.org/2000/svg">
<g clip-path="url(#clip0_2207_3968)">
<path d="M12.0035 24.0547C18.5426 24.0547 23.9566 18.6406 23.9566 12.1015C23.9566 5.57422 18.5309 0.148438 11.9918 0.148438C5.46447 0.148438 0.050415 5.57422 0.050415 12.1015C0.050415 18.6406 5.4762 24.0547 12.0035 24.0547Z" fill="black" fill-opacity="0.85"/>
<path d="M7.56214 11.8672C7.56214 12.2539 7.23401 12.5469 6.80042 12.5469H5.25354C4.84339 12.5469 4.52698 12.2422 4.52698 11.8672C4.52698 11.5039 4.84339 11.1992 5.25354 11.1992H6.80042C7.2223 11.1992 7.56214 11.4922 7.56214 11.8672ZM8.8512 8.89063C8.58167 9.16016 8.1598 9.125 7.86683 8.84375L6.76526 7.73047C6.46058 7.42578 6.44886 7.01563 6.70667 6.7461C6.96448 6.48828 7.38636 6.46484 7.69104 6.76953L8.81604 7.89453C9.10901 8.1875 9.13245 8.60938 8.8512 8.89063ZM12.0035 7.19141C11.6285 7.19141 11.3356 6.85156 11.3356 6.44141V4.89453C11.3356 4.47266 11.6402 4.16797 12.0035 4.16797C12.3668 4.16797 12.6832 4.47266 12.6832 4.89453V6.44141C12.6832 6.85156 12.3785 7.19141 12.0035 7.19141ZM15.1676 8.89063C14.8863 8.60938 14.8863 8.19922 15.191 7.89453L16.316 6.76953C16.5973 6.47656 17.0426 6.47656 17.3121 6.7461C17.5582 7.02734 17.5465 7.42578 17.2418 7.73047L16.152 8.84375C15.859 9.13672 15.4371 9.13672 15.1676 8.89063ZM16.4566 11.8672C16.4566 11.4922 16.7848 11.1992 17.2066 11.1992H18.7652C19.1754 11.1992 19.4801 11.5039 19.4801 11.8672C19.4801 12.2422 19.1754 12.5469 18.7652 12.5469H17.2066C16.7848 12.5469 16.4566 12.2539 16.4566 11.8672ZM8.60511 13.1445C8.48792 12.7812 8.40589 12.4179 8.40589 12.0312C8.40589 10.0625 10.0465 8.42188 12.0035 8.42188C13.9723 8.42188 15.6012 10.0625 15.6012 12.0312C15.6012 12.4179 15.5192 12.7812 15.402 13.1445H8.60511ZM5.24183 15.3476C4.87854 15.3476 4.52698 15.0547 4.52698 14.6797C4.52698 14.2929 4.86683 14.0234 5.24183 14.0234H18.777C19.152 14.0234 19.4801 14.2929 19.4801 14.6797C19.4801 15.0547 19.1402 15.3476 18.777 15.3476H5.24183ZM6.08558 17.4922C5.76917 17.4922 5.51136 17.2226 5.51136 16.9179C5.51136 16.6015 5.76917 16.332 6.08558 16.332C6.4137 16.332 6.6598 16.6015 6.6598 16.9179C6.6598 17.2226 6.4137 17.4922 6.08558 17.4922ZM9.05042 17.4922C8.73401 17.4922 8.4762 17.2226 8.4762 16.9179C8.4762 16.6015 8.73401 16.332 9.05042 16.332C9.36683 16.332 9.63636 16.6015 9.63636 16.9179C9.63636 17.2226 9.36683 17.4922 9.05042 17.4922ZM12.0152 17.4922C11.6988 17.4922 11.441 17.2226 11.441 16.9179C11.441 16.6015 11.6988 16.332 12.0152 16.332C12.3434 16.332 12.6012 16.6015 12.6012 16.9179C12.6012 17.2226 12.3434 17.4922 12.0152 17.4922ZM14.9918 17.4922C14.6754 17.4922 14.4059 17.2226 14.4059 16.9179C14.4059 16.6015 14.6754 16.332 14.9918 16.332C15.3082 16.332 15.5543 16.6015 15.5543 16.9179C15.5543 17.2226 15.3082 17.4922 14.9918 17.4922ZM17.9449 17.4922C17.6402 17.4922 17.3707 17.2226 17.3707 16.9179C17.3707 16.6015 17.6402 16.332 17.9449 16.332C18.2613 16.332 18.5309 16.6015 18.5309 16.9179C18.5309 17.2226 18.2613 17.4922 17.9449 17.4922ZM7.55042 19.1211C7.24573 19.1211 6.98792 18.8633 6.98792 18.5469C6.98792 18.2305 7.24573 17.9609 7.55042 17.9609C7.87854 17.9609 8.13636 18.2305 8.13636 18.5469C8.13636 18.8633 7.87854 19.1211 7.55042 19.1211ZM10.527 19.1211C10.2106 19.1211 9.95276 18.8633 9.95276 18.5469C9.95276 18.2305 10.2106 17.9609 10.527 17.9609C10.8434 17.9609 11.1129 18.2305 11.1129 18.5469C11.1129 18.8633 10.8434 19.1211 10.527 19.1211ZM13.4918 19.1211C13.1754 19.1211 12.9176 18.8633 12.9176 18.5469C12.9176 18.2305 13.1754 17.9609 13.4918 17.9609C13.8199 17.9609 14.066 18.2305 14.066 18.5469C14.066 18.8633 13.8199 19.1211 13.4918 19.1211ZM16.4684 19.1211C16.1402 19.1211 15.8824 18.8633 15.8824 18.5469C15.8824 18.2305 16.1402 17.9609 16.4684 17.9609C16.7731 17.9609 17.0309 18.2305 17.0309 18.5469C17.0309 18.8633 16.7731 19.1211 16.4684 19.1211Z" fill="white"/>
</g>
<defs>
<clipPath id="clip0_2207_3968">
<rect width="23.9062" height="23.918" fill="white" transform="translate(0.050415 0.136719)"/>
</clipPath>
</defs>
</svg>
