<svg width="24" height="25" viewBox="0 0 24 25" fill="none" xmlns="http://www.w3.org/2000/svg">
<g clip-path="url(#clip0_2207_4029)">
<path d="M11.9531 24.0567C18.4922 24.0567 23.9062 18.6426 23.9062 12.1035C23.9062 5.57617 18.4805 0.150391 11.9414 0.150391C5.41406 0.150391 0 5.57617 0 12.1035C0 18.6426 5.42578 24.0567 11.9531 24.0567Z" fill="black" fill-opacity="0.85"/>
<path d="M15.5391 11.9981C15.5391 12.3731 15.457 12.7598 15.3398 13.1114H8.54297C8.42578 12.7598 8.34375 12.3731 8.34375 11.9981C8.34375 10.0293 9.98438 8.38868 11.9414 8.38868C13.9102 8.38868 15.5391 10.0293 15.5391 11.9981ZM5.19141 12.5254C4.78125 12.5254 4.46484 12.209 4.46484 11.8457C4.46484 11.4825 4.78125 11.1778 5.19141 11.1778H6.73828C7.16016 11.1778 7.5 11.4707 7.5 11.8457C7.5 12.2325 7.17188 12.5254 6.73828 12.5254H5.19141ZM7.80469 8.81056L6.70312 7.70899C6.39844 7.39259 6.39844 6.99415 6.64453 6.7129C6.91406 6.4668 7.32422 6.43165 7.62891 6.74806L8.75391 7.86134C9.04688 8.14259 9.07031 8.5879 8.78906 8.84571C8.51953 9.12696 8.09766 9.0918 7.80469 8.81056ZM12.6211 6.41993C12.6211 6.81837 12.3164 7.15821 11.9414 7.15821C11.5664 7.15821 11.2734 6.83009 11.2734 6.41993V4.87306C11.2734 4.43946 11.5781 4.13477 11.9414 4.13477C12.3047 4.13477 12.6211 4.43946 12.6211 4.87306V6.41993ZM15.1055 8.84571C14.8242 8.5879 14.8242 8.1543 15.1289 7.86134L16.2539 6.74806C16.5352 6.44337 16.9805 6.44337 17.25 6.7129C17.4961 6.99415 17.4844 7.39259 17.1797 7.70899L16.0898 8.81056C15.7969 9.10352 15.375 9.11524 15.1055 8.84571ZM17.1445 12.5254C16.7227 12.5254 16.3945 12.2207 16.3945 11.8457C16.3945 11.4707 16.7227 11.1778 17.1445 11.1778H18.7031C19.1133 11.1778 19.418 11.4825 19.418 11.8457C19.418 12.2207 19.1133 12.5254 18.7031 12.5254H17.1445ZM5.17969 15.3145C4.81641 15.3145 4.46484 15.0215 4.46484 14.6465C4.46484 14.2715 4.80469 13.9903 5.17969 13.9903H18.7148C19.0898 13.9903 19.418 14.2598 19.418 14.6465C19.418 15.0215 19.0781 15.3145 18.7148 15.3145H5.17969ZM7.95703 19.4043C7.73438 19.4043 7.61719 19.2168 7.62891 19.0293L7.65234 18.3028L7.04297 18.7246C6.89062 18.8184 6.64453 18.7832 6.5625 18.6075C6.48047 18.4434 6.51562 18.2207 6.72656 18.1153L7.35938 17.8106L6.72656 17.4825C6.51562 17.3653 6.48047 17.1426 6.57422 16.9903C6.66797 16.8145 6.89062 16.791 7.04297 16.8965L7.65234 17.3184L7.61719 16.5801C7.60547 16.3809 7.73438 16.2051 7.95703 16.2051C8.14453 16.2051 8.29688 16.3809 8.27344 16.5918L8.22656 17.3184L8.83594 16.8965C8.97656 16.791 9.23438 16.8262 9.31641 16.9903C9.39844 17.166 9.36328 17.3653 9.16406 17.4707L8.50781 17.8106L9.16406 18.1153C9.375 18.209 9.42188 18.4668 9.30469 18.6309C9.22266 18.7715 8.97656 18.8184 8.83594 18.7246L8.22656 18.3028L8.27344 19.0293C8.29688 19.2168 8.14453 19.4043 7.95703 19.4043ZM11.9414 19.4043C11.7188 19.4043 11.6016 19.2168 11.6133 19.0293L11.6367 18.3028L11.0391 18.7246C10.875 18.8184 10.6289 18.7832 10.5469 18.6075C10.4648 18.4434 10.5 18.2207 10.7227 18.1153L11.3438 17.8106L10.7227 17.4825C10.5 17.3653 10.4648 17.1426 10.5586 16.9903C10.6523 16.8145 10.875 16.791 11.0391 16.8965L11.6367 17.3184L11.6016 16.5801C11.5898 16.3809 11.7188 16.2051 11.9414 16.2051C12.1406 16.2051 12.2812 16.3809 12.2695 16.5918L12.2227 17.3184L12.8203 16.8965C12.9727 16.791 13.2188 16.8262 13.3125 16.9903C13.3945 17.166 13.3594 17.3653 13.1484 17.4707L12.5039 17.8106L13.1484 18.1153C13.3711 18.209 13.418 18.4668 13.3008 18.6309C13.207 18.7715 12.9727 18.8184 12.8203 18.7246L12.2227 18.3028L12.2695 19.0293C12.2812 19.2168 12.1406 19.4043 11.9414 19.4043ZM15.9258 19.4043C15.7148 19.4043 15.5859 19.2168 15.5977 19.0293L15.6328 18.3028L15.0234 18.7246C14.8711 18.8184 14.6133 18.7832 14.543 18.6075C14.4609 18.4434 14.4844 18.2207 14.6953 18.1153L15.3398 17.8106L14.6953 17.4825C14.4961 17.3653 14.4609 17.1426 14.5547 16.9903C14.6367 16.8145 14.8711 16.791 15.0234 16.8965L15.6328 17.3184L15.5859 16.5801C15.5742 16.3809 15.7148 16.2051 15.9258 16.2051C16.125 16.2051 16.2539 16.3809 16.2422 16.5918L16.207 17.3184L16.8164 16.8965C16.957 16.791 17.2148 16.8262 17.2969 16.9903C17.3789 17.166 17.332 17.3653 17.1445 17.4707L16.4883 17.8106L17.1445 18.1153C17.3438 18.209 17.4023 18.4668 17.2852 18.6309C17.2031 18.7715 16.957 18.8184 16.8164 18.7246L16.207 18.3028L16.2422 19.0293C16.2539 19.2168 16.125 19.4043 15.9258 19.4043Z" fill="white"/>
</g>
<defs>
<clipPath id="clip0_2207_4029">
<rect width="23.9062" height="23.918" fill="white" transform="translate(0 0.138672)"/>
</clipPath>
</defs>
</svg>
