<svg width="37" height="13" viewBox="0 0 37 13" fill="none" xmlns="http://www.w3.org/2000/svg">
<g clip-path="url(#clip0_2207_18546)">
<path d="M18.1235 4.52148C18.5219 4.52148 18.8735 4.75586 19.0727 5.18945L20.3383 7.99023C21.7446 11.0489 24.311 12.3496 27.1352 12.3496C31.2602 12.3496 34.1665 9.80664 34.8344 5.33008L35.0571 3.87695C35.2915 2.29492 36.229 1.79101 36.229 1.11133C36.229 0.513672 35.7954 0.138672 34.9868 0.138672C31.2954 0.138672 27.9438 0.326172 25.9516 0.619141C21.768 1.24023 20.1274 2.30664 18.1235 2.30664C16.1079 2.30664 14.4672 1.24023 10.2836 0.619141C8.29151 0.326172 4.93994 0.138672 1.26026 0.138672C0.45166 0.138672 0.00634766 0.513672 0.00634766 1.11133C0.00634766 1.79101 0.955567 2.29492 1.18994 3.87695L1.4126 5.33008C2.06885 9.80664 4.9751 12.3496 9.11182 12.3496C11.936 12.3496 14.5024 11.0489 15.8969 7.99023L17.1743 5.18945C17.3618 4.75586 17.7133 4.52148 18.1235 4.52148Z" fill="black" fill-opacity="0.85"/>
</g>
<defs>
<clipPath id="clip0_2207_18546">
<rect width="36.2227" height="12.2227" fill="white" transform="translate(0.00634766 0.138672)"/>
</clipPath>
</defs>
</svg>
