<svg width="24" height="25" viewBox="0 0 24 25" fill="none" xmlns="http://www.w3.org/2000/svg">
<g clip-path="url(#clip0_2207_3906)">
<path d="M11.9658 24.0567C18.5049 24.0567 23.9189 18.6426 23.9189 12.1035C23.9189 5.57617 18.4932 0.150391 11.9541 0.150391C5.42675 0.150391 0.0126953 5.57617 0.0126953 12.1035C0.0126953 18.6426 5.43848 24.0567 11.9658 24.0567Z" fill="black" fill-opacity="0.85"/>
<path d="M5.64942 14.6465C5.2627 14.6465 4.96973 14.3653 4.96973 14.0254C4.96973 13.6856 5.2627 13.3926 5.64942 13.3926H7.11426C7.50098 13.3926 7.79395 13.6739 7.79395 14.0254C7.79395 14.377 7.50098 14.6465 7.11426 14.6465H5.64942ZM8.09864 11.2012L7.05567 10.1582C6.77442 9.86523 6.77442 9.49023 7.00879 9.23242C7.25489 8.99805 7.65332 8.97461 7.93458 9.25586L8.97754 10.2989C9.23536 10.5684 9.27051 10.9785 9.02442 11.2246C8.77832 11.4825 8.36817 11.459 8.09864 11.2012ZM11.9541 9.64258C11.6025 9.64258 11.3213 9.33789 11.3213 8.97461V6.77148L11.3565 6.36133L11.2979 6.41992L10.4775 7.22851C10.3604 7.33398 10.1963 7.40429 10.0439 7.40429C9.72754 7.40429 9.50489 7.18164 9.50489 6.86523C9.50489 6.71289 9.55176 6.57226 9.69239 6.43164L11.5322 4.70898C11.6729 4.58008 11.8135 4.52148 11.9541 4.52148C12.0947 4.52148 12.2354 4.58008 12.376 4.70898L14.2158 6.43164C14.3682 6.57226 14.4033 6.71289 14.4033 6.86523C14.4033 7.18164 14.1807 7.40429 13.8643 7.40429C13.7119 7.40429 13.5361 7.3457 13.4424 7.22851L12.7041 6.46679L12.5518 6.32617L12.5869 6.77148V8.97461C12.5869 9.33789 12.3057 9.64258 11.9541 9.64258ZM14.9072 11.2246C14.6494 10.9785 14.6611 10.5801 14.9424 10.2989L15.9736 9.25586C16.2549 8.98633 16.6533 8.97461 16.8994 9.23242C17.1338 9.49023 17.1221 9.86523 16.8525 10.1582L15.8213 11.2012C15.54 11.4707 15.1533 11.4707 14.9072 11.2246ZM16.8057 14.6465C16.4189 14.6465 16.1143 14.377 16.1143 14.0254C16.1143 13.6739 16.4189 13.3926 16.8057 13.3926H18.2588C18.6572 13.3926 18.9385 13.6739 18.9385 14.0254C18.9385 14.3653 18.6572 14.6465 18.2588 14.6465H16.8057ZM15.3174 14.1543C15.3174 14.5176 15.2471 14.8809 15.1182 15.2207H8.79004C8.66114 14.8809 8.59082 14.5176 8.59082 14.1543C8.59082 12.3262 10.126 10.8028 11.9541 10.8028C13.7939 10.8028 15.3174 12.3262 15.3174 14.1543ZM5.6377 17.2012C5.29786 17.2012 4.96973 16.9317 4.96973 16.5801C4.96973 16.2285 5.28614 15.959 5.6377 15.959H18.2705C18.6338 15.959 18.9385 16.2285 18.9385 16.5801C18.9385 16.9317 18.6221 17.2012 18.2705 17.2012H5.6377Z" fill="white"/>
</g>
<defs>
<clipPath id="clip0_2207_3906">
<rect width="23.9062" height="23.918" fill="white" transform="translate(0.0126953 0.138672)"/>
</clipPath>
</defs>
</svg>
