<svg width="45" height="27" viewBox="0 0 45 27" fill="none" xmlns="http://www.w3.org/2000/svg">
<g clip-path="url(#clip0_2207_16683)">
<path d="M36.1758 4.39258L37.5468 5.48242L40.7578 2.20117C41.0273 1.93164 41.3554 1.82617 41.7304 1.82617H43.5117C44.0508 1.82617 44.3906 1.47461 44.3906 0.970703C44.3906 0.466797 44.0508 0.138672 43.5117 0.138672H41.9297C40.9336 0.138672 40.0664 0.419922 39.3984 1.09961L36.1758 4.39258ZM9.39844 22.2403C11.1562 22.2403 12.539 20.8575 12.539 19.1114C12.539 17.3653 11.1445 15.9707 9.39844 15.9707C7.66406 15.9707 6.26953 17.3653 6.26953 19.1114C6.26953 20.8457 7.66406 22.2403 9.39844 22.2403ZM33.0117 22.2403C34.7578 22.2403 36.1523 20.8457 36.1523 19.1114C36.1523 17.3653 34.7578 15.9707 33.0117 15.9707C31.289 15.9707 29.8828 17.377 29.8828 19.1114C29.8828 20.8457 31.2773 22.2403 33.0117 22.2403ZM40.1836 7.12305L39.6562 6.34961C38.3086 4.39258 36.6562 3.60742 33.9375 3.60742H24.7851C19.957 3.60742 18.0234 4.07617 15.1523 5.86914L10.4297 8.83398L6.05859 9.37305C2.0625 9.86523 0.0820312 11.6934 0.0820312 14.9043V16.9199C0.0820312 18.8301 1.20703 19.9785 3.07031 19.9785H4.98047C4.93359 19.6973 4.89844 19.416 4.89844 19.1114C4.89844 16.6153 6.91406 14.6114 9.39844 14.6114C11.8945 14.6114 13.8984 16.6153 13.8984 19.1114C13.8984 19.416 13.875 19.6973 13.8164 19.9785H28.5937C28.5468 19.6973 28.5117 19.416 28.5117 19.1114C28.5117 16.627 30.539 14.6114 33.0117 14.6114C35.5078 14.6114 37.5117 16.6153 37.5117 19.1114C37.5117 19.416 37.4882 19.6973 37.4297 19.9785H38.6718C40.7226 19.9785 41.6484 18.9239 41.6484 16.6035V11.5996C41.6484 10.1348 41.1093 8.45898 40.1836 7.12305Z" fill="black" fill-opacity="0.85"/>
</g>
<defs>
<clipPath id="clip0_2207_16683">
<rect width="44.3086" height="26.0039" fill="white" transform="translate(0.0820312 0.138672)"/>
</clipPath>
</defs>
</svg>
