<svg width="42" height="22" viewBox="0 0 42 22" fill="none" xmlns="http://www.w3.org/2000/svg">
<g clip-path="url(#clip0_2207_16697)">
<path d="M3.02392 17.8106H6.66845V15.9239H3.12939C2.36767 15.9239 1.92236 15.4082 1.92236 14.5176V12.7364C1.92236 10.6387 3.32861 9.45508 6.2583 9.08008L11.0278 8.48242L16.1137 5.31836C18.7036 3.70117 20.2387 3.32617 24.7387 3.32617H33.8911C35.9184 3.32617 37.0903 3.88867 38.0512 5.25976L38.5786 6.02148C39.2934 7.05273 39.7153 8.31836 39.7153 9.43164V14.5528C39.7153 15.4903 39.352 15.9239 38.52 15.9239H35.6372V17.8106H38.6254C40.6762 17.8106 41.602 16.7559 41.602 14.4356V9.43164C41.602 7.96679 41.0629 6.29101 40.1372 4.95508L39.6098 4.18164C38.2622 2.22461 36.6098 1.43945 33.8911 1.43945H24.7387C19.9106 1.43945 17.977 1.9082 15.1059 3.70117L10.3833 6.66601L6.0122 7.20508C2.01611 7.69726 0.0356445 9.52539 0.0356445 12.7364V14.752C0.0356445 16.6621 1.16064 17.8106 3.02392 17.8106ZM12.1645 17.8106H30.2465V15.9239H12.1645V17.8106ZM9.35205 20.4825C11.602 20.4825 13.3598 18.7246 13.3598 16.4746C13.3598 14.2246 11.602 12.4668 9.35205 12.4668C7.10205 12.4668 5.34423 14.2246 5.34423 16.4746C5.34423 18.7246 7.10205 20.4825 9.35205 20.4825ZM9.35205 18.5957C8.15673 18.5957 7.23095 17.6699 7.23095 16.4746C7.23095 15.2793 8.15673 14.3535 9.35205 14.3535C10.5473 14.3535 11.4731 15.2793 11.4731 16.4746C11.4731 17.6699 10.5473 18.5957 9.35205 18.5957ZM33.0239 20.4825C35.2739 20.4825 37.0317 18.7246 37.0317 16.4746C37.0317 14.2246 35.2739 12.4668 33.0239 12.4668C30.7739 12.4668 29.0161 14.2246 29.0161 16.4746C29.0161 18.7246 30.7739 20.4825 33.0239 20.4825ZM33.0239 18.5957C31.8286 18.5957 30.9028 17.6699 30.9028 16.4746C30.9028 15.2793 31.8286 14.3535 33.0239 14.3535C34.2192 14.3535 35.145 15.2793 35.145 16.4746C35.145 17.6699 34.2192 18.5957 33.0239 18.5957Z" fill="black" fill-opacity="0.85"/>
<path d="M3.49267 4.75586H6.37548C7.28955 4.75586 7.34814 4.80273 7.73486 5.30664L10.8872 9.44336C12.1528 11.1192 13.6762 11.8926 15.7504 11.8926H20.7309C22.0083 11.8926 23.0395 10.8614 23.0395 9.58398C23.0395 8.30664 22.0083 7.27539 20.7309 7.27539H15.7504C15.0942 7.27539 15.0356 7.25195 14.7192 6.85351L11.3911 2.49414C10.1254 0.830078 8.55517 0.138672 6.37548 0.138672H3.49267C2.22705 0.138672 1.18408 1.18164 1.18408 2.44726C1.18408 3.72461 2.22705 4.75586 3.49267 4.75586Z" fill="white"/>
<path d="M3.49268 3.39649H6.37549C7.67627 3.39649 8.16846 3.61915 8.82471 4.47462L11.977 8.63477C12.9848 9.95899 14.1098 10.5332 15.7504 10.5332H18.3168V11.541C18.3168 12.3614 19.0434 12.6075 19.6528 12.209L22.6059 10.3106C23.1684 9.94727 23.1801 9.24415 22.5942 8.86915L19.6645 6.98243C19.0434 6.57227 18.3168 6.81837 18.3168 7.6504V8.64649H15.7504C14.6489 8.64649 14.2036 8.4004 13.477 7.4629L10.3012 3.32618C9.3169 2.0254 8.15674 1.50977 6.37549 1.50977H3.49268C2.97706 1.50977 2.55518 1.93165 2.55518 2.44727C2.55518 2.9629 2.97706 3.39649 3.49268 3.39649Z" fill="black" fill-opacity="0.85"/>
</g>
<defs>
<clipPath id="clip0_2207_16697">
<rect width="41.5664" height="21.668" fill="white" transform="translate(0.0356445 0.138672)"/>
</clipPath>
</defs>
</svg>
