<svg width="27" height="28" viewBox="0 0 27 28" fill="none" xmlns="http://www.w3.org/2000/svg">
<g clip-path="url(#clip0_2207_21189)">
<path d="M4.34961 20.7167L6.57618 24.5605C7.63087 26.3886 9.07227 26.8222 10.9238 25.7558L24.6699 17.8105C26.5215 16.7441 26.8731 15.2675 25.8184 13.4511L23.5918 9.6191C22.502 7.72066 21.0137 7.24019 19.1856 8.29488L5.42774 16.2636C3.59961 17.3183 3.25977 18.8183 4.34961 20.7167ZM6.0254 19.8027C5.60352 19.0761 5.79102 18.2206 6.45899 17.8456L20.0645 9.9941C20.7324 9.60738 21.5645 9.85347 21.9863 10.5683L24.1778 14.3769C24.5762 15.0683 24.3301 15.83 23.6621 16.2284L10.0567 24.0917C9.38868 24.4784 8.5918 24.2558 8.20508 23.5995L6.0254 19.8027ZM13.5254 12.7128L18.0488 20.5409L19.6778 19.6034L15.1543 11.7636L13.5254 12.7128Z" fill="black" fill-opacity="0.85"/>
<path d="M3.78711 22.4748L7.63087 24.6897C9.47071 25.7561 10.959 25.3577 11.9902 23.553L20.6856 8.48262C21.752 6.65449 21.3184 5.21309 19.4668 4.14668L15.6348 1.93184C13.7363 0.841998 12.2246 1.19356 11.1817 2.99825L2.48633 18.0686C1.44337 19.8733 1.9004 21.3733 3.78711 22.4748Z" fill="white"/>
<path d="M3.78711 22.4748L7.63087 24.6897C9.47071 25.7561 10.959 25.3577 11.9902 23.553L20.6856 8.48262C21.752 6.65449 21.3184 5.21309 19.4668 4.14668L15.6348 1.93184C13.7363 0.841998 12.2246 1.19356 11.1817 2.99825L2.48633 18.0686C1.44337 19.8733 1.9004 21.3733 3.78711 22.4748ZM4.75977 20.8459C4.03321 20.4241 3.7754 19.6037 4.16211 18.9241L12.7637 4.01778C13.1504 3.33809 13.9942 3.16231 14.709 3.57246L18.5176 5.76387C19.1856 6.16231 19.3965 6.93575 18.9981 7.62715L10.4082 22.5217C10.0098 23.2014 9.23633 23.4241 8.55665 23.0373L4.75977 20.8459ZM8.45118 9.64278L16.291 14.1662L17.2285 12.5373L9.4004 8.01387L8.45118 9.64278ZM4.25587 16.9084L12.0957 21.4319L13.0449 19.7912L5.2168 15.2678L4.25587 16.9084Z" fill="black" fill-opacity="0.85"/>
<path d="M3.4121 27.1856H7.84179C9.96289 27.1856 11.0645 26.1075 11.0645 24.0215V3.29101C11.0645 1.20508 9.96289 0.138672 7.84179 0.138672H3.4121C1.2207 0.138672 0.0839844 1.20508 0.0839844 3.29101V24.0215C0.0839844 26.1075 1.2207 27.1856 3.4121 27.1856Z" fill="white"/>
<path d="M3.4121 27.1856H7.84179C9.96289 27.1856 11.0645 26.1075 11.0645 24.0215V3.29101C11.0645 1.20508 9.96289 0.138672 7.84179 0.138672H3.4121C1.2207 0.138672 0.0839844 1.20508 0.0839844 3.29101V24.0215C0.0839844 26.1075 1.2207 27.1856 3.4121 27.1856ZM3.43554 25.2989C2.60351 25.2989 1.9707 24.7129 1.9707 23.9278V3.38476C1.9707 2.59961 2.60351 2.02539 3.43554 2.02539H7.81836C8.60351 2.02539 9.17773 2.59961 9.17773 3.38476V23.9278C9.17773 24.7129 8.60351 25.2989 7.81836 25.2989H3.43554ZM1.05664 10.416H10.0918V8.52929H1.05664V10.416ZM1.05664 18.7949H10.0918V16.9082H1.05664V18.7949Z" fill="black" fill-opacity="0.85"/>
</g>
<defs>
<clipPath id="clip0_2207_21189">
<rect width="26.3228" height="27.0586" fill="white" transform="translate(0.0839844 0.138672)"/>
</clipPath>
</defs>
</svg>
