<svg width="24" height="25" viewBox="0 0 24 25" fill="none" xmlns="http://www.w3.org/2000/svg">
<g clip-path="url(#clip0_2207_26195)">
<path d="M12.0454 24.0449C18.5845 24.0449 23.9985 18.6192 23.9985 12.0918C23.9985 5.55273 18.5728 0.138672 12.0337 0.138672C5.50634 0.138672 0.0922852 5.55273 0.0922852 12.0918C0.0922852 18.6192 5.51807 24.0449 12.0454 24.0449Z" fill="black" fill-opacity="0.85"/>
<path d="M8.0962 17.1426C7.6626 17.1426 7.31104 16.791 7.31104 16.3575V7.77929C7.31104 7.3457 7.6626 6.98242 8.0962 6.98242C8.54151 6.98242 8.90479 7.3457 8.90479 7.77929V12.9239H8.92823L11.5532 9.99414C11.9165 9.57226 12.4087 9.66601 12.6665 9.93555C12.9126 10.1582 12.9946 10.5567 12.6548 10.9082L10.6861 12.9707L12.6548 15.8067C12.9946 16.3106 12.854 16.7442 12.5611 16.9668C12.2212 17.1895 11.7056 17.166 11.3892 16.6856L9.53759 13.9551L8.90479 14.5645V16.3575C8.90479 16.791 8.54151 17.1426 8.0962 17.1426ZM14.9165 17.1543C14.5064 17.1543 14.1782 16.8145 14.1782 16.4043V10.4512C14.1782 10.0527 14.4946 9.73633 14.8931 9.73633C15.2915 9.73633 15.6196 10.0527 15.6196 10.4512V11.1895H15.69C15.8189 10.416 16.3228 9.74805 17.0845 9.74805C17.3306 9.74805 17.5298 9.81836 17.6939 9.9707C17.8228 10.0996 17.8931 10.2754 17.8931 10.5215C17.8931 10.7559 17.7993 10.9317 17.6704 11.0489C17.4712 11.2012 17.1548 11.2598 16.8618 11.2598C15.9712 11.2598 15.6782 11.9981 15.6782 12.877V16.4043C15.6782 16.8145 15.3501 17.1543 14.9165 17.1543Z" fill="white"/>
</g>
<defs>
<clipPath id="clip0_2207_26195">
<rect width="23.9062" height="23.918" fill="white" transform="translate(0.0922852 0.138672)"/>
</clipPath>
</defs>
</svg>
