<svg width="22" height="22" viewBox="0 0 22 22" fill="none" xmlns="http://www.w3.org/2000/svg">
<g clip-path="url(#clip0_2207_26200)">
<path d="M3.77417 21.7364H17.989C20.45 21.7364 21.6687 20.5176 21.6687 18.1035V3.79492C21.6687 1.38086 20.45 0.162109 17.989 0.162109H3.77417C1.32495 0.162109 0.0944824 1.36914 0.0944824 3.79492V18.1035C0.0944824 20.5293 1.32495 21.7364 3.77417 21.7364ZM3.7976 19.8496C2.62573 19.8496 1.9812 19.2285 1.9812 18.0098V3.88867C1.9812 2.66992 2.62573 2.04883 3.7976 2.04883H17.9656C19.1257 2.04883 19.782 2.66992 19.782 3.88867V18.0098C19.782 19.2285 19.1257 19.8496 17.9656 19.8496H3.7976Z" fill="black" fill-opacity="0.85"/>
<path d="M7.07886 15.8301C7.50073 15.8301 7.85229 15.4903 7.85229 15.0684V13.3223L8.47339 12.7364L10.2781 15.3848C10.5828 15.8535 11.0867 15.877 11.4031 15.6543C11.6843 15.4434 11.825 15.0215 11.4968 14.541L9.57495 11.7871L11.4968 9.7832C11.825 9.44336 11.7429 9.05664 11.5086 8.8457C11.2507 8.57617 10.782 8.49414 10.4304 8.89258L7.88745 11.7403H7.85229V6.74805C7.85229 6.32617 7.50073 5.97461 7.07886 5.97461C6.65698 5.97461 6.31714 6.32617 6.31714 6.74805V15.0684C6.31714 15.4903 6.65698 15.8301 7.07886 15.8301ZM13.7 15.8418C14.0984 15.8418 14.4148 15.5137 14.4148 15.1153V11.6934C14.4148 10.8379 14.7078 10.123 15.575 10.123C15.8562 10.123 16.1609 10.0644 16.3484 9.91211C16.4773 9.80664 16.5711 9.63086 16.5711 9.4082C16.5711 9.17383 16.5007 8.99805 16.3718 8.86914C16.2195 8.72851 16.0203 8.6582 15.7859 8.6582C15.0476 8.6582 14.5672 9.30273 14.4265 10.0527H14.3679V9.33789C14.3679 8.95117 14.0633 8.64648 13.6765 8.64648C13.2781 8.64648 12.9734 8.95117 12.9734 9.33789V15.1153C12.9734 15.5137 13.2898 15.8418 13.7 15.8418Z" fill="black" fill-opacity="0.85"/>
</g>
<defs>
<clipPath id="clip0_2207_26200">
<rect width="21.5742" height="21.5977" fill="white" transform="translate(0.0944824 0.138672)"/>
</clipPath>
</defs>
</svg>
