<svg width="24" height="25" viewBox="0 0 24 25" fill="none" xmlns="http://www.w3.org/2000/svg">
<g clip-path="url(#clip0_2207_5862)">
<path d="M11.9531 2.07422C9.32812 2.07422 6.94922 4.21875 6.94922 7.07812C6.94922 9.30469 8.88281 11.2383 11.9531 12.0937C15.0352 12.9609 16.9688 14.9062 16.9688 17.1094C16.9688 19.8633 14.7422 22.1133 11.9531 22.1133C17.4961 22.1133 21.9727 17.625 21.9727 12.0937C21.9727 6.55079 17.4961 2.07422 11.9531 2.07422ZM11.9531 24.0468C18.4922 24.0468 23.9062 18.6211 23.9062 12.0937C23.9062 5.55469 18.4805 0.140625 11.9414 0.140625C5.41406 0.140625 0 5.55469 0 12.0937C0 18.6211 5.42578 24.0468 11.9531 24.0468ZM11.9531 22.0547C6.42188 22.0547 2.00391 17.625 2.00391 12.0937C2.00391 6.56251 6.41016 2.13282 11.9414 2.13282C17.4727 2.13282 21.9141 6.56251 21.9141 12.0937C21.9141 17.625 17.4844 22.0547 11.9531 22.0547Z" fill="black" fill-opacity="0.85"/>
</g>
<defs>
<clipPath id="clip0_2207_5862">
<rect width="23.9062" height="23.918" fill="white" transform="translate(0 0.140625)"/>
</clipPath>
</defs>
</svg>
