<svg width="22" height="22" viewBox="0 0 22 22" fill="none" xmlns="http://www.w3.org/2000/svg">
<g clip-path="url(#clip0_2207_11223)">
<path d="M3.69019 21.7383H17.905C20.366 21.7383 21.5847 20.5195 21.5847 18.1054V3.79688C21.5847 1.38281 20.366 0.164062 17.905 0.164062H3.69019C1.24097 0.164062 0.010498 1.37109 0.010498 3.79688V18.1054C0.010498 20.5312 1.24097 21.7383 3.69019 21.7383ZM3.71362 19.8515C2.54175 19.8515 1.89722 19.2304 1.89722 18.0117V3.89062C1.89722 2.67188 2.54175 2.05078 3.71362 2.05078H17.8816C19.0417 2.05078 19.698 2.67188 19.698 3.89062V18.0117C19.698 19.2304 19.0417 19.8515 17.8816 19.8515H3.71362Z" fill="black" fill-opacity="0.85"/>
<path d="M7.67456 17.0508H13.9207C14.4128 17.0508 14.7761 16.6875 14.7761 16.1953V5.70703C14.7761 5.1914 14.4128 4.83984 13.9207 4.83984H7.67456C7.18238 4.83984 6.81909 5.1914 6.81909 5.70703V16.1953C6.81909 16.6875 7.18238 17.0508 7.67456 17.0508ZM8.53003 9.86718C8.30738 9.86718 8.14331 9.6914 8.14331 9.45703V6.5625C8.14331 6.3164 8.30738 6.16406 8.53003 6.16406H13.0652C13.2996 6.16406 13.4519 6.3164 13.4519 6.5625V9.45703C13.4519 9.6914 13.2996 9.86718 13.0652 9.86718H8.53003ZM8.53003 15.7265C8.30738 15.7265 8.14331 15.5742 8.14331 15.3281V12.4336C8.14331 12.1992 8.30738 12.0351 8.53003 12.0351H13.0652C13.2996 12.0351 13.4519 12.1992 13.4519 12.4336V15.3281C13.4519 15.5742 13.2996 15.7265 13.0652 15.7265H8.53003Z" fill="black" fill-opacity="0.85"/>
</g>
<defs>
<clipPath id="clip0_2207_11223">
<rect width="21.5742" height="21.5977" fill="white" transform="translate(0.010498 0.140625)"/>
</clipPath>
</defs>
</svg>
