<svg width="27" height="27" viewBox="0 0 27 27" fill="none" xmlns="http://www.w3.org/2000/svg">
<g clip-path="url(#clip0_2207_17885)">
<path d="M0.263018 26.3672C0.579424 26.6718 1.08333 26.6601 1.39974 26.3437L7.17708 20.5664L6.05208 19.4297L0.263018 25.2187C-0.0533883 25.5351 -0.0768258 26.0508 0.263018 26.3672ZM15.1106 5.33204L13.6106 6.83204L16.47 9.70312C16.6692 9.91407 16.6809 10.2773 16.47 10.4765C16.2473 10.6875 15.9309 10.6875 15.7083 10.4765L12.8372 7.60546L11.1731 9.26954L14.0325 12.1289C14.2552 12.3515 14.2552 12.6914 14.0442 12.9023C13.8216 13.125 13.4934 13.1133 13.2708 12.9023L10.4114 10.0312L8.72396 11.707L11.595 14.5781C11.8059 14.789 11.8177 15.1289 11.6067 15.3398C11.3841 15.5625 11.0559 15.5625 10.8333 15.3398L7.96224 12.4687L6.29818 14.1445L9.16927 16.9922C9.36849 17.2031 9.38021 17.5429 9.18099 17.7539C8.95833 18 8.63021 18 8.39583 17.7656L5.53646 14.9062L4.25912 16.1718C3.05208 17.3789 3.02865 18.7734 4.16537 19.9218L6.73177 22.5C7.86849 23.6367 9.28646 23.5898 10.4934 22.3828L21.3216 11.5429L15.1106 5.33204ZM14.7942 3.16406L23.513 11.8828C23.8763 12.2461 24.4739 12.2461 24.8372 11.8828C25.2122 11.5195 25.2122 10.9101 24.8372 10.5468L23.5833 9.29296L24.0638 8.8125C24.427 8.44921 24.4388 7.85156 24.0638 7.48829L22.3645 5.78906L23.8294 4.32421L25.2356 5.73046C25.5989 6.09374 26.1966 6.09374 26.5598 5.73046C26.9348 5.35546 26.9348 4.75781 26.5598 4.39454L22.5872 0.421875C22.2239 0.046875 21.6263 0.046875 21.2513 0.421875C20.888 0.785156 20.888 1.38281 21.2513 1.74609L22.6692 3.15234L21.2044 4.61719L19.1888 2.60156C18.8255 2.23828 18.2161 2.23828 17.8528 2.60156L17.3723 3.08204L16.1302 1.83984C15.7434 1.4414 15.1575 1.46484 14.7942 1.83984C14.4309 2.20312 14.4075 2.77734 14.7942 3.16406Z" fill="black" fill-opacity="0.85"/>
</g>
<defs>
<clipPath id="clip0_2207_17885">
<rect width="26.8243" height="26.4727" fill="white" transform="translate(0.0168457 0.140625)"/>
</clipPath>
</defs>
</svg>
