<svg width="24" height="25" viewBox="0 0 24 25" fill="none" xmlns="http://www.w3.org/2000/svg">
<g clip-path="url(#clip0_2207_25206)">
<path d="M11.9719 24.0468C18.511 24.0468 23.925 18.6211 23.925 12.0937C23.925 5.55469 18.4993 0.140625 11.9602 0.140625C5.43286 0.140625 0.0187988 5.55469 0.0187988 12.0937C0.0187988 18.6211 5.44458 24.0468 11.9719 24.0468ZM11.9719 22.0547C6.44068 22.0547 2.02271 17.625 2.02271 12.0937C2.02271 6.56251 6.42896 2.13282 11.9602 2.13282C17.4915 2.13282 21.9329 6.56251 21.9329 12.0937C21.9329 17.625 17.5032 22.0547 11.9719 22.0547Z" fill="black" fill-opacity="0.85"/>
<path d="M11.925 17.5078C12.5461 17.5078 12.8743 17.0976 12.8743 16.4531V8.22657H15.7922C16.2376 8.22657 16.5774 7.92188 16.5774 7.45313C16.5774 6.97266 16.2376 6.69141 15.7922 6.69141H8.11646C7.67114 6.69141 7.34302 6.97266 7.34302 7.45313C7.34302 7.92188 7.67114 8.22657 8.11646 8.22657H11.011V16.4531C11.011 17.0742 11.3274 17.5078 11.925 17.5078Z" fill="black" fill-opacity="0.85"/>
</g>
<defs>
<clipPath id="clip0_2207_25206">
<rect width="23.9062" height="23.918" fill="white" transform="translate(0.0187988 0.140625)"/>
</clipPath>
</defs>
</svg>
