<svg width="22" height="22" viewBox="0 0 22 22" fill="none" xmlns="http://www.w3.org/2000/svg">
<g clip-path="url(#clip0_2207_25216)">
<path d="M3.70288 21.7383H17.9177C20.3787 21.7383 21.5974 20.5195 21.5974 18.1054V3.79688C21.5974 1.38281 20.3787 0.164062 17.9177 0.164062H3.70288C1.25366 0.164062 0.0231934 1.37109 0.0231934 3.79688V18.1054C0.0231934 20.5312 1.25366 21.7383 3.70288 21.7383ZM3.72631 19.8515C2.55444 19.8515 1.90991 19.2304 1.90991 18.0117V3.89062C1.90991 2.67188 2.55444 2.05078 3.72631 2.05078H17.8943C19.0544 2.05078 19.7107 2.67188 19.7107 3.89062V18.0117C19.7107 19.2304 19.0544 19.8515 17.8943 19.8515H3.72631Z" fill="black" fill-opacity="0.85"/>
<path d="M10.7927 16.3476C11.4021 16.3476 11.7302 15.9375 11.7302 15.2929V7.06641H14.6482C15.0935 7.06641 15.4334 6.76172 15.4334 6.29297C15.4334 5.81251 15.0935 5.53125 14.6482 5.53125H6.98413C6.53881 5.53125 6.19897 5.81251 6.19897 6.29297C6.19897 6.76172 6.53881 7.06641 6.98413 7.06641H9.86694V15.2929C9.86694 15.914 10.1834 16.3476 10.7927 16.3476Z" fill="black" fill-opacity="0.85"/>
</g>
<defs>
<clipPath id="clip0_2207_25216">
<rect width="21.5742" height="21.5977" fill="white" transform="translate(0.0231934 0.140625)"/>
</clipPath>
</defs>
</svg>
