<svg width="27" height="28" viewBox="0 0 27 28" fill="none" xmlns="http://www.w3.org/2000/svg">
<g clip-path="url(#clip0_2207_8466)">
<path d="M13.8593 26.2368L25.285 14.7876C26.1639 13.9087 26.2225 13.4048 26.2225 12.1743V7.72119C26.2225 6.479 25.9296 6.09228 25.0389 5.20166L22.3436 2.50635C21.4647 1.62744 21.078 1.32275 19.8358 1.32275H15.371C14.1405 1.32275 13.6483 1.38135 12.7694 2.26025L1.30849 13.6977C-0.367294 15.3735 -0.402451 17.1079 1.32021 18.8188L8.73818 26.2251C10.4608 27.936 12.1835 27.9126 13.8593 26.2368ZM12.5936 24.8188C11.7499 25.6626 10.8593 25.6743 10.0038 24.8071L2.72646 17.5415C1.87099 16.686 1.88271 15.7837 2.71474 14.9516L14.0936 3.59619C14.328 3.36182 14.5741 3.20947 14.9725 3.20947H19.9061C20.2694 3.20947 20.5155 3.3501 20.7616 3.59619L23.9608 6.78369C24.2069 7.02978 24.3358 7.27588 24.3358 7.63916V12.5845C24.3358 12.9712 24.1952 13.2173 23.9608 13.4516L12.5936 24.8188ZM18.4647 10.6977C19.3788 10.6977 20.0702 9.98291 20.0702 9.09228C20.0702 8.18994 19.3788 7.48682 18.4647 7.48682C17.5389 7.48682 16.8593 8.18994 16.8593 9.09228C16.8593 9.98291 17.5389 10.6977 18.4647 10.6977Z" fill="black" fill-opacity="0.85"/>
</g>
<defs>
<clipPath id="clip0_2207_8466">
<rect width="26.1826" height="27.3604" fill="white" transform="translate(0.039917 0.140625)"/>
</clipPath>
</defs>
</svg>
