<svg width="22" height="22" viewBox="0 0 22 22" fill="none" xmlns="http://www.w3.org/2000/svg">
<g clip-path="url(#clip0_2207_8489)">
<path d="M3.73438 21.7383H17.9492C20.4102 21.7383 21.6289 20.5195 21.6289 18.1054V3.79688C21.6289 1.38281 20.4102 0.164062 17.9492 0.164062H3.73438C1.28516 0.164062 0.0546875 1.37109 0.0546875 3.79688V18.1054C0.0546875 20.5312 1.28516 21.7383 3.73438 21.7383Z" fill="black" fill-opacity="0.85"/>
<path d="M8.35157 17.2031L4.76563 13.5937C4.02735 12.8672 4.02735 12.1523 4.77735 11.4023L10.5547 5.55468C11.0117 5.08593 11.3399 4.74609 12.0664 4.74609H14.4336C14.9727 4.74609 15.2891 4.98046 15.6641 5.34374L16.707 6.375C17.082 6.75 17.2227 7.0664 17.2227 7.61718V9.8789C17.2227 10.6289 16.8711 10.9453 16.4141 11.4023L10.5664 17.1914C9.81641 17.9414 9.08985 17.9297 8.35157 17.2031ZM13.0039 8.96484C13.332 9.30468 13.8711 9.30468 14.2109 8.95312C14.5508 8.61328 14.5508 8.07421 14.2109 7.74609C13.8711 7.40624 13.332 7.40624 13.0039 7.74609C12.6641 8.08593 12.6641 8.63671 13.0039 8.96484Z" fill="white"/>
</g>
<defs>
<clipPath id="clip0_2207_8489">
<rect width="21.5742" height="21.5977" fill="white" transform="translate(0.0546875 0.140625)"/>
</clipPath>
</defs>
</svg>
