<svg width="27" height="28" viewBox="0 0 27 28" fill="none" xmlns="http://www.w3.org/2000/svg">
<g clip-path="url(#clip0_2207_8494)">
<path d="M13.8677 26.2368L25.2934 14.7876C26.1723 13.9087 26.2309 13.4048 26.2309 12.1743V7.72119C26.2309 6.479 25.938 6.09228 25.0473 5.20166L22.352 2.50635C21.4731 1.62744 21.0864 1.32275 19.8442 1.32275H15.3794C14.1489 1.32275 13.6567 1.38135 12.7778 2.26025L1.31691 13.6977C-0.358871 15.3735 -0.394028 17.1079 1.32863 18.8188L8.7466 26.2251C10.4692 27.936 12.1919 27.9126 13.8677 26.2368ZM12.602 24.8188C11.7583 25.6626 10.8677 25.6743 10.0122 24.8071L2.73488 17.5415C1.87941 16.686 1.89113 15.7837 2.72316 14.9516L14.102 3.59619C14.3364 3.36182 14.5825 3.20947 14.9809 3.20947H19.9145C20.2778 3.20947 20.5239 3.3501 20.77 3.59619L23.9692 6.78369C24.2153 7.02978 24.3442 7.27588 24.3442 7.63916V12.5845C24.3442 12.9712 24.2036 13.2173 23.9692 13.4516L12.602 24.8188ZM18.4731 10.6977C19.3872 10.6977 20.0786 9.98291 20.0786 9.09228C20.0786 8.18994 19.3872 7.48682 18.4731 7.48682C17.5473 7.48682 16.8677 8.18994 16.8677 9.09228C16.8677 9.98291 17.5473 10.6977 18.4731 10.6977Z" fill="black" fill-opacity="0.85"/>
<path d="M21.7075 26.1899C22.5981 27.0688 24.0395 27.0688 24.9184 26.1665C25.7973 25.2876 25.7973 23.8579 24.9184 22.9673L4.5747 2.62354C3.68408 1.74464 2.24267 1.73292 1.34033 2.62354C0.473144 3.50245 0.473144 4.96729 1.34033 5.83448L21.7075 26.1899Z" fill="white"/>
<path d="M22.6684 25.2173C23.0317 25.5688 23.6059 25.5688 23.9458 25.2173C24.2973 24.8657 24.3091 24.2915 23.9458 23.9399L3.60206 3.59621C3.25049 3.24465 2.67627 3.23293 2.31299 3.59621C1.97315 3.93605 1.97315 4.52199 2.31299 4.87355L22.6684 25.2173Z" fill="black" fill-opacity="0.85"/>
</g>
<defs>
<clipPath id="clip0_2207_8494">
<rect width="26.1826" height="27.3604" fill="white" transform="translate(0.0483398 0.140625)"/>
</clipPath>
</defs>
</svg>
