<svg width="22" height="22" viewBox="0 0 22 22" fill="none" xmlns="http://www.w3.org/2000/svg">
<g clip-path="url(#clip0_2207_8484)">
<path d="M3.73218 21.7383H17.947C20.408 21.7383 21.6267 20.5195 21.6267 18.1054V3.79688C21.6267 1.38281 20.408 0.164062 17.947 0.164062H3.73218C1.28296 0.164062 0.0524902 1.37109 0.0524902 3.79688V18.1054C0.0524902 20.5312 1.28296 21.7383 3.73218 21.7383ZM3.75561 19.8515C2.58374 19.8515 1.93921 19.2304 1.93921 18.0117V3.89062C1.93921 2.67188 2.58374 2.05078 3.75561 2.05078H17.9236C19.0837 2.05078 19.74 2.67188 19.74 3.89062V18.0117C19.74 19.2304 19.0837 19.8515 17.9236 19.8515H3.75561Z" fill="black" fill-opacity="0.85"/>
<path d="M8.43141 17.0273C9.14625 17.7304 9.84938 17.7422 10.5759 17.0156L16.2361 11.3906C16.6931 10.957 17.0213 10.6406 17.0213 9.92578V7.72265C17.0213 7.19531 16.8806 6.89062 16.5291 6.52734L15.5095 5.51953C15.1463 5.16796 14.8416 4.94531 14.3142 4.94531H12.0408C11.3377 4.94531 11.0095 5.27343 10.5642 5.73046L4.95094 11.4023C4.23609 12.1289 4.23609 12.8203 4.93922 13.5234L8.43141 17.0273ZM12.9314 9.03515C12.6033 8.71874 12.6033 8.17968 12.9314 7.85156C13.2478 7.52343 13.7869 7.52343 14.1033 7.85156C14.4314 8.16796 14.4314 8.69531 14.1033 9.02343C13.7752 9.36328 13.2595 9.36328 12.9314 9.03515Z" fill="black" fill-opacity="0.85"/>
</g>
<defs>
<clipPath id="clip0_2207_8484">
<rect width="21.5742" height="21.5977" fill="white" transform="translate(0.0524902 0.140625)"/>
</clipPath>
</defs>
</svg>
