<svg width="31" height="22" viewBox="0 0 31 22" fill="none" xmlns="http://www.w3.org/2000/svg">
<g clip-path="url(#clip0_2207_15706)">
<path d="M19.6386 10.5765C19.6621 8.31479 19.4746 6.14682 18.8535 3.92025C18.1269 1.50619 16.7675 0.639004 13.9199 0.639004H13.2636C6.2793 0.639004 0.0566406 5.22103 0.0566406 10.5765C0.0566406 15.9319 6.2793 20.4905 13.2636 20.4905H13.9199C16.7793 20.4905 18.1386 19.6351 18.8535 17.221C19.4746 15.0062 19.6621 12.8382 19.6386 10.5765ZM17.7519 10.5765C17.7636 13.096 17.5527 14.9124 17.0371 16.7054C16.6269 18.0882 15.7832 18.6155 13.9199 18.6155H13.2636C7.36914 18.6155 1.94336 14.8538 1.94336 10.5765C1.94336 6.29915 7.36914 2.514 13.2636 2.514H13.9199C15.7597 2.514 16.6152 3.04135 17.0371 4.4476C17.5527 6.24057 17.7636 8.05697 17.7519 10.5765ZM29.9863 5.17416H20.7754C20.9043 5.80698 20.998 6.45151 21.0683 7.0726L29.9863 7.06087C30.4785 7.06087 30.9238 6.639 30.9238 6.12337C30.9238 5.60775 30.4902 5.17416 29.9863 5.17416ZM29.9863 9.62729H21.2324C21.2441 9.97884 21.2441 11.1741 21.2324 11.514H29.9863C30.4902 11.514 30.9238 11.1038 30.9238 10.5882C30.9238 10.0843 30.4902 9.62729 29.9863 9.62729ZM29.9863 14.0921L21.0683 14.1038C20.998 14.7132 20.9043 15.346 20.7754 15.9905L29.9863 15.9788C30.4902 15.9788 30.9238 15.5569 30.9238 15.0413C30.9238 14.5374 30.4902 14.0921 29.9863 14.0921ZM23.9277 19.3655C22.955 20.3148 24.2324 21.6155 25.2402 20.7015C27.5488 18.5335 28.0175 14.5023 26.4824 10.6351L26.2597 10.0726C24.9589 6.80306 25.1816 3.49837 26.8691 1.78744C27.8652 0.838222 26.5878 -0.462559 25.5683 0.451504C23.248 2.6312 22.8027 6.639 24.3378 10.5062L24.5605 11.0687C25.8613 14.3616 25.6269 17.6429 23.9277 19.3655Z" fill="black" fill-opacity="0.85"/>
</g>
<defs>
<clipPath id="clip0_2207_15706">
<rect width="30.8672" height="20.8835" fill="white" transform="translate(0.0566406 0.140625)"/>
</clipPath>
</defs>
</svg>
