<svg width="25" height="30" viewBox="0 0 25 30" fill="none" xmlns="http://www.w3.org/2000/svg">
<g clip-path="url(#clip0_2207_18220)">
<path d="M12.5166 16.5C16.8877 16.5 20.4384 12.9492 20.4384 8.57812C20.4384 8.41407 20.4384 8.26172 20.4267 8.09766C22.3837 7.89844 23.9072 6.2461 23.9072 4.23047C23.9072 2.09766 22.1728 0.363281 20.0283 0.363281C18.7392 0.363281 17.5908 0.996094 16.8877 1.98047C15.6337 1.13672 14.1337 0.65625 12.5166 0.65625C10.8994 0.65625 9.39941 1.13672 8.1455 1.98047C7.44238 0.996094 6.29394 0.363281 5.00488 0.363281C2.86035 0.363281 1.12597 2.09766 1.12597 4.23047C1.12597 6.2461 2.64941 7.89844 4.60644 8.09766C4.59472 8.26172 4.59472 8.41407 4.59472 8.57812C4.59472 12.9492 8.1455 16.5 12.5166 16.5ZM9.458 8.05079C8.91894 8.05079 8.45019 7.59375 8.45019 7.03125C8.45019 6.46875 8.91894 6.01172 9.458 6.01172C10.0205 6.01172 10.4775 6.46875 10.4775 7.03125C10.4775 7.59375 10.0205 8.05079 9.458 8.05079ZM15.5869 8.05079C15.0244 8.05079 14.5673 7.59375 14.5673 7.03125C14.5673 6.46875 15.0244 6.01172 15.5869 6.01172C16.1259 6.01172 16.5947 6.46875 16.5947 7.03125C16.5947 7.59375 16.1259 8.05079 15.5869 8.05079ZM5.00488 2.03907C5.77832 2.03907 6.458 2.43751 6.84472 3.0586C5.94238 3.97266 5.25097 5.13282 4.89941 6.41016C4.81738 6.41016 4.74707 6.39844 4.68847 6.38672C3.62207 6.23438 2.81347 5.33204 2.81347 4.23047C2.81347 3.02344 3.79785 2.03907 5.00488 2.03907ZM20.0283 2.03907C21.2353 2.03907 22.2197 3.02344 22.2197 4.23047C22.2197 5.32032 21.4111 6.2461 20.3447 6.38672C20.2744 6.39844 20.1806 6.41016 20.1337 6.41016C19.7822 5.13282 19.0908 3.97266 18.1884 3.0586C18.5752 2.43751 19.2548 2.03907 20.0283 2.03907ZM12.54 15.5156C10.5244 15.5156 8.91894 13.8984 8.91894 11.8945C8.91894 9.90234 10.5361 8.27344 12.54 8.27344C14.5322 8.27344 16.1611 9.89062 16.1611 11.8945C16.1611 13.8867 14.5205 15.5156 12.54 15.5156ZM12.5166 12.3515C13.2197 12.3515 14.3447 11.2968 14.3447 11.0039C14.3447 10.5234 13.5712 9.85546 12.5166 9.85546C11.4619 9.85546 10.6533 10.5234 10.6533 11.0039C10.6533 11.2968 11.8252 12.3515 12.5166 12.3515ZM22.6298 14.8476L18.3291 12.9023L13.6416 16.0312H11.415L6.72754 12.9023L2.42675 14.8476C0.375969 15.7734 -0.491218 18.2226 0.446282 20.25C0.926751 21.2578 1.75879 21.9844 2.7666 22.3242C3.38769 20.0625 5.09863 18.457 7.17285 18.457C9.79785 18.457 11.8486 21.0351 11.8486 24.2578C11.8486 25.6875 11.4384 26.9883 10.7705 28.0078C11.872 28.1601 13.1728 28.1484 14.2861 28.0078C13.6181 26.9883 13.208 25.6875 13.208 24.2578C13.208 21.0351 15.2587 18.457 17.8837 18.457C19.958 18.457 21.6689 20.0625 22.29 22.3242C23.2978 21.9844 24.1298 21.2578 24.6103 20.25C25.5478 18.2226 24.6806 15.7734 22.6298 14.8476ZM7.17285 29.0273C9.20019 29.0273 10.7822 26.8945 10.7822 24.2578C10.7822 21.6562 9.20019 19.5234 7.17285 19.5234C5.1455 19.5234 3.56347 21.6562 3.56347 24.2578C3.56347 26.8945 5.1455 29.0273 7.17285 29.0273ZM17.8837 29.0273C19.9111 29.0273 21.4931 26.8945 21.4931 24.2578C21.4931 21.6562 19.9111 19.5234 17.8837 19.5234C15.8564 19.5234 14.2744 21.6562 14.2744 24.2578C14.2744 26.8945 15.8564 29.0273 17.8837 29.0273Z" fill="black" fill-opacity="0.85"/>
</g>
<defs>
<clipPath id="clip0_2207_18220">
<rect width="24.918" height="28.8867" fill="white" transform="translate(0.0693359 0.140625)"/>
</clipPath>
</defs>
</svg>
