<svg width="24" height="25" viewBox="0 0 24 25" fill="none" xmlns="http://www.w3.org/2000/svg">
<g clip-path="url(#clip0_2207_9540)">
<path d="M12.0288 24.0468C18.5679 24.0468 23.9819 18.6211 23.9819 12.0937C23.9819 5.55469 18.5562 0.140625 12.0171 0.140625C5.48974 0.140625 0.0756836 5.55469 0.0756836 12.0937C0.0756836 18.6211 5.50146 24.0468 12.0288 24.0468ZM12.0288 22.0547C6.49756 22.0547 2.07959 17.625 2.07959 12.0937C2.07959 6.56251 6.48584 2.13282 12.0171 2.13282C17.5484 2.13282 21.9898 6.56251 21.9898 12.0937C21.9898 17.625 17.5601 22.0547 12.0288 22.0547Z" fill="black" fill-opacity="0.85"/>
<path d="M13.7748 18.0117C14.3842 17.4375 14.1968 16.957 13.5757 16.4883L11.9819 15.1875C11.3843 14.707 11.021 14.9179 10.5874 15.3047L10.4819 15.3984C10.0717 15.7265 9.5444 15.4453 8.2319 14.1679C7.02487 12.9492 6.67331 12.2812 7.00143 11.9179L7.09518 11.8125C7.50534 11.3554 7.68112 10.9922 7.21237 10.4062L5.92331 8.81244C5.4194 8.21478 4.98581 8.02728 4.37643 8.61322C2.73581 10.2656 3.93112 13.1015 6.62643 15.7851C9.28659 18.4687 12.1342 19.664 13.7748 18.0117ZM9.23971 10.7578H10.271C10.6812 10.7578 10.9038 10.5117 10.9038 10.1249V9.1054C10.9038 8.69525 10.6812 8.48431 10.271 8.48431H9.23971C8.85299 8.48431 8.61862 8.69525 8.61862 9.1054V10.1249C8.61862 10.5117 8.85299 10.7578 9.23971 10.7578ZM12.2515 10.7578H13.2826C13.6694 10.7578 13.892 10.5117 13.892 10.1249V9.1054C13.892 8.69525 13.6694 8.48431 13.2826 8.48431H12.2515C11.853 8.48431 11.5952 8.69525 11.5952 9.1054V10.1249C11.5952 10.5117 11.853 10.7578 12.2515 10.7578ZM15.228 10.7578H16.2592C16.6576 10.7578 16.9038 10.5117 16.9038 10.1249V9.1054C16.9038 8.69525 16.6576 8.48431 16.2592 8.48431H15.228C14.8413 8.48431 14.6187 8.69525 14.6187 9.1054V10.1249C14.6187 10.5117 14.8413 10.7578 15.228 10.7578ZM18.228 10.7578H19.2592C19.6812 10.7578 19.9038 10.5117 19.9038 10.1249V9.1054C19.9038 8.69525 19.6812 8.48431 19.2592 8.48431H18.228C17.8413 8.48431 17.6186 8.69525 17.6186 9.1054V10.1249C17.6186 10.5117 17.8413 10.7578 18.228 10.7578ZM9.23971 13.7578H10.2593C10.6812 13.7578 10.9038 13.5351 10.9038 13.125V12.1054C10.9038 11.6953 10.6812 11.4844 10.2593 11.4844H9.23971C8.82956 11.4844 8.61862 11.6953 8.61862 12.1054V13.125C8.61862 13.5351 8.82956 13.7578 9.23971 13.7578ZM12.2397 13.7578H16.2827C16.6812 13.7578 16.9038 13.5351 16.9038 13.125V12.1054C16.9038 11.6953 16.6812 11.4844 16.2827 11.4844H12.2397C11.8412 11.4844 11.5952 11.6953 11.5952 12.1054V13.125C11.5952 13.5351 11.8412 13.7578 12.2397 13.7578ZM18.2398 13.7578H19.2827C19.6929 13.7578 19.9038 13.5351 19.9038 13.125V12.1054C19.9038 11.6953 19.6929 11.4844 19.2827 11.4844H18.2398C17.8648 11.4844 17.6186 11.6953 17.6186 12.1054V13.125C17.6186 13.5351 17.8648 13.7578 18.2398 13.7578Z" fill="black" fill-opacity="0.85"/>
</g>
<defs>
<clipPath id="clip0_2207_9540">
<rect width="23.9062" height="23.918" fill="white" transform="translate(0.0756836 0.140625)"/>
</clipPath>
</defs>
</svg>
