<svg width="22" height="22" viewBox="0 0 22 22" fill="none" xmlns="http://www.w3.org/2000/svg">
<g clip-path="url(#clip0_2207_25624)">
<path d="M3.77002 21.7383H17.9848C20.4458 21.7383 21.6645 20.5195 21.6645 18.1054V3.79688C21.6645 1.38281 20.4458 0.164062 17.9848 0.164062H3.77002C1.3208 0.164062 0.090332 1.37109 0.090332 3.79688V18.1054C0.090332 20.5312 1.3208 21.7383 3.77002 21.7383ZM3.79345 19.8515C2.62158 19.8515 1.97705 19.2304 1.97705 18.0117V3.89062C1.97705 2.67188 2.62158 2.05078 3.79345 2.05078H17.9614C19.1215 2.05078 19.7778 2.67188 19.7778 3.89062V18.0117C19.7778 19.2304 19.1215 19.8515 17.9614 19.8515H3.79345Z" fill="black" fill-opacity="0.85"/>
<path d="M6.69971 8.42578C6.69971 8.83593 6.96924 9.10546 7.37939 9.10546H10.1215V16.0664C10.1215 16.5351 10.4497 16.8398 10.895 16.8398C11.3403 16.8398 11.645 16.5351 11.645 16.0664V9.10546H14.3872C14.7973 9.10546 15.0669 8.83593 15.0669 8.42578C15.0669 8.02734 14.7973 7.75781 14.3872 7.75781H7.37939C6.96924 7.75781 6.69971 8.02734 6.69971 8.42578ZM6.67627 6.17578C6.67627 6.5039 6.92236 6.76171 7.23877 6.76171H14.5161C14.8442 6.76171 15.0786 6.5039 15.0786 6.17578C15.0786 5.83593 14.8442 5.60156 14.5161 5.60156H7.23877C6.92236 5.60156 6.67627 5.83593 6.67627 6.17578Z" fill="black" fill-opacity="0.85"/>
</g>
<defs>
<clipPath id="clip0_2207_25624">
<rect width="21.5742" height="21.5977" fill="white" transform="translate(0.090332 0.140625)"/>
</clipPath>
</defs>
</svg>
