<svg width="24" height="25" viewBox="0 0 24 25" fill="none" xmlns="http://www.w3.org/2000/svg">
<g clip-path="url(#clip0_2207_25614)">
<path d="M12.0393 24.0468C18.5784 24.0468 23.9924 18.6211 23.9924 12.0937C23.9924 5.55469 18.5667 0.140625 12.0276 0.140625C5.50024 0.140625 0.0861816 5.55469 0.0861816 12.0937C0.0861816 18.6211 5.51196 24.0468 12.0393 24.0468ZM12.0393 22.0547C6.50806 22.0547 2.09009 17.625 2.09009 12.0937C2.09009 6.56251 6.49634 2.13282 12.0276 2.13282C17.5589 2.13282 22.0003 6.56251 22.0003 12.0937C22.0003 17.625 17.5706 22.0547 12.0393 22.0547Z" fill="black" fill-opacity="0.85"/>
<path d="M7.84399 9.58594C7.84399 9.9961 8.11352 10.2656 8.52368 10.2656H11.2659V17.2265C11.2659 17.6953 11.594 18 12.0393 18C12.4846 18 12.7893 17.6953 12.7893 17.2265V10.2656H15.5198C15.9417 10.2656 16.2112 9.9961 16.2112 9.58594C16.2112 9.18751 15.9417 8.91797 15.5198 8.91797H8.52368C8.11352 8.91797 7.84399 9.18751 7.84399 9.58594ZM7.82056 7.33594C7.82056 7.66407 8.06665 7.92188 8.38306 7.92188H15.6487C15.9885 7.92188 16.2229 7.66407 16.2229 7.33594C16.2229 6.9961 15.9885 6.76172 15.6487 6.76172H8.38306C8.06665 6.76172 7.82056 6.9961 7.82056 7.33594Z" fill="black" fill-opacity="0.85"/>
</g>
<defs>
<clipPath id="clip0_2207_25614">
<rect width="23.9062" height="23.918" fill="white" transform="translate(0.0861816 0.140625)"/>
</clipPath>
</defs>
</svg>
