<svg width="24" height="25" viewBox="0 0 24 25" fill="none" xmlns="http://www.w3.org/2000/svg">
<g clip-path="url(#clip0_2207_25619)">
<path d="M12.0412 24.0468C18.5803 24.0468 23.9943 18.6211 23.9943 12.0937C23.9943 5.55469 18.5686 0.140625 12.0295 0.140625C5.50219 0.140625 0.0881348 5.55469 0.0881348 12.0937C0.0881348 18.6211 5.51392 24.0468 12.0412 24.0468Z" fill="black" fill-opacity="0.85"/>
<path d="M7.72875 9.50391C7.72875 9.09375 7.99829 8.81251 8.43188 8.81251H15.6389C16.0842 8.81251 16.3537 9.09375 16.3537 9.50391C16.3537 9.93751 16.0842 10.2187 15.6389 10.2187H12.8264V17.3906C12.8264 17.8828 12.51 18.1875 12.0529 18.1875C11.5959 18.1875 11.2561 17.8828 11.2561 17.3906V10.2187H8.43188C7.99829 10.2187 7.72875 9.93751 7.72875 9.50391ZM7.70532 7.1836C7.70532 6.83204 7.95141 6.59766 8.27954 6.59766H15.7795C16.1311 6.59766 16.3654 6.83204 16.3654 7.1836C16.3654 7.52344 16.1311 7.79297 15.7795 7.79297H8.27954C7.95141 7.79297 7.70532 7.52344 7.70532 7.1836Z" fill="white"/>
</g>
<defs>
<clipPath id="clip0_2207_25619">
<rect width="23.9062" height="23.918" fill="white" transform="translate(0.0881348 0.140625)"/>
</clipPath>
</defs>
</svg>
