<svg width="24" height="25" viewBox="0 0 24 25" fill="none" xmlns="http://www.w3.org/2000/svg">
<g clip-path="url(#clip0_2207_3163)">
<path d="M12.9141 23.4385L14.4023 23.0752C14.1914 22.4072 14.0859 21.6924 14.0859 20.9307C14.0859 16.7939 17.2148 13.665 21.3398 13.665C21.9258 13.665 22.4766 13.7354 23.0156 13.8525L23.3789 12.376C22.7227 12.2119 22.043 12.1299 21.3398 12.1299C16.4766 12.1299 12.5508 16.0557 12.5508 20.9307C12.5508 21.8096 12.668 22.6533 12.9141 23.4385ZM0.714844 10.2549L0.421875 11.7549C1.125 11.9307 1.83984 12.0244 2.58984 12.0244C7.45312 12.0244 11.3789 8.09863 11.3789 3.22363C11.3789 2.3916 11.2734 1.59472 11.0508 0.856446L9.51562 1.04395C9.73828 1.72363 9.84375 2.45019 9.84375 3.22363C9.84375 7.36035 6.71484 10.4893 2.58984 10.4893C1.94531 10.4893 1.32422 10.4072 0.714844 10.2549ZM11.9531 0.141602C5.42578 0.141602 0 5.55566 0 12.0947C0 18.6221 5.4375 24.0478 11.9648 24.0478C18.5039 24.0478 23.9062 18.6221 23.9062 12.0947C23.9062 5.55566 18.4922 0.141602 11.9531 0.141602ZM11.9531 1.73535C17.6133 1.73535 22.3125 6.43457 22.3125 12.0947C22.3125 17.7549 17.625 22.4541 11.9648 22.4541C6.30469 22.4541 1.59375 17.7549 1.59375 12.0947C1.59375 6.43457 6.29297 1.73535 11.9531 1.73535Z" fill="black" fill-opacity="0.85"/>
</g>
<defs>
<clipPath id="clip0_2207_3163">
<rect width="23.9062" height="23.918" fill="white" transform="translate(0 0.141602)"/>
</clipPath>
</defs>
</svg>
