<svg width="24" height="25" viewBox="0 0 24 25" fill="none" xmlns="http://www.w3.org/2000/svg">
<g clip-path="url(#clip0_2207_12395)">
<path d="M11.9658 24.0478C18.5049 24.0478 23.9189 18.6221 23.9189 12.0947C23.9189 5.55566 18.4932 0.141602 11.9541 0.141602C5.42675 0.141602 0.0126953 5.55566 0.0126953 12.0947C0.0126953 18.6221 5.43848 24.0478 11.9658 24.0478ZM11.9658 22.0557C6.43458 22.0557 2.01661 17.626 2.01661 12.0947C2.01661 6.56348 6.42285 2.13379 11.9541 2.13379C17.4854 2.13379 21.9268 6.56348 21.9268 12.0947C21.9268 17.626 17.4971 22.0557 11.9658 22.0557Z" fill="black" fill-opacity="0.85"/>
<path d="M9.05958 16.9814H18.6572C19.3252 16.9814 19.5127 16.3838 19.2666 15.8799L14.5791 6.49317C14.415 6.2002 14.1572 6.0127 13.8643 6.0127C13.5596 6.0127 13.29 6.18849 13.1611 6.48145L8.46192 15.8799C8.20411 16.3838 8.40332 16.9814 9.05958 16.9814ZM11.1807 16.1143L13.5244 11.1807C13.665 10.8643 14.0283 10.8643 14.2041 11.1807L16.5361 16.1143H14.7197L13.8643 12.3525L12.9971 16.1143H11.1807ZM8.60254 14.3096L7.99317 11.6025L7.34864 14.3096H6.05958L7.74708 10.7588C7.86426 10.4893 8.14551 10.5478 8.23926 10.7588L9.7627 13.9697L10.8408 11.8486L8.59082 7.37208C8.46192 7.12599 8.22754 6.96192 7.99317 6.96192C7.72364 6.96192 7.50098 7.12599 7.37208 7.37208L3.96192 14.2275C3.75098 14.6611 3.91504 15.1885 4.47754 15.1885H9.14161L9.5752 14.3096H8.60254Z" fill="black" fill-opacity="0.85"/>
</g>
<defs>
<clipPath id="clip0_2207_12395">
<rect width="23.9062" height="23.918" fill="white" transform="translate(0.0126953 0.141602)"/>
</clipPath>
</defs>
</svg>
