<svg width="36" height="25" viewBox="0 0 36 25" fill="none" xmlns="http://www.w3.org/2000/svg">
<g clip-path="url(#clip0_2207_12365)">
<path d="M7.15674 24.3408H28.0161C29.481 24.3408 29.8911 23.0166 29.3286 21.9033L23.4575 10.126L33.2075 23.7549C33.5005 24.165 33.8638 24.3057 34.2036 24.3057C34.7075 24.3057 35.1763 24.0127 35.1763 23.3213V19.8174C35.1763 19.3838 34.813 19.0205 34.3794 19.0205C33.9458 19.0205 33.5942 19.3838 33.5942 19.8174V21.6104L19.0044 1.23147C18.2427 0.153345 16.9302 0.176783 16.1685 1.23147L1.59033 21.6104V19.8174C1.59033 19.3838 1.23877 19.0205 0.805176 19.0205C0.359863 19.0205 0.00830078 19.3838 0.00830078 19.8174V23.3213C0.00830078 24.0127 0.477051 24.3057 0.980957 24.3057C1.3208 24.3057 1.68408 24.165 1.97705 23.7549L11.7271 10.126L5.85596 21.9033C5.29346 23.0166 5.69189 24.3408 7.15674 24.3408ZM7.96533 22.5478C7.80127 22.5478 7.75439 22.4072 7.82471 22.2666L17.4341 2.74319C17.5044 2.59085 17.6685 2.59085 17.7505 2.74319L27.3599 22.2666C27.4302 22.4072 27.3716 22.5478 27.2192 22.5478H7.96533ZM11.7622 22.8057H15.688L17.5864 14.4971L19.4849 22.8057H23.4106L18.3013 12.0361C18.1489 11.708 17.8677 11.5439 17.5864 11.5439C17.3052 11.5439 17.0239 11.708 16.8599 12.0361L11.7622 22.8057Z" fill="black" fill-opacity="0.85"/>
</g>
<defs>
<clipPath id="clip0_2207_12365">
<rect width="35.168" height="24.1992" fill="white" transform="translate(0.00830078 0.141602)"/>
</clipPath>
</defs>
</svg>
