<svg width="25" height="25" viewBox="0 0 25 25" fill="none" xmlns="http://www.w3.org/2000/svg">
<g clip-path="url(#clip0_2207_17964)">
<path d="M21.6111 18.9971H15.3885V20.251C15.3885 22.0908 16.6541 23.3682 18.5057 23.3682C20.3455 23.3682 21.6111 22.0908 21.6111 20.251V18.9971Z" fill="black" fill-opacity="0.85"/>
<path d="M13.9587 2.11035H23.0407C23.5798 2.11035 24.0251 1.65332 24.0251 1.11426C24.0251 0.575196 23.5798 0.141602 23.0407 0.141602H13.9587C13.3728 0.141602 12.9626 0.575196 12.9626 1.11426C12.9626 1.65332 13.3728 2.11035 13.9587 2.11035ZM18.5056 24.6924C21.1774 24.6924 22.9587 22.9228 22.9587 20.251V1.12598H21.0837V20.251C21.0837 21.7978 20.0524 22.8291 18.5056 22.8291C16.947 22.8291 15.9157 21.7978 15.9157 20.251V1.12598H14.029V20.251C14.029 22.9228 15.822 24.6924 18.5056 24.6924ZM15.4235 9.01269H18.4821C18.8689 9.01269 19.1618 8.70801 19.1618 8.30957C19.1618 7.94629 18.8454 7.6416 18.4704 7.6416H15.4235V9.01269ZM15.4235 12.8096H18.4821C18.8689 12.8096 19.1618 12.5166 19.1618 12.1182C19.1618 11.7549 18.8571 11.4385 18.4821 11.4385H15.4235V12.8096ZM15.4235 16.6182H18.4704C18.8806 16.6182 19.1618 16.3252 19.1501 15.9268C19.1501 15.5635 18.8454 15.2471 18.4704 15.2471H15.4235V16.6182Z" fill="black" fill-opacity="0.85"/>
<path d="M8.67359 5.2041H2.43921V20.251C2.43921 22.0908 3.71656 23.3682 5.56812 23.3682C7.39624 23.3682 8.67359 22.0908 8.67359 20.251V5.2041Z" fill="black" fill-opacity="0.85"/>
<path d="M1.00952 2.11035H10.0915C10.6306 2.11035 11.0876 1.65332 11.0876 1.11426C11.0876 0.575196 10.6306 0.141602 10.0915 0.141602H1.00952C0.423584 0.141602 0.0251465 0.575196 0.0251465 1.11426C0.0251465 1.65332 0.423584 2.11035 1.00952 2.11035ZM5.56812 24.6924C8.23999 24.6924 10.0095 22.9228 10.0095 20.251V1.12598H8.13453V20.251C8.13453 21.7978 7.10327 22.8291 5.56812 22.8291C4.00953 22.8291 2.97827 21.7978 2.97827 20.251V1.12598H1.09156V20.251C1.09156 22.9228 2.87281 24.6924 5.56812 24.6924Z" fill="black" fill-opacity="0.85"/>
<path d="M2.97827 9.01269V7.6416H5.52124C5.89624 7.6416 6.22437 7.94629 6.22437 8.30957C6.22437 8.70801 5.91968 9.01269 5.53296 9.01269H2.97827ZM2.97827 12.8096V11.4385H5.53296C5.90796 11.4385 6.22437 11.7549 6.22437 12.1182C6.22437 12.5166 5.91968 12.8096 5.53296 12.8096H2.97827ZM2.97827 16.6182V15.2471H5.52124C5.89624 15.2471 6.21265 15.5635 6.21265 15.9268C6.22437 16.3252 5.9314 16.6182 5.52124 16.6182H2.97827Z" fill="white"/>
</g>
<defs>
<clipPath id="clip0_2207_17964">
<rect width="24" height="24.5977" fill="white" transform="translate(0.0251465 0.141602)"/>
</clipPath>
</defs>
</svg>
