<svg width="15" height="18" viewBox="0 0 15 18" fill="none" xmlns="http://www.w3.org/2000/svg">
<g clip-path="url(#clip0_2207_22413)">
<path d="M0.986572 17.4512C1.60767 17.4512 1.91236 17.2168 2.13501 16.5606L3.64673 12.4238H10.5608L12.0725 16.5606C12.2952 17.2168 12.5999 17.4512 13.2092 17.4512C13.8303 17.4512 14.2288 17.0762 14.2288 16.4903C14.2288 16.291 14.1936 16.1035 14.0999 15.8574L8.60376 1.2207C8.33423 0.505859 7.85376 0.142578 7.10376 0.142578C6.3772 0.142578 5.88501 0.49414 5.6272 1.20899L0.131103 15.8692C0.0373535 16.1153 0.00219727 16.3028 0.00219727 16.502C0.00219727 17.0879 0.377197 17.4512 0.986572 17.4512ZM4.22095 10.6426L7.06861 2.75586H7.1272L9.97486 10.6426H4.22095Z" fill="black" fill-opacity="0.85"/>
</g>
<defs>
<clipPath id="clip0_2207_22413">
<rect width="14.2266" height="17.332" fill="white" transform="translate(0.00219727 0.142578)"/>
</clipPath>
</defs>
</svg>
