<svg width="24" height="24" viewBox="0 0 24 24" fill="none" xmlns="http://www.w3.org/2000/svg">
<g clip-path="url(#clip0_2207_18948)">
<path d="M1.02148 7.61816C1.64257 7.61816 1.9707 7.2666 1.9707 6.65722V3.8916C1.9707 2.67285 2.61523 2.05176 3.7871 2.05176H6.62304C7.24414 2.05176 7.58398 1.71191 7.58398 1.10254C7.58398 0.493164 7.24414 0.165039 6.62304 0.165039H3.76367C1.31445 0.165039 0.0839844 1.37207 0.0839844 3.78613V6.65722C0.0839844 7.2666 0.423828 7.61816 1.02148 7.61816ZM22.0801 7.61816C22.7012 7.61816 23.0293 7.2666 23.0293 6.65722V3.78613C23.0293 1.37207 21.7988 0.165039 19.3496 0.165039H16.4785C15.8692 0.165039 15.5293 0.493164 15.5293 1.10254C15.5293 1.71191 15.8692 2.05176 16.4785 2.05176H19.3145C20.4746 2.05176 21.1426 2.67285 21.1426 3.8916V6.65722C21.1426 7.2666 21.4824 7.61816 22.0801 7.61816ZM3.76367 23.0986H6.62304C7.24414 23.0986 7.58398 22.7588 7.58398 22.1611C7.58398 21.5518 7.24414 21.2119 6.62304 21.2119H3.7871C2.61523 21.2119 1.9707 20.5908 1.9707 19.3721V16.6064C1.9707 15.9854 1.63086 15.6455 1.02148 15.6455C0.412109 15.6455 0.0839844 15.9854 0.0839844 16.6064V19.4658C0.0839844 21.8916 1.31445 23.0986 3.76367 23.0986ZM16.4785 23.0986H19.3496C21.7988 23.0986 23.0293 21.8799 23.0293 19.4658V16.6064C23.0293 15.9854 22.6895 15.6455 22.0801 15.6455C21.4707 15.6455 21.1426 15.9854 21.1426 16.6064V19.3721C21.1426 20.5908 20.4746 21.2119 19.3145 21.2119H16.4785C15.8692 21.2119 15.5293 21.5518 15.5293 22.1611C15.5293 22.7588 15.8692 23.0986 16.4785 23.0986Z" fill="black" fill-opacity="0.85"/>
<path d="M5.28711 7.12598C5.28711 7.55957 5.63868 7.91113 6.08399 7.91113H17.0293C17.4629 7.91113 17.8262 7.55957 17.8262 7.12598C17.8262 6.69238 17.4629 6.3291 17.0293 6.3291H6.08399C5.63868 6.3291 5.28711 6.69238 5.28711 7.12598ZM5.28711 11.626C5.28711 12.0596 5.63868 12.4111 6.08399 12.4111H17.0293C17.4629 12.4111 17.8262 12.0596 17.8262 11.626C17.8262 11.1924 17.4629 10.8291 17.0293 10.8291H6.08399C5.63868 10.8291 5.28711 11.1924 5.28711 11.626ZM5.28711 16.126C5.28711 16.5596 5.63868 16.9228 6.08399 16.9228H13.2793C13.7129 16.9228 14.0762 16.5596 14.0762 16.126C14.0762 15.6924 13.7129 15.3408 13.2793 15.3408H6.08399C5.63868 15.3408 5.28711 15.6924 5.28711 16.126Z" fill="black" fill-opacity="0.85"/>
</g>
<defs>
<clipPath id="clip0_2207_18948">
<rect width="22.9453" height="22.957" fill="white" transform="translate(0.0839844 0.141602)"/>
</clipPath>
</defs>
</svg>
