<svg width="21" height="24" viewBox="0 0 21 24" fill="none" xmlns="http://www.w3.org/2000/svg">
<g clip-path="url(#clip0_2207_22436)">
<path d="M0.990723 20.3926C1.61182 20.3926 1.91651 20.1582 2.13916 19.502L3.65088 15.3653H10.5649L12.0766 19.502C12.2993 20.1582 12.604 20.3926 13.2133 20.3926C13.8344 20.3926 14.2329 20.0176 14.2329 19.4317C14.2329 19.2324 14.1977 19.0449 14.104 18.7988L8.60791 4.1621C8.33838 3.44726 7.85791 3.08398 7.10791 3.08398C6.38135 3.08398 5.88916 3.43554 5.63135 4.15038L0.135254 18.8106C0.0415039 19.0567 0.00634766 19.2442 0.00634766 19.4434C0.00634766 20.0293 0.381348 20.3926 0.990723 20.3926ZM4.2251 13.584L7.07276 5.69726H7.13135L9.97901 13.584H4.2251Z" fill="black" fill-opacity="0.85"/>
<path d="M19.9752 23.3574C20.5025 23.3574 20.8423 23.0176 20.8423 22.5254V14.5098C20.8423 13.9238 20.4791 13.5723 19.9048 13.5723C19.3892 13.5723 19.1314 13.7598 18.7916 14.0059L16.9166 15.2832C16.5884 15.5176 16.4478 15.7168 16.4478 15.9746C16.4478 16.3614 16.7408 16.6543 17.1041 16.6543C17.3384 16.6543 17.4908 16.584 17.7252 16.4199L19.0845 15.5059H19.1197V22.5254C19.1197 23.0176 19.4712 23.3574 19.9752 23.3574Z" fill="black" fill-opacity="0.85"/>
</g>
<defs>
<clipPath id="clip0_2207_22436">
<rect width="20.8359" height="23.2148" fill="white" transform="translate(0.00634766 0.142578)"/>
</clipPath>
</defs>
</svg>
