<svg width="23" height="24" viewBox="0 0 23 24" fill="none" xmlns="http://www.w3.org/2000/svg">
<g clip-path="url(#clip0_2207_5724)">
<path d="M0.0776367 9.49316C0.0776367 14.6494 4.27295 18.8447 9.4292 18.8447C11.4682 18.8447 13.3315 18.1885 14.8667 17.0869L20.6323 22.8643C20.9018 23.1338 21.2534 23.2627 21.6284 23.2627C22.4253 23.2627 22.976 22.665 22.976 21.8799C22.976 21.5049 22.8354 21.165 22.5893 20.9189L16.8588 15.1533C18.0659 13.583 18.7807 11.626 18.7807 9.49316C18.7807 4.33691 14.5854 0.141602 9.4292 0.141602C4.27295 0.141602 0.0776367 4.33691 0.0776367 9.49316ZM2.08155 9.49316C2.08155 5.43848 5.37452 2.14551 9.4292 2.14551C13.4838 2.14551 16.7768 5.43848 16.7768 9.49316C16.7768 13.5478 13.4838 16.8408 9.4292 16.8408C5.37452 16.8408 2.08155 13.5478 2.08155 9.49316ZM5.7378 8.74316H13.1674C13.6245 8.74316 13.976 8.37988 13.976 7.92285C13.976 7.46582 13.6245 7.10254 13.1674 7.10254H5.7378C5.26905 7.10254 4.91748 7.46582 4.91748 7.92285C4.91748 8.37988 5.26905 8.74316 5.7378 8.74316ZM5.7378 11.8721H11.1284C11.5854 11.8721 11.9604 11.5205 11.9604 11.0635C11.9604 10.6064 11.5854 10.2314 11.1284 10.2314H5.7378C5.26905 10.2314 4.91748 10.6064 4.91748 11.0635C4.91748 11.5205 5.26905 11.8721 5.7378 11.8721Z" fill="black" fill-opacity="0.85"/>
</g>
<defs>
<clipPath id="clip0_2207_5724">
<rect width="22.8984" height="23.1211" fill="white" transform="translate(0.0776367 0.141602)"/>
</clipPath>
</defs>
</svg>
