<svg width="28" height="22" viewBox="0 0 28 22" fill="none" xmlns="http://www.w3.org/2000/svg">
<g clip-path="url(#clip0_2207_19542)">
<path d="M22.2289 16.7119C23.2133 16.7119 23.8578 16.0557 23.8578 15.0713C23.8578 14.1104 23.2133 13.4658 22.2289 13.4658H21.643V12.2236H22.2289C23.2133 12.2236 23.8578 11.5908 23.8578 10.6299C23.8578 9.64551 23.2133 8.98926 22.2289 8.98926C21.2563 8.98926 20.6234 9.64551 20.6234 10.6299V11.2158H19.4164V10.6299C19.4164 9.64551 18.7836 8.98926 17.8109 8.98926C16.8266 8.98926 16.182 9.64551 16.182 10.6299C16.182 11.5908 16.8266 12.2236 17.8109 12.2236H18.3852V13.4658H17.8109C16.8266 13.4658 16.182 14.1104 16.182 15.0713C16.182 16.0557 16.8266 16.7119 17.8109 16.7119C18.7836 16.7119 19.4164 16.0557 19.4164 15.0713V14.4971H20.6234V15.0713C20.6234 16.0557 21.2563 16.7119 22.2289 16.7119ZM21.643 14.4736H22.2289C22.6039 14.4736 22.8383 14.7197 22.8383 15.0713C22.8383 15.4463 22.6039 15.6924 22.2289 15.6924C21.8774 15.6924 21.643 15.4463 21.643 15.0713V14.4736ZM18.3852 14.4736V15.0713C18.3852 15.4228 18.1391 15.6924 17.8109 15.6924C17.4359 15.6924 17.2016 15.4463 17.2016 15.0713C17.2016 14.7197 17.4359 14.4736 17.8109 14.4736H18.3852ZM20.6234 13.4893H19.4164V12.2236H20.6234V13.4893ZM21.643 11.2158V10.6299C21.643 10.2549 21.8774 10.0088 22.2289 10.0088C22.6039 10.0088 22.8383 10.2549 22.8383 10.6299C22.8383 10.9814 22.6039 11.2158 22.2289 11.2158H21.643ZM18.3852 11.2158H17.8109C17.4359 11.2158 17.2016 10.9814 17.2016 10.6299C17.2016 10.2549 17.4359 10.0088 17.8109 10.0088C18.1508 10.0088 18.3852 10.2549 18.3852 10.6299V11.2158ZM4.59216 9.96191C4.59216 10.3486 4.90857 10.6533 5.28357 10.6533H12.432C12.807 10.6533 13.1117 10.3486 13.1117 9.96191C13.1117 9.57519 12.807 9.25879 12.432 9.25879H5.28357C4.90857 9.25879 4.59216 9.57519 4.59216 9.96191ZM4.59216 12.8564C4.59216 13.2432 4.90857 13.5596 5.28357 13.5596H12.432C12.807 13.5596 13.1117 13.2432 13.1117 12.8564C13.1117 12.4697 12.807 12.165 12.432 12.165H5.28357C4.90857 12.165 4.59216 12.4697 4.59216 12.8564ZM4.59216 15.7627C4.59216 16.1494 4.90857 16.4541 5.28357 16.4541H12.432C12.807 16.4541 13.1117 16.1494 13.1117 15.7627C13.1117 15.3643 12.807 15.0596 12.432 15.0596H5.28357C4.90857 15.0596 4.59216 15.3643 4.59216 15.7627ZM0.0335693 18.1064C0.0335693 20.5322 1.26404 21.7393 3.71326 21.7393H23.9867C26.4477 21.7393 27.6664 20.5205 27.6664 18.1064V3.79785C27.6664 1.38379 26.4477 0.165039 23.9867 0.165039H3.71326C1.26404 0.165039 0.0335693 1.37207 0.0335693 3.79785V18.1064ZM3.74841 4.16113C3.17419 4.16113 2.70545 3.66894 2.70545 3.11816C2.70545 2.56738 3.17419 2.07519 3.74841 2.07519C4.32263 2.07519 4.8031 2.56738 4.8031 3.11816C4.8031 3.66894 4.32263 4.16113 3.74841 4.16113ZM7.11169 4.16113C6.53748 4.16113 6.06873 3.66894 6.06873 3.11816C6.06873 2.56738 6.53748 2.07519 7.11169 2.07519C7.68591 2.07519 8.16638 2.56738 8.16638 3.11816C8.16638 3.66894 7.68591 4.16113 7.11169 4.16113ZM10.475 4.16113C9.90076 4.16113 9.43201 3.66894 9.43201 3.11816C9.43201 2.56738 9.90076 2.07519 10.475 2.07519C11.0492 2.07519 11.518 2.56738 11.518 3.11816C11.518 3.66894 11.0492 4.16113 10.475 4.16113ZM1.92029 18.0127V6.07129H25.7797V18.0127C25.7797 19.2314 25.1234 19.8525 23.9633 19.8525H3.73669C2.56482 19.8525 1.92029 19.2314 1.92029 18.0127Z" fill="black" fill-opacity="0.85"/>
</g>
<defs>
<clipPath id="clip0_2207_19542">
<rect width="27.6328" height="21.5977" fill="white" transform="translate(0.0335693 0.141602)"/>
</clipPath>
</defs>
</svg>
