<svg width="24" height="21" viewBox="0 0 24 21" fill="none" xmlns="http://www.w3.org/2000/svg">
<g clip-path="url(#clip0_2207_22323)">
<path d="M0.946045 1.91113H22.778C23.2702 1.91113 23.6804 1.52441 23.6804 1.02051C23.6804 0.528321 23.2702 0.141602 22.778 0.141602H0.946045C0.453858 0.141602 0.0671387 0.528321 0.0671387 1.02051C0.0671387 1.52441 0.453858 1.91113 0.946045 1.91113ZM0.946045 8.05176H22.778C23.2702 8.05176 23.6804 7.66504 23.6804 7.16113C23.6804 6.66894 23.2702 6.28222 22.778 6.28222H0.946045C0.453858 6.28222 0.0671387 6.66894 0.0671387 7.16113C0.0671387 7.66504 0.453858 8.05176 0.946045 8.05176ZM0.946045 14.1924H22.778C23.2702 14.1924 23.6804 13.7939 23.6804 13.3018C23.6804 12.8096 23.2702 12.4228 22.778 12.4228H0.946045C0.453858 12.4228 0.0671387 12.8096 0.0671387 13.3018C0.0671387 13.7939 0.453858 14.1924 0.946045 14.1924ZM0.946045 20.3213H13.4851C13.9773 20.3213 14.3757 19.9346 14.3757 19.4424C14.3757 18.9502 13.9773 18.5518 13.4851 18.5518H0.946045C0.453858 18.5518 0.0671387 18.9502 0.0671387 19.4424C0.0671387 19.9346 0.453858 20.3213 0.946045 20.3213Z" fill="black" fill-opacity="0.85"/>
</g>
<defs>
<clipPath id="clip0_2207_22323">
<rect width="23.6133" height="20.2617" fill="white" transform="translate(0.0671387 0.141602)"/>
</clipPath>
</defs>
</svg>
