<svg width="24" height="21" viewBox="0 0 24 21" fill="none" xmlns="http://www.w3.org/2000/svg">
<g clip-path="url(#clip0_2207_22311)">
<path d="M0.90625 1.91113H22.7382C23.2304 1.91113 23.6406 1.52441 23.6406 1.02051C23.6406 0.528321 23.2304 0.141602 22.7382 0.141602H0.90625C0.414063 0.141602 0.0273438 0.528321 0.0273438 1.02051C0.0273438 1.52441 0.414063 1.91113 0.90625 1.91113ZM5.24218 8.05176H18.414C18.9062 8.05176 19.3046 7.66504 19.3046 7.16113C19.3046 6.66894 18.9062 6.28222 18.414 6.28222H5.24218C4.73828 6.28222 4.35156 6.66894 4.35156 7.16113C4.35156 7.66504 4.73828 8.05176 5.24218 8.05176ZM0.90625 14.1924H22.7382C23.2304 14.1924 23.6406 13.7939 23.6406 13.3018C23.6406 12.8096 23.2304 12.4228 22.7382 12.4228H0.90625C0.414063 12.4228 0.0273438 12.8096 0.0273438 13.3018C0.0273438 13.7939 0.414063 14.1924 0.90625 14.1924ZM5.24218 20.3213H18.414C18.9062 20.3213 19.3046 19.9346 19.3046 19.4424C19.3046 18.9502 18.9062 18.5518 18.414 18.5518H5.24218C4.73828 18.5518 4.35156 18.9502 4.35156 19.4424C4.35156 19.9346 4.73828 20.3213 5.24218 20.3213Z" fill="black" fill-opacity="0.85"/>
</g>
<defs>
<clipPath id="clip0_2207_22311">
<rect width="23.6133" height="20.2617" fill="white" transform="translate(0.0273438 0.141602)"/>
</clipPath>
</defs>
</svg>
