<svg width="24" height="21" viewBox="0 0 24 21" fill="none" xmlns="http://www.w3.org/2000/svg">
<g clip-path="url(#clip0_2207_22319)">
<path d="M0.941894 1.91113H22.7739C23.2661 1.91113 23.6763 1.52441 23.6763 1.02051C23.6763 0.528321 23.2661 0.141602 22.7739 0.141602H0.941894C0.449707 0.141602 0.0629883 0.528321 0.0629883 1.02051C0.0629883 1.52441 0.449707 1.91113 0.941894 1.91113ZM0.941894 8.05176H22.7739C23.2661 8.05176 23.6763 7.66504 23.6763 7.16113C23.6763 6.66894 23.2661 6.28222 22.7739 6.28222H0.941894C0.449707 6.28222 0.0629883 6.66894 0.0629883 7.16113C0.0629883 7.66504 0.449707 8.05176 0.941894 8.05176ZM0.941894 14.1924H22.7739C23.2661 14.1924 23.6763 13.7939 23.6763 13.3018C23.6763 12.8096 23.2661 12.4228 22.7739 12.4228H0.941894C0.449707 12.4228 0.0629883 12.8096 0.0629883 13.3018C0.0629883 13.7939 0.449707 14.1924 0.941894 14.1924ZM0.941894 20.3213H22.7739C23.2661 20.3213 23.6763 19.9346 23.6763 19.4424C23.6763 18.9502 23.2661 18.5518 22.7739 18.5518H0.941894C0.449707 18.5518 0.0629883 18.9502 0.0629883 19.4424C0.0629883 19.9346 0.449707 20.3213 0.941894 20.3213Z" fill="black" fill-opacity="0.85"/>
</g>
<defs>
<clipPath id="clip0_2207_22319">
<rect width="23.6133" height="20.2617" fill="white" transform="translate(0.0629883 0.141602)"/>
</clipPath>
</defs>
</svg>
