<svg width="26" height="26" viewBox="0 0 26 26" fill="none" xmlns="http://www.w3.org/2000/svg">
<g clip-path="url(#clip0_2207_9188)">
<path d="M7.26367 25.8877C7.83789 25.8877 8.23633 25.583 8.95117 24.9502L12.9941 21.3525H20.5175C24.0097 21.3525 25.8847 19.4189 25.8847 15.9854V7.00879C25.8847 3.57519 24.0097 1.6416 20.5175 1.6416H5.42383C1.93164 1.6416 0.0566406 3.56348 0.0566406 7.00879V15.9854C0.0566406 19.4307 1.93164 21.3525 5.42383 21.3525H5.98633V24.3994C5.98633 25.3018 6.44336 25.8877 7.26367 25.8877ZM7.74414 23.7432V20.3447C7.74414 19.7119 7.49805 19.4658 6.86523 19.4658H5.42383C3.05664 19.4658 1.94336 18.2588 1.94336 15.9736V7.00879C1.94336 4.72363 3.05664 3.52832 5.42383 3.52832H20.5175C22.873 3.52832 23.998 4.72363 23.998 7.00879V15.9736C23.998 18.2588 22.873 19.4658 20.5175 19.4658H12.9238C12.2675 19.4658 11.9394 19.5596 11.4941 20.0166L7.74414 23.7432Z" fill="black" fill-opacity="0.85"/>
<path d="M6.93555 8.26269H18.8652C19.2402 8.26269 19.5332 7.96972 19.5332 7.58301C19.5332 7.21972 19.2402 6.91504 18.8652 6.91504H6.93555C6.56055 6.91504 6.25586 7.21972 6.25586 7.58301C6.25586 7.96972 6.56055 8.26269 6.93555 8.26269ZM6.93555 12.083H18.8652C19.2402 12.083 19.5332 11.7783 19.5332 11.3916C19.5332 11.0283 19.2402 10.7236 18.8652 10.7236H6.93555C6.56055 10.7236 6.25586 11.0283 6.25586 11.3916C6.25586 11.7783 6.56055 12.083 6.93555 12.083ZM6.93555 15.8916H14.6933C15.0683 15.8916 15.3613 15.5986 15.3613 15.2236C15.3613 14.8369 15.0683 14.5322 14.6933 14.5322H6.93555C6.56055 14.5322 6.25586 14.8369 6.25586 15.2236C6.25586 15.5986 6.56055 15.8916 6.93555 15.8916Z" fill="black" fill-opacity="0.85"/>
</g>
<defs>
<clipPath id="clip0_2207_9188">
<rect width="25.8281" height="25.7461" fill="white" transform="translate(0.0566406 0.141602)"/>
</clipPath>
</defs>
</svg>
