<svg width="20" height="26" viewBox="0 0 20 26" fill="none" xmlns="http://www.w3.org/2000/svg">
<g clip-path="url(#clip0_2207_1579)">
<path d="M6.95483 7.65332H15.7439C16.1658 7.65332 16.5056 7.30176 16.5056 6.87988C16.5056 6.45801 16.1658 6.11816 15.7439 6.11816H6.95483C6.53296 6.11816 6.19311 6.45801 6.19311 6.87988C6.19311 7.30176 6.53296 7.65332 6.95483 7.65332ZM6.95483 10.876H13.6228C14.0447 10.876 14.3845 10.5244 14.3845 10.1025C14.3845 9.68066 14.0447 9.34082 13.6228 9.34082H6.95483C6.53296 9.34082 6.19311 9.68066 6.19311 10.1025C6.19311 10.5244 6.53296 10.876 6.95483 10.876ZM3.65015 25.2549H18.8259C19.3416 25.2549 19.7634 24.8447 19.7634 24.3174C19.7634 23.9072 19.4822 23.5439 19.1072 23.415C17.6306 22.8291 17.3259 20.9189 18.7791 19.4541C19.2244 19.0088 19.7634 18.4346 19.7634 17.2627V3.82129C19.7634 1.38379 18.5564 0.141602 16.1306 0.141602H3.6853C1.25952 0.141602 0.0524902 1.37207 0.0524902 3.82129V21.6338C0.0524902 24.0478 1.27124 25.2549 3.65015 25.2549ZM1.93921 18.4814V3.85644C1.93921 2.68457 2.5603 2.02832 3.76733 2.02832H16.0369C17.2556 2.02832 17.8767 2.68457 17.8767 3.85644V17.0049C17.8767 17.6377 17.5134 18.001 16.8572 18.001H3.84937C3.08765 18.001 2.45483 18.165 1.93921 18.4814ZM3.75561 23.3682C2.57202 23.3682 1.93921 22.7354 1.93921 21.6221C1.93921 20.5674 2.68921 19.8877 3.86108 19.8877H15.8845C16.0369 19.8877 16.1775 19.876 16.2947 19.8525C15.7439 21.0713 15.8377 22.3604 16.4587 23.3682H3.75561ZM3.32202 19.0088H4.85718V1.57129H3.32202V19.0088Z" fill="black" fill-opacity="0.85"/>
</g>
<defs>
<clipPath id="clip0_2207_1579">
<rect width="19.7109" height="25.1133" fill="white" transform="translate(0.0524902 0.141602)"/>
</clipPath>
</defs>
</svg>
