<svg width="24" height="25" viewBox="0 0 24 25" fill="none" xmlns="http://www.w3.org/2000/svg">
<g clip-path="url(#clip0_2207_10754)">
<path d="M11.9719 24.0606C18.511 24.0606 23.925 18.6465 23.925 12.1074C23.925 5.58008 18.4993 0.154297 11.9602 0.154297C5.43286 0.154297 0.0187988 5.58008 0.0187988 12.1074C0.0187988 18.6465 5.44458 24.0606 11.9719 24.0606Z" fill="black" fill-opacity="0.85"/>
<path d="M10.4719 16.4786C7.91724 17.1583 5.98364 15.9865 5.2688 13.3263L4.31958 9.69347C4.05005 8.69738 4.40161 8.06457 5.39771 7.80675L10.5422 6.43566C11.5149 6.18957 12.1594 6.54113 12.429 7.51378L13.4016 11.1349C14.1282 13.8068 13.0149 15.7872 10.4719 16.4786ZM9.97974 14.6154C11.0696 14.3341 11.7844 13.4904 11.8196 12.4591C11.843 12.2482 11.679 12.1544 11.4915 12.2716C10.9172 12.67 10.1672 12.9747 9.5813 13.1271C8.99536 13.2911 8.18677 13.4083 7.48364 13.3497C7.28442 13.338 7.17896 13.4786 7.29614 13.6661C7.84692 14.5333 8.90161 14.9083 9.97974 14.6154ZM7.36646 11.2286C7.71802 11.1115 7.90552 11.3224 8.10474 11.2638C8.18677 11.2286 8.22192 11.0997 8.18677 10.9474C8.03442 10.5255 7.60083 10.256 7.1438 10.3732C6.69849 10.4786 6.40552 10.9474 6.55786 11.4044C6.60474 11.5333 6.68677 11.6388 6.75708 11.6154C6.94458 11.5919 6.97974 11.3341 7.36646 11.2286ZM10.5305 10.3732C10.8821 10.256 11.0696 10.4669 11.2688 10.42C11.3274 10.3732 11.3977 10.256 11.3391 10.1153C11.2336 9.6466 10.7649 9.41222 10.3079 9.50597C9.86255 9.61144 9.5813 10.1153 9.69849 10.5372C9.75708 10.6661 9.85083 10.7716 9.92114 10.7482C10.0969 10.7247 10.1555 10.4669 10.5305 10.3732ZM18.8508 9.16613C19.8352 9.41222 20.1985 10.0567 19.929 11.0294L18.968 14.6505C18.2532 17.3107 16.3196 18.4825 13.7649 17.8146C13.0383 17.6154 12.4055 17.2989 11.9368 16.8888C12.8274 16.4318 13.5071 15.7755 13.929 14.9786C14.1047 15.0021 14.2922 15.0372 14.468 15.0958C15.0188 15.2482 15.4758 15.4825 15.9797 15.9396C16.1204 16.1036 16.3196 16.0099 16.3196 15.7872C16.2844 14.9669 15.6633 14.2638 14.7493 14.0411C14.6321 14.006 14.4797 13.9943 14.3626 13.9708C14.6086 13.0568 14.5969 12.0138 14.2805 10.9005L13.425 7.713C13.5071 7.72472 13.6126 7.73644 13.7063 7.78331L18.8508 9.16613ZM16.6594 13.0919C17.011 13.1974 17.3743 12.9747 17.4797 12.6232C17.5735 12.2716 17.3743 11.9083 17.011 11.8146C16.6477 11.7208 16.2844 11.92 16.2024 12.2716C16.0969 12.6349 16.3079 13.0216 16.6594 13.0919Z" fill="white"/>
</g>
<defs>
<clipPath id="clip0_2207_10754">
<rect width="23.9062" height="23.918" fill="white" transform="translate(0.0187988 0.142578)"/>
</clipPath>
</defs>
</svg>
