<svg width="16" height="27" viewBox="0 0 16 27" fill="none" xmlns="http://www.w3.org/2000/svg">
<g clip-path="url(#clip0_2207_4831)">
<path d="M12.0411 4.44335H14.5841C14.9942 4.44335 15.2755 4.12695 15.2755 3.76366C15.2755 3.40038 14.9942 3.08398 14.5841 3.08398H12.0411C11.631 3.08398 11.3497 3.40038 11.3497 3.76366C11.3497 4.12695 11.631 4.44335 12.0411 4.44335ZM12.0411 7.73632H14.5841C14.9942 7.73632 15.2755 7.41991 15.2755 7.05663C15.2755 6.69335 14.9942 6.37695 14.5841 6.37695H12.0411C11.631 6.37695 11.3497 6.69335 11.3497 7.05663C11.3497 7.41991 11.631 7.73632 12.0411 7.73632ZM12.0411 11.0293H14.5841C14.9942 11.0293 15.2755 10.7129 15.2755 10.3496C15.2755 9.98632 14.9942 9.65819 14.5841 9.65819H12.0411C11.631 9.65819 11.3497 9.98632 11.3497 10.3496C11.3497 10.7129 11.631 11.0293 12.0411 11.0293ZM12.0411 14.3223H14.5841C14.9942 14.3223 15.2755 14.0059 15.2755 13.6426C15.2755 13.2676 14.9942 12.9512 14.5841 12.9512H12.0411C11.631 12.9512 11.3497 13.2676 11.3497 13.6426C11.3497 14.0059 11.631 14.3223 12.0411 14.3223Z" fill="black" fill-opacity="0.85"/>
<path d="M6.17004 26.1817C9.54504 26.1817 12.2755 23.4395 12.2755 20.0645C12.2755 18.2832 11.5489 16.7246 10.1427 15.459C9.89661 15.2364 9.83801 15.0957 9.83801 14.7442V4.15039C9.83801 1.77149 8.34973 0.142578 6.17004 0.142578C3.96692 0.142578 2.46692 1.77149 2.46692 4.15039V14.7442C2.46692 15.0957 2.42004 15.2364 2.16223 15.459C0.7677 16.7246 0.0294189 18.2832 0.0294189 20.0645C0.0294189 23.4395 2.77161 26.1817 6.17004 26.1817ZM6.17004 24.4824C3.72083 24.4824 1.75208 22.4903 1.75208 20.0645C1.75208 18.5996 2.44348 17.2754 3.68567 16.4434C4.04895 16.1973 4.18958 15.9746 4.18958 15.4942V4.2207C4.18958 2.81446 4.99817 1.86524 6.17004 1.86524C7.31848 1.86524 8.12708 2.81446 8.12708 4.2207V15.4942C8.12708 15.9746 8.2677 16.1973 8.63098 16.4434C9.87317 17.2754 10.5646 18.5996 10.5646 20.0645C10.5646 22.4903 8.58411 24.4824 6.17004 24.4824Z" fill="black" fill-opacity="0.85"/>
<path d="M6.15833 22.9004C7.72864 22.9004 8.99426 21.6348 8.99426 20.0528C8.99426 18.9512 8.37317 18.0488 7.47083 17.5567C7.09583 17.3574 6.96692 17.2168 6.96692 16.6426V14.4746C6.96692 13.9121 6.60364 13.5488 6.15833 13.5488C5.7013 13.5488 5.34973 13.9121 5.34973 14.4746V16.6426C5.34973 17.2168 5.22083 17.3574 4.84583 17.5567C3.94348 18.0488 3.32239 18.9512 3.32239 20.0528C3.32239 21.6348 4.58801 22.9004 6.15833 22.9004Z" fill="black" fill-opacity="0.85"/>
</g>
<defs>
<clipPath id="clip0_2207_4831">
<rect width="15.2461" height="26.0742" fill="white" transform="translate(0.0294189 0.142578)"/>
</clipPath>
</defs>
</svg>
