<svg width="16" height="27" viewBox="0 0 16 27" fill="none" xmlns="http://www.w3.org/2000/svg">
<g clip-path="url(#clip0_2207_4843)">
<path d="M12.0391 4.44335H14.5821C14.9922 4.44335 15.2735 4.12695 15.2735 3.76366C15.2735 3.40038 14.9922 3.08398 14.5821 3.08398H12.0391C11.629 3.08398 11.3477 3.40038 11.3477 3.76366C11.3477 4.12695 11.629 4.44335 12.0391 4.44335ZM12.0391 7.73632H14.5821C14.9922 7.73632 15.2735 7.41991 15.2735 7.05663C15.2735 6.69335 14.9922 6.37695 14.5821 6.37695H12.0391C11.629 6.37695 11.3477 6.69335 11.3477 7.05663C11.3477 7.41991 11.629 7.73632 12.0391 7.73632ZM12.0391 11.0293H14.5821C14.9922 11.0293 15.2735 10.7129 15.2735 10.3496C15.2735 9.98632 14.9922 9.65819 14.5821 9.65819H12.0391C11.629 9.65819 11.3477 9.98632 11.3477 10.3496C11.3477 10.7129 11.629 11.0293 12.0391 11.0293ZM12.0391 14.3223H14.5821C14.9922 14.3223 15.2735 14.0059 15.2735 13.6426C15.2735 13.2676 14.9922 12.9512 14.5821 12.9512H12.0391C11.629 12.9512 11.3477 13.2676 11.3477 13.6426C11.3477 14.0059 11.629 14.3223 12.0391 14.3223Z" fill="black" fill-opacity="0.85"/>
<path d="M6.16796 26.1817C9.54296 26.1817 12.2734 23.4395 12.2734 20.0645C12.2734 18.2832 11.5468 16.7246 10.1406 15.459C9.89453 15.2364 9.83593 15.0957 9.83593 14.7442L9.84765 4.15039C9.84765 1.77149 8.34765 0.142578 6.16796 0.142578C3.96484 0.142578 2.45312 1.77149 2.45312 4.15039L2.46484 14.7442C2.46484 15.0957 2.41796 15.2364 2.16015 15.459C0.765625 16.7246 0.0273438 18.2832 0.0273438 20.0645C0.0273438 23.4395 2.76953 26.1817 6.16796 26.1817ZM6.16796 24.4824C3.71875 24.4824 1.75 22.4903 1.75 20.0645C1.75 18.5996 2.4414 17.2754 3.68359 16.4434C4.04687 16.1973 4.1875 15.9746 4.1875 15.4942V4.2207C4.1875 2.81446 4.99609 1.86524 6.16796 1.86524C7.3164 1.86524 8.125 2.81446 8.125 4.2207V15.4942C8.125 15.9746 8.26562 16.1973 8.6289 16.4434C9.87109 17.2754 10.5625 18.5996 10.5625 20.0645C10.5625 22.4903 8.58203 24.4824 6.16796 24.4824Z" fill="black" fill-opacity="0.85"/>
<path d="M6.15625 22.9004C7.72656 22.9004 8.99218 21.6348 8.99218 20.0528C8.99218 18.9512 8.37109 18.0488 7.46875 17.5567C7.09375 17.3574 6.96484 17.2168 6.96484 16.6426V3.95117C6.96484 3.38867 6.60156 3.02539 6.15625 3.02539C5.69922 3.02539 5.34765 3.38867 5.34765 3.95117V16.6426C5.34765 17.2168 5.21875 17.3574 4.84375 17.5567C3.9414 18.0488 3.32031 18.9512 3.32031 20.0528C3.32031 21.6348 4.58593 22.9004 6.15625 22.9004Z" fill="black" fill-opacity="0.85"/>
</g>
<defs>
<clipPath id="clip0_2207_4843">
<rect width="15.2461" height="26.0742" fill="white" transform="translate(0.0273438 0.142578)"/>
</clipPath>
</defs>
</svg>
