<svg width="25" height="30" viewBox="0 0 25 30" fill="none" xmlns="http://www.w3.org/2000/svg">
<g clip-path="url(#clip0_2207_16275)">
<path d="M0.0231934 22.2207C0.0231934 22.6778 0.386474 23.041 0.855224 23.041H0.913818C4.55835 23.041 4.87475 20.6621 6.77319 20.6621C8.63647 20.6621 9.14038 23.041 12.3396 23.041C15.5271 23.041 16.0427 20.6621 17.906 20.6621C19.8044 20.6621 20.1091 23.041 23.7654 23.041H23.824C24.281 23.041 24.656 22.6778 24.656 22.2207C24.656 21.7637 24.281 21.3887 23.824 21.3887H23.7654C22.4998 21.3887 21.7966 20.8731 20.9177 20.2403C20.156 19.6895 19.2068 19.0098 17.906 19.0098C16.5584 19.0098 15.5974 19.7364 14.8357 20.2988C14.0271 20.9082 13.3826 21.3887 12.3396 21.3887C11.2849 21.3887 10.6521 20.9082 9.8435 20.2988C9.08178 19.7364 8.12085 19.0098 6.77319 19.0098C5.47241 19.0098 4.52319 19.6895 3.76147 20.2403C2.88257 20.8731 2.16772 21.3887 0.913818 21.3887H0.855224C0.386474 21.3887 0.0231934 21.7637 0.0231934 22.2207ZM0.0231934 27.4824C0.0231934 27.9395 0.386474 28.3028 0.855224 28.3028H0.913818C4.55835 28.3028 4.87475 25.9238 6.77319 25.9238C8.63647 25.9238 9.14038 28.3028 12.3396 28.3028C15.5271 28.3028 16.0427 25.9238 17.906 25.9238C19.8044 25.9238 20.1091 28.3028 23.7654 28.3028H23.824C24.281 28.3028 24.656 27.9395 24.656 27.4824C24.656 27.0254 24.281 26.6504 23.824 26.6504H23.7654C22.4998 26.6504 21.7966 26.1348 20.9177 25.502C20.156 24.9512 19.2068 24.2715 17.906 24.2715C16.5584 24.2715 15.5974 24.9981 14.8357 25.5606C14.0271 26.1817 13.3826 26.6504 12.3396 26.6504C11.2849 26.6504 10.6521 26.1817 9.8435 25.5606C9.08178 24.9981 8.12085 24.2715 6.77319 24.2715C5.47241 24.2715 4.52319 24.9512 3.76147 25.502C2.88257 26.1348 2.16772 26.6504 0.913818 26.6504H0.855224C0.386474 26.6504 0.0231934 27.0254 0.0231934 27.4824Z" fill="black" fill-opacity="0.85"/>
<path d="M12.3396 24.6114C15.3748 24.6114 17.824 22.1621 17.824 19.127C17.824 17.0293 16.6052 15.3887 15.2107 14.5332V3.00196C15.2107 1.43164 13.9216 0.142578 12.3513 0.142578C10.7693 0.142578 9.48022 1.43164 9.48022 3.00196V14.4746C8.06225 15.3418 6.87866 17.0293 6.87866 19.127C6.87866 22.1621 9.31616 24.6114 12.3396 24.6114Z" fill="white"/>
<path d="M12.3396 23.0059C14.4959 23.0059 16.2185 21.2832 16.2185 19.127C16.2185 17.627 15.363 16.4317 14.2263 15.7988C13.8044 15.5645 13.617 15.2246 13.617 14.6153V3.00196C13.617 2.31055 13.0427 1.73633 12.3513 1.73633C11.6482 1.73633 11.0857 2.31055 11.0857 3.00196V14.6153C11.0857 15.2012 10.8748 15.5293 10.4412 15.7754C9.31616 16.4082 8.47241 17.627 8.47241 19.127C8.47241 21.2832 10.1951 23.0059 12.3396 23.0059ZM16.8044 4.2793H19.3474C19.7576 4.2793 20.0388 3.96289 20.0388 3.59961C20.0388 3.23633 19.7576 2.9082 19.3474 2.9082H16.8044C16.3943 2.9082 16.113 3.23633 16.113 3.59961C16.113 3.96289 16.3943 4.2793 16.8044 4.2793ZM16.8044 7.57227H19.3474C19.7576 7.57227 20.0388 7.24414 20.0388 6.88086C20.0388 6.51758 19.7576 6.20117 19.3474 6.20117H16.8044C16.3943 6.20117 16.113 6.51758 16.113 6.88086C16.113 7.24414 16.3943 7.57227 16.8044 7.57227ZM16.8044 10.8535H19.3474C19.7576 10.8535 20.0388 10.5371 20.0388 10.1738C20.0388 9.81055 19.7576 9.49414 19.3474 9.49414H16.8044C16.3943 9.49414 16.113 9.81055 16.113 10.1738C16.113 10.5371 16.3943 10.8535 16.8044 10.8535ZM16.8044 14.1465H19.3474C19.7576 14.1465 20.0388 13.8301 20.0388 13.4668C20.0388 13.1035 19.7576 12.7871 19.3474 12.7871H16.8044C16.3943 12.7871 16.113 13.1035 16.113 13.4668C16.113 13.8301 16.3943 14.1465 16.8044 14.1465Z" fill="black" fill-opacity="0.85"/>
</g>
<defs>
<clipPath id="clip0_2207_16275">
<rect width="24.6328" height="29.7773" fill="white" transform="translate(0.0231934 0.142578)"/>
</clipPath>
</defs>
</svg>
