<svg width="30" height="21" viewBox="0 0 30 21" fill="none" xmlns="http://www.w3.org/2000/svg">
<g clip-path="url(#clip0_2207_18394)">
<path d="M0.0588379 15.6934C0.0588379 16.2324 0.269776 16.5723 0.738526 16.7949C2.03931 17.4395 2.76587 18.1778 3.57446 19.7715C3.82056 20.2051 4.18384 20.4278 4.66431 20.4278H24.4338C24.9026 20.4278 25.2658 20.2051 25.5119 19.7715C26.3205 18.1778 27.0471 17.4395 28.3596 16.7949C28.8283 16.5723 29.0393 16.2324 29.0393 15.6934V4.88867C29.0393 4.33789 28.8283 3.99805 28.3596 3.78711C27.0471 3.14258 26.3205 2.39258 25.5119 0.810547C25.2658 0.365234 24.9026 0.142578 24.4338 0.142578H4.66431C4.18384 0.142578 3.82056 0.365234 3.57446 0.810547C2.76587 2.39258 2.03931 3.14258 0.738526 3.78711C0.269776 3.99805 0.0588379 4.33789 0.0588379 4.88867V15.6934ZM1.94556 15.4238V5.1582C3.36353 4.57227 4.27759 3.62305 5.01587 2.0293H24.0822C24.8088 3.62305 25.7346 4.57227 27.1526 5.1582V15.4238C25.7346 16.0098 24.8088 16.959 24.0822 18.541H5.01587C4.27759 16.959 3.36353 16.0098 1.94556 15.4238ZM5.16822 15.4707C5.16822 16.0918 5.59009 16.502 6.19946 16.502H22.8869C23.508 16.502 23.9182 16.0918 23.9182 15.4707V5.11133C23.9182 4.50196 23.508 4.08008 22.8869 4.08008H6.19946C5.59009 4.08008 5.16822 4.50196 5.16822 5.11133V15.4707ZM6.58618 14.8262V12.834H8.13306V15.084H6.85572C6.67993 15.084 6.58618 15.002 6.58618 14.8262ZM6.58618 11.416V9.17774H8.13306V11.416H6.58618ZM6.58618 7.75977V5.75586C6.58618 5.5918 6.67993 5.49805 6.85572 5.49805H8.13306V7.75977H6.58618ZM20.965 7.75977V5.49805H22.2424C22.4182 5.49805 22.5002 5.5918 22.5002 5.75586V7.75977H20.965ZM20.965 11.416V9.17774H22.5002V11.416H20.965ZM20.965 15.084V12.834H22.5002V14.8262C22.5002 15.002 22.4182 15.084 22.2424 15.084H20.965ZM9.55103 15.084V5.49805H19.5471V15.084H9.55103Z" fill="black" fill-opacity="0.85"/>
</g>
<defs>
<clipPath id="clip0_2207_18394">
<rect width="28.9805" height="20.3086" fill="white" transform="translate(0.0588379 0.142578)"/>
</clipPath>
</defs>
</svg>
