<svg width="30" height="21" viewBox="0 0 30 21" fill="none" xmlns="http://www.w3.org/2000/svg">
<g clip-path="url(#clip0_2207_18398)">
<path d="M0.0610352 15.6934C0.0610352 16.2324 0.271973 16.5723 0.740723 16.7949C2.04151 17.4395 2.76807 18.1778 3.57666 19.7715C3.82276 20.2051 4.18604 20.4278 4.66651 20.4278H24.436C24.9048 20.4278 25.268 20.2051 25.5141 19.7715C26.3227 18.1778 27.0493 17.4395 28.3618 16.7949C28.8305 16.5723 29.0415 16.2324 29.0415 15.6934V4.88867C29.0415 4.33789 28.8305 3.99805 28.3618 3.78711C27.0493 3.14258 26.3227 2.39258 25.5141 0.810547C25.268 0.365234 24.9048 0.142578 24.436 0.142578H4.66651C4.18604 0.142578 3.82276 0.365234 3.57666 0.810547C2.76807 2.39258 2.04151 3.14258 0.740723 3.78711C0.271973 3.99805 0.0610352 4.33789 0.0610352 4.88867V15.6934ZM4.87745 15.6348V4.94727C4.87745 4.31446 5.31104 3.88086 5.94385 3.88086H23.1469C23.7915 3.88086 24.2133 4.31446 24.2133 4.94727V15.6348C24.2133 16.2793 23.7915 16.7012 23.1469 16.7012H5.94385C5.31104 16.7012 4.87745 16.2793 4.87745 15.6348ZM6.36573 7.67774H7.93604V5.3457H6.62354C6.44776 5.3457 6.36573 5.45117 6.36573 5.61524V7.67774ZM6.36573 11.4512H7.93604V9.14258H6.36573V11.4512ZM6.36573 14.9668C6.36573 15.1426 6.44776 15.2364 6.62354 15.2364H7.93604V12.916H6.36573V14.9668ZM21.1665 7.67774H22.7368V5.61524C22.7368 5.45117 22.6548 5.3457 22.479 5.3457H21.1665V7.67774ZM21.1665 11.4512H22.7368V9.14258H21.1665V11.4512ZM21.1665 15.2364H22.479C22.6548 15.2364 22.7368 15.1426 22.7368 14.9668V12.916H21.1665V15.2364ZM9.41259 15.2364H19.6899V5.3457H9.41259V15.2364Z" fill="black" fill-opacity="0.85"/>
</g>
<defs>
<clipPath id="clip0_2207_18398">
<rect width="28.9805" height="20.3086" fill="white" transform="translate(0.0610352 0.142578)"/>
</clipPath>
</defs>
</svg>
