<svg width="24" height="24" viewBox="0 0 24 24" fill="none" xmlns="http://www.w3.org/2000/svg">
<g clip-path="url(#clip0_2207_15774)">
<path d="M0.0756836 11.8379C0.0756836 14.5215 1.09521 16.6543 2.17334 18.3301C2.75927 19.2442 3.09912 20.1348 3.09912 20.8145V22.5371C3.09912 23.0176 3.50927 23.4395 4.00146 23.4395C4.49365 23.4395 4.91552 23.0176 4.91552 22.5371V21.8809H6.38037V22.5371C6.38037 23.0176 6.80224 23.4395 7.29443 23.4395C7.78662 23.4395 8.19677 23.0176 8.19677 22.5371V21.8809H9.52099V22.5371C9.52099 23.0176 9.95459 23.4395 10.4468 23.4395C10.939 23.4395 11.3491 23.0176 11.3491 22.5371V21.8809H12.6265V22.5371C12.6265 23.0176 13.0484 23.4395 13.5288 23.4395C14.021 23.4395 14.4546 23.0176 14.4546 22.5371V21.8809H15.7788V22.5371C15.7788 23.0176 16.189 23.4395 16.6812 23.4395C17.1734 23.4395 17.5952 23.0176 17.5952 22.5371V21.8809H19.0601V22.5371C19.0601 23.0176 19.4819 23.4395 19.9741 23.4395C20.4663 23.4395 20.8882 23.0176 20.8882 22.5371V20.8262C20.8882 20.1934 21.2632 19.2559 21.9195 18.166C22.9273 16.5254 23.9116 14.4395 23.9116 11.8379C23.9116 8.86133 22.7632 6.35352 21.1812 4.34961C20.5366 3.50586 20.5015 3.2832 20.5015 2.73242V1.05664C20.5015 0.564453 20.0679 0.142578 19.5757 0.142578C19.0835 0.142578 18.6734 0.564453 18.6734 1.05664V2.86133C18.6734 4.18555 18.8726 4.38477 19.6343 5.36914C20.9585 7.08008 22.0249 9.18946 22.0249 11.8379C22.0249 15.0723 20.3726 17.3926 17.9468 18.7871H6.0288C3.61474 17.3926 1.9624 15.0723 1.9624 11.8379C1.9624 9.18946 3.0288 7.08008 4.3413 5.36914C5.11474 4.38477 5.31396 4.18555 5.31396 2.86133V1.05664C5.31396 0.564453 4.89209 0.142578 4.41162 0.142578C3.91943 0.142578 3.48584 0.564453 3.48584 1.05664V2.73242C3.48584 3.2832 3.45068 3.50586 2.79443 4.34961C1.22412 6.35352 0.0756836 8.86133 0.0756836 11.8379Z" fill="black" fill-opacity="0.85"/>
</g>
<defs>
<clipPath id="clip0_2207_15774">
<rect width="23.8359" height="23.332" fill="white" transform="translate(0.0756836 0.142578)"/>
</clipPath>
</defs>
</svg>
