<svg width="24" height="25" viewBox="0 0 24 25" fill="none" xmlns="http://www.w3.org/2000/svg">
<g clip-path="url(#clip0_2207_4736)">
<path d="M12.0434 24.0488C18.5825 24.0488 23.9965 18.6231 23.9965 12.0957C23.9965 5.55664 18.5708 0.142578 12.0317 0.142578C5.50439 0.142578 0.090332 5.55664 0.090332 12.0957C0.090332 18.6231 5.51611 24.0488 12.0434 24.0488ZM12.0434 22.0567C6.51221 22.0567 2.09424 17.627 2.09424 12.0957C2.09424 6.56446 6.50049 2.13477 12.0317 2.13477C17.563 2.13477 22.0044 6.56446 22.0044 12.0957C22.0044 17.627 17.5747 22.0567 12.0434 22.0567Z" fill="black" fill-opacity="0.85"/>
<path d="M11.938 11.0295C15.8637 11.0295 18.2075 10.0334 18.2075 8.58028C18.2075 7.25606 16.3442 6.4709 13.7544 6.4709C11.8325 6.4709 10.3091 6.83419 9.17237 7.37325C8.79737 7.54903 8.71534 7.93575 8.85596 8.20528C9.00831 8.50997 9.39503 8.592 9.71143 8.45137C10.7192 8.0295 11.9731 7.61934 13.7075 7.61934C15.8169 7.61934 16.977 8.08809 16.977 8.56856C16.977 9.14278 15.1137 9.8459 11.8911 9.8459C8.70362 9.8459 7.10987 9.23653 7.10987 8.12325C7.10987 7.45528 7.70753 6.75216 9.51222 6.18966C9.8755 6.06075 10.063 5.74434 9.95753 5.41622C9.84034 5.09981 9.54737 4.9709 9.1255 5.08809C6.95753 5.74434 5.86768 6.9045 5.86768 8.14669C5.86768 10.0451 8.01222 11.0295 11.938 11.0295ZM12.1255 13.1272C14.1411 13.1272 16.0044 12.799 17.3051 12.2483C17.6215 12.1311 17.7622 11.803 17.6215 11.51C17.4692 11.2405 17.1645 11.1701 16.8247 11.299C15.6645 11.7561 13.9653 12.049 12.1255 12.049C10.7544 12.049 9.21925 11.885 8.0005 11.5334C7.66065 11.4397 7.35596 11.5569 7.26222 11.8616C7.18018 12.1662 7.34425 12.4709 7.69581 12.5647C9.00831 12.9397 10.6958 13.1272 12.1255 13.1272ZM12.5591 15.1897C14.2583 15.178 15.8403 14.9436 17.2817 14.4631C17.6801 14.3108 17.7622 13.9592 17.6567 13.7131C17.5512 13.4201 17.2465 13.3264 16.8715 13.4553C15.4653 13.9123 14.0591 14.135 12.5591 14.135C11.9145 14.135 11.2583 14.0881 10.7426 14.0178C10.3676 13.9709 10.1333 14.135 10.063 14.4162C10.0044 14.7092 10.1684 14.9905 10.5669 15.0725C11.0708 15.1545 11.7739 15.2014 12.5591 15.1897ZM11.9731 17.1584C13.145 17.2873 14.563 17.2639 15.7817 16.924C16.1333 16.8186 16.2739 16.5022 16.1801 16.2326C16.0747 15.928 15.7934 15.799 15.4184 15.9045C14.3989 16.174 13.227 16.2561 12.1372 16.1037C11.7739 16.0803 11.5044 16.2561 11.4575 16.5608C11.4341 16.8537 11.5864 17.1116 11.9731 17.1584ZM11.5278 19.174C11.9497 19.2209 12.4184 19.2209 12.852 19.174C13.2153 19.1155 13.3794 18.8811 13.3676 18.5881C13.3208 18.3186 13.1098 18.1076 12.7231 18.1545C12.3715 18.2014 11.9965 18.2131 11.645 18.1545C11.27 18.1076 11.0473 18.3303 11.0122 18.5764C10.977 18.8576 11.1294 19.1155 11.5278 19.174Z" fill="black" fill-opacity="0.85"/>
</g>
<defs>
<clipPath id="clip0_2207_4736">
<rect width="23.9062" height="23.918" fill="white" transform="translate(0.090332 0.142578)"/>
</clipPath>
</defs>
</svg>
