<svg width="23" height="27" viewBox="0 0 23 27" fill="none" xmlns="http://www.w3.org/2000/svg">
<g clip-path="url(#clip0_2207_4732)">
<path d="M11.0217 10.7095C18.2053 10.7095 22.3303 8.89311 22.3303 6.42045C22.3303 4.14701 19.049 2.75248 14.3615 2.75248C10.8459 2.75248 8.10375 3.43217 6.02954 4.40483C5.46704 4.67436 5.33813 5.23686 5.54907 5.6353C5.77172 6.08061 6.35766 6.1978 6.82641 5.99858C8.70141 5.21342 11.0686 4.4517 14.2561 4.4517C18.2053 4.4517 20.4904 5.3892 20.4904 6.40873C20.4904 7.60405 16.9279 8.9517 10.9397 8.9517C5.05688 8.9517 1.91625 7.79155 1.91625 5.5767C1.91625 4.27592 3.11157 2.90483 6.51001 1.81498C7.08422 1.62748 7.33033 1.17045 7.16625 0.689981C7.00219 0.209513 6.5686 0.0220122 5.92407 0.221231C1.98657 1.39311 0.0881348 3.44389 0.0881348 5.62358C0.0881348 8.9517 3.84986 10.7095 11.0217 10.7095ZM11.3733 14.5767C15.0412 14.5767 18.4162 13.9673 20.8069 12.9947C21.2522 12.8072 21.4748 12.3384 21.2522 11.9283C21.0412 11.5298 20.6193 11.4595 20.092 11.6588C17.924 12.4908 14.7717 13.0533 11.3733 13.0533C8.86547 13.0533 5.98267 12.7369 3.73266 12.0806C3.20532 11.9283 2.77172 12.0923 2.64282 12.5377C2.51391 12.9713 2.73657 13.3814 3.27563 13.5455C5.70142 14.2252 8.73658 14.5767 11.3733 14.5767ZM12.1701 18.397C15.2404 18.3736 18.1233 17.9283 20.76 17.0259C21.3811 16.815 21.4748 16.3228 21.3225 15.9595C21.1584 15.5494 20.7365 15.4205 20.1389 15.6197C17.5373 16.4634 14.9475 16.8619 12.1701 16.8619C10.9865 16.8619 9.75611 16.7798 8.79517 16.6509C8.22095 16.5806 7.86938 16.8033 7.79907 17.2252C7.71704 17.647 7.9397 18.0455 8.54908 18.1509C9.45142 18.315 10.717 18.4088 12.1701 18.397ZM11.1037 21.9947C13.2365 22.2408 15.8029 22.1822 18.0061 21.5845C18.5334 21.4439 18.7326 20.9752 18.6037 20.565C18.4631 20.1314 18.0529 19.9673 17.4904 20.108C15.592 20.6002 13.4006 20.7642 11.3615 20.5064C10.799 20.4478 10.4123 20.7056 10.3537 21.1392C10.2951 21.5728 10.5178 21.9244 11.1037 21.9947ZM10.3069 25.7095C11.0451 25.815 11.9123 25.8033 12.674 25.7095C13.2131 25.6392 13.4592 25.2994 13.424 24.8658C13.3772 24.4791 13.0725 24.1978 12.4983 24.2681C11.8537 24.3502 11.092 24.3502 10.4358 24.2798C9.90845 24.2095 9.58033 24.4908 9.52172 24.8658C9.47485 25.2642 9.72094 25.6509 10.3069 25.7095Z" fill="black" fill-opacity="0.85"/>
</g>
<defs>
<clipPath id="clip0_2207_4732">
<rect width="22.2422" height="26.1846" fill="white" transform="translate(0.0881348 0.142578)"/>
</clipPath>
</defs>
</svg>
