<svg width="40" height="24" viewBox="0 0 40 24" fill="none" xmlns="http://www.w3.org/2000/svg">
<g clip-path="url(#clip0_2207_18050)">
<path d="M14.4968 21.9278C19.4656 21.9278 19.9695 18.752 24.9148 18.752C30.4343 18.752 30.2351 16.0098 33.9968 16.0098C37.1609 16.0098 39.5281 14.9082 39.5281 12.7285C39.5281 8.06446 36.8445 5.58008 33.7507 5.58008C30.5515 5.58008 28.8523 7.5957 28.1726 10.2442C27.7859 11.6856 27.1062 12.5879 26.075 13.1035L25.3367 11.7442C22.2312 6.02539 19.3718 3.7168 14.6609 3.70508C9.57495 3.7168 6.9851 5.93164 3.18823 13.1035C2.03979 15.2949 0.0944824 15.7754 0.0944824 17.1465C0.0944824 18.1074 0.832764 18.752 2.32104 18.752C2.77807 18.752 3.2937 18.752 3.80932 18.752C9.2351 18.752 10.3015 21.9278 14.4968 21.9278ZM14.4968 20.0645C10.7586 20.0645 9.6687 16.8653 4.20776 16.8653C3.6101 16.8653 3.00073 16.877 2.44995 16.9121L2.3562 16.7481C3.15307 16.0801 4.14917 15.2364 4.86401 13.8301C8.12182 7.52539 10.2898 5.58008 14.6609 5.56836C19.4422 5.58008 21.5984 8.80274 23.825 12.752C24.6336 14.1934 25.6648 15.834 26.7078 16.8653C26.2273 16.877 25.6765 16.8653 25.114 16.8653C19.5711 16.8653 18.5867 20.0645 14.4968 20.0645ZM28.6062 16.3496C28.0789 15.9395 27.4461 15.166 27.0828 14.5098C28.3484 14.0293 29.2039 13.1738 29.7195 11.1699C30.282 8.75586 31.5593 7.34961 33.7507 7.34961C35.9773 7.34961 37.8406 9.41211 37.8406 12.4473C37.8406 13.5723 36.1297 14.2988 34.3484 14.2988C31.4187 14.2988 30.1062 15.3887 28.6062 16.3496ZM34.1961 11.6973C34.7703 11.6973 35.2507 11.2168 35.2507 10.6426C35.2507 10.0684 34.7703 9.58789 34.1961 9.58789C33.6101 9.58789 33.1297 10.0684 33.1297 10.6426C33.1297 11.2168 33.6101 11.6973 34.1961 11.6973ZM14.5203 13.1387C18.4109 13.1387 21.3172 11.416 23.239 9.51758L22.3718 8.25196C20.2976 10.3965 17.6375 11.627 14.5203 11.627C11.4031 11.627 8.76636 10.4317 6.70386 8.25196L5.84839 9.54102C7.65307 11.3692 10.5359 13.1387 14.5203 13.1387ZM9.00073 18.9512C10.4304 17.3457 11.532 14.6387 11.7429 12.5879L10.4656 12.1543C10.2898 13.959 9.11792 16.8418 7.68823 18.3184L9.00073 18.9512ZM20.2273 18.9278L21.575 18.3067C20.0867 16.7715 18.9617 14.0176 18.8093 12.1543L17.5086 12.5176C17.6375 14.6504 18.7507 17.3457 20.2273 18.9278ZM3.53979 23.4981C5.9187 23.4981 8.37964 22.4199 10.2664 20.3457L8.78979 19.3965C6.84448 21.1426 5.1101 21.9278 3.56323 21.9278C2.53198 21.9278 2.00464 21.5996 2.00464 21.0371C2.00464 20.6153 2.30932 20.334 3.21167 20.1114C3.87964 19.9356 5.88354 19.3028 6.87964 18.7051L5.43823 18.1426C4.43042 18.5996 3.12964 18.7988 2.07495 19.1856C0.973388 19.5723 0.258544 20.1582 0.258544 21.2832C0.258544 22.7129 1.67651 23.4981 3.53979 23.4981ZM25.3953 23.5215C27.2468 23.5215 28.6765 22.7481 28.6765 21.3184C28.6765 19.959 27.657 19.3965 26.2859 19.0215C25.3367 18.7637 24.3289 18.5528 23.4968 18.1778L22.0554 18.7285C23.0515 19.3379 25.0554 19.9707 25.7234 20.1465C26.614 20.3692 26.9304 20.6504 26.9304 21.0723C26.9304 21.6231 26.4031 21.9512 25.3718 21.9512C23.8133 21.9512 22.0906 21.1778 20.1453 19.4317L18.657 20.3809C20.5086 22.4082 23.0047 23.5215 25.3953 23.5215Z" fill="black" fill-opacity="0.85"/>
</g>
<defs>
<clipPath id="clip0_2207_18050">
<rect width="39.4336" height="23.3789" fill="white" transform="translate(0.0944824 0.142578)"/>
</clipPath>
</defs>
</svg>
