<svg width="25" height="25" viewBox="0 0 25 25" fill="none" xmlns="http://www.w3.org/2000/svg">
<g clip-path="url(#clip0_2207_18064)">
<path d="M12.0517 24.0488C18.5908 24.0488 24.0048 18.6231 24.0048 12.0957C24.0048 5.55664 18.5791 0.142578 12.04 0.142578C5.51269 0.142578 0.0986328 5.55664 0.0986328 12.0957C0.0986328 18.6231 5.52441 24.0488 12.0517 24.0488Z" fill="black" fill-opacity="0.85"/>
<path d="M9.91894 11.0879C8.52441 11.0996 7.25879 10.5957 6.26269 9.51758C7.28222 8.1582 8.34863 7.64258 9.9541 7.64258C11.5595 7.6543 12.6142 8.25196 13.6103 9.49414C12.6377 10.5723 11.3955 11.0762 9.91894 11.0879ZM6.3916 14.4043C5.98144 14.2754 5.57129 14.2051 4.97363 14.2051C4.75097 14.2051 4.5166 14.2051 4.29394 14.2051C3.70801 14.2051 3.40332 14.0293 3.40332 13.7246C3.40332 13.5137 3.49707 13.3496 3.62597 13.209C4.02441 12.8926 4.56347 12.3887 5.0791 11.416C5.31347 10.9356 5.58301 10.5137 5.8291 10.127C6.34472 10.6778 7.22363 11.2051 7.93847 11.4629C7.82129 12.4121 7.18847 13.6309 6.3916 14.4043ZM9.90722 15.6582C8.67675 15.6582 7.84472 14.9551 7.15332 14.6621C7.96191 13.8653 8.50097 12.6582 8.59472 11.6856C9.02832 11.791 9.47363 11.8496 9.94238 11.8496C10.3877 11.8496 10.8447 11.791 11.29 11.6738C11.3603 12.7168 11.8994 13.877 12.7314 14.6504C11.9931 15.002 11.1259 15.6582 9.90722 15.6582ZM13.4228 14.3692C12.5674 13.5371 12.0283 12.4004 11.9345 11.4512C12.5556 11.2168 13.458 10.6426 13.997 10.0801C14.5713 10.9473 15.6142 13.1973 16.2119 13.959C15.9775 14.1114 15.4619 14.1817 14.9463 14.1817C14.3369 14.1817 13.8916 14.252 13.4228 14.3692ZM18.8955 12.9395C17.8877 12.9395 17.5361 13.3614 16.8095 13.7012C16.3877 13.0918 15.9424 12.3184 15.6494 11.8848C15.8955 11.6621 16.2002 11.334 16.4111 10.5254C16.7041 9.2832 17.5127 8.5332 18.79 8.5332C20.2548 8.5332 21.2275 9.78711 21.2275 11.627C21.2275 12.4238 20.3134 12.9395 18.8955 12.9395ZM18.9189 11.0879C19.1416 11.0879 19.3759 10.877 19.3759 10.6192C19.3759 10.3731 19.1416 10.1504 18.9189 10.1504C18.6611 10.1504 18.4502 10.3731 18.4502 10.6192C18.4502 10.877 18.6611 11.0879 18.9189 11.0879ZM4.91504 16.5723C4.18847 16.5723 3.61425 16.2559 3.61425 15.6934C3.61425 15.2481 4.04785 15.0723 4.50488 14.9551C4.76269 14.9199 5.03222 14.9082 5.27832 14.8496C5.98144 14.8614 6.61425 15.1778 7.23535 15.5528C6.77832 16.1738 5.84082 16.5723 4.91504 16.5723ZM14.7236 16.5957C13.7861 16.5957 12.8486 16.1973 12.4033 15.5762C12.8838 15.2715 13.6924 14.8731 14.3017 14.8496C14.6181 14.8614 14.8408 14.8614 15.1338 14.8731C15.5908 14.9082 16.0127 15.2715 16.0127 15.7051C16.0127 16.2676 15.4502 16.5957 14.7236 16.5957Z" fill="white"/>
</g>
<defs>
<clipPath id="clip0_2207_18064">
<rect width="23.9062" height="23.918" fill="white" transform="translate(0.0986328 0.142578)"/>
</clipPath>
</defs>
</svg>
