<svg width="25" height="25" viewBox="0 0 25 25" fill="none" xmlns="http://www.w3.org/2000/svg">
<g clip-path="url(#clip0_2207_18059)">
<path d="M12.0498 24.0488C18.5889 24.0488 24.0029 18.6231 24.0029 12.0957C24.0029 5.55664 18.5772 0.142578 12.0381 0.142578C5.51074 0.142578 0.0966797 5.55664 0.0966797 12.0957C0.0966797 18.6231 5.52246 24.0488 12.0498 24.0488ZM12.0498 22.0567C6.51856 22.0567 2.10059 17.627 2.10059 12.0957C2.10059 6.56446 6.50684 2.13477 12.0381 2.13477C17.5694 2.13477 22.0108 6.56446 22.0108 12.0957C22.0108 17.627 17.5811 22.0567 12.0498 22.0567Z" fill="black" fill-opacity="0.85"/>
<path d="M9.9873 11.1231C11.4287 11.1114 12.624 10.6192 13.5733 9.57617C12.6123 8.36914 11.5811 7.79492 10.0225 7.7832C8.46387 7.7832 7.43262 8.27539 6.43652 9.59961C7.40918 10.6426 8.63965 11.1348 9.9873 11.1231ZM6.56543 14.334C7.33887 13.584 7.94824 12.4004 8.06543 11.4864C7.37402 11.2285 6.51856 10.7246 6.02637 10.1856C5.78027 10.5606 5.52246 10.9707 5.28809 11.4395C4.7959 12.3887 4.26856 12.8692 3.88184 13.1856C3.75293 13.3145 3.6709 13.4785 3.6709 13.6778C3.6709 13.9707 3.96387 14.1465 4.52637 14.1465C4.7373 14.1465 4.97168 14.1465 5.18262 14.1465C5.76856 14.1465 6.16699 14.2168 6.56543 14.334ZM9.97559 15.5528C11.1592 15.5528 12.0029 14.9199 12.7178 14.5801C11.9092 13.8184 11.3936 12.7051 11.3233 11.6856C10.8897 11.8028 10.4444 11.8614 10.0107 11.8614C9.55371 11.8614 9.12012 11.8028 8.69824 11.6973C8.60449 12.6465 8.08887 13.8067 7.30371 14.5918C7.97168 14.8731 8.78027 15.5528 9.97559 15.5528ZM13.3858 14.2988C13.8428 14.1934 14.2764 14.1231 14.874 14.1231C15.3662 14.1231 15.8701 14.0528 16.0928 13.9004C15.5186 13.1621 14.499 10.9824 13.9483 10.1387C13.4209 10.6895 12.5537 11.2403 11.9444 11.4746C12.0381 12.4004 12.5655 13.4903 13.3858 14.2988ZM18.7061 12.916C20.0772 12.916 20.9561 12.4121 20.9561 11.6387C20.9561 9.85742 20.0186 8.63867 18.6006 8.63867C17.3584 8.63867 16.5733 9.37696 16.292 10.5723C16.0811 11.3574 15.7881 11.6738 15.5537 11.8965C15.835 12.3184 16.2686 13.0684 16.6787 13.6543C17.3819 13.3262 17.7217 12.916 18.7061 12.916ZM18.7178 11.1231C18.4717 11.1231 18.2725 10.9121 18.2725 10.666C18.2725 10.4317 18.4717 10.209 18.7178 10.209C18.9405 10.209 19.1631 10.4317 19.1631 10.666C19.1631 10.9121 18.9405 11.1231 18.7178 11.1231ZM5.13574 16.4317C6.02637 16.4317 6.94043 16.0449 7.38574 15.4473C6.77637 15.084 6.16699 14.7793 5.4873 14.7676C5.25293 14.8262 4.9834 14.8379 4.7373 14.8731C4.29199 14.9785 3.87012 15.1543 3.87012 15.5879C3.87012 16.127 4.43262 16.4317 5.13574 16.4317ZM14.6514 16.4551C15.3545 16.4551 15.9053 16.1387 15.9053 15.5996C15.9053 15.1778 15.4951 14.8262 15.0498 14.791C14.7686 14.7793 14.5459 14.7793 14.2412 14.7676C13.6553 14.791 12.8701 15.1778 12.4014 15.4707C12.835 16.0684 13.749 16.4551 14.6514 16.4551Z" fill="black" fill-opacity="0.85"/>
</g>
<defs>
<clipPath id="clip0_2207_18059">
<rect width="23.9062" height="23.918" fill="white" transform="translate(0.0966797 0.142578)"/>
</clipPath>
</defs>
</svg>
