<svg width="39" height="24" viewBox="0 0 39 24" fill="none" xmlns="http://www.w3.org/2000/svg">
<g clip-path="url(#clip0_2207_18054)">
<path d="M14.1094 11.5587C17.3438 11.5469 20.0273 10.4102 22.1484 8.08994C19.9922 5.34775 17.6953 4.05869 14.1914 4.04697C10.6992 4.03525 8.4375 5.16025 6.15234 8.13682C8.30859 10.4688 11.0977 11.5704 14.1094 11.5587ZM6.50391 18.6719C8.26172 16.9844 9.69141 14.3243 9.91406 12.2618C8.34375 11.6758 6.42188 10.5508 5.29688 9.34385C4.74609 10.1993 4.16016 11.1251 3.64453 12.1563C2.55469 14.336 1.3125 15.3438 0.515625 16.0938C0.199219 16.3868 0 16.7266 0 17.1837C0 17.8634 0.726562 18.2384 2.00391 18.2384H3.41016C4.73438 18.2384 5.63672 18.4024 6.50391 18.6719ZM14.0859 21.3673C16.7695 21.3673 18.6562 19.961 20.2383 19.1758C18.4453 17.4766 17.2969 14.9688 17.1211 12.6602C16.1484 12.9298 15.1641 13.0587 14.1445 13.0587C13.125 13.0704 12.1406 12.9298 11.1914 12.6837C11.0039 14.8399 9.83203 17.4532 8.03906 19.2344C9.5625 19.8321 11.4023 21.3673 14.0859 21.3673ZM21.6094 18.6134C22.6758 18.3555 23.6133 18.2032 24.9844 18.2032C26.1094 18.2032 27.1992 18.0274 27.7383 17.7227C26.4492 16.0469 24.1406 11.1016 22.9336 9.22666C21.7266 10.4805 19.7695 11.6993 18.4219 12.2266C18.6328 14.336 19.793 16.7852 21.6094 18.6134Z" fill="black" fill-opacity="0.85"/>
<path d="M3.28125 23.3593C5.32031 23.3593 7.40625 22.457 8.39062 21.0859C7.24219 20.3242 5.78906 19.6093 4.40625 19.5507C3.78516 19.7148 3.09375 19.75 2.37891 19.8906C1.37109 20.0781 0.457031 20.4883 0.457031 21.4609C0.457031 22.6914 1.6875 23.3593 3.28125 23.3593ZM24.4922 23.3828C26.0859 23.3828 27.3164 22.7148 27.3164 21.4843C27.3164 20.5234 26.4023 19.7617 25.3945 19.6797C24.668 19.6445 24.1055 19.6328 23.3672 19.5859C22.0195 19.6562 20.5664 20.3711 19.3828 21.1093C20.3672 22.4922 22.4531 23.3828 24.4922 23.3828ZM28.8984 17.207C30.5508 16.4453 31.3125 15.4961 33.5625 15.4961C36.6211 15.4961 38.6133 14.3945 38.6133 12.6601C38.6133 8.66406 36.4922 5.94531 33.3047 5.94531C30.5391 5.94531 28.8164 7.59765 28.1484 10.2578C27.6562 12.0976 27.0117 12.7773 26.4141 13.2929C26.9766 14.1133 27.9375 15.8007 28.8984 17.207ZM33.5859 11.4883C33.0234 11.4883 32.5781 11.0312 32.5781 10.4804C32.5781 9.94141 33.0234 9.48437 33.5859 9.48437C34.125 9.48437 34.582 9.94141 34.582 10.4804C34.582 11.0312 34.125 11.4883 33.5859 11.4883Z" fill="black" fill-opacity="0.85"/>
</g>
<defs>
<clipPath id="clip0_2207_18054">
<rect width="38.6133" height="23.2383" fill="white" transform="translate(0 0.144531)"/>
</clipPath>
</defs>
</svg>
