<svg width="20" height="30" viewBox="0 0 20 30" fill="none" xmlns="http://www.w3.org/2000/svg">
<g clip-path="url(#clip0_2207_15357)">
<path d="M3.3064 24.2734H16.4548C18.5407 24.2734 19.736 22.8437 19.736 20.8398V12.4375C19.736 9.32031 19.3376 6.27344 18.8571 4.33984C18.3767 2.34765 17.029 0.859376 14.9548 0.63672C14.2048 0.554688 12.2478 0.402344 9.88062 0.402344C7.51343 0.402344 5.54468 0.554688 4.8064 0.63672C2.72046 0.859376 1.38453 2.34765 0.904052 4.33984C0.423584 6.27344 0.0251465 9.32031 0.0251465 12.4375V20.8398C0.0251465 22.8437 1.22046 24.2734 3.3064 24.2734ZM6.88062 4.04687C6.44703 4.04687 6.16577 3.75391 6.16577 3.32031C6.16577 2.88672 6.44703 2.61719 6.88062 2.61719H12.8689C13.3142 2.61719 13.5954 2.88672 13.5954 3.32031C13.5954 3.75391 13.3142 4.04687 12.8689 4.04687H6.88062ZM9.88062 16.539C7.16187 16.5156 4.66577 16.3984 3.40015 16.2461C2.69703 16.1523 2.42749 15.6953 2.42749 15.039V12.3437C2.42749 9.97656 2.68531 8.06641 2.87281 7.23437C2.98999 6.71875 3.3064 6.34375 3.81031 6.28515C5.13453 6.12109 6.76343 6.03906 9.88062 6.02734C12.986 6.01562 14.6149 6.12109 15.904 6.28515C16.4313 6.34375 16.7595 6.71875 16.8767 7.23437C17.0642 8.06641 17.322 9.97656 17.322 12.3437V15.039C17.322 15.707 17.0524 16.164 16.3493 16.2461C14.4626 16.4453 11.9665 16.539 9.88062 16.539ZM4.4314 21.8125C3.50562 21.8125 2.83765 21.1445 2.83765 20.207C2.83765 19.2812 3.50562 18.6015 4.4314 18.6015C5.3689 18.6015 6.04859 19.2812 6.04859 20.207C6.04859 21.1445 5.34546 21.8125 4.4314 21.8125ZM15.3063 21.8242C14.3806 21.8242 13.6774 21.1328 13.6774 20.207C13.6774 19.2929 14.3806 18.5898 15.3063 18.5898C16.2204 18.5898 16.9235 19.2929 16.9235 20.207C16.9235 21.1328 16.2087 21.8242 15.3063 21.8242ZM1.8064 29.4297H2.46265C2.79077 29.4297 2.96656 29.3125 3.14234 29.0312L6.47046 23.664H4.23218L1.27906 28.4101C0.974365 28.9023 1.25562 29.4297 1.8064 29.4297ZM2.83765 27.9531H16.9587V26.1953H2.83765V27.9531ZM17.3454 29.4297H18.0017C18.5407 29.4297 18.7868 28.8906 18.4939 28.4101L15.5642 23.664H13.3259L16.654 29.0312C16.8298 29.3125 17.0173 29.4297 17.3454 29.4297Z" fill="black" fill-opacity="0.85"/>
</g>
<defs>
<clipPath id="clip0_2207_15357">
<rect width="19.7109" height="29.2852" fill="white" transform="translate(0.0251465 0.144531)"/>
</clipPath>
</defs>
</svg>
