<svg width="24" height="25" viewBox="0 0 24 25" fill="none" xmlns="http://www.w3.org/2000/svg">
<g clip-path="url(#clip0_2207_15366)">
<path d="M11.9763 24.0625C18.5154 24.0625 23.9294 18.6484 23.9294 12.1093C23.9294 5.58203 18.5037 0.15625 11.9646 0.15625C5.43725 0.15625 0.0231934 5.58203 0.0231934 12.1093C0.0231934 18.6484 5.44897 24.0625 11.9763 24.0625Z" fill="black" fill-opacity="0.85"/>
<path d="M7.03101 15.2265V10.9961C7.03101 9.44922 7.24195 7.91406 7.47632 6.92969C7.72242 5.94531 8.40211 5.20703 9.43336 5.08984C9.79664 5.04297 10.781 4.96094 11.9763 4.96094C13.1716 4.96094 14.156 5.04297 14.5193 5.08984C15.5505 5.20703 16.2302 5.94531 16.4763 6.92969C16.7107 7.91406 16.9216 9.44922 16.9216 10.9961V15.2265C16.9216 16.3515 16.3123 16.9375 15.0232 16.9375L16.2888 19C16.4529 19.2461 16.324 19.5273 16.0544 19.5273H15.7263C15.5505 19.5273 15.4568 19.4687 15.3748 19.3281L15.0232 18.7773H8.95289L8.60132 19.3281C8.51929 19.4687 8.42554 19.5273 8.24976 19.5273H7.93336C7.65211 19.5273 7.51148 19.2461 7.67554 19L8.96461 16.9375C7.72242 16.9257 7.03101 16.4218 7.03101 15.2265ZM8.23804 12.3086C8.23804 12.6484 8.37867 12.8711 8.73023 12.9062C9.36304 12.9765 10.6052 13.0468 11.9763 13.0586C13.031 13.0586 14.2732 13.0117 15.2224 12.9062C15.574 12.8711 15.7146 12.6484 15.7146 12.3086V10.9492C15.7146 9.76562 15.574 8.81641 15.492 8.39453C15.4334 8.125 15.2693 7.94922 14.9998 7.91406C14.3552 7.84375 13.5349 7.77344 11.9763 7.78515C10.4177 7.78515 9.59742 7.84375 8.92945 7.91406C8.68336 7.94922 8.51929 8.125 8.4607 8.39453C8.37867 8.81641 8.23804 9.76562 8.23804 10.9492V12.3086ZM8.44898 14.8984C8.44898 15.3672 8.78882 15.707 9.24586 15.707C9.70289 15.707 10.0544 15.3672 10.0544 14.8984C10.0544 14.4297 9.71461 14.0898 9.24586 14.0898C8.78882 14.0898 8.44898 14.4297 8.44898 14.8984ZM13.8865 14.8984C13.8865 15.3554 14.238 15.7187 14.6951 15.7187C15.1404 15.7187 15.5154 15.3554 15.5154 14.8984C15.5154 14.4297 15.1521 14.0781 14.6951 14.0781C14.238 14.0781 13.8865 14.4297 13.8865 14.8984ZM10.113 6.4375C10.113 6.63672 10.2654 6.80078 10.4763 6.80078H13.4763C13.6873 6.80078 13.8513 6.63672 13.8513 6.4375C13.8513 6.21484 13.6873 6.08594 13.4763 6.08594H10.4763C10.2654 6.08594 10.113 6.21484 10.113 6.4375ZM9.49195 17.8867H14.4841L13.8982 16.9375H10.0779L9.49195 17.8867Z" fill="white"/>
</g>
<defs>
<clipPath id="clip0_2207_15366">
<rect width="23.9062" height="23.918" fill="white" transform="translate(0.0231934 0.144531)"/>
</clipPath>
</defs>
</svg>
