<svg width="23" height="29" viewBox="0 0 23 29" fill="none" xmlns="http://www.w3.org/2000/svg">
<g clip-path="url(#clip0_2207_264)">
<path d="M7.91492 22.4687C8.36023 22.4687 8.6532 22.1875 8.64148 21.7773L8.2782 9.23828C8.26648 8.82812 7.97351 8.55859 7.55164 8.55859C7.10633 8.55859 6.81336 8.83984 6.82508 9.25L7.17664 21.7773C7.18836 22.1992 7.48133 22.4687 7.91492 22.4687ZM11.3837 22.4687C11.829 22.4687 12.1454 22.1875 12.1454 21.7773V9.25C12.1454 8.83984 11.829 8.55859 11.3837 8.55859C10.9383 8.55859 10.6337 8.83984 10.6337 9.25V21.7773C10.6337 22.1875 10.9383 22.4687 11.3837 22.4687ZM14.8641 22.4687C15.286 22.4687 15.579 22.1992 15.5907 21.7773L15.9422 9.25C15.954 8.83984 15.661 8.55859 15.2157 8.55859C14.7938 8.55859 14.5008 8.82812 14.4891 9.25L14.1376 21.7773C14.1258 22.1875 14.4188 22.4687 14.8641 22.4687ZM6.23914 5.5H8.10242V2.99219C8.10242 2.32422 8.57117 1.89062 9.2743 1.89062H13.4696C14.1727 1.89062 14.6415 2.32422 14.6415 2.99219V5.5H16.5047V2.875C16.5047 1.17578 15.4032 0.144531 13.5985 0.144531H9.14539C7.3407 0.144531 6.23914 1.17578 6.23914 2.875V5.5ZM0.918823 6.4375H21.8602C22.3407 6.4375 22.7274 6.02734 22.7274 5.54687C22.7274 5.06641 22.3407 4.66797 21.8602 4.66797H0.918823C0.450073 4.66797 0.039917 5.06641 0.039917 5.54687C0.039917 6.03906 0.450073 6.4375 0.918823 6.4375ZM6.01648 26.2422H16.7626C18.4383 26.2422 19.5633 25.1523 19.6454 23.4765L20.4657 6.21484H18.579L17.7938 23.2773C17.7704 23.9804 17.2665 24.4726 16.5751 24.4726H6.18054C5.51258 24.4726 5.00867 23.9687 4.97351 23.2773L4.14148 6.21484H2.30164L3.13367 23.4883C3.2157 25.164 4.31726 26.2422 6.01648 26.2422Z" fill="black" fill-opacity="0.85"/>
</g>
<defs>
<clipPath id="clip0_2207_264">
<rect width="22.6875" height="28.1836" fill="white" transform="translate(0.039917 0.144531)"/>
</clipPath>
</defs>
</svg>
