<svg width="24" height="25" viewBox="0 0 24 25" fill="none" xmlns="http://www.w3.org/2000/svg">
<g clip-path="url(#clip0_2207_272)">
<path d="M11.9951 24.0507C18.5342 24.0507 23.9482 18.625 23.9482 12.0976C23.9482 5.55859 18.5225 0.144531 11.9834 0.144531C5.45605 0.144531 0.0419922 5.55859 0.0419922 12.0976C0.0419922 18.625 5.46777 24.0507 11.9951 24.0507ZM11.9951 22.0586C6.46387 22.0586 2.0459 17.6289 2.0459 12.0976C2.0459 6.56641 6.45215 2.13672 11.9834 2.13672C17.5147 2.13672 21.9561 6.56641 21.9561 12.0976C21.9561 17.6289 17.5264 22.0586 11.9951 22.0586Z" fill="black" fill-opacity="0.85"/>
<path d="M8.95997 19H15.0186C15.8037 19 16.2842 18.5547 16.3193 17.7695L16.7178 8.50001H17.6436C17.9248 8.50001 18.1358 8.27735 18.1475 8.00782C18.1592 7.72657 17.9248 7.50392 17.6436 7.50392H14.8311V6.5547C14.8311 5.58204 14.1865 4.97266 13.1553 4.97266H10.7881C9.76856 4.97266 9.13575 5.58204 9.13575 6.5547V7.50392H6.31153C6.042 7.50392 5.80762 7.72657 5.80762 8.00782C5.80762 8.27735 6.042 8.50001 6.31153 8.50001H7.27247L7.68262 17.7695C7.70606 18.5547 8.16309 19 8.95997 19ZM9.96778 17.1836C9.73341 17.1836 9.54591 17.0195 9.54591 16.7851L9.29981 9.94142C9.29981 9.69532 9.45216 9.53126 9.73341 9.53126C9.96778 9.53126 10.1553 9.6836 10.1553 9.94142L10.3779 16.7851C10.3779 17.0195 10.2256 17.1836 9.96778 17.1836ZM11.9717 17.1836C11.7139 17.1836 11.5381 17.0195 11.5381 16.7851V9.94142C11.5381 9.69532 11.7022 9.53126 11.9717 9.53126C12.2295 9.53126 12.4053 9.69532 12.4053 9.94142V16.7851C12.4053 17.0195 12.2295 17.1836 11.9717 17.1836ZM13.9639 17.1836C13.7061 17.1836 13.5537 17.0195 13.5537 16.7851L13.7764 9.94142C13.7881 9.6836 13.9639 9.53126 14.21 9.53126C14.4795 9.53126 14.6318 9.69532 14.6318 9.94142L14.3858 16.7851C14.3858 17.0195 14.1982 17.1836 13.9639 17.1836ZM10.3193 7.50392V6.61329C10.3193 6.3086 10.542 6.10938 10.8584 6.10938H13.085C13.4014 6.10938 13.624 6.3086 13.624 6.61329V7.50392H10.3193Z" fill="black" fill-opacity="0.85"/>
</g>
<defs>
<clipPath id="clip0_2207_272">
<rect width="23.9062" height="23.918" fill="white" transform="translate(0.0419922 0.144531)"/>
</clipPath>
</defs>
</svg>
