<svg width="28" height="27" viewBox="0 0 28 27" fill="none" xmlns="http://www.w3.org/2000/svg">
<g clip-path="url(#clip0_2207_532)">
<path d="M3.74683 26.9804H24.0202C26.4812 26.9804 27.6999 25.7734 27.6999 23.5117V17.0429C27.6999 15.9765 27.6296 15.25 27.0319 14.6875L22.8835 10.7617C21.6062 9.56641 20.6921 9.19141 18.9577 9.19141H8.80933C7.08667 9.19141 6.16089 9.56641 4.89526 10.7617L0.735108 14.6875C0.137451 15.25 0.0671387 15.9765 0.0671387 17.0429V23.5117C0.0671387 25.7734 1.29761 26.9804 3.74683 26.9804ZM13.8835 19.9961C12.2312 19.9961 11.1648 18.5664 11.1648 17.207V17.1601C11.1648 16.6679 10.8718 16.2109 10.2624 16.2109H2.82105C2.15308 16.2109 1.93042 15.9062 2.46948 15.4023L6.33667 11.7578C7.05152 11.0898 7.52026 10.832 8.63355 10.832H19.1335C20.2585 10.832 20.7155 11.0898 21.4304 11.7578L25.2976 15.4023C25.8601 15.9297 25.6023 16.2109 24.9577 16.2109H17.5046C16.8952 16.2109 16.614 16.6679 16.614 17.1601V17.207C16.614 18.5664 15.5476 19.9961 13.8835 19.9961ZM3.77026 25.2578C2.59839 25.2578 1.95386 24.625 1.95386 23.4062V17.9336H9.38355C9.6648 20.1133 11.5046 21.7422 13.8835 21.7422C16.2624 21.7422 18.1023 20.1133 18.3835 17.9336H25.8132V23.4062C25.8132 24.625 25.1569 25.2578 23.9968 25.2578H3.77026Z" fill="black" fill-opacity="0.85"/>
<path d="M3.74683 17.9336H24.0202C26.4812 17.9336 27.6999 16.7265 27.6999 14.4648V7.99609C27.6999 6.92969 27.6296 6.21484 27.0319 5.64062L22.8835 1.71484C21.6062 0.53125 20.6921 0.144531 18.9577 0.144531H8.80933C7.08667 0.144531 6.16089 0.53125 4.89526 1.71484L0.735108 5.64062C0.137451 6.21484 0.0671387 6.92969 0.0671387 7.99609V14.4648C0.0671387 16.7265 1.29761 17.9336 3.74683 17.9336Z" fill="white"/>
<path d="M3.74683 17.9336H24.0202C26.4812 17.9336 27.6999 16.7265 27.6999 14.4648V7.99609C27.6999 6.92969 27.6296 6.21484 27.0319 5.64062L22.8835 1.71484C21.6062 0.53125 20.6921 0.144531 18.9577 0.144531H8.80933C7.08667 0.144531 6.16089 0.53125 4.89526 1.71484L0.735108 5.64062C0.137451 6.21484 0.0671387 6.92969 0.0671387 7.99609V14.4648C0.0671387 16.7265 1.29761 17.9336 3.74683 17.9336ZM13.8835 10.9492C12.2312 10.9492 11.1648 9.51953 11.1648 8.16015V8.11328C11.1648 7.62109 10.8718 7.16406 10.2624 7.16406H2.82105C2.15308 7.16406 1.93042 6.85937 2.46948 6.35547L6.33667 2.71094C7.05152 2.04297 7.52026 1.79687 8.63355 1.79687H19.1335C20.2585 1.79687 20.7155 2.04297 21.4304 2.71094L25.2976 6.35547C25.8601 6.88281 25.6023 7.16406 24.9577 7.16406H17.5046C16.8952 7.16406 16.614 7.62109 16.614 8.11328V8.16015C16.614 9.51953 15.5476 10.9492 13.8835 10.9492ZM3.77026 16.2109C2.59839 16.2109 1.95386 15.5781 1.95386 14.3593V8.88672H9.38355C9.6648 11.0664 11.5046 12.6953 13.8835 12.6953C16.2624 12.6953 18.1023 11.0664 18.3835 8.88672H25.8132V14.3593C25.8132 15.5781 25.1569 16.2109 23.9968 16.2109H3.77026Z" fill="black" fill-opacity="0.85"/>
</g>
<defs>
<clipPath id="clip0_2207_532">
<rect width="27.6328" height="26.8477" fill="white" transform="translate(0.0671387 0.144531)"/>
</clipPath>
</defs>
</svg>
