<svg width="28" height="21" viewBox="0 0 28 21" fill="none" xmlns="http://www.w3.org/2000/svg">
<g clip-path="url(#clip0_2207_486)">
<path d="M3.76367 20.1718H24.0371C26.4981 20.1718 27.7168 18.9531 27.7168 16.539V10.0703C27.7168 9.01562 27.5528 8.52344 27.0488 7.84375L23.0059 2.37109C21.7285 0.625 21.0254 0.167969 18.9395 0.167969H8.86132C6.77539 0.167969 6.08398 0.625 4.80664 2.37109L0.751953 7.84375C0.259765 8.52344 0.0839844 9.01562 0.0839844 10.0703V16.539C0.0839844 18.9648 1.31445 20.1718 3.76367 20.1718ZM13.9004 13.3867C12.1426 13.3867 11.0176 11.8633 11.0176 10.4218V10.3867C11.0176 9.85937 10.7012 9.36719 10.0449 9.36719H2.58007C2.19336 9.36719 2.11132 9.03906 2.29882 8.78125L6.63476 2.82812C7.17382 2.07812 7.86523 1.80859 8.7207 1.80859H19.0801C19.9356 1.80859 20.627 2.07812 21.166 2.82812L25.502 8.78125C25.6778 9.03906 25.6074 9.36719 25.2207 9.36719H17.7559C17.0996 9.36719 16.7949 9.85937 16.7949 10.3867V10.4218C16.7949 11.8633 15.6699 13.3867 13.9004 13.3867Z" fill="black" fill-opacity="0.85"/>
</g>
<defs>
<clipPath id="clip0_2207_486">
<rect width="27.6328" height="20.0273" fill="white" transform="translate(0.0839844 0.144531)"/>
</clipPath>
</defs>
</svg>
