<svg width="24" height="25" viewBox="0 0 24 25" fill="none" xmlns="http://www.w3.org/2000/svg">
<g clip-path="url(#clip0_2207_495)">
<path d="M12.0351 24.0625C18.5742 24.0625 23.9882 18.6484 23.9882 12.1093C23.9882 5.58203 18.5625 0.15625 12.0234 0.15625C5.49609 0.15625 0.0820312 5.58203 0.0820312 12.1093C0.0820312 18.6484 5.50781 24.0625 12.0351 24.0625Z" fill="black" fill-opacity="0.85"/>
<path d="M6.85547 17.0078C5.60156 17.0078 4.96875 16.375 4.96875 15.1562V11.8398C4.96875 11.2773 5.0625 11.0429 5.32031 10.6914L7.44141 7.82031C8.13281 6.85937 8.55469 6.63672 9.60937 6.63672H14.4843C15.539 6.63672 15.9492 6.85937 16.6523 7.82031L18.7734 10.6914C19.0312 11.0429 19.125 11.2773 19.125 11.8398V15.1562C19.125 16.375 18.5039 17.0078 17.2382 17.0078H6.85547ZM6.66797 11.4414H10.1367C10.4531 11.4414 10.6289 11.6875 10.6289 11.9336V12.0859C10.6289 12.9179 11.1679 13.4453 12.0468 13.4453C12.9258 13.4453 13.5 12.9179 13.5 12.0859V11.9336C13.5 11.6875 13.6406 11.4414 13.957 11.4414H17.4258C17.6132 11.4414 17.6601 11.2656 17.5781 11.1601L15.4804 8.3125C15.2461 7.98437 14.9882 7.84375 14.5664 7.84375H9.53906C9.11719 7.84375 8.85937 7.97265 8.61328 8.3125L6.52734 11.1601C6.44531 11.289 6.48047 11.4414 6.66797 11.4414Z" fill="white"/>
</g>
<defs>
<clipPath id="clip0_2207_495">
<rect width="23.9062" height="23.918" fill="white" transform="translate(0.0820312 0.144531)"/>
</clipPath>
</defs>
</svg>
