<svg width="26" height="24" viewBox="0 0 26 24" fill="none" xmlns="http://www.w3.org/2000/svg">
<g clip-path="url(#clip0_2207_7740)">
<path d="M1.63404 22.7158H24.1691C25.3059 22.7158 25.7863 22.1064 25.7863 21.4033C25.7863 21.1103 25.7043 20.7939 25.5402 20.4893L14.2082 0.860352C13.9387 0.379883 13.423 0.145508 12.9074 0.145508C12.3801 0.145508 11.8762 0.379883 11.5949 0.860352L0.274658 20.4893C0.110596 20.7939 0.0168457 21.1103 0.0168457 21.4033C0.0168457 22.1064 0.497315 22.7158 1.63404 22.7158ZM2.66529 20.876C2.47779 20.876 2.37232 20.7822 2.37232 20.6416C2.37232 20.583 2.38404 20.5244 2.43091 20.4541L12.673 2.67676C12.7434 2.57129 12.8137 2.52442 12.9074 2.52442C12.9895 2.52442 13.0598 2.57129 13.1301 2.67676L23.384 20.4541C23.4191 20.5244 23.4426 20.583 23.4426 20.6416C23.4426 20.7822 23.3254 20.876 23.1379 20.876H2.66529Z" fill="black" fill-opacity="0.85"/>
</g>
<defs>
<clipPath id="clip0_2207_7740">
<rect width="25.7695" height="23.168" fill="white" transform="translate(0.0168457 0.145508)"/>
</clipPath>
</defs>
</svg>
