<svg width="25" height="23" viewBox="0 0 25 23" fill="none" xmlns="http://www.w3.org/2000/svg">
<g clip-path="url(#clip0_2207_7713)">
<path d="M0.0126953 19.1182C0.0126953 20.9228 1.25489 22.3525 3.24708 22.3525H21.2822C23.2744 22.3525 24.5166 20.9228 24.5166 19.1182C24.5166 18.5791 24.376 18.04 24.083 17.5361L15.0479 1.78613C14.4385 0.719727 13.3604 0.145508 12.2588 0.145508C11.1689 0.145508 10.0908 0.719727 9.48145 1.78613L0.446289 17.5244C0.165039 18.0283 0.0126953 18.5791 0.0126953 19.1182ZM1.91114 19.1182C1.91114 18.9072 1.95801 18.6611 2.08692 18.4267L11.0986 2.67676C11.3565 2.21973 11.8018 2.02051 12.2588 2.02051V20.5127H3.27051C2.46192 20.5127 1.91114 19.8447 1.91114 19.1182Z" fill="black" fill-opacity="0.85"/>
</g>
<defs>
<clipPath id="clip0_2207_7713">
<rect width="24.5039" height="22.2773" fill="white" transform="translate(0.0126953 0.145508)"/>
</clipPath>
</defs>
</svg>
