<svg width="25" height="23" viewBox="0 0 25 23" fill="none" xmlns="http://www.w3.org/2000/svg">
<g clip-path="url(#clip0_2207_7725)">
<path d="M3.20752 22.4111H21.3716C23.3638 22.4111 24.5708 21.0283 24.5708 19.2353C24.5708 18.6846 24.4067 18.1103 24.1138 17.5947L15.02 1.75098C14.4106 0.68457 13.3677 0.145508 12.2895 0.145508C11.2114 0.145508 10.1567 0.68457 9.55908 1.75098L0.465332 17.5947C0.148926 18.1221 0.00830078 18.6846 0.00830078 19.2353C0.00830078 21.0283 1.21533 22.4111 3.20752 22.4111ZM3.21924 20.5713C2.39892 20.5713 1.90674 19.9385 1.90674 19.2236C1.90674 19.001 1.95361 18.7197 2.08252 18.4736L11.1645 2.6416C11.4106 2.20801 11.856 2.02051 12.2895 2.02051C12.7231 2.02051 13.1567 2.20801 13.4028 2.6416L22.4849 18.4853C22.6138 18.7314 22.6724 19.001 22.6724 19.2236C22.6724 19.9385 22.1567 20.5713 21.3481 20.5713H3.21924Z" fill="black" fill-opacity="0.85"/>
<path d="M4.89501 18.8369H19.6724C20.1528 18.8369 20.4224 18.3916 20.188 17.958L12.7935 5.05567C12.5474 4.62207 12.0317 4.62207 11.7856 5.05567L4.3911 17.958C4.14501 18.4033 4.42626 18.8369 4.89501 18.8369Z" fill="black" fill-opacity="0.85"/>
</g>
<defs>
<clipPath id="clip0_2207_7725">
<rect width="24.5625" height="22.3945" fill="white" transform="translate(0.00830078 0.145508)"/>
</clipPath>
</defs>
</svg>
