<svg width="25" height="23" viewBox="0 0 25 23" fill="none" xmlns="http://www.w3.org/2000/svg">
<g clip-path="url(#clip0_2207_7709)">
<path d="M0.010498 19.1182C0.010498 20.9228 1.25269 22.3525 3.24488 22.3525H21.28C23.2722 22.3525 24.5144 20.9228 24.5144 19.1182C24.5144 18.5791 24.3738 18.04 24.0808 17.5361L15.0457 1.78613C14.4363 0.719727 13.3582 0.145508 12.2566 0.145508C11.1667 0.145508 10.0886 0.719727 9.47925 1.78613L0.444092 17.5244C0.162842 18.0283 0.010498 18.5791 0.010498 19.1182ZM12.2566 20.5127V2.02051C12.7136 2.02051 13.1824 2.23145 13.4402 2.67676L22.4636 18.415C22.5808 18.6611 22.616 18.9072 22.616 19.1182C22.616 19.8447 22.0769 20.5127 21.2683 20.5127H12.2566Z" fill="black" fill-opacity="0.85"/>
</g>
<defs>
<clipPath id="clip0_2207_7709">
<rect width="24.5039" height="22.2773" fill="white" transform="translate(0.010498 0.145508)"/>
</clipPath>
</defs>
</svg>
