<svg width="24" height="25" viewBox="0 0 24 25" fill="none" xmlns="http://www.w3.org/2000/svg">
<g clip-path="url(#clip0_2207_20654)">
<path d="M11.9573 24.1572C18.4964 24.1572 23.9104 18.7314 23.9104 12.2041C23.9104 5.66504 18.4846 0.250977 11.9455 0.250977C5.41821 0.250977 0.00415039 5.66504 0.00415039 12.2041C0.00415039 18.7314 5.42993 24.1572 11.9573 24.1572Z" fill="black" fill-opacity="0.85"/>
<path d="M5.86352 14.5597L10.4338 6.60258C11.2189 5.25493 12.7424 5.3018 13.4924 6.59086L18.0744 14.5597C18.8713 15.9425 18.2502 17.2667 16.7033 17.2667H7.24633C5.68773 17.2667 5.07836 15.9425 5.86352 14.5597ZM7.45726 15.2042C7.32836 15.3917 7.39867 15.5675 7.63305 15.5675H16.3049C16.551 15.5675 16.6096 15.3917 16.4924 15.2042L12.1564 7.68071C12.0627 7.50493 11.8635 7.49321 11.7697 7.68071L7.45726 15.2042Z" fill="white"/>
</g>
<defs>
<clipPath id="clip0_2207_20654">
<rect width="23.9062" height="24.0117" fill="white" transform="translate(0.00415039 0.145508)"/>
</clipPath>
</defs>
</svg>
