<svg width="24" height="25" viewBox="0 0 24 25" fill="none" xmlns="http://www.w3.org/2000/svg">
<g clip-path="url(#clip0_2207_4755)">
<path d="M11.9867 24.0635C18.5258 24.0635 23.9398 18.6494 23.9398 12.1103C23.9398 5.58301 18.5141 0.157227 11.975 0.157227C5.44763 0.157227 0.0335693 5.58301 0.0335693 12.1103C0.0335693 18.6494 5.45935 24.0635 11.9867 24.0635Z" fill="black" fill-opacity="0.85"/>
<path d="M8.13122 12.1103C8.13122 7.39942 11.6234 4.35254 16.0766 4.35254C16.475 4.35254 16.768 4.65723 16.768 5.04395C16.768 5.41895 16.4867 5.73535 16.0766 5.73535C13.5688 5.73535 11.5063 6.8252 10.3813 8.68848C10.85 8.39551 11.4008 8.24317 11.9867 8.24317C14.0844 8.24317 15.8422 9.98926 15.8422 12.1103C15.8422 16.8213 12.35 19.8682 7.90856 19.8682C7.48668 19.8682 7.20544 19.5517 7.20544 19.1885C7.20544 18.8017 7.48668 18.4853 7.90856 18.4853C10.4047 18.4853 12.4672 17.4072 13.5922 15.5439C13.1234 15.8252 12.5727 15.9775 11.9867 15.9775C9.88903 15.9775 8.13122 14.2314 8.13122 12.1103ZM9.51403 12.1103C9.51403 13.4814 10.6156 14.583 11.9867 14.583C13.3578 14.583 14.4594 13.4814 14.4594 12.1103C14.4594 10.7393 13.3578 9.6377 11.9867 9.6377C10.6156 9.6377 9.51403 10.7393 9.51403 12.1103ZM10.7914 12.1103C10.7914 11.4541 11.3305 10.915 11.9867 10.915C12.643 10.915 13.182 11.4541 13.182 12.1103C13.182 12.7549 12.643 13.3057 11.9867 13.3057C11.3305 13.3057 10.7914 12.7666 10.7914 12.1103Z" fill="white"/>
</g>
<defs>
<clipPath id="clip0_2207_4755">
<rect width="23.9062" height="23.918" fill="white" transform="translate(0.0335693 0.145508)"/>
</clipPath>
</defs>
</svg>
