<svg width="35" height="26" viewBox="0 0 35 26" fill="none" xmlns="http://www.w3.org/2000/svg">
<g clip-path="url(#clip0_2207_15441)">
<path d="M22.0147 18.6963V3.71973C22.0147 1.63379 20.9248 0.532227 18.8272 0.532227H3.22949C1.13183 0.532227 0.0419922 1.63379 0.0419922 3.71973V19.0947C0.0419922 21.1807 1.13183 22.2705 3.22949 22.2705H4.02637C4.00293 22.1182 3.99121 21.9541 3.99121 21.79C3.99121 19.1767 6.12402 17.0439 8.7373 17.0439C11.3506 17.0439 13.4717 19.1767 13.4717 21.79C13.4717 21.9541 13.46 22.1182 13.4365 22.2705H20.9014C20.8779 22.1064 20.8662 21.9424 20.8662 21.7783C20.8662 20.583 21.2647 19.4932 22.0147 18.6963ZM23.6201 7.00098V17.5361C24.1826 17.2197 24.8506 17.0322 25.5537 17.0322C28.167 17.0322 30.3467 19.165 30.3467 21.7783C30.3467 21.9424 30.335 22.1064 30.3115 22.2705H31.0264C33.0889 22.2705 34.167 21.1689 34.167 19.0947V14.958C34.167 13.8096 33.9795 13.2705 33.335 12.5439L29.3506 8.04395C28.6592 7.27051 27.8858 7.00098 26.7373 7.00098H23.6201ZM26.6553 14.4775C25.999 14.4775 25.5889 14.0791 25.5889 13.4111V9.16895H26.6201C27.1592 9.16895 27.5108 9.2627 27.9678 9.7666L31.542 13.7744C31.7295 13.9853 31.8584 14.208 31.9053 14.4775H26.6553ZM8.7373 25.165C10.6123 25.165 12.1123 23.6533 12.1123 21.79C12.1123 19.9267 10.6006 18.415 8.7373 18.415C6.87402 18.415 5.3623 19.9267 5.3623 21.79C5.3623 23.6416 6.87402 25.165 8.7373 25.165ZM25.6006 25.165C27.4756 25.165 28.9756 23.6533 28.9756 21.7783C28.9756 19.915 27.4639 18.4033 25.6006 18.4033C23.7373 18.4033 22.2256 19.915 22.2256 21.7783C22.2256 23.6416 23.7373 25.165 25.6006 25.165Z" fill="black" fill-opacity="0.85"/>
</g>
<defs>
<clipPath id="clip0_2207_15441">
<rect width="34.125" height="25.0195" fill="white" transform="translate(0.0419922 0.145508)"/>
</clipPath>
</defs>
</svg>
