<svg width="45" height="20" viewBox="0 0 45 20" fill="none" xmlns="http://www.w3.org/2000/svg">
<g clip-path="url(#clip0_2207_16785)">
<path d="M1.44677 1.85645H4.68115C5.11474 1.85645 5.45459 1.96192 5.73584 2.24317L9.89599 6.3916L11.4898 5.5127L7.10693 1.12988C6.42724 0.450196 5.53662 0.168945 4.47021 0.168945H1.44677C0.907715 0.168945 0.57959 0.49707 0.57959 1.00098C0.57959 1.50489 0.907715 1.85645 1.44677 1.85645ZM3.06396 16.751H4.5288C4.44677 16.3877 4.38818 16.0361 4.38818 15.6494C4.38818 13.1533 6.4038 11.1494 8.88818 11.1494C11.3843 11.1494 13.3882 13.1533 13.3882 15.6494C13.3882 16.0361 13.3413 16.3994 13.2593 16.751H29.2671C29.1734 16.3877 29.1265 16.0361 29.1265 15.6494C29.1265 13.165 31.1421 11.1494 33.6265 11.1494C36.1226 11.1494 38.1265 13.1533 38.1265 15.6494C38.1265 16.0361 38.0796 16.3877 37.9859 16.751H41.5366C43.3999 16.751 44.5132 15.6025 44.5132 13.6924V8.41895C44.5132 6.91895 43.4819 6.02832 41.7476 6.02832H31.9859L31.7046 3.6377C31.4351 1.31739 30.1343 0.145508 27.8257 0.145508H23.0913C19.3179 0.145508 16.9976 0.731446 14.396 2.37207L9.60302 5.37207L5.23193 6.04004C1.68115 6.5791 0.0756836 8.10254 0.0756836 10.8564V13.6924C0.0756836 15.6025 1.20068 16.751 3.06396 16.751ZM8.88818 18.7783C10.646 18.7783 12.0288 17.3955 12.0288 15.6494C12.0288 13.9033 10.6343 12.5088 8.88818 12.5088C7.1538 12.5088 5.75927 13.9033 5.75927 15.6494C5.75927 17.3838 7.1538 18.7783 8.88818 18.7783ZM33.6265 18.7783C35.3726 18.7783 36.7671 17.3838 36.7671 15.6494C36.7671 13.9033 35.3726 12.5088 33.6265 12.5088C31.8921 12.5088 30.4859 13.915 30.4859 15.6494C30.4859 17.3838 31.8804 18.7783 33.6265 18.7783Z" fill="black" fill-opacity="0.85"/>
</g>
<defs>
<clipPath id="clip0_2207_16785">
<rect width="44.4375" height="19.0664" fill="white" transform="translate(0.0756836 0.145508)"/>
</clipPath>
</defs>
</svg>
