<svg width="45" height="20" viewBox="0 0 45 20" fill="none" xmlns="http://www.w3.org/2000/svg">
<g clip-path="url(#clip0_2207_16789)">
<path d="M3.03442 16.5166H6.17505V14.6299H3.13989C2.37817 14.6299 1.93286 14.1143 1.93286 13.2236V10.8564C1.93286 9.18067 2.99926 8.29004 5.44848 7.91504L10.218 7.18848L15.3742 3.97754C17.6828 2.54785 19.6984 2.03223 23.0617 2.03223H27.6906C28.9445 2.03223 29.6477 2.66504 29.7883 3.89551L30.175 7.44629H41.0149C42.3508 7.44629 42.5969 7.68067 42.5969 8.65332V13.2236C42.5969 14.1143 42.1516 14.6299 41.4016 14.6299H36.7258V16.5166H41.507C43.3703 16.5166 44.4836 15.3682 44.4836 13.458V8.65332C44.4836 6.66113 43.1945 5.55957 41.0149 5.55957H31.8977L31.675 3.6377C31.4055 1.31739 30.1047 0.145508 27.7961 0.145508H23.0617C19.2883 0.145508 16.968 0.731446 14.3664 2.37207L9.57348 5.37207L5.20239 6.04004C1.65161 6.5791 0.0461426 8.10254 0.0461426 10.8564V13.458C0.0461426 15.3682 1.17114 16.5166 3.03442 16.5166ZM11.6711 16.5166H30.843V14.6299H11.6711V16.5166ZM8.85864 19.1885C11.1086 19.1885 12.8664 17.4307 12.8664 15.1807C12.8664 12.9307 11.1086 11.1728 8.85864 11.1728C6.60864 11.1728 4.85083 12.9307 4.85083 15.1807C4.85083 17.4307 6.60864 19.1885 8.85864 19.1885ZM8.85864 17.3017C7.66333 17.3017 6.73755 16.376 6.73755 15.1807C6.73755 13.9853 7.66333 13.0596 8.85864 13.0596C10.0539 13.0596 10.9797 13.9853 10.9797 15.1807C10.9797 16.376 10.0539 17.3017 8.85864 17.3017ZM33.5969 19.1885C35.8469 19.1885 37.6047 17.4307 37.6047 15.1807C37.6047 12.9307 35.8469 11.1728 33.5969 11.1728C31.3469 11.1728 29.5891 12.9307 29.5891 15.1807C29.5891 17.4307 31.3469 19.1885 33.5969 19.1885ZM33.5969 17.3017C32.4016 17.3017 31.4758 16.376 31.4758 15.1807C31.4758 13.9853 32.4016 13.0596 33.5969 13.0596C34.7922 13.0596 35.718 13.9853 35.718 15.1807C35.718 16.376 34.7922 17.3017 33.5969 17.3017Z" fill="black" fill-opacity="0.85"/>
<path d="M15.7024 8.03222C15.7024 10.0244 17.1673 11.3486 19.3235 11.3486H23.9876V12.4267C23.9876 13.083 24.4564 13.3174 25.0306 12.9424L27.761 11.1494C28.1946 10.8682 28.2181 10.3291 27.761 10.0127L25.0423 8.23144C24.4681 7.84472 23.9876 8.06738 23.9876 8.74706V9.76659H19.3235C18.1282 9.76659 17.3431 9.11034 17.3431 8.12597C17.3431 7.02441 18.14 6.27441 19.3353 6.27441H26.1673C26.6595 6.27441 26.9993 5.958 26.9993 5.48925C26.9993 5.0205 26.6595 4.68066 26.1556 4.68066H19.3353C17.1673 4.68066 15.7024 6.04003 15.7024 8.03222Z" fill="black" fill-opacity="0.85"/>
</g>
<defs>
<clipPath id="clip0_2207_16789">
<rect width="44.4375" height="19.0664" fill="white" transform="translate(0.0461426 0.145508)"/>
</clipPath>
</defs>
</svg>
