<svg width="45" height="20" viewBox="0 0 45 20" fill="none" xmlns="http://www.w3.org/2000/svg">
<g clip-path="url(#clip0_2207_16831)">
<path d="M3.05127 16.5166H6.1919V14.6299H3.15674C2.39502 14.6299 1.94971 14.1143 1.94971 13.2236V10.8564C1.94971 9.18067 3.01611 8.29004 5.46533 7.91504L10.2349 7.18848L15.3911 3.97754C17.6997 2.54785 19.7153 2.03223 23.0786 2.03223H27.7075C28.9614 2.03223 29.6646 2.66504 29.8052 3.89551L30.1919 7.44629H41.0318C42.3677 7.44629 42.6138 7.68067 42.6138 8.65332V13.2236C42.6138 14.1143 42.1685 14.6299 41.4185 14.6299H36.7427V16.5166H41.5239C43.3872 16.5166 44.5005 15.3682 44.5005 13.458V8.65332C44.5005 6.66113 43.2114 5.55957 41.0318 5.55957H31.9146L31.6919 3.6377C31.4224 1.31739 30.1216 0.145508 27.813 0.145508H23.0786C19.3052 0.145508 16.9849 0.731446 14.3833 2.37207L9.59033 5.37207L5.21924 6.04004C1.66846 6.5791 0.0629883 8.10254 0.0629883 10.8564V13.458C0.0629883 15.3682 1.18799 16.5166 3.05127 16.5166ZM11.688 16.5166H30.8599V14.6299H11.688V16.5166ZM8.87549 19.1885C11.1255 19.1885 12.8833 17.4307 12.8833 15.1807C12.8833 12.9307 11.1255 11.1728 8.87549 11.1728C6.62549 11.1728 4.86768 12.9307 4.86768 15.1807C4.86768 17.4307 6.62549 19.1885 8.87549 19.1885ZM8.87549 17.3017C7.68018 17.3017 6.7544 16.376 6.7544 15.1807C6.7544 13.9853 7.68018 13.0596 8.87549 13.0596C10.0708 13.0596 10.9966 13.9853 10.9966 15.1807C10.9966 16.376 10.0708 17.3017 8.87549 17.3017ZM33.6138 19.1885C35.8638 19.1885 37.6216 17.4307 37.6216 15.1807C37.6216 12.9307 35.8638 11.1728 33.6138 11.1728C31.3638 11.1728 29.606 12.9307 29.606 15.1807C29.606 17.4307 31.3638 19.1885 33.6138 19.1885ZM33.6138 17.3017C32.4185 17.3017 31.4927 16.376 31.4927 15.1807C31.4927 13.9853 32.4185 13.0596 33.6138 13.0596C34.8091 13.0596 35.7349 13.9853 35.7349 15.1807C35.7349 16.376 34.8091 17.3017 33.6138 17.3017Z" fill="black" fill-opacity="0.85"/>
<path d="M18.7192 12.8369H23.9458C24.5669 12.8369 24.8599 12.333 24.52 11.7822L21.9653 7.61036C21.6372 7.09474 21.0161 7.08302 20.688 7.61036L18.1568 11.7705C17.8169 12.3213 18.0864 12.8369 18.7192 12.8369Z" fill="black" fill-opacity="0.85"/>
</g>
<defs>
<clipPath id="clip0_2207_16831">
<rect width="44.4375" height="19.0664" fill="white" transform="translate(0.0629883 0.145508)"/>
</clipPath>
</defs>
</svg>
