<svg width="45" height="20" viewBox="0 0 45 20" fill="none" xmlns="http://www.w3.org/2000/svg">
<g clip-path="url(#clip0_2207_16805)">
<path d="M15.2634 9.23926C13.6228 9.23926 12.4978 8.66504 11.49 7.34082L8.34937 3.18067C7.6814 2.3252 7.18921 2.10254 5.88843 2.10254H3.00561C2.48999 2.10254 2.06811 1.66895 2.06811 1.15332C2.06811 0.637696 2.48999 0.21582 3.00561 0.21582H5.88843C7.66968 0.21582 8.82983 0.731446 9.81421 2.03223L12.99 6.16895C13.7166 7.10645 14.1619 7.35254 15.2634 7.35254H17.9939V6.35645C17.9939 5.52442 18.7205 5.27832 19.3416 5.68848L22.2713 7.5752C22.8572 7.9502 22.8455 8.65332 22.283 9.0166L19.3298 10.915C18.7205 11.3135 17.9939 11.0674 17.9939 10.2471V9.23926H15.2634ZM3.04077 16.751H4.50561C4.42358 16.3877 4.36499 16.0361 4.36499 15.6494C4.36499 13.1533 6.38061 11.1494 8.86499 11.1494C11.3611 11.1494 13.365 13.1533 13.365 15.6494C13.365 16.0361 13.3181 16.3994 13.2361 16.751H29.2439C29.1502 16.3877 29.1033 16.0361 29.1033 15.6494C29.1033 13.165 31.1189 11.1494 33.6033 11.1494C36.0994 11.1494 38.1033 13.1533 38.1033 15.6494C38.1033 16.0361 38.0564 16.3877 37.9627 16.751H41.5134C43.3767 16.751 44.49 15.6025 44.49 13.6924V8.41895C44.49 6.91895 43.4587 6.02832 41.7244 6.02832H31.9627L31.6814 3.6377C31.4119 1.31739 30.1111 0.145508 27.8025 0.145508H23.0681C19.2947 0.145508 16.9744 0.731446 14.3728 2.37207L9.57983 5.37207L5.20874 6.04004C1.65796 6.5791 0.0524902 8.10254 0.0524902 10.8564V13.6924C0.0524902 15.6025 1.17749 16.751 3.04077 16.751ZM8.86499 18.7783C10.6228 18.7783 12.0056 17.3955 12.0056 15.6494C12.0056 13.9033 10.6111 12.5088 8.86499 12.5088C7.13061 12.5088 5.73608 13.9033 5.73608 15.6494C5.73608 17.3838 7.13061 18.7783 8.86499 18.7783ZM33.6033 18.7783C35.3494 18.7783 36.7439 17.3838 36.7439 15.6494C36.7439 13.9033 35.3494 12.5088 33.6033 12.5088C31.8689 12.5088 30.4627 13.915 30.4627 15.6494C30.4627 17.3838 31.8572 18.7783 33.6033 18.7783Z" fill="black" fill-opacity="0.85"/>
</g>
<defs>
<clipPath id="clip0_2207_16805">
<rect width="44.4375" height="19.0664" fill="white" transform="translate(0.0524902 0.145508)"/>
</clipPath>
</defs>
</svg>
