<svg width="45" height="20" viewBox="0 0 45 20" fill="none" xmlns="http://www.w3.org/2000/svg">
<g clip-path="url(#clip0_2207_16777)">
<path d="M3.05957 16.751H4.52441C4.44238 16.3877 4.38379 16.0361 4.38379 15.6494C4.38379 13.1533 6.39941 11.1494 8.88379 11.1494C11.3799 11.1494 13.3838 13.1533 13.3838 15.6494C13.3838 16.0361 13.3369 16.3994 13.2549 16.751H29.2627C29.169 16.3877 29.1221 16.0361 29.1221 15.6494C29.1221 13.165 31.1377 11.1494 33.6221 11.1494C36.1182 11.1494 38.1221 13.1533 38.1221 15.6494C38.1221 16.0361 38.0752 16.3877 37.9815 16.751H41.5322C43.3955 16.751 44.5088 15.6025 44.5088 13.6924V8.41895C44.5088 6.91895 43.4775 6.02832 41.7432 6.02832H31.9815L31.7002 3.6377C31.4307 1.31739 30.1299 0.145508 27.8213 0.145508H23.0869C19.3135 0.145508 16.9932 0.731446 14.3916 2.37207L9.59863 5.37207L5.22754 6.04004C1.67676 6.5791 0.0712891 8.10254 0.0712891 10.8564V13.6924C0.0712891 15.6025 1.19629 16.751 3.05957 16.751ZM8.88379 18.7783C10.6416 18.7783 12.0244 17.3955 12.0244 15.6494C12.0244 13.9033 10.6299 12.5088 8.88379 12.5088C7.14941 12.5088 5.75488 13.9033 5.75488 15.6494C5.75488 17.3838 7.14941 18.7783 8.88379 18.7783ZM33.6221 18.7783C35.3682 18.7783 36.7627 17.3838 36.7627 15.6494C36.7627 13.9033 35.3682 12.5088 33.6221 12.5088C31.8877 12.5088 30.4815 13.915 30.4815 15.6494C30.4815 17.3838 31.876 18.7783 33.6221 18.7783Z" fill="black" fill-opacity="0.85"/>
</g>
<defs>
<clipPath id="clip0_2207_16777">
<rect width="44.4375" height="19.0664" fill="white" transform="translate(0.0712891 0.145508)"/>
</clipPath>
</defs>
</svg>
