<svg width="45" height="22" viewBox="0 0 45 22" fill="none" xmlns="http://www.w3.org/2000/svg">
<g clip-path="url(#clip0_2207_16799)">
<path d="M3.0387 17.8174H6.17933V15.9307H3.14417C2.38245 15.9307 1.93713 15.415 1.93713 14.5244V12.1572C1.93713 10.4814 3.00354 9.59082 5.45275 9.21582L10.2223 8.48926L15.3785 5.27832C17.6871 3.84863 19.7027 3.33301 23.066 3.33301H27.6949C28.9488 3.33301 29.652 3.96582 29.7926 5.19629L30.1793 8.74707H41.0192C42.3551 8.74707 42.6012 8.98145 42.6012 9.9541V14.5244C42.6012 15.415 42.1559 15.9307 41.4059 15.9307H36.7301V17.8174H41.5113C43.3746 17.8174 44.4879 16.6689 44.4879 14.7588V9.9541C44.4879 7.96192 43.1988 6.86035 41.0192 6.86035H31.902L31.6793 4.93848C31.4098 2.61817 30.109 1.44629 27.8004 1.44629H23.066C19.2926 1.44629 16.9723 2.03223 14.3707 3.67285L9.57775 6.67285L5.20667 7.34082C1.65588 7.87989 0.050415 9.40332 0.050415 12.1572V14.7588C0.050415 16.6689 1.17542 17.8174 3.0387 17.8174ZM11.6754 17.8174H30.8473V15.9307H11.6754V17.8174ZM8.86292 20.4893C11.1129 20.4893 12.8707 18.7314 12.8707 16.4814C12.8707 14.2314 11.1129 12.4736 8.86292 12.4736C6.61292 12.4736 4.8551 14.2314 4.8551 16.4814C4.8551 18.7314 6.61292 20.4893 8.86292 20.4893ZM8.86292 18.6025C7.6676 18.6025 6.74183 17.6767 6.74183 16.4814C6.74183 15.2861 7.6676 14.3603 8.86292 14.3603C10.0582 14.3603 10.984 15.2861 10.984 16.4814C10.984 17.6767 10.0582 18.6025 8.86292 18.6025ZM33.6012 20.4893C35.8512 20.4893 37.609 18.7314 37.609 16.4814C37.609 14.2314 35.8512 12.4736 33.6012 12.4736C31.3512 12.4736 29.5934 14.2314 29.5934 16.4814C29.5934 18.7314 31.3512 20.4893 33.6012 20.4893ZM33.6012 18.6025C32.4059 18.6025 31.4801 17.6767 31.4801 16.4814C31.4801 15.2861 32.4059 14.3603 33.6012 14.3603C34.7965 14.3603 35.7223 15.2861 35.7223 16.4814C35.7223 17.6767 34.7965 18.6025 33.6012 18.6025Z" fill="black" fill-opacity="0.85"/>
<path d="M2.85119 4.7627H5.734C6.64807 4.7627 6.70666 4.80957 7.09338 5.31348L10.2457 9.4502C11.5113 11.126 13.0348 11.8994 15.109 11.8994H20.0895C21.3668 11.8994 22.3981 10.8682 22.3981 9.59082C22.3981 8.31348 21.3668 7.28223 20.0895 7.28223H15.109C14.4527 7.28223 14.3942 7.25879 14.0777 6.86035L10.7496 2.50098C9.484 0.836914 7.91369 0.145508 5.734 0.145508H2.85119C1.58557 0.145508 0.542603 1.18848 0.542603 2.4541C0.542603 3.73145 1.58557 4.7627 2.85119 4.7627Z" fill="white"/>
<path d="M2.8512 3.40332H5.73401C7.0348 3.40332 7.52698 3.62598 8.18323 4.48145L11.3356 8.6416C12.3434 9.96582 13.4684 10.54 15.109 10.54H17.6754V11.5478C17.6754 12.3682 18.402 12.6143 19.0113 12.2158L21.9645 10.3174C22.527 9.9541 22.5387 9.25098 21.9527 8.87598L19.0231 6.98926C18.402 6.5791 17.6754 6.8252 17.6754 7.65723V8.65332H15.109C14.0074 8.65332 13.5621 8.40723 12.8356 7.46973L9.6598 3.33301C8.67542 2.03223 7.51526 1.5166 5.73401 1.5166H2.8512C2.33558 1.5166 1.9137 1.93848 1.9137 2.4541C1.9137 2.96973 2.33558 3.40332 2.8512 3.40332Z" fill="black" fill-opacity="0.85"/>
</g>
<defs>
<clipPath id="clip0_2207_16799">
<rect width="44.4375" height="21.668" fill="white" transform="translate(0.050415 0.145508)"/>
</clipPath>
</defs>
</svg>
