<svg width="45" height="20" viewBox="0 0 45 20" fill="none" xmlns="http://www.w3.org/2000/svg">
<g clip-path="url(#clip0_2207_16781)">
<path d="M0.940674 1.85645H4.17505C4.60865 1.85645 4.94849 1.96192 5.22974 2.24317L9.3899 6.3916L10.9837 5.5127L6.60083 1.12988C5.92115 0.450196 5.03052 0.168945 3.97583 0.168945H0.940674C0.401611 0.168945 0.0734863 0.49707 0.0734863 1.00098C0.0734863 1.50489 0.401611 1.85645 0.940674 1.85645ZM3.06177 16.5166H6.2024V14.6299H3.16724C2.40552 14.6299 1.96021 14.1143 1.96021 13.2236V10.8564C1.96021 9.18067 3.02661 8.29004 5.47583 7.91504L10.2454 7.18848L15.4016 3.97754C17.7102 2.54785 19.7258 2.03223 23.0891 2.03223H27.718C28.9719 2.03223 29.6751 2.66504 29.8157 3.89551L30.2024 7.44629H41.0423C42.3782 7.44629 42.6243 7.68067 42.6243 8.65332V13.2236C42.6243 14.1143 42.179 14.6299 41.429 14.6299H36.7532V16.5166H41.5344C43.3977 16.5166 44.511 15.3682 44.511 13.458V8.65332C44.511 6.66113 43.2219 5.55957 41.0423 5.55957H31.9251L31.7024 3.6377C31.4329 1.31739 30.1321 0.145508 27.8235 0.145508H23.0891C19.3157 0.145508 16.9954 0.731446 14.3938 2.37207L9.60083 5.37207L5.22974 6.04004C1.67896 6.5791 0.0734863 8.10254 0.0734863 10.8564V13.458C0.0734863 15.3682 1.19849 16.5166 3.06177 16.5166ZM11.6985 16.5166H30.8704V14.6299H11.6985V16.5166ZM8.88599 19.1885C11.136 19.1885 12.8938 17.4307 12.8938 15.1807C12.8938 12.9307 11.136 11.1728 8.88599 11.1728C6.63599 11.1728 4.87818 12.9307 4.87818 15.1807C4.87818 17.4307 6.63599 19.1885 8.88599 19.1885ZM8.88599 17.3017C7.69068 17.3017 6.7649 16.376 6.7649 15.1807C6.7649 13.9853 7.69068 13.0596 8.88599 13.0596C10.0813 13.0596 11.0071 13.9853 11.0071 15.1807C11.0071 16.376 10.0813 17.3017 8.88599 17.3017ZM33.6243 19.1885C35.8743 19.1885 37.6321 17.4307 37.6321 15.1807C37.6321 12.9307 35.8743 11.1728 33.6243 11.1728C31.3743 11.1728 29.6165 12.9307 29.6165 15.1807C29.6165 17.4307 31.3743 19.1885 33.6243 19.1885ZM33.6243 17.3017C32.429 17.3017 31.5032 16.376 31.5032 15.1807C31.5032 13.9853 32.429 13.0596 33.6243 13.0596C34.8196 13.0596 35.7454 13.9853 35.7454 15.1807C35.7454 16.376 34.8196 17.3017 33.6243 17.3017Z" fill="black" fill-opacity="0.85"/>
</g>
<defs>
<clipPath id="clip0_2207_16781">
<rect width="44.4375" height="19.0664" fill="white" transform="translate(0.0734863 0.145508)"/>
</clipPath>
</defs>
</svg>
