<svg width="25" height="25" viewBox="0 0 25 25" fill="none" xmlns="http://www.w3.org/2000/svg">
<g clip-path="url(#clip0_2207_18310)">
<path d="M12.0498 24.0517C18.5889 24.0517 24.0029 18.626 24.0029 12.0986C24.0029 5.55957 18.5772 0.145508 12.0381 0.145508C5.51074 0.145508 0.0966797 5.55957 0.0966797 12.0986C0.0966797 18.626 5.52246 24.0517 12.0498 24.0517ZM12.0498 22.0596C6.51856 22.0596 2.10059 17.6299 2.10059 12.0986C2.10059 6.56739 6.50684 2.1377 12.0381 2.1377C17.5694 2.1377 22.0108 6.56739 22.0108 12.0986C22.0108 17.6299 17.5811 22.0596 12.0498 22.0596Z" fill="black" fill-opacity="0.85"/>
<path d="M9.16703 18.3214H14.8623C15.8819 18.3214 16.3975 17.8292 16.4092 16.8097L16.4795 11.3018L17.8623 11.6065C18.3662 11.7237 18.7178 11.5128 18.8467 10.9854L19.3506 9.01667C19.4678 8.48933 19.2686 8.11433 18.7764 7.90339L14.8272 6.21589C14.5928 6.11042 14.4053 6.12214 14.1944 6.21589C13.4561 6.56746 12.8467 6.75495 12.0147 6.75495C11.1826 6.75495 10.5615 6.56746 9.83501 6.21589C9.63579 6.12214 9.43656 6.11042 9.20219 6.21589L5.25297 7.90339C4.76078 8.11433 4.54984 8.48933 4.69047 9.01667L5.19438 10.9854C5.31156 11.5128 5.65141 11.7237 6.15531 11.6065L7.53813 11.3018L7.62016 16.8097C7.63188 17.8292 8.13578 18.3214 9.16703 18.3214ZM12.0147 8.43074C11.1358 8.43074 10.4678 8.03229 10.1983 7.29402C10.749 7.49324 11.3819 7.58699 12.0147 7.58699C12.6475 7.58699 13.2803 7.49324 13.8311 7.29402C13.5498 8.02058 12.917 8.43074 12.0147 8.43074Z" fill="black" fill-opacity="0.85"/>
</g>
<defs>
<clipPath id="clip0_2207_18310">
<rect width="23.9062" height="23.918" fill="white" transform="translate(0.0966797 0.145508)"/>
</clipPath>
</defs>
</svg>
