<svg width="22" height="22" viewBox="0 0 22 22" fill="none" xmlns="http://www.w3.org/2000/svg">
<g clip-path="url(#clip0_2207_25509)">
<path d="M3.70288 21.7442H17.9177C20.3787 21.7442 21.5974 20.5254 21.5974 18.1113V3.80273C21.5974 1.38867 20.3787 0.169922 17.9177 0.169922H3.70288C1.25366 0.169922 0.0231934 1.37695 0.0231934 3.80273V18.1113C0.0231934 20.5371 1.25366 21.7442 3.70288 21.7442Z" fill="black" fill-opacity="0.85"/>
<path d="M9.49194 16.6817C8.80053 16.6817 8.46069 16.2715 8.46069 15.7207V11.8887L7.49975 12.3106C7.39428 12.3457 7.30053 12.3692 7.19507 12.3692C6.85522 12.3692 6.63257 12.1231 6.63257 11.7832C6.63257 11.5137 6.73803 11.3379 7.031 11.209L8.46069 10.6113V9.46289L7.49975 9.87304C7.39428 9.91992 7.30053 9.94336 7.19507 9.94336C6.85522 9.94336 6.63257 9.70898 6.63257 9.36914C6.63257 9.08789 6.73803 8.9121 7.031 8.79492L8.46069 8.17382V6.02929C8.46069 5.5371 8.75366 5.2207 9.22241 5.2207C9.66772 5.2207 9.96069 5.5371 9.96069 6.02929V7.56445L12.0115 6.70898C12.1052 6.6621 12.2107 6.62695 12.3162 6.62695C12.656 6.62695 12.8787 6.88476 12.8787 7.2246C12.8787 7.49414 12.7615 7.6582 12.4802 7.79882L9.96069 8.84179V9.99023L12.0115 9.12304C12.1052 9.08789 12.2107 9.06445 12.3162 9.06445C12.656 9.06445 12.8787 9.31054 12.8787 9.65039C12.8787 9.9082 12.7615 10.0957 12.4802 10.2129L9.96069 11.2676V15.1231C11.9294 15.1231 13.3123 13.5176 13.5349 11.7481C13.617 11.1856 13.8982 10.9629 14.2849 10.9629C14.7302 10.9629 14.9998 11.2793 14.9998 11.7715C14.9998 13.9512 12.9724 16.6817 9.49194 16.6817Z" fill="white"/>
</g>
<defs>
<clipPath id="clip0_2207_25509">
<rect width="21.5742" height="21.5977" fill="white" transform="translate(0.0231934 0.146484)"/>
</clipPath>
</defs>
</svg>
