<svg width="30" height="24" viewBox="0 0 30 24" fill="none" xmlns="http://www.w3.org/2000/svg">
<g clip-path="url(#clip0_2207_14795)">
<path d="M3.05371 19.5996H26.3272C28.3311 19.5996 29.3389 18.627 29.3389 16.5879V3.1582C29.3389 1.11914 28.3311 0.146484 26.3272 0.146484H3.05371C1.06152 0.146484 0.0419922 1.11914 0.0419922 3.1582V16.5879C0.0419922 18.627 1.06152 19.5996 3.05371 19.5996ZM8.7959 23.5723H20.585C21.1006 23.5723 21.5342 23.1504 21.5342 22.6231C21.5342 22.0957 21.1006 21.6738 20.585 21.6738H8.7959C8.28027 21.6738 7.84668 22.0957 7.84668 22.6231C7.84668 23.1504 8.28027 23.5723 8.7959 23.5723Z" fill="black" fill-opacity="0.85"/>
</g>
<defs>
<clipPath id="clip0_2207_14795">
<rect width="29.2969" height="23.4492" fill="white" transform="translate(0.0419922 0.146484)"/>
</clipPath>
</defs>
</svg>
