<svg width="30" height="24" viewBox="0 0 30 24" fill="none" xmlns="http://www.w3.org/2000/svg">
<g clip-path="url(#clip0_2207_14811)">
<path d="M3.05579 19.6113H26.3293C28.2043 19.6113 29.341 18.4629 29.341 16.5996V3.1582C29.341 1.29492 28.2043 0.146484 26.3293 0.146484H3.05579C1.19251 0.146484 0.0440674 1.29492 0.0440674 3.1582V16.5996C0.0440674 18.4629 1.19251 19.6113 3.05579 19.6113ZM3.09095 17.7246C2.36438 17.7246 1.93079 17.291 1.93079 16.5762V3.18164C1.93079 2.46679 2.36438 2.0332 3.09095 2.0332H26.2941C27.0207 2.0332 27.4543 2.46679 27.4543 3.18164V16.5762C27.4543 17.291 27.0207 17.7246 26.2941 17.7246H3.09095ZM8.79798 23.584H20.5871C21.1027 23.584 21.5363 23.1621 21.5363 22.6348C21.5363 22.1074 21.1027 21.6856 20.5871 21.6856H8.79798C8.28235 21.6856 7.84876 22.1074 7.84876 22.6348C7.84876 23.1621 8.28235 23.584 8.79798 23.584Z" fill="black" fill-opacity="0.85"/>
<path d="M4.26281 16.1309H25.1457C25.6496 16.1309 25.8605 15.8965 25.8605 15.3809V4.38867C25.8605 3.87304 25.6496 3.65039 25.1457 3.65039H4.26281C3.7589 3.65039 3.53625 3.87304 3.53625 4.38867V15.3809C3.53625 15.8965 3.7589 16.1309 4.26281 16.1309Z" fill="black" fill-opacity="0.85"/>
</g>
<defs>
<clipPath id="clip0_2207_14811">
<rect width="29.2969" height="23.4492" fill="white" transform="translate(0.0440674 0.146484)"/>
</clipPath>
</defs>
</svg>
