<svg width="22" height="22" viewBox="0 0 22 22" fill="none" xmlns="http://www.w3.org/2000/svg">
<g clip-path="url(#clip0_2207_25241)">
<path d="M3.73633 21.7442H17.9511C20.4121 21.7442 21.6308 20.5254 21.6308 18.1113V3.80273C21.6308 1.38867 20.4121 0.169922 17.9511 0.169922H3.73633C1.28711 0.169922 0.0566406 1.37695 0.0566406 3.80273V18.1113C0.0566406 20.5371 1.28711 21.7442 3.73633 21.7442Z" fill="black" fill-opacity="0.85"/>
<path d="M10.8496 16.6113C8.01367 16.6113 6.11523 14.9824 6.11523 12.4395V6.26368C6.11523 5.58399 6.4668 5.17383 7.07617 5.17383C7.69726 5.17383 8.04883 5.58399 8.04883 6.26368V12.252C8.04883 13.9512 9.16211 15.0059 10.8496 15.0059C12.5371 15.0059 13.6386 13.9512 13.6386 12.252V6.26368C13.6386 5.58399 14.0019 5.17383 14.5996 5.17383C15.2324 5.17383 15.5839 5.58399 15.5839 6.26368V12.4395C15.5839 14.9824 13.6855 16.6113 10.8496 16.6113Z" fill="white"/>
</g>
<defs>
<clipPath id="clip0_2207_25241">
<rect width="21.5742" height="21.5977" fill="white" transform="translate(0.0566406 0.146484)"/>
</clipPath>
</defs>
</svg>
