<svg width="24" height="25" viewBox="0 0 24 25" fill="none" xmlns="http://www.w3.org/2000/svg">
<g clip-path="url(#clip0_2207_25246)">
<path d="M12.0244 24.0527C18.5635 24.0527 23.9775 18.627 23.9775 12.0996C23.9775 5.56054 18.5518 0.146484 12.0127 0.146484C5.48535 0.146484 0.0712891 5.56054 0.0712891 12.0996C0.0712891 18.627 5.49707 24.0527 12.0244 24.0527ZM12.0244 22.0606C6.49317 22.0606 2.0752 17.6309 2.0752 12.0996C2.0752 6.56836 6.48145 2.13867 12.0127 2.13867C17.544 2.13867 21.9854 6.56836 21.9854 12.0996C21.9854 17.6309 17.5557 22.0606 12.0244 22.0606Z" fill="black" fill-opacity="0.85"/>
<path d="M12.0244 17.584C12.6924 17.584 13.1143 17.2324 13.4072 16.4707L16.6768 7.90429C16.7471 7.71679 16.7705 7.58789 16.7705 7.4121C16.7705 6.88476 16.3721 6.52148 15.8213 6.52148C15.3057 6.52148 15.0244 6.76757 14.8252 7.31836L12.0479 15.3457H11.9658L9.18847 7.31836C9.00097 6.76757 8.708 6.52148 8.19237 6.52148C7.64159 6.52148 7.24316 6.89648 7.24316 7.4121C7.24316 7.58789 7.27831 7.71679 7.3369 7.90429L10.6299 16.4824C10.9346 17.2793 11.3096 17.584 12.0244 17.584Z" fill="black" fill-opacity="0.85"/>
</g>
<defs>
<clipPath id="clip0_2207_25246">
<rect width="23.9062" height="23.918" fill="white" transform="translate(0.0712891 0.146484)"/>
</clipPath>
</defs>
</svg>
