<svg width="35" height="17" viewBox="0 0 35 17" fill="none" xmlns="http://www.w3.org/2000/svg">
<g clip-path="url(#clip0_2207_12066)">
<path d="M16.0351 14.2226L13.457 12.3359H3.64843C2.58203 12.3359 1.91406 11.6914 1.91406 10.6484V4.15625C1.91406 3.125 2.58203 2.46875 3.64843 2.46875H13.2695L15.5898 0.582031H3.64843C1.26953 0.582031 0.0273438 1.78906 0.0273438 4.15625V10.6484C0.0273438 13.0039 1.26953 14.2226 3.64843 14.2226H16.0351ZM21.1679 12.3359L18.9765 14.2226H31.3515C33.7539 14.2226 34.9843 13.0039 34.9843 10.6484V4.15625C34.9843 1.78906 33.7539 0.582031 31.3515 0.582031H19.4453L21.2968 2.46875H31.3515C32.4179 2.46875 33.0976 3.125 33.0976 4.15625V10.6484C33.0976 11.6914 32.4179 12.3359 31.3515 12.3359H21.1679ZM17.4882 14.6679C21.5898 14.6679 24.7539 11.4922 24.7539 7.41406C24.7539 3.32422 21.5898 0.148438 17.4882 0.148438C13.4101 0.148438 10.2461 3.32422 10.2461 7.41406C10.2461 11.4922 13.4101 14.6679 17.4882 14.6679ZM17.4882 12.8984C14.4062 12.8984 12.0156 10.5078 12.0156 7.41406C12.0156 4.3086 14.4062 1.91797 17.4882 1.91797C20.5937 1.91797 22.9843 4.3086 22.9843 7.41406C22.9843 10.5078 20.5937 12.8984 17.4882 12.8984ZM17.4882 11.6445C19.8671 11.6445 21.7304 9.78125 21.7304 7.41406C21.7304 5.04688 19.8671 3.17188 17.4882 3.17188C15.1211 3.17188 13.2578 5.04688 13.2578 7.41406C13.2578 9.78125 15.1211 11.6445 17.4882 11.6445ZM17.4882 10.1094C15.9765 10.1094 14.7929 8.92578 14.7929 7.41406C14.7929 5.90235 15.9765 4.70703 17.4882 4.70703C19 4.70703 20.1953 5.90235 20.1953 7.41406C20.1953 8.92578 19 10.1094 17.4882 10.1094ZM8.71093 13.5078H2.6289V15.2304C2.6289 15.8046 3.01562 16.1914 3.58984 16.1914H7.75C8.33593 16.1914 8.71093 15.8046 8.71093 15.2304V13.5078ZM26.3007 13.5078V15.2304C26.3007 15.8046 26.6757 16.1914 27.2617 16.1914H31.4101C31.9961 16.1914 32.3828 15.8046 32.3828 15.2304V13.5078H26.3007ZM26.3711 5.03516C26.3711 5.51563 26.7109 5.85547 27.1914 5.85547H30.1328C30.6132 5.85547 30.9648 5.51563 30.9648 5.03516C30.9648 4.55469 30.6132 4.20313 30.1328 4.20313H27.1914C26.7109 4.20313 26.3711 4.55469 26.3711 5.03516ZM26.3711 7.88282C26.3711 8.36328 26.7109 8.71485 27.1914 8.71485H30.1328C30.6132 8.71485 30.9648 8.36328 30.9648 7.88282C30.9648 7.40235 30.6132 7.0625 30.1328 7.0625H27.1914C26.7109 7.0625 26.3711 7.40235 26.3711 7.88282Z" fill="black" fill-opacity="0.85"/>
</g>
<defs>
<clipPath id="clip0_2207_12066">
<rect width="34.957" height="16.4883" fill="white" transform="translate(0.0273438 0.148438)"/>
</clipPath>
</defs>
</svg>
