<svg width="16" height="27" viewBox="0 0 16 27" fill="none" xmlns="http://www.w3.org/2000/svg">
<g clip-path="url(#clip0_2207_11594)">
<path d="M7.70337 26.914C12.2269 26.914 15.4026 23.8789 15.4026 19.5781V7.48438C15.4026 3.17188 12.2269 0.148438 7.70337 0.148438C3.19165 0.148438 0.00415039 3.17188 0.00415039 7.48438V19.5781C0.00415039 23.8789 3.19165 26.914 7.70337 26.914Z" fill="black" fill-opacity="0.85"/>
<path d="M7.70337 12.4648C5.19556 12.4648 3.21509 10.4961 3.21509 7.98828C3.21509 5.48047 5.19556 3.5 7.70337 3.5C10.2111 3.5 12.1799 5.48047 12.1799 7.98828C12.1799 10.4961 10.2111 12.4648 7.70337 12.4648ZM7.70337 23.5273C5.19556 23.5273 3.21509 21.5468 3.21509 19.039C3.21509 16.5312 5.19556 14.5625 7.70337 14.5625C10.2111 14.5625 12.1799 16.5312 12.1799 19.039C12.1799 21.5468 10.2111 23.5273 7.70337 23.5273ZM7.70337 9.65235C8.62915 9.65235 9.34399 8.92578 9.34399 7.98828C9.34399 7.05078 8.62915 6.32422 7.70337 6.32422C6.77759 6.32422 6.05103 7.05078 6.05103 7.98828C6.05103 8.92578 6.77759 9.65235 7.70337 9.65235ZM7.70337 21.9336C9.33227 21.9336 10.5861 20.6796 10.5861 19.039C10.5861 17.3984 9.33227 16.1445 7.70337 16.1445C6.06274 16.1445 4.80884 17.3984 4.80884 19.039C4.80884 20.6796 6.06274 21.9336 7.70337 21.9336Z" fill="white"/>
</g>
<defs>
<clipPath id="clip0_2207_11594">
<rect width="15.3984" height="26.7773" fill="white" transform="translate(0.00415039 0.148438)"/>
</clipPath>
</defs>
</svg>
