<svg width="22" height="22" viewBox="0 0 22 22" fill="none" xmlns="http://www.w3.org/2000/svg">
<g clip-path="url(#clip0_2207_9568)">
<path d="M3.70288 21.7461H17.9177C20.3787 21.7461 21.5974 20.5273 21.5974 18.1132V3.80469C21.5974 1.39063 20.3787 0.171875 17.9177 0.171875H3.70288C1.25366 0.171875 0.0231934 1.37891 0.0231934 3.80469V18.1132C0.0231934 20.539 1.25366 21.7461 3.70288 21.7461ZM3.72631 19.8593C2.55444 19.8593 1.90991 19.2382 1.90991 18.0195V3.89844C1.90991 2.67969 2.55444 2.0586 3.72631 2.0586H17.8943C19.0544 2.0586 19.7107 2.67969 19.7107 3.89844V18.0195C19.7107 19.2382 19.0544 19.8593 17.8943 19.8593H3.72631Z" fill="black" fill-opacity="0.85"/>
<path d="M5.906 15.6757H12.1052C13.2771 15.6757 13.9685 14.9961 13.9685 13.8359V8.07032C13.9685 6.91016 13.3357 6.24219 12.1638 6.24219H5.906C4.79272 6.24219 4.04272 6.91016 4.04272 8.07032V13.8359C4.04272 14.9961 4.74585 15.6757 5.906 15.6757ZM14.6248 12.5586L16.9216 14.4922C17.1209 14.6679 17.3435 14.7851 17.5544 14.7851C18.0115 14.7851 18.3044 14.457 18.3044 13.9648V7.92969C18.3044 7.44922 18.0115 7.1211 17.5544 7.1211C17.3435 7.1211 17.1091 7.23828 16.9216 7.40235L14.6248 9.34766V12.5586Z" fill="black" fill-opacity="0.85"/>
</g>
<defs>
<clipPath id="clip0_2207_9568">
<rect width="21.5742" height="21.5977" fill="white" transform="translate(0.0231934 0.148438)"/>
</clipPath>
</defs>
</svg>
