<svg width="30" height="20" viewBox="0 0 30 20" fill="none" xmlns="http://www.w3.org/2000/svg">
<g clip-path="url(#clip0_2207_9550)">
<path d="M4.65234 19.4121H16.8984C19.7578 19.4121 21.4687 17.7481 21.4687 14.8887V4.6582C21.4687 1.81054 19.7578 0.146484 16.8984 0.146484H4.65234C1.92187 0.146484 0.0820312 1.81054 0.0820312 4.6582V14.8887C0.0820312 17.7481 1.79297 19.4121 4.65234 19.4121ZM4.98047 17.6426C3.05859 17.6426 1.96875 16.6465 1.96875 14.6192V4.93945C1.96875 2.90039 3.05859 1.90429 4.98047 1.90429H16.5703C18.4804 1.90429 19.582 2.90039 19.582 4.93945V14.6192C19.582 16.6465 18.4804 17.6426 16.5703 17.6426H4.98047ZM21.1992 6.49804V8.7246L26.7773 4.11914C26.8828 4.0371 26.9531 3.97851 27.0586 3.97851C27.1992 3.97851 27.2578 4.0957 27.2578 4.25976V15.2988C27.2578 15.4629 27.1992 15.5684 27.0586 15.5684C26.9531 15.5684 26.8828 15.5098 26.7773 15.4395L21.1992 10.834V13.0488L25.8984 17.0332C26.3672 17.4199 26.8828 17.6895 27.3632 17.6895C28.3945 17.6895 29.0742 16.9277 29.0742 15.8379V3.7207C29.0742 2.63086 28.3945 1.86914 27.3632 1.86914C26.8828 1.86914 26.3672 2.13867 25.8984 2.52539L21.1992 6.49804Z" fill="black" fill-opacity="0.85"/>
</g>
<defs>
<clipPath id="clip0_2207_9550">
<rect width="28.9922" height="19.2773" fill="white" transform="translate(0.0820312 0.146484)"/>
</clipPath>
</defs>
</svg>
