<svg width="24" height="25" viewBox="0 0 24 25" fill="none" xmlns="http://www.w3.org/2000/svg">
<g clip-path="url(#clip0_2207_9563)">
<path d="M11.9531 24.0664C18.4922 24.0664 23.9062 18.6523 23.9062 12.1132C23.9062 5.58594 18.4805 0.160156 11.9414 0.160156C5.41406 0.160156 0 5.58594 0 12.1132C0 18.6523 5.42578 24.0664 11.9531 24.0664Z" fill="black" fill-opacity="0.85"/>
<path d="M6.91406 16.9882C5.70703 16.9882 4.99219 16.2851 4.99219 15.1015V9.14844C4.99219 7.94141 5.75391 7.25 6.91406 7.25H13.3594C14.5781 7.25 15.2109 7.94141 15.2109 9.14844V15.1015C15.2109 16.2851 14.5078 16.9882 13.3008 16.9882H6.91406ZM15.8906 13.7656V10.4726L18.2578 8.45703C18.4453 8.28125 18.7148 8.17578 18.9258 8.17578C19.3828 8.17578 19.6875 8.50391 19.6875 9.00782V15.2304C19.6875 15.7461 19.3828 16.0742 18.9258 16.0742C18.7148 16.0742 18.4688 15.9687 18.2578 15.7812L15.8906 13.7656Z" fill="white"/>
</g>
<defs>
<clipPath id="clip0_2207_9563">
<rect width="23.9062" height="23.918" fill="white" transform="translate(0 0.148438)"/>
</clipPath>
</defs>
</svg>
