<svg width="23" height="24" viewBox="0 0 23 24" fill="none" xmlns="http://www.w3.org/2000/svg">
<g clip-path="url(#clip0_2207_18882)">
<path d="M0.973145 7.625C1.59423 7.625 1.92236 7.27344 1.92236 6.66406V3.89844C1.92236 2.67969 2.56689 2.0586 3.73876 2.0586H6.5747C7.1958 2.0586 7.53564 1.71875 7.53564 1.10938C7.53564 0.499999 7.1958 0.171875 6.5747 0.171875H3.71533C1.26611 0.171875 0.0356445 1.37891 0.0356445 3.79297V6.66406C0.0356445 7.27344 0.375489 7.625 0.973145 7.625ZM22.0317 7.625C22.6528 7.625 22.9809 7.27344 22.9809 6.66406V3.79297C22.9809 1.37891 21.7504 0.171875 19.3012 0.171875H16.4301C15.8208 0.171875 15.4809 0.499999 15.4809 1.10938C15.4809 1.71875 15.8208 2.0586 16.4301 2.0586H19.2661C20.4262 2.0586 21.0942 2.67969 21.0942 3.89844V6.66406C21.0942 7.27344 21.434 7.625 22.0317 7.625ZM3.71533 23.1054H6.5747C7.1958 23.1054 7.53564 22.7656 7.53564 22.1679C7.53564 21.5586 7.1958 21.2187 6.5747 21.2187H3.73876C2.56689 21.2187 1.92236 20.5976 1.92236 19.3789V16.6132C1.92236 15.9922 1.58252 15.6523 0.973145 15.6523C0.36377 15.6523 0.0356445 15.9922 0.0356445 16.6132V19.4726C0.0356445 21.8984 1.26611 23.1054 3.71533 23.1054ZM16.4301 23.1054H19.3012C21.7504 23.1054 22.9809 21.8867 22.9809 19.4726V16.6132C22.9809 15.9922 22.6411 15.6523 22.0317 15.6523C21.4223 15.6523 21.0942 15.9922 21.0942 16.6132V19.3789C21.0942 20.5976 20.4262 21.2187 19.2661 21.2187H16.4301C15.8208 21.2187 15.4809 21.5586 15.4809 22.1679C15.4809 22.7656 15.8208 23.1054 16.4301 23.1054Z" fill="black" fill-opacity="0.85"/>
</g>
<defs>
<clipPath id="clip0_2207_18882">
<rect width="22.9453" height="22.957" fill="white" transform="translate(0.0356445 0.148438)"/>
</clipPath>
</defs>
</svg>
