<svg width="24" height="25" viewBox="0 0 24 25" fill="none" xmlns="http://www.w3.org/2000/svg">
<g clip-path="url(#clip0_2207_18886)">
<path d="M11.9909 24.0546C18.53 24.0546 23.944 18.6289 23.944 12.1015C23.944 5.5625 18.5183 0.148438 11.9792 0.148438C5.4519 0.148438 0.0378418 5.5625 0.0378418 12.1015C0.0378418 18.6289 5.46362 24.0546 11.9909 24.0546ZM11.9909 22.0625C6.45972 22.0625 2.04175 17.6328 2.04175 12.1015C2.04175 6.57032 6.448 2.14063 11.9792 2.14063C17.5105 2.14063 21.9519 6.57032 21.9519 12.1015C21.9519 17.6328 17.5222 22.0625 11.9909 22.0625Z" fill="black" fill-opacity="0.85"/>
<path d="M8.28784 6.27734C6.823 6.27734 6.06128 7.03905 6.06128 8.48046V10.0391C6.06128 10.5429 6.40112 10.8945 6.90503 10.8945C7.42065 10.8945 7.74878 10.5546 7.74878 10.0391V8.76171C7.74878 8.22265 7.99487 7.96484 8.53393 7.96484H9.83472C10.3503 7.96484 10.6901 7.62499 10.6901 7.13281C10.6901 6.61718 10.3503 6.27734 9.83472 6.27734H8.28784ZM15.4948 6.27734H13.948C13.4323 6.27734 13.0925 6.61718 13.0925 7.13281C13.0925 7.62499 13.4323 7.96484 13.948 7.96484H15.2487C15.7878 7.96484 16.0339 8.22265 16.0339 8.76171V10.0391C16.0339 10.5546 16.362 10.8945 16.8776 10.8945C17.3816 10.8945 17.7214 10.5429 17.7214 10.0391V8.48046C17.7214 7.03905 16.9597 6.27734 15.4948 6.27734ZM8.28784 17.9492H9.83472C10.3503 17.9492 10.6901 17.5976 10.6901 17.0937C10.6901 16.6015 10.3503 16.25 9.83472 16.25H8.53393C7.99487 16.25 7.74878 16.0039 7.74878 15.4531V14.1875C7.74878 13.6601 7.42065 13.332 6.90503 13.332C6.40112 13.332 6.06128 13.6718 6.06128 14.1875V15.7461C6.06128 17.1875 6.823 17.9492 8.28784 17.9492ZM15.4948 17.9492C16.9597 17.9492 17.7214 17.1875 17.7214 15.7461V14.1875C17.7214 13.6718 17.3816 13.332 16.8776 13.332C16.362 13.332 16.0339 13.6601 16.0339 14.1875V15.4531C16.0339 16.0039 15.7878 16.25 15.2487 16.25H13.948C13.4323 16.25 13.0925 16.6015 13.0925 17.0937C13.0925 17.5976 13.4323 17.9492 13.948 17.9492H15.4948Z" fill="black" fill-opacity="0.85"/>
</g>
<defs>
<clipPath id="clip0_2207_18886">
<rect width="23.9062" height="23.918" fill="white" transform="translate(0.0378418 0.148438)"/>
</clipPath>
</defs>
</svg>
