<svg width="28" height="22" viewBox="0 0 28 22" fill="none" xmlns="http://www.w3.org/2000/svg">
<g clip-path="url(#clip0_2207_14026)">
<path d="M0.979492 7.60156C1.60058 7.60156 1.92871 7.26172 1.92871 6.65235V3.88672C1.92871 2.66797 2.57324 2.03516 3.74511 2.03516H6.58105C7.20215 2.03516 7.54199 1.69532 7.54199 1.09766C7.54199 0.488281 7.20215 0.148438 6.58105 0.148438H3.72168C1.27246 0.148438 0.0419922 1.36719 0.0419922 3.78125V6.65235C0.0419922 7.26172 0.381836 7.60156 0.979492 7.60156ZM26.7373 7.60156C27.3467 7.60156 27.6748 7.26172 27.6748 6.65235V3.78125C27.6748 1.36719 26.4561 0.148438 23.9951 0.148438H21.1358C20.5147 0.148438 20.1748 0.488281 20.1748 1.09766C20.1748 1.69532 20.5147 2.03516 21.1358 2.03516H23.9717C25.1436 2.03516 25.7881 2.66797 25.7881 3.88672V6.65235C25.7881 7.26172 26.1279 7.60156 26.7373 7.60156ZM0.979492 14.2695C0.370117 14.2695 0.0419922 14.6211 0.0419922 15.2304V18.1015C0.0419922 20.5156 1.27246 21.7226 3.72168 21.7226H6.58105C7.20215 21.7226 7.54199 21.3945 7.54199 20.7851C7.54199 20.1757 7.20215 19.8359 6.58105 19.8359H3.74511C2.57324 19.8359 1.92871 19.2148 1.92871 17.9961V15.2304C1.92871 14.6211 1.58887 14.2695 0.979492 14.2695ZM26.7373 14.2695C26.1162 14.2695 25.7881 14.6211 25.7881 15.2304V17.9961C25.7881 19.2148 25.1436 19.8359 23.9717 19.8359H21.1358C20.5147 19.8359 20.1748 20.1757 20.1748 20.7851C20.1748 21.3945 20.5147 21.7226 21.1358 21.7226H23.9951C26.4561 21.7226 27.6748 20.5156 27.6748 18.1015V15.2304C27.6748 14.6211 27.335 14.2695 26.7373 14.2695Z" fill="black" fill-opacity="0.85"/>
</g>
<defs>
<clipPath id="clip0_2207_14026">
<rect width="27.6328" height="21.5742" fill="white" transform="translate(0.0419922 0.148438)"/>
</clipPath>
</defs>
</svg>
