<svg width="24" height="25" viewBox="0 0 24 25" fill="none" xmlns="http://www.w3.org/2000/svg">
<g clip-path="url(#clip0_2207_13922)">
<path d="M12.0161 24.0546C18.5552 24.0546 23.9692 18.6289 23.9692 12.1015C23.9692 5.5625 18.5435 0.148438 12.0044 0.148438C5.47705 0.148438 0.0629883 5.5625 0.0629883 12.1015C0.0629883 18.6289 5.48877 24.0546 12.0161 24.0546Z" fill="black" fill-opacity="0.85"/>
<path d="M12.0161 14.5859C10.938 14.5859 9.82471 16.3906 7.6919 16.3906C5.6294 16.3906 4.0708 14.5039 4.0708 12.0312C4.0708 8 7.6333 7.54297 12.0161 7.54297C16.4107 7.54297 19.9614 8 19.9614 12.0312C19.9614 14.5039 18.4028 16.3906 16.3403 16.3906C14.2075 16.3906 13.106 14.5859 12.0161 14.5859Z" fill="white"/>
</g>
<defs>
<clipPath id="clip0_2207_13922">
<rect width="23.9062" height="23.918" fill="white" transform="translate(0.0629883 0.148438)"/>
</clipPath>
</defs>
</svg>
