<svg width="34" height="20" viewBox="0 0 34 20" fill="none" xmlns="http://www.w3.org/2000/svg">
<g clip-path="url(#clip0_2207_13908)">
<path d="M16.6633 14.8437C18.9016 14.8437 21.2336 18.6172 25.6867 18.6172C30.0109 18.6172 33.2688 14.6914 33.2688 9.53516C33.2688 1.08594 25.8273 0.148438 16.6633 0.148438C7.48755 0.148438 0.0461426 1.09766 0.0461426 9.53516C0.0461426 14.6914 3.30395 18.6172 7.62817 18.6172C12.0813 18.6172 14.4133 14.8437 16.6633 14.8437ZM16.6633 12.957C13.2766 12.957 11.7297 16.7304 7.62817 16.7304C4.17114 16.7304 1.93286 13.9882 1.93286 9.53516C1.93286 2.73828 7.68676 2.03516 16.6633 2.03516C25.6281 2.03516 31.382 2.72656 31.382 9.53516C31.382 13.9882 29.1438 16.7304 25.6867 16.7304C21.5852 16.7304 20.0383 12.957 16.6633 12.957Z" fill="black" fill-opacity="0.85"/>
<path d="M16.6633 12.957C13.2766 12.957 11.7297 16.7304 7.62817 16.7304C4.17114 16.7304 1.93286 13.9882 1.93286 9.53516C1.93286 2.73828 7.68676 2.03516 16.6633 2.03516C25.6281 2.03516 31.382 2.72656 31.382 9.53516C31.382 13.9882 29.1438 16.7304 25.6867 16.7304C21.5852 16.7304 20.0383 12.957 16.6633 12.957Z" fill="black" fill-opacity="0.85"/>
</g>
<defs>
<clipPath id="clip0_2207_13908">
<rect width="33.2227" height="18.9023" fill="white" transform="translate(0.0461426 0.148438)"/>
</clipPath>
</defs>
</svg>
