<svg width="38" height="20" viewBox="0 0 38 20" fill="none" xmlns="http://www.w3.org/2000/svg">
<g clip-path="url(#clip0_2207_13983)">
<path d="M0.952759 10.6953C0.460571 10.6953 0.050415 10.2734 0.050415 9.76953C0.050415 9.26563 0.460571 8.83203 0.952759 8.83203H10.6559L12.191 8.90235L10.0348 6.91016C9.09729 6.05469 10.3981 4.84766 11.1949 5.69141L14.4645 9.08985C14.6871 9.32422 14.7692 9.53516 14.7692 9.76953C14.7692 10.0039 14.6871 10.2031 14.4645 10.4375L11.2066 13.8242C10.3981 14.6679 9.14417 13.414 10.0348 12.6172L12.191 10.625L10.6559 10.6953H0.952759ZM20.6754 14.8437C22.9137 14.8437 25.2457 18.6172 29.6988 18.6172C34.0231 18.6172 37.2809 14.6914 37.2809 9.53516C37.2809 1.08594 29.8512 0.148438 20.6754 0.148438C11.4996 0.148438 4.05823 1.09766 4.05823 9.53516C4.05823 14.6914 7.32775 18.6172 11.6402 18.6172C16.1051 18.6172 18.4254 14.8437 20.6754 14.8437Z" fill="black" fill-opacity="0.85"/>
</g>
<defs>
<clipPath id="clip0_2207_13983">
<rect width="37.2305" height="18.9023" fill="white" transform="translate(0.050415 0.148438)"/>
</clipPath>
</defs>
</svg>
