<svg width="24" height="25" viewBox="0 0 24 25" fill="none" xmlns="http://www.w3.org/2000/svg">
<g clip-path="url(#clip0_2207_3185)">
<path d="M15.9746 6.24219C17.0176 4.34375 17.3692 2.58594 16.7363 1.14453C15.2715 0.511719 13.666 0.148438 11.9902 0.148438C8.58007 0.148438 5.46289 1.63672 3.29492 3.99219C7.50195 2.33985 13.127 4.00391 15.9746 6.24219ZM11.2168 11.9375C12.8106 10.4843 14.1465 9.01953 15.1426 7.57813C11.9199 5.02344 5.21679 3.33594 1.38476 6.67578C0.646484 8.04688 0.189453 9.59375 0.0839844 11.2461C2.88476 9.35938 7.51367 10.3906 11.2168 11.9375ZM3.93945 11.7031C2.31054 11.6562 0.927734 12.0546 0.0839844 13.0859C0.49414 17.9609 3.93945 22.0742 8.49804 23.4804C6.31836 20.9492 4.0332 16.5078 3.93945 11.7031ZM10.7012 13.3906C8.97851 12.6523 7.15039 12.0781 5.4746 11.8672C5.69726 18.1015 9.71679 23.3632 11.6504 24.0546C13.2207 24.0781 14.6621 23.832 15.9395 23.3632C13.0567 21.6523 10.8652 17.0351 10.7012 13.3906ZM17.9317 22.4492C21.5059 20.375 23.9551 16.4843 23.9551 12.1015C23.9551 10.6836 23.6856 9.3125 23.2168 8.04688C22.4434 11.2109 20.0293 15.8281 14.5801 19.9882C15.5645 21.3945 16.7481 22.3554 17.9317 22.4492ZM13.7832 18.6757C20.6738 13.2851 22.3613 7.40235 22.0215 5.63282C21.084 4.21485 19.8652 2.9961 18.4356 2.07032C18.8692 5.49219 16.0098 9.66406 12.2129 13.0859C12.2832 14.9609 12.8809 16.9765 13.7832 18.6757Z" fill="black" fill-opacity="0.85"/>
</g>
<defs>
<clipPath id="clip0_2207_3185">
<rect width="23.8711" height="23.918" fill="white" transform="translate(0.0839844 0.148438)"/>
</clipPath>
</defs>
</svg>
