<svg width="24" height="25" viewBox="0 0 24 25" fill="none" xmlns="http://www.w3.org/2000/svg">
<g clip-path="url(#clip0_2207_3181)">
<path d="M16.8354 22.6132L17.1167 21.1132C14.4799 21.0781 12.7456 16.707 12.2534 13.0859C16.8354 8.9375 20.0698 3.71094 17.644 1.67188L16.6479 2.82032C18.0073 3.94532 15.5346 8.04688 11.2573 11.9375C7.01514 10.1796 2.7378 9.51172 0.593262 11.9843L1.69483 12.8281C3.22998 11.1992 6.68702 11.6914 10.7417 13.3906C11.2924 17.2109 13.3198 22.4023 16.8354 22.6132ZM13.9409 18.8867C21.7338 14.164 22.8588 8.0586 22.2495 6.06641L20.7846 6.5C21.2299 7.98828 20.269 13.3906 12.9565 17.7148L13.9409 18.8867ZM10.7885 23.7031L11.937 22.4843C10.0269 21.957 5.83155 18.0312 5.7378 11.3046L4.20264 11.4336C4.30811 18.1015 8.3042 22.4961 10.7885 23.7031ZM15.101 8.26953L15.769 6.89844C12.4643 4.74219 6.6753 2.9375 2.16358 5.96094L2.26905 7.56641C6.28858 4.47266 11.8081 6.13672 15.101 8.26953ZM12.0307 0.148438C5.50342 0.148438 0.0776367 5.5625 0.0776367 12.1015C0.0776367 18.6289 5.51514 24.0546 12.0424 24.0546C18.5815 24.0546 23.9838 18.6289 23.9838 12.1015C23.9838 5.5625 18.5698 0.148438 12.0307 0.148438ZM12.0307 1.74219C17.6909 1.74219 22.3901 6.44141 22.3901 12.1015C22.3901 17.7617 17.7026 22.4609 12.0424 22.4609C6.38233 22.4609 1.67139 17.7617 1.67139 12.1015C1.67139 6.44141 6.37061 1.74219 12.0307 1.74219Z" fill="black" fill-opacity="0.85"/>
</g>
<defs>
<clipPath id="clip0_2207_3181">
<rect width="23.9062" height="23.918" fill="white" transform="translate(0.0776367 0.148438)"/>
</clipPath>
</defs>
</svg>
