<svg width="20" height="26" viewBox="0 0 20 26" fill="none" xmlns="http://www.w3.org/2000/svg">
<g clip-path="url(#clip0_2207_10168)">
<path d="M3.63501 25.2754H16.0803C18.4944 25.2754 19.7131 24.0449 19.7131 21.6074V3.83008C19.7131 1.38086 18.5061 0.150391 16.0803 0.150391H13.1038C12.7053 0.150391 12.4358 0.431641 12.4358 0.853516C12.4358 0.91211 12.4358 0.970703 12.4358 1.01758C12.4358 2.54101 11.4045 3.45508 9.85767 3.45508C8.31079 3.45508 7.27954 2.54101 7.27954 1.01758C7.27954 0.970703 7.27954 0.91211 7.27954 0.853516C7.27954 0.431641 7.01001 0.150391 6.61158 0.150391H3.63501C1.20923 0.150391 0.00219727 1.38086 0.00219727 3.83008V21.6074C0.00219727 24.0449 1.22095 25.2754 3.63501 25.2754ZM5.41626 8.88086C4.99439 8.88086 4.6897 8.56445 4.6897 8.14258C4.6897 7.74414 4.99439 7.42773 5.41626 7.42773H14.3108C14.721 7.42773 15.0256 7.74414 15.0256 8.14258C15.0256 8.56445 14.721 8.88086 14.3108 8.88086H5.41626ZM5.41626 13.041C4.99439 13.041 4.6897 12.7246 4.6897 12.3262C4.6897 11.916 4.99439 11.5996 5.41626 11.5996H9.62329C10.0452 11.5996 10.3499 11.916 10.3499 12.3262C10.3499 12.7246 10.0452 13.041 9.62329 13.041H5.41626Z" fill="black" fill-opacity="0.85"/>
</g>
<defs>
<clipPath id="clip0_2207_10168">
<rect width="19.7109" height="25.1367" fill="white" transform="translate(0.00219727 0.150391)"/>
</clipPath>
</defs>
</svg>
