<svg width="26" height="24" viewBox="0 0 26 24" fill="none" xmlns="http://www.w3.org/2000/svg">
<g clip-path="url(#clip0_2207_10194)">
<path d="M23.3521 23.2598C23.8442 23.7637 24.688 23.7637 25.1567 23.2598C25.6372 22.7442 25.6372 21.9473 25.1567 21.4551L14.0122 10.2754C13.52 9.7832 12.6763 9.7832 12.2075 10.2754C11.7153 10.791 11.7271 11.5996 12.2075 12.0918L23.3521 23.2598ZM16.5317 15.209L13.0981 11.7637C12.8872 11.5527 12.8169 11.3184 13.0278 11.1192C13.2036 10.9316 13.4497 10.9785 13.6724 11.2012L17.1177 14.6465L16.5317 15.209Z" fill="black" fill-opacity="0.85"/>
<path d="M8.90283 23.4473C9.11377 23.4473 9.26611 23.2949 9.30127 23.0723C9.67627 19.9434 9.82861 19.8613 13.0161 19.3457C13.2622 19.2988 13.4145 19.1816 13.4145 18.9473C13.4145 18.7246 13.2622 18.584 13.063 18.5488C9.85205 17.9395 9.67627 17.9512 9.30127 14.8223C9.26611 14.5996 9.11377 14.4473 8.90283 14.4473C8.68018 14.4473 8.52783 14.5996 8.50439 14.8106C8.09424 17.9863 7.98877 18.0918 4.74268 18.5488C4.54346 18.5723 4.39111 18.7246 4.39111 18.9473C4.39111 19.1699 4.54346 19.2988 4.74268 19.3457C7.98877 19.9668 8.08252 19.9668 8.50439 23.0957C8.52783 23.2949 8.68018 23.4473 8.90283 23.4473ZM3.33642 13.2402C3.50049 13.2402 3.59424 13.1231 3.62939 12.9707C4.02783 10.7442 4.03955 10.6035 6.39502 10.2051C6.54736 10.1699 6.66455 10.0762 6.66455 9.91211C6.66455 9.74805 6.54736 9.64258 6.39502 9.61914C4.03955 9.20898 4.02783 9.06836 3.62939 6.8418C3.59424 6.68945 3.50049 6.58398 3.33642 6.58398C3.17236 6.58398 3.07861 6.68945 3.04346 6.8418C2.64502 9.06836 2.6333 9.20898 0.277832 9.61914C0.125489 9.64258 0.00830078 9.74805 0.00830078 9.91211C0.00830078 10.0762 0.125489 10.1699 0.277832 10.2051C2.6333 10.6035 2.64502 10.7442 3.04346 12.9707C3.07861 13.1231 3.17236 13.2402 3.33642 13.2402ZM9.7583 5.74023C9.89892 5.74023 9.96924 5.6582 9.99268 5.5293C10.3911 3.6543 10.3677 3.58398 12.3364 3.18555C12.4653 3.16211 12.5591 3.08008 12.5591 2.95117C12.5591 2.81055 12.4653 2.72851 12.3364 2.70508C10.3677 2.30664 10.3911 2.23633 9.99268 0.373047C9.96924 0.244141 9.89892 0.150391 9.7583 0.150391C9.61768 0.150391 9.54736 0.244141 9.52392 0.373047C9.12549 2.23633 9.14892 2.30664 7.18018 2.70508C7.05127 2.72851 6.95752 2.81055 6.95752 2.95117C6.95752 3.08008 7.05127 3.16211 7.18018 3.18555C9.14892 3.58398 9.12549 3.6543 9.52392 5.5293C9.54736 5.6582 9.61768 5.74023 9.7583 5.74023ZM19.438 9.87695C19.6021 9.87695 19.6958 9.77148 19.731 9.61914C20.1294 7.39258 20.1411 7.25195 22.4966 6.8418C22.6606 6.81836 22.7661 6.71289 22.7661 6.54883C22.7661 6.38477 22.6606 6.29101 22.4966 6.25586C20.1411 5.85742 20.1294 5.7168 19.731 3.49023C19.6958 3.33789 19.6021 3.2207 19.438 3.2207C19.2739 3.2207 19.1802 3.33789 19.145 3.49023C18.7466 5.7168 18.7349 5.85742 16.3794 6.25586C16.2271 6.29101 16.1099 6.38477 16.1099 6.54883C16.1099 6.71289 16.2271 6.81836 16.3794 6.8418C18.7349 7.25195 18.7466 7.39258 19.145 9.61914C19.1802 9.77148 19.2739 9.87695 19.438 9.87695Z" fill="black" fill-opacity="0.85"/>
</g>
<defs>
<clipPath id="clip0_2207_10194">
<rect width="25.5088" height="23.543" fill="white" transform="translate(0.00830078 0.150391)"/>
</clipPath>
</defs>
</svg>
