<svg width="20" height="28" viewBox="0 0 20 28" fill="none" xmlns="http://www.w3.org/2000/svg">
<g clip-path="url(#clip0_2207_14076)">
<path d="M4.52515 6.31445L9.24781 6.11523L13.9587 6.29101V1.39258C13.9587 0.654297 13.4313 0.162109 12.6696 0.162109L5.81421 0.173828C5.06421 0.173828 4.52515 0.666016 4.52515 1.4043V6.31445ZM5.81421 27.877L12.6696 27.8887C13.4313 27.8887 13.9587 27.3848 13.9587 26.6582V21.7246L9.24781 21.8887L4.52515 21.7129V26.6465C4.52515 27.3731 5.06421 27.877 5.81421 27.877ZM9.24781 23.2246C14.3923 23.2246 18.4587 19.1582 18.4587 14.0137C18.4587 8.85742 14.3923 4.79101 9.24781 4.79101C4.09156 4.79101 0.0251465 8.85742 0.0251465 14.0137C0.0251465 19.1582 4.09156 23.2246 9.24781 23.2246ZM9.24781 21.4551C4.82984 21.4551 1.79468 18.4316 1.79468 14.0137C1.79468 9.5957 4.82984 6.56055 9.24781 6.56055C13.654 6.56055 16.6892 9.5957 16.6892 14.0137C16.6892 18.4316 13.654 21.4551 9.24781 21.4551ZM17.8259 15.7832H19.0212C19.361 15.7832 19.6071 15.5371 19.6071 15.1856V12.8184C19.6071 12.4785 19.361 12.2207 19.0212 12.2207H17.8259V15.7832Z" fill="black" fill-opacity="0.85"/>
<path d="M9.98607 14.6699L13.736 11.4004C14.0642 11.1074 14.0642 10.6035 13.7478 10.2754C13.4548 9.98244 12.9743 9.99416 12.6345 10.2754L9.24779 13.2168L7.11497 11.4238C6.79857 11.1543 6.30638 11.2012 6.01341 11.5293C5.73216 11.8574 5.77904 12.3613 6.11888 12.6543L8.52122 14.6699C9.01341 15.1035 9.5056 15.1035 9.98607 14.6699Z" fill="black" fill-opacity="0.85"/>
</g>
<defs>
<clipPath id="clip0_2207_14076">
<rect width="19.582" height="27.7383" fill="white" transform="translate(0.0251465 0.150391)"/>
</clipPath>
</defs>
</svg>
