<svg width="28" height="22" viewBox="0 0 28 22" fill="none" xmlns="http://www.w3.org/2000/svg">
<g clip-path="url(#clip0_2207_21578)">
<path d="M3.77637 21.7246H24.0498C26.5108 21.7246 27.7295 20.5176 27.7295 18.1035V3.7832C27.7295 1.36914 26.5108 0.150391 24.0498 0.150391H3.77637C1.32715 0.150391 0.0966797 1.36914 0.0966797 3.7832V18.1035C0.0966797 20.5176 1.32715 21.7246 3.77637 21.7246ZM3.7998 19.8379C2.62793 19.8379 1.9834 19.2168 1.9834 17.9981V3.88867C1.9834 2.66992 2.62793 2.03711 3.7998 2.03711H24.0264C25.1865 2.03711 25.8428 2.66992 25.8428 3.88867V17.9981C25.8428 19.2168 25.1865 19.8379 24.0264 19.8379H3.7998Z" fill="black" fill-opacity="0.85"/>
<path d="M1.99512 11.963H4.80762C5.28809 11.963 5.51074 11.7403 5.6748 11.3302L7.16309 7.73251L9.88184 16.463C10.0811 17.1075 11.124 17.0958 11.335 16.4278L12.7529 11.963H15.5186C15.999 11.963 16.21 11.7403 16.3858 11.3302L17.9209 7.73251L20.6514 16.463C20.8506 17.1075 21.8936 17.0958 22.0928 16.4278L23.5225 11.963H25.8545V10.4513H23.1006C22.6201 10.4513 22.374 10.6857 22.2334 11.0841L21.3662 13.5333L18.6358 5.28329C18.4248 4.65048 17.4756 4.65048 17.2061 5.31845L15.0967 10.4513H12.3311C11.8623 10.4513 11.6162 10.6857 11.4639 11.0841L10.5967 13.5333L7.86621 5.28329C7.66699 4.65048 6.70606 4.65048 6.43652 5.31845L4.32715 10.4513H1.99512V11.963Z" fill="black" fill-opacity="0.85"/>
</g>
<defs>
<clipPath id="clip0_2207_21578">
<rect width="27.6328" height="21.5742" fill="white" transform="translate(0.0966797 0.150391)"/>
</clipPath>
</defs>
</svg>
