<svg width="26" height="26" viewBox="0 0 26 26" fill="none" xmlns="http://www.w3.org/2000/svg">
<g clip-path="url(#clip0_2207_21644)">
<path d="M21.5186 16.6792C22.0576 16.6792 22.4678 16.2574 22.4678 15.7417V10.1519C22.4678 9.63623 22.0576 9.20264 21.5186 9.20264C20.9795 9.20264 20.5811 9.63623 20.5811 10.1519V15.7417C20.5811 16.2574 20.9795 16.6792 21.5186 16.6792Z" fill="black" fill-opacity="0.85"/>
<path d="M17.5811 19.5972C18.1084 19.5972 18.5303 19.1753 18.5303 18.648V4.24561C18.5303 3.72998 18.1084 3.29639 17.5811 3.29639C17.042 3.29639 16.6436 3.72998 16.6436 4.24561V18.648C16.6436 19.1753 17.042 19.5972 17.5811 19.5972Z" fill="black" fill-opacity="0.85"/>
<path d="M13.6436 20.0542C14.1709 20.0542 14.5811 19.6441 14.5811 19.1167V7.79639C14.5811 7.26904 14.1709 6.84717 13.6436 6.84717C13.0928 6.84717 12.6943 7.26904 12.6943 7.79639V19.1167C12.6943 19.6441 13.0928 20.0542 13.6436 20.0542Z" fill="black" fill-opacity="0.85"/>
<path d="M9.68262 25.1871C10.2334 25.1871 10.6436 24.7652 10.6436 24.2378V1.65576C10.6436 1.12842 10.2334 0.706543 9.68262 0.706543C9.15527 0.706543 8.75684 1.12842 8.75684 1.65576V24.2378C8.75684 24.7652 9.15527 25.1871 9.68262 25.1871Z" fill="black" fill-opacity="0.85"/>
<path d="M5.74512 20.4644C6.28418 20.4644 6.70605 20.0425 6.70605 19.5152V6.37842C6.70605 5.85107 6.28418 5.41748 5.74512 5.41748C5.21777 5.41748 4.81934 5.85107 4.81934 6.37842V19.5152C4.81934 20.0425 5.21777 20.4644 5.74512 20.4644Z" fill="black" fill-opacity="0.85"/>
<path d="M1.80762 15.6713C2.34668 15.6713 2.75684 15.2495 2.75684 14.7221V11.1713C2.75684 10.644 2.34668 10.2104 1.80762 10.2104C1.26855 10.2104 0.870117 10.644 0.870117 11.1713V14.7221C0.870117 15.2495 1.26855 15.6713 1.80762 15.6713Z" fill="black" fill-opacity="0.85"/>
<path d="M21.6826 25.0464C22.585 25.9371 24.0381 25.9371 24.917 25.023C25.7842 24.1324 25.7842 22.7261 24.9053 21.8355L3.88184 0.823737C3.00293 -0.0668876 1.5498 -0.0786056 0.65918 0.823737C-0.219727 1.69093 -0.219727 3.15577 0.65918 4.03468L21.6826 25.0464Z" fill="white"/>
<path d="M22.6553 24.0855C23.0068 24.4371 23.5928 24.4371 23.9326 24.0855C24.2842 23.7222 24.2842 23.1597 23.9326 22.8081L2.9209 1.78467C2.56934 1.43311 1.9834 1.43311 1.63184 1.78467C1.28027 2.12451 1.28027 2.72217 1.63184 3.06201L22.6553 24.0855Z" fill="black" fill-opacity="0.85"/>
</g>
<defs>
<clipPath id="clip0_2207_21644">
<rect width="25.5659" height="25.5908" fill="white" transform="translate(0 0.151367)"/>
</clipPath>
</defs>
</svg>
