<svg width="17" height="29" viewBox="0 0 17 29" fill="none" xmlns="http://www.w3.org/2000/svg">
<g clip-path="url(#clip0_2207_15064)">
<path d="M16.9727 14.0897C16.9727 9.13261 15.4258 4.51542 12.6719 0.69511C11.8282 -0.488484 10.1055 0.542766 11.0196 1.77323C13.586 5.30058 14.9571 9.55448 14.9571 14.0897C14.9571 18.6248 13.5743 22.867 11.0196 26.3943C10.129 27.6131 11.793 28.7029 12.6719 27.4842C15.4258 23.6522 16.9727 19.035 16.9727 14.0897Z" fill="black" fill-opacity="0.85"/>
<path d="M10.586 14.0893C10.586 10.4096 9.42583 6.95251 7.3399 4.15173C6.4024 2.89782 4.77349 4.10485 5.6524 5.25329C7.56255 7.7611 8.58208 10.8197 8.58208 14.0893C8.58208 17.3588 7.56255 20.4174 5.6524 22.9252C4.77349 24.0736 6.4024 25.2807 7.3399 24.015C9.42583 21.2143 10.586 17.7689 10.586 14.0893Z" fill="black" fill-opacity="0.85"/>
<path d="M4.22273 14.0896C4.22273 11.6755 3.3907 9.42548 1.91414 7.66766C0.941485 6.51923 -0.476484 7.82001 0.250079 8.75751C1.66804 10.5388 2.2071 12.0271 2.2071 14.0896C2.2071 16.1521 1.66804 17.6403 0.250079 19.4216C-0.464765 20.3474 0.953204 21.6364 1.91414 20.4997C3.3907 18.7536 4.22273 16.5036 4.22273 14.0896Z" fill="black" fill-opacity="0.85"/>
</g>
<defs>
<clipPath id="clip0_2207_15064">
<rect width="16.9223" height="27.8664" fill="white" transform="translate(0.050415 0.150391)"/>
</clipPath>
</defs>
</svg>
