<svg width="24" height="25" viewBox="0 0 24 25" fill="none" xmlns="http://www.w3.org/2000/svg">
<g clip-path="url(#clip0_2207_15030)">
<path d="M11.9992 24.0566C18.5383 24.0566 23.9523 18.6309 23.9523 12.1035C23.9523 5.56445 18.5266 0.150391 11.9875 0.150391C5.4602 0.150391 0.0461426 5.56445 0.0461426 12.1035C0.0461426 18.6309 5.47192 24.0566 11.9992 24.0566ZM11.9992 22.0645C6.46802 22.0645 2.05005 17.6348 2.05005 12.1035C2.05005 6.57227 6.4563 2.14258 11.9875 2.14258C17.5188 2.14258 21.9602 6.57227 21.9602 12.1035C21.9602 17.6348 17.5305 22.0645 11.9992 22.0645Z" fill="black" fill-opacity="0.85"/>
<path d="M7.11255 12.0919C7.11255 14.7872 7.90942 17.3888 9.33911 19.4513C9.63208 19.8263 10.1125 19.9317 10.4758 19.6739C10.8508 19.4044 10.9094 18.9239 10.6281 18.5255C9.3977 16.7677 8.68286 14.4474 8.68286 12.0919C8.68286 9.71304 9.38598 7.42789 10.6281 5.65836C10.9094 5.27164 10.8508 4.77945 10.4758 4.50992C10.1008 4.2521 9.62036 4.34586 9.33911 4.7443C7.90942 6.81852 7.11255 9.42007 7.11255 12.0919Z" fill="black" fill-opacity="0.85"/>
<path d="M10.7805 12.092C10.7805 14.049 11.3547 15.9475 12.3977 17.4006C12.6789 17.7873 13.1477 17.8694 13.5227 17.6115C13.8742 17.3654 13.9563 16.8733 13.675 16.4631C12.843 15.3147 12.3742 13.7326 12.3742 12.092C12.3742 10.4631 12.843 8.88102 13.675 7.73258C13.9563 7.32243 13.8742 6.83024 13.5227 6.58414C13.1477 6.31461 12.6789 6.40836 12.3977 6.78336C11.3547 8.21305 10.7805 10.0998 10.7805 12.092Z" fill="black" fill-opacity="0.85"/>
<path d="M14.4485 12.0917C14.4485 13.3222 14.8118 14.5409 15.4329 15.3612C15.6907 15.7245 16.1829 15.83 16.5462 15.5839C16.9446 15.2909 17.015 14.7987 16.7103 14.3769C16.2884 13.8026 16.0423 12.9472 16.0423 12.0917C16.0423 11.2128 16.2884 10.3573 16.7103 9.81825C17.0267 9.39637 16.9564 8.88075 16.5462 8.5995C16.1829 8.36512 15.7024 8.47059 15.4329 8.82216C14.8118 9.68934 14.4485 10.8964 14.4485 12.0917Z" fill="black" fill-opacity="0.85"/>
</g>
<defs>
<clipPath id="clip0_2207_15030">
<rect width="23.9062" height="23.918" fill="white" transform="translate(0.0461426 0.150391)"/>
</clipPath>
</defs>
</svg>
