<svg width="24" height="25" viewBox="0 0 24 25" fill="none" xmlns="http://www.w3.org/2000/svg">
<g clip-path="url(#clip0_2207_15017)">
<path d="M12.0141 24.0684C18.5532 24.0684 23.9672 18.6543 23.9672 12.1152C23.9672 5.58789 18.5415 0.162109 12.0024 0.162109C5.47509 0.162109 0.0610352 5.58789 0.0610352 12.1152C0.0610352 18.6543 5.48682 24.0684 12.0141 24.0684Z" fill="black" fill-opacity="0.85"/>
<path d="M6.98682 12.1153C6.98682 9.34973 7.80713 6.67785 9.2837 4.53332C9.56495 4.11145 10.0688 4.0177 10.4555 4.29895C10.8422 4.5802 10.9008 5.07239 10.6196 5.48254C9.33057 7.29895 8.61573 9.65442 8.61573 12.1153C8.61573 14.5411 9.34229 16.92 10.6196 18.7482C10.9008 19.1466 10.8422 19.6388 10.4555 19.9317C10.0805 20.1896 9.57666 20.0958 9.2837 19.6857C7.80713 17.5763 6.98682 14.881 6.98682 12.1153Z" fill="white"/>
<path d="M10.7603 12.115C10.7603 10.0642 11.358 8.10722 12.4361 6.64238C12.7291 6.24394 13.2095 6.15019 13.5963 6.41972C13.9595 6.67753 14.0533 7.19316 13.7603 7.61503C12.9049 8.79863 12.4127 10.4275 12.4127 12.115C12.4127 13.7908 12.9049 15.4197 13.7603 16.6033C14.0533 17.0252 13.9595 17.5408 13.5963 17.7986C13.2095 18.0799 12.7291 17.9744 12.4361 17.5877C11.358 16.076 10.7603 14.119 10.7603 12.115Z" fill="white"/>
<path d="M14.5454 12.1154C14.5454 10.885 14.9204 9.63109 15.5649 8.72874C15.8344 8.36546 16.3383 8.26 16.7133 8.50609C17.1352 8.79906 17.2172 9.3264 16.8891 9.76C16.4555 10.3342 16.1977 11.2014 16.1977 12.1154C16.1977 12.9944 16.4555 13.8615 16.8891 14.4592C17.2055 14.8928 17.1235 15.3967 16.7133 15.7014C16.3383 15.9592 15.8227 15.8537 15.5649 15.4787C14.9204 14.635 14.5454 13.3811 14.5454 12.1154Z" fill="white"/>
</g>
<defs>
<clipPath id="clip0_2207_15017">
<rect width="23.9062" height="23.918" fill="white" transform="translate(0.0610352 0.150391)"/>
</clipPath>
</defs>
</svg>
