<svg width="24" height="25" viewBox="0 0 24 25" fill="none" xmlns="http://www.w3.org/2000/svg">
<g clip-path="url(#clip0_2207_21624)">
<path d="M12.0371 24.0566C18.5762 24.0566 23.9902 18.6309 23.9902 12.1035C23.9902 5.56445 18.5645 0.150391 12.0254 0.150391C5.49804 0.150391 0.0839844 5.56445 0.0839844 12.1035C0.0839844 18.6309 5.50976 24.0566 12.0371 24.0566ZM12.0371 22.0645C6.50586 22.0645 2.08789 17.6348 2.08789 12.1035C2.08789 6.57227 6.49414 2.14258 12.0254 2.14258C17.5567 2.14258 21.9981 6.57227 21.9981 12.1035C21.9981 17.6348 17.5684 22.0645 12.0371 22.0645Z" fill="black" fill-opacity="0.85"/>
<path d="M17.9785 14.2949C18.377 14.2949 18.6699 14.002 18.6699 13.5918V10.5918C18.6699 10.1816 18.377 9.88867 17.9785 9.88867C17.5684 9.88867 17.2637 10.1934 17.2637 10.5918V13.5918C17.2637 13.9902 17.5684 14.2949 17.9785 14.2949Z" fill="black" fill-opacity="0.85"/>
<path d="M15.5879 16.9434C15.9863 16.9434 16.291 16.6387 16.291 16.2402V7.94336C16.291 7.54492 15.9863 7.24023 15.5879 7.24023C15.1895 7.24023 14.8848 7.54492 14.8848 7.94336V16.2402C14.8848 16.6387 15.1895 16.9434 15.5879 16.9434Z" fill="black" fill-opacity="0.85"/>
<path d="M13.209 14.752C13.6074 14.752 13.9121 14.4473 13.9121 14.0606V10.1231C13.9121 9.73633 13.6074 9.41992 13.209 9.41992C12.8223 9.41992 12.5059 9.73633 12.5059 10.1231V14.0606C12.5059 14.4473 12.8223 14.752 13.209 14.752Z" fill="black" fill-opacity="0.85"/>
<path d="M10.8418 18.584C11.2285 18.584 11.5332 18.2793 11.5332 17.8692V6.31445C11.5332 5.91601 11.2285 5.61133 10.8418 5.61133C10.4434 5.61133 10.127 5.91601 10.127 6.31445V17.8692C10.127 18.291 10.4317 18.584 10.8418 18.584Z" fill="black" fill-opacity="0.85"/>
<path d="M8.4629 15.8301C8.86133 15.8301 9.16602 15.5137 9.16602 15.1152V9.05665C9.16602 8.65821 8.86133 8.35352 8.4629 8.35352C8.06446 8.35352 7.75977 8.65821 7.75977 9.05665V15.1152C7.75977 15.5137 8.06446 15.8301 8.4629 15.8301Z" fill="black" fill-opacity="0.85"/>
<path d="M6.07226 13.8262C6.48242 13.8262 6.7871 13.5098 6.7871 13.1231V11.0606C6.7871 10.6738 6.48242 10.3574 6.07226 10.3574C5.68554 10.3574 5.38086 10.6738 5.38086 11.0606V13.1231C5.38086 13.5098 5.69726 13.8262 6.07226 13.8262Z" fill="black" fill-opacity="0.85"/>
</g>
<defs>
<clipPath id="clip0_2207_21624">
<rect width="23.9062" height="23.918" fill="white" transform="translate(0.0839844 0.150391)"/>
</clipPath>
</defs>
</svg>
