<svg width="24" height="25" viewBox="0 0 24 25" fill="none" xmlns="http://www.w3.org/2000/svg">
<g clip-path="url(#clip0_2207_15057)">
<path d="M12.0202 24.0684C18.5593 24.0684 23.9733 18.6543 23.9733 12.1152C23.9733 5.58789 18.5476 0.162109 12.0085 0.162109C5.4812 0.162109 0.0671387 5.58789 0.0671387 12.1152C0.0671387 18.6543 5.49292 24.0684 12.0202 24.0684Z" fill="black" fill-opacity="0.85"/>
<path d="M17.0944 12.1153C17.0944 14.881 16.2859 17.5763 14.7976 19.6857C14.5046 20.0958 14.0007 20.1896 13.6374 19.9317C13.2507 19.6388 13.1804 19.1466 13.4616 18.7482C14.7507 16.92 15.4655 14.5411 15.4655 12.1153C15.4655 9.65442 14.7624 7.29895 13.4616 5.48254C13.1804 5.07239 13.2507 4.5802 13.6374 4.29895C14.0124 4.0177 14.5163 4.11145 14.7976 4.53332C16.2859 6.67785 17.0944 9.34973 17.0944 12.1153Z" fill="white"/>
<path d="M13.3211 12.115C13.3211 14.119 12.7234 16.076 11.6453 17.5877C11.3524 17.9744 10.8719 18.0799 10.4969 17.7986C10.1219 17.5408 10.0282 17.0252 10.3211 16.6033C11.1766 15.4197 11.6688 13.7908 11.6688 12.115C11.6688 10.4275 11.1766 8.79863 10.3211 7.61503C10.0282 7.19316 10.1219 6.67753 10.4969 6.41972C10.8719 6.15019 11.3524 6.24394 11.6453 6.64238C12.7234 8.10722 13.3211 10.0642 13.3211 12.115Z" fill="white"/>
<path d="M9.5358 12.1154C9.5358 13.3811 9.1608 14.635 8.52799 15.4787C8.25846 15.8537 7.75455 15.9592 7.37955 15.7014C6.96939 15.3967 6.88736 14.8928 7.19205 14.4592C7.62564 13.8615 7.88346 12.9944 7.88346 12.1154C7.88346 11.2014 7.62564 10.3342 7.19205 9.76C6.87564 9.3264 6.95767 8.79906 7.37955 8.50609C7.75455 8.26 8.24674 8.36546 8.52799 8.72874C9.1608 9.63109 9.5358 10.885 9.5358 12.1154Z" fill="white"/>
</g>
<defs>
<clipPath id="clip0_2207_15057">
<rect width="23.9062" height="23.918" fill="white" transform="translate(0.0671387 0.150391)"/>
</clipPath>
</defs>
</svg>
