<svg width="22" height="25" viewBox="0 0 22 25" fill="none" xmlns="http://www.w3.org/2000/svg">
<g clip-path="url(#clip0_2207_21615)">
<path d="M20.7178 16.1231C21.2452 16.1231 21.6671 15.7012 21.6671 15.1856V9.5957C21.6671 9.08008 21.2452 8.64648 20.7178 8.64648C20.1788 8.64648 19.7803 9.08008 19.7803 9.5957V15.1856C19.7803 15.7012 20.1788 16.1231 20.7178 16.1231Z" fill="black" fill-opacity="0.85"/>
<path d="M16.7803 22.0293C17.3077 22.0293 17.7178 21.6074 17.7178 21.0918V3.68945C17.7178 3.17383 17.3077 2.74023 16.7803 2.74023C16.2296 2.74023 15.8311 3.17383 15.8311 3.68945V21.0918C15.8311 21.6074 16.2296 22.0293 16.7803 22.0293Z" fill="black" fill-opacity="0.85"/>
<path d="M12.8311 18.4785C13.3702 18.4785 13.7803 18.0684 13.7803 17.541V7.24024C13.7803 6.7129 13.3702 6.29102 12.8311 6.29102C12.2921 6.29102 11.8936 6.7129 11.8936 7.24024V17.541C11.8936 18.0684 12.2921 18.4785 12.8311 18.4785Z" fill="black" fill-opacity="0.85"/>
<path d="M8.88183 24.6309C9.42089 24.6309 9.84277 24.209 9.84277 23.6816V1.09961C9.84277 0.572266 9.42089 0.150391 8.88183 0.150391C8.35449 0.150391 7.95605 0.572266 7.95605 1.09961V23.6816C7.95605 24.209 8.35449 24.6309 8.88183 24.6309Z" fill="black" fill-opacity="0.85"/>
<path d="M4.94434 19.9082C5.4834 19.9082 5.89356 19.4863 5.89356 18.959V5.82227C5.89356 5.29492 5.4834 4.86133 4.94434 4.86133C4.417 4.86133 4.00684 5.29492 4.00684 5.82227V18.959C4.00684 19.4863 4.417 19.9082 4.94434 19.9082Z" fill="black" fill-opacity="0.85"/>
<path d="M0.995117 15.1152C1.5459 15.1152 1.95606 14.6934 1.95606 14.166V10.6152C1.95606 10.0879 1.5459 9.6543 0.995117 9.6543C0.467774 9.6543 0.0693359 10.0879 0.0693359 10.6152V14.166C0.0693359 14.6934 0.467774 15.1152 0.995117 15.1152Z" fill="black" fill-opacity="0.85"/>
</g>
<defs>
<clipPath id="clip0_2207_21615">
<rect width="21.5977" height="24.4805" fill="white" transform="translate(0.0693359 0.150391)"/>
</clipPath>
</defs>
</svg>
