<svg width="17" height="29" viewBox="0 0 17 29" fill="none" xmlns="http://www.w3.org/2000/svg">
<g clip-path="url(#clip0_2207_15024)">
<path d="M0.0440674 14.0897C0.0440674 19.035 1.59095 23.6522 4.33313 27.4842C5.22376 28.7029 6.88782 27.6131 5.99719 26.3943C3.43079 22.867 2.05969 18.6248 2.05969 14.0897C2.05969 9.55448 3.43079 5.30058 5.99719 1.77323C6.91126 0.542766 5.17688 -0.488484 4.33313 0.69511C1.59095 4.51542 0.0440674 9.13261 0.0440674 14.0897Z" fill="black" fill-opacity="0.85"/>
<path d="M6.43079 14.0893C6.43079 17.7689 7.59095 21.2143 9.67688 24.015C10.6027 25.2807 12.2433 24.0736 11.3527 22.9252C9.45423 20.4174 8.43469 17.3588 8.43469 14.0893C8.43469 10.8197 9.45423 7.7611 11.3527 5.25329C12.2433 4.10485 10.6027 2.89782 9.67688 4.15173C7.59095 6.95251 6.43079 10.4096 6.43079 14.0893Z" fill="black" fill-opacity="0.85"/>
<path d="M12.7941 14.0896C12.7941 16.5036 13.6261 18.7536 15.1027 20.4997C16.0636 21.6364 17.4816 20.3474 16.7668 19.4216C15.3488 17.6403 14.798 16.1521 14.798 14.0896C14.798 12.0271 15.3488 10.5388 16.7668 8.75751C17.4816 7.82001 16.0753 6.51923 15.1027 7.66766C13.6261 9.42548 12.7941 11.6755 12.7941 14.0896Z" fill="black" fill-opacity="0.85"/>
</g>
<defs>
<clipPath id="clip0_2207_15024">
<rect width="16.9179" height="27.8664" fill="white" transform="translate(0.0440674 0.150391)"/>
</clipPath>
</defs>
</svg>
