<svg width="24" height="25" viewBox="0 0 24 25" fill="none" xmlns="http://www.w3.org/2000/svg">
<g clip-path="url(#clip0_2207_15050)">
<path d="M12.0183 24.0566C18.5574 24.0566 23.9714 18.6309 23.9714 12.1035C23.9714 5.56445 18.5457 0.150391 12.0066 0.150391C5.47925 0.150391 0.0651855 5.56445 0.0651855 12.1035C0.0651855 18.6309 5.49097 24.0566 12.0183 24.0566ZM12.0183 22.0645C6.48707 22.0645 2.0691 17.6348 2.0691 12.1035C2.0691 6.57227 6.47535 2.14258 12.0066 2.14258C17.5379 2.14258 21.9793 6.57227 21.9793 12.1035C21.9793 17.6348 17.5496 22.0645 12.0183 22.0645Z" fill="black" fill-opacity="0.85"/>
<path d="M16.9285 12.0919C16.9285 9.42007 16.1316 6.81852 14.7019 4.7443C14.4207 4.34586 13.9402 4.2521 13.5652 4.50992C13.1902 4.77945 13.1316 5.27164 13.4129 5.65836C14.655 7.42789 15.3582 9.71304 15.3582 12.0919C15.3582 14.4474 14.6433 16.7677 13.4129 18.5255C13.1316 18.9239 13.1902 19.4044 13.5652 19.6739C13.9285 19.9317 14.409 19.8263 14.7019 19.4513C16.1316 17.3888 16.9285 14.7872 16.9285 12.0919Z" fill="black" fill-opacity="0.85"/>
<path d="M13.2605 12.092C13.2605 10.0998 12.6863 8.21305 11.6433 6.78336C11.3621 6.40836 10.8933 6.31461 10.5183 6.58414C10.1668 6.83024 10.0847 7.32243 10.366 7.73258C11.198 8.88102 11.6668 10.4631 11.6668 12.092C11.6668 13.7326 11.198 15.3147 10.366 16.4631C10.0847 16.8733 10.1668 17.3654 10.5183 17.6115C10.8933 17.8694 11.3621 17.7873 11.6433 17.4006C12.6863 15.9475 13.2605 14.049 13.2605 12.092Z" fill="black" fill-opacity="0.85"/>
<path d="M9.59251 12.0917C9.59251 10.8964 9.22923 9.68934 8.60814 8.82216C8.33861 8.47059 7.85814 8.36512 7.49486 8.5995C7.0847 8.88075 7.01439 9.39637 7.33079 9.81825C7.75267 10.3573 7.99876 11.2128 7.99876 12.0917C7.99876 12.9472 7.75267 13.8026 7.33079 14.3769C7.02611 14.7987 7.09642 15.2909 7.49486 15.5839C7.85814 15.83 8.35033 15.7245 8.60814 15.3612C9.22923 14.5409 9.59251 13.3222 9.59251 12.0917Z" fill="black" fill-opacity="0.85"/>
</g>
<defs>
<clipPath id="clip0_2207_15050">
<rect width="23.9062" height="23.918" fill="white" transform="translate(0.0651855 0.150391)"/>
</clipPath>
</defs>
</svg>
