<svg width="17" height="29" viewBox="0 0 17 29" fill="none" xmlns="http://www.w3.org/2000/svg">
<g clip-path="url(#clip0_2207_15004)">
<path d="M0.0566406 14.0897C0.0566406 19.035 1.60352 23.6522 4.3457 27.4842C5.23633 28.7029 6.90039 27.6131 6.00976 26.3943C3.44336 22.867 2.07226 18.6248 2.07226 14.0897C2.07226 9.55448 3.44336 5.30058 6.00976 1.77323C6.92383 0.542766 5.18945 -0.488484 4.3457 0.69511C1.60352 4.51542 0.0566406 9.13261 0.0566406 14.0897Z" fill="black" fill-opacity="0.85"/>
<path d="M6.44336 14.0893C6.44336 17.7689 7.60352 21.2143 9.68945 24.015C10.6152 25.2807 12.2558 24.0736 11.3652 22.9252C9.4668 20.4174 8.44726 17.3588 8.44726 14.0893C8.44726 10.8197 9.4668 7.7611 11.3652 5.25329C12.2558 4.10485 10.6152 2.89782 9.68945 4.15173C7.60352 6.95251 6.44336 10.4096 6.44336 14.0893Z" fill="black" fill-opacity="0.85"/>
<path d="M12.8066 14.0896C12.8066 16.5036 13.6386 18.7536 15.1152 20.4997C16.0761 21.6364 17.4941 20.3474 16.7793 19.4216C15.3613 17.6403 14.8105 16.1521 14.8105 14.0896C14.8105 12.0271 15.3613 10.5388 16.7793 8.75751C17.4941 7.82001 16.0878 6.51923 15.1152 7.66766C13.6386 9.42548 12.8066 11.6755 12.8066 14.0896Z" fill="black" fill-opacity="0.85"/>
</g>
<defs>
<clipPath id="clip0_2207_15004">
<rect width="16.9179" height="27.8664" fill="white" transform="translate(0.0566406 0.150391)"/>
</clipPath>
</defs>
</svg>
