<svg width="34" height="23" viewBox="0 0 34 23" fill="none" xmlns="http://www.w3.org/2000/svg">
<g clip-path="url(#clip0_2207_12081)">
<path d="M16.7437 0.151367C14.0601 0.151367 11.4468 0.948242 9.39599 2.37793C9.00927 2.6709 8.91552 3.15137 9.16161 3.51465C9.44287 3.88965 9.92333 3.94825 10.3101 3.66699C12.0796 2.43653 14.3882 1.72168 16.7437 1.72168C19.1343 1.72168 21.4194 2.42481 23.189 3.66699C23.5757 3.94825 24.0562 3.88965 24.3257 3.51465C24.5952 3.13965 24.5015 2.65918 24.103 2.37793C22.0288 0.948242 19.4272 0.151367 16.7437 0.151367Z" fill="black" fill-opacity="0.85"/>
<path d="M16.7437 3.81934C14.7983 3.81934 12.8999 4.39356 11.4351 5.43653C11.0601 5.71778 10.9663 6.18653 11.2358 6.56153C11.4819 6.91309 11.9741 6.99512 12.3843 6.71387C13.5327 5.89356 15.1148 5.41309 16.7437 5.41309C18.3843 5.41309 19.9663 5.89356 21.1148 6.71387C21.5249 6.99512 22.0171 6.91309 22.2632 6.56153C22.5327 6.18653 22.439 5.71778 22.0522 5.43653C20.6343 4.39356 18.7358 3.81934 16.7437 3.81934Z" fill="black" fill-opacity="0.85"/>
<path d="M16.7437 7.4873C15.5249 7.4873 14.3062 7.85058 13.4858 8.47167C13.1226 8.72948 13.0171 9.22167 13.2632 9.58495C13.5562 9.98339 14.0483 10.0537 14.4702 9.76074C15.0444 9.32714 15.8882 9.08106 16.7437 9.08106C17.6343 9.08106 18.478 9.32714 19.0288 9.76074C19.4507 10.0654 19.9546 9.99511 20.2476 9.58495C20.4819 9.22167 20.3765 8.7412 20.0249 8.47167C19.1577 7.85058 17.939 7.4873 16.7437 7.4873Z" fill="black" fill-opacity="0.85"/>
<path d="M3.27881 22.4872H30.2202C32.2241 22.4872 33.478 21.2568 33.478 19.2763V15.538C33.478 13.5575 32.2241 12.3271 30.2202 12.3271H3.27881C1.27491 12.3271 0.0209961 13.5575 0.0209961 15.538V19.2763C0.0209961 21.2568 1.27491 22.4872 3.27881 22.4872ZM4.46241 17.7529C3.9585 17.7529 3.60694 17.4013 3.60694 16.9091C3.60694 16.4052 3.9585 16.0419 4.46241 16.0419H8.56397C9.05616 16.0419 9.41944 16.4052 9.41944 16.9091C9.41944 17.4013 9.05616 17.7529 8.56397 17.7529H4.46241ZM14.6812 18.9716C13.814 18.9716 13.0991 18.2568 13.0991 17.3896C13.0991 16.5458 13.814 15.831 14.6812 15.831C15.5366 15.831 16.2515 16.5458 16.2515 17.3896C16.2515 18.2568 15.5366 18.9716 14.6812 18.9716ZM19.2515 18.9716C18.3843 18.9716 17.6694 18.2568 17.6694 17.3896C17.6694 16.5458 18.3843 15.831 19.2515 15.831C20.1069 15.831 20.8218 16.5458 20.8218 17.3896C20.8218 18.2568 20.1069 18.9716 19.2515 18.9716ZM23.8218 18.9716C22.9546 18.9716 22.2398 18.2568 22.2398 17.3896C22.2398 16.5458 22.9546 15.831 23.8218 15.831C24.6772 15.831 25.3921 16.5458 25.3921 17.3896C25.3921 18.2568 24.6772 18.9716 23.8218 18.9716ZM28.3921 18.9716C27.5249 18.9716 26.8101 18.2568 26.8101 17.4013C26.8101 16.5458 27.5249 15.831 28.3921 15.831C29.2593 15.831 29.9741 16.5458 29.9741 17.4013C29.9741 18.2568 29.2593 18.9716 28.3921 18.9716Z" fill="black" fill-opacity="0.85"/>
</g>
<defs>
<clipPath id="clip0_2207_12081">
<rect width="33.457" height="22.3711" fill="white" transform="translate(0.0209961 0.151367)"/>
</clipPath>
</defs>
</svg>
