<svg width="22" height="22" viewBox="0 0 22 22" fill="none" xmlns="http://www.w3.org/2000/svg">
<g clip-path="url(#clip0_2207_12836)">
<path d="M3.70484 21.7491H17.9196C20.3806 21.7491 21.5993 20.5303 21.5993 18.1162V3.80762C21.5993 1.39356 20.3806 0.174805 17.9196 0.174805H3.70484C1.25562 0.174805 0.0251465 1.38184 0.0251465 3.80762V18.1162C0.0251465 20.542 1.25562 21.7491 3.70484 21.7491ZM3.72827 19.8623C2.5564 19.8623 1.91187 19.2412 1.91187 18.0225V3.90137C1.91187 2.68262 2.5564 2.06153 3.72827 2.06153H17.8962C19.0563 2.06153 19.7126 2.68262 19.7126 3.90137V18.0225C19.7126 19.2412 19.0563 19.8623 17.8962 19.8623H3.72827Z" fill="black" fill-opacity="0.85"/>
<path d="M4.31421 10.1826C4.46656 10.3584 4.73609 10.3467 4.91187 10.1592C6.43531 8.51856 8.49781 7.63965 10.8181 7.63965C13.1501 7.63965 15.2243 8.51856 16.7595 10.1709C16.9235 10.335 17.1813 10.3467 17.3337 10.1709L18.2009 9.26856C18.3415 9.12793 18.3532 8.92871 18.236 8.76465C16.654 6.81934 13.7126 5.50684 10.8181 5.50684C7.93531 5.50684 4.9939 6.81934 3.41187 8.76465C3.28296 8.92871 3.3064 9.12793 3.43531 9.26856L4.31421 10.1826Z" fill="black" fill-opacity="0.85"/>
<path d="M6.98609 12.8545C7.16187 13.042 7.39624 13.0303 7.59546 12.8311C8.38062 11.9522 9.62281 11.3897 10.8182 11.4014C12.0135 11.3897 13.2557 11.9522 14.076 12.8428C14.2518 13.042 14.4861 13.042 14.6502 12.8545L15.6463 11.8702C15.7869 11.7295 15.8104 11.5186 15.6697 11.3662C14.6033 10.0771 12.74 9.25684 10.8182 9.25684C8.90796 9.25684 7.04468 10.0771 5.97827 11.3662C5.83765 11.5303 5.84937 11.7178 6.01343 11.8702L6.98609 12.8545Z" fill="black" fill-opacity="0.85"/>
<path d="M10.8182 16.3935C10.994 16.3935 11.1111 16.3232 11.4041 16.0654L12.9744 14.5536C13.1033 14.413 13.1268 14.2138 13.0096 14.0615C12.5408 13.4286 11.6736 13.0068 10.8182 13.0068C9.95094 13.0068 9.10719 13.4404 8.615 14.1201C8.50954 14.249 8.54469 14.413 8.68532 14.5536L10.244 16.0654C10.5252 16.3115 10.6424 16.3935 10.8182 16.3935Z" fill="black" fill-opacity="0.85"/>
</g>
<defs>
<clipPath id="clip0_2207_12836">
<rect width="21.5742" height="21.5977" fill="white" transform="translate(0.0251465 0.151367)"/>
</clipPath>
</defs>
</svg>
