<svg width="22" height="22" viewBox="0 0 22 22" fill="none" xmlns="http://www.w3.org/2000/svg">
<g clip-path="url(#clip0_2207_12843)">
<path d="M3.70703 21.7491H17.9218C20.3828 21.7491 21.6015 20.5303 21.6015 18.1162V3.80762C21.6015 1.39356 20.3828 0.174805 17.9218 0.174805H3.70703C1.25781 0.174805 0.0273438 1.38184 0.0273438 3.80762V18.1162C0.0273438 20.542 1.25781 21.7491 3.70703 21.7491Z" fill="black" fill-opacity="0.85"/>
<path d="M4.1289 10.1592L3.22656 9.2334C3.07422 9.08106 3.05078 8.88184 3.17968 8.70606C4.82031 6.69043 7.84375 5.35449 10.832 5.35449C13.8085 5.35449 16.832 6.69043 18.4726 8.70606C18.6132 8.88184 18.5898 9.08106 18.4375 9.2334L17.5351 10.1475C17.3593 10.3233 17.1132 10.335 16.9375 10.1592C15.3671 8.44825 13.2226 7.55762 10.832 7.55762C8.4414 7.55762 6.32031 8.45996 4.73828 10.1475C4.55078 10.3467 4.28125 10.3467 4.1289 10.1592Z" fill="white"/>
<path d="M6.88281 12.9248L5.86328 11.8936C5.72265 11.7412 5.69922 11.542 5.82812 11.3897C6.92968 10.0537 8.85156 9.19824 10.832 9.19824C12.8007 9.19824 14.7343 10.0537 15.8242 11.3897C15.9648 11.5303 15.9531 11.753 15.8007 11.8936L14.7812 12.9248C14.5937 13.1123 14.3593 13.1123 14.1718 12.9131C13.3398 11.9873 12.0507 11.4014 10.832 11.4248C9.58984 11.4014 8.32422 11.9873 7.5039 12.9014C7.30468 13.1241 7.07031 13.1123 6.88281 12.9248Z" fill="white"/>
<path d="M10.832 16.5693C10.6445 16.5693 10.5039 16.499 10.2343 16.2177L8.61717 14.6591C8.48827 14.5302 8.45311 14.3544 8.54686 14.2138C9.05077 13.5224 9.94139 13.0654 10.832 13.0654C11.7109 13.0654 12.6015 13.5107 13.082 14.1552C13.2109 14.3075 13.1875 14.5302 13.0468 14.6591L11.4414 16.2177C11.1484 16.5107 11.0195 16.5693 10.832 16.5693Z" fill="white"/>
</g>
<defs>
<clipPath id="clip0_2207_12843">
<rect width="21.5742" height="21.5977" fill="white" transform="translate(0.0273438 0.151367)"/>
</clipPath>
</defs>
</svg>
