<svg width="24" height="25" viewBox="0 0 24 25" fill="none" xmlns="http://www.w3.org/2000/svg">
<g clip-path="url(#clip0_2207_12865)">
<path d="M11.9677 24.0576C18.5068 24.0576 23.9208 18.6319 23.9208 12.1045C23.9208 5.56543 18.4951 0.151367 11.956 0.151367C5.42871 0.151367 0.0146484 5.56543 0.0146484 12.1045C0.0146484 18.6319 5.44043 24.0576 11.9677 24.0576ZM11.9677 22.0655C6.43653 22.0655 2.01856 17.6358 2.01856 12.1045C2.01856 6.57325 6.42481 2.14356 11.956 2.14356C17.4873 2.14356 21.9287 6.57325 21.9287 12.1045C21.9287 17.6358 17.499 22.0655 11.9677 22.0655Z" fill="black" fill-opacity="0.85"/>
<path d="M8.13574 14.0147C8.31153 14.2022 8.5459 14.1905 8.74512 13.9912C9.53027 13.1123 10.7724 12.5498 11.9677 12.5616C13.1513 12.5498 14.4052 13.1123 15.2138 14.003C15.4013 14.2022 15.6357 14.2022 15.7998 14.0147L16.7841 13.0303C16.9365 12.8897 16.9482 12.6787 16.8193 12.5264C15.7529 11.2373 13.8779 10.417 11.9677 10.417C10.0576 10.417 8.18262 11.2373 7.11621 12.5264C6.98731 12.6905 6.99903 12.878 7.16309 13.0303L8.13574 14.0147ZM5.46387 11.3428C5.61621 11.5186 5.88574 11.5069 6.06153 11.3194C7.58496 9.67871 9.64746 8.79981 11.9677 8.79981C14.288 8.79981 16.374 9.67871 17.9091 11.3311C18.0615 11.4952 18.3193 11.5069 18.4716 11.3311L19.3505 10.4287C19.4912 10.2881 19.5029 10.0889 19.374 9.92481C17.7919 7.97949 14.8623 6.66699 11.9677 6.66699C9.07324 6.66699 6.14356 7.97949 4.56153 9.92481C4.43262 10.0889 4.44434 10.2881 4.58496 10.4287L5.46387 11.3428Z" fill="black" fill-opacity="0.85"/>
<path d="M11.9677 15.3623C12.8349 15.3623 13.5146 14.7061 13.5263 13.8272C13.538 11.4131 13.5615 8.98731 13.5849 6.58496C13.5849 5.64746 12.8232 4.99121 11.956 4.99121C11.0888 4.99121 10.3271 5.64746 10.3271 6.58496C10.3623 8.98731 10.374 11.4131 10.3974 13.8272C10.4091 14.7061 11.0888 15.3623 11.9677 15.3623ZM11.956 18.4795C13.0576 18.4795 13.9248 17.6006 13.9248 16.5108C13.9248 15.4326 13.0576 14.5537 11.956 14.5537C10.8662 14.5537 9.99903 15.4326 9.99903 16.5108C9.99903 17.6006 10.8662 18.4795 11.956 18.4795Z" fill="white"/>
<path d="M11.9677 14.4131C12.3076 14.4131 12.5537 14.167 12.5654 13.8155C12.5888 11.4131 12.6005 8.98731 12.6357 6.58496C12.6357 6.19825 12.3076 5.94043 11.956 5.94043C11.6044 5.94043 11.288 6.19825 11.288 6.58496C11.3232 8.98731 11.3466 11.4131 11.3701 13.8155C11.3818 14.167 11.6162 14.4131 11.9677 14.4131ZM11.956 17.5303C12.5185 17.5303 12.9755 17.0733 12.9755 16.5108C12.9755 15.96 12.5185 15.503 11.956 15.503C11.4052 15.503 10.9365 15.9483 10.9365 16.5108C10.9365 17.0733 11.4052 17.5303 11.956 17.5303Z" fill="black" fill-opacity="0.85"/>
</g>
<defs>
<clipPath id="clip0_2207_12865">
<rect width="23.9062" height="23.918" fill="white" transform="translate(0.0146484 0.151367)"/>
</clipPath>
</defs>
</svg>
