<svg width="27" height="26" viewBox="0 0 27 26" fill="none" xmlns="http://www.w3.org/2000/svg">
<g clip-path="url(#clip0_2207_12858)">
<path d="M6.6473 16.2998C6.90511 16.5459 7.22152 16.5108 7.45589 16.253C8.86214 14.6944 11.159 13.5576 13.5028 13.5694C15.87 13.5576 18.1668 14.7295 19.5965 16.2881C19.8075 16.5342 20.1004 16.5225 20.3582 16.2881L22.1746 14.4834C22.3621 14.2959 22.3856 14.0381 22.2098 13.8272C20.4403 11.6592 17.159 10.0303 13.5028 10.0303C9.84652 10.0303 6.56527 11.6592 4.79573 13.8272C4.61995 14.0381 4.63167 14.2725 4.83089 14.4834L6.6473 16.2998Z" fill="black" fill-opacity="0.85"/>
<path d="M1.78402 11.4014C2.01839 11.6241 2.34652 11.6241 2.56917 11.3897C5.45198 8.33105 9.24886 6.71386 13.5028 6.71386C17.7801 6.71386 21.6004 8.34277 24.4598 11.4014C24.6707 11.6123 24.9871 11.6006 25.2215 11.378L26.8387 9.76074C27.0496 9.5498 27.0379 9.29198 26.8739 9.09277C24.12 5.69433 18.9403 3.19824 13.5028 3.19824C8.07697 3.19824 2.87386 5.69433 0.131667 9.09277C-0.0323954 9.29198 -0.0323954 9.5498 0.166823 9.76074L1.78402 11.4014Z" fill="black" fill-opacity="0.85"/>
<path d="M13.5028 24.3975C15.4481 24.3975 17.0184 22.8155 17.0184 20.8819C17.0184 18.9366 15.4481 17.3662 13.5028 17.3662C11.5692 17.3662 9.98714 18.9366 9.98714 20.8819C9.98714 22.8155 11.5692 24.3975 13.5028 24.3975ZM13.5145 18.7491C15.0731 18.7491 16.2801 17.5772 16.3035 15.9952C16.3387 11.6709 16.3739 7.33496 16.409 3.01075C16.409 1.32325 15.0496 0.151367 13.5028 0.151367C11.9559 0.151367 10.5965 1.32325 10.5965 3.01075C10.6434 7.33496 10.6785 11.6709 10.7254 15.9952C10.7489 17.5772 11.9559 18.7491 13.5145 18.7491Z" fill="white"/>
<path d="M13.5028 22.6748C14.4989 22.6748 15.284 21.8662 15.284 20.8819C15.284 19.8858 14.4989 19.1006 13.5028 19.1006C12.5184 19.1006 11.7215 19.8858 11.7215 20.8819C11.7215 21.8662 12.5184 22.6748 13.5028 22.6748ZM13.5145 17.0264C14.1356 17.0264 14.5575 16.6162 14.5692 15.9717C14.6043 11.6592 14.6395 7.32324 14.6746 2.99902C14.6746 2.33105 14.1356 1.87402 13.5028 1.87402C12.87 1.87402 12.3309 2.33105 12.3309 2.99902C12.3778 7.32324 12.4129 11.6592 12.4598 15.9717C12.4715 16.6162 12.8934 17.0264 13.5145 17.0264Z" fill="black" fill-opacity="0.85"/>
</g>
<defs>
<clipPath id="clip0_2207_12858">
<rect width="26.9843" height="25.5586" fill="white" transform="translate(0.0126953 0.151367)"/>
</clipPath>
</defs>
</svg>
