<svg width="34" height="23" viewBox="0 0 34 23" fill="none" xmlns="http://www.w3.org/2000/svg">
<g clip-path="url(#clip0_2207_12074)">
<path d="M16.7297 0.151367C14.0461 0.151367 11.4329 0.948242 9.38208 2.37793C8.99536 2.6709 8.90161 3.15137 9.14771 3.51465C9.42896 3.88965 9.90942 3.94825 10.2961 3.66699C12.0657 2.43653 14.3743 1.72168 16.7297 1.72168C19.1204 1.72168 21.4055 2.42481 23.175 3.66699C23.5618 3.94825 24.0422 3.88965 24.3118 3.51465C24.5813 3.13965 24.4876 2.65918 24.0891 2.37793C22.0149 0.948242 19.4133 0.151367 16.7297 0.151367Z" fill="black" fill-opacity="0.85"/>
<path d="M16.7415 3.81934C14.7961 3.81934 12.8977 4.39356 11.4329 5.43653C11.0579 5.71778 10.9641 6.18653 11.2336 6.56153C11.4797 6.91309 11.9719 6.99512 12.3821 6.71387C13.5305 5.89356 15.1126 5.41309 16.7415 5.41309C18.3821 5.41309 19.9641 5.89356 21.1126 6.71387C21.5227 6.99512 22.0149 6.91309 22.261 6.56153C22.5305 6.18653 22.4368 5.71778 22.05 5.43653C20.6321 4.39356 18.7336 3.81934 16.7415 3.81934Z" fill="black" fill-opacity="0.85"/>
<path d="M16.7297 7.4873C15.511 7.4873 14.2922 7.85058 13.4719 8.47167C13.1086 8.72948 13.0032 9.22167 13.2493 9.58495C13.5422 9.98339 14.0344 10.0537 14.4563 9.76074C15.0305 9.32714 15.8743 9.08106 16.7297 9.08106C17.6204 9.08106 18.4641 9.32714 19.0149 9.76074C19.4368 10.0654 19.9407 9.99511 20.2336 9.58495C20.468 9.22167 20.3626 8.7412 20.011 8.47167C19.1438 7.85058 17.925 7.4873 16.7297 7.4873Z" fill="black" fill-opacity="0.85"/>
<path d="M3.27661 22.4872H30.218C32.2219 22.4872 33.4758 21.2568 33.4758 19.2763V15.538C33.4758 13.5575 32.2219 12.3271 30.218 12.3271H3.27661C1.27271 12.3271 0.0187988 13.5575 0.0187988 15.538V19.2763C0.0187988 21.2568 1.27271 22.4872 3.27661 22.4872ZM3.27661 20.6005C2.43286 20.6005 1.90552 20.0966 1.90552 19.2763V15.538C1.90552 14.7177 2.43286 14.2138 3.27661 14.2138H30.218C31.0618 14.2138 31.5891 14.7177 31.5891 15.538V19.2763C31.5891 20.0966 31.0618 20.6005 30.218 20.6005H3.27661ZM4.83521 17.7411H8.80786C9.28833 17.7411 9.63989 17.4013 9.63989 16.9208C9.63989 16.4404 9.28833 16.0888 8.80786 16.0888H4.83521C4.35474 16.0888 4.01489 16.4404 4.01489 16.9208C4.01489 17.4013 4.35474 17.7411 4.83521 17.7411ZM14.7493 18.9247C15.5696 18.9247 16.261 18.2333 16.261 17.3896C16.261 16.5693 15.5696 15.8779 14.7493 15.8779C13.9055 15.8779 13.2141 16.5693 13.2141 17.3896C13.2141 18.2333 13.9055 18.9247 14.7493 18.9247ZM19.179 18.9247C19.9993 18.9247 20.6907 18.2333 20.6907 17.3896C20.6907 16.5693 19.9993 15.8779 19.179 15.8779C18.3352 15.8779 17.6438 16.5693 17.6438 17.3896C17.6438 18.2333 18.3352 18.9247 19.179 18.9247ZM23.6086 18.9247C24.429 18.9247 25.1204 18.2333 25.1204 17.3896C25.1204 16.5693 24.429 15.8779 23.6086 15.8779C22.7649 15.8779 22.0735 16.5693 22.0735 17.3896C22.0735 18.2333 22.7649 18.9247 23.6086 18.9247ZM28.0383 18.9247C28.8704 18.9247 29.5618 18.2333 29.5618 17.4013C29.5618 16.5693 28.8704 15.8779 28.0383 15.8779C27.1946 15.8779 26.5032 16.5693 26.5032 17.4013C26.5032 18.2333 27.1946 18.9247 28.0383 18.9247Z" fill="black" fill-opacity="0.85"/>
</g>
<defs>
<clipPath id="clip0_2207_12074">
<rect width="33.457" height="22.3711" fill="white" transform="translate(0.0187988 0.151367)"/>
</clipPath>
</defs>
</svg>
