<svg width="28" height="28" viewBox="0 0 28 28" fill="none" xmlns="http://www.w3.org/2000/svg">
<g clip-path="url(#clip0_2207_12850)">
<path d="M13.5133 23.816C13.7711 23.816 13.9937 23.6988 14.4508 23.2535L17.3101 20.5113C17.4859 20.3355 17.5328 20.0777 17.3687 19.8667C16.607 18.8824 15.1656 18.0269 13.5133 18.0269C11.814 18.0269 10.3726 18.9175 9.61092 19.9371C9.49373 20.1246 9.54061 20.3355 9.72811 20.5113L12.5758 23.2535C13.0328 23.6871 13.2555 23.816 13.5133 23.816Z" fill="black" fill-opacity="0.85"/>
<path d="M6.65778 17.441C6.91559 17.6871 7.232 17.6519 7.46637 17.3941C8.87262 15.8355 11.1695 14.6988 13.5133 14.7105C15.8805 14.6988 18.1773 15.8706 19.607 17.4292C19.818 17.6753 20.1109 17.6636 20.3687 17.4292L22.1851 15.6246C22.3726 15.4371 22.3961 15.1792 22.2203 14.9683C20.4508 12.8003 17.1695 11.1714 13.5133 11.1714C9.857 11.1714 6.57575 12.8003 4.80621 14.9683C4.63043 15.1792 4.64215 15.4136 4.84137 15.6246L6.65778 17.441Z" fill="black" fill-opacity="0.85"/>
<path d="M1.79451 12.5425C2.02888 12.7652 2.35701 12.7652 2.57966 12.5308C5.46247 9.47217 9.25935 7.85498 13.5133 7.85498C17.7906 7.85498 21.6109 9.48389 24.4703 12.5425C24.6812 12.7535 24.9976 12.7417 25.232 12.5191L26.8492 10.9019C27.0601 10.691 27.0484 10.4331 26.8844 10.2339C24.1305 6.83545 18.9508 4.33936 13.5133 4.33936C8.08747 4.33936 2.88435 6.83545 0.142165 10.2339C-0.0218974 10.4331 -0.0218974 10.691 0.177321 10.9019L1.79451 12.5425Z" fill="black" fill-opacity="0.85"/>
<path d="M22.4195 23.7339C23.3219 24.6246 24.775 24.6246 25.6422 23.7105C26.5094 22.8199 26.5094 21.4136 25.6305 20.523L5.93122 0.823737C5.05232 -0.0668876 3.59919 -0.0786056 2.70857 0.823737C1.82966 1.70265 1.82966 3.16749 2.72029 4.03468L22.4195 23.7339Z" fill="white"/>
<path d="M23.3922 22.773C23.7437 23.1246 24.3297 23.1246 24.6695 22.773C25.0094 22.4097 25.0211 21.8472 24.6695 21.4956L4.95856 1.78467C4.607 1.43311 4.03278 1.43311 3.6695 1.78467C3.32965 2.12451 3.32965 2.73389 3.6695 3.06201L23.3922 22.773Z" fill="black" fill-opacity="0.85"/>
</g>
<defs>
<clipPath id="clip0_2207_12850">
<rect width="26.9843" height="27.8408" fill="white" transform="translate(0.0231934 0.151367)"/>
</clipPath>
</defs>
</svg>
