<svg width="24" height="25" viewBox="0 0 24 25" fill="none" xmlns="http://www.w3.org/2000/svg">
<g clip-path="url(#clip0_2207_4707)">
<path d="M11.993 24.0694C18.5321 24.0694 23.9461 18.6553 23.9461 12.1162C23.9461 5.58887 18.5204 0.163086 11.9813 0.163086C5.45398 0.163086 0.039917 5.58887 0.039917 12.1162C0.039917 18.6553 5.4657 24.0694 11.993 24.0694Z" fill="black" fill-opacity="0.85"/>
<path d="M4.86804 10.7452C4.48133 10.8623 4.14148 10.6748 4.05945 10.3467C3.94226 10.0303 4.10633 9.67871 4.49304 9.57325C5.58289 9.2334 6.80164 8.98731 7.99695 8.98731C9.4032 8.98731 10.3993 9.22168 11.618 9.22168C12.2626 9.22168 12.6493 8.8584 12.6493 8.26075C12.6493 7.65137 12.2508 7.29981 11.7118 7.29981C11.2899 7.29981 10.9618 7.55762 10.8094 7.89746C10.6337 8.27246 10.2704 8.36621 9.9657 8.21387C9.62586 8.06153 9.56726 7.67481 9.70789 7.39356C10.0243 6.64356 10.8094 6.08106 11.7118 6.08106C12.9071 6.08106 13.8915 6.9834 13.8915 8.26075C13.8915 9.50293 12.9891 10.4405 11.618 10.4405C10.3407 10.4405 9.34461 10.2412 7.99695 10.2412C6.9657 10.2412 5.91101 10.3936 4.86804 10.7452ZM16.2587 14.167C13.7626 14.167 11.5946 12.8897 8.70008 12.8897C7.27039 12.8897 6.05164 13.0889 4.87976 13.5342C4.48133 13.6748 4.14148 13.4756 4.05945 13.1475C3.94226 12.8311 4.11804 12.4912 4.48133 12.3623C5.78211 11.917 7.20008 11.6475 8.70008 11.6475C11.6532 11.6475 14.0555 12.9248 16.2587 12.9248C17.3837 12.9248 18.0751 12.3506 18.0751 11.4366C18.0751 10.5342 17.4305 9.94825 16.5868 9.94825C15.8837 9.94825 15.3211 10.417 15.204 11.1319C15.1337 11.542 14.8172 11.753 14.4774 11.7061C14.161 11.6592 13.9149 11.3428 13.9852 10.9561C14.1493 9.69043 15.2157 8.71778 16.5868 8.71778C18.0868 8.71778 19.3055 9.86621 19.3055 11.4366C19.3055 13.0186 18.0282 14.167 16.2587 14.167ZM11.6297 19.2998C10.4227 19.2998 9.61414 18.4444 9.48523 17.3662C9.42664 17.0147 9.5907 16.6397 10.036 16.6162C10.4344 16.5811 10.6805 16.8623 10.7391 17.1905C10.8329 17.7647 11.1024 18.0694 11.6297 18.0694C12.1337 18.0694 12.5204 17.753 12.5204 17.1436C12.5204 16.1592 11.2313 15.5498 8.60633 15.5498C7.30554 15.5498 6.0282 15.7725 4.87976 16.1944C4.48133 16.3233 4.14148 16.1241 4.05945 15.7842C3.94226 15.4912 4.11804 15.1514 4.48133 15.0225C5.74695 14.5772 7.25867 14.3194 8.60633 14.3194C11.911 14.3194 13.7626 15.3155 13.7626 17.1436C13.7626 18.4092 12.8133 19.2998 11.6297 19.2998ZM16.5868 7.81543C16.3758 7.81543 16.2469 7.65137 16.2587 7.45215L16.2938 6.71387L15.6844 7.14746C15.5321 7.24121 15.2743 7.20606 15.204 7.01856C15.1219 6.86621 15.1454 6.64356 15.3563 6.53809L16.0008 6.2334L15.3563 5.89356C15.1571 5.78809 15.1219 5.55371 15.2157 5.41309C15.2977 5.22559 15.5321 5.20215 15.6844 5.31934L16.2938 5.74121L16.2469 5.00293C16.2352 4.79199 16.3758 4.62793 16.5868 4.62793C16.786 4.62793 16.9149 4.79199 16.9032 5.01465L16.868 5.74121L17.4774 5.31934C17.618 5.20215 17.8758 5.24903 17.9579 5.41309C18.0399 5.57715 17.993 5.78809 17.7938 5.88184L17.1493 6.2334L17.7938 6.53809C18.0047 6.63184 18.0633 6.88965 17.9461 7.04199C17.8641 7.19434 17.618 7.24121 17.4774 7.14746L16.868 6.71387L16.9032 7.45215C16.9149 7.65137 16.786 7.81543 16.5868 7.81543ZM16.3524 17.6592C16.2001 17.6592 16.1063 17.542 16.118 17.4248L16.1415 17.0733L15.8485 17.2842C15.7547 17.3545 15.5672 17.3194 15.5204 17.2139C15.4852 17.0967 15.4735 16.9326 15.6258 16.8623L15.9422 16.7334L15.6258 16.5811C15.4735 16.4991 15.4852 16.335 15.5321 16.253C15.5907 16.1241 15.7547 16.1006 15.8485 16.1709L16.1415 16.4053L16.1063 16.0303C16.0946 15.9131 16.2001 15.7959 16.3524 15.7959C16.4696 15.7959 16.5751 15.9131 16.5633 16.042L16.5282 16.4053L16.8211 16.1709C16.9032 16.1006 17.0907 16.1358 17.1493 16.253C17.1844 16.3584 17.1844 16.4991 17.0438 16.5694L16.7157 16.7334L17.0438 16.8623C17.1844 16.9326 17.2079 17.1202 17.1376 17.2256C17.079 17.3076 16.9032 17.3545 16.8211 17.2842L16.5282 17.0733L16.5633 17.4248C16.5751 17.542 16.4696 17.6592 16.3524 17.6592Z" fill="white"/>
</g>
<defs>
<clipPath id="clip0_2207_4707">
<rect width="23.9062" height="23.918" fill="white" transform="translate(0.039917 0.151367)"/>
</clipPath>
</defs>
</svg>
