<svg width="24" height="25" viewBox="0 0 24 25" fill="none" xmlns="http://www.w3.org/2000/svg">
<g clip-path="url(#clip0_2207_4691)">
<path d="M11.9867 24.0694C18.5258 24.0694 23.9398 18.6553 23.9398 12.1162C23.9398 5.58887 18.5141 0.163086 11.975 0.163086C5.44763 0.163086 0.0335693 5.58887 0.0335693 12.1162C0.0335693 18.6553 5.45935 24.0694 11.9867 24.0694Z" fill="black" fill-opacity="0.85"/>
<path d="M5.30702 10.1709C4.9203 10.2881 4.58046 10.1006 4.49842 9.77246C4.38124 9.45606 4.53358 9.10449 4.93202 8.99903C6.02186 8.65918 7.24061 8.42481 8.43592 8.42481C9.84217 8.42481 10.8383 8.64746 12.057 8.64746C12.7016 8.64746 13.0883 8.28418 13.0883 7.68653C13.0883 7.07715 12.6781 6.72559 12.1508 6.72559C11.7289 6.72559 11.4008 6.9834 11.2484 7.32325C11.0609 7.69825 10.6977 7.79199 10.4047 7.63965C10.0648 7.48731 10.0062 7.10059 10.1469 6.81934C10.4633 6.06934 11.2484 5.50684 12.1508 5.50684C13.3344 5.50684 14.3305 6.4209 14.3305 7.68653C14.3305 8.92871 13.4281 9.86621 12.057 9.86621C10.768 9.86621 9.77186 9.66699 8.43592 9.66699C7.39296 9.66699 6.33827 9.81934 5.30702 10.1709ZM16.6859 13.5928C14.1898 13.5928 12.0219 12.3155 9.13905 12.3155C7.70936 12.3155 6.49061 12.5147 5.31874 12.96C4.9203 13.1006 4.58046 12.9131 4.49842 12.5733C4.38124 12.2686 4.5453 11.9287 4.9203 11.7881C6.22108 11.3428 7.62733 11.0733 9.13905 11.0733C12.0922 11.0733 14.4945 12.3506 16.6859 12.3506C17.8109 12.3506 18.5024 11.7764 18.5024 10.8623C18.5024 9.95996 17.8578 9.37403 17.0258 9.37403C16.3109 9.37403 15.7484 9.84278 15.643 10.5576C15.5609 10.9678 15.2563 11.1905 14.9164 11.1436C14.5883 11.0967 14.3422 10.792 14.4242 10.3819C14.5883 9.11621 15.643 8.14356 17.0258 8.14356C18.5258 8.14356 19.7328 9.29199 19.7328 10.8623C19.7328 12.4444 18.4672 13.5928 16.6859 13.5928ZM12.057 18.7256C10.8617 18.7256 10.0414 17.8702 9.91249 16.792C9.86561 16.4522 10.0297 16.0655 10.475 16.042C10.8617 16.0069 11.1195 16.3116 11.1664 16.6162C11.2602 17.2022 11.5414 17.5069 12.057 17.5069C12.5727 17.5069 12.9594 17.1787 12.9594 16.5694C12.9594 15.5967 11.6703 14.9756 9.0453 14.9756C7.7328 14.9756 6.46717 15.21 5.31874 15.6202C4.9203 15.7608 4.58046 15.5498 4.49842 15.2217C4.36952 14.917 4.55702 14.5772 4.90858 14.4483C6.1742 14.0147 7.68592 13.7452 9.0453 13.7452C12.35 13.7452 14.1898 14.7412 14.1898 16.5694C14.1898 17.8467 13.2524 18.7256 12.057 18.7256Z" fill="white"/>
</g>
<defs>
<clipPath id="clip0_2207_4691">
<rect width="23.9062" height="23.918" fill="white" transform="translate(0.0335693 0.151367)"/>
</clipPath>
</defs>
</svg>
