<svg width="21" height="26" viewBox="0 0 21 26" fill="none" xmlns="http://www.w3.org/2000/svg">
<g clip-path="url(#clip0_2207_11805)">
<path d="M0.0610352 22.628C0.0610352 24.0576 1.04541 25.0186 2.51026 25.0186H17.6626C19.1391 25.0186 20.1118 24.0576 20.1118 22.628V2.54199C20.1118 1.11231 19.1391 0.151367 17.6626 0.151367H2.51026C1.04541 0.151367 0.0610352 1.11231 0.0610352 2.54199V22.628ZM1.94776 22.5108V2.65918C1.94776 2.28418 2.19385 2.03809 2.54542 2.03809H17.6274C17.9907 2.03809 18.2251 2.28418 18.2251 2.65918V22.5108C18.2251 22.8858 17.9907 23.1319 17.6274 23.1319H2.54542C2.19385 23.1319 1.94776 22.8858 1.94776 22.5108Z" fill="black" fill-opacity="0.85"/>
<path d="M3.71729 7.40528H16.4672C16.6899 7.40528 16.8657 7.22949 16.8657 7.01856V3.7959C16.8657 3.57325 16.6899 3.39746 16.4672 3.39746H3.71729C3.49463 3.39746 3.31885 3.57325 3.31885 3.7959V7.01856C3.31885 7.22949 3.49463 7.40528 3.71729 7.40528ZM8.31104 5.96387C7.9712 5.96387 7.73682 5.74121 7.73682 5.40137C7.73682 5.06153 7.9712 4.83887 8.31104 4.83887H11.8735C12.2133 4.83887 12.436 5.06153 12.436 5.40137C12.436 5.74121 12.2133 5.96387 11.8735 5.96387H8.31104Z" fill="black" fill-opacity="0.85"/>
</g>
<defs>
<clipPath id="clip0_2207_11805">
<rect width="20.0508" height="24.8789" fill="white" transform="translate(0.0610352 0.151367)"/>
</clipPath>
</defs>
</svg>
