<svg width="31" height="20" viewBox="0 0 31 20" fill="none" xmlns="http://www.w3.org/2000/svg">
<g clip-path="url(#clip0_2207_11750)">
<path d="M3.52539 9.12793V2.36621C3.52539 2.17871 3.64258 2.03809 3.81836 2.03809H14.4121V9.12793H3.52539ZM15.9472 9.12793V2.03809H26.5527C26.7285 2.03809 26.8457 2.17871 26.8457 2.36621V9.12793H15.9472ZM3.52539 17.6944V10.6631H14.4121V17.6944H3.52539ZM15.9472 17.6944V10.6631H26.8457V17.6944H15.9472Z" fill="white"/>
<path d="M0.0566406 18.667C0.0566406 19.2061 0.501953 19.6397 1.0293 19.6397H29.3652C29.9043 19.6397 30.3378 19.2061 30.3378 18.667C30.3378 18.128 29.9043 17.6944 29.3652 17.6944H28.7324V1.89746C28.7324 0.854492 28.0175 0.151367 26.9277 0.151367H3.43164C2.35352 0.151367 1.62695 0.854492 1.62695 1.89746V17.6944H1.0293C0.501953 17.6944 0.0566406 18.128 0.0566406 18.667ZM3.52539 9.12793V2.36621C3.52539 2.17871 3.64258 2.03809 3.81836 2.03809H14.4121V9.12793H3.52539ZM15.9472 9.12793V2.03809H26.5527C26.7285 2.03809 26.8457 2.17871 26.8457 2.36621V9.12793H15.9472ZM3.52539 17.6944V10.6631H14.4121V17.6944H3.52539ZM15.9472 17.6944V10.6631H26.8457V17.6944H15.9472Z" fill="black" fill-opacity="0.85"/>
</g>
<defs>
<clipPath id="clip0_2207_11750">
<rect width="30.2812" height="19.5117" fill="white" transform="translate(0.0566406 0.151367)"/>
</clipPath>
</defs>
</svg>
