<svg width="24" height="25" viewBox="0 0 24 25" fill="none" xmlns="http://www.w3.org/2000/svg">
<g clip-path="url(#clip0_2207_4702)">
<path d="M11.9909 24.0576C18.53 24.0576 23.944 18.6319 23.944 12.1045C23.944 5.56543 18.5183 0.151367 11.9792 0.151367C5.4519 0.151367 0.0378418 5.56543 0.0378418 12.1045C0.0378418 18.6319 5.46362 24.0576 11.9909 24.0576ZM11.9909 22.0655C6.45972 22.0655 2.04175 17.6358 2.04175 12.1045C2.04175 6.57325 6.448 2.14356 11.9792 2.14356C17.5105 2.14356 21.9519 6.57325 21.9519 12.1045C21.9519 17.6358 17.5222 22.0655 11.9909 22.0655Z" fill="black" fill-opacity="0.85"/>
<path d="M5.06519 10.7569C6.06129 10.4287 7.09254 10.2647 8.10035 10.2647C9.40113 10.2647 10.362 10.4756 11.6159 10.4756C12.9519 10.4756 13.819 9.54981 13.819 8.35449C13.819 7.12403 12.8581 6.24512 11.7097 6.24512C10.8308 6.24512 10.069 6.78418 9.76441 7.51075C9.63551 7.79199 9.6941 8.16699 10.0222 8.31934C10.3034 8.45996 10.655 8.35449 10.8308 8.00293C10.9831 7.67481 11.2995 7.42871 11.7097 7.42871C12.2253 7.42871 12.6237 7.75684 12.6237 8.35449C12.6237 8.94043 12.2487 9.29199 11.6159 9.29199C10.4323 9.29199 9.47144 9.06934 8.10035 9.06934C6.94019 9.06934 5.7566 9.29199 4.70191 9.63184C4.31519 9.73731 4.17457 10.0654 4.28004 10.3819C4.36207 10.6983 4.69019 10.8858 5.06519 10.7569ZM16.1042 14.085C17.8386 14.085 19.069 12.9717 19.069 11.4248C19.069 9.91309 17.8972 8.79981 16.444 8.79981C15.0964 8.79981 14.0769 9.73731 13.9128 10.9795C13.8425 11.3545 14.0769 11.6592 14.3933 11.6944C14.7214 11.7412 15.0144 11.542 15.0964 11.1319C15.2019 10.4522 15.7409 9.99512 16.444 9.99512C17.2526 9.99512 17.8737 10.5576 17.8737 11.4248C17.8737 12.3155 17.2058 12.878 16.1042 12.878C13.9831 12.878 11.6511 11.6475 8.78004 11.6475C7.31519 11.6475 5.95582 11.9053 4.69019 12.3389C4.32691 12.4678 4.17457 12.7959 4.28004 13.1006C4.36207 13.417 4.69019 13.6045 5.07691 13.4756C6.21363 13.042 7.38551 12.8428 8.78004 12.8428C11.5808 12.8428 13.6901 14.085 16.1042 14.085ZM11.6159 19.0655C12.7761 19.0655 13.6901 18.1983 13.6901 16.9678C13.6901 15.1983 11.8972 14.2256 8.69801 14.2256C7.37379 14.2256 5.90894 14.4834 4.67847 14.9053C4.33863 15.0459 4.16285 15.3623 4.28004 15.6553C4.36207 15.9717 4.69019 16.1826 5.07691 16.0537C6.19019 15.6436 7.42066 15.4092 8.69801 15.4092C11.2409 15.4092 12.4948 16.0186 12.4948 16.9678C12.4948 17.5537 12.1198 17.8702 11.6159 17.8702C11.112 17.8702 10.8425 17.5772 10.7487 17.0147C10.7019 16.71 10.4558 16.417 10.0808 16.4522C9.65894 16.4756 9.49488 16.8506 9.54176 17.1905C9.67066 18.2217 10.4558 19.0655 11.6159 19.0655ZM16.444 7.93262C16.6316 7.93262 16.7605 7.75684 16.7487 7.56934L16.7136 6.86621L17.2878 7.26465C17.4401 7.37012 17.6628 7.32325 17.7566 7.1709C17.8737 7.03028 17.8151 6.78418 17.6042 6.69043L16.9831 6.38575L17.6042 6.05762C17.8034 5.95215 17.8503 5.76465 17.7683 5.60059C17.6862 5.43653 17.4401 5.40137 17.2878 5.49512L16.7136 5.90528L16.7487 5.21387C16.7605 5.00293 16.6316 4.83887 16.444 4.83887C16.2331 4.83887 16.0925 5.00293 16.1042 5.20215L16.1511 5.90528L15.5534 5.49512C15.4011 5.40137 15.1901 5.42481 15.1081 5.60059C15.0144 5.74121 15.0495 5.95215 15.2487 6.06934L15.8698 6.38575L15.2487 6.69043C15.0378 6.78418 15.0144 7.00684 15.0847 7.15918C15.1667 7.33496 15.4011 7.37012 15.5534 7.26465L16.1511 6.86621L16.1159 7.56934C16.1042 7.75684 16.2331 7.93262 16.444 7.93262ZM16.2097 17.4483C16.3269 17.4483 16.4206 17.3311 16.4089 17.2139L16.3855 16.8975L16.6433 17.0967C16.7253 17.167 16.9011 17.1202 16.948 17.0381C17.03 16.9444 17.0066 16.7569 16.8659 16.6983L16.5612 16.5694L16.8659 16.417C16.9948 16.3467 17.0066 16.2178 16.9597 16.1241C16.9128 16.0069 16.737 15.9717 16.6433 16.0303L16.3855 16.253L16.4089 15.9248C16.4206 15.7842 16.3269 15.6905 16.2097 15.6905C16.069 15.6905 15.9636 15.7842 15.9753 15.9131L16.0105 16.253L15.7292 16.0303C15.6472 15.9717 15.4948 15.9952 15.4362 16.1241C15.3894 16.1944 15.3776 16.3467 15.53 16.4287L15.823 16.5694L15.53 16.6983C15.3776 16.7686 15.3894 16.9209 15.4245 17.0147C15.4597 17.1319 15.6472 17.167 15.7292 17.0967L16.0105 16.8975L15.987 17.2139C15.9753 17.3311 16.069 17.4483 16.2097 17.4483Z" fill="black" fill-opacity="0.85"/>
</g>
<defs>
<clipPath id="clip0_2207_4702">
<rect width="23.9062" height="23.918" fill="white" transform="translate(0.0378418 0.151367)"/>
</clipPath>
</defs>
</svg>
