<svg width="25" height="26" viewBox="0 0 25 26" fill="none" xmlns="http://www.w3.org/2000/svg">
<g clip-path="url(#clip0_2207_11775)">
<path d="M2.11338 12.8076L2.75791 8.38965H11.1603L11.1368 13.2295H2.48838C2.24229 13.2295 2.07823 13.042 2.11338 12.8076ZM2.98057 6.7959L3.61338 2.40137C3.64854 2.17871 3.76573 2.03809 3.97666 2.03809H11.2189L11.172 6.7959H2.98057ZM12.9298 2.03809H20.2072C20.4181 2.03809 20.5353 2.17871 20.5704 2.40137L21.2032 6.7959H12.965L12.9298 2.03809ZM12.9767 8.38965H21.4259L22.0704 12.8076C22.1056 13.042 21.9415 13.2295 21.6954 13.2295H13.0118L12.9767 8.38965Z" fill="white"/>
<path d="M1.57433 15.1162H22.6095C23.6525 15.1162 24.297 14.2959 24.1095 13.0772L22.4572 1.93262C22.2931 0.866211 21.6837 0.151367 20.5822 0.151367H3.60167C2.50011 0.151367 1.89074 0.866211 1.72667 1.93262L0.0743317 13.0772C-0.113169 14.2959 0.531363 15.1162 1.57433 15.1162ZM2.11339 12.8076L2.75792 8.38965H11.1603L11.1368 13.2295H2.48839C2.2423 13.2295 2.07824 13.042 2.11339 12.8076ZM2.98058 6.7959L3.61339 2.40137C3.64855 2.17871 3.76574 2.03809 3.97667 2.03809H11.2189L11.172 6.7959H2.98058ZM12.9298 2.03809H20.2072C20.4181 2.03809 20.5353 2.17871 20.5704 2.40137L21.2032 6.7959H12.965L12.9298 2.03809ZM12.9767 8.38965H21.4259L22.0704 12.8076C22.1056 13.042 21.9415 13.2295 21.6954 13.2295H13.0118L12.9767 8.38965ZM1.6212 14.1553V24.0459H3.50792V14.1553H1.6212ZM20.4884 14.1553V24.0459H22.3751V14.1553H20.4884ZM0.0508943 24.0459C0.0508943 24.5733 0.484488 25.0186 1.02355 25.0186H23.0079C23.547 25.0186 23.9923 24.5733 23.9923 24.0459C23.9923 23.5069 23.547 23.0733 23.0079 23.0733H1.02355C0.484488 23.0733 0.0508943 23.5069 0.0508943 24.0459Z" fill="black" fill-opacity="0.85"/>
</g>
<defs>
<clipPath id="clip0_2207_11775">
<rect width="24.0998" height="24.8789" fill="white" transform="translate(0.0419922 0.151367)"/>
</clipPath>
</defs>
</svg>
