<svg width="29" height="23" viewBox="0 0 29 23" fill="none" xmlns="http://www.w3.org/2000/svg">
<g clip-path="url(#clip0_2207_15866)">
<path d="M3.76782 22.9678H25.1193C27.5803 22.9678 28.799 21.7491 28.799 19.335V10.5459C28.799 8.13184 27.5803 6.91309 25.1193 6.91309H3.76782C1.3186 6.91309 0.0881348 8.12012 0.0881348 10.5459V19.335C0.0881348 21.7491 1.3186 22.9678 3.76782 22.9678ZM1.97485 19.2295V10.6397C1.97485 9.4209 2.61938 8.79981 3.79125 8.79981H25.0842C26.2443 8.79981 26.9123 9.4209 26.9123 10.6397V19.2295C26.9123 20.4483 26.2443 21.0811 25.0842 21.0811H3.79125C2.61938 21.0811 1.97485 20.4483 1.97485 19.2295Z" fill="black" fill-opacity="0.85"/>
<path d="M14.4436 18.4795C15.8381 18.4795 16.9865 17.3311 16.9865 15.9366V6.4912C16.9865 5.09667 15.8381 3.94824 14.4436 3.94824C13.049 3.94824 11.9006 5.09667 11.9006 6.4912V15.9366C11.9006 17.3311 13.049 18.4795 14.4436 18.4795Z" fill="white"/>
<path d="M1.5999 4.10043C2.04521 4.36996 2.54912 4.24105 2.88896 3.8309C3.53349 3.05746 4.34209 2.48324 5.26787 2.15512C5.77177 1.96762 6.08818 1.53402 5.98271 1.01839C5.8538 0.432455 5.27959 0.151205 4.58818 0.397299C3.39287 0.795736 2.25615 1.61605 1.38896 2.68246C0.967084 3.18637 1.11943 3.81918 1.5999 4.10043ZM13.1077 4.07699C13.5882 3.79574 13.7054 3.17465 13.2952 2.67074C12.428 1.60433 11.2913 0.795736 10.1077 0.409017C9.36943 0.139486 8.81865 0.47933 8.71318 1.04183C8.63115 1.54574 8.92412 1.96762 9.42802 2.15512C10.3421 2.48324 11.1507 3.05746 11.7835 3.81918C12.1585 4.26449 12.6507 4.34652 13.1077 4.07699ZM15.7796 4.07699C16.2366 4.34652 16.7171 4.26449 17.1038 3.81918C17.7249 3.05746 18.5452 2.48324 19.4476 2.15512C19.9632 1.96762 20.2562 1.54574 20.1624 1.04183C20.0687 0.47933 19.5179 0.139486 18.7796 0.409017C17.596 0.795736 16.4476 1.60433 15.5804 2.67074C15.182 3.17465 15.2874 3.79574 15.7796 4.07699ZM27.2874 4.10043C27.7679 3.81918 27.9202 3.18637 27.4984 2.68246C26.6312 1.61605 25.4944 0.795736 24.2874 0.397299C23.6077 0.151205 23.0218 0.432455 22.9046 1.01839C22.7874 1.53402 23.1155 1.96762 23.6194 2.15512C24.5452 2.48324 25.3538 3.05746 25.9984 3.8309C26.3382 4.24105 26.8421 4.36996 27.2874 4.10043ZM14.4437 10.4285C14.9593 10.4285 15.3812 9.99496 15.3812 9.47933V6.49104C15.3812 5.97542 14.9593 5.55354 14.4437 5.55354C13.928 5.55354 13.4944 5.97542 13.4944 6.49104V9.47933C13.4944 9.99496 13.928 10.4285 14.4437 10.4285ZM14.4437 16.8739C14.9593 16.8739 15.3812 16.452 15.3812 15.9364V12.9481C15.3812 12.4324 14.9593 11.9989 14.4437 11.9989C13.928 11.9989 13.4944 12.4324 13.4944 12.9481V15.9364C13.4944 16.452 13.928 16.8739 14.4437 16.8739Z" fill="black" fill-opacity="0.85"/>
</g>
<defs>
<clipPath id="clip0_2207_15866">
<rect width="28.7109" height="22.8164" fill="white" transform="translate(0.0881348 0.151367)"/>
</clipPath>
</defs>
</svg>
