<svg width="27" height="24" viewBox="0 0 27 24" fill="none" xmlns="http://www.w3.org/2000/svg">
<g clip-path="url(#clip0_2207_11755)">
<path d="M2.27502 13.2881L4.67736 9.1162H12.0485L8.95471 14.542H2.98986C2.13439 14.542 1.85314 14.0381 2.27502 13.2881ZM5.73205 7.28808L8.40392 2.62402C8.65002 2.20214 8.87267 2.06152 9.32971 2.06152H16.0915L13.1149 7.28808H5.73205ZM11.0993 14.542L14.193 9.1162H21.3415L18.5524 13.9912C18.318 14.4131 18.0836 14.542 17.6149 14.542H11.0993ZM15.2477 7.28808L18.2125 2.06152H23.9665C24.8102 2.06152 25.0915 2.58886 24.6696 3.32714L22.4079 7.28808H15.2477Z" fill="white"/>
<path d="M0.458556 12.7842C-0.502381 14.4483 0.306213 16.1358 2.12262 16.3936L2.47418 16.4053L1.31403 20.5889C0.845275 22.253 1.68903 23.3662 3.39997 23.3662H19.2789C20.357 23.3662 21.1421 22.7334 21.4351 21.6905L26.6734 3.47949C27.2124 1.60449 26.3335 0.174805 24.3765 0.174805H9.29449C7.74761 0.174805 7.32574 0.772461 6.62261 1.99121L0.458556 12.7842ZM2.27497 13.2881L4.67731 9.11621H12.0484L8.95465 14.542H2.9898C2.13434 14.542 1.85309 14.0381 2.27497 13.2881ZM5.732 7.28809L8.40386 2.62403C8.64997 2.20215 8.87261 2.06153 9.32965 2.06153H16.0914L13.1148 7.28809H5.732ZM11.0992 14.542L14.1929 9.11621H21.3414L18.5523 13.9912C18.3179 14.4131 18.0835 14.542 17.6148 14.542H11.0992ZM15.2476 7.28809L18.2124 2.06153H23.9664C24.8101 2.06153 25.0914 2.58887 24.6695 3.32715L22.4078 7.28809H15.2476ZM3.18902 20.753L4.39606 16.4287H17.6499C19.2203 16.4287 19.6187 15.8311 20.3218 14.6241L22.8296 10.1944L19.771 20.7295C19.6304 21.1983 19.3023 21.4678 18.857 21.4678H3.76325C3.28278 21.4678 3.06011 21.2217 3.18902 20.753ZM18.7398 22.6983L20.4273 21.8428L17.6617 15.2452L15.9507 16.042L18.7398 22.6983Z" fill="black" fill-opacity="0.85"/>
</g>
<defs>
<clipPath id="clip0_2207_11755">
<rect width="26.7791" height="23.2148" fill="white" transform="translate(0.050415 0.151367)"/>
</clipPath>
</defs>
</svg>
