<svg width="24" height="26" viewBox="0 0 24 26" fill="none" xmlns="http://www.w3.org/2000/svg">
<g clip-path="url(#clip0_2207_11770)">
<path d="M3.51709 23.0733V17.3076H11.2397V23.0733H3.51709ZM3.51709 15.4209V9.67871H11.2397V15.4209H3.51709ZM3.51709 7.79199V2.35449C3.51709 2.16699 3.63428 2.03809 3.81006 2.03809H11.2397V7.79199H3.51709ZM12.7749 23.0733V17.3076H20.4858V23.0733H12.7749ZM12.7749 15.4209V9.67871H20.4858V15.4209H12.7749ZM12.7749 7.79199V2.03809H20.1928C20.3686 2.03809 20.4858 2.16699 20.4858 2.35449V7.79199H12.7749Z" fill="white"/>
<path d="M0.0483398 24.0459C0.0483398 24.5733 0.493652 25.0186 1.021 25.0186H23.0171C23.5444 25.0186 23.9897 24.5733 23.9897 24.0459C23.9897 23.5069 23.5444 23.0733 23.0171 23.0733H22.3842V1.89746C22.3842 0.854492 21.6577 0.151367 20.5795 0.151367H3.42334C2.34522 0.151367 1.61865 0.854492 1.61865 1.89746V23.0733H1.021C0.493652 23.0733 0.0483398 23.5069 0.0483398 24.0459ZM3.51709 23.0733V17.3076H11.2397V23.0733H3.51709ZM3.51709 15.4209V9.67871H11.2397V15.4209H3.51709ZM3.51709 7.79199V2.35449C3.51709 2.16699 3.63428 2.03809 3.81006 2.03809H11.2397V7.79199H3.51709ZM12.7749 23.0733V17.3076H20.4858V23.0733H12.7749ZM12.7749 15.4209V9.67871H20.4858V15.4209H12.7749ZM12.7749 7.79199V2.03809H20.1928C20.3686 2.03809 20.4858 2.16699 20.4858 2.35449V7.79199H12.7749Z" fill="black" fill-opacity="0.85"/>
</g>
<defs>
<clipPath id="clip0_2207_11770">
<rect width="23.9414" height="24.8789" fill="white" transform="translate(0.0483398 0.151367)"/>
</clipPath>
</defs>
</svg>
