<svg width="29" height="25" viewBox="0 0 29 25" fill="none" xmlns="http://www.w3.org/2000/svg">
<g clip-path="url(#clip0_2207_15861)">
<path d="M3.77002 18.0694H25.1215C27.5825 18.0694 28.8012 16.8506 28.8012 14.4366V5.64746C28.8012 3.2334 27.5825 2.01465 25.1215 2.01465H3.77002C1.3208 2.01465 0.090332 3.22168 0.090332 5.64746V14.4366C0.090332 16.8506 1.3208 18.0694 3.77002 18.0694ZM3.79345 16.1826C2.62158 16.1826 1.97705 15.5498 1.97705 14.3311V5.75293C1.97705 4.53418 2.62158 3.90137 3.79345 3.90137H25.0864C26.2465 3.90137 26.9145 4.53418 26.9145 5.75293V14.3311C26.9145 15.5498 26.2465 16.1826 25.0864 16.1826H3.79345Z" fill="black" fill-opacity="0.85"/>
<path d="M14.4224 24.3743C15.8638 24.3743 17.0709 23.1789 17.0709 21.7375C17.0709 20.2727 15.8756 19.0891 14.4224 19.0891C12.981 19.0891 11.7857 20.2727 11.7857 21.7375C11.7857 23.1907 12.9693 24.3743 14.4224 24.3743ZM14.4224 22.8157C13.8248 22.8157 13.3326 22.3235 13.3326 21.7375C13.3326 21.1282 13.8248 20.6243 14.4224 20.6243C15.0201 20.6243 15.524 21.1282 15.524 21.7375C15.524 22.3235 15.0201 22.8157 14.4224 22.8157ZM12.6881 20.6243L14.3638 19.7336L3.31302 0.749215C3.06692 0.315621 2.52786 0.13984 2.00052 0.409371C1.52005 0.643747 1.41458 1.25312 1.68411 1.69844L12.6881 20.6243Z" fill="black" fill-opacity="0.85"/>
</g>
<defs>
<clipPath id="clip0_2207_15861">
<rect width="28.7109" height="24.2227" fill="white" transform="translate(0.090332 0.151367)"/>
</clipPath>
</defs>
</svg>
