<svg width="29" height="23" viewBox="0 0 29 23" fill="none" xmlns="http://www.w3.org/2000/svg">
<g clip-path="url(#clip0_2207_15879)">
<path d="M3.14257 21.5616H25.7363C26.8379 21.5616 27.6348 20.7061 27.6348 19.5811V15.1631C26.4278 15.1397 25.4082 14.6709 24.7637 13.9326C24.5059 13.6397 24.2129 13.6514 23.9551 13.9326C23.2402 14.7295 22.1973 15.1748 21.0606 15.1748C19.9238 15.1748 18.8692 14.7295 18.166 13.9326C17.8965 13.6514 17.6152 13.6397 17.3574 13.9326C16.6895 14.6944 15.6231 15.1748 14.4395 15.1748C13.2559 15.1748 12.1895 14.6944 11.5215 13.9326C11.2637 13.6397 10.9707 13.6514 10.7129 13.9326C10.0098 14.7295 8.95507 15.1748 7.81836 15.1748C6.68164 15.1748 5.63867 14.7295 4.92382 13.9326C4.66601 13.6514 4.37304 13.6397 4.11523 13.9326C3.4707 14.6709 2.45117 15.1397 1.24414 15.1631V19.5811C1.24414 20.7061 2.04101 21.5616 3.14257 21.5616ZM3.76367 22.9678H25.1152C27.5762 22.9678 28.7949 21.7491 28.7949 19.335V10.5459C28.7949 8.13184 27.5762 6.91309 25.1152 6.91309H3.76367C1.31445 6.91309 0.0839844 8.12012 0.0839844 10.5459V19.335C0.0839844 21.7491 1.31445 22.9678 3.76367 22.9678ZM1.9707 19.2295V10.6397C1.9707 9.4209 2.61523 8.79981 3.7871 8.79981H25.0801C26.2402 8.79981 26.9082 9.4209 26.9082 10.6397V19.2295C26.9082 20.4483 26.2402 21.0811 25.0801 21.0811H3.7871C2.61523 21.0811 1.9707 20.4483 1.9707 19.2295Z" fill="black" fill-opacity="0.85"/>
<path d="M14.4395 18.4795C15.834 18.4795 16.9824 17.3311 16.9824 15.9366V6.4912C16.9824 5.09667 15.834 3.94824 14.4395 3.94824C13.0449 3.94824 11.8965 5.09667 11.8965 6.4912V15.9366C11.8965 17.3311 13.0449 18.4795 14.4395 18.4795Z" fill="white"/>
<path d="M1.59575 4.10043C2.04106 4.36996 2.54497 4.24105 2.88481 3.8309C3.52934 3.05746 4.33794 2.48324 5.26372 2.15512C5.76762 1.96762 6.08403 1.53402 5.97856 1.01839C5.84965 0.432455 5.27544 0.151205 4.58403 0.397299C3.38872 0.795736 2.252 1.61605 1.38481 2.68246C0.962933 3.18637 1.11528 3.81918 1.59575 4.10043ZM13.1035 4.07699C13.584 3.79574 13.7012 3.17465 13.291 2.67074C12.4238 1.60433 11.2871 0.795736 10.1035 0.409017C9.36528 0.139486 8.8145 0.47933 8.70903 1.04183C8.627 1.54574 8.91997 1.96762 9.42387 2.15512C10.3379 2.48324 11.1465 3.05746 11.7793 3.81918C12.1543 4.26449 12.6465 4.34652 13.1035 4.07699ZM15.7754 4.07699C16.2324 4.34652 16.7129 4.26449 17.0996 3.81918C17.7207 3.05746 18.541 2.48324 19.4434 2.15512C19.959 1.96762 20.252 1.54574 20.1582 1.04183C20.0645 0.47933 19.5137 0.139486 18.7754 0.409017C17.5918 0.795736 16.4434 1.60433 15.5762 2.67074C15.1778 3.17465 15.2832 3.79574 15.7754 4.07699ZM27.2832 4.10043C27.7637 3.81918 27.916 3.18637 27.4942 2.68246C26.627 1.61605 25.4902 0.795736 24.2832 0.397299C23.6035 0.151205 23.0176 0.432455 22.9004 1.01839C22.7832 1.53402 23.1113 1.96762 23.6152 2.15512C24.541 2.48324 25.3496 3.05746 25.9942 3.8309C26.334 4.24105 26.8379 4.36996 27.2832 4.10043ZM14.4395 10.4285C14.9551 10.4285 15.377 9.99496 15.377 9.47933V6.49104C15.377 5.97542 14.9551 5.55354 14.4395 5.55354C13.9238 5.55354 13.4902 5.97542 13.4902 6.49104V9.47933C13.4902 9.99496 13.9238 10.4285 14.4395 10.4285ZM14.4395 16.8739C14.9551 16.8739 15.377 16.452 15.377 15.9364V12.9481C15.377 12.4324 14.9551 11.9989 14.4395 11.9989C13.9238 11.9989 13.4902 12.4324 13.4902 12.9481V15.9364C13.4902 16.452 13.9238 16.8739 14.4395 16.8739Z" fill="black" fill-opacity="0.85"/>
</g>
<defs>
<clipPath id="clip0_2207_15879">
<rect width="28.7109" height="22.8164" fill="white" transform="translate(0.0839844 0.151367)"/>
</clipPath>
</defs>
</svg>
