<svg width="25" height="21" viewBox="0 0 25 21" fill="none" xmlns="http://www.w3.org/2000/svg">
<g clip-path="url(#clip0_2207_4682)">
<path d="M1.09447 7.20606C2.78197 6.66699 4.52807 6.38575 6.19213 6.38575C8.34838 6.38575 9.93041 6.73731 11.9695 6.73731C14.0788 6.73731 15.3913 5.30762 15.3913 3.44434C15.3913 1.53418 13.9265 0.163086 12.1218 0.163086C10.7859 0.163086 9.61401 1.00684 9.12182 2.12012C8.93432 2.50684 9.00463 2.95215 9.41479 3.16309C9.78979 3.35059 10.2468 3.2334 10.4929 2.76465C10.7507 2.16699 11.3835 1.69825 12.1218 1.69825C13.0945 1.69825 13.8562 2.37793 13.8562 3.44434C13.8562 4.51075 13.1179 5.21387 11.9695 5.21387C10.0242 5.21387 8.41869 4.86231 6.19213 4.86231C4.28197 4.86231 2.34838 5.20215 0.625723 5.75293C0.133536 5.89356 -0.0539645 6.31543 0.063223 6.71387C0.180411 7.12403 0.567129 7.3584 1.09447 7.20606ZM19.4226 12.6905C22.153 12.6905 24.0866 10.9561 24.0866 8.53028C24.0866 6.13965 22.2468 4.40528 19.9616 4.40528C17.8405 4.40528 16.2702 5.88184 15.989 7.81543C15.9187 8.30762 16.1882 8.69434 16.6101 8.75293C17.0437 8.81153 17.4187 8.54199 17.5124 7.99121C17.7116 6.76075 18.7312 5.92871 19.9616 5.92871C21.3913 5.92871 22.5515 6.99512 22.5515 8.53028C22.5515 10.0889 21.321 11.167 19.4226 11.167C15.8484 11.167 11.9929 9.12793 7.30541 9.12793C4.89135 9.12793 2.68822 9.51465 0.625723 10.2412C0.145254 10.417 -0.0539645 10.8272 0.063223 11.2256C0.180411 11.6358 0.578848 11.8819 1.09447 11.7061C3.00463 10.9795 4.99682 10.6631 7.30541 10.6631C11.9812 10.6631 15.4734 12.6905 19.4226 12.6905ZM11.9812 20.9522C13.7859 20.9522 15.1804 19.6162 15.1804 17.7061C15.1804 14.9405 12.3562 13.3936 7.15307 13.3936C4.97338 13.3936 2.61791 13.8155 0.625723 14.4952C0.145254 14.6709 -0.0539645 15.0811 0.063223 15.4795C0.180411 15.8897 0.578848 16.1358 1.09447 15.96C2.95776 15.292 5.04369 14.9287 7.15307 14.9287C11.407 14.9287 13.657 15.9952 13.657 17.7061C13.657 18.7725 12.907 19.4287 11.9812 19.4287C11.0554 19.4287 10.4929 18.8076 10.3288 17.8233C10.2585 17.3897 9.94213 17.0264 9.43822 17.0616C8.91088 17.0967 8.69994 17.542 8.77026 18.0225C8.98119 19.6514 10.1882 20.9522 11.9812 20.9522Z" fill="black" fill-opacity="0.85"/>
</g>
<defs>
<clipPath id="clip0_2207_4682">
<rect width="24.0572" height="20.8008" fill="white" transform="translate(0.0294189 0.151367)"/>
</clipPath>
</defs>
</svg>
