<svg width="35" height="24" viewBox="0 0 35 24" fill="none" xmlns="http://www.w3.org/2000/svg">
<g clip-path="url(#clip0_2207_15818)">
<path d="M17.0671 21.6816C19.3757 21.6816 22.071 22.373 24.0749 23.4277C24.6139 23.709 25.2116 23.6035 25.5632 23.1465L33.5436 12.9746C34.3288 11.9668 34.1999 10.9004 33.2038 10.127C29.1139 6.92774 22.7624 5.63867 17.0671 5.63867C11.4421 5.63867 5.04362 6.91602 0.918621 10.127C-0.0774718 10.9004 -0.206379 11.9668 0.590496 12.9746L8.57097 23.1465C8.93425 23.6035 9.50847 23.709 10.0475 23.4277C12.0514 22.373 14.7585 21.6816 17.0671 21.6816ZM17.0671 19.7949C14.9225 19.7949 12.4499 20.3574 10.0592 21.3301C9.76628 21.4473 9.62565 21.4238 9.403 21.1309L2.4655 12.3066C2.24284 12.002 2.278 11.7324 2.5944 11.5215C7.02409 8.69727 11.7702 7.54883 17.0671 7.54883C22.4811 7.54883 27.5671 8.9668 31.5397 11.5215C31.8561 11.7324 31.8913 12.002 31.6569 12.3066L24.7311 21.1309C24.4968 21.4238 24.3679 21.4473 24.0749 21.3301C21.6843 20.3574 19.1999 19.7949 17.0671 19.7949Z" fill="black" fill-opacity="0.85"/>
<path d="M17.0672 18.541C18.4734 18.541 19.6101 17.3926 19.6101 15.998V4.02149C19.6101 2.62696 18.4617 1.47852 17.0672 1.47852C15.6726 1.47852 14.5242 2.62696 14.5242 4.02149V15.998C14.5242 17.3926 15.6726 18.541 17.0672 18.541Z" fill="white"/>
<path d="M17.0672 16.9471C17.5828 16.9471 18.0047 16.5135 18.0047 15.9978V13.0096C18.0047 12.4939 17.5828 12.0603 17.0672 12.0603C16.5515 12.0603 16.118 12.4939 16.118 13.0096V15.9978C16.118 16.5135 16.5515 16.9471 17.0672 16.9471ZM17.0672 10.49C17.5828 10.49 18.0047 10.0682 18.0047 9.55255V6.55255C18.0047 6.03692 17.5828 5.61505 17.0672 5.61505C16.5515 5.61505 16.118 6.03692 16.118 6.55255V9.55255C16.118 10.0682 16.5515 10.49 17.0672 10.49ZM4.22343 3.97442C4.66874 4.23223 5.17265 4.10333 5.51249 3.69317C6.15702 2.93145 6.96562 2.35723 7.8914 2.02911C8.3953 1.84161 8.71171 1.40802 8.60624 0.880672C8.47734 0.294734 7.90312 0.0252028 7.21171 0.259578C6.0164 0.669734 4.87968 1.47833 4.01249 2.54473C3.59062 3.06036 3.74296 3.68145 4.22343 3.97442ZM15.7312 3.95098C16.2117 3.65802 16.3289 3.04864 15.9187 2.53302C15.0515 1.46661 13.9031 0.669734 12.7312 0.271297C11.993 0.0134838 11.4422 0.341609 11.3367 0.904109C11.2547 1.41973 11.5476 1.84161 12.0515 2.02911C12.9656 2.35723 13.7742 2.93145 14.407 3.68145C14.782 4.12677 15.2742 4.2088 15.7312 3.95098ZM18.3914 3.95098C18.8601 4.2088 19.3406 4.12677 19.7273 3.68145C20.3484 2.93145 21.157 2.35723 22.0711 2.02911C22.5867 1.84161 22.8797 1.41973 22.7859 0.904109C22.6922 0.341609 22.1414 0.0134838 21.4031 0.271297C20.2195 0.669734 19.0711 1.46661 18.2039 2.53302C17.7937 3.04864 17.9109 3.65802 18.3914 3.95098ZM29.9109 3.97442C30.3914 3.68145 30.5437 3.06036 30.1219 2.54473C29.2547 1.47833 28.118 0.669734 26.9109 0.259578C26.2195 0.0252028 25.6453 0.294734 25.5281 0.880672C25.4109 1.40802 25.739 1.84161 26.243 2.02911C27.1687 2.35723 27.9773 2.93145 28.6101 3.69317C28.9617 4.10333 29.4539 4.23223 29.9109 3.97442Z" fill="black" fill-opacity="0.85"/>
</g>
<defs>
<clipPath id="clip0_2207_15818">
<rect width="33.9819" height="23.4314" fill="white" transform="translate(0.0712891 0.151367)"/>
</clipPath>
</defs>
</svg>
