<svg width="24" height="25" viewBox="0 0 24 25" fill="none" xmlns="http://www.w3.org/2000/svg">
<g clip-path="url(#clip0_2207_4686)">
<path d="M11.9846 24.0576C18.5237 24.0576 23.9377 18.6319 23.9377 12.1045C23.9377 5.56543 18.512 0.151367 11.9729 0.151367C5.44555 0.151367 0.0314941 5.56543 0.0314941 12.1045C0.0314941 18.6319 5.45727 24.0576 11.9846 24.0576ZM11.9846 22.0655C6.45337 22.0655 2.0354 17.6358 2.0354 12.1045C2.0354 6.57325 6.44165 2.14356 11.9729 2.14356C17.5042 2.14356 21.9456 6.57325 21.9456 12.1045C21.9456 17.6358 17.5159 22.0655 11.9846 22.0655Z" fill="black" fill-opacity="0.85"/>
<path d="M5.50417 10.2061C6.50026 9.87793 7.53151 9.71387 8.53932 9.71387C9.8401 9.71387 10.801 9.92481 12.0432 9.92481C13.3909 9.92481 14.2463 8.99903 14.2463 7.80371C14.2463 6.57325 13.2971 5.69434 12.137 5.69434C11.2581 5.69434 10.4963 6.24512 10.2034 6.95996C10.0627 7.24121 10.1213 7.61621 10.4612 7.76856C10.7424 7.90918 11.094 7.81543 11.2698 7.45215C11.4104 7.12403 11.7268 6.87793 12.137 6.87793C12.6643 6.87793 13.051 7.21778 13.051 7.80371C13.051 8.38965 12.676 8.74121 12.0432 8.74121C10.8713 8.74121 9.8987 8.51856 8.53932 8.51856C7.37917 8.51856 6.18385 8.75293 5.12917 9.08106C4.75417 9.18653 4.60182 9.52637 4.70729 9.83106C4.80104 10.1475 5.12917 10.335 5.50417 10.2061ZM16.5432 13.5342C18.2776 13.5342 19.5081 12.4209 19.5081 10.8741C19.5081 9.36231 18.3245 8.24903 16.8713 8.24903C15.5354 8.24903 14.5042 9.19825 14.3401 10.4287C14.2815 10.8037 14.5159 11.1084 14.8206 11.1436C15.1487 11.1905 15.4534 10.9912 15.5237 10.5811C15.6409 9.90137 16.1799 9.44434 16.8713 9.44434C17.6917 9.44434 18.3127 10.0068 18.3127 10.8741C18.3127 11.7647 17.6448 12.3389 16.5432 12.3389C14.4104 12.3389 12.0901 11.0967 9.21901 11.0967C7.75417 11.0967 6.38307 11.3545 5.11745 11.7881C4.76589 11.917 4.60182 12.2452 4.70729 12.5498C4.78932 12.8662 5.11745 13.0537 5.50417 12.9248C6.64089 12.4912 7.82448 12.292 9.21901 12.292C12.0198 12.292 14.1292 13.5342 16.5432 13.5342ZM12.0549 18.5147C13.2034 18.5147 14.1292 17.6475 14.1292 16.4287C14.1292 14.6475 12.3362 13.6866 9.12526 13.6866C7.81276 13.6866 6.34792 13.9326 5.11745 14.3662C4.7776 14.4952 4.60182 14.8233 4.70729 15.1045C4.78932 15.4209 5.11745 15.6319 5.50417 15.503C6.61745 15.0928 7.85963 14.8584 9.12526 14.8584C11.6682 14.8584 12.9338 15.4678 12.9338 16.4287C12.9338 17.0147 12.5471 17.3311 12.0549 17.3311C11.5393 17.3311 11.2815 17.0264 11.1877 16.4756C11.1409 16.1592 10.8948 15.8662 10.5198 15.9014C10.0862 15.9248 9.93385 16.2998 9.98073 16.6397C10.1096 17.6826 10.8948 18.5147 12.0549 18.5147Z" fill="black" fill-opacity="0.85"/>
</g>
<defs>
<clipPath id="clip0_2207_4686">
<rect width="23.9062" height="23.918" fill="white" transform="translate(0.0314941 0.151367)"/>
</clipPath>
</defs>
</svg>
