<svg width="35" height="26" viewBox="0 0 35 26" fill="none" xmlns="http://www.w3.org/2000/svg">
<g clip-path="url(#clip0_2207_15850)">
<path d="M17.0651 16.3819C19.2682 16.3819 22.0338 17.0967 23.9323 18.128C24.4713 18.4209 25.069 18.3037 25.4205 17.8467L33.5416 7.48731C34.3268 6.47949 34.1979 5.41309 33.2018 4.63965C29.9205 2.1084 23.6627 0.151367 17.0651 0.151367C10.4674 0.151367 4.19792 2.1084 0.916668 4.63965C-0.0794249 5.41309 -0.208332 6.47949 0.588543 7.48731L8.70964 17.8467C9.0612 18.3037 9.64714 18.4209 10.1862 18.128C12.0963 17.0967 14.8502 16.3819 17.0651 16.3819ZM17.0651 14.4952C15.0026 14.4952 12.5182 15.0576 10.1393 16.0655C9.90495 16.1592 9.78777 16.1475 9.61198 15.9248L2.46355 6.81934C2.24089 6.51465 2.27605 6.24512 2.59245 6.02246C6.6237 3.47949 11.7799 2.03809 17.0651 2.03809C22.3385 2.03809 27.5065 3.47949 31.5377 6.02246C31.8424 6.24512 31.8893 6.51465 31.6549 6.81934L24.5768 15.8428C24.3541 16.1358 24.2135 16.1592 23.9205 16.042C21.6002 15.0576 19.1159 14.4952 17.0651 14.4952Z" fill="black" fill-opacity="0.85"/>
<path d="M7.91287 9.35059C7.65505 9.72559 7.87771 10.253 8.39333 10.253H12.4363C12.9519 10.253 13.1745 9.72559 12.9167 9.35059L10.948 6.44434C10.8074 6.2334 10.6316 6.12793 10.4089 6.12793C10.1863 6.12793 10.0105 6.2334 9.8699 6.44434L7.91287 9.35059ZM11.8386 23.9756C11.2761 23.2139 11.0652 22.7452 11.0652 21.8897C11.0652 19.8389 12.9988 18.7139 12.9988 16.0186C12.9988 13.5694 11.1824 12.9717 11.1824 10.0889V9.59668H9.64724V10.0889C9.64724 13.7334 11.4636 14.1436 11.4636 16.0186C11.4636 18.3741 9.53005 19.2998 9.53005 22.0069C9.53005 23.1084 9.8699 23.9522 10.6081 24.8897C11.241 25.6983 12.5183 24.878 11.8386 23.9756ZM14.5574 9.35059C14.2995 9.72559 14.5222 10.253 15.0378 10.253H19.0808C19.5964 10.253 19.8191 9.72559 19.5613 9.35059L17.6042 6.44434C17.4636 6.2334 17.2878 6.12793 17.0652 6.12793C16.8425 6.12793 16.6667 6.2334 16.5261 6.44434L14.5574 9.35059ZM18.4949 23.9756C17.9206 23.2139 17.7097 22.7452 17.7097 21.8897C17.7097 19.8389 19.6433 18.7139 19.6433 16.0186C19.6433 13.5694 17.8269 12.9717 17.8269 10.0889V9.59668H16.2917V10.0889C16.2917 13.7334 18.1081 14.1436 18.1081 16.0186C18.1081 18.3741 16.1745 19.2998 16.1745 22.0069C16.1745 23.1084 16.5261 23.9522 17.2527 24.8897C17.8972 25.6983 19.1628 24.878 18.4949 23.9756ZM21.2136 9.35059C20.9558 9.72559 21.1785 10.253 21.6941 10.253H25.7253C26.241 10.253 26.4753 9.72559 26.2058 9.35059L24.2488 6.44434C24.1081 6.2334 23.9324 6.12793 23.7097 6.12793C23.487 6.12793 23.3113 6.2334 23.1706 6.44434L21.2136 9.35059ZM25.1394 23.9756C24.5652 23.2139 24.366 22.7452 24.366 21.8897C24.366 19.8389 26.2878 18.7139 26.2878 16.0186C26.2878 13.5694 24.4831 12.9717 24.4831 10.0889V9.59668H22.948V10.0889C22.948 13.7334 24.7527 14.1436 24.7527 16.0186C24.7527 18.3741 22.8308 19.2998 22.8308 22.0069C22.8308 23.1084 23.1706 23.9522 23.8972 24.8897C24.5417 25.6983 25.8191 24.878 25.1394 23.9756Z" fill="black" fill-opacity="0.85"/>
</g>
<defs>
<clipPath id="clip0_2207_15850">
<rect width="33.9819" height="25.5586" fill="white" transform="translate(0.0693359 0.151367)"/>
</clipPath>
</defs>
</svg>
