<svg width="22" height="22" viewBox="0 0 22 22" fill="none" xmlns="http://www.w3.org/2000/svg">
<g clip-path="url(#clip0_2207_25725)">
<path d="M3.69239 21.75H17.9072C20.3682 21.75 21.5869 20.5312 21.5869 18.1171V3.80859C21.5869 1.39453 20.3682 0.175781 17.9072 0.175781H3.69239C1.24317 0.175781 0.0126953 1.38281 0.0126953 3.80859V18.1171C0.0126953 20.5429 1.24317 21.75 3.69239 21.75Z" fill="black" fill-opacity="0.85"/>
<path d="M5.61426 10.7109C5.61426 10.3593 5.87208 10.1133 6.2002 10.1133H6.73926L6.15332 6.33984C6.12989 6.22265 6.10645 6.10546 6.10645 5.96484C6.10645 5.53125 6.43458 5.26172 6.87989 5.26172C7.26661 5.26172 7.59473 5.48437 7.65332 5.90625L8.16895 10.1133H9.2002L9.87989 6.05859C9.96192 5.54296 10.3369 5.26172 10.7939 5.26172C11.2393 5.26172 11.6377 5.54296 11.708 6.04687L12.3994 10.1016H13.4541L13.9932 5.89453C14.0518 5.47265 14.3799 5.25 14.7549 5.25C15.1885 5.25 15.5166 5.50781 15.5166 5.92968C15.5166 6.07031 15.4932 6.16406 15.4697 6.28125L14.8721 10.1016H15.3994C15.751 10.1016 15.9971 10.3476 15.9971 10.6992C15.9971 11.0273 15.751 11.3085 15.3994 11.3085H14.6729L13.9111 16.1953C13.8408 16.6757 13.4775 16.9453 13.0557 16.9453C12.6104 16.9453 12.2588 16.6992 12.1768 16.207L11.3447 11.3085H10.2666L9.45801 16.207C9.37598 16.6992 9.02442 16.9453 8.57911 16.9453C8.14551 16.9453 7.79395 16.6757 7.72364 16.1953L6.93848 11.3203H6.2002C5.87208 11.3203 5.61426 11.039 5.61426 10.7109ZM8.33301 11.2968L8.61426 14.1328L9.02442 11.2968H8.33301ZM10.4775 10.1133H11.1572L10.8057 7.74609L10.4775 10.1133ZM12.5752 11.2968L13.0088 14.2031L13.3252 11.2968H12.5752Z" fill="white"/>
</g>
<defs>
<clipPath id="clip0_2207_25725">
<rect width="21.5742" height="21.5977" fill="white" transform="translate(0.0126953 0.152344)"/>
</clipPath>
</defs>
</svg>
