<svg width="24" height="25" viewBox="0 0 24 25" fill="none" xmlns="http://www.w3.org/2000/svg">
<g clip-path="url(#clip0_2207_25715)">
<path d="M11.9614 24.0585C18.5005 24.0585 23.9145 18.6328 23.9145 12.1054C23.9145 5.5664 18.4888 0.152344 11.9497 0.152344C5.42236 0.152344 0.00830078 5.5664 0.00830078 12.1054C0.00830078 18.6328 5.43408 24.0585 11.9614 24.0585Z" fill="black" fill-opacity="0.85"/>
<path d="M6.7583 11.8711C6.7583 11.5195 7.02783 11.2734 7.35596 11.2734H7.89502L7.30908 7.50001C7.28564 7.38282 7.25049 7.26563 7.25049 7.12501C7.25049 6.69141 7.59033 6.42188 8.03564 6.42188C8.42236 6.42188 8.75049 6.64454 8.80908 7.06641L9.32471 11.2734H10.356L11.0356 7.21876C11.1177 6.70313 11.4927 6.42188 11.9497 6.42188C12.3833 6.42188 12.7935 6.70313 12.8638 7.20704L13.5552 11.2617H14.6099L15.1489 7.05469C15.2075 6.63282 15.5356 6.41016 15.9106 6.41016C16.3442 6.41016 16.6724 6.66797 16.6724 7.08985C16.6724 7.23047 16.6489 7.32423 16.6255 7.44141L16.0278 11.2617H16.5552C16.895 11.2617 17.1528 11.5078 17.1528 11.8593C17.1528 12.1875 16.895 12.4687 16.5552 12.4687H15.8286L15.0669 17.3554C14.9966 17.8359 14.6333 18.1054 14.2114 18.1054C13.7661 18.1054 13.4145 17.8593 13.3325 17.3671L12.5005 12.4687H11.4224L10.6138 17.3671C10.5317 17.8593 10.1802 18.1054 9.73486 18.1054C9.30127 18.1054 8.94971 17.8359 8.87939 17.3554L8.09424 12.4804H7.35596C7.02783 12.4804 6.7583 12.1992 6.7583 11.8711ZM9.48877 12.457L9.77002 15.2929L10.1802 12.457H9.48877ZM11.6333 11.2734H12.313L11.9614 8.90626L11.6333 11.2734ZM13.731 12.457L14.1645 15.3632L14.481 12.457H13.731Z" fill="white"/>
</g>
<defs>
<clipPath id="clip0_2207_25715">
<rect width="23.9062" height="23.918" fill="white" transform="translate(0.00830078 0.152344)"/>
</clipPath>
</defs>
</svg>
