<svg width="26" height="22" viewBox="0 0 26 22" fill="none" xmlns="http://www.w3.org/2000/svg">
<g clip-path="url(#clip0_2207_8830)">
<path d="M4.47705 21.3515C5.57861 21.3515 6.15283 20.5781 6.46923 19.5703L11.8012 2.40234H24.2817C24.9497 2.40234 25.4067 1.99218 25.4067 1.34765C25.4067 0.726563 24.9497 0.316406 24.2817 0.316406H11.7778C10.5825 0.316406 10.0434 0.761719 9.72705 1.79296L4.60595 18.6093H4.40673L2.20361 10.8398C2.01611 10.1953 1.66455 9.89062 1.11376 9.89062C0.492676 9.89062 0.0356445 10.3359 0.0356445 10.9101C0.0356445 11.1445 0.0942383 11.3554 0.141114 11.5312L2.62548 19.6992C2.91845 20.6484 3.4458 21.3515 4.47705 21.3515ZM14.0278 18.9609C14.4614 18.9609 14.684 18.8085 15.0122 18.3515L17.7895 14.4257H17.8364L20.5903 18.3515C20.9301 18.8085 21.1528 18.9609 21.5747 18.9609C22.1606 18.9609 22.5942 18.5625 22.5942 18.0117C22.5942 17.7539 22.5356 17.5429 22.3598 17.3203L19.1372 12.9375L22.3833 8.53125C22.559 8.28515 22.6294 8.07422 22.6294 7.83984C22.6294 7.32422 22.2075 6.92578 21.645 6.92578C21.2348 6.92578 20.9887 7.0664 20.684 7.5L18.0239 11.4492H17.9653L15.2231 7.48828C14.9301 7.0664 14.6723 6.92578 14.2387 6.92578C13.6762 6.92578 13.2075 7.35937 13.2075 7.88672C13.2075 8.17968 13.2778 8.36718 13.4887 8.63672L16.5708 12.8789L13.3012 17.3906C13.1254 17.625 13.0786 17.789 13.0786 18.0585C13.0786 18.5625 13.4887 18.9609 14.0278 18.9609Z" fill="black" fill-opacity="0.85"/>
</g>
<defs>
<clipPath id="clip0_2207_8830">
<rect width="25.3711" height="21.1992" fill="white" transform="translate(0.0356445 0.152344)"/>
</clipPath>
</defs>
</svg>
