<svg width="24" height="25" viewBox="0 0 24 25" fill="none" xmlns="http://www.w3.org/2000/svg">
<g clip-path="url(#clip0_2207_761)">
<path d="M12.0035 24.0703C18.5426 24.0703 23.9566 18.6562 23.9566 12.1171C23.9566 5.58984 18.5309 0.164062 11.9918 0.164062C5.46447 0.164062 0.050415 5.58984 0.050415 12.1171C0.050415 18.6562 5.4762 24.0703 12.0035 24.0703Z" fill="black" fill-opacity="0.85"/>
<path d="M8.64025 18.832C7.39807 18.832 6.88244 18.1875 6.69494 16.9218L5.83947 10.9453H18.1793L17.3121 16.9218C17.1246 18.1757 16.6207 18.832 15.3668 18.832H8.64025ZM10.1637 17.1093C10.3043 17.1093 10.4332 17.039 10.527 16.957L11.9918 15.4804L13.4801 16.957C13.5738 17.0273 13.691 17.1093 13.8434 17.1093C14.1246 17.1093 14.359 16.8515 14.359 16.582C14.359 16.4296 14.3004 16.3125 14.2184 16.2187L12.7418 14.7421L14.2184 13.2656C14.3238 13.1484 14.3707 13.0429 14.3707 12.8906C14.3707 12.5976 14.1481 12.375 13.8434 12.375C13.7027 12.375 13.5856 12.4335 13.4918 12.539L11.9918 14.0156L10.5152 12.539C10.4215 12.4335 10.3043 12.3867 10.1637 12.3867C9.859 12.3867 9.63635 12.6093 9.63635 12.8906C9.63635 13.0546 9.69494 13.1601 9.80041 13.2656L11.2652 14.7421L9.80041 16.2187C9.69494 16.3125 9.63635 16.4296 9.63635 16.582C9.63635 16.8515 9.859 17.1093 10.1637 17.1093ZM5.48791 9.96094C4.76135 9.96094 4.38635 9.52735 4.38635 8.82423V8.21485C4.38635 7.48829 4.7965 7.05469 5.48791 7.05469H18.5192C19.2457 7.05469 19.6207 7.48829 19.6207 8.21485V8.82423C19.6207 9.52735 19.2457 9.96094 18.5192 9.96094H5.48791Z" fill="white"/>
</g>
<defs>
<clipPath id="clip0_2207_761">
<rect width="23.9062" height="23.918" fill="white" transform="translate(0.050415 0.152344)"/>
</clipPath>
</defs>
</svg>
