<svg width="28" height="22" viewBox="0 0 28 22" fill="none" xmlns="http://www.w3.org/2000/svg">
<g clip-path="url(#clip0_2207_751)">
<path d="M7.83374 21.75H20.1384C22.447 21.75 23.3728 20.5312 23.7127 18.2578L25.3767 7.10156H2.59546L4.27124 18.2578C4.61108 20.5429 5.53687 21.75 7.83374 21.75ZM2.04468 5.50781H25.9392C27.2634 5.50781 27.9314 4.72265 27.9314 3.41015V2.27343C27.9314 0.960938 27.2634 0.175781 25.9392 0.175781H2.04468C0.790771 0.175781 0.0524902 0.960938 0.0524902 2.27343V3.41015C0.0524902 4.72265 0.720459 5.50781 2.04468 5.50781Z" fill="black" fill-opacity="0.85"/>
<path d="M10.4939 18.5039C9.97827 18.5039 9.54468 18.0585 9.54468 17.5546C9.54468 17.2851 9.67358 17.0742 9.83765 16.9101L12.6736 14.0507L9.83765 11.1796C9.67358 11.0156 9.54468 10.8046 9.54468 10.5351C9.54468 10.0313 9.97827 9.6211 10.4939 9.6211C10.74 9.6211 10.9275 9.73829 11.1267 9.90235L13.9861 12.75L16.8689 9.89063C17.0681 9.71485 17.2673 9.59766 17.5017 9.59766C18.0291 9.59766 18.4509 10.0195 18.4509 10.5351C18.4509 10.7929 18.3337 10.9687 18.158 11.1679L15.3103 14.0507L18.1463 16.8984C18.3103 17.0742 18.4392 17.2734 18.4392 17.5546C18.4392 18.0585 18.0056 18.5039 17.5017 18.5039C17.2322 18.5039 17.0213 18.3632 16.8455 18.2109L13.9861 15.3515L11.1384 18.2109C10.9627 18.375 10.74 18.5039 10.4939 18.5039Z" fill="white"/>
</g>
<defs>
<clipPath id="clip0_2207_751">
<rect width="27.8789" height="21.5977" fill="white" transform="translate(0.0524902 0.152344)"/>
</clipPath>
</defs>
</svg>
