<svg width="27" height="27" viewBox="0 0 27 27" fill="none" xmlns="http://www.w3.org/2000/svg">
<g clip-path="url(#clip0_2207_7882)">
<path d="M6.29151 23.6235H8.83448C9.06885 23.6235 9.24463 23.6938 9.42041 23.8696L11.2251 25.6626C12.7016 27.1508 14.0727 27.1391 15.5493 25.6626L17.354 23.8696C17.5415 23.6938 17.7055 23.6235 17.9516 23.6235H20.4829C22.5805 23.6235 23.5532 22.6626 23.5532 20.5532V18.0219C23.5532 17.7758 23.6235 17.6118 23.7993 17.4243L25.5923 15.6196C27.0805 14.143 27.0688 12.7719 25.5923 11.2954L23.7993 9.49072C23.6235 9.31494 23.5532 9.13916 23.5532 8.90479V6.36182C23.5532 4.27588 22.5923 3.2915 20.4829 3.2915H17.9516C17.7055 3.2915 17.5415 3.23291 17.354 3.05713L15.5493 1.26416C14.0727 -0.224117 12.7016 -0.212398 11.2251 1.26416L9.42041 3.05713C9.24463 3.23291 9.06885 3.2915 8.83448 3.2915H6.29151C4.19385 3.2915 3.22119 4.25244 3.22119 6.36182V8.90479C3.22119 9.13916 3.1626 9.31494 2.98682 9.49072L1.19385 11.2954C-0.294429 12.7719 -0.28271 14.143 1.19385 15.6196L2.98682 17.4243C3.1626 17.6118 3.22119 17.7758 3.22119 18.0219V20.5532C3.22119 22.6508 4.19385 23.6235 6.29151 23.6235Z" fill="black" fill-opacity="0.85"/>
<path d="M9.45557 18.3852C8.91651 18.3852 8.49463 17.9516 8.49463 17.4008C8.49463 17.143 8.58838 16.9087 8.77588 16.7212L12.0219 13.4751L8.77588 10.2172C8.58838 10.0415 8.49463 9.79541 8.49463 9.5376C8.49463 8.99854 8.91651 8.58838 9.45557 8.58838C9.7251 8.58838 9.93604 8.68213 10.1235 8.85791L13.393 12.1157L16.686 8.84619C16.8852 8.64697 17.0962 8.56494 17.354 8.56494C17.893 8.56494 18.3266 8.98682 18.3266 9.51416C18.3266 9.78369 18.2446 10.0064 18.0454 10.2055L14.7759 13.4751L18.0337 16.7094C18.2212 16.8969 18.3149 17.1313 18.3149 17.4008C18.3149 17.9516 17.8813 18.3852 17.3305 18.3852C17.061 18.3852 16.8149 18.2915 16.6391 18.104L13.393 14.8462L10.1587 18.104C9.97119 18.2915 9.7251 18.3852 9.45557 18.3852Z" fill="white"/>
</g>
<defs>
<clipPath id="clip0_2207_7882">
<rect width="26.6221" height="26.6338" fill="white" transform="translate(0.0820312 0.152344)"/>
</clipPath>
</defs>
</svg>
