<svg width="20" height="24" viewBox="0 0 20 24" fill="none" xmlns="http://www.w3.org/2000/svg">
<g clip-path="url(#clip0_2207_23110)">
<path d="M9.67212 23.8125C9.85962 23.8125 10.1526 23.7421 10.4456 23.5898C17.1135 20.0976 19.2581 18.3515 19.2581 14.1445V5.30859C19.2581 4.10156 18.7424 3.71484 17.7581 3.30468C16.387 2.74218 12.0042 1.14844 10.6448 0.679688C10.3284 0.574219 10.0002 0.515625 9.67212 0.515625C9.34399 0.515625 9.01587 0.585938 8.71118 0.679688C7.34009 1.125 2.95727 2.7539 1.58618 3.30468C0.613526 3.70312 0.0861816 4.10156 0.0861816 5.30859V14.1445C0.0861816 18.3515 2.3479 19.8984 8.89868 23.5898C9.20337 23.7539 9.48462 23.8125 9.67212 23.8125Z" fill="black" fill-opacity="0.85"/>
<path d="M5.73462 16.6523C5.19556 16.6523 4.77368 16.2187 4.77368 15.6679C4.77368 15.4101 4.86743 15.1757 5.05493 14.9882L8.30102 11.7421L5.05493 8.48437C4.86743 8.30859 4.77368 8.0625 4.77368 7.80468C4.77368 7.26562 5.19556 6.85546 5.73462 6.85546C6.00415 6.85546 6.21509 6.94922 6.40259 7.125L9.67212 10.3828L12.9651 7.11328C13.1643 6.91406 13.3753 6.83203 13.6331 6.83203C14.1721 6.83203 14.6057 7.2539 14.6057 7.78125C14.6057 8.05078 14.5237 8.27343 14.3245 8.47265L11.055 11.7421L14.3128 14.9765C14.5003 15.164 14.594 15.3984 14.594 15.6679C14.594 16.2187 14.1604 16.6523 13.6096 16.6523C13.3401 16.6523 13.094 16.5585 12.9182 16.3711L9.67212 13.1132L6.43774 16.3711C6.25024 16.5585 6.00415 16.6523 5.73462 16.6523Z" fill="white"/>
</g>
<defs>
<clipPath id="clip0_2207_23110">
<rect width="19.1719" height="23.6602" fill="white" transform="translate(0.0861816 0.152344)"/>
</clipPath>
</defs>
</svg>
