<svg width="24" height="25" viewBox="0 0 24 25" fill="none" xmlns="http://www.w3.org/2000/svg">
<g clip-path="url(#clip0_2207_23060)">
<path d="M12.0097 24.0585C18.5488 24.0585 23.9628 18.6328 23.9628 12.1054C23.9628 5.5664 18.5371 0.152344 11.998 0.152344C5.4707 0.152344 0.0566406 5.5664 0.0566406 12.1054C0.0566406 18.6328 5.48242 24.0585 12.0097 24.0585Z" fill="black" fill-opacity="0.85"/>
<path d="M8.07226 17.0273C7.5332 17.0273 7.11133 16.5937 7.11133 16.0546C7.11133 15.7968 7.20508 15.5507 7.39258 15.375L10.6386 12.1171L7.39258 8.87109C7.20508 8.68359 7.11133 8.44922 7.11133 8.1914C7.11133 7.64062 7.5332 7.23046 8.07226 7.23046C8.3418 7.23046 8.55273 7.32422 8.74023 7.5L12.0097 10.7578L15.3027 7.48828C15.5019 7.28906 15.7128 7.20703 15.9707 7.20703C16.5097 7.20703 16.9433 7.6289 16.9433 8.16796C16.9433 8.4375 16.8613 8.64843 16.6504 8.85937L13.3925 12.1171L16.6386 15.3632C16.8378 15.539 16.9316 15.7851 16.9316 16.0546C16.9316 16.5937 16.498 17.0273 15.9472 17.0273C15.6777 17.0273 15.4316 16.9335 15.2558 16.7461L12.0097 13.4882L8.77539 16.7461C8.58789 16.9335 8.3418 17.0273 8.07226 17.0273Z" fill="white"/>
</g>
<defs>
<clipPath id="clip0_2207_23060">
<rect width="23.9062" height="23.918" fill="white" transform="translate(0.0566406 0.152344)"/>
</clipPath>
</defs>
</svg>
