<svg width="28" height="22" viewBox="0 0 28 22" fill="none" xmlns="http://www.w3.org/2000/svg">
<g clip-path="url(#clip0_2207_23080)">
<path d="M3.75318 21.7265H24.0266C26.4876 21.7265 27.7063 20.5195 27.7063 18.1054V3.78515C27.7063 1.37109 26.4876 0.152344 24.0266 0.152344H3.75318C1.30396 0.152344 0.0734863 1.37109 0.0734863 3.78515V18.1054C0.0734863 20.5195 1.30396 21.7265 3.75318 21.7265Z" fill="black" fill-opacity="0.85"/>
<path d="M9.96411 15.8671C9.42505 15.8671 8.99146 15.4335 8.99146 14.8945C8.99146 14.6367 9.09693 14.3906 9.27271 14.2148L12.5305 10.957L9.27271 7.71094C9.09693 7.52344 8.99146 7.28907 8.99146 7.03126C8.99146 6.48047 9.42505 6.07032 9.96411 6.07032C10.2337 6.07032 10.4446 6.16407 10.6321 6.33985L13.9016 9.59765L17.1946 6.32812C17.3938 6.1289 17.6047 6.04688 17.8626 6.04688C18.4016 6.04688 18.8235 6.46876 18.8235 7.00782C18.8235 7.27735 18.7532 7.48828 18.5423 7.69922L15.2844 10.957L18.5305 14.2031C18.7297 14.3789 18.8118 14.625 18.8118 14.8945C18.8118 15.4335 18.3899 15.8671 17.8391 15.8671C17.5696 15.8671 17.3235 15.7734 17.1477 15.5859L13.9016 12.3281L10.6673 15.5859C10.4797 15.7734 10.2337 15.8671 9.96411 15.8671Z" fill="white"/>
</g>
<defs>
<clipPath id="clip0_2207_23080">
<rect width="27.6328" height="21.5742" fill="white" transform="translate(0.0734863 0.152344)"/>
</clipPath>
</defs>
</svg>
