<svg width="28" height="17" viewBox="0 0 28 17" fill="none" xmlns="http://www.w3.org/2000/svg">
<g clip-path="url(#clip0_2207_13225)">
<path d="M3.77198 16.8515H24.0454C26.4946 16.8515 27.7251 15.6445 27.7251 13.2187V9.48046C27.7251 7.875 27.3501 6.84375 26.3775 5.85937L22.4868 1.83984C21.3501 0.679688 20.3892 0.164062 18.8306 0.164062H8.98682C7.43995 0.164062 6.46729 0.679688 5.34229 1.83984L1.43995 5.85937C0.479004 6.84375 0.0922852 7.875 0.0922852 9.48046V13.2187C0.0922852 15.6445 1.32276 16.8515 3.77198 16.8515ZM3.79541 14.9648C2.62354 14.9648 1.97901 14.3437 1.97901 13.125V10.8398C1.97901 10.1133 2.30713 9.77343 3.02198 9.77343H24.7954C25.5103 9.77343 25.8384 10.1133 25.8384 10.8398V13.125C25.8384 14.3437 25.1939 14.9648 24.022 14.9648H3.79541ZM2.85791 8.0625C2.44776 8.0625 2.33057 7.6875 2.57667 7.4414L6.87745 2.88281C7.60401 2.12109 8.11963 1.875 9.08057 1.875H18.7368C19.6978 1.875 20.2134 2.12109 20.94 2.88281L25.2525 7.4414C25.4868 7.6875 25.3814 8.0625 24.9595 8.0625H2.85791ZM4.60401 13.4765C5.2251 13.4765 5.75245 12.9609 5.75245 12.3281C5.75245 11.707 5.2251 11.1914 4.60401 11.1914C3.9712 11.1914 3.45557 11.707 3.45557 12.3281C3.45557 12.9609 3.9712 13.4765 4.60401 13.4765ZM7.80323 13.8281C8.1665 13.8281 8.48291 13.5468 8.48291 13.1953V11.5546C8.48291 11.1914 8.1665 10.9101 7.80323 10.9101C7.45166 10.9101 7.17041 11.1914 7.17041 11.5546V13.1953C7.17041 13.5468 7.45166 13.8281 7.80323 13.8281ZM10.0532 13.8281C10.4165 13.8281 10.7329 13.5468 10.7329 13.1953V11.5546C10.7329 11.1914 10.4165 10.9101 10.0532 10.9101C9.70167 10.9101 9.42041 11.1914 9.42041 11.5546V13.1953C9.42041 13.5468 9.70167 13.8281 10.0532 13.8281ZM12.5376 13.0429C12.9243 13.0429 13.2407 12.7265 13.2407 12.3281C13.2407 11.9414 12.9243 11.625 12.5376 11.625C12.1509 11.625 11.8345 11.9414 11.8345 12.3281C11.8345 12.7265 12.1509 13.0429 12.5376 13.0429ZM15.0337 13.8281C15.3853 13.8281 15.6665 13.5468 15.6665 13.1953V11.5546C15.6665 11.1914 15.3853 10.9101 15.0337 10.9101C14.6704 10.9101 14.354 11.1914 14.354 11.5546V13.1953C14.354 13.5468 14.6704 13.8281 15.0337 13.8281ZM17.2837 13.8281C17.647 13.8281 17.9165 13.5468 17.9165 13.1953V11.5546C17.9165 11.1914 17.647 10.9101 17.2837 10.9101C16.9204 10.9101 16.6157 11.1914 16.6157 11.5546V13.1953C16.6157 13.5468 16.9204 13.8281 17.2837 13.8281ZM20.0259 13.0312H23.8111C24.1743 13.0312 24.4556 12.7148 24.4556 12.3515C24.4556 12 24.1743 11.7187 23.8111 11.7187H20.0259C19.6743 11.7187 19.3931 12 19.3931 12.3515C19.3931 12.7148 19.6743 13.0312 20.0259 13.0312Z" fill="black" fill-opacity="0.85"/>
</g>
<defs>
<clipPath id="clip0_2207_13225">
<rect width="27.6328" height="16.6992" fill="white" transform="translate(0.0922852 0.152344)"/>
</clipPath>
</defs>
</svg>
