<svg width="25" height="25" viewBox="0 0 25 25" fill="none" xmlns="http://www.w3.org/2000/svg">
<g clip-path="url(#clip0_2207_25311)">
<path d="M12.0517 24.0585C18.5908 24.0585 24.0048 18.6328 24.0048 12.1054C24.0048 5.5664 18.5791 0.152344 12.04 0.152344C5.51269 0.152344 0.0986328 5.5664 0.0986328 12.1054C0.0986328 18.6328 5.52441 24.0585 12.0517 24.0585Z" fill="black" fill-opacity="0.85"/>
<path d="M12.0517 17.6484C11.4306 17.6484 11.0908 17.2031 11.0908 16.5468V13.4296L7.68066 7.75781C7.56347 7.55859 7.5166 7.37109 7.5166 7.19531C7.5166 6.72656 7.90332 6.33984 8.40722 6.33984C8.84082 6.33984 9.07519 6.49218 9.33301 6.94922L12.0283 11.5898H12.0986L14.8174 6.94922C15.0634 6.5039 15.2861 6.33984 15.708 6.33984C16.2236 6.33984 16.5869 6.71484 16.5869 7.21875C16.5869 7.38281 16.54 7.58203 16.4228 7.75781L13.0361 13.4062V16.5468C13.0361 17.2382 12.6845 17.6484 12.0517 17.6484Z" fill="white"/>
</g>
<defs>
<clipPath id="clip0_2207_25311">
<rect width="23.9062" height="23.918" fill="white" transform="translate(0.0986328 0.152344)"/>
</clipPath>
</defs>
</svg>
