<svg width="22" height="22" viewBox="0 0 22 22" fill="none" xmlns="http://www.w3.org/2000/svg">
<g clip-path="url(#clip0_2207_25316)">
<path d="M3.67969 21.752H17.8945C20.3555 21.752 21.5742 20.5332 21.5742 18.1191V3.81055C21.5742 1.39649 20.3555 0.177734 17.8945 0.177734H3.67969C1.23047 0.177734 0 1.38477 0 3.81055V18.1191C0 20.5449 1.23047 21.752 3.67969 21.752ZM3.70312 19.8652C2.53125 19.8652 1.88672 19.2441 1.88672 18.0254V3.9043C1.88672 2.68555 2.53125 2.06446 3.70312 2.06446H17.8711C19.0312 2.06446 19.6875 2.68555 19.6875 3.9043V18.0254C19.6875 19.2441 19.0312 19.8652 17.8711 19.8652H3.70312Z" fill="black" fill-opacity="0.85"/>
<path d="M10.793 16.3145C11.4023 16.3145 11.7422 15.916 11.7422 15.2598V12.2012L15.0352 6.7168C15.1406 6.55274 15.1875 6.36524 15.1875 6.20118C15.1875 5.72071 14.8359 5.35742 14.3438 5.35742C13.9453 5.35742 13.7227 5.50977 13.4766 5.94336L10.8516 10.4434H10.7695L8.14453 5.94336C7.89844 5.49805 7.67578 5.35742 7.25391 5.35742C6.77344 5.35742 6.39844 5.73242 6.39844 6.17774C6.39844 6.35352 6.44531 6.5293 6.55078 6.7168L9.86719 12.2246V15.2598C9.86719 15.8926 10.1953 16.3145 10.793 16.3145Z" fill="black" fill-opacity="0.85"/>
</g>
<defs>
<clipPath id="clip0_2207_25316">
<rect width="21.5742" height="21.5977" fill="white" transform="translate(0 0.154297)"/>
</clipPath>
</defs>
</svg>
