<svg width="22" height="22" viewBox="0 0 22 22" fill="none" xmlns="http://www.w3.org/2000/svg">
<g clip-path="url(#clip0_2207_25413)">
<path d="M3.69239 21.752H17.9072C20.3682 21.752 21.5869 20.5332 21.5869 18.1191V3.81055C21.5869 1.39649 20.3682 0.177734 17.9072 0.177734H3.69239C1.24317 0.177734 0.0126953 1.38477 0.0126953 3.81055V18.1191C0.0126953 20.5449 1.24317 21.752 3.69239 21.752Z" fill="black" fill-opacity="0.85"/>
<path d="M10.8174 16.8535C10.3721 16.8535 10.0557 16.5254 10.0557 16.0332V14.2988H7.84081C7.50097 14.2988 7.25488 14.041 7.25488 13.7012C7.25488 13.3613 7.48925 13.1035 7.84081 13.1035H10.0557V12.1777H7.84081C7.50097 12.1777 7.25488 11.9199 7.25488 11.5684C7.25488 11.2285 7.48925 10.9707 7.84081 10.9707H9.49316L6.55175 6.23633C6.44628 6.06055 6.39941 5.91992 6.39941 5.73242C6.39941 5.33399 6.73925 5.01758 7.17285 5.01758C7.46581 5.01758 7.68847 5.13477 7.86425 5.41602L10.8174 10.3965L13.7705 5.42774C13.9463 5.15821 14.1689 5.0293 14.4619 5.0293C14.8955 5.0293 15.2354 5.34571 15.2354 5.74414C15.2354 5.93164 15.1885 6.07227 15.0713 6.24805L12.1416 10.9707H13.8291C14.1807 10.9707 14.415 11.2285 14.415 11.5684C14.415 11.9199 14.1807 12.1777 13.8291 12.1777H11.5791V13.1035H13.8291C14.1807 13.1035 14.415 13.3613 14.415 13.7012C14.415 14.041 14.1807 14.2988 13.8291 14.2988H11.5791V16.0449C11.5791 16.5371 11.2627 16.8535 10.8174 16.8535Z" fill="white"/>
</g>
<defs>
<clipPath id="clip0_2207_25413">
<rect width="21.5742" height="21.5977" fill="white" transform="translate(0.0126953 0.154297)"/>
</clipPath>
</defs>
</svg>
