<svg width="17" height="22" viewBox="0 0 17 22" fill="none" xmlns="http://www.w3.org/2000/svg">
<g clip-path="url(#clip0_2207_25394)">
<path d="M8.04321 21.8574C8.69946 21.8574 9.14477 21.3887 9.14477 20.7207V12.6816L15.8479 1.87696C16.0236 1.60742 16.0823 1.39649 16.0823 1.13867C16.0823 0.576172 15.6136 0.154297 14.9925 0.154297C14.5706 0.154297 14.2424 0.330078 14.008 0.740235L8.09009 10.6543H8.00806L2.09009 0.740235C1.84399 0.330078 1.51587 0.154297 1.09399 0.154297C0.484619 0.154297 0.00415039 0.576172 0.00415039 1.13867C0.00415039 1.39649 0.0744629 1.60742 0.238525 1.87696L6.95337 12.6816V20.7207C6.95337 21.3887 7.39868 21.8574 8.04321 21.8574ZM2.41821 12.9512H13.7737C14.219 12.9512 14.512 12.6231 14.512 12.1895C14.512 11.7559 14.219 11.4277 13.7737 11.4277H2.41821C1.9729 11.4277 1.67993 11.7559 1.67993 12.1895C1.67993 12.6231 1.9729 12.9512 2.41821 12.9512ZM2.41821 16.9707H13.7737C14.219 16.9707 14.512 16.6426 14.512 16.209C14.512 15.7754 14.2308 15.4355 13.7737 15.4355H2.41821C1.9729 15.4355 1.67993 15.7754 1.67993 16.209C1.67993 16.6309 1.9729 16.9707 2.41821 16.9707Z" fill="black" fill-opacity="0.85"/>
</g>
<defs>
<clipPath id="clip0_2207_25394">
<rect width="16.0781" height="21.7148" fill="white" transform="translate(0.00415039 0.154297)"/>
</clipPath>
</defs>
</svg>
