<svg width="25" height="23" viewBox="0 0 25 23" fill="none" xmlns="http://www.w3.org/2000/svg">
<g clip-path="url(#clip0_2207_16255)">
<path d="M3.21387 0.154297C1.22168 0.154297 0.0146484 1.54883 0.0146484 3.3418C0.0146484 3.88086 0.155273 4.44336 0.471679 4.98242L9.56543 20.8262C10.163 21.8809 11.2177 22.4199 12.2958 22.4199C13.374 22.4199 14.4169 21.8809 15.0263 20.8262L24.1201 4.98242C24.413 4.45508 24.5771 3.88086 24.5771 3.3418C24.5771 1.54883 23.3701 0.154297 21.3779 0.154297H3.21387ZM3.22559 2.00586H21.3544C22.163 2.00586 22.6787 2.63868 22.6787 3.3418C22.6787 3.57618 22.6201 3.83399 22.4912 4.08008L13.4091 19.9355C13.163 20.3691 12.7294 20.5566 12.2958 20.5566C11.8623 20.5566 11.4169 20.3691 11.1708 19.9355L2.08887 4.0918C1.95996 3.84571 1.91309 3.57618 1.91309 3.3418C1.91309 2.63868 2.40527 2.00586 3.22559 2.00586Z" fill="black" fill-opacity="0.85"/>
<path d="M4.90137 3.72852C4.4209 3.72852 4.13965 4.17383 4.39746 4.61914L11.7802 17.5215C12.0263 17.9551 12.5537 17.9551 12.7998 17.5215L20.1826 4.61914C20.4287 4.18555 20.1591 3.72852 19.6787 3.72852H4.90137Z" fill="black" fill-opacity="0.85"/>
</g>
<defs>
<clipPath id="clip0_2207_16255">
<rect width="24.5625" height="22.3945" fill="white" transform="translate(0.0146484 0.154297)"/>
</clipPath>
</defs>
</svg>
