<svg width="28" height="21" viewBox="0 0 28 21" fill="none" xmlns="http://www.w3.org/2000/svg">
<g clip-path="url(#clip0_2207_20931)">
<path d="M9.85937 0.154297C3.0625 0.154297 0.0273438 3.28321 0.0273438 9.68164V17.0293C0.0273438 19.3965 1.24609 20.5918 3.625 20.5918H23.4648C25.8437 20.5918 27.0625 19.3848 27.0625 17.0293V9.68164C27.0625 3.28321 24.0273 0.154297 17.2304 0.154297H9.85937ZM9.85937 2.04102H17.2187C22.7617 2.04102 25.1757 4.44336 25.1757 9.55274V16.9355C25.1757 18.1074 24.5429 18.7051 23.4179 18.7051H3.67187C2.52343 18.7051 1.91406 18.1074 1.91406 16.9355V9.55274C1.91406 4.44336 4.32812 2.04102 9.85937 2.04102Z" fill="black" fill-opacity="0.85"/>
<path d="M8.5 15.166H12.6953C13.082 15.166 13.4101 14.8379 13.4101 14.4512C13.4101 14.0645 13.082 13.7363 12.6953 13.7363H9.55468V13.666L13.0585 7.18555C13.1757 6.96289 13.2578 6.77539 13.2578 6.49414C13.2578 6.00196 12.9179 5.66211 12.4023 5.66211H8.35937C7.97265 5.66211 7.64453 5.99024 7.64453 6.37696C7.64453 6.76368 7.97265 7.0918 8.35937 7.0918H11.3711V7.16211L7.83203 13.6543C7.6914 13.9004 7.64453 14.0879 7.64453 14.3574C7.64453 14.8731 7.99609 15.166 8.5 15.166ZM15.7539 15.1309H19.1171C19.5156 15.1309 19.832 14.8027 19.832 14.416C19.832 14.0293 19.5156 13.7012 19.1171 13.7012H16.6093V6.35352C16.6093 5.88477 16.2226 5.49805 15.7656 5.49805C15.3085 5.49805 14.9218 5.88477 14.9218 6.35352V14.2402C14.9218 14.791 15.2148 15.1309 15.7539 15.1309Z" fill="black" fill-opacity="0.85"/>
</g>
<defs>
<clipPath id="clip0_2207_20931">
<rect width="27.0352" height="20.4492" fill="white" transform="translate(0.0273438 0.154297)"/>
</clipPath>
</defs>
</svg>
